<?xml version="1.0" encoding="UTF-8" standalone="no"?>
<!-- Created with Inkscape (http://www.inkscape.org/) -->

<svg
   width="512"
   height="512"
   viewBox="0 0 135.46666 135.46667"
   version="1.1"
   id="svg5"
   inkscape:version="1.4 (e7c3feb100, 2024-10-09)"
   sodipodi:docname="application-x-gba-rom.svg"
   xml:space="preserve"
   xmlns:inkscape="http://www.inkscape.org/namespaces/inkscape"
   xmlns:sodipodi="http://sodipodi.sourceforge.net/DTD/sodipodi-0.dtd"
   xmlns:xlink="http://www.w3.org/1999/xlink"
   xmlns="http://www.w3.org/2000/svg"
   xmlns:svg="http://www.w3.org/2000/svg"><sodipodi:namedview
     id="namedview7"
     pagecolor="#242424"
     bordercolor="#666666"
     borderopacity="1"
     inkscape:showpageshadow="0"
     inkscape:pageopacity="0"
     inkscape:pagecheckerboard="1"
     inkscape:deskcolor="#000000"
     inkscape:document-units="px"
     showgrid="false"
     inkscape:zoom="1.3037281"
     inkscape:cx="186.00504"
     inkscape:cy="218.22034"
     inkscape:window-width="3233"
     inkscape:window-height="1080"
     inkscape:window-x="1887"
     inkscape:window-y="0"
     inkscape:window-maximized="0"
     inkscape:current-layer="layer1" /><defs
     id="defs2"><linearGradient
       id="linearGradient21"
       inkscape:collect="always"><stop
         style="stop-color:#00abff;stop-opacity:1"
         offset="0"
         id="stop21" /><stop
         style="stop-color:#00abff;stop-opacity:0;"
         offset="1"
         id="stop22" /></linearGradient><linearGradient
       id="linearGradient5"
       inkscape:collect="always"><stop
         style="stop-color:#000000;stop-opacity:1;"
         offset="0"
         id="stop5" /><stop
         style="stop-color:#000000;stop-opacity:0;"
         offset="1"
         id="stop6" /></linearGradient><linearGradient
       id="linearGradient3"
       inkscape:collect="always"><stop
         style="stop-color:#1f1f1f;stop-opacity:1;"
         offset="0"
         id="stop3" /><stop
         style="stop-color:#292929;stop-opacity:1;"
         offset="1"
         id="stop4" /></linearGradient><linearGradient
       id="linearGradient1"
       inkscape:collect="always"><stop
         style="stop-color:#000080;stop-opacity:1;"
         offset="0"
         id="stop1" /><stop
         style="stop-color:#4e71ae;stop-opacity:1;"
         offset="1"
         id="stop2" /></linearGradient><linearGradient
       id="linearGradient39"
       inkscape:collect="always"><stop
         style="stop-color:#f9f9f9;stop-opacity:1;"
         offset="0"
         id="stop39" /><stop
         style="stop-color:#ffffff;stop-opacity:1;"
         offset="0.56"
         id="stop43" /><stop
         style="stop-color:#b8b8b8;stop-opacity:1;"
         offset="0.59000003"
         id="stop40" /><stop
         style="stop-color:#ffffff;stop-opacity:1;"
         offset="0.68333334"
         id="stop42" /><stop
         style="stop-color:#ffffff;stop-opacity:1;"
         offset="1"
         id="stop41" /></linearGradient><linearGradient
       id="linearGradient36"
       inkscape:collect="always"><stop
         style="stop-color:#0000ff;stop-opacity:1;"
         offset="0"
         id="stop36" /><stop
         style="stop-color:#0000ff;stop-opacity:0;"
         offset="1"
         id="stop37" /></linearGradient><linearGradient
       id="linearGradient29"
       inkscape:collect="always"><stop
         style="stop-color:#4d4d4d;stop-opacity:1;"
         offset="0"
         id="stop29" /><stop
         style="stop-color:#242424;stop-opacity:1;"
         offset="1"
         id="stop30" /></linearGradient><inkscape:path-effect
       effect="fillet_chamfer"
       id="path-effect28"
       is_visible="true"
       lpeversion="1"
       nodesatellites_param="F,0,0,1,0,0,0,1 @ F,0,0,1,0,0,0,1 @ F,0,0,1,0,0,0,1 @ F,0,0,1,0,0,0,1 @ F,0,0,1,0,0,0,1 @ F,0,0,1,0,0,0,1 @ F,0,1,1,0,3.7041665,0,1 @ F,0,0,1,0,0,0,1 @ F,0,1,1,0,3.7041665,0,1 @ F,0,0,1,0,0,0,1 @ F,0,0,1,0,0,0,1 @ F,0,0,1,0,0,0,1 @ F,0,0,1,0,0,0,1 @ F,0,0,1,0,0,0,1 @ F,0,0,1,0,0,0,1"
       radius="14"
       unit="px"
       method="auto"
       mode="F"
       chamfer_steps="1"
       flexible="false"
       use_knot_distance="true"
       apply_no_radius="true"
       apply_with_radius="true"
       only_selected="true"
       hide_knots="false" /><linearGradient
       id="linearGradient18"
       inkscape:collect="always"><stop
         style="stop-color:#000000;stop-opacity:1;"
         offset="0"
         id="stop18" /><stop
         style="stop-color:#141414;stop-opacity:0;"
         offset="1"
         id="stop19" /></linearGradient><linearGradient
       id="linearGradient16"
       inkscape:collect="always"><stop
         style="stop-color:#141414;stop-opacity:1;"
         offset="0"
         id="stop16" /><stop
         style="stop-color:#474747;stop-opacity:1;"
         offset="1"
         id="stop17" /></linearGradient><linearGradient
       id="linearGradient14"
       inkscape:collect="always"><stop
         style="stop-color:#000000;stop-opacity:0.60000002;"
         offset="0"
         id="stop14" /><stop
         style="stop-color:#474747;stop-opacity:1;"
         offset="1"
         id="stop15" /></linearGradient><linearGradient
       id="linearGradient12"
       inkscape:collect="always"><stop
         style="stop-color:#000000;stop-opacity:1;"
         offset="0"
         id="stop12" /><stop
         style="stop-color:#000000;stop-opacity:0;"
         offset="1"
         id="stop13" /></linearGradient><linearGradient
       id="linearGradient10"
       inkscape:collect="always"><stop
         style="stop-color:#000000;stop-opacity:1;"
         offset="0"
         id="stop11" /><stop
         style="stop-color:#808080;stop-opacity:1;"
         offset="1"
         id="stop10" /></linearGradient><linearGradient
       id="linearGradient7"
       inkscape:collect="always"><stop
         style="stop-color:#aeaeae;stop-opacity:1;"
         offset="0"
         id="stop7" /><stop
         style="stop-color:#808080;stop-opacity:1;"
         offset="1"
         id="stop8" /></linearGradient><linearGradient
       inkscape:collect="always"
       xlink:href="#linearGradient7"
       id="linearGradient8"
       x1="5.2766805"
       y1="74.756163"
       x2="8.0182204"
       y2="74.756163"
       gradientUnits="userSpaceOnUse" /><linearGradient
       inkscape:collect="always"
       xlink:href="#linearGradient10"
       id="linearGradient11"
       x1="-130.18999"
       y1="74.756163"
       x2="-127.44845"
       y2="74.756163"
       gradientUnits="userSpaceOnUse" /><linearGradient
       inkscape:collect="always"
       xlink:href="#linearGradient12"
       id="linearGradient13"
       x1="67.733337"
       y1="33.688644"
       x2="67.733337"
       y2="42.516689"
       gradientUnits="userSpaceOnUse" /><linearGradient
       inkscape:collect="always"
       xlink:href="#linearGradient14"
       id="linearGradient15"
       x1="67.73333"
       y1="99.685699"
       x2="67.73333"
       y2="103.56159"
       gradientUnits="userSpaceOnUse" /><linearGradient
       inkscape:collect="always"
       xlink:href="#linearGradient16"
       id="linearGradient17"
       x1="67.733337"
       y1="46.210049"
       x2="67.733337"
       y2="96.905586"
       gradientUnits="userSpaceOnUse" /><linearGradient
       inkscape:collect="always"
       xlink:href="#linearGradient18"
       id="linearGradient19"
       x1="4.8028607"
       y1="44.982784"
       x2="4.8028607"
       y2="42.77037"
       gradientUnits="userSpaceOnUse"
       gradientTransform="matrix(1,0,0,0.39229158,0,27.336416)" /><linearGradient
       inkscape:collect="always"
       xlink:href="#linearGradient18"
       id="linearGradient20"
       gradientUnits="userSpaceOnUse"
       gradientTransform="matrix(1,0,0,0.39229158,125.86095,27.336421)"
       x1="4.8028607"
       y1="44.982784"
       x2="4.8028607"
       y2="42.77037" /><filter
       style="color-interpolation-filters:sRGB;"
       inkscape:label="Noise Fill"
       id="filter28"
       x="0"
       y="0"
       width="1"
       height="1"><feTurbulence
         type="fractalNoise"
         baseFrequency="2 2"
         numOctaves="1"
         seed="9"
         result="turbulence"
         id="feTurbulence27" /><feComposite
         in="SourceGraphic"
         in2="turbulence"
         operator="in"
         result="composite1"
         id="feComposite27" /><feColorMatrix
         values="1 0 0 0 0 0 1 0 0 0 0 0 1 0 0 0 0 0 3.4 -1 "
         result="color"
         id="feColorMatrix27" /><feFlood
         flood-opacity="1"
         flood-color="rgb(50,50,50)"
         result="flood"
         id="feFlood27" /><feMerge
         result="merge"
         id="feMerge28"><feMergeNode
           in="flood"
           id="feMergeNode27" /><feMergeNode
           in="color"
           id="feMergeNode28" /></feMerge><feComposite
         in2="SourceGraphic"
         operator="in"
         result="composite2"
         id="feComposite28" /></filter><linearGradient
       inkscape:collect="always"
       xlink:href="#linearGradient29"
       id="linearGradient30"
       x1="67.73333"
       y1="29.62248"
       x2="67.733337"
       y2="44.982784"
       gradientUnits="userSpaceOnUse" /><filter
       inkscape:collect="always"
       style="color-interpolation-filters:sRGB"
       id="filter31"
       x="-0.0022739952"
       y="-0.043088077"
       width="1.004548"
       height="1.0861762"><feGaussianBlur
         inkscape:collect="always"
         stdDeviation="0.1183551"
         id="feGaussianBlur31" /></filter><linearGradient
       inkscape:collect="always"
       xlink:href="#linearGradient36"
       id="linearGradient37"
       x1="115.35833"
       y1="60.395279"
       x2="115.35834"
       y2="96.129166"
       gradientUnits="userSpaceOnUse" /><clipPath
       clipPathUnits="userSpaceOnUse"
       id="clipPath39"><path
         id="path39"
         style="font-style:normal;font-variant:normal;font-weight:normal;font-stretch:normal;font-size:12.5159px;line-height:1.25;font-family:'02.10ital';-inkscape-font-specification:'02.10ital, Normal';font-variant-ligatures:normal;font-variant-caps:normal;font-variant-numeric:normal;font-variant-east-asian:normal;text-align:center;text-orientation:upright;text-anchor:middle;fill:#f9f9f9;stroke:none;stroke-width:1.5875;stroke-dasharray:none;stroke-opacity:1;paint-order:markers stroke fill"
         d="m 210.20061,20.636982 c -0.16613,0.0084 -0.35006,0.04802 -0.55088,0.118339 l -10.31203,3.610631 c -1.14189,0.399832 -1.7205,1.247602 -1.7353,2.543517 l -0.0579,4.834329 c -7.9e-4,0.124031 0.0182,0.241154 0.0568,0.351406 0.12409,0.35438 0.38695,0.461026 0.78858,0.320395 l 1.28778,-0.450617 c 0.56701,-0.198541 0.8558,-0.622422 0.86714,-1.27176 l 0.048,-3.385323 c 0.0114,-0.649335 0.30064,-1.073219 0.86765,-1.271758 l 3.43752,-1.203544 c 0.4095,-0.143387 0.675,-0.04161 0.79633,0.304892 0.0331,0.0945 0.0494,0.216496 0.0491,0.366897 l -0.005,0.47904 c -7.9e-4,0.124032 0.0178,0.241652 0.0564,0.351904 0.12408,0.354381 0.38695,0.461021 0.78859,0.32039 l 3.8628,-1.352369 c 0.57489,-0.201296 0.8682,-0.626555 0.87954,-1.275892 l 0.0263,-1.932181 c 0.002,-0.221697 -0.0401,-0.454536 -0.12557,-0.698665 -0.18613,-0.53157 -0.52793,-0.784961 -1.02629,-0.759645 z m -15.93391,5.541264 c -0.0844,0.0052 -0.17823,0.02565 -0.28061,0.0615 l -11.16263,3.908808 c -1.14976,0.40259 -1.73239,1.251733 -1.74718,2.547649 l -0.0367,3.871595 c -0.004,0.29297 0.0279,0.53395 0.094,0.722953 0.24266,0.693012 0.77365,0.896561 1.59266,0.609785 l 3.43752,-1.204063 c 0.56701,-0.198538 0.85631,-0.622422 0.86764,-1.271755 l 0.0212,-0.962218 c 0.008,-0.329983 0.15018,-0.54324 0.42581,-0.639752 l 6.01256,-2.1053 c 0.23625,-0.08272 0.45434,-0.216426 0.65474,-0.401523 0.4268,-0.396984 0.64485,-0.89779 0.65422,-1.502236 l 0.0315,-2.901632 c 5.2e-4,-0.150432 -0.016,-0.272921 -0.0491,-0.367422 -0.091,-0.259879 -0.26263,-0.382073 -0.51572,-0.366387 z m -3.60444,3.657141 c 0.12655,-0.0078 0.21237,0.05351 0.25787,0.183452 0.0193,0.05513 0.0266,0.114355 0.0222,0.177773 -0.024,0.3355 -0.16541,0.548757 -0.42529,0.639755 l -6.01307,2.105297 c -0.20476,0.0717 -0.33862,0.0168 -0.40205,-0.16433 -0.0193,-0.05513 -0.0301,-0.113157 -0.0341,-0.173635 0.0267,-0.327623 0.17357,-0.53825 0.44132,-0.632002 l 6.01307,-2.105303 c 0.0512,-0.01791 0.0978,-0.02843 0.14005,-0.031 z m -13.00799,2.195732 c -0.16873,0.01045 -0.35542,0.05181 -0.56018,0.123505 l -8.58758,3.007048 c -0.40951,0.143391 -0.67501,0.04162 -0.79634,-0.304887 -0.0331,-0.0945 -0.0495,-0.21699 -0.0491,-0.367425 l 0.009,-0.95808 c 7.9e-4,-0.124034 -0.0182,-0.241154 -0.0568,-0.351406 -0.12409,-0.35438 -0.38695,-0.461026 -0.78858,-0.320397 l -0.86248,0.301794 c -0.57133,0.261935 -0.86012,0.685819 -0.86713,1.271754 l -0.0971,7.751982 c -0.002,0.221697 0.0382,0.450528 0.12092,0.686782 0.24817,0.708761 0.77391,0.922562 1.57717,0.641302 l 10.31255,-3.610633 c 1.14189,-0.399831 1.72187,-1.244106 1.73942,-2.532145 l 0.0486,-3.875733 c 0.004,-0.266591 -0.0329,-0.510199 -0.11008,-0.730702 -0.18199,-0.519758 -0.5263,-0.764143 -1.03249,-0.732772 z m -16.62586,2.895431 c -0.0831,0.0042 -0.17451,0.02376 -0.27492,0.05891 l -1.28777,0.450617 c -0.57133,0.261937 -0.86064,0.685821 -0.86765,1.271757 l -0.0532,4.355287 c -0.0113,0.649338 -0.30013,1.073225 -0.86714,1.27176 l -2.57555,0.901753 c -0.40163,0.140631 -0.66449,0.03347 -0.78858,-0.320911 -0.0386,-0.110252 -0.0571,-0.227346 -0.0563,-0.351411 l 0.0527,-4.354775 c -0.002,-0.131908 -0.0219,-0.253037 -0.0605,-0.363288 -0.12133,-0.346504 -0.38683,-0.448279 -0.79634,-0.30489 l -4.72529,1.654677 c -0.57488,0.201295 -0.86418,0.625179 -0.86765,1.27176 l -0.0848,7.747846 c -0.003,0.292968 0.0279,0.533951 0.0941,0.722953 0.24266,0.693013 0.77314,0.896043 1.59216,0.609267 l 10.31254,-3.61115 c 0.29138,-0.102026 0.57774,-0.281421 0.85887,-0.538985 0.57523,-0.528524 0.86886,-1.192888 0.88056,-1.992644 l 0.0966,-7.751982 c 0.001,-0.09766 -0.0213,-0.213394 -0.0682,-0.34727 -0.0931,-0.265785 -0.26448,-0.391962 -0.51367,-0.379302 z m 14.46114,0.221692 c 0.12211,-0.0063 0.20564,0.05558 0.25114,0.18552 0.0193,0.05513 0.0311,0.112988 0.0346,0.17363 -0.024,0.3355 -0.16994,0.550135 -0.43769,0.643888 l -3.43752,1.203544 c -0.19687,0.06894 -0.32725,0.01265 -0.39067,-0.168465 -0.0193,-0.05513 -0.031,-0.112826 -0.0341,-0.173636 0.0267,-0.327623 0.17408,-0.538247 0.44183,-0.632002 l 3.43752,-1.203544 c 0.0493,-0.01725 0.0942,-0.02685 0.13488,-0.02894 z m -25.19537,15.036292 c -0.30872,0 -0.61325,0.07512 -0.91363,0.225313 -0.60911,0.308722 -0.91364,0.838613 -0.91364,1.589567 v 1.376659 c -3e-5,0.300392 -0.15024,0.450622 -0.45062,0.450619 h -0.46302 c -0.75096,0 -1.28084,0.304531 -1.58957,0.913641 -0.15019,0.300379 -0.22531,0.600858 -0.22531,0.901234 v 2.74092 c -3e-5,0.300386 0.0751,0.600853 0.2253,0.901242 0.30874,0.6091 0.83861,0.913641 1.58956,0.913641 l 11.84011,-6e-6 c 0.60911,6e-6 0.91363,-0.304543 0.91364,-0.913638 v -2.72851 c 0,-0.609116 -0.30455,-0.913638 -0.91364,-0.913638 h -10.46344 c -0.28371,-4.5e-5 -0.43799,-0.150238 -0.46303,-0.450622 0.025,-0.300382 0.17933,-0.45062 0.46303,-0.450618 l 7.73493,-2e-6 c 0.27535,2e-6 0.42557,-0.154313 0.45061,-0.463021 -0.0251,-0.300371 -0.17526,-0.450617 -0.45062,-0.45062 l -5.46943,3e-6 c -0.27535,-3e-6 -0.42558,-0.150239 -0.45062,-0.450623 0.025,-0.308723 0.17527,-0.463018 0.45063,-0.463021 l 7.2843,6e-6 c 0.60911,-6e-6 0.91364,-0.304546 0.91365,-0.913641 l -1e-5,-0.901234 c 0,-0.609116 -0.30455,-0.913638 -0.91364,-0.913643 z m 18.81126,0 c -0.30039,-3.2e-5 -0.60086,0.07512 -0.90124,0.225295 -0.6091,0.30874 -0.91365,0.838615 -0.91364,1.589577 l -1e-5,6.383065 c -2e-5,0.300397 0.0751,0.600855 0.2253,0.901242 0.30874,0.609103 0.83862,0.913641 1.58957,0.913641 h 10.92647 c 0.30871,8e-6 0.61325,-0.07511 0.91364,-0.225293 0.6091,-0.30874 0.91364,-0.838613 0.91364,-1.589566 l -1e-5,-3.642154 c -1e-5,-0.292036 -0.0792,-0.596567 -0.23769,-0.913643 -0.30874,-0.609103 -0.83861,-0.913641 -1.58956,-0.913641 l -2.72852,-3e-6 c -0.30039,-2.9e-5 -0.45061,-0.150233 -0.45061,-0.450611 l -1e-5,-0.463024 c -0.0584,-0.60076 -0.30055,-1.059577 -0.72606,-1.376664 -0.39216,-0.292036 -0.90935,-0.438211 -1.55184,-0.438216 z m 1.82728,1.814877 3.64215,-2e-6 c 0.28367,-5.1e-5 0.43393,0.154297 0.45062,0.463018 -0.0167,0.300381 -0.16692,0.450622 -0.45062,0.450627 l -3.64215,-1e-5 c -0.28368,5.3e-5 -0.43394,-0.150236 -0.45062,-0.450609 0.0167,-0.308732 0.16692,-0.463032 0.45062,-0.463024 z m 13.46739,0.913641 c -0.30039,-2.7e-5 -0.60085,0.07512 -0.90124,0.225295 -0.6091,0.308742 -0.91364,0.842674 -0.91364,1.601975 v 3.642154 c -3e-5,0.300389 0.0751,0.600856 0.2253,0.901242 0.30874,0.609103 0.83861,0.913633 1.58956,0.91363 l 10.92647,3e-6 c 0.75095,-3e-6 1.28033,-0.304527 1.58906,-0.913638 0.15853,-0.317066 0.23822,-0.617543 0.23823,-0.901234 v -3.642157 c 0,-0.759301 -0.30454,-1.293248 -0.91365,-1.60197 -0.30038,-0.150188 -0.60491,-0.225311 -0.91363,-0.225313 z m 14.39292,-5e-6 c -0.60911,5e-6 -0.91363,0.304546 -0.91363,0.913638 l -1e-5,4.555799 c 1e-5,0.750951 0.30453,1.280845 0.91364,1.589566 0.30038,0.150188 0.60086,0.225309 0.90124,0.225312 l 9.11158,-6e-6 c 0.60077,3e-6 0.90124,0.304536 0.90125,0.913646 l -1e-5,0.901237 c 1e-5,0.609103 0.30455,0.91363 0.91364,0.913638 l 0.91364,-5e-6 c 0.60911,5e-6 0.91364,-0.304546 0.91364,-0.913638 v -8.185549 c 1e-5,-0.609103 -0.30454,-0.913628 -0.91364,-0.913638 l -5.0064,5e-6 c -0.60912,-3e-6 -0.91364,0.304546 -0.91365,0.91364 v 1.81487 c 0,0.308724 -0.15024,0.463024 -0.45061,0.463021 l -3.64216,3e-6 c -0.3004,-2.7e-5 -0.45062,-0.1543 -0.45063,-0.463024 v -1.81487 c 1e-5,-0.609115 -0.30454,-0.913638 -0.91363,-0.913638 z m -24.21815,2.277898 h 3.64214 c 0.27535,5e-6 0.42559,0.150236 0.45063,0.450617 -0.025,0.308732 -0.17527,0.463018 -0.45062,0.463026 l -3.64216,3e-6 c -0.2837,-4.5e-5 -0.43799,-0.154305 -0.46302,-0.463029 0.025,-0.300381 0.17933,-0.450612 0.46303,-0.450617 z m 15.29466,0 3.64216,-3e-6 c 0.27535,3e-6 0.42559,0.150244 0.45061,0.45062 -0.025,0.308727 -0.17526,0.463026 -0.45061,0.463021 l -3.64215,3e-6 c -0.28371,-4.3e-5 -0.43799,-0.154295 -0.46302,-0.463019 0.025,-0.300386 0.17932,-0.450619 0.46301,-0.450622 z" /></clipPath><linearGradient
       inkscape:collect="always"
       xlink:href="#linearGradient39"
       id="linearGradient40"
       x1="50.987122"
       y1="76.32074"
       x2="50.987122"
       y2="92.917854"
       gradientUnits="userSpaceOnUse" /><linearGradient
       inkscape:collect="always"
       xlink:href="#linearGradient39"
       id="linearGradient45"
       x1="28.423933"
       y1="73.943214"
       x2="28.607979"
       y2="84.079491"
       gradientUnits="userSpaceOnUse"
       gradientTransform="translate(3.9330888,-2.4306729)" /><linearGradient
       inkscape:collect="always"
       xlink:href="#linearGradient1"
       id="linearGradient2"
       x1="67.733337"
       y1="46.986469"
       x2="67.73333"
       y2="96.129013"
       gradientUnits="userSpaceOnUse" /><clipPath
       clipPathUnits="userSpaceOnUse"
       id="clipPath7"><path
         id="path8"
         style="display:inline;opacity:1;fill:url(#linearGradient9);stroke-width:3.70417;stroke-linecap:round;stroke-linejoin:round;stroke-miterlimit:12;paint-order:markers stroke fill"
         d="m 8.2341227,29.62248 c -3.6821081,0 -6.6466227,2.964516 -6.6466227,6.646624 v 1.033529 1.033528 6.646622 H 5.2766803 V 37.57445 c 0,-2.045756 1.6584118,-3.704167 3.7041667,-3.704167 h 14.688121 c 10.01195,0 29.359305,-2.645833 44.064362,-2.645833 14.705057,0 33.75251,2.645833 44.06437,2.645833 h 14.68812 c 2.04576,0 3.70417,1.658414 3.70417,3.704167 v 7.408333 h 3.68918 v -6.646622 -1.033528 -1.033529 c 0,-3.682108 -2.96452,-6.646624 -6.64663,-6.646624 z"
         sodipodi:nodetypes="sscccccczzzccccsssss" /></clipPath><linearGradient
       inkscape:collect="always"
       xlink:href="#linearGradient29"
       id="linearGradient9"
       gradientUnits="userSpaceOnUse"
       x1="67.73333"
       y1="29.62248"
       x2="67.733337"
       y2="44.982784" /><filter
       inkscape:collect="always"
       style="color-interpolation-filters:sRGB"
       id="filter9"
       x="-0.049186567"
       y="-1.0778775"
       width="1.0983731"
       height="3.155755"><feGaussianBlur
         inkscape:collect="always"
         stdDeviation="2.6898877"
         id="feGaussianBlur9" /></filter><radialGradient
       inkscape:collect="always"
       xlink:href="#linearGradient12"
       id="radialGradient1"
       cx="67.733337"
       cy="-9.5526018"
       fx="67.733337"
       fy="-9.5526037"
       r="47.655258"
       gradientTransform="matrix(-0.99999994,0,0,-0.18524811,135.46666,31.919043)"
       gradientUnits="userSpaceOnUse" /><linearGradient
       inkscape:collect="always"
       xlink:href="#linearGradient3"
       id="linearGradient4"
       x1="67.73333"
       y1="99.685699"
       x2="67.73333"
       y2="103.56159"
       gradientUnits="userSpaceOnUse" /><linearGradient
       inkscape:collect="always"
       xlink:href="#linearGradient5"
       id="linearGradient6"
       x1="67.73333"
       y1="33.688644"
       x2="67.73333"
       y2="42.516689"
       gradientUnits="userSpaceOnUse" /><linearGradient
       inkscape:collect="always"
       xlink:href="#linearGradient21"
       id="linearGradient22"
       x1="-26.738659"
       y1="54.060028"
       x2="67.439827"
       y2="77.638901"
       gradientUnits="userSpaceOnUse" /></defs><g
     inkscape:label="Layer 1"
     inkscape:groupmode="layer"
     id="layer1"><path
       id="rect1"
       style="display:inline;opacity:1;fill:#292929;fill-opacity:1;stroke-width:3.70416;stroke-linecap:round;stroke-linejoin:round;stroke-miterlimit:12;paint-order:markers stroke fill;filter:url(#filter28)"
       d="m 8.2341226,29.622481 c -3.6821079,0 -6.6466226,2.964515 -6.6466226,6.646623 v 1.033528 1.033529 6.646622 H 5.2766804 V 104.52954 L 6.6151,105.86796 h 0.2563151 60.8619169 60.861918 0.25631 l 1.33842,-1.33842 V 44.982783 h 3.68919 v -6.646622 -1.033529 -1.033528 c 0,-3.682108 -2.96452,-6.646623 -6.64663,-6.646623 z" /><path
       style="display:inline;opacity:0.2;fill:url(#linearGradient13);fill-opacity:1;stroke:none;stroke-width:0.264583px;stroke-linecap:butt;stroke-linejoin:miter;stroke-opacity:1"
       d="m 20.078075,42.516691 c 0,0 19.440822,-8.828048 47.655259,-8.828048 28.214437,0 47.655256,8.828048 47.655256,8.828048"
       id="path6"
       sodipodi:nodetypes="czc" /><path
       id="rect6"
       style="opacity:0.28;fill:url(#linearGradient8);stroke-width:3.70416;stroke-linecap:round;stroke-linejoin:round;stroke-miterlimit:12;paint-order:markers stroke fill"
       d="m 5.2766805,44.982784 h 2.7415399 l 0,60.885176 H 6.6151 l -1.3384195,-1.33842 z"
       sodipodi:nodetypes="cccccc" /><path
       id="rect8"
       style="opacity:0.28;fill:url(#linearGradient11);stroke-width:3.70416;stroke-linecap:round;stroke-linejoin:round;stroke-miterlimit:12;paint-order:markers stroke fill"
       transform="scale(-1,1)"
       d="m -130.18999,44.982784 h 2.74154 v 60.885176 l -1.40311,0 -1.33843,-1.33842 z"
       sodipodi:nodetypes="cccccc" /><path
       id="path11"
       style="opacity:1;fill:url(#linearGradient4);stroke-width:0.26458333;stroke-linecap:round;stroke-linejoin:round;stroke-miterlimit:12;paint-order:markers stroke fill;stroke:url(#linearGradient15);stroke-opacity:1;stroke-dasharray:none;fill-opacity:1"
       inkscape:transform-center-y="3.6266436"
       d="m 67.581125,103.56159 c -0.524754,-4.4e-4 -1.551356,-0.11047 -1.551356,-0.11047 L 55.170275,99.685696 h 25.126114 l -11.125856,3.765424 c 0,0 -1.064654,0.11092 -1.589408,0.11047 z"
       sodipodi:nodetypes="zccccz" /><rect
       style="display:inline;opacity:1;mix-blend-mode:normal;fill:#242424;fill-opacity:1;stroke:url(#linearGradient17);stroke-width:0.529167;stroke-linecap:round;stroke-linejoin:round;stroke-miterlimit:12;stroke-dasharray:none;stroke-opacity:1;paint-order:markers stroke fill"
       id="rect15"
       width="97.339958"
       height="50.695541"
       x="19.063354"
       y="46.210049"
       ry="2.2323818" /><path
       id="path28"
       style="display:inline;opacity:0.8;fill:url(#linearGradient30);stroke-width:3.70416;stroke-linecap:round;stroke-linejoin:round;stroke-miterlimit:12;paint-order:markers stroke fill"
       d="m 8.2341226,29.622481 c -3.6821079,0 -6.6466226,2.964515 -6.6466226,6.646623 v 1.033528 1.033529 6.646622 H 5.2766804 V 37.57445 c 0,-2.045755 1.6584118,-3.704167 3.7041665,-3.704167 H 23.668968 c 10.011949,0 29.359304,-2.645833 44.064362,-2.645833 14.705058,0 33.75251,2.645834 44.06437,2.645834 h 14.68812 c 2.04576,0 3.70417,1.658412 3.70417,3.704166 v 7.408334 l 3.68918,-1e-6 v -6.646622 -1.033529 -1.033528 c 0,-3.682108 -2.96452,-6.646623 -6.64663,-6.646623 z"
       sodipodi:nodetypes="sscccccczzzccccsssss" /><rect
       style="opacity:0.6;fill:url(#linearGradient19);fill-opacity:1;stroke:none;stroke-width:0.529167;stroke-linecap:round;stroke-linejoin:round;stroke-miterlimit:12;stroke-dasharray:none;stroke-opacity:1;paint-order:markers stroke fill"
       id="rect17"
       width="6.4307213"
       height="0.86791074"
       x="1.5875"
       y="44.114872"
       ry="0" /><rect
       style="opacity:0.6;fill:url(#linearGradient20);fill-opacity:1;stroke:none;stroke-width:0.529167;stroke-linecap:round;stroke-linejoin:round;stroke-miterlimit:12;stroke-dasharray:none;stroke-opacity:1;paint-order:markers stroke fill"
       id="rect19"
       width="6.4307213"
       height="0.86791074"
       x="127.44845"
       y="44.114872"
       ry="0" /><path
       id="path30"
       style="display:inline;opacity:1;mix-blend-mode:overlay;fill:#ffffff;fill-opacity:1;stroke-width:3.70416;stroke-linecap:round;stroke-linejoin:round;stroke-miterlimit:12;paint-order:markers stroke fill;filter:url(#filter31)"
       d="m 67.733332,30.982089 c -14.705058,0 -34.052544,2.645834 -44.064493,2.645834 H 8.9808471 c -2.0457547,0 -3.7041667,1.658412 -3.7041667,3.704167 v 0.242362 c 0,-2.045755 1.658412,-3.704167 3.7041667,-3.704167 H 23.668839 c 10.011949,0 29.359435,-2.645833 44.064493,-2.645833 14.705058,0 33.752638,2.645833 44.064498,2.645833 h 14.68799 c 2.04576,0 3.70416,1.658413 3.70416,3.704167 V 37.33209 c 0,-2.045754 -1.6584,-3.704167 -3.70416,-3.704167 h -14.68799 c -10.31186,0 -29.35944,-2.645834 -44.064498,-2.645834 z"
       sodipodi:nodetypes="sssscssssscssss" /><rect
       style="display:inline;opacity:1;mix-blend-mode:normal;fill:url(#linearGradient2);fill-opacity:1;stroke:none;stroke-width:0.529167;stroke-linecap:round;stroke-linejoin:round;stroke-miterlimit:12;stroke-dasharray:none;stroke-opacity:1;paint-order:markers stroke fill"
       id="rect31"
       width="95.25"
       height="49.1427"
       x="20.108334"
       y="46.986469"
       ry="2.1640024" /><path
       id="path31"
       style="display:inline;opacity:0.8;fill:url(#linearGradient37);stroke-width:0.529167;stroke-linecap:round;stroke-linejoin:round;stroke-miterlimit:12;paint-order:markers stroke fill"
       d="m 115.35833,60.395279 c -12.98526,6.85627 -33.068068,7.338053 -47.624997,7.338053 -19.069874,0 -47.624999,-1.213166 -47.625,8.648568 v 17.583423 c 0,1.198857 0.965352,2.163692 2.164209,2.163692 h 90.921578 c 1.19886,0 2.16421,-0.964835 2.16421,-2.163692 z"
       sodipodi:nodetypes="cscssssc" /><path
       id="path7"
       style="opacity:0.44;fill:url(#linearGradient22);stroke:none;stroke-width:0.264583;stroke-linecap:round;stroke-linejoin:round;stroke-miterlimit:12;stroke-dasharray:none;stroke-opacity:1;paint-order:markers stroke fill;fill-opacity:1"
       d="M -24.91681 53.067535 C -26.115667 53.067535 -27.081019 54.032886 -27.081019 55.231744 L -27.081019 62.013759 L -13.251372 102.21027 L -11.912953 102.21027 L -26.351348 55.025038 L -1.2774263 102.21027 L -0.025823121 102.21027 L -23.710165 53.679901 L 12.841608 102.21027 L 13.907176 102.21027 L -20.520696 53.067535 L -24.91681 53.067535 z M -20.142424 53.067535 L 30.721137 102.21027 L 31.379495 102.21027 L -16.099777 53.067535 L -20.142424 53.067535 z M -14.612013 53.067535 L 51.316262 99.254896 L -10.007126 53.067535 L -14.612013 53.067535 z M -5.9510428 53.067535 L 59.919871 85.214926 L -0.57617712 53.067535 L -5.9510428 53.067535 z M 10.879971 53.067535 L 66.221295 70.001901 L 17.001561 53.067535 L 10.879971 53.067535 z M 63.51345 53.067535 L 67.439825 53.620473 C 67.393611 53.57932 67.346343 53.539754 67.296682 53.50265 L 64.826548 53.067535 L 63.51345 53.067535 z M -27.081019 70.780665 L -27.081019 84.896599 L -24.032626 102.21027 L -22.655966 102.21027 L -27.081019 70.780665 z "
       transform="translate(47.189352,-6.081256)" /><path
       d="m 14.239263,81.627159 q 0.463088,0 0.988756,-0.225286 1.076367,-0.463088 1.489392,-1.589519 L 19.370782,72.5281 q 0.05006,-0.137675 0.05006,-0.350445 0,-0.563216 -0.63831,-0.563216 h -1.364233 q -0.938693,0.08761 -1.239075,0.913661 l -1.489392,4.092699 q -0.337929,0.913661 -1.239074,0.913661 h -2.728466 q -0.638311,0 -0.638311,-0.563216 0,-0.175222 0.06258,-0.350445 L 11.635956,72.5281 q 0.06258,-0.187738 0.06258,-0.362961 0,-0.5507 -0.650826,-0.5507 H 6.0413487 q -0.9136607,0 -1.2390741,0.913661 L 2.1614198,79.812354 Q 2.011229,80.225378 2.011229,80.52576 q 0,1.101399 1.3016536,1.101399 z M 35.14082,74.342906 h -9.099059 q -0.650827,0 -0.650827,-0.5507 0,-0.150191 0.0751,-0.362961 L 25.791443,72.5281 q 0.06258,-0.175223 0.06258,-0.350445 0,-0.563216 -0.638311,-0.563216 h -0.913661 q -0.938692,0.08761 -1.239074,0.913661 l -2.653371,7.284254 q -0.112643,0.312897 -0.112643,0.688374 0,1.126431 1.276622,1.126431 h 10.92638 q 1.814806,0 2.478148,-1.814805 l 1.326686,-3.642127 q 0.137675,-0.375477 0.137675,-0.725922 0,-1.101399 -1.301654,-1.101399 z m -2.978784,3.191554 h -3.642127 q -0.312897,0 -0.312897,-0.287866 0,-0.08761 0.02503,-0.175222 0.200254,-0.450573 0.625795,-0.450573 h 3.642126 q 0.312898,0 0.312898,0.27535 0,0.08761 -0.02503,0.175223 -0.200254,0.463088 -0.625795,0.463088 z m 9.712334,0 q -0.325414,0 -0.325414,-0.287866 0,-0.08761 0.02503,-0.175222 0.200255,-0.450573 0.625795,-0.450573 h 6.370593 q 0.325414,0 0.325414,0.27535 0,0.08761 -0.03755,0.175223 -0.200255,0.463088 -0.613279,0.463088 z m 1.902417,2.277894 q 0.175222,-0.463089 0.613279,-0.463089 h 6.370593 q 0.375477,0 0.750954,-0.162706 0.801017,-0.350446 1.113915,-1.201527 l 0.988756,-2.728466 q 0.0751,-0.21277 0.0751,-0.362961 0,-0.550699 -0.650827,-0.550699 H 41.211027 q -1.827321,0 -2.490664,1.827321 l -1.314169,3.642127 q -0.150191,0.413024 -0.150191,0.713406 0,1.101399 1.301653,1.101399 h 3.642127 q 0.901145,0 1.239074,-0.913661 z m 11.376949,1.814805 q -0.638311,0 -0.638311,-0.563215 0,-0.175223 0.06258,-0.350446 l 1.652098,-4.543271 q 0.663343,-1.827321 2.478149,-1.827321 h 10.92638 q 1.276622,0 1.276622,1.12643 0,0.387993 -0.112643,0.700891 l -0.663343,1.814805 q -0.337929,0.913661 -1.25159,0.913661 h -4.092699 q -0.638311,0 -0.638311,-0.563215 0,-0.175223 0.06258,-0.350446 l 0.162707,-0.450572 q 0.0751,-0.21277 0.0751,-0.362961 0,-0.5507 -0.650827,-0.5507 h -3.642127 q -0.901145,0 -1.239074,0.913661 l -1.163979,3.179038 q -0.337929,0.913661 -1.239074,0.913661 z"
       id="text32"
       style="font-size:12.5159px;line-height:1.25;font-family:'02.10ital';-inkscape-font-specification:'02.10ital, Normal';text-align:center;text-orientation:upright;text-anchor:middle;fill:url(#linearGradient45);stroke:#000000;stroke-width:1.5875;paint-order:markers stroke fill"
       transform="rotate(-15.602765)"
       aria-label="Uber" /><path
       style="font-size:12.5159px;line-height:1.25;font-family:'02.10';-inkscape-font-specification:'02.10, Normal';text-align:center;text-orientation:upright;text-anchor:middle;fill:url(#linearGradient40);stroke:#000000;stroke-width:1.5875;paint-order:markers stroke fill"
       d="m 30.754489,86.096685 q 0.425541,0 0.450572,-0.463088 -0.02503,-0.450572 -0.450572,-0.450572 h -1.827321 q -0.901145,0 -0.901145,-0.913661 v -0.450572 q 0,-0.913661 0.901145,-0.913661 h 7.284253 q 0.463089,0 0.913661,0.225286 0.913661,0.463088 0.913661,1.602035 v 3.642127 q 0,0.425541 -0.237802,0.901145 -0.463089,0.91366 -1.58952,0.91366 h -10.92638 q -0.450572,0 -0.901145,-0.225286 -0.913661,-0.463088 -0.913661,-1.589519 V 81.99147 q 0,-0.450572 0.225287,-0.901145 0.463088,-0.91366 1.589519,-0.91366 h 6.833681 q 0.450573,0 0.450573,0.450572 v 0.913661 q 0,0.450572 -0.450573,0.450572 h -5.00636 q -0.450572,0 -0.450572,0.463088 v 3.179039 q 0,0.463088 0.450572,0.463088 z m 27.009312,-3.191554 h -2.728466 q -0.450573,0 -0.450573,-0.450573 V 81.99147 q -0.08761,-0.901145 -0.725922,-1.376749 -0.588247,-0.438056 -1.551971,-0.438056 h -5.469448 q -0.450573,0 -0.901145,0.225286 -0.913661,0.463088 -0.913661,1.589519 v 6.383109 q 0,0.450572 0.225286,0.901145 0.463089,0.91366 1.58952,0.91366 h 10.92638 q 0.463088,0 0.913661,-0.225286 0.91366,-0.463088 0.91366,-1.589519 v -3.642127 q 0,-0.438056 -0.237802,-0.91366 -0.463088,-0.913661 -1.589519,-0.913661 z m -9.549632,-0.450573 q 0.02503,-0.463088 0.450573,-0.463088 h 3.642127 q 0.42554,0 0.450572,0.463088 -0.02503,0.450573 -0.450572,0.450573 h -3.642127 q -0.425541,0 -0.450573,-0.450573 z m 7.734826,3.642127 h -3.642126 q -0.425541,0 -0.463089,-0.463088 0.03755,-0.450572 0.463089,-0.450572 h 3.642126 q 0.413025,0 0.450573,0.450572 -0.03755,0.463088 -0.450573,0.463088 z m 6.182855,-3.191554 q -0.450572,0 -0.901144,0.225286 -0.913661,0.463088 -0.913661,1.602035 v 3.642127 q 0,0.450572 0.225286,0.901145 0.463088,0.91366 1.589519,0.91366 h 10.926381 q 1.126431,0 1.589519,-0.91366 0.237802,-0.475604 0.237802,-0.901145 v -3.642127 q 0,-1.138947 -0.913661,-1.602035 -0.450572,-0.225286 -0.91366,-0.225286 z m 9.111575,3.191554 h -3.642127 q -0.42554,0 -0.463088,-0.463088 0.03755,-0.450572 0.463088,-0.450572 h 3.642127 q 0.413025,0 0.450573,0.450572 -0.03755,0.463088 -0.450573,0.463088 z m 18.936561,-2.277893 q 0,-0.913661 -0.913661,-0.913661 h -5.00636 q -0.913661,0 -0.913661,0.913661 v 1.814805 q 0,0.463088 -0.450572,0.463088 h -3.642127 q -0.450572,0 -0.450572,-0.463088 v -1.814805 q 0,-0.913661 -0.913661,-0.913661 h -1.364233 q -0.913661,0 -0.913661,0.913661 v 4.555787 q 0,1.126431 0.913661,1.589519 0.450573,0.225286 0.901145,0.225286 h 9.111575 q 0.901145,0 0.901145,0.913661 v 0.901145 q 0,0.913661 0.91366,0.913661 h 0.913661 q 0.913661,0 0.913661,-0.913661 z"
       id="text33"
       aria-label="G Boy" /><g
       id="g36"
       transform="matrix(0.78782943,0,0,0.78782943,25.485896,29.360968)"
       style="display:inline;stroke-width:1.26931"><ellipse
         style="opacity:1;fill:#fafafa;fill-opacity:1;stroke:none;stroke-width:2.01503;stroke-linecap:round;stroke-linejoin:round;stroke-miterlimit:12;stroke-dasharray:none;stroke-opacity:1;paint-order:markers stroke fill"
         id="path35"
         cx="98.135002"
         cy="68.808815"
         rx="7.9375"
         ry="7.9375005" /><g
         id="g35"
         transform="matrix(0.96729982,0,0,0.96729982,-13.685319,7.4072466)"
         style="stroke-width:1.31221"><path
           id="path120"
           style="fill:#d4aa00;fill-opacity:1;stroke:none;stroke-width:0.277754;stroke-linecap:round;stroke-linejoin:round;stroke-dasharray:none;stroke-dashoffset:149.514;stroke-opacity:1;paint-order:markers stroke fill"
           d="m 116.8214,51.858333 -1.74689,1.585231 -1.90341,-1.394115 -1.1715,2.047784 -2.24096,-0.737863 -0.48141,2.309664 -2.35925,-0.0093 0.25568,2.345304 -2.24638,0.720301 0.96797,2.151606 -1.914,1.379135 1.58523,1.747163 -1.39411,1.903155 2.04778,1.17149 -0.73786,2.240966 2.30966,0.481406 -0.009,2.359251 2.3453,-0.255682 0.7203,2.246389 2.1516,-0.967978 1.37914,1.914003 1.74716,-1.585231 1.90315,1.394114 1.17149,-2.047783 2.24097,0.737863 0.4814,-2.309664 2.35925,0.0093 -0.25568,-2.345305 2.24639,-0.720301 -0.96772,-2.151348 1.914,-1.379393 -1.58549,-1.747163 1.39412,-1.903155 -2.04779,-1.17149 0.73787,-2.240965 -2.30967,-0.481407 0.009,-2.359251 -2.34531,0.255683 -0.7203,-2.24639 -2.15134,0.967978 z m -1.22107,3.552952 a 8.0661335,8.0661335 0 0 1 8.06613,8.066133 8.0661335,8.0661335 0 0 1 -8.06613,8.066133 8.0661335,8.0661335 0 0 1 -8.06613,-8.066133 8.0661335,8.0661335 0 0 1 8.06613,-8.066133 z" /><path
           style="font-size:2.57988px;line-height:1.25;font-family:'Adobe Gothic Std';-inkscape-font-specification:'Adobe Gothic Std, Normal';text-align:center;text-anchor:middle;fill:#d4aa00;stroke-width:0.347191"
           d="m 112.21309,57.533395 c -0.51855,0 -0.8462,0.436 -0.8462,1.029372 0,0.575313 0.29669,1.013893 0.8204,1.013893 0.49276,0 0.84362,-0.353444 0.84362,-1.044851 0,-0.528876 -0.2683,-0.998414 -0.81782,-0.998414 z m -0.0103,0.312165 c 0.29153,0 0.42826,0.337965 0.42826,0.701728 0,0.399881 -0.14705,0.717206 -0.43084,0.717206 -0.2812,0 -0.43342,-0.319905 -0.43342,-0.709467 0,-0.363763 0.13674,-0.709467 0.436,-0.709467 z m 0.95714,0.265728 v 0.281207 h 0.19091 v 1.155786 h 0.38182 v -1.155786 h 0.28379 v -0.281207 h -0.28637 c 0,-0.144473 0,-0.361183 0.21413,-0.361183 0.0593,0 0.10319,0.01032 0.13931,0.02322 l 0.0284,-0.294106 c -0.0568,-0.01806 -0.13157,-0.03354 -0.22703,-0.03354 -0.2812,0 -0.53403,0.172852 -0.53403,0.606272 v 0.05934 z m 0.91327,0 v 0.281207 h 0.19091 v 1.155786 h 0.38183 v -1.155786 h 0.28378 v -0.281207 h -0.28636 c 0,-0.144473 0,-0.361183 0.21413,-0.361183 0.0593,0 0.10319,0.01032 0.13931,0.02322 l 0.0284,-0.294106 c -0.0568,-0.01806 -0.13157,-0.03354 -0.22703,-0.03354 -0.28121,0 -0.53403,0.172852 -0.53403,0.606272 v 0.05934 z m 1.4499,-0.392142 c 0,-0.118674 -0.0826,-0.20381 -0.20639,-0.20381 -0.11868,0 -0.20381,0.08514 -0.20381,0.20381 0,0.116095 0.0826,0.203811 0.20381,0.203811 0.11867,0 0.20639,-0.07998 0.20639,-0.203811 z m -0.39473,0.392142 v 1.436993 h 0.38183 v -1.436993 z m 1.70014,0.0258 c -0.0619,-0.0258 -0.17543,-0.05418 -0.29926,-0.05418 -0.4747,0 -0.75333,0.330225 -0.75333,0.761065 0,0.456639 0.27347,0.730106 0.69399,0.730106 0.15222,0 0.28379,-0.03096 0.34828,-0.06192 l -0.0413,-0.286367 c -0.0619,0.02838 -0.13674,0.04644 -0.23219,0.04644 -0.21929,0 -0.38182,-0.162532 -0.38182,-0.443739 0,-0.252828 0.13931,-0.446319 0.37924,-0.446319 0.10577,0 0.17543,0.02322 0.22445,0.04644 z m 0.6295,-0.417941 c 0,-0.118674 -0.0826,-0.20381 -0.2064,-0.20381 -0.11867,0 -0.20381,0.08514 -0.20381,0.20381 0,0.116095 0.0826,0.203811 0.20381,0.203811 0.11868,0 0.2064,-0.07998 0.2064,-0.203811 z m -0.39473,0.392142 v 1.436993 h 0.38183 v -1.436993 z m 0.80493,0.340544 c 0.0929,-0.05676 0.22187,-0.09803 0.35344,-0.09803 0.20897,0 0.25799,0.108355 0.25799,0.250248 -0.45664,0 -0.78429,0.172852 -0.78429,0.541775 0,0.232189 0.16512,0.43084 0.43084,0.43084 0.15996,0 0.29927,-0.0645 0.38183,-0.178012 h 0.008 l 0.0232,0.149633 h 0.34312 c -0.0155,-0.08772 -0.0206,-0.21413 -0.0206,-0.340544 v -0.526295 c 0,-0.314746 -0.12125,-0.598533 -0.56757,-0.598533 -0.22445,0 -0.40246,0.0645 -0.49792,0.121255 z m 0.62175,0.603692 c 0,0.183172 -0.14964,0.247669 -0.23993,0.247669 -0.0955,0 -0.18059,-0.05934 -0.18059,-0.196071 0,-0.20897 0.21413,-0.257988 0.42052,-0.257988 z m 0.71204,-1.581466 v 2.074223 h 0.38183 v -2.074223 z"
           id="text120"
           aria-label="Official" /><path
           style="color:#000000;fill:#d4aa00;stroke-width:1.31221;stroke-linecap:round;stroke-linejoin:round;stroke-dashoffset:149.514;-inkscape-stroke:none;paint-order:markers stroke fill"
           d="m 110.25281,61.492913 c -1.09511,0 -1.98438,0.889261 -1.98438,1.984375 0,1.095114 0.88927,1.984375 1.98438,1.984375 h 10.69531 c 1.09511,0 1.98438,-0.889261 1.98438,-1.984375 0,-1.095114 -0.88927,-1.984375 -1.98438,-1.984375 z m 0,0.529297 h 10.69531 c 0.81111,0 1.45508,0.643969 1.45508,1.455078 0,0.811109 -0.64397,1.455078 -1.45508,1.455078 h -10.69531 c -0.81111,0 -1.45508,-0.643969 -1.45508,-1.455078 0,-0.811109 0.64397,-1.455078 1.45508,-1.455078 z"
           id="path121" /><path
           style="font-size:2.57988px;line-height:1.25;font-family:'Adobe Gothic Std';-inkscape-font-specification:'Adobe Gothic Std, Normal';text-align:center;text-anchor:middle;fill:#d4aa00;stroke-width:0.347191"
           d="m 112.15297,69.395381 c 0.0929,0.05676 0.29153,0.110935 0.4876,0.110935 0.4618,0 0.72237,-0.252828 0.72237,-0.598532 0,-0.260568 -0.1419,-0.44374 -0.45922,-0.585633 -0.24251,-0.110935 -0.34055,-0.175432 -0.34055,-0.317325 0,-0.110935 0.0903,-0.21929 0.29153,-0.21929 0.16253,0 0.28379,0.04902 0.35344,0.08514 l 0.08,-0.312166 c -0.0929,-0.04644 -0.23734,-0.09029 -0.42568,-0.09029 -0.42826,0 -0.68366,0.250248 -0.68366,0.575313 0,0.257988 0.18575,0.443739 0.48501,0.572733 0.21929,0.09546 0.31475,0.180592 0.31475,0.322485 0,0.147053 -0.11094,0.247669 -0.32249,0.247669 -0.15995,0 -0.32506,-0.04902 -0.42826,-0.110935 z m 1.35444,-1.351857 v 0.281207 h 0.18833 v 0.663029 c 0,0.159952 0.008,0.518556 0.42052,0.518556 0.11094,0 0.20381,-0.0129 0.25541,-0.03354 l -0.005,-0.291526 c -0.0387,0.0077 -0.0697,0.0129 -0.12383,0.0129 -0.1161,0 -0.17027,-0.07224 -0.17027,-0.245088 v -0.624331 h 0.31732 v -0.281207 h -0.31732 v -0.374083 l -0.37667,0.110935 v 0.263148 z m 1.95039,0 v 0.884899 c 0,0.162532 -0.11093,0.268307 -0.23477,0.268307 -0.15737,0 -0.21929,-0.136733 -0.21929,-0.353443 v -0.799763 h -0.38182 v 0.85652 c 0,0.43084 0.18575,0.608852 0.45922,0.608852 0.22187,0 0.35344,-0.126414 0.41278,-0.21929 h 0.008 l 0.0181,0.190911 h 0.3328 c -0.005,-0.121254 -0.0129,-0.268308 -0.0129,-0.43858 v -0.998413 z m 0.58563,0 v 0.281207 h 0.19092 v 1.155786 h 0.38182 v -1.155786 h 0.28378 v -0.281207 h -0.28636 c 0,-0.144473 0,-0.361183 0.21413,-0.361183 0.0593,0 0.10319,0.01032 0.13931,0.02322 l 0.0284,-0.294107 c -0.0568,-0.01806 -0.13158,-0.03354 -0.22703,-0.03354 -0.28121,0 -0.53404,0.172852 -0.53404,0.606272 v 0.05934 z m 0.91328,0 v 0.281207 h 0.19091 v 1.155786 h 0.38182 v -1.155786 h 0.28379 v -0.281207 h -0.28637 c 0,-0.144473 0,-0.361183 0.21413,-0.361183 0.0593,0 0.1032,0.01032 0.13932,0.02322 l 0.0284,-0.294107 c -0.0568,-0.01806 -0.13158,-0.03354 -0.22703,-0.03354 -0.28121,0 -0.53404,0.172852 -0.53404,0.606272 v 0.05934 z m 1.04485,-0.546935 0.0516,1.357017 h 0.29927 l 0.0516,-1.357017 z m 0.20123,2.012307 c 0.13932,0 0.22703,-0.100616 0.22703,-0.234769 0,-0.139314 -0.0929,-0.237349 -0.22703,-0.237349 -0.13157,0 -0.22703,0.09804 -0.22703,0.237349 0,0.131573 0.0877,0.234769 0.22703,0.234769 z"
           id="text123"
           aria-label="Stuff!" /><path
           d="m 111.22356,63.983642 q 0,0.261432 -0.18989,0.407283 -0.18988,0.145851 -0.51185,0.145851 -0.16512,0 -0.30546,-0.02477 -0.14035,-0.02477 -0.23392,-0.0688 v -0.236664 q 0.0991,0.04403 0.24492,0.07981 0.14861,0.03578 0.30547,0.03578 0.22015,0 0.33023,-0.08531 0.11282,-0.08531 0.11282,-0.231161 0,-0.09632 -0.0413,-0.162362 -0.0413,-0.06605 -0.1431,-0.121084 -0.0991,-0.05779 -0.27794,-0.121084 -0.25042,-0.09081 -0.37976,-0.222905 -0.12659,-0.132092 -0.12659,-0.3605 0,-0.156859 0.0798,-0.266936 0.0798,-0.112828 0.22015,-0.17337 0.1431,-0.06054 0.32748,-0.06054 0.16236,0 0.29721,0.03027 0.13484,0.03027 0.24492,0.07981 l -0.077,0.211897 q -0.10182,-0.04403 -0.22291,-0.0743 -0.11833,-0.03027 -0.24767,-0.03027 -0.18438,0 -0.27794,0.0798 -0.0936,0.07705 -0.0936,0.206394 0,0.09907 0.0413,0.165114 0.0413,0.06605 0.13484,0.118332 0.0936,0.05229 0.25318,0.112829 0.17337,0.06329 0.2917,0.137595 0.12108,0.07155 0.18163,0.173371 0.0633,0.10182 0.0633,0.255927 z m 0.60542,-0.952161 q 0,0.110077 -0.0138,0.206394 h 0.0165 q 0.0716,-0.112829 0.19264,-0.170619 0.12383,-0.05779 0.26693,-0.05779 0.26969,0 0.40454,0.12934 0.13484,0.126588 0.13484,0.410034 v 0.960417 h -0.23942 v -0.943905 q 0,-0.354997 -0.33023,-0.354997 -0.24767,0 -0.34123,0.140348 -0.0908,0.137595 -0.0908,0.396275 v 0.762279 h -0.24217 v -2.091452 h 0.24217 z m 1.58234,-0.550382 q 0.055,0 0.0963,0.03853 0.044,0.03578 0.044,0.11558 0,0.07705 -0.044,0.11558 -0.0413,0.03853 -0.0963,0.03853 -0.0605,0 -0.10182,-0.03853 -0.0413,-0.03853 -0.0413,-0.11558 0,-0.07981 0.0413,-0.11558 0.0413,-0.03853 0.10182,-0.03853 z m 0.11834,0.553134 v 1.475024 h -0.24217 v -1.475024 z m 0.96041,1.304406 q 0.055,0 0.11283,-0.0083 0.0578,-0.01101 0.0936,-0.02201 v 0.184377 q -0.0385,0.01926 -0.11008,0.03027 -0.0716,0.01376 -0.13759,0.01376 -0.11558,0 -0.21465,-0.03853 -0.0963,-0.04128 -0.15686,-0.140347 -0.0605,-0.09907 -0.0605,-0.277943 V 63.22132 h -0.20915 v -0.11558 l 0.2119,-0.09632 0.0963,-0.313718 h 0.1431 v 0.338485 h 0.42655 v 0.18713 h -0.42655 v 0.853092 q 0,0.134844 0.0633,0.20089 0.0661,0.06329 0.16787,0.06329 z m 1.07049,-1.331925 q 0.18989,0 0.32473,0.08256 0.13759,0.08256 0.20914,0.233913 0.0743,0.148603 0.0743,0.349492 v 0.145852 h -1.00995 q 0.006,0.250423 0.12659,0.382515 0.12384,0.12934 0.34399,0.12934 0.14035,0 0.24767,-0.02477 0.11008,-0.02752 0.22566,-0.07705 v 0.211897 q -0.11283,0.04954 -0.22291,0.07155 -0.11007,0.02477 -0.26143,0.02477 -0.20914,0 -0.37151,-0.08531 -0.15961,-0.08531 -0.25042,-0.253176 -0.0881,-0.170618 -0.0881,-0.415538 0,-0.242168 0.0798,-0.415539 0.0826,-0.17337 0.22841,-0.266935 0.1486,-0.09356 0.34399,-0.09356 z m -0.003,0.198138 q -0.17337,0 -0.27519,0.112828 -0.0991,0.110076 -0.11833,0.308214 h 0.75127 q -0.003,-0.18713 -0.0881,-0.30271 -0.0853,-0.118332 -0.26969,-0.118332 z m 1.69517,-0.198138 q 0.26419,0 0.39903,0.12934 0.13484,0.126588 0.13484,0.412786 v 0.960417 h -0.23941 v -0.943905 q 0,-0.354997 -0.33023,-0.354997 -0.24492,0 -0.33849,0.137596 -0.0936,0.137595 -0.0936,0.396275 v 0.765031 h -0.24216 v -1.475024 h 0.19538 l 0.0358,0.20089 h 0.0138 q 0.0716,-0.115581 0.19814,-0.170619 0.12659,-0.05779 0.26693,-0.05779 z m 1.51355,1.530062 q -0.27519,0 -0.4403,-0.189882 -0.16512,-0.192633 -0.16512,-0.572397 0,-0.379764 0.16512,-0.572397 0.16787,-0.195386 0.44306,-0.195386 0.17062,0 0.27794,0.06329 0.11008,0.06329 0.17887,0.154107 h 0.0165 q -0.003,-0.03577 -0.011,-0.104573 -0.006,-0.07155 -0.006,-0.112828 v -0.588909 h 0.24217 v 2.091452 h -0.19538 l -0.0358,-0.198138 h -0.011 q -0.066,0.09356 -0.17612,0.159611 -0.11007,0.06605 -0.28345,0.06605 z m 0.0385,-0.200889 q 0.23391,0 0.32748,-0.126588 0.0963,-0.12934 0.0963,-0.38802 v -0.04403 q 0,-0.275191 -0.0908,-0.421042 -0.0908,-0.148603 -0.33573,-0.148603 -0.19539,0 -0.29445,0.156858 -0.0963,0.154107 -0.0963,0.415539 0,0.264183 0.0963,0.410034 0.0991,0.145852 0.2972,0.145852 z m 2.41343,-0.566894 q 0,0.366004 -0.18713,0.566894 -0.18438,0.200889 -0.50085,0.200889 -0.19539,0 -0.34949,-0.08806 -0.15136,-0.09081 -0.23942,-0.261432 -0.0881,-0.17337 -0.0881,-0.41829 0,-0.366004 0.18438,-0.564141 0.18437,-0.198138 0.50084,-0.198138 0.20089,0 0.35225,0.09081 0.15411,0.08806 0.23941,0.25868 0.0881,0.167866 0.0881,0.412786 z m -1.11453,0 q 0,0.261432 0.10182,0.415539 0.10458,0.151355 0.33023,0.151355 0.22291,0 0.32748,-0.151355 0.10457,-0.154107 0.10457,-0.415539 0,-0.261431 -0.10457,-0.410034 -0.10457,-0.148604 -0.33023,-0.148604 -0.22566,0 -0.32748,0.148604 -0.10182,0.148603 -0.10182,0.410034 z"
           id="text1"
           style="font-size:2.75191px;line-height:1.25;fill:#d4aa00;stroke-width:0.347191"
           aria-label="Shitendo" /></g></g><path
       id="path4"
       style="display:inline;opacity:0.44;fill:#ffffff;fill-opacity:1;stroke-width:3.70416;stroke-linecap:round;stroke-linejoin:round;stroke-miterlimit:12;paint-order:markers stroke fill;filter:url(#filter9)"
       d="M 5.6420328 30.143379 C 4.8463128 30.478836 4.130707 30.964302 3.530017 31.564998 C 2.929317 32.165694 2.4438484 32.881294 2.1083984 33.677014 L 5.5676187 36.132678 C 5.7550587 35.689518 6.0262087 35.290133 6.3613687 34.954972 C 6.6965287 34.619811 7.0959146 34.348663 7.5390746 34.161222 C 7.5390746 34.161222 7.5391028 34.16143 5.6420328 30.143379 z M 129.82463 30.143379 C 127.92756 34.16143 127.92759 34.161222 127.92759 34.161222 C 128.37075 34.348663 128.77014 34.619811 129.1053 34.954972 C 129.44046 35.290133 129.71161 35.689518 129.89905 36.132678 L 133.35827 33.677014 C 133.02282 32.881294 132.53735 32.165694 131.93665 31.564998 C 131.33596 30.964302 130.62035 30.478836 129.82463 30.143379 z "
       clip-path="url(#clipPath7)" /><path
       style="display:inline;opacity:0.6;fill:url(#radialGradient1);stroke:url(#linearGradient6);stroke-width:0.264583px;stroke-linecap:butt;stroke-linejoin:miter;stroke-opacity:1"
       d="m 20.078075,42.516691 c 0,0 19.440822,-8.828048 47.655259,-8.828048 28.214437,0 47.655256,8.828048 47.655256,8.828048"
       id="path1"
       sodipodi:nodetypes="czc" /></g></svg>
