<?xml version="1.0" encoding="UTF-8" standalone="no"?>
<!-- Created with Inkscape (http://www.inkscape.org/) -->

<svg
   width="512"
   height="512"
   viewBox="0 0 135.46666 135.46667"
   version="1.1"
   id="svg5"
   inkscape:version="1.3.2 (091e20ef0f, 2023-11-25, custom)"
   sodipodi:docname="application-vnd.oasis.opendocument.spreadsheet-template.svg"
   xmlns:inkscape="http://www.inkscape.org/namespaces/inkscape"
   xmlns:sodipodi="http://sodipodi.sourceforge.net/DTD/sodipodi-0.dtd"
   xmlns:xlink="http://www.w3.org/1999/xlink"
   xmlns="http://www.w3.org/2000/svg"
   xmlns:svg="http://www.w3.org/2000/svg">
  <sodipodi:namedview
     id="namedview7"
     pagecolor="#292929"
     bordercolor="#666666"
     borderopacity="1"
     inkscape:showpageshadow="0"
     inkscape:pageopacity="0"
     inkscape:pagecheckerboard="1"
     inkscape:deskcolor="#1a1a1a"
     inkscape:document-units="px"
     showgrid="false"
     inkscape:zoom="0.921875"
     inkscape:cx="431.18644"
     inkscape:cy="238.64407"
     inkscape:window-width="3256"
     inkscape:window-height="1080"
     inkscape:window-x="1864"
     inkscape:window-y="0"
     inkscape:window-maximized="0"
     inkscape:current-layer="layer1" />
  <defs
     id="defs2">
    <inkscape:path-effect
       effect="fillet_chamfer"
       id="path-effect9"
       is_visible="true"
       lpeversion="1"
       nodesatellites_param="F,0,0,1,0,8,0,1 @ F,0,0,1,0,8,0,1 @ F,0,0,1,0,8,0,1 @ F,0,0,1,0,8,0,1 @ F,0,0,1,0,15.928244,0,1 @ F,0,0,1,0,0,0,1 @ F,0,0,1,0,8,0,1 @ F,0,0,1,0,17.275852,0,1 @ F,0,0,1,0,0,0,1 @ F,0,0,1,0,8,0,1 @ F,0,0,1,0,8,0,1 @ F,0,0,1,0,16.756634,0,1 @ F,0,0,1,0,0,0,1"
       radius="8"
       unit="px"
       method="auto"
       mode="F"
       chamfer_steps="1"
       flexible="false"
       use_knot_distance="true"
       apply_no_radius="true"
       apply_with_radius="true"
       only_selected="false"
       hide_knots="false" />
    <inkscape:path-effect
       effect="fillet_chamfer"
       id="path-effect7"
       is_visible="true"
       lpeversion="1"
       nodesatellites_param="F,0,0,1,0,8,0,1 @ F,0,0,1,0,8,0,1 @ F,0,0,1,0,8,0,1 @ F,0,0,1,0,8,0,1 @ F,0,0,1,0,15.928244,0,1 @ F,0,0,1,0,0,0,1 @ F,0,0,1,0,8,0,1 @ F,0,0,1,0,17.275852,0,1 @ F,0,0,1,0,0,0,1 @ F,0,0,1,0,8,0,1 @ F,0,0,1,0,8,0,1 @ F,0,0,1,0,16.756634,0,1 @ F,0,0,1,0,0,0,1"
       radius="8"
       unit="px"
       method="auto"
       mode="F"
       chamfer_steps="1"
       flexible="false"
       use_knot_distance="true"
       apply_no_radius="true"
       apply_with_radius="true"
       only_selected="false"
       hide_knots="false" />
    <linearGradient
       inkscape:collect="always"
       xlink:href="#linearGradient1389-3"
       id="linearGradient3016-9"
       x1="0"
       y1="0"
       x2="135.46666"
       y2="135.46666"
       gradientUnits="userSpaceOnUse"
       gradientTransform="translate(-132.02708,0.52916666)" />
    <linearGradient
       inkscape:collect="always"
       id="linearGradient1389-3">
      <stop
         style="stop-color:#000000;stop-opacity:1;"
         offset="0"
         id="stop1385-6" />
      <stop
         style="stop-color:#808080;stop-opacity:1;"
         offset="0.5"
         id="stop1393-0" />
      <stop
         style="stop-color:#000000;stop-opacity:1;"
         offset="1"
         id="stop1387-6" />
    </linearGradient>
    <linearGradient
       inkscape:collect="always"
       xlink:href="#linearGradient3036"
       id="linearGradient2906"
       x1="-86.658417"
       y1="0"
       x2="-86.658417"
       y2="135.46667"
       gradientUnits="userSpaceOnUse"
       gradientTransform="translate(150.95217,0.52916666)" />
    <linearGradient
       inkscape:collect="always"
       id="linearGradient3036">
      <stop
         style="stop-color:#808080;stop-opacity:1;"
         offset="0"
         id="stop3032" />
      <stop
         style="stop-color:#ffffff;stop-opacity:1;"
         offset="0.5"
         id="stop3038" />
      <stop
         style="stop-color:#000000;stop-opacity:1;"
         offset="1"
         id="stop3034" />
    </linearGradient>
  </defs>
  <g
     inkscape:label="Layer 1"
     inkscape:groupmode="layer"
     id="layer1">
    <rect
       style="display:inline;opacity:1;fill:url(#linearGradient3016-9);fill-opacity:1;stroke-width:1.947;stroke-linecap:square;stroke-linejoin:round;paint-order:stroke fill markers"
       id="rect785-2"
       width="135.46666"
       height="135.46666"
       x="-132.02708"
       y="0.52916205"
       ry="14.432917"
       transform="scale(-1,1)" />
    <rect
       style="display:inline;opacity:0.28;mix-blend-mode:hard-light;fill:#36a900;fill-opacity:1;stroke-width:1.947;stroke-linecap:square;stroke-linejoin:round;paint-order:stroke fill markers"
       id="rect5341"
       width="135.46666"
       height="135.46666"
       x="-132.02708"
       y="0.52916205"
       ry="14.432917"
       transform="scale(-1,1)" />
    <path
       id="rect785-53-9"
       style="display:inline;mix-blend-mode:luminosity;fill:url(#linearGradient2906);fill-opacity:1;stroke-width:1.947;stroke-linecap:square;stroke-linejoin:round;paint-order:stroke fill markers"
       d="m 10.993125,0.52916149 c -7.99583,0 -14.43271,6.43688401 -14.43271,14.43271251 V 121.56313 c 0,7.99582 6.43688,14.43271 14.43271,14.43271 H 117.59438 c 7.99582,0 14.43271,-6.43689 14.43271,-14.43271 V 14.961874 c 0,-7.9958285 -6.43689,-14.43271251 -14.43271,-14.43271251 z M 116.81148,3.6964105 c 0.97343,-3.02e-4 1.94815,0.04102 2.9068,0.217558 4.7373,0.747939 8.67787,5.130741 9.07593,9.8500455 0.1032,33.051577 0.0426,66.104857 0.077,99.157266 -0.0616,3.09471 0.098,6.19309 -0.0558,9.28522 -0.10763,5.3757 -4.75516,10.11872 -10.07226,10.55491 -31.164878,0.0969 -62.331886,0.054 -93.497655,0.061 -4.76973,-0.0528 -9.54076,0.0668 -14.30972,-0.0388 -5.58451,0.20629 -10.71683,-4.57785 -11.13577,-10.10378 -0.1026,-35.188067 -0.0329,-70.378358 -0.0744,-105.567203 -0.12259,-2.910434 0.20683,-5.99881 1.91255,-8.4527145 1.90523,-2.708392 4.85195,-4.555829 8.1385197,-4.887041 35.3527303,-0.10852 70.7084083,-0.05633 106.0622653,-0.06563 0.32367,-0.006 0.64807,-0.01075 0.97255,-0.01085 z" />
    <path
       id="path45791"
       style="display:inline;opacity:0.6;fill:#ffffff;fill-opacity:1;stroke-width:1.11585;stroke-linecap:square;stroke-linejoin:round;paint-order:stroke fill markers"
       d="m 16.664616,27.005587 v 6.260083 h 28.225151 v -6.260083 z m 33.516817,0 v 6.260083 h 28.224634 v -6.260083 z m 33.516301,0 V 33.26567 H 111.92289 V 27.005587 Z M 16.664616,42.672848 v 6.260083 h 28.225151 v -6.260083 z m 33.516817,0 v 6.260083 h 28.224634 v -6.260083 z m 33.516301,0 v 6.260083 H 111.92289 V 42.672848 Z M 16.664616,58.340625 v 6.259567 h 28.225151 v -6.259567 z m 33.516817,0 v 6.259567 h 28.224634 v -6.259567 z m 33.516301,0 v 6.259567 H 111.92289 V 58.340625 Z M 16.664616,74.007886 v 6.259566 h 28.225151 v -6.259566 z m 33.516817,0 v 6.259566 h 28.224634 v -6.259566 z m 33.516301,0 v 6.259566 H 111.92289 V 74.007886 Z M 16.664616,89.675147 v 6.260083 h 28.225151 v -6.260083 z m 33.516817,0 v 6.260083 h 28.224634 v -6.260083 z m 33.516301,0 V 95.93523 H 111.92289 V 89.675147 Z M 16.664616,105.34241 v 6.26008 h 28.225151 v -6.26008 z m 33.516817,0 v 6.26008 h 28.224634 v -6.26008 z m 33.516301,0 v 6.26008 h 28.225156 v -6.26008 z" />
  </g>
</svg>
