<?xml version="1.0" encoding="UTF-8" standalone="no"?>
<!-- Created with Inkscape (http://www.inkscape.org/) -->

<svg
   width="512"
   height="512"
   viewBox="0 0 135.46666 135.46667"
   version="1.1"
   id="svg5"
   inkscape:version="1.4.2 (ebf0e940d0, 2025-05-08)"
   xml:space="preserve"
   sodipodi:docname="application-bitwig-project-folder.svg"
   xmlns:inkscape="http://www.inkscape.org/namespaces/inkscape"
   xmlns:sodipodi="http://sodipodi.sourceforge.net/DTD/sodipodi-0.dtd"
   xmlns:xlink="http://www.w3.org/1999/xlink"
   xmlns="http://www.w3.org/2000/svg"
   xmlns:svg="http://www.w3.org/2000/svg"><sodipodi:namedview
     id="namedview7"
     pagecolor="#242424"
     bordercolor="#666666"
     borderopacity="1"
     inkscape:showpageshadow="0"
     inkscape:pageopacity="0"
     inkscape:pagecheckerboard="1"
     inkscape:deskcolor="#000000"
     inkscape:document-units="px"
     showgrid="false"
     inkscape:zoom="1.3037281"
     inkscape:cx="297.60806"
     inkscape:cy="338.64422"
     inkscape:window-width="3256"
     inkscape:window-height="1080"
     inkscape:window-x="1864"
     inkscape:window-y="0"
     inkscape:window-maximized="0"
     inkscape:current-layer="layer1" /><defs
     id="defs2"><inkscape:path-effect
       effect="perspective-envelope"
       up_left_point="2.8255588,37.977777"
       up_right_point="132.42069,37.977777"
       down_left_point="7.08434,97.488889"
       down_right_point="128.38233,97.488889"
       id="path-effect73"
       is_visible="true"
       lpeversion="1"
       deform_type="perspective"
       horizontal_mirror="false"
       vertical_mirror="true"
       overflow_perspective="false" /><linearGradient
       id="linearGradient72"
       gradientUnits="userSpaceOnUse"
       y1="653.96"
       x2="0"
       y2="301.3"
       gradientTransform="matrix(0.23848296,0,0,0.23848296,-29.100694,-42.422273)"><stop
         offset="0"
         stop-color="#ff5454"
         id="stop72" /><stop
         stop-color="#c52828"
         id="stop71"
         offset="1" /></linearGradient><linearGradient
       id="0"
       gradientUnits="userSpaceOnUse"
       y1="653.96"
       x2="0"
       y2="301.3"
       gradientTransform="matrix(0.23848296,0,0,0.23848296,-29.100694,-42.422273)"><stop
         stop-color="#c52828"
         id="stop1" /><stop
         offset="1"
         stop-color="#ff5454"
         id="stop2" /></linearGradient><linearGradient
       inkscape:collect="always"
       xlink:href="#0"
       id="linearGradient47"
       x1="67.73333"
       y1="0"
       x2="67.73333"
       y2="135.46666"
       gradientUnits="userSpaceOnUse" /><linearGradient
       id="linearGradient55090"><stop
         style="stop-color:#ffffff;stop-opacity:1;"
         offset="0"
         id="stop18555" /><stop
         style="stop-color:#ffffff;stop-opacity:0;"
         offset="1"
         id="stop18557" /></linearGradient><rect
       x="-11597.953"
       y="-4257.6465"
       width="1975.8679"
       height="200.96553"
       id="rect48518" /><rect
       x="-8208.5273"
       y="-3087.5469"
       width="1540.277"
       height="399.28311"
       id="rect18280" /><rect
       x="-7623.7734"
       y="-3087.5469"
       width="297.08713"
       height="113.41004"
       id="rect14949" /><rect
       x="-11253.933"
       y="-3026.1035"
       width="426.8663"
       height="121.26578"
       id="rect14939" /><rect
       x="-11645.953"
       y="-4293.9199"
       width="1103.9999"
       height="201.59987"
       id="rect190181" /><rect
       x="-10061.453"
       y="-913.69592"
       width="857.42816"
       height="1147.7347"
       id="rect17444" /><rect
       x="-10061.453"
       y="-913.69592"
       width="1679.356"
       height="53.843174"
       id="rect17444-3" /><rect
       x="-10061.453"
       y="-913.69592"
       width="857.42816"
       height="1147.7347"
       id="rect17444-3-5" /><rect
       x="-10061.453"
       y="-913.69592"
       width="857.42816"
       height="1147.7347"
       id="rect17444-3-5-2" /><rect
       x="-10061.453"
       y="-913.69592"
       width="857.42816"
       height="1147.7347"
       id="rect17444-3-5-2-8" /><rect
       x="-10061.453"
       y="-913.69592"
       width="857.42816"
       height="1147.7347"
       id="rect17444-3-5-2-8-7" /><rect
       x="-10061.453"
       y="-913.69592"
       width="1456.625"
       height="97.241226"
       id="rect17444-3-5-2-8-7-6" /><rect
       x="-10061.453"
       y="-913.69592"
       width="1240.1765"
       height="403.35107"
       id="rect17444-3-5-2-8-7-6-2" /><rect
       x="-10061.453"
       y="-913.69592"
       width="857.42816"
       height="1147.7347"
       id="rect17444-3-5-2-8-7-6-3" /><rect
       x="-10061.453"
       y="-913.69592"
       width="857.42816"
       height="1147.7347"
       id="rect17444-3-5-2-8-7-6-3-6" /><rect
       x="-10061.453"
       y="-913.69592"
       width="857.42816"
       height="1147.7347"
       id="rect17444-3-5-2-8-7-6-3-6-5" /><rect
       x="-10061.453"
       y="-913.69592"
       width="857.42816"
       height="1147.7347"
       id="rect17444-2" /><rect
       x="-10061.453"
       y="-913.69592"
       width="1738.8013"
       height="1124.929"
       id="rect154594" /><rect
       x="-10061.453"
       y="-913.69592"
       width="857.42816"
       height="1147.7347"
       id="rect155326" /><rect
       x="-10061.453"
       y="-913.69592"
       width="857.42816"
       height="1147.7347"
       id="rect6830" /><rect
       x="-10061.453"
       y="-913.69592"
       width="857.42816"
       height="1147.7347"
       id="rect6830-3" /><rect
       x="-10061.453"
       y="-913.69592"
       width="1738.8013"
       height="1124.929"
       id="rect3302" /><rect
       x="-10061.453"
       y="-913.69592"
       width="1738.8013"
       height="1124.929"
       id="rect3459" /><rect
       x="-10061.453"
       y="-913.69592"
       width="1738.8013"
       height="1124.929"
       id="rect3569" /><rect
       x="-10061.453"
       y="-913.69592"
       width="1738.8013"
       height="1124.929"
       id="rect4444" /><rect
       x="-10061.453"
       y="-913.69592"
       width="1738.8013"
       height="1124.929"
       id="rect4450" /><rect
       x="-10061.453"
       y="-913.69592"
       width="1738.8013"
       height="1124.929"
       id="rect4456" /><rect
       x="-10061.453"
       y="-913.69592"
       width="1738.8013"
       height="1124.929"
       id="rect4576" /><rect
       x="-10061.453"
       y="-913.69592"
       width="1738.8013"
       height="1124.929"
       id="rect4582" /><rect
       x="-10061.453"
       y="-913.69592"
       width="1738.8013"
       height="1124.929"
       id="rect4771" /><rect
       x="-10061.453"
       y="-913.69592"
       width="1738.8013"
       height="1124.929"
       id="rect4900" /><rect
       x="-10061.453"
       y="-913.69592"
       width="1738.8013"
       height="1124.929"
       id="rect5759" /><rect
       x="-10061.453"
       y="-913.69592"
       width="1738.8013"
       height="1124.929"
       id="rect5767" /><rect
       x="-10061.453"
       y="-913.69592"
       width="1738.8013"
       height="1124.929"
       id="rect5773" /><linearGradient
       inkscape:collect="always"
       xlink:href="#linearGradient72"
       id="linearGradient60692"
       x1="-3691.3494"
       y1="-1057.787"
       x2="-3691.3494"
       y2="-986.60083"
       gradientUnits="userSpaceOnUse"
       gradientTransform="matrix(0.17777778,0,0,0.17777778,563.63575,204.86052)" /><rect
       x="-10061.453"
       y="-913.69592"
       width="857.42816"
       height="1147.7347"
       id="rect102083" /><rect
       x="-8208.5273"
       y="-3087.5469"
       width="1540.277"
       height="399.28311"
       id="rect104432" /><rect
       x="-8208.5273"
       y="-3087.5469"
       width="1540.277"
       height="399.28311"
       id="rect104432-2" /><linearGradient
       inkscape:collect="always"
       xlink:href="#0"
       id="linearGradient71"
       x1="-92.604172"
       y1="109.66132"
       x2="-92.604172"
       y2="29.464815"
       gradientUnits="userSpaceOnUse" /></defs><g
     inkscape:label="Layer 1"
     inkscape:groupmode="layer"
     id="layer1"><path
       style="baseline-shift:baseline;display:none;overflow:visible;vector-effect:none;fill:url(#linearGradient47);stroke-linecap:round;stroke-miterlimit:12;paint-order:markers stroke fill;enable-background:accumulate;stop-color:#000000"
       d="M 16.072317,0 H 119.39434 c 8.90407,0 16.07232,7.1682534 16.07232,16.072317 V 119.39434 c 0,8.90407 -7.16825,16.07232 -16.07232,16.07232 H 16.072317 C 7.1682534,135.46666 0,128.29841 0,119.39434 V 16.072317 C 0,7.1682534 7.1682534,0 16.072317,0 Z"
       id="path43" /><path
       id="path42"
       style="baseline-shift:baseline;display:none;overflow:visible;vector-effect:none;fill:#1a1a1a;fill-opacity:1;stroke-linecap:round;stroke-miterlimit:12;paint-order:markers stroke fill;enable-background:accumulate;stop-color:#000000"
       d="M 16.072404,0 C 7.1683402,0 0,7.1683402 0,16.072404 V 119.39426 c 0,8.90407 7.1683402,16.0724 16.072404,16.0724 H 119.39426 c 8.90407,0 16.0724,-7.16833 16.0724,-16.0724 V 16.072404 C 135.46666,7.1683402 128.29833,0 119.39426,0 Z m 0,2.1171834 H 119.39478 c 7.76805,0 13.9547,6.1871762 13.9547,13.9552206 V 119.39478 c 0,7.76805 -6.18665,13.9547 -13.9547,13.9547 H 16.072404 c -7.7680444,0 -13.9552206,-6.18665 -13.9552206,-13.9547 V 16.072404 c 0,-7.7680444 6.1871762,-13.9552206 13.9552206,-13.9552206 z" /><g
       id="g73"
       transform="translate(160.3375,4.497915)"><path
         id="rect933-3-0-3"
         style="display:inline;fill:url(#linearGradient60692);fill-opacity:1;stroke:none;stroke-width:2.9061;stroke-linecap:round;stroke-linejoin:round;paint-order:stroke markers fill;shape-rendering:crispEdges"
         d="m -150.18188,16.809495 c -1.96953,0 -3.55514,1.585618 -3.55514,3.555147 v 6.977998 4.662082 74.101498 c 0,1.96952 1.58561,3.55512 3.55514,3.55512 h 115.155525 c 1.969511,0 3.555111,-1.5856 3.555111,-3.55512 V 27.34264 c 0,-1.969536 -1.5856,-3.555136 -3.555111,-3.555136 h -87.339685 c 0,0 -0.46986,0.01422 -0.70455,-0.220551 -0.23463,-0.234666 -0.22057,-0.845404 -0.22057,-0.845404 v -2.356907 c 0,-1.969529 -1.5856,-3.555147 -3.55511,-3.555147 z"
         sodipodi:nodetypes="ssccssssssczcsss"
         inkscape:label="folder-back" /><path
         id="rect64793"
         style="fill:url(#linearGradient71);fill-opacity:1;stroke:none;stroke-width:0.699097;stroke-linecap:round;stroke-linejoin:round;paint-order:stroke markers fill;shape-rendering:crispEdges"
         d="m -156.12673,29.464816 c -1.80368,0 -3.25575,1.356072 -3.25575,3.040505 l 5.64444,77.155999 h 122.267738 l 5.644445,-77.155999 c 0,-1.684433 -1.452071,-3.040505 -3.255752,-3.040505 z"
         sodipodi:nodetypes="sccccss" /></g><g
       id="g72"
       transform="matrix(0.95482631,0,0,0.95482631,3.0597622,9.4097643)"
       style="stroke-width:1.04731"><path
         style="fill:#ffffff;fill-opacity:1;stroke-width:0.316687"
         d="m 120.78209,81.568649 c -4.69705,1.23e-4 -8.68629,3.614734 -8.90795,8.032813 -0.21978,4.373649 3.34246,7.887309 7.95466,7.887427 4.61222,-1.18e-4 8.59524,-3.513778 8.89925,-7.887427 0.30744,-4.418079 -3.24892,-8.03269 -7.94596,-8.032813 z"
         id="path14" /><path
         style="fill:#ffffff;fill-opacity:1;stroke-width:0.316687"
         d="m 99.521391,81.568649 c -4.697049,1.21e-4 -8.599549,3.614733 -8.71518,8.032813 -0.114821,4.37365 3.531738,7.88731 8.143945,7.887427 4.612214,-1.21e-4 8.510914,-3.51378 8.709954,-7.887427 0.20142,-4.418077 -3.44168,-8.032687 -8.138719,-8.032813 z"
         id="path13" /><path
         style="fill:#ffffff;fill-opacity:1;stroke-width:0.316687"
         d="m 35.739286,81.568649 c -4.697034,1.29e-4 -8.339292,3.614738 -8.136846,8.032813 0.200058,4.373645 4.099573,7.887303 8.711783,7.887427 4.61221,-1.14e-4 8.257956,-3.513774 8.142118,-7.887427 -0.116659,-4.418083 -4.020004,-8.032695 -8.717055,-8.032813 z"
         id="path12" /><path
         style="fill:#ffffff;fill-opacity:1;stroke-width:0.316687"
         d="m 14.478595,81.568649 c -4.6970397,1.18e-4 -8.2525669,3.61473 -7.9440941,8.032813 0.3050184,4.373653 4.2888671,7.887313 8.9010881,7.887427 4.612199,-1.24e-4 8.173611,-3.513782 7.952813,-7.887427 -0.222684,-4.418075 -4.212761,-8.032684 -8.909807,-8.032813 z"
         id="path11" /><path
         style="fill:#ffffff;fill-opacity:1;stroke-width:0.316687"
         d="m 122.02387,60.830661 c -4.807,1.29e-4 -8.89396,3.78558 -9.12606,8.411494 -0.23007,4.578332 3.40985,8.25566 8.12803,8.255784 4.7182,-1.24e-4 8.79851,-3.677452 9.11674,-8.255784 0.32189,-4.625914 -3.31173,-8.411365 -8.11871,-8.411494 z"
         id="path10" /><path
         style="fill:#ffffff;fill-opacity:1;stroke-width:0.316687"
         d="m 100.26549,60.830661 c -4.806995,1.27e-4 -8.803112,3.785579 -8.924196,8.411494 -0.120197,4.578333 3.607973,8.255662 8.326159,8.255784 4.718187,-1.27e-4 8.710247,-3.677455 8.918597,-8.255784 0.21089,-4.625911 -3.51357,-8.411362 -8.32056,-8.411494 z"
         id="path9" /><path
         style="fill:#ffffff;fill-opacity:1;stroke-width:0.316687"
         d="m 78.507115,60.830661 c -4.806989,1.35e-4 -8.712252,3.785585 -8.722322,8.411494 -0.01033,4.578328 3.806084,8.255654 8.524267,8.255784 4.718189,-1.26e-4 8.621998,-3.677454 8.72048,-8.255784 0.09987,-4.625912 -3.715436,-8.411363 -8.522425,-8.411494 z"
         id="path8" /><path
         style="fill:#ffffff;fill-opacity:1;stroke-width:0.316687"
         d="m 56.74875,60.830661 c -4.806994,1.24e-4 -8.621427,3.785577 -8.520483,8.411494 0.09955,4.578335 4.004219,8.255665 8.722413,8.255784 4.718182,-1.31e-4 8.533737,-3.677457 8.522347,-8.255784 -0.01115,-4.625909 -3.917289,-8.411359 -8.724277,-8.411494 z"
         id="path7" /><path
         style="fill:#ffffff;fill-opacity:1;stroke-width:0.316687"
         d="m 34.990363,60.830661 c -4.806982,1.35e-4 -8.530557,3.785585 -8.3186,8.411494 0.209418,4.578327 4.202326,8.255653 8.920515,8.255784 4.718188,-1.19e-4 8.445507,-3.677449 8.324245,-8.255784 -0.122159,-4.625917 -4.11916,-8.41137 -8.92616,-8.411494 z"
         id="path6" /><path
         style="fill:#ffffff;fill-opacity:1;stroke-width:0.316687"
         d="m 13.231998,60.830661 c -4.8069884,1.24e-4 -8.4397325,3.785577 -8.1167612,8.411494 0.3192904,4.578335 4.4004609,8.255665 9.1186602,8.255784 4.718177,-1.3e-4 8.357234,-3.677456 8.1261,-8.255784 -0.233172,-4.625909 -4.321004,-8.411359 -9.127999,-8.411494 z"
         id="path5" /><path
         style="fill:#ffffff;fill-opacity:1;stroke-width:0.316687"
         d="m 101.04526,39.098519 c -4.922214,1.33e-4 -9.016547,3.968834 -9.143474,8.817604 -0.12596,4.797726 3.687553,8.650432 8.516704,8.650559 4.82915,-1.33e-4 8.91914,-3.852836 9.13747,-8.650559 0.22103,-4.848767 -3.58849,-8.817466 -8.5107,-8.817604 z"
         id="path4" /><path
         style="fill:#ffffff;fill-opacity:1;stroke-width:0.316687"
         d="m 78.765355,39.098519 c -4.92221,1.41e-4 -8.921292,3.96884 -8.931857,8.817604 -0.01082,4.797721 3.895139,8.650424 8.724285,8.650559 4.829153,-1.31e-4 8.826682,-3.852836 8.92988,-8.650559 0.104669,-4.848767 -3.800098,-8.817467 -8.722308,-8.817604 z"
         id="path3" /><path
         style="fill:#ffffff;fill-opacity:1;stroke-width:0.316687"
         d="m 56.485457,39.098519 c -4.922215,1.29e-4 -8.826068,3.968831 -8.720272,8.817604 0.104314,4.797729 4.102748,8.650435 8.931905,8.650559 4.829146,-1.36e-4 8.734212,-3.852839 8.722273,-8.650559 -0.01169,-4.848764 -4.011696,-8.817462 -8.933906,-8.817604 z"
         id="path2" /><path
         style="fill:#ffffff;fill-opacity:1;stroke-width:0.316687"
         d="m 34.205538,39.098519 c -4.922203,1.42e-4 -8.730801,3.96884 -8.508643,8.817604 0.219451,4.79772 4.310328,8.650423 9.139481,8.650559 4.829151,-1.24e-4 8.641772,-3.85283 8.514697,-8.650559 -0.128054,-4.848773 -4.223314,-8.817475 -9.145535,-8.817604 z"
         id="circle3" /><path
         id="rect2"
         transform="rotate(30)"
         inkscape:transform-center-x="-3.0812554"
         inkscape:transform-center-y="-5.3369096"
         d="m 53.627153,14.135125 c 0.714083,-0.0057 1.300575,0.548749 1.315476,1.242403 l 0.123956,5.770372 c 0.01472,0.685203 -0.543388,1.243257 -1.251826,1.252052 -0.708971,0.0088 -1.293315,-0.535816 -1.309726,-1.221933 l -0.138206,-5.778104 c -0.01661,-0.694589 0.545701,-1.259055 1.260326,-1.26479 z"
         style="fill:#1a1a1a;fill-opacity:1;stroke:none;stroke-width:4.43361;stroke-linecap:round;stroke-miterlimit:12;paint-order:markers stroke fill" /><path
         id="rect17"
         transform="rotate(-75)"
         inkscape:transform-center-x="5.9525469"
         inkscape:transform-center-y="-1.5949709"
         d="m -31.671419,56.769477 c 0.6919,-0.01347 1.251422,0.543189 1.253622,1.247876 l 0.01838,5.887427 c 0.0022,0.702115 -0.552508,1.273056 -1.242815,1.280375 -0.689306,0.0073 -1.245656,-0.550375 -1.248326,-1.250646 l -0.02239,-5.871932 c -0.0027,-0.702829 0.550638,-1.279654 1.241531,-1.2931 z"
         style="fill:#1a1a1a;fill-opacity:1;stroke:none;stroke-width:4.43361;stroke-linecap:round;stroke-miterlimit:12;paint-order:markers stroke fill" /><path
         id="rect18"
         transform="rotate(-120)"
         inkscape:transform-center-x="5.3369027"
         inkscape:transform-center-y="3.0812688"
         d="m -80.749287,33.952603 c 0.686071,-0.0037 1.235199,0.551668 1.230423,1.245701 l -0.04012,5.829463 c -0.0048,0.698926 -0.564113,1.260609 -1.25323,1.258907 -0.688221,-0.0017 -1.237012,-0.564801 -1.231282,-1.262088 l 0.04779,-5.815839 c 0.0057,-0.692416 0.561233,-1.252446 1.246416,-1.256144 z"
         style="fill:#1a1a1a;fill-opacity:1;stroke:none;stroke-width:4.43361;stroke-linecap:round;stroke-miterlimit:12;paint-order:markers stroke fill" /><path
         id="rect19"
         transform="rotate(-15)"
         inkscape:transform-center-x="1.5949923"
         inkscape:transform-center-y="-5.9525407"
         d="m 85.21041,62.195178 c 0.711988,0.0016 1.267133,0.566374 1.244498,1.265452 l -0.188162,5.811313 c -0.02233,0.68957 -0.608632,1.241424 -1.314365,1.238248 -0.705458,-0.0032 -1.256744,-0.559759 -1.236288,-1.248851 l 0.172393,-5.807261 c 0.02074,-0.698587 0.610215,-1.260469 1.321924,-1.258901 z"
         style="fill:#1a1a1a;fill-opacity:1;stroke:none;stroke-width:4.43361;stroke-linecap:round;stroke-miterlimit:12;paint-order:markers stroke fill" /><path
         id="rect26"
         transform="rotate(105)"
         inkscape:transform-center-x="-5.9525449"
         inkscape:transform-center-y="1.5949704"
         d="m 63.203976,-41.290806 c 0.648811,-0.024 1.177362,0.509032 1.185923,1.195339 l 0.07178,5.754561 c 0.0086,0.688747 -0.507279,1.26745 -1.157494,1.297342 -0.651137,0.02994 -1.182585,-0.50204 -1.190752,-1.19257 l -0.06824,-5.769441 c -0.0081,-0.688077 0.509048,-1.261199 1.158776,-1.285231 z"
         style="fill:#1a1a1a;fill-opacity:1;stroke:none;stroke-width:4.43361;stroke-linecap:round;stroke-miterlimit:12;paint-order:markers stroke fill" /><path
         id="rect27"
         transform="rotate(-90)"
         inkscape:transform-center-x="6.1625267"
         inkscape:transform-center-y="9.5909217e-06"
         d="m -69.241616,25.288465 c 0.659847,-0.03118 1.191764,0.493712 1.191764,1.17693 v 5.718501 c 0,0.683217 -0.531917,1.253538 -1.191764,1.278713 -0.658879,0.02514 -1.18861,-0.503223 -1.18861,-1.184632 V 26.57461 c 0,-0.681409 0.529731,-1.255012 1.18861,-1.286145 z"
         style="fill:#1a1a1a;fill-opacity:1;stroke:none;stroke-width:4.43361;stroke-linecap:round;stroke-miterlimit:12;paint-order:markers stroke fill" /><path
         id="rect28"
         transform="rotate(-75)"
         inkscape:transform-center-x="5.9525475"
         inkscape:transform-center-y="-1.5949701"
         d="m -52.260476,62.794186 c 0.661148,-0.0089 1.198993,0.537358 1.205077,1.224494 l 0.05084,5.741036 c 0.0061,0.684686 -0.520829,1.23814 -1.180524,1.24116 -0.65876,0.003 -1.193649,-0.544169 -1.200149,-1.2271 l -0.0545,-5.726302 c -0.0065,-0.685368 0.519047,-1.244435 1.179256,-1.253288 z"
         style="fill:#1a1a1a;fill-opacity:1;stroke:none;stroke-width:4.43361;stroke-linecap:round;stroke-miterlimit:12;paint-order:markers stroke fill" /><path
         id="rect29"
         transform="rotate(90)"
         inkscape:transform-center-x="-6.1625231"
         inkscape:transform-center-y="-7.8136352e-06"
         d="m 69.241603,-88.412808 c 0.658879,0.01517 1.18861,0.575935 1.18861,1.257344 v 5.703368 c 0,0.681409 -0.529731,1.222605 -1.18861,1.213432 -0.659847,-0.0092 -1.191765,-0.566618 -1.191765,-1.249835 v -5.718502 c 0,-0.683217 0.531918,-1.220998 1.191765,-1.205807 z"
         style="fill:#1a1a1a;fill-opacity:1;stroke:none;stroke-width:4.43361;stroke-linecap:round;stroke-miterlimit:12;paint-order:markers stroke fill" /><path
         id="rect32"
         transform="rotate(75)"
         inkscape:transform-center-x="-5.9525413"
         inkscape:transform-center-y="-1.5949892"
         d="m 90.519006,-0.89110384 c 0.642994,-0.0379857 1.154383,0.46085296 1.14742,1.11820413 l -0.05818,5.49243621 c -0.0069,0.655067 -0.528417,1.217114 -1.170037,1.2604685 C 89.795698,7.02342 89.283045,6.5299291 89.289571,5.8732488 l 0.05471,-5.50598696 c 0.0065,-0.65897585 0.530837,-1.22032715 1.174726,-1.25836568 z"
         style="fill:#1a1a1a;fill-opacity:1;stroke:none;stroke-width:4.43361;stroke-linecap:round;stroke-miterlimit:12;paint-order:markers stroke fill" /><path
         id="rect33"
         transform="rotate(-105)"
         inkscape:transform-center-x="5.9525421"
         inkscape:transform-center-y="1.5949861"
         d="m -95.75983,1.9783882 c 0.636765,-0.03708 1.144005,0.4611561 1.136511,1.117387 l -0.06283,5.502188 c -0.0075,0.6585175 -0.527937,1.2143983 -1.166054,1.246109 -0.637234,0.031667 -1.143218,-0.4718845 -1.135291,-1.1287795 l 0.06623,-5.4886548 c 0.0079,-0.6546197 0.525541,-1.211221 1.161427,-1.2482497 z"
         style="fill:#1a1a1a;fill-opacity:1;stroke:none;stroke-width:4.43361;stroke-linecap:round;stroke-miterlimit:12;paint-order:markers stroke fill" /><path
         id="rect34"
         inkscape:transform-center-x="9.56263e-06"
         inkscape:transform-center-y="-6.1625269"
         d="m 100.31441,59.467282 c 0.68973,0 1.22481,0.542114 1.19976,1.214601 l -0.20823,5.589853 c -0.0247,0.663241 -0.59496,1.196478 -1.27862,1.196478 -0.683655,0 -1.215635,-0.533237 -1.192747,-1.196478 l 0.192906,-5.589853 c 0.02321,-0.672487 0.597191,-1.214601 1.286931,-1.214601 z"
         style="fill:#1a1a1a;fill-opacity:1;stroke:none;stroke-width:4.43361;stroke-linecap:round;stroke-miterlimit:12;paint-order:markers stroke fill" /><path
         id="rect35"
         transform="rotate(120)"
         inkscape:transform-center-x="-5.3369107"
         inkscape:transform-center-y="3.0812556"
         d="m -0.79610851,-149.47946 c 0.67811611,0.0454 1.22382628,0.60672 1.22433882,1.25906 l 0.004305,5.47881 c 5.1606e-4,0.65683 -0.54675666,1.1533 -1.22784909,1.1127 -0.68195812,-0.0407 -1.23129122,-0.60373 -1.23090612,-1.26201 l 0.00321,-5.49089 c 3.825e-4,-0.65377 0.5479257,-1.14312 1.22689992,-1.09767 z"
         style="fill:#1a1a1a;fill-opacity:1;stroke:none;stroke-width:4.43361;stroke-linecap:round;stroke-miterlimit:12;paint-order:markers stroke fill" /><path
         id="rect38"
         transform="rotate(-135)"
         inkscape:transform-center-x="4.3575598"
         inkscape:transform-center-y="4.3575693"
         d="m -133.09189,-2.7905578 c 0.63286,-0.012006 1.11959,0.502223 1.09073,1.1535831 l -0.24276,5.4777382 c -0.0291,0.65756 -0.56553,1.1939497 -1.20206,1.2020581 -0.63588,0.0081 -1.12296,-0.5142848 -1.09271,-1.1706598 l 0.25199,-5.4679129 c 0.03,-0.6501973 0.56258,-1.182813 1.19481,-1.1948067 z"
         style="fill:#1a1a1a;fill-opacity:1;stroke:none;stroke-width:4.43361;stroke-linecap:round;stroke-miterlimit:12;paint-order:markers stroke fill" /><path
         id="rect39"
         transform="rotate(60)"
         inkscape:transform-center-x="-5.3368983"
         inkscape:transform-center-y="-3.0812674"
         d="m 138.12264,-69.31817 c 0.62541,0.01851 1.10731,0.580896 1.08123,1.260542 l -0.21762,5.669486 c -0.0259,0.675084 -0.54768,1.207454 -1.17059,1.194077 -0.62369,-0.01339 -1.10611,-0.568552 -1.08095,-1.245172 l 0.21131,-5.68243 c 0.0253,-0.681203 0.55043,-1.215032 1.17662,-1.196503 z"
         style="fill:#1a1a1a;fill-opacity:1;stroke:none;stroke-width:4.43361;stroke-linecap:round;stroke-miterlimit:12;paint-order:markers stroke fill" /></g></g></svg>
