<?xml version="1.0" encoding="UTF-8" standalone="no"?>
<!-- Created with Inkscape (http://www.inkscape.org/) -->

<svg
   width="512"
   height="512"
   viewBox="0 0 135.46666 135.46667"
   version="1.1"
   id="svg5"
   inkscape:version="1.4.2 (ebf0e940d0, 2025-05-08)"
   xml:space="preserve"
   sodipodi:docname="application-vnd.recordare.musicxml.svg"
   xmlns:inkscape="http://www.inkscape.org/namespaces/inkscape"
   xmlns:sodipodi="http://sodipodi.sourceforge.net/DTD/sodipodi-0.dtd"
   xmlns:xlink="http://www.w3.org/1999/xlink"
   xmlns="http://www.w3.org/2000/svg"
   xmlns:svg="http://www.w3.org/2000/svg"><sodipodi:namedview
     id="namedview7"
     pagecolor="#242424"
     bordercolor="#666666"
     borderopacity="1"
     inkscape:showpageshadow="0"
     inkscape:pageopacity="0"
     inkscape:pagecheckerboard="1"
     inkscape:deskcolor="#000000"
     inkscape:document-units="px"
     showgrid="false"
     inkscape:zoom="1.3037281"
     inkscape:cx="411.51218"
     inkscape:cy="284.18502"
     inkscape:window-width="3256"
     inkscape:window-height="1080"
     inkscape:window-x="1864"
     inkscape:window-y="0"
     inkscape:window-maximized="0"
     inkscape:current-layer="layer1" /><defs
     id="defs2"><linearGradient
   id="linearGradient7"
   inkscape:collect="always"><stop
     style="stop-color:#ffffff;stop-opacity:1;"
     offset="0"
     id="stop7" /><stop
     style="stop-color:#000000;stop-opacity:1;"
     offset="1"
     id="stop8" /></linearGradient>
	

		
	
			
			
		
				
				
				
				
				
				
				
				
				
				
				
				
			<filter
   inkscape:collect="always"
   style="color-interpolation-filters:sRGB"
   id="filter6"
   x="-0.018093523"
   y="-0.016536485"
   width="1.036187"
   height="1.033073"><feGaussianBlur
     inkscape:collect="always"
     stdDeviation="0.82381115"
     id="feGaussianBlur6" /></filter><linearGradient
   inkscape:collect="always"
   xlink:href="#linearGradient7"
   id="linearGradient8"
   x1="253.22382"
   y1="30.441551"
   x2="253.22382"
   y2="165.90823"
   gradientUnits="userSpaceOnUse"
   gradientTransform="translate(-185.49048,-30.441554)" /></defs><g
     inkscape:label="Layer 1"
     inkscape:groupmode="layer"
     id="layer1"><rect
       style="opacity:1;fill:#ff6600;stroke:none;stroke-width:1.31975;stroke-linecap:round;stroke-linejoin:round;stroke-miterlimit:12;paint-order:markers stroke fill"
       id="rect1"
       width="135.46666"
       height="135.46666"
       x="2.7270507e-06"
       y="2.7270507e-06"
       ry="12.662668" /><path
       id="path3"
       style="baseline-shift:baseline;display:inline;overflow:visible;vector-effect:none;fill:#000000;fill-opacity:1;stroke:none;stroke-width:3.17501;stroke-dasharray:none;stroke-opacity:1;paint-order:markers stroke fill;enable-background:accumulate;stop-color:#000000;filter:url(#filter6);opacity:0.4"
       d="m 111.51412,7.9576537 c -0.30888,-0.00973 -0.6186,-0.0051 -0.92811,0.013436 v -5.168e-4 c -3.71407,0.2223895 -7.41675,2.4692721 -10.08,6.0724971 v 0.0047 c -1.627539,2.21345 -9.76329,13.523898 -18.557008,25.758634 l -0.559656,0.780831 5.183663,10.268624 1.523938,-2.126485 C 97.654046,35.413119 107.03759,22.393992 108.73755,20.064408 l 0.005,-0.0052 v -0.0046 c 0.61575,-0.856739 1.26234,-1.397059 1.74046,-1.665015 0.20454,-0.114637 0.37221,-0.161454 0.47852,-0.183968 0.0992,0.128308 0.34553,0.423245 0.53744,0.96945 0.33299,0.947727 0.61133,2.483554 0.61133,4.543908 0,4.779122 0.002,17.713586 0.0656,32.692061 1e-5,19.917524 0.032,40.363039 0,50.392276 C 101.61738,85.785753 78.423866,39.709511 75.74473,34.292997 l -0.0047,-0.0047 v -0.0047 c -1.682345,-3.36469 -3.446902,-5.898167 -5.50354,-7.648112 -2.056635,-1.749944 -4.45305,-2.657719 -7.004224,-2.657719 h -0.136425 -0.0093 c -2.853703,0.03613 -5.457766,1.02814 -7.56853,2.91145 -2.110761,1.883309 -3.749991,4.586183 -5.051888,8.057906 -0.415418,1.107781 -1.041753,3.061586 -1.933216,5.799646 v 0.0047 c -0.764012,2.355705 -1.720397,5.286106 -2.803446,8.598958 l -0.305925,0.935861 8.109583,7.926131 0.813904,-2.375566 c 1.597318,-4.664168 2.937074,-8.873634 3.894852,-11.938289 l 0.0047,-0.0186 c 0.827311,-2.546061 1.478291,-4.619596 1.763717,-5.41879 0.928619,-2.508403 1.789374,-3.601022 2.267562,-3.998722 0.479705,-0.398962 0.445526,-0.300757 0.827856,-0.300757 0.0034,0 0.39743,0.08811 1.053682,0.841809 0.656251,0.753714 1.476057,2.045194 2.365748,3.824572 2.623852,5.247704 24.041284,47.822634 35.13325,69.861365 -8.045752,-7.8803 -21.631599,-21.200253 -30.241045,-29.648271 l -1.326534,-1.298112 -6.006868,8.41034 0.968933,0.95498 c 10.449248,10.258102 29.496379,28.984273 35.048504,34.408753 v 0.005 l 0.005,0.005 c 3.98174,3.849 7.80406,5.98826 11.55278,5.98826 1.2149,0 2.4304,-0.22442 3.54656,-0.70125 2.98552,-1.23009 4.76312,-3.75814 5.77174,-6.13812 1.0101,-2.38348 1.31671,-4.62446 1.31671,-5.9645 0.13415,-4.47634 0.0661,-33.030015 0.0661,-58.304448 0,-14.979089 -0.063,-27.941461 0,-32.66829 v -0.0093 -0.0098 c 0,-5.204343 -1.16326,-8.770691 -2.80345,-11.171411 -1.64019,-2.400721 -3.73061,-3.5670428 -5.28236,-4.0969074 h -0.005 l -0.005,-0.00517 c -0.90242,-0.3008075 -1.82357,-0.4591498 -2.75022,-0.4883423 z m -0.14211,3.1781003 c 0.64739,0.01706 1.27846,0.125166 1.88102,0.325045 h 5.2e-4 c 1.06034,0.362813 2.47334,1.108349 3.68298,2.878894 1.21136,1.773047 2.24844,4.643038 2.24844,9.379272 -0.0642,4.839546 0,17.727578 0,32.686894 0,25.300154 0.0593,54.287161 -0.061,58.257421 l -0.005,0.0238 v 0.0238 c 0,0.76277 -0.26167,2.82555 -1.06764,4.72736 -0.80597,1.9018 -2.08751,3.63368 -4.06435,4.44469 l -0.009,0.005 -0.009,0.005 c -0.66571,0.28529 -1.48833,0.447 -2.30942,0.447 -2.49399,0 -5.67627,-1.55813 -9.33741,-5.09478 l -0.009,-0.005 C 96.925817,113.97778 78.849118,96.210086 68.242345,85.795796 l 2.276347,-3.18947 c 10.481475,10.284346 29.023186,28.468534 34.488848,33.811374 0.44126,0.44133 0.84474,0.85078 1.30277,1.23248 l 2.43654,-1.93321 C 99.826628,98.003953 72.287217,43.248833 69.366308,37.407019 68.408073,35.490546 67.51093,34.014168 66.55821,32.919954 c -0.952722,-1.094215 -2.054025,-1.933732 -3.452502,-1.933732 -0.38233,0 -1.726374,0.09589 -2.85564,1.035079 -1.129266,0.939192 -2.178673,2.530657 -3.222025,5.357812 l -0.0047,0.0047 v 0.0093 c -0.350821,0.982302 -0.976019,2.982897 -1.80144,5.52266 v 0.0093 l -0.0052,0.0093 c -0.760159,2.432508 -1.911558,5.936902 -3.090251,9.464021 L 49.054886,49.39285 c 0.938804,-2.87314 1.816327,-5.562223 2.497522,-7.662581 0.892744,-2.741997 1.537466,-4.737081 1.886707,-5.668388 1.183247,-3.15533 2.605866,-5.387369 4.190958,-6.801652 1.58509,-1.414283 3.313936,-2.079765 5.494239,-2.107365 h 0.108003 c 1.845618,0 3.368387,0.55959 4.943885,1.900143 1.575495,1.340556 3.155347,3.516547 4.722709,6.651273 2.965528,5.995382 30.655181,60.989097 39.446171,78.50735 l 3.00602,-0.69608 c 0.0642,-6.93111 0,-34.554706 0,-57.109175 v -0.0052 c -0.0637,-14.970694 -0.0656,-27.903121 -0.0656,-32.682243 0,-2.336441 -0.29525,-4.182967 -0.79065,-5.59294 -0.49026,-1.395362 -1.07463,-2.521856 -2.45515,-2.972945 -1.11739,-0.386664 -2.14658,-0.07397 -3.10937,0.465605 -0.97155,0.544495 -1.91598,1.400552 -2.76572,2.582788 -1.61679,2.215719 -10.33382,14.322251 -19.116664,26.552901 l -1.957017,-3.8757 C 93.576613,29.072882 101.55318,17.984663 103.06451,15.92926 c 2.3934,-3.236365 5.50216,-4.867436 8.3075,-4.793506 z M 23.428544,38.728902 c -1.453784,0.04891 -2.858089,0.382233 -4.163054,1.02526 -2.852917,1.390484 -7.108181,5.673473 -5.973795,15.682764 l 0.761711,6.693648 c 1.719858,15.160233 4.529309,40.605396 5.09943,46.116566 v 0.005 0.005 c 0.578106,5.34748 4.239761,10.02172 9.139494,11.30319 l 0.0093,0.005 h 0.0093 c 0.825029,0.20626 1.674281,0.3669 2.615344,0.3669 5.514867,0 9.11585,-4.29382 10.593152,-6.40219 l 0.0093,-0.01 C 46.88412,105.99671 58.34777,89.882416 63.312409,82.944644 l 4.318082,-5.715414 0.0093,-0.0093 c 1.850989,-2.5524 4.978728,-6.889547 8.679064,-12.121062 L 76.869209,64.318037 71.690197,54.058715 57.470393,73.80583 57.404247,73.942256 55.81468,76.20465 c -3.251345,4.579312 -10.150019,14.239308 -16.031062,22.484415 2.508776,-7.388363 5.003494,-14.733247 8.128186,-23.928771 l 0.324528,-0.949813 -8.123535,-7.935433 -0.813387,2.380216 C 35.206487,80.271643 31.517731,91.088048 28.593086,99.691071 27.530219,90.116189 25.68489,73.56265 24.284306,61.011262 v -0.0047 l -0.766362,-6.684346 v -0.0093 c -0.207525,-1.93687 -0.119937,-3.409675 0.07958,-4.355806 0.136334,-0.646488 0.328613,-0.923444 0.349849,-0.990121 0.642528,0.05324 2.982929,0.830538 5.817216,3.549138 2.809826,2.745986 14.711092,14.396072 22.159888,21.717537 l 1.317232,1.293461 6.020821,-8.334892 -0.968933,-0.959631 C 50.834977,58.901498 39.556918,47.87871 36.81584,45.201375 h -0.0052 l -0.0047,-0.0047 c -2.931153,-2.8311 -5.939972,-4.806282 -8.927621,-5.790344 -1.493825,-0.492029 -2.996072,-0.726393 -4.449857,-0.677478 z m 0.121956,3.156396 c 1.03335,-0.03273 2.144748,0.144302 3.335197,0.536402 2.380898,0.784211 5.037893,2.471413 7.714258,5.056538 2.617678,2.556805 13.070618,12.778873 20.490222,20.066476 l -2.262394,3.132625 C 45.359947,63.342606 34.609501,52.813529 31.970658,50.234659 l -0.0047,-0.0047 -0.0047,-0.0052 c -3.303959,-3.16886 -5.965077,-4.453992 -8.109582,-4.453992 -0.244177,0 -0.823934,-0.04617 -1.514636,0.376204 -1.153794,0.683483 -1.558608,1.777259 -1.848466,3.151746 -0.293887,1.393598 -0.363923,3.168261 -0.127124,5.367114 v 0.0047 l 0.766878,6.693648 c 1.656834,14.84777 4.394138,39.380251 5.094262,45.745011 l 3.0856,0.33848 c 2.567667,-7.583367 7.50049,-22.029494 12.187985,-35.786929 l 3.09025,3.019971 c -4.34009,12.775742 -8.736538,25.778878 -11.27528,33.209338 l 2.794144,1.43454 c 5.669244,-7.96242 17.776737,-24.911384 22.305615,-31.290078 v -0.0047 l 1.72651,-2.455665 0.06098,-0.117822 11.011731,-15.301391 1.961637,3.8809 c -3.385125,4.776553 -6.377643,8.93467 -8.104931,11.317138 l -4.322734,5.729366 -0.01395,0.01447 c -4.9742,6.951152 -16.440723,23.070222 -21.792989,30.588882 l -0.0052,0.009 -0.0047,0.005 c -1.202379,1.71769 -4.219246,5.05706 -8.001062,5.05706 -0.58218,0 -1.135925,-0.0956 -1.829862,-0.2682 l -5.17e-4,-5.2e-4 H 29.0953 v -5.2e-4 l -5.16e-4,-5.1e-4 c -5.22e-4,-7.5e-4 -0.0015,-0.002 -0.0021,-0.003 l -5.16e-4,-5.2e-4 v -5.1e-4 h -5.17e-4 c -3.381466,-0.88776 -6.341872,-4.48967 -6.783048,-8.57054 -0.577648,-5.58325 -3.378151,-30.971608 -5.098914,-46.139817 v -0.0052 l -0.766878,-6.687964 c -1.031488,-9.101362 2.352269,-11.568628 4.21473,-12.47469 l 0.0046,-0.0052 h 0.0052 c 0.893431,-0.440239 1.849678,-0.681957 2.883028,-0.714685 z m 0.405143,6.970117 c -0.02095,0.01415 -0.02078,0.02341 -0.02119,0.02739 v 5.17e-4 5.16e-4 h -5.17e-4 v 5.17e-4 h -5.16e-4 -5.17e-4 -5.17e-4 -5.17e-4 l -5.17e-4,5.17e-4 h -5.16e-4 v -5.17e-4 -5.17e-4 c 6.87e-4,-0.0034 0.0061,-0.01411 0.0067,-0.01757 v -5.16e-4 z" /><path
       id="path4"
       style="baseline-shift:baseline;display:inline;overflow:visible;fill:#ffffff;stroke:#000000;stroke-width:0.52916666;stroke-dasharray:none;stroke-opacity:1;paint-order:markers stroke fill;enable-background:accumulate;stop-color:#000000"
       d="M 111.44539 9.5441202 C 108.03196 9.4409768 104.42391 11.414804 101.78345 14.987199 C 100.19041 17.153736 92.033981 28.496294 83.240396 40.730847 L 86.80917 47.8038 C 96.367415 34.485977 105.73446 21.486764 107.45494 19.129065 C 108.92054 17.089971 110.64063 16.325336 111.53273 16.643945 C 112.55227 16.962554 113.69952 19.320105 113.69952 23.716898 C 113.69952 28.496021 113.69938 41.43179 113.76308 56.406375 C 113.76308 78.963833 113.82678 106.61862 113.76308 113.50056 C 104.96952 95.977112 77.250688 40.921908 74.319494 34.995796 C 71.06969 28.49619 67.628592 25.564848 63.231799 25.564848 L 63.104675 25.564848 C 58.070667 25.628578 54.438561 28.878275 51.953417 35.505326 C 51.571087 36.524871 50.933493 38.500346 50.041389 41.240376 C 49.276729 43.598078 48.321212 46.529428 47.237943 49.842952 L 52.845353 55.322721 C 54.438393 50.671042 55.776629 46.465807 56.732454 43.407169 C 57.560834 40.858302 58.197715 38.818986 58.516324 37.926883 C 60.491693 32.574265 62.340016 32.574239 63.104675 32.574239 C 64.50655 32.574239 66.099348 34.422232 67.947273 38.118086 C 70.87847 43.980477 98.406273 98.717555 107.3273 116.43217 C 106.94497 116.11356 106.56257 115.731 106.11652 115.28495 C 100.4453 109.74117 80.500729 90.178728 70.305269 80.174433 L 66.162886 85.973046 C 76.613234 96.23223 95.666062 114.96649 101.20984 120.38283 C 105.03314 124.07869 108.53801 125.92668 111.66037 125.92668 C 112.67992 125.92668 113.69934 125.73539 114.59145 125.35307 C 119.56173 123.31398 120.70891 116.81415 120.70891 114.71134 C 120.83636 110.50571 120.77247 81.703863 120.77247 56.406375 C 120.77247 41.43179 120.70877 28.496021 120.77247 23.716898 C 120.77247 13.776323 116.37566 10.844984 113.76308 9.9528807 C 113.01037 9.7019768 112.23311 9.5679225 111.44539 9.5441202 z M 23.490556 40.307617 C 22.246988 40.348438 21.064388 40.635181 19.965189 41.176814 C 17.607489 42.323803 13.784041 45.700914 14.867309 55.259159 L 15.631604 61.950223 C 17.352088 77.115971 20.155989 102.54058 20.729484 108.08436 C 21.239257 112.79976 24.552983 116.94158 28.694889 118.02484 C 29.459549 118.216 30.160585 118.34368 30.925244 118.34368 C 35.576923 118.34368 38.890397 114.52028 40.228552 112.60863 C 45.581169 105.08948 57.050735 88.96804 62.02102 82.022383 L 66.354089 76.287332 C 68.202017 73.738465 71.324372 69.405236 75.020226 64.180061 L 71.451969 57.107108 L 58.835168 74.630586 L 58.771606 74.758227 L 57.114859 77.115705 C 52.590625 83.487861 40.483053 100.438 34.811828 108.4032 C 37.424415 100.75661 41.949056 87.374837 46.40957 74.24818 L 40.80216 68.768411 C 35.831873 83.360667 30.542467 98.845008 27.802437 106.93766 C 27.101499 100.5655 24.361836 76.032551 22.705074 61.185412 L 21.940263 54.494347 C 21.494212 50.35244 22.258938 47.99473 23.151041 47.484956 C 23.342206 47.357504 23.596887 47.357832 23.851774 47.357832 C 25.189928 47.357832 27.738805 48.377142 30.861165 51.372057 C 33.664917 54.112089 45.581123 65.773493 53.036555 73.10148 L 57.178421 67.36643 C 49.72299 60.038443 38.44431 49.014565 35.70428 46.338256 C 31.498652 42.276003 27.221258 40.185152 23.490556 40.307617 z " /><path
       id="path6"
       style="baseline-shift:baseline;display:inline;overflow:visible;mix-blend-mode:soft-light;vector-effect:none;fill:url(#linearGradient8);stroke-linecap:round;stroke-linejoin:round;stroke-miterlimit:12;paint-order:markers stroke fill;enable-background:accumulate;stop-color:#000000"
       d="M 12.662797,-1.5000001e-6 C 5.6476775,-1.5000001e-6 -2.5000001e-6,5.6476725 -2.5000001e-6,12.662791 V 122.80387 c 0,7.01512 5.6476800000001,12.6628 12.6627995000001,12.6628 H 122.80388 c 7.01511,0 12.66279,-5.64768 12.66279,-12.6628 V 12.662791 C 135.46667,5.6476725 129.81899,-1.5000001e-6 122.80388,-1.5000001e-6 Z M 12.661797,4.2343655 H 122.80439 c 4.74308,0 8.42998,3.684316 8.42998,8.4273925 V 122.80439 c 0,4.74308 -3.6869,8.42998 -8.42998,8.42998 H 12.661757 c -4.7430695,0 -8.4273895,-3.6869 -8.4273895,-8.42998 V 12.661758 c 0,-4.7430765 3.68432,-8.4273925 8.4273895,-8.4273925 z" /></g><style
     type="text/css"
     id="style1">
	.st0{fill:#FFFFFF;}
</style></svg>
