<?xml version="1.0" encoding="UTF-8" standalone="no"?>
<!-- Created with Inkscape (http://www.inkscape.org/) -->

<svg
   width="512"
   height="512"
   viewBox="0 0 135.46666 135.46667"
   version="1.1"
   id="svg5"
   inkscape:version="1.4.2 (ebf0e940d0, 2025-05-08)"
   xml:space="preserve"
   sodipodi:docname="application-bitwig-template.svg"
   xmlns:inkscape="http://www.inkscape.org/namespaces/inkscape"
   xmlns:sodipodi="http://sodipodi.sourceforge.net/DTD/sodipodi-0.dtd"
   xmlns:xlink="http://www.w3.org/1999/xlink"
   xmlns="http://www.w3.org/2000/svg"
   xmlns:svg="http://www.w3.org/2000/svg"><sodipodi:namedview
     id="namedview7"
     pagecolor="#242424"
     bordercolor="#666666"
     borderopacity="1"
     inkscape:showpageshadow="0"
     inkscape:pageopacity="0"
     inkscape:pagecheckerboard="1"
     inkscape:deskcolor="#000000"
     inkscape:document-units="px"
     showgrid="false"
     inkscape:zoom="1.3037281"
     inkscape:cx="395.02101"
     inkscape:cy="236.62909"
     inkscape:window-width="3256"
     inkscape:window-height="1080"
     inkscape:window-x="1864"
     inkscape:window-y="0"
     inkscape:window-maximized="0"
     inkscape:current-layer="layer1" /><defs
     id="defs2"><linearGradient
       id="0"
       gradientUnits="userSpaceOnUse"
       y1="653.96"
       x2="0"
       y2="301.3"
       gradientTransform="matrix(0.23848296,0,0,0.23848296,-29.100694,-42.422273)"><stop
         stop-color="#c52828"
         id="stop1" /><stop
         offset="1"
         stop-color="#ff5454"
         id="stop2" /></linearGradient><linearGradient
       inkscape:collect="always"
       xlink:href="#0"
       id="linearGradient17"
       x1="34.065773"
       y1="43.381298"
       x2="34.065773"
       y2="34.870232"
       gradientUnits="userSpaceOnUse"
       gradientTransform="translate(18.080196,-23.100371)" /><linearGradient
       inkscape:collect="always"
       xlink:href="#0"
       id="linearGradient18"
       gradientUnits="userSpaceOnUse"
       x1="34.065773"
       y1="43.381298"
       x2="34.065773"
       y2="34.870232"
       gradientTransform="translate(-63.184836,21.018445)" /><linearGradient
       inkscape:collect="always"
       xlink:href="#0"
       id="linearGradient19"
       gradientUnits="userSpaceOnUse"
       gradientTransform="translate(-112.76453,0.44535145)"
       x1="34.065773"
       y1="43.381298"
       x2="34.065773"
       y2="34.870232" /><linearGradient
       inkscape:collect="always"
       xlink:href="#0"
       id="linearGradient20"
       gradientUnits="userSpaceOnUse"
       gradientTransform="translate(52.158496,24.701325)"
       x1="34.065773"
       y1="43.381298"
       x2="34.065773"
       y2="34.870232" /><linearGradient
       inkscape:collect="always"
       xlink:href="#0"
       id="linearGradient29"
       gradientUnits="userSpaceOnUse"
       gradientTransform="translate(33.667546,-124.24415)"
       x1="34.065773"
       y1="43.381298"
       x2="34.065773"
       y2="34.870232" /><linearGradient
       inkscape:collect="always"
       xlink:href="#0"
       id="linearGradient30"
       gradientUnits="userSpaceOnUse"
       gradientTransform="translate(-84.865086,26.827641)"
       x1="34.065773"
       y1="43.381298"
       x2="34.065773"
       y2="34.870232" /><linearGradient
       inkscape:collect="always"
       xlink:href="#0"
       id="linearGradient31"
       gradientUnits="userSpaceOnUse"
       gradientTransform="translate(-101.79912,-11.222522)"
       x1="34.065773"
       y1="43.381298"
       x2="34.065773"
       y2="34.870232" /><linearGradient
       inkscape:collect="always"
       xlink:href="#0"
       id="linearGradient32"
       gradientUnits="userSpaceOnUse"
       x1="34.065773"
       y1="43.381298"
       x2="34.065773"
       y2="34.870232"
       gradientTransform="translate(28.351928,-74.04373)" /><linearGradient
       inkscape:collect="always"
       xlink:href="#0"
       id="linearGradient35"
       gradientUnits="userSpaceOnUse"
       gradientTransform="translate(-37.329975,-186.4087)"
       x1="34.065773"
       y1="43.381298"
       x2="34.065773"
       y2="34.870232" /><linearGradient
       inkscape:collect="always"
       xlink:href="#0"
       id="linearGradient36"
       gradientUnits="userSpaceOnUse"
       gradientTransform="translate(67.335123,22.44504)"
       x1="34.065773"
       y1="43.381298"
       x2="34.065773"
       y2="34.870232" /><linearGradient
       inkscape:collect="always"
       xlink:href="#0"
       id="linearGradient37"
       gradientUnits="userSpaceOnUse"
       gradientTransform="translate(-129.98827,-35.723166)"
       x1="34.065773"
       y1="43.381298"
       x2="34.065773"
       y2="34.870232" /><linearGradient
       inkscape:collect="always"
       xlink:href="#0"
       id="linearGradient38"
       gradientUnits="userSpaceOnUse"
       gradientTransform="translate(56.047505,-33.173173)"
       x1="34.065773"
       y1="43.381298"
       x2="34.065773"
       y2="34.870232" /><linearGradient
       inkscape:collect="always"
       xlink:href="#0"
       id="linearGradient39"
       gradientUnits="userSpaceOnUse"
       gradientTransform="translate(105.95395,-107.45283)"
       x1="34.065773"
       y1="43.381298"
       x2="34.065773"
       y2="34.870232" /><linearGradient
       inkscape:collect="always"
       xlink:href="#0"
       id="linearGradient40"
       gradientUnits="userSpaceOnUse"
       gradientTransform="translate(-169.5328,-37.352766)"
       x1="34.065773"
       y1="43.381298"
       x2="34.065773"
       y2="34.870232" /><linearGradient
       inkscape:collect="always"
       xlink:href="#0"
       id="linearGradient45"
       x1="67.733398"
       y1="-2.1171875"
       x2="67.733398"
       y2="137.58398"
       gradientUnits="userSpaceOnUse" /></defs><g
     inkscape:label="Layer 1"
     inkscape:groupmode="layer"
     id="layer1"><path
       style="baseline-shift:baseline;display:inline;overflow:visible;vector-effect:none;fill:#1a1a1a;stroke-linecap:round;stroke-miterlimit:12;paint-order:markers stroke fill;enable-background:accumulate;stop-color:#000000"
       d="M 16.072317,0 H 119.39434 c 8.90407,0 16.07232,7.1682534 16.07232,16.072317 V 119.39434 c 0,8.90407 -7.16825,16.07232 -16.07232,16.07232 H 16.072317 C 7.1682534,135.46666 0,128.29841 0,119.39434 V 16.072317 C 0,7.1682534 7.1682534,0 16.072317,0 Z"
       id="path43" /><path
       id="path42"
       style="baseline-shift:baseline;display:inline;overflow:visible;vector-effect:none;fill:url(#linearGradient45);stroke-linecap:round;stroke-miterlimit:12;paint-order:markers stroke fill;enable-background:accumulate;stop-color:#000000"
       d="M 16.072404,0 C 7.1683402,0 0,7.1683402 0,16.072404 V 119.39426 c 0,8.90407 7.1683402,16.0724 16.072404,16.0724 H 119.39426 c 8.90407,0 16.0724,-7.16833 16.0724,-16.0724 V 16.072404 C 135.46666,7.1683402 128.29833,0 119.39426,0 Z m 0,2.1171834 H 119.39478 c 7.76805,0 13.9547,6.1871762 13.9547,13.9552206 V 119.39478 c 0,7.76805 -6.18665,13.9547 -13.9547,13.9547 H 16.072404 c -7.7680444,0 -13.9552206,-6.18665 -13.9552206,-13.9547 V 16.072404 c 0,-7.7680444 6.1871762,-13.9552206 13.9552206,-13.9552206 z" /><g
       id="g45"
       transform="matrix(0.93021182,0,0,0.93021182,4.6258407,5.2521138)"
       style="stroke-width:1.07502"><path
         style="fill:#ffffff;fill-opacity:0.851;stroke-width:0.325067"
         d="m 123.84594,81.200003 a 8.978029,8.978029 0 0 0 -8.97778,8.978959 8.978029,8.978029 0 0 0 8.97778,8.977782 8.978029,8.978029 0 0 0 8.97778,-8.977782 8.978029,8.978029 0 0 0 -8.97778,-8.978959 z"
         id="path14" /><path
         style="fill:#ffffff;fill-opacity:0.851;stroke-width:0.325067"
         d="m 101.4009,81.200003 a 8.978029,8.978029 0 0 0 -8.977787,8.978959 8.978029,8.978029 0 0 0 8.977787,8.977782 8.978029,8.978029 0 0 0 8.97778,-8.977782 8.978029,8.978029 0 0 0 -8.97778,-8.978959 z"
         id="path13" /><path
         style="fill:#ffffff;fill-opacity:0.851;stroke-width:0.325067"
         d="m 34.06577,81.200003 a 8.978029,8.978029 0 0 0 -8.97777,8.978959 8.978029,8.978029 0 0 0 8.97777,8.977782 8.978029,8.978029 0 0 0 8.977793,-8.977782 8.978029,8.978029 0 0 0 -8.977793,-8.978959 z"
         id="path12" /><path
         style="fill:#ffffff;fill-opacity:0.851;stroke-width:0.325067"
         d="m 11.620739,81.200003 a 8.978029,8.978029 0 0 0 -8.9777932,8.978959 8.978029,8.978029 0 0 0 8.9777932,8.977782 8.978029,8.978029 0 0 0 8.977771,-8.977782 8.978029,8.978029 0 0 0 -8.977771,-8.978959 z"
         id="path11" /><path
         style="fill:#ffffff;fill-opacity:0.851;stroke-width:0.325067"
         d="m 123.84594,58.754964 a 8.978029,8.978029 0 0 0 -8.97778,8.978957 8.978029,8.978029 0 0 0 8.97778,8.977781 8.978029,8.978029 0 0 0 8.97778,-8.977781 8.978029,8.978029 0 0 0 -8.97778,-8.978957 z"
         id="path10" /><path
         style="fill:#ffffff;fill-opacity:0.851;stroke-width:0.325067"
         d="m 101.4009,58.754964 a 8.978029,8.978029 0 0 0 -8.977787,8.978957 8.978029,8.978029 0 0 0 8.977787,8.977781 8.978029,8.978029 0 0 0 8.97778,-8.977781 8.978029,8.978029 0 0 0 -8.97778,-8.978957 z"
         id="path9" /><path
         style="fill:#ffffff;fill-opacity:0.851;stroke-width:0.325067"
         d="m 78.955856,58.754964 a 8.978029,8.978029 0 0 0 -8.977772,8.978957 8.978029,8.978029 0 0 0 8.977772,8.977781 8.978029,8.978029 0 0 0 8.977779,-8.977781 8.978029,8.978029 0 0 0 -8.977779,-8.978957 z"
         id="path8" /><path
         style="fill:#ffffff;fill-opacity:0.851;stroke-width:0.325067"
         d="m 56.510824,58.754964 a 8.978029,8.978029 0 0 0 -8.977793,8.978957 8.978029,8.978029 0 0 0 8.977793,8.977781 8.978029,8.978029 0 0 0 8.97777,-8.977781 8.978029,8.978029 0 0 0 -8.97777,-8.978957 z"
         id="path7" /><path
         style="fill:#ffffff;fill-opacity:0.851;stroke-width:0.325067"
         d="m 34.06577,58.754964 a 8.978029,8.978029 0 0 0 -8.97777,8.978957 8.978029,8.978029 0 0 0 8.97777,8.977781 8.978029,8.978029 0 0 0 8.977793,-8.977781 8.978029,8.978029 0 0 0 -8.977793,-8.978957 z"
         id="path6" /><path
         style="fill:#ffffff;fill-opacity:0.851;stroke-width:0.325067"
         d="m 11.620739,58.754964 a 8.978029,8.978029 0 0 0 -8.9777932,8.978957 8.978029,8.978029 0 0 0 8.9777932,8.977781 8.978029,8.978029 0 0 0 8.977771,-8.977781 8.978029,8.978029 0 0 0 -8.977771,-8.978957 z"
         id="path5" /><path
         style="fill:#ffffff;fill-opacity:0.851;stroke-width:0.325067"
         d="m 101.4009,36.309921 a 8.978029,8.978029 0 0 0 -8.977787,8.97896 8.978029,8.978029 0 0 0 8.977787,8.97778 8.978029,8.978029 0 0 0 8.97778,-8.97778 8.978029,8.978029 0 0 0 -8.97778,-8.97896 z"
         id="path4" /><path
         style="fill:#ffffff;fill-opacity:0.851;stroke-width:0.325067"
         d="m 78.955856,36.309921 a 8.978029,8.978029 0 0 0 -8.977772,8.97896 8.978029,8.978029 0 0 0 8.977772,8.97778 8.978029,8.978029 0 0 0 8.977779,-8.97778 8.978029,8.978029 0 0 0 -8.977779,-8.97896 z"
         id="path3" /><path
         style="fill:#ffffff;fill-opacity:0.851;stroke-width:0.325067"
         d="m 56.510824,36.309921 a 8.978029,8.978029 0 0 0 -8.977793,8.97896 8.978029,8.978029 0 0 0 8.977793,8.97778 8.978029,8.978029 0 0 0 8.97777,-8.97778 8.978029,8.978029 0 0 0 -8.97777,-8.97896 z"
         id="path2" /><path
         style="fill:#ffffff;fill-opacity:0.851;stroke-width:0.325067"
         d="m 34.06577,36.309921 a 8.978029,8.978029 0 0 0 -8.97777,8.97896 8.978029,8.978029 0 0 0 8.97777,8.97778 8.978029,8.978029 0 0 0 8.977793,-8.97778 8.978029,8.978029 0 0 0 -8.977793,-8.97896 z"
         id="circle3" /><rect
         style="opacity:1;fill:url(#linearGradient17);stroke:none;stroke-width:4.55093;stroke-linecap:round;stroke-miterlimit:12;paint-order:markers stroke fill"
         id="rect2"
         width="2.5647485"
         height="8.5110655"
         x="50.863594"
         y="11.76986"
         ry="1.2823743"
         inkscape:transform-center-x="-3.0812554"
         inkscape:transform-center-y="-5.3369096"
         transform="rotate(30)" /><rect
         style="opacity:1;fill:url(#linearGradient18);stroke:none;stroke-width:4.55093;stroke-linecap:round;stroke-miterlimit:12;paint-order:markers stroke fill"
         id="rect17"
         width="2.5647485"
         height="8.5110655"
         x="-30.401436"
         y="55.888676"
         ry="1.2823743"
         inkscape:transform-center-x="5.9525469"
         inkscape:transform-center-y="-1.5949709"
         transform="rotate(-75)" /><rect
         style="opacity:1;fill:url(#linearGradient19);stroke:none;stroke-width:4.55093;stroke-linecap:round;stroke-miterlimit:12;paint-order:markers stroke fill"
         id="rect18"
         width="2.5647485"
         height="8.5110655"
         x="-79.981125"
         y="35.315582"
         ry="1.2823743"
         inkscape:transform-center-x="5.3369027"
         inkscape:transform-center-y="3.0812688"
         transform="rotate(-120)" /><rect
         style="opacity:1;fill:url(#linearGradient20);stroke:none;stroke-width:4.55093;stroke-linecap:round;stroke-miterlimit:12;paint-order:markers stroke fill"
         id="rect19"
         width="2.5647485"
         height="8.5110655"
         x="84.941895"
         y="59.571556"
         ry="1.2823743"
         inkscape:transform-center-x="1.5949923"
         inkscape:transform-center-y="-5.9525407"
         transform="rotate(-15)" /><rect
         style="opacity:1;fill:url(#linearGradient32);stroke:none;stroke-width:4.55093;stroke-linecap:round;stroke-miterlimit:12;paint-order:markers stroke fill"
         id="rect26"
         width="2.5647485"
         height="8.5110655"
         x="61.135326"
         y="-39.173496"
         ry="1.2823743"
         inkscape:transform-center-x="-5.9525449"
         inkscape:transform-center-y="1.5949704"
         transform="rotate(105)" /><rect
         style="opacity:1;fill:url(#linearGradient31);stroke:none;stroke-width:4.55093;stroke-linecap:round;stroke-miterlimit:12;paint-order:markers stroke fill"
         id="rect27"
         width="2.5647485"
         height="8.5110655"
         x="-69.015717"
         y="23.647711"
         ry="1.2823743"
         inkscape:transform-center-x="6.1625267"
         inkscape:transform-center-y="9.5909217e-06"
         transform="rotate(-90)" /><rect
         style="opacity:1;fill:url(#linearGradient30);stroke:none;stroke-width:4.55093;stroke-linecap:round;stroke-miterlimit:12;paint-order:markers stroke fill"
         id="rect28"
         width="2.5647485"
         height="8.5110655"
         x="-52.081684"
         y="61.697872"
         ry="1.2823743"
         inkscape:transform-center-x="5.9525475"
         inkscape:transform-center-y="-1.5949701"
         transform="rotate(-75)" /><rect
         style="opacity:1;fill:url(#linearGradient29);stroke:none;stroke-width:4.55093;stroke-linecap:round;stroke-miterlimit:12;paint-order:markers stroke fill"
         id="rect29"
         width="2.5647485"
         height="8.5110655"
         x="66.450951"
         y="-89.373909"
         ry="1.2823743"
         inkscape:transform-center-x="-6.1625231"
         inkscape:transform-center-y="-7.8136352e-06"
         transform="rotate(90)" /><rect
         style="opacity:1;fill:url(#linearGradient38);stroke:none;stroke-width:4.55093;stroke-linecap:round;stroke-miterlimit:12;paint-order:markers stroke fill"
         id="rect32"
         width="2.5647485"
         height="8.5110655"
         x="88.830902"
         y="1.6970596"
         ry="1.2823743"
         inkscape:transform-center-x="-5.9525413"
         inkscape:transform-center-y="-1.5949892"
         transform="rotate(75)" /><rect
         style="opacity:1;fill:url(#linearGradient37);stroke:none;stroke-width:4.55093;stroke-linecap:round;stroke-miterlimit:12;paint-order:markers stroke fill"
         id="rect33"
         width="2.5647485"
         height="8.5110655"
         x="-97.204872"
         y="-0.85293305"
         ry="1.2823743"
         inkscape:transform-center-x="5.9525421"
         inkscape:transform-center-y="1.5949861"
         transform="rotate(-105)" /><rect
         style="opacity:1;fill:url(#linearGradient36);stroke:none;stroke-width:4.55093;stroke-linecap:round;stroke-miterlimit:12;paint-order:markers stroke fill"
         id="rect34"
         width="2.5647485"
         height="8.5110655"
         x="100.11852"
         y="57.315273"
         ry="1.2823743"
         inkscape:transform-center-x="9.56263e-06"
         inkscape:transform-center-y="-6.1625269" /><rect
         style="opacity:1;fill:url(#linearGradient35);stroke:none;stroke-width:4.55093;stroke-linecap:round;stroke-miterlimit:12;paint-order:markers stroke fill"
         id="rect35"
         width="2.5647485"
         height="8.5110655"
         x="-4.5465732"
         y="-151.53847"
         ry="1.2823743"
         inkscape:transform-center-x="-5.3369107"
         inkscape:transform-center-y="3.0812556"
         transform="rotate(120)" /><rect
         style="opacity:1;fill:url(#linearGradient40);stroke:none;stroke-width:4.55093;stroke-linecap:round;stroke-miterlimit:12;paint-order:markers stroke fill"
         id="rect38"
         width="2.5647485"
         height="8.5110655"
         x="-136.74939"
         y="-2.4825308"
         ry="1.2823743"
         inkscape:transform-center-x="4.3575598"
         inkscape:transform-center-y="4.3575693"
         transform="rotate(-135)" /><rect
         style="opacity:1;fill:url(#linearGradient39);stroke:none;stroke-width:4.55093;stroke-linecap:round;stroke-miterlimit:12;paint-order:markers stroke fill"
         id="rect39"
         width="2.5647485"
         height="8.5110655"
         x="138.73735"
         y="-72.582596"
         ry="1.2823743"
         inkscape:transform-center-x="-5.3368983"
         inkscape:transform-center-y="-3.0812674"
         transform="rotate(60)" /></g></g></svg>
