<?xml version="1.0" encoding="UTF-8" standalone="no"?>
<!-- Created with Inkscape (http://www.inkscape.org/) -->

<svg
   width="512"
   height="512"
   viewBox="0 0 135.46666 135.46667"
   version="1.1"
   id="svg5"
   inkscape:version="1.2.1 (9c6d41e410, 2022-07-14, custom)"
   sodipodi:docname="application-x-pem-key.svg"
   xmlns:inkscape="http://www.inkscape.org/namespaces/inkscape"
   xmlns:sodipodi="http://sodipodi.sourceforge.net/DTD/sodipodi-0.dtd"
   xmlns:xlink="http://www.w3.org/1999/xlink"
   xmlns="http://www.w3.org/2000/svg"
   xmlns:svg="http://www.w3.org/2000/svg">
  <sodipodi:namedview
     id="namedview7"
     pagecolor="#505050"
     bordercolor="#ffffff"
     borderopacity="1"
     inkscape:showpageshadow="0"
     inkscape:pageopacity="0"
     inkscape:pagecheckerboard="1"
     inkscape:deskcolor="#505050"
     inkscape:document-units="mm"
     showgrid="false"
     inkscape:zoom="2.8284271"
     inkscape:cx="181.37289"
     inkscape:cy="185.61553"
     inkscape:window-width="3252"
     inkscape:window-height="1076"
     inkscape:window-x="1864"
     inkscape:window-y="0"
     inkscape:window-maximized="0"
     inkscape:current-layer="g37935"
     showguides="false" />
  <defs
     id="defs2">
    <linearGradient
       inkscape:collect="always"
       id="linearGradient17034">
      <stop
         style="stop-color:#483837;stop-opacity:1;"
         offset="0"
         id="stop17030" />
      <stop
         style="stop-color:#483837;stop-opacity:0;"
         offset="1"
         id="stop17032" />
    </linearGradient>
    <linearGradient
       inkscape:collect="always"
       id="linearGradient17028">
      <stop
         style="stop-color:#483737;stop-opacity:1;"
         offset="0"
         id="stop17024" />
      <stop
         style="stop-color:#483737;stop-opacity:0;"
         offset="1"
         id="stop17026" />
    </linearGradient>
    <linearGradient
       inkscape:collect="always"
       id="linearGradient2866">
      <stop
         style="stop-color:#000000;stop-opacity:1;"
         offset="0"
         id="stop2860" />
      <stop
         style="stop-color:#291009;stop-opacity:0.49803957;"
         offset="0.07834584"
         id="stop2862" />
      <stop
         style="stop-color:#cc9b58;stop-opacity:0;"
         offset="1"
         id="stop2864" />
    </linearGradient>
    <linearGradient
       inkscape:collect="always"
       id="linearGradient2858">
      <stop
         style="stop-color:#000000;stop-opacity:1;"
         offset="0"
         id="stop2852" />
      <stop
         style="stop-color:#291309;stop-opacity:1;"
         offset="0.07834584"
         id="stop2854" />
      <stop
         style="stop-color:#cc7c58;stop-opacity:0.9359287;"
         offset="1"
         id="stop2856" />
    </linearGradient>
    <linearGradient
       inkscape:collect="always"
       id="linearGradient2850">
      <stop
         style="stop-color:#000000;stop-opacity:1;"
         offset="0"
         id="stop2844" />
      <stop
         style="stop-color:#472900;stop-opacity:1;"
         offset="0.07834584"
         id="stop2846" />
      <stop
         style="stop-color:#cc9358;stop-opacity:0;"
         offset="1"
         id="stop2848" />
    </linearGradient>
    <linearGradient
       inkscape:collect="always"
       id="linearGradient2842">
      <stop
         style="stop-color:#483f37;stop-opacity:0;"
         offset="0"
         id="stop2838" />
      <stop
         style="stop-color:#484037;stop-opacity:1;"
         offset="1"
         id="stop2840" />
    </linearGradient>
    <linearGradient
       inkscape:collect="always"
       id="linearGradient2836">
      <stop
         style="stop-color:#483d37;stop-opacity:0;"
         offset="0"
         id="stop2832" />
      <stop
         style="stop-color:#484137;stop-opacity:1;"
         offset="1"
         id="stop2834" />
    </linearGradient>
    <linearGradient
       inkscape:collect="always"
       id="linearGradient2830">
      <stop
         style="stop-color:#a05e44;stop-opacity:1;"
         offset="0"
         id="stop2826" />
      <stop
         style="stop-color:#d3955f;stop-opacity:0;"
         offset="1"
         id="stop2828" />
    </linearGradient>
    <linearGradient
       inkscape:collect="always"
       id="linearGradient32403">
      <stop
         style="stop-color:#2b190e;stop-opacity:1;"
         offset="0"
         id="stop32399" />
      <stop
         style="stop-color:#786346;stop-opacity:1;"
         offset="1"
         id="stop32401" />
    </linearGradient>
    <linearGradient
       inkscape:collect="always"
       id="linearGradient23068">
      <stop
         style="stop-color:#000000;stop-opacity:1;"
         offset="0"
         id="stop23064" />
      <stop
         style="stop-color:#ffffff;stop-opacity:1;"
         offset="1"
         id="stop23066" />
    </linearGradient>
    <filter
       inkscape:collect="always"
       style="color-interpolation-filters:sRGB"
       id="filter25471"
       x="-0.0091865883"
       y="-0.14520066"
       width="1.0183732"
       height="1.2904013">
      <feGaussianBlur
         inkscape:collect="always"
         stdDeviation="0.34647189"
         id="feGaussianBlur25473" />
    </filter>
    <filter
       inkscape:collect="always"
       style="color-interpolation-filters:sRGB"
       id="filter29523"
       x="-0.0075460355"
       y="-0.0078188073"
       width="1.0150921"
       height="1.0156376">
      <feGaussianBlur
         inkscape:collect="always"
         stdDeviation="0.18452687"
         id="feGaussianBlur29525" />
    </filter>
    <linearGradient
       inkscape:collect="always"
       xlink:href="#linearGradient32403"
       id="linearGradient38663"
       gradientUnits="userSpaceOnUse"
       x1="30.830463"
       y1="89.374367"
       x2="30.830463"
       y2="26.171032"
       gradientTransform="rotate(45,69.507084,29.443395)" />
    <linearGradient
       inkscape:collect="always"
       xlink:href="#linearGradient2830"
       id="linearGradient38665"
       gradientUnits="userSpaceOnUse"
       gradientTransform="translate(-55.355786,52.709425)"
       x1="168.29024"
       y1="15.023905"
       x2="168.29024"
       y2="-4.8973589" />
    <radialGradient
       inkscape:collect="always"
       xlink:href="#linearGradient2836"
       id="radialGradient38667"
       gradientUnits="userSpaceOnUse"
       gradientTransform="matrix(0.70710678,0.70710678,-0.66715791,0.66715791,-25.364688,-81.026095)"
       cx="108.09609"
       cy="41.720773"
       fx="108.09609"
       fy="41.720773"
       r="32.823577" />
    <linearGradient
       inkscape:collect="always"
       xlink:href="#linearGradient23068"
       id="linearGradient38669"
       gradientUnits="userSpaceOnUse"
       x1="35.728409"
       y1="28.746567"
       x2="35.728409"
       y2="85.805092"
       gradientTransform="rotate(45,69.507084,29.443395)" />
    <linearGradient
       inkscape:collect="always"
       xlink:href="#linearGradient2842"
       id="linearGradient38671"
       gradientUnits="userSpaceOnUse"
       gradientTransform="translate(-133.47536,-73.376418)"
       x1="185.25107"
       y1="131.14914"
       x2="196.66983"
       y2="131.14914" />
    <linearGradient
       inkscape:collect="always"
       xlink:href="#linearGradient2850"
       id="linearGradient38673"
       gradientUnits="userSpaceOnUse"
       gradientTransform="matrix(0.70659009,0.70659009,-0.82677732,0.82677732,48.427795,-47.609129)"
       x1="107.70286"
       y1="54.909054"
       x2="107.70286"
       y2="59.889366" />
    <linearGradient
       inkscape:collect="always"
       xlink:href="#linearGradient2858"
       id="linearGradient38675"
       gradientUnits="userSpaceOnUse"
       gradientTransform="matrix(0.70659009,0.70659009,-0.82677732,0.82677732,48.427794,-47.60913)"
       x1="107.70286"
       y1="54.909054"
       x2="107.70286"
       y2="59.889366" />
    <linearGradient
       inkscape:collect="always"
       xlink:href="#linearGradient2866"
       id="linearGradient38677"
       gradientUnits="userSpaceOnUse"
       gradientTransform="matrix(0.70659009,0.70659009,-0.82677732,0.82677732,48.427792,-47.609132)"
       x1="107.70286"
       y1="54.909054"
       x2="107.70286"
       y2="59.889366" />
    <linearGradient
       inkscape:collect="always"
       xlink:href="#linearGradient17028"
       id="linearGradient38679"
       gradientUnits="userSpaceOnUse"
       gradientTransform="matrix(1,0,0,0.31394186,0.46146961,-24.970842)"
       x1="65.185684"
       y1="57.7727"
       x2="80.218326"
       y2="57.7727" />
    <linearGradient
       inkscape:collect="always"
       xlink:href="#linearGradient17034"
       id="linearGradient38681"
       gradientUnits="userSpaceOnUse"
       gradientTransform="matrix(1,0,0,0.3937483,0.46147167,-16.709255)"
       x1="65.185684"
       y1="57.7727"
       x2="80.218326"
       y2="57.7727" />
    <clipPath
       clipPathUnits="userSpaceOnUse"
       id="clipPath5236">
      <path
         id="path5238"
         style="display:inline;fill:#3d2b1c;fill-opacity:1;stroke:none;stroke-width:0.544674;stroke-linecap:round;stroke-linejoin:round;stroke-dasharray:none;paint-order:stroke fill markers"
         d="m -49.172392,42.832634 c -7.004256,-6.995933 -18.211432,-7.42723 -25.732692,-0.990362 -6.407574,-5.945629 -16.36893,-5.762969 -22.554216,0.413581 -6.17655,6.185286 -6.35921,16.146645 -0.413581,22.554218 -6.436869,7.52126 -6.005549,18.72841 0.990362,25.732687 4.100296,4.092133 9.645528,5.163233 15.599791,5.412759 5.954263,0.249526 10.077479,-4.560893 14.52345,-1.747462 4.445974,2.813431 3.941943,12.094115 3.941943,12.094115 l 1.23676,1.20889 7.015726,-7.01572 18.384986,18.38498 6.614488,-1.19616 3.945923,3.94593 3.945925,3.94592 -1.196162,6.61448 2.473521,2.47353 6.614881,-1.19577 3.9459273,3.94593 3.9459199,3.94592 -1.1961548,6.61449 3.2099205,3.20992 3.75525159,0.19027 3.94632081,3.94632 3.9459262,3.94593 0.1906696,3.75565 4.8363789,4.83637 13.869045,-1.47599 3.836059,-3.83606 0.318045,-7.35487 -70.041834,-70.041829 7.015329,-7.015329 -1.208497,-1.237155 c 0,0 -9.500746,0.738085 -12.094118,-3.941942 -2.593371,-4.680024 1.21072,-8.826172 1.747462,-14.52345 0.536739,-5.697276 -1.320623,-11.499498 -5.412756,-15.599791 z m -33.362617,3.149415 c 3.092191,3.092291 3.092191,8.105804 0,11.198095 -3.092294,3.092191 -8.105804,3.092191 -11.198095,0 -3.092191,-3.092291 -3.092191,-8.105801 0,-11.198095 3.092291,-3.092191 8.105804,-3.092191 11.198095,0 z"
         inkscape:label="shape" />
    </clipPath>
    <clipPath
       clipPathUnits="userSpaceOnUse"
       id="clipPath36916">
      <path
         id="path36918"
         style="display:inline;fill:#3d2b1c;fill-opacity:1;stroke:none;stroke-width:0.544674;stroke-linecap:round;stroke-linejoin:round;stroke-dasharray:none;paint-order:stroke fill markers"
         d="m -117.76497,34.552136 c -7.00426,-6.995935 -18.21143,-7.42723 -25.73269,-0.990362 -6.40758,-5.945629 -16.36893,-5.762969 -22.55422,0.413581 -6.17655,6.185286 -6.35921,16.146642 -0.41358,22.554218 -6.43687,7.521258 -6.00554,18.728407 0.99036,25.732687 4.1003,4.092133 9.64553,5.163233 15.59979,5.412759 5.95427,0.249526 10.07748,-4.560893 14.52345,-1.747465 4.44598,2.813434 3.94195,12.094118 3.94195,12.094118 l 1.23676,1.208892 7.01572,-7.015726 18.38499,18.384982 6.614484,-1.19615 3.945924,3.94592 3.945927,3.94593 -1.196162,6.61448 2.47352,2.47352 6.61488,-1.19576 3.94593,3.94592 3.945919,3.94592 -1.196155,6.61449 3.20992,3.20992 3.755252,0.19027 3.946319,3.94632 3.945927,3.94593 0.190669,3.75565 4.83638,4.83637 13.869045,-1.47599 3.836059,-3.83605 0.318045,-7.35488 -70.041833,-70.041827 7.01533,-7.015332 -1.2085,-1.237152 c 0,0 -9.50074,0.738082 -12.09412,-3.941942 -2.59337,-4.680027 1.21072,-8.826175 1.74747,-14.52345 0.53673,-5.697278 -1.32063,-11.499498 -5.41276,-15.599791 z m -33.36262,3.149415 c 3.09219,3.092291 3.09219,8.105801 0,11.198095 -3.09229,3.092188 -8.1058,3.092188 -11.19809,0 -3.09219,-3.092291 -3.09219,-8.105804 0,-11.198095 3.09229,-3.092191 8.1058,-3.092191 11.19809,0 z" />
    </clipPath>
    <filter
       inkscape:collect="always"
       style="color-interpolation-filters:sRGB"
       id="filter37002"
       x="-0.031018701"
       y="-0.03250724"
       width="1.0598413"
       height="1.0627877">
      <feGaussianBlur
         inkscape:collect="always"
         stdDeviation="1.6862779"
         id="feGaussianBlur37004" />
    </filter>
    <clipPath
       clipPathUnits="userSpaceOnUse"
       id="clipPath39418">
      <path
         id="path39420"
         style="display:inline;fill:#ff6600;fill-opacity:1;stroke:none;stroke-width:0.544674;stroke-linecap:round;stroke-linejoin:round;stroke-dasharray:none;paint-order:stroke fill markers"
         d="m -144.14211,-17.549833 c -7.00426,-6.995934 -18.21143,-7.427231 -25.73269,-0.990362 -6.40758,-5.94563 -16.36893,-5.762969 -22.55422,0.41358 -6.17655,6.185287 -6.35921,16.146644 -0.41358,22.5542181 -6.43687,7.5212589 -6.00554,18.7284089 0.99036,25.7326879 4.1003,4.092133 9.64553,5.163235 15.59979,5.412758 5.95427,0.249526 10.07748,-4.560893 14.52345,-1.747464 4.44598,2.813433 3.94195,12.09412 3.94195,12.09412 l 1.23676,1.208889 7.01572,-7.015726 18.38499,18.38498 6.61449,-1.196149 3.94592,3.945919 3.94593,3.94593 -1.19617,6.61448 2.47352,2.473521 6.61488,-1.195761 3.94593,3.94593 3.94592,3.945919 -1.19615,6.61448 3.209916,3.209922 3.755253,0.19027 3.946321,3.946319 3.945927,3.945929 0.190669,3.755653 4.836377,4.83637 13.869046,-1.47598 3.836059,-3.83606 0.318045,-7.354881 -70.041833,-70.041826 7.01533,-7.01533 -1.2085,-1.237153 c 0,0 -9.50074,0.738083 -12.09412,-3.941943 -2.59337,-4.6800249 1.21073,-8.826173 1.74747,-14.523449 0.53674,-5.6972781 -1.32063,-11.499498 -5.41276,-15.599791 z m -33.36262,3.149414 c 3.09219,3.092293 3.09219,8.1058029 0,11.1980949 -3.09229,3.0921901 -8.1058,3.0921901 -11.19809,0 -3.09219,-3.0922909 -3.09219,-8.1058019 0,-11.1980939 3.09229,-3.092191 8.1058,-3.09219 11.19809,-10e-7 z" />
    </clipPath>
    <filter
       inkscape:collect="always"
       style="color-interpolation-filters:sRGB"
       id="filter39422"
       x="-0.17069891"
       y="-0.17420063"
       width="1.3413978"
       height="1.3484013">
      <feGaussianBlur
         inkscape:collect="always"
         stdDeviation="9.4774471"
         id="feGaussianBlur39424" />
    </filter>
  </defs>
  <g
     inkscape:label="Layer 1 copy"
     inkscape:groupmode="layer"
     id="g37935"
     style="display:inline">
    <path
       id="path37895"
       style="display:inline;fill:#3d2b1c;fill-opacity:1;stroke:url(#linearGradient38663);stroke-width:0.5;stroke-linecap:round;stroke-linejoin:round;stroke-dasharray:none;paint-order:stroke fill markers"
       d="M 44.326495,0.52947557 C 37.896719,-5.8926634 27.608737,-6.2885866 20.704358,-0.37965869 14.822323,-5.8376385 5.6779798,-5.6699586 2.3603646e-7,0 -5.6699581,5.6779798 -5.8376383,14.822323 -0.37965845,20.704358 -6.2885864,27.608736 -5.8926384,37.896694 0.52947581,44.326494 4.2934724,48.082996 9.3838938,49.066247 14.849798,49.295307 c 5.465904,0.22906 9.25094,-4.186816 13.332259,-1.60414 4.081323,2.582679 3.618632,11.102178 3.618632,11.102178 l 1.135324,1.10974 6.440308,-6.440309 16.877079,16.877079 6.071977,-1.098049 3.622286,3.622286 3.622287,3.622287 -1.098055,6.071971 2.270647,2.270647 6.072339,-1.097687 3.622289,3.622289 3.622282,3.622282 -1.098048,6.071978 2.946648,2.946648 3.447252,0.174663 3.62265,3.62265 3.622288,3.62229 0.175031,3.44762 4.439707,4.4397 12.73153,-1.35493 3.52143,-3.52143 0.29196,-6.75164 -64.297118,-64.297114 6.439944,-6.439944 -1.10938,-1.135684 c 0,0 -8.721508,0.677547 -11.102178,-3.618631 -2.380666,-4.296177 1.111421,-8.102265 1.60414,-13.33226 C 49.788024,9.6198006 48.082999,4.2934686 44.326495,0.52947557 Z M 13.700226,3.4205799 c 2.838574,2.8386675 2.838574,7.4409781 0,10.2796451 -2.838668,2.838574 -7.4409784,2.838574 -10.2796458,0 -2.8385735,-2.838666 -2.83857371,-7.4409772 2e-7,-10.2796449 2.8386676,-2.83857385 7.4409786,-2.83857364 10.2796456,-2e-7 z"
       transform="matrix(1.0893464,0,0,1.0893464,6.3838407,7.811452)" />
    <path
       id="path37895-3"
       style="display:inline;opacity:1;mix-blend-mode:soft-light;fill:#ff6600;fill-opacity:1;stroke:none;stroke-width:0.544673;stroke-linecap:round;stroke-linejoin:round;stroke-dasharray:none;paint-order:stroke fill markers;filter:url(#filter39422)"
       d="m -157.68081,-23.095748 c -4.33285,0.03031 -8.66851,1.538515 -12.19409,4.555794 -0.59098,-0.54837 -1.2126,-1.044066 -1.85829,-1.488281 -6.68421,2.490684 -14.38294,4.000635 -22.61257,4.215763 -3.39007,4.948838 -3.73931,11.3636752 -1.01854,16.63154345 1.07216,-1.90861805 2.97535,-3.72170355 5.564,-5.40328775 -1.93003,-3.0595913 -1.56795,-7.1502907 1.09761,-9.8159387 3.09228,-3.092188 8.10548,-3.092186 11.19776,0 1.06429,1.064323 1.75348,2.357862 2.08515,3.720704 9.02937,-2.608863 20.40003,-4.372123 32.95819,-4.916496 -0.51189,-0.684023 -1.06793,-1.340081 -1.68052,-1.953886 -3.721,-3.716586 -8.62814,-5.580264 -13.5387,-5.545915 z m -37.67367,31.2818116 c -3.63088,7.1566434 -2.40265,16.0625344 3.50211,21.9743694 4.10029,4.092128 9.64583,5.163065 15.60008,5.412589 5.95426,0.249526 10.07718,-4.560606 14.52314,-1.74718 3.22525,2.040949 3.83716,7.451397 3.93465,10.287228 1.7935,-0.424017 3.57249,-0.781623 5.32887,-1.068669 l 2.93109,-2.931604 2.28358,2.283582 c 1.60001,-0.133813 3.17277,-0.206185 4.70721,-0.206189 21.10524,6.1e-5 29.63018,12.946603 32.82848,31.069938 l 0.96429,-0.17415 3.94601,3.946013 3.94601,3.945495 -1.19631,6.614583 3.209624,3.21014 3.755326,0.19017 3.946529,3.946529 3.946013,3.945495 0.190686,3.755847 4.836397,4.83639 13.868921,-1.47588 3.835941,-3.83594 0.318327,-7.355103 -7.254337,-7.254338 c -1.625364,3.544863 -3.97694,5.952521 -6.957198,6.722071 -8.758759,2.26104 -19.615851,-10.455734 -24.250199,-28.403951 -1.01634,-3.936142 -1.64843,-7.796776 -1.92443,-11.449948 l -29.65607,-29.655554 c -30.48208,3e-5 -55.83957,-7.147884 -61.16474,-16.5819334 z"
       clip-path="url(#clipPath39418)"
       transform="translate(198.81286,25.938067)" />
    <path
       style="mix-blend-mode:soft-light;fill:none;stroke:#562307;stroke-width:2.565;stroke-linecap:butt;stroke-linejoin:miter;stroke-dasharray:none;stroke-opacity:1;filter:url(#filter37002);opacity:0.52666372"
       d="m -173.69214,29.902483 c -0.0327,-0.572563 0.39799,-1.429965 -0.0981,-1.71769 -0.4979,-0.288768 -1.03812,0.49785 -1.54942,0.762161 -0.50838,0.2628 -5.05641,2.516159 -6.21567,3.485771 -0.65108,0.544562 -1.19344,1.20955 -1.74227,1.857035 -1.55321,1.832417 -2.11816,3.176477 -2.41498,5.558283 -0.0945,0.758315 -0.0569,2.330325 0.37418,2.993419 0.38353,0.589949 0.84024,1.149177 1.38901,1.589614 1.59736,1.282026 6.46081,2.052473 7.21296,2.207267 2.70514,0.556722 5.72837,0.646119 8.42246,1.079185 2.00883,0.322913 3.97563,0.884069 5.9883,1.182117 1.91587,0.283712 3.85542,0.37404 5.78312,0.56106 3.82451,0.660353 7.63952,1.378322 11.47353,1.981057 0.37144,0.05839 0.7693,-0.112731 1.12801,0 0.11273,0.03543 0,0.236335 0,0.354503 0,0.08366 0,0.167326 0,0.250989 0,1.115403 0,2.230805 0,3.346208 0,0.623629 0.15867,1.26778 0,1.870888 -0.51342,1.951503 -1.92235,4.676682 -2.76248,6.60555 -0.27401,0.629094 -1.33009,3.300182 -1.52165,3.912727 -0.16344,0.522634 -0.24553,1.067329 -0.37418,1.599597 -0.55568,2.299115 -0.37418,0.871278 -0.37418,3.741772 0,0.374176 -0.14871,0.779179 0,1.122531 0.49905,1.152189 1.08105,2.299706 1.89601,3.254915 0.42191,0.494514 1.07124,0.78762 1.69851,0.958154 1.63172,0.443611 3.30948,0.79203 4.99896,0.862661 1.09061,0.04559 2.16069,-0.316434 3.2334,-0.518504 16.28173,-3.067063 -5.49364,0.951585 7.77459,-1.782593 3.18011,-0.655325 3.51533,-0.45788 7.00395,-0.45788 1.14765,0 2.32006,-0.237072 3.44296,0 1.42155,0.300125 3.83932,2.250519 4.80675,3.129238 0.67355,0.611777 1.24005,1.332142 1.87509,1.983795 1.87553,1.924587 3.94416,3.694025 4.83809,6.337686 0.12107,0.358045 -0.0532,0.759688 0,1.133883 0.20207,1.420577 0.84397,2.74811 1.12253,4.155688 0.0726,0.367059 0,0.748356 0,1.122532 0,0.87308 0,1.746163 0,2.619243 0,2.855373 -0.082,0.0922 0.37418,3.741775 0.0309,0.24752 -0.0675,0.5082 0,0.74835 0.0913,0.32477 0.34482,0.58393 0.46316,0.89984 0.19651,0.52463 0.21967,1.11404 0.47749,1.6114 0.16508,0.31846 0.48685,0.52857 0.75521,0.76658 0.67984,0.60298 1.30836,1.28537 2.08684,1.75414 0.48195,0.29021 1.05775,0.43653 1.61885,0.47729 3.607763,0.26212 7.234002,0.18912 10.843374,0.42812 0.85631,0.0567 1.685149,0.32845 2.533552,0.45765 1.062834,0.16187 2.136812,0.24554 3.198413,0.41529 3.054389,0.48839 1.58007,0.0706 3.504808,1.22542 0.239149,0.14349 0.593651,0.14212 0.748353,0.37417 0.138372,0.20756 -0.08398,0.51347 0,0.74836 2.192324,6.13173 0.106505,-1.61399 0.839343,2.72174 0.708303,4.19057 0.316611,-1.54985 0.95024,3.9926 0.15743,1.37705 -0.127598,2.77793 0,4.15806 0.310153,3.35464 1.060903,5.11055 1.704536,8.6605 0.07245,0.39961 -0.133625,0.83485 0,1.21836 0.16369,0.46979 0.569156,0.81614 0.851583,1.22569 0.284353,0.41235 0.521234,0.86104 0.848749,1.24001 1.60106,1.85263 1.77581,1.84036 3.96248,3.0042 0.7739,0.41191 1.5162,0.91577 2.35478,1.17148 0.91156,0.27796 1.90492,0.17849 2.82953,0.40937 3.22259,0.80467 6.383,1.84248 9.59387,2.69273 0.701,0.18563 5.2027,0.99117 6.45574,1.77928 2.45654,1.54508 1.40117,0.91252 1.61858,2.34416 0.0879,0.57868 0.23326,1.14751 0.37417,1.71561 1.60572,6.47336 -1.27689,-6.6434 1.43496,7.18209 0.25245,1.28705 0.5926,2.55539 0.87533,3.83614 0.17183,0.77835 0.32778,1.56012 0.48828,2.34089 0.12882,0.62665 0.19697,1.26821 0.37966,1.88132 0.19661,0.65985 0.51454,1.27747 0.75392,1.92303 0.45688,1.23207 0.93257,2.45834 1.33466,3.70937 0.16993,0.52873 0.12239,1.1299 0.37902,1.62243 0.34395,0.66013 0.92395,1.16733 1.38078,1.75503 3.17801,4.08836 0.96411,1.97909 8.07651,5.70392 3.04467,1.59452 3.96442,1.89811 6.98541,3.27343 1.58467,0.72144 3.20866,1.36546 4.74244,2.18959 1.83646,0.98677 3.03898,2.78318 4.12271,4.48691 0.58243,0.91565 1.25948,1.78134 1.72098,2.76351 0.12745,0.27126 -0.065,0.60654 0,0.89913 0.13393,0.60335 0.36494,0.75287 0.74141,1.12934"
       id="path36515"
       clip-path="url(#clipPath36916)"
       transform="translate(172.44145,-26.151735)" />
    <path
       id="path37897"
       style="display:inline;opacity:0.17821597;fill:url(#linearGradient38665);fill-opacity:1;stroke-width:6.46499;stroke-linecap:round;stroke-linejoin:round;paint-order:fill markers stroke;filter:url(#filter25471)"
       d="m 66.244019,60.947184 v 5.726782 h 23.015132 l 2.782259,-4.539774 h 5.651852 5.651858 l 2.78226,4.539774 h 3.62251 l 2.78277,-4.539774 h 5.65186 5.65185 l 2.78226,4.539774 h 5.01623 l 1.38854,-1.78387 h 5.65237 5.65186 l 1.38854,1.78387 h 6.41873 c 1.54166,-1.908852 3.08337,-3.81793 4.62504,-5.726782 z"
       sodipodi:nodetypes="cccccccccccccccccccc"
       transform="matrix(0.77028424,0.77028424,-0.77028424,0.77028424,51.240706,-36.334486)" />
    <path
       id="path37899"
       style="display:inline;opacity:0.2274744;fill:url(#radialGradient38667);fill-opacity:1;stroke:url(#linearGradient38669);stroke-width:0.165237;stroke-linecap:round;stroke-linejoin:round;stroke-dasharray:none;paint-order:fill markers stroke"
       d="M 42.278387,1.51092 C 38.549437,-1.9336864 32.829964,-3.2567397 27.886278,-1.846457 25.779024,-1.2649352 23.925107,-0.18359141 22.182203,1.171339 21.161896,2.1262945 19.628446,1.583385 18.727035,0.74442684 16.97607,-0.82354285 14.705338,-1.7803063 12.454376,-2.0683123 7.982158,-2.6962153 3.1141153,-0.90505162 0.43202815,2.7621668 -2.5832449,6.6289944 -3.1200273,12.37624 -0.65494219,16.708528 c 0.58173251,1.132233 1.45583316,2.081098 2.15971699,3.122651 0.60435,1.407482 -0.54855651,2.680809 -1.33986769,3.723074 -3.35799071,4.89828 -3.43295111,11.786156 -0.16730924,16.751759 0.95816434,1.491932 2.18046843,2.808679 3.53630963,3.802568 2.459475,1.820359 5.4968932,2.514584 8.4272735,2.880905 2.454939,0.273941 5.041984,0.400843 7.357376,-0.616923 2.650865,-0.95542 5.558599,-2.162407 8.388605,-1.210226 2.92595,0.958696 4.808026,3.793446 5.480586,6.685426 0.377301,1.360711 0.589817,2.764528 0.681319,4.172531 7.375134,-7.357174 14.7432,-14.721421 22.104125,-22.092811 -3.381066,-0.160635 -7.056889,-1.000876 -9.376549,-3.652063 -2.13547,-2.564359 -2.218351,-6.287663 -1.060051,-9.298088 0.96966,-3.046532 2.147623,-6.198186 1.667437,-9.450873 C 46.897514,8.1978782 45.485362,4.930907 43.2816,2.5127927 42.964908,2.161 42.625476,1.832655 42.278521,1.5110543 Z M 15.239839,1.9721961 C 18.923799,5.4760623 18.826066,12.06674 15.02163,15.448657 11.673919,18.646963 5.8721229,18.850287 2.429541,15.688238 -0.90365484,12.817089 -1.8608519,7.4790612 0.54849218,3.7352242 2.7262389,0.11888992 7.5036164,-1.7786241 11.522004,-0.31209025 c 1.395622,0.45886563 2.67386,1.25200736 3.717835,2.28428635 z"
       transform="matrix(1.0893464,0,0,1.0893464,6.3838407,7.811452)" />
    <path
       id="path37901"
       style="display:inline;opacity:0.0906308;fill:url(#linearGradient38671);fill-opacity:1;stroke:none;stroke-width:0.165;stroke-linecap:round;stroke-linejoin:round;stroke-dasharray:none;paint-order:fill markers stroke;filter:url(#filter29523)"
       d="m 30.595703,29.474609 c -3.310084,0.127146 -6.676574,1.595797 -9.21875,3.916016 -1.260548,1.130286 -2.563301,2.797474 -3.33621,4.506499 -0.862803,1.808282 -1.192557,3.661662 -1.470431,5.628267 -0.46674,1.54313 -2.217805,2.105927 -3.677388,2.103913 -3.5828879,0.366562 -6.9643269,2.743344 -8.8382365,5.907805 2.975609,-3.823688 8.9707415,-4.880269 13.0012375,-2.124313 3.189043,2.026204 5.169569,5.926022 4.555618,9.705541 -0.627287,4.705593 -4.978653,8.703901 -9.788103,8.579876 -3.0065882,0.02053 -5.9843395,-1.473072 -7.8488306,-3.776338 1.9076081,3.318666 5.4107183,5.666095 9.2345956,6.043596 1.050896,0.12698 2.289956,0.211343 2.883605,1.238291 0.923454,1.451427 0.637236,3.285635 1.298603,4.840718 1.824612,5.505125 7.125439,9.705126 12.948878,10.010045 3.135272,0.280661 6.232525,-0.818297 8.785904,-2.588545 2.431959,-1.714888 4.978081,-3.606206 6.287867,-6.362464 1.232647,-2.697022 2.458037,-5.74018 5.167416,-7.280005 3.000134,-1.728625 6.81225,-1.010834 9.608695,0.787304 0.865158,0.497455 1.677412,1.080815 2.462171,1.695826 0.01072,-9.654946 0.01336,-19.309894 0.0078,-28.964844 -2.610877,2.17986 -6.021168,3.926015 -9.511696,3.302593 -3.321306,-0.648323 -5.857,-3.353617 -7.156128,-6.36703 -1.4228,-2.809724 -2.900819,-5.78331 -5.562926,-7.630132 -2.774005,-2.152359 -6.314361,-3.350805 -9.833703,-3.172619 z"
       transform="matrix(0.77028424,0.77028424,-0.77028424,0.77028424,51.240706,-36.334486)" />
    <path
       id="path37903"
       style="display:inline;opacity:0.47080569;mix-blend-mode:overlay;fill:url(#linearGradient38673);fill-opacity:1;stroke-width:6.1789;stroke-linecap:round;stroke-linejoin:round;paint-order:fill markers stroke"
       d="m 49.04045,43.798647 67.52705,67.527053 -2.36984,2.36984 -2.95536,0.54018 -66.319461,-66.319462 z"
       sodipodi:nodetypes="cccccc"
       transform="matrix(1.0893464,0,0,1.0893464,6.3838407,7.811452)" />
    <path
       id="path37905"
       style="display:inline;opacity:0.43835;mix-blend-mode:normal;fill:url(#linearGradient38675);fill-opacity:1;stroke-width:6.1789;stroke-linecap:round;stroke-linejoin:round;paint-order:fill markers stroke"
       d="m 49.04045,43.798647 67.52705,67.527053 -2.36984,2.36984 -2.95536,0.54018 -66.319461,-66.319462 z"
       sodipodi:nodetypes="cccccc"
       transform="matrix(1.0893464,0,0,1.0893464,6.3838407,7.811452)" />
    <path
       id="path37907"
       style="display:inline;opacity:0.43835;mix-blend-mode:normal;fill:url(#linearGradient38677);fill-opacity:1;stroke-width:6.1789;stroke-linecap:round;stroke-linejoin:round;paint-order:fill markers stroke"
       d="m 49.040448,43.798646 67.527052,67.527054 -2.36984,2.36984 -2.95536,0.54018 -66.319463,-66.319464 z"
       sodipodi:nodetypes="cccccc"
       transform="matrix(1.0893464,0,0,1.0893464,6.3838407,7.811452)" />
    <rect
       style="display:inline;opacity:0.43835;fill:url(#linearGradient38679);fill-opacity:1;stroke:none;stroke-width:0.409995;stroke-linecap:round;stroke-linejoin:round;stroke-dasharray:none;stroke-opacity:1;paint-order:stroke markers fill"
       id="rect37927"
       width="15.032641"
       height="6.254118"
       x="65.647156"
       y="-9.9606323"
       transform="matrix(0.77028424,0.77028424,-0.77028424,0.77028424,6.3838407,7.811452)" />
    <rect
       style="display:inline;opacity:0.43835;fill:url(#linearGradient38681);fill-opacity:1;stroke:none;stroke-width:0.45916;stroke-linecap:round;stroke-linejoin:round;stroke-dasharray:none;stroke-opacity:1;paint-order:stroke markers fill"
       id="rect37929"
       width="15.032641"
       height="7.8439631"
       x="65.647156"
       y="2.1166687"
       transform="matrix(0.77028424,0.77028424,-0.77028424,0.77028424,6.3838407,7.811452)" />
    <path
       id="path37931"
       style="display:inline;mix-blend-mode:soft-light;fill:#ffffff;stroke-width:0.0388968;stroke-linecap:round;stroke-linejoin:round;paint-order:stroke markers fill"
       d="M 44.922837,47.916256 111.2423,114.23572 110.59009,113.67706 44.876062,47.963031 Z"
       sodipodi:nodetypes="ccccc"
       transform="matrix(1.0893464,0,0,1.0893464,6.3838407,7.811452)" />
    <g
       id="g5255"
       transform="matrix(0.77028424,0.77028424,-0.77028424,0.77028424,42.936425,-34.760442)"
       inkscape:label="font-reference"
       style="display:none">
      <text
         xml:space="preserve"
         style="font-style:normal;font-weight:normal;font-size:18.1108px;line-height:1.25;font-family:sans-serif;fill:#decd87;fill-opacity:1;stroke:none;stroke-width:0.855633;stroke-linecap:round;stroke-dasharray:none;stroke-opacity:1;paint-order:stroke markers fill"
         x="-67.837677"
         y="41.618046"
         id="text5241"
         transform="rotate(-90)"><tspan
           sodipodi:role="line"
           id="tspan5239"
           style="fill:#decd87;stroke:none;stroke-width:0.855633;stroke-linecap:round;stroke-dasharray:none;stroke-opacity:1;paint-order:stroke markers fill"
           x="-67.837677"
           y="41.618046">SSH</tspan></text>
      <text
         xml:space="preserve"
         style="font-style:normal;font-weight:normal;font-size:18.1108px;line-height:1.25;font-family:sans-serif;fill:#6c6753;fill-opacity:1;stroke:none;stroke-width:0.855633;stroke-linecap:round;stroke-dasharray:none;stroke-opacity:1;paint-order:stroke markers fill"
         x="-67.338051"
         y="41.654987"
         id="text5245"
         transform="rotate(-90)"><tspan
           sodipodi:role="line"
           id="tspan5243"
           style="fill:#6c6753;stroke:none;stroke-width:0.855633;stroke-linecap:round;stroke-dasharray:none;stroke-opacity:1;paint-order:stroke markers fill"
           x="-67.338051"
           y="41.654987">SSH</tspan></text>
      <text
         xml:space="preserve"
         style="font-style:normal;font-weight:normal;font-size:18.1108px;line-height:1.25;font-family:sans-serif;opacity:1;fill:#d3bc5f;fill-opacity:1;stroke:none;stroke-width:0.855633;stroke-linecap:round;stroke-dasharray:none;stroke-opacity:1;paint-order:stroke markers fill"
         x="-67.498093"
         y="41.618046"
         id="text5249"
         transform="rotate(-90)"><tspan
           sodipodi:role="line"
           id="tspan5247"
           style="fill:#d3bc5f;stroke:none;stroke-width:0.855633;stroke-linecap:round;stroke-dasharray:none;stroke-opacity:1;paint-order:stroke markers fill"
           x="-67.498093"
           y="41.618046">SSH</tspan></text>
      <text
         xml:space="preserve"
         style="font-style:normal;font-weight:normal;font-size:18.1108px;line-height:1.25;font-family:sans-serif;opacity:0.144968;fill:#484537;fill-opacity:1;stroke:none;stroke-width:0.855633;stroke-linecap:round;stroke-dasharray:none;stroke-opacity:1;paint-order:stroke markers fill"
         x="-67.498093"
         y="41.618046"
         id="text5253"
         transform="rotate(-90)"><tspan
           sodipodi:role="line"
           id="tspan5251"
           style="fill:#484537;stroke:none;stroke-width:0.855633;stroke-linecap:round;stroke-dasharray:none;stroke-opacity:1;paint-order:stroke markers fill"
           x="-67.498093"
           y="41.618046">SSH</tspan></text>
    </g>
    <g
       id="g12728"
       transform="matrix(0.77028424,0.77028424,-0.77028424,0.77028424,42.936425,-34.94753)"
       inkscape:label="font-reference"
       style="display:inline">
      <g
         aria-label="RSA"
         transform="rotate(-90)"
         id="text12807"
         style="font-size:18.1108px;line-height:1.25;display:inline;opacity:1;stroke-width:0.855633;stroke-linecap:round;paint-order:stroke markers fill"
         inkscape:label="dark">
        <path
           id="path17604"
           d="M -39.727415 28.589514 L -41.194618 28.589514 L -46.247312 41.575303 L -44.599308 41.574968 L -43.059985 37.572864 L -37.934502 37.572864 L -36.377066 41.574968 L -34.692834 41.575303 L -39.727415 28.589514 z M -40.488187 30.274081 C -40.439891 30.418967 -40.379494 30.630359 -40.30705 30.908058 C -40.222534 31.173683 -40.138312 31.433057 -40.053795 31.686608 C -39.969277 31.940159 -39.908879 32.115313 -39.872659 32.211903 L -38.423569 36.123774 L -42.516577 36.123774 L -41.049373 32.211903 C -40.97693 32.006647 -40.886669 31.729154 -40.778005 31.379012 C -40.66934 31.016796 -40.572704 30.64837 -40.488187 30.274081 z M -47.406248 29.187264 C -47.889202 28.969934 -48.426742 28.794781 -49.01836 28.661969 C -49.609979 28.529157 -50.261939 28.463054 -50.974296 28.463054 C -51.783244 28.463054 -52.501641 28.595594 -53.129481 28.861219 C -53.745247 29.126844 -54.228429 29.507349 -54.578571 30.002377 C -54.928713 30.485331 -55.103531 31.070853 -55.103531 31.759063 C -55.103531 32.761192 -54.826037 33.552066 -54.27064 34.131611 C -53.703168 34.711156 -52.870016 35.200042 -51.771295 35.598479 C -50.986495 35.876178 -50.376478 36.141928 -49.94182 36.395479 C -49.495087 36.636956 -49.181355 36.90237 -49.000247 37.192143 C -48.819139 37.481915 -48.728542 37.838261 -48.728542 38.260846 C -48.728542 38.900761 -48.976173 39.408101 -49.471201 39.78239 C -49.954155 40.15668 -50.678592 40.343577 -51.6445 40.343577 C -52.33271 40.343577 -53.002453 40.26506 -53.654441 40.1081 C -54.294355 39.95114 -54.831894 39.775986 -55.266553 39.582805 L -55.266553 41.140576 C -54.856042 41.333758 -54.342998 41.484417 -53.727231 41.593082 C -53.111464 41.701747 -52.441386 41.75644 -51.716954 41.75644 C -50.304314 41.75644 -49.181588 41.436332 -48.348492 40.796418 C -47.515395 40.156504 -47.098317 39.262953 -47.098317 38.115937 C -47.098317 37.439801 -47.237566 36.878439 -47.515265 36.431706 C -47.78089 35.984974 -48.179179 35.604804 -48.710429 35.290883 C -49.229604 34.964889 -49.86982 34.662901 -50.630473 34.385202 C -51.330757 34.119577 -51.885744 33.871947 -52.296255 33.642544 C -52.706766 33.413141 -53.002714 33.15343 -53.183822 32.863658 C -53.36493 32.573886 -53.455191 32.211835 -53.455191 31.777176 C -53.455191 31.209705 -53.250174 30.757058 -52.839663 30.41899 C -52.429153 30.068848 -51.819472 29.89336 -51.010523 29.89336 C -50.443052 29.89336 -49.899808 29.960132 -49.380633 30.092945 C -48.849383 30.225757 -48.360498 30.388495 -47.913765 30.581677 L -47.406248 29.187264 z M -58.308971 29.808829 C -58.393488 29.723558 -58.48442 29.643111 -58.58101 29.56765 C -59.341663 28.951884 -60.524787 28.643855 -62.130609 28.643855 L -65.698322 28.643855 L -65.698322 41.574968 L -64.068431 41.575303 L -64.068431 36.232456 L -61.496968 36.232456 L -58.363647 41.574968 L -56.461717 41.574968 L -60.011651 35.779616 C -59.576992 35.622655 -59.166288 35.411263 -58.779925 35.145639 C -58.381488 34.86794 -58.055676 34.49985 -57.802125 34.041043 C -57.548574 33.582237 -57.421739 33.008459 -57.421739 32.320249 C -57.421739 31.242658 -57.717351 30.405731 -58.308971 29.808829 z M -59.647366 30.782269 C -59.286353 31.142963 -59.10597 31.679927 -59.10597 32.393039 C -59.10597 33.201988 -59.347561 33.817373 -59.830515 34.239958 C -60.313469 34.650469 -61.080184 34.856156 -62.130609 34.856156 L -64.068431 34.855821 L -64.068431 30.056382 L -62.221177 30.056718 C -61.158678 30.056718 -60.373844 30.237575 -59.866742 30.599791 C -59.787507 30.6545 -59.71422 30.715474 -59.647366 30.782269 z " />
      </g>
      <g
         aria-label="RSA"
         transform="rotate(-90)"
         id="text12813"
         style="font-size:18.1108px;line-height:1.25;display:inline;opacity:0.144968;fill:#e3cfc6;stroke-width:0.855633;stroke-linecap:round;paint-order:stroke markers fill"
         inkscape:label="light">
        <path
           id="path16870"
           d="M -39.848843 28.710943 L -41.316046 28.710943 L -46.36874 41.696732 L -44.720736 41.696396 L -43.181414 37.694292 L -38.05593 37.694292 L -36.498494 41.696396 L -34.814263 41.696732 L -39.848843 28.710943 z M -40.609615 30.395509 C -40.56132 30.540396 -40.500922 30.751788 -40.428479 31.029486 C -40.343962 31.295111 -40.25974 31.554485 -40.175224 31.808036 C -40.090705 32.061587 -40.030307 32.23674 -39.994087 32.333331 L -38.544998 36.245203 L -42.638005 36.245203 L -41.170802 32.333331 C -41.098359 32.128076 -41.008097 31.850582 -40.899433 31.50044 C -40.790768 31.138225 -40.694132 30.769799 -40.609615 30.395509 z M -47.528012 29.309028 C -48.010966 29.091699 -48.54817 28.91621 -49.139789 28.783397 C -49.731407 28.650585 -50.383367 28.584483 -51.095724 28.584483 C -51.904673 28.584483 -52.62307 28.717022 -53.25091 28.982647 C -53.866676 29.248271 -54.349858 29.628777 -54.699999 30.123805 C -55.050142 30.606759 -55.224959 31.192281 -55.224959 31.880491 C -55.224959 32.882621 -54.947465 33.673494 -54.392068 34.25304 C -53.824596 34.832585 -52.991445 35.321471 -51.892724 35.719908 C -51.107923 35.997607 -50.497906 36.263356 -50.063248 36.516907 C -49.616515 36.758384 -49.302783 37.023799 -49.121675 37.313571 C -48.940567 37.603343 -48.849971 37.95969 -48.849971 38.382275 C -48.849971 39.022189 -49.097601 39.529529 -49.592629 39.903819 C -50.075583 40.278108 -50.80002 40.465005 -51.765928 40.465005 C -52.454138 40.465005 -53.124216 40.386824 -53.776205 40.229864 C -54.416119 40.072904 -54.953323 39.897415 -55.387982 39.704233 L -55.387982 41.262005 C -54.977471 41.455187 -54.464426 41.605845 -53.848659 41.71451 C -53.232893 41.823174 -52.562814 41.877868 -51.838383 41.877868 C -50.425742 41.877868 -49.303016 41.55776 -48.46992 40.917846 C -47.636824 40.277931 -47.22008 39.384717 -47.22008 38.237701 C -47.22008 37.561565 -47.358995 36.999867 -47.636694 36.553134 C -47.902319 36.106402 -48.300608 35.726232 -48.831857 35.412312 C -49.351033 35.086317 -49.991248 34.784329 -50.751901 34.506631 C -51.452184 34.241005 -52.007172 33.993375 -52.417683 33.763972 C -52.828194 33.534569 -53.124143 33.274859 -53.305251 32.985086 C -53.486358 32.695313 -53.576955 32.333598 -53.576955 31.89894 C -53.576955 31.331469 -53.371603 30.878486 -52.961092 30.540418 C -52.55058 30.190276 -51.941235 30.015123 -51.132287 30.015123 C -50.564816 30.015123 -50.021237 30.081561 -49.502061 30.214373 C -48.970812 30.347186 -48.481926 30.509924 -48.035193 30.703106 L -47.528012 29.309028 z M -58.430399 29.930258 C -58.514916 29.844986 -58.605848 29.76454 -58.702439 29.689078 C -59.463092 29.073312 -60.646215 28.765284 -62.252038 28.765284 L -65.81975 28.765284 L -65.81975 41.696396 L -64.18986 41.696732 L -64.18986 36.353884 L -61.618396 36.353884 L -58.485075 41.696396 L -56.583481 41.696732 L -60.133079 35.901044 C -59.698421 35.744084 -59.287717 35.532692 -58.901353 35.267067 C -58.502916 34.989369 -58.177104 34.621278 -57.923553 34.162472 C -57.670002 33.703665 -57.543167 33.129887 -57.543167 32.441678 C -57.543167 31.364086 -57.83878 30.527159 -58.430399 29.930258 z M -59.768794 30.903697 C -59.407781 31.264392 -59.227398 31.801356 -59.227398 32.514468 C -59.227398 33.323416 -59.468989 33.938801 -59.951943 34.361386 C -60.434897 34.771898 -61.201612 34.977585 -62.252038 34.977585 L -64.18986 34.977249 L -64.18986 30.177811 L -62.342606 30.178146 C -61.280107 30.178146 -60.495273 30.359004 -59.98817 30.721219 C -59.908936 30.775929 -59.835649 30.836902 -59.768794 30.903697 z " />
      </g>
      <g
         aria-label="RSA"
         transform="rotate(-90)"
         id="text12726"
         style="font-size:18.1108px;line-height:1.25;display:inline;opacity:1;fill:#412d21;stroke-width:0.855633;stroke-linecap:round;paint-order:stroke markers fill">
        <path
           id="path16136"
           d="M -39.770351 28.63245 L -41.237554 28.63245 L -46.290248 41.618239 L -44.642244 41.617904 L -43.102921 37.6158 L -37.977438 37.6158 L -36.420002 41.617904 L -34.73577 41.618239 L -39.770351 28.63245 z M -40.531123 30.317017 C -40.482827 30.461903 -40.42243 30.673295 -40.349986 30.950994 C -40.26547 31.216618 -40.181248 31.475993 -40.096731 31.729544 C -40.012213 31.983095 -39.951815 32.158249 -39.915595 32.254839 L -38.466505 36.16671 L -42.559513 36.16671 L -41.092309 32.254839 C -41.019866 32.049584 -40.929605 31.77209 -40.820941 31.421948 C -40.712276 31.059732 -40.61564 30.691307 -40.531123 30.317017 z M -47.449184 29.2302 C -47.932138 29.01287 -48.469678 28.837717 -49.061296 28.704905 C -49.652916 28.572092 -50.304875 28.50599 -51.017232 28.50599 C -51.82618 28.50599 -52.544577 28.63853 -53.172417 28.904155 C -53.788184 29.16978 -54.271365 29.550285 -54.621507 30.045313 C -54.971649 30.528267 -55.146467 31.113789 -55.146467 31.801999 C -55.146467 32.804129 -54.868973 33.595003 -54.313576 34.174547 C -53.746105 34.754092 -52.912952 35.242978 -51.814231 35.641415 C -51.029431 35.919114 -50.419414 36.184864 -49.984756 36.438415 C -49.538023 36.679892 -49.224291 36.945306 -49.043183 37.235079 C -48.862075 37.524851 -48.771478 37.881197 -48.771478 38.303782 C -48.771478 38.943697 -49.019109 39.451037 -49.514137 39.825326 C -49.997091 40.199615 -50.721528 40.386513 -51.687436 40.386513 C -52.375646 40.386513 -53.045389 40.307996 -53.697377 40.151036 C -54.337291 39.994076 -54.87483 39.818923 -55.309489 39.625741 L -55.309489 41.183512 C -54.898978 41.376694 -54.385934 41.527352 -53.770167 41.636018 C -53.1544 41.744682 -52.484322 41.799376 -51.75989 41.799376 C -50.34725 41.799376 -49.224524 41.479268 -48.391428 40.839354 C -47.558332 40.19944 -47.141253 39.305889 -47.141253 38.158873 C -47.141253 37.482737 -47.280503 36.921374 -47.558201 36.474642 C -47.823826 36.027909 -48.222115 35.64774 -48.753365 35.333819 C -49.27254 35.007826 -49.912755 34.705837 -50.673409 34.428138 C -51.373692 34.162514 -51.92868 33.914883 -52.339191 33.68548 C -52.749702 33.456077 -53.04565 33.196366 -53.226758 32.906594 C -53.407866 32.616822 -53.498127 32.254771 -53.498127 31.820112 C -53.498127 31.252641 -53.29311 30.799994 -52.882599 30.461926 C -52.472089 30.111784 -51.862408 29.936296 -51.053459 29.936296 C -50.485988 29.936296 -49.942745 30.003068 -49.423569 30.135881 C -48.892319 30.268693 -48.403433 30.431432 -47.956701 30.624613 L -47.449184 29.2302 z M -58.351907 29.851765 C -58.436424 29.766494 -58.527356 29.686047 -58.623946 29.610586 C -59.384599 28.994819 -60.567722 28.686791 -62.173545 28.686791 L -65.741258 28.686791 L -65.741258 41.617904 L -64.111367 41.618239 L -64.111367 36.275392 L -61.539904 36.275392 L -58.406583 41.617904 L -56.504653 41.617904 L -60.054587 35.822552 C -59.619928 35.665591 -59.209224 35.454199 -58.822861 35.188575 C -58.424423 34.910876 -58.098612 34.542786 -57.845061 34.083979 C -57.59151 33.625173 -57.464675 33.051395 -57.464675 32.363185 C -57.464675 31.285594 -57.760288 30.448667 -58.351907 29.851765 z M -59.690302 30.825205 C -59.329289 31.185899 -59.148906 31.722863 -59.148906 32.435975 C -59.148906 33.244924 -59.390497 33.860309 -59.873451 34.282894 C -60.356405 34.693405 -61.12312 34.899092 -62.173545 34.899092 L -64.111367 34.898757 L -64.111367 30.099318 L -62.264113 30.099654 C -61.201614 30.099654 -60.41678 30.280511 -59.909678 30.642727 C -59.830443 30.697436 -59.757156 30.75841 -59.690302 30.825205 z "
           style="fill:#422514;fill-opacity:1" />
      </g>
    </g>
  </g>
</svg>
