<?xml version="1.0" encoding="UTF-8" standalone="no"?>
<!-- Created with Inkscape (http://www.inkscape.org/) -->

<svg
   width="512"
   height="512"
   viewBox="0 0 135.46666 135.46667"
   version="1.1"
   id="svg5"
   inkscape:version="1.2.1 (9c6d41e410, 2022-07-14, custom)"
   sodipodi:docname="application-x-xpinstall.svg"
   xmlns:inkscape="http://www.inkscape.org/namespaces/inkscape"
   xmlns:sodipodi="http://sodipodi.sourceforge.net/DTD/sodipodi-0.dtd"
   xmlns:xlink="http://www.w3.org/1999/xlink"
   xmlns="http://www.w3.org/2000/svg"
   xmlns:svg="http://www.w3.org/2000/svg">
  <sodipodi:namedview
     id="namedview7"
     pagecolor="#505050"
     bordercolor="#ffffff"
     borderopacity="1"
     inkscape:showpageshadow="0"
     inkscape:pageopacity="0"
     inkscape:pagecheckerboard="1"
     inkscape:deskcolor="#505050"
     inkscape:document-units="mm"
     showgrid="false"
     showguides="true"
     inkscape:zoom="1.4467452"
     inkscape:cx="53.568519"
     inkscape:cy="283.39475"
     inkscape:window-width="3252"
     inkscape:window-height="1076"
     inkscape:window-x="1864"
     inkscape:window-y="0"
     inkscape:window-maximized="0"
     inkscape:current-layer="layer1" />
  <defs
     id="defs2">
    <linearGradient
       inkscape:collect="always"
       id="linearGradient22781">
      <stop
         style="stop-color:#ff6600;stop-opacity:1;"
         offset="0"
         id="stop22777" />
      <stop
         style="stop-color:#ffc200;stop-opacity:1;"
         offset="1"
         id="stop22779" />
    </linearGradient>
    <linearGradient
       inkscape:collect="always"
       id="linearGradient19843">
      <stop
         style="stop-color:#c4c4c4;stop-opacity:1;"
         offset="0"
         id="stop19839" />
      <stop
         style="stop-color:#808080;stop-opacity:1;"
         offset="1"
         id="stop19841" />
    </linearGradient>
    <linearGradient
       inkscape:collect="always"
       id="linearGradient19835">
      <stop
         style="stop-color:#cccccc;stop-opacity:1;"
         offset="0"
         id="stop19831" />
      <stop
         style="stop-color:#979797;stop-opacity:1;"
         offset="1"
         id="stop19833" />
    </linearGradient>
    <linearGradient
       inkscape:collect="always"
       id="linearGradient14406">
      <stop
         style="stop-color:#ffffff;stop-opacity:1;"
         offset="0"
         id="stop14404" />
      <stop
         style="stop-color:#4e4e4e;stop-opacity:1;"
         offset="1"
         id="stop14402" />
    </linearGradient>
    <linearGradient
       inkscape:collect="always"
       xlink:href="#linearGradient14406"
       id="linearGradient14408"
       x1="57.987877"
       y1="40.263439"
       x2="76.16423"
       y2="95.203224"
       gradientUnits="userSpaceOnUse" />
    <linearGradient
       inkscape:collect="always"
       xlink:href="#linearGradient14406"
       id="linearGradient14569"
       gradientUnits="userSpaceOnUse"
       x1="57.987877"
       y1="40.263439"
       x2="76.16423"
       y2="95.203224"
       gradientTransform="translate(-4.4816663e-4)" />
    <linearGradient
       inkscape:collect="always"
       xlink:href="#linearGradient14406"
       id="linearGradient19102"
       gradientUnits="userSpaceOnUse"
       gradientTransform="rotate(180,67.733069,67.733337)"
       x1="57.987877"
       y1="40.263439"
       x2="76.16423"
       y2="95.203224" />
    <linearGradient
       inkscape:collect="always"
       xlink:href="#linearGradient19835"
       id="linearGradient19837"
       x1="57.987877"
       y1="40.263439"
       x2="76.16423"
       y2="95.203224"
       gradientUnits="userSpaceOnUse" />
    <linearGradient
       inkscape:collect="always"
       xlink:href="#linearGradient19843"
       id="linearGradient19845"
       x1="37.607628"
       y1="0"
       x2="92.207886"
       y2="135.46666"
       gradientUnits="userSpaceOnUse" />
    <linearGradient
       inkscape:collect="always"
       xlink:href="#linearGradient22781"
       id="linearGradient22783"
       x1="23.206393"
       y1="67.733331"
       x2="112.26027"
       y2="67.733331"
       gradientUnits="userSpaceOnUse" />
    <clipPath
       clipPathUnits="userSpaceOnUse"
       id="clipPath2083">
      <path
         fill="currentColor"
         class="ColorScheme-Text"
         d="m -59.735424,124.0297 c -18.180812,-1.71213 -34.175573,-14.71578 -38.946923,-31.663595 -0.56651,-2.012534 -1.438883,-7.760158 -1.582353,-10.426983 -0.0231,-0.422405 -0.15777,-0.358666 -0.43103,0.204052 -0.70745,1.453605 -0.0652,-4.68889 0.833463,-7.962358 0.460902,-1.680588 0.768871,-3.122869 0.68431,-3.205144 -0.0841,-0.08204 -0.459438,0.372761 -0.832833,1.011 -0.63824,1.09094 -0.66285,1.099142 -0.41168,0.138845 0.682004,-2.607926 3.221345,-8.001148 4.975385,-10.566897 1.24724,-1.82426 1.93639,-3.278619 1.93639,-4.086201 0,-3.519676 2.13837,-9.128668 4.538059,-11.903369 l 1.218631,-1.409004 0.28861,2.022422 c 0.189328,1.326544 0.826508,2.796135 1.85224,4.271341 l 1.563618,2.248942 4.625372,0.246335 c 2.543948,0.134631 4.93776,0.378018 5.319578,0.539366 0.465942,0.197742 1.33895,-0.185118 2.65521,-1.16246 2.47564,-1.837515 5.959671,-2.866146 8.469204,-2.500177 l 1.855814,0.270737 -2.030627,1.560886 c -2.109049,1.621261 -4.705929,5.102862 -4.705929,6.309331 0,1.034986 1.240078,2.679845 2.480238,3.289541 0.601631,0.295769 2.274642,0.663273 3.717727,0.816837 1.443085,0.153567 3.207985,0.476888 3.921932,0.719016 1.122701,0.380547 1.2628,0.585229 1.036455,1.513557 -0.490353,2.011905 -1.76031,3.116704 -5.934067,5.162497 l -4.171085,2.044509 -0.0799,2.613205 c -0.0989,3.197736 -0.51875,3.721225 -2.04892,2.550687 -1.45487,-1.112817 -2.34624,-1.099984 -3.416099,0.05046 -2.48562,2.670805 -0.9521,6.097122 4.23735,9.467126 1.930069,1.253336 4.812789,1.415314 8.073996,0.45312 1.135324,-0.334897 3.066933,-0.610894 4.292592,-0.613421 3.478633,-0.0067 6.812055,2.005386 6.812055,4.112125 0,1.225566 -0.704083,1.67322 -2.081326,1.322962 -0.589857,-0.149355 -2.2952,0.452702 -4.937033,1.744959 -3.705635,1.812472 -4.332851,1.987912 -7.661796,2.142619 -1.994228,0.09256 -4.368678,-0.03159 -5.276707,-0.274733 -0.908132,-0.243805 -1.72012,-0.375917 -1.804691,-0.293666 -0.453329,0.440918 4.59726,4.594693 6.808348,5.599261 11.143546,5.06286 24.783934,-0.792234 28.405005,-12.192934 1.023832,-3.223321 1.125017,-8.497435 0.218565,-11.402497 -0.344361,-1.103982 -0.628137,-2.15175 -0.630661,-2.328333 -0.01561,-1.087993 5.037751,3.238209 7.01453,6.005319 1.756944,2.459469 1.501767,1.373241 -0.397801,-1.692994 -1.565934,-2.527615 -3.654605,-4.584285 -9.330698,-9.187368 -8.47907,-6.876193 -11.331162,-13.880203 -9.117899,-22.391288 1.182026,-4.545341 5.058857,-11.876318 6.27725,-11.869965 0.161981,7.94e-4 0.656545,0.8587 1.099773,1.906513 0.56819,1.343163 2.055873,3.09123 5.04472,5.927524 2.331397,2.21238 4.353968,4.022505 4.494599,4.022505 0.140943,0 0.533265,-0.965983 0.872577,-2.146728 l 0.616993,-2.146723 0.663064,2.082376 c 0.959461,3.012935 2.056715,4.931542 4.538885,7.935746 3.3489,4.053261 6.21961,8.335288 7.61362,11.356636 1.45907,3.162652 2.8918,7.935934 2.8918,9.635091 0,0.836192 0.16829,1.113449 0.58439,0.958411 1.32906,-0.496036 1.47127,5.472615 0.26589,11.153679 -0.55009,2.592589 -1.47127,5.153457 -2.79503,7.769143 -1.49274,2.949808 -1.99782,4.433613 -2.07018,6.081551 -0.13673,3.093436 -2.50979,7.626156 -5.24795,10.020206 -1.15573,1.01037 -3.565169,2.67469 -5.354536,3.69846 -1.78934,1.02384 -4.390556,2.93733 -5.780399,4.25235 -3.916543,3.70563 -8.364757,5.40801 -16.237921,6.21441 -4.35397,0.44597 -4.566479,0.44555 -9.481741,-0.0178 z"
         id="path2085"
         style="color:#ececec;display:inline;fill:url(#linearGradient2087);fill-opacity:1;stroke-width:5.56583"
         inkscape:label="fox" />
    </clipPath>
    <linearGradient
       inkscape:collect="always"
       xlink:href="#linearGradient22781"
       id="linearGradient2087"
       gradientUnits="userSpaceOnUse"
       gradientTransform="translate(-124.20394,12.120672)"
       x1="23.206393"
       y1="67.733331"
       x2="112.26027"
       y2="67.733331" />
    <filter
       inkscape:collect="always"
       style="color-interpolation-filters:sRGB"
       id="filter2089"
       x="-0.047999837"
       y="-0.048000165"
       width="1.0959997"
       height="1.0960003">
      <feGaussianBlur
         inkscape:collect="always"
         stdDeviation="1.7810697"
         id="feGaussianBlur2091" />
    </filter>
  </defs>
  <g
     inkscape:label="Layer 1"
     inkscape:groupmode="layer"
     id="layer1">
    <path
       id="path3364"
       style="opacity:1;fill:url(#linearGradient19845);stroke-width:0.230779;stroke-linecap:square;stroke-linejoin:round;paint-order:stroke fill markers;fill-opacity:1"
       d="M 67.997917 0 A 67.431772 67.431772 0 0 0 67.48632 0.01912028 L 58.181978 19.254639 L 41.531832 5.4596151 A 67.431772 67.431772 0 0 0 30.755745 11.249443 L 33.369539 32.803166 L 11.815816 30.189372 A 67.431772 67.431772 0 0 0 6.0259888 40.965458 L 19.821012 57.615605 L 0.58549398 66.919946 A 67.431772 67.431772 0 0 0 0.5663737 67.431543 A 67.431772 67.431772 0 0 0 1.6836182 79.409106 L 21.837944 85.8144 L 11.046871 103.45053 A 67.431772 67.431772 0 0 0 19.040698 113.77032 L 38.779545 108.44558 L 39.220862 128.39526 A 67.431772 67.431772 0 0 0 52.045919 132.9185 L 65.267334 118.32508 L 76.063574 134.33392 A 67.431772 67.431772 0 0 0 89.747493 131.21215 L 92.892004 112.31614 L 110.39585 119.84643 A 67.431772 67.431772 0 0 0 120.41281 109.82947 L 112.88252 92.325631 L 131.77852 89.18112 A 67.431772 67.431772 0 0 0 134.90029 75.497201 L 118.89145 64.70096 L 133.50658 51.459908 A 67.431772 67.431772 0 0 0 128.97817 38.655005 L 109.01195 38.213171 L 114.34134 18.456238 A 67.431772 67.431772 0 0 0 104.05928 10.454659 L 86.380774 21.27157 L 79.960494 1.0707357 A 67.431772 67.431772 0 0 0 67.997917 0 z M 67.733333 51.638192 A 16.095247 16.095247 0 0 1 83.828475 67.733333 A 16.095247 16.095247 0 0 1 67.733333 83.828475 A 16.095247 16.095247 0 0 1 51.638192 67.733333 A 16.095247 16.095247 0 0 1 67.733333 51.638192 z " />
    <path
       id="path3364-7"
       style="display:inline;fill:#999999;stroke-width:0.230779;stroke-linecap:square;stroke-linejoin:round;paint-order:stroke fill markers;opacity:0.5"
       d="m 59.665962,20.568298 c -0.82633,1.206893 -2.63708,0.748068 -3.4149,-0.272775 -4.97303,-4.119361 -9.94605,-8.238723 -14.91908,-12.3580844 -3.0546,1.355682 -6.00549,2.9438924 -8.82422,4.7382824 0.82374,6.885723 1.69147,13.76977 2.48775,20.656541 -0.13151,1.410613 -1.83985,1.939955 -3.02062,1.516972 -6.4337,-0.779843 -12.86741,-1.559686 -19.30111,-2.33953 -1.79261,2.820087 -3.3859197,5.768561 -4.7402397,8.82422 4.4007097,5.328961 8.8383297,10.632254 13.2159897,15.977243 0.65064,1.260299 -0.50756,2.624836 -1.72788,2.908107 -5.73171,2.773243 -11.4634297,5.546485 -17.1951397,8.319728 0.0461,3.43596 0.37081,6.880695 0.91602,10.296875 4.90358,1.502007 9.7909697,3.105257 14.6887197,4.64501 1.58307,0.544925 3.23375,0.944116 4.77457,1.58036 1.09349,0.792836 0.78808,2.433063 -0.037,3.305241 -3.19615,5.22352 -6.39229,10.447041 -9.58843,15.670562 1.98606,3.05084 4.19825,5.88576 6.63672,8.56836 6.30049,-1.68797 12.59283,-3.42182 18.89843,-5.08112 1.41825,-0.0702 2.18195,1.55065 1.9319,2.7807 0.13012,5.89051 0.26024,11.78101 0.39037,17.67151 3.49561,1.57181 7.02798,2.81452 10.73633,3.7793 4.21951,-4.64147 8.40831,-9.31587 12.64699,-13.93678 1.14968,-0.82294 2.6605,0.12244 3.11986,1.28336 3.17862,4.71325 6.35725,9.4265 9.53588,14.13974 3.93428,-0.54639 7.75584,-1.41758 11.51953,-2.63086 1.02295,-6.0302 1.97166,-12.07913 3.04102,-18.09765 0.57949,-1.26115 2.30648,-1.2454 3.30865,-0.53079 5.14256,2.21274 10.285118,4.42548 15.427668,6.63821 3.05633,-2.55961 5.88563,-5.38906 8.44532,-8.44531 -2.38316,-5.56808 -4.80983,-11.121731 -7.16579,-16.698831 -0.27106,-1.39411 1.22735,-2.377569 2.47927,-2.301967 5.55892,-0.925515 11.11783,-1.85103 16.67675,-2.776545 1.21342,-3.764304 2.08439,-7.585035 2.63086,-11.519532 -5.09639,-3.459776 -10.23924,-6.861318 -15.30664,-10.357421 -0.90275,-1.047472 -0.18359,-2.615236 0.88466,-3.227293 4.31904,-3.912517 8.63809,-7.825034 12.95714,-11.737551 -0.95508,-3.67034 -2.22416,-7.258597 -3.78516,-10.714844 -6.35244,-0.151243 -12.70967,-0.257751 -19.05912,-0.436936 -1.3692,-0.324655 -1.65228,-2.079373 -1.07889,-3.183049 1.58507,-5.874067 3.17013,-11.748135 4.7552,-17.622203 -2.68107,-2.447514 -5.50869,-4.657311 -8.53125,-6.642577 -5.638841,3.437934 -11.257928,6.91507 -16.909098,10.328534 -1.342,0.469113 -2.52011,-0.876555 -2.63095,-2.123058 -1.91178,-6.016408 -3.82356,-12.0328174 -5.73534,-18.0492264 -3.37862,-0.554727 -6.81974,-0.841661 -10.26367,-0.888672 -2.95703,6.114583 -5.91407,12.2291664 -8.8711,18.3437494 z m 8.19532,30.105469 c 5.8816,0.03405 11.65508,3.159667 14.80273,8.14543 3.38055,5.220359 3.71467,12.250393 0.77242,17.742175 -2.95925,5.72328 -9.24005,9.547428 -15.69468,9.462902 -6.26208,0.01965 -12.38702,-3.563016 -15.3914,-9.067182 -2.98184,-5.307318 -2.96411,-12.159516 0.12299,-17.418607 3.01947,-5.305048 8.93711,-8.804725 15.04797,-8.85237 0.11333,-0.0031 0.22659,-0.01214 0.33997,-0.01235 z" />
    <path
       id="path3364-7-3"
       style="display:inline;fill:#b3b3b3;stroke-width:0.230779;stroke-linecap:square;stroke-linejoin:round;paint-order:stroke fill markers;opacity:0.5"
       d="m 61.607422,21.525391 c -1.193142,2.264696 -4.564935,2.430098 -6.34826,0.792667 -2.28968,-2.069765 -4.745223,-3.963375 -7.100474,-5.963514 -2.371255,-1.966488 -4.742511,-3.932977 -7.113766,-5.899466 -2.135521,1.004823 -4.2232,2.113223 -6.236328,3.345703 0.771288,6.645402 1.704149,13.278534 2.304687,19.939453 -0.325664,2.532041 -3.316128,3.983762 -5.625,3.212891 -5.894531,-0.714193 -11.789062,-1.428385 -17.683593,-2.142578 -1.234063,2.023183 -2.376162,4.132022 -3.355469,6.236328 4.233519,5.154353 8.588314,10.219954 12.6875,15.484375 1.096916,2.307901 -0.638164,5.141548 -2.996094,5.744141 -5.240234,2.535807 -10.4804687,5.071614 -15.7207031,7.607421 0.078753,2.472324 0.3185989,4.9413 0.6640625,7.371094 6.1504066,1.951354 12.3225946,3.84089 18.4335936,5.910156 2.220279,1.186538 2.501591,4.4475 0.956876,6.289947 -3.037706,4.826421 -5.949969,9.730061 -8.966642,14.569431 1.531177,2.13846 3.107706,4.25724 4.859376,6.22656 6.08154,-1.61028 12.130715,-3.36678 18.255859,-4.80859 2.555767,-0.0346 4.418839,2.72134 3.980469,5.11914 0.118489,5.34765 0.236979,10.69531 0.355468,16.04297 2.586621,1.10464 5.245758,2.04115 7.955078,2.79687 4.077131,-4.46039 8.057548,-9.01653 12.253907,-13.36328 2.118843,-1.41087 5.168679,-0.11163 6.105469,2.12695 2.880208,4.27149 5.760416,8.54297 8.640624,12.81446 2.918304,-0.46791 5.811026,-1.11685 8.650391,-1.97657 1.027105,-5.8246 1.794512,-11.70393 3.060547,-17.48047 1.121587,-2.27196 4.349083,-2.67601 6.320312,-1.30859 4.626298,1.99089 9.252608,3.98177 13.878908,5.97266 2.24382,-1.9421 4.38735,-4.09988 6.35937,-6.35743 -2.27205,-5.35833 -4.68409,-10.662586 -6.79882,-16.083979 -0.40685,-2.536017 2.08047,-4.773243 4.52343,-4.667969 5.0306,-0.836589 10.0612,-1.673177 15.0918,-2.509766 0.86031,-2.837785 1.5147,-5.742976 1.97656,-8.652344 -4.90076,-3.38308 -9.97194,-6.528969 -14.72265,-10.11914 -1.57652,-1.966262 -0.61666,-5.059296 1.44726,-6.275391 3.9069,-3.540364 7.8138,-7.080729 11.72071,-10.621093 -0.76074,-2.702012 -1.69195,-5.356544 -2.80079,-7.935547 -6.10726,-0.17253 -12.22554,-0.169416 -18.32421,-0.513672 -2.44217,-0.68149 -3.45455,-3.809565 -2.39649,-5.982422 1.45052,-5.373698 2.90104,-10.747396 4.35156,-16.121094 -1.96517,-1.738671 -4.03844,-3.354925 -6.20312,-4.837891 -5.4412,3.285928 -10.795244,6.726444 -16.322268,9.863282 C 85.2791,26.130297 82.72268,23.992069 82.46875,21.568359 80.719401,16.061849 78.970052,10.555339 77.220703,5.0488281 74.776594,4.6977933 72.339195,4.4851087 69.882812,4.4160156 67.124349,10.119141 64.365885,15.822266 61.607422,21.525391 Z m 6.335937,27.066406 c 8.394191,-0.0074 16.495025,5.907994 18.798391,14.023241 2.200934,7.115634 0.04013,15.455814 -5.598598,20.39214 -5.158726,4.719392 -12.917255,6.491049 -19.552704,4.158261 -6.753565,-2.235457 -12.159913,-8.309658 -13.255597,-15.385536 -1.240591,-7.013036 1.571545,-14.663825 7.311474,-18.957199 3.485776,-2.710763 7.87432,-4.255255 12.297034,-4.230907 z" />
    <path
       id="path10345"
       style="display:inline;opacity:1;fill:url(#linearGradient19837);fill-opacity:1;stroke:url(#linearGradient14408);stroke-width:1.947;stroke-linecap:square;stroke-linejoin:round;stroke-dasharray:none;paint-order:stroke fill markers"
       d="M 67.733078,40.38694 A 27.346378,27.346378 0 0 0 40.386938,67.733591 27.346378,27.346378 0 0 0 67.733078,95.079726 27.346378,27.346378 0 0 0 95.079728,67.733591 27.346378,27.346378 0 0 0 67.733078,40.38694 Z m 0,11.262362 a 16.083935,16.083935 0 0 1 16.08429,16.084289 16.083935,16.083935 0 0 1 -16.08429,16.083775 16.083935,16.083935 0 0 1 -16.08378,-16.083775 16.083935,16.083935 0 0 1 16.08378,-16.084289 z" />
    <path
       style="color:#000000;display:inline;fill:url(#linearGradient14569);stroke-linecap:square;stroke-linejoin:round;-inkscape-stroke:none;paint-order:stroke fill markers"
       d="m 67.733333,39.413997 c -15.629104,1.37e-4 -28.320471,12.691209 -28.320311,28.320312 1.4e-4,15.628896 12.691415,28.318222 28.320311,28.31836 15.629102,1.55e-4 28.320173,-12.689258 28.320312,-28.31836 1.56e-4,-15.62931 -12.691002,-28.320468 -28.320312,-28.320312 z m 0,1.947265 C 82.310393,41.361117 94.106525,53.157249 94.10638,67.734309 94.10625,82.311175 82.310198,94.105548 67.733333,94.105403 53.156661,94.105275 41.360412,82.310981 41.360282,67.734309 41.360142,53.157442 53.156466,41.36139 67.733333,41.361262 Z"
       id="path14574"
       sodipodi:nodetypes="cssscsssss" />
    <path
       style="color:#000000;display:inline;fill:url(#linearGradient19102);stroke-linecap:square;stroke-linejoin:round;-inkscape-stroke:none;paint-order:stroke fill markers"
       d="m 67.732358,84.790953 c 9.4091,-1e-4 17.0588,-7.6495 17.05859,-17.0586 -9e-5,-9.40889 -7.6497,-17.05655 -17.05859,-17.05664 -9.4091,-2.1e-4 -17.05655,7.64754 -17.05664,17.05664 -2.1e-4,9.40931 7.64733,17.0588 17.05664,17.0586 z m 0,-1.94727 c -8.35705,1.8e-4 -15.10956,-6.75428 -15.10937,-15.11133 8e-5,-8.35686 6.75251,-15.10956 15.10937,-15.10937 8.35667,8e-5 15.11125,6.7527 15.11133,15.10937 1.8e-4,8.35686 -6.75447,15.11125 -15.11133,15.11133 z"
       id="path14574-7"
       sodipodi:nodetypes="cccccccccc" />
    <path
       fill="currentColor"
       class="ColorScheme-Text"
       d="M 64.468513,111.90902 C 46.287703,110.19689 30.29294,97.193245 25.52159,80.245433 24.955081,78.232899 24.082708,72.485276 23.93924,69.818449 c -0.02315,-0.422404 -0.157767,-0.358666 -0.431027,0.204054 -0.707449,1.453603 -0.06522,-4.688892 0.833454,-7.962358 0.460903,-1.680588 0.768873,-3.122871 0.684309,-3.205144 -0.08415,-0.08204 -0.459435,0.372761 -0.832827,1.011 -0.638239,1.090939 -0.662847,1.099142 -0.411676,0.138843 0.681994,-2.607924 3.221339,-8.001147 4.975381,-10.566895 1.247235,-1.82426 1.936384,-3.278621 1.936384,-4.086202 0,-3.519676 2.138375,-9.128669 4.538059,-11.903368 l 1.218631,-1.409006 0.288613,2.022422 c 0.189327,1.326544 0.826513,2.796135 1.852242,4.271342 l 1.563621,2.248941 4.625365,0.246335 c 2.543952,0.134631 4.937765,0.37802 5.319577,0.539367 0.465948,0.197742 1.338953,-0.185118 2.65521,-1.162461 2.475647,-1.837513 5.95967,-2.866144 8.469208,-2.500176 l 1.855814,0.270736 -2.030629,1.560888 c -2.109049,1.621261 -4.705929,5.102862 -4.705929,6.309331 0,1.034984 1.240083,2.679843 2.480237,3.28954 0.601633,0.295769 2.274644,0.663274 3.71773,0.816838 1.443085,0.153565 3.207985,0.476887 3.92193,0.719014 1.122703,0.380549 1.262802,0.585229 1.036456,1.513559 -0.490352,2.011904 -1.760311,3.116704 -5.934067,5.162497 l -4.171086,2.044509 -0.07994,2.613203 c -0.09887,3.197737 -0.518748,3.721226 -2.048923,2.550687 -1.454866,-1.112816 -2.346235,-1.099983 -3.416097,0.05046 -2.485615,2.670804 -0.952097,6.097121 4.23735,9.467124 1.930075,1.253338 4.81279,1.415315 8.073996,0.453121 1.135325,-0.334898 3.066933,-0.610894 4.292593,-0.61342 3.478632,-0.0067 6.812054,2.005384 6.812054,4.112123 0,1.225567 -0.704083,1.673222 -2.081325,1.322964 -0.589859,-0.149355 -2.295201,0.4527 -4.937034,1.744958 -3.705634,1.812474 -4.332852,1.987913 -7.661796,2.14262 -1.994228,0.09256 -4.368673,-0.03159 -5.276704,-0.274734 -0.908131,-0.243805 -1.720128,-0.375915 -1.804698,-0.293665 -0.453331,0.440918 4.59726,4.594692 6.808353,5.599258 11.143544,5.062859 24.783933,-0.792228 28.405003,-12.192933 1.023833,-3.22332 1.125018,-8.497435 0.218565,-11.402496 -0.344359,-1.103982 -0.628136,-2.151751 -0.630661,-2.328333 -0.01561,-1.087992 5.037752,3.238211 7.01453,6.005319 1.756946,2.45947 1.501767,1.373242 -0.397799,-1.692995 -1.565934,-2.527615 -3.654605,-4.584284 -9.330698,-9.187366 -8.479072,-6.876194 -11.331164,-13.880203 -9.117901,-22.39129 1.182027,-4.545339 5.058858,-11.876315 6.27725,-11.869963 0.161983,8.34e-4 0.656545,0.858699 1.099773,1.906513 0.568192,1.343163 2.055874,3.091231 5.044722,5.927524 2.331397,2.21238 4.353967,4.022505 4.494599,4.022505 0.140942,0 0.533265,-0.965984 0.872577,-2.146727 l 0.616993,-2.146724 0.663064,2.082375 c 0.959461,3.012935 2.056714,4.931543 4.538884,7.935748 3.3489,4.053259 6.21961,8.335287 7.61362,11.356635 1.45907,3.162652 2.8918,7.935934 2.8918,9.635091 0,0.83619 0.16829,1.113448 0.58439,0.95841 1.32906,-0.496034 1.47127,5.472616 0.26589,11.153681 -0.55009,2.592589 -1.47127,5.153455 -2.79503,7.769141 -1.49274,2.949809 -1.99782,4.433614 -2.07018,6.081557 -0.13673,3.09343 -2.50979,7.626149 -5.24795,10.020199 -1.15573,1.01037 -3.565169,2.674685 -5.354535,3.698455 -1.78934,1.02384 -4.390558,2.93733 -5.7804,4.25235 -3.916543,3.70563 -8.364758,5.40801 -16.237922,6.21441 -4.353969,0.44597 -4.566478,0.44555 -9.48174,-0.0178 z"
       id="path2024"
       style="color:#ececec;display:inline;fill:url(#linearGradient22783);fill-opacity:1;stroke-width:1;stroke:#000000;stroke-opacity:1;stroke-dasharray:none;stroke-linejoin:round;stroke-linecap:round;paint-order:stroke fill markers"
       inkscape:label="fox" />
    <path
       id="path2024-7"
       style="color:#ececec;display:inline;mix-blend-mode:overlay;fill:#000000;fill-opacity:1;stroke-width:5.56583;filter:url(#filter2089)"
       class="ColorScheme-Text"
       inkscape:label="fox"
       d="m -41.453823,35.32744 c -1.218391,-0.0064 -5.095111,7.324742 -6.277137,11.870077 -2.21326,8.511078 0.638727,15.515211 9.11779,22.391398 5.676087,4.603077 7.764764,6.659424 9.330697,9.187036 1.899564,3.066234 2.154853,4.152387 0.397908,1.69292 -1.976776,-2.767105 -7.030169,-7.093309 -7.014559,-6.005318 0.0025,0.176582 0.286094,1.224559 0.630453,2.32854 0.906452,2.905058 0.805757,8.179088 -0.218075,11.402405 -3.621066,11.400693 -17.261451,17.255902 -28.404984,12.193052 -2.211091,-1.004564 -7.261701,-5.158222 -6.80837,-5.59914 0.08457,-0.08225 0.896411,0.04972 1.804541,0.293522 0.90803,0.243144 3.282454,0.367479 5.27668,0.274919 3.328941,-0.154707 3.955918,-0.330549 7.661548,-2.143022 2.641831,-1.292256 4.347308,-1.893951 4.937167,-1.744596 1.37724,0.350258 2.081526,-0.09735 2.081526,-1.322917 0,-2.106736 -3.333359,-4.11911 -6.811987,-4.11241 -1.225659,0.0025 -3.157437,0.278502 -4.292761,0.613399 -3.261203,0.962193 -6.143853,0.800135 -8.073926,-0.453202 -5.189442,-3.37 -6.72308,-6.796321 -4.237468,-9.467123 1.069861,-1.150441 1.961465,-1.162941 3.416329,-0.05013 1.530174,1.170538 1.949584,0.646985 2.048454,-2.550748 l 0.0801,-2.613278 4.171321,-2.044319 c 4.173752,-2.045791 5.443653,-3.151091 5.934005,-5.162993 0.226346,-0.928329 0.08607,-1.132537 -1.036629,-1.513085 -0.713945,-0.242127 -2.478641,-0.565772 -3.921725,-0.719336 -1.443084,-0.153564 -3.11597,-0.520719 -3.717602,-0.816488 -1.240153,-0.609696 -2.480469,-2.254739 -2.480469,-3.289722 0,-1.206468 2.596609,-4.687916 4.705656,-6.309175 l 2.030884,-1.561145 -1.855701,-0.270785 c -2.509535,-0.365968 -5.993606,0.662595 -8.46925,2.500106 -1.316256,0.977342 -2.189188,1.360461 -2.655136,1.16272 -0.381811,-0.161347 -2.775622,-0.404871 -5.319571,-0.539502 l -4.625558,-0.246497 -1.563729,-2.248958 c -1.025728,-1.475206 -1.662756,-2.944515 -1.852083,-4.271057 l -0.288871,-2.022616 -1.218531,1.409216 c -2.399681,2.774697 -4.537707,8.383477 -4.537707,11.90315 0,0.80758 -0.689599,2.262314 -1.936833,4.086572 -1.75404,2.565746 -4.292894,7.958876 -4.974884,10.566797 -0.25117,0.960298 -0.2269,0.951928 0.41134,-0.13901 0.373389,-0.638238 0.748873,-1.092831 0.833023,-1.010791 0.08456,0.08227 -0.223294,1.524386 -0.684196,3.204973 -0.898657,3.273462 -1.540987,9.415906 -0.833537,7.962304 0.27326,-0.562719 0.40778,-0.626525 0.43098,-0.204122 0.14347,2.666825 1.015821,8.414739 1.58233,10.427271 4.771345,16.947798 20.766184,29.951058 38.946976,31.663188 v 10e-4 c 4.915257,0.46335 5.128144,0.46406 9.482109,0.0181 7.873156,-0.8064 12.321229,-2.50899 16.237768,-6.21461 1.389841,-1.31502 3.991188,-3.22862 5.780526,-4.25246 1.789364,-1.02376 4.198466,-2.68811 5.354195,-3.69848 2.738157,-2.39405 5.111529,-6.92663 5.248259,-10.02006 0.07236,-1.647938 0.577419,-3.131475 2.070158,-6.081281 1.323758,-2.615683 2.245088,-5.176965 2.795178,-7.769551 1.205379,-5.681059 1.062925,-11.649358 -0.266134,-11.153325 -0.416099,0.155038 -0.58446,-0.122408 -0.58446,-0.958597 0,-1.699156 -1.432745,-6.472422 -2.891813,-9.635071 -1.394009,-3.021345 -4.264593,-7.303158 -7.613489,-11.356413 -2.482168,-3.004202 -3.579281,-4.923018 -4.538741,-7.93595 l -0.663009,-2.08256 -0.617016,2.147156 c -0.339312,1.180742 -0.731874,2.146639 -0.872815,2.146639 -0.140632,0 -2.162905,-1.810116 -4.4943,-4.022494 -2.988845,-2.83629 -4.476978,-4.584641 -5.04517,-5.927803 -0.443227,-1.047813 -0.937691,-1.90551 -1.099674,-1.906344 z m -0.379305,2.121835 c 0.152972,-0.0031 0.260546,0.592327 0.42323,0.728637 1.621977,2.520194 3.860485,4.572576 6.03529,6.608899 1.206629,1.034887 2.293653,2.218106 3.583244,3.149679 0.797912,0.71528 2.044237,0.24706 2.460315,-0.657324 0.447007,1.022907 0.970789,2.012998 1.577681,2.950207 1.958591,2.788149 4.240628,5.385379 6.151046,8.147823 2.081442,2.890341 3.840133,6.046568 4.981091,9.482109 0.533626,1.692565 1.135247,3.398405 1.335319,5.166609 -0.01272,1.081812 0.26932,2.51988 1.470195,2.848922 0.26179,0.405097 0.155485,1.111796 0.222725,1.639177 0.09209,3.818721 -0.562333,7.662191 -1.768884,11.233939 -1.066467,3.244094 -3.235236,6.089052 -3.775997,9.506397 -0.09788,2.107161 -0.736356,4.159731 -1.776636,5.990841 -1.29648,2.60866 -3.628507,4.61235 -5.997049,6.11022 -2.836481,1.73538 -5.686222,3.48993 -8.152474,5.74022 -2.697513,2.68959 -6.299716,4.26713 -9.987505,5.04569 -3.307756,0.64676 -6.6007,1.06524 -9.985437,1.11724 -2.907987,-0.0624 -5.751417,-0.37587 -8.599475,-0.90227 -7.550322,-1.43722 -14.659671,-4.93465 -20.475236,-9.89603 -5.765254,-4.94463 -10.242285,-11.29855 -12.608532,-18.513598 -0.853149,-2.720942 -1.320049,-5.619138 -1.664498,-8.4677 -0.18041,-1.198479 -0.217756,-2.41262 -0.401526,-3.605981 -0.01528,-0.520148 -0.696774,-0.780969 -0.550354,-1.284676 0.23414,-2.271946 0.69617,-4.45351 1.26814,-6.668327 0.187819,-1.133779 0.887685,-2.466295 0.08527,-3.509864 0.496669,-1.213836 1.037565,-2.410264 1.629874,-3.580143 0.969079,-2.273409 2.578721,-4.185056 3.66696,-6.392891 0.777529,-1.36264 0.70255,-2.955048 0.95033,-4.456576 0.522949,-2.686935 1.54137,-5.298587 3.012219,-7.611421 0.792289,2.368694 2.390727,4.334122 3.787366,6.364986 3.182066,0.20764 6.351695,0.252947 9.518282,0.640787 1.137528,0.323436 2.399005,0.293338 3.442683,-0.32246 1.999458,-1.417024 4.156892,-2.797621 6.642489,-3.11919 -0.506019,0.477 -0.983084,0.985429 -1.431954,1.516703 -1.020469,1.295682 -2.100713,2.632817 -2.591573,4.231267 -0.447679,1.979051 0.931286,3.855285 2.438094,4.984708 2.507038,1.677147 5.691784,1.236437 8.472351,2.091862 0.05586,0.380012 -0.407048,0.872312 -0.693497,1.197343 -2.750868,2.231342 -6.172872,3.368342 -9.253699,5.050338 -0.07548,1.501976 -0.06113,3.008166 -0.172083,4.508252 -0.717099,-0.4424 -1.536454,-0.812289 -2.398303,-0.75551 -2.466968,0.349214 -4.21557,2.889321 -4.16357,5.300969 0.13652,2.855455 2.264787,5.099498 4.419885,6.741707 1.642928,1.433706 3.705718,2.415572 5.905066,2.513542 2.327458,0.247395 4.554242,-0.573262 6.805269,-0.995805 1.403099,-0.231628 2.944374,-0.313444 4.418852,0.103353 1.116369,0.373828 2.418992,0.885443 2.954342,2.009696 -0.902989,-0.232452 -1.820312,0.147969 -2.684591,0.381372 -2.934297,0.937981 -5.466362,3.005885 -8.600509,3.31556 -1.994238,0.189746 -4.023221,0.246245 -6.013069,-0.01137 -1.009039,-0.0752 -1.985305,-0.550298 -2.998784,-0.441834 -1.151548,0.168743 -1.824736,1.57405 -1.185457,2.564701 0.963619,1.520526 2.48727,2.574185 3.854028,3.708301 3.916707,3.223549 9.123414,4.602589 14.139189,4.305679 7.891712,-0.39632 15.529382,-5.135849 18.99884,-12.297956 2.007892,-4.182351 2.44401,-9.023145 1.681552,-13.567647 1.550697,1.399505 2.892257,3.010541 4.153751,4.670516 0.659108,1.29784 2.914067,0.988831 3.125391,-0.473356 0.0175,-1.160411 -0.668099,-2.21065 -1.223181,-3.194637 -2.034539,-3.592315 -5.157558,-6.371953 -8.327657,-8.94054 -3.808712,-3.062087 -7.694289,-6.382062 -9.753927,-10.927498 -1.915058,-3.964449 -1.730984,-8.622776 -0.382406,-12.729973 1.012929,-2.839754 2.215506,-5.557297 3.835942,-8.101831 0.06491,-0.17315 0.120575,-0.240799 0.171566,-0.241845 z"
       clip-path="url(#clipPath2083)"
       transform="translate(124.20418,-12.120508)" />
  </g>
</svg>
