<?xml version="1.0" encoding="UTF-8" standalone="no"?>
<!-- Created with Inkscape (http://www.inkscape.org/) -->

<svg
   width="512"
   height="512"
   viewBox="0 0 135.46666 135.46667"
   version="1.1"
   id="svg5"
   inkscape:version="1.3.2 (091e20ef0f, 2023-11-25, custom)"
   sodipodi:docname="application-x-godot-project.svg"
   xmlns:inkscape="http://www.inkscape.org/namespaces/inkscape"
   xmlns:sodipodi="http://sodipodi.sourceforge.net/DTD/sodipodi-0.dtd"
   xmlns:xlink="http://www.w3.org/1999/xlink"
   xmlns="http://www.w3.org/2000/svg"
   xmlns:svg="http://www.w3.org/2000/svg"
   xmlns:rdf="http://www.w3.org/1999/02/22-rdf-syntax-ns#"
   xmlns:cc="http://creativecommons.org/ns#"
   xmlns:dc="http://purl.org/dc/elements/1.1/">>
  <sodipodi:namedview
     id="namedview7"
     pagecolor="#292929"
     bordercolor="#666666"
     borderopacity="1"
     inkscape:showpageshadow="0"
     inkscape:pageopacity="0"
     inkscape:pagecheckerboard="1"
     inkscape:deskcolor="#1a1a1a"
     inkscape:document-units="px"
     showgrid="false"
     inkscape:zoom="0.65186406"
     inkscape:cx="3.8351554"
     inkscape:cy="39.885616"
     inkscape:window-width="3256"
     inkscape:window-height="1080"
     inkscape:window-x="1864"
     inkscape:window-y="0"
     inkscape:window-maximized="0"
     inkscape:current-layer="layer1" />
  <defs
     id="defs2">
    <linearGradient
       id="linearGradient71"
       inkscape:collect="always">
      <stop
         style="stop-color:#ffffff;stop-opacity:1;"
         offset="0"
         id="stop72" />
      <stop
         style="stop-color:#ffffff;stop-opacity:0;"
         offset="1"
         id="stop73" />
    </linearGradient>
    <linearGradient
       id="linearGradient70"
       inkscape:collect="always">
      <stop
         style="stop-color:#00aad4;stop-opacity:0;"
         offset="0"
         id="stop70" />
      <stop
         style="stop-color:#000101;stop-opacity:1;"
         offset="1"
         id="stop71" />
    </linearGradient>
    <linearGradient
       id="linearGradient37"
       inkscape:collect="always">
      <stop
         style="stop-color:#00aad4;stop-opacity:1;"
         offset="0"
         id="stop37" />
      <stop
         style="stop-color:#00738f;stop-opacity:1;"
         offset="1"
         id="stop38" />
    </linearGradient>
    <clipPath
       clipPathUnits="userSpaceOnUse"
       id="clipPath37">
      <path
         style="color:#000000;display:inline;fill:#00aad4;stroke-width:0.999998;stroke-linecap:square;stroke-linejoin:round;-inkscape-stroke:none;paint-order:stroke markers fill"
         d="m 237.09203,10.745457 c -37.408,-2.2e-5 -67.73322,22.802893 -67.73333,50.931774 0.0184,0.233164 0.0389,0.46623 0.0615,0.69918 h -0.0615 v 35.35495 c 0.15784,-0.04079 0.31935,-0.06572 0.48214,-0.07441 l 24.78815,2.698539 c 0.005,5.3e-4 0.01,10e-4 0.0145,0.002 l 0.0393,0.004 c 0.18468,0.021 0.36638,0.063 0.54157,0.12506 0.0262,0.01 0.0522,0.0196 0.078,0.03 0.17014,0.0659 0.33238,0.15071 0.48369,0.2527 0.0205,0.0131 0.0409,0.0266 0.061,0.0403 0.15608,0.11277 0.29831,0.24355 0.42375,0.38964 0.0176,0.0207 0.0348,0.0417 0.0517,0.063 0.1148,0.14254 0.21326,0.29751 0.29352,0.46199 0.011,0.0212 0.0216,0.0426 0.032,0.0641 0.0796,0.17696 0.13789,0.36274 0.17363,0.55345 0.003,0.0105 0.007,0.021 0.01,0.0315 l 2.3859,13.64516 20.73362,2.25774 2.30735,-13.19713 c 0.018,-0.0672 0.0388,-0.13355 0.0625,-0.19895 0.0213,-0.0826 0.0468,-0.16399 0.0765,-0.24391 0.0587,-0.15036 0.13206,-0.29455 0.21911,-0.43047 0.0381,-0.067 0.0793,-0.1322 0.1235,-0.19534 0.12134,-0.15449 0.26084,-0.29381 0.41548,-0.41496 0.0296,-0.0287 0.06,-0.0566 0.091,-0.0837 0.19466,-0.13801 0.40845,-0.24682 0.63459,-0.32298 0.0598,-0.0157 0.12009,-0.0292 0.18087,-0.0403 0.16918,-0.0456 0.34277,-0.073 0.51779,-0.0816 0.0299,-0.005 0.0599,-0.0102 0.0899,-0.0145 h 24.845 c 0.0301,0.004 0.06,0.009 0.0899,0.0145 0.17502,0.009 0.34862,0.0359 0.5178,0.0816 0.0608,0.0111 0.12111,0.0246 0.18087,0.0403 0.22656,0.0764 0.44071,0.18555 0.63562,0.32401 0.0283,0.0249 0.0561,0.0504 0.0832,0.0765 0.15743,0.12298 0.29921,0.26477 0.42219,0.4222 0.0442,0.0628 0.0854,0.12764 0.12351,0.1943 0.0871,0.13592 0.16044,0.28011 0.21911,0.43048 0.0299,0.0799 0.0556,0.16131 0.077,0.2439 0.0235,0.0654 0.0442,0.13179 0.062,0.19895 l 2.30994,13.19661 20.73103,-2.25774 2.389,-13.64464 c 0.004,-0.0133 0.008,-0.0266 0.0119,-0.0398 0.0176,-0.0654 0.038,-0.13005 0.061,-0.19378 0.0435,-0.16395 0.10397,-0.32293 0.18037,-0.47439 0.0417,-0.0745 0.0872,-0.14678 0.13642,-0.21653 0.0853,-0.12877 0.18249,-0.2492 0.29043,-0.35966 0.0602,-0.0619 0.12372,-0.12052 0.19016,-0.1757 0.12448,-0.1 0.25844,-0.18757 0.39997,-0.26149 0.0676,-0.0395 0.13714,-0.0757 0.20825,-0.10852 0.17922,-0.0725 0.36639,-0.12348 0.55761,-0.15193 0.0361,-0.0108 0.0725,-0.0208 0.10901,-0.03 l 0.047,-0.005 v -0.001 l 24.79537,-2.699567 c 0.16227,0.0088 0.32326,0.03372 0.48059,0.07441 V 62.376467 h -0.061 c 0.0225,-0.232953 0.0428,-0.466016 0.061,-0.69918 -1.2e-4,-28.128338 -30.3241,-50.931005 -67.7313,-50.93183 z M 169.3587,102.52848 v 12.82713 h 0.003 l -0.003,0.0134 c -2e-4,16.67579 30.32543,30.19418 67.73385,30.19404 37.40802,-1.1e-4 67.73302,-13.51843 67.73282,-30.19403 v -0.0134 0 -12.82713 l -22.96398,2.50063 -2.389,13.64568 c -0.001,0.003 -0.002,0.006 -0.003,0.009 -0.0743,0.41667 -0.25541,0.80694 -0.52557,1.13275 -0.003,0.004 -0.006,0.008 -0.009,0.0114 -0.13573,0.16209 -0.29188,0.30591 -0.46455,0.42788 v 5.3e-4 c -0.17108,0.11944 -0.35673,0.21652 -0.55243,0.28888 -0.008,0.004 -0.0169,0.007 -0.0254,0.0108 -0.18218,0.0665 -0.3716,0.11105 -0.5643,0.13281 l -24.84397,2.70319 c -0.0511,-10e-4 -0.10207,-0.004 -0.15296,-0.008 -0.16662,0.009 -0.33371,8e-4 -0.49868,-0.0243 -0.0808,-0.0137 -0.16079,-0.0315 -0.23978,-0.0532 -0.15329,-0.0419 -0.30213,-0.0987 -0.44442,-0.1695 -0.0751,-0.0343 -0.14838,-0.0725 -0.21962,-0.11421 -0.14245,-0.0921 -0.27494,-0.1988 -0.39533,-0.31832 -0.052,-0.044 -0.1022,-0.0903 -0.15038,-0.1385 -0.15696,-0.17746 -0.28734,-0.37677 -0.38705,-0.59169 -0.013,-0.0378 -0.0251,-0.0759 -0.0362,-0.11421 -0.0664,-0.15427 -0.11683,-0.31496 -0.15037,-0.47955 l -2.35077,-13.43277 h -20.73155 l -2.34817,13.43328 c -0.0353,0.18413 -0.0917,0.36359 -0.16795,0.53486 -0.005,0.0173 -0.0105,0.0345 -0.016,0.0517 -0.10127,0.22019 -0.23467,0.42413 -0.39584,0.60513 -0.0397,0.0391 -0.0807,0.0769 -0.123,0.11317 -0.12932,0.13005 -0.27285,0.24515 -0.42788,0.34314 -0.0644,0.0374 -0.13041,0.0719 -0.19792,0.10335 -0.14832,0.0743 -0.3038,0.13335 -0.46405,0.17621 -0.0751,0.0207 -0.15117,0.0378 -0.2279,0.0512 -0.16767,0.0258 -0.33756,0.0341 -0.50695,0.0248 -0.0497,0.004 -0.0995,0.007 -0.14934,0.008 l -24.84239,-2.70269 c -0.0448,-0.0108 -0.0892,-0.0229 -0.13333,-0.0362 -0.18215,-0.0282 -0.36053,-0.0769 -0.53174,-0.14521 -0.074,-0.0341 -0.14629,-0.0719 -0.21653,-0.11317 -0.13828,-0.0728 -0.26928,-0.15859 -0.39119,-0.25632 -0.0681,-0.056 -0.13315,-0.11573 -0.19482,-0.1788 -0.10866,-0.11153 -0.20643,-0.23318 -0.29197,-0.36328 -0.0476,-0.0672 -0.0917,-0.13666 -0.13229,-0.20826 -0.081,-0.15884 -0.14445,-0.32606 -0.18914,-0.49868 -0.0196,-0.0557 -0.0372,-0.11204 -0.0527,-0.16898 -0.005,-0.015 -0.009,-0.03 -0.0139,-0.045 l -2.389,-13.64568 z"
         id="path37"
         sodipodi:nodetypes="sccccccccccccccccccccccccccccccccccccccccccccccccccccccccccccccssccccsscccccccccccccccccccccccccccccccccccccccccccccccccc" />
    </clipPath>
    <clipPath
       clipPathUnits="userSpaceOnUse"
       id="clipPath40">
      <path
         id="path41"
         style="display:inline;fill:url(#linearGradient41);stroke-width:2.01083;stroke-linecap:round;stroke-linejoin:round;paint-order:markers stroke fill"
         d="M 67.733332,0.32452799 A 67.733277,50.931923 0 0 0 0,51.256302 67.733277,50.931923 0 0 0 0.06149495,51.955485 H 0 v 35.354948 a 2.4481909,2.4481909 0 0 1 0.4821411,-0.07441 l 24.7881509,2.698541 a 2.4481909,2.4481909 0 0 1 0.01447,0.0021 l 0.03927,0.0041 a 2.4481909,2.4481909 0 0 1 0.541569,0.125058 2.4481909,2.4481909 0 0 1 0.07803,0.02997 2.4481909,2.4481909 0 0 1 0.483691,0.252696 2.4481909,2.4481909 0 0 1 0.06098,0.04031 2.4481909,2.4481909 0 0 1 0.423746,0.389638 2.4481909,2.4481909 0 0 1 0.05168,0.06305 2.4481909,2.4481909 0 0 1 0.29352,0.461989 2.4481909,2.4481909 0 0 1 0.03204,0.06408 2.4481909,2.4481909 0 0 1 0.173633,0.553453 2.4481909,2.4481909 0 0 1 0.0098,0.03152 l 2.385901,13.645162 20.733618,2.25774 2.307352,-13.197122 a 2.4481909,2.4481909 0 0 1 0.06253,-0.198956 2.4481909,2.4481909 0 0 1 0.07648,-0.243911 2.4481909,2.4481909 0 0 1 0.219106,-0.430467 2.4481909,2.4481909 0 0 1 0.123508,-0.195336 2.4481909,2.4481909 0 0 1 0.415478,-0.414962 2.4481909,2.4481909 0 0 1 0.09095,-0.08371 2.4481909,2.4481909 0 0 1 0.634587,-0.32298 2.4481909,2.4481909 0 0 1 0.180867,-0.04031 2.4481909,2.4481909 0 0 1 0.517797,-0.08165 2.4481909,2.4481909 0 0 1 0.08992,-0.01447 h 24.845007 a 2.4481909,2.4481909 0 0 1 0.08992,0.01447 2.4481909,2.4481909 0 0 1 0.517798,0.08165 2.4481909,2.4481909 0 0 1 0.180866,0.04031 2.4481909,2.4481909 0 0 1 0.635619,0.324012 2.4481909,2.4481909 0 0 1 0.0832,0.07648 2.4481909,2.4481909 0 0 1 0.422198,0.422199 2.4481909,2.4481909 0 0 1 0.123505,0.194302 2.4481909,2.4481909 0 0 1 0.21911,0.430463 2.4481909,2.4481909 0 0 1 0.077,0.243915 2.4481909,2.4481909 0 0 1 0.06201,0.198953 l 2.309937,13.19661 20.731035,-2.25774 2.389,-13.644647 a 2.4481909,2.4481909 0 0 1 0.0119,-0.03979 2.4481909,2.4481909 0 0 1 0.061,-0.193786 2.4481909,2.4481909 0 0 1 0.18035,-0.47439 2.4481909,2.4481909 0 0 1 0.13642,-0.216524 2.4481909,2.4481909 0 0 1 0.29043,-0.35967 2.4481909,2.4481909 0 0 1 0.19017,-0.175696 2.4481909,2.4481909 0 0 1 0.39997,-0.261485 2.4481909,2.4481909 0 0 1 0.20826,-0.108519 2.4481909,2.4481909 0 0 1 0.55759,-0.151929 2.4481909,2.4481909 0 0 1 0.10903,-0.02997 l 0.047,-0.0047 a 2.4481909,2.4481909 0 0 1 0.001,-0.0011 l 24.79539,-2.699575 a 2.4481909,2.4481909 0 0 1 0.4806,0.07441 V 51.955437 h -0.061 a 67.733277,50.931923 0 0 0 0.061,-0.699182 A 67.733277,50.931923 0 0 0 67.733848,0.32452799 Z M 28.468029,41.729752 A 14.735902,14.735902 0 0 1 43.203563,56.465803 14.735902,14.735902 0 0 1 28.468029,71.201856 14.735902,14.735902 0 0 1 13.731978,56.465803 14.735902,14.735902 0 0 1 28.468029,41.729752 Z m 78.419501,0.10387 a 14.735902,14.735902 0 0 1 14.73605,14.736051 14.735902,14.735902 0 0 1 -14.73605,14.73605 14.735902,14.735902 0 0 1 -14.735532,-14.73605 14.735902,14.735902 0 0 1 14.735532,-14.736051 z m -39.154198,5.894729 c 4.764024,0 8.599475,3.834937 8.599475,8.598961 v 17.226854 c 0,4.764021 -3.835451,8.598958 -8.599475,8.598958 -4.764021,0 -8.599474,-3.834937 -8.599474,-8.598958 V 56.327312 c 0,-4.764024 3.835453,-8.598961 8.599474,-8.598961 z M 0,92.107556 V 104.93468 H 0.00258382 A 67.733277,30.193871 0 0 0 0,104.94811 a 67.733277,30.193871 0 0 0 67.733848,30.19403 67.733277,30.193871 0 0 0 67.732812,-30.19403 67.733277,30.193871 0 0 0 -5.3e-4,-0.0134 h 5.3e-4 V 92.107543 l -22.96397,2.500622 -2.389,13.645685 a 2.4481909,2.4481909 0 0 1 -0.003,0.009 2.4481909,2.4481909 0 0 1 -0.52555,1.13275 2.4481909,2.4481909 0 0 1 -0.009,0.0114 2.4481909,2.4481909 0 0 1 -0.46457,0.42788 2.4481909,2.4481909 0 0 0 -5.3e-4,5.3e-4 2.4481909,2.4481909 0 0 1 -0.55242,0.28888 2.4481909,2.4481909 0 0 1 -0.0253,0.0108 2.4481909,2.4481909 0 0 1 -0.56431,0.13281 l -24.843962,2.70319 a 2.4481909,2.4481909 0 0 1 -0.152961,-0.008 2.4481909,2.4481909 0 0 1 -0.498678,-0.0243 2.4481909,2.4481909 0 0 1 -0.239779,-0.0532 2.4481909,2.4481909 0 0 1 -0.444418,-0.1695 2.4481909,2.4481909 0 0 1 -0.219625,-0.11421 2.4481909,2.4481909 0 0 1 -0.395322,-0.31832 2.4481909,2.4481909 0 0 1 -0.150379,-0.1385 2.4481909,2.4481909 0 0 1 -0.387056,-0.59169 2.4481909,2.4481909 0 0 1 -0.03617,-0.11421 2.4481909,2.4481909 0 0 1 -0.150379,-0.47955 L 78.099115,97.526368 H 57.367566 l -2.348177,13.433282 a 2.4481909,2.4481909 0 0 1 -0.167949,0.53486 2.4481909,2.4481909 0 0 1 -0.01603,0.0517 2.4481909,2.4481909 0 0 1 -0.395841,0.60513 2.4481909,2.4481909 0 0 1 -0.122989,0.11317 2.4481909,2.4481909 0 0 1 -0.427881,0.34314 2.4481909,2.4481909 0 0 1 -0.197922,0.10335 2.4481909,2.4481909 0 0 1 -0.464052,0.17621 2.4481909,2.4481909 0 0 1 -0.227894,0.0512 2.4481909,2.4481909 0 0 1 -0.506947,0.0248 2.4481909,2.4481909 0 0 1 -0.149344,0.008 L 27.500641,110.2682 a 2.4481909,2.4481909 0 0 1 -0.133324,-0.0362 2.4481909,2.4481909 0 0 1 -0.531752,-0.14521 2.4481909,2.4481909 0 0 1 -0.216524,-0.11317 2.4481909,2.4481909 0 0 1 -0.39119,-0.25632 2.4481909,2.4481909 0 0 1 -0.19482,-0.1788 2.4481909,2.4481909 0 0 1 -0.291972,-0.36328 2.4481909,2.4481909 0 0 1 -0.132292,-0.20826 2.4481909,2.4481909 0 0 1 -0.189135,-0.49868 2.4481909,2.4481909 0 0 1 -0.05271,-0.16898 2.4481909,2.4481909 0 0 1 -0.01395,-0.045 l -2.389,-13.645606 z" />
    </clipPath>
    <linearGradient
       inkscape:collect="always"
       xlink:href="#linearGradient37"
       id="linearGradient41"
       gradientUnits="userSpaceOnUse"
       x1="66.070076"
       y1="0.33988512"
       x2="67.708061"
       y2="135.14214" />
    <clipPath
       clipPathUnits="userSpaceOnUse"
       id="clipPath57">
      <path
         id="path57"
         style="color:#000000;display:inline;fill:#00aad4;stroke-width:0.999998;stroke-linecap:round;stroke-linejoin:round;-inkscape-stroke:none;paint-order:markers stroke fill"
         d="m 350.82588,-67.73283 c -1.5059,0.01463 -3.7202,0.558856 -7.23315,1.502752 v 0 c -5.10921,1.365228 -7.41934,2.089634 -8.30027,3.426147 -0.51737,0.630849 -0.6268,1.339596 -0.45008,2.220537 l 1.98334,9.888283 c -6.14095,2.495675 -11.68175,5.748184 -16.39179,9.622153 l -6.94428,-5.108731 c -0.54221,-0.398947 -1.06468,-0.611392 -1.6252,-0.607717 -0.18685,0.0013 -0.37785,0.02669 -0.57518,0.077 -1.58427,0.232169 -3.21691,2.019599 -6.61508,6.075079 -3.40217,4.048853 -4.87881,5.966905 -4.83381,7.56698 -0.062,0.813536 0.25482,1.457116 0.90485,2.077395 l 6.8068,6.495209 c -2.18924,4.803523 -3.32748,9.842345 -3.37031,14.9200197 0.0169,0.214897 0.0359,0.4297042 0.0568,0.6444049 h -0.0568 v 26.4216434 6.162414 16.242935 h 0.003 l -0.003,0.01241 c 8e-5,15.368683 27.94889,27.827412 62.42513,27.827242 34.47581,-7.9e-5 62.42399,-12.458739 62.42407,-27.827242 v -0.01241 0 -22.405349 0 -26.4216453 h -0.0558 c 0.0206,-0.2147019 0.039,-0.4295089 0.0558,-0.6444051 -0.0471,-5.1908006 -1.23891,-10.3397936 -3.52692,-15.2373126 l 6.96391,-6.645073 c 0.65003,-0.620276 0.96687,-1.263856 0.90487,-2.077392 0.045,-1.600075 -1.43219,-3.518127 -4.83433,-7.56698 -3.39818,-4.05548 -5.03081,-5.84291 -6.61511,-6.075082 -0.19733,-0.05031 -0.38831,-0.07526 -0.57515,-0.07648 -0.56052,-0.0037 -1.08302,0.208253 -1.62523,0.6072 l -7.25848,5.340241 c -4.41499,-3.58817 -9.54807,-6.635768 -15.21404,-9.032523 l 2.05412,-10.242269 c 0.17669,-0.880941 0.0673,-1.589685 -0.45011,-2.220537 -0.8809,-1.336513 -3.19106,-2.060916 -8.30027,-3.426145 v 0 c -3.51295,-0.943898 -5.72725,-1.488114 -7.23315,-1.502751 -0.68448,-0.0066 -1.22248,0.09585 -1.66966,0.320392 -0.76202,0.287903 -1.21097,0.846714 -1.49809,1.697056 l -3.34037,9.8919 c -3.37066,-0.441232 -6.78384,-0.673354 -10.20506,-0.694013 v 0 c -3.12068,0.0077 -6.2362,0.191291 -9.32037,0.54932 l -3.29179,-9.747207 c -0.28715,-0.850342 -0.73607,-1.409153 -1.49809,-1.697056 -0.44717,-0.224539 -0.98518,-0.327046 -1.66966,-0.320395 z" />
    </clipPath>
    <clipPath
       clipPathUnits="userSpaceOnUse"
       id="clipPath61">
      <path
         id="path62"
         style="display:inline;fill:#00aad4;fill-opacity:1;stroke-width:2.01083;stroke-linecap:round;stroke-linejoin:round;paint-order:markers stroke fill"
         d="m -106.89589,5.7831399 c -1.50587,0.014639 -3.7202,0.5588551 -7.23315,1.5027511 v 0 c -5.10921,1.3652309 -7.41936,2.0896309 -8.30027,3.426148 -0.51739,0.630851 -0.6268,1.339593 -0.45011,2.220536 l 1.98335,9.888284 a 62.424431,46.939943 0 0 0 -16.39176,9.622153 l -6.94428,-5.108731 c -0.54224,-0.398949 -1.06471,-0.611391 -1.62523,-0.607716 -0.18685,0.0013 -0.37783,0.02669 -0.57518,0.077 -1.58427,0.232172 -3.21691,2.019599 -6.61509,6.075082 -3.40217,4.048855 -4.87881,5.966902 -4.8338,7.56698 -0.062,0.813538 0.25482,1.457116 0.90485,2.077395 l 6.8068,6.495208 a 62.424431,46.939943 0 0 0 -3.37031,14.920021 62.424431,46.939943 0 0 0 0.0568,0.644403 h -0.0568 v 32.584051 a 2.2563048,2.2563048 0 0 1 0.44439,-0.0687 l 22.84513,2.487189 a 2.2563048,2.2563048 0 0 1 0.0135,0.0021 l 0.0362,0.004 a 2.2563048,2.2563048 0 0 1 0.4992,0.115239 2.2563048,2.2563048 0 0 1 0.0718,0.0274 2.2563048,2.2563048 0 0 1 0.44595,0.233061 2.2563048,2.2563048 0 0 1 0.0563,0.0372 2.2563048,2.2563048 0 0 1 0.39016,0.35915 2.2563048,2.2563048 0 0 1 0.0481,0.0579 2.2563048,2.2563048 0 0 1 0.27027,0.42581 2.2563048,2.2563048 0 0 1 0.0295,0.0589 2.2563048,2.2563048 0 0 1 0.16017,0.51006 2.2563048,2.2563048 0 0 1 0.009,0.0294 l 2.19882,12.57547 19.10889,2.08101 2.12651,-12.16309 a 2.2563048,2.2563048 0 0 1 0.0574,-0.18344 2.2563048,2.2563048 0 0 1 0.0708,-0.22479 2.2563048,2.2563048 0 0 1 0.20154,-0.39636 2.2563048,2.2563048 0 0 1 0.11422,-0.18036 2.2563048,2.2563048 0 0 1 0.3829,-0.3824 2.2563048,2.2563048 0 0 1 0.0837,-0.077 2.2563048,2.2563048 0 0 1 0.58496,-0.29765 2.2563048,2.2563048 0 0 1 0.1664,-0.0372 2.2563048,2.2563048 0 0 1 0.47749,-0.0755 2.2563048,2.2563048 0 0 1 0.0827,-0.0129 h 22.89783 a 2.2563048,2.2563048 0 0 1 0.0827,0.0129 2.2563048,2.2563048 0 0 1 0.477502,0.0755 2.2563048,2.2563048 0 0 1 0.166388,0.0372 2.2563048,2.2563048 0 0 1 0.586031,0.29868 2.2563048,2.2563048 0 0 1 0.0765,0.0703 2.2563048,2.2563048 0 0 1 0.38912,0.38913 2.2563048,2.2563048 0 0 1 0.113692,0.17932 2.2563048,2.2563048 0 0 1 0.202038,0.39636 2.2563048,2.2563048 0 0 1 0.0708,0.22479 2.2563048,2.2563048 0 0 1 0.0574,0.18345 l 2.129049,12.16256 19.105821,-2.08102 2.201918,-12.57495 a 2.2563048,2.2563048 0 0 1 0.0109,-0.0367 2.2563048,2.2563048 0 0 1 0.0563,-0.17879 2.2563048,2.2563048 0 0 1 0.166399,-0.43718 2.2563048,2.2563048 0 0 1 0.12559,-0.19947 2.2563048,2.2563048 0 0 1 0.267681,-0.33177 2.2563048,2.2563048 0 0 1 0.175178,-0.16174 2.2563048,2.2563048 0 0 1 0.368462,-0.24081 2.2563048,2.2563048 0 0 1 0.192219,-0.10025 2.2563048,2.2563048 0 0 1 0.51366,-0.14005 2.2563048,2.2563048 0 0 1 0.10078,-0.0274 l 0.0434,-0.005 a 2.2563048,2.2563048 0 0 1 0,-5.3e-4 L -29.1349,97.097515 a 2.2563048,2.2563048 0 0 1 0.442859,0.0687 V 64.582743 h -0.0563 a 62.424431,46.939943 0 0 0 0.0563,-0.644406 62.424431,46.939943 0 0 0 -3.526919,-15.237309 l 6.96394,-6.645074 c 0.650019,-0.620281 0.966839,-1.263856 0.904839,-2.077394 0.045,-1.600076 -1.43216,-3.518125 -4.834329,-7.566978 -3.398181,-4.055488 -5.030811,-5.842915 -6.615109,-6.075083 -0.197332,-0.05031 -0.388311,-0.07526 -0.575152,-0.07648 C -36.93529,26.256318 -37.45779,26.468271 -38,26.86722 l -7.25845,5.340239 a 62.424431,46.939943 0 0 0 -15.21407,-9.032522 l 2.05414,-10.242269 c 0.176689,-0.880944 0.0673,-1.589686 -0.450101,-2.220537 -0.88093,-1.336513 -3.19106,-2.060916 -8.30027,-3.426148 v 0 c -3.512961,-0.9438949 -5.72725,-1.4881129 -7.233129,-1.5027489 -0.684501,-0.0067 -1.22251,0.09585 -1.66968,0.320393 -0.762031,0.2879029 -1.21095,0.846714 -1.4981,1.697056 l -3.340362,9.8918999 A 62.424431,46.939943 0 0 0 -91.11508,16.99857 v 0 a 62.424431,46.939943 0 0 0 -9.32035,0.54932 l -3.29178,-9.7472069 c -0.28715,-0.850342 -0.7361,-1.4091531 -1.49813,-1.697056 -0.44714,-0.2245421 -0.98515,-0.3270462 -1.66965,-0.320393 z M -127.30394,55.15842 a 13.58092,13.58092 0 0 1 13.58056,13.581083 13.58092,13.58092 0 0 1 -13.58056,13.581081 13.58092,13.58092 0 0 1 -13.58056,-13.581081 13.58092,13.58092 0 0 1 13.58056,-13.581083 z m 72.27311,0.0956 A 13.58092,13.58092 0 0 1 -41.449741,68.835105 13.58092,13.58092 0 0 1 -55.03083,82.416186 13.58092,13.58092 0 0 1 -68.611389,68.835105 13.58092,13.58092 0 0 1 -55.03083,55.25402 Z m -36.08515,5.432742 c 4.390631,0 7.925621,3.534476 7.925621,7.925099 v 15.876553 c 0,4.39062 -3.53499,7.925088 -7.925621,7.925088 -4.390601,0 -7.925591,-3.534468 -7.925591,-7.925088 V 68.611863 c 0,-4.39062 3.53499,-7.925099 7.925591,-7.925099 z m -62.4246,40.900868 v 11.82202 h 0.003 a 62.424431,27.827314 0 0 0 -0.003,0.0124 62.424431,27.827314 0 0 0 62.42513,27.82724 62.424431,27.827314 0 0 0 62.4241,-27.82724 62.424431,27.827314 0 0 0 0,-0.0124 v 0 -11.82202 l -21.1641,2.30477 -2.201921,12.57598 a 2.2563048,2.2563048 0 0 1 -0.003,0.008 2.2563048,2.2563048 0 0 1 -0.484179,1.04386 2.2563048,2.2563048 0 0 1 -0.008,0.0103 2.2563048,2.2563048 0 0 1 -0.428392,0.39429 2.2563048,2.2563048 0 0 0 0,5.3e-4 2.2563048,2.2563048 0 0 1 -0.508997,0.26614 2.2563048,2.2563048 0 0 1 -0.02331,0.0103 2.2563048,2.2563048 0 0 1 -0.52038,0.12246 l -22.896779,2.49134 a 2.2563048,2.2563048 0 0 1 -0.140571,-0.007 2.2563048,2.2563048 0 0 1 -0.45992,-0.0222 2.2563048,2.2563048 0 0 1 -0.22067,-0.0491 2.2563048,2.2563048 0 0 1 -0.409779,-0.15606 2.2563048,2.2563048 0 0 1 -0.20257,-0.10542 2.2563048,2.2563048 0 0 1 -0.364331,-0.29353 2.2563048,2.2563048 0 0 1 -0.138481,-0.12765 2.2563048,2.2563048 0 0 1 -0.356579,-0.54517 2.2563048,2.2563048 0 0 1 -0.0336,-0.10543 2.2563048,2.2563048 0 0 1 -0.138509,-0.44184 l -2.166591,-12.38055 h -19.106831 l -2.16421,12.38064 a 2.2563048,2.2563048 0 0 1 -0.15452,0.493 2.2563048,2.2563048 0 0 1 -0.0151,0.0475 2.2563048,2.2563048 0 0 1 -0.36486,0.55759 2.2563048,2.2563048 0 0 1 -0.11317,0.10438 2.2563048,2.2563048 0 0 1 -0.39428,0.31626 2.2563048,2.2563048 0 0 1 -0.18243,0.0951 2.2563048,2.2563048 0 0 1 -0.42788,0.16226 2.2563048,2.2563048 0 0 1 -0.20979,0.047 2.2563048,2.2563048 0 0 1 -0.46717,0.0232 2.2563048,2.2563048 0 0 1 -0.13796,0.007 l -22.89474,-2.49081 a 2.2563048,2.2563048 0 0 1 -0.12298,-0.0336 2.2563048,2.2563048 0 0 1 -0.4899,-0.13385 2.2563048,2.2563048 0 0 1 -0.19947,-0.10437 2.2563048,2.2563048 0 0 1 -0.3607,-0.23617 2.2563048,2.2563048 0 0 1 -0.17931,-0.16485 2.2563048,2.2563048 0 0 1 -0.26924,-0.33486 2.2563048,2.2563048 0 0 1 -0.12195,-0.19172 2.2563048,2.2563048 0 0 1 -0.17415,-0.45941 2.2563048,2.2563048 0 0 1 -0.0486,-0.15604 2.2563048,2.2563048 0 0 1 -0.013,-0.0413 l -2.20191,-12.57598 z" />
    </clipPath>
    <filter
       inkscape:collect="always"
       style="color-interpolation-filters:sRGB"
       id="filter68"
       x="-0.030940043"
       y="-0.030503067"
       width="1.0618801"
       height="1.0610061">
      <feGaussianBlur
         inkscape:collect="always"
         stdDeviation="1.7620731"
         id="feGaussianBlur68" />
    </filter>
    <clipPath
       clipPathUnits="userSpaceOnUse"
       id="clipPath68">
      <path
         style="color:#000000;display:inline;fill:#00aad4;stroke-width:0.999998;stroke-linecap:round;stroke-linejoin:round;-inkscape-stroke:none;paint-order:markers stroke fill"
         d="m 194.21608,-18.147248 c -1.50589,0.01464 -3.72019,0.558856 -7.23315,1.502751 h -5.3e-4 c -5.10921,1.365232 -7.41935,2.089633 -8.30027,3.426147 -0.51739,0.630852 -0.6268,1.339595 -0.4501,2.220537 l 1.98335,9.8882849 a 62.424431,46.939943 0 0 0 -16.39176,9.6221523 l -6.94428,-5.1087321 c -0.54222,-0.3989462 -1.06471,-0.6113902 -1.62523,-0.6077151 -0.18683,0.00119 -0.37782,0.02669 -0.57516,0.077 -1.58428,0.232171 -3.21691,2.0195968 -6.61509,6.0750809 -3.40217,4.0488551 -4.87881,5.9669021 -4.83382,7.5669801 -0.062,0.813538 0.25483,1.457116 0.90486,2.077392 l 6.80682,6.495211 a 62.424431,46.939943 0 0 0 -3.37034,14.920021 62.424431,46.939943 0 0 0 0.0568,0.644403 h -0.0568 v 32.584059 a 2.2563048,2.2563048 0 0 1 0.44442,-0.06873 l 22.84511,2.487187 a 2.2563048,2.2563048 0 0 1 0.0134,0.0016 l 0.0362,0.0041 a 2.2563048,2.2563048 0 0 1 0.4992,0.115239 2.2563048,2.2563048 0 0 1 0.0718,0.02739 2.2563048,2.2563048 0 0 1 0.44596,0.233061 2.2563048,2.2563048 0 0 1 0.0563,0.03721 2.2563048,2.2563048 0 0 1 0.39016,0.359154 2.2563048,2.2563048 0 0 1 0.0481,0.05788 2.2563048,2.2563048 0 0 1 0.27027,0.425818 2.2563048,2.2563048 0 0 1 0.0294,0.05891 2.2563048,2.2563048 0 0 1 0.1602,0.510045 2.2563048,2.2563048 0 0 1 0.009,0.02946 l 2.19883,12.575463 19.10892,2.081012 2.12648,-12.163087 a 2.2563048,2.2563048 0 0 1 0.0574,-0.183454 2.2563048,2.2563048 0 0 1 0.0708,-0.22479 2.2563048,2.2563048 0 0 1 0.20154,-0.396359 2.2563048,2.2563048 0 0 1 0.1142,-0.18035 2.2563048,2.2563048 0 0 1 0.38292,-0.382405 2.2563048,2.2563048 0 0 1 0.0837,-0.077 2.2563048,2.2563048 0 0 1 0.58497,-0.297657 2.2563048,2.2563048 0 0 1 0.16641,-0.03721 2.2563048,2.2563048 0 0 1 0.47748,-0.07545 2.2563048,2.2563048 0 0 1 0.0827,-0.01291 h 22.89783 a 2.2563048,2.2563048 0 0 1 0.0827,0.01291 2.2563048,2.2563048 0 0 1 0.47752,0.07545 2.2563048,2.2563048 0 0 1 0.16637,0.03721 2.2563048,2.2563048 0 0 1 0.586,0.298691 2.2563048,2.2563048 0 0 1 0.0765,0.07028 2.2563048,2.2563048 0 0 1 0.38912,0.389122 2.2563048,2.2563048 0 0 1 0.11369,0.179317 2.2563048,2.2563048 0 0 1 0.20204,0.396359 2.2563048,2.2563048 0 0 1 0.0708,0.22479 2.2563048,2.2563048 0 0 1 0.0574,0.183454 l 2.12911,12.162567 19.10582,-2.081019 2.20192,-12.574937 a 2.2563048,2.2563048 0 0 1 0.0109,-0.03669 2.2563048,2.2563048 0 0 1 0.0563,-0.1788 2.2563048,2.2563048 0 0 1 0.1664,-0.437185 2.2563048,2.2563048 0 0 1 0.12554,-0.199472 2.2563048,2.2563048 0 0 1 0.26771,-0.331763 2.2563048,2.2563048 0 0 1 0.17518,-0.161746 2.2563048,2.2563048 0 0 1 0.36848,-0.240813 2.2563048,2.2563048 0 0 1 0.19222,-0.10025 2.2563048,2.2563048 0 0 1 0.51369,-0.140042 2.2563048,2.2563048 0 0 1 0.1007,-0.02739 l 0.0434,-0.0046 a 2.2563048,2.2563048 0 0 1 0,-5.29e-4 l 22.85185,-2.488221 a 2.2563048,2.2563048 0 0 1 0.44289,0.06873 V 40.652339 h -0.0563 a 62.424431,46.939943 0 0 0 0.0563,-0.644406 62.424431,46.939943 0 0 0 -3.52693,-15.237311 l 6.96392,-6.645074 c 0.65002,-0.620276 0.96686,-1.263854 0.90484,-2.077392 0.045,-1.600078 -1.43216,-3.518125 -4.83433,-7.5669802 -3.39818,-4.0554838 -5.03079,-5.8429109 -6.61509,-6.0750809 -0.19732,-0.05031 -0.38832,-0.07526 -0.57515,-0.07648 -0.56054,-0.0037 -1.08304,0.208252 -1.62525,0.6071981 l -7.2585,5.340242 a 62.424431,46.939943 0 0 0 -15.21423,-9.0325981 l 2.05414,-10.2422689 c 0.17667,-0.880942 0.0673,-1.589685 -0.45011,-2.220537 -0.88093,-1.336514 -3.19106,-2.060915 -8.30027,-3.426147 v 0 c -3.51295,-0.943895 -5.72727,-1.488114 -7.23315,-1.502751 -0.68448,-0.0067 -1.22251,0.09585 -1.66968,0.320394 -0.76202,0.287903 -1.21094,0.846713 -1.4981,1.697054 l -3.34039,9.891903 a 62.424431,46.939943 0 0 0 -10.20502,-0.694015 h -5.3e-4 a 62.424431,46.939943 0 0 0 -9.32036,0.54932 l -3.29127,-9.747209 c -0.28715,-0.850341 -0.73608,-1.409151 -1.4981,-1.697054 -0.44717,-0.22454 -0.98517,-0.327047 -1.66965,-0.320394 z m -20.40806,49.37528 a 13.58092,13.58092 0 0 1 13.58057,13.581083 13.58092,13.58092 0 0 1 -13.58057,13.581084 13.58092,13.58092 0 0 1 -13.58057,-13.581084 13.58092,13.58092 0 0 1 13.58057,-13.581083 z m 72.27312,0.0956 a 13.58092,13.58092 0 0 1 13.58107,13.581083 13.58092,13.58092 0 0 1 -13.58107,13.581084 13.58092,13.58092 0 0 1 -13.58058,-13.581084 13.58092,13.58092 0 0 1 13.58058,-13.581083 z m -36.08515,5.432742 c 4.39062,0 7.92563,3.534477 7.92563,7.925097 v 15.87655 c 0,4.39062 -3.53501,7.925099 -7.92563,7.925099 -4.39062,0 -7.92561,-3.534479 -7.92561,-7.925099 V 44.68147 c 0,-4.39062 3.53499,-7.925097 7.92561,-7.925096 z m -62.42461,40.900863 v 11.82202 h 0.003 a 62.424431,27.827314 0 0 0 -0.003,0.01241 62.424431,27.827314 0 0 0 62.42513,27.827233 62.424431,27.827314 0 0 0 62.42409,-27.827233 62.424431,27.827314 0 0 0 0,-0.01241 v 0 -11.82202 l -21.16407,2.30477 -2.20195,12.575979 a 2.2563048,2.2563048 0 0 1 -0.003,0.008 2.2563048,2.2563048 0 0 1 -0.48421,1.043858 2.2563048,2.2563048 0 0 1 -0.008,0.0104 2.2563048,2.2563048 0 0 1 -0.42841,0.39429 2.2563048,2.2563048 0 0 0 0,5.29e-4 2.2563048,2.2563048 0 0 1 -0.50901,0.266142 2.2563048,2.2563048 0 0 1 -0.0233,0.01029 2.2563048,2.2563048 0 0 1 -0.52038,0.122479 l -22.89681,2.491322 a 2.2563048,2.2563048 0 0 1 -0.14057,-0.007 2.2563048,2.2563048 0 0 1 -0.4599,-0.0222 2.2563048,2.2563048 0 0 1 -0.22066,-0.0491 2.2563048,2.2563048 0 0 1 -0.40979,-0.156059 2.2563048,2.2563048 0 0 1 -0.20259,-0.105431 2.2563048,2.2563048 0 0 1 -0.3643,-0.293521 2.2563048,2.2563048 0 0 1 -0.13849,-0.127638 2.2563048,2.2563048 0 0 1 -0.35658,-0.545182 2.2563048,2.2563048 0 0 1 -0.0336,-0.10542 2.2563048,2.2563048 0 0 1 -0.13848,-0.441839 l -2.16681,-12.380639 h -19.10684 l -2.16421,12.380639 a 2.2563048,2.2563048 0 0 1 -0.15451,0.493001 2.2563048,2.2563048 0 0 1 -0.015,0.0475 2.2563048,2.2563048 0 0 1 -0.36482,0.557591 2.2563048,2.2563048 0 0 1 -0.11319,0.10437 2.2563048,2.2563048 0 0 1 -0.39429,0.316259 2.2563048,2.2563048 0 0 1 -0.1824,0.0951 2.2563048,2.2563048 0 0 1 -0.4279,0.162258 2.2563048,2.2563048 0 0 1 -0.2098,0.047 2.2563048,2.2563048 0 0 1 -0.46715,0.02331 2.2563048,2.2563048 0 0 1 -0.13798,0.007 l -22.89473,-2.49079 a 2.2563048,2.2563048 0 0 1 -0.12298,-0.0336 2.2563048,2.2563048 0 0 1 -0.4899,-0.13385 2.2563048,2.2563048 0 0 1 -0.19947,-0.104381 2.2563048,2.2563048 0 0 1 -0.3607,-0.236159 2.2563048,2.2563048 0 0 1 -0.17932,-0.164852 2.2563048,2.2563048 0 0 1 -0.26924,-0.334869 2.2563048,2.2563048 0 0 1 -0.12194,-0.19172 2.2563048,2.2563048 0 0 1 -0.17416,-0.459399 2.2563048,2.2563048 0 0 1 -0.0486,-0.156062 2.2563048,2.2563048 0 0 1 -0.0129,-0.0413 L 168.7359,79.962331 Z"
         id="path69" />
    </clipPath>
    <radialGradient
       inkscape:collect="always"
       xlink:href="#linearGradient70"
       id="radialGradient71"
       cx="-146.13353"
       cy="74.02635"
       fx="-146.13353"
       fy="74.02635"
       r="66.77375"
       gradientTransform="matrix(1,0,0,1.0143687,213.86686,-7.3566766)"
       gradientUnits="userSpaceOnUse" />
    <radialGradient
       inkscape:collect="always"
       xlink:href="#linearGradient71"
       id="radialGradient73"
       cx="18.448996"
       cy="8.7030973"
       fx="18.448996"
       fy="8.7030973"
       r="61.237534"
       gradientTransform="matrix(1,0,0,0.618034,26.342969,38.765548)"
       gradientUnits="userSpaceOnUse" />
    <clipPath
       clipPathUnits="userSpaceOnUse"
       id="clipPath74">
      <path
         id="path75"
         style="display:inline;opacity:1;fill:#00aad4;fill-opacity:1;stroke-width:2.01083;stroke-linecap:round;stroke-linejoin:round;paint-order:markers stroke fill"
         d="m 50.185582,13.437439 c -1.458432,-0.375335 -3.73815,-0.422328 -7.375707,-0.419121 l -5.11e-4,-1.37e-4 c -5.288469,-0.0026 -7.707363,0.09963 -8.903973,1.162839 -0.662948,0.475571 -0.951936,1.131904 -1.009096,2.028571 L 32.254705,26.27439 A 62.424431,46.939943 14.989047 0 0 13.932059,31.32968 L 8.5453514,24.598743 C 8.1247613,24.073134 7.6749953,23.732785 7.1326012,23.591366 c -0.180789,-0.04717 -0.3718678,-0.07193 -0.5755045,-0.07437 -1.5904314,-0.18548 -3.6297942,1.118876 -7.9612477,4.157485 -4.333578,3.03118 -6.2560537,4.502052 -6.6264257,6.059325 -0.2702974,0.769823 -0.1307051,1.473445 0.3367768,2.24074 l 4.895335,8.034688 a 62.424431,46.939943 14.989047 0 0 -7.1144921,13.540684 62.424431,46.939943 14.989047 0 0 -0.111756,0.637184 l -0.05491,-0.0147 -8.427358,31.475393 a 2.2563048,2.2563048 0 0 1 0.447074,0.04855 l 21.4245463,8.311093 a 2.2563048,2.2563048 0 0 1 0.012573,0.005 l 0.033877,0.01332 a 2.2563048,2.2563048 0 0 1 0.4524049,0.240427 2.2563048,2.2563048 0 0 1 0.062301,0.04504 2.2563048,2.2563048 0 0 1 0.3705169,0.340473 2.2563048,2.2563048 0 0 1 0.04479,0.05051 2.2563048,2.2563048 0 0 1 0.2839935,0.447838 2.2563048,2.2563048 0 0 1 0.031456,0.06834 2.2563048,2.2563048 0 0 1 0.1509437,0.481225 2.2563048,2.2563048 0 0 1 0.01322,0.06452 2.2563048,2.2563048 0 0 1 0.022831,0.534119 2.2563048,2.2563048 0 0 1 8.788e-4,0.0308 l -1.1284314,12.71628 17.9205133,6.95242 5.199926,-11.19925 a 2.2563048,2.2563048 0 0 1 0.102855,-0.16238 2.2563048,2.2563048 0 0 1 0.12653,-0.19883 2.2563048,2.2563048 0 0 1 0.297194,-0.33075 2.2563048,2.2563048 0 0 1 0.156963,-0.14468 2.2563048,2.2563048 0 0 1 0.468795,-0.27035 2.2563048,2.2563048 0 0 1 0.100791,-0.0527 2.2563048,2.2563048 0 0 1 0.642054,-0.13627 2.2563048,2.2563048 0 0 1 0.170368,0.007 2.2563048,2.2563048 0 0 1 0.480756,0.0506 2.2563048,2.2563048 0 0 1 0.0832,0.009 l 22.118736,5.92216 a 2.2563048,2.2563048 0 0 1 0.07652,0.0338 2.2563048,2.2563048 0 0 1 0.441732,0.19638 2.2563048,2.2563048 0 0 1 0.151107,0.0789 2.2563048,2.2563048 0 0 1 0.488819,0.44009 2.2563048,2.2563048 0 0 1 0.0557,0.0877 2.2563048,2.2563048 0 0 1 0.275247,0.47653 2.2563048,2.2563048 0 0 1 0.06344,0.20262 2.2563048,2.2563048 0 0 1 0.09267,0.43513 2.2563048,2.2563048 0 0 1 0.01025,0.23545 2.2563048,2.2563048 0 0 1 0.008,0.19204 l -1.089028,12.2994 18.993959,2.93122 5.379317,-11.57761 a 2.2563048,2.2563048 0 0 1 0.02002,-0.0326 2.2563048,2.2563048 0 0 1 0.100624,-0.15815 2.2563048,2.2563048 0 0 1 0.273813,-0.37927 2.2563048,2.2563048 0 0 1 0.172894,-0.1602 2.2563048,2.2563048 0 0 1 0.344377,-0.25125 2.2563048,2.2563048 0 0 1 0.211065,-0.11089 2.2563048,2.2563048 0 0 1 0.418199,-0.13735 2.2563048,2.2563048 0 0 1 0.211611,-0.0472 2.2563048,2.2563048 0 0 1 0.532419,-0.002 2.2563048,2.2563048 0 0 1 0.104414,-3.9e-4 l 0.04311,0.007 a 2.2563048,2.2563048 0 0 1 0.0012,-2.4e-4 l 22.717846,3.5067 a 2.2563048,2.2563048 0 0 1 0.41003,0.18095 l 8.42724,-31.474971 -0.0544,-0.01456 a 62.424431,46.939943 14.989047 0 0 0.22105,-0.607917 62.424431,46.939943 14.989047 0 0 0.53397,-15.631057 l 8.44563,-4.617862 c 0.78834,-0.431054 1.26083,-0.970794 1.41135,-1.772687 0.4573,-1.533997 -0.47353,-3.768827 -2.71277,-8.559842 -2.2338,-4.796414 -3.34859,-6.94528 -4.81893,-7.579302 -0.17759,-0.09963 -0.35564,-0.173132 -0.5358,-0.222631 -0.5405,-0.148545 -1.10002,-0.07894 -1.72696,0.166197 l -8.39269,3.281273 A 62.424431,46.939943 14.989047 0 0 90.531466,42.244114 l 4.633252,-9.362507 c 0.398519,-0.805271 0.476157,-1.51819 0.139518,-2.261396 -0.50527,-1.518873 -2.549459,-2.81611 -7.131734,-5.456308 l -5.11e-4,-1.36e-4 c -3.149298,-1.82035 -5.147507,-2.918746 -6.598371,-3.322359 -0.659483,-0.183457 -1.20569,-0.223588 -1.695721,-0.122341 -0.810555,0.08102 -1.388732,0.504712 -1.886041,1.251853 l -5.785096,8.6914 a 62.424431,46.939943 14.989047 0 0 -9.678344,-3.309781 l -4.98e-4,-1.33e-4 A 62.424431,46.939943 14.989047 0 0 53.382609,26.47247 L 52.723785,16.205537 c -0.05746,-0.895676 -0.346577,-1.551579 -1.008211,-2.026772 -0.373881,-0.332554 -0.867065,-0.570718 -1.529992,-0.741326 z M 17.701759,55.854515 A 13.58092,13.58092 0 0 1 27.307717,72.485908 13.58092,13.58092 0 0 1 10.676689,82.092495 13.58092,13.58092 0 0 1 1.0707337,65.461105 13.58092,13.58092 0 0 1 17.701759,55.854515 Z M 87.491071,74.639173 A 13.58092,13.58092 0 0 1 97.097523,91.270701 13.58092,13.58092 0 0 1 80.466,100.87716 13.58092,13.58092 0 0 1 70.860043,84.245762 13.58092,13.58092 0 0 1 87.491071,74.639173 Z m -36.262445,-4.08496 c 4.241233,1.135566 6.741811,5.464053 5.606246,9.705284 l -4.106223,15.336358 c -1.135566,4.241224 -5.464418,6.741175 -9.705648,5.605615 -4.241231,-1.13557 -6.741813,-5.464058 -5.606248,-9.705288 l 4.106223,-15.336358 c 1.135565,-4.241231 5.464422,-6.741175 9.70565,-5.605611 z m -70.879002,23.364071 -3.057581,11.419776 0.0025,6.8e-4 a 62.424431,27.827314 14.989047 0 0 -0.0057,0.0113 62.424431,27.827314 14.989047 0 0 53.104049,43.02572 62.424431,27.827314 14.989047 0 0 67.497222,-10.73541 62.424431,27.827314 14.989047 0 0 0.0027,-0.0121 l 5.14e-4,1.3e-4 3.057582,-11.41977 -21.040085,-3.24741 -5.379589,11.57859 a 2.2563048,2.2563048 0 0 1 -0.005,0.007 2.2563048,2.2563048 0 0 1 -0.737715,0.88311 2.2563048,2.2563048 0 0 1 -0.01046,0.008 2.2563048,2.2563048 0 0 1 -0.515809,0.27006 2.2563048,2.2563048 0 0 0 -6.48e-4,3.8e-4 2.2563048,2.2563048 0 0 1 -0.56053,0.12545 2.2563048,2.2563048 0 0 1 -0.02516,0.004 2.2563048,2.2563048 0 0 1 -0.534361,-0.0163 l -22.762077,-3.51534 a 2.2563048,2.2563048 0 0 1 -0.133959,-0.0431 2.2563048,2.2563048 0 0 1 -0.438527,-0.14039 2.2563048,2.2563048 0 0 1 -0.200451,-0.1045 2.2563048,2.2563048 0 0 1 -0.355487,-0.25675 2.2563048,2.2563048 0 0 1 -0.168412,-0.15422 2.2563048,2.2563048 0 0 1 -0.27601,-0.37776 2.2563048,2.2563048 0 0 1 -0.100764,-0.15913 2.2563048,2.2563048 0 0 1 -0.203434,-0.61884 2.2563048,2.2563048 0 0 1 -0.0052,-0.11053 2.2563048,2.2563048 0 0 1 -0.0195,-0.46262 l 1.109161,-12.51966 -18.456736,-4.94169 -5.292632,11.39965 a 2.2563048,2.2563048 0 0 1 -0.276763,0.43627 2.2563048,2.2563048 0 0 1 -0.02678,0.042 2.2563048,2.2563048 0 0 1 -0.496635,0.44426 2.2563048,2.2563048 0 0 1 -0.136313,0.0716 2.2563048,2.2563048 0 0 1 -0.462671,0.20353 2.2563048,2.2563048 0 0 1 -0.200821,0.0447 2.2563048,2.2563048 0 0 1 -0.455319,0.0458 2.2563048,2.2563048 0 0 1 -0.214809,-0.009 2.2563048,2.2563048 0 0 1 -0.45729,-0.0983 2.2563048,2.2563048 0 0 1 -0.135088,-0.0289 L 0.50365531,116.64153 a 2.2563048,2.2563048 0 0 1 -0.11012195,-0.0643 2.2563048,2.2563048 0 0 1 -0.4386027,-0.256 2.2563048,2.2563048 0 0 1 -0.16568927,-0.15241 2.2563048,2.2563048 0 0 1 -0.2873514,-0.32142 2.2563048,2.2563048 0 0 1 -0.1305768,-0.20562 2.2563048,2.2563048 0 0 1 -0.17346725,-0.3931 2.2563048,2.2563048 0 0 1 -0.0682247,-0.21674 2.2563048,2.2563048 0 0 1 -0.0494354,-0.4888 2.2563048,2.2563048 0 0 1 -0.006572,-0.16333 2.2563048,2.2563048 0 0 1 -0.001816,-0.0432 l 1.12571973,-12.7182 z" />
    </clipPath>
  </defs>
  <g
     inkscape:label="Layer 1"
     inkscape:groupmode="layer"
     id="layer1">
    <g
       id="g30"
       style="display:none"
       sodipodi:insensitive="true">
      <path
         id="rect2"
         style="fill:#ff6600;stroke-width:2.01083;stroke-linecap:round;stroke-linejoin:round;paint-order:markers stroke fill"
         d="m -223.52197,22.846307 h 102.48203 v 40.078765 h -102.48203 z"
         sodipodi:nodetypes="ccccc" />
      <ellipse
         style="opacity:1;fill:#ff0000;stroke-width:2.01083;stroke-linecap:round;stroke-linejoin:round;paint-order:markers stroke fill"
         id="path2"
         cx="-172.28096"
         cy="62.935631"
         rx="51.241016"
         ry="22.842016" />
      <ellipse
         style="opacity:1;fill:#ff0000;stroke-width:2.01082;stroke-linecap:round;stroke-linejoin:round;paint-order:markers stroke fill"
         id="ellipse2"
         cx="-172.28096"
         cy="22.317146"
         rx="51.241016"
         ry="38.530594" />
    </g>
    <path
       id="path3"
       style="display:inline;opacity:1;fill:#00aad4;fill-opacity:1;stroke-width:2.01083;stroke-linecap:round;stroke-linejoin:round;paint-order:markers stroke fill"
       d="M 51.953417,5.1676432e-4 C 50.447532,0.01515375 48.233227,0.55937195 44.720267,1.5032674 H 44.71975 C 39.610538,2.8684991 37.300397,3.5929 36.419482,4.9294148 35.902089,5.5602662 35.792685,6.2690095 35.96938,7.1499511 l 1.983342,9.8882849 a 62.42443,46.939942 0 0 0 -16.391764,9.622152 l -6.944279,-5.108732 c -0.54222,-0.398946 -1.064709,-0.61139 -1.625224,-0.607715 -0.186838,0.0012 -0.37782,0.02669 -0.575159,0.077 -1.584289,0.232171 -3.2169116,2.019597 -6.6150998,6.075081 -3.4021619,4.048856 -4.87880835,5.966902 -4.8338134,7.56698 -0.0619981,0.813537 0.2548248,1.457116 0.9048543,2.077393 l 6.8068196,6.49521 a 62.42443,46.939942 0 0 0 -3.3703369,14.92002 62.42443,46.939942 0 0 0 0.056844,0.644405 h -0.056844 v 32.584057 a 2.2563048,2.2563048 0 0 1 0.4444173,-0.06873 l 22.8451169,2.487187 a 2.2563048,2.2563048 0 0 1 0.01344,0.0015 l 0.03617,0.0041 a 2.2563048,2.2563048 0 0 1 0.499195,0.115239 2.2563048,2.2563048 0 0 1 0.07183,0.02739 2.2563048,2.2563048 0 0 1 0.445968,0.233061 2.2563048,2.2563048 0 0 1 0.05633,0.03721 2.2563048,2.2563048 0 0 1 0.390157,0.359151 2.2563048,2.2563048 0 0 1 0.04806,0.05788 2.2563048,2.2563048 0 0 1 0.270268,0.425814 2.2563048,2.2563048 0 0 1 0.02946,0.05891 2.2563048,2.2563048 0 0 1 0.160197,0.510046 2.2563048,2.2563048 0 0 1 0.0088,0.02946 l 2.198832,12.575465 19.108911,2.08101 2.126486,-12.163087 a 2.2563048,2.2563048 0 0 1 0.05736,-0.183452 2.2563048,2.2563048 0 0 1 0.0708,-0.224792 2.2563048,2.2563048 0 0 1 0.201538,-0.396358 2.2563048,2.2563048 0 0 1 0.114205,-0.180351 2.2563048,2.2563048 0 0 1 0.382922,-0.382406 2.2563048,2.2563048 0 0 1 0.08372,-0.077 2.2563048,2.2563048 0 0 1 0.584977,-0.297656 2.2563048,2.2563048 0 0 1 0.166399,-0.03721 2.2563048,2.2563048 0 0 1 0.47749,-0.07545 2.2563048,2.2563048 0 0 1 0.08268,-0.01292 h 22.897827 a 2.2563048,2.2563048 0 0 1 0.08268,0.01292 2.2563048,2.2563048 0 0 1 0.47749,0.07545 2.2563048,2.2563048 0 0 1 0.166399,0.03721 2.2563048,2.2563048 0 0 1 0.58601,0.29869 2.2563048,2.2563048 0 0 1 0.07648,0.07028 2.2563048,2.2563048 0 0 1 0.389124,0.389123 2.2563048,2.2563048 0 0 1 0.113688,0.179318 2.2563048,2.2563048 0 0 1 0.202055,0.396358 2.2563048,2.2563048 0 0 1 0.0708,0.224792 2.2563048,2.2563048 0 0 1 0.05736,0.183452 l 2.129069,12.162569 19.105809,-2.08101 2.20193,-12.574947 a 2.2563048,2.2563048 0 0 1 0.0109,-0.03669 2.2563048,2.2563048 0 0 1 0.0563,-0.1788 2.2563048,2.2563048 0 0 1 0.1664,-0.437183 2.2563048,2.2563048 0 0 1 0.12558,-0.199471 2.2563048,2.2563048 0 0 1 0.26768,-0.331762 2.2563048,2.2563048 0 0 1 0.17518,-0.161748 2.2563048,2.2563048 0 0 1 0.36846,-0.240812 2.2563048,2.2563048 0 0 1 0.19223,-0.100252 2.2563048,2.2563048 0 0 1 0.51367,-0.140043 2.2563048,2.2563048 0 0 1 0.10076,-0.02739 l 0.0434,-0.0046 a 2.2563048,2.2563048 0 0 1 0.001,-5.17e-4 l 22.85183,-2.48822 a 2.2563048,2.2563048 0 0 1 0.44287,0.06873 v -32.58354 h -0.0563 a 62.42443,46.939942 0 0 0 0.0563,-0.644405 62.42443,46.939942 0 0 0 -3.52692,-15.237313 l 6.96392,-6.645072 c 0.65003,-0.620278 0.96685,-1.263856 0.90485,-2.077393 0.045,-1.600078 -1.43216,-3.518124 -4.83433,-7.56698 -3.39818,-4.055484 -5.03081,-5.842911 -6.6151,-6.075081 -0.19733,-0.05031 -0.38832,-0.07526 -0.57516,-0.07648 -0.56052,-0.0037 -1.08301,0.208252 -1.62522,0.607198 L 113.591,26.424743 A 62.42443,46.939942 0 0 0 98.37694,17.39222 L 100.43108,7.1499511 C 100.60777,6.2690095 100.49838,5.5602662 99.980976,4.9294148 99.100064,3.5929 96.78992,2.8684991 91.680708,1.5032674 h -5.17e-4 C 88.167231,0.55937195 85.952926,0.01515345 84.447041,5.1676432e-4 83.762547,-0.00613323 83.224546,0.09636991 82.777375,0.32091064 82.015352,0.60881368 81.566429,1.1676232 81.279276,2.0179647 L 77.938911,11.909867 A 62.42443,46.939942 0 0 0 67.733849,11.215853 h -5.17e-4 a 62.42443,46.939942 0 0 0 -9.320361,0.54932 L 55.121183,2.0179647 C 54.834029,1.1676232 54.385106,0.60881368 53.623083,0.32091064 53.175912,0.09637016 52.637911,-0.00613623 51.953417,5.1676432e-4 Z M 31.545361,49.375797 A 13.58092,13.58092 0 0 1 45.125927,62.95688 13.58092,13.58092 0 0 1 31.545361,76.537963 13.58092,13.58092 0 0 1 17.964795,62.95688 13.58092,13.58092 0 0 1 31.545361,49.375797 Z m 72.273109,0.0956 A 13.58092,13.58092 0 0 1 117.39955,63.052481 13.58092,13.58092 0 0 1 103.81847,76.633564 13.58092,13.58092 0 0 1 90.237902,63.052481 13.58092,13.58092 0 0 1 103.81847,49.471398 Z m -36.085138,5.432744 c 4.390622,0 7.925615,3.534476 7.925615,7.925097 v 15.87655 c 0,4.39062 -3.534993,7.925098 -7.925615,7.925098 -4.390618,0 -7.925614,-3.534478 -7.925614,-7.925098 v -15.87655 c 0,-4.390621 3.534996,-7.925097 7.925614,-7.925097 z M 5.3087198,95.805004 v 11.822016 h 0.00258 a 62.42443,27.827313 0 0 0 -0.00258,0.0124 62.42443,27.827313 0 0 0 62.4251292,27.82724 62.42443,27.827313 0 0 0 62.424101,-27.82724 62.42443,27.827313 0 0 0 -5.2e-4,-0.0124 h 5.2e-4 V 95.805004 l -21.16409,2.304769 -2.20193,12.575977 a 2.2563048,2.2563048 0 0 1 -0.003,0.008 2.2563048,2.2563048 0 0 1 -0.48421,1.04386 2.2563048,2.2563048 0 0 1 -0.008,0.0103 2.2563048,2.2563048 0 0 1 -0.4284,0.39429 2.2563048,2.2563048 0 0 0 -5.1e-4,5.1e-4 2.2563048,2.2563048 0 0 1 -0.50902,0.26614 2.2563048,2.2563048 0 0 1 -0.0233,0.0103 2.2563048,2.2563048 0 0 1 -0.52038,0.12248 l -22.896797,2.49132 a 2.2563048,2.2563048 0 0 1 -0.14056,-0.007 2.2563048,2.2563048 0 0 1 -0.45992,-0.0222 2.2563048,2.2563048 0 0 1 -0.220659,-0.0491 2.2563048,2.2563048 0 0 1 -0.409794,-0.15606 2.2563048,2.2563048 0 0 1 -0.202571,-0.10542 2.2563048,2.2563048 0 0 1 -0.364319,-0.29353 2.2563048,2.2563048 0 0 1 -0.138493,-0.12764 2.2563048,2.2563048 0 0 1 -0.356567,-0.54518 2.2563048,2.2563048 0 0 1 -0.03359,-0.10542 2.2563048,2.2563048 0 0 1 -0.138493,-0.44184 L 77.286754,100.79901 H 58.179911 l -2.164209,12.38064 a 2.2563048,2.2563048 0 0 1 -0.154513,0.493 2.2563048,2.2563048 0 0 1 -0.01499,0.0475 2.2563048,2.2563048 0 0 1 -0.364836,0.55759 2.2563048,2.2563048 0 0 1 -0.113171,0.10438 2.2563048,2.2563048 0 0 1 -0.394291,0.31626 2.2563048,2.2563048 0 0 1 -0.182418,0.0951 2.2563048,2.2563048 0 0 1 -0.427881,0.16226 2.2563048,2.2563048 0 0 1 -0.209806,0.047 2.2563048,2.2563048 0 0 1 -0.467155,0.0233 2.2563048,2.2563048 0 0 1 -0.137976,0.007 l -22.894727,-2.4908 a 2.2563048,2.2563048 0 0 1 -0.122989,-0.0336 2.2563048,2.2563048 0 0 1 -0.489893,-0.13385 2.2563048,2.2563048 0 0 1 -0.199471,-0.10438 2.2563048,2.2563048 0 0 1 -0.360702,-0.23616 2.2563048,2.2563048 0 0 1 -0.179317,-0.16485 2.2563048,2.2563048 0 0 1 -0.269234,-0.33486 2.2563048,2.2563048 0 0 1 -0.121956,-0.19172 2.2563048,2.2563048 0 0 1 -0.17415,-0.45941 2.2563048,2.2563048 0 0 1 -0.04858,-0.15606 2.2563048,2.2563048 0 0 1 -0.01292,-0.0413 L 26.472802,98.109773 Z" />
    <path
       id="path52"
       style="display:none;fill:#00aad4;fill-opacity:1;stroke-width:2.01083;stroke-linecap:round;stroke-linejoin:round;paint-order:markers stroke fill"
       d="m 67.733333,11.215865 a 62.42443,46.939942 0 0 0 -62.4244796,46.939807 62.42443,46.939942 0 0 0 0.056675,0.64438 h -0.056675 v 32.583872 a 2.2563048,2.2563048 0 0 1 0.4443515,-0.06858 l 22.8452881,2.487034 a 2.2563048,2.2563048 0 0 1 0.01333,0.0019 l 0.03619,0.0038 a 2.2563048,2.2563048 0 0 1 0.499121,0.115254 2.2563048,2.2563048 0 0 1 0.07191,0.02762 2.2563048,2.2563048 0 0 1 0.44578,0.23289 2.2563048,2.2563048 0 0 1 0.0562,0.03715 2.2563048,2.2563048 0 0 1 0.390534,0.359101 2.2563048,2.2563048 0 0 1 0.04763,0.05811 2.2563048,2.2563048 0 0 1 0.270516,0.425778 2.2563048,2.2563048 0 0 1 0.02953,0.05906 2.2563048,2.2563048 0 0 1 0.160024,0.510075 2.2563048,2.2563048 0 0 1 0.009,0.02905 l 2.198897,12.575664 19.108543,2.08078 2.126506,-12.162741 a 2.2563048,2.2563048 0 0 1 0.05763,-0.183361 2.2563048,2.2563048 0 0 1 0.07048,-0.224794 2.2563048,2.2563048 0 0 1 0.201934,-0.396726 2.2563048,2.2563048 0 0 1 0.113827,-0.180027 2.2563048,2.2563048 0 0 1 0.382915,-0.382438 2.2563048,2.2563048 0 0 1 0.08382,-0.07715 2.2563048,2.2563048 0 0 1 0.584849,-0.297663 2.2563048,2.2563048 0 0 1 0.166692,-0.03715 2.2563048,2.2563048 0 0 1 0.477213,-0.07525 2.2563048,2.2563048 0 0 1 0.08287,-0.01333 h 22.897688 a 2.2563048,2.2563048 0 0 1 0.08287,0.01333 2.2563048,2.2563048 0 0 1 0.477213,0.07525 2.2563048,2.2563048 0 0 1 0.16669,0.03715 2.2563048,2.2563048 0 0 1 0.585801,0.298616 2.2563048,2.2563048 0 0 1 0.07668,0.07048 2.2563048,2.2563048 0 0 1 0.389106,0.389106 2.2563048,2.2563048 0 0 1 0.113826,0.179074 2.2563048,2.2563048 0 0 1 0.201935,0.396726 2.2563048,2.2563048 0 0 1 0.07096,0.224794 2.2563048,2.2563048 0 0 1 0.05715,0.183362 l 2.128887,12.162262 19.10616,-2.08078 2.20176,-12.575186 a 2.2563048,2.2563048 0 0 1 0.011,-0.03667 2.2563048,2.2563048 0 0 1 0.0562,-0.178598 2.2563048,2.2563048 0 0 1 0.16621,-0.437207 2.2563048,2.2563048 0 0 1 0.12573,-0.199554 2.2563048,2.2563048 0 0 1 0.26767,-0.331478 2.2563048,2.2563048 0 0 1 0.17526,-0.161927 2.2563048,2.2563048 0 0 1 0.36862,-0.240988 2.2563048,2.2563048 0 0 1 0.19194,-0.100016 2.2563048,2.2563048 0 0 1 0.51389,-0.14002 2.2563048,2.2563048 0 0 1 0.10048,-0.02762 l 0.0434,-0.0043 a 2.2563048,2.2563048 0 0 1 9.2e-4,-9.21e-4 l 22.85196,-2.487987 a 2.2563048,2.2563048 0 0 1 0.44293,0.06858 V 58.800052 h -0.0562 a 62.42443,46.939942 0 0 0 0.0562,-0.64438 A 62.42443,46.939942 0 0 0 67.73381,11.215865 Z M 31.545594,49.3758 A 13.58092,13.58092 0 0 1 45.126177,62.956859 13.58092,13.58092 0 0 1 31.545594,76.537917 13.58092,13.58092 0 0 1 17.964537,62.956859 13.58092,13.58092 0 0 1 31.545594,49.3758 Z m 72.273076,0.09573 A 13.58092,13.58092 0 0 1 117.39973,63.052587 13.58092,13.58092 0 0 1 103.81867,76.633645 13.58092,13.58092 0 0 1 90.238094,63.052587 13.58092,13.58092 0 0 1 103.81867,49.471529 Z m -36.085337,5.432709 c 4.390626,0 7.92546,3.534357 7.92546,7.924983 v 15.876636 c 0,4.390624 -3.534834,7.924982 -7.92546,7.924982 -4.390623,0 -7.925458,-3.534358 -7.925458,-7.924982 V 62.829221 c 0,-4.390626 3.534835,-7.924983 7.925458,-7.924983 z M 5.3088534,95.805055 V 107.6268 h 0.00238 a 62.42443,27.827313 0 0 0 -0.00238,0.0124 62.42443,27.827313 0 0 0 62.4249566,27.82746 62.42443,27.827313 0 0 0 62.424,-27.82746 62.42443,27.827313 0 0 0 -4.7e-4,-0.0124 h 4.7e-4 V 95.805055 l -21.16408,2.304627 -2.20176,12.576138 a 2.2563048,2.2563048 0 0 1 -0.003,0.008 2.2563048,2.2563048 0 0 1 -0.48435,1.04397 2.2563048,2.2563048 0 0 1 -0.008,0.0105 2.2563048,2.2563048 0 0 1 -0.42815,0.39434 2.2563048,2.2563048 0 0 0 -4.8e-4,4.7e-4 2.2563048,2.2563048 0 0 1 -0.50913,0.26624 2.2563048,2.2563048 0 0 1 -0.0233,0.01 2.2563048,2.2563048 0 0 1 -0.52008,0.12241 l -22.896719,2.49131 a 2.2563048,2.2563048 0 0 1 -0.140973,-0.007 2.2563048,2.2563048 0 0 1 -0.459592,-0.0224 2.2563048,2.2563048 0 0 1 -0.220986,-0.049 2.2563048,2.2563048 0 0 1 -0.409584,-0.15621 2.2563048,2.2563048 0 0 1 -0.202411,-0.10526 2.2563048,2.2563048 0 0 1 -0.364339,-0.29337 2.2563048,2.2563048 0 0 1 -0.138593,-0.12765 2.2563048,2.2563048 0 0 1 -0.356719,-0.54531 2.2563048,2.2563048 0 0 1 -0.03333,-0.10526 2.2563048,2.2563048 0 0 1 -0.138592,-0.44196 L 77.286653,100.79913 H 58.180014 l -2.164129,12.38039 a 2.2563048,2.2563048 0 0 1 -0.154785,0.49294 2.2563048,2.2563048 0 0 1 -0.01476,0.0476 2.2563048,2.2563048 0 0 1 -0.364817,0.5577 2.2563048,2.2563048 0 0 1 -0.113349,0.10431 2.2563048,2.2563048 0 0 1 -0.394344,0.31625 2.2563048,2.2563048 0 0 1 -0.182408,0.0952 2.2563048,2.2563048 0 0 1 -0.427683,0.16241 2.2563048,2.2563048 0 0 1 -0.21003,0.0471 2.2563048,2.2563048 0 0 1 -0.467213,0.0229 2.2563048,2.2563048 0 0 1 -0.137639,0.007 l -22.894821,-2.49109 a 2.2563048,2.2563048 0 0 1 -0.122876,-0.0334 2.2563048,2.2563048 0 0 1 -0.490072,-0.13383 2.2563048,2.2563048 0 0 1 -0.199553,-0.1043 2.2563048,2.2563048 0 0 1 -0.36053,-0.23623 2.2563048,2.2563048 0 0 1 -0.17955,-0.16478 2.2563048,2.2563048 0 0 1 -0.269088,-0.33481 2.2563048,2.2563048 0 0 1 -0.121924,-0.19193 2.2563048,2.2563048 0 0 1 -0.17431,-0.4596 2.2563048,2.2563048 0 0 1 -0.04858,-0.15573 2.2563048,2.2563048 0 0 1 -0.01286,-0.0415 l -2.20175,-12.576002 z"
       sodipodi:insensitive="true" />
    <g
       id="g21"
       style="display:none"
       sodipodi:insensitive="true">
      <path
         style="fill:none;stroke:#000000;stroke-width:3.70417;stroke-linecap:round;stroke-linejoin:miter;stroke-dasharray:none;stroke-opacity:1"
         d="m -156.14633,170.00311 18.79384,2.04633"
         id="path4"
         sodipodi:nodetypes="cc" />
      <path
         style="fill:none;stroke:#000000;stroke-width:3.70417;stroke-linecap:round;stroke-linejoin:miter;stroke-dasharray:none;stroke-opacity:1"
         d="m -137.35249,172.04944 2.04634,11.69452"
         id="path5"
         sodipodi:nodetypes="cc" />
      <path
         style="fill:none;stroke:#000000;stroke-width:3.70417;stroke-linecap:round;stroke-linejoin:miter;stroke-dasharray:none;stroke-opacity:1"
         d="m -135.30615,183.74396 18.79384,2.04633"
         id="path6"
         sodipodi:nodetypes="cc" />
      <path
         style="fill:none;stroke:#000000;stroke-width:3.70417;stroke-linecap:round;stroke-linejoin:miter;stroke-dasharray:none;stroke-opacity:1"
         d="m -114.46597,174.09577 -2.04634,11.69452"
         id="path7"
         sodipodi:nodetypes="cc" />
      <path
         style="fill:none;stroke:#000000;stroke-width:3.70417;stroke-linecap:round;stroke-linejoin:miter;stroke-dasharray:none;stroke-opacity:1"
         d="m -114.46597,174.09577 h 18.793842"
         id="path8"
         sodipodi:nodetypes="cc" />
      <path
         style="fill:none;stroke:#000000;stroke-width:3.70417;stroke-linecap:round;stroke-linejoin:miter;stroke-dasharray:none;stroke-opacity:1"
         d="m -53.991765,170.00311 -18.793843,2.04633"
         id="path9"
         sodipodi:nodetypes="cc" />
      <path
         style="fill:none;stroke:#000000;stroke-width:3.70417;stroke-linecap:round;stroke-linejoin:miter;stroke-dasharray:none;stroke-opacity:1"
         d="m -72.785608,172.04944 -2.046339,11.69452"
         id="path10"
         sodipodi:nodetypes="cc" />
      <path
         style="fill:none;stroke:#000000;stroke-width:3.70417;stroke-linecap:round;stroke-linejoin:miter;stroke-dasharray:none;stroke-opacity:1"
         d="m -74.831947,183.74396 -18.793843,2.04633"
         id="path11"
         sodipodi:nodetypes="cc" />
      <path
         style="fill:none;stroke:#000000;stroke-width:3.70417;stroke-linecap:round;stroke-linejoin:miter;stroke-dasharray:none;stroke-opacity:1"
         d="m -95.672128,174.09577 2.046338,11.69452"
         id="path12"
         sodipodi:nodetypes="cc" />
    </g>
    <path
       id="rect42"
       style="display:none;opacity:1;fill:#00aad4;fill-opacity:1;stroke-width:3.175;stroke-linecap:square;stroke-linejoin:round;paint-order:stroke markers fill"
       d="m 58.267584,-3.1888399 c -1.92574,-0.01606 -3.93562,0.06183 -5.64255,0.5555207 -0.01015,0.0028 -0.02036,0.0055 -0.03049,0.0083 -0.02484,0.0073 -0.04918,0.01528 -0.07389,0.02274 -0.90528,0.2577767 -1.72095,0.6479494 -2.39366,1.2340331 -0.81218,0.68727266 -1.40584,1.62603198 -1.67225,2.9067973 l -3.70416,19.5367968 c -1.20259,6.342861 36.148775,6.342862 34.946185,0 L 75.992602,1.5385172 c -0.266403,-1.28077732 -0.860054,-2.21952264 -1.672249,-2.9067973 -0.672704,-0.5860647 -1.488399,-0.9762624 -2.393652,-1.2340331 -0.02472,-0.0075 -0.04905,-0.01546 -0.0739,-0.02274 -0.01013,-0.0028 -0.02034,-0.0055 -0.03049,-0.0083 -2.962066,-0.8567067 -6.837378,-0.459223 -9.59838,-0.4981597 -1.169943,0.0165 -2.540303,-0.04555 -3.95635,-0.05736 z"
       inkscape:transform-center-x="-0.00047550002"
       inkscape:transform-center-y="-58.199954"
       sodipodi:insensitive="true" />
    <path
       id="path42"
       style="display:none;opacity:1;fill:#00aad4;fill-opacity:1;stroke-width:3.175;stroke-linecap:square;stroke-linejoin:round;paint-order:stroke markers fill"
       d="m 63.77724,-9.5388399 c -1.92574,-0.01606 -3.93562,0.06183 -5.64255,0.5555207 -0.01015,0.0028 -0.02036,0.0055 -0.03049,0.0083 -0.02484,0.0073 -0.04918,0.01528 -0.07389,0.02274 -0.90528,0.2577767 -1.72095,0.6479494 -2.39366,1.2340331 -0.81218,0.6872727 -1.40584,1.6260321 -1.67225,2.9067973 L 50.26024,14.725347 c -1.20259,6.342861 36.148775,6.342862 34.946185,0 L 81.502258,-4.8114828 C 81.235855,-6.09226 80.642204,-7.0310054 79.830009,-7.7182801 79.157305,-8.3043448 78.34161,-8.6945425 77.436357,-8.9523132 c -0.02472,-0.0075 -0.04905,-0.01546 -0.0739,-0.02274 -0.01013,-0.0028 -0.02034,-0.0055 -0.03049,-0.0083 -2.962066,-0.8567067 -6.837378,-0.459223 -9.59838,-0.4981597 -1.169943,0.0165 -2.540303,-0.04555 -3.95635,-0.05736 z"
       inkscape:transform-center-y="-62.762452"
       inkscape:transform-center-x="-2.7270509e-06"
       sodipodi:insensitive="true" />
    <path
       id="rect47"
       style="display:none;opacity:1;fill:#00aad4;stroke-width:3.175;stroke-linecap:square;stroke-linejoin:round;paint-order:stroke markers fill"
       inkscape:transform-center-x="1.5500001e-05"
       inkscape:transform-center-y="-48.696667"
       d="m 67.733098,-6.9840698 c -6.940409,-0.00414 -10.112722,0.1108377 -11.681848,1.3167148 -0.867773,0.5384965 -1.247041,1.2817519 -1.322184,2.2964903 L 53.182732,17.516231 c 0,0 7.519338,1.141088 14.093159,1.79059 -3.5e-5,0.02872 -4.67e-4,0.06391 -4.63e-4,0.0925 0.149597,-0.01387 0.30672,-0.03152 0.457654,-0.04599 0.151086,0.01448 0.308375,0.0321 0.458122,0.04599 0,-0.0286 -4.47e-4,-0.06377 -4.6e-4,-0.0925 6.573821,-0.649502 14.093159,-1.790588 14.093159,-1.790588 L 80.737582,-3.3708534 c -0.0752,-1.015836 -0.454747,-1.7594169 -1.324498,-2.2980514 -1.569909,-1.2042632 -4.742416,-1.3192999 -11.679519,-1.3151653 z" />
    <path
       id="path70"
       style="display:inline;opacity:1;mix-blend-mode:overlay;fill:url(#radialGradient71);stroke-width:2.01083;stroke-linecap:round;stroke-linejoin:round;paint-order:markers stroke fill"
       d="M 51.953257,3.8771206e-4 C 50.447367,0.01502471 48.233067,0.55924291 44.720107,1.5031383 h -5.2e-4 c -5.10921,1.3652317 -7.41935,2.0896326 -8.30027,3.4261478 -0.51739,0.630851 -0.6268,1.339594 -0.4501,2.220536 l 1.98334,9.8882849 a 62.42443,46.939942 0 0 0 -16.39176,9.622152 l -6.94428,-5.108732 c -0.54222,-0.398946 -1.06471,-0.61139 -1.62523,-0.607715 -0.18683,0.0012 -0.37782,0.02669 -0.57515,0.077 -1.58429,0.232171 -3.2169204,2.019597 -6.6151007,6.075081 -3.40217,4.048856 -4.87881005,5.966902 -4.83382005,7.56698 -0.062,0.813537 0.25483005,1.457116 0.90486005,2.077393 l 6.8068203,6.49521 a 62.42443,46.939942 0 0 0 -3.3703403,14.92002 62.42443,46.939942 0 0 0 0.0568,0.644405 h -0.0568 v 32.584057 a 2.2563048,2.2563048 0 0 1 0.44442,-0.06873 l 22.8451107,2.487185 a 2.2563048,2.2563048 0 0 1 0.0134,0.002 l 0.0362,0.004 a 2.2563048,2.2563048 0 0 1 0.4992,0.11524 2.2563048,2.2563048 0 0 1 0.0718,0.0274 2.2563048,2.2563048 0 0 1 0.44597,0.23306 2.2563048,2.2563048 0 0 1 0.0563,0.0372 2.2563048,2.2563048 0 0 1 0.39015,0.35915 2.2563048,2.2563048 0 0 1 0.0481,0.0579 2.2563048,2.2563048 0 0 1 0.27027,0.42582 2.2563048,2.2563048 0 0 1 0.0295,0.0589 2.2563048,2.2563048 0 0 1 0.1602,0.51004 2.2563048,2.2563048 0 0 1 0.009,0.0295 l 2.19883,12.575467 19.10891,2.08101 2.12649,-12.163087 a 2.2563048,2.2563048 0 0 1 0.0574,-0.18345 2.2563048,2.2563048 0 0 1 0.0708,-0.22479 2.2563048,2.2563048 0 0 1 0.20154,-0.39636 2.2563048,2.2563048 0 0 1 0.1142,-0.18035 2.2563048,2.2563048 0 0 1 0.38292,-0.38241 2.2563048,2.2563048 0 0 1 0.0837,-0.077 2.2563048,2.2563048 0 0 1 0.58498,-0.29765 2.2563048,2.2563048 0 0 1 0.1664,-0.0372 2.2563048,2.2563048 0 0 1 0.47749,-0.0755 2.2563048,2.2563048 0 0 1 0.0827,-0.0129 h 22.89783 a 2.2563048,2.2563048 0 0 1 0.0827,0.0129 2.2563048,2.2563048 0 0 1 0.47749,0.0755 2.2563048,2.2563048 0 0 1 0.16639,0.0372 2.2563048,2.2563048 0 0 1 0.58601,0.29869 2.2563048,2.2563048 0 0 1 0.0765,0.0703 2.2563048,2.2563048 0 0 1 0.38913,0.38912 2.2563048,2.2563048 0 0 1 0.11369,0.17932 2.2563048,2.2563048 0 0 1 0.20205,0.39635 2.2563048,2.2563048 0 0 1 0.0708,0.2248 2.2563048,2.2563048 0 0 1 0.0574,0.18345 l 2.12907,12.162567 19.105813,-2.08101 2.20193,-12.574947 a 2.2563048,2.2563048 0 0 1 0.0109,-0.0367 2.2563048,2.2563048 0 0 1 0.0563,-0.1788 2.2563048,2.2563048 0 0 1 0.1664,-0.43718 2.2563048,2.2563048 0 0 1 0.12558,-0.19947 2.2563048,2.2563048 0 0 1 0.26768,-0.33177 2.2563048,2.2563048 0 0 1 0.17518,-0.16174 2.2563048,2.2563048 0 0 1 0.36846,-0.24082 2.2563048,2.2563048 0 0 1 0.19223,-0.10025 2.2563048,2.2563048 0 0 1 0.51367,-0.14004 2.2563048,2.2563048 0 0 1 0.10076,-0.0274 l 0.0434,-0.005 a 2.2563048,2.2563048 0 0 1 10e-4,-5.2e-4 l 22.85183,-2.488217 a 2.2563048,2.2563048 0 0 1 0.44287,0.06873 v -32.58354 h -0.0563 a 62.42443,46.939942 0 0 0 0.0563,-0.644405 62.42443,46.939942 0 0 0 -3.52692,-15.237313 l 6.96392,-6.645072 c 0.65003,-0.620278 0.96685,-1.263856 0.90485,-2.077393 0.045,-1.600078 -1.43216,-3.518124 -4.83433,-7.56698 -3.39818,-4.055484 -5.03081,-5.842911 -6.6151,-6.075081 -0.19733,-0.05031 -0.38832,-0.07526 -0.57516,-0.07648 -0.56052,-0.0037 -1.08301,0.208252 -1.62522,0.607198 l -7.25847,5.340264 A 62.42443,46.939942 0 0 0 98.377109,17.392141 L 100.43125,7.1498721 c 0.17669,-0.880942 0.0673,-1.589685 -0.450101,-2.220536 C 99.100229,3.5928209 96.790087,2.86842 91.680877,1.5031883 h -5.2e-4 C 88.167397,0.55929291 85.953097,0.01507441 84.447207,4.3771206e-4 83.762717,-0.00621229 83.224717,0.09629071 82.777537,0.32083161 c -0.76202,0.287903 -1.21094,0.84671249 -1.49809,1.69705399 l -3.34037,9.8919024 a 62.42443,46.939942 0 0 0 -10.20506,-0.694014 h -5.2e-4 a 62.42443,46.939942 0 0 0 -9.32036,0.54932 l -3.29179,-9.7472084 c -0.28715,-0.8503415 -0.73607,-1.40915099 -1.4981,-1.69705399 -0.44717,-0.2245405 -0.98517,-0.3270469 -1.66966,-0.32039389794 z M 31.545197,49.375668 a 13.58092,13.58092 0 0 1 13.58057,13.581083 13.58092,13.58092 0 0 1 -13.58057,13.581083 13.58092,13.58092 0 0 1 -13.58057,-13.581083 13.58092,13.58092 0 0 1 13.58057,-13.581083 z m 72.273113,0.0956 A 13.58092,13.58092 0 0 1 117.39939,63.052352 13.58092,13.58092 0 0 1 103.81831,76.633435 13.58092,13.58092 0 0 1 90.237737,63.052352 13.58092,13.58092 0 0 1 103.81831,49.471269 Z m -36.085143,5.432744 c 4.39062,0 7.92562,3.534476 7.92562,7.925097 v 15.87655 c 0,4.39062 -3.535,7.925098 -7.92562,7.925098 -4.39062,0 -7.92561,-3.534478 -7.92561,-7.925098 v -15.87655 c 0,-4.390621 3.53499,-7.925097 7.92561,-7.925097 z M 5.3085563,95.804873 v 11.822017 h 0.003 a 62.42443,27.827313 0 0 0 -0.003,0.0124 62.42443,27.827313 0 0 0 62.4251307,27.82724 62.42443,27.827313 0 0 0 62.424103,-27.82724 62.42443,27.827313 0 0 0 -5.2e-4,-0.0124 h 5.2e-4 V 95.804873 l -21.16409,2.30477 -2.20193,12.575977 a 2.2563048,2.2563048 0 0 1 -0.003,0.008 2.2563048,2.2563048 0 0 1 -0.48421,1.04386 2.2563048,2.2563048 0 0 1 -0.008,0.0103 2.2563048,2.2563048 0 0 1 -0.4284,0.39429 2.2563048,2.2563048 0 0 0 -5.1e-4,5.1e-4 2.2563048,2.2563048 0 0 1 -0.50902,0.26614 2.2563048,2.2563048 0 0 1 -0.0233,0.0103 2.2563048,2.2563048 0 0 1 -0.52038,0.12248 l -22.896803,2.49132 a 2.2563048,2.2563048 0 0 1 -0.14056,-0.007 2.2563048,2.2563048 0 0 1 -0.45992,-0.0222 2.2563048,2.2563048 0 0 1 -0.22066,-0.0491 2.2563048,2.2563048 0 0 1 -0.40979,-0.15606 2.2563048,2.2563048 0 0 1 -0.20257,-0.10542 2.2563048,2.2563048 0 0 1 -0.36432,-0.29353 2.2563048,2.2563048 0 0 1 -0.13849,-0.12764 2.2563048,2.2563048 0 0 1 -0.35657,-0.54518 2.2563048,2.2563048 0 0 1 -0.0336,-0.10542 2.2563048,2.2563048 0 0 1 -0.13849,-0.44184 l -2.1666,-12.38055 h -19.10684 l -2.16421,12.38064 a 2.2563048,2.2563048 0 0 1 -0.15451,0.493 2.2563048,2.2563048 0 0 1 -0.015,0.0475 2.2563048,2.2563048 0 0 1 -0.36484,0.55759 2.2563048,2.2563048 0 0 1 -0.11317,0.10438 2.2563048,2.2563048 0 0 1 -0.39429,0.31626 2.2563048,2.2563048 0 0 1 -0.18242,0.0951 2.2563048,2.2563048 0 0 1 -0.42788,0.16226 2.2563048,2.2563048 0 0 1 -0.2098,0.047 2.2563048,2.2563048 0 0 1 -0.46716,0.0233 2.2563048,2.2563048 0 0 1 -0.13798,0.007 l -22.89472,-2.4908 a 2.2563048,2.2563048 0 0 1 -0.12299,-0.0336 2.2563048,2.2563048 0 0 1 -0.48989,-0.13385 2.2563048,2.2563048 0 0 1 -0.19948,-0.10438 2.2563048,2.2563048 0 0 1 -0.3607,-0.23616 2.2563048,2.2563048 0 0 1 -0.17931,-0.16485 2.2563048,2.2563048 0 0 1 -0.26924,-0.33486 2.2563048,2.2563048 0 0 1 -0.12195,-0.19172 2.2563048,2.2563048 0 0 1 -0.17415,-0.45941 2.2563048,2.2563048 0 0 1 -0.0486,-0.15606 2.2563048,2.2563048 0 0 1 -0.0129,-0.0413 l -2.20193,-12.576277 z" />
    <path
       id="path64"
       clip-path="url(#clipPath68)"
       style="color:#000000;display:inline;mix-blend-mode:soft-light;fill:#000000;stroke-linecap:round;stroke-linejoin:round;-inkscape-stroke:none;paint-order:markers stroke fill;filter:url(#filter68)"
       d="m 194.20055,-19.734196 c -1.87269,0.01831 -4.10333,0.609326 -7.62848,1.556494 -7.3e-4,1.96e-4 -5.5e-4,-1.96e-4 -0.002,0 -2.56341,0.684982 -4.44569,1.209355 -5.90248,1.77922 -1.42229,0.556366 -2.52319,1.198367 -3.24425,2.24224 -0.77681,0.991513 -0.97743,2.328125 -0.74827,3.470589 l 1.74253,8.6955936 c -5.37165,2.30181938 -10.26984,5.1754835 -14.56449,8.5545165 l -6.03322,-4.4395222 c -0.71764,-0.5280151 -1.60799,-0.9220536 -2.57607,-0.9157064 -0.28323,0.00182 -0.56239,0.04757 -0.83613,0.1090373 -1.27325,0.2000421 -2.33097,0.9420296 -3.45095,2.0096964 -1.13286,1.0799492 -2.40358,2.5640544 -4.10931,4.5997192 -1.70774,2.0323449 -2.94805,3.5409396 -3.81475,4.8436316 -0.8457,1.271149 -1.38086,2.429204 -1.37304,3.697449 -0.0676,1.257636 0.53559,2.467094 1.37872,3.271635 l 6.08232,5.804297 c -1.96459,4.6674 -3.09524,9.529137 -3.13676,14.449247 -7e-4,0.04637 6.4e-4,0.09275 0.004,0.139009 0.0124,0.157507 0.0284,0.314924 0.0429,0.472323 -0.016,0.01535 -0.0317,0.03103 -0.047,0.04703 v 32.584058 c 2.9e-4,1.037667 0.97962,1.796141 1.98437,1.536857 0.0165,-0.0043 0.0345,-0.0048 0.0512,-0.0078 l 1.13791,-3.070053 V 40.773221 c 0.0249,-0.08997 0.0419,-0.181969 0.0506,-0.274918 -0.0168,-0.172573 -0.0328,-0.345106 -0.047,-0.517798 0.0467,-4.83539 1.12893,-9.636083 3.22461,-14.234273 0.27997,-0.61517 0.13979,-1.340152 -0.34933,-1.806608 l -6.80682,-6.496244 c -0.43964,-0.419516 -0.44411,-0.464988 -0.41807,-0.80667 0.004,-0.05519 0.006,-0.110555 0.004,-0.165881 -0.008,-0.294459 0.14846,-0.872925 0.85938,-1.941483 0.71092,-1.068559 1.90897,-2.543943 3.60339,-4.5604456 h 0.002 c 1.69245,-2.0198111 2.93634,-3.4561801 3.8654,-4.3418538 0.92907,-0.8856736 1.4704,-1.1412244 1.76165,-1.183907 0.0546,-0.00751 0.10875,-0.017862 0.16226,-0.031006 0.0841,-0.021445 0.14387,-0.029139 0.19327,-0.029456 0.15296,-0.001 0.30914,0.029331 0.67593,0.2992065 v 0.00155 l 6.94325,5.1076985 c 0.58527,0.4305044 1.38809,0.4087954 1.94923,-0.05271 4.57579,-3.7628762 9.97765,-6.9372618 15.98145,-9.37720524 0.70606,-0.28712712 1.10845,-1.03549875 0.9586,-1.78283686 l -1.98231,-9.8888025 c -0.11956,-0.596076 -0.0964,-0.635805 0.12093,-0.90072 0.0348,-0.04255 0.0675,-0.08688 0.0977,-0.132808 0.16208,-0.245897 0.62107,-0.63001 1.81643,-1.097608 1.19498,-0.467447 3.02328,-0.990045 5.56659,-1.669665 h 0.002 0.002 c 3.49919,-0.940194 5.69923,-1.438455 6.83783,-1.449524 0.51794,-0.005 0.77702,0.0701 0.94102,0.152445 0.0489,0.0248 0.0991,0.04705 0.15038,0.06666 0.31953,0.120724 0.36087,0.145474 0.55501,0.720369 l 3.29282,9.7461756 c 0.23991,0.7098645 0.94347,1.1553527 1.68775,1.0686686 3.01977,-0.3505549 6.07016,-0.5294109 9.12658,-0.5374349 3.35579,0.020264 6.70479,0.2469123 10.00972,0.6795451 0.751,0.097716 1.46647,-0.3486128 1.70894,-1.0660848 l 3.34192,-9.8908696 c 0.19415,-0.574915 0.23548,-0.599647 0.555,-0.720369 0.0512,-0.01961 0.10144,-0.04186 0.15038,-0.06666 0.16406,-0.08238 0.42322,-0.157513 0.94103,-0.152445 1.13858,0.01107 3.33864,0.50933 6.83782,1.449524 0.001,2e-6 0.003,2e-6 0.004,0 2.54331,0.67962 4.37161,1.202218 5.56658,1.669665 1.19536,0.467597 1.65436,0.851717 1.81643,1.097608 0.0302,0.04593 0.0629,0.09026 0.0977,0.132808 0.21727,0.264899 0.24048,0.304615 0.12092,0.90072 l -2.05259,10.2422693 c -0.1487,0.73922552 0.24306,1.48106782 0.93741,1.77508539 5.53813,2.34270231 10.54314,5.31725231 14.83217,8.80308011 0.56112,0.4556542 1.35919,0.4747723 1.94149,0.046509 l 7.25743,-5.3417927 c 0.36628,-0.2694986 0.52002,-0.2976384 0.67386,-0.2966228 0.0526,3.433e-4 0.11232,0.00661 0.19379,0.027389 0.0533,0.013127 0.10733,0.023476 0.16175,0.031006 0.29126,0.042683 0.83258,0.2961668 1.76165,1.18184 0.92907,0.8856732 2.17501,2.3220426 3.86746,4.3418538 l 0.002,0.00155 c 1.69445,2.0165339 2.89234,3.4923689 3.6034,4.5609619 0.71106,1.068593 0.86766,1.646684 0.85938,1.940967 -0.002,0.05481 -1.7e-4,0.109659 0.004,0.164331 0.026,0.341695 0.0216,0.389224 -0.41806,0.808736 l -6.96495,6.646106 c -0.49275,0.470669 -0.63021,1.203286 -0.34158,1.820561 2.1925,4.693125 3.3237,9.601625 3.37292,14.548982 -0.0138,0.1694 -0.0287,0.338178 -0.045,0.507463 0.0148,0.05307 0.0324,0.105336 0.0527,0.15658 l -0.004,-0.0041 V 71.6954 l 1.14102,3.069963 c 0.0163,0.0029 0.0326,0.0037 0.0486,0.0078 0.0427,-0.0072 0.0851,-0.01618 0.12712,-0.02687 0.94966,0.165503 1.82647,-0.546572 1.85932,-1.509985 v -32.58401 c -0.0153,-0.016 -0.031,-0.03168 -0.047,-0.04703 0.0144,-0.158044 0.031,-0.316238 0.0434,-0.47439 0.003,-0.04557 0.005,-0.09126 0.004,-0.136942 -0.0457,-5.034913 -1.22985,-10.007256 -3.28714,-14.771191 l 6.23269,-5.949508 c 0.84314,-0.804546 1.44628,-2.013494 1.37873,-3.271118 0.008,-1.268407 -0.52721,-2.4284 -1.37304,-3.699516 -0.86642,-1.30208 -2.1077,-2.8106199 -3.81424,-4.8415648 l -0.002,-0.00207 C 271.43844,5.4247137 270.1676,3.940791 269.03525,2.861324 267.91528,1.7936566 266.85757,1.0516682 265.5843,0.85162759 c -0.27551,-0.0616841 -0.55564,-0.1077226 -0.83612,-0.10955403 -0.9672,-0.006384 -1.85792,0.38783124 -2.57607,0.91622314 l -6.34794,4.6699991 c -3.98548,-3.0997474 -8.48314,-5.76776739 -13.39246,-7.9535196 l 1.81849,-9.0604292 c 0.22914,-1.142434 0.0286,-2.479061 -0.74827,-3.470589 -0.72105,-1.043878 -1.82196,-1.685873 -3.24425,-2.24224 -1.45679,-0.569865 -3.33855,-1.094238 -5.90196,-1.77922 h -0.002 c -3.52546,-0.94725 -5.7562,-1.538291 -7.62899,-1.556494 -0.82277,-0.0081 -1.60525,0.132961 -2.31665,0.472323 -1.16087,0.473075 -1.99954,1.523361 -2.37092,2.623096 l -2.94917,8.7364171 c -3.00906,-0.345434 -6.03803,-0.5986351 -9.08214,-0.6170166 -0.003,-1.05e-5 -0.007,-1.05e-5 -0.01,0 -10e-4,-1.7e-6 -0.003,-1.7e-6 -0.004,0 -2.7449,0.00674 -5.4785,0.2112631 -8.19898,0.4842081 l -2.90473,-8.6036086 c -0.37137,-1.099755 -1.21005,-2.150023 -2.37092,-2.623096 -0.71131,-0.339305 -1.49367,-0.480253 -2.31614,-0.472323 z m -46.4566,95.812236 c -0.94011,-0.102404 -1.76074,0.634596 -1.75958,1.580265 v 11.81995 l 0.002,0.0021 c -6.8e-4,0.004 -0.001,0.0079 -0.002,0.01189 3e-5,4.323322 1.98414,8.385119 5.34179,11.923815 3.35766,3.5387 8.09739,6.62406 13.88288,9.20306 11.57098,5.15799 27.3576,8.28744 44.78693,8.28735 17.42913,-4e-5 33.21616,-3.12937 44.78692,-8.28735 5.7854,-2.579 10.52528,-5.66439 13.88288,-9.20306 3.35758,-3.538668 5.34177,-7.600543 5.34179,-11.923815 2e-5,-0.0045 2e-5,-0.009 0,-0.01344 v -0.0041 c 1.1e-4,-0.01102 1.1e-4,-0.02205 0,-0.03307 v -11.78326 c 10e-4,-0.945669 -0.81947,-1.682669 -1.75958,-1.580265 l -1.41368,3.349395 v 10.050549 l 0.0408,-0.04082 c -0.0149,0.03533 -0.0285,0.07118 -0.0408,0.107487 v -0.05271 c -10e-6,3.36097 -1.51098,6.618713 -4.47105,9.738423 -2.96006,3.119716 -7.36199,6.031126 -12.87311,8.487856 -11.02224,4.91346 -26.44731,8.01187 -43.49399,8.01191 -17.04687,8e-5 -32.47153,-3.09844 -43.49398,-8.01191 -5.51123,-2.45674 -9.91299,-5.36811 -12.87312,-8.487856 -2.96014,-3.119738 -4.47051,-6.377413 -4.47053,-9.738423 l -0.0413,0.357601 c 0.011,-0.147905 0.001,-0.296629 -0.0289,-0.441834 l 0.0703,0.07028 -5.1e-4,-10.050549 z"
       sodipodi:nodetypes="sscscccccccscscccccccccccccccccscsccsccscccccccccscccsccccccccccccccsscccccccsccsccssccccccccccccccccccccsccscccccccsccccccssccccsscccccsscsssssccccccccssssscccccc"
       transform="translate(-142.2626,18.14736)"
       inkscape:label="shade" />
    <ellipse
       style="opacity:1;fill:url(#radialGradient73);stroke:none;stroke-width:3.175;stroke-linecap:square;stroke-linejoin:round;stroke-dasharray:none;stroke-opacity:1;paint-order:stroke markers fill"
       id="path71"
       cx="44.791969"
       cy="44.14436"
       rx="61.237534"
       ry="37.846878"
       transform="rotate(-14.989047)"
       clip-path="url(#clipPath74)" />
  </g>
  <metadata
     id="metadata1">
    <rdf:RDF>
      <cc:Work
         rdf:about="">
        <dc:creator>
          <cc:Agent>
            <dc:title>Jess Tipton</dc:title>
          </cc:Agent>
        </dc:creator>
        <dc:publisher>
          <cc:Agent>
            <dc:title>m0dw3rks.com</dc:title>
          </cc:Agent>
        </dc:publisher>
        <cc:license
           rdf:resource="https://creativecommons.org/licenses/by-nc-nd/4.0/deed.en" />
      </cc:Work>
    </rdf:RDF>
  </metadata>
  <metadata
     id="metadata6">
    <rdf:RDF>
      <cc:Work
         rdf:about="">
        <dc:creator>
          <cc:Agent>
            <dc:title>Jess Tipton</dc:title>
          </cc:Agent>
        </dc:creator>
        <cc:license
           rdf:resource="https://creativecommons.org/licenses/by-nc-nd/4.0/deed.en" />
        <dc:publisher>
          <cc:Agent>
            <dc:title>m0dw3rks.com</dc:title>
          </cc:Agent>
        </dc:publisher>
      </cc:Work>
    </rdf:RDF>
  </metadata>
  <metadata
     id="metadata6">
    <rdf:RDF>
      <cc:Work
         rdf:about="">
        <dc:creator>
          <cc:Agent>
            <dc:title>Jess Tipton</dc:title>
          </cc:Agent>
        </dc:creator>
        <cc:license
           rdf:resource="https://creativecommons.org/licenses/by-nc-nd/4.0/deed.en" />
        <dc:publisher>
          <cc:Agent>
            <dc:title>m0dw3rks.com</dc:title>
          </cc:Agent>
        </dc:publisher>
      </cc:Work>
    </rdf:RDF>
  </metadata>
  <metadata
     id="metadata6">
    <rdf:RDF>
      <cc:Work
         rdf:about="">
        <dc:creator>
          <cc:Agent>
            <dc:title>Jess Tipton</dc:title>
          </cc:Agent>
        </dc:creator>
        <cc:license
           rdf:resource="https://creativecommons.org/licenses/by-nc-nd/4.0/deed.en" />
        <dc:publisher>
          <cc:Agent>
            <dc:title>m0dw3rks.com</dc:title>
          </cc:Agent>
        </dc:publisher>
      </cc:Work>
    </rdf:RDF>
  </metadata>
  <metadata
     id="metadata6">
    <rdf:RDF>
      <cc:Work
         rdf:about="">
        <dc:creator>
          <cc:Agent>
            <dc:title>Jess Tipton</dc:title>
          </cc:Agent>
        </dc:creator>
        <cc:license
           rdf:resource="https://creativecommons.org/licenses/by-nc-nd/4.0/deed.en" />
        <dc:publisher>
          <cc:Agent>
            <dc:title>m0dw3rks.com</dc:title>
          </cc:Agent>
        </dc:publisher>
      </cc:Work>
    </rdf:RDF>
  </metadata>
  <metadata
     id="metadata6">
    <rdf:RDF>
      <cc:Work
         rdf:about="">
        <dc:creator>
          <cc:Agent>
            <dc:title>Jess Tipton</dc:title>
          </cc:Agent>
        </dc:creator>
        <cc:license
           rdf:resource="https://creativecommons.org/licenses/by-nc-nd/4.0/deed.en" />
        <dc:publisher>
          <cc:Agent>
            <dc:title>m0dw3rks.com</dc:title>
          </cc:Agent>
        </dc:publisher>
      </cc:Work>
    </rdf:RDF>
  </metadata>
  <metadata
     id="metadata6">
    <rdf:RDF>
      <cc:Work
         rdf:about="">
        <dc:creator>
          <cc:Agent>
            <dc:title>Jess Tipton</dc:title>
          </cc:Agent>
        </dc:creator>
        <cc:license
           rdf:resource="https://creativecommons.org/licenses/by-nc-nd/4.0/deed.en" />
        <dc:publisher>
          <cc:Agent>
            <dc:title>m0dw3rks.com</dc:title>
          </cc:Agent>
        </dc:publisher>
      </cc:Work>
    </rdf:RDF>
  </metadata>
  <metadata
     id="metadata6">
    <rdf:RDF>
      <cc:Work
         rdf:about="">
        <dc:creator>
          <cc:Agent>
            <dc:title>Jess Tipton</dc:title>
          </cc:Agent>
        </dc:creator>
        <cc:license
           rdf:resource="https://creativecommons.org/licenses/by-nc-nd/4.0/deed.en" />
        <dc:publisher>
          <cc:Agent>
            <dc:title>m0dw3rks.com</dc:title>
          </cc:Agent>
        </dc:publisher>
      </cc:Work>
    </rdf:RDF>
  </metadata>
  <metadata
     id="metadata6">
    <rdf:RDF>
      <cc:Work
         rdf:about="">
        <dc:creator>
          <cc:Agent>
            <dc:title>Jess Tipton</dc:title>
          </cc:Agent>
        </dc:creator>
        <cc:license
           rdf:resource="https://creativecommons.org/licenses/by-nc-nd/4.0/deed.en" />
        <dc:publisher>
          <cc:Agent>
            <dc:title>m0dw3rks.com</dc:title>
          </cc:Agent>
        </dc:publisher>
      </cc:Work>
    </rdf:RDF>
  </metadata>
  <metadata
     id="metadata6">
    <rdf:RDF>
      <cc:Work
         rdf:about="">
        <dc:creator>
          <cc:Agent>
            <dc:title>Jess Tipton</dc:title>
          </cc:Agent>
        </dc:creator>
        <cc:license
           rdf:resource="https://creativecommons.org/licenses/by-nc-nd/4.0/deed.en" />
        <dc:publisher>
          <cc:Agent>
            <dc:title>m0dw3rks.com</dc:title>
          </cc:Agent>
        </dc:publisher>
      </cc:Work>
    </rdf:RDF>
  </metadata>
  <metadata
     id="metadata6">
    <rdf:RDF>
      <cc:Work
         rdf:about="">
        <dc:creator>
          <cc:Agent>
            <dc:title>Jess Tipton</dc:title>
          </cc:Agent>
        </dc:creator>
        <cc:license
           rdf:resource="https://creativecommons.org/licenses/by-nc-nd/4.0/deed.en" />
        <dc:publisher>
          <cc:Agent>
            <dc:title>m0dw3rks.com</dc:title>
          </cc:Agent>
        </dc:publisher>
      </cc:Work>
    </rdf:RDF>
  </metadata>
  <metadata
     id="metadata6">
    <rdf:RDF>
      <cc:Work
         rdf:about="">
        <dc:creator>
          <cc:Agent>
            <dc:title>Jess Tipton</dc:title>
          </cc:Agent>
        </dc:creator>
        <cc:license
           rdf:resource="https://creativecommons.org/licenses/by-nc-nd/4.0/deed.en" />
        <dc:publisher>
          <cc:Agent>
            <dc:title>m0dw3rks.com</dc:title>
          </cc:Agent>
        </dc:publisher>
      </cc:Work>
    </rdf:RDF>
  </metadata>
  <metadata
     id="metadata6">
    <rdf:RDF>
      <cc:Work
         rdf:about="">
        <dc:creator>
          <cc:Agent>
            <dc:title>Jess Tipton</dc:title>
          </cc:Agent>
        </dc:creator>
        <cc:license
           rdf:resource="https://creativecommons.org/licenses/by-nc-nd/4.0/deed.en" />
        <dc:publisher>
          <cc:Agent>
            <dc:title>m0dw3rks.com</dc:title>
          </cc:Agent>
        </dc:publisher>
      </cc:Work>
    </rdf:RDF>
  </metadata>
  <metadata
     id="metadata6">
    <rdf:RDF>
      <cc:Work
         rdf:about="">
        <dc:creator>
          <cc:Agent>
            <dc:title>Jess Tipton</dc:title>
          </cc:Agent>
        </dc:creator>
        <cc:license
           rdf:resource="https://creativecommons.org/licenses/by-nc-nd/4.0/deed.en" />
        <dc:publisher>
          <cc:Agent>
            <dc:title>m0dw3rks.com</dc:title>
          </cc:Agent>
        </dc:publisher>
      </cc:Work>
    </rdf:RDF>
  </metadata>
  <metadata
     id="metadata6">
    <rdf:RDF>
      <cc:Work
         rdf:about="">
        <dc:creator>
          <cc:Agent>
            <dc:title>Jess Tipton</dc:title>
          </cc:Agent>
        </dc:creator>
        <cc:license
           rdf:resource="https://creativecommons.org/licenses/by-nc-nd/4.0/deed.en" />
        <dc:publisher>
          <cc:Agent>
            <dc:title>m0dw3rks.com</dc:title>
          </cc:Agent>
        </dc:publisher>
      </cc:Work>
    </rdf:RDF>
  </metadata>
  <metadata
     id="metadata6">
    <rdf:RDF>
      <cc:Work
         rdf:about="">
        <dc:creator>
          <cc:Agent>
            <dc:title>Jess Tipton</dc:title>
          </cc:Agent>
        </dc:creator>
        <cc:license
           rdf:resource="https://creativecommons.org/licenses/by-nc-nd/4.0/deed.en" />
        <dc:publisher>
          <cc:Agent>
            <dc:title>m0dw3rks.com</dc:title>
          </cc:Agent>
        </dc:publisher>
      </cc:Work>
    </rdf:RDF>
  </metadata>
  <metadata
     id="metadata6">
    <rdf:RDF>
      <cc:Work
         rdf:about="">
        <dc:creator>
          <cc:Agent>
            <dc:title>Jess Tipton</dc:title>
          </cc:Agent>
        </dc:creator>
        <cc:license
           rdf:resource="https://creativecommons.org/licenses/by-nc-nd/4.0/deed.en" />
        <dc:publisher>
          <cc:Agent>
            <dc:title>m0dw3rks.com</dc:title>
          </cc:Agent>
        </dc:publisher>
      </cc:Work>
    </rdf:RDF>
  </metadata>
  <metadata
     id="metadata6">
    <rdf:RDF>
      <cc:Work
         rdf:about="">
        <dc:creator>
          <cc:Agent>
            <dc:title>Jess Tipton</dc:title>
          </cc:Agent>
        </dc:creator>
        <cc:license
           rdf:resource="https://creativecommons.org/licenses/by-nc-nd/4.0/deed.en" />
        <dc:publisher>
          <cc:Agent>
            <dc:title>m0dw3rks.com</dc:title>
          </cc:Agent>
        </dc:publisher>
      </cc:Work>
    </rdf:RDF>
  </metadata>
</svg>
