<?xml version="1.0" encoding="UTF-8" standalone="no"?>
<!-- Created with Inkscape (http://www.inkscape.org/) -->

<svg
   width="512"
   height="512"
   viewBox="0 0 135.46666 135.46667"
   version="1.1"
   id="svg5"
   inkscape:version="1.2.1 (9c6d41e410, 2022-07-14, custom)"
   sodipodi:docname="application-x-php.svg"
   xmlns:inkscape="http://www.inkscape.org/namespaces/inkscape"
   xmlns:sodipodi="http://sodipodi.sourceforge.net/DTD/sodipodi-0.dtd"
   xmlns="http://www.w3.org/2000/svg"
   xmlns:svg="http://www.w3.org/2000/svg">
  <sodipodi:namedview
     id="namedview7"
     pagecolor="#505050"
     bordercolor="#ffffff"
     borderopacity="1"
     inkscape:showpageshadow="0"
     inkscape:pageopacity="0"
     inkscape:pagecheckerboard="1"
     inkscape:deskcolor="#505050"
     inkscape:document-units="px"
     showgrid="false"
     inkscape:zoom="2.2428543"
     inkscape:cx="189.49068"
     inkscape:cy="292.9303"
     inkscape:window-width="3252"
     inkscape:window-height="1076"
     inkscape:window-x="1864"
     inkscape:window-y="0"
     inkscape:window-maximized="0"
     inkscape:current-layer="layer1" />
  <defs
     id="defs2" />
  <g
     inkscape:label="Layer 1"
     inkscape:groupmode="layer"
     id="layer1">
    <ellipse
       style="fill:#474a8a;fill-opacity:1;stroke:none;stroke-width:15.875;stroke-linecap:round;stroke-linejoin:round;paint-order:fill markers stroke"
       id="path792"
       cx="67.73333"
       cy="67.73333"
       rx="67.73333"
       ry="41.861504" />
    <path
       id="path792-6"
       style="fill:#787cb5;fill-opacity:1;stroke:none;stroke-width:15.875;stroke-linecap:round;stroke-linejoin:round;paint-order:fill markers stroke"
       d="M 67.733332 25.871806 A 67.73333 41.861504 0 0 0 0 67.733332 A 67.73333 41.861504 0 0 0 23.583056 99.448192 A 67.73333 41.861504 0 0 1 5.9541585 71.302624 A 67.73333 41.861504 0 0 1 73.687491 29.441097 A 67.73333 41.861504 0 0 1 117.58404 39.423433 A 67.73333 41.861504 0 0 0 67.733332 25.871806 z " />
    <g
       aria-label="php"
       transform="skewX(-14.691347)"
       id="text4064"
       style="font-size:52.2158px;line-height:1.25;display:inline;stroke-width:2.22197081;stroke-linecap:round;paint-order:stroke fill markers;stroke:#ffffff;stroke-opacity:1;stroke-dasharray:none;stroke-linejoin:round"
       inkscape:label="font-reference">
      <path
         d="m 47.802199,91.674277 0,-30.337381 c 0,-0.348105 0.03481,-0.818048 0.104432,-1.409827 0.382916,-3.307001 2.106037,-5.238985 5.169364,-5.795953 0.382916,-0.06962 0.696211,-0.104432 0.939885,-0.104432 h 9.973218 c 0.382915,0 0.852857,0.05222 1.409826,0.156647 3.515864,0.661401 5.273796,2.941491 5.273796,6.84027 v 14.202698 c 0,1.218369 -0.417726,2.384522 -1.253179,3.498459 -0.174053,0.208863 -0.435132,0.487348 -0.783237,0.835453 -1.322801,1.253179 -2.802248,1.879769 -4.438343,1.879769 h -9.45106 l 0,10.234297 z m 6.996918,-18.849905 c 0.139242,0.939885 0.713616,1.479448 1.723121,1.61869 0.06962,0.03481 0.208863,0.05222 0.417726,0.05222 h 5.273796 c 0.452537,-0.104431 0.818048,-0.313295 1.096532,-0.62659 0.278485,-0.452537 0.417727,-0.783237 0.417727,-0.9921 v -10.49538 c -0.139243,-0.731021 -0.574374,-1.183558 -1.305395,-1.357611 -0.06962,-0.03481 -0.156648,-0.05222 -0.261079,-0.05222 h -5.430444 c -0.800642,0 -1.375016,0.400321 -1.723121,1.200964 -0.174053,0.313295 -0.261079,0.609184 -0.261079,0.887669 l 0,9.346628 c 0,0.174053 0.01741,0.313295 0.05222,0.417726 z"
         style="font-family:'Continuum Bold';-inkscape-font-specification:'Continuum Bold, Normal';stroke:#ffffff;stroke-opacity:1;stroke-width:2.22197081;stroke-dasharray:none;stroke-linecap:round;stroke-linejoin:round"
         id="path9245"
         sodipodi:nodetypes="cscssscssccscccscsccsccsscssss" />
      <path
         d="M 75.476609,81.43998 V 43.792387 h 6.944702 v 10.234297 h 9.45106 q 2.715221,0 4.490559,1.775337 1.827553,1.775337 1.827553,4.490559 v 21.1474 h -6.892486 l -0.05222,-19.1632 q 0,-1.148747 -1.357611,-1.305395 h -5.482659 q -1.670906,0 -1.9842,1.305395 v 19.1632 z"
         style="font-family:'Continuum Bold';-inkscape-font-specification:'Continuum Bold, Normal';stroke:#ffffff;stroke-opacity:1;stroke-width:2.22197081;stroke-dasharray:none;stroke-linecap:round;stroke-linejoin:round"
         id="path9247" />
      <path
         d="M 102.99436,91.674277 V 61.336896 c 0,-0.348105 0.0348,-0.818048 0.10443,-1.409827 0.38292,-3.307001 2.10604,-5.238985 5.16937,-5.795953 0.38291,-0.06962 0.69621,-0.104432 0.93988,-0.104432 h 9.97322 c 0.38291,0 0.85286,0.05222 1.40983,0.156647 3.51586,0.661401 5.27379,2.941491 5.27379,6.84027 v 14.202698 c 0,1.218369 -0.41773,2.384522 -1.25318,3.498459 -0.17405,0.208863 -0.43513,0.487348 -0.78323,0.835453 -1.3228,1.253179 -2.80225,1.879769 -4.43835,1.879769 h -9.45106 l 0,10.234297 z m 6.99692,-18.849905 c 0.13924,0.939885 0.71361,1.479448 1.72312,1.61869 0.0696,0.03481 0.20886,0.05222 0.41773,0.05222 h 5.27379 c 0.45254,-0.104431 0.81805,-0.313295 1.09653,-0.62659 0.27849,-0.452537 0.41773,-0.783237 0.41773,-0.9921 v -10.49538 c -0.13924,-0.731021 -0.57437,-1.183558 -1.30539,-1.357611 -0.0696,-0.03481 -0.15665,-0.05222 -0.26108,-0.05222 h -5.43045 c -0.80064,0 -1.37501,0.400321 -1.72312,1.200964 -0.17405,0.313295 -0.26108,0.609184 -0.26108,0.887669 l 0,9.346628 c 0,0.174053 0.0174,0.313295 0.0522,0.417726 z"
         style="font-family:'Continuum Bold';-inkscape-font-specification:'Continuum Bold, Normal';stroke:#ffffff;stroke-opacity:1;stroke-width:2.22197081;stroke-dasharray:none;stroke-linecap:round;stroke-linejoin:round"
         id="path9249"
         sodipodi:nodetypes="cscssscssccscccscsccsccsscssss" />
    </g>
    <text
       xml:space="preserve"
       style="font-style:normal;font-weight:normal;font-size:52.2158px;line-height:1.25;font-family:sans-serif;display:none;fill:#000000;fill-opacity:1;stroke:#ffffff;stroke-width:2.22185;stroke-linecap:square;stroke-dasharray:none;stroke-opacity:1;paint-order:stroke fill markers"
       x="45.400272"
       y="81.43998"
       id="text9243"
       transform="skewX(-14.691347)"
       inkscape:label="font-reference"><tspan
         sodipodi:role="line"
         id="tspan9241"
         style="font-style:normal;font-variant:normal;font-weight:normal;font-stretch:normal;font-size:52.2158px;font-family:'Continuum Bold';-inkscape-font-specification:'Continuum Bold, Normal';font-variant-ligatures:normal;font-variant-caps:normal;font-variant-numeric:normal;font-variant-east-asian:normal;fill:#000000;stroke:#ffffff;stroke-width:2.22185;stroke-linecap:square;stroke-dasharray:none;stroke-opacity:1;paint-order:stroke fill markers"
         x="0"
         y="0">php</tspan></text>
  </g>
</svg>
