<?xml version="1.0" encoding="UTF-8" standalone="no"?>
<!-- Created with Inkscape (http://www.inkscape.org/) -->

<svg
   width="512"
   height="512"
   viewBox="0 0 135.46666 135.46667"
   version="1.1"
   id="svg5"
   inkscape:version="1.2.1 (9c6d41e410, 2022-07-14, custom)"
   sodipodi:docname="application-vnd.oasis.opendocument.text.svg"
   xmlns:inkscape="http://www.inkscape.org/namespaces/inkscape"
   xmlns:sodipodi="http://sodipodi.sourceforge.net/DTD/sodipodi-0.dtd"
   xmlns:xlink="http://www.w3.org/1999/xlink"
   xmlns="http://www.w3.org/2000/svg"
   xmlns:svg="http://www.w3.org/2000/svg"
   xmlns:rdf="http://www.w3.org/1999/02/22-rdf-syntax-ns#"
   xmlns:cc="http://creativecommons.org/ns#"
   xmlns:dc="http://purl.org/dc/elements/1.1/">>
  <sodipodi:namedview
     id="namedview7"
     pagecolor="#505050"
     bordercolor="#ffffff"
     borderopacity="1"
     inkscape:showpageshadow="0"
     inkscape:pageopacity="0"
     inkscape:pagecheckerboard="1"
     inkscape:deskcolor="#505050"
     inkscape:document-units="mm"
     showgrid="false"
     inkscape:zoom="0.79296874"
     inkscape:cx="320.31527"
     inkscape:cy="455.25124"
     inkscape:window-width="3252"
     inkscape:window-height="1076"
     inkscape:window-x="1864"
     inkscape:window-y="0"
     inkscape:window-maximized="0"
     inkscape:current-layer="layer1" />
  <defs
     id="defs2">
    <linearGradient
       inkscape:collect="always"
       xlink:href="#linearGradient1389-3"
       id="linearGradient3016-9"
       x1="0"
       y1="0"
       x2="135.46666"
       y2="135.46666"
       gradientUnits="userSpaceOnUse"
       gradientTransform="translate(-1.3333333e-6)" />
    <linearGradient
       inkscape:collect="always"
       id="linearGradient1389-3">
      <stop
         style="stop-color:#000000;stop-opacity:1;"
         offset="0"
         id="stop1385-6" />
      <stop
         style="stop-color:#ffffff;stop-opacity:1;"
         offset="0.5"
         id="stop1393-0" />
      <stop
         style="stop-color:#000000;stop-opacity:1;"
         offset="1"
         id="stop1387-6" />
    </linearGradient>
    <radialGradient
       inkscape:collect="always"
       xlink:href="#linearGradient2719"
       id="radialGradient2711"
       cx="-51.433708"
       cy="61.107029"
       fx="-51.433708"
       fy="61.107029"
       r="67.73333"
       gradientUnits="userSpaceOnUse"
       gradientTransform="translate(119.16704,6.6262947)" />
    <linearGradient
       inkscape:collect="always"
       id="linearGradient2719">
      <stop
         style="stop-color:#ffffff;stop-opacity:1;"
         offset="0"
         id="stop2717" />
      <stop
         style="stop-color:#000000;stop-opacity:1;"
         offset="1"
         id="stop2713" />
    </linearGradient>
    <linearGradient
       inkscape:collect="always"
       xlink:href="#linearGradient3036"
       id="linearGradient2906"
       x1="-86.658417"
       y1="0"
       x2="-86.658417"
       y2="135.46667"
       gradientUnits="userSpaceOnUse"
       gradientTransform="translate(154.39175)" />
    <linearGradient
       inkscape:collect="always"
       id="linearGradient3036">
      <stop
         style="stop-color:#808080;stop-opacity:1;"
         offset="0"
         id="stop3032" />
      <stop
         style="stop-color:#ffffff;stop-opacity:1;"
         offset="0.5"
         id="stop3038" />
      <stop
         style="stop-color:#000000;stop-opacity:1;"
         offset="1"
         id="stop3034" />
    </linearGradient>
    <filter
       inkscape:collect="always"
       style="color-interpolation-filters:sRGB"
       id="filter46551"
       x="-0.091246644"
       y="-0.097094953"
       width="1.1824933"
       height="1.1941899">
      <feGaussianBlur
         inkscape:collect="always"
         stdDeviation="3.2670751"
         id="feGaussianBlur46553" />
    </filter>
  </defs>
  <g
     inkscape:label="Layer 1"
     inkscape:groupmode="layer"
     id="layer1">
    <rect
       style="display:inline;fill:url(#linearGradient3016-9);fill-opacity:1;stroke-width:1.947;stroke-linecap:square;stroke-linejoin:round;paint-order:stroke fill markers"
       id="rect785-2"
       width="135.46666"
       height="135.46666"
       x="2.8463542e-06"
       y="-6.8718464e-06"
       ry="14.432917" />
    <rect
       style="display:inline;mix-blend-mode:difference;fill:url(#radialGradient2711);fill-opacity:1;stroke-width:1.947;stroke-linecap:square;stroke-linejoin:round;paint-order:stroke fill markers"
       id="rect785-53"
       width="135.46666"
       height="135.46666"
       x="2.8463542e-06"
       y="-6.8718464e-06"
       ry="14.432917" />
    <rect
       style="display:inline;opacity:1;mix-blend-mode:soft-light;fill:#1717ff;fill-opacity:1;stroke-width:1.947;stroke-linecap:square;stroke-linejoin:round;paint-order:stroke fill markers"
       id="rect1206"
       width="135.46666"
       height="135.46666"
       x="4.5603842e-06"
       y="1.9103841e-06"
       ry="14.432917" />
    <rect
       style="display:inline;opacity:0.28;mix-blend-mode:hard-light;fill:#1717ff;fill-opacity:1;stroke-width:1.947;stroke-linecap:square;stroke-linejoin:round;paint-order:stroke fill markers"
       id="rect5761"
       width="135.46666"
       height="135.46666"
       x="4.5603842e-06"
       y="1.9103841e-06"
       ry="14.432917" />
    <path
       id="rect785-53-9"
       style="display:inline;mix-blend-mode:luminosity;fill:url(#linearGradient2906);fill-opacity:1;stroke-width:1.947;stroke-linecap:square;stroke-linejoin:round;paint-order:stroke fill markers"
       d="M 14.432709,-6.6333334e-6 C 6.4368787,-6.6333334e-6 -1.3333333e-6,6.4368767 -1.3333333e-6,14.432705 V 121.03396 c 0,7.99582 6.4368800333333,14.43271 14.4327103333333,14.43271 H 121.03396 c 7.99582,0 14.43271,-6.43689 14.43271,-14.43271 V 14.432705 C 135.46667,6.4368767 129.02978,-6.6333334e-6 121.03396,-6.6333334e-6 Z M 120.25106,3.1672419 c 0.97343,-3.02e-4 1.94815,0.041018 2.9068,0.2175578 4.7373,0.7479393 8.67787,5.130741 9.07593,9.8500453 0.1032,33.051577 0.0426,66.104857 0.077,99.157265 -0.0616,3.09471 0.098,6.19309 -0.0558,9.28522 -0.10763,5.3757 -4.75516,10.11872 -10.07226,10.55491 -31.164873,0.0969 -62.331881,0.054 -93.497651,0.061 -4.76973,-0.0528 -9.54076,0.0668 -14.30972,-0.0388 -5.5845103,0.20629 -10.7168303,-4.57785 -11.1357703,-10.10378 -0.1026,-35.188066 -0.0329,-70.378357 -0.0744,-105.567202 -0.12259,-2.910434 0.20683,-5.99881 1.91255,-8.4527143 1.90523,-2.7083917 4.85195,-4.555829 8.1385203,-4.8870406 35.35273,-0.1085199 70.708409,-0.056329 106.062261,-0.065629 0.32367,-0.00597 0.64807,-0.010751 0.97255,-0.010852 z" />
    <path
       id="rect3806"
       style="display:inline;opacity:1;fill:#000100;fill-opacity:1;stroke-width:1.11585;stroke-linecap:square;stroke-linejoin:round;paint-order:stroke fill markers;filter:url(#filter46551)"
       d="M 27.897005 34.311805 C 26.163039 34.311805 24.76748 35.70788 24.76748 37.441846 C 24.76748 39.175813 26.163039 40.571888 27.897005 40.571888 L 49.86259 40.571888 C 51.596556 40.571888 52.992631 39.175813 52.992631 37.441846 C 52.992631 35.70788 51.596556 34.311805 49.86259 34.311805 L 27.897005 34.311805 z M 61.581254 34.311805 C 59.847288 34.311805 58.451213 35.70788 58.451213 37.441846 C 58.451213 39.175813 59.847288 40.571888 61.581254 40.571888 L 92.456889 40.571888 C 94.190855 40.571888 95.58693 39.175813 95.58693 37.441846 C 95.58693 35.70788 94.190855 34.311805 92.456889 34.311805 L 61.581254 34.311805 z M 27.897005 49.572372 C 26.163039 49.572372 24.76748 50.96793 24.76748 52.701897 C 24.76748 54.435863 26.163039 55.831938 27.897005 55.831938 L 58.773157 55.831938 C 60.507123 55.831938 61.903198 54.435863 61.903198 52.701897 C 61.903198 50.96793 60.507123 49.572372 58.773157 49.572372 L 27.897005 49.572372 z M 70.863375 49.572372 C 69.129408 49.572372 67.733333 50.96793 67.733333 52.701897 C 67.733333 54.435863 69.129408 55.831938 70.863375 55.831938 L 107.56966 55.831938 C 109.30363 55.831938 110.69919 54.435863 110.69919 52.701897 C 110.69919 50.96793 109.30363 49.572372 107.56966 49.572372 L 70.863375 49.572372 z M 27.897005 64.832422 C 26.163039 64.832422 24.76748 66.227981 24.76748 67.961947 C 24.76748 69.695913 26.163039 71.091989 27.897005 71.091989 L 107.56966 71.091989 C 109.30363 71.091989 110.69919 69.695913 110.69919 67.961947 C 110.69919 66.227981 109.30363 64.832422 107.56966 64.832422 L 27.897005 64.832422 z M 27.897005 80.092473 C 26.163039 80.092473 24.76748 81.488031 24.76748 83.221997 C 24.76748 84.955964 26.163039 86.352039 27.897005 86.352039 L 102.56015 86.352039 C 104.29411 86.352039 105.68967 84.955964 105.68967 83.221997 C 105.68967 81.488031 104.29411 80.092473 102.56015 80.092473 L 27.897005 80.092473 z M 27.897005 94.449736 C 26.163039 94.449736 24.76748 95.845811 24.76748 97.579777 C 24.76748 99.313744 26.163039 100.70982 27.897005 100.70982 L 58.773157 100.70982 C 60.507123 100.70982 61.903198 99.313744 61.903198 97.579777 C 61.903198 95.845811 60.507123 94.449736 58.773157 94.449736 L 27.897005 94.449736 z M 70.863375 94.449736 C 69.129408 94.449736 67.733333 95.845811 67.733333 97.579777 C 67.733333 99.313744 69.129408 100.70982 70.863375 100.70982 L 107.56966 100.70982 C 109.30363 100.70982 110.69919 99.313744 110.69919 97.579777 C 110.69919 95.845811 109.30363 94.449736 107.56966 94.449736 L 70.863375 94.449736 z M 27.897005 108.80752 C 26.163039 108.80752 24.76748 110.20359 24.76748 111.93756 C 24.76748 113.67152 26.163039 115.0676 27.897005 115.0676 L 71.588912 115.0676 C 73.322878 115.0676 74.718953 113.67152 74.718953 111.93756 C 74.718953 110.20359 73.322878 108.80752 71.588912 108.80752 L 27.897005 108.80752 z M 84.604138 108.80752 C 82.870172 108.80752 81.474097 110.20359 81.474097 111.93756 C 81.474097 113.67152 82.870172 115.0676 84.604138 115.0676 L 106.56972 115.0676 C 108.30369 115.0676 109.69925 113.67152 109.69925 111.93756 C 109.69925 110.20359 108.30369 108.80752 106.56972 108.80752 L 84.604138 108.80752 z "
       transform="translate(0,-6.9563684)" />
    <path
       id="path46549"
       style="display:inline;opacity:1;fill:#ffffff;fill-opacity:1;stroke-width:1.11585;stroke-linecap:square;stroke-linejoin:round;paint-order:stroke fill markers"
       d="M 27.897005 34.311805 C 26.163039 34.311805 24.76748 35.70788 24.76748 37.441846 C 24.76748 39.175813 26.163039 40.571888 27.897005 40.571888 L 49.86259 40.571888 C 51.596556 40.571888 52.992631 39.175813 52.992631 37.441846 C 52.992631 35.70788 51.596556 34.311805 49.86259 34.311805 L 27.897005 34.311805 z M 61.581254 34.311805 C 59.847288 34.311805 58.451213 35.70788 58.451213 37.441846 C 58.451213 39.175813 59.847288 40.571888 61.581254 40.571888 L 92.456889 40.571888 C 94.190855 40.571888 95.58693 39.175813 95.58693 37.441846 C 95.58693 35.70788 94.190855 34.311805 92.456889 34.311805 L 61.581254 34.311805 z M 27.897005 49.572372 C 26.163039 49.572372 24.76748 50.96793 24.76748 52.701897 C 24.76748 54.435863 26.163039 55.831938 27.897005 55.831938 L 58.773157 55.831938 C 60.507123 55.831938 61.903198 54.435863 61.903198 52.701897 C 61.903198 50.96793 60.507123 49.572372 58.773157 49.572372 L 27.897005 49.572372 z M 70.863375 49.572372 C 69.129408 49.572372 67.733333 50.96793 67.733333 52.701897 C 67.733333 54.435863 69.129408 55.831938 70.863375 55.831938 L 107.56966 55.831938 C 109.30363 55.831938 110.69919 54.435863 110.69919 52.701897 C 110.69919 50.96793 109.30363 49.572372 107.56966 49.572372 L 70.863375 49.572372 z M 27.897005 64.832422 C 26.163039 64.832422 24.76748 66.227981 24.76748 67.961947 C 24.76748 69.695913 26.163039 71.091989 27.897005 71.091989 L 107.56966 71.091989 C 109.30363 71.091989 110.69919 69.695913 110.69919 67.961947 C 110.69919 66.227981 109.30363 64.832422 107.56966 64.832422 L 27.897005 64.832422 z M 27.897005 80.092473 C 26.163039 80.092473 24.76748 81.488031 24.76748 83.221997 C 24.76748 84.955964 26.163039 86.352039 27.897005 86.352039 L 102.56015 86.352039 C 104.29411 86.352039 105.68967 84.955964 105.68967 83.221997 C 105.68967 81.488031 104.29411 80.092473 102.56015 80.092473 L 27.897005 80.092473 z M 27.897005 94.449736 C 26.163039 94.449736 24.76748 95.845811 24.76748 97.579777 C 24.76748 99.313744 26.163039 100.70982 27.897005 100.70982 L 58.773157 100.70982 C 60.507123 100.70982 61.903198 99.313744 61.903198 97.579777 C 61.903198 95.845811 60.507123 94.449736 58.773157 94.449736 L 27.897005 94.449736 z M 70.863375 94.449736 C 69.129408 94.449736 67.733333 95.845811 67.733333 97.579777 C 67.733333 99.313744 69.129408 100.70982 70.863375 100.70982 L 107.56966 100.70982 C 109.30363 100.70982 110.69919 99.313744 110.69919 97.579777 C 110.69919 95.845811 109.30363 94.449736 107.56966 94.449736 L 70.863375 94.449736 z M 27.897005 108.80752 C 26.163039 108.80752 24.76748 110.20359 24.76748 111.93756 C 24.76748 113.67152 26.163039 115.0676 27.897005 115.0676 L 71.588912 115.0676 C 73.322878 115.0676 74.718953 113.67152 74.718953 111.93756 C 74.718953 110.20359 73.322878 108.80752 71.588912 108.80752 L 27.897005 108.80752 z M 84.604138 108.80752 C 82.870172 108.80752 81.474097 110.20359 81.474097 111.93756 C 81.474097 113.67152 82.870172 115.0676 84.604138 115.0676 L 106.56972 115.0676 C 108.30369 115.0676 109.69925 113.67152 109.69925 111.93756 C 109.69925 110.20359 108.30369 108.80752 106.56972 108.80752 L 84.604138 108.80752 z "
       transform="translate(0,-6.9563684)" />
  </g>
  <metadata
     id="metadata1">
    <rdf:RDF>
      <cc:Work
         rdf:about="">
        <dc:creator>
          <cc:Agent>
            <dc:title>Jess Tipton</dc:title>
          </cc:Agent>
        </dc:creator>
        <dc:publisher>
          <cc:Agent>
            <dc:title>m0dw3rks.com</dc:title>
          </cc:Agent>
        </dc:publisher>
        <cc:license
           rdf:resource="https://creativecommons.org/licenses/by-nc-nd/4.0/deed.en" />
      </cc:Work>
    </rdf:RDF>
  </metadata>
  <metadata
     id="metadata6">
    <rdf:RDF>
      <cc:Work
         rdf:about="">
        <dc:creator>
          <cc:Agent>
            <dc:title>Jess Tipton</dc:title>
          </cc:Agent>
        </dc:creator>
        <cc:license
           rdf:resource="https://creativecommons.org/licenses/by-nc-nd/4.0/deed.en" />
        <dc:publisher>
          <cc:Agent>
            <dc:title>m0dw3rks.com</dc:title>
          </cc:Agent>
        </dc:publisher>
      </cc:Work>
    </rdf:RDF>
  </metadata>
  <metadata
     id="metadata6">
    <rdf:RDF>
      <cc:Work
         rdf:about="">
        <dc:creator>
          <cc:Agent>
            <dc:title>Jess Tipton</dc:title>
          </cc:Agent>
        </dc:creator>
        <cc:license
           rdf:resource="https://creativecommons.org/licenses/by-nc-nd/4.0/deed.en" />
        <dc:publisher>
          <cc:Agent>
            <dc:title>m0dw3rks.com</dc:title>
          </cc:Agent>
        </dc:publisher>
      </cc:Work>
    </rdf:RDF>
  </metadata>
  <metadata
     id="metadata6">
    <rdf:RDF>
      <cc:Work
         rdf:about="">
        <dc:creator>
          <cc:Agent>
            <dc:title>Jess Tipton</dc:title>
          </cc:Agent>
        </dc:creator>
        <cc:license
           rdf:resource="https://creativecommons.org/licenses/by-nc-nd/4.0/deed.en" />
        <dc:publisher>
          <cc:Agent>
            <dc:title>m0dw3rks.com</dc:title>
          </cc:Agent>
        </dc:publisher>
      </cc:Work>
    </rdf:RDF>
  </metadata>
  <metadata
     id="metadata6">
    <rdf:RDF>
      <cc:Work
         rdf:about="">
        <dc:creator>
          <cc:Agent>
            <dc:title>Jess Tipton</dc:title>
          </cc:Agent>
        </dc:creator>
        <cc:license
           rdf:resource="https://creativecommons.org/licenses/by-nc-nd/4.0/deed.en" />
        <dc:publisher>
          <cc:Agent>
            <dc:title>m0dw3rks.com</dc:title>
          </cc:Agent>
        </dc:publisher>
      </cc:Work>
    </rdf:RDF>
  </metadata>
  <metadata
     id="metadata6">
    <rdf:RDF>
      <cc:Work
         rdf:about="">
        <dc:creator>
          <cc:Agent>
            <dc:title>Jess Tipton</dc:title>
          </cc:Agent>
        </dc:creator>
        <cc:license
           rdf:resource="https://creativecommons.org/licenses/by-nc-nd/4.0/deed.en" />
        <dc:publisher>
          <cc:Agent>
            <dc:title>m0dw3rks.com</dc:title>
          </cc:Agent>
        </dc:publisher>
      </cc:Work>
    </rdf:RDF>
  </metadata>
  <metadata
     id="metadata6">
    <rdf:RDF>
      <cc:Work
         rdf:about="">
        <dc:creator>
          <cc:Agent>
            <dc:title>Jess Tipton</dc:title>
          </cc:Agent>
        </dc:creator>
        <cc:license
           rdf:resource="https://creativecommons.org/licenses/by-nc-nd/4.0/deed.en" />
        <dc:publisher>
          <cc:Agent>
            <dc:title>m0dw3rks.com</dc:title>
          </cc:Agent>
        </dc:publisher>
      </cc:Work>
    </rdf:RDF>
  </metadata>
  <metadata
     id="metadata6">
    <rdf:RDF>
      <cc:Work
         rdf:about="">
        <dc:creator>
          <cc:Agent>
            <dc:title>Jess Tipton</dc:title>
          </cc:Agent>
        </dc:creator>
        <cc:license
           rdf:resource="https://creativecommons.org/licenses/by-nc-nd/4.0/deed.en" />
        <dc:publisher>
          <cc:Agent>
            <dc:title>m0dw3rks.com</dc:title>
          </cc:Agent>
        </dc:publisher>
      </cc:Work>
    </rdf:RDF>
  </metadata>
  <metadata
     id="metadata6">
    <rdf:RDF>
      <cc:Work
         rdf:about="">
        <dc:creator>
          <cc:Agent>
            <dc:title>Jess Tipton</dc:title>
          </cc:Agent>
        </dc:creator>
        <cc:license
           rdf:resource="https://creativecommons.org/licenses/by-nc-nd/4.0/deed.en" />
        <dc:publisher>
          <cc:Agent>
            <dc:title>m0dw3rks.com</dc:title>
          </cc:Agent>
        </dc:publisher>
      </cc:Work>
    </rdf:RDF>
  </metadata>
  <metadata
     id="metadata6">
    <rdf:RDF>
      <cc:Work
         rdf:about="">
        <dc:creator>
          <cc:Agent>
            <dc:title>Jess Tipton</dc:title>
          </cc:Agent>
        </dc:creator>
        <cc:license
           rdf:resource="https://creativecommons.org/licenses/by-nc-nd/4.0/deed.en" />
        <dc:publisher>
          <cc:Agent>
            <dc:title>m0dw3rks.com</dc:title>
          </cc:Agent>
        </dc:publisher>
      </cc:Work>
    </rdf:RDF>
  </metadata>
  <metadata
     id="metadata6">
    <rdf:RDF>
      <cc:Work
         rdf:about="">
        <dc:creator>
          <cc:Agent>
            <dc:title>Jess Tipton</dc:title>
          </cc:Agent>
        </dc:creator>
        <cc:license
           rdf:resource="https://creativecommons.org/licenses/by-nc-nd/4.0/deed.en" />
        <dc:publisher>
          <cc:Agent>
            <dc:title>m0dw3rks.com</dc:title>
          </cc:Agent>
        </dc:publisher>
      </cc:Work>
    </rdf:RDF>
  </metadata>
  <metadata
     id="metadata6">
    <rdf:RDF>
      <cc:Work
         rdf:about="">
        <dc:creator>
          <cc:Agent>
            <dc:title>Jess Tipton</dc:title>
          </cc:Agent>
        </dc:creator>
        <cc:license
           rdf:resource="https://creativecommons.org/licenses/by-nc-nd/4.0/deed.en" />
        <dc:publisher>
          <cc:Agent>
            <dc:title>m0dw3rks.com</dc:title>
          </cc:Agent>
        </dc:publisher>
      </cc:Work>
    </rdf:RDF>
  </metadata>
  <metadata
     id="metadata6">
    <rdf:RDF>
      <cc:Work
         rdf:about="">
        <dc:creator>
          <cc:Agent>
            <dc:title>Jess Tipton</dc:title>
          </cc:Agent>
        </dc:creator>
        <cc:license
           rdf:resource="https://creativecommons.org/licenses/by-nc-nd/4.0/deed.en" />
        <dc:publisher>
          <cc:Agent>
            <dc:title>m0dw3rks.com</dc:title>
          </cc:Agent>
        </dc:publisher>
      </cc:Work>
    </rdf:RDF>
  </metadata>
  <metadata
     id="metadata6">
    <rdf:RDF>
      <cc:Work
         rdf:about="">
        <dc:creator>
          <cc:Agent>
            <dc:title>Jess Tipton</dc:title>
          </cc:Agent>
        </dc:creator>
        <cc:license
           rdf:resource="https://creativecommons.org/licenses/by-nc-nd/4.0/deed.en" />
        <dc:publisher>
          <cc:Agent>
            <dc:title>m0dw3rks.com</dc:title>
          </cc:Agent>
        </dc:publisher>
      </cc:Work>
    </rdf:RDF>
  </metadata>
  <metadata
     id="metadata6">
    <rdf:RDF>
      <cc:Work
         rdf:about="">
        <dc:creator>
          <cc:Agent>
            <dc:title>Jess Tipton</dc:title>
          </cc:Agent>
        </dc:creator>
        <cc:license
           rdf:resource="https://creativecommons.org/licenses/by-nc-nd/4.0/deed.en" />
        <dc:publisher>
          <cc:Agent>
            <dc:title>m0dw3rks.com</dc:title>
          </cc:Agent>
        </dc:publisher>
      </cc:Work>
    </rdf:RDF>
  </metadata>
  <metadata
     id="metadata6">
    <rdf:RDF>
      <cc:Work
         rdf:about="">
        <dc:creator>
          <cc:Agent>
            <dc:title>Jess Tipton</dc:title>
          </cc:Agent>
        </dc:creator>
        <cc:license
           rdf:resource="https://creativecommons.org/licenses/by-nc-nd/4.0/deed.en" />
        <dc:publisher>
          <cc:Agent>
            <dc:title>m0dw3rks.com</dc:title>
          </cc:Agent>
        </dc:publisher>
      </cc:Work>
    </rdf:RDF>
  </metadata>
  <metadata
     id="metadata6">
    <rdf:RDF>
      <cc:Work
         rdf:about="">
        <dc:creator>
          <cc:Agent>
            <dc:title>Jess Tipton</dc:title>
          </cc:Agent>
        </dc:creator>
        <cc:license
           rdf:resource="https://creativecommons.org/licenses/by-nc-nd/4.0/deed.en" />
        <dc:publisher>
          <cc:Agent>
            <dc:title>m0dw3rks.com</dc:title>
          </cc:Agent>
        </dc:publisher>
      </cc:Work>
    </rdf:RDF>
  </metadata>
  <metadata
     id="metadata6">
    <rdf:RDF>
      <cc:Work
         rdf:about="">
        <dc:creator>
          <cc:Agent>
            <dc:title>Jess Tipton</dc:title>
          </cc:Agent>
        </dc:creator>
        <cc:license
           rdf:resource="https://creativecommons.org/licenses/by-nc-nd/4.0/deed.en" />
        <dc:publisher>
          <cc:Agent>
            <dc:title>m0dw3rks.com</dc:title>
          </cc:Agent>
        </dc:publisher>
      </cc:Work>
    </rdf:RDF>
  </metadata>
</svg>
