<?xml version="1.0" encoding="UTF-8" standalone="no"?>
<!-- Created with Inkscape (http://www.inkscape.org/) -->

<svg
   width="512"
   height="512"
   viewBox="0 0 135.46666 135.46667"
   version="1.1"
   id="svg5"
   inkscape:version="1.4.2 (ebf0e940d0, 2025-05-08)"
   sodipodi:docname="application-vnd.iccprofile.svg"
   xmlns:inkscape="http://www.inkscape.org/namespaces/inkscape"
   xmlns:sodipodi="http://sodipodi.sourceforge.net/DTD/sodipodi-0.dtd"
   xmlns:xlink="http://www.w3.org/1999/xlink"
   xmlns="http://www.w3.org/2000/svg"
   xmlns:svg="http://www.w3.org/2000/svg">
  <sodipodi:namedview
     id="namedview7"
     pagecolor="#292929"
     bordercolor="#666666"
     borderopacity="1"
     inkscape:showpageshadow="0"
     inkscape:pageopacity="0"
     inkscape:pagecheckerboard="1"
     inkscape:deskcolor="#1a1a1a"
     inkscape:document-units="px"
     showgrid="false"
     inkscape:zoom="1"
     inkscape:cx="312"
     inkscape:cy="296.5"
     inkscape:window-width="3256"
     inkscape:window-height="1080"
     inkscape:window-x="1864"
     inkscape:window-y="0"
     inkscape:window-maximized="0"
     inkscape:current-layer="g16" />
  <defs
     id="defs2">
    <linearGradient
       id="linearGradient70"
       inkscape:collect="always">
      <stop
         style="stop-color:#000000;stop-opacity:1;"
         offset="0"
         id="stop70" />
      <stop
         style="stop-color:#000000;stop-opacity:0;"
         offset="1"
         id="stop71" />
    </linearGradient>
    <linearGradient
       id="linearGradient63"
       inkscape:collect="always">
      <stop
         style="stop-color:#000000;stop-opacity:1;"
         offset="0"
         id="stop63" />
      <stop
         style="stop-color:#ffffff;stop-opacity:1;"
         offset="1"
         id="stop64" />
    </linearGradient>
    <radialGradient
       inkscape:collect="always"
       xlink:href="#linearGradient63"
       id="radialGradient64"
       cx="195.40823"
       cy="113.98529"
       fx="195.40823"
       fy="113.98529"
       r="67.733335"
       gradientUnits="userSpaceOnUse"
       gradientTransform="translate(-127.67489,-46.251956)" />
    <radialGradient
       inkscape:collect="always"
       xlink:href="#linearGradient70"
       id="radialGradient71"
       cx="67.73333"
       cy="67.73333"
       fx="67.73333"
       fy="67.73333"
       r="67.73333"
       gradientUnits="userSpaceOnUse" />
  </defs>
  <g
     inkscape:label="Layer 1"
     inkscape:groupmode="layer"
     id="layer1">
    <path
       id="path17"
       style="display:inline;opacity:1;fill:#ff0000;stroke-width:4.23333;stroke-linecap:round;stroke-linejoin:round;paint-order:markers stroke fill"
       d="M 67.73333,67.73333 54.082702,1.3761005 C 58.491978,0.47383195 63.057319,0 67.73333,0 c 4.67601,0 9.241352,0.47383195 13.650628,1.3761005 z"
       sodipodi:nodetypes="ccscc"
       inkscape:transform-center-y="-33.866666" />
    <path
       id="path18"
       style="display:inline;opacity:1;fill:#ff3300;fill-opacity:1;stroke-width:4.23333;stroke-linecap:round;stroke-linejoin:round;paint-order:markers stroke fill"
       d="M 67.73333,67.73333 80.515605,1.2033748 c 4.418924,0.8537697 8.818075,2.1630867 13.138143,3.9525188 4.320076,1.7894319 8.356572,3.9742776 12.084932,6.4952214 z"
       sodipodi:nodetypes="ccscc"
       inkscape:transform-center-y="-33.264978"
       inkscape:transform-center-x="-19.002675" />
    <path
       id="path19"
       style="display:inline;opacity:1;fill:#ff6600;stroke-width:4.23333;stroke-linecap:round;stroke-linejoin:round;paint-order:markers stroke fill"
       d="m 67.73333,67.73333 37.26919,-56.574099 c 3.75583,2.479829 7.31907,5.372963 10.6255,8.679401 3.30644,3.306439 6.19958,6.869675 8.6794,10.625501 z"
       sodipodi:nodetypes="ccscc"
       inkscape:transform-center-y="-28.287051"
       inkscape:transform-center-x="-28.287046" />
    <path
       id="path20"
       style="display:inline;opacity:1;fill:#ff9900;fill-opacity:1;stroke-width:4.23333;stroke-linecap:round;stroke-linejoin:round;paint-order:markers stroke fill"
       d="M 67.733331,67.73333 123.81555,29.727981 c 2.52095,3.728357 4.70579,7.764852 6.49521,12.08492 1.78943,4.320072 3.09876,8.719228 3.95253,13.138152 z"
       sodipodi:nodetypes="ccscc"
       inkscape:transform-center-y="-19.002676"
       inkscape:transform-center-x="-33.26498" />
    <path
       id="path21"
       style="display:inline;opacity:1;fill:#ffcc00;stroke-width:4.23333;stroke-linecap:round;stroke-linejoin:round;paint-order:markers stroke fill"
       d="M 67.733328,67.733325 134.09055,54.082696 c 0.90228,4.409275 1.37611,8.974611 1.37611,13.65062 0,4.676007 -0.47384,9.241356 -1.3761,13.650641 z"
       sodipodi:nodetypes="ccscc"
       inkscape:transform-center-y="1.2013783e-06"
       inkscape:transform-center-x="-33.866666" />
    <path
       id="path22"
       style="display:inline;opacity:1;fill:#80e600;fill-opacity:1;stroke-width:4.23333;stroke-linecap:round;stroke-linejoin:round;paint-order:markers stroke fill"
       d="M 67.73334,67.733325 134.26328,80.5156 c -0.85376,4.418929 -2.16308,8.818084 -3.95252,13.138145 -1.78943,4.320071 -3.97427,8.356575 -6.49521,12.084935 z"
       sodipodi:nodetypes="ccscc"
       inkscape:transform-center-x="-33.264976"
       inkscape:transform-center-y="19.002669" />
    <path
       id="path23"
       style="display:inline;opacity:1;fill:#00ff00;stroke-width:4.23333;stroke-linecap:round;stroke-linejoin:round;paint-order:markers stroke fill"
       d="m 67.733329,67.733329 56.574091,37.269191 c -2.47982,3.75584 -5.37295,7.31906 -8.67939,10.6255 -3.30644,3.30644 -6.86968,6.19958 -10.6255,8.67941 z"
       sodipodi:nodetypes="ccscc"
       inkscape:transform-center-x="-28.287045"
       inkscape:transform-center-y="28.287055" />
    <path
       id="path24"
       style="display:inline;opacity:1;fill:#00ff80;fill-opacity:1;stroke-width:4.23333;stroke-linecap:round;stroke-linejoin:round;paint-order:markers stroke fill"
       d="m 67.73333,67.733332 38.00535,56.082208 c -3.72835,2.52095 -7.764848,4.70579 -12.08492,6.49522 -4.320067,1.78945 -8.719234,3.09875 -13.138149,3.95253 z"
       sodipodi:nodetypes="ccscc"
       inkscape:transform-center-y="33.26498"
       inkscape:transform-center-x="-19.002675" />
    <path
       id="path25"
       style="display:inline;opacity:1;fill:#00ffff;stroke-width:4.23333;stroke-linecap:round;stroke-linejoin:round;paint-order:markers stroke fill"
       d="m 67.73333,67.73333 13.650631,66.35723 c -4.409273,0.90226 -8.974605,1.3761 -13.650613,1.3761 -4.676019,-1e-5 -9.241363,-0.47383 -13.650641,-1.37611 z"
       sodipodi:nodetypes="ccscc"
       inkscape:transform-center-y="33.866665"
       inkscape:transform-center-x="-1.8135023e-06" />
    <path
       id="path26"
       style="display:inline;opacity:1;fill:#0080ff;fill-opacity:1;stroke-width:4.23333;stroke-linecap:round;stroke-linejoin:round;paint-order:markers stroke fill"
       d="m 67.733326,67.733327 -12.78227,66.529953 c -4.418924,-0.85377 -8.818072,-2.16309 -13.138144,-3.95252 -4.320072,-1.78943 -8.356579,-3.97428 -12.084936,-6.49523 z"
       sodipodi:nodetypes="ccscc"
       inkscape:transform-center-x="19.002681"
       inkscape:transform-center-y="33.26498" />
    <path
       id="path27"
       style="display:inline;opacity:1;fill:#0000ff;stroke-width:4.23333;stroke-linecap:round;stroke-linejoin:round;paint-order:markers stroke fill"
       d="m 67.73333,67.73333 -37.269193,56.5741 c -3.755831,-2.47983 -7.319054,-5.37297 -10.625499,-8.6794 -3.306431,-3.30644 -6.199577,-6.86968 -8.679409,-10.6255 z"
       sodipodi:nodetypes="ccscc"
       inkscape:transform-center-x="28.287052"
       inkscape:transform-center-y="28.287051" />
    <path
       id="path28"
       style="display:inline;opacity:1;fill:#3411bc;fill-opacity:1;stroke-width:4.23333;stroke-linecap:round;stroke-linejoin:round;paint-order:markers stroke fill"
       d="M 67.733327,67.733325 11.651112,105.73867 C 9.1301619,102.01032 6.9453223,97.973827 5.1558899,93.653755 3.3664584,89.333684 2.0571525,84.934517 1.2033765,80.515602 Z"
       sodipodi:nodetypes="ccscc"
       inkscape:transform-center-x="33.26498"
       inkscape:transform-center-y="19.002673" />
    <path
       id="path29"
       style="display:inline;opacity:1;fill:#672178;stroke-width:4.23333;stroke-linecap:round;stroke-linejoin:round;paint-order:markers stroke fill"
       d="M 67.733334,67.733324 1.3761043,81.38396 C 0.47383213,76.97469 5.4054652e-6,72.409349 3.2131377e-6,67.733334 3.6737976e-6,63.057323 0.47384016,58.491977 1.3761009,54.082706 Z"
       sodipodi:nodetypes="ccscc"
       inkscape:transform-center-y="1.2986219e-06"
       inkscape:transform-center-x="33.866665" />
    <path
       id="path30"
       style="display:inline;opacity:1;fill:#b3517c;fill-opacity:1;stroke-width:4.23333;stroke-linecap:round;stroke-linejoin:round;paint-order:markers stroke fill"
       d="M 67.733332,67.733325 1.2033742,54.951059 c 0.853768,-4.418921 2.1630842,-8.818074 3.9525207,-13.138148 1.7894344,-4.320068 3.974275,-8.356568 6.4952171,-12.084927 z"
       sodipodi:nodetypes="ccscc"
       inkscape:transform-center-y="-19.002671"
       inkscape:transform-center-x="33.264981" />
    <path
       id="path31"
       style="display:inline;opacity:1;fill:#ff8080;stroke-width:4.23333;stroke-linecap:round;stroke-linejoin:round;paint-order:markers stroke fill"
       d="M 67.733331,67.73333 11.159226,30.464136 c 2.479824,-3.755828 5.372952,-7.31906 8.679391,-10.625495 3.306443,-3.306442 6.869682,-6.19958 10.625515,-8.67941 z"
       sodipodi:nodetypes="ccscc"
       inkscape:transform-center-y="-28.287051"
       inkscape:transform-center-x="28.287053" />
    <path
       id="path32"
       style="display:inline;opacity:1;fill:#ff4040;fill-opacity:1;stroke-width:4.23333;stroke-linecap:round;stroke-linejoin:round;paint-order:markers stroke fill"
       d="M 67.733331,67.73333 29.727977,11.651112 C 33.456328,9.130167 37.49282,6.945322 41.812889,5.1558938 46.132965,3.3664607 50.532124,2.0571422 54.951051,1.2033731 Z"
       sodipodi:nodetypes="ccscc"
       inkscape:transform-center-y="-33.26498"
       inkscape:transform-center-x="19.002677" />
  </g>
  <g
     inkscape:label="Layer 2"
     inkscape:groupmode="layer"
     id="g16"
     style="opacity:0.5"
     transform="rotate(-25,67.733333,67.73333)">
    <path
       id="path1"
       style="display:inline;opacity:1;fill:#ff0000;stroke-width:4.23333;stroke-linecap:round;stroke-linejoin:round;paint-order:markers stroke fill"
       d="m 67.73333,67.73333 1.035279,-67.73883486 c 4.500046,0.07346081 9.059726,0.59898121 13.624897,1.61105526 4.56517,1.0120738 8.919739,2.4627949 13.029211,4.298018 z"
       sodipodi:nodetypes="ccscc"
       inkscape:transform-center-y="-33.869418"
       inkscape:transform-center-x="-13.844694" />
    <path
       id="path2"
       style="display:inline;opacity:1;fill:#ff3300;fill-opacity:1;stroke-width:4.23333;stroke-linecap:round;stroke-linejoin:round;paint-order:markers stroke fill"
       d="M 67.73333,67.73333 94.612332,5.5469909 c 4.129388,1.7899621 8.140878,4.0203936 11.971238,6.7024431 3.83037,2.682051 7.29829,5.688764 10.39264,8.956917 z"
       sodipodi:nodetypes="ccscc"
       inkscape:transform-center-y="-31.09317"
       inkscape:transform-center-x="-24.62144" />
    <path
       id="path3"
       style="display:inline;opacity:1;fill:#ff6600;stroke-width:4.23333;stroke-linecap:round;stroke-linejoin:round;paint-order:markers stroke fill"
       d="m 67.73333,67.73333 48.63064,-47.166538 c 3.13007,3.233958 5.98265,6.829739 8.49506,10.773444 2.51242,3.943708 4.56576,8.048671 6.17389,12.2522 z"
       sodipodi:nodetypes="ccscc"
       inkscape:transform-center-y="-23.58327"
       inkscape:transform-center-x="-31.649796" />
    <path
       id="path4"
       style="display:inline;opacity:1;fill:#ff9900;fill-opacity:1;stroke-width:4.23333;stroke-linecap:round;stroke-linejoin:round;paint-order:markers stroke fill"
       d="M 67.733331,67.73333 130.71204,42.767273 c 1.65423,4.185614 2.91362,8.599314 3.72559,13.20428 0.81198,4.604973 1.13812,9.183242 1.01523,13.68221 z"
       sodipodi:nodetypes="ccscc"
       inkscape:transform-center-y="-11.522813"
       inkscape:transform-center-x="-33.87233" />
    <path
       id="path5"
       style="display:inline;opacity:1;fill:#ffcc00;stroke-width:4.23333;stroke-linecap:round;stroke-linejoin:round;paint-order:markers stroke fill"
       d="m 67.733328,67.733325 67.738832,1.035277 c -0.0735,4.500046 -0.59897,9.059721 -1.61105,13.62489 -1.01207,4.565167 -2.4628,8.919741 -4.29802,13.029224 z"
       sodipodi:nodetypes="ccscc"
       inkscape:transform-center-y="13.844696"
       inkscape:transform-center-x="-33.869416" />
    <path
       id="path6"
       style="display:inline;opacity:1;fill:#80e600;fill-opacity:1;stroke-width:4.23333;stroke-linecap:round;stroke-linejoin:round;paint-order:markers stroke fill"
       d="m 67.733342,67.733326 62.186328,26.878999 c -1.78996,4.129395 -4.02039,8.140885 -6.70245,11.971235 -2.68205,3.83037 -5.68876,7.2983 -8.9569,10.39265 z"
       sodipodi:nodetypes="ccscc"
       inkscape:transform-center-x="-31.093172"
       inkscape:transform-center-y="24.621435" />
    <path
       id="path7"
       style="display:inline;opacity:1;fill:#00ff00;stroke-width:4.23333;stroke-linecap:round;stroke-linejoin:round;paint-order:markers stroke fill"
       d="m 67.733328,67.733329 47.166532,48.630641 c -3.23395,3.13008 -6.82973,5.98265 -10.77343,8.49506 -3.94371,2.51242 -8.048681,4.56576 -12.252206,6.1739 z"
       sodipodi:nodetypes="ccscc"
       inkscape:transform-center-x="-23.583264"
       inkscape:transform-center-y="31.649805" />
    <path
       id="path8"
       style="display:inline;opacity:1;fill:#00ff80;fill-opacity:1;stroke-width:4.23333;stroke-linecap:round;stroke-linejoin:round;paint-order:markers stroke fill"
       d="m 67.73333,67.733332 24.96606,62.978698 c -4.185607,1.65423 -8.599309,2.91362 -13.204282,3.7256 -4.604972,0.812 -9.183246,1.13811 -13.682206,1.01523 z"
       sodipodi:nodetypes="ccscc"
       inkscape:transform-center-y="33.872329"
       inkscape:transform-center-x="-11.522816" />
    <path
       id="path9"
       style="display:inline;opacity:1;fill:#00ffff;stroke-width:4.23333;stroke-linecap:round;stroke-linejoin:round;paint-order:markers stroke fill"
       d="m 67.73333,67.73333 -1.035276,67.73884 c -4.500041,-0.0735 -9.059714,-0.59898 -13.624882,-1.61106 -4.565176,-1.01208 -8.91975,-2.46279 -13.029221,-4.29803 z"
       sodipodi:nodetypes="ccscc"
       inkscape:transform-center-y="33.86942"
       inkscape:transform-center-x="13.844692" />
    <path
       id="path10"
       style="display:inline;opacity:1;fill:#0080ff;fill-opacity:1;stroke-width:4.23333;stroke-linecap:round;stroke-linejoin:round;paint-order:markers stroke fill"
       d="M 67.733326,67.733326 40.854329,129.91966 c -4.129388,-1.78996 -8.14087,-4.02039 -11.971235,-6.70244 -3.830366,-2.68205 -7.298304,-5.68877 -10.39265,-8.95693 z"
       sodipodi:nodetypes="ccscc"
       inkscape:transform-center-x="24.621447"
       inkscape:transform-center-y="31.093169" />
    <path
       id="path11"
       style="display:inline;opacity:1;fill:#0000ff;stroke-width:4.23333;stroke-linecap:round;stroke-linejoin:round;paint-order:markers stroke fill"
       d="M 67.73333,67.73333 19.102689,114.89987 C 15.97262,111.66591 13.12005,108.07013 10.607623,104.12643 8.0952123,100.18272 6.0418717,96.07775 4.4337298,91.874224 Z"
       sodipodi:nodetypes="ccscc"
       inkscape:transform-center-x="31.649802"
       inkscape:transform-center-y="23.583271" />
    <path
       id="path12"
       style="display:inline;opacity:1;fill:#3411bc;fill-opacity:1;stroke-width:4.23333;stroke-linecap:round;stroke-linejoin:round;paint-order:markers stroke fill"
       d="M 67.733327,67.733324 4.7546224,92.699378 C 3.1003915,88.513771 1.8409983,84.100073 1.0290173,79.4951 0.21703696,74.890128 -0.10907916,70.311853 0.013811,65.812893 Z"
       sodipodi:nodetypes="ccscc"
       inkscape:transform-center-x="33.872329"
       inkscape:transform-center-y="11.522811" />
    <path
       id="path13"
       style="display:inline;opacity:1;fill:#672178;stroke-width:4.23333;stroke-linecap:round;stroke-linejoin:round;paint-order:markers stroke fill"
       d="M 67.733336,67.733325 -0.00550116,66.698053 C 0.06795482,62.198013 0.59348033,57.638334 1.6055531,53.073158 2.6176275,48.507988 4.0683539,44.153415 5.9035684,40.043947 Z"
       sodipodi:nodetypes="ccscc"
       inkscape:transform-center-y="-13.844696"
       inkscape:transform-center-x="33.869416" />
    <path
       id="path14"
       style="display:inline;opacity:1;fill:#b3517c;fill-opacity:1;stroke-width:4.23333;stroke-linecap:round;stroke-linejoin:round;paint-order:markers stroke fill"
       d="M 67.733332,67.733325 5.5469885,40.854331 c 1.7899599,-4.129386 4.020391,-8.140873 6.7024455,-11.971239 2.682052,-3.830361 5.688762,-7.298294 8.956912,-10.392644 z"
       sodipodi:nodetypes="ccscc"
       inkscape:transform-center-y="-24.621439"
       inkscape:transform-center-x="31.093174" />
    <path
       id="path15"
       style="display:inline;opacity:1;fill:#ff8080;stroke-width:4.23333;stroke-linecap:round;stroke-linejoin:round;paint-order:markers stroke fill"
       d="M 67.733331,67.73333 20.566788,19.102687 C 23.80074,15.97262 27.396514,13.120038 31.340221,10.607623 35.283933,8.0952022 39.388899,6.0418692 43.592437,4.4337321 Z"
       sodipodi:nodetypes="ccscc"
       inkscape:transform-center-y="-31.649801"
       inkscape:transform-center-x="23.583272" />
    <path
       id="path16"
       style="display:inline;opacity:1;fill:#ff4040;fill-opacity:1;stroke-width:4.23333;stroke-linecap:round;stroke-linejoin:round;paint-order:markers stroke fill"
       d="M 67.733331,67.73333 42.767269,4.7546205 C 46.952876,3.1003948 51.366574,1.8409961 55.971543,1.0290186 60.57652,0.21703779 65.15479,-0.10909235 69.65376,0.01380714 Z"
       sodipodi:nodetypes="ccscc"
       inkscape:transform-center-y="-33.87233"
       inkscape:transform-center-x="11.522816" />
  </g>
  <g
     inkscape:groupmode="layer"
     id="layer2"
     inkscape:label="Layer 3"
     style="display:none">
    <path
       id="path63"
       style="display:none;opacity:1;mix-blend-mode:soft-light;fill:url(#radialGradient64);stroke-width:4.23332;stroke-linecap:round;stroke-linejoin:round;paint-order:markers stroke fill"
       d="M 67.733337,9.9999991e-7 C 30.325247,-4.246706e-6 -4.156855e-6,30.325244 -2.5000001e-6,67.733334 -2.9086135e-7,105.14142 30.32525,135.46667 67.733337,135.46666 c 37.408083,0 67.733333,-30.32524 67.733333,-67.733326 C 135.46667,30.325246 105.14142,-6.5685449e-7 67.733337,9.9999991e-7 Z"
       sodipodi:nodetypes="sssss" />
    <path
       id="path33"
       style="display:none;mix-blend-mode:multiply;fill:url(#radialGradient71);stroke-width:1.05833;stroke-linecap:round;stroke-linejoin:round;stroke-miterlimit:12;paint-order:markers stroke fill"
       d="M 67.733332,0 C 65.395327,0 63.085171,0.11860788 60.808174,0.34984944 59.346165,0.49832458 62.616391,28.235696 65.14486,48.072517 62.453026,28.257208 58.433187,0.61820947 56.982568,0.85317789 54.723319,1.2191479 52.460967,1.7027394 50.20262,2.3078694 47.94429,2.9129994 45.743613,3.625262 43.604056,4.437972 42.230269,4.9597926 52.568665,30.906967 60.145165,49.413521 52.416452,30.970019 41.379303,5.3124621 40.038899,5.9148844 c -2.087546,0.93824 -4.147455,1.990487 -6.172233,3.159497 -2.02476,1.1690096 -3.96659,2.4268916 -5.8229,3.7656616 -1.19192,0.859606 15.510281,23.246933 27.618469,39.16195 C 43.42334,36.187276 26.121783,14.25992 24.982971,15.188737 c -1.77358,1.44657 -3.491169,2.996615 -5.144389,4.649845 -1.65321,1.65322 -3.203285,3.370789 -4.649845,5.144389 -0.928825,1.138808 20.99853,18.440363 36.813256,30.679264 C 36.086973,43.554044 13.699657,26.85185 12.840043,28.043766 c -1.33875,1.85632 -2.596662,3.79812 -3.7656616,5.8229 -1.16899,2.024777 -2.221267,4.08467 -3.159497,6.172233 C 5.3124555,41.379299 30.970016,52.41645 49.413521,60.145165 30.906968,52.568665 4.9597992,42.23027 4.437972,43.604056 3.625282,45.743619 2.9129894,47.944281 2.3078694,50.20262 1.7027594,52.460967 1.2191379,54.723305 0.85317789,56.982568 0.61820002,58.433166 28.25623,62.452509 48.071484,65.144343 28.234756,62.615898 0.49832662,59.346202 0.34984944,60.808174 0.11860944,63.085173 0,65.395328 0,67.733332 1e-5,70.071343 0.11859944,72.381493 0.34984944,74.658491 0.49832645,76.120528 28.237168,72.850293 48.074068,70.321805 28.258675,73.013639 0.61819845,77.033452 0.85317789,78.484097 1.2191479,80.743359 1.7027494,83.005706 2.3078694,85.264045 2.9129994,87.522388 3.625272,89.723049 4.437972,91.862609 4.9597924,93.236399 30.906969,82.897999 49.413521,75.3215 30.970018,83.050213 5.3124559,94.087367 5.9148844,95.427766 c 0.93824,2.087559 1.990497,4.147469 3.159497,6.172234 1.1690096,2.02479 2.4269016,3.96659 3.7656616,5.8229 0.859603,1.19192 23.246425,-15.51029 39.161433,-27.61847 -15.814708,12.238889 -37.741559,29.54046 -36.812739,30.67926 1.44657,1.7736 2.996625,3.49117 4.649845,5.14439 1.65322,1.65323 3.370799,3.20328 5.144389,4.64985 1.138806,0.92882 18.440366,-20.998536 30.679264,-36.813258 -12.108189,15.915019 -28.810389,38.302348 -27.618469,39.161948 1.85632,1.33876 3.79813,2.59666 5.8229,3.76566 2.024777,1.16901 4.084675,2.22126 6.172233,3.1595 1.340399,0.60243 12.377554,-25.05514 20.106266,-43.498636 -7.576497,18.506546 -17.914897,44.453726 -16.541109,44.975546 2.139561,0.81269 4.340225,1.52499 6.598564,2.13011 2.25834,0.60512 4.520688,1.08872 6.779948,1.45469 1.450644,0.23498 5.470458,-27.40499 8.162292,-47.220376 -2.528486,19.836886 -5.798719,47.575226 -4.336686,47.723706 2.276997,0.23124 4.587153,0.34984 6.925158,0.34984 2.338005,0 4.648162,-0.1186 6.925159,-0.34984 1.462009,-0.14848 -1.808217,-27.88585 -4.336686,-47.722672 2.691834,19.815312 6.711673,47.454312 8.162292,47.219342 2.259249,-0.36597 4.521601,-0.84956 6.779948,-1.45469 2.25833,-0.60513 4.459007,-1.3174 6.598564,-2.13011 C 93.236396,130.50687 82.898,104.5597 75.3215,86.053144 c 7.728713,18.443506 18.765862,44.101056 20.106266,43.498636 2.087546,-0.93824 4.147455,-1.99049 6.172234,-3.1595 2.02476,-1.16901 3.96659,-2.42689 5.8229,-3.76566 1.19192,-0.8596 -15.510282,-23.246931 -27.61847,-39.161948 12.238895,15.814717 29.54045,37.742068 30.67926,36.813258 1.77358,-1.44657 3.49117,-2.99662 5.14439,-4.64985 1.65321,-1.65322 3.20329,-3.37079 4.64985,-5.14439 0.92882,-1.1388 -20.998532,-18.440359 -36.813258,-30.67926 15.91502,12.108191 38.302338,28.81038 39.161948,27.61847 1.33875,-1.85632 2.59666,-3.79812 3.76566,-5.8229 1.16899,-2.024778 2.22127,-4.084671 3.1595,-6.172234 0.60243,-1.3404 -25.05513,-12.377551 -43.498636,-20.106266 18.506556,7.5765 44.453726,17.914895 44.975546,16.541109 0.81269,-2.139563 1.52499,-4.340225 2.13011,-6.598564 0.60511,-2.258347 1.08873,-4.520685 1.45469,-6.779948 0.23498,-1.450647 -27.40498,-5.470457 -47.220376,-8.162292 19.836896,2.528488 47.575216,5.798719 47.723706,4.336686 0.23124,-2.276999 0.34984,-4.587155 0.34984,-6.925159 -1e-5,-2.338011 -0.11859,-4.64816 -0.34984,-6.925158 -0.14848,-1.462037 -27.88732,1.808198 -47.724223,4.336686 19.815393,-2.691834 47.455873,-6.711647 47.220893,-8.162292 -0.36597,-2.259262 -0.84957,-4.521609 -1.45469,-6.779948 -0.60513,-2.258343 -1.31741,-4.459004 -2.13011,-6.598564 -0.52182,-1.37379 -26.46899,8.96461 -44.975546,16.541109 18.443506,-7.728713 44.101066,-18.765867 43.498636,-20.106266 -0.93824,-2.087559 -1.9905,-4.147461 -3.1595,-6.172233 -1.16901,-2.024773 -2.4269,-3.966584 -3.76566,-5.8229 -0.8596,-1.191922 -23.246933,15.510283 -39.161948,27.618469 15.814717,-12.238894 37.742078,-29.540459 36.813258,-30.679264 -1.44657,-1.773593 -2.99663,-3.49117 -4.64985,-5.144389 -1.65322,-1.65322 -3.3708,-3.203277 -5.14439,-4.649845 C 109.34489,14.25991 92.043324,36.187277 79.80443,52.001993 91.912614,36.086981 108.61482,13.699647 107.4229,12.840043 105.56658,11.501284 103.62477,10.243384 101.6,9.0743814 99.575222,7.9053788 97.515324,6.8531218 95.427766,5.9148844 94.087369,5.3124529 83.050211,30.970028 75.3215,49.413521 82.897995,30.906978 93.236396,4.9597925 91.862609,4.437972 89.723048,3.6252796 87.522384,2.9129897 85.264045,2.3078694 83.005705,1.7027492 80.743357,1.2191459 78.484097,0.85317789 77.033453,0.61819417 73.013639,28.258169 70.321805,48.073551 72.850291,28.236663 76.120524,0.49832703 74.658491,0.34984944 72.381494,0.11860788 70.071337,0 67.733332,0 Z" />
  </g>
</svg>
