<?xml version="1.0" encoding="UTF-8" standalone="no"?>
<!-- Created with Inkscape (http://www.inkscape.org/) -->

<svg
   width="512"
   height="512"
   viewBox="0 0 135.46666 135.46667"
   version="1.1"
   id="svg5"
   inkscape:version="1.4.2 (ebf0e940d0, 2025-05-08)"
   sodipodi:docname="application-vnd.ms-powerpoint.svg"
   xmlns:inkscape="http://www.inkscape.org/namespaces/inkscape"
   xmlns:sodipodi="http://sodipodi.sourceforge.net/DTD/sodipodi-0.dtd"
   xmlns:xlink="http://www.w3.org/1999/xlink"
   xmlns="http://www.w3.org/2000/svg"
   xmlns:svg="http://www.w3.org/2000/svg">
  <sodipodi:namedview
     id="namedview7"
     pagecolor="#242424"
     bordercolor="#666666"
     borderopacity="1"
     inkscape:showpageshadow="0"
     inkscape:pageopacity="0"
     inkscape:pagecheckerboard="1"
     inkscape:deskcolor="#000000"
     inkscape:document-units="px"
     showgrid="false"
     inkscape:zoom="1.84375"
     inkscape:cx="365.28814"
     inkscape:cy="285.55933"
     inkscape:window-width="3256"
     inkscape:window-height="1080"
     inkscape:window-x="1864"
     inkscape:window-y="0"
     inkscape:window-maximized="0"
     inkscape:current-layer="layer1" />
  <defs
     id="defs2">
    <linearGradient
       inkscape:collect="always"
       xlink:href="#linearGradient19"
       id="linearGradient20"
       x1="67.73333"
       y1="0"
       x2="67.73333"
       y2="135.46666"
       gradientUnits="userSpaceOnUse" />
    <linearGradient
       id="linearGradient19"
       inkscape:collect="always">
      <stop
         style="stop-color:#ff6600;stop-opacity:0;"
         offset="0"
         id="stop20" />
      <stop
         style="stop-color:#ff6600;stop-opacity:1;"
         offset="1"
         id="stop19" />
    </linearGradient>
    <filter
       inkscape:collect="always"
       style="color-interpolation-filters:sRGB"
       id="filter7"
       x="-0.013881323"
       y="-0.02288251"
       width="1.0277626"
       height="1.045765">
      <feGaussianBlur
         inkscape:collect="always"
         stdDeviation="0.7229624"
         id="feGaussianBlur7" />
    </filter>
  </defs>
  <g
     inkscape:label="Layer 1"
     inkscape:groupmode="layer"
     id="layer1">
    <path
       id="rect4-2"
       style="display:inline;fill:#803300;stroke-width:8.46668;stroke-linecap:round;stroke-linejoin:round;stroke-miterlimit:1;paint-order:fill markers stroke"
       d="M 16.933332,3.9999999e-6 2.4999999e-6,19.352311 V 38.704618 L 33.866672,3.9999999e-6 Z m 33.86667,0 L 2.4999999e-6,58.056925 V 77.409748 L 67.733332,3.9999999e-6 Z m 33.86667,0 L 2.4999999e-6,96.762051 V 116.11436 L 101.6,3.9999999e-6 Z m 33.866658,0 L 2.4999999e-6,135.46666 H 16.933332 L 135.46666,3.9999999e-6 Z M 135.46666,19.352311 33.866672,135.46666 h 16.93333 L 135.46666,38.704618 Z m 0,38.704614 -67.733328,77.409735 h 16.93334 L 135.46666,77.409748 Z m 0,38.705126 L 101.6,135.46666 h 16.93333 l 16.93333,-19.3523 z" />
    <rect
       style="display:inline;fill:url(#linearGradient20);stroke:none;stroke-width:8.46667;stroke-linecap:round;stroke-linejoin:round;stroke-miterlimit:1;paint-order:fill markers stroke"
       id="rect3-2"
       width="135.46666"
       height="135.46666"
       x="2.7270507e-06"
       y="2.7270507e-06"
       ry="0" />
    <g
       id="g5"
       style="display:none"
       sodipodi:insensitive="true">
      <text
         xml:space="preserve"
         style="font-size:56.7469px;line-height:1.25;font-family:Aharoni;-inkscape-font-specification:'Aharoni, Normal';font-variant-ligatures:none;text-align:center;text-orientation:upright;text-anchor:middle;display:inline;fill:#ffffff;stroke-width:0.264583"
         x="67.719482"
         y="67.206871"
         id="text2"><tspan
           sodipodi:role="line"
           style="fill:#ffffff;stroke-width:0.264583"
           x="67.719482"
           y="67.206871"
           id="tspan1">MS</tspan></text>
      <text
         xml:space="preserve"
         style="font-size:56.7469px;line-height:1.25;font-family:Aharoni;-inkscape-font-specification:'Aharoni, Normal';font-variant-ligatures:none;text-align:center;text-orientation:upright;text-anchor:middle;display:inline;fill:#ffffff;stroke-width:0.264583"
         x="67.303848"
         y="106.02641"
         id="text5"><tspan
           sodipodi:role="line"
           id="tspan4"
           style="fill:#ffffff;stroke-width:0.264583"
           x="67.303848"
           y="106.02641">Excel</tspan></text>
    </g>
    <path
       id="text6"
       style="font-size:56.7469px;line-height:1.25;font-family:Aharoni;-inkscape-font-specification:'Aharoni, Normal';font-variant-ligatures:none;text-align:center;text-orientation:upright;text-anchor:middle;display:inline;fill:#000000;stroke-width:0.264583;filter:url(#filter7)"
       d="M 94.139472 28.470613 C 90.075567 28.470613 86.824406 29.828322 84.386063 32.54375 C 82.298693 34.852787 81.254988 37.762162 81.254988 41.271899 C 81.254988 44.633857 82.261995 47.145883 84.275475 48.80839 C 84.977422 49.381031 85.827169 49.880076 86.824673 50.304939 C 87.452732 50.582024 88.985533 51.080552 91.423876 51.800972 C 93.437356 52.373613 94.868978 52.937139 95.718704 53.491308 C 96.863987 54.2302 97.436945 55.15386 97.436945 56.262198 C 97.436945 57.48137 96.919551 58.42338 95.885102 59.088382 C 94.998432 59.679496 93.918028 59.97515 92.64344 59.97515 C 89.817178 59.97515 86.926152 58.644707 83.970584 55.984696 L 79.758955 63.909793 C 83.804388 66.772999 88.191517 68.204622 92.920425 68.204622 C 95.174046 68.204622 97.279805 67.862836 99.237869 67.179361 C 104.85345 65.23977 107.66113 61.073865 107.66113 54.68245 C 107.66113 52.188689 107.02369 50.147927 105.7491 48.559309 C 104.27132 46.693607 101.7965 45.252552 98.323713 44.236576 C 95.552868 43.423795 93.890073 42.851353 93.335904 42.518851 C 92.09826 41.798432 91.479686 40.939252 91.479686 39.941748 C 91.479686 38.925771 91.950433 38.113239 92.89252 37.503654 C 93.723773 36.967957 94.665783 36.700085 95.718704 36.700085 C 97.898435 36.700085 100.05976 37.530966 102.20255 39.193473 L 106.13719 31.545878 C 102.22106 29.495453 98.22185 28.470613 94.139472 28.470613 z M 34.233569 29.384769 L 27.805538 67.20675 L 37.586336 67.20675 L 40.80061 45.428234 L 49.528759 67.20675 L 53.436014 67.20675 L 62.579642 45.428234 L 65.377921 67.20675 L 75.21453 67.20675 L 69.506868 29.384769 L 59.725553 29.384769 L 51.607185 49.556664 L 43.931685 29.384769 L 34.233569 29.384769 z M 5.2353393 69.933198 L 5.2353393 104.29751 L 14.172778 104.29751 L 14.172778 92.918358 L 19.761584 92.918358 C 24.158877 92.918358 27.305809 91.600647 29.202352 88.965628 C 30.662521 86.934817 31.392915 84.367181 31.392915 81.262222 C 31.392915 78.106913 30.486326 75.513663 28.673702 73.482852 C 26.575756 71.11637 23.504632 69.933198 19.459794 69.933198 L 5.2353393 69.933198 z M 104.07375 69.933198 L 104.07375 104.29751 L 113.01119 104.29751 L 113.01119 92.918358 L 118.59999 92.918358 C 122.99729 92.918358 126.14422 91.600647 128.04076 88.965628 C 129.50093 86.934817 130.23133 84.367181 130.23133 81.262222 C 130.23133 78.106913 129.32474 75.513663 127.51211 73.482852 C 125.41417 71.11637 122.34304 69.933198 118.2982 69.933198 L 104.07375 69.933198 z M 14.172778 77.158597 L 17.168461 77.158597 C 18.964302 77.158597 20.231819 77.544622 20.970296 78.316666 C 21.725556 79.071926 22.103043 80.087441 22.103043 81.362991 C 22.103043 82.655326 21.77575 83.678861 21.121191 84.434122 C 20.399498 85.2733 19.073766 85.69296 17.143656 85.69296 L 14.172778 85.69296 L 14.172778 77.158597 z M 113.01119 77.158597 L 116.00687 77.158597 C 117.80271 77.158597 119.07023 77.544622 119.80871 78.316666 C 120.56397 79.071926 120.94145 80.087441 120.94145 81.362991 C 120.94145 82.655326 120.61416 83.678861 119.9596 84.434122 C 119.23791 85.2733 117.91218 85.69296 115.98207 85.69296 L 113.01119 85.69296 L 113.01119 77.158597 z M 98.006936 80.607482 C 96.143961 80.607482 94.532592 81.010583 93.173123 81.816194 C 92.166109 82.420402 91.225885 83.402282 90.35314 84.76175 L 90.35314 80.93511 L 82.095763 80.93511 L 82.095763 104.29751 L 90.35314 104.29751 L 90.35314 94.30277 C 90.35314 92.943301 90.504238 91.861034 90.806342 91.055423 C 91.611953 88.839993 93.374421 87.732112 96.093358 87.732112 C 97.284991 87.732112 98.459625 88.009211 99.617691 88.563069 L 99.617691 80.68293 C 98.979915 80.632579 98.443309 80.607482 98.006936 80.607482 z M 32.525663 80.93511 L 44.534232 104.29751 L 50.098233 104.29751 L 55.68704 91.483304 L 61.52751 104.29751 L 67.040868 104.29751 L 79.276297 80.93511 L 70.087194 80.93511 L 64.221402 93.597903 L 58.380932 80.93511 L 53.194685 80.93511 L 47.328893 93.24547 L 41.739571 80.93511 L 32.525663 80.93511 z " />
    <text
       xml:space="preserve"
       style="font-size:56.7469px;line-height:1.25;font-family:Aharoni;-inkscape-font-specification:'Aharoni, Normal';font-variant-ligatures:none;text-align:center;text-orientation:upright;text-anchor:middle;display:inline;fill:#ffffff;stroke-width:0.264583"
       x="67.719482"
       y="67.206871"
       id="text3"><tspan
         sodipodi:role="line"
         style="fill:#ffffff;stroke-width:0.264583"
         x="67.719482"
         y="67.206871"
         id="tspan2">MS</tspan></text>
    <text
       xml:space="preserve"
       style="font-size:51.5591px;line-height:1.25;font-family:Aharoni;-inkscape-font-specification:'Aharoni, Normal';font-variant-ligatures:none;text-align:center;text-orientation:upright;text-anchor:middle;display:inline;fill:#ffffff;stroke-width:0.264583"
       x="66.499741"
       y="104.29758"
       id="text4"><tspan
         sodipodi:role="line"
         id="tspan3"
         style="fill:#ffffff;stroke-width:0.264583"
         x="66.499741"
         y="104.29758">PwrP</tspan></text>
  </g>
</svg>
