<?xml version="1.0" encoding="UTF-8" standalone="no"?>
<!-- Created with Inkscape (http://www.inkscape.org/) -->

<svg
   width="512"
   height="512"
   viewBox="0 0 135.46666 135.46667"
   version="1.1"
   id="svg5"
   inkscape:version="1.3.2 (091e20ef0f, 2023-11-25, custom)"
   sodipodi:docname="application-vnd.oasis.opendocument.graphics-template.svg"
   xmlns:inkscape="http://www.inkscape.org/namespaces/inkscape"
   xmlns:sodipodi="http://sodipodi.sourceforge.net/DTD/sodipodi-0.dtd"
   xmlns:xlink="http://www.w3.org/1999/xlink"
   xmlns="http://www.w3.org/2000/svg"
   xmlns:svg="http://www.w3.org/2000/svg"
   xmlns:rdf="http://www.w3.org/1999/02/22-rdf-syntax-ns#"
   xmlns:cc="http://creativecommons.org/ns#"
   xmlns:dc="http://purl.org/dc/elements/1.1/">&gt;
  <sodipodi:namedview
   id="namedview7"
   pagecolor="#505050"
   bordercolor="#ffffff"
   borderopacity="1"
   inkscape:showpageshadow="0"
   inkscape:pageopacity="0"
   inkscape:pagecheckerboard="1"
   inkscape:deskcolor="#505050"
   inkscape:document-units="mm"
   showgrid="false"
   inkscape:zoom="1.1214272"
   inkscape:cx="305.41439"
   inkscape:cy="179.23589"
   inkscape:window-width="1920"
   inkscape:window-height="1080"
   inkscape:window-x="1864"
   inkscape:window-y="0"
   inkscape:window-maximized="0"
   inkscape:current-layer="layer1" />
<defs
   id="defs2">
  <linearGradient
     inkscape:collect="always"
     xlink:href="#linearGradient1389-3"
     id="linearGradient3016-9"
     x1="0"
     y1="0"
     x2="135.46666"
     y2="135.46666"
     gradientUnits="userSpaceOnUse"
     gradientTransform="translate(-135.46665)" />
  <linearGradient
     inkscape:collect="always"
     id="linearGradient1389-3">
    <stop
       style="stop-color:#000000;stop-opacity:1;"
       offset="0"
       id="stop1385-6" />
    <stop
       style="stop-color:#808080;stop-opacity:1;"
       offset="0.5"
       id="stop1393-0" />
    <stop
       style="stop-color:#000000;stop-opacity:1;"
       offset="1"
       id="stop1387-6" />
  </linearGradient>
  <linearGradient
     inkscape:collect="always"
     xlink:href="#linearGradient3036"
     id="linearGradient2906"
     x1="-86.658417"
     y1="0"
     x2="-86.658417"
     y2="135.46667"
     gradientUnits="userSpaceOnUse"
     gradientTransform="translate(154.39175)" />
  <linearGradient
     inkscape:collect="always"
     id="linearGradient3036">
    <stop
       style="stop-color:#808080;stop-opacity:1;"
       offset="0"
       id="stop3032" />
    <stop
       style="stop-color:#ffffff;stop-opacity:1;"
       offset="0.5"
       id="stop3038" />
    <stop
       style="stop-color:#000000;stop-opacity:1;"
       offset="1"
       id="stop3034" />
  </linearGradient>
</defs>
<g
   inkscape:label="Layer 1"
   inkscape:groupmode="layer"
   id="layer1">
  <rect
     style="display:inline;fill:url(#linearGradient3016-9);fill-opacity:1;stroke-width:1.947;stroke-linecap:square;stroke-linejoin:round;paint-order:stroke fill markers"
     id="rect785-2"
     width="135.46666"
     height="135.46666"
     x="-135.46666"
     y="9.65453e-08"
     ry="14.432917"
     transform="scale(-1,1)" />
  <rect
     style="display:inline;opacity:0.28;mix-blend-mode:hard-light;fill:#ffbc00;fill-opacity:1;stroke-width:1.947;stroke-linecap:square;stroke-linejoin:round;paint-order:stroke fill markers"
     id="rect30371"
     width="135.46666"
     height="135.46666"
     x="-3.5449216e-06"
     y="-2.8127504e-06"
     ry="14.432917" />
  <path
     id="rect785-53-9"
     style="display:inline;mix-blend-mode:luminosity;fill:url(#linearGradient2906);fill-opacity:1;stroke-width:1.947;stroke-linecap:square;stroke-linejoin:round;paint-order:stroke fill markers"
     d="M 14.43271,0 C 6.43688,0 0,6.436884 0,14.432713 V 121.03397 c 0,7.99582 6.43688,14.43271 14.43271,14.43271 h 106.60125 c 7.99582,0 14.43271,-6.43689 14.43271,-14.43271 V 14.432713 C 135.46667,6.436884 129.02978,0 121.03396,0 Z m 105.81835,3.167249 c 0.97343,-3.02e-4 1.94815,0.04102 2.9068,0.217558 4.7373,0.747939 8.67787,5.130741 9.07593,9.850046 0.1032,33.051577 0.0426,66.104857 0.077,99.157267 -0.0616,3.09471 0.098,6.19309 -0.0558,9.28522 -0.10763,5.3757 -4.75516,10.11872 -10.07226,10.55491 -31.164875,0.0969 -62.331883,0.054 -93.49765,0.061 -4.76973,-0.0528 -9.54076,0.0668 -14.30972,-0.0388 C 8.79085,132.46074 3.65853,127.6766 3.23959,122.15067 3.13699,86.962601 3.20669,51.77231 3.16519,16.583466 3.0426,13.673032 3.37202,10.584656 5.07774,8.130751 6.98297,5.422359 9.92969,3.574922 13.21626,3.24371 48.56899,3.13519 83.924666,3.18738 119.27852,3.17808 c 0.32367,-0.006 0.64807,-0.01075 0.97255,-0.01085 z" />
  <path
     id="path45631"
     style="display:inline;fill:#ffffff;fill-opacity:1;stroke:none;stroke-width:7.99999;stroke-linecap:square;stroke-linejoin:round;stroke-dasharray:none;stroke-opacity:1;paint-order:stroke fill markers;opacity:0.6"
     inkscape:label="mountain3"
     d="M 91.932373,-3.7382731 94.42266,15.263151 c -3.40765,0.580678 -6.474029,2.13691 -8.913151,4.377511 L 71.713452,6.5639404 84.77467,20.342944 c -2.333491,2.40497 -3.985117,5.470055 -4.645194,8.892998 L 61.411239,26.782861 79.97703,30.234847 c -0.103043,0.770263 -0.174674,1.550229 -0.174666,2.348694 5.3e-5,2.72432 0.63744,5.293524 1.743046,7.595402 l -16.584517,9.017021 17.034619,-8.1132 c 1.65229,2.986422 4.146773,5.438898 7.16442,7.040914 l -8.15299,17.118335 9.067663,-16.678052 c 2.230395,1.023236 4.702849,1.609154 7.317383,1.609204 0.860977,9e-6 1.700647,-0.08255 2.528528,-0.202055 L 103.27638,68.020138 93.742082,87.089258 84.064119,67.733333 71.324845,93.211882 61.894413,74.351534 52.463981,93.211882 35.885665,60.054732 9.8769165,112.07223 h 33.1571495 18.860347 18.860865 25.478552 19.35592 l -22.16971,-44.338897 -0.11007,0.219625 -2.37711,-18.136361 c 3.34324,-0.683264 6.33373,-2.322742 8.69301,-4.609537 l 14.01309,13.282393 -13.29841,-14.029634 c 2.19534,-2.392131 3.73701,-5.385088 4.34237,-8.713164 l 19.25826,2.523877 -19.10168,-3.551721 c 0.0851,-0.701344 0.14261,-1.410974 0.14263,-2.13527 3e-5,-2.663246 -0.60926,-5.178482 -1.66863,-7.44089 l 17.07802,-9.285221 -17.52864,8.348844 c -1.57737,-2.906886 -3.95651,-5.309903 -6.83266,-6.93601 L 114.34548,-0.18861898 105.1109,16.795874 c -2.33291,-1.142958 -4.94587,-1.802502 -7.718912,-1.802474 -0.66176,1.3e-5 -1.312656,0.04353 -1.955436,0.114722 z M 57.058533,18.514632 c -3.227248,-0.0077 -6.394797,1.424691 -8.904883,3.220475 l -0.06615,0.04651 -0.05684,0.05684 c -1.206772,1.205867 -2.654953,3.139129 -4.191475,3.481958 -1.278259,0.285208 -2.617606,-0.855961 -3.929476,-1.423169 l -0.02946,-0.01188 -0.03101,-0.01189 c -1.816836,-0.645289 -3.983339,-1.539789 -6.22856,-1.872754 -2.245222,-0.332963 -4.675277,-0.04593 -6.626986,1.739946 0,0 4.487634,-0.60487 6.35,-0.346232 1.893281,0.28077 3.926654,1.635788 5.794479,2.31097 1.686388,0.730403 3.409514,1.886514 5.034318,1.537374 1.975149,-0.424427 3.804797,-2.57288 5.246708,-4.013709 l -0.12299,0.103353 c 2.806435,-3.791646 11.83597,-3.956864 11.83597,-3.956864 -1.127361,-0.503003 -2.278336,-0.767053 -3.427698,-0.839743 -0.215506,-0.01363 -0.430807,-0.02068 -0.645955,-0.02119 z m 8.80308,14.079244 c -5.95876,0.03891 -8.507012,4.256744 -13.358875,7.057967 -5.008373,2.891586 -8.4151,1.075129 -11.3776,0.09663 -5.937496,-2.587274 -12.63691,-5.511671 -19.169372,-3.380672 l 5.174361,0.7953 c 0,0 4.495333,1.330444 9.700183,3.923275 3.683008,1.540208 7.332216,3.315286 11.300602,3.992004 5.929586,-2.701658 11.276325,-8.021367 15.388208,-9.534301 4.111883,-1.512938 7.977291,-1.434538 7.977291,-1.434538 -1.011882,-0.668146 -3.933395,-1.255627 -5.047237,-1.505851 -0.199508,-0.0076 -0.395343,-0.01111 -0.587561,-0.0098 z m -29.890682,34.753951 5.789311,12.542904 -1.447457,0.294555 -1.44694,-0.884183 -1.447974,1.474328 -1.44694,-2.064473 -1.447457,2.653585 -1.447457,-1.473812 -3.805969,2.948657 0.911572,-2.948657 z m 48.093188,7.79384 4.287594,10.609171 0.675411,5.76864 -2.818949,-5.76864 -1.072286,1.558561 -1.07177,-2.805513 -1.071769,2.181779 -1.072286,-1.558561 -1.071769,0.935343 -1.071769,-0.311609 z m 19.355921,0 4.2876,10.609171 1.04489,2.957442 -3.18843,-3.581176 -1.07229,1.558561 -1.07177,-0.594279 -1.07177,1.218013 -1.07228,-1.558561 -4.406451,4.18114 2.262911,-4.18114 z m -41.525627,5.0307 2.415873,5.97793 0.588595,1.666048 -1.796273,-2.017448 -0.604097,0.877983 -0.604098,-0.334863 -0.604097,0.686263 -0.604098,-0.877983 -2.482536,2.355929 1.274858,-2.355929 z" />
</g>
<metadata
   id="metadata1">
  <rdf:RDF>
    <cc:Work
       rdf:about="">
      <dc:creator>
        <cc:Agent>
          <dc:title>Jess Tipton</dc:title>
        </cc:Agent>
      </dc:creator>
      <dc:publisher>
        <cc:Agent>
          <dc:title>m0dw3rks.com</dc:title>
        </cc:Agent>
      </dc:publisher>
      <cc:license
         rdf:resource="https://creativecommons.org/licenses/by-nc-nd/4.0/deed.en" />
    </cc:Work>
  </rdf:RDF>
</metadata>
<metadata
   id="metadata6">
  <rdf:RDF>
    <cc:Work
       rdf:about="">
      <dc:creator>
        <cc:Agent>
          <dc:title>Jess Tipton</dc:title>
        </cc:Agent>
      </dc:creator>
      <cc:license
         rdf:resource="https://creativecommons.org/licenses/by-nc-nd/4.0/deed.en" />
      <dc:publisher>
        <cc:Agent>
          <dc:title>m0dw3rks.com</dc:title>
        </cc:Agent>
      </dc:publisher>
    </cc:Work>
  </rdf:RDF>
</metadata>
<metadata
   id="metadata2">
  <rdf:RDF>
    <cc:Work
       rdf:about="">
      <dc:creator>
        <cc:Agent>
          <dc:title>Jess Tipton</dc:title>
        </cc:Agent>
      </dc:creator>
      <cc:license
         rdf:resource="https://creativecommons.org/licenses/by-nc-nd/4.0/deed.en" />
      <dc:publisher>
        <cc:Agent>
          <dc:title>m0dw3rks.com</dc:title>
        </cc:Agent>
      </dc:publisher>
    </cc:Work>
  </rdf:RDF>
</metadata>
<metadata
   id="metadata3">
  <rdf:RDF>
    <cc:Work
       rdf:about="">
      <dc:creator>
        <cc:Agent>
          <dc:title>Jess Tipton</dc:title>
        </cc:Agent>
      </dc:creator>
      <cc:license
         rdf:resource="https://creativecommons.org/licenses/by-nc-nd/4.0/deed.en" />
      <dc:publisher>
        <cc:Agent>
          <dc:title>m0dw3rks.com</dc:title>
        </cc:Agent>
      </dc:publisher>
    </cc:Work>
  </rdf:RDF>
</metadata>
<metadata
   id="metadata4">
  <rdf:RDF>
    <cc:Work
       rdf:about="">
      <dc:creator>
        <cc:Agent>
          <dc:title>Jess Tipton</dc:title>
        </cc:Agent>
      </dc:creator>
      <cc:license
         rdf:resource="https://creativecommons.org/licenses/by-nc-nd/4.0/deed.en" />
      <dc:publisher>
        <cc:Agent>
          <dc:title>m0dw3rks.com</dc:title>
        </cc:Agent>
      </dc:publisher>
    </cc:Work>
  </rdf:RDF>
</metadata>
<metadata
   id="metadata5">
  <rdf:RDF>
    <cc:Work
       rdf:about="">
      <dc:creator>
        <cc:Agent>
          <dc:title>Jess Tipton</dc:title>
        </cc:Agent>
      </dc:creator>
      <cc:license
         rdf:resource="https://creativecommons.org/licenses/by-nc-nd/4.0/deed.en" />
      <dc:publisher>
        <cc:Agent>
          <dc:title>m0dw3rks.com</dc:title>
        </cc:Agent>
      </dc:publisher>
    </cc:Work>
  </rdf:RDF>
</metadata>
<metadata
   id="metadata7">
  <rdf:RDF>
    <cc:Work
       rdf:about="">
      <dc:creator>
        <cc:Agent>
          <dc:title>Jess Tipton</dc:title>
        </cc:Agent>
      </dc:creator>
      <cc:license
         rdf:resource="https://creativecommons.org/licenses/by-nc-nd/4.0/deed.en" />
      <dc:publisher>
        <cc:Agent>
          <dc:title>m0dw3rks.com</dc:title>
        </cc:Agent>
      </dc:publisher>
    </cc:Work>
  </rdf:RDF>
</metadata>
<metadata
   id="metadata8">
  <rdf:RDF>
    <cc:Work
       rdf:about="">
      <dc:creator>
        <cc:Agent>
          <dc:title>Jess Tipton</dc:title>
        </cc:Agent>
      </dc:creator>
      <cc:license
         rdf:resource="https://creativecommons.org/licenses/by-nc-nd/4.0/deed.en" />
      <dc:publisher>
        <cc:Agent>
          <dc:title>m0dw3rks.com</dc:title>
        </cc:Agent>
      </dc:publisher>
    </cc:Work>
  </rdf:RDF>
</metadata>
<metadata
   id="metadata9">
  <rdf:RDF>
    <cc:Work
       rdf:about="">
      <dc:creator>
        <cc:Agent>
          <dc:title>Jess Tipton</dc:title>
        </cc:Agent>
      </dc:creator>
      <cc:license
         rdf:resource="https://creativecommons.org/licenses/by-nc-nd/4.0/deed.en" />
      <dc:publisher>
        <cc:Agent>
          <dc:title>m0dw3rks.com</dc:title>
        </cc:Agent>
      </dc:publisher>
    </cc:Work>
  </rdf:RDF>
</metadata>
<metadata
   id="metadata10">
  <rdf:RDF>
    <cc:Work
       rdf:about="">
      <dc:creator>
        <cc:Agent>
          <dc:title>Jess Tipton</dc:title>
        </cc:Agent>
      </dc:creator>
      <cc:license
         rdf:resource="https://creativecommons.org/licenses/by-nc-nd/4.0/deed.en" />
      <dc:publisher>
        <cc:Agent>
          <dc:title>m0dw3rks.com</dc:title>
        </cc:Agent>
      </dc:publisher>
    </cc:Work>
  </rdf:RDF>
</metadata>
<metadata
   id="metadata11">
  <rdf:RDF>
    <cc:Work
       rdf:about="">
      <dc:creator>
        <cc:Agent>
          <dc:title>Jess Tipton</dc:title>
        </cc:Agent>
      </dc:creator>
      <cc:license
         rdf:resource="https://creativecommons.org/licenses/by-nc-nd/4.0/deed.en" />
      <dc:publisher>
        <cc:Agent>
          <dc:title>m0dw3rks.com</dc:title>
        </cc:Agent>
      </dc:publisher>
    </cc:Work>
  </rdf:RDF>
</metadata>
<metadata
   id="metadata12">
  <rdf:RDF>
    <cc:Work
       rdf:about="">
      <dc:creator>
        <cc:Agent>
          <dc:title>Jess Tipton</dc:title>
        </cc:Agent>
      </dc:creator>
      <cc:license
         rdf:resource="https://creativecommons.org/licenses/by-nc-nd/4.0/deed.en" />
      <dc:publisher>
        <cc:Agent>
          <dc:title>m0dw3rks.com</dc:title>
        </cc:Agent>
      </dc:publisher>
    </cc:Work>
  </rdf:RDF>
</metadata>
<metadata
   id="metadata13">
  <rdf:RDF>
    <cc:Work
       rdf:about="">
      <dc:creator>
        <cc:Agent>
          <dc:title>Jess Tipton</dc:title>
        </cc:Agent>
      </dc:creator>
      <cc:license
         rdf:resource="https://creativecommons.org/licenses/by-nc-nd/4.0/deed.en" />
      <dc:publisher>
        <cc:Agent>
          <dc:title>m0dw3rks.com</dc:title>
        </cc:Agent>
      </dc:publisher>
    </cc:Work>
  </rdf:RDF>
</metadata>
<metadata
   id="metadata14">
  <rdf:RDF>
    <cc:Work
       rdf:about="">
      <dc:creator>
        <cc:Agent>
          <dc:title>Jess Tipton</dc:title>
        </cc:Agent>
      </dc:creator>
      <cc:license
         rdf:resource="https://creativecommons.org/licenses/by-nc-nd/4.0/deed.en" />
      <dc:publisher>
        <cc:Agent>
          <dc:title>m0dw3rks.com</dc:title>
        </cc:Agent>
      </dc:publisher>
    </cc:Work>
  </rdf:RDF>
</metadata>
<metadata
   id="metadata15">
  <rdf:RDF>
    <cc:Work
       rdf:about="">
      <dc:creator>
        <cc:Agent>
          <dc:title>Jess Tipton</dc:title>
        </cc:Agent>
      </dc:creator>
      <cc:license
         rdf:resource="https://creativecommons.org/licenses/by-nc-nd/4.0/deed.en" />
      <dc:publisher>
        <cc:Agent>
          <dc:title>m0dw3rks.com</dc:title>
        </cc:Agent>
      </dc:publisher>
    </cc:Work>
  </rdf:RDF>
</metadata>
<metadata
   id="metadata16">
  <rdf:RDF>
    <cc:Work
       rdf:about="">
      <dc:creator>
        <cc:Agent>
          <dc:title>Jess Tipton</dc:title>
        </cc:Agent>
      </dc:creator>
      <cc:license
         rdf:resource="https://creativecommons.org/licenses/by-nc-nd/4.0/deed.en" />
      <dc:publisher>
        <cc:Agent>
          <dc:title>m0dw3rks.com</dc:title>
        </cc:Agent>
      </dc:publisher>
    </cc:Work>
  </rdf:RDF>
</metadata>
<metadata
   id="metadata17">
  <rdf:RDF>
    <cc:Work
       rdf:about="">
      <dc:creator>
        <cc:Agent>
          <dc:title>Jess Tipton</dc:title>
        </cc:Agent>
      </dc:creator>
      <cc:license
         rdf:resource="https://creativecommons.org/licenses/by-nc-nd/4.0/deed.en" />
      <dc:publisher>
        <cc:Agent>
          <dc:title>m0dw3rks.com</dc:title>
        </cc:Agent>
      </dc:publisher>
    </cc:Work>
  </rdf:RDF>
</metadata>
<metadata
   id="metadata18">
  <rdf:RDF>
    <cc:Work
       rdf:about="">
      <dc:creator>
        <cc:Agent>
          <dc:title>Jess Tipton</dc:title>
        </cc:Agent>
      </dc:creator>
      <cc:license
         rdf:resource="https://creativecommons.org/licenses/by-nc-nd/4.0/deed.en" />
      <dc:publisher>
        <cc:Agent>
          <dc:title>m0dw3rks.com</dc:title>
        </cc:Agent>
      </dc:publisher>
    </cc:Work>
  </rdf:RDF>
</metadata>
</svg>
