<?xml version="1.0" encoding="UTF-8" standalone="no"?>
<!-- Created with Inkscape (http://www.inkscape.org/) -->

<svg
   width="512"
   height="512"
   viewBox="0 0 135.46666 135.46667"
   version="1.1"
   id="svg5"
   inkscape:version="1.2.1 (9c6d41e410, 2022-07-14, custom)"
   sodipodi:docname="application-vnd.oasis.opendocument.formula.svg"
   xmlns:inkscape="http://www.inkscape.org/namespaces/inkscape"
   xmlns:sodipodi="http://sodipodi.sourceforge.net/DTD/sodipodi-0.dtd"
   xmlns:xlink="http://www.w3.org/1999/xlink"
   xmlns="http://www.w3.org/2000/svg"
   xmlns:svg="http://www.w3.org/2000/svg"
   xmlns:rdf="http://www.w3.org/1999/02/22-rdf-syntax-ns#"
   xmlns:cc="http://creativecommons.org/ns#"
   xmlns:dc="http://purl.org/dc/elements/1.1/">>
  <sodipodi:namedview
     id="namedview7"
     pagecolor="#505050"
     bordercolor="#ffffff"
     borderopacity="1"
     inkscape:showpageshadow="0"
     inkscape:pageopacity="0"
     inkscape:pagecheckerboard="1"
     inkscape:deskcolor="#505050"
     inkscape:document-units="mm"
     showgrid="false"
     inkscape:zoom="1.1214272"
     inkscape:cx="292.48443"
     inkscape:cy="332.61187"
     inkscape:window-width="3252"
     inkscape:window-height="1076"
     inkscape:window-x="1864"
     inkscape:window-y="0"
     inkscape:window-maximized="0"
     inkscape:current-layer="layer1" />
  <defs
     id="defs2">
    <linearGradient
       inkscape:collect="always"
       xlink:href="#linearGradient1389-3"
       id="linearGradient3016-9"
       x1="0"
       y1="0"
       x2="135.46666"
       y2="135.46666"
       gradientUnits="userSpaceOnUse"
       gradientTransform="translate(1.4855143e-5)" />
    <linearGradient
       inkscape:collect="always"
       id="linearGradient1389-3">
      <stop
         style="stop-color:#000000;stop-opacity:1;"
         offset="0"
         id="stop1385-6" />
      <stop
         style="stop-color:#ffffff;stop-opacity:1;"
         offset="0.5"
         id="stop1393-0" />
      <stop
         style="stop-color:#000000;stop-opacity:1;"
         offset="1"
         id="stop1387-6" />
    </linearGradient>
    <radialGradient
       inkscape:collect="always"
       xlink:href="#linearGradient2719"
       id="radialGradient2711"
       cx="-51.433708"
       cy="61.107029"
       fx="-51.433708"
       fy="61.107029"
       r="67.73333"
       gradientUnits="userSpaceOnUse"
       gradientTransform="translate(119.16705,6.6263094)" />
    <linearGradient
       inkscape:collect="always"
       id="linearGradient2719">
      <stop
         style="stop-color:#ffffff;stop-opacity:1;"
         offset="0"
         id="stop2717" />
      <stop
         style="stop-color:#000000;stop-opacity:1;"
         offset="1"
         id="stop2713" />
    </linearGradient>
    <linearGradient
       inkscape:collect="always"
       xlink:href="#linearGradient3036"
       id="linearGradient2906"
       x1="-86.658417"
       y1="0"
       x2="-86.658417"
       y2="135.46667"
       gradientUnits="userSpaceOnUse"
       gradientTransform="translate(154.39176)" />
    <linearGradient
       inkscape:collect="always"
       id="linearGradient3036">
      <stop
         style="stop-color:#808080;stop-opacity:1;"
         offset="0"
         id="stop3032" />
      <stop
         style="stop-color:#ffffff;stop-opacity:1;"
         offset="0.5"
         id="stop3038" />
      <stop
         style="stop-color:#000000;stop-opacity:1;"
         offset="1"
         id="stop3034" />
    </linearGradient>
    <filter
       inkscape:collect="always"
       style="color-interpolation-filters:sRGB"
       id="filter44875"
       x="-0.090817725"
       y="-0.097585377"
       width="1.1816354"
       height="1.1951708">
      <feGaussianBlur
         inkscape:collect="always"
         stdDeviation="3.7789523"
         id="feGaussianBlur44877" />
    </filter>
  </defs>
  <g
     inkscape:label="Layer 1"
     inkscape:groupmode="layer"
     id="layer1">
    <rect
       style="display:inline;fill:url(#linearGradient3016-9);fill-opacity:1;stroke-width:1.947;stroke-linecap:square;stroke-linejoin:round;paint-order:stroke fill markers"
       id="rect785-2"
       width="135.46666"
       height="135.46666"
       x="7.1207683e-06"
       y="7.1207683e-06"
       ry="14.432917" />
    <rect
       style="display:inline;mix-blend-mode:difference;fill:url(#radialGradient2711);fill-opacity:1;stroke-width:1.947;stroke-linecap:square;stroke-linejoin:round;paint-order:stroke fill markers"
       id="rect785-53-7"
       width="135.46666"
       height="135.46666"
       x="7.1207683e-06"
       y="7.1207683e-06"
       ry="14.432917" />
    <rect
       style="display:inline;opacity:1;mix-blend-mode:soft-light;fill:#b40000;fill-opacity:1;stroke-width:1.947;stroke-linecap:square;stroke-linejoin:round;paint-order:stroke fill markers"
       id="rect785-53"
       width="135.46666"
       height="135.46666"
       x="2.0454101e-05"
       y="2.0454101e-05"
       ry="14.432917" />
    <rect
       style="display:inline;opacity:0.28;mix-blend-mode:hard-light;fill:#b40000;fill-opacity:1;stroke-width:1.947;stroke-linecap:square;stroke-linejoin:round;paint-order:stroke fill markers"
       id="rect4554"
       width="135.46666"
       height="135.46666"
       x="2.0454101e-05"
       y="2.0454101e-05"
       ry="14.432917" />
    <path
       id="rect785-53-9"
       style="display:inline;mix-blend-mode:luminosity;fill:url(#linearGradient2906);fill-opacity:1;stroke-width:1.947;stroke-linecap:square;stroke-linejoin:round;paint-order:stroke fill markers"
       d="M 14.432725,7.3728434e-6 C 6.4368949,7.3728434e-6 1.4855143e-5,6.4368914 1.4855143e-5,14.43272 v 106.60126 c 0,7.99581 6.436880044857,14.4327 14.432710144857,14.4327 H 121.03397 c 7.99582,0 14.43271,-6.43689 14.43271,-14.4327 V 14.43272 C 135.46668,6.4368914 129.02979,7.3728434e-6 121.03397,7.3728434e-6 Z M 120.25107,3.1672564 c 0.97343,-3.02e-4 1.94815,0.04102 2.9068,0.217558 4.7373,0.747939 8.67787,5.130741 9.07593,9.8500456 0.1032,33.051577 0.0426,66.104857 0.077,99.15727 -0.0616,3.09471 0.098,6.19309 -0.0558,9.28522 -0.10763,5.37569 -4.75516,10.11872 -10.07226,10.5549 -31.16487,0.0969 -62.331878,0.054 -93.497645,0.061 -4.76973,-0.0528 -9.54076,0.0668 -14.30972,-0.0388 -5.5845101,0.20629 -10.7168301,-4.57785 -11.1357701,-10.10377 -0.1026,-35.188072 -0.0329,-70.378363 -0.0744,-105.567207 -0.12259,-2.910434 0.20683,-5.99881 1.91255,-8.4527146 1.90523,-2.708392 4.85195,-4.555829 8.1385201,-4.887041 35.35273,-0.10852 70.708406,-0.05633 106.062255,-0.06563 0.32367,-0.006 0.64807,-0.01075 0.97255,-0.01085 z" />
    <path
       id="text98091"
       style="font-style:normal;font-weight:normal;font-size:89.1869px;line-height:1.25;font-family:sans-serif;display:inline;fill:#000000;fill-opacity:1;stroke:none;stroke-width:2.22968;filter:url(#filter44875)"
       d="m 106.93818,17.095136 c -0.0281,0.0048 -0.0537,0.01532 -0.076,0.03204 -1.24861,1.426989 -2.67577,1.872754 -6.33243,1.872754 -5.351207,0 -14.80516,-0.356567 -21.22661,-0.356567 -10.702417,0 -14.448202,5.351317 -17.034619,11.059273 -0.08919,0.535121 2.318968,2.318812 2.854089,2.140438 2.764791,-3.835033 5.440561,-6.064746 10.435022,-6.064746 0.802681,0 1.24866,-3.03e-4 1.962154,0.08888 -0.178374,7.134945 -0.267841,12.486182 -0.981335,16.856336 -0.713495,4.013406 -5.886428,5.619036 -9.543087,7.670333 -0.445934,0.26756 -0.356444,1.872787 -0.08888,2.318721 0.891868,1.694549 4.726989,3.924308 8.026901,3.924308 0.981055,0 3.835008,-3.478283 5.172811,-8.205184 1.605362,-5.529582 1.872787,-15.518385 2.318721,-21.761462 0,-0.445934 0.445878,-0.713651 0.624251,-0.713651 0.267561,0 6.064858,0.178497 8.918836,0.267683 -0.713495,7.134945 -1.69447,18.283301 -1.69447,22.029147 0,6.15389 2.318586,8.383467 4.637443,8.383467 3.745846,0 8.116193,-2.229567 10.880983,-6.867281 0.26756,-0.445934 0.62404,-2.408065 0.53485,-3.032373 -0.0892,-0.535121 -0.53476,-0.891935 -0.71313,-0.891935 -1.24862,0.802681 -3.38917,1.60507 -4.99453,1.60507 -2.853973,0 -4.370484,-0.891439 -4.459671,-8.026383 0,-4.459341 0.356905,-11.416122 0.713652,-12.397177 0.08919,-0.26756 0.446091,-0.713651 0.713651,-0.713651 1.69455,0.08919 5.529258,0.08933 6.777878,-0.802535 0.98105,-0.802681 3.38931,-3.210925 4.19199,-6.778398 -0.16722,-0.501675 -1.19652,-1.708637 -1.6185,-1.637109 z M 44.152861,67.518415 31.264242,102.3628 24.8698,84.653286 l -7.068819,2.447913 0.624768,1.998327 3.12229,-1.123962 7.967989,22.055506 h 1.648478 l 14.83682,-40.114869 h 66.372694 l 5.29167,-2.397786 z"
       transform="translate(0,4.171783)"
       sodipodi:insensitive="true" />
    <path
       id="path44873"
       style="font-style:normal;font-weight:normal;font-size:89.1869px;line-height:1.25;font-family:sans-serif;display:inline;fill:#ffffff;fill-opacity:1;stroke:none;stroke-width:2.22968"
       d="m 106.93818,17.095136 c -0.0281,0.0048 -0.0537,0.01532 -0.076,0.03204 -1.24861,1.426989 -2.67577,1.872754 -6.33243,1.872754 -5.351207,0 -14.80516,-0.356567 -21.22661,-0.356567 -10.702417,0 -14.448202,5.351317 -17.034619,11.059273 -0.08919,0.535121 2.318968,2.318812 2.854089,2.140438 2.764791,-3.835033 5.440561,-6.064746 10.435022,-6.064746 0.802681,0 1.24866,-3.03e-4 1.962154,0.08888 -0.178374,7.134945 -0.267841,12.486182 -0.981335,16.856336 -0.713495,4.013406 -5.886428,5.619036 -9.543087,7.670333 -0.445934,0.26756 -0.356444,1.872787 -0.08888,2.318721 0.891868,1.694549 4.726989,3.924308 8.026901,3.924308 0.981055,0 3.835008,-3.478283 5.172811,-8.205184 1.605362,-5.529582 1.872787,-15.518385 2.318721,-21.761462 0,-0.445934 0.445878,-0.713651 0.624251,-0.713651 0.267561,0 6.064858,0.178497 8.918836,0.267683 -0.713495,7.134945 -1.69447,18.283301 -1.69447,22.029147 0,6.15389 2.318586,8.383467 4.637443,8.383467 3.745846,0 8.116193,-2.229567 10.880983,-6.867281 0.26756,-0.445934 0.62404,-2.408065 0.53485,-3.032373 -0.0892,-0.535121 -0.53476,-0.891935 -0.71313,-0.891935 -1.24862,0.802681 -3.38917,1.60507 -4.99453,1.60507 -2.853973,0 -4.370484,-0.891439 -4.459671,-8.026383 0,-4.459341 0.356905,-11.416122 0.713652,-12.397177 0.08919,-0.26756 0.446091,-0.713651 0.713651,-0.713651 1.69455,0.08919 5.529258,0.08933 6.777878,-0.802535 0.98105,-0.802681 3.38931,-3.210925 4.19199,-6.778398 -0.16722,-0.501675 -1.19652,-1.708637 -1.6185,-1.637109 z M 44.152861,67.518415 31.264242,102.3628 24.8698,84.653286 l -7.068819,2.447913 0.624768,1.998327 3.12229,-1.123962 7.967989,22.055506 h 1.648478 l 14.83682,-40.114869 h 66.372694 l 5.29167,-2.397786 z"
       transform="translate(0,4.171783)"
       sodipodi:insensitive="true" />
  </g>
  <metadata
     id="metadata1">
    <rdf:RDF>
      <cc:Work
         rdf:about="">
        <dc:creator>
          <cc:Agent>
            <dc:title>Jess Tipton</dc:title>
          </cc:Agent>
        </dc:creator>
        <dc:publisher>
          <cc:Agent>
            <dc:title>m0dw3rks.com</dc:title>
          </cc:Agent>
        </dc:publisher>
        <cc:license
           rdf:resource="https://creativecommons.org/licenses/by-nc-nd/4.0/deed.en" />
      </cc:Work>
    </rdf:RDF>
  </metadata>
  <metadata
     id="metadata6">
    <rdf:RDF>
      <cc:Work
         rdf:about="">
        <dc:creator>
          <cc:Agent>
            <dc:title>Jess Tipton</dc:title>
          </cc:Agent>
        </dc:creator>
        <cc:license
           rdf:resource="https://creativecommons.org/licenses/by-nc-nd/4.0/deed.en" />
        <dc:publisher>
          <cc:Agent>
            <dc:title>m0dw3rks.com</dc:title>
          </cc:Agent>
        </dc:publisher>
      </cc:Work>
    </rdf:RDF>
  </metadata>
  <metadata
     id="metadata6">
    <rdf:RDF>
      <cc:Work
         rdf:about="">
        <dc:creator>
          <cc:Agent>
            <dc:title>Jess Tipton</dc:title>
          </cc:Agent>
        </dc:creator>
        <cc:license
           rdf:resource="https://creativecommons.org/licenses/by-nc-nd/4.0/deed.en" />
        <dc:publisher>
          <cc:Agent>
            <dc:title>m0dw3rks.com</dc:title>
          </cc:Agent>
        </dc:publisher>
      </cc:Work>
    </rdf:RDF>
  </metadata>
  <metadata
     id="metadata6">
    <rdf:RDF>
      <cc:Work
         rdf:about="">
        <dc:creator>
          <cc:Agent>
            <dc:title>Jess Tipton</dc:title>
          </cc:Agent>
        </dc:creator>
        <cc:license
           rdf:resource="https://creativecommons.org/licenses/by-nc-nd/4.0/deed.en" />
        <dc:publisher>
          <cc:Agent>
            <dc:title>m0dw3rks.com</dc:title>
          </cc:Agent>
        </dc:publisher>
      </cc:Work>
    </rdf:RDF>
  </metadata>
  <metadata
     id="metadata6">
    <rdf:RDF>
      <cc:Work
         rdf:about="">
        <dc:creator>
          <cc:Agent>
            <dc:title>Jess Tipton</dc:title>
          </cc:Agent>
        </dc:creator>
        <cc:license
           rdf:resource="https://creativecommons.org/licenses/by-nc-nd/4.0/deed.en" />
        <dc:publisher>
          <cc:Agent>
            <dc:title>m0dw3rks.com</dc:title>
          </cc:Agent>
        </dc:publisher>
      </cc:Work>
    </rdf:RDF>
  </metadata>
  <metadata
     id="metadata6">
    <rdf:RDF>
      <cc:Work
         rdf:about="">
        <dc:creator>
          <cc:Agent>
            <dc:title>Jess Tipton</dc:title>
          </cc:Agent>
        </dc:creator>
        <cc:license
           rdf:resource="https://creativecommons.org/licenses/by-nc-nd/4.0/deed.en" />
        <dc:publisher>
          <cc:Agent>
            <dc:title>m0dw3rks.com</dc:title>
          </cc:Agent>
        </dc:publisher>
      </cc:Work>
    </rdf:RDF>
  </metadata>
  <metadata
     id="metadata6">
    <rdf:RDF>
      <cc:Work
         rdf:about="">
        <dc:creator>
          <cc:Agent>
            <dc:title>Jess Tipton</dc:title>
          </cc:Agent>
        </dc:creator>
        <cc:license
           rdf:resource="https://creativecommons.org/licenses/by-nc-nd/4.0/deed.en" />
        <dc:publisher>
          <cc:Agent>
            <dc:title>m0dw3rks.com</dc:title>
          </cc:Agent>
        </dc:publisher>
      </cc:Work>
    </rdf:RDF>
  </metadata>
  <metadata
     id="metadata6">
    <rdf:RDF>
      <cc:Work
         rdf:about="">
        <dc:creator>
          <cc:Agent>
            <dc:title>Jess Tipton</dc:title>
          </cc:Agent>
        </dc:creator>
        <cc:license
           rdf:resource="https://creativecommons.org/licenses/by-nc-nd/4.0/deed.en" />
        <dc:publisher>
          <cc:Agent>
            <dc:title>m0dw3rks.com</dc:title>
          </cc:Agent>
        </dc:publisher>
      </cc:Work>
    </rdf:RDF>
  </metadata>
  <metadata
     id="metadata6">
    <rdf:RDF>
      <cc:Work
         rdf:about="">
        <dc:creator>
          <cc:Agent>
            <dc:title>Jess Tipton</dc:title>
          </cc:Agent>
        </dc:creator>
        <cc:license
           rdf:resource="https://creativecommons.org/licenses/by-nc-nd/4.0/deed.en" />
        <dc:publisher>
          <cc:Agent>
            <dc:title>m0dw3rks.com</dc:title>
          </cc:Agent>
        </dc:publisher>
      </cc:Work>
    </rdf:RDF>
  </metadata>
  <metadata
     id="metadata6">
    <rdf:RDF>
      <cc:Work
         rdf:about="">
        <dc:creator>
          <cc:Agent>
            <dc:title>Jess Tipton</dc:title>
          </cc:Agent>
        </dc:creator>
        <cc:license
           rdf:resource="https://creativecommons.org/licenses/by-nc-nd/4.0/deed.en" />
        <dc:publisher>
          <cc:Agent>
            <dc:title>m0dw3rks.com</dc:title>
          </cc:Agent>
        </dc:publisher>
      </cc:Work>
    </rdf:RDF>
  </metadata>
  <metadata
     id="metadata6">
    <rdf:RDF>
      <cc:Work
         rdf:about="">
        <dc:creator>
          <cc:Agent>
            <dc:title>Jess Tipton</dc:title>
          </cc:Agent>
        </dc:creator>
        <cc:license
           rdf:resource="https://creativecommons.org/licenses/by-nc-nd/4.0/deed.en" />
        <dc:publisher>
          <cc:Agent>
            <dc:title>m0dw3rks.com</dc:title>
          </cc:Agent>
        </dc:publisher>
      </cc:Work>
    </rdf:RDF>
  </metadata>
  <metadata
     id="metadata6">
    <rdf:RDF>
      <cc:Work
         rdf:about="">
        <dc:creator>
          <cc:Agent>
            <dc:title>Jess Tipton</dc:title>
          </cc:Agent>
        </dc:creator>
        <cc:license
           rdf:resource="https://creativecommons.org/licenses/by-nc-nd/4.0/deed.en" />
        <dc:publisher>
          <cc:Agent>
            <dc:title>m0dw3rks.com</dc:title>
          </cc:Agent>
        </dc:publisher>
      </cc:Work>
    </rdf:RDF>
  </metadata>
  <metadata
     id="metadata6">
    <rdf:RDF>
      <cc:Work
         rdf:about="">
        <dc:creator>
          <cc:Agent>
            <dc:title>Jess Tipton</dc:title>
          </cc:Agent>
        </dc:creator>
        <cc:license
           rdf:resource="https://creativecommons.org/licenses/by-nc-nd/4.0/deed.en" />
        <dc:publisher>
          <cc:Agent>
            <dc:title>m0dw3rks.com</dc:title>
          </cc:Agent>
        </dc:publisher>
      </cc:Work>
    </rdf:RDF>
  </metadata>
  <metadata
     id="metadata6">
    <rdf:RDF>
      <cc:Work
         rdf:about="">
        <dc:creator>
          <cc:Agent>
            <dc:title>Jess Tipton</dc:title>
          </cc:Agent>
        </dc:creator>
        <cc:license
           rdf:resource="https://creativecommons.org/licenses/by-nc-nd/4.0/deed.en" />
        <dc:publisher>
          <cc:Agent>
            <dc:title>m0dw3rks.com</dc:title>
          </cc:Agent>
        </dc:publisher>
      </cc:Work>
    </rdf:RDF>
  </metadata>
  <metadata
     id="metadata6">
    <rdf:RDF>
      <cc:Work
         rdf:about="">
        <dc:creator>
          <cc:Agent>
            <dc:title>Jess Tipton</dc:title>
          </cc:Agent>
        </dc:creator>
        <cc:license
           rdf:resource="https://creativecommons.org/licenses/by-nc-nd/4.0/deed.en" />
        <dc:publisher>
          <cc:Agent>
            <dc:title>m0dw3rks.com</dc:title>
          </cc:Agent>
        </dc:publisher>
      </cc:Work>
    </rdf:RDF>
  </metadata>
  <metadata
     id="metadata6">
    <rdf:RDF>
      <cc:Work
         rdf:about="">
        <dc:creator>
          <cc:Agent>
            <dc:title>Jess Tipton</dc:title>
          </cc:Agent>
        </dc:creator>
        <cc:license
           rdf:resource="https://creativecommons.org/licenses/by-nc-nd/4.0/deed.en" />
        <dc:publisher>
          <cc:Agent>
            <dc:title>m0dw3rks.com</dc:title>
          </cc:Agent>
        </dc:publisher>
      </cc:Work>
    </rdf:RDF>
  </metadata>
  <metadata
     id="metadata6">
    <rdf:RDF>
      <cc:Work
         rdf:about="">
        <dc:creator>
          <cc:Agent>
            <dc:title>Jess Tipton</dc:title>
          </cc:Agent>
        </dc:creator>
        <cc:license
           rdf:resource="https://creativecommons.org/licenses/by-nc-nd/4.0/deed.en" />
        <dc:publisher>
          <cc:Agent>
            <dc:title>m0dw3rks.com</dc:title>
          </cc:Agent>
        </dc:publisher>
      </cc:Work>
    </rdf:RDF>
  </metadata>
  <metadata
     id="metadata6">
    <rdf:RDF>
      <cc:Work
         rdf:about="">
        <dc:creator>
          <cc:Agent>
            <dc:title>Jess Tipton</dc:title>
          </cc:Agent>
        </dc:creator>
        <cc:license
           rdf:resource="https://creativecommons.org/licenses/by-nc-nd/4.0/deed.en" />
        <dc:publisher>
          <cc:Agent>
            <dc:title>m0dw3rks.com</dc:title>
          </cc:Agent>
        </dc:publisher>
      </cc:Work>
    </rdf:RDF>
  </metadata>
</svg>
