<?xml version="1.0" encoding="UTF-8" standalone="no"?>
<!-- Created with Inkscape (http://www.inkscape.org/) -->

<svg
   width="512"
   height="512"
   viewBox="0 0 135.46666 135.46667"
   version="1.1"
   id="svg5"
   inkscape:version="1.4 (e7c3feb100, 2024-10-09)"
   sodipodi:docname="application-vnd.openxmlformats-officedocument.presentationml.pr.svg"
   xmlns:inkscape="http://www.inkscape.org/namespaces/inkscape"
   xmlns:sodipodi="http://sodipodi.sourceforge.net/DTD/sodipodi-0.dtd"
   xmlns:xlink="http://www.w3.org/1999/xlink"
   xmlns="http://www.w3.org/2000/svg"
   xmlns:svg="http://www.w3.org/2000/svg">
  <sodipodi:namedview
     id="namedview7"
     pagecolor="#242424"
     bordercolor="#666666"
     borderopacity="1"
     inkscape:showpageshadow="0"
     inkscape:pageopacity="0"
     inkscape:pagecheckerboard="1"
     inkscape:deskcolor="#000000"
     inkscape:document-units="px"
     showgrid="false"
     inkscape:zoom="1.3037281"
     inkscape:cx="445.26155"
     inkscape:cy="280.34987"
     inkscape:window-width="3256"
     inkscape:window-height="1080"
     inkscape:window-x="1864"
     inkscape:window-y="0"
     inkscape:window-maximized="0"
     inkscape:current-layer="layer1" />
  <defs
     id="defs2">
    <linearGradient
       id="linearGradient19"
       inkscape:collect="always">
      <stop
         style="stop-color:#ff6600;stop-opacity:0;"
         offset="0"
         id="stop20" />
      <stop
         style="stop-color:#ff6600;stop-opacity:1;"
         offset="1"
         id="stop19" />
    </linearGradient>
    <linearGradient
       inkscape:collect="always"
       xlink:href="#linearGradient19"
       id="linearGradient20"
       x1="67.73333"
       y1="0"
       x2="67.73333"
       y2="135.46666"
       gradientUnits="userSpaceOnUse" />
    <filter
       inkscape:collect="always"
       style="color-interpolation-filters:sRGB"
       id="filter21"
       x="-0.013589766"
       y="-0.023721442"
       width="1.0271795"
       height="1.0474429">
      <feGaussianBlur
         inkscape:collect="always"
         stdDeviation="0.75508133"
         id="feGaussianBlur21" />
    </filter>
  </defs>
  <g
     inkscape:label="Layer 1"
     inkscape:groupmode="layer"
     id="layer1">
    <path
       id="rect4"
       style="display:inline;opacity:1;fill:#803300;stroke-width:8.46668;stroke-linecap:round;stroke-linejoin:round;stroke-miterlimit:1;paint-order:fill markers stroke"
       d="M 16.933333 0 L 0 19.352307 L 0 38.704614 L 33.866666 0 L 16.933333 0 z M 50.799999 0 L 0 58.056921 L 0 77.409744 L 67.733332 0 L 50.799999 0 z M 84.666666 0 L 0 96.762051 L 0 116.11436 L 101.6 0 L 84.666666 0 z M 118.53333 0 L 0 135.46666 L 16.933333 135.46666 L 135.46666 0 L 118.53333 0 z M 135.46666 19.352307 L 33.866666 135.46666 L 50.799999 135.46666 L 135.46666 38.704614 L 135.46666 19.352307 z M 135.46666 58.056921 L 67.733332 135.46666 L 84.666666 135.46666 L 135.46666 77.409744 L 135.46666 58.056921 z M 135.46666 96.762051 L 101.6 135.46666 L 118.53333 135.46666 L 135.46666 116.11436 L 135.46666 96.762051 z " />
    <rect
       style="display:inline;opacity:1;fill:url(#linearGradient20);stroke:none;stroke-width:8.46667;stroke-linecap:round;stroke-linejoin:round;stroke-miterlimit:1;paint-order:fill markers stroke"
       id="rect3"
       width="135.46666"
       height="135.46666"
       x="0"
       y="0"
       ry="0" />
    <path
       id="text20"
       style="font-size:56.7469px;line-height:1.25;font-family:Aharoni;-inkscape-font-specification:'Aharoni, Normal';font-variant-ligatures:none;text-align:center;text-orientation:upright;text-anchor:middle;fill:#000000;stroke-width:0.264583;filter:url(#filter21)"
       d="m 94.139473,29.535922 c -4.06391,0 -7.31507,1.357709 -9.75341,4.073137 -2.08737,2.309037 -3.13108,5.218412 -3.13108,8.728149 0,3.361958 1.00649,5.873984 3.01997,7.536491 0.70195,0.572641 1.5517,1.071686 2.5492,1.496549 0.62806,0.277085 2.16138,0.775613 4.59972,1.496033 2.01348,0.572641 3.4451,1.136167 4.29483,1.690336 1.14528,0.738892 1.71824,1.662552 1.71824,2.77089 0,1.219172 -0.5174,2.161182 -1.55184,2.826184 -0.88667,0.591114 -1.96759,0.886768 -3.24218,0.886768 -2.82626,0 -5.71677,-1.329926 -8.67234,-3.989937 l -4.21163,7.92458 c 4.04543,2.863207 8.43256,4.294829 13.16147,4.294829 2.25362,0 4.35938,-0.341786 6.31744,-1.025261 5.615577,-1.939591 8.423257,-6.104979 8.423257,-12.496394 0,-2.493761 -0.63744,-4.53504 -1.91203,-6.123658 -1.47778,-1.865702 -3.95311,-3.306757 -7.425897,-4.322733 -2.77084,-0.812781 -4.43312,-1.385223 -4.98729,-1.717725 -1.23765,-0.720419 -1.85674,-1.579599 -1.85674,-2.577103 0,-1.015977 0.47127,-1.828509 1.41335,-2.438094 0.83126,-0.535697 1.77327,-0.803569 2.82619,-0.803569 2.17973,0 4.341047,0.830881 6.483837,2.493388 l 3.93464,-7.647078 c -3.91612,-2.050425 -7.915337,-3.075782 -11.997707,-3.075782 z m -59.90591,0.914156 -6.42803,37.821981 h 9.7808 l 3.21427,-21.778516 8.72815,21.778516 h 3.90674 l 9.14415,-21.778516 2.79827,21.778516 h 9.83661 l -5.70818,-37.821981 h -9.78079 l -8.11837,20.171896 -7.6755,-20.171896 z M 1.0583337,69.269931 V 105.93074 H 10.592633 V 93.790914 h 5.96243 c 4.69119,0 8.04895,-1.405142 10.07225,-4.21628 1.55776,-2.166546 2.33629,-4.906132 2.33629,-8.218619 0,-3.366204 -0.96682,-6.132689 -2.9006,-8.299235 -2.23816,-2.524653 -5.5147,-3.786849 -9.82989,-3.786849 z m 105.4442063,0 v 36.660809 h 9.53481 V 93.790914 h 5.96243 c 4.6912,0 8.04843,-1.405142 10.07174,-4.21628 1.55776,-2.166546 2.33681,-4.906132 2.33681,-8.218619 0,-3.366204 -0.96683,-6.132689 -2.9006,-8.299235 -2.23817,-2.524653 -5.51522,-3.786849 -9.83041,-3.786849 z m -95.909907,7.708056 h 3.19619 c 1.91587,0 3.26773,0.411938 4.05556,1.235584 0.80574,0.80574 1.20871,1.889125 1.20871,3.249931 0,1.378711 -0.34917,2.470545 -1.04748,3.276285 -0.76993,0.895267 -2.18455,1.343071 -4.24367,1.343071 h -3.16931 z m 105.444717,0 h 3.19619 c 1.91587,0 3.26773,0.411938 4.05557,1.235584 0.80574,0.80574 1.20871,1.889125 1.20871,3.249931 0,1.378711 -0.34917,2.470545 -1.04748,3.276285 -0.76993,0.895267 -2.18456,1.343071 -4.24367,1.343071 h -3.16932 z m -16.00729,3.679362 c -1.987487,0 -3.706457,0.429871 -5.156787,1.289327 -1.07432,0.644592 -2.07701,1.692112 -3.00808,3.142444 v -4.082438 h -8.80928 v 24.924058 h 8.80928 V 95.268343 c 0,-1.450332 0.16088,-2.605448 0.48317,-3.464904 0.85946,-2.363505 2.73982,-3.545003 5.64048,-3.545003 1.27128,0 2.524507,0.295374 3.759977,0.88625 v -8.406722 c -0.6804,-0.05372 -1.25322,-0.08062 -1.71876,-0.08062 z m -69.857747,0.349333 12.81111,24.924058 h 5.93555 l 5.96294,-13.670482 6.23063,13.670482 h 5.88233 l 13.05295,-24.924058 h -9.80354 l -6.25749,13.509769 -6.23115,-13.509769 h -5.53299 l -6.25802,13.133565 -5.96243,-13.133565 z" />
    <g
       id="g21">
      <path
         d="M 75.214617,67.206871 H 65.378119 L 62.579566,45.428032 53.435778,67.206871 h -3.906891 l -8.72816,-21.778839 -3.21418,21.778839 h -9.781082 l 6.42836,-37.82203 h 9.697956 l 7.67524,20.17175 8.118575,-20.17175 h 9.781081 z M 107.66121,54.682653 q 0,9.587123 -8.423368,12.49651 -2.937096,1.025212 -6.317526,1.025212 -7.093362,0 -13.161512,-4.294809 l 4.211684,-7.924616 q 4.433351,3.990016 8.672743,3.990016 1.911883,0 3.241889,-0.88667 1.551673,-0.997504 1.551673,-2.826261 0,-1.662507 -1.717924,-2.770845 -1.274589,-0.831253 -4.294809,-1.690215 -3.657515,-1.08063 -4.599602,-1.496256 -1.496257,-0.637295 -2.549177,-1.496257 -3.020221,-2.49376 -3.020221,-7.536697 0,-5.264605 3.131054,-8.728161 3.657515,-4.073141 9.753373,-4.073141 6.123563,0 11.997753,3.075637 l -3.93459,7.647532 q -3.214184,-2.493761 -6.483781,-2.493761 -1.579382,0 -2.826262,0.803545 -1.41313,0.914379 -1.41313,2.438344 0,1.496256 1.856466,2.576885 0.831253,0.498752 4.98752,1.717924 5.209187,1.523964 7.425867,4.322517 1.91188,2.382927 1.91188,6.123567 z"
         id="text1"
         style="font-size:56.7469px;line-height:1.25;font-family:Aharoni;-inkscape-font-specification:'Aharoni, Normal';font-variant-ligatures:none;text-align:center;text-orientation:upright;text-anchor:middle;fill:#ffffff;stroke-width:0.264583"
         aria-label="MS" />
      <path
         d="m 28.963798,80.290524 q 0,4.968731 -2.336646,8.21855 -3.034955,4.216707 -10.071753,4.216707 H 10.592921 V 104.8656 H 1.0583284 V 68.20442 H 16.233103 q 6.472779,0 9.83003,3.786979 2.900665,3.249819 2.900665,8.299125 z m -9.910605,0.107432 q 0,-2.041209 -1.20861,-3.249819 -1.181752,-1.235469 -4.055559,-1.235469 h -3.196103 v 9.104865 h 3.169245 q 3.088671,0 4.243565,-1.3429 1.047462,-1.208611 1.047462,-3.276677 z M 80.04773,79.94137 66.994738,104.8656 H 61.112835 L 54.881777,91.194875 48.919299,104.8656 H 42.98368 L 30.17241,79.94137 h 9.830031 l 5.962478,13.133565 6.257915,-13.133565 h 5.53275 l 6.231058,13.509577 6.257915,-13.509577 z m 21.70127,8.137976 q -1.853206,-0.886314 -3.760124,-0.886314 -4.350997,0 -5.640182,3.545257 -0.483444,1.289184 -0.483444,3.464683 V 104.8656 H 83.055824 V 79.94137 h 8.809426 v 4.082417 q 1.396616,-2.175499 3.008097,-3.142387 2.175498,-1.289185 5.156733,-1.289185 0.69831,0 1.71892,0.08058 z m 32.65934,-7.788822 q 0,4.968731 -2.33665,8.21855 -3.03495,4.216707 -10.07175,4.216707 h -5.96248 V 104.8656 h -9.53459 V 68.20442 h 15.17477 q 6.47278,0 9.83004,3.786979 2.90066,3.249819 2.90066,8.299125 z m -9.9106,0.107432 q 0,-2.041209 -1.20861,-3.249819 -1.18176,-1.235469 -4.05556,-1.235469 h -3.19611 v 9.104865 h 3.16925 q 3.08867,0 4.24356,-1.3429 1.04747,-1.208611 1.04747,-3.276677 z"
         id="text3"
         style="font-size:55.0052px;line-height:1.25;font-family:Aharoni;-inkscape-font-specification:'Aharoni, Normal';font-variant-ligatures:none;text-align:center;text-orientation:upright;text-anchor:middle;fill:#ffffff;stroke-width:0.264583"
         aria-label="PwrP" />
      <text
         xml:space="preserve"
         style="font-size:56.7469px;line-height:1.25;font-family:Aharoni;-inkscape-font-specification:'Aharoni, Normal';font-variant-ligatures:none;text-align:center;text-orientation:upright;text-anchor:middle;display:none;fill:#ffffff;stroke-width:0.264583"
         x="67.719482"
         y="67.206871"
         id="text2"
         sodipodi:insensitive="true"><tspan
           sodipodi:role="line"
           style="fill:#ffffff;stroke-width:0.264583"
           x="0"
           y="0"
           id="tspan1">MS</tspan></text>
      <text
         xml:space="preserve"
         style="font-size:55.0052px;line-height:1.25;font-family:Aharoni;-inkscape-font-specification:'Aharoni, Normal';font-variant-ligatures:none;text-align:center;text-orientation:upright;text-anchor:middle;display:none;fill:#ffffff;stroke-width:0.264583"
         x="66.41729"
         y="104.8656"
         id="text4"
         sodipodi:insensitive="true"><tspan
           sodipodi:role="line"
           id="tspan4"
           style="fill:#ffffff;stroke-width:0.264583"
           x="0"
           y="0">PwrP</tspan></text>
    </g>
  </g>
</svg>
