<?xml version="1.0" encoding="UTF-8" standalone="no"?>
<!-- Created with Inkscape (http://www.inkscape.org/) -->

<svg
   width="512"
   height="512"
   viewBox="0 0 135.46666 135.46667"
   version="1.1"
   id="svg5"
   inkscape:version="1.4.2 (ebf0e940d0, 2025-05-08)"
   sodipodi:docname="application-x-ms-shortcut.svg"
   xmlns:inkscape="http://www.inkscape.org/namespaces/inkscape"
   xmlns:sodipodi="http://sodipodi.sourceforge.net/DTD/sodipodi-0.dtd"
   xmlns:xlink="http://www.w3.org/1999/xlink"
   xmlns="http://www.w3.org/2000/svg"
   xmlns:svg="http://www.w3.org/2000/svg">
  <sodipodi:namedview
     id="namedview7"
     pagecolor="#242424"
     bordercolor="#666666"
     borderopacity="1"
     inkscape:showpageshadow="0"
     inkscape:pageopacity="0"
     inkscape:pagecheckerboard="1"
     inkscape:deskcolor="#000000"
     inkscape:document-units="px"
     showgrid="false"
     inkscape:zoom="0.70710675"
     inkscape:cx="439.11333"
     inkscape:cy="372.64529"
     inkscape:window-width="3256"
     inkscape:window-height="1080"
     inkscape:window-x="1864"
     inkscape:window-y="0"
     inkscape:window-maximized="0"
     inkscape:current-layer="layer1" />
  <defs
     id="defs2">
    <linearGradient
       id="linearGradient23"
       inkscape:collect="always">
      <stop
         style="stop-color:#838383;stop-opacity:1;"
         offset="0"
         id="stop24" />
      <stop
         style="stop-color:#333333;stop-opacity:1;"
         offset="1"
         id="stop23" />
    </linearGradient>
    <linearGradient
       id="linearGradient16"
       inkscape:collect="always">
      <stop
         style="stop-color:#000000;stop-opacity:1;"
         offset="0"
         id="stop16" />
      <stop
         style="stop-color:#000000;stop-opacity:0;"
         offset="1"
         id="stop17" />
    </linearGradient>
    <linearGradient
       id="linearGradient12"
       inkscape:collect="always">
      <stop
         style="stop-color:#008000;stop-opacity:1;"
         offset="0"
         id="stop12" />
      <stop
         style="stop-color:#00ff00;stop-opacity:1;"
         offset="1"
         id="stop13" />
    </linearGradient>
    <linearGradient
       id="linearGradient11"
       inkscape:collect="always">
      <stop
         style="stop-color:#00e5ff;stop-opacity:1;"
         offset="0"
         id="stop10" />
      <stop
         style="stop-color:#007aff;stop-opacity:1;"
         offset="1"
         id="stop11" />
    </linearGradient>
    <linearGradient
       id="linearGradient8"
       inkscape:collect="always">
      <stop
         style="stop-color:#ffcc00;stop-opacity:1;"
         offset="0"
         id="stop8" />
      <stop
         style="stop-color:#ff9200;stop-opacity:1;"
         offset="1"
         id="stop9" />
    </linearGradient>
    <linearGradient
       id="linearGradient3"
       inkscape:collect="always">
      <stop
         style="stop-color:#ffffff;stop-opacity:1;"
         offset="0"
         id="stop3" />
      <stop
         style="stop-color:#ffffff;stop-opacity:0;"
         offset="1"
         id="stop4" />
    </linearGradient>
    <linearGradient
       inkscape:collect="always"
       xlink:href="#linearGradient3"
       id="linearGradient4"
       x1="112.33647"
       y1="38.513168"
       x2="32.449806"
       y2="104.05794"
       gradientUnits="userSpaceOnUse" />
    <linearGradient
       inkscape:collect="always"
       xlink:href="#linearGradient8"
       id="linearGradient9"
       x1="67.73333"
       y1="4.2333326"
       x2="131.23334"
       y2="131.23334"
       gradientUnits="userSpaceOnUse"
       gradientTransform="matrix(0.91666665,0,0,0.91666665,5.6444493,5.6444493)" />
    <linearGradient
       inkscape:collect="always"
       xlink:href="#linearGradient11"
       id="linearGradient10"
       gradientUnits="userSpaceOnUse"
       x1="67.73333"
       y1="4.2333326"
       x2="4.2333298"
       y2="81.095741"
       gradientTransform="matrix(0.91666665,0,0,0.91666665,5.6444506,5.6444504)" />
    <linearGradient
       inkscape:collect="always"
       xlink:href="#linearGradient12"
       id="linearGradient13"
       x1="-436.33868"
       y1="35.188652"
       x2="-309.33868"
       y2="-91.811348"
       gradientUnits="userSpaceOnUse"
       gradientTransform="matrix(0.91666665,0,0,0.91666665,409.50213,93.685406)" />
    <linearGradient
       inkscape:collect="always"
       xlink:href="#linearGradient16"
       id="linearGradient17"
       x1="112.33647"
       y1="38.513168"
       x2="72.723717"
       y2="95.63829"
       gradientUnits="userSpaceOnUse" />
    <linearGradient
       inkscape:collect="always"
       xlink:href="#linearGradient3"
       id="linearGradient18"
       gradientUnits="userSpaceOnUse"
       x1="112.33647"
       y1="38.513168"
       x2="32.449806"
       y2="104.05794" />
    <linearGradient
       inkscape:collect="always"
       xlink:href="#linearGradient23"
       id="linearGradient24"
       x1="24.664541"
       y1="135.46666"
       x2="24.664541"
       y2="125.94166"
       gradientUnits="userSpaceOnUse" />
    <linearGradient
       inkscape:collect="always"
       xlink:href="#linearGradient23"
       id="linearGradient26"
       gradientUnits="userSpaceOnUse"
       x1="24.664541"
       y1="135.46666"
       x2="24.664541"
       y2="125.94166"
       gradientTransform="translate(25.615252)" />
    <linearGradient
       inkscape:collect="always"
       xlink:href="#linearGradient23"
       id="linearGradient27"
       gradientUnits="userSpaceOnUse"
       gradientTransform="translate(51.230505)"
       x1="24.664541"
       y1="135.46666"
       x2="24.664541"
       y2="125.94166" />
    <linearGradient
       inkscape:collect="always"
       xlink:href="#linearGradient23"
       id="linearGradient28"
       gradientUnits="userSpaceOnUse"
       gradientTransform="translate(76.845758)"
       x1="24.664541"
       y1="135.46666"
       x2="24.664541"
       y2="125.94166" />
    <clipPath
       clipPathUnits="userSpaceOnUse"
       id="clipPath38">
      <path
         id="path39"
         style="fill:#000080;stroke-width:0.529169;stroke-linecap:round;stroke-linejoin:round;stroke-miterlimit:12;paint-order:markers stroke fill"
         d="m 220.5023,24.031091 c -8.18678,-0.305525 -14.08441,2.280998 -14.08441,2.280998 l -7.86464,29.35118 c 2.63258,-0.603433 6.11828,-1.132499 10.09964,-1.06557 3.3259,0.05591 7.02797,0.5358 10.89081,1.721342 5.54643,1.702252 11.42347,4.857753 16.99018,10.297046 l 8.40362,-31.363975 c -5.13936,-5.245542 -10.54079,-8.198631 -15.6192,-9.748759 -3.10398,-0.947455 -6.08707,-1.37042 -8.816,-1.472262 z m -11.92124,34.792707 c -4.93859,-0.08302 -8.95054,0.824387 -11.28354,1.524971 L 188.34406,93.7643 c 0,0 20.81523,-9.13012 38.51961,8.94002 l 8.39639,-31.335552 c -5.70269,-6.193221 -11.67393,-9.494731 -17.24081,-11.131618 -3.34013,-0.982134 -6.53497,-1.364547 -9.43819,-1.413352 z" />
    </clipPath>
    <filter
       inkscape:collect="always"
       style="color-interpolation-filters:sRGB"
       id="filter42"
       x="-0.41346807"
       y="-0.12502969"
       width="1.8269361"
       height="1.2500594">
      <feGaussianBlur
         inkscape:collect="always"
         stdDeviation="4.3079687"
         id="feGaussianBlur42" />
    </filter>
    <clipPath
       clipPathUnits="userSpaceOnUse"
       id="clipPath39">
      <path
         id="path40-3"
         style="fill:#808000;stroke-width:0.529169;stroke-linecap:round;stroke-linejoin:round;stroke-miterlimit:12;paint-order:markers stroke fill"
         d="m 248.34866,38.928373 -8.3969,31.336588 c 9.124,9.908201 18.93624,12.413776 26.67796,12.543938 4.9389,0.08304 8.9512,-0.824489 11.28459,-1.524974 l 8.95395,-33.41553 c 0,0 -20.81522,9.129916 -38.5196,-8.940022 z m -9.67021,36.089269 -8.40362,31.362948 c 17.70437,18.06994 38.51961,8.94002 38.51961,8.94002 l 7.86463,-29.351181 c -2.633,0.603417 -6.11939,1.132512 -10.10118,1.065567 -8.10111,-0.136205 -18.43602,-2.79074 -27.87944,-12.017354 z" />
    </clipPath>
    <filter
       inkscape:collect="always"
       style="color-interpolation-filters:sRGB"
       id="filter41"
       x="-0.41347558"
       y="-0.125029"
       width="1.8269512"
       height="1.250058">
      <feGaussianBlur
         inkscape:collect="always"
         stdDeviation="4.3080469"
         id="feGaussianBlur41" />
    </filter>
  </defs>
  <g
     inkscape:label="Layer 1"
     inkscape:groupmode="layer"
     id="layer1">
    <rect
       style="display:none;opacity:1;fill:url(#linearGradient9);fill-opacity:1;stroke:#000000;stroke-width:4.23333;stroke-linecap:round;stroke-linejoin:round;stroke-miterlimit:1;stroke-dasharray:none;stroke-opacity:1;paint-order:fill markers stroke"
       id="rect4"
       width="116.41666"
       height="116.41666"
       x="9.5250044"
       y="9.5250044"
       ry="11.214892" />
    <rect
       style="display:inline;fill:url(#linearGradient13);fill-opacity:1;stroke:#000000;stroke-width:4.23333328;stroke-linecap:round;stroke-linejoin:round;stroke-miterlimit:1;stroke-dasharray:none;stroke-opacity:1;paint-order:markers stroke fill"
       id="rect11"
       width="116.41666"
       height="116.41666"
       x="9.5250044"
       y="9.5250044"
       ry="11.214892" />
    <path
       id="rect9"
       style="display:inline;fill:url(#linearGradient10);stroke:none;stroke-width:4.23333;stroke-linecap:round;stroke-linejoin:round;stroke-miterlimit:1;paint-order:fill markers stroke"
       d="m 20.739891,9.5250044 h 93.986879 c 6.21305,0 11.21489,5.0018416 11.21489,11.2148916 v 46.99344 c -48.394461,34.641144 -64.412139,-16.981016 -116.4166594,0 v -46.99344 c 0,-6.21305 5.0018404,-11.2148916 11.2148904,-11.2148916 z"
       sodipodi:nodetypes="sssccss" />
    <g
       id="g1"
       transform="translate(-163.47598,11.738071)"
       style="display:none">
      <rect
         style="fill:#0000ff;fill-opacity:1;stroke:#000000;stroke-width:2.11667;stroke-linecap:round;stroke-linejoin:round;stroke-miterlimit:1;stroke-dasharray:none;stroke-opacity:1;paint-order:markers stroke fill"
         id="rect5"
         width="25.741266"
         height="25.741266"
         x="218.77094"
         y="-68.865891"
         ry="4.7819638"
         transform="scale(1,-1)" />
      <rect
         style="fill:#00ff00;fill-opacity:1;stroke:#000000;stroke-width:2.11667;stroke-linecap:round;stroke-linejoin:round;stroke-miterlimit:1;stroke-dasharray:none;stroke-opacity:1;paint-order:markers stroke fill"
         id="rect6"
         width="25.741266"
         height="25.741266"
         x="182.44633"
         y="-32.54129"
         ry="4.7819638"
         transform="scale(1,-1)" />
      <rect
         style="fill:#ff0000;fill-opacity:1;stroke:#000000;stroke-width:2.11667;stroke-linecap:round;stroke-linejoin:round;stroke-miterlimit:1;stroke-dasharray:none;stroke-opacity:1;paint-order:markers stroke fill"
         id="rect7"
         width="25.741266"
         height="25.741266"
         x="182.44633"
         y="-68.865891"
         ry="4.7819638"
         transform="scale(1,-1)" />
      <rect
         style="fill:#ff6600;fill-opacity:1;stroke:#000000;stroke-width:2.11667;stroke-linecap:round;stroke-linejoin:round;stroke-miterlimit:1;stroke-dasharray:none;stroke-opacity:1;paint-order:markers stroke fill"
         id="rect8"
         width="25.741266"
         height="25.741266"
         x="218.77094"
         y="-32.54129"
         ry="4.7819638"
         transform="scale(1,-1)" />
      <rect
         style="fill:#7f2aff;fill-opacity:1;stroke:#000000;stroke-width:2.11667;stroke-linecap:round;stroke-linejoin:round;stroke-miterlimit:1;stroke-dasharray:none;stroke-opacity:1;paint-order:markers stroke fill"
         id="rect1"
         width="25.741266"
         height="25.741266"
         x="182.44633"
         y="-105.1905"
         ry="4.7819638"
         transform="scale(1,-1)" />
    </g>
    <path
       style="display:none;fill:none;fill-opacity:1;stroke:url(#linearGradient4);stroke-width:12.1708;stroke-linecap:round;stroke-linejoin:miter;stroke-dasharray:none;stroke-opacity:1"
       d="m 32.449811,104.05794 c 74.341549,0 79.886659,-65.544772 79.886659,-65.544772"
       id="path1"
       sodipodi:nodetypes="cc" />
    <path
       sodipodi:type="star"
       style="display:none;fill:#ffffff;fill-opacity:1;stroke:#000000;stroke-width:5.12313;stroke-linecap:round;stroke-linejoin:round;stroke-miterlimit:1;stroke-dasharray:none;stroke-opacity:1;paint-order:markers stroke fill"
       id="path5"
       inkscape:flatsided="true"
       sodipodi:sides="3"
       sodipodi:cx="172.50209"
       sodipodi:cy="52.156513"
       sodipodi:r1="39.248482"
       sodipodi:r2="6.1123829"
       sodipodi:arg1="-1.3089969"
       sodipodi:arg2="-0.26179935"
       inkscape:rounded="0"
       inkscape:randomized="0"
       d="M 182.66035,14.245391 200.25496,79.909382 134.59097,62.314766 Z"
       transform="matrix(0.60836661,-0.11817703,0.11817703,0.60836661,2.0781155,15.036505)" />
    <rect
       style="fill:#333333;stroke:#000000;stroke-width:2.6458333;stroke-linecap:round;stroke-linejoin:round;stroke-miterlimit:1;stroke-dasharray:none;stroke-opacity:1;paint-order:markers stroke fill"
       id="rect18"
       width="135.46666"
       height="9.5250044"
       x="0"
       y="125.94166"
       ry="2.8610229e-06" />
    <rect
       style="fill:url(#linearGradient24);stroke:#000000;stroke-width:2.64583;stroke-linecap:round;stroke-linejoin:round;stroke-miterlimit:1;stroke-dasharray:none;stroke-opacity:1;paint-order:markers stroke fill"
       id="rect20"
       width="25.615253"
       height="9.5250044"
       x="11.856915"
       y="125.94166"
       ry="2.8610229e-06" />
    <text
       xml:space="preserve"
       style="font-size:4.23333px;line-height:1.25;font-family:Aharoni;-inkscape-font-specification:'Aharoni, Normal';font-variant-ligatures:none;text-align:center;text-orientation:upright;text-anchor:middle;stroke-width:0.52916666;stroke:#000000;stroke-opacity:1;stroke-dasharray:none;paint-order:markers stroke fill"
       x="130.00034"
       y="131.67671"
       id="text23"><tspan
         sodipodi:role="line"
         id="tspan23"
         style="fill:#ffffff;stroke-width:0.52916666;stroke:#000000;stroke-opacity:1;stroke-dasharray:none;paint-order:markers stroke fill"
         x="130.00034"
         y="131.67671">10:45</tspan></text>
    <circle
       style="fill:#ffffff;stroke:#000000;stroke-width:2.64583;stroke-linecap:round;stroke-linejoin:round;stroke-miterlimit:1;stroke-dasharray:none;stroke-opacity:1;paint-order:markers stroke fill"
       id="path23"
       cx="5.2609434"
       cy="130.70416"
       r="3.4395833" />
    <rect
       style="fill:url(#linearGradient26);stroke:#000000;stroke-width:2.64583;stroke-linecap:round;stroke-linejoin:round;stroke-miterlimit:1;stroke-dasharray:none;stroke-opacity:1;paint-order:markers stroke fill"
       id="rect26"
       width="25.615253"
       height="9.5250044"
       x="37.472168"
       y="125.94166"
       ry="2.8610229e-06" />
    <rect
       style="fill:url(#linearGradient27);stroke:#000000;stroke-width:2.64583;stroke-linecap:round;stroke-linejoin:round;stroke-miterlimit:1;stroke-dasharray:none;stroke-opacity:1;paint-order:markers stroke fill"
       id="rect27"
       width="25.615253"
       height="9.5250044"
       x="63.087421"
       y="125.94166"
       ry="2.8610229e-06" />
    <rect
       style="fill:url(#linearGradient28);stroke:#000000;stroke-width:2.64583;stroke-linecap:round;stroke-linejoin:round;stroke-miterlimit:1;stroke-dasharray:none;stroke-opacity:1;paint-order:markers stroke fill"
       id="rect28"
       width="25.615253"
       height="9.5250044"
       x="88.702675"
       y="125.94166"
       ry="2.8610229e-06" />
    <g
       id="g42"
       transform="translate(4.4914334e-6,1.024e-4)"
       style="display:inline">
      <g
         id="g26"
         transform="matrix(0.61723507,0,0,0.61723507,-108.39727,32.928145)"
         style="stroke-width:1.62013">
        <path
           style="opacity:1;fill:#0000a8;stroke-width:0.857318;stroke-linecap:round;stroke-linejoin:round;stroke-miterlimit:12;paint-order:markers stroke fill;fill-opacity:1"
           d="m 253.62058,39.249413 c -5.41145,-1.591182 -10.58699,-2.211354 -15.29058,-2.290425 -8.00115,-0.134507 -14.50083,1.336232 -18.28059,2.471271 l -14.50596,54.136964 c 0,0 33.72338,-14.791451 62.40676,14.484497 L 281.55336,57.284057 C 272.31427,47.250243 262.63964,41.901381 253.62058,39.249413 Z"
           id="path25" />
        <path
           style="fill:#a8a800;stroke-width:0.857318;stroke-linecap:round;stroke-linejoin:round;stroke-miterlimit:12;paint-order:markers stroke fill;fill-opacity:1"
           d="m 287.09136,63.195034 -13.61505,50.812086 c 28.68336,29.27562 62.40675,14.4845 62.40675,14.4845 l 12.74168,-47.552602 c -4.26581,0.977614 -9.91373,1.834784 -16.36472,1.726322 -13.12484,-0.220671 -29.86911,-4.52201 -45.16866,-19.470306 z"
           id="path26" />
        <path
           style="fill:#00aa00;stroke-width:0.857318;stroke-linecap:round;stroke-linejoin:round;stroke-miterlimit:12;paint-order:markers stroke fill"
           d="m 365.16488,19.210392 c 0,0 -33.72339,14.791123 -62.40676,-14.4844952 L 289.15457,55.495054 c 14.78206,16.052558 30.67904,20.112654 43.22163,20.323534 8.00163,0.134537 14.50221,-1.335861 18.28259,-2.470734 z"
           id="path24" />
        <path
           style="fill:#aa0000;stroke-width:0.857318;stroke-linecap:round;stroke-linejoin:round;stroke-miterlimit:12;paint-order:markers stroke fill"
           d="M 271.92715,-17.024036 C 251.81179,-23.164031 234.82527,-15.714 234.82527,-15.714 l -12.74168,47.552595 c 4.26512,-0.977639 9.91228,-1.834792 16.36259,-1.726357 5.38838,0.09058 11.38639,0.868331 17.64469,2.789064 8.98592,2.757864 18.50692,7.87042 27.5257,16.682775 l 13.61546,-50.8135812 c -8.32642,-8.4984496 -17.0772,-13.2831238 -25.30488,-15.7945318 z"
           id="rect18-7" />
      </g>
      <g
         id="path32"
         style="display:inline;mix-blend-mode:overlay;filter:url(#filter42)"
         clip-path="url(#clipPath38)"
         transform="translate(-169.87277,-3.0831759)" />
      <g
         id="path33"
         style="display:inline;mix-blend-mode:overlay;filter:url(#filter41)"
         clip-path="url(#clipPath39)"
         transform="translate(-169.87277,-3.0831759)" />
    </g>
    <path
       style="display:inline;mix-blend-mode:overlay;filter:url(#filter41);baseline-shift:baseline;overflow:visible;vector-effect:none;fill:#ffffff;fill-opacity:1;enable-background:accumulate;stop-color:#000000;stop-opacity:1"
       d="m 276.06445,41.460937 -21.9375,81.873043 3.06641,0.82227 21.93945,-81.873047 z"
       id="path36-3"
       transform="translate(-169.87277,-3.0830734)" />
    <path
       style="baseline-shift:baseline;display:inline;overflow:visible;mix-blend-mode:overlay;vector-effect:none;fill:#ffffff;filter:url(#filter42);enable-background:accumulate;stop-color:#000000;stop-opacity:1"
       d="m 218.01758,17.476562 -21.93946,81.873047 3.06836,0.820311 21.9375,-81.871092 z"
       id="path38-5"
       transform="translate(-169.87277,-3.0830734)" />
    <path
       style="display:inline;mix-blend-mode:overlay;filter:url(#filter41);baseline-shift:baseline;overflow:visible;vector-effect:none;fill:#ffffff;fill-opacity:1;enable-background:accumulate;stop-color:#000000;stop-opacity:1"
       d="m 276.06445,41.460937 -21.9375,81.873043 3.06641,0.82227 21.93945,-81.873047 z"
       id="path7"
       transform="translate(-169.87277,-3.0830734)" />
    <path
       style="baseline-shift:baseline;display:inline;overflow:visible;mix-blend-mode:overlay;vector-effect:none;fill:#ffffff;filter:url(#filter42);enable-background:accumulate;stop-color:#000000;stop-opacity:1"
       d="m 218.01758,17.476562 -21.93946,81.873047 3.06836,0.820311 21.9375,-81.871092 z"
       id="path8"
       transform="translate(-169.87277,-3.0830734)" />
    <path
       id="path15"
       style="display:inline;fill:url(#linearGradient18);stroke:url(#linearGradient17);stroke-width:2.11667;stroke-linecap:round;stroke-dasharray:none;stroke-opacity:1;paint-order:markers stroke fill"
       d="M 114.88601,2.1166666 91.323107,37.041149 106.2638,38.087597 C 106.21999,38.56413 104.81105,53.175395 95.174034,67.962776 85.376758,82.996064 67.831516,97.97283 32.449182,97.97283 a 6.0854001,6.0854001 0 0 0 -6.083867,6.08593 6.0854001,6.0854001 0 0 0 6.083867,6.08387 c 38.959214,0 61.35943,-17.796202 72.920098,-35.535299 11.56067,-17.739098 13.03124,-35.581807 13.03124,-35.581807 a 6.0854001,6.0854001 0 0 0 0.002,-0.08733 L 133.35,39.985156 Z" />
  </g>
  <g
     inkscape:groupmode="layer"
     id="layer2"
     inkscape:label="vol"
     style="display:inline">
    <g
       id="g23"
       transform="matrix(0.02362571,0,0,0.02362571,110.86528,128.24572)"
       style="stroke:#000000;stroke-width:22.3979;stroke-dasharray:none;stroke-opacity:1;paint-order:markers stroke fill">
      <path
         id="path1-6"
         style="fill:#ffffff;stroke:#000000;stroke-width:22.3979;stroke-linecap:round;stroke-linejoin:round;stroke-dasharray:none;stroke-opacity:1;paint-order:markers stroke fill"
         inkscape:transform-center-x="42.725576"
         inkscape:transform-center-y="1.8477945e-06"
         d="M 258.87308,104.05792 425.26832,-43.947861 V 252.06373 Z"
         sodipodi:nodetypes="cccc"
         inkscape:export-filename="../../../../www/www-fsrv/mail/gfx/audio-on.png"
         inkscape:export-xdpi="1.3729192"
         inkscape:export-ydpi="1.3729192" />
      <rect
         style="fill:#ffffff;fill-opacity:1;stroke:#000000;stroke-width:22.3979;stroke-linecap:round;stroke-linejoin:round;stroke-dasharray:none;stroke-opacity:1;paint-order:markers stroke fill"
         id="rect1-7"
         width="61.346241"
         height="148.11774"
         x="258.87302"
         y="29.999071"
         rx="11.794159"
         ry="11.794159" />
      <path
         style="color:#000000;fill:#ffffff;stroke:#000000;stroke-width:22.3979;stroke-linecap:round;stroke-linejoin:round;stroke-dasharray:none;stroke-opacity:1;paint-order:markers stroke fill"
         d="m 536.46947,9.3963952 a 5.0805079,5.0805079 0 0 0 -3.8398,0.6289058 l -0.8145,0.503906 a 5.0805079,5.0805079 0 0 0 -1.6426,6.988281 c 13.4851,21.819278 22.0723,52.532146 22.0723,86.541012 0,34.00888 -8.5873,64.72381 -22.0723,86.54297 a 5.0805079,5.0805079 0 0 0 1.6524,6.99219 l 0.8125,0.50195 a 5.0805079,5.0805079 0 0 0 6.9902,-1.65234 c 14.8148,-23.9707 23.7345,-56.51906 23.7345,-92.38477 0,-35.865706 -8.9197,-68.41603 -23.7345,-92.386715 a 5.0805079,5.0805079 0 0 0 -3.1582,-2.2753898 z"
         id="path36" />
      <path
         style="color:#000000;fill:#ffffff;stroke:#000000;stroke-width:22.3979;stroke-linecap:round;stroke-linejoin:round;stroke-dasharray:none;stroke-opacity:1;paint-order:markers stroke fill"
         d="m 495.02417,45.296785 a 5.0805079,5.0805079 0 0 0 -3.8379,0.621094 l -0.5977,0.369141 a 5.0805079,5.0805079 0 0 0 -1.6504,6.992187 c 7.833,12.673946 12.918,30.742047 12.918,50.779293 0,20.03725 -5.085,38.10535 -12.918,50.7793 a 5.0805079,5.0805079 0 0 0 1.6582,6.99609 l 0.5977,0.36719 a 5.0805079,5.0805079 0 0 0 6.9844,-1.6543 c 9.1319,-14.77577 14.541,-34.6369 14.541,-56.48828 0,-21.851376 -5.409,-41.712374 -14.541,-56.488277 a 5.0805079,5.0805079 0 0 0 -3.1543,-2.273438 z"
         id="path38" />
      <path
         style="color:#000000;fill:#ffffff;stroke:#000000;stroke-width:22.3979;stroke-linecap:round;stroke-linejoin:round;stroke-dasharray:none;stroke-opacity:1;paint-order:markers stroke fill"
         d="m 453.54367,81.181554 a 5.0805079,5.0805079 0 0 0 -3.8379,0.62109 l -0.2558,0.1582 a 5.0805079,5.0805079 0 0 0 -1.6504,6.99219 c 2.1978,3.55611 3.789,9.00743 3.789,15.105466 0,6.09804 -1.5913,11.54754 -3.789,15.10352 a 5.0805079,5.0805079 0 0 0 1.6504,6.99218 l 0.2558,0.15821 a 5.0805079,5.0805079 0 0 0 6.9922,-1.65039 c 3.4488,-5.58015 5.3516,-12.75842 5.3516,-20.60352 0,-7.845096 -1.9029,-15.025436 -5.3516,-20.605466 a 5.0805079,5.0805079 0 0 0 -3.1543,-2.27148 z"
         id="path40" />
    </g>
  </g>
</svg>
