<?xml version="1.0" encoding="UTF-8" standalone="no"?>
<!-- Created with Inkscape (http://www.inkscape.org/) -->

<svg
   width="512"
   height="512"
   viewBox="0 0 135.46666 135.46667"
   version="1.1"
   id="svg5"
   inkscape:version="1.4.2 (ebf0e940d0, 2025-05-08)"
   sodipodi:docname="application-x-atari-lynx-rom.svg"
   xml:space="preserve"
   xmlns:inkscape="http://www.inkscape.org/namespaces/inkscape"
   xmlns:sodipodi="http://sodipodi.sourceforge.net/DTD/sodipodi-0.dtd"
   xmlns:xlink="http://www.w3.org/1999/xlink"
   xmlns="http://www.w3.org/2000/svg"
   xmlns:svg="http://www.w3.org/2000/svg"><sodipodi:namedview
     id="namedview7"
     pagecolor="#242424"
     bordercolor="#666666"
     borderopacity="1"
     inkscape:showpageshadow="0"
     inkscape:pageopacity="0"
     inkscape:pagecheckerboard="1"
     inkscape:deskcolor="#000000"
     inkscape:document-units="px"
     showgrid="false"
     inkscape:zoom="2.6074563"
     inkscape:cx="365.68206"
     inkscape:cy="451.58954"
     inkscape:window-width="3256"
     inkscape:window-height="1080"
     inkscape:window-x="1864"
     inkscape:window-y="0"
     inkscape:window-maximized="0"
     inkscape:current-layer="layer1" /><defs
     id="defs2"><linearGradient
       id="linearGradient64"
       inkscape:collect="always"><stop
         style="stop-color:#c8ab37;stop-opacity:1;"
         offset="0"
         id="stop64" /><stop
         style="stop-color:#ffcc00;stop-opacity:1;"
         offset="1"
         id="stop65" /></linearGradient><linearGradient
       id="linearGradient62"
       inkscape:collect="always"><stop
         style="stop-color:#ff6600;stop-opacity:1;"
         offset="0"
         id="stop62" /><stop
         style="stop-color:#ff6600;stop-opacity:0;"
         offset="1"
         id="stop63" /></linearGradient><linearGradient
       id="linearGradient48"
       inkscape:collect="always"><stop
         style="stop-color:#004bff;stop-opacity:1;"
         offset="0"
         id="stop48" /><stop
         style="stop-color:#49caff;stop-opacity:1;"
         offset="1"
         id="stop49" /></linearGradient><inkscape:path-effect
       effect="fillet_chamfer"
       id="path-effect6"
       is_visible="true"
       lpeversion="1"
       nodesatellites_param="F,0,0,1,0,0,0,1 @ F,0,0,1,0,0,0,1 @ F,0,1,1,0,3.1749998,0,1 @ F,0,1,1,0,3.1749998,0,1"
       radius="12"
       unit="px"
       method="auto"
       mode="F"
       chamfer_steps="1"
       flexible="false"
       use_knot_distance="true"
       apply_no_radius="true"
       apply_with_radius="true"
       only_selected="true"
       hide_knots="false" /><linearGradient
       id="linearGradient3"
       inkscape:collect="always"><stop
         style="stop-color:#474747;stop-opacity:0;"
         offset="0"
         id="stop3" /><stop
         style="stop-color:#434343;stop-opacity:1;"
         offset="0.21121204"
         id="stop5" /><stop
         style="stop-color:#1a1a1a;stop-opacity:0;"
         offset="1"
         id="stop4" /></linearGradient><linearGradient
       id="linearGradient1"
       inkscape:collect="always"><stop
         style="stop-color:#1a1a1a;stop-opacity:1;"
         offset="0"
         id="stop1" /><stop
         style="stop-color:#1a1a1a;stop-opacity:1;"
         offset="1"
         id="stop2" /></linearGradient><linearGradient
       inkscape:collect="always"
       xlink:href="#linearGradient1"
       id="linearGradient2"
       x1="67.73333"
       y1="0"
       x2="67.73333"
       y2="135.46666"
       gradientUnits="userSpaceOnUse" /><linearGradient
       inkscape:collect="always"
       xlink:href="#linearGradient3"
       id="linearGradient4"
       x1="67.73333"
       y1="13.20226"
       x2="67.73333"
       y2="0"
       gradientUnits="userSpaceOnUse" /><filter
       inkscape:collect="always"
       style="color-interpolation-filters:sRGB"
       id="filter5"
       x="-0.018592041"
       y="-0.1907705"
       width="1.0371841"
       height="1.381541"><feGaussianBlur
         inkscape:collect="always"
         stdDeviation="1.0494174"
         id="feGaussianBlur5" /></filter><linearGradient
       inkscape:collect="always"
       xlink:href="#linearGradient48"
       id="linearGradient49"
       x1="52.499626"
       y1="117.67232"
       x2="74.800262"
       y2="61.405884"
       gradientUnits="userSpaceOnUse" /><linearGradient
       inkscape:collect="always"
       xlink:href="#linearGradient62"
       id="linearGradient63"
       x1="202.49121"
       y1="54.212891"
       x2="202.49121"
       y2="48.7836"
       gradientUnits="userSpaceOnUse" /><linearGradient
       inkscape:collect="always"
       xlink:href="#linearGradient64"
       id="linearGradient65"
       x1="1.4753621"
       y1="131.73563"
       x2="133.9913"
       y2="117.6724"
       gradientUnits="userSpaceOnUse" /><filter
       inkscape:collect="always"
       style="color-interpolation-filters:sRGB"
       id="filter66"
       x="-0.0030488847"
       y="-0.03081713"
       width="1.0060978"
       height="1.0616343"><feGaussianBlur
         inkscape:collect="always"
         stdDeviation="0.16700136"
         id="feGaussianBlur66" /></filter><filter
       style="color-interpolation-filters:sRGB;"
       inkscape:label="Dots Transparency"
       id="filter67"
       x="0"
       y="0"
       width="1"
       height="1"
       inkscape:menu="Overlays"
       inkscape:menu-tooltip="Gives a pointillist HSL sensitive transparency"><feTurbulence
         type="fractalNoise"
         baseFrequency="0.02 12"
         numOctaves="4"
         seed="338"
         result="turbulence"
         id="feTurbulence66" /><feComposite
         in="SourceGraphic"
         in2="turbulence"
         operator="in"
         result="composite1"
         id="feComposite66" /><feColorMatrix
         values="1 0 0 0 0 0 1 0 0 0 0 0 1 0 0 0 0 0 4 -1 "
         result="color"
         id="feColorMatrix66" /><feFlood
         flood-opacity="1"
         flood-color="rgb(91,67,0)"
         result="flood"
         id="feFlood66" /><feMerge
         result="merge"
         id="feMerge67"><feMergeNode
           in="flood"
           id="feMergeNode66" /><feMergeNode
           in="color"
           id="feMergeNode67" /></feMerge><feComposite
         in2="SourceGraphic"
         operator="in"
         result="fbSourceGraphic"
         id="feComposite67" /><feColorMatrix
         result="fbSourceGraphicAlpha"
         in="fbSourceGraphic"
         values="0 0 0 -1 0 0 0 0 -1 0 0 0 0 -1 0 0 0 0 1 0"
         id="feColorMatrix67" /><feTurbulence
         id="feTurbulence67"
         result="result1"
         numOctaves="3"
         baseFrequency="1"
         type="fractalNoise"
         seed="50"
         in="fbSourceGraphic" /><feColorMatrix
         id="feColorMatrix68"
         result="result0"
         in="fbSourceGraphic"
         type="luminanceToAlpha" /><feColorMatrix
         id="feColorMatrix69"
         values="1 0 0 0 0 0 1 0 0 0 0 0 1 0 0 0 0 0 0.7 0 "
         result="result2" /><feComposite
         id="feComposite69"
         in="result1"
         operator="over"
         in2="result2"
         result="result3" /><feColorMatrix
         id="feColorMatrix70"
         values="1 0 0 0 0 0 1 0 0 0 0 0 1 0 0 0 0 0 5 -3.2 "
         result="result91" /><feComposite
         id="feComposite70"
         operator="out"
         in="fbSourceGraphic"
         result="result4"
         in2="result91" /></filter></defs><g
     inkscape:label="Layer 1"
     inkscape:groupmode="layer"
     id="layer1"><path
       id="path58"
       style="font-size:6.11764px;line-height:1.25;font-family:'Adobe Gothic Std';-inkscape-font-specification:'Adobe Gothic Std, Normal';text-align:center;text-orientation:upright;text-anchor:middle;fill:#ffffff;stroke-width:0.831291"
       d="M 26.10135,5.7030494 V 21.15664 h 2.844577 v -3.557347 l 0.74849,-1.018007 2.498745,4.575354 h 3.383619 l -3.921035,-6.304507 3.49727,-4.401626 H 31.847331 L 29.7139,13.793535 c -0.249875,0.403642 -0.480493,0.84597 -0.711145,1.326495 h -0.05683 V 5.7030494 Z m 31.675149,0 v 5.7849476 h -0.03896 c -0.422861,-0.730396 -1.325693,-1.250184 -2.575056,-1.250184 -2.306514,0 -4.325316,1.999826 -4.325316,5.65181 0,3.248342 1.731371,5.478085 4.153212,5.478085 1.307024,0 2.459275,-0.673624 3.016681,-1.730777 h 0.05844 l 0.13476,1.519709 h 2.498747 c -0.03846,-0.788059 -0.07796,-1.980903 -0.07796,-3.057274 V 5.7030494 Z m 36.193674,0 V 21.15664 h 2.84458 v -6.497718 c 0,-1.595339 1.095908,-2.094466 1.807084,-2.094466 1.230142,0 1.652843,1.056124 1.652843,2.420815 v 6.171369 h 2.84458 v -6.401925 c 0,-3.152237 -1.50023,-4.534763 -3.403105,-4.534763 -0.922603,0 -2.09522,0.403267 -2.86406,1.518083 h -0.03736 V 5.7030494 Z M 22.102383,6.009918 c -0.884166,0 -1.518083,0.6339173 -1.518083,1.5180833 0,0.8649406 0.614698,1.5180832 1.518083,1.5180832 0.884163,0 1.537566,-0.5954795 1.537566,-1.5180832 0,-0.884166 -0.614963,-1.5180833 -1.537566,-1.5180833 z m 42.498181,0 c -0.884166,0 -1.518083,0.6339173 -1.518083,1.5180833 0,0.8649406 0.614698,1.5180832 1.518083,1.5180832 0.884163,0 1.537566,-0.5954795 1.537566,-1.5180832 0,-0.884166 -0.614963,-1.5180833 -1.537566,-1.5180833 z M 10.819867,6.3752256 V 21.15664 h 8.131072 V 18.753687 H 13.664444 V 6.3752256 Z m 30.176547,3.8447264 c -3.133018,0 -4.901698,2.651143 -4.901698,5.726499 0,3.325227 1.884698,5.401774 5.190702,5.401774 1.326247,0 2.575767,-0.230928 3.459929,-0.615351 l -0.404279,-1.959705 c -0.730396,0.249876 -1.556873,0.441625 -2.614025,0.441625 -1.537676,0 -2.844005,-0.73121 -2.920887,-2.557198 h 6.400299 c 0.05765,-0.307529 0.07631,-0.710426 0.07631,-1.133287 0,-3.459772 -1.691521,-5.304357 -4.286349,-5.304357 z m 43.344086,0 c -0.999489,0 -2.153249,0.710557 -2.65299,2.094466 h -0.07632 l -0.115286,-1.863911 h -2.441919 c 0.03846,0.961048 0.07792,2.016783 0.07792,3.343028 v 7.363105 h 2.844576 v -5.536538 c 0,-1.825992 0.98039,-2.690332 2.268194,-2.690332 0.2883,0 0.517574,0.01822 0.729005,0.05684 v -2.709819 c -0.192227,-0.03843 -0.364122,-0.05684 -0.633216,-0.05684 z m 7.418306,0 c -0.999488,0 -2.151619,0.710557 -2.651367,2.094466 h -0.07792 l -0.115276,-1.863911 h -2.440311 c 0.03846,0.961048 0.07632,2.016783 0.07632,3.343028 v 7.363105 h 2.844573 v -5.536538 c 0,-1.825992 0.980386,-2.690332 2.268191,-2.690332 0.28833,0 0.519198,0.01822 0.730628,0.05684 v -2.709819 c -0.192217,-0.03843 -0.365737,-0.05684 -0.634831,-0.05684 z m 18.221854,0 c -3.13301,0 -4.9017,2.651143 -4.9017,5.726499 0,3.325227 1.8847,5.401774 5.19071,5.401774 1.32624,0 2.57576,-0.230928 3.45993,-0.615351 l -0.40428,-1.959705 c -0.7304,0.249876 -1.55688,0.441625 -2.61403,0.441625 -1.53768,0 -2.844,-0.73121 -2.92089,-2.557198 h 6.40031 c 0.0576,-0.307529 0.0763,-0.710426 0.0763,-1.133287 0,-3.459772 -1.69152,-5.304357 -4.28635,-5.304357 z m -37.615958,0.01791 c -1.672222,0 -2.997167,0.481491 -3.708343,0.904352 l 0.537416,1.844432 c 0.691955,-0.422861 1.653239,-0.730628 2.633509,-0.730628 1.556894,0 1.922363,0.808383 1.922363,1.865535 -3.402112,0 -5.843399,1.287717 -5.843399,4.036312 0,1.729888 1.230131,3.209892 3.20989,3.209892 1.191701,0 2.229506,-0.480772 2.844578,-1.326495 h 0.05844 l 0.172113,1.115426 h 2.557194 c -0.115308,-0.653511 -0.154236,-1.595889 -0.154236,-2.537715 v -3.921084 c 0,-2.344957 -0.904296,-4.460075 -4.229522,-4.460075 z m 47.649918,0 c -1.67222,0 -2.99879,0.481491 -3.70997,0.904352 l 0.53742,1.844432 c 0.69195,-0.422861 1.65323,-0.730628 2.63351,-0.730628 1.55689,0 1.92236,0.808383 1.92236,1.865535 -3.40211,0 -5.8434,1.287717 -5.8434,4.036312 0,1.729888 1.23013,3.209892 3.2099,3.209892 1.1917,0 2.22949,-0.480772 2.84457,-1.326495 h 0.0585 l 0.17211,1.115426 h 2.5572 c -0.11539,-0.653511 -0.15423,-1.595889 -0.15423,-2.537715 v -3.921084 c 0,-2.344957 -0.90267,-4.460075 -4.2279,-4.460075 z m -99.315044,0.212705 v 10.706132 h 2.844576 V 10.450566 Z m 42.498181,0 v 10.706132 h 2.844576 V 10.450566 Z m -22.373445,1.748636 c 1.403128,0 1.844164,1.364447 1.824944,2.479263 h -3.8431 c 0.07688,-1.057156 0.653466,-2.479263 2.018156,-2.479263 z m 68.984248,0 c 1.40313,0 1.84417,1.364447 1.82495,2.479263 h -3.84311 c 0.0769,-1.057156 0.65347,-2.479263 2.01816,-2.479263 z M 55.893105,12.48659 c 0.941825,0 1.883394,0.769748 1.883394,2.326647 v 1.959704 c 0,1.691446 -1.076642,2.30716 -1.922363,2.30716 -1.345468,0 -2.152915,-1.288059 -2.152915,-3.229374 0,-1.864433 0.731089,-3.364137 2.191884,-3.364137 z m 17.932852,3.45993 v 1.537566 c 0,1.36469 -1.114871,1.846052 -1.787604,1.846052 -0.711176,0 -1.345979,-0.442545 -1.345979,-1.461255 0,-1.556898 1.595908,-1.922363 3.133583,-1.922363 z m 47.648293,0 v 1.537566 c 0,1.36469 -1.11486,1.846052 -1.7876,1.846052 -0.71117,0 -1.34436,-0.442545 -1.34436,-1.461255 0,-1.556898 1.59428,-1.922363 3.13196,-1.922363 z M 17.268872,31.724834 v 15.453585 h 2.844578 v -6.496092 c 0,-1.595339 1.095909,-2.094466 1.807087,-2.094466 1.230141,0 1.652842,1.056128 1.652842,2.420815 v 6.169743 h 2.844576 v -6.400298 c 0,-3.152238 -1.500227,-4.536386 -3.403101,-4.536386 -0.922607,0 -2.093596,0.403268 -2.862435,1.518083 h -0.03896 v -6.034984 z m 34.943491,0 v 15.453585 h 2.844578 v -6.496092 c 0,-1.595339 1.095914,-2.094466 1.807087,-2.094466 1.230141,0 1.652842,1.056128 1.652842,2.420815 v 6.169743 h 2.844576 v -6.400298 c 0,-3.152238 -1.498603,-4.536386 -3.401477,-4.536386 -0.922606,0 -2.095224,0.403268 -2.864062,1.518083 h -0.03896 v -6.034984 z m 45.688589,0 v 15.453585 h 2.844578 V 43.6227 l 0.74849,-1.01801 2.49874,4.573729 h 3.38362 l -3.92103,-6.304502 3.49889,-4.401627 h -3.30731 l -2.13343,3.34465 c -0.24987,0.403642 -0.48049,0.845971 -0.71114,1.326495 h -0.0568 v -9.418601 z m -32.598986,0.308501 c -0.884166,0 -1.518084,0.633915 -1.518084,1.51808 0,0.864941 0.614699,1.518083 1.518084,1.518083 0.884162,0 1.537566,-0.595478 1.537566,-1.518083 0,-0.884165 -0.614963,-1.51808 -1.537566,-1.51808 z m 17.241189,0 c -0.903383,0 -1.537566,0.633915 -1.537566,1.51808 0,0.864941 0.6147,1.518083 1.518085,1.518083 0.884166,0 1.537564,-0.595478 1.537564,-1.518083 0,-0.864943 -0.595475,-1.51808 -1.518083,-1.51808 z m -69.406389,1.652842 -2.807232,0.826422 v 1.959707 H 8.926726 v 2.096088 h 1.402808 v 4.939043 c 0,1.191701 0.05822,3.864209 3.133581,3.864209 0.826502,0 1.518463,-0.09626 1.90288,-0.250032 l -0.03896,-2.172401 c -0.2883,0.05765 -0.518572,0.0958 -0.922214,0.0958 -0.864941,0 -1.268045,-0.537143 -1.268045,-1.824945 v -4.651664 h 2.363987 V 36.47231 h -2.363987 z m 59.430886,0 -2.807232,0.826422 v 1.959707 h -1.402809 v 2.096088 h 1.402809 v 4.939043 c 0,1.191701 0.05822,3.864209 3.13358,3.864209 0.826499,0 1.51846,-0.09626 1.90288,-0.250032 l -0.03896,-2.172401 c -0.288332,0.05765 -0.518575,0.0958 -0.922215,0.0958 -0.864943,0 -1.268045,-0.537143 -1.268045,-1.824945 v -4.651661 h 2.36399 v -2.096186 h -2.363998 z m -39.288291,2.555489 c -3.133014,0 -4.901698,2.652769 -4.901698,5.72812 0,3.325228 1.884698,5.401775 5.190702,5.401775 1.326247,0 2.575763,-0.230928 3.459929,-0.615348 l -0.40428,-1.961332 c -0.730395,0.249874 -1.55687,0.443249 -2.614024,0.443249 -1.537677,0 -2.844003,-0.73121 -2.920887,-2.557199 h 6.400299 c 0.05765,-0.307529 0.07631,-0.710422 0.07631,-1.133282 0,-3.459773 -1.691522,-5.305983 -4.286349,-5.305983 z m 13.935507,0 c -2.383398,0 -3.921033,1.461523 -3.921033,3.38362 0,1.172477 0.730316,2.306817 2.729299,3.114097 1.172477,0.499743 1.537566,0.845083 1.537566,1.498597 0,0.653511 -0.481251,1.076459 -1.48074,1.076459 -0.884166,0 -1.941337,-0.384388 -2.498745,-0.711145 l -0.537418,2.057126 c 0.711176,0.42286 1.845827,0.711141 3.018304,0.711141 2.671714,0 4.208416,-1.346194 4.208416,-3.383616 0,-1.480013 -0.844596,-2.517101 -2.651367,-3.266718 -1.230141,-0.518965 -1.634983,-0.826441 -1.634983,-1.42229 0,-0.576628 0.461553,-1.019632 1.326498,-1.019632 0.807277,0 1.55685,0.307025 2.018156,0.5569 l 0.539039,-1.998673 c -0.615074,-0.326756 -1.557395,-0.595866 -2.652992,-0.595866 z m 43.746743,0 c -2.902366,0 -5.073802,2.038006 -5.073802,5.632327 0,3.478994 2.075382,5.517054 4.958526,5.517054 2.383398,0 4.997495,-1.576969 4.997495,-5.651813 0,-3.248341 -1.883749,-5.497568 -4.882219,-5.497568 z m 21.834409,0 c -3.13302,0 -4.90008,2.652769 -4.90008,5.72812 0,3.325228 1.88308,5.401775 5.18908,5.401775 1.32625,0 2.57577,-0.230928 3.45992,-0.615348 l -0.40428,-1.961332 c -0.73039,0.249874 -1.55687,0.443249 -2.61401,0.443249 -1.53768,0 -2.84401,-0.73121 -2.92089,-2.557199 h 6.4003 c 0.0576,-0.307529 0.0764,-0.710422 0.0764,-1.133282 0,-3.459773 -1.69153,-5.305983 -4.28635,-5.305983 z m 9.78392,0 c -2.38341,0 -3.92104,1.461523 -3.92104,3.38362 0,1.172477 0.73032,2.306817 2.72929,3.114097 1.17248,0.499743 1.53758,0.845083 1.53758,1.498597 0,0.653511 -0.47963,1.076459 -1.47913,1.076459 -0.88415,0 -1.94134,-0.384388 -2.49874,-0.711145 l -0.53904,2.057126 c 0.71118,0.42286 1.84582,0.711141 3.01831,0.711141 2.67171,0 4.20841,-1.346194 4.20841,-3.383616 0,-1.480013 -0.84459,-2.517101 -2.65136,-3.266718 -1.23014,-0.518965 -1.63498,-0.826441 -1.63498,-1.42229 0,-0.576628 0.46154,-1.019632 1.32649,-1.019632 0.80728,0 1.55685,0.307025 2.01815,0.5569 l 0.53904,-1.998673 c -0.61506,-0.326756 -1.5574,-0.595866 -2.65298,-0.595866 z M 63.899162,36.472218 V 47.17835 h 2.844576 V 36.472221 Z m 17.221707,0 v 8.957494 c 0,2.710154 -0.154361,3.939633 -2.42244,4.112622 l 0.269513,2.23085 c 4.901344,0 4.997495,-3.863998 4.997495,-5.632327 v -9.668639 z m -48.013611,1.750256 c 1.403132,0 1.844167,1.364452 1.824945,2.479267 h -3.8431 c 0.07688,-1.057153 0.653469,-2.479267 2.018155,-2.479267 z m 79.516652,0 c 1.40313,0 1.84579,1.364452 1.82657,2.479267 h -3.84472 c 0.0769,-1.057153 0.65346,-2.479267 2.01815,-2.479267 z m -21.719126,0.115282 c 1.460791,0 2.055501,1.787706 2.055501,3.459926 0,1.902877 -0.729517,3.497274 -2.074984,3.497274 -1.383909,0 -2.115574,-1.576538 -2.115574,-3.479412 0,-1.633783 0.558936,-3.477788 2.135057,-3.477788 z M 11.617062,57.748094 v 15.453589 h 2.844577 V 69.64596 l 0.750111,-1.019632 2.498746,4.575355 h 3.383619 l -3.921036,-6.304506 3.497273,-4.401627 h -3.305684 l -2.133435,3.34465 c -0.249874,0.403642 -0.480495,0.845974 -0.711144,1.326497 h -0.05844 v -9.418603 z m 86.879756,0.306867 c -0.884163,0 -1.519704,0.63554 -1.519704,1.519706 0,0.864943 0.61632,1.518083 1.519704,1.518083 0.884166,0 1.537562,-0.595477 1.537562,-1.518083 0,-0.884166 -0.614955,-1.519706 -1.537562,-1.519706 z m -71.98307,4.210037 c -3.133014,0 -4.901698,2.652771 -4.901698,5.728124 0,3.325226 1.884698,5.400153 5.190702,5.400153 1.326246,0 2.575766,-0.229295 3.459929,-0.613731 l -0.40428,-1.961329 c -0.730395,0.249876 -1.556873,0.441625 -2.614024,0.441625 -1.537677,0 -2.845627,-0.729581 -2.922509,-2.555573 h 6.401921 c 0.05765,-0.307529 0.07631,-0.712051 0.07631,-1.134911 0,-3.459773 -1.691519,-5.304358 -4.286351,-5.304358 z m 10.590857,0 c -3.133015,0 -4.901699,2.652771 -4.901699,5.728124 0,3.325226 1.884698,5.400153 5.190702,5.400153 1.326249,0 2.574139,-0.229295 3.458305,-0.613731 l -0.402656,-1.961329 c -0.730395,0.249876 -1.556873,0.441625 -2.614024,0.441625 -1.537677,0 -2.84563,-0.729581 -2.922511,-2.555573 h 6.401923 c 0.05765,-0.307529 0.07631,-0.712051 0.07631,-1.134911 0,-3.459773 -1.691522,-5.304358 -4.28635,-5.304358 z m 12.013143,0 c -1.383909,0 -2.478968,0.596215 -3.170923,1.691811 h -0.03896 L 45.77311,62.495554 h -2.479262 c 0.03846,0.98027 0.07631,2.114982 0.07631,3.498894 v 11.493591 h 2.844577 v -5.323846 h 0.03896 c 0.461305,0.711176 1.365236,1.248562 2.537715,1.248562 2.171966,0 4.401625,-1.729375 4.401625,-5.669671 0,-3.286786 -1.730324,-5.478086 -4.075281,-5.478086 z m 23.699942,0 c -2.902363,0 -5.075428,2.03801 -5.075428,5.63233 0,3.478995 2.077008,5.515427 4.960152,5.515427 2.383398,0 4.997491,-1.575344 4.997491,-5.650189 0,-3.248342 -1.883745,-5.497568 -4.882215,-5.497568 z m -8.437939,0.01948 c -3.536654,0 -5.612844,2.45977 -5.612844,5.669672 0,3.402108 2.036577,5.439119 5.169596,5.439119 1.134034,0 2.114018,-0.230458 2.594542,-0.461111 l -0.306869,-2.133432 c -0.461304,0.211418 -1.017976,0.345828 -1.729151,0.345828 -1.633781,0 -2.844578,-1.210598 -2.844578,-3.305684 0,-1.883655 1.037544,-3.325168 2.825094,-3.325168 0.788059,0 1.307128,0.172837 1.672326,0.345832 l 0.461106,-2.1724 c -0.461304,-0.192222 -1.306619,-0.402656 -2.229224,-0.402656 z m 20.949533,0 c -1.595339,0 -2.536416,0.884002 -3.036164,1.652842 h -0.05844 l -0.133126,-1.42229 h -2.422436 c 0.03846,0.941826 0.07631,1.960527 0.07631,3.209891 v 7.476758 h 2.787749 v -6.439265 c 0,-1.441572 0.921611,-2.1724 1.70967,-2.1724 1.114816,0 1.519705,1.019093 1.519705,2.287676 v 6.323989 h 2.786128 v -6.496093 c 0,-1.499235 0.884266,-2.115572 1.672325,-2.115572 1.134037,0 1.557049,1.019521 1.557049,2.557197 v 6.054468 h 2.787753 v -6.496093 c 0,-3.094574 -1.442876,-4.421108 -3.307308,-4.421108 -1.1917,0 -2.28676,0.480574 -3.170926,1.787601 h -0.03896 c -0.422862,-1.095596 -1.422275,-1.787601 -2.729302,-1.787601 z m 22.834556,0 c -1.5569,0 -2.61409,0.884263 -3.09462,1.672325 h -0.0568 l -0.13476,-1.441773 h -2.45978 c 0.0385,0.941826 0.0763,1.960527 0.0763,3.209891 v 7.476758 h 2.84458 v -6.361334 c 0,-1.633783 1.05773,-2.230848 1.82657,-2.230848 1.21092,0 1.63336,1.039101 1.63336,2.346128 v 6.246054 h 2.84457 v -6.554543 c 0,-2.99847 -1.51887,-4.362658 -3.47941,-4.362658 z m 9.86023,0 c -2.36418,0 -4.41949,2.094045 -4.41949,5.630703 0,2.921584 1.59494,5.210188 4.13211,5.210188 1.17247,0 2.13266,-0.519741 2.67084,-1.365462 h 0.039 v 0.787454 c 0,2.056636 -1.05765,2.961469 -2.65298,2.961469 -1.13405,0 -2.13236,-0.347306 -2.76665,-0.69329 l -0.55852,2.17243 c 0.84571,0.480521 2.13425,0.730614 3.38362,0.730614 5.20887,0 5.40177,-3.883094 5.40177,-5.97816 v -6.034985 c 0,-1.480013 0.0381,-2.421571 0.0957,-3.190408 h -2.47926 l -0.11696,1.268045 h -0.0374 c -0.48052,-0.845721 -1.34649,-1.498597 -2.69196,-1.498597 z m -20.93168,0.211071 v 10.706134 h 2.846201 V 62.495556 Z m -70.752366,1.748642 c 1.403128,0 1.845788,1.364448 1.82657,2.479264 h -3.844726 c 0.07688,-1.057152 0.653466,-2.479264 2.018156,-2.479264 z m 10.590853,0 c 1.403131,0 1.845791,1.364448 1.82657,2.479264 h -3.844725 c 0.07688,-1.057152 0.653469,-2.479264 2.018155,-2.479264 z m 35.828361,0.115282 c 1.460793,0 2.057125,1.787709 2.057125,3.459929 0,1.902877 -0.731141,3.498896 -2.076608,3.498896 -1.383909,0 -2.113949,-1.576538 -2.113949,-3.479413 0,-1.63378 0.557315,-3.479412 2.133432,-3.479412 z m 45.860692,0.154235 c 0.96105,0 1.7876,0.788228 1.7876,2.152916 v 2.074983 c 0,1.80677 -1.15194,2.23085 -1.80546,2.23085 -1.34547,0 -2.13344,-1.269149 -2.13344,-3.133582 0,-2.0182 0.86349,-3.325167 2.1513,-3.325167 z m -70.443879,0.03896 c 1.403131,0 2.133432,1.383327 2.133432,3.286201 0,1.922096 -0.750311,3.344653 -2.191884,3.344653 -0.961047,0 -1.902877,-0.750265 -1.902877,-2.30716 v -1.998676 c 0,-1.287805 0.865736,-2.325021 1.961329,-2.325021 z m -8.562958,19.218769 v 5.784944 h -0.03896 c -0.422862,-0.730396 -1.325697,-1.248557 -2.57506,-1.248557 -2.306515,0 -4.325316,1.998211 -4.325316,5.650189 0,3.248339 1.729753,5.478075 4.151592,5.478075 1.307026,0 2.460892,-0.673621 3.018302,-1.730773 h 0.05683 l 0.13476,1.519702 h 2.498746 c -0.03843,-0.788049 -0.07631,-1.9809 -0.07631,-3.057281 V 83.771434 Z m 16.97167,0 v 15.453578 h 2.844578 v -6.497713 c 0,-1.595328 1.095909,-2.094479 1.807087,-2.094479 1.230141,0 1.652842,1.057749 1.652842,2.422429 v 6.169763 h 2.844577 V 92.8247 c 0,-3.152228 -1.498604,-4.536388 -3.401478,-4.536388 -0.922606,0 -2.09522,0.403293 -2.864059,1.518099 h -0.03896 v -6.034975 z m 38.346593,0.306867 c -0.903385,0 -1.537566,0.633909 -1.537566,1.518068 0,0.864932 0.614698,1.519701 1.518083,1.519701 0.884163,0 1.537566,-0.597115 1.537566,-1.519701 0,-0.864963 -0.595475,-1.518068 -1.518083,-1.518068 z m -42.478698,1.652824 -2.805611,0.826412 v 1.961356 h -1.404428 v 2.094448 h 1.402807 v 4.940686 c 0,1.191688 0.05822,3.862579 3.13358,3.862579 0.826501,0 1.51846,-0.09639 1.90288,-0.250032 l -0.03896,-2.170795 c -0.288331,0.05749 -0.518575,0.09579 -0.922214,0.09579 -0.864944,0 -1.268045,-0.53877 -1.268045,-1.82657 v -4.651663 h 2.363987 V 88.518886 H 52.45266 Z m 69.830152,0 -2.80723,0.826412 v 1.961356 h -1.40281 v 2.094448 h 1.40281 v 4.940686 c 0,1.191688 0.0582,3.862579 3.13358,3.862579 0.8265,0 1.51846,-0.09639 1.90288,-0.250032 l -0.039,-2.170795 c -0.28833,0.05749 -0.51857,0.09579 -0.92221,0.09579 -0.86495,0 -1.26806,-0.53877 -1.26806,-1.82657 v -4.651663 h 2.364 v -2.094453 h -2.364 z m -49.687556,2.557186 c -3.133019,0 -4.900076,2.652793 -4.900076,5.728138 0,3.325252 1.883074,5.400157 5.189079,5.400157 1.326246,0 2.575767,-0.23093 3.459928,-0.615371 l -0.404278,-1.959691 c -0.730397,0.24978 -1.556873,0.441624 -2.614026,0.441624 -1.537677,0 -2.844006,-0.72961 -2.920887,-2.555583 h 6.400299 c 0.05765,-0.307591 0.07632,-0.712079 0.07632,-1.134914 0,-3.459787 -1.691523,-5.30436 -4.286351,-5.30436 z m 41.421716,0 c -2.38339,0 -3.92103,1.45991 -3.92103,3.381994 0,1.17249 0.73033,2.306839 2.7293,3.114117 1.17249,0.499749 1.53757,0.845074 1.53757,1.498587 0,0.653514 -0.47963,1.076475 -1.47912,1.076475 -0.88416,0 -1.94134,-0.384411 -2.49874,-0.711167 l -0.53905,2.057122 c 0.71118,0.422867 1.84583,0.711167 3.01831,0.711167 2.67171,0 4.20841,-1.344572 4.20841,-3.381995 0,-1.480018 -0.8446,-2.518729 -2.65136,-3.268352 -1.23014,-0.518977 -1.63336,-0.826412 -1.63336,-1.422272 0,-0.57663 0.45993,-1.018034 1.32488,-1.018034 0.80727,0 1.55685,0.307088 2.01815,0.556899 l 0.53904,-1.998651 c -0.61508,-0.326756 -1.5574,-0.59589 -2.653,-0.59589 z m -99.217618,0.01948 c -1.672225,0 -2.998791,0.479893 -3.709967,0.902728 l 0.537418,1.844415 c 0.691953,-0.422867 1.653237,-0.729012 2.633507,-0.729012 1.556899,0 1.922363,0.806774 1.922363,1.863927 -3.402109,0 -5.843399,1.287736 -5.843399,4.036324 0,1.729895 1.230132,3.209882 3.209892,3.209882 1.191699,0 2.229507,-0.480772 2.844576,-1.326506 h 0.05844 l 0.172113,1.115434 h 2.557197 c -0.115343,-0.653518 -0.154238,-1.595896 -0.154238,-2.53771 v -3.921049 c 0,-2.34495 -0.902672,-4.458437 -4.227899,-4.458437 z m 12.435284,0 c -1.556897,0 -2.61409,0.882652 -3.094614,1.670701 h -0.05844 L 23.948455,88.538346 H 21.48705 c 0.03846,0.941813 0.07794,1.96054 0.07794,3.209881 v 7.476759 h 2.844578 v -6.362957 c 0,-1.633785 1.056106,-2.229235 1.824946,-2.229235 1.210919,0 1.634983,1.037483 1.634983,2.344511 v 6.247681 h 2.844577 v -6.55455 c 0,-2.998464 -1.518875,-4.362642 -3.479412,-4.362642 z m 50.492872,0.211073 3.594687,9.840717 c 0.07688,0.211448 0.115281,0.365308 0.115281,0.480614 0,0.21145 -0.480463,1.306432 -1.42229,1.979172 -0.499746,0.34598 -1.037294,0.65455 -1.498597,0.78909 l 0.711143,2.40131 c 0.634291,-0.11531 1.728712,-0.49909 2.766645,-1.49859 1.210919,-1.21091 2.115609,-3.09479 3.307308,-6.554546 l 2.420812,-7.437767 h -2.959851 l -1.345979,5.593351 c -0.153764,0.672741 -0.326294,1.422051 -0.44162,1.998682 h -0.05683 C 82.783685,95.515037 82.59113,94.765727 82.41814,94.112214 l -1.576531,-5.593351 z m 15.781558,0 v 8.955866 c 0,2.710167 -0.154361,3.941287 -2.422436,4.114247 l 0.269511,2.22923 c 4.901347,0 4.997496,-3.863991 4.997496,-5.632341 v -9.667002 z m 5.343326,0 v 6.380803 c 0,3.209882 1.383538,4.536388 3.420958,4.536388 1.653,0 2.63305,-0.941436 3.07513,-1.633375 h 0.0584 l 0.13313,1.422303 h 2.48089 c -0.0385,-0.903356 -0.0974,-1.999782 -0.0974,-3.268352 v -7.437767 h -2.84458 v 6.591875 c 0,1.210916 -0.82604,1.998683 -1.74864,1.998683 -1.17248,0 -1.63336,-1.017344 -1.63336,-2.631899 v -5.958659 z m -26.429243,1.748619 c 1.403132,0 1.84579,1.36446 1.826571,2.479267 h -3.844726 c 0.07688,-1.057153 0.653466,-2.479267 2.018155,-2.479267 z m -34.693453,0.288991 c 0.94183,0 1.883397,0.768129 1.883397,2.32503 v 1.961327 c 0,1.691468 -1.07664,2.30555 -1.922363,2.30555 -1.345467,0 -2.152915,-1.28808 -2.152915,-3.229392 0,-1.864461 0.731091,-3.362515 2.191881,-3.362515 z M 16.258983,94.016421 V 95.554 c 0,1.364679 -1.114871,1.844414 -1.787604,1.844414 -0.711176,0 -1.344352,-0.442566 -1.344352,-1.461262 0,-1.556901 1.594276,-1.920731 3.131956,-1.920731 z M 3.8042153,109.79311 v 15.45358 h 2.8445776 v -3.55571 l 0.7501106,-1.018 2.4987455,4.57371 h 3.381996 l -3.9210335,-6.30448 3.4988945,-4.40164 H 9.5518212 l -2.1334346,3.34464 c -0.2498745,0.40364 -0.4804923,0.84599 -0.7111416,1.32651 H 6.648809 v -9.41861 z m 86.8781357,0.30847 c -0.884166,0 -1.518084,0.63394 -1.518084,1.5181 0,0.86497 0.614698,1.51807 1.518084,1.51807 0.884162,0 1.537566,-0.59545 1.537566,-1.51807 0,-0.88416 -0.614962,-1.5181 -1.537566,-1.5181 z m -71.981447,4.20844 c -3.133018,0 -4.901701,2.65276 -4.901701,5.72811 0,3.32522 1.883076,5.40179 5.189081,5.40179 1.326246,0 2.575767,-0.2309 3.45993,-0.61537 l -0.402659,-1.96133 c -0.730395,0.24978 -1.556873,0.44326 -2.614024,0.44326 -1.537677,0 -2.845627,-0.73121 -2.92251,-2.55722 h 6.400299 c 0.05765,-0.30759 0.07791,-0.71041 0.07791,-1.13328 0,-3.45975 -1.691518,-5.30596 -4.286346,-5.30596 z m 10.590854,0 c -3.133016,0 -4.901698,2.65276 -4.901698,5.72811 0,3.32522 1.883073,5.40179 5.189078,5.40179 1.326245,0 2.575763,-0.2309 3.459929,-0.61537 l -0.402656,-1.96133 c -0.730395,0.24978 -1.55687,0.44326 -2.614024,0.44326 -1.537677,0 -2.845627,-0.73121 -2.922513,-2.55722 h 6.4003 c 0.05765,-0.30759 0.07794,-0.71041 0.07794,-1.13328 0,-3.45975 -1.691521,-5.30596 -4.286351,-5.30596 z m 12.013143,0 c -1.383908,0 -2.480592,0.59624 -3.172546,1.69182 h -0.03735 l -0.134761,-1.46127 h -2.479263 c 0.03845,0.98027 0.07631,2.11497 0.07631,3.49888 v 11.4936 h 2.844578 v -5.32384 h 0.03896 c 0.461304,0.71117 1.363611,1.25019 2.53609,1.25019 2.171968,0 4.401627,-1.731 4.401627,-5.6713 0,-3.2868 -1.7287,-5.47808 -4.073657,-5.47808 z m 23.698317,0 c -2.902366,0 -5.073802,2.03799 -5.073802,5.63231 0,3.47899 2.075383,5.51707 4.958526,5.51707 2.383398,0 4.997496,-1.57698 4.997496,-5.65182 0,-3.24834 -1.883752,-5.49756 -4.88222,-5.49756 z m -8.437938,0.0195 c -3.536656,0 -5.611219,2.46142 -5.611219,5.6713 0,3.40214 2.03658,5.43912 5.169595,5.43912 1.134038,0 2.114018,-0.23043 2.594543,-0.46114 l -0.306869,-2.1334 c -0.461301,0.21145 -1.0196,0.34582 -1.730777,0.34582 -1.63378,0 -2.844576,-1.2106 -2.844576,-3.30567 0,-1.88366 1.037543,-3.32519 2.825093,-3.32519 0.788059,0 1.30713,0.17268 1.672328,0.34582 l 0.462729,-2.17239 c -0.461306,-0.19229 -1.308245,-0.40427 -2.230847,-0.40427 z m 20.951158,0 c -1.595339,0 -2.536418,0.88397 -3.036164,1.65282 h -0.05844 l -0.13476,-1.42227 h -2.420815 c 0.03846,0.94185 0.07631,1.96051 0.07631,3.20988 v 7.47676 h 2.787751 v -6.43764 c 0,-1.44156 0.921606,-2.1724 1.709668,-2.1724 1.114815,0 1.518083,1.01908 1.518083,2.28768 v 6.32236 h 2.78775 v -6.49608 c 0,-1.49925 0.884263,-2.11396 1.672325,-2.11396 1.134035,0 1.557049,1.01791 1.557049,2.55559 v 6.05445 h 2.786129 v -6.49608 c 0,-3.09457 -1.441252,-4.42111 -3.305684,-4.42111 -1.1917,0 -2.286763,0.48058 -3.170926,1.78761 h -0.03896 c -0.422862,-1.09561 -1.422275,-1.78761 -2.729302,-1.78761 z m 22.834552,0 c -1.556898,0 -2.614091,0.88429 -3.094616,1.67234 h -0.05683 l -0.134761,-1.44179 h -2.461401 c 0.03845,0.94185 0.07792,1.96051 0.07792,3.20988 v 7.47676 h 2.844576 v -6.36132 c 0,-1.63379 1.056109,-2.22924 1.824946,-2.22924 1.210926,0 1.634986,1.03749 1.634986,2.34451 v 6.24605 h 2.84458 v -6.55291 c 0,-2.99847 -1.51888,-4.36428 -3.47941,-4.36428 z m 9.86023,0 c -2.36418,0 -4.42111,2.09564 -4.42111,5.63231 0,2.92158 1.59656,5.20857 4.13373,5.20857 1.17248,0 2.13266,-0.51977 2.67085,-1.36547 h 0.039 v 0.78909 c 0,2.05665 -1.05766,2.95985 -2.653,2.95985 -1.13403,0 -2.13397,-0.34568 -2.76826,-0.69166 l -0.5569,2.17079 c 0.84572,0.48053 2.13425,0.73062 3.38362,0.73062 5.20888,0 5.40015,-3.88146 5.40015,-5.97654 v -6.03661 c 0,-1.48002 0.0381,-2.42155 0.0957,-3.1904 h -2.47927 l -0.11528,1.26967 h -0.0374 c -0.48053,-0.84573 -1.34649,-1.50022 -2.69196,-1.50022 z m -20.931677,0.21107 v 10.70612 h 2.844578 v -10.70612 z m -70.752365,1.75026 c 1.403131,0 1.845788,1.36446 1.826569,2.47926 h -3.844726 c 0.07688,-1.05715 0.653466,-2.47926 2.018157,-2.47926 z m 10.590853,0 c 1.40313,0 1.845791,1.36446 1.826569,2.47926 h -3.844726 c 0.07688,-1.05715 0.653471,-2.47926 2.018157,-2.47926 z m 35.828364,0.11528 c 1.46079,0 2.057122,1.78767 2.057122,3.45991 0,1.90289 -0.731141,3.49727 -2.076608,3.49727 -1.383909,0 -2.113949,-1.5749 -2.113949,-3.47776 0,-1.63378 0.557314,-3.47942 2.133435,-3.47942 z m 45.860685,0.15263 c 0.96105,0 1.78761,0.78821 1.78761,2.15289 v 2.07663 c 0,1.80674 -1.15358,2.2292 -1.80709,2.2292 -1.34547,0 -2.13343,-1.26913 -2.13343,-3.13356 0,-2.0182 0.86511,-3.32516 2.15291,-3.32516 z m -70.443875,0.039 c 1.40313,0 2.133432,1.38494 2.133432,3.28783 0,1.92208 -0.750308,3.343 -2.191881,3.343 -0.961048,0 -1.90288,-0.74861 -1.90288,-2.30552 v -1.99868 c 0,-1.28783 0.865735,-2.32663 1.961329,-2.32663 z m 79.170825,5.20856 c -0.98026,0 -1.7113,0.76942 -1.7113,1.82657 0,1.03793 0.67337,1.82657 1.7113,1.82657 1.03793,0 1.70967,-0.75022 1.70967,-1.82657 0,-1.09561 -0.71018,-1.82657 -1.70967,-1.82657 z m 5.20857,0 c -0.98028,0 -1.7113,0.76942 -1.7113,1.82657 0,1.03793 0.67336,1.82657 1.7113,1.82657 1.03792,0 1.71128,-0.75022 1.71128,-1.82657 0,-1.09561 -0.7118,-1.82657 -1.71128,-1.82657 z m 5.20856,0 c -0.98028,0 -1.70968,0.76942 -1.70968,1.82657 0,1.03793 0.67174,1.82657 1.70968,1.82657 1.03793,0 1.71129,-0.75022 1.71129,-1.82657 0,-1.09561 -0.7118,-1.82657 -1.71129,-1.82657 z" /><path
       id="rect1"
       style="fill:url(#linearGradient2);stroke-width:8.46667;stroke-linecap:round;stroke-linejoin:round;stroke-miterlimit:12;paint-order:markers stroke fill"
       d="m 0,0 h 135.46666 v 132.29166 a 3.1749998,3.1749998 135 0 1 -3.175,3.175 H 3.1749998 A 3.1749998,3.1749998 45 0 1 0,132.29166 Z" /><rect
       style="fill:url(#linearGradient4);stroke-width:6.12626;stroke-linecap:round;stroke-linejoin:round;stroke-miterlimit:12;paint-order:markers stroke fill;opacity:0.4;filter:url(#filter5)"
       id="rect3"
       width="135.46666"
       height="13.20226"
       x="0"
       y="0" /><rect
       style="opacity:0.48;fill:#502d16;stroke-width:8.46667;stroke-linecap:round;stroke-linejoin:round;stroke-miterlimit:12;paint-order:markers stroke fill"
       id="rect42"
       width="135.46666"
       height="14.619342"
       x="0"
       y="117.67231"
       sodipodi:insensitive="true" /><rect
       style="opacity:0.4;fill:url(#linearGradient49);stroke-width:10.0058;stroke-linecap:round;stroke-linejoin:round;stroke-miterlimit:12;paint-order:markers stroke fill"
       id="rect5"
       width="134.40833"
       height="81.509605"
       x="0.52916992"
       y="35.777046" /><path
       id="path53"
       style="font-size:6.11764px;line-height:1.25;font-family:Electrox;-inkscape-font-specification:'Electrox, Normal';text-align:center;text-orientation:upright;text-anchor:middle;fill:#ffcc00;stroke:#ffffff;stroke-width:1.12104;stroke-dasharray:none;stroke-opacity:1;paint-order:markers stroke fill"
       d="m 84.324568,64.585361 -0.297657,0.07958 -0.238228,0.170532 -0.132292,0.03514 -0.978751,0.58136 -0.132292,0.03566 -0.451652,0.298173 c -0.0441,0.01182 -0.08532,0.03486 -0.123507,0.06873 -0.0441,0.01182 -0.118377,0.04349 -0.222725,0.09508 l -0.418579,0.289388 -0.355017,0.130225 -0.271301,0.179317 -1.298629,0.312642 -0.162781,0.185519 -0.630452,0.558622 c -0.08071,0.139795 -0.184181,0.238605 -0.310576,0.296106 L 77.15653,69.05847 c -0.108669,0.123652 -0.234185,0.228216 -0.376721,0.313676 l -0.277503,0.286804 c 0.02089,0.254373 0.07849,0.380888 0.172599,0.379305 l -0.103352,0.275952 -0.531234,1.985926 c -0.01456,0.12207 -0.03325,0.185811 -0.05529,0.191719 l -0.188619,0.61805 0.01085,0.17415 -0.212907,0.659908 0.01137,0.174149 -0.283704,0.926559 -0.255798,0.104386 0.150895,0.56224 0.128158,0.213423 0.136942,0.247014 0.139527,0.38809 0.163814,0.346232 c 0.06932,0.170496 0.138417,0.341102 0.207739,0.511597 0.06341,0.148445 0.132028,0.271567 0.205673,0.370003 l 0.14366,0.139009 0.207223,-0.02015 0.158646,0.06356 c 0.194129,0.01888 0.402162,0.04611 0.624251,0.08113 0.21618,0.01297 0.452528,0.05597 0.708484,0.129191 l 0.531234,-5.17e-4 0.117306,0.03927 c 0.205946,0.06298 0.394811,0.106983 0.56689,0.131775 0.19413,0.01888 0.363343,0.03269 0.507463,0.04134 0.528054,0.118479 1.004501,0.132584 1.42937,0.04237 l 0.153995,-0.218592 0.178284,-0.260449 0.432015,-0.505395 0.464571,-0.514698 0.12144,-0.209806 0.660425,-0.708484 0.03979,-0.117305 0.205156,-0.161231 0.691431,-0.858862 0.07131,-1.189075 c 0.0087,-0.144121 0.02007,-0.276873 0.03462,-0.398942 0.01456,-0.12207 0.03224,-0.233295 0.05271,-0.333313 l 0.05426,-0.72347 -0.02894,-0.240295 0.176216,-1.855701 c -0.01066,-0.304382 0.01269,-0.570404 0.06976,-0.798401 l 0.07958,-1.687235 C 84.526476,67.544721 84.421913,67.41869 84.336453,67.276153 84.184842,67.151341 84.083155,67.036849 84.031562,66.932505 L 83.7029,66.630714 83.852245,66.12997 Z m -11.113534,2.978113 -0.297656,0.07958 -0.238228,0.170015 -0.132292,0.03566 -0.978752,0.58136 -0.132291,0.03514 -0.451652,0.298173 c -0.0441,0.01182 -0.08531,0.03486 -0.123507,0.06873 -0.0441,0.01182 -0.118384,0.04349 -0.222725,0.09508 l -0.418579,0.289388 -0.355018,0.130741 -0.270784,0.178801 -1.299146,0.312642 -0.16278,0.185519 -0.630453,0.558622 c -0.08071,0.139795 -0.184181,0.238605 -0.310575,0.296106 l -1.1436,1.157035 c -0.108669,0.123653 -0.234184,0.228216 -0.376721,0.313676 l -0.277502,0.287321 c 0.02089,0.254371 0.07849,0.380888 0.172599,0.379305 l -0.103353,0.275435 -0.531234,1.985926 c -0.01456,0.122068 -0.03324,0.186327 -0.05529,0.192236 l -0.188619,0.617533 0.01085,0.174667 -0.212907,0.659391 0.01137,0.174149 -0.283704,0.927076 -0.255798,0.103869 0.150895,0.56224 0.128157,0.21394 0.136943,0.247014 0.139526,0.38809 0.163815,0.345715 0.207739,0.511597 c 0.06341,0.148445 0.132027,0.272084 0.205672,0.37052 l 0.143661,0.138492 0.207222,-0.02015 0.158647,0.06408 c 0.19413,0.01888 0.402163,0.04559 0.624251,0.08062 0.21618,0.01298 0.452528,0.05597 0.708484,0.129191 l 0.53175,-5.17e-4 0.116789,0.03979 c 0.205947,0.06299 0.394812,0.106983 0.566891,0.131775 0.194129,0.01888 0.363342,0.03269 0.507462,0.04134 0.528054,0.118479 1.004501,0.132584 1.42937,0.04237 l 0.153996,-0.218592 0.178284,-0.260449 0.432015,-0.505912 0.464571,-0.514698 0.121439,-0.209289 0.660425,-0.709001 0.03979,-0.116788 0.205156,-0.161231 0.69143,-0.858862 0.07131,-1.189075 c 0.0087,-0.144121 0.02007,-0.27739 0.03462,-0.399459 0.01456,-0.12207 0.03225,-0.233295 0.05271,-0.333313 l 0.05426,-0.72347 -0.02894,-0.240295 0.176734,-1.855184 c -0.01066,-0.304383 0.01217,-0.570404 0.06925,-0.798401 l 0.07958,-1.687752 C 73.412943,70.522317 73.30838,70.396802 73.22292,70.254266 73.071308,70.129454 72.969622,70.014962 72.918029,69.910617 l -0.328662,-0.30179 0.149345,-0.501261 z m 6.928259,1.909961 c 0.05405,0.0032 0.103298,0.01051 0.147795,0.02222 l -0.03049,0.150378 c 0.100443,0.374859 0.148501,0.598184 0.144177,0.670243 0.04136,0.154354 0.06876,0.300522 0.08217,0.438733 0.02954,0.110253 0.0478,0.223354 0.05529,0.339514 l 0.133325,0.496094 0.175183,1.052132 0.315743,-0.01344 -0.08837,0.200505 -0.03927,0.117305 -0.145211,0.251665 -0.176216,0.401526 -0.04858,0.08371 -0.120923,0.209807 c 0.01182,0.0441 -0.0063,0.107845 -0.05478,0.191719 -0.03229,0.05592 -0.06962,0.13695 -0.112138,0.24288 l -0.400492,0.887284 -0.192237,-0.05478 -0.937927,-0.457853 -0.401526,-0.1757 -0.359668,-0.151929 0.149345,-0.500745 0.06356,-0.159163 0.353984,-1.193726 c 0.02479,-0.172079 0.05825,-0.3111 0.100769,-0.417028 0.03661,-0.127978 0.07346,-0.255978 0.110071,-0.383956 l 0.03049,-0.149862 c 0.02047,-0.100019 0.04391,-0.189199 0.07028,-0.267167 0.04252,-0.105928 0.07698,-0.197984 0.103352,-0.275952 l 0.246497,-0.668176 c -0.0047,-0.282332 0.06556,-0.549355 0.21084,-0.800985 0.248068,-0.06647 0.452814,-0.095 0.614949,-0.08527 z m -20.802864,1.346688 -9.889835,2.649967 0.167948,0.09664 0.516248,0.07441 0.516247,0.07441 1.056266,0.10697 -0.127124,0.31781 -1.093473,2.668054 -0.136426,0.284738 -1.028877,2.50889 0.101285,0.114722 c 0.355551,-0.260707 0.673716,-0.440644 0.954464,-0.539502 l -0.296623,4.582149 c 0.0134,0.138212 -0.01551,0.736389 -0.0863,1.79524 -0.09875,1.042707 -0.228241,2.54306 -0.389124,4.5005 -0.0098,0.404399 0.01054,0.788794 0.06098,1.153418 l 7.456909,-4.054533 -2.087727,-1.177189 0.0067,-3.54707 c 0.461478,-0.218188 0.921933,-0.483519 1.381827,-0.795817 l 0.247014,-0.136943 0.313159,-0.155029 0.68988,-0.468189 0.246497,-0.136942 0.436666,-0.223242 c 0.230738,-0.109097 0.428657,-0.209392 0.593245,-0.300757 0.180729,-0.119328 0.339312,-0.233037 0.47594,-0.340548 l 0.307992,-0.437183 0.275435,-0.42788 0.854728,-1.044381 c 0.02638,-0.07797 0.117823,-0.220867 0.274919,-0.428398 l 0.854728,-1.04438 0.178284,-0.26045 0.616499,-0.874365 c 0.168913,-0.163428 0.30209,-0.328856 0.398942,-0.49661 l 0.307992,-0.437183 0.326078,-0.371037 -0.02222,-0.348299 -0.437182,-0.308508 -0.326595,-0.160197 c -0.359125,-0.281904 -0.6617,-0.484483 -0.907422,-0.607712 -0.219347,-0.201197 -0.473954,-0.35781 -0.763778,-0.469222 l -0.269234,-0.211357 -0.335897,-0.193786 -0.151929,-0.171566 z m 9.689331,1.630908 c 0.05404,0.0032 0.103298,0.01103 0.147795,0.02274 l -0.03049,0.149862 c 0.100443,0.374859 0.1485,0.598184 0.144177,0.670243 0.04136,0.154354 0.06876,0.301039 0.08217,0.43925 0.02954,0.110253 0.0478,0.223353 0.05529,0.339514 l 0.133325,0.496094 0.175183,1.052132 0.315743,-0.01395 -0.08837,0.201022 -0.03927,0.116788 -0.145211,0.251665 -0.176217,0.401526 -0.04858,0.08423 -0.120922,0.20929 c 0.01182,0.0441 -0.0064,0.108362 -0.05478,0.192236 -0.03229,0.05591 -0.06962,0.13695 -0.112137,0.242879 l -0.400493,0.887285 -0.192236,-0.05529 -0.937927,-0.457337 -0.401526,-0.176216 -0.359668,-0.151929 0.149345,-0.500745 0.06356,-0.158646 0.353983,-1.193726 c 0.02479,-0.172079 0.05825,-0.311101 0.100769,-0.417029 l 0.110071,-0.383955 0.03049,-0.150379 c 0.02047,-0.100019 0.04391,-0.188683 0.07028,-0.26665 0.04252,-0.105928 0.07698,-0.197985 0.103353,-0.275952 l 0.246497,-0.668693 c -0.0048,-0.282332 0.06556,-0.549355 0.21084,-0.800985 0.248068,-0.06647 0.452814,-0.095 0.614949,-0.08527 z m -14.15004,1.832963 c 0.305965,0.08345 0.617077,0.14174 0.933276,0.175183 l 0.450102,0.0925 0.798917,0.06925 0.417029,0.101286 1.590601,0.247013 c -0.06889,0.183896 -0.129667,0.35411 -0.182418,0.510047 -0.05866,0.133886 -0.120433,0.256616 -0.185002,0.368453 l -0.360701,0.770495 -0.09715,0.167432 -0.224276,0.485758 c -0.06298,0.205947 -0.131903,0.389543 -0.206705,0.551388 l -0.218075,0.377755 -0.246497,0.136942 c -0.230738,0.109097 -0.439679,0.212268 -0.626318,0.309542 -0.164588,0.09137 -0.295856,0.173884 -0.394291,0.24753 l -1.351339,0.645955 -0.05013,-0.979785 0.0041,-0.24908 0.0083,-0.498678 -0.03772,-0.273368 0.0124,-0.747758 -0.0047,-0.282153 c -0.0075,-0.116163 -0.01524,-0.232139 -0.02274,-0.348299 l -0.02222,-0.348816 0.04754,-0.615467 c -0.06658,-0.336666 -0.0773,-0.641024 -0.03204,-0.913122 z m 54.56514,3.211173 c -0.0989,0.09805 -0.14156,0.172154 -0.12815,0.222209 h 0.001 l -1.22938,0.91984 c -0.0745,0.05574 -0.11797,0.09408 -0.13023,0.115239 l -0.3421,0.225826 -0.1049,0.10852 -0.75757,0.578776 -0.62581,0.167432 0.16123,0.600997 2.40347,-0.643888 0.0646,0.14366 0.50953,1.500167 0.14004,-0.279053 0.0295,-0.08837 0.21136,-0.51263 0.0853,-0.183968 0.47077,-1.145666 0.12144,-0.24753 c 0.081,-0.164806 0.14784,-0.316565 0.19999,-0.455787 0.0521,-0.139186 0.0878,-0.273875 0.10645,-0.404109 -0.35778,-0.333458 -0.75351,-0.540907 -1.18649,-0.621668 z m -15.323092,1.986442 c -0.05308,0.0027 -0.153845,0.02965 -0.302307,0.08062 l -0.286804,0.130741 -0.294039,0.10542 -0.262,0.124023 -0.286804,0.130742 -0.387573,0.157096 -0.311609,0.137459 -2.819983,1.292428 -0.649572,0.28112 -0.136426,0.09043 -0.300757,0.08062 c -0.132443,0.107031 -0.31527,0.191668 -0.548804,0.254248 l -0.05323,0.202054 0.09095,2.041736 0.558622,-0.418062 0.273885,-0.180868 0.12299,-0.140043 0.248564,-0.174149 c 0.165801,-0.115976 0.306667,-0.225117 0.422196,-0.327629 0.13242,-0.107044 0.247858,-0.209431 0.346749,-0.307475 l 0.568441,-0.435632 -0.261483,-0.02274 0.518315,-0.174149 1.490348,-1.142049 c 0.162545,-0.06146 0.278801,-0.128084 0.348816,-0.200505 0.08686,-0.07695 0.142508,-0.13648 0.166915,-0.1788 l 0.136942,-0.09043 0.310059,-0.24443 0.955497,-0.738973 c 0.344895,-0.227711 0.458867,-0.33872 0.342098,-0.332796 z m -3.750675,2.927987 -0.256832,0.196887 0.343131,0.02997 0.284221,0.0584 0.474389,0.167948 0.202055,0.05323 0.378789,0.113171 0.253731,0.146761 0.10697,-0.0021 0.380855,0.220142 c 0.122532,0.05662 0.234577,0.107009 0.335897,0.151412 0.101298,0.04441 0.191996,0.08258 0.272335,0.114722 l -0.173116,0.153995 -0.07338,0.126608 -0.205672,1.2361 c -0.07311,0.395238 -0.110706,0.655599 -0.112654,0.781347 -0.23405,-0.205603 -0.449874,-0.344371 -0.648023,-0.416512 l -0.02945,0.892969 -0.01034,0.163814 -0.09198,1.258838 0.0155,0.157097 -0.01034,0.163297 c -0.02659,0.168131 -0.03858,0.323675 -0.03617,0.466122 l 0.0052,0.320393 -0.03307,0.277503 c 0.02681,0.100163 0.01585,0.192322 -0.03307,0.276986 l -0.03927,0.654223 -0.253731,0.255799 -0.104903,0.109037 -0.15503,0.121956 -0.104903,0.108521 -0.241846,0.198954 -0.104903,0.10852 c -0.208613,0.144152 -0.350263,0.279156 -0.424263,0.404627 0.0017,9.67e-4 0.004,0.0021 0.0057,0.0031 l 0.19172,-0.05168 c 0.100151,-0.02684 0.206051,-0.06423 0.318327,-0.112138 0.107829,-0.06469 0.232756,-0.134092 0.374137,-0.207739 l 0.199988,-0.05323 c 0.04102,-0.04674 0.089,-0.06888 0.14366,-0.06563 0.06681,-0.01791 0.112535,-0.04762 0.136943,-0.08992 l 0.250114,-0.06718 0.111621,-0.08372 1.972489,-0.850594 -0.06046,-0.225309 0.05839,-0.283704 0.0279,-0.195337 0.04134,-0.145211 0.39119,-2.546614 0.04858,-0.120406 0.06408,-0.661459 c 0.03552,-0.134738 0.05876,-0.248164 0.06976,-0.340547 l 0.100769,-0.724504 0.0956,0.05478 0.376205,0.301791 c 0.211693,0.122174 0.332723,0.206058 0.362768,0.251664 l 0.196888,0.134875 c 0.105766,0.0611 0.207698,0.140881 0.305924,0.239779 0.110236,0.07779 0.223088,0.163939 0.337964,0.258382 l 0.165364,0.116789 0.548287,0.443384 c 0.262858,0.180016 0.473192,0.365393 0.631486,0.555521 l 1.327051,1.1467 c 0.08159,0.10336 0.158745,0.190369 0.230994,0.260449 0.06784,0.05339 0.137742,0.115013 0.210323,0.185002 l 0.125057,-0.03359 c 0.09236,0.011 0.182756,0.01349 0.270784,0.0078 0.100147,-0.02684 0.210567,-0.04738 0.331767,-0.06201 l 0.30747,-0.05581 0.0631,0.03721 c 0.49416,-0.02507 0.89985,-0.08039 1.21698,-0.165365 l -0.003,-0.213424 -0.0424,-0.257348 -0.0708,-0.464055 -0.13229,-0.795817 -0.0176,-0.264066 -0.0289,-0.206706 -0.0708,-0.464054 -0.0977,-0.564307 0.005,-0.08165 -0.0641,-0.438733 -0.0269,-0.100252 -0.0289,-0.207222 c -0.0581,-0.216978 -0.0856,-0.352242 -0.0827,-0.406694 -0.0268,-0.100163 -0.0459,-0.238123 -0.0574,-0.413928 l -0.0357,-0.232027 -0.0739,-0.275436 -0.003,-0.21394 c -0.0306,-0.313801 -0.0747,-0.578841 -0.13281,-0.795817 l 0.15968,-0.204122 0.1664,-0.1788 c 0.12672,-0.194956 0.27947,-0.361053 0.45733,-0.498161 0.0823,-0.0936 0.13701,-0.188872 0.16485,-0.285771 l -3.204452,0.858862 0.03566,0.232028 0.0036,0.213423 0.04031,0.150379 0.04909,0.684712 0.04651,0.175183 0.04961,0.281637 c 0.0023,0.142447 0.01715,0.299416 0.04547,0.470772 0.02383,0.154606 0.05416,0.334168 0.09095,0.538985 -0.0092,0.163593 0.004,0.312449 0.03927,0.445968 l -0.489376,-0.325045 c -0.101297,-0.04441 -0.184115,-0.08477 -0.24753,-0.121439 -0.04675,-0.04114 -0.09358,-0.08241 -0.14056,-0.123507 l -0.553971,-0.361735 c -0.02533,-0.029 -0.08046,-0.06799 -0.165365,-0.116789 -0.06818,-0.05329 -0.131338,-0.08954 -0.190169,-0.109554 l -0.108521,-0.10542 -0.736905,-0.446484 -0.172083,-0.141593 -0.190686,-0.110071 -0.07028,-0.06149 -0.806669,-0.508496 c -0.05569,-0.07453 -0.191613,-0.181024 -0.407727,-0.319877 -0.232801,-0.134384 -0.423411,-0.244669 -0.571541,-0.330213 -0.13595,-0.106683 -0.235633,-0.178354 -0.299207,-0.214974 l -2.92902,0.784965 -0.291455,0.10542 z m -0.08423,9.073865 -0.0083,0.0021 c 9.79e-4,-0.0017 0.0016,-0.0035 0.0026,-0.0052 -0.0435,-0.0243 -0.08661,-0.04725 -0.129191,-0.06821 -0.148073,-0.08554 -0.29133,-0.154029 -0.430465,-0.206189 l -0.608748,-6.277136 -1.141016,0.547253 -0.877982,0.530717 c -0.05929,0.713563 -0.122562,1.177807 -0.19017,1.39268 l -0.447518,2.937289 c -0.117341,0.496538 -0.166934,0.911923 -0.148828,1.246952 -0.192205,1.017559 -0.285303,1.704685 -0.279569,2.060856 l 4.638993,-1.914095 c -0.13023,-0.0957 -0.256883,-0.17797 -0.379822,-0.247013 z M 105.59562,80.055734 c -0.0912,0.06024 -0.18272,0.120169 -0.27388,0.180351 -0.0912,0.06024 -0.18447,0.112071 -0.28009,0.155546 l -0.002,5.17e-4 -0.3421,0.225826 -0.44235,0.252698 c -0.10015,0.02684 -0.19932,0.08903 -0.29817,0.187068 l -0.44235,0.252698 c -0.29924,0.151739 -0.51966,0.264318 -0.66094,0.337964 -0.0115,0.09238 -0.0181,0.166146 -0.0207,0.220658 0.009,0.03336 0.0122,0.112962 0.01,0.238746 l 0.0527,0.495577 -0.0103,0.163814 0.03,1.011308 -0.0217,0.220658 0.0403,0.150378 -0.0181,0.434082 c 0.0373,0.20467 0.0406,0.382317 0.009,0.533818 l 0.12764,0.47594 0.16537,0.116789 0.98443,0.970483 0.28732,0.271818 0.12713,0.07338 0.66507,0.680061 5.30769,-1.422135 1.21285,-0.780831 c 0.10782,-0.06469 0.19884,-0.12513 0.27336,-0.180867 0.0745,-0.05576 0.14048,-0.109424 0.19844,-0.160714 0.0848,0.04885 0.1429,0.13174 0.17415,0.248564 l 0.0672,0.25063 0.0837,0.111621 c 0.085,0.317116 0.20696,0.606272 0.36638,0.867648 l 0.0382,-0.358635 0.0465,-0.227376 -0.007,-0.427364 c -0.007,-0.427408 0.0439,-0.771825 0.15244,-1.033529 l 0.82114,-0.542086 0.18655,-0.103869 0.52194,-0.354501 0.12557,-0.03359 0.82062,-0.542086 2.9006,-2.091862 -3.14348,1.486214 -0.94774,0.468705 c -0.0668,0.01791 -0.11254,0.04811 -0.13695,0.09043 l -0.2868,0.130742 -0.26872,0.0987 c -0.23353,0.06258 -0.40237,0.134608 -0.50591,0.216007 l -0.0532,-0.200505 0.0858,-0.881599 -0.0222,-0.181902 0.061,-0.472322 -0.0155,-0.157096 0.0729,-0.529167 c 0.0343,-0.205946 0.0417,-0.377719 0.0227,-0.515731 l -0.29352,0.10542 -0.83147,0.302824 -0.0863,0.077 c -0.11678,0.03129 -0.22317,0.06867 -0.31885,0.112138 -0.10014,0.02684 -0.18973,0.0597 -0.26871,0.0987 l -0.45579,0.202571 -0.22531,0.06046 -0.14366,0.06563 -0.33745,0.14366 c -0.15031,0.04028 -0.23714,0.08172 -0.26148,0.124024 l -0.30076,0.08062 -0.21187,0.110587 c -0.32042,0.139512 -0.58918,0.237967 -0.80615,0.296106 l 0.15864,0.09198 c 0.17269,0.04318 0.31589,0.07599 0.42943,0.09922 0.11356,0.02323 0.21019,0.05102 0.29043,0.0832 l 0.52968,0.07286 0.2837,0.05839 0.76998,0.168982 0.0956,0.05529 0.13074,0.286804 0.12351,0.262 0.15193,0.469222 c -0.15355,0.0948 -0.3029,0.170443 -0.44855,0.227376 -0.15033,0.04028 -0.30102,0.0807 -0.45114,0.120923 -1.82907,0.651104 -3.49561,0.605812 -5.00021,-0.135909 l -0.17983,0.128674 -0.009,-0.534334 0.0351,-0.170532 0.003,-0.591179 0.009,-0.270267 0.007,-0.377238 0.003,-0.188619 0.002,-0.295589 0.0687,-1.145667 0.1235,-0.140043 c -0.10038,-0.241416 -0.2411,-0.400399 -0.42271,-0.476974 z m -21.609013,5.494239 -3.204456,0.858345 0.03566,0.232027 0.0036,0.213941 0.04031,0.149861 0.04909,0.684713 0.04651,0.175183 0.04961,0.282154 c 0.0023,0.142446 0.01697,0.299326 0.04496,0.470772 0.02383,0.154606 0.05416,0.334168 0.09095,0.538985 -0.0092,0.163593 0.004,0.311932 0.03927,0.445451 l -0.489893,-0.324528 c -0.101297,-0.04441 -0.183598,-0.08529 -0.247013,-0.121956 -0.04675,-0.04114 -0.09358,-0.08189 -0.14056,-0.12299 L 79.75172,88.670196 c -0.02533,-0.029 -0.08046,-0.06799 -0.165364,-0.116789 -0.06807,-0.05332 -0.131741,-0.09009 -0.190686,-0.110071 l -0.108521,-0.104903 -0.736906,-0.446484 -0.172082,-0.141594 -0.19017,-0.110071 -0.07028,-0.06201 -0.807185,-0.50798 c -0.05569,-0.07453 -0.191613,-0.18154 -0.407727,-0.320394 -0.23279,-0.134386 -0.422883,-0.244155 -0.571025,-0.329695 -0.135938,-0.106685 -0.236149,-0.178353 -0.299723,-0.214975 l -2.869593,0.768945 0.02326,-0.488342 -0.600997,0.160714 -1.219047,0.460437 -1.765784,0.419612 c -0.235792,0.188393 -0.445028,0.34313 -0.627352,0.463538 -0.18237,0.120422 -0.34033,0.198307 -0.473873,0.234094 -0.08342,0.02235 -0.111564,0.0838 -0.08475,0.183968 l -0.327628,-0.01964 -0.111622,0.0832 -1.349788,0.469222 c -0.05661,0.122522 -0.153405,0.363369 -0.289905,0.72192 -0.119746,0.354081 -0.273484,0.815405 -0.460954,1.384411 l -0.02997,0.08837 c -0.04446,0.101366 -0.08264,0.192195 -0.114722,0.272335 -0.01547,0.07569 -0.02867,0.159738 -0.03979,0.252181 l 0.06873,-0.04496 0.237195,-0.117305 1.446423,-0.709517 c 0.149082,-0.111496 0.288047,-0.193519 0.417029,-0.24598 0.124468,-0.06914 0.234553,-0.125484 0.330213,-0.168982 l -1.487248,7.267773 2.985347,-1.578198 0.05116,-5.916952 -0.01033,-0.641304 c 0.09889,-0.09806 0.42481,-0.283715 0.977718,-0.557072 0.552862,-0.273351 1.358011,-0.640702 2.41484,-1.102775 l 0.01395,-0.295072 0.252181,0.0894 0.202055,0.05323 0.378788,0.113172 0.253731,0.146244 0.106971,-0.0015 0.380855,0.219625 c 0.122531,0.05662 0.234576,0.107526 0.335897,0.151928 0.101297,0.0444 0.191996,0.08259 0.272335,0.114722 l -0.173116,0.153479 -0.07338,0.127124 -0.205672,1.235584 c -0.07299,0.395238 -0.110592,0.656115 -0.112655,0.781864 -0.23405,-0.205603 -0.449885,-0.344884 -0.648022,-0.417029 l -0.02946,0.893486 -0.01033,0.163814 -0.09198,1.258838 0.0155,0.156579 -0.01033,0.163815 c -0.02659,0.16813 -0.03858,0.323157 -0.03617,0.465604 l 0.0052,0.320911 -0.03307,0.276986 c 0.02681,0.100163 0.01585,0.192839 -0.03307,0.277502 l -0.03927,0.654224 -0.253732,0.255798 -0.104903,0.108521 -0.155029,0.121956 -0.104903,0.109037 -0.241846,0.198955 -0.104903,0.10852 c -0.21143,0.146103 -0.353682,0.282358 -0.426847,0.409277 l 0.199987,-0.05323 c 0.100152,-0.02684 0.206041,-0.06422 0.318327,-0.112138 0.107829,-0.06467 0.232756,-0.134079 0.374138,-0.207739 l 0.199987,-0.05374 c 0.04103,-0.04674 0.08901,-0.06837 0.143661,-0.06511 0.06681,-0.01791 0.112018,-0.04813 0.136426,-0.09043 l 0.25063,-0.06718 0.111621,-0.08372 1.97249,-0.850077 -0.06046,-0.22531 0.05839,-0.28422 0.02791,-0.195337 0.04186,-0.145211 0.390674,-2.546614 0.04858,-0.120406 0.06408,-0.660942 c 0.03552,-0.134737 0.05876,-0.248164 0.06976,-0.340548 l 0.101285,-0.72502 0.09508,0.05478 0.376204,0.30179 c 0.211694,0.122175 0.332712,0.206063 0.362769,0.251665 l 0.197404,0.135392 c 0.105767,0.0611 0.207709,0.140878 0.305924,0.239779 0.110236,0.07779 0.222572,0.163939 0.337448,0.258382 l 0.165364,0.116788 0.548287,0.443384 c 0.262869,0.180014 0.47372,0.364873 0.632003,0.555005 l 1.327051,1.147217 c 0.08159,0.10336 0.158227,0.189854 0.230476,0.259932 0.06784,0.05339 0.138259,0.115013 0.21084,0.185002 l 0.125057,-0.03307 c 0.09236,0.011 0.18224,0.01349 0.270268,0.0078 0.100152,-0.02684 0.211067,-0.04789 0.332279,-0.06253 l 0.306959,-0.05529 0.06356,0.03669 c 0.494146,-0.02507 0.899841,-0.07988 1.216979,-0.164847 l -0.0036,-0.213941 -0.04237,-0.256832 -0.0708,-0.464054 -0.132292,-0.796334 -0.01757,-0.26355 -0.02894,-0.207222 -0.0708,-0.464054 -0.09767,-0.56379 0.0052,-0.08165 -0.06408,-0.43925 -0.02687,-0.100252 -0.02894,-0.206706 c -0.0581,-0.216977 -0.08566,-0.352758 -0.08268,-0.40721 -0.02681,-0.100163 -0.0459,-0.238124 -0.05736,-0.413928 l -0.03566,-0.232027 -0.0739,-0.275436 -0.0031,-0.213423 c -0.03037,-0.313861 -0.07471,-0.579358 -0.132809,-0.796334 l 0.15968,-0.203605 0.166399,-0.178801 c 0.126725,-0.194957 0.279469,-0.361053 0.457336,-0.498161 0.08228,-0.0936 0.137002,-0.188872 0.164848,-0.28577 z m -17.633032,2.009179 c -0.100319,0.0024 -0.222644,0.03674 -0.366903,0.103353 l -0.111621,0.08423 -0.59893,0.267684 -0.219108,0.08527 -0.211873,0.110587 -0.387057,0.157613 c -0.124467,0.06914 -0.234794,0.125416 -0.330729,0.168982 -0.100151,0.02684 -0.191979,0.05154 -0.275435,0.0739 l -0.186552,0.103353 -0.59893,0.2682 -0.161747,0.09664 -0.175183,0.04703 -0.617534,0.299723 -0.605648,0.242879 c -0.0432,0.17258 -0.0635,0.329879 -0.06098,0.472323 0.0023,0.142449 0.0085,0.266347 0.0186,0.371037 l -0.04134,0.14521 -0.0646,0.660942 -0.06666,0.151929 -0.07803,0.611332 -0.08578,0.479557 -0.02687,0.30179 -0.208772,1.02216 c -0.08342,0.02237 -0.14826,0.04854 -0.193787,0.07855 -0.04996,0.01337 -0.09967,0.02684 -0.149862,0.04031 l -1.127063,0.30179 c -0.22808,0.150564 -0.453382,0.211205 -0.675927,0.181385 l 0.14211,-1.272274 0.05994,-0.17725 c -0.0149,-0.121212 -0.002,-0.241025 0.03824,-0.359151 l 0.03772,-0.359152 c 0.0069,-0.306098 0.0319,-0.580943 0.07441,-0.824755 0.03759,-0.260514 0.09851,-0.500458 0.182935,-0.719853 l -0.182418,-0.380339 c -0.133406,0.03574 -0.237057,0.08119 -0.311609,0.136943 -0.07895,0.03899 -0.20614,0.1003 -0.380855,0.182934 l -0.804086,0.403077 -0.293522,0.10542 c -0.206961,0.162794 -0.385794,0.264157 -0.535884,0.304374 -0.0275,0.09683 -0.05115,0.175039 -0.07131,0.234094 -0.01994,0.05899 -0.03153,0.115484 -0.03462,0.170015 l -0.08268,0.692981 -0.07648,0.315743 -0.04496,0.33383 -0.10387,0.913639 -0.07235,0.529167 -0.05013,0.415995 -0.03772,0.358635 c -0.08102,0.164809 -0.110192,0.28913 -0.08785,0.372587 l -0.335896,2.284615 -1.207679,0.571024 -0.947745,0.468709 c -0.06681,0.01793 -0.112535,0.0481 -0.136943,0.09043 l -0.286804,0.130227 -0.268717,0.0987 c -0.233534,0.0626 -0.402357,0.13462 -0.505913,0.216 l -0.05374,-0.19998 0.08578,-0.8816 -0.02222,-0.181901 0.06098,-0.472323 -0.0155,-0.157096 0.07286,-0.529167 c 0.03426,-0.205944 0.04176,-0.378235 0.02274,-0.516247 l -0.293522,0.10542 -0.830957,0.30334 -0.08682,0.077 c -0.116767,0.03129 -0.223172,0.06866 -0.318844,0.112138 -0.100151,0.02684 -0.189719,0.0597 -0.268717,0.0987 l -0.455786,0.202572 -0.22531,0.06046 -0.14366,0.06511 -0.336414,0.144178 c -0.15033,0.04028 -0.23766,0.08171 -0.261999,0.124023 l -0.300757,0.0801 -0.211873,0.110588 c -0.320394,0.139505 -0.589177,0.238483 -0.806153,0.296623 l 0.158647,0.09147 c 0.172687,0.04318 0.315885,0.0765 0.429431,0.09974 0.113559,0.02323 0.210174,0.05101 0.290422,0.0832 l 0.529683,0.07286 0.283704,0.05788 0.769979,0.1695 0.09508,0.05477 0.130742,0.287327 0.123506,0.262 0.151929,0.468699 c -0.153551,0.0948 -0.302861,0.17097 -0.448551,0.22789 -0.15033,0.0403 -0.301046,0.0807 -0.451136,0.12093 -1.829073,0.6511 -3.495588,0.60581 -5.000211,-0.13591 l -0.179834,0.12867 -0.0088,-0.53433 0.03462,-0.170529 0.0031,-0.591177 0.0088,-0.27027 0.0067,-0.377239 0.0036,-0.188619 0.001,-0.295589 0.06873,-1.14515 0.123507,-0.14056 c -0.100381,-0.241415 -0.241605,-0.400397 -0.42323,-0.476973 -0.09121,0.06024 -0.182224,0.120685 -0.273369,0.180867 -0.09121,0.06024 -0.184977,0.112071 -0.280603,0.155546 v -5.16e-4 l -0.342098,0.225826 -0.44235,0.252697 c -0.100151,0.02684 -0.199833,0.08954 -0.29869,0.187586 l -0.441754,0.25216 c -0.299217,0.151722 -0.519664,0.264834 -0.660942,0.33848 -0.01146,0.09238 -0.01833,0.165569 -0.02119,0.220142 0.0092,0.03337 0.01263,0.112968 0.01034,0.238745 l 0.05219,0.495576 -0.01034,0.16382 0.02946,1.011817 -0.02119,0.22014 0.04031,0.15038 -0.01757,0.43408 c 0.03724,0.20467 0.03977,0.38284 0.0083,0.53434 l 0.127641,0.47542 0.165365,0.11679 0.984436,0.97048 0.287321,0.27182 0.127124,0.0734 0.665592,0.68058 5.30717,-1.42214 1.212846,-0.78134 c 0.107829,-0.0647 0.199344,-0.1246 0.273885,-0.18036 0.07448,-0.0557 0.140478,-0.10941 0.198437,-0.16071 0.08468,0.0489 0.142786,0.13176 0.17415,0.24856 l 0.06718,0.25012 0.0832,0.11214 c 0.08502,0.31711 0.207473,0.60627 0.366903,0.86764 l 0.03772,-0.35915 0.04702,-0.22686 -0.0072,-0.42788 c -0.0069,-0.42741 0.04393,-0.77183 0.152446,-1.03353 l 0.820622,-0.54157 0.187068,-0.10386 0.521932,-0.354513 0.125057,-0.0336 0.821139,-0.542084 0.882116,-0.636138 -0.03359,0.193788 -0.04496,0.33435 -0.09405,0.749294 c -0.05787,0.0513 -0.113227,0.110933 -0.166398,0.178803 -0.05787,0.0513 -0.0991,0.0982 -0.123507,0.14056 -0.16572,0.11597 -0.279425,0.22698 -0.340547,0.3328 -0.561491,0.50822 -0.930189,0.86652 -1.10691,1.07487 l 0.512114,-0.1912 0.36897,-0.12558 0.305407,-0.16226 c 0.09121,-0.0603 0.192639,-0.11434 0.304891,-0.16226 0.112298,-0.0479 0.241724,-0.10007 0.387574,-0.1571 0.124468,-0.0691 0.251127,-0.12993 0.380338,-0.18242 0.128959,-0.0524 0.282757,-0.11179 0.461987,-0.17777 l 0.237195,-0.1173 0.237195,-0.11731 0.304891,-0.16226 0.936377,-0.41186 c 0.03209,-0.0802 0.01185,-0.15524 -0.06046,-0.22531 l 0.02791,-0.195337 0.166915,-1.278989 0.06305,-0.36587 0.0894,-1.070218 0.04806,-0.11989 0.291972,-0.21239 1.471228,-1.118795 c 0.08675,-0.0769 0.167339,-0.143199 0.241846,-0.198954 0.07001,-0.07242 0.144175,-0.128345 0.223242,-0.167432 l -0.0894,0.668177 c -0.0069,0.03778 -0.01587,0.102829 -0.02791,0.195337 0.0011,0.07115 -0.01259,0.155199 -0.04031,0.252181 -0.03759,0.260514 -0.07997,0.468382 -0.127641,0.624251 -0.02979,0.222644 -0.06041,0.409762 -0.09147,0.561206 -0.01409,0.146895 -0.0228,0.247706 -0.02636,0.302307 -0.0432,0.172578 -0.06564,0.321767 -0.0677,0.447518 -0.0974,0.437537 -0.13869,0.752575 -0.12299,0.945162 l 1.702738,-0.456303 0.161747,-0.09663 2.021066,-0.568441 -0.115239,-0.130224 -1.316199,-0.505913 c 0.0023,-0.394028 0.03087,-0.68788 0.08578,-0.8816 l 0.06666,-0.151928 0.223759,-1.267623 0.07648,-0.315743 0.06511,-0.258899 c 0.01409,-0.146897 0.03509,-0.268948 0.06305,-0.365869 0.02315,-0.113535 0.04229,-0.207964 0.05788,-0.283704 l 0.164331,-0.687813 c -0.01787,-0.06677 -0.0084,-0.132338 0.02842,-0.195854 0.01857,-0.130199 0.04376,-0.270762 0.07493,-0.422196 0.02659,-0.16813 0.06119,-0.338503 0.104386,-0.51108 l 0.155547,-0.820105 0.06046,-0.176733 0.0832,-0.290939 c 0.01639,-0.272706 0.06471,-0.491458 0.145728,-0.65629 0.144601,-0.128196 0.262792,-0.222475 0.353983,-0.282671 0.08674,-0.0769 0.150248,-0.138238 0.191203,-0.185001 l 0.620634,-0.488342 0.291972,-0.212391 1.015958,-0.513663 0.125057,-0.03359 c -0.008,-0.305319 -0.122429,-0.455436 -0.343131,-0.450102 z m -21.205424,5.044137 c -0.05308,0.0027 -0.153849,0.02913 -0.302307,0.0801 l -0.286804,0.130742 -0.294039,0.10542 -0.262,0.124023 -0.286804,0.130741 -0.387573,0.157613 -0.311609,0.136943 -2.819983,1.292428 -0.649573,0.281119 -0.136425,0.09043 -0.300757,0.08061 c -0.13218,0.106982 -0.314983,0.191602 -0.548804,0.254248 l -0.05323,0.202055 0.09095,2.041736 0.558622,-0.418062 0.273885,-0.180351 0.12299,-0.14056 0.248564,-0.174149 c 0.1658,-0.115976 0.306677,-0.225117 0.422196,-0.327629 0.132431,-0.107034 0.247858,-0.20942 0.346749,-0.307475 l 2.315621,-1.774052 c 0.162546,-0.06145 0.278801,-0.1286 0.348816,-0.201021 0.08663,-0.07688 0.141991,-0.13648 0.166398,-0.1788 l 0.136942,-0.09043 0.310576,-0.243913 0.955497,-0.73949 c 0.344887,-0.22771 0.458864,-0.338203 0.342098,-0.332279 z m 3.431315,1.199927 c -0.09889,0.09804 -0.141565,0.172139 -0.128157,0.222208 l -1.228349,0.919324 c -0.07448,0.05573 -0.117964,0.09406 -0.130225,0.115238 l -0.342098,0.225826 -0.104903,0.108521 -0.757576,0.578776 -0.625802,0.167948 0.16123,0.60048 2.403471,-0.643888 0.0646,0.143661 0.509529,1.500166 0.140044,-0.278536 0.02945,-0.08888 0.211357,-0.51263 0.08527,-0.183968 0.470772,-1.145667 0.12144,-0.247013 c 0.08102,-0.16481 0.147838,-0.317085 0.199988,-0.456303 0.05214,-0.139187 0.08726,-0.273876 0.105936,-0.40411 -0.357784,-0.333461 -0.753007,-0.54039 -1.185974,-0.62115 z m -13.875122,2.590539 -1.371492,0.689364 -0.0016,0.001 c -0.02888,0.02567 -0.08279,0.05763 -0.161747,0.09664 -0.06234,0.03457 -0.139263,0.0824 -0.230477,0.142627 l -1.216463,0.567407 -0.387056,0.157097 -0.159681,0.606164 c 0.02682,0.100157 0.0066,0.257971 -0.06098,0.472841 l -0.132808,0.706417 -0.100769,0.724508 -0.143661,0.46767 -0.0031,0.18862 -0.176217,0.74466 c -0.191823,-0.18116 -0.37412,-0.32892 -0.54777,-0.44339 -0.178416,-0.1311 -0.341819,-0.239 -0.489893,-0.32452 l 0.01034,0.23874 -0.168982,2.67477 -0.0646,0.2589 -0.552938,5.24619 -0.0088,0.27027 -0.0615,1.57303 c -0.183126,0.31744 -0.389226,0.51602 -0.618566,0.59531 l -0.903821,0.83251 c -0.147878,0.18285 -0.278376,0.29785 -0.390674,0.34572 l -0.748792,0.71055 0.956531,-0.33642 1.129647,-0.49092 0.461987,-0.17725 c 0.227989,-0.1506 0.433926,-0.25059 0.617534,-0.29973 l 0.462504,-0.17725 0.912605,-0.29869 1.607137,-0.51108 0.237195,-0.1173 0.750859,-0.20102 0.112138,-0.0837 c 0.37613,-0.065 0.719501,-0.18367 1.030945,-0.35657 l 0.751375,-0.20153 0.387056,-0.1571 3.032373,-1.00046 0.612366,-0.21755 0.576192,-0.15452 0.405143,-0.18913 0.70125,-0.1881 0.33693,-0.14366 c -0.05366,-0.20028 -0.132572,-0.39394 -0.236161,-0.58085 -0.03128,-0.11678 -0.06842,-0.22304 -0.111621,-0.31884 -0.02234,-0.0834 -0.05273,-0.16485 -0.09147,-0.24391 l -0.14366,-0.33693 -0.107487,-0.4005 c -0.151843,-0.2992 -0.275642,-0.56125 -0.371554,-0.786 -0.04621,-0.13615 -0.08729,-0.26278 -0.12299,-0.37982 l 1.784388,-0.73639 c -0.178406,-0.1311 -0.349986,-0.23725 -0.514698,-0.31832 -0.148348,-0.0854 -0.291846,-0.15399 -0.430981,-0.20619 l -0.608748,-6.277143 -1.141016,0.54777 -0.877466,0.530198 c -0.05928,0.713557 -0.122561,1.177815 -0.190169,1.392685 l -0.447518,2.93729 c -0.117341,0.49654 -0.166935,0.91193 -0.148828,1.24695 -0.192206,1.01756 -0.285303,1.70469 -0.27957,2.06086 l 2.468583,-1.01854 c -0.0338,0.063 -0.06322,0.12726 -0.08837,0.19275 l -0.756543,1.38338 -0.951363,0.25476 -4.650879,1.56838 c -0.0018,-0.60771 0.156461,-1.78621 0.474906,-3.53518 0.157172,-0.88288 0.287372,-1.59746 0.391191,-2.14406 0.103913,-0.54662 0.179306,-0.93353 0.225826,-1.16065 -0.01,-0.10467 0.01391,-0.31665 0.07131,-0.63614 l 0.220659,-1.079 c -0.02199,-0.0834 -0.01987,-0.20911 0.0067,-0.37724 0.09683,-0.240633 0.133387,-0.438128 0.109554,-0.592738 l 0.136425,-0.895031 0.111105,-0.486275 0.115755,-0.969967 c 0.110969,-0.119201 0.19973,-0.187759 0.26665,-0.205672 -0.08175,-0.371652 -0.249107,-0.59536 -0.501778,-0.67076 z" /><path
       id="rect6"
       style="fill:url(#linearGradient65);stroke-width:8.78628;stroke-linecap:round;stroke-linejoin:round;stroke-miterlimit:12;paint-order:markers stroke fill"
       d="M 1.4753621 117.6724 L 1.4753621 131.73563 L 4.3454711 131.73563 L 4.3454711 117.6724 L 1.4753621 117.6724 z M 5.1795287 117.6724 L 5.1795287 131.73563 L 8.0496378 131.73563 L 8.0496378 117.6724 L 5.1795287 117.6724 z M 8.8836954 117.6724 L 8.8836954 131.73563 L 11.753804 131.73563 L 11.753804 117.6724 L 8.8836954 117.6724 z M 12.587862 117.6724 L 12.587862 130.01067 L 15.457971 130.01067 L 15.457971 117.6724 L 12.587862 117.6724 z M 16.292029 117.6724 L 16.292029 130.01067 L 19.162138 130.01067 L 19.162138 117.6724 L 16.292029 117.6724 z M 19.996195 117.6724 L 19.996195 130.01067 L 22.866304 130.01067 L 22.866304 117.6724 L 19.996195 117.6724 z M 23.700362 117.6724 L 23.700362 130.01067 L 26.570471 130.01067 L 26.570471 117.6724 L 23.700362 117.6724 z M 27.404528 117.6724 L 27.404528 130.01067 L 30.274637 130.01067 L 30.274637 117.6724 L 27.404528 117.6724 z M 31.108695 117.6724 L 31.108695 130.01067 L 33.978804 130.01067 L 33.978804 117.6724 L 31.108695 117.6724 z M 34.812862 117.6724 L 34.812862 130.01067 L 37.682971 130.01067 L 37.682971 117.6724 L 34.812862 117.6724 z M 38.517028 117.6724 L 38.517028 130.01067 L 41.387137 130.01067 L 41.387137 117.6724 L 38.517028 117.6724 z M 42.221195 117.6724 L 42.221195 130.01067 L 45.091304 130.01067 L 45.091304 117.6724 L 42.221195 117.6724 z M 45.925362 117.6724 L 45.925362 130.01067 L 48.795471 130.01067 L 48.795471 117.6724 L 45.925362 117.6724 z M 49.629528 117.6724 L 49.629528 130.01067 L 52.499637 130.01067 L 52.499637 117.6724 L 49.629528 117.6724 z M 53.333695 117.6724 L 53.333695 130.01067 L 56.203804 130.01067 L 56.203804 117.6724 L 53.333695 117.6724 z M 57.037861 117.6724 L 57.037861 130.01067 L 59.90797 130.01067 L 59.90797 117.6724 L 57.037861 117.6724 z M 60.742028 117.6724 L 60.742028 130.01067 L 63.612137 130.01067 L 63.612137 117.6724 L 60.742028 117.6724 z M 64.446195 117.6724 L 64.446195 130.01067 L 67.316304 130.01067 L 67.316304 117.6724 L 64.446195 117.6724 z M 68.150361 117.6724 L 68.150361 130.01067 L 71.02047 130.01067 L 71.02047 117.6724 L 68.150361 117.6724 z M 71.854528 117.6724 L 71.854528 130.01067 L 74.724637 130.01067 L 74.724637 117.6724 L 71.854528 117.6724 z M 75.558695 117.6724 L 75.558695 130.01067 L 78.428804 130.01067 L 78.428804 117.6724 L 75.558695 117.6724 z M 79.262861 117.6724 L 79.262861 130.01067 L 82.13297 130.01067 L 82.13297 117.6724 L 79.262861 117.6724 z M 82.967028 117.6724 L 82.967028 130.01067 L 85.837137 130.01067 L 85.837137 117.6724 L 82.967028 117.6724 z M 86.671194 117.6724 L 86.671194 130.01067 L 89.541303 130.01067 L 89.541303 117.6724 L 86.671194 117.6724 z M 90.375361 117.6724 L 90.375361 130.01067 L 93.24547 130.01067 L 93.24547 117.6724 L 90.375361 117.6724 z M 94.079528 117.6724 L 94.079528 130.01067 L 96.949637 130.01067 L 96.949637 117.6724 L 94.079528 117.6724 z M 97.783694 117.6724 L 97.783694 130.01067 L 100.6538 130.01067 L 100.6538 117.6724 L 97.783694 117.6724 z M 101.48786 117.6724 L 101.48786 130.01067 L 104.35797 130.01067 L 104.35797 117.6724 L 101.48786 117.6724 z M 105.19203 117.6724 L 105.19203 130.01067 L 108.06214 130.01067 L 108.06214 117.6724 L 105.19203 117.6724 z M 108.89619 117.6724 L 108.89619 130.01067 L 111.7663 130.01067 L 111.7663 117.6724 L 108.89619 117.6724 z M 112.60036 117.6724 L 112.60036 130.01067 L 115.47047 130.01067 L 115.47047 117.6724 L 112.60036 117.6724 z M 116.30453 117.6724 L 116.30453 130.01067 L 119.17464 130.01067 L 119.17464 117.6724 L 116.30453 117.6724 z M 120.00869 117.6724 L 120.00869 130.01067 L 122.8788 130.01067 L 122.8788 117.6724 L 120.00869 117.6724 z M 123.71286 117.6724 L 123.71286 130.01067 L 126.58297 130.01067 L 126.58297 117.6724 L 123.71286 117.6724 z M 127.41703 117.6724 L 127.41703 130.01067 L 130.28714 130.01067 L 130.28714 117.6724 L 127.41703 117.6724 z M 131.12119 117.6724 L 131.12119 131.73563 L 133.9913 131.73563 L 133.9913 117.6724 L 131.12119 117.6724 z " /><rect
       style="opacity:1;fill:#000000;stroke-width:9.43981;stroke-linecap:round;stroke-linejoin:round;stroke-miterlimit:12;paint-order:markers stroke fill"
       id="rect4"
       width="134.40833"
       height="27.063868"
       x="0.52916992"
       y="34.342018" /><g
       id="g48"
       transform="translate(1.5875,-0.44326196)"><text
         xml:space="preserve"
         style="font-style:normal;font-variant:normal;font-weight:normal;font-stretch:normal;font-size:6.11763px;line-height:1.25;font-family:'Adobe Gothic Std';-inkscape-font-specification:'Adobe Gothic Std, Normal';font-variant-ligatures:normal;font-variant-caps:normal;font-variant-numeric:normal;font-variant-east-asian:normal;text-align:center;text-orientation:upright;text-anchor:middle;fill:#ffffff;stroke-width:0.154419"
         x="-44.36795"
         y="6.0074949"
         id="text4"
         transform="rotate(-90)"><tspan
           sodipodi:role="line"
           id="tspan4"
           style="font-style:normal;font-variant:normal;font-weight:normal;font-stretch:normal;font-size:6.11763px;font-family:'Adobe Gothic Std';-inkscape-font-specification:'Adobe Gothic Std, Normal';font-variant-ligatures:normal;font-variant-caps:normal;font-variant-numeric:normal;font-variant-east-asian:normal;fill:#ffffff;stroke-width:0.154419"
           x="-44.36795"
           y="6.0074949">FARTI</tspan></text><path
         id="path45"
         style="baseline-shift:baseline;display:inline;overflow:visible;vector-effect:none;fill:#ffffff;stroke-width:0.346633;enable-background:accumulate;stop-color:#000000"
         d="m 1.266337,57.659203 0.04138,0.549028 c 0,0 0.3962453,-0.03031 0.8922363,-0.02311 0.4959913,0.0072 1.0953877,0.0618 1.4333803,0.189697 0.3265639,0.123575 0.8490771,0.522404 1.2571198,0.888116 0.408043,0.365711 0.7163318,0.693404 0.7163318,0.693404 L 6.0074949,59.57981 c 0,0 -0.3228766,-0.343542 -0.7500089,-0.726363 C 4.8303548,58.470635 4.314493,58.044188 3.8282254,57.860192 3.3533865,57.680517 2.7308041,57.642452 2.2081933,57.634847 1.6855828,57.627347 1.266339,57.659197 1.266339,57.659197 Z m 0,-0.918746 c 0,0 0.4192438,0.03197 0.9418543,0.02435 0.5226108,-0.0075 1.1451931,-0.04514 1.6200321,-0.224805 0.4862676,-0.183998 1.0021294,-0.610267 1.4292608,-0.993085 0.4271323,-0.38282 0.7500088,-0.726544 0.7500088,-0.726544 l -0.4007097,-0.37706 c 0,0 -0.3082888,0.32823 -0.7163316,0.693942 -0.4080429,0.365709 -0.9305561,0.764728 -1.2571199,0.888294 -0.3379927,0.127896 -0.937389,0.182301 -1.4333803,0.189518 -0.495991,0.0072 -0.8922362,-0.02294 -0.8922362,-0.02294 z m 0.02096,0.734603 H 5.8072303 V 56.925318 H 1.2872975 Z" /></g><text
       xml:space="preserve"
       style="font-size:6.11764px;line-height:1.25;font-family:Electrox;-inkscape-font-specification:'Electrox, Normal';text-align:center;text-orientation:upright;text-anchor:middle;display:none;fill:#ffffff;stroke-width:0.264583"
       x="154.26553"
       y="88.397736"
       id="text52"
       sodipodi:insensitive="true"><tspan
         sodipodi:role="line"
         id="tspan51"
         style="fill:#ffffff;stroke-width:0.264583"
         x="154.26553"
         y="88.397736">Blue</tspan><tspan
         sodipodi:role="line"
         style="fill:#ffffff;stroke-width:0.264583"
         x="154.26553"
         y="96.044785"
         id="tspan52">Lightning</tspan></text><g
       id="g63"
       transform="translate(-132.29169)"><path
         id="rect1-3"
         style="stroke-width:0.03189"
         class="st0"
         d="m 254.12815,41.006282 -5.58673,2.044836 4.90616,2.143539 11.5104,-4.188375 z m -111.59318,10e-4 v 9.685713 h 7.82019 v -9.685713 z m 17.52554,0 12.59303,8.73435 5.38004,-3.457153 -7.00319,-5.277197 z m 28.57707,0 -15.13551,9.724987 v 4.009575 h 7.89099 v -4.359941 l 13.53406,-9.374105 h -6.28954 z m 9.73842,0 21.37648,13.734045 h 4.42195 V 41.007316 h -3.90984 V 50.58916 L 205.8386,41.007316 Z m 0.26355,0.170015 8.47494,5.445146 z m -0.36018,1.299662 -0.0367,12.264885 h 8.51162 v -6.819739 z m 40.82593,3.699516 -3.67833,1.346688 16.51992,7.218164 h 11.9693 l -15.89361,-6.944796 -2.8329,1.037146 z m -96.60496,5.623946 v 2.940906 h 19.79311 v -2.940906 z" /><path
         id="path8"
         style="stroke-width:0.03189"
         class="st2"
         d="m 229.30073,41.006282 15.8936,6.944279 2.8329,-1.036629 6.0849,2.657202 3.67782,-1.346688 -16.51993,-7.218164 h -0.11523 z m 10.46913,9.546704 -11.51041,4.188375 h 10.82983 l 5.58674,-2.044837 z" /><path
         id="path62"
         style="fill:url(#linearGradient63);stroke-width:0.03189;opacity:0.4"
         class="st0"
         d="m 249.96094,43.09375 c 1.16732,0.510417 2.33463,1.020833 3.50195,1.53125 2.83008,-1.029948 5.66016,-2.059896 8.49023,-3.089844 -2.60671,0.02311 -5.22978,-0.04608 -7.82633,0.03436 -1.38862,0.508078 -2.77723,1.016155 -4.16585,1.524234 z m -106.89649,7.070312 c 2.25391,0 4.50782,10e-7 6.76172,0 0,-2.875651 0,-5.751302 0,-8.626953 -2.2539,0 -4.50781,0 -6.76172,0 0,2.875651 0,5.751302 0,8.626953 z m 29.60157,-1.058593 c 1.48112,-0.951823 2.96224,-1.903646 4.44336,-2.855469 -2.08464,-1.570964 -4.16928,-3.141927 -6.25391,-4.712891 -3.03451,0 -6.06901,0 -9.10352,0 3.63802,2.522787 7.27604,5.045573 10.91407,7.56836 z m 1.36523,1.916015 c 0,1.063802 0,2.127605 0,3.191407 2.27734,0 4.55469,0 6.83203,0 0,-1.369141 0,-2.738282 0,-4.107422 4.12377,-2.856025 8.24739,-5.712256 12.3711,-8.56836 -1.50367,0.03673 -3.05035,-0.07301 -4.52749,0.05406 -4.89188,3.143438 -9.78376,6.286877 -14.67564,9.430315 z m 33.36914,-4.84375 c 4.16862,2.678386 8.33724,5.356771 12.50586,8.035157 1.24609,0 2.49219,0 3.73828,0 0,-4.225261 0,-8.450521 0,-12.675782 -0.95052,0 -1.90104,0 -2.85156,0 0,3.346355 0,6.692709 0,10.039063 -5.03956,-3.344622 -10.07664,-6.69298 -15.11524,-10.039063 -1.83268,0 -3.66536,0 -5.49804,0 2.4069,1.546875 4.8138,3.09375 7.2207,4.640625 z m -8.62695,8.035157 c 2.48372,0 4.96745,0 7.45117,0 0,-2.000651 0,-4.001302 0,-6.001953 -2.47266,-1.589193 -4.94531,-3.178386 -7.41797,-4.767579 -0.0111,3.589844 -0.0221,7.179688 -0.0332,10.769532 z m 38.07226,-6.646485 c 5.06966,2.215495 10.13933,4.43099 15.20899,6.646485 3.11002,0 6.22005,0 9.33008,0 -4.45964,-1.949219 -8.91928,-3.898438 -13.37891,-5.847657 -0.94452,0.346746 -1.89016,0.69045 -2.83398,1.039063 -2.02693,-0.889146 -4.05618,-1.773025 -6.08399,-2.660156 -0.7474,0.274088 -1.49479,0.548177 -2.24219,0.822265 z m -93.8164,6.646485 c 6.24479,0 12.48958,0 18.73437,0 0,-0.627605 0,-1.255209 0,-1.882813 -6.24479,0 -12.48958,0 -18.73437,0 0,0.627604 0,1.255208 0,1.882813 z" /></g><path
       id="path66"
       style="display:inline;mix-blend-mode:soft-light;fill:#ffff00;stroke-width:8.78628;stroke-linecap:round;stroke-linejoin:round;stroke-miterlimit:12;paint-order:markers stroke fill;filter:url(#filter67)"
       d="m 1.4753621,117.6724 v 14.06323 h 2.870109 V 117.6724 Z m 3.7041666,0 v 14.06323 H 8.0496378 V 117.6724 Z m 3.7041667,0 v 14.06323 H 11.753804 V 117.6724 Z m 3.7041666,0 v 12.33827 h 2.870109 V 117.6724 Z m 3.704167,0 v 12.33827 h 2.870109 V 117.6724 Z m 3.704166,0 v 12.33827 h 2.870109 V 117.6724 Z m 3.704167,0 v 12.33827 h 2.870109 V 117.6724 Z m 3.704166,0 v 12.33827 h 2.870109 V 117.6724 Z m 3.704167,0 v 12.33827 h 2.870109 V 117.6724 Z m 3.704167,0 v 12.33827 h 2.870109 V 117.6724 Z m 3.704166,0 v 12.33827 h 2.870109 V 117.6724 Z m 3.704167,0 v 12.33827 h 2.870109 V 117.6724 Z m 3.704167,0 v 12.33827 h 2.870109 V 117.6724 Z m 3.704166,0 v 12.33827 h 2.870109 V 117.6724 Z m 3.704167,0 v 12.33827 h 2.870109 V 117.6724 Z m 3.704166,0 v 12.33827 H 59.90797 V 117.6724 Z m 3.704167,0 v 12.33827 h 2.870109 V 117.6724 Z m 3.704167,0 v 12.33827 h 2.870109 V 117.6724 Z m 3.704166,0 v 12.33827 H 71.02047 V 117.6724 Z m 3.704167,0 v 12.33827 h 2.870109 V 117.6724 Z m 3.704167,0 v 12.33827 h 2.870109 V 117.6724 Z m 3.704166,0 v 12.33827 H 82.13297 V 117.6724 Z m 3.704167,0 v 12.33827 h 2.870109 V 117.6724 Z m 3.704166,0 v 12.33827 h 2.870109 V 117.6724 Z m 3.704167,0 v 12.33827 H 93.24547 V 117.6724 Z m 3.704167,0 v 12.33827 h 2.870109 V 117.6724 Z m 3.704166,0 v 12.33827 H 100.6538 V 117.6724 Z m 3.704166,0 v 12.33827 h 2.87011 V 117.6724 Z m 3.70417,0 v 12.33827 h 2.87011 V 117.6724 Z m 3.70416,0 v 12.33827 h 2.87011 V 117.6724 Z m 3.70417,0 v 12.33827 h 2.87011 V 117.6724 Z m 3.70417,0 v 12.33827 h 2.87011 V 117.6724 Z m 3.70416,0 v 12.33827 h 2.87011 V 117.6724 Z m 3.70417,0 v 12.33827 h 2.87011 V 117.6724 Z m 3.70417,0 v 12.33827 h 2.87011 V 117.6724 Z m 3.70416,0 v 14.06323 h 2.87011 V 117.6724 Z" /><path
       id="path65"
       style="display:inline;opacity:0.68;fill:#ffdd55;stroke-width:8.78628;stroke-linecap:round;stroke-linejoin:round;stroke-miterlimit:12;paint-order:markers stroke fill;filter:url(#filter66)"
       d="m 2.0039062,131.20703 c 0.6041667,0 1.2083334,0 1.8125,0 0,-4.33529 0,-8.67057 0,-13.00586 -0.6041666,0 -1.2083333,0 -1.8125,0 0,4.33529 1e-7,8.67057 0,13.00586 z m 3.7050782,0 c 0.6035156,0 1.2070312,0 1.8105468,0 0,-4.33529 10e-8,-8.67057 0,-13.00586 -0.6035156,0 -1.2070312,0 -1.8105468,0 0,4.33529 0,8.67057 0,13.00586 z m 3.703125,0 c 0.6041666,0 1.2083336,0 1.8124996,0 0,-4.33529 0,-8.67057 0,-13.00586 -0.604166,0 -1.208333,0 -1.8124996,0 0,4.33529 0,8.67057 0,13.00586 z m 3.7050786,-1.72656 c 0.603515,0 1.207031,0 1.810546,0 0,-3.75977 0,-7.51953 0,-11.2793 -0.603515,0 -1.207031,0 -1.810546,0 0,3.75977 -1e-6,7.51953 0,11.2793 z m 3.705078,0 c 0.603515,0 1.207031,0 1.810546,0 0,-3.75977 10e-7,-7.51953 0,-11.2793 -0.603515,0 -1.207031,0 -1.810546,0 0,3.75977 0,7.51953 0,11.2793 z m 3.703125,0 c 0.604166,0 1.208333,0 1.8125,0 0,-3.75977 0,-7.51953 0,-11.2793 -0.604167,0 -1.208334,0 -1.8125,0 0,3.75977 0,7.51953 0,11.2793 z m 3.705078,0 c 0.603515,0 1.207031,0 1.810547,0 0,-3.75977 0,-7.51953 0,-11.2793 -0.603516,0 -1.207032,0 -1.810547,0 0,3.75977 0,7.51953 0,11.2793 z m 3.703125,0 c 0.604166,0 1.208333,0 1.8125,0 0,-3.75977 0,-7.51953 0,-11.2793 -0.604167,0 -1.208334,0 -1.8125,0 0,3.75977 0,7.51953 0,11.2793 z m 3.705078,0 c 0.603515,0 1.207031,0 1.810547,0 0,-3.75977 0,-7.51953 0,-11.2793 -0.603516,0 -1.207031,0 -1.810547,0 0,3.75977 0,7.51953 0,11.2793 z m 3.703125,0 c 0.604167,0 1.208333,0 1.8125,0 0,-3.75977 0,-7.51953 0,-11.2793 -0.604167,0 -1.208333,0 -1.8125,0 0,3.75977 0,7.51953 0,11.2793 z m 3.705078,0 c 0.603516,0 1.207031,0 1.810547,0 0,-3.75977 0,-7.51953 0,-11.2793 -0.603516,0 -1.207031,0 -1.810547,0 0,3.75977 0,7.51953 0,11.2793 z m 3.703125,0 c 0.604167,0 1.208333,0 1.8125,0 0,-3.75977 0,-7.51953 0,-11.2793 -0.604167,0 -1.208333,0 -1.8125,0 0,3.75977 0,7.51953 0,11.2793 z m 3.705078,0 c 0.603516,0 1.207031,0 1.810547,0 0,-3.75977 0,-7.51953 0,-11.2793 -0.603516,0 -1.207031,0 -1.810547,0 0,3.75977 0,7.51953 0,11.2793 z m 3.703125,0 c 0.604167,0 1.208333,0 1.8125,0 0,-3.75977 0,-7.51953 0,-11.2793 -0.604167,0 -1.208333,0 -1.8125,0 0,3.75977 0,7.51953 0,11.2793 z m 3.705078,0 c 0.603516,0 1.207031,0 1.810547,0 0,-3.75977 0,-7.51953 0,-11.2793 -0.603515,0 -1.207031,0 -1.810547,0 0,3.75977 0,7.51953 0,11.2793 z m 3.703125,0 c 0.604167,0 1.208334,0 1.8125,0 0,-3.75977 0,-7.51953 0,-11.2793 -0.604166,0 -1.208333,0 -1.8125,0 0,3.75977 0,7.51953 0,11.2793 z m 3.705078,0 c 0.603516,0 1.207032,0 1.810547,0 0,-3.75977 0,-7.51953 0,-11.2793 -0.603515,0 -1.207031,0 -1.810547,0 0,3.75977 0,7.51953 0,11.2793 z m 3.703125,0 c 0.604167,0 1.208334,0 1.8125,0 0,-3.75977 0,-7.51953 0,-11.2793 -0.604166,0 -1.208333,0 -1.8125,0 0,3.75977 0,7.51953 0,11.2793 z m 3.705079,0 c 0.603515,0 1.207031,0 1.810546,0 0,-3.75977 0,-7.51953 0,-11.2793 -0.603515,0 -1.207031,0 -1.810546,0 0,3.75977 -10e-7,7.51953 0,11.2793 z m 3.705078,0 c 0.603515,0 1.207031,0 1.810546,0 0,-3.75977 10e-7,-7.51953 0,-11.2793 -0.603515,0 -1.207031,0 -1.810546,0 0,3.75977 0,7.51953 0,11.2793 z m 3.703125,0 c 0.604166,0 1.208333,0 1.8125,0 0,-3.75977 0,-7.51953 0,-11.2793 -0.604167,0 -1.208334,0 -1.8125,0 0,3.75977 0,7.51953 0,11.2793 z m 3.705078,0 c 0.603515,0 1.207031,0 1.810547,0 0,-3.75977 0,-7.51953 0,-11.2793 -0.603516,0 -1.207032,0 -1.810547,0 0,3.75977 0,7.51953 0,11.2793 z m 3.703125,0 c 0.604166,0 1.208333,0 1.8125,0 0,-3.75977 0,-7.51953 0,-11.2793 -0.604167,0 -1.208334,0 -1.8125,0 0,3.75977 0,7.51953 0,11.2793 z m 3.705078,0 c 0.603515,0 1.207031,0 1.810547,0 0,-3.75977 0,-7.51953 0,-11.2793 -0.603516,0 -1.207031,0 -1.810547,0 0,3.75977 0,7.51953 0,11.2793 z m 3.703125,0 c 0.604167,0 1.208333,0 1.8125,0 0,-3.75977 0,-7.51953 0,-11.2793 -0.604167,0 -1.208333,0 -1.8125,0 0,3.75977 0,7.51953 0,11.2793 z m 3.705078,0 c 0.603516,0 1.207031,0 1.810547,0 0,-3.75977 0,-7.51953 0,-11.2793 -0.603516,0 -1.207031,0 -1.810547,0 0,3.75977 0,7.51953 0,11.2793 z m 3.703125,0 c 0.604167,0 1.208333,0 1.8125,0 0,-3.75977 0,-7.51953 0,-11.2793 -0.604167,0 -1.208333,0 -1.8125,0 0,3.75977 0,7.51953 0,11.2793 z m 3.70508,0 c 0.60351,0 1.20703,0 1.81054,0 0,-3.75977 0,-7.51953 0,-11.2793 -0.60351,0 -1.20703,0 -1.81054,0 0,3.75977 0,7.51953 0,11.2793 z m 3.70312,0 c 0.60417,0 1.20834,0 1.8125,0 0,-3.75977 0,-7.51953 0,-11.2793 -0.60416,0 -1.20833,0 -1.8125,0 0,3.75977 0,7.51953 0,11.2793 z m 3.70508,0 c 0.60352,0 1.20703,0 1.81055,0 0,-3.75977 0,-7.51953 0,-11.2793 -0.60352,0 -1.20703,0 -1.81055,0 0,3.75977 0,7.51953 0,11.2793 z m 3.70313,0 c 0.60416,0 1.20833,0 1.8125,0 0,-3.75977 0,-7.51953 0,-11.2793 -0.60417,0 -1.20834,0 -1.8125,0 0,3.75977 0,7.51953 0,11.2793 z m 3.70507,0 c 0.60352,0 1.20704,0 1.81055,0 0,-3.75977 0,-7.51953 0,-11.2793 -0.60351,0 -1.20703,0 -1.81055,0 0,3.75977 0,7.51953 0,11.2793 z m 3.70313,0 c 0.60417,0 1.20833,0 1.8125,0 0,-3.75977 0,-7.51953 0,-11.2793 -0.60417,0 -1.20833,0 -1.8125,0 0,3.75977 0,7.51953 0,11.2793 z m 3.70508,0 c 0.60351,0 1.20703,0 1.81054,0 0,-3.75977 0,-7.51953 0,-11.2793 -0.60351,0 -1.20703,0 -1.81054,0 0,3.75977 0,7.51953 0,11.2793 z m 3.70508,0 c 0.60351,0 1.20703,0 1.81054,0 0,-3.75977 0,-7.51953 0,-11.2793 -0.60351,0 -1.20703,0 -1.81054,0 0,3.75977 0,7.51953 0,11.2793 z m 3.70312,1.72656 c 0.60417,0 1.20833,0 1.8125,0 0,-4.33529 0,-8.67057 0,-13.00586 -0.60417,0 -1.20833,0 -1.8125,0 0,4.33529 0,8.67057 0,13.00586 z" /></g><style
     type="text/css"
     id="style1">
	.st0{fill:#FFCC00;}
	.st1{fill-rule:evenodd;clip-rule:evenodd;fill:#FFCC00;}
	.st2{fill-rule:evenodd;clip-rule:evenodd;fill:#FF0000;}
</style></svg>
