<?xml version="1.0" encoding="UTF-8" standalone="no"?>
<!-- Created with Inkscape (http://www.inkscape.org/) -->

<svg
   width="512"
   height="512"
   viewBox="0 0 135.46666 135.46667"
   version="1.1"
   id="svg5"
   inkscape:version="1.4.2 (ebf0e940d0, 2025-05-08)"
   sodipodi:docname="application-x-genesis-32x-rom.svg"
   xmlns:inkscape="http://www.inkscape.org/namespaces/inkscape"
   xmlns:sodipodi="http://sodipodi.sourceforge.net/DTD/sodipodi-0.dtd"
   xmlns:xlink="http://www.w3.org/1999/xlink"
   xmlns="http://www.w3.org/2000/svg"
   xmlns:svg="http://www.w3.org/2000/svg">
  <sodipodi:namedview
     id="namedview7"
     pagecolor="#242424"
     bordercolor="#666666"
     borderopacity="1"
     inkscape:showpageshadow="0"
     inkscape:pageopacity="0"
     inkscape:pagecheckerboard="1"
     inkscape:deskcolor="#000000"
     inkscape:document-units="px"
     showgrid="false"
     inkscape:zoom="3.6874999"
     inkscape:cx="179.66102"
     inkscape:cy="213.55933"
     inkscape:window-width="3256"
     inkscape:window-height="1080"
     inkscape:window-x="1864"
     inkscape:window-y="0"
     inkscape:window-maximized="0"
     inkscape:current-layer="layer1" />
  <defs
     id="defs2">
    <linearGradient
       id="linearGradient28"
       inkscape:collect="always">
      <stop
         style="stop-color:#ffffff;stop-opacity:1;"
         offset="0"
         id="stop28" />
      <stop
         style="stop-color:#ffffff;stop-opacity:0;"
         offset="1"
         id="stop29" />
    </linearGradient>
    <linearGradient
       id="linearGradient25"
       inkscape:collect="always">
      <stop
         style="stop-color:#7400ff;stop-opacity:1;"
         offset="0"
         id="stop25" />
      <stop
         style="stop-color:#6200d6;stop-opacity:1;"
         offset="1"
         id="stop26" />
    </linearGradient>
    <linearGradient
       id="linearGradient17"
       inkscape:collect="always">
      <stop
         style="stop-color:#000000;stop-opacity:1;"
         offset="0"
         id="stop17" />
      <stop
         style="stop-color:#1a1a1a;stop-opacity:0;"
         offset="1"
         id="stop18" />
    </linearGradient>
    <linearGradient
       id="linearGradient15"
       inkscape:collect="always">
      <stop
         style="stop-color:#000000;stop-opacity:1;"
         offset="0"
         id="stop15" />
      <stop
         style="stop-color:#000000;stop-opacity:0;"
         offset="1"
         id="stop16" />
    </linearGradient>
    <inkscape:path-effect
       effect="powerstroke"
       message=""
       id="path-effect7"
       is_visible="true"
       lpeversion="1.3"
       scale_width="1"
       interpolator_type="CubicBezierJohan"
       interpolator_beta="0.2"
       start_linecap_type="zerowidth"
       end_linecap_type="round"
       offset_points="1,1.3130113"
       linejoin_type="extrp_arc"
       miter_limit="4"
       not_jump="false"
       sort_points="true" />
    <inkscape:path-effect
       effect="powerstroke"
       message=""
       id="path-effect4"
       is_visible="true"
       lpeversion="1.3"
       scale_width="1"
       interpolator_type="CubicBezierJohan"
       interpolator_beta="0.2"
       start_linecap_type="zerowidth"
       end_linecap_type="round"
       offset_points="1,1.3130113"
       linejoin_type="extrp_arc"
       miter_limit="4"
       not_jump="false"
       sort_points="true" />
    <linearGradient
       id="linearGradient1"
       inkscape:collect="always">
      <stop
         style="stop-color:#000000;stop-opacity:1;"
         offset="0.88285637"
         id="stop1" />
      <stop
         style="stop-color:#000000;stop-opacity:0.28;"
         offset="1"
         id="stop2" />
    </linearGradient>
    <inkscape:path-effect
       effect="powerstroke"
       message=""
       id="path-effect6"
       is_visible="true"
       lpeversion="1.3"
       scale_width="1"
       interpolator_type="CubicBezierJohan"
       interpolator_beta="0.2"
       start_linecap_type="zerowidth"
       end_linecap_type="zerowidth"
       offset_points="1,4.1542222"
       linejoin_type="extrp_arc"
       miter_limit="4"
       not_jump="false"
       sort_points="true" />
    <inkscape:path-effect
       effect="fillet_chamfer"
       id="path-effect3"
       is_visible="true"
       lpeversion="1"
       nodesatellites_param="F,0,0,1,0,0,0,1 @ F,0,0,1,0,0,0,1 @ F,0,0,1,0,0,0,1 @ F,0,1,1,0,4.7624998,0,1 @ F,0,1,1,0,4.7624998,0,1 @ F,0,0,1,0,0,0,1"
       radius="18"
       unit="px"
       method="auto"
       mode="F"
       chamfer_steps="1"
       flexible="false"
       use_knot_distance="true"
       apply_no_radius="true"
       apply_with_radius="true"
       only_selected="true"
       hide_knots="false" />
    <inkscape:path-effect
       effect="fillet_chamfer"
       id="path-effect2"
       is_visible="true"
       lpeversion="1"
       nodesatellites_param="F,0,1,1,0,2.1166666,0,1 @ F,0,1,1,0,2.1166666,0,1 @ F,0,0,1,0,0,0,1 @ F,0,0,1,0,0,0,1"
       radius="8"
       unit="px"
       method="auto"
       mode="F"
       chamfer_steps="1"
       flexible="false"
       use_knot_distance="true"
       apply_no_radius="true"
       apply_with_radius="true"
       only_selected="true"
       hide_knots="false" />
    <inkscape:path-effect
       effect="fillet_chamfer"
       id="path-effect1"
       is_visible="true"
       lpeversion="1"
       nodesatellites_param="F,0,1,1,0,7.408333,0,1 @ F,0,1,1,0,7.408333,0,1 @ F,0,0,1,0,0,0,1 @ F,0,0,1,0,0,0,1"
       radius="28"
       unit="px"
       method="auto"
       mode="F"
       chamfer_steps="1"
       flexible="false"
       use_knot_distance="true"
       apply_no_radius="true"
       apply_with_radius="true"
       only_selected="true"
       hide_knots="false" />
    <clipPath
       clipPathUnits="userSpaceOnUse"
       id="clipPath7">
      <rect
         style="display:inline;opacity:1;fill:#0a0a0a;fill-opacity:1;stroke-width:0.264583;stroke-linecap:round;stroke-linejoin:round;stroke-dashoffset:149.514;paint-order:markers stroke fill"
         id="rect8"
         width="135.46666"
         height="94.696571"
         x="1.8244639e-07"
         y="25.244558" />
    </clipPath>
    <clipPath
       clipPathUnits="userSpaceOnUse"
       id="clipPath481">
      <path
         id="path482"
         style="display:inline;fill:#ad1f1d;fill-opacity:1;stroke-width:2.11667;stroke-linecap:round;stroke-linejoin:round;stroke-dashoffset:149.514;paint-order:markers stroke fill"
         d="m 1.8520833,18.94303 v 21.478791 c 0,0.213273 0.1717164,0.38499 0.3849894,0.38499 H 133.22959 c 0.21328,0 0.38499,-0.171717 0.38499,-0.38499 V 18.94303 Z"
         inkscape:label="label" />
    </clipPath>
    <clipPath
       clipPathUnits="userSpaceOnUse"
       id="clipPath37">
      <path
         d="m -47.007502,83.620482 3e-6,5.591371 q -3e-6,1.255736 -0.0258,1.617466 -0.0258,0.356566 -0.237686,0.645959 -0.206737,0.289383 -0.56843,0.403069 -0.356574,0.108522 -1.080043,0.108522 h -1.090372 l 3e-6,-1.462434 q 0.19635,0.01553 0.2842,0.01553 0.23255,0 0.366903,-0.113686 0.134387,-0.113695 0.154979,-0.279056 0.02069,-0.16536 0.02069,-0.640787 v -5.885923 z m 7.653261,0 v 5.591371 q 3e-6,0.950843 -0.062,1.338421 -0.062,0.382402 -0.366852,0.790644 -0.304885,0.403079 -0.806149,0.61495 -0.496104,0.206708 -1.173054,0.206708 -0.74931,0 -1.322914,-0.248055 -0.573598,-0.248044 -0.857819,-0.645951 -0.284218,-0.397904 -0.335904,-0.837155 -0.0517,-0.444415 -0.05169,-1.860349 l -2e-6,-4.950584 h 2.175578 l -2e-6,6.273504 q 8e-6,0.547764 0.0568,0.702799 0.062,0.14986 0.242879,0.14986 0.206701,0 0.263554,-0.165362 0.06203,-0.170532 0.062,-0.795819 v -6.164982 z m 7.699761,3.079909 h -2.175571 l -2e-6,-0.759643 q 0,-0.718299 -0.06199,-0.899168 -0.062,-0.180861 -0.294556,-0.180861 -0.201538,0 -0.273888,0.155022 -0.07193,0.155033 -0.0723,0.795819 l -2e-6,4.015243 q 2e-6,0.563274 0.0723,0.744135 0.0724,0.175707 0.289391,0.175707 0.237709,0 0.320389,-0.201536 0.08791,-0.201543 0.0879,-0.785482 l -2e-6,-0.99219 h -0.439251 l 5e-6,-1.271235 h 2.547628 l 8e-6,4.490667 h -1.36942 l -0.201538,-0.59944 q -0.222229,0.387569 -0.56328,0.583941 -0.335891,0.191206 -0.795811,0.191206 -0.547761,0 -1.028353,-0.263554 -0.475427,-0.268711 -0.723474,-0.661453 -0.248039,-0.39274 -0.310049,-0.821656 -0.062,-0.434078 -0.062,-1.297072 l 8e-6,-2.485633 q 0,-1.198888 0.129201,-1.741488 0.129183,-0.542602 0.738966,-0.992182 0.614933,-0.454753 1.586462,-0.454753 0.956001,0 1.586458,0.392743 0.630449,0.392739 0.821645,0.935341 0.191201,0.53743 0.191212,1.565783 z m 7.343199,-3.079909 -1.586459,5.338162 4e-6,3.028225 h -2.015379 l -6e-6,-3.028225 -1.529609,-5.338162 h 1.999869 q 0.470255,2.444287 0.527095,3.291782 0.180867,-1.338411 0.604615,-3.291782 z m 6.847116,2.532137 h -2.02055 l -3e-6,-0.620115 q 0,-0.434078 -0.0775,-0.552937 -0.0775,-0.118848 -0.258378,-0.118848 -0.19637,0 -0.299724,0.160197 -0.09816,0.160187 -0.0982,0.485751 3e-6,0.418579 0.11369,0.630452 0.108527,0.211871 0.614951,0.511599 1.452101,0.862994 1.82934,1.415923 0.377235,0.552936 0.377228,1.782833 7e-6,0.893996 -0.211864,1.317747 -0.206706,0.423744 -0.806144,0.713126 -0.599454,0.284229 -1.395274,0.284229 -0.87333,0 -1.49343,-0.330732 -0.614951,-0.330729 -0.806152,-0.842327 -0.191206,-0.511591 -0.191202,-1.452097 l -4e-6,-0.547775 h 2.02055 l -3e-6,1.018027 q -7e-6,0.470254 0.08269,0.604612 0.0879,0.134361 0.304892,0.134361 0.21704,0 0.320386,-0.170535 0.108526,-0.170534 0.108525,-0.506428 4e-6,-0.738971 -0.201531,-0.966343 -0.20671,-0.22738 -1.01803,-0.759645 -0.811307,-0.537435 -1.07486,-0.780309 -0.263548,-0.24288 -0.439248,-0.671796 -0.170534,-0.428905 -0.170536,-1.095528 4e-6,-0.961189 0.242876,-1.405604 0.248072,-0.444416 0.795823,-0.692463 0.54776,-0.253209 1.3229,-0.253209 0.84749,0 1.441775,0.273884 0.599444,0.273883 0.790656,0.692459 0.196363,0.413417 0.196365,1.410769 z m 7.363864,-2.532137 -1.586469,5.338162 4e-6,3.028225 h -2.01537 l -4e-6,-3.028225 -1.529621,-5.338162 h 1.99987 q 0.470264,2.444287 0.527096,3.291782 0.180876,-1.338411 0.604614,-3.291782 z m 6.8471058,2.532137 H -5.273735 l -2.6e-6,-0.620115 q -8e-7,-0.434078 -0.077505,-0.552937 -0.077498,-0.118848 -0.2583881,-0.118848 -0.19637,0 -0.2997234,0.160197 -0.098159,0.160187 -0.098199,0.485751 3e-6,0.418579 0.1136799,0.630452 0.1085267,0.211871 0.6149514,0.511599 1.4521109,0.862994 1.8293397,1.415923 0.3772443,0.552936 0.3772379,1.782833 6.6e-6,0.893996 -0.211864,1.317747 -0.2067065,0.423744 -0.8061545,0.713126 -0.5994532,0.284229 -1.3952632,0.284229 -0.8733301,0 -1.4934507,-0.330732 -0.6149303,-0.330729 -0.806142,-0.842327 -0.1912059,-0.511591 -0.1912017,-1.452097 l 6.1e-6,-0.547775 h 2.0205401 l -3.5e-6,1.018027 q 3.2e-6,0.470254 0.082695,0.604612 0.087802,0.134361 0.3048916,0.134361 0.2170401,0 0.3203964,-0.170535 0.108526,-0.170534 0.1085146,-0.506428 3.7e-6,-0.738971 -0.2015408,-0.966343 -0.2067004,-0.22738 -1.0180206,-0.759645 -0.8113165,-0.537435 -1.0748693,-0.780309 -0.2635482,-0.24288 -0.4392482,-0.671796 -0.1705343,-0.428905 -0.1705362,-1.095528 4.3e-6,-0.961189 0.2428862,-1.405604 0.2480723,-0.444416 0.7958233,-0.692463 0.5477502,-0.253209 1.3229002,-0.253209 0.8474898,0 1.4417738,0.273884 0.5994443,0.273883 0.7906372,0.692459 0.1963719,0.413417 0.1963743,1.410769 z"
         id="path38"
         style="font-size:10.5833px;line-height:1.25;font-family:Impact;-inkscape-font-specification:'Impact, Normal';stroke-width:0.264583"
         aria-label="J U G Y S Y S" />
    </clipPath>
    <clipPath
       clipPathUnits="userSpaceOnUse"
       id="clipPath4">
      <path
         id="path5"
         style="fill:#0f0f0f;stroke-width:0.264583;stroke-linecap:round;stroke-linejoin:round;stroke-dashoffset:149.514;paint-order:markers stroke fill"
         d="M 7.4083356,20.385099 H 128.05833 a 7.408333,7.408333 0 0 1 7.40833,7.408332 V 115.08167 H 2.6824463e-6 V 27.793431 A 7.408333,7.408333 0 0 1 7.4083356,20.385099 Z" />
    </clipPath>
    <filter
       inkscape:collect="always"
       style="color-interpolation-filters:sRGB"
       id="filter5"
       x="-0.015771805"
       y="-0.58827479"
       width="1.0315436"
       height="2.1765496">
      <feGaussianBlur
         inkscape:collect="always"
         stdDeviation="0.88919845"
         id="feGaussianBlur5" />
    </filter>
    <linearGradient
       inkscape:collect="always"
       xlink:href="#linearGradient1"
       id="linearGradient2"
       x1="67.733398"
       y1="97.867188"
       x2="67.73333"
       y2="20.385099"
       gradientUnits="userSpaceOnUse" />
    <filter
       inkscape:collect="always"
       style="color-interpolation-filters:sRGB"
       id="filter8"
       x="-0.012085011"
       y="-0.02097669"
       width="1.02417"
       height="1.0419534">
      <feGaussianBlur
         inkscape:collect="always"
         stdDeviation="0.65272249"
         id="feGaussianBlur8" />
    </filter>
    <clipPath
       clipPathUnits="userSpaceOnUse"
       id="clipPath12">
      <path
         style="baseline-shift:baseline;display:inline;overflow:visible;vector-effect:none;fill:#0000ff;stroke-width:1;stroke-linecap:round;stroke-linejoin:round;stroke-dashoffset:149.514;paint-order:markers stroke fill;enable-background:accumulate;stop-color:#000000"
         d="m 180.18573,15.892 h 120.64999 a 7.408333,7.408333 0 0 1 7.40833,7.408333 V 110.58857 H 172.7774 V 23.300333 A 7.408333,7.408333 0 0 1 180.18573,15.892 Z"
         id="path13" />
    </clipPath>
    <filter
       inkscape:collect="always"
       style="color-interpolation-filters:sRGB"
       id="filter13"
       x="-0.017569906"
       y="-0.22184616"
       width="1.0351398"
       height="1.4436923">
      <feGaussianBlur
         inkscape:collect="always"
         stdDeviation="1.0033341"
         id="feGaussianBlur13" />
    </filter>
    <linearGradient
       inkscape:collect="always"
       xlink:href="#linearGradient15"
       id="linearGradient16"
       x1="229.55089"
       y1="15.879948"
       x2="229.55089"
       y2="24.116524"
       gradientUnits="userSpaceOnUse" />
    <linearGradient
       inkscape:collect="always"
       xlink:href="#linearGradient17"
       id="linearGradient18"
       x1="19.377331"
       y1="125.42147"
       x2="19.377331"
       y2="150.10396"
       gradientUnits="userSpaceOnUse"
       gradientTransform="matrix(0.51078081,0,0,0.31755978,16.176902,61.035471)" />
    <linearGradient
       inkscape:collect="always"
       xlink:href="#linearGradient17"
       id="linearGradient19"
       gradientUnits="userSpaceOnUse"
       gradientTransform="matrix(0.51078081,0,0,0.31755978,26.760236,61.035471)"
       x1="19.377331"
       y1="125.42147"
       x2="19.377331"
       y2="150.10396" />
    <linearGradient
       inkscape:collect="always"
       xlink:href="#linearGradient17"
       id="linearGradient20"
       gradientUnits="userSpaceOnUse"
       gradientTransform="matrix(0.51078081,0,0,0.31755978,37.34357,61.035471)"
       x1="19.377331"
       y1="125.42147"
       x2="19.377331"
       y2="150.10396" />
    <linearGradient
       inkscape:collect="always"
       xlink:href="#linearGradient17"
       id="linearGradient21"
       gradientUnits="userSpaceOnUse"
       gradientTransform="matrix(0.51078081,0,0,0.31755978,47.926904,61.035471)"
       x1="19.377331"
       y1="125.42147"
       x2="19.377331"
       y2="150.10396" />
    <linearGradient
       inkscape:collect="always"
       xlink:href="#linearGradient17"
       id="linearGradient22"
       gradientUnits="userSpaceOnUse"
       gradientTransform="matrix(0.51078081,0,0,0.31755978,58.510238,61.035471)"
       x1="19.377331"
       y1="125.42147"
       x2="19.377331"
       y2="150.10396" />
    <linearGradient
       inkscape:collect="always"
       xlink:href="#linearGradient17"
       id="linearGradient23"
       gradientUnits="userSpaceOnUse"
       gradientTransform="matrix(0.51078081,0,0,0.31755978,69.093572,61.035471)"
       x1="19.377331"
       y1="125.42147"
       x2="19.377331"
       y2="150.10396" />
    <linearGradient
       inkscape:collect="always"
       xlink:href="#linearGradient17"
       id="linearGradient24"
       gradientUnits="userSpaceOnUse"
       gradientTransform="matrix(0.51078081,0,0,0.31755978,79.676906,61.035471)"
       x1="19.377331"
       y1="125.42147"
       x2="19.377331"
       y2="150.10396" />
    <linearGradient
       inkscape:collect="always"
       xlink:href="#linearGradient25"
       id="linearGradient26"
       x1="29.301128"
       y1="32.431637"
       x2="117.95035"
       y2="88.092796"
       gradientUnits="userSpaceOnUse" />
    <linearGradient
       inkscape:collect="always"
       xlink:href="#linearGradient28"
       id="linearGradient29"
       x1="198.63197"
       y1="12.072174"
       x2="198.63197"
       y2="44.302505"
       gradientUnits="userSpaceOnUse"
       gradientTransform="translate(-130.89847,20.359506)" />
    <filter
       inkscape:collect="always"
       style="color-interpolation-filters:sRGB"
       id="filter29"
       x="-0.0027650272"
       y="-0.0098713894"
       width="1.0055301"
       height="1.0197428">
      <feGaussianBlur
         inkscape:collect="always"
         stdDeviation="0.11210746"
         id="feGaussianBlur29" />
    </filter>
  </defs>
  <g
     inkscape:label="Layer 1"
     inkscape:groupmode="layer"
     id="layer1">
    <path
       d="m 110.68786,63.913873 c -3.80579,0.784571 -6.87443,3.939745 -10.909718,3.812541 -2.013347,0.288876 -3.804015,2.160821 -3.958656,4.193252 0.52044,2.051326 3.131755,0.481182 4.477834,0.347924 2.82587,-0.507892 6.07415,-0.497779 8.21252,-2.721418 1.608,-0.606859 1.2535,-3.978902 3.52391,-2.74271 0.90192,-1.50646 0.96621,-3.937142 3.11962,-4.249945 1.13125,-0.671813 1.6816,-2.138476 2.0648,-3.377322 0.85741,-3.298637 -0.0858,-6.675775 -0.4675,-9.960992 0.16054,-2.217727 -1.98168,-3.487032 -3.75844,-4.223929 -2.05209,-0.570117 -2.71744,-2.594427 -2.48705,-4.419141 -0.89558,-1.992829 0.794,-3.840444 2.51519,-4.601938 1.32411,-0.767617 3.50924,-1.235525 3.04782,-3.224114 0.0216,-2.570359 -2.61868,-4.08084 -4.92244,-4.145295 -2.06198,-0.260522 -4.03127,0.726637 -6.0937,0.398948 -2.24523,-0.0737 -4.6687,-0.67982 -6.773106,0.369414 -1.16445,0.619872 -1.49828,3.288796 0.338322,2.046698 3.435284,-0.703667 6.853274,0.499245 10.274464,0.658499 2.31137,0.378424 1.26116,3.203668 0.40742,4.502875 -1.01028,1.67139 -2.1494,3.380479 -3.87113,4.374199 -1.26371,0.911168 -4.91184,3.211712 -4.38429,4.64056 0.20894,0.5659 3.64779,0.631759 4.23672,0.972445 1.77771,0.95908 3.98965,-0.138326 5.65032,1.284818 2.49184,1.588531 4.28004,4.552993 4.11834,7.537588 l -3.38403,5.588675 c 0.43323,1.11971 -1.19879,1.743217 -0.97722,2.93837 z m 3.53408,-4.161087 c 1.56556,-0.782231 1.66903,1.480214 0.23406,1.350951 -0.41983,-0.295177 -0.27011,-0.924909 -0.23406,-1.350951 z"
       id="text29"
       style="font-size:57.0012px;line-height:1.25;font-family:'1942 report';-inkscape-font-specification:'1942 report, Normal';display:none;fill:#ffcc00;stroke-width:0.264583"
       aria-label="3"
       sodipodi:nodetypes="scccccccccccccccccccsccccssccc" />
    <path
       id="rect1"
       style="fill:#1a1a1a;stroke-width:0.264583;stroke-linecap:round;stroke-linejoin:round;stroke-dashoffset:149.514;paint-order:markers stroke fill;fill-opacity:1"
       d="M 7.4083357,20.385099 H 128.05833 a 7.408333,7.408333 45 0 1 7.40833,7.408333 V 115.08167 H 2.6824464e-6 V 27.793432 A 7.408333,7.408333 135 0 1 7.4083357,20.385099 Z" />
    <path
       id="path11"
       clip-path="url(#clipPath12)"
       style="baseline-shift:baseline;display:inline;overflow:visible;vector-effect:none;stroke-linecap:round;stroke-linejoin:round;stroke-dashoffset:149.514;paint-order:markers stroke fill;filter:url(#filter13);enable-background:accumulate;stop-color:#000000;fill:url(#linearGradient16)"
       d="m 180.18538,15.097786 c -4.52049,2e-6 -8.20105,3.682635 -8.20105,8.203117 v 2.647901 c 0.52306,0.01056 1.05196,-0.01123 1.58595,0 v -2.647897 c 0,-3.662534 2.95256,-6.615099 6.6151,-6.6151 H 300.8359 c 3.66253,1e-6 6.6151,2.952566 6.6151,6.6151 v 2.647897 c 0.51255,0.012 1.04021,-0.01303 1.58595,0 v -2.647901 c 0,-4.520482 -3.68057,-8.203115 -8.20105,-8.203117 z"
       sodipodi:nodetypes="csccssssccssc"
       transform="translate(-172.77739,4.493099)" />
    <text
       xml:space="preserve"
       style="font-style:normal;font-variant:normal;font-weight:normal;font-stretch:normal;font-size:16.5051px;line-height:1.25;font-family:'Capture it';-inkscape-font-specification:'Capture it, Normal';font-variant-ligatures:normal;font-variant-caps:normal;font-variant-numeric:normal;font-variant-east-asian:normal;display:none;fill:#ffcc00;fill-opacity:1;stroke:none;stroke-width:0.264583"
       x="19.603148"
       y="49.700699"
       id="text28"><tspan
         sodipodi:role="line"
         id="tspan28"
         style="font-style:normal;font-variant:normal;font-weight:normal;font-stretch:normal;font-size:16.5051px;font-family:'Capture it';-inkscape-font-specification:'Capture it, Normal';font-variant-ligatures:normal;font-variant-caps:normal;font-variant-numeric:normal;font-variant-east-asian:normal;fill:#ffcc00;stroke-width:0.264583"
         x="0"
         y="0">SPEDIDIOT</tspan></text>
    <text
       xml:space="preserve"
       style="font-style:normal;font-variant:normal;font-weight:normal;font-stretch:normal;font-size:47.5928px;line-height:1.25;font-family:'28 Days Later';-inkscape-font-specification:'28 Days Later, Normal';font-variant-ligatures:normal;font-variant-caps:normal;font-variant-numeric:normal;font-variant-east-asian:normal;display:none;fill:#ffcc00;fill-opacity:1;stroke:none;stroke-width:0.264583"
       x="94.658234"
       y="66.898781"
       id="text30"><tspan
         sodipodi:role="line"
         id="tspan29"
         style="font-style:normal;font-variant:normal;font-weight:normal;font-stretch:normal;font-size:47.5928px;font-family:'28 Days Later';-inkscape-font-specification:'28 Days Later, Normal';font-variant-ligatures:normal;font-variant-caps:normal;font-variant-numeric:normal;font-variant-east-asian:normal;fill:#ffcc00;stroke-width:0.264583"
         x="0"
         y="0">3</tspan></text>
    <text
       xml:space="preserve"
       style="font-style:normal;font-variant:normal;font-weight:normal;font-stretch:normal;font-size:1.95099px;line-height:1.25;font-family:'SEGA LOGO FONT';-inkscape-font-specification:'SEGA LOGO FONT, Normal';font-variant-ligatures:normal;font-variant-caps:normal;font-variant-numeric:normal;font-variant-east-asian:normal;display:none;fill:#4e2356;fill-opacity:1;stroke:none;stroke-width:0.264583"
       x="64.698563"
       y="84.076088"
       id="text5"
       sodipodi:insensitive="true"><tspan
         sodipodi:role="line"
         id="tspan4"
         style="font-style:normal;font-variant:normal;font-weight:normal;font-stretch:normal;font-size:1.95099px;font-family:'SEGA LOGO FONT';-inkscape-font-specification:'SEGA LOGO FONT, Normal';font-variant-ligatures:normal;font-variant-caps:normal;font-variant-numeric:normal;font-variant-east-asian:normal;fill:#4e2356;fill-opacity:1;stroke-width:0.264583"
         x="0"
         y="0">BEGA</tspan></text>
    <text
       xml:space="preserve"
       style="font-style:normal;font-weight:normal;font-size:5.17179px;line-height:1.25;font-family:sans-serif;display:none;opacity:0.2;mix-blend-mode:overlay;fill:#000000;fill-opacity:1;stroke:none;stroke-width:0.264583"
       x="69.411674"
       y="68.730377"
       id="text6"
       sodipodi:insensitive="true"><tspan
         sodipodi:role="line"
         id="tspan5"
         style="font-style:normal;font-variant:normal;font-weight:normal;font-stretch:normal;font-size:5.17179px;font-family:'1952 RHEINMETALL';-inkscape-font-specification:'1952 RHEINMETALL, Normal';font-variant-ligatures:normal;font-variant-caps:normal;font-variant-numeric:normal;font-variant-east-asian:normal;text-align:center;text-anchor:middle;fill:#ffffff;fill-opacity:1;stroke-width:0.264583"
         x="0"
         y="0">Sonic is the shittiest</tspan><tspan
         sodipodi:role="line"
         style="font-style:normal;font-variant:normal;font-weight:normal;font-stretch:normal;font-size:5.17179px;font-family:'1952 RHEINMETALL';-inkscape-font-specification:'1952 RHEINMETALL, Normal';font-variant-ligatures:normal;font-variant-caps:normal;font-variant-numeric:normal;font-variant-east-asian:normal;text-align:center;text-anchor:middle;fill:#ffffff;fill-opacity:1;stroke-width:0.264583"
         x="0"
         y="0"
         id="tspan6">franchise</tspan></text>
    <path
       id="path2"
       style="opacity:0.08;fill:#ffffff;fill-opacity:1;fill-rule:nonzero;stroke:none;stroke-width:0.264583px;stroke-linecap:butt;stroke-linejoin:miter;stroke-opacity:1;filter:url(#filter8)"
       d="m -32.922782,108.48326 c -0.688961,-0.047 -1.223792,0.3031 -1.223698,-0.38746 0,-14.282556 0.254765,-59.898333 0.254765,-74.180892 0,14.282559 2.371431,57.130254 2.371431,71.412812 1.11e-4,0.76046 -0.643808,3.20737 -1.402498,3.15554 z m 126.999999,0 c -0.688757,-0.0472 -1.223294,-2.46517 -1.223181,-3.15554 0,-14.282558 2.370914,-57.130253 2.370914,-71.412812 0,14.282559 0.254765,59.898336 0.254765,74.180892 1.11e-4,0.76046 -0.643808,0.43929 -1.402498,0.38746 z"
       transform="matrix(1,0,0,-1.1470037,37.112707,152.37215)"
       sodipodi:nodetypes="cccccccccc" />
    <path
       id="rect2"
       style="display:inline;opacity:0.68;fill:url(#linearGradient26);fill-opacity:1;stroke-width:1.05833332;stroke-linecap:round;stroke-linejoin:round;stroke-miterlimit:12;paint-order:markers stroke fill;stroke:#000000;stroke-opacity:1;stroke-dasharray:none"
       d="m 19.632979,32.431637 h 96.200701 c 1.169,-2e-6 2.11667,0.947663 2.11667,2.116667 v 48.781991 c 0,2.630256 -2.13225,4.7625 -4.7625,4.7625 H 22.278812 c -2.630256,0 -4.7625,-2.132244 -4.7625,-4.7625 V 34.548304 c 0,-1.169003 0.947664,-2.116667 2.116667,-2.116667 z"
       sodipodi:nodetypes="ccssssssc" />
    <path
       id="path3"
       style="fill:#ffcc00;stroke-width:8.30845;stroke-linecap:round;stroke-linejoin:round;stroke-miterlimit:12;paint-order:markers stroke fill"
       d="m 17.516318,83.3303 c 0,2.63025 2.132241,4.7625 4.7625,4.7625 h 7.022311 V 32.4316 h -9.668144 c -1.16901,0 -2.116667,0.94767 -2.116667,2.11667 z"
       sodipodi:nodetypes="ssccsss" />
    <path
       id="rect3"
       style="fill:#ffaf00;fill-opacity:1;stroke:none;stroke-width:8.30845;stroke-linecap:round;stroke-linejoin:round;stroke-miterlimit:12;paint-order:markers stroke fill"
       d="M 19.63291 32.431612 C 18.902279 32.431612 18.258357 32.80185 17.877978 33.364888 C 17.801903 33.477496 17.736196 33.597939 17.682641 33.724556 C 17.629087 33.851173 17.58733 33.983641 17.559135 34.121431 C 17.559101 34.121595 17.559168 34.121783 17.559135 34.121948 C 17.531005 34.259584 17.516243 34.402329 17.516243 34.548278 L 17.516243 41.867211 L 26.951843 32.431612 L 19.63291 32.431612 z M 29.301054 43.227335 L 17.516243 55.012145 L 17.516243 60.92858 L 17.516243 60.930647 L 17.516243 68.203071 L 17.516243 68.24958 L 26.951843 58.81398 L 26.905334 58.81398 L 29.301054 56.418261 L 29.301054 43.227335 z M 29.301054 69.609704 L 18.281571 80.629186 L 17.516243 81.394514 L 17.516243 83.330313 C 17.516243 85.960563 19.648484 88.092813 22.278743 88.092813 L 24.00887 88.092813 L 29.300537 82.801146 L 29.301054 82.80063 L 29.301054 69.609704 z " />
    <path
       style="font-size:6.81682px;line-height:1.25;font-family:'Copperplate Gothic Bold';-inkscape-font-specification:'Copperplate Gothic Bold, Normal';text-align:center;text-orientation:upright;text-anchor:middle;stroke-width:0.0562768"
       d="m -47.250357,25.466419 q 0.755576,0.282925 0.755576,1.005215 0,0.738933 -0.649063,1.121713 -0.569178,0.336181 -1.424609,0.336181 -0.908687,0 -1.64762,-0.356152 -0.309553,-0.149784 -0.399423,-0.149784 -0.08321,0 -0.22634,0.123156 l -0.09653,-0.04993 0.532564,-1.228226 0.09986,0.04327 q -0.01664,0.03994 -0.01664,0.0699 0,0.17974 0.183069,0.329524 0.236326,0.193054 0.675691,0.319538 0.439365,0.123156 0.882059,0.123156 0.419394,0 0.718962,-0.13647 0.379452,-0.173083 0.379452,-0.542549 0,-0.319539 -0.269611,-0.482637 -0.269611,-0.163097 -0.795518,-0.163097 -0.319538,0 -0.442693,0.0466 -0.119827,0.0466 -0.153113,0.183069 H -49.2508 v -1.115056 h 0.106512 q 0.03994,0.149784 0.146455,0.196383 0.109842,0.04327 0.426052,0.04327 0.492622,0 0.755575,-0.173084 0.229668,-0.146455 0.229668,-0.422722 0,-0.282925 -0.256296,-0.436037 -0.256297,-0.153112 -0.732276,-0.153112 -0.672362,0 -1.181626,0.296239 -0.246311,0.146455 -0.246311,0.306224 0,0.06324 0.04327,0.149784 l -0.08321,0.06657 -0.76556,-0.941973 0.08321,-0.06657 q 0.123155,0.05658 0.183069,0.05658 0.06657,0 0.17974,-0.07656 0.83546,-0.562521 1.867303,-0.562521 0.718961,0 1.211583,0.282925 0.282925,0.163097 0.442694,0.422722 0.163098,0.269611 0.163098,0.602463 0,0.595806 -0.572507,0.931987 z m 2.493066,1.564407 h 2.779319 q 0.103184,0 0.15644,-0.0466 0.05326,-0.0466 0.08654,-0.166426 h 0.106513 v 1.244868 h -0.106513 q -0.03328,-0.119827 -0.08654,-0.166426 -0.05326,-0.0466 -0.15644,-0.0466 h -3.538223 q -0.169755,0 -0.229668,0.03994 -0.05991,0.03994 -0.08987,0.173083 h -0.106513 q -0.0033,-0.166426 -0.0033,-0.213025 0,-0.426052 0.09653,-0.702319 0.196383,-0.559192 0.732276,-0.94863 0.276268,-0.199711 0.90203,-0.485965 l 0.562521,-0.256296 q 0.396095,-0.183069 0.569178,-0.376123 0.176412,-0.196383 0.176412,-0.462666 0,-0.302895 -0.209697,-0.459336 -0.206369,-0.159769 -0.602463,-0.159769 -0.482636,0 -0.898702,0.236325 -0.402752,0.22634 -0.402752,0.465994 0,0.05658 0.05326,0.209697 l -0.07323,0.07656 -0.885388,-0.955287 0.07988,-0.07323 q 0.126484,0.05991 0.186397,0.05991 0.05326,0 0.0932,-0.0233 0.03994,-0.0233 0.163098,-0.133141 0.732275,-0.635748 1.807389,-0.635748 0.772218,0 1.234883,0.379452 0.469322,0.386109 0.469322,1.028514 0,0.63242 -0.449351,1.045157 -0.296238,0.269611 -0.795517,0.492622 l -0.512593,0.229668 q -0.07989,0.03994 -0.362809,0.153112 -0.346167,0.139798 -0.485965,0.229669 -0.139798,0.08654 -0.259625,0.24631 z m 6.540552,-1.547764 1.374681,1.780761 q 0.22634,0.29291 0.322867,0.372795 0.09986,0.07989 0.272939,0.106513 v 0.106513 h -1.800732 v -0.106513 q 0.199712,-0.03994 0.199712,-0.173083 0,-0.0699 -0.119827,-0.22634 l -0.875403,-1.125042 -0.832131,1.088428 q -0.136469,0.176412 -0.136469,0.249639 0,0.166427 0.223011,0.186398 v 0.106513 h -1.744148 v -0.106513 q 0.153113,-0.01664 0.236326,-0.08654 0.08654,-0.0699 0.342838,-0.392766 l 1.371352,-1.730833 -1.261511,-1.650949 q -0.246311,-0.322867 -0.329524,-0.386109 -0.07988,-0.06657 -0.259625,-0.08321 l -0.0033,-0.106513 h 1.824032 v 0.106513 q -0.199712,0.05326 -0.199712,0.20304 0,0.07989 0.143127,0.266282 l 0.712304,0.915345 0.72229,-0.915345 q 0.159769,-0.20304 0.159769,-0.286253 0,-0.146455 -0.229668,-0.183069 v -0.106513 h 1.774104 v 0.106513 q -0.159769,0.01664 -0.229668,0.07323 -0.06657,0.05326 -0.349495,0.396094 z"
       id="text31"
       transform="rotate(-90)"
       aria-label="32X" />
    <path
       style="font-size:6.81682px;line-height:1.25;font-family:'Copperplate Gothic Bold';-inkscape-font-specification:'Copperplate Gothic Bold, Normal';text-align:center;text-orientation:upright;text-anchor:middle;display:inline;fill:#ff0000;stroke-width:0.0562768"
       d="m -46.924131,25.140194 q 0.755575,0.282925 0.755575,1.005215 0,0.738933 -0.649063,1.121713 -0.569177,0.336181 -1.424608,0.336181 -0.908688,0 -1.647621,-0.356152 -0.309552,-0.149784 -0.399423,-0.149784 -0.08321,0 -0.226339,0.123156 l -0.09653,-0.04993 0.532564,-1.228226 0.09986,0.04327 q -0.01664,0.03994 -0.01664,0.0699 0,0.17974 0.183069,0.329524 0.236325,0.193054 0.67569,0.319538 0.439366,0.123156 0.882059,0.123156 0.419395,0 0.718962,-0.13647 0.379452,-0.173083 0.379452,-0.54255 0,-0.319538 -0.269611,-0.482636 -0.26961,-0.163098 -0.795517,-0.163098 -0.319539,0 -0.442694,0.0466 -0.119827,0.0466 -0.153112,0.183069 h -0.106513 v -1.115056 h 0.106513 q 0.03994,0.149783 0.146455,0.196383 0.109841,0.04327 0.426051,0.04327 0.492622,0 0.755575,-0.173084 0.229669,-0.146455 0.229669,-0.422723 0,-0.282924 -0.256297,-0.436036 -0.256296,-0.153113 -0.732276,-0.153113 -0.672362,0 -1.181626,0.296239 -0.246311,0.146455 -0.246311,0.306225 0,0.06324 0.04327,0.149783 l -0.08321,0.06657 -0.765561,-0.941973 0.08321,-0.06657 q 0.123155,0.05658 0.183069,0.05658 0.06657,0 0.17974,-0.07656 0.83546,-0.56252 1.867303,-0.56252 0.718962,0 1.211583,0.282924 0.282925,0.163098 0.442694,0.422723 0.163098,0.269611 0.163098,0.602463 0,0.595806 -0.572506,0.931987 z m 2.493065,1.564407 h 2.779319 q 0.103184,0 0.156441,-0.0466 0.05326,-0.0466 0.08654,-0.166426 h 0.106513 v 1.244868 h -0.106513 q -0.03328,-0.119827 -0.08654,-0.166426 -0.05326,-0.0466 -0.156441,-0.0466 h -3.538223 q -0.169755,0 -0.229668,0.03994 -0.05991,0.03994 -0.08987,0.173083 h -0.106513 q -0.0033,-0.166426 -0.0033,-0.213026 0,-0.426051 0.09653,-0.702318 0.196383,-0.559193 0.732275,-0.94863 0.276268,-0.199712 0.902031,-0.485965 l 0.562521,-0.256296 q 0.396094,-0.183069 0.569177,-0.376124 0.176412,-0.196383 0.176412,-0.462665 0,-0.302896 -0.209697,-0.459336 -0.206368,-0.15977 -0.602463,-0.15977 -0.482636,0 -0.898702,0.236326 -0.402751,0.22634 -0.402751,0.465993 0,0.05659 0.05326,0.209697 l -0.07323,0.07656 -0.885387,-0.955287 0.07988,-0.07323 q 0.126484,0.05991 0.186398,0.05991 0.05326,0 0.0932,-0.0233 0.03994,-0.0233 0.163098,-0.133141 0.732276,-0.635748 1.807389,-0.635748 0.772218,0 1.234883,0.379451 0.469323,0.386109 0.469323,1.028515 0,0.63242 -0.449351,1.045157 -0.296239,0.26961 -0.795518,0.492622 l -0.512593,0.229668 q -0.07988,0.03994 -0.362809,0.153112 -0.346167,0.139798 -0.485965,0.229668 -0.139798,0.08654 -0.259625,0.246311 z m 6.540553,-1.547764 1.374681,1.780761 q 0.226339,0.29291 0.322867,0.372795 0.09985,0.07988 0.272939,0.106513 v 0.106512 h -1.800733 v -0.106512 q 0.199712,-0.03994 0.199712,-0.173084 0,-0.0699 -0.119827,-0.226339 l -0.875402,-1.125042 -0.832132,1.088428 q -0.136469,0.176412 -0.136469,0.249639 0,0.166426 0.223011,0.186398 v 0.106512 h -1.744147 v -0.106512 q 0.153112,-0.01664 0.236325,-0.08654 0.08654,-0.0699 0.342838,-0.392766 l 1.371353,-1.730833 -1.261512,-1.650949 q -0.24631,-0.322867 -0.329524,-0.386109 -0.07988,-0.06657 -0.259625,-0.08321 l -0.0033,-0.106513 h 1.824032 v 0.106513 q -0.199712,0.05326 -0.199712,0.20304 0,0.07989 0.143127,0.266282 l 0.712304,0.915345 0.72229,-0.915345 q 0.15977,-0.20304 0.15977,-0.286253 0,-0.146455 -0.229669,-0.183069 v -0.106513 h 1.774104 v 0.106513 q -0.159769,0.01664 -0.229668,0.07323 -0.06657,0.05326 -0.349495,0.396094 z"
       id="text7"
       transform="rotate(-90)"
       aria-label="32X" />
    <path
       d="m 41.782592,61.608982 q 0.872294,0 1.469126,-0.229551 0.596833,-0.252506 0.964115,-0.688653 0.390236,-0.436147 0.550922,-1.032979 0.183641,-0.596833 0.183641,-1.285486 v -9.939558 q 0,-0.688653 -0.183641,-1.285485 -0.160686,-0.596833 -0.550922,-1.03298 -0.367282,-0.436147 -0.98707,-0.665698 -0.596832,-0.252506 -1.469126,-0.252506 h -9.13613 v -3.053028 h 8.837714 q 1.675722,0 2.869387,0.367282 1.21662,0.367281 1.997094,1.193665 0.780473,0.826383 1.147755,2.157779 0.367281,1.308441 0.367281,3.213714 v 8.654072 q 0,1.836408 -0.367281,3.167804 -0.367282,1.308441 -1.147755,2.157779 -0.780474,0.826384 -1.997094,1.216621 -1.193665,0.390236 -2.869387,0.390236 H 32.623507 V 49.810061 H 35.51585 V 61.608982 Z M 32.623507,49.075498 V 46.02247 h 8.837714 q 0.803428,0 1.30844,0.229551 0.527968,0.206596 0.826384,0.596832 0.298416,0.390237 0.413192,0.918204 0.114775,0.527968 0.114775,1.1248 v 9.021354 q 0,0.803429 -0.114775,1.354351 -0.114776,0.527967 -0.413192,0.872294 -0.275461,0.344326 -0.803429,0.505012 -0.505012,0.13773 -1.30844,0.13773 H 36.342234 V 49.810061 h 3.213713 v 7.322677 q 0,0.596832 0.573878,0.596832 h 0.505012 q 0.275461,0 0.436147,-0.160685 0.183641,-0.160686 0.183641,-0.436147 V 49.67233 q 0,-0.275461 -0.183641,-0.436146 -0.160686,-0.160686 -0.436147,-0.160686 z m 16.09153,0 q 0,-1.446171 0.527968,-2.708702 0.527967,-1.285485 1.400261,-2.203689 0.895249,-0.941159 2.043003,-1.469127 1.170711,-0.550922 2.410286,-0.550922 h 8.699982 v 3.053028 h -8.332701 q -0.872293,0 -1.560946,0.344327 -0.688653,0.344326 -1.17071,0.895249 -0.459102,0.550922 -0.711608,1.26253 -0.252506,0.688653 -0.252506,1.377306 v 8.654072 q 0,0.688653 0.252506,1.400261 0.252506,0.688653 0.711608,1.239576 0.482057,0.550922 1.17071,0.895249 0.688653,0.344326 1.560946,0.344326 h 8.332701 v 3.053028 h -8.699982 q -1.239575,0 -2.410286,-0.527967 -1.147754,-0.550922 -2.043003,-1.469126 -0.872294,-0.941159 -1.400261,-2.20369 -0.527968,-1.285485 -0.527968,-2.731657 z m 3.879412,3.948277 V 49.5346 q 0,-0.596833 0.183641,-1.21662 0.206596,-0.642743 0.596832,-1.147755 0.390237,-0.505013 0.98707,-0.826384 0.596832,-0.321371 1.400261,-0.321371 h 8.034284 v 3.053028 h -7.965419 q -0.137731,0 -0.298416,0.160686 -0.137731,0.160685 -0.137731,0.436146 v 0.321372 h 6.656979 v 3.030073 z m 0,0.757518 h 9.457501 v 3.053028 h -6.656979 v 0.298417 q 0,0.275461 0.137731,0.436147 0.160685,0.160685 0.298416,0.160685 h 7.965419 v 3.053028 h -8.034284 q -0.803429,0 -1.400261,-0.321371 -0.596833,-0.321371 -0.98707,-0.826384 -0.390236,-0.505012 -0.596832,-1.124799 -0.183641,-0.642743 -0.183641,-1.239576 z M 81.494938,64.66201 H 71.165143 q -1.239575,0 -2.410285,-0.527967 -1.147755,-0.550922 -2.043004,-1.469126 -0.872294,-0.941159 -1.400261,-2.20369 -0.527967,-1.285485 -0.527967,-2.731657 v -8.654072 q 0,-1.446171 0.527967,-2.708702 0.527967,-1.285485 1.400261,-2.203689 0.895249,-0.941159 2.043004,-1.469127 1.17071,-0.550922 2.410285,-0.550922 h 10.329795 v 3.053028 h -9.962513 q -0.872294,0 -1.560947,0.344327 -0.688653,0.344326 -1.17071,0.895249 -0.459102,0.550922 -0.711608,1.26253 -0.252506,0.688653 -0.252506,1.377306 v 8.654072 q 0,0.688653 0.252506,1.400261 0.252506,0.688653 0.711608,1.239576 0.482057,0.550922 1.17071,0.895249 0.688653,0.344326 1.560947,0.344326 h 7.391542 v -8.585207 h -6.84062 v -3.030073 h 9.411591 z m -9.595232,-6.93244 h 2.525061 q 0.160686,0 0.229551,-0.13773 0.09182,-0.137731 0.09182,-0.298417 0,-0.18364 -0.09182,-0.321371 -0.06887,-0.137731 -0.229551,-0.137731 h -2.34142 v -3.053028 h 6.037191 v 7.001305 h -6.289697 q -0.803428,0 -1.400261,-0.321371 -0.596833,-0.321371 -0.987069,-0.826384 -0.390237,-0.505012 -0.596833,-1.124799 -0.183641,-0.642743 -0.183641,-1.239576 V 49.5346 q 0,-0.596833 0.183641,-1.21662 0.206596,-0.642743 0.596833,-1.147755 0.390236,-0.505013 0.987069,-0.826384 0.596833,-0.321371 1.400261,-0.321371 h 9.664097 v 3.053028 h -9.595232 q -0.13773,0 -0.298416,0.160686 -0.137731,0.160685 -0.137731,0.436146 v 7.460408 q 0,0.275461 0.137731,0.436147 0.160686,0.160685 0.298416,0.160685 z m 17.583591,4.246694 h 9.526366 L 93.179068,45.792919 q -0.06887,-0.229551 -0.413192,-0.413192 -0.344326,-0.183641 -0.665698,-0.183641 -0.367281,0 -0.688653,0.183641 -0.298416,0.183641 -0.367281,0.413192 L 84.41022,64.66201 h -3.053028 l 7.093125,-20.016846 q 0.160686,-0.482057 0.459102,-0.918204 0.298417,-0.459102 0.734564,-0.803429 0.459102,-0.367281 1.055934,-0.573877 0.619788,-0.206596 1.400261,-0.206596 0.780473,0 1.377306,0.206596 0.596833,0.206596 1.03298,0.573877 0.459102,0.344327 0.757518,0.803429 0.298416,0.436147 0.482057,0.918204 L 102.84316,64.66201 H 89.483297 Z m 0,-0.826384 V 60.277586 L 88.01417,64.66201 h -2.777567 l 6.312653,-18.295214 q 0.04591,-0.13773 0.206596,-0.229551 0.18364,-0.114775 0.344326,-0.114775 0.160686,0 0.344327,0.114775 0.18364,0.09182 0.229551,0.229551 l 5.233762,14.783084 z m 2.616881,-8.516342 -1.836408,5.784685 h 3.741681 z"
       id="text8"
       style="font-size:22.9551px;line-height:1.25;font-family:'SEGA LOGO FONT';-inkscape-font-specification:'SEGA LOGO FONT, Normal';text-align:center;text-orientation:upright;text-anchor:middle;fill:#ffffff;stroke-width:0.189507"
       aria-label="DEGA" />
    <path
       style="font-size:8.52652px;line-height:1.25;font-family:Impact;-inkscape-font-specification:'Impact, Normal';text-align:center;text-orientation:upright;text-anchor:middle;fill:#ffffff;stroke-width:0.123618"
       d="m 52.726578,76.262076 h -1.627866 v -0.499601 q 0,-0.349721 -0.06245,-0.445477 -0.06245,-0.09576 -0.208167,-0.09576 -0.158207,0 -0.241473,0.129063 -0.0791,0.129064 -0.0791,0.391354 0,0.337231 0.09159,0.507928 0.08743,0.170697 0.495437,0.41217 1.169898,0.695278 1.473822,1.140755 0.303924,0.445478 0.303924,1.436353 0,0.720257 -0.170697,1.061651 -0.166533,0.341394 -0.649481,0.574541 -0.482947,0.228984 -1.124102,0.228984 -0.703604,0 -1.203205,-0.266454 -0.495437,-0.266454 -0.649481,-0.678624 -0.154043,-0.412171 -0.154043,-1.169899 v -0.441314 h 1.627865 v 0.820178 q 0,0.378864 0.06661,0.487111 0.07078,0.108247 0.245637,0.108247 0.17486,0 0.258127,-0.13739 0.08743,-0.137391 0.08743,-0.408008 0,-0.595357 -0.16237,-0.778544 -0.166534,-0.183187 -0.820178,-0.612011 -0.653644,-0.432988 -0.865975,-0.628665 -0.21233,-0.195677 -0.353884,-0.541234 -0.13739,-0.345557 -0.13739,-0.882628 0,-0.774381 0.195677,-1.132428 0.199841,-0.358047 0.641155,-0.557888 0.441314,-0.204003 1.065815,-0.204003 0.682787,0 1.161571,0.220657 0.482948,0.220657 0.636991,0.557887 0.158207,0.333067 0.158207,1.136592 z m 4.725391,-2.040037 v 6.740447 h -1.752766 v -2.831071 h -0.524581 v 2.831071 h -1.752766 v -6.740447 h 1.752766 v 2.410574 h 0.524581 v -2.410574 z m 4.43812,0 -1.278145,4.30073 v 2.439717 h -1.623702 v -2.439717 l -1.232349,-4.30073 h 1.611212 q 0.378864,1.96926 0.424661,2.652048 0.145717,-1.078305 0.487111,-2.652048 z m 3.830272,0 v 1.348922 h -1.040835 v 5.391525 H 62.92676 v -5.391525 h -1.036672 v -1.348922 z m 3.930193,0 v 1.348922 h -1.040835 v 5.391525 h -1.752766 v -5.391525 h -1.036672 v -1.348922 z m 4.346526,0 -1.278145,4.30073 v 2.439717 h -1.623703 v -2.439717 l -1.232348,-4.30073 h 1.611212 q 0.378864,1.96926 0.424661,2.652048 0.145717,-1.078305 0.487111,-2.652048 z m 4.01346,2.040037 h -1.627865 v -0.499601 q 0,-0.349721 -0.06245,-0.445477 -0.06245,-0.09576 -0.208166,-0.09576 -0.158207,0 -0.241474,0.129063 -0.0791,0.129064 -0.0791,0.391354 0,0.337231 0.09159,0.507928 0.08743,0.170697 0.495437,0.41217 1.169899,0.695278 1.473823,1.140755 0.303923,0.445478 0.303923,1.436353 0,0.720257 -0.170697,1.061651 -0.166533,0.341394 -0.649481,0.574541 -0.482947,0.228984 -1.124101,0.228984 -0.703605,0 -1.203206,-0.266454 -0.495437,-0.266454 -0.649481,-0.678624 -0.154043,-0.412171 -0.154043,-1.169899 v -0.441314 h 1.627866 v 0.820178 q 0,0.378864 0.06661,0.487111 0.07078,0.108247 0.245637,0.108247 0.17486,0 0.258127,-0.13739 0.08743,-0.137391 0.08743,-0.408008 0,-0.595357 -0.16237,-0.778544 -0.166533,-0.183187 -0.820178,-0.612011 -0.653644,-0.432988 -0.865974,-0.628665 -0.212331,-0.195677 -0.353884,-0.541234 -0.137391,-0.345557 -0.137391,-0.882628 0,-0.774381 0.195677,-1.132428 0.199841,-0.358047 0.641155,-0.557888 0.441314,-0.204003 1.065815,-0.204003 0.682787,0 1.161572,0.220657 0.482947,0.220657 0.636991,0.557887 0.158206,0.333067 0.158206,1.136592 z m 4.429793,-2.040037 -1.278146,4.30073 v 2.439717 h -1.623702 v -2.439717 l -1.232349,-4.30073 h 1.611213 q 0.378864,1.96926 0.42466,2.652048 0.145717,-1.078305 0.487111,-2.652048 z m 4.01346,2.040037 h -1.627866 v -0.499601 q 0,-0.349721 -0.06245,-0.445477 -0.06245,-0.09576 -0.208167,-0.09576 -0.158207,0 -0.241474,0.129063 -0.0791,0.129064 -0.0791,0.391354 0,0.337231 0.09159,0.507928 0.08743,0.170697 0.495438,0.41217 1.169898,0.695278 1.473822,1.140755 0.303924,0.445478 0.303924,1.436353 0,0.720257 -0.170697,1.061651 -0.166534,0.341394 -0.649481,0.574541 -0.482947,0.228984 -1.124102,0.228984 -0.703604,0 -1.203205,-0.266454 Q 82.956588,80.571132 82.802544,80.158962 82.6485,79.746791 82.6485,78.989063 v -0.441314 h 1.627866 v 0.820178 q 0,0.378864 0.06661,0.487111 0.07078,0.108247 0.245637,0.108247 0.17486,0 0.258127,-0.13739 0.08743,-0.137391 0.08743,-0.408008 0,-0.595357 -0.16237,-0.778544 -0.166534,-0.183187 -0.820178,-0.612011 -0.653645,-0.432988 -0.865975,-0.628665 -0.21233,-0.195677 -0.353884,-0.541234 -0.13739,-0.345557 -0.13739,-0.882628 0,-0.774381 0.195677,-1.132428 0.19984,-0.358047 0.641154,-0.557888 0.441314,-0.204003 1.065815,-0.204003 0.682788,0 1.161572,0.220657 0.482948,0.220657 0.636991,0.557887 0.158207,0.333067 0.158207,1.136592 z"
       id="text9"
       aria-label="SHYTTYSYS" />
    <path
       id="rect4"
       style="baseline-shift:baseline;display:inline;overflow:visible;vector-effect:none;fill:#ffffff;stroke-linecap:round;stroke-linejoin:round;stroke-miterlimit:12;paint-order:markers stroke fill;enable-background:accumulate;stop-color:#000000;stop-opacity:1;opacity:0.29508197;filter:url(#filter5)"
       d="M 0.55397135 24.981937 A 7.408333 7.408333 0 0 0 0.078548176 26.716198 C 0.78873394 27.852584 2.0511574 28.609623 3.4881591 28.609623 L 131.97851 28.609623 C 133.41543 28.609623 134.67791 27.852489 135.38812 26.716198 A 7.408333 7.408333 0 0 0 134.91269 24.982454 C 134.72472 26.442726 133.49455 27.550773 131.97851 27.550773 L 3.4881591 27.550773 C 1.9720232 27.550773 0.74183465 26.442332 0.55397135 24.981937 z "
       clip-path="url(#clipPath4)" />
    <path
       id="path6"
       style="baseline-shift:baseline;display:inline;overflow:visible;vector-effect:none;enable-background:accumulate;stop-color:#000000;stop-opacity:1;opacity:0.48"
       d="M 0.1984375 33.916276 C 0.12001328 33.91397 0.053122086 33.91491 0 33.917309 L 0 34.711576 C 0.052196267 34.702959 0.36531015 34.663845 0.92759195 34.845935 C 1.5459567 35.046192 2.4225776 35.521161 3.3966919 36.671663 C 3.4183989 36.697303 3.6011864 37.059569 3.7635945 37.593571 C 3.9260026 38.127573 4.1094838 38.857388 4.3087809 39.750028 C 4.7073753 41.535307 5.167303 43.972231 5.6580525 46.845719 C 6.6395516 52.592695 7.7451629 60.088067 8.7462361 67.662019 C 9.7473092 75.235972 10.643623 82.889703 11.207068 88.951159 C 11.488791 91.981887 11.688777 94.614686 11.775508 96.636477 C 11.862238 98.658267 11.813061 100.11811 11.685591 100.59386 C 11.089762 102.81752 8.1124293 105.21863 5.2441243 106.97073 C 2.9773255 108.3554 0.80952797 109.36184 0 109.72302 L 0 110.5886 C 0.28334549 110.4674 2.894989 109.33602 5.6580525 107.64821 C 8.5847044 105.86047 11.731216 103.49269 12.452987 100.79901 C 12.654912 100.04541 12.655911 98.647453 12.568225 96.603405 C 12.480545 94.559356 12.280698 91.917511 11.998234 88.878812 C 11.433302 82.801415 10.535376 75.140447 9.5332681 67.558666 C 8.5311603 59.976885 7.4255911 52.475255 6.4414672 46.71291 C 5.9494053 43.831737 5.4876863 41.386356 5.0839273 39.577945 C 4.8820478 38.673739 4.6955086 37.929524 4.5232381 37.363094 C 4.3509676 36.796665 4.234041 36.432266 4.0018229 36.157999 C 2.9445392 34.909268 1.9340804 34.336699 1.1720215 34.089908 C 0.77458912 33.9612 0.43371016 33.923193 0.1984375 33.916276 z M 135.26823 33.916276 C 135.03295 33.923193 134.69208 33.9612 134.29464 34.089908 C 133.53258 34.336699 132.52213 34.909268 131.46484 36.157999 C 131.23262 36.432266 131.1157 36.796665 130.94343 37.363094 C 130.77116 37.929524 130.58462 38.673739 130.38274 39.577945 C 129.97898 41.386356 129.51726 43.831737 129.0252 46.71291 C 128.04107 52.475255 126.93551 59.976885 125.9334 67.558666 C 124.93129 75.140447 124.03336 82.801448 123.46843 88.878812 C 123.18597 91.917511 122.98614 94.559356 122.89844 96.603405 C 122.81075 98.647453 122.81175 100.04541 123.01368 100.79901 C 123.73545 103.49269 126.88196 105.86047 129.80861 107.64821 C 132.57168 109.33602 135.18332 110.4674 135.46666 110.5886 L 135.46666 109.72302 C 134.65714 109.36184 132.48934 108.3554 130.22254 106.97073 C 127.35424 105.21863 124.3769 102.81752 123.78107 100.59386 C 123.65357 100.11811 123.60446 98.658267 123.69116 96.636477 C 123.77789 94.614686 123.97787 91.981887 124.2596 88.951159 C 124.82304 82.889703 125.71936 75.235972 126.72043 67.662019 C 127.7215 60.088067 128.82711 52.592695 129.80861 46.845719 C 130.29936 43.972231 130.75929 41.535307 131.15788 39.750028 C 131.35718 38.857388 131.54066 38.127573 131.70307 37.593571 C 131.86548 37.059569 132.04827 36.697303 132.06997 36.671663 C 133.04409 35.521161 133.92071 35.046192 134.53907 34.845935 C 135.10135 34.663846 135.41446 34.702976 135.46666 34.711576 L 135.46666 33.917309 C 135.41354 33.914909 135.34663 33.913976 135.26823 33.916276 z " />
    <path
       style="display:none;fill:none;stroke:#ff0000;stroke-width:0.79375;stroke-linecap:butt;stroke-linejoin:miter;stroke-dasharray:none;stroke-opacity:1"
       d="m -15.951831,34.320988 c 0,0 1.745149,-0.30552 3.776547,2.093713 2.031398,2.399234 9.6872232,59.363871 8.3696222,64.281229 -1.3176,4.91735 -12.2487142,9.53835 -12.2487142,9.53835"
       id="path7"
       sodipodi:nodetypes="czzc"
       sodipodi:insensitive="true" />
    <path
       style="baseline-shift:baseline;display:inline;overflow:visible;vector-effect:none;enable-background:accumulate;stop-color:#000000;stop-opacity:1;opacity:0.48;fill:url(#linearGradient2)"
       d="m 11.302734,20.373047 -0.792968,0.02344 c 0,0 0.527322,17.125178 1.382812,34.623047 0.427745,8.748935 0.935996,17.590758 1.503906,24.4375 0.283955,3.423371 0.583264,6.348414 0.894532,8.519531 0.155633,1.085559 0.313729,1.980827 0.478515,2.666016 0.164787,0.685189 0.29062,1.14054 0.576172,1.462891 0.451358,0.509523 1.271668,0.844613 2.457031,1.208984 1.185364,0.364371 2.73015,0.713766 4.560547,1.048828 3.660794,0.670125 8.460221,1.282088 13.722656,1.800781 10.524872,1.037387 22.893888,1.703126 31.646485,1.703125 8.752596,0 21.123564,-0.665738 31.648437,-1.703125 5.262441,-0.518693 10.061861,-1.130656 13.722661,-1.800781 1.83039,-0.335062 3.37518,-0.684457 4.56054,-1.048828 1.18537,-0.364371 2.00568,-0.699461 2.45703,-1.208984 0.28556,-0.322351 0.41139,-0.777702 0.57618,-1.462891 0.16478,-0.685189 0.32288,-1.580457 0.47851,-2.666016 0.31127,-2.171117 0.61058,-5.09616 0.89453,-8.519531 0.56791,-6.846742 1.07616,-15.688565 1.50391,-24.4375 0.85549,-17.497869 1.38281,-34.623047 1.38281,-34.623047 l -0.79297,-0.02344 c 0,0 -0.52778,17.118911 -1.38281,34.607422 -0.42752,8.744255 -0.93546,17.582478 -1.50195,24.412109 -0.28325,3.414816 -0.58152,6.328264 -0.88867,8.470703 -0.15358,1.07122 -0.30994,1.949622 -0.46485,2.59375 -0.15491,0.644128 -0.35535,1.072458 -0.39844,1.121094 -0.20591,0.232451 -0.95975,0.629334 -2.0957,0.978516 -1.13595,0.349181 -2.65873,0.6937 -4.4707,1.02539 -3.62396,0.663381 -8.40951,1.273677 -13.658206,1.791016 -10.497395,1.034678 -22.858016,1.699219 -31.570312,1.699219 -8.712297,0 -21.072919,-0.664541 -31.570313,-1.699219 -5.248697,-0.517339 -10.032295,-1.127635 -13.65625,-1.791016 -1.811977,-0.33169 -3.334754,-0.676209 -4.470703,-1.02539 -1.135949,-0.349182 -1.889787,-0.746065 -2.095703,-0.978516 -0.04308,-0.04864 -0.243526,-0.476966 -0.398437,-1.121094 -0.154912,-0.644128 -0.311266,-1.52253 -0.464844,-2.59375 C 14.769016,85.720842 14.470745,82.807394 14.1875,79.392578 13.621009,72.562947 13.11111,63.724724 12.683594,54.980469 11.828561,37.491958 11.302734,20.373047 11.302734,20.373047 Z"
       id="path10" />
    <path
       id="path26"
       style="display:inline;opacity:0.28;fill:url(#linearGradient29);fill-opacity:1;stroke:none;stroke-width:1.05833;stroke-linecap:round;stroke-linejoin:round;stroke-miterlimit:12;stroke-dasharray:none;stroke-opacity:1;paint-order:markers stroke fill;filter:url(#filter29)"
       d="m 115.30469,34.015625 c -31.95717,0.01318 -63.918054,-0.02256 -95.873049,0.03906 -0.655218,0.522947 -0.207538,1.505739 -0.328125,2.223828 v 24.97539 c 20.826598,-6.278774 42.673198,-8.801669 64.38896,-8.529968 11.007063,0.168034 22.004844,1.107618 32.870804,2.877624 -0.0182,-7.105519 0.0647,-14.226592 -0.0684,-21.322265 -0.22217,-0.289422 -0.65894,-0.307652 -0.99023,-0.263672 z"
       sodipodi:nodetypes="ccccccccc"
       sodipodi:insensitive="true" />
    <g
       id="g24"
       transform="translate(9.9088653,3.7041668)">
      <rect
         style="opacity:0.48;fill:url(#linearGradient18);stroke:none;stroke-width:0.426237;stroke-linecap:round;stroke-linejoin:round;stroke-miterlimit:12;stroke-dasharray:none;stroke-opacity:1;paint-order:markers stroke fill"
         id="rect16"
         width="1.9012156"
         height="7.8381653"
         x="25.123863"
         y="100.86428" />
      <rect
         style="opacity:0.48;fill:url(#linearGradient19);stroke:none;stroke-width:0.426237;stroke-linecap:round;stroke-linejoin:round;stroke-miterlimit:12;stroke-dasharray:none;stroke-opacity:1;paint-order:markers stroke fill"
         id="rect18"
         width="1.9012156"
         height="7.8381653"
         x="35.707195"
         y="100.86428" />
      <rect
         style="opacity:0.48;fill:url(#linearGradient20);stroke:none;stroke-width:0.426237;stroke-linecap:round;stroke-linejoin:round;stroke-miterlimit:12;stroke-dasharray:none;stroke-opacity:1;paint-order:markers stroke fill"
         id="rect19"
         width="1.9012156"
         height="7.8381653"
         x="46.290531"
         y="100.86428" />
      <rect
         style="opacity:0.48;fill:url(#linearGradient21);stroke:none;stroke-width:0.426237;stroke-linecap:round;stroke-linejoin:round;stroke-miterlimit:12;stroke-dasharray:none;stroke-opacity:1;paint-order:markers stroke fill"
         id="rect20"
         width="1.9012156"
         height="7.8381653"
         x="56.873867"
         y="100.86428" />
      <rect
         style="opacity:0.48;fill:url(#linearGradient22);stroke:none;stroke-width:0.426237;stroke-linecap:round;stroke-linejoin:round;stroke-miterlimit:12;stroke-dasharray:none;stroke-opacity:1;paint-order:markers stroke fill"
         id="rect21"
         width="1.9012156"
         height="7.8381653"
         x="67.457199"
         y="100.86428" />
      <rect
         style="opacity:0.48;fill:url(#linearGradient23);stroke:none;stroke-width:0.426237;stroke-linecap:round;stroke-linejoin:round;stroke-miterlimit:12;stroke-dasharray:none;stroke-opacity:1;paint-order:markers stroke fill"
         id="rect22"
         width="1.9012156"
         height="7.8381653"
         x="78.040527"
         y="100.86428" />
      <rect
         style="opacity:0.48;fill:url(#linearGradient24);stroke:none;stroke-width:0.426237;stroke-linecap:round;stroke-linejoin:round;stroke-miterlimit:12;stroke-dasharray:none;stroke-opacity:1;paint-order:markers stroke fill"
         id="rect23"
         width="1.9012156"
         height="7.8381653"
         x="88.623856"
         y="100.86428" />
    </g>
    <text
       xml:space="preserve"
       style="font-style:normal;font-variant:normal;font-weight:normal;font-stretch:normal;font-size:22.9551px;line-height:1.25;font-family:'SEGA LOGO FONT';-inkscape-font-specification:'SEGA LOGO FONT, Normal';font-variant-ligatures:normal;font-variant-caps:normal;font-variant-numeric:normal;font-variant-east-asian:normal;text-align:center;text-orientation:upright;text-anchor:middle;display:none;fill:#ffffff;stroke-width:0.189507"
       x="67.331619"
       y="64.66201"
       id="text1"
       sodipodi:insensitive="true"><tspan
         sodipodi:role="line"
         id="tspan1"
         style="font-style:normal;font-variant:normal;font-weight:normal;font-stretch:normal;font-size:22.9551px;font-family:'SEGA LOGO FONT';-inkscape-font-specification:'SEGA LOGO FONT, Normal';font-variant-ligatures:normal;font-variant-caps:normal;font-variant-numeric:normal;font-variant-east-asian:normal;fill:#ffffff;stroke-width:0.189507"
         x="0"
         y="0">DEGA</tspan></text>
    <text
       xml:space="preserve"
       style="font-style:normal;font-variant:normal;font-weight:normal;font-stretch:normal;font-size:8.52652px;line-height:1.25;font-family:Impact;-inkscape-font-specification:'Impact, Normal';font-variant-ligatures:normal;font-variant-caps:normal;font-variant-numeric:normal;font-variant-east-asian:normal;text-align:center;text-orientation:upright;text-anchor:middle;display:none;stroke-width:0.123618"
       x="67.731255"
       y="80.962486"
       id="text2"
       sodipodi:insensitive="true"><tspan
         sodipodi:role="line"
         id="tspan2"
         style="font-style:normal;font-variant:normal;font-weight:normal;font-stretch:normal;font-size:8.52652px;font-family:Impact;-inkscape-font-specification:'Impact, Normal';font-variant-ligatures:normal;font-variant-caps:normal;font-variant-numeric:normal;font-variant-east-asian:normal;fill:#ffffff;stroke-width:0.123618"
         x="0"
         y="0">SHYTTYSYS</tspan></text>
  </g>
</svg>
