<?xml version="1.0" encoding="UTF-8" standalone="no"?>
<!-- Created with Inkscape (http://www.inkscape.org/) -->

<svg
   width="512"
   height="512"
   viewBox="0 0 135.46666 135.46667"
   version="1.1"
   id="svg5"
   inkscape:version="1.3.2 (091e20ef0f, 2023-11-25, custom)"
   sodipodi:docname="application-x-sms-rom.svg"
   xml:space="preserve"
   xmlns:inkscape="http://www.inkscape.org/namespaces/inkscape"
   xmlns:sodipodi="http://sodipodi.sourceforge.net/DTD/sodipodi-0.dtd"
   xmlns:xlink="http://www.w3.org/1999/xlink"
   xmlns="http://www.w3.org/2000/svg"
   xmlns:svg="http://www.w3.org/2000/svg"><sodipodi:namedview
     id="namedview7"
     pagecolor="#242424"
     bordercolor="#666666"
     borderopacity="1"
     inkscape:showpageshadow="0"
     inkscape:pageopacity="0"
     inkscape:pagecheckerboard="1"
     inkscape:deskcolor="#000000"
     inkscape:document-units="px"
     showgrid="false"
     inkscape:zoom="2"
     inkscape:cx="296.75"
     inkscape:cy="208.5"
     inkscape:window-width="3256"
     inkscape:window-height="1080"
     inkscape:window-x="1864"
     inkscape:window-y="0"
     inkscape:window-maximized="0"
     inkscape:current-layer="layer1" /><defs
     id="defs2"><linearGradient
       id="linearGradient9"
       inkscape:collect="always"><stop
         style="stop-color:#ffffff;stop-opacity:1;"
         offset="0"
         id="stop9" /><stop
         style="stop-color:#ffffff;stop-opacity:0;"
         offset="1"
         id="stop10" /></linearGradient><linearGradient
       id="linearGradient2"
       inkscape:collect="always"><stop
         style="stop-color:#ffffff;stop-opacity:1;"
         offset="0"
         id="stop2" /><stop
         style="stop-color:#ffffff;stop-opacity:0;"
         offset="1"
         id="stop3" /></linearGradient><linearGradient
       id="linearGradient22"
       inkscape:collect="always"><stop
         style="stop-color:#ad1f1d;stop-opacity:1;"
         offset="0"
         id="stop22" /><stop
         style="stop-color:#7c2015;stop-opacity:1;"
         offset="1"
         id="stop23" /></linearGradient><linearGradient
       id="linearGradient21"
       inkscape:collect="always"><stop
         style="stop-color:#000000;stop-opacity:1;"
         offset="0"
         id="stop20" /><stop
         style="stop-color:#0f0f0f;stop-opacity:1;"
         offset="1"
         id="stop21" /></linearGradient><linearGradient
       id="linearGradient19"
       inkscape:collect="always"><stop
         style="stop-color:#000000;stop-opacity:1;"
         offset="0"
         id="stop18" /><stop
         style="stop-color:#0f0f0f;stop-opacity:1;"
         offset="1"
         id="stop19" /></linearGradient><linearGradient
       id="linearGradient5"
       inkscape:collect="always"><stop
         style="stop-color:#000000;stop-opacity:1;"
         offset="0"
         id="stop5" /><stop
         style="stop-color:#0f0f0f;stop-opacity:1;"
         offset="1"
         id="stop6" /></linearGradient><linearGradient
       inkscape:collect="always"
       xlink:href="#linearGradient19"
       id="linearGradient6"
       x1="67.73333"
       y1="42.044979"
       x2="67.73333"
       y2="46.278313"
       gradientUnits="userSpaceOnUse"
       gradientTransform="translate(0.18709116,4.3007901)" /><linearGradient
       inkscape:collect="always"
       xlink:href="#linearGradient21"
       id="linearGradient7"
       gradientUnits="userSpaceOnUse"
       x1="67.73333"
       y1="42.044979"
       x2="67.73333"
       y2="46.278313"
       gradientTransform="translate(0.18709116,9.5924571)" /><linearGradient
       inkscape:collect="always"
       xlink:href="#linearGradient5"
       id="linearGradient8"
       gradientUnits="userSpaceOnUse"
       gradientTransform="translate(0.18709116,14.884123)"
       x1="67.73333"
       y1="42.044979"
       x2="67.73333"
       y2="46.278313" /><clipPath
       clipPathUnits="userSpaceOnUse"
       id="clipPath481"><path
         id="path482"
         style="display:inline;fill:#ad1f1d;fill-opacity:1;stroke-width:2.11667;stroke-linecap:round;stroke-linejoin:round;stroke-dashoffset:149.514;paint-order:markers stroke fill"
         d="m 1.8520833,18.94303 v 21.478791 c 0,0.213273 0.1717164,0.38499 0.3849894,0.38499 H 133.22959 c 0.21328,0 0.38499,-0.171717 0.38499,-0.38499 V 18.94303 Z"
         inkscape:label="label" /></clipPath><filter
       style="color-interpolation-filters:sRGB;"
       inkscape:label="Noise Fill"
       id="filter2"
       x="0"
       y="0"
       width="1"
       height="1"><feTurbulence
         type="fractalNoise"
         baseFrequency="2 2"
         numOctaves="4"
         seed="2"
         result="turbulence"
         id="feTurbulence1" /><feComposite
         in="SourceGraphic"
         in2="turbulence"
         operator="out"
         result="composite1"
         id="feComposite1" /><feColorMatrix
         values="1 0 0 0 0 0 1 0 0 0 0 0 1 0 0 0 0 0 4 -1 "
         result="color"
         id="feColorMatrix1" /><feFlood
         flood-opacity="1"
         flood-color="rgb(255,255,255)"
         result="flood"
         id="feFlood1" /><feMerge
         result="merge"
         id="feMerge2"><feMergeNode
           in="flood"
           id="feMergeNode1" /><feMergeNode
           in="color"
           id="feMergeNode2" /></feMerge><feComposite
         in2="SourceGraphic"
         operator="in"
         result="fbSourceGraphic"
         id="feComposite2" /><feColorMatrix
         result="fbSourceGraphicAlpha"
         in="fbSourceGraphic"
         values="0 0 0 -1 0 0 0 0 -1 0 0 0 0 -1 0 0 0 0 1 0"
         id="feColorMatrix16" /><feTurbulence
         id="feTurbulence16"
         type="fractalNoise"
         baseFrequency="3 3"
         numOctaves="4"
         seed="2"
         result="turbulence"
         in="fbSourceGraphic" /><feComposite
         id="feComposite16"
         in="fbSourceGraphic"
         in2="turbulence"
         operator="out"
         result="composite1" /><feColorMatrix
         id="feColorMatrix17"
         values="1 0 0 0 0 0 1 0 0 0 0 0 1 0 0 0 0 0 4 -1 "
         result="color" /><feFlood
         id="feFlood17"
         flood-opacity="1"
         flood-color="rgb(255,255,255)"
         result="flood" /><feMerge
         id="feMerge17"
         result="merge"><feMergeNode
           id="feMergeNode17"
           in="flood" /><feMergeNode
           id="feMergeNode18"
           in="color" /></feMerge><feComposite
         id="feComposite18"
         in2="fbSourceGraphic"
         operator="in"
         result="composite2" /></filter><linearGradient
       inkscape:collect="always"
       xlink:href="#linearGradient22"
       id="linearGradient23"
       x1="56.644344"
       y1="18.907345"
       x2="58.587116"
       y2="40.843472"
       gradientUnits="userSpaceOnUse"
       gradientTransform="translate(0.18709116,4.3007901)" /><filter
       style="color-interpolation-filters:sRGB;"
       inkscape:label="Noise Fill"
       id="filter25"
       x="0"
       y="0"
       width="1"
       height="1"><feTurbulence
         type="fractalNoise"
         baseFrequency="3 3"
         numOctaves="4"
         seed="2"
         result="turbulence"
         id="feTurbulence24" /><feComposite
         in="SourceGraphic"
         in2="turbulence"
         operator="out"
         result="composite1"
         id="feComposite24" /><feColorMatrix
         values="1 0 0 0 0 0 1 0 0 0 0 0 1 0 0 0 0 0 4 -1 "
         result="color"
         id="feColorMatrix24" /><feFlood
         flood-opacity="1"
         flood-color="rgb(255,255,255)"
         result="flood"
         id="feFlood24" /><feMerge
         result="merge"
         id="feMerge25"><feMergeNode
           in="flood"
           id="feMergeNode24" /><feMergeNode
           in="color"
           id="feMergeNode25" /></feMerge><feComposite
         in2="SourceGraphic"
         operator="in"
         result="composite2"
         id="feComposite25" /></filter><linearGradient
       inkscape:collect="always"
       xlink:href="#linearGradient2"
       id="linearGradient3"
       x1="39.060944"
       y1="22.931183"
       x2="40.367031"
       y2="72.877457"
       gradientUnits="userSpaceOnUse" /><linearGradient
       inkscape:collect="always"
       xlink:href="#linearGradient9"
       id="linearGradient10"
       x1="50.305473"
       y1="23.347178"
       x2="52.389069"
       y2="45.14426"
       gradientUnits="userSpaceOnUse" /><filter
       inkscape:collect="always"
       style="color-interpolation-filters:sRGB"
       id="filter10"
       x="-0.0025038182"
       y="-0.015729958"
       width="1.0050076"
       height="1.0314599"><feGaussianBlur
         inkscape:collect="always"
         stdDeviation="0.13635703"
         id="feGaussianBlur10" /></filter></defs><g
     inkscape:label="Layer 1"
     inkscape:groupmode="layer"
     id="layer1"><path
       id="rect1"
       style="display:inline;fill:#0f0f0f;fill-opacity:1;stroke-width:2.11667;stroke-linecap:round;stroke-linejoin:round;stroke-dashoffset:149.514;paint-order:markers stroke fill"
       d="m 0.23463348,23.153386 c -0.0262822,0 -0.0475423,0.02126 -0.0475423,0.04754 v 0.563273 22.581567 a 2.1166666,2.1166666 0 0 1 2.11666664,2.116667 2.1166666,2.1166666 0 0 1 -2.11666664,2.116667 v 1.058333 a 2.1166666,2.1166666 0 0 1 2.11666664,2.116667 2.1166666,2.1166666 0 0 1 -2.11666664,2.116666 v 1.058334 A 2.1166666,2.1166666 0 0 1 2.3037578,59.045768 2.1166666,2.1166666 0 0 1 0.18709116,61.162435 V 112.90966 H 135.65375 V 61.162435 a 2.1166666,2.1166666 0 0 1 -2.11666,-2.116667 2.1166666,2.1166666 0 0 1 2.11666,-2.116666 v -1.058334 a 2.1166666,2.1166666 0 0 1 -2.11666,-2.116666 2.1166666,2.1166666 0 0 1 2.11666,-2.116667 v -1.058333 a 2.1166666,2.1166666 0 0 1 -2.11666,-2.116667 2.1166666,2.1166666 0 0 1 2.11666,-2.116667 V 23.764201 23.24382 23.200928 c 0,-0.02628 -0.0213,-0.04754 -0.0475,-0.04754 h -1.757 c -0.0263,0 -0.0475,0.02126 -0.0475,0.04754 v 0.04289 H 2.0391745 v -0.04289 c 0,-0.02628 -0.02126,-0.04754 -0.047542,-0.04754 z" /><path
       style="display:inline;fill:url(#linearGradient6);stroke-width:2.11667;stroke-linecap:round;stroke-linejoin:round;stroke-dashoffset:149.514;paint-order:markers stroke fill"
       d="M 0.18709116,46.345768 A 2.1166666,2.1166666 0 0 1 2.3037578,48.462435 2.1166666,2.1166666 0 0 1 0.18709116,50.579102 H 135.65375 a 2.1166666,2.1166666 0 0 1 -2.11666,-2.116667 2.1166666,2.1166666 0 0 1 2.11666,-2.116667 z"
       id="rect2" /><path
       style="display:inline;fill:url(#linearGradient7);fill-opacity:1;stroke-width:2.11667;stroke-linecap:round;stroke-linejoin:round;stroke-dashoffset:149.514;paint-order:markers stroke fill"
       d="M 0.18709116,51.637435 A 2.1166666,2.1166666 0 0 1 2.3037578,53.754102 2.1166666,2.1166666 0 0 1 0.18709116,55.870769 H 135.65375 a 2.1166666,2.1166666 0 0 1 -2.11666,-2.116667 2.1166666,2.1166666 0 0 1 2.11666,-2.116667 z"
       id="path6" /><path
       style="fill:url(#linearGradient8);fill-opacity:1;stroke-width:2.11667;stroke-linecap:round;stroke-linejoin:round;stroke-dashoffset:149.514;paint-order:markers stroke fill"
       d="M 0.18709116,56.929101 A 2.1166666,2.1166666 0 0 1 2.3037578,59.045768 2.1166666,2.1166666 0 0 1 0.18709116,61.162435 H 135.65375 a 2.1166666,2.1166666 0 0 1 -2.11666,-2.116667 2.1166666,2.1166666 0 0 1 2.11666,-2.116667 z"
       id="path7" /><path
       id="rect8"
       style="display:inline;fill:#333333;fill-opacity:1;stroke-width:2.11667;stroke-linecap:round;stroke-linejoin:round;stroke-dashoffset:149.514;paint-order:markers stroke fill"
       d="m 0.18709116,50.579102 v 0.132291 H 135.65375 v -0.132291 z m 0,5.291666 V 56.00306 H 135.65375 v -0.132292 z m 0,5.291667 v 0.132291 H 135.65375 v -0.132291 z" /><path
       id="rect10"
       style="display:inline;fill:url(#linearGradient23);fill-opacity:1;stroke-width:2.11667;stroke-linecap:round;stroke-linejoin:round;stroke-dashoffset:149.514;paint-order:markers stroke fill"
       d="m 2.0391745,23.24382 v 21.478792 c 0,0.213273 0.1717164,0.384989 0.3849894,0.384989 H 133.41668 c 0.21328,0 0.38499,-0.171716 0.38499,-0.384989 V 23.24382 Z"
       inkscape:label="label" /><path
       id="path477"
       style="color:#000000;display:inline;fill:#000000;stroke-width:1;stroke-linecap:round;stroke-linejoin:round;stroke-dashoffset:149.514;-inkscape-stroke:none;paint-order:markers stroke fill"
       d="m 0.9420589,18.630392 v 0.334863 c 0.017877,0.02333 0.0337103,0.04944 0.0335897,0.08113 v 3.88762 c 1.21e-4,0.03172 -0.0156816,0.0581 -0.0335897,0.08165 v 0.392741 c 0.0178768,0.02343 0.0337108,0.04944 0.0335897,0.08113 v 3.886068 c 1.206e-4,0.03169 -0.0157129,0.0577 -0.0335897,0.08113 v 0.393256 c 0.0178768,0.02343 0.0337106,0.04944 0.0335897,0.08113 v 3.888652 c 1.205e-4,0.03166 -0.0157444,0.0573 -0.0335897,0.08062 v 0.393258 c 0.0178768,0.02343 0.0337106,0.04944 0.0335897,0.08113 v 3.886066 c 1.206e-4,0.03169 -0.0157129,0.0577 -0.0335897,0.08113 v 0.392741 c 0.0178768,0.02343 0.0337106,0.04944 0.0335897,0.08113 v 3.888135 c 1.206e-4,0.03169 -0.0157129,0.0577 -0.0335897,0.08113 v 0.334346 h 0.1731161 4.4410725 4.4431399 4.4421056 4.443656 4.440556 4.444173 4.441589 4.440556 4.443656 4.442107 4.443656 4.441072 4.443657 4.441072 4.44314 4.441589 4.443657 4.441589 4.443656 4.441073 4.443656 4.441073 4.441584 4.44366 4.44159 3.8318 0.61134 4.44365 4.44159 4.44314 4.44262 0.13695 V 40.703463 36.815845 36.260324 32.374256 31.818734 27.930083 27.375078 23.48901 22.933489 19.045871 18.630392 h -0.13695 -4.4421 -4.44314 -4.44159 -3.83181 -0.61185 -4.44314 -4.44159 -4.44365 -4.442104 -4.441073 -4.443656 -4.441073 -4.443656 -4.441589 -4.443657 -4.441589 -4.44314 H 58.866171 54.422514 49.981442 45.537786 41.095679 36.652023 32.211467 27.769878 23.325705 18.885149 14.441493 9.9993874 5.5562475 1.115175 Z M 117.275,18.906344 h 3.50728 c 0.0771,-2.99e-4 0.13982,0.06243 0.13953,0.139527 v 3.887618 c 2.9e-4,0.07709 -0.0624,0.139825 -0.13953,0.139526 h -3.88555 c -0.077,2.88e-4 -0.1398,-0.06243 -0.13952,-0.139526 v -3.887618 c -1.4e-4,-0.03855 0.0145,-0.07393 0.0398,-0.09922 0.025,-0.02426 0.0594,-0.03942 0.0971,-0.03927 h 0.38085 c -5e-5,-3.38e-4 5e-5,-8.05e-4 0,-0.001 z m 4.0628,0 h 3.88814 c 0.0771,-2.99e-4 0.13983,0.06243 0.13953,0.139527 v 3.887618 c 3e-4,0.07709 -0.0624,0.139825 -0.13953,0.139526 h -3.88814 c -0.0771,2.82e-4 -0.13929,-0.06244 -0.139,-0.139526 v -3.887618 c -2.9e-4,-0.07708 0.0618,-0.139808 0.139,-0.139527 z m 4.44314,0 h 3.88659 c 0.0771,-2.93e-4 0.13931,0.06243 0.13901,0.139527 v 3.887618 c 3e-4,0.07709 -0.0618,0.13982 -0.13901,0.139526 h -3.88659 c -0.077,2.99e-4 -0.13931,-0.06243 -0.13901,-0.139526 v -3.887618 c -3e-4,-0.07709 0.0619,-0.139826 0.13901,-0.139527 z m 4.44159,0 h 3.88762 c 0.077,-2.89e-4 0.14032,0.06243 0.14004,0.139527 v 3.887618 c 2.8e-4,0.07709 -0.063,0.139817 -0.14004,0.139526 h -3.88762 c -0.0771,2.94e-4 -0.13929,-0.06243 -0.13901,-0.139526 v -3.887618 c -2.8e-4,-0.07709 0.0618,-0.13982 0.13901,-0.139527 z m -128.8308861,10e-4 h 3.8881347 c 0.077092,-2.95e-4 0.1393028,0.06191 0.1390096,0.139009 v 3.887652 c 2.942e-4,0.07709 -0.061917,0.140338 -0.1390096,0.140043 H 1.3916439 c -0.077092,2.94e-4 -0.1403375,-0.06295 -0.1400432,-0.140043 v -3.887618 c -2.937e-4,-0.07709 0.062952,-0.139303 0.1400432,-0.139009 z m 4.4431396,0 h 3.8865844 c 0.07709,-2.94e-4 0.1387868,0.06191 0.1384928,0.139009 v 3.887652 c 2.94e-4,0.07709 -0.061396,0.140337 -0.1384928,0.140043 H 5.8347835 c -0.07709,2.94e-4 -0.1398205,-0.06295 -0.1395264,-0.140043 v -3.887618 c -2.941e-4,-0.07709 0.062434,-0.139303 0.1395264,-0.139009 z m 4.4415885,0 h 3.887618 c 0.07709,-2.94e-4 0.139821,0.06191 0.139527,0.139009 v 3.887652 c 2.94e-4,0.07709 -0.06243,0.140337 -0.139527,0.140043 h -3.887618 c -0.07709,2.94e-4 -0.13982,-0.06295 -0.139526,-0.140043 v -3.887618 c -2.94e-4,-0.07709 0.06243,-0.139303 0.139526,-0.139009 z m 4.443657,0 h 3.885551 c 0.0773,-5.96e-4 0.140339,0.06169 0.140043,0.139009 v 3.887652 c 2.97e-4,0.07731 -0.06274,0.140639 -0.140043,0.140043 h -3.885551 c -0.07709,2.94e-4 -0.139304,-0.06295 -0.13901,-0.140043 v -3.887618 c -2.94e-4,-0.07709 0.06192,-0.139303 0.13901,-0.139009 z m 4.441072,0 h 3.888652 c 0.07709,-2.94e-4 0.13982,0.06191 0.139526,0.139009 v 3.887652 c 2.94e-4,0.07709 -0.06243,0.140337 -0.139526,0.140043 h -3.888652 c -0.07709,2.94e-4 -0.139303,-0.06295 -0.139009,-0.140043 v -3.887618 c -2.94e-4,-0.07709 0.06191,-0.139303 0.139009,-0.139009 z m 4.444173,0 h 3.885551 c 0.07709,-2.94e-4 0.139822,0.06191 0.139527,0.139009 v 3.887652 c 2.95e-4,0.07709 -0.06244,0.140337 -0.139527,0.140043 h -3.885551 c -0.07709,2.94e-4 -0.139821,-0.06295 -0.139526,-0.140043 v -3.887618 c -2.95e-4,-0.07709 0.06243,-0.139303 0.139526,-0.139009 z m 4.441073,0 h 3.888135 c 0.07709,-2.94e-4 0.139301,0.06191 0.139009,0.139009 v 3.887652 c 2.92e-4,0.07709 -0.06191,0.140337 -0.139009,0.140043 h -3.888135 c -0.07709,2.94e-4 -0.13982,-0.06295 -0.139526,-0.140043 v -3.887618 c -2.94e-4,-0.07709 0.06244,-0.139303 0.139526,-0.139009 z m 4.441072,0 h 3.888652 c 0.07709,-2.94e-4 0.139305,0.06191 0.13901,0.139009 v 3.887652 c 2.95e-4,0.07709 -0.06191,0.140337 -0.13901,0.140043 h -3.888652 c -0.07709,2.94e-4 -0.13982,-0.06295 -0.139526,-0.140043 v -3.887618 c -2.94e-4,-0.07709 0.06244,-0.139303 0.139526,-0.139009 z m 4.443657,0 h 3.886067 c 0.07709,-2.94e-4 0.139822,0.06191 0.139527,0.139009 v 3.887652 c 2.95e-4,0.07709 -0.06244,0.140337 -0.139527,0.140043 h -3.886067 c -0.07709,2.94e-4 -0.139305,-0.06295 -0.13901,-0.140043 v -3.887618 c -2.95e-4,-0.07709 0.06191,-0.139303 0.13901,-0.139009 z m 4.441589,0 h 3.887618 c 0.07709,-2.94e-4 0.139818,0.06191 0.139526,0.139009 v 3.887652 c 2.92e-4,0.07709 -0.06243,0.140337 -0.139526,0.140043 h -3.887618 c -0.07709,2.94e-4 -0.13982,-0.06295 -0.139526,-0.140043 v -3.887618 c -2.94e-4,-0.07709 0.06243,-0.139303 0.139526,-0.139009 z m 4.44314,0 h 3.886067 c 0.07709,-2.94e-4 0.139822,0.06191 0.139527,0.139009 v 3.887652 c 2.95e-4,0.07709 -0.06244,0.140337 -0.139527,0.140043 h -3.886067 c -0.07729,5.97e-4 -0.139308,-0.06274 -0.13901,-0.140043 v -3.887618 c -2.97e-4,-0.07731 0.06172,-0.139606 0.13901,-0.139009 z m 4.442106,0 h 3.888134 c 0.07709,-2.94e-4 0.139821,0.06191 0.139527,0.139009 v 3.887652 c 2.94e-4,0.07709 -0.06244,0.140337 -0.139527,0.140043 h -3.888134 c -0.07709,2.94e-4 -0.139822,-0.06295 -0.139527,-0.140043 v -3.887618 c -2.95e-4,-0.07709 0.06243,-0.139303 0.139527,-0.139009 z m 4.443656,0 h 3.885551 c 0.07709,-2.94e-4 0.139303,0.06191 0.13901,0.139009 v 3.887652 c 2.93e-4,0.07709 -0.06191,0.140337 -0.13901,0.140043 h -3.885551 c -0.07709,2.94e-4 -0.140335,-0.06295 -0.140043,-0.140043 v -3.887618 c -2.92e-4,-0.07709 0.06295,-0.139303 0.140043,-0.139009 z m 4.440556,0 h 3.888651 c 0.07709,-2.94e-4 0.139304,0.06191 0.13901,0.139009 v 3.887652 c 2.94e-4,0.07709 -0.06191,0.140337 -0.13901,0.140043 h -3.888651 c -0.07709,2.95e-4 -0.139304,-0.06295 -0.13901,-0.140043 v -3.887618 c -2.94e-4,-0.07709 0.06192,-0.139304 0.13901,-0.139009 z m 4.443656,0 h 3.886068 c 0.07709,-2.94e-4 0.140337,0.06191 0.140043,0.139009 v 3.887652 c 2.94e-4,0.07709 -0.06295,0.140337 -0.140043,0.140043 h -3.886068 c -0.07709,2.94e-4 -0.139303,-0.06295 -0.139009,-0.140043 v -3.887618 c -2.94e-4,-0.07709 0.06191,-0.139303 0.139009,-0.139009 z m 4.44159,0 h 3.888134 c 0.07709,-2.94e-4 0.139305,0.06191 0.13901,0.139009 v 3.887652 c 2.95e-4,0.07709 -0.06192,0.140337 -0.13901,0.140043 h -3.888134 c -0.07709,2.94e-4 -0.13982,-0.06295 -0.139527,-0.140043 v -3.887618 c -2.93e-4,-0.07709 0.06243,-0.139303 0.139527,-0.139009 z m 4.443656,0 h 3.885551 c 0.07709,-2.94e-4 0.13982,0.06191 0.139526,0.139009 v 3.887652 c 2.94e-4,0.07709 -0.06243,0.140337 -0.139526,0.140043 h -3.885551 c -0.07709,2.94e-4 -0.13982,-0.06295 -0.139526,-0.140043 v -3.887618 c -2.94e-4,-0.07709 0.06243,-0.139303 0.139526,-0.139009 z m 4.441072,0 h 3.888135 c 0.07709,-2.94e-4 0.139822,0.06191 0.139527,0.139009 v 3.887652 c 2.95e-4,0.07709 -0.06243,0.140337 -0.139527,0.140043 h -3.888135 c -0.07709,2.94e-4 -0.13982,-0.06295 -0.139526,-0.140043 v -3.887618 c -2.94e-4,-0.07709 0.06243,-0.139303 0.139526,-0.139009 z m 4.444174,0 h 3.88555 c 0.0773,-5.96e-4 0.139306,0.06169 0.13901,0.139009 v 3.887652 c 2.97e-4,0.07731 -0.06171,0.140639 -0.13901,0.140043 h -3.88555 c -0.07709,2.94e-4 -0.140339,-0.06295 -0.140044,-0.140043 v -3.887618 c -2.95e-4,-0.07709 0.06296,-0.139303 0.140044,-0.139009 z m 4.441072,0 h 3.888135 c 0.07709,-2.94e-4 0.13982,0.06191 0.139526,0.139009 v 3.887652 c 2.94e-4,0.07709 -0.06243,0.140337 -0.139526,0.140043 h -3.888135 c -0.07709,2.94e-4 -0.13982,-0.06295 -0.139526,-0.140043 v -3.887618 c -2.94e-4,-0.07709 0.06243,-0.139303 0.139526,-0.139009 z m 4.44314,0 h 3.886067 c 0.07709,-2.94e-4 0.140338,0.06191 0.140044,0.139009 v 3.887652 c 2.94e-4,0.07709 -0.06296,0.140337 -0.140044,0.140043 h -3.886067 c -0.07709,2.94e-4 -0.138787,-0.06295 -0.138493,-0.140043 v -3.887618 c -2.94e-4,-0.07709 0.0614,-0.139303 0.138493,-0.139009 z m 4.441589,0 h 3.888135 c 0.077,-2.98e-4 0.139816,0.06191 0.139526,0.139009 v 3.887652 c 2.9e-4,0.07709 -0.06243,0.140341 -0.139526,0.140043 h -3.888135 c -0.07709,2.95e-4 -0.13982,-0.06295 -0.139526,-0.140043 v -3.887618 c -2.94e-4,-0.07709 0.06243,-0.139304 0.139526,-0.139009 z m 4.441589,0 h 3.888129 c 0.077,-2.94e-4 0.13931,0.06191 0.13901,0.139009 v 3.887652 c 3e-4,0.07709 -0.0618,0.140337 -0.13901,0.140043 h -3.888129 c -0.077,2.9e-4 -0.139826,-0.06295 -0.139526,-0.140043 v -3.887618 c -3e-4,-0.07709 0.06242,-0.139299 0.139526,-0.139009 z m 4.443139,0 h 3.88606 c 0.077,-2.99e-4 0.13982,0.06191 0.13953,0.139009 v 3.887652 c 2.9e-4,0.07709 -0.0625,0.140342 -0.13953,0.140043 h -3.88606 c -0.077,2.94e-4 -0.13929,-0.06295 -0.13901,-0.140043 v -3.887618 c -2.8e-4,-0.07709 0.0618,-0.139303 0.13901,-0.139009 z m 4.44159,0 h 3.88813 c 0.077,-2.82e-4 0.13929,0.06192 0.13901,0.139009 v 3.887652 c 2.8e-4,0.07708 -0.0618,0.140324 -0.13901,0.140043 h -3.88813 c -0.0771,2.99e-4 -0.14034,-0.06295 -0.14005,-0.140043 v -3.887618 c -2.9e-4,-0.07709 0.0629,-0.139308 0.14005,-0.139009 z m 4.44314,0 h 3.88658 c 0.0771,-2.88e-4 0.13931,0.06191 0.13901,0.139009 v 3.887652 c 1.5e-4,0.03855 -0.0155,0.07393 -0.0408,0.09922 -0.0249,0.02397 -0.0576,0.03993 -0.0951,0.03979 -0.001,2.7e-5 -0.002,10e-4 -0.003,10e-4 h -3.88607 c -0.0771,2.99e-4 -0.13981,-0.06295 -0.13952,-0.140043 v -3.887618 c -2.9e-4,-0.07679 0.0623,-0.138837 0.13901,-0.139009 z m 4.4452,4.442623 h 3.88555 c 0.0771,-2.99e-4 0.13982,0.06192 0.13953,0.139009 v 3.886069 c 2.9e-4,0.07709 -0.0624,0.139825 -0.13953,0.139526 h -3.88555 c -0.077,2.87e-4 -0.1398,-0.06244 -0.13952,-0.139526 v -3.886069 c -2.8e-4,-0.07709 0.0623,-0.139297 0.13952,-0.139009 z m 4.44107,0 h 3.88814 c 0.0771,-2.99e-4 0.13983,0.06192 0.13953,0.139009 v 3.886069 c 3e-4,0.07709 -0.0624,0.139825 -0.13953,0.139526 h -3.88814 c -0.0771,2.81e-4 -0.13929,-0.06245 -0.139,-0.139526 v -3.886069 c -2.9e-4,-0.07708 0.0618,-0.139291 0.139,-0.139009 z m 4.44314,0 h 3.88659 c 0.0771,-2.94e-4 0.13931,0.06192 0.13901,0.139009 v 3.886069 c 3e-4,0.07709 -0.0618,0.13982 -0.13901,0.139526 h -3.88659 c -0.077,2.98e-4 -0.13931,-0.06244 -0.13901,-0.139526 v -3.886069 c -3e-4,-0.07709 0.0619,-0.139308 0.13901,-0.139009 z m 4.44159,0 h 3.88762 c 0.077,-2.9e-4 0.14032,0.06192 0.14004,0.139009 v 3.886069 c 2.8e-4,0.07709 -0.063,0.139815 -0.14004,0.139526 h -3.88762 c -0.0771,2.94e-4 -0.13929,-0.06244 -0.13901,-0.139526 v -3.886069 c -2.8e-4,-0.07709 0.0618,-0.139303 0.13901,-0.139009 z m -128.8308861,5.5e-4 h 3.8881347 c 0.077093,-2.95e-4 0.1393048,0.06192 0.1390096,0.13901 v 3.886068 c 2.932e-4,0.07709 -0.061917,0.139821 -0.1390096,0.139526 H 1.3916439 c -0.07709,2.93e-4 -0.1403369,-0.06243 -0.1400432,-0.139526 v -3.886068 c -2.948e-4,-0.07709 0.062951,-0.139304 0.1400432,-0.13901 z m 4.4431396,0 h 3.8865844 c 0.07709,-2.94e-4 0.1387878,0.06192 0.1384928,0.13901 v 3.886068 c 2.94e-4,0.07709 -0.061396,0.139819 -0.1384928,0.139526 H 5.8347835 c -0.07709,2.93e-4 -0.1398205,-0.06243 -0.1395264,-0.139526 v -3.886068 c -2.951e-4,-0.07709 0.062434,-0.139304 0.1395264,-0.13901 z m 4.4415885,0 h 3.887618 c 0.07709,-2.94e-4 0.139822,0.06192 0.139527,0.13901 v 3.886068 c 2.94e-4,0.07709 -0.06243,0.139819 -0.139527,0.139526 h -3.887618 c -0.07709,2.93e-4 -0.13982,-0.06243 -0.139526,-0.139526 v -3.886068 c -2.95e-4,-0.07709 0.06243,-0.139304 0.139526,-0.13901 z m 4.443657,0 h 3.885551 c 0.0773,-5.96e-4 0.14034,0.06172 0.140043,0.13901 v 3.886068 c 2.96e-4,0.07731 -0.06274,0.140122 -0.140043,0.139526 h -3.885551 c -0.07709,2.93e-4 -0.139304,-0.06243 -0.13901,-0.139526 v -3.886068 c -2.96e-4,-0.07709 0.06192,-0.139304 0.13901,-0.13901 z m 4.441072,0 h 3.888652 c 0.07709,-2.94e-4 0.139821,0.06192 0.139526,0.13901 v 3.886068 c 2.94e-4,0.07709 -0.06243,0.139819 -0.139526,0.139526 h -3.888652 c -0.07709,2.93e-4 -0.139303,-0.06243 -0.139009,-0.139526 v -3.886068 c -2.95e-4,-0.07709 0.06191,-0.139304 0.139009,-0.13901 z m 4.444173,0 h 3.885551 c 0.07709,-2.94e-4 0.139823,0.06192 0.139527,0.13901 v 3.886068 c 2.95e-4,0.07709 -0.06244,0.139819 -0.139527,0.139526 h -3.885551 c -0.07709,2.93e-4 -0.139821,-0.06243 -0.139526,-0.139526 v -3.886068 c -2.96e-4,-0.07709 0.06243,-0.139304 0.139526,-0.13901 z m 4.441073,0 h 3.888135 c 0.07709,-2.94e-4 0.139302,0.06192 0.139009,0.13901 v 3.886068 c 2.92e-4,0.07709 -0.06191,0.139819 -0.139009,0.139526 h -3.888135 c -0.07709,2.93e-4 -0.13982,-0.06243 -0.139526,-0.139526 v -3.886068 c -2.95e-4,-0.07709 0.06244,-0.139304 0.139526,-0.13901 z m 4.441072,0 h 3.888652 c 0.07709,-2.94e-4 0.139306,0.06192 0.13901,0.13901 v 3.886068 c 2.95e-4,0.07709 -0.06191,0.139819 -0.13901,0.139526 h -3.888652 c -0.07709,2.93e-4 -0.13982,-0.06243 -0.139526,-0.139526 v -3.886068 c -2.95e-4,-0.07709 0.06244,-0.139304 0.139526,-0.13901 z m 4.443657,0 h 3.886067 c 0.07709,-2.94e-4 0.139823,0.06192 0.139527,0.13901 v 3.886068 c 2.95e-4,0.07709 -0.06244,0.139819 -0.139527,0.139526 h -3.886067 c -0.07709,2.93e-4 -0.139305,-0.06243 -0.13901,-0.139526 v -3.886068 c -2.96e-4,-0.07709 0.06191,-0.139304 0.13901,-0.13901 z m 4.441589,0 h 3.887618 c 0.07709,-2.94e-4 0.139819,0.06192 0.139526,0.13901 v 3.886068 c 2.92e-4,0.07709 -0.06243,0.139819 -0.139526,0.139526 h -3.887618 c -0.07709,2.93e-4 -0.13982,-0.06243 -0.139526,-0.139526 v -3.886068 c -2.95e-4,-0.07709 0.06243,-0.139304 0.139526,-0.13901 z m 4.44314,0 h 3.886067 c 0.07709,-2.94e-4 0.139823,0.06192 0.139527,0.13901 v 3.886068 c 2.95e-4,0.07709 -0.06244,0.139819 -0.139527,0.139526 h -3.886067 c -0.07729,5.96e-4 -0.139307,-0.06222 -0.13901,-0.139526 v -3.886068 c -2.98e-4,-0.07731 0.06172,-0.139607 0.13901,-0.13901 z m 4.442106,0 h 3.888134 c 0.07709,-2.94e-4 0.139822,0.06192 0.139527,0.13901 v 3.886068 c 2.94e-4,0.07709 -0.06244,0.139819 -0.139527,0.139526 h -3.888134 c -0.07709,2.93e-4 -0.139822,-0.06243 -0.139527,-0.139526 v -3.886068 c -2.96e-4,-0.07709 0.06243,-0.139304 0.139527,-0.13901 z m 4.443656,0 h 3.885551 c 0.07709,-2.94e-4 0.139304,0.06192 0.13901,0.13901 v 3.886068 c 2.93e-4,0.07709 -0.06191,0.139819 -0.13901,0.139526 h -3.885551 c -0.07709,2.93e-4 -0.140335,-0.06243 -0.140043,-0.139526 v -3.886068 c -2.93e-4,-0.07709 0.06295,-0.139304 0.140043,-0.13901 z m 4.440556,0 h 3.888651 c 0.07709,-2.94e-4 0.139305,0.06192 0.13901,0.13901 v 3.886068 c 2.94e-4,0.07709 -0.06191,0.139819 -0.13901,0.139526 h -3.888651 c -0.07709,2.95e-4 -0.139304,-0.06243 -0.13901,-0.139526 v -3.886068 c -2.95e-4,-0.07709 0.06192,-0.139305 0.13901,-0.13901 z m 4.443656,0 h 3.886068 c 0.07709,-2.94e-4 0.140338,0.06192 0.140043,0.13901 v 3.886068 c 2.94e-4,0.07709 -0.06295,0.139819 -0.140043,0.139526 h -3.886068 c -0.07709,2.93e-4 -0.139303,-0.06243 -0.139009,-0.139526 v -3.886068 c -2.95e-4,-0.07709 0.06191,-0.139304 0.139009,-0.13901 z m 4.44159,0 h 3.888134 c 0.07709,-2.94e-4 0.139306,0.06192 0.13901,0.13901 v 3.886068 c 2.95e-4,0.07709 -0.06192,0.139819 -0.13901,0.139526 h -3.888134 c -0.07709,2.93e-4 -0.13982,-0.06243 -0.139527,-0.139526 v -3.886068 c -2.94e-4,-0.07709 0.06243,-0.139304 0.139527,-0.13901 z m 4.443656,0 h 3.885551 c 0.07709,-2.94e-4 0.139821,0.06192 0.139526,0.13901 v 3.886068 c 2.94e-4,0.07709 -0.06243,0.139819 -0.139526,0.139526 h -3.885551 c -0.07709,2.93e-4 -0.13982,-0.06243 -0.139526,-0.139526 v -3.886068 c -2.95e-4,-0.07709 0.06243,-0.139304 0.139526,-0.13901 z m 4.441072,0 h 3.888135 c 0.07709,-2.94e-4 0.139823,0.06192 0.139527,0.13901 v 3.886068 c 2.95e-4,0.07709 -0.06243,0.139819 -0.139527,0.139526 h -3.888135 c -0.07709,2.93e-4 -0.13982,-0.06243 -0.139526,-0.139526 v -3.886068 c -2.95e-4,-0.07709 0.06243,-0.139304 0.139526,-0.13901 z m 4.444174,0 h 3.88555 c 0.0773,-5.96e-4 0.139307,0.06172 0.13901,0.13901 v 3.886068 c 2.96e-4,0.07731 -0.06171,0.140122 -0.13901,0.139526 h -3.88555 c -0.07709,2.93e-4 -0.140339,-0.06243 -0.140044,-0.139526 v -3.886068 c -2.96e-4,-0.07709 0.06296,-0.139304 0.140044,-0.13901 z m 4.441072,0 h 3.888135 c 0.07709,-2.94e-4 0.139821,0.06192 0.139526,0.13901 v 3.886068 c 2.94e-4,0.07709 -0.06243,0.139819 -0.139526,0.139526 h -3.888135 c -0.07709,2.93e-4 -0.13982,-0.06243 -0.139526,-0.139526 v -3.886068 c -2.95e-4,-0.07709 0.06243,-0.139304 0.139526,-0.13901 z m 4.44314,0 h 3.886067 c 0.07709,-2.94e-4 0.14034,0.06192 0.140044,0.13901 v 3.886068 c 2.94e-4,0.07709 -0.06296,0.139819 -0.140044,0.139526 h -3.886067 c -0.07709,2.93e-4 -0.138787,-0.06243 -0.138493,-0.139526 v -3.886068 c -2.95e-4,-0.07709 0.0614,-0.139304 0.138493,-0.13901 z m 4.441589,0 h 3.888135 c 0.077,-2.98e-4 0.139816,0.06192 0.139526,0.13901 v 3.886068 c 2.9e-4,0.07709 -0.06243,0.139824 -0.139526,0.139526 h -3.888135 c -0.07709,2.95e-4 -0.13982,-0.06243 -0.139526,-0.139526 v -3.886068 c -2.95e-4,-0.07709 0.06243,-0.139305 0.139526,-0.13901 z m 4.441589,0 h 3.888129 c 0.077,-2.94e-4 0.13931,0.06192 0.13901,0.13901 v 3.886068 c 3e-4,0.07709 -0.0618,0.139819 -0.13901,0.139526 h -3.888129 c -0.077,2.89e-4 -0.139826,-0.06243 -0.139526,-0.139526 v -3.886068 c -3e-4,-0.07709 0.06242,-0.1393 0.139526,-0.13901 z m 4.443139,0 h 3.88606 c 0.077,-2.99e-4 0.13982,0.06192 0.13953,0.13901 v 3.886068 c 2.9e-4,0.07709 -0.0625,0.139825 -0.13953,0.139526 h -3.88606 c -0.077,2.93e-4 -0.13929,-0.06243 -0.13901,-0.139526 v -3.886068 c -2.8e-4,-0.07709 0.0618,-0.139304 0.13901,-0.13901 z m 4.44159,0 h 3.88813 c 0.077,-2.81e-4 0.13929,0.06193 0.13901,0.13901 v 3.886068 c 2.8e-4,0.07708 -0.0618,0.139808 -0.13901,0.139526 h -3.88813 c -0.0771,2.99e-4 -0.14034,-0.06243 -0.14005,-0.139526 v -3.886068 c -2.9e-4,-0.07709 0.0629,-0.139309 0.14005,-0.13901 z m 4.44314,0 h 3.88658 c 0.0771,-2.88e-4 0.13931,0.06192 0.13901,0.13901 v 3.886068 c 3e-4,0.07709 -0.0618,0.139814 -0.13901,0.139526 h -3.88658 c -0.077,2.99e-4 -0.13931,-0.06243 -0.13901,-0.139526 v -3.886068 c -3e-4,-0.07709 0.0619,-0.139309 0.13901,-0.13901 z m 4.4452,4.440556 h 3.88555 c 0.0771,-2.98e-4 0.13982,0.06191 0.13953,0.13901 v 3.888651 c 2.9e-4,0.07709 -0.0624,0.139826 -0.13953,0.139527 h -3.88555 c -0.077,2.87e-4 -0.1398,-0.06243 -0.13952,-0.139527 v -3.888651 c -1.4e-4,-0.03855 0.0145,-0.0725 0.0398,-0.09767 0.0252,-0.02517 0.061,-0.04148 0.0997,-0.04134 z m 4.44107,0 h 3.88814 c 0.0771,-2.98e-4 0.13983,0.06191 0.13953,0.13901 v 3.888651 c 3e-4,0.07709 -0.0624,0.139826 -0.13953,0.139527 h -3.88814 c -0.0771,2.8e-4 -0.13929,-0.06245 -0.139,-0.139527 v -3.888651 c -2.9e-4,-0.07708 0.0618,-0.139291 0.139,-0.13901 z m 4.44314,0 h 3.88659 c 0.0771,-2.94e-4 0.13931,0.06191 0.13901,0.13901 v 3.888651 c 3e-4,0.07709 -0.0618,0.13982 -0.13901,0.139527 h -3.88659 c -0.077,2.99e-4 -0.13931,-0.06243 -0.13901,-0.139527 v -3.888651 c -3e-4,-0.07709 0.0619,-0.139309 0.13901,-0.13901 z m 4.44159,0 h 3.88762 c 0.077,-2.9e-4 0.14032,0.06191 0.14004,0.13901 v 3.888651 c 2.8e-4,0.07709 -0.063,0.139816 -0.14004,0.139527 h -3.88762 c -0.0771,2.93e-4 -0.13929,-0.06243 -0.13901,-0.139527 v -3.888651 c -2.8e-4,-0.07709 0.0618,-0.139304 0.13901,-0.13901 z M 1.3916439,27.79159 h 3.8881347 c 0.077092,-2.95e-4 0.1393038,0.06243 0.1390096,0.139526 v 3.888652 c 2.932e-4,0.07709 -0.061917,0.139305 -0.1390096,0.139009 H 1.3916439 c -0.07709,2.94e-4 -0.1403369,-0.06191 -0.1400432,-0.139009 v -3.888652 c -2.943e-4,-0.07709 0.062952,-0.13982 0.1400432,-0.139526 z m 4.4431396,0 h 3.8865844 c 0.07709,-2.94e-4 0.1387868,0.06243 0.1384928,0.139526 v 3.888652 c 2.94e-4,0.07709 -0.061396,0.139304 -0.1384928,0.139009 H 5.8347835 c -0.07709,2.94e-4 -0.1398205,-0.06191 -0.1395264,-0.139009 v -3.888652 c -2.941e-4,-0.07709 0.062434,-0.13982 0.1395264,-0.139526 z m 4.4415885,0 h 3.887618 c 0.07709,-2.94e-4 0.139821,0.06243 0.139527,0.139526 v 3.888652 c 2.94e-4,0.07709 -0.06243,0.139304 -0.139527,0.139009 h -3.887618 c -0.07709,2.94e-4 -0.13982,-0.06191 -0.139526,-0.139009 v -3.888652 c -2.94e-4,-0.07709 0.06243,-0.13982 0.139526,-0.139526 z m 4.443657,0 h 3.885551 c 0.0773,-5.96e-4 0.14034,0.06222 0.140043,0.139526 v 3.888652 c 2.96e-4,0.0773 -0.06274,0.139606 -0.140043,0.139009 h -3.885551 c -0.07709,2.94e-4 -0.139304,-0.06191 -0.13901,-0.139009 v -3.888652 c -2.94e-4,-0.07709 0.06192,-0.13982 0.13901,-0.139526 z m 4.441072,0 h 3.888652 c 0.07709,-2.94e-4 0.13982,0.06243 0.139526,0.139526 v 3.888652 c 2.94e-4,0.07709 -0.06243,0.139304 -0.139526,0.139009 h -3.888652 c -0.07709,2.94e-4 -0.139303,-0.06191 -0.139009,-0.139009 v -3.888652 c -2.94e-4,-0.07709 0.06191,-0.13982 0.139009,-0.139526 z m 4.444173,0 h 3.885551 c 0.07709,-2.94e-4 0.139822,0.06243 0.139527,0.139526 v 3.888652 c 2.95e-4,0.07709 -0.06244,0.139304 -0.139527,0.139009 h -3.885551 c -0.07709,2.94e-4 -0.139821,-0.06191 -0.139526,-0.139009 v -3.888652 c -2.95e-4,-0.07709 0.06243,-0.13982 0.139526,-0.139526 z m 4.441073,0 h 3.888135 c 0.07709,-2.94e-4 0.139301,0.06243 0.139009,0.139526 v 3.888652 c 2.92e-4,0.07709 -0.06191,0.139304 -0.139009,0.139009 h -3.888135 c -0.07709,2.94e-4 -0.13982,-0.06191 -0.139526,-0.139009 v -3.888652 c -2.94e-4,-0.07709 0.06244,-0.13982 0.139526,-0.139526 z m 4.441072,0 h 3.888652 c 0.07709,-2.94e-4 0.139305,0.06243 0.13901,0.139526 v 3.888652 c 2.95e-4,0.07709 -0.06191,0.139304 -0.13901,0.139009 h -3.888652 c -0.07709,2.94e-4 -0.13982,-0.06191 -0.139526,-0.139009 v -3.888652 c -2.94e-4,-0.07709 0.06244,-0.13982 0.139526,-0.139526 z m 4.443657,0 h 3.886067 c 0.07709,-2.94e-4 0.139822,0.06243 0.139527,0.139526 v 3.888652 c 2.95e-4,0.07709 -0.06244,0.139304 -0.139527,0.139009 h -3.886067 c -0.07709,2.94e-4 -0.139305,-0.06191 -0.13901,-0.139009 v -3.888652 c -2.95e-4,-0.07709 0.06191,-0.13982 0.13901,-0.139526 z m 4.441589,0 h 3.887618 c 0.07709,-2.94e-4 0.139818,0.06243 0.139526,0.139526 v 3.888652 c 2.92e-4,0.07709 -0.06243,0.139304 -0.139526,0.139009 h -3.887618 c -0.07709,2.94e-4 -0.13982,-0.06191 -0.139526,-0.139009 v -3.888652 c -2.94e-4,-0.07709 0.06243,-0.13982 0.139526,-0.139526 z m 4.44314,0 h 3.886067 c 0.07709,-2.94e-4 0.139822,0.06243 0.139527,0.139526 v 3.888652 c 2.95e-4,0.07709 -0.06244,0.139304 -0.139527,0.139009 h -3.886067 c -0.07729,5.98e-4 -0.139307,-0.0617 -0.13901,-0.139009 v -3.888652 c -2.98e-4,-0.07731 0.06172,-0.140123 0.13901,-0.139526 z m 4.442106,0 h 3.888134 c 0.07709,-2.94e-4 0.139821,0.06243 0.139527,0.139526 v 3.888652 c 2.94e-4,0.07709 -0.06244,0.139304 -0.139527,0.139009 h -3.888134 c -0.07709,2.94e-4 -0.139822,-0.06191 -0.139527,-0.139009 v -3.888652 c -2.95e-4,-0.07709 0.06243,-0.13982 0.139527,-0.139526 z m 4.443656,0 h 3.885551 c 0.07709,-2.94e-4 0.139303,0.06243 0.13901,0.139526 v 3.888652 c 2.93e-4,0.07709 -0.06191,0.139304 -0.13901,0.139009 h -3.885551 c -0.07709,2.94e-4 -0.140335,-0.06191 -0.140043,-0.139009 v -3.888652 c -2.92e-4,-0.07709 0.06295,-0.13982 0.140043,-0.139526 z m 4.440556,0 h 3.888651 c 0.07709,-2.94e-4 0.139304,0.06243 0.13901,0.139526 v 3.888652 c 2.94e-4,0.07709 -0.06191,0.139304 -0.13901,0.139009 h -3.888651 c -0.07709,2.96e-4 -0.139304,-0.06191 -0.13901,-0.139009 v -3.888652 c -2.94e-4,-0.07709 0.06192,-0.139821 0.13901,-0.139526 z m 4.443656,0 h 3.886068 c 0.07709,-2.94e-4 0.140337,0.06243 0.140043,0.139526 v 3.888652 c 2.94e-4,0.07709 -0.06295,0.139304 -0.140043,0.139009 h -3.886068 c -0.07709,2.94e-4 -0.139303,-0.06191 -0.139009,-0.139009 v -3.888652 c -2.94e-4,-0.07709 0.06191,-0.13982 0.139009,-0.139526 z m 4.44159,0 h 3.888134 c 0.07709,-2.94e-4 0.139305,0.06243 0.13901,0.139526 v 3.888652 c 2.95e-4,0.07709 -0.06192,0.139304 -0.13901,0.139009 h -3.888134 c -0.07709,2.94e-4 -0.13982,-0.06191 -0.139527,-0.139009 v -3.888652 c -2.93e-4,-0.07709 0.06243,-0.13982 0.139527,-0.139526 z m 4.443656,0 h 3.885551 c 0.07709,-2.94e-4 0.13982,0.06243 0.139526,0.139526 v 3.888652 c 2.94e-4,0.07709 -0.06243,0.139304 -0.139526,0.139009 h -3.885551 c -0.07709,2.94e-4 -0.13982,-0.06191 -0.139526,-0.139009 v -3.888652 c -2.94e-4,-0.07709 0.06243,-0.13982 0.139526,-0.139526 z m 4.441072,0 h 3.888135 c 0.07709,-2.94e-4 0.139822,0.06243 0.139527,0.139526 v 3.888652 c 2.95e-4,0.07709 -0.06243,0.139304 -0.139527,0.139009 h -3.888135 c -0.07709,2.94e-4 -0.13982,-0.06191 -0.139526,-0.139009 v -3.888652 c -2.94e-4,-0.07709 0.06243,-0.13982 0.139526,-0.139526 z m 4.444174,0 h 3.88555 c 0.0773,-5.96e-4 0.139307,0.06222 0.13901,0.139526 v 3.888652 c 2.96e-4,0.0773 -0.06171,0.139606 -0.13901,0.139009 h -3.88555 c -0.07709,2.94e-4 -0.140339,-0.06191 -0.140044,-0.139009 v -3.888652 c -2.95e-4,-0.07709 0.06296,-0.13982 0.140044,-0.139526 z m 4.441072,0 h 3.888135 c 0.07709,-2.94e-4 0.13982,0.06243 0.139526,0.139526 v 3.888652 c 2.94e-4,0.07709 -0.06243,0.139304 -0.139526,0.139009 h -3.888135 c -0.07709,2.94e-4 -0.13982,-0.06191 -0.139526,-0.139009 v -3.888652 c -2.94e-4,-0.07709 0.06243,-0.13982 0.139526,-0.139526 z m 4.44314,0 h 3.886067 c 0.07709,-2.94e-4 0.140338,0.06243 0.140044,0.139526 v 3.888652 c 2.94e-4,0.07709 -0.06296,0.139304 -0.140044,0.139009 h -3.886067 c -0.07709,2.94e-4 -0.138787,-0.06191 -0.138493,-0.139009 v -3.888652 c -2.94e-4,-0.07709 0.0614,-0.13982 0.138493,-0.139526 z m 4.441589,0 h 3.888135 c 0.077,-2.98e-4 0.139816,0.06243 0.139526,0.139526 v 3.888652 c 2.9e-4,0.07709 -0.06243,0.139308 -0.139526,0.139009 h -3.888135 c -0.07709,2.96e-4 -0.13982,-0.06191 -0.139526,-0.139009 v -3.888652 c -2.94e-4,-0.07709 0.06243,-0.139821 0.139526,-0.139526 z m 4.441589,0 h 3.888129 c 0.077,-2.94e-4 0.13931,0.06243 0.13901,0.139526 v 3.888652 c 3e-4,0.07709 -0.0618,0.139304 -0.13901,0.139009 h -3.888129 c -0.077,2.9e-4 -0.139826,-0.06191 -0.139526,-0.139009 v -3.888652 c -3e-4,-0.07709 0.06242,-0.139816 0.139526,-0.139526 z m 4.443139,0 h 3.88606 c 0.077,-2.99e-4 0.13982,0.06243 0.13953,0.139526 v 3.888652 c 2.9e-4,0.07709 -0.0625,0.139308 -0.13953,0.139009 h -3.88606 c -0.077,2.94e-4 -0.13929,-0.06191 -0.13901,-0.139009 v -3.888652 c -2.8e-4,-0.07709 0.0618,-0.13982 0.13901,-0.139526 z m 4.44159,0 h 3.88813 c 0.077,-2.82e-4 0.13929,0.06244 0.13901,0.139526 v 3.888652 c 2.8e-4,0.07708 -0.0618,0.139291 -0.13901,0.139009 h -3.88813 c -0.0771,2.99e-4 -0.14034,-0.06191 -0.14005,-0.139009 v -3.888652 c -2.9e-4,-0.07709 0.0629,-0.139825 0.14005,-0.139526 z m 4.44314,0 h 3.88658 c 0.0771,-2.88e-4 0.13931,0.06243 0.13901,0.139526 v 3.888652 c 1.5e-4,0.03855 -0.0155,0.0725 -0.0408,0.09767 -0.0253,0.02517 -0.0602,0.04148 -0.0987,0.04134 h -3.88606 c -0.077,2.99e-4 -0.13931,-0.06191 -0.13901,-0.139009 v -3.888652 c -3e-4,-0.07709 0.0619,-0.139825 0.13901,-0.139526 z m 4.4452,4.44314 h 3.88555 c 0.0771,-2.99e-4 0.13982,0.06243 0.13953,0.139526 v 3.886068 c 2.9e-4,0.07709 -0.0624,0.139308 -0.13953,0.139009 h -3.88555 c -0.077,2.88e-4 -0.1398,-0.06192 -0.13952,-0.139009 v -3.886068 c -2.8e-4,-0.07709 0.0623,-0.139814 0.13952,-0.139526 z m 4.44107,0 h 3.88814 c 0.0771,-2.99e-4 0.13983,0.06243 0.13953,0.139526 v 3.886068 c 3e-4,0.07709 -0.0624,0.139308 -0.13953,0.139009 h -3.88814 c -0.0771,2.82e-4 -0.13929,-0.06193 -0.139,-0.139009 v -3.886068 c -2.9e-4,-0.07708 0.0618,-0.139807 0.139,-0.139526 z m 4.44314,0 h 3.88659 c 0.0771,-2.94e-4 0.13931,0.06243 0.13901,0.139526 v 3.886068 c 3e-4,0.07709 -0.0618,0.139303 -0.13901,0.139009 h -3.88659 c -0.077,2.99e-4 -0.13931,-0.06192 -0.13901,-0.139009 v -3.886068 c -3e-4,-0.07709 0.0619,-0.139825 0.13901,-0.139526 z m 4.44159,0 h 3.88762 c 0.077,-2.9e-4 0.14032,0.06243 0.14004,0.139526 v 3.886068 c 2.8e-4,0.07709 -0.063,0.139299 -0.14004,0.139009 h -3.88762 c -0.0771,2.94e-4 -0.13929,-0.06192 -0.13901,-0.139009 v -3.886068 c -2.8e-4,-0.07709 0.0618,-0.13982 0.13901,-0.139526 z M 1.3916439,32.235246 h 3.8881347 c 0.077092,-2.95e-4 0.1393038,0.06243 0.1390096,0.139527 v 3.886067 c 2.932e-4,0.07709 -0.061917,0.139306 -0.1390096,0.13901 H 1.3916439 c -0.07709,2.95e-4 -0.1403369,-0.06192 -0.1400432,-0.13901 v -3.886067 c -2.943e-4,-0.07709 0.062952,-0.13982 0.1400432,-0.139527 z m 4.4431396,0 h 3.8865844 c 0.07709,-2.93e-4 0.1387868,0.06243 0.1384928,0.139527 v 3.886067 c 2.94e-4,0.07709 -0.061396,0.139305 -0.1384928,0.13901 H 5.8347835 c -0.07709,2.95e-4 -0.1398205,-0.06192 -0.1395264,-0.13901 v -3.886067 c -2.941e-4,-0.07709 0.062434,-0.13982 0.1395264,-0.139527 z m 4.4415885,0 h 3.887618 c 0.07709,-2.93e-4 0.139821,0.06243 0.139527,0.139527 v 3.886067 c 2.94e-4,0.07709 -0.06243,0.139305 -0.139527,0.13901 h -3.887618 c -0.07709,2.95e-4 -0.13982,-0.06192 -0.139526,-0.13901 v -3.886067 c -2.94e-4,-0.07709 0.06243,-0.13982 0.139526,-0.139527 z m 4.443657,0 h 3.885551 c 0.0773,-5.97e-4 0.14034,0.06222 0.140043,0.139527 v 3.886067 c 2.96e-4,0.07731 -0.06274,0.139606 -0.140043,0.13901 h -3.885551 c -0.07709,2.95e-4 -0.139304,-0.06192 -0.13901,-0.13901 v -3.886067 c -2.94e-4,-0.07709 0.06192,-0.13982 0.13901,-0.139527 z m 4.441072,0 h 3.888652 c 0.07709,-2.93e-4 0.13982,0.06243 0.139526,0.139527 v 3.886067 c 2.94e-4,0.07709 -0.06243,0.139305 -0.139526,0.13901 h -3.888652 c -0.07709,2.95e-4 -0.139303,-0.06192 -0.139009,-0.13901 v -3.886067 c -2.94e-4,-0.07709 0.06191,-0.13982 0.139009,-0.139527 z m 4.444173,0 h 3.885551 c 0.07709,-2.93e-4 0.139822,0.06243 0.139527,0.139527 v 3.886067 c 2.95e-4,0.07709 -0.06244,0.139305 -0.139527,0.13901 h -3.885551 c -0.07709,2.95e-4 -0.139821,-0.06192 -0.139526,-0.13901 v -3.886067 c -2.95e-4,-0.07709 0.06243,-0.13982 0.139526,-0.139527 z m 4.441073,0 h 3.888135 c 0.07709,-2.93e-4 0.139301,0.06243 0.139009,0.139527 v 3.886067 c 2.92e-4,0.07709 -0.06191,0.139305 -0.139009,0.13901 h -3.888135 c -0.07709,2.95e-4 -0.13982,-0.06192 -0.139526,-0.13901 v -3.886067 c -2.94e-4,-0.07709 0.06244,-0.13982 0.139526,-0.139527 z m 4.441072,0 h 3.888652 c 0.07709,-2.93e-4 0.139305,0.06243 0.13901,0.139527 v 3.886067 c 2.95e-4,0.07709 -0.06191,0.139305 -0.13901,0.13901 h -3.888652 c -0.07709,2.95e-4 -0.13982,-0.06192 -0.139526,-0.13901 v -3.886067 c -2.94e-4,-0.07709 0.06244,-0.13982 0.139526,-0.139527 z m 4.443657,0 h 3.886067 c 0.07709,-2.93e-4 0.139822,0.06243 0.139527,0.139527 v 3.886067 c 2.95e-4,0.07709 -0.06244,0.139305 -0.139527,0.13901 h -3.886067 c -0.07709,2.95e-4 -0.139305,-0.06192 -0.13901,-0.13901 v -3.886067 c -2.95e-4,-0.07709 0.06191,-0.13982 0.13901,-0.139527 z m 4.441589,0 h 3.887618 c 0.07709,-2.93e-4 0.139818,0.06243 0.139526,0.139527 v 3.886067 c 2.92e-4,0.07709 -0.06243,0.139305 -0.139526,0.13901 h -3.887618 c -0.07709,2.95e-4 -0.13982,-0.06192 -0.139526,-0.13901 v -3.886067 c -2.94e-4,-0.07709 0.06243,-0.13982 0.139526,-0.139527 z m 4.44314,0 h 3.886067 c 0.07709,-2.93e-4 0.139822,0.06243 0.139527,0.139527 v 3.886067 c 2.95e-4,0.07709 -0.06244,0.139305 -0.139527,0.13901 h -3.886067 c -0.07729,5.98e-4 -0.139307,-0.0617 -0.13901,-0.13901 v -3.886067 c -2.98e-4,-0.0773 0.06172,-0.140125 0.13901,-0.139527 z m 4.442106,0 h 3.888134 c 0.07709,-2.93e-4 0.139821,0.06243 0.139527,0.139527 v 3.886067 c 2.94e-4,0.07709 -0.06244,0.139305 -0.139527,0.13901 h -3.888134 c -0.07709,2.95e-4 -0.139822,-0.06192 -0.139527,-0.13901 v -3.886067 c -2.95e-4,-0.07709 0.06243,-0.13982 0.139527,-0.139527 z m 4.443656,0 h 3.885551 c 0.07709,-2.93e-4 0.139303,0.06243 0.13901,0.139527 v 3.886067 c 2.93e-4,0.07709 -0.06191,0.139305 -0.13901,0.13901 h -3.885551 c -0.07709,2.95e-4 -0.140335,-0.06192 -0.140043,-0.13901 v -3.886067 c -2.92e-4,-0.07709 0.06295,-0.13982 0.140043,-0.139527 z m 4.440556,0 h 3.888651 c 0.07709,-2.93e-4 0.139304,0.06243 0.13901,0.139527 v 3.886067 c 2.94e-4,0.07709 -0.06191,0.139305 -0.13901,0.13901 h -3.888651 c -0.07709,2.97e-4 -0.139304,-0.06192 -0.13901,-0.13901 v -3.886067 c -2.94e-4,-0.07709 0.06192,-0.139822 0.13901,-0.139527 z m 4.443656,0 h 3.886068 c 0.07709,-2.93e-4 0.140337,0.06243 0.140043,0.139527 v 3.886067 c 2.94e-4,0.07709 -0.06295,0.139305 -0.140043,0.13901 h -3.886068 c -0.07709,2.95e-4 -0.139303,-0.06192 -0.139009,-0.13901 v -3.886067 c -2.94e-4,-0.07709 0.06191,-0.13982 0.139009,-0.139527 z m 4.44159,0 h 3.888134 c 0.07709,-2.93e-4 0.139305,0.06243 0.13901,0.139527 v 3.886067 c 2.95e-4,0.07709 -0.06192,0.139305 -0.13901,0.13901 h -3.888134 c -0.07709,2.95e-4 -0.13982,-0.06192 -0.139527,-0.13901 v -3.886067 c -2.93e-4,-0.07709 0.06243,-0.13982 0.139527,-0.139527 z m 4.443656,0 h 3.885551 c 0.07709,-2.93e-4 0.13982,0.06243 0.139526,0.139527 v 3.886067 c 2.94e-4,0.07709 -0.06243,0.139305 -0.139526,0.13901 h -3.885551 c -0.07709,2.95e-4 -0.13982,-0.06192 -0.139526,-0.13901 v -3.886067 c -2.94e-4,-0.07709 0.06243,-0.13982 0.139526,-0.139527 z m 4.441072,0 h 3.888135 c 0.07709,-2.93e-4 0.139822,0.06243 0.139527,0.139527 v 3.886067 c 2.95e-4,0.07709 -0.06243,0.139305 -0.139527,0.13901 h -3.888135 c -0.07709,2.95e-4 -0.13982,-0.06192 -0.139526,-0.13901 v -3.886067 c -2.94e-4,-0.07709 0.06243,-0.13982 0.139526,-0.139527 z m 4.444174,0 h 3.88555 c 0.0773,-5.97e-4 0.139307,0.06222 0.13901,0.139527 v 3.886067 c 2.96e-4,0.07731 -0.06171,0.139606 -0.13901,0.13901 h -3.88555 c -0.07709,2.95e-4 -0.140339,-0.06192 -0.140044,-0.13901 v -3.886067 c -2.95e-4,-0.07709 0.06296,-0.13982 0.140044,-0.139527 z m 4.441072,0 h 3.888135 c 0.07709,-2.93e-4 0.13982,0.06243 0.139526,0.139527 v 3.886067 c 2.94e-4,0.07709 -0.06243,0.139305 -0.139526,0.13901 h -3.888135 c -0.07709,2.95e-4 -0.13982,-0.06192 -0.139526,-0.13901 v -3.886067 c -2.94e-4,-0.07709 0.06243,-0.13982 0.139526,-0.139527 z m 4.44314,0 h 3.886067 c 0.07709,-2.93e-4 0.140338,0.06243 0.140044,0.139527 v 3.886067 c 2.94e-4,0.07709 -0.06296,0.139305 -0.140044,0.13901 h -3.886067 c -0.07709,2.95e-4 -0.138787,-0.06192 -0.138493,-0.13901 v -3.886067 c -2.94e-4,-0.07709 0.0614,-0.13982 0.138493,-0.139527 z m 4.441589,0 h 3.888135 c 0.077,-2.98e-4 0.139816,0.06243 0.139526,0.139527 v 3.886067 c 2.9e-4,0.07709 -0.06243,0.13931 -0.139526,0.13901 h -3.888135 c -0.07709,2.97e-4 -0.13982,-0.06192 -0.139526,-0.13901 v -3.886067 c -2.94e-4,-0.07709 0.06243,-0.139822 0.139526,-0.139527 z m 4.441589,0 h 3.888129 c 0.077,-2.93e-4 0.13931,0.06243 0.13901,0.139527 v 3.886067 c 3e-4,0.07709 -0.0618,0.139305 -0.13901,0.13901 h -3.888129 c -0.077,2.91e-4 -0.139826,-0.06192 -0.139526,-0.13901 v -3.886067 c -3e-4,-0.07709 0.06242,-0.139817 0.139526,-0.139527 z m 4.443139,0 h 3.88606 c 0.077,-2.98e-4 0.13982,0.06243 0.13953,0.139527 v 3.886067 c 2.9e-4,0.07709 -0.0625,0.13931 -0.13953,0.13901 h -3.88606 c -0.077,2.95e-4 -0.13929,-0.06192 -0.13901,-0.13901 v -3.886067 c -2.8e-4,-0.07709 0.0618,-0.13982 0.13901,-0.139527 z m 4.44159,0 h 3.88813 c 0.077,-2.82e-4 0.13929,0.06244 0.13901,0.139527 v 3.886067 c 2.8e-4,0.07708 -0.0618,0.139291 -0.13901,0.13901 h -3.88813 c -0.0771,3e-4 -0.14034,-0.06192 -0.14005,-0.13901 v -3.886067 c -2.9e-4,-0.07709 0.0629,-0.139825 0.14005,-0.139527 z m 4.44314,0 h 3.88658 c 0.0771,-2.87e-4 0.13931,0.06243 0.13901,0.139527 v 3.886067 c 3e-4,0.07709 -0.0618,0.139299 -0.13901,0.13901 h -3.88658 c -0.077,3e-4 -0.13931,-0.06192 -0.13901,-0.13901 v -3.886067 c -3e-4,-0.07709 0.0619,-0.139825 0.13901,-0.139527 z m 4.44469,4.440556 h 5.1e-4 3.88555 c 0.0771,-2.98e-4 0.13982,0.06295 0.13953,0.140043 v 3.887618 c 2.9e-4,0.07709 -0.0624,0.139309 -0.13953,0.13901 h -3.88555 c -0.077,2.88e-4 -0.1398,-0.06191 -0.13952,-0.13901 v -3.887618 c -1.4e-4,-0.03854 0.0145,-0.07393 0.0398,-0.09922 0.0249,-0.02397 0.0591,-0.03993 0.0966,-0.03979 0.001,-2.7e-5 0.002,-10e-4 0.003,-10e-4 z m 4.44158,0 h 3.88814 c 0.0771,-2.98e-4 0.13983,0.06295 0.13953,0.140043 v 3.887618 c 3e-4,0.07709 -0.0624,0.139309 -0.13953,0.13901 h -3.88814 c -0.0771,2.82e-4 -0.13929,-0.06192 -0.139,-0.13901 v -3.887618 c -2.9e-4,-0.07708 0.0618,-0.140324 0.139,-0.140043 z m 4.44314,0 h 3.88659 c 0.0771,-2.93e-4 0.13931,0.06295 0.13901,0.140043 v 3.887618 c 3e-4,0.07709 -0.0618,0.139304 -0.13901,0.13901 h -3.88659 c -0.077,2.99e-4 -0.13931,-0.06191 -0.13901,-0.13901 v -3.887618 c -3e-4,-0.07709 0.0619,-0.140341 0.13901,-0.140043 z m 4.44159,0 h 3.88762 c 0.077,-2.89e-4 0.14032,0.06295 0.14004,0.140043 v 3.887618 c 2.8e-4,0.07709 -0.063,0.1393 -0.14004,0.13901 h -3.88762 c -0.0771,2.94e-4 -0.13929,-0.06191 -0.13901,-0.13901 v -3.887618 c -2.8e-4,-0.07709 0.0618,-0.140336 0.13901,-0.140043 z m -128.8308861,0.001 h 3.8881347 c 0.077092,-2.94e-4 0.1393038,0.06192 0.1390096,0.139009 v 3.888135 c 2.932e-4,0.07709 -0.061917,0.139822 -0.1390096,0.139526 H 1.3916439 c -0.077092,3.3e-4 -0.1403375,-0.0624 -0.1400432,-0.139492 v -3.888135 c -2.943e-4,-0.07709 0.062952,-0.139301 0.1400432,-0.139009 z m 4.4431396,0 h 3.8865844 c 0.07709,-2.93e-4 0.1387868,0.06192 0.1384928,0.139009 v 3.888135 c 2.94e-4,0.07709 -0.061396,0.139821 -0.1384928,0.139526 H 5.8347835 c -0.07709,2.95e-4 -0.1398205,-0.06243 -0.1395264,-0.139526 v -3.888101 c -2.951e-4,-0.07709 0.062434,-0.139301 0.1395264,-0.139009 z m 4.4415885,0 h 3.887618 c 0.07709,-2.93e-4 0.139821,0.06192 0.139527,0.139009 v 3.888135 c 2.94e-4,0.07709 -0.06243,0.139821 -0.139527,0.139526 h -3.887618 c -0.07709,2.95e-4 -0.13982,-0.06243 -0.139526,-0.139526 v -3.888101 c -2.95e-4,-0.07709 0.06243,-0.139301 0.139526,-0.139009 z m 4.443657,0 h 3.885551 c 0.0773,-5.96e-4 0.14034,0.06171 0.140043,0.139009 v 3.888135 c 2.97e-4,0.07732 -0.06274,0.140122 -0.140043,0.139526 h -3.885551 c -0.07709,2.95e-4 -0.139304,-0.06243 -0.13901,-0.139526 v -3.888101 c -2.96e-4,-0.07709 0.06192,-0.139301 0.13901,-0.139009 z m 4.441072,0 h 3.888652 c 0.07709,-2.93e-4 0.13982,0.06192 0.139526,0.139009 v 3.888135 c 2.94e-4,0.07709 -0.06243,0.139821 -0.139526,0.139526 h -3.888652 c -0.07709,2.95e-4 -0.139303,-0.06243 -0.139009,-0.139526 v -3.888101 c -2.95e-4,-0.07709 0.06191,-0.139301 0.139009,-0.139009 z m 4.444173,0 h 3.885551 c 0.07709,-2.93e-4 0.139822,0.06192 0.139527,0.139009 v 3.888135 c 2.95e-4,0.07709 -0.06244,0.139821 -0.139527,0.139526 h -3.885551 c -0.07709,2.95e-4 -0.139821,-0.06243 -0.139526,-0.139526 v -3.888101 c -2.96e-4,-0.07709 0.06243,-0.139301 0.139526,-0.139009 z m 4.441073,0 h 3.888135 c 0.07709,-2.93e-4 0.139301,0.06192 0.139009,0.139009 v 3.888135 c 2.92e-4,0.07709 -0.06191,0.139821 -0.139009,0.139526 h -3.888135 c -0.07709,2.95e-4 -0.13982,-0.06243 -0.139526,-0.139526 v -3.888101 c -2.95e-4,-0.07709 0.06244,-0.139301 0.139526,-0.139009 z m 4.441072,0 h 3.888652 c 0.07709,-2.93e-4 0.139305,0.06192 0.13901,0.139009 v 3.888135 c 2.95e-4,0.07709 -0.06191,0.139821 -0.13901,0.139526 h -3.888652 c -0.07709,2.95e-4 -0.13982,-0.06243 -0.139526,-0.139526 v -3.888101 c -2.95e-4,-0.07709 0.06244,-0.139301 0.139526,-0.139009 z m 4.443657,0 h 3.886067 c 0.07709,-2.93e-4 0.139822,0.06192 0.139527,0.139009 v 3.888135 c 2.95e-4,0.07709 -0.06244,0.139821 -0.139527,0.139526 h -3.886067 c -0.07709,2.95e-4 -0.139305,-0.06243 -0.13901,-0.139526 v -3.888101 c -2.96e-4,-0.07709 0.06191,-0.139301 0.13901,-0.139009 z m 4.441589,0 h 3.887618 c 0.07709,-2.93e-4 0.139818,0.06192 0.139526,0.139009 v 3.888135 c 2.92e-4,0.07709 -0.06243,0.139821 -0.139526,0.139526 h -3.887618 c -0.07709,2.95e-4 -0.13982,-0.06243 -0.139526,-0.139526 v -3.888101 c -2.95e-4,-0.07709 0.06243,-0.139301 0.139526,-0.139009 z m 4.44314,0 h 3.886067 c 0.07709,-2.93e-4 0.139822,0.06192 0.139527,0.139009 v 3.888135 c 2.95e-4,0.07709 -0.06244,0.139821 -0.139527,0.139526 h -3.886067 c -0.07729,5.97e-4 -0.139308,-0.06223 -0.13901,-0.139526 v -3.888101 c -2.98e-4,-0.0773 0.06172,-0.139606 0.13901,-0.139009 z m 4.442106,0 h 3.888134 c 0.07709,-2.93e-4 0.139821,0.06192 0.139527,0.139009 v 3.888135 c 2.94e-4,0.07709 -0.06244,0.139821 -0.139527,0.139526 h -3.888134 c -0.07709,2.95e-4 -0.139822,-0.06243 -0.139527,-0.139526 v -3.888101 c -2.96e-4,-0.07709 0.06243,-0.139301 0.139527,-0.139009 z m 4.443656,0 h 3.885551 c 0.07709,-2.93e-4 0.139303,0.06192 0.13901,0.139009 v 3.888135 c 2.93e-4,0.07709 -0.06191,0.139821 -0.13901,0.139526 h -3.885551 c -0.07709,2.95e-4 -0.140335,-0.06243 -0.140043,-0.139526 v -3.888101 c -2.93e-4,-0.07709 0.06295,-0.139301 0.140043,-0.139009 z m 4.440556,0 h 3.888651 c 0.07709,-2.93e-4 0.139304,0.06192 0.13901,0.139009 v 3.888135 c 2.94e-4,0.07709 -0.06191,0.139821 -0.13901,0.139526 h -3.888651 c -0.07709,2.96e-4 -0.139304,-0.06243 -0.13901,-0.139526 v -3.888101 c -2.95e-4,-0.07709 0.06192,-0.139302 0.13901,-0.139009 z m 4.443656,0 h 3.886068 c 0.07709,-2.93e-4 0.140337,0.06192 0.140043,0.139009 v 3.888135 c 2.94e-4,0.07709 -0.06295,0.139821 -0.140043,0.139526 h -3.886068 c -0.07709,2.95e-4 -0.139303,-0.06243 -0.139009,-0.139526 v -3.888101 c -2.95e-4,-0.07709 0.06191,-0.139301 0.139009,-0.139009 z m 4.44159,0 h 3.888134 c 0.07709,-2.93e-4 0.139305,0.06192 0.13901,0.139009 v 3.888135 c 2.95e-4,0.07709 -0.06192,0.139821 -0.13901,0.139526 h -3.888134 c -0.07709,2.95e-4 -0.13982,-0.06243 -0.139527,-0.139526 v -3.888101 c -2.94e-4,-0.07709 0.06243,-0.139301 0.139527,-0.139009 z m 4.443656,0 h 3.885551 c 0.07709,-2.93e-4 0.13982,0.06192 0.139526,0.139009 v 3.888135 c 2.94e-4,0.07709 -0.06243,0.139821 -0.139526,0.139526 h -3.885551 c -0.07709,2.95e-4 -0.13982,-0.06243 -0.139526,-0.139526 v -3.888101 c -2.95e-4,-0.07709 0.06243,-0.139301 0.139526,-0.139009 z m 4.441072,0 h 3.888135 c 0.07709,-2.93e-4 0.139822,0.06192 0.139527,0.139009 v 3.888135 c 2.95e-4,0.07709 -0.06243,0.139821 -0.139527,0.139526 h -3.888135 c -0.07709,2.95e-4 -0.13982,-0.06243 -0.139526,-0.139526 v -3.888101 c -2.95e-4,-0.07709 0.06243,-0.139301 0.139526,-0.139009 z m 4.444174,0 h 3.88555 c 0.0773,-5.96e-4 0.139307,0.06171 0.13901,0.139009 v 3.888135 c 2.97e-4,0.07732 -0.06171,0.140122 -0.13901,0.139526 h -3.88555 c -0.07709,2.95e-4 -0.140339,-0.06243 -0.140044,-0.139526 v -3.888101 c -2.96e-4,-0.07709 0.06296,-0.139301 0.140044,-0.139009 z m 4.441072,0 h 3.888135 c 0.07709,-2.93e-4 0.13982,0.06192 0.139526,0.139009 v 3.888135 c 2.94e-4,0.07709 -0.06243,0.139821 -0.139526,0.139526 h -3.888135 c -0.07709,2.95e-4 -0.13982,-0.06243 -0.139526,-0.139526 v -3.888101 c -2.95e-4,-0.07709 0.06243,-0.139301 0.139526,-0.139009 z m 4.44314,0 h 3.886067 c 0.07709,-2.93e-4 0.140338,0.06192 0.140044,0.139009 v 3.888135 c 2.94e-4,0.07709 -0.06296,0.139821 -0.140044,0.139526 h -3.886067 c -0.07709,2.95e-4 -0.138787,-0.06243 -0.138493,-0.139526 v -3.888101 c -2.95e-4,-0.07709 0.0614,-0.139301 0.138493,-0.139009 z m 4.441589,0 h 3.888135 c 0.077,-2.97e-4 0.139816,0.06192 0.139526,0.139009 v 3.888135 c 2.9e-4,0.07709 -0.06243,0.139825 -0.139526,0.139526 h -3.888135 c -0.07709,2.96e-4 -0.13982,-0.06243 -0.139526,-0.139526 v -3.888101 c -2.94e-4,-0.07709 0.06243,-0.139302 0.139526,-0.139009 z m 4.441589,0 h 3.888129 c 0.077,-2.93e-4 0.13931,0.06192 0.13901,0.139009 v 3.888135 c 3e-4,0.07709 -0.0618,0.139821 -0.13901,0.139526 h -3.888129 c -0.077,2.91e-4 -0.139826,-0.06243 -0.139526,-0.139526 v -3.888101 c -3e-4,-0.07709 0.06242,-0.139298 0.139526,-0.139009 z m 4.443139,0 h 3.88606 c 0.077,-2.99e-4 0.13982,0.06192 0.13953,0.139009 v 3.888135 c 2.9e-4,0.07709 -0.0625,0.139826 -0.13953,0.139526 h -3.88606 c -0.077,2.95e-4 -0.13929,-0.06243 -0.13901,-0.139526 v -3.888101 c -2.8e-4,-0.07709 0.0618,-0.139301 0.13901,-0.139009 z m 4.44159,0 h 3.88813 c 0.077,-2.8e-4 0.13929,0.06193 0.13901,0.139009 v 3.888135 c 2.8e-4,0.07708 -0.0618,0.139809 -0.13901,0.139526 h -3.88813 c -0.0771,3e-4 -0.14034,-0.06243 -0.14005,-0.139526 v -3.888101 c -2.9e-4,-0.07709 0.0629,-0.139307 0.14005,-0.139009 z m 4.44314,0 h 3.88658 c 0.0771,-2.86e-4 0.13931,0.06192 0.13901,0.139009 v 3.888135 c 2.9e-4,0.07606 -0.0607,0.137103 -0.13643,0.138493 h -0.38085 c 7e-5,3.37e-4 -5e-5,8.03e-4 0,10e-4 h -3.50831 c -0.077,2.98e-4 -0.13931,-0.06243 -0.13901,-0.139526 v -3.888652 c -3e-4,-0.07709 0.0619,-0.138792 0.13901,-0.138492 z"
       clip-path="url(#clipPath481)"
       transform="translate(0.18709116,4.3007901)" /><text
       xml:space="preserve"
       style="font-style:normal;font-variant:normal;font-weight:normal;font-stretch:normal;font-size:6.71967px;line-height:1.25;font-family:Rosegarden;-inkscape-font-specification:'Rosegarden, Normal';font-variant-ligatures:normal;font-variant-caps:normal;font-variant-numeric:normal;font-variant-east-asian:normal;fill:#ffffff;fill-opacity:1;stroke:none;stroke-width:0.264583"
       x="108.53979"
       y="40.855743"
       id="text482"><tspan
         sodipodi:role="line"
         id="tspan482"
         style="font-style:normal;font-variant:normal;font-weight:normal;font-stretch:normal;font-size:6.71967px;font-family:'SEGA LOGO FONT';-inkscape-font-specification:'SEGA LOGO FONT, Normal';font-variant-ligatures:normal;font-variant-caps:normal;font-variant-numeric:normal;font-variant-east-asian:normal;fill:#ffffff;stroke-width:0.264583"
         x="108.53979"
         y="40.855743">BEGA</tspan></text><text
       xml:space="preserve"
       style="font-style:normal;font-variant:normal;font-weight:normal;font-stretch:normal;font-size:12.6565px;line-height:1.25;font-family:'Baskerville BT';-inkscape-font-specification:'Baskerville BT, Normal';font-variant-ligatures:normal;font-variant-caps:normal;font-variant-numeric:normal;font-variant-east-asian:normal;fill:#ffffff;fill-opacity:1;stroke:none;stroke-width:0.264582"
       x="9.0473986"
       y="37.339359"
       id="text483"><tspan
         sodipodi:role="line"
         id="tspan483"
         style="font-style:normal;font-variant:normal;font-weight:normal;font-stretch:normal;font-size:12.6565px;font-family:'Baskerville BT';-inkscape-font-specification:'Baskerville BT, Normal';font-variant-ligatures:normal;font-variant-caps:normal;font-variant-numeric:normal;font-variant-east-asian:normal;fill:#ffffff;stroke-width:0.264582"
         x="9.0473986"
         y="37.339359">Blip Blap</tspan></text><text
       xml:space="preserve"
       style="font-style:normal;font-weight:normal;font-size:2.95433px;line-height:1.25;font-family:sans-serif;fill:#ffffff;fill-opacity:1;stroke:none;stroke-width:0.264583"
       x="63.884808"
       y="30.333353"
       id="text1"><tspan
         sodipodi:role="line"
         id="tspan1"
         style="fill:#ffffff;fill-opacity:1;stroke-width:0.264583"
         x="63.884808"
         y="30.333353">TM</tspan></text><text
       xml:space="preserve"
       style="font-style:normal;font-weight:normal;font-size:2.94666px;line-height:1.25;font-family:sans-serif;fill:#ffffff;fill-opacity:1;stroke:none;stroke-width:0.264583"
       x="129.44469"
       y="36.326984"
       id="text21"><tspan
         sodipodi:role="line"
         id="tspan21"
         style="font-style:normal;font-variant:normal;font-weight:normal;font-stretch:normal;font-size:2.94666px;font-family:'SureThing DVD Symbols II';-inkscape-font-specification:'SureThing DVD Symbols II, Normal';font-variant-ligatures:normal;font-variant-caps:normal;font-variant-numeric:normal;font-variant-east-asian:normal;fill:#ffffff;stroke-width:0.264583"
         x="129.44469"
         y="36.326984">R</tspan></text><path
       id="path24"
       style="display:inline;opacity:0.04;mix-blend-mode:overlay;fill:#0f0f0f;fill-opacity:1;stroke-width:2.11667;stroke-linecap:round;stroke-linejoin:round;stroke-dashoffset:149.514;paint-order:markers stroke fill;filter:url(#filter25)"
       d="m 0.23463348,23.153386 c -0.0262822,0 -0.0475423,0.02126 -0.0475423,0.04754 v 0.563273 22.581567 a 2.1166666,2.1166666 0 0 1 2.11666664,2.116667 2.1166666,2.1166666 0 0 1 -2.11666664,2.116667 v 1.058333 a 2.1166666,2.1166666 0 0 1 2.11666664,2.116667 2.1166666,2.1166666 0 0 1 -2.11666664,2.116666 v 1.058334 A 2.1166666,2.1166666 0 0 1 2.3037578,59.045768 2.1166666,2.1166666 0 0 1 0.18709116,61.162435 V 112.90966 H 135.65375 V 61.162435 a 2.1166666,2.1166666 0 0 1 -2.11666,-2.116667 2.1166666,2.1166666 0 0 1 2.11666,-2.116666 v -1.058334 a 2.1166666,2.1166666 0 0 1 -2.11666,-2.116666 2.1166666,2.1166666 0 0 1 2.11666,-2.116667 v -1.058333 a 2.1166666,2.1166666 0 0 1 -2.11666,-2.116667 2.1166666,2.1166666 0 0 1 2.11666,-2.116667 V 23.764201 23.24382 23.200928 c 0,-0.02628 -0.0213,-0.04754 -0.0475,-0.04754 h -1.757 c -0.0263,0 -0.0475,0.02126 -0.0475,0.04754 v 0.04289 H 2.0391745 v -0.04289 c 0,-0.02628 -0.02126,-0.04754 -0.047542,-0.04754 z" /><path
       id="path1"
       style="display:inline;opacity:0.4;fill:url(#linearGradient3);fill-opacity:1;stroke-width:2.11667;stroke-linecap:round;stroke-linejoin:round;stroke-dashoffset:149.514;paint-order:markers stroke fill"
       d="m 0.234611,23.153625 c -0.0262999,0 -0.0475423,0.02126 -0.0475423,0.04754 v 0.563273 22.581567 h 0.37413737 v -22.20743 -0.563273 c 0,-0.02628 0.0212424,-0.04754 0.0475423,-0.04754 H 1.9916097 c 0.0262,0 0.047542,0.02126 0.047542,0.04754 v 0.04289 H 134.17579 v -0.04289 c 0,-0.02628 0.0212,-0.04754 0.0475,-0.04754 h 1.4304 v -0.283704 -0.04289 c 0,-0.02628 -0.0213,-0.04754 -0.0475,-0.04754 h -1.757 c -0.0263,0 -0.0475,0.02126 -0.0475,0.04754 v 0.04289 H 2.039152 v -0.04289 c 0,-0.02628 -0.021343,-0.04754 -0.047542,-0.04754 z m 2.0691243,25.309049 c 2e-7,1.168998 -0.9476687,2.116663 -2.11666662,2.116667 v 1.058333 h 0.37413737 v -0.05426 -0.629936 -0.241845 H 1.4970662 c 0.6928681,-0.347786 1.1808066,-1.046744 1.1808065,-1.874821 0,-0.01329 -0.380545,-0.820781 -0.3741374,-0.374138 z M 134.28328,50.069295 c 0.17332,0.209397 0.38395,0.381827 0.61927,0.509807 l 0.61269,2.39e-4 c -0.45488,-0.03285 -0.88698,-0.211751 -1.23196,-0.510046 z M 2.3037353,53.754341 c -3e-7,1.168998 -0.9476691,2.116663 -2.11666662,2.116667 v 1.058333 H 0.56120605 V 56.245145 56.003299 H 1.4970662 c 0.6928677,-0.347786 1.1808066,-1.046743 1.1808065,-1.874821 0,0 -0.380545,-0.82078 -0.3741374,-0.374137 z m 131.9795447,1.60662 c 0.1735,0.20961 0.38438,0.382176 0.61998,0.510196 l 0.61198,-1.49e-4 c -0.45488,-0.03285 -0.88698,-0.211751 -1.23196,-0.510047 z M 2.3037353,59.046008 c 2e-7,1.168996 -0.9476687,2.116662 -2.11666662,2.116666 V 112.9099 H 0.56120605 V 62.221008 61.536812 61.294966 H 1.4970662 c 0.6928676,-0.347786 1.1808063,-1.046743 1.1808065,-1.874821 0,0.0059 -0.4059798,-0.81314 -0.3741374,-0.374137 z m 131.9795447,1.60662 c 0.1727,0.208648 0.38245,0.380592 0.61674,0.508432 l 0.61522,0.0016 c -0.45488,-0.03286 -0.88698,-0.21175 -1.23196,-0.510046 z"
       sodipodi:nodetypes="ssccccssssccssccssssccssscccccccccccccccccccccccccccccccccccccccccc" /><path
       id="path5"
       style="display:inline;opacity:0.102243;fill:url(#linearGradient10);fill-opacity:1;stroke-width:2.11667;stroke-linecap:round;stroke-linejoin:round;stroke-dashoffset:149.514;paint-order:markers stroke fill;filter:url(#filter10)"
       inkscape:label="label-wash"
       d="m 2.5683594,44.578125 c 43.5677086,0 87.1354166,0 130.7031206,0 0,-6.934896 0,-13.869792 0,-20.804687 -43.567704,-10e-7 -87.135412,0 -130.7031206,0 0,6.934895 0,13.869791 0,20.804687 z" /></g></svg>
