<?xml version="1.0" encoding="UTF-8" standalone="no"?>
<!-- Created with Inkscape (http://www.inkscape.org/) -->

<svg
   width="512"
   height="512"
   viewBox="0 0 135.46666 135.46667"
   version="1.1"
   id="svg5"
   inkscape:version="1.4.2 (ebf0e940d0, 2025-05-08)"
   sodipodi:docname="application-x-nintendo-3ds-rom.svg"
   xmlns:inkscape="http://www.inkscape.org/namespaces/inkscape"
   xmlns:sodipodi="http://sodipodi.sourceforge.net/DTD/sodipodi-0.dtd"
   xmlns:xlink="http://www.w3.org/1999/xlink"
   xmlns="http://www.w3.org/2000/svg"
   xmlns:svg="http://www.w3.org/2000/svg">
  <sodipodi:namedview
     id="namedview7"
     pagecolor="#242424"
     bordercolor="#666666"
     borderopacity="1"
     inkscape:showpageshadow="0"
     inkscape:pageopacity="0"
     inkscape:pagecheckerboard="1"
     inkscape:deskcolor="#000000"
     inkscape:document-units="px"
     showgrid="false"
     inkscape:zoom="1.84375"
     inkscape:cx="286.64407"
     inkscape:cy="250.84746"
     inkscape:window-width="3256"
     inkscape:window-height="1080"
     inkscape:window-x="1864"
     inkscape:window-y="0"
     inkscape:window-maximized="0"
     inkscape:current-layer="layer1" />
  <defs
     id="defs2">
    <linearGradient
       id="linearGradient5"
       inkscape:collect="always">
      <stop
         style="stop-color:#f9f9f9;stop-opacity:1;"
         offset="0.23333333"
         id="stop5" />
      <stop
         style="stop-color:#0053ff;stop-opacity:1;"
         offset="0.23333333"
         id="stop7" />
      <stop
         style="stop-color:#bbcde6;stop-opacity:1;"
         offset="0.54666668"
         id="stop8" />
      <stop
         style="stop-color:#85ff00;stop-opacity:1;"
         offset="0.77333331"
         id="stop6" />
      <stop
         style="stop-color:#608c30;stop-opacity:1;"
         offset="1"
         id="stop9" />
    </linearGradient>
    <inkscape:path-effect
       effect="fillet_chamfer"
       id="path-effect5"
       is_visible="true"
       lpeversion="1"
       nodesatellites_param="F,0,0,1,0,0,0,1 @ F,0,0,1,0,0,0,1 @ F,0,0,1,0,0,0,1 @ F,0,0,1,0,0,0,1 @ F,0,0,1,0,0,0,1 @ F,0,1,1,0,1.0583333,0,1 @ F,0,1,1,0,1.0583333,0,1 @ F,0,0,1,0,0,0,1"
       radius="4"
       unit="px"
       method="auto"
       mode="F"
       chamfer_steps="1"
       flexible="false"
       use_knot_distance="true"
       apply_no_radius="true"
       apply_with_radius="true"
       only_selected="true"
       hide_knots="false" />
    <inkscape:path-effect
       effect="fillet_chamfer"
       id="path-effect4"
       is_visible="true"
       lpeversion="1"
       nodesatellites_param="F,0,0,1,0,0,0,1 @ F,0,0,1,0,0,0,1 @ F,0,0,1,0,0,0,1 @ F,0,1,1,0,1.0583333,0,1 @ F,0,0,1,0,0,0,1 @ F,0,0,1,0,0,0,1 @ F,0,0,1,0,0,0,1 @ F,0,0,1,0,0,0,1 @ F,0,0,1,0,0,0,1 @ F,0,0,1,0,0,0,1 @ F,0,0,1,0,0,0,1"
       radius="4"
       unit="px"
       method="auto"
       mode="F"
       chamfer_steps="1"
       flexible="false"
       use_knot_distance="true"
       apply_no_radius="true"
       apply_with_radius="true"
       only_selected="true"
       hide_knots="false" />
    <inkscape:path-effect
       effect="fillet_chamfer"
       id="path-effect3"
       is_visible="true"
       lpeversion="1"
       nodesatellites_param="F,0,0,1,0,0,0,1 @ F,0,1,1,0,9.5249995,0,1 @ F,0,0,1,0,0,0,1 @ F,0,0,1,0,0,0,1 @ F,0,0,1,0,0,0,1 @ F,0,0,1,0,0,0,1 @ F,0,0,1,0,0,0,1 @ F,0,0,1,0,0,0,1 @ F,0,0,1,0,0,0,1 @ F,0,0,1,0,0,0,1"
       radius="36"
       unit="px"
       method="auto"
       mode="F"
       chamfer_steps="1"
       flexible="false"
       use_knot_distance="true"
       apply_no_radius="true"
       apply_with_radius="true"
       only_selected="true"
       hide_knots="false" />
    <inkscape:path-effect
       effect="fillet_chamfer"
       id="path-effect2"
       is_visible="true"
       lpeversion="1"
       nodesatellites_param="F,0,1,1,0,1.3229166,0,1 @ F,0,0,1,0,0,0,1 @ F,0,0,1,0,0,0,1 @ F,0,1,1,0,1.3229166,0,1 @ F,0,1,1,0,1.3229166,0,1 @ F,0,1,1,0,1.3229166,0,1"
       radius="5"
       unit="px"
       method="auto"
       mode="F"
       chamfer_steps="1"
       flexible="false"
       use_knot_distance="true"
       apply_no_radius="true"
       apply_with_radius="true"
       only_selected="true"
       hide_knots="false" />
    <linearGradient
       inkscape:collect="always"
       xlink:href="#linearGradient5"
       id="linearGradient6"
       x1="63.762234"
       y1="13.473898"
       x2="63.762234"
       y2="121.99277"
       gradientUnits="userSpaceOnUse" />
  </defs>
  <g
     inkscape:label="Layer 1"
     inkscape:groupmode="layer"
     id="layer1">
    <path
       id="rect1"
       style="fill:#b3b3b3;stroke:none;stroke-width:1.8896;stroke-linecap:round;stroke-linejoin:round;stroke-miterlimit:12;paint-order:markers stroke fill"
       d="M 2.0468624e-6,2.5966061 V 122.77477 C 1.730813e-6,129.24951 5.2488274,134.49833 11.723582,134.49833 H 126.22185 c 0.71941,0 1.30261,-0.58319 1.30262,-1.3026 V 26.971123 c 0,-0.899274 0.729,-1.628278 1.62828,-1.628275 h 4.68564 c 0.89927,0 1.62827,-0.729003 1.62827,-1.628276 V 2.5966061 c 0,-0.8992734 -0.729,-1.62827775 -1.62827,-1.62827554 H 127.52447 64.576373 1.6282777 C 0.72900581,0.96833056 2.0468624e-6,1.6973339 2.0468624e-6,2.5966061 Z"
       sodipodi:nodetypes="cccccccssscscsc" />
    <path
       id="rect4"
       style="fill:url(#linearGradient6);stroke:#999999;stroke-width:3.34486;stroke-linecap:round;stroke-linejoin:round;stroke-miterlimit:12;stroke-dasharray:none;stroke-opacity:1;paint-order:markers stroke fill"
       d="M 12.854723,13.473898 H 114.66974 c 1.85697,0 3.35193,1.494962 3.35193,3.351934 V 118.64084 c 0,1.85697 -1.49496,3.35193 -3.35193,3.35193 H 17.224734 a 2.6375347,2.6375347 0 0 1 -1.865018,-0.77251 l -5.084402,-5.08442 a 2.6375347,2.6375347 0 0 1 -0.7725161,-1.865 V 16.825832 c 0,-1.856972 1.4949561,-3.351934 3.3519251,-3.351934 z"
       sodipodi:nodetypes="sssssccss" />
    <g
       id="text9"
       style="font-weight:600;font-size:23.6023px;line-height:1.25;font-family:'Lucida Sans';-inkscape-font-specification:'Lucida Sans, Semi-Bold';text-align:center;text-orientation:upright;text-anchor:middle;stroke-width:0.732393"
       aria-label="3ZS">
      <path
         style="fill:#ff0000"
         d="m 73.857355,35.285564 v -2.558452 q 2.535404,0.979587 4.206465,0.979587 1.475144,0 2.420158,-0.772145 0.945014,-0.78367 0.945014,-2.09747 0,-0.956539 -0.495556,-1.728684 -0.495556,-0.78367 -1.452095,-1.210079 -0.945014,-0.437934 -2.996386,-0.437934 H 75.43622 V 25.42054 l 0.887391,-0.01152 q 1.959176,0 2.811993,-0.345737 0.852818,-0.357262 1.336849,-1.094833 0.484032,-0.737572 0.484032,-1.59039 0,-1.025686 -0.702998,-1.671061 -0.691474,-0.645376 -2.166618,-0.645376 -1.866979,0 -3.999022,0.956539 v -2.327961 q 1.071784,-0.368786 1.69411,-0.484032 0.633851,-0.12677 1.475144,-0.207442 0.841293,-0.08067 1.590389,-0.08067 2.685223,0 4.137318,1.106358 1.463619,1.106358 1.463619,2.973337 0,1.509717 -0.945014,2.581501 -0.93349,1.06026 -2.823518,1.682586 1.648013,0.380311 2.512355,1.06026 0.875866,0.668424 1.336849,1.590389 0.460982,0.91044 0.460982,1.959175 0,1.936127 -1.532766,3.457369 -1.521242,1.509717 -4.932512,1.509717 -0.898916,0 -1.913078,-0.05762 -1.002636,-0.0461 -2.75437,-0.495556 z"
         id="path3" />
      <path
         d="M 88.078663,35.412334 V 32.992177 L 96.56074,20.69547 h -7.998045 v -2.339486 h 12.123835 v 2.339486 l -8.482074,12.296707 h 8.482074 v 2.420157 z m 15.166317,-0.149819 v -2.927238 q 1.9707,0.829768 2.93877,0.991112 0.97959,0.161344 1.79783,0.161344 1.47514,0 2.20119,-0.668425 0.72605,-0.668424 0.72605,-1.601914 0,-0.714522 -0.39184,-1.290751 -0.39183,-0.564703 -1.98222,-1.463619 l -1.14093,-0.633851 q -2.44321,-1.371422 -3.30755,-2.535403 -0.87587,-1.163981 -0.87587,-2.696747 0,-1.924602 1.4521,-3.296025 1.46361,-1.371422 4.19494,-1.371422 2.03984,0 4.5983,0.587752 v 2.731321 q -2.60456,-0.979588 -4.13732,-0.979588 -1.2677,0 -1.93613,0.564704 -0.6569,0.553179 -0.6569,1.336849 0,0.599277 0.39184,1.117882 0.38031,0.518606 1.9707,1.417521 l 1.2216,0.679949 q 2.80047,1.578865 3.57261,2.742846 0.76063,1.175505 0.76063,2.639124 0,2.09747 -1.59039,3.584139 -1.57887,1.486668 -5.03624,1.486668 -2.05137,0 -4.77117,-0.576228 z"
         id="path4" />
    </g>
    <path
       id="path13"
       style="baseline-shift:baseline;display:inline;overflow:visible;vector-effect:none;stroke-linecap:round;stroke-linejoin:round;stroke-miterlimit:12;paint-order:fill markers stroke;enable-background:accumulate;stop-color:#000000"
       d="M 61.80863 18.375106 C 60.810703 18.375106 59.978767 19.208744 59.978767 20.207035 L 59.978767 24.095687 C 59.978767 25.093978 60.810703 25.927616 61.80863 25.927616 L 67.456864 25.927616 C 68.454791 25.927616 69.285176 25.093978 69.285176 24.095687 L 69.285176 20.207035 C 69.285176 19.208744 68.454791 18.375106 67.456864 18.375106 L 61.80863 18.375106 z M 61.80863 19.578133 L 67.456864 19.578133 C 67.618768 19.578133 67.787891 19.635792 67.907999 19.7559 C 68.028103 19.876009 68.085766 20.045132 68.085766 20.207035 L 68.085766 24.095687 C 68.085766 24.25759 68.028108 24.426713 67.907999 24.546822 C 67.787891 24.666926 67.618768 24.724589 67.456864 24.724589 L 61.80863 24.724589 C 61.646726 24.724589 61.477602 24.666931 61.357494 24.546822 C 61.237386 24.426713 61.17766 24.25759 61.17766 24.095687 L 61.17766 20.207035 C 61.17766 20.045132 61.237385 19.876009 61.357494 19.7559 C 61.477602 19.635796 61.646726 19.578133 61.80863 19.578133 z " />
    <path
       id="path12"
       style="baseline-shift:baseline;display:inline;overflow:visible;vector-effect:none;fill:#4d4d4d;stroke-linecap:round;stroke-linejoin:round;stroke-miterlimit:12;paint-order:fill markers stroke;enable-background:accumulate;stop-color:#000000"
       d="M 61.80863 27.829826 C 60.810343 27.829826 59.978767 28.661919 59.978767 29.660205 L 59.978767 33.550923 C 59.978767 34.54921 60.810343 35.380787 61.80863 35.380786 L 67.456864 35.380786 C 68.455151 35.380786 69.285177 34.54921 69.285176 33.550923 L 69.285176 29.660205 C 69.285176 28.661918 68.455151 27.829826 67.456864 27.829826 L 61.80863 27.829826 z M 61.80863 29.031303 L 67.456864 29.031303 C 67.618767 29.031303 67.78789 29.08896 67.907999 29.209069 C 68.028113 29.329179 68.085766 29.498304 68.085766 29.660205 L 68.085766 33.550923 C 68.085766 33.712825 68.028109 33.881949 67.907999 34.002059 C 67.787889 34.122173 67.618766 34.179825 67.456864 34.179825 L 61.80863 34.179825 C 61.646728 34.179825 61.477604 34.122169 61.357494 34.002059 C 61.237386 33.881949 61.17766 33.712825 61.17766 33.550923 L 61.17766 29.660205 C 61.17766 29.498304 61.237384 29.329179 61.357494 29.209069 C 61.477603 29.088965 61.646727 29.031303 61.80863 29.031303 z " />
    <path
       style="font-weight:bold;font-size:10.2755px;line-height:1.25;font-family:'Adwaita Mono';-inkscape-font-specification:'Adwaita Mono, Bold';text-align:center;text-orientation:upright;text-anchor:middle;stroke-width:0.11519"
       d="m 17.022074,25.92761 v -7.552492 h 2.240059 q 0.308265,0 0.606255,0.06165 0.297989,0.05138 0.565152,0.195234 0.267163,0.143857 0.472673,0.369918 0.215786,0.226061 0.339092,0.5035 0.133581,0.277438 0.184959,0.585703 0.05138,0.29799 0.05138,0.606255 0,0.297989 -0.05138,0.606254 -0.05138,0.29799 -0.184959,0.575428 -0.123306,0.277439 -0.339092,0.5035 -0.20551,0.226061 -0.472673,0.369918 -0.267163,0.143857 -0.565152,0.20551 -0.29799,0.05138 -0.606255,0.05138 h -1.017274 v 2.918242 z m 2.240059,-3.956067 q 0.226061,0 0.441847,-0.102755 0.215785,-0.102755 0.339091,-0.287714 0.133582,-0.195235 0.174684,-0.421296 0.0411,-0.236336 0.0411,-0.462397 0,-0.236337 -0.0411,-0.462398 -0.0411,-0.236336 -0.174684,-0.421295 -0.123306,-0.195235 -0.339091,-0.29799 -0.215786,-0.102755 -0.441847,-0.102755 h -1.017274 v 2.5586 z m 7.141477,3.956067 -1.510499,-2.918242 h -0.688458 v 2.918242 h -1.222785 v -7.552492 h 2.445569 q 0.29799,0 0.595979,0.06165 0.29799,0.06165 0.554877,0.215785 0.256888,0.143857 0.452122,0.369918 0.20551,0.226061 0.318541,0.5035 0.123306,0.267163 0.164408,0.565152 0.05138,0.29799 0.05138,0.606255 0,0.349367 -0.07193,0.709009 -0.06165,0.349367 -0.236337,0.657632 -0.174683,0.29799 -0.462397,0.524051 -0.287714,0.226061 -0.626806,0.328816 l 1.561876,3.010721 z m -2.198957,-3.956067 h 1.222784 q 0.143857,0 0.287714,-0.0411 0.143857,-0.05138 0.256888,-0.143857 0.11303,-0.102755 0.184959,-0.226061 0.07193,-0.133582 0.11303,-0.277439 0.0411,-0.143857 0.05138,-0.287714 0.02055,-0.154132 0.02055,-0.297989 0,-0.154133 -0.02055,-0.29799 -0.01028,-0.154132 -0.05138,-0.287714 -0.0411,-0.143857 -0.11303,-0.277438 -0.07193,-0.133582 -0.184959,-0.226061 -0.113031,-0.102755 -0.256888,-0.143857 -0.143857,-0.05138 -0.287714,-0.05138 h -1.222784 z m 5.024723,3.956067 v -7.552492 h 4.418465 v 1.037825 h -3.19568 v 2.065376 h 2.517497 v 1.037825 h -2.517497 v 2.373641 h 3.19568 v 1.037825 z m 7.727181,0 v -6.514667 h -1.705733 v -1.037825 h 4.623975 v 1.037825 h -1.705733 v 6.514667 z m 4.603428,0 v -7.552492 h 4.418465 v 1.037825 h -3.195681 v 2.065376 h 2.517498 v 1.037825 h -2.517498 v 2.373641 h 3.195681 v 1.037825 z m 6.0831,0 v -7.552492 h 1.294713 l 2.168131,5.630974 q -0.0411,-0.318541 -0.0822,-0.647357 -0.03083,-0.328816 -0.06165,-0.647356 -0.02055,-0.328816 -0.03083,-0.657632 -0.01028,-0.328816 -0.01028,-0.657632 v -3.020997 h 1.222785 V 25.92761 H 50.849041 L 48.68091,20.296636 q 0.0411,0.318541 0.07193,0.647357 0.0411,0.328816 0.06165,0.657632 0.03083,0.31854 0.0411,0.647356 0.01028,0.328816 0.01028,0.657632 v 3.020997 z m 7.901864,0 h -1.73656 v -7.552492 h 1.73656 q 0.267163,0 0.534326,0.0411 0.267163,0.03083 0.513775,0.133581 0.246612,0.102755 0.462397,0.256888 0.226061,0.154132 0.41102,0.349367 0.184959,0.195234 0.318541,0.421295 0.143857,0.226061 0.246612,0.472673 0.102755,0.246612 0.174683,0.513775 0.07193,0.256888 0.113031,0.524051 0.0411,0.256887 0.05138,0.52405 0.02055,0.267163 0.02055,0.534326 0,0.277439 -0.02055,0.544602 -0.01028,0.267163 -0.05138,0.534326 -0.0411,0.256887 -0.113031,0.52405 -0.07193,0.256888 -0.174683,0.5035 -0.102755,0.246612 -0.246612,0.472673 -0.133582,0.226061 -0.318541,0.421295 -0.184959,0.195235 -0.41102,0.349367 -0.215785,0.154133 -0.462397,0.256888 -0.246612,0.102755 -0.513775,0.143857 -0.267163,0.03083 -0.534326,0.03083 z m -0.513775,-1.037825 h 0.513775 q 0.174683,0 0.349367,-0.03083 0.174683,-0.0411 0.328816,-0.133581 0.154132,-0.102755 0.277438,-0.226061 0.123306,-0.133582 0.215786,-0.277439 0.09248,-0.154132 0.164408,-0.31854 0.07193,-0.164408 0.123306,-0.339092 0.05138,-0.174683 0.0822,-0.349367 0.03083,-0.174683 0.05138,-0.349367 0.02055,-0.174683 0.02055,-0.349367 0.01028,-0.184959 0.01028,-0.359642 0,-0.184959 -0.01028,-0.359643 0,-0.184959 -0.02055,-0.359642 -0.02055,-0.174684 -0.05138,-0.349367 -0.03083,-0.174684 -0.0822,-0.349367 -0.05138,-0.174684 -0.123306,-0.339092 -0.07193,-0.164408 -0.164408,-0.308265 -0.09248,-0.154132 -0.215786,-0.277438 -0.123306,-0.133582 -0.277438,-0.226061 -0.154133,-0.102755 -0.328816,-0.133582 -0.174684,-0.0411 -0.349367,-0.0411 h -0.513775 z"
       id="text12"
       aria-label="PRETEND" />
    <text
       xml:space="preserve"
       style="font-style:normal;font-variant:normal;font-weight:normal;font-stretch:normal;font-size:18.2743px;line-height:1.25;font-family:lazer84;-inkscape-font-specification:'lazer84, Normal';font-variant-ligatures:normal;font-variant-caps:normal;font-variant-numeric:normal;font-variant-east-asian:normal;text-align:center;text-orientation:upright;text-anchor:middle;stroke:#000000;stroke-width:1.05833;stroke-dasharray:none;stroke-opacity:1;paint-order:markers stroke fill"
       x="51.075626"
       y="91.088234"
       id="text14"
       transform="rotate(-10.171296)"><tspan
         sodipodi:role="line"
         id="tspan14"
         style="font-style:normal;font-variant:normal;font-weight:normal;font-stretch:normal;font-size:18.2743px;font-family:lazer84;-inkscape-font-specification:'lazer84, Normal';font-variant-ligatures:normal;font-variant-caps:normal;font-variant-numeric:normal;font-variant-east-asian:normal;stroke:#000000;stroke-width:1.05833;stroke-dasharray:none;stroke-opacity:1;paint-order:markers stroke fill"
         x="51.075626"
         y="91.088234"><tspan
           style="fill:#ffffff;stroke:#000000;stroke-width:1.05833;stroke-dasharray:none;stroke-opacity:1;paint-order:markers stroke fill"
           id="tspan16">Zeblam</tspan><tspan
           style="fill:#ff0000;stroke:#000000;stroke-width:1.05833;stroke-dasharray:none;stroke-opacity:1;paint-order:markers stroke fill"
           id="tspan15">o</tspan></tspan></text>
    <text
       xml:space="preserve"
       style="font-style:normal;font-variant:normal;font-weight:600;font-stretch:normal;font-size:23.6023px;line-height:1.25;font-family:'Lucida Sans';-inkscape-font-specification:'Lucida Sans, Semi-Bold';font-variant-ligatures:normal;font-variant-caps:normal;font-variant-numeric:normal;font-variant-east-asian:normal;text-align:center;text-orientation:upright;text-anchor:middle;display:none;stroke-width:0.732393"
       x="93.668076"
       y="35.412334"
       id="text2"
       sodipodi:insensitive="true"><tspan
         sodipodi:role="line"
         id="tspan2"
         style="font-style:normal;font-variant:normal;font-weight:600;font-stretch:normal;font-size:23.6023px;font-family:'Lucida Sans';-inkscape-font-specification:'Lucida Sans, Semi-Bold';font-variant-ligatures:normal;font-variant-caps:normal;font-variant-numeric:normal;font-variant-east-asian:normal;stroke-width:0.732393"
         x="0"
         y="0"><tspan
   style="fill:#ff0000"
   id="tspan1">3</tspan>ZS</tspan></text>
    <text
       xml:space="preserve"
       style="font-weight:600;font-size:10.2755px;line-height:1.25;font-family:'Lucida Sans';-inkscape-font-specification:'Lucida Sans, Semi-Bold';text-align:center;text-orientation:upright;text-anchor:middle;display:none;stroke-width:0.11519"
       x="37.562813"
       y="25.92761"
       id="text3"
       sodipodi:insensitive="true"><tspan
         sodipodi:role="line"
         id="tspan3"
         style="font-style:normal;font-variant:normal;font-weight:bold;font-stretch:normal;font-size:10.2755px;font-family:'Adwaita Mono';-inkscape-font-specification:'Adwaita Mono, Bold';font-variant-ligatures:normal;font-variant-caps:normal;font-variant-numeric:normal;font-variant-east-asian:normal;stroke-width:0.11519"
         x="0"
         y="0">PRETEND</tspan></text>
  </g>
</svg>
