<?xml version="1.0" encoding="UTF-8" standalone="no"?>
<!-- Created with Inkscape (http://www.inkscape.org/) -->

<svg
   width="512"
   height="512"
   viewBox="0 0 135.46666 135.46667"
   version="1.1"
   id="svg5"
   inkscape:version="1.3.2 (091e20ef0f, 2023-11-25, custom)"
   sodipodi:docname="application-vnd.oasis.opendocument.presentation-template.svg"
   xmlns:inkscape="http://www.inkscape.org/namespaces/inkscape"
   xmlns:sodipodi="http://sodipodi.sourceforge.net/DTD/sodipodi-0.dtd"
   xmlns:xlink="http://www.w3.org/1999/xlink"
   xmlns="http://www.w3.org/2000/svg"
   xmlns:svg="http://www.w3.org/2000/svg"
   xmlns:rdf="http://www.w3.org/1999/02/22-rdf-syntax-ns#"
   xmlns:cc="http://creativecommons.org/ns#"
   xmlns:dc="http://purl.org/dc/elements/1.1/">&gt;
  <sodipodi:namedview
   id="namedview7"
   pagecolor="#505050"
   bordercolor="#ffffff"
   borderopacity="1"
   inkscape:showpageshadow="0"
   inkscape:pageopacity="0"
   inkscape:pagecheckerboard="1"
   inkscape:deskcolor="#505050"
   inkscape:document-units="mm"
   showgrid="false"
   inkscape:zoom="0.79296878"
   inkscape:cx="343.64531"
   inkscape:cy="194.20689"
   inkscape:window-width="3256"
   inkscape:window-height="1080"
   inkscape:window-x="1864"
   inkscape:window-y="0"
   inkscape:window-maximized="0"
   inkscape:current-layer="layer1" />
<defs
   id="defs2">
  <linearGradient
     inkscape:collect="always"
     id="linearGradient3036">
    <stop
       style="stop-color:#808080;stop-opacity:1;"
       offset="0"
       id="stop3032" />
    <stop
       style="stop-color:#ffffff;stop-opacity:1;"
       offset="0.5"
       id="stop3038" />
    <stop
       style="stop-color:#000000;stop-opacity:1;"
       offset="1"
       id="stop3034" />
  </linearGradient>
  <linearGradient
     inkscape:collect="always"
     id="linearGradient1389">
    <stop
       style="stop-color:#000000;stop-opacity:1;"
       offset="0"
       id="stop1385" />
    <stop
       style="stop-color:#808080;stop-opacity:1;"
       offset="0.5"
       id="stop1393" />
    <stop
       style="stop-color:#000000;stop-opacity:1;"
       offset="1"
       id="stop1387" />
  </linearGradient>
  <linearGradient
     inkscape:collect="always"
     xlink:href="#linearGradient1389"
     id="linearGradient3016"
     x1="0"
     y1="0"
     x2="135.46666"
     y2="135.46666"
     gradientUnits="userSpaceOnUse"
     gradientTransform="translate(-135.46666)" />
  <linearGradient
     inkscape:collect="always"
     xlink:href="#linearGradient3036"
     id="linearGradient2906"
     x1="-86.658417"
     y1="0"
     x2="-86.658417"
     y2="135.46667"
     gradientUnits="userSpaceOnUse"
     gradientTransform="translate(154.39175)" />
</defs>
<g
   inkscape:label="Layer 1"
   inkscape:groupmode="layer"
   id="layer1">
  <rect
     style="display:inline;opacity:1;fill:url(#linearGradient3016);fill-opacity:1;stroke-width:1.947;stroke-linecap:square;stroke-linejoin:round;paint-order:stroke fill markers"
     id="rect785"
     width="135.46666"
     height="135.46666"
     x="-135.46666"
     y="0"
     ry="14.432917"
     transform="scale(-1,1)" />
  <rect
     style="display:inline;opacity:0.28;mix-blend-mode:hard-light;fill:#ff8000;fill-opacity:1;stroke-width:1.947;stroke-linecap:square;stroke-linejoin:round;paint-order:stroke fill markers"
     id="rect4947"
     width="135.46666"
     height="135.46666"
     x="0"
     y="0"
     ry="14.432917" />
  <path
     id="rect785-53-9"
     style="display:inline;mix-blend-mode:luminosity;fill:url(#linearGradient2906);fill-opacity:1;stroke-width:1.947;stroke-linecap:square;stroke-linejoin:round;paint-order:stroke fill markers"
     d="M 14.43271,0 C 6.43688,0 0,6.436883 0,14.432711 V 121.03396 c 0,7.99582 6.43688,14.43271 14.43271,14.43271 h 106.60125 c 7.99582,0 14.43271,-6.43689 14.43271,-14.43271 V 14.432711 C 135.46667,6.436883 129.02978,0 121.03396,0 Z m 105.81835,3.1672485 c 0.97343,-3.02e-4 1.94815,0.041018 2.9068,0.2175578 4.7373,0.7479393 8.67787,5.1307411 9.07593,9.8500447 0.1032,33.051577 0.0426,66.104857 0.077,99.157259 -0.0616,3.09471 0.098,6.19309 -0.0558,9.28522 -0.10763,5.3757 -4.75516,10.11872 -10.07226,10.55491 -31.16487,0.0969 -62.331874,0.054 -93.49765,0.061 -4.76973,-0.0528 -9.54076,0.0668 -14.30972,-0.0388 C 8.79085,132.46073 3.65853,127.67659 3.23959,122.15066 3.13699,86.9626 3.20669,51.772309 3.16519,16.583464 3.0426,13.67303 3.37202,10.584654 5.07774,8.1307499 6.98297,5.4223586 9.92969,3.5749213 13.21626,3.2437097 48.56899,3.1351898 83.924671,3.1873807 119.27852,3.1780807 c 0.32367,-0.00597 0.64807,-0.010751 0.97255,-0.010852 z" />
  <path
     id="path47309"
     style="color:#000000;display:inline;opacity:0.6;fill:#ffffff;stroke-width:0.929711;stroke-linecap:square;stroke-linejoin:round;paint-order:stroke fill markers"
     d="m 34.439242,14.612028 c -7.815203,0 -14.23014,5.546935 -14.23014,12.302091 v 38.021969 c 0,6.755156 6.414937,12.301575 14.23014,12.301575 h 66.588188 c 7.8152,0 14.23013,-5.546419 14.23013,-12.301575 V 26.914119 c 0,-6.755156 -6.41493,-12.302091 -14.23013,-12.302091 z m -1.058334,6.914823 h 68.704852 c 3.52158,0 6.23011,2.343343 6.23011,5.387268 v 38.021969 c 0,3.043925 -2.70853,5.386751 -6.23011,5.386751 H 33.380908 c -3.521586,0 -6.23011,-2.342826 -6.23011,-5.386751 V 26.914119 c 0,-3.043925 2.708524,-5.387268 6.23011,-5.387268 z m 52.868608,4.902544 A 14.81598,14.81598 0 0 0 77.674845,28.886092 14.81598,14.81598 0 0 0 72.150118,46.871041 14.81598,14.81598 0 0 0 88.723783,55.775407 14.81598,14.81598 0 0 0 100.66982,41.23986 H 85.854191 L 96.389465,30.822925 a 14.81598,14.81598 0 0 0 -10.139949,-4.39353 z m -48.71589,0.150378 c -1.321746,0 -2.385384,1.064155 -2.385384,2.385901 0,1.321746 1.063638,2.385901 2.385384,2.385901 h 23.858492 c 1.321746,0 2.385901,-1.064155 2.385901,-2.385901 0,-1.321746 -1.064155,-2.385901 -2.385901,-2.385901 z m 0,11.258227 c -1.321746,0 -2.385384,1.064156 -2.385384,2.385901 0,1.321746 1.063638,2.385901 2.385384,2.385901 h 14.254427 c 1.321746,0 2.385901,-1.064155 2.385901,-2.385901 0,-1.321745 -1.064155,-2.385901 -2.385901,-2.385901 z m 0,11.258228 c -1.321746,0 -2.385384,1.064155 -2.385384,2.385901 0,1.321746 1.063638,2.385901 2.385384,2.385901 h 20.315039 c 1.321746,0 2.385901,-1.064155 2.385901,-2.385901 0,-1.321746 -1.064155,-2.385901 -2.385901,-2.385901 z m 0,11.258228 c -1.321746,0 -2.385384,1.064155 -2.385384,2.3859 0,1.321746 1.063638,2.385901 2.385384,2.385901 h 20.315039 c 1.321746,0 2.385901,-1.064155 2.385901,-2.385901 0,-1.321745 -1.064155,-2.3859 -2.385901,-2.3859 z m 53.833407,23.546366 a 5.2453694,5.2453694 0 0 0 -5.245158,5.245158 5.2453694,5.2453694 0 0 0 5.245158,5.245674 5.2453694,5.2453694 0 0 0 5.245675,-5.245674 5.2453694,5.2453694 0 0 0 -5.245675,-5.245158 z m -41.903902,3.115055 a 6.7715654,6.7715654 0 0 0 -6.77168,6.77168 6.7715654,6.7715654 0 0 0 6.77168,6.771683 6.7715654,6.7715654 0 0 0 6.771163,-6.771683 6.7715654,6.7715654 0 0 0 -6.771163,-6.77168 z m 21.57491,14.035833 a 8.2676716,8.2676716 0 0 0 -8.267712,8.26772 8.2676716,8.2676716 0 0 0 8.267712,8.26719 8.2676716,8.2676716 0 0 0 8.267713,-8.26719 8.2676716,8.2676716 0 0 0 -8.267713,-8.26772 z m -47.655489,1.33997 a 8.2676716,8.2676716 0 0 0 -8.267712,8.26772 8.2676716,8.2676716 0 0 0 8.267712,8.26771 8.2676716,8.2676716 0 0 0 8.267712,-8.26771 8.2676716,8.2676716 0 0 0 -8.267712,-8.26772 z m 87.978608,1.726 a 6.7715654,6.7715654 0 0 0 -6.77168,6.77168 6.7715654,6.7715654 0 0 0 6.77168,6.77168 6.7715654,6.7715654 0 0 0 6.77168,-6.77168 6.7715654,6.7715654 0 0 0 -6.77168,-6.77168 z" />
</g>
<metadata
   id="metadata1">
  <rdf:RDF>
    <cc:Work
       rdf:about="">
      <dc:creator>
        <cc:Agent>
          <dc:title>Jess Tipton</dc:title>
        </cc:Agent>
      </dc:creator>
      <dc:publisher>
        <cc:Agent>
          <dc:title>m0dw3rks.com</dc:title>
        </cc:Agent>
      </dc:publisher>
      <cc:license
         rdf:resource="https://creativecommons.org/licenses/by-nc-nd/4.0/deed.en" />
    </cc:Work>
  </rdf:RDF>
</metadata>
<metadata
   id="metadata6">
  <rdf:RDF>
    <cc:Work
       rdf:about="">
      <dc:creator>
        <cc:Agent>
          <dc:title>Jess Tipton</dc:title>
        </cc:Agent>
      </dc:creator>
      <cc:license
         rdf:resource="https://creativecommons.org/licenses/by-nc-nd/4.0/deed.en" />
      <dc:publisher>
        <cc:Agent>
          <dc:title>m0dw3rks.com</dc:title>
        </cc:Agent>
      </dc:publisher>
    </cc:Work>
  </rdf:RDF>
</metadata>
<metadata
   id="metadata2">
  <rdf:RDF>
    <cc:Work
       rdf:about="">
      <dc:creator>
        <cc:Agent>
          <dc:title>Jess Tipton</dc:title>
        </cc:Agent>
      </dc:creator>
      <cc:license
         rdf:resource="https://creativecommons.org/licenses/by-nc-nd/4.0/deed.en" />
      <dc:publisher>
        <cc:Agent>
          <dc:title>m0dw3rks.com</dc:title>
        </cc:Agent>
      </dc:publisher>
    </cc:Work>
  </rdf:RDF>
</metadata>
<metadata
   id="metadata3">
  <rdf:RDF>
    <cc:Work
       rdf:about="">
      <dc:creator>
        <cc:Agent>
          <dc:title>Jess Tipton</dc:title>
        </cc:Agent>
      </dc:creator>
      <cc:license
         rdf:resource="https://creativecommons.org/licenses/by-nc-nd/4.0/deed.en" />
      <dc:publisher>
        <cc:Agent>
          <dc:title>m0dw3rks.com</dc:title>
        </cc:Agent>
      </dc:publisher>
    </cc:Work>
  </rdf:RDF>
</metadata>
<metadata
   id="metadata4">
  <rdf:RDF>
    <cc:Work
       rdf:about="">
      <dc:creator>
        <cc:Agent>
          <dc:title>Jess Tipton</dc:title>
        </cc:Agent>
      </dc:creator>
      <cc:license
         rdf:resource="https://creativecommons.org/licenses/by-nc-nd/4.0/deed.en" />
      <dc:publisher>
        <cc:Agent>
          <dc:title>m0dw3rks.com</dc:title>
        </cc:Agent>
      </dc:publisher>
    </cc:Work>
  </rdf:RDF>
</metadata>
<metadata
   id="metadata5">
  <rdf:RDF>
    <cc:Work
       rdf:about="">
      <dc:creator>
        <cc:Agent>
          <dc:title>Jess Tipton</dc:title>
        </cc:Agent>
      </dc:creator>
      <cc:license
         rdf:resource="https://creativecommons.org/licenses/by-nc-nd/4.0/deed.en" />
      <dc:publisher>
        <cc:Agent>
          <dc:title>m0dw3rks.com</dc:title>
        </cc:Agent>
      </dc:publisher>
    </cc:Work>
  </rdf:RDF>
</metadata>
<metadata
   id="metadata7">
  <rdf:RDF>
    <cc:Work
       rdf:about="">
      <dc:creator>
        <cc:Agent>
          <dc:title>Jess Tipton</dc:title>
        </cc:Agent>
      </dc:creator>
      <cc:license
         rdf:resource="https://creativecommons.org/licenses/by-nc-nd/4.0/deed.en" />
      <dc:publisher>
        <cc:Agent>
          <dc:title>m0dw3rks.com</dc:title>
        </cc:Agent>
      </dc:publisher>
    </cc:Work>
  </rdf:RDF>
</metadata>
<metadata
   id="metadata8">
  <rdf:RDF>
    <cc:Work
       rdf:about="">
      <dc:creator>
        <cc:Agent>
          <dc:title>Jess Tipton</dc:title>
        </cc:Agent>
      </dc:creator>
      <cc:license
         rdf:resource="https://creativecommons.org/licenses/by-nc-nd/4.0/deed.en" />
      <dc:publisher>
        <cc:Agent>
          <dc:title>m0dw3rks.com</dc:title>
        </cc:Agent>
      </dc:publisher>
    </cc:Work>
  </rdf:RDF>
</metadata>
<metadata
   id="metadata9">
  <rdf:RDF>
    <cc:Work
       rdf:about="">
      <dc:creator>
        <cc:Agent>
          <dc:title>Jess Tipton</dc:title>
        </cc:Agent>
      </dc:creator>
      <cc:license
         rdf:resource="https://creativecommons.org/licenses/by-nc-nd/4.0/deed.en" />
      <dc:publisher>
        <cc:Agent>
          <dc:title>m0dw3rks.com</dc:title>
        </cc:Agent>
      </dc:publisher>
    </cc:Work>
  </rdf:RDF>
</metadata>
<metadata
   id="metadata10">
  <rdf:RDF>
    <cc:Work
       rdf:about="">
      <dc:creator>
        <cc:Agent>
          <dc:title>Jess Tipton</dc:title>
        </cc:Agent>
      </dc:creator>
      <cc:license
         rdf:resource="https://creativecommons.org/licenses/by-nc-nd/4.0/deed.en" />
      <dc:publisher>
        <cc:Agent>
          <dc:title>m0dw3rks.com</dc:title>
        </cc:Agent>
      </dc:publisher>
    </cc:Work>
  </rdf:RDF>
</metadata>
<metadata
   id="metadata11">
  <rdf:RDF>
    <cc:Work
       rdf:about="">
      <dc:creator>
        <cc:Agent>
          <dc:title>Jess Tipton</dc:title>
        </cc:Agent>
      </dc:creator>
      <cc:license
         rdf:resource="https://creativecommons.org/licenses/by-nc-nd/4.0/deed.en" />
      <dc:publisher>
        <cc:Agent>
          <dc:title>m0dw3rks.com</dc:title>
        </cc:Agent>
      </dc:publisher>
    </cc:Work>
  </rdf:RDF>
</metadata>
<metadata
   id="metadata12">
  <rdf:RDF>
    <cc:Work
       rdf:about="">
      <dc:creator>
        <cc:Agent>
          <dc:title>Jess Tipton</dc:title>
        </cc:Agent>
      </dc:creator>
      <cc:license
         rdf:resource="https://creativecommons.org/licenses/by-nc-nd/4.0/deed.en" />
      <dc:publisher>
        <cc:Agent>
          <dc:title>m0dw3rks.com</dc:title>
        </cc:Agent>
      </dc:publisher>
    </cc:Work>
  </rdf:RDF>
</metadata>
<metadata
   id="metadata13">
  <rdf:RDF>
    <cc:Work
       rdf:about="">
      <dc:creator>
        <cc:Agent>
          <dc:title>Jess Tipton</dc:title>
        </cc:Agent>
      </dc:creator>
      <cc:license
         rdf:resource="https://creativecommons.org/licenses/by-nc-nd/4.0/deed.en" />
      <dc:publisher>
        <cc:Agent>
          <dc:title>m0dw3rks.com</dc:title>
        </cc:Agent>
      </dc:publisher>
    </cc:Work>
  </rdf:RDF>
</metadata>
<metadata
   id="metadata14">
  <rdf:RDF>
    <cc:Work
       rdf:about="">
      <dc:creator>
        <cc:Agent>
          <dc:title>Jess Tipton</dc:title>
        </cc:Agent>
      </dc:creator>
      <cc:license
         rdf:resource="https://creativecommons.org/licenses/by-nc-nd/4.0/deed.en" />
      <dc:publisher>
        <cc:Agent>
          <dc:title>m0dw3rks.com</dc:title>
        </cc:Agent>
      </dc:publisher>
    </cc:Work>
  </rdf:RDF>
</metadata>
<metadata
   id="metadata15">
  <rdf:RDF>
    <cc:Work
       rdf:about="">
      <dc:creator>
        <cc:Agent>
          <dc:title>Jess Tipton</dc:title>
        </cc:Agent>
      </dc:creator>
      <cc:license
         rdf:resource="https://creativecommons.org/licenses/by-nc-nd/4.0/deed.en" />
      <dc:publisher>
        <cc:Agent>
          <dc:title>m0dw3rks.com</dc:title>
        </cc:Agent>
      </dc:publisher>
    </cc:Work>
  </rdf:RDF>
</metadata>
<metadata
   id="metadata16">
  <rdf:RDF>
    <cc:Work
       rdf:about="">
      <dc:creator>
        <cc:Agent>
          <dc:title>Jess Tipton</dc:title>
        </cc:Agent>
      </dc:creator>
      <cc:license
         rdf:resource="https://creativecommons.org/licenses/by-nc-nd/4.0/deed.en" />
      <dc:publisher>
        <cc:Agent>
          <dc:title>m0dw3rks.com</dc:title>
        </cc:Agent>
      </dc:publisher>
    </cc:Work>
  </rdf:RDF>
</metadata>
<metadata
   id="metadata17">
  <rdf:RDF>
    <cc:Work
       rdf:about="">
      <dc:creator>
        <cc:Agent>
          <dc:title>Jess Tipton</dc:title>
        </cc:Agent>
      </dc:creator>
      <cc:license
         rdf:resource="https://creativecommons.org/licenses/by-nc-nd/4.0/deed.en" />
      <dc:publisher>
        <cc:Agent>
          <dc:title>m0dw3rks.com</dc:title>
        </cc:Agent>
      </dc:publisher>
    </cc:Work>
  </rdf:RDF>
</metadata>
<metadata
   id="metadata18">
  <rdf:RDF>
    <cc:Work
       rdf:about="">
      <dc:creator>
        <cc:Agent>
          <dc:title>Jess Tipton</dc:title>
        </cc:Agent>
      </dc:creator>
      <cc:license
         rdf:resource="https://creativecommons.org/licenses/by-nc-nd/4.0/deed.en" />
      <dc:publisher>
        <cc:Agent>
          <dc:title>m0dw3rks.com</dc:title>
        </cc:Agent>
      </dc:publisher>
    </cc:Work>
  </rdf:RDF>
</metadata>
</svg>
