<?xml version="1.0" encoding="UTF-8" standalone="no"?>
<!-- Created with Inkscape (http://www.inkscape.org/) -->

<svg
   width="512"
   height="512"
   viewBox="0 0 135.46666 135.46667"
   version="1.1"
   id="svg5"
   inkscape:version="1.4 (e7c3feb100, 2024-10-09)"
   sodipodi:docname="application-vnd.adobe.illustrator.svg"
   xmlns:inkscape="http://www.inkscape.org/namespaces/inkscape"
   xmlns:sodipodi="http://sodipodi.sourceforge.net/DTD/sodipodi-0.dtd"
   xmlns:xlink="http://www.w3.org/1999/xlink"
   xmlns="http://www.w3.org/2000/svg"
   xmlns:svg="http://www.w3.org/2000/svg"
   xmlns:rdf="http://www.w3.org/1999/02/22-rdf-syntax-ns#"
   xmlns:cc="http://creativecommons.org/ns#"
   xmlns:dc="http://purl.org/dc/elements/1.1/">&gt;
  <sodipodi:namedview
   id="namedview7"
   pagecolor="#292929"
   bordercolor="#666666"
   borderopacity="1"
   inkscape:showpageshadow="0"
   inkscape:pageopacity="0"
   inkscape:pagecheckerboard="1"
   inkscape:deskcolor="#1a1a1a"
   inkscape:document-units="px"
   showgrid="false"
   inkscape:zoom="1.3037281"
   inkscape:cx="372.01008"
   inkscape:cy="207.48191"
   inkscape:window-width="3256"
   inkscape:window-height="1080"
   inkscape:window-x="1864"
   inkscape:window-y="0"
   inkscape:window-maximized="0"
   inkscape:current-layer="layer1" />
<defs
   id="defs2">
  <linearGradient
     id="linearGradient40"
     inkscape:collect="always">
    <stop
       style="stop-color:#333333;stop-opacity:1;"
       offset="0"
       id="stop40" />
    <stop
       style="stop-color:#808080;stop-opacity:1;"
       offset="1"
       id="stop39" />
  </linearGradient>
  <linearGradient
     id="linearGradient37"
     inkscape:collect="always">
    <stop
       style="stop-color:#999999;stop-opacity:1;"
       offset="0"
       id="stop38" />
    <stop
       style="stop-color:#333333;stop-opacity:1;"
       offset="1"
       id="stop37" />
  </linearGradient>
  <linearGradient
     id="linearGradient7"
     inkscape:collect="always">
    <stop
       style="stop-color:#000000;stop-opacity:1;"
       offset="0"
       id="stop7" />
    <stop
       style="stop-color:#000000;stop-opacity:0;"
       offset="1"
       id="stop8" />
  </linearGradient>
  <linearGradient
     id="linearGradient3"
     inkscape:collect="always">
    <stop
       style="stop-color:#0087ff;stop-opacity:1;"
       offset="0"
       id="stop4" />
    <stop
       style="stop-color:#00ffff;stop-opacity:1;"
       offset="1"
       id="stop3" />
  </linearGradient>
  <linearGradient
     id="linearGradient61"
     inkscape:collect="always">
    <stop
       style="stop-color:#894924;stop-opacity:1;"
       offset="0"
       id="stop61" />
    <stop
       style="stop-color:#502d16;stop-opacity:1;"
       offset="0.49863869"
       id="stop60" />
    <stop
       style="stop-color:#ce885e;stop-opacity:1;"
       offset="1"
       id="stop59" />
  </linearGradient>
  <clipPath
     clipPathUnits="userSpaceOnUse"
     id="clipPath14">
    <path
       id="path14"
       style="display:inline;opacity:1;fill:#ddbd94;fill-opacity:1;stroke-width:0.529169;stroke-linecap:round;stroke-linejoin:round;paint-order:markers stroke fill"
       d="m 209.4966,-31.646129 c -8.50972,0 -16.61663,1.390763 -23.99027,3.905186 -7.37365,2.514424 -14.01387,6.152952 -19.59054,10.648963 -5.57667,4.496011 -10.0897,9.8496204 -13.20849,15.7943845 -1.5594,2.972382 -2.77051,6.0924159 -3.59151,9.3270799 -4.07376,16.0501376 34.96763,12.9876936 35.03352,24.8946036 0.0491,8.874503 -37.27751,4.90147 -18.23352,20.255095 5.57667,4.496019 12.21689,8.134538 19.59054,10.648958 7.37364,2.51443 15.48055,3.905191 23.99027,3.905191 34.03884,0 61.63292,-22.247261 61.63292,-49.689989 0,-27.4427274 -27.59408,-49.689472 -61.63292,-49.689472 z m -28.97343,21.386807 a 11.960308,9.3014079 11.6215 0 1 3.09594,0.3131594 11.960308,9.3014079 11.6215 0 1 9.84126,11.5202271 11.960308,9.3014079 11.6215 0 1 -13.58884,6.7013991 11.960308,9.3014079 11.6215 0 1 -9.84126,-11.520227 11.960308,9.3014079 11.6215 0 1 10.4929,-7.0145586 z" />
  </clipPath>
  <clipPath
     clipPathUnits="userSpaceOnUse"
     id="clipPath41">
    <path
       id="path42"
       style="opacity:1;fill:#ffdd55;stroke-width:0.529169;stroke-linecap:round;stroke-linejoin:round;paint-order:markers stroke fill"
       d="m 23.246203,32.782055 c 0,2.586595 -1.839843,4.683447 -10.473789,4.683447 -8.6339465,0 -15.6331424,-2.096852 -15.6331435,-4.683447 1.1e-6,-2.586596 6.999197,-4.683446 15.6331435,-4.683446 8.633946,0 10.473789,2.09685 10.473789,4.683446 z"
       sodipodi:nodetypes="sssss" />
  </clipPath>
  <clipPath
     clipPathUnits="userSpaceOnUse"
     id="clipPath64">
    <path
       style="color:#000000;fill:url(#linearGradient65);stroke-width:0.999998;stroke-linecap:round;stroke-linejoin:round;-inkscape-stroke:none;paint-order:markers stroke fill"
       d="m 148.22198,97.588161 c 0,0 1.05833,-13.163825 1.05833,-19.7599 0,-6.596076 -0.97021,-13.167958 -1.05833,-19.759904 -0.0881,-6.591948 0.26461,-13.17268 0.52917,-19.759905 0.26455,-6.587226 0.57081,-14.527147 1.05833,-19.759907 0.48752,-5.23276 -2.36564,-11.6416699 1.54913,-11.6416699 3.91476,0 1.0616,6.4089099 1.54912,11.6416699 0.48753,5.23276 0.79378,13.172681 1.05834,19.759907 0.26456,6.587225 0.61729,13.167957 0.52916,19.759905 -0.0881,6.591946 -1.05833,13.163828 -1.05833,19.759904 0,6.596075 1.05833,19.7599 1.05833,19.7599 v 0 0 0 0 0 0 0 0 c 0,0 -2.03317,1.058339 -3.13662,1.058339 -1.10346,0 -3.13663,-1.058339 -3.13663,-1.058339 z"
       id="path65" />
  </clipPath>
  <linearGradient
     inkscape:collect="always"
     xlink:href="#linearGradient61"
     id="linearGradient65"
     gradientUnits="userSpaceOnUse"
     gradientTransform="rotate(-90,133.55514,-0.41099174)"
     x1="80.367455"
     y1="20.542898"
     x2="80.367455"
     y2="14.242057" />
  <filter
     style="color-interpolation-filters:sRGB;"
     inkscape:label="Noise Fill"
     id="filter51"
     x="0"
     y="0"
     width="1"
     height="1">
    <feTurbulence
       type="fractalNoise"
       baseFrequency="100 1.48697"
       numOctaves="4"
       seed="2"
       result="turbulence"
       id="feTurbulence50" />
    <feComposite
       in="SourceGraphic"
       in2="turbulence"
       operator="in"
       result="composite1"
       id="feComposite50" />
    <feColorMatrix
       values="1 0 0 0 0 0 1 0 0 0 0 0 1 0 0 0 0 0 4 -1 "
       result="color"
       id="feColorMatrix50" />
    <feFlood
       flood-opacity="1"
       flood-color="rgb(134,107,25)"
       result="flood"
       id="feFlood50" />
    <feMerge
       result="merge"
       id="feMerge51">
      <feMergeNode
         in="flood"
         id="feMergeNode50" />
      <feMergeNode
         in="color"
         id="feMergeNode51" />
    </feMerge>
    <feComposite
       in2="SourceGraphic"
       operator="in"
       result="composite2"
       id="feComposite51" />
  </filter>
  <filter
     style="color-interpolation-filters:sRGB;"
     inkscape:label="Noise Fill"
     id="filter60"
     x="-0.00097656129"
     y="-0.00097656129"
     width="1.0019531"
     height="1.0019531">
    <feTurbulence
       type="fractalNoise"
       baseFrequency="100 0.2"
       numOctaves="4"
       seed="2"
       result="turbulence"
       id="feTurbulence59" />
    <feComposite
       in="SourceGraphic"
       in2="turbulence"
       operator="in"
       result="composite1"
       id="feComposite59" />
    <feColorMatrix
       values="1 0 0 0 0 0 1 0 0 0 0 0 1 0 0 0 0 0 4 -1 "
       result="color"
       id="feColorMatrix59" />
    <feFlood
       flood-opacity="1"
       flood-color="rgb(134,79,25)"
       result="flood"
       id="feFlood59" />
    <feMerge
       result="merge"
       id="feMerge60">
      <feMergeNode
         in="flood"
         id="feMergeNode59" />
      <feMergeNode
         in="color"
         id="feMergeNode60" />
    </feMerge>
    <feComposite
       in2="SourceGraphic"
       operator="in"
       result="composite2"
       id="feComposite60" />
  </filter>
  <clipPath
     clipPathUnits="userSpaceOnUse"
     id="clipPath60">
    <path
       id="path61"
       style="display:inline;fill:#ddbd94;fill-opacity:1;stroke-width:0.529169;stroke-linecap:round;stroke-linejoin:round;paint-order:markers stroke fill"
       d="M 112.33203,43.92121 C 107.44753,36.952933 101.6554,31.112781 95.36403,26.518042 89.07266,21.923301 82.281783,18.574362 75.399214,16.588506 68.516645,14.602655 61.542339,13.980024 54.884243,14.838407 c -3.329048,0.429192 -6.579093,1.228329 -9.699085,2.412707 -15.481142,5.87679 9.435974,36.088473 -0.276318,42.976883 -7.2388,5.134096 -25.410572,-27.711724 -27.051985,-3.304492 -0.480661,7.147199 0.35132,14.673097 2.524763,22.154347 2.173433,7.481255 5.687884,14.917978 10.57238,21.886258 19.537981,27.8731 53.59416,37.69911 76.065952,21.94724 22.4718,-15.75187 24.85006,-51.117038 5.31208,-78.99014 z M 78.188713,32.471812 a 11.960308,9.3014079 66.59251 0 1 1.520603,2.714894 11.960308,9.3014079 66.59251 0 1 -3.78468,14.671134 11.960308,9.3014079 66.59251 0 1 -13.287386,-7.280832 11.960308,9.3014079 66.59251 0 1 3.784682,-14.671136 11.960308,9.3014079 66.59251 0 1 11.766781,4.56594 z" />
  </clipPath>
  <filter
     style="color-interpolation-filters:sRGB;"
     inkscape:label="Noise Fill"
     id="filter63"
     x="0"
     y="0"
     width="1"
     height="1">
    <feTurbulence
       type="fractalNoise"
       baseFrequency="100 0.2"
       numOctaves="4"
       seed="2"
       result="turbulence"
       id="feTurbulence62" />
    <feComposite
       in="SourceGraphic"
       in2="turbulence"
       operator="in"
       result="composite1"
       id="feComposite62" />
    <feColorMatrix
       values="1 0 0 0 0 0 1 0 0 0 0 0 1 0 0 0 0 0 4 -1 "
       result="color"
       id="feColorMatrix62" />
    <feFlood
       flood-opacity="1"
       flood-color="rgb(134,79,25)"
       result="flood"
       id="feFlood62" />
    <feMerge
       result="merge"
       id="feMerge63">
      <feMergeNode
         in="flood"
         id="feMergeNode62" />
      <feMergeNode
         in="color"
         id="feMergeNode63" />
    </feMerge>
    <feComposite
       in2="SourceGraphic"
       operator="in"
       result="composite2"
       id="feComposite63" />
  </filter>
  <clipPath
     clipPathUnits="userSpaceOnUse"
     id="clipPath67">
    <path
       style="color:#000000;mix-blend-mode:normal;fill:#ffdd55;stroke-width:0.999998;stroke-linecap:round;stroke-linejoin:round;-inkscape-stroke:none;paint-order:markers stroke fill"
       d="m 26.47211,105.52142 c 1.942084,0 3.516455,1.83984 3.516455,10.47379 0,8.63395 -1.574371,15.63314 -3.516455,15.63314 -1.942085,0 -3.516455,-6.99919 -3.516455,-15.63314 0,-8.63395 1.57437,-10.47379 3.516455,-10.47379 z"
       id="path68" />
  </clipPath>
  <clipPath
     clipPathUnits="userSpaceOnUse"
     id="clipPath11">
    <path
       id="path11"
       style="display:inline;fill:#ddbd94;fill-opacity:1;stroke-width:0.529169;stroke-linecap:round;stroke-linejoin:round;paint-order:markers stroke fill"
       d="m 73.83374,17.545226 c -8.509711,0 -16.616621,1.390765 -23.99027,3.905188 -7.373641,2.514423 -14.01386,6.152951 -19.59053,10.648963 -5.57667,4.496011 -10.08971,9.849619 -13.2085,15.794381 -1.55939,2.972382 -2.7705,6.09242 -3.59151,9.327081 -4.0737499,16.050141 34.967629,12.987697 35.033521,24.894606 0.0491,8.8745 -37.277501,4.901467 -18.233511,20.255085 5.57667,4.49602 12.216889,8.13454 19.59053,10.64896 7.373649,2.51443 15.480559,3.90519 23.99027,3.90519 34.03884,0 61.63292,-22.247255 61.63292,-49.689981 0,-27.442729 -27.59408,-49.689473 -61.63292,-49.689473 z M 44.860321,38.932035 a 11.960308,9.3014079 11.6215 0 1 3.095929,0.313158 11.960308,9.3014079 11.6215 0 1 9.841259,11.520228 11.960308,9.3014079 11.6215 0 1 -13.588828,6.701398 11.960308,9.3014079 11.6215 0 1 -9.841262,-11.520225 11.960308,9.3014079 11.6215 0 1 10.492902,-7.014559 z" />
  </clipPath>
  <clipPath
     clipPathUnits="userSpaceOnUse"
     id="clipPath12">
    <path
       id="path13"
       style="display:inline;fill:#ddbd94;fill-opacity:1;stroke-width:0.529169;stroke-linecap:round;stroke-linejoin:round;paint-order:markers stroke fill"
       d="m 73.83374,17.54523 c -8.509711,0 -16.616621,1.39077 -23.99027,3.90519 -7.373641,2.51442 -14.01386,6.15295 -19.59053,10.648959 -5.57667,4.496012 -10.08971,9.84962 -13.2085,15.794382 -1.55939,2.972389 -2.7705,6.09242 -3.59151,9.327078 -4.0737499,16.050141 34.967629,12.987702 35.033521,24.894611 0.0491,8.874501 -37.277501,4.90147 -18.233511,20.25509 5.57667,4.49602 12.216889,8.13454 19.59053,10.64896 7.373649,2.51443 15.480559,3.90518 23.99027,3.90518 34.03884,0 61.63292,-22.24725 61.63292,-49.689981 0,-27.442718 -27.59408,-49.689469 -61.63292,-49.689469 z M 44.860321,38.93204 a 11.960308,9.3014079 11.6215 0 1 3.095929,0.313161 11.960308,9.3014079 11.6215 0 1 9.841259,11.52022 11.960308,9.3014079 11.6215 0 1 -13.588828,6.701398 11.960308,9.3014079 11.6215 0 1 -9.841262,-11.52022 11.960308,9.3014079 11.6215 0 1 10.492902,-7.014559 z" />
  </clipPath>
  <clipPath
     clipPathUnits="userSpaceOnUse"
     id="clipPath33">
    <path
       id="path33"
       style="display:inline;fill:#ddbd94;fill-opacity:1;stroke-width:0.529169;stroke-linecap:round;stroke-linejoin:round;paint-order:markers stroke fill"
       d="m 73.83374,17.54523 c -8.509711,0 -16.616621,1.39077 -23.99027,3.90519 -7.373641,2.51442 -14.01386,6.15295 -19.59053,10.648959 -5.57667,4.496012 -10.08971,9.84962 -13.2085,15.794382 -1.55939,2.972389 -2.7705,6.09242 -3.59151,9.327078 -4.0737499,16.050141 34.967629,12.987702 35.033521,24.894611 0.0491,8.874501 -37.277501,4.90147 -18.233511,20.25509 5.57667,4.49602 12.216889,8.13454 19.59053,10.64896 7.373649,2.51443 15.480559,3.90518 23.99027,3.90518 34.03884,0 61.63292,-22.24725 61.63292,-49.689981 0,-27.442718 -27.59408,-49.689469 -61.63292,-49.689469 z M 44.860321,38.93204 a 11.960308,9.3014079 11.6215 0 1 3.095929,0.313161 11.960308,9.3014079 11.6215 0 1 9.841259,11.52022 11.960308,9.3014079 11.6215 0 1 -13.588828,6.701398 11.960308,9.3014079 11.6215 0 1 -9.841262,-11.52022 11.960308,9.3014079 11.6215 0 1 10.492902,-7.014559 z" />
  </clipPath>
  <linearGradient
     inkscape:collect="always"
     xlink:href="#linearGradient40"
     id="linearGradient4"
     x1="67.73333"
     y1="135.46666"
     x2="67.73333"
     y2="0"
     gradientUnits="userSpaceOnUse"
     gradientTransform="translate(2.7270507e-6)" />
  <filter
     inkscape:collect="always"
     style="color-interpolation-filters:sRGB"
     id="filter7"
     x="-0.25795936"
     y="-0.2978658"
     width="1.5159187"
     height="1.5957316">
    <feGaussianBlur
       inkscape:collect="always"
       stdDeviation="10.259264"
       id="feGaussianBlur7" />
  </filter>
  <radialGradient
     inkscape:collect="always"
     xlink:href="#linearGradient7"
     id="radialGradient8"
     cx="198.15539"
     cy="64.514706"
     fx="198.15539"
     fy="64.514706"
     r="72.34726"
     gradientTransform="matrix(1,0,0,0.91162152,0,5.7017116)"
     gradientUnits="userSpaceOnUse" />
  <clipPath
     clipPathUnits="userSpaceOnUse"
     id="clipPath35">
    <path
       style="color:#000000;fill:url(#linearGradient36);stroke-width:0.999998;stroke-linecap:round;stroke-linejoin:round;-inkscape-stroke:none;paint-order:markers stroke fill"
       d="m 193.21298,-24.159161 h 103.22475 c 8.93101,0 16.12096,7.189946 16.12096,16.1209549 V 95.186544 c 0,8.931006 -7.18995,16.120956 -16.12096,16.120956 H 193.21298 c -8.93101,0 -16.12095,-7.18995 -16.12095,-16.120956 V -8.0382061 c 0,-8.9310089 7.18994,-16.1209549 16.12095,-16.1209549 z"
       id="path36" />
  </clipPath>
  <linearGradient
     inkscape:collect="always"
     xlink:href="#linearGradient3"
     id="linearGradient36"
     gradientUnits="userSpaceOnUse"
     gradientTransform="translate(177.09202,-24.159161)"
     x1="67.73333"
     y1="135.46666"
     x2="67.73333"
     y2="0" />
  <linearGradient
     inkscape:collect="always"
     xlink:href="#linearGradient37"
     id="linearGradient38"
     x1="244.82535"
     y1="111.3075"
     x2="244.82617"
     y2="-24.159113"
     gradientUnits="userSpaceOnUse" />
  <filter
     inkscape:label="Duotone Turbulent"
     inkscape:menu="Overlays"
     inkscape:menu-tooltip="Basic noise fill texture; adjust color in Flood"
     style="color-interpolation-filters:sRGB;"
     id="filter48"
     x="0"
     y="0"
     width="1"
     height="1">
    <feFlood
       flood-color="rgb(255,0,0)"
       result="fbSourceGraphic"
       flood-opacity="1"
       id="feFlood46" />
    <feFlood
       result="result4"
       flood-color="rgb(158,236,254)"
       flood-opacity="1"
       id="feFlood47" />
    <feTurbulence
       type="fractalNoise"
       numOctaves="5"
       baseFrequency="0.02"
       result="result1"
       id="feTurbulence47" />
    <feComposite
       in2="result1"
       operator="in"
       result="result2"
       in="fbSourceGraphic"
       id="feComposite47" />
    <feColorMatrix
       result="result3"
       values="1 0 0 0 0 0 1 0 0 0 0 0 1 0 0 0 0 0 3 -1 "
       in="result2"
       id="feColorMatrix47" />
    <feMerge
       result="result5"
       id="feMerge48">
      <feMergeNode
         in="result4"
         id="feMergeNode47" />
      <feMergeNode
         in="result3"
         id="feMergeNode48" />
    </feMerge>
    <feComposite
       in2="SourceGraphic"
       operator="in"
       result="fbSourceGraphic"
       id="feComposite48" />
    <feColorMatrix
       result="fbSourceGraphicAlpha"
       in="fbSourceGraphic"
       values="0 0 0 -1 0 0 0 0 -1 0 0 0 0 -1 0 0 0 0 1 0"
       id="feColorMatrix48" />
    <feColorMatrix
       id="feColorMatrix49"
       values="1 0 0 0 0 0 1 0 0 0 0 0 1 0 0 0 0 0 1 1 "
       in="fbSourceGraphic" />
    <feColorMatrix
       id="feColorMatrix51"
       type="saturate"
       values="0"
       result="result1" />
    <feFlood
       id="feFlood51"
       flood-color="rgb(9,111,151)"
       result="result2" />
    <feColorMatrix
       id="feColorMatrix52"
       type="hueRotate"
       values="0"
       result="result3" />
    <feBlend
       id="feBlend52"
       in2="result1"
       mode="screen"
       result="result2" />
    <feBlend
       id="feBlend53"
       in2="result2"
       result="result4"
       mode="multiply" />
    <feTurbulence
       id="feTurbulence53"
       numOctaves="5"
       baseFrequency="0.035"
       type="fractalNoise"
       result="result7" />
    <feColorMatrix
       id="feColorMatrix53"
       result="result0"
       values="1 0 0 0 0 0 1 0 0 0 0 0 1 0 0 0 0 0 3 -1 " />
    <feFlood
       id="feFlood53"
       flood-opacity="1"
       flood-color="rgb(200,57,93)"
       result="result1" />
    <feBlend
       id="feBlend54"
       in2="result4"
       mode="lighten"
       in="result1"
       result="result5" />
    <feComposite
       id="feComposite54"
       in2="result0"
       operator="out"
       result="result6" />
    <feComposite
       id="feComposite55"
       in2="result4"
       operator="atop"
       result="result8" />
    <feComposite
       id="feComposite56"
       in2="fbSourceGraphic"
       operator="in" />
  </filter>
  <clipPath
     clipPathUnits="userSpaceOnUse"
     id="clipPath57">
    <rect
       style="display:inline;fill:url(#linearGradient60);stroke:none;stroke-width:1.79705;stroke-linecap:round;stroke-linejoin:round;paint-order:markers stroke fill"
       id="rect58"
       width="135.46666"
       height="135.46666"
       x="177.09285"
       y="-24.159111"
       ry="16.120955" />
  </clipPath>
  <linearGradient
     inkscape:collect="always"
     xlink:href="#linearGradient40"
     id="linearGradient60"
     gradientUnits="userSpaceOnUse"
     gradientTransform="translate(177.09283,-24.159114)"
     x1="67.73333"
     y1="135.46666"
     x2="67.73333"
     y2="0" />
  <filter
     inkscape:collect="always"
     style="color-interpolation-filters:sRGB"
     id="filter61"
     x="-0.192"
     y="-0.192"
     width="1.384"
     height="1.384">
    <feGaussianBlur
       inkscape:collect="always"
       stdDeviation="11.345312"
       id="feGaussianBlur61" />
  </filter>
</defs>
<g
   inkscape:label="Layer 1"
   inkscape:groupmode="layer"
   id="layer1"
   style="display:inline">
  <rect
     style="display:inline;fill:url(#linearGradient4);stroke:none;stroke-width:1.79705;stroke-linecap:round;stroke-linejoin:round;paint-order:markers stroke fill"
     id="rect3"
     width="135.46666"
     height="135.46666"
     x="2.7270507e-06"
     y="0"
     ry="16.120955"
     sodipodi:insensitive="true" />
  <path
     sodipodi:type="star"
     style="display:inline;opacity:0.6;mix-blend-mode:overlay;fill:url(#radialGradient8);stroke:none;stroke-width:1.79705;stroke-linecap:round;stroke-linejoin:round;paint-order:markers stroke fill;filter:url(#filter7)"
     id="path7"
     inkscape:flatsided="true"
     sodipodi:sides="3"
     sodipodi:cx="198.1554"
     sodipodi:cy="50.737679"
     sodipodi:r1="55.108112"
     sodipodi:r2="27.554056"
     sodipodi:arg1="1.5707963"
     sodipodi:arg2="2.6179939"
     inkscape:rounded="0"
     inkscape:randomized="0"
     d="m 198.1554,105.84579 -47.72503,-82.662166 95.45005,-3e-6 z"
     inkscape:transform-center-y="-13.777029"
     transform="matrix(1,0,0,-1,-130.42206,158.65029)"
     inkscape:label="center-dark"
     sodipodi:insensitive="true" />
  <path
     style="display:inline;color:#000000;mix-blend-mode:normal;fill:#000000;fill-opacity:1;stroke-linecap:round;stroke-linejoin:round;-inkscape-stroke:none;paint-order:markers stroke fill;filter:url(#filter61)"
     d="m 193.21289,-27.333984 c -10.63503,0 -19.29492,8.659892 -19.29492,19.2949215 V 95.1875 c 0,10.63503 8.65989,19.29492 19.29492,19.29492 H 296.4375 c 10.63503,0 19.29687,-8.65989 19.29687,-19.29492 V -8.0390625 c 0,-10.6350295 -8.66184,-19.2949215 -19.29687,-19.2949215 z m 0,6.349609 H 296.4375 c 7.22697,0 12.94531,5.718342 12.94531,12.9453125 V 95.1875 c 0,7.22697 -5.71834,12.94531 -12.94531,12.94531 H 193.21289 c -7.22697,0 -12.94531,-5.71834 -12.94531,-12.94531 V -8.0390625 c 0,-7.2269705 5.71834,-12.9453125 12.94531,-12.9453125 z"
     id="path57"
     clip-path="url(#clipPath57)"
     transform="translate(-177.09284,24.159114)"
     inkscape:label="edge-undder-shadow" />
  <path
     style="color:#000000;display:inline;mix-blend-mode:normal;fill:url(#linearGradient38);stroke-linecap:round;stroke-linejoin:round;-inkscape-stroke:none;paint-order:markers stroke fill"
     d="m 193.21289,-27.333984 c -10.63503,0 -19.29492,8.659892 -19.29492,19.2949215 V 95.1875 c 0,10.63503 8.65989,19.29492 19.29492,19.29492 H 296.4375 c 10.63503,0 19.29687,-8.65989 19.29687,-19.29492 V -8.0390625 c 0,-10.6350295 -8.66184,-19.2949215 -19.29687,-19.2949215 z m 0,6.349609 H 296.4375 c 7.22697,0 12.94531,5.718342 12.94531,12.9453125 V 95.1875 c 0,7.22697 -5.71834,12.94531 -12.94531,12.94531 H 193.21289 c -7.22697,0 -12.94531,-5.71834 -12.94531,-12.94531 V -8.0390625 c 0,-7.2269705 5.71834,-12.9453125 12.94531,-12.9453125 z"
     id="path34"
     clip-path="url(#clipPath35)"
     transform="translate(-177.09284,24.159114)"
     inkscape:label="edge"
     sodipodi:insensitive="true" />
  <rect
     style="display:none;mix-blend-mode:color;fill:#75a0d6;fill-opacity:1;stroke:none;stroke-width:1.79705;stroke-linecap:round;stroke-linejoin:round;paint-order:markers stroke fill"
     id="rect56"
     width="135.46666"
     height="135.46666"
     x="2.7270507e-06"
     y="2.7270507e-06"
     ry="16.120955"
     inkscape:label="ps-blue" />
  <rect
     style="display:inline;mix-blend-mode:color;fill:#d6ca75;fill-opacity:1;stroke:none;stroke-width:1.79705;stroke-linecap:round;stroke-linejoin:round;paint-order:markers stroke fill"
     id="rect61"
     width="135.46666"
     height="135.46666"
     x="2.7270507e-06"
     y="2.7270507e-06"
     ry="16.120955"
     inkscape:label="ai-yellow" />
  <g
     id="g64"
     transform="translate(100.1101,-11.711321)"
     style="display:inline">
    <path
       d="m -63.791368,22.705326 h -9.719218 l -16.016176,52.360577 h 8.144978 l 4.517383,-15.40017 h 16.016177 l 4.722718,15.40017 h 8.350315 z m -11.841019,30.868785 4.175157,-13.757485 c 0.889788,-3.216925 1.71113,-7.049856 2.464027,-10.26678 h 0.136891 c 0.752897,3.216924 1.642684,6.912965 2.600917,10.335225 l 4.106712,13.68904 z m 43.325764,-26.625183 c 0,-2.669362 -1.84802,-4.654273 -4.585828,-4.654273 -2.737808,0 -4.654274,1.984911 -4.654274,4.654273 0,2.532473 1.848021,4.585829 4.585828,4.585829 2.874699,0 4.654274,-2.053356 4.654274,-4.585829 z m -0.684452,10.335225 h -7.939643 v 37.78175 h 7.939643 z"
       id="text61"
       style="font-size:68.4452px;line-height:1.25;font-family:'Adobe Fan Heiti Std';-inkscape-font-specification:'Adobe Fan Heiti Std, Normal';opacity:0.6;fill:#ffffff;stroke-width:0.264582"
       aria-label="Ai" />
    <path
       id="text8"
       style="font-style:normal;font-variant:normal;font-weight:normal;font-stretch:normal;font-size:68.4452px;line-height:1.25;font-family:'Adobe Fan Heiti Std';-inkscape-font-specification:'Adobe Fan Heiti Std, Normal';font-variant-ligatures:normal;font-variant-caps:normal;font-variant-numeric:normal;font-variant-east-asian:normal;display:inline;opacity:0.6;mix-blend-mode:normal;fill:#000000;fill-opacity:1;stroke:none;stroke-width:0.264582"
       d="m -36.892767,22.294655 c -2.737805,0 -4.653979,1.985136 -4.653979,4.654496 0,1.434657 0.593638,2.714413 1.605587,3.555338 -0.684562,-0.807943 -1.07642,-1.865095 -1.07642,-3.026171 0,-2.66936 1.916174,-4.654497 4.653979,-4.654497 1.187199,0 2.206255,0.374492 2.980697,1.014926 -0.808557,-0.958197 -2.026783,-1.544092 -3.509864,-1.544092 z m -36.617919,0.410827 -16.016076,52.360628 h 0.69091 L -72.98152,23.234649 h 9.351884 l -0.161747,-0.529167 z m 5.046203,7.37371 c -0.04131,0.176501 -0.08799,0.383267 -0.129707,0.563274 0.697633,2.955801 1.482941,6.187787 2.338358,9.242846 l 4.106726,13.689087 H -74.94264 l -0.160714,0.529166 h 13.483415 l -4.106726,-13.689086 c -0.958232,-3.422257 -1.847979,-7.118366 -2.600875,-10.335287 z m 27.53372,7.205245 V 75.06611 h 0.529167 V 37.813604 h 7.4104 v -0.529167 z m -19.755383,22.910746 4.560445,14.870927 h 0.366903 l -4.560445,-14.870927 z" />
    <path
       id="text64"
       style="font-style:normal;font-variant:normal;font-weight:normal;font-stretch:normal;font-size:68.4452px;line-height:1.25;font-family:'Adobe Fan Heiti Std';-inkscape-font-specification:'Adobe Fan Heiti Std, Normal';font-variant-ligatures:normal;font-variant-caps:normal;font-variant-numeric:normal;font-variant-east-asian:normal;display:inline;opacity:0.6;mix-blend-mode:normal;fill:#ffffff;fill-opacity:1;stroke:none;stroke-width:0.264582"
       d="m -64.158799,22.705269 15.85433,51.831461 h -7.98349 l 0.16226,0.529169 h 8.3504 l -16.01608,-52.36063 z m 30.24673,0.60358 c 0.68422,0.810693 1.07642,1.887415 1.07642,3.110922 0,2.532469 -1.7798,4.585766 -4.65449,4.585766 -1.18755,0 -2.20669,-0.387276 -2.98122,-1.031461 0.80856,0.954939 2.02722,1.560628 3.51038,1.560628 2.8747,0 4.6545,-2.053297 4.6545,-4.585766 0,-1.51197 -0.59393,-2.803622 -1.60559,-3.640089 z m -35.61023,5.711796 c -0.75289,3.216922 -1.57414,7.049636 -2.46393,10.266558 l -4.17545,13.757817 h 0.68988 l 4.01474,-13.22865 c 0.84092,-3.040271 1.61557,-6.602069 2.33422,-9.702768 -0.08389,-0.355438 -0.18169,-0.747629 -0.26251,-1.092956 z m 36.00194,8.263579 V 74.53673 h -7.4104 v 0.529169 h 7.93957 V 37.284224 Z m -43.87329,21.852413 -4.517553,15.400093 h -7.45381 l -0.16175,0.529169 h 8.14472 l 4.517563,-15.400096 h 15.64917 l -0.16226,-0.529167 z" />
    <text
       xml:space="preserve"
       style="font-style:normal;font-variant:normal;font-weight:normal;font-stretch:normal;font-size:68.4452px;line-height:1.25;font-family:'Adobe Fan Heiti Std';-inkscape-font-specification:'Adobe Fan Heiti Std, Normal';font-variant-ligatures:normal;font-variant-caps:normal;font-variant-numeric:normal;font-variant-east-asian:normal;display:none;opacity:0.6;mix-blend-mode:normal;fill:#ffffff;fill-opacity:1;stroke:none;stroke-width:0.264582"
       x="-91.237892"
       y="75.065903"
       id="text1"
       sodipodi:insensitive="true"><tspan
         sodipodi:role="line"
         id="tspan1"
         style="font-style:normal;font-variant:normal;font-weight:normal;font-stretch:normal;font-size:68.4452px;font-family:'Adobe Fan Heiti Std';-inkscape-font-specification:'Adobe Fan Heiti Std, Normal';font-variant-ligatures:normal;font-variant-caps:normal;font-variant-numeric:normal;font-variant-east-asian:normal;fill:#ffffff;stroke-width:0.264582"
         x="0"
         y="0">Ai</tspan></text>
  </g>
</g>
<metadata
   id="metadata1">
  <rdf:RDF>
    <cc:Work
       rdf:about="">
      <dc:creator>
        <cc:Agent>
          <dc:title>Jess Tipton</dc:title>
        </cc:Agent>
      </dc:creator>
      <dc:publisher>
        <cc:Agent>
          <dc:title>m0dw3rks.com</dc:title>
        </cc:Agent>
      </dc:publisher>
      <cc:license
         rdf:resource="https://creativecommons.org/licenses/by-nc-nd/4.0/deed.en" />
    </cc:Work>
  </rdf:RDF>
</metadata>
<metadata
   id="metadata6">
  <rdf:RDF>
    <cc:Work
       rdf:about="">
      <dc:creator>
        <cc:Agent>
          <dc:title>Jess Tipton</dc:title>
        </cc:Agent>
      </dc:creator>
      <cc:license
         rdf:resource="https://creativecommons.org/licenses/by-nc-nd/4.0/deed.en" />
      <dc:publisher>
        <cc:Agent>
          <dc:title>m0dw3rks.com</dc:title>
        </cc:Agent>
      </dc:publisher>
    </cc:Work>
  </rdf:RDF>
</metadata>
<metadata
   id="metadata2">
  <rdf:RDF>
    <cc:Work
       rdf:about="">
      <dc:creator>
        <cc:Agent>
          <dc:title>Jess Tipton</dc:title>
        </cc:Agent>
      </dc:creator>
      <cc:license
         rdf:resource="https://creativecommons.org/licenses/by-nc-nd/4.0/deed.en" />
      <dc:publisher>
        <cc:Agent>
          <dc:title>m0dw3rks.com</dc:title>
        </cc:Agent>
      </dc:publisher>
    </cc:Work>
  </rdf:RDF>
</metadata>
<metadata
   id="metadata3">
  <rdf:RDF>
    <cc:Work
       rdf:about="">
      <dc:creator>
        <cc:Agent>
          <dc:title>Jess Tipton</dc:title>
        </cc:Agent>
      </dc:creator>
      <cc:license
         rdf:resource="https://creativecommons.org/licenses/by-nc-nd/4.0/deed.en" />
      <dc:publisher>
        <cc:Agent>
          <dc:title>m0dw3rks.com</dc:title>
        </cc:Agent>
      </dc:publisher>
    </cc:Work>
  </rdf:RDF>
</metadata>
<metadata
   id="metadata4">
  <rdf:RDF>
    <cc:Work
       rdf:about="">
      <dc:creator>
        <cc:Agent>
          <dc:title>Jess Tipton</dc:title>
        </cc:Agent>
      </dc:creator>
      <cc:license
         rdf:resource="https://creativecommons.org/licenses/by-nc-nd/4.0/deed.en" />
      <dc:publisher>
        <cc:Agent>
          <dc:title>m0dw3rks.com</dc:title>
        </cc:Agent>
      </dc:publisher>
    </cc:Work>
  </rdf:RDF>
</metadata>
<metadata
   id="metadata5">
  <rdf:RDF>
    <cc:Work
       rdf:about="">
      <dc:creator>
        <cc:Agent>
          <dc:title>Jess Tipton</dc:title>
        </cc:Agent>
      </dc:creator>
      <cc:license
         rdf:resource="https://creativecommons.org/licenses/by-nc-nd/4.0/deed.en" />
      <dc:publisher>
        <cc:Agent>
          <dc:title>m0dw3rks.com</dc:title>
        </cc:Agent>
      </dc:publisher>
    </cc:Work>
  </rdf:RDF>
</metadata>
<metadata
   id="metadata7">
  <rdf:RDF>
    <cc:Work
       rdf:about="">
      <dc:creator>
        <cc:Agent>
          <dc:title>Jess Tipton</dc:title>
        </cc:Agent>
      </dc:creator>
      <cc:license
         rdf:resource="https://creativecommons.org/licenses/by-nc-nd/4.0/deed.en" />
      <dc:publisher>
        <cc:Agent>
          <dc:title>m0dw3rks.com</dc:title>
        </cc:Agent>
      </dc:publisher>
    </cc:Work>
  </rdf:RDF>
</metadata>
<metadata
   id="metadata8">
  <rdf:RDF>
    <cc:Work
       rdf:about="">
      <dc:creator>
        <cc:Agent>
          <dc:title>Jess Tipton</dc:title>
        </cc:Agent>
      </dc:creator>
      <cc:license
         rdf:resource="https://creativecommons.org/licenses/by-nc-nd/4.0/deed.en" />
      <dc:publisher>
        <cc:Agent>
          <dc:title>m0dw3rks.com</dc:title>
        </cc:Agent>
      </dc:publisher>
    </cc:Work>
  </rdf:RDF>
</metadata>
<metadata
   id="metadata9">
  <rdf:RDF>
    <cc:Work
       rdf:about="">
      <dc:creator>
        <cc:Agent>
          <dc:title>Jess Tipton</dc:title>
        </cc:Agent>
      </dc:creator>
      <cc:license
         rdf:resource="https://creativecommons.org/licenses/by-nc-nd/4.0/deed.en" />
      <dc:publisher>
        <cc:Agent>
          <dc:title>m0dw3rks.com</dc:title>
        </cc:Agent>
      </dc:publisher>
    </cc:Work>
  </rdf:RDF>
</metadata>
<metadata
   id="metadata10">
  <rdf:RDF>
    <cc:Work
       rdf:about="">
      <dc:creator>
        <cc:Agent>
          <dc:title>Jess Tipton</dc:title>
        </cc:Agent>
      </dc:creator>
      <cc:license
         rdf:resource="https://creativecommons.org/licenses/by-nc-nd/4.0/deed.en" />
      <dc:publisher>
        <cc:Agent>
          <dc:title>m0dw3rks.com</dc:title>
        </cc:Agent>
      </dc:publisher>
    </cc:Work>
  </rdf:RDF>
</metadata>
<metadata
   id="metadata11">
  <rdf:RDF>
    <cc:Work
       rdf:about="">
      <dc:creator>
        <cc:Agent>
          <dc:title>Jess Tipton</dc:title>
        </cc:Agent>
      </dc:creator>
      <cc:license
         rdf:resource="https://creativecommons.org/licenses/by-nc-nd/4.0/deed.en" />
      <dc:publisher>
        <cc:Agent>
          <dc:title>m0dw3rks.com</dc:title>
        </cc:Agent>
      </dc:publisher>
    </cc:Work>
  </rdf:RDF>
</metadata>
<metadata
   id="metadata12">
  <rdf:RDF>
    <cc:Work
       rdf:about="">
      <dc:creator>
        <cc:Agent>
          <dc:title>Jess Tipton</dc:title>
        </cc:Agent>
      </dc:creator>
      <cc:license
         rdf:resource="https://creativecommons.org/licenses/by-nc-nd/4.0/deed.en" />
      <dc:publisher>
        <cc:Agent>
          <dc:title>m0dw3rks.com</dc:title>
        </cc:Agent>
      </dc:publisher>
    </cc:Work>
  </rdf:RDF>
</metadata>
<metadata
   id="metadata13">
  <rdf:RDF>
    <cc:Work
       rdf:about="">
      <dc:creator>
        <cc:Agent>
          <dc:title>Jess Tipton</dc:title>
        </cc:Agent>
      </dc:creator>
      <cc:license
         rdf:resource="https://creativecommons.org/licenses/by-nc-nd/4.0/deed.en" />
      <dc:publisher>
        <cc:Agent>
          <dc:title>m0dw3rks.com</dc:title>
        </cc:Agent>
      </dc:publisher>
    </cc:Work>
  </rdf:RDF>
</metadata>
<metadata
   id="metadata14">
  <rdf:RDF>
    <cc:Work
       rdf:about="">
      <dc:creator>
        <cc:Agent>
          <dc:title>Jess Tipton</dc:title>
        </cc:Agent>
      </dc:creator>
      <cc:license
         rdf:resource="https://creativecommons.org/licenses/by-nc-nd/4.0/deed.en" />
      <dc:publisher>
        <cc:Agent>
          <dc:title>m0dw3rks.com</dc:title>
        </cc:Agent>
      </dc:publisher>
    </cc:Work>
  </rdf:RDF>
</metadata>
<metadata
   id="metadata15">
  <rdf:RDF>
    <cc:Work
       rdf:about="">
      <dc:creator>
        <cc:Agent>
          <dc:title>Jess Tipton</dc:title>
        </cc:Agent>
      </dc:creator>
      <cc:license
         rdf:resource="https://creativecommons.org/licenses/by-nc-nd/4.0/deed.en" />
      <dc:publisher>
        <cc:Agent>
          <dc:title>m0dw3rks.com</dc:title>
        </cc:Agent>
      </dc:publisher>
    </cc:Work>
  </rdf:RDF>
</metadata>
<metadata
   id="metadata16">
  <rdf:RDF>
    <cc:Work
       rdf:about="">
      <dc:creator>
        <cc:Agent>
          <dc:title>Jess Tipton</dc:title>
        </cc:Agent>
      </dc:creator>
      <cc:license
         rdf:resource="https://creativecommons.org/licenses/by-nc-nd/4.0/deed.en" />
      <dc:publisher>
        <cc:Agent>
          <dc:title>m0dw3rks.com</dc:title>
        </cc:Agent>
      </dc:publisher>
    </cc:Work>
  </rdf:RDF>
</metadata>
<metadata
   id="metadata17">
  <rdf:RDF>
    <cc:Work
       rdf:about="">
      <dc:creator>
        <cc:Agent>
          <dc:title>Jess Tipton</dc:title>
        </cc:Agent>
      </dc:creator>
      <cc:license
         rdf:resource="https://creativecommons.org/licenses/by-nc-nd/4.0/deed.en" />
      <dc:publisher>
        <cc:Agent>
          <dc:title>m0dw3rks.com</dc:title>
        </cc:Agent>
      </dc:publisher>
    </cc:Work>
  </rdf:RDF>
</metadata>
<metadata
   id="metadata18">
  <rdf:RDF>
    <cc:Work
       rdf:about="">
      <dc:creator>
        <cc:Agent>
          <dc:title>Jess Tipton</dc:title>
        </cc:Agent>
      </dc:creator>
      <cc:license
         rdf:resource="https://creativecommons.org/licenses/by-nc-nd/4.0/deed.en" />
      <dc:publisher>
        <cc:Agent>
          <dc:title>m0dw3rks.com</dc:title>
        </cc:Agent>
      </dc:publisher>
    </cc:Work>
  </rdf:RDF>
</metadata>
</svg>
