<?xml version="1.0" encoding="UTF-8" standalone="no"?>
<!-- Created with Inkscape (http://www.inkscape.org/) -->

<svg
   width="512"
   height="512"
   viewBox="0 0 135.46666 135.46667"
   version="1.1"
   id="svg5"
   inkscape:version="1.4 (e7c3feb100, 2024-10-09)"
   sodipodi:docname="application-vnd.openxmlformatsofficedocument.spreadsheetml.sheet.svg"
   xmlns:inkscape="http://www.inkscape.org/namespaces/inkscape"
   xmlns:sodipodi="http://sodipodi.sourceforge.net/DTD/sodipodi-0.dtd"
   xmlns:xlink="http://www.w3.org/1999/xlink"
   xmlns="http://www.w3.org/2000/svg"
   xmlns:svg="http://www.w3.org/2000/svg">
  <sodipodi:namedview
     id="namedview7"
     pagecolor="#242424"
     bordercolor="#666666"
     borderopacity="1"
     inkscape:showpageshadow="0"
     inkscape:pageopacity="0"
     inkscape:pagecheckerboard="1"
     inkscape:deskcolor="#000000"
     inkscape:document-units="px"
     showgrid="false"
     inkscape:zoom="1.3037281"
     inkscape:cx="348.61564"
     inkscape:cy="217.45332"
     inkscape:window-width="3256"
     inkscape:window-height="1080"
     inkscape:window-x="1864"
     inkscape:window-y="0"
     inkscape:window-maximized="0"
     inkscape:current-layer="layer1" />
  <defs
     id="defs2">
    <linearGradient
       id="linearGradient1"
       inkscape:collect="always">
      <stop
         style="stop-color:#00ff00;stop-opacity:1;"
         offset="0"
         id="stop1" />
      <stop
         style="stop-color:#00ff00;stop-opacity:0;"
         offset="1"
         id="stop2" />
    </linearGradient>
    <linearGradient
       inkscape:collect="always"
       xlink:href="#linearGradient1"
       id="linearGradient2"
       x1="67.73333"
       y1="135.46666"
       x2="67.73333"
       y2="0"
       gradientUnits="userSpaceOnUse" />
    <filter
       inkscape:collect="always"
       style="color-interpolation-filters:sRGB"
       id="filter5"
       x="-0.01385117"
       y="-0.022964923"
       width="1.0277023"
       height="1.0459298">
      <feGaussianBlur
         inkscape:collect="always"
         stdDeviation="0.75191692"
         id="feGaussianBlur5" />
    </filter>
  </defs>
  <g
     inkscape:label="Layer 1"
     inkscape:groupmode="layer"
     id="layer1">
    <path
       id="rect4"
       style="display:inline;opacity:1;fill:#008000;stroke-width:8.46668;stroke-linecap:round;stroke-linejoin:round;stroke-miterlimit:1;paint-order:fill markers stroke"
       d="M 16.933333,0 0,19.352307 V 38.704614 L 33.866666,0 Z M 50.799999,0 0,58.056921 V 77.409744 L 67.733332,0 Z M 84.666666,0 0,96.762051 V 116.11436 L 101.6,0 Z M 118.53333,0 0,135.46666 H 16.933333 L 135.46666,0 Z M 135.46666,19.352307 33.866666,135.46666 H 50.799999 L 135.46666,38.704614 Z m 0,38.704614 -67.733328,77.409739 H 84.666666 L 135.46666,77.409744 Z m 0,38.70513 L 101.6,135.46666 h 16.93333 l 16.93333,-19.3523 z" />
    <rect
       style="display:inline;opacity:1;fill:url(#linearGradient2);stroke:none;stroke-width:8.46667;stroke-linecap:round;stroke-linejoin:round;stroke-miterlimit:1;paint-order:fill markers stroke"
       id="rect3"
       width="135.46666"
       height="135.46666"
       x="0"
       y="0"
       ry="0" />
    <path
       id="text4"
       style="font-size:56.7469px;line-height:1.25;font-family:Aharoni;-inkscape-font-specification:'Aharoni, Normal';font-variant-ligatures:none;text-align:center;text-orientation:upright;text-anchor:middle;fill:#000000;stroke-width:0.264583;filter:url(#filter5)"
       d="m 94.13973,29.5013 c -4.063905,0 -7.315066,1.357708 -9.753409,4.073136 -2.08737,2.309037 -3.131075,5.218413 -3.131075,8.728149 0,3.361958 1.00649,5.873984 3.01997,7.536491 0.701948,0.572641 1.551695,1.07117 2.549199,1.496033 0.628058,0.277084 2.161376,0.77613 4.599719,1.496549 2.01348,0.572641 3.445102,1.136167 4.294828,1.690336 1.145283,0.738892 1.717725,1.662553 1.717725,2.77089 0,1.219172 -0.516878,2.161182 -1.551327,2.826185 -0.88667,0.591113 -1.967591,0.886767 -3.242179,0.886767 -2.826262,0 -5.717288,-1.330443 -8.672856,-3.990454 l -4.211629,7.924581 c 4.045433,2.863206 8.432562,4.294828 13.161471,4.294828 2.25362,0 4.35938,-0.341785 6.317443,-1.02526 5.61558,-1.939592 8.42377,-6.10498 8.42377,-12.496395 0,-2.49376 -0.63743,-4.53504 -1.91202,-6.123657 -1.47779,-1.865702 -3.95311,-3.306241 -7.425906,-4.322217 -2.770844,-0.812781 -4.433123,-1.38574 -4.987292,-1.718241 -1.237644,-0.72042 -1.856734,-1.579083 -1.856734,-2.576587 0,-1.015977 0.471263,-1.829025 1.41335,-2.438611 0.831253,-0.535697 1.773263,-0.803569 2.826184,-0.803569 2.179731,0 4.341058,0.831398 6.483838,2.493905 l 3.93465,-7.647595 C 102.22132,30.526139 98.222108,29.5013 94.13973,29.5013 Z m -59.905903,0.914156 -6.428548,37.82198 h 9.781315 l 3.214274,-21.779032 8.728149,21.779032 h 3.906738 l 9.143628,-21.779032 2.798796,21.779032 h 9.836609 L 69.506609,30.415456 H 59.725811 L 51.606927,50.587351 43.931943,30.415456 Z m 89.553703,35.023701 v 41.618133 h 9.08834 V 65.439157 Z M 2.590798,69.234791 V 107.05729 H 24.120233 V 98.827816 H 12.427406 V 92.094377 H 23.483062 V 83.864906 H 12.427406 V 77.464263 H 24.120233 V 69.234791 Z M 80.20208,80.540044 c -4.691964,0 -8.413871,1.588882 -11.166243,4.766117 -2.216676,2.549177 -3.325379,5.523033 -3.325379,8.921936 0,3.380431 1.108703,6.354293 3.325379,8.921943 2.752372,3.17723 6.474279,4.76612 11.166243,4.76612 2.068897,0 4.045696,-0.47127 5.92987,-1.41335 v -7.730804 c -1.625562,1.108338 -3.196095,1.662944 -4.710823,1.662944 -1.810285,0 -3.306388,-0.581872 -4.488615,-1.745626 -1.182227,-1.163755 -1.773535,-2.650942 -1.773535,-4.461227 0,-1.810285 0.591308,-3.297471 1.773535,-4.461226 1.182227,-1.163755 2.67833,-1.74563 4.488615,-1.74563 1.533201,0 3.103734,0.563526 4.710823,1.690336 v -7.730794 c -1.847229,-0.96056 -3.824028,-1.440739 -5.92987,-1.440739 z m 24.38352,0.0832 c -4.54418,0 -8.063214,1.283795 -10.556974,3.851445 -2.49376,2.567649 -3.740857,5.90164 -3.740857,10.00249 0,3.454319 0.997574,6.382561 2.992582,8.783961 2.660011,3.21418 6.631958,4.8209 11.915039,4.8209 4.15626,0 7.4719,-1.15432 9.94719,-3.46336 1.36695,-1.27458 2.40122,-3.07577 3.10317,-5.403289 h -8.78344 c -1.01598,1.625569 -2.47538,2.438619 -4.37803,2.438619 -3.7314,0 -5.597072,-1.930676 -5.597072,-5.791386 h 19.118732 v -1.163753 c 0,-3.029457 -0.67414,-5.68931 -2.02262,-7.979875 -2.4014,-4.063906 -6.40061,-6.095752 -11.99772,-6.095752 z m -75.782449,0.72037 10.445874,11.748119 -12.85658,13.965557 h 11.997717 l 6.59443,-7.647596 6.622335,7.647596 H 63.632549 L 50.748064,93.091732 61.388242,81.343613 H 49.584311 l -4.51652,5.292183 -4.433321,-5.292183 z m 76.142639,5.043102 c 2.80779,0 4.53506,1.42219 5.18159,4.266923 H 99.736805 c 0.203195,-1.219171 0.683375,-2.188963 1.440735,-2.909383 0.96056,-0.905142 2.21658,-1.35754 3.76825,-1.35754 z" />
    <g
       id="g5">
      <path
         d="M 75.214617,67.206871 H 65.378119 L 62.579566,45.428032 53.435778,67.206871 h -3.906891 l -8.72816,-21.778839 -3.21418,21.778839 h -9.781082 l 6.42836,-37.82203 h 9.697956 l 7.67524,20.17175 8.118575,-20.17175 h 9.781081 z M 107.66121,54.682653 q 0,9.587123 -8.423368,12.49651 -2.937096,1.025212 -6.317526,1.025212 -7.093362,0 -13.161512,-4.294809 l 4.211684,-7.924616 q 4.433351,3.990016 8.672743,3.990016 1.911883,0 3.241889,-0.88667 1.551673,-0.997504 1.551673,-2.826261 0,-1.662507 -1.717924,-2.770845 -1.274589,-0.831253 -4.294809,-1.690215 -3.657515,-1.08063 -4.599602,-1.496256 -1.496257,-0.637295 -2.549177,-1.496257 -3.020221,-2.49376 -3.020221,-7.536697 0,-5.264605 3.131054,-8.728161 3.657515,-4.073141 9.753373,-4.073141 6.123563,0 11.997753,3.075637 l -3.93459,7.647532 q -3.214184,-2.493761 -6.483781,-2.493761 -1.579382,0 -2.826262,0.803545 -1.41313,0.914379 -1.41313,2.438344 0,1.496256 1.856466,2.576885 0.831253,0.498752 4.98752,1.717924 5.209187,1.523964 7.425867,4.322517 1.91188,2.382927 1.91188,6.123567 z"
         id="text1"
         style="font-size:56.7469px;line-height:1.25;font-family:Aharoni;-inkscape-font-specification:'Aharoni, Normal';font-variant-ligatures:none;text-align:center;text-orientation:upright;text-anchor:middle;fill:#ffffff;stroke-width:0.264583"
         aria-label="MS" />
      <path
         d="M 24.120234,106.02641 H 2.5907712 V 68.204383 H 24.120234 v 8.229409 H 12.42727 v 6.400651 h 11.05567 v 8.229409 H 12.42727 v 6.733152 h 11.692964 z m 39.512244,0 H 51.607012 l -6.622318,-7.647528 -6.594611,7.647528 H 26.392326 L 39.249045,92.061356 28.802961,80.312975 h 11.831507 l 4.433351,5.292313 4.516477,-5.292313 H 61.388094 L 50.748051,92.061356 Z m 22.499257,-0.55417 q -2.826261,1.41313 -5.929608,1.41313 -7.037945,0 -11.166503,-4.76585 -3.325014,-3.851472 -3.325014,-8.922118 0,-5.098354 3.325014,-8.92212 4.128558,-4.765852 11.166503,-4.765852 3.158763,0 5.929608,1.440839 v 7.730656 Q 83.7211,86.99071 81.421299,86.99071 q -2.715428,0 -4.488768,1.745632 -1.773341,1.745632 -1.773341,4.46106 0,2.715428 1.773341,4.46106 1.77334,1.745632 4.488768,1.745632 2.272093,0 4.710436,-1.662507 z M 118.60603,94.832201 H 99.487207 q 0,5.791069 5.597103,5.791069 2.85397,0 4.37794,-2.438347 h 8.78358 q -1.05293,3.491267 -3.10335,5.403147 -3.71293,3.46356 -9.94733,3.46356 -7.924619,0 -11.914635,-4.82127 -2.992513,-3.602102 -2.992513,-8.783582 0,-6.151275 3.740641,-10.002749 3.74064,-3.851474 10.556917,-3.851474 8.39566,0 11.99776,6.095858 2.02271,3.435848 2.02271,7.980033 z m -8.47878,-5.209188 q -0.9698,-4.267101 -5.18148,-4.267101 -2.32751,0 -3.76835,1.357714 -1.13604,1.080629 -1.440837,2.909387 z m 22.74864,16.403397 h -9.08837 V 64.408326 h 9.08837 z"
         id="text3"
         style="font-size:56.7469px;line-height:1.25;font-family:Aharoni;-inkscape-font-specification:'Aharoni, Normal';font-variant-ligatures:none;text-align:center;text-orientation:upright;text-anchor:middle;fill:#ffffff;stroke-width:0.264583"
         aria-label="Excel" />
      <text
         xml:space="preserve"
         style="font-size:56.7469px;line-height:1.25;font-family:Aharoni;-inkscape-font-specification:'Aharoni, Normal';font-variant-ligatures:none;text-align:center;text-orientation:upright;text-anchor:middle;display:none;fill:#ffffff;stroke-width:0.264583"
         x="67.719482"
         y="67.206871"
         id="text2"
         sodipodi:insensitive="true"><tspan
           sodipodi:role="line"
           style="fill:#ffffff;stroke-width:0.264583"
           x="0"
           y="0"
           id="tspan1">MS</tspan></text>
      <text
         xml:space="preserve"
         style="font-size:56.7469px;line-height:1.25;font-family:Aharoni;-inkscape-font-specification:'Aharoni, Normal';font-variant-ligatures:none;text-align:center;text-orientation:upright;text-anchor:middle;display:none;fill:#ffffff;stroke-width:0.264583"
         x="67.303848"
         y="106.02641"
         id="text5"
         sodipodi:insensitive="true"><tspan
           sodipodi:role="line"
           id="tspan4"
           style="fill:#ffffff;stroke-width:0.264583"
           x="0"
           y="0">Excel</tspan></text>
    </g>
  </g>
</svg>
