<?xml version="1.0" encoding="UTF-8" standalone="no"?>
<!-- Created with Inkscape (http://www.inkscape.org/) -->

<svg
   width="512"
   height="512"
   viewBox="0 0 135.46666 135.46667"
   version="1.1"
   id="svg5"
   inkscape:version="1.4.2 (ebf0e940d0, 2025-05-08)"
   sodipodi:docname="application-vnd.google-apps.drawing.svg"
   xmlns:inkscape="http://www.inkscape.org/namespaces/inkscape"
   xmlns:sodipodi="http://sodipodi.sourceforge.net/DTD/sodipodi-0.dtd"
   xmlns:xlink="http://www.w3.org/1999/xlink"
   xmlns="http://www.w3.org/2000/svg"
   xmlns:svg="http://www.w3.org/2000/svg">
  <sodipodi:namedview
     id="namedview7"
     pagecolor="#242424"
     bordercolor="#666666"
     borderopacity="1"
     inkscape:showpageshadow="0"
     inkscape:pageopacity="0"
     inkscape:pagecheckerboard="1"
     inkscape:deskcolor="#000000"
     inkscape:document-units="px"
     showgrid="false"
     inkscape:zoom="0.92187498"
     inkscape:cx="522.3051"
     inkscape:cy="344.94916"
     inkscape:window-width="3256"
     inkscape:window-height="1080"
     inkscape:window-x="1864"
     inkscape:window-y="0"
     inkscape:window-maximized="0"
     inkscape:current-layer="layer1" />
  <defs
     id="defs2">
    <linearGradient
       id="linearGradient19"
       inkscape:collect="always">
      <stop
         style="stop-color:#ffe700;stop-opacity:0;"
         offset="0"
         id="stop20" />
      <stop
         style="stop-color:#fae100;stop-opacity:1;"
         offset="1"
         id="stop19" />
    </linearGradient>
    <linearGradient
       inkscape:collect="always"
       xlink:href="#linearGradient19"
       id="linearGradient20"
       x1="67.73333"
       y1="0"
       x2="67.73333"
       y2="135.46666"
       gradientUnits="userSpaceOnUse" />
  </defs>
  <g
     inkscape:label="Layer 1"
     inkscape:groupmode="layer"
     id="layer1">
    <path
       id="rect4"
       style="display:inline;opacity:1;fill:#807300;stroke-width:8.46668;stroke-linecap:round;stroke-linejoin:round;stroke-miterlimit:1;paint-order:fill markers stroke;fill-opacity:1"
       d="M 16.933333 0 L 0 19.352307 L 0 38.704614 L 33.866666 0 L 16.933333 0 z M 50.799999 0 L 0 58.056921 L 0 77.409744 L 67.733332 0 L 50.799999 0 z M 84.666666 0 L 0 96.762051 L 0 116.11436 L 101.6 0 L 84.666666 0 z M 118.53333 0 L 0 135.46666 L 16.933333 135.46666 L 135.46666 0 L 118.53333 0 z M 135.46666 19.352307 L 33.866666 135.46666 L 50.799999 135.46666 L 135.46666 38.704614 L 135.46666 19.352307 z M 135.46666 58.056921 L 67.733332 135.46666 L 84.666666 135.46666 L 135.46666 77.409744 L 135.46666 58.056921 z M 135.46666 96.762051 L 101.6 135.46666 L 118.53333 135.46666 L 135.46666 116.11436 L 135.46666 96.762051 z " />
    <rect
       style="display:inline;opacity:1;fill:url(#linearGradient20);stroke:none;stroke-width:8.46667;stroke-linecap:round;stroke-linejoin:round;stroke-miterlimit:1;paint-order:fill markers stroke"
       id="rect3"
       width="135.46666"
       height="135.46666"
       x="0"
       y="0"
       ry="0" />
    <g
       id="g2"
       transform="matrix(-0.60667854,0.60667854,0.60667854,0.60667854,154.2513,-94.566495)"
       style="stroke-width:1.16554">
      <path
         id="rect1"
         style="fill:none;fill-opacity:1;stroke:#ffffff;stroke-width:8.63469;stroke-linecap:round;stroke-linejoin:round;stroke-miterlimit:12;stroke-opacity:1;paint-order:markers stroke fill"
         d="m 189.42358,4.5919677 c -3.18002,0 -5.7397,2.5601958 -5.7397,5.7402183 V 25.54366 40.754618 101.31319 h 42.76379 V 40.754618 25.54366 10.332186 c 0,-3.1800225 -2.56019,-5.7402183 -5.74021,-5.7402183 z" />
      <path
         sodipodi:type="star"
         style="fill:none;fill-opacity:1;stroke:#ffffff;stroke-width:10.2381;stroke-linecap:round;stroke-linejoin:round;stroke-miterlimit:12;stroke-opacity:1;paint-order:markers stroke fill"
         id="path1"
         inkscape:flatsided="true"
         sodipodi:sides="3"
         sodipodi:cx="209.22713"
         sodipodi:cy="120.82938"
         sodipodi:r1="29.274576"
         sodipodi:r2="14.637288"
         sodipodi:arg1="1.5707963"
         sodipodi:arg2="2.6179939"
         inkscape:rounded="0"
         inkscape:randomized="0"
         d="m 209.22713,150.10395 -25.35253,-43.91186 50.70505,0 z"
         inkscape:transform-center-y="6.1724292"
         transform="matrix(0.84338418,0,0,0.84338418,28.606697,11.752269)" />
    </g>
  </g>
</svg>
