<?xml version="1.0" encoding="UTF-8" standalone="no"?>
<!-- Created with Inkscape (http://www.inkscape.org/) -->

<svg
   width="512"
   height="512"
   viewBox="0 0 135.46666 135.46667"
   version="1.1"
   id="svg5"
   inkscape:version="1.4.2 (ebf0e940d0, 2025-05-08)"
   xml:space="preserve"
   sodipodi:docname="application-x-wonderswan-rom.svg"
   xmlns:inkscape="http://www.inkscape.org/namespaces/inkscape"
   xmlns:sodipodi="http://sodipodi.sourceforge.net/DTD/sodipodi-0.dtd"
   xmlns:xlink="http://www.w3.org/1999/xlink"
   xmlns="http://www.w3.org/2000/svg"
   xmlns:svg="http://www.w3.org/2000/svg"><sodipodi:namedview
     id="namedview7"
     pagecolor="#242424"
     bordercolor="#666666"
     borderopacity="1"
     inkscape:showpageshadow="0"
     inkscape:pageopacity="0"
     inkscape:pagecheckerboard="1"
     inkscape:deskcolor="#000000"
     inkscape:document-units="px"
     showgrid="false"
     inkscape:zoom="1.3037281"
     inkscape:cx="258.10596"
     inkscape:cy="284.18502"
     inkscape:window-width="3256"
     inkscape:window-height="1080"
     inkscape:window-x="1864"
     inkscape:window-y="0"
     inkscape:window-maximized="0"
     inkscape:current-layer="layer1" /><defs
     id="defs2"><linearGradient
       id="linearGradient101"
       inkscape:collect="always"><stop
         style="stop-color:#000000;stop-opacity:1;"
         offset="0"
         id="stop101" /><stop
         style="stop-color:#000000;stop-opacity:0;"
         offset="1"
         id="stop102" /></linearGradient><linearGradient
       id="linearGradient62"
       inkscape:collect="always"><stop
         style="stop-color:#a0892c;stop-opacity:1;"
         offset="0"
         id="stop62" /><stop
         style="stop-color:#b19216;stop-opacity:1;"
         offset="1"
         id="stop63" /></linearGradient><linearGradient
       id="linearGradient11"
       inkscape:collect="always"><stop
         style="stop-color:#ffffff;stop-opacity:1;"
         offset="0"
         id="stop11" /><stop
         style="stop-color:#cccccc;stop-opacity:1;"
         offset="1"
         id="stop12" /></linearGradient><linearGradient
       id="linearGradient7"
       inkscape:collect="always"><stop
         style="stop-color:#ffffff;stop-opacity:0.1;"
         offset="0"
         id="stop8" /><stop
         style="stop-color:#000000;stop-opacity:1;"
         offset="1"
         id="stop7" /></linearGradient><filter
       style="color-interpolation-filters:sRGB;"
       inkscape:label="Noise Fill"
       id="filter3"
       x="0"
       y="0"
       width="1"
       height="1"><feTurbulence
         type="fractalNoise"
         baseFrequency="12 12"
         numOctaves="4"
         seed="338"
         result="turbulence"
         id="feTurbulence2" /><feComposite
         in="SourceGraphic"
         in2="turbulence"
         operator="in"
         result="composite1"
         id="feComposite2" /><feColorMatrix
         values="1 0 0 0 0 0 1 0 0 0 0 0 1 0 0 0 0 0 4 -1 "
         result="color"
         id="feColorMatrix2" /><feFlood
         flood-opacity="1"
         flood-color="rgb(255,255,255)"
         result="flood"
         id="feFlood2" /><feMerge
         result="merge"
         id="feMerge3"><feMergeNode
           in="flood"
           id="feMergeNode2" /><feMergeNode
           in="color"
           id="feMergeNode3" /></feMerge><feComposite
         in2="SourceGraphic"
         operator="in"
         result="composite2"
         id="feComposite3" /></filter><linearGradient
       inkscape:collect="always"
       xlink:href="#linearGradient7"
       id="linearGradient8"
       x1="67.73333"
       y1="-36.315182"
       x2="67.733337"
       y2="-29.427048"
       gradientUnits="userSpaceOnUse" /><linearGradient
       inkscape:collect="always"
       xlink:href="#linearGradient11"
       id="linearGradient12"
       x1="67.733337"
       y1="89.709679"
       x2="67.73333"
       y2="84.433136"
       gradientUnits="userSpaceOnUse" /><filter
       inkscape:collect="always"
       style="color-interpolation-filters:sRGB"
       id="filter62"
       x="-0.0099065751"
       y="-0.06757817"
       width="1.0198132"
       height="1.1351563"><feGaussianBlur
         inkscape:collect="always"
         stdDeviation="0.50732474"
         id="feGaussianBlur62" /></filter><linearGradient
       inkscape:collect="always"
       xlink:href="#linearGradient62"
       id="linearGradient63"
       x1="129.68872"
       y1="108.66417"
       x2="5.7779417"
       y2="89.70977"
       gradientUnits="userSpaceOnUse" /><linearGradient
       inkscape:collect="always"
       xlink:href="#linearGradient101"
       id="linearGradient102"
       x1="67.733337"
       y1="29.92733"
       x2="67.733337"
       y2="35.2537"
       gradientUnits="userSpaceOnUse" /><filter
       inkscape:collect="always"
       style="color-interpolation-filters:sRGB"
       id="filter102"
       x="-0.021041941"
       y="-0.26814611"
       width="1.0420839"
       height="1.5362922"><feGaussianBlur
         inkscape:collect="always"
         stdDeviation="0.59510236"
         id="feGaussianBlur102" /></filter></defs><g
     inkscape:label="Layer 1"
     inkscape:groupmode="layer"
     id="layer1"><rect
       style="opacity:0.1;fill:#000000;stroke-width:3.19552;stroke-linecap:round;stroke-linejoin:round;stroke-miterlimit:12;paint-order:markers stroke fill;filter:url(#filter3)"
       id="rect1"
       width="135.46666"
       height="65.347267"
       x="6.8572979e-07"
       y="27.839546"
       transform="matrix(1,0,0,0.86604377,0,3.7292807)" /><rect
       style="display:inline;opacity:0.4;fill:#000000;stroke-width:2.9738;stroke-linecap:round;stroke-linejoin:round;stroke-miterlimit:12;paint-order:markers stroke fill"
       id="rect3"
       width="135.46666"
       height="56.593594"
       x="6.8572979e-07"
       y="27.839546" /><rect
       style="opacity:0.2;fill:url(#linearGradient8);fill-opacity:1;stroke-width:2.24506;stroke-linecap:round;stroke-linejoin:round;stroke-miterlimit:12;paint-order:markers stroke fill"
       id="rect4"
       width="69.455368"
       height="6.8881335"
       x="33.00565"
       y="-36.315182"
       ry="3.4440668"
       transform="scale(1,-1)" /><rect
       style="display:inline;opacity:1;fill:#ffffff;fill-opacity:1;stroke-width:5.05173;stroke-linecap:round;stroke-linejoin:round;stroke-miterlimit:12;paint-order:markers stroke fill"
       id="rect5"
       width="131.81366"
       height="43.2747"
       x="1.8265001"
       y="37.902683"
       ry="1.2680933" /><path
       id="rect6"
       style="opacity:0.4;fill:#000000;stroke-width:2.58754;stroke-linecap:round;stroke-linejoin:round;stroke-miterlimit:12;paint-order:markers stroke fill"
       d="M 2.3162823e-7,84.433136 0,92.694603 2.6458333,95.637059 v 2.942972 2.942459 L 0,104.46548 v 2.16629 l 2.6458333,3.14864 H 132.82083 l 2.64583,-3.14864 v -2.16629 l -2.64583,-2.94299 v -2.942459 -2.942972 l 2.64583,-2.942456 V 84.433136 H 67.733333 Z"
       sodipodi:nodetypes="cccccccccccccccccc"
       sodipodi:insensitive="true" /><path
       id="rect8"
       style="opacity:0.2;mix-blend-mode:normal;fill:url(#linearGradient102);fill-opacity:1;stroke-width:2.70205;stroke-linecap:round;stroke-linejoin:round;stroke-miterlimit:12;paint-order:markers stroke fill;filter:url(#filter102)"
       d="m 35.724898,29.942854 c -1.375704,-0.01994 -2.438075,2.253555 -1.67369,3.921245 0.460385,1.20789 1.507652,1.534783 2.410753,1.334956 21.166692,0.0099 42.335186,0.05125 63.500759,0.01118 1.38615,-0.153615 2.24294,-2.633919 1.33174,-4.154796 -0.60278,-1.246215 -1.763323,-1.144275 -2.71001,-1.071445 -20.839189,-0.02149 -41.679592,0.0076 -62.518023,-0.05313 -0.113594,-0.01217 -0.227792,0.0109 -0.341529,0.01203 z" /><path
       d="m 62.166357,32.346194 1.116648,-1.316981 H 61.63505 l -0.411086,0.661982 -0.576623,0.543482 h -1.752505 l -1.456329,0.897147 -0.400674,1.496457 c -0.08884,0.329358 0.202064,0.595769 0.648028,0.595769 h 2.837774 l 1.208975,0.02965 0.639327,-2.419736 c 0.05411,-0.198507 -0.03108,-0.376281 -0.205564,-0.485901 z m -1.926746,2.416087 -0.611458,0.01477 h -0.806557 c -0.109741,0 -0.182905,-0.06964 -0.162023,-0.148146 l 0.39372,-1.49646 0.728163,-0.447887 h 0.815271 c 0.108049,0 0.18291,0.06272 0.160232,0.148143 l -0.517381,1.930104 m 30.01375,0.457741 -0.998197,-0.0056 0.679392,-2.534635 h -0.607959 c -0.553963,0 -1.106195,0.336285 -1.214182,0.745533 l -0.162028,0.595769 c -0.102695,0.414804 0.261324,0.750841 0.815276,0.750841 h 0.475591 l -0.594032,0.44787 h -1.008635 c -0.893663,0 -1.485961,-0.538289 -1.310013,-1.198551 l 0.167265,-0.595769 c 0.184621,-0.658484 1.050433,-1.193289 1.942346,-1.193289 h 1.616609 l 1.637458,-0.06075 -0.808306,3.024122 -0.630603,0.0247 M 78.759464,31.319549 h -2.23849 c -0.221227,0 -0.46339,0.200488 -0.531323,0.454784 l -0.06441,0.235061 c -0.06441,0.25431 0.0575,0.454785 0.282205,0.454785 h 1.827448 c 0.5557,0 0.877987,0.513911 0.702038,1.153219 l -0.127126,0.452831 c -0.174212,0.637603 -0.778689,1.151501 -1.334387,1.151501 h -6.172036 l 0.797851,-0.688111 h 4.55368 c 0.223001,0 0.458137,-0.21086 0.527836,-0.463185 l 0.0627,-0.228152 c 0.06963,-0.254293 -0.05748,-0.461695 -0.280481,-0.461695 h -1.829052 c -0.555714,0 -0.860565,-0.513911 -0.695082,-1.142765 l 0.127126,-0.463183 c 0.172493,-0.628854 0.769982,-1.142765 1.334404,-1.142765 h 2.217641 l 1.714153,-0.104651 -0.874485,0.792657 m -10.114186,3.900154 h -1.013854 l 0.559188,-2.088743 1.456327,-0.898881 h 2.430089 c 0.668938,0 1.099214,0.402452 0.966828,0.898881 l -0.0038,0.01044 -0.719463,0.447873 h -1.015605 l 0.123728,-0.459728 c 0.07316,-0.252341 -0.156776,-0.451343 -0.487786,-0.451343 h -0.407624 l -0.728182,0.451343 -0.545249,2.06439 -0.614941,0.0247 m -12.941458,0.0016 h -1.015577 l 0.559187,-2.08874 c 0.06794,-0.252341 -0.155057,-0.451329 -0.486002,-0.451329 h -1.015655 l -0.480826,1.823804 -0.799597,0.716006 H 51.44961 l 0.81876,-3.055617 1.59051,0.06819 h 2.036396 c 0.668938,0 1.100943,0.402453 0.966827,0.898882 l -0.543508,2.06439 -0.614946,0.0247 m 40.007636,0 h -1.017353 l 0.560935,-2.088741 c 0.06794,-0.252327 -0.155057,-0.451344 -0.486019,-0.451344 h -1.017309 l -0.479046,1.823801 -0.801334,0.716024 h -1.013852 l 0.817022,-3.055618 1.592257,0.0682 h 2.036396 c 0.670675,0 1.10096,0.402452 0.968563,0.898851 l -0.545244,2.064393 -0.61494,0.0247 m -31.614783,-0.596001 0.142856,-0.543526 h 2.022541 l 1.456336,-0.897147 0.08715,-0.355531 c 0.08884,-0.329373 -0.202064,-0.595769 -0.64804,-0.595769 h -2.830777 l -1.456335,0.898867 -0.137631,0.513897 c -0.0049,0.01477 -0.0066,0.02965 -0.01044,0.04443 l -0.249118,0.933728 c -0.08884,0.327391 0.202054,0.595769 0.648029,0.595769 h 2.752476 l 0.728164,-0.44787 h -2.344784 c -0.108049,0 -0.182904,-0.0682 -0.160292,-0.148146 z m 0.390205,-1.49296 0.728164,-0.451329 h 1.074832 c 0.106224,0 0.182909,0.06272 0.160247,0.14813 l -0.09761,0.355544 -0.726428,0.447873 h -1.273424 l 0.134115,-0.49997 m -14.8144,2.088459 h -2.839525 c -0.445949,0 -0.735137,-0.26813 -0.648041,-0.595768 l 0.400676,-1.492958 1.456327,-0.898881 h 2.830775 c 0.445954,0 0.735136,0.266675 0.648046,0.595784 l -0.393719,1.494567 z m -0.167246,-0.897186 0.398939,-1.494564 c 0.02419,-0.08544 -0.05054,-0.148143 -0.160286,-0.148143 h -0.815277 l -0.726416,0.451342 -0.393721,1.492959 c -0.02077,0.07997 0.05225,0.14813 0.160309,0.14813 h 0.806552 l 0.729917,-0.449343 m 34.85321,0.896883 h -5.473454 l 0.68288,-2.555632 0.703768,-0.433554 0.996443,-0.0661 -0.700301,2.621683 h 0.384975 l 0.703782,-0.432081 0.45292,-1.689806 0.702037,-0.433569 0.998179,-0.06609 -0.587066,2.189645 -0.280481,0.432083 h 0.550479 l 0.709008,-0.432083 0.445948,-1.68966 0.703784,-0.433569 0.998179,-0.06625 -0.588814,2.189791 -1.402321,0.865824 m -40.11845,0 h -5.66855 l 0.919787,-4.123389 0.729916,-0.540026 1.029543,-0.06963 -0.937212,4.194839 h 0.400674 l 0.728177,-0.540026 0.681128,-3.045118 0.72818,-0.540026 1.031279,-0.06963 -0.817023,3.654753 -0.289173,0.540013 h 0.569653 l 0.735125,-0.540013 0.672421,-3.045117 0.728164,-0.540026 1.031295,-0.06964 -0.817023,3.654754 -1.456334,1.07833"
       id="path2"
       style="display:inline;opacity:0.4;fill:#000000;fill-opacity:1;stroke-width:0.145811" /><path
       id="path9"
       style="display:inline;opacity:0.4;fill:#ffffff;fill-opacity:1;stroke-width:0.145811"
       d="m 41.250195,30.488579 -1.029395,0.06976 -0.729671,0.540019 -0.91984,4.123262 h 0.0078 l 0.912089,-4.087605 0.729671,-0.540019 1.021127,-0.06925 z m 2.632397,0 -1.030945,0.06976 -0.728637,0.540019 -0.681096,3.044775 -0.728121,0.540019 h -0.392224 l -0.0083,0.03617 h 0.400492 l 0.728121,-0.540019 0.681096,-3.045292 0.728637,-0.540019 1.022677,-0.06925 z m 2.630331,0 -1.030945,0.06976 -0.728121,0.540019 -0.672827,3.044775 -0.734839,0.540019 h -0.550354 l -0.01912,0.03617 h 0.569474 l 0.734839,-0.540019 0.672827,-3.045292 0.728121,-0.540019 1.022676,-0.06925 z m 33.121492,0.03876 -1.714624,0.104387 h -2.217436 c -0.564422,0 -1.161792,0.514228 -1.334285,1.143082 l -0.127124,0.463021 c -0.03214,0.122152 -0.0467,0.239813 -0.04496,0.350367 0.0016,-0.100041 0.01627,-0.20568 0.04496,-0.31471 l 0.127124,-0.463021 c 0.172493,-0.628854 0.769863,-1.142566 1.334285,-1.142566 h 2.217436 L 79.59204,30.56558 Z m -17.999418,0.501779 -0.410828,0.661975 -0.576709,0.543636 h -1.752864 l -1.456242,0.897103 -0.400493,1.496549 c -0.01249,0.04631 -0.0174,0.09111 -0.0155,0.134359 0.0014,-0.03211 0.0064,-0.06506 0.0155,-0.0987 l 0.400493,-1.49655 1.456242,-0.897103 h 1.752864 l 0.576709,-0.543119 0.410828,-0.661975 h 1.617472 l 0.03049,-0.03617 z m 14.273547,1.129646 c -0.0076,0.198107 0.108632,0.341065 0.29869,0.341065 h 1.827795 c 0.446743,0 0.742388,0.332366 0.749825,0.794783 0.0077,-0.481017 -0.291611,-0.83044 -0.749825,-0.83044 h -1.827795 c -0.17838,0 -0.291654,-0.126094 -0.29869,-0.305408 z m -23.640417,0.0057 -0.818555,3.055627 h 0.0098 l 0.808736,-3.019454 1.5906,0.06821 h 2.036569 c 0.57822,0 0.97959,0.30063 0.991153,0.7028 0.01197,-0.420031 -0.395864,-0.738973 -0.991153,-0.738973 h -2.036569 z m 40.006343,5.17e-4 -0.817004,3.055627 h 0.0093 l 0.807703,-3.019971 1.592151,0.06821 h 2.036568 c 0.580353,0 0.980667,0.301541 0.992187,0.70435 0.01192,-0.42066 -0.394729,-0.740007 -0.992187,-0.740007 H 93.86662 Z m -11.006563,5.16e-4 -0.996322,0.06615 -0.703833,0.433565 -0.683162,2.555917 h 0.0093 l 0.673861,-2.519743 0.703833,-0.433565 0.986503,-0.06563 z m 2.541447,5.17e-4 -0.997872,0.06563 -0.702283,0.434082 -0.452686,1.689303 -0.703833,0.432531 h -0.375687 l -0.0093,0.03566 h 0.384989 l 0.703833,-0.432015 0.452686,-1.689819 0.702283,-0.433565 0.988053,-0.06563 z m 2.539896,0 -0.997872,0.06615 -0.703833,0.433565 -0.445967,1.689819 -0.709001,0.432015 h -0.527616 l -0.02326,0.03566 h 0.550871 l 0.709001,-0.432015 0.445967,-1.689302 0.703833,-0.433566 0.988054,-0.06614 z m 5.342827,0.0062 -1.63711,0.06046 h -1.616955 c -0.891913,0 -1.75738,0.534724 -1.942001,1.193208 l -0.167431,0.59583 c -0.02259,0.08476 -0.03275,0.167671 -0.03101,0.24753 0.0015,-0.06868 0.01178,-0.139223 0.03101,-0.211357 l 0.167431,-0.595829 c 0.184621,-0.658484 1.050088,-1.193209 1.942001,-1.193209 h 1.616955 l 1.627291,-0.06046 z m -22.045166,0.06046 -1.456242,0.898653 -0.559139,2.088761 h 0.0093 l 0.549837,-2.053104 1.456242,-0.898654 h 2.430342 c 0.578838,0 0.979123,0.301534 0.990638,0.70435 0.01192,-0.420667 -0.394739,-0.740006 -0.990638,-0.740006 z m -21.6054,5.16e-4 -1.456241,0.89917 -0.400493,1.492932 c -0.01213,0.04562 -0.01686,0.09006 -0.01499,0.132809 0.0014,-0.03157 0.0062,-0.06416 0.01499,-0.09715 l 0.400493,-1.492932 1.456241,-0.898653 h 2.830835 c 0.383888,0 0.651995,0.197565 0.663526,0.462504 0.01214,-0.282776 -0.262499,-0.498678 -0.663526,-0.498678 z m 16.285311,0 -1.456758,0.898654 -0.13746,0.51418 c -0.0049,0.01477 -0.0065,0.02966 -0.01034,0.04444 l -0.24908,0.933793 c -0.0125,0.04605 -0.01741,0.09071 -0.0155,0.133842 0.0014,-0.03197 0.0064,-0.06477 0.0155,-0.09819 l 0.24908,-0.933793 c 0.0038,-0.01478 0.0054,-0.02967 0.01034,-0.04444 l 0.13746,-0.513664 1.456758,-0.89917 h 2.830835 c 0.383276,0 0.651927,0.197078 0.663525,0.461471 0.01222,-0.282272 -0.263103,-0.497128 -0.663525,-0.497128 z m -2.141988,0.127124 -0.0186,0.02171 v 0.0021 c 0.133769,0.08404 0.215422,0.208094 0.221691,0.350883 0.0065,-0.150961 -0.0697,-0.283747 -0.203088,-0.374655 z m 27.739909,0.356051 -0.669727,2.498556 h 0.0098 l 0.669726,-2.498556 z m -40.017712,0.09974 c -7.34e-4,0.0043 -0.0018,0.0084 -0.0031,0.01292 l -0.398942,1.494482 v 5.17e-4 l -0.729671,0.449585 h -0.806669 c -0.08711,0 -0.151476,-0.04428 -0.162264,-0.103353 -0.01335,0.07607 0.05823,0.13901 0.162264,0.13901 h 0.806669 l 0.729671,-0.449069 v -5.16e-4 l 0.398942,-1.494483 c 0.0049,-0.01743 0.0059,-0.03389 0.0031,-0.04909 z m 16.545243,0.0015 c -6.21e-4,0.0037 -0.0011,0.0076 -0.0021,0.01137 l -0.09767,0.355534 -0.72657,0.448034 h -1.264006 l -0.0093,0.03566 h 1.273308 l 0.72657,-0.448035 0.09767,-0.355534 c 0.0044,-0.01667 0.0047,-0.03238 0.0021,-0.04703 z m -5.692676,0.0031 c -6.38e-4,0.0039 -0.0015,0.0079 -0.0026,0.01189 l -0.517281,1.929598 -0.611332,0.01499 h -0.806669 c -0.08835,0 -0.153382,-0.04531 -0.164331,-0.103869 -0.01357,0.07493 0.0586,0.139526 0.164331,0.139526 h 0.806669 l 0.611332,-0.01447 0.517281,-1.929598 c 0.0045,-0.01685 0.0052,-0.03328 0.0026,-0.04806 z m 10.682552,0.234611 c -0.0014,0.0242 -0.0061,0.04898 -0.01344,0.07441 l -0.123507,0.45992 h 0.0098 l 0.113688,-0.423747 c 0.01107,-0.03819 0.01555,-0.07535 0.01344,-0.110588 z m -16.182991,0.0052 c -0.0013,0.02317 -0.0053,0.04702 -0.01189,0.07131 l -0.559139,2.088761 h 0.0093 l 0.549837,-2.053105 c 0.01,-0.03701 0.01386,-0.07271 0.01189,-0.10697 z m 40.007376,5.17e-4 c -0.0013,0.02317 -0.0053,0.04703 -0.01189,0.07131 l -0.56069,2.088762 h 0.0098 L 95.254626,33.168 c 0.01,-0.03701 0.01386,-0.07271 0.01189,-0.10697 z m -18.202506,0.663525 c -0.0015,0.03763 -0.0075,0.07713 -0.0186,0.117823 l -0.06253,0.227893 c -0.0697,0.252325 -0.305132,0.463537 -0.528133,0.463537 h -4.553727 l -0.797884,0.687813 h 0.04186 l 0.756026,-0.652156 h 4.553727 c 0.223001,0 0.458434,-0.210696 0.528133,-0.463021 l 0.06253,-0.22841 c 0.01474,-0.05384 0.02054,-0.105366 0.0186,-0.153479 z m 10.869104,0.453203 c -0.01196,0.357594 0.333226,0.630452 0.832507,0.630452 h 0.427881 l 0.04754,-0.03566 H 88.76564 c -0.482446,0 -0.821026,-0.254979 -0.832507,-0.594795 z M 64.094278,34.66972 c -0.01373,0.07544 0.05938,0.137976 0.162781,0.137976 h 2.286682 l 0.05788,-0.03566 h -2.34456 c -0.08643,0 -0.151728,-0.04394 -0.162781,-0.10232 z" /><rect
       style="opacity:1;fill:#165016;fill-opacity:1;stroke-width:2.84597;stroke-linecap:round;stroke-linejoin:round;stroke-miterlimit:12;paint-order:markers stroke fill"
       id="rect10"
       width="126.02799"
       height="20.070734"
       x="4.7193365"
       y="89.709671" /><rect
       style="opacity:1;fill:url(#linearGradient12);fill-opacity:1;stroke-width:1.45923;stroke-linecap:round;stroke-linejoin:round;stroke-miterlimit:12;paint-order:markers stroke fill"
       id="rect11"
       width="126.02792"
       height="5.2765346"
       x="4.7193708"
       y="84.433144"
       sodipodi:insensitive="true" /><path
       id="rect12"
       style="opacity:1;fill:url(#linearGradient63);fill-opacity:1;stroke-width:3.08545;stroke-linecap:round;stroke-linejoin:round;stroke-miterlimit:12;paint-order:markers stroke fill"
       d="M 5.7779418 89.709769 L 5.7779418 108.66417 L 7.6041869 108.66417 L 7.6041869 89.709769 L 5.7779418 89.709769 z M 8.2196532 89.709769 L 8.2196532 107.54796 L 10.045898 107.54796 L 10.045898 89.709769 L 8.2196532 89.709769 z M 10.660848 89.709769 L 10.660848 107.54796 L 12.48761 107.54796 L 12.48761 89.709769 L 10.660848 89.709769 z M 13.102559 89.709769 L 13.102559 107.54796 L 14.929321 107.54796 L 14.929321 89.709769 L 13.102559 89.709769 z M 15.544271 89.709769 L 15.544271 107.54796 L 17.371033 107.54796 L 17.371033 89.709769 L 15.544271 89.709769 z M 17.985982 89.709769 L 17.985982 107.54796 L 19.812744 107.54796 L 19.812744 89.709769 L 17.985982 89.709769 z M 20.427693 89.709769 L 20.427693 107.54796 L 22.254455 107.54796 L 22.254455 89.709769 L 20.427693 89.709769 z M 22.869405 89.709769 L 22.869405 107.54796 L 24.696167 107.54796 L 24.696167 89.709769 L 22.869405 89.709769 z M 25.311116 89.709769 L 25.311116 107.54796 L 27.137878 107.54796 L 27.137878 89.709769 L 25.311116 89.709769 z M 27.752828 89.709769 L 27.752828 107.54796 L 29.579589 107.54796 L 29.579589 89.709769 L 27.752828 89.709769 z M 30.194539 89.709769 L 30.194539 107.54796 L 32.021301 107.54796 L 32.021301 89.709769 L 30.194539 89.709769 z M 32.63625 89.709769 L 32.63625 107.54796 L 34.463012 107.54796 L 34.463012 89.709769 L 32.63625 89.709769 z M 35.077962 89.709769 L 35.077962 107.54796 L 36.904724 107.54796 L 36.904724 89.709769 L 35.077962 89.709769 z M 37.519673 89.709769 L 37.519673 107.54796 L 39.346435 107.54796 L 39.346435 89.709769 L 37.519673 89.709769 z M 39.961385 89.709769 L 39.961385 107.54796 L 41.788146 107.54796 L 41.788146 89.709769 L 39.961385 89.709769 z M 42.403096 89.709769 L 42.403096 107.54796 L 44.229858 107.54796 L 44.229858 89.709769 L 42.403096 89.709769 z M 44.844807 89.709769 L 44.844807 107.54796 L 46.671569 107.54796 L 46.671569 89.709769 L 44.844807 89.709769 z M 47.286519 89.709769 L 47.286519 107.54796 L 49.113281 107.54796 L 49.113281 89.709769 L 47.286519 89.709769 z M 49.72823 89.709769 L 49.72823 107.54796 L 51.554475 107.54796 L 51.554475 89.709769 L 49.72823 89.709769 z M 52.169942 89.709769 L 52.169942 107.54796 L 53.996187 107.54796 L 53.996187 89.709769 L 52.169942 89.709769 z M 54.611653 89.709769 L 54.611653 107.54796 L 56.437898 107.54796 L 56.437898 89.709769 L 54.611653 89.709769 z M 57.053364 89.709769 L 57.053364 107.54796 L 58.879609 107.54796 L 58.879609 89.709769 L 57.053364 89.709769 z M 59.495076 89.709769 L 59.495076 107.54796 L 61.321321 107.54796 L 61.321321 89.709769 L 59.495076 89.709769 z M 61.936787 89.709769 L 61.936787 107.54796 L 63.763032 107.54796 L 63.763032 89.709769 L 61.936787 89.709769 z M 64.378499 89.709769 L 64.378499 107.54796 L 66.204744 107.54796 L 66.204744 89.709769 L 64.378499 89.709769 z M 66.82021 89.709769 L 66.82021 107.54796 L 68.646455 107.54796 L 68.646455 89.709769 L 66.82021 89.709769 z M 69.261921 89.709769 L 69.261921 107.54796 L 71.088166 107.54796 L 71.088166 89.709769 L 69.261921 89.709769 z M 71.703633 89.709769 L 71.703633 107.54796 L 73.529878 107.54796 L 73.529878 89.709769 L 71.703633 89.709769 z M 74.145344 89.709769 L 74.145344 107.54796 L 75.971589 107.54796 L 75.971589 89.709769 L 74.145344 89.709769 z M 76.587056 89.709769 L 76.587056 107.54796 L 78.413301 107.54796 L 78.413301 89.709769 L 76.587056 89.709769 z M 79.028767 89.709769 L 79.028767 107.54796 L 80.855012 107.54796 L 80.855012 89.709769 L 79.028767 89.709769 z M 81.470478 89.709769 L 81.470478 107.54796 L 83.296723 107.54796 L 83.296723 89.709769 L 81.470478 89.709769 z M 83.91219 89.709769 L 83.91219 107.54796 L 85.738435 107.54796 L 85.738435 89.709769 L 83.91219 89.709769 z M 86.353901 89.709769 L 86.353901 107.54796 L 88.180146 107.54796 L 88.180146 89.709769 L 86.353901 89.709769 z M 88.795096 89.709769 L 88.795096 107.54796 L 90.621858 107.54796 L 90.621858 89.709769 L 88.795096 89.709769 z M 91.236807 89.709769 L 91.236807 107.54796 L 93.063569 107.54796 L 93.063569 89.709769 L 91.236807 89.709769 z M 93.678519 89.709769 L 93.678519 107.54796 L 95.50528 107.54796 L 95.50528 89.709769 L 93.678519 89.709769 z M 96.12023 89.709769 L 96.12023 107.54796 L 97.946992 107.54796 L 97.946992 89.709769 L 96.12023 89.709769 z M 98.561941 89.709769 L 98.561941 107.54796 L 100.3887 107.54796 L 100.3887 89.709769 L 98.561941 89.709769 z M 101.00365 89.709769 L 101.00365 107.54796 L 102.83041 107.54796 L 102.83041 89.709769 L 101.00365 89.709769 z M 103.44536 89.709769 L 103.44536 107.54796 L 105.27213 107.54796 L 105.27213 89.709769 L 103.44536 89.709769 z M 105.88708 89.709769 L 105.88708 107.54796 L 107.71384 107.54796 L 107.71384 89.709769 L 105.88708 89.709769 z M 108.32879 89.709769 L 108.32879 107.54796 L 110.15555 107.54796 L 110.15555 89.709769 L 108.32879 89.709769 z M 110.7705 89.709769 L 110.7705 107.54796 L 112.59726 107.54796 L 112.59726 89.709769 L 110.7705 89.709769 z M 113.21221 89.709769 L 113.21221 107.54796 L 115.03897 107.54796 L 115.03897 89.709769 L 113.21221 89.709769 z M 115.65392 89.709769 L 115.65392 107.54796 L 117.48068 107.54796 L 117.48068 89.709769 L 115.65392 89.709769 z M 118.09563 89.709769 L 118.09563 107.54796 L 119.92239 107.54796 L 119.92239 89.709769 L 118.09563 89.709769 z M 120.53734 89.709769 L 120.53734 107.54796 L 122.36411 107.54796 L 122.36411 89.709769 L 120.53734 89.709769 z M 122.97906 89.709769 L 122.97906 107.54796 L 124.80582 107.54796 L 124.80582 89.709769 L 122.97906 89.709769 z M 125.42077 89.709769 L 125.42077 107.54796 L 127.24701 107.54796 L 127.24701 89.709769 L 125.42077 89.709769 z M 127.86248 89.709769 L 127.86248 108.66417 L 129.68872 108.66417 L 129.68872 89.709769 L 127.86248 89.709769 z " /><path
       id="path62"
       style="display:inline;opacity:0.48360656;mix-blend-mode:normal;fill:#ffcc00;fill-opacity:1;stroke-width:3.08545;stroke-linecap:round;stroke-linejoin:round;stroke-miterlimit:12;paint-order:markers stroke fill;filter:url(#filter62)"
       d="m 6.3066406,108.13477 c 0.895544,0.27301 0.8157705,-0.42929 0.7675781,-1.1 0,-5.59883 10e-8,-11.197661 10e-8,-16.796489 -0.895544,-0.273018 -0.8157706,0.429282 -0.7675782,1.1 0,5.598828 0,11.197659 0,16.796489 z m 2.4414063,-1.11524 c 0.8955439,0.27302 0.8157705,-0.42928 0.7675781,-1.1 0,-5.22708 0,-10.454165 0,-15.681249 -0.895544,-0.273018 -0.8157705,0.429282 -0.7675781,1.1 0,5.227084 0,10.454169 0,15.681249 z m 2.4414061,0 c 0.895622,0.27245 0.818773,-0.42758 0.769531,-1.1 0,-5.22708 0,-10.454165 0,-15.681249 -0.895621,-0.272444 -0.818773,0.427582 -0.769531,1.1 0,5.227084 0,10.454169 0,15.681249 z m 2.443359,0 c 0.895544,0.27302 0.815771,-0.42928 0.767579,-1.1 0,-5.22708 0,-10.454165 0,-15.681249 -0.895544,-0.273018 -0.815771,0.429282 -0.767579,1.1 0,5.227084 1e-6,10.454169 0,15.681249 z m 2.441407,0 c 0.895544,0.27302 0.81577,-0.42928 0.767578,-1.1 0,-5.22708 0,-10.454165 0,-15.681249 -0.895544,-0.273018 -0.815771,0.429282 -0.767578,1.1 0,5.227084 0,10.454169 0,15.681249 z m 2.441406,0 c 0.895544,0.27302 0.815771,-0.42928 0.767578,-1.1 0,-5.22708 0,-10.454165 0,-15.681249 -0.895544,-0.273018 -0.81577,0.429282 -0.767578,1.1 0,5.227084 0,10.454169 0,15.681249 z m 2.441406,0 c 0.895544,0.27302 0.815771,-0.42928 0.767578,-1.1 0,-5.22708 0,-10.454165 0,-15.681249 -0.895544,-0.273018 -0.81577,0.429282 -0.767578,1.1 0,5.227084 0,10.454169 0,15.681249 z m 2.441407,0 c 0.895543,0.27302 0.81577,-0.42928 0.767578,-1.1 0,-5.22708 0,-10.454165 0,-15.681249 -0.895544,-0.273018 -0.815771,0.429282 -0.767578,1.1 -10e-7,5.227084 0,10.454169 0,15.681249 z m 2.441406,0 c 0.895622,0.27245 0.818773,-0.42758 0.769531,-1.1 0,-5.22708 0,-10.454165 0,-15.681249 -0.895622,-0.272444 -0.818773,0.427582 -0.769531,1.1 0,5.227084 0,10.454169 0,15.681249 z m 2.441406,0 c 0.895622,0.27245 0.818773,-0.42758 0.769531,-1.1 0,-5.22708 0,-10.454165 0,-15.681249 -0.895622,-0.272444 -0.818773,0.427582 -0.769531,1.1 0,5.227084 0,10.454169 0,15.681249 z m 2.443359,0 c 0.895544,0.27302 0.815771,-0.42928 0.767579,-1.1 -10e-7,-5.22708 0,-10.454165 0,-15.681249 -0.895544,-0.273018 -0.815771,0.429282 -0.767579,1.1 0,5.227084 0,10.454169 0,15.681249 z m 2.441407,0 c 0.895544,0.27302 0.81577,-0.42928 0.767578,-1.1 0,-5.22708 0,-10.454165 0,-15.681249 -0.895544,-0.273018 -0.815771,0.429282 -0.767578,1.1 0,5.227084 0,10.454169 0,15.681249 z m 2.441406,0 c 0.895544,0.27302 0.81577,-0.42928 0.767578,-1.1 0,-5.22708 0,-10.454165 0,-15.681249 -0.895544,-0.273018 -0.815771,0.429282 -0.767578,1.1 0,5.227084 0,10.454169 0,15.681249 z m 2.441406,0 c 0.895544,0.27302 0.815771,-0.42928 0.767578,-1.1 0,-5.22708 0,-10.454165 0,-15.681249 -0.895544,-0.273018 -0.81577,0.429282 -0.767578,1.1 0,5.227084 0,10.454169 0,15.681249 z m 2.441406,0 c 0.895622,0.27245 0.818773,-0.42758 0.769532,-1.1 0,-5.22708 0,-10.454165 0,-15.681249 -0.895622,-0.272444 -0.818773,0.427582 -0.769532,1.1 0,5.227084 0,10.454169 0,15.681249 z m 2.441407,0 c 0.895621,0.27245 0.818773,-0.42758 0.769531,-1.1 0,-5.22708 0,-10.454165 0,-15.681249 -0.895622,-0.272444 -0.818773,0.427582 -0.769531,1.1 0,5.227084 0,10.454169 0,15.681249 z m 2.443359,0 c 0.895544,0.27302 0.815771,-0.42928 0.767578,-1.1 0,-5.22708 0,-10.454165 0,-15.681249 -0.895544,-0.273018 -0.81577,0.429282 -0.767578,1.1 0,5.227084 0,10.454169 0,15.681249 z m 2.441406,0 c 0.895544,0.27302 0.815771,-0.42928 0.767578,-1.1 0,-5.22708 0,-10.454165 0,-15.681249 -0.895544,-0.273018 -0.81577,0.429282 -0.767578,1.1 0,5.227084 0,10.454169 0,15.681249 z m 2.441406,0 c 0.895544,0.27302 0.815771,-0.42928 0.767579,-1.1 0,-5.22708 0,-10.454165 0,-15.681249 -0.895544,-0.273018 -0.815771,0.429282 -0.767579,1.1 0,5.227084 0,10.454169 0,15.681249 z m 2.441407,0 c 0.895544,0.27302 0.81577,-0.42928 0.767578,-1.1 0,-5.22708 0,-10.454165 0,-15.681249 -0.895544,-0.273018 -0.815771,0.429282 -0.767578,1.1 0,5.227084 0,10.454169 0,15.681249 z m 2.441406,0 c 0.895544,0.27302 0.815771,-0.42928 0.767578,-1.1 0,-5.22708 0,-10.454165 0,-15.681249 -0.895544,-0.273018 -0.81577,0.429282 -0.767578,1.1 0,5.227084 0,10.454169 0,15.681249 z m 2.441406,0 c 0.895544,0.27302 0.815771,-0.42928 0.767578,-1.1 0,-5.22708 0,-10.454165 0,-15.681249 -0.895544,-0.273018 -0.81577,0.429282 -0.767578,1.1 0,5.227084 0,10.454169 0,15.681249 z m 2.441407,0 c 0.895621,0.27245 0.818772,-0.42758 0.769531,-1.1 0,-5.22708 0,-10.454165 0,-15.681249 -0.895622,-0.272444 -0.818773,0.427582 -0.769531,1.1 -10e-7,5.227084 0,10.454169 0,15.681249 z m 2.443359,0 c 0.895544,0.27302 0.81577,-0.42928 0.767578,-1.1 0,-5.22708 0,-10.454165 0,-15.681249 -0.895544,-0.273018 -0.815771,0.429282 -0.767578,1.1 0,5.227084 0,10.454169 0,15.681249 z m 2.441406,0 c 0.895544,0.27302 0.815771,-0.42928 0.767578,-1.1 0,-5.22708 0,-10.454165 0,-15.681249 -0.895544,-0.273018 -0.81577,0.429282 -0.767578,1.1 0,5.227084 0,10.454169 0,15.681249 z m 2.441406,0 c 0.895544,0.27302 0.815771,-0.42928 0.767579,-1.1 0,-5.22708 -10e-7,-10.454165 0,-15.681249 -0.895544,-0.273018 -0.815771,0.429282 -0.767579,1.1 0,5.227084 0,10.454169 0,15.681249 z m 2.441407,0 c 0.895544,0.27302 0.81577,-0.42928 0.767578,-1.1 0,-5.22708 0,-10.454165 0,-15.681249 -0.895544,-0.273018 -0.815771,0.429282 -0.767578,1.1 0,5.227084 0,10.454169 0,15.681249 z m 2.441406,0 c 0.895544,0.27302 0.81577,-0.42928 0.767578,-1.1 0,-5.22708 0,-10.454165 0,-15.681249 -0.895544,-0.273018 -0.815771,0.429282 -0.767578,1.1 0,5.227084 0,10.454169 0,15.681249 z m 2.441406,0 c 0.895544,0.27302 0.815771,-0.42928 0.767578,-1.1 0,-5.22708 0,-10.454165 0,-15.681249 -0.895544,-0.273018 -0.81577,0.429282 -0.767578,1.1 0,5.227084 0,10.454169 0,15.681249 z m 2.44336,0 c 0.895543,0.27302 0.81577,-0.42928 0.767578,-1.1 0,-5.22708 0,-10.454165 0,-15.681249 -0.895544,-0.273018 -0.815771,0.429282 -0.767578,1.1 -10e-7,5.227084 0,10.454169 0,15.681249 z m 2.441406,0 c 0.895544,0.27302 0.81577,-0.42928 0.767578,-1.1 0,-5.22708 0,-10.454165 0,-15.681249 -0.895544,-0.273018 -0.815771,0.429282 -0.767578,1.1 0,5.227084 0,10.454169 0,15.681249 z m 2.441406,0 c 0.895544,0.27302 0.815771,-0.42928 0.767578,-1.1 0,-5.22708 0,-10.454165 0,-15.681249 -0.895544,-0.273018 -0.81577,0.429282 -0.767578,1.1 0,5.227084 0,10.454169 0,15.681249 z m 2.441406,0 c 0.895544,0.27302 0.815771,-0.42928 0.767578,-1.1 0,-5.22708 0,-10.454165 0,-15.681249 -0.895544,-0.273018 -0.81577,0.429282 -0.767578,1.1 0,5.227084 0,10.454169 0,15.681249 z m 2.441406,0 c 0.895544,0.27302 0.815771,-0.42928 0.767579,-1.1 0,-5.22708 0,-10.454165 0,-15.681249 -0.895544,-0.273018 -0.815771,0.429282 -0.767579,1.1 0,5.227084 10e-7,10.454169 0,15.681249 z m 2.441407,0 c 0.895544,0.27302 0.81577,-0.42928 0.767578,-1.1 0,-5.22708 0,-10.454165 0,-15.681249 -0.895544,-0.273018 -0.815771,0.429282 -0.767578,1.1 0,5.227084 0,10.454169 0,15.681249 z m 2.441406,0 c 0.895622,0.27245 0.818773,-0.42758 0.769531,-1.1 0,-5.22708 0,-10.454165 0,-15.681249 -0.895622,-0.272444 -0.818773,0.427582 -0.769531,1.1 0,5.227084 0,10.454169 0,15.681249 z m 2.441406,0 c 0.895622,0.27245 0.818773,-0.42758 0.769532,-1.1 -10e-7,-5.22708 0,-10.454165 -10e-7,-15.681249 -0.895621,-0.272444 -0.818772,0.427582 -0.769531,1.1 0,5.227084 0,10.454169 0,15.681249 z m 2.44336,0 c 0.895544,0.27302 0.81577,-0.42928 0.767578,-1.1 0,-5.22708 0,-10.454165 0,-15.681249 -0.895544,-0.273018 -0.815771,0.429282 -0.767578,1.1 0,5.227084 0,10.454169 0,15.681249 z m 2.441406,0 c 0.895544,0.27302 0.81577,-0.42928 0.767578,-1.1 0,-5.22708 0,-10.454165 0,-15.681249 -0.895544,-0.273018 -0.815771,0.429282 -0.767578,1.1 0,5.227084 0,10.454169 0,15.681249 z m 2.441403,0 c 0.89555,0.27302 0.81577,-0.42928 0.76758,-1.1 0,-5.22708 0,-10.454165 0,-15.681249 -0.89554,-0.273018 -0.81577,0.429282 -0.76758,1.1 0,5.227084 0,10.454169 0,15.681249 z m 2.44141,0 c 0.89554,0.27302 0.81577,-0.42928 0.76758,-1.1 0,-5.22708 0,-10.454165 0,-15.681249 -0.89555,-0.273018 -0.81577,0.429282 -0.76758,1.1 0,5.227084 0,10.454169 0,15.681249 z m 2.44141,0 c 0.89554,0.27302 0.81577,-0.42928 0.76757,-1.1 0,-5.22708 0,-10.454165 0,-15.681249 -0.89554,-0.273018 -0.81577,0.429282 -0.76757,1.1 0,5.227084 0,10.454169 0,15.681249 z m 2.4414,0 c 0.89562,0.27245 0.81877,-0.42758 0.76953,-1.1 0,-5.22708 0,-10.454165 0,-15.681249 -0.89562,-0.272444 -0.81877,0.427582 -0.76953,1.1 0,5.227084 0,10.454169 0,15.681249 z m 2.44141,0 c 0.89562,0.27245 0.81877,-0.42758 0.76953,-1.1 0,-5.22708 0,-10.454165 0,-15.681249 -0.89562,-0.272444 -0.81877,0.427582 -0.76953,1.1 0,5.227084 0,10.454169 0,15.681249 z m 2.44336,0 c 0.89554,0.27302 0.81577,-0.42928 0.76758,-1.1 0,-5.22708 0,-10.454165 0,-15.681249 -0.89555,-0.273018 -0.81577,0.429282 -0.76758,1.1 0,5.227084 0,10.454169 0,15.681249 z m 2.4414,0 c 0.89555,0.27302 0.81577,-0.42928 0.76758,-1.1 0,-5.22708 0,-10.454165 0,-15.681249 -0.89554,-0.273018 -0.81577,0.429282 -0.76758,1.1 0,5.227084 0,10.454169 0,15.681249 z m 2.44141,0 c 0.89554,0.27302 0.81577,-0.42928 0.76758,-1.1 0,-5.22708 0,-10.454165 0,-15.681249 -0.89555,-0.273018 -0.81577,0.429282 -0.76758,1.1 0,5.227084 0,10.454169 0,15.681249 z m 2.44141,0 c 0.89554,0.27302 0.81577,-0.42928 0.76757,-1.1 0,-5.22708 0,-10.454165 0,-15.681249 -0.89554,-0.273018 -0.81577,0.429282 -0.76757,1.1 0,5.227084 0,10.454169 0,15.681249 z m 2.4414,0 c 0.89562,0.27245 0.81878,-0.42758 0.76953,-1.1 0,-5.22708 0,-10.454165 0,-15.681249 -0.89562,-0.272444 -0.81877,0.427582 -0.76953,1.1 0,5.227084 0,10.454169 0,15.681249 z m 2.44141,0 c 0.89554,0.27302 0.81577,-0.42928 0.76758,-1.1 0,-5.22708 0,-10.454165 0,-15.681249 -0.89555,-0.273018 -0.81577,0.429282 -0.76758,1.1 0,5.227084 0,10.454169 0,15.681249 z m 2.44336,1.11524 c 0.89554,0.27301 0.81577,-0.42929 0.76758,-1.1 0,-5.59883 0,-11.197661 0,-16.796489 -0.89555,-0.273018 -0.81577,0.429282 -0.76758,1.1 0,5.598828 0,11.197659 0,16.796489 z" /><path
       id="path101"
       style="stroke-width:0.491402;fill:#e6e6e6"
       d="M 17.715714 37.902596 C 17.631834 43.584423 19.036368 49.875428 22.252388 56.640986 C 27.087459 66.805575 34.183464 76.075158 43.793709 81.177473 L 56.682328 81.177473 C 49.772596 76.003582 44.108407 68.943734 41.2781 61.161124 C 37.798492 51.599298 39.383501 43.128063 44.66239 37.902596 L 17.715714 37.902596 z M 78.439139 37.902596 C 87.520205 43.128063 95.267851 51.599298 98.74746 61.161124 L 98.747976 61.161124 C 101.58331 68.937806 101.05761 76.004287 97.917019 81.177473 L 117.17166 81.177473 C 117.49284 75.39046 116.28189 69.070449 113.21324 62.450451 C 108.5004 52.264121 101.3066 42.99697 91.665205 37.902596 L 78.439139 37.902596 z M 108.03113 37.902596 C 119.14655 42.605454 128.94636 52.614553 132.26479 63.761482 C 129.52541 54.559521 124.57708 45.744153 118.14679 37.902596 L 108.03113 37.902596 z M 3.2018717 55.320137 C 5.9409004 64.522225 10.888489 73.336624 17.317806 81.177473 L 27.423132 81.177473 C 16.314766 76.473626 6.5188106 66.462035 3.2018717 55.320137 z M 75.393847 55.683939 C 66.575585 55.683939 62.019631 62.8348 65.236844 71.664359 C 66.53173 75.22871 68.896617 78.520136 71.837475 81.177473 L 97.511876 81.177473 C 98.518503 78.52111 98.492572 75.231534 97.1982 71.664359 C 93.98097 62.834309 84.229791 55.683939 75.393847 55.683939 z " /><path
       d="m 78.388975,50.581898 c 5.575743,0.362164 11.405748,5.065213 13.025866,10.507323 C 88.174603,50.20482 76.512425,40.794466 65.363835,40.073131 54.216506,39.349236 45.624509,47.077293 51.042992,58.476186 c 2.001523,4.207726 5.058727,7.997439 9.305219,9.645689 -0.963053,0.31268 -2.057603,0.456822 -3.27053,0.376825 -5.573575,-0.357872 -11.405748,-5.065213 -13.025862,-10.507323 3.240418,10.886565 14.904579,20.294755 26.052808,21.019696 11.149489,0.72175 19.238,-7.790596 14.318676,-18.403054 -1.949765,-4.214219 -5.056553,-7.999603 -9.303052,-9.645689 0.963053,-0.312681 2.057604,-0.458643 3.27053,-0.37926 z m 0.726062,9.552997 c 1.189262,3.261876 0.766998,6.183283 -0.85747,8.115918 0.741139,-1.068639 0.898406,-2.581116 0.288681,-4.261465 -1.180646,-3.240416 -4.759187,-5.864452 -8.001766,-5.864452 -3.23609,0 -4.907962,2.624216 -3.727322,5.864452 1.176353,3.238072 4.759188,5.862288 7.997445,5.862288 0.941502,0 1.745121,-0.221702 2.389238,-0.611873 -1.230218,0.913445 -2.85468,1.439153 -4.795795,1.439153 -5.823517,0 -12.265393,-4.720414 -14.383235,-10.54393 -2.120002,-5.825681 0.88333,-10.54826 6.706792,-10.54826 5.825677,0 12.263233,4.722579 14.383235,10.54826"
       fill="#ce001d"
       id="path1"
       style="stroke-width:0.180333" /><circle
       style="opacity:1;fill:#000000;fill-opacity:1;stroke:#b0911a;stroke-width:0.79375;stroke-linecap:round;stroke-linejoin:round;stroke-miterlimit:12;stroke-dasharray:none;stroke-opacity:1;paint-order:markers stroke fill"
       id="path63"
       cx="6.6910644"
       cy="88.122269"
       r="0.52916664" /><circle
       style="opacity:1;fill:#000000;fill-opacity:1;stroke:#b0911a;stroke-width:0.79375;stroke-linecap:round;stroke-linejoin:round;stroke-miterlimit:12;stroke-dasharray:none;stroke-opacity:1;paint-order:markers stroke fill"
       id="circle63"
       cx="6.6910644"
       cy="85.476433"
       r="0.52916664" /><circle
       style="opacity:1;fill:#000000;fill-opacity:1;stroke:#b0911a;stroke-width:0.79375;stroke-linecap:round;stroke-linejoin:round;stroke-miterlimit:12;stroke-dasharray:none;stroke-opacity:1;paint-order:markers stroke fill"
       id="circle64"
       cx="14.01594"
       cy="88.122269"
       r="0.52916664" /><circle
       style="opacity:1;fill:#000000;fill-opacity:1;stroke:#b0911a;stroke-width:0.79375;stroke-linecap:round;stroke-linejoin:round;stroke-miterlimit:12;stroke-dasharray:none;stroke-opacity:1;paint-order:markers stroke fill"
       id="circle65"
       cx="16.308996"
       cy="88.122269"
       r="0.52916664" /><circle
       style="opacity:1;fill:#000000;fill-opacity:1;stroke:#b0911a;stroke-width:0.79375;stroke-linecap:round;stroke-linejoin:round;stroke-miterlimit:12;stroke-dasharray:none;stroke-opacity:1;paint-order:markers stroke fill"
       id="circle66"
       cx="18.602053"
       cy="88.122269"
       r="0.52916664" /><circle
       style="opacity:1;fill:#000000;fill-opacity:1;stroke:#b0911a;stroke-width:0.79375;stroke-linecap:round;stroke-linejoin:round;stroke-miterlimit:12;stroke-dasharray:none;stroke-opacity:1;paint-order:markers stroke fill"
       id="circle67"
       cx="20.895109"
       cy="88.122269"
       r="0.52916664" /><circle
       style="opacity:1;fill:#000000;fill-opacity:1;stroke:#b0911a;stroke-width:0.79375;stroke-linecap:round;stroke-linejoin:round;stroke-miterlimit:12;stroke-dasharray:none;stroke-opacity:1;paint-order:markers stroke fill"
       id="circle68"
       cx="23.717337"
       cy="88.122269"
       r="0.52916664" /><circle
       style="opacity:1;fill:#000000;fill-opacity:1;stroke:#b0911a;stroke-width:0.79375;stroke-linecap:round;stroke-linejoin:round;stroke-miterlimit:12;stroke-dasharray:none;stroke-opacity:1;paint-order:markers stroke fill"
       id="circle69"
       cx="26.010393"
       cy="88.122269"
       r="0.52916664" /><circle
       style="opacity:1;fill:#000000;fill-opacity:1;stroke:#b0911a;stroke-width:0.79375;stroke-linecap:round;stroke-linejoin:round;stroke-miterlimit:12;stroke-dasharray:none;stroke-opacity:1;paint-order:markers stroke fill"
       id="circle70"
       cx="28.30345"
       cy="88.122269"
       r="0.52916664" /><circle
       style="opacity:1;fill:#000000;fill-opacity:1;stroke:#b0911a;stroke-width:0.79375;stroke-linecap:round;stroke-linejoin:round;stroke-miterlimit:12;stroke-dasharray:none;stroke-opacity:1;paint-order:markers stroke fill"
       id="circle71"
       cx="40.474274"
       cy="88.122269"
       r="0.52916664" /><circle
       style="opacity:1;fill:#000000;fill-opacity:1;stroke:#b0911a;stroke-width:0.79375;stroke-linecap:round;stroke-linejoin:round;stroke-miterlimit:12;stroke-dasharray:none;stroke-opacity:1;paint-order:markers stroke fill"
       id="circle72"
       cx="42.76733"
       cy="88.122269"
       r="0.52916664" /><circle
       style="opacity:1;fill:#000000;fill-opacity:1;stroke:#b0911a;stroke-width:0.79375;stroke-linecap:round;stroke-linejoin:round;stroke-miterlimit:12;stroke-dasharray:none;stroke-opacity:1;paint-order:markers stroke fill"
       id="circle73"
       cx="45.060383"
       cy="88.122269"
       r="0.52916664" /><circle
       style="opacity:1;fill:#000000;fill-opacity:1;stroke:#b0911a;stroke-width:0.79375;stroke-linecap:round;stroke-linejoin:round;stroke-miterlimit:12;stroke-dasharray:none;stroke-opacity:1;paint-order:markers stroke fill"
       id="circle74"
       cx="47.353439"
       cy="88.122269"
       r="0.52916664" /><circle
       style="opacity:1;fill:#000000;fill-opacity:1;stroke:#b0911a;stroke-width:0.79375;stroke-linecap:round;stroke-linejoin:round;stroke-miterlimit:12;stroke-dasharray:none;stroke-opacity:1;paint-order:markers stroke fill"
       id="circle75"
       cx="49.646496"
       cy="88.122269"
       r="0.52916664" /><circle
       style="opacity:1;fill:#000000;fill-opacity:1;stroke:#b0911a;stroke-width:0.79375;stroke-linecap:round;stroke-linejoin:round;stroke-miterlimit:12;stroke-dasharray:none;stroke-opacity:1;paint-order:markers stroke fill"
       id="circle76"
       cx="51.939548"
       cy="88.122269"
       r="0.52916664" /><circle
       style="opacity:1;fill:#000000;fill-opacity:1;stroke:#b0911a;stroke-width:0.79375;stroke-linecap:round;stroke-linejoin:round;stroke-miterlimit:12;stroke-dasharray:none;stroke-opacity:1;paint-order:markers stroke fill"
       id="circle77"
       cx="54.232605"
       cy="88.122269"
       r="0.52916664" /><circle
       style="opacity:1;fill:#000000;fill-opacity:1;stroke:#b0911a;stroke-width:0.79375;stroke-linecap:round;stroke-linejoin:round;stroke-miterlimit:12;stroke-dasharray:none;stroke-opacity:1;paint-order:markers stroke fill"
       id="circle78"
       cx="56.525661"
       cy="88.122269"
       r="0.52916664" /><circle
       style="opacity:1;fill:#000000;fill-opacity:1;stroke:#b0911a;stroke-width:0.79375;stroke-linecap:round;stroke-linejoin:round;stroke-miterlimit:12;stroke-dasharray:none;stroke-opacity:1;paint-order:markers stroke fill"
       id="circle79"
       cx="58.818714"
       cy="88.122269"
       r="0.52916664" /><circle
       style="opacity:1;fill:#000000;fill-opacity:1;stroke:#b0911a;stroke-width:0.79375;stroke-linecap:round;stroke-linejoin:round;stroke-miterlimit:12;stroke-dasharray:none;stroke-opacity:1;paint-order:markers stroke fill"
       id="circle80"
       cx="61.111771"
       cy="88.122269"
       r="0.52916664" /><circle
       style="opacity:1;fill:#000000;fill-opacity:1;stroke:#b0911a;stroke-width:0.79375;stroke-linecap:round;stroke-linejoin:round;stroke-miterlimit:12;stroke-dasharray:none;stroke-opacity:1;paint-order:markers stroke fill"
       id="circle81"
       cx="63.404827"
       cy="88.122269"
       r="0.52916664" /><circle
       style="opacity:1;fill:#000000;fill-opacity:1;stroke:#b0911a;stroke-width:0.79375;stroke-linecap:round;stroke-linejoin:round;stroke-miterlimit:12;stroke-dasharray:none;stroke-opacity:1;paint-order:markers stroke fill"
       id="circle82"
       cx="65.697884"
       cy="88.122269"
       r="0.52916664" /><circle
       style="opacity:1;fill:#000000;fill-opacity:1;stroke:#b0911a;stroke-width:0.79375;stroke-linecap:round;stroke-linejoin:round;stroke-miterlimit:12;stroke-dasharray:none;stroke-opacity:1;paint-order:markers stroke fill"
       id="circle83"
       cx="67.990936"
       cy="88.122269"
       r="0.52916664" /><circle
       style="opacity:1;fill:#000000;fill-opacity:1;stroke:#b0911a;stroke-width:0.79375;stroke-linecap:round;stroke-linejoin:round;stroke-miterlimit:12;stroke-dasharray:none;stroke-opacity:1;paint-order:markers stroke fill"
       id="circle84"
       cx="70.283989"
       cy="88.122269"
       r="0.52916664" /><circle
       style="opacity:1;fill:#000000;fill-opacity:1;stroke:#b0911a;stroke-width:0.79375;stroke-linecap:round;stroke-linejoin:round;stroke-miterlimit:12;stroke-dasharray:none;stroke-opacity:1;paint-order:markers stroke fill"
       id="circle85"
       cx="72.577049"
       cy="88.122269"
       r="0.52916664" /><circle
       style="opacity:1;fill:#000000;fill-opacity:1;stroke:#b0911a;stroke-width:0.79375;stroke-linecap:round;stroke-linejoin:round;stroke-miterlimit:12;stroke-dasharray:none;stroke-opacity:1;paint-order:markers stroke fill"
       id="circle86"
       cx="74.870102"
       cy="88.122269"
       r="0.52916664" /><circle
       style="opacity:1;fill:#000000;fill-opacity:1;stroke:#b0911a;stroke-width:0.79375;stroke-linecap:round;stroke-linejoin:round;stroke-miterlimit:12;stroke-dasharray:none;stroke-opacity:1;paint-order:markers stroke fill"
       id="circle87"
       cx="73.811768"
       cy="86.0056"
       r="0.52916664" /><circle
       style="opacity:1;fill:#000000;fill-opacity:1;stroke:#b0911a;stroke-width:0.79375;stroke-linecap:round;stroke-linejoin:round;stroke-miterlimit:12;stroke-dasharray:none;stroke-opacity:1;paint-order:markers stroke fill"
       id="circle88"
       cx="80.867317"
       cy="88.122269"
       r="0.52916664" /><circle
       style="opacity:1;fill:#000000;fill-opacity:1;stroke:#b0911a;stroke-width:0.79375;stroke-linecap:round;stroke-linejoin:round;stroke-miterlimit:12;stroke-dasharray:none;stroke-opacity:1;paint-order:markers stroke fill"
       id="circle89"
       cx="85.45343"
       cy="88.122269"
       r="0.52916664" /><circle
       style="opacity:1;fill:#000000;fill-opacity:1;stroke:#b0911a;stroke-width:0.79375;stroke-linecap:round;stroke-linejoin:round;stroke-miterlimit:12;stroke-dasharray:none;stroke-opacity:1;paint-order:markers stroke fill"
       id="circle90"
       cx="85.45343"
       cy="86.0056"
       r="0.52916664" /><circle
       style="opacity:1;fill:#000000;fill-opacity:1;stroke:#b0911a;stroke-width:0.79375;stroke-linecap:round;stroke-linejoin:round;stroke-miterlimit:12;stroke-dasharray:none;stroke-opacity:1;paint-order:markers stroke fill"
       id="circle91"
       cx="88.981209"
       cy="88.122269"
       r="0.52916664" /><circle
       style="opacity:1;fill:#000000;fill-opacity:1;stroke:#b0911a;stroke-width:0.79375;stroke-linecap:round;stroke-linejoin:round;stroke-miterlimit:12;stroke-dasharray:none;stroke-opacity:1;paint-order:markers stroke fill"
       id="circle92"
       cx="91.274261"
       cy="88.122269"
       r="0.52916664" /><circle
       style="opacity:1;fill:#000000;fill-opacity:1;stroke:#b0911a;stroke-width:0.79375;stroke-linecap:round;stroke-linejoin:round;stroke-miterlimit:12;stroke-dasharray:none;stroke-opacity:1;paint-order:markers stroke fill"
       id="circle93"
       cx="90.127739"
       cy="86.0056"
       r="0.52916664" /><circle
       style="opacity:1;fill:#000000;fill-opacity:1;stroke:#b0911a;stroke-width:0.79375;stroke-linecap:round;stroke-linejoin:round;stroke-miterlimit:12;stroke-dasharray:none;stroke-opacity:1;paint-order:markers stroke fill"
       id="circle94"
       cx="115.01064"
       cy="88.122269"
       r="0.52916664" /><circle
       style="opacity:1;fill:#000000;fill-opacity:1;stroke:#b0911a;stroke-width:0.79375;stroke-linecap:round;stroke-linejoin:round;stroke-miterlimit:12;stroke-dasharray:none;stroke-opacity:1;paint-order:markers stroke fill"
       id="circle95"
       cx="117.3037"
       cy="88.122269"
       r="0.52916664" /><circle
       style="opacity:1;fill:#000000;fill-opacity:1;stroke:#b0911a;stroke-width:0.79375;stroke-linecap:round;stroke-linejoin:round;stroke-miterlimit:12;stroke-dasharray:none;stroke-opacity:1;paint-order:markers stroke fill"
       id="circle96"
       cx="119.59673"
       cy="88.122269"
       r="0.52916664" /><circle
       style="opacity:1;fill:#000000;fill-opacity:1;stroke:#b0911a;stroke-width:0.79375;stroke-linecap:round;stroke-linejoin:round;stroke-miterlimit:12;stroke-dasharray:none;stroke-opacity:1;paint-order:markers stroke fill"
       id="circle97"
       cx="121.88979"
       cy="88.122269"
       r="0.52916664" /><circle
       style="opacity:1;fill:#000000;fill-opacity:1;stroke:#b0911a;stroke-width:0.79375;stroke-linecap:round;stroke-linejoin:round;stroke-miterlimit:12;stroke-dasharray:none;stroke-opacity:1;paint-order:markers stroke fill"
       id="circle98"
       cx="124.18282"
       cy="88.122269"
       r="0.52916664" /><circle
       style="opacity:1;fill:#000000;fill-opacity:1;stroke:#b0911a;stroke-width:0.79375;stroke-linecap:round;stroke-linejoin:round;stroke-miterlimit:12;stroke-dasharray:none;stroke-opacity:1;paint-order:markers stroke fill"
       id="circle99"
       cx="126.4759"
       cy="88.122269"
       r="0.52916664" /><circle
       style="opacity:1;fill:#000000;fill-opacity:1;stroke:#b0911a;stroke-width:0.79375;stroke-linecap:round;stroke-linejoin:round;stroke-miterlimit:12;stroke-dasharray:none;stroke-opacity:1;paint-order:markers stroke fill"
       id="circle100"
       cx="128.76898"
       cy="88.122269"
       r="0.52916664" /><circle
       style="opacity:1;fill:#000000;fill-opacity:1;stroke:#b0911a;stroke-width:0.79375;stroke-linecap:round;stroke-linejoin:round;stroke-miterlimit:12;stroke-dasharray:none;stroke-opacity:1;paint-order:markers stroke fill"
       id="circle101"
       cx="128.76898"
       cy="86.0056"
       r="0.52916664" /></g></svg>
