<?xml version="1.0" encoding="UTF-8" standalone="no"?>
<!-- Created with Inkscape (http://www.inkscape.org/) -->

<svg
   width="512"
   height="512"
   viewBox="0 0 135.46666 135.46667"
   version="1.1"
   id="svg5"
   inkscape:version="1.4.2 (ebf0e940d0, 2025-05-08)"
   sodipodi:docname="application-pgp-encrypted.svg"
   xml:space="preserve"
   xmlns:inkscape="http://www.inkscape.org/namespaces/inkscape"
   xmlns:sodipodi="http://sodipodi.sourceforge.net/DTD/sodipodi-0.dtd"
   xmlns:xlink="http://www.w3.org/1999/xlink"
   xmlns="http://www.w3.org/2000/svg"
   xmlns:svg="http://www.w3.org/2000/svg"
   xmlns:rdf="http://www.w3.org/1999/02/22-rdf-syntax-ns#"
   xmlns:cc="http://creativecommons.org/ns#"
   xmlns:dc="http://purl.org/dc/elements/1.1/">&gt;
  <sodipodi:namedview
   id="namedview7"
   pagecolor="#505050"
   bordercolor="#ffffff"
   borderopacity="1"
   inkscape:showpageshadow="0"
   inkscape:pageopacity="0"
   inkscape:pagecheckerboard="1"
   inkscape:deskcolor="#505050"
   inkscape:document-units="mm"
   showgrid="false"
   inkscape:zoom="0.70710678"
   inkscape:cx="600.33366"
   inkscape:cy="96.873629"
   inkscape:window-width="3256"
   inkscape:window-height="1080"
   inkscape:window-x="1864"
   inkscape:window-y="0"
   inkscape:window-maximized="0"
   inkscape:current-layer="g37935"
   showguides="false" /><defs
   id="defs2"><linearGradient
     inkscape:collect="always"
     id="linearGradient6"><stop
       style="stop-color:#ffffff;stop-opacity:1;"
       offset="0"
       id="stop6" /><stop
       style="stop-color:#000000;stop-opacity:1;"
       offset="1"
       id="stop5" /></linearGradient><linearGradient
     inkscape:collect="always"
     id="linearGradient17034"><stop
       style="stop-color:#483e37;stop-opacity:1;"
       offset="0"
       id="stop17030" /><stop
       style="stop-color:#483f37;stop-opacity:0;"
       offset="1"
       id="stop17032" /></linearGradient><linearGradient
     inkscape:collect="always"
     id="linearGradient17028"><stop
       style="stop-color:#483c37;stop-opacity:1;"
       offset="0"
       id="stop17024" /><stop
       style="stop-color:#483e37;stop-opacity:0;"
       offset="1"
       id="stop17026" /></linearGradient><linearGradient
     inkscape:collect="always"
     id="linearGradient2866"><stop
       style="stop-color:#000000;stop-opacity:1;"
       offset="0"
       id="stop2860" /><stop
       style="stop-color:#291009;stop-opacity:0.49803957;"
       offset="0.07834584"
       id="stop2862" /><stop
       style="stop-color:#cc9b58;stop-opacity:0;"
       offset="1"
       id="stop2864" /></linearGradient><linearGradient
     inkscape:collect="always"
     id="linearGradient2858"><stop
       style="stop-color:#000000;stop-opacity:1;"
       offset="0"
       id="stop2852" /><stop
       style="stop-color:#612205;stop-opacity:1;"
       offset="0.07834584"
       id="stop2854" /><stop
       style="stop-color:#ce5a1d;stop-opacity:1;"
       offset="1"
       id="stop2856" /></linearGradient><linearGradient
     inkscape:collect="always"
     id="linearGradient2850"><stop
       style="stop-color:#000000;stop-opacity:1;"
       offset="0"
       id="stop2844" /><stop
       style="stop-color:#290909;stop-opacity:1;"
       offset="0.07834584"
       id="stop2846" /><stop
       style="stop-color:#cc5d58;stop-opacity:0;"
       offset="1"
       id="stop2848" /></linearGradient><linearGradient
     inkscape:collect="always"
     id="linearGradient2842"><stop
       style="stop-color:#483f37;stop-opacity:0;"
       offset="0"
       id="stop2838" /><stop
       style="stop-color:#3f100f;stop-opacity:1;"
       offset="1"
       id="stop2840" /></linearGradient><linearGradient
     inkscape:collect="always"
     id="linearGradient2836"><stop
       style="stop-color:#b73e28;stop-opacity:0;"
       offset="0"
       id="stop2832" /><stop
       style="stop-color:#682c0f;stop-opacity:1;"
       offset="1"
       id="stop2834" /></linearGradient><linearGradient
     inkscape:collect="always"
     id="linearGradient2830"><stop
       style="stop-color:#c0deeb;stop-opacity:1;"
       offset="0"
       id="stop2826" /><stop
       style="stop-color:#000d3d;stop-opacity:0;"
       offset="1"
       id="stop2828" /></linearGradient><linearGradient
     inkscape:collect="always"
     id="linearGradient32403"><stop
       style="stop-color:#151515;stop-opacity:1;"
       offset="0"
       id="stop32399" /><stop
       style="stop-color:#5f5f5f;stop-opacity:1;"
       offset="1"
       id="stop32401" /></linearGradient><linearGradient
     inkscape:collect="always"
     id="linearGradient23068"><stop
       style="stop-color:#000000;stop-opacity:1;"
       offset="0"
       id="stop23064" /><stop
       style="stop-color:#ffffff;stop-opacity:1;"
       offset="1"
       id="stop23066" /></linearGradient><filter
     inkscape:collect="always"
     style="color-interpolation-filters:sRGB"
     id="filter25471"
     x="-0.0091865883"
     y="-0.14520066"
     width="1.0183732"
     height="1.2904013"><feGaussianBlur
       inkscape:collect="always"
       stdDeviation="0.34647189"
       id="feGaussianBlur25473" /></filter><filter
     inkscape:collect="always"
     style="color-interpolation-filters:sRGB"
     id="filter29523"
     x="-0.0075460355"
     y="-0.0078188073"
     width="1.0150921"
     height="1.0156376"><feGaussianBlur
       inkscape:collect="always"
       stdDeviation="0.18452687"
       id="feGaussianBlur29525" /></filter><linearGradient
     inkscape:collect="always"
     xlink:href="#linearGradient32403"
     id="linearGradient38663"
     gradientUnits="userSpaceOnUse"
     x1="30.830463"
     y1="89.374367"
     x2="30.830463"
     y2="26.171032"
     gradientTransform="matrix(0.77028423,0.77028423,-0.77028423,0.77028423,51.108704,-36.161781)" /><linearGradient
     inkscape:collect="always"
     xlink:href="#linearGradient2830"
     id="linearGradient38665"
     gradientUnits="userSpaceOnUse"
     gradientTransform="translate(-55.355786,52.709425)"
     x1="168.29024"
     y1="15.023905"
     x2="168.29024"
     y2="7.1799464" /><radialGradient
     inkscape:collect="always"
     xlink:href="#linearGradient2836"
     id="radialGradient38667"
     gradientUnits="userSpaceOnUse"
     gradientTransform="matrix(0.77028423,0.77028423,-0.72676605,0.72676605,-21.379091,-80.281329)"
     cx="108.09609"
     cy="41.720773"
     fx="108.09609"
     fy="41.720773"
     r="32.823577" /><linearGradient
     inkscape:collect="always"
     xlink:href="#linearGradient2842"
     id="linearGradient38671"
     gradientUnits="userSpaceOnUse"
     gradientTransform="translate(-133.47536,-73.376418)"
     x1="185.25107"
     y1="131.14914"
     x2="196.66983"
     y2="131.14914" /><linearGradient
     inkscape:collect="always"
     xlink:href="#linearGradient2850"
     id="linearGradient38673"
     gradientUnits="userSpaceOnUse"
     gradientTransform="matrix(0.76972137,0.76972137,-0.90064693,0.90064693,59.006482,-43.878675)"
     x1="107.70286"
     y1="54.909054"
     x2="107.70286"
     y2="59.889366" /><linearGradient
     inkscape:collect="always"
     xlink:href="#linearGradient2858"
     id="linearGradient38675"
     gradientUnits="userSpaceOnUse"
     gradientTransform="matrix(0.76972137,0.76972137,-0.90064693,0.90064693,59.006481,-43.878676)"
     x1="107.70286"
     y1="54.909054"
     x2="107.70286"
     y2="59.889366" /><linearGradient
     inkscape:collect="always"
     xlink:href="#linearGradient2866"
     id="linearGradient38677"
     gradientUnits="userSpaceOnUse"
     gradientTransform="matrix(0.76972137,0.76972137,-0.90064693,0.90064693,59.006478,-43.878678)"
     x1="107.70286"
     y1="54.909054"
     x2="107.70286"
     y2="59.889366" /><linearGradient
     inkscape:collect="always"
     xlink:href="#linearGradient17028"
     id="linearGradient38679"
     gradientUnits="userSpaceOnUse"
     gradientTransform="matrix(1.0893464,0,0,0.34199144,10.569069,-25.97696)"
     x1="65.185684"
     y1="57.7727"
     x2="80.218326"
     y2="57.7727" /><linearGradient
     inkscape:collect="always"
     xlink:href="#linearGradient17034"
     id="linearGradient38681"
     gradientUnits="userSpaceOnUse"
     gradientTransform="matrix(1.0893464,0,0,0.42892829,10.569072,-16.97723)"
     x1="65.185684"
     y1="57.7727"
     x2="80.218326"
     y2="57.7727" /><clipPath
     clipPathUnits="userSpaceOnUse"
     id="clipPath5236"><path
       id="path5238"
       style="display:inline;fill:#3d2b1c;fill-opacity:1;stroke:none;stroke-width:0.544674;stroke-linecap:round;stroke-linejoin:round;stroke-dasharray:none;paint-order:stroke fill markers"
       d="m -49.172392,42.832634 c -7.004256,-6.995933 -18.211432,-7.42723 -25.732692,-0.990362 -6.407574,-5.945629 -16.36893,-5.762969 -22.554216,0.413581 -6.17655,6.185286 -6.35921,16.146645 -0.413581,22.554218 -6.436869,7.52126 -6.005549,18.72841 0.990362,25.732687 4.100296,4.092133 9.645528,5.163233 15.599791,5.412759 5.954263,0.249526 10.077479,-4.560893 14.52345,-1.747462 4.445974,2.813431 3.941943,12.094115 3.941943,12.094115 l 1.23676,1.20889 7.015726,-7.01572 18.384986,18.38498 6.614488,-1.19616 3.945923,3.94593 3.945925,3.94592 -1.196162,6.61448 2.473521,2.47353 6.614881,-1.19577 3.9459273,3.94593 3.9459199,3.94592 -1.1961548,6.61449 3.2099205,3.20992 3.75525159,0.19027 3.94632081,3.94632 3.9459262,3.94593 0.1906696,3.75565 4.8363789,4.83637 13.869045,-1.47599 3.836059,-3.83606 0.318045,-7.35487 -70.041834,-70.041829 7.015329,-7.015329 -1.208497,-1.237155 c 0,0 -9.500746,0.738085 -12.094118,-3.941942 -2.593371,-4.680024 1.21072,-8.826172 1.747462,-14.52345 0.536739,-5.697276 -1.320623,-11.499498 -5.412756,-15.599791 z m -33.362617,3.149415 c 3.092191,3.092291 3.092191,8.105804 0,11.198095 -3.092294,3.092191 -8.105804,3.092191 -11.198095,0 -3.092191,-3.092291 -3.092191,-8.105801 0,-11.198095 3.092291,-3.092191 8.105804,-3.092191 11.198095,0 z"
       inkscape:label="shape" /></clipPath><clipPath
     clipPathUnits="userSpaceOnUse"
     id="clipPath22580"><path
       id="path22582"
       style="display:inline;fill:#8f5321;fill-opacity:1;stroke:none;stroke-width:0.544674;stroke-linecap:round;stroke-linejoin:round;stroke-dasharray:none;paint-order:stroke fill markers"
       d="m -156.30539,2.3729171 c -7.00426,-6.9959341 -18.21143,-7.4272311 -25.73269,-0.990362 -6.40758,-5.9456299 -16.36893,-5.762969 -22.55422,0.41358 -6.17655,6.1852871 -6.35921,16.1466439 -0.41358,22.5542179 -6.43687,7.52126 -6.00554,18.728407 0.99036,25.732687 4.1003,4.092131 9.64553,5.16323 15.59979,5.412761 5.95427,0.249529 10.07748,-4.56089 14.52345,-1.747462 4.44598,2.813431 3.94195,12.09411 3.94195,12.09411 l 1.23676,1.208892 7.01572,-7.015721 18.38499,18.38498 6.61449,-1.196149 3.94592,3.945919 3.94592,3.94593 -1.19616,6.61448 2.47352,2.473521 6.61488,-1.195761 3.94593,3.945919 3.94592,3.945921 -1.19615,6.61449 3.20992,3.20992 3.75525,0.19027 3.94632,3.94632 3.94593,3.94593 0.190669,3.75565 4.83638,4.83637 13.869046,-1.47599 3.836058,-3.83605 0.318045,-7.35487 -70.041838,-70.04184 7.01533,-7.015326 -1.2085,-1.237155 c 0,0 -9.50074,0.738084 -12.09412,-3.941942 -2.59337,-4.680024 1.21072,-8.826173 1.74747,-14.523449 0.53673,-5.697278 -1.32063,-11.4994979 -5.41276,-15.5997909 z m -33.36262,3.1494141 c 3.09219,3.0922928 3.09219,8.1058028 0,11.1980948 -3.09229,3.09219 -8.1058,3.09219 -11.19809,0 -3.09219,-3.092291 -3.09219,-8.105802 0,-11.198094 3.09229,-3.0921909 8.1058,-3.0921899 11.19809,-8e-7 z" /></clipPath><filter
     inkscape:collect="always"
     style="color-interpolation-filters:sRGB"
     id="filter23310"
     x="-0.15872943"
     y="-0.158991"
     width="1.3174589"
     height="1.317982"><feGaussianBlur
       inkscape:collect="always"
       stdDeviation="8.6357688"
       id="feGaussianBlur23312" /></filter><clipPath
     clipPathUnits="userSpaceOnUse"
     id="clipPath25737"><path
       id="path25739"
       style="display:inline;fill:#8f5321;fill-opacity:1;stroke:none;stroke-width:0.544674;stroke-linecap:round;stroke-linejoin:round;stroke-dasharray:none;paint-order:stroke fill markers"
       d="m -58.402707,14.071743 c -7.004261,-6.9959346 -18.211432,-7.4272316 -25.732692,-0.990362 -6.407579,-5.9456304 -16.368931,-5.7629695 -22.554221,0.41358 -6.17655,6.185287 -6.35921,16.146643 -0.41358,22.554219 -6.43687,7.521258 -6.00554,18.728407 0.99036,25.732687 4.1003,4.092133 9.645532,5.163233 15.599792,5.412759 5.95427,0.249526 10.077479,-4.560893 14.52345,-1.747465 4.445979,2.813434 3.94195,12.094118 3.94195,12.094118 l 1.236761,1.208892 7.015718,-7.015726 18.384991,18.384985 6.614485,-1.196157 3.945925,3.945927 3.945924,3.945919 -1.196163,6.614481 2.473521,2.47352 6.614882,-1.19576 3.945928,3.94593 3.945919,3.94592 -1.196154,6.61449 3.20992,3.20992 3.7552519,0.19027 3.94632,3.94632 3.9459271,3.94593 0.190669,3.75565 4.8363791,4.83637 13.8690459,-1.47599 3.836058,-3.83606 0.318045,-7.35487 -70.041832,-70.04183 7.015329,-7.015332 -1.2085,-1.237152 c 0,0 -9.50074,0.738082 -12.09412,-3.941942 -2.593369,-4.680027 1.21072,-8.826175 1.74747,-14.52345 0.536731,-5.697278 -1.320631,-11.499498 -5.412759,-15.599791 z m -33.362622,3.149414 c 3.092191,3.092293 3.092191,8.105803 0,11.198096 -3.092289,3.092188 -8.105799,3.092188 -11.198091,0 -3.09219,-3.092292 -3.09219,-8.105803 0,-11.198095 3.092292,-3.092191 8.105802,-3.09219 11.198091,-10e-7 z" /></clipPath><filter
     inkscape:collect="always"
     style="color-interpolation-filters:sRGB"
     id="filter26467"
     x="-0.047053884"
     y="-0.056434823"
     width="1.0941078"
     height="1.1128696"><feGaussianBlur
       inkscape:collect="always"
       stdDeviation="3.0330825"
       id="feGaussianBlur26469" /></filter><linearGradient
     inkscape:collect="always"
     xlink:href="#linearGradient23068"
     id="linearGradient2"
     gradientUnits="userSpaceOnUse"
     gradientTransform="matrix(0.77028423,0.77028423,-0.77028423,0.77028423,-34.774133,-43.516754)"
     x1="35.728409"
     y1="28.746567"
     x2="35.728409"
     y2="85.805092" /><linearGradient
     inkscape:collect="always"
     xlink:href="#linearGradient6"
     id="linearGradient5"
     gradientUnits="userSpaceOnUse"
     gradientTransform="matrix(0.77028423,0.77028423,-0.77028423,0.77028423,-34.774135,-43.516754)"
     x1="11.653282"
     y1="44.395412"
     x2="11.674187"
     y2="71.150749" /><linearGradient
     inkscape:collect="always"
     xlink:href="#linearGradient32403"
     id="linearGradient7"
     gradientUnits="userSpaceOnUse"
     gradientTransform="matrix(0,1.0893464,-1.0893464,0,129.89523,-17.443999)"
     x1="30.830463"
     y1="89.374367"
     x2="30.830463"
     y2="26.171032" /><filter
     style="color-interpolation-filters:sRGB;"
     inkscape:label="Noise Fill"
     id="filter13"
     x="-0.012549399"
     y="-0.0026178677"
     width="1.0250988"
     height="1.0052357"><feTurbulence
       type="fractalNoise"
       baseFrequency="100 0.2"
       numOctaves="4"
       seed="2"
       result="turbulence"
       id="feTurbulence12" /><feComposite
       in="SourceGraphic"
       in2="turbulence"
       operator="in"
       result="composite1"
       id="feComposite12" /><feColorMatrix
       values="1 0 0 0 0 0 1 0 0 0 0 0 1 0 0 0 0 0 4 -1 "
       result="color"
       id="feColorMatrix12" /><feFlood
       flood-opacity="1"
       flood-color="rgb(255,255,255)"
       result="flood"
       id="feFlood12" /><feMerge
       result="merge"
       id="feMerge13"><feMergeNode
         in="flood"
         id="feMergeNode12" /><feMergeNode
         in="color"
         id="feMergeNode13" /></feMerge><feComposite
       in2="SourceGraphic"
       operator="in"
       result="composite2"
       id="feComposite13" /></filter><linearGradient
     inkscape:collect="always"
     id="linearGradient37704"><stop
       style="stop-color:#802f00;stop-opacity:1;"
       offset="0"
       id="stop37700" /><stop
       style="stop-color:#c48c00;stop-opacity:1;"
       offset="1"
       id="stop37702" /></linearGradient><linearGradient
     inkscape:collect="always"
     id="linearGradient1284"><stop
       style="stop-color:#ffb600;stop-opacity:1;"
       offset="0"
       id="stop1280" /><stop
       style="stop-color:#ffff00;stop-opacity:1;"
       offset="0.49571416"
       id="stop1288" /><stop
       style="stop-color:#ffad00;stop-opacity:1;"
       offset="1"
       id="stop1282" /></linearGradient><linearGradient
     inkscape:collect="always"
     xlink:href="#linearGradient1284"
     id="linearGradient1286"
     x1="10.704506"
     y1="93.050919"
     x2="108.68611"
     y2="93.050919"
     gradientUnits="userSpaceOnUse"
     gradientTransform="matrix(1.1430033,0,0,1.1430033,-0.49847266,-10.054409)" /><clipPath
     clipPathUnits="userSpaceOnUse"
     id="clipPath13413"><path
       id="path13415"
       style="fill:#ffff00;stroke:none;stroke-width:6.05745;stroke-linecap:round;stroke-linejoin:round;stroke-dasharray:none;stroke-opacity:1;paint-order:stroke fill markers"
       d="m -212.8129,52.337104 a 39.6875,39.6875 0 0 0 -39.6875,39.6875 39.6875,39.6875 0 0 0 0.0584,1.556496 c -0.0367,0.153355 -0.0584,0.313084 -0.0584,0.478007 v 52.585413 c 0,1.12699 0.90752,2.0345 2.0345,2.0345 h 75.306 c 1.12699,0 2.0345,-0.90751 2.0345,-2.0345 V 94.059107 c 0,-0.164923 -0.0217,-0.324652 -0.0584,-0.478007 a 39.6875,39.6875 0 0 0 0.0584,-1.556496 39.6875,39.6875 0 0 0 -39.6875,-39.6875 z m 0.26097,9.527585 c 6.25233,0.08143 12.49179,2.098524 17.53691,5.806363 6.57475,4.808749 11.19146,12.542631 12.12381,20.723283 0.33668,16.898145 0.1954,33.803075 0.22583,50.704395 -20.09504,0.0111 -40.19018,0.0225 -60.28521,0.0336 0.009,-13.79517 -0.0369,-27.59048 0.002,-41.385585 0.0357,-2.676623 -0.0209,-5.457995 0.14883,-8.065656 0.31252,-4.698551 1.80427,-9.293985 4.24056,-13.318051 1.70071,-2.81309 3.87059,-5.347525 6.42959,-7.482747 5.06261,-4.168741 11.67317,-6.806039 18.32808,-7.005773 0.41658,-0.01185 0.83323,-0.01524 1.25005,-0.0098 z" /></clipPath><clipPath
     clipPathUnits="userSpaceOnUse"
     id="clipPath17075"><path
       id="path17077"
       style="fill:#ffff00;stroke:none;stroke-width:6.05745;stroke-linecap:round;stroke-linejoin:round;stroke-dasharray:none;stroke-opacity:1;paint-order:stroke fill markers"
       d="m -139.57909,-31.124334 a 39.6875,39.6875 0 0 0 -39.6875,39.6874999 39.6875,39.6875 0 0 0 0.0584,1.5564941 c -0.0367,0.153356 -0.0584,0.313085 -0.0584,0.478007 v 52.58542 c 0,1.12699 0.90752,2.0345 2.0345,2.0345 h 75.306 c 1.12699,0 2.034501,-0.90751 2.034501,-2.0345 v -52.58542 c 0,-0.164922 -0.0217,-0.324651 -0.0584,-0.478007 a 39.6875,39.6875 0 0 0 0.0584,-1.5564941 39.6875,39.6875 0 0 0 -39.687501,-39.6874999 z m 0.26097,9.527584 c 6.25233,0.08143 12.49179,2.098524 17.53691,5.806364 6.57475,4.808749 11.19146,12.5426291 12.12381,20.7232821 0.33668,16.8981519 0.1954,33.8030749 0.22583,50.7043979 -20.09504,0.01109 -40.19018,0.02249 -60.28521,0.03359 0.009,-13.795166 -0.0369,-27.590474 0.002,-41.385586 0.0357,-2.676625 -0.0209,-5.4579949 0.14883,-8.0656581 0.31252,-4.6985489 1.80427,-9.2939829 4.24056,-13.3180498 1.70071,-2.8130902 3.87059,-5.3475251 6.42959,-7.4827471 5.06261,-4.16874 11.67317,-6.80604 18.32808,-7.005774 0.41658,-0.01185 0.83323,-0.01525 1.25005,-0.0098 z" /></clipPath><filter
     inkscape:collect="always"
     style="color-interpolation-filters:sRGB"
     id="filter17825"
     x="-0.025130395"
     y="-0.045380377"
     width="1.0502717"
     height="1.0785762"><feGaussianBlur
       inkscape:collect="always"
       stdDeviation="0.65530376"
       id="feGaussianBlur17827" /></filter><clipPath
     clipPathUnits="userSpaceOnUse"
     id="clipPath20906"><path
       id="path20908"
       style="fill:url(#linearGradient20910);fill-opacity:1;stroke:#000000;stroke-width:0.264583;stroke-linecap:round;stroke-linejoin:round;paint-order:stroke fill markers"
       d="m -186.44641,40.250178 c 0,0 31.20022,-2.116666 46.82424,-2.116666 15.62402,0 46.824237,2.116666 46.824237,2.116666 1.125842,0.05089 2.034273,0.907283 2.034273,2.034268 v 59.211134 c 0,1.12699 -0.90728,2.03427 -2.034273,2.03427 h -93.648477 c -1.12699,0 -2.03427,-0.90728 -2.03427,-2.03427 V 42.284446 c 0,-1.126985 0.90728,-2.034268 2.03427,-2.034268 z"
       sodipodi:nodetypes="szssssssss" /></clipPath><linearGradient
     inkscape:collect="always"
     xlink:href="#linearGradient1284"
     id="linearGradient20910"
     gradientUnits="userSpaceOnUse"
     gradientTransform="translate(-199.31748,-22.219236)"
     x1="10.704506"
     y1="93.050919"
     x2="108.68611"
     y2="93.050919" /><filter
     inkscape:collect="always"
     style="color-interpolation-filters:sRGB"
     id="filter21638"
     x="-0.0076858513"
     y="-0.011484473"
     width="1.0153717"
     height="1.0229689"><feGaussianBlur
       inkscape:collect="always"
       stdDeviation="0.26098086"
       id="feGaussianBlur21640" /></filter><linearGradient
     inkscape:collect="always"
     xlink:href="#linearGradient1284"
     id="linearGradient26262"
     gradientUnits="userSpaceOnUse"
     gradientTransform="translate(-173.91467,-89.139177)"
     x1="10.704506"
     y1="93.050919"
     x2="108.68611"
     y2="93.050919" /><clipPath
     clipPathUnits="userSpaceOnUse"
     id="clipPath26258-9"><path
       id="path26260-2"
       style="fill:url(#linearGradient26262);fill-opacity:1;stroke:#000000;stroke-width:0.264583;stroke-linecap:round;stroke-linejoin:round;paint-order:stroke fill markers"
       d="m -161.0436,-26.669764 c 0,0 31.20022,-2.116667 46.82424,-2.116667 15.624022,0 46.824239,2.116667 46.824239,2.116667 1.125842,0.05089 2.03427,0.907285 2.03427,2.03427 v 59.211138 c 0,1.12699 -0.90728,2.03427 -2.03427,2.03427 H -161.0436 c -1.12698,0 -2.03427,-0.90728 -2.03427,-2.03427 v -59.211138 c 0,-1.126985 0.90729,-2.03427 2.03427,-2.03427 z"
       sodipodi:nodetypes="szssssssss" /></clipPath><clipPath
     clipPathUnits="userSpaceOnUse"
     id="clipPath20906-3"><path
       id="path20908-6"
       style="fill:url(#linearGradient20910);fill-opacity:1;stroke:#000000;stroke-width:0.264583;stroke-linecap:round;stroke-linejoin:round;paint-order:stroke fill markers"
       d="m -186.44641,40.250178 c 0,0 31.20022,-2.116666 46.82424,-2.116666 15.62402,0 46.824237,2.116666 46.824237,2.116666 1.125842,0.05089 2.034273,0.907283 2.034273,2.034268 v 59.211134 c 0,1.12699 -0.90728,2.03427 -2.034273,2.03427 h -93.648477 c -1.12699,0 -2.03427,-0.90728 -2.03427,-2.03427 V 42.284446 c 0,-1.126985 0.90728,-2.034268 2.03427,-2.034268 z"
       sodipodi:nodetypes="szssssssss" /></clipPath><clipPath
     clipPathUnits="userSpaceOnUse"
     id="clipPath32973"><path
       id="path32975"
       style="fill:url(#linearGradient32977);fill-opacity:1;stroke:#000000;stroke-width:0.264583;stroke-linecap:round;stroke-linejoin:round;paint-order:stroke fill markers"
       d="m -158.4074,97.544603 c 0,0 31.20022,-2.116669 46.82424,-2.116669 15.624022,0 46.824239,2.116669 46.824239,2.116669 1.125842,0.05089 2.03427,0.907283 2.03427,2.034268 v 59.211139 c 0,1.12699 -0.90728,2.03427 -2.03427,2.03427 H -158.4074 c -1.12698,0 -2.03427,-0.90728 -2.03427,-2.03427 V 99.578871 c 0,-1.126985 0.90729,-2.034268 2.03427,-2.034268 z"
       sodipodi:nodetypes="szssssssss" /></clipPath><linearGradient
     inkscape:collect="always"
     xlink:href="#linearGradient1284"
     id="linearGradient32977"
     gradientUnits="userSpaceOnUse"
     gradientTransform="translate(-171.27847,35.075188)"
     x1="10.704506"
     y1="93.050919"
     x2="108.68611"
     y2="93.050919" /><filter
     inkscape:collect="always"
     style="color-interpolation-filters:sRGB"
     id="filter36136"
     x="-0.028368204"
     y="-0.028947753"
     width="1.0565447"
     height="1.0540845"><feGaussianBlur
       inkscape:collect="always"
       stdDeviation="0.71883487"
       id="feGaussianBlur36138" /></filter><linearGradient
     inkscape:collect="always"
     xlink:href="#linearGradient37704"
     id="linearGradient37706"
     x1="67.733109"
     y1="130.51125"
     x2="67.733109"
     y2="65.11525"
     gradientUnits="userSpaceOnUse"
     gradientTransform="matrix(1.1430033,0,0,1.1430033,-9.6859602,-15.497962)" /><filter
     inkscape:collect="always"
     style="color-interpolation-filters:sRGB"
     id="filter18"
     x="-0.097721696"
     y="-0.16220647"
     width="1.1954573"
     height="1.3244126"><feGaussianBlur
       inkscape:collect="always"
       stdDeviation="2.4188502"
       id="feGaussianBlur18" /></filter><clipPath
     clipPathUnits="userSpaceOnUse"
     id="clipPath18"><path
       id="path18-5"
       style="fill:url(#linearGradient26262);fill-opacity:1;stroke:none;stroke-width:0.264583;stroke-linecap:round;stroke-linejoin:round;paint-order:stroke fill markers"
       d="m -161.0436,-26.669765 c 0,0 31.20022,-2.116667 46.82424,-2.116667 15.624021,0 46.824242,2.116667 46.824242,2.116667 1.125839,0.05089 2.034271,0.907285 2.034271,2.03427 V 34.57565 c 0,1.126988 -0.907283,2.034271 -2.034271,2.034271 H -161.0436 c -1.12698,0 -2.03427,-0.907283 -2.03427,-2.034271 v -59.211145 c 0,-1.126985 0.90729,-2.03427 2.03427,-2.03427 z"
       sodipodi:nodetypes="szssssssss" /></clipPath><filter
     inkscape:collect="always"
     style="color-interpolation-filters:sRGB"
     id="filter19"
     x="-0.20209098"
     y="-0.26578897"
     width="1.3894286"
     height="1.5294428"><feGaussianBlur
       inkscape:collect="always"
       stdDeviation="6.3683387"
       id="feGaussianBlur19" /></filter><clipPath
     clipPathUnits="userSpaceOnUse"
     id="clipPath21"><path
       style="color:#000000;fill:url(#linearGradient22);stroke-width:0.999998;stroke-linecap:round;stroke-linejoin:round;-inkscape-stroke:none;paint-order:markers stroke fill"
       d="m 142.39145,87.750625 c 0,0 26.28813,-1.783421 39.45234,-1.783421 13.16421,0 39.45234,1.783421 39.45234,1.783421 0.94859,0.04288 1.714,0.764445 1.714,1.714 V 139.3537 c 0,0.94956 -0.76444,1.714 -1.714,1.714 h -78.90468 c -0.94956,0 -1.714,-0.76444 -1.714,-1.714 V 89.464625 c 0,-0.949555 0.76444,-1.714 1.714,-1.714 z"
       id="path22" /></clipPath><linearGradient
     inkscape:collect="always"
     xlink:href="#linearGradient1284"
     id="linearGradient22"
     gradientUnits="userSpaceOnUse"
     gradientTransform="matrix(0.84256236,0,0,0.84256236,131.54677,35.116251)"
     x1="10.704506"
     y1="93.050919"
     x2="108.68611"
     y2="93.050919" /><filter
     inkscape:collect="always"
     style="color-interpolation-filters:sRGB"
     id="filter22"
     x="-0.0043496855"
     y="-0.0064791713"
     width="1.0086994"
     height="1.0129583"><feGaussianBlur
       inkscape:collect="always"
       stdDeviation="0.15017883"
       id="feGaussianBlur22" /></filter><clipPath
     clipPathUnits="userSpaceOnUse"
     id="clipPath25"><path
       id="path26"
       style="display:inline;fill:#999999;stroke:none;stroke-width:6.52554;stroke-linecap:round;stroke-linejoin:round;stroke-dasharray:none;stroke-opacity:1;paint-order:stroke fill markers"
       d="m -212.81276,52.337032 c -21.91888,-7.2e-5 -39.6877,17.768748 -39.68763,39.68763 0.009,0.519202 0.0287,1.038177 0.0583,1.556618 -0.0367,0.153356 -0.0583,0.312857 -0.0583,0.477779 v 27.463451 l 9.55008,-7.512 c 0.003,-3.75455 0.004,-3.38062 6.3e-4,-4.42636 h -4.26384 v -3.76582 l 4.26384,-1.9749 c -0.002,-0.75761 -0.0138,-0.92531 6.3e-4,-6.096447 0.0357,-2.676622 -0.0207,-5.458178 0.14903,-8.065834 0.31253,-4.698543 1.80424,-9.294286 4.24053,-13.318347 1.7007,-2.813083 3.87049,-5.347343 6.42949,-7.482563 5.0626,-4.16873 11.67309,-6.806272 18.32798,-7.006009 0.41658,-0.01187 0.83313,-0.01517 1.24995,-0.0099 6.25233,0.08143 12.49168,2.098513 17.5368,5.806347 6.57473,4.808739 11.19184,12.542991 12.12419,20.723628 0.33668,16.898115 0.19528,33.802875 0.22571,50.704175 l 7.50526,9.58074 c 1.12699,0 2.03501,-0.90802 2.03501,-2.03501 V 94.059059 c 0,-0.164922 -0.0222,-0.324423 -0.0589,-0.477779 0.0298,-0.518438 0.0495,-1.03741 0.0589,-1.556618 7e-5,-21.918879 -17.76875,-39.687699 -39.68763,-39.68763 z" /></clipPath><clipPath
     clipPathUnits="userSpaceOnUse"
     id="clipPath26"><path
       id="path27"
       style="display:inline;fill:#999999;stroke:none;stroke-width:6.52555;stroke-linecap:round;stroke-linejoin:round;stroke-dasharray:none;stroke-opacity:1;paint-order:stroke fill markers"
       d="m 84.49665,37.300048 c -18.468023,-6.1e-5 -33.439362,14.971278 -33.439301,33.439303 0.0078,0.437459 0.02416,0.874728 0.04909,1.311548 -0.03093,0.129211 -0.04909,0.263601 -0.04909,0.402558 v 23.139672 l 8.046535,-6.329328 c 0.0021,-3.163448 0.003,-2.848388 5.29e-4,-3.729487 H 55.511866 V 82.36138 l 3.592547,-1.66398 c -0.0016,-0.638337 -0.01164,-0.779629 5.29e-4,-5.136637 0.0301,-2.255221 -0.01744,-4.598855 0.125574,-6.795968 0.263321,-3.958815 1.520185,-7.831016 3.572909,-11.221538 1.432944,-2.370198 3.26113,-4.50547 5.417241,-6.304526 4.265557,-3.512415 9.835306,-5.734708 15.442467,-5.902999 0.350999,-0.01 0.701968,-0.01278 1.053166,-0.0083 5.267973,0.06861 10.525016,1.768128 14.775841,4.892209 5.53962,4.051663 9.42982,10.568252 10.21539,17.46095 0.28367,14.237715 0.16453,28.48103 0.19018,42.721429 l 6.32365,8.07237 c 0.94955,0 1.71461,-0.76506 1.71461,-1.71462 V 72.453457 c 0,-0.138957 -0.0187,-0.273347 -0.0496,-0.402558 0.0251,-0.436817 0.0417,-0.874083 0.0496,-1.311548 7e-5,-18.468022 -14.97128,-33.439362 -33.439297,-33.439303 z" /></clipPath><filter
     inkscape:collect="always"
     style="color-interpolation-filters:sRGB"
     id="filter27"
     x="-0.064625104"
     y="-0.052738727"
     width="1.1292502"
     height="1.1054775"><feGaussianBlur
       inkscape:collect="always"
       stdDeviation="2.0235979"
       id="feGaussianBlur27" /></filter><clipPath
     clipPathUnits="userSpaceOnUse"
     id="clipPath29"><path
       id="path30"
       style="display:inline;fill:#999999;stroke:none;stroke-width:5.49818;stroke-linecap:round;stroke-linejoin:round;stroke-dasharray:none;stroke-opacity:1;paint-order:stroke fill markers"
       d="m 84.49665,37.300048 c -18.468023,-6e-5 -33.439363,14.971279 -33.439302,33.439303 0.0078,0.43746 0.02415,0.874729 0.04909,1.311547 -0.03093,0.129212 -0.04909,0.263603 -0.04909,0.40256 V 95.59313 l 8.046537,-6.329329 c 0.002,-3.163447 0.003,-2.848387 5.17e-4,-3.729488 H 55.511856 V 82.36138 l 3.592546,-1.663981 c -0.0017,-0.638336 -0.01163,-0.779629 5.17e-4,-5.136637 0.0301,-2.25522 -0.01744,-4.598853 0.125573,-6.795968 0.263321,-3.958813 1.520185,-7.831016 3.572909,-11.221537 1.432943,-2.370199 3.261131,-4.505471 5.41724,-6.304525 4.265557,-3.512415 9.835307,-5.73471 15.442468,-5.902999 0.351,-0.01 0.701968,-0.01279 1.053166,-0.0083 5.267973,0.06861 10.525017,1.768128 14.775842,4.892208 5.539623,4.051663 9.429823,10.568251 10.215393,17.46095 0.28367,14.237716 0.16453,28.48103 0.19017,42.721429 l 6.32365,8.07237 c 0.94956,0 1.71462,-0.76506 1.71462,-1.71462 V 72.453458 c 0,-0.138957 -0.0187,-0.273348 -0.0496,-0.40256 0.0251,-0.436815 0.0417,-0.874083 0.0496,-1.311547 6e-5,-18.468023 -14.97128,-33.439362 -33.4393,-33.439303 z"
       clip-path="url(#clipPath26)"
       transform="matrix(1.1868558,0,0,1.1868558,-32.551877,-39.50734)" /></clipPath><clipPath
     clipPathUnits="userSpaceOnUse"
     id="clipPath32"><path
       id="path33"
       style="display:inline;fill:#999999;stroke:none;stroke-width:6.52554;stroke-linecap:round;stroke-linejoin:round;stroke-dasharray:none;stroke-opacity:1;paint-order:stroke fill markers"
       d="m 84.49665,37.300048 c -18.468023,-6e-5 -33.439363,14.971279 -33.439302,33.439303 0.0078,0.43746 0.02415,0.874729 0.04909,1.311547 -0.03093,0.129212 -0.04909,0.263603 -0.04909,0.40256 V 95.59313 l 8.046537,-6.329329 c 0.002,-3.163447 0.003,-2.848387 5.17e-4,-3.729488 H 55.511856 V 82.36138 l 3.592546,-1.663981 c -0.0017,-0.638336 -0.01163,-0.779629 5.17e-4,-5.136637 0.0301,-2.25522 -0.01744,-4.598853 0.125573,-6.795968 0.263321,-3.958813 1.520185,-7.831016 3.572909,-11.221537 1.432943,-2.370199 3.261131,-4.505471 5.41724,-6.304525 4.265557,-3.512415 9.835307,-5.73471 15.442468,-5.902999 0.351,-0.01 0.701968,-0.01279 1.053166,-0.0083 5.267973,0.06861 10.525017,1.768128 14.775842,4.892208 5.539623,4.051663 9.429823,10.568251 10.215393,17.46095 0.28367,14.237716 0.16453,28.48103 0.19017,42.721429 l 6.32365,8.07237 c 0.94956,0 1.71462,-0.76506 1.71462,-1.71462 V 72.453458 c 0,-0.138957 -0.0187,-0.273348 -0.0496,-0.40256 0.0251,-0.436815 0.0417,-0.874083 0.0496,-1.311547 6e-5,-18.468023 -14.97128,-33.439362 -33.4393,-33.439303 z"
       clip-path="url(#clipPath26)" /></clipPath><filter
     inkscape:collect="always"
     style="color-interpolation-filters:sRGB"
     id="filter34"
     x="-0.045681777"
     y="-0.037926289"
     width="1.0913636"
     height="1.0758526"><feGaussianBlur
       inkscape:collect="always"
       stdDeviation="1.2026075"
       id="feGaussianBlur34" /></filter><clipPath
     clipPathUnits="userSpaceOnUse"
     id="clipPath34"><path
       id="path35"
       style="display:inline;fill:#999999;stroke:none;stroke-width:6.52554;stroke-linecap:round;stroke-linejoin:round;stroke-dasharray:none;stroke-opacity:1;paint-order:stroke fill markers"
       d="m 84.49665,37.300048 c -18.468023,-6e-5 -33.439363,14.971279 -33.439302,33.439303 0.0078,0.43746 0.02415,0.874729 0.04909,1.311547 -0.03093,0.129212 -0.04909,0.263603 -0.04909,0.40256 V 95.59313 l 8.046537,-6.329329 c 0.002,-3.163447 0.003,-2.848387 5.17e-4,-3.729488 H 55.511856 V 82.36138 l 3.592546,-1.663981 c -0.0017,-0.638336 -0.01163,-0.779629 5.17e-4,-5.136637 0.0301,-2.25522 -0.01744,-4.598853 0.125573,-6.795968 0.263321,-3.958813 1.520185,-7.831016 3.572909,-11.221537 1.432943,-2.370199 3.261131,-4.505471 5.41724,-6.304525 4.265557,-3.512415 9.835307,-5.73471 15.442468,-5.902999 0.351,-0.01 0.701968,-0.01279 1.053166,-0.0083 5.267973,0.06861 10.525017,1.768128 14.775842,4.892208 5.539623,4.051663 9.429823,10.568251 10.215393,17.46095 0.28367,14.237716 0.16453,28.48103 0.19017,42.721429 l 6.32365,8.07237 c 0.94956,0 1.71462,-0.76506 1.71462,-1.71462 V 72.453458 c 0,-0.138957 -0.0187,-0.273348 -0.0496,-0.40256 0.0251,-0.436815 0.0417,-0.874083 0.0496,-1.311547 6e-5,-18.468023 -14.97128,-33.439362 -33.4393,-33.439303 z"
       clip-path="url(#clipPath26)" /></clipPath></defs><g
   inkscape:label="Layer 1 copy"
   inkscape:groupmode="layer"
   id="g37935"
   style="display:inline"><g
     id="g5255"
     transform="matrix(0,1.0893464,-1.0893464,0,117.95788,-14.420688)"
     inkscape:label="font-reference"
     style="display:none"
     sodipodi:insensitive="true"><text
       xml:space="preserve"
       style="font-style:normal;font-weight:normal;font-size:18.1108px;line-height:1.25;font-family:sans-serif;display:inline;opacity:0.144968;fill:#484537;fill-opacity:1;stroke:none;stroke-width:0.855633;stroke-linecap:round;stroke-dasharray:none;stroke-opacity:1;paint-order:stroke markers fill"
       x="-67.498093"
       y="41.618046"
       id="text5253"
       transform="rotate(-90)"><tspan
         sodipodi:role="line"
         id="tspan5251"
         style="fill:#484537;stroke:none;stroke-width:0.855633;stroke-linecap:round;stroke-dasharray:none;stroke-opacity:1;paint-order:stroke markers fill"
         x="-67.498093"
         y="41.618046">PGP</tspan></text></g><g
     id="layer3"
     inkscape:label="all"
     transform="translate(1.3007656e-4)"><g
       inkscape:groupmode="layer"
       id="layer2"
       inkscape:label="hook-shank"
       style="display:inline"><path
         id="path5990"
         style="display:inline;fill:#999999;stroke:none;stroke-width:4.81029;stroke-linecap:round;stroke-linejoin:round;stroke-dasharray:none;stroke-opacity:1;paint-order:stroke fill markers"
         d="m 84.49665,37.300048 c -18.468023,-6e-5 -33.439363,14.971279 -33.439302,33.439303 0.0078,0.43746 0.02415,0.874729 0.04909,1.311547 -0.03093,0.129212 -0.04909,0.263603 -0.04909,0.40256 V 95.59313 l 8.046537,-6.329329 c 0.002,-3.163447 0.003,-2.848387 5.17e-4,-3.729488 H 55.511856 V 82.36138 l 3.592546,-1.663981 c -0.0017,-0.638336 -0.01163,-0.779629 5.17e-4,-5.136637 0.0301,-2.25522 -0.01744,-4.598853 0.125573,-6.795968 0.263321,-3.958813 1.520185,-7.831016 3.572909,-11.221537 1.432943,-2.370199 3.261131,-4.505471 5.41724,-6.304525 4.265557,-3.512415 9.835307,-5.73471 15.442468,-5.902999 0.351,-0.01 0.701968,-0.01279 1.053166,-0.0083 5.267973,0.06861 10.525017,1.768128 14.775842,4.892208 5.539623,4.051663 9.429823,10.568251 10.215393,17.46095 0.28367,14.237716 0.16453,28.48103 0.19017,42.721429 l 6.32365,8.07237 c 0.94956,0 1.71462,-0.76506 1.71462,-1.71462 V 72.453458 c 0,-0.138957 -0.0187,-0.273348 -0.0496,-0.40256 0.0251,-0.436815 0.0417,-0.874083 0.0496,-1.311547 6e-5,-18.468023 -14.97128,-33.439362 -33.4393,-33.439303 z"
         clip-path="url(#clipPath26)"
         transform="matrix(1.3565801,0,0,1.3565801,-46.892862,-49.169275)" /><path
         id="path5990-6-2"
         clip-path="url(#clipPath25)"
         style="display:inline;mix-blend-mode:normal;fill:#333333;fill-opacity:1;stroke:none;stroke-width:5.70913;stroke-linecap:round;stroke-linejoin:round;stroke-dasharray:none;stroke-opacity:1;paint-order:stroke fill markers;filter:url(#filter27)"
         transform="matrix(1.1430033,0,0,1.1430033,310.9793,-58.390169)"
         d="m -211.88112,56.586147 c -0.69916,-0.01798 -1.39955,-0.01666 -2.10064,0.0037 -7.04477,0.2401 -14.0069,2.488701 -19.85148,6.431323 -4.71843,3.16125 -8.80052,7.559712 -11.61821,12.57009 -2.76943,4.878187 -4.53575,10.511139 -4.80969,16.205879 -0.22055,6.148945 -0.0774,12.304011 -0.12266,18.455551 0.004,12.80311 -0.0175,25.60645 0.0429,38.40946 l 5.27521,-8.87483 c 0.0133,-10.06742 -0.0226,-20.13557 -0.003,-30.20317 h -2.1448 v -3.76582 l 2.15339,-0.99726 c 0.0176,-4.18214 0.0475,-8.363761 0.10181,-12.545558 0.47479,-9.679037 5.61453,-19.028325 13.61887,-24.516428 5.48127,-3.819384 12.13756,-5.970136 18.8303,-5.901411 v -6.13e-4 c 10.46753,0.08371 20.82088,5.546443 26.5036,14.390438 3.36401,5.035189 5.41628,11.033707 5.27888,17.126479 0.24575,15.978023 0.1752,31.959513 0.17051,47.938073 -0.2126,1.59859 -2.0597,2.25617 -3.47449,2.01416 l 8.78711,5.31451 c 0.01,-8.36098 0.002,-16.75016 0.006,-25.12178 -0.0134,-10.58645 0.0198,-21.17534 -0.0736,-31.76041 -0.57205,-9.178932 -4.6715,-18.206935 -11.39251,-24.618854 -5.16245,-5.046806 -11.89874,-8.52704 -18.94437,-9.876368 -2.0506,-0.397233 -4.13574,-0.623174 -6.23322,-0.67711 z"
         sodipodi:nodetypes="ccccccccccccccccccccccccccc" /><path
         style="display:inline;opacity:0.4;mix-blend-mode:darken;fill:none;stroke:#000000;stroke-width:0.748109;stroke-linecap:butt;stroke-linejoin:miter;stroke-dasharray:none;stroke-opacity:1;filter:url(#filter36136)"
         d="M 33.605422,69.980087 C 29.924842,65.958627 31.554451,60.153648 32.47717,55.4039 34.129032,49.177163 30.321456,42.898433 32.236193,36.665476 c 0.684113,-4.808129 4.229914,-8.238384 6.495651,-12.27572 3.581447,-5.326515 9.367549,-9.430791 15.867894,-10.013022 0.920768,-3.740083 4.214815,-5.7086048 7.832264,-4.6563079 5.206384,-0.5179559 11.215417,-1.5769464 15.648593,1.9551109 3.729449,2.076757 8.579493,0.301267 12.052979,3.045956 4.210381,1.901827 0.990243,10.162298 7.449446,9.222981 3.93477,1.523143 3.26563,6.456949 5.60185,9.270212 2.35942,2.835583 -1.21488,5.756765 0.18395,9.068168 0.28207,6.268871 -0.3679,12.616814 1.09332,18.791122 1.55208,3.638765 0.075,6.982824 -1.72089,10.158808 1.19842,3.163608 1.80409,6.677369 2.42004,10.115755 l 0.14634,0.514542"
         id="path35771"
         transform="matrix(1.1430033,0,0,1.1430033,-9.6859584,-4.0122451)"
         clip-path="url(#clipPath29)" /><path
         style="display:inline;mix-blend-mode:normal;fill:none;stroke:#ffffff;stroke-width:1.19697;stroke-linecap:butt;stroke-linejoin:miter;stroke-dasharray:none;stroke-opacity:1;filter:url(#filter17825)"
         d="m -97.213105,18.806237 c 1.016442,-20.9985709 -15.776855,-40.723175 -29.821285,-46.014686 -14.04443,-5.291512 -32.21054,-0.757542 -39.848,9.106204 -7.63746,9.8637464 -15.72277,18.04034315 -16.65018,35.259977"
         id="path16710"
         clip-path="url(#clipPath17075)"
         transform="matrix(1.1430033,0,0,1.1430033,227.27283,37.006533)"
         sodipodi:nodetypes="czzc" /><path
         style="color:#000000;display:inline;mix-blend-mode:normal;fill:#ffffff;stroke-width:0.737148;-inkscape-stroke:none;filter:url(#filter34)"
         d="m 81.138672,40.257812 c -8.225483,0.760942 -14.500647,6.796395 -20.53261,11.824026 -6.424409,7.618143 -8.733373,17.874883 -8.650095,27.646997 1.784043,5.467974 0.585008,12.147679 0,17.930968 3.499028,-2.988718 4.394902,-8.860862 3.070425,-12.506439 -2.429451,-5.749855 -1.504437,-12.191316 -0.140523,-18.081969 1.902149,-7.372714 5.938105,-14.464607 12.431745,-18.696865 4.635294,-3.173747 9.605926,-6.71818 15.502329,-6.512436 6.163234,0.188092 12.503546,1.626793 17.748217,4.967225 4.67086,2.890215 7.44436,7.958912 8.37228,13.267577 2.09194,10.313751 -1.77902,21.111585 0.96079,31.36182 0.75094,5.275584 -1.30479,10.702684 0,15.955944 2.35374,2.69344 1.87394,6.49943 4.52645,8.94493 2.05113,-0.14302 -0.96367,-4.26191 -1.39917,-5.87217 -1.89389,-3.58585 -3.19391,-7.86741 -1.51436,-11.802095 1.71415,-7.776627 -1.70859,-14.764113 0,-22.551263 0.43531,-8.743845 0.10181,-19.303372 -5.54396,-26.567804 -5.87786,-7.322071 -15.96405,-9.122985 -24.831518,-9.308446 z"
         id="path31"
         clip-path="url(#clipPath34)"
         sodipodi:nodetypes="cccccccccccccccccc"
         transform="matrix(1.3565801,0,0,1.3565801,-46.892862,-49.169275)" /></g><g
       inkscape:label="house"
       inkscape:groupmode="layer"
       id="layer1"
       style="display:inline"><path
         id="rect792"
         style="display:inline;fill:url(#linearGradient1286);fill-opacity:1;stroke:none;stroke-width:0.285028;stroke-linecap:round;stroke-linejoin:round;paint-order:stroke fill markers"
         d="m 14.213199,61.348338 c 0,0 35.661958,-2.419356 53.520263,-2.419356 17.858307,0 53.520258,2.419356 53.520258,2.419356 1.28683,0.05817 2.32517,1.037029 2.32517,2.325177 v 67.678515 c 0,1.28815 -1.03702,2.32518 -2.32517,2.32518 H 14.213199 c -1.288147,0 -2.325177,-1.03703 -2.325177,-2.32518 V 63.673515 c 0,-1.288148 1.03703,-2.325177 2.325177,-2.325177 z"
         sodipodi:nodetypes="szssssssss"
         inkscape:label="lock-house" /><path
         id="path37698"
         style="display:inline;opacity:1;mix-blend-mode:overlay;fill:url(#linearGradient37706);fill-opacity:1;stroke:none;stroke-width:0.285028;stroke-linecap:round;stroke-linejoin:round;paint-order:stroke fill markers"
         d="m 14.213199,61.348338 c 0,0 35.661958,-2.419356 53.520263,-2.419356 17.858307,0 53.520258,2.419356 53.520258,2.419356 1.28683,0.05817 2.32517,1.037029 2.32517,2.325177 v 67.678515 c 0,1.28815 -1.03702,2.32518 -2.32517,2.32518 H 14.213199 c -1.288147,0 -2.325177,-1.03703 -2.325177,-2.32518 V 63.673515 c 0,-1.288148 1.03703,-2.325177 2.325177,-2.325177 z"
         sodipodi:nodetypes="szssssssss"
         inkscape:label="shadow" /><path
         id="path1716-3"
         clip-path="none"
         style="display:inline;opacity:0.1;mix-blend-mode:normal;fill:none;stroke:#593118;stroke-width:3.44129;stroke-linecap:round;stroke-linejoin:miter;stroke-dasharray:none;stroke-opacity:1;filter:url(#filter18)"
         d="m -9.7470393,10.500834 c -2.2521017,-0.165315 -8.0530267,-3.119944 -7.0665017,6.359678 2.737446,-0.94852 12.057892,16.631091 15.0071786,15.679976 1.52662124,-0.49232 -2.9255353,-15.768049 -1.8641883,-20.422885 -1.0317647,-8.7651591 -4.2792017,-1.473445 -6.0764886,-1.616769 z m -11.2029897,2.615217 c -2.534457,0.135423 -7.143462,-9.5208858 -9.681584,-9.6074758 -3.476113,-0.118581 -4.880872,9.3306198 -8.342791,9.7625638 2.625322,0.660132 -2.192158,13.060118 0.53507,13.17455 3.371575,0.141468 14.289467,-12.181956 17.489305,-13.329642 z m -20.838934,-0.09568 c -5.819086,-0.839763 -11.790467,-6.7383863 -17.708524,-6.8729699 -5.14456,-0.1169933 -10.241081,5.3623369 -15.259519,6.7214799 5.068678,0.02329 4.120382,11.503485 9.18906,11.526775 5.92067,0.02721 17.858313,-11.402491 23.778983,-11.375285 z m -34.390032,16.714678 c -2.562249,-2.145512 -4.094742,18.410202 1.421989,17.881565 3.694061,-0.816643 10.597656,-2.000336 12.862527,-4.031503 -2.836576,-0.830205 -11.289572,-13.725382 -14.284516,-13.850062 z m 16.681508,14.628669 c 5.265747,2.165884 11.130293,1.541005 16.584804,0.544999 -2.606757,-1.500712 -6.765269,-14.716046 -10.701386,-15.171864 -1.283911,0.01176 -4.599461,14.636046 -5.883418,14.626865 z m 20.84016,-0.09568 c 5.728049,-0.02632 12.830289,5.662779 18.558338,5.636456 5.260481,-0.02417 9.146771,-5.763773 14.4072527,-5.787947 -5.1289247,-1.407644 -15.2136677,-14.534142 -20.4739457,-14.38263 -5.803277,0.167153 -6.78545,13.728184 -12.491645,14.534121 z"
         transform="matrix(1.1430033,0,0,1.1430033,111.66949,66.075394)"
         sodipodi:nodetypes="ccscccscscccscscccccccccscscs"
         inkscape:label="tex" /><path
         style="display:inline;opacity:0.6;mix-blend-mode:normal;fill:none;stroke:#6c502f;stroke-width:4.48865;stroke-linecap:butt;stroke-linejoin:miter;stroke-dasharray:none;stroke-opacity:1;filter:url(#filter19)"
         d="m -163.07787,-1.2402508 c 12.15497,1.77480065 6.04004,-22.3478422 35.39354,-27.2324592 29.353505,-4.884617 1.74348,12.287663 4.45003,16.913245 2.70655,4.6255825 -3.22108,18.6246701 -12.25672,21.2187714 -12.35356,6.9244506 -21.67245,8.9951086 -27.58685,22.4907286 59.29193,-4.779497 71.040338,-50.884777 83.664259,-55.687233 21.618424,13.293389 -17.514191,4.650186 7.618929,36.76247 6.367103,10.308598 -3.972522,20.31516 -12.224938,23.384648"
         id="path25123-5"
         clip-path="url(#clipPath18)"
         transform="matrix(1.1430033,0,0,1.1430033,198.2863,91.831773)"
         sodipodi:nodetypes="czzccccc"
         inkscape:label="tex" /><path
         id="rect792-6"
         style="display:inline;opacity:0.2;mix-blend-mode:normal;fill:#000000;fill-opacity:1;stroke:#000000;stroke-width:0.249369;stroke-linecap:round;stroke-linejoin:round;paint-order:stroke fill markers;filter:url(#filter21638)"
         d="m -139.62217,38.13368 c -15.62401,0 -46.82402,2.116667 -46.82402,2.116667 -1.12699,0 -2.0345,0.907001 -2.0345,2.033984 V 101.4957 c 0,1.12699 0.90751,2.03398 2.0345,2.03398 h 93.648034 c 1.126989,0 2.034501,-0.90699 2.034501,-2.03398 V 42.284331 c 0,-1.126983 -0.908662,-1.983094 -2.034501,-2.033984 0,0 -31.200014,-2.116667 -46.824014,-2.116667 z m -0.98495,1.047482 c 0.70311,-0.0026 1.40575,-0.0026 2.10891,0 14.75805,0.200004 29.48625,1.096543 44.209705,2.016931 0.81826,0.108185 2.088602,-0.168899 2.422592,0.835608 0.0496,19.535056 0.02191,39.075706 0.02791,58.612959 0.10515,0.67902 0.009,1.69944 -0.849561,1.79834 -30.883446,0.009 -61.766716,0.0118 -92.650156,0.008 -0.72575,0.0408 -1.83202,0.16922 -2.07842,-0.74414 -0.0347,-11.90164 -0.0147,-23.807287 -0.0227,-35.710481 0.014,-7.942859 -0.0263,-15.890674 0.0207,-23.830586 0.0822,-0.99153 1.27168,-0.902431 2.00349,-0.954981 14.21891,-0.865335 28.44633,-1.739341 42.69817,-2.015381 v -5.16e-4 c 0.70312,-0.0078 1.40632,-0.0129 2.10944,-0.0155 z"
         clip-path="url(#clipPath20906)"
         transform="matrix(1.1430033,0,0,1.1430033,227.32181,15.342058)"
         inkscape:label="edge" /><path
         style="color:#000000;display:inline;opacity:0.6;mix-blend-mode:normal;fill:#000000;stroke:none;stroke-width:0.390074;stroke-linecap:round;stroke-linejoin:round;stroke-dasharray:none;stroke-opacity:1;paint-order:markers stroke fill;filter:url(#filter22)"
         d="m 181.84375,85.703125 c -13.18809,0 -39.4707,1.783203 -39.4707,1.783203 h 0.0176 c -1.09156,0 -1.97851,0.88696 -1.97851,1.978516 v 49.888676 c 0,1.09156 0.88695,1.97851 1.97851,1.97851 h 78.90625 c 1.09157,0 1.97852,-0.88695 1.97852,-1.97851 V 89.464844 c 0,-1.091736 -0.89086,-1.929879 -1.9668,-1.978516 -0.0104,-7.04e-4 -26.27935,-1.783203 -39.46484,-1.783203 z m 0,0.529297 c 13.1403,0 39.43359,1.78125 39.43359,1.78125 a 0.26460978,0.26460978 0 0 0 0.008,0.002 c 0.82124,0.03712 1.46093,0.641847 1.46093,1.449219 v 49.888679 c 0,0.80755 -0.64166,1.44921 -1.44922,1.44921 H 142.3908 c -0.80755,0 -1.44921,-0.64166 -1.44921,-1.44921 V 89.464844 c 0,-0.807552 0.64166,-1.449219 1.44921,-1.449219 a 0.26460978,0.26460978 0 0 0 0.0195,-0.002 c 0,0 26.29329,-1.78125 39.43359,-1.78125 z"
         id="path20"
         clip-path="url(#clipPath21)"
         inkscape:label="edge-fine"
         transform="matrix(1.3565801,0,0,1.3565801,-178.95245,-57.692783)" /></g></g><path
     id="path37895"
     style="display:inline;fill:#8f5321;fill-opacity:1;stroke:url(#linearGradient38663);stroke-width:0.544673;stroke-linecap:round;stroke-linejoin:round;stroke-dasharray:none;paint-order:stroke fill markers"
     d="M 54.538744,8.5609414 C 47.534491,1.5650075 36.327315,1.1337099 28.806054,7.5705794 22.398481,1.6249485 12.437123,1.8076102 6.2518368,7.9841594 0.0752881,14.169446 -0.1073742,24.130803 5.8382565,30.538377 c -6.4368691,7.521259 -6.0055449,18.728409 0.9903624,25.732689 4.1003151,4.092112 9.6455291,5.163232 15.5997911,5.412758 5.954264,0.249525 10.077479,-4.560893 14.523449,-1.747465 4.445975,2.813433 3.941943,12.094119 3.941943,12.094119 l 1.236763,1.208888 7.015727,-7.015726 18.384985,18.384985 6.614486,-1.196156 3.945925,3.945924 3.945924,3.945925 -1.196161,6.614483 2.473523,2.473519 6.614876,-1.195769 3.945932,3.945939 3.945917,3.94591 -1.196154,6.61449 3.209918,3.20992 3.755257,0.19027 3.94632,3.94632 3.94592,3.94593 0.19067,3.75565 4.83638,4.83637 13.86905,-1.47598 3.83606,-3.83606 0.31804,-7.35487 -70.041832,-70.041836 7.01533,-7.01533 -1.208502,-1.23715 c 0,0 -9.500743,0.738083 -12.094117,-3.941943 -2.59337,-4.680025 1.210722,-8.826173 1.747464,-14.523449 C 60.488241,18.463454 58.630878,12.661233 54.538744,8.5609414 Z M 21.176129,11.710355 c 3.09219,3.092292 3.09219,8.105803 -1e-6,11.198095 -3.092293,3.09219 -8.105803,3.09219 -11.1980952,0 -3.0921894,-3.092292 -3.09219,-8.105802 5e-7,-11.198095 3.0922927,-3.0921896 8.1058037,-3.0921896 11.1980957,0 z" /><path
     id="path6"
     style="display:inline;opacity:0.1;mix-blend-mode:soft-light;fill:#000080;fill-opacity:1;stroke:url(#linearGradient7);stroke-width:0.544673;stroke-linecap:round;stroke-linejoin:round;stroke-dasharray:none;paint-order:stroke fill markers;filter:url(#filter13)"
     d="m 56.110164,53.565792 v 26.000295 l 5.522958,3.831338 10e-7,5.58038 -10e-7,5.58038 -5.522959,3.831332 3e-6,3.498083 5.52296,3.83189 -5e-6,5.5804 5e-6,5.58036 -5.52296,3.83134 -10e-7,4.53951 2.520826,2.78991 v 5.58094 l -7e-6,5.58038 -2.520821,2.79047 7e-6,6.83967 10.850575,8.76322 h 5.425008 l 5.425566,-4.97579 3e-6,-99.054108 z"
     transform="rotate(-45,67.907604,68.300852)"
     sodipodi:nodetypes="cccccccccccccccccccccc"
     inkscape:label="brushed" /><path
     style="color:#000000;display:inline;opacity:0.690327;mix-blend-mode:overlay;fill:#ffc000;filter:url(#filter26467)"
     d="m -115.32422,7.3574219 c -5.32255,7.3621401 -10.7474,14.6699181 -15.99219,22.1230471 -0.0936,0.133008 -0.20627,0.312699 -0.24414,0.609375 -0.0379,0.296675 0.0791,0.708802 0.2793,0.945312 0.40038,0.473022 0.70649,0.43662 0.89844,0.462891 0.3839,0.05254 0.63888,0.01953 0.77344,0.01953 0.71637,0 1.57827,0.111872 2.56445,-0.0098 1.16982,-0.144288 2.17863,-0.493299 3.08789,-0.683593 1.27198,-0.266209 2.49585,-0.557048 3.69336,-0.732422 2.18196,-0.319548 4.41587,-0.511141 6.67578,-0.783203 1.11253,-0.133935 2.23132,-0.268107 3.35547,-0.423828 1.42396,-0.197253 2.78079,-0.469157 4.0957,-0.609375 0.43114,-0.04598 1.78501,0.01015 2.96289,0.111328 1.17788,0.101173 2.23928,0.225705 2.49414,0.253906 0.53456,0.05916 1.189331,0.245064 1.996096,0.306641 0.842102,0.06428 1.510522,-0.04199 1.994141,-0.002 -0.103635,-0.0086 0.02139,0.0033 0.117187,0.01758 0.09579,0.01431 0.228363,0.03591 0.384766,0.06055 0.312807,0.04927 0.721332,0.114704 1.138672,0.183594 0.83468,0.13778 1.798205,0.311492 1.886719,0.332031 0.05329,0.01237 0.303305,0.09932 0.513672,0.171875 0.002,0.103537 -0.0059,0.271389 -0.0059,0.623047 0,0.488998 0.03207,0.7745 0.01758,0.853516 -0.185052,1.008762 -0.591517,2.331342 -1.044922,3.265625 -0.342353,0.705453 -0.798803,1.441344 -1.207031,2.291016 -0.281782,0.586497 -0.38757,1.051099 -0.517578,1.302734 -0.136507,0.264209 -0.57943,0.681726 -0.910156,1.46875 -0.307275,0.731229 -0.312478,1.327457 -0.398438,1.664062 -0.06685,0.261756 -0.278526,0.994918 -0.478515,1.732422 -0.19999,0.737505 -0.392967,1.432709 -0.457032,2.019532 -0.08022,0.734847 -0.0059,1.356207 -0.0059,1.849609 0,0.305917 -0.109617,0.825783 0.01758,1.525391 0.139196,0.765585 0.431919,1.316392 0.566406,1.732421 0.02648,0.0819 0.0124,0.520302 0.376954,1.113282 0.339368,0.552005 0.741443,0.737146 0.86914,0.835937 0.769527,0.595336 1.384029,0.950263 2.082031,1.103516 0.698003,0.153252 1.325651,0.153448 2.583985,0.316406 1.335403,0.172941 2.62086,0.209049 3.833984,0.328125 12.414284,1.218551 4.227514,0.184464 12.46875,1.714844 4.343302,0.806542 5.469709,0.923775 5.966797,0.99414 0.497088,0.07037 0.459534,0.09546 2.875,0.804688 1.12128,0.329226 2.116527,0.46596 2.835938,0.810547 -0.04052,-0.01941 0.02278,0.01401 0.162109,0.189453 0.139332,0.175442 0.335504,0.475068 0.716797,0.767578 0.995687,0.763834 1.995697,1.265768 2.75,1.857422 0.09593,0.07525 0.947593,0.924333 1.638672,1.681641 0.345539,0.378654 0.680116,0.755152 0.939453,1.054687 0.259337,0.299535 0.492817,0.603262 0.443359,0.529297 -0.01296,-0.01938 0.07874,0.223302 0.0918,0.572266 0.01306,0.348963 -0.01953,0.765305 -0.01953,1.179687 0,0.557826 0.0274,0.807124 0.04297,0.751953 0.01532,-0.05431 -0.270072,0.209944 -0.560547,0.951172 -0.231638,0.591098 -0.346284,0.90257 -0.378907,1.308594 -0.0071,0.08863 0.04402,0.212653 0.05664,0.322265 -0.06009,0.142995 -0.194379,0.433206 -0.511719,1.033204 -0.025,0.04727 -0.460127,0.327744 -0.833984,1.11914 -0.493566,1.044809 -0.903239,2.530689 -1.152344,3.65625 -0.31087,1.404657 -0.291015,1.241496 -0.291015,2.361328 0,0.09537 -0.105855,0.459202 0.0293,1.046875 0.140618,0.611382 0.411808,0.857499 0.419922,0.873047 0.224953,0.43104 0.527834,1.001309 1.126953,1.447266 0.606976,0.451806 1.120992,0.761346 1.712891,0.939453 0.591899,0.178107 1.149239,0.227233 2.044922,0.345703 0.796572,0.105366 1.372012,-0.01789 1.701172,0.0078 0.6203,0.04843 1.300406,0.181152 2.050781,0.285156 l 0.04492,0.0059 0.04492,0.0039 c 2.098301,0.121512 4.214667,0.281771 6.355469,0.367188 2.64e-4,1e-5 1.476314,0.002 2.90625,0.002 1.428922,-5e-6 2.753861,-0.0059 2.755859,-0.0059 5.389221,0.491082 2.857014,0.229343 6.136719,1.1875 0.84418,0.246624 1.500074,0.298716 1.863281,0.470703 -0.09522,-0.04509 0.0922,0.26645 0.748047,0.755859 0.385078,0.287353 0.785648,0.485422 1.27539,0.804688 0.489743,0.319265 0.975263,0.758974 0.994141,0.787109 0.02958,0.04408 0.334964,0.608088 0.548828,1.107422 0.106932,0.249667 0.203063,0.501987 0.263672,0.693359 0.06061,0.191373 0.06377,0.366182 0.06836,0.216797 0.0031,-0.100558 -0.21714,0.209359 -0.328125,1.019531 -0.112058,0.81802 -0.212867,1.068861 -0.05664,1.683594 0.01207,0.04749 0.09315,0.134785 0.115234,0.195313 -0.05075,0.270446 -0.11077,0.588396 -0.310547,1.433593 -0.05439,0.230126 -0.28052,0.613866 -0.501953,1.214844 -0.420544,1.141372 -0.861546,2.302205 -1.246094,3.50586 -0.152604,0.477663 -0.24384,0.952183 -0.30664,1.408203 -0.262149,1.903609 -0.283203,2.980289 -0.283203,4.689449 0,0.15001 -0.06125,0.47684 0.01367,0.96485 0.06169,0.40184 0.190922,0.82753 0.359375,1.33203 0.168452,0.5045 0.252363,0.91071 0.652343,1.43554 0.289497,0.37984 0.561879,0.581 0.691407,0.71094 0.0011,0.001 0.207424,0.21552 0.410156,0.41602 0.202732,0.2005 0.345102,0.37776 0.701172,0.60351 0.574156,0.36401 1.243314,0.93762 2.201172,1.30274 0.895746,0.34143 1.644137,0.2651 2.095703,0.33203 1.819415,0.26966 3.84961,0.6204 5.779297,0.74219 2.576612,0.16262 5.152134,0.25772 7.7207026,0.32617 1.556466,0.0415 3.0426353,-0.0528 4.4570313,-0.002 3.87843954,0.13942 4.76338284,0.16517 7.8457031,0.7168 1.0602965,0.18976 2.1225157,0.40013 3.1914062,0.61328 0.5638348,0.11246 0.8905394,0.14292 0.953125,0.17383 0.737061,0.36402 0.9219778,0.5105 0.9140626,0.50195 -0.00792,-0.009 0.076573,0.17798 0.40625,0.71875 0.3598808,0.59033 0.7235385,1.24245 1.1875,1.89454 0.1953364,0.27454 0.3402522,0.45465 0.5664062,0.64843 0.148053,0.52075 0.290752,1.02965 0.6875,2.2461 0.350339,1.07414 1.256939,3.90335 1.390625,4.46484 -0.04114,-0.1728 -0.09937,0.0488 -0.02148,0.67188 0.07109,0.56868 0.207591,1.02261 0.273437,1.38476 0.08477,0.4662 0.137131,1.01748 0.273438,1.63086 0.128797,0.57959 0.382679,1.14828 0.632812,1.70703 0.250133,0.55875 0.507606,1.08317 0.574219,1.22852 0.143753,0.31366 0.273564,0.878 0.720703,1.49218 0.266983,0.36673 0.526536,0.41148 0.701172,0.46289 0.266828,0.27175 0.561951,0.79235 1.162109,1.35352 0.462463,0.4324 0.895104,0.59938 1.113281,0.73438 0.604817,0.37421 1.279724,0.9198 2.1875,1.32031 0.883507,0.38979 1.525954,0.35814 1.964844,0.27539 -0.196568,-0.0148 -0.494424,-0.0774 -0.701172,-0.27539 -0.373816,-0.35789 -0.285068,-0.47016 -0.265625,-0.55078 h 2.201172 c 0,-0.0815 0.0017,-0.13917 -0.0039,-0.24805 -0.0056,-0.10888 0.120969,-0.37045 -0.365234,-0.83594 -0.243102,-0.23274 -0.62841,-0.32676 -0.830079,-0.32226 -0.201668,0.004 -0.286194,0.0402 -0.339843,0.0566 -0.107298,0.0329 -0.09868,0.0327 -0.09375,0.0312 0.01971,-0.006 0.0105,0.0893 -0.652344,-0.20313 -0.555164,-0.24493 -1.155204,-0.70672 -1.910156,-1.17383 -0.411744,-0.25476 -0.679206,-0.38939 -0.757813,-0.46289 -0.269046,-0.25157 -0.572324,-0.79455 -1.175781,-1.375 -0.223031,-0.21452 -0.319743,-0.20183 -0.458984,-0.24609 -0.104858,-0.18616 -0.212675,-0.48601 -0.4375,-0.97656 -0.110721,-0.24159 -0.335078,-0.69856 -0.564453,-1.21094 -0.229376,-0.51238 -0.452523,-1.10373 -0.490235,-1.27344 -0.09645,-0.434 -0.148688,-0.9555 -0.255859,-1.54492 -0.09504,-0.52274 -0.213434,-0.93599 -0.253906,-1.25976 0.01225,0.098 0.140265,-0.22846 -0.02344,-0.91602 -0.234862,-0.98643 -1.088485,-3.56651 -1.439453,-4.64258 -0.488189,-1.4968 -0.711878,-2.26515 -0.820313,-2.67383 -0.0062,-0.0201 0.01155,-0.0847 0.0078,-0.10547 -0.03106,-0.17203 -0.0665,-0.30274 -0.117188,-0.4414 -0.02534,-0.0693 0.0033,-0.0841 -0.167968,-0.32813 -0.02141,-0.0305 -0.04675,-0.0658 -0.08984,-0.11328 -0.04309,-0.0474 -0.208255,-0.18115 -0.208984,-0.18164 -3.65e-4,-2.4e-4 -0.212554,-0.11119 -0.212891,-0.11133 -2.7e-4,-10e-5 -0.186105,-0.0425 -0.273438,-0.0625 -0.254734,-0.40015 -0.503902,-0.79631 -0.779296,-1.24804 -0.246169,-0.4038 -0.299409,-0.6675 -0.6777349,-1.07618 -0.3783263,-0.40868 -0.7976587,-0.61352 -1.5722656,-0.99609 -0.69193,-0.34175 -1.2522351,-0.31114 -1.5136719,-0.36328 v -0.002 c -1.0709604,-0.21357 -2.1487667,-0.42646 -3.2363281,-0.6211 -3.14942027,-0.56364 -4.28400066,-0.60864 -8.1621094,-0.74804 -1.5629964,-0.0562 -3.056723,0.0359 -4.4785156,-0.002 -2.5533505,-0.068 -5.1017215,-0.16019 -7.6386715,-0.32031 -1.752348,-0.11059 -3.733163,-0.44747 -5.589844,-0.72266 -0.787609,-0.11673 -1.346281,-0.10423 -1.621094,-0.20898 -0.493597,-0.18815 -1.057197,-0.62995 -1.794922,-1.09766 0.117966,0.0748 -0.148696,-0.133 -0.320312,-0.30273 -0.171616,-0.16973 -0.30399,-0.30958 -0.398438,-0.4043 -0.26669,-0.26754 -0.445394,-0.41785 -0.496093,-0.48437 0.115516,0.15157 -0.163667,-0.35695 -0.304688,-0.7793 -0.141021,-0.42235 -0.266082,-0.93652 -0.269531,-0.95898 -0.0054,-0.035 0.01172,-0.24195 0.01172,-0.6211 0,-1.69421 0.01432,-2.57019 0.263671,-4.380856 0.05055,-0.367051 0.120462,-0.71358 0.220704,-1.027343 0.360117,-1.127189 0.787457,-2.257468 1.21289,-3.41211 0.113033,-0.306774 0.411939,-0.765216 0.580078,-1.476562 0.255532,-1.081081 0.375821,-1.626849 0.429688,-2.003906 0.02693,-0.188529 0.165213,-0.2226 -0.05469,-0.800782 -0.02072,-0.05447 -0.110104,-0.12966 -0.15039,-0.197265 0.0065,-0.0938 0.0029,-0.0457 0.06836,-0.523438 -0.0035,0.02557 0.320224,-0.365701 0.347656,-1.257812 0.01318,-0.428411 -0.07775,-0.673521 -0.171875,-0.970703 -0.09412,-0.297183 -0.214226,-0.602535 -0.341797,-0.900391 -0.255142,-0.595711 -0.492707,-1.095043 -0.75,-1.478516 -0.463415,-0.690667 -1.069092,-1.051836 -1.636718,-1.421875 -0.567627,-0.370038 -1.19207,-0.748424 -1.160157,-0.724609 -0.02922,-0.0218 -0.265042,-0.577372 -1.132812,-0.988281 -0.901426,-0.426845 -1.696396,-0.4519 -2.195313,-0.597657 -3.088767,-0.902375 -1.174865,-0.776284 -6.566406,-1.267578 h -0.002 c -1.17e-4,-10e-6 -1.531002,-0.0039 -2.960937,-0.0039 -1.429936,5e-6 -2.816142,1.1e-5 -2.816407,0 -2.067861,-0.08251 -4.1519,-0.238713 -6.257812,-0.361328 -0.652825,-0.09184 -1.362292,-0.233385 -2.150391,-0.294922 -0.761381,-0.05946 -1.294188,0.04393 -1.582031,0.0059 -0.91674,-0.121254 -1.403315,-0.18343 -1.689453,-0.269531 -0.286139,-0.0861 -0.483477,-0.193237 -1.013672,-0.58789 -0.19465,-0.144889 -0.247103,-0.25124 -0.470703,-0.679688 -0.202467,-0.387947 -0.259302,-0.499849 -0.220703,-0.332031 0.01655,0.07197 0.0293,-0.105265 0.0293,-0.539063 0,-1.187739 -0.08379,-0.417786 0.238281,-1.873047 0.220584,-0.99669 0.662782,-2.486746 0.988281,-3.175781 0.009,-0.01903 0.393052,-0.282301 0.787109,-1.027344 0.363478,-0.687229 0.551391,-1.065886 0.673829,-1.384765 0.06122,-0.15944 0.120195,-0.304593 0.134765,-0.564453 0.0051,-0.09113 -0.06339,-0.183605 -0.0918,-0.298828 -0.0059,0.08233 0.02621,-0.149089 0.222657,-0.650391 0.0051,-0.01309 0.397455,-0.330035 0.632812,-1.164063 0.207189,-0.734201 0.04297,-1.217503 0.04297,-1.365234 0,-0.265408 0.03518,-0.741032 0.01563,-1.263672 -0.01956,-0.52264 -0.05903,-1.130422 -0.470703,-1.746094 -0.177499,-0.265451 -0.337097,-0.434912 -0.613282,-0.753906 -0.276184,-0.318994 -0.620556,-0.707345 -0.978515,-1.099609 -0.715918,-0.784528 -1.368115,-1.507321 -1.914063,-1.935547 -0.993761,-0.779479 -2.004459,-1.284629 -2.771484,-1.873047 -0.02198,-0.01686 -0.136272,-0.147169 -0.320313,-0.378906 -0.18404,-0.231737 -0.458113,-0.585244 -0.957031,-0.824219 -1.16313,-0.557122 -2.294257,-0.682577 -3.175781,-0.941406 -2.397501,-0.703948 -2.582738,-0.786334 -3.195313,-0.873047 -0.612575,-0.08671 -1.557439,-0.177479 -5.871093,-0.978516 -8.156872,-1.514713 -0.274393,-0.528197 -12.66211,-1.74414 -1.316887,-0.129262 -2.577959,-0.166758 -3.763672,-0.320313 -1.337917,-0.173264 -2.04256,-0.204829 -2.390625,-0.28125 -0.348064,-0.07642 -0.494986,-0.150418 -1.18164,-0.68164 -0.294917,-0.228159 -0.383748,-0.327297 -0.324219,-0.230469 0.04776,0.07768 0.0072,-0.129382 -0.152344,-0.623047 -0.208656,-0.645467 -0.431824,-1.111358 -0.492187,-1.443359 -0.03056,-0.168113 0.01758,-0.543118 0.01758,-1.119141 0,-0.657277 -0.05051,-1.194486 -0.0059,-1.603516 0.01911,-0.175041 0.197842,-0.960945 0.390625,-1.671875 0.192782,-0.710929 0.39335,-1.393893 0.488281,-1.765625 0.168924,-0.661485 0.199219,-1.129205 0.291015,-1.347656 0.09258,-0.220311 0.468942,-0.600101 0.833985,-1.306641 0.308621,-0.597344 0.416782,-1.084537 0.548828,-1.359375 0.338299,-0.704123 0.792855,-1.439754 1.203125,-2.285156 0.578349,-1.191743 1.00999,-2.62058 1.234375,-3.84375 0.112805,-0.614959 0.01758,-1.047118 0.01758,-1.263672 0,-0.285222 0.04219,-0.559625 -0.0059,-0.980468 -0.04805,-0.420844 -0.246057,-0.917572 -0.5625,-1.335938 -0.213838,-0.282724 -0.624256,-0.454058 -0.863282,-0.472656 -0.08492,-0.0066 -0.09002,0.0074 -0.146484,0.01172 -0.12492,-0.04827 -0.294874,-0.134864 -0.681641,-0.22461 -0.394393,-0.09152 -1.184462,-0.219918 -2.029296,-0.359375 -0.422418,-0.06973 -0.835967,-0.137047 -1.15625,-0.1875 -0.160142,-0.02523 -0.296485,-0.04669 -0.402344,-0.0625 -0.105859,-0.01581 -0.115431,-0.02094 -0.263672,-0.0332 -0.846455,-0.07008 -1.521111,0.03535 -2.009766,-0.002 -0.510773,-0.03899 -1.141133,-0.212644 -1.919917,-0.298828 -0.21144,-0.0234 -1.32886,-0.153023 -2.54883,-0.257813 -1.21997,-0.104789 -2.48343,-0.204787 -3.39648,-0.107422 -1.45301,0.154946 -2.83268,0.432489 -4.16602,0.617188 -1.09663,0.15191 -2.20304,0.283934 -3.31641,0.417969 -2.20862,0.265887 -4.46304,0.45838 -6.73437,0.791015 -1.33133,0.194972 -2.59851,0.50047 -3.82813,0.757813 -1.09211,0.228563 -2.04085,0.546327 -2.90039,0.652344 -0.28133,0.0347 -0.69794,0.0049 -1.03906,-0.0039 4.88582,-6.893844 9.90779,-13.702367 14.87305,-20.5703121 z m 23.609376,22.4277341 c -0.01355,0.0032 -0.08315,0.0351 -0.283203,0.01953 -0.0066,-5.12e-4 -0.01843,-0.01286 -0.02539,-0.01367 0.08455,-0.02141 0.320964,-0.0088 0.308593,-0.0059 z m 36.453125,38.734375 c -0.119075,-0.152348 -0.01568,-0.05509 0.07617,0.134766 0.0723,0.149442 0.06808,0.25831 0.07031,0.339844 -0.05427,-0.182513 -0.08014,-0.389724 -0.146485,-0.47461 z m 28.828125,21.607422 c 0.0029,-5.93e-4 0.0087,0.0045 0.01172,0.0039 -0.09622,0.04242 -0.274808,0.08177 -0.308594,0.103516 -0.126298,0.08129 -0.160483,-0.01377 0.296875,-0.107422 z M 22.251953,136.2832 c -0.01976,0.006 -0.107343,0.0205 -0.199219,0.0312 0.01361,-0.003 0.05549,0.0135 0.06836,0.01 0.103122,-0.0296 0.184729,-0.0575 0.130859,-0.041 z"
     id="path23878"
     clip-path="url(#clipPath25737)"
     transform="translate(112.95342,-5.4782356)" /><path
     id="path37895-7"
     style="display:inline;opacity:0.550612;mix-blend-mode:saturation;fill:#ffcc00;fill-opacity:1;stroke:none;stroke-width:0.544673;stroke-linecap:round;stroke-linejoin:round;stroke-dasharray:none;paint-order:stroke fill markers;filter:url(#filter23310)"
     d="m -193.39853,-2.9564087 c -1.72152,0.031568 -3.43684,0.3381221 -5.07876,0.912089 a 39.736515,41.428791 0 0 1 1.04283,5.5526327 c 2.67188,-0.757971 5.66311,-0.08944 7.76645,2.0138306 3.09219,3.0922891 3.09219,8.1059944 0,11.1982824 -2.32106,2.320986 -5.72403,2.899592 -8.58501,1.736329 a 39.736515,41.428791 0 0 1 -11.20241,20.188431 c 0.43474,4.187332 2.25449,8.24876 5.43998,11.438062 3.59494,3.587784 8.30112,4.852612 13.41933,5.278231 a 34.596161,24.95293 0 0 1 21.177,-5.278231 34.596161,24.95293 0 0 1 34.59634,24.952482 34.596161,24.95293 0 0 1 -0.3855,3.678328 l 2.45618,2.456181 3.94549,3.946013 -1.19579,6.614583 2.47323,2.473234 6.6151,-1.195793 3.94602,3.946013 3.94601,3.946011 -1.19631,6.61458 3.20962,3.20963 3.75533,0.19068 3.94653,3.94602 3.94601,3.94601 0.190686,3.75584 4.836397,4.8364 13.868921,-1.4764 1.582849,-1.58285 a 25.483749,27.899467 0 0 1 -21.432803,-27.513562 25.483749,27.899467 0 0 1 0.569477,-5.528862 l -46.607487,-46.607491 7.01559,-7.015075 -1.20871,-1.237134 c 0,0 -9.50046,0.738143 -12.09384,-3.941878 -1.94879,-3.516806 -0.28531,-6.732547 0.88987,-10.53114 a 31.687229,26.401226 0 0 1 -4.20853,0.234611 31.687229,26.401226 0 0 1 -31.51022,-24.1545984 c -1.90996,-0.7039318 -3.9232,-1.0382859 -5.92987,-1.0014893 z"
     clip-path="url(#clipPath22580)"
     transform="translate(210.84414,6.1880204)" /><path
     id="path37899"
     style="display:inline;opacity:0.227474;fill:url(#radialGradient38667);fill-opacity:1;stroke:none;stroke-width:0.18;stroke-linecap:round;stroke-linejoin:round;stroke-dasharray:none;paint-order:fill markers stroke"
     d="M 52.307645,9.6300744 C 48.245527,5.8777044 42.01504,4.4364416 36.629653,5.9727284 34.334124,6.6062064 32.314566,7.7841644 30.41594,9.2601524 29.304472,10.30043 27.634013,9.7090144 26.652065,8.7950974 24.744658,7.0870354 22.271043,6.0447894 19.818966,5.7310504 14.947172,5.0470466 9.6441859,6.9982444 6.7224642,10.993115 3.4377877,15.20543 2.8530455,21.466171 5.5383771,26.185534 6.1720852,27.418928 7.1242841,28.45257 7.8910569,29.587182 8.549404,31.120417 7.2934891,32.507512 6.431477,33.6429 2.7734619,38.978823 2.6918038,46.482106 6.2492198,51.891368 c 1.0437724,1.62523 2.3752848,3.059624 3.8522652,4.142313 2.679221,1.983002 5.988022,2.739254 9.180221,3.138304 2.674279,0.298416 5.492467,0.436657 8.014731,-0.672043 2.887711,-1.040783 6.05524,-2.35561 9.138096,-1.318355 3.187374,1.044352 5.237607,4.132377 5.970258,7.282745 0.411011,1.482285 0.642515,3.011528 0.742192,4.545331 C 51.181056,60.995149 59.207437,52.972939 67.226021,44.942929 63.542869,44.767941 59.538624,43.852627 57.011711,40.964566 54.685444,38.171092 54.595159,34.115123 55.856948,30.835728 56.913244,27.517 58.196454,24.083757 57.673365,20.540453 57.339464,16.914477 55.801141,13.355613 53.400481,10.72145 53.055496,10.338224 52.685737,9.9805424 52.307804,9.6301864 Z M 22.853301,10.132563 c 4.013108,3.816924 3.906643,10.996455 -0.237706,14.680535 -3.646816,3.484063 -9.966983,3.705553 -13.7171473,0.260986 C 5.2674431,21.946408 4.224724,16.131447 6.8493341,12.053112 9.2216545,8.1136714 14.425874,6.0466214 18.80329,7.6441844 c 1.520316,0.499864 2.91276,1.36387 4.050011,2.4883786 z" /><path
     id="path37901"
     style="display:inline;opacity:0.0906308;fill:url(#linearGradient38671);fill-opacity:1;stroke:none;stroke-width:0.165;stroke-linecap:round;stroke-linejoin:round;stroke-dasharray:none;paint-order:fill markers stroke;filter:url(#filter29523)"
     d="m 30.595703,29.474609 c -3.310084,0.127146 -6.676574,1.595797 -9.21875,3.916016 -1.260548,1.130286 -2.563301,2.797474 -3.33621,4.506499 -0.862803,1.808282 -1.192557,3.661662 -1.470431,5.628267 -0.46674,1.54313 -2.217805,2.105927 -3.677388,2.103913 -3.5828879,0.366562 -6.9643269,2.743344 -8.8382365,5.907805 2.975609,-3.823688 8.9707415,-4.880269 13.0012375,-2.124313 3.189043,2.026204 5.169569,5.926022 4.555618,9.705541 -0.627287,4.705593 -4.978653,8.703901 -9.788103,8.579876 -3.0065882,0.02053 -5.9843395,-1.473072 -7.8488306,-3.776338 1.9076081,3.318666 5.4107183,5.666095 9.2345956,6.043596 1.050896,0.12698 2.289956,0.211343 2.883605,1.238291 0.923454,1.451427 0.637236,3.285635 1.298603,4.840718 1.824612,5.505125 7.125439,9.705126 12.948878,10.010045 3.135272,0.280661 6.232525,-0.818297 8.785904,-2.588545 2.431959,-1.714888 4.978081,-3.606206 6.287867,-6.362464 1.232647,-2.697022 2.458037,-5.74018 5.167416,-7.280005 3.000134,-1.728625 6.81225,-1.010834 9.608695,0.787304 0.865158,0.497455 1.677412,1.080815 2.462171,1.695826 0.01072,-9.654946 0.01336,-19.309894 0.0078,-28.964844 -2.610877,2.17986 -6.021168,3.926015 -9.511696,3.302593 -3.321306,-0.648323 -5.857,-3.353617 -7.156128,-6.36703 -1.4228,-2.809724 -2.900819,-5.78331 -5.562926,-7.630132 -2.774005,-2.152359 -6.314361,-3.350805 -9.833703,-3.172619 z"
     transform="matrix(0.77028423,0.77028423,-0.77028423,0.77028423,51.108704,-36.161781)" /><path
     id="path37903"
     style="display:inline;opacity:0.470806;mix-blend-mode:overlay;fill:url(#linearGradient38673);fill-opacity:1;stroke-width:6.73096;stroke-linecap:round;stroke-linejoin:round;paint-order:fill markers stroke"
     d="m 59.673875,55.696057 73.560345,73.560353 -2.58157,2.58157 -3.21941,0.58845 -72.24487,-72.244868 z"
     sodipodi:nodetypes="cccccc" /><path
     id="path37905"
     style="display:inline;opacity:0.43835;mix-blend-mode:normal;fill:url(#linearGradient38675);fill-opacity:1;stroke-width:6.73096;stroke-linecap:round;stroke-linejoin:round;paint-order:fill markers stroke"
     d="m 59.673875,55.696057 73.560345,73.560353 -2.58157,2.58157 -3.21941,0.58845 -72.24487,-72.244868 z"
     sodipodi:nodetypes="cccccc" /><path
     id="path37907"
     style="display:inline;opacity:0.2;mix-blend-mode:normal;fill:url(#linearGradient38677);fill-opacity:1;stroke-width:6.73096;stroke-linecap:round;stroke-linejoin:round;paint-order:fill markers stroke"
     d="m 59.673872,55.696056 73.560348,73.560354 -2.58157,2.58157 -3.21941,0.58845 -72.244872,-72.24487 z"
     sodipodi:nodetypes="cccccc" /><rect
     style="display:inline;opacity:0.43835;fill:url(#linearGradient38679);fill-opacity:1;stroke:none;stroke-width:0.446627;stroke-linecap:round;stroke-linejoin:round;stroke-dasharray:none;stroke-opacity:1;paint-order:stroke markers fill"
     id="rect37927"
     width="16.375753"
     height="6.812901"
     x="81.578865"
     y="-9.6256447"
     transform="rotate(45)" /><rect
     style="display:inline;opacity:0.43835;fill:url(#linearGradient38681);fill-opacity:1;stroke:none;stroke-width:0.500184;stroke-linecap:round;stroke-linejoin:round;stroke-dasharray:none;stroke-opacity:1;paint-order:stroke markers fill"
     id="rect37929"
     width="16.375753"
     height="8.5447931"
     x="81.578865"
     y="3.5307238"
     transform="rotate(45)" /><path
     id="path37931"
     style="display:inline;mix-blend-mode:soft-light;fill:#ffffff;stroke-width:0.0423721;stroke-linecap:round;stroke-linejoin:round;paint-order:stroke markers fill"
     d="m 55.188368,60.18156 72.244872,72.24487 -0.71049,-0.60858 -71.585336,-71.585336 z"
     sodipodi:nodetypes="ccccc" /><path
     d="m 16.643956,38.081973 q 1.953065,-1.953065 3.61317,-2.078619 1.660105,-0.125554 3.055151,1.269492 0.823077,0.823078 1.171839,1.925163 0.348762,1.074186 -0.0837,2.39948 -0.418515,1.311344 -1.911215,2.804044 l -1.143937,1.143937 3.878229,3.87823 -1.255542,1.255541 -9.96063,-9.960631 z m 0.962582,1.185789 -1.269492,1.269492 3.934031,3.934031 1.004432,-1.004433 q 1.422948,-1.422947 1.660105,-2.580836 0.237159,-1.157889 -0.864928,-2.259975 -0.962582,-0.962582 -2.050717,-0.823077 -1.088137,0.139504 -2.413431,1.464798 z m 13.866754,-6.612513 3.445764,-3.445765 4.882663,4.882662 q -0.544068,1.074186 -1.241591,2.022818 -0.697524,0.948632 -1.743808,1.994916 -1.548502,1.548502 -3.222557,1.994916 -1.688006,0.432465 -3.389963,-0.153455 -1.701956,-0.61382 -3.278359,-2.190223 -1.562451,-1.562451 -2.092569,-3.32021 -0.530118,-1.757758 -0.01395,-3.529467 0.516166,-1.79961 2.148371,-3.431814 0.837028,-0.837028 1.729857,-1.422947 0.90678,-0.59987 1.82751,-0.962583 l 0.613821,1.562453 q -0.767276,0.29296 -1.604303,0.795176 -0.823078,0.488267 -1.534551,1.19974 -1.78566,1.785659 -1.715907,3.864278 0.0837,2.064669 1.953064,3.934031 1.18579,1.185789 2.483183,1.729858 1.297393,0.516166 2.636638,0.209257 1.325293,-0.320861 2.664538,-1.660106 0.655672,-0.655672 1.046288,-1.185786 0.390615,-0.530115 0.669622,-1.004433 l -2.957498,-2.957499 -2.190223,2.190223 z m 3.766635,-13.169247 q 1.953065,-1.953065 3.61317,-2.078619 1.660105,-0.125554 3.055152,1.269492 0.823077,0.823077 1.171839,1.925163 0.348761,1.074186 -0.0837,2.399481 -0.418514,1.311342 -1.911214,2.804042 l -1.143938,1.143938 3.87823,3.878229 -1.255542,1.255542 -9.960631,-9.960631 z m 0.962582,1.185789 -1.269492,1.269492 3.934031,3.934031 1.004433,-1.004433 q 1.422948,-1.422948 1.660105,-2.580837 0.237158,-1.157888 -0.864928,-2.259975 -0.962582,-0.962581 -2.050718,-0.823077 -1.088137,0.139505 -2.413431,1.464799 z"
     id="text18"
     style="font-size:18.1108px;line-height:1.25;display:inline;opacity:0.144968;mix-blend-mode:multiply;fill:#484537;stroke-width:0.932081;stroke-linecap:round;paint-order:stroke markers fill"
     aria-label="PGP" /><path
     id="path18"
     style="font-size:18.1108px;line-height:1.25;display:inline;opacity:0.1;mix-blend-mode:normal;fill:#ffffff;stroke-width:0.932081;stroke-linecap:round;paint-order:stroke markers fill"
     d="m 26.967312,27.479609 c -1.088138,1.088138 -1.804122,2.232537 -2.148236,3.432278 -0.344116,1.181142 -0.339524,2.357268 0.01389,3.529102 0.353408,1.171842 1.051052,2.278829 2.092685,3.320463 1.050934,1.050934 2.143799,1.781039 3.278442,2.190247 0.715632,0.246368 1.429351,0.356966 2.141285,0.333255 -0.649899,5.9e-5 -1.301219,-0.108457 -1.954197,-0.333254 -1.134643,-0.409207 -2.227502,-1.139321 -3.278436,-2.190255 -1.041633,-1.041633 -1.739277,-2.148621 -2.092691,-3.320455 -0.353415,-1.171834 -0.357999,-2.347966 -0.01388,-3.529108 0.344106,-1.199735 1.060098,-2.344141 2.148229,-3.432272 0.558021,-0.55802 1.134617,-1.032284 1.729839,-1.422896 0.551756,-0.365007 1.107839,-0.660847 1.667355,-0.894154 l -0.02668,-0.06833 c -0.613819,0.241808 -1.223245,0.562566 -1.827764,0.962479 -0.59522,0.390613 -1.171818,0.864876 -1.729838,1.422896 z M 14.0074,40.718693 l 9.960645,9.960644 0.09354,-0.09354 -9.8671,-9.8671 2.636777,-2.636778 c 1.302045,-1.302045 2.506419,-1.99474 3.613157,-2.078444 0.08423,-0.0064 0.167086,-0.0042 0.250303,-0.0048 -0.144367,-0.0068 -0.289893,-0.0064 -0.437398,0.0048 -1.106731,0.0837 -2.311104,0.776393 -3.613149,2.078438 z m 18.595959,-18.59596 9.960645,9.960645 0.09354,-0.09354 -9.8671,-9.8671 2.63678,-2.63678 c 1.302038,-1.302039 2.506411,-1.994734 3.61315,-2.078438 0.08546,-0.0065 0.169546,-0.0043 0.253954,-0.0047 -0.145455,-0.007 -0.292403,-0.0065 -0.441042,0.0047 -1.106738,0.0837 -2.311112,0.7764 -3.61315,2.078438 z M 20.384861,37.791409 c 0.590742,0.02614 1.152986,0.301587 1.68599,0.834591 0.734724,0.734724 1.02302,1.488127 0.864915,2.260051 -0.158104,0.771925 -0.711418,1.632245 -1.660044,2.580871 l -0.910958,0.910959 0.09354,0.09354 1.004501,-1.004502 c 0.948634,-0.948633 1.50194,-1.808946 1.660044,-2.580871 0.158106,-0.771924 -0.130191,-1.525327 -0.864914,-2.26005 C 21.66897,38.037033 21.04433,37.761491 20.384861,37.791409 Z M 38.980815,19.195455 c 0.590749,0.02614 1.152986,0.301587 1.68599,0.834591 0.734724,0.734725 1.023027,1.48812 0.864922,2.260044 -0.158105,0.771925 -0.711418,1.632245 -1.660051,2.580879 l -0.910959,0.910958 0.09354,0.09354 1.004502,-1.004502 c 0.94864,-0.94864 1.501947,-1.808953 1.660051,-2.580878 0.158106,-0.771924 -0.130198,-1.52532 -0.864921,-2.260043 -0.588969,-0.588969 -1.213602,-0.864517 -1.873078,-0.834593 z m -7.507299,13.459789 1.115954,1.115955 0.09354,-0.09354 -1.022411,-1.022411 3.352252,-3.352252 -0.09354,-0.09354 z m 3.399755,-0.980757 2.864064,2.864064 c -0.186004,0.316211 -0.40938,0.651096 -0.669794,1.004507 -0.260406,0.353405 -0.609052,0.748636 -1.046165,1.185748 -0.892828,0.892828 -1.781025,1.446507 -2.664551,1.660411 -0.302363,0.06929 -0.603029,0.10436 -0.902194,0.110722 0.360755,0.0082 0.723856,-0.02698 1.089282,-0.110721 0.883525,-0.213904 1.771723,-0.767582 2.664551,-1.660411 0.437112,-0.437112 0.785758,-0.832342 1.046165,-1.185747 0.260413,-0.353412 0.48379,-0.688296 0.669794,-1.004508 l -2.957609,-2.957608 z" /><path
     id="path19"
     style="font-size:18.1108px;line-height:1.25;display:inline;opacity:0.1;mix-blend-mode:multiply;fill:#000000;fill-opacity:1;stroke-width:0.932081;stroke-linecap:round;paint-order:stroke markers fill"
     d="m 30.364444,25.162271 0.587205,1.494154 c -0.511517,0.195308 -1.046487,0.460683 -1.604502,0.79549 -0.548716,0.325508 -1.060036,0.725323 -1.534349,1.199636 -1.190443,1.190443 -1.762452,2.478803 -1.715952,3.864549 0.0558,1.37644 0.706864,2.687371 1.953104,3.933611 0.790526,0.790526 1.61838,1.367131 2.483307,1.729842 0.572492,0.227764 1.150975,0.332725 1.735691,0.320092 -0.521123,-0.01164 -1.037232,-0.11665 -1.548603,-0.32009 -0.864928,-0.362713 -1.692781,-0.939317 -2.483307,-1.729842 -1.24624,-1.24624 -1.8973,-2.557172 -1.953105,-3.933612 -0.0465,-1.385747 0.525517,-2.674113 1.715953,-3.864548 0.474313,-0.474313 0.985636,-0.874126 1.534349,-1.199637 0.558021,-0.334814 1.092985,-0.600182 1.604502,-0.795489 l -0.613885,-1.562483 c -0.05357,0.0211 -0.106914,0.04602 -0.160407,0.06833 z m -9.85395,10.836164 c 0.937835,0.04521 1.809522,0.469202 2.614859,1.274538 0.548718,0.548718 0.93935,1.190614 1.171858,1.925337 0.232513,0.716118 0.204634,1.515369 -0.08367,2.398895 -0.279015,0.874233 -0.915954,1.80901 -1.911086,2.804142 l -1.144092,1.144092 3.878436,3.878436 -1.161994,1.161994 0.09354,0.09354 1.255537,-1.255537 -3.878435,-3.878436 1.144091,-1.144091 c 0.995133,-0.995133 1.632071,-1.929909 1.911087,-2.804143 0.288305,-0.883526 0.316185,-1.682777 0.08368,-2.398902 -0.232515,-0.734716 -0.623148,-1.376612 -1.171865,-1.925329 -0.858418,-0.858418 -1.792986,-1.279754 -2.801947,-1.27454 z M 39.106448,17.402481 c 0.937835,0.04521 1.809522,0.469202 2.614859,1.274539 0.548718,0.548717 0.939357,1.190606 1.171865,1.92533 0.232506,0.716124 0.204633,1.515368 -0.08368,2.398901 -0.279008,0.874227 -0.915947,1.809003 -1.911087,2.804142 l -1.144084,1.144085 3.878436,3.878436 -1.161996,1.161996 0.09354,0.09354 1.255539,-1.255539 -3.878436,-3.878436 1.144092,-1.144091 c 0.995133,-0.995133 1.632071,-1.929909 1.911079,-2.804135 0.288312,-0.883534 0.316554,-1.683145 0.08404,-2.399263 -0.232507,-0.734723 -0.623508,-1.376252 -1.172225,-1.924969 -0.858418,-0.858418 -1.792986,-1.279754 -2.801947,-1.27454 z m -22.956363,23.134682 3.933978,3.933978 0.09354,-0.09354 -3.840433,-3.840434 1.269426,-1.269426 c 0.88353,-0.88353 1.688098,-1.371921 2.413518,-1.46492 0.05967,-0.0077 0.118879,-0.0087 0.177952,-0.01133 -0.120569,-0.0053 -0.242096,-0.0044 -0.36504,0.01132 -0.72542,0.093 -1.529988,0.58139 -2.413518,1.46492 z m 18.595961,-18.595961 3.933978,3.933978 0.09354,-0.09354 -3.840434,-3.840434 1.269427,-1.269426 c 0.88353,-0.88353 1.688091,-1.371914 2.413511,-1.464913 0.05967,-0.0077 0.118879,-0.0087 0.177959,-0.01133 -0.120569,-0.0053 -0.242103,-0.0044 -0.365047,0.01133 -0.725427,0.09301 -1.529988,0.581391 -2.413518,1.464921 z m 0.08002,7.361866 4.789032,4.789032 c -0.362711,0.716122 -0.77664,1.390473 -1.241658,2.022899 -0.46502,0.632424 -1.046567,1.297237 -1.744093,1.994762 -1.032333,1.032334 -2.106127,1.697514 -3.222164,1.995125 -0.415564,0.106465 -0.832127,0.165898 -1.24896,0.179777 0.479387,-4.6e-5 0.958341,-0.05739 1.436048,-0.179776 1.116037,-0.297611 2.189837,-0.962799 3.22217,-1.995132 0.697519,-0.697518 1.279071,-1.36234 1.744086,-1.994755 0.465019,-0.632425 0.878947,-1.306778 1.241658,-2.022899 l -4.882576,-4.882576 z m -2.329842,4.374663 0.09354,0.09354 2.096706,-2.096706 -0.09354,-0.09354 z" /><g
     id="g6"
     transform="translate(85.883173,7.3540218)"
     style="display:inline;opacity:0.2"><path
       style="color:#000000;opacity:1;fill:url(#linearGradient2);stroke-linecap:round;stroke-linejoin:round;-inkscape-stroke:none;paint-order:fill markers stroke"
       d="m -45.103516,-2.0761719 c -1.412459,0.022624 -2.81951,0.2210764 -4.173828,0.6074219 -2.310057,0.63748736 -4.33942,1.82200828 -6.24414,3.3027344 -0.0027,0.00181 -0.0053,0.00377 -0.0078,0.00586 -0.53311,0.4989516 -1.192956,0.6046019 -1.851575,0.4765619 -0.65862,-0.1280401 -1.309633,-0.4951923 -1.789063,-0.9414063 7e-6,-6.5e-4 7e-6,-0.0013 0,-0.00195 -1.92218,-1.72129124 -4.412057,-2.7696958 -6.880859,-3.0859375 h -0.002 c -4.9035,-0.6877431 -10.235966,1.27387762 -13.179688,5.2988281 -3.304823,4.2411549 -3.893212,10.5329164 -1.191406,15.2851564 4.2e-4,8.17e-4 0.0015,0.0011 0.002,0.002 3.05e-4,5.36e-4 -3.05e-4,0.0014 0,0.002 0.639169,1.242315 1.587968,2.276563 2.347656,3.398437 0.313833,0.736325 0.173577,1.430699 -0.158203,2.095704 -0.332663,0.666775 -0.857954,1.294833 -1.291015,1.865234 -6.77e-4,6.56e-4 -0.0013,0.0013 -0.002,0.002 -3.679906,5.367856 -3.762348,12.907901 -0.183593,18.349609 1.049566,1.634252 2.388253,3.076168 3.875,4.166016 2.698904,1.99757 6.024168,2.754461 9.222656,3.154297 2.678157,0.298849 5.513154,0.440058 8.060547,-0.679688 l -0.0059,0.0039 c 2.890705,-1.041862 6.036673,-2.342341 9.080079,-1.31836 3.148337,1.031562 5.182957,4.089875 5.910156,7.216797 6.35e-4,0.0013 0.0013,0.0026 0.002,0.0039 0.409077,1.47531 0.638938,2.998679 0.738281,4.527344 0.0038,0.07855 0.09935,0.114844 0.154297,0.05859 8.034106,-8.014547 16.059508,-16.036363 24.078125,-24.066406 0.05625,-0.05494 0.01995,-0.150538 -0.05859,-0.154297 -3.671376,-0.174429 -7.648301,-1.087576 -10.15039,-3.947266 -2.298509,-2.761393 -2.390812,-6.782794 -1.138672,-10.037109 7.35e-4,-0.0019 0.0014,-0.0039 0.002,-0.0059 1.055347,-3.315745 2.34578,-6.76329 1.818359,-10.335937 -0.336891,-3.6436256 -1.88133,-7.2168816 -4.294922,-9.8652343 -0.347748,-0.386296 -0.71879,-0.7464355 -1.097656,-1.0976562 -0.0031,-0.00283 -0.0064,-0.00544 -0.0098,-0.00781 -3.064904,-2.82634296 -7.346925,-4.345149 -11.580079,-4.2773438 z m 0.002,0.1796875 c 4.192007,-0.065874 8.4372,1.44150443 11.464843,4.2382813 0.0031,0.00283 0.0064,0.00544 0.0098,0.00781 0.373798,0.3467643 0.738675,0.699094 1.078125,1.0761719 -7e-6,6.5e-4 -7e-6,0.0013 0,0.00195 2.386367,2.6184795 3.917921,6.1594324 4.25,9.7656242 -6.4e-5,0.002 -6.4e-5,0.0039 0,0.0059 0.518756,3.513953 -0.755257,6.932202 -1.8125,10.253906 -1.269645,3.303255 -1.180132,7.39046 1.171875,10.214844 2.509702,2.86839 6.451234,3.781501 10.095703,3.978515 -7.936643,7.947794 -15.880214,15.889652 -23.832031,23.822266 -0.106063,-1.476711 -0.318796,-2.949469 -0.714844,-4.378906 -0.738102,-3.173808 -2.802893,-6.292469 -6.029297,-7.34961 v 0.002 c -3.1223,-1.050526 -6.312554,0.278658 -9.197265,1.31836 -0.002,5.98e-4 -0.004,0.0013 -0.0059,0.002 -2.496529,1.097388 -5.296981,0.963848 -7.966797,0.666016 h -0.002 c -3.185319,-0.398325 -6.477709,-1.155005 -9.136719,-3.123047 -1.46721,-1.075528 -2.792102,-2.500983 -3.830078,-4.117188 7e-6,-6.67e-4 7e-6,-0.0013 0,-0.002 -3.53607,-5.376804 -3.454475,-12.844458 0.181641,-18.148437 0.428536,-0.564184 0.961081,-1.196049 1.306641,-1.888672 0.346209,-0.693927 0.503351,-1.45723 0.162109,-2.251953 -0.0027,-0.0055 -0.006,-0.01077 -0.0098,-0.01563 -0.771928,-1.142241 -1.719402,-2.173602 -2.345703,-3.392579 -6.35e-4,-0.0013 -0.0013,-0.0026 -0.002,-0.0039 -2.665631,-4.68474 -2.085485,-10.9095026 1.175781,-15.0917962 6.77e-4,-6.396e-4 0.0013,-0.00129 0.002,-0.00195 2.89933,-3.96425368 8.172172,-5.9060388 13.011719,-5.2265625 2.434744,0.3115212 4.893004,1.34856725 6.785156,3.0429687 0.502321,0.466913 1.177861,0.8504199 1.876954,0.9863281 0.699962,0.1360773 1.429443,0.017887 2.007812,-0.5234375 l -0.0059,0.00586 c 1.892527,-1.47124693 3.902598,-2.64201698 6.183593,-3.2714844 1.338374,-0.3817971 2.729618,-0.5796045 4.126954,-0.6015625 z"
       id="path4"
       sodipodi:nodetypes="ccccsccccccsccscccccccccccccccccccccccccccccccccccccccccccccsccccccccsccccc" /><path
       style="color:#000000;opacity:1;fill:url(#linearGradient5);stroke-linecap:round;stroke-linejoin:round;-inkscape-stroke:none;paint-order:fill markers stroke"
       d="m -70.462845,-0.33984375 c -3.45296,0.091569 -6.85208,2.00917595 -8.64844,4.99218745 -2.64978,4.1200776 -1.59733,9.9772093 2.06836,13.1347653 3.78824,3.477388 10.1533,3.254471 13.83594,-0.261718 l 0.002,-0.002 c 4.18511,-3.72269 4.29212,-10.9548783 0.23828,-14.8105464 -1.14636,-1.1335167 -2.54894,-2.00330725 -4.08203,-2.50781245 -1.10562,-0.4035023 -2.26308,-0.5754448 -3.41407,-0.5449219 z m 0.004,0.1816407 c 1.13008,-0.030842 2.26457,0.1359716 3.34765,0.53125 10e-4,6.824e-4 0.003,0.00133 0.004,0.00195 1.50658,0.495345 2.88615,1.35190845 4.01368,2.46679685 6.5e-4,6.603e-4 10e-4,0.00131 0.002,0.00195 3.97169,3.7775317 3.86714,10.9008652 -0.23438,14.5468752 -10e-4,6.35e-4 -0.003,0.0013 -0.004,0.002 -3.61064,3.449498 -9.88211,3.668951 -13.59375,0.259766 -6.6e-4,-6.77e-4 -0.001,-0.0013 -0.002,-0.002 -3.5957,-3.097231 -4.62896,-8.8678232 -2.03129,-12.9042943 1e-5,-6.5e-4 1e-5,-0.0013 0,-0.00195 1.76212,-2.9261434 5.10779,-4.80981815 8.49805,-4.90234365 z"
       id="path5"
       sodipodi:nodetypes="cccccccccsccscccccccss" /></g><path
     id="path1"
     style="display:inline;mix-blend-mode:color;fill:#0172bb;fill-opacity:1;stroke:none;stroke-width:0.544673;stroke-linecap:round;stroke-linejoin:round;stroke-dasharray:none;stroke-opacity:1;paint-order:stroke fill markers"
     d="M 54.538744,8.5609414 C 47.534491,1.5650075 36.327315,1.1337099 28.806054,7.5705794 22.398481,1.6249485 12.437123,1.8076102 6.2518368,7.9841594 0.0752881,14.169446 -0.1073742,24.130803 5.8382565,30.538377 c -6.4368691,7.521259 -6.0055449,18.728409 0.9903624,25.732689 4.1003151,4.092112 9.6455291,5.163232 15.5997911,5.412758 5.954264,0.249525 10.077479,-4.560893 14.523449,-1.747465 4.445975,2.813433 3.941943,12.094119 3.941943,12.094119 l 1.236763,1.208888 7.015727,-7.015726 18.384985,18.384985 6.614486,-1.196156 3.945925,3.945924 3.945924,3.945925 -1.196161,6.614483 2.473523,2.473519 6.614876,-1.195769 3.945932,3.945939 3.945917,3.94591 -1.196154,6.61449 3.209918,3.20992 3.755257,0.19027 3.94632,3.94632 3.94592,3.94593 0.19067,3.75565 4.83638,4.83637 13.86905,-1.47598 3.83606,-3.83606 0.31804,-7.35487 -70.041832,-70.041836 7.01533,-7.01533 -1.208502,-1.23715 c 0,0 -9.500743,0.738083 -12.094117,-3.941943 -2.59337,-4.680025 1.210722,-8.826173 1.747464,-14.523449 C 60.488241,18.463454 58.630878,12.661233 54.538744,8.5609414 Z M 21.176129,11.710355 c 3.09219,3.092292 3.09219,8.105803 -1e-6,11.198095 -3.092293,3.09219 -8.105803,3.09219 -11.1980952,0 -3.0921894,-3.092292 -3.09219,-8.105802 5e-7,-11.198095 3.0922927,-3.0921896 8.1058037,-3.0921896 11.1980957,0 z" /><path
     id="path37897"
     style="display:inline;opacity:0.4;mix-blend-mode:screen;fill:url(#linearGradient38665);fill-opacity:1;stroke-width:6.46499;stroke-linecap:round;stroke-linejoin:round;paint-order:fill markers stroke;filter:url(#filter25471)"
     d="m 66.244019,60.947184 v 5.726782 h 23.015132 l 2.782259,-4.539774 h 5.651852 5.651858 l 2.78226,4.539774 h 3.62251 l 2.78277,-4.539774 h 5.65186 5.65185 l 2.78226,4.539774 h 5.01623 l 1.38854,-1.78387 h 5.65237 5.65186 l 1.38854,1.78387 h 6.41873 c 1.54166,-1.908852 3.08337,-3.81793 4.62504,-5.726782 z"
     sodipodi:nodetypes="cccccccccccccccccccc"
     transform="matrix(0.77028424,0.77028424,-0.77028424,0.77028424,51.108705,-36.161782)" /></g><metadata
   id="metadata1"><rdf:RDF><cc:Work
       rdf:about=""><dc:creator><cc:Agent><dc:title>Jess Tipton</dc:title></cc:Agent></dc:creator><dc:publisher><cc:Agent><dc:title>m0dw3rks.com</dc:title></cc:Agent></dc:publisher><cc:license
         rdf:resource="https://creativecommons.org/licenses/by-nc-nd/4.0/deed.en" /></cc:Work></rdf:RDF></metadata><metadata
   id="metadata6"><rdf:RDF><cc:Work
       rdf:about=""><dc:creator><cc:Agent><dc:title>Jess Tipton</dc:title></cc:Agent></dc:creator><cc:license
         rdf:resource="https://creativecommons.org/licenses/by-nc-nd/4.0/deed.en" /><dc:publisher><cc:Agent><dc:title>m0dw3rks.com</dc:title></cc:Agent></dc:publisher></cc:Work></rdf:RDF></metadata><metadata
   id="metadata2"><rdf:RDF><cc:Work
       rdf:about=""><dc:creator><cc:Agent><dc:title>Jess Tipton</dc:title></cc:Agent></dc:creator><cc:license
         rdf:resource="https://creativecommons.org/licenses/by-nc-nd/4.0/deed.en" /><dc:publisher><cc:Agent><dc:title>m0dw3rks.com</dc:title></cc:Agent></dc:publisher></cc:Work></rdf:RDF></metadata><metadata
   id="metadata3"><rdf:RDF><cc:Work
       rdf:about=""><dc:creator><cc:Agent><dc:title>Jess Tipton</dc:title></cc:Agent></dc:creator><cc:license
         rdf:resource="https://creativecommons.org/licenses/by-nc-nd/4.0/deed.en" /><dc:publisher><cc:Agent><dc:title>m0dw3rks.com</dc:title></cc:Agent></dc:publisher></cc:Work></rdf:RDF></metadata><metadata
   id="metadata4"><rdf:RDF><cc:Work
       rdf:about=""><dc:creator><cc:Agent><dc:title>Jess Tipton</dc:title></cc:Agent></dc:creator><cc:license
         rdf:resource="https://creativecommons.org/licenses/by-nc-nd/4.0/deed.en" /><dc:publisher><cc:Agent><dc:title>m0dw3rks.com</dc:title></cc:Agent></dc:publisher></cc:Work></rdf:RDF></metadata><metadata
   id="metadata5"><rdf:RDF><cc:Work
       rdf:about=""><dc:creator><cc:Agent><dc:title>Jess Tipton</dc:title></cc:Agent></dc:creator><cc:license
         rdf:resource="https://creativecommons.org/licenses/by-nc-nd/4.0/deed.en" /><dc:publisher><cc:Agent><dc:title>m0dw3rks.com</dc:title></cc:Agent></dc:publisher></cc:Work></rdf:RDF></metadata><metadata
   id="metadata7"><rdf:RDF><cc:Work
       rdf:about=""><dc:creator><cc:Agent><dc:title>Jess Tipton</dc:title></cc:Agent></dc:creator><cc:license
         rdf:resource="https://creativecommons.org/licenses/by-nc-nd/4.0/deed.en" /><dc:publisher><cc:Agent><dc:title>m0dw3rks.com</dc:title></cc:Agent></dc:publisher></cc:Work></rdf:RDF></metadata><metadata
   id="metadata8"><rdf:RDF><cc:Work
       rdf:about=""><dc:creator><cc:Agent><dc:title>Jess Tipton</dc:title></cc:Agent></dc:creator><cc:license
         rdf:resource="https://creativecommons.org/licenses/by-nc-nd/4.0/deed.en" /><dc:publisher><cc:Agent><dc:title>m0dw3rks.com</dc:title></cc:Agent></dc:publisher></cc:Work></rdf:RDF></metadata><metadata
   id="metadata9"><rdf:RDF><cc:Work
       rdf:about=""><dc:creator><cc:Agent><dc:title>Jess Tipton</dc:title></cc:Agent></dc:creator><cc:license
         rdf:resource="https://creativecommons.org/licenses/by-nc-nd/4.0/deed.en" /><dc:publisher><cc:Agent><dc:title>m0dw3rks.com</dc:title></cc:Agent></dc:publisher></cc:Work></rdf:RDF></metadata><metadata
   id="metadata10"><rdf:RDF><cc:Work
       rdf:about=""><dc:creator><cc:Agent><dc:title>Jess Tipton</dc:title></cc:Agent></dc:creator><cc:license
         rdf:resource="https://creativecommons.org/licenses/by-nc-nd/4.0/deed.en" /><dc:publisher><cc:Agent><dc:title>m0dw3rks.com</dc:title></cc:Agent></dc:publisher></cc:Work></rdf:RDF></metadata><metadata
   id="metadata11"><rdf:RDF><cc:Work
       rdf:about=""><dc:creator><cc:Agent><dc:title>Jess Tipton</dc:title></cc:Agent></dc:creator><cc:license
         rdf:resource="https://creativecommons.org/licenses/by-nc-nd/4.0/deed.en" /><dc:publisher><cc:Agent><dc:title>m0dw3rks.com</dc:title></cc:Agent></dc:publisher></cc:Work></rdf:RDF></metadata><metadata
   id="metadata12"><rdf:RDF><cc:Work
       rdf:about=""><dc:creator><cc:Agent><dc:title>Jess Tipton</dc:title></cc:Agent></dc:creator><cc:license
         rdf:resource="https://creativecommons.org/licenses/by-nc-nd/4.0/deed.en" /><dc:publisher><cc:Agent><dc:title>m0dw3rks.com</dc:title></cc:Agent></dc:publisher></cc:Work></rdf:RDF></metadata><metadata
   id="metadata13"><rdf:RDF><cc:Work
       rdf:about=""><dc:creator><cc:Agent><dc:title>Jess Tipton</dc:title></cc:Agent></dc:creator><cc:license
         rdf:resource="https://creativecommons.org/licenses/by-nc-nd/4.0/deed.en" /><dc:publisher><cc:Agent><dc:title>m0dw3rks.com</dc:title></cc:Agent></dc:publisher></cc:Work></rdf:RDF></metadata><metadata
   id="metadata14"><rdf:RDF><cc:Work
       rdf:about=""><dc:creator><cc:Agent><dc:title>Jess Tipton</dc:title></cc:Agent></dc:creator><cc:license
         rdf:resource="https://creativecommons.org/licenses/by-nc-nd/4.0/deed.en" /><dc:publisher><cc:Agent><dc:title>m0dw3rks.com</dc:title></cc:Agent></dc:publisher></cc:Work></rdf:RDF></metadata><metadata
   id="metadata15"><rdf:RDF><cc:Work
       rdf:about=""><dc:creator><cc:Agent><dc:title>Jess Tipton</dc:title></cc:Agent></dc:creator><cc:license
         rdf:resource="https://creativecommons.org/licenses/by-nc-nd/4.0/deed.en" /><dc:publisher><cc:Agent><dc:title>m0dw3rks.com</dc:title></cc:Agent></dc:publisher></cc:Work></rdf:RDF></metadata><metadata
   id="metadata16"><rdf:RDF><cc:Work
       rdf:about=""><dc:creator><cc:Agent><dc:title>Jess Tipton</dc:title></cc:Agent></dc:creator><cc:license
         rdf:resource="https://creativecommons.org/licenses/by-nc-nd/4.0/deed.en" /><dc:publisher><cc:Agent><dc:title>m0dw3rks.com</dc:title></cc:Agent></dc:publisher></cc:Work></rdf:RDF></metadata><metadata
   id="metadata17"><rdf:RDF><cc:Work
       rdf:about=""><dc:creator><cc:Agent><dc:title>Jess Tipton</dc:title></cc:Agent></dc:creator><cc:license
         rdf:resource="https://creativecommons.org/licenses/by-nc-nd/4.0/deed.en" /><dc:publisher><cc:Agent><dc:title>m0dw3rks.com</dc:title></cc:Agent></dc:publisher></cc:Work></rdf:RDF></metadata><metadata
   id="metadata18"><rdf:RDF><cc:Work
       rdf:about=""><dc:creator><cc:Agent><dc:title>Jess Tipton</dc:title></cc:Agent></dc:creator><cc:license
         rdf:resource="https://creativecommons.org/licenses/by-nc-nd/4.0/deed.en" /><dc:publisher><cc:Agent><dc:title>m0dw3rks.com</dc:title></cc:Agent></dc:publisher></cc:Work></rdf:RDF></metadata></svg>
