<?xml version="1.0" encoding="UTF-8" standalone="no"?>
<!-- Created with Inkscape (http://www.inkscape.org/) -->

<svg
   width="512"
   height="512"
   viewBox="0 0 135.46666 135.46667"
   version="1.1"
   id="svg5"
   inkscape:version="1.4.2 (ebf0e940d0, 2025-05-08)"
   sodipodi:docname="application-x-atari-7800-rom.svg"
   xmlns:inkscape="http://www.inkscape.org/namespaces/inkscape"
   xmlns:sodipodi="http://sodipodi.sourceforge.net/DTD/sodipodi-0.dtd"
   xmlns:xlink="http://www.w3.org/1999/xlink"
   xmlns="http://www.w3.org/2000/svg"
   xmlns:svg="http://www.w3.org/2000/svg">
  <sodipodi:namedview
     id="namedview7"
     pagecolor="#242424"
     bordercolor="#666666"
     borderopacity="1"
     inkscape:showpageshadow="0"
     inkscape:pageopacity="0"
     inkscape:pagecheckerboard="1"
     inkscape:deskcolor="#000000"
     inkscape:document-units="px"
     showgrid="false"
     inkscape:zoom="3.6875002"
     inkscape:cx="154.16948"
     inkscape:cy="103.18644"
     inkscape:window-width="3256"
     inkscape:window-height="1080"
     inkscape:window-x="1864"
     inkscape:window-y="0"
     inkscape:window-maximized="0"
     inkscape:current-layer="layer1" />
  <defs
     id="defs2">
    <linearGradient
       id="linearGradient26"
       inkscape:collect="always">
      <stop
         style="stop-color:#ffffff;stop-opacity:0;"
         offset="0"
         id="stop27" />
      <stop
         style="stop-color:#ffffff;stop-opacity:1;"
         offset="1"
         id="stop26" />
    </linearGradient>
    <linearGradient
       id="linearGradient24"
       inkscape:collect="always">
      <stop
         style="stop-color:#ffffff;stop-opacity:0;"
         offset="0"
         id="stop25" />
      <stop
         style="stop-color:#ffffff;stop-opacity:1;"
         offset="1"
         id="stop24" />
    </linearGradient>
    <linearGradient
       id="linearGradient8"
       inkscape:collect="always">
      <stop
         style="stop-color:#474747;stop-opacity:1;"
         offset="0"
         id="stop10" />
      <stop
         style="stop-color:#818181;stop-opacity:1;"
         offset="1"
         id="stop19" />
    </linearGradient>
    <linearGradient
       id="linearGradient30"
       inkscape:collect="always">
      <stop
         style="stop-color:#ffffff;stop-opacity:1;"
         offset="0"
         id="stop30" />
      <stop
         style="stop-color:#000000;stop-opacity:1"
         offset="1"
         id="stop31" />
    </linearGradient>
    <linearGradient
       id="linearGradient17"
       inkscape:collect="always">
      <stop
         style="stop-color:#18001d;stop-opacity:1;"
         offset="0"
         id="stop17" />
      <stop
         style="stop-color:#04002a;stop-opacity:1;"
         offset="1"
         id="stop18" />
    </linearGradient>
    <inkscape:path-effect
       effect="fillet_chamfer"
       id="path-effect16"
       is_visible="true"
       lpeversion="1"
       nodesatellites_param="F,0,1,1,0,3,0,1 @ F,0,1,1,0,3,0,1 @ F,0,1,1,0,3,0,1 @ F,0,0,1,0,0,0,1"
       radius="3"
       unit="px"
       method="auto"
       mode="F"
       chamfer_steps="1"
       flexible="false"
       use_knot_distance="true"
       apply_no_radius="true"
       apply_with_radius="true"
       only_selected="true"
       hide_knots="false" />
    <linearGradient
       id="linearGradient15"
       inkscape:collect="always">
      <stop
         style="stop-color:#ffffff;stop-opacity:1;"
         offset="0"
         id="stop15" />
      <stop
         style="stop-color:#a1a1a1;stop-opacity:0;"
         offset="1"
         id="stop16" />
    </linearGradient>
    <linearGradient
       id="linearGradient11"
       inkscape:collect="always">
      <stop
         style="stop-color:#aa0000;stop-opacity:1;"
         offset="0"
         id="stop11" />
      <stop
         style="stop-color:#0000ff;stop-opacity:1;"
         offset="0.34709549"
         id="stop13" />
      <stop
         style="stop-color:#00ff00;stop-opacity:1;"
         offset="0.64983618"
         id="stop14" />
      <stop
         style="stop-color:#ffb300;stop-opacity:1;"
         offset="1"
         id="stop12" />
    </linearGradient>
    <linearGradient
       id="linearGradient4"
       inkscape:collect="always">
      <stop
         style="stop-color:#bfbfbf;stop-opacity:1;"
         offset="0"
         id="stop5" />
      <stop
         style="stop-color:#8c8c8c;stop-opacity:1;"
         offset="0.22248544"
         id="stop8" />
      <stop
         style="stop-color:#b2b2b2;stop-opacity:1;"
         offset="0.48224589"
         id="stop7" />
      <stop
         style="stop-color:#808080;stop-opacity:1;"
         offset="0.70999998"
         id="stop9" />
      <stop
         style="stop-color:#b2b2b2;stop-opacity:1;"
         offset="1"
         id="stop6" />
    </linearGradient>
    <linearGradient
       id="linearGradient1"
       inkscape:collect="always">
      <stop
         style="stop-color:#000000;stop-opacity:1;"
         offset="0"
         id="stop1" />
      <stop
         style="stop-color:#0f0f0f;stop-opacity:1;"
         offset="0.05"
         id="stop4" />
      <stop
         style="stop-color:#0f0f0f;stop-opacity:1;"
         offset="0.94999999"
         id="stop3" />
      <stop
         style="stop-color:#000000;stop-opacity:1;"
         offset="1"
         id="stop2" />
    </linearGradient>
    <linearGradient
       inkscape:collect="always"
       xlink:href="#linearGradient1"
       id="linearGradient2"
       x1="0"
       y1="67.73333"
       x2="120.85951"
       y2="67.73333"
       gradientUnits="userSpaceOnUse"
       gradientTransform="translate(7.3035763)" />
    <linearGradient
       inkscape:collect="always"
       xlink:href="#linearGradient11"
       id="linearGradient12"
       x1="13.649161"
       y1="53.281837"
       x2="121.8175"
       y2="53.281837"
       gradientUnits="userSpaceOnUse"
       gradientTransform="matrix(0.67443541,0,0,0.57985374,22.051576,3.0382792)" />
    <linearGradient
       inkscape:collect="always"
       xlink:href="#linearGradient15"
       id="linearGradient16"
       x1="15.266311"
       y1="125.92345"
       x2="87.322128"
       y2="39.60043"
       gradientUnits="userSpaceOnUse"
       gradientTransform="rotate(180,67.732773,67.595655)" />
    <linearGradient
       inkscape:collect="always"
       xlink:href="#linearGradient17"
       id="linearGradient18"
       x1="31.257053"
       y1="105.24306"
       x2="104.20961"
       y2="65.517105"
       gradientUnits="userSpaceOnUse"
       gradientTransform="matrix(1,0,0,1.3205707,0,-40.395236)" />
    <linearGradient
       inkscape:collect="always"
       xlink:href="#linearGradient30"
       id="linearGradient31"
       x1="67.73333"
       y1="2.7270507e-06"
       x2="71.894783"
       y2="135.46666"
       gradientUnits="userSpaceOnUse"
       gradientTransform="translate(-164.04171)" />
    <clipPath
       clipPathUnits="userSpaceOnUse"
       id="clipPath36">
      <path
         style="color:#000000;fill:#000000;stroke-width:0.999998;stroke-linecap:round;stroke-linejoin:round;stroke-dashoffset:149.514;-inkscape-stroke:none;paint-order:markers stroke fill"
         d="M -156.73813,2.7270506e-6 H -35.878619 V 135.46666 H -156.73813 Z"
         id="path37" />
    </clipPath>
    <filter
       inkscape:collect="always"
       style="color-interpolation-filters:sRGB"
       id="filter37"
       x="-0.018760951"
       y="-0.016748316"
       width="1.0375219"
       height="1.0334966">
      <feGaussianBlur
         inkscape:collect="always"
         stdDeviation="0.9500203"
         id="feGaussianBlur37" />
    </filter>
    <filter
       style="color-interpolation-filters:sRGB;"
       inkscape:label="Noise Fill"
       id="filter38"
       x="0"
       y="0"
       width="1"
       height="1">
      <feTurbulence
         type="fractalNoise"
         baseFrequency="3 3"
         numOctaves="4"
         seed="2"
         result="turbulence"
         id="feTurbulence37" />
      <feComposite
         in="SourceGraphic"
         in2="turbulence"
         operator="out"
         result="composite1"
         id="feComposite37" />
      <feColorMatrix
         values="1 0 0 0 0 0 1 0 0 0 0 0 1 0 0 0 0 0 4 -1 "
         result="color"
         id="feColorMatrix37" />
      <feFlood
         flood-opacity="1"
         flood-color="rgb(255,255,255)"
         result="flood"
         id="feFlood37" />
      <feMerge
         result="merge"
         id="feMerge38">
        <feMergeNode
           in="flood"
           id="feMergeNode37" />
        <feMergeNode
           in="color"
           id="feMergeNode38" />
      </feMerge>
      <feComposite
         in2="SourceGraphic"
         operator="in"
         result="composite2"
         id="feComposite38" />
    </filter>
    <linearGradient
       inkscape:collect="always"
       xlink:href="#linearGradient8"
       id="linearGradient19"
       x1="120.22559"
       y1="103.46553"
       x2="120.22559"
       y2="130.30057"
       gradientUnits="userSpaceOnUse"
       gradientTransform="matrix(1,0,0,0.63985304,0,36.88164)" />
    <filter
       inkscape:collect="always"
       style="color-interpolation-filters:sRGB"
       id="filter22"
       x="-0.080360237"
       y="-2.9919154"
       width="1.1607205"
       height="6.9838308">
      <feGaussianBlur
         inkscape:collect="always"
         stdDeviation="0.20895391"
         id="feGaussianBlur22" />
    </filter>
    <filter
       inkscape:collect="always"
       style="color-interpolation-filters:sRGB"
       id="filter33"
       x="-0.080360237"
       y="-2.9919154"
       width="1.1607205"
       height="6.9838308">
      <feGaussianBlur
         inkscape:collect="always"
         stdDeviation="0.20895391"
         id="feGaussianBlur33" />
    </filter>
    <clipPath
       clipPathUnits="userSpaceOnUse"
       id="clipPath39">
      <path
         style="baseline-shift:baseline;display:inline;overflow:visible;vector-effect:none;fill:#aa4400;stroke-width:1;stroke-linecap:round;stroke-linejoin:round;stroke-miterlimit:12;paint-order:markers stroke fill;enable-background:accumulate;stop-color:#000000"
         d="M 174.35593,57.043576 A 19.44463,19.158831 0 0 1 154.9113,76.202407 19.44463,19.158831 0 0 1 135.46667,57.043576 19.44463,19.158831 0 0 1 154.9113,37.884745 19.44463,19.158831 0 0 1 174.35593,57.043576 Z"
         id="path40" />
    </clipPath>
    <filter
       inkscape:collect="always"
       style="color-interpolation-filters:sRGB"
       id="filter40"
       x="-0.19083599"
       y="-0.19317831"
       width="1.381672"
       height="1.3863566">
      <feGaussianBlur
         inkscape:collect="always"
         stdDeviation="3.7656249"
         id="feGaussianBlur40" />
    </filter>
    <filter
       id="mask-powermask-path-effect42_inverse"
       inkscape:label="filtermask-powermask-path-effect42"
       style="color-interpolation-filters:sRGB"
       height="100"
       width="100"
       x="-50"
       y="-50">
      <feColorMatrix
         id="mask-powermask-path-effect42_primitive1"
         values="1"
         type="saturate"
         result="fbSourceGraphic" />
      <feColorMatrix
         id="mask-powermask-path-effect42_primitive2"
         values="-1 0 0 0 1 0 -1 0 0 1 0 0 -1 0 1 0 0 0 1 0 "
         in="fbSourceGraphic" />
    </filter>
    <clipPath
       clipPathUnits="userSpaceOnUse"
       id="clipPath42">
      <rect
         style="display:inline;opacity:1;fill:url(#linearGradient42);stroke-width:4.43648;stroke-linecap:round;stroke-linejoin:round;stroke-dashoffset:149.514;paint-order:markers stroke fill"
         id="rect42"
         width="72.95256"
         height="80.952385"
         x="91.686806"
         y="48.063766" />
    </clipPath>
    <linearGradient
       inkscape:collect="always"
       xlink:href="#linearGradient17"
       id="linearGradient42"
       gradientUnits="userSpaceOnUse"
       gradientTransform="matrix(1,0,0,1.3205707,60.429756,-27.406843)"
       x1="31.257053"
       y1="105.24306"
       x2="104.20961"
       y2="65.517105" />
    <clipPath
       clipPathUnits="userSpaceOnUse"
       id="clipPath43">
      <rect
         style="display:inline;opacity:1;fill:url(#linearGradient43);stroke-width:4.43648;stroke-linecap:round;stroke-linejoin:round;stroke-dashoffset:149.514;paint-order:markers stroke fill"
         id="rect43"
         width="72.95256"
         height="80.952385"
         x="91.686806"
         y="48.063766" />
    </clipPath>
    <linearGradient
       inkscape:collect="always"
       xlink:href="#linearGradient17"
       id="linearGradient43"
       gradientUnits="userSpaceOnUse"
       gradientTransform="matrix(1,0,0,1.3205707,60.429756,-27.406843)"
       x1="31.257053"
       y1="105.24306"
       x2="104.20961"
       y2="65.517105" />
    <clipPath
       clipPathUnits="userSpaceOnUse"
       id="clipPath44">
      <path
         style="baseline-shift:baseline;display:inline;overflow:visible;vector-effect:none;fill:#aa4400;stroke-linecap:round;stroke-linejoin:round;stroke-miterlimit:12;paint-order:markers stroke fill;enable-background:accumulate;stop-color:#000000"
         d="M 174.35593,57.043575 A 19.44463,19.158831 0 0 1 154.9113,76.202406 19.44463,19.158831 0 0 1 135.46667,57.043575 19.44463,19.158831 0 0 1 154.9113,37.884745 19.44463,19.158831 0 0 1 174.35593,57.043575 Z"
         id="path44"
         clip-path="url(#clipPath42)" />
    </clipPath>
    <filter
       inkscape:label="Frost"
       inkscape:menu="Overlays"
       inkscape:menu-tooltip="Flake-like white splotches"
       style="color-interpolation-filters:sRGB;"
       id="filter14"
       x="-0.06942791"
       y="-0.070463592"
       width="1.1388558"
       height="1.1409272">
      <feTurbulence
         type="fractalNoise"
         numOctaves="5"
         baseFrequency="0.143"
         id="feTurbulence12" />
      <feColorMatrix
         values="1 0 0 0 0 0 1 0 0 0 0 0 1 0 0 0 0 0 5 -3"
         id="feColorMatrix12" />
      <feComposite
         operator="in"
         in2="SourceAlpha"
         id="feComposite12" />
      <feMorphology
         operator="dilate"
         radius="2.7"
         result="result3"
         id="feMorphology12" />
      <feTurbulence
         numOctaves="2"
         baseFrequency="0.121"
         result="result91"
         id="feTurbulence13" />
      <feDisplacementMap
         in="result3"
         xChannelSelector="R"
         yChannelSelector="A"
         scale="10"
         result="result4"
         in2="result91"
         id="feDisplacementMap13" />
      <feFlood
         flood-opacity="1"
         flood-color="rgb(255,255,255)"
         id="feFlood13" />
      <feComposite
         result="result2"
         operator="in"
         in2="result4"
         id="feComposite13" />
      <feComposite
         in="result2"
         operator="over"
         in2="SourceGraphic"
         id="feComposite14" />
    </filter>
    <filter
       inkscape:label="Light Eraser Cracked"
       style="color-interpolation-filters:sRGB;"
       inkscape:menu-tooltip="Basic noise fill texture; adjust color in Flood"
       inkscape:menu="Overlays"
       id="filter18"
       x="0"
       y="0"
       width="1"
       height="1">
      <feColorMatrix
         result="fbSourceGraphic"
         type="luminanceToAlpha"
         in="SourceGraphic"
         id="feColorMatrix14" />
      <feColorMatrix
         result="result6"
         values="1 0 0 0 0 0 1 0 0 0 0 0 1 0 0 0 0 0 1 0 "
         id="feColorMatrix15" />
      <feComposite
         in2="result6"
         result="result2"
         operator="out"
         in="SourceGraphic"
         k2="0"
         k1="1"
         k3="0"
         id="feComposite15" />
      <feTurbulence
         type="fractalNoise"
         baseFrequency="0.04"
         numOctaves="5"
         id="feTurbulence15" />
      <feColorMatrix
         values="1 0 0 0 0 0 1 0 0 0 0 0 1 0 0 -1.5 0 0 4.5 -1 "
         result="result0"
         id="feColorMatrix16" />
      <feComposite
         in2="result0"
         in="result0"
         result="result4"
         operator="out"
         id="feComposite16" />
      <feColorMatrix
         values="1 0 0 0 0 0 1 0 0 0 0 0 1 0 0 0 0 0 5 -1 "
         result="result7"
         id="feColorMatrix17" />
      <feComposite
         in2="result2"
         operator="arithmetic"
         result="result5"
         k1="1.5"
         k3="1"
         id="feComposite17" />
      <feComposite
         in2="SourceGraphic"
         operator="in"
         in="result5"
         result="result8"
         id="feComposite18" />
    </filter>
    <filter
       inkscape:collect="always"
       style="color-interpolation-filters:sRGB"
       id="filter19"
       x="-0.057117561"
       y="-7.5445236"
       width="1.1142351"
       height="16.089047">
      <feGaussianBlur
         inkscape:collect="always"
         stdDeviation="0.74826273"
         id="feGaussianBlur19" />
    </filter>
    <linearGradient
       inkscape:collect="always"
       xlink:href="#linearGradient24"
       id="linearGradient25"
       x1="91.513367"
       y1="85.227228"
       x2="93.100867"
       y2="85.227228"
       gradientUnits="userSpaceOnUse"
       gradientTransform="matrix(4.1864408,0,0,1,-296.6604,0)" />
    <linearGradient
       inkscape:collect="always"
       xlink:href="#linearGradient26"
       id="linearGradient27"
       x1="68.944283"
       y1="85.227098"
       x2="70.531782"
       y2="85.227098"
       gradientUnits="userSpaceOnUse"
       gradientTransform="matrix(5.3389832,0,0,1,-306.03622,0)" />
    <filter
       inkscape:collect="always"
       style="color-interpolation-filters:sRGB"
       id="filter28"
       x="-0.13913466"
       y="-3.2437346"
       width="1.2782693"
       height="7.4874692">
      <feGaussianBlur
         inkscape:collect="always"
         stdDeviation="0.38528556"
         id="feGaussianBlur28" />
    </filter>
    <filter
       inkscape:collect="always"
       style="color-interpolation-filters:sRGB"
       id="filter29"
       x="-0.10909925"
       y="-3.2437346"
       width="1.2181985"
       height="7.4874692">
      <feGaussianBlur
         inkscape:collect="always"
         stdDeviation="0.38528556"
         id="feGaussianBlur29" />
    </filter>
    <linearGradient
       inkscape:collect="always"
       xlink:href="#linearGradient4"
       id="linearGradient7"
       gradientUnits="userSpaceOnUse"
       gradientTransform="translate(13.649207,-6.1548219)"
       x1="0"
       y1="12.309957"
       x2="108.16834"
       y2="135.46666" />
  </defs>
  <g
     inkscape:label="Layer 1"
     inkscape:groupmode="layer"
     id="layer1">
    <rect
       style="display:inline;opacity:1;fill:url(#linearGradient2);stroke-width:3.78354;stroke-linecap:round;stroke-linejoin:round;stroke-dashoffset:149.514;paint-order:markers stroke fill"
       id="rect1"
       width="120.85951"
       height="135.46666"
       x="7.3035765"
       y="2.7270507e-06" />
    <rect
       style="display:inline;opacity:0.8;mix-blend-mode:overlay;fill:#000000;fill-opacity:1;stroke-width:3.78354;stroke-linecap:round;stroke-linejoin:round;stroke-dashoffset:149.514;paint-order:markers stroke fill;filter:url(#filter38)"
       id="rect37"
       width="120.85951"
       height="135.46666"
       x="7.3035765"
       y="2.7270507e-06" />
    <path
       id="path35"
       clip-path="url(#clipPath36)"
       style="color:#000000;display:inline;opacity:0.2;fill:url(#linearGradient31);stroke-linecap:round;stroke-linejoin:round;stroke-dashoffset:149.514;-inkscape-stroke:none;paint-order:markers stroke fill;filter:url(#filter37)"
       d="m -36.396484,-0.31054688 c -40.123396,0.0136693 -80.247696,-0.005204 -120.371096,0.0117188 -0.51805,0.36417206 -0.19894,1.18623517 -0.27732,1.73593748 0.009,44.6956496 -0.008,89.3948496 0.0195,134.0882806 0.46187,0.5232 1.31417,0.13782 1.93398,0.24605 39.75508,-0.003 79.51016,-0.006 119.265238,-0.01 0.502574,-0.33026 0.173756,-1.11309 0.251946,-1.62344 -0.0072,-44.747762 0.0013,-89.496752 -0.01562,-134.24374871 -0.147471,-0.25437646 -0.557401,-0.23585996 -0.80664,-0.20507813 z M -154.19531,0.28710938 c 38.80857,0.0411401 77.617188,0.006263 116.425779,0.0175781 1.364627,0.16989947 1.772568,1.76116292 1.58789,2.92187502 0,43.4492185 0,86.8984375 0,130.3476575 -0.169899,1.36463 -1.761163,1.77257 -2.921875,1.58789 -38.580729,0 -77.161454,0 -115.742184,0 -1.36463,-0.1699 -1.77257,-1.76116 -1.58789,-2.92188 0,-43.449214 0,-86.898433 0,-130.3476519 0.11573,-1.06058858 1.25398,-1.6677543 2.23828,-1.60546872 z"
       transform="translate(164.04164,-6.345e-5)" />
    <rect
       style="opacity:1;fill:url(#linearGradient12);stroke-width:3.10719;stroke-linecap:round;stroke-linejoin:round;stroke-dashoffset:149.514;paint-order:markers stroke fill"
       id="rect11"
       width="72.95256"
       height="2.2828636"
       x="31.257053"
       y="32.792511"
       ry="0" />
    <text
       xml:space="preserve"
       style="font-style:normal;font-variant:normal;font-weight:normal;font-stretch:normal;font-size:10.5833px;line-height:1.25;font-family:'Adobe Gothic Std';-inkscape-font-specification:'Adobe Gothic Std, Normal';font-variant-ligatures:normal;font-variant-caps:normal;font-variant-numeric:normal;font-variant-east-asian:normal;display:none;fill:#ffffff;fill-opacity:1;stroke:none;stroke-width:0.264583"
       x="31.670862"
       y="68.336166"
       id="text14"
       transform="matrix(1.1429001,-0.2345156,-0.07458453,0.89027136,0,0)"
       sodipodi:insensitive="true"><tspan
         sodipodi:role="line"
         id="tspan14"
         style="font-style:normal;font-variant:normal;font-weight:normal;font-stretch:normal;font-size:10.5833px;font-family:'Adobe Gothic Std';-inkscape-font-specification:'Adobe Gothic Std, Normal';font-variant-ligatures:normal;font-variant-caps:normal;font-variant-numeric:normal;font-variant-east-asian:normal;fill:#ffffff;stroke-width:0.264583"
         x="0"
         y="0">T.P.*</tspan></text>
    <text
       xml:space="preserve"
       style="font-style:normal;font-variant:normal;font-weight:normal;font-stretch:normal;font-size:7.56014px;line-height:1.25;font-family:'Adobe Gothic Std';-inkscape-font-specification:'Adobe Gothic Std, Normal';font-variant-ligatures:normal;font-variant-caps:normal;font-variant-numeric:normal;font-variant-east-asian:normal;display:none;fill:#ffffff;fill-opacity:1;stroke:none;stroke-width:0.264583"
       x="65.140991"
       y="52.2323"
       id="text15"
       transform="skewX(-12.29972)"
       sodipodi:insensitive="true"><tspan
         sodipodi:role="line"
         id="tspan15"
         style="font-style:normal;font-variant:normal;font-weight:normal;font-stretch:normal;font-size:7.56014px;font-family:'Adobe Gothic Std';-inkscape-font-specification:'Adobe Gothic Std, Normal';font-variant-ligatures:normal;font-variant-caps:normal;font-variant-numeric:normal;font-variant-east-asian:normal;fill:#ffffff;stroke-width:0.264583"
         x="65.140991"
         y="52.2323">4-ur bunghole</tspan></text>
    <rect
       style="display:inline;opacity:1;fill:url(#linearGradient18);stroke-width:4.43647;stroke-linecap:round;stroke-linejoin:round;stroke-dashoffset:149.514;paint-order:markers stroke fill"
       id="rect16"
       width="72.95256"
       height="80.952385"
       x="31.257053"
       y="35.075375" />
    <g
       id="g44"
       transform="rotate(90,63.733419,75.551565)">
      <path
         style="baseline-shift:baseline;display:inline;overflow:visible;vector-effect:none;fill:#aa4400;stroke-linecap:round;stroke-linejoin:round;stroke-miterlimit:12;paint-order:markers stroke fill;enable-background:accumulate;stop-color:#000000;filter:url(#filter18)"
         d="M 174.35593,57.043575 A 19.44463,19.158831 0 0 1 154.9113,76.202406 19.44463,19.158831 0 0 1 135.46667,57.043575 19.44463,19.158831 0 0 1 154.9113,37.884745 19.44463,19.158831 0 0 1 174.35593,57.043575 Z"
         id="path39"
         clip-path="url(#clipPath42)"
         transform="translate(-60.429764,-12.988392)" />
      <path
         style="baseline-shift:baseline;display:inline;overflow:visible;vector-effect:none;stroke-linecap:round;stroke-linejoin:round;stroke-miterlimit:12;paint-order:markers stroke fill;filter:url(#filter40);enable-background:accumulate;stop-color:#000000;opacity:0.8"
         d="m 154.91211,33.652344 c -12.99321,0 -23.67969,10.487503 -23.67969,23.390625 0,12.903122 10.68648,23.392578 23.67969,23.392578 12.99321,0 23.67773,-10.489456 23.67773,-23.392578 0,-12.903122 -10.68452,-23.390625 -23.67773,-23.390625 z m 0,8.464843 c 8.48474,0 15.21094,6.666644 15.21094,14.925782 0,8.259138 -6.7262,14.925781 -15.21094,14.925781 -8.48474,0 -15.21289,-6.666643 -15.21289,-14.925781 0,-8.259138 6.72815,-14.925782 15.21289,-14.925782 z"
         id="path36"
         clip-path="url(#clipPath44)"
         transform="translate(-60.429764,-12.988392)" />
    </g>
    <text
       xml:space="preserve"
       style="font-style:normal;font-weight:normal;font-size:21.2392px;line-height:1.25;font-family:sans-serif;display:none;fill:#aa0000;fill-opacity:1;stroke:#aa0000;stroke-width:1.73809;stroke-dasharray:none;stroke-opacity:1"
       x="36.143349"
       y="29.283636"
       id="text2"
       sodipodi:insensitive="true"><tspan
         sodipodi:role="line"
         style="fill:#aa0000;stroke:#aa0000;stroke-width:1.73809;stroke-dasharray:none;stroke-opacity:1"
         x="0"
         y="0"
         id="tspan2">7800</tspan></text>
    <text
       xml:space="preserve"
       style="font-style:normal;font-weight:normal;font-size:5.29531px;line-height:1.25;font-family:sans-serif;display:none;fill:#000000;fill-opacity:1;stroke:none;stroke-width:0.264583"
       x="33.740105"
       y="123.68985"
       id="text3"
       sodipodi:insensitive="true"><tspan
         sodipodi:role="line"
         id="tspan3"
         style="stroke-width:0.264583"
         x="0"
         y="0">Use with Joystick Controller</tspan></text>
    <text
       xml:space="preserve"
       style="font-style:normal;font-variant:normal;font-weight:normal;font-stretch:normal;font-size:5.66453px;line-height:1.25;font-family:'Adobe Gothic Std';-inkscape-font-specification:'Adobe Gothic Std, Normal';font-variant-ligatures:normal;font-variant-caps:normal;font-variant-numeric:normal;font-variant-east-asian:normal;display:none;fill:#ff6600;fill-opacity:1;stroke:none;stroke-width:0.0819836"
       x="-8.1510324"
       y="29.496033"
       id="text4"
       sodipodi:insensitive="true"><tspan
         sodipodi:role="line"
         id="tspan4"
         style="font-style:normal;font-variant:normal;font-weight:normal;font-stretch:normal;font-size:5.66453px;font-family:'Adobe Gothic Std';-inkscape-font-specification:'Adobe Gothic Std, Normal';font-variant-ligatures:normal;font-variant-caps:normal;font-variant-numeric:normal;font-variant-east-asian:normal;fill:#ff6600;stroke-width:0.0819836"
         x="-8.1510324"
         y="29.496033">FARTI</tspan></text>
    <g
       id="g21"
       transform="matrix(0.47465254,0,0,0.47465254,-11.348521,28.028801)"
       style="display:inline">
      <path
         id="rect6"
         style="fill:#666666;stroke:none;stroke-width:0.529167;stroke-linecap:round;stroke-linejoin:round;stroke-miterlimit:12;paint-order:markers stroke fill"
         d="m 106.47929,94.586991 v 9.631019 l 12.26935,3.34455 35.39643,2.2297 28.70733,-4.23333 -41.80675,-10.971939 z"
         sodipodi:nodetypes="ccccccc" />
      <path
         id="rect7"
         style="display:inline;fill:#666666;stroke-width:0.529167;stroke-linecap:round;stroke-linejoin:round;stroke-miterlimit:12;paint-order:markers stroke fill"
         d="m 106.44341,85.860414 h 7.92234 l 16.88218,8.726577 h -24.80452 z"
         sodipodi:nodetypes="ccccc" />
      <path
         id="rect8"
         style="display:inline;fill:url(#linearGradient19);stroke-width:0.423285;stroke-linecap:round;stroke-linejoin:round;stroke-miterlimit:12;paint-order:markers stroke fill"
         d="m 108.3597,103.08437 20.86172,-0.67717 c 0,0 2.29722,0.0423 2.87006,0.67717 0.57284,0.63485 -7.41088,8.58524 -7.41088,8.58524 l 2.64838,8.58524 h -8.38595 z"
         sodipodi:nodetypes="cczcccc" />
      <path
         id="rect19"
         style="fill:#380753;fill-opacity:1;stroke-width:0.529167;stroke-linecap:round;stroke-linejoin:round;stroke-miterlimit:12;paint-order:markers stroke fill"
         d="m 146.90558,96.124893 15.04344,3.948067 -2.76852,1.4194 -7.25733,-1.27359 -7.37757,-0.805935 z"
         sodipodi:nodetypes="cccccc" />
      <path
         id="path19"
         style="baseline-shift:baseline;display:inline;overflow:visible;opacity:1;vector-effect:none;fill:#ffffff;enable-background:accumulate;stop-color:#000000;stop-opacity:1"
         d="m 149.57071,96.824063 c 0.11442,1.136756 0.18518,1.596198 -1.12054,1.766257 -0.22998,0.04003 -0.96002,1.036449 -1.14155,1.124351 l 3.17182,0.346489 c 0.73518,-0.651127 1.22813,-1.69845 1.28084,-2.661938 z m 6.74982,1.771732 c 0.12856,0.624019 -0.16573,0.847756 -0.96027,1.166064 0.67429,0.589021 -0.48643,0.742401 -0.48032,0.975791 l 1.64975,0.28952 c 0.004,-0.24603 -0.0374,-0.35595 -0.0133,-0.51883 0.7745,-0.084 1.37726,-0.728469 1.61438,-1.437638 z"
         sodipodi:nodetypes="ccccccccccccc" />
      <rect
         style="fill:#b8b8b8;fill-opacity:1;stroke:none;stroke-width:1.05833;stroke-linecap:round;stroke-linejoin:round;stroke-miterlimit:12;stroke-dasharray:none;stroke-opacity:1;paint-order:markers stroke fill"
         id="rect21"
         width="18.597904"
         height="0.50203782"
         x="118.13537"
         y="120.25485"
         ry="0.25101891" />
      <path
         id="path33"
         style="display:inline;fill:#0055d4;stroke-width:0.529167;stroke-linecap:round;stroke-linejoin:round;stroke-miterlimit:12;paint-order:markers stroke fill;fill-opacity:1"
         d="m 118.58629,88.042058 4.22055,2.181645 h -16.36343 v -2.181645 z"
         sodipodi:nodetypes="ccccc" />
      <path
         id="path34"
         style="display:inline;fill:#0055d4;fill-opacity:1;stroke-width:0.423285;stroke-linecap:round;stroke-linejoin:round;stroke-miterlimit:12;paint-order:markers stroke fill"
         d="m 108.3597,103.08437 5.21543,-0.16929 9.56087,17.33977 h -4.19297 z"
         sodipodi:nodetypes="ccccc" />
      <path
         id="rect9"
         style="fill:#0055d4;stroke-width:8.46667;stroke-linecap:round;stroke-linejoin:round;stroke-miterlimit:12;paint-order:markers stroke fill"
         d="m 39.191923,74.339319 h 13.12154 l 8.359039,3.704167 12.653526,-0.466415 2.116807,0.555544 -14.770333,1.123856 -8.359039,-3.175 h -13.12154 z"
         sodipodi:nodetypes="ccccccccc"
         transform="matrix(2.1068043,0,0,2.1068043,23.909113,-59.051198)" />
    </g>
    <rect
       style="mix-blend-mode:normal;fill:#ff0000;fill-opacity:1;stroke:none;stroke-width:1.05833;stroke-linecap:round;stroke-linejoin:round;stroke-miterlimit:12;stroke-dasharray:none;stroke-opacity:1;paint-order:markers stroke fill;filter:url(#filter22)"
       id="rect22"
       width="6.2405167"
       height="0.16761483"
       x="51.268635"
       y="80.2659"
       ry="0.083807416"
       transform="matrix(1.4216734,0,0,1.4216734,-11.227435,-29.003817)" />
    <rect
       style="mix-blend-mode:normal;fill:#ff0000;fill-opacity:1;stroke:none;stroke-width:1.05833;stroke-linecap:round;stroke-linejoin:round;stroke-miterlimit:12;stroke-dasharray:none;stroke-opacity:1;paint-order:markers stroke fill;filter:url(#filter33)"
       id="rect23"
       width="6.2405167"
       height="0.16761483"
       x="67.143639"
       y="80.2659"
       ry="0.083807416"
       transform="matrix(1.4216734,0,0,1.4216734,-11.227435,-29.003817)" />
    <path
       id="rect29"
       style="display:inline;fill:#ff0000;fill-opacity:1;stroke:none;stroke-width:1.5046;stroke-linecap:round;stroke-linejoin:round;stroke-miterlimit:12;stroke-dasharray:none;stroke-opacity:1;paint-order:markers stroke fill"
       d="m 61.778933,85.108076 c -0.06601,0 -0.119023,0.05301 -0.119023,0.119023 0,0.06601 0.05302,0.119008 0.119023,0.119008 h 8.633844 c 0.06601,0 0.119008,-0.05301 0.119008,-0.119008 0,-0.06601 -0.05301,-0.119023 -0.119008,-0.119023 z m 22.569065,0 c -0.06601,0 -0.119023,0.05301 -0.119023,0.119023 0,0.06601 0.05301,0.119008 0.119023,0.119008 h 8.633842 c 0.06601,0 0.119022,-0.05301 0.119022,-0.119008 0,-0.06601 -0.05301,-0.119023 -0.119022,-0.119023 z"
       sodipodi:nodetypes="ssssssssssssss" />
    <g
       id="text33"
       style="font-size:10.482px;line-height:1.25;font-family:'Space Age';-inkscape-font-specification:'Space Age, Normal';text-align:center;text-orientation:upright;text-anchor:middle;fill:#ff6600;stroke-width:0.130578"
       aria-label="SHIT&#10;Blister">
      <path
         d="m 54.023054,43.975922 q -0.293496,0 -0.545064,-0.10482 -0.251568,-0.115302 -0.440244,-0.303978 -0.188676,-0.188676 -0.303978,-0.440244 -0.10482,-0.251568 -0.10482,-0.545064 0,-0.293496 0.10482,-0.545064 0.115302,-0.251568 0.303978,-0.440244 0.188676,-0.188676 0.440244,-0.293496 0.251568,-0.115302 0.545064,-0.115302 h 6.362575 q 0.20964,0 0.356388,0.146748 0.146748,0.146748 0.146748,0.356388 0,0.20964 -0.146748,0.356388 -0.146748,0.146748 -0.356388,0.146748 H 54.00209 q -0.15723,0 -0.283014,0.115302 -0.115302,0.10482 -0.115302,0.272532 0,0.15723 0.115302,0.272532 0.125784,0.115302 0.283014,0.115302 h 5.796547 q 0.293496,0 0.545064,0.115302 0.26205,0.10482 0.450726,0.293496 0.188676,0.188676 0.293496,0.450726 0.115302,0.251568 0.115302,0.545064 0,0.293496 -0.115302,0.545064 -0.10482,0.251568 -0.293496,0.440244 -0.188676,0.188676 -0.450726,0.293496 -0.251568,0.10482 -0.545064,0.10482 h -6.352093 q -0.20964,0 -0.356388,-0.146748 -0.146748,-0.146748 -0.146748,-0.356388 0,-0.20964 0.146748,-0.356388 0.146748,-0.146748 0.356388,-0.146748 h 6.394021 q 0.15723,0 0.272532,-0.10482 0.115302,-0.115302 0.115302,-0.272532 0,-0.167712 -0.115302,-0.283014 -0.115302,-0.115302 -0.272532,-0.115302 h -5.817511 z m 16.425288,1.278804 q 0,0.20964 -0.146748,0.356388 -0.146748,0.146748 -0.356388,0.146748 -0.20964,0 -0.356388,-0.146748 Q 69.44207,45.464366 69.44207,45.254726 V 45.01364 q -0.01048,-0.31446 -0.146748,-0.513618 -0.136266,-0.20964 -0.324942,-0.324942 -0.188676,-0.115302 -0.408798,-0.15723 -0.220122,-0.04193 -0.398316,-0.04193 h -1.781941 -0.03145 -0.04193 -1.78194 q -0.324942,0 -0.660366,-0.08386 -0.324942,-0.08386 -0.618438,-0.251568 v 1.614228 q 0,0.20964 -0.146748,0.356388 -0.146748,0.146748 -0.356388,0.146748 -0.20964,0 -0.356388,-0.146748 -0.146748,-0.146748 -0.146748,-0.356388 v -3.56388 q 0,-0.20964 0.146748,-0.356388 0.146748,-0.146748 0.356388,-0.146748 0.20964,0 0.356388,0.146748 0.146748,0.146748 0.146748,0.356388 v 0.178194 q 0,0.335424 0.125784,0.555546 0.136266,0.20964 0.324942,0.335424 0.199158,0.115302 0.41928,0.167712 0.220122,0.04193 0.408798,0.04193 h 1.813386 0.01048 0.03145 1.781941 q 0.324942,0 0.649884,0.08386 0.335424,0.08386 0.62892,0.251568 v -1.614228 q 0,-0.20964 0.146748,-0.356388 0.146748,-0.146748 0.356388,-0.146748 0.20964,0 0.356388,0.146748 0.146748,0.146748 0.146748,0.356388 z m 2.064947,0 q 0,0.20964 -0.146748,0.356388 -0.146748,0.146748 -0.356388,0.146748 -0.20964,0 -0.356388,-0.146748 -0.146748,-0.146748 -0.146748,-0.356388 v -3.56388 q 0,-0.20964 0.146748,-0.356388 0.146748,-0.146748 0.356388,-0.146748 0.20964,0 0.356388,0.146748 0.146748,0.146748 0.146748,0.356388 v 3.56388 z m 8.762943,-4.067016 q 0.20964,0 0.356388,0.146748 0.146748,0.146748 0.146748,0.356388 0,0.199158 -0.136266,0.345906 -0.136266,0.136266 -0.324942,0.15723 h -2.106882 q -0.31446,0.02096 -0.5241,0.15723 -0.199158,0.125784 -0.31446,0.31446 -0.115302,0.188676 -0.15723,0.408798 -0.04193,0.220122 -0.04193,0.398316 v 1.78194 q 0,0.20964 -0.146748,0.356388 -0.146748,0.146748 -0.356388,0.146748 -0.20964,0 -0.356388,-0.146748 -0.146748,-0.146748 -0.146748,-0.356388 v -1.78194 q 0,-0.324942 0.08386,-0.649884 0.08386,-0.335424 0.251568,-0.62892 h -3.438096 q -0.20964,0 -0.356388,-0.146748 -0.146748,-0.146748 -0.146748,-0.356388 0,-0.20964 0.146748,-0.356388 0.146748,-0.146748 0.356388,-0.146748 z"
         id="path15" />
      <path
         d="m 39.652226,57.854091 h 5.81751 q 0.15723,0 0.272532,-0.115302 0.125784,-0.115302 0.125784,-0.272532 0,-0.167712 -0.125784,-0.272532 -0.115302,-0.115302 -0.272532,-0.115302 h -5.81751 z m 0,-2.557608 v 0.775668 h 5.827992 q 0.15723,0 0.272532,-0.10482 0.115302,-0.10482 0.115302,-0.272532 0,-0.15723 -0.125784,-0.272532 -0.115302,-0.125784 -0.272532,-0.125784 z m -0.503136,3.56388 q -0.20964,0 -0.356388,-0.146748 -0.146748,-0.146748 -0.146748,-0.356388 v -3.56388 q 0,-0.20964 0.146748,-0.356388 0.146748,-0.146748 0.356388,-0.146748 h 6.278718 q 0.293496,0 0.545064,0.115302 0.26205,0.10482 0.450726,0.293496 0.199158,0.188676 0.303978,0.450726 0.115302,0.251568 0.115302,0.545064 0,0.26205 -0.09434,0.492654 -0.08386,0.220122 -0.230604,0.398316 0.146748,0.178194 0.230604,0.408798 0.09434,0.220122 0.09434,0.47169 0,0.293496 -0.115302,0.545064 -0.10482,0.251568 -0.303978,0.440244 -0.188676,0.188676 -0.450726,0.303978 -0.251568,0.10482 -0.545064,0.10482 H 39.14909 Z m 10.178022,0 q -0.293496,0 -0.555546,-0.10482 -0.26205,-0.115302 -0.461208,-0.303978 -0.188676,-0.188676 -0.303978,-0.440244 -0.115302,-0.251568 -0.115302,-0.545064 v -2.67291 q 0,-0.20964 0.146748,-0.356388 0.146748,-0.146748 0.356388,-0.146748 0.199158,0 0.345906,0.146748 0.15723,0.146748 0.15723,0.356388 v 2.67291 q 0,0.15723 0.115302,0.272532 0.125784,0.115302 0.283014,0.115302 h 6.2892 q 0.20964,0 0.356388,0.146748 0.146748,0.146748 0.146748,0.356388 0,0.20964 -0.146748,0.356388 -0.146748,0.146748 -0.356388,0.146748 h -6.257754 z m 8.815362,-0.503136 q 0,0.20964 -0.146748,0.356388 -0.146748,0.146748 -0.356388,0.146748 -0.209641,0 -0.356389,-0.146748 -0.146748,-0.146748 -0.146748,-0.356388 v -3.56388 q 0,-0.20964 0.146748,-0.356388 0.146748,-0.146748 0.356389,-0.146748 0.20964,0 0.356388,0.146748 0.146748,0.146748 0.146748,0.356388 v 3.56388 z m 2.442296,-1.278804 q -0.293496,0 -0.545064,-0.10482 -0.251568,-0.115302 -0.440244,-0.303978 -0.188676,-0.188676 -0.303978,-0.440244 -0.10482,-0.251568 -0.10482,-0.545064 0,-0.293496 0.10482,-0.545064 0.115302,-0.251568 0.303978,-0.440244 0.188676,-0.188676 0.440244,-0.293496 0.251568,-0.115302 0.545064,-0.115302 h 6.362574 q 0.20964,0 0.356388,0.146748 0.146748,0.146748 0.146748,0.356388 0,0.20964 -0.146748,0.356388 -0.146748,0.146748 -0.356388,0.146748 h -6.383538 q -0.15723,0 -0.283014,0.115302 -0.115302,0.10482 -0.115302,0.272532 0,0.15723 0.115302,0.272532 0.125784,0.115302 0.283014,0.115302 h 5.796546 q 0.293496,0 0.545064,0.115302 0.26205,0.10482 0.450726,0.293496 0.188676,0.188676 0.293496,0.450726 0.115302,0.251568 0.115302,0.545064 0,0.293496 -0.115302,0.545064 -0.10482,0.251568 -0.293496,0.440244 -0.188676,0.188676 -0.450726,0.293496 -0.251568,0.10482 -0.545064,0.10482 H 60.00826 q -0.20964,0 -0.356388,-0.146748 -0.146748,-0.146748 -0.146748,-0.356388 0,-0.20964 0.146748,-0.356388 0.146748,-0.146748 0.356388,-0.146748 h 6.39402 q 0.15723,0 0.272532,-0.10482 0.115302,-0.115302 0.115302,-0.272532 0,-0.167712 -0.115302,-0.283014 -0.115302,-0.115302 -0.272532,-0.115302 h -5.81751 z m 15.943115,-2.788212 q 0.20964,0 0.356388,0.146748 0.146748,0.146748 0.146748,0.356388 0,0.20964 -0.146748,0.356388 -0.146748,0.146748 -0.356388,0.146748 h -3.102672 v 3.060744 q 0,0.20964 -0.146748,0.356388 -0.146748,0.146748 -0.356388,0.146748 -0.20964,0 -0.356388,-0.146748 -0.146748,-0.146748 -0.146748,-0.356388 v -3.060744 h -3.1446 q -0.188676,-0.02096 -0.324942,-0.15723 -0.136266,-0.146748 -0.136266,-0.345906 0,-0.20964 0.146748,-0.356388 0.146748,-0.146748 0.356388,-0.146748 h 7.211616 z m 1.551346,0.503136 q 0,-0.20964 0.146748,-0.356388 0.146748,-0.146748 0.356388,-0.146748 h 7.431738 q 0.20964,0 0.356388,0.146748 0.146748,0.146748 0.146748,0.356388 0,0.20964 -0.146748,0.356388 -0.146748,0.146748 -0.356388,0.146748 h -7.431738 q -0.20964,0 -0.356388,-0.146748 -0.146748,-0.146748 -0.146748,-0.356388 z m 1.278804,4.067016 q -0.230604,0 -0.461208,-0.09434 -0.230604,-0.10482 -0.408798,-0.283014 -0.178194,-0.178194 -0.293496,-0.429762 -0.115302,-0.251568 -0.115302,-0.566028 v -0.94338 q 0,-0.283014 0.15723,-0.377352 0.167712,-0.09434 0.513618,-0.09434 h 7.033422 q 0.20964,0 0.356388,0.146748 0.146748,0.146748 0.146748,0.356388 0,0.20964 -0.146748,0.356388 -0.146748,0.146748 -0.356388,0.146748 h -6.697998 v 0.513618 q 0,0.10482 0.08386,0.188676 0.09434,0.07337 0.241086,0.07337 h 6.60366 q 0.20964,0 0.356388,0.146748 0.146748,0.146748 0.146748,0.356388 0,0.20964 -0.146748,0.356388 -0.146748,0.146748 -0.356388,0.146748 z m 14.94734,-1.78194 q 0.283014,0.178194 0.57651,0.387834 0.293496,0.199158 0.597474,0.440244 0.115302,0.08386 0.199158,0.199158 0.08386,0.10482 0.08386,0.251568 0,0.20964 -0.146748,0.356388 -0.146748,0.146748 -0.356388,0.146748 -0.178194,0 -0.356388,-0.146748 -0.429762,-0.31446 -0.880488,-0.607956 -0.450726,-0.293496 -0.94338,-0.5241 -0.482172,-0.230604 -1.006272,-0.36687 -0.5241,-0.136266 -1.090128,-0.136266 h -2.085919 q -0.136266,0.02096 -0.230604,0.125784 -0.09434,0.10482 -0.09434,0.26205 v 0.89097 q 0,0.20964 -0.15723,0.356388 -0.146748,0.146748 -0.345906,0.146748 -0.20964,0 -0.356388,-0.146748 -0.146748,-0.146748 -0.146748,-0.356388 v -1.006272 q 0,-0.26205 0.09434,-0.492654 0.10482,-0.241086 0.272532,-0.408798 0.167712,-0.178194 0.398316,-0.272532 0.230604,-0.10482 0.503136,-0.10482 h 5.555461 q 0.15723,0 0.272532,-0.10482 0.125784,-0.115302 0.125784,-0.283014 0,-0.15723 -0.125784,-0.272532 -0.115302,-0.115302 -0.272532,-0.115302 h -6.320647 q -0.20964,0 -0.356388,-0.146748 -0.146748,-0.146748 -0.146748,-0.356388 0,-0.20964 0.146748,-0.356388 0.146748,-0.146748 0.356388,-0.146748 h 6.278719 q 0.293496,0 0.545064,0.115302 0.26205,0.10482 0.450726,0.293496 0.199158,0.188676 0.303978,0.440244 0.115302,0.251568 0.115302,0.545064 0,0.293496 -0.115302,0.545064 -0.10482,0.251568 -0.303978,0.440244 -0.188676,0.188676 -0.450726,0.303978 -0.251568,0.10482 -0.545064,0.10482 h -0.04193 z"
         id="path16" />
    </g>
    <g
       id="text5"
       style="font-size:10.482px;line-height:1.25;font-family:'Space Age';-inkscape-font-specification:'Space Age, Normal';text-align:center;text-orientation:upright;text-anchor:middle;fill:#ffff00;stroke-width:0.130578"
       aria-label="SHIT&#10;Blister">
      <path
         d="m 54.552222,43.446755 q -0.293496,0 -0.545064,-0.10482 -0.251568,-0.115302 -0.440244,-0.303978 -0.188676,-0.188676 -0.303978,-0.440244 -0.10482,-0.251568 -0.10482,-0.545064 0,-0.293496 0.10482,-0.545064 0.115302,-0.251568 0.303978,-0.440244 0.188676,-0.188676 0.440244,-0.293496 0.251568,-0.115302 0.545064,-0.115302 h 6.362574 q 0.20964,0 0.356388,0.146748 0.146748,0.146748 0.146748,0.356388 0,0.20964 -0.146748,0.356388 -0.146748,0.146748 -0.356388,0.146748 h -6.383538 q -0.15723,0 -0.283014,0.115302 -0.115302,0.10482 -0.115302,0.272532 0,0.15723 0.115302,0.272532 0.125784,0.115302 0.283014,0.115302 h 5.796546 q 0.293496,0 0.545064,0.115302 0.26205,0.10482 0.450726,0.293496 0.188676,0.188676 0.293496,0.450726 0.115302,0.251568 0.115302,0.545064 0,0.293496 -0.115302,0.545064 -0.10482,0.251568 -0.293496,0.440244 -0.188676,0.188676 -0.450726,0.293496 -0.251568,0.10482 -0.545064,0.10482 h -6.352092 q -0.20964,0 -0.356388,-0.146748 -0.146748,-0.146748 -0.146748,-0.356388 0,-0.20964 0.146748,-0.356388 0.146748,-0.146748 0.356388,-0.146748 h 6.39402 q 0.15723,0 0.272532,-0.10482 0.115302,-0.115302 0.115302,-0.272532 0,-0.167712 -0.115302,-0.283014 -0.115302,-0.115302 -0.272532,-0.115302 h -5.81751 z m 16.425287,1.278804 q 0,0.20964 -0.146748,0.356388 -0.146748,0.146748 -0.356388,0.146748 -0.20964,0 -0.356388,-0.146748 -0.146748,-0.146748 -0.146748,-0.356388 v -0.241086 q -0.01048,-0.31446 -0.146748,-0.513618 -0.136266,-0.20964 -0.324942,-0.324942 -0.188676,-0.115302 -0.408798,-0.15723 -0.220122,-0.04193 -0.398316,-0.04193 h -1.78194 -0.03145 -0.04193 -1.78194 q -0.324942,0 -0.660366,-0.08386 -0.324942,-0.08386 -0.618438,-0.251568 v 1.614228 q 0,0.20964 -0.146748,0.356388 -0.146748,0.146748 -0.356388,0.146748 -0.20964,0 -0.356388,-0.146748 -0.146748,-0.146748 -0.146748,-0.356388 v -3.56388 q 0,-0.20964 0.146748,-0.356388 0.146748,-0.146748 0.356388,-0.146748 0.20964,0 0.356388,0.146748 0.146748,0.146748 0.146748,0.356388 v 0.178194 q 0,0.335424 0.125784,0.555546 0.136266,0.20964 0.324942,0.335424 0.199158,0.115302 0.41928,0.167712 0.220122,0.04193 0.408798,0.04193 h 1.813386 0.01048 0.03145 1.78194 q 0.324942,0 0.649884,0.08386 0.335424,0.08386 0.62892,0.251568 v -1.614228 q 0,-0.20964 0.146748,-0.356388 0.146748,-0.146748 0.356388,-0.146748 0.20964,0 0.356388,0.146748 0.146748,0.146748 0.146748,0.356388 z m 2.064948,0 q 0,0.20964 -0.146748,0.356388 -0.146748,0.146748 -0.356388,0.146748 -0.209641,0 -0.356389,-0.146748 -0.146748,-0.146748 -0.146748,-0.356388 v -3.56388 q 0,-0.20964 0.146748,-0.356388 0.146748,-0.146748 0.356389,-0.146748 0.20964,0 0.356388,0.146748 0.146748,0.146748 0.146748,0.356388 v 3.56388 z m 8.762942,-4.067016 q 0.20964,0 0.356388,0.146748 0.146748,0.146748 0.146748,0.356388 0,0.199158 -0.136266,0.345906 -0.136266,0.136266 -0.324942,0.15723 h -2.106882 q -0.31446,0.02096 -0.5241,0.15723 -0.199158,0.125784 -0.31446,0.31446 -0.115302,0.188676 -0.15723,0.408798 -0.04193,0.220122 -0.04193,0.398316 v 1.78194 q 0,0.20964 -0.146748,0.356388 -0.146748,0.146748 -0.356388,0.146748 -0.20964,0 -0.356388,-0.146748 -0.146748,-0.146748 -0.146748,-0.356388 v -1.78194 q 0,-0.324942 0.08386,-0.649884 0.08386,-0.335424 0.251568,-0.62892 h -3.438096 q -0.20964,0 -0.356388,-0.146748 -0.146748,-0.146748 -0.146748,-0.356388 0,-0.20964 0.146748,-0.356388 0.146748,-0.146748 0.356388,-0.146748 z"
         id="path13" />
      <path
         d="m 40.181393,57.324924 h 5.81751 q 0.15723,0 0.272532,-0.115302 0.125784,-0.115302 0.125784,-0.272532 0,-0.167712 -0.125784,-0.272532 -0.115302,-0.115302 -0.272532,-0.115302 h -5.81751 z m 0,-2.557608 v 0.775668 h 5.827992 q 0.15723,0 0.272532,-0.10482 0.115302,-0.10482 0.115302,-0.272532 0,-0.15723 -0.125784,-0.272532 -0.115302,-0.125784 -0.272532,-0.125784 z m -0.503136,3.56388 q -0.20964,0 -0.356388,-0.146748 Q 39.175121,58.0377 39.175121,57.82806 v -3.56388 q 0,-0.209641 0.146748,-0.356389 0.146748,-0.146748 0.356388,-0.146748 h 6.278718 q 0.293496,0 0.545064,0.115302 0.26205,0.10482 0.450726,0.293496 0.199158,0.188677 0.303978,0.450727 0.115302,0.251568 0.115302,0.545064 0,0.26205 -0.09434,0.492654 -0.08386,0.220122 -0.230604,0.398316 0.146748,0.178194 0.230604,0.408798 0.09434,0.220122 0.09434,0.47169 0,0.293496 -0.115302,0.545064 -0.10482,0.251568 -0.303978,0.440244 -0.188676,0.188676 -0.450726,0.303978 -0.251568,0.10482 -0.545064,0.10482 h -6.278718 z m 10.178022,0 q -0.293496,0 -0.555546,-0.10482 -0.26205,-0.115302 -0.461208,-0.303978 -0.188676,-0.188676 -0.303978,-0.440244 -0.115302,-0.251568 -0.115302,-0.545064 v -2.67291 q 0,-0.209641 0.146748,-0.356389 0.146748,-0.146748 0.356388,-0.146748 0.199158,0 0.345906,0.146748 0.15723,0.146748 0.15723,0.356389 v 2.67291 q 0,0.15723 0.115302,0.272532 0.125784,0.115302 0.283014,0.115302 h 6.2892 q 0.20964,0 0.356388,0.146748 0.146748,0.146748 0.146748,0.356388 0,0.20964 -0.146748,0.356388 -0.146748,0.146748 -0.356388,0.146748 h -6.257754 z m 8.815362,-0.503136 q 0,0.20964 -0.146748,0.356388 -0.146748,0.146748 -0.356388,0.146748 -0.20964,0 -0.356388,-0.146748 Q 57.665369,58.0377 57.665369,57.82806 v -3.56388 q 0,-0.209641 0.146748,-0.356389 0.146748,-0.146748 0.356388,-0.146748 0.20964,0 0.356388,0.146748 0.146748,0.146748 0.146748,0.356389 v 3.56388 z m 2.442296,-1.278804 q -0.293496,0 -0.545064,-0.10482 -0.251568,-0.115302 -0.440244,-0.303978 -0.188676,-0.188676 -0.303978,-0.440244 -0.10482,-0.251568 -0.10482,-0.545064 0,-0.293496 0.10482,-0.545064 0.115302,-0.251568 0.303978,-0.440245 0.188676,-0.188676 0.440244,-0.293496 0.251568,-0.115302 0.545064,-0.115302 h 6.362574 q 0.20964,0 0.356388,0.146748 0.146748,0.146748 0.146748,0.356389 0,0.20964 -0.146748,0.356388 -0.146748,0.146748 -0.356388,0.146748 h -6.383538 q -0.15723,0 -0.283014,0.115302 -0.115302,0.10482 -0.115302,0.272532 0,0.15723 0.115302,0.272532 0.125784,0.115302 0.283014,0.115302 h 5.796546 q 0.293496,0 0.545064,0.115302 0.26205,0.10482 0.450726,0.293496 0.188676,0.188676 0.293496,0.450726 0.115302,0.251568 0.115302,0.545064 0,0.293496 -0.115302,0.545064 -0.10482,0.251568 -0.293496,0.440244 -0.188676,0.188676 -0.450726,0.293496 -0.251568,0.10482 -0.545064,0.10482 h -6.352092 q -0.20964,0 -0.356388,-0.146748 -0.146748,-0.146748 -0.146748,-0.356388 0,-0.20964 0.146748,-0.356388 0.146748,-0.146748 0.356388,-0.146748 h 6.39402 q 0.15723,0 0.272532,-0.10482 0.115302,-0.115302 0.115302,-0.272532 0,-0.167712 -0.115302,-0.283014 -0.115302,-0.115302 -0.272532,-0.115302 h -5.81751 z m 15.943115,-2.788213 q 0.20964,0 0.356388,0.146748 0.146748,0.146748 0.146748,0.356389 0,0.20964 -0.146748,0.356388 -0.146748,0.146748 -0.356388,0.146748 H 73.95438 v 3.060744 q 0,0.20964 -0.146748,0.356388 -0.146748,0.146748 -0.356388,0.146748 -0.20964,0 -0.356388,-0.146748 Q 72.948108,58.0377 72.948108,57.82806 v -3.060744 h -3.1446 Q 69.614832,54.746352 69.478566,54.610086 69.3423,54.463338 69.3423,54.26418 q 0,-0.209641 0.146748,-0.356389 0.146748,-0.146748 0.356388,-0.146748 h 7.211616 z m 1.551346,0.503137 q 0,-0.209641 0.146748,-0.356389 0.146748,-0.146748 0.356388,-0.146748 h 7.431738 q 0.20964,0 0.356388,0.146748 0.146748,0.146748 0.146748,0.356389 0,0.20964 -0.146748,0.356388 -0.146748,0.146748 -0.356388,0.146748 h -7.431738 q -0.20964,0 -0.356388,-0.146748 -0.146748,-0.146748 -0.146748,-0.356388 z m 1.278804,4.067016 q -0.230604,0 -0.461208,-0.09434 Q 79.19539,58.132038 79.017196,57.953844 78.839002,57.77565 78.7237,57.524082 78.608398,57.272514 78.608398,56.958054 v -0.94338 q 0,-0.283014 0.15723,-0.377352 0.167712,-0.09434 0.513618,-0.09434 h 7.033422 q 0.20964,0 0.356388,0.146748 0.146748,0.146748 0.146748,0.356388 0,0.20964 -0.146748,0.356388 -0.146748,0.146748 -0.356388,0.146748 H 79.61467 v 0.513618 q 0,0.10482 0.08386,0.188676 0.09434,0.07337 0.241086,0.07337 h 6.60366 q 0.20964,0 0.356388,0.146748 0.146748,0.146748 0.146748,0.356388 0,0.20964 -0.146748,0.356388 -0.146748,0.146748 -0.356388,0.146748 z m 14.94734,-1.78194 q 0.283014,0.178194 0.57651,0.387834 0.293496,0.199158 0.597474,0.440244 0.115302,0.08386 0.199158,0.199158 0.08386,0.10482 0.08386,0.251568 0,0.20964 -0.146748,0.356388 -0.146748,0.146748 -0.356388,0.146748 -0.178194,0 -0.356388,-0.146748 -0.429762,-0.31446 -0.880488,-0.607956 -0.450726,-0.293496 -0.94338,-0.5241 -0.482172,-0.230604 -1.006272,-0.36687 -0.5241,-0.136266 -1.090128,-0.136266 H 89.42583 q -0.136266,0.02096 -0.230604,0.125784 -0.09434,0.10482 -0.09434,0.26205 v 0.89097 q 0,0.20964 -0.15723,0.356388 -0.146748,0.146748 -0.345906,0.146748 -0.20964,0 -0.356388,-0.146748 Q 88.094616,58.0377 88.094616,57.82806 v -1.006272 q 0,-0.26205 0.09434,-0.492654 0.10482,-0.241086 0.272532,-0.408798 0.167712,-0.178194 0.398316,-0.272532 0.230604,-0.10482 0.503136,-0.10482 h 5.55546 q 0.15723,0 0.272532,-0.10482 0.125784,-0.115302 0.125784,-0.283014 0,-0.15723 -0.125784,-0.272532 -0.115302,-0.115302 -0.272532,-0.115302 h -6.320646 q -0.20964,0 -0.356388,-0.146748 -0.146748,-0.146748 -0.146748,-0.356388 0,-0.209641 0.146748,-0.356389 0.146748,-0.146748 0.356388,-0.146748 h 6.278718 q 0.293496,0 0.545064,0.115302 0.26205,0.10482 0.450726,0.293496 0.199158,0.188677 0.303978,0.440245 0.115302,0.251568 0.115302,0.545064 0,0.293496 -0.115302,0.545064 -0.10482,0.251568 -0.303978,0.440244 -0.188676,0.188676 -0.450726,0.303978 -0.251568,0.10482 -0.545064,0.10482 h -0.04193 z"
         id="path14" />
    </g>
    <path
       sodipodi:type="star"
       style="opacity:1;fill:#ffffff;fill-opacity:1;stroke:none;stroke-width:8.46667;stroke-linecap:round;stroke-linejoin:round;stroke-miterlimit:12;paint-order:markers stroke fill"
       id="path1"
       inkscape:flatsided="false"
       sodipodi:sides="9"
       sodipodi:cx="-13.77627"
       sodipodi:cy="53.239544"
       sodipodi:r1="11.848328"
       sodipodi:r2="2.203789"
       sodipodi:arg1="-1.8325957"
       sodipodi:arg2="-1.4835299"
       inkscape:rounded="0"
       inkscape:randomized="0"
       d="m -16.842843,41.794938 3.258646,9.249203 4.8152469,-8.542829 -3.4490059,9.179918 9.1799178,-3.449006 -8.5428288,4.815247 9.2492027,3.258646 -9.6393677,-1.802532 4.9906835,8.441541 -6.2255385,-7.576885 -1.603033,9.674544 0.101289,-9.80593 -7.446672,6.380722 6.380722,-7.446672 -9.80593,0.101289 9.674544,-1.603033 -7.576885,-6.225539 8.441541,4.990684 z"
       inkscape:transform-center-x="0.016606183"
       inkscape:transform-center-y="0.016606041"
       transform="matrix(0.09260784,0,0,0.09260784,37.501556,104.65321)" />
    <path
       sodipodi:type="star"
       style="opacity:1;fill:#ffffff;fill-opacity:1;stroke:none;stroke-width:8.46667;stroke-linecap:round;stroke-linejoin:round;stroke-miterlimit:12;paint-order:markers stroke fill"
       id="path2"
       inkscape:flatsided="false"
       sodipodi:sides="9"
       sodipodi:cx="-13.77627"
       sodipodi:cy="53.239544"
       sodipodi:r1="11.848328"
       sodipodi:r2="2.203789"
       sodipodi:arg1="-1.8325957"
       sodipodi:arg2="-1.4835299"
       inkscape:rounded="0"
       inkscape:randomized="0"
       d="m -16.842843,41.794938 3.258646,9.249203 4.8152469,-8.542829 -3.4490059,9.179918 9.1799178,-3.449006 -8.5428288,4.815247 9.2492027,3.258646 -9.6393677,-1.802532 4.9906835,8.441541 -6.2255385,-7.576885 -1.603033,9.674544 0.101289,-9.80593 -7.446672,6.380722 6.380722,-7.446672 -9.80593,0.101289 9.674544,-1.603033 -7.576885,-6.225539 8.441541,4.990684 z"
       inkscape:transform-center-x="0.016606183"
       inkscape:transform-center-y="0.016606041"
       transform="matrix(0.09260784,0,0,0.09260784,58.609887,94.034002)" />
    <path
       sodipodi:type="star"
       style="opacity:1;fill:#ffffff;fill-opacity:1;stroke:none;stroke-width:8.46667;stroke-linecap:round;stroke-linejoin:round;stroke-miterlimit:12;paint-order:markers stroke fill"
       id="path3"
       inkscape:flatsided="false"
       sodipodi:sides="9"
       sodipodi:cx="-13.77627"
       sodipodi:cy="53.239544"
       sodipodi:r1="11.848328"
       sodipodi:r2="2.203789"
       sodipodi:arg1="-1.8325957"
       sodipodi:arg2="-1.4835299"
       inkscape:rounded="0"
       inkscape:randomized="0"
       d="m -16.842843,41.794938 3.258646,9.249203 4.8152469,-8.542829 -3.4490059,9.179918 9.1799178,-3.449006 -8.5428288,4.815247 9.2492027,3.258646 -9.6393677,-1.802532 4.9906835,8.441541 -6.2255385,-7.576885 -1.603033,9.674544 0.101289,-9.80593 -7.446672,6.380722 6.380722,-7.446672 -9.80593,0.101289 9.674544,-1.603033 -7.576885,-6.225539 8.441541,4.990684 z"
       inkscape:transform-center-x="0.016606183"
       inkscape:transform-center-y="0.016606041"
       transform="matrix(0.09260784,0,0,0.09260784,40.46751,36.787996)" />
    <path
       sodipodi:type="star"
       style="opacity:1;fill:#ffffff;fill-opacity:1;stroke:none;stroke-width:8.46667;stroke-linecap:round;stroke-linejoin:round;stroke-miterlimit:12;paint-order:markers stroke fill"
       id="path5"
       inkscape:flatsided="false"
       sodipodi:sides="9"
       sodipodi:cx="-13.77627"
       sodipodi:cy="53.239544"
       sodipodi:r1="11.848328"
       sodipodi:r2="2.203789"
       sodipodi:arg1="-1.8325957"
       sodipodi:arg2="-1.4835299"
       inkscape:rounded="0"
       inkscape:randomized="0"
       d="m -16.842843,41.794938 3.258646,9.249203 4.8152469,-8.542829 -3.4490059,9.179918 9.1799178,-3.449006 -8.5428288,4.815247 9.2492027,3.258646 -9.6393677,-1.802532 4.9906835,8.441541 -6.2255385,-7.576885 -1.603033,9.674544 0.101289,-9.80593 -7.446672,6.380722 6.380722,-7.446672 -9.80593,0.101289 9.674544,-1.603033 -7.576885,-6.225539 8.441541,4.990684 z"
       inkscape:transform-center-x="0.016606183"
       inkscape:transform-center-y="0.016606041"
       transform="matrix(0.09260784,0,0,0.09260784,102.75744,33.020656)" />
    <path
       sodipodi:type="star"
       style="opacity:1;fill:#ffffff;fill-opacity:1;stroke:none;stroke-width:8.46667;stroke-linecap:round;stroke-linejoin:round;stroke-miterlimit:12;paint-order:markers stroke fill"
       id="path6"
       inkscape:flatsided="false"
       sodipodi:sides="9"
       sodipodi:cx="-13.77627"
       sodipodi:cy="53.239544"
       sodipodi:r1="11.848328"
       sodipodi:r2="2.203789"
       sodipodi:arg1="-1.8325957"
       sodipodi:arg2="-1.4835299"
       inkscape:rounded="0"
       inkscape:randomized="0"
       d="m -16.842843,41.794938 3.258646,9.249203 4.8152469,-8.542829 -3.4490059,9.179918 9.1799178,-3.449006 -8.5428288,4.815247 9.2492027,3.258646 -9.6393677,-1.802532 4.9906835,8.441541 -6.2255385,-7.576885 -1.603033,9.674544 0.101289,-9.80593 -7.446672,6.380722 6.380722,-7.446672 -9.80593,0.101289 9.674544,-1.603033 -7.576885,-6.225539 8.441541,4.990684 z"
       inkscape:transform-center-x="0.016606183"
       inkscape:transform-center-y="0.016606041"
       transform="matrix(0.09260784,0,0,0.09260784,92.999249,69.528095)" />
    <path
       sodipodi:type="star"
       style="opacity:1;fill:#ffffff;fill-opacity:1;stroke:none;stroke-width:8.46667;stroke-linecap:round;stroke-linejoin:round;stroke-miterlimit:12;paint-order:markers stroke fill"
       id="path7"
       inkscape:flatsided="false"
       sodipodi:sides="9"
       sodipodi:cx="-13.77627"
       sodipodi:cy="53.239544"
       sodipodi:r1="11.848328"
       sodipodi:r2="2.203789"
       sodipodi:arg1="-1.8325957"
       sodipodi:arg2="-1.4835299"
       inkscape:rounded="0"
       inkscape:randomized="0"
       d="m -16.842843,41.794938 3.258646,9.249203 4.8152469,-8.542829 -3.4490059,9.179918 9.1799178,-3.449006 -8.5428288,4.815247 9.2492027,3.258646 -9.6393677,-1.802532 4.9906835,8.441541 -6.2255385,-7.576885 -1.603033,9.674544 0.101289,-9.80593 -7.446672,6.380722 6.380722,-7.446672 -9.80593,0.101289 9.674544,-1.603033 -7.576885,-6.225539 8.441541,4.990684 z"
       inkscape:transform-center-x="0.016606183"
       inkscape:transform-center-y="0.016606041"
       transform="matrix(0.09260784,0,0,0.09260784,64.352833,60.043817)" />
    <path
       sodipodi:type="star"
       style="opacity:1;fill:#ffffff;fill-opacity:1;stroke:none;stroke-width:8.46667;stroke-linecap:round;stroke-linejoin:round;stroke-miterlimit:12;paint-order:markers stroke fill"
       id="path8"
       inkscape:flatsided="false"
       sodipodi:sides="9"
       sodipodi:cx="-13.77627"
       sodipodi:cy="53.239544"
       sodipodi:r1="11.848328"
       sodipodi:r2="2.203789"
       sodipodi:arg1="-1.8325957"
       sodipodi:arg2="-1.4835299"
       inkscape:rounded="0"
       inkscape:randomized="0"
       d="m -16.842843,41.794938 3.258646,9.249203 4.8152469,-8.542829 -3.4490059,9.179918 9.1799178,-3.449006 -8.5428288,4.815247 9.2492027,3.258646 -9.6393677,-1.802532 4.9906835,8.441541 -6.2255385,-7.576885 -1.603033,9.674544 0.101289,-9.80593 -7.446672,6.380722 6.380722,-7.446672 -9.80593,0.101289 9.674544,-1.603033 -7.576885,-6.225539 8.441541,4.990684 z"
       inkscape:transform-center-x="0.016606183"
       inkscape:transform-center-y="0.016606041"
       transform="matrix(0.09260784,0,0,0.09260784,91.922783,40.240429)" />
    <path
       sodipodi:type="star"
       style="opacity:1;fill:#ffffff;fill-opacity:1;stroke:none;stroke-width:8.46667;stroke-linecap:round;stroke-linejoin:round;stroke-miterlimit:12;paint-order:markers stroke fill"
       id="path9"
       inkscape:flatsided="false"
       sodipodi:sides="9"
       sodipodi:cx="-13.77627"
       sodipodi:cy="53.239544"
       sodipodi:r1="11.848328"
       sodipodi:r2="2.203789"
       sodipodi:arg1="-1.8325957"
       sodipodi:arg2="-1.4835299"
       inkscape:rounded="0"
       inkscape:randomized="0"
       d="m -16.842843,41.794938 3.258646,9.249203 4.8152469,-8.542829 -3.4490059,9.179918 9.1799178,-3.449006 -8.5428288,4.815247 9.2492027,3.258646 -9.6393677,-1.802532 4.9906835,8.441541 -6.2255385,-7.576885 -1.603033,9.674544 0.101289,-9.80593 -7.446672,6.380722 6.380722,-7.446672 -9.80593,0.101289 9.674544,-1.603033 -7.576885,-6.225539 8.441541,4.990684 z"
       inkscape:transform-center-x="0.016606183"
       inkscape:transform-center-y="0.016606041"
       transform="matrix(0.09260784,0,0,0.09260784,70.257565,104.65321)" />
    <path
       sodipodi:type="star"
       style="opacity:1;fill:#ffffff;fill-opacity:1;stroke:none;stroke-width:8.46667;stroke-linecap:round;stroke-linejoin:round;stroke-miterlimit:12;paint-order:markers stroke fill"
       id="path10"
       inkscape:flatsided="false"
       sodipodi:sides="9"
       sodipodi:cx="-13.77627"
       sodipodi:cy="53.239544"
       sodipodi:r1="11.848328"
       sodipodi:r2="2.203789"
       sodipodi:arg1="-1.8325957"
       sodipodi:arg2="-1.4835299"
       inkscape:rounded="0"
       inkscape:randomized="0"
       d="m -16.842843,41.794938 3.258646,9.249203 4.8152469,-8.542829 -3.4490059,9.179918 9.1799178,-3.449006 -8.5428288,4.815247 9.2492027,3.258646 -9.6393677,-1.802532 4.9906835,8.441541 -6.2255385,-7.576885 -1.603033,9.674544 0.101289,-9.80593 -7.446672,6.380722 6.380722,-7.446672 -9.80593,0.101289 9.674544,-1.603033 -7.576885,-6.225539 8.441541,4.990684 z"
       inkscape:transform-center-x="0.016606183"
       inkscape:transform-center-y="0.016606041"
       transform="matrix(0.09260784,0,0,0.09260784,36.42509,60.043817)" />
    <path
       sodipodi:type="star"
       style="opacity:1;fill:#ffffff;fill-opacity:1;stroke:none;stroke-width:8.46667;stroke-linecap:round;stroke-linejoin:round;stroke-miterlimit:12;paint-order:markers stroke fill"
       id="path11"
       inkscape:flatsided="false"
       sodipodi:sides="9"
       sodipodi:cx="-13.77627"
       sodipodi:cy="53.239544"
       sodipodi:r1="11.848328"
       sodipodi:r2="2.203789"
       sodipodi:arg1="-1.8325957"
       sodipodi:arg2="-1.4835299"
       inkscape:rounded="0"
       inkscape:randomized="0"
       d="m -16.842843,41.794938 3.258646,9.249203 4.8152469,-8.542829 -3.4490059,9.179918 9.1799178,-3.449006 -8.5428288,4.815247 9.2492027,3.258646 -9.6393677,-1.802532 4.9906835,8.441541 -6.2255385,-7.576885 -1.603033,9.674544 0.101289,-9.80593 -7.446672,6.380722 6.380722,-7.446672 -9.80593,0.101289 9.674544,-1.603033 -7.576885,-6.225539 8.441541,4.990684 z"
       inkscape:transform-center-x="0.016606183"
       inkscape:transform-center-y="0.016606041"
       transform="matrix(0.09260784,0,0,0.09260784,40.850126,87.90376)" />
    <path
       sodipodi:type="star"
       style="opacity:1;fill:#ffffff;fill-opacity:1;stroke:none;stroke-width:8.46667;stroke-linecap:round;stroke-linejoin:round;stroke-miterlimit:12;paint-order:markers stroke fill"
       id="path12"
       inkscape:flatsided="false"
       sodipodi:sides="9"
       sodipodi:cx="-13.77627"
       sodipodi:cy="53.239544"
       sodipodi:r1="11.848328"
       sodipodi:r2="2.203789"
       sodipodi:arg1="-1.8325957"
       sodipodi:arg2="-1.4835299"
       inkscape:rounded="0"
       inkscape:randomized="0"
       d="m -16.842843,41.794938 3.258646,9.249203 4.8152469,-8.542829 -3.4490059,9.179918 9.1799178,-3.449006 -8.5428288,4.815247 9.2492027,3.258646 -9.6393677,-1.802532 4.9906835,8.441541 -6.2255385,-7.576885 -1.603033,9.674544 0.101289,-9.80593 -7.446672,6.380722 6.380722,-7.446672 -9.80593,0.101289 9.674544,-1.603033 -7.576885,-6.225539 8.441541,4.990684 z"
       inkscape:transform-center-x="0.016606183"
       inkscape:transform-center-y="0.016606041"
       transform="matrix(0.09260784,0,0,0.09260784,91.922783,53.384191)" />
    <path
       id="path18"
       style="display:inline;fill:#ff0000;fill-opacity:1;stroke:none;stroke-width:1.5046;stroke-linecap:round;stroke-linejoin:round;stroke-miterlimit:12;stroke-dasharray:none;stroke-opacity:1;paint-order:markers stroke fill;filter:url(#filter19)"
       d="m 61.778933,85.108076 c -0.06601,0 -0.119023,0.05301 -0.119023,0.119023 0,0.06601 0.05302,0.119008 0.119023,0.119008 h 8.633844 c 0.06601,0 0.119008,-0.05301 0.119008,-0.119008 0,-0.06601 -0.05301,-0.119023 -0.119008,-0.119023 z m 22.569065,0 c -0.06601,0 -0.119023,0.05301 -0.119023,0.119023 0,0.06601 0.05301,0.119008 0.119023,0.119008 h 8.633842 c 0.06601,0 0.119022,-0.05301 0.119022,-0.119008 0,-0.06601 -0.05301,-0.119023 -0.119022,-0.119023 z"
       sodipodi:nodetypes="ssssssssssssss" />
    <rect
       style="opacity:0.8;fill:url(#linearGradient27);stroke:none;stroke-width:19.5633;stroke-linecap:round;stroke-linejoin:round;stroke-miterlimit:12;paint-order:markers stroke fill"
       id="rect20"
       width="8.4756346"
       height="0.28506812"
       x="62.056149"
       y="85.084564"
       ry="0.14253406" />
    <rect
       style="opacity:0.8;fill:url(#linearGradient25);stroke:none;stroke-width:17.3235;stroke-linecap:round;stroke-linejoin:round;stroke-miterlimit:12;paint-order:markers stroke fill"
       id="rect24"
       width="6.6459742"
       height="0.28506812"
       x="86.454895"
       y="85.084694"
       ry="0.14253406" />
    <rect
       style="opacity:0.8;fill:url(#linearGradient27);stroke:none;stroke-width:19.5633;stroke-linecap:round;stroke-linejoin:round;stroke-miterlimit:12;paint-order:markers stroke fill;filter:url(#filter29)"
       id="rect27"
       width="8.4756346"
       height="0.28506812"
       x="62.056149"
       y="85.084564"
       ry="0.14253406" />
    <rect
       style="opacity:0.8;fill:url(#linearGradient25);stroke:none;stroke-width:17.3235;stroke-linecap:round;stroke-linejoin:round;stroke-miterlimit:12;paint-order:markers stroke fill;filter:url(#filter28)"
       id="rect28"
       width="6.6459742"
       height="0.28506812"
       x="86.454895"
       y="85.084694"
       ry="0.14253406" />
    <path
       id="path29"
       style="opacity:0.8;fill:#ff0000;fill-opacity:1;stroke:none;stroke-width:1.96447;stroke-linecap:round;stroke-linejoin:round;stroke-miterlimit:12;paint-order:markers stroke fill"
       d="M 32.10605 72.043664 A 7.0862393 3.1665764 0 0 0 31.257006 72.066918 L 31.257006 78.354389 A 7.0862393 3.1665764 0 0 0 32.10605 78.377127 A 7.0862393 3.1665764 0 0 0 39.191923 75.210395 A 7.0862393 3.1665764 0 0 0 32.10605 72.043664 z " />
    <path
       id="ellipse30"
       style="opacity:0.8;fill:#ff6600;fill-opacity:1;stroke:none;stroke-width:1.60556;stroke-linecap:round;stroke-linejoin:round;stroke-miterlimit:12;paint-order:markers stroke fill"
       d="M 33.206758 72.706156 A 5.98527 2.5042918 0 0 0 31.257006 72.842581 L 31.257006 77.578209 A 5.98527 2.5042918 0 0 0 33.206758 77.714635 A 5.98527 2.5042918 0 0 0 39.191923 75.210395 A 5.98527 2.5042918 0 0 0 33.206758 72.706156 z " />
    <path
       id="ellipse29"
       style="opacity:0.8;fill:#ffcc00;fill-opacity:1;stroke:none;stroke-width:1.09665;stroke-linecap:round;stroke-linejoin:round;stroke-miterlimit:12;paint-order:markers stroke fill"
       d="m 34.628377,73.67822 a 4.5640182,1.5321751 0 0 0 -3.371371,0.49964 v 2.065726 a 4.5640182,1.5321751 0 0 0 3.371371,0.499253 4.5640182,1.5321751 0 0 0 4.563546,-1.53231 4.5640182,1.5321751 0 0 0 -4.563546,-1.532309 z" />
    <path
       id="rect3"
       style="display:inline;opacity:1;fill:url(#linearGradient7);stroke-width:3.78354;stroke-linecap:round;stroke-linejoin:round;stroke-dashoffset:149.514;paint-order:markers stroke fill"
       d="m 17.355787,6.1549221 c -2.05336,0 -3.70675,1.6533903 -3.70675,3.7067505 V 125.60551 c 0,2.05336 1.65339,3.70623 3.70675,3.70623 H 118.11088 c 2.05336,0 3.70675,-1.65287 3.70675,-3.70623 V 9.8616726 c 0,-2.0533602 -1.65339,-3.7067505 -3.70675,-3.7067505 z M 31.257267,35.075637 H 104.20941 V 116.0278 H 31.257267 Z" />
    <path
       d="m 19.570491,27.677719 h 1.393474 v -0.685408 h -1.393474 v -1.1499 h 1.495436 V 25.140009 H 18.73214 v 4.356024 h 0.838351 z m 3.121159,-2.53771 -1.234867,4.356024 h 0.849679 l 0.30022,-1.1499 h 1.166894 l 0.311549,1.1499 h 0.878002 l -1.217874,-4.356024 z m 0.294556,1.57474 c 0.06231,-0.254904 0.135949,-0.61177 0.192594,-0.883667 h 0.01699 c 0.05664,0.266233 0.130284,0.617434 0.198258,0.889331 l 0.260568,0.991293 h -0.928982 z m 2.543374,2.781284 h 0.832686 v -1.767334 h 0.283227 c 0.396517,0 0.572117,0.175601 0.685408,0.736389 0.101961,0.526802 0.209587,0.906325 0.271897,1.030945 h 0.861009 c -0.08497,-0.164272 -0.198259,-0.685408 -0.322878,-1.200881 -0.101962,-0.441833 -0.271898,-0.736388 -0.577782,-0.855344 v -0.01699 c 0.407846,-0.158607 0.747717,-0.54946 0.747717,-1.081925 0,-1.166894 -1.110247,-1.234868 -1.659707,-1.234868 -0.424839,0 -0.832686,0.03965 -1.121577,0.09063 z m 0.832686,-3.715932 c 0.06797,-0.02266 0.198259,-0.03399 0.385188,-0.03399 0.305885,0 0.72506,0.107626 0.72506,0.668415 0,0.41351 -0.288891,0.691072 -0.764711,0.691072 h -0.345537 z m 2.294137,-0.640092 v 0.72506 h 1.070596 v 3.630964 h 0.83835 v -3.630964 h 1.076261 v -0.72506 z m 4.316371,4.356024 v -4.356024 h -0.83835 v 4.356024 z"
       id="text9"
       style="font-size:5.66453px;line-height:1.25;font-family:'Adobe Gothic Std';-inkscape-font-specification:'Adobe Gothic Std, Normal';display:inline;stroke-width:0.0819836"
       aria-label="FARTI" />
    <path
       id="path4"
       style="font-size:21.2392px;line-height:1.25;baseline-shift:baseline;display:inline;overflow:visible;vector-effect:none;fill:#aa0000;enable-background:accumulate;stop-color:#000000"
       d="M 66.494132 13.015743 C 65.142922 13.015743 63.94319 13.38303 63.029227 14.154175 C 62.136195 14.893946 61.512236 15.947854 61.136836 17.230473 L 61.134769 17.234607 L 61.132702 17.240291 C 60.778257 18.503967 60.613354 19.979879 60.613354 21.679813 C 60.613354 24.224846 61.022608 26.293491 61.941438 27.873234 L 61.943505 27.876851 L 61.947122 27.880985 C 62.904975 29.482914 64.548612 30.365071 66.494132 30.365071 C 67.860055 30.365071 69.06979 30.000187 69.986425 29.224572 C 70.875609 28.472186 71.497545 27.412406 71.873131 26.129154 L 71.875198 26.127087 C 72.244776 24.848963 72.417801 23.368607 72.417801 21.679813 C 72.417801 19.119752 71.995609 17.052596 71.039074 15.494145 C 70.067726 13.897182 68.427427 13.015743 66.494132 13.015743 z M 78.642744 13.015743 C 77.291534 13.015743 76.091803 13.383031 75.177839 14.154175 C 74.284808 14.893946 73.660333 15.947854 73.284932 17.230473 L 73.283381 17.234607 L 73.283381 17.240291 C 72.928935 18.503967 72.761449 19.979879 72.761449 21.679813 C 72.761449 24.224846 73.171219 26.293491 74.09005 27.873234 L 74.091601 27.876851 L 74.095735 27.880985 C 75.053589 29.482914 76.697224 30.365071 78.642744 30.365071 C 80.008667 30.365071 81.217885 30.000187 82.13452 29.224572 C 83.023703 28.472187 83.645641 27.412406 84.021227 26.129154 L 84.023294 26.129154 L 84.023294 26.127087 C 84.392872 24.848964 84.566413 23.368607 84.566413 21.679813 C 84.566413 19.119752 84.14422 17.052596 83.187686 15.494145 C 82.216337 13.897182 80.576039 13.015743 78.642744 13.015743 z M 54.345519 13.03693 C 53.386814 13.03693 52.495853 13.195949 51.695552 13.529407 C 50.892669 13.863942 50.214167 14.374806 49.720479 15.043009 C 49.200747 15.731566 48.953084 16.593087 48.953084 17.517794 C 48.953084 18.610327 49.269721 19.613824 49.91995 20.390486 L 49.925634 20.398238 L 49.933386 20.405989 C 50.226037 20.738188 50.631327 20.970953 50.98035 21.254 C 50.790266 21.377944 50.579283 21.467133 50.398474 21.605399 C 49.831891 22.038668 49.362183 22.568436 49.007861 23.175846 L 49.002176 23.183598 L 48.998042 23.191349 C 48.633562 23.847412 48.462674 24.606034 48.462674 25.418086 C 48.462674 26.903963 49.023986 28.221969 50.097717 29.1052 L 50.101334 29.107267 L 50.103401 29.111401 C 51.185667 29.984196 52.653761 30.365071 54.408048 30.365071 C 56.063891 30.365071 57.493808 29.952355 58.572135 29.062308 L 58.574202 29.060241 C 59.666521 28.155664 60.248001 26.833839 60.248001 25.353491 C 60.248001 24.533138 60.055777 23.765477 59.650622 23.116935 C 59.291214 22.520222 58.806439 22.002856 58.217118 21.575944 C 58.045483 21.447404 57.832555 21.355547 57.650227 21.23643 C 57.754356 21.16228 57.877997 21.106916 57.978372 21.029207 L 57.984574 21.023523 L 57.992325 21.017322 C 58.505375 20.603573 58.925225 20.114892 59.236694 19.56418 C 59.589518 18.966046 59.759659 18.272352 59.759659 17.538981 C 59.759659 16.154338 59.190526 14.917858 58.130818 14.140739 C 57.106725 13.389737 55.812622 13.03693 54.346036 13.03693 L 54.345519 13.03693 z M 36.209159 13.249837 L 36.209159 16.687353 L 43.896545 16.687353 L 37.673669 30.152164 L 41.654305 30.152164 L 48.121093 15.749943 L 48.121093 13.249837 L 36.209159 13.249837 z M 54.324332 16.283244 C 55.010729 16.283244 55.455894 16.435483 55.767655 16.675984 L 55.775406 16.681669 L 55.781091 16.685803 C 56.062603 16.894926 56.173832 17.096313 56.173832 17.601509 C 56.173832 18.173 56.031483 18.472076 55.710811 18.748209 L 55.707193 18.751827 L 55.700992 18.758028 C 55.367431 19.053468 54.89644 19.304783 54.398229 19.547127 C 54.075696 19.393763 53.748864 19.241335 53.470637 19.084106 C 53.140939 18.885245 52.903404 18.662404 52.726497 18.420064 C 52.600458 18.231759 52.517724 17.987764 52.517724 17.601509 C 52.517724 17.096313 52.628436 16.894926 52.909948 16.685803 L 52.912015 16.683736 C 53.251809 16.42889 53.687769 16.283244 54.324332 16.283244 z M 66.494132 16.347839 C 67.362555 16.347839 67.755826 16.599192 68.127107 17.396354 L 68.129174 17.400488 L 68.130724 17.404105 C 68.528661 18.234087 68.789082 19.681976 68.789082 21.679813 C 68.789082 23.706909 68.527323 25.170704 68.130724 25.997896 L 68.130724 25.999963 L 68.129174 26.00203 C 67.760132 26.783531 67.366176 27.033492 66.494132 27.033492 C 65.610625 27.033492 65.21267 26.779414 64.843586 25.990145 C 64.467081 25.155643 64.220885 23.694437 64.220885 21.679813 C 64.220885 19.680683 64.466758 18.228761 64.843586 17.392737 C 65.21267 16.603469 65.610624 16.347839 66.494132 16.347839 z M 78.642744 16.347839 C 79.511167 16.347839 79.905989 16.599192 80.27727 17.396354 L 80.279337 17.400488 L 80.281404 17.404105 C 80.67934 18.234087 80.939761 19.681976 80.939761 21.679813 C 80.939761 23.706909 80.678003 25.170704 80.281404 25.997896 L 80.279337 25.999963 L 80.279337 26.00203 C 79.910295 26.783531 79.514788 27.033492 78.642744 27.033492 C 77.759234 27.033492 77.361284 26.779418 76.992199 25.990145 C 76.615694 25.155643 76.368981 23.694437 76.368981 21.679813 C 76.368981 19.680683 76.615372 18.228761 76.992199 17.392737 C 77.361284 16.603465 77.759234 16.347839 78.642744 16.347839 z M 54.105224 23.091613 L 54.105741 23.091613 C 54.970229 23.428203 55.647574 23.810205 56.116987 24.210925 L 56.123189 24.215059 L 56.126806 24.218676 C 56.539772 24.561135 56.683878 24.867306 56.683878 25.375195 C 56.683878 25.947806 56.527091 26.294681 56.144376 26.638684 C 55.812401 26.935714 55.265945 27.140462 54.367223 27.140462 C 53.40798 27.140462 52.842392 26.925385 52.538911 26.648502 C 52.176431 26.302986 52.029382 25.965948 52.029382 25.439274 C 52.029382 24.839579 52.183859 24.452564 52.51359 24.103438 C 52.843109 23.755089 53.426634 23.414518 54.105224 23.091613 z " />
    <path
       d="m 37.129103,122.35543 q 0,0.39185 -0.158859,0.70957 -0.15886,0.31243 -0.487169,0.49776 -0.323014,0.18004 -0.826068,0.18004 -0.704276,0 -1.074948,-0.38126 -0.365376,-0.38656 -0.365376,-1.0167 V 119.909 h 0.476577 v 2.45173 q 0,0.46069 0.243585,0.71486 0.248879,0.25418 0.746638,0.25418 0.513646,0 0.741344,-0.27006 0.232993,-0.27536 0.232993,-0.70428 V 119.909 h 0.471283 z m 2.780043,0.55071 q 0,0.41304 -0.307128,0.62485 -0.307128,0.21181 -0.826069,0.21181 -0.296537,0 -0.513645,-0.0477 -0.211812,-0.0477 -0.375967,-0.13239 v -0.42362 q 0.16945,0.0847 0.407739,0.15886 0.243584,0.0688 0.492464,0.0688 0.354786,0 0.513645,-0.11121 0.158859,-0.11649 0.158859,-0.30712 0,-0.10591 -0.05825,-0.19063 -0.05825,-0.0847 -0.211813,-0.16945 -0.148268,-0.0847 -0.42892,-0.19064 -0.275356,-0.1059 -0.471282,-0.21181 -0.195927,-0.1059 -0.301833,-0.25417 -0.105906,-0.14827 -0.105906,-0.38127 0,-0.36008 0.291242,-0.556 0.296537,-0.19593 0.773115,-0.19593 0.25947,0 0.481873,0.053 0.227699,0.0477 0.423625,0.13768 l -0.158859,0.37067 q -0.180041,-0.0741 -0.375967,-0.12708 -0.195927,-0.053 -0.402444,-0.053 -0.285946,0 -0.43951,0.0953 -0.148269,0.09 -0.148269,0.24888 0,0.11649 0.06884,0.20122 0.06884,0.0794 0.227698,0.15886 0.164155,0.0741 0.434216,0.18004 0.27006,0.10061 0.460692,0.20652 0.190631,0.1059 0.291242,0.25947 0.100611,0.14827 0.100611,0.37596 z m 1.78452,-2.10753 q 0.365376,0 0.624846,0.15886 0.264766,0.15886 0.402444,0.4501 0.142973,0.28595 0.142973,0.67251 v 0.28065 H 40.92055 q 0.01059,0.48187 0.243585,0.73605 0.238289,0.24887 0.661913,0.24887 0.270061,0 0.476578,-0.0477 0.211813,-0.053 0.434216,-0.14827 v 0.40774 q -0.217108,0.0953 -0.42892,0.13768 -0.211813,0.0477 -0.503055,0.0477 -0.402443,0 -0.714867,-0.16415 -0.307128,-0.16416 -0.481873,-0.48717 -0.16945,-0.32831 -0.16945,-0.79959 0,-0.46599 0.153564,-0.79959 0.15886,-0.33361 0.439511,-0.51365 0.285947,-0.18004 0.661914,-0.18004 z m -0.0053,0.38126 q -0.333604,0 -0.529531,0.21711 -0.190631,0.21181 -0.227698,0.59308 h 1.44562 q -0.0053,-0.36009 -0.16945,-0.58249 -0.164155,-0.2277 -0.518941,-0.2277 z m 5.104676,0.9055 q -0.06884,-0.21711 -0.121793,-0.42362 -0.04766,-0.21182 -0.07413,-0.32831 h -0.02118 q -0.02118,0.11649 -0.06884,0.32831 -0.04766,0.20651 -0.121792,0.42892 l -0.50835,1.59388 h -0.529531 l -0.778411,-2.83828 h 0.481874 l 0.391853,1.51446 q 0.05825,0.2277 0.111201,0.46069 0.05295,0.23299 0.07413,0.38656 h 0.02118 q 0.02118,-0.09 0.04766,-0.22241 0.03177,-0.13238 0.06884,-0.27535 0.03707,-0.14827 0.07413,-0.26477 l 0.503054,-1.59918 h 0.50835 l 0.487169,1.59918 q 0.05825,0.18004 0.111201,0.39185 0.05825,0.21182 0.07943,0.36538 h 0.02118 q 0.01589,-0.13238 0.06884,-0.36538 0.05825,-0.23299 0.121792,-0.47657 l 0.397148,-1.51446 h 0.476578 l -0.789001,2.83828 h -0.545417 z m 2.568222,-2.29816 q 0.105906,0 0.185335,0.0741 0.08473,0.0688 0.08473,0.2224 0,0.14827 -0.08473,0.22241 -0.07943,0.0741 -0.185335,0.0741 -0.116497,0 -0.195927,-0.0741 -0.07943,-0.0741 -0.07943,-0.22241 0,-0.15356 0.07943,-0.2224 0.07943,-0.0741 0.195927,-0.0741 z m 0.227698,1.06435 v 2.83829 h -0.465987 v -2.83829 z m 1.84806,2.50998 q 0.105906,0 0.217108,-0.0159 0.111201,-0.0212 0.180041,-0.0424 v 0.35479 q -0.07414,0.0371 -0.211813,0.0583 -0.137678,0.0265 -0.264765,0.0265 -0.222403,0 -0.413035,-0.0741 -0.185335,-0.0794 -0.301832,-0.27006 -0.116497,-0.19063 -0.116497,-0.53483 v -1.65214 h -0.402444 v -0.2224 l 0.407739,-0.18533 0.185336,-0.60367 h 0.275356 v 0.65132 h 0.820773 v 0.36008 H 50.99222 v 1.64155 q 0,0.25947 0.121792,0.38656 0.127088,0.12179 0.323014,0.12179 z m 1.429735,-2.51527 q 0,0.21181 -0.02648,0.39715 h 0.03177 q 0.137678,-0.21711 0.370672,-0.32831 0.238289,-0.1112 0.513645,-0.1112 0.51894,0 0.77841,0.24888 0.259471,0.24358 0.259471,0.789 v 1.84806 h -0.460692 v -1.81629 q 0,-0.6831 -0.635438,-0.6831 -0.476577,0 -0.656618,0.27006 -0.174745,0.26477 -0.174745,0.76253 v 1.4668 h -0.465987 v -4.02444 h 0.465987 z m 3.712012,3.84969 q -0.127087,0 -0.222403,-0.0212 -0.09531,-0.0159 -0.16945,-0.0477 v -0.40244 q 0.08472,0.0212 0.180041,0.0371 0.09532,0.0159 0.201222,0.0159 0.132382,0 0.248879,-0.0529 0.121792,-0.053 0.195927,-0.18534 0.07413,-0.13238 0.07413,-0.37067 V 119.909 h 0.476578 v 3.7226 q 0,0.54542 -0.270061,0.80489 -0.270061,0.25947 -0.714867,0.25947 z m 4.384521,-2.43055 q 0,0.70428 -0.360081,1.09084 -0.354786,0.38655 -0.963747,0.38655 -0.375967,0 -0.672504,-0.16945 -0.291242,-0.17474 -0.460692,-0.50305 -0.16945,-0.33361 -0.16945,-0.80489 0,-0.70427 0.354786,-1.08554 0.354786,-0.38126 0.963746,-0.38126 0.386558,0 0.6778,0.17475 0.296537,0.16945 0.460692,0.49775 0.16945,0.32302 0.16945,0.7943 z m -2.144601,0 q 0,0.50306 0.195927,0.79959 0.201222,0.29125 0.635437,0.29125 0.42892,0 0.630142,-0.29125 0.201222,-0.29653 0.201222,-0.79959 0,-0.50305 -0.201222,-0.789 -0.201222,-0.28595 -0.635437,-0.28595 -0.434216,0 -0.630142,0.28595 -0.195927,0.28595 -0.195927,0.789 z m 2.329932,-1.41385 h 0.497759 l 0.614256,1.61507 q 0.07943,0.21182 0.142973,0.40774 0.06354,0.19063 0.09532,0.36538 h 0.02118 q 0.03177,-0.13238 0.100611,-0.3442 0.06884,-0.2171 0.142973,-0.43421 l 0.577189,-1.60978 h 0.503055 l -1.223217,3.23014 q -0.148269,0.40245 -0.386558,0.64074 -0.232993,0.23828 -0.646027,0.23828 -0.127088,0 -0.222403,-0.0159 -0.09532,-0.0106 -0.164155,-0.0265 v -0.37067 q 0.05825,0.0106 0.137678,0.0212 0.08472,0.0106 0.174745,0.0106 0.243585,0 0.391853,-0.13768 0.153564,-0.13767 0.238289,-0.36537 l 0.148269,-0.37597 z m 4.993478,2.05458 q 0,0.41304 -0.307128,0.62485 -0.307128,0.21181 -0.826068,0.21181 -0.296537,0 -0.513645,-0.0477 -0.211812,-0.0477 -0.375967,-0.13239 v -0.42362 q 0.16945,0.0847 0.407739,0.15886 0.243584,0.0688 0.492464,0.0688 0.354785,0 0.513645,-0.11121 0.158859,-0.11649 0.158859,-0.30712 0,-0.10591 -0.05825,-0.19063 -0.05825,-0.0847 -0.211813,-0.16945 -0.148268,-0.0847 -0.42892,-0.19064 -0.275356,-0.1059 -0.471282,-0.21181 -0.195927,-0.1059 -0.301833,-0.25417 -0.105906,-0.14827 -0.105906,-0.38127 0,-0.36008 0.291242,-0.556 0.296537,-0.19593 0.773115,-0.19593 0.25947,0 0.481873,0.053 0.227698,0.0477 0.423625,0.13768 l -0.158859,0.37067 q -0.180041,-0.0741 -0.375967,-0.12708 -0.195927,-0.053 -0.402444,-0.053 -0.285947,0 -0.439511,0.0953 -0.148268,0.09 -0.148268,0.24888 0,0.11649 0.06884,0.20122 0.06884,0.0794 0.227698,0.15886 0.164155,0.0741 0.434215,0.18004 0.270061,0.10061 0.460692,0.20652 0.190632,0.1059 0.291242,0.25947 0.100611,0.14827 0.100611,0.37596 z m 1.636253,0.4554 q 0.105906,0 0.217108,-0.0159 0.111201,-0.0212 0.18004,-0.0424 v 0.35479 q -0.07413,0.0371 -0.211812,0.0583 -0.137678,0.0265 -0.264766,0.0265 -0.222403,0 -0.413034,-0.0741 -0.185336,-0.0794 -0.301833,-0.27006 -0.116496,-0.19063 -0.116496,-0.53483 v -1.65214 h -0.402444 v -0.2224 l 0.407739,-0.18533 0.185336,-0.60367 h 0.275356 v 0.65132 h 0.820773 v 0.36008 H 67.33355 v 1.64155 q 0,0.25947 0.121792,0.38656 0.127087,0.12179 0.323014,0.12179 z m 1.202034,-3.57433 q 0.105906,0 0.185336,0.0741 0.08472,0.0688 0.08472,0.2224 0,0.14827 -0.08472,0.22241 -0.07943,0.0741 -0.185336,0.0741 -0.116497,0 -0.195926,-0.0741 -0.07943,-0.0741 -0.07943,-0.22241 0,-0.15356 0.07943,-0.2224 0.07943,-0.0741 0.195926,-0.0741 z m 0.227698,1.06435 v 2.83829 h -0.465987 v -2.83829 z m 2.038693,2.89124 q -0.375967,0 -0.672505,-0.15356 -0.291242,-0.15357 -0.460691,-0.47658 -0.164155,-0.32301 -0.164155,-0.82607 0,-0.52423 0.174745,-0.85254 0.174745,-0.32831 0.471283,-0.48188 0.301832,-0.15356 0.683095,-0.15356 0.217107,0 0.418329,0.0477 0.201222,0.0424 0.328309,0.1059 l -0.142973,0.38656 q -0.127087,-0.0477 -0.296537,-0.09 -0.16945,-0.0424 -0.317719,-0.0424 -0.836659,0 -0.836659,1.07495 0,0.51364 0.201222,0.789 0.206517,0.27006 0.608961,0.27006 0.232993,0 0.407738,-0.0477 0.180041,-0.0477 0.32831,-0.1165 v 0.41304 q -0.142974,0.0741 -0.317719,0.1112 -0.16945,0.0424 -0.413034,0.0424 z m 1.863944,-1.97515 q 0,0.0847 -0.01059,0.22241 -0.0053,0.13767 -0.01059,0.23828 h 0.02118 q 0.03177,-0.0424 0.09532,-0.12179 0.06354,-0.0794 0.127087,-0.15886 0.06884,-0.0847 0.116497,-0.13768 l 0.905498,-0.95845 h 0.545417 l -1.149082,1.21263 1.228512,1.62566 h -0.561303 l -0.984928,-1.32383 -0.323014,0.28065 v 1.04318 h -0.460692 v -4.02444 h 0.460692 z m 5.427696,-1.49328 q -0.60896,0 -0.958451,0.40774 -0.34949,0.40774 -0.34949,1.11731 0,0.70428 0.323014,1.11731 0.328309,0.40774 0.979632,0.40774 0.24888,0 0.471283,-0.0424 0.222403,-0.0424 0.434215,-0.10591 v 0.41304 q -0.211812,0.0794 -0.439511,0.1165 -0.222403,0.0371 -0.534826,0.0371 -0.577189,0 -0.963747,-0.23829 -0.386557,-0.23828 -0.582484,-0.6778 -0.190631,-0.43951 -0.190631,-1.03258 0,-0.57189 0.206517,-1.00611 0.211813,-0.43951 0.619552,-0.6831 0.407738,-0.24887 0.990223,-0.24887 0.59837,0 1.043176,0.2224 l -0.190632,0.40244 q -0.174745,-0.0794 -0.391852,-0.14297 -0.211813,-0.0635 -0.465988,-0.0635 z m 4.130344,1.99104 q 0,0.70428 -0.360081,1.09084 -0.354786,0.38655 -0.963747,0.38655 -0.375967,0 -0.672504,-0.16945 -0.291242,-0.17474 -0.460692,-0.50305 -0.16945,-0.33361 -0.16945,-0.80489 0,-0.70427 0.354786,-1.08554 0.354786,-0.38126 0.963746,-0.38126 0.386558,0 0.6778,0.17475 0.296537,0.16945 0.460692,0.49775 0.16945,0.32302 0.16945,0.7943 z m -2.144601,0 q 0,0.50306 0.195927,0.79959 0.201222,0.29125 0.635437,0.29125 0.42892,0 0.630142,-0.29125 0.201222,-0.29653 0.201222,-0.79959 0,-0.50305 -0.201222,-0.789 -0.201222,-0.28595 -0.635437,-0.28595 -0.434216,0 -0.630142,0.28595 -0.195927,0.28595 -0.195927,0.789 z m 4.246835,-1.4668 q 0.50835,0 0.76782,0.24888 0.259471,0.24358 0.259471,0.7943 v 1.84806 h -0.460692 v -1.81629 q 0,-0.6831 -0.635438,-0.6831 -0.471282,0 -0.651323,0.26477 -0.18004,0.26476 -0.18004,0.76252 v 1.4721 h -0.465988 v -2.83829 h 0.375967 l 0.06884,0.38656 h 0.02648 q 0.137678,-0.2224 0.381262,-0.32831 0.243585,-0.1112 0.513645,-0.1112 z m 2.854174,2.56293 q 0.105906,0 0.217108,-0.0159 0.111201,-0.0212 0.18004,-0.0424 v 0.35479 q -0.07413,0.0371 -0.211812,0.0583 -0.137678,0.0265 -0.264766,0.0265 -0.222403,0 -0.413034,-0.0741 -0.185336,-0.0794 -0.301833,-0.27006 -0.116496,-0.19063 -0.116496,-0.53483 v -1.65214 h -0.402444 v -0.2224 l 0.407739,-0.18533 0.185336,-0.60367 h 0.275356 v 0.65132 h 0.820773 v 0.36008 h -0.820773 v 1.64155 q 0,0.25947 0.121792,0.38656 0.127087,0.12179 0.323014,0.12179 z m 2.287573,-2.56293 q 0.07943,0 0.16945,0.0106 0.09531,0.005 0.164154,0.0212 l -0.05825,0.42892 q -0.06884,-0.0159 -0.153564,-0.0265 -0.07943,-0.0106 -0.153564,-0.0106 -0.217108,0 -0.407739,0.12179 -0.190631,0.11649 -0.307128,0.3336 -0.111202,0.21181 -0.111202,0.49776 v 1.51446 h -0.465987 v -2.83829 h 0.381263 l 0.05295,0.51894 h 0.02118 q 0.137678,-0.23299 0.354786,-0.40244 0.217107,-0.16945 0.513645,-0.16945 z m 3.224841,1.4668 q 0,0.70428 -0.360081,1.09084 -0.354786,0.38655 -0.963746,0.38655 -0.375967,0 -0.672505,-0.16945 -0.291242,-0.17474 -0.460692,-0.50305 -0.169449,-0.33361 -0.169449,-0.80489 0,-0.70427 0.354785,-1.08554 0.354786,-0.38126 0.963747,-0.38126 0.386557,0 0.677799,0.17475 0.296538,0.16945 0.460692,0.49775 0.16945,0.32302 0.16945,0.7943 z m -2.1446,0 q 0,0.50306 0.195926,0.79959 0.201222,0.29125 0.635437,0.29125 0.428921,0 0.630142,-0.29125 0.201222,-0.29653 0.201222,-0.79959 0,-0.50305 -0.201222,-0.789 -0.201221,-0.28595 -0.635437,-0.28595 -0.434215,0 -0.630142,0.28595 -0.195926,0.28595 -0.195926,0.789 z m 3.346636,1.42444 h -0.465987 v -4.02444 h 0.465987 z m 1.366184,0 H 95.23982 v -4.02444 h 0.465987 z m 1.99633,-2.89124 q 0.365377,0 0.624847,0.15886 0.264765,0.15886 0.402443,0.4501 0.142974,0.28595 0.142974,0.67251 v 0.28065 h -1.943379 q 0.01059,0.48187 0.243584,0.73605 0.238289,0.24887 0.661914,0.24887 0.270061,0 0.476578,-0.0477 0.211812,-0.053 0.434215,-0.14827 v 0.40774 q -0.217107,0.0953 -0.42892,0.13768 -0.211812,0.0477 -0.503054,0.0477 -0.402444,0 -0.714867,-0.16415 -0.307128,-0.16416 -0.481873,-0.48717 -0.16945,-0.32831 -0.16945,-0.79959 0,-0.46599 0.153564,-0.79959 0.158859,-0.33361 0.43951,-0.51365 0.285947,-0.18004 0.661914,-0.18004 z m -0.0053,0.38126 q -0.333605,0 -0.529531,0.21711 -0.190631,0.21181 -0.227698,0.59308 h 1.445619 q -0.0053,-0.36009 -0.16945,-0.58249 -0.164154,-0.2277 -0.51894,-0.2277 z m 3.219538,-0.38126 q 0.0794,0 0.16945,0.0106 0.0953,0.005 0.16416,0.0212 l -0.0583,0.42892 q -0.0688,-0.0159 -0.15356,-0.0265 -0.0794,-0.0106 -0.15357,-0.0106 -0.2171,0 -0.40774,0.12179 -0.19063,0.11649 -0.30712,0.3336 -0.11121,0.21181 -0.11121,0.49776 v 1.51446 h -0.465983 v -2.83829 h 0.381263 l 0.05295,0.51894 h 0.0212 q 0.13768,-0.23299 0.35479,-0.40244 0.21711,-0.16945 0.51364,-0.16945 z"
       id="text30"
       style="font-size:5.29531px;line-height:1.25;stroke-width:0.264583"
       aria-label="Use with Joystick Controller" />
    <path
       id="rect15"
       style="display:inline;opacity:0.6;fill:url(#linearGradient16);stroke-width:3.78354;stroke-linecap:round;stroke-linejoin:round;stroke-dashoffset:149.514;paint-order:markers stroke fill"
       d="m 118.33242,122.8504 c 1.4918,-35.996458 0.36635,-74.514048 0.28396,-110.92512 -0.004,-1.65656 -0.81687,-2.5331025 -2.47231,-2.6015725 -31.122233,-1.28735 -64.449969,-0.32652 -95.919224,-0.24485 -1.65659,0.004 -1.86822,0.72903 -0.47267,1.6221185 0,0 48.134893,9.095311 69.996003,33.526583 21.861111,24.431273 23.132751,67.115111 27.430661,78.800221 0.57188,1.55481 1.08498,1.47805 1.15358,-0.17738 z"
       sodipodi:nodetypes="ccccczsc" />
    <text
       xml:space="preserve"
       style="font-size:10.482px;line-height:1.25;font-family:'Space Age';-inkscape-font-specification:'Space Age, Normal';text-align:center;text-orientation:upright;text-anchor:middle;display:none;fill:#ff6600;stroke-width:0.130578"
       x="67.204163"
       y="46.523048"
       id="text7"
       sodipodi:insensitive="true"><tspan
         sodipodi:role="line"
         id="tspan1"
         style="fill:#ff6600;stroke-width:0.130578"
         x="0"
         y="0">SHIT</tspan><tspan
         sodipodi:role="line"
         style="fill:#ff6600;stroke-width:0.130578"
         x="0"
         y="0"
         id="tspan7">Blister</tspan></text>
    <text
       xml:space="preserve"
       style="font-size:10.482px;line-height:1.25;font-family:'Space Age';-inkscape-font-specification:'Space Age, Normal';text-align:center;text-orientation:upright;text-anchor:middle;display:none;fill:#ffff00;stroke-width:0.130578"
       x="67.73333"
       y="45.993881"
       id="text10"
       sodipodi:insensitive="true"><tspan
         sodipodi:role="line"
         id="tspan8"
         style="fill:#ffff00;stroke-width:0.130578"
         x="0"
         y="0">SHIT</tspan><tspan
         sodipodi:role="line"
         style="fill:#ffff00;stroke-width:0.130578"
         x="0"
         y="0"
         id="tspan9">Blister</tspan></text>
  </g>
</svg>
