<?xml version="1.0" encoding="UTF-8" standalone="no"?>
<!-- Created with Inkscape (http://www.inkscape.org/) -->

<svg
   width="512"
   height="512"
   viewBox="0 0 135.46666 135.46667"
   version="1.1"
   id="svg5"
   inkscape:version="1.4.2 (ebf0e940d0, 2025-05-08)"
   sodipodi:docname="application-vnd.flatpak.svg"
   xmlns:inkscape="http://www.inkscape.org/namespaces/inkscape"
   xmlns:sodipodi="http://sodipodi.sourceforge.net/DTD/sodipodi-0.dtd"
   xmlns:xlink="http://www.w3.org/1999/xlink"
   xmlns="http://www.w3.org/2000/svg"
   xmlns:svg="http://www.w3.org/2000/svg">
  <sodipodi:namedview
     id="namedview7"
     pagecolor="#242424"
     bordercolor="#666666"
     borderopacity="1"
     inkscape:showpageshadow="0"
     inkscape:pageopacity="0"
     inkscape:pagecheckerboard="1"
     inkscape:deskcolor="#000000"
     inkscape:document-units="px"
     showgrid="false"
     inkscape:zoom="0.5"
     inkscape:cx="933"
     inkscape:cy="145"
     inkscape:window-width="3256"
     inkscape:window-height="1080"
     inkscape:window-x="1864"
     inkscape:window-y="0"
     inkscape:window-maximized="0"
     inkscape:current-layer="layer1" />
  <defs
     id="defs2">
    <linearGradient
       id="linearGradient1"
       inkscape:collect="always">
      <stop
         style="stop-color:#000000;stop-opacity:0;"
         offset="0"
         id="stop2" />
      <stop
         style="stop-color:#000000;stop-opacity:1;"
         offset="1"
         id="stop1" />
    </linearGradient>
    <inkscape:path-effect
       effect="perspective-envelope"
       up_left_point="0,110.78418"
       up_right_point="135.46666,110.78418"
       down_left_point="0,114.38689"
       down_right_point="135.46666,114.38689"
       id="path-effect4"
       is_visible="true"
       lpeversion="1"
       deform_type="perspective"
       horizontal_mirror="false"
       vertical_mirror="true"
       overflow_perspective="false" />
    <inkscape:path-effect
       effect="perspective-envelope"
       up_left_point="5.1477657,24.108475"
       up_right_point="130.52224,24.108475"
       down_left_point="0,110.78418"
       down_right_point="135.46666,110.78418"
       id="path-effect3"
       is_visible="true"
       lpeversion="1"
       deform_type="perspective"
       horizontal_mirror="false"
       vertical_mirror="true"
       overflow_perspective="false" />
    <inkscape:path-effect
       effect="perspective-envelope"
       up_left_point="15.774204,24.108475"
       up_right_point="119.43411,24.108475"
       down_left_point="0,110.78418"
       down_right_point="135.46666,110.78418"
       id="path-effect1"
       is_visible="true"
       lpeversion="1"
       deform_type="perspective"
       horizontal_mirror="false"
       vertical_mirror="true"
       overflow_perspective="false" />
    <linearGradient
       inkscape:collect="always"
       xlink:href="#linearGradient1"
       id="linearGradient2"
       x1="200.55499"
       y1="38.463966"
       x2="200.55499"
       y2="97.120605"
       gradientUnits="userSpaceOnUse"
       gradientTransform="translate(-132.82177,-29.328317)" />
  </defs>
  <g
     inkscape:label="shitpak"
     inkscape:groupmode="layer"
     id="layer1">
    <path
       sodipodi:type="star"
       style="display:none;opacity:1;fill:#4891da;fill-opacity:1;stroke:none;stroke-width:0.264583;stroke-linecap:round;stroke-linejoin:round;stroke-miterlimit:12;paint-order:markers stroke fill"
       id="path4"
       inkscape:flatsided="true"
       sodipodi:sides="6"
       sodipodi:cx="174.32858"
       sodipodi:cy="25.773842"
       sodipodi:r1="67.689537"
       sodipodi:r2="58.620857"
       sodipodi:arg1="1.5707963"
       sodipodi:arg2="2.0943951"
       inkscape:rounded="0"
       inkscape:randomized="0"
       d="m 174.32858,93.463379 -58.62085,-33.844767 -1e-5,-67.6895371 58.62086,-33.8447699 58.62086,33.8447668 0,67.6895372 z"
       transform="translate(-106.59525,41.959491)"
       sodipodi:insensitive="true" />
    <path
       id="path14"
       style="baseline-shift:baseline;display:inline;overflow:visible;vector-effect:none;fill:#4891da;stroke-width:0.866554;stroke-linecap:round;stroke-linejoin:round;stroke-miterlimit:12;paint-order:markers stroke fill;enable-background:accumulate;stop-color:#000000"
       d="m 67.732816,0.38188883 c -1.536662,1.202e-4 -3.046225,0.40469031 -4.376994,1.17305497 L 12.55789,30.882352 c -2.708589,1.564039 -4.3770731,4.454239 -4.3769941,7.581966 v 58.656884 c 4.74e-4,3.127178 1.668884,6.016658 4.3769941,7.580418 l 50.797932,29.32896 c 2.708547,1.56355 6.04544,1.56355 8.753987,0 l 50.797931,-29.32896 c 2.70811,-1.56376 4.37652,-4.45324 4.377,-7.580418 V 38.464318 c 8e-5,-3.127728 -1.66841,-6.017928 -4.377,-7.581966 L 72.109809,1.5549438 C 70.779041,0.78657931 69.269477,0.38200921 67.732816,0.38188883 Z M 67.733332,9.1358764 118.53126,38.463802 V 97.120686 L 67.733332,126.44913 16.934883,97.120686 V 38.463802 Z"
       sodipodi:nodetypes="ccccccccccccccccccccc" />
    <path
       style="baseline-shift:baseline;display:inline;overflow:visible;vector-effect:none;fill:#4891da;stroke-width:0.866554;stroke-linecap:round;stroke-linejoin:round;stroke-miterlimit:12;paint-order:markers stroke fill;enable-background:accumulate;stop-color:#000000;opacity:1"
       d="M 67.73323,126.44888 16.93512,97.120574 16.935112,38.463961 67.73323,9.1356528 118.53135,38.463958 v 58.656613 z"
       id="path15" />
    <path
       id="rect4"
       style="display:inline;opacity:1;fill:#ffffff;stroke-width:0.354377;stroke-linecap:round;stroke-linejoin:round;stroke-miterlimit:12;paint-order:markers stroke fill"
       d="M 67.733229,9.1356474 118.53134,38.463968 67.733233,67.792285 67.733229,9.4504604 Z"
       sodipodi:nodetypes="ccccc" />
    <path
       id="rect5"
       style="display:inline;fill:#ffffff;stroke-width:0.380804;stroke-linecap:round;stroke-linejoin:round;stroke-miterlimit:12;paint-order:markers stroke fill;opacity:1"
       transform="matrix(-2.300973e-7,1,-0.86602552,-0.4999998,0,0)"
       d="m 28.686487,-78.211609 h 58.656616 v 58.656616 H 28.686487 Z" />
    <path
       id="path1"
       style="display:inline;opacity:0.6;fill:url(#linearGradient2);stroke-width:0.354378;stroke-linecap:round;stroke-linejoin:round;stroke-miterlimit:12;paint-order:markers stroke fill"
       d="M 67.733232,9.1356485 118.53134,38.463965 67.733232,67.792288 16.935122,38.463962 Z" />
    <path
       id="path6"
       style="baseline-shift:baseline;display:none;overflow:visible;vector-effect:none;fill:#ffffff;stroke-width:1.03395;enable-background:accumulate;stop-color:#000000"
       d="m 67.666153,9.0175373 -10e-4,5.168e-4 0.06821,0.1178223 z m 0.06718,0.1183391 -41.445014,23.9282546 -9.284188,5.360397 -0.06873,0.03979 0.273755,0.157878 50.524073,-29.1717356 1.02e-4,-0.3145842 z M 118.25635,38.622734 v 58.338271 l -50.523121,29.173445 1.07e-4,0.31416 c 5.368019,-3.09868 10.73565,-6.19803 16.103413,-9.29715 L 118.53179,97.120646 V 38.462768 h -5.2e-4 z"
       sodipodi:nodetypes="ccccccccccccccccccccc" />
    <path
       id="path2"
       style="baseline-shift:baseline;display:inline;overflow:visible;vector-effect:none;fill:#ffffff;stroke-width:0.866554;stroke-linecap:round;stroke-linejoin:round;stroke-miterlimit:12;paint-order:markers stroke fill;enable-background:accumulate;stop-color:#000000"
       d="M 67.732816 0.38240559 C 66.221456 0.38240559 64.710097 0.77317085 63.355822 1.5549438 L 12.55789 30.883903 C 11.203835 31.665783 10.109625 32.779104 9.3539509 34.087841 C 11.447925 35.296916 16.934367 38.464835 16.934367 38.464835 L 67.732299 9.1363931 C 67.732299 9.1363931 67.732816 2.3234486 67.732816 0.38240559 z M 126.1122 34.086808 C 119.03307 38.173946 118.53126 38.463802 118.53126 38.463802 L 118.53126 97.120686 L 67.733332 126.44913 C 67.733332 126.44913 67.732816 133.26208 67.732816 135.20312 C 69.244176 135.20312 70.755534 134.81235 72.109809 134.03058 L 122.90774 104.70162 C 125.61585 103.13786 127.28426 100.24838 127.28474 97.121202 L 127.28474 38.464318 C 127.28478 36.900454 126.86788 35.395829 126.1122 34.086808 z " />
  </g>
</svg>
