<?xml version="1.0" encoding="UTF-8" standalone="no"?>
<!-- Created with Inkscape (http://www.inkscape.org/) -->

<svg
   width="512"
   height="512"
   viewBox="0 0 135.46666 135.46667"
   version="1.1"
   id="svg5"
   inkscape:version="1.4.2 (ebf0e940d0, 2025-05-08)"
   sodipodi:docname="application-x-trash.svg"
   xmlns:inkscape="http://www.inkscape.org/namespaces/inkscape"
   xmlns:sodipodi="http://sodipodi.sourceforge.net/DTD/sodipodi-0.dtd"
   xmlns:xlink="http://www.w3.org/1999/xlink"
   xmlns="http://www.w3.org/2000/svg"
   xmlns:svg="http://www.w3.org/2000/svg">
  <sodipodi:namedview
     id="namedview7"
     pagecolor="#292929"
     bordercolor="#666666"
     borderopacity="1"
     inkscape:showpageshadow="0"
     inkscape:pageopacity="0"
     inkscape:pagecheckerboard="1"
     inkscape:deskcolor="#1a1a1a"
     inkscape:document-units="px"
     showgrid="false"
     inkscape:zoom="1.84375"
     inkscape:cx="384.27118"
     inkscape:cy="261.15254"
     inkscape:window-width="3256"
     inkscape:window-height="1080"
     inkscape:window-x="1864"
     inkscape:window-y="0"
     inkscape:window-maximized="0"
     inkscape:current-layer="layer1" />
  <defs
     id="defs2">
    <linearGradient
       id="linearGradient3"
       inkscape:collect="always">
      <stop
         style="stop-color:#000000;stop-opacity:1;"
         offset="0"
         id="stop3" />
      <stop
         style="stop-color:#ffffff;stop-opacity:1;"
         offset="1"
         id="stop4" />
    </linearGradient>
    <linearGradient
       id="linearGradient35"
       inkscape:collect="always">
      <stop
         style="stop-color:#000000;stop-opacity:1;"
         offset="0"
         id="stop35" />
      <stop
         style="stop-color:#000000;stop-opacity:0;"
         offset="1"
         id="stop36" />
    </linearGradient>
    <radialGradient
       inkscape:collect="always"
       xlink:href="#linearGradient35"
       id="radialGradient36"
       cx="67.73333"
       cy="67.73333"
       fx="67.73333"
       fy="67.73333"
       r="67.73333"
       gradientUnits="userSpaceOnUse" />
    <radialGradient
       inkscape:collect="always"
       xlink:href="#linearGradient3"
       id="radialGradient4"
       cx="215.93204"
       cy="37.164917"
       fx="215.93204"
       fy="37.164917"
       r="273.70508"
       gradientUnits="userSpaceOnUse" />
  </defs>
  <g
     inkscape:label="Layer 1"
     inkscape:groupmode="layer"
     id="layer1">
    <path
       id="path26"
       style="color:#000000;display:none;fill:#ff0000;stroke-width:0.506374;stroke-linejoin:bevel;-inkscape-stroke:none;paint-order:markers stroke fill"
       d="M 44.820003,25.174174 10.953336,83.833642 33.866666,123.52062 H 101.6 L 124.51333,83.833642 90.646662,25.174174 Z M 67.733332,38.403857 101.6,97.062808 H 33.866666 Z" />
    <circle
       style="fill:#535679;stroke:none;stroke-width:52.9167;stroke-linejoin:bevel;stroke-dasharray:none;stroke-dashoffset:0;stroke-opacity:1;paint-order:markers stroke fill;fill-opacity:1"
       id="path35"
       cx="67.73333"
       cy="67.73333"
       r="67.73333" />
    <path
       sodipodi:type="star"
       style="mix-blend-mode:overlay;fill:url(#radialGradient4);stroke:none;stroke-width:35.8958;stroke-linecap:round;stroke-linejoin:round;stroke-miterlimit:12;stroke-dasharray:none;stroke-opacity:1;paint-order:fill markers stroke"
       id="path3"
       inkscape:flatsided="false"
       sodipodi:sides="60"
       sodipodi:cx="215.93204"
       sodipodi:cy="37.164917"
       sodipodi:r1="273.70508"
       sodipodi:r2="76.637421"
       sodipodi:arg1="0"
       sodipodi:arg2="0.052359878"
       inkscape:rounded="0"
       inkscape:randomized="0"
       d="M 489.63712,37.164917 292.46443,41.17581 488.13773,65.774888 291.62592,49.153651 483.656,94.071403 289.9581,57.000141 476.24104,121.74444 287.47923,64.629312 465.97407,148.4908 284.21648,71.957578 452.96759,174.01746 280.20559,78.904648 437.3641,198.04473 275.4905,85.394409 419.33455,220.30936 270.12288,91.355757 399.07648,240.56743 264.16153,96.723379 376.81185,258.59698 257.67177,101.43847 352.78458,274.20047 250.7247,105.44936 327.25792,287.20695 243.39643,108.71211 300.51156,297.47392 235.76726,111.19098 272.83852,304.88888 227.92077,112.8588 244.54201,309.37061 219.94293,113.69731 215.93204,310.87 211.92114,113.69731 187.32207,309.37061 203.9433,112.8588 159.02555,304.88888 196.09681,111.19098 131.35252,297.47392 188.46764,108.71211 104.60615,287.20695 181.13938,105.44936 79.079498,274.20047 174.19231,101.43847 55.052229,258.59698 167.70255,96.723379 32.787592,240.56743 161.7412,91.355757 12.529525,220.30936 156.37358,85.394409 -5.5000223,198.04473 151.65849,78.904648 -21.103513,174.01746 147.6476,71.957578 -34.109994,148.4908 144.38484,64.629312 -44.376961,121.74444 141.90597,57.000141 -51.791928,94.071403 140.23815,49.153651 -56.273656,65.774888 139.39965,41.17581 -57.773041,37.164917 139.39965,33.154024 -56.273656,8.5549458 140.23815,25.176183 -51.791928,-19.741569 141.90597,17.329693 -44.376961,-47.414604 144.38484,9.7005217 -34.109994,-74.160968 147.6476,2.3722561 -21.103513,-99.687622 151.65849,-4.5748139 -5.5000223,-123.71489 156.37358,-11.064575 12.529525,-145.97953 161.7412,-17.025923 32.787592,-166.2376 167.70255,-22.393545 55.052229,-184.26714 174.19231,-27.108632 79.079498,-199.87063 181.13938,-31.119525 104.60615,-212.87711 l 83.86149,178.494831 -57.11512,-188.761801 64.74429,186.282933 -37.07126,-193.697903 44.91775,192.03008 -16.62123,-196.51181 24.59907,195.673305 4.0109,-197.172685 4.01089,197.172685 24.59908,-195.673305 -16.62124,196.51181 44.91775,-192.03008 -37.07126,193.697903 64.7443,-186.282933 L 243.39643,-34.382279 327.25792,-212.87711 250.7247,-31.119525 352.78458,-199.87063 257.67177,-27.108632 376.81185,-184.26714 264.16153,-22.393545 399.07648,-166.2376 270.12288,-17.025923 419.33455,-145.97953 275.4905,-11.064575 437.3641,-123.71489 280.20559,-4.5748138 452.96759,-99.687622 284.21648,2.3722561 465.97407,-74.160968 287.47923,9.7005217 476.24104,-47.414604 289.9581,17.329693 483.656,-19.741569 291.62592,25.176183 488.13773,8.5549458 292.46443,33.154024 Z"
       inkscape:transform-center-x="-16.139589"
       transform="matrix(0.23586823,0,0,0.23586823,16.801825,58.967309)" />
    <circle
       style="opacity:0.6;fill:url(#radialGradient36);stroke:none;stroke-width:52.9167;stroke-linejoin:bevel;stroke-dasharray:none;stroke-dashoffset:0;stroke-opacity:1;paint-order:markers stroke fill"
       id="circle35"
       cx="67.73333"
       cy="67.73333"
       r="67.73333"
       sodipodi:insensitive="true" />
    <g
       id="g35"
       transform="translate(-5.000001e-7,-10.70813)"
       style="fill:#ff0000">
      <path
         id="rect13"
         style="fill:#0500ff;stroke:none;stroke-width:264.582;stroke-linejoin:bevel;stroke-dasharray:none;stroke-dashoffset:0;stroke-opacity:1;paint-order:markers stroke fill;fill-opacity:1"
         d="m 116.89829,70.643749 -22.91333,13.22865 5.717997,9.903788 h 19.070153 l 5.74022,-9.942545 z m -38.581624,18.230928 -21.49998,21.417293 21.49998,21.41678 v -8.18813 H 101.6 L 116.87555,97.062808 H 101.6 78.316666 v -3.286621 z" />
      <path
         id="path27"
         style="fill:#0500ff;stroke:none;stroke-width:264.582;stroke-linejoin:bevel;stroke-dasharray:none;stroke-dashoffset:0;stroke-opacity:1;paint-order:markers stroke fill;fill-opacity:1"
         d="m 44.801399,51.664546 -29.297436,7.911145 7.09104,4.093807 -11.641667,20.164144 15.275554,26.457818 7.638293,-13.229169 11.64115,-20.163627 2.846338,1.643311 4.244702,2.450496 z m -7.139616,45.398262 -9.535335,16.515272 5.740218,9.94254 H 49.097261 V 97.062808 Z" />
      <path
         id="path28"
         style="fill:#0500ff;stroke:none;stroke-width:264.582;stroke-linejoin:bevel;stroke-dasharray:none;stroke-dashoffset:0;stroke-opacity:1;paint-order:markers stroke fill;fill-opacity:1"
         d="m 44.820003,25.174174 -7.615039,13.189892 22.912813,13.229167 5.717997,-9.903789 -9.534818,-16.51527 z m 15.275553,0 7.638293,13.229683 11.64115,20.16311 -2.846338,1.643311 -4.244702,2.451013 29.297951,7.910628 7.79746,-29.327925 -7.09104,4.094323 -11.641668,-20.164143 z" />
    </g>
    <path
       id="rect36"
       style="fill:#1a1a1a;stroke-width:52.9167;stroke-linejoin:bevel;paint-order:markers stroke fill;stroke:none;opacity:0.2"
       d="M 56.300956 14.4663 L 60.117777 40.885359 L 65.835774 30.981571 L 56.300956 14.4663 z M 124.49111 73.164009 L 99.702957 83.068314 L 118.77311 83.067797 L 124.49111 73.164009 z M 37.672635 86.374055 L 28.137817 102.88933 L 33.855297 112.79311 L 37.672635 86.374055 z " />
    <path
       id="path2"
       style="fill:#ffffff;stroke-linejoin:bevel;paint-order:markers stroke fill;opacity:0.46"
       d="M 67.733337,-2.000001e-7 A 67.73333,67.73333 0 0 0 -2.5000001e-6,67.733332 67.73333,67.73333 0 0 0 67.733337,135.46667 67.73333,67.73333 0 0 0 135.46667,67.733332 67.73333,67.73333 0 0 0 67.733337,-2.000001e-7 Z m 0,4.2322997000001 c 35.120223,0 63.499993,28.3797775 63.499993,63.4999995 0,35.120221 -28.37977,63.500001 -63.499993,63.500001 -35.12023,0 -63.4999995,-28.37978 -63.4999995,-63.500001 0,-35.120222 28.3797695,-63.4999995 63.4999995,-63.4999995 z" />
  </g>
</svg>
