<?xml version="1.0" encoding="UTF-8" standalone="no"?>
<!-- Created with Inkscape (http://www.inkscape.org/) -->

<svg
   width="512"
   height="512"
   viewBox="0 0 135.46666 135.46667"
   version="1.1"
   id="svg5"
   inkscape:version="1.4.2 (ebf0e940d0, 2025-05-08)"
   sodipodi:docname="application-vnd.ms-access.svg"
   xmlns:inkscape="http://www.inkscape.org/namespaces/inkscape"
   xmlns:sodipodi="http://sodipodi.sourceforge.net/DTD/sodipodi-0.dtd"
   xmlns:xlink="http://www.w3.org/1999/xlink"
   xmlns="http://www.w3.org/2000/svg"
   xmlns:svg="http://www.w3.org/2000/svg">
  <sodipodi:namedview
     id="namedview7"
     pagecolor="#242424"
     bordercolor="#666666"
     borderopacity="1"
     inkscape:showpageshadow="0"
     inkscape:pageopacity="0"
     inkscape:pagecheckerboard="1"
     inkscape:deskcolor="#000000"
     inkscape:document-units="px"
     showgrid="false"
     inkscape:zoom="0.46093749"
     inkscape:cx="-437.15255"
     inkscape:cy="81.355934"
     inkscape:window-width="3256"
     inkscape:window-height="1080"
     inkscape:window-x="1864"
     inkscape:window-y="0"
     inkscape:window-maximized="0"
     inkscape:current-layer="layer1" />
  <defs
     id="defs2">
    <linearGradient
       id="linearGradient3"
       inkscape:collect="always">
      <stop
         style="stop-color:#e71820;stop-opacity:1;"
         offset="0"
         id="stop3" />
      <stop
         style="stop-color:#ba131a;stop-opacity:0;"
         offset="1"
         id="stop4" />
    </linearGradient>
    <filter
       inkscape:collect="always"
       style="color-interpolation-filters:sRGB"
       id="filter13"
       x="-0.015184682"
       y="-0.020046148"
       width="1.0303694"
       height="1.0400923">
      <feGaussianBlur
         inkscape:collect="always"
         stdDeviation="0.65128301"
         id="feGaussianBlur13" />
    </filter>
    <linearGradient
       inkscape:collect="always"
       xlink:href="#linearGradient3"
       id="linearGradient4"
       x1="67.73333"
       y1="0"
       x2="67.73333"
       y2="135.46666"
       gradientUnits="userSpaceOnUse" />
  </defs>
  <g
     inkscape:label="Layer 1"
     inkscape:groupmode="layer"
     id="layer1">
    <rect
       style="display:inline;opacity:1;fill:#800000;stroke:none;stroke-width:8.46667;stroke-linecap:round;stroke-linejoin:round;stroke-miterlimit:1;paint-order:fill markers stroke"
       id="rect3"
       width="135.46666"
       height="135.46666"
       x="0"
       y="0"
       ry="0" />
    <path
       id="rect4"
       style="display:inline;opacity:1;fill:url(#linearGradient4);fill-opacity:1;stroke-width:8.46668;stroke-linecap:round;stroke-linejoin:round;stroke-miterlimit:1;paint-order:fill markers stroke"
       d="M 16.933333,0 0,19.352307 V 38.704614 L 33.866666,0 Z M 50.799999,0 0,58.056921 V 77.409744 L 67.733332,0 Z M 84.666666,0 0,96.762051 V 116.11436 L 101.6,0 Z M 118.53333,0 0,135.46666 H 16.933333 L 135.46666,0 Z M 135.46666,19.352307 33.866666,135.46666 H 50.799999 L 135.46666,38.704614 Z m 0,38.704614 -67.733328,77.409739 H 84.666666 L 135.46666,77.409744 Z m 0,38.70513 L 101.6,135.46666 h 16.93333 l 16.93333,-19.3523 z" />
    <path
       id="path13"
       style="display:inline;font-size:56.7469px;line-height:1.25;font-family:Aharoni;-inkscape-font-specification:'Aharoni, Normal';font-variant-ligatures:none;text-align:center;text-orientation:upright;text-anchor:middle;fill:#000000;stroke-width:0.264583;fill-opacity:1;filter:url(#filter13)"
       d="M 94.139472 28.470613 C 90.075567 28.470613 86.824406 29.828322 84.386063 32.54375 C 82.298693 34.852787 81.254988 37.762162 81.254988 41.271899 C 81.254988 44.633857 82.261994 47.145883 84.275475 48.80839 C 84.977422 49.381031 85.827169 49.880076 86.824673 50.304939 C 87.452731 50.582023 88.985532 51.080552 91.423876 51.800972 C 93.437356 52.373613 94.868978 52.937139 95.718704 53.491308 C 96.863987 54.2302 97.436945 55.15386 97.436945 56.262198 C 97.436945 57.48137 96.919551 58.42338 95.885102 59.088382 C 94.998432 59.679496 93.918028 59.97515 92.64344 59.97515 C 89.817178 59.97515 86.926151 58.644706 83.970584 55.984696 L 79.758955 63.909793 C 83.804388 66.772999 88.191517 68.204622 92.920425 68.204622 C 95.174045 68.204622 97.279805 67.862836 99.237869 67.179361 C 104.85345 65.23977 107.66113 61.073865 107.66113 54.68245 C 107.66113 52.18869 107.02369 50.147927 105.7491 48.559309 C 104.27131 46.693607 101.7965 45.252552 98.323713 44.236576 C 95.552868 43.423794 93.890072 42.851353 93.335904 42.518851 C 92.09826 41.798432 91.479686 40.939252 91.479686 39.941748 C 91.479686 38.925771 91.950433 38.11324 92.89252 37.503654 C 93.723773 36.967957 94.665783 36.700085 95.718704 36.700085 C 97.898435 36.700085 100.05976 37.530965 102.20255 39.193473 L 106.13719 31.545878 C 102.22106 29.495453 98.221848 28.470613 94.139472 28.470613 z M 34.233569 29.384769 L 27.805538 67.20675 L 37.586336 67.20675 L 40.80061 45.428234 L 49.528759 67.20675 L 53.436014 67.20675 L 62.579642 45.428234 L 65.377921 67.20675 L 75.21453 67.20675 L 69.506868 29.384769 L 59.725553 29.384769 L 51.607185 49.556664 L 43.931685 29.384769 L 34.233569 29.384769 z M 74.675028 67.413455 C 69.929084 67.413455 65.701554 68.913646 61.992081 71.913956 C 57.264321 75.750714 54.900007 80.760041 54.900007 86.942496 C 54.900007 93.106767 57.264321 98.107408 61.992081 101.94416 C 65.701554 104.94448 69.901987 106.44466 74.593379 106.44466 C 77.284565 106.44466 80.211826 105.81728 83.375788 104.56261 L 83.375788 92.970551 C 82.44842 94.09794 81.520898 94.934448 80.593529 95.479959 C 78.866079 96.51643 77.01155 97.034386 75.029528 97.034386 C 72.520179 97.034386 70.337894 96.280205 68.483158 94.770958 C 66.137462 92.861671 64.965026 90.251928 64.965026 86.942496 C 64.965026 83.61488 66.137462 80.996449 68.483158 79.087161 C 70.337894 77.577915 72.520179 76.823217 75.029528 76.823217 C 77.01155 76.823217 78.866079 77.34169 80.593529 78.378161 C 81.539081 78.941855 82.466604 79.778364 83.375788 80.887568 L 83.375788 69.295511 C 80.157275 68.040836 77.257112 67.413455 74.675028 67.413455 z M 107.62392 67.413455 C 102.87798 67.413455 98.649932 68.913646 94.940457 71.913956 C 90.212698 75.750714 87.8489 80.760041 87.8489 86.942496 C 87.8489 93.106767 90.212698 98.107408 94.940457 101.94416 C 98.649932 104.94448 102.85036 106.44466 107.54175 106.44466 C 110.23294 106.44466 113.16072 105.81728 116.32468 104.56261 L 116.32468 92.970551 C 115.39731 94.09794 114.4698 94.934448 113.54242 95.479959 C 111.81498 96.51643 109.96045 97.034386 107.97842 97.034386 C 105.46907 97.034386 103.28678 96.280205 101.43205 94.770958 C 99.086352 92.861671 97.913919 90.251928 97.913919 86.942496 C 97.913919 83.61488 99.086352 80.996449 101.43205 79.087161 C 103.28678 77.577915 105.46907 76.823217 107.97842 76.823217 C 109.96045 76.823217 111.81498 77.34169 113.54242 78.378161 C 114.48798 78.941855 115.41549 79.778364 116.32468 80.887568 L 116.32468 69.295511 C 113.10617 68.040836 110.20601 67.413455 107.62392 67.413455 z M 27.706319 68.204105 L 13.38678 105.43542 L 23.615096 105.43542 L 26.17928 98.94383 L 39.543839 98.94383 L 41.944209 105.43542 L 52.281563 105.43542 L 38.262264 68.204105 L 27.706319 68.204105 z M 32.916337 79.714513 L 36.925394 91.579422 L 28.851985 91.579422 L 32.916337 79.714513 z " />
    <g
       id="g5"
       style="display:inline">
      <path
         d="M 75.214617,67.206871 H 65.378119 L 62.579566,45.428032 53.435778,67.206871 h -3.906891 l -8.72816,-21.778839 -3.21418,21.778839 h -9.781082 l 6.42836,-37.82203 h 9.697956 l 7.67524,20.17175 8.118575,-20.17175 h 9.781081 z M 107.66121,54.682653 q 0,9.587123 -8.423368,12.49651 -2.937096,1.025212 -6.317526,1.025212 -7.093362,0 -13.161512,-4.294809 l 4.211684,-7.924616 q 4.433351,3.990016 8.672743,3.990016 1.911883,0 3.241889,-0.88667 1.551673,-0.997504 1.551673,-2.826261 0,-1.662507 -1.717924,-2.770845 -1.274589,-0.831253 -4.294809,-1.690215 -3.657515,-1.08063 -4.599602,-1.496256 -1.496257,-0.637295 -2.549177,-1.496257 -3.020221,-2.49376 -3.020221,-7.536697 0,-5.264605 3.131054,-8.728161 3.657515,-4.073141 9.753373,-4.073141 6.123563,0 11.997753,3.075637 l -3.93459,7.647532 q -3.214184,-2.493761 -6.483781,-2.493761 -1.579382,0 -2.826262,0.803545 -1.41313,0.914379 -1.41313,2.438344 0,1.496256 1.856466,2.576885 0.831253,0.498752 4.98752,1.717924 5.209187,1.523964 7.425867,4.322517 1.91188,2.382927 1.91188,6.123567 z"
         id="text1"
         style="font-size:56.7469px;line-height:1.25;font-family:Aharoni;-inkscape-font-specification:'Aharoni, Normal';font-variant-ligatures:none;text-align:center;text-orientation:upright;text-anchor:middle;display:none;fill:#ffffff;stroke-width:0.264583"
         aria-label="MS" />
      <path
         d="m 33.707104,86.806272 q 0,5.809689 -3.518544,10.773837 -3.491269,4.936871 -8.946376,6.846161 -2.891207,1.00919 -5.891516,1.00919 H 1.058287 V 68.204356 h 14.292381 q 5.236903,0 9.710091,2.918482 4.391361,2.836656 6.737057,7.582599 1.909288,3.927678 1.909288,8.100835 z m -10.064673,0 q 0,-3.845851 -2.154767,-6.709782 -2.863932,-3.7913 -8.537243,-3.7913 h -2.209319 v 21.029439 h 2.209319 q 5.700587,0 8.537243,-3.7913 2.154767,-2.891207 2.154767,-6.737057 z m 44.840981,5.973342 q 0,5.264179 -3.463993,9.028206 -4.200433,4.58229 -11.755756,4.58229 -7.582599,0 -11.783032,-4.58229 -3.463993,-3.764027 -3.463993,-9.24641 0,-4.936872 3.491269,-8.755447 4.227708,-4.609566 12.028511,-4.609566 7.173466,0 11.455725,4.609566 3.491269,3.764024 3.491269,8.973651 z m -9.300958,0 q 0,-2.454798 -1.745634,-4.145881 -1.718359,-1.718359 -4.173157,-1.718359 -2.782105,0 -4.527739,2.072941 -1.418328,1.663807 -1.418328,3.791299 0,2.154768 1.418328,3.818575 1.745634,2.072941 4.527739,2.072941 2.482074,0 4.200432,-1.691083 1.718359,-1.718359 1.718359,-4.200433 z m 33.49436,12.110336 q -2.782105,1.39105 -5.836965,1.39105 -6.927986,0 -10.992041,-4.69139 -3.273064,-3.791297 -3.273064,-8.78272 0,-5.018699 3.273064,-8.782723 4.064055,-4.691392 10.992041,-4.691392 3.109411,0 5.836965,1.418328 v 7.609874 q -2.372972,-1.663807 -4.636841,-1.663807 -2.673003,0 -4.418637,1.718358 -1.745635,1.718359 -1.745635,4.391362 0,2.673002 1.745635,4.391361 1.745634,1.718359 4.418637,1.718359 2.236594,0 4.636841,-1.636532 z m 41.731566,0.54551 h -11.67393 l -7.96446,-12.110335 -8.34631,12.110335 H 94.722476 L 109.28761,85.578873 97.368203,68.204356 h 11.919407 l 5.53694,9.65554 5.78241,-9.65554 h 11.89213 l -12.13761,17.374517 z"
         id="text3"
         style="font-size:55.8603px;line-height:1.25;font-family:Aharoni;-inkscape-font-specification:'Aharoni, Normal';font-variant-ligatures:none;text-align:center;text-orientation:upright;text-anchor:middle;display:none;fill:#ffffff;stroke-width:0.264583"
         aria-label="DocX" />
      <text
         xml:space="preserve"
         style="font-size:56.7469px;line-height:1.25;font-family:Aharoni;-inkscape-font-specification:'Aharoni, Normal';font-variant-ligatures:none;text-align:center;text-orientation:upright;text-anchor:middle;display:none;fill:#ffffff;stroke-width:0.264583"
         x="67.719482"
         y="67.206871"
         id="text2"
         sodipodi:insensitive="true"><tspan
           sodipodi:role="line"
           style="fill:#ffffff;stroke-width:0.264583"
           x="0"
           y="0"
           id="tspan1">MS</tspan></text>
      <text
         xml:space="preserve"
         style="font-size:55.8603px;line-height:1.25;font-family:Aharoni;-inkscape-font-specification:'Aharoni, Normal';font-variant-ligatures:none;text-align:center;text-orientation:upright;text-anchor:middle;display:none;fill:#ffffff;stroke-width:0.264583"
         x="65.783134"
         y="105.43546"
         id="text5"
         sodipodi:insensitive="true"><tspan
           sodipodi:role="line"
           id="tspan4"
           style="fill:#ffffff;stroke-width:0.264583"
           x="0"
           y="0">DocX</tspan></text>
      <path
         id="text8"
         style="font-size:56.7469px;line-height:1.25;font-family:Aharoni;-inkscape-font-specification:'Aharoni, Normal';font-variant-ligatures:none;text-align:center;text-orientation:upright;text-anchor:middle;fill:#ffffff;stroke-width:0.264583"
         d="M 94.139472 28.470613 C 90.075567 28.470613 86.824406 29.828322 84.386063 32.54375 C 82.298693 34.852787 81.254988 37.762162 81.254988 41.271899 C 81.254988 44.633857 82.261994 47.145883 84.275475 48.80839 C 84.977422 49.381031 85.827169 49.880076 86.824673 50.304939 C 87.452731 50.582023 88.985532 51.080552 91.423876 51.800972 C 93.437356 52.373613 94.868978 52.937139 95.718704 53.491308 C 96.863987 54.2302 97.436945 55.15386 97.436945 56.262198 C 97.436945 57.48137 96.919551 58.42338 95.885102 59.088382 C 94.998432 59.679496 93.918028 59.97515 92.64344 59.97515 C 89.817178 59.97515 86.926151 58.644706 83.970584 55.984696 L 79.758955 63.909793 C 83.804388 66.772999 88.191517 68.204622 92.920425 68.204622 C 95.174045 68.204622 97.279805 67.862836 99.237869 67.179361 C 104.85345 65.23977 107.66113 61.073865 107.66113 54.68245 C 107.66113 52.18869 107.02369 50.147927 105.7491 48.559309 C 104.27131 46.693607 101.7965 45.252552 98.323713 44.236576 C 95.552868 43.423794 93.890072 42.851353 93.335904 42.518851 C 92.09826 41.798432 91.479686 40.939252 91.479686 39.941748 C 91.479686 38.925771 91.950433 38.11324 92.89252 37.503654 C 93.723773 36.967957 94.665783 36.700085 95.718704 36.700085 C 97.898435 36.700085 100.05976 37.530965 102.20255 39.193473 L 106.13719 31.545878 C 102.22106 29.495453 98.221848 28.470613 94.139472 28.470613 z M 34.233569 29.384769 L 27.805538 67.20675 L 37.586336 67.20675 L 40.80061 45.428234 L 49.528759 67.20675 L 53.436014 67.20675 L 62.579642 45.428234 L 65.377921 67.20675 L 75.21453 67.20675 L 69.506868 29.384769 L 59.725553 29.384769 L 51.607185 49.556664 L 43.931685 29.384769 L 34.233569 29.384769 z M 74.675028 67.413455 C 69.929084 67.413455 65.701554 68.913646 61.992081 71.913956 C 57.264321 75.750714 54.900007 80.760041 54.900007 86.942496 C 54.900007 93.106767 57.264321 98.107408 61.992081 101.94416 C 65.701554 104.94448 69.901987 106.44466 74.593379 106.44466 C 77.284565 106.44466 80.211826 105.81728 83.375788 104.56261 L 83.375788 92.970551 C 82.44842 94.09794 81.520898 94.934448 80.593529 95.479959 C 78.866079 96.51643 77.01155 97.034386 75.029528 97.034386 C 72.520179 97.034386 70.337894 96.280205 68.483158 94.770958 C 66.137462 92.861671 64.965026 90.251928 64.965026 86.942496 C 64.965026 83.61488 66.137462 80.996449 68.483158 79.087161 C 70.337894 77.577915 72.520179 76.823217 75.029528 76.823217 C 77.01155 76.823217 78.866079 77.34169 80.593529 78.378161 C 81.539081 78.941855 82.466604 79.778364 83.375788 80.887568 L 83.375788 69.295511 C 80.157275 68.040836 77.257112 67.413455 74.675028 67.413455 z M 107.62392 67.413455 C 102.87798 67.413455 98.649932 68.913646 94.940457 71.913956 C 90.212698 75.750714 87.8489 80.760041 87.8489 86.942496 C 87.8489 93.106767 90.212698 98.107408 94.940457 101.94416 C 98.649932 104.94448 102.85036 106.44466 107.54175 106.44466 C 110.23294 106.44466 113.16072 105.81728 116.32468 104.56261 L 116.32468 92.970551 C 115.39731 94.09794 114.4698 94.934448 113.54242 95.479959 C 111.81498 96.51643 109.96045 97.034386 107.97842 97.034386 C 105.46907 97.034386 103.28678 96.280205 101.43205 94.770958 C 99.086352 92.861671 97.913919 90.251928 97.913919 86.942496 C 97.913919 83.61488 99.086352 80.996449 101.43205 79.087161 C 103.28678 77.577915 105.46907 76.823217 107.97842 76.823217 C 109.96045 76.823217 111.81498 77.34169 113.54242 78.378161 C 114.48798 78.941855 115.41549 79.778364 116.32468 80.887568 L 116.32468 69.295511 C 113.10617 68.040836 110.20601 67.413455 107.62392 67.413455 z M 27.706319 68.204105 L 13.38678 105.43542 L 23.615096 105.43542 L 26.17928 98.94383 L 39.543839 98.94383 L 41.944209 105.43542 L 52.281563 105.43542 L 38.262264 68.204105 L 27.706319 68.204105 z M 32.916337 79.714513 L 36.925394 91.579422 L 28.851985 91.579422 L 32.916337 79.714513 z " />
    </g>
  </g>
</svg>
