<?xml version="1.0" encoding="UTF-8" standalone="no"?>
<!-- Created with Inkscape (http://www.inkscape.org/) -->

<svg
   width="512"
   height="512"
   viewBox="0 0 135.46666 135.46667"
   version="1.1"
   id="svg5"
   inkscape:version="1.4.2 (ebf0e940d0, 2025-05-08)"
   sodipodi:docname="application-x-nintendo-ds-rom.svg"
   xmlns:inkscape="http://www.inkscape.org/namespaces/inkscape"
   xmlns:sodipodi="http://sodipodi.sourceforge.net/DTD/sodipodi-0.dtd"
   xmlns:xlink="http://www.w3.org/1999/xlink"
   xmlns="http://www.w3.org/2000/svg"
   xmlns:svg="http://www.w3.org/2000/svg">
  <sodipodi:namedview
     id="namedview7"
     pagecolor="#242424"
     bordercolor="#666666"
     borderopacity="1"
     inkscape:showpageshadow="0"
     inkscape:pageopacity="0"
     inkscape:pagecheckerboard="1"
     inkscape:deskcolor="#000000"
     inkscape:document-units="px"
     showgrid="false"
     inkscape:zoom="1.412142"
     inkscape:cx="291.4013"
     inkscape:cy="321.85149"
     inkscape:window-width="3256"
     inkscape:window-height="1080"
     inkscape:window-x="1864"
     inkscape:window-y="0"
     inkscape:window-maximized="0"
     inkscape:current-layer="layer1" />
  <defs
     id="defs2">
    <inkscape:path-effect
       effect="fillet_chamfer"
       id="path-effect6"
       is_visible="true"
       lpeversion="1"
       nodesatellites_param="F,0,0,1,0,0,0,1 @ F,0,0,1,0,0,0,1 @ F,0,1,1,0,2.6458332,0,1 @ F,0,0,1,0,0,0,1 @ F,0,0,1,0,0,0,1 @ F,0,0,1,0,0,0,1 @ F,0,0,1,0,0,0,1 @ F,0,0,1,0,0,0,1 @ F,0,0,1,0,0,0,1 @ F,0,0,1,0,0,0,1 @ F,0,0,1,0,0,0,1 @ F,0,0,1,0,0,0,1 @ F,0,0,1,0,0,0,1 @ F,0,0,1,0,0,0,1 @ F,0,0,1,0,0,0,1 @ F,0,0,1,0,0,0,1 @ F,0,0,1,0,0,0,1 @ F,0,0,1,0,0,0,1 @ F,0,0,1,0,0,0,1 @ F,0,0,1,0,0,0,1 @ F,0,0,1,0,0,0,1"
       radius="10"
       unit="px"
       method="auto"
       mode="F"
       chamfer_steps="1"
       flexible="false"
       use_knot_distance="true"
       apply_no_radius="true"
       apply_with_radius="true"
       only_selected="true"
       hide_knots="false" />
    <linearGradient
       id="linearGradient5"
       inkscape:collect="always">
      <stop
         style="stop-color:#ffffff;stop-opacity:1;"
         offset="0.08646519"
         id="stop1" />
      <stop
         style="stop-color:#2a1300;stop-opacity:1;"
         offset="0.08646519"
         id="stop2" />
      <stop
         style="stop-color:#302502;stop-opacity:1;"
         offset="0.17666666"
         id="stop7" />
      <stop
         style="stop-color:#673500;stop-opacity:1;"
         offset="0.21954192"
         id="stop8" />
      <stop
         style="stop-color:#422400;stop-opacity:1;"
         offset="0.27803478"
         id="stop9" />
      <stop
         style="stop-color:#007cff;stop-opacity:1;"
         offset="0.28266442"
         id="stop5" />
      <stop
         style="stop-color:#000f98;stop-opacity:1;"
         offset="0.76666665"
         id="stop10" />
      <stop
         style="stop-color:#ffffff;stop-opacity:1;"
         offset="0.76666665"
         id="stop6" />
    </linearGradient>
    <inkscape:path-effect
       effect="fillet_chamfer"
       id="path-effect4"
       is_visible="true"
       lpeversion="1"
       nodesatellites_param="F,0,0,1,0,0,0,1 @ F,0,0,1,0,0,0,1 @ F,0,0,1,0,0,0,1 @ F,0,1,1,0,9.2604162,0,1 @ F,0,1,1,0,9.2604162,0,1 @ F,0,0,1,0,0,0,1 @ F,0,0,1,0,9.2604162,0,1 @ F,0,0,1,0,9.2604162,0,1"
       radius="35"
       unit="px"
       method="auto"
       mode="F"
       chamfer_steps="1"
       flexible="false"
       use_knot_distance="true"
       apply_no_radius="true"
       apply_with_radius="true"
       only_selected="true"
       hide_knots="false" />
    <inkscape:path-effect
       effect="fillet_chamfer"
       id="path-effect2"
       is_visible="true"
       lpeversion="1"
       nodesatellites_param="F,0,0,1,0,0,0,1 @ F,0,0,1,0,0,0,1 @ F,0,0,1,0,0,0,1 @ F,0,1,1,0,9.2604162,0,1 @ F,0,1,1,0,9.2604162,0,1 @ F,0,0,1,0,0,0,1"
       radius="35"
       unit="px"
       method="auto"
       mode="F"
       chamfer_steps="1"
       flexible="false"
       use_knot_distance="true"
       apply_no_radius="true"
       apply_with_radius="true"
       only_selected="true"
       hide_knots="false" />
    <inkscape:path-effect
       effect="fillet_chamfer"
       id="path-effect1"
       is_visible="true"
       lpeversion="1"
       nodesatellites_param="F,0,1,1,0,1.5874999,0,1 @ F,0,1,1,0,1.5874999,0,1 @ F,0,0,1,0,0,0,1 @ F,0,0,1,0,0,0,1"
       radius="6"
       unit="px"
       method="auto"
       mode="F"
       chamfer_steps="1"
       flexible="false"
       use_knot_distance="true"
       apply_no_radius="true"
       apply_with_radius="true"
       only_selected="true"
       hide_knots="false" />
    <linearGradient
       inkscape:collect="always"
       xlink:href="#linearGradient5"
       id="linearGradient6"
       x1="67.73333"
       y1="122.53486"
       x2="67.73333"
       y2="14.885549"
       gradientUnits="userSpaceOnUse" />
    <clipPath
       clipPathUnits="userSpaceOnUse"
       id="clipPath14">
      <path
         style="baseline-shift:baseline;display:inline;overflow:visible;vector-effect:none;fill:#5d3700;stroke-width:1;stroke-linecap:round;stroke-linejoin:round;stroke-miterlimit:12;paint-order:markers stroke fill;enable-background:accumulate;stop-color:#000000"
         d="m -140.73098,61.078469 c -1.30565,-0.01442 -2.17248,0.09302 -2.17248,0.09302 0,0 2.92737,1.036289 3.86065,2.75898 0.91923,1.696746 -1.4108,2.614769 -2.86952,2.535899 -0.62326,-0.0337 -1.2532,-0.05072 -1.88513,-0.05076 -7.33923,-4.3e-5 -13.28872,2.242182 -13.28808,5.007964 1.2e-4,0.799431 0.50813,1.587235 1.48156,2.297533 -1.33014,0.366768 -2.64019,0.799936 -3.90881,1.353405 -2.26947,1.000019 -4.40267,2.38996 -6.05596,4.254521 -1.72301,1.946328 -2.21602,6.8947 -1.09864,9.275408 0.28981,0.64244 0.67066,1.234051 1.11828,1.772499 -6.81692,3.021902 -10.7075,5.203645 -10.70736,9.713102 -9e-5,8.80205 14.53233,15.93753 32.45901,15.93753 17.92667,0 32.45909,-7.13548 32.45899,-15.93753 -1.1e-4,-4.714848 -4.25195,-11.304356 -11.6122,-14.332465 0.483,-0.625451 0.88165,-1.31269 1.156,-2.058784 1.28118,-3.582881 -2.75017,-6.133054 -5.38882,-7.794355 -0.59947,-0.393025 -1.16905,-0.95994 -1.2609,-1.704808 -0.22884,-1.1542 -0.1494,-2.337842 -0.231,-3.505729 -0.27124,-8.43184 -8.13864,-9.572191 -12.05559,-9.615432 z"
         id="path15" />
    </clipPath>
    <filter
       inkscape:collect="always"
       style="color-interpolation-filters:sRGB"
       id="filter15"
       x="-0.067123695"
       y="-0.078957171"
       width="1.1342474"
       height="1.1579143">
      <feGaussianBlur
         inkscape:collect="always"
         stdDeviation="1.8600496"
         id="feGaussianBlur15" />
    </filter>
    <filter
       inkscape:collect="always"
       style="color-interpolation-filters:sRGB"
       id="filter17"
       x="-0.13025678"
       y="-0.11584395"
       width="1.2605136"
       height="1.2316879">
      <feGaussianBlur
         inkscape:collect="always"
         stdDeviation="1.2311355"
         id="feGaussianBlur17" />
    </filter>
    <filter
       inkscape:collect="always"
       style="color-interpolation-filters:sRGB"
       id="filter20"
       x="-0.08054375"
       y="-0.04019771"
       width="1.1610875"
       height="1.0803954">
      <feGaussianBlur
         inkscape:collect="always"
         stdDeviation="0.7211486"
         id="feGaussianBlur20" />
    </filter>
    <filter
       inkscape:collect="always"
       style="color-interpolation-filters:sRGB"
       id="filter23"
       x="-0.094714529"
       y="-0.06011539"
       width="1.1894291"
       height="1.1202308">
      <feGaussianBlur
         inkscape:collect="always"
         stdDeviation="1.0341293"
         id="feGaussianBlur23" />
    </filter>
  </defs>
  <g
     inkscape:label="Layer 1"
     inkscape:groupmode="layer"
     id="layer1">
    <path
       id="rect1"
       style="fill:#333333;stroke:none;stroke-width:1.05833;stroke-linecap:round;stroke-linejoin:round;stroke-miterlimit:12;paint-order:markers stroke fill"
       d="m 8.4754516,0 c -0.876752,0 -1.5875,0.710748 -1.5875,1.5875 v 25.595854 c 2.3672443,3.108097 3.7309554,7.658775 3.7310384,12.450402 -8.3e-5,4.791626 -1.3637939,9.342305 -3.7310384,12.450403 v 74.122091 c 3.4e-6,5.11438 4.1460324,9.26041 9.2604164,9.26041 H 119.3183 c 5.11438,0 9.26041,-4.14603 9.26041,-9.26041 V 52.084159 c -2.36724,-3.108101 -3.73095,-7.658779 -3.73103,-12.450403 8e-5,-4.791625 1.36379,-9.342302 3.73103,-12.450402 V 1.5875 C 128.57871,0.71074796 127.86797,-5.522848e-8 126.99121,0 Z"
       sodipodi:nodetypes="ssccccscccccsss" />
    <path
       id="rect4"
       style="fill:url(#linearGradient6);stroke:#2c2c2c;stroke-width:2.11667;stroke-linecap:round;stroke-linejoin:round;stroke-miterlimit:12;stroke-dasharray:none;stroke-opacity:1;paint-order:markers stroke fill"
       d="M 18.981965,14.885549 H 116.4847 V 122.53486 H 28.287203 l -9.305238,-9.30524 z"
       sodipodi:nodetypes="cccccc" />
    <g
       id="g15"
       transform="matrix(0.61335813,0,0,0.61335813,94.220526,36.109616)">
      <path
         id="path5"
         style="fill:#5d3700;stroke:#ffffff;stroke-width:1.5875;stroke-linecap:round;stroke-linejoin:round;stroke-miterlimit:12;stroke-opacity:1;paint-order:markers stroke fill"
         d="m -40.116986,64.451006 c -1.30565,-0.01441 -2.172477,0.09302 -2.172477,0.09302 0,0 2.927375,1.03629 3.860654,2.75898 0.919225,1.696747 -1.410808,2.61477 -2.869528,2.5359 -0.623251,-0.0337 -1.253199,-0.05072 -1.885128,-0.05076 -7.339223,-4.3e-5 -13.28872,2.242182 -13.288078,5.007963 1.17e-4,0.799433 0.508132,1.587237 1.481563,2.297535 -1.330138,0.366768 -2.640192,0.799934 -3.908808,1.353405 -2.26947,1.000018 -4.40267,2.389959 -6.05596,4.254521 -1.723014,1.946326 -2.216029,6.8947 -1.09864,9.275407 0.28981,0.64244 0.67066,1.23405 1.11828,1.7725 -6.816926,3.0219 -10.707504,5.203643 -10.70736,9.713103 -9.1e-5,8.80205 14.532326,15.93753 32.459003,15.93753 17.926676,0 32.459096,-7.13548 32.458996,-15.93753 -1.1e-4,-4.71485 -4.251949,-11.304357 -11.612207,-14.332467 0.483002,-0.62545 0.881654,-1.31269 1.156002,-2.058784 1.281181,-3.58288 -2.750166,-6.133054 -5.388819,-7.794356 -0.599471,-0.393023 -1.169045,-0.959938 -1.260904,-1.704806 -0.22884,-1.154202 -0.149393,-2.337843 -0.230994,-3.505729 -0.271244,-8.431841 -8.138645,-9.572191 -12.055595,-9.615432 z"
         sodipodi:nodetypes="scssccccccccsccccccs" />
      <path
         style="baseline-shift:baseline;display:inline;overflow:visible;mix-blend-mode:normal;vector-effect:none;stroke-linecap:round;stroke-linejoin:round;stroke-miterlimit:12;paint-order:markers stroke fill;filter:url(#filter15);enable-background:accumulate;stop-color:#000000"
         d="m -140.72266,60.285156 c -1.35306,-0.01493 -2.27929,0.09766 -2.27929,0.09766 a 0.79382936,0.79382936 0 0 0 -0.16602,1.53711 c 0,0 0.67078,0.238131 1.45703,0.677734 0.78625,0.439604 1.63788,1.096601 1.97071,1.710938 0.14862,0.27434 0.12886,0.379264 0.0918,0.486328 -0.0371,0.107064 -0.15065,0.25788 -0.37695,0.408203 -0.4526,0.300647 -1.30293,0.499944 -1.84375,0.470703 -0.63767,-0.03448 -1.28159,-0.05269 -1.92773,-0.05273 -3.75045,-2.2e-5 -7.14836,0.566267 -9.67774,1.519531 -1.26469,0.476632 -2.3161,1.045515 -3.0957,1.740234 -0.7796,0.69472 -1.30882,1.566926 -1.3086,2.542969 1.1e-4,0.719369 0.3558,1.359935 0.84375,1.955078 -0.93807,0.293759 -1.88106,0.570054 -2.79492,0.96875 a 0.79382936,0.79382936 0 0 0 -0.002,0 c -2.34987,1.035446 -4.58184,2.483434 -6.33008,4.455078 -1.0579,1.195008 -1.59979,3.028645 -1.81055,4.91211 -0.2105,1.881159 -0.0815,3.798749 0.58399,5.220703 0.18208,0.403036 0.4557,0.740229 0.69531,1.103515 -3.00212,1.350996 -5.49755,2.579217 -7.26758,4.021485 -1.94367,1.583766 -3.08992,3.546293 -3.08984,6.029295 -5e-5,4.83787 3.93386,9.0279 9.95117,11.98243 6.01731,2.95452 14.23408,4.75 23.30274,4.75 9.06864,0 17.28347,-1.79548 23.30078,-4.75 6.0173,-2.95453 9.95122,-7.14456 9.95117,-11.98243 -1.2e-4,-4.998226 -4.21873,-11.351617 -11.33985,-14.626951 0.30313,-0.481399 0.63515,-0.944174 0.83594,-1.490235 a 0.79382936,0.79382936 0 0 0 0.002,-0.0059 c 0.74957,-2.096199 -0.10049,-4.009629 -1.38476,-5.419922 -1.28081,-1.406488 -2.99774,-2.476472 -4.31641,-3.306641 -0.49957,-0.327529 -0.85914,-0.740835 -0.9082,-1.138672 a 0.79382936,0.79382936 0 0 0 -0.01,-0.05664 c -0.20189,-1.018282 -0.1301,-2.165433 -0.21679,-3.40625 v 0.0293 c -0.14351,-4.46126 -2.39837,-7.179339 -5.07617,-8.625 -2.67781,-1.445661 -5.73405,-1.735407 -7.76368,-1.757813 z m 0.90625,1.677735 c 1.82867,0.0956 4.11744,0.40434 6.10352,1.476562 2.30294,1.243284 4.11641,3.308716 4.24414,7.279297 a 0.79382936,0.79382936 0 0 0 0.002,0.03125 c 0.0756,1.082509 -0.003,2.288632 0.24219,3.5625 0.14131,1.081243 0.91018,1.800014 1.60547,2.255859 a 0.79382936,0.79382936 0 0 0 0.0137,0.0078 c 1.3186,0.830191 2.92923,1.863222 4,3.039062 1.07077,1.17584 1.59411,2.329726 1.0625,3.816407 -0.24282,0.658038 -0.5964,1.271682 -1.03516,1.839843 a 0.79382936,0.79382936 0 0 0 0.32618,1.220703 c 7.08501,2.914876 11.11904,9.359995 11.11914,13.597656 4e-5,3.96419 -3.33196,7.74292 -9.0625,10.55664 -5.73055,2.81373 -13.74354,4.58789 -22.60156,4.5879 -8.85803,0 -16.87297,-1.77417 -22.60352,-4.5879 -5.73055,-2.81372 -9.06254,-6.59245 -9.0625,-10.55664 -6e-5,-2.026451 0.80005,-3.408883 2.50586,-4.798827 1.70581,-1.389945 4.33556,-2.682559 7.73047,-4.1875 a 0.79382936,0.79382936 0 0 0 0.28711,-1.234375 c -0.4064,-0.488862 -0.74617,-1.020459 -1.00391,-1.591797 a 0.79382936,0.79382936 0 0 0 -0.006,-0.0098 c -0.44974,-0.958228 -0.63246,-2.702519 -0.44531,-4.375 0.18715,-1.672481 0.75481,-3.285791 1.41992,-4.037109 1.55776,-1.756827 3.59115,-3.088229 5.7793,-4.052735 l 0.002,-0.002 c 1.22348,-0.533612 2.49709,-0.954977 3.80078,-1.314453 a 0.79382936,0.79382936 0 0 0 0.25586,-1.40625 c -0.8539,-0.62308 -1.15423,-1.193004 -1.1543,-1.65625 -9e-5,-0.406847 0.21225,-0.85385 0.77735,-1.357422 0.5651,-0.503572 1.4596,-1.011764 2.59961,-1.441406 2.28001,-0.859283 5.5284,-1.416037 9.11719,-1.416016 0.61771,3.9e-5 1.23294,0.01786 1.84179,0.05078 0.9179,0.04963 1.9613,-0.171541 2.8086,-0.734375 0.42364,-0.281417 0.81117,-0.67308 0.99804,-1.212891 0.18687,-0.539811 0.11373,-1.185732 -0.19726,-1.759766 -0.36244,-0.669004 -0.90162,-1.164007 -1.47071,-1.589843 z"
         id="path11"
         clip-path="url(#clipPath14)"
         transform="translate(100.61399,3.372537)" />
      <path
         style="baseline-shift:baseline;display:inline;overflow:visible;opacity:1;vector-effect:none;fill:#a55b00;stroke-linecap:round;stroke-linejoin:round;filter:url(#filter17);enable-background:accumulate;stop-color:#000000;stop-opacity:1"
         d="m 73.931641,79.435547 c -1.60007,1.318411 -3.97948,0.868396 -5.573152,2.174793 -0.850504,0.557125 0.08471,2.161273 -1.273256,1.686117 -1.256122,-0.08418 -2.559033,0.911396 -2.345545,2.261852 -0.07417,0.806394 0.739233,2.073127 1.054102,2.17953 -1.615663,-0.336636 -2.596781,1.342586 -2.888923,2.684688 -0.133891,1.281784 -1.29667,3.342114 0.508095,3.89462 1.589109,0.566937 3.289451,-0.03132 4.904545,0.275333 1.2256,1.016644 -1.67182,0.358315 -2.015193,1.41314 -0.968297,1.341966 0.104236,3.156222 1.392712,3.832844 1.139336,0.678376 2.547443,0.265816 3.504616,-0.53535 1.448386,-0.769489 3.064593,-1.478862 4.739023,-1.352649 1.496844,0.138118 1.032916,2.783355 -0.432795,2.427335 -2.033671,0.27586 -4.485211,-0.13122 -6.019814,1.555 -0.446365,0.91931 -1.479903,1.05232 -2.401406,1.16842 -1.437466,0.14624 -3.363883,-0.052 -3.973824,-1.58715 -0.52409,-1.41388 0.906969,-2.652085 0.445392,-4.066151 -0.59459,-1.88203 -2.894385,-2.470267 -4.645904,-2.124223 -1.59012,0.266679 -3.141013,1.765662 -2.870669,3.462984 0.567805,1.96808 3.115868,2.58415 4.853511,1.86238 0.468241,0.95128 0.909766,2.85287 2.126256,3.66926 0.9985,1.04278 2.507901,0.5537 3.549258,0.13541 1.5506,0.62563 3.153084,-0.20054 4.362749,-1.14929 1.217807,-0.94225 2.781892,-1.82761 4.362541,-1.27827 1.527903,0.43797 3.170834,-0.74741 3.33458,-2.310639 0.327213,-1.574306 -0.61827,-3.581365 -2.38614,-3.658389 -2.515966,0.0068 -4.555258,1.829494 -7.003158,2.149552 -1.084625,0.298292 -1.673181,-1.707924 -0.294504,-1.140347 1.570501,0.06506 2.73896,-1.771272 2.018403,-3.168082 -0.557138,-1.213324 -2.073984,-1.260897 -3.18011,-0.930631 -0.639512,0.06974 -2.532875,-0.107723 -2.39694,-0.466589 1.337534,-0.01074 2.64225,0.896215 3.941794,0.129247 1.246767,-0.392776 2.376698,-2.169464 1.053589,-3.152381 -1.073524,-0.433902 -0.30411,-1.982718 -1.526404,-2.532122 -0.413593,-0.605997 -2.031709,-0.834107 -1.845809,-1.564455 1.234966,-0.286836 2.650872,-0.28728 3.532688,-1.372166 1.066775,-1.110852 1.870911,-2.666823 3.482159,-3.068316 0.374714,-0.425688 0.278634,-1.110641 -0.09247,-1.505305 z m -6.669922,9.902344 c -0.220677,0.833514 -2.642886,1.03729 -1.924266,0.0974 0.615672,-0.208986 1.287473,-0.142284 1.924266,-0.0974 z m 1.576172,1.205078 c 1.31966,1.026777 -2.260133,0.351717 -0.482194,0.05254 l 0.21993,-0.02796 z m -8.980469,6.421875 c 0.928732,-0.237388 2.322214,0.65499 1.056433,1.414608 -0.827708,0.892084 -3.449644,1.353536 -2.960907,-0.576552 0.09665,-0.803898 1.266165,-0.931441 1.904474,-0.838056 z"
         id="path16"
         transform="matrix(1.6303689,0,0,1.6303689,-153.61421,-58.009256)" />
      <path
         style="fill:none;stroke:#ffffff;stroke-width:0.79375;stroke-linecap:round;stroke-linejoin:round;stroke-dasharray:none;stroke-opacity:1"
         d="m -65.882356,93.732077 c 4.65405,-2.117441 16.384201,1.133635 22.039746,0.424302 5.655545,-0.709333 15.823297,-5.043151 22.155323,-5.252553"
         id="path8"
         sodipodi:nodetypes="csc" />
      <path
         style="fill:none;stroke:#ffffff;stroke-width:0.79375;stroke-linecap:round;stroke-linejoin:round;stroke-dasharray:none;stroke-opacity:1"
         d="m -24.181705,80.381228 c -5.975483,-3.968064 -7.035225,1.375182 -16.900152,0.497088 -8.485471,-0.755305 -11.327346,-2.850866 -14.749758,-3.906151"
         id="path9"
         sodipodi:nodetypes="czc" />
      <path
         id="path17"
         style="baseline-shift:baseline;display:inline;overflow:visible;opacity:1;mix-blend-mode:normal;vector-effect:none;fill:#3a2000;fill-opacity:1;stroke-linecap:round;stroke-linejoin:round;filter:url(#filter20);enable-background:accumulate;stop-color:#000000;stop-opacity:1"
         d="m -32.108174,70.609305 c -1.209333,2.637621 -0.0161,6.971317 -4.655655,6.54899 1.391225,5.821173 11.045057,-4.650377 4.655655,-6.54899 z m -2.583156,11.675593 c -5.281203,1.082319 -0.564486,4.308054 2.190724,3.893864 -1.041531,1.346187 -5.723075,2.657945 -0.662598,2.498888 3.459511,0.702753 8.034708,-4.729794 2.284161,-4.758212 -1.60193,0.43985 -4.127126,1.047519 -3.812287,-1.63454 z m 10.774856,9.639995 c -1.604737,0.136017 -1.41578,1.267239 -1.338807,1.858817 0.07697,0.591579 0.767456,1.368157 1.616759,2.244171 0.849302,0.876015 1.857425,1.851466 2.569677,2.840792 0.712252,0.989326 1.128634,1.992527 0.794455,2.924037 0.007,0.24105 -1.203508,1.01934 -1.152092,1.38946 0.05142,0.37011 1.364786,0.33205 1.379316,0.77322 0.01453,0.44116 -0.0097,0.90335 -0.113361,1.35755 -0.103654,0.45421 -0.286723,0.90042 -0.589855,1.30964 -0.49238,0.6647 -2.000049,0.6219 -2.650866,1.24677 -0.650817,0.62487 -0.444783,1.91741 -1.022672,2.50357 -0.577889,0.58615 -1.061472,1.15322 -1.335066,1.70177 -0.273594,0.54855 -0.337199,1.07857 -0.07513,1.59063 0.198882,0.004 0.600765,-0.13158 1.125388,-0.38142 0.524623,-0.24983 1.171985,-0.6143 1.861824,-1.06921 0.689839,-0.4549 1.991848,-0.46567 2.686377,-1.07725 0.69453,-0.61158 0.781581,-1.82396 1.320276,-2.54382 0.536041,-0.71631 1.941396,-0.97814 2.264737,-1.72596 0.32334,-0.74781 -0.435334,-1.98161 -0.278497,-2.65629 0.156836,-0.67469 0.241969,-1.28665 0.278497,-1.78356 0.03653,-0.49692 1.017231,-2.36797 0.979651,-2.582481 -0.113985,-0.65059 -1.506663,0.101404 -2.059827,-0.671129 -0.553164,-0.772533 -0.190446,-2.802311 -0.9175,-3.594348 -0.727054,-0.792037 -2.54388,-0.346334 -3.179534,-1.055439 -0.635655,-0.709106 0.605208,-2.418899 0.326242,-2.942638 z"
         sodipodi:nodetypes="cccccccccssscssssssscssssssssssscc" />
      <path
         id="path20"
         style="baseline-shift:baseline;display:inline;overflow:visible;opacity:1;vector-effect:none;fill:#ffb700;fill-opacity:1;filter:url(#filter23);enable-background:accumulate;stop-color:#000000;stop-opacity:1"
         d="m -46.943204,71.964072 c -2.61685,-0.450722 -7.669077,0.467787 -6.706426,2.476571 -3.491916,2.05121 4.000145,1.457289 2.446604,-0.35691 3.136453,0.45432 -1.376576,-1.561972 1.920073,-1.205993 0.252657,0.04793 4.705672,-0.307411 2.339749,-0.913668 z m -9.264311,6.962554 c -3.084115,1.161384 -5.651799,2.467004 -7.565529,4.811337 0.995416,0.98606 -2.847385,1.73829 -0.951838,3.58024 -3.029723,3.704655 6.589321,4.437882 3.891265,0 -0.688436,-2.395554 4.31851,-4.545557 3.327934,-5.719065 -2.445612,2.284276 -4.505291,4.298342 -4.025054,7.704432 -1.648104,1.719934 -4.063378,-1.353988 -1.775614,-2.414259 -1.93664,-1.180474 2.217564,-2.550511 1.007108,-3.334439 3.064721,-1.756432 5.651497,-5.433203 9.389923,-3.427756 1.410736,-0.421956 -3.185551,-1.096545 -3.298195,-1.20049 z m -7.53884,16.753443 c -3.78368,0.699718 -7.503723,4.016815 -8.710502,6.424761 3.003922,0.72993 -0.363353,3.31524 2.858358,4.44696 2.986222,1.21773 0.64643,4.28998 4.083621,5.33666 1.982433,2.3341 8.374206,1.27756 4.339012,-2.17975 -2.270161,-2.26869 -5.327673,-4.9532 -3.684525,-8.48763 0.598719,-1.752667 -0.192405,-4.269005 -0.239977,-1.11432 -2.169289,4.4549 1.346909,7.79609 4.151064,10.80975 1.783367,3.70775 -6.491372,-0.47727 -5.801042,-2.08399 1.081543,-3.21152 -5.102104,-2.51045 -2.848153,-6.3097 -2.950754,-1.13726 -0.340802,-1.31141 0.7113,-2.669844 -0.741152,-2.185268 3.89805,-2.691283 5.140844,-4.172897 z"
         sodipodi:nodetypes="ccccccccccccccccccccccccccc" />
    </g>
    <path
       d="m 81.448545,36.279701 v -2.420158 l 8.482077,-12.296706 h -7.998045 v -2.339486 h 12.123838 v 2.339486 l -8.482077,12.296706 h 8.482077 v 2.420158 z m 15.166322,-0.149819 v -2.927239 q 1.9707,0.829769 2.938763,0.991113 0.97959,0.161344 1.79783,0.161344 1.47515,0 2.20119,-0.668425 0.72605,-0.668424 0.72605,-1.601914 0,-0.714523 -0.39183,-1.290751 -0.39184,-0.564703 -1.98223,-1.463619 l -1.14093,-0.633851 q -2.443208,-1.371423 -3.30755,-2.535403 -0.875866,-1.163981 -0.875866,-2.696747 0,-1.924602 1.452094,-3.296025 1.463619,-1.371423 4.194942,-1.371423 2.03985,0 4.5983,0.587753 v 2.731321 q -2.60455,-0.979588 -4.13732,-0.979588 -1.2677,0 -1.93613,0.564704 -0.6569,0.553179 -0.6569,1.336849 0,0.599277 0.39184,1.117882 0.38031,0.518605 1.9707,1.417521 l 1.2216,0.679949 q 2.80047,1.578865 3.57262,2.742846 0.76062,1.175505 0.76062,2.639124 0,2.09747 -1.59039,3.584139 -1.57887,1.486668 -5.03623,1.486668 -2.051376,0 -4.771173,-0.576228 z"
       id="text9"
       style="font-weight:600;font-size:23.6023px;line-height:1.25;font-family:'Lucida Sans';-inkscape-font-specification:'Lucida Sans, Semi-Bold';text-align:center;text-orientation:upright;text-anchor:middle;stroke-width:0.732393"
       aria-label="ZS" />
    <path
       id="path13"
       style="baseline-shift:baseline;display:inline;overflow:visible;vector-effect:none;stroke-linecap:round;stroke-linejoin:round;stroke-miterlimit:12;paint-order:fill markers stroke;enable-background:accumulate;stop-color:#000000"
       d="m 72.240565,19.242471 c -0.997927,0 -1.829863,0.833638 -1.829863,1.831929 v 3.888652 c 0,0.998291 0.831936,1.831929 1.829863,1.831929 h 5.648234 c 0.997927,0 1.828312,-0.833638 1.828312,-1.831929 V 21.0744 c 0,-0.998291 -0.830385,-1.831929 -1.828312,-1.831929 z m 0,1.203027 h 5.648234 c 0.161904,0 0.331027,0.05766 0.451135,0.177767 0.120104,0.120109 0.177767,0.289232 0.177767,0.451135 v 3.888652 c 0,0.161903 -0.05766,0.331026 -0.177767,0.451135 -0.120108,0.120104 -0.289231,0.177767 -0.451135,0.177767 h -5.648234 c -0.161904,0 -0.331028,-0.05766 -0.451136,-0.177767 -0.120108,-0.120109 -0.179834,-0.289232 -0.179834,-0.451135 V 21.0744 c 0,-0.161903 0.05973,-0.331026 0.179834,-0.451135 0.120108,-0.120104 0.289232,-0.177767 0.451136,-0.177767 z" />
    <path
       id="path12"
       style="baseline-shift:baseline;display:inline;overflow:visible;vector-effect:none;fill:#4d4d4d;stroke-linecap:round;stroke-linejoin:round;stroke-miterlimit:12;paint-order:fill markers stroke;enable-background:accumulate;stop-color:#000000"
       d="m 72.240565,28.697191 c -0.998287,0 -1.829863,0.832093 -1.829863,1.830379 v 3.890718 c 0,0.998287 0.831576,1.829864 1.829863,1.829863 h 5.648234 c 0.998287,0 1.828313,-0.831576 1.828312,-1.829863 V 30.52757 c 0,-0.998287 -0.830025,-1.830379 -1.828312,-1.830379 z m 0,1.201477 h 5.648234 c 0.161903,0 0.331026,0.05766 0.451135,0.177766 0.120114,0.12011 0.177767,0.289235 0.177767,0.451136 v 3.890718 c 0,0.161902 -0.05766,0.331026 -0.177767,0.451136 -0.12011,0.120114 -0.289233,0.177766 -0.451135,0.177766 h -5.648234 c -0.161902,0 -0.331026,-0.05766 -0.451136,-0.177766 -0.120108,-0.12011 -0.179834,-0.289234 -0.179834,-0.451136 V 30.52757 c 0,-0.161901 0.05972,-0.331026 0.179834,-0.451136 0.120109,-0.120104 0.289233,-0.177766 0.451136,-0.177766 z" />
    <path
       style="font-weight:bold;font-size:10.2755px;line-height:1.25;font-family:'Adwaita Mono';-inkscape-font-specification:'Adwaita Mono, Bold';text-align:center;text-orientation:upright;text-anchor:middle;stroke-width:0.11519"
       d="m 27.454012,26.794975 v -7.552492 h 2.240059 q 0.308265,0 0.606255,0.06165 0.297989,0.05138 0.565152,0.195234 0.267163,0.143857 0.472673,0.369918 0.215786,0.226061 0.339092,0.5035 0.133581,0.277438 0.184959,0.585703 0.05138,0.29799 0.05138,0.606255 0,0.297989 -0.05138,0.606254 -0.05138,0.29799 -0.184959,0.575428 -0.123306,0.277439 -0.339092,0.5035 -0.20551,0.226061 -0.472673,0.369918 -0.267163,0.143857 -0.565152,0.20551 -0.29799,0.05138 -0.606255,0.05138 h -1.017274 v 2.918242 z m 2.240059,-3.956067 q 0.226061,0 0.441847,-0.102755 0.215785,-0.102755 0.339091,-0.287714 0.133582,-0.195235 0.174684,-0.421296 0.0411,-0.236336 0.0411,-0.462397 0,-0.236337 -0.0411,-0.462398 -0.0411,-0.236336 -0.174684,-0.421295 -0.123306,-0.195235 -0.339091,-0.29799 -0.215786,-0.102755 -0.441847,-0.102755 h -1.017274 v 2.5586 z m 7.141477,3.956067 -1.510499,-2.918242 h -0.688458 v 2.918242 h -1.222785 v -7.552492 h 2.445569 q 0.29799,0 0.595979,0.06165 0.29799,0.06165 0.554877,0.215785 0.256888,0.143857 0.452122,0.369918 0.20551,0.226061 0.318541,0.5035 0.123306,0.267163 0.164408,0.565152 0.05138,0.29799 0.05138,0.606255 0,0.349367 -0.07193,0.709009 -0.06165,0.349367 -0.236337,0.657632 -0.174683,0.29799 -0.462397,0.524051 -0.287714,0.226061 -0.626806,0.328816 l 1.561876,3.010721 z m -2.198957,-3.956067 h 1.222784 q 0.143857,0 0.287714,-0.0411 0.143857,-0.05138 0.256888,-0.143857 0.11303,-0.102755 0.184959,-0.226061 0.07193,-0.133582 0.11303,-0.277439 0.0411,-0.143857 0.05138,-0.287714 0.02055,-0.154132 0.02055,-0.297989 0,-0.154133 -0.02055,-0.29799 -0.01028,-0.154132 -0.05138,-0.287714 -0.0411,-0.143857 -0.11303,-0.277438 -0.07193,-0.133582 -0.184959,-0.226061 -0.113031,-0.102755 -0.256888,-0.143857 -0.143857,-0.05138 -0.287714,-0.05138 h -1.222784 z m 5.024724,3.956067 v -7.552492 h 4.418465 v 1.037825 h -3.195681 v 2.065376 h 2.517498 v 1.037825 h -2.517498 v 2.373641 h 3.195681 v 1.037825 z m 7.72718,0 v -6.514667 h -1.705733 v -1.037825 h 4.623975 v 1.037825 h -1.705733 v 6.514667 z m 4.603428,0 v -7.552492 h 4.418465 v 1.037825 h -3.195681 v 2.065376 h 2.517498 v 1.037825 h -2.517498 v 2.373641 h 3.195681 v 1.037825 z m 6.0831,0 v -7.552492 h 1.294713 l 2.168131,5.630974 q -0.0411,-0.318541 -0.0822,-0.647357 -0.03083,-0.328816 -0.06165,-0.647356 -0.02055,-0.328816 -0.03083,-0.657632 -0.01028,-0.328816 -0.01028,-0.657632 v -3.020997 h 1.222784 v 7.552492 h -1.294713 l -2.16813,-5.630974 q 0.0411,0.318541 0.07193,0.647357 0.0411,0.328816 0.06165,0.657632 0.03083,0.31854 0.0411,0.647356 0.01028,0.328816 0.01028,0.657632 v 3.020997 z m 7.901864,0 h -1.73656 v -7.552492 h 1.73656 q 0.267163,0 0.534326,0.0411 0.267163,0.03083 0.513775,0.133581 0.246612,0.102755 0.462397,0.256888 0.226061,0.154132 0.41102,0.349367 0.184959,0.195234 0.318541,0.421295 0.143857,0.226061 0.246612,0.472673 0.102755,0.246612 0.174683,0.513775 0.07193,0.256888 0.113031,0.524051 0.0411,0.256887 0.05138,0.52405 0.02055,0.267163 0.02055,0.534326 0,0.277439 -0.02055,0.544602 -0.01028,0.267163 -0.05138,0.534326 -0.0411,0.256887 -0.113031,0.52405 -0.07193,0.256888 -0.174683,0.5035 -0.102755,0.246612 -0.246612,0.472673 -0.133582,0.226061 -0.318541,0.421295 -0.184959,0.195235 -0.41102,0.349367 -0.215785,0.154133 -0.462397,0.256888 -0.246612,0.102755 -0.513775,0.143857 -0.267163,0.03083 -0.534326,0.03083 z M 65.463112,25.75715 h 0.513775 q 0.174683,0 0.349367,-0.03083 0.174683,-0.0411 0.328816,-0.133581 0.154132,-0.102755 0.277438,-0.226061 0.123306,-0.133582 0.215786,-0.277439 0.09248,-0.154132 0.164408,-0.31854 0.07193,-0.164408 0.123306,-0.339092 0.05138,-0.174683 0.0822,-0.349367 0.03083,-0.174683 0.05138,-0.349367 0.02055,-0.174683 0.02055,-0.349367 0.01028,-0.184959 0.01028,-0.359642 0,-0.184959 -0.01028,-0.359643 0,-0.184959 -0.02055,-0.359642 -0.02055,-0.174684 -0.05138,-0.349367 -0.03083,-0.174684 -0.0822,-0.349367 -0.05138,-0.174684 -0.123306,-0.339092 -0.07193,-0.164408 -0.164408,-0.308265 -0.09248,-0.154132 -0.215786,-0.277438 -0.123306,-0.133582 -0.277438,-0.226061 -0.154133,-0.102755 -0.328816,-0.133582 -0.174684,-0.0411 -0.349367,-0.0411 h -0.513775 z"
       id="text12"
       aria-label="PRETEND" />
    <text
       xml:space="preserve"
       style="font-style:normal;font-variant:normal;font-weight:600;font-stretch:normal;font-size:23.6023px;line-height:1.25;font-family:'Lucida Sans';-inkscape-font-specification:'Lucida Sans, Semi-Bold';font-variant-ligatures:normal;font-variant-caps:normal;font-variant-numeric:normal;font-variant-east-asian:normal;text-align:center;text-orientation:upright;text-anchor:middle;display:none;stroke-width:0.732393"
       x="94.57502"
       y="36.279701"
       id="text10"
       sodipodi:insensitive="true"><tspan
         sodipodi:role="line"
         id="tspan10"
         style="font-style:normal;font-variant:normal;font-weight:600;font-stretch:normal;font-size:23.6023px;font-family:'Lucida Sans';-inkscape-font-specification:'Lucida Sans, Semi-Bold';font-variant-ligatures:normal;font-variant-caps:normal;font-variant-numeric:normal;font-variant-east-asian:normal;stroke-width:0.732393"
         x="0"
         y="0">ZS</tspan></text>
    <text
       xml:space="preserve"
       style="font-weight:600;font-size:10.2755px;line-height:1.25;font-family:'Lucida Sans';-inkscape-font-specification:'Lucida Sans, Semi-Bold';text-align:center;text-orientation:upright;text-anchor:middle;display:none;stroke-width:0.11519"
       x="47.994751"
       y="26.794975"
       id="text11"
       sodipodi:insensitive="true"><tspan
         sodipodi:role="line"
         id="tspan11"
         style="font-style:normal;font-variant:normal;font-weight:bold;font-stretch:normal;font-size:10.2755px;font-family:'Adwaita Mono';-inkscape-font-specification:'Adwaita Mono, Bold';font-variant-ligatures:normal;font-variant-caps:normal;font-variant-numeric:normal;font-variant-east-asian:normal;stroke-width:0.11519"
         x="0"
         y="0">PRETEND</tspan></text>
    <g
       id="g3"
       transform="translate(-0.8256275,-8.9958336)"
       style="fill:#ffff00;fill-opacity:1">
      <path
         d="m 48.743992,54.783603 h -4.5868 v 9.136906 H 40.854696 V 54.783603 H 33.88276 v -2.054886 h 14.861232 z m 6.604989,7.082019 h 8.25624 v -9.136905 h 3.302496 v 9.503849 l -2.75208,1.687943 h -9.357072 l -2.75208,-1.687943 v -9.503849 h 3.302496 z m 29.722461,-4.201508 -2.75208,1.687942 2.75208,4.568453 h -3.302496 l -2.75208,-4.568453 h -5.504161 v 4.568453 H 70.210209 V 52.728717 h 12.109153 l 2.75208,1.687942 z M 81.768946,57.29717 v -2.513567 h -8.256241 v 2.513567 z m 6.604986,-4.568453 h 12.109148 l 2.75208,1.687942 v 7.815907 l -2.75208,1.687943 H 88.373932 Z m 11.558737,9.136905 v -7.082019 h -8.256241 v 7.082019 z"
         id="path2"
         style="font-size:18.3472px;line-height:1.25;font-family:Ast126;-inkscape-font-specification:'Ast126, Normal';text-align:center;text-orientation:upright;text-anchor:middle;fill:#ffff00;fill-opacity:1;stroke:#ffffff;stroke-width:1.5875;paint-order:markers stroke fill" />
      <path
         d="M 45.441496,70.838436 33.88276,76.232513 v 1.687942 2.054886 H 48.743992 V 77.920455 H 37.185256 L 48.743992,72.526378 V 70.838436 68.783549 H 33.88276 v 2.054887 z m 21.466221,4.568452 H 55.348981 v 2.513567 h 11.558736 v 2.054886 H 54.798565 l -2.75208,-1.687942 v -7.834255 l 2.75208,-1.669595 h 12.109152 v 2.054887 H 55.348981 v 2.513566 h 11.558736 z m 18.163725,-1.687942 -2.75208,1.687942 2.75208,4.568453 h -3.302496 l -2.75208,-4.568453 h -5.504161 v 4.568453 H 70.210209 V 68.783549 h 12.109153 l 2.75208,1.687943 z m -3.302496,-0.366944 v -2.513566 h -8.256241 v 2.513566 z m 9.357066,-4.568453 h 9.357068 l 2.75208,1.687943 v 7.815907 l -2.75208,1.687942 h -9.357068 l -2.75208,-1.687942 v -7.815907 z m 8.806657,9.136906 v -7.082019 h -8.256241 v 7.082019 z"
         id="path3"
         style="font-size:18.3472px;line-height:1.25;font-family:Ast126;-inkscape-font-specification:'Ast126, Normal';text-align:center;text-orientation:upright;text-anchor:middle;fill:#ffff00;fill-opacity:1;stroke:#ffffff;stroke-width:1.5875;paint-order:markers stroke fill" />
    </g>
  </g>
</svg>
