<?xml version="1.0" encoding="UTF-8" standalone="no"?>
<!-- Created with Inkscape (http://www.inkscape.org/) -->

<svg
   width="512"
   height="512"
   viewBox="0 0 135.46666 135.46667"
   version="1.1"
   id="svg5"
   inkscape:version="1.3.2 (091e20ef0f, 2023-11-25, custom)"
   sodipodi:docname="application-x-pc-engine-rom.svg"
   xml:space="preserve"
   xmlns:inkscape="http://www.inkscape.org/namespaces/inkscape"
   xmlns:sodipodi="http://sodipodi.sourceforge.net/DTD/sodipodi-0.dtd"
   xmlns:xlink="http://www.w3.org/1999/xlink"
   xmlns="http://www.w3.org/2000/svg"
   xmlns:svg="http://www.w3.org/2000/svg"><sodipodi:namedview
     id="namedview7"
     pagecolor="#242424"
     bordercolor="#666666"
     borderopacity="1"
     inkscape:showpageshadow="0"
     inkscape:pageopacity="0"
     inkscape:pagecheckerboard="1"
     inkscape:deskcolor="#000000"
     inkscape:document-units="px"
     showgrid="false"
     inkscape:zoom="5.6568544"
     inkscape:cx="278.3349"
     inkscape:cy="435.93132"
     inkscape:window-width="3256"
     inkscape:window-height="1080"
     inkscape:window-x="1864"
     inkscape:window-y="0"
     inkscape:window-maximized="0"
     inkscape:current-layer="layer2" /><defs
     id="defs2"><linearGradient
       id="linearGradient145"
       inkscape:collect="always"><stop
         style="stop-color:#445016;stop-opacity:1;"
         offset="0"
         id="stop145" /><stop
         style="stop-color:#364012;stop-opacity:1;"
         offset="1"
         id="stop146" /></linearGradient><linearGradient
       id="linearGradient143"
       inkscape:collect="always"><stop
         style="stop-color:#0f0f0f;stop-opacity:1;"
         offset="0"
         id="stop144" /><stop
         style="stop-color:#0a0a0a;stop-opacity:1;"
         offset="1"
         id="stop143" /></linearGradient><linearGradient
       id="linearGradient139"
       inkscape:collect="always"><stop
         style="stop-color:#ffffff;stop-opacity:1;"
         offset="0"
         id="stop140" /><stop
         style="stop-color:#cccccc;stop-opacity:1;"
         offset="1"
         id="stop139" /></linearGradient><linearGradient
       id="linearGradient137"
       inkscape:collect="always"><stop
         style="stop-color:#000000;stop-opacity:1;"
         offset="0"
         id="stop137" /><stop
         style="stop-color:#ffffff;stop-opacity:0;"
         offset="1"
         id="stop138" /></linearGradient><linearGradient
       id="linearGradient135"
       inkscape:collect="always"><stop
         style="stop-color:#000000;stop-opacity:1;"
         offset="0"
         id="stop135" /><stop
         style="stop-color:#ffffff;stop-opacity:0;"
         offset="1"
         id="stop136" /></linearGradient><linearGradient
       id="linearGradient133"
       inkscape:collect="always"><stop
         style="stop-color:#000000;stop-opacity:1;"
         offset="0"
         id="stop133" /><stop
         style="stop-color:#ffffff;stop-opacity:0;"
         offset="1"
         id="stop134" /></linearGradient><linearGradient
       id="linearGradient131"
       inkscape:collect="always"><stop
         style="stop-color:#000000;stop-opacity:1;"
         offset="0"
         id="stop131" /><stop
         style="stop-color:#ffffff;stop-opacity:0;"
         offset="1"
         id="stop132" /></linearGradient><linearGradient
       id="linearGradient129"
       inkscape:collect="always"><stop
         style="stop-color:#000000;stop-opacity:1;"
         offset="0"
         id="stop129" /><stop
         style="stop-color:#ffffff;stop-opacity:0;"
         offset="1"
         id="stop130" /></linearGradient><linearGradient
       id="linearGradient121"
       inkscape:collect="always"><stop
         style="stop-color:#ffea98;stop-opacity:1;"
         offset="0"
         id="stop122" /><stop
         style="stop-color:#d28118;stop-opacity:1;"
         offset="1"
         id="stop121" /></linearGradient><inkscape:path-effect
       effect="fillet_chamfer"
       id="path-effect71"
       is_visible="true"
       lpeversion="1"
       nodesatellites_param="F,0,0,1,0,0.6,0,1 @ F,0,0,1,0,0.6,0,1 @ F,0,1,1,0,0,0,1 @ F,0,0,1,0,0,0,1 @ F,0,0,1,0,0,0,1 @ F,0,0,1,0,0,0,1 @ F,0,0,1,0,0,0,1 @ F,0,0,1,0,0,0,1 @ F,0,0,1,0,0,0,1 @ F,0,0,1,0,0,0,1 @ F,0,0,1,0,0,0,1 @ F,0,0,1,0,0,0,1 @ F,0,0,1,0,0,0,1 @ F,0,0,1,0,0.6,0,1"
       radius="0"
       unit="px"
       method="auto"
       mode="F"
       chamfer_steps="1"
       flexible="false"
       use_knot_distance="true"
       apply_no_radius="true"
       apply_with_radius="true"
       only_selected="true"
       hide_knots="false" /><inkscape:path-effect
       effect="fillet_chamfer"
       id="path-effect67"
       is_visible="true"
       lpeversion="1"
       nodesatellites_param="F,0,0,1,0,0,0,1 @ F,0,1,1,0,0.7,0,1 @ F,0,1,1,0,0.7,0,1 @ F,0,0,1,0,0,0,1 @ F,0,0,1,0,0,0,1 @ F,0,1,1,0,0.7,0,1 @ F,0,1,1,0,0.7,0,1 @ F,0,0,1,0,0,0,1"
       radius="0.7"
       unit="px"
       method="auto"
       mode="F"
       chamfer_steps="1"
       flexible="false"
       use_knot_distance="true"
       apply_no_radius="true"
       apply_with_radius="true"
       only_selected="true"
       hide_knots="false" /><inkscape:path-effect
       effect="fillet_chamfer"
       id="path-effect65"
       is_visible="true"
       lpeversion="1"
       nodesatellites_param="F,0,0,1,0,0,0,1 @ F,0,1,1,0,0.7,0,1 @ F,0,1,1,0,0.7,0,1 @ F,0,0,1,0,0,0,1 @ F,0,0,1,0,0,0,1 @ F,0,1,1,0,0.7,0,1 @ F,0,1,1,0,0.7,0,1 @ F,0,0,1,0,0,0,1"
       radius="0.7"
       unit="px"
       method="auto"
       mode="F"
       chamfer_steps="1"
       flexible="false"
       use_knot_distance="true"
       apply_no_radius="true"
       apply_with_radius="true"
       only_selected="true"
       hide_knots="false" /><inkscape:path-effect
       effect="fillet_chamfer"
       id="path-effect63"
       is_visible="true"
       lpeversion="1"
       nodesatellites_param="F,0,0,1,0,0,0,1 @ F,0,1,1,0,0.7,0,1 @ F,0,1,1,0,0.7,0,1 @ F,0,0,1,0,0,0,1 @ F,0,0,1,0,0,0,1 @ F,0,1,1,0,0.7,0,1 @ F,0,1,1,0,0.7,0,1 @ F,0,0,1,0,0,0,1"
       radius="0.7"
       unit="px"
       method="auto"
       mode="F"
       chamfer_steps="1"
       flexible="false"
       use_knot_distance="true"
       apply_no_radius="true"
       apply_with_radius="true"
       only_selected="true"
       hide_knots="false" /><inkscape:path-effect
       effect="fillet_chamfer"
       id="path-effect55"
       is_visible="true"
       lpeversion="1"
       nodesatellites_param="F,0,0,1,0,0,0,1 @ F,0,1,1,0,0.7,0,1 @ F,0,1,1,0,0.7,0,1 @ F,0,0,1,0,0,0,1 @ F,0,0,1,0,0,0,1 @ F,0,1,1,0,0.7,0,1 @ F,0,1,1,0,0.7,0,1 @ F,0,0,1,0,0,0,1"
       radius="0.7"
       unit="px"
       method="auto"
       mode="F"
       chamfer_steps="1"
       flexible="false"
       use_knot_distance="true"
       apply_no_radius="true"
       apply_with_radius="true"
       only_selected="true"
       hide_knots="false" /><inkscape:path-effect
       effect="fillet_chamfer"
       id="path-effect53"
       is_visible="true"
       lpeversion="1"
       nodesatellites_param="F,0,0,1,0,0,0,1 @ F,0,1,1,0,0.7,0,1 @ F,0,1,1,0,0.7,0,1 @ F,0,0,1,0,0,0,1 @ F,0,0,1,0,0,0,1 @ F,0,1,1,0,0.7,0,1 @ F,0,1,1,0,0.7,0,1 @ F,0,0,1,0,0,0,1"
       radius="0.7"
       unit="px"
       method="auto"
       mode="F"
       chamfer_steps="1"
       flexible="false"
       use_knot_distance="true"
       apply_no_radius="true"
       apply_with_radius="true"
       only_selected="true"
       hide_knots="false" /><inkscape:path-effect
       effect="fillet_chamfer"
       id="path-effect51"
       is_visible="true"
       lpeversion="1"
       nodesatellites_param="F,0,0,1,0,0.6,0,1 @ F,0,0,1,0,0.6,0,1 @ F,0,1,1,0,0,0,1 @ F,0,0,1,0,0,0,1 @ F,0,0,1,0,0,0,1 @ F,0,0,1,0,0,0,1 @ F,0,0,1,0,0,0,1 @ F,0,0,1,0,0,0,1 @ F,0,0,1,0,0,0,1 @ F,0,0,1,0,0,0,1 @ F,0,0,1,0,0,0,1 @ F,0,0,1,0,0,0,1 @ F,0,0,1,0,0,0,1 @ F,0,0,1,0,0.6,0,1"
       radius="0"
       unit="px"
       method="auto"
       mode="F"
       chamfer_steps="1"
       flexible="false"
       use_knot_distance="true"
       apply_no_radius="true"
       apply_with_radius="true"
       only_selected="true"
       hide_knots="false" /><inkscape:path-effect
       effect="fillet_chamfer"
       id="path-effect39"
       is_visible="true"
       lpeversion="1"
       nodesatellites_param="F,0,0,1,0,0,0,1 @ F,0,1,1,0,0.7,0,1 @ F,0,1,1,0,0.7,0,1 @ F,0,0,1,0,0,0,1 @ F,0,0,1,0,0,0,1 @ F,0,1,1,0,0.7,0,1 @ F,0,1,1,0,0.7,0,1 @ F,0,0,1,0,0,0,1"
       radius="0.7"
       unit="px"
       method="auto"
       mode="F"
       chamfer_steps="1"
       flexible="false"
       use_knot_distance="true"
       apply_no_radius="true"
       apply_with_radius="true"
       only_selected="true"
       hide_knots="false" /><inkscape:path-effect
       effect="fillet_chamfer"
       id="path-effect37"
       is_visible="true"
       lpeversion="1"
       nodesatellites_param="F,0,0,1,0,0,0,1 @ F,0,1,1,0,0.7,0,1 @ F,0,1,1,0,0.7,0,1 @ F,0,0,1,0,0,0,1 @ F,0,0,1,0,0,0,1 @ F,0,1,1,0,0.7,0,1 @ F,0,1,1,0,0.7,0,1 @ F,0,0,1,0,0,0,1"
       radius="0.7"
       unit="px"
       method="auto"
       mode="F"
       chamfer_steps="1"
       flexible="false"
       use_knot_distance="true"
       apply_no_radius="true"
       apply_with_radius="true"
       only_selected="true"
       hide_knots="false" /><inkscape:path-effect
       effect="fillet_chamfer"
       id="path-effect33"
       is_visible="true"
       lpeversion="1"
       nodesatellites_param="F,0,1,1,0,0.7,0,1 @ F,0,0,1,0,0,0,1 @ F,0,0,1,0,0,0,1 @ F,0,0,1,0,0,0,1 @ F,0,0,1,0,0,0,1 @ F,0,0,1,0,0,0,1 @ F,0,0,1,0,0,0,1 @ F,0,0,1,0,0,0,1 @ F,0,0,1,0,0,0,1 @ F,0,0,1,0,0,0,1"
       radius="0.7"
       unit="px"
       method="auto"
       mode="F"
       chamfer_steps="1"
       flexible="false"
       use_knot_distance="true"
       apply_no_radius="true"
       apply_with_radius="true"
       only_selected="true"
       hide_knots="false" /><inkscape:path-effect
       effect="fillet_chamfer"
       id="path-effect27"
       is_visible="true"
       lpeversion="1"
       nodesatellites_param="F,0,1,1,0,0.7,0,1 @ F,0,0,1,0,0,0,1 @ F,0,0,1,0,0,0,1 @ F,0,0,1,0,0,0,1 @ F,0,0,1,0,0,0,1 @ F,0,0,1,0,0,0,1 @ F,0,0,1,0,0,0,1 @ F,0,1,1,0,0.7,0,1 | F,0,0,1,0,0,0,1 @ F,0,0,1,0,0,0,1 @ F,0,0,1,0,0,0,1 @ F,0,0,1,0,0,0,1"
       radius="0.7"
       unit="px"
       method="auto"
       mode="F"
       chamfer_steps="1"
       flexible="false"
       use_knot_distance="true"
       apply_no_radius="true"
       apply_with_radius="true"
       only_selected="true"
       hide_knots="false" /><inkscape:path-effect
       effect="fillet_chamfer"
       id="path-effect22"
       is_visible="true"
       lpeversion="1"
       nodesatellites_param="F,0,0,1,0,0.6,0,1 @ F,0,0,1,0,0.6,0,1 @ F,0,1,1,0,0,0,1 @ F,0,0,1,0,0,0,1 @ F,0,0,1,0,0,0,1 @ F,0,0,1,0,0,0,1 @ F,0,0,1,0,0,0,1 @ F,0,0,1,0,0,0,1 @ F,0,0,1,0,0,0,1 @ F,0,0,1,0,0,0,1 @ F,0,0,1,0,0,0,1 @ F,0,0,1,0,0,0,1 @ F,0,0,1,0,0,0,1 @ F,0,0,1,0,0.6,0,1"
       radius="0"
       unit="px"
       method="auto"
       mode="F"
       chamfer_steps="1"
       flexible="false"
       use_knot_distance="true"
       apply_no_radius="true"
       apply_with_radius="true"
       only_selected="true"
       hide_knots="false" /><inkscape:path-effect
       effect="fillet_chamfer"
       id="path-effect5"
       is_visible="true"
       lpeversion="1"
       nodesatellites_param="F,0,0,1,0,0,0,1 @ F,0,0,1,0,0,0,1 @ F,0,0,1,0,0,0,1 @ F,0,0,1,0,0,0,1 @ F,0,1,1,0,0.7,0,1 @ F,0,1,1,0,0.7,0,1 | F,0,0,1,0,0,0,1 @ F,0,0,1,0,0,0,1 @ F,0,0,1,0,0,0,1 @ F,0,0,1,0,0,0,1"
       radius="0.7"
       unit="px"
       method="auto"
       mode="F"
       chamfer_steps="1"
       flexible="false"
       use_knot_distance="true"
       apply_no_radius="true"
       apply_with_radius="true"
       only_selected="true"
       hide_knots="false" /><inkscape:path-effect
       effect="fillet_chamfer"
       id="path-effect4"
       is_visible="true"
       lpeversion="1"
       nodesatellites_param="F,0,0,1,0,0,0,1 @ F,0,1,1,0,0.7,0,1 @ F,0,1,1,0,0.7,0,1 @ F,0,0,1,0,0,0,1 @ F,0,0,1,0,0,0,1 @ F,0,0,1,0,0,0,1 @ F,0,0,1,0,0,0,1 @ F,0,0,1,0,0,0,1"
       radius="0.7"
       unit="px"
       method="auto"
       mode="F"
       chamfer_steps="1"
       flexible="false"
       use_knot_distance="true"
       apply_no_radius="true"
       apply_with_radius="true"
       only_selected="true"
       hide_knots="false" /><inkscape:path-effect
       effect="fillet_chamfer"
       id="path-effect2"
       is_visible="true"
       lpeversion="1"
       nodesatellites_param="F,0,1,1,0,0,0,1 @ F,0,0,1,0,0,0,1 @ F,0,0,1,0,0,0,1 @ F,0,0,1,0,0,0,1 @ F,0,0,1,0,0.2,0,1 @ F,0,0,1,0,0,0,1 @ F,0,0,1,0,0.2,0,1 @ F,0,0,1,0,0,0,1 @ F,0,0,1,0,0,0,1 | F,0,0,1,0,0,0,1 @ F,0,0,1,0,0,0,1 @ F,0,0,1,0,0,0,1 @ F,0,0,1,0,0,0,1 @ F,0,0,1,0,0,0,1 | F,0,0,1,0,0,0,1 @ F,0,0,1,0,0,0,1 @ F,0,0,1,0,0,0,1 @ F,0,0,1,0,0,0,1 @ F,0,0,1,0,0,0,1"
       radius="0.2"
       unit="px"
       method="auto"
       mode="F"
       chamfer_steps="1"
       flexible="false"
       use_knot_distance="true"
       apply_no_radius="true"
       apply_with_radius="true"
       only_selected="true"
       hide_knots="false" /><inkscape:path-effect
       effect="fillet_chamfer"
       id="path-effect1"
       is_visible="true"
       lpeversion="1"
       nodesatellites_param="F,0,0,1,0,0.7,0,1 @ F,0,0,1,0,0.7,0,1 @ F,0,0,1,0,0,0,1 @ F,0,0,1,0,0.7,0,1 @ F,0,0,1,0,0,0,1 @ F,0,0,1,0,0,0,1 @ F,0,0,1,0,0,0,1 @ F,0,0,1,0,0.7,0,1 | F,0,0,1,0,0,0,1 @ F,0,0,1,0,0,0,1 @ F,0,0,1,0,0,0,1 @ F,0,0,1,0,0,0,1 @ F,0,0,1,0,0.7,0,1"
       radius="0.7"
       unit="px"
       method="auto"
       mode="F"
       chamfer_steps="1"
       flexible="false"
       use_knot_distance="true"
       apply_no_radius="true"
       apply_with_radius="true"
       only_selected="false"
       hide_knots="false" /><inkscape:path-effect
       effect="fillet_chamfer"
       id="path-effect20"
       is_visible="true"
       lpeversion="1"
       nodesatellites_param="F,0,0,1,0,0.7,0,1 @ F,0,0,1,0,0.7,0,1 @ F,0,0,1,0,0.7,0,1 @ F,0,0,1,0,0.7,0,1 | F,0,1,1,0,0,0,1 @ F,0,1,1,0,0,0,1 @ F,0,1,1,0,0,0,1 @ F,0,0,1,0,0,0,1"
       radius="0.7"
       unit="px"
       method="auto"
       mode="F"
       chamfer_steps="1"
       flexible="false"
       use_knot_distance="true"
       apply_no_radius="true"
       apply_with_radius="true"
       only_selected="false"
       hide_knots="false" /><linearGradient
       id="linearGradient37"
       inkscape:collect="always"><stop
         style="stop-color:#2e2e2e;stop-opacity:1;"
         offset="0"
         id="stop37" /><stop
         style="stop-color:#383838;stop-opacity:1;"
         offset="0.5"
         id="stop39" /><stop
         style="stop-color:#2e2e2e;stop-opacity:1;"
         offset="1"
         id="stop38" /></linearGradient><linearGradient
       id="linearGradient34"
       inkscape:collect="always"><stop
         style="stop-color:#ffffff;stop-opacity:1;"
         offset="0"
         id="stop35" /><stop
         style="stop-color:#ffffff;stop-opacity:0;"
         offset="1"
         id="stop36" /></linearGradient><linearGradient
       id="linearGradient2"
       inkscape:collect="always"><stop
         style="stop-color:#333333;stop-opacity:1;"
         offset="0.2"
         id="stop2" /><stop
         style="stop-color:#3d3d3d;stop-opacity:1;"
         offset="0.23"
         id="stop4" /><stop
         style="stop-color:#3d3d3d;stop-opacity:1;"
         offset="0.76999998"
         id="stop5" /><stop
         style="stop-color:#333333;stop-opacity:1;"
         offset="0.80000001"
         id="stop3" /></linearGradient><linearGradient
       inkscape:collect="always"
       xlink:href="#linearGradient2"
       id="linearGradient3"
       x1="4.2333304"
       y1="28.255536"
       x2="131.23333"
       y2="28.255536"
       gradientUnits="userSpaceOnUse" /><filter
       inkscape:collect="always"
       style="color-interpolation-filters:sRGB"
       id="filter34"
       x="-0.023717623"
       y="-0.013591019"
       width="1.0474352"
       height="1.027182"><feGaussianBlur
         inkscape:collect="always"
         stdDeviation="0.36622694"
         id="feGaussianBlur34" /></filter><linearGradient
       inkscape:collect="always"
       xlink:href="#linearGradient34"
       id="linearGradient36"
       x1="95.249222"
       y1="79.307823"
       x2="95.261009"
       y2="118.70372"
       gradientUnits="userSpaceOnUse" /><filter
       inkscape:collect="always"
       style="color-interpolation-filters:sRGB"
       id="filter36"
       x="-1.0730055"
       y="-0.81950953"
       width="3.146011"
       height="2.6390191"><feGaussianBlur
         inkscape:collect="always"
         stdDeviation="4.7316549"
         id="feGaussianBlur36" /></filter><linearGradient
       inkscape:collect="always"
       xlink:href="#linearGradient37"
       id="linearGradient38"
       x1="76.719864"
       y1="86.368225"
       x2="113.77858"
       y2="86.368225"
       gradientUnits="userSpaceOnUse" /><filter
       inkscape:collect="always"
       style="color-interpolation-filters:sRGB"
       id="filter39"
       x="-0.0023677546"
       y="-0.024617272"
       width="1.0047355"
       height="1.0492345"><feGaussianBlur
         inkscape:collect="always"
         stdDeviation="0.13260235"
         id="feGaussianBlur39" /></filter><linearGradient
       inkscape:collect="always"
       xlink:href="#linearGradient121"
       id="linearGradient122"
       x1="111.68315"
       y1="3.5642121"
       x2="181.75122"
       y2="15.221787"
       gradientUnits="userSpaceOnUse"
       gradientTransform="translate(-79.287621,0.52763624)" /><filter
       inkscape:collect="always"
       style="color-interpolation-filters:sRGB"
       id="filter122"
       x="-0.0098071354"
       y="-0.072599649"
       width="1.0196143"
       height="1.1451993"><feGaussianBlur
         inkscape:collect="always"
         stdDeviation="0.28794534"
         id="feGaussianBlur122" /></filter><linearGradient
       inkscape:collect="always"
       xlink:href="#linearGradient129"
       id="linearGradient130"
       x1="138.95146"
       y1="134.01562"
       x2="138.95146"
       y2="134.6264"
       gradientUnits="userSpaceOnUse" /><linearGradient
       inkscape:collect="always"
       xlink:href="#linearGradient131"
       id="linearGradient132"
       x1="138.95146"
       y1="135.46666"
       x2="138.95146"
       y2="136.57237"
       gradientUnits="userSpaceOnUse" /><linearGradient
       inkscape:collect="always"
       xlink:href="#linearGradient133"
       id="linearGradient134"
       x1="138.95146"
       y1="137.41263"
       x2="138.95146"
       y2="138.51836"
       gradientUnits="userSpaceOnUse" /><linearGradient
       inkscape:collect="always"
       xlink:href="#linearGradient135"
       id="linearGradient136"
       x1="138.95146"
       y1="139.35861"
       x2="138.95146"
       y2="140.46434"
       gradientUnits="userSpaceOnUse" /><linearGradient
       inkscape:collect="always"
       xlink:href="#linearGradient137"
       id="linearGradient138"
       x1="138.95146"
       y1="141.3046"
       x2="138.95146"
       y2="141.91537"
       gradientUnits="userSpaceOnUse" /><linearGradient
       inkscape:collect="always"
       xlink:href="#linearGradient139"
       id="linearGradient142"
       x1="182.48712"
       y1="-4.7712064"
       x2="182.48712"
       y2="130.69545"
       gradientUnits="userSpaceOnUse"
       gradientTransform="translate(-114.75372,4.7712849)" /><linearGradient
       inkscape:collect="always"
       xlink:href="#linearGradient143"
       id="linearGradient144"
       x1="67.733559"
       y1="52.31567"
       x2="61.843864"
       y2="3.5446703"
       gradientUnits="userSpaceOnUse" /><linearGradient
       inkscape:collect="always"
       xlink:href="#linearGradient145"
       id="linearGradient146"
       x1="30.694551"
       y1="70.818222"
       x2="104.77211"
       y2="107.9494"
       gradientUnits="userSpaceOnUse" /></defs><g
     inkscape:label="console"
     inkscape:groupmode="layer"
     id="layer1"
     style="display:none"><rect
       style="opacity:1;fill:#333333;fill-opacity:1;stroke:none;stroke-width:4;stroke-linecap:round;stroke-linejoin:round;stroke-dashoffset:149.514;paint-order:markers stroke fill"
       id="rect1"
       width="135.46666"
       height="74.567406"
       x="0"
       y="44.136314"
       ry="3.7206447" /><path
       id="rect2"
       style="opacity:1;fill:url(#linearGradient3);fill-opacity:1;stroke-width:4;stroke-linecap:round;stroke-linejoin:round;stroke-dashoffset:149.514;paint-order:markers stroke fill"
       d="m 10.558137,19.783089 23.557364,-2.116667 1.722488,-3.704166 c 0,0 22.350717,-1.5875 31.895342,-1.5875 9.544625,0 31.895342,1.5875 31.895342,1.5875 l 1.722477,3.704166 23.55737,2.116667 6.32481,24.353227 H 4.2333304 Z"
       sodipodi:nodetypes="ccczcccccc" /><path
       id="path2"
       style="opacity:1;fill:#383838;fill-opacity:1;stroke-width:4;stroke-linecap:round;stroke-linejoin:round;stroke-dashoffset:149.514;paint-order:markers stroke fill"
       d="m 34.115501,17.666422 1.722488,-3.704166 c 0,0 22.350717,-1.5875 31.895342,-1.5875 9.544625,0 31.895342,1.5875 31.895342,1.5875 l 1.722477,3.704166 V 44.136316 H 67.73333 34.115501 Z"
       sodipodi:nodetypes="cczcccccc" /><path
       id="path34"
       style="opacity:1;mix-blend-mode:normal;fill:#000000;fill-opacity:1;stroke:none;stroke-width:4;stroke-linecap:round;stroke-linejoin:round;stroke-dashoffset:149.514;paint-order:markers stroke fill;filter:url(#filter34)"
       d="M 95.248965,54.032731 A 18.52939,18.325104 0 0 0 76.719864,72.35771 v 46.34601 H 113.77858 V 72.35771 A 18.52939,18.325104 0 0 0 95.248965,54.032731 Z" /><path
       id="path5"
       style="opacity:1;fill:url(#linearGradient38);stroke:none;stroke-width:4;stroke-linecap:round;stroke-linejoin:round;stroke-dashoffset:149.514;paint-order:markers stroke fill"
       d="M 95.248965,54.032731 A 18.52939,18.325104 0 0 0 76.719864,72.35771 v 46.34601 H 113.77858 V 72.35771 A 18.52939,18.325104 0 0 0 95.248965,54.032731 Z" /><path
       id="rect36"
       style="opacity:0.4;fill:#666666;fill-opacity:1;stroke:none;stroke-width:0.0529167;stroke-linecap:round;stroke-linejoin:round;stroke-dasharray:none;stroke-dashoffset:149.514;stroke-opacity:1;paint-order:markers stroke fill;filter:url(#filter36)"
       d="m 95.020555,65.450785 a 5.2916665,5.2916665 0 0 0 -5.291666,5.291666 v 8.565369 h 10.583331 v -8.565369 a 5.2916665,5.2916665 0 0 0 -5.291665,-5.291666 z" /><path
       id="rect5"
       style="opacity:1;fill:#1a1a1a;fill-opacity:1;stroke:url(#linearGradient36);stroke-width:0.0529167;stroke-linecap:round;stroke-linejoin:round;stroke-dasharray:none;stroke-dashoffset:149.514;stroke-opacity:1;paint-order:markers stroke fill"
       d="m 83.018704,79.307821 c -1.572696,0 -2.838586,1.265889 -2.838586,2.838586 V 118.70386 H 110.31833 V 82.146407 c 0,-1.572697 -1.26589,-2.838586 -2.83859,-2.838586 z" /><path
       id="path6"
       style="opacity:1;fill:#000000;fill-opacity:1;stroke:none;stroke-width:4;stroke-linecap:round;stroke-linejoin:round;stroke-dashoffset:149.514;paint-order:markers stroke fill"
       d="m 95.249217,103.88694 a 7.4084573,7.4084573 0 0 0 -7.408457,7.40846 v 7.27402 h 6.08328 a 7.4084573,7.4084573 0 0 0 1.325177,0.13444 7.4084573,7.4084573 0 0 0 1.325782,-0.13444 h 6.082691 v -7.27402 a 7.4084573,7.4084573 0 0 0 -7.408473,-7.40846 z" /><path
       id="rect6"
       style="opacity:0.6;fill:#000000;fill-opacity:1;stroke:none;stroke-width:4;stroke-linecap:round;stroke-linejoin:round;stroke-dashoffset:149.514;paint-order:markers stroke fill"
       d="m 82.549482,83.734423 c -0.190093,0 -0.343131,0.306031 -0.343131,0.686263 V 113.591 c 0,0.38023 0.153038,0.68626 0.343131,0.68626 0.190093,0 0.343132,-0.30603 0.343132,-0.68626 V 84.420686 c 0,-0.380232 -0.153039,-0.686263 -0.343132,-0.686263 z m 2.116667,0 c -0.190093,0 -0.343132,0.306031 -0.343132,0.686263 V 113.591 c 0,0.38023 0.153039,0.68626 0.343132,0.68626 0.190093,0 0.343131,-0.30603 0.343131,-0.68626 V 84.420686 c 0,-0.380232 -0.153038,-0.686263 -0.343131,-0.686263 z m 2.116667,0 c -0.190093,0 -0.343132,0.222994 -0.343132,0.500228 v 21.268989 c 0,0.27723 0.153039,0.50022 0.343132,0.50022 0.190092,0 0.342614,-0.22299 0.342614,-0.50022 V 84.234651 c 0,-0.277234 -0.152522,-0.500228 -0.342614,-0.500228 z m 2.116666,0 c -0.190093,0 -0.343131,0.197281 -0.343131,0.44235 v 18.800917 c 0,0.24507 0.153038,0.44235 0.343131,0.44235 0.190093,0 0.343132,-0.19728 0.343132,-0.44235 V 84.176773 c 0,-0.245069 -0.153039,-0.44235 -0.343132,-0.44235 z m 2.116667,0 c -0.190093,0 -0.343132,0.183203 -0.343132,0.411344 v 17.502803 c 0,0.22815 0.153039,0.41187 0.343132,0.41187 0.190093,0 0.343131,-0.18372 0.343131,-0.41187 V 84.145767 c 0,-0.228141 -0.153038,-0.411344 -0.343131,-0.411344 z m 2.116666,0 c -0.190093,0 -0.343131,0.17503 -0.343131,0.392741 V 100.8295 c 0,0.21771 0.153038,0.39274 0.343131,0.39274 0.190093,0 0.342615,-0.17503 0.342615,-0.39274 V 84.127164 c 0,-0.217711 -0.152522,-0.392741 -0.342615,-0.392741 z m 2.116667,0 c -0.190093,0 -0.343131,0.1696 -0.343131,0.380855 v 16.207282 c 0,0.21125 0.153038,0.38137 0.343131,0.38137 0.190093,0 0.342615,-0.17012 0.342615,-0.38137 V 84.115278 c 0,-0.211255 -0.152522,-0.380855 -0.342615,-0.380855 z m 2.116667,0 c -0.190093,0 -0.343132,0.17503 -0.343132,0.392741 V 100.8295 c 0,0.21771 0.153039,0.39274 0.343132,0.39274 0.190093,0 0.343131,-0.17503 0.343131,-0.39274 V 84.127164 c 0,-0.217711 -0.153038,-0.392741 -0.343131,-0.392741 z m 2.11615,0 c -0.190093,0 -0.342615,0.183203 -0.342615,0.411344 v 17.502803 c 0,0.22815 0.152522,0.41187 0.342615,0.41187 0.190093,0 0.343131,-0.18372 0.343131,-0.41187 V 84.145767 c 0,-0.228141 -0.153038,-0.411344 -0.343131,-0.411344 z m 2.117181,0 c -0.19009,0 -0.34313,0.197281 -0.34313,0.44235 v 18.800917 c 0,0.24507 0.15304,0.44235 0.34313,0.44235 0.19009,0 0.34313,-0.19728 0.34313,-0.44235 V 84.176773 c 0,-0.245069 -0.15304,-0.44235 -0.34313,-0.44235 z m 2.11615,0 c -0.19009,0 -0.34313,0.222994 -0.34313,0.500228 v 21.268989 c 0,0.27723 0.15304,0.50022 0.34313,0.50022 0.19009,0 0.34313,-0.22299 0.34313,-0.50022 V 84.234651 c 0,-0.277234 -0.15304,-0.500228 -0.34313,-0.500228 z m 2.11719,0 c -0.1901,0 -0.34314,0.306031 -0.34314,0.686263 V 113.591 c 0,0.38023 0.15304,0.68626 0.34314,0.68626 0.19009,0 0.34313,-0.30603 0.34313,-0.68626 V 84.420686 c 0,-0.380232 -0.15304,-0.686263 -0.34313,-0.686263 z m 2.11615,0 c -0.1901,0 -0.34314,0.306031 -0.34314,0.686263 V 113.591 c 0,0.38023 0.15304,0.68626 0.34314,0.68626 0.19009,0 0.34313,-0.30603 0.34313,-0.68626 V 84.420686 c 0,-0.380232 -0.15304,-0.686263 -0.34313,-0.686263 z" /><g
       id="g39"><path
         id="rect19"
         style="opacity:0.6;fill:#000000;fill-opacity:1;stroke:none;stroke-width:4;stroke-linecap:round;stroke-linejoin:round;stroke-dashoffset:149.514;paint-order:markers stroke fill"
         d="m 0,91.660037 v 1.237134 h 71.867964 c 0.342755,0 0.618567,-0.27581 0.618567,-0.618567 0,-0.342757 -0.275812,-0.618567 -0.618567,-0.618567 z m 118.63048,0 c -0.34275,0 -0.61856,0.27581 -0.61856,0.618567 0,0.342757 0.27581,0.618567 0.61856,0.618567 h 16.83618 V 91.660037 Z M 0,93.776704 v 1.237134 h 71.867964 c 0.342755,0 0.618567,-0.275813 0.618567,-0.618567 0,-0.342757 -0.275812,-0.618567 -0.618567,-0.618567 z m 118.63048,0 c -0.34275,0 -0.61856,0.27581 -0.61856,0.618567 0,0.342754 0.27581,0.618567 0.61856,0.618567 h 16.83618 V 93.776704 Z M 0,95.89337 v 1.237134 h 71.867964 c 0.342755,0 0.618567,-0.27581 0.618567,-0.618567 0,-0.342755 -0.275812,-0.618567 -0.618567,-0.618567 z m 118.63048,0 c -0.34275,0 -0.61856,0.275812 -0.61856,0.618567 0,0.342757 0.27581,0.618567 0.61856,0.618567 h 16.83618 V 95.89337 Z M 0,98.010037 v 1.237134 h 71.867964 c 0.342755,0 0.618567,-0.27581 0.618567,-0.618567 0,-0.342757 -0.275812,-0.618567 -0.618567,-0.618567 z m 118.63048,0 c -0.34275,0 -0.61856,0.27581 -0.61856,0.618567 0,0.342757 0.27581,0.618567 0.61856,0.618567 h 16.83618 V 98.010037 Z M 0,100.1267 v 1.23714 h 71.867964 c 0.342755,0 0.618567,-0.27581 0.618567,-0.61857 0,-0.34276 -0.275812,-0.61857 -0.618567,-0.61857 z m 118.63048,0 c -0.34275,0 -0.61856,0.27581 -0.61856,0.61857 0,0.34276 0.27581,0.61857 0.61856,0.61857 h 16.83618 V 100.1267 Z M 0,102.24337 v 1.23713 h 71.867964 c 0.342755,0 0.618567,-0.27581 0.618567,-0.61856 0,-0.34276 -0.275812,-0.61857 -0.618567,-0.61857 z m 118.63048,0 c -0.34275,0 -0.61856,0.27581 -0.61856,0.61857 0,0.34275 0.27581,0.61856 0.61856,0.61856 h 16.83618 v -1.23713 z M 0,104.36004 v 1.23713 h 71.867964 c 0.342755,0 0.618567,-0.27581 0.618567,-0.61857 0,-0.34275 -0.275812,-0.61856 -0.618567,-0.61856 z m 118.63048,0 c -0.34275,0 -0.61856,0.27581 -0.61856,0.61856 0,0.34276 0.27581,0.61857 0.61856,0.61857 h 16.83618 v -1.23713 z" /><path
         id="path39"
         style="opacity:0.4;fill:#000000;fill-opacity:1;stroke:none;stroke-width:4;stroke-linecap:round;stroke-linejoin:round;stroke-dashoffset:149.514;paint-order:markers stroke fill;filter:url(#filter39)"
         d="m 0.52929688,92.367188 c 23.79129512,-0.0065 47.58556012,0.01302 71.37500012,-0.0098 0.196846,-0.283116 -0.434832,-0.141279 -0.564453,-0.167969 -23.603516,0 -47.207031,0 -70.81054712,0 v 0.1 z M 118.60742,92.193359 c -0.2387,0.27116 0.42452,0.161191 0.55078,0.173829 5.25977,0 10.51953,-10e-7 15.7793,0 -0.22385,-0.402059 -1.18327,-0.06855 -1.7,-0.177735 -4.87664,0.0026 -9.75369,-0.0052 -14.63008,0.0039 z M 0.52929688,94.484375 c 23.78935612,-0.0052 47.58157112,0.01042 71.36914112,-0.0078 0.217926,-0.274025 -0.430943,-0.151287 -0.558594,-0.169921 -23.603516,0 -47.207031,0 -70.81054712,0 v 0.1 z M 118.61133,94.310547 c -0.24915,0.263311 0.42122,0.168925 0.54687,0.173828 5.25977,0 10.51953,0 15.7793,0 -0.22385,-0.402058 -1.18327,-0.06855 -1.7,-0.177734 -4.87534,0.0026 -9.75111,-0.0052 -14.62617,0.0039 z M 0.52929688,96.601562 c 23.79239112,-0.0091 47.58940512,0.01823 71.37890612,-0.01367 0.181099,-0.314106 -0.519057,-0.112329 -0.6625,-0.166016 -23.572135,0 -47.144271,0 -70.71640612,0 v 0.1 z M 118.62109,96.425781 c -0.26774,0.200978 0.31154,0.224787 0.43125,0.175781 5.29506,0 10.59011,0 15.88516,0 -0.22077,-0.405788 -1.18332,-0.0698 -1.7,-0.179687 -4.87205,0.0026 -9.74476,-0.0052 -14.61641,0.0039 z M 0.52929688,98.71875 C 24.321688,98.70965 48.118702,98.73698 71.908203,98.70508 c 0.180528,-0.311898 -0.518926,-0.113927 -0.6625,-0.166015 -23.572135,0 -47.144271,-10e-7 -70.71640612,-10e-7 v 0.100001 z M 118.62109,98.542969 c -0.26783,0.20473 0.31119,0.220835 0.43125,0.175781 5.29506,0 10.59011,0 15.88516,0 -0.22077,-0.405788 -1.18332,-0.0698 -1.7,-0.179688 -4.87205,0.0026 -9.74476,-0.0052 -14.61641,0.0039 z M 0.52929688,100.83398 c 23.78935612,-0.005 47.58157112,0.0104 71.36914112,-0.008 0.215855,-0.27665 -0.430866,-0.15127 -0.558594,-0.16992 -23.603516,0 -47.207031,0 -70.81054712,0 v 0.1 z M 118.60742,100.66016 c -0.23751,0.27086 0.42489,0.16199 0.55078,0.17382 5.25977,0 10.51953,0 15.7793,0 -0.22385,-0.40205 -1.18327,-0.0686 -1.7,-0.17773 -4.87664,0.003 -9.75369,-0.005 -14.63008,0.004 z M 0.52929688,102.95117 c 23.78935612,-0.005 47.58157112,0.0104 71.36914112,-0.008 0.215958,-0.27999 -0.430237,-0.14525 -0.558594,-0.16992 -23.603516,0 -47.207031,0 -70.81054712,0 v 0.1 z M 118.61133,102.77734 c -0.24931,0.26308 0.42088,0.1692 0.54687,0.17383 5.25977,0 10.51953,0 15.7793,0 -0.22385,-0.40206 -1.18327,-0.0686 -1.7,-0.17773 -4.87534,0.003 -9.75111,-0.005 -14.62617,0.004 z M 0.52929688,105.06836 c 23.79239112,-0.009 47.58940512,0.0182 71.37890612,-0.0137 0.181099,-0.31411 -0.519057,-0.11233 -0.6625,-0.16602 -23.572135,0 -47.144271,0 -70.71640612,0 v 0.1 z M 118.62109,104.89258 c -0.26774,0.20098 0.31154,0.22478 0.43125,0.17578 5.29506,0 10.59011,0 15.88516,0 -0.22077,-0.40579 -1.18332,-0.0698 -1.7,-0.17969 -4.87205,0.003 -9.74476,-0.005 -14.61641,0.004 z" /></g></g><g
     inkscape:groupmode="layer"
     id="layer2"
     inkscape:label="hucard"
     style="display:inline"><rect
       style="display:inline;opacity:1;fill:#e0e0e0;fill-opacity:1;stroke:none;stroke-width:0.0529167;stroke-linecap:round;stroke-linejoin:round;stroke-dasharray:none;stroke-dashoffset:149.514;stroke-opacity:1;paint-order:markers stroke fill"
       id="rect39"
       width="84.093353"
       height="135.46666"
       x="25.686655"
       y="0"
       ry="6.7324848"
       sodipodi:insensitive="true" /><path
       id="rect40"
       style="display:inline;opacity:1;fill:url(#linearGradient144);stroke:none;stroke-width:0.0529166;stroke-linecap:round;stroke-linejoin:round;stroke-dasharray:none;stroke-dashoffset:149.514;stroke-opacity:1;paint-order:markers stroke fill"
       d="M 29.342402,3.5446703 V 48.00017 c 0,2.3906 1.703061,4.315499 3.818153,4.315499 h 69.146005 c 2.1151,0 3.8177,-1.924899 3.8177,-4.315499 V 3.5446703 Z"
       sodipodi:nodetypes="csssscc" /><rect
       style="display:inline;opacity:1;fill:url(#linearGradient146);stroke:none;stroke-width:0.0529168;stroke-linecap:round;stroke-linejoin:round;stroke-dasharray:none;stroke-dashoffset:149.514;stroke-opacity:1;paint-order:markers stroke fill"
       id="rect41"
       width="74.07756"
       height="66.39045"
       x="30.694551"
       y="55.107712"
       ry="0" /><path
       id="rect73"
       style="fill:#ffcc00;fill-opacity:1;stroke-width:0.79375;stroke-linecap:round;stroke-linejoin:round;stroke-dasharray:none;stroke-dashoffset:149.514;paint-order:markers stroke fill"
       d="m 31.978935,6.1775215 v 9.5911465 h 2.472719 V 6.1775215 Z m 1.236101,7.6357105 a 0.58971637,0.58971637 0 0 1 0.589628,0.589628 0.58971637,0.58971637 0 0 1 -0.589628,0.589628 0.58971637,0.58971637 0 0 1 -0.589629,-0.589628 0.58971637,0.58971637 0 0 1 0.589629,-0.589628 z" /><path
       id="path73"
       style="fill:#ffcc00;fill-opacity:1;stroke-width:0.79375;stroke-linecap:round;stroke-linejoin:round;stroke-dasharray:none;stroke-dashoffset:149.514;paint-order:markers stroke fill"
       d="m 34.855439,5.1191881 v 9.5911459 h 2.472718 V 5.1191881 Z m 1.2361,7.6357099 a 0.58971637,0.58971637 0 0 1 0.589628,0.589628 0.58971637,0.58971637 0 0 1 -0.589628,0.589628 0.58971637,0.58971637 0 0 1 -0.589629,-0.589628 0.58971637,0.58971637 0 0 1 0.589629,-0.589628 z" /><path
       id="path74"
       style="fill:#ffcc00;fill-opacity:1;stroke-width:0.79375;stroke-linecap:round;stroke-linejoin:round;stroke-dasharray:none;stroke-dashoffset:149.514;paint-order:markers stroke fill"
       d="M 37.731942,5.1191881 V 14.710334 H 40.20466 V 5.1191881 Z m 1.2361,7.6357099 a 0.58971637,0.58971637 0 0 1 0.589628,0.589627 0.58971637,0.58971637 0 0 1 -0.589628,0.589628 0.58971637,0.58971637 0 0 1 -0.589629,-0.589628 0.58971637,0.58971637 0 0 1 0.589629,-0.589627 z" /><path
       id="path75"
       style="fill:#ffcc00;fill-opacity:1;stroke-width:0.79375;stroke-linecap:round;stroke-linejoin:round;stroke-dasharray:none;stroke-dashoffset:149.514;paint-order:markers stroke fill"
       d="m 40.608445,5.1191881 v 9.5911459 h 2.472718 V 5.1191881 Z m 1.236101,7.6357099 a 0.58971637,0.58971637 0 0 1 0.589628,0.589628 0.58971637,0.58971637 0 0 1 -0.589628,0.589628 0.58971637,0.58971637 0 0 1 -0.589629,-0.589628 0.58971637,0.58971637 0 0 1 0.589629,-0.589628 z" /><path
       id="path76"
       style="fill:#ffcc00;fill-opacity:1;stroke-width:0.79375;stroke-linecap:round;stroke-linejoin:round;stroke-dasharray:none;stroke-dashoffset:149.514;paint-order:markers stroke fill"
       d="m 43.484948,5.1191881 v 9.5911459 h 2.472718 V 5.1191881 Z m 1.236101,7.6357099 a 0.58971637,0.58971637 0 0 1 0.589628,0.589628 0.58971637,0.58971637 0 0 1 -0.589628,0.589628 0.58971637,0.58971637 0 0 1 -0.589629,-0.589628 0.58971637,0.58971637 0 0 1 0.589629,-0.589628 z" /><path
       id="path77"
       style="fill:#ffcc00;fill-opacity:1;stroke-width:0.79375;stroke-linecap:round;stroke-linejoin:round;stroke-dasharray:none;stroke-dashoffset:149.514;paint-order:markers stroke fill"
       d="m 46.361451,5.1191881 v 9.5911459 h 2.472718 V 5.1191881 Z m 1.236101,7.6357099 a 0.58971637,0.58971637 0 0 1 0.589628,0.589628 0.58971637,0.58971637 0 0 1 -0.589628,0.589628 0.58971637,0.58971637 0 0 1 -0.589629,-0.589628 0.58971637,0.58971637 0 0 1 0.589629,-0.589628 z" /><path
       id="path78"
       style="fill:#ffcc00;fill-opacity:1;stroke-width:0.79375;stroke-linecap:round;stroke-linejoin:round;stroke-dasharray:none;stroke-dashoffset:149.514;paint-order:markers stroke fill"
       d="m 49.237954,5.1191881 v 9.5911459 h 2.472718 V 5.1191881 Z m 1.2361,7.6357099 a 0.58971637,0.58971637 0 0 1 0.589628,0.589628 0.58971637,0.58971637 0 0 1 -0.589628,0.589628 0.58971637,0.58971637 0 0 1 -0.589629,-0.589628 0.58971637,0.58971637 0 0 1 0.589629,-0.589628 z" /><path
       id="path79"
       style="fill:#ffcc00;fill-opacity:1;stroke-width:0.79375;stroke-linecap:round;stroke-linejoin:round;stroke-dasharray:none;stroke-dashoffset:149.514;paint-order:markers stroke fill"
       d="m 52.114457,5.1191881 v 9.5911459 h 2.472718 V 5.1191881 Z m 1.236101,7.6357099 a 0.58971637,0.58971637 0 0 1 0.589627,0.589628 0.58971637,0.58971637 0 0 1 -0.589627,0.589628 0.58971637,0.58971637 0 0 1 -0.58963,-0.589628 0.58971637,0.58971637 0 0 1 0.58963,-0.589628 z" /><path
       id="path80"
       style="fill:#ffcc00;fill-opacity:1;stroke-width:0.79375;stroke-linecap:round;stroke-linejoin:round;stroke-dasharray:none;stroke-dashoffset:149.514;paint-order:markers stroke fill"
       d="m 54.99096,5.1191881 v 9.5911459 h 2.472718 V 5.1191881 Z m 1.2361,7.6357099 a 0.58971637,0.58971637 0 0 1 0.589628,0.589628 0.58971637,0.58971637 0 0 1 -0.589628,0.589628 0.58971637,0.58971637 0 0 1 -0.589629,-0.589628 0.58971637,0.58971637 0 0 1 0.589629,-0.589628 z" /><path
       id="path81"
       style="fill:#ffcc00;fill-opacity:1;stroke-width:0.79375;stroke-linecap:round;stroke-linejoin:round;stroke-dasharray:none;stroke-dashoffset:149.514;paint-order:markers stroke fill"
       d="m 57.867463,5.1191881 v 9.5911459 h 2.472718 V 5.1191881 Z m 1.236101,7.6357099 a 0.58971637,0.58971637 0 0 1 0.589628,0.589627 0.58971637,0.58971637 0 0 1 -0.589628,0.589628 0.58971637,0.58971637 0 0 1 -0.589629,-0.589628 0.58971637,0.58971637 0 0 1 0.589629,-0.589627 z" /><path
       id="path82"
       style="fill:#ffcc00;fill-opacity:1;stroke-width:0.79375;stroke-linecap:round;stroke-linejoin:round;stroke-dasharray:none;stroke-dashoffset:149.514;paint-order:markers stroke fill"
       d="m 60.743966,5.1191881 v 9.5911459 h 2.472718 V 5.1191881 Z m 1.236101,7.6357099 a 0.58971637,0.58971637 0 0 1 0.589628,0.589628 0.58971637,0.58971637 0 0 1 -0.589628,0.589628 0.58971637,0.58971637 0 0 1 -0.589629,-0.589628 0.58971637,0.58971637 0 0 1 0.589629,-0.589628 z" /><path
       id="path83"
       style="fill:#ffcc00;fill-opacity:1;stroke-width:0.79375;stroke-linecap:round;stroke-linejoin:round;stroke-dasharray:none;stroke-dashoffset:149.514;paint-order:markers stroke fill"
       d="m 63.620469,5.1191881 v 9.5911459 h 2.472718 V 5.1191881 Z m 1.236102,7.6357099 a 0.58971637,0.58971637 0 0 1 0.589628,0.589628 0.58971637,0.58971637 0 0 1 -0.589628,0.589628 0.58971637,0.58971637 0 0 1 -0.589629,-0.589628 0.58971637,0.58971637 0 0 1 0.589629,-0.589628 z" /><path
       id="path84"
       style="fill:#ffcc00;fill-opacity:1;stroke-width:0.79375;stroke-linecap:round;stroke-linejoin:round;stroke-dasharray:none;stroke-dashoffset:149.514;paint-order:markers stroke fill"
       d="M 66.496972,3.5437007 V 15.437937 H 68.96969 V 3.5437007 Z m 1.236101,9.9388003 c 0.325622,4.9e-5 0.589579,0.264006 0.589628,0.589628 -4.9e-5,0.325622 -0.264006,0.589579 -0.589628,0.589628 -0.325623,-4.8e-5 -0.58958,-0.264005 -0.589629,-0.589628 4.9e-5,-0.325623 0.264006,-0.58958 0.589629,-0.589628 z"
       sodipodi:nodetypes="cccccccccc" /><path
       id="path85"
       style="fill:#ffcc00;fill-opacity:1;stroke-width:0.79375;stroke-linecap:round;stroke-linejoin:round;stroke-dasharray:none;stroke-dashoffset:149.514;paint-order:markers stroke fill"
       d="m 69.373475,5.1191881 v 9.5911449 h 2.472718 V 5.1191881 Z m 1.236101,7.6357089 a 0.58971637,0.58971637 0 0 1 0.589628,0.589628 0.58971637,0.58971637 0 0 1 -0.589628,0.589628 0.58971637,0.58971637 0 0 1 -0.589629,-0.589628 0.58971637,0.58971637 0 0 1 0.589629,-0.589628 z" /><path
       id="path86"
       style="fill:#ffcc00;fill-opacity:1;stroke-width:0.79375;stroke-linecap:round;stroke-linejoin:round;stroke-dasharray:none;stroke-dashoffset:149.514;paint-order:markers stroke fill"
       d="m 72.249978,5.1191881 v 9.5911449 h 2.472718 V 5.1191881 Z m 1.236101,7.6357089 a 0.58971637,0.58971637 0 0 1 0.589628,0.589628 0.58971637,0.58971637 0 0 1 -0.589628,0.589628 0.58971637,0.58971637 0 0 1 -0.589629,-0.589628 0.58971637,0.58971637 0 0 1 0.589629,-0.589628 z" /><path
       id="path87"
       style="fill:#ffcc00;fill-opacity:1;stroke-width:0.79375;stroke-linecap:round;stroke-linejoin:round;stroke-dasharray:none;stroke-dashoffset:149.514;paint-order:markers stroke fill"
       d="m 75.126481,5.1191881 v 9.5911449 h 2.472718 V 5.1191881 Z m 1.236101,7.6357089 a 0.58971637,0.58971637 0 0 1 0.589628,0.589628 0.58971637,0.58971637 0 0 1 -0.589628,0.589628 0.58971637,0.58971637 0 0 1 -0.589629,-0.589628 0.58971637,0.58971637 0 0 1 0.589629,-0.589628 z" /><path
       id="path88"
       style="fill:#ffcc00;fill-opacity:1;stroke-width:0.79375;stroke-linecap:round;stroke-linejoin:round;stroke-dasharray:none;stroke-dashoffset:149.514;paint-order:markers stroke fill"
       d="m 78.002984,5.1191881 v 9.5911449 h 2.472718 V 5.1191881 Z m 1.236101,7.6357089 a 0.58971637,0.58971637 0 0 1 0.589628,0.589628 0.58971637,0.58971637 0 0 1 -0.589628,0.589628 0.58971637,0.58971637 0 0 1 -0.589629,-0.589628 0.58971637,0.58971637 0 0 1 0.589629,-0.589628 z" /><path
       id="path89"
       style="fill:#ffcc00;fill-opacity:1;stroke-width:0.79375;stroke-linecap:round;stroke-linejoin:round;stroke-dasharray:none;stroke-dashoffset:149.514;paint-order:markers stroke fill"
       d="m 80.879487,5.1191881 v 9.5911449 h 2.472718 V 5.1191881 Z m 1.236101,7.6357089 a 0.58971637,0.58971637 0 0 1 0.589628,0.589628 0.58971637,0.58971637 0 0 1 -0.589628,0.589628 0.58971637,0.58971637 0 0 1 -0.589629,-0.589628 0.58971637,0.58971637 0 0 1 0.589629,-0.589628 z" /><path
       id="path90"
       style="fill:#ffcc00;fill-opacity:1;stroke-width:0.79375;stroke-linecap:round;stroke-linejoin:round;stroke-dasharray:none;stroke-dashoffset:149.514;paint-order:markers stroke fill"
       d="m 83.75599,5.1191881 v 9.5911449 h 2.472718 V 5.1191881 Z m 1.236101,7.6357089 a 0.58971637,0.58971637 0 0 1 0.589629,0.589628 0.58971637,0.58971637 0 0 1 -0.589629,0.589628 0.58971637,0.58971637 0 0 1 -0.589629,-0.589628 0.58971637,0.58971637 0 0 1 0.589629,-0.589628 z" /><path
       id="path91"
       style="fill:#ffcc00;fill-opacity:1;stroke-width:0.79375;stroke-linecap:round;stroke-linejoin:round;stroke-dasharray:none;stroke-dashoffset:149.514;paint-order:markers stroke fill"
       d="m 86.632493,5.1191881 v 9.5911459 h 2.472718 V 5.1191881 Z m 1.236101,7.6357099 a 0.58971637,0.58971637 0 0 1 0.589629,0.589627 0.58971637,0.58971637 0 0 1 -0.589629,0.589628 0.58971637,0.58971637 0 0 1 -0.589629,-0.589628 0.58971637,0.58971637 0 0 1 0.589629,-0.589627 z" /><path
       id="path92"
       style="fill:#ffcc00;fill-opacity:1;stroke-width:0.79375;stroke-linecap:round;stroke-linejoin:round;stroke-dasharray:none;stroke-dashoffset:149.514;paint-order:markers stroke fill"
       d="m 89.508996,5.1191881 v 9.5911449 h 2.472718 V 5.1191881 Z m 1.236102,7.6357089 a 0.58971637,0.58971637 0 0 1 0.589628,0.589628 0.58971637,0.58971637 0 0 1 -0.589628,0.589628 0.58971637,0.58971637 0 0 1 -0.58963,-0.589628 0.58971637,0.58971637 0 0 1 0.58963,-0.589628 z" /><path
       id="path93"
       style="fill:#ffcc00;fill-opacity:1;stroke-width:0.79375;stroke-linecap:round;stroke-linejoin:round;stroke-dasharray:none;stroke-dashoffset:149.514;paint-order:markers stroke fill"
       d="m 92.385499,5.1191881 v 9.5911449 h 2.472718 V 5.1191881 Z m 1.236102,7.6357089 a 0.58971637,0.58971637 0 0 1 0.589628,0.589628 0.58971637,0.58971637 0 0 1 -0.589628,0.589628 0.58971637,0.58971637 0 0 1 -0.589629,-0.589628 0.58971637,0.58971637 0 0 1 0.589629,-0.589628 z" /><path
       id="path94"
       style="fill:#ffcc00;fill-opacity:1;stroke-width:0.79375;stroke-linecap:round;stroke-linejoin:round;stroke-dasharray:none;stroke-dashoffset:149.514;paint-order:markers stroke fill"
       d="m 95.262002,5.1191881 v 9.5911439 h 2.472717 V 5.1191881 Z m 1.236102,7.6357089 a 0.58971637,0.58971637 0 0 1 0.589628,0.589628 0.58971637,0.58971637 0 0 1 -0.589628,0.589627 0.58971637,0.58971637 0 0 1 -0.589629,-0.589627 0.58971637,0.58971637 0 0 1 0.589629,-0.589628 z" /><path
       id="path95"
       style="fill:#ffcc00;fill-opacity:1;stroke-width:0.79375;stroke-linecap:round;stroke-linejoin:round;stroke-dasharray:none;stroke-dashoffset:149.514;paint-order:markers stroke fill"
       d="m 98.138504,5.1191881 v 9.5911439 h 2.472726 V 5.1191881 Z m 1.236103,7.6357079 a 0.58971637,0.58971637 0 0 1 0.58962,0.589628 0.58971637,0.58971637 0 0 1 -0.58962,0.589628 0.58971637,0.58971637 0 0 1 -0.589633,-0.589628 0.58971637,0.58971637 0 0 1 0.589633,-0.589628 z" /><path
       id="path96"
       style="fill:#ffcc00;fill-opacity:1;stroke-width:0.79375;stroke-linecap:round;stroke-linejoin:round;stroke-dasharray:none;stroke-dashoffset:149.514;paint-order:markers stroke fill"
       d="M 101.01501,3.5437007 V 15.437936 h 2.47272 V 3.5437007 Z m 1.2361,9.9387993 c 0.32562,5.3e-5 0.58957,0.264009 0.58962,0.589628 -5e-5,0.325619 -0.264,0.589575 -0.58962,0.589628 -0.32562,-4.8e-5 -0.58958,-0.264005 -0.58963,-0.589628 5e-5,-0.325623 0.26401,-0.58958 0.58963,-0.589628 z"
       sodipodi:nodetypes="cccccccccc" /><path
       id="path97"
       style="opacity:0.6;fill:url(#linearGradient122);stroke-width:0.79375;stroke-linecap:round;stroke-linejoin:round;stroke-dasharray:none;stroke-dashoffset:149.514;paint-order:markers stroke fill;filter:url(#filter122)"
       d="m 67.034649,13.371386 c 0.39483,-0.33408 1.01974,-0.335717 1.41406,0 0,-3.044922 0,-6.0898436 0,-9.1347654 -0.45261,0.1520794 -1.58094,-0.3715601 -1.41406,0.4 0,2.9115885 0,5.8231764 0,8.7347654 z m 34.517571,0 c 0.39449,-0.336121 1.01901,-0.333469 1.41407,0 0,-3.044922 0,-6.0898436 0,-9.1347654 -0.45261,0.1520794 -1.58094,-0.3715601 -1.41407,0.4 0,2.9115885 0,5.8231764 0,8.7347654 z M 35.394019,12.662402 c 0.38877,-0.341643 1.02672,-0.341985 1.41406,0.002 0,-2.283854 0,-4.5677084 0,-6.8515626 -0.4526,0.1520795 -1.58093,-0.37156 -1.41406,0.4 0,2.1498698 0,4.2997396 0,6.4496096 z m 2.875,-0.002 c 0.3904,-0.338276 1.02549,-0.339969 1.41406,0.002 0,-2.283204 0,-4.5664064 0,-6.8496096 -0.4526,0.1520795 -1.58093,-0.37156 -1.41406,0.4 0,2.1492188 0,4.2984376 0,6.4476556 z m 2.87695,0 c 0.3904,-0.338276 1.02549,-0.339969 1.41407,0.002 0,-2.283204 0,-4.5664064 0,-6.8496096 -0.45261,0.1520795 -1.58094,-0.37156 -1.41407,0.4 0,2.1492188 0,4.2984376 0,6.4476556 z m 2.87696,0.002 c 0.38884,-0.341756 1.0238,-0.340373 1.41406,-0.002 0,-2.282552 0,-4.5651035 0,-6.8476556 -0.45261,0.1520795 -1.58094,-0.37156 -1.41406,0.4 0,2.1498698 0,4.2997396 0,6.4496096 z m 2.87695,0 c 0.38868,-0.34223 1.02661,-0.341485 1.41406,0.002 0,-2.283854 0,-4.5677084 0,-6.8515626 -0.45261,0.1520795 -1.58093,-0.37156 -1.41406,0.4 0,2.1498698 0,4.2997396 0,6.4496096 z m 2.87695,-0.0039 c 0.39152,-0.336695 1.02662,-0.337628 1.41407,0.0059 0,-2.283854 0,-4.5677084 0,-6.8515626 -0.45261,0.1520795 -1.58094,-0.37156 -1.41407,0.4000001 0,2.1485677 0,4.2971355 0,6.4457025 z m 2.875,0.002 c 0.3904,-0.338276 1.02549,-0.339969 1.41407,0.002 0,-2.283204 0,-4.5664064 0,-6.8496096 -0.45261,0.1520795 -1.58094,-0.37156 -1.41407,0.4 0,2.1492188 0,4.2984376 0,6.4476556 z m 2.87696,0.002 c 0.38884,-0.341756 1.0238,-0.340373 1.41406,-0.002 0,-2.282552 0,-4.5651035 0,-6.8476556 -0.45261,0.1520795 -1.58094,-0.37156 -1.41406,0.4 0,2.1498698 0,4.2997396 0,6.4496096 z m 2.87695,0 c 0.38884,-0.341756 1.0238,-0.340373 1.41406,-0.002 0,-2.282552 0,-4.5651035 0,-6.8476556 -0.45261,0.1520795 -1.58093,-0.37156 -1.41406,0.4 0,2.1498698 0,4.2997396 0,6.4496096 z m 2.875,-0.002 c 0.39098,-0.338811 1.02798,-0.340119 1.41602,0.0039 -1e-5,-2.283854 0,-4.5677084 0,-6.8515626 -0.4534,0.151941 -1.58199,-0.3713044 -1.41602,0.4 0,2.1492188 0,4.2984376 0,6.4476556 z m 2.87695,0 c 0.3904,-0.338276 1.02549,-0.339969 1.41407,0.002 -1e-5,-2.283204 0,-4.5664064 0,-6.8496096 -0.45261,0.1520795 -1.58094,-0.37156 -1.41407,0.4 0,2.1492188 0,4.2984376 0,6.4476556 z m 5.75391,0.002 c 0.38884,-0.341756 1.0238,-0.340373 1.41406,-0.002 0,-2.282552 0,-4.5651035 0,-6.8476556 -0.45261,0.1520795 -1.58093,-0.37156 -1.41406,0.4 0,2.1498698 0,4.2997396 0,6.4496096 z m 2.87695,0 c 0.38884,-0.341756 1.0238,-0.340373 1.41406,-0.002 0,-2.282552 0,-4.5651035 0,-6.8476556 -0.4526,0.1520795 -1.58093,-0.37156 -1.41406,0.4 0,2.1498698 0,4.2997396 0,6.4496096 z m 2.875,-0.002 c 0.3904,-0.338276 1.02549,-0.339969 1.41406,0.002 0,-2.283204 0,-4.5664064 0,-6.8496096 -0.4526,0.1520795 -1.58093,-0.37156 -1.41406,0.4 0,2.1492188 0,4.2984376 0,6.4476556 z m 2.87695,0 c 0.39054,-0.338617 1.02373,-0.338678 1.41407,0 0,-2.282552 0,-4.5651035 0,-6.8476556 -0.45261,0.1520795 -1.58094,-0.37156 -1.41407,0.4 0,2.1492188 0,4.2984376 0,6.4476556 z m 2.87696,0.002 c 0.38884,-0.341756 1.0238,-0.340373 1.41406,-0.002 0,-2.282552 0,-4.5651035 0,-6.8476556 -0.45261,0.1520795 -1.58093,-0.37156 -1.41406,0.4 0,2.1498698 0,4.2997396 0,6.4496096 z m 2.87695,0 c 0.38877,-0.341643 1.02672,-0.341985 1.41406,0.002 0,-2.283854 0,-4.5677084 0,-6.8515626 -0.4526,0.1520795 -1.58093,-0.37156 -1.41406,0.4 0,2.1498698 0,4.2997396 0,6.4496096 z m 2.87695,0 c 0.38868,-0.34223 1.02662,-0.341485 1.41407,0.002 0,-2.283854 0,-4.5677084 0,-6.8515626 -0.45261,0.1520795 -1.58094,-0.37156 -1.41407,0.4 0,2.1498698 0,4.2997396 0,6.4496096 z m 2.875,-0.002 c 0.3904,-0.338276 1.02549,-0.339969 1.41407,0.002 0,-2.283204 0,-4.5664064 0,-6.8496096 -0.45261,0.1520795 -1.58094,-0.37156 -1.41407,0.4 0,2.1492188 0,4.2984376 0,6.4476556 z m 2.87696,0.002 c 0.38884,-0.341756 1.0238,-0.340373 1.41406,-0.002 0,-2.282552 0,-4.5651035 0,-6.8476556 -0.45261,0.1520795 -1.58094,-0.37156 -1.41406,0.4 0,2.1498698 0,4.2997396 0,6.4496096 z m 2.87695,0 c 0.38884,-0.341756 1.0238,-0.340373 1.41406,-0.002 0,-2.282552 0,-4.5651035 0,-6.8476556 -0.4526,0.1520795 -1.58093,-0.37156 -1.41406,0.4 0,2.1498698 0,4.2997396 0,6.4496096 z m 2.87695,-0.0039 c 0.39152,-0.336695 1.02662,-0.337628 1.414071,0.0059 0,-2.283854 0,-4.5677084 0,-6.8515626 -0.452611,0.1520795 -1.580941,-0.37156 -1.414071,0.4000001 0,2.1485677 0,4.2971355 0,6.4457025 z m -66.16015,1.0625 c 0.38884,-0.341755 1.0238,-0.340372 1.41406,-0.002 0,-2.282552 0,-4.5651037 0,-6.8476558 -0.45261,0.1520794 -1.58094,-0.3715601 -1.41406,0.4 0,2.1498698 0,4.2997398 0,6.4496088 z" /><path
       id="path122"
       style="opacity:0.14;fill:#000000;fill-opacity:1;stroke-width:0.793749;stroke-linecap:round;stroke-linejoin:round;stroke-dashoffset:149.514;paint-order:markers stroke fill"
       inkscape:transform-center-y="-3.2572209"
       d="m 67.733332,124.11226 c -0.322291,0 -0.966788,0.23804 -1.78188,0.61078 h 3.56376 c -0.815092,-0.37274 -1.459589,-0.61078 -1.78188,-0.61078 z m -3.4848,1.45103 c -0.655788,0.3416 -1.348707,0.71794 -2.045081,1.10572 h 11.059763 c -0.696374,-0.38778 -1.389294,-0.76412 -2.045082,-1.10572 z m -3.525564,1.94597 c -0.688604,0.39505 -1.318953,0.76127 -1.902458,1.10573 h 17.825644 c -0.583505,-0.34446 -1.213854,-0.71068 -1.902458,-1.10573 z m -3.313671,1.94598 c -0.404343,0.24413 -0.959307,0.57847 -0.959307,0.57847 v 0.52726 h 22.566684 v -0.52726 c 0,0 -0.554964,-0.33434 -0.959306,-0.57847 z m -0.959307,1.94598 v 0.61078 h 22.566684 v -0.61078 z" /><g
       id="g138"
       transform="translate(-71.218133,-9.9033601)"><path
         style="opacity:0.4;fill:url(#linearGradient138);fill-opacity:1;stroke-width:0.793749;stroke-linecap:round;stroke-linejoin:round;stroke-dashoffset:149.514;paint-order:markers stroke fill"
         d="m 127.66812,141.30459 v 0.61078 h 22.56669 v -0.61078 z"
         id="path129" /><path
         style="opacity:0.4;fill:url(#linearGradient136);fill-opacity:1;stroke-width:0.793749;stroke-linecap:round;stroke-linejoin:round;stroke-dashoffset:149.514;paint-order:markers stroke fill"
         d="m 128.62743,139.35861 c -0.40434,0.24413 -0.95931,0.57847 -0.95931,0.57847 v 0.52726 h 22.56669 v -0.52726 c 0,0 -0.55497,-0.33434 -0.95931,-0.57847 z"
         id="path128" /><path
         style="opacity:0.4;fill:url(#linearGradient134);fill-opacity:1;stroke-width:0.793749;stroke-linecap:round;stroke-linejoin:round;stroke-dashoffset:149.514;paint-order:markers stroke fill"
         d="m 131.9411,137.41263 c -0.6886,0.39505 -1.31895,0.76127 -1.90246,1.10573 h 17.82565 c -0.58351,-0.34446 -1.21386,-0.71068 -1.90246,-1.10573 z"
         id="path127" /><path
         style="opacity:0.4;fill:url(#linearGradient132);fill-opacity:1;stroke-width:0.793749;stroke-linecap:round;stroke-linejoin:round;stroke-dashoffset:149.514;paint-order:markers stroke fill"
         d="m 135.46666,135.46666 c -0.65578,0.3416 -1.3487,0.71794 -2.04508,1.10572 h 11.05977 c -0.69638,-0.38778 -1.3893,-0.76412 -2.04509,-1.10572 z"
         id="path126" /><path
         style="opacity:0.4;fill:url(#linearGradient130);fill-opacity:1;stroke-width:0.793749;stroke-linecap:round;stroke-linejoin:round;stroke-dashoffset:149.514;paint-order:markers stroke fill"
         d="m 138.95146,134.01563 c -0.32229,0 -0.96678,0.23804 -1.78188,0.61078 h 3.56376 c -0.81509,-0.37274 -1.45958,-0.61078 -1.78188,-0.61078 z"
         id="path125" /></g><path
       id="path142"
       style="color:#000000;fill:url(#linearGradient142);stroke-linecap:round;stroke-linejoin:round;stroke-dashoffset:149.514;-inkscape-stroke:none;paint-order:markers stroke fill"
       d="M 32.419212,4.9999906e-8 C 28.689412,4.9999906e-8 25.686802,3.0026126 25.686802,6.7324055 V 128.73425 c 0,3.72979 3.00261,6.73241 6.73241,6.73241 h 70.628238 c 3.7298,0 6.73241,-3.00262 6.73241,-6.73241 V 6.7324055 C 109.77986,3.0026126 106.77725,4.9999906e-8 103.04745,4.9999906e-8 Z M 32.420242,0.79478355 h 70.626698 c 3.30378,0 5.93969,2.63383975 5.93969,5.93762195 V 128.73425 c 0,3.30379 -2.63591,5.93918 -5.93969,5.93918 H 32.420242 c -3.30379,0 -5.93969,-2.63539 -5.93969,-5.93918 V 6.7324055 c 0,-3.3037822 2.6359,-5.93762195 5.93969,-5.93762195 z" /></g><g
     inkscape:groupmode="layer"
     id="layer3"
     inkscape:label="logo"
     style="display:inline"
     sodipodi:insensitive="true"><text
       xml:space="preserve"
       style="font-style:normal;font-weight:normal;font-size:2.0432px;line-height:1.25;font-family:sans-serif;display:inline;fill:#000000;fill-opacity:1;stroke:none;stroke-width:0.264583"
       x="75.837563"
       y="115.95496"
       id="text41"><tspan
         sodipodi:role="line"
         id="tspan41"
         style="stroke-width:0.264583"
         x="75.837563"
         y="115.95496">TM</tspan></text><rect
       x="61.101944"
       y="96.915825"
       width="13.263846"
       height="19.232519"
       id="rect1-4"
       style="display:inline;stroke:#ffffff;stroke-width:0.926039;stroke-dasharray:none;stroke-opacity:1"
       inkscape:label="black" /><path
       id="path58"
       style="color:#000000;fill:#f0e61e;stroke-width:1;-inkscape-stroke:none"
       d="M 60.74588,96.560145 V 116.50295 H 74.720785 V 96.560145 Z m 0.356184,0.355788 H 74.365791 V 116.14835 H 61.102064 Z" /><path
       id="path43"
       style="display:inline;fill:#ff9053;fill-opacity:1;stroke:none;stroke-width:0.0529166;stroke-linecap:round;stroke-linejoin:round;stroke-dasharray:none;stroke-dashoffset:149.514;stroke-opacity:1;paint-order:markers stroke fill"
       d="m 66.345734,104.67237 c -1.122762,0 -2.032941,0.91019 -2.032939,2.03295 2e-6,1.12275 0.91018,2.03294 2.032939,2.03294 h 2.776384 c 1.12276,0 2.032938,-0.91019 2.03294,-2.03294 2e-6,-1.12276 -0.910178,-2.03295 -2.03294,-2.03295 z m 0.06617,0.14332 h 2.644032 c 1.069297,0 1.936135,0.82033 1.936133,1.88963 -2e-6,1.06928 -0.866838,1.88962 -1.936133,1.88962 h -2.644032 c -1.069295,0 -1.936131,-0.82034 -1.936132,-1.88962 -2e-6,-1.0693 0.866834,-1.88963 1.936132,-1.88963 z" /><path
       id="path48"
       style="display:inline;fill:#ffffff;fill-opacity:1;stroke:none;stroke-width:0.0529166;stroke-linecap:round;stroke-linejoin:round;stroke-dasharray:none;stroke-dashoffset:149.514;stroke-opacity:1;paint-order:markers stroke fill"
       d="m 66.41191,104.8155 c -1.069298,0 -1.936135,0.82071 -1.936132,1.88999 0,1.0693 0.866838,1.88964 1.936132,1.88964 h 2.644031 c 1.069296,0 1.936132,-0.82034 1.936134,-1.88964 3e-6,-1.06928 -0.866836,-1.88999 -1.936134,-1.88999 z m -0.01324,0.14748 h 2.670123 c 0.986004,0 1.785253,0.75652 1.785251,1.74251 -10e-7,0.98601 -0.79925,1.74253 -1.785251,1.74253 h -2.67012 c -0.986,0 -1.78525,-0.75652 -1.785251,-1.74253 -2e-6,-0.98599 0.799247,-1.74251 1.785251,-1.74251 z" /><path
       id="rect58"
       style="display:inline;fill:#ff9053;fill-opacity:1;stroke:none;stroke-width:0.926047;stroke-linecap:round;stroke-linejoin:round;stroke-dasharray:none;stroke-dashoffset:149.514;stroke-opacity:1;paint-order:markers stroke fill"
       d="m 65.764001,105.48683 v 0.30462 h 0.304621 v 0.30461 0.30463 0.30462 0.30463 0.30462 0.30462 h -0.304621 v 0.30462 h 0.304621 0.304622 0.304622 v -0.30462 h -0.304622 v -0.30462 -0.30462 -0.30463 -0.30462 -0.30463 -0.30461 -0.30462 h -0.304622 z m 1.65519,0 -0.304621,0.30462 v 0.30461 0.30463 0.30462 0.30463 0.30462 0.30462 l 0.304621,0.30462 h 0.304622 0.304621 0.304621 0.304622 0.304621 0.304622 0.15231 l 0.304621,-0.30462 v -0.22847 -0.0761 -0.15231 -0.0761 -0.22847 l -0.304621,-0.30465 h -0.15231 -0.304622 -0.304621 -0.304622 -0.304621 -0.304621 -0.304622 v -0.15231 -0.30463 -0.30461 h 0.304622 0.304621 0.304621 0.304622 0.304621 0.304622 0.150327 v 0.30461 h 0.304621 v -0.30461 l -0.304621,-0.30462 H 69.24692 68.942298 68.637677 68.333055 68.028434 67.723813 Z m 0,1.37079 h 0.304622 0.304621 0.304621 0.304622 0.304621 0.304622 0.15231 v 0.22847 0.0761 0.15231 0.0761 0.22846 h -0.15231 -0.304622 -0.304621 -0.304622 -0.304621 -0.304621 -0.304622 v -0.30462 -0.30462 z"
       inkscape:label="16" /><path
       id="path3"
       style="color:#000000;display:inline;fill:#f0e61e;fill-opacity:1;stroke-width:1;-inkscape-stroke:none"
       d="m 61.984724,97.93057 v 0.610433 h 0.610433 v 7.615547 h 0.60845 v -7.615547 h 0.608845 V 97.93057 h -0.91307 z"
       inkscape:label="T" /><path
       style="color:#000000;display:inline;fill:#f0e61e;fill-opacity:1;stroke-width:1;-inkscape-stroke:none"
       d="m 64.245543,97.930668 v 5.555152 a 0.5372851,0.5372851 0 0 0 0.537285,0.53729 h 0.752859 a 0.5372851,0.5372851 0 0 0 0.537285,-0.53729 v -5.555152 h -0.608643 v 5.483802 h -0.608644 v -5.483802 z"
       id="path9"
       inkscape:label="U" /><path
       id="path10"
       style="color:#000000;fill:#f0e61e;fill-opacity:1;stroke-width:1;-inkscape-stroke:none"
       d="m 66.678592,97.93057 v 6.09244 h 0.608846 v -2.89312 h 0.207444 l 0.004,0.0202 0.616779,2.8729 h 0.621936 c -0.193648,-0.97133 -0.427997,-1.94253 -0.624315,-2.91375 a 0.5372851,0.5372851 0 0 0 0.392675,-0.51683 v -2.124418 a 0.5372851,0.5372851 0 0 0 -0.53745,-0.537451 z m 0.608846,0.610433 h 0.610036 v 1.980037 h -0.610036 z"
       inkscape:label="R" /><path
       id="path14"
       style="color:#000000;display:inline;fill:#f0e61e;fill-opacity:1;stroke-width:1;-inkscape-stroke:none"
       d="m 69.116357,97.93057 v 6.09244 h 1.282345 c 0.296869,1e-5 0.537777,-0.24018 0.538641,-0.53705 l 0.006,-2.39215 c 2.12e-4,-0.0848 -0.0723,-0.15683 -0.14544,-0.19881 -0.02991,-0.0172 -0.05248,-0.0401 -0.0525,-0.0701 -1.7e-5,-0.0301 0.02267,-0.0531 0.0527,-0.0704 0.07306,-0.0419 0.145332,-0.11418 0.144972,-0.19896 l -0.0089,-2.087523 c -0.0012,-0.297249 -0.242579,-0.537545 -0.539831,-0.537451 -0.426002,-3.5e-5 -0.852005,5.7e-5 -1.278008,0 z m 0.608452,0.610433 h 0.60131 l 0.0012,1.980037 h -0.6025 v -0.23283 z m 0,2.588887 h 0.602897 l 0.0012,2.28467 h -0.604087 v -2.05184 z"
       sodipodi:nodetypes="ccccczcccccccccccccccc"
       inkscape:label="B" /><path
       style="color:#000000;display:inline;fill:#f0e61e;fill-opacity:1;stroke-width:1;-inkscape-stroke:none"
       d="m 71.6557,98.467953 v 7.151127 a 0.5372851,0.5372851 0 0 0 0.537285,0.53728 h 0.752859 a 0.5372851,0.5372851 0 0 0 0.537285,-0.53728 V 98.467953 A 0.5372851,0.5372851 0 0 0 72.945844,97.930668 H 72.192985 A 0.5372851,0.5372851 0 0 0 71.6557,98.467953 Z m 0.608644,0.07286 h 0.608643 v 7.005407 h -0.608643 z"
       id="path17"
       inkscape:label="O" /><path
       id="path7"
       style="color:#000000;display:inline;fill:#ffffff;fill-opacity:1;stroke-width:1;-inkscape-stroke:none"
       inkscape:label="T"
       d="m 62.290008,98.235589 v 0.305414 h 0.602504 l 0.0079,0.305018 v 7.310529 h 0.303035 v -7.615547 h 0.608847 v -0.305414 h -0.607657 z m 4.693868,0 v 5.787421 h 0.303432 v -2.89312 h 0.445324 c 0.212009,0.96341 0.415773,1.92865 0.622883,2.89312 h 0.381967 c -0.193648,-0.97132 -0.427997,-1.94252 -0.624315,-2.91374 0.23192,-0.0648 0.392392,-0.27602 0.392676,-0.51683 v -2.124419 c -4.13e-4,-0.06656 -0.01319,-0.132464 -0.03768,-0.194355 -0.0619,-0.02449 -0.127795,-0.03726 -0.194355,-0.03768 z m -2.433006,3.96e-4 v 5.554995 c 7.64e-4,0.0663 0.01381,0.13197 0.03848,0.19356 0.06159,0.0247 0.127219,0.0377 0.193562,0.0385 h 0.752827 c 0.296554,-1.3e-4 0.536927,-0.2405 0.537054,-0.53706 v -5.249971 h -0.303432 v 5.483591 h -0.608449 -0.305415 v -0.30501 -5.178581 z m 4.870771,0 v 5.787025 h 0.97693 c 0.296869,1e-5 0.537777,-0.24018 0.53864,-0.53705 l 0.006,-2.39216 c 2.13e-4,-0.0848 -0.07203,-0.15674 -0.145171,-0.19872 -0.02991,-0.0172 -0.05273,-0.0402 -0.05275,-0.0702 -1.6e-5,-0.0301 0.02272,-0.053 0.05275,-0.0702 0.07306,-0.0419 0.145531,-0.11434 0.145171,-0.19912 l -0.0091,-2.087528 c -2.84e-4,-0.06877 -0.01477,-0.133952 -0.03848,-0.194355 -0.06091,-0.0238 -0.126621,-0.0377 -0.195942,-0.03768 -0.426001,-3.6e-5 -0.851981,5.7e-5 -1.277982,0 z m 3.076755,0 c -0.296709,-9.1e-5 -0.537322,0.240345 -0.53745,0.537054 v 7.151081 c 7.16e-4,0.0665 0.01376,0.13224 0.03848,0.19395 0.06159,0.0246 0.127219,0.0377 0.193561,0.0384 h 0.752828 c 0.296862,1e-4 0.537539,-0.24057 0.53745,-0.53744 v -7.151082 c -4.34e-4,-0.06613 -0.01307,-0.13162 -0.03729,-0.193165 -0.06194,-0.02495 -0.127983,-0.03813 -0.194751,-0.03887 z m -5.211088,0.305018 h 0.610035 0.305415 v 0.305018 1.980439 h -0.610037 -0.305413 v -0.30542 z m 2.437368,0 h 0.60131 0.305414 v 0.305018 l 0.0012,1.980439 h -0.602499 -0.305415 v -0.30542 -0.23283 z m 2.539702,0 h 0.608449 0.305415 v 0.305018 7.005519 h -0.608846 -0.305018 v -0.30542 z m -2.539702,2.588887 h 0.602896 0.305415 v 0.30542 l 0.0012,2.28427 h -0.604086 -0.305415 v -0.30502 -2.05184 z"
       sodipodi:nodetypes="cccccccccccccccccccccccccccccccccccccccccccsssccccccccccccccccccccccccccccccccccccccccccccccccccccccc" /><path
       id="path20"
       style="color:#000000;display:inline;fill:#f0e61e;fill-opacity:1;stroke-width:1.30301;stroke-dasharray:none"
       d="m 42.317135,102.60566 c 0.0037,3.02633 0.0015,7.83906 6.04e-4,9.51639 -1.84e-4,0.33137 0.26827,0.60008 0.599641,0.60019 l 1.893345,5.9e-4 0.0155,-5.95312 h -1.191659 v 0.79272 h 0.394808 l -0.01188,4.3651 H 43.11158 v -9.12657 h 0.912089 l -0.0021,1.98437 h 0.794783 v -2.17967 a 0.6,0.6 45 0 0 -0.6,-0.6 l -1.300072,0 c -0.331371,0 -0.599551,0.26863 -0.599145,0.6 z"
       sodipodi:nodetypes="ccccccccccccccc"
       inkscape:path-effect="#path-effect22"
       inkscape:original-d="m 42.31628,102.00566 c 0.0059,3.57212 0.0011,10.71639 0.0011,10.71639 l 2.493345,7.8e-4 0.0155,-5.95312 h -1.191659 v 0.79272 h 0.394808 l -0.01188,4.3651 H 43.11158 v -9.12657 h 0.912089 l -0.0021,1.98437 h 0.794783 v -2.77967 z"
       inkscape:label="G"
       transform="matrix(0.76755013,0,0,0.76755013,29.655916,28.705741)" /><path
       id="path22"
       style="color:#000000;display:inline;fill:#f0e61e;fill-opacity:1;stroke-width:1;-inkscape-stroke:none"
       d="m 64.631237,109.13305 v 6.09244 h 0.608846 v -2.89312 h 0.207444 c 0.206309,0.96451 0.413733,1.92879 0.62077,2.89315 h 0.621936 c -0.193648,-0.97132 -0.427996,-1.94252 -0.624315,-2.91374 0.231919,-0.0648 0.39239,-0.27602 0.392675,-0.51682 v -2.12442 c 9.4e-5,-0.29686 -0.240585,-0.53755 -0.53745,-0.53745 z m 0.608846,0.61044 h 0.610037 v 1.98004 h -0.610037 z"
       inkscape:label="R"
       sodipodi:nodetypes="ccccccccccccccccc" /><path
       id="path23"
       style="color:#000000;display:inline;fill:#f0e61e;fill-opacity:1;stroke-width:1;-inkscape-stroke:none"
       d="m 67.087651,109.67104 c -5.6e-5,1.17147 -1.84e-4,3.97672 -1.84e-4,5.55514 h 0.610037 v -2.89509 h 0.694124 v 2.89509 h 0.610036 c -5.51e-4,-1.57843 -3.58e-4,-4.38368 -2.45e-4,-5.55515 2.9e-5,-0.29673 -0.240492,-0.53728 -0.537226,-0.53728 h -0.83923 c -0.296734,0 -0.537297,0.24055 -0.537312,0.53729 z m 0.609853,0.0712 h 0.694124 v 1.98043 h -0.694124 z"
       sodipodi:nodetypes="cccccccccccccc"
       inkscape:label="A" /><path
       id="path30"
       style="color:#000000;display:inline;fill:#f0e61e;fill-opacity:1;stroke-width:1;-inkscape-stroke:none"
       d="m 69.590569,109.67103 5.06e-4,5.55515 h 0.60845 v -2.89509 l 0.763373,-7e-4 v -0.60845 l -0.763373,6.9e-4 v -1.98043 l 0.761787,-6.9e-4 v -0.60846 l -0.833507,7e-4 c -0.296727,0 -0.537263,0.24055 -0.537236,0.53728 z"
       sodipodi:nodetypes="cccccccccccc"
       inkscape:label="F" /><path
       id="path33"
       style="color:#000000;display:inline;fill:#f0e61e;fill-opacity:1;stroke-width:1.30285;-inkscape-stroke:none"
       d="m 54.402363,102.00566 -3.98e-4,3.26908 a 2.5403216,2.5403216 74.601126 0 0 0.358395,1.30124 l 0.990396,1.6611 a 2.5409252,2.5409252 74.59764 0 1 0.35848,1.30124 v 3.15506 h 0.793233 l -5.4e-5,-3.269 a 2.5395307,2.5395307 74.588646 0 0 -0.358669,-1.30114 l -0.990008,-1.65931 a 2.5394495,2.5394495 74.589115 0 1 -0.358658,-1.30114 v -3.15713 z"
       sodipodi:nodetypes="ccccccccc"
       inkscape:path-effect="#path-effect37"
       inkscape:original-d="m 54.402363,102.00566 -4.83e-4,3.96908 1.707356,2.86358 v 3.85506 h 0.793233 l -6.5e-5,-3.969 -1.707324,-2.86159 v -3.85713 z"
       inkscape:label="X"
       transform="matrix(0.76755013,0,0,0.76755013,29.655916,28.705741)" /><path
       id="path37"
       style="color:#000000;display:inline;fill:#f0e61e;fill-opacity:1;stroke-width:1.30285;-inkscape-stroke:none"
       d="m 54.402363,102.00566 -3.98e-4,3.26908 a 2.5403216,2.5403216 74.601126 0 0 0.358395,1.30124 l 0.990396,1.6611 a 2.5409252,2.5409252 74.59764 0 1 0.35848,1.30124 v 3.15506 h 0.793233 l -5.4e-5,-3.269 a 2.5395307,2.5395307 74.588646 0 0 -0.358669,-1.30114 l -0.990008,-1.65931 a 2.5394495,2.5394495 74.589115 0 1 -0.358658,-1.30114 v -3.15713 z"
       sodipodi:nodetypes="ccccccccc"
       inkscape:path-effect="#path-effect39"
       inkscape:original-d="m 54.402363,102.00566 -4.83e-4,3.96908 1.707356,2.86358 v 3.85506 h 0.793233 l -6.5e-5,-3.969 -1.707324,-2.86159 v -3.85713 z"
       inkscape:label="X"
       transform="matrix(-0.76755013,0,0,0.76755013,115.08765,28.705741)" /><path
       id="path63"
       style="color:#000000;display:inline;fill:#ffffff;fill-opacity:1;stroke-width:1;-inkscape-stroke:none"
       inkscape:label="X"
       d="m 73.330953,107.39963 3.97e-4,2.10299 c -1.8e-5,0.35165 -0.09513,0.69674 -0.27527,0.99875 l -0.354201,0.59418 0.353805,0.59336 c 0.09015,0.15098 0.201105,0.40558 0.24747,0.6751 0.04637,0.26953 0.02815,0.55398 0.02819,0.72982 v 2.10974 h -0.304621 v -2.02209 c -2.1e-5,-0.17582 0.01825,-0.46024 -0.02805,-0.72977 -0.0463,-0.26952 -0.157167,-0.52413 -0.247225,-0.67514 l -0.07576,-0.12692 c -0.139745,-0.22789 -0.14065,-0.22941 -0.304226,0 l -0.07537,0.12692 c -0.09006,0.15101 -0.200657,0.40563 -0.246956,0.67515 -0.0463,0.26952 -0.02829,0.55394 -0.02831,0.72976 v 2.02209 h -0.30462 v -2.10974 c -7e-6,-0.17583 -0.01802,-0.46025 0.02828,-0.72978 0.0463,-0.26953 0.156911,-0.52415 0.246995,-0.67514 l 0.353805,-0.59336 -0.354201,-0.59418 c -0.18,-0.30204 -0.274976,-0.64713 -0.274874,-0.99875 l 3.97e-4,-2.10299 h 0.304224 v 2.01692 c -1.5e-5,0.35166 0.0951,0.69676 0.27527,0.99874 l 0.07537,0.12653 c 0.153928,0.25908 0.155298,0.25677 0.304227,0 l 0.07576,-0.12653 c 0.18017,-0.30198 0.275286,-0.64708 0.275271,-0.99874 v -2.01692 z"
       sodipodi:nodetypes="cccccsccccsccccsccccscccccccccccccc" /><path
       id="path67"
       style="color:#000000;display:inline;fill:#ffffff;fill-opacity:1;stroke-width:1.00012;stroke-dasharray:none"
       inkscape:label="G"
       d="m 62.899251,107.30444 c -0.254343,0 -0.46002,0.20615 -0.459709,0.46049 0.0028,2.32287 0.0011,6.01675 3.97e-4,7.30418 -2.7e-5,0.047 0.0092,0.0913 0.02221,0.13406 0.04291,0.0133 0.08759,0.0226 0.134858,0.0226 l 1.453298,3.9e-4 0.01111,-4.26509 h -0.61083 v 0.30422 h 0.303035 v 0.30422 l -0.0091,3.35044 H 63.049205 62.74617 v -0.30423 -7.0051 h 0.700074 0.303036 v 0.30423 l -0.0012,1.21888 h 0.306605 v -1.67304 c -0.0023,-0.0444 -0.01095,-0.0882 -0.02578,-0.1301 -0.04238,-0.0151 -0.08675,-0.0239 -0.131685,-0.0262 z m 2.035172,2.13274 v 5.78821 h 0.305812 v -2.89312 h 0.49919 l 0.645917,2.89312 h 0.305019 c 0,0 -0.427999,-1.94252 -0.624316,-2.91374 0.231917,-0.0648 0.39239,-0.27602 0.392675,-0.51682 v -2.12442 c 2.3e-5,-0.0691 -0.01394,-0.13447 -0.03768,-0.19515 -0.06101,-0.024 -0.127179,-0.0381 -0.196735,-0.0381 z m 6.026984,4e-4 -0.530708,3.9e-4 c -0.296726,0 -0.537081,0.24073 -0.537054,0.53746 l 3.97e-4,5.25075 h 0.305414 v -2.89509 l 0.763538,-7.7e-4 v -0.30383 l -0.460503,3.9e-4 h -0.303035 v -0.30423 -1.98043 l 0.761951,-7.6e-4 z m -3.033522,3.9e-4 c -0.296732,0 -0.53704,0.24072 -0.537054,0.53746 -5.4e-5,1.10731 -3.63e-4,3.63989 -3.96e-4,5.25075 h 0.307 v -2.89509 h 0.694125 0.303035 v 0.30422 2.59087 h 0.307001 c -5.51e-4,-1.57842 -1.14e-4,-4.38351 0,-5.55498 7e-6,-0.0691 -0.01393,-0.13448 -0.03768,-0.19515 -0.06109,-0.0241 -0.127094,-0.0381 -0.196735,-0.0381 z m -0.23045,0.30423 h 0.694125 0.303035 v 0.30423 1.98043 H 68.00047 67.697435 v -0.30423 z m -2.4572,0.002 h 0.610037 0.303035 v 0.30462 1.98003 H 65.54327 65.240235 v -0.30462 z"
       sodipodi:nodetypes="ssscccccccccccccccccccccscccccccccccccccccccccccccccssccccccccscsscccccccccccccccccc" /></g><g
     inkscape:groupmode="layer"
     id="layer5"
     inkscape:label="texts"><text
       xml:space="preserve"
       style="font-style:normal;font-variant:normal;font-weight:normal;font-stretch:normal;font-size:10.5833px;line-height:1.25;font-family:'Architects Daughter';-inkscape-font-specification:'Architects Daughter, Normal';font-variant-ligatures:normal;font-variant-caps:normal;font-variant-numeric:normal;font-variant-east-asian:normal;display:inline;fill:#000000;fill-opacity:1;stroke:none;stroke-width:0.264583"
       x="67.653954"
       y="72.760414"
       id="text73"><tspan
         sodipodi:role="line"
         id="tspan72"
         style="font-style:normal;font-variant:normal;font-weight:normal;font-stretch:normal;font-size:10.5833px;font-family:'Architects Daughter';-inkscape-font-specification:'Architects Daughter, Normal';font-variant-ligatures:normal;font-variant-caps:normal;font-variant-numeric:normal;font-variant-east-asian:normal;text-align:center;text-anchor:middle;fill:#000000;fill-opacity:1;stroke-width:0.264583"
         x="67.653954"
         y="72.760414">F*ck'n</tspan><tspan
         sodipodi:role="line"
         style="font-style:normal;font-variant:normal;font-weight:normal;font-stretch:normal;font-size:10.5833px;font-family:'Architects Daughter';-inkscape-font-specification:'Architects Daughter, Normal';font-variant-ligatures:normal;font-variant-caps:normal;font-variant-numeric:normal;font-variant-east-asian:normal;text-align:center;text-anchor:middle;fill:#000000;fill-opacity:1;stroke-width:0.264583"
         x="67.653954"
         y="85.98954"
         id="tspan73">AWESOME</tspan></text><text
       xml:space="preserve"
       style="font-style:normal;font-variant:normal;font-weight:normal;font-stretch:normal;font-size:10.5833px;line-height:1.25;font-family:'Architects Daughter';-inkscape-font-specification:'Architects Daughter, Normal';font-variant-ligatures:normal;font-variant-caps:normal;font-variant-numeric:normal;font-variant-east-asian:normal;display:inline;fill:#ffffff;fill-opacity:1;stroke:none;stroke-width:0.264583"
       x="68.050827"
       y="73.024994"
       id="text42"><tspan
         sodipodi:role="line"
         id="tspan42"
         style="font-style:normal;font-variant:normal;font-weight:normal;font-stretch:normal;font-size:10.5833px;font-family:'Architects Daughter';-inkscape-font-specification:'Architects Daughter, Normal';font-variant-ligatures:normal;font-variant-caps:normal;font-variant-numeric:normal;font-variant-east-asian:normal;text-align:center;text-anchor:middle;fill:#ffffff;fill-opacity:1;stroke-width:0.264583"
         x="0"
         y="0">F*ck'n</tspan><tspan
         sodipodi:role="line"
         style="font-style:normal;font-variant:normal;font-weight:normal;font-stretch:normal;font-size:10.5833px;font-family:'Architects Daughter';-inkscape-font-specification:'Architects Daughter, Normal';font-variant-ligatures:normal;font-variant-caps:normal;font-variant-numeric:normal;font-variant-east-asian:normal;text-align:center;text-anchor:middle;fill:#ffffff;fill-opacity:1;stroke-width:0.264583"
         x="0"
         y="0"
         id="tspan43">AWESOME</tspan></text><text
       xml:space="preserve"
       style="font-style:normal;font-variant:normal;font-weight:normal;font-stretch:normal;font-size:3.73947px;line-height:1.25;font-family:'Adobe Gothic Std';-inkscape-font-specification:'Adobe Gothic Std, Normal';font-variant-ligatures:normal;font-variant-caps:normal;font-variant-numeric:normal;font-variant-east-asian:normal;display:inline;fill:#ffffff;fill-opacity:1;stroke:none;stroke-width:0.264583"
       x="118.08814"
       y="119.4688"
       id="text71"
       transform="skewX(-14.366777)"><tspan
         sodipodi:role="line"
         id="tspan71"
         style="font-style:normal;font-variant:normal;font-weight:normal;font-stretch:normal;font-size:3.73947px;font-family:Aharoni;-inkscape-font-specification:'Aharoni, Normal';font-variant-ligatures:normal;font-variant-caps:normal;font-variant-numeric:normal;font-variant-east-asian:normal;fill:#ffffff;stroke-width:0.264583"
         x="0"
         y="0">HuCARD</tspan></text></g><g
     inkscape:groupmode="layer"
     id="layer4"
     inkscape:label="ref-bs"
     style="display:none"><text
       xml:space="preserve"
       style="font-style:normal;font-weight:normal;font-size:10.5833px;line-height:1.25;font-family:sans-serif;display:inline;fill:#000000;fill-opacity:1;stroke:none;stroke-width:0.264583"
       x="171.09703"
       y="109.32961"
       id="text1"><tspan
         sodipodi:role="line"
         id="tspan1"
         style="font-style:normal;font-variant:normal;font-weight:normal;font-stretch:normal;font-size:10.5833px;font-family:Zzyzx;-inkscape-font-specification:'Zzyzx, Normal';font-variant-ligatures:normal;font-variant-caps:normal;font-variant-numeric:normal;font-variant-east-asian:normal;stroke-width:0.264583"
         x="171.09703"
         y="109.32961">TURBO</tspan></text><text
       xml:space="preserve"
       style="font-style:normal;font-weight:normal;font-size:10.5833px;line-height:1.25;font-family:sans-serif;display:inline;fill:#000000;fill-opacity:1;stroke:none;stroke-width:0.264583"
       x="151.38794"
       y="117.37123"
       id="text2"><tspan
         sodipodi:role="line"
         id="tspan2"
         style="font-style:normal;font-variant:normal;font-weight:normal;font-stretch:normal;font-size:10.5833px;font-family:Houston;-inkscape-font-specification:'Houston, Normal';font-variant-ligatures:normal;font-variant-caps:normal;font-variant-numeric:normal;font-variant-east-asian:normal;stroke-width:0.264583"
         x="151.38794"
         y="117.37123">TURBO</tspan></text><text
       xml:space="preserve"
       style="font-style:normal;font-weight:normal;font-size:10.5833px;line-height:1.25;font-family:sans-serif;display:inline;fill:#000000;fill-opacity:1;stroke:none;stroke-width:0.264583"
       x="160.44725"
       y="130.79185"
       id="text3"><tspan
         sodipodi:role="line"
         id="tspan3"
         style="font-style:normal;font-variant:normal;font-weight:normal;font-stretch:normal;font-size:10.5833px;font-family:Zzyzx;-inkscape-font-specification:'Zzyzx, Normal';font-variant-ligatures:normal;font-variant-caps:normal;font-variant-numeric:normal;font-variant-east-asian:normal;stroke-width:0.264583"
         x="160.44725"
         y="130.79185">GRAFX</tspan></text><text
       xml:space="preserve"
       style="font-style:normal;font-weight:normal;font-size:10.5833px;line-height:1.25;font-family:sans-serif;display:inline;fill:#000000;fill-opacity:1;stroke:none;stroke-width:0.264583"
       x="138.6429"
       y="95.399689"
       id="text4"><tspan
         sodipodi:role="line"
         id="tspan4"
         style="stroke-width:0.264583"
         x="138.6429"
         y="95.399689">Radius of 0.7</tspan></text><path
       id="path45"
       style="display:inline;opacity:1;fill:#ff9053;fill-opacity:1;stroke:none;stroke-width:0.0529166;stroke-linecap:round;stroke-linejoin:round;stroke-dasharray:none;stroke-dashoffset:149.514;stroke-opacity:1;paint-order:markers stroke fill"
       d="m 154.65804,96.194721 c -1.53432,0 -2.77813,1.243804 -2.77812,2.778124 0,1.534315 1.24381,2.778125 2.77812,2.778125 h 3.79394 c 1.53432,0 2.77813,-1.24381 2.77813,-2.778125 0,-1.53432 -1.24381,-2.778124 -2.77813,-2.778124 z"
       sodipodi:nodetypes="csccscc" /><path
       id="path46"
       style="display:inline;opacity:1;fill:#ffffff;fill-opacity:1;stroke:none;stroke-width:0.0529166;stroke-linecap:round;stroke-linejoin:round;stroke-dasharray:none;stroke-dashoffset:149.514;stroke-opacity:1;paint-order:markers stroke fill"
       d="m 154.74837,96.390431 c -1.46126,0 -2.64583,1.121154 -2.64583,2.582414 0,1.461255 1.18458,2.582405 2.64583,2.582405 h 3.61328 c 1.46126,0 2.64584,-1.12116 2.64584,-2.582405 0,-1.46126 -1.18458,-2.582414 -2.64584,-2.582414 z"
       sodipodi:nodetypes="csccscc" /><path
       id="path47"
       style="display:inline;opacity:1;fill:#008080;fill-opacity:1;stroke:none;stroke-width:0.0529166;stroke-linecap:round;stroke-linejoin:round;stroke-dasharray:none;stroke-dashoffset:149.514;stroke-opacity:1;paint-order:markers stroke fill"
       d="m 154.73055,96.591591 c -1.34743,0 -2.43973,1.033824 -2.43973,2.381254 0,1.347415 1.09231,2.381245 2.43973,2.381245 h 3.64892 c 1.34743,0 2.43973,-1.03383 2.43973,-2.381245 1e-5,-1.34743 -1.0923,-2.381254 -2.43973,-2.381254 z"
       sodipodi:nodetypes="csccscc" /></g></svg>
