<?xml version="1.0" encoding="UTF-8" standalone="no"?>
<!-- Created with Inkscape (http://www.inkscape.org/) -->

<svg
   width="512"
   height="512"
   viewBox="0 0 135.46666 135.46667"
   version="1.1"
   id="svg5"
   inkscape:version="1.4.2 (ebf0e940d0, 2025-05-08)"
   sodipodi:docname="application-x-sg1000-rom.svg"
   xmlns:inkscape="http://www.inkscape.org/namespaces/inkscape"
   xmlns:sodipodi="http://sodipodi.sourceforge.net/DTD/sodipodi-0.dtd"
   xmlns:xlink="http://www.w3.org/1999/xlink"
   xmlns="http://www.w3.org/2000/svg"
   xmlns:svg="http://www.w3.org/2000/svg">
  <sodipodi:namedview
     id="namedview7"
     pagecolor="#242424"
     bordercolor="#666666"
     borderopacity="1"
     inkscape:showpageshadow="0"
     inkscape:pageopacity="0"
     inkscape:pagecheckerboard="1"
     inkscape:deskcolor="#000000"
     inkscape:document-units="px"
     showgrid="false"
     inkscape:zoom="29.5"
     inkscape:cx="415.49153"
     inkscape:cy="11.338983"
     inkscape:window-width="3256"
     inkscape:window-height="1080"
     inkscape:window-x="1864"
     inkscape:window-y="0"
     inkscape:window-maximized="0"
     inkscape:current-layer="layer1" />
  <defs
     id="defs2">
    <linearGradient
       id="linearGradient33"
       inkscape:collect="always">
      <stop
         style="stop-color:#ffffff;stop-opacity:1;"
         offset="0"
         id="stop33" />
      <stop
         style="stop-color:#ffffff;stop-opacity:0;"
         offset="1"
         id="stop34" />
    </linearGradient>
    <inkscape:path-effect
       effect="fillet_chamfer"
       id="path-effect13"
       is_visible="true"
       lpeversion="1"
       nodesatellites_param="F,0,0,1,0,0,0,1 @ F,0,0,1,0,0,0,1 @ F,0,1,1,0,1.0583333,0,1 @ F,0,1,1,0,1.0583333,0,1"
       radius="4"
       unit="px"
       method="auto"
       mode="F"
       chamfer_steps="1"
       flexible="false"
       use_knot_distance="true"
       apply_no_radius="true"
       apply_with_radius="true"
       only_selected="true"
       hide_knots="false" />
    <filter
       style="color-interpolation-filters:sRGB;"
       inkscape:label="Noise Fill"
       id="filter32"
       x="0"
       y="0"
       width="1"
       height="1">
      <feTurbulence
         type="fractalNoise"
         baseFrequency="0.02 12"
         numOctaves="4"
         seed="338"
         result="turbulence"
         id="feTurbulence31" />
      <feComposite
         in="SourceGraphic"
         in2="turbulence"
         operator="in"
         result="composite1"
         id="feComposite31" />
      <feColorMatrix
         values="1 0 0 0 0 0 1 0 0 0 0 0 1 0 0 0 0 0 4 -1 "
         result="color"
         id="feColorMatrix31" />
      <feFlood
         flood-opacity="1"
         flood-color="rgb(255,255,255)"
         result="flood"
         id="feFlood31" />
      <feMerge
         result="merge"
         id="feMerge32">
        <feMergeNode
           in="flood"
           id="feMergeNode31" />
        <feMergeNode
           in="color"
           id="feMergeNode32" />
      </feMerge>
      <feComposite
         in2="SourceGraphic"
         operator="in"
         result="composite2"
         id="feComposite32" />
    </filter>
    <linearGradient
       inkscape:collect="always"
       xlink:href="#linearGradient33"
       id="linearGradient34"
       x1="65.399475"
       y1="5.7190309"
       x2="55.064762"
       y2="54.549763"
       gradientUnits="userSpaceOnUse"
       gradientTransform="matrix(0.98642872,0,0,0.9753677,0.91923092,-4.6296615)" />
    <clipPath
       clipPathUnits="userSpaceOnUse"
       id="clipPath35">
      <path
         id="path36"
         style="display:inline;fill:#0f0f0f;fill-opacity:1;stroke-width:1.49824;stroke-linecap:round;stroke-linejoin:round;stroke-miterlimit:12;paint-order:markers stroke fill"
         d="m 22.360909,0 c -0.780952,0 -1.409733,0.62878133 -1.409733,1.4097331 v 6.0993691 h -0.09767 c -0.674584,0 -1.218013,0.542912 -1.218013,1.2174968 0,0.6745846 0.543429,1.2174966 1.218013,1.2174966 h 0.09767 v 2.8566734 h -0.09767 c -0.674584,0 -1.218013,0.542912 -1.218013,1.217497 0,0.674584 0.543429,1.217496 1.218013,1.217496 h 0.09767 v 2.856673 h -0.09767 c -0.674584,0 -1.218013,0.542913 -1.218013,1.217497 0,0.674585 0.543429,1.217497 1.218013,1.217497 h 0.09767 v 2.856673 h -0.09767 c -0.674584,0 -1.218013,0.542912 -1.218013,1.217497 0,0.674584 0.543429,1.217497 1.218013,1.217497 h 0.09767 v 2.856673 h -0.09767 c -0.674584,0 -1.218013,0.542912 -1.218013,1.217496 0,0.674584 0.543429,1.217496 1.218013,1.217496 h 0.09767 v 2.856674 h -0.09767 c -0.674584,0 -1.218013,0.542912 -1.218013,1.217497 0,0.674584 0.543429,1.217498 1.218013,1.217498 h 0.09767 v 2.856672 h -0.09767 c -0.674584,0 -1.218013,0.542912 -1.218013,1.217496 0,0.674584 0.543429,1.217496 1.218013,1.217496 h 0.09767 v 2.856675 h -0.09767 c -0.674584,0 -1.218013,0.542911 -1.218013,1.217496 0,0.674584 0.543429,1.217496 1.218013,1.217496 h 0.09767 v 2.856674 h -0.09767 c -0.674584,0 -1.218013,0.542912 -1.218013,1.217496 0,0.674585 0.543429,1.217499 1.218013,1.217499 h 0.09767 v 2.856672 h -0.09767 c -0.674584,0 -1.218013,0.542912 -1.218013,1.217496 0,0.674584 0.543429,1.217496 1.218013,1.217496 h 0.09767 v 76.487836 c 0,0.78095 0.628781,1.40973 1.409733,1.40973 h 90.744851 c 0.78095,0 1.40973,-0.62878 1.40973,-1.40973 V 57.569094 h 0.0977 c 0.67458,0 1.21801,-0.542912 1.21801,-1.217496 0,-0.674584 -0.54343,-1.217496 -1.21801,-1.217496 h -0.0977 V 52.27743 h 0.0977 c 0.67458,0 1.21801,-0.542914 1.21801,-1.217499 0,-0.674584 -0.54343,-1.217496 -1.21801,-1.217496 h -0.0977 v -2.856674 h 0.0977 c 0.67458,0 1.21801,-0.542912 1.21801,-1.217496 0,-0.674585 -0.54343,-1.217496 -1.21801,-1.217496 h -0.0977 v -2.856675 h 0.0977 c 0.67458,0 1.21801,-0.542912 1.21801,-1.217496 0,-0.674584 -0.54343,-1.217496 -1.21801,-1.217496 h -0.0977 V 36.40243 h 0.0977 c 0.67458,0 1.21801,-0.542914 1.21801,-1.217498 0,-0.674585 -0.54343,-1.217497 -1.21801,-1.217497 h -0.0977 v -2.856674 h 0.0977 c 0.67458,0 1.21801,-0.542912 1.21801,-1.217496 0,-0.674584 -0.54343,-1.217496 -1.21801,-1.217496 h -0.0977 v -2.856673 h 0.0977 c 0.67458,0 1.21801,-0.542913 1.21801,-1.217497 0,-0.674585 -0.54343,-1.217497 -1.21801,-1.217497 h -0.0977 v -2.856673 h 0.0977 c 0.67458,0 1.21801,-0.542912 1.21801,-1.217497 0,-0.674584 -0.54343,-1.217497 -1.21801,-1.217497 h -0.0977 v -2.856673 h 0.0977 c 0.67458,0 1.21801,-0.542912 1.21801,-1.217496 0,-0.674585 -0.54343,-1.217497 -1.21801,-1.217497 h -0.0977 V 9.9440956 h 0.0977 c 0.67458,0 1.21801,-0.542912 1.21801,-1.2174966 0,-0.6745848 -0.54343,-1.2174968 -1.21801,-1.2174968 h -0.0977 V 1.4097331 C 114.51549,0.62878133 113.88671,0 113.10576,0 h -5.49424 v 0.07079671 c 0,0.1975813 -0.15899,0.35656739 -0.35657,0.35656739 H 28.211714 c -0.197581,0 -0.356566,-0.15898609 -0.356566,-0.35656739 V 0 Z" />
    </clipPath>
    <filter
       inkscape:collect="always"
       style="color-interpolation-filters:sRGB"
       id="filter36"
       x="-0.0061009268"
       y="-0.010361928"
       width="1.0122019"
       height="1.0207239">
      <feGaussianBlur
         inkscape:collect="always"
         stdDeviation="0.24453459"
         id="feGaussianBlur36" />
    </filter>
  </defs>
  <g
     inkscape:label="Layer 1"
     inkscape:groupmode="layer"
     id="layer1">
    <path
       id="rect1"
       style="fill:#0f0f0f;stroke-width:1.49824;stroke-linecap:round;stroke-linejoin:round;stroke-miterlimit:12;paint-order:markers stroke fill;fill-opacity:1"
       d="M 22.360909 0 C 21.579957 0 20.951176 0.62878132 20.951176 1.4097331 L 20.951176 7.5091023 L 20.853507 7.5091023 C 20.178923 7.5091023 19.635494 8.0520143 19.635494 8.726599 C 19.635494 9.4011837 20.178923 9.9440957 20.853507 9.9440957 L 20.951176 9.9440957 L 20.951176 12.800769 L 20.853507 12.800769 C 20.178923 12.800769 19.635494 13.343681 19.635494 14.018266 C 19.635494 14.69285 20.178923 15.235762 20.853507 15.235762 L 20.951176 15.235762 L 20.951176 18.092435 L 20.853507 18.092435 C 20.178923 18.092435 19.635494 18.635348 19.635494 19.309932 C 19.635494 19.984517 20.178923 20.527429 20.853507 20.527429 L 20.951176 20.527429 L 20.951176 23.384102 L 20.853507 23.384102 C 20.178923 23.384102 19.635494 23.927014 19.635494 24.601599 C 19.635494 25.276183 20.178923 25.819096 20.853507 25.819096 L 20.951176 25.819096 L 20.951176 28.675769 L 20.853507 28.675769 C 20.178923 28.675769 19.635494 29.218681 19.635494 29.893265 C 19.635494 30.56785 20.178923 31.110762 20.853507 31.110762 L 20.951176 31.110762 L 20.951176 33.967435 L 20.853507 33.967435 C 20.178923 33.967435 19.635494 34.510347 19.635494 35.184932 C 19.635494 35.859517 20.178923 36.402429 20.853507 36.402429 L 20.951176 36.402429 L 20.951176 39.259102 L 20.853507 39.259102 C 20.178923 39.259102 19.635494 39.802014 19.635494 40.476599 C 19.635494 41.151183 20.178923 41.694095 20.853507 41.694095 L 20.951176 41.694095 L 20.951176 44.550768 L 20.853507 44.550768 C 20.178923 44.550768 19.635494 45.093681 19.635494 45.768265 C 19.635494 46.44285 20.178923 46.985762 20.853507 46.985762 L 20.951176 46.985762 L 20.951176 49.842435 L 20.853507 49.842435 C 20.178923 49.842435 19.635494 50.385347 19.635494 51.059932 C 19.635494 51.734516 20.178923 52.277429 20.853507 52.277429 L 20.951176 52.277429 L 20.951176 55.134102 L 20.853507 55.134102 C 20.178923 55.134102 19.635494 55.677014 19.635494 56.351598 C 19.635494 57.026183 20.178923 57.569095 20.853507 57.569095 L 20.951176 57.569095 L 20.951176 134.05693 C 20.951176 134.83788 21.579957 135.46666 22.360909 135.46666 L 113.10576 135.46666 C 113.88671 135.46666 114.51549 134.83788 114.51549 134.05693 L 114.51549 57.569095 L 114.61316 57.569095 C 115.28774 57.569095 115.83117 57.026183 115.83117 56.351598 C 115.83117 55.677014 115.28774 55.134102 114.61316 55.134102 L 114.51549 55.134102 L 114.51549 52.277429 L 114.61316 52.277429 C 115.28774 52.277429 115.83117 51.734516 115.83117 51.059932 C 115.83117 50.385347 115.28774 49.842435 114.61316 49.842435 L 114.51549 49.842435 L 114.51549 46.985762 L 114.61316 46.985762 C 115.28774 46.985762 115.83117 46.44285 115.83117 45.768265 C 115.83117 45.093681 115.28774 44.550768 114.61316 44.550768 L 114.51549 44.550768 L 114.51549 41.694095 L 114.61316 41.694095 C 115.28774 41.694095 115.83117 41.151183 115.83117 40.476599 C 115.83117 39.802014 115.28774 39.259102 114.61316 39.259102 L 114.51549 39.259102 L 114.51549 36.402429 L 114.61316 36.402429 C 115.28774 36.402429 115.83117 35.859517 115.83117 35.184932 C 115.83117 34.510347 115.28774 33.967435 114.61316 33.967435 L 114.51549 33.967435 L 114.51549 31.110762 L 114.61316 31.110762 C 115.28774 31.110762 115.83117 30.56785 115.83117 29.893265 C 115.83117 29.218681 115.28774 28.675769 114.61316 28.675769 L 114.51549 28.675769 L 114.51549 25.819096 L 114.61316 25.819096 C 115.28774 25.819096 115.83117 25.276183 115.83117 24.601599 C 115.83117 23.927014 115.28774 23.384102 114.61316 23.384102 L 114.51549 23.384102 L 114.51549 20.527429 L 114.61316 20.527429 C 115.28774 20.527429 115.83117 19.984517 115.83117 19.309932 C 115.83117 18.635348 115.28774 18.092435 114.61316 18.092435 L 114.51549 18.092435 L 114.51549 15.235762 L 114.61316 15.235762 C 115.28774 15.235762 115.83117 14.69285 115.83117 14.018266 C 115.83117 13.343681 115.28774 12.800769 114.61316 12.800769 L 114.51549 12.800769 L 114.51549 9.9440957 L 114.61316 9.9440957 C 115.28774 9.9440957 115.83117 9.4011837 115.83117 8.726599 C 115.83117 8.0520143 115.28774 7.5091023 114.61316 7.5091023 L 114.51549 7.5091023 L 114.51549 1.4097331 C 114.51549 0.62878132 113.88671 -1.566648e-16 113.10576 0 L 107.61152 0 L 107.61152 0.070796711 C 107.61152 0.268378 107.45253 0.42736409 107.25495 0.42736409 L 28.211714 0.42736409 C 28.014133 0.42736409 27.855147 0.268378 27.855147 0.070796711 L 27.855147 0 L 22.360909 0 z " />
    <path
       id="rect12"
       style="fill:#080808;stroke-width:12.4659;stroke-linecap:round;stroke-linejoin:round;stroke-miterlimit:12;paint-order:markers stroke fill;opacity:0.6;fill-opacity:1"
       d="M 28.211714,0.42736408 H 107.25495 V 77.032506 a 1.0583333,1.0583333 135 0 1 -1.05833,1.058333 H 29.270047 a 1.0583333,1.0583333 45 0 1 -1.058333,-1.058333 z" />
    <path
       id="rect14"
       style="display:inline;fill:#1a1a1a;fill-opacity:1;stroke-width:1.71783;stroke-linecap:round;stroke-linejoin:round;stroke-miterlimit:12;paint-order:markers stroke fill"
       d="M 28.740881,0.42736409 V 0.95549722 20.534664 77.03354 c 0,0.292599 0.235534,0.528133 0.528133,0.528133 h 76.928636 c 0.2926,0 0.52813,-0.235534 0.52813,-0.528133 V 20.534664 0.95549722 0.42736409 h -0.52813 -76.928636 z" />
    <text
       xml:space="preserve"
       style="font-size:16.04px;line-height:1.25;font-family:neo-geo;-inkscape-font-specification:'neo-geo, Normal';text-align:center;text-orientation:upright;text-anchor:middle;fill:#ffffff;stroke-width:0.12079"
       x="67.452629"
       y="71.910477"
       id="text15"><tspan
         sodipodi:role="line"
         id="tspan15"
         style="font-style:normal;font-variant:normal;font-weight:normal;font-stretch:normal;font-size:16.04px;font-family:'SEGA LOGO FONT';-inkscape-font-specification:'SEGA LOGO FONT, Normal';font-variant-ligatures:normal;font-variant-caps:normal;font-variant-numeric:normal;font-variant-east-asian:normal;fill:#ffffff;stroke-width:0.12079"
         x="67.452629"
         y="71.910477">DEGA</tspan></text>
    <text
       xml:space="preserve"
       style="font-size:35.1346px;line-height:1.25;font-family:'SEGA LOGO FONT';-inkscape-font-specification:'SEGA LOGO FONT, Normal';text-align:center;text-orientation:upright;text-anchor:middle;display:none;stroke-width:0.264583"
       x="-76.199997"
       y="-1.5785315"
       id="text16"><tspan
         sodipodi:role="line"
         id="tspan16"
         style="font-style:normal;font-variant:normal;font-weight:normal;font-stretch:normal;font-size:35.1346px;font-family:'Levenim MT';-inkscape-font-specification:'Levenim MT, Normal';font-variant-ligatures:normal;font-variant-caps:normal;font-variant-numeric:normal;font-variant-east-asian:normal;stroke-width:0.264583"
         x="-76.199997"
         y="-1.5785315">Quick</tspan><tspan
         sodipodi:role="line"
         style="font-style:normal;font-variant:normal;font-weight:normal;font-stretch:normal;font-size:35.1346px;font-family:'Levenim MT';-inkscape-font-specification:'Levenim MT, Normal';font-variant-ligatures:normal;font-variant-caps:normal;font-variant-numeric:normal;font-variant-east-asian:normal;stroke-width:0.264583"
         x="-76.199997"
         y="47.281216"
         id="tspan17">Racer</tspan></text>
    <path
       style="font-size:35.1346px;line-height:1.25;font-family:WhoopAss;-inkscape-font-specification:'WhoopAss, Normal';text-align:center;text-orientation:upright;text-anchor:middle;display:none;fill:#00ff00;stroke-width:0.164457"
       d="m 41.122804,33.13283 h -0.138625 q -0.511843,0 -0.522506,0.490517 0,0 0,0.682458 v 0.671794 q 0,0.522507 0.458526,0.50118 l 0.202605,-0.01067 q 1.396905,-0.07464 1.930075,-0.255921 0.639805,-0.223932 0.650468,-0.959707 0,-0.725111 -0.650468,-0.949043 -0.522506,-0.170614 -1.930075,-0.170614 z m -0.149288,7.603008 q -0.106634,-0.170614 -0.319902,-0.202604 -0.191941,-0.02133 -0.223932,0.309238 v 3.337646 q 0,0.522507 -0.522507,0.522507 h -4.201381 q -0.522507,0 -0.522507,-0.522507 V 28.71818 q 0,-0.522506 0.490516,-0.522506 l 6.995194,-0.04265 q 2.228651,-0.01066 3.817499,1.194301 1.631501,1.236956 2.090027,3.390963 0.138625,0.671795 0.138625,1.332926 0,1.172975 -0.447863,2.356612 -0.693121,1.866096 -2.463247,2.804476 -0.266585,0.138624 -0.266585,0.351892 0,0.181278 0.191942,0.415873 l 2.740494,4.180055 q 0.138625,0.202605 0.138625,0.330565 0,0.191942 -0.319902,0.191942 h -4.190719 q -0.522507,0 -0.863735,-0.522507 z m 13.574514,-11.83638 7.666988,15.163363 q 0.07464,0.149287 0.07464,0.255921 0,0.362556 -0.757101,0.362556 h -3.305656 q -0.575824,0 -0.725112,-0.06398 -0.191941,-0.09597 -0.437199,-0.543834 -0.362556,-0.671795 -1.183638,-0.650468 -1.514204,0.03199 -2.676515,0.01066 -1.343589,-0.01066 -2.676515,-0.01066 -0.735775,0 -1.023687,0.618477 -0.223931,0.479854 -0.383883,0.575825 -0.15995,0.08531 -0.725111,0.08531 l -1.695481,-0.01067 q -0.554497,0 -1.684818,-0.01067 -0.767766,0 -0.767766,-0.373219 0,-0.127961 0.08531,-0.298575 l 7.624336,-15.110041 q 0.415873,-0.821082 1.300936,-0.821082 0.874399,0 1.290272,0.821082 z m -0.511843,9.319817 q -0.191942,-0.383883 -0.565161,-1.140985 -0.117297,-0.127961 -0.223931,-0.127961 -0.117298,0 -0.223932,0.138625 -0.213268,0.394546 -0.586487,1.16231 -0.127961,0.298576 0.170614,0.34123 h 1.300936 q 0.159951,0 0.170614,-0.159951 0,-0.138624 -0.04265,-0.213268 z M 66.277776,27.641177 q 2.324622,0 4.350669,1.162311 2.03671,1.151647 3.220348,3.156368 0.37322,0.618477 0.202605,0.821082 -0.138624,0.170615 -0.447863,0.309239 l -3.390963,1.50354 q -0.714448,0.319902 -0.842409,0.149288 -0.106634,-0.117298 -0.330565,-0.415873 -1.077004,-1.364916 -2.761822,-1.364916 -1.43956,0 -2.463246,1.013023 -1.013024,1.013024 -1.013024,2.452583 0,1.450224 1.013024,2.463247 1.013023,1.013023 2.463246,1.013023 1.812779,0 2.857793,-1.492876 0.383882,-0.554498 0.586487,-0.522507 0.213268,0.03199 0.50118,0.159951 l 3.369636,1.460886 q 0.181278,0.08531 0.50118,0.255922 0.287912,0.159952 -0.05332,0.799756 -1.151648,2.154007 -3.241675,3.401626 -2.079364,1.247618 -4.521284,1.247618 -3.668211,0 -6.227429,-2.559217 -2.548553,-2.559217 -2.548553,-6.227429 0,-3.657547 2.559217,-6.216765 2.559217,-2.56988 6.216765,-2.56988 z m 7.656325,0.554497 11.292546,-0.02133 q 0.586487,0 0.586487,0.50118 v 3.924133 q 0,0.490517 -0.586487,0.490517 H 79.22315 q -0.607814,0 -0.575824,0.575824 0.03199,0.575824 0.575824,0.575824 h 5.395683 q 0.554497,0 0.554497,0.458526 v 3.625558 q 0,0.447863 -0.554497,0.447863 h -5.459664 q -0.50118,0 -0.50118,0.618477 -0.01066,0.575824 0.50118,0.575824 h 6.067478 q 0.586487,0 0.586487,0.46919 v 3.732192 q 0,0.46919 -0.586487,0.46919 -1.887423,0 -5.651605,0.03199 -3.764182,0.03199 -5.640941,0.03199 -0.522507,0 -0.522507,-0.522507 V 28.71818 q 0,-0.522506 0.522507,-0.522506 z M 92.691033,33.13283 H 92.55241 q -0.511845,0 -0.522512,0.490517 0,0 0,0.682458 v 0.671794 q 0,0.522507 0.458527,0.50118 l 0.202608,-0.01067 q 1.396906,-0.07464 1.930077,-0.255921 0.639802,-0.223932 0.650468,-0.959707 0,-0.725111 -0.650468,-0.949043 -0.522511,-0.170614 -1.930077,-0.170614 z m -0.149289,7.603008 q -0.106631,-0.170614 -0.319904,-0.202604 -0.191942,-0.02133 -0.223928,0.309238 v 3.337646 q 0,0.522507 -0.522511,0.522507 h -4.201379 q -0.522507,0 -0.522507,-0.522507 V 28.71818 q 0,-0.522506 0.490517,-0.522506 l 6.995196,-0.04265 q 2.228649,-0.01066 3.817497,1.194301 1.6315,1.236956 2.090025,3.390963 0.13862,0.671795 0.13862,1.332926 0,1.172975 -0.447856,2.356612 -0.69312,1.866096 -2.463249,2.804476 -0.266586,0.138624 -0.266586,0.351892 0,0.181278 0.191941,0.415873 l 2.7405,4.180055 q 0.13862,0.202605 0.13862,0.330565 0,0.191942 -0.3199,0.191942 h -4.190719 q -0.522506,0 -0.863736,-0.522507 z"
       id="path22" />
    <text
       xml:space="preserve"
       style="font-size:35.1346px;line-height:1.25;font-family:'SEGA LOGO FONT';-inkscape-font-specification:'SEGA LOGO FONT, Normal';text-align:center;text-orientation:upright;text-anchor:middle;display:none;stroke-width:0.264583"
       x="209.51413"
       y="0.1435028"
       id="text21"><tspan
         sodipodi:role="line"
         id="tspan20"
         style="font-style:normal;font-variant:normal;font-weight:normal;font-stretch:normal;font-size:35.1346px;font-family:WhoopAss;-inkscape-font-specification:'WhoopAss, Normal';font-variant-ligatures:normal;font-variant-caps:normal;font-variant-numeric:normal;font-variant-east-asian:normal;stroke-width:0.264583"
         x="209.51413"
         y="0.1435028">Quick</tspan><tspan
         sodipodi:role="line"
         style="font-style:normal;font-variant:normal;font-weight:normal;font-stretch:normal;font-size:35.1346px;font-family:WhoopAss;-inkscape-font-specification:'WhoopAss, Normal';font-variant-ligatures:normal;font-variant-caps:normal;font-variant-numeric:normal;font-variant-east-asian:normal;stroke-width:0.264583"
         x="209.51413"
         y="46.161358"
         id="tspan21">Racer</tspan></text>
    <path
       style="font-size:35.1346px;line-height:1.25;font-family:WhoopAss;-inkscape-font-specification:'WhoopAss, Normal';text-align:center;text-orientation:upright;text-anchor:middle;display:none;fill:#00ff00;stroke-width:0.164457"
       d="m 44.017918,4.3081466 q 3.646884,0 6.216765,2.5805438 2.569881,2.5698806 2.569881,6.2167656 0,2.964426 -1.812779,5.331702 -0.298576,0.383883 -0.08531,0.799756 l 1.50354,2.943099 q 0.08531,0.181278 0.08531,0.298576 0,0.223931 -0.341229,0.223931 h -4.190718 q -0.501181,0 -0.789092,-0.522507 -0.266585,-0.479853 -0.447863,-0.586487 -0.138624,-0.07464 -0.597151,0.03199 -1.055677,0.255922 -2.111354,0.255922 -3.668212,0 -6.227429,-2.548554 -2.559217,-2.559217 -2.559217,-6.227429 0,-3.6575475 2.559217,-6.2274281 2.569881,-2.5698805 6.227429,-2.5698803 z m 3.135041,9.9489564 q 0.149288,0 0.181278,-0.117297 0.159951,-0.522507 0.159951,-1.03435 0,-1.43956 -1.023687,-2.452584 -1.013023,-1.0236865 -2.452583,-1.0236865 -1.450223,0 -2.463247,1.0130235 -1.013023,1.013023 -1.013023,2.463247 0,1.375579 0.927716,2.377939 0.927716,0.991697 2.292632,1.087667 0.415873,0.03199 0.415873,-0.191941 0,-0.08531 -0.06398,-0.202605 L 43.39944,14.77961 q -0.09597,-0.181278 -0.09597,-0.298575 0,-0.223932 0.351892,-0.223932 z m 8.3921,-9.4157864 q 0.522507,0 0.522507,0.522507 v 9.8316594 q 0.106634,0.874399 0.159951,1.013023 0.191941,0.458527 0.821082,0.458527 0.757102,0 0.885063,-0.735775 l 0.12796,-0.735775 V 5.3744866 q 0,-0.1812775 0.170615,-0.3518919 0.170615,-0.1812781 0.351892,-0.1812781 h 4.190718 q 0.181279,0 0.351893,0.1812781 0.170614,0.1706144 0.170614,0.3518919 v 9.8849764 q 0,2.505901 -1.866095,4.31868 -1.866097,1.812778 -4.38266,1.812778 -2.559217,0 -4.393323,-1.802115 Q 50.82117,17.776027 50.82117,15.21681 V 5.3638236 q 0,-0.522507 0.522507,-0.522507 z m 13.33992,0.042652 q 0.522507,0 0.522507,0.522507 V 20.868414 q 0,0.522506 -0.522507,0.522506 h -4.201382 q -0.522507,0 -0.522507,-0.522506 V 5.4064758 q 0,-0.522507 0.522507,-0.522507 z M 77.596981,4.329472 q 2.324623,0 4.35067,1.1623113 2.03671,1.1516475 3.220348,3.1563677 0.373219,0.6184775 0.202605,0.8210822 -0.138625,0.1706145 -0.447863,0.3092387 L 81.531778,11.282012 Q 80.81733,11.601914 80.689369,11.4313 80.582735,11.314002 80.358803,11.015427 79.281799,9.6505111 77.596981,9.6505111 q -1.439559,0 -2.463247,1.0130239 -1.013023,1.013023 -1.013023,2.452583 0,1.450223 1.013023,2.463246 1.013024,1.013024 2.463247,1.013024 1.812779,0 2.857793,-1.492877 0.383882,-0.554497 0.586487,-0.522507 0.213268,0.03199 0.50118,0.159951 l 3.369636,1.460887 q 0.181278,0.08531 0.50118,0.255922 0.287912,0.159951 -0.05332,0.799755 -1.151648,2.154008 -3.241675,3.401626 -2.079364,1.247619 -4.521284,1.247619 -3.668212,0 -6.227429,-2.559218 -2.548553,-2.559217 -2.548553,-6.227428 0,-3.6575482 2.559217,-6.2167654 Q 73.939432,4.329472 77.59698,4.329472 Z m 11.847045,0.5544968 q 0.533171,0 0.533171,0.522507 v 2.5378905 q 0,0.5118434 0.117297,0.5118434 0.09597,-0.010664 0.287912,-0.4052094 0.405208,-0.8850626 1.215625,-2.6445245 0.245259,-0.522507 0.853075,-0.522507 h 4.20138 q 0.4372,0 0.191941,0.522507 l -3.273666,7.0698372 q -0.266586,0.575824 0.02132,0.97037 l 3.444281,7.421731 q 0.09597,0.202604 -0.127963,0.373218 -0.181275,0.149288 -0.405209,0.149288 h -4.190713 q -0.277252,0 -0.522511,-0.522506 l -1.471551,-3.177695 q -0.117297,-0.255922 -0.234594,-0.202605 -0.10663,0.05332 -0.10663,0.341229 0,0 0,1.524867 v 1.514204 q 0,0.522506 -0.533171,0.522506 H 85.2533 q -0.522507,0 -0.522507,-0.522506 V 5.4064758 q 0,-0.522507 0.522507,-0.522507 z"
       id="path21" />
    <path
       id="path30"
       style="font-size:35.1346px;line-height:1.25;font-family:WhoopAss;-inkscape-font-specification:'WhoopAss, Normal';text-align:center;text-orientation:upright;text-anchor:middle;display:inline;mix-blend-mode:normal;fill:#00ff00;stroke-width:0.164457;filter:url(#filter32)"
       d="m 44.017991,4.3082641 c -2.438365,-10e-8 -4.514273,0.8566153 -6.227527,2.569869 -1.706145,1.7132537 -2.559017,3.7891619 -2.559017,6.2275269 0,2.445474 0.852872,4.520865 2.559017,6.22701 1.706145,1.699036 3.782052,2.548681 6.227527,2.548681 0.703785,0 1.407714,-0.08518 2.111499,-0.255798 0.305685,-0.07109 0.504447,-0.0818 0.596863,-0.03204 0.120852,0.07109 0.270311,0.266625 0.448034,0.586527 0.191941,0.348338 0.454979,0.522449 0.789099,0.522449 h 4.190442 c 0.227486,0 0.341581,-0.07447 0.341581,-0.223759 0,-0.0782 -0.02839,-0.177838 -0.08527,-0.29869 l -1.503784,-2.942973 c -0.142177,-0.277248 -0.113784,-0.544029 0.08527,-0.799951 0.145255,-0.189685 0.281999,-0.382306 0.409794,-0.577742 0.300918,0.624081 0.718644,1.200805 1.253671,1.72961 1.222737,1.20141 2.687385,1.801957 4.39353,1.801957 1.677709,0 3.138613,-0.60429 4.382678,-1.812809 1.244063,-1.208519 1.866036,-2.647999 1.866036,-4.318599 V 5.3743489 c 0,-0.1208517 -0.05679,-0.2381736 -0.170532,-0.3519165 C 63.013159,4.9015803 62.895838,4.8415649 62.774985,4.8415649 h -4.190958 c -0.120852,0 -0.238174,0.060015 -0.351917,0.1808675 -0.113743,0.1137429 -0.170532,0.2310648 -0.170532,0.3519165 v 9.8211061 l -0.128158,0.735872 c -0.08531,0.490517 -0.379965,0.735873 -0.8847,0.735873 -0.419427,0 -0.693178,-0.153203 -0.821139,-0.458887 -0.03554,-0.09242 -0.08911,-0.429926 -0.160197,-1.012858 V 5.3640136 c 0,-0.348338 -0.17411,-0.5224487 -0.522448,-0.5224487 h -4.201294 c -0.348338,0 -0.522449,0.1741107 -0.522449,0.5224487 V 7.5292561 C 50.638341,7.3105202 50.442804,7.0966071 50.234666,6.8884683 48.521412,5.1681058 46.449247,4.3082641 44.017991,4.3082641 Z m 33.578828,0.021187 c -2.438366,0 -4.510528,0.8566153 -6.216674,2.569869 -0.889389,0.8893882 -1.546727,1.8783832 -1.97249,2.9667439 V 5.406388 c 0,-0.348338 -0.17411,-0.5224487 -0.522448,-0.5224487 h -4.201811 c -0.348338,0 -0.522449,0.1741107 -0.522449,0.5224487 v 15.462105 c 0,0.348338 0.174111,0.522449 0.522449,0.522449 h 4.201811 c 0.348338,0 0.522448,-0.174111 0.522448,-0.522449 v -4.488098 c 0.42406,1.087815 1.077655,2.075446 1.961638,2.963127 1.706144,1.706145 3.782052,2.559017 6.227526,2.559017 1.627947,0 3.135445,-0.415723 4.521688,-1.247469 1.047693,-0.625409 1.91825,-1.421435 2.612244,-2.388485 v 2.601908 c 0,0.348338 0.17411,0.522449 0.522448,0.522449 h 4.190959 c 0.355447,0 0.532784,-0.174111 0.532784,-0.522449 v -1.514119 -1.524972 c 0,-0.191939 0.03588,-0.305517 0.10697,-0.341064 0.0782,-0.03554 0.156413,0.03196 0.234611,0.202572 l 1.471228,3.177583 c 0.163506,0.348338 0.338131,0.522449 0.522966,0.522449 h 4.190442 c 0.149289,0 0.284293,-0.04982 0.405143,-0.149345 0.149289,-0.113742 0.192137,-0.238034 0.128157,-0.373104 l -3.444234,-7.421769 c -0.191937,-0.26303 -0.199428,-0.5866 -0.0217,-0.970483 l 3.273702,-7.0698527 c 0.163506,-0.348338 0.09975,-0.5224487 -0.191719,-0.5224487 h -4.201294 c -0.405211,0 -0.689672,0.1741107 -0.853178,0.5224487 -0.540278,1.1729746 -0.945291,2.054758 -1.21543,2.6447998 -0.127961,0.2630302 -0.224374,0.3980338 -0.288354,0.4051432 -0.0782,0 -0.117306,-0.1708845 -0.117306,-0.5121135 V 5.4063883 c 0,-0.348338 -0.177337,-0.5224487 -0.532784,-0.5224487 h -4.190959 c -0.348338,0 -0.522448,0.1741107 -0.522448,0.5224487 V 7.9772908 C 83.997144,6.954758 83.069279,6.1259803 81.947462,5.4916544 80.596764,4.7167802 79.146572,4.3294514 77.596823,4.3294514 Z M 44.017991,9.629386 c 0.959707,0 1.777215,0.3412524 2.452563,1.02371 0.682458,0.67535 1.02371,1.492857 1.02371,2.452564 0,0.341228 -0.05356,0.685707 -0.160197,1.034045 -0.02133,0.0782 -0.08134,0.117306 -0.180867,0.117306 h -3.497978 c -0.234594,0 -0.351916,0.07499 -0.351916,0.224275 0,0.0782 0.03214,0.177321 0.09612,0.298173 l 0.714685,1.396814 c 0.04265,0.0782 0.06356,0.146215 0.06356,0.203089 0,0.149287 -0.13823,0.213046 -0.415478,0.191719 -0.909944,-0.06398 -1.674406,-0.426657 -2.292884,-1.087789 -0.618477,-0.66824 -0.927592,-1.46058 -0.927592,-2.377632 0,-0.966816 0.33751,-1.788067 1.012858,-2.463416 0.67535,-0.675349 1.496601,-1.012858 2.463416,-1.012858 z m 33.578828,0.021187 c 1.123212,0 2.044103,0.45483 2.762106,1.364774 0.149288,0.19905 0.259123,0.337797 0.330212,0.415995 0.08531,0.113743 0.366544,0.06392 0.842843,-0.149344 l 3.198771,-1.4185181 v 6.2559481 l -3.188436,-1.382344 c -0.191941,-0.08531 -0.359083,-0.13887 -0.501261,-0.160197 -0.13507,-0.02133 -0.330607,0.152784 -0.586528,0.522449 -0.696676,0.995251 -1.649187,1.492932 -2.857707,1.492932 -0.966815,0 -1.787549,-0.337509 -2.462898,-1.012858 -0.675349,-0.675349 -1.013375,-1.496601 -1.013375,-2.463416 0,-0.959707 0.338026,-1.777215 1.013375,-2.452563 0.682458,-0.6753492 1.503192,-1.012858 2.462898,-1.012858 z M 66.277614,27.641207 c -2.438366,0 -4.51053,0.856615 -6.216675,2.569868 -1.352491,1.352492 -2.168598,2.934896 -2.448946,4.747514 l -3.063896,-6.059061 c -0.277248,-0.547388 -0.707428,-0.821139 -1.29036,-0.821139 -0.590042,0 -1.023447,0.273751 -1.300696,0.821139 l -3.485059,6.906555 c 0.162176,-0.58018 0.243396,-1.15846 0.243396,-1.734778 0,-0.440754 -0.04659,-0.885389 -0.139009,-1.333252 -0.305684,-1.436005 -1.002128,-2.565853 -2.089795,-3.390491 -1.059232,-0.803307 -2.331571,-1.201865 -3.817338,-1.194759 l -6.995439,0.04289 c -0.32701,0 -0.490409,0.174111 -0.490409,0.522448 v 15.462105 c 0,0.348338 0.174111,0.522449 0.522449,0.522449 h 4.201294 c 0.348338,0 0.522448,-0.174111 0.522448,-0.522449 v -3.33778 c 0.02133,-0.220379 0.09631,-0.323245 0.224276,-0.309025 0.142179,0.02133 0.248788,0.08883 0.319877,0.202571 l 2.260327,3.444234 c 0.227486,0.348338 0.515692,0.522449 0.86403,0.522449 h 4.190442 c 0.01009,0 0.01984,-2.3e-4 0.02946,-5.17e-4 l 0.077,5.17e-4 c 0.376774,0 0.618903,-0.02839 0.725537,-0.08527 0.106634,-0.06398 0.234668,-0.256289 0.383956,-0.576192 0.191941,-0.412318 0.532676,-0.61805 1.023193,-0.61805 0.888617,0 1.781113,0.0032 2.676839,0.01033 0.774874,0.01422 1.666853,0.01099 2.676323,-0.01033 0.547388,-0.01422 0.942203,0.202226 1.183907,0.650089 0.163505,0.298576 0.309221,0.480173 0.437182,0.544153 0.09952,0.04265 0.341138,0.06408 0.72502,0.06408 h 3.305742 c 0.504734,0 0.75706,-0.121065 0.75706,-0.362769 0,-0.0061 -1.56e-4,-0.01234 -5.17e-4,-0.0186 1.197501,0.609464 2.526784,0.914156 3.988387,0.914156 1.627946,0 3.135445,-0.415724 4.521688,-1.247469 1.047696,-0.625411 1.918248,-1.421431 2.612243,-2.388485 v 2.601908 c 0,0.348338 0.174111,0.522449 0.522449,0.522449 1.251173,0 3.131545,-0.01071 5.640999,-0.03204 2.509455,-0.02133 4.39357,-0.03204 5.651852,-0.03204 0.390991,0 0.586527,-0.156428 0.586527,-0.469222 v -3.732071 c 0,-0.312794 -0.195536,-0.469222 -0.586527,-0.469222 h -6.067847 c -0.341227,0 -0.508368,-0.191793 -0.501261,-0.575676 0,-0.412318 0.167141,-0.618567 0.501261,-0.618567 h 5.459615 c 0.369665,0 0.554488,-0.149459 0.554488,-0.448034 v -3.625619 c 0,-0.305684 -0.184823,-0.45837 -0.554488,-0.45837 h -5.395536 c -0.362556,0 -0.554349,-0.191793 -0.575676,-0.575675 -0.02133,-0.383883 0.170466,-0.576193 0.575676,-0.576193 h 6.003768 c 0.390991,0 0.586527,-0.163398 0.586527,-0.490409 v -3.923791 c 0,-0.33412 -0.195536,-0.501262 -0.586527,-0.501262 L 73.934,28.195694 c -0.348338,0 -0.522449,0.174111 -0.522449,0.522448 v 2.570386 c -0.733612,-1.022537 -1.661472,-1.850792 -2.783292,-2.48512 -1.350698,-0.774874 -2.800891,-1.162202 -4.350639,-1.162202 z m 27.959533,0.511596 -6.994922,0.04289 c -0.327011,0 -0.490926,0.174111 -0.490926,0.522448 v 15.462105 c 0,0.348338 0.174628,0.522449 0.522966,0.522449 h 4.201294 c 0.34834,0 0.522448,-0.174111 0.522448,-0.522449 v -3.33778 c 0.02132,-0.220379 0.0958,-0.323245 0.223759,-0.309025 0.142182,0.02133 0.24879,0.08883 0.319877,0.202571 l 2.260844,3.444234 c 0.227487,0.348338 0.515176,0.522449 0.863513,0.522449 h 4.190959 c 0.213271,0 0.319881,-0.06428 0.319881,-0.192236 0,-0.08531 -0.0461,-0.195143 -0.1385,-0.330213 L 97.297425,40.00014 c -0.12796,-0.156397 -0.191719,-0.295143 -0.191719,-0.415995 0,-0.142179 0.08893,-0.259501 0.26665,-0.351917 1.180086,-0.625587 2.001336,-1.560416 2.463416,-2.80448 0.298568,-0.789091 0.447518,-1.574462 0.447518,-2.356445 0,-0.440754 -0.0461,-0.885389 -0.13849,-1.333252 -0.305687,-1.436005 -1.002648,-2.565853 -2.090315,-3.390491 -1.059232,-0.803307 -2.331572,-1.201865 -3.817338,-1.194759 z m -27.959533,4.809526 c 1.123212,0 2.044102,0.45483 2.762105,1.364774 0.149287,0.19905 0.259123,0.337797 0.330212,0.415996 0.08531,0.113742 0.366544,0.06392 0.842843,-0.149345 l 3.198771,-1.418518 v 6.255948 L 70.223109,38.04884 c -0.191941,-0.08531 -0.359082,-0.13887 -0.501261,-0.160197 -0.13507,-0.02133 -0.330606,0.152783 -0.586528,0.522449 -0.696676,0.99525 -1.649187,1.492932 -2.857706,1.492932 -0.966816,0 -1.78755,-0.33751 -2.462899,-1.012858 -0.675349,-0.675349 -1.013375,-1.4966 -1.013375,-2.463416 0,-0.959706 0.338026,-1.777214 1.013375,-2.452563 0.682457,-0.675349 1.503192,-1.012858 2.462899,-1.012858 z m -25.293546,0.170532 h 0.138492 c 0.93838,0 1.581778,0.05679 1.930115,0.170532 0.433645,0.149288 0.650606,0.465889 0.650606,0.949296 -0.0071,0.490517 -0.224069,0.810344 -0.650606,0.959632 -0.355447,0.120854 -0.998845,0.206038 -1.930115,0.255798 l -0.202571,0.01085 c -0.305684,0.01422 -0.45837,-0.152923 -0.45837,-0.501261 V 34.305916 33.62327 c 0.0071,-0.327011 0.18122,-0.490409 0.522449,-0.490409 z m 51.568427,0 h 0.138493 c 0.938378,0 1.581774,0.05679 1.930115,0.170532 0.433645,0.149288 0.650606,0.465889 0.650606,0.949296 -0.0071,0.490517 -0.224071,0.810344 -0.650606,0.959632 -0.355447,0.120854 -0.998844,0.206038 -1.930115,0.255798 l -0.202571,0.01085 c -0.305685,0.01422 -0.45837,-0.152923 -0.45837,-0.501261 V 34.305916 33.62327 c 0.0071,-0.327011 0.181218,-0.490409 0.522448,-0.490409 z m -39.30561,3.817338 c 0.07109,0 0.146077,0.04285 0.224275,0.128157 0.248813,0.504735 0.436863,0.885094 0.564824,1.141016 0.02843,0.04976 0.04289,0.121008 0.04289,0.213424 -0.0071,0.106634 -0.0639,0.15968 -0.170532,0.15968 H 52.60713 c -0.19905,-0.02844 -0.25584,-0.142014 -0.170533,-0.341065 0.248813,-0.511842 0.444349,-0.899172 0.586528,-1.162202 0.07109,-0.09242 0.14556,-0.13901 0.22376,-0.13901 z m -5.87251,1.030945 -1.290877,2.559017 -0.353984,-0.540019 c -0.127961,-0.156397 -0.192236,-0.295143 -0.192236,-0.415995 0,-0.142179 0.08893,-0.259501 0.26665,-0.351917 0.623663,-0.330616 1.147324,-0.747729 1.570447,-1.251086 z" />
    <path
       id="path32"
       style="opacity:0.6;fill:url(#linearGradient34);stroke-width:1.55715;stroke-linecap:round;stroke-linejoin:round;stroke-miterlimit:12;paint-order:markers stroke fill"
       d="M 29.270061,0.94849541 V 1.4636202 15.399186 35.382671 c 20.156632,4.844834 44.997048,7.476431 70.571481,7.476353 2.119578,-6.1e-5 4.238748,-0.01821 6.355058,-0.05443 V 15.399186 1.4636202 0.94849541 h -0.52095 -75.884624 z"
       sodipodi:nodetypes="cccccccccccc" />
    <path
       id="path34"
       style="display:inline;opacity:0.2;fill:#ffffff;fill-opacity:1;stroke-width:1.49824;stroke-linecap:round;stroke-linejoin:round;stroke-miterlimit:12;paint-order:markers stroke fill;filter:url(#filter36)"
       d="m 22.36091,0 c -0.780947,0 -1.409737,0.62878128 -1.409737,1.4097331 v 0.5741251 c 0,-0.7809517 0.62879,-1.40973304 1.409737,-1.40973304 h 5.494238 v 0.0707967 c 0,0.19758129 0.158986,0.35656734 0.356567,0.35656734 h 79.043235 c 0.19758,0 0.35657,-0.15898605 0.35657,-0.35656734 v -0.0707967 h 5.49424 c 0.78095,0 1.40973,0.62878134 1.40973,1.40973304 V 1.4097331 C 114.51549,0.62878128 113.88671,0 113.10576,0 h -5.49424 v 0.07079671 c 0,0.19758129 -0.15899,0.35656738 -0.35657,0.35656738 H 28.211715 c -0.197581,0 -0.356567,-0.15898609 -0.356567,-0.35656738 V 0 Z m -1.507397,7.5091023 c -0.67459,0 -1.21802,0.542912 -1.21802,1.2174967 0,0.098933 0.01152,0.1948326 0.03359,0.2868042 0.12845,-0.5351463 0.60877,-0.9301758 1.18443,-0.9301758 h 0.09766 V 7.5091023 Z m 93.661977,0 v 0.5741251 h 0.0977 c 0.57565,0 1.05597,0.3950295 1.18442,0.9301758 0.0221,-0.091972 0.0336,-0.1878712 0.0336,-0.2868042 0,-0.6745847 -0.54343,-1.2174967 -1.21801,-1.2174967 z M 20.853513,12.800769 c -0.67459,0 -1.21802,0.542912 -1.21802,1.217497 0,0.09893 0.01152,0.194832 0.03359,0.286804 0.12845,-0.535146 0.60877,-0.930176 1.18443,-0.930176 h 0.09766 v -0.574125 z m 93.661977,0 v 0.574125 h 0.0977 c 0.57565,0 1.05597,0.39503 1.18442,0.930176 0.0221,-0.09197 0.0336,-0.187871 0.0336,-0.286804 0,-0.674585 -0.54343,-1.217497 -1.21801,-1.217497 z m -93.661977,5.291666 c -0.67459,0 -1.21802,0.542913 -1.21802,1.217497 0,0.09893 0.01152,0.194833 0.03359,0.286804 0.12845,-0.535145 0.60877,-0.930175 1.18443,-0.930175 h 0.09766 v -0.574126 z m 93.661977,0 v 0.574126 h 0.0977 c 0.57565,0 1.05597,0.39503 1.18442,0.930175 0.0221,-0.09197 0.0336,-0.187871 0.0336,-0.286804 0,-0.674584 -0.54343,-1.217497 -1.21801,-1.217497 z m -93.661977,5.291667 c -0.67459,0 -1.21802,0.542912 -1.21802,1.217497 0,0.09893 0.01152,0.194832 0.03359,0.286804 0.12845,-0.535146 0.60877,-0.930176 1.18443,-0.930176 h 0.09766 v -0.574125 z m 93.661977,0 v 0.574125 h 0.0977 c 0.57565,0 1.05597,0.39503 1.18442,0.930176 0.0221,-0.09197 0.0336,-0.187871 0.0336,-0.286804 0,-0.674585 -0.54343,-1.217497 -1.21801,-1.217497 z m -93.661977,5.291667 c -0.67459,0 -1.21802,0.542912 -1.21802,1.217496 0,0.09893 0.01152,0.194833 0.03359,0.286805 0.12845,-0.535146 0.60877,-0.930176 1.18443,-0.930176 h 0.09766 v -0.574125 z m 93.661977,0 v 0.574125 h 0.0977 c 0.57565,0 1.05597,0.39503 1.18442,0.930176 0.0221,-0.09197 0.0336,-0.187871 0.0336,-0.286805 0,-0.674584 -0.54343,-1.217496 -1.21801,-1.217496 z m -93.661977,5.291666 c -0.67459,0 -1.21802,0.542912 -1.21802,1.217497 0,0.09893 0.01152,0.194832 0.03359,0.286804 0.12845,-0.535146 0.60877,-0.930176 1.18443,-0.930176 h 0.09766 v -0.574125 z m 93.661977,0 v 0.574125 h 0.0977 c 0.57565,0 1.05597,0.39503 1.18442,0.930176 0.0221,-0.09197 0.0336,-0.187871 0.0336,-0.286804 0,-0.674585 -0.54343,-1.217497 -1.21801,-1.217497 z m -93.661977,5.291667 c -0.67459,0 -1.21802,0.542912 -1.21802,1.217497 0,0.09893 0.01152,0.194832 0.03359,0.286804 0.12845,-0.535146 0.60877,-0.930176 1.18443,-0.930176 h 0.09766 v -0.574125 z m 93.661977,0 v 0.574125 h 0.0977 c 0.57565,0 1.05597,0.39503 1.18442,0.930176 0.0221,-0.09197 0.0336,-0.187871 0.0336,-0.286804 0,-0.674585 -0.54343,-1.217497 -1.21801,-1.217497 z m -93.661977,5.291666 c -0.67459,0 -1.21802,0.542913 -1.21802,1.217497 0,0.09893 0.01152,0.194833 0.03359,0.286804 0.12845,-0.535145 0.60877,-0.930175 1.18443,-0.930175 h 0.09766 v -0.574126 z m 93.661977,0 v 0.574126 h 0.0977 c 0.57565,0 1.05597,0.39503 1.18442,0.930175 0.0221,-0.09197 0.0336,-0.187871 0.0336,-0.286804 0,-0.674584 -0.54343,-1.217497 -1.21801,-1.217497 z m -93.661977,5.291667 c -0.67459,0 -1.21802,0.542912 -1.21802,1.217497 0,0.09893 0.01152,0.194832 0.03359,0.286804 0.12845,-0.535146 0.60877,-0.930176 1.18443,-0.930176 h 0.09766 v -0.574125 z m 93.661977,0 v 0.574125 h 0.0977 c 0.57565,0 1.05597,0.39503 1.18442,0.930176 0.0221,-0.09197 0.0336,-0.187871 0.0336,-0.286804 0,-0.674585 -0.54343,-1.217497 -1.21801,-1.217497 z m -93.661977,5.291667 c -0.67459,0 -1.21802,0.542912 -1.21802,1.217496 0,0.09893 0.01152,0.194833 0.03359,0.286805 0.12845,-0.535146 0.60877,-0.930176 1.18443,-0.930176 h 0.09766 v -0.574125 z m 93.661977,0 v 0.574125 h 0.0977 c 0.57565,0 1.05597,0.39503 1.18442,0.930176 0.0221,-0.09197 0.0336,-0.187871 0.0336,-0.286805 0,-0.674584 -0.54343,-1.217496 -1.21801,-1.217496 z"
       clip-path="url(#clipPath35)" />
    <path
       id="path37"
       style="fill:#4d4d4d;fill-opacity:1;stroke-width:1.49824;stroke-linecap:round;stroke-linejoin:round;stroke-miterlimit:12;paint-order:markers stroke fill"
       d="m 22.360909,0 c -0.780952,0 -1.409733,0.62878128 -1.409733,1.4097331 v 0.050643 c 0,-0.78095181 0.628781,-1.4097331 1.409733,-1.4097331 h 5.494238 V 0 Z m 85.250611,0 v 0.0506429 h 5.49424 c 0.78095,0 1.40973,0.62878129 1.40973,1.4097331 V 1.4097331 C 114.51549,0.62878128 113.88671,0 113.10576,0 Z M 27.855147,0.07079671 v 0.0506429 c 0,0.19758129 0.158986,0.35656738 0.356567,0.35656738 h 79.043236 c 0.19758,0 0.35657,-0.15898609 0.35657,-0.35656738 v -0.0506429 c 0,0.19758129 -0.15899,0.35656738 -0.35657,0.35656738 H 28.211714 c -0.197581,0 -0.356567,-0.15898609 -0.356567,-0.35656738 z m -7.00164,7.43830559 c -0.674584,0 -1.218013,0.542912 -1.218013,1.2174967 0,0.00848 -1.71e-4,0.016887 0,0.025322 0.01342,-0.6627759 0.551906,-1.1921753 1.218013,-1.1921753 h 0.09767 v -0.050643 z m 93.661983,0 v 0.050643 h 0.0977 c 0.6661,0 1.20459,0.5293994 1.21801,1.1921753 1.7e-4,-0.00843 0,-0.016844 0,-0.025322 0,-0.6745847 -0.54343,-1.2174967 -1.21801,-1.2174967 z M 20.853507,12.800769 c -0.674584,0 -1.218013,0.542912 -1.218013,1.217497 0,0.0085 -1.71e-4,0.01689 0,0.02532 0.01342,-0.662776 0.551906,-1.192175 1.218013,-1.192175 h 0.09767 v -0.05064 z m 93.661983,0 v 0.05064 h 0.0977 c 0.6661,0 1.20459,0.529399 1.21801,1.192175 1.7e-4,-0.0084 0,-0.01684 0,-0.02532 0,-0.674585 -0.54343,-1.217497 -1.21801,-1.217497 z m -93.661983,5.291666 c -0.674584,0 -1.218013,0.542913 -1.218013,1.217497 0,0.0085 -1.71e-4,0.01689 0,0.02532 0.01342,-0.662776 0.551906,-1.192176 1.218013,-1.192176 h 0.09767 v -0.05064 z m 93.661983,0 v 0.05064 h 0.0977 c 0.6661,0 1.20459,0.5294 1.21801,1.192176 1.7e-4,-0.0084 0,-0.01685 0,-0.02532 0,-0.674584 -0.54343,-1.217497 -1.21801,-1.217497 z m -93.661983,5.291667 c -0.674584,0 -1.218013,0.542912 -1.218013,1.217497 0,0.0085 -1.71e-4,0.01689 0,0.02532 0.01342,-0.662776 0.551906,-1.192175 1.218013,-1.192175 h 0.09767 v -0.05064 z m 93.661983,0 v 0.05064 h 0.0977 c 0.6661,0 1.20459,0.529399 1.21801,1.192175 1.7e-4,-0.0084 0,-0.01684 0,-0.02532 0,-0.674585 -0.54343,-1.217497 -1.21801,-1.217497 z m -93.661983,5.291667 c -0.674584,0 -1.218013,0.542912 -1.218013,1.217496 0,0.0085 -1.71e-4,0.01689 0,0.02532 0.01342,-0.662775 0.551906,-1.192175 1.218013,-1.192175 h 0.09767 v -0.05064 z m 93.661983,0 v 0.05064 h 0.0977 c 0.6661,0 1.20459,0.5294 1.21801,1.192175 1.7e-4,-0.0084 0,-0.01684 0,-0.02532 0,-0.674584 -0.54343,-1.217496 -1.21801,-1.217496 z m -93.661983,5.291666 c -0.674584,0 -1.218013,0.542912 -1.218013,1.217497 0,0.0085 -1.71e-4,0.01689 0,0.02532 0.01342,-0.662776 0.551906,-1.192175 1.218013,-1.192175 h 0.09767 v -0.05064 z m 93.661983,0 v 0.05064 h 0.0977 c 0.6661,0 1.20459,0.529399 1.21801,1.192175 1.7e-4,-0.0084 0,-0.01684 0,-0.02532 0,-0.674585 -0.54343,-1.217497 -1.21801,-1.217497 z m -93.661983,5.291667 c -0.674584,0 -1.218013,0.542912 -1.218013,1.217497 0,0.0085 -1.71e-4,0.01689 0,0.02532 0.01342,-0.662776 0.551906,-1.192175 1.218013,-1.192175 h 0.09767 v -0.05064 z m 93.661983,0 v 0.05064 h 0.0977 c 0.6661,0 1.20459,0.529399 1.21801,1.192175 1.7e-4,-0.0084 0,-0.01684 0,-0.02532 0,-0.674585 -0.54343,-1.217497 -1.21801,-1.217497 z m -93.661983,5.291666 c -0.674584,0 -1.218013,0.542913 -1.218013,1.217497 0,0.0085 -1.71e-4,0.01689 0,0.02532 0.01342,-0.662775 0.551906,-1.192176 1.218013,-1.192176 h 0.09767 v -0.05064 z m 93.661983,0 v 0.05064 h 0.0977 c 0.6661,0 1.20459,0.529401 1.21801,1.192176 1.7e-4,-0.0084 0,-0.01685 0,-0.02532 0,-0.674584 -0.54343,-1.217497 -1.21801,-1.217497 z m -93.661983,5.291667 c -0.674584,0 -1.218013,0.542912 -1.218013,1.217497 0,0.0085 -1.71e-4,0.01689 0,0.02532 0.01342,-0.662776 0.551906,-1.192175 1.218013,-1.192175 h 0.09767 v -0.05064 z m 93.661983,0 v 0.05064 h 0.0977 c 0.6661,0 1.20459,0.529399 1.21801,1.192175 1.7e-4,-0.0084 0,-0.01684 0,-0.02532 0,-0.674585 -0.54343,-1.217497 -1.21801,-1.217497 z m -93.661983,5.291667 c -0.674584,0 -1.218013,0.542912 -1.218013,1.217496 0,0.0085 -1.71e-4,0.01689 0,0.02532 0.01342,-0.662775 0.551906,-1.192175 1.218013,-1.192175 h 0.09767 v -0.05064 z m 93.661983,0 v 0.05064 h 0.0977 c 0.6661,0 1.20459,0.5294 1.21801,1.192175 1.7e-4,-0.0084 0,-0.01684 0,-0.02532 0,-0.674584 -0.54343,-1.217496 -1.21801,-1.217496 z" />
  </g>
</svg>
