<?xml version="1.0" encoding="UTF-8" standalone="no"?>
<!-- Created with Inkscape (http://www.inkscape.org/) -->

<svg
   width="512"
   height="512"
   viewBox="0 0 135.46666 135.46667"
   version="1.1"
   id="svg5"
   inkscape:version="1.3.2 (091e20ef0f, 2023-11-25, custom)"
   sodipodi:docname="application-x-col-rom.svg"
   xmlns:inkscape="http://www.inkscape.org/namespaces/inkscape"
   xmlns:sodipodi="http://sodipodi.sourceforge.net/DTD/sodipodi-0.dtd"
   xmlns:xlink="http://www.w3.org/1999/xlink"
   xmlns="http://www.w3.org/2000/svg"
   xmlns:svg="http://www.w3.org/2000/svg">
  <sodipodi:namedview
     id="namedview7"
     pagecolor="#242424"
     bordercolor="#666666"
     borderopacity="1"
     inkscape:showpageshadow="0"
     inkscape:pageopacity="0"
     inkscape:pagecheckerboard="1"
     inkscape:deskcolor="#000000"
     inkscape:document-units="px"
     showgrid="false"
     inkscape:zoom="1.3037281"
     inkscape:cx="268.8444"
     inkscape:cy="249.2851"
     inkscape:window-width="3256"
     inkscape:window-height="1080"
     inkscape:window-x="1864"
     inkscape:window-y="0"
     inkscape:window-maximized="0"
     inkscape:current-layer="layer1" />
  <defs
     id="defs2">
    <linearGradient
       id="linearGradient18"
       inkscape:collect="always">
      <stop
         style="stop-color:#ffffff;stop-opacity:0;"
         offset="0"
         id="stop19" />
      <stop
         style="stop-color:#ffffff;stop-opacity:1;"
         offset="1"
         id="stop18" />
    </linearGradient>
    <linearGradient
       id="linearGradient9"
       inkscape:collect="always">
      <stop
         style="stop-color:#000000;stop-opacity:1;"
         offset="0"
         id="stop9" />
      <stop
         style="stop-color:#0f0f0f;stop-opacity:0;"
         offset="1"
         id="stop10" />
    </linearGradient>
    <linearGradient
       id="linearGradient6"
       inkscape:collect="always">
      <stop
         style="stop-color:#ffffff;stop-opacity:1;"
         offset="0"
         id="stop6" />
      <stop
         style="stop-color:#000000;stop-opacity:0;"
         offset="1"
         id="stop7" />
    </linearGradient>
    <linearGradient
       inkscape:collect="always"
       xlink:href="#linearGradient6"
       id="linearGradient7"
       x1="16.203146"
       y1="82.94602"
       x2="21.494812"
       y2="82.94602"
       gradientUnits="userSpaceOnUse" />
    <linearGradient
       inkscape:collect="always"
       xlink:href="#linearGradient6"
       id="linearGradient8"
       gradientUnits="userSpaceOnUse"
       x1="16.203146"
       y1="82.94602"
       x2="21.494812"
       y2="82.94602"
       gradientTransform="translate(-135.46682)" />
    <linearGradient
       inkscape:collect="always"
       xlink:href="#linearGradient9"
       id="linearGradient10"
       x1="67.73333"
       y1="30.425533"
       x2="67.73333"
       y2="135.46666"
       gradientUnits="userSpaceOnUse"
       gradientTransform="matrix(1.0824422,0,0,0.11036684,-5.5841583,27.428502)" />
    <clipPath
       clipPathUnits="userSpaceOnUse"
       id="clipPath12">
      <path
         style="color:#000000;fill:#0f0f0f;stroke-width:0.999998;stroke-linecap:round;stroke-linejoin:round;stroke-dashoffset:149.514;-inkscape-stroke:none;paint-order:markers stroke fill"
         d="M 16.203145,0 V 0.79219969 A 1.8520833,1.8520833 0 0 0 14.351062,2.644283 1.8520833,1.8520833 0 0 0 16.203145,4.4963664 v 5.292e-4 a 1.8520833,1.8520833 0 0 0 -1.852083,1.8520833 1.8520833,1.8520833 0 0 0 1.852083,1.8520833 v 5.292e-4 a 1.8520833,1.8520833 0 0 0 -1.852083,1.8520836 1.8520833,1.8520833 0 0 0 1.852083,1.852083 v 5.29e-4 a 1.8520833,1.8520833 0 0 0 -1.852083,1.852083 1.8520833,1.8520833 0 0 0 1.852083,1.852083 v 5.29e-4 a 1.8520833,1.8520833 0 0 0 -1.852083,1.852084 1.8520833,1.8520833 0 0 0 1.852083,1.852083 v 5.29e-4 a 1.8520833,1.8520833 0 0 0 -1.852083,1.852083 1.8520833,1.8520833 0 0 0 1.852083,1.852083 v 5.29e-4 a 1.8520833,1.8520833 0 0 0 -1.852083,1.852084 1.8520833,1.8520833 0 0 0 1.852083,1.852084 V 135.46666 H 119.26352 V 26.724467 a 1.8520833,1.8520833 0 0 0 1.85208,-1.852084 1.8520833,1.8520833 0 0 0 -1.85208,-1.852083 v -5.29e-4 a 1.8520833,1.8520833 0 0 0 1.85208,-1.852083 1.8520833,1.8520833 0 0 0 -1.85208,-1.852083 v -5.29e-4 a 1.8520833,1.8520833 0 0 0 1.85208,-1.852083 1.8520833,1.8520833 0 0 0 -1.85208,-1.852084 v -5.3e-4 a 1.8520833,1.8520833 0 0 0 1.85208,-1.852083 1.8520833,1.8520833 0 0 0 -1.85208,-1.852082 v -5.3e-4 a 1.8520833,1.8520833 0 0 0 1.85208,-1.852083 1.8520833,1.8520833 0 0 0 -1.85208,-1.8520832 V 8.2009887 A 1.8520833,1.8520833 0 0 0 121.1156,6.3489053 1.8520833,1.8520833 0 0 0 119.26352,4.496822 V 4.4962929 A 1.8520833,1.8520833 0 0 0 121.1156,2.6442094 1.8520833,1.8520833 0 0 0 119.26352,0.79212614 V 0 h -6.44095 l -0.0915,1.5688965 H 22.735563 L 22.644096,0 Z"
         id="path13" />
    </clipPath>
    <linearGradient
       inkscape:collect="always"
       xlink:href="#linearGradient18"
       id="linearGradient19"
       x1="29.702707"
       y1="62.046466"
       x2="34.994374"
       y2="62.046466"
       gradientUnits="userSpaceOnUse"
       gradientTransform="matrix(1.0824422,0,0,0.97687903,-155.51959,22.514678)" />
    <linearGradient
       inkscape:collect="always"
       xlink:href="#linearGradient18"
       id="linearGradient20"
       gradientUnits="userSpaceOnUse"
       gradientTransform="matrix(1.0824422,0,0,0.97687909,-20.196676,22.514677)"
       x1="29.702707"
       y1="62.046466"
       x2="34.994374"
       y2="62.046466" />
    <filter
       style="color-interpolation-filters:sRGB;"
       inkscape:label="Noise Fill"
       id="filter49"
       x="0"
       y="0"
       width="1"
       height="1">
      <feTurbulence
         type="fractalNoise"
         baseFrequency="62 62"
         numOctaves="4"
         seed="2"
         result="turbulence"
         id="feTurbulence48" />
      <feComposite
         in="SourceGraphic"
         in2="turbulence"
         operator="out"
         result="composite1"
         id="feComposite48" />
      <feColorMatrix
         values="1 0 0 0 0 0 1 0 0 0 0 0 1 0 0 0 0 0 4 -1 "
         result="color"
         id="feColorMatrix48" />
      <feFlood
         flood-opacity="1"
         flood-color="rgb(255,255,255)"
         result="flood"
         id="feFlood48" />
      <feMerge
         result="merge"
         id="feMerge49">
        <feMergeNode
           in="flood"
           id="feMergeNode48" />
        <feMergeNode
           in="color"
           id="feMergeNode49" />
      </feMerge>
      <feComposite
         in2="SourceGraphic"
         operator="in"
         result="composite2"
         id="feComposite49" />
    </filter>
  </defs>
  <g
     inkscape:groupmode="layer"
     id="layer2"
     inkscape:label="cart">
    <path
       id="rect1"
       style="display:inline;fill:#0f0f0f;stroke-width:3.78354;stroke-linecap:round;stroke-linejoin:round;stroke-dashoffset:149.514;paint-order:markers stroke fill"
       d="M 11.954809,0.14376287 V 0.93512186 A 2.0047731,1.8501178 0 0 0 9.9500363,2.7852396 2.0047731,1.8501178 0 0 0 11.954809,4.6353574 v 5.164e-4 A 2.0047731,1.8501178 0 0 0 9.9500363,6.485992 2.0047731,1.8501178 0 0 0 11.954809,8.3361098 v 5.163e-4 a 2.0047731,1.8501178 0 0 0 -2.0047727,1.8501179 2.0047731,1.8501178 0 0 0 2.0047727,1.850117 v 5.17e-4 a 2.0047731,1.8501178 0 0 0 -2.0047727,1.850117 2.0047731,1.8501178 0 0 0 2.0047727,1.850117 v 5.17e-4 a 2.0047731,1.8501178 0 0 0 -2.0047727,1.850119 2.0047731,1.8501178 0 0 0 2.0047727,1.850117 v 5.17e-4 a 2.0047731,1.8501178 0 0 0 -2.0047727,1.850116 2.0047731,1.8501178 0 0 0 2.0047727,1.850118 v 5.17e-4 A 2.0047731,1.8501178 0 0 0 9.9500363,24.98975 2.0047731,1.8501178 0 0 0 11.954809,26.839869 V 135.46666 H 123.51171 V 26.839869 a 2.0047731,1.8501178 0 0 0 2.00477,-1.850119 2.0047731,1.8501178 0 0 0 -2.00477,-1.850117 v -5.17e-4 a 2.0047731,1.8501178 0 0 0 2.00477,-1.850118 2.0047731,1.8501178 0 0 0 -2.00477,-1.850116 v -5.17e-4 a 2.0047731,1.8501178 0 0 0 2.00477,-1.850117 2.0047731,1.8501178 0 0 0 -2.00477,-1.850119 v -5.17e-4 a 2.0047731,1.8501178 0 0 0 2.00477,-1.850117 2.0047731,1.8501178 0 0 0 -2.00477,-1.850117 v -5.17e-4 a 2.0047731,1.8501178 0 0 0 2.00477,-1.850117 2.0047731,1.8501178 0 0 0 -2.00477,-1.8501179 v -5.163e-4 a 2.0047731,1.8501178 0 0 0 2.00477,-1.8501178 2.0047731,1.8501178 0 0 0 -2.00477,-1.8501182 v -5.164e-4 a 2.0047731,1.8501178 0 0 0 2.00477,-1.8501178 2.0047731,1.8501178 0 0 0 -2.00477,-1.85011774 V 0.14376287 h -6.97196 l -0.099,1.56723163 H 19.025774 l -0.09901,-1.56723163 z" />
    <g
       id="g10"
       style="display:inline;opacity:0.2;stroke-width:0.962823"
       transform="matrix(1.0824422,0,0,0.99656251,-5.5841582,0.46567251)">
      <rect
         style="opacity:1;fill:url(#linearGradient7);fill-opacity:1;stroke:none;stroke-width:3.64287;stroke-linecap:round;stroke-linejoin:round;stroke-dashoffset:149.514;paint-order:markers stroke fill"
         id="rect6"
         width="5.2916665"
         height="105.04127"
         x="16.203146"
         y="30.425386" />
      <rect
         style="opacity:1;fill:url(#linearGradient8);fill-opacity:1;stroke:none;stroke-width:3.64287;stroke-linecap:round;stroke-linejoin:round;stroke-dashoffset:149.514;paint-order:markers stroke fill"
         id="rect7"
         width="5.2916665"
         height="105.04127"
         x="-119.26367"
         y="30.425386"
         transform="scale(-1,1)" />
    </g>
    <path
       id="rect8"
       style="display:inline;fill:url(#linearGradient10);stroke:none;stroke-width:3.78354;stroke-linecap:round;stroke-linejoin:round;stroke-dashoffset:149.514;paint-order:markers stroke fill"
       d="m 11.954809,30.786473 v 11.593058 h 5.727924 V 30.786473 Z m 105.828971,0 v 11.593058 h 5.72793 V 30.786473 Z"
       sodipodi:nodetypes="cccccccccc" />
    <rect
       style="display:inline;opacity:0.2;fill:none;fill-opacity:1;stroke:url(#linearGradient19);stroke-width:0.264582;stroke-linecap:round;stroke-linejoin:round;stroke-dasharray:none;stroke-dashoffset:149.514;paint-order:markers stroke fill"
       id="rect17"
       width="5.7279229"
       height="104.68019"
       x="-123.36812"
       y="30.78647"
       transform="scale(-1,1)" />
    <rect
       style="display:inline;opacity:0.2;fill:none;fill-opacity:1;stroke:url(#linearGradient20);stroke-width:0.264582;stroke-linecap:round;stroke-linejoin:round;stroke-dasharray:none;stroke-dashoffset:149.514;paint-order:markers stroke fill"
       id="rect19"
       width="5.7279229"
       height="104.6802"
       x="11.954811"
       y="30.78647" />
    <path
       id="path50"
       style="display:inline;opacity:0.1;fill:#ffffff;stroke-width:3.78354;stroke-linecap:round;stroke-linejoin:round;stroke-dashoffset:149.514;paint-order:markers stroke fill"
       d="M 11.954826 0.14366048 L 11.954826 0.52968342 L 18.926493 0.52968342 L 19.025712 2.0970296 L 116.44044 2.0970296 L 116.53966 0.52968342 L 123.51132 0.52968342 L 123.51132 0.14366048 L 116.53966 0.14366048 L 116.44095 1.7110067 L 19.025712 1.7110067 L 18.92701 0.14366048 L 11.954826 0.14366048 z M 123.51132 0.79168293 L 123.51132 1.3208496 A 2.0047731 1.8501178 0 0 1 125.39751 2.9067993 A 2.0047731 1.8501178 0 0 0 125.48433 2.7135294 A 2.0047731 1.8501178 0 0 0 123.51184 0.93534341 L 123.51184 0.79168293 A 2.0047731 1.8501178 0 0 0 123.51132 0.79168293 z M 11.954826 0.93534341 A 2.0047731 1.8501178 0 0 0 9.9818195 2.7135294 A 2.0047731 1.8501178 0 0 0 10.068636 2.9067993 A 2.0047731 1.8501178 0 0 1 11.954826 1.3208496 L 11.954826 0.93534341 z M 124.19242 4.7609496 A 2.0047731 1.8501178 0 0 1 123.51132 5.0213989 L 123.51132 5.0219156 A 2.0047731 1.8501178 0 0 1 125.45901 6.470406 A 2.0047731 1.8501178 0 0 0 125.50087 6.3773884 A 2.0047731 1.8501178 0 0 0 125.47968 6.22701 A 2.0047731 1.8501178 0 0 0 125.31431 5.7097289 A 2.0047731 1.8501178 0 0 0 124.19242 4.7609496 z M 11.45098 4.8286458 A 2.0047731 1.8501178 0 0 0 10.776603 5.0865112 A 2.0047731 1.8501178 0 0 0 10.491866 5.279781 A 2.0047731 1.8501178 0 0 0 9.9818195 6.4145955 A 2.0047731 1.8501178 0 0 0 10.068636 6.6073486 A 2.0047731 1.8501178 0 0 1 11.954826 5.0219156 L 11.954826 5.0213989 A 2.0047731 1.8501178 0 0 1 11.45098 4.8286458 z M 124.19293 8.4614989 A 2.0047731 1.8501178 0 0 1 123.51132 8.7219481 L 123.51132 8.7224649 A 2.0047731 1.8501178 0 0 1 125.45901 10.170955 A 2.0047731 1.8501178 0 0 0 125.50087 10.077938 A 2.0047731 1.8501178 0 0 0 125.47916 9.9275593 A 2.0047731 1.8501178 0 0 0 125.31431 9.4102782 A 2.0047731 1.8501178 0 0 0 124.19293 8.4614989 z M 11.45098 8.529195 A 2.0047731 1.8501178 0 0 0 10.776086 8.7870604 A 2.0047731 1.8501178 0 0 0 10.491866 8.9792968 A 2.0047731 1.8501178 0 0 0 9.9818195 10.115145 A 2.0047731 1.8501178 0 0 0 10.068636 10.307898 A 2.0047731 1.8501178 0 0 1 11.954826 8.7224649 L 11.954826 8.7219481 A 2.0047731 1.8501178 0 0 1 11.45098 8.529195 z M 11.450464 12.230261 A 2.0047731 1.8501178 0 0 0 10.778153 12.487093 A 2.0047731 1.8501178 0 0 0 10.491349 12.681396 A 2.0047731 1.8501178 0 0 0 9.9818195 13.815694 A 2.0047731 1.8501178 0 0 0 10.068636 14.008964 A 2.0047731 1.8501178 0 0 1 11.954826 12.423014 L 11.954826 12.422497 A 2.0047731 1.8501178 0 0 1 11.450464 12.230261 z M 124.01568 12.230261 A 2.0047731 1.8501178 0 0 1 123.51132 12.422497 L 123.51132 12.423014 A 2.0047731 1.8501178 0 0 1 125.39751 14.008964 A 2.0047731 1.8501178 0 0 0 125.48433 13.815694 A 2.0047731 1.8501178 0 0 0 124.97532 12.681396 A 2.0047731 1.8501178 0 0 0 124.68799 12.487093 A 2.0047731 1.8501178 0 0 0 124.01568 12.230261 z M 124.19293 15.863114 A 2.0047731 1.8501178 0 0 1 123.51132 16.123563 L 123.51132 16.12408 A 2.0047731 1.8501178 0 0 1 125.45901 17.572571 A 2.0047731 1.8501178 0 0 0 125.50087 17.479553 A 2.0047731 1.8501178 0 0 0 125.47968 17.329175 A 2.0047731 1.8501178 0 0 0 125.31431 16.811894 A 2.0047731 1.8501178 0 0 0 124.19293 15.863114 z M 11.45098 15.93081 A 2.0047731 1.8501178 0 0 0 10.777637 16.188159 A 2.0047731 1.8501178 0 0 0 10.491349 16.382462 A 2.0047731 1.8501178 0 0 0 9.9818195 17.516243 A 2.0047731 1.8501178 0 0 0 10.068636 17.709513 A 2.0047731 1.8501178 0 0 1 11.954826 16.12408 L 11.954826 16.123047 A 2.0047731 1.8501178 0 0 1 11.45098 15.93081 z M 124.01568 19.63136 A 2.0047731 1.8501178 0 0 1 123.51132 19.823596 L 123.51132 19.824113 A 2.0047731 1.8501178 0 0 1 125.45901 21.546488 A 2.0047731 1.8501178 0 0 0 125.50087 21.254516 A 2.0047731 1.8501178 0 0 0 124.9748 20.082495 A 2.0047731 1.8501178 0 0 0 124.68903 19.888708 A 2.0047731 1.8501178 0 0 0 124.01568 19.63136 z M 11.45098 19.631876 A 2.0047731 1.8501178 0 0 0 10.77712 19.889225 A 2.0047731 1.8501178 0 0 0 10.491866 20.082495 A 2.0047731 1.8501178 0 0 0 9.9823363 21.216793 A 2.0047731 1.8501178 0 0 0 10.068636 21.409546 A 2.0047731 1.8501178 0 0 1 11.954826 19.824113 L 11.954826 19.823596 A 2.0047731 1.8501178 0 0 1 11.45098 19.631876 z M 11.45098 23.332426 A 2.0047731 1.8501178 0 0 0 10.776603 23.590291 A 2.0047731 1.8501178 0 0 0 10.491866 23.783561 A 2.0047731 1.8501178 0 0 0 9.9818195 24.918375 A 2.0047731 1.8501178 0 0 0 10.068636 25.111128 A 2.0047731 1.8501178 0 0 1 11.954826 23.525696 L 11.954826 23.525179 A 2.0047731 1.8501178 0 0 1 11.45098 23.332426 z M 124.14436 23.381518 A 2.0047731 1.8501178 0 0 1 123.51132 23.525179 L 123.51132 23.525696 A 2.0047731 1.8501178 0 0 1 125.45901 25.248071 A 2.0047731 1.8501178 0 0 0 125.50087 24.955066 A 2.0047731 1.8501178 0 0 0 124.98307 23.801648 A 2.0047731 1.8501178 0 0 0 124.73605 23.607861 A 2.0047731 1.8501178 0 0 0 124.14436 23.381518 z " />
  </g>
  <g
     inkscape:label="Layer 1"
     inkscape:groupmode="layer"
     id="layer1">
    <text
       xml:space="preserve"
       style="font-style:normal;font-weight:normal;font-size:10.5833px;line-height:1.25;font-family:sans-serif;text-align:center;text-anchor:middle;display:none;fill:#ffffff;fill-opacity:1;stroke:none;stroke-width:0.264583"
       x="67.73333"
       y="28.308865"
       id="text20"><tspan
         sodipodi:role="line"
         id="tspan20"
         style="font-style:normal;font-variant:normal;font-weight:normal;font-stretch:normal;font-size:10.5833px;font-family:'electron 8f';-inkscape-font-specification:'electron 8f, Normal';font-variant-ligatures:normal;font-variant-caps:normal;font-variant-numeric:normal;font-variant-east-asian:normal;text-align:center;text-anchor:middle;fill:#ffffff;stroke-width:0.264583"
         x="67.73333"
         y="28.308865">KOLEKO</tspan><tspan
         sodipodi:role="line"
         style="font-style:normal;font-variant:normal;font-weight:normal;font-stretch:normal;font-size:10.5833px;font-family:'electron 8f';-inkscape-font-specification:'electron 8f, Normal';font-variant-ligatures:normal;font-variant-caps:normal;font-variant-numeric:normal;font-variant-east-asian:normal;text-align:center;text-anchor:middle;fill:#ffffff;stroke-width:0.264583"
         x="67.73333"
         y="42.638798"
         id="tspan21">VIZION</tspan></text>
    <rect
       style="display:inline;fill:#000000;fill-opacity:1;stroke:#ffffff;stroke-width:3.70417;stroke-linecap:round;stroke-linejoin:round;stroke-dasharray:none;stroke-dashoffset:149.514;stroke-opacity:1;paint-order:markers stroke fill"
       id="rect15"
       width="86.24176"
       height="98.85688"
       x="23.805708"
       y="9.3094215"
       ry="4.513113" />
    <g
       id="text23"
       style="font-size:11.4558px;line-height:1.25;font-family:'Good Times';-inkscape-font-specification:'Good Times, Normal';text-align:center;text-anchor:middle;fill:#ffffff;stroke-width:0.264582"
       aria-label="KOLEKO&#10;VIZION">
      <path
         d="m 47.101354,23.912958 -4.66251,-3.665856 q -0.194749,-0.148925 -0.252028,-0.286395 -0.04582,-0.148925 -0.04582,-0.320762 0,-0.194749 0.06873,-0.343674 0.06873,-0.148926 0.29785,-0.320763 l 4.410483,-3.390916 h 2.233881 l -5.45296,4.066809 5.624797,4.261557 z m -6.862024,0 v -8.328366 h 1.454887 v 8.328366 z m 12.532636,0 q -0.870641,0 -1.615268,-0.320762 -0.733171,-0.332218 -1.28305,-0.893553 -0.538422,-0.57279 -0.847729,-1.351784 -0.297851,-0.778994 -0.297851,-1.684003 0,-0.916464 0.297851,-1.672546 0.309307,-0.756083 0.847729,-1.28305 0.549879,-0.538423 1.28305,-0.824818 0.744627,-0.29785 1.615268,-0.29785 h 2.027676 q 0.905008,0 1.649635,0.29785 0.756083,0.297851 1.294506,0.836274 0.538422,0.538422 0.836273,1.294505 0.297851,0.744627 0.297851,1.649635 0,0.905009 -0.309307,1.684003 -0.29785,0.778994 -0.847729,1.351784 -0.538422,0.561335 -1.283049,0.893553 -0.744627,0.320762 -1.63818,0.320762 z m 2.027676,-1.454886 q 0.57279,0 1.053934,-0.206205 0.481143,-0.206204 0.824817,-0.561334 0.35513,-0.366586 0.549879,-0.870641 0.194748,-0.504055 0.194748,-1.088301 0,-0.584246 -0.194748,-1.076845 -0.194749,-0.504055 -0.549879,-0.859185 -0.343674,-0.35513 -0.824817,-0.549878 -0.481144,-0.206205 -1.053934,-0.206205 h -2.027676 q -0.561335,0 -1.042478,0.206205 -0.469688,0.194748 -0.813362,0.549878 -0.343674,0.35513 -0.538423,0.847729 -0.194748,0.4926 -0.194748,1.088301 0,0.584246 0.194748,1.088301 0.194749,0.504055 0.538423,0.870641 0.343674,0.35513 0.813362,0.561334 0.481143,0.206205 1.042478,0.206205 z m 5.258217,1.454886 v -8.328366 h 1.454887 v 6.87348 h 5.601886 v 1.454886 z m 8.09926,0 v -8.328366 h 7.434815 v 1.454886 H 69.60055 v 5.418594 h 6.002839 v 1.454886 z m 2.508821,-3.620033 v -1.22577 h 4.616687 v 1.22577 z m 13.048165,3.620033 -4.66251,-3.665856 q -0.194749,-0.148925 -0.252028,-0.286395 -0.04582,-0.148925 -0.04582,-0.320762 0,-0.194749 0.06874,-0.343674 0.06873,-0.148926 0.29785,-0.320763 l 4.410483,-3.390916 h 2.233881 l -5.45296,4.066809 5.624797,4.261557 z m -6.862024,0 v -8.328366 h 1.454887 v 8.328366 z m 12.532635,0 q -0.870641,0 -1.615268,-0.320762 -0.733171,-0.332218 -1.28305,-0.893553 -0.538422,-0.57279 -0.847729,-1.351784 -0.297851,-0.778994 -0.297851,-1.684003 0,-0.916464 0.297851,-1.672546 0.309307,-0.756083 0.847729,-1.28305 0.549879,-0.538423 1.28305,-0.824818 0.744627,-0.29785 1.615268,-0.29785 h 2.027676 q 0.905008,0 1.649635,0.29785 0.756083,0.297851 1.294506,0.836274 0.538422,0.538422 0.836273,1.294505 0.297851,0.744627 0.297851,1.649635 0,0.905009 -0.309307,1.684003 -0.29785,0.778994 -0.847729,1.351784 -0.538422,0.561335 -1.283049,0.893553 -0.744627,0.320762 -1.63818,0.320762 z m 2.027676,-1.454886 q 0.57279,0 1.053934,-0.206205 0.481143,-0.206204 0.824817,-0.561334 0.35513,-0.366586 0.549879,-0.870641 0.194748,-0.504055 0.194748,-1.088301 0,-0.584246 -0.194748,-1.076845 -0.194749,-0.504055 -0.549879,-0.859185 -0.343674,-0.35513 -0.824817,-0.549878 -0.481144,-0.206205 -1.053934,-0.206205 h -2.027676 q -0.561335,0 -1.042478,0.206205 -0.469688,0.194748 -0.813362,0.549878 -0.343674,0.35513 -0.538423,0.847729 -0.194748,0.4926 -0.194748,1.088301 0,0.584246 0.194748,1.088301 0.194749,0.504055 0.538423,0.870641 0.343674,0.35513 0.813362,0.561334 0.481143,0.206205 1.042478,0.206205 z"
         id="path60" />
      <path
         d="m 44.031201,29.904342 h 1.775649 l 3.780414,6.415248 3.768958,-6.415248 h 1.672547 l -4.79998,7.973236 q -0.126014,0.217661 -0.297851,0.343674 -0.171837,0.126014 -0.400953,0.126014 -0.240572,0 -0.412409,-0.126014 -0.171837,-0.126013 -0.297851,-0.343674 z m 11.971315,8.328366 v -8.328366 h 1.454887 v 8.328366 z m 3.539844,0 q -0.332218,0 -0.584246,-0.183293 -0.240571,-0.194748 -0.240571,-0.561334 0,-0.320762 0.29785,-0.618613 l 5.533152,-5.578975 h -5.7279 v -1.386151 h 7.285889 q 0.320762,0 0.57279,0.194748 0.252027,0.183293 0.252027,0.549879 0,0.320762 -0.297851,0.618613 l -5.533151,5.578974 h 5.796635 v 1.386152 z m 8.70641,0 v -8.328366 h 1.454887 v 8.328366 z m 6.781836,0 q -0.870641,0 -1.615268,-0.320762 -0.733171,-0.332218 -1.28305,-0.893553 -0.538422,-0.57279 -0.847729,-1.351784 -0.297851,-0.778994 -0.297851,-1.684003 0,-0.916464 0.297851,-1.672546 0.309307,-0.756083 0.847729,-1.28305 0.549879,-0.538423 1.28305,-0.824818 0.744627,-0.29785 1.615268,-0.29785 h 2.027676 q 0.905008,0 1.649635,0.29785 0.756083,0.297851 1.294506,0.836274 0.538422,0.538422 0.836273,1.294505 0.297851,0.744627 0.297851,1.649635 0,0.905009 -0.309307,1.684003 -0.29785,0.778994 -0.847729,1.351784 -0.538422,0.561335 -1.283049,0.893553 -0.744627,0.320762 -1.63818,0.320762 z m 2.027676,-1.454886 q 0.57279,0 1.053934,-0.206205 0.481143,-0.206204 0.824817,-0.561334 0.35513,-0.366586 0.549879,-0.870641 0.194748,-0.504055 0.194748,-1.088301 0,-0.584246 -0.194748,-1.076845 -0.194749,-0.504055 -0.549879,-0.859185 -0.343674,-0.35513 -0.824817,-0.549878 -0.481144,-0.206205 -1.053934,-0.206205 h -2.027676 q -0.561335,0 -1.042478,0.206205 -0.469688,0.194748 -0.813362,0.549878 -0.343674,0.35513 -0.538423,0.847729 -0.194748,0.4926 -0.194748,1.088301 0,0.584246 0.194748,1.088301 0.194749,0.504055 0.538423,0.870641 0.343674,0.35513 0.813362,0.561334 0.481143,0.206205 1.042478,0.206205 z m 6.610002,-4.639599 v 6.094485 H 82.282133 V 30.67188 q 0,-0.400953 0.194748,-0.630069 0.206205,-0.240572 0.549879,-0.240572 0.160381,0 0.309306,0.06874 0.148926,0.06874 0.309307,0.229116 l 5.876825,5.831002 v -6.094485 h 1.386152 v 7.629563 q 0,0.412408 -0.206204,0.641524 -0.194749,0.229116 -0.515511,0.229116 -0.35513,0 -0.664437,-0.309306 z"
         id="path61" />
    </g>
    <g
       id="text33"
       style="font-size:11.4558px;line-height:1.25;font-family:'BitDust Two';-inkscape-font-specification:'BitDust Two, Normal';fill:#0000ff;stroke-width:0.264582"
       aria-label="10 RUN&#10;20 Jump&#10;30 Goto 10&#10;Run!">
      <path
         d="m 32.240383,49.198184 h 1.431975 v 7.159875 h -1.431975 z m 4.295925,5.7279 h 4.295925 v -4.295925 h -4.295925 z m 5.7279,1.431975 h -7.159875 v -7.159875 h 7.159875 z m 11.455801,-5.7279 h -2.86395 v 1.431975 h 2.86395 z m 1.431975,-1.431975 v 2.86395 h 1.431975 v 4.295925 h -1.431975 v -2.86395 h -4.295925 v 2.86395 h -1.431975 v -7.159875 z m 10.023825,7.159875 v -7.159875 h -1.431975 v 5.7279 h -4.295925 v -5.7279 h -1.431975 v 7.159875 z m 8.59185,-7.159875 v 7.159875 h -1.431975 v -5.7279 h -4.295925 v 5.7279 h -1.431975 v -7.159875 z"
         id="path62" />
      <path
         d="m 39.400258,63.517934 v 4.295925 h -5.7279 v 1.431975 h 5.7279 v 1.431975 h -7.159875 v -4.295925 h 5.7279 v -1.431975 h -5.7279 v -1.431975 z m 2.86395,5.7279 h 4.295925 v -4.295925 h -4.295925 z m 5.7279,1.431975 h -7.159875 v -7.159875 h 7.159875 z m 14.31975,0 h -7.159875 v -1.431975 h 5.7279 v -5.7279 h 1.431975 z m 8.591851,0 v -7.159875 h -1.431975 v 5.7279 h -4.295925 v -5.7279 h -1.431975 v 7.159875 z m 8.591852,-7.159875 v 7.159875 h -1.431975 v -5.7279 h -1.431975 v 5.7279 h -1.431975 v -5.7279 h -1.431975 v 5.7279 h -1.431975 v -7.159875 z m 7.159875,2.86395 v -1.431975 h -4.295925 v 1.431975 z m 1.431975,1.431975 h -5.7279 v 2.86395 h -1.431975 v -7.159875 h 7.159875 z"
         id="path63" />
      <path
         d="m 39.400258,84.997559 h -7.159875 v -1.431975 h 5.7279 v -1.431975 h -5.7279 v -1.431975 h 5.7279 v -1.431975 h -5.7279 v -1.431975 h 7.159875 z m 2.86395,-1.431975 h 4.295925 v -4.295925 h -4.295925 z m 5.7279,1.431975 h -7.159875 v -7.159875 h 7.159875 z m 14.31975,0 h -7.159875 v -7.159875 h 7.159875 v 1.431975 h -5.7279 v 4.295925 h 4.295925 v -1.431975 h -2.86395 v -1.431975 h 4.295925 z m 2.863951,-1.431975 h 4.295925 v -4.295925 h -4.295925 z m 5.7279,1.431975 h -7.159875 v -7.159875 h 7.159875 z m 8.591852,-7.159875 v 1.431975 h -2.86395 v 5.7279 h -1.431975 v -5.7279 h -2.86395 v -1.431975 z m 2.86395,5.7279 h 4.295925 v -4.295925 h -4.295925 z m 5.7279,1.431975 h -7.159875 v -7.159875 h 7.159875 z m 7.159873,-7.159875 h 1.431975 v 7.159875 h -1.431975 z m 4.295924,5.7279 h 4.295922 v -4.295925 h -4.295922 z m 5.727902,1.431975 h -7.159877 v -7.159875 h 7.159877 z"
         id="path64" />
      <path
         d="m 36.536308,93.589409 h -2.86395 v 1.431975 h 2.86395 z m 1.431975,-1.431975 v 2.86395 h 1.431975 v 4.295925 h -1.431975 v -2.86395 h -4.295925 v 2.86395 h -1.431975 v -7.159875 z m 10.023825,7.159875 v -7.159875 h -1.431975 v 5.7279 h -4.295925 v -5.7279 h -1.431975 v 7.159875 z m 8.591851,-7.159875 v 7.159875 h -1.431975 v -5.7279 h -4.295925 v 5.7279 h -1.431975 v -7.159875 z m 1.431975,5.7279 h 1.431975 v 1.431975 h -1.431975 z m 0,-5.7279 h 1.431975 v 4.295925 h -1.431975 z"
         id="path65" />
    </g>
    <g
       id="text24"
       style="font-size:11.4558px;line-height:1.25;font-family:'BitDust Two';-inkscape-font-specification:'BitDust Two, Normal';fill:#ffff00;stroke-width:0.264582"
       aria-label="10 RUN&#10;20 Jump&#10;30 Goto 10&#10;Run!">
      <path
         d="m 31.094797,48.052596 h 1.431975 v 7.159875 h -1.431975 z m 4.295925,5.7279 h 4.295925 v -4.295925 h -4.295925 z m 5.7279,1.431975 h -7.159875 v -7.159875 h 7.159875 z m 11.455801,-5.7279 h -2.86395 v 1.431975 h 2.86395 z m 1.431975,-1.431975 v 2.86395 h 1.431975 v 4.295925 h -1.431975 v -2.86395 h -4.295925 v 2.86395 h -1.431975 v -7.159875 z m 10.023825,7.159875 v -7.159875 h -1.431975 v 5.7279 h -4.295925 v -5.7279 h -1.431975 v 7.159875 z m 8.59185,-7.159875 v 7.159875 h -1.431975 v -5.7279 h -4.295925 v 5.7279 h -1.431975 v -7.159875 z"
         id="path66" />
      <path
         d="m 38.254672,62.372346 v 4.295925 h -5.7279 v 1.431975 h 5.7279 v 1.431975 h -7.159875 v -4.295925 h 5.7279 v -1.431975 h -5.7279 v -1.431975 z m 2.86395,5.7279 h 4.295925 v -4.295925 h -4.295925 z m 5.7279,1.431975 h -7.159875 v -7.159875 h 7.159875 z m 14.31975,0 h -7.159875 v -1.431975 h 5.7279 v -5.7279 h 1.431975 z m 8.591851,0 v -7.159875 h -1.431975 v 5.7279 h -4.295925 v -5.7279 h -1.431975 v 7.159875 z m 8.591852,-7.159875 v 7.159875 H 76.918 v -5.7279 h -1.431975 v 5.7279 H 74.05405 v -5.7279 h -1.431975 v 5.7279 H 71.1901 v -7.159875 z m 7.159875,2.86395 v -1.431975 h -4.295925 v 1.431975 z m 1.431975,1.431975 h -5.7279 v 2.86395 H 79.78195 v -7.159875 h 7.159875 z"
         id="path67" />
      <path
         d="m 38.254672,83.851971 h -7.159875 v -1.431975 h 5.7279 v -1.431975 h -5.7279 v -1.431975 h 5.7279 v -1.431975 h -5.7279 v -1.431975 h 7.159875 z m 2.86395,-1.431975 h 4.295925 v -4.295925 h -4.295925 z m 5.7279,1.431975 h -7.159875 v -7.159875 h 7.159875 z m 14.31975,0 h -7.159875 v -7.159875 h 7.159875 v 1.431975 h -5.7279 v 4.295925 h 4.295925 v -1.431975 h -2.86395 v -1.431975 h 4.295925 z m 2.863951,-1.431975 h 4.295925 v -4.295925 h -4.295925 z m 5.7279,1.431975 h -7.159875 v -7.159875 h 7.159875 z m 8.591852,-7.159875 v 1.431975 h -2.86395 v 5.7279 H 74.05405 v -5.7279 H 71.1901 v -1.431975 z m 2.86395,5.7279 h 4.295925 v -4.295925 h -4.295925 z m 5.7279,1.431975 H 79.78195 v -7.159875 h 7.159875 z m 7.159873,-7.159875 h 1.431975 v 7.159875 h -1.431975 z m 4.295924,5.7279 h 4.295928 v -4.295925 h -4.295928 z m 5.727898,1.431975 h -7.159873 v -7.159875 h 7.159873 z"
         id="path68" />
      <path
         d="m 35.390722,92.443821 h -2.86395 v 1.431975 h 2.86395 z m 1.431975,-1.431975 v 2.86395 h 1.431975 v 4.295925 h -1.431975 v -2.86395 h -4.295925 v 2.86395 h -1.431975 v -7.159875 z m 10.023825,7.159875 v -7.159875 h -1.431975 v 5.7279 h -4.295925 v -5.7279 h -1.431975 v 7.159875 z m 8.591851,-7.159875 v 7.159875 h -1.431975 v -5.7279 h -4.295925 v 5.7279 h -1.431975 v -7.159875 z m 1.431975,5.7279 h 1.431975 v 1.431975 h -1.431975 z m 0,-5.7279 h 1.431975 v 4.295925 h -1.431975 z"
         id="path69" />
    </g>
    <path
       id="rect33"
       style="display:inline;opacity:0.1;mix-blend-mode:hard-light;fill:#000000;fill-opacity:1;stroke:none;stroke-width:3.70417;stroke-linecap:round;stroke-linejoin:round;stroke-dasharray:none;stroke-dashoffset:149.514;stroke-opacity:1;paint-order:markers stroke fill;filter:url(#filter49)"
       d="m 28.318685,9.3095092 c -2.500263,0 -4.512903,2.0126408 -4.512903,4.5129028 V 103.6531 c 0,2.50027 2.01264,4.51342 4.512903,4.51342 h 77.215445 c 2.50026,0 4.51342,-2.01315 4.51342,-4.51342 V 13.822412 c 0,-2.500262 -2.01316,-4.5129028 -4.51342,-4.5129028 z m 11.920719,6.2750688 h 1.454691 v 8.328174 h -1.454691 z m 6.678662,0 h 2.233972 l -5.452897,4.066935 5.624463,4.261239 h -2.222087 l -4.662764,-3.665409 c -0.129833,-0.09928 -0.213995,-0.195158 -0.252181,-0.286805 -0.03055,-0.09928 -0.04548,-0.205835 -0.04548,-0.320393 0,-0.129833 0.02291,-0.244365 0.06873,-0.343649 0.04582,-0.09928 0.144913,-0.206352 0.297656,-0.32091 z m 5.853906,0 h 2.027783 c 0.603338,0 1.153094,0.09909 1.649512,0.297657 0.504055,0.198567 0.935546,0.477693 1.294494,0.836641 0.358949,0.358948 0.637558,0.79044 0.836125,1.294495 0.198567,0.496417 0.298173,1.046173 0.298173,1.649511 0,0.603338 -0.103337,1.164806 -0.309542,1.684135 -0.198567,0.519329 -0.480908,0.969996 -0.847493,1.351856 -0.358948,0.374222 -0.786708,0.672007 -1.283126,0.893485 -0.496417,0.213841 -1.042442,0.320394 -1.638143,0.320394 h -2.027783 c -0.580427,0 -1.118988,-0.106553 -1.615405,-0.320394 -0.488781,-0.221478 -0.916541,-0.519263 -1.283126,-0.893485 -0.358948,-0.38186 -0.641289,-0.832527 -0.847494,-1.351856 -0.198567,-0.519329 -0.297656,-1.080797 -0.297656,-1.684135 0,-0.610975 0.09909,-1.168711 0.297656,-1.672766 0.206205,-0.504055 0.488546,-0.931298 0.847494,-1.282609 0.366585,-0.358948 0.794345,-0.634343 1.283126,-0.825272 0.496417,-0.198567 1.034978,-0.297657 1.615405,-0.297657 z m 7.28586,0 h 1.454692 v 6.873482 h 5.602242 v 1.454692 h -7.056934 z m 8.099247,0 h 7.434688 v 1.454692 h -5.991365 v 5.41879 h 6.002734 v 1.454692 h -7.446057 z m 8.695077,0 h 1.454691 v 8.328174 h -1.454691 z m 6.678662,0 h 2.233972 l -5.452897,4.066935 5.624463,4.261239 h -2.222087 l -4.662764,-3.665409 c -0.129833,-0.09928 -0.213995,-0.195158 -0.252181,-0.286805 -0.03055,-0.09928 -0.04548,-0.205835 -0.04548,-0.320393 0,-0.129833 0.02291,-0.244365 0.06873,-0.343649 0.04582,-0.09928 0.144912,-0.206352 0.297656,-0.32091 z m 5.853906,0 h 2.027783 c 0.603338,0 1.153094,0.09909 1.649512,0.297657 0.504054,0.198567 0.935546,0.477693 1.294494,0.836641 0.358948,0.358948 0.637558,0.79044 0.836125,1.294495 0.198567,0.496417 0.298173,1.046173 0.298173,1.649511 0,0.603338 -0.103338,1.164806 -0.309542,1.684135 -0.198567,0.519329 -0.480908,0.969996 -0.847493,1.351856 -0.358948,0.374222 -0.786709,0.672007 -1.283126,0.893485 -0.496418,0.213841 -1.042442,0.320394 -1.638143,0.320394 h -2.027783 c -0.580427,0 -1.118988,-0.106553 -1.615405,-0.320394 -0.488781,-0.221478 -0.916541,-0.519263 -1.283126,-0.893485 -0.358948,-0.38186 -0.64129,-0.832527 -0.847494,-1.351856 -0.198567,-0.519329 -0.297656,-1.080797 -0.297656,-1.684135 0,-0.610975 0.09909,-1.168711 0.297656,-1.672766 0.206204,-0.504055 0.488546,-0.931298 0.847494,-1.282609 0.366585,-0.358948 0.794345,-0.634343 1.283126,-0.825272 0.496417,-0.198567 1.034978,-0.297657 1.615405,-0.297657 z M 52.771972,17.03927 c -0.374222,0 -0.721552,0.06872 -1.042314,0.206189 -0.313125,0.129832 -0.584271,0.313601 -0.813387,0.550354 -0.229115,0.236753 -0.408636,0.519094 -0.538468,0.847493 -0.129832,0.3284 -0.19482,0.691172 -0.19482,1.088306 0,0.389497 0.06499,0.752269 0.19482,1.088306 0.129832,0.336036 0.309353,0.626357 0.538468,0.870747 0.229116,0.236753 0.500262,0.423737 0.813387,0.561206 0.320762,0.13747 0.668092,0.206189 1.042314,0.206189 h 2.027783 c 0.38186,0 0.732921,-0.06872 1.053683,-0.206189 0.320762,-0.137469 0.59564,-0.324453 0.824755,-0.561206 0.236753,-0.24439 0.420005,-0.534711 0.549838,-0.870747 0.129832,-0.336037 0.19482,-0.698809 0.19482,-1.088306 0,-0.389497 -0.06499,-0.748538 -0.19482,-1.076937 C 57.098198,18.318639 56.914946,18.032566 56.678193,17.795813 56.449078,17.55906 56.1742,17.375291 55.853438,17.245459 55.532676,17.107989 55.181615,17.03927 54.799755,17.03927 Z m 36.612752,0 c -0.374223,0 -0.721552,0.06872 -1.042314,0.206189 -0.313125,0.129832 -0.584271,0.313601 -0.813387,0.550354 -0.229116,0.236753 -0.408636,0.519094 -0.538468,0.847493 -0.129833,0.3284 -0.19482,0.691172 -0.19482,1.088306 0,0.389497 0.06499,0.752269 0.19482,1.088306 0.129832,0.336036 0.309352,0.626357 0.538468,0.870747 0.229116,0.236753 0.500262,0.423737 0.813387,0.561206 0.320762,0.13747 0.668091,0.206189 1.042314,0.206189 h 2.027783 c 0.38186,0 0.73292,-0.06872 1.053682,-0.206189 0.320763,-0.137469 0.595641,-0.324453 0.824756,-0.561206 0.236753,-0.24439 0.420005,-0.534711 0.549838,-0.870747 0.129832,-0.336037 0.19482,-0.698809 0.19482,-1.088306 0,-0.389497 -0.06499,-0.748538 -0.19482,-1.076937 C 93.71095,18.318639 93.527698,18.032566 93.290945,17.795813 93.06183,17.55906 92.786952,17.375291 92.466189,17.245459 92.145427,17.107989 91.794367,17.03927 91.412507,17.03927 Z M 70.66597,19.067053 h 4.616772 v 1.225765 H 70.66597 Z m 12.361002,10.734228 c 0.106921,0 0.209742,0.02291 0.309026,0.06873 0.09928,0.04582 0.202621,0.122006 0.309541,0.228927 l 5.876644,5.831168 v -6.094718 h 1.385962 v 7.630025 c 0,0.274939 -0.06872,0.488561 -0.206189,0.641304 -0.129832,0.152744 -0.301373,0.228927 -0.515214,0.228927 -0.236753,0 -0.458355,-0.102821 -0.664559,-0.309025 L 83.668277,32.13809 v 6.094718 h -1.385962 v -7.560779 c 0,-0.267301 0.06499,-0.477708 0.19482,-0.630452 0.13747,-0.160381 0.320722,-0.240296 0.549837,-0.240296 z M 44.03142,29.904117 h 1.775603 l 3.780131,6.415629 3.769278,-6.415629 h 1.67225 l -4.799707,7.973674 c -0.08401,0.145107 -0.183615,0.259639 -0.298173,0.343648 -0.114558,0.08401 -0.248265,0.125574 -0.401009,0.125574 -0.160381,0 -0.29782,-0.04156 -0.412378,-0.125574 -0.114558,-0.08401 -0.213647,-0.198541 -0.297656,-0.343648 z m 11.970846,0 h 1.455208 v 8.328691 h -1.455208 z m 2.818432,0 h 7.28586 c 0.213842,0 0.404557,0.06499 0.572575,0.194821 0.168019,0.122195 0.252181,0.305447 0.252181,0.549837 0,0.213841 -0.09909,0.42 -0.297656,0.618567 l -5.533512,5.578987 h 5.797062 v 1.386479 h -7.35459 c -0.221478,0 -0.416442,-0.06126 -0.58446,-0.183451 -0.160381,-0.129833 -0.240813,-0.316816 -0.240813,-0.561206 0,-0.213842 0.09961,-0.42 0.298173,-0.618567 l 5.532996,-5.578988 h -5.727816 z m 9.427849,0 h 1.455208 v 8.328691 h -1.455208 z m 6.782014,0 h 2.027784 c 0.603338,0 1.153094,0.09961 1.649511,0.298173 0.504055,0.198567 0.935547,0.477177 1.294495,0.836125 0.358948,0.358948 0.637558,0.79044 0.836125,1.294495 0.198567,0.496417 0.298173,1.046173 0.298173,1.649511 0,0.603339 -0.103338,1.164806 -0.309542,1.684135 -0.198567,0.519329 -0.480908,0.969996 -0.847494,1.351856 -0.358948,0.374222 -0.786708,0.672007 -1.283126,0.893485 -0.496417,0.213842 -1.042441,0.320911 -1.638142,0.320911 h -2.027784 c -0.580426,0 -1.118987,-0.107069 -1.615405,-0.320911 -0.48878,-0.221478 -0.91654,-0.519263 -1.283126,-0.893485 -0.358948,-0.38186 -0.641289,-0.832527 -0.847493,-1.351856 -0.198567,-0.519329 -0.297656,-1.080796 -0.297656,-1.684135 0,-0.610975 0.09909,-1.168194 0.297656,-1.672249 0.206204,-0.504055 0.488545,-0.931815 0.847493,-1.283126 0.366586,-0.358948 0.794346,-0.633826 1.283126,-0.824756 0.496418,-0.198567 1.034979,-0.298173 1.615405,-0.298173 z m 0,1.455209 c -0.374222,0 -0.721551,0.06872 -1.042313,0.206189 -0.313125,0.129832 -0.584271,0.313084 -0.813387,0.549837 -0.229116,0.236753 -0.408636,0.519094 -0.538469,0.847493 -0.129832,0.3284 -0.19482,0.691172 -0.19482,1.088306 0,0.389497 0.06499,0.752269 0.19482,1.088306 0.129833,0.336036 0.309353,0.626357 0.538469,0.870748 0.229116,0.236753 0.500262,0.423736 0.813387,0.561206 0.320762,0.137469 0.668091,0.206189 1.042313,0.206189 h 2.027784 c 0.381859,0 0.73292,-0.06872 1.053682,-0.206189 0.320762,-0.13747 0.59564,-0.324453 0.824756,-0.561206 0.236753,-0.244391 0.420522,-0.534712 0.550354,-0.870748 0.129832,-0.336037 0.194303,-0.698809 0.194303,-1.088306 0,-0.389497 -0.06447,-0.748021 -0.194303,-1.07642 -0.129832,-0.336036 -0.313601,-0.622626 -0.550354,-0.859379 -0.229116,-0.236753 -0.503994,-0.420005 -0.824756,-0.549837 -0.320762,-0.13747 -0.671823,-0.206189 -1.053682,-0.206189 z" />
    <text
       xml:space="preserve"
       style="font-style:normal;font-variant:normal;font-weight:normal;font-stretch:normal;font-size:11.4558px;line-height:1.25;font-family:'Good Times';-inkscape-font-specification:'Good Times, Normal';font-variant-ligatures:normal;font-variant-caps:normal;font-variant-numeric:normal;font-variant-east-asian:normal;text-align:center;text-anchor:middle;display:none;fill:#ffffff;fill-opacity:1;stroke:none;stroke-width:0.264582"
       x="67.733253"
       y="23.912958"
       id="text52"
       sodipodi:insensitive="true"><tspan
         sodipodi:role="line"
         id="tspan51"
         style="font-style:normal;font-variant:normal;font-weight:normal;font-stretch:normal;font-size:11.4558px;font-family:'Good Times';-inkscape-font-specification:'Good Times, Normal';font-variant-ligatures:normal;font-variant-caps:normal;font-variant-numeric:normal;font-variant-east-asian:normal;text-align:center;text-anchor:middle;fill:#ffffff;stroke-width:0.264582"
         x="0"
         y="0">KOLEKO</tspan><tspan
         sodipodi:role="line"
         style="font-style:normal;font-variant:normal;font-weight:normal;font-stretch:normal;font-size:11.4558px;font-family:'Good Times';-inkscape-font-specification:'Good Times, Normal';font-variant-ligatures:normal;font-variant-caps:normal;font-variant-numeric:normal;font-variant-east-asian:normal;text-align:center;text-anchor:middle;fill:#ffffff;stroke-width:0.264582"
         x="0"
         y="0"
         id="tspan52">VIZION</tspan></text>
    <text
       xml:space="preserve"
       style="font-style:normal;font-variant:normal;font-weight:normal;font-stretch:normal;font-size:11.4558px;line-height:1.25;font-family:'BitDust Two';-inkscape-font-specification:'BitDust Two, Normal';font-variant-ligatures:normal;font-variant-caps:normal;font-variant-numeric:normal;font-variant-east-asian:normal;display:none;fill:#0000ff;fill-opacity:1;stroke:none;stroke-width:0.264582"
       x="32.240383"
       y="56.358059"
       id="text56"
       sodipodi:insensitive="true"><tspan
         sodipodi:role="line"
         id="tspan53"
         style="font-style:normal;font-variant:normal;font-weight:normal;font-stretch:normal;font-size:11.4558px;font-family:'BitDust Two';-inkscape-font-specification:'BitDust Two, Normal';font-variant-ligatures:normal;font-variant-caps:normal;font-variant-numeric:normal;font-variant-east-asian:normal;fill:#0000ff;stroke-width:0.264582"
         x="0"
         y="0">10 RUN</tspan><tspan
         sodipodi:role="line"
         style="font-style:normal;font-variant:normal;font-weight:normal;font-stretch:normal;font-size:11.4558px;font-family:'BitDust Two';-inkscape-font-specification:'BitDust Two, Normal';font-variant-ligatures:normal;font-variant-caps:normal;font-variant-numeric:normal;font-variant-east-asian:normal;fill:#0000ff;stroke-width:0.264582"
         x="0"
         y="0"
         id="tspan54">20 Jump</tspan><tspan
         sodipodi:role="line"
         style="font-style:normal;font-variant:normal;font-weight:normal;font-stretch:normal;font-size:11.4558px;font-family:'BitDust Two';-inkscape-font-specification:'BitDust Two, Normal';font-variant-ligatures:normal;font-variant-caps:normal;font-variant-numeric:normal;font-variant-east-asian:normal;fill:#0000ff;stroke-width:0.264582"
         x="0"
         y="0"
         id="tspan55">30 Goto 10</tspan><tspan
         sodipodi:role="line"
         style="font-style:normal;font-variant:normal;font-weight:normal;font-stretch:normal;font-size:11.4558px;font-family:'BitDust Two';-inkscape-font-specification:'BitDust Two, Normal';font-variant-ligatures:normal;font-variant-caps:normal;font-variant-numeric:normal;font-variant-east-asian:normal;fill:#0000ff;stroke-width:0.264582"
         x="0"
         y="0"
         id="tspan56">Run!</tspan></text>
    <text
       xml:space="preserve"
       style="font-style:normal;font-variant:normal;font-weight:normal;font-stretch:normal;font-size:11.4558px;line-height:1.25;font-family:'BitDust Two';-inkscape-font-specification:'BitDust Two, Normal';font-variant-ligatures:normal;font-variant-caps:normal;font-variant-numeric:normal;font-variant-east-asian:normal;display:none;fill:#ffff00;fill-opacity:1;stroke:none;stroke-width:0.264582"
       x="31.094797"
       y="55.212471"
       id="text60"
       sodipodi:insensitive="true"><tspan
         sodipodi:role="line"
         id="tspan57"
         style="font-style:normal;font-variant:normal;font-weight:normal;font-stretch:normal;font-size:11.4558px;font-family:'BitDust Two';-inkscape-font-specification:'BitDust Two, Normal';font-variant-ligatures:normal;font-variant-caps:normal;font-variant-numeric:normal;font-variant-east-asian:normal;fill:#ffff00;stroke-width:0.264582"
         x="0"
         y="0">10 RUN</tspan><tspan
         sodipodi:role="line"
         style="font-style:normal;font-variant:normal;font-weight:normal;font-stretch:normal;font-size:11.4558px;font-family:'BitDust Two';-inkscape-font-specification:'BitDust Two, Normal';font-variant-ligatures:normal;font-variant-caps:normal;font-variant-numeric:normal;font-variant-east-asian:normal;fill:#ffff00;stroke-width:0.264582"
         x="0"
         y="0"
         id="tspan58">20 Jump</tspan><tspan
         sodipodi:role="line"
         style="font-style:normal;font-variant:normal;font-weight:normal;font-stretch:normal;font-size:11.4558px;font-family:'BitDust Two';-inkscape-font-specification:'BitDust Two, Normal';font-variant-ligatures:normal;font-variant-caps:normal;font-variant-numeric:normal;font-variant-east-asian:normal;fill:#ffff00;stroke-width:0.264582"
         x="0"
         y="0"
         id="tspan59">30 Goto 10</tspan><tspan
         sodipodi:role="line"
         style="font-style:normal;font-variant:normal;font-weight:normal;font-stretch:normal;font-size:11.4558px;font-family:'BitDust Two';-inkscape-font-specification:'BitDust Two, Normal';font-variant-ligatures:normal;font-variant-caps:normal;font-variant-numeric:normal;font-variant-east-asian:normal;fill:#ffff00;stroke-width:0.264582"
         x="0"
         y="0"
         id="tspan60">Run!</tspan></text>
  </g>
</svg>
