<?xml version="1.0" encoding="UTF-8" standalone="no"?>
<!-- Created with Inkscape (http://www.inkscape.org/) -->

<svg
   width="512"
   height="512"
   viewBox="0 0 135.46666 135.46667"
   version="1.1"
   id="svg5"
   inkscape:version="1.2.1 (9c6d41e410, 2022-07-14, custom)"
   sodipodi:docname="application-vnd.ms-publisher.svg"
   xmlns:inkscape="http://www.inkscape.org/namespaces/inkscape"
   xmlns:sodipodi="http://sodipodi.sourceforge.net/DTD/sodipodi-0.dtd"
   xmlns:xlink="http://www.w3.org/1999/xlink"
   xmlns="http://www.w3.org/2000/svg"
   xmlns:svg="http://www.w3.org/2000/svg"
   xmlns:rdf="http://www.w3.org/1999/02/22-rdf-syntax-ns#"
   xmlns:cc="http://creativecommons.org/ns#"
   xmlns:dc="http://purl.org/dc/elements/1.1/">>
  <sodipodi:namedview
     id="namedview7"
     pagecolor="#505050"
     bordercolor="#ffffff"
     borderopacity="1"
     inkscape:showpageshadow="0"
     inkscape:pageopacity="0"
     inkscape:pagecheckerboard="1"
     inkscape:deskcolor="#505050"
     inkscape:document-units="mm"
     showgrid="false"
     inkscape:zoom="1"
     inkscape:cx="190.99999"
     inkscape:cy="317.99999"
     inkscape:window-width="3252"
     inkscape:window-height="1076"
     inkscape:window-x="1864"
     inkscape:window-y="0"
     inkscape:window-maximized="0"
     inkscape:current-layer="g37935"
     showguides="false" />
  <defs
     id="defs2">
    <linearGradient
       inkscape:collect="always"
       id="linearGradient32403">
      <stop
         style="stop-color:#000000;stop-opacity:1;"
         offset="0"
         id="stop32399" />
      <stop
         style="stop-color:#ffffff;stop-opacity:1;"
         offset="1"
         id="stop32401" />
    </linearGradient>
    <linearGradient
       inkscape:collect="always"
       id="linearGradient28015">
      <stop
         style="stop-color:#000000;stop-opacity:1;"
         offset="0"
         id="stop28009" />
      <stop
         style="stop-color:#291809;stop-opacity:0.49803954;"
         offset="0.07834584"
         id="stop28011" />
      <stop
         style="stop-color:#cc9e58;stop-opacity:0;"
         offset="1"
         id="stop28013" />
    </linearGradient>
    <linearGradient
       inkscape:collect="always"
       id="linearGradient25407">
      <stop
         style="stop-color:#a07744;stop-opacity:1;"
         offset="0"
         id="stop25403" />
      <stop
         style="stop-color:#d3a55f;stop-opacity:0;"
         offset="1"
         id="stop25405" />
    </linearGradient>
    <linearGradient
       inkscape:collect="always"
       id="linearGradient23068">
      <stop
         style="stop-color:#000000;stop-opacity:1;"
         offset="0"
         id="stop23064" />
      <stop
         style="stop-color:#ffffff;stop-opacity:1;"
         offset="1"
         id="stop23066" />
    </linearGradient>
    <linearGradient
       inkscape:collect="always"
       id="linearGradient21494">
      <stop
         style="stop-color:#484537;stop-opacity:1;"
         offset="0"
         id="stop21490" />
      <stop
         style="stop-color:#484537;stop-opacity:0;"
         offset="1"
         id="stop21492" />
    </linearGradient>
    <linearGradient
       inkscape:collect="always"
       id="linearGradient17810">
      <stop
         style="stop-color:#000000;stop-opacity:1;"
         offset="0"
         id="stop17806" />
      <stop
         style="stop-color:#291809;stop-opacity:1;"
         offset="0.07834584"
         id="stop18725" />
      <stop
         style="stop-color:#cc9e58;stop-opacity:1;"
         offset="1"
         id="stop17808" />
    </linearGradient>
    <linearGradient
       inkscape:collect="always"
       id="linearGradient16332">
      <stop
         style="stop-color:#483e37;stop-opacity:0;"
         offset="0"
         id="stop16330" />
      <stop
         style="stop-color:#483e37;stop-opacity:1;"
         offset="1"
         id="stop16328" />
    </linearGradient>
    <filter
       inkscape:collect="always"
       style="color-interpolation-filters:sRGB"
       id="filter25471"
       x="-0.0091865883"
       y="-0.14520066"
       width="1.0183732"
       height="1.2904013">
      <feGaussianBlur
         inkscape:collect="always"
         stdDeviation="0.34647189"
         id="feGaussianBlur25473" />
    </filter>
    <filter
       inkscape:collect="always"
       style="color-interpolation-filters:sRGB"
       id="filter29523"
       x="-0.0075460355"
       y="-0.0078188073"
       width="1.0150921"
       height="1.0156376">
      <feGaussianBlur
         inkscape:collect="always"
         stdDeviation="0.18452687"
         id="feGaussianBlur29525" />
    </filter>
    <linearGradient
       inkscape:collect="always"
       xlink:href="#linearGradient32403"
       id="linearGradient38663"
       gradientUnits="userSpaceOnUse"
       x1="30.830463"
       y1="89.374367"
       x2="30.830463"
       y2="26.171032"
       gradientTransform="rotate(45,69.507084,29.443395)" />
    <linearGradient
       inkscape:collect="always"
       xlink:href="#linearGradient25407"
       id="linearGradient38665"
       gradientUnits="userSpaceOnUse"
       gradientTransform="translate(-55.355786,52.709425)"
       x1="168.29024"
       y1="15.023905"
       x2="168.29024"
       y2="-4.8973589" />
    <radialGradient
       inkscape:collect="always"
       xlink:href="#linearGradient16332"
       id="radialGradient38667"
       gradientUnits="userSpaceOnUse"
       gradientTransform="matrix(0.70710678,0.70710678,-0.66715791,0.66715791,-25.364688,-81.026095)"
       cx="108.09609"
       cy="41.720773"
       fx="108.09609"
       fy="41.720773"
       r="32.823577" />
    <linearGradient
       inkscape:collect="always"
       xlink:href="#linearGradient23068"
       id="linearGradient38669"
       gradientUnits="userSpaceOnUse"
       x1="35.728409"
       y1="28.746567"
       x2="35.728409"
       y2="85.805092"
       gradientTransform="rotate(45,69.507084,29.443395)" />
    <linearGradient
       inkscape:collect="always"
       xlink:href="#linearGradient16332"
       id="linearGradient38671"
       gradientUnits="userSpaceOnUse"
       gradientTransform="translate(-133.47536,-73.376418)"
       x1="185.25107"
       y1="131.14914"
       x2="196.66983"
       y2="131.14914" />
    <linearGradient
       inkscape:collect="always"
       xlink:href="#linearGradient17810"
       id="linearGradient38673"
       gradientUnits="userSpaceOnUse"
       gradientTransform="matrix(0.70659009,0.70659009,-0.82677732,0.82677732,48.427795,-47.609129)"
       x1="107.70286"
       y1="54.909054"
       x2="107.70286"
       y2="59.889366" />
    <linearGradient
       inkscape:collect="always"
       xlink:href="#linearGradient17810"
       id="linearGradient38675"
       gradientUnits="userSpaceOnUse"
       gradientTransform="matrix(0.70659009,0.70659009,-0.82677732,0.82677732,48.427794,-47.60913)"
       x1="107.70286"
       y1="54.909054"
       x2="107.70286"
       y2="59.889366" />
    <linearGradient
       inkscape:collect="always"
       xlink:href="#linearGradient28015"
       id="linearGradient38677"
       gradientUnits="userSpaceOnUse"
       gradientTransform="matrix(0.70659009,0.70659009,-0.82677732,0.82677732,48.427792,-47.609132)"
       x1="107.70286"
       y1="54.909054"
       x2="107.70286"
       y2="59.889366" />
    <linearGradient
       inkscape:collect="always"
       xlink:href="#linearGradient21494"
       id="linearGradient38679"
       gradientUnits="userSpaceOnUse"
       gradientTransform="matrix(1,0,0,0.31394186,0.46146961,-24.970842)"
       x1="65.185684"
       y1="57.7727"
       x2="80.218326"
       y2="57.7727" />
    <linearGradient
       inkscape:collect="always"
       xlink:href="#linearGradient21494"
       id="linearGradient38681"
       gradientUnits="userSpaceOnUse"
       gradientTransform="matrix(1,0,0,0.3937483,0.46147167,-16.709255)"
       x1="65.185684"
       y1="57.7727"
       x2="80.218326"
       y2="57.7727" />
    <clipPath
       clipPathUnits="userSpaceOnUse"
       id="clipPath44953">
      <path
         id="path44955"
         style="display:inline;fill:#ff6600;fill-opacity:1;stroke:none;stroke-width:0.544674;stroke-linecap:round;stroke-linejoin:round;stroke-dasharray:none;paint-order:stroke fill markers"
         d="m 276.61449,4.2894009 c -7.00426,-6.9959339 -18.21143,-7.427232 -25.73269,-0.9903619 -6.40758,-5.9456309 -16.36893,-5.76297 -22.55422,0.413579 -6.17655,6.1852871 -6.35921,16.146644 -0.41358,22.554218 -6.43687,7.52126 -6.00554,18.728409 0.99036,25.73269 4.1003,4.09213 9.64553,5.163232 15.59979,5.412758 5.95427,0.249526 10.07748,-4.560893 14.52345,-1.747464 4.44598,2.813431 3.94195,12.094117 3.94195,12.094117 l 1.23676,1.208892 7.01571,-7.015729 18.385,18.384986 6.61447,-1.196155 3.94595,3.945924 3.94591,3.945925 -1.19615,6.61448 2.47351,2.473521 6.61487,-1.195761 3.94595,3.945927 3.94591,3.945923 -1.19615,6.61449 3.20992,3.20992 3.75526,0.19027 3.94631,3.94632 3.94592,3.94593 0.19066,3.75565 4.8364,4.83637 13.86903,-1.47599 3.83606,-3.83606 0.31806,-7.35487 -70.04185,-70.041834 7.01535,-7.015329 -1.20851,-1.237155 c 0,0 -9.50074,0.738084 -12.09411,-3.94194 -2.59339,-4.680026 1.21071,-8.826175 1.74747,-14.523451 0.53671,-5.697277 -1.32064,-11.499498 -5.41277,-15.5997901 z m -33.36262,3.149414 c 3.09219,3.0922921 3.09219,8.1058021 0,11.1980941 -3.09229,3.09219 -8.1058,3.09219 -11.19809,0 -3.09219,-3.092291 -3.09219,-8.105802 0,-11.1980941 3.09229,-3.0921899 8.1058,-3.0921899 11.19809,0 z" />
    </clipPath>
    <clipPath
       clipPathUnits="userSpaceOnUse"
       id="clipPath49353">
      <path
         id="path49355"
         style="display:inline;fill:#ffcc00;fill-opacity:1;stroke:none;stroke-width:0.544674;stroke-linecap:round;stroke-linejoin:round;stroke-dasharray:none;paint-order:stroke fill markers"
         d="M 461.92689,0.26893652 C 454.92265,-6.7269974 443.71546,-7.1582949 436.1942,-0.72142559 429.78663,-6.6670563 419.82528,-6.4843948 413.63998,-0.3078458 c -6.17654,6.185287 -6.35921,16.1466438 -0.41357,22.5542178 -6.43689,7.521259 -6.00554,18.728408 0.99036,25.732688 4.1003,4.092133 9.64552,5.163233 15.59978,5.412761 5.95426,0.249524 10.07748,-4.560895 14.52346,-1.747467 4.44598,2.813434 3.94194,12.09412 3.94194,12.09412 l 1.23677,1.208889 7.01572,-7.015726 18.38497,18.384986 6.6145,-1.196157 3.94592,3.945924 3.94592,3.945927 -1.19616,6.61448 2.47354,2.473521 6.61487,-1.195763 3.94592,3.945927 3.94594,3.945922 -1.19618,6.614486 3.20993,3.20992 3.75525,0.19027 3.94632,3.94632 3.94594,3.94593 0.19066,3.75565 4.83637,4.83637 13.86906,-1.47599 3.83604,-3.83606 0.31805,-7.35487 -70.04182,-70.041827 7.01532,-7.015329 -1.20851,-1.237155 c 0,0 -9.50074,0.738085 -12.0941,-3.941942 -2.59337,-4.680025 1.21073,-8.826174 1.74746,-14.52345 0.53674,-5.697278 -1.32061,-11.4994981 -5.41276,-15.59979048 z M 428.56428,3.4183505 c 3.09218,3.0922923 3.09218,8.1058025 0,11.1980945 -3.09229,3.09219 -8.1058,3.09219 -11.19809,0 -3.09219,-3.092291 -3.09219,-8.1058016 0,-11.1980942 3.09229,-3.09219019 8.1058,-3.09218996 11.19809,-3e-7 z" />
    </clipPath>
    <filter
       inkscape:collect="always"
       style="color-interpolation-filters:sRGB"
       id="filter49587"
       x="-0.11747672"
       y="-0.11143956"
       width="1.2349534"
       height="1.2228791">
      <feGaussianBlur
         inkscape:collect="always"
         stdDeviation="6.062911"
         id="feGaussianBlur49589" />
    </filter>
    <filter
       inkscape:collect="always"
       style="color-interpolation-filters:sRGB"
       id="filter49744"
       x="-0.023713705"
       y="-0.028773839"
       width="1.0474274"
       height="1.0575477">
      <feGaussianBlur
         inkscape:collect="always"
         stdDeviation="2.244295"
         id="feGaussianBlur49746" />
    </filter>
  </defs>
  <g
     inkscape:label="Layer 1"
     inkscape:groupmode="layer"
     id="g37935"
     style="display:inline">
    <path
       id="path37895"
       style="display:inline;fill:#d3bc5f;fill-opacity:1;stroke:url(#linearGradient38663);stroke-width:0.5;stroke-linecap:round;stroke-linejoin:round;stroke-dasharray:none;paint-order:stroke fill markers"
       d="M 44.326495,0.52947557 C 37.896719,-5.8926634 27.608737,-6.2885866 20.704358,-0.37965869 14.822323,-5.8376385 5.6779798,-5.6699586 2.3603646e-7,0 -5.6699581,5.6779798 -5.8376383,14.822323 -0.37965845,20.704358 -6.2885864,27.608736 -5.8926384,37.896694 0.52947581,44.326494 4.2934724,48.082996 9.3838938,49.066247 14.849798,49.295307 c 5.465904,0.22906 9.25094,-4.186816 13.332259,-1.60414 4.081323,2.582679 3.618632,11.102178 3.618632,11.102178 l 1.135324,1.10974 6.440308,-6.440309 16.877079,16.877079 6.071977,-1.098049 3.622286,3.622286 3.622287,3.622287 -1.098055,6.071971 2.270647,2.270647 6.072339,-1.097687 3.622289,3.622289 3.622282,3.622282 -1.098048,6.071978 2.946648,2.946648 3.447252,0.174663 3.62265,3.62265 3.622288,3.62229 0.175031,3.44762 4.439707,4.4397 12.73153,-1.35493 3.52143,-3.52143 0.29196,-6.75164 -64.297118,-64.297114 6.439944,-6.439944 -1.10938,-1.135684 c 0,0 -8.721508,0.677547 -11.102178,-3.618631 -2.380666,-4.296177 1.111421,-8.102265 1.60414,-13.33226 C 49.788024,9.6198006 48.082999,4.2934686 44.326495,0.52947557 Z M 13.700226,3.4205799 c 2.838574,2.8386675 2.838574,7.4409781 0,10.2796451 -2.838668,2.838574 -7.4409784,2.838574 -10.2796458,0 -2.8385735,-2.838666 -2.83857371,-7.4409772 2e-7,-10.2796449 2.8386676,-2.83857385 7.4409786,-2.83857364 10.2796456,-2e-7 z"
       transform="matrix(1.0893464,0,0,1.0893464,6.3838407,7.811452)" />
    <path
       style="color:#000000;display:inline;opacity:0.19153557;mix-blend-mode:color-burn;fill:#3f2507;fill-opacity:1;filter:url(#filter49744)"
       d="m 446.61328,-39.021484 c -0.39519,0.08977 -0.64049,0.278346 -0.80469,0.429687 -0.32838,0.302683 -0.43521,0.53388 -0.56445,0.794922 -0.32898,0.664478 -0.35786,1.226387 -0.40234,1.578125 -0.0226,0.178948 -0.0208,0.1514 -0.0371,0.220703 -0.24467,0.06165 -0.46912,0.04917 -0.86914,0.449219 -0.78723,0.787242 -1.02249,1.513962 -1.20899,1.759766 0.15489,-0.204122 -0.11404,-0.07688 -0.57422,0.570312 -0.55716,0.783692 -0.79283,1.394626 -0.99414,1.640625 -0.28647,0.350086 -0.26442,0.313076 -0.44531,0.523438 -0.46964,0.04942 -0.72239,0.212499 -0.92578,0.347656 -0.26476,0.175942 -0.51906,0.384336 -0.85156,0.679687 -0.0155,0.01374 -0.003,0.03256 -0.0176,0.04687 -0.19943,0.02575 -0.36284,5.2e-5 -0.61914,0.125 -0.81063,0.395208 -0.99619,0.846702 -0.92383,0.779297 -0.3788,0.352848 -0.84963,0.738313 -1.33594,1.234375 -0.24506,0.249987 -0.2995,0.381562 -0.35937,0.490235 -2.14675,1.212947 -4.57129,2.209357 -6.93946,3.632812 -1.83413,1.102465 -3.39436,2.409147 -4.9375,3.527344 -7.002,5.073821 -4.43051,3.365032 -11.11132,7.933593 -1.68794,1.154262 -3.40153,2.2905262 -5.11524,3.445313 l -0.0234,0.015625 -0.0215,0.017578 c -1.59734,1.1616203 -3.15312,2.3332372 -4.72461,3.4335938 0.10163,-0.071162 -0.69823,0.4742548 -1.66406,1.1269531 -0.96583,0.6526983 -2.23648,1.5110157 -3.51172,2.375 -1.27525,0.86398431 -2.55446,1.73411149 -3.54297,2.41015625 -0.49426,0.33802238 -0.91619,0.62706835 -1.23047,0.84570315 -0.31427,0.2186348 -0.36214,0.2223413 -0.67773,0.4921875 -2.18777,1.8706229 -4.24935,3.914068 -6.11914,6.1210937 -1.30973,1.5459669 -1.99158,3.2105235 -2.83008,4.4218755 -1.14621,1.655898 -1.64098,2.16934 -2.17774,2.841797 -0.53675,0.672456 -1.02466,1.439393 -1.81836,3.115234 -1.17507,2.481079 -1.46695,3.571123 -1.59179,4.728515 -0.12484,1.157393 -0.13999,2.303375 -0.98438,5.916016 -0.15736,0.673257 -0.9247,1.666718 -1.24218,3.285156 -0.62963,3.209889 -1.35519,7.832692 -0.0977,11.697266 1.61798,4.97216 3.74578,10.101269 6.64453,14.644531 1.11383,1.745735 2.23687,3.661514 3.79492,5.38086 0.60059,0.662763 1.44903,0.683202 1.85352,0.632812 0.40449,-0.05039 0.65111,-0.137131 0.6875,-0.144531 0.65348,-0.132895 1.34019,-0.336742 2.00976,-0.683594 0.53251,-0.275871 1.44688,-0.617503 2.16407,-1.595703 1.67602,-2.285864 2.80593,-4.715991 4.17187,-6.771484 0.98525,-1.482604 1.22119,-1.760071 1.49024,-2.117188 0.0492,-0.01667 0.15053,-0.0088 0.18945,-0.02539 0.71383,-0.304009 0.61459,-0.437277 0.72265,-0.568359 0.10807,-0.131082 0.20427,-0.262685 0.32618,-0.4375 0.48761,-0.699259 1.35378,-2.0616 3.06836,-4.84375 1.11188,-1.804195 1.94991,-3.641892 2.8789,-5.304687 2.09627,-3.752166 4.1939,-7.497033 6.34375,-11.201172 4.21635,-7.264677 4.21703,-6.58568 10.10547,-15.128906 1.9944,-2.89358 3.82192,-6.1659206 6.08984,-8.1875006 4.8267,-4.3024223 10.68061,-8.66135604 16.64258,-10.9609375 5.81232,-2.2418608 8.19391,-3.2579642 9.83203,-3.6679687 1.63813,-0.4100046 2.81949,-0.3261719 6.6543,-0.3261719 0.84933,0 1.48628,-0.07259 1.90039,-0.015625 1.11069,0.1527862 3.09659,1.1537508 3.87695,1.9335937 -0.0387,-0.038732 0.0812,0.1317446 0.125,0.4023438 0.0331,0.2047635 0.008,0.3954215 -0.01,0.5527344 -0.1972,0.160419 -0.35452,0.1438546 -0.50586,0.5898437 -0.33156,0.976443 -0.084,1.5528467 -0.084,1.5664062 v 1.58789068 c 0,1.06713357 0.11029,1.67893392 0.0684,1.81640622 -0.5218,1.7106367 -1.59159,3.4678209 -2.39257,5.5820313 -0.41085,1.0843602 -0.39749,1.8202482 -0.4961,2.0429687 -0.77067,1.740633 -1.00549,2.077423 -1.25195,2.363281 -0.24646,0.285859 -0.80639,0.78702 -1.74023,2.167969 -1.76251,2.606324 -2.16362,3.38011 -2.47071,3.9375 -0.30708,0.55739 -0.55888,0.980863 -2.30664,3.351563 -2.51593,3.412652 -4.21937,5.2134 -7.74414,8.242187 -0.96941,0.83301 -2.4124,1.508571 -3.83398,2.669922 -2.05022,1.67495 -3.8279,3.503054 -5.67188,5.095703 -1.30777,1.129527 -2.95837,2.166138 -4.45898,3.658203 -1.76462,1.754574 -3.21196,3.555081 -4.72852,5.285156 -0.22347,-0.172127 -0.43212,-0.392021 -0.65625,-0.43164 -0.36015,-0.06367 -0.59184,-0.0025 -0.74805,0.04492 -0.31241,0.09478 -0.40525,0.180072 -0.49414,0.242187 -0.17777,0.124231 -0.25689,0.20582 -0.35937,0.304688 -0.20496,0.197736 -0.43629,0.447424 -0.76172,0.810547 -1.3017,1.452491 -4.01271,4.669311 -9.30664,11.060546 -2.51942,3.041659 -4.66264,7.303644 -5.35938,11.363282 -0.27381,1.595647 -0.0215,2.971007 -0.0215,4.054687 v 2.06836 c 0,-0.310364 0.0187,-0.254198 -0.0234,-0.0078 -0.0211,0.123193 -0.055,0.315315 -0.01,0.621094 0.0452,0.305778 0.23208,0.74764 0.55078,1.037109 0.70076,0.63642 1.5868,0.502907 2.01172,0.361328 0.42492,-0.141578 0.70623,-0.320994 0.97461,-0.492187 0.53675,-0.342386 1.11886,-0.715927 1,-0.664063 5.97584,-2.607392 6.66416,-2.722406 7.38476,-2.947265 0.3603,-0.11243 0.74529,-0.286264 1.4336,-0.669922 0.6883,-0.383659 1.82279,-1.036834 4.02148,-2.28125 3.18749,-1.804061 6.45938,-3.549994 9.66211,-5.496094 1.86566,-1.133635 4.69797,-3.315855 6.44336,-4.712891 1.09677,-0.877866 2.03407,-1.76531 2.98242,-2.443359 1.14595,-0.819326 2.58387,-1.522981 4.01367,-2.554687 1.36545,-0.985263 2.45329,-2.074423 3.54688,-2.902344 4.10061,-3.104392 8.3706,-6.063818 12.52148,-9.261719 4.21426,-3.246734 6.11592,-4.784139 6.9668,-5.533203 0.18889,-0.166288 0.31546,-0.286187 0.44531,-0.421875 0.97257,-0.607488 2.75744,-1.762848 6.87891,-4.53125 1.65173,-1.109467 3.19851,-2.283641 4.74609,-3.367188 1.13892,-0.79742 1.80301,-1.34577 2.32031,-1.617187 0.51731,-0.271417 0.97062,-0.408203 2.17774,-0.408203 0.59016,0 0.45465,-0.0031 0.68555,0.27539 0.23089,0.278442 0.59463,1.008579 1.30468,1.841797 0.80397,0.943466 1.38102,1.273212 1.40235,1.314453 1.88819,3.650882 1.41797,3.316593 1.41797,7.019532 0,0.786448 0.0476,1.451977 0.006,1.99414 -0.0448,0.581854 -0.11745,1.774366 -0.26953,3.027344 -0.15207,1.252978 -0.44314,2.601268 -0.65039,3.052734 -0.0819,0.178355 -0.57852,0.624421 -1.05078,1.587891 -0.41378,0.844127 -0.60307,1.458972 -0.66992,1.966797 -0.042,0.318928 -0.0118,0.226608 -0.002,0.253906 -0.0309,0.03388 -0.0266,0.03363 -0.11524,0.117188 -0.32009,0.301921 -0.95015,0.843209 -2,1.720703 -0.29475,0.246356 -0.90407,0.482239 -1.71289,0.820312 -3.1697,1.324873 -2.73795,0.939357 -6.4043,1.728516 -2.1736,0.467857 -4.39314,0.909405 -6.61914,1.480469 -0.59715,0.153199 -4.22224,1.002888 -8.125,2.074218 -3.90275,1.071331 -8.07067,2.307366 -10.47851,3.619141 -0.44163,0.240597 -0.83936,0.537373 -1.4961,1.003906 -0.65673,0.466534 -1.45615,1.048142 -2.26171,1.644532 -1.61113,1.19278 -3.13643,2.336518 -3.81055,2.941406 -2.79008,2.503607 -5.5304,6.094403 -6.43359,9.960937 -0.55345,2.369309 0.44178,4.339913 0.71679,5.753907 0.87717,4.510252 1.72243,9.079164 2.91016,13.607421 0.30539,1.164291 0.95866,2.014746 1.50586,2.69336 0.28328,0.351271 0.76018,0.57224 1.08398,0.623047 0.3238,0.05081 0.52004,0.01079 0.64649,-0.01172 0.25288,-0.04502 0.31958,-0.02148 -0.01,-0.02148 -0.16085,0 0.2289,0.18805 1.03516,-0.08398 0.6624,-0.223494 1.05194,-0.514713 1.27148,-0.625 0.53153,-0.266991 0.77449,-0.380994 0.94531,-0.466797 0.0854,-0.0429 0.15996,-0.07708 0.3086,-0.177734 0.14864,-0.100659 0.33616,-0.290644 0.36523,-0.324219 0.0582,-0.06715 -0.0577,0.04246 0.12305,-0.103515 0.1807,-0.145978 0.56031,-0.434015 1.26562,-0.925782 1.38757,-0.967437 2.93185,-1.871277 4.45118,-2.972656 1.002,-0.726369 3.46319,-2.868568 4.38086,-3.779297 1.01738,-1.009662 1.67613,-1.984377 2.35937,-2.52539 0.72222,-0.571868 1.83188,-1.018137 3.05078,-1.759766 1.12618,-0.6852 3.32927,-2.120209 5.36133,-3.458984 2.03206,-1.338776 3.71797,-2.455082 4.22852,-2.828125 2.56093,-1.871286 4.87371,-3.925087 7.25195,-5.748047 4.15849,-3.18757 13.38194,-10.127925 18.01172,-12.933594 2.77965,-1.684468 5.75589,-3.141934 8.7539,-4.658203 1.47935,-0.748196 2.87031,-1.476939 4.25391,-1.933594 2.53168,-0.835567 3.80427,-1.394073 4.20508,-1.449219 0.2004,-0.02757 0.18261,-0.03569 0.43164,0.07227 0.24903,0.107957 0.71562,0.393469 1.41797,0.886719 0.9679,0.679754 1.66781,1.058065 1.85547,1.335937 0.0475,0.07037 0.0951,0.685561 0.2832,1.767578 0.38762,2.228957 0.68013,3.954919 0.50976,5.958985 -0.14465,1.702027 -0.52258,3.509346 -0.68945,5.46875 -0.0687,0.806633 0.10258,1.376915 0.1543,1.732422 0.0517,0.355506 -0.007,0.350921 0.0684,0.226562 -1.40132,2.310016 -3.1716,4.440893 -5.22071,6.130859 -1.31283,1.082729 -5.46747,3.119064 -9.40625,4.800782 -3.93877,1.681718 -7.70102,3.117575 -9.07226,3.716797 -3.99276,1.744807 -15.45487,7.566535 -17.53125,8.693359 -7.33599,3.981167 -8.78594,5.532191 -14.48438,13.425781 -2.63745,3.65347 -3.50825,6.54488 -3.87304,10.625 -0.1595,1.78403 -0.30009,3.69694 0.69336,5.66602 0.47939,0.94891 1.26293,1.28807 1.84375,1.50976 0.58114,0.22181 1.11829,0.32719 1.27929,0.3711 1.02449,0.27941 2.00475,0.46779 2.91016,0.6875 0.55622,0.13497 1.30925,0.45582 2.32812,0.57031 2.37514,0.26687 3.56496,-0.0843 5.60352,-0.55859 0.0305,-0.007 0.9003,-0.21111 1.81836,-0.44922 0.45903,-0.11906 0.92612,-0.24427 1.32617,-0.36719 0.20003,-0.0615 0.38063,-0.12089 0.5586,-0.18945 0.17797,-0.0686 0.2597,0.02 0.75,-0.43946 1.72978,-1.62092 2.98137,-3.45825 4.29882,-5.0039 1.05802,-1.03957 2.06948,-2.07913 3.09961,-3.04297 3.59026,-3.3592 7.52915,-6.51596 11.08008,-10.22656 2.82895,-2.95615 4.58058,-6.411846 7.06055,-8.730475 4.99252,-4.667717 10.65964,-8.708689 16.19922,-13.021484 1.60851,-1.252293 3.39611,-2.384897 5.19336,-3.628906 0.69073,-0.478118 1.53899,-1.199625 2.46875,-1.796875 0.92975,-0.597251 1.89772,-0.913735 2.16796,-0.888672 1.64511,0.15257 3.3528,0.644703 5.13086,1.171875 2.75112,0.815664 4.44283,3.217682 6.73438,5.984375 1.60289,1.935204 2.77187,3.649433 2.76953,5.724609 -0.002,1.975842 -0.41279,4.105844 -0.54297,6.425781 -0.0719,1.281168 0.0783,2.335759 0.004,3.150391 -0.16392,1.794981 -1.11412,4.549371 -2.02539,5.906251 -0.25329,0.37715 -0.84063,0.80743 -1.59766,1.28125 -5.95046,3.72428 -5.82943,3.36895 -12.16992,5.65234 -1.00275,0.36113 -4.08581,1.37271 -7.28906,2.56055 -3.20325,1.18784 -6.49344,2.48765 -8.46485,3.82227 -2.68995,1.82108 -5.22452,3.85323 -7.62695,5.99804 -1.12351,1.00304 -2.06102,2.17478 -2.83398,3.40625 -1.24239,1.97939 -2.04211,4.9305 -2.06641,7.17578 -0.0169,1.54693 0.39688,2.81363 0.54492,3.84571 0.14894,1.03839 0.0307,2.48065 0.60547,4.08398 0.46274,1.29075 1.47703,1.65984 1.92383,1.9082 1.26419,0.70271 2.65512,1.48706 4.28515,1.94141 5.10638,1.42333 12.50377,0.25825 16.09961,-0.25586 6.70904,-0.9592 12.63997,-5.4196 17.43555,-8.27539 1.85356,-1.10381 3.41142,-2.39149 4.98633,-3.375 2.28912,-1.42954 4.80206,-2.69154 7.24805,-4.26562 1.60144,-1.03059 2.541,-1.66837 3.10742,-2.10547 0.1416,-0.10928 0.26121,-0.20392 0.38086,-0.31446 0.11965,-0.11053 0.23749,-0.16007 0.44922,-0.56836 0.0461,-0.089 10e-5,-0.3846 0.043,-0.55664 1.94463,-1.14939 3.0555,-1.82341 7.51368,-4.40429 1.25592,-0.72706 3.0514,-1.11049 4.89648,-2.13477 4.16345,-2.31133 8.14008,-4.86114 12.12109,-7.31445 1.88374,-1.16086 3.71785,-2.36992 5.53907,-3.56641 1.40009,-0.91983 2.51989,-1.8965 3.63867,-2.47265 0.71128,-0.3663 1.76725,-0.55803 3.00586,-0.96289 l -0.98438,-3.00782 c -0.91984,0.30068 -2.1631,0.48287 -3.4707,1.15625 -1.58805,0.81783 -2.78317,1.89063 -3.92773,2.64258 -1.82379,1.19817 -3.63188,2.38845 -5.46094,3.51563 -4.01316,2.47312 -7.9496,4.99773 -11.9961,7.24414 -1.2851,0.71341 -3.10475,1.09351 -4.94726,2.16015 -6.98238,4.04216 -10.3884,6.04345 -11.83985,6.94336 -0.36286,0.22498 -0.59279,0.36994 -0.79101,0.51367 -0.0991,0.0719 -0.12586,-0.002 -0.44531,0.42383 -0.0399,0.0532 -0.0885,0.12074 -0.14258,0.22461 -0.0541,0.10388 -0.15797,0.46932 -0.1582,0.4707 -1.2e-4,7e-4 0.0289,0.22581 0.0566,0.45118 -1.80087,1.06015 -3.63706,2.07221 -5.51368,3.24414 -1.81102,1.13095 -3.35346,2.39924 -4.92968,3.33789 -5.01675,2.98749 -10.70208,7.06813 -16.26368,7.86328 -3.57699,0.51141 -11.00504,1.39785 -14.80078,0.33984 -1.15174,-0.32103 -2.33581,-0.95789 -3.5957,-1.6582 -0.48708,-0.27075 -0.58654,-0.49395 -0.48437,-0.20898 -0.28274,-0.78863 -0.23934,-1.98988 -0.45118,-3.4668 -0.19678,-1.37192 -0.52329,-2.47979 -0.51367,-3.36133 0.0137,-1.26607 0.91027,-4.45397 1.58399,-5.52734 0.64023,-1.02002 1.40027,-1.96315 2.25976,-2.73047 2.31763,-2.06911 4.74528,-4.01024 7.29492,-5.73633 1.32954,-0.90008 4.65871,-2.31308 7.79102,-3.47461 3.13231,-1.16153 6.0996,-2.13492 7.25976,-2.55273 6.26166,-2.25501 6.75368,-2.17839 12.7754,-5.94727 0.77167,-0.48298 1.7947,-1.07728 2.54687,-2.19726 1.35939,-2.02412 2.3245,-4.9048 2.55078,-7.38282 0.12002,-1.314341 -0.044,-2.408413 0.004,-3.261717 0.1139,-2.029862 0.54413,-4.219031 0.54687,-6.59961 0.004,-3.253664 -1.79853,-5.698545 -3.49609,-7.748047 -2.16879,-2.618477 -4.28806,-5.818396 -8.27344,-7 -1.78327,-0.528717 -3.68467,-1.096654 -5.73828,-1.287109 -1.68027,-0.15583 -3.01588,0.633679 -4.16992,1.375 -1.15404,0.741321 -2.17139,1.591356 -2.5586,1.859375 -1.72479,1.193858 -3.56456,2.355289 -5.33593,3.734375 -5.46814,4.257176 -11.21817,8.345397 -16.41602,13.205078 -3.03092,2.833741 -4.80036,6.360995 -7.1875,8.855475 -3.35914,3.51018 -7.2492,6.6343 -10.95703,10.10351 -1.1205,1.04841 -2.16326,2.12239 -3.20508,3.14453 l -0.0488,0.0488 -0.0449,0.0527 c -1.43394,1.67443 -2.6149,3.34197 -3.96679,4.64649 -0.0655,0.0224 -0.11349,0.0396 -0.20704,0.0684 -0.318,0.0977 -0.75704,0.21742 -1.1914,0.33008 -0.86873,0.22531 -1.72861,0.42503 -1.74024,0.42773 -2.13932,0.49771 -2.5143,0.72489 -4.5332,0.49805 -0.43709,-0.0491 -1.06795,-0.29143 -1.93555,-0.50196 -1.00303,-0.24339 -1.95402,-0.42673 -2.82422,-0.66406 -0.37641,-0.10266 -0.72405,-0.17677 -0.98242,-0.27539 -0.25836,-0.0986 -0.2688,-0.22097 -0.14648,0.0215 -0.58067,-1.15093 -0.52128,-2.21366 -0.36524,-3.95899 0.34155,-3.8202 0.88682,-5.73245 3.28516,-9.05469 5.6805,-7.86874 6.20832,-8.576237 13.42773,-12.494138 1.77098,-0.961086 13.64638,-6.984342 17.28907,-8.576172 1.09931,-0.480391 5.03858,-1.995635 9.04687,-3.707031 4.00829,-1.711396 8.04371,-3.509547 10.17774,-5.269531 2.36409,-1.949754 4.3484,-4.348763 5.91406,-6.929688 0.53288,-0.878404 0.43681,-1.766965 0.35547,-2.326172 -0.0813,-0.559206 -0.13895,-0.935684 -0.13281,-1.007812 0.14496,-1.702189 0.52486,-3.509137 0.6914,-5.46875 0.20954,-2.464841 -0.15937,-4.541262 -0.54687,-6.769531 -0.0905,-0.520536 0.0855,-1.718474 -0.77735,-2.996094 -0.87712,-1.298763 -2.07114,-1.740634 -2.66015,-2.154297 -0.7471,-0.524678 -1.32274,-0.917733 -1.97657,-1.201172 -0.65382,-0.283439 -1.43486,-0.397418 -2.12304,-0.302734 -1.37636,0.189368 -2.38328,0.791843 -4.76563,1.578125 -1.72446,0.569154 -3.24812,1.386264 -4.68945,2.115234 -2.9725,1.50337 -6.02246,2.992306 -8.96484,4.775391 -5.00241,3.031483 -14.11212,9.919704 -18.29883,13.128906 -2.49813,1.914858 -4.79346,3.949501 -7.19336,5.703125 -0.0991,0.0724 -2.08295,1.41098 -4.10352,2.742187 -2.02057,1.331208 -4.25365,2.780767 -5.26562,3.396485 -0.89724,0.545912 -2.14936,1.018522 -3.36914,1.984375 -1.21536,0.962369 -1.92148,2.063523 -2.62305,2.759765 -0.54949,0.545336 -3.62985,3.186067 -4.01172,3.462891 -1.35383,0.981415 -2.87891,1.877289 -4.40234,2.939453 -0.73978,0.515795 -1.16311,0.832196 -1.44336,1.058594 -0.15164,0.122503 -0.18842,0.171798 -0.28516,0.267578 -0.12115,0.06025 -0.37259,0.180225 -0.88867,0.439453 -0.31254,0.157002 -0.39966,0.208688 -0.54688,0.289063 -0.18352,-0.288684 -0.44589,-0.616711 -0.5039,-0.837891 -1.14849,-4.378625 -1.9845,-8.879627 -2.86524,-13.408203 -0.37977,-1.952637 -0.96888,-3.461155 -0.74218,-4.431641 0.6642,-2.843414 3.0622,-6.16456 5.46679,-8.322265 0.28122,-0.252332 1.9932,-1.580523 3.57813,-2.753907 0.79246,-0.586691 1.57946,-1.160782 2.21094,-1.609375 0.63147,-0.448592 1.22097,-0.828241 1.17773,-0.804687 1.71913,-0.936569 5.96778,-2.293521 9.80078,-3.345703 3.833,-1.052182 7.26347,-1.854004 8.07617,-2.0625 2.1137,-0.542253 4.2918,-0.976288 6.49805,-1.451172 3.51317,-0.756188 3.66107,-0.521928 6.95898,-1.900391 0.64947,-0.271467 1.6035,-0.54718 2.52149,-1.314453 1.05806,-0.88435 1.69698,-1.425401 2.14258,-1.845703 0.4456,-0.420302 0.82971,-0.815331 1,-1.449219 0.17028,-0.633887 0.0716,-0.731349 0.082,-0.810547 0.0104,-0.0792 0.0596,-0.340966 0.37695,-0.988281 0.0978,-0.199562 0.62548,-0.661363 1.08399,-1.660156 0.55157,-1.201582 0.74947,-2.620008 0.91601,-3.992188 0.16654,-1.372179 0.24457,-2.661789 0.2832,-3.164062 0.0665,-0.864789 0.004,-1.613622 0.004,-2.238281 0,-3.498624 0.22842,-4.607738 -1.77148,-8.47461 -0.67533,-1.305751 -1.6251,-1.701352 -1.80469,-1.912109 -0.40369,-0.473713 -0.67329,-1.079741 -1.2793,-1.810547 -0.606,-0.730806 -1.78378,-1.417969 -3.12109,-1.417969 -1.51626,0 -2.68412,0.263579 -3.64844,0.769532 -0.96432,0.505953 -1.64142,1.112117 -2.66406,1.828125 -1.61323,1.129511 -3.14399,2.29001 -4.69531,3.332031 -4.08765,2.745686 -5.84928,3.881792 -6.75,4.445312 -0.0118,0.0046 -0.0361,0.0113 -0.0469,0.01563 -0.12242,0.04909 -0.1891,0.08682 -0.25586,0.123047 -0.13351,0.07244 -0.24408,0.141733 -0.35351,0.212891 -0.10944,0.07116 -0.21055,0.14076 -0.30664,0.210937 -0.048,0.03509 -0.0931,0.06842 -0.1504,0.115235 -0.0572,0.04682 -0.0447,-0.101275 -0.37109,0.408203 -0.0318,0.04957 -0.0834,0.161575 -0.11328,0.224609 -0.85776,0.729091 -2.344,1.947199 -6.11133,4.84961 -4.06721,3.133445 -8.32938,6.088697 -12.5,9.246093 -1.32323,1.001772 -2.39749,2.070887 -3.49023,2.859375 -1.13866,0.821624 -2.57139,1.524053 -4.00196,2.546875 -1.1893,0.850322 -2.16433,1.782633 -3.11914,2.546875 -1.68534,1.348972 -4.59503,3.558351 -6.10937,4.478516 -3.10213,1.884972 -6.34313,3.615473 -9.57617,5.445312 -2.20653,1.248853 -3.36264,1.915999 -4.00391,2.273438 -0.64127,0.357439 -0.62528,0.346375 -0.83594,0.412109 -0.42131,0.131468 -1.67335,0.435734 -7.70703,3.06836 -0.0379,0.01652 -0.0383,0.03018 -0.0742,0.04687 v -0.07031 c 0,-1.440542 -0.17654,-2.627331 -0.0234,-3.519531 0.56982,-3.320203 2.54393,-7.302799 4.67773,-9.878906 3.58344,-4.326206 4.69561,-5.606864 6.25195,-7.433594 0.0211,0.0082 0.0318,0.03805 0.0527,0.04492 0.74693,0.244625 1.07987,0.004 1.29883,-0.09766 0.21895,-0.101637 0.35942,-0.199359 0.50976,-0.308594 0.60139,-0.436941 1.31503,-1.116438 2.52734,-2.353516 2.28795,-2.334689 4.12385,-4.870087 6.20899,-6.943359 1.17316,-1.166476 2.74917,-2.172742 4.29492,-3.507813 1.98174,-1.711628 3.74287,-3.515792 5.60742,-5.039062 1.00994,-0.825059 2.48066,-1.507449 3.89258,-2.720703 3.61873,-3.109525 5.61883,-5.221192 8.23047,-8.763672 1.77196,-2.403538 2.18229,-3.073282 2.5293,-3.703125 0.347,-0.629843 0.59262,-1.138523 2.32031,-3.693359 0.81934,-1.211619 1.03198,-1.312073 1.51562,-1.873047 0.48365,-0.560975 0.93663,-1.315785 1.74805,-3.148438 0.49205,-1.111374 0.45641,-1.923114 0.5625,-2.203125 0.65813,-1.7371405 1.78111,-3.552575 2.46094,-5.78125 0.40115,-1.31511642 0.0703,-2.28675366 0.0703,-2.73828122 V -2.2460938 c 0,-0.3473848 -0.0349,-0.1866169 -0.043,-0.2753906 0.20262,-0.1855996 0.41593,-0.4697496 0.53125,-0.921875 0.16527,-0.6479378 0.18443,-1.3100006 0.0703,-2.015625 -0.11411,-0.7056244 -0.35435,-1.4778301 -1.01367,-2.1367187 -1.45833,-1.4573566 -3.59521,-2.5430689 -5.68164,-2.8300779 -0.98383,-0.135337 -1.77024,-0.01563 -2.33203,-0.01563 -3.78352,0 -5.33636,-0.100594 -7.42383,0.421875 -2.08746,0.5224682 -4.42482,1.5564169 -10.20312,3.785156 -6.55678,2.5290009 -12.63168,7.11571043 -17.60938,11.5527344 -2.86435,2.5532204 -4.73567,6.0646486 -6.58789,8.7519536 -5.84384,8.478514 -5.97805,7.997603 -10.23828,15.33789 -2.16618,3.732269 -4.26991,7.49017 -6.36719,11.244141 -1.01166,1.810757 -1.83686,3.606335 -2.8125,5.189453 -1.50079,2.435262 -2.16571,3.464676 -2.61132,4.128906 -0.30184,0.134799 -0.58594,0.280911 -0.68555,0.380859 -0.56328,0.565165 -1.06096,1.316275 -2.43945,3.390625 -1.54198,2.320378 -2.65919,4.701122 -4.08985,6.652344 -0.0593,0.0809 -0.43481,0.328034 -1.06836,0.65625 -0.30714,0.159108 -0.69336,0.277055 -1.10742,0.367188 -1.10114,-1.319068 -2.08042,-2.826482 -3.11328,-4.445313 -2.69413,-4.222549 -4.73974,-9.118674 -6.30274,-13.921875 -0.88771,-2.728085 -0.40002,-7.07236 0.19532,-10.107422 0.12605,-0.642587 0.84975,-1.605394 1.21679,-3.175781 0.87875,-3.759658 0.94652,-5.348363 1.04883,-6.296875 0.10231,-0.948512 0.18141,-1.33508 1.30664,-3.710937 0.7478,-1.578926 1.01128,-1.971403 1.43164,-2.498047 0.42037,-0.526644 1.08796,-1.253072 2.30664,-3.013672 1.0953,-1.58232 1.7541,-3.131303 2.64063,-4.177734 1.75061,-2.0663457 3.69261,-3.9906045 5.76172,-5.7597661 -0.21847,0.1868018 0.12824,-0.091074 0.42969,-0.3007813 0.30144,-0.2097075 0.7165,-0.4965607 1.20703,-0.8320312 0.98105,-0.670941 2.25982,-1.5376719 3.5332,-2.40039065 1.27338,-0.86271876 2.54222,-1.72050457 3.50781,-2.37304685 0.9656,-0.6525423 1.48939,-1.0024896 1.70899,-1.15625 1.61745,-1.132543 3.17106,-2.306364 4.72265,-3.4355469 l 0.0176,-0.011719 c 0.01,-0.00702 0.0197,-0.014465 0.0293,-0.021484 1.68627,-1.1359878 3.39008,-2.266106 5.08594,-3.4257813 6.68973,-4.5746667 4.20423,-2.9264217 11.18164,-7.9824217 1.65954,-1.202553 3.15519,-2.441824 4.71093,-3.376953 2.14134,-1.287116 4.61939,-2.290087 7.05664,-3.689453 0.50594,-0.290512 0.72643,-0.668176 0.83789,-0.847657 0.11147,-0.17948 0.14906,-0.202166 0.0332,-0.08398 0.32889,-0.335497 0.75912,-0.691934 1.23242,-1.132813 0.082,-0.07637 -0.027,0.0035 0.0293,-0.04687 0.0731,0.0086 0.0858,0.02592 0.18164,0.02734 0.32766,0.0049 0.87221,-0.106164 1.27539,-0.453125 0.0867,-0.07465 0.0389,-0.169675 0.10351,-0.259765 0.29847,-0.02621 0.53278,-0.09289 0.65039,-0.154297 0.28408,-0.148326 0.35314,-0.236058 0.44336,-0.320313 0.36089,-0.33702 0.6645,-0.717665 1.39258,-1.607422 0.65358,-0.798692 0.90001,-1.494076 1.125,-1.810547 -0.16665,0.234387 0.0546,0.117404 0.51563,-0.490234 0.5285,-0.696574 0.70458,-1.109446 0.83203,-1.291016 0.27303,-0.07281 0.94216,-0.227507 1.39844,-0.984375 0.32964,-0.546857 0.36158,-0.984373 0.4121,-1.365234 0.0344,-0.0014 0.17773,-0.0078 0.17774,-0.0078 6e-5,-3.9e-5 0.54291,-0.617077 0.54297,-0.617188 5e-5,-1.11e-4 0.10542,-0.273255 0.10547,-0.273437 10e-5,-3.65e-4 0.0391,-0.175516 0.0449,-0.21875 0.0117,-0.08647 0.0124,-0.117474 0.0137,-0.146485 0.005,-0.116045 0.002,-0.13981 0,-0.189453 -0.002,-0.03534 -0.009,-0.0843 -0.0117,-0.123047 -0.003,-0.09987 -0.006,-0.267941 -0.006,-0.515625 h -0.084 c -0.0174,-0.07563 -0.0177,-0.128227 -0.0508,-0.224609 -0.0763,-0.222298 -0.12823,-0.597914 -0.77344,-0.988281 -0.32261,-0.195184 -0.84114,-0.290939 -1.23633,-0.201172 z m 1.34375,0.792968 c -6e-5,-3.4e-5 0.58991,0.566515 0.58984,0.566407 -1e-5,-2.3e-5 0.0168,0.03695 0.0254,0.05469 h -2.74415 c 0.0865,-0.098 0.49029,-0.554723 0.49024,-0.554687 -6e-5,3.9e-5 1.63873,-0.06637 1.63867,-0.06641 z"
       id="path48252"
       clip-path="url(#clipPath49353)"
       transform="translate(-407.2555,8.0820972)" />
    <path
       id="path37895-1-8"
       style="display:inline;opacity:0.336457;mix-blend-mode:color-dodge;fill:#ffcf88;fill-opacity:1;stroke:none;stroke-width:0.544673;stroke-linecap:round;stroke-linejoin:round;stroke-dasharray:none;paint-order:stroke fill markers;filter:url(#filter49587)"
       d="m 263.07593,-1.2567708 c -1.48225,0.010368 -2.96438,0.1959301 -4.41472,0.55345456 A 32.158752,66.334801 0 0 1 232.45403,54.652995 c 3.52265,1.943443 7.67444,2.575641 12.04991,2.759005 5.95426,0.249524 10.07769,-4.560606 14.52366,-1.747181 4.44598,2.81343 3.94188,12.093836 3.94188,12.093836 l 1.23662,1.209228 7.0161,-7.016109 18.38493,18.384924 6.61458,-1.195792 3.9455,3.946012 3.94601,3.945496 -1.19579,6.614583 2.47323,2.473751 6.6151,-1.195793 3.9455,3.946013 0.85731,0.857312 a 51.148251,12.849932 0 0 1 19.86597,-1.02216 51.148251,12.849932 0 0 1 2.01383,0.02222 L 306.17149,66.211462 A 45.163631,15.054543 0 0 1 276.39398,52.06969 45.163631,15.054543 0 0 1 292.65087,40.523108 l 0.93173,-0.931726 -1.20871,-1.237134 c 0,0 -8.56402,0.662195 -11.64787,-3.27887 A 22.944983,19.136162 0 0 1 267.7356,17.879012 22.944983,19.136162 0 0 1 275.69842,3.4385498 c -3.59122,-3.1471691 -8.10413,-4.726926 -12.62249,-4.6953206 z M 356.31675,123.40694 a 51.148251,12.849932 0 0 1 -19.64221,0.9989 51.148251,12.849932 0 0 1 -2.93057,-0.032 l 0.005,0.10542 4.83639,4.8364 13.86944,-1.47588 3.83594,-3.83594 z"
       clip-path="url(#clipPath44953)"
       transform="translate(-221.94289,4.0619181)" />
    <path
       id="path37897"
       style="display:inline;opacity:0.403338;fill:url(#linearGradient38665);fill-opacity:1;stroke-width:6.46499;stroke-linecap:round;stroke-linejoin:round;paint-order:fill markers stroke;filter:url(#filter25471)"
       d="m 66.244019,60.947184 v 5.726782 h 23.015132 l 2.782259,-4.539774 h 5.651852 5.651858 l 2.78226,4.539774 h 3.62251 l 2.78277,-4.539774 h 5.65186 5.65185 l 2.78226,4.539774 h 5.01623 l 1.38854,-1.78387 h 5.65237 5.65186 l 1.38854,1.78387 h 6.41873 c 1.54166,-1.908852 3.08337,-3.81793 4.62504,-5.726782 z"
       sodipodi:nodetypes="cccccccccccccccccccc"
       transform="matrix(0.77028424,0.77028424,-0.77028424,0.77028424,51.240706,-36.334486)" />
    <path
       id="path37899"
       style="display:inline;opacity:0.199645;fill:url(#radialGradient38667);fill-opacity:1;stroke:url(#linearGradient38669);stroke-width:0.165;stroke-linecap:round;stroke-linejoin:round;stroke-dasharray:none;paint-order:fill markers stroke"
       d="M 42.278387,1.51092 C 38.549437,-1.9336864 32.829964,-3.2567397 27.886278,-1.846457 25.779024,-1.2649352 23.925107,-0.18359141 22.182203,1.171339 21.161896,2.1262945 19.628446,1.583385 18.727035,0.74442684 16.97607,-0.82354285 14.705338,-1.7803063 12.454376,-2.0683123 7.982158,-2.6962153 3.1141153,-0.90505162 0.43202815,2.7621668 -2.5832449,6.6289944 -3.1200273,12.37624 -0.65494219,16.708528 c 0.58173251,1.132233 1.45583316,2.081098 2.15971699,3.122651 0.60435,1.407482 -0.54855651,2.680809 -1.33986769,3.723074 -3.35799071,4.89828 -3.43295111,11.786156 -0.16730924,16.751759 0.95816434,1.491932 2.18046843,2.808679 3.53630963,3.802568 2.459475,1.820359 5.4968932,2.514584 8.4272735,2.880905 2.454939,0.273941 5.041984,0.400843 7.357376,-0.616923 2.650865,-0.95542 5.558599,-2.162407 8.388605,-1.210226 2.92595,0.958696 4.808026,3.793446 5.480586,6.685426 0.377301,1.360711 0.589817,2.764528 0.681319,4.172531 7.375134,-7.357174 14.7432,-14.721421 22.104125,-22.092811 -3.381066,-0.160635 -7.056889,-1.000876 -9.376549,-3.652063 -2.13547,-2.564359 -2.218351,-6.287663 -1.060051,-9.298088 0.96966,-3.046532 2.147623,-6.198186 1.667437,-9.450873 C 46.897514,8.1978782 45.485362,4.930907 43.2816,2.5127927 42.964908,2.161 42.625476,1.832655 42.278521,1.5110543 Z M 15.239839,1.9721961 C 18.923799,5.4760623 18.826066,12.06674 15.02163,15.448657 11.673919,18.646963 5.8721229,18.850287 2.429541,15.688238 -0.90365484,12.817089 -1.8608519,7.4790612 0.54849218,3.7352242 2.7262389,0.11888992 7.5036164,-1.7786241 11.522004,-0.31209025 c 1.395622,0.45886563 2.67386,1.25200736 3.717835,2.28428635 z"
       transform="matrix(1.0893464,0,0,1.0893464,6.3838407,7.811452)" />
    <path
       id="path37901"
       style="display:inline;opacity:0.0906308;fill:url(#linearGradient38671);fill-opacity:1;stroke:none;stroke-width:0.165;stroke-linecap:round;stroke-linejoin:round;stroke-dasharray:none;paint-order:fill markers stroke;filter:url(#filter29523)"
       d="m 30.595703,29.474609 c -3.310084,0.127146 -6.676574,1.595797 -9.21875,3.916016 -1.260548,1.130286 -2.563301,2.797474 -3.33621,4.506499 -0.862803,1.808282 -1.192557,3.661662 -1.470431,5.628267 -0.46674,1.54313 -2.217805,2.105927 -3.677388,2.103913 -3.5828879,0.366562 -6.9643269,2.743344 -8.8382365,5.907805 2.975609,-3.823688 8.9707415,-4.880269 13.0012375,-2.124313 3.189043,2.026204 5.169569,5.926022 4.555618,9.705541 -0.627287,4.705593 -4.978653,8.703901 -9.788103,8.579876 -3.0065882,0.02053 -5.9843395,-1.473072 -7.8488306,-3.776338 1.9076081,3.318666 5.4107183,5.666095 9.2345956,6.043596 1.050896,0.12698 2.289956,0.211343 2.883605,1.238291 0.923454,1.451427 0.637236,3.285635 1.298603,4.840718 1.824612,5.505125 7.125439,9.705126 12.948878,10.010045 3.135272,0.280661 6.232525,-0.818297 8.785904,-2.588545 2.431959,-1.714888 4.978081,-3.606206 6.287867,-6.362464 1.232647,-2.697022 2.458037,-5.74018 5.167416,-7.280005 3.000134,-1.728625 6.81225,-1.010834 9.608695,0.787304 0.865158,0.497455 1.677412,1.080815 2.462171,1.695826 0.01072,-9.654946 0.01336,-19.309894 0.0078,-28.964844 -2.610877,2.17986 -6.021168,3.926015 -9.511696,3.302593 -3.321306,-0.648323 -5.857,-3.353617 -7.156128,-6.36703 -1.4228,-2.809724 -2.900819,-5.78331 -5.562926,-7.630132 -2.774005,-2.152359 -6.314361,-3.350805 -9.833703,-3.172619 z"
       transform="matrix(0.77028424,0.77028424,-0.77028424,0.77028424,51.240706,-36.334486)" />
    <path
       id="path37903"
       style="display:inline;opacity:0.8;mix-blend-mode:overlay;fill:url(#linearGradient38673);fill-opacity:1;stroke-width:6.1789;stroke-linecap:round;stroke-linejoin:round;paint-order:fill markers stroke"
       d="m 49.04045,43.798647 67.52705,67.527053 -2.36984,2.36984 -2.95536,0.54018 -66.319461,-66.319462 z"
       sodipodi:nodetypes="cccccc"
       transform="matrix(1.0893464,0,0,1.0893464,6.3838407,7.811452)" />
    <path
       id="path37905"
       style="display:inline;opacity:0.43835;mix-blend-mode:normal;fill:url(#linearGradient38675);fill-opacity:1;stroke-width:6.1789;stroke-linecap:round;stroke-linejoin:round;paint-order:fill markers stroke"
       d="m 49.04045,43.798647 67.52705,67.527053 -2.36984,2.36984 -2.95536,0.54018 -66.319461,-66.319462 z"
       sodipodi:nodetypes="cccccc"
       transform="matrix(1.0893464,0,0,1.0893464,6.3838407,7.811452)" />
    <path
       id="path37907"
       style="display:inline;opacity:0.43835;mix-blend-mode:normal;fill:url(#linearGradient38677);fill-opacity:1;stroke-width:6.1789;stroke-linecap:round;stroke-linejoin:round;paint-order:fill markers stroke"
       d="m 49.040448,43.798646 67.527052,67.527054 -2.36984,2.36984 -2.95536,0.54018 -66.319463,-66.319464 z"
       sodipodi:nodetypes="cccccc"
       transform="matrix(1.0893464,0,0,1.0893464,6.3838407,7.811452)" />
    <rect
       style="display:inline;opacity:0.43835;fill:url(#linearGradient38679);fill-opacity:1;stroke:none;stroke-width:0.409995;stroke-linecap:round;stroke-linejoin:round;stroke-dasharray:none;stroke-opacity:1;paint-order:stroke markers fill"
       id="rect37927"
       width="15.032641"
       height="6.254118"
       x="65.647156"
       y="-9.9606323"
       transform="matrix(0.77028424,0.77028424,-0.77028424,0.77028424,6.3838407,7.811452)" />
    <rect
       style="display:inline;opacity:0.43835;fill:url(#linearGradient38681);fill-opacity:1;stroke:none;stroke-width:0.45916;stroke-linecap:round;stroke-linejoin:round;stroke-dasharray:none;stroke-opacity:1;paint-order:stroke markers fill"
       id="rect37929"
       width="15.032641"
       height="7.8439631"
       x="65.647156"
       y="2.1166687"
       transform="matrix(0.77028424,0.77028424,-0.77028424,0.77028424,6.3838407,7.811452)" />
    <path
       id="path37931"
       style="display:inline;mix-blend-mode:soft-light;fill:#ffffff;stroke-width:0.0388968;stroke-linecap:round;stroke-linejoin:round;paint-order:stroke markers fill"
       d="M 44.922837,47.916256 111.2423,114.23572 110.59009,113.67706 44.876062,47.963031 Z"
       sodipodi:nodetypes="ccccc"
       transform="matrix(1.0893464,0,0,1.0893464,6.3838407,7.811452)" />
    <g
       id="g5255"
       transform="matrix(0.77028424,0.77028424,-0.77028424,0.77028424,42.936425,-34.760442)"
       inkscape:label="font-reference"
       style="display:none">
      <text
         xml:space="preserve"
         style="font-style:normal;font-weight:normal;font-size:18.1108px;line-height:1.25;font-family:sans-serif;fill:#decd87;fill-opacity:1;stroke:none;stroke-width:0.855633;stroke-linecap:round;stroke-dasharray:none;stroke-opacity:1;paint-order:stroke markers fill"
         x="-67.837677"
         y="41.618046"
         id="text5241"
         transform="rotate(-90)"><tspan
           sodipodi:role="line"
           id="tspan5239"
           style="fill:#decd87;stroke:none;stroke-width:0.855633;stroke-linecap:round;stroke-dasharray:none;stroke-opacity:1;paint-order:stroke markers fill"
           x="-67.837677"
           y="41.618046">SSH</tspan></text>
      <text
         xml:space="preserve"
         style="font-style:normal;font-weight:normal;font-size:18.1108px;line-height:1.25;font-family:sans-serif;fill:#6c6753;fill-opacity:1;stroke:none;stroke-width:0.855633;stroke-linecap:round;stroke-dasharray:none;stroke-opacity:1;paint-order:stroke markers fill"
         x="-67.338051"
         y="41.654987"
         id="text5245"
         transform="rotate(-90)"><tspan
           sodipodi:role="line"
           id="tspan5243"
           style="fill:#6c6753;stroke:none;stroke-width:0.855633;stroke-linecap:round;stroke-dasharray:none;stroke-opacity:1;paint-order:stroke markers fill"
           x="-67.338051"
           y="41.654987">SSH</tspan></text>
      <text
         xml:space="preserve"
         style="font-style:normal;font-weight:normal;font-size:18.1108px;line-height:1.25;font-family:sans-serif;opacity:1;fill:#d3bc5f;fill-opacity:1;stroke:none;stroke-width:0.855633;stroke-linecap:round;stroke-dasharray:none;stroke-opacity:1;paint-order:stroke markers fill"
         x="-67.498093"
         y="41.618046"
         id="text5249"
         transform="rotate(-90)"><tspan
           sodipodi:role="line"
           id="tspan5247"
           style="fill:#d3bc5f;stroke:none;stroke-width:0.855633;stroke-linecap:round;stroke-dasharray:none;stroke-opacity:1;paint-order:stroke markers fill"
           x="-67.498093"
           y="41.618046">SSH</tspan></text>
      <text
         xml:space="preserve"
         style="font-style:normal;font-weight:normal;font-size:18.1108px;line-height:1.25;font-family:sans-serif;opacity:0.144968;fill:#484537;fill-opacity:1;stroke:none;stroke-width:0.855633;stroke-linecap:round;stroke-dasharray:none;stroke-opacity:1;paint-order:stroke markers fill"
         x="-67.498093"
         y="41.618046"
         id="text5253"
         transform="rotate(-90)"><tspan
           sodipodi:role="line"
           id="tspan5251"
           style="fill:#484537;stroke:none;stroke-width:0.855633;stroke-linecap:round;stroke-dasharray:none;stroke-opacity:1;paint-order:stroke markers fill"
           x="-67.498093"
           y="41.618046">SSH</tspan></text>
    </g>
    <g
       aria-label="PUB"
       transform="matrix(0.77028424,-0.77028424,0.77028424,0.77028424,42.936425,-34.760442)"
       id="text3349"
       style="font-size:18.1108px;line-height:1.25;display:inline;opacity:1;fill:#ffffff;stroke-width:0.855633;stroke-linecap:round;paint-order:stroke markers fill"
       inkscape:label="light">
      <path
         id="path12273"
         d="M -33.866304 29.932258 C -34.008679 29.795165 -34.170784 29.675339 -34.353024 29.572333 C -35.174045 29.089379 -36.393407 28.847789 -38.011304 28.847789 L -41.705812 28.847789 L -41.705812 41.778901 L -37.160299 41.778566 C -35.771806 41.778566 -34.678944 41.458794 -33.882069 40.818879 C -33.073122 40.178965 -32.668792 39.273336 -32.668792 38.102172 C -32.668792 37.426036 -32.795292 36.876753 -33.048843 36.454168 C -33.302393 36.031583 -33.6527 35.705436 -34.099433 35.476032 C -34.534092 35.246629 -35.022977 35.08993 -35.566301 35.005413 L -35.566301 34.914845 C -34.769426 34.769959 -34.160081 34.449852 -33.737496 33.954823 C -33.314911 33.447722 -33.103184 32.813882 -33.103184 32.053229 C -33.103184 31.128824 -33.357823 30.421874 -33.866304 29.932258 z M -35.215433 30.978152 C -34.930188 31.281507 -34.787751 31.700097 -34.787751 32.234365 C -34.787751 32.934649 -34.992767 33.465812 -35.403278 33.828028 C -35.813789 34.17817 -36.5748 34.353323 -37.685594 34.353323 L -40.075922 34.353323 L -40.075922 30.242202 L -37.939185 30.242202 C -36.840465 30.242202 -36.043215 30.399236 -35.548187 30.713156 C -35.421412 30.788618 -35.310515 30.877033 -35.215433 30.978152 z M -35.027924 36.423978 C -34.614064 36.824396 -34.407364 37.341834 -34.407364 37.975712 C -34.407364 38.700143 -34.630836 39.28533 -35.077568 39.732062 C -35.524301 40.178795 -36.320879 40.402266 -37.467896 40.402266 L -40.076257 40.402266 L -40.075922 35.711845 L -37.594691 35.711509 C -36.399379 35.711509 -35.572602 35.922901 -35.113796 36.345486 C -35.084366 36.371143 -35.055514 36.397284 -35.027924 36.423978 z M -45.110837 28.847453 L -46.722614 28.847789 L -46.722614 37.21494 C -46.722614 38.192922 -46.988363 38.99554 -47.519613 39.62338 C -48.038789 40.239147 -48.883685 40.547175 -50.054849 40.547175 C -51.189792 40.547175 -52.041064 40.257602 -52.608535 39.678057 C -53.163932 39.098512 -53.441761 38.283144 -53.441761 37.232718 L -53.441761 28.847453 L -55.071652 28.847789 L -55.071652 37.178713 C -55.071652 38.615501 -54.654908 39.774466 -53.821812 40.655857 C -52.976642 41.525175 -51.751575 41.959702 -50.145753 41.959702 C -48.998737 41.959702 -48.056869 41.754685 -47.320364 41.344174 C -46.571784 40.92159 -46.016462 40.354187 -45.654246 39.64183 C -45.29203 38.917398 -45.110837 38.108069 -45.110837 37.214604 L -45.110837 28.847453 z M -58.577308 30.037585 C -58.64296 29.970554 -58.712165 29.905958 -58.784608 29.843702 C -59.557335 29.17964 -60.788777 28.847453 -62.479116 28.847453 L -65.90192 28.847453 L -65.90192 41.778566 L -64.272029 41.778901 L -64.272029 36.743986 L -62.786712 36.743986 C -61.49481 36.743986 -60.474761 36.550713 -59.726181 36.16435 C -58.965529 35.777986 -58.428325 35.277021 -58.114404 34.661255 C -57.788411 34.033415 -57.625337 33.363 -57.625337 32.650643 C -57.625337 31.55645 -57.942676 30.685553 -58.577308 30.037585 z M -59.919729 31.021759 C -59.512991 31.427176 -59.309568 31.994474 -59.309568 32.723433 C -59.309568 33.677267 -59.611556 34.35305 -60.215249 34.751487 C -60.818942 35.149925 -61.736651 35.349572 -62.968184 35.349572 L -64.272029 35.349237 L -64.272029 30.241867 L -62.624025 30.242202 C -61.477009 30.242202 -60.637817 30.447219 -60.106567 30.85773 C -60.040161 30.909044 -59.977834 30.963842 -59.919729 31.021759 z " />
    </g>
    <g
       aria-label="PUB"
       transform="rotate(-45)"
       id="text3355"
       style="font-size:19.7289px;line-height:1.25;display:inline;opacity:1;stroke-width:0.932081;stroke-linecap:round;paint-order:stroke markers fill"
       inkscape:label="dark">
      <path
         id="path11535"
         d="M 18.129331 38.306405 C 17.974235 38.157064 17.797646 38.026531 17.599124 37.914323 C 16.704748 37.388219 15.376436 37.125042 13.613989 37.125042 L 9.5890251 37.124677 L 9.5890251 51.211138 L 14.541028 51.211138 C 16.053575 51.211138 17.244085 50.862794 18.112156 50.165707 C 18.993379 49.46862 19.433836 48.482073 19.433836 47.206271 C 19.433836 46.469727 19.296033 45.871365 19.019829 45.411024 C 18.743624 44.950684 18.362018 44.595395 17.875372 44.345496 C 17.401879 44.095597 16.869312 43.924897 16.277445 43.832829 L 16.277445 43.734169 C 17.145515 43.576338 17.809306 43.227629 18.269647 42.688372 C 18.729988 42.135964 18.960633 41.44549 18.960633 40.616877 C 18.960633 39.609882 18.683242 38.839766 18.129331 38.306405 z M 16.659296 39.44538 C 16.970026 39.775839 17.125556 40.232195 17.125556 40.814197 C 17.125556 41.577047 16.902221 42.155671 16.455033 42.550248 C 16.007845 42.931673 15.178838 43.122477 13.9688 43.122477 L 11.364906 43.122477 L 11.364906 38.644042 L 13.692552 38.644042 C 14.889437 38.644042 15.757921 38.815106 16.297177 39.157074 C 16.435279 39.239277 16.555719 39.335227 16.659296 39.44538 z M 16.863924 45.378137 C 17.31476 45.814331 17.539928 46.378002 17.539928 47.068513 C 17.539928 47.857668 17.29649 48.495141 16.809844 48.981787 C 16.323198 49.468432 15.455446 49.711871 14.20595 49.711871 L 11.36454 49.711871 L 11.36454 44.602012 L 14.067826 44.602012 C 15.369932 44.602012 16.270581 44.832292 16.77038 45.292632 C 16.802439 45.320581 16.833868 45.349058 16.863924 45.378137 z M 5.8801384 37.124677 L 4.1243551 37.125042 L 4.1243551 46.239768 C 4.1243551 47.305128 3.8348606 48.17946 3.2561467 48.863395 C 2.6905854 49.534177 1.7701974 49.869727 0.49439642 49.869727 C -0.74194677 49.869727 -1.6696451 49.553915 -2.2878167 48.922591 C -2.8928357 48.291267 -3.1951237 47.403411 -3.1951237 46.259135 L -3.1951237 37.124677 L -4.970639 37.125042 L -4.970639 46.200304 C -4.970639 47.765462 -4.5173897 49.027981 -3.6098613 49.988119 C -2.6891801 50.935106 -1.3539232 51.408458 0.39537098 51.408458 C 1.6448668 51.408458 2.670891 51.185123 3.4731988 50.737936 C 4.2886592 50.277595 4.8936005 49.659495 5.2881782 48.883492 C 5.6827558 48.094337 5.8801384 47.212695 5.8801384 46.239403 L 5.8801384 37.124677 z M -8.7895134 38.421143 C -8.8610306 38.348123 -8.9364197 38.277755 -9.0153352 38.209937 C -9.8571011 37.486545 -11.198572 37.124677 -13.039934 37.124677 L -16.768553 37.124677 L -16.768553 51.211138 L -14.993037 51.211504 L -14.993037 45.726736 L -13.375013 45.726736 C -11.967686 45.726736 -10.856495 45.516195 -10.041034 45.095312 C -9.2124211 44.674429 -8.6272183 44.128703 -8.2852509 43.457921 C -7.9301311 42.773986 -7.7524867 42.04367 -7.7524867 41.267668 C -7.7524867 40.075715 -8.0981805 39.127002 -8.7895134 38.421143 z M -10.251874 39.493249 C -9.8087964 39.934888 -9.5871981 40.552874 -9.5871981 41.346961 C -9.5871981 42.386016 -9.9161691 43.12218 -10.573798 43.556215 C -11.231428 43.990251 -12.231134 44.207737 -13.572698 44.207737 L -14.993037 44.207372 L -14.993037 38.643676 L -13.19779 38.644042 C -11.948294 38.644042 -11.03412 38.867376 -10.455406 39.314564 C -10.383067 39.370463 -10.315171 39.430157 -10.251874 39.493249 z " />
    </g>
    <g
       aria-label="PUB"
       transform="matrix(0.77028424,-0.77028424,0.77028424,0.77028424,42.936425,-34.760442)"
       id="text3187"
       style="font-size:18.1108px;line-height:1.25;display:inline;opacity:1;fill:#b4a056;stroke-width:0.855633;stroke-linecap:round;paint-order:stroke markers fill">
      <path
         id="path10797"
         d="M -33.827058 29.893012 C -33.969433 29.755919 -34.131538 29.636092 -34.313777 29.533087 C -35.134799 29.050133 -36.354162 28.808542 -37.972058 28.808542 L -41.666901 28.808207 L -41.666901 41.73932 L -37.121053 41.73932 C -35.73256 41.73932 -34.639698 41.419548 -33.842823 40.779633 C -33.033875 40.139719 -32.629546 39.23409 -32.629546 38.062926 C -32.629546 37.38679 -32.756046 36.837506 -33.009597 36.414921 C -33.263148 35.992337 -33.613454 35.666189 -34.060187 35.436786 C -34.494845 35.207383 -34.983731 35.050685 -35.527055 34.966167 L -35.527055 34.875599 C -34.730181 34.730713 -34.120835 34.410605 -33.69825 33.915577 C -33.275665 33.408475 -33.063938 32.774635 -33.063938 32.013982 C -33.063938 31.089578 -33.318576 30.382628 -33.827058 29.893012 z M -35.176522 30.93857 C -34.891278 31.241926 -34.748504 31.660851 -34.748504 32.195119 C -34.748504 32.895402 -34.953521 33.426566 -35.364032 33.788782 C -35.774543 34.138924 -36.535553 34.314077 -37.646348 34.314077 L -40.036675 34.314077 L -40.036675 30.202956 L -37.899939 30.202956 C -36.801218 30.202956 -36.003968 30.35999 -35.508941 30.67391 C -35.382165 30.749372 -35.271604 30.837452 -35.176522 30.93857 z M -34.988678 36.384732 C -34.574818 36.78515 -34.368118 37.302588 -34.368118 37.936466 C -34.368118 38.660897 -34.591589 39.246084 -35.038322 39.692816 C -35.485054 40.139549 -36.281633 40.36302 -37.428649 40.36302 L -40.037011 40.36302 L -40.036675 35.672598 L -37.555445 35.672263 C -36.360133 35.672263 -35.533356 35.883655 -35.07455 36.30624 C -35.045119 36.331897 -35.016268 36.358038 -34.988678 36.384732 z M -45.071591 28.808207 L -46.683368 28.808542 L -46.683368 37.175694 C -46.683368 38.153676 -46.949118 38.956294 -47.480367 39.584134 C -47.999543 40.199901 -48.84444 40.507929 -50.015603 40.507929 C -51.150545 40.507929 -52.002152 40.21802 -52.569624 39.638475 C -53.125021 39.05893 -53.402515 38.243897 -53.402515 37.193472 L -53.402515 28.808207 L -55.032405 28.808542 L -55.032405 37.139466 C -55.032405 38.576256 -54.615997 39.735555 -53.782901 40.616946 C -52.937731 41.486264 -51.71233 41.920456 -50.106507 41.920456 C -48.959491 41.920456 -48.017622 41.71544 -47.281117 41.304928 C -46.532538 40.882343 -45.977215 40.314941 -45.615 39.602583 C -45.252784 38.878152 -45.071591 38.068823 -45.071591 37.175358 L -45.071591 28.808207 z M -58.538062 29.998339 C -58.603713 29.931308 -58.672919 29.866712 -58.745362 29.804456 C -59.518089 29.140394 -60.74953 28.808207 -62.43987 28.808207 L -65.862673 28.808207 L -65.862673 41.73932 L -64.232783 41.739655 L -64.232783 36.704739 L -62.747466 36.704739 C -61.455564 36.704739 -60.435514 36.511467 -59.686935 36.125104 C -58.926283 35.73874 -58.389079 35.237775 -58.075158 34.622008 C -57.749164 33.994168 -57.58609 33.323754 -57.58609 32.611397 C -57.58609 31.517203 -57.90343 30.646306 -58.538062 29.998339 z M -59.880482 30.982512 C -59.473745 31.38793 -59.270322 31.955227 -59.270322 32.684186 C -59.270322 33.638021 -59.57231 34.313804 -60.176003 34.712241 C -60.779696 35.110679 -61.697405 35.310326 -62.928938 35.310326 L -64.232783 35.309991 L -64.232783 30.20262 L -62.584779 30.202956 C -61.437763 30.202956 -60.598571 30.407973 -60.067321 30.818484 C -60.000915 30.869797 -59.938588 30.924596 -59.880482 30.982512 z " />
    </g>
  </g>
  <metadata
     id="metadata1">
    <rdf:RDF>
      <cc:Work
         rdf:about="">
        <dc:creator>
          <cc:Agent>
            <dc:title>Jess Tipton</dc:title>
          </cc:Agent>
        </dc:creator>
        <dc:publisher>
          <cc:Agent>
            <dc:title>m0dw3rks.com</dc:title>
          </cc:Agent>
        </dc:publisher>
        <cc:license
           rdf:resource="https://creativecommons.org/licenses/by-nc-nd/4.0/deed.en" />
      </cc:Work>
    </rdf:RDF>
  </metadata>
  <metadata
     id="metadata6">
    <rdf:RDF>
      <cc:Work
         rdf:about="">
        <dc:creator>
          <cc:Agent>
            <dc:title>Jess Tipton</dc:title>
          </cc:Agent>
        </dc:creator>
        <cc:license
           rdf:resource="https://creativecommons.org/licenses/by-nc-nd/4.0/deed.en" />
        <dc:publisher>
          <cc:Agent>
            <dc:title>m0dw3rks.com</dc:title>
          </cc:Agent>
        </dc:publisher>
      </cc:Work>
    </rdf:RDF>
  </metadata>
  <metadata
     id="metadata6">
    <rdf:RDF>
      <cc:Work
         rdf:about="">
        <dc:creator>
          <cc:Agent>
            <dc:title>Jess Tipton</dc:title>
          </cc:Agent>
        </dc:creator>
        <cc:license
           rdf:resource="https://creativecommons.org/licenses/by-nc-nd/4.0/deed.en" />
        <dc:publisher>
          <cc:Agent>
            <dc:title>m0dw3rks.com</dc:title>
          </cc:Agent>
        </dc:publisher>
      </cc:Work>
    </rdf:RDF>
  </metadata>
  <metadata
     id="metadata6">
    <rdf:RDF>
      <cc:Work
         rdf:about="">
        <dc:creator>
          <cc:Agent>
            <dc:title>Jess Tipton</dc:title>
          </cc:Agent>
        </dc:creator>
        <cc:license
           rdf:resource="https://creativecommons.org/licenses/by-nc-nd/4.0/deed.en" />
        <dc:publisher>
          <cc:Agent>
            <dc:title>m0dw3rks.com</dc:title>
          </cc:Agent>
        </dc:publisher>
      </cc:Work>
    </rdf:RDF>
  </metadata>
  <metadata
     id="metadata6">
    <rdf:RDF>
      <cc:Work
         rdf:about="">
        <dc:creator>
          <cc:Agent>
            <dc:title>Jess Tipton</dc:title>
          </cc:Agent>
        </dc:creator>
        <cc:license
           rdf:resource="https://creativecommons.org/licenses/by-nc-nd/4.0/deed.en" />
        <dc:publisher>
          <cc:Agent>
            <dc:title>m0dw3rks.com</dc:title>
          </cc:Agent>
        </dc:publisher>
      </cc:Work>
    </rdf:RDF>
  </metadata>
  <metadata
     id="metadata6">
    <rdf:RDF>
      <cc:Work
         rdf:about="">
        <dc:creator>
          <cc:Agent>
            <dc:title>Jess Tipton</dc:title>
          </cc:Agent>
        </dc:creator>
        <cc:license
           rdf:resource="https://creativecommons.org/licenses/by-nc-nd/4.0/deed.en" />
        <dc:publisher>
          <cc:Agent>
            <dc:title>m0dw3rks.com</dc:title>
          </cc:Agent>
        </dc:publisher>
      </cc:Work>
    </rdf:RDF>
  </metadata>
  <metadata
     id="metadata6">
    <rdf:RDF>
      <cc:Work
         rdf:about="">
        <dc:creator>
          <cc:Agent>
            <dc:title>Jess Tipton</dc:title>
          </cc:Agent>
        </dc:creator>
        <cc:license
           rdf:resource="https://creativecommons.org/licenses/by-nc-nd/4.0/deed.en" />
        <dc:publisher>
          <cc:Agent>
            <dc:title>m0dw3rks.com</dc:title>
          </cc:Agent>
        </dc:publisher>
      </cc:Work>
    </rdf:RDF>
  </metadata>
  <metadata
     id="metadata6">
    <rdf:RDF>
      <cc:Work
         rdf:about="">
        <dc:creator>
          <cc:Agent>
            <dc:title>Jess Tipton</dc:title>
          </cc:Agent>
        </dc:creator>
        <cc:license
           rdf:resource="https://creativecommons.org/licenses/by-nc-nd/4.0/deed.en" />
        <dc:publisher>
          <cc:Agent>
            <dc:title>m0dw3rks.com</dc:title>
          </cc:Agent>
        </dc:publisher>
      </cc:Work>
    </rdf:RDF>
  </metadata>
  <metadata
     id="metadata6">
    <rdf:RDF>
      <cc:Work
         rdf:about="">
        <dc:creator>
          <cc:Agent>
            <dc:title>Jess Tipton</dc:title>
          </cc:Agent>
        </dc:creator>
        <cc:license
           rdf:resource="https://creativecommons.org/licenses/by-nc-nd/4.0/deed.en" />
        <dc:publisher>
          <cc:Agent>
            <dc:title>m0dw3rks.com</dc:title>
          </cc:Agent>
        </dc:publisher>
      </cc:Work>
    </rdf:RDF>
  </metadata>
  <metadata
     id="metadata6">
    <rdf:RDF>
      <cc:Work
         rdf:about="">
        <dc:creator>
          <cc:Agent>
            <dc:title>Jess Tipton</dc:title>
          </cc:Agent>
        </dc:creator>
        <cc:license
           rdf:resource="https://creativecommons.org/licenses/by-nc-nd/4.0/deed.en" />
        <dc:publisher>
          <cc:Agent>
            <dc:title>m0dw3rks.com</dc:title>
          </cc:Agent>
        </dc:publisher>
      </cc:Work>
    </rdf:RDF>
  </metadata>
  <metadata
     id="metadata6">
    <rdf:RDF>
      <cc:Work
         rdf:about="">
        <dc:creator>
          <cc:Agent>
            <dc:title>Jess Tipton</dc:title>
          </cc:Agent>
        </dc:creator>
        <cc:license
           rdf:resource="https://creativecommons.org/licenses/by-nc-nd/4.0/deed.en" />
        <dc:publisher>
          <cc:Agent>
            <dc:title>m0dw3rks.com</dc:title>
          </cc:Agent>
        </dc:publisher>
      </cc:Work>
    </rdf:RDF>
  </metadata>
  <metadata
     id="metadata6">
    <rdf:RDF>
      <cc:Work
         rdf:about="">
        <dc:creator>
          <cc:Agent>
            <dc:title>Jess Tipton</dc:title>
          </cc:Agent>
        </dc:creator>
        <cc:license
           rdf:resource="https://creativecommons.org/licenses/by-nc-nd/4.0/deed.en" />
        <dc:publisher>
          <cc:Agent>
            <dc:title>m0dw3rks.com</dc:title>
          </cc:Agent>
        </dc:publisher>
      </cc:Work>
    </rdf:RDF>
  </metadata>
  <metadata
     id="metadata6">
    <rdf:RDF>
      <cc:Work
         rdf:about="">
        <dc:creator>
          <cc:Agent>
            <dc:title>Jess Tipton</dc:title>
          </cc:Agent>
        </dc:creator>
        <cc:license
           rdf:resource="https://creativecommons.org/licenses/by-nc-nd/4.0/deed.en" />
        <dc:publisher>
          <cc:Agent>
            <dc:title>m0dw3rks.com</dc:title>
          </cc:Agent>
        </dc:publisher>
      </cc:Work>
    </rdf:RDF>
  </metadata>
  <metadata
     id="metadata6">
    <rdf:RDF>
      <cc:Work
         rdf:about="">
        <dc:creator>
          <cc:Agent>
            <dc:title>Jess Tipton</dc:title>
          </cc:Agent>
        </dc:creator>
        <cc:license
           rdf:resource="https://creativecommons.org/licenses/by-nc-nd/4.0/deed.en" />
        <dc:publisher>
          <cc:Agent>
            <dc:title>m0dw3rks.com</dc:title>
          </cc:Agent>
        </dc:publisher>
      </cc:Work>
    </rdf:RDF>
  </metadata>
  <metadata
     id="metadata6">
    <rdf:RDF>
      <cc:Work
         rdf:about="">
        <dc:creator>
          <cc:Agent>
            <dc:title>Jess Tipton</dc:title>
          </cc:Agent>
        </dc:creator>
        <cc:license
           rdf:resource="https://creativecommons.org/licenses/by-nc-nd/4.0/deed.en" />
        <dc:publisher>
          <cc:Agent>
            <dc:title>m0dw3rks.com</dc:title>
          </cc:Agent>
        </dc:publisher>
      </cc:Work>
    </rdf:RDF>
  </metadata>
  <metadata
     id="metadata6">
    <rdf:RDF>
      <cc:Work
         rdf:about="">
        <dc:creator>
          <cc:Agent>
            <dc:title>Jess Tipton</dc:title>
          </cc:Agent>
        </dc:creator>
        <cc:license
           rdf:resource="https://creativecommons.org/licenses/by-nc-nd/4.0/deed.en" />
        <dc:publisher>
          <cc:Agent>
            <dc:title>m0dw3rks.com</dc:title>
          </cc:Agent>
        </dc:publisher>
      </cc:Work>
    </rdf:RDF>
  </metadata>
  <metadata
     id="metadata6">
    <rdf:RDF>
      <cc:Work
         rdf:about="">
        <dc:creator>
          <cc:Agent>
            <dc:title>Jess Tipton</dc:title>
          </cc:Agent>
        </dc:creator>
        <cc:license
           rdf:resource="https://creativecommons.org/licenses/by-nc-nd/4.0/deed.en" />
        <dc:publisher>
          <cc:Agent>
            <dc:title>m0dw3rks.com</dc:title>
          </cc:Agent>
        </dc:publisher>
      </cc:Work>
    </rdf:RDF>
  </metadata>
  <metadata
     id="metadata6">
    <rdf:RDF>
      <cc:Work
         rdf:about="">
        <dc:creator>
          <cc:Agent>
            <dc:title>Jess Tipton</dc:title>
          </cc:Agent>
        </dc:creator>
        <cc:license
           rdf:resource="https://creativecommons.org/licenses/by-nc-nd/4.0/deed.en" />
        <dc:publisher>
          <cc:Agent>
            <dc:title>m0dw3rks.com</dc:title>
          </cc:Agent>
        </dc:publisher>
      </cc:Work>
    </rdf:RDF>
  </metadata>
</svg>
