<?xml version="1.0" encoding="UTF-8" standalone="no"?>
<!-- Created with Inkscape (http://www.inkscape.org/) -->

<svg
   width="512"
   height="512"
   viewBox="0 0 135.46666 135.46667"
   version="1.1"
   id="svg5"
   inkscape:version="1.3.2 (091e20ef0f, 2023-11-25, custom)"
   sodipodi:docname="application-x-x509-user-cert.svg"
   xmlns:inkscape="http://www.inkscape.org/namespaces/inkscape"
   xmlns:sodipodi="http://sodipodi.sourceforge.net/DTD/sodipodi-0.dtd"
   xmlns:xlink="http://www.w3.org/1999/xlink"
   xmlns="http://www.w3.org/2000/svg"
   xmlns:svg="http://www.w3.org/2000/svg"
   xmlns:rdf="http://www.w3.org/1999/02/22-rdf-syntax-ns#"
   xmlns:cc="http://creativecommons.org/ns#"
   xmlns:dc="http://purl.org/dc/elements/1.1/">&gt;
  <sodipodi:namedview
   id="namedview7"
   pagecolor="#505050"
   bordercolor="#ffffff"
   borderopacity="1"
   inkscape:showpageshadow="0"
   inkscape:pageopacity="0"
   inkscape:pagecheckerboard="1"
   inkscape:deskcolor="#505050"
   inkscape:document-units="mm"
   showgrid="false"
   inkscape:zoom="2.8284272"
   inkscape:cx="326.8601"
   inkscape:cy="317.49094"
   inkscape:window-width="3256"
   inkscape:window-height="1080"
   inkscape:window-x="1864"
   inkscape:window-y="0"
   inkscape:window-maximized="0"
   inkscape:current-layer="g37935"
   showguides="false" />
<defs
   id="defs2">
  <linearGradient
     id="linearGradient28"
     inkscape:collect="always">
    <stop
       style="stop-color:#8f4300;stop-opacity:1;"
       offset="0"
       id="stop28" />
    <stop
       style="stop-color:#ad9800;stop-opacity:1;"
       offset="1"
       id="stop29" />
  </linearGradient>
  <linearGradient
     inkscape:collect="always"
     id="linearGradient27">
    <stop
       style="stop-color:#ffffff;stop-opacity:1;"
       offset="0"
       id="stop27" />
    <stop
       style="stop-color:#000000;stop-opacity:1;"
       offset="1"
       id="stop26" />
  </linearGradient>
  <linearGradient
     inkscape:collect="always"
     id="linearGradient23">
    <stop
       style="stop-color:#786e46;stop-opacity:1;"
       offset="0"
       id="stop23" />
    <stop
       style="stop-color:#886f0d;stop-opacity:1;"
       offset="1"
       id="stop22" />
  </linearGradient>
  <linearGradient
     inkscape:collect="always"
     id="linearGradient17034">
    <stop
       style="stop-color:#484537;stop-opacity:1;"
       offset="0"
       id="stop17030" />
    <stop
       style="stop-color:#484537;stop-opacity:0;"
       offset="1"
       id="stop17032" />
  </linearGradient>
  <linearGradient
     inkscape:collect="always"
     id="linearGradient17028">
    <stop
       style="stop-color:#484537;stop-opacity:1;"
       offset="0"
       id="stop17024" />
    <stop
       style="stop-color:#484537;stop-opacity:0;"
       offset="1"
       id="stop17026" />
  </linearGradient>
  <linearGradient
     inkscape:collect="always"
     id="linearGradient2866">
    <stop
       style="stop-color:#000000;stop-opacity:1;"
       offset="0"
       id="stop2860" />
    <stop
       style="stop-color:#290909;stop-opacity:0.49803957;"
       offset="0.07834584"
       id="stop2862" />
    <stop
       style="stop-color:#ccb458;stop-opacity:0;"
       offset="1"
       id="stop2864" />
  </linearGradient>
  <linearGradient
     inkscape:collect="always"
     id="linearGradient2858">
    <stop
       style="stop-color:#000000;stop-opacity:1;"
       offset="0"
       id="stop2852" />
    <stop
       style="stop-color:#614f05;stop-opacity:1;"
       offset="0.07834584"
       id="stop2854" />
    <stop
       style="stop-color:#ceab1d;stop-opacity:1;"
       offset="1"
       id="stop2856" />
  </linearGradient>
  <linearGradient
     inkscape:collect="always"
     id="linearGradient2850">
    <stop
       style="stop-color:#000000;stop-opacity:1;"
       offset="0"
       id="stop2844" />
    <stop
       style="stop-color:#292309;stop-opacity:1;"
       offset="0.07834584"
       id="stop2846" />
    <stop
       style="stop-color:#ccb558;stop-opacity:0;"
       offset="1"
       id="stop2848" />
  </linearGradient>
  <linearGradient
     inkscape:collect="always"
     id="linearGradient2836">
    <stop
       style="stop-color:#b79a28;stop-opacity:0;"
       offset="0"
       id="stop2832" />
    <stop
       style="stop-color:#68560f;stop-opacity:1;"
       offset="1"
       id="stop2834" />
  </linearGradient>
  <linearGradient
     inkscape:collect="always"
     id="linearGradient2830">
    <stop
       style="stop-color:#ffff00;stop-opacity:1;"
       offset="0.01"
       id="stop2826" />
    <stop
       style="stop-color:#ffcc00;stop-opacity:0;"
       offset="1"
       id="stop2828" />
  </linearGradient>
  <linearGradient
     inkscape:collect="always"
     id="linearGradient32403">
    <stop
       style="stop-color:#1f1b0a;stop-opacity:1;"
       offset="0"
       id="stop32399" />
    <stop
       style="stop-color:#786e46;stop-opacity:1;"
       offset="1"
       id="stop32401" />
  </linearGradient>
  <linearGradient
     inkscape:collect="always"
     id="linearGradient23068">
    <stop
       style="stop-color:#000000;stop-opacity:1;"
       offset="0"
       id="stop23064" />
    <stop
       style="stop-color:#ffffff;stop-opacity:1;"
       offset="1"
       id="stop23066" />
  </linearGradient>
  <filter
     inkscape:collect="always"
     style="color-interpolation-filters:sRGB"
     id="filter25471"
     x="-0.0091865883"
     y="-0.14520066"
     width="1.0183732"
     height="1.2904013">
    <feGaussianBlur
       inkscape:collect="always"
       stdDeviation="0.34647189"
       id="feGaussianBlur25473" />
  </filter>
  <linearGradient
     inkscape:collect="always"
     xlink:href="#linearGradient2830"
     id="linearGradient38665"
     gradientUnits="userSpaceOnUse"
     gradientTransform="translate(-55.355786,52.709425)"
     x1="168.29024"
     y1="15.023905"
     x2="168.29024"
     y2="8.2377586" />
  <radialGradient
     inkscape:collect="always"
     xlink:href="#linearGradient2836"
     id="radialGradient38667"
     gradientUnits="userSpaceOnUse"
     gradientTransform="matrix(0.77028423,0.77028423,-0.72676605,0.72676605,-21.314628,-80.27613)"
     cx="108.09609"
     cy="41.720773"
     fx="108.09609"
     fy="41.720773"
     r="32.823577" />
  <linearGradient
     inkscape:collect="always"
     xlink:href="#linearGradient2850"
     id="linearGradient38673"
     gradientUnits="userSpaceOnUse"
     gradientTransform="matrix(0.76972137,0.76972137,-0.90064693,0.90064693,59.070946,-43.873476)"
     x1="107.70286"
     y1="54.909054"
     x2="107.70286"
     y2="59.889366" />
  <linearGradient
     inkscape:collect="always"
     xlink:href="#linearGradient2858"
     id="linearGradient38675"
     gradientUnits="userSpaceOnUse"
     gradientTransform="matrix(0.76972137,0.76972137,-0.90064693,0.90064693,59.070944,-43.873477)"
     x1="107.70286"
     y1="54.909054"
     x2="107.70286"
     y2="59.889366" />
  <linearGradient
     inkscape:collect="always"
     xlink:href="#linearGradient2866"
     id="linearGradient38677"
     gradientUnits="userSpaceOnUse"
     gradientTransform="matrix(0.76972137,0.76972137,-0.90064693,0.90064693,59.070942,-43.873479)"
     x1="107.70286"
     y1="54.909054"
     x2="107.70286"
     y2="59.889366" />
  <linearGradient
     inkscape:collect="always"
     xlink:href="#linearGradient17028"
     id="linearGradient38679"
     gradientUnits="userSpaceOnUse"
     gradientTransform="matrix(1.0893464,0,0,0.34199144,10.618329,-26.018866)"
     x1="65.185684"
     y1="57.7727"
     x2="80.218326"
     y2="57.7727" />
  <linearGradient
     inkscape:collect="always"
     xlink:href="#linearGradient17034"
     id="linearGradient38681"
     gradientUnits="userSpaceOnUse"
     gradientTransform="matrix(1.0893464,0,0,0.42892829,10.618332,-17.019136)"
     x1="65.185684"
     y1="57.7727"
     x2="80.218326"
     y2="57.7727" />
  <clipPath
     clipPathUnits="userSpaceOnUse"
     id="clipPath5236">
    <path
       id="path5238"
       style="display:inline;fill:#3d2b1c;fill-opacity:1;stroke:none;stroke-width:0.544674;stroke-linecap:round;stroke-linejoin:round;stroke-dasharray:none;paint-order:stroke fill markers"
       d="m -49.172392,42.832634 c -7.004256,-6.995933 -18.211432,-7.42723 -25.732692,-0.990362 -6.407574,-5.945629 -16.36893,-5.762969 -22.554216,0.413581 -6.17655,6.185286 -6.35921,16.146645 -0.413581,22.554218 -6.436869,7.52126 -6.005549,18.72841 0.990362,25.732687 4.100296,4.092133 9.645528,5.163233 15.599791,5.412759 5.954263,0.249526 10.077479,-4.560893 14.52345,-1.747462 4.445974,2.813431 3.941943,12.094115 3.941943,12.094115 l 1.23676,1.20889 7.015726,-7.01572 18.384986,18.38498 6.614488,-1.19616 3.945923,3.94593 3.945925,3.94592 -1.196162,6.61448 2.473521,2.47353 6.614881,-1.19577 3.9459273,3.94593 3.9459199,3.94592 -1.1961548,6.61449 3.2099205,3.20992 3.75525159,0.19027 3.94632081,3.94632 3.9459262,3.94593 0.1906696,3.75565 4.8363789,4.83637 13.869045,-1.47599 3.836059,-3.83606 0.318045,-7.35487 -70.041834,-70.041829 7.015329,-7.015329 -1.208497,-1.237155 c 0,0 -9.500746,0.738085 -12.094118,-3.941942 -2.593371,-4.680024 1.21072,-8.826172 1.747462,-14.52345 0.536739,-5.697276 -1.320623,-11.499498 -5.412756,-15.599791 z m -33.362617,3.149415 c 3.092191,3.092291 3.092191,8.105804 0,11.198095 -3.092294,3.092191 -8.105804,3.092191 -11.198095,0 -3.092191,-3.092291 -3.092191,-8.105801 0,-11.198095 3.092291,-3.092191 8.105804,-3.092191 11.198095,0 z"
       inkscape:label="shape" />
  </clipPath>
  <clipPath
     clipPathUnits="userSpaceOnUse"
     id="clipPath22580">
    <path
       id="path22582"
       style="display:inline;fill:#8f5321;fill-opacity:1;stroke:none;stroke-width:0.544674;stroke-linecap:round;stroke-linejoin:round;stroke-dasharray:none;paint-order:stroke fill markers"
       d="m -156.30539,2.3729171 c -7.00426,-6.9959341 -18.21143,-7.4272311 -25.73269,-0.990362 -6.40758,-5.9456299 -16.36893,-5.762969 -22.55422,0.41358 -6.17655,6.1852871 -6.35921,16.1466439 -0.41358,22.5542179 -6.43687,7.52126 -6.00554,18.728407 0.99036,25.732687 4.1003,4.092131 9.64553,5.16323 15.59979,5.412761 5.95427,0.249529 10.07748,-4.56089 14.52345,-1.747462 4.44598,2.813431 3.94195,12.09411 3.94195,12.09411 l 1.23676,1.208892 7.01572,-7.015721 18.38499,18.38498 6.61449,-1.196149 3.94592,3.945919 3.94592,3.94593 -1.19616,6.61448 2.47352,2.473521 6.61488,-1.195761 3.94593,3.945919 3.94592,3.945921 -1.19615,6.61449 3.20992,3.20992 3.75525,0.19027 3.94632,3.94632 3.94593,3.94593 0.190669,3.75565 4.83638,4.83637 13.869046,-1.47599 3.836058,-3.83605 0.318045,-7.35487 -70.041838,-70.04184 7.01533,-7.015326 -1.2085,-1.237155 c 0,0 -9.50074,0.738084 -12.09412,-3.941942 -2.59337,-4.680024 1.21072,-8.826173 1.74747,-14.523449 0.53673,-5.697278 -1.32063,-11.4994979 -5.41276,-15.5997909 z m -33.36262,3.1494141 c 3.09219,3.0922928 3.09219,8.1058028 0,11.1980948 -3.09229,3.09219 -8.1058,3.09219 -11.19809,0 -3.09219,-3.092291 -3.09219,-8.105802 0,-11.198094 3.09229,-3.0921909 8.1058,-3.0921899 11.19809,-8e-7 z" />
  </clipPath>
  <clipPath
     clipPathUnits="userSpaceOnUse"
     id="clipPath25737">
    <path
       id="path25739"
       style="display:inline;fill:#8f5321;fill-opacity:1;stroke:none;stroke-width:0.544674;stroke-linecap:round;stroke-linejoin:round;stroke-dasharray:none;paint-order:stroke fill markers"
       d="m -58.402707,14.071743 c -7.004261,-6.9959346 -18.211432,-7.4272316 -25.732692,-0.990362 -6.407579,-5.9456304 -16.368931,-5.7629695 -22.554221,0.41358 -6.17655,6.185287 -6.35921,16.146643 -0.41358,22.554219 -6.43687,7.521258 -6.00554,18.728407 0.99036,25.732687 4.1003,4.092133 9.645532,5.163233 15.599792,5.412759 5.95427,0.249526 10.077479,-4.560893 14.52345,-1.747465 4.445979,2.813434 3.94195,12.094118 3.94195,12.094118 l 1.236761,1.208892 7.015718,-7.015726 18.384991,18.384985 6.614485,-1.196157 3.945925,3.945927 3.945924,3.945919 -1.196163,6.614481 2.473521,2.47352 6.614882,-1.19576 3.945928,3.94593 3.945919,3.94592 -1.196154,6.61449 3.20992,3.20992 3.7552519,0.19027 3.94632,3.94632 3.9459271,3.94593 0.190669,3.75565 4.8363791,4.83637 13.8690459,-1.47599 3.836058,-3.83606 0.318045,-7.35487 -70.041832,-70.04183 7.015329,-7.015332 -1.2085,-1.237152 c 0,0 -9.50074,0.738082 -12.09412,-3.941942 -2.593369,-4.680027 1.21072,-8.826175 1.74747,-14.52345 0.536731,-5.697278 -1.320631,-11.499498 -5.412759,-15.599791 z m -33.362622,3.149414 c 3.092191,3.092293 3.092191,8.105803 0,11.198096 -3.092289,3.092188 -8.105799,3.092188 -11.198091,0 -3.09219,-3.092292 -3.09219,-8.105803 0,-11.198095 3.092292,-3.092191 8.105802,-3.09219 11.198091,-10e-7 z" />
  </clipPath>
  <filter
     inkscape:collect="always"
     style="color-interpolation-filters:sRGB"
     id="filter26467"
     x="-0.048060946"
     y="-0.056222947"
     width="1.0961219"
     height="1.1124459">
    <feGaussianBlur
       inkscape:collect="always"
       stdDeviation="2.8369114"
       id="feGaussianBlur26469" />
  </filter>
  <linearGradient
     inkscape:collect="always"
     xlink:href="#linearGradient23"
     id="linearGradient20"
     gradientUnits="userSpaceOnUse"
     gradientTransform="matrix(0.77028423,0.77028423,-0.77028423,0.77028423,51.212356,-36.150884)"
     x1="11.39877"
     y1="65.287506"
     x2="11.644534"
     y2="50.753696" />
  <linearGradient
     inkscape:collect="always"
     xlink:href="#linearGradient32403"
     id="linearGradient22"
     gradientUnits="userSpaceOnUse"
     gradientTransform="matrix(0.77028423,0.77028423,-0.77028423,0.77028423,51.167055,-36.157234)"
     x1="30.830463"
     y1="89.374367"
     x2="30.830463"
     y2="26.171032" />
  <linearGradient
     inkscape:collect="always"
     xlink:href="#linearGradient23068"
     id="linearGradient24"
     gradientUnits="userSpaceOnUse"
     gradientTransform="matrix(0.77028423,0.77028423,-0.77028423,0.77028423,-29.805737,-41.528047)"
     x1="35.728409"
     y1="28.746567"
     x2="35.728409"
     y2="85.805092" />
  <linearGradient
     inkscape:collect="always"
     xlink:href="#linearGradient27"
     id="linearGradient26"
     gradientUnits="userSpaceOnUse"
     gradientTransform="matrix(0.77028423,0.77028423,-0.77028423,0.77028423,-29.838857,-41.561078)"
     x1="11.652551"
     y1="44.395622"
     x2="11.674113"
     y2="71.150276" />
  <linearGradient
     inkscape:collect="always"
     xlink:href="#linearGradient28"
     id="linearGradient29"
     x1="35.921829"
     y1="89.636536"
     x2="91.631271"
     y2="33.528603"
     gradientUnits="userSpaceOnUse" />
</defs>
<g
   inkscape:label="Layer 1 copy"
   inkscape:groupmode="layer"
   id="g37935"
   style="display:inline">
  <g
     id="g5255"
     transform="matrix(0.77028424,0.77028424,-0.77028424,0.77028424,42.142609,-31.65157)"
     inkscape:label="font-reference"
     style="display:none"
     sodipodi:insensitive="true">
    <text
       xml:space="preserve"
       style="font-style:normal;font-weight:normal;font-size:18.1108px;line-height:1.25;font-family:sans-serif;display:inline;opacity:0.144968;fill:#484537;fill-opacity:1;stroke:none;stroke-width:0.855633;stroke-linecap:round;stroke-dasharray:none;stroke-opacity:1;paint-order:stroke markers fill"
       x="-67.498093"
       y="41.618046"
       id="text18"
       transform="rotate(-90)"><tspan
         sodipodi:role="line"
         id="tspan18"
         style="fill:#484537;stroke:none;stroke-width:0.855633;stroke-linecap:round;stroke-dasharray:none;stroke-opacity:1;paint-order:stroke markers fill"
         x="-67.498093"
         y="41.618046">PEM</tspan></text>
  </g>
  <path
     style="color:#000000;display:inline;fill:url(#linearGradient20);stroke-linecap:round;stroke-linejoin:round;-inkscape-stroke:none;paint-order:stroke fill markers"
     d="m 15.680936,9.1322375 c -2.09671,0 -4.19284,0.7983568 -5.7910196,2.3964845 -3.1962499,3.196362 -3.1962499,8.387623 0,11.583984 3.1963596,3.196257 8.3856696,3.196256 11.5820396,0 3.19625,-3.196362 3.19625,-8.387622 0,-11.583984 -1.59819,-1.5981277 -3.69431,-2.3964845 -5.79102,-2.3964845 z m 0,0.5410158 c 1.95618,0 3.91214,0.7461757 5.40625,2.2402347 2.98812,2.988215 2.98812,7.824283 0,10.812499 -2.98822,2.988118 -7.82429,2.988118 -10.8125,0 -2.9881195,-2.988215 -2.9881195,-7.824284 0,-10.812499 1.49411,-1.494059 3.45007,-2.2402347 5.40625,-2.2402347 z"
     id="path21"
     sodipodi:nodetypes="sccccssccccs" />
  <path
     style="color:#000000;display:inline;fill:url(#linearGradient22);stroke-linecap:round;stroke-linejoin:round;-inkscape-stroke:none;paint-order:stroke fill markers"
     d="m 41.934435,2.7626059 c -4.61309,-0.177538 -9.28093,1.314407 -13.06446,4.476563 -6.517951,-5.884155 -16.519491,-5.667008 -22.7519508,0.55664 -6.22426966,6.2330881 -6.44262966,16.2360001 -0.55664,22.7539071 -6.37306966,7.62541 -5.90787966,18.868847 1.13281,25.917968 4.1703898,4.162047 9.8014798,5.241594 15.7812498,5.492188 3.052911,0.127938 5.615481,-1.035721 7.929691,-1.849609 2.31421,-0.813889 4.32741,-1.288321 6.45899,0.06055 2.10471,1.331873 3.09113,4.276814 3.51562,6.916016 0.42449,2.639202 0.30078,4.933594 0.30078,4.933594 -0.004,0.07821 0.02589,0.154351 0.082,0.208984 l 1.23633,1.208985 c 0.106635,0.104242 0.27727,0.10335 0.38281,-0.002 l 6.82227,-6.822265 18.19336,18.191406 c 0.06281,0.06314 0.152516,0.09158 0.24023,0.07617 l 6.47461,-1.171875 3.84571,3.845703 3.8457,3.845703 -1.17188,6.472656 c -0.01608,0.08835 0.01243,0.178958 0.0762,0.242188 l 2.47265,2.472652 c 0.06324,0.0638 0.153839,0.0923 0.24219,0.0762 l 6.47461,-1.169917 3.84375,3.843747 3.8457,3.8457 -1.16991,6.47466 c -0.01592,0.0874 0.01177,0.17704 0.0742,0.24023 l 3.21094,3.21094 c 0.04763,0.047 0.110901,0.0748 0.17773,0.0781 l 3.650385,0.18555 3.87305,3.87304 3.87109,3.87109 0.18555,3.6504 c 0.003,0.0678 0.0319,0.13186 0.0801,0.17968 l 4.83593,4.83593 c 0.0581,0.0579 0.13913,0.0866 0.22071,0.0781 l 13.86914,-1.47461 c 0.0623,-0.007 0.12022,-0.0353 0.16406,-0.0801 l 3.83594,-3.83594 c 0.0481,-0.0478 0.0767,-0.1119 0.0801,-0.17968 l 0.31836,-7.35547 c 0.003,-0.0759 -0.0262,-0.14955 -0.0801,-0.20313 l -69.849605,-69.849605 6.82226,-6.824219 c 0.105912,-0.10499 0.107695,-0.275632 0.004,-0.382812 l -1.20898,-1.236328 c -0.05644,-0.05826 -0.135923,-0.08834 -0.2168,-0.08203 0,0 -2.34927,0.182406 -5.01367,-0.21289 -2.6644,-0.395297 -5.59491,-1.376513 -6.82032,-3.587891 -1.25279,-2.260808 -0.96408,-4.362394 -0.27734,-6.671874 0.68674,-2.309482 1.78321,-4.793005 2.05664,-7.695313 0.54386,-5.772873 -1.33646,-11.654359 -5.49023,-15.8164071 2e-6,-6.67e-4 2e-6,-0.0013 0,-0.002 -3.55153,-3.54731 -8.17122,-5.429098 -12.85547,-5.609375 z m -0.0195,0.541016 c 4.55071,0.175138 9.03751,2.00646 12.49023,5.455078 4.0305,4.0385271 5.8636,9.7591871 5.33399,15.3808601 -0.26332,2.794962 -1.33597,5.233883 -2.03711,7.591797 -0.70115,2.357913 -1.01831,4.670631 0.32226,7.089843 1.36797,2.468644 4.48249,3.457614 7.2168,3.863281 2.65737,0.394255 4.86246,0.220595 4.99219,0.210938 l 0.94921,0.970703 -6.82617,6.824219 c -0.106088,0.106317 -0.106088,0.278448 0,0.384765 l 69.957025,69.957024 -0.30664,7.13086 -3.69336,3.69141 -13.64453,1.45312 -4.66992,-4.66992 -0.18555,-3.65234 c -0.004,-0.0671 -0.0324,-0.1304 -0.0801,-0.17774 l -3.94532,-3.94531 -3.94726,-3.94726 c -0.0473,-0.0477 -0.11064,-0.0762 -0.17774,-0.0801 l -3.65039,-0.1836 -3.035145,-3.03515 1.16992,-6.47461 c 0.01592,-0.0874 -0.01177,-0.17705 -0.0742,-0.24024 l -3.94727,-3.94726 -3.94531,-3.945312 c -0.06281,-0.06314 -0.152516,-0.09158 -0.24023,-0.07617 l -6.47461,1.171872 -2.27344,-2.273434 1.17188,-6.47461 c 0.01541,-0.08772 -0.01305,-0.177431 -0.0762,-0.240234 l -3.94531,-3.945313 -3.94531,-3.947265 c -0.06361,-0.06306 -0.154167,-0.09081 -0.24219,-0.07422 l -6.47461,1.169922 -18.2832,-18.283203 c -0.106318,-0.106091 -0.278452,-0.106091 -0.38477,0 l -6.82617,6.824219 -0.9707,-0.949219 c 0.006,-0.123772 0.12422,-2.28185 -0.29883,-4.91211 -0.43499,-2.704493 -1.42047,-5.807506 -3.76172,-7.289062 -2.31439,-1.464559 -4.58419,-0.938861 -6.93164,-0.113281 -2.34745,0.82558 -4.82326,1.9419 -7.724611,1.820312 -5.92876,-0.248456 -11.38969,-1.311813 -15.4199198,-5.333984 -6.89720966,-6.905465 -7.32066966,-17.948131 -0.97461,-25.363281 0.089139,-0.105118 0.085704,-0.260258 -0.008,-0.361328 -5.84800966,-6.302367 -5.66887966,-16.094005 0.40625,-22.1777351 6.0837298,-6.075135 15.8734198,-6.254258 22.1757808,-0.40625 0.101411,0.0948 0.257894,0.09816 0.36328,0.0078 3.70758,-3.17303 8.32234,-4.653654 12.87305,-4.478516 z"
     id="path22"
     sodipodi:nodetypes="cccccsssscccccccccccccccccccccccccccccccccccccccscssccccscccsscccccccccccccccccccccccccccccccccssssccccccss" />
  <path
     id="path37895"
     style="display:inline;fill:url(#linearGradient29);fill-opacity:1;stroke:none;stroke-width:0.544673;stroke-linecap:round;stroke-linejoin:round;stroke-dasharray:none;paint-order:stroke fill markers"
     d="M 54.603208,8.5661412 C 47.598955,1.5702063 36.391779,1.1389091 28.870519,7.5757783 22.462945,1.6301476 12.501587,1.8128097 6.3163003,7.9893585 0.13975157,14.174645 -0.04290974,24.136002 5.902721,30.543576 c -6.43686977,7.52126 -6.00554524,18.728409 0.9903621,25.732689 4.1003159,4.092113 9.6455279,5.163233 15.5997919,5.412758 5.954262,0.249526 10.077478,-4.560892 14.523448,-1.747463 4.445975,2.813432 3.941944,12.094117 3.941944,12.094117 l 1.236763,1.208889 7.015726,-7.015727 18.384986,18.384985 6.614486,-1.196156 3.945924,3.945925 3.945924,3.945924 -1.196161,6.61448 2.473523,2.473523 6.614876,-1.195765 3.945932,3.945925 3.945917,3.94592 -1.196154,6.61449 3.209918,3.20992 3.755253,0.19027 3.94632,3.94632 3.94593,3.94593 0.19067,3.75565 4.83638,4.83637 13.86905,-1.47598 3.83605,-3.83606 0.31805,-7.35488 -70.041838,-70.041826 7.015329,-7.015329 -1.2085,-1.237152 c 0,0 -9.500744,0.738083 -12.094117,-3.941943 -2.593371,-4.680025 1.210722,-8.826173 1.747464,-14.523449 0.536738,-5.697279 -1.320625,-11.499499 -5.41276,-15.5997898 z M 21.240592,11.715555 c 3.09219,3.092292 3.092191,8.105802 0,11.198094 -3.092292,3.09219 -8.105803,3.09219 -11.198095,0 -3.0921898,-3.092291 -3.0921897,-8.105802 0,-11.198094 3.092293,-3.0921902 8.105803,-3.0921898 11.198095,0 z" />
  <path
     style="color:#000000;display:inline;opacity:0.4;mix-blend-mode:normal;fill:#ffc800;fill-opacity:1;filter:url(#filter26467)"
     d="m -117.66847,15.252702 c -2.26696,-0.710288 -2.92069,12.31501 9.05492,23.263929 7.02517,6.422882 24.487589,8.578932 32.287297,16.295137 5.004337,2.080454 11.44604,1.060329 15.490914,5.199013 6.102546,2.657758 4.438282,8.826815 1.524843,13.165892 -3.483209,6.175117 2.89915,10.045292 8.400267,9.174835 6.685108,0.785968 13.620026,-0.519124 20.017578,2.021491 6.585461,2.973688 2.612375,9.80286 1.263673,14.826172 -2.99717,8.326589 5.196144,13.452519 12.621092,12.529299 8.3413994,0.76935 17.10093866,-0.60813 25.0820308,2.33003 4.4060242,5.15711 3.4396462,12.40981 6.6914102,18.08789 2.184536,2.33293 6.836897,5.42833 6.908355,3.32032 4.09464,-0.96612 -5.691731,-2.55515 -5.570458,-5.75595 -1.964898,-4.68677 -2.020549,-10.18277 -4.423839,-14.69141 -2.6014991,-4.92319 -9.0440514,-4.4943 -13.9592154,-5.13213 -7.5123723,-0.35775 -15.3599516,0.35865 -22.6025576,-1.79437 -5.626847,-3.46106 -1.541665,-10.932321 -0.19854,-15.767283 1.541652,-5.194 -2.612323,-10.223908 -7.986343,-10.892669 -6.415043,-1.899352 -13.261111,-0.358725 -19.806126,-1.634332 -7.436235,1.244251 -4.547799,-6.957179 -2.124997,-10.427693 2.992449,-5.21408 -1.973658,-9.935405 -6.246091,-12.529297 -4.498283,-3.666993 -11.60526,-1.592439 -15.977981,-5.339302 -4.669114,-6.562469 -5.404387,-15.960308 -2.195445,-23.300987 -23.055797,8.908749 -27.141437,-1.948501 -24.698327,2.424717 z m 62.406751,53.266829 c 0.193163,0.21362 0.197438,1.047749 0,0 z m 28.828125,21.607422 c 0.233726,0.06733 -0.985036,0.21446 0,0 z M 22.251953,136.2832 c -0.470869,-0.0165 -0.0556,0.10107 0,0 z"
     id="path23878"
     clip-path="url(#clipPath25737)"
     transform="translate(113.01788,-5.4730337)"
     sodipodi:nodetypes="csccccccccccccccccccccccccccccc" />
  <path
     id="path37897"
     style="display:inline;opacity:0.46;fill:url(#linearGradient38665);fill-opacity:1;stroke-width:6.46499;stroke-linecap:round;stroke-linejoin:round;paint-order:fill markers stroke;filter:url(#filter25471)"
     d="m 66.244019,60.947184 v 5.726782 h 23.015132 l 2.782259,-4.539774 h 5.651852 5.651858 l 2.78226,4.539774 h 3.62251 l 2.78277,-4.539774 h 5.65186 5.65185 l 2.78226,4.539774 h 5.01623 l 1.38854,-1.78387 h 5.65237 5.65186 l 1.38854,1.78387 h 6.41873 c 1.54166,-1.908852 3.08337,-3.81793 4.62504,-5.726782 z"
     sodipodi:nodetypes="cccccccccccccccccccc"
     transform="matrix(0.77028423,0.77028423,-0.77028423,0.77028423,51.173168,-36.156582)" />
  <path
     id="path37899"
     style="display:inline;opacity:0.227474;fill:url(#radialGradient38667);fill-opacity:1;stroke:none;stroke-width:0.18;stroke-linecap:round;stroke-linejoin:round;stroke-dasharray:none;paint-order:fill markers stroke"
     d="M 52.37211,9.6352743 C 48.309991,5.8829036 42.079504,4.4416404 36.694117,5.9779271 34.398587,6.611406 32.37903,7.789364 30.480403,9.2653525 29.368936,10.305629 27.698477,9.7142133 26.716528,8.8002975 24.809121,7.0922351 22.335508,6.0499881 19.88343,5.7362497 15.011636,5.0522457 9.7086508,7.0034437 6.7869287,10.998315 3.5022515,15.21063 2.91751,21.47137 5.6028416,26.190733 c 0.6337081,1.233394 1.5859064,2.267037 2.3526798,3.401649 0.6583465,1.533235 -0.5975678,2.920329 -1.4595799,4.055717 -3.6580151,5.335923 -3.7396728,12.839206 -0.1822582,18.248469 1.0437731,1.625231 2.3752862,3.059624 3.8522667,4.142313 2.67922,1.983001 5.98802,2.739253 9.18022,3.138303 2.674279,0.298418 5.492467,0.436657 8.014731,-0.672042 2.88771,-1.040783 6.05524,-2.355611 9.138097,-1.318356 3.187373,1.044353 5.237605,4.132377 5.970256,7.282745 0.411012,1.482286 0.642515,3.011529 0.742192,4.545332 8.03408,-8.014507 16.060455,-16.036725 24.079039,-24.066735 -3.683152,-0.174987 -7.687397,-1.0903 -10.21431,-3.978361 -2.326266,-2.793476 -2.416552,-6.849443 -1.154763,-10.128839 1.056296,-3.318729 2.339506,-6.751972 1.816417,-10.295275 C 57.403928,16.919677 55.865605,13.360814 53.464945,10.72665 53.119959,10.343423 52.7502,9.9857423 52.372267,9.6353863 Z M 22.917764,10.137763 c 4.013109,3.816924 3.906643,10.996455 -0.237705,14.680534 C 19.033242,28.30236 12.713076,28.52385 8.9629122,25.079284 5.3319069,21.951608 4.2891878,16.136647 6.9137986,12.058311 9.286119,8.1188707 14.490338,6.051821 18.867754,7.6493842 c 1.520316,0.4998634 2.91276,1.3638695 4.05001,2.4883788 z" />
  <path
     id="path37903"
     style="display:inline;opacity:0.470806;mix-blend-mode:overlay;fill:url(#linearGradient38673);fill-opacity:1;stroke-width:6.73096;stroke-linecap:round;stroke-linejoin:round;paint-order:fill markers stroke"
     d="m 59.738338,55.701257 73.560352,73.560343 -2.58158,2.58158 -3.21941,0.58845 -72.244866,-72.244869 z"
     sodipodi:nodetypes="cccccc" />
  <path
     id="path37905"
     style="display:inline;opacity:0.43835;mix-blend-mode:normal;fill:url(#linearGradient38675);fill-opacity:1;stroke-width:6.73096;stroke-linecap:round;stroke-linejoin:round;paint-order:fill markers stroke"
     d="m 59.738338,55.701257 73.560352,73.560343 -2.58158,2.58158 -3.21941,0.58845 -72.244866,-72.244869 z"
     sodipodi:nodetypes="cccccc" />
  <path
     id="path37907"
     style="display:inline;opacity:0.28;mix-blend-mode:normal;fill:url(#linearGradient38677);fill-opacity:1;stroke-width:6.73096;stroke-linecap:round;stroke-linejoin:round;paint-order:fill markers stroke"
     d="m 59.738336,55.701256 73.560354,73.560344 -2.58158,2.58158 -3.21941,0.58845 -72.244869,-72.244871 z"
     sodipodi:nodetypes="cccccc" />
  <rect
     style="display:inline;opacity:0.43835;fill:url(#linearGradient38679);fill-opacity:1;stroke:none;stroke-width:0.446627;stroke-linecap:round;stroke-linejoin:round;stroke-dasharray:none;stroke-opacity:1;paint-order:stroke markers fill"
     id="rect37927"
     width="16.375753"
     height="6.812901"
     x="81.62812"
     y="-9.667551"
     transform="rotate(45)" />
  <rect
     style="display:inline;opacity:0.43835;fill:url(#linearGradient38681);fill-opacity:1;stroke:none;stroke-width:0.500184;stroke-linecap:round;stroke-linejoin:round;stroke-dasharray:none;stroke-opacity:1;paint-order:stroke markers fill"
     id="rect37929"
     width="16.375753"
     height="8.5447931"
     x="81.62812"
     y="3.4888172"
     transform="rotate(45)" />
  <path
     id="path37931"
     style="display:inline;mix-blend-mode:soft-light;fill:#ffffff;stroke-width:0.0423721;stroke-linecap:round;stroke-linejoin:round;paint-order:stroke markers fill"
     d="M 55.252831,60.186759 127.4977,132.43163 126.78721,131.82305 55.201877,60.237714 Z"
     sodipodi:nodetypes="ccccc" />
  <path
     d="m 21.026054,47.636186 -6.235846,-1.074185 1.395044,-1.395044 4.743149,0.892829 -0.906778,-4.7292 1.381093,-1.381093 1.074184,6.235847 6.542756,1.102084 -1.395044,1.395044 -5.022158,-0.94863 0.920729,5.050059 -1.381093,1.381094 z m 5.970779,-10.546523 q 1.534548,-1.534548 3.208601,-1.674053 1.674053,-0.139504 3.069097,1.25554 1.548498,1.548499 1.450845,3.431808 -0.09765,1.855408 -1.855408,3.613163 -0.767274,0.767275 -1.59035,1.311342 -0.809126,0.530116 -1.534549,0.725423 l -1.157886,-1.157887 q 0.809125,-0.195306 1.701953,-0.725422 0.892829,-0.558018 1.5485,-1.213689 1.102085,-1.102084 1.255539,-2.287872 0.153455,-1.213688 -0.94863,-2.315773 -0.976531,-0.97653 -2.092566,-0.892827 -1.129985,0.06975 -2.427376,1.367142 -0.390613,0.390612 -0.823073,0.962584 -0.432466,0.571965 -0.669621,0.94863 l -1.004431,0.223207 -4.324637,-5.07796 4.994257,-4.994257 1.116036,1.116035 -3.947975,3.947974 2.650584,3.124899 q 0.195304,-0.279011 0.544067,-0.739374 0.348765,-0.460361 0.83703,-0.948626 z M 39.552235,26.766331 q 1.6043,1.6043 2.427377,3.096997 0.809125,1.478747 0.697522,2.81799 -0.111604,1.339242 -1.311342,2.538979 -1.688003,1.688003 -3.850321,1.143936 -2.162318,-0.571967 -4.575744,-2.985393 -1.618251,-1.618252 -2.441327,-3.083048 -0.809126,-1.478747 -0.683572,-2.804038 0.111604,-1.339242 1.297391,-2.52503 1.674053,-1.674053 3.850321,-1.143936 2.162319,0.516167 4.589695,2.943543 z m -5.38487,5.38487 q 2.050715,2.050714 3.529462,2.608732 1.492697,0.544067 2.622683,-0.585919 1.116035,-1.116035 0.585918,-2.594781 -0.530117,-1.506648 -2.594782,-3.571313 -2.036764,-2.036764 -3.543412,-2.566881 -1.492696,-0.544067 -2.608731,0.571968 -1.129986,1.129986 -0.58592,2.622683 0.558018,1.478747 2.594782,3.515511 z m 12.611206,-14.03415 q 1.074184,1.074183 1.925161,2.315772 0.850976,1.213688 1.199737,2.566881 0.348761,1.325292 -0.0558,2.734287 -0.390613,1.395043 -1.799607,2.804037 -0.279009,0.279009 -0.697525,0.613818 -0.390613,0.334808 -0.697522,0.502215 l -1.046282,-1.046283 q 0.725422,-0.362712 1.408993,-1.046283 0.976531,-0.976531 1.283441,-1.92516 0.32086,-0.962581 0.153455,-1.88331 -0.181355,-0.93468 -0.739374,-1.827507 -0.571968,-0.906779 -1.353192,-1.743805 l -0.0837,0.0837 q 0.167405,0.781225 -0.06975,1.715904 -0.237157,0.906779 -1.143936,1.813558 -1.28344,1.28344 -2.85984,1.29739 -1.576399,-0.01395 -3.013295,-1.450846 -1.046282,-1.046282 -1.408994,-2.190218 -0.348762,-1.157887 -0.04185,-2.273922 0.30691,-1.116035 1.26949,-2.078615 0.94863,-0.94863 2.20417,-1.227639 1.241588,-0.292959 2.664533,0.237157 1.408995,0.516166 2.901692,2.008864 z m -6.738062,0.01395 q -0.864928,0.864927 -0.850977,1.994913 0.0279,1.116035 1.199737,2.287872 0.962581,0.96258 1.980963,1.060233 1.018382,0.06975 1.994914,-0.906778 0.669621,-0.669621 0.892827,-1.422945 0.209256,-0.767275 0.0558,-1.450846 -0.139505,-0.697522 -0.585918,-1.143936 -0.599869,-0.599869 -1.422945,-0.94863 -0.823077,-0.348761 -1.688003,-0.265058 -0.864928,0.0837 -1.5764,0.795175 z"
     id="text5253"
     style="font-size:19.7289px;line-height:1.25;display:inline;opacity:0.44;fill:#6e3702;fill-opacity:1;stroke-width:0.932081;stroke-linecap:round;paint-order:stroke markers fill"
     aria-label="x509" />
  <path
     id="path18"
     style="font-size:19.7289px;line-height:1.25;display:inline;opacity:0.2;fill:#000000;stroke-width:0.932081;stroke-linecap:round;paint-order:stroke markers fill"
     d="m 31.174762,25.029387 c -0.790524,0.790524 -1.223158,1.631771 -1.297557,2.524595 -0.08371,0.883532 0.14426,1.818675 0.683678,2.804503 0.548717,0.976531 1.362453,2.004112 2.441286,3.082946 1.60895,1.608949 3.134089,2.604068 4.575635,2.985378 0.381305,0.09595 0.750924,0.136066 1.110107,0.127893 -0.317687,-0.004 -0.643097,-0.04367 -0.977832,-0.12789 -1.441539,-0.381316 -2.966685,-1.37643 -4.575635,-2.985379 -1.078832,-1.078833 -1.89257,-2.106414 -2.441287,-3.082944 -0.539418,-0.985828 -0.767384,-1.920973 -0.683677,-2.804503 0.0744,-0.892824 0.507039,-1.734079 1.297564,-2.524603 0.821679,-0.821679 1.734828,-1.241722 2.738,-1.266869 -1.055308,-0.01009 -2.012681,0.409273 -2.870282,1.266873 z m 7.895731,-7.867955 c -0.641721,0.64172 -1.064823,1.334418 -1.269428,2.07844 -0.204605,0.744021 -0.19049,1.502011 0.04202,2.273932 0.24181,0.762622 0.711492,1.492732 1.409013,2.190253 0.957929,0.957929 1.962221,1.441366 3.013149,1.450669 0.02328,-1.98e-4 0.04584,-0.0034 0.06908,-0.004 -1.027895,-0.02786 -2.011325,-0.508044 -2.949932,-1.446651 -0.697521,-0.697521 -1.167203,-1.42763 -1.409012,-2.190252 -0.232511,-0.77192 -0.246633,-1.529905 -0.04202,-2.273933 0.204606,-0.744021 0.6277,-1.436712 1.269421,-2.078433 0.632422,-0.632423 1.367118,-1.041768 2.204142,-1.227772 0.283277,-0.06684 0.574423,-0.09901 0.871862,-0.101584 -0.343819,-0.008 -0.678978,0.02486 -1.004144,0.101588 -0.837024,0.186003 -1.57172,0.59535 -2.204134,1.227765 z m -18.20497,18.484141 4.324236,5.0777 0.111072,-0.02483 -4.303039,-5.052856 4.92789,-4.927891 -0.06613,-0.06614 z M 33.87951,25.331216 c 0.303297,-0.0018 0.618973,0.05179 0.950061,0.172471 1.004431,0.353411 2.185518,1.209145 3.54336,2.566986 1.376442,1.376442 2.241345,2.566699 2.594757,3.571131 0.353416,0.985824 0.158276,1.850735 -0.585749,2.59476 -0.467009,0.467008 -0.980972,0.718658 -1.540919,0.756755 0.611202,-0.0052 1.169917,-0.253476 1.6732,-0.75676 0.744018,-0.744017 0.939159,-1.608928 0.585749,-2.594759 -0.353411,-1.00443 -1.218322,-2.194681 -2.594764,-3.571123 -1.357842,-1.357842 -2.538922,-2.213582 -3.543352,-2.566993 -0.379194,-0.138212 -0.739609,-0.194953 -1.082343,-0.172468 z m 8.265159,-7.94433 c 0.41492,0.01625 0.822567,0.10672 1.222653,0.276249 0.548714,0.232509 1.022985,0.548685 1.422897,0.948598 0.297609,0.297608 0.492743,0.679079 0.585747,1.144092 0.102303,0.455715 0.08396,0.939152 -0.05554,1.450667 -0.148804,0.502216 -0.446276,0.976848 -0.892693,1.423265 -0.568217,0.568217 -1.147306,0.870466 -1.736781,0.907305 0.635166,0.003 1.258433,-0.29668 1.869062,-0.907309 0.446411,-0.446411 0.743883,-0.921043 0.892686,-1.423258 0.139505,-0.511515 0.15821,-0.994587 0.05591,-1.450302 -0.093,-0.46502 -0.288504,-0.846849 -0.586112,-1.144458 -0.399913,-0.399912 -0.874183,-0.716087 -1.422897,-0.948597 -0.442449,-0.187481 -0.894337,-0.276227 -1.354928,-0.276252 z m -27.292292,29.237722 6.236045,1.074298 1.115955,6.528372 0.113276,-0.113277 -1.096957,-6.415092 -6.236042,-1.074301 1.374299,-1.374299 -0.111461,-0.02081 z m 5.231541,-5.231541 0.902192,4.703159 0.136994,0.02598 -0.90694,-4.729106 1.268331,-1.26833 -0.0194,-0.112876 z m 6.975631,-4.240921 c -0.32551,0.32551 -0.605008,0.641693 -0.837518,0.948605 -0.206292,0.272307 -0.356581,0.479136 -0.482332,0.656266 l 0.07074,0.08346 c 0.1302,-0.186004 0.311219,-0.432671 0.543727,-0.739585 0.232511,-0.306913 0.512002,-0.623088 0.837511,-0.948598 1.023035,-1.023035 2.092249,-1.581299 3.208277,-1.674296 0.10468,-0.0087 0.207576,-0.0083 0.310597,-0.008 -0.146066,-0.0059 -0.29344,-0.0044 -0.442872,0.008 -1.116028,0.093 -2.185248,0.651268 -3.208276,1.674296 z M 46.484977,20.313802 c 0.493789,0.536781 0.925066,1.094757 1.290621,1.674297 0.372013,0.595217 0.618317,1.204283 0.739221,1.827402 0.111603,0.613818 0.06043,1.241595 -0.153476,1.883316 -0.204602,0.632414 -0.632289,1.273944 -1.283308,1.924963 -0.455709,0.455709 -0.925398,0.804723 -1.409013,1.046529 l 1.046162,1.046162 c 0.02517,-0.01372 0.05471,-0.03608 0.08073,-0.0515 l -0.99464,-0.99464 c 0.483621,-0.241814 0.953304,-0.590819 1.409013,-1.046528 0.651026,-0.651027 1.078706,-1.292549 1.283315,-1.924971 0.213907,-0.64172 0.265073,-1.26949 0.15347,-1.883309 -0.120904,-0.623119 -0.367202,-1.232191 -0.73922,-1.827402 -0.381307,-0.604524 -0.832293,-1.18607 -1.353105,-1.744091 z M 30.408142,37.219383 c 0.634454,0.03305 1.23438,0.331092 1.798901,0.895613 0.734723,0.734722 1.050535,1.506464 0.948231,2.315591 -0.102301,0.790522 -0.520454,1.553096 -1.255173,2.287814 -0.437113,0.437113 -0.953378,0.841868 -1.548598,1.213886 -0.595217,0.353408 -1.162286,0.595129 -1.701701,0.72533 l 1.157612,1.157612 c 0.03287,-0.0089 0.06698,-0.02225 0.100098,-0.03213 l -1.125456,-1.125456 c 0.539415,-0.130201 1.106491,-0.371929 1.701701,-0.725331 0.595222,-0.372016 1.111486,-0.776773 1.548598,-1.213885 0.734726,-0.734726 1.15324,-1.49766 1.25554,-2.288182 0.102306,-0.809127 -0.213875,-1.5805 -0.948597,-2.315222 -0.60355,-0.603551 -1.247692,-0.899569 -1.931176,-0.895618 z m -7.611078,10.576726 0.0047,0.02595 4.885129,0.922658 0.02086,-0.02086 z" />
  <path
     id="path19"
     style="font-size:19.7289px;line-height:1.25;display:inline;opacity:0.2;fill:#ffffff;stroke-width:0.932081;stroke-linecap:round;paint-order:stroke markers fill"
     d="m 25.703498,30.68213 1.022411,1.022411 -3.948223,3.948222 2.650666,3.124966 c 0.02085,-0.02976 0.0635,-0.08553 0.08697,-0.118391 l -2.550545,-3.006573 3.94823,-3.94823 -1.115956,-1.115955 z m 8.124843,-6.980386 c 0.307662,0.0056 0.622367,0.04193 0.946769,0.120953 1.441542,0.344112 2.971634,1.325108 4.589884,2.943358 1.069532,1.069532 1.87832,2.102063 2.427039,3.097192 0.539411,0.985835 0.772329,1.925196 0.697923,2.818028 -0.0744,0.892824 -0.511617,1.739386 -1.311447,2.539216 -0.820703,0.820703 -1.726451,1.24054 -2.715338,1.269787 1.062087,0.02165 2.030274,-0.397633 2.902426,-1.269786 0.79983,-0.79983 1.237047,-1.646393 1.311447,-2.539216 0.07441,-0.892831 -0.158513,-1.832192 -0.697923,-2.818028 -0.548719,-0.995129 -1.357507,-2.02766 -2.42704,-3.097193 -1.618249,-1.618249 -3.148342,-2.599245 -4.589884,-2.943357 -0.390421,-0.09511 -0.767679,-0.132259 -1.133856,-0.120954 z m 8.218011,-7.931531 c 0.526077,0.01435 1.073569,0.125764 1.643236,0.338003 0.939335,0.344106 1.906574,1.013512 2.901705,2.008643 0.716122,0.716122 1.357651,1.488226 1.924966,2.315954 0.56732,0.809121 0.967495,1.66449 1.199998,2.566623 0.232507,0.883526 0.213799,1.795017 -0.0559,2.73434 -0.260412,0.930031 -0.860308,1.865178 -1.799636,2.804506 -0.186004,0.186005 -0.418551,0.390309 -0.697561,0.613514 -0.21508,0.18435 -0.406551,0.321133 -0.583559,0.429357 l 0.07308,0.07308 c 0.204601,-0.111603 0.437155,-0.27923 0.697565,-0.502438 0.27901,-0.223205 0.511557,-0.42751 0.697561,-0.613514 0.939328,-0.939328 1.539224,-1.874475 1.799636,-2.804507 0.269702,-0.939322 0.28841,-1.850813 0.0559,-2.73434 -0.232503,-0.902132 -0.632678,-1.757501 -1.199998,-2.566623 -0.567315,-0.827728 -1.208845,-1.599832 -1.924967,-2.315954 -0.99513,-0.99513 -1.96237,-1.664537 -2.901696,-2.008649 -0.637628,-0.237547 -1.24733,-0.348356 -1.830331,-0.337997 z M 31.97097,26.012951 c -0.753323,0.753324 -0.948461,1.627402 -0.585744,2.622527 0.372008,0.985833 1.236912,2.157749 2.594754,3.515591 1.367141,1.367141 2.543643,2.236631 3.529476,2.608639 0.37986,0.138454 0.742097,0.194442 1.086721,0.170282 -0.288371,-0.004 -0.587469,-0.0565 -0.899633,-0.17028 -0.985834,-0.372009 -2.162328,-1.241506 -3.52947,-2.608647 -1.357842,-1.357842 -2.222753,-2.529751 -2.594761,-3.515584 -0.362716,-0.995124 -0.167578,-1.869203 0.585745,-2.622526 0.458884,-0.458884 0.966069,-0.705715 1.520463,-0.743608 -0.627526,-0.0097 -1.197861,0.233917 -1.707551,0.743606 z m 7.882211,-7.882211 c -0.576617,0.576617 -0.859971,1.241805 -0.850675,1.995132 0.01861,0.744015 0.41841,1.506592 1.199634,2.287815 0.64172,0.64172 1.301955,0.994944 1.98088,1.060043 0.08707,0.006 0.173916,0.0059 0.26053,3.71e-4 -0.0245,-7.7e-4 -0.0489,0.0013 -0.07344,-3.67e-4 -0.678924,-0.0651 -1.33916,-0.418323 -1.980879,-1.060042 -0.781224,-0.781224 -1.181026,-1.5438 -1.199628,-2.287822 -0.0093,-0.753321 0.274052,-1.418508 0.850669,-1.995126 0.474313,-0.474313 0.999748,-0.739324 1.576368,-0.795126 0.09831,-0.0095 0.195554,-0.0091 0.293052,-0.01023 -0.15907,-0.0069 -0.318893,-0.0054 -0.48014,0.01022 -0.576619,0.0558 -1.102055,0.320814 -1.576368,0.795127 z m -23.69778,27.066108 4.585501,0.862726 -0.0073,-0.03654 -4.548225,-0.856152 z m 5.087569,-5.087569 1.046529,6.075995 6.542987,1.102069 -1.365529,1.365529 0.157495,0.02959 1.395122,-1.395122 -6.542987,-1.102069 -1.073931,-6.235682 z m 3.854317,0.516687 0.02997,0.03507 1.004503,-0.223261 c 0.158095,-0.251108 0.381113,-0.567287 0.669429,-0.948601 0.288309,-0.381322 0.562857,-0.70244 0.823263,-0.962846 0.864926,-0.864926 1.67408,-1.320489 2.427402,-1.36699 0.0384,-0.0029 0.07622,-8.27e-4 0.114368,-0.0018 -0.09964,-0.0055 -0.200092,-0.0058 -0.301456,0.0018 -0.753323,0.0465 -1.562476,0.502064 -2.427402,1.36699 -0.260406,0.260406 -0.534962,0.581531 -0.823263,0.962846 -0.288316,0.381314 -0.511332,0.697496 -0.66943,0.948601 z m 5.377343,-5.217294 c 0.939936,0.0415 1.810581,0.460771 2.612296,1.262486 1.032331,1.032331 1.516134,2.176006 1.451035,3.431542 -0.06511,1.236944 -0.683338,2.441677 -1.855177,3.613516 -0.511514,0.511514 -1.04154,0.948372 -1.590251,1.311079 -0.487591,0.319458 -0.951309,0.542949 -1.393298,0.680024 l 0.04567,0.04567 c 0.483611,-0.1302 0.99529,-0.372283 1.534711,-0.725698 0.548712,-0.362706 1.078736,-0.799565 1.59025,-1.311079 1.171839,-1.171839 1.790068,-2.376573 1.855176,-3.613517 0.0651,-1.255535 -0.418702,-2.39921 -1.451034,-3.431541 -0.854475,-0.854476 -1.787902,-1.271573 -2.799383,-1.262487 z m 15.614596,-15.14322 c 0.111601,0.520819 0.08795,1.092833 -0.07016,1.71596 -0.158101,0.604514 -0.5392,1.208626 -1.14372,1.813146 -0.828672,0.828673 -1.749891,1.25725 -2.761756,1.292087 0.0297,10e-4 0.05903,0.0052 0.0888,0.0055 1.050926,-0.0093 2.004415,-0.441933 2.860043,-1.297561 0.60452,-0.604519 0.985619,-1.208632 1.143727,-1.813153 0.154315,-0.608186 0.178258,-1.166857 0.07563,-1.677581 -0.03684,-0.04052 -0.07132,-0.08178 -0.108892,-0.122045 z m -23.674027,27.468419 0.920826,5.049933 -1.221556,1.221555 0.0274,0.159688 1.381241,-1.381241 -0.91425,-5.013391 z" />
  <g
     id="g27"
     transform="translate(81.009212,5.4106058)"
     style="display:inline">
    <path
       style="color:#000000;opacity:0.2;fill:url(#linearGradient24);stroke-linecap:round;stroke-linejoin:round;-inkscape-stroke:none;paint-order:fill markers stroke"
       d="m -40.136719,-0.08789062 c -1.412459,0.02262421 -2.817557,0.22107635 -4.171875,0.60742187 -2.310058,0.63748825 -4.341372,1.82200775 -6.246093,3.30273435 -0.0021,0.00186 -0.004,0.00382 -0.0059,0.00586 -0.533097,0.4989518 -1.192942,0.6065558 -1.851562,0.4785156 -0.65862,-0.1280401 -1.309633,-0.4971459 -1.789063,-0.9433593 -6.57e-4,-6.603e-4 -0.0013,-0.00131 -0.002,-0.00195 -1.92218,-1.7212916 -4.410103,-2.76969636 -6.878906,-3.08593747 h -0.002 c -4.9035,-0.68774325 -10.235966,1.27387667 -13.179688,5.29882807 -3.307154,4.2423136 -3.896145,10.5355905 -1.191406,15.2890625 0.639176,1.242961 1.589626,2.276128 2.349609,3.398438 0.313833,0.736324 0.173577,1.430699 -0.158203,2.095703 -0.332663,0.666775 -0.857954,1.294833 -1.291015,1.865234 -6.98e-4,0.0013 -0.0014,0.0026 -0.002,0.0039 -3.679906,5.367857 -3.762346,12.905947 -0.183593,18.347657 1.049296,1.633831 2.38676,3.076267 3.873047,4.166015 2.698903,1.99757 6.024167,2.754461 9.222656,3.154297 6.67e-4,7e-6 0.0013,7e-6 0.002,0 2.676139,0.298626 5.508781,0.441221 8.054687,-0.675781 l 0.0059,-0.002 c 2.889139,-1.041516 6.032809,-2.339716 9.074219,-1.316406 3.148336,1.031562 5.182957,4.091827 5.910156,7.21875 6.35e-4,0.0013 0.0013,0.0026 0.002,0.0039 0.409078,1.475311 0.638938,2.996725 0.738281,4.52539 0.0038,0.07855 0.09935,0.114844 0.154297,0.05859 8.034159,-8.01448 16.059554,-16.036304 24.078171,-24.066347 0.05625,-0.05494 0.01995,-0.150538 -0.05859,-0.154297 -3.671376,-0.174427 -7.650254,-1.087576 -10.152343,-3.947266 -2.297881,-2.761373 -2.388742,-6.783096 -1.136719,-10.037109 6.4e-5,-0.002 6.4e-5,-0.0039 0,-0.0059 1.054765,-3.31392 2.34544,-6.759538 1.820312,-10.330078 -0.335722,-3.645753 -1.879973,-7.2212519 -4.294922,-9.8710941 -0.347749,-0.386297 -0.71879,-0.7464356 -1.097656,-1.0976563 -0.0031,-0.00216 -0.0064,-0.00412 -0.0098,-0.00586 -3.064961,-2.8268288 -7.3485,-4.34710787 -11.582032,-4.27929682 z m 0.0039,0.17968749 c 4.192007,-0.06587383 8.437199,1.44150383 11.464843,4.23828123 0.0031,0.00283 0.0064,0.00544 0.0098,0.00781 0.373801,0.3467671 0.738671,0.7010431 1.078125,1.078125 2.386367,2.6184805 3.917921,6.1594329 4.25,9.7656249 -6.4e-5,0.002 -6.4e-5,0.0039 0,0.0059 0.518756,3.513953 -0.755257,6.932201 -1.8125,10.253906 -1.269646,3.303256 -1.182085,7.390457 1.169922,10.214845 6.56e-4,6.77e-4 0.0013,0.0013 0.002,0.002 2.510556,2.869367 6.452148,3.779984 10.097656,3.976563 -7.937288,7.948442 -15.881512,15.889011 -23.833984,23.822265 -0.106155,-1.477998 -0.320114,-2.952202 -0.716797,-4.382812 -0.738941,-3.172368 -2.802354,-6.287072 -6.027344,-7.34375 -3.122301,-1.050527 -6.312555,0.278657 -9.197265,1.318359 -0.002,5.98e-4 -0.004,0.0013 -0.0059,0.002 -2.496529,1.097387 -5.296982,0.96385 -7.966797,0.666016 h -0.002 c -3.18532,-0.398325 -6.47771,-1.153052 -9.136719,-3.121094 -1.467211,-1.075527 -2.792101,-2.502935 -3.830078,-4.119141 -3.536068,-5.376805 -3.454475,-12.844458 0.181641,-18.148437 0.428429,-0.563978 0.961248,-1.198336 1.306641,-1.890625 0.346209,-0.693927 0.501397,-1.45723 0.160156,-2.251953 -0.0021,-0.0055 -0.0047,-0.01069 -0.0078,-0.01563 -0.771928,-1.142241 -1.721354,-2.173601 -2.347656,-3.392578 7e-6,-6.67e-4 7e-6,-0.0013 0,-0.002 -2.665631,-4.684822 -2.085487,-10.9115377 1.175781,-15.0938314 6.77e-4,-6.396e-4 0.0013,-0.00129 0.002,-0.00195 2.89933,-3.9642546 8.172172,-5.90603899 13.011719,-5.2265625 2.434745,0.3115206 4.893004,1.3485669 6.785156,3.0429688 0.502322,0.4669123 1.177861,0.8504198 1.876954,0.9863281 0.699962,0.1360773 1.429443,0.017886 2.007812,-0.5234375 l -0.0059,0.00586 c 1.892528,-1.4712475 3.900643,-2.6420161 6.18164,-3.27148443 6.67e-4,7.41e-6 0.0013,7.41e-6 0.002,0 1.338374,-0.38179706 2.729618,-0.57960455 4.126954,-0.6015625 z"
       id="path25"
       sodipodi:nodetypes="ccccscccccccsccccccccccccccccccccccccccccccccccccccccccccsccccccccscccccc" />
    <path
       style="color:#000000;display:inline;opacity:0.2;fill:url(#linearGradient26);stroke-linecap:round;stroke-linejoin:round;-inkscape-stroke:none;paint-order:fill markers stroke"
       d="m -65.527261,1.6154116 c -3.452957,0.09157 -6.852075,2.009176 -8.648437,4.9921865 -2.649776,4.1200789 -1.597334,9.9772089 2.068359,13.1347659 3.788243,3.477386 10.1533,3.254471 13.835938,-0.261719 l 0.002,-0.002 c 4.184424,-3.722076 4.290083,-10.9524469 0.238281,-14.8085939 -1.146977,-1.1341265 -2.55188,-2.0053835 -4.085937,-2.5097645 -1.104501,-0.402537 -2.260455,-0.575411 -3.410157,-0.544922 z m 0.0039,0.18164 c 1.130086,-0.03084 2.26457,0.137925 3.347656,0.533204 0.0013,2.8e-5 0.0026,2.8e-5 0.0039,0 1.506572,0.495344 2.886151,1.351907 4.013672,2.4667955 6.56e-4,6.77e-4 0.0013,0.0013 0.002,0.002 3.971692,3.777532 3.865194,10.9008659 -0.236328,14.5468749 -6.77e-4,6.56e-4 -0.0013,0.0013 -0.002,0.002 -3.610637,3.449498 -9.882107,3.66895 -13.59375,0.259766 -6.56e-4,-6.77e-4 -0.0013,-0.0013 -0.002,-0.002 -3.595604,-3.097231 -4.630812,-8.865869 -2.033143,-12.9023409 6.98e-4,-0.0013 0.0014,-0.0026 0.002,-0.0039 1.762116,-2.9261425 5.107788,-4.8098175 8.498047,-4.9023425 z"
       id="path26"
       sodipodi:nodetypes="cccccccccccccccccccccc" />
  </g>
</g>
<metadata
   id="metadata1">
  <rdf:RDF>
    <cc:Work
       rdf:about="">
      <dc:creator>
        <cc:Agent>
          <dc:title>Jess Tipton</dc:title>
        </cc:Agent>
      </dc:creator>
      <dc:publisher>
        <cc:Agent>
          <dc:title>m0dw3rks.com</dc:title>
        </cc:Agent>
      </dc:publisher>
      <cc:license
         rdf:resource="https://creativecommons.org/licenses/by-nc-nd/4.0/deed.en" />
    </cc:Work>
  </rdf:RDF>
</metadata>
<metadata
   id="metadata6">
  <rdf:RDF>
    <cc:Work
       rdf:about="">
      <dc:creator>
        <cc:Agent>
          <dc:title>Jess Tipton</dc:title>
        </cc:Agent>
      </dc:creator>
      <cc:license
         rdf:resource="https://creativecommons.org/licenses/by-nc-nd/4.0/deed.en" />
      <dc:publisher>
        <cc:Agent>
          <dc:title>m0dw3rks.com</dc:title>
        </cc:Agent>
      </dc:publisher>
    </cc:Work>
  </rdf:RDF>
</metadata>
<metadata
   id="metadata2">
  <rdf:RDF>
    <cc:Work
       rdf:about="">
      <dc:creator>
        <cc:Agent>
          <dc:title>Jess Tipton</dc:title>
        </cc:Agent>
      </dc:creator>
      <cc:license
         rdf:resource="https://creativecommons.org/licenses/by-nc-nd/4.0/deed.en" />
      <dc:publisher>
        <cc:Agent>
          <dc:title>m0dw3rks.com</dc:title>
        </cc:Agent>
      </dc:publisher>
    </cc:Work>
  </rdf:RDF>
</metadata>
<metadata
   id="metadata3">
  <rdf:RDF>
    <cc:Work
       rdf:about="">
      <dc:creator>
        <cc:Agent>
          <dc:title>Jess Tipton</dc:title>
        </cc:Agent>
      </dc:creator>
      <cc:license
         rdf:resource="https://creativecommons.org/licenses/by-nc-nd/4.0/deed.en" />
      <dc:publisher>
        <cc:Agent>
          <dc:title>m0dw3rks.com</dc:title>
        </cc:Agent>
      </dc:publisher>
    </cc:Work>
  </rdf:RDF>
</metadata>
<metadata
   id="metadata4">
  <rdf:RDF>
    <cc:Work
       rdf:about="">
      <dc:creator>
        <cc:Agent>
          <dc:title>Jess Tipton</dc:title>
        </cc:Agent>
      </dc:creator>
      <cc:license
         rdf:resource="https://creativecommons.org/licenses/by-nc-nd/4.0/deed.en" />
      <dc:publisher>
        <cc:Agent>
          <dc:title>m0dw3rks.com</dc:title>
        </cc:Agent>
      </dc:publisher>
    </cc:Work>
  </rdf:RDF>
</metadata>
<metadata
   id="metadata5">
  <rdf:RDF>
    <cc:Work
       rdf:about="">
      <dc:creator>
        <cc:Agent>
          <dc:title>Jess Tipton</dc:title>
        </cc:Agent>
      </dc:creator>
      <cc:license
         rdf:resource="https://creativecommons.org/licenses/by-nc-nd/4.0/deed.en" />
      <dc:publisher>
        <cc:Agent>
          <dc:title>m0dw3rks.com</dc:title>
        </cc:Agent>
      </dc:publisher>
    </cc:Work>
  </rdf:RDF>
</metadata>
<metadata
   id="metadata7">
  <rdf:RDF>
    <cc:Work
       rdf:about="">
      <dc:creator>
        <cc:Agent>
          <dc:title>Jess Tipton</dc:title>
        </cc:Agent>
      </dc:creator>
      <cc:license
         rdf:resource="https://creativecommons.org/licenses/by-nc-nd/4.0/deed.en" />
      <dc:publisher>
        <cc:Agent>
          <dc:title>m0dw3rks.com</dc:title>
        </cc:Agent>
      </dc:publisher>
    </cc:Work>
  </rdf:RDF>
</metadata>
<metadata
   id="metadata8">
  <rdf:RDF>
    <cc:Work
       rdf:about="">
      <dc:creator>
        <cc:Agent>
          <dc:title>Jess Tipton</dc:title>
        </cc:Agent>
      </dc:creator>
      <cc:license
         rdf:resource="https://creativecommons.org/licenses/by-nc-nd/4.0/deed.en" />
      <dc:publisher>
        <cc:Agent>
          <dc:title>m0dw3rks.com</dc:title>
        </cc:Agent>
      </dc:publisher>
    </cc:Work>
  </rdf:RDF>
</metadata>
<metadata
   id="metadata9">
  <rdf:RDF>
    <cc:Work
       rdf:about="">
      <dc:creator>
        <cc:Agent>
          <dc:title>Jess Tipton</dc:title>
        </cc:Agent>
      </dc:creator>
      <cc:license
         rdf:resource="https://creativecommons.org/licenses/by-nc-nd/4.0/deed.en" />
      <dc:publisher>
        <cc:Agent>
          <dc:title>m0dw3rks.com</dc:title>
        </cc:Agent>
      </dc:publisher>
    </cc:Work>
  </rdf:RDF>
</metadata>
<metadata
   id="metadata10">
  <rdf:RDF>
    <cc:Work
       rdf:about="">
      <dc:creator>
        <cc:Agent>
          <dc:title>Jess Tipton</dc:title>
        </cc:Agent>
      </dc:creator>
      <cc:license
         rdf:resource="https://creativecommons.org/licenses/by-nc-nd/4.0/deed.en" />
      <dc:publisher>
        <cc:Agent>
          <dc:title>m0dw3rks.com</dc:title>
        </cc:Agent>
      </dc:publisher>
    </cc:Work>
  </rdf:RDF>
</metadata>
<metadata
   id="metadata11">
  <rdf:RDF>
    <cc:Work
       rdf:about="">
      <dc:creator>
        <cc:Agent>
          <dc:title>Jess Tipton</dc:title>
        </cc:Agent>
      </dc:creator>
      <cc:license
         rdf:resource="https://creativecommons.org/licenses/by-nc-nd/4.0/deed.en" />
      <dc:publisher>
        <cc:Agent>
          <dc:title>m0dw3rks.com</dc:title>
        </cc:Agent>
      </dc:publisher>
    </cc:Work>
  </rdf:RDF>
</metadata>
<metadata
   id="metadata12">
  <rdf:RDF>
    <cc:Work
       rdf:about="">
      <dc:creator>
        <cc:Agent>
          <dc:title>Jess Tipton</dc:title>
        </cc:Agent>
      </dc:creator>
      <cc:license
         rdf:resource="https://creativecommons.org/licenses/by-nc-nd/4.0/deed.en" />
      <dc:publisher>
        <cc:Agent>
          <dc:title>m0dw3rks.com</dc:title>
        </cc:Agent>
      </dc:publisher>
    </cc:Work>
  </rdf:RDF>
</metadata>
<metadata
   id="metadata13">
  <rdf:RDF>
    <cc:Work
       rdf:about="">
      <dc:creator>
        <cc:Agent>
          <dc:title>Jess Tipton</dc:title>
        </cc:Agent>
      </dc:creator>
      <cc:license
         rdf:resource="https://creativecommons.org/licenses/by-nc-nd/4.0/deed.en" />
      <dc:publisher>
        <cc:Agent>
          <dc:title>m0dw3rks.com</dc:title>
        </cc:Agent>
      </dc:publisher>
    </cc:Work>
  </rdf:RDF>
</metadata>
<metadata
   id="metadata14">
  <rdf:RDF>
    <cc:Work
       rdf:about="">
      <dc:creator>
        <cc:Agent>
          <dc:title>Jess Tipton</dc:title>
        </cc:Agent>
      </dc:creator>
      <cc:license
         rdf:resource="https://creativecommons.org/licenses/by-nc-nd/4.0/deed.en" />
      <dc:publisher>
        <cc:Agent>
          <dc:title>m0dw3rks.com</dc:title>
        </cc:Agent>
      </dc:publisher>
    </cc:Work>
  </rdf:RDF>
</metadata>
<metadata
   id="metadata15">
  <rdf:RDF>
    <cc:Work
       rdf:about="">
      <dc:creator>
        <cc:Agent>
          <dc:title>Jess Tipton</dc:title>
        </cc:Agent>
      </dc:creator>
      <cc:license
         rdf:resource="https://creativecommons.org/licenses/by-nc-nd/4.0/deed.en" />
      <dc:publisher>
        <cc:Agent>
          <dc:title>m0dw3rks.com</dc:title>
        </cc:Agent>
      </dc:publisher>
    </cc:Work>
  </rdf:RDF>
</metadata>
<metadata
   id="metadata16">
  <rdf:RDF>
    <cc:Work
       rdf:about="">
      <dc:creator>
        <cc:Agent>
          <dc:title>Jess Tipton</dc:title>
        </cc:Agent>
      </dc:creator>
      <cc:license
         rdf:resource="https://creativecommons.org/licenses/by-nc-nd/4.0/deed.en" />
      <dc:publisher>
        <cc:Agent>
          <dc:title>m0dw3rks.com</dc:title>
        </cc:Agent>
      </dc:publisher>
    </cc:Work>
  </rdf:RDF>
</metadata>
<metadata
   id="metadata17">
  <rdf:RDF>
    <cc:Work
       rdf:about="">
      <dc:creator>
        <cc:Agent>
          <dc:title>Jess Tipton</dc:title>
        </cc:Agent>
      </dc:creator>
      <cc:license
         rdf:resource="https://creativecommons.org/licenses/by-nc-nd/4.0/deed.en" />
      <dc:publisher>
        <cc:Agent>
          <dc:title>m0dw3rks.com</dc:title>
        </cc:Agent>
      </dc:publisher>
    </cc:Work>
  </rdf:RDF>
</metadata>
<metadata
   id="metadata18">
  <rdf:RDF>
    <cc:Work
       rdf:about="">
      <dc:creator>
        <cc:Agent>
          <dc:title>Jess Tipton</dc:title>
        </cc:Agent>
      </dc:creator>
      <cc:license
         rdf:resource="https://creativecommons.org/licenses/by-nc-nd/4.0/deed.en" />
      <dc:publisher>
        <cc:Agent>
          <dc:title>m0dw3rks.com</dc:title>
        </cc:Agent>
      </dc:publisher>
    </cc:Work>
  </rdf:RDF>
</metadata>
</svg>
