<?xml version="1.0" encoding="UTF-8" standalone="no"?>
<!-- Created with Inkscape (http://www.inkscape.org/) -->

<svg
   width="512"
   height="512"
   viewBox="0 0 135.46666 135.46667"
   version="1.1"
   id="svg5"
   inkscape:version="1.4 (e7c3feb100, 2024-10-09)"
   sodipodi:docname="application-msword.svg"
   xmlns:inkscape="http://www.inkscape.org/namespaces/inkscape"
   xmlns:sodipodi="http://sodipodi.sourceforge.net/DTD/sodipodi-0.dtd"
   xmlns:xlink="http://www.w3.org/1999/xlink"
   xmlns="http://www.w3.org/2000/svg"
   xmlns:svg="http://www.w3.org/2000/svg">
  <sodipodi:namedview
     id="namedview7"
     pagecolor="#242424"
     bordercolor="#666666"
     borderopacity="1"
     inkscape:showpageshadow="0"
     inkscape:pageopacity="0"
     inkscape:pagecheckerboard="1"
     inkscape:deskcolor="#000000"
     inkscape:document-units="px"
     showgrid="false"
     inkscape:zoom="1.3037281"
     inkscape:cx="197.12699"
     inkscape:cy="198.27754"
     inkscape:window-width="3256"
     inkscape:window-height="1080"
     inkscape:window-x="1864"
     inkscape:window-y="0"
     inkscape:window-maximized="0"
     inkscape:current-layer="layer1" />
  <defs
     id="defs2">
    <linearGradient
       id="linearGradient1"
       inkscape:collect="always">
      <stop
         style="stop-color:#0000ff;stop-opacity:1;"
         offset="0"
         id="stop2" />
      <stop
         style="stop-color:#000080;stop-opacity:1;"
         offset="1"
         id="stop1" />
    </linearGradient>
    <linearGradient
       inkscape:collect="always"
       xlink:href="#linearGradient1"
       id="linearGradient2"
       x1="67.73333"
       y1="0"
       x2="67.73333"
       y2="135.46666"
       gradientUnits="userSpaceOnUse" />
    <filter
       inkscape:collect="always"
       style="color-interpolation-filters:sRGB"
       id="filter5"
       x="-0.015988109"
       y="-0.01879894"
       width="1.0319762"
       height="1.0375979">
      <feGaussianBlur
         inkscape:collect="always"
         stdDeviation="0.6103374"
         id="feGaussianBlur5" />
    </filter>
  </defs>
  <g
     inkscape:label="Layer 1"
     inkscape:groupmode="layer"
     id="layer1">
    <rect
       style="display:inline;opacity:1;fill:url(#linearGradient2);stroke:none;stroke-width:8.46667;stroke-linecap:round;stroke-linejoin:round;stroke-miterlimit:1;paint-order:fill markers stroke"
       id="rect3"
       width="135.46666"
       height="135.46666"
       x="0"
       y="0"
       ry="0" />
    <path
       id="rect4"
       style="display:inline;opacity:1;fill:#000080;stroke-width:8.46668;stroke-linecap:round;stroke-linejoin:round;stroke-miterlimit:1;paint-order:fill markers stroke"
       d="M 16.933333,0 0,19.352307 V 38.704614 L 33.866666,0 Z M 50.799999,0 0,58.056921 V 77.409744 L 67.733332,0 Z M 84.666666,0 0,96.762051 V 116.11436 L 101.6,0 Z M 118.53333,0 0,135.46666 H 16.933333 L 135.46666,0 Z M 135.46666,19.352307 33.866666,135.46666 H 50.799999 L 135.46666,38.704614 Z m 0,38.704614 -67.733328,77.409739 H 84.666666 L 135.46666,77.409744 Z m 0,38.70513 L 101.6,135.46666 h 16.93333 l 16.93333,-19.3523 z" />
    <path
       id="text2"
       style="font-size:56.7469px;line-height:1.25;font-family:Aharoni;-inkscape-font-specification:'Aharoni, Normal';font-variant-ligatures:none;text-align:center;text-orientation:upright;text-anchor:middle;fill:#000000;stroke-width:0.264583;filter:url(#filter5)"
       d="m 95.162408,30.360938 c -4.063905,0 -7.315066,1.357709 -9.753409,4.073136 -2.08737,2.309038 -3.131075,5.218413 -3.131075,8.72815 0,3.361958 1.00649,5.873983 3.01997,7.536491 0.701948,0.57264 1.551695,1.071686 2.549199,1.496549 0.628058,0.277084 2.161376,0.775613 4.599719,1.496033 2.013481,0.572641 3.445103,1.136167 4.294828,1.690336 1.145283,0.738892 1.717725,1.662552 1.717725,2.77089 0,1.219171 -0.516878,2.161181 -1.551327,2.826184 -0.88667,0.591114 -1.96759,0.886768 -3.242179,0.886768 -2.826262,0 -5.717288,-1.329926 -8.672855,-3.989938 l -4.21163,7.924581 c 4.045434,2.863206 8.432563,4.294828 13.161471,4.294828 2.25362,0 4.35938,-0.341785 6.317445,-1.02526 5.61558,-1.939591 8.42377,-6.104979 8.42377,-12.496395 0,-2.49376 -0.63744,-4.53504 -1.91202,-6.123657 -1.47779,-1.865702 -3.95312,-3.306757 -7.425908,-4.322733 -2.770844,-0.812782 -4.433123,-1.385224 -4.987292,-1.717725 -1.237644,-0.72042 -1.856734,-1.5796 -1.856734,-2.577104 0,-1.015976 0.471263,-1.828508 1.41335,-2.438094 0.831254,-0.535696 1.773264,-0.803568 2.826184,-0.803568 2.179732,0 4.34106,0.830881 6.48384,2.493388 l 3.93465,-7.647079 C 103.244,31.386294 99.244786,30.360938 95.162408,30.360938 Z m -59.905906,0.914156 -6.42855,37.821981 h 9.78132 l 3.214274,-21.778516 8.728149,21.778516 h 3.906739 l 9.143627,-21.778516 2.798796,21.778516 h 9.836609 L 70.529287,31.275094 H 60.748489 L 52.629605,51.446989 44.954621,31.275094 Z m -13.33252,38.819852 v 37.230814 h 14.29215 c 2.00021,0 3.96417,-0.33645 5.891634,-1.00924 3.636738,-1.27286 6.618712,-3.55485 8.946224,-6.846106 2.345696,-3.309432 3.518648,-6.900377 3.518648,-10.773503 0,-2.782104 -0.636068,-5.482862 -1.908927,-8.101314 -1.563797,-3.163962 -3.809482,-5.691379 -6.737056,-7.582483 -2.982126,-1.945654 -6.219253,-2.918168 -9.710523,-2.918168 z m 9.68262,8.100798 h 2.20968 c 3.78221,0 6.62766,1.26345 8.536947,3.790983 1.436512,1.909287 2.154908,4.146284 2.154908,6.710184 0,2.5639 -0.718396,4.809586 -2.154908,6.737057 -1.891097,2.527536 -4.736557,3.790986 -8.536947,3.790986 h -2.20968 z m 42.795317,2.891296 c -5.200535,0 -9.209734,1.536494 -12.028206,4.609538 -2.327513,2.545717 -3.49126,5.463773 -3.49126,8.755021 0,3.654925 1.154542,6.737121 3.463871,9.246471 2.800289,3.05486 6.727677,4.58267 11.782743,4.58267 5.036882,0 8.955583,-1.52781 11.755872,-4.58267 2.309328,-2.50935 3.463871,-5.518426 3.463871,-9.02788 0,-3.473084 -1.163747,-6.464263 -3.49126,-8.973612 C 83.002711,82.623534 79.18423,81.08704 74.401919,81.08704 Z m 33.303391,0.135909 c -4.61865,0 -8.282722,1.564109 -10.992092,4.691703 -2.182042,2.50935 -3.272668,5.436611 -3.272668,8.78241 0,3.327612 1.090626,6.255398 3.272668,8.782938 2.70937,3.12759 6.373442,4.69118 10.992092,4.69118 2.03658,0 3.98264,-0.46324 5.83737,-1.39061 v -7.609876 c -1.60016,1.091016 -3.14586,1.636076 -4.63692,1.636076 -1.78201,0 -3.2551,-0.57268 -4.41886,-1.718246 -1.16375,-1.14557 -1.74563,-2.60946 -1.74563,-4.391462 0,-1.782002 0.58188,-3.245374 1.74563,-4.390946 1.16376,-1.145572 2.63685,-1.718759 4.41886,-1.718759 1.50924,0 3.05494,0.554777 4.63692,1.663982 v -7.609872 c -1.81837,-0.945552 -3.76443,-1.418518 -5.83737,-1.418518 z m -33.576243,7.583 c 1.636532,0 3.027816,0.572668 4.173389,1.718241 1.163756,1.127389 1.74563,2.509468 1.74563,4.146 0,1.654714 -0.572669,3.054684 -1.718242,4.200264 -1.145572,1.12738 -2.546061,1.690856 -4.200777,1.690856 -1.854736,0 -3.363616,-0.690786 -4.527372,-2.072746 -0.945552,-1.10921 -1.418518,-2.381862 -1.418518,-3.818374 0,-1.418328 0.472966,-2.682295 1.418518,-3.7915 1.163756,-1.38196 2.672636,-2.072741 4.527372,-2.072741 z" />
    <g
       id="g5"
       transform="translate(1.0228295,0.3030478)">
      <path
         d="M 75.214617,67.206871 H 65.378119 L 62.579566,45.428032 53.435778,67.206871 h -3.906891 l -8.72816,-21.778839 -3.21418,21.778839 h -9.781082 l 6.42836,-37.82203 h 9.697956 l 7.67524,20.17175 8.118575,-20.17175 h 9.781081 z M 107.66121,54.682653 q 0,9.587123 -8.423368,12.49651 -2.937096,1.025212 -6.317526,1.025212 -7.093362,0 -13.161512,-4.294809 l 4.211684,-7.924616 q 4.433351,3.990016 8.672743,3.990016 1.911883,0 3.241889,-0.88667 1.551673,-0.997504 1.551673,-2.826261 0,-1.662507 -1.717924,-2.770845 -1.274589,-0.831253 -4.294809,-1.690215 -3.657515,-1.08063 -4.599602,-1.496256 -1.496257,-0.637295 -2.549177,-1.496257 -3.020221,-2.49376 -3.020221,-7.536697 0,-5.264605 3.131054,-8.728161 3.657515,-4.073141 9.753373,-4.073141 6.123563,0 11.997753,3.075637 l -3.93459,7.647532 q -3.214184,-2.493761 -6.483781,-2.493761 -1.579382,0 -2.826262,0.803545 -1.41313,0.914379 -1.41313,2.438344 0,1.496256 1.856466,2.576885 0.831253,0.498752 4.98752,1.717924 5.209187,1.523964 7.425867,4.322517 1.91188,2.382927 1.91188,6.123567 z"
         id="text1"
         style="font-size:56.7469px;line-height:1.25;font-family:Aharoni;-inkscape-font-specification:'Aharoni, Normal';font-variant-ligatures:none;text-align:center;text-orientation:upright;text-anchor:middle;fill:#ffffff;stroke-width:0.264583"
         aria-label="MS" />
      <path
         d="m 53.550056,86.806272 q 0,5.809689 -3.518544,10.773837 -3.491268,4.936871 -8.946376,6.846161 -2.891206,1.00919 -5.891515,1.00919 H 20.90124 V 68.204356 h 14.292381 q 5.236903,0 9.71009,2.918482 4.391362,2.836656 6.737058,7.582599 1.909287,3.927678 1.909287,8.100835 z m -10.064672,0 q 0,-3.845851 -2.154768,-6.709782 -2.863931,-3.7913 -8.537243,-3.7913 h -2.209318 v 21.029439 h 2.209318 q 5.700587,0 8.537243,-3.7913 2.154768,-2.891207 2.154768,-6.737057 z m 44.840981,5.973342 q 0,5.264179 -3.463994,9.028206 -4.200432,4.58229 -11.755756,4.58229 -7.582599,0 -11.783031,-4.58229 -3.463993,-3.764027 -3.463993,-9.24641 0,-4.936872 3.491268,-8.755447 4.227708,-4.609566 12.028512,-4.609566 7.173466,0 11.455725,4.609566 3.491269,3.764024 3.491269,8.973651 z m -9.300958,0 q 0,-2.454798 -1.745635,-4.145881 -1.718358,-1.718359 -4.173157,-1.718359 -2.782104,0 -4.527739,2.072941 -1.418328,1.663807 -1.418328,3.791299 0,2.154768 1.418328,3.818575 1.745635,2.072941 4.527739,2.072941 2.482074,0 4.200433,-1.691083 1.718359,-1.718359 1.718359,-4.200433 z m 33.494363,12.110336 q -2.78211,1.39105 -5.83697,1.39105 -6.927985,0 -10.99204,-4.69139 -3.273064,-3.791297 -3.273064,-8.78272 0,-5.018699 3.273064,-8.782723 4.064055,-4.691392 10.99204,-4.691392 3.10941,0 5.83697,1.418328 v 7.609874 q -2.37298,-1.663807 -4.63684,-1.663807 -2.67301,0 -4.41864,1.718358 -1.74564,1.718359 -1.74564,4.391362 0,2.673002 1.74564,4.391361 1.74563,1.718359 4.41864,1.718359 2.23659,0 4.63684,-1.636532 z"
         id="text3"
         style="font-size:55.8603px;line-height:1.25;font-family:Aharoni;-inkscape-font-specification:'Aharoni, Normal';font-variant-ligatures:none;text-align:center;text-orientation:upright;text-anchor:middle;fill:#ffffff;stroke-width:0.264583"
         aria-label="Doc" />
      <text
         xml:space="preserve"
         style="font-size:56.7469px;line-height:1.25;font-family:Aharoni;-inkscape-font-specification:'Aharoni, Normal';font-variant-ligatures:none;text-align:center;text-orientation:upright;text-anchor:middle;display:none;fill:#ffffff;stroke-width:0.264583"
         x="67.719482"
         y="67.206871"
         id="text4"
         sodipodi:insensitive="true"><tspan
           sodipodi:role="line"
           style="fill:#ffffff;stroke-width:0.264583"
           x="0"
           y="0"
           id="tspan1">MS</tspan></text>
      <text
         xml:space="preserve"
         style="font-size:55.8603px;line-height:1.25;font-family:Aharoni;-inkscape-font-specification:'Aharoni, Normal';font-variant-ligatures:none;text-align:center;text-orientation:upright;text-anchor:middle;display:none;fill:#ffffff;stroke-width:0.264583"
         x="65.783134"
         y="105.43546"
         id="text5"
         sodipodi:insensitive="true"><tspan
           sodipodi:role="line"
           id="tspan4"
           style="fill:#ffffff;stroke-width:0.264583"
           x="0"
           y="0">Doc</tspan></text>
    </g>
  </g>
</svg>
