<?xml version="1.0" encoding="UTF-8" standalone="no"?>
<!-- Created with Inkscape (http://www.inkscape.org/) -->

<svg
   width="512"
   height="512"
   viewBox="0 0 135.46666 135.46667"
   version="1.1"
   id="svg5"
   inkscape:version="1.4.2 (ebf0e940d0, 2025-05-08)"
   sodipodi:docname="application-rnote.svg"
   xml:space="preserve"
   xmlns:inkscape="http://www.inkscape.org/namespaces/inkscape"
   xmlns:sodipodi="http://sodipodi.sourceforge.net/DTD/sodipodi-0.dtd"
   xmlns="http://www.w3.org/2000/svg"
   xmlns:svg="http://www.w3.org/2000/svg"><sodipodi:namedview
     id="namedview7"
     pagecolor="#242424"
     bordercolor="#666666"
     borderopacity="1"
     inkscape:showpageshadow="0"
     inkscape:pageopacity="0"
     inkscape:pagecheckerboard="1"
     inkscape:deskcolor="#000000"
     inkscape:document-units="px"
     showgrid="false"
     inkscape:zoom="0.65186406"
     inkscape:cx="510.07567"
     inkscape:cy="134.23044"
     inkscape:window-width="3256"
     inkscape:window-height="1080"
     inkscape:window-x="1864"
     inkscape:window-y="0"
     inkscape:window-maximized="0"
     inkscape:current-layer="layer1" /><defs
     id="defs2"><inkscape:path-effect
       effect="fillet_chamfer"
       id="path-effect3"
       is_visible="true"
       lpeversion="1"
       nodesatellites_param="F,0,1,1,0,1.8520832,0,1 @ F,0,0,1,0,0,0,1 @ F,0,0,1,0,0,0,1 @ F,0,1,1,0,1.8520832,0,1"
       radius="7"
       unit="px"
       method="auto"
       mode="F"
       chamfer_steps="1"
       flexible="false"
       use_knot_distance="true"
       apply_no_radius="true"
       apply_with_radius="true"
       only_selected="true"
       hide_knots="false" /></defs><g
     inkscape:label="Layer 1"
     inkscape:groupmode="layer"
     id="layer1"><path
       id="path3"
       style="fill:#000000;fill-opacity:1;stroke-width:1.5875;stroke-linecap:round;stroke-linejoin:round;stroke-miterlimit:12;paint-order:markers stroke fill"
       d="m 99.034891,0.0986606 h 28.117589 v 7.9374999 h 3.471 V 135.46666 H 17.543225 V 8.0361605 h 81.491666 z"
       sodipodi:nodetypes="ccccccccc" /><path
       id="path2"
       style="fill:#0d0d0d;fill-opacity:1;stroke-width:1.5875;stroke-linecap:round;stroke-linejoin:round;stroke-miterlimit:12;paint-order:markers stroke fill"
       d="M 69.401557,0.0986606 H 97.519139 V 8.0361605 H 128.5068 V 135.46666 H 15.426557 V 8.0361605 h 53.975 z"
       sodipodi:nodetypes="ccccccccc" /><path
       id="path1"
       style="fill:#1a1a1a;fill-opacity:1;stroke-width:1.5875;stroke-linecap:round;stroke-linejoin:round;stroke-miterlimit:12;paint-order:markers stroke fill"
       d="M 40.297389,0.0986606 H 68.414971 V 8.0361605 H 126.39012 V 135.46666 H 13.309889 V 8.0361605 h 26.9875 z"
       sodipodi:nodetypes="ccccccccc" /><path
       id="rect1"
       style="fill:#262626;stroke-width:1.5875;stroke-linecap:round;stroke-linejoin:round;stroke-miterlimit:12;paint-order:markers stroke fill;fill-opacity:1"
       d="M 11.193221,0.0986606 H 39.310803 V 8.0361605 H 124.27344 V 135.46666 H 11.193221 Z"
       sodipodi:nodetypes="ccccccc" /><path
       d="m 101.00258,43.261354 c -0.21677,-1.669826 1.13664,-4.312248 0.95502,-7.909697 -0.18747,-3.603302 -2.033091,-8.624493 -9.608812,-12.26881 -0.134742,-0.06447 -0.269515,-0.128906 -0.410148,-0.193376 -4.927445,-2.273304 -12.110622,-3.902114 -20.489039,-3.105285 -6.509382,0.621056 -13.270704,2.677574 -19.645328,6.304317 -5.735997,3.251761 -11.020841,7.704625 -15.309656,13.212116 -2.51938,3.462686 -4.716514,7.382382 -6.286739,11.612596 -0.679645,1.828019 -1.242115,3.720487 -1.663962,5.653967 -0.544904,2.513524 -0.843702,5.261411 -0.726524,8.161634 0.310546,4.59934 1.681543,9.626391 4.74582,14.149558 1.44718,2.144408 3.245903,4.089606 5.325856,5.712558 2.068242,1.622951 4.435294,2.935375 7.019123,3.796651 4.142331,1.353439 8.214363,1.353439 11.583306,0.843706 1.787003,-0.269512 3.427536,-0.685508 4.874711,-1.148375 1.787008,-0.568324 3.427538,-1.224537 4.722386,-1.781147 2.824046,-1.236251 5.472328,-2.718588 7.581586,-3.913831 2.10925,-1.195243 4.177486,-2.396343 6.163702,-3.368943 1.183518,-0.562474 2.589686,-1.189383 3.978281,-1.663965 0.36911,-0.123004 0.738235,-0.24021 1.10736,-0.339814 1.382726,-0.380843 2.747875,-0.550739 3.960703,-0.427725 1.037047,0.09961 1.915898,0.439403 2.507656,0.855419 0.251945,0.158207 0.468711,0.380843 0.650367,0.615202 0.158196,0.216775 0.263672,0.421825 0.322203,0.533165 0.06453,0.140606 0.09956,0.427721 -0.01195,0.843698 -0.105406,0.42183 -0.333937,0.908151 -0.685515,1.394451 -0.363258,0.498021 -0.867125,1.013612 -1.546774,1.546783 -0.667929,0.515592 -1.464765,1.01947 -2.390484,1.50577 -2.033086,0.978456 -4.054453,1.634666 -6.896081,2.695155 -2.577978,0.960882 -5.653964,2.202997 -8.536612,4.171628 -1.511631,1.066348 -3.023256,2.396349 -4.323967,4.007579 -1.294846,1.61124 -2.419776,3.556437 -3.046692,5.835601 -0.562473,2.27917 -0.591764,4.81028 0.164074,7.24178 0.380843,1.23626 0.966745,2.40807 1.716699,3.45097 0.761674,1.05463 1.716697,2.00965 2.847491,2.77133 2.009642,1.33586 4.22436,1.82802 6.140263,1.88074 h 0.650353 c 1.62295,-0.0409 3.169737,-0.375 4.581763,-0.84955 1.476474,-0.45113 2.812334,-1.06049 3.960709,-1.59952 1.171797,-0.55664 2.074094,-1.00775 3.017398,-1.38273 0.861274,-0.38084 1.611227,-0.62691 2.290883,-0.73238 0.644492,-0.0996 1.171797,-0.0527 1.552633,0.0527 0.169906,0.047 0.322219,0.123 0.445305,0.1992 0.117203,0.0762 0.199203,0.14648 0.240242,0.18164 0.06453,0.0294 0.123,0.0762 0.164078,0.0879 0.04711,0 0.08787,0.0234 0.146469,0.0119 0.05266,-0.0119 0,0.17581 -0.210938,0.42182 -0.246078,0.28708 -0.603476,0.57419 -1.154234,1.0019 -0.533164,0.40426 -1.259688,0.93744 -1.921758,1.59366 -0.732383,0.72066 -1.44718,1.63467 -1.886609,2.76546 -0.439454,1.14251 -0.50975,2.31432 -0.32811,3.34551 0.210938,1.20109 0.767532,2.18541 1.412016,2.88264 0.867148,0.94916 1.874898,1.35344 2.619,1.46476 0.181641,0.0234 0.351523,0.0352 0.50975,0.0293 1.324142,-0.047 1.857306,-1.06048 2.091673,-1.35929 -0.328117,-0.31055 -0.66207,-1.10736 -0.925734,-1.787 -0.0293,-0.0762 -0.05852,-0.14648 -0.08203,-0.22268 -0.105408,-0.29882 -0.199205,-0.62692 -0.175814,-0.91987 0.01195,-0.21095 0.06453,-0.43356 0.164079,-0.57418 0.08203,-0.123 0.199204,-0.23434 0.304641,-0.27541 0.105406,-0.047 0.28125,-0.18748 0.597617,-0.38084 0.392578,-0.23434 0.667938,-0.36911 1.365156,-0.7441 0.544899,-0.28708 1.353438,-0.73237 2.126821,-1.33585 0.773398,-0.60349 1.663984,-1.48234 2.29675,-2.70688 0.562487,-1.09564 0.837847,-2.30846 0.837847,-3.5037 0.006,-1.19524 -0.26368,-2.35533 -0.732386,-3.39238 -0.492188,-1.04272 -1.171821,-1.93329 -1.945211,-2.66567 -0.77925,-0.73824 -1.663969,-1.32415 -2.589696,-1.76357 -1.857312,-0.87301 -3.814228,-1.11909 -5.530923,-1.05463 -1.775289,0.0644 -3.404102,0.46287 -4.745813,0.88471 -1.324148,0.44529 -2.695158,1.0312 -3.667757,1.42375 -1.119077,0.45114 -1.980356,0.76168 -2.794759,0.94917 -0.767535,0.13473 -1.34758,0.123 -1.769431,0.0293 -0.05273,-0.0119 -0.105439,-0.0234 -0.158207,-0.0409 -0.427721,-0.13474 -0.66207,-0.36911 -0.597621,-0.48629 0.03514,-0.047 0.04083,-0.10543 0.05273,-0.20504 0.01192,-0.0938 0.02341,-0.1992 0.0703,-0.29297 0.0703,-0.19921 0.187474,-0.5449 0.427721,-0.86715 0.17581,-0.35743 0.468713,-0.76167 0.949164,-1.21868 0.492177,-0.46871 1.136654,-0.94331 1.910045,-1.36516 1.558501,-0.93745 3.415814,-1.634679 5.823876,-2.390499 2.22643,-0.703078 5.278992,-1.564357 8.08547,-2.730302 1.511625,-0.597623 3.081852,-1.330002 4.605196,-2.25573 1.558508,-0.943306 3.099422,-2.10339 4.505602,-3.538853 1.45888,-1.499912 2.72445,-3.269342 3.65603,-5.24969 0.95502,-2.038948 1.57607,-4.353263 1.63467,-6.831636 0.0587,-2.443215 -0.43941,-4.751676 -1.27141,-6.790617 -0.85542,-2.115108 -2.10339,-4.013436 -3.59159,-5.601235 C 99.654698,62.78402 95.664698,60.956 92.078962,60.165027 c -4.154039,-0.919867 -8.050304,-0.580043 -11.044263,0.05273 -0.831981,0.18164 -1.617094,0.380839 -2.349471,0.597622 -2.765467,0.8144 -5.062206,1.910041 -6.673439,2.759604 -2.618988,1.353435 -5.226257,2.999823 -7.001543,4.083744 -2.062378,1.259689 -3.907971,2.349474 -5.759425,3.187312 -0.826158,0.380839 -1.728449,0.720673 -2.665894,0.955034 -0.749961,0.181641 -1.482338,0.304643 -2.202998,0.339778 -1.376873,0.0703 -2.536958,-0.175809 -3.322066,-0.62692 -0.457035,-0.246076 -0.925732,-0.603481 -1.353444,-1.072204 -0.427721,-0.474604 -0.790966,-1.025325 -1.037046,-1.611229 -0.562474,-1.300711 -0.73824,-2.87679 -0.492178,-4.370841 0.06447,-0.931582 0.269511,-1.869031 0.591765,-2.800616 0.251944,-0.720659 0.597621,-1.453036 1.037053,-2.191276 1.031189,-1.734272 2.525237,-3.3748 4.277087,-4.786832 2.724452,-2.513521 5.911767,-4.329822 9.145953,-5.50749 3.597443,-1.312422 7.042556,-1.763567 10.065817,-1.787005 3.866959,-0.02339 7.329646,0.638636 10.042373,0.955023 0.07617,0.0056 0.152344,0.01745 0.228516,0.02339 4.288805,0.474605 7.575727,-0.527325 10.493525,-1.921759 2.829914,-1.347579 5.361008,-3.169738 6.942966,-3.181455 z m 0,0"
       fill="#555555"
       id="path29"
       style="display:inline;fill:#d7eef4;stroke-width:0.264584" /><path
       id="rect3"
       style="fill:#4d4d4d;stroke-width:1.5875;stroke-linecap:round;stroke-linejoin:round;stroke-miterlimit:12;paint-order:markers stroke fill"
       d="m 10.928637,8.0361633 h 0.264584 V 135.46666 H 10.928637 A 1.8520832,1.8520832 45 0 1 9.0765533,133.61458 V 9.8882465 A 1.8520832,1.8520832 135 0 1 10.928637,8.0361633 Z"
       sodipodi:nodetypes="ccccc" /></g></svg>
