<?xml version="1.0" encoding="UTF-8" standalone="no"?>
<!-- Created with Inkscape (http://www.inkscape.org/) -->

<svg
   width="512"
   height="512"
   viewBox="0 0 135.46666 135.46667"
   version="1.1"
   id="svg5"
   inkscape:version="1.4 (e7c3feb100, 2024-10-09)"
   xml:space="preserve"
   sodipodi:docname="application-java.svg"
   xmlns:inkscape="http://www.inkscape.org/namespaces/inkscape"
   xmlns:sodipodi="http://sodipodi.sourceforge.net/DTD/sodipodi-0.dtd"
   xmlns:xlink="http://www.w3.org/1999/xlink"
   xmlns="http://www.w3.org/2000/svg"
   xmlns:svg="http://www.w3.org/2000/svg"><sodipodi:namedview
     id="namedview7"
     pagecolor="#242424"
     bordercolor="#666666"
     borderopacity="1"
     inkscape:showpageshadow="0"
     inkscape:pageopacity="0"
     inkscape:pagecheckerboard="1"
     inkscape:deskcolor="#000000"
     inkscape:document-units="px"
     showgrid="false"
     inkscape:zoom="1.84375"
     inkscape:cx="247.86441"
     inkscape:cy="324.0678"
     inkscape:window-width="3256"
     inkscape:window-height="1080"
     inkscape:window-x="1864"
     inkscape:window-y="0"
     inkscape:window-maximized="0"
     inkscape:current-layer="layer1" /><defs
     id="defs2"><linearGradient
       id="linearGradient8"><stop
         id="stop7"
         style="stop-color:#e11f21;stop-opacity:1;"
         offset="0" /><stop
         id="stop8"
         style="stop-color:#ffb15d;stop-opacity:1"
         offset="1" /></linearGradient><linearGradient
       x1="64"
       y1="60"
       x2="62"
       y2="7"
       id="linearGradient3724"
       xlink:href="#linearGradient3763"
       gradientUnits="userSpaceOnUse"
       gradientTransform="matrix(1.231823,0,0,1.231823,-157.81615,7.1708322)" /><linearGradient
       id="linearGradient3763"><stop
         id="stop3765"
         style="stop-color:#ff7700;stop-opacity:1"
         offset="0" /><stop
         id="stop3767"
         style="stop-color:#ffb15d;stop-opacity:1"
         offset="1" /></linearGradient><clipPath
       id="clipPath3716"><path
         d="m -118,6 c -3.324,0 -6,2.676 -6,6 v 72 c 0,3.324 2.676,6 6,6 h 72 c 3.324,0 6,-2.676 6,-6 V 12 c 0,-3.324 -2.676,-6 -6,-6 z m 42.53125,9.4375 c 0,0 6.742786,6.784262 -6.4375,17.1875 -10.569721,8.348428 -2.406258,13.091934 0,18.53125 -6.170339,-5.566626 -10.691951,-10.439321 -7.65625,-15 4.457852,-6.693689 16.821977,-9.970594 14.09375,-20.71875 z m 8.125,13.34375 c -14.197756,8.233791 -11.545654,10.600025 -8.125,15.40625 3.661158,5.156183 -4.3125,9.25 -4.3125,9.25 0,0 3.954627,-3.226804 0.8125,-6.84375 -10.643745,-12.265213 11.625144,-17.8125 11.625,-17.8125 z m 3.59375,21.875 c 6.598371,-0.338475 10.187997,8.957958 -4.59375,12.84375 -1.44e-4,0 0.16215,-0.192534 0.21875,-0.34375 12.215092,-6.34575 6.567276,-12.446464 2.625,-11.625 -0.964039,0.201189 -1.40625,0.375 -1.40625,0.375 0,0 0.378571,-0.570411 1.0625,-0.8125 0.731171,-0.256932 1.41116,-0.40248 2.09375,-0.4375 z m -26.40625,0.625 c 0.519115,-0.01358 0.8125,0 0.8125,0 0,0 -11.82939,2.822105 -4.1875,3.84375 3.227673,0.431901 9.630792,0.315402 15.625,-0.1875 4.897387,-0.41102 9.8125,-1.25 9.8125,-1.25 0,0 -1.719415,0.709928 -2.96875,1.5625 -12.017218,3.160705 -35.24553,1.700167 -28.5625,-1.53125 4.236968,-2.049735 7.911406,-2.39676 9.46875,-2.4375 z m -1.9375,7.40625 c 0,0 -2.823626,2.059601 1.4375,2.5 5.511613,0.569005 9.87295,0.637302 17.40625,-0.8125 0,0 1.050477,1.047931 2.6875,1.625 -15.407629,4.506818 -32.55548,0.346355 -21.53125,-3.3125 z m 1.53125,7.125 c 0,0 -2.476708,1.449143 1.78125,1.9375 5.159208,0.589021 7.816289,0.511854 13.5,-0.5625 0,0 1.474997,0.907513 3.5625,1.71875 -12.745505,5.460632 -28.85383,-0.296827 -18.84375,-3.09375 z m -6.46875,4.71875 c 0.614519,0.02364 1.14585,0.147618 1.46875,0.375 0,0 -0.852618,-0.05906 -2.28125,0.25 -1.370161,0.295952 -5.69609,1.676512 -3.375,2.6875 6.461397,2.810602 29.707491,2.165274 37.0625,-0.0625 3.867966,-1.173437 2.03125,-2.71875 2.03125,-2.71875 6.739204,3.040884 -14.609199,9.149373 -40.59375,4.9375 -8.33743,-1.353006 1.38587,-5.63424 5.6875,-5.46875 z M -58,74.375 c -0.426144,5.547328 -18.43383,6.718207 -30.15625,5.96875 -7.704246,-0.495845 -9.1875,-1.71875 -9.1875,-1.71875 7.318718,1.208433 19.649918,1.415115 29.65625,-0.46875 C -58.817879,76.487689 -58,74.375 -58,74.375 Z"
         inkscape:connector-curvature="0"
         id="path3718"
         style="display:inline;fill:#ff00ff;fill-opacity:1;fill-rule:nonzero;stroke:none" /></clipPath><filter
       style="color-interpolation-filters:sRGB"
       x="-0.17383916"
       y="-0.13525651"
       width="1.3476862"
       height="1.26344"
       id="filter3720"><feGaussianBlur
         id="feGaussianBlur3722"
         stdDeviation="3.3931715" /></filter></defs><g
     inkscape:label="who uses this garbage lang?"
     inkscape:groupmode="layer"
     id="layer1"><path
       id="path2"
       style="display:inline;fill:#37abc8;fill-opacity:1;fill-rule:evenodd;stroke-width:0.199894"
       d="M 111.61954 73.269429 C 111.37955 73.270789 111.13764 73.277028 110.894 73.288032 C 109.28096 73.360902 107.61852 73.634512 105.89069 74.169115 C 104.27449 74.672834 103.43451 75.851183 103.43451 75.851183 C 103.43451 75.851183 104.43112 75.468816 106.70925 75.050198 C 116.02526 73.340963 129.38913 86.035183 100.52358 99.238903 C 100.38983 99.553541 99.977536 99.959789 99.977876 99.959789 C 134.36292 92.000881 126.73928 73.183753 111.61954 73.269429 z M 49.905997 74.558756 C 49.581764 74.555223 49.104458 74.555478 48.491096 74.569608 C 44.810928 74.654378 36.125536 75.350889 26.113134 79.615811 C 10.320419 86.339479 65.212352 89.395771 93.610306 82.819233 C 96.562618 81.045271 100.61453 79.535713 100.61453 79.535713 C 100.61453 79.535713 88.991055 81.323228 77.418013 82.178445 C 63.253066 83.224843 48.113232 83.477602 40.4859 82.578938 C 22.427311 80.453181 50.401057 74.569608 50.401057 74.569608 C 50.401057 74.569608 50.230231 74.562288 49.905997 74.558756 z M 43.851586 89.947997 C 17.800159 97.561044 58.382808 106.21389 94.792662 96.836465 C 90.924204 95.635746 88.425092 93.47233 88.425092 93.47233 C 70.623108 96.488961 60.332747 96.338336 47.308223 95.154397 C 37.238733 94.238051 43.851586 89.947997 43.851586 89.947997 z M 47.490124 104.7657 C 23.835253 110.58531 61.944656 122.6157 92.06363 111.25367 C 87.13064 109.56571 83.603681 107.64924 83.603681 107.64924 C 70.172471 109.88467 63.866633 110.07631 51.674881 108.85072 C 41.612876 107.83459 47.490124 104.7657 47.490124 104.7657 z M 32.207853 114.61781 C 22.042648 114.27347 -0.95763116 123.17604 18.744592 125.99127 C 80.14883 134.75499 130.6399 122.06642 114.71444 115.73919 C 114.71444 115.73919 119.03345 118.90397 109.89303 121.34556 C 92.512374 125.98093 37.561647 127.35383 22.292696 121.50576 C 16.807698 119.40217 27.059541 116.51517 30.297375 115.89938 C 33.673384 115.25632 35.664489 115.41879 35.664489 115.41879 C 34.901442 114.94567 33.660026 114.667 32.207853 114.61781 z M 124.4477 122.62714 C 124.4477 122.62714 122.4844 127.00499 101.52455 130.47679 C 77.878528 134.39658 48.775152 133.95238 31.480249 131.43797 C 31.480249 131.43797 35.015094 134.01017 53.22104 135.04188 C 80.922357 136.60129 123.44067 134.16957 124.4477 122.62714 z " /><path
       id="path14"
       style="display:inline;fill:#5fbcd3;fill-opacity:1;fill-rule:evenodd;stroke-width:0.199894"
       d="M 114.35323 73.467349 C 113.31846 73.612224 112.2645 73.834294 111.18236 74.169115 C 110.53902 74.369626 110.05486 74.675255 109.66152 74.972684 C 110.14866 75.0285 110.63398 75.112582 111.11156 75.232616 C 111.39806 75.172261 111.65698 75.113398 112.00091 75.050198 C 120.57924 73.476308 132.56154 84.11604 111.87276 96.119713 C 130.62767 87.812483 125.589 75.192138 114.35323 73.467349 z M 48.715889 74.962349 C 44.296228 75.497095 38.175791 76.731614 31.404801 79.615811 C 22.11599 83.570475 37.317595 86.235739 57.161368 86.439167 C 69.72558 86.291448 83.379462 85.188542 93.610306 82.819233 C 95.016579 81.974243 96.655849 81.201539 98.004353 80.611099 C 93.723056 81.149153 88.245718 81.769347 82.709679 82.178445 C 73.540625 82.855785 63.99584 83.193399 56.311808 83.108621 C 49.884252 83.184638 44.2614 83.023773 40.4859 82.578938 C 24.288112 80.672224 44.249769 75.958102 48.715889 74.962349 z M 41.867728 93.238752 C 37.542797 97.131684 48.323697 100.56474 64.442061 100.89668 C 73.820317 100.70157 84.472463 99.494452 94.792662 96.836465 C 92.248039 96.046647 90.387153 94.885044 89.349067 94.151875 C 79.742565 95.59258 72.297892 96.045176 65.148994 95.898538 C 59.090489 96.032292 53.501563 95.717377 47.308223 95.154397 C 43.725584 94.828369 42.275999 94.073753 41.867728 93.238752 z M 46.320686 107.49938 C 42.244238 111.18993 52.676835 115.44543 67.359195 115.91127 C 75.267567 115.66649 83.951707 114.3138 92.06363 111.25367 C 88.46029 110.02069 86.163091 108.92053 84.886807 108.27969 C 77.899501 109.32733 72.780427 109.70506 67.12045 109.54835 C 62.360369 109.71857 57.747668 109.46119 51.674881 108.85072 C 48.619258 108.54214 47.047422 108.04314 46.320686 107.49938 z M 33.939013 114.81521 C 22.976998 116.08667 6.3915096 123.47003 24.036259 125.99127 C 37.874586 127.9663 51.147124 128.84423 63.241617 128.95854 C 88.236961 128.73 107.38236 125.22092 114.56613 121.49698 C 104.46164 124.02892 83.079886 125.54125 63.566662 125.35979 C 46.355161 125.46203 29.678324 124.33449 22.292696 121.50576 C 16.807698 119.40217 27.059541 116.51517 30.297375 115.89938 C 33.673384 115.25632 35.664489 115.41879 35.664489 115.41879 C 35.23114 115.1501 34.631922 114.95206 33.939013 114.81521 z M 121.55744 127.06976 C 118.18825 128.18441 113.46266 129.37587 106.81622 130.47679 C 93.589944 132.6693 78.65852 133.49452 65.038923 133.35775 C 55.569084 133.43716 46.533989 133.04935 38.878247 132.31389 C 41.523575 133.15801 47.166309 134.3989 58.512707 135.04188 C 62.608312 135.27244 67.044627 135.40285 71.605964 135.44238 C 92.049011 135.25508 113.85813 132.93859 121.55744 127.06976 z " /><path
       id="path11"
       style="display:inline;fill:#ff2a2a;fill-opacity:1;fill-rule:evenodd;stroke-width:0.199894"
       d="M 83.148929 0 C 83.19973 0.17622114 83.229136 0.34298152 83.275536 0.51728108 C 86.365501 5.1753633 90.499036 17.366202 66.370108 34.135384 C 41.392738 51.506112 60.683868 61.424126 66.370108 72.741812 C 62.172691 69.407583 58.319257 66.194312 55.099478 63.077286 C 58.595429 66.687027 63.043829 70.426039 67.957608 74.329312 C 62.271368 63.011626 42.980238 53.093612 67.957608 35.722884 C 99.104018 14.076675 83.148929 -1.0026547e-14 83.148929 0 z M 102.34311 27.713037 C 102.3432 27.713037 97.861054 28.721204 92.176285 30.731457 C 68.430812 44.257889 74.253098 49.202938 81.561429 58.244506 C 86.927171 64.898302 81.71859 70.687581 76.988065 74.129324 C 75.646895 77.098791 72.96092 79.055122 72.96092 79.055122 C 72.96092 79.055122 91.800639 70.560571 83.148929 59.832006 C 75.065569 49.831604 68.792314 44.845237 102.34311 27.713037 z " /><path
       id="path1"
       style="display:inline;fill:#ff8080;fill-opacity:1;fill-rule:evenodd;stroke-width:0.199894"
       d="m 83.148929,0 c 6.447088,22.363887 -22.759201,29.164261 -33.293575,43.091943 -7.173683,9.489489 3.52109,19.654787 18.102254,31.237369 -5.686243,-11.317686 -24.977368,-21.2357 0,-38.606428 C 99.104015,14.076675 83.148929,0 83.148929,0 Z m 2.571936,8.5105915 c 0.53092,4.1186515 -0.992113,8.2072505 -3.224093,11.6085935 -3.48208,5.299986 -8.3109,9.464915 -13.37386,13.19506 -4.67527,3.350179 -9.57286,6.766189 -12.64729,11.751738 -1.66019,2.542702 -2.585804,5.586675 -2.348694,8.634098 0.29496,4.28747 2.71249,8.041051 5.22087,11.388452 -1.07878,-1.002805 -2.132692,-2.03224 -3.152262,-3.095419 -2.75098,-3.012675 -5.657335,-6.234484 -6.603215,-10.3203 -0.68898,-2.477282 0.07246,-5.130407 1.557011,-7.163903 3.54726,-4.623277 8.405744,-7.983221 13.143384,-11.275281 5.61702,-3.972999 11.550046,-7.720877 16.049666,-13.011609 2.74047,-3.121041 4.723432,-6.96204 5.302002,-11.1000973 z M 102.34311,27.713037 c 3.4e-4,0 -52.624522,11.564103 -27.472229,37.084557 7.425178,7.525847 -1.909961,14.257528 -1.909961,14.257528 0,0 18.839713,-8.494551 10.188009,-19.223116 C 75.065562,49.831604 68.79231,44.845237 102.34311,27.713037 Z m -14.667326,6.777881 c -0.46591,0.294241 -0.920784,0.605614 -1.382344,0.906921 -3.14536,2.168625 -6.303191,4.46993 -8.665621,7.510652 -1.77576,2.287008 -2.830897,5.346981 -1.996777,8.21552 1.02128,3.792622 3.88695,6.649089 6.23011,9.666076 1.32382,1.543506 2.348226,3.502967 2.131136,5.595524 -0.37477,3.010152 -2.568606,5.402104 -4.830196,7.244002 0.4548,-1.502736 0.443555,-3.127736 0.05994,-4.644677 -0.51302,-2.329663 -2.145428,-4.145812 -3.745508,-5.81825 -2.84564,-3.015854 -5.428003,-6.723414 -5.624463,-11.001395 -0.17408,-3.925014 2.212551,-7.427122 5.013131,-9.956498 3.48424,-3.126465 7.64959,-5.395663 11.85354,-7.299813 0.31901,-0.139323 0.638037,-0.278739 0.957047,-0.418062 z" /><path
       id="path8"
       style="display:inline;fill:#ffd5d5;fill-opacity:1;fill-rule:evenodd;stroke-width:0.199894"
       d="M 83.146816,-1.5e-7 C 89.593906,22.363887 60.387616,29.16426 49.853246,43.091942 c -5.05007,6.680331 -1.22667,13.698388 6.55567,21.307227 -7.05734,-7.202707 -10.31245,-13.879366 -5.49734,-20.248893 10.50552,-13.889542 39.57261,-20.6943 33.3375,-42.9121088 C 83.628746,0.44319795 83.146816,-1.5e-7 83.146816,-1.5e-7 Z M 102.341,27.713036 c 3.4e-4,0 -52.624534,11.564104 -27.472234,37.084558 7.42517,7.525847 -1.90996,14.257528 -1.90996,14.257528 0,0 1.95427,-0.888149 4.31085,-2.437578 1.73736,-2.672267 2.7709,-6.592384 -1.34255,-10.761617 -19.5628,-19.849133 7.85534,-31.22058 21.03799,-35.309989 1.6755,-0.909479 3.443424,-1.846112 5.375904,-2.832902 z" /><path
       id="path10"
       style="display:none;fill:#cccccc;fill-opacity:1;fill-rule:evenodd;stroke-width:0.199894"
       d="m 83.148929,0 c 6.447088,22.363887 -22.759201,29.164261 -33.293575,43.091943 -7.173683,9.489489 3.52109,19.654787 18.102254,31.237369 -5.686243,-11.317686 -24.977368,-21.2357 0,-38.606428 C 99.104015,14.076675 83.148929,0 83.148929,0 Z m 19.194181,27.713037 c 3.4e-4,0 -52.624522,11.564103 -27.472229,37.084557 7.425178,7.525847 -1.909961,14.257528 -1.909961,14.257528 0,0 18.839713,-8.494551 10.188009,-19.223116 C 75.065562,49.831604 68.792314,44.845237 102.34311,27.713037 Z"
       sodipodi:insensitive="true" /><path
       id="path12"
       style="display:inline;fill:#afdde9;fill-opacity:1;fill-rule:evenodd;stroke-width:0.199894"
       d="M 109.2972 73.434276 C 108.18745 73.575937 107.05494 73.80889 105.89069 74.169115 C 105.27988 74.359487 104.8175 74.645178 104.43187 74.928242 C 104.98854 74.96765 105.54365 75.052572 106.09171 75.176806 C 106.30269 75.134119 106.47044 75.094081 106.70925 75.050198 C 115.48554 73.439986 127.83987 84.612991 105.10986 96.95222 C 126.37574 88.616281 121.11978 75.037454 109.2972 73.434276 z M 44.497025 74.835741 C 40.032771 75.293624 33.439655 76.494978 26.113134 79.615811 C 16.766144 83.595245 32.217569 86.268907 52.243839 86.442268 C 64.850251 86.301912 78.57515 85.198225 88.847806 82.819233 C 90.313715 81.938409 92.047823 81.124892 93.425304 80.526867 C 89.063392 81.082861 83.242609 81.748023 77.418013 82.178445 C 68.280619 82.853446 58.767642 83.191701 51.097139 83.110172 C 44.864306 83.173032 39.407407 83.012993 35.7234 82.578938 C 18.925339 80.601563 41.199779 75.556082 44.497025 74.835741 z M 36.992574 92.879084 C 31.538475 96.937768 42.645688 100.58821 59.39534 100.89978 C 68.843031 100.72361 79.60429 99.521668 90.030162 96.836465 C 87.411426 96.023644 85.501628 94.810075 84.488382 94.084695 C 74.741833 95.566151 67.21393 96.041664 60.006672 95.902155 C 54.095633 96.014037 48.608256 95.705486 42.545723 95.154397 C 38.45322 94.781971 37.137734 93.851562 36.992574 92.879084 z M 41.298771 107.25392 C 36.43673 111.02202 47.196586 115.49183 62.357433 115.91954 C 70.329309 115.69496 79.1076 114.34459 87.30113 111.25367 C 83.564955 109.97524 81.197773 108.82534 79.99615 108.21665 C 72.881261 109.29714 67.697791 109.70017 62.005 109.55352 C 57.368814 109.69887 52.83497 109.44609 46.912381 108.85072 C 43.401438 108.49616 41.855256 107.89075 41.298771 107.25392 z M 28.977559 114.78111 C 18.02419 115.93817 0.92011685 123.44435 18.744592 125.99127 C 32.734133 127.98789 46.142915 128.86153 58.343208 128.96009 C 84.064704 128.73746 103.64002 125.0403 110.37259 121.20242 C 110.20683 121.24982 110.0686 121.29867 109.89303 121.34556 C 100.06013 123.96797 78.206963 125.54304 58.312719 125.36031 C 41.276583 125.43805 24.845308 124.30748 17.530196 121.50576 C 12.045198 119.40217 22.297041 116.51517 25.534875 115.89938 C 28.910884 115.25632 30.901989 115.41879 30.901989 115.41879 C 30.428334 115.12511 29.755857 114.91656 28.977559 114.78111 z M 117.22023 126.73593 C 113.80867 127.94419 108.84327 129.26451 101.52455 130.47679 C 88.438555 132.64605 73.68683 133.47434 60.184439 133.3593 C 50.443817 133.43788 41.166925 133.02138 33.382458 132.24206 C 35.919383 133.08595 41.519261 134.37876 53.22104 135.04188 C 57.426453 135.27862 61.990927 135.40959 66.682234 135.44444 C 87.556307 135.26456 109.90533 132.86764 117.22023 126.73593 z " /></g></svg>
