<?xml version="1.0" encoding="UTF-8" standalone="no"?>
<!-- Created with Inkscape (http://www.inkscape.org/) -->

<svg
   width="512"
   height="512"
   viewBox="0 0 135.46666 135.46667"
   version="1.1"
   id="svg5"
   inkscape:version="1.4.2 (ebf0e940d0, 2025-05-08)"
   sodipodi:docname="application-x-atari-2600-rom.svg"
   xmlns:inkscape="http://www.inkscape.org/namespaces/inkscape"
   xmlns:sodipodi="http://sodipodi.sourceforge.net/DTD/sodipodi-0.dtd"
   xmlns:xlink="http://www.w3.org/1999/xlink"
   xmlns="http://www.w3.org/2000/svg"
   xmlns:svg="http://www.w3.org/2000/svg">
  <sodipodi:namedview
     id="namedview7"
     pagecolor="#242424"
     bordercolor="#666666"
     borderopacity="1"
     inkscape:showpageshadow="0"
     inkscape:pageopacity="0"
     inkscape:pagecheckerboard="1"
     inkscape:deskcolor="#000000"
     inkscape:document-units="px"
     showgrid="false"
     inkscape:zoom="1.3037282"
     inkscape:cx="383.89905"
     inkscape:cy="415.34733"
     inkscape:window-width="3256"
     inkscape:window-height="1080"
     inkscape:window-x="1864"
     inkscape:window-y="0"
     inkscape:window-maximized="0"
     inkscape:current-layer="layer1" />
  <defs
     id="defs2">
    <linearGradient
       id="linearGradient30"
       inkscape:collect="always">
      <stop
         style="stop-color:#ffffff;stop-opacity:1;"
         offset="0"
         id="stop30" />
      <stop
         style="stop-color:#000000;stop-opacity:1"
         offset="1"
         id="stop31" />
    </linearGradient>
    <linearGradient
       id="linearGradient28"
       inkscape:collect="always">
      <stop
         style="stop-color:#000000;stop-opacity:0;"
         offset="0"
         id="stop29" />
      <stop
         style="stop-color:#000000;stop-opacity:1;"
         offset="1"
         id="stop28" />
    </linearGradient>
    <linearGradient
       id="linearGradient21"
       inkscape:collect="always">
      <stop
         style="stop-color:#dbdbdb;stop-opacity:1;"
         offset="0"
         id="stop21" />
      <stop
         style="stop-color:#ffffff;stop-opacity:1;"
         offset="0.5"
         id="stop23" />
      <stop
         style="stop-color:#cccccc;stop-opacity:1;"
         offset="1"
         id="stop22" />
    </linearGradient>
    <linearGradient
       id="linearGradient19"
       inkscape:collect="always">
      <stop
         style="stop-color:#24230f;stop-opacity:1;"
         offset="0"
         id="stop19" />
      <stop
         style="stop-color:#ab8e34;stop-opacity:1;"
         offset="1"
         id="stop20" />
    </linearGradient>
    <linearGradient
       id="linearGradient17"
       inkscape:collect="always">
      <stop
         style="stop-color:#004455;stop-opacity:1;"
         offset="0"
         id="stop17" />
      <stop
         style="stop-color:#002d38;stop-opacity:1;"
         offset="1"
         id="stop18" />
    </linearGradient>
    <inkscape:path-effect
       effect="fillet_chamfer"
       id="path-effect16"
       is_visible="true"
       lpeversion="1"
       nodesatellites_param="F,0,1,1,0,3,0,1 @ F,0,1,1,0,3,0,1 @ F,0,1,1,0,3,0,1 @ F,0,0,1,0,0,0,1"
       radius="3"
       unit="px"
       method="auto"
       mode="F"
       chamfer_steps="1"
       flexible="false"
       use_knot_distance="true"
       apply_no_radius="true"
       apply_with_radius="true"
       only_selected="true"
       hide_knots="false" />
    <linearGradient
       id="linearGradient15"
       inkscape:collect="always">
      <stop
         style="stop-color:#ffffff;stop-opacity:1;"
         offset="0"
         id="stop15" />
      <stop
         style="stop-color:#a1a1a1;stop-opacity:0;"
         offset="1"
         id="stop16" />
    </linearGradient>
    <linearGradient
       id="linearGradient11"
       inkscape:collect="always">
      <stop
         style="stop-color:#aa0000;stop-opacity:1;"
         offset="0"
         id="stop11" />
      <stop
         style="stop-color:#0000ff;stop-opacity:1;"
         offset="0.34709549"
         id="stop13" />
      <stop
         style="stop-color:#00ff00;stop-opacity:1;"
         offset="0.64983618"
         id="stop14" />
      <stop
         style="stop-color:#ffb300;stop-opacity:1;"
         offset="1"
         id="stop12" />
    </linearGradient>
    <linearGradient
       id="linearGradient4"
       inkscape:collect="always">
      <stop
         style="stop-color:#f2f2f2;stop-opacity:1;"
         offset="0"
         id="stop5" />
      <stop
         style="stop-color:#bfbfbf;stop-opacity:1;"
         offset="0.22248544"
         id="stop8" />
      <stop
         style="stop-color:#ffffff;stop-opacity:1;"
         offset="0.48224589"
         id="stop7" />
      <stop
         style="stop-color:#b2b2b2;stop-opacity:1;"
         offset="0.70999998"
         id="stop9" />
      <stop
         style="stop-color:#e5e5e5;stop-opacity:1;"
         offset="1"
         id="stop6" />
    </linearGradient>
    <linearGradient
       id="linearGradient1"
       inkscape:collect="always">
      <stop
         style="stop-color:#000000;stop-opacity:1;"
         offset="0"
         id="stop1" />
      <stop
         style="stop-color:#0f0f0f;stop-opacity:1;"
         offset="0.05"
         id="stop4" />
      <stop
         style="stop-color:#0f0f0f;stop-opacity:1;"
         offset="0.94999999"
         id="stop3" />
      <stop
         style="stop-color:#000000;stop-opacity:1;"
         offset="1"
         id="stop2" />
    </linearGradient>
    <linearGradient
       inkscape:collect="always"
       xlink:href="#linearGradient1"
       id="linearGradient2"
       x1="0"
       y1="67.73333"
       x2="120.85951"
       y2="67.73333"
       gradientUnits="userSpaceOnUse"
       gradientTransform="translate(7.3035763)" />
    <linearGradient
       inkscape:collect="always"
       xlink:href="#linearGradient4"
       id="linearGradient6"
       x1="0"
       y1="12.309957"
       x2="108.16834"
       y2="135.46666"
       gradientUnits="userSpaceOnUse"
       gradientTransform="translate(13.649161,-6.1549741)" />
    <linearGradient
       inkscape:collect="always"
       xlink:href="#linearGradient11"
       id="linearGradient12"
       x1="13.649161"
       y1="53.281837"
       x2="121.8175"
       y2="53.281837"
       gradientUnits="userSpaceOnUse"
       gradientTransform="matrix(1,0,0,0.57985374,0,10.97578)" />
    <linearGradient
       inkscape:collect="always"
       xlink:href="#linearGradient15"
       id="linearGradient16"
       x1="15.266311"
       y1="125.92345"
       x2="117.76367"
       y2="7.7382812"
       gradientUnits="userSpaceOnUse" />
    <filter
       inkscape:collect="always"
       style="color-interpolation-filters:sRGB"
       id="filter16"
       x="-0.018853365"
       y="-0.016369353"
       width="1.0377067"
       height="1.0327387">
      <feGaussianBlur
         inkscape:collect="always"
         stdDeviation="0.78768677"
         id="feGaussianBlur16" />
    </filter>
    <linearGradient
       inkscape:collect="always"
       xlink:href="#linearGradient17"
       id="linearGradient18"
       x1="31.257053"
       y1="87.800524"
       x2="104.20961"
       y2="87.800524"
       gradientUnits="userSpaceOnUse"
       gradientTransform="matrix(1,0,0,0.96046904,0,2.2591947)" />
    <linearGradient
       inkscape:collect="always"
       xlink:href="#linearGradient19"
       id="linearGradient20"
       x1="-18.629826"
       y1="49.608917"
       x2="-18.629826"
       y2="51.62149"
       gradientUnits="userSpaceOnUse" />
    <linearGradient
       inkscape:collect="always"
       xlink:href="#linearGradient21"
       id="linearGradient22"
       x1="-34.242504"
       y1="64.482077"
       x2="-3.0171509"
       y2="64.482077"
       gradientUnits="userSpaceOnUse" />
    <linearGradient
       inkscape:collect="always"
       xlink:href="#linearGradient21"
       id="linearGradient25"
       x1="-34.242504"
       y1="78.348953"
       x2="-3.0171509"
       y2="78.348953"
       gradientUnits="userSpaceOnUse"
       gradientTransform="matrix(1,0,0,1.1920131,8.2165527e-7,-15.04403)" />
    <linearGradient
       inkscape:collect="always"
       xlink:href="#linearGradient28"
       id="linearGradient29"
       x1="65.77733"
       y1="91.732747"
       x2="91.484338"
       y2="91.732747"
       gradientUnits="userSpaceOnUse" />
    <filter
       inkscape:collect="always"
       style="color-interpolation-filters:sRGB"
       id="filter29"
       x="-0.092841696"
       y="-0.05505346"
       width="1.1856834"
       height="1.1101069">
      <feGaussianBlur
         inkscape:collect="always"
         stdDeviation="0.99445092"
         id="feGaussianBlur29" />
    </filter>
    <linearGradient
       inkscape:collect="always"
       xlink:href="#linearGradient30"
       id="linearGradient31"
       x1="67.73333"
       y1="2.7270507e-06"
       x2="71.894783"
       y2="135.46666"
       gradientUnits="userSpaceOnUse"
       gradientTransform="translate(-164.04171)" />
    <clipPath
       clipPathUnits="userSpaceOnUse"
       id="clipPath36">
      <path
         style="color:#000000;fill:#000000;stroke-width:0.999998;stroke-linecap:round;stroke-linejoin:round;stroke-dashoffset:149.514;-inkscape-stroke:none;paint-order:markers stroke fill"
         d="M -156.73813,2.7270506e-6 H -35.878619 V 135.46666 H -156.73813 Z"
         id="path37" />
    </clipPath>
    <filter
       inkscape:collect="always"
       style="color-interpolation-filters:sRGB"
       id="filter37"
       x="-0.018760951"
       y="-0.016748316"
       width="1.0375219"
       height="1.0334966">
      <feGaussianBlur
         inkscape:collect="always"
         stdDeviation="0.9500203"
         id="feGaussianBlur37" />
    </filter>
    <filter
       style="color-interpolation-filters:sRGB;"
       inkscape:label="Noise Fill"
       id="filter38"
       x="0"
       y="0"
       width="1"
       height="1">
      <feTurbulence
         type="fractalNoise"
         baseFrequency="3 3"
         numOctaves="4"
         seed="2"
         result="turbulence"
         id="feTurbulence37" />
      <feComposite
         in="SourceGraphic"
         in2="turbulence"
         operator="out"
         result="composite1"
         id="feComposite37" />
      <feColorMatrix
         values="1 0 0 0 0 0 1 0 0 0 0 0 1 0 0 0 0 0 4 -1 "
         result="color"
         id="feColorMatrix37" />
      <feFlood
         flood-opacity="1"
         flood-color="rgb(255,255,255)"
         result="flood"
         id="feFlood37" />
      <feMerge
         result="merge"
         id="feMerge38">
        <feMergeNode
           in="flood"
           id="feMergeNode37" />
        <feMergeNode
           in="color"
           id="feMergeNode38" />
      </feMerge>
      <feComposite
         in2="SourceGraphic"
         operator="in"
         result="composite2"
         id="feComposite38" />
    </filter>
  </defs>
  <g
     inkscape:label="Layer 1"
     inkscape:groupmode="layer"
     id="layer1">
    <rect
       style="display:inline;opacity:1;fill:url(#linearGradient2);stroke-width:3.78354;stroke-linecap:round;stroke-linejoin:round;stroke-dashoffset:149.514;paint-order:markers stroke fill"
       id="rect1"
       width="120.85951"
       height="135.46666"
       x="7.3035765"
       y="2.7270507e-06" />
    <rect
       style="display:inline;opacity:0.8;mix-blend-mode:overlay;fill:#000000;fill-opacity:1;stroke-width:3.78354;stroke-linecap:round;stroke-linejoin:round;stroke-dashoffset:149.514;paint-order:markers stroke fill;filter:url(#filter38)"
       id="rect37"
       width="120.85951"
       height="135.46666"
       x="7.3035765"
       y="2.7270507e-06" />
    <path
       id="path35"
       clip-path="url(#clipPath36)"
       style="color:#000000;display:inline;opacity:0.2;fill:url(#linearGradient31);stroke-linecap:round;stroke-linejoin:round;stroke-dashoffset:149.514;-inkscape-stroke:none;paint-order:markers stroke fill;filter:url(#filter37)"
       d="m -36.396484,-0.31054688 c -40.123396,0.0136693 -80.247696,-0.005204 -120.371096,0.0117188 -0.51805,0.36417206 -0.19894,1.18623517 -0.27732,1.73593748 0.009,44.6956496 -0.008,89.3948496 0.0195,134.0882806 0.46187,0.5232 1.31417,0.13782 1.93398,0.24605 39.75508,-0.003 79.51016,-0.006 119.265238,-0.01 0.502574,-0.33026 0.173756,-1.11309 0.251946,-1.62344 -0.0072,-44.747762 0.0013,-89.496752 -0.01562,-134.24374871 -0.147471,-0.25437646 -0.557401,-0.23585996 -0.80664,-0.20507813 z M -154.19531,0.28710938 c 38.80857,0.0411401 77.617188,0.006263 116.425779,0.0175781 1.364627,0.16989947 1.772568,1.76116292 1.58789,2.92187502 0,43.4492185 0,86.8984375 0,130.3476575 -0.169899,1.36463 -1.761163,1.77257 -2.921875,1.58789 -38.580729,0 -77.161454,0 -115.742184,0 -1.36463,-0.1699 -1.77257,-1.76116 -1.58789,-2.92188 0,-43.449214 0,-86.898433 0,-130.3476519 0.11573,-1.06058858 1.25398,-1.6677543 2.23828,-1.60546872 z"
       transform="translate(164.04164,-6.345e-5)" />
    <rect
       style="display:inline;opacity:1;fill:url(#linearGradient6);stroke-width:3.78354;stroke-linecap:round;stroke-linejoin:round;stroke-dashoffset:149.514;paint-order:markers stroke fill"
       id="rect4"
       width="108.16834"
       height="123.1567"
       x="13.649161"
       y="6.1549826"
       ry="3.7064264" />
    <rect
       style="display:inline;opacity:1;mix-blend-mode:multiply;fill:#cccccc;fill-opacity:1;stroke-width:3.78354;stroke-linecap:round;stroke-linejoin:round;stroke-dashoffset:149.514;paint-order:markers stroke fill"
       id="rect38"
       width="108.16834"
       height="123.1567"
       x="13.649161"
       y="6.1549826"
       ry="3.7064264" />
    <g
       id="g29"
       transform="translate(4.311421)"
       style="display:none"
       sodipodi:insensitive="true">
      <text
         xml:space="preserve"
         style="font-style:normal;font-variant:normal;font-weight:normal;font-stretch:normal;font-size:18.281px;line-height:1.25;font-family:'Adobe Gothic Std';-inkscape-font-specification:'Adobe Gothic Std, Normal';font-variant-ligatures:normal;font-variant-caps:normal;font-variant-numeric:normal;font-variant-east-asian:normal;fill:#aa0000;fill-opacity:1;stroke:none;stroke-width:0.264583"
         x="35.779324"
         y="34.203545"
         id="text9"><tspan
           sodipodi:role="line"
           id="tspan9"
           style="font-style:normal;font-variant:normal;font-weight:normal;font-stretch:normal;font-size:18.281px;font-family:'Adobe Gothic Std';-inkscape-font-specification:'Adobe Gothic Std, Normal';font-variant-ligatures:normal;font-variant-caps:normal;font-variant-numeric:normal;font-variant-east-asian:normal;fill:#aa0000;stroke-width:0.264583"
           x="35.779324"
           y="34.203545">FARTI</tspan></text>
      <text
         xml:space="preserve"
         style="font-style:normal;font-weight:normal;font-size:6.46634px;line-height:1.25;font-family:sans-serif;fill:#aa0000;fill-opacity:1;stroke:none;stroke-width:0.264583"
         x="-34.51392"
         y="89.628761"
         id="text10"
         transform="rotate(-90)"><tspan
           sodipodi:role="line"
           id="tspan10"
           style="fill:#aa0000;stroke-width:0.264583"
           x="-34.51392"
           y="89.628761">2600</tspan></text>
    </g>
    <g
       id="g3"
       transform="translate(4.3114211)">
      <path
         d="m 39.855987,28.335344 h 4.497126 V 26.123343 H 39.855987 V 22.4123 h 4.826184 v -2.266844 h -7.531772 v 14.058089 h 2.705588 z m 10.072842,-8.189888 -3.985258,14.058089 h 2.74215 l 0.968893,-3.711043 H 53.4205 l 1.005455,3.711043 h 2.833556 L 53.329095,20.145456 Z m 0.950612,5.082118 c 0.201091,-0.822645 0.438744,-1.974348 0.621554,-2.851836 h 0.05484 c 0.18281,0.859207 0.420463,1.992629 0.639835,2.870117 l 0.840926,3.199175 h -2.998084 z m 8.208171,8.975971 h 2.687308 v -5.703672 h 0.91405 c 1.27967,0 1.846381,0.566711 2.212001,2.37653 0.329058,1.700133 0.676397,2.92496 0.877488,3.327142 h 2.778712 c -0.274215,-0.530149 -0.639835,-2.212001 -1.042017,-3.875572 -0.329058,-1.425918 -0.877488,-2.37653 -1.864662,-2.760431 v -0.05484 c 1.316232,-0.511868 2.413092,-1.773257 2.413092,-3.491671 0,-3.765886 -3.583076,-3.985258 -5.356333,-3.985258 -1.371075,0 -2.687308,0.127967 -3.619639,0.292496 z M 61.77492,22.211209 c 0.219372,-0.07312 0.639835,-0.109686 1.243108,-0.109686 0.987174,0 2.339968,0.347339 2.339968,2.157158 0,1.334513 -0.932331,2.230282 -2.467935,2.230282 H 61.77492 Z m 7.403811,-2.065753 v 2.339968 h 3.455109 v 11.718121 h 2.705588 V 22.485424 h 3.47339 V 20.145456 Z M 83.108855,34.203545 V 20.145456 h -2.705588 v 14.058089 z"
         id="text2"
         style="font-size:18.281px;line-height:1.25;font-family:'Adobe Gothic Std';-inkscape-font-specification:'Adobe Gothic Std, Normal';fill:#aa0000;stroke-width:0.264583"
         aria-label="FARTI" />
      <path
         d="m -31.151423,89.628761 h -3.052113 v -0.472043 l 1.209206,-1.222138 q 0.349182,-0.349182 0.588437,-0.620768 0.239255,-0.271587 0.362115,-0.53024 0.122861,-0.26512 0.122861,-0.575505 0,-0.381514 -0.226322,-0.575504 -0.226322,-0.200456 -0.588437,-0.200456 -0.33625,0 -0.594904,0.116394 -0.252187,0.116394 -0.517307,0.323317 l -0.303918,-0.381514 q 0.271586,-0.226322 0.620769,-0.381514 0.355649,-0.161659 0.79536,-0.161659 0.646634,0 1.021681,0.329783 0.375048,0.323317 0.375048,0.898822 0,0.362115 -0.148726,0.678965 -0.148726,0.316851 -0.413845,0.627235 -0.26512,0.303918 -0.620769,0.653101 l -0.963485,0.950552 v 0.02586 h 2.334349 z m 0.691902,-1.972233 q 0,-0.497909 0.08406,-0.976418 0.09053,-0.484975 0.316851,-0.872956 0.232788,-0.394446 0.646634,-0.627235 0.413846,-0.232788 1.066946,-0.232788 0.135793,0 0.297451,0.01293 0.168125,0.01293 0.271587,0.04526 v 0.484976 q -0.116394,-0.0388 -0.26512,-0.0582 -0.14226,-0.0194 -0.290985,-0.0194 -0.446178,0 -0.74363,0.148725 -0.297451,0.148726 -0.472042,0.40738 -0.168125,0.258653 -0.245721,0.594903 -0.0776,0.33625 -0.09699,0.717764 h 0.0388 q 0.148725,-0.226322 0.413845,-0.381514 0.26512,-0.161659 0.678966,-0.161659 0.60137,0 0.969951,0.368582 0.368581,0.362115 0.368581,1.034614 0,0.72423 -0.400913,1.138076 -0.394446,0.413846 -1.066946,0.413846 -0.439711,0 -0.79536,-0.219856 -0.355648,-0.219855 -0.569037,-0.672499 -0.206923,-0.452644 -0.206923,-1.144542 z m 1.564854,1.558388 q 0.407379,0 0.659567,-0.258654 0.252187,-0.26512 0.252187,-0.814759 0,-0.439711 -0.226322,-0.698365 -0.219856,-0.258653 -0.666033,-0.258653 -0.303918,0 -0.53024,0.129327 -0.226322,0.12286 -0.355649,0.31685 -0.12286,0.19399 -0.12286,0.400913 0,0.278053 0.109928,0.556106 0.109927,0.271586 0.329783,0.452643 0.219856,0.174592 0.549639,0.174592 z m 5.160143,-1.901104 q 0,0.743629 -0.155193,1.280335 -0.155192,0.53024 -0.491441,0.814759 -0.33625,0.284519 -0.892355,0.284519 -0.782427,0 -1.157475,-0.627235 -0.368582,-0.633702 -0.368582,-1.752378 0,-0.750096 0.148726,-1.280336 0.155192,-0.53024 0.491442,-0.808292 0.33625,-0.284519 0.885889,-0.284519 0.77596,0 1.157475,0.627235 0.381514,0.620768 0.381514,1.745912 z m -2.496008,0 q 0,0.950552 0.21339,1.422594 0.219855,0.472043 0.743629,0.472043 0.517307,0 0.737162,-0.465576 0.226322,-0.472043 0.226322,-1.429061 0,-0.944086 -0.226322,-1.416129 -0.219855,-0.472043 -0.737162,-0.472043 -0.523774,0 -0.743629,0.472043 -0.21339,0.472043 -0.21339,1.416129 z m 6.194758,0 q 0,0.743629 -0.155193,1.280335 -0.155192,0.53024 -0.491441,0.814759 -0.33625,0.284519 -0.892355,0.284519 -0.782427,0 -1.157475,-0.627235 -0.368582,-0.633702 -0.368582,-1.752378 0,-0.750096 0.148726,-1.280336 0.155192,-0.53024 0.491442,-0.808292 0.33625,-0.284519 0.885889,-0.284519 0.77596,0 1.157475,0.627235 0.381514,0.620768 0.381514,1.745912 z m -2.496008,0 q 0,0.950552 0.21339,1.422594 0.219855,0.472043 0.743629,0.472043 0.517307,0 0.737162,-0.465576 0.226322,-0.472043 0.226322,-1.429061 0,-0.944086 -0.226322,-1.416129 -0.219855,-0.472043 -0.737162,-0.472043 -0.523774,0 -0.743629,0.472043 -0.21339,0.472043 -0.21339,1.416129 z"
         id="text3"
         style="font-size:6.46634px;line-height:1.25;fill:#aa0000;stroke-width:0.264583"
         transform="rotate(-90)"
         aria-label="2600" />
    </g>
    <path
       d="m 96.39201,21.690603 h -0.208718 v -1.472622 h -0.517157 v -0.183208 h 1.240713 v 0.183208 H 96.39201 Z m 1.495813,0 -0.544986,-1.45175 h -0.0093 q 0.007,0.07189 0.0116,0.194804 0.0046,0.120592 0.0046,0.25278 v 1.004166 H 97.15731 v -1.65583 h 0.308438 l 0.5102,1.356668 h 0.0093 l 0.519476,-1.356668 h 0.30612 v 1.65583 h -0.206399 v -1.01808 q 0,-0.120593 0.0046,-0.238866 0.007,-0.118274 0.01159,-0.192485 h -0.0093 l -0.551944,1.449431 z"
       id="text11"
       style="font-size:2.31909px;line-height:1.25;stroke-width:0.264583"
       aria-label="TM" />
    <rect
       style="opacity:1;fill:url(#linearGradient12);stroke-width:3.78354;stroke-linecap:round;stroke-linejoin:round;stroke-dashoffset:149.514;paint-order:markers stroke fill"
       id="rect11"
       width="108.16834"
       height="2.2828636"
       x="13.649161"
       y="40.730019"
       ry="0" />
    <rect
       style="opacity:1;fill:#aa0000;stroke-width:3.78354;stroke-linecap:round;stroke-linejoin:round;stroke-dashoffset:149.514;paint-order:markers stroke fill"
       id="rect14"
       width="108.16834"
       height="14.137112"
       x="13.649161"
       y="43.012882" />
    <path
       d="m 31.808445,60.197609 v 1.354662 h 2.000244 v 6.783895 h 1.566328 v -6.783895 h 2.010827 v -1.354662 z m 7.249561,8.254974 c 0.571498,0 0.941914,-0.412749 0.941914,-1.005414 0,-0.603248 -0.391583,-1.005413 -0.941914,-1.005413 -0.539748,0 -0.941914,0.423332 -0.941914,1.005413 0,0.571498 0.370416,1.005414 0.941914,1.005414 z m 3.672404,-0.116417 v -3.04799 c 0.15875,0.03175 0.349249,0.04233 0.571498,0.04233 1.21708,0 3.07974,-0.497415 3.07974,-2.730491 0,-0.751414 -0.296332,-1.407579 -0.783164,-1.820328 -0.518581,-0.444498 -1.291162,-0.645581 -2.317742,-0.645581 -0.899581,0 -1.598079,0.07408 -2.106077,0.169333 v 8.032724 z m 0,-6.921478 c 0.137583,-0.03175 0.359832,-0.0635 0.677331,-0.0635 0.867831,0 1.418162,0.455082 1.418162,1.322912 0,0.878414 -0.571498,1.428746 -1.545161,1.428746 -0.232833,0 -0.402166,-0.01058 -0.550332,-0.04233 z m 5.545653,7.037895 c 0.571498,0 0.941913,-0.412749 0.941913,-1.005414 0,-0.603248 -0.391582,-1.005413 -0.941913,-1.005413 -0.539749,0 -0.941914,0.423332 -0.941914,1.005413 0,0.571498 0.370415,1.005414 0.941914,1.005414 z m 3.862903,-6.603979 -0.677331,-1.756828 -0.96308,0.539748 1.206496,1.481662 -0.01058,0.02117 -1.777995,-0.317499 v 1.079496 l 1.799161,-0.317499 0.01058,0.02117 -1.227662,1.481662 0.910163,0.560915 0.709082,-1.777995 0.02117,-0.02117 0.687915,1.788578 0.973663,-0.550332 -1.238246,-1.449912 0.01058,-0.03175 1.830911,0.296332 v -1.079496 l -1.830911,0.328082 v -0.03175 l 1.227663,-1.492245 -0.952497,-0.539748 -0.677331,1.767411 z"
       id="text14"
       style="font-size:10.5833px;line-height:1.25;font-family:'Adobe Gothic Std';-inkscape-font-specification:'Adobe Gothic Std, Normal';fill:#ffffff;stroke-width:0.264583"
       transform="matrix(1.1429001,-0.2345156,-0.07458453,0.89027136,0,0)"
       aria-label="T.P.*" />
    <path
       d="m 69.306628,50.818554 v -0.846736 h -0.657732 v -3.454984 h -1.262543 l -2.079039,3.575946 v 0.725774 h 2.305843 V 52.2323 h 1.035739 v -1.413746 z m -2.1622,-2.298283 c 0.173884,-0.325086 0.309966,-0.642612 0.483849,-1.005499 h 0.03024 c -0.02268,0.340207 -0.04536,0.703093 -0.04536,1.03574 v 1.421306 h -1.307904 v -0.01512 z m 4.64949,1.791753 V 49.54089 H 69.72244 v 0.771134 z m 3.197947,-2.290722 v 2.593128 c 0,0.476289 -0.325086,0.786254 -0.687973,0.786254 -0.461169,0 -0.642612,-0.400687 -0.642612,-1.035739 v -2.343643 h -1.118901 v 2.509966 c 0,1.262544 0.54433,1.784193 1.345705,1.784193 0.650172,0 1.035739,-0.370447 1.209623,-0.642612 h 0.02268 l 0.05292,0.559451 h 0.975258 c -0.01512,-0.355327 -0.0378,-0.786255 -0.0378,-1.285224 v -2.925774 z m 3.107218,0.733333 -0.04536,-0.733333 h -0.960138 c 0.01512,0.378007 0.03024,0.793814 0.03024,1.315464 V 52.2323 h 1.1189 v -2.177321 c 0,-0.718213 0.385568,-1.058419 0.892097,-1.058419 0.113402,0 0.204124,0.0076 0.287285,0.02268 v -1.06598 c -0.0756,-0.01512 -0.143642,-0.02268 -0.249484,-0.02268 -0.393128,0 -0.846736,0.279725 -1.0433,0.824055 z m 4.694842,-2.600688 h -1.1189 v 4.86873 c 0,0.430928 -0.01512,0.907217 -0.03024,1.209623 h 0.952578 l 0.05292,-0.582131 h 0.02268 c 0.264605,0.476289 0.665292,0.665292 1.134021,0.665292 0.869416,0 1.723712,-0.740893 1.723712,-2.268042 0,-1.254983 -0.619931,-2.116839 -1.549829,-2.116839 -0.53677,0 -0.929897,0.226804 -1.171821,0.597251 h -0.01512 z m 0,3.575946 c 0,-0.54433 0.370447,-0.907216 0.756014,-0.907216 0.574571,0 0.854296,0.55945 0.854296,1.277663 0,0.816495 -0.309966,1.323025 -0.854296,1.323025 -0.446048,0 -0.756014,-0.393127 -0.756014,-0.869416 z m 5.964947,-1.708591 v 2.593128 c 0,0.476289 -0.325086,0.786254 -0.687972,0.786254 -0.461169,0 -0.642612,-0.400687 -0.642612,-1.035739 v -2.343643 h -1.118901 v 2.509966 c 0,1.262544 0.54433,1.784193 1.345705,1.784193 0.650172,0 1.035739,-0.370447 1.209622,-0.642612 h 0.02268 l 0.05292,0.559451 h 0.975258 c -0.01512,-0.355327 -0.0378,-0.786255 -0.0378,-1.285224 v -2.925774 z m 3.12234,0.57457 -0.05292,-0.56701 h -0.967698 c 0.01512,0.370447 0.03024,0.771134 0.03024,1.262543 V 52.2323 h 1.118901 v -2.502407 c 0,-0.642611 0.415808,-0.876976 0.718213,-0.876976 0.476289,0 0.642612,0.408248 0.642612,0.922337 V 52.2323 h 1.118901 v -2.578008 c 0,-1.179382 -0.597251,-1.716152 -1.368385,-1.716152 -0.612372,0 -1.028179,0.347767 -1.217183,0.657732 z m 6.191753,-0.06804 h -0.01512 c -0.189003,-0.332646 -0.529209,-0.589691 -1.058419,-0.589691 -0.929897,0 -1.738832,0.824055 -1.738832,2.215121 0,1.149142 0.627491,2.048798 1.62543,2.048798 0.461168,0 0.839175,-0.204124 1.050859,-0.53677 h 0.01512 v 0.309966 c 0,0.808935 -0.415807,1.164262 -1.043299,1.164262 -0.446048,0 -0.839175,-0.136083 -1.08866,-0.272165 l -0.219244,0.854295 c 0.332646,0.189004 0.839175,0.287286 1.330585,0.287286 2.048798,0 2.124399,-1.527149 2.124399,-2.351204 v -2.373884 c 0,-0.582131 0.01512,-0.952578 0.0378,-1.254983 h -0.975258 z m -0.136083,1.950516 c 0,0.710653 -0.453608,0.876977 -0.710653,0.876977 -0.52921,0 -0.839176,-0.49897 -0.839176,-1.232303 0,-0.793815 0.340207,-1.307905 0.846736,-1.307905 0.378007,0 0.703093,0.309966 0.703093,0.846736 z m 3.250868,-1.950516 v -2.373884 h -1.1189 V 52.2323 h 1.1189 v -2.555328 c 0,-0.627491 0.43093,-0.824055 0.71065,-0.824055 0.48385,0 0.65018,0.415808 0.65018,0.952578 V 52.2323 h 1.1189 v -2.517527 c 0,-1.239863 -0.58969,-1.784193 -1.33815,-1.784193 -0.36288,0 -0.82405,0.158763 -1.12646,0.597251 z m 5.23161,-0.597251 c -1.14158,0 -1.99587,0.801375 -1.99587,2.215121 0,1.368385 0.81649,2.16976 1.95051,2.16976 0.93746,0 1.96564,-0.619931 1.96564,-2.222681 0,-1.277664 -0.74089,-2.1622 -1.92028,-2.1622 z m 0.78626,2.184881 c 0,0.748453 -0.28729,1.375945 -0.8165,1.375945 -0.54433,0 -0.83161,-0.619931 -0.83161,-1.368385 0,-0.642612 0.21924,-1.368386 0.83917,-1.368386 0.57457,0 0.80894,0.703093 0.80894,1.360826 z m 1.94296,-3.961514 V 52.2323 h 1.1189 v -6.078353 z m 5.4811,4.30928 c 0.0227,-0.120962 0.0302,-0.279725 0.0302,-0.446048 0,-1.360825 -0.66529,-2.086599 -1.68591,-2.086599 -1.2323,0 -1.92784,1.043299 -1.92784,2.252922 0,1.307904 0.7409,2.124399 2.04124,2.124399 0.52165,0 1.01306,-0.09072 1.36083,-0.241924 l -0.15877,-0.771135 c -0.28728,0.09828 -0.61237,0.173884 -1.02817,0.173884 -0.60482,0 -1.11891,-0.287286 -1.14915,-1.005499 z m -2.51753,-0.778694 c 0.0302,-0.415808 0.25705,-0.975258 0.79382,-0.975258 0.55189,0 0.72577,0.536769 0.71821,0.975258 z"
       id="text15"
       style="font-size:7.56014px;line-height:1.25;font-family:'Adobe Gothic Std';-inkscape-font-specification:'Adobe Gothic Std, Normal';fill:#ffffff;stroke-width:0.264583"
       transform="skewX(-12.29972)"
       aria-label="4-ur bunghole" />
    <rect
       style="display:inline;opacity:0.8;fill:url(#linearGradient18);stroke-width:3.78354;stroke-linecap:round;stroke-linejoin:round;stroke-dashoffset:149.514;paint-order:markers stroke fill"
       id="rect16"
       width="72.95256"
       height="58.877769"
       x="31.257053"
       y="57.149994" />
    <rect
       style="display:inline;opacity:0.4;fill:#000000;fill-opacity:1;stroke-width:3.78354;stroke-linecap:round;stroke-linejoin:round;stroke-dashoffset:149.514;paint-order:markers stroke fill"
       id="rect25"
       width="72.95256"
       height="58.877777"
       x="31.257053"
       y="57.14999" />
    <g
       id="g30"
       transform="matrix(0.95259457,0,0,0.95259457,3.2122441,2.4237552)"
       style="stroke-width:1.04976">
      <g
         id="g25"
         transform="matrix(1.517708,0,0,1.517708,96.00797,-10.064443)"
         style="stroke-width:0.691677">
        <ellipse
           style="opacity:1;fill:url(#linearGradient25);fill-opacity:1;stroke-width:2.61698;stroke-linecap:round;stroke-linejoin:round;stroke-dashoffset:149.514;paint-order:markers stroke fill"
           id="ellipse20"
           cx="-18.629827"
           cy="78.348953"
           rx="15.612677"
           ry="4.5242577" />
        <rect
           style="opacity:1;fill:url(#linearGradient22);fill-opacity:1;stroke-width:2.61699;stroke-linecap:round;stroke-linejoin:round;stroke-dashoffset:149.514;paint-order:markers stroke fill"
           id="rect20"
           width="31.225353"
           height="27.733746"
           x="-34.242504"
           y="50.615204" />
        <ellipse
           style="opacity:1;fill:#ffffff;fill-opacity:1;stroke-width:2.61699;stroke-linecap:round;stroke-linejoin:round;stroke-dashoffset:149.514;paint-order:markers stroke fill"
           id="path18"
           cx="-18.629826"
           cy="50.615204"
           rx="15.612677"
           ry="3.7954764" />
        <ellipse
           style="opacity:0.8;fill:url(#linearGradient20);fill-opacity:1;stroke-width:2.61699;stroke-linecap:round;stroke-linejoin:round;stroke-dashoffset:149.514;paint-order:markers stroke fill"
           id="ellipse18"
           cx="-18.629826"
           cy="50.615204"
           rx="4.1393514"
           ry="1.0062854" />
      </g>
      <path
         id="path26"
         style="color:#000000;opacity:0.2;fill:url(#linearGradient29);stroke-width:1.26667;-inkscape-stroke:none;filter:url(#filter29)"
         d="m 91.484338,70.056705 c -1.867072,2.495262 -10.136395,4.432251 -8.845574,5.744858 2.937375,-0.854427 6.218878,-1.187494 3.844514,0.475377 4.289704,-1.066493 1.856978,0.22017 -0.299263,1.690853 0.932623,1.922944 6.579589,0.823423 1.625885,2.207871 -3.148299,0.722005 -1.757939,2.530823 -3.613481,3.886118 2.401251,0.21059 6.814415,0.09728 2.102896,2.498388 -1.710775,1.361561 4.897601,1.325554 0.828681,2.814114 -2.909976,0.140295 -7.155456,3.673229 -1.679099,3.905396 5.71904,1.155705 -0.708605,2.462488 -2.119743,4.130332 1.121243,1.622721 9.985847,0.222094 5.822208,3.297488 -3.436707,0.0688 -6.583499,3.24716 -1.349907,2.94735 3.075659,1.82744 -7.384994,4.77803 -0.461879,3.54651 5.314594,0.54495 -3.984346,3.96381 1.015524,2.09797 5.096846,-3.08898 -6.623228,-1.3818 -0.325434,-3.51641 3.374581,-3.23655 -7.592418,-2.78939 -1.02503,-4.0223 3.106881,-0.0591 6.070705,-4.05078 1.005407,-3.524674 -2.960146,0.324947 -5.571385,-1.827521 -1.119047,-2.3779 6.008024,-3.266125 -8.76439,-2.549234 -1.794878,-5.550512 3.381374,0.216541 5.34604,-3.573528 1.524926,-3.447485 2.899529,-1.677664 3.328145,-3.614025 -0.594399,-2.78921 -2.032223,-0.677304 0.786964,-1.566403 0.158807,-2.976755 2.238342,-0.741052 7.104046,-2.553094 1.647164,-2.380704 -2.97846,-0.891463 4.319392,-2.893836 0.662813,-3.488757 1.326346,-2.456848 -8.700288,1.775415 -3.582833,-0.998758 2.353309,-1.08852 4.788485,-2.226283 6.571742,-4.16916 z m -6.728788,11.648385 -0.108877,3.8e-4 z m -2.263428,18.44125 c -3.874111,3.40205 -1.135661,11.56338 -8.057105,11.39242 -2.573735,-0.72262 -8.340814,-0.54782 -8.657687,1.51989 5.417858,0.48021 11.341389,0.98136 16.129892,-2.28259 1.247534,-1.36618 -3.339271,-5.87333 0.717379,-3.25088 0.865922,2.09377 2.470894,5.45022 1.096644,1.38141 -1.93941,-2.48283 -5.064153,-5.12029 -1.529087,-7.82552 z m -1.684652,5.97638 c 0.237203,1.20305 -1.367864,-0.0441 0,0 z m -0.985469,1.15239 c 1.499488,-0.338 -0.807025,0.83965 0,0 z m 0.536918,0.81132 c 4.38334,1.72137 -5.029995,5.79585 -1.437227,1.11829 0.276042,-0.50641 0.752373,-1.18986 1.437227,-1.11829 z m 2.11925,1.94096 c -0.645499,0.84554 -1.418469,0.21735 0,0 z m -10.371459,1.27848 c 3.249046,-1.15117 6.200625,2.95781 1.301175,1.79529 -2.253934,0.24583 -10.097968,-0.59494 -4.051672,-1.46758 0.915911,-0.11712 1.836857,-0.19235 2.750497,-0.32771 z m 2.129585,0.0202 -6.22e-4,0.0734 z" />
    </g>
    <path
       id="rect15"
       style="display:inline;opacity:0.6;fill:url(#linearGradient16);stroke-width:3.78354;stroke-linecap:round;stroke-linejoin:round;stroke-dashoffset:149.514;paint-order:markers stroke fill;filter:url(#filter16)"
       d="m 17.133121,12.340905 c -1.491796,35.996459 -0.366343,73.984883 -0.283956,110.395955 0.0037,1.65656 1.346041,3.06227 3.001478,3.13074 31.122233,1.28735 63.920802,0.32652 95.390057,0.24485 1.65659,-0.004 1.86822,-0.72903 0.47267,-1.62212 L 54.668282,85.42378 C 39.651569,68.641584 22.584615,23.848632 18.286702,12.16352 17.714827,10.608714 17.201727,10.685473 17.133121,12.340905 Z"
       transform="rotate(180,67.732773,67.75261)"
       sodipodi:nodetypes="ccccc" />
    <path
       d="m 37.129103,122.35543 q 0,0.39185 -0.158859,0.70957 -0.15886,0.31243 -0.487169,0.49776 -0.323014,0.18004 -0.826068,0.18004 -0.704276,0 -1.074948,-0.38126 -0.365376,-0.38656 -0.365376,-1.0167 V 119.909 h 0.476577 v 2.45173 q 0,0.46069 0.243585,0.71486 0.248879,0.25418 0.746638,0.25418 0.513646,0 0.741344,-0.27006 0.232993,-0.27536 0.232993,-0.70428 V 119.909 h 0.471283 z m 2.780043,0.55071 q 0,0.41304 -0.307128,0.62485 -0.307128,0.21181 -0.826069,0.21181 -0.296537,0 -0.513645,-0.0477 -0.211812,-0.0477 -0.375967,-0.13239 v -0.42362 q 0.16945,0.0847 0.407739,0.15886 0.243584,0.0688 0.492464,0.0688 0.354786,0 0.513645,-0.11121 0.158859,-0.11649 0.158859,-0.30712 0,-0.10591 -0.05825,-0.19063 -0.05825,-0.0847 -0.211813,-0.16945 -0.148268,-0.0847 -0.42892,-0.19064 -0.275356,-0.1059 -0.471282,-0.21181 -0.195927,-0.1059 -0.301833,-0.25417 -0.105906,-0.14827 -0.105906,-0.38127 0,-0.36008 0.291242,-0.556 0.296537,-0.19593 0.773115,-0.19593 0.25947,0 0.481873,0.053 0.227699,0.0477 0.423625,0.13768 l -0.158859,0.37067 q -0.180041,-0.0741 -0.375967,-0.12708 -0.195927,-0.053 -0.402444,-0.053 -0.285946,0 -0.43951,0.0953 -0.148269,0.09 -0.148269,0.24888 0,0.11649 0.06884,0.20122 0.06884,0.0794 0.227698,0.15886 0.164155,0.0741 0.434216,0.18004 0.27006,0.10061 0.460692,0.20652 0.190631,0.1059 0.291242,0.25947 0.100611,0.14827 0.100611,0.37596 z m 1.78452,-2.10753 q 0.365376,0 0.624846,0.15886 0.264766,0.15886 0.402444,0.4501 0.142973,0.28595 0.142973,0.67251 v 0.28065 H 40.92055 q 0.01059,0.48187 0.243585,0.73605 0.238289,0.24887 0.661913,0.24887 0.270061,0 0.476578,-0.0477 0.211813,-0.053 0.434216,-0.14827 v 0.40774 q -0.217108,0.0953 -0.42892,0.13768 -0.211813,0.0477 -0.503055,0.0477 -0.402443,0 -0.714867,-0.16415 -0.307128,-0.16416 -0.481873,-0.48717 -0.16945,-0.32831 -0.16945,-0.79959 0,-0.46599 0.153564,-0.79959 0.15886,-0.33361 0.439511,-0.51365 0.285947,-0.18004 0.661914,-0.18004 z m -0.0053,0.38126 q -0.333604,0 -0.529531,0.21711 -0.190631,0.21181 -0.227698,0.59308 h 1.44562 q -0.0053,-0.36009 -0.16945,-0.58249 -0.164155,-0.2277 -0.518941,-0.2277 z m 5.104676,0.9055 q -0.06884,-0.21711 -0.121793,-0.42362 -0.04766,-0.21182 -0.07413,-0.32831 h -0.02118 q -0.02118,0.11649 -0.06884,0.32831 -0.04766,0.20651 -0.121792,0.42892 l -0.50835,1.59388 h -0.529531 l -0.778411,-2.83828 h 0.481874 l 0.391853,1.51446 q 0.05825,0.2277 0.111201,0.46069 0.05295,0.23299 0.07413,0.38656 h 0.02118 q 0.02118,-0.09 0.04766,-0.22241 0.03177,-0.13238 0.06884,-0.27535 0.03707,-0.14827 0.07413,-0.26477 l 0.503054,-1.59918 h 0.50835 l 0.487169,1.59918 q 0.05825,0.18004 0.111201,0.39185 0.05825,0.21182 0.07943,0.36538 h 0.02118 q 0.01589,-0.13238 0.06884,-0.36538 0.05825,-0.23299 0.121792,-0.47657 l 0.397148,-1.51446 h 0.476578 l -0.789001,2.83828 h -0.545417 z m 2.568222,-2.29816 q 0.105906,0 0.185335,0.0741 0.08473,0.0688 0.08473,0.2224 0,0.14827 -0.08473,0.22241 -0.07943,0.0741 -0.185335,0.0741 -0.116497,0 -0.195927,-0.0741 -0.07943,-0.0741 -0.07943,-0.22241 0,-0.15356 0.07943,-0.2224 0.07943,-0.0741 0.195927,-0.0741 z m 0.227698,1.06435 v 2.83829 h -0.465987 v -2.83829 z m 1.84806,2.50998 q 0.105906,0 0.217108,-0.0159 0.111201,-0.0212 0.180041,-0.0424 v 0.35479 q -0.07414,0.0371 -0.211813,0.0583 -0.137678,0.0265 -0.264765,0.0265 -0.222403,0 -0.413035,-0.0741 -0.185335,-0.0794 -0.301832,-0.27006 -0.116497,-0.19063 -0.116497,-0.53483 v -1.65214 h -0.402444 v -0.2224 l 0.407739,-0.18533 0.185336,-0.60367 h 0.275356 v 0.65132 h 0.820773 v 0.36008 H 50.99222 v 1.64155 q 0,0.25947 0.121792,0.38656 0.127088,0.12179 0.323014,0.12179 z m 1.429735,-2.51527 q 0,0.21181 -0.02648,0.39715 h 0.03177 q 0.137678,-0.21711 0.370672,-0.32831 0.238289,-0.1112 0.513645,-0.1112 0.51894,0 0.77841,0.24888 0.259471,0.24358 0.259471,0.789 v 1.84806 h -0.460692 v -1.81629 q 0,-0.6831 -0.635438,-0.6831 -0.476577,0 -0.656618,0.27006 -0.174745,0.26477 -0.174745,0.76253 v 1.4668 h -0.465987 v -4.02444 h 0.465987 z m 3.712012,3.84969 q -0.127087,0 -0.222403,-0.0212 -0.09531,-0.0159 -0.16945,-0.0477 v -0.40244 q 0.08472,0.0212 0.180041,0.0371 0.09532,0.0159 0.201222,0.0159 0.132382,0 0.248879,-0.0529 0.121792,-0.053 0.195927,-0.18534 0.07413,-0.13238 0.07413,-0.37067 V 119.909 h 0.476578 v 3.7226 q 0,0.54542 -0.270061,0.80489 -0.270061,0.25947 -0.714867,0.25947 z m 4.384521,-2.43055 q 0,0.70428 -0.360081,1.09084 -0.354786,0.38655 -0.963747,0.38655 -0.375967,0 -0.672504,-0.16945 -0.291242,-0.17474 -0.460692,-0.50305 -0.16945,-0.33361 -0.16945,-0.80489 0,-0.70427 0.354786,-1.08554 0.354786,-0.38126 0.963746,-0.38126 0.386558,0 0.6778,0.17475 0.296537,0.16945 0.460692,0.49775 0.16945,0.32302 0.16945,0.7943 z m -2.144601,0 q 0,0.50306 0.195927,0.79959 0.201222,0.29125 0.635437,0.29125 0.42892,0 0.630142,-0.29125 0.201222,-0.29653 0.201222,-0.79959 0,-0.50305 -0.201222,-0.789 -0.201222,-0.28595 -0.635437,-0.28595 -0.434216,0 -0.630142,0.28595 -0.195927,0.28595 -0.195927,0.789 z m 2.329932,-1.41385 h 0.497759 l 0.614256,1.61507 q 0.07943,0.21182 0.142973,0.40774 0.06354,0.19063 0.09532,0.36538 h 0.02118 q 0.03177,-0.13238 0.100611,-0.3442 0.06884,-0.2171 0.142973,-0.43421 l 0.577189,-1.60978 h 0.503055 l -1.223217,3.23014 q -0.148269,0.40245 -0.386558,0.64074 -0.232993,0.23828 -0.646027,0.23828 -0.127088,0 -0.222403,-0.0159 -0.09532,-0.0106 -0.164155,-0.0265 v -0.37067 q 0.05825,0.0106 0.137678,0.0212 0.08472,0.0106 0.174745,0.0106 0.243585,0 0.391853,-0.13768 0.153564,-0.13767 0.238289,-0.36537 l 0.148269,-0.37597 z m 4.993478,2.05458 q 0,0.41304 -0.307128,0.62485 -0.307128,0.21181 -0.826068,0.21181 -0.296537,0 -0.513645,-0.0477 -0.211812,-0.0477 -0.375967,-0.13239 v -0.42362 q 0.16945,0.0847 0.407739,0.15886 0.243584,0.0688 0.492464,0.0688 0.354785,0 0.513645,-0.11121 0.158859,-0.11649 0.158859,-0.30712 0,-0.10591 -0.05825,-0.19063 -0.05825,-0.0847 -0.211813,-0.16945 -0.148268,-0.0847 -0.42892,-0.19064 -0.275356,-0.1059 -0.471282,-0.21181 -0.195927,-0.1059 -0.301833,-0.25417 -0.105906,-0.14827 -0.105906,-0.38127 0,-0.36008 0.291242,-0.556 0.296537,-0.19593 0.773115,-0.19593 0.25947,0 0.481873,0.053 0.227698,0.0477 0.423625,0.13768 l -0.158859,0.37067 q -0.180041,-0.0741 -0.375967,-0.12708 -0.195927,-0.053 -0.402444,-0.053 -0.285947,0 -0.439511,0.0953 -0.148268,0.09 -0.148268,0.24888 0,0.11649 0.06884,0.20122 0.06884,0.0794 0.227698,0.15886 0.164155,0.0741 0.434215,0.18004 0.270061,0.10061 0.460692,0.20652 0.190632,0.1059 0.291242,0.25947 0.100611,0.14827 0.100611,0.37596 z m 1.636253,0.4554 q 0.105906,0 0.217108,-0.0159 0.111201,-0.0212 0.18004,-0.0424 v 0.35479 q -0.07413,0.0371 -0.211812,0.0583 -0.137678,0.0265 -0.264766,0.0265 -0.222403,0 -0.413034,-0.0741 -0.185336,-0.0794 -0.301833,-0.27006 -0.116496,-0.19063 -0.116496,-0.53483 v -1.65214 h -0.402444 v -0.2224 l 0.407739,-0.18533 0.185336,-0.60367 h 0.275356 v 0.65132 h 0.820773 v 0.36008 H 67.33355 v 1.64155 q 0,0.25947 0.121792,0.38656 0.127087,0.12179 0.323014,0.12179 z m 1.202034,-3.57433 q 0.105906,0 0.185336,0.0741 0.08472,0.0688 0.08472,0.2224 0,0.14827 -0.08472,0.22241 -0.07943,0.0741 -0.185336,0.0741 -0.116497,0 -0.195926,-0.0741 -0.07943,-0.0741 -0.07943,-0.22241 0,-0.15356 0.07943,-0.2224 0.07943,-0.0741 0.195926,-0.0741 z m 0.227698,1.06435 v 2.83829 h -0.465987 v -2.83829 z m 2.038693,2.89124 q -0.375967,0 -0.672505,-0.15356 -0.291242,-0.15357 -0.460691,-0.47658 -0.164155,-0.32301 -0.164155,-0.82607 0,-0.52423 0.174745,-0.85254 0.174745,-0.32831 0.471283,-0.48188 0.301832,-0.15356 0.683095,-0.15356 0.217107,0 0.418329,0.0477 0.201222,0.0424 0.328309,0.1059 l -0.142973,0.38656 q -0.127087,-0.0477 -0.296537,-0.09 -0.16945,-0.0424 -0.317719,-0.0424 -0.836659,0 -0.836659,1.07495 0,0.51364 0.201222,0.789 0.206517,0.27006 0.608961,0.27006 0.232993,0 0.407738,-0.0477 0.180041,-0.0477 0.32831,-0.1165 v 0.41304 q -0.142974,0.0741 -0.317719,0.1112 -0.16945,0.0424 -0.413034,0.0424 z m 1.863944,-1.97515 q 0,0.0847 -0.01059,0.22241 -0.0053,0.13767 -0.01059,0.23828 h 0.02118 q 0.03177,-0.0424 0.09532,-0.12179 0.06354,-0.0794 0.127087,-0.15886 0.06884,-0.0847 0.116497,-0.13768 l 0.905498,-0.95845 h 0.545417 l -1.149082,1.21263 1.228512,1.62566 h -0.561303 l -0.984928,-1.32383 -0.323014,0.28065 v 1.04318 h -0.460692 v -4.02444 h 0.460692 z m 5.427696,-1.49328 q -0.60896,0 -0.958451,0.40774 -0.34949,0.40774 -0.34949,1.11731 0,0.70428 0.323014,1.11731 0.328309,0.40774 0.979632,0.40774 0.24888,0 0.471283,-0.0424 0.222403,-0.0424 0.434215,-0.10591 v 0.41304 q -0.211812,0.0794 -0.439511,0.1165 -0.222403,0.0371 -0.534826,0.0371 -0.577189,0 -0.963747,-0.23829 -0.386557,-0.23828 -0.582484,-0.6778 -0.190631,-0.43951 -0.190631,-1.03258 0,-0.57189 0.206517,-1.00611 0.211813,-0.43951 0.619552,-0.6831 0.407738,-0.24887 0.990223,-0.24887 0.59837,0 1.043176,0.2224 l -0.190632,0.40244 q -0.174745,-0.0794 -0.391852,-0.14297 -0.211813,-0.0635 -0.465988,-0.0635 z m 4.130344,1.99104 q 0,0.70428 -0.360081,1.09084 -0.354786,0.38655 -0.963747,0.38655 -0.375967,0 -0.672504,-0.16945 -0.291242,-0.17474 -0.460692,-0.50305 -0.16945,-0.33361 -0.16945,-0.80489 0,-0.70427 0.354786,-1.08554 0.354786,-0.38126 0.963746,-0.38126 0.386558,0 0.6778,0.17475 0.296537,0.16945 0.460692,0.49775 0.16945,0.32302 0.16945,0.7943 z m -2.144601,0 q 0,0.50306 0.195927,0.79959 0.201222,0.29125 0.635437,0.29125 0.42892,0 0.630142,-0.29125 0.201222,-0.29653 0.201222,-0.79959 0,-0.50305 -0.201222,-0.789 -0.201222,-0.28595 -0.635437,-0.28595 -0.434216,0 -0.630142,0.28595 -0.195927,0.28595 -0.195927,0.789 z m 4.246835,-1.4668 q 0.50835,0 0.76782,0.24888 0.259471,0.24358 0.259471,0.7943 v 1.84806 h -0.460692 v -1.81629 q 0,-0.6831 -0.635438,-0.6831 -0.471282,0 -0.651323,0.26477 -0.18004,0.26476 -0.18004,0.76252 v 1.4721 h -0.465988 v -2.83829 h 0.375967 l 0.06884,0.38656 h 0.02648 q 0.137678,-0.2224 0.381262,-0.32831 0.243585,-0.1112 0.513645,-0.1112 z m 2.854174,2.56293 q 0.105906,0 0.217108,-0.0159 0.111201,-0.0212 0.18004,-0.0424 v 0.35479 q -0.07413,0.0371 -0.211812,0.0583 -0.137678,0.0265 -0.264766,0.0265 -0.222403,0 -0.413034,-0.0741 -0.185336,-0.0794 -0.301833,-0.27006 -0.116496,-0.19063 -0.116496,-0.53483 v -1.65214 h -0.402444 v -0.2224 l 0.407739,-0.18533 0.185336,-0.60367 h 0.275356 v 0.65132 h 0.820773 v 0.36008 h -0.820773 v 1.64155 q 0,0.25947 0.121792,0.38656 0.127087,0.12179 0.323014,0.12179 z m 2.287573,-2.56293 q 0.07943,0 0.16945,0.0106 0.09531,0.005 0.164154,0.0212 l -0.05825,0.42892 q -0.06884,-0.0159 -0.153564,-0.0265 -0.07943,-0.0106 -0.153564,-0.0106 -0.217108,0 -0.407739,0.12179 -0.190631,0.11649 -0.307128,0.3336 -0.111202,0.21181 -0.111202,0.49776 v 1.51446 h -0.465987 v -2.83829 h 0.381263 l 0.05295,0.51894 h 0.02118 q 0.137678,-0.23299 0.354786,-0.40244 0.217107,-0.16945 0.513645,-0.16945 z m 3.224841,1.4668 q 0,0.70428 -0.360081,1.09084 -0.354786,0.38655 -0.963746,0.38655 -0.375967,0 -0.672505,-0.16945 -0.291242,-0.17474 -0.460692,-0.50305 -0.169449,-0.33361 -0.169449,-0.80489 0,-0.70427 0.354785,-1.08554 0.354786,-0.38126 0.963747,-0.38126 0.386557,0 0.677799,0.17475 0.296538,0.16945 0.460692,0.49775 0.16945,0.32302 0.16945,0.7943 z m -2.1446,0 q 0,0.50306 0.195926,0.79959 0.201222,0.29125 0.635437,0.29125 0.428921,0 0.630142,-0.29125 0.201222,-0.29653 0.201222,-0.79959 0,-0.50305 -0.201222,-0.789 -0.201221,-0.28595 -0.635437,-0.28595 -0.434215,0 -0.630142,0.28595 -0.195926,0.28595 -0.195926,0.789 z m 3.346636,1.42444 h -0.465987 v -4.02444 h 0.465987 z m 1.366184,0 H 95.23982 v -4.02444 h 0.465987 z m 1.99633,-2.89124 q 0.365377,0 0.624847,0.15886 0.264765,0.15886 0.402443,0.4501 0.142974,0.28595 0.142974,0.67251 v 0.28065 h -1.943379 q 0.01059,0.48187 0.243584,0.73605 0.238289,0.24887 0.661914,0.24887 0.270061,0 0.476578,-0.0477 0.211812,-0.053 0.434215,-0.14827 v 0.40774 q -0.217107,0.0953 -0.42892,0.13768 -0.211812,0.0477 -0.503054,0.0477 -0.402444,0 -0.714867,-0.16415 -0.307128,-0.16416 -0.481873,-0.48717 -0.16945,-0.32831 -0.16945,-0.79959 0,-0.46599 0.153564,-0.79959 0.158859,-0.33361 0.43951,-0.51365 0.285947,-0.18004 0.661914,-0.18004 z m -0.0053,0.38126 q -0.333605,0 -0.529531,0.21711 -0.190631,0.21181 -0.227698,0.59308 h 1.445619 q -0.0053,-0.36009 -0.16945,-0.58249 -0.164154,-0.2277 -0.51894,-0.2277 z m 3.219538,-0.38126 q 0.0794,0 0.16945,0.0106 0.0953,0.005 0.16416,0.0212 l -0.0583,0.42892 q -0.0688,-0.0159 -0.15356,-0.0265 -0.0794,-0.0106 -0.15357,-0.0106 -0.2171,0 -0.40774,0.12179 -0.19063,0.11649 -0.30712,0.3336 -0.11121,0.21181 -0.11121,0.49776 v 1.51446 h -0.465983 v -2.83829 h 0.381263 l 0.05295,0.51894 h 0.0212 q 0.13768,-0.23299 0.35479,-0.40244 0.21711,-0.16945 0.51364,-0.16945 z"
       id="text30"
       style="font-size:5.29531px;line-height:1.25;stroke-width:0.264583"
       aria-label="Use with Joystick Controller" />
    <text
       xml:space="preserve"
       style="font-style:normal;font-weight:normal;font-size:5.29531px;line-height:1.25;font-family:sans-serif;display:none;fill:#000000;fill-opacity:1;stroke:none;stroke-width:0.264583"
       x="33.740105"
       y="123.68985"
       id="text1"
       sodipodi:insensitive="true"><tspan
         sodipodi:role="line"
         id="tspan1"
         style="stroke-width:0.264583"
         x="0"
         y="0">Use with Joystick Controller</tspan></text>
    <text
       xml:space="preserve"
       style="font-style:normal;font-variant:normal;font-weight:normal;font-stretch:normal;font-size:10.5833px;line-height:1.25;font-family:'Adobe Gothic Std';-inkscape-font-specification:'Adobe Gothic Std, Normal';font-variant-ligatures:normal;font-variant-caps:normal;font-variant-numeric:normal;font-variant-east-asian:normal;display:none;fill:#ffffff;fill-opacity:1;stroke:none;stroke-width:0.264583"
       x="31.670862"
       y="68.336166"
       id="text4"
       transform="matrix(1.1429001,-0.2345156,-0.07458453,0.89027136,0,0)"
       sodipodi:insensitive="true"><tspan
         sodipodi:role="line"
         id="tspan3"
         style="font-style:normal;font-variant:normal;font-weight:normal;font-stretch:normal;font-size:10.5833px;font-family:'Adobe Gothic Std';-inkscape-font-specification:'Adobe Gothic Std, Normal';font-variant-ligatures:normal;font-variant-caps:normal;font-variant-numeric:normal;font-variant-east-asian:normal;fill:#ffffff;stroke-width:0.264583"
         x="0"
         y="0">T.P.*</tspan></text>
    <text
       xml:space="preserve"
       style="font-style:normal;font-variant:normal;font-weight:normal;font-stretch:normal;font-size:7.56014px;line-height:1.25;font-family:'Adobe Gothic Std';-inkscape-font-specification:'Adobe Gothic Std, Normal';font-variant-ligatures:normal;font-variant-caps:normal;font-variant-numeric:normal;font-variant-east-asian:normal;display:none;fill:#ffffff;fill-opacity:1;stroke:none;stroke-width:0.264583"
       x="65.140991"
       y="52.2323"
       id="text5"
       transform="skewX(-12.29972)"
       sodipodi:insensitive="true"><tspan
         sodipodi:role="line"
         id="tspan4"
         style="font-style:normal;font-variant:normal;font-weight:normal;font-stretch:normal;font-size:7.56014px;font-family:'Adobe Gothic Std';-inkscape-font-specification:'Adobe Gothic Std, Normal';font-variant-ligatures:normal;font-variant-caps:normal;font-variant-numeric:normal;font-variant-east-asian:normal;fill:#ffffff;stroke-width:0.264583"
         x="0"
         y="0">4-ur bunghole</tspan></text>
  </g>
</svg>
