<?xml version="1.0" encoding="UTF-8" standalone="no"?>
<!-- Created with Inkscape (http://www.inkscape.org/) -->

<svg
   width="512"
   height="512"
   viewBox="0 0 135.46666 135.46667"
   version="1.1"
   id="svg5"
   inkscape:version="1.4.2 (ebf0e940d0, 2025-05-08)"
   sodipodi:docname="application-postscript.svg"
   xmlns:inkscape="http://www.inkscape.org/namespaces/inkscape"
   xmlns:sodipodi="http://sodipodi.sourceforge.net/DTD/sodipodi-0.dtd"
   xmlns="http://www.w3.org/2000/svg"
   xmlns:svg="http://www.w3.org/2000/svg">
  <sodipodi:namedview
     id="namedview7"
     pagecolor="#242424"
     bordercolor="#666666"
     borderopacity="1"
     inkscape:showpageshadow="0"
     inkscape:pageopacity="0"
     inkscape:pagecheckerboard="1"
     inkscape:deskcolor="#000000"
     inkscape:document-units="px"
     showgrid="false"
     inkscape:zoom="1.3037281"
     inkscape:cx="395.40452"
     inkscape:cy="283.41799"
     inkscape:window-width="3256"
     inkscape:window-height="1080"
     inkscape:window-x="1864"
     inkscape:window-y="0"
     inkscape:window-maximized="0"
     inkscape:current-layer="layer1" />
  <defs
     id="defs2">
    <inkscape:path-effect
       effect="powerstroke"
       message=""
       id="path-effect8"
       is_visible="true"
       lpeversion="1.3"
       scale_width="1"
       interpolator_type="CubicBezierJohan"
       interpolator_beta="0.2"
       start_linecap_type="zerowidth"
       end_linecap_type="zerowidth"
       offset_points="9.9873563,1.9620617"
       linejoin_type="extrp_arc"
       miter_limit="4"
       not_jump="false"
       sort_points="true" />
    <inkscape:path-effect
       effect="powerstroke"
       message=""
       id="path-effect6"
       is_visible="true"
       lpeversion="1.3"
       scale_width="1"
       interpolator_type="CubicBezierJohan"
       interpolator_beta="0.2"
       start_linecap_type="zerowidth"
       end_linecap_type="zerowidth"
       offset_points="9.9873563,1.9620617"
       linejoin_type="extrp_arc"
       miter_limit="4"
       not_jump="false"
       sort_points="true" />
    <inkscape:path-effect
       effect="powerstroke"
       message=""
       id="path-effect1"
       is_visible="true"
       lpeversion="1.3"
       scale_width="1"
       interpolator_type="CubicBezierJohan"
       interpolator_beta="0.2"
       start_linecap_type="zerowidth"
       end_linecap_type="zerowidth"
       offset_points="9.9886968,4.1542222"
       linejoin_type="extrp_arc"
       miter_limit="4"
       not_jump="false"
       sort_points="true" />
  </defs>
  <g
     inkscape:label="Layer 1"
     inkscape:groupmode="layer"
     id="layer1">
    <path
       style="fill:none;fill-rule:nonzero;stroke:#ff0000;stroke-width:2.11663;stroke-linecap:round;stroke-linejoin:round;stroke-dasharray:none;stroke-dashoffset:0;stroke-opacity:1"
       d="m 25.830508,12.771751 c 1.652253,-0.0119 3.286103,0.355514 4.832773,1.150715 1.369949,0.704343 2.643668,1.731516 3.750265,3.058273 1.00976,1.210654 1.867911,2.657753 2.500042,4.269441 0.588013,1.499206 0.976319,3.13465 1.09243,4.79187 0,0 1.78e-4,0.0025 1.78e-4,0.0025 0,0 9.5e-4,0.0075 9.5e-4,0.0075 1.200044,9.488405 0.567413,19.457466 -1.165194,30.532111 -1.335849,7.472763 -3.273934,14.835382 -5.488604,22.520657 -2.080173,7.218549 -4.364858,14.562361 -6.387169,22.116683 -0.152446,0.17002 -0.282605,0.30296 -0.390881,0.40216 -0.136901,0.12544 -0.238785,0.19014 -0.249515,0.1849 -0.0053,-0.003 0.01308,-0.0242 0.08232,-0.0543 0.06912,-0.03 0.198245,-0.0719 0.388214,-0.0562 0.09653,0.008 0.20043,0.0315 0.304914,0.0759 0.104589,0.0445 0.196281,0.10418 0.273596,0.17193 0.07611,0.0667 0.13248,0.136 0.173486,0.19699 0.04053,0.0603 0.06773,0.11491 0.08576,0.15618 0.02146,0.0491 0.03089,0.0943 0.05235,0.14343 0.0066,0.015 0.01019,0.005 0.01636,-0.0225 0.01215,-0.0545 0.03437,-0.17273 0.07129,-0.32384 0.0772,-0.31593 0.197625,-0.72223 0.363772,-1.22403 0.162162,-0.48976 0.354584,-1.030482 0.561008,-1.590921 0.205216,-0.557157 0.419197,-1.120109 0.625277,-1.658693 0.198961,-0.51998 0.404119,-1.052381 0.563197,-1.47581 0.08103,-0.215684 0.157983,-0.423905 0.222889,-0.607219 0.06287,-0.177556 0.126084,-0.364198 0.171752,-0.526483 l -0.0496,0.176687 c 3.006382,-8.449428 6.215278,-17.204352 8.663899,-26.085953 2.436428,-8.837377 4.167049,-17.950611 4.267784,-27.380473 0.109674,-1.708005 0.07196,-3.446042 0.03248,-5.093307 -0.04047,-1.688763 -0.08214,-3.267794 -0.0044,-4.80631 0.07753,-1.533624 0.271021,-2.932002 0.66391,-4.215914 0.390471,-1.27601 0.977651,-2.437857 1.850778,-3.505084 0.01566,-0.01915 0.0314,-0.03824 0.0472,-0.05727 0.0304,-0.04777 0.06108,-0.09536 0.09206,-0.142757 1.328106,-2.032144 3.127338,-3.622689 5.188897,-4.760556 2.086466,-1.151614 4.437564,-1.836886 6.825699,-2.040608 2.417588,-0.206234 4.834351,0.08368 7.034746,0.843203 2.227666,0.768934 4.211447,2.009681 5.796789,3.690057 0,0 0.002,0.0021 0.002,0.0021 0.02508,0.02458 0.05008,0.04925 0.075,0.07399 1.482191,1.471331 2.642283,3.16643 3.496405,4.984436 0.871554,1.85511 1.426247,3.841721 1.67861,5.85816 0.525703,4.200486 -0.26576,8.421926 -2.103564,11.94452 0,0 0.0079,-0.01513 0.0079,-0.01513 -0.01271,0.02585 -0.02546,0.05167 -0.03825,0.07748 -2.018335,4.069792 -5.309818,7.90634 -8.940614,10.537847 -1.9135,1.386856 -3.855897,2.395879 -5.728249,3.003531 -1.959583,0.63596 -3.792367,0.818196 -5.46855,0.602759 C 50.766709,58.588229 49.748845,58.34701 48.594149,58.000608 47.406482,57.644314 46.1448,57.198697 44.79268,56.714007 41.925752,55.686309 38.853733,54.558869 35.550702,53.862746 33.79727,53.493205 32.004805,53.251337 30.173525,53.207513 c -1.931237,-0.04621 -3.865605,0.12907 -5.798149,0.580452 -2.052124,0.479312 -4.033356,1.2541 -5.943733,2.330101 -1.852557,1.043433 -3.598713,2.34768 -5.249547,3.883321 -0.101872,0.09476 2.473621,3.377983 2.384651,3.464302 0.08897,-0.08632 3.198212,2.689776 3.274229,2.619063 1.231955,-1.145991 2.45578,-2.049014 3.67331,-2.739986 1.24828,-0.708423 2.497589,-1.198566 3.764699,-1.503818 1.196132,-0.288153 2.431272,-0.417235 3.730226,-0.398957 1.239506,0.01744 2.528599,0.168785 3.895093,0.439784 2.67163,0.529829 5.204942,1.41164 8.22975,2.441663 1.352374,0.460518 2.813514,0.951096 4.245859,1.351127 1.394118,0.389354 2.889652,0.730703 4.408046,0.887921 2.992367,0.310104 5.984037,-0.12914 8.852213,-1.141219 2.724305,-0.961312 5.336886,-2.438903 7.743741,-4.277922 4.509413,-3.445532 8.470013,-8.30876 10.865077,-13.523944 l -0.03035,0.06232 c 2.36527,-4.896602 3.209731,-10.570369 2.333093,-16.082639 -0.423325,-2.661852 -1.250822,-5.293196 -2.512358,-7.75604 -1.237195,-2.415324 -2.892291,-4.668388 -4.983527,-6.609423 -2.380485,-2.355391 -5.252289,-3.994414 -8.31797,-4.948957 -3.047975,-0.94903 -6.294219,-1.223984 -9.460744,-0.85593 -3.130079,0.363817 -6.214181,1.360141 -8.960576,2.989756 -2.707673,1.606639 -5.091859,3.833086 -6.834619,6.664233 -1.202762,1.673833 -1.949333,3.441403 -2.391471,5.232476 -0.448827,1.818177 -0.580591,3.646351 -0.576476,5.404809 0.0041,1.74197 0.143456,3.494967 0.268102,5.130535 0.126842,1.664366 0.239823,3.221895 0.224175,4.722847 0.0059,-0.566457 -0.0068,-1.132955 -0.03797,-1.698583 0.01891,0.592986 0.03102,1.18617 0.03634,1.779433 0.08054,8.983445 -1.398506,17.789083 -3.627149,26.514785 -2.240413,8.771782 -5.232906,17.438181 -8.099207,26.000839 0,0 -0.05042,0.150662 -0.05042,0.150662 7.19e-4,0.0087 9.94e-4,0.01735 8.25e-4,0.02603 -0.0011,0.05503 -0.02139,0.176483 -0.055,0.328352 -0.03383,0.152824 -0.08067,0.337735 -0.137242,0.546515 -0.113566,0.419107 -0.264315,0.927151 -0.428788,1.475212 -0.165362,0.551023 -0.343989,1.140524 -0.514994,1.728527 -0.171538,0.589834 -0.33577,1.179404 -0.470738,1.726259 -0.134653,0.54557 -0.244944,1.06729 -0.302637,1.51684 -0.02886,0.22488 -0.04757,0.4541 -0.04466,0.67229 0.0015,0.11022 0.0086,0.23074 0.02675,0.35432 0.01769,0.12039 0.0498,0.27131 0.11365,0.42884 0.03279,0.0809 0.07683,0.17073 0.136769,0.26215 0.06037,0.0921 0.138441,0.18813 0.238723,0.27714 0.101493,0.0901 0.219833,0.16761 0.353575,0.22528 0.133666,0.0576 0.269275,0.0896 0.400125,0.10142 0.25707,0.0231 0.473878,-0.033 0.626364,-0.0924 0.154193,-0.0601 0.284187,-0.13982 0.387434,-0.21354 0.203152,-0.14505 0.39726,-0.33586 0.577706,-0.53433 0.187193,-0.20588 0.392706,-0.45708 0.615804,-0.74869 0.05192,-0.0679 0.103383,-0.13608 0.154385,-0.20464 0,0 0.04881,-0.20004 0.04881,-0.20004 1.817825,-7.438713 4.069711,-15.278438 5.981879,-22.452104 2.066486,-7.752606 3.8731,-15.200446 5.078657,-22.761504 0,0 0.0022,-0.01366 0.0022,-0.01366 0,0 2.48e-4,-0.0019 2.48e-4,-0.0019 1.427745,-11.205661 1.807725,-21.236139 0.394121,-30.76847 C 38.23475,24.304469 37.787083,22.654853 37.149008,21.153963 36.461536,19.53688 35.556129,18.096417 34.51025,16.898215 33.363954,15.584972 32.063672,14.577313 30.679755,13.88987 29.117987,13.114082 27.481446,12.75986 25.830508,12.771751 Z"
       id="path1"
       inkscape:path-effect="#path-effect1"
       inkscape:original-d="m 25.830508,12.771751 c 7.079366,-0.05099 11.811406,6.747414 12.378826,13.252565 1.395818,10.157903 0.654513,20.544438 -0.780733,30.658937 -2.587704,15.307792 -7.668159,30.051861 -11.501464,45.050177 -3.498623,4.32232 0.429879,-5.228844 0.828188,-7.053649 5.924539,-17.161093 12.316483,-34.61327 12.32936,-53.024092 0.254421,-6.424807 -1.726191,-13.553624 2.56249,-19.135527 6.124062,-9.740726 21.246632,-11.25573 29.261931,-3.051129 7.093691,6.770927 8.436533,17.974764 4.120577,26.620816 -4.250312,8.945907 -14.224228,17.621986 -23.799229,16.543625 -9.575001,-1.078361 -22.54498,-11.895617 -35.663707,0.832215"
       transform="matrix(1.4267318,0,0,1.4267318,0.62760623,-14.493833)"
       sodipodi:nodetypes="ccccccccczc" />
    <path
       id="rect1"
       style="opacity:1;fill:#ffffff;stroke:#ff0000;stroke-width:2.11666664;stroke-linecap:round;stroke-linejoin:round;stroke-miterlimit:12;paint-order:markers stroke fill;stroke-dasharray:none"
       d="m 117.47499,1.0583333 h 16.93333 V 17.991667 Z"
       sodipodi:nodetypes="cccc" />
    <path
       id="path2"
       style="opacity:1;fill:#ffffff;stroke:#ff0000;stroke-width:2.11666664;stroke-linecap:round;stroke-linejoin:round;stroke-miterlimit:12;paint-order:markers stroke fill;stroke-dasharray:none"
       d="M 17.991664,1.0583333 H 1.0583333 V 17.991667 Z"
       sodipodi:nodetypes="cccc" />
    <path
       id="path3"
       style="opacity:1;fill:#ffffff;stroke:#ff0000;stroke-width:2.11666664;stroke-linecap:round;stroke-linejoin:round;stroke-miterlimit:12;paint-order:markers stroke fill;stroke-dasharray:none"
       d="m 117.47499,134.40832 h 16.93333 v -16.93333 z"
       sodipodi:nodetypes="cccc" />
    <path
       id="path4"
       style="opacity:1;fill:#ffffff;stroke:#ff0000;stroke-width:2.11666664;stroke-linecap:round;stroke-linejoin:round;stroke-miterlimit:12;paint-order:markers stroke fill;stroke-dasharray:none"
       d="M 17.991664,134.40832 H 1.0583333 v -16.93333 z"
       sodipodi:nodetypes="cccc" />
    <path
       style="display:none;fill:none;fill-rule:nonzero;stroke:#ff0000;stroke-width:2.11663;stroke-linecap:round;stroke-linejoin:round;stroke-dasharray:none;stroke-opacity:1"
       d="m 25.830508,12.771751 c 1.651899,-0.0119 3.286448,0.35203 4.837119,1.142117 1.373628,0.69988 2.654355,1.721906 3.771429,3.045102 1.019289,1.207369 1.8899,2.652712 2.536634,4.265828 0.601465,1.500205 1.005462,3.138889 1.137596,4.807896 1.257323,9.507972 0.690681,19.497264 -0.962957,30.611056 -1.300321,7.488716 -3.203733,14.873908 -5.37932,22.57695 -2.055746,7.278721 -4.314722,14.678489 -6.300166,22.27712 -0.1869,0.22075 -0.347605,0.39521 -0.483897,0.52837 -0.153792,0.15026 -0.26589,0.23722 -0.336096,0.27708 -0.02219,0.0126 -0.06028,0.0284 -0.04161,0.0164 0.0088,-0.006 0.04895,-0.0224 0.120564,-0.017 0.03655,0.003 0.07726,0.0116 0.118922,0.0291 0.04172,0.0175 0.078,0.041 0.108143,0.0671 0.02957,0.0256 0.05049,0.0513 0.06475,0.0719 0.01394,0.0201 0.02253,0.0369 0.02706,0.0458 0.009,0.0177 0.0084,0.0158 0.0086,-0.008 1.69e-4,-0.0243 7.07e-4,-0.0577 0.005,-0.11002 0.0085,-0.10367 0.02858,-0.2403 0.06426,-0.41576 0.0708,-0.34808 0.191063,-0.79104 0.347644,-1.30128 0.15477,-0.50434 0.34019,-1.058907 0.537191,-1.626615 0.196032,-0.564917 0.401009,-1.135646 0.596186,-1.677125 0.192553,-0.534203 0.377975,-1.046548 0.527737,-1.475651 0.07499,-0.214872 0.143176,-0.414932 0.200295,-0.591206 0.04728,-0.145907 0.09011,-0.28508 0.123314,-0.407285 2.967897,-8.474125 6.116855,-17.200142 8.509136,-26.046968 2.384088,-8.816526 4.048689,-17.854692 4.099141,-27.174835 0.08509,-1.65289 0.02701,-3.343075 -0.03516,-4.994169 -0.06308,-1.675184 -0.129725,-3.299208 -0.07394,-4.89184 0.05579,-1.592788 0.233398,-3.104864 0.640841,-4.529555 0.407596,-1.425222 1.044679,-2.760864 2.021261,-3.999058 0.0096,-0.01216 0.0192,-0.0243 0.02884,-0.03641 0.01227,-0.01939 0.02459,-0.03875 0.03695,-0.05808 1.438405,-2.249879 3.395188,-4.012949 5.631941,-5.277259 2.260599,-1.27779 4.805016,-2.044983 7.388901,-2.291007 2.615136,-0.249 5.25081,0.03712 7.674752,0.846556 2.456552,0.820326 4.681871,2.172304 6.480405,4.040559 0,0 0.01006,0.01046 0.01006,0.01046 0,0 0.02633,0.0255 0.02633,0.0255 1.643745,1.595702 2.935008,3.438477 3.890554,5.414817 0.974468,2.015479 1.601081,4.172126 1.898569,6.358845 0.618522,4.546506 -0.187413,9.151355 -2.164104,13.036221 0,0 -0.0021,0.0041 -0.0021,0.0041 0,0 -0.01226,0.02536 -0.01226,0.02536 -2.138722,4.417912 -5.359117,8.476421 -9.089698,11.296893 -1.970402,1.489702 -4.051872,2.613936 -6.18838,3.318833 -2.221383,0.7329 -4.490136,1.009408 -6.777248,0.795592 -1.986512,-0.292874 -3.869197,-0.89359 -5.670465,-1.619993 -1.926089,-0.77674 -3.853823,-1.738939 -5.672853,-2.639608 -2.056174,-1.018089 -3.957758,-1.949409 -5.968919,-2.737877 -2.125458,-0.833277 -4.177743,-1.425029 -6.274514,-1.723072 -0.071,-0.01009 -0.536143,1.907148 -0.601363,1.898934 0.06522,0.0082 -0.0096,1.977785 0.04912,1.986137 1.731888,0.246177 3.488327,0.737895 5.408487,1.480047 1.841985,0.711938 3.606245,1.55913 5.685347,2.567873 1.793782,0.870312 3.869244,1.884491 5.970022,2.706325 1.993682,0.779938 4.198602,1.466389 6.594995,1.785884 0.01786,0.0024 0.03572,0.0047 0.05359,0.0071 0,0 0.03347,0.0029 0.03347,0.0029 2.852152,0.247864 5.651549,-0.127999 8.336611,-1.048063 2.553051,-0.874829 4.967624,-2.229771 7.189543,-3.952091 4.183833,-3.2431 7.682333,-7.797819 9.9618,-12.676855 2.216508,-4.528237 3.042864,-9.808963 2.260073,-14.965478 -0.378239,-2.491587 -1.133717,-4.952798 -2.292398,-7.255354 -1.134972,-2.255441 -2.658265,-4.359888 -4.585218,-6.175034 -2.175836,-2.191237 -4.823551,-3.733707 -7.679153,-4.642633 -2.824318,-0.898968 -5.851816,-1.178005 -8.820738,-0.852576 -2.934358,0.32164 -5.825038,1.235779 -8.397374,2.739358 -2.537773,1.483376 -4.767791,3.542616 -6.401302,6.163902 -1.137296,1.528796 -1.851968,3.154979 -2.284732,4.827657 -0.433887,1.677029 -0.582302,3.392222 -0.599545,5.091168 -0.01713,1.688339 0.0957,3.395354 0.198522,5.045004 0.103519,1.660788 0.197279,3.267945 0.156214,4.82446 0,0 -8.02e-4,0.02976 -8.02e-4,0.02976 0,0 3.3e-5,0.0084 3.3e-5,0.0084 0.03463,9.107287 -1.511322,18.00005 -3.796337,26.760605 -2.295492,8.800726 -5.344751,17.490472 -8.248179,26.023292 0,0 -0.01958,0.05754 -0.01958,0.05754 -0.0012,0.0087 -0.0025,0.0173 -0.0039,0.02593 -0.01407,0.08883 -0.04329,0.218282 -0.0858,0.380619 -0.04235,0.161727 -0.09649,0.351065 -0.159834,0.562524 -0.127094,0.42426 -0.289157,0.930714 -0.464248,1.475375 -0.175944,0.547313 -0.364218,1.130666 -0.544088,1.710105 -0.180571,0.581694 -0.35258,1.159147 -0.494551,1.690546 -0.142158,0.5321 -0.256734,1.02724 -0.318767,1.43961 -0.03111,0.20678 -0.05071,0.4036 -0.05168,0.58036 -4.92e-4,0.0891 0.0037,0.17916 0.01537,0.26678 0.01151,0.0862 0.03191,0.18256 0.06986,0.27788 0.01937,0.0486 0.04464,0.1004 0.07806,0.15179 0.03363,0.0517 0.07623,0.10413 0.129984,0.15206 0.05432,0.0484 0.117253,0.0898 0.188121,0.12049 0.07084,0.0307 0.143269,0.0481 0.214134,0.0546 0.139516,0.0129 0.262926,-0.0166 0.358713,-0.0532 0.09661,-0.0369 0.184955,-0.0885 0.263517,-0.14289 0.1558,-0.10796 0.319938,-0.26033 0.491123,-0.44214 0.17483,-0.18568 0.371903,-0.41815 0.592498,-0.69827 0.02371,-0.0301 0.04732,-0.0603 0.07082,-0.0905 0,0 0.02516,-0.10061 0.02516,-0.10061 1.909738,-7.630087 4.107259,-15.085668 6.106371,-22.429381 2.105581,-7.734824 3.946882,-15.160251 5.186807,-22.698008 1.509952,-11.180481 1.956679,-21.19676 0.599117,-30.71891 -0.160045,-1.682083 -0.592318,-3.329639 -1.217943,-4.831847 -0.672878,-1.615665 -1.565814,-3.057874 -2.602166,-4.259359 -1.135828,-1.316813 -2.429104,-2.329619 -3.809331,-3.021516 -1.557803,-0.780915 -3.193623,-1.138612 -4.844901,-1.126718 z"
       id="path6"
       inkscape:path-effect="#path-effect8"
       inkscape:original-d="m 25.830508,12.771751 c 7.079366,-0.05099 11.811406,6.747414 12.378826,13.252565 1.395818,10.157903 0.654513,20.544438 -0.780733,30.658937 -2.587704,15.307792 -7.668159,30.051861 -11.501464,45.050177 -3.498623,4.32232 0.429879,-5.228844 0.828188,-7.053649 5.924539,-17.161093 12.316483,-34.61327 12.32936,-53.024092 0.254421,-6.424807 -1.726191,-13.553624 2.56249,-19.135527 6.124062,-9.740726 21.246632,-11.25573 29.261931,-3.051129 7.093691,6.770927 8.436533,17.974764 4.120577,26.620816 C 70.779371,55.035756 61.808599,63.599714 51.230454,62.633474 42.663813,61.443579 35.862641,55.039842 27.265537,53.957061"
       transform="matrix(1.4599025,0,0,1.4599025,-7.4608218,-17.057594)"
       sodipodi:insensitive="true" />
  </g>
</svg>
