<?xml version="1.0" encoding="UTF-8" standalone="no"?>
<!-- Created with Inkscape (http://www.inkscape.org/) -->

<svg
   width="512"
   height="512"
   viewBox="0 0 135.46666 135.46667"
   version="1.1"
   id="svg5"
   inkscape:version="1.4.2 (ebf0e940d0, 2025-05-08)"
   sodipodi:docname="application-x-zerosize.svg"
   xmlns:inkscape="http://www.inkscape.org/namespaces/inkscape"
   xmlns:sodipodi="http://sodipodi.sourceforge.net/DTD/sodipodi-0.dtd"
   xmlns:xlink="http://www.w3.org/1999/xlink"
   xmlns="http://www.w3.org/2000/svg"
   xmlns:svg="http://www.w3.org/2000/svg">
  <sodipodi:namedview
     id="namedview7"
     pagecolor="#242424"
     bordercolor="#666666"
     borderopacity="1"
     inkscape:showpageshadow="0"
     inkscape:pageopacity="0"
     inkscape:pagecheckerboard="1"
     inkscape:deskcolor="#000000"
     inkscape:document-units="px"
     showgrid="false"
     inkscape:zoom="2.6074562"
     inkscape:cx="307.38771"
     inkscape:cy="190.60723"
     inkscape:window-width="3256"
     inkscape:window-height="1080"
     inkscape:window-x="1864"
     inkscape:window-y="0"
     inkscape:window-maximized="0"
     inkscape:current-layer="layer1" />
  <defs
     id="defs2">
    <linearGradient
       id="linearGradient1"
       inkscape:collect="always">
      <stop
         style="stop-color:#000000;stop-opacity:1;"
         offset="0"
         id="stop2" />
      <stop
         style="stop-color:#ffffff;stop-opacity:0;"
         offset="1"
         id="stop1" />
    </linearGradient>
    <radialGradient
       inkscape:collect="always"
       xlink:href="#linearGradient1"
       id="radialGradient2"
       cx="67.73333"
       cy="67.73333"
       fx="67.73333"
       fy="67.73333"
       r="67.83333"
       gradientUnits="userSpaceOnUse" />
    <filter
       inkscape:collect="always"
       style="color-interpolation-filters:sRGB"
       id="filter2"
       x="-0.43199999"
       y="-0.43199999"
       width="1.864"
       height="1.864">
      <feGaussianBlur
         inkscape:collect="always"
         stdDeviation="12.785449"
         id="feGaussianBlur2" />
    </filter>
    <filter
       inkscape:collect="always"
       style="color-interpolation-filters:sRGB"
       id="filter4"
       x="-0.069119459"
       y="-0.069120539"
       width="1.1382389"
       height="1.1382411">
      <feGaussianBlur
         inkscape:collect="always"
         stdDeviation="3.02734"
         id="feGaussianBlur4" />
    </filter>
    <filter
       inkscape:collect="always"
       style="color-interpolation-filters:sRGB"
       id="filter5"
       x="-0.069119999"
       y="-0.069119999"
       width="1.13824"
       height="1.13824">
      <feGaussianBlur
         inkscape:collect="always"
         stdDeviation="2.6517601"
         id="feGaussianBlur5" />
    </filter>
    <filter
       inkscape:collect="always"
       style="color-interpolation-filters:sRGB"
       id="filter6"
       x="-0.013997186"
       y="-0.013996416"
       width="1.0279944"
       height="1.0279928">
      <feGaussianBlur
         inkscape:collect="always"
         stdDeviation="0.56773302"
         id="feGaussianBlur6" />
    </filter>
  </defs>
  <g
     inkscape:label="Layer 1"
     inkscape:groupmode="layer"
     id="layer1">
    <circle
       style="display:inline;opacity:1;fill:url(#radialGradient2);stroke:none;stroke-width:0.2;stroke-linecap:round;stroke-linejoin:round;stroke-miterlimit:12;paint-order:markers stroke fill"
       id="path1"
       cx="67.73333"
       cy="67.73333"
       r="67.73333" />
    <circle
       style="display:inline;opacity:0.8;fill:#000000;stroke:none;stroke-width:0.2;stroke-linecap:round;stroke-linejoin:round;stroke-miterlimit:12;paint-order:markers stroke fill;filter:url(#filter2)"
       id="path2"
       cx="67.73333"
       cy="67.73333"
       r="35.515137" />
    <path
       style="display:inline;opacity:1;fill:#ffffff;fill-opacity:1;stroke-width:1.02394;stroke-linecap:round;stroke-linejoin:round;stroke-miterlimit:12;paint-order:markers stroke fill;filter:url(#filter4)"
       d="m 67.733327,15.175759 c -28.984852,0 -52.55839,23.5719 -52.55839,52.556752 0,28.984854 23.573538,52.558399 52.55839,52.558399 28.984854,0 52.558403,-23.573545 52.558403,-52.558399 0,-28.984852 -23.573549,-52.556752 -52.558403,-52.556752 z m 0,7.122469 c 25.135647,0 45.435933,20.29864 45.435933,45.434283 0,25.135644 -20.300286,45.435939 -45.435933,45.435939 -25.13564,0 -45.435928,-20.300295 -45.435928,-45.435939 0,-25.135643 20.300288,-45.434283 45.435928,-45.434283 z"
       id="path3"
       transform="matrix(0.9766121,0,0,0.9766121,1.5841394,1.5841385)" />
    <circle
       style="font-variation-settings:'opsz' 32;display:inline;mix-blend-mode:normal;fill:#000000;fill-opacity:1;stroke:none;stroke-width:1.00081;stroke-linecap:round;stroke-linejoin:round;stroke-miterlimit:12;paint-order:markers stroke fill;filter:url(#filter5)"
       id="path4"
       cx="67.73333"
       cy="67.73333"
       r="46.037502"
       transform="matrix(1.0574712,0,0,1.0574712,-3.892713,-3.892713)" />
    <path
       id="path5"
       style="display:inline;opacity:1;mix-blend-mode:normal;fill:#ffffff;fill-opacity:1;stroke-width:0.999992;stroke-linecap:round;stroke-linejoin:round;stroke-miterlimit:12;paint-order:markers stroke fill;filter:url(#filter6)"
       d="m 66.497641,19.068853 c -5.75626,0.120591 -11.59612,1.366048 -16.9043,3.501953 -6.96626,2.773853 -13.37389,7.313476 -18.35445,13.001454 -7.17655,8.083208 -11.54165,18.613018 -12.10244,29.414631 -0.21546,3.901593 0.0292,7.832481 0.72894,11.595208 2.23068,12.450127 9.63165,23.824551 20,31.042261 6.89149,4.89079 15.23639,7.87169 23.54436,8.59879 4.44589,0.3889 8.97317,0.16083 13.27648,-0.63346 9.11596,-1.66774 17.78967,-6.12008 24.549689,-12.57358 7.52341,-7.122026 12.72175,-16.679746 14.44568,-26.907594 1.57239,-8.980184 0.5768,-18.444463 -2.90857,-26.840444 -2.05587,-4.981043 -5.04886,-9.792265 -8.65901,-13.842173 -7.394299,-8.352379 -17.692609,-14.03164 -28.702799,-15.762018 -2.97017,-0.465325 -5.9132,-0.655198 -8.91358,-0.595028 z m 1.2539,1.654297 c 14.70519,-0.09951 29.25385,7.228486 37.880269,19.147372 7.29104,9.891301 10.49571,22.706621 8.60267,34.859203 -1.73673,11.741875 -8.08011,22.757979 -17.484789,30.025635 -9.04401,7.10319 -20.74932,10.75158 -32.23048,9.89176 -11.73638,-0.78596 -23.14081,-6.10607 -31.12896,-14.768166 -8.22812,-8.769682 -12.93526,-20.780505 -12.67246,-32.819852 0.15943,-12.115086 5.14257,-24.140548 13.81244,-32.639367 8.46798,-8.449078 20.24422,-13.540814 32.22778,-13.674955 0.33118,-0.0071 0.66235,-0.01513 0.99353,-0.02163 z" />
  </g>
</svg>
