<?xml version="1.0" encoding="UTF-8" standalone="no"?>
<!-- Created with Inkscape (http://www.inkscape.org/) -->

<svg
   width="512"
   height="512"
   viewBox="0 0 135.46666 135.46667"
   version="1.1"
   id="svg5"
   inkscape:version="1.3.2 (091e20ef0f, 2023-11-25, custom)"
   sodipodi:docname="image-x-eps.svg"
   xmlns:inkscape="http://www.inkscape.org/namespaces/inkscape"
   xmlns:sodipodi="http://sodipodi.sourceforge.net/DTD/sodipodi-0.dtd"
   xmlns:xlink="http://www.w3.org/1999/xlink"
   xmlns="http://www.w3.org/2000/svg"
   xmlns:svg="http://www.w3.org/2000/svg">
  <sodipodi:namedview
     id="namedview7"
     pagecolor="#292929"
     bordercolor="#666666"
     borderopacity="1"
     inkscape:showpageshadow="0"
     inkscape:pageopacity="0"
     inkscape:pagecheckerboard="1"
     inkscape:deskcolor="#1a1a1a"
     inkscape:document-units="px"
     showgrid="false"
     inkscape:zoom="0.65186408"
     inkscape:cx="577.5744"
     inkscape:cy="279.19931"
     inkscape:window-width="3256"
     inkscape:window-height="1080"
     inkscape:window-x="1864"
     inkscape:window-y="0"
     inkscape:window-maximized="0"
     inkscape:current-layer="layer2" />
  <defs
     id="defs2">
    <inkscape:perspective
       sodipodi:type="inkscape:persp3d"
       inkscape:vp_x="0 : 67.733335 : 1"
       inkscape:vp_y="0 : 1000 : 0"
       inkscape:vp_z="135.46666 : 67.733335 : 1"
       inkscape:persp3d-origin="67.73333 : 45.155557 : 1"
       id="perspective1" />
    <linearGradient
       id="linearGradient41"
       inkscape:collect="always">
      <stop
         style="stop-color:#ffffff;stop-opacity:0;"
         offset="0"
         id="stop40" />
      <stop
         style="stop-color:#000000;stop-opacity:1;"
         offset="1"
         id="stop41" />
    </linearGradient>
    <linearGradient
       id="linearGradient37"
       inkscape:collect="always">
      <stop
         style="stop-color:#000000;stop-opacity:1;"
         offset="0.16"
         id="stop37" />
      <stop
         style="stop-color:#ffffff;stop-opacity:1;"
         offset="1"
         id="stop38" />
    </linearGradient>
    <linearGradient
       id="linearGradient17"
       inkscape:collect="always">
      <stop
         style="stop-color:#ff0000;stop-opacity:1;"
         offset="0"
         id="stop17" />
      <stop
         style="stop-color:#470000;stop-opacity:1;"
         offset="1"
         id="stop18" />
    </linearGradient>
    <linearGradient
       id="linearGradient15"
       inkscape:collect="always">
      <stop
         style="stop-color:#0000ff;stop-opacity:1;"
         offset="0"
         id="stop15" />
      <stop
         style="stop-color:#000047;stop-opacity:1;"
         offset="1"
         id="stop16" />
    </linearGradient>
    <linearGradient
       id="linearGradient13"
       inkscape:collect="always">
      <stop
         style="stop-color:#ffffff;stop-opacity:1;"
         offset="0"
         id="stop13" />
      <stop
         style="stop-color:#ffffff;stop-opacity:0;"
         offset="0.28218687"
         id="stop14" />
    </linearGradient>
    <linearGradient
       id="linearGradient11"
       inkscape:collect="always">
      <stop
         style="stop-color:#ffffff;stop-opacity:1;"
         offset="0"
         id="stop11" />
      <stop
         style="stop-color:#ffffff;stop-opacity:0;"
         offset="0.28"
         id="stop12" />
    </linearGradient>
    <linearGradient
       inkscape:collect="always"
       xlink:href="#linearGradient11"
       id="linearGradient12"
       x1="180.40993"
       y1="2.1171525"
       x2="180.40993"
       y2="56.886513"
       gradientUnits="userSpaceOnUse" />
    <linearGradient
       inkscape:collect="always"
       xlink:href="#linearGradient13"
       id="linearGradient14"
       x1="230.33107"
       y1="1.5261359"
       x2="230.33107"
       y2="57.743439"
       gradientUnits="userSpaceOnUse" />
    <linearGradient
       inkscape:collect="always"
       xlink:href="#linearGradient15"
       id="linearGradient16"
       x1="91.816437"
       y1="37.481434"
       x2="91.816437"
       y2="97.985229"
       gradientUnits="userSpaceOnUse" />
    <linearGradient
       inkscape:collect="always"
       xlink:href="#linearGradient17"
       id="linearGradient18"
       x1="40.378056"
       y1="38.076229"
       x2="40.378056"
       y2="97.075729"
       gradientUnits="userSpaceOnUse" />
    <filter
       inkscape:collect="always"
       style="color-interpolation-filters:sRGB"
       id="filter18"
       x="-0.049025592"
       y="-1.1614485"
       width="1.0980512"
       height="3.322897">
      <feGaussianBlur
         inkscape:collect="always"
         stdDeviation="2.2185123"
         id="feGaussianBlur18" />
    </filter>
    <linearGradient
       inkscape:collect="always"
       xlink:href="#linearGradient11"
       id="linearGradient20"
       gradientUnits="userSpaceOnUse"
       x1="180.40993"
       y1="2.1171525"
       x2="180.40993"
       y2="56.886513"
       gradientTransform="translate(19.731135,38.080063)" />
    <clipPath
       clipPathUnits="userSpaceOnUse"
       id="clipPath23">
      <path
         id="path23"
         style="fill:url(#linearGradient23);stroke-width:16.9333;stroke-linejoin:round;paint-order:markers stroke fill"
         d="m 222.92933,37.481433 v 0.594794 h -38.23384 c -16.34276,0 -29.49949,13.157255 -29.49949,29.500009 0,16.342754 13.15673,29.499496 29.49949,29.499496 h 38.23384 v 0.9095 h 37.48143 c 16.75959,0 30.25189,-13.492297 30.25189,-30.2519 0,-16.759602 -13.4923,-30.251899 -30.25189,-30.251899 z" />
    </clipPath>
    <linearGradient
       inkscape:collect="always"
       xlink:href="#linearGradient17"
       id="linearGradient23"
       gradientUnits="userSpaceOnUse"
       gradientTransform="translate(155.196)"
       x1="40.378056"
       y1="38.076229"
       x2="40.378056"
       y2="97.075729" />
    <filter
       inkscape:collect="always"
       style="color-interpolation-filters:sRGB"
       id="filter23"
       x="-0.06721637"
       y="-0.15671096"
       width="1.1344327"
       height="1.3134219">
      <feGaussianBlur
         inkscape:collect="always"
         stdDeviation="3.6755866"
         id="feGaussianBlur23" />
    </filter>
    <clipPath
       clipPathUnits="userSpaceOnUse"
       id="clipPath26">
      <path
         id="path26"
         style="opacity:1;fill:url(#linearGradient27);stroke-width:16.9333;stroke-linejoin:round;paint-order:markers stroke fill"
         d="m 335.94426,36.908705 v 0.594794 h -38.23383 c -16.34275,0 -29.4995,13.157255 -29.4995,29.500009 0,16.342755 13.15675,29.499491 29.4995,29.499491 h 38.23383 v 0.909506 h 37.48143 c 16.75961,0 30.2519,-13.492298 30.2519,-30.2519 0,-16.759603 -13.49229,-30.2519 -30.2519,-30.2519 z" />
    </clipPath>
    <linearGradient
       inkscape:collect="always"
       xlink:href="#linearGradient17"
       id="linearGradient27"
       gradientUnits="userSpaceOnUse"
       gradientTransform="translate(268.21106,-0.57252705)"
       x1="40.378056"
       y1="38.076229"
       x2="40.378056"
       y2="97.075729" />
    <filter
       inkscape:collect="always"
       style="color-interpolation-filters:sRGB"
       id="filter27"
       x="-0.089059182"
       y="-0.099700747"
       width="1.1781184"
       height="1.1994015">
      <feGaussianBlur
         inkscape:collect="always"
         stdDeviation="2.5134476"
         id="feGaussianBlur27" />
    </filter>
    <clipPath
       clipPathUnits="userSpaceOnUse"
       id="clipPath35">
      <path
         style="color:#000000;fill:url(#linearGradient36);stroke-width:0.999998;stroke-linejoin:round;-inkscape-stroke:none;paint-order:markers stroke fill"
         d="m 162.90717,-24.080104 v 0.594795 h -38.23385 c -16.34275,0 -29.499487,13.157254 -29.499487,29.5000086 0,16.3427534 13.156737,29.4994904 29.499487,29.4994904 h 38.23385 v 0.909505 h 37.48143 c 16.75959,0 30.25189,-13.492296 30.25189,-30.2518996 0,-16.7596024 -13.4923,-30.2518994 -30.25189,-30.2518994 z"
         id="path36" />
    </clipPath>
    <linearGradient
       inkscape:collect="always"
       xlink:href="#linearGradient17"
       id="linearGradient36"
       gradientUnits="userSpaceOnUse"
       gradientTransform="translate(95.173833,-61.561537)"
       x1="40.378056"
       y1="38.076229"
       x2="40.378056"
       y2="97.075729" />
    <filter
       inkscape:collect="always"
       style="color-interpolation-filters:sRGB"
       id="filter36"
       x="-0.022350857"
       y="-0.049108305"
       width="1.0447017"
       height="1.0982166">
      <feGaussianBlur
         inkscape:collect="always"
         stdDeviation="1.2813"
         id="feGaussianBlur36" />
    </filter>
    <linearGradient
       inkscape:collect="always"
       xlink:href="#linearGradient37"
       id="linearGradient38"
       x1="162.00002"
       y1="36.573231"
       x2="157.48039"
       y2="-25.137709"
       gradientUnits="userSpaceOnUse" />
    <linearGradient
       inkscape:collect="always"
       xlink:href="#linearGradient41"
       id="linearGradient40"
       gradientUnits="userSpaceOnUse"
       x1="40.378056"
       y1="38.076229"
       x2="40.378056"
       y2="97.075729"
       gradientTransform="translate(-2.4e-5)" />
    <filter
       inkscape:collect="always"
       style="color-interpolation-filters:sRGB"
       id="filter41"
       x="-8.4241268"
       y="-0.034702368"
       width="17.848254"
       height="1.0694047">
      <feGaussianBlur
         inkscape:collect="always"
         stdDeviation="0.6304038"
         id="feGaussianBlur41" />
    </filter>
  </defs>
  <g
     inkscape:label="Layer 1"
     inkscape:groupmode="layer"
     id="layer1"
     sodipodi:insensitive="true"
     style="display:none">
    <text
       xml:space="preserve"
       style="font-style:normal;font-weight:normal;font-size:83.8285px;line-height:1.25;font-family:sans-serif;fill:#ff0000;fill-opacity:1;stroke:none;stroke-width:0.264583"
       x="-4.6105671"
       y="97.660103"
       id="text1"><tspan
         sodipodi:role="line"
         id="tspan1"
         style="fill:#ff0000;stroke-width:0.264583"
         x="-4.6105671"
         y="97.660103">ePS</tspan></text>
    <rect
       style="opacity:1;fill:#0000ff;stroke-width:16.9333;stroke-linejoin:round;paint-order:markers stroke fill"
       id="rect2"
       width="135.46605"
       height="16.388908"
       x="0.00030790284"
       y="105.70708" />
    <text
       xml:space="preserve"
       style="font-style:normal;font-weight:normal;font-size:9.8765px;line-height:1.25;font-family:sans-serif;fill:#000080;fill-opacity:1;stroke:none;stroke-width:0.264583"
       x="-0.39474815"
       y="116.49411"
       id="text2"><tspan
         sodipodi:role="line"
         id="tspan2"
         style="fill:#000080;stroke-width:0.264583"
         x="-0.39474815"
         y="116.49411">I'll think of something later ;p</tspan></text>
    <rect
       style="opacity:1;fill:#0000ff;stroke-width:16.9333;stroke-linejoin:round;paint-order:markers stroke fill"
       id="rect4"
       width="135.46605"
       height="16.388908"
       x="0.00030912115"
       y="13.364209" />
    <text
       xml:space="preserve"
       style="font-style:normal;font-weight:normal;font-size:9.8765px;line-height:1.25;font-family:sans-serif;fill:#000080;fill-opacity:1;stroke:none;stroke-width:0.264583"
       x="-0.39474693"
       y="24.151241"
       id="text4"><tspan
         sodipodi:role="line"
         id="tspan4"
         style="fill:#000080;stroke-width:0.264583"
         x="-0.39474693"
         y="24.151241">I'll think of something later ;p</tspan></text>
  </g>
  <g
     inkscape:groupmode="layer"
     id="layer2"
     inkscape:label="Layer 2">
    <path
       id="rect5"
       style="display:inline;opacity:1;fill:url(#linearGradient18);stroke-width:16.9333;stroke-linejoin:round;paint-order:markers stroke fill"
       d="M 29.499491,38.076228 C 13.156721,38.076228 0,51.233466 0,67.576236 0,83.919006 13.156721,97.075727 29.499491,97.075727 H 67.733332 V 38.076228 Z"
       inkscape:label="red" />
    <path
       id="path25"
       style="display:inline;opacity:1;fill:#000000;stroke-width:16.9333;stroke-linejoin:round;paint-order:markers stroke fill;filter:url(#filter27)"
       d="m 335.94427,36.908705 v 60.5038 h 37.48143 c 16.75961,0 30.25189,-13.49228 30.25189,-30.251901 0,-16.759619 -13.49228,-30.251899 -30.25189,-30.251899 z"
       sodipodi:nodetypes="ccsssc"
       clip-path="url(#clipPath26)"
       transform="translate(-268.21093,0.5727275)"
       inkscape:label="blue-shadow" />
    <path
       id="rect9"
       style="display:inline;opacity:1;fill:url(#linearGradient16);stroke-width:16.9333;stroke-linejoin:round;paint-order:markers stroke fill"
       d="m 67.733332,37.481433 v 60.503799 h 37.481438 c 16.75961,0 30.25189,-13.49228 30.25189,-30.2519 0,-16.759619 -13.49228,-30.251899 -30.25189,-30.251899 z"
       sodipodi:nodetypes="ccsssc"
       inkscape:label="blue" />
    <path
       id="path38"
       style="display:inline;opacity:0.6;mix-blend-mode:soft-light;fill:url(#linearGradient40);stroke-width:16.9333;stroke-linejoin:round;paint-order:markers stroke fill"
       d="m 67.733332,37.481437 v 0.59479 H 29.499491 C 13.156737,38.076227 0,51.233477 0,67.576237 c 0,16.34275 13.156737,29.49949 29.499491,29.49949 h 38.233841 v 0.9095 h 37.481428 c 16.7596,0 30.2519,-13.49229 30.2519,-30.2519 0,-16.75959 -13.4923,-30.25189 -30.2519,-30.25189 z"
       inkscape:label="bottom-curve" />
    <g
       id="g14"
       transform="translate(-135.46479,38.080028)"
       style="display:none"
       sodipodi:insensitive="true">
      <path
         id="path10"
         style="opacity:1;fill:url(#linearGradient12);stroke-width:16.9333;stroke-linejoin:round;paint-order:markers stroke fill"
         d="m 164.27344,2.1269531 c -7.03979,0.1223229 -14.15028,3.1931158 -19.11152,8.4224149 -3.17428,3.268938 -5.47192,7.482058 -6.62264,11.777448 -1.99657,7.196616 -0.8419,15.19024 3.10375,21.562554 4.35447,7.178939 12.2006,12.084786 20.56247,12.853067 3.34253,0.257224 6.70156,0.08826 10.05114,0.14604 9.60846,-0.0031 19.21693,-0.0028 28.82539,-0.0057 0,-18.255208 0,-36.510416 0,-54.7656245 -12.26953,0.00326 -24.53906,0.00651 -36.80859,0.00977 z" />
      <path
         id="path11"
         style="opacity:1;fill:url(#linearGradient14);stroke-width:16.9333;stroke-linejoin:round;paint-order:markers stroke fill"
         d="m 236.83203,1.5273438 c -10.50521,-0.00195 -21.01042,-0.00391 -31.51562,-0.00586 0,18.7565102 0,37.5130202 0,56.2695312 12.49272,-0.02959 24.98776,0.07694 37.47894,-0.08367 3.94671,-0.246728 8.0572,-1.484723 11.59753,-3.470375 6.47487,-3.552791 11.41327,-9.77333 13.36147,-16.900958 0.93867,-3.352293 1.25022,-6.805585 0.95659,-10.23054 -0.28589,-3.121907 -1.11706,-6.369327 -2.455,-9.219122 -2.90689,-6.342925 -8.21386,-11.5283942 -14.69801,-14.1931065 -3.84296,-1.6126314 -7.94224,-2.2727191 -12.1087,-2.1760894 -0.87243,-0.00896 -1.74479,0.00531 -2.6172,0.010193 z" />
    </g>
    <path
       id="path14"
       style="display:inline;opacity:0.6;mix-blend-mode:soft-light;stroke-width:15.4358;stroke-linejoin:round;paint-order:markers stroke fill;filter:url(#filter18)"
       transform="matrix(1.0970114,0,0,1.0970114,-6.570906,-9.7223161)"
       d="m 70.174395,65.202463 c 0.226415,1.507556 0.134275,3.066072 -0.02309,4.576873 28.802428,0.0097 51.884545,0.156415 51.884575,-1.499402 10e-6,-1.673421 -4.36171,-3.028248 -51.861493,-3.077471 z m -5.559045,0.0028 c -46.810116,0.06243 -51.184583,1.40986 -51.184573,3.074645 2.4e-5,1.639702 22.677442,1.511986 51.084707,1.499873 0.01345,-0.06329 0.02756,-0.126558 0.04616,-0.188426 0.0077,-0.02552 0.0022,0.106425 0.0061,0.08008 0.275248,-1.492849 0.179568,-2.97457 0.04758,-4.466173 z"
       sodipodi:nodetypes="scsssccccccc" />
    <text
       xml:space="preserve"
       style="font-style:normal;font-variant:normal;font-weight:normal;font-stretch:normal;font-size:72.6045px;line-height:1.25;font-family:Aharoni;-inkscape-font-specification:'Aharoni, Normal';font-variant-ligatures:normal;font-variant-caps:normal;font-variant-numeric:normal;font-variant-east-asian:normal;display:inline;mix-blend-mode:soft-light;fill:#000000;fill-opacity:1;stroke:none;stroke-width:0.264583"
       x="7.9022422"
       y="83.830452"
       id="text28"><tspan
         sodipodi:role="line"
         id="tspan28"
         style="font-style:normal;font-variant:normal;font-weight:normal;font-stretch:normal;font-size:72.6045px;font-family:Aharoni;-inkscape-font-specification:'Aharoni, Normal';font-variant-ligatures:normal;font-variant-caps:normal;font-variant-numeric:normal;font-variant-east-asian:normal;stroke-width:0.264583"
         x="0"
         y="0">e</tspan></text>
    <text
       xml:space="preserve"
       style="font-style:normal;font-weight:normal;font-size:53.3458px;line-height:1.25;font-family:sans-serif;display:inline;mix-blend-mode:soft-light;fill:#000000;fill-opacity:1;stroke:none;stroke-width:0.264583"
       x="66.897919"
       y="86.777786"
       id="text29"><tspan
         sodipodi:role="line"
         id="tspan29"
         style="stroke-width:0.264583"
         x="0"
         y="0">PS</tspan></text>
    <path
       id="text30"
       style="font-style:normal;font-variant:normal;font-weight:normal;font-stretch:normal;font-size:72.6045px;line-height:1.25;font-family:Aharoni;-inkscape-font-specification:'Aharoni, Normal';font-variant-ligatures:normal;font-variant-caps:normal;font-variant-numeric:normal;font-variant-east-asian:normal;display:inline;mix-blend-mode:overlay;fill:#ffffff;fill-opacity:1;stroke:none;stroke-width:0.264583"
       d="m 124.41793,50.028762 -1.3963,3.839043 c -1.31586,-0.569021 -2.75586,-1.049021 -4.32066,-1.440223 -1.52924,-0.391201 -3.12976,-0.586527 -4.80126,-0.586527 -2.38278,0 -4.17862,0.515326 -5.38779,1.546676 -1.20917,0.995786 -1.81384,2.329291 -1.81384,4.000789 0,1.280296 0.26649,2.347307 0.79995,3.200838 0.25295,0.404717 0.58775,0.788152 0.99271,1.152901 -0.17563,-0.202274 -0.33018,-0.410352 -0.46354,-0.623734 -0.53346,-0.853531 -0.79995,-1.920543 -0.79995,-3.200838 0,-1.671499 0.60467,-3.005004 1.81384,-4.00079 1.20917,-1.03135 3.00501,-1.546675 5.38779,-1.546675 1.67149,0 3.27201,0.195325 4.80125,0.586527 1.56481,0.391202 3.00481,0.871202 4.32067,1.440222 l 1.49396,-4.107243 c -0.20319,-0.09144 -0.4171,-0.174602 -0.62683,-0.260966 z m -31.034795,1.927531 c 1.68914,1.876077 2.53886,4.342487 2.53886,7.406267 0,2.098263 -0.48,4.072284 -1.44022,5.921604 -0.92466,1.81375 -2.50699,3.28959 -4.747512,4.42764 -2.20496,1.13804 -5.210157,1.70687 -9.015467,1.70687 h -4.37441 v 14.8301 h -4.27209 v 0.52917 h 4.80126 v -14.83011 h 4.37441 c 3.80531,0 6.810507,-0.56883 9.015467,-1.70687 2.240512,-1.13804 3.822852,-2.61388 4.747512,-4.42764 0.96022,-1.84931 1.44022,-3.823334 1.44022,-5.921598 0,-3.36423 -1.03129,-6.003295 -3.06803,-7.935433 z m -17.038749,0.311092 v 15.043529 h 0.52917 V 52.796552 h 4.85448 c 3.37856,0 5.850237,0.604674 7.415047,1.813843 0.097,0.07493 0.18189,0.15955 0.27285,0.239262 -0.24181,-0.276408 -0.5031,-0.537449 -0.80202,-0.768429 -1.564797,-1.209169 -4.036487,-1.813843 -7.415047,-1.813843 z m -34.920353,2.047937 c 0.84133,0.872445 1.59571,1.855672 2.25103,2.964677 1.72531,2.930644 2.58795,6.334215 2.58795,10.210225 v 1.4888 h -24.46155 c 0,2.69926 0.71838,4.65551 2.14405,5.87975 -1.07183,-1.23151 -1.61489,-3.01014 -1.61489,-5.35058 h 24.46156 v -1.4888 c 0,-3.87601 -0.86265,-7.279584 -2.58796,-10.210228 -0.79052,-1.337807 -1.71899,-2.500275 -2.78019,-3.493844 z m -12.6385,2.53938 c -1.98527,0 -3.59243,0.579284 -4.82141,1.737362 -0.969,0.921735 -1.58333,2.162394 -1.8433,3.72225 h 0.65371 c 0.30338,-1.306948 0.86523,-2.381196 1.71875,-3.193083 1.22898,-1.158078 2.83615,-1.737362 4.82141,-1.737362 1.85703,0 3.34153,0.490351 4.45968,1.46296 -1.1609,-1.324886 -2.82144,-1.992127 -4.98884,-1.992127 z m 75.910607,7.845512 c 0.0452,0.0496 0.0842,0.10388 0.13074,0.15245 1.6715,1.70706 4.125,3.14758 7.36131,4.32118 2.31163,0.81797 4.108,1.60031 5.3883,2.34715 0.73177,0.39555 1.32972,0.81569 1.81952,1.25522 -0.54991,-0.63712 -1.32825,-1.2328 -2.34869,-1.78439 -1.2803,-0.74684 -3.07666,-1.52918 -5.3883,-2.34714 -2.99349,-1.08555 -5.30825,-2.40249 -6.96288,-3.94447 z m 18.37355,4.94182 c 0.43028,0.45811 0.8175,0.93787 1.12603,1.45676 0.81797,1.31586 1.2268,2.96936 1.2268,4.96094 0,3.37856 -1.22701,6.01024 -3.68091,7.89512 -2.4539,1.88488 -5.76143,2.82722 -9.92239,2.82722 -2.13383,0 -4.10785,-0.16 -5.92161,-0.48007 -1.56477,-0.27614 -2.8902,-0.65022 -4.00492,-1.11156 v 0.30747 c 1.20917,0.56902 2.72033,1.01318 4.53409,1.33325 1.81376,0.32008 3.78777,0.48008 5.9216,0.48008 4.16097,0 7.4685,-0.94234 9.92239,-2.82722 2.45391,-1.88488 3.68092,-4.51657 3.68092,-7.89513 0,-1.99157 -0.40883,-3.64507 -1.2268,-4.96093 -0.4298,-0.72283 -0.9892,-1.38108 -1.6552,-1.98593 z m -77.441257,4.15582 c -0.89203,2.71936 -2.15433,4.85273 -3.79667,6.38411 -3.16699,2.95428 -7.40918,4.43125 -12.72687,4.43125 -5.90707,0 -10.53258,-1.57068 -13.87667,-4.71134 3.37887,3.49044 8.17851,5.24051 14.40584,5.24051 5.31769,0 9.55988,-1.47698 12.72687,-4.43126 1.74892,-1.63076 3.0722,-3.93536 3.9703,-6.91327 z"
       sodipodi:nodetypes="cccscsscsscscccccsccsccccccsccscccccssccscccscccccsccsccccscsccccccccccssssccssssccccscsccc" />
    <path
       id="path32"
       style="font-style:normal;font-variant:normal;font-weight:normal;font-stretch:normal;font-size:72.6045px;line-height:1.25;font-family:Aharoni;-inkscape-font-specification:'Aharoni, Normal';font-variant-ligatures:normal;font-variant-caps:normal;font-variant-numeric:normal;font-variant-east-asian:normal;display:inline;mix-blend-mode:soft-light;fill:#000000;fill-opacity:1;stroke:none;stroke-width:0.264583"
       d="m 114.53614,48.155428 c -2.38278,0 -4.49914,0.391168 -6.34845,1.173572 -1.81376,0.782403 -3.23609,1.902919 -4.26744,3.361035 -1.03136,1.422552 -1.54719,3.147224 -1.54719,5.174361 0,2.951795 0.81817,5.281141 2.45411,6.988201 0.12513,0.12779 0.2635,0.25089 0.39739,0.37569 -1.54357,-1.69279 -2.32233,-3.967477 -2.32233,-6.834724 0,-2.027137 0.51583,-3.75181 1.54719,-5.174361 1.03135,-1.458116 2.45368,-2.578632 4.26744,-3.361035 1.84931,-0.782405 3.96567,-1.173572 6.34845,-1.173572 2.09826,0 4.01827,0.195842 5.76089,0.587044 1.49361,0.335301 2.86266,0.768007 4.12119,1.286226 l 0.0977,-0.2682 c -1.42255,-0.640148 -3.0054,-1.155991 -4.74803,-1.547193 -1.74262,-0.391201 -3.66263,-0.587044 -5.76089,-0.587044 z m -42.463559,0.533818 v 38.088631 h 0.52917 V 49.218412 h 10.08259 c 4.978917,0 8.606447,0.977663 10.882537,2.933671 0.1234,0.10605 0.23055,0.223592 0.34726,0.334347 -0.27185,-0.302038 -0.56079,-0.592258 -0.87643,-0.863513 -2.27609,-1.956008 -5.903607,-2.933671 -10.882537,-2.933671 z m -43.218543,1.320849 c -5.81403,0 -10.31605,1.642707 -13.50667,4.927865 -3.19062,3.285159 -4.78627,7.550877 -4.78627,12.797667 0,4.41961 1.27621,8.16563 3.8287,11.23807 0.42827,0.5175 0.88335,1.00181 1.36478,1.45418 -0.28763,-0.29728 -0.56864,-0.60242 -0.83561,-0.92501 -2.5525,-3.07245 -3.82871,-6.81847 -3.82871,-11.23807 0,-5.2468 1.59566,-9.512512 4.78627,-12.797671 3.19063,-3.285157 7.69265,-4.927864 13.50667,-4.927864 5.32114,0 9.5113,1.438053 12.57495,4.308781 -3.10346,-3.220789 -7.46789,-4.837948 -13.10411,-4.837948 z m 61.09239,5.369182 c 1.02342,1.170466 1.54409,2.741281 1.54409,4.725809 0,2.809541 -0.88935,4.801221 -2.66754,5.974831 -1.778197,1.1736 -4.481037,1.7601 -8.108547,1.7601 h -3.31142 v 0.52916 h 3.84059 c 3.62751,0 6.330347,-0.5865 8.108547,-1.7601 1.77819,-1.1736 2.66754,-3.16528 2.66754,-5.974824 0,-2.301297 -0.69704,-4.048394 -2.07326,-5.254976 z m -55.64053,3.998722 c 0.76228,0.870834 1.3108,2.022842 1.63866,3.465418 h -12.64057 c -0.04103,0.17676 -0.09357,0.34336 -0.12454,0.52917 h 13.29428 c -0.3993,-1.756941 -1.12414,-3.085732 -2.16783,-3.994588 z m 74.775282,2.953828 c 0.52139,0.58259 1.21415,1.12039 2.08979,1.60972 1.20917,0.67571 2.84501,1.40506 4.90771,2.18746 2.24052,0.81797 4.12519,1.7068 5.65444,2.66702 0.70542,0.41685 1.32004,0.87922 1.86655,1.37563 -0.66093,-0.70378 -1.44779,-1.34465 -2.39572,-1.9048 -1.52925,-0.96021 -3.41392,-1.84905 -5.65443,-2.66702 -2.0627,-0.7824 -3.69855,-1.51175 -4.90771,-2.18746 -0.60459,-0.33785 -1.12488,-0.69823 -1.56063,-1.08055 z m 10.84326,10.97194 c 0.15973,0.18491 0.30625,0.37217 0.42633,0.5643 0.53345,0.85353 0.79995,1.90289 0.79995,3.14761 0,1.88489 -0.72882,3.37839 -2.18694,4.48087 -1.42255,1.10248 -3.55658,1.65364 -6.40168,1.65364 -2.02714,0 -4.00115,-0.23116 -5.9216,-0.69349 -1.88488,-0.46233 -3.46722,-0.97766 -4.74751,-1.54668 v 4.58783 c 0.16596,0.0781 0.35182,0.14778 0.52916,0.22118 v -4.27984 c 1.2803,0.56902 2.86264,1.08434 4.74752,1.54667 1.92044,0.46233 3.89446,0.6935 5.9216,0.6935 2.8451,0 4.97913,-0.55117 6.40167,-1.65365 1.45812,-1.10247 2.18695,-2.59597 2.18695,-4.48086 0,-1.24473 -0.2665,-2.29408 -0.79995,-3.14761 -0.23703,-0.37925 -0.564,-0.74233 -0.9555,-1.09347 z m -84.830992,0.49402 c -1.29988,2.07982 -3.16688,3.11971 -5.60121,3.11971 -2.16615,0 -3.83547,-0.51426 -5.01881,-1.53117 1.19024,1.36872 3.03491,2.06034 5.54798,2.06034 2.43432,0 4.30133,-1.03989 5.60121,-3.11971 h 10.53475 c 0.05794,-0.17661 0.11938,-0.34755 0.17415,-0.52917 z"
       sodipodi:nodetypes="sccsccsccssccsssccccsscsscssscccscscscsssccsssccccccccscccccsccsscsccccccscssccscscccc" />
    <path
       style="color:#000000;display:inline;opacity:1;mix-blend-mode:overlay;fill:url(#linearGradient38);stroke-linejoin:round;-inkscape-stroke:none;paint-order:markers stroke fill;filter:url(#filter36)"
       d="m 162.90626,-25.137709 a 1.0584391,1.0584391 0 0 0 -0.59375,0.59375 h -37.63868 c -16.91076,0 -30.558591,13.647849 -30.558591,30.5585945 0,16.9107445 13.647851,30.5585935 30.558591,30.5585935 h 37.32618 a 1.0584391,1.0584391 0 0 0 0.90625,0.908203 h 37.48241 c 17.32758,0 31.31055,-13.982954 31.31055,-31.3105465 0,-17.3275925 -13.98297,-31.3085945 -31.31055,-31.3085945 z m 0.5957,2.115234 h 36.88671 c 16.19157,0 29.19336,13.001781 29.19336,29.1933605 0,16.1915805 -13.00179,29.1953115 -29.19336,29.1953115 h -36.57226 a 1.0584391,1.0584391 0 0 0 -0.91015,-0.910156 h -38.23243 c -15.77473,0 -28.441403,-12.666675 -28.441403,-28.4414055 0,-15.774731 12.666703,-28.4414065 28.441403,-28.4414065 h 38.23243 a 1.0584391,1.0584391 0 0 0 0.5957,-0.595704 z"
       id="path34"
       clip-path="url(#clipPath35)"
       transform="translate(-95.173897,61.561471)"
       inkscape:label="edge-curve" />
    <path
       id="path19"
       style="display:inline;opacity:0.6;mix-blend-mode:lighten;fill:url(#linearGradient20);stroke-width:16.9333;stroke-linejoin:round;paint-order:markers stroke fill;filter:url(#filter23)"
       d="m 260.73905,39.596603 c -0.51834,-0.01195 -1.03775,-0.01156 -1.55856,5.16e-4 -0.87243,-0.009 -1.745,0.0055 -2.61741,0.01033 -10.5052,-0.0019 -21.0102,-0.0037 -31.51539,-0.0057 v 56.269429 c 12.49271,-0.02959 24.98768,0.07689 37.47885,-0.08372 3.9467,-0.246728 8.0569,-1.484939 11.59722,-3.470589 6.47487,-3.552787 11.41378,-9.773156 13.36198,-16.900777 0.93867,-3.35229 1.25016,-6.805432 0.95653,-10.230383 -0.28589,-3.121905 -1.11721,-6.369284 -2.45515,-9.219076 -2.90689,-6.342915 -8.21367,-11.528735 -14.69781,-14.193445 -3.36259,-1.411051 -6.92189,-2.092953 -10.55026,-2.176611 z m -39.92573,0.60048 c -12.26952,0.0033 -24.53909,0.0066 -36.8086,0.0098 -7.03979,0.122322 -14.15026,3.193447 -19.1115,8.422741 -3.17427,3.268934 -5.47213,7.481673 -6.62285,11.777059 -1.99657,7.196609 -0.84196,15.190201 3.10369,21.562508 4.35446,7.178932 12.2007,12.085199 20.56257,12.853479 3.34252,0.257223 6.70149,0.08795 10.05106,0.145728 9.60845,-0.0031 19.21718,-0.0028 28.82563,-0.0057 z"
       clip-path="url(#clipPath23)"
       transform="translate(-155.19599,1.1774751e-5)"
       inkscape:label="top-shine"
       sodipodi:insensitive="true" />
    <ellipse
       style="opacity:1;fill:#ffffff;fill-opacity:1;stroke:none;stroke-width:2.11667;stroke-linejoin:round;stroke-dasharray:none;stroke-opacity:1;paint-order:markers stroke fill;filter:url(#filter41)"
       id="path41"
       cx="67.892891"
       cy="67.466652"
       rx="0.089799762"
       ry="21.799221" />
    <path
       id="path42"
       style="display:none;mix-blend-mode:color-dodge;fill:#ff8080;stroke-width:16.9332;stroke-linejoin:round;paint-order:markers stroke fill"
       d="m 36.309657,62.9594 c -13.431817,0 -24.24508,0.452216 -24.24508,1.013921 0,0.561706 10.813263,1.013904 24.24508,1.013904 H 67.733335 V 62.9594 Z"
       inkscape:label="red"
       sodipodi:insensitive="true" />
    <path
       id="path43"
       style="display:none;mix-blend-mode:color-dodge;fill:#55ddff;stroke-width:16.9332;stroke-linejoin:round;paint-order:markers stroke fill"
       d="m 67.733335,62.933547 v 2.079529 h 30.805293 c 13.774412,0 24.863462,-0.463733 24.863462,-1.039764 0,-0.576032 -11.08905,-1.039765 -24.863462,-1.039765 z"
       sodipodi:nodetypes="ccsssc"
       inkscape:label="blue"
       sodipodi:insensitive="true" />
    <path
       id="rect6"
       style="opacity:1;fill:#ff0000;stroke:#000000;stroke-width:0.264583;stroke-linejoin:round;paint-order:markers stroke fill;fill-opacity:1"
       d="M 0 0 L 0 23.460066 L 135.46666 23.460066 L 135.46666 0 L 0 0 z M 81.33922 3.0514933 L 83.303441 3.0514933 L 83.303441 16.63206 L 81.33922 16.63206 L 81.33922 3.0514933 z M 116.08645 3.0514933 L 118.05067 3.0514933 L 118.05067 14.142806 C 118.05067 14.98947 118.0845 15.988595 118.11837 16.63206 L 116.39134 16.63206 L 116.28954 15.175818 L 116.2389 15.175818 C 115.74783 16.124082 114.73144 16.818611 113.41065 16.818611 C 111.29399 16.818611 109.68581 14.938904 109.68581 12.060246 C 109.68581 8.8937217 111.49735 7.0987914 113.58015 7.0987914 C 114.78241 7.0987914 115.64595 7.640747 116.05235 8.3519449 L 116.08645 8.3519449 L 116.08645 3.0514933 z M 17.348295 3.6783284 L 24.121525 3.6783284 L 24.121525 5.3206054 L 19.312516 5.3206054 L 19.312516 9.0630126 L 23.85074 9.0630126 L 23.85074 10.688753 L 19.312516 10.688753 L 19.312516 14.989783 L 24.409362 14.989783 L 24.409362 16.63206 L 17.348295 16.63206 L 17.348295 3.6783284 z M 97.154792 4.999178 L 97.154792 7.3018798 L 99.373261 7.3018798 L 99.373261 8.7751749 L 97.154792 8.7751749 L 97.154792 13.499434 C 97.154792 14.650897 97.510519 15.209924 98.340249 15.209924 C 98.729715 15.209924 98.966697 15.158801 99.203763 15.091068 L 99.271459 16.59847 C 98.932793 16.733936 98.407919 16.818611 97.747521 16.818611 C 96.96859 16.818611 96.308037 16.564742 95.901639 16.107544 C 95.427507 15.599545 95.207624 14.820433 95.207624 13.601237 L 95.207624 8.7751749 L 93.886775 8.7751749 L 93.886775 7.3018798 L 95.207624 7.3018798 L 95.207624 5.6084431 L 97.154792 4.999178 z M 30.928861 7.0987914 C 32.385123 7.0987914 34.010843 8.0472898 34.010843 10.925948 L 34.010843 16.63206 L 32.046622 16.63206 L 32.046622 11.162626 C 32.046622 9.8418299 31.606166 8.724532 30.268436 8.724532 C 29.303239 8.724532 28.270109 9.5200516 28.270109 11.010181 L 28.270109 16.63206 L 26.305888 16.63206 L 26.305888 9.9265258 C 26.305888 8.8935955 26.272058 8.0977441 26.238191 7.3018798 L 27.948681 7.3018798 L 28.049967 8.6904255 L 28.101127 8.6904255 C 28.541392 7.8945612 29.523399 7.0987914 30.928861 7.0987914 z M 40.73343 7.0987914 C 41.630894 7.0987914 42.409592 7.318822 42.815991 7.5220214 L 42.42635 9.0294229 C 42.087685 8.8600901 41.545831 8.6568358 40.749967 8.6568358 C 38.921172 8.6568358 37.905179 10.146702 37.905179 11.975496 C 37.905179 14.024424 39.107835 15.243514 40.73343 15.243514 C 41.512362 15.243514 42.053781 15.057193 42.494047 14.870927 L 42.765348 16.344222 C 42.325082 16.547421 41.444574 16.818611 40.360843 16.818611 C 37.668451 16.818611 35.907369 14.97277 35.907369 12.060246 C 35.907369 9.2323873 37.736239 7.0987914 40.73343 7.0987914 z M 47.557303 7.0987914 C 50.300495 7.0987914 51.062516 8.9106474 51.062516 10.891842 L 51.062516 14.414107 C 51.062516 15.209971 51.079375 16.022461 51.197908 16.63206 L 49.420239 16.63206 L 49.28433 15.548405 L 49.233687 15.548405 C 48.708755 16.276536 47.794491 16.818611 46.626094 16.818611 C 44.881966 16.818611 43.882592 15.531492 43.882592 14.092163 C 43.882592 11.772303 45.897904 10.621057 49.098294 10.621057 C 49.098294 9.9267924 49.098417 8.53798 47.218823 8.53798 C 46.389092 8.53798 45.542375 8.7918861 44.949711 9.1813516 L 44.543017 7.8775552 C 45.203415 7.4542232 46.30424 7.0987914 47.557303 7.0987914 z M 58.293082 7.0987914 C 60.392809 7.0987914 61.967793 8.9615658 61.967793 11.857157 C 61.967793 15.27768 59.986558 16.818611 58.022297 16.818611 C 56.904701 16.818611 55.990242 16.293349 55.533044 15.531352 L 55.498937 15.531352 L 55.498937 20.408573 L 53.534716 20.408573 L 53.534716 10.316166 C 53.534716 9.0969697 53.500887 8.1316107 53.46702 7.3018798 L 55.194046 7.3018798 L 55.295849 8.724532 L 55.329439 8.724532 C 55.972903 7.6746684 56.989219 7.0987914 58.293082 7.0987914 z M 66.759749 7.0987914 C 67.674146 7.0987914 68.469702 7.3530114 68.977701 7.6408772 L 68.537418 9.0630126 C 68.164886 8.8259466 67.521746 8.53798 66.759749 8.53798 C 65.879218 8.53798 65.404792 9.046263 65.404792 9.6727945 C 65.404792 10.316259 65.828307 10.637971 66.962837 11.129036 C 68.503766 11.755568 69.316698 12.602108 69.316698 13.956771 C 69.316698 15.751699 67.9452 16.818611 65.828539 16.818611 C 64.846409 16.818611 63.914657 16.564309 63.288126 16.191776 L 63.728409 14.735534 C 64.202541 15.0234 65.066265 15.36237 65.862129 15.36237 C 66.911992 15.36237 67.420173 14.854004 67.420173 14.142806 C 67.420173 13.431608 67.030368 13.042357 65.912772 12.568225 C 64.25331 11.907827 63.525321 10.976666 63.525321 9.8929361 C 63.525321 8.335074 64.795488 7.0987914 66.759749 7.0987914 z M 88.840571 7.0987914 C 91.583763 7.0987914 92.345783 8.9106474 92.345783 10.891842 L 92.345783 14.414107 C 92.345783 15.209971 92.362643 16.022461 92.481176 16.63206 L 90.703506 16.63206 L 90.568114 15.548405 L 90.516954 15.548405 C 89.992023 16.276536 89.077758 16.818611 87.909362 16.818611 C 86.165234 16.818611 85.166377 15.531492 85.166377 14.092163 C 85.166377 11.772303 87.181172 10.621057 90.381562 10.621057 C 90.381562 9.9267924 90.381685 8.53798 88.50209 8.53798 C 87.67236 8.53798 86.825643 8.7918861 86.232978 9.1813516 L 85.826802 7.8775552 C 86.4872 7.4542232 87.587508 7.0987914 88.840571 7.0987914 z M 104.69025 7.0987914 C 107.31491 7.0987914 108.36496 9.2829295 108.36496 11.585856 C 108.36496 11.907588 108.34767 12.178714 108.3138 12.415779 L 102.38755 12.415779 C 102.43835 14.515507 103.74209 15.31121 105.21528 15.31121 C 106.24821 15.31121 106.95955 15.124926 107.56914 14.870927 L 107.89057 16.259472 C 107.23017 16.564272 106.19744 16.818611 104.92744 16.818611 C 102.11652 16.818611 100.49102 14.939144 100.49102 12.094352 C 100.49102 9.3172936 102.04866 7.0987914 104.69025 7.0987914 z M 71.19617 7.2848266 L 73.160391 7.2848266 L 73.160391 12.517582 C 73.160391 14.126244 73.617541 15.192871 74.904471 15.192871 C 75.801935 15.192871 76.852156 14.481667 76.852156 13.076204 L 76.852156 7.3018798 L 78.816377 7.3018798 L 78.816377 13.956771 C 78.816377 15.006634 78.866743 15.886995 78.900609 16.63206 L 77.173583 16.63206 L 77.072297 15.27762 L 77.021138 15.27762 C 76.631672 15.921085 75.717519 16.818611 74.210456 16.818611 C 72.601795 16.818611 71.19617 15.819267 71.19617 12.839009 L 71.19617 7.2848266 z M 104.55486 8.5043904 C 103.11553 8.5043904 102.50568 9.9264504 102.40408 11.010181 L 106.50203 11.010181 C 106.51896 9.8925838 106.06192 8.5043904 104.55486 8.5043904 z M 114.02043 8.6568358 C 112.51337 8.6568358 111.68362 10.146822 111.68362 11.992549 C 111.68362 13.821344 112.49671 15.226977 113.98684 15.226977 C 115.25684 15.226977 116.08645 14.109283 116.08645 12.80542 L 116.08645 11.077877 C 116.08645 9.5538812 115.12109 8.6568358 114.02043 8.6568358 z M 57.666247 8.6733723 C 56.49785 8.6733723 55.498937 9.7744936 55.498937 11.14609 L 55.498937 12.873116 C 55.498937 14.549511 56.650407 15.260567 57.615604 15.260567 C 59.139599 15.260567 59.969465 13.855248 59.969465 11.924853 C 59.969465 10.146859 59.173309 8.6733723 57.666247 8.6733723 z M 49.148937 11.941907 C 47.608009 11.941907 45.830277 12.229613 45.830277 13.889075 C 45.830277 14.922005 46.473638 15.379423 47.201769 15.379423 C 48.268566 15.379423 49.148937 14.566111 49.148937 13.482381 L 49.148937 11.941907 z M 90.432205 11.941907 C 88.891276 11.941907 87.113545 12.229613 87.113545 13.889075 C 87.113545 14.922005 87.756906 15.379423 88.485037 15.379423 C 89.551834 15.379423 90.432205 14.566111 90.432205 13.482381 L 90.432205 11.941907 z " />
    <path
       id="rect7"
       style="opacity:1;fill:#0000ff;fill-opacity:1;stroke:#000000;stroke-width:0.264583;stroke-linejoin:round;paint-order:markers stroke fill"
       d="M 0 112.0066 L 0 135.46666 L 135.46666 135.46666 L 135.46666 112.0066 L 0 112.0066 z M 66.937515 115.26997 C 68.173645 115.26997 69.105166 115.57483 69.663964 115.86269 L 69.189574 117.48843 C 68.766242 117.25137 67.953669 116.91224 66.886873 116.91224 C 65.345944 116.91224 64.70251 117.81005 64.70251 118.63979 C 64.70251 119.74045 65.430379 120.28245 67.072908 120.99365 C 69.155702 121.90804 70.15489 123.04229 70.15489 124.82029 C 70.15489 126.98775 68.546244 128.61334 65.633719 128.61334 C 64.414523 128.61334 63.127625 128.2579 62.501094 127.83457 L 62.941377 126.19178 C 63.635642 126.61511 64.685261 126.95401 65.752058 126.95401 C 67.292987 126.95401 68.156562 126.15818 68.156562 124.98979 C 68.156562 123.88912 67.496075 123.21169 65.955146 122.56823 C 64.024752 121.7893 62.721235 120.62099 62.721235 118.85993 C 62.721235 116.811 64.363656 115.26997 66.937515 115.26997 z M 32.800065 115.37177 C 34.391793 115.37177 35.594042 115.71 36.372973 116.40426 C 37.101104 117.03079 37.541377 118.01308 37.541377 119.19841 C 37.541377 122.348 35.035055 123.43174 32.698262 123.43174 C 32.291863 123.43174 31.919287 123.41472 31.597554 123.34699 L 31.597554 128.4273 L 29.650386 128.4273 L 29.650386 115.6255 C 30.429317 115.49003 31.462335 115.37177 32.800065 115.37177 z M 87.409651 115.37177 C 88.086982 115.37177 88.544465 115.86272 88.544465 116.52312 C 88.544465 117.14965 88.104312 117.65742 87.393114 117.65742 C 86.715783 117.65742 86.2583 117.14965 86.2583 116.52312 C 86.2583 115.86272 86.732319 115.37177 87.409651 115.37177 z M 59.11422 116.7939 L 59.11422 119.09712 L 61.33269 119.09712 L 61.33269 120.5699 L 59.11422 120.5699 L 59.11422 125.29468 C 59.11422 126.44614 59.469947 127.00465 60.299678 127.00465 C 60.689143 127.00465 60.926125 126.95404 61.163191 126.88631 L 61.230887 128.3932 C 60.892221 128.52866 60.367347 128.61334 59.706949 128.61334 C 58.928018 128.61334 58.267466 128.35947 57.861067 127.90227 C 57.386935 127.39427 57.167053 126.61516 57.167053 125.39596 L 57.167053 120.5699 L 55.846203 120.5699 L 55.846203 119.09712 L 57.167053 119.09712 L 57.167053 117.40369 L 59.11422 116.7939 z M 103.59781 116.7939 L 103.59781 119.09712 L 105.81628 119.09712 L 105.81628 120.5699 L 103.59781 120.5699 L 103.59781 125.29468 C 103.59781 126.44614 103.95354 127.00465 104.78327 127.00465 C 105.17273 127.00465 105.40971 126.95404 105.64678 126.88631 L 105.71448 128.3932 C 105.37581 128.52866 104.85094 128.61334 104.19054 128.61334 C 103.41161 128.61334 102.75157 128.35947 102.34517 127.90227 C 101.87104 127.39427 101.65064 126.61516 101.65064 125.39596 L 101.65064 120.5699 L 100.32979 120.5699 L 100.32979 119.09712 L 101.65064 119.09712 L 101.65064 117.40369 L 103.59781 116.7939 z M 32.918404 116.91224 C 32.308806 116.91224 31.851553 116.9803 31.597554 117.0311 L 31.597554 121.77241 C 31.88542 121.85708 32.241063 121.8737 32.698262 121.8737 C 34.49319 121.8737 35.577156 120.94262 35.577156 119.28316 C 35.577156 117.70836 34.493199 116.91224 32.918404 116.91224 z M 43.264542 118.89352 C 45.821468 118.89352 47.497875 120.82426 47.497875 123.68599 C 47.497875 127.17425 45.228877 128.61334 43.12915 128.61334 C 40.70769 128.61334 38.862227 126.83551 38.862227 123.82138 C 38.862227 120.67179 40.792283 118.89352 43.264542 118.89352 z M 52.306884 118.89352 C 53.221281 118.89352 54.017355 119.14774 54.525353 119.4356 L 54.08507 120.85774 C 53.712538 120.62067 53.068882 120.33322 52.306884 120.33322 C 51.426353 120.33322 50.952445 120.84099 50.952445 121.46752 C 50.952445 122.11098 51.375959 122.4327 52.510489 122.92376 C 54.051418 123.55029 54.863834 124.39683 54.863834 125.7515 C 54.863834 127.54642 53.492335 128.61334 51.375675 128.61334 C 50.393544 128.61334 49.46231 128.35955 48.835778 127.98702 L 49.276061 126.53078 C 49.750193 126.81864 50.613917 127.15709 51.409781 127.15709 C 52.459645 127.15709 52.967309 126.64925 52.967309 125.93805 C 52.967309 125.22685 52.578021 124.83708 51.460424 124.36295 C 49.800962 123.70255 49.072973 122.77139 49.072973 121.68766 C 49.072973 120.1298 50.342623 118.89352 52.306884 118.89352 z M 76.403087 118.89352 C 77.300551 118.89352 78.079766 119.11406 78.486164 119.31726 L 78.096524 120.82415 C 77.757858 120.65482 77.216005 120.45156 76.420141 120.45156 C 74.591346 120.45156 73.575353 121.94194 73.575353 123.77074 C 73.575353 125.81967 74.777492 127.03876 76.403087 127.03876 C 77.182018 127.03876 77.723955 126.85243 78.16422 126.66617 L 78.435005 128.13946 C 77.994739 128.34266 77.11423 128.61334 76.0305 128.61334 C 73.338108 128.61334 71.577025 126.7675 71.577025 123.85497 C 71.577025 121.02711 73.405896 118.89352 76.403087 118.89352 z M 84.395881 118.89352 C 84.582147 118.89352 84.717474 118.91081 84.886807 118.94468 L 84.886807 120.82415 C 84.717474 120.79028 84.531264 120.77351 84.311132 120.77351 C 82.990336 120.77351 82.160359 121.85679 82.160359 123.48238 L 82.160359 128.4273 L 80.196138 128.4273 L 80.196138 121.94191 C 80.196138 120.85818 80.179241 119.96072 80.128441 119.09712 L 81.838931 119.09712 L 81.906627 120.80709 L 81.974324 120.80709 C 82.397656 119.62177 83.379884 118.89352 84.395881 118.89352 z M 95.656176 118.89352 C 97.755903 118.89352 99.330887 120.75629 99.330887 123.65188 C 99.330887 127.07241 97.349652 128.61334 95.385391 128.61334 C 94.267794 128.61334 93.353336 128.08859 92.896137 127.32659 L 92.862548 127.32659 L 92.862548 132.2033 L 90.898327 132.2033 L 90.898327 122.11089 C 90.898327 120.89169 90.86398 119.92685 90.830114 119.09712 L 92.557657 119.09712 L 92.658943 120.51926 L 92.693049 120.51926 C 93.336514 119.46939 94.352313 118.89352 95.656176 118.89352 z M 86.410745 119.08007 L 88.374966 119.08007 L 88.374966 128.4273 L 86.410745 128.4273 L 86.410745 119.08007 z M 43.196846 120.36681 C 41.520451 120.36681 40.877091 122.16208 40.877091 123.77074 C 40.877091 125.59953 41.740464 127.14004 43.179793 127.14004 C 44.602189 127.14004 45.483011 125.59929 45.483011 123.73663 C 45.483011 122.1957 44.839374 120.36681 43.196846 120.36681 z M 95.029857 120.46861 C 93.861461 120.46861 92.862548 121.56922 92.862548 122.94081 L 92.862548 124.66784 C 92.862548 126.34424 94.014017 127.05529 94.979214 127.05529 C 96.50321 127.05529 97.332559 125.64997 97.332559 123.71958 C 97.332559 121.94158 96.536919 120.46861 95.029857 120.46861 z " />
  </g>
</svg>
