<?xml version="1.0" encoding="UTF-8" standalone="no"?>
<!-- Created with Inkscape (http://www.inkscape.org/) -->

<svg
   width="512"
   height="512"
   viewBox="0 0 135.46666 135.46667"
   version="1.1"
   id="svg5"
   inkscape:version="1.4.2 (ebf0e940d0, 2025-05-08)"
   sodipodi:docname="image-icon.svg"
   xmlns:inkscape="http://www.inkscape.org/namespaces/inkscape"
   xmlns:sodipodi="http://sodipodi.sourceforge.net/DTD/sodipodi-0.dtd"
   xmlns:xlink="http://www.w3.org/1999/xlink"
   xmlns="http://www.w3.org/2000/svg"
   xmlns:svg="http://www.w3.org/2000/svg"
   xmlns:rdf="http://www.w3.org/1999/02/22-rdf-syntax-ns#"
   xmlns:cc="http://creativecommons.org/ns#"
   xmlns:dc="http://purl.org/dc/elements/1.1/">&gt;
  <sodipodi:namedview
   id="namedview7"
   pagecolor="#292929"
   bordercolor="#666666"
   borderopacity="1"
   inkscape:showpageshadow="0"
   inkscape:pageopacity="0"
   inkscape:pagecheckerboard="1"
   inkscape:deskcolor="#1a1a1a"
   inkscape:document-units="px"
   showgrid="false"
   inkscape:zoom="0.921875"
   inkscape:cx="219.66102"
   inkscape:cy="387.25424"
   inkscape:window-width="3256"
   inkscape:window-height="1080"
   inkscape:window-x="1864"
   inkscape:window-y="0"
   inkscape:window-maximized="0"
   inkscape:current-layer="layer1" />
<defs
   id="defs2">
  <linearGradient
     id="linearGradient1"
     inkscape:collect="always">
    <stop
       style="stop-color:#ffffff;stop-opacity:1;"
       offset="0"
       id="stop2" />
    <stop
       style="stop-color:#adadad;stop-opacity:1;"
       offset="1"
       id="stop3" />
  </linearGradient>
  <clipPath
     clipPathUnits="userSpaceOnUse"
     id="clipPath24782">
    <path
       id="path24784"
       style="display:inline;fill:#cbcbcb;fill-opacity:1;stroke:none;stroke-width:1.82463;stroke-linecap:round;stroke-linejoin:round;paint-order:stroke fill markers"
       d="m -114.12565,-33.433961 c -8.47701,10e-6 -16.31684,2.724282 -22.69577,7.342187 h -7.44244 c -2.26696,0 -4.09174,1.824772 -4.09174,4.09174 v 9.146212 c -2.88208,5.4188717 -4.51754,11.6016368 -4.51755,18.1673657 1.3e-4,1.2801221 0.0635,2.5539202 0.18862,3.8168212 0.12509,1.2629011 0.31202,2.5149361 0.55862,3.7522261 0.24659,1.23729 0.55314,2.459533 0.91777,3.662825 0.36464,1.203292 0.78738,2.387715 1.26659,3.548621 0.47921,1.160905 1.01475,2.298446 1.60507,3.408577 0.59032,1.110131 0.26273,0.943151 1.93322,3.243731 1.67049,2.300579 0.64957,5.178708 -0.80874,5.892147 -1.45831,0.713438 -5.1418,2.293712 -5.1418,5.142319 V 67.80069 c 0,2.84861 2.29319,5.141799 5.1418,5.141799 h 66.172711 c 2.84861,0 5.141812,-2.293189 5.141812,-5.141799 V 37.780811 c 0,-2.848607 -3.6835,-4.428881 -5.141812,-5.142319 -1.458309,-0.713439 -2.479228,-3.591568 -0.808728,-5.892147 1.670479,-2.30058 1.34289,-2.1336 1.93321,-3.243731 -0.005,-0.0019 -0.01029,-0.0037 -0.01551,-0.0057 0.589902,-1.107077 1.125731,-2.241549 1.605071,-3.399276 0.480671,-1.160927 0.90469,-2.345148 1.27072,-3.54862 0.36604,-1.203472 0.673991,-2.426237 0.921911,-3.663859 0.24791,-1.237621 0.435909,-2.489885 0.56224,-3.7532603 0.12633,-1.2633751 0.19096,-2.5376402 0.192238,-3.8183711 -2.9e-5,-21.3995866 -17.347909,-38.7474606 -38.747513,-38.7474896 z" />
  </clipPath>
  <clipPath
     clipPathUnits="userSpaceOnUse"
     id="clipPath33631">
    <path
       id="path33633"
       style="display:inline;fill:#e6e6e6;fill-opacity:1;stroke:none;stroke-width:1.35542;stroke-linecap:round;stroke-linejoin:round;paint-order:stroke fill markers"
       d="m -70.861337,-16.778488 c -23.526221,0.02115 -47.054663,-0.01976 -70.579733,0.03948 -1.98719,0.192668 -3.33047,2.326926 -2.9945,4.22693 -2.6e-4,33.915107 -0.0186,67.830232 0.0332,101.745312 0.18328,1.991299 2.32369,3.36061 4.22891,3.013681 23.44448,-0.01101 46.892321,0.0423 70.33469,-0.0528 1.975723,-0.26426 3.213687,-2.424501 2.871962,-4.305379 2.64e-4,-33.882555 0.0186,-67.765127 -0.03322,-101.647656 -0.168114,-1.838977 -2.057575,-3.241903 -3.861327,-3.019531 z" />
  </clipPath>
  <clipPath
     clipPathUnits="userSpaceOnUse"
     id="clipPath16586">
    <circle
       style="opacity:1;fill:#999999;fill-opacity:1;stroke:none;stroke-width:1.48167;stroke-linecap:round;stroke-linejoin:round;paint-order:stroke fill markers"
       id="circle16588"
       cx="-4.3258052"
       cy="117.11976"
       r="13.911281"
       transform="rotate(62.103165)" />
  </clipPath>
  <clipPath
     clipPathUnits="userSpaceOnUse"
     id="clipPath43801">
    <circle
       style="display:inline;fill:url(#linearGradient43805);fill-opacity:1;stroke:none;stroke-width:0.186739;stroke-linecap:round;stroke-linejoin:round;paint-order:stroke fill markers"
       id="circle43803"
       cx="-6.8715911"
       cy="49.973873"
       r="1.7532779" />
  </clipPath>
  <clipPath
     clipPathUnits="userSpaceOnUse"
     id="clipPath4">
    <circle
       style="opacity:1;fill:#999999;fill-opacity:1;stroke:none;stroke-width:1.48167;stroke-linecap:round;stroke-linejoin:round;paint-order:stroke fill markers"
       id="circle4"
       cx="-4.3258052"
       cy="117.11976"
       r="13.911281"
       transform="rotate(62.103165)" />
  </clipPath>
  <clipPath
     clipPathUnits="userSpaceOnUse"
     id="clipPath5">
    <circle
       style="display:inline;fill:url(#linearGradient43805);fill-opacity:1;stroke:none;stroke-width:0.186739;stroke-linecap:round;stroke-linejoin:round;paint-order:stroke fill markers"
       id="circle5"
       cx="-6.8715911"
       cy="49.973873"
       r="1.7532779" />
  </clipPath>
  <clipPath
     clipPathUnits="userSpaceOnUse"
     id="clipPath12">
    <circle
       style="opacity:1;fill:#999999;fill-opacity:1;stroke:none;stroke-width:1.48167;stroke-linecap:round;stroke-linejoin:round;paint-order:stroke fill markers"
       id="circle12"
       cx="-4.3258052"
       cy="117.11976"
       r="13.911281"
       transform="rotate(62.103165)" />
  </clipPath>
  <clipPath
     clipPathUnits="userSpaceOnUse"
     id="clipPath13">
    <circle
       style="display:inline;fill:url(#linearGradient43805);fill-opacity:1;stroke:none;stroke-width:0.186739;stroke-linecap:round;stroke-linejoin:round;paint-order:stroke fill markers"
       id="circle13"
       cx="-6.8715911"
       cy="49.973873"
       r="1.7532779" />
  </clipPath>
  <clipPath
     clipPathUnits="userSpaceOnUse"
     id="clipPath20">
    <circle
       style="opacity:1;fill:#999999;fill-opacity:1;stroke:none;stroke-width:1.48167;stroke-linecap:round;stroke-linejoin:round;paint-order:stroke fill markers"
       id="circle20"
       cx="-4.3258052"
       cy="117.11976"
       r="13.911281"
       transform="rotate(62.103165)" />
  </clipPath>
  <clipPath
     clipPathUnits="userSpaceOnUse"
     id="clipPath21">
    <circle
       style="display:inline;fill:url(#linearGradient43805);fill-opacity:1;stroke:none;stroke-width:0.186739;stroke-linecap:round;stroke-linejoin:round;paint-order:stroke fill markers"
       id="circle21"
       cx="-6.8715911"
       cy="49.973873"
       r="1.7532779" />
  </clipPath>
  <clipPath
     clipPathUnits="userSpaceOnUse"
     id="clipPath28">
    <circle
       style="opacity:1;fill:#999999;fill-opacity:1;stroke:none;stroke-width:1.48167;stroke-linecap:round;stroke-linejoin:round;paint-order:stroke fill markers"
       id="circle28"
       cx="-4.3258052"
       cy="117.11976"
       r="13.911281"
       transform="rotate(62.103165)" />
  </clipPath>
  <clipPath
     clipPathUnits="userSpaceOnUse"
     id="clipPath29">
    <circle
       style="display:inline;fill:url(#linearGradient43805);fill-opacity:1;stroke:none;stroke-width:0.186739;stroke-linecap:round;stroke-linejoin:round;paint-order:stroke fill markers"
       id="circle29"
       cx="-6.8715911"
       cy="49.973873"
       r="1.7532779" />
  </clipPath>
  <clipPath
     clipPathUnits="userSpaceOnUse"
     id="clipPath36">
    <circle
       style="opacity:1;fill:#999999;fill-opacity:1;stroke:none;stroke-width:1.48167;stroke-linecap:round;stroke-linejoin:round;paint-order:stroke fill markers"
       id="circle36"
       cx="-4.3258052"
       cy="117.11976"
       r="13.911281"
       transform="rotate(62.103165)" />
  </clipPath>
  <clipPath
     clipPathUnits="userSpaceOnUse"
     id="clipPath37">
    <circle
       style="display:inline;fill:url(#linearGradient43805);fill-opacity:1;stroke:none;stroke-width:0.186739;stroke-linecap:round;stroke-linejoin:round;paint-order:stroke fill markers"
       id="circle37"
       cx="-6.8715911"
       cy="49.973873"
       r="1.7532779" />
  </clipPath>
  <clipPath
     clipPathUnits="userSpaceOnUse"
     id="clipPath38">
    <path
       id="path39"
       style="fill:#000080;stroke-width:0.529169;stroke-linecap:round;stroke-linejoin:round;stroke-miterlimit:12;paint-order:markers stroke fill"
       d="m 220.5023,24.031091 c -8.18678,-0.305525 -14.08441,2.280998 -14.08441,2.280998 l -7.86464,29.35118 c 2.63258,-0.603433 6.11828,-1.132499 10.09964,-1.06557 3.3259,0.05591 7.02797,0.5358 10.89081,1.721342 5.54643,1.702252 11.42347,4.857753 16.99018,10.297046 l 8.40362,-31.363975 c -5.13936,-5.245542 -10.54079,-8.198631 -15.6192,-9.748759 -3.10398,-0.947455 -6.08707,-1.37042 -8.816,-1.472262 z m -11.92124,34.792707 c -4.93859,-0.08302 -8.95054,0.824387 -11.28354,1.524971 L 188.34406,93.7643 c 0,0 20.81523,-9.13012 38.51961,8.94002 l 8.39639,-31.335552 c -5.70269,-6.193221 -11.67393,-9.494731 -17.24081,-11.131618 -3.34013,-0.982134 -6.53497,-1.364547 -9.43819,-1.413352 z" />
  </clipPath>
  <filter
     inkscape:collect="always"
     style="color-interpolation-filters:sRGB"
     id="filter42"
     x="-0.41346807"
     y="-0.12502969"
     width="1.8269361"
     height="1.2500594">
    <feGaussianBlur
       inkscape:collect="always"
       stdDeviation="4.3079687"
       id="feGaussianBlur42" />
  </filter>
  <clipPath
     clipPathUnits="userSpaceOnUse"
     id="clipPath39">
    <path
       id="path40"
       style="fill:#808000;stroke-width:0.529169;stroke-linecap:round;stroke-linejoin:round;stroke-miterlimit:12;paint-order:markers stroke fill"
       d="m 248.34866,38.928373 -8.3969,31.336588 c 9.124,9.908201 18.93624,12.413776 26.67796,12.543938 4.9389,0.08304 8.9512,-0.824489 11.28459,-1.524974 l 8.95395,-33.41553 c 0,0 -20.81522,9.129916 -38.5196,-8.940022 z m -9.67021,36.089269 -8.40362,31.362948 c 17.70437,18.06994 38.51961,8.94002 38.51961,8.94002 l 7.86463,-29.351181 c -2.633,0.603417 -6.11939,1.132512 -10.10118,1.065567 -8.10111,-0.136205 -18.43602,-2.79074 -27.87944,-12.017354 z" />
  </clipPath>
  <filter
     inkscape:collect="always"
     style="color-interpolation-filters:sRGB"
     id="filter41"
     x="-0.41347558"
     y="-0.125029"
     width="1.8269512"
     height="1.250058">
    <feGaussianBlur
       inkscape:collect="always"
       stdDeviation="4.3080469"
       id="feGaussianBlur41" />
  </filter>
  <clipPath
     clipPathUnits="userSpaceOnUse"
     id="clipPath3">
    <rect
       style="display:inline;fill:#e6e6e6;fill-opacity:1;stroke-width:6.35;stroke-linecap:square;stroke-linejoin:round;paint-order:stroke markers fill"
       id="rect4"
       width="92.242249"
       height="129.92981"
       x="20.943377"
       y="2.7684593"
       ry="4.3053651"
       rx="4.3053651" />
  </clipPath>
  <clipPath
     clipPathUnits="userSpaceOnUse"
     id="clipPath6">
    <path
       id="path6"
       style="display:inline;fill:#cbcbcb;fill-opacity:1;stroke:none;stroke-width:2.18246;stroke-linecap:round;stroke-linejoin:round;paint-order:stroke fill markers"
       d="M 67.064506,0.26473843 C 56.964653,0.26475039 47.623981,3.5105564 40.023862,9.0125102 h -8.867209 c -2.700954,0 -4.875064,2.1741078 -4.875074,4.8750618 l 10e-6,10.897156 c -3.433827,6.456258 -5.382382,13.822647 -5.382392,21.645315 1.49e-4,1.525188 0.0757,3.042843 0.224738,4.547513 0.149035,1.504667 0.371742,2.996393 0.665559,4.470548 0.293787,1.474155 0.659024,2.930385 1.09346,4.364032 0.434445,1.43365 0.938119,2.844819 1.509079,4.227968 0.57095,1.383144 1.208996,2.738456 1.912337,4.061126 0.703331,1.322642 0.313012,1.123702 2.303303,3.864687 1.990291,2.741007 0.773933,6.170123 -0.963549,7.020158 -1.737504,0.850003 -6.126155,2.732815 -6.126155,6.12675 v 35.766865 c 0,3.39395 2.7322,6.12615 6.126155,6.12615 l 78.840776,10e-6 c 3.39395,0 6.12616,-2.7322 6.12615,-6.12615 V 85.112825 c 0,-3.393935 -4.38867,-5.276737 -6.12614,-6.12675 -1.73749,-0.850035 -2.95385,-4.279151 -0.96357,-7.020158 1.99028,-2.740985 1.59997,-2.542037 2.3033,-3.864687 -0.006,-0.0021 -0.0127,-0.004 -0.0185,-0.007 0.70285,-1.318996 1.34126,-2.670662 1.91235,-4.050027 0.5727,-1.383173 1.0779,-2.794098 1.514,-4.227965 0.43613,-1.433859 0.80305,-2.890705 1.09838,-4.365271 0.29532,-1.474565 0.51937,-2.966545 0.66987,-4.471783 0.15051,-1.505234 0.22752,-3.023444 0.22903,-4.549357 C 113.22982,20.933558 92.56088,0.26461687 67.064537,0.26458 Z" />
  </clipPath>
  <radialGradient
     inkscape:collect="always"
     xlink:href="#linearGradient1"
     id="radialGradient2"
     cx="67.733332"
     cy="49.93898"
     fx="67.733332"
     fy="49.93898"
     r="49.590752"
     gradientTransform="matrix(1,0,0,1.007022,0,-0.35067373)"
     gradientUnits="userSpaceOnUse" />
  <clipPath
     clipPathUnits="userSpaceOnUse"
     id="clipPath7">
    <path
       style="baseline-shift:baseline;display:inline;overflow:visible;vector-effect:none;stroke-width:0.999998;stroke-linecap:round;stroke-linejoin:round;stroke-miterlimit:12;paint-order:markers stroke fill;enable-background:accumulate;stop-color:#000000"
       d="m 160.78438,-35.588699 h 72.77699 c 7.31405,0 13.20226,5.888207 13.20226,13.20226 v 73.47344 c 0,7.314051 -5.88821,13.202261 -13.20226,13.202261 h -72.77699 c -7.31405,0 -13.20226,-5.88821 -13.20226,-13.202261 v -73.47344 c 0,-7.314053 5.88821,-13.20226 13.20226,-13.20226 z"
       id="path7" />
  </clipPath>
  <filter
     inkscape:collect="always"
     style="color-interpolation-filters:sRGB"
     id="filter7"
     x="-0.094385546"
     y="-0.093776417"
     width="1.1887711"
     height="1.1875528">
    <feGaussianBlur
       inkscape:collect="always"
       stdDeviation="4.2334468"
       id="feGaussianBlur7" />
  </filter>
</defs>
<g
   inkscape:label="Layer 1"
   inkscape:groupmode="layer"
   id="layer1">
  <rect
     style="fill:url(#radialGradient2);stroke:none;stroke-width:3.175;stroke-linecap:round;stroke-linejoin:round;stroke-miterlimit:12;paint-order:markers stroke fill"
     id="rect1"
     width="99.181503"
     height="99.87796"
     x="18.14258"
     y="0"
     ry="13.20226" />
  <g
     id="g42"
     style="display:inline;opacity:1"
     transform="matrix(0.63838629,0,0,0.63838629,24.493304,6.6990146)">
    <g
       id="g26"
       transform="matrix(0.61723507,0,0,0.61723507,-108.39727,32.928145)"
       style="stroke-width:1.62013">
      <path
         style="opacity:1;fill:#000080;stroke-width:2.68589063;stroke-linecap:round;stroke-linejoin:round;stroke-miterlimit:12;paint-order:markers stroke fill;stroke:#000000;stroke-opacity:1;stroke-dasharray:none"
         d="m 253.62058,39.249413 c -5.41145,-1.591182 -10.58699,-2.211354 -15.29058,-2.290425 -8.00115,-0.134507 -14.50083,1.336232 -18.28059,2.471271 l -14.50596,54.136964 c 0,0 33.72338,-14.791451 62.40676,14.484497 L 281.55336,57.284057 C 272.31427,47.250243 262.63964,41.901381 253.62058,39.249413 Z"
         id="path25" />
      <path
         style="fill:#808000;stroke-width:2.68589063;stroke-linecap:round;stroke-linejoin:round;stroke-miterlimit:12;paint-order:markers stroke fill;stroke:#000000;stroke-opacity:1;stroke-dasharray:none"
         d="m 287.09136,63.195034 -13.61505,50.812086 c 28.68336,29.27562 62.40675,14.4845 62.40675,14.4845 l 12.74168,-47.552602 c -4.26581,0.977614 -9.91373,1.834784 -16.36472,1.726322 -13.12484,-0.220671 -29.86911,-4.52201 -45.16866,-19.470306 z"
         id="path26" />
      <path
         style="fill:#008000;stroke-width:2.68589063;stroke-linecap:round;stroke-linejoin:round;stroke-miterlimit:12;paint-order:markers stroke fill;stroke:#000000;stroke-opacity:1;stroke-dasharray:none"
         d="m 365.16488,19.210392 c 0,0 -33.72339,14.791123 -62.40676,-14.4844952 L 289.15457,55.495054 c 14.78206,16.052558 30.67904,20.112654 43.22163,20.323534 8.00163,0.134537 14.50221,-1.335861 18.28259,-2.470734 z"
         id="path24" />
      <path
         style="fill:#800000;stroke-width:2.68589063;stroke-linecap:round;stroke-linejoin:round;stroke-miterlimit:12;paint-order:markers stroke fill;stroke:#000000;stroke-opacity:1;stroke-dasharray:none"
         d="M 271.92715,-17.024036 C 251.81179,-23.164031 234.82527,-15.714 234.82527,-15.714 l -12.74168,47.552595 c 4.26512,-0.977639 9.91228,-1.834792 16.36259,-1.726357 5.38838,0.09058 11.38639,0.868331 17.64469,2.789064 8.98592,2.757864 18.50692,7.87042 27.5257,16.682775 l 13.61546,-50.8135812 c -8.32642,-8.4984496 -17.0772,-13.2831238 -25.30488,-15.7945318 z"
         id="rect18" />
    </g>
    <g
       id="path32"
       style="mix-blend-mode:overlay;filter:url(#filter42)"
       clip-path="url(#clipPath38)"
       transform="translate(-169.87277,-3.0831759)">
      <path
         style="baseline-shift:baseline;display:inline;overflow:visible;vector-effect:none;fill:#ffffff;enable-background:accumulate;stop-color:#000000;stop-opacity:1"
         d="m 219.55006,17.887207 -21.93775,81.87279"
         id="path37" />
      <path
         style="baseline-shift:baseline;display:inline;overflow:visible;vector-effect:none;fill:#ffffff;enable-background:accumulate;stop-color:#000000;stop-opacity:1"
         d="m 218.01758,17.476562 -21.93946,81.873047 3.06836,0.820311 21.9375,-81.871092 z"
         id="path38" />
    </g>
    <g
       id="path33"
       style="mix-blend-mode:overlay;filter:url(#filter41)"
       clip-path="url(#clipPath39)"
       transform="translate(-169.87277,-3.0831759)">
      <path
         style="baseline-shift:baseline;display:inline;overflow:visible;vector-effect:none;fill:#ffffff;enable-background:accumulate;stop-color:#000000;stop-opacity:1"
         d="M 277.59867,41.872714 255.66092,123.7455"
         id="path35" />
      <path
         style="baseline-shift:baseline;display:inline;overflow:visible;vector-effect:none;fill:#ffffff;enable-background:accumulate;stop-color:#000000;stop-opacity:1"
         d="m 276.06445,41.460937 -21.9375,81.873043 3.06641,0.82227 21.93945,-81.873047 z"
         id="path36" />
    </g>
  </g>
  <g
     id="g9"
     transform="translate(0,-1.588185)">
    <path
       style="font-weight:bold;font-size:31.1237px;line-height:1.25;font-family:'Adwaita Sans';-inkscape-font-specification:'Adwaita Sans Bold';text-align:center;baseline-shift:baseline;text-anchor:middle;display:inline;overflow:visible;vector-effect:none;enable-background:accumulate;stop-color:#000000"
       d="m 104.54102,110.50586 c -2.27235,0 -4.40005,0.54227 -6.269536,1.62891 -1.876482,1.09071 -3.377743,2.68446 -4.433593,4.66992 -0.473735,0.89082 -0.793806,1.8713 -1.052735,2.88672 v -8.82032 h -7.839844 v 11.35938 l -7.140625,-11.35938 h -7.388671 v 25.81836 h 7.855468 v -11.30664 c 0.01303,0.0208 0.03411,0.0578 0.04687,0.0781 l 7.0625,11.22851 h 7.404297 v -8.83984 c 0.249172,0.97637 0.55078,1.92747 0.998047,2.79687 l 0.002,0.002 0.002,0.004 c 1.032989,1.98564 2.512447,3.59264 4.371094,4.71485 h 0.002 l 0.002,0.002 c 0.227098,0.13626 2.887448,1.68555 6.455078,1.68555 2.17196,0 4.1812,-0.45346 5.9414,-1.38672 l 0.002,-0.002 0.004,-0.002 c 1.74038,-0.93443 3.15588,-2.27065 4.15039,-3.9375 v -0.002 c 1.01903,-1.69109 1.51954,-3.65469 1.51954,-5.77148 v -4.32422 h 0.0488 l -0.21289,-1.77539 c -0.16542,-1.38245 -0.58779,-2.68428 -1.26758,-3.84961 -0.66418,-1.13862 -1.53248,-2.12999 -2.57226,-2.94727 -1.03339,-0.83006 -2.22083,-1.46405 -3.52734,-1.89258 -1.31484,-0.44142 -2.7103,-0.6582 -4.16211,-0.6582 z m -85.308598,0.36523 v 7.1875 h 6.86914 v 18.63086 h 7.855469 v -18.63086 h 6.048828 v 18.63086 h 7.857422 v -9.54297 h 6.44336 v 9.54297 h 7.841796 v -25.81836 h -7.841796 v 9.08789 h -6.44336 v -9.08789 h -7.052734 -0.804688 z m 43.128906,0 v 25.81836 h 7.855469 v -25.81836 z m 42.179692,2.81055 c 1.13972,0 2.18304,0.16687 3.15625,0.49414 l 0.006,0.002 0.006,0.002 c 0.97799,0.32022 1.81274,0.76911 2.53907,1.35351 l 0.008,0.008 0.008,0.006 c 0.73892,0.57937 1.32848,1.25365 1.79688,2.05664 v 0.002 c 0.14693,0.25188 0.16567,0.57779 0.27734,0.84766 h -1.53125 c -0.11428,-0.26045 -0.16969,-0.55103 -0.31641,-0.79297 -0.38471,-0.64435 -0.89414,-1.20812 -1.49414,-1.66016 -0.59018,-0.45194 -1.26521,-0.78988 -1.99023,-1.01172 -0.73298,-0.23744 -1.51403,-0.34961 -2.32813,-0.34961 -1.52465,0 -2.96481,0.39206 -4.16601,1.19727 -1.179394,0.78697 -2.086212,1.92948 -2.683595,3.29492 l -0.002,0.004 v 0.004 c -0.592466,1.37008 -0.861328,2.93108 -0.861328,4.65625 0,1.71958 0.275595,3.28319 0.880859,4.6543 0.599673,1.35845 1.512892,2.4984 2.695314,3.29101 l 0.006,0.004 0.004,0.002 c 1.2053,0.7947 2.65082,1.17383 4.1875,1.17383 1.2521,0 2.43605,-0.23834 3.48438,-0.75586 l 0.006,-0.004 0.008,-0.004 c 1.03044,-0.52174 1.89859,-1.29645 2.49805,-2.26172 0.62047,-0.99276 0.92578,-2.1576 0.92578,-3.36328 l -0.42578,0.39258 0.0781,-1.88477 -2.82812,-0.23242 v 0.22852 h -1.76368 v -0.38282 h 6.33789 v 1.30079 c 0,1.63118 -0.35982,2.96914 -1.0625,4.13476 l -0.002,0.004 -0.002,0.004 c -0.70738,1.18739 -1.65303,2.08603 -2.92969,2.77149 -1.25724,0.6649 -2.71001,1.01172 -4.44531,1.01172 -1.89698,0 -3.46524,-0.41821 -4.822265,-1.23243 -1.361311,-0.82282 -2.401464,-1.94054 -3.191406,-3.45898 -0.769006,-1.49713 -1.173829,-3.26963 -1.173829,-5.39258 0,-2.20672 0.4225,-4.01372 1.212891,-5.5 0.80833,-1.52001 1.859039,-2.62227 3.224609,-3.41601 1.37257,-0.79781 2.89361,-1.19727 4.67383,-1.19727 z m -82.132817,0.36328 h 15.228516 v 0.83789 H 30.78125 v 18.63086 h -1.503906 v -18.63086 h -6.869141 z m 20.773438,0 H 44.6875 v 9.08789 h 12.794922 v -9.08789 h 1.490234 v 19.46875 H 57.482422 V 123.9707 H 44.6875 v 9.54297 h -1.505859 z m 22.355468,0 h 1.50586 v 19.46875 h -1.50586 z m 8.054688,0 h 2.458984 l 0.652344,1.03711 -3.111328,2.01563 z m 14.527344,0 h 1.490234 v 19.46875 h -2.474609 l -1.777344,-2.82422 2.792969,0.52735 0.847656,-1.91211 -0.369141,-0.68555 c -0.1391,-0.25774 -0.296006,-0.533 -0.441406,-0.79687 -0.02399,-0.76982 -0.04402,-1.52396 -0.05273,-2.23829 -0.01009,-0.82715 -0.01563,-1.47124 -0.01563,-1.92578 z m -14.527344,3.15039 0.666015,1.22071 c 0.255516,0.46844 0.491373,0.88914 0.738282,1.33593 0.0065,0.18106 0.01993,0.38985 0.02539,0.56641 0.03017,0.96539 0.05058,1.81908 0.06055,2.55664 0.01008,0.73542 0.01563,1.31364 0.01563,1.72656 v 8.91211 h -1.505859 z m 4.474609,0.0547 4.796875,7.63281 c 0.205096,0.32629 0.480045,0.78988 0.81836,1.37696 0.337118,0.585 0.691127,1.21755 1.060546,1.89648 l 0.0078,0.0117 0.0059,0.0117 c 0.09953,0.17548 0.186494,0.33716 0.283203,0.50976 0.02032,0.57161 0.04015,1.10474 0.06055,1.58789 l -4.091797,-6.50586 C 80.746486,123.35529 80.408432,122.79857 80,122.11133 l -0.0059,-0.008 c -0.409746,-0.6996 -0.869456,-1.49015 -1.378907,-2.36914 l -0.0098,-0.0156 c -3.14e-4,-5.4e-4 3.14e-4,-0.001 0,-0.002 -0.150215,-0.26744 -0.314854,-0.57109 -0.46875,-0.84766 -0.02229,-0.53468 -0.04013,-1.05116 -0.07031,-1.61914 z m 26.611324,0.56445 c 0.53665,0 0.98326,0.0722 1.35938,0.19532 l 0.0176,0.006 0.0156,0.004 c 0.40223,0.12211 0.72395,0.28815 1,0.5 l 0.006,0.006 0.008,0.006 c 0.28569,0.21427 0.50148,0.4554 0.68165,0.75781 l 0.004,0.006 0.004,0.006 c 0.18899,0.31049 0.33429,0.66691 0.43164,1.09375 l 0.24609,1.08399 h -4.90429 v 6.73046 h 4.49804 c -7.1e-4,0.001 -0.001,0.003 -0.002,0.004 l -0.002,0.002 -0.002,0.002 c -0.29029,0.46842 -0.66544,0.81463 -1.22851,1.10156 -0.55152,0.27126 -1.21951,0.42773 -2.07227,0.42773 -1.03493,0 -1.79758,-0.22873 -2.43555,-0.64843 -0.65827,-0.44301 -1.16083,-1.04387 -1.55273,-1.93164 -0.38761,-0.87807 -0.60938,-1.99046 -0.60937,-3.3711 0,-1.39452 0.21985,-2.51565 0.5996,-3.39453 2.2e-4,-4.9e-4 -2.1e-4,-0.001 0,-0.002 0.39459,-0.89881 0.89385,-1.49629 1.53516,-1.92383 h 0.002 l 0.002,-0.002 c 0.6427,-0.43083 1.39024,-0.65821 2.39843,-0.65821 z"
       id="path9"
       sodipodi:nodetypes="ssscccccccccccccccccccscccccscccsccsscccccccccccccccccccccccccccsccccccccccccsccccsssccsccccccccccccsccccsccssscccccccccccccccccccccccccccccccccccccccccccssccccccscccccsccccccccccccccccccccsccccccccscccscssscccccc" />
    <path
       style="font-weight:bold;font-size:31.1237px;line-height:1.25;font-family:'Adwaita Sans';-inkscape-font-specification:'Adwaita Sans Bold';text-align:center;baseline-shift:baseline;text-anchor:middle;display:inline;overflow:visible;vector-effect:none;fill:#ffffff;enable-background:accumulate;stop-color:#000000"
       d="m 20.819826,116.47026 v -4.01204 h 18.403711 v 4.01204 h -6.853901 v 18.63167 h -4.680712 v -18.63167 z m 20.774462,18.63167 V 112.45822 H 46.275 v 9.08788 h 9.619777 v -9.08788 h 4.665515 v 22.64371 h -4.665515 v -9.54379 H 46.275 v 9.54379 z M 68.62996,112.45822 v 22.64371 h -4.680713 v -22.64371 z m 3.373761,22.64371 v -22.64371 h 4.923867 l 7.27942,11.58021 q 0.334336,0.5319 0.851038,1.42853 0.516702,0.89663 1.078996,1.93003 0.57749,1.01821 1.094192,1.97562 l -0.531899,1.20058 q -0.04559,-1.03341 -0.09118,-2.37075 -0.04559,-1.35255 -0.06079,-2.59871 -0.0152,-1.24616 -0.0152,-1.94523 v -11.20028 h 4.665515 v 22.64371 h -4.939063 l -6.59555,-10.48601 q -0.410322,-0.65348 -1.033404,-1.70208 -0.623082,-1.0638 -1.398135,-2.40115 -0.759856,-1.35254 -1.5805,-2.85705 l 0.820644,-0.5319 q 0.09118,1.67168 0.136774,3.1458 0.04559,1.45892 0.06079,2.58351 0.0152,1.10939 0.0152,1.74767 v 10.50121 z m 32.613019,0.36473 q -3.2066,0 -5.638136,-1.45892 -2.416342,-1.45893 -3.784082,-4.08803 -1.352544,-2.6291 -1.352544,-6.12444 0,-3.61691 1.398135,-6.24601 1.398135,-2.6291 3.829674,-4.04244 2.431543,-1.41333 5.470963,-1.41333 1.94523,0 3.66251,0.57749 1.71727,0.56229 3.03942,1.62609 1.33735,1.0486 2.18838,2.50753 0.85104,1.45892 1.0638,3.23698 h -4.7415 q -0.19756,-0.86623 -0.62308,-1.5653 -0.42552,-0.71426 -1.09419,-1.21577 -0.65348,-0.5015 -1.50452,-0.75985 -0.83584,-0.27355 -1.85405,-0.27355 -1.89964,0 -3.28257,0.92702 -1.36774,0.91183 -2.112403,2.61391 -0.729462,1.68688 -0.729462,4.02723 0,2.32516 0.744659,4.01204 0.744656,1.68688 2.127596,2.61391 1.38294,0.91182 3.31297,0.91182 1.5805,0 2.78107,-0.59268 1.20058,-0.60789 1.86925,-1.68688 0.68387,-1.0942 0.68387,-2.52273 l 1.10939,0.0912 h -6.04845 v -3.55613 h 9.51339 v 2.88745 q 0,2.81147 -1.29175,4.95426 -1.27656,2.1428 -3.54093,3.35857 -2.26437,1.20057 -5.19741,1.20057 z"
       id="path8" />
  </g>
  <path
     style="baseline-shift:baseline;display:inline;overflow:visible;mix-blend-mode:normal;vector-effect:none;stroke-linecap:round;stroke-linejoin:round;stroke-miterlimit:12;paint-order:markers stroke fill;filter:url(#filter7);enable-background:accumulate;stop-color:#000000"
     d="m 160.78516,-39.822266 c -9.5861,0 -17.43555,7.849454 -17.43555,17.435547 v 73.47461 c 0,9.586093 7.84945,17.435546 17.43555,17.435546 h 72.77539 c 9.58609,0 17.43554,-7.849453 17.43554,-17.435546 v -73.47461 c 0,-9.586093 -7.84945,-17.435547 -17.43554,-17.435547 z m 0,8.466797 h 72.77539 c 5.04201,0 8.9707,3.92674 8.9707,8.96875 v 73.47461 c 0,5.04201 -3.92869,8.96875 -8.9707,8.96875 h -72.77539 c -5.04201,0 -8.96875,-3.92674 -8.96875,-8.96875 v -73.47461 c 0,-5.04201 3.92674,-8.96875 8.96875,-8.96875 z"
     id="path3"
     clip-path="url(#clipPath7)"
     transform="translate(-129.43952,35.588395)" />
</g>
<metadata
   id="metadata1">
  <rdf:RDF>
    <cc:Work
       rdf:about="">
      <dc:creator>
        <cc:Agent>
          <dc:title>Jess Tipton</dc:title>
        </cc:Agent>
      </dc:creator>
      <dc:publisher>
        <cc:Agent>
          <dc:title>m0dw3rks.com</dc:title>
        </cc:Agent>
      </dc:publisher>
      <cc:license
         rdf:resource="https://creativecommons.org/licenses/by-nc-nd/4.0/deed.en" />
    </cc:Work>
  </rdf:RDF>
</metadata>
<metadata
   id="metadata6">
  <rdf:RDF>
    <cc:Work
       rdf:about="">
      <dc:creator>
        <cc:Agent>
          <dc:title>Jess Tipton</dc:title>
        </cc:Agent>
      </dc:creator>
      <cc:license
         rdf:resource="https://creativecommons.org/licenses/by-nc-nd/4.0/deed.en" />
      <dc:publisher>
        <cc:Agent>
          <dc:title>m0dw3rks.com</dc:title>
        </cc:Agent>
      </dc:publisher>
    </cc:Work>
  </rdf:RDF>
</metadata>
<metadata
   id="metadata2">
  <rdf:RDF>
    <cc:Work
       rdf:about="">
      <dc:creator>
        <cc:Agent>
          <dc:title>Jess Tipton</dc:title>
        </cc:Agent>
      </dc:creator>
      <cc:license
         rdf:resource="https://creativecommons.org/licenses/by-nc-nd/4.0/deed.en" />
      <dc:publisher>
        <cc:Agent>
          <dc:title>m0dw3rks.com</dc:title>
        </cc:Agent>
      </dc:publisher>
    </cc:Work>
  </rdf:RDF>
</metadata>
<metadata
   id="metadata3">
  <rdf:RDF>
    <cc:Work
       rdf:about="">
      <dc:creator>
        <cc:Agent>
          <dc:title>Jess Tipton</dc:title>
        </cc:Agent>
      </dc:creator>
      <cc:license
         rdf:resource="https://creativecommons.org/licenses/by-nc-nd/4.0/deed.en" />
      <dc:publisher>
        <cc:Agent>
          <dc:title>m0dw3rks.com</dc:title>
        </cc:Agent>
      </dc:publisher>
    </cc:Work>
  </rdf:RDF>
</metadata>
<metadata
   id="metadata4">
  <rdf:RDF>
    <cc:Work
       rdf:about="">
      <dc:creator>
        <cc:Agent>
          <dc:title>Jess Tipton</dc:title>
        </cc:Agent>
      </dc:creator>
      <cc:license
         rdf:resource="https://creativecommons.org/licenses/by-nc-nd/4.0/deed.en" />
      <dc:publisher>
        <cc:Agent>
          <dc:title>m0dw3rks.com</dc:title>
        </cc:Agent>
      </dc:publisher>
    </cc:Work>
  </rdf:RDF>
</metadata>
<metadata
   id="metadata5">
  <rdf:RDF>
    <cc:Work
       rdf:about="">
      <dc:creator>
        <cc:Agent>
          <dc:title>Jess Tipton</dc:title>
        </cc:Agent>
      </dc:creator>
      <cc:license
         rdf:resource="https://creativecommons.org/licenses/by-nc-nd/4.0/deed.en" />
      <dc:publisher>
        <cc:Agent>
          <dc:title>m0dw3rks.com</dc:title>
        </cc:Agent>
      </dc:publisher>
    </cc:Work>
  </rdf:RDF>
</metadata>
<metadata
   id="metadata7">
  <rdf:RDF>
    <cc:Work
       rdf:about="">
      <dc:creator>
        <cc:Agent>
          <dc:title>Jess Tipton</dc:title>
        </cc:Agent>
      </dc:creator>
      <cc:license
         rdf:resource="https://creativecommons.org/licenses/by-nc-nd/4.0/deed.en" />
      <dc:publisher>
        <cc:Agent>
          <dc:title>m0dw3rks.com</dc:title>
        </cc:Agent>
      </dc:publisher>
    </cc:Work>
  </rdf:RDF>
</metadata>
<metadata
   id="metadata8">
  <rdf:RDF>
    <cc:Work
       rdf:about="">
      <dc:creator>
        <cc:Agent>
          <dc:title>Jess Tipton</dc:title>
        </cc:Agent>
      </dc:creator>
      <cc:license
         rdf:resource="https://creativecommons.org/licenses/by-nc-nd/4.0/deed.en" />
      <dc:publisher>
        <cc:Agent>
          <dc:title>m0dw3rks.com</dc:title>
        </cc:Agent>
      </dc:publisher>
    </cc:Work>
  </rdf:RDF>
</metadata>
<metadata
   id="metadata9">
  <rdf:RDF>
    <cc:Work
       rdf:about="">
      <dc:creator>
        <cc:Agent>
          <dc:title>Jess Tipton</dc:title>
        </cc:Agent>
      </dc:creator>
      <cc:license
         rdf:resource="https://creativecommons.org/licenses/by-nc-nd/4.0/deed.en" />
      <dc:publisher>
        <cc:Agent>
          <dc:title>m0dw3rks.com</dc:title>
        </cc:Agent>
      </dc:publisher>
    </cc:Work>
  </rdf:RDF>
</metadata>
<metadata
   id="metadata10">
  <rdf:RDF>
    <cc:Work
       rdf:about="">
      <dc:creator>
        <cc:Agent>
          <dc:title>Jess Tipton</dc:title>
        </cc:Agent>
      </dc:creator>
      <cc:license
         rdf:resource="https://creativecommons.org/licenses/by-nc-nd/4.0/deed.en" />
      <dc:publisher>
        <cc:Agent>
          <dc:title>m0dw3rks.com</dc:title>
        </cc:Agent>
      </dc:publisher>
    </cc:Work>
  </rdf:RDF>
</metadata>
<metadata
   id="metadata11">
  <rdf:RDF>
    <cc:Work
       rdf:about="">
      <dc:creator>
        <cc:Agent>
          <dc:title>Jess Tipton</dc:title>
        </cc:Agent>
      </dc:creator>
      <cc:license
         rdf:resource="https://creativecommons.org/licenses/by-nc-nd/4.0/deed.en" />
      <dc:publisher>
        <cc:Agent>
          <dc:title>m0dw3rks.com</dc:title>
        </cc:Agent>
      </dc:publisher>
    </cc:Work>
  </rdf:RDF>
</metadata>
<metadata
   id="metadata12">
  <rdf:RDF>
    <cc:Work
       rdf:about="">
      <dc:creator>
        <cc:Agent>
          <dc:title>Jess Tipton</dc:title>
        </cc:Agent>
      </dc:creator>
      <cc:license
         rdf:resource="https://creativecommons.org/licenses/by-nc-nd/4.0/deed.en" />
      <dc:publisher>
        <cc:Agent>
          <dc:title>m0dw3rks.com</dc:title>
        </cc:Agent>
      </dc:publisher>
    </cc:Work>
  </rdf:RDF>
</metadata>
<metadata
   id="metadata13">
  <rdf:RDF>
    <cc:Work
       rdf:about="">
      <dc:creator>
        <cc:Agent>
          <dc:title>Jess Tipton</dc:title>
        </cc:Agent>
      </dc:creator>
      <cc:license
         rdf:resource="https://creativecommons.org/licenses/by-nc-nd/4.0/deed.en" />
      <dc:publisher>
        <cc:Agent>
          <dc:title>m0dw3rks.com</dc:title>
        </cc:Agent>
      </dc:publisher>
    </cc:Work>
  </rdf:RDF>
</metadata>
<metadata
   id="metadata14">
  <rdf:RDF>
    <cc:Work
       rdf:about="">
      <dc:creator>
        <cc:Agent>
          <dc:title>Jess Tipton</dc:title>
        </cc:Agent>
      </dc:creator>
      <cc:license
         rdf:resource="https://creativecommons.org/licenses/by-nc-nd/4.0/deed.en" />
      <dc:publisher>
        <cc:Agent>
          <dc:title>m0dw3rks.com</dc:title>
        </cc:Agent>
      </dc:publisher>
    </cc:Work>
  </rdf:RDF>
</metadata>
<metadata
   id="metadata15">
  <rdf:RDF>
    <cc:Work
       rdf:about="">
      <dc:creator>
        <cc:Agent>
          <dc:title>Jess Tipton</dc:title>
        </cc:Agent>
      </dc:creator>
      <cc:license
         rdf:resource="https://creativecommons.org/licenses/by-nc-nd/4.0/deed.en" />
      <dc:publisher>
        <cc:Agent>
          <dc:title>m0dw3rks.com</dc:title>
        </cc:Agent>
      </dc:publisher>
    </cc:Work>
  </rdf:RDF>
</metadata>
<metadata
   id="metadata16">
  <rdf:RDF>
    <cc:Work
       rdf:about="">
      <dc:creator>
        <cc:Agent>
          <dc:title>Jess Tipton</dc:title>
        </cc:Agent>
      </dc:creator>
      <cc:license
         rdf:resource="https://creativecommons.org/licenses/by-nc-nd/4.0/deed.en" />
      <dc:publisher>
        <cc:Agent>
          <dc:title>m0dw3rks.com</dc:title>
        </cc:Agent>
      </dc:publisher>
    </cc:Work>
  </rdf:RDF>
</metadata>
<metadata
   id="metadata17">
  <rdf:RDF>
    <cc:Work
       rdf:about="">
      <dc:creator>
        <cc:Agent>
          <dc:title>Jess Tipton</dc:title>
        </cc:Agent>
      </dc:creator>
      <cc:license
         rdf:resource="https://creativecommons.org/licenses/by-nc-nd/4.0/deed.en" />
      <dc:publisher>
        <cc:Agent>
          <dc:title>m0dw3rks.com</dc:title>
        </cc:Agent>
      </dc:publisher>
    </cc:Work>
  </rdf:RDF>
</metadata>
<metadata
   id="metadata18">
  <rdf:RDF>
    <cc:Work
       rdf:about="">
      <dc:creator>
        <cc:Agent>
          <dc:title>Jess Tipton</dc:title>
        </cc:Agent>
      </dc:creator>
      <cc:license
         rdf:resource="https://creativecommons.org/licenses/by-nc-nd/4.0/deed.en" />
      <dc:publisher>
        <cc:Agent>
          <dc:title>m0dw3rks.com</dc:title>
        </cc:Agent>
      </dc:publisher>
    </cc:Work>
  </rdf:RDF>
</metadata>
</svg>
