<?xml version="1.0" encoding="UTF-8" standalone="no"?>
<!-- Created with Inkscape (http://www.inkscape.org/) -->

<svg
   width="512"
   height="512"
   viewBox="0 0 135.46666 135.46667"
   version="1.1"
   id="svg5"
   inkscape:version="1.4.2 (ebf0e940d0, 2025-05-08)"
   sodipodi:docname="image-x-krita.svg"
   xmlns:inkscape="http://www.inkscape.org/namespaces/inkscape"
   xmlns:sodipodi="http://sodipodi.sourceforge.net/DTD/sodipodi-0.dtd"
   xmlns:xlink="http://www.w3.org/1999/xlink"
   xmlns="http://www.w3.org/2000/svg"
   xmlns:svg="http://www.w3.org/2000/svg">
  <sodipodi:namedview
     id="namedview7"
     pagecolor="#242424"
     bordercolor="#666666"
     borderopacity="1"
     inkscape:showpageshadow="0"
     inkscape:pageopacity="0"
     inkscape:pagecheckerboard="1"
     inkscape:deskcolor="#000000"
     inkscape:document-units="px"
     showgrid="false"
     inkscape:zoom="1.84375"
     inkscape:cx="116.88136"
     inkscape:cy="228.88136"
     inkscape:window-width="3256"
     inkscape:window-height="1080"
     inkscape:window-x="1864"
     inkscape:window-y="0"
     inkscape:window-maximized="0"
     inkscape:current-layer="layer1" />
  <defs
     id="defs2">
    <linearGradient
       id="linearGradient7"
       inkscape:collect="always">
      <stop
         style="stop-color:#ffffff;stop-opacity:1;"
         offset="0"
         id="stop7" />
      <stop
         style="stop-color:#000000;stop-opacity:0;"
         offset="1"
         id="stop8" />
    </linearGradient>
    <linearGradient
       id="linearGradient3"
       inkscape:collect="always">
      <stop
         style="stop-color:#ffffff;stop-opacity:1;"
         offset="0"
         id="stop6" />
      <stop
         style="stop-color:#ffffff;stop-opacity:0.28000004;"
         offset="1"
         id="stop3" />
    </linearGradient>
    <linearGradient
       id="linearGradient17"
       inkscape:collect="always">
      <stop
         style="stop-color:#b3b3b3;stop-opacity:1;"
         offset="0"
         id="stop17" />
      <stop
         style="stop-color:#979797;stop-opacity:1;"
         offset="0.29333332"
         id="stop20" />
      <stop
         style="stop-color:#c9c9c9;stop-opacity:1;"
         offset="0.63999999"
         id="stop19" />
      <stop
         style="stop-color:#545454;stop-opacity:1;"
         offset="1"
         id="stop18" />
    </linearGradient>
    <linearGradient
       id="linearGradient15"
       inkscape:collect="always">
      <stop
         style="stop-color:#ffffff;stop-opacity:1;"
         offset="0"
         id="stop15" />
      <stop
         style="stop-color:#ffffff;stop-opacity:0;"
         offset="1"
         id="stop16" />
    </linearGradient>
    <linearGradient
       id="linearGradient12"
       inkscape:collect="always">
      <stop
         style="stop-color:#ffffff;stop-opacity:0;"
         offset="0"
         id="stop13" />
      <stop
         style="stop-color:#ffffff;stop-opacity:1;"
         offset="1"
         id="stop12" />
    </linearGradient>
    <linearGradient
       id="linearGradient10"
       inkscape:collect="always">
      <stop
         style="stop-color:#ffffff;stop-opacity:0;"
         offset="0"
         id="stop11" />
      <stop
         style="stop-color:#ffffff;stop-opacity:1;"
         offset="1"
         id="stop10" />
    </linearGradient>
    <linearGradient
       id="linearGradient4"
       inkscape:collect="always">
      <stop
         style="stop-color:#ffff00;stop-opacity:1;"
         offset="0"
         id="stop4" />
      <stop
         style="stop-color:#ffff00;stop-opacity:0;"
         offset="1"
         id="stop5" />
    </linearGradient>
    <linearGradient
       id="linearGradient1"
       inkscape:collect="always">
      <stop
         style="stop-color:#00ffff;stop-opacity:1;"
         offset="0"
         id="stop1" />
      <stop
         style="stop-color:#fd71ff;stop-opacity:1;"
         offset="1"
         id="stop2" />
    </linearGradient>
    <linearGradient
       inkscape:collect="always"
       xlink:href="#linearGradient1"
       id="linearGradient2"
       x1="54.775173"
       y1="106.7661"
       x2="83.805641"
       y2="19.516384"
       gradientUnits="userSpaceOnUse" />
    <linearGradient
       inkscape:collect="always"
       xlink:href="#linearGradient4"
       id="linearGradient5"
       x1="183.10961"
       y1="3.4440687"
       x2="270.35933"
       y2="3.4440687"
       gradientUnits="userSpaceOnUse"
       gradientTransform="matrix(-0.8660254,-0.5,-0.5,0.8660254,266.38717,173.53271)" />
    <clipPath
       clipPathUnits="userSpaceOnUse"
       id="clipPath5">
      <circle
         style="fill:#00ff00;stroke:none;stroke-width:3.175;stroke-linecap:round;stroke-linejoin:round;stroke-miterlimit:12;paint-order:markers stroke fill"
         id="circle6"
         cx="68.307343"
         cy="63.141243"
         r="43.624859" />
    </clipPath>
    <filter
       inkscape:collect="always"
       style="color-interpolation-filters:sRGB"
       id="filter6"
       x="-0.53183221"
       y="-0.61147426"
       width="2.0636644"
       height="2.2229485">
      <feGaussianBlur
         inkscape:collect="always"
         stdDeviation="9.6671277"
         id="feGaussianBlur6" />
    </filter>
    <linearGradient
       inkscape:collect="always"
       xlink:href="#linearGradient10"
       id="linearGradient11"
       x1="31.742998"
       y1="86.876617"
       x2="81.556385"
       y2="88.154178"
       gradientUnits="userSpaceOnUse"
       gradientTransform="translate(4.2408238,1.8464758)" />
    <linearGradient
       inkscape:collect="always"
       xlink:href="#linearGradient12"
       id="linearGradient13"
       x1="-37.321045"
       y1="161.98775"
       x2="-23.877636"
       y2="161.98774"
       gradientUnits="userSpaceOnUse" />
    <linearGradient
       inkscape:collect="always"
       xlink:href="#linearGradient15"
       id="linearGradient16"
       x1="63.997761"
       y1="57.551678"
       x2="60.867962"
       y2="60.708736"
       gradientUnits="userSpaceOnUse" />
    <linearGradient
       inkscape:collect="always"
       xlink:href="#linearGradient17"
       id="linearGradient18"
       x1="-108.89838"
       y1="183.30381"
       x2="-96.691452"
       y2="184.62442"
       gradientUnits="userSpaceOnUse" />
    <filter
       inkscape:collect="always"
       style="color-interpolation-filters:sRGB"
       id="filter20"
       x="-0.21837089"
       y="-0.012831275"
       width="1.4367418"
       height="1.0256626">
      <feGaussianBlur
         inkscape:collect="always"
         stdDeviation="0.75709389"
         id="feGaussianBlur20" />
    </filter>
    <filter
       inkscape:collect="always"
       style="color-interpolation-filters:sRGB"
       id="filter21"
       x="-0.012546596"
       y="-0.012648658"
       width="1.0250932"
       height="1.0252973">
      <feGaussianBlur
         inkscape:collect="always"
         stdDeviation="0.31672549"
         id="feGaussianBlur21" />
    </filter>
    <filter
       inkscape:collect="always"
       style="color-interpolation-filters:sRGB"
       id="filter22"
       x="-1.3218194"
       y="-0.037070406"
       width="3.6436388"
       height="1.0741408">
      <feGaussianBlur
         inkscape:collect="always"
         stdDeviation="2.0185462"
         id="feGaussianBlur22" />
    </filter>
    <linearGradient
       inkscape:collect="always"
       xlink:href="#linearGradient1"
       id="linearGradient23"
       x1="92.492462"
       y1="1.5874966"
       x2="41.75655"
       y2="133.87917"
       gradientUnits="userSpaceOnUse" />
    <filter
       inkscape:collect="always"
       style="color-interpolation-filters:sRGB"
       id="filter23"
       x="-0.10741065"
       y="-0.10741065"
       width="1.2148213"
       height="1.2148213">
      <feGaussianBlur
         inkscape:collect="always"
         stdDeviation="3.9048118"
         id="feGaussianBlur23" />
    </filter>
    <linearGradient
       inkscape:collect="always"
       xlink:href="#linearGradient3"
       id="linearGradient6"
       x1="1.5874966"
       y1="1.5874966"
       x2="133.87917"
       y2="133.87917"
       gradientUnits="userSpaceOnUse" />
    <linearGradient
       inkscape:collect="always"
       xlink:href="#linearGradient7"
       id="linearGradient8"
       x1="-102.13461"
       y1="38.622894"
       x2="-102.3807"
       y2="188.21715"
       gradientUnits="userSpaceOnUse" />
  </defs>
  <g
     inkscape:label="Layer 1"
     inkscape:groupmode="layer"
     id="layer1">
    <rect
       style="fill:url(#linearGradient6);fill-opacity:0.28;stroke:url(#linearGradient23);stroke-width:3.17499996;stroke-linecap:round;stroke-linejoin:round;stroke-miterlimit:12;stroke-dasharray:none;stroke-opacity:1;paint-order:markers stroke fill;opacity:0.6"
       id="rect13"
       width="132.29167"
       height="132.29167"
       x="1.5874966"
       y="1.5874966" />
    <circle
       style="display:none;opacity:0.348361;fill:#000000;stroke:none;stroke-width:3.175;stroke-linecap:round;stroke-linejoin:round;stroke-miterlimit:12;paint-order:markers stroke fill;filter:url(#filter23)"
       id="circle23"
       cx="65.087502"
       cy="73.025002"
       r="43.624859"
       inkscape:label="shadow" />
    <g
       id="g13"
       transform="translate(-0.57401116,4.5920895)"
       style="display:inline">
      <circle
         style="fill:url(#linearGradient2);stroke:none;stroke-width:3.175;stroke-linecap:round;stroke-linejoin:round;stroke-miterlimit:12;paint-order:markers stroke fill"
         id="path1"
         cx="68.307343"
         cy="63.141243"
         r="43.624859" />
      <path
         id="circle2"
         style="fill:url(#linearGradient5);stroke:none;stroke-width:3.175;stroke-linecap:round;stroke-linejoin:round;stroke-miterlimit:12;paint-order:markers stroke fill;filter:url(#filter6)"
         d="M 111.93207,63.039771 68.307343,63.148288 90.025907,100.98267 A 43.624859,43.624859 0 0 0 106.08746,84.960392 43.624859,43.624859 0 0 0 111.93207,63.039771 Z"
         clip-path="url(#clipPath5)" />
    </g>
    <g
       id="g14"
       transform="translate(5.2916666,5.2916666)">
      <path
         id="path10"
         style="fill:url(#linearGradient11);stroke:none;stroke-width:3.175;stroke-linecap:round;stroke-linejoin:round;stroke-miterlimit:12;paint-order:markers stroke fill"
         d="M 74.780793,78.270866 C 78.476321,94.224952 47.16778,97.124163 35.983822,85.773553 46.693808,102.0931 73.662696,102.11082 85.544249,90.2294 84.590339,86.136786 73.394029,72.284024 74.780793,78.270866 Z"
         sodipodi:nodetypes="sccs" />
      <g
         id="g10"
         transform="matrix(0.42260289,-0.42260288,0.42260288,0.42260289,37.313342,-47.845486)"
         style="stroke-width:1.67322">
        <path
           id="path6"
           style="display:inline;fill:#4d4d4d;stroke-width:0.44270561;stroke-linecap:round;stroke-linejoin:round;stroke-miterlimit:12;paint-order:markers stroke fill;stroke:url(#linearGradient8);stroke-opacity:1;stroke-dasharray:none"
           d="m -102.13461,38.622895 c -3.43765,0 -4.67866,44.000672 -6.29729,65.437345 -2.27868,30.17821 -4.17856,41.55145 -4.17856,48.45906 0,11.81433 4.69028,28.17141 10.47585,28.17141 5.785572,0 10.475845,-16.35708 10.475845,-28.17141 0,-6.90761 -1.89988,-18.28085 -4.178556,-48.45906 -1.618627,-21.436673 -2.859637,-65.437345 -6.297289,-65.437345 z" />
        <path
           id="rect7"
           style="display:inline;fill:url(#linearGradient18);stroke-width:5.31247;stroke-linecap:round;stroke-linejoin:round;stroke-miterlimit:12;paint-order:markers stroke fill"
           d="m -108.89838,172.79599 c 0,0 4.47902,-1.11005 6.76377,-1.11005 2.28475,0 6.763765,1.11005 6.763765,1.11005 l -2.77512,22.1257 c 0,0 -2.608575,-1.11005 -3.988645,-1.11005 -1.38008,0 -3.98865,1.11005 -3.98865,1.11005 z"
           sodipodi:nodetypes="czcczcc" />
        <path
           id="path20"
           style="display:inline;opacity:0.422131;fill:#1a1a1a;stroke-width:5.31247;stroke-linecap:round;stroke-linejoin:round;stroke-miterlimit:12;paint-order:markers stroke fill;filter:url(#filter20)"
           d="m -102.82961,49.013859 c -0.66091,23.223288 -5.46219,93.744061 -5.28561,104.142721 0.24043,6.09394 1.55318,12.97801 3.72874,18.72998 -0.82523,0.139 -1.79797,0.24214 -1.39369,3.46919 0.40429,3.22705 3.05985,8.33401 3.47353,11.5592 -0.8297,-0.0793 -1.46105,3.53616 -2.27649,3.70801 -0.83455,-6.4957 -1.57268,-13.0073 -2.51776,-19.48675 -2.17558,-5.75198 -3.27822,-11.8857 -3.51866,-17.97963 -0.0984,-5.79653 0.74378,-11.50164 1.2595,-17.26245 1.79932,-17.66092 3.25702,-35.35926 4.15084,-53.090269 0.65106,-11.28353 1.20242,-22.568649 2.3796,-33.790002 z"
           sodipodi:nodetypes="cccsccccccc"
           transform="translate(2.7288558e-6)" />
        <path
           id="path14"
           style="display:inline;fill:url(#linearGradient16);stroke-width:3.175;stroke-linecap:round;stroke-linejoin:round;stroke-miterlimit:12;paint-order:markers stroke fill;filter:url(#filter21)"
           d="m 15.493808,16.381913 c 10.093529,9.534926 41.924845,37.308172 46.244724,41.777297 2.473712,2.676921 4.599854,5.735026 6.111254,9.085233 2.322447,3.115641 4.744702,6.15847 7.121011,9.234059 0.317102,-0.38416 0.69121,-0.721249 1.108462,-0.993218 -2.392424,-3.09778 -4.832304,-6.161541 -7.171139,-9.299175 -1.5114,-3.350206 -3.637549,-6.408313 -6.111254,-9.085233 C 60.388828,54.609653 57.621919,52.554571 54.969437,50.337983 46.745484,43.634824 38.650096,36.771481 30.779183,29.656041 25.735591,25.162729 20.733464,20.626607 15.493808,16.381913 Z"
           sodipodi:nodetypes="cccccccccc"
           transform="matrix(1.1831439,1.1831438,-1.1831438,1.1831439,-100.75514,12.461042)" />
        <g
           id="g9"
           transform="matrix(0.32057358,0,0,0.32057358,-88.797647,150.94421)"
           style="display:inline;stroke-width:5.21946">
          <path
             id="path7"
             style="display:inline;fill:#1a1a1a;stroke-width:16.5718;stroke-linecap:round;stroke-linejoin:round;stroke-miterlimit:12;paint-order:markers stroke fill"
             d="m -20.294365,139.62523 c 0,15.01908 -22.528794,77.11859 -34.297475,77.11859 7.713908,-21.82213 -8.320689,-62.09951 -8.320689,-77.11859 0,-15.01908 9.540401,-27.19445 21.309082,-27.19445 11.768681,0 21.309082,12.17537 21.309082,27.19445 z"
             sodipodi:nodetypes="scsss" />
          <path
             id="path8"
             style="display:inline;fill:url(#linearGradient13);stroke-width:16.5718;stroke-linecap:round;stroke-linejoin:round;stroke-miterlimit:12;paint-order:markers stroke fill"
             d="m -42.371094,116.26953 c -3.930826,0.10231 -7.642553,2.02607 -10.398437,4.76172 4.3219,-1.25041 9.09744,-0.24624 12.751517,2.31196 4.614513,3.15342 7.622105,8.22862 9.154733,13.52398 1.241651,4.33495 1.491148,8.93591 0.716797,13.3789 -1.113051,6.42344 -3.057292,12.66086 -4.6662,18.96918 -2.266796,8.31764 -4.394822,16.69113 -7.29834,24.81629 -1.693105,4.71844 -3.887935,9.23485 -6.19757,13.67742 3.124445,-4.65518 5.45109,-9.91751 7.859957,-15.02138 6.113452,-13.40923 11.185622,-27.31697 14.80202,-41.60986 1.25128,-5.04063 2.334041,-10.29285 1.441637,-15.49014 -0.873025,-5.86202 -3.517619,-11.64042 -8.059892,-15.5533 -2.029299,-1.73554 -4.631631,-3.04636 -7.15505,-3.53625 -0.971804,-0.18565 -1.96299,-0.24657 -2.951172,-0.22852 z" />
        </g>
        <path
           id="path21"
           style="display:inline;fill:#ffffff;stroke-width:5.31247;stroke-linecap:round;stroke-linejoin:round;stroke-miterlimit:12;paint-order:markers stroke fill;filter:url(#filter22);opacity:0.61885246"
           d="m -101.89482,55.594591 c -0.28351,13.514805 -0.63264,62.438379 -1.12772,75.906849 -0.24121,7.09479 -0.53141,14.15774 -0.67632,21.26379 -0.0383,5.79352 0.2888,11.48813 0.89246,17.04041 0.19973,1.73513 0.43484,3.50024 0.49395,5.37758 0.13201,3.37511 0.30017,6.73811 0.44552,10.10907 0.2028,-4.38109 0.36959,-8.78526 0.64512,-13.13311 0.72694,-5.46928 1.1164,-11.33487 1.18277,-17.0993 0.0266,-4.9796 -0.19464,-9.907 -0.37236,-14.87291 -0.59291,-16.47438 -1.1003,-68.39211 -1.44118,-84.923552 -0.0131,-1.084567 -0.026,-0.675563 -0.0387,0.163455 l -0.002,0.09977 z"
           sodipodi:nodetypes="ccccccccccccc" />
      </g>
    </g>
  </g>
</svg>
