<?xml version="1.0" encoding="UTF-8" standalone="no"?>
<!-- Created with Inkscape (http://www.inkscape.org/) -->

<svg
   width="512"
   height="512"
   viewBox="0 0 135.46666 135.46667"
   version="1.1"
   id="svg5"
   inkscape:version="1.3.2 (091e20ef0f, 2023-11-25, custom)"
   sodipodi:docname="inode-symlink.svg"
   xmlns:inkscape="http://www.inkscape.org/namespaces/inkscape"
   xmlns:sodipodi="http://sodipodi.sourceforge.net/DTD/sodipodi-0.dtd"
   xmlns:xlink="http://www.w3.org/1999/xlink"
   xmlns="http://www.w3.org/2000/svg"
   xmlns:svg="http://www.w3.org/2000/svg">
  <sodipodi:namedview
     id="namedview7"
     pagecolor="#292929"
     bordercolor="#666666"
     borderopacity="1"
     inkscape:showpageshadow="0"
     inkscape:pageopacity="0"
     inkscape:pagecheckerboard="1"
     inkscape:deskcolor="#1a1a1a"
     inkscape:document-units="px"
     showgrid="false"
     inkscape:zoom="1.3037282"
     inkscape:cx="316.40032"
     inkscape:cy="235.47854"
     inkscape:window-width="3256"
     inkscape:window-height="1080"
     inkscape:window-x="1864"
     inkscape:window-y="0"
     inkscape:window-maximized="0"
     inkscape:current-layer="layer1" />
  <defs
     id="defs2">
    <linearGradient
       id="linearGradient1151"
       inkscape:collect="always">
      <stop
         style="stop-color:#ffffff;stop-opacity:1;"
         offset="0"
         id="stop1150" />
      <stop
         style="stop-color:#ff0000;stop-opacity:0;"
         offset="1"
         id="stop1151" />
    </linearGradient>
    <linearGradient
       id="linearGradient1148"
       inkscape:collect="always">
      <stop
         style="stop-color:#000000;stop-opacity:1;"
         offset="0"
         id="stop1148" />
      <stop
         style="stop-color:#00ff00;stop-opacity:0;"
         offset="1"
         id="stop1149" />
    </linearGradient>
    <linearGradient
       inkscape:collect="always"
       xlink:href="#linearGradient1148"
       id="linearGradient1149"
       x1="-77.029495"
       y1="8.1634283"
       x2="-77.029495"
       y2="98.871681"
       gradientUnits="userSpaceOnUse"
       gradientTransform="matrix(1.1512225,0,0,0.64646303,59.161738,-126.29722)" />
    <linearGradient
       inkscape:collect="always"
       xlink:href="#linearGradient1151"
       id="linearGradient1150"
       gradientUnits="userSpaceOnUse"
       gradientTransform="matrix(1.1512225,0,0,0.64646303,59.16173,65.281547)"
       x1="-77.029495"
       y1="8.1634283"
       x2="-77.029495"
       y2="98.871681" />
    <linearGradient
       inkscape:collect="always"
       xlink:href="#linearGradient1148"
       id="linearGradient8"
       gradientUnits="userSpaceOnUse"
       gradientTransform="matrix(-0.81403724,0.81403724,-0.45711839,-0.45711839,52.763622,136.43095)"
       x1="-77.029495"
       y1="8.1634283"
       x2="-77.029495"
       y2="98.871681" />
    <linearGradient
       inkscape:collect="always"
       xlink:href="#linearGradient1151"
       id="linearGradient9"
       gradientUnits="userSpaceOnUse"
       gradientTransform="matrix(0.81403724,-0.81403724,0.45711839,0.45711839,82.703018,-0.9643025)"
       x1="-77.029495"
       y1="8.1634283"
       x2="-77.029495"
       y2="98.871681" />
    <filter
       inkscape:collect="always"
       style="color-interpolation-filters:sRGB"
       id="filter9"
       x="-0.10515219"
       y="-0.069322099"
       width="1.2103044"
       height="1.1386442">
      <feGaussianBlur
         inkscape:collect="always"
         stdDeviation="2.3925376"
         id="feGaussianBlur9" />
    </filter>
  </defs>
  <g
     inkscape:label="Layer 1"
     inkscape:groupmode="layer"
     id="layer1">
    <path
       id="rect9"
       style="fill:#ffcc00;stroke-width:3.175;stroke-linecap:round;paint-order:markers stroke fill"
       d="M 108.87736,74.569069 80.641647,52.012274 101.98679,3.8864449e-7 32.257343,60.897581 60.493055,83.454377 26.589313,135.46666 Z"
       sodipodi:nodetypes="ccccccc" />
    <path
       id="path9"
       style="fill:#ffff00;stroke-width:3.175;stroke-linecap:round;paint-order:markers stroke fill;filter:url(#filter9)"
       d="M 42.972656,60.660156 C 51.86765,67.767814 60.764158,74.87358 69.658203,81.982422 64.183718,90.382666 58.707554,98.781817 53.232422,107.18164 68.014974,96.242839 82.797526,85.304036 97.580078,74.365234 89.158174,67.6335 80.736505,60.901471 72.314453,54.169922 76.390308,44.229688 80.46685,34.289735 84.542969,24.349609 70.686198,36.453125 56.829427,48.556641 42.972656,60.660156 Z" />
    <path
       id="path2"
       style="fill:#ff0000;stroke-width:3.175;stroke-linecap:round;paint-order:markers stroke fill"
       d="M 0,47.265058 60.259952,54.492525 36.418496,67.750647 88.201608,135.46666 20.485591,83.683557 7.2274725,107.52501 Z"
       sodipodi:nodetypes="ccccccc" />
    <path
       id="path1"
       style="fill:#00ff00;stroke-width:3.175;stroke-linecap:round;paint-order:markers stroke fill"
       d="M 135.46666,88.201611 75.206708,80.974141 99.048159,67.716021 47.265053,0 114.98107,51.783112 128.23919,27.941656 Z"
       sodipodi:nodetypes="ccccccc" />
    <path
       id="rect1148"
       style="display:inline;fill:url(#linearGradient8);stroke-width:17.9916;stroke-linecap:round;paint-order:markers stroke fill"
       d="m 117.25953,64.47186 -1.70298,3.819646 -3.81964,1.702979 v 10e-7 0 l -41.464417,-41.464408 10e-7,-1e-6 5.522626,-5.522626 v 0 z"
       sodipodi:nodetypes="ccccccccccc" />
    <path
       id="rect1150"
       style="display:inline;opacity:1;fill:url(#linearGradient9);stroke-width:17.9916;stroke-linecap:round;paint-order:markers stroke fill"
       d="m 18.207137,70.994816 1.702979,-3.819645 3.819647,-1.702981 v 0 l 1e-6,10e-7 41.464406,41.464409 v 0 l -5.522626,5.52262 h -10e-7 L 18.207137,70.994818 Z"
       sodipodi:nodetypes="cccccccccccc" />
    <path
       id="path3"
       style="display:inline;opacity:1;fill:#ffffff;stroke-width:3.175;stroke-linecap:round;paint-order:markers stroke fill"
       d="m 5.2916664,52.556725 c 0,0 8.2285506,4.058478 13.1280406,5.415401 4.89949,1.356917 16.12147,2.421979 16.12147,2.421979 l -14.44784,6.96429 -6.96429,14.447836 c 0,0 -1.06506,-11.221972 -2.42198,-16.121465 C 9.3501474,60.785281 5.2916664,52.556725 5.2916664,52.556725 Z"
       sodipodi:nodetypes="czccczc" />
    <path
       id="path4"
       style="display:inline;opacity:1;fill:#000000;stroke-width:3.175;stroke-linecap:round;paint-order:markers stroke fill"
       d="m 130.17499,82.909944 c 0,0 -8.22855,-4.058478 -13.12804,-5.415401 -4.89949,-1.356917 -16.12147,-2.421979 -16.12147,-2.421979 l 14.44784,-6.96429 6.96429,-14.447836 c 0,0 1.06506,11.221972 2.42198,16.121465 1.35692,4.899485 5.4154,13.128041 5.4154,13.128041 z"
       sodipodi:nodetypes="czccczc" />
    <path
       id="path5"
       style="display:none;fill:url(#linearGradient1149);stroke-width:17.9916;stroke-linecap:round;paint-order:markers stroke fill"
       transform="rotate(135)"
       d="m -37.326518,-121.01995 3.905086,-1.49671 3.905086,1.49671 h 10e-7 v 0 58.639529 h -10e-7 -7.810172 -10e-7 z"
       sodipodi:nodetypes="ccccccccccc"
       sodipodi:insensitive="true" />
    <path
       id="path6"
       style="display:none;opacity:1;fill:url(#linearGradient1150);stroke-width:17.9916;stroke-linecap:round;paint-order:markers stroke fill"
       transform="rotate(-45)"
       d="m -37.326526,70.558853 3.905086,-1.496709 3.905087,1.496709 v 0 10e-7 58.639526 0 h -7.810173 -10e-7 V 70.558854 Z"
       sodipodi:nodetypes="cccccccccccc"
       sodipodi:insensitive="true" />
    <path
       id="path7"
       style="display:none;opacity:1;fill:#00ff00;stroke-width:3.175;stroke-linecap:round;paint-order:markers stroke fill"
       d="m 10.583333,57.848392 c 0,0 8.228551,4.058478 13.128041,5.415401 4.89949,1.356917 16.12147,2.421979 16.12147,2.421979 l -14.44784,6.96429 -6.96429,14.447836 c 0,0 -1.06506,-11.221972 -2.42198,-16.121465 -1.35692,-4.899485 -5.415401,-13.128041 -5.415401,-13.128041 z"
       sodipodi:nodetypes="czccczc"
       sodipodi:insensitive="true" />
    <path
       id="path8"
       style="display:none;opacity:1;fill:#ff0000;stroke-width:3.175;stroke-linecap:round;paint-order:markers stroke fill"
       d="m 124.88332,77.618277 c 0,0 -8.22855,-4.058478 -13.12804,-5.415401 -4.89949,-1.356917 -16.121467,-2.421979 -16.121467,-2.421979 l 14.447837,-6.96429 6.96429,-14.447836 c 0,0 1.06506,11.221972 2.42198,16.121465 1.35692,4.899485 5.4154,13.128041 5.4154,13.128041 z"
       sodipodi:nodetypes="czccczc"
       sodipodi:insensitive="true" />
  </g>
</svg>
