<?xml version="1.0" encoding="UTF-8" standalone="no"?>
<!-- Created with Inkscape (http://www.inkscape.org/) -->

<svg
   width="512"
   height="512"
   viewBox="0 0 135.46666 135.46667"
   version="1.1"
   id="svg5"
   inkscape:version="1.4.2 (ebf0e940d0, 2025-05-08)"
   sodipodi:docname="inode-fifo.svg"
   xmlns:inkscape="http://www.inkscape.org/namespaces/inkscape"
   xmlns:sodipodi="http://sodipodi.sourceforge.net/DTD/sodipodi-0.dtd"
   xmlns="http://www.w3.org/2000/svg"
   xmlns:svg="http://www.w3.org/2000/svg">
  <sodipodi:namedview
     id="namedview7"
     pagecolor="#242424"
     bordercolor="#666666"
     borderopacity="1"
     inkscape:showpageshadow="0"
     inkscape:pageopacity="0"
     inkscape:pagecheckerboard="1"
     inkscape:deskcolor="#000000"
     inkscape:document-units="px"
     showgrid="false"
     inkscape:zoom="1.3037281"
     inkscape:cx="371.62656"
     inkscape:cy="286.10259"
     inkscape:window-width="3256"
     inkscape:window-height="1080"
     inkscape:window-x="1864"
     inkscape:window-y="0"
     inkscape:window-maximized="0"
     inkscape:current-layer="layer1" />
  <defs
     id="defs2">
    <filter
       inkscape:collect="always"
       style="color-interpolation-filters:sRGB"
       id="filter19"
       x="-0.097351482"
       y="-0.097357706"
       width="1.194703"
       height="1.1947154">
      <feGaussianBlur
         inkscape:collect="always"
         stdDeviation="1.2359867"
         id="feGaussianBlur19" />
    </filter>
    <filter
       inkscape:collect="always"
       style="color-interpolation-filters:sRGB"
       id="filter20"
       x="-0.097351476"
       y="-0.097357722"
       width="1.194703"
       height="1.1947154">
      <feGaussianBlur
         inkscape:collect="always"
         stdDeviation="1.2359867"
         id="feGaussianBlur20" />
    </filter>
  </defs>
  <g
     inkscape:label="Layer 1"
     inkscape:groupmode="layer"
     id="layer1">
    <rect
       style="opacity:1;fill:#ffcc00;fill-opacity:1;stroke-width:2.11667;stroke-linecap:round;stroke-linejoin:round;stroke-miterlimit:12;paint-order:markers stroke fill"
       id="rect1"
       width="39.168121"
       height="39.168121"
       x="76.205338"
       y="-19.584059"
       transform="rotate(45)" />
    <path
       style="opacity:1;fill:#a02c2c;fill-opacity:1;stroke-width:2.11667;stroke-linecap:round;stroke-linejoin:round;stroke-miterlimit:12;paint-order:markers stroke fill"
       d="m -42.572172,88.483439 h -30.944173 v 14.611921 h 30.944173 a 43.194351,43.194351 0 0 1 0,-14.611921 z"
       transform="rotate(-45)"
       id="path5" />
    <path
       style="opacity:1;fill:#2ca02c;fill-opacity:1;stroke-width:2.11667;stroke-linecap:round;stroke-linejoin:round;stroke-miterlimit:12;paint-order:markers stroke fill"
       d="M 73.516345,88.483439 H 42.572172 a 43.194351,43.194351 0 0 1 0,14.611921 h 30.944173 z"
       transform="rotate(-45)"
       id="rect2" />
    <path
       sodipodi:type="star"
       style="opacity:1;fill:#a02c2c;fill-opacity:1;stroke-width:3.0642;stroke-linecap:round;stroke-linejoin:round;stroke-miterlimit:12;paint-order:markers stroke fill"
       id="path3"
       inkscape:flatsided="true"
       sodipodi:sides="3"
       sodipodi:cx="0"
       sodipodi:cy="135.46666"
       sodipodi:r1="32.744694"
       sodipodi:r2="16.372347"
       sodipodi:arg1="-0.78539816"
       sodipodi:arg2="0.26179939"
       inkscape:rounded="0"
       inkscape:randomized="0"
       d="M 23.153995,112.31266 8.4749503,167.0956 -31.628945,126.99171 Z"
       inkscape:transform-center-x="-2.9271423"
       inkscape:transform-center-y="-2.9271452"
       transform="matrix(-0.69077515,0,0,-0.69077515,15.994205,213.04945)" />
    <path
       sodipodi:type="star"
       style="opacity:1;fill:#2ca02c;fill-opacity:1;stroke-width:3.0642;stroke-linecap:round;stroke-linejoin:round;stroke-miterlimit:12;paint-order:markers stroke fill"
       id="path4"
       inkscape:flatsided="true"
       sodipodi:sides="3"
       sodipodi:cx="-4.731133e-15"
       sodipodi:cy="135.46666"
       sodipodi:r1="32.744694"
       sodipodi:r2="16.372347"
       sodipodi:arg1="-0.78539816"
       sodipodi:arg2="0.26179939"
       inkscape:rounded="0"
       inkscape:randomized="0"
       d="M 23.153995,112.31266 8.4749503,167.0956 -31.628945,126.99171 Z"
       inkscape:transform-center-x="2.9271427"
       inkscape:transform-center-y="2.9271417"
       transform="matrix(0.69077515,0,0,0.69077515,119.47247,-77.5828)" />
    <circle
       style="display:inline;opacity:1;fill:#ff6600;fill-opacity:1;stroke-width:2.11667;stroke-linecap:round;stroke-linejoin:round;stroke-miterlimit:12;paint-order:markers stroke fill"
       id="path6"
       cx="67.73333"
       cy="67.73333"
       r="19.579166" />
    <path
       id="path8"
       style="display:inline;opacity:1;fill:#aa4400;fill-opacity:1;stroke-width:2.11667;stroke-linecap:round;stroke-linejoin:round;stroke-miterlimit:12;paint-order:markers stroke fill"
       d="m 67.733325,48.154161 c -10.81327,0 -19.57916,8.765891 -19.57916,19.579166 -4e-5,0.750649 0.0431,1.500679 0.12919,2.246375 l 18.81177,3.683497 -1.60817,13.5201 c 0.74569,0.0861 1.49572,0.12923 2.24637,0.1292 10.81328,0 19.57917,-8.7659 19.57917,-19.579172 3e-5,-0.750649 -0.0431,-1.500678 -0.12919,-2.246374 l -18.81177,-3.683496 1.60817,-13.520105 c -0.7457,-0.08609 -1.49573,-0.129225 -2.24638,-0.129191 z"
       sodipodi:nodetypes="ccccccccccc" />
    <path
       id="circle8"
       style="display:inline;opacity:1;fill:#d45500;fill-opacity:1;stroke-width:2.11667;stroke-linecap:round;stroke-linejoin:round;stroke-miterlimit:12;paint-order:markers stroke fill"
       d="m 67.733332,48.154166 c -10.813275,0 -19.579166,8.765891 -19.579166,19.579166 -3.4e-5,0.750649 0.0431,1.500679 0.129191,2.246375 l 24.103439,1.037663 -6.899838,16.165938 c 0.745696,0.08609 1.495725,0.129225 2.246374,0.129191 10.813276,10e-7 19.579168,-8.765891 19.579167,-19.579167 3.4e-5,-0.750649 -0.0431,-1.500678 -0.129191,-2.246374 L 63.079869,64.449295 69.979707,48.283357 c -0.745696,-0.08609 -1.495726,-0.129225 -2.246375,-0.129191 z"
       sodipodi:nodetypes="ccccccccccc" />
    <path
       id="path9"
       style="display:none;opacity:1;fill:#ffcc00;fill-opacity:1;stroke-width:2.11667;stroke-linecap:round;stroke-linejoin:round;stroke-miterlimit:12;paint-order:markers stroke fill"
       d="m 67.733327,48.218761 c -1.35166,0 -2.67145,0.137097 -3.94601,0.397909 1.27456,-0.260812 2.59435,-0.397909 3.94601,-0.397909 z m 2.24638,0.129191 -6.89984,13.520105 24.10344,3.683496 -18.81177,-3.683496 z m -21.69635,21.69635 18.81177,3.683496 -1.60817,13.520105 6.89984,-13.520105 z" />
    <path
       id="path15"
       style="opacity:0.2;fill:#000000;fill-opacity:1;stroke-width:2.11667;stroke-linecap:round;stroke-linejoin:round;stroke-miterlimit:12;paint-order:markers stroke fill"
       d="M -7.5194697e-6,135.46665 37.84264,125.3267 36.25514,123.7392 0.58083248,133.29831 Z M 29.157382,116.64144 42.79634,103.00248 a 43.194351,43.194351 0 0 1 -1.81694,-1.35806 43.194351,43.194351 0 0 1 -5.2e-4,0 L 27.569882,115.05394 Z M 36.44169,97.437447 a 43.194351,43.194351 0 0 1 -3.977528,-4.767151 l -0.22996,0.22996 a 43.194351,43.194351 0 0 0 4.207488,4.537191 z m 66.5608,-54.641107 13.63896,-13.638958 -1.5875,-1.5875 -13.40952,13.408998 a 43.194351,43.194351 0 0 1 0,5.2e-4 43.194351,43.194351 0 0 1 1.35806,1.81694 z M 125.3267,37.84264 135.46665,-1.8293692e-5 133.29831,0.58083171 123.7392,36.25514 Z M 97.43745,36.44169 a 43.194351,43.194351 0 0 0 -4.53719,-4.207498 l -0.22996,0.22996 a 43.194351,43.194351 0 0 1 4.76715,3.977538 z" />
    <path
       id="path12"
       style="opacity:0.2;fill:#ffffff;fill-opacity:1;stroke-width:2.11667;stroke-linecap:round;stroke-linejoin:round;stroke-miterlimit:12;paint-order:markers stroke fill"
       d="M 135.46665,-1.8293692e-5 97.624002,10.139932 l 1.5875,1.5875 35.674308,-9.5591073 z M 106.30926,18.82519 92.670302,32.46415 a 43.194351,43.194351 0 0 1 1.81694,1.358057 43.194351,43.194351 0 0 1 5.2e-4,0 L 107.89676,20.412689 Z m -7.284308,19.203995 a 43.194351,43.194351 0 0 1 3.977528,4.767151 l 0.22996,-0.22996 a 43.194351,43.194351 0 0 0 -4.207488,-4.537191 z m -66.5608,54.641107 -13.63896,13.638958 1.5875,1.5875 13.40952,-13.408998 a 43.194351,43.194351 0 0 1 0,-5.2e-4 43.194351,43.194351 0 0 1 -1.35806,-1.81694 z m -22.32421,4.9537 L -7.5194697e-6,135.46665 2.1683325,134.8858 11.727442,99.211492 Z m 27.88925,1.40095 a 43.194351,43.194351 0 0 0 4.53719,4.207498 l 0.22996,-0.22996 a 43.194351,43.194351 0 0 1 -4.76715,-3.977538 z" />
    <path
       id="path16"
       style="opacity:1;mix-blend-mode:normal;fill:#ff0000;fill-opacity:1;stroke-width:2.11667;stroke-linecap:round;stroke-linejoin:round;stroke-miterlimit:12;paint-order:markers stroke fill;filter:url(#filter19)"
       d="m 22.005859,109.12891 c -2.013504,1.89192 -5.469496,1.12928 -7.001953,-1.00391 -0.832031,-0.83138 -1.664062,-1.66276 -2.496094,-2.49414 -2.113281,7.88867 -4.226562,15.77734 -6.3398432,23.66602 7.8925782,-2.11459 15.7851562,-4.22917 23.6777342,-6.34376 -1.514177,-1.54083 -3.20717,-2.99047 -4.33331,-4.85753 -0.891649,-2.23973 0.459467,-4.68968 2.243857,-6.05107 2.960807,-2.96146 5.921615,-5.92291 8.882422,-8.88436 -1.542736,-1.34057 -2.989071,-2.79198 -4.332031,-4.332035 -3.433594,3.433595 -6.867188,6.867185 -10.300782,10.300785 z" />
    <path
       id="path17"
       style="opacity:1;mix-blend-mode:normal;fill:#00ff00;fill-opacity:1;stroke-width:2.11667;stroke-linecap:round;stroke-linejoin:round;stroke-miterlimit:12;paint-order:markers stroke fill;filter:url(#filter20)"
       d="m 105.62305,12.513672 c 1.51955,1.576599 3.27953,3.015267 4.36051,4.941444 0.83027,2.227342 -0.51885,4.622514 -2.27887,5.971071 -2.95886,2.9595 -5.91771,5.919 -8.876565,8.878501 1.541275,1.343639 2.989565,2.793529 4.333985,4.333984 3.67445,-3.62887 7.23984,-7.377586 11.05859,-10.855469 2.19239,-1.27132 5.04275,-0.153473 6.45703,1.771485 0.76042,0.760416 1.52084,1.520833 2.28125,2.28125 2.11329,-7.888672 4.22657,-15.777344 6.33985,-23.6660161 -7.89193,2.1145833 -15.78386,4.2291671 -23.67578,6.3437501 z" />
  </g>
</svg>
