<?xml version="1.0" encoding="UTF-8" standalone="no"?>
<!-- Created with Inkscape (http://www.inkscape.org/) -->

<svg
   width="512"
   height="512"
   viewBox="0 0 135.46666 135.46667"
   version="1.1"
   id="svg5"
   inkscape:version="1.4.2 (ebf0e940d0, 2025-05-08)"
   xml:space="preserve"
   sodipodi:docname="multipart-encrypted.svg"
   xmlns:inkscape="http://www.inkscape.org/namespaces/inkscape"
   xmlns:sodipodi="http://sodipodi.sourceforge.net/DTD/sodipodi-0.dtd"
   xmlns:xlink="http://www.w3.org/1999/xlink"
   xmlns="http://www.w3.org/2000/svg"
   xmlns:svg="http://www.w3.org/2000/svg"><sodipodi:namedview
     id="namedview7"
     pagecolor="#242424"
     bordercolor="#666666"
     borderopacity="1"
     inkscape:showpageshadow="0"
     inkscape:pageopacity="0"
     inkscape:pagecheckerboard="1"
     inkscape:deskcolor="#000000"
     inkscape:document-units="px"
     showgrid="false"
     inkscape:zoom="1.84375"
     inkscape:cx="282.0339"
     inkscape:cy="320.00001"
     inkscape:window-width="3233"
     inkscape:window-height="1080"
     inkscape:window-x="1887"
     inkscape:window-y="0"
     inkscape:window-maximized="0"
     inkscape:current-layer="layer1" /><defs
     id="defs2"><linearGradient
       id="linearGradient25"
       inkscape:collect="always"><stop
         style="stop-color:#000000;stop-opacity:0.60000002;"
         offset="0"
         id="stop24" /><stop
         style="stop-color:#ffffff;stop-opacity:0.60000002;"
         offset="1"
         id="stop25" /></linearGradient><linearGradient
       id="linearGradient23"
       inkscape:collect="always"><stop
         style="stop-color:#000000;stop-opacity:0.60000002;"
         offset="0"
         id="stop22" /><stop
         style="stop-color:#ffffff;stop-opacity:0.60000002;"
         offset="1"
         id="stop23" /></linearGradient><linearGradient
       id="linearGradient21"
       inkscape:collect="always"><stop
         style="stop-color:#000000;stop-opacity:0.60000002;"
         offset="0"
         id="stop20" /><stop
         style="stop-color:#ffffff;stop-opacity:0.60000002;"
         offset="1"
         id="stop21" /></linearGradient><linearGradient
       id="linearGradient19"
       inkscape:collect="always"><stop
         style="stop-color:#000000;stop-opacity:0.60000002;"
         offset="0"
         id="stop18" /><stop
         style="stop-color:#ffffff;stop-opacity:0.60000002;"
         offset="1"
         id="stop19" /></linearGradient><linearGradient
       id="linearGradient17"
       inkscape:collect="always"><stop
         style="stop-color:#000000;stop-opacity:0.60000002;"
         offset="0"
         id="stop10" /><stop
         style="stop-color:#ffffff;stop-opacity:0.60000002;"
         offset="1"
         id="stop11" /></linearGradient><marker
       style="overflow:visible"
       id="ConcaveTriangle"
       refX="4"
       refY="0"
       orient="auto-start-reverse"
       inkscape:stockid="Concave triangle arrow"
       markerWidth="1"
       markerHeight="1"
       viewBox="0 0 1 1"
       inkscape:isstock="true"
       inkscape:collect="always"
       preserveAspectRatio="xMidYMid"><path
         transform="scale(0.7)"
         d="M -2,-4 9,0 -2,4 c 2,-2.33 2,-5.66 0,-8 z"
         style="fill:context-stroke;fill-rule:evenodd;stroke:none"
         id="path7" /></marker><linearGradient
       id="linearGradient16"
       inkscape:collect="always"><stop
         style="stop-color:#808080;stop-opacity:1;"
         offset="0"
         id="stop16" /><stop
         style="stop-color:#434343;stop-opacity:1;"
         offset="1"
         id="stop17" /></linearGradient><linearGradient
       id="linearGradient1"
       inkscape:collect="always"><stop
         style="stop-color:#000000;stop-opacity:0.60000002;"
         offset="0"
         id="stop9" /><stop
         style="stop-color:#ffffff;stop-opacity:0.60000002;"
         offset="1"
         id="stop4" /></linearGradient><linearGradient
       inkscape:collect="always"
       id="linearGradient3"><stop
         style="stop-color:#660700;stop-opacity:1;"
         offset="0"
         id="stop1" /><stop
         style="stop-color:#cc0008;stop-opacity:1;"
         offset="0.49571416"
         id="stop2" /><stop
         style="stop-color:#660000;stop-opacity:1;"
         offset="1"
         id="stop3" /></linearGradient><linearGradient
       inkscape:collect="always"
       id="linearGradient37704"><stop
         style="stop-color:#520000;stop-opacity:1;"
         offset="0"
         id="stop37700" /><stop
         style="stop-color:#cc0000;stop-opacity:1;"
         offset="1"
         id="stop37702" /></linearGradient><linearGradient
       inkscape:collect="always"
       id="linearGradient1284"><stop
         style="stop-color:#ffb600;stop-opacity:1;"
         offset="0"
         id="stop1280" /><stop
         style="stop-color:#ffff00;stop-opacity:1;"
         offset="0.49571416"
         id="stop1288" /><stop
         style="stop-color:#ffad00;stop-opacity:1;"
         offset="1"
         id="stop1282" /></linearGradient><linearGradient
       inkscape:collect="always"
       xlink:href="#linearGradient3"
       id="linearGradient1286"
       x1="10.704506"
       y1="93.050919"
       x2="108.68611"
       y2="93.050919"
       gradientUnits="userSpaceOnUse"
       gradientTransform="matrix(1.1430033,0,0,1.1430033,-0.49834342,-10.054409)" /><clipPath
       clipPathUnits="userSpaceOnUse"
       id="clipPath13413"><path
         id="path13415"
         style="fill:#ffff00;stroke:none;stroke-width:6.05745;stroke-linecap:round;stroke-linejoin:round;stroke-dasharray:none;stroke-opacity:1;paint-order:stroke fill markers"
         d="m -212.8129,52.337104 a 39.6875,39.6875 0 0 0 -39.6875,39.6875 39.6875,39.6875 0 0 0 0.0584,1.556496 c -0.0367,0.153355 -0.0584,0.313084 -0.0584,0.478007 v 52.585413 c 0,1.12699 0.90752,2.0345 2.0345,2.0345 h 75.306 c 1.12699,0 2.0345,-0.90751 2.0345,-2.0345 V 94.059107 c 0,-0.164923 -0.0217,-0.324652 -0.0584,-0.478007 a 39.6875,39.6875 0 0 0 0.0584,-1.556496 39.6875,39.6875 0 0 0 -39.6875,-39.6875 z m 0.26097,9.527585 c 6.25233,0.08143 12.49179,2.098524 17.53691,5.806363 6.57475,4.808749 11.19146,12.542631 12.12381,20.723283 0.33668,16.898145 0.1954,33.803075 0.22583,50.704395 -20.09504,0.0111 -40.19018,0.0225 -60.28521,0.0336 0.009,-13.79517 -0.0369,-27.59048 0.002,-41.385585 0.0357,-2.676623 -0.0209,-5.457995 0.14883,-8.065656 0.31252,-4.698551 1.80427,-9.293985 4.24056,-13.318051 1.70071,-2.81309 3.87059,-5.347525 6.42959,-7.482747 5.06261,-4.168741 11.67317,-6.806039 18.32808,-7.005773 0.41658,-0.01185 0.83323,-0.01524 1.25005,-0.0098 z" /></clipPath><clipPath
       clipPathUnits="userSpaceOnUse"
       id="clipPath17075"><path
         id="path17077"
         style="fill:#ffff00;stroke:none;stroke-width:6.05745;stroke-linecap:round;stroke-linejoin:round;stroke-dasharray:none;stroke-opacity:1;paint-order:stroke fill markers"
         d="m -139.57909,-31.124334 a 39.6875,39.6875 0 0 0 -39.6875,39.6874999 39.6875,39.6875 0 0 0 0.0584,1.5564941 c -0.0367,0.153356 -0.0584,0.313085 -0.0584,0.478007 v 52.58542 c 0,1.12699 0.90752,2.0345 2.0345,2.0345 h 75.306 c 1.12699,0 2.034501,-0.90751 2.034501,-2.0345 v -52.58542 c 0,-0.164922 -0.0217,-0.324651 -0.0584,-0.478007 a 39.6875,39.6875 0 0 0 0.0584,-1.5564941 39.6875,39.6875 0 0 0 -39.687501,-39.6874999 z m 0.26097,9.527584 c 6.25233,0.08143 12.49179,2.098524 17.53691,5.806364 6.57475,4.808749 11.19146,12.5426291 12.12381,20.7232821 0.33668,16.8981519 0.1954,33.8030749 0.22583,50.7043979 -20.09504,0.01109 -40.19018,0.02249 -60.28521,0.03359 0.009,-13.795166 -0.0369,-27.590474 0.002,-41.385586 0.0357,-2.676625 -0.0209,-5.4579949 0.14883,-8.0656581 0.31252,-4.6985489 1.80427,-9.2939829 4.24056,-13.3180498 1.70071,-2.8130902 3.87059,-5.3475251 6.42959,-7.4827471 5.06261,-4.16874 11.67317,-6.80604 18.32808,-7.005774 0.41658,-0.01185 0.83323,-0.01525 1.25005,-0.0098 z" /></clipPath><filter
       inkscape:collect="always"
       style="color-interpolation-filters:sRGB"
       id="filter17825"
       x="-0.026555843"
       y="-0.048014179"
       width="1.0531248"
       height="1.0813335"><feGaussianBlur
         inkscape:collect="always"
         stdDeviation="0.65530376"
         id="feGaussianBlur17827" /></filter><clipPath
       clipPathUnits="userSpaceOnUse"
       id="clipPath20906"><path
         id="path20908"
         style="fill:url(#linearGradient20910);fill-opacity:1;stroke:#000000;stroke-width:0.264583;stroke-linecap:round;stroke-linejoin:round;paint-order:stroke fill markers"
         d="m -186.44641,40.250178 c 0,0 31.20022,-2.116666 46.82424,-2.116666 15.62402,0 46.824237,2.116666 46.824237,2.116666 1.125842,0.05089 2.034273,0.907283 2.034273,2.034268 v 59.211134 c 0,1.12699 -0.90728,2.03427 -2.034273,2.03427 h -93.648477 c -1.12699,0 -2.03427,-0.90728 -2.03427,-2.03427 V 42.284446 c 0,-1.126985 0.90728,-2.034268 2.03427,-2.034268 z"
         sodipodi:nodetypes="szssssssss" /></clipPath><linearGradient
       inkscape:collect="always"
       xlink:href="#linearGradient1284"
       id="linearGradient20910"
       gradientUnits="userSpaceOnUse"
       gradientTransform="translate(-199.31748,-22.219236)"
       x1="10.704506"
       y1="93.050919"
       x2="108.68611"
       y2="93.050919" /><filter
       inkscape:collect="always"
       style="color-interpolation-filters:sRGB"
       id="filter21638"
       x="-0.0079486816"
       y="-0.011877203"
       width="1.0158974"
       height="1.0237544"><feGaussianBlur
         inkscape:collect="always"
         stdDeviation="0.26098086"
         id="feGaussianBlur21640" /></filter><linearGradient
       inkscape:collect="always"
       xlink:href="#linearGradient1284"
       id="linearGradient26262"
       gradientUnits="userSpaceOnUse"
       gradientTransform="translate(-173.91467,-89.139177)"
       x1="10.704506"
       y1="93.050919"
       x2="108.68611"
       y2="93.050919" /><clipPath
       clipPathUnits="userSpaceOnUse"
       id="clipPath26258-9"><path
         id="path26260-2"
         style="fill:url(#linearGradient26262);fill-opacity:1;stroke:#000000;stroke-width:0.264583;stroke-linecap:round;stroke-linejoin:round;paint-order:stroke fill markers"
         d="m -161.0436,-26.669764 c 0,0 31.20022,-2.116667 46.82424,-2.116667 15.624022,0 46.824239,2.116667 46.824239,2.116667 1.125842,0.05089 2.03427,0.907285 2.03427,2.03427 v 59.211138 c 0,1.12699 -0.90728,2.03427 -2.03427,2.03427 H -161.0436 c -1.12698,0 -2.03427,-0.90728 -2.03427,-2.03427 v -59.211138 c 0,-1.126985 0.90729,-2.03427 2.03427,-2.03427 z"
         sodipodi:nodetypes="szssssssss" /></clipPath><clipPath
       clipPathUnits="userSpaceOnUse"
       id="clipPath20906-3"><path
         id="path20908-6"
         style="fill:url(#linearGradient20910);fill-opacity:1;stroke:#000000;stroke-width:0.264583;stroke-linecap:round;stroke-linejoin:round;paint-order:stroke fill markers"
         d="m -186.44641,40.250178 c 0,0 31.20022,-2.116666 46.82424,-2.116666 15.62402,0 46.824237,2.116666 46.824237,2.116666 1.125842,0.05089 2.034273,0.907283 2.034273,2.034268 v 59.211134 c 0,1.12699 -0.90728,2.03427 -2.034273,2.03427 h -93.648477 c -1.12699,0 -2.03427,-0.90728 -2.03427,-2.03427 V 42.284446 c 0,-1.126985 0.90728,-2.034268 2.03427,-2.034268 z"
         sodipodi:nodetypes="szssssssss" /></clipPath><clipPath
       clipPathUnits="userSpaceOnUse"
       id="clipPath32973"><path
         id="path32975"
         style="fill:url(#linearGradient32977);fill-opacity:1;stroke:#000000;stroke-width:0.264583;stroke-linecap:round;stroke-linejoin:round;paint-order:stroke fill markers"
         d="m -158.4074,97.544603 c 0,0 31.20022,-2.116669 46.82424,-2.116669 15.624022,0 46.824239,2.116669 46.824239,2.116669 1.125842,0.05089 2.03427,0.907283 2.03427,2.034268 v 59.211139 c 0,1.12699 -0.90728,2.03427 -2.03427,2.03427 H -158.4074 c -1.12698,0 -2.03427,-0.90728 -2.03427,-2.03427 V 99.578871 c 0,-1.126985 0.90729,-2.034268 2.03427,-2.034268 z"
         sodipodi:nodetypes="szssssssss" /></clipPath><linearGradient
       inkscape:collect="always"
       xlink:href="#linearGradient1284"
       id="linearGradient32977"
       gradientUnits="userSpaceOnUse"
       gradientTransform="translate(-171.27847,35.075188)"
       x1="10.704506"
       y1="93.050919"
       x2="108.68611"
       y2="93.050919" /><filter
       inkscape:collect="always"
       style="color-interpolation-filters:sRGB"
       id="filter36136"
       x="-0.02940925"
       y="-0.030022691"
       width="1.0585873"
       height="1.0554494"><feGaussianBlur
         inkscape:collect="always"
         stdDeviation="0.71883487"
         id="feGaussianBlur36138" /></filter><linearGradient
       inkscape:collect="always"
       xlink:href="#linearGradient37704"
       id="linearGradient37706"
       x1="67.733109"
       y1="130.51125"
       x2="67.733109"
       y2="65.11525"
       gradientUnits="userSpaceOnUse"
       gradientTransform="matrix(1.1430033,0,0,1.1430033,-9.685831,-15.497962)" /><filter
       inkscape:collect="always"
       style="color-interpolation-filters:sRGB"
       id="filter18"
       x="-0.10232391"
       y="-0.16984564"
       width="1.2046647"
       height="1.3396908"><feGaussianBlur
         inkscape:collect="always"
         stdDeviation="2.4188502"
         id="feGaussianBlur18" /></filter><clipPath
       clipPathUnits="userSpaceOnUse"
       id="clipPath18"><path
         id="path18"
         style="fill:url(#linearGradient26262);fill-opacity:1;stroke:none;stroke-width:0.264583;stroke-linecap:round;stroke-linejoin:round;paint-order:stroke fill markers"
         d="m -161.0436,-26.669765 c 0,0 31.20022,-2.116667 46.82424,-2.116667 15.624021,0 46.824242,2.116667 46.824242,2.116667 1.125839,0.05089 2.034271,0.907285 2.034271,2.03427 V 34.57565 c 0,1.126988 -0.907283,2.034271 -2.034271,2.034271 H -161.0436 c -1.12698,0 -2.03427,-0.907283 -2.03427,-2.034271 v -59.211145 c 0,-1.126985 0.90729,-2.03427 2.03427,-2.03427 z"
         sodipodi:nodetypes="szssssssss" /></clipPath><filter
       inkscape:collect="always"
       style="color-interpolation-filters:sRGB"
       id="filter19"
       x="-0.20996088"
       y="-0.27279919"
       width="1.4021293"
       height="1.5430235"><feGaussianBlur
         inkscape:collect="always"
         stdDeviation="6.3683387"
         id="feGaussianBlur19" /></filter><clipPath
       clipPathUnits="userSpaceOnUse"
       id="clipPath21"><path
         style="color:#000000;fill:url(#linearGradient22);stroke-width:0.999998;stroke-linecap:round;stroke-linejoin:round;-inkscape-stroke:none;paint-order:markers stroke fill"
         d="m 142.39145,87.750625 c 0,0 26.28813,-1.783421 39.45234,-1.783421 13.16421,0 39.45234,1.783421 39.45234,1.783421 0.94859,0.04288 1.714,0.764445 1.714,1.714 V 139.3537 c 0,0.94956 -0.76444,1.714 -1.714,1.714 h -78.90468 c -0.94956,0 -1.714,-0.76444 -1.714,-1.714 V 89.464625 c 0,-0.949555 0.76444,-1.714 1.714,-1.714 z"
         id="path22" /></clipPath><linearGradient
       inkscape:collect="always"
       xlink:href="#linearGradient1284"
       id="linearGradient22"
       gradientUnits="userSpaceOnUse"
       gradientTransform="matrix(0.84256236,0,0,0.84256236,131.54677,35.116251)"
       x1="10.704506"
       y1="93.050919"
       x2="108.68611"
       y2="93.050919" /><filter
       inkscape:collect="always"
       style="color-interpolation-filters:sRGB"
       id="filter22"
       x="-0.0043496855"
       y="-0.0064791713"
       width="1.0086994"
       height="1.0129583"><feGaussianBlur
         inkscape:collect="always"
         stdDeviation="0.15017883"
         id="feGaussianBlur22" /></filter><clipPath
       clipPathUnits="userSpaceOnUse"
       id="clipPath25"><path
         id="path26"
         style="display:inline;fill:#999999;stroke:none;stroke-width:6.52554;stroke-linecap:round;stroke-linejoin:round;stroke-dasharray:none;stroke-opacity:1;paint-order:stroke fill markers"
         d="m -212.81276,52.337032 c -21.91888,-7.2e-5 -39.6877,17.768748 -39.68763,39.68763 0.009,0.519202 0.0287,1.038177 0.0583,1.556618 -0.0367,0.153356 -0.0583,0.312857 -0.0583,0.477779 v 27.463451 l 9.55008,-7.512 c 0.003,-3.75455 0.004,-3.38062 6.3e-4,-4.42636 h -4.26384 v -3.76582 l 4.26384,-1.9749 c -0.002,-0.75761 -0.0138,-0.92531 6.3e-4,-6.096447 0.0357,-2.676622 -0.0207,-5.458178 0.14903,-8.065834 0.31253,-4.698543 1.80424,-9.294286 4.24053,-13.318347 1.7007,-2.813083 3.87049,-5.347343 6.42949,-7.482563 5.0626,-4.16873 11.67309,-6.806272 18.32798,-7.006009 0.41658,-0.01187 0.83313,-0.01517 1.24995,-0.0099 6.25233,0.08143 12.49168,2.098513 17.5368,5.806347 6.57473,4.808739 11.19184,12.542991 12.12419,20.723628 0.33668,16.898115 0.19528,33.802875 0.22571,50.704175 l 7.50526,9.58074 c 1.12699,0 2.03501,-0.90802 2.03501,-2.03501 V 94.059059 c 0,-0.164922 -0.0222,-0.324423 -0.0589,-0.477779 0.0298,-0.518438 0.0495,-1.03741 0.0589,-1.556618 7e-5,-21.918879 -17.76875,-39.687699 -39.68763,-39.68763 z" /></clipPath><clipPath
       clipPathUnits="userSpaceOnUse"
       id="clipPath26"><path
         id="path27"
         style="display:inline;fill:#999999;stroke:none;stroke-width:6.52555;stroke-linecap:round;stroke-linejoin:round;stroke-dasharray:none;stroke-opacity:1;paint-order:stroke fill markers"
         d="m 84.49665,37.300048 c -18.468023,-6.1e-5 -33.439362,14.971278 -33.439301,33.439303 0.0078,0.437459 0.02416,0.874728 0.04909,1.311548 -0.03093,0.129211 -0.04909,0.263601 -0.04909,0.402558 v 23.139672 l 8.046535,-6.329328 c 0.0021,-3.163448 0.003,-2.848388 5.29e-4,-3.729487 H 55.511866 V 82.36138 l 3.592547,-1.66398 c -0.0016,-0.638337 -0.01164,-0.779629 5.29e-4,-5.136637 0.0301,-2.255221 -0.01744,-4.598855 0.125574,-6.795968 0.263321,-3.958815 1.520185,-7.831016 3.572909,-11.221538 1.432944,-2.370198 3.26113,-4.50547 5.417241,-6.304526 4.265557,-3.512415 9.835306,-5.734708 15.442467,-5.902999 0.350999,-0.01 0.701968,-0.01278 1.053166,-0.0083 5.267973,0.06861 10.525016,1.768128 14.775841,4.892209 5.53962,4.051663 9.42982,10.568252 10.21539,17.46095 0.28367,14.237715 0.16453,28.48103 0.19018,42.721429 l 6.32365,8.07237 c 0.94955,0 1.71461,-0.76506 1.71461,-1.71462 V 72.453457 c 0,-0.138957 -0.0187,-0.273347 -0.0496,-0.402558 0.0251,-0.436817 0.0417,-0.874083 0.0496,-1.311548 7e-5,-18.468022 -14.97128,-33.439362 -33.439297,-33.439303 z" /></clipPath><filter
       inkscape:collect="always"
       style="color-interpolation-filters:sRGB"
       id="filter27"
       x="-0.064625104"
       y="-0.052738727"
       width="1.1292502"
       height="1.1054775"><feGaussianBlur
         inkscape:collect="always"
         stdDeviation="2.0235979"
         id="feGaussianBlur27" /></filter><clipPath
       clipPathUnits="userSpaceOnUse"
       id="clipPath29"><path
         id="path30"
         style="display:inline;fill:#999999;stroke:none;stroke-width:5.49818;stroke-linecap:round;stroke-linejoin:round;stroke-dasharray:none;stroke-opacity:1;paint-order:stroke fill markers"
         d="m 84.49665,37.300048 c -18.468023,-6e-5 -33.439363,14.971279 -33.439302,33.439303 0.0078,0.43746 0.02415,0.874729 0.04909,1.311547 -0.03093,0.129212 -0.04909,0.263603 -0.04909,0.40256 V 95.59313 l 8.046537,-6.329329 c 0.002,-3.163447 0.003,-2.848387 5.17e-4,-3.729488 H 55.511856 V 82.36138 l 3.592546,-1.663981 c -0.0017,-0.638336 -0.01163,-0.779629 5.17e-4,-5.136637 0.0301,-2.25522 -0.01744,-4.598853 0.125573,-6.795968 0.263321,-3.958813 1.520185,-7.831016 3.572909,-11.221537 1.432943,-2.370199 3.261131,-4.505471 5.41724,-6.304525 4.265557,-3.512415 9.835307,-5.73471 15.442468,-5.902999 0.351,-0.01 0.701968,-0.01279 1.053166,-0.0083 5.267973,0.06861 10.525017,1.768128 14.775842,4.892208 5.539623,4.051663 9.429823,10.568251 10.215393,17.46095 0.28367,14.237716 0.16453,28.48103 0.19017,42.721429 l 6.32365,8.07237 c 0.94956,0 1.71462,-0.76506 1.71462,-1.71462 V 72.453458 c 0,-0.138957 -0.0187,-0.273348 -0.0496,-0.40256 0.0251,-0.436815 0.0417,-0.874083 0.0496,-1.311547 6e-5,-18.468023 -14.97128,-33.439362 -33.4393,-33.439303 z"
         clip-path="url(#clipPath26)"
         transform="matrix(1.1868558,0,0,1.1868558,-32.551877,-39.50734)" /></clipPath><clipPath
       clipPathUnits="userSpaceOnUse"
       id="clipPath32"><path
         id="path33"
         style="display:inline;fill:#999999;stroke:none;stroke-width:6.52554;stroke-linecap:round;stroke-linejoin:round;stroke-dasharray:none;stroke-opacity:1;paint-order:stroke fill markers"
         d="m 84.49665,37.300048 c -18.468023,-6e-5 -33.439363,14.971279 -33.439302,33.439303 0.0078,0.43746 0.02415,0.874729 0.04909,1.311547 -0.03093,0.129212 -0.04909,0.263603 -0.04909,0.40256 V 95.59313 l 8.046537,-6.329329 c 0.002,-3.163447 0.003,-2.848387 5.17e-4,-3.729488 H 55.511856 V 82.36138 l 3.592546,-1.663981 c -0.0017,-0.638336 -0.01163,-0.779629 5.17e-4,-5.136637 0.0301,-2.25522 -0.01744,-4.598853 0.125573,-6.795968 0.263321,-3.958813 1.520185,-7.831016 3.572909,-11.221537 1.432943,-2.370199 3.261131,-4.505471 5.41724,-6.304525 4.265557,-3.512415 9.835307,-5.73471 15.442468,-5.902999 0.351,-0.01 0.701968,-0.01279 1.053166,-0.0083 5.267973,0.06861 10.525017,1.768128 14.775842,4.892208 5.539623,4.051663 9.429823,10.568251 10.215393,17.46095 0.28367,14.237716 0.16453,28.48103 0.19017,42.721429 l 6.32365,8.07237 c 0.94956,0 1.71462,-0.76506 1.71462,-1.71462 V 72.453458 c 0,-0.138957 -0.0187,-0.273348 -0.0496,-0.40256 0.0251,-0.436815 0.0417,-0.874083 0.0496,-1.311547 6e-5,-18.468023 -14.97128,-33.439362 -33.4393,-33.439303 z"
         clip-path="url(#clipPath26)" /></clipPath><filter
       inkscape:collect="always"
       style="color-interpolation-filters:sRGB"
       id="filter34"
       x="-0.045681777"
       y="-0.037926289"
       width="1.0913636"
       height="1.0758526"><feGaussianBlur
         inkscape:collect="always"
         stdDeviation="1.2026075"
         id="feGaussianBlur34" /></filter><clipPath
       clipPathUnits="userSpaceOnUse"
       id="clipPath34"><path
         id="path35"
         style="display:inline;fill:#999999;stroke:none;stroke-width:6.52554;stroke-linecap:round;stroke-linejoin:round;stroke-dasharray:none;stroke-opacity:1;paint-order:stroke fill markers"
         d="m 84.49665,37.300048 c -18.468023,-6e-5 -33.439363,14.971279 -33.439302,33.439303 0.0078,0.43746 0.02415,0.874729 0.04909,1.311547 -0.03093,0.129212 -0.04909,0.263603 -0.04909,0.40256 V 95.59313 l 8.046537,-6.329329 c 0.002,-3.163447 0.003,-2.848387 5.17e-4,-3.729488 H 55.511856 V 82.36138 l 3.592546,-1.663981 c -0.0017,-0.638336 -0.01163,-0.779629 5.17e-4,-5.136637 0.0301,-2.25522 -0.01744,-4.598853 0.125573,-6.795968 0.263321,-3.958813 1.520185,-7.831016 3.572909,-11.221537 1.432943,-2.370199 3.261131,-4.505471 5.41724,-6.304525 4.265557,-3.512415 9.835307,-5.73471 15.442468,-5.902999 0.351,-0.01 0.701968,-0.01279 1.053166,-0.0083 5.267973,0.06861 10.525017,1.768128 14.775842,4.892208 5.539623,4.051663 9.429823,10.568251 10.215393,17.46095 0.28367,14.237716 0.16453,28.48103 0.19017,42.721429 l 6.32365,8.07237 c 0.94956,0 1.71462,-0.76506 1.71462,-1.71462 V 72.453458 c 0,-0.138957 -0.0187,-0.273348 -0.0496,-0.40256 0.0251,-0.436815 0.0417,-0.874083 0.0496,-1.311547 6e-5,-18.468023 -14.97128,-33.439362 -33.4393,-33.439303 z"
         clip-path="url(#clipPath26)" /></clipPath><linearGradient
       id="linearGradient8"><stop
         id="stop7"
         style="stop-color:#e11f21;stop-opacity:1;"
         offset="0" /><stop
         id="stop8"
         style="stop-color:#ffb15d;stop-opacity:1"
         offset="1" /></linearGradient><linearGradient
       x1="64"
       y1="60"
       x2="62"
       y2="7"
       id="linearGradient3724"
       xlink:href="#linearGradient3763"
       gradientUnits="userSpaceOnUse"
       gradientTransform="matrix(1.231823,0,0,1.231823,-157.81615,7.1708322)" /><linearGradient
       id="linearGradient3763"><stop
         id="stop3765"
         style="stop-color:#ff7700;stop-opacity:1"
         offset="0" /><stop
         id="stop3767"
         style="stop-color:#ffb15d;stop-opacity:1"
         offset="1" /></linearGradient><clipPath
       id="clipPath3716"><path
         d="m -118,6 c -3.324,0 -6,2.676 -6,6 v 72 c 0,3.324 2.676,6 6,6 h 72 c 3.324,0 6,-2.676 6,-6 V 12 c 0,-3.324 -2.676,-6 -6,-6 z m 42.53125,9.4375 c 0,0 6.742786,6.784262 -6.4375,17.1875 -10.569721,8.348428 -2.406258,13.091934 0,18.53125 -6.170339,-5.566626 -10.691951,-10.439321 -7.65625,-15 4.457852,-6.693689 16.821977,-9.970594 14.09375,-20.71875 z m 8.125,13.34375 c -14.197756,8.233791 -11.545654,10.600025 -8.125,15.40625 3.661158,5.156183 -4.3125,9.25 -4.3125,9.25 0,0 3.954627,-3.226804 0.8125,-6.84375 -10.643745,-12.265213 11.625144,-17.8125 11.625,-17.8125 z m 3.59375,21.875 c 6.598371,-0.338475 10.187997,8.957958 -4.59375,12.84375 -1.44e-4,0 0.16215,-0.192534 0.21875,-0.34375 12.215092,-6.34575 6.567276,-12.446464 2.625,-11.625 -0.964039,0.201189 -1.40625,0.375 -1.40625,0.375 0,0 0.378571,-0.570411 1.0625,-0.8125 0.731171,-0.256932 1.41116,-0.40248 2.09375,-0.4375 z m -26.40625,0.625 c 0.519115,-0.01358 0.8125,0 0.8125,0 0,0 -11.82939,2.822105 -4.1875,3.84375 3.227673,0.431901 9.630792,0.315402 15.625,-0.1875 4.897387,-0.41102 9.8125,-1.25 9.8125,-1.25 0,0 -1.719415,0.709928 -2.96875,1.5625 -12.017218,3.160705 -35.24553,1.700167 -28.5625,-1.53125 4.236968,-2.049735 7.911406,-2.39676 9.46875,-2.4375 z m -1.9375,7.40625 c 0,0 -2.823626,2.059601 1.4375,2.5 5.511613,0.569005 9.87295,0.637302 17.40625,-0.8125 0,0 1.050477,1.047931 2.6875,1.625 -15.407629,4.506818 -32.55548,0.346355 -21.53125,-3.3125 z m 1.53125,7.125 c 0,0 -2.476708,1.449143 1.78125,1.9375 5.159208,0.589021 7.816289,0.511854 13.5,-0.5625 0,0 1.474997,0.907513 3.5625,1.71875 -12.745505,5.460632 -28.85383,-0.296827 -18.84375,-3.09375 z m -6.46875,4.71875 c 0.614519,0.02364 1.14585,0.147618 1.46875,0.375 0,0 -0.852618,-0.05906 -2.28125,0.25 -1.370161,0.295952 -5.69609,1.676512 -3.375,2.6875 6.461397,2.810602 29.707491,2.165274 37.0625,-0.0625 3.867966,-1.173437 2.03125,-2.71875 2.03125,-2.71875 6.739204,3.040884 -14.609199,9.149373 -40.59375,4.9375 -8.33743,-1.353006 1.38587,-5.63424 5.6875,-5.46875 z M -58,74.375 c -0.426144,5.547328 -18.43383,6.718207 -30.15625,5.96875 -7.704246,-0.495845 -9.1875,-1.71875 -9.1875,-1.71875 7.318718,1.208433 19.649918,1.415115 29.65625,-0.46875 C -58.817879,76.487689 -58,74.375 -58,74.375 Z"
         inkscape:connector-curvature="0"
         id="path3718"
         style="display:inline;fill:#ff00ff;fill-opacity:1;fill-rule:nonzero;stroke:none" /></clipPath><filter
       style="color-interpolation-filters:sRGB"
       x="-0.17383916"
       y="-0.13525651"
       width="1.3476862"
       height="1.26344"
       id="filter3720"><feGaussianBlur
         id="feGaussianBlur3722"
         stdDeviation="3.3931715" /></filter><clipPath
       clipPathUnits="userSpaceOnUse"
       id="clipPath5236"><path
         id="path5238"
         style="display:inline;fill:#3d2b1c;fill-opacity:1;stroke:none;stroke-width:0.544674;stroke-linecap:round;stroke-linejoin:round;stroke-dasharray:none;paint-order:stroke fill markers"
         d="m -49.172392,42.832634 c -7.004256,-6.995933 -18.211432,-7.42723 -25.732692,-0.990362 -6.407574,-5.945629 -16.36893,-5.762969 -22.554216,0.413581 -6.17655,6.185286 -6.35921,16.146645 -0.413581,22.554218 -6.436869,7.52126 -6.005549,18.72841 0.990362,25.732687 4.100296,4.092133 9.645528,5.163233 15.599791,5.412759 5.954263,0.249526 10.077479,-4.560893 14.52345,-1.747462 4.445974,2.813431 3.941943,12.094115 3.941943,12.094115 l 1.23676,1.20889 7.015726,-7.01572 18.384986,18.38498 6.614488,-1.19616 3.945923,3.94593 3.945925,3.94592 -1.196162,6.61448 2.473521,2.47353 6.614881,-1.19577 3.9459273,3.94593 3.9459199,3.94592 -1.1961548,6.61449 3.2099205,3.20992 3.75525159,0.19027 3.94632081,3.94632 3.9459262,3.94593 0.1906696,3.75565 4.8363789,4.83637 13.869045,-1.47599 3.836059,-3.83606 0.318045,-7.35487 -70.041834,-70.041829 7.015329,-7.015329 -1.208497,-1.237155 c 0,0 -9.500746,0.738085 -12.094118,-3.941942 -2.593371,-4.680024 1.21072,-8.826172 1.747462,-14.52345 0.536739,-5.697276 -1.320623,-11.499498 -5.412756,-15.599791 z m -33.362617,3.149415 c 3.092191,3.092291 3.092191,8.105804 0,11.198095 -3.092294,3.092191 -8.105804,3.092191 -11.198095,0 -3.092191,-3.092291 -3.092191,-8.105801 0,-11.198095 3.092291,-3.092191 8.105804,-3.092191 11.198095,0 z"
         inkscape:label="shape" /></clipPath><clipPath
       clipPathUnits="userSpaceOnUse"
       id="clipPath22580"><path
         id="path22582"
         style="display:inline;fill:#8f5321;fill-opacity:1;stroke:none;stroke-width:0.544674;stroke-linecap:round;stroke-linejoin:round;stroke-dasharray:none;paint-order:stroke fill markers"
         d="m -156.30539,2.3729171 c -7.00426,-6.9959341 -18.21143,-7.4272311 -25.73269,-0.990362 -6.40758,-5.9456299 -16.36893,-5.762969 -22.55422,0.41358 -6.17655,6.1852871 -6.35921,16.1466439 -0.41358,22.5542179 -6.43687,7.52126 -6.00554,18.728407 0.99036,25.732687 4.1003,4.092131 9.64553,5.16323 15.59979,5.412761 5.95427,0.249529 10.07748,-4.56089 14.52345,-1.747462 4.44598,2.813431 3.94195,12.09411 3.94195,12.09411 l 1.23676,1.208892 7.01572,-7.015721 18.38499,18.38498 6.61449,-1.196149 3.94592,3.945919 3.94592,3.94593 -1.19616,6.61448 2.47352,2.473521 6.61488,-1.195761 3.94593,3.945919 3.94592,3.945921 -1.19615,6.61449 3.20992,3.20992 3.75525,0.19027 3.94632,3.94632 3.94593,3.94593 0.190669,3.75565 4.83638,4.83637 13.869046,-1.47599 3.836058,-3.83605 0.318045,-7.35487 -70.041838,-70.04184 7.01533,-7.015326 -1.2085,-1.237155 c 0,0 -9.50074,0.738084 -12.09412,-3.941942 -2.59337,-4.680024 1.21072,-8.826173 1.74747,-14.523449 0.53673,-5.697278 -1.32063,-11.4994979 -5.41276,-15.5997909 z m -33.36262,3.1494141 c 3.09219,3.0922928 3.09219,8.1058028 0,11.1980948 -3.09229,3.09219 -8.1058,3.09219 -11.19809,0 -3.09219,-3.092291 -3.09219,-8.105802 0,-11.198094 3.09229,-3.0921909 8.1058,-3.0921899 11.19809,-8e-7 z" /></clipPath><clipPath
       clipPathUnits="userSpaceOnUse"
       id="clipPath3721"><path
         id="path3723"
         style="display:inline;fill:#8f5321;fill-opacity:1;stroke:none;stroke-width:0.544674;stroke-linecap:round;stroke-linejoin:round;stroke-dasharray:none;paint-order:stroke fill markers"
         d="M -58.402707,14.071743 C -65.406969,7.0758084 -76.614139,6.6445114 -84.1354,13.081381 c -6.407578,-5.9456304 -16.36893,-5.7629695 -22.55422,0.41358 -6.17655,6.185287 -6.35921,16.146643 -0.41358,22.554219 -6.43687,7.521257 -6.00554,18.728407 0.99036,25.732687 4.1003,4.092133 9.645532,5.163232 15.599792,5.412758 5.95427,0.249526 10.077479,-4.560893 14.52345,-1.747464 4.445979,2.813433 3.94195,12.094117 3.94195,12.094117 l 1.23676,1.208892 7.015718,-7.015726 18.384991,18.384986 6.614486,-1.196158 3.945924,3.945927 3.945925,3.945919 -1.196163,6.614482 2.473521,2.47352 6.614882,-1.19576 3.945927,3.94593 3.945919,3.94592 -1.196152,6.61449 3.20992,3.20992 3.7552495,0.19027 3.9463213,3.94632 3.9459297,3.94593 0.1906693,3.75565 4.8363796,4.83637 13.8690406,-1.47599 3.836061,-3.83606 0.318048,-7.35487 -70.041836,-70.04183 7.015329,-7.015332 -1.2085,-1.237152 c 0,0 -9.500741,0.738082 -12.09412,-3.941943 -2.59337,-4.680026 1.21072,-8.826174 1.747469,-14.523449 0.536731,-5.697278 -1.32063,-11.499498 -5.412758,-15.599791 z m -33.362622,3.149414 c 3.092191,3.092293 3.092191,8.105803 0,11.198096 -3.092289,3.092188 -8.105799,3.092188 -11.198091,0 -3.09219,-3.092292 -3.09219,-8.105803 0,-11.198095 3.092292,-3.092191 8.105802,-3.09219 11.198091,-10e-7 z" /></clipPath><filter
       style="color-interpolation-filters:sRGB"
       inkscape:label="Noise Fill"
       id="filter54"
       x="0"
       y="0"
       width="1"
       height="1"><feTurbulence
         type="fractalNoise"
         baseFrequency="1 44"
         numOctaves="4"
         seed="2"
         result="turbulence"
         id="feTurbulence52" /><feComposite
         in="SourceGraphic"
         in2="turbulence"
         operator="in"
         result="composite1"
         id="feComposite53" /><feColorMatrix
         values="1 0 0 0 0 0 1 0 0 0 0 0 1 0 0 0 0 0 4 -1 "
         result="color"
         id="feColorMatrix53" /><feFlood
         flood-opacity="1"
         flood-color="rgb(0,0,0)"
         result="flood"
         id="feFlood53" /><feMerge
         result="merge"
         id="feMerge54"><feMergeNode
           in="flood"
           id="feMergeNode53" /><feMergeNode
           in="color"
           id="feMergeNode54" /></feMerge><feComposite
         in2="SourceGraphic"
         operator="in"
         result="composite2"
         id="feComposite54" /></filter><filter
       style="color-interpolation-filters:sRGB"
       inkscape:label="Noise Fill"
       id="filter52"
       x="0"
       y="0"
       width="1"
       height="1"><feTurbulence
         type="fractalNoise"
         baseFrequency="22 1"
         numOctaves="4"
         seed="2"
         result="turbulence"
         id="feTurbulence51" /><feComposite
         in="SourceGraphic"
         in2="turbulence"
         operator="in"
         result="composite1"
         id="feComposite51" /><feColorMatrix
         values="1 0 0 0 0 0 1 0 0 0 0 0 1 0 0 0 0 0 4 -1 "
         result="color"
         id="feColorMatrix51" /><feFlood
         flood-opacity="1"
         flood-color="rgb(0,0,0)"
         result="flood"
         id="feFlood51" /><feMerge
         result="merge"
         id="feMerge52"><feMergeNode
           in="flood"
           id="feMergeNode51" /><feMergeNode
           in="color"
           id="feMergeNode52" /></feMerge><feComposite
         in2="SourceGraphic"
         operator="in"
         result="composite2"
         id="feComposite52" /></filter><clipPath
       clipPathUnits="userSpaceOnUse"
       id="clipPath48"><path
         id="path48"
         style="opacity:0.382333;fill:#c83737;fill-opacity:1;stroke:none;stroke-width:0.04;stroke-linecap:round;stroke-linejoin:round;paint-order:fill markers stroke"
         d="M 32.296219,20.798213 A 32.296002,32.296002 0 0 0 -1e-6,53.094434 a 32.296002,32.296002 0 0 0 32.29622,32.295698 32.296002,32.296002 0 0 0 29.52429,-19.27324 h 9.63972 l -0.01085,-2.64583 2.842209,-5.29167 h 2.842721 l 2.842199,5.29167 h 2.842201 2.84221 l 2.84272,-2.645839 2.8422,2.645839 h 2.842209 l 2.842721,-5.29167 h 2.842199 l 2.842202,5.29167 h 2.84272 2.84221 l 2.8422,-5.29167 h 2.84272 2.84221 l 5.68492,5.29167 h 2.8422 2.84221 l 2.84272,-5.29167 2.8422,5.29167 h 2.84221 2.84272 l 2.8422,-5.29167 5.68492,5.29167 h 2.84221 l 2.8422,-2.645839 2.84272,2.645839 h 2.84221 2.8422 l 12.69432,-10.215399 v -5.386239 l -8.99015,-7.79849 H 61.83912 A 32.296002,32.296002 0 0 0 32.296219,20.798213 Z m -16.42122,21.71288 A 10.583333,10.583333 0 0 1 26.458329,53.094434 10.583333,10.583333 0 0 1 15.874999,63.677762 10.583333,10.583333 0 0 1 5.2916589,53.094434 10.583333,10.583333 0 0 1 15.874999,42.511093 Z" /></clipPath><clipPath
       clipPathUnits="userSpaceOnUse"
       id="clipPath11"><path
         id="path11-5"
         style="opacity:1;fill:url(#linearGradient12);fill-opacity:1;stroke:none;stroke-width:0.04;stroke-linecap:round;stroke-linejoin:round;paint-order:fill markers stroke"
         d="m -37.963033,25.132832 a 27.961346,27.961346 0 0 0 -27.9616,27.961084 27.961346,27.961346 0 0 0 27.9616,27.9616 27.961346,27.961346 0 0 0 27.961085,-27.9616 27.961346,27.961346 0 0 0 -27.961085,-27.961084 z m -16.421219,17.378266 a 10.583333,10.583333 0 0 1 10.583334,10.583334 10.583333,10.583333 0 0 1 -10.583334,10.583333 10.583333,10.583333 0 0 1 -10.583333,-10.583333 10.583333,10.583333 0 0 1 10.583333,-10.583334 z" /></clipPath><linearGradient
       inkscape:collect="always"
       xlink:href="#linearGradient5"
       id="linearGradient12"
       gradientUnits="userSpaceOnUse"
       gradientTransform="translate(-70.259251)"
       x1="32.296219"
       y1="25.132832"
       x2="32.296219"
       y2="81.055519" /><linearGradient
       id="linearGradient5"
       inkscape:collect="always"><stop
         style="stop-color:#7a7a7a;stop-opacity:1;"
         offset="0.01"
         id="stop5" /><stop
         style="stop-color:#999999;stop-opacity:1;"
         offset="1"
         id="stop6" /></linearGradient><clipPath
       clipPathUnits="userSpaceOnUse"
       id="clipPath56"><path
         id="path57"
         style="display:inline;fill:#ff2a2a;fill-opacity:1;stroke:none;stroke-width:0.04;stroke-linecap:round;stroke-linejoin:round;paint-order:fill markers stroke"
         d="m 13.063791,100.94391 h 82.584535 l 6.783284,5.88376 v 4.06401 l -9.578117,7.70779 -2.144596,1e-5 -2.144596,-1e-5 -2.144596,-1.9963 -2.144596,1.9963 -2.144596,1e-5 -4.289198,-3.99262 -2.144598,3.99261 -2.144594,1e-5 H 71.40753 l -2.144599,-3.99262 -2.144593,3.99261 h -2.144596 l -2.144594,1e-5 -4.289192,-3.99262 H 56.39536 54.250767 l -2.144596,3.99262 -2.144604,-1e-5 H 47.81697 l -2.14459,-3.99261 h -2.144588 l -2.144594,3.99262 -2.144599,-1e-5 -2.144593,-1.9963 -2.144596,1.9963 -2.144596,1e-5 -2.144599,-1e-5 -2.144596,-3.99261 h -2.144595 l -2.144596,3.99262 0.0083,1.9963 H 13.063755 v -4.91296 l -2e-6,-4.91298 v -4.91296 z"
         sodipodi:nodetypes="ccccccccccccccccccccccccccccccccccccccccc" /></clipPath><clipPath
       clipPathUnits="userSpaceOnUse"
       id="clipPath15"><path
         id="path15-6"
         style="display:inline;fill:#ff2a2a;fill-opacity:1;stroke:none;stroke-width:0.04;stroke-linecap:round;stroke-linejoin:round;paint-order:fill markers stroke"
         d="m 13.063791,100.94391 h 82.584535 l 6.783284,5.88376 v 4.06401 l -9.578117,7.70779 -2.144596,1e-5 -2.144596,-1e-5 -2.144596,-1.9963 -2.144596,1.9963 -2.144596,1e-5 -4.289198,-3.99262 -2.144598,3.99261 -2.144594,1e-5 H 71.40753 l -2.144599,-3.99262 -2.144593,3.99261 h -2.144596 l -2.144594,1e-5 -4.289192,-3.99262 H 56.39536 54.250767 l -2.144596,3.99262 -2.144604,-1e-5 H 47.81697 l -2.14459,-3.99261 h -2.144588 l -2.144594,3.99262 -2.144599,-1e-5 -2.144593,-1.9963 -2.144596,1.9963 -2.144596,1e-5 -2.144599,-1e-5 -2.144596,-3.99261 h -2.144595 l -2.144596,3.99262 0.0083,1.9963 H 13.063755 v -4.91296 l -2e-6,-4.91298 v -4.91296 z"
         sodipodi:nodetypes="ccccccccccccccccccccccccccccccccccccccccc" /></clipPath><clipPath
       clipPathUnits="userSpaceOnUse"
       id="clipPath16"><path
         id="path16-3"
         style="display:inline;fill:#ff2a2a;fill-opacity:1;stroke:none;stroke-width:0.04;stroke-linecap:round;stroke-linejoin:round;paint-order:fill markers stroke"
         d="m 13.063791,100.94391 h 82.584535 l 6.783284,5.88376 v 4.06401 l -9.578117,7.70779 -2.144596,1e-5 -2.144596,-1e-5 -2.144596,-1.9963 -2.144596,1.9963 -2.144596,1e-5 -4.289198,-3.99262 -2.144598,3.99261 -2.144594,1e-5 H 71.40753 l -2.144599,-3.99262 -2.144593,3.99261 h -2.144596 l -2.144594,1e-5 -4.289192,-3.99262 H 56.39536 54.250767 l -2.144596,3.99262 -2.144604,-1e-5 H 47.81697 l -2.14459,-3.99261 h -2.144588 l -2.144594,3.99262 -2.144599,-1e-5 -2.144593,-1.9963 -2.144596,1.9963 -2.144596,1e-5 -2.144599,-1e-5 -2.144596,-3.99261 h -2.144595 l -2.144596,3.99262 0.0083,1.9963 H 13.063755 v -4.91296 l -2e-6,-4.91298 v -4.91296 z"
         sodipodi:nodetypes="ccccccccccccccccccccccccccccccccccccccccc" /></clipPath><clipPath
       clipPathUnits="userSpaceOnUse"
       id="clipPath5236-3"><path
         id="path5238-6"
         style="display:inline;fill:#3d2b1c;fill-opacity:1;stroke:none;stroke-width:0.544674;stroke-linecap:round;stroke-linejoin:round;stroke-dasharray:none;paint-order:stroke fill markers"
         d="m -49.172392,42.832634 c -7.004256,-6.995933 -18.211432,-7.42723 -25.732692,-0.990362 -6.407574,-5.945629 -16.36893,-5.762969 -22.554216,0.413581 -6.17655,6.185286 -6.35921,16.146645 -0.413581,22.554218 -6.436869,7.52126 -6.005549,18.72841 0.990362,25.732687 4.100296,4.092133 9.645528,5.163233 15.599791,5.412759 5.954263,0.249526 10.077479,-4.560893 14.52345,-1.747462 4.445974,2.813431 3.941943,12.094115 3.941943,12.094115 l 1.23676,1.20889 7.015726,-7.01572 18.384986,18.38498 6.614488,-1.19616 3.945923,3.94593 3.945925,3.94592 -1.196162,6.61448 2.473521,2.47353 6.614881,-1.19577 3.9459273,3.94593 3.9459199,3.94592 -1.1961548,6.61449 3.2099205,3.20992 3.75525159,0.19027 3.94632081,3.94632 3.9459262,3.94593 0.1906696,3.75565 4.8363789,4.83637 13.869045,-1.47599 3.836059,-3.83606 0.318045,-7.35487 -70.041834,-70.041829 7.015329,-7.015329 -1.208497,-1.237155 c 0,0 -9.500746,0.738085 -12.094118,-3.941942 -2.593371,-4.680024 1.21072,-8.826172 1.747462,-14.52345 0.536739,-5.697276 -1.320623,-11.499498 -5.412756,-15.599791 z m -33.362617,3.149415 c 3.092191,3.092291 3.092191,8.105804 0,11.198095 -3.092294,3.092191 -8.105804,3.092191 -11.198095,0 -3.092191,-3.092291 -3.092191,-8.105801 0,-11.198095 3.092291,-3.092191 8.105804,-3.092191 11.198095,0 z"
         inkscape:label="shape" /></clipPath><clipPath
       clipPathUnits="userSpaceOnUse"
       id="clipPath22580-0"><path
         id="path22582-6"
         style="display:inline;fill:#8f5321;fill-opacity:1;stroke:none;stroke-width:0.544674;stroke-linecap:round;stroke-linejoin:round;stroke-dasharray:none;paint-order:stroke fill markers"
         d="m -156.30539,2.3729171 c -7.00426,-6.9959341 -18.21143,-7.4272311 -25.73269,-0.990362 -6.40758,-5.9456299 -16.36893,-5.762969 -22.55422,0.41358 -6.17655,6.1852871 -6.35921,16.1466439 -0.41358,22.5542179 -6.43687,7.52126 -6.00554,18.728407 0.99036,25.732687 4.1003,4.092131 9.64553,5.16323 15.59979,5.412761 5.95427,0.249529 10.07748,-4.56089 14.52345,-1.747462 4.44598,2.813431 3.94195,12.09411 3.94195,12.09411 l 1.23676,1.208892 7.01572,-7.015721 18.38499,18.38498 6.61449,-1.196149 3.94592,3.945919 3.94592,3.94593 -1.19616,6.61448 2.47352,2.473521 6.61488,-1.195761 3.94593,3.945919 3.94592,3.945921 -1.19615,6.61449 3.20992,3.20992 3.75525,0.19027 3.94632,3.94632 3.94593,3.94593 0.190669,3.75565 4.83638,4.83637 13.869046,-1.47599 3.836058,-3.83605 0.318045,-7.35487 -70.041838,-70.04184 7.01533,-7.015326 -1.2085,-1.237155 c 0,0 -9.50074,0.738084 -12.09412,-3.941942 -2.59337,-4.680024 1.21072,-8.826173 1.74747,-14.523449 0.53673,-5.697278 -1.32063,-11.4994979 -5.41276,-15.5997909 z m -33.36262,3.1494141 c 3.09219,3.0922928 3.09219,8.1058028 0,11.1980948 -3.09229,3.09219 -8.1058,3.09219 -11.19809,0 -3.09219,-3.092291 -3.09219,-8.105802 0,-11.198094 3.09229,-3.0921909 8.1058,-3.0921899 11.19809,-8e-7 z" /></clipPath><clipPath
       clipPathUnits="userSpaceOnUse"
       id="clipPath25737"><path
         id="path25739"
         style="display:inline;fill:#8f5321;fill-opacity:1;stroke:none;stroke-width:0.544674;stroke-linecap:round;stroke-linejoin:round;stroke-dasharray:none;paint-order:stroke fill markers"
         d="m -58.402707,14.071743 c -7.004261,-6.9959346 -18.211432,-7.4272316 -25.732692,-0.990362 -6.407579,-5.9456304 -16.368931,-5.7629695 -22.554221,0.41358 -6.17655,6.185287 -6.35921,16.146643 -0.41358,22.554219 -6.43687,7.521258 -6.00554,18.728407 0.99036,25.732687 4.1003,4.092133 9.645532,5.163233 15.599792,5.412759 5.95427,0.249526 10.077479,-4.560893 14.52345,-1.747465 4.445979,2.813434 3.94195,12.094118 3.94195,12.094118 l 1.236761,1.208892 7.015718,-7.015726 18.384991,18.384985 6.614485,-1.196157 3.945925,3.945927 3.945924,3.945919 -1.196163,6.614481 2.473521,2.47352 6.614882,-1.19576 3.945928,3.94593 3.945919,3.94592 -1.196154,6.61449 3.20992,3.20992 3.7552519,0.19027 3.94632,3.94632 3.9459271,3.94593 0.190669,3.75565 4.8363791,4.83637 13.8690459,-1.47599 3.836058,-3.83606 0.318045,-7.35487 -70.041832,-70.04183 7.015329,-7.015332 -1.2085,-1.237152 c 0,0 -9.50074,0.738082 -12.09412,-3.941942 -2.593369,-4.680027 1.21072,-8.826175 1.74747,-14.52345 0.536731,-5.697278 -1.320631,-11.499498 -5.412759,-15.599791 z m -33.362622,3.149414 c 3.092191,3.092293 3.092191,8.105803 0,11.198096 -3.092289,3.092188 -8.105799,3.092188 -11.198091,0 -3.09219,-3.092292 -3.09219,-8.105803 0,-11.198095 3.092292,-3.092191 8.105802,-3.09219 11.198091,-10e-7 z" /></clipPath><filter
       style="color-interpolation-filters:sRGB;"
       inkscape:label="Noise Fill"
       id="filter13"
       x="-0.012549399"
       y="-0.0026178677"
       width="1.0250988"
       height="1.0052357"><feTurbulence
         type="fractalNoise"
         baseFrequency="100 0.2"
         numOctaves="4"
         seed="2"
         result="turbulence"
         id="feTurbulence12" /><feComposite
         in="SourceGraphic"
         in2="turbulence"
         operator="in"
         result="composite1"
         id="feComposite12" /><feColorMatrix
         values="1 0 0 0 0 0 1 0 0 0 0 0 1 0 0 0 0 0 4 -1 "
         result="color"
         id="feColorMatrix12" /><feFlood
         flood-opacity="1"
         flood-color="rgb(255,255,255)"
         result="flood"
         id="feFlood12" /><feMerge
         result="merge"
         id="feMerge13"><feMergeNode
           in="flood"
           id="feMergeNode12" /><feMergeNode
           in="color"
           id="feMergeNode13" /></feMerge><feComposite
         in2="SourceGraphic"
         operator="in"
         result="composite2"
         id="feComposite13" /></filter><linearGradient
       inkscape:collect="always"
       xlink:href="#linearGradient17"
       id="linearGradient9"
       x1="191.07144"
       y1="31.068405"
       x2="191.07144"
       y2="57.617966"
       gradientUnits="userSpaceOnUse"
       gradientTransform="matrix(0.8699187,0,0,0.8699187,-149.26369,38.022042)" /><linearGradient
       inkscape:collect="always"
       xlink:href="#linearGradient21"
       id="linearGradient10"
       gradientUnits="userSpaceOnUse"
       gradientTransform="matrix(0.8699187,0,0,0.8699187,-89.958756,38.022042)"
       x1="191.07144"
       y1="31.068405"
       x2="191.07144"
       y2="57.617966" /><linearGradient
       inkscape:collect="always"
       xlink:href="#linearGradient19"
       id="linearGradient11"
       gradientUnits="userSpaceOnUse"
       gradientTransform="matrix(0.8699187,0,0,0.8699187,-119.61122,38.022042)"
       x1="191.07144"
       y1="31.068405"
       x2="191.07144"
       y2="57.617966" /><linearGradient
       inkscape:collect="always"
       xlink:href="#linearGradient25"
       id="linearGradient13"
       gradientUnits="userSpaceOnUse"
       gradientTransform="matrix(0.8699187,0,0,0.8699187,-119.61122,67.674514)"
       x1="191.07144"
       y1="31.068405"
       x2="191.07144"
       y2="57.617966" /><linearGradient
       inkscape:collect="always"
       xlink:href="#linearGradient23"
       id="linearGradient14"
       gradientUnits="userSpaceOnUse"
       gradientTransform="matrix(0.8699187,0,0,0.8699187,-89.958755,67.674514)"
       x1="191.07144"
       y1="31.068405"
       x2="191.07144"
       y2="57.617966" /><linearGradient
       inkscape:collect="always"
       xlink:href="#linearGradient1"
       id="linearGradient15"
       gradientUnits="userSpaceOnUse"
       gradientTransform="matrix(0.8699187,0,0,0.8699187,-149.26369,67.674514)"
       x1="191.07144"
       y1="31.068405"
       x2="191.07144"
       y2="57.617966" /><radialGradient
       inkscape:collect="always"
       xlink:href="#linearGradient16"
       id="radialGradient17"
       cx="167.8344"
       cy="78.336243"
       fx="167.8344"
       fy="78.336243"
       r="15.202749"
       gradientUnits="userSpaceOnUse"
       gradientTransform="matrix(0.73524434,0,0,0.73524434,-106.44636,19.000731)" /></defs><g
     inkscape:label="Layer 1"
     inkscape:groupmode="layer"
     id="layer1"><g
       id="g3"
       transform="matrix(1.6589901,0,0,1.6589901,-5.6174271e-7,12.755956)"
       style="display:inline;stroke-width:0.602776"><g
         id="g1"
         style="stroke-width:1.20599"
         transform="matrix(0.49981916,0,0,0.49981916,-5.7619124,-0.71535559)"><path
           id="path5990"
           style="display:inline;fill:#999999;stroke:none;stroke-width:5.80116;stroke-linecap:round;stroke-linejoin:round;stroke-dasharray:none;stroke-opacity:1;paint-order:stroke fill markers"
           d="m 84.49665,37.300048 c -18.468023,-6e-5 -33.439363,14.971279 -33.439302,33.439303 0.0078,0.43746 0.02415,0.874729 0.04909,1.311547 -0.03093,0.129212 -0.04909,0.263603 -0.04909,0.40256 V 95.59313 l 8.046537,-6.329329 c 0.002,-3.163447 0.003,-2.848387 5.17e-4,-3.729488 H 55.511856 V 82.36138 l 3.592546,-1.663981 c -0.0017,-0.638336 -0.01163,-0.779629 5.17e-4,-5.136637 0.0301,-2.25522 -0.01744,-4.598853 0.125573,-6.795968 0.263321,-3.958813 1.520185,-7.831016 3.572909,-11.221537 1.432943,-2.370199 3.261131,-4.505471 5.41724,-6.304525 4.265557,-3.512415 9.835307,-5.73471 15.442468,-5.902999 0.351,-0.01 0.701968,-0.01279 1.053166,-0.0083 5.267973,0.06861 10.525017,1.768128 14.775842,4.892208 5.539623,4.051663 9.429823,10.568251 10.215393,17.46095 0.28367,14.237716 0.16453,28.48103 0.19017,42.721429 l 6.32365,8.07237 c 0.94956,0 1.71462,-0.76506 1.71462,-1.71462 V 72.453458 c 0,-0.138957 -0.0187,-0.273348 -0.0496,-0.40256 0.0251,-0.436815 0.0417,-0.874083 0.0496,-1.311547 6e-5,-18.468023 -14.97128,-33.439362 -33.4393,-33.439303 z"
           clip-path="url(#clipPath26)"
           transform="matrix(1.3565801,0,0,1.3565801,-46.892734,-49.169274)" /><path
           id="path5990-6-2"
           clip-path="url(#clipPath25)"
           style="display:inline;mix-blend-mode:normal;fill:#333333;fill-opacity:1;stroke:none;stroke-width:6.88515;stroke-linecap:round;stroke-linejoin:round;stroke-dasharray:none;stroke-opacity:1;paint-order:stroke fill markers;filter:url(#filter27)"
           transform="matrix(1.1430033,0,0,1.1430033,310.97942,-58.39017)"
           d="m -211.88112,56.586147 c -0.69916,-0.01798 -1.39955,-0.01666 -2.10064,0.0037 -7.04477,0.2401 -14.0069,2.488701 -19.85148,6.431323 -4.71843,3.16125 -8.80052,7.559712 -11.61821,12.57009 -2.76943,4.878187 -4.53575,10.511139 -4.80969,16.205879 -0.22055,6.148945 -0.0774,12.304011 -0.12266,18.455551 0.004,12.80311 -0.0175,25.60645 0.0429,38.40946 l 5.27521,-8.87483 c 0.0133,-10.06742 -0.0226,-20.13557 -0.003,-30.20317 h -2.1448 v -3.76582 l 2.15339,-0.99726 c 0.0176,-4.18214 0.0475,-8.363761 0.10181,-12.545558 0.47479,-9.679037 5.61453,-19.028325 13.61887,-24.516428 5.48127,-3.819384 12.13756,-5.970136 18.8303,-5.901411 v -6.13e-4 c 10.46753,0.08371 20.82088,5.546443 26.5036,14.390438 3.36401,5.035189 5.41628,11.033707 5.27888,17.126479 0.24575,15.978023 0.1752,31.959513 0.17051,47.938073 -0.2126,1.59859 -2.0597,2.25617 -3.47449,2.01416 l 8.78711,5.31451 c 0.01,-8.36098 0.002,-16.75016 0.006,-25.12178 -0.0134,-10.58645 0.0198,-21.17534 -0.0736,-31.76041 -0.57205,-9.178932 -4.6715,-18.206935 -11.39251,-24.618854 -5.16245,-5.046806 -11.89874,-8.52704 -18.94437,-9.876368 -2.0506,-0.397233 -4.13574,-0.623174 -6.23322,-0.67711 z"
           sodipodi:nodetypes="ccccccccccccccccccccccccccc" /><path
           style="display:inline;opacity:0.4;mix-blend-mode:darken;fill:none;stroke:#000000;stroke-width:0.902211;stroke-linecap:butt;stroke-linejoin:miter;stroke-dasharray:none;stroke-opacity:1;filter:url(#filter36136)"
           d="M 33.605422,69.980087 C 29.924842,65.958627 31.554451,60.153648 32.47717,55.4039 34.129032,49.177163 30.321456,42.898433 32.236193,36.665476 c 0.684113,-4.808129 4.229914,-8.238384 6.495651,-12.27572 3.581447,-5.326515 9.367549,-9.430791 15.867894,-10.013022 0.920768,-3.740083 4.214815,-5.7086048 7.832264,-4.6563079 5.206384,-0.5179559 11.215417,-1.5769464 15.648593,1.9551109 3.729449,2.076757 8.579493,0.301267 12.052979,3.045956 4.210381,1.901827 0.990243,10.162298 7.449446,9.222981 3.93477,1.523143 3.26563,6.456949 5.60185,9.270212 2.35942,2.835583 -1.21488,5.756765 0.18395,9.068168 0.28207,6.268871 -0.3679,12.616814 1.09332,18.791122 1.55208,3.638765 0.075,6.982824 -1.72089,10.158808 1.19842,3.163608 1.80409,6.677369 2.42004,10.115755 l 0.14634,0.514542"
           id="path35771"
           transform="matrix(1.1430033,0,0,1.1430033,-9.6858292,-4.0122451)"
           clip-path="url(#clipPath29)" /><path
           style="display:inline;mix-blend-mode:normal;fill:none;stroke:#ffffff;stroke-width:1.44354;stroke-linecap:butt;stroke-linejoin:miter;stroke-dasharray:none;stroke-opacity:1;filter:url(#filter17825)"
           d="m -97.213105,18.806237 c 1.016442,-20.9985709 -15.776855,-40.723175 -29.821285,-46.014686 -14.04443,-5.291512 -32.21054,-0.757542 -39.848,9.106204 -7.63746,9.8637464 -15.72277,18.04034315 -16.65018,35.259977"
           id="path16710"
           clip-path="url(#clipPath17075)"
           transform="matrix(1.1430033,0,0,1.1430033,227.27296,37.006532)"
           sodipodi:nodetypes="czzc" /><path
           style="color:#000000;display:inline;mix-blend-mode:normal;fill:#ffffff;stroke-width:0.888993;-inkscape-stroke:none;filter:url(#filter34)"
           d="m 81.138672,40.257812 c -8.225483,0.760942 -14.500647,6.796395 -20.53261,11.824026 -6.424409,7.618143 -8.733373,17.874883 -8.650095,27.646997 1.784043,5.467974 0.585008,12.147679 0,17.930968 3.499028,-2.988718 4.394902,-8.860862 3.070425,-12.506439 -2.429451,-5.749855 -1.504437,-12.191316 -0.140523,-18.081969 1.902149,-7.372714 5.938105,-14.464607 12.431745,-18.696865 4.635294,-3.173747 9.605926,-6.71818 15.502329,-6.512436 6.163234,0.188092 12.503546,1.626793 17.748217,4.967225 4.67086,2.890215 7.44436,7.958912 8.37228,13.267577 2.09194,10.313751 -1.77902,21.111585 0.96079,31.36182 0.75094,5.275584 -1.30479,10.702684 0,15.955944 2.35374,2.69344 1.87394,6.49943 4.52645,8.94493 2.05113,-0.14302 -0.96367,-4.26191 -1.39917,-5.87217 -1.89389,-3.58585 -3.19391,-7.86741 -1.51436,-11.802095 1.71415,-7.776627 -1.70859,-14.764113 0,-22.551263 0.43531,-8.743845 0.10181,-19.303372 -5.54396,-26.567804 -5.87786,-7.322071 -15.96405,-9.122985 -24.831518,-9.308446 z"
           id="path31"
           clip-path="url(#clipPath34)"
           sodipodi:nodetypes="cccccccccccccccccc"
           transform="matrix(1.3565801,0,0,1.3565801,-46.892734,-49.169274)" /></g><g
         id="g2"
         style="stroke-width:1.20599"
         transform="matrix(0.49981916,0,0,0.49981916,-5.7619124,-0.71535559)"><path
           id="rect792"
           style="display:inline;fill:url(#linearGradient1286);fill-opacity:1;stroke:none;stroke-width:0.34374;stroke-linecap:round;stroke-linejoin:round;paint-order:stroke fill markers"
           d="m 14.213328,61.348338 c 0,0 35.661958,-2.419356 53.520263,-2.419356 17.858307,0 53.520259,2.419356 53.520259,2.419356 1.28683,0.05817 2.32517,1.037029 2.32517,2.325177 v 67.678515 c 0,1.28815 -1.03702,2.32518 -2.32517,2.32518 H 14.213328 c -1.288147,0 -2.325177,-1.03703 -2.325177,-2.32518 V 63.673515 c 0,-1.288148 1.03703,-2.325177 2.325177,-2.325177 z"
           sodipodi:nodetypes="szssssssss"
           inkscape:label="lock-house" /><path
           id="path37698"
           style="display:inline;mix-blend-mode:overlay;fill:url(#linearGradient37706);fill-opacity:1;stroke:none;stroke-width:0.34374;stroke-linecap:round;stroke-linejoin:round;paint-order:stroke fill markers"
           d="m 14.213328,61.348338 c 0,0 35.661958,-2.419356 53.520263,-2.419356 17.858307,0 53.520259,2.419356 53.520259,2.419356 1.28683,0.05817 2.32517,1.037029 2.32517,2.325177 v 67.678515 c 0,1.28815 -1.03702,2.32518 -2.32517,2.32518 H 14.213328 c -1.288147,0 -2.325177,-1.03703 -2.325177,-2.32518 V 63.673515 c 0,-1.288148 1.03703,-2.325177 2.325177,-2.325177 z"
           sodipodi:nodetypes="szssssssss"
           inkscape:label="shadow" /><path
           id="path1716-3"
           clip-path="none"
           style="display:inline;opacity:0.1;mix-blend-mode:normal;fill:none;stroke:#593118;stroke-width:4.15015;stroke-linecap:round;stroke-linejoin:miter;stroke-dasharray:none;stroke-opacity:1;filter:url(#filter18)"
           d="m -9.7470393,10.500834 c -2.2521017,-0.165315 -8.0530267,-3.119944 -7.0665017,6.359678 2.737446,-0.94852 12.057892,16.631091 15.0071786,15.679976 1.52662124,-0.49232 -2.9255353,-15.768049 -1.8641883,-20.422885 -1.0317647,-8.7651591 -4.2792017,-1.473445 -6.0764886,-1.616769 z m -11.2029897,2.615217 c -2.534457,0.135423 -7.143462,-9.5208858 -9.681584,-9.6074758 -3.476113,-0.118581 -4.880872,9.3306198 -8.342791,9.7625638 2.625322,0.660132 -2.192158,13.060118 0.53507,13.17455 3.371575,0.141468 14.289467,-12.181956 17.489305,-13.329642 z m -20.838934,-0.09568 c -5.819086,-0.839763 -11.790467,-6.7383863 -17.708524,-6.8729699 -5.14456,-0.1169933 -10.241081,5.3623369 -15.259519,6.7214799 5.068678,0.02329 4.120382,11.503485 9.18906,11.526775 5.92067,0.02721 17.858313,-11.402491 23.778983,-11.375285 z m -34.390032,16.714678 c -2.562249,-2.145512 -4.094742,18.410202 1.421989,17.881565 3.694061,-0.816643 10.597656,-2.000336 12.862527,-4.031503 -2.836576,-0.830205 -11.289572,-13.725382 -14.284516,-13.850062 z m 16.681508,14.628669 c 5.265747,2.165884 11.130293,1.541005 16.584804,0.544999 -2.606757,-1.500712 -6.765269,-14.716046 -10.701386,-15.171864 -1.283911,0.01176 -4.599461,14.636046 -5.883418,14.626865 z m 20.84016,-0.09568 c 5.728049,-0.02632 12.830289,5.662779 18.558338,5.636456 5.260481,-0.02417 9.146771,-5.763773 14.4072527,-5.787947 -5.1289247,-1.407644 -15.2136677,-14.534142 -20.4739457,-14.38263 -5.803277,0.167153 -6.78545,13.728184 -12.491645,14.534121 z"
           transform="matrix(1.1430033,0,0,1.1430033,111.66962,66.075394)"
           sodipodi:nodetypes="ccscccscscccscscccccccccscscs"
           inkscape:label="tex" /><path
           style="display:inline;opacity:0.24;mix-blend-mode:normal;fill:none;stroke:#ff0100;stroke-width:5.41327;stroke-linecap:butt;stroke-linejoin:miter;stroke-dasharray:none;stroke-opacity:1;filter:url(#filter19)"
           d="m -163.07787,-1.2402508 c 12.15497,1.77480065 6.04004,-22.3478422 35.39354,-27.2324592 29.353505,-4.884617 1.74348,12.287663 4.45003,16.913245 2.70655,4.6255825 -3.22108,18.6246701 -12.25672,21.2187714 -12.35356,6.9244506 -21.67245,8.9951086 -27.58685,22.4907286 59.29193,-4.779497 71.040338,-50.884777 83.664259,-55.687233 21.618424,13.293389 -17.514191,4.650186 7.618929,36.76247 6.367103,10.308598 -3.972522,20.31516 -12.224938,23.384648"
           id="path25123-5"
           clip-path="url(#clipPath18)"
           transform="matrix(1.1430033,0,0,1.1430033,198.28643,91.831773)"
           sodipodi:nodetypes="czzccccc"
           inkscape:label="tex" /><path
           id="rect792-6"
           style="display:inline;opacity:0.2;mix-blend-mode:normal;fill:#000000;fill-opacity:1;stroke:#000000;stroke-width:0.300735;stroke-linecap:round;stroke-linejoin:round;paint-order:stroke fill markers;filter:url(#filter21638)"
           d="m -139.62217,38.13368 c -15.62401,0 -46.82402,2.116667 -46.82402,2.116667 -1.12699,0 -2.0345,0.907001 -2.0345,2.033984 V 101.4957 c 0,1.12699 0.90751,2.03398 2.0345,2.03398 h 93.648034 c 1.126989,0 2.034501,-0.90699 2.034501,-2.03398 V 42.284331 c 0,-1.126983 -0.908662,-1.983094 -2.034501,-2.033984 0,0 -31.200014,-2.116667 -46.824014,-2.116667 z m -0.98495,1.047482 c 0.70311,-0.0026 1.40575,-0.0026 2.10891,0 14.75805,0.200004 29.48625,1.096543 44.209705,2.016931 0.81826,0.108185 2.088602,-0.168899 2.422592,0.835608 0.0496,19.535056 0.02191,39.075706 0.02791,58.612959 0.10515,0.67902 0.009,1.69944 -0.849561,1.79834 -30.883446,0.009 -61.766716,0.0118 -92.650156,0.008 -0.72575,0.0408 -1.83202,0.16922 -2.07842,-0.74414 -0.0347,-11.90164 -0.0147,-23.807287 -0.0227,-35.710481 0.014,-7.942859 -0.0263,-15.890674 0.0207,-23.830586 0.0822,-0.99153 1.27168,-0.902431 2.00349,-0.954981 14.21891,-0.865335 28.44633,-1.739341 42.69817,-2.015381 v -5.16e-4 c 0.70312,-0.0078 1.40632,-0.0129 2.10944,-0.0155 z"
           clip-path="url(#clipPath20906)"
           transform="matrix(1.1430033,0,0,1.1430033,227.32194,15.342058)"
           inkscape:label="edge" /><path
           style="color:#000000;display:inline;opacity:0.6;mix-blend-mode:normal;fill:#000000;stroke:none;stroke-width:0.470425;stroke-linecap:round;stroke-linejoin:round;stroke-dasharray:none;stroke-opacity:1;paint-order:markers stroke fill;filter:url(#filter22)"
           d="m 181.84375,85.703125 c -13.18809,0 -39.4707,1.783203 -39.4707,1.783203 h 0.0176 c -1.09156,0 -1.97851,0.88696 -1.97851,1.978516 v 49.888676 c 0,1.09156 0.88695,1.97851 1.97851,1.97851 h 78.90625 c 1.09157,0 1.97852,-0.88695 1.97852,-1.97851 V 89.464844 c 0,-1.091736 -0.89086,-1.929879 -1.9668,-1.978516 -0.0104,-7.04e-4 -26.27935,-1.783203 -39.46484,-1.783203 z m 0,0.529297 c 13.1403,0 39.43359,1.78125 39.43359,1.78125 a 0.26460978,0.26460978 0 0 0 0.008,0.002 c 0.82124,0.03712 1.46093,0.641847 1.46093,1.449219 v 49.888679 c 0,0.80755 -0.64166,1.44921 -1.44922,1.44921 H 142.3908 c -0.80755,0 -1.44921,-0.64166 -1.44921,-1.44921 V 89.464844 c 0,-0.807552 0.64166,-1.449219 1.44921,-1.449219 a 0.26460978,0.26460978 0 0 0 0.0195,-0.002 c 0,0 26.29329,-1.78125 39.43359,-1.78125 z"
           id="path20"
           clip-path="url(#clipPath21)"
           inkscape:label="edge-fine"
           transform="matrix(1.3565801,0,0,1.3565801,-178.95232,-57.692783)" /></g></g><path
       id="path37895"
       style="display:inline;fill:none;fill-opacity:1;stroke:#3eff00;stroke-width:1.5875;stroke-linecap:round;stroke-linejoin:round;stroke-dasharray:1.5875, 4.7625;stroke-dashoffset:0;stroke-opacity:1;paint-order:stroke fill markers"
       d="m 134.40091,27.30549 c -0.006,-7.520207 -5.79274,-13.771821 -13.29036,-14.354304 -0.24812,-6.6355275 -5.697,-11.8881611 -12.33717,-11.8928509 -6.64017,0.00473 -12.089047,5.2573245 -12.337185,11.8928549 -7.497611,0.582479 -13.28586,6.834092 -13.290356,14.3543 0.0046,4.400565 2.407675,7.954534 5.47197,11.286902 3.064304,3.332367 7.863016,2.963238 8.739934,6.862627 0.876921,3.899395 -4.378945,8.613779 -4.378945,8.613779 l 0.01496,1.313684 h 7.537002 v 19.751013 l 4.19552,2.910453 v 4.23911 4.23911 l -4.19552,2.91046 v 2.657301 l 4.19553,2.91088 -1e-5,4.239124 v 4.239107 l -4.19551,2.91045 -1e-5,3.44842 1.91495,2.11934 v 4.23954 l -1e-5,4.23912 -1.91494,2.11975 1e-5,5.19572 8.24261,6.65695 h 4.12108 l 4.12152,-3.77984 V 55.382482 h 7.53657 l 0.0155,-1.313684 c 0,0 -5.4998,-4.706867 -4.37895,-8.613778 1.12086,-3.906909 5.39132,-4.090644 8.73994,-6.862628 3.3486,-2.771985 5.46758,-6.886337 5.47196,-11.286902 z M 114.78845,11.076453 c -4e-5,3.321998 -2.69307,6.015009 -6.01507,6.015063 -3.32199,-5.8e-5 -6.01501,-2.693068 -6.01507,-6.015064 6e-5,-3.3219988 2.69308,-6.0150079 6.01507,-6.0150642 3.322,5.96e-5 6.01503,2.6930689 6.01507,6.0150652 z" /><circle
       style="fill:#000000;fill-opacity:1;stroke:url(#linearGradient9);stroke-width:1.5875;stroke-linecap:round;stroke-linejoin:round;stroke-miterlimit:12;stroke-dasharray:none;paint-order:markers stroke fill"
       id="path1"
       cx="16.952927"
       cy="76.597008"
       r="10.857485" /><circle
       style="fill:#000000;fill-opacity:1;stroke:url(#linearGradient10);stroke-width:1.5875;stroke-linecap:round;stroke-linejoin:round;stroke-miterlimit:12;stroke-dasharray:none;paint-order:markers stroke fill"
       id="circle9"
       cx="76.257866"
       cy="76.597008"
       r="10.857485" /><circle
       style="fill:#000000;fill-opacity:1;stroke:url(#linearGradient11);stroke-width:1.5875;stroke-linecap:round;stroke-linejoin:round;stroke-miterlimit:12;stroke-dasharray:none;paint-order:markers stroke fill"
       id="circle10"
       cx="46.605396"
       cy="76.597008"
       r="10.857485" /><circle
       style="fill:#000000;fill-opacity:1;stroke:url(#linearGradient15);stroke-width:1.5875;stroke-linecap:round;stroke-linejoin:round;stroke-miterlimit:12;stroke-dasharray:none;paint-order:markers stroke fill"
       id="circle11"
       cx="16.952927"
       cy="106.24947"
       r="10.857485" /><circle
       style="fill:#000000;fill-opacity:1;stroke:url(#linearGradient14);stroke-width:1.5875;stroke-linecap:round;stroke-linejoin:round;stroke-miterlimit:12;stroke-dasharray:none;paint-order:markers stroke fill"
       id="circle12"
       cx="76.257866"
       cy="106.24947"
       r="10.857485" /><circle
       style="fill:#000000;fill-opacity:1;stroke:url(#linearGradient13);stroke-width:1.5875;stroke-linecap:round;stroke-linejoin:round;stroke-miterlimit:12;stroke-dasharray:none;paint-order:markers stroke fill"
       id="circle13"
       cx="46.605396"
       cy="106.24947"
       r="10.857485" /><circle
       style="display:inline;opacity:1;fill:url(#radialGradient17);stroke:#ffffff;stroke-width:0.264583;stroke-linecap:round;stroke-linejoin:round;stroke-miterlimit:12;stroke-dasharray:none;stroke-opacity:0.6;paint-order:markers stroke fill"
       id="path15"
       cx="16.952927"
       cy="76.597008"
       r="10.594136" /><path
       style="fill:none;stroke:#44ff00;stroke-width:1.58749998;stroke-linecap:round;stroke-linejoin:round;stroke-dasharray:none;stroke-opacity:1;stroke-dashoffset:0;marker-end:url(#ConcaveTriangle)"
       d="m 16.952927,76.597009 h 29.652469 29.65247 V 106.24947 H 46.605396 16.952927"
       id="path17"
       sodipodi:nodetypes="cccccc" /></g></svg>
