<?xml version="1.0" encoding="UTF-8" standalone="no"?>
<!-- Created with Inkscape (http://www.inkscape.org/) -->

<svg
   width="512"
   height="512"
   viewBox="0 0 135.46666 135.46667"
   version="1.1"
   id="svg5"
   inkscape:version="1.4.2 (ebf0e940d0, 2025-05-08)"
   xml:space="preserve"
   sodipodi:docname="multipart-encrypted.svg"
   xmlns:inkscape="http://www.inkscape.org/namespaces/inkscape"
   xmlns:sodipodi="http://sodipodi.sourceforge.net/DTD/sodipodi-0.dtd"
   xmlns:xlink="http://www.w3.org/1999/xlink"
   xmlns="http://www.w3.org/2000/svg"
   xmlns:svg="http://www.w3.org/2000/svg"><sodipodi:namedview
     id="namedview7"
     pagecolor="#242424"
     bordercolor="#666666"
     borderopacity="1"
     inkscape:showpageshadow="0"
     inkscape:pageopacity="0"
     inkscape:pagecheckerboard="1"
     inkscape:deskcolor="#000000"
     inkscape:document-units="px"
     showgrid="false"
     inkscape:zoom="0.921875"
     inkscape:cx="413.83051"
     inkscape:cy="414.37288"
     inkscape:window-width="3256"
     inkscape:window-height="1080"
     inkscape:window-x="1864"
     inkscape:window-y="0"
     inkscape:window-maximized="0"
     inkscape:current-layer="layer1" /><defs
     id="defs2"><inkscape:path-effect
       effect="fillet_chamfer"
       id="path-effect6"
       is_visible="true"
       lpeversion="1"
       nodesatellites_param="F,0,0,1,0,0,0,1 @ F,0,0,1,0,0,0,1 @ F,0,0,1,0,0,0,1 @ F,0,1,1,0,2.1166666,0,1 @ F,0,0,1,0,0,0,1 @ F,0,0,1,0,0,0,1 @ F,0,1,1,0,2.1166666,0,1"
       radius="8"
       unit="px"
       method="auto"
       mode="F"
       chamfer_steps="1"
       flexible="false"
       use_knot_distance="true"
       apply_no_radius="true"
       apply_with_radius="true"
       only_selected="true"
       hide_knots="false" /><inkscape:path-effect
       effect="powermask"
       id="path-effect169"
       is_visible="true"
       lpeversion="1"
       uri="#mask-powermask-path-effect169"
       invert="false"
       hide_mask="false"
       background="true"
       background_color="#ffffffff" /><inkscape:path-effect
       effect="powermask"
       id="path-effect168"
       is_visible="true"
       lpeversion="1"
       uri="#mask-powermask-path-effect168"
       invert="false"
       hide_mask="false"
       background="true"
       background_color="#ffffffff" /><inkscape:path-effect
       effect="powermask"
       id="path-effect167"
       is_visible="true"
       lpeversion="1"
       uri="#mask-powermask-path-effect167"
       invert="false"
       hide_mask="false"
       background="true"
       background_color="#ffffffff" /><inkscape:path-effect
       effect="powermask"
       id="path-effect166"
       is_visible="true"
       lpeversion="1"
       uri="#mask-powermask-path-effect166"
       invert="false"
       hide_mask="false"
       background="true"
       background_color="#ffffffff" /><linearGradient
       inkscape:collect="always"
       id="linearGradient3"><stop
         style="stop-color:#660700;stop-opacity:1;"
         offset="0"
         id="stop1" /><stop
         style="stop-color:#cc0008;stop-opacity:1;"
         offset="0.49571416"
         id="stop2" /><stop
         style="stop-color:#660000;stop-opacity:1;"
         offset="1"
         id="stop3" /></linearGradient><linearGradient
       inkscape:collect="always"
       id="linearGradient1284"><stop
         style="stop-color:#ffb600;stop-opacity:1;"
         offset="0"
         id="stop1280" /><stop
         style="stop-color:#ffff00;stop-opacity:1;"
         offset="0.49571416"
         id="stop1288" /><stop
         style="stop-color:#ffad00;stop-opacity:1;"
         offset="1"
         id="stop1282" /></linearGradient><linearGradient
       inkscape:collect="always"
       xlink:href="#linearGradient3"
       id="linearGradient1286"
       x1="10.704506"
       y1="93.050919"
       x2="108.68611"
       y2="93.050919"
       gradientUnits="userSpaceOnUse"
       gradientTransform="matrix(0.94777267,0,0,0.94777267,-9.9721801,3.2321219)" /><clipPath
       clipPathUnits="userSpaceOnUse"
       id="clipPath13413"><path
         id="path13415"
         style="fill:#ffff00;stroke:none;stroke-width:6.05745;stroke-linecap:round;stroke-linejoin:round;stroke-dasharray:none;stroke-opacity:1;paint-order:stroke fill markers"
         d="m -212.8129,52.337104 a 39.6875,39.6875 0 0 0 -39.6875,39.6875 39.6875,39.6875 0 0 0 0.0584,1.556496 c -0.0367,0.153355 -0.0584,0.313084 -0.0584,0.478007 v 52.585413 c 0,1.12699 0.90752,2.0345 2.0345,2.0345 h 75.306 c 1.12699,0 2.0345,-0.90751 2.0345,-2.0345 V 94.059107 c 0,-0.164923 -0.0217,-0.324652 -0.0584,-0.478007 a 39.6875,39.6875 0 0 0 0.0584,-1.556496 39.6875,39.6875 0 0 0 -39.6875,-39.6875 z m 0.26097,9.527585 c 6.25233,0.08143 12.49179,2.098524 17.53691,5.806363 6.57475,4.808749 11.19146,12.542631 12.12381,20.723283 0.33668,16.898145 0.1954,33.803075 0.22583,50.704395 -20.09504,0.0111 -40.19018,0.0225 -60.28521,0.0336 0.009,-13.79517 -0.0369,-27.59048 0.002,-41.385585 0.0357,-2.676623 -0.0209,-5.457995 0.14883,-8.065656 0.31252,-4.698551 1.80427,-9.293985 4.24056,-13.318051 1.70071,-2.81309 3.87059,-5.347525 6.42959,-7.482747 5.06261,-4.168741 11.67317,-6.806039 18.32808,-7.005773 0.41658,-0.01185 0.83323,-0.01524 1.25005,-0.0098 z" /></clipPath><clipPath
       clipPathUnits="userSpaceOnUse"
       id="clipPath17075"><path
         id="path17077"
         style="fill:#ffff00;stroke:none;stroke-width:6.05745;stroke-linecap:round;stroke-linejoin:round;stroke-dasharray:none;stroke-opacity:1;paint-order:stroke fill markers"
         d="m -139.57909,-31.124334 a 39.6875,39.6875 0 0 0 -39.6875,39.6874999 39.6875,39.6875 0 0 0 0.0584,1.5564941 c -0.0367,0.153356 -0.0584,0.313085 -0.0584,0.478007 v 52.58542 c 0,1.12699 0.90752,2.0345 2.0345,2.0345 h 75.306 c 1.12699,0 2.034501,-0.90751 2.034501,-2.0345 v -52.58542 c 0,-0.164922 -0.0217,-0.324651 -0.0584,-0.478007 a 39.6875,39.6875 0 0 0 0.0584,-1.5564941 39.6875,39.6875 0 0 0 -39.687501,-39.6874999 z m 0.26097,9.527584 c 6.25233,0.08143 12.49179,2.098524 17.53691,5.806364 6.57475,4.808749 11.19146,12.5426291 12.12381,20.7232821 0.33668,16.8981519 0.1954,33.8030749 0.22583,50.7043979 -20.09504,0.01109 -40.19018,0.02249 -60.28521,0.03359 0.009,-13.795166 -0.0369,-27.590474 0.002,-41.385586 0.0357,-2.676625 -0.0209,-5.4579949 0.14883,-8.0656581 0.31252,-4.6985489 1.80427,-9.2939829 4.24056,-13.3180498 1.70071,-2.8130902 3.87059,-5.3475251 6.42959,-7.4827471 5.06261,-4.16874 11.67317,-6.80604 18.32808,-7.005774 0.41658,-0.01185 0.83323,-0.01525 1.25005,-0.0098 z" /></clipPath><clipPath
       clipPathUnits="userSpaceOnUse"
       id="clipPath20906"><path
         id="path20908"
         style="fill:url(#linearGradient20910);fill-opacity:1;stroke:#000000;stroke-width:0.264583;stroke-linecap:round;stroke-linejoin:round;paint-order:stroke fill markers"
         d="m -186.44641,40.250178 c 0,0 31.20022,-2.116666 46.82424,-2.116666 15.62402,0 46.824237,2.116666 46.824237,2.116666 1.125842,0.05089 2.034273,0.907283 2.034273,2.034268 v 59.211134 c 0,1.12699 -0.90728,2.03427 -2.034273,2.03427 h -93.648477 c -1.12699,0 -2.03427,-0.90728 -2.03427,-2.03427 V 42.284446 c 0,-1.126985 0.90728,-2.034268 2.03427,-2.034268 z"
         sodipodi:nodetypes="szssssssss" /></clipPath><linearGradient
       inkscape:collect="always"
       xlink:href="#linearGradient1284"
       id="linearGradient20910"
       gradientUnits="userSpaceOnUse"
       gradientTransform="translate(-199.31748,-22.219236)"
       x1="10.704506"
       y1="93.050919"
       x2="108.68611"
       y2="93.050919" /><linearGradient
       inkscape:collect="always"
       xlink:href="#linearGradient1284"
       id="linearGradient26262"
       gradientUnits="userSpaceOnUse"
       gradientTransform="translate(-173.91467,-89.139177)"
       x1="10.704506"
       y1="93.050919"
       x2="108.68611"
       y2="93.050919" /><clipPath
       clipPathUnits="userSpaceOnUse"
       id="clipPath26258-9"><path
         id="path26260-2"
         style="fill:url(#linearGradient26262);fill-opacity:1;stroke:#000000;stroke-width:0.264583;stroke-linecap:round;stroke-linejoin:round;paint-order:stroke fill markers"
         d="m -161.0436,-26.669764 c 0,0 31.20022,-2.116667 46.82424,-2.116667 15.624022,0 46.824239,2.116667 46.824239,2.116667 1.125842,0.05089 2.03427,0.907285 2.03427,2.03427 v 59.211138 c 0,1.12699 -0.90728,2.03427 -2.03427,2.03427 H -161.0436 c -1.12698,0 -2.03427,-0.90728 -2.03427,-2.03427 v -59.211138 c 0,-1.126985 0.90729,-2.03427 2.03427,-2.03427 z"
         sodipodi:nodetypes="szssssssss" /></clipPath><clipPath
       clipPathUnits="userSpaceOnUse"
       id="clipPath20906-3"><path
         id="path20908-6"
         style="fill:url(#linearGradient20910);fill-opacity:1;stroke:#000000;stroke-width:0.264583;stroke-linecap:round;stroke-linejoin:round;paint-order:stroke fill markers"
         d="m -186.44641,40.250178 c 0,0 31.20022,-2.116666 46.82424,-2.116666 15.62402,0 46.824237,2.116666 46.824237,2.116666 1.125842,0.05089 2.034273,0.907283 2.034273,2.034268 v 59.211134 c 0,1.12699 -0.90728,2.03427 -2.034273,2.03427 h -93.648477 c -1.12699,0 -2.03427,-0.90728 -2.03427,-2.03427 V 42.284446 c 0,-1.126985 0.90728,-2.034268 2.03427,-2.034268 z"
         sodipodi:nodetypes="szssssssss" /></clipPath><clipPath
       clipPathUnits="userSpaceOnUse"
       id="clipPath32973"><path
         id="path32975"
         style="fill:url(#linearGradient32977);fill-opacity:1;stroke:#000000;stroke-width:0.264583;stroke-linecap:round;stroke-linejoin:round;paint-order:stroke fill markers"
         d="m -158.4074,97.544603 c 0,0 31.20022,-2.116669 46.82424,-2.116669 15.624022,0 46.824239,2.116669 46.824239,2.116669 1.125842,0.05089 2.03427,0.907283 2.03427,2.034268 v 59.211139 c 0,1.12699 -0.90728,2.03427 -2.03427,2.03427 H -158.4074 c -1.12698,0 -2.03427,-0.90728 -2.03427,-2.03427 V 99.578871 c 0,-1.126985 0.90729,-2.034268 2.03427,-2.034268 z"
         sodipodi:nodetypes="szssssssss" /></clipPath><linearGradient
       inkscape:collect="always"
       xlink:href="#linearGradient1284"
       id="linearGradient32977"
       gradientUnits="userSpaceOnUse"
       gradientTransform="translate(-171.27847,35.075188)"
       x1="10.704506"
       y1="93.050919"
       x2="108.68611"
       y2="93.050919" /><clipPath
       clipPathUnits="userSpaceOnUse"
       id="clipPath18"><path
         id="path18"
         style="fill:url(#linearGradient26262);fill-opacity:1;stroke:none;stroke-width:0.264583;stroke-linecap:round;stroke-linejoin:round;paint-order:stroke fill markers"
         d="m -161.0436,-26.669765 c 0,0 31.20022,-2.116667 46.82424,-2.116667 15.624021,0 46.824242,2.116667 46.824242,2.116667 1.125839,0.05089 2.034271,0.907285 2.034271,2.03427 V 34.57565 c 0,1.126988 -0.907283,2.034271 -2.034271,2.034271 H -161.0436 c -1.12698,0 -2.03427,-0.907283 -2.03427,-2.034271 v -59.211145 c 0,-1.126985 0.90729,-2.03427 2.03427,-2.03427 z"
         sodipodi:nodetypes="szssssssss" /></clipPath><clipPath
       clipPathUnits="userSpaceOnUse"
       id="clipPath21"><path
         style="color:#000000;fill:url(#linearGradient22);stroke-width:0.999998;stroke-linecap:round;stroke-linejoin:round;-inkscape-stroke:none;paint-order:markers stroke fill"
         d="m 142.39145,87.750625 c 0,0 26.28813,-1.783421 39.45234,-1.783421 13.16421,0 39.45234,1.783421 39.45234,1.783421 0.94859,0.04288 1.714,0.764445 1.714,1.714 V 139.3537 c 0,0.94956 -0.76444,1.714 -1.714,1.714 h -78.90468 c -0.94956,0 -1.714,-0.76444 -1.714,-1.714 V 89.464625 c 0,-0.949555 0.76444,-1.714 1.714,-1.714 z"
         id="path22" /></clipPath><linearGradient
       inkscape:collect="always"
       xlink:href="#linearGradient1284"
       id="linearGradient22"
       gradientUnits="userSpaceOnUse"
       gradientTransform="matrix(0.84256236,0,0,0.84256236,131.54677,35.116251)"
       x1="10.704506"
       y1="93.050919"
       x2="108.68611"
       y2="93.050919" /><clipPath
       clipPathUnits="userSpaceOnUse"
       id="clipPath25"><path
         id="path26"
         style="display:inline;fill:#999999;stroke:none;stroke-width:6.52554;stroke-linecap:round;stroke-linejoin:round;stroke-dasharray:none;stroke-opacity:1;paint-order:stroke fill markers"
         d="m -212.81276,52.337032 c -21.91888,-7.2e-5 -39.6877,17.768748 -39.68763,39.68763 0.009,0.519202 0.0287,1.038177 0.0583,1.556618 -0.0367,0.153356 -0.0583,0.312857 -0.0583,0.477779 v 27.463451 l 9.55008,-7.512 c 0.003,-3.75455 0.004,-3.38062 6.3e-4,-4.42636 h -4.26384 v -3.76582 l 4.26384,-1.9749 c -0.002,-0.75761 -0.0138,-0.92531 6.3e-4,-6.096447 0.0357,-2.676622 -0.0207,-5.458178 0.14903,-8.065834 0.31253,-4.698543 1.80424,-9.294286 4.24053,-13.318347 1.7007,-2.813083 3.87049,-5.347343 6.42949,-7.482563 5.0626,-4.16873 11.67309,-6.806272 18.32798,-7.006009 0.41658,-0.01187 0.83313,-0.01517 1.24995,-0.0099 6.25233,0.08143 12.49168,2.098513 17.5368,5.806347 6.57473,4.808739 11.19184,12.542991 12.12419,20.723628 0.33668,16.898115 0.19528,33.802875 0.22571,50.704175 l 7.50526,9.58074 c 1.12699,0 2.03501,-0.90802 2.03501,-2.03501 V 94.059059 c 0,-0.164922 -0.0222,-0.324423 -0.0589,-0.477779 0.0298,-0.518438 0.0495,-1.03741 0.0589,-1.556618 7e-5,-21.918879 -17.76875,-39.687699 -39.68763,-39.68763 z" /></clipPath><clipPath
       clipPathUnits="userSpaceOnUse"
       id="clipPath26"><path
         id="path27"
         style="display:inline;fill:#999999;stroke:none;stroke-width:6.52555;stroke-linecap:round;stroke-linejoin:round;stroke-dasharray:none;stroke-opacity:1;paint-order:stroke fill markers"
         d="m 84.49665,37.300048 c -18.468023,-6.1e-5 -33.439362,14.971278 -33.439301,33.439303 0.0078,0.437459 0.02416,0.874728 0.04909,1.311548 -0.03093,0.129211 -0.04909,0.263601 -0.04909,0.402558 v 23.139672 l 8.046535,-6.329328 c 0.0021,-3.163448 0.003,-2.848388 5.29e-4,-3.729487 H 55.511866 V 82.36138 l 3.592547,-1.66398 c -0.0016,-0.638337 -0.01164,-0.779629 5.29e-4,-5.136637 0.0301,-2.255221 -0.01744,-4.598855 0.125574,-6.795968 0.263321,-3.958815 1.520185,-7.831016 3.572909,-11.221538 1.432944,-2.370198 3.26113,-4.50547 5.417241,-6.304526 4.265557,-3.512415 9.835306,-5.734708 15.442467,-5.902999 0.350999,-0.01 0.701968,-0.01278 1.053166,-0.0083 5.267973,0.06861 10.525016,1.768128 14.775841,4.892209 5.53962,4.051663 9.42982,10.568252 10.21539,17.46095 0.28367,14.237715 0.16453,28.48103 0.19018,42.721429 l 6.32365,8.07237 c 0.94955,0 1.71461,-0.76506 1.71461,-1.71462 V 72.453457 c 0,-0.138957 -0.0187,-0.273347 -0.0496,-0.402558 0.0251,-0.436817 0.0417,-0.874083 0.0496,-1.311548 7e-5,-18.468022 -14.97128,-33.439362 -33.439297,-33.439303 z" /></clipPath><clipPath
       clipPathUnits="userSpaceOnUse"
       id="clipPath29"><path
         id="path30"
         style="display:inline;fill:#999999;stroke:none;stroke-width:5.49818;stroke-linecap:round;stroke-linejoin:round;stroke-dasharray:none;stroke-opacity:1;paint-order:stroke fill markers"
         d="m 84.49665,37.300048 c -18.468023,-6e-5 -33.439363,14.971279 -33.439302,33.439303 0.0078,0.43746 0.02415,0.874729 0.04909,1.311547 -0.03093,0.129212 -0.04909,0.263603 -0.04909,0.40256 V 95.59313 l 8.046537,-6.329329 c 0.002,-3.163447 0.003,-2.848387 5.17e-4,-3.729488 H 55.511856 V 82.36138 l 3.592546,-1.663981 c -0.0017,-0.638336 -0.01163,-0.779629 5.17e-4,-5.136637 0.0301,-2.25522 -0.01744,-4.598853 0.125573,-6.795968 0.263321,-3.958813 1.520185,-7.831016 3.572909,-11.221537 1.432943,-2.370199 3.261131,-4.505471 5.41724,-6.304525 4.265557,-3.512415 9.835307,-5.73471 15.442468,-5.902999 0.351,-0.01 0.701968,-0.01279 1.053166,-0.0083 5.267973,0.06861 10.525017,1.768128 14.775842,4.892208 5.539623,4.051663 9.429823,10.568251 10.215393,17.46095 0.28367,14.237716 0.16453,28.48103 0.19017,42.721429 l 6.32365,8.07237 c 0.94956,0 1.71462,-0.76506 1.71462,-1.71462 V 72.453458 c 0,-0.138957 -0.0187,-0.273348 -0.0496,-0.40256 0.0251,-0.436815 0.0417,-0.874083 0.0496,-1.311547 6e-5,-18.468023 -14.97128,-33.439362 -33.4393,-33.439303 z"
         clip-path="url(#clipPath26)"
         transform="matrix(1.1868558,0,0,1.1868558,-32.551877,-39.50734)" /></clipPath><clipPath
       clipPathUnits="userSpaceOnUse"
       id="clipPath32"><path
         id="path33"
         style="display:inline;fill:#999999;stroke:none;stroke-width:6.52554;stroke-linecap:round;stroke-linejoin:round;stroke-dasharray:none;stroke-opacity:1;paint-order:stroke fill markers"
         d="m 84.49665,37.300048 c -18.468023,-6e-5 -33.439363,14.971279 -33.439302,33.439303 0.0078,0.43746 0.02415,0.874729 0.04909,1.311547 -0.03093,0.129212 -0.04909,0.263603 -0.04909,0.40256 V 95.59313 l 8.046537,-6.329329 c 0.002,-3.163447 0.003,-2.848387 5.17e-4,-3.729488 H 55.511856 V 82.36138 l 3.592546,-1.663981 c -0.0017,-0.638336 -0.01163,-0.779629 5.17e-4,-5.136637 0.0301,-2.25522 -0.01744,-4.598853 0.125573,-6.795968 0.263321,-3.958813 1.520185,-7.831016 3.572909,-11.221537 1.432943,-2.370199 3.261131,-4.505471 5.41724,-6.304525 4.265557,-3.512415 9.835307,-5.73471 15.442468,-5.902999 0.351,-0.01 0.701968,-0.01279 1.053166,-0.0083 5.267973,0.06861 10.525017,1.768128 14.775842,4.892208 5.539623,4.051663 9.429823,10.568251 10.215393,17.46095 0.28367,14.237716 0.16453,28.48103 0.19017,42.721429 l 6.32365,8.07237 c 0.94956,0 1.71462,-0.76506 1.71462,-1.71462 V 72.453458 c 0,-0.138957 -0.0187,-0.273348 -0.0496,-0.40256 0.0251,-0.436815 0.0417,-0.874083 0.0496,-1.311547 6e-5,-18.468023 -14.97128,-33.439362 -33.4393,-33.439303 z"
         clip-path="url(#clipPath26)" /></clipPath><clipPath
       clipPathUnits="userSpaceOnUse"
       id="clipPath34"><path
         id="path35"
         style="display:inline;fill:#999999;stroke:none;stroke-width:6.52554;stroke-linecap:round;stroke-linejoin:round;stroke-dasharray:none;stroke-opacity:1;paint-order:stroke fill markers"
         d="m 84.49665,37.300048 c -18.468023,-6e-5 -33.439363,14.971279 -33.439302,33.439303 0.0078,0.43746 0.02415,0.874729 0.04909,1.311547 -0.03093,0.129212 -0.04909,0.263603 -0.04909,0.40256 V 95.59313 l 8.046537,-6.329329 c 0.002,-3.163447 0.003,-2.848387 5.17e-4,-3.729488 H 55.511856 V 82.36138 l 3.592546,-1.663981 c -0.0017,-0.638336 -0.01163,-0.779629 5.17e-4,-5.136637 0.0301,-2.25522 -0.01744,-4.598853 0.125573,-6.795968 0.263321,-3.958813 1.520185,-7.831016 3.572909,-11.221537 1.432943,-2.370199 3.261131,-4.505471 5.41724,-6.304525 4.265557,-3.512415 9.835307,-5.73471 15.442468,-5.902999 0.351,-0.01 0.701968,-0.01279 1.053166,-0.0083 5.267973,0.06861 10.525017,1.768128 14.775842,4.892208 5.539623,4.051663 9.429823,10.568251 10.215393,17.46095 0.28367,14.237716 0.16453,28.48103 0.19017,42.721429 l 6.32365,8.07237 c 0.94956,0 1.71462,-0.76506 1.71462,-1.71462 V 72.453458 c 0,-0.138957 -0.0187,-0.273348 -0.0496,-0.40256 0.0251,-0.436815 0.0417,-0.874083 0.0496,-1.311547 6e-5,-18.468023 -14.97128,-33.439362 -33.4393,-33.439303 z"
         clip-path="url(#clipPath26)" /></clipPath><linearGradient
       id="linearGradient8"><stop
         id="stop7"
         style="stop-color:#e11f21;stop-opacity:1;"
         offset="0" /><stop
         id="stop8"
         style="stop-color:#ffb15d;stop-opacity:1"
         offset="1" /></linearGradient><linearGradient
       x1="64"
       y1="60"
       x2="62"
       y2="7"
       id="linearGradient3724"
       xlink:href="#linearGradient3763"
       gradientUnits="userSpaceOnUse"
       gradientTransform="matrix(1.231823,0,0,1.231823,-157.81615,7.1708322)" /><linearGradient
       id="linearGradient3763"><stop
         id="stop3765"
         style="stop-color:#ff7700;stop-opacity:1"
         offset="0" /><stop
         id="stop3767"
         style="stop-color:#ffb15d;stop-opacity:1"
         offset="1" /></linearGradient><clipPath
       id="clipPath3716"><path
         d="m -118,6 c -3.324,0 -6,2.676 -6,6 v 72 c 0,3.324 2.676,6 6,6 h 72 c 3.324,0 6,-2.676 6,-6 V 12 c 0,-3.324 -2.676,-6 -6,-6 z m 42.53125,9.4375 c 0,0 6.742786,6.784262 -6.4375,17.1875 -10.569721,8.348428 -2.406258,13.091934 0,18.53125 -6.170339,-5.566626 -10.691951,-10.439321 -7.65625,-15 4.457852,-6.693689 16.821977,-9.970594 14.09375,-20.71875 z m 8.125,13.34375 c -14.197756,8.233791 -11.545654,10.600025 -8.125,15.40625 3.661158,5.156183 -4.3125,9.25 -4.3125,9.25 0,0 3.954627,-3.226804 0.8125,-6.84375 -10.643745,-12.265213 11.625144,-17.8125 11.625,-17.8125 z m 3.59375,21.875 c 6.598371,-0.338475 10.187997,8.957958 -4.59375,12.84375 -1.44e-4,0 0.16215,-0.192534 0.21875,-0.34375 12.215092,-6.34575 6.567276,-12.446464 2.625,-11.625 -0.964039,0.201189 -1.40625,0.375 -1.40625,0.375 0,0 0.378571,-0.570411 1.0625,-0.8125 0.731171,-0.256932 1.41116,-0.40248 2.09375,-0.4375 z m -26.40625,0.625 c 0.519115,-0.01358 0.8125,0 0.8125,0 0,0 -11.82939,2.822105 -4.1875,3.84375 3.227673,0.431901 9.630792,0.315402 15.625,-0.1875 4.897387,-0.41102 9.8125,-1.25 9.8125,-1.25 0,0 -1.719415,0.709928 -2.96875,1.5625 -12.017218,3.160705 -35.24553,1.700167 -28.5625,-1.53125 4.236968,-2.049735 7.911406,-2.39676 9.46875,-2.4375 z m -1.9375,7.40625 c 0,0 -2.823626,2.059601 1.4375,2.5 5.511613,0.569005 9.87295,0.637302 17.40625,-0.8125 0,0 1.050477,1.047931 2.6875,1.625 -15.407629,4.506818 -32.55548,0.346355 -21.53125,-3.3125 z m 1.53125,7.125 c 0,0 -2.476708,1.449143 1.78125,1.9375 5.159208,0.589021 7.816289,0.511854 13.5,-0.5625 0,0 1.474997,0.907513 3.5625,1.71875 -12.745505,5.460632 -28.85383,-0.296827 -18.84375,-3.09375 z m -6.46875,4.71875 c 0.614519,0.02364 1.14585,0.147618 1.46875,0.375 0,0 -0.852618,-0.05906 -2.28125,0.25 -1.370161,0.295952 -5.69609,1.676512 -3.375,2.6875 6.461397,2.810602 29.707491,2.165274 37.0625,-0.0625 3.867966,-1.173437 2.03125,-2.71875 2.03125,-2.71875 6.739204,3.040884 -14.609199,9.149373 -40.59375,4.9375 -8.33743,-1.353006 1.38587,-5.63424 5.6875,-5.46875 z M -58,74.375 c -0.426144,5.547328 -18.43383,6.718207 -30.15625,5.96875 -7.704246,-0.495845 -9.1875,-1.71875 -9.1875,-1.71875 7.318718,1.208433 19.649918,1.415115 29.65625,-0.46875 C -58.817879,76.487689 -58,74.375 -58,74.375 Z"
         inkscape:connector-curvature="0"
         id="path3718"
         style="display:inline;fill:#ff00ff;fill-opacity:1;fill-rule:nonzero;stroke:none" /></clipPath><filter
       style="color-interpolation-filters:sRGB"
       x="-0.17383916"
       y="-0.13525651"
       width="1.3476862"
       height="1.26344"
       id="filter3720"><feGaussianBlur
         id="feGaussianBlur3722"
         stdDeviation="3.3931715" /></filter><clipPath
       clipPathUnits="userSpaceOnUse"
       id="clipPath5236"><path
         id="path5238"
         style="display:inline;fill:#3d2b1c;fill-opacity:1;stroke:none;stroke-width:0.544674;stroke-linecap:round;stroke-linejoin:round;stroke-dasharray:none;paint-order:stroke fill markers"
         d="m -49.172392,42.832634 c -7.004256,-6.995933 -18.211432,-7.42723 -25.732692,-0.990362 -6.407574,-5.945629 -16.36893,-5.762969 -22.554216,0.413581 -6.17655,6.185286 -6.35921,16.146645 -0.413581,22.554218 -6.436869,7.52126 -6.005549,18.72841 0.990362,25.732687 4.100296,4.092133 9.645528,5.163233 15.599791,5.412759 5.954263,0.249526 10.077479,-4.560893 14.52345,-1.747462 4.445974,2.813431 3.941943,12.094115 3.941943,12.094115 l 1.23676,1.20889 7.015726,-7.01572 18.384986,18.38498 6.614488,-1.19616 3.945923,3.94593 3.945925,3.94592 -1.196162,6.61448 2.473521,2.47353 6.614881,-1.19577 3.9459273,3.94593 3.9459199,3.94592 -1.1961548,6.61449 3.2099205,3.20992 3.75525159,0.19027 3.94632081,3.94632 3.9459262,3.94593 0.1906696,3.75565 4.8363789,4.83637 13.869045,-1.47599 3.836059,-3.83606 0.318045,-7.35487 -70.041834,-70.041829 7.015329,-7.015329 -1.208497,-1.237155 c 0,0 -9.500746,0.738085 -12.094118,-3.941942 -2.593371,-4.680024 1.21072,-8.826172 1.747462,-14.52345 0.536739,-5.697276 -1.320623,-11.499498 -5.412756,-15.599791 z m -33.362617,3.149415 c 3.092191,3.092291 3.092191,8.105804 0,11.198095 -3.092294,3.092191 -8.105804,3.092191 -11.198095,0 -3.092191,-3.092291 -3.092191,-8.105801 0,-11.198095 3.092291,-3.092191 8.105804,-3.092191 11.198095,0 z"
         inkscape:label="shape" /></clipPath><clipPath
       clipPathUnits="userSpaceOnUse"
       id="clipPath22580"><path
         id="path22582"
         style="display:inline;fill:#8f5321;fill-opacity:1;stroke:none;stroke-width:0.544674;stroke-linecap:round;stroke-linejoin:round;stroke-dasharray:none;paint-order:stroke fill markers"
         d="m -156.30539,2.3729171 c -7.00426,-6.9959341 -18.21143,-7.4272311 -25.73269,-0.990362 -6.40758,-5.9456299 -16.36893,-5.762969 -22.55422,0.41358 -6.17655,6.1852871 -6.35921,16.1466439 -0.41358,22.5542179 -6.43687,7.52126 -6.00554,18.728407 0.99036,25.732687 4.1003,4.092131 9.64553,5.16323 15.59979,5.412761 5.95427,0.249529 10.07748,-4.56089 14.52345,-1.747462 4.44598,2.813431 3.94195,12.09411 3.94195,12.09411 l 1.23676,1.208892 7.01572,-7.015721 18.38499,18.38498 6.61449,-1.196149 3.94592,3.945919 3.94592,3.94593 -1.19616,6.61448 2.47352,2.473521 6.61488,-1.195761 3.94593,3.945919 3.94592,3.945921 -1.19615,6.61449 3.20992,3.20992 3.75525,0.19027 3.94632,3.94632 3.94593,3.94593 0.190669,3.75565 4.83638,4.83637 13.869046,-1.47599 3.836058,-3.83605 0.318045,-7.35487 -70.041838,-70.04184 7.01533,-7.015326 -1.2085,-1.237155 c 0,0 -9.50074,0.738084 -12.09412,-3.941942 -2.59337,-4.680024 1.21072,-8.826173 1.74747,-14.523449 0.53673,-5.697278 -1.32063,-11.4994979 -5.41276,-15.5997909 z m -33.36262,3.1494141 c 3.09219,3.0922928 3.09219,8.1058028 0,11.1980948 -3.09229,3.09219 -8.1058,3.09219 -11.19809,0 -3.09219,-3.092291 -3.09219,-8.105802 0,-11.198094 3.09229,-3.0921909 8.1058,-3.0921899 11.19809,-8e-7 z" /></clipPath><clipPath
       clipPathUnits="userSpaceOnUse"
       id="clipPath3721"><path
         id="path3723"
         style="display:inline;fill:#8f5321;fill-opacity:1;stroke:none;stroke-width:0.544674;stroke-linecap:round;stroke-linejoin:round;stroke-dasharray:none;paint-order:stroke fill markers"
         d="M -58.402707,14.071743 C -65.406969,7.0758084 -76.614139,6.6445114 -84.1354,13.081381 c -6.407578,-5.9456304 -16.36893,-5.7629695 -22.55422,0.41358 -6.17655,6.185287 -6.35921,16.146643 -0.41358,22.554219 -6.43687,7.521257 -6.00554,18.728407 0.99036,25.732687 4.1003,4.092133 9.645532,5.163232 15.599792,5.412758 5.95427,0.249526 10.077479,-4.560893 14.52345,-1.747464 4.445979,2.813433 3.94195,12.094117 3.94195,12.094117 l 1.23676,1.208892 7.015718,-7.015726 18.384991,18.384986 6.614486,-1.196158 3.945924,3.945927 3.945925,3.945919 -1.196163,6.614482 2.473521,2.47352 6.614882,-1.19576 3.945927,3.94593 3.945919,3.94592 -1.196152,6.61449 3.20992,3.20992 3.7552495,0.19027 3.9463213,3.94632 3.9459297,3.94593 0.1906693,3.75565 4.8363796,4.83637 13.8690406,-1.47599 3.836061,-3.83606 0.318048,-7.35487 -70.041836,-70.04183 7.015329,-7.015332 -1.2085,-1.237152 c 0,0 -9.500741,0.738082 -12.09412,-3.941943 -2.59337,-4.680026 1.21072,-8.826174 1.747469,-14.523449 0.536731,-5.697278 -1.32063,-11.499498 -5.412758,-15.599791 z m -33.362622,3.149414 c 3.092191,3.092293 3.092191,8.105803 0,11.198096 -3.092289,3.092188 -8.105799,3.092188 -11.198091,0 -3.09219,-3.092292 -3.09219,-8.105803 0,-11.198095 3.092292,-3.092191 8.105802,-3.09219 11.198091,-10e-7 z" /></clipPath><filter
       style="color-interpolation-filters:sRGB"
       inkscape:label="Noise Fill"
       id="filter54"
       x="0"
       y="0"
       width="1"
       height="1"><feTurbulence
         type="fractalNoise"
         baseFrequency="1 44"
         numOctaves="4"
         seed="2"
         result="turbulence"
         id="feTurbulence52" /><feComposite
         in="SourceGraphic"
         in2="turbulence"
         operator="in"
         result="composite1"
         id="feComposite53" /><feColorMatrix
         values="1 0 0 0 0 0 1 0 0 0 0 0 1 0 0 0 0 0 4 -1 "
         result="color"
         id="feColorMatrix53" /><feFlood
         flood-opacity="1"
         flood-color="rgb(0,0,0)"
         result="flood"
         id="feFlood53" /><feMerge
         result="merge"
         id="feMerge54"><feMergeNode
           in="flood"
           id="feMergeNode53" /><feMergeNode
           in="color"
           id="feMergeNode54" /></feMerge><feComposite
         in2="SourceGraphic"
         operator="in"
         result="composite2"
         id="feComposite54" /></filter><filter
       style="color-interpolation-filters:sRGB"
       inkscape:label="Noise Fill"
       id="filter52"
       x="0"
       y="0"
       width="1"
       height="1"><feTurbulence
         type="fractalNoise"
         baseFrequency="22 1"
         numOctaves="4"
         seed="2"
         result="turbulence"
         id="feTurbulence51" /><feComposite
         in="SourceGraphic"
         in2="turbulence"
         operator="in"
         result="composite1"
         id="feComposite51" /><feColorMatrix
         values="1 0 0 0 0 0 1 0 0 0 0 0 1 0 0 0 0 0 4 -1 "
         result="color"
         id="feColorMatrix51" /><feFlood
         flood-opacity="1"
         flood-color="rgb(0,0,0)"
         result="flood"
         id="feFlood51" /><feMerge
         result="merge"
         id="feMerge52"><feMergeNode
           in="flood"
           id="feMergeNode51" /><feMergeNode
           in="color"
           id="feMergeNode52" /></feMerge><feComposite
         in2="SourceGraphic"
         operator="in"
         result="composite2"
         id="feComposite52" /></filter><clipPath
       clipPathUnits="userSpaceOnUse"
       id="clipPath48"><path
         id="path48"
         style="opacity:0.382333;fill:#c83737;fill-opacity:1;stroke:none;stroke-width:0.04;stroke-linecap:round;stroke-linejoin:round;paint-order:fill markers stroke"
         d="M 32.296219,20.798213 A 32.296002,32.296002 0 0 0 -1e-6,53.094434 a 32.296002,32.296002 0 0 0 32.29622,32.295698 32.296002,32.296002 0 0 0 29.52429,-19.27324 h 9.63972 l -0.01085,-2.64583 2.842209,-5.29167 h 2.842721 l 2.842199,5.29167 h 2.842201 2.84221 l 2.84272,-2.645839 2.8422,2.645839 h 2.842209 l 2.842721,-5.29167 h 2.842199 l 2.842202,5.29167 h 2.84272 2.84221 l 2.8422,-5.29167 h 2.84272 2.84221 l 5.68492,5.29167 h 2.8422 2.84221 l 2.84272,-5.29167 2.8422,5.29167 h 2.84221 2.84272 l 2.8422,-5.29167 5.68492,5.29167 h 2.84221 l 2.8422,-2.645839 2.84272,2.645839 h 2.84221 2.8422 l 12.69432,-10.215399 v -5.386239 l -8.99015,-7.79849 H 61.83912 A 32.296002,32.296002 0 0 0 32.296219,20.798213 Z m -16.42122,21.71288 A 10.583333,10.583333 0 0 1 26.458329,53.094434 10.583333,10.583333 0 0 1 15.874999,63.677762 10.583333,10.583333 0 0 1 5.2916589,53.094434 10.583333,10.583333 0 0 1 15.874999,42.511093 Z" /></clipPath><clipPath
       clipPathUnits="userSpaceOnUse"
       id="clipPath11"><path
         id="path11-5"
         style="opacity:1;fill:url(#linearGradient12);fill-opacity:1;stroke:none;stroke-width:0.04;stroke-linecap:round;stroke-linejoin:round;paint-order:fill markers stroke"
         d="m -37.963033,25.132832 a 27.961346,27.961346 0 0 0 -27.9616,27.961084 27.961346,27.961346 0 0 0 27.9616,27.9616 27.961346,27.961346 0 0 0 27.961085,-27.9616 27.961346,27.961346 0 0 0 -27.961085,-27.961084 z m -16.421219,17.378266 a 10.583333,10.583333 0 0 1 10.583334,10.583334 10.583333,10.583333 0 0 1 -10.583334,10.583333 10.583333,10.583333 0 0 1 -10.583333,-10.583333 10.583333,10.583333 0 0 1 10.583333,-10.583334 z" /></clipPath><linearGradient
       inkscape:collect="always"
       xlink:href="#linearGradient5"
       id="linearGradient12"
       gradientUnits="userSpaceOnUse"
       gradientTransform="translate(-70.259251)"
       x1="32.296219"
       y1="25.132832"
       x2="32.296219"
       y2="81.055519" /><linearGradient
       id="linearGradient5"
       inkscape:collect="always"><stop
         style="stop-color:#7a7a7a;stop-opacity:1;"
         offset="0.01"
         id="stop5" /><stop
         style="stop-color:#999999;stop-opacity:1;"
         offset="1"
         id="stop6" /></linearGradient><clipPath
       clipPathUnits="userSpaceOnUse"
       id="clipPath56"><path
         id="path57"
         style="display:inline;fill:#ff2a2a;fill-opacity:1;stroke:none;stroke-width:0.04;stroke-linecap:round;stroke-linejoin:round;paint-order:fill markers stroke"
         d="m 13.063791,100.94391 h 82.584535 l 6.783284,5.88376 v 4.06401 l -9.578117,7.70779 -2.144596,1e-5 -2.144596,-1e-5 -2.144596,-1.9963 -2.144596,1.9963 -2.144596,1e-5 -4.289198,-3.99262 -2.144598,3.99261 -2.144594,1e-5 H 71.40753 l -2.144599,-3.99262 -2.144593,3.99261 h -2.144596 l -2.144594,1e-5 -4.289192,-3.99262 H 56.39536 54.250767 l -2.144596,3.99262 -2.144604,-1e-5 H 47.81697 l -2.14459,-3.99261 h -2.144588 l -2.144594,3.99262 -2.144599,-1e-5 -2.144593,-1.9963 -2.144596,1.9963 -2.144596,1e-5 -2.144599,-1e-5 -2.144596,-3.99261 h -2.144595 l -2.144596,3.99262 0.0083,1.9963 H 13.063755 v -4.91296 l -2e-6,-4.91298 v -4.91296 z"
         sodipodi:nodetypes="ccccccccccccccccccccccccccccccccccccccccc" /></clipPath><clipPath
       clipPathUnits="userSpaceOnUse"
       id="clipPath15"><path
         id="path15-6"
         style="display:inline;fill:#ff2a2a;fill-opacity:1;stroke:none;stroke-width:0.04;stroke-linecap:round;stroke-linejoin:round;paint-order:fill markers stroke"
         d="m 13.063791,100.94391 h 82.584535 l 6.783284,5.88376 v 4.06401 l -9.578117,7.70779 -2.144596,1e-5 -2.144596,-1e-5 -2.144596,-1.9963 -2.144596,1.9963 -2.144596,1e-5 -4.289198,-3.99262 -2.144598,3.99261 -2.144594,1e-5 H 71.40753 l -2.144599,-3.99262 -2.144593,3.99261 h -2.144596 l -2.144594,1e-5 -4.289192,-3.99262 H 56.39536 54.250767 l -2.144596,3.99262 -2.144604,-1e-5 H 47.81697 l -2.14459,-3.99261 h -2.144588 l -2.144594,3.99262 -2.144599,-1e-5 -2.144593,-1.9963 -2.144596,1.9963 -2.144596,1e-5 -2.144599,-1e-5 -2.144596,-3.99261 h -2.144595 l -2.144596,3.99262 0.0083,1.9963 H 13.063755 v -4.91296 l -2e-6,-4.91298 v -4.91296 z"
         sodipodi:nodetypes="ccccccccccccccccccccccccccccccccccccccccc" /></clipPath><clipPath
       clipPathUnits="userSpaceOnUse"
       id="clipPath16"><path
         id="path16-3"
         style="display:inline;fill:#ff2a2a;fill-opacity:1;stroke:none;stroke-width:0.04;stroke-linecap:round;stroke-linejoin:round;paint-order:fill markers stroke"
         d="m 13.063791,100.94391 h 82.584535 l 6.783284,5.88376 v 4.06401 l -9.578117,7.70779 -2.144596,1e-5 -2.144596,-1e-5 -2.144596,-1.9963 -2.144596,1.9963 -2.144596,1e-5 -4.289198,-3.99262 -2.144598,3.99261 -2.144594,1e-5 H 71.40753 l -2.144599,-3.99262 -2.144593,3.99261 h -2.144596 l -2.144594,1e-5 -4.289192,-3.99262 H 56.39536 54.250767 l -2.144596,3.99262 -2.144604,-1e-5 H 47.81697 l -2.14459,-3.99261 h -2.144588 l -2.144594,3.99262 -2.144599,-1e-5 -2.144593,-1.9963 -2.144596,1.9963 -2.144596,1e-5 -2.144599,-1e-5 -2.144596,-3.99261 h -2.144595 l -2.144596,3.99262 0.0083,1.9963 H 13.063755 v -4.91296 l -2e-6,-4.91298 v -4.91296 z"
         sodipodi:nodetypes="ccccccccccccccccccccccccccccccccccccccccc" /></clipPath><clipPath
       clipPathUnits="userSpaceOnUse"
       id="clipPath5236-3"><path
         id="path5238-6"
         style="display:inline;fill:#3d2b1c;fill-opacity:1;stroke:none;stroke-width:0.544674;stroke-linecap:round;stroke-linejoin:round;stroke-dasharray:none;paint-order:stroke fill markers"
         d="m -49.172392,42.832634 c -7.004256,-6.995933 -18.211432,-7.42723 -25.732692,-0.990362 -6.407574,-5.945629 -16.36893,-5.762969 -22.554216,0.413581 -6.17655,6.185286 -6.35921,16.146645 -0.413581,22.554218 -6.436869,7.52126 -6.005549,18.72841 0.990362,25.732687 4.100296,4.092133 9.645528,5.163233 15.599791,5.412759 5.954263,0.249526 10.077479,-4.560893 14.52345,-1.747462 4.445974,2.813431 3.941943,12.094115 3.941943,12.094115 l 1.23676,1.20889 7.015726,-7.01572 18.384986,18.38498 6.614488,-1.19616 3.945923,3.94593 3.945925,3.94592 -1.196162,6.61448 2.473521,2.47353 6.614881,-1.19577 3.9459273,3.94593 3.9459199,3.94592 -1.1961548,6.61449 3.2099205,3.20992 3.75525159,0.19027 3.94632081,3.94632 3.9459262,3.94593 0.1906696,3.75565 4.8363789,4.83637 13.869045,-1.47599 3.836059,-3.83606 0.318045,-7.35487 -70.041834,-70.041829 7.015329,-7.015329 -1.208497,-1.237155 c 0,0 -9.500746,0.738085 -12.094118,-3.941942 -2.593371,-4.680024 1.21072,-8.826172 1.747462,-14.52345 0.536739,-5.697276 -1.320623,-11.499498 -5.412756,-15.599791 z m -33.362617,3.149415 c 3.092191,3.092291 3.092191,8.105804 0,11.198095 -3.092294,3.092191 -8.105804,3.092191 -11.198095,0 -3.092191,-3.092291 -3.092191,-8.105801 0,-11.198095 3.092291,-3.092191 8.105804,-3.092191 11.198095,0 z"
         inkscape:label="shape" /></clipPath><clipPath
       clipPathUnits="userSpaceOnUse"
       id="clipPath22580-0"><path
         id="path22582-6"
         style="display:inline;fill:#8f5321;fill-opacity:1;stroke:none;stroke-width:0.544674;stroke-linecap:round;stroke-linejoin:round;stroke-dasharray:none;paint-order:stroke fill markers"
         d="m -156.30539,2.3729171 c -7.00426,-6.9959341 -18.21143,-7.4272311 -25.73269,-0.990362 -6.40758,-5.9456299 -16.36893,-5.762969 -22.55422,0.41358 -6.17655,6.1852871 -6.35921,16.1466439 -0.41358,22.5542179 -6.43687,7.52126 -6.00554,18.728407 0.99036,25.732687 4.1003,4.092131 9.64553,5.16323 15.59979,5.412761 5.95427,0.249529 10.07748,-4.56089 14.52345,-1.747462 4.44598,2.813431 3.94195,12.09411 3.94195,12.09411 l 1.23676,1.208892 7.01572,-7.015721 18.38499,18.38498 6.61449,-1.196149 3.94592,3.945919 3.94592,3.94593 -1.19616,6.61448 2.47352,2.473521 6.61488,-1.195761 3.94593,3.945919 3.94592,3.945921 -1.19615,6.61449 3.20992,3.20992 3.75525,0.19027 3.94632,3.94632 3.94593,3.94593 0.190669,3.75565 4.83638,4.83637 13.869046,-1.47599 3.836058,-3.83605 0.318045,-7.35487 -70.041838,-70.04184 7.01533,-7.015326 -1.2085,-1.237155 c 0,0 -9.50074,0.738084 -12.09412,-3.941942 -2.59337,-4.680024 1.21072,-8.826173 1.74747,-14.523449 0.53673,-5.697278 -1.32063,-11.4994979 -5.41276,-15.5997909 z m -33.36262,3.1494141 c 3.09219,3.0922928 3.09219,8.1058028 0,11.1980948 -3.09229,3.09219 -8.1058,3.09219 -11.19809,0 -3.09219,-3.092291 -3.09219,-8.105802 0,-11.198094 3.09229,-3.0921909 8.1058,-3.0921899 11.19809,-8e-7 z" /></clipPath><clipPath
       clipPathUnits="userSpaceOnUse"
       id="clipPath25737"><path
         id="path25739"
         style="display:inline;fill:#8f5321;fill-opacity:1;stroke:none;stroke-width:0.544674;stroke-linecap:round;stroke-linejoin:round;stroke-dasharray:none;paint-order:stroke fill markers"
         d="m -58.402707,14.071743 c -7.004261,-6.9959346 -18.211432,-7.4272316 -25.732692,-0.990362 -6.407579,-5.9456304 -16.368931,-5.7629695 -22.554221,0.41358 -6.17655,6.185287 -6.35921,16.146643 -0.41358,22.554219 -6.43687,7.521258 -6.00554,18.728407 0.99036,25.732687 4.1003,4.092133 9.645532,5.163233 15.599792,5.412759 5.95427,0.249526 10.077479,-4.560893 14.52345,-1.747465 4.445979,2.813434 3.94195,12.094118 3.94195,12.094118 l 1.236761,1.208892 7.015718,-7.015726 18.384991,18.384985 6.614485,-1.196157 3.945925,3.945927 3.945924,3.945919 -1.196163,6.614481 2.473521,2.47352 6.614882,-1.19576 3.945928,3.94593 3.945919,3.94592 -1.196154,6.61449 3.20992,3.20992 3.7552519,0.19027 3.94632,3.94632 3.9459271,3.94593 0.190669,3.75565 4.8363791,4.83637 13.8690459,-1.47599 3.836058,-3.83606 0.318045,-7.35487 -70.041832,-70.04183 7.015329,-7.015332 -1.2085,-1.237152 c 0,0 -9.50074,0.738082 -12.09412,-3.941942 -2.593369,-4.680027 1.21072,-8.826175 1.74747,-14.52345 0.536731,-5.697278 -1.320631,-11.499498 -5.412759,-15.599791 z m -33.362622,3.149414 c 3.092191,3.092293 3.092191,8.105803 0,11.198096 -3.092289,3.092188 -8.105799,3.092188 -11.198091,0 -3.09219,-3.092292 -3.09219,-8.105803 0,-11.198095 3.092292,-3.092191 8.105802,-3.09219 11.198091,-10e-7 z" /></clipPath><filter
       style="color-interpolation-filters:sRGB;"
       inkscape:label="Noise Fill"
       id="filter13"
       x="-0.012549399"
       y="-0.0026178677"
       width="1.0250988"
       height="1.0052357"><feTurbulence
         type="fractalNoise"
         baseFrequency="100 0.2"
         numOctaves="4"
         seed="2"
         result="turbulence"
         id="feTurbulence12" /><feComposite
         in="SourceGraphic"
         in2="turbulence"
         operator="in"
         result="composite1"
         id="feComposite12" /><feColorMatrix
         values="1 0 0 0 0 0 1 0 0 0 0 0 1 0 0 0 0 0 4 -1 "
         result="color"
         id="feColorMatrix12" /><feFlood
         flood-opacity="1"
         flood-color="rgb(255,255,255)"
         result="flood"
         id="feFlood12" /><feMerge
         result="merge"
         id="feMerge13"><feMergeNode
           in="flood"
           id="feMergeNode12" /><feMergeNode
           in="color"
           id="feMergeNode13" /></feMerge><feComposite
         in2="SourceGraphic"
         operator="in"
         result="composite2"
         id="feComposite13" /></filter><mask
       maskUnits="userSpaceOnUse"
       id="mask89"><rect
         style="opacity:0.8;fill:#0000ff;stroke-width:1.5875;stroke-linecap:square;stroke-miterlimit:12;paint-order:fill markers stroke"
         id="rect90"
         width="14.434896"
         height="121.10633"
         x="22.548662"
         y="-57.048927"
         transform="rotate(30)" /></mask><mask
       maskUnits="userSpaceOnUse"
       id="mask90"><rect
         style="opacity:0.6;fill:#0000ff;stroke-width:1.5875;stroke-linecap:square;stroke-miterlimit:12;paint-order:fill markers stroke"
         id="rect91"
         width="14.434896"
         height="121.10633"
         x="36.983566"
         y="-57.048927"
         transform="rotate(30)" /></mask><mask
       maskUnits="userSpaceOnUse"
       id="mask91"><rect
         style="opacity:0.4;fill:#0000ff;stroke-width:1.5875;stroke-linecap:square;stroke-miterlimit:12;paint-order:fill markers stroke"
         id="rect92"
         width="14.434896"
         height="121.10633"
         x="51.418449"
         y="-57.048927"
         transform="rotate(30)" /></mask><filter
       id="mask-powermask-path-effect119_inverse"
       inkscape:label="filtermask-powermask-path-effect119"
       style="color-interpolation-filters:sRGB"
       height="100"
       width="100"
       x="-50"
       y="-50"><feColorMatrix
         id="mask-powermask-path-effect119_primitive1"
         values="1"
         type="saturate"
         result="fbSourceGraphic" /><feColorMatrix
         id="mask-powermask-path-effect119_primitive2"
         values="-1 0 0 0 1 0 -1 0 0 1 0 0 -1 0 1 0 0 0 1 0 "
         in="fbSourceGraphic" /></filter><filter
       id="mask-powermask-path-effect163_inverse"
       inkscape:label="filtermask-powermask-path-effect163"
       style="color-interpolation-filters:sRGB"
       height="100"
       width="100"
       x="-50"
       y="-50"><feColorMatrix
         id="mask-powermask-path-effect163_primitive1"
         values="1"
         type="saturate"
         result="fbSourceGraphic" /><feColorMatrix
         id="mask-powermask-path-effect163_primitive2"
         values="-1 0 0 0 1 0 -1 0 0 1 0 0 -1 0 1 0 0 0 1 0 "
         in="fbSourceGraphic" /></filter><filter
       id="mask-powermask-path-effect164_inverse"
       inkscape:label="filtermask-powermask-path-effect164"
       style="color-interpolation-filters:sRGB"
       height="100"
       width="100"
       x="-50"
       y="-50"><feColorMatrix
         id="mask-powermask-path-effect164_primitive1"
         values="1"
         type="saturate"
         result="fbSourceGraphic" /><feColorMatrix
         id="mask-powermask-path-effect164_primitive2"
         values="-1 0 0 0 1 0 -1 0 0 1 0 0 -1 0 1 0 0 0 1 0 "
         in="fbSourceGraphic" /></filter><filter
       id="mask-powermask-path-effect165_inverse"
       inkscape:label="filtermask-powermask-path-effect165"
       style="color-interpolation-filters:sRGB"
       height="100"
       width="100"
       x="-50"
       y="-50"><feColorMatrix
         id="mask-powermask-path-effect165_primitive1"
         values="1"
         type="saturate"
         result="fbSourceGraphic" /><feColorMatrix
         id="mask-powermask-path-effect165_primitive2"
         values="-1 0 0 0 1 0 -1 0 0 1 0 0 -1 0 1 0 0 0 1 0 "
         in="fbSourceGraphic" /></filter><clipPath
       clipPathUnits="userSpaceOnUse"
       id="clipPath173"><rect
         style="display:inline;opacity:0.8;fill:#0000ff;stroke-width:1.5875;stroke-linecap:square;stroke-miterlimit:12;paint-order:fill markers stroke"
         id="rect174"
         width="15.948458"
         height="133.80484"
         x="21.035103"
         y="-69.747444"
         transform="rotate(30)" /></clipPath><clipPath
       clipPathUnits="userSpaceOnUse"
       id="clipPath174"><rect
         style="display:inline;opacity:0.6;fill:#0000ff;stroke-width:1.5875;stroke-linecap:square;stroke-miterlimit:12;paint-order:fill markers stroke"
         id="rect175"
         width="15.948458"
         height="133.80484"
         x="36.983555"
         y="-69.747444"
         transform="rotate(30)" /></clipPath><clipPath
       clipPathUnits="userSpaceOnUse"
       id="clipPath189"><rect
         style="display:inline;opacity:0.4;fill:#0000ff;stroke-width:1.5875;stroke-linecap:square;stroke-miterlimit:12;paint-order:fill markers stroke"
         id="rect189"
         width="15.948458"
         height="133.80484"
         x="52.932014"
         y="-69.747444"
         transform="rotate(30)" /></clipPath><clipPath
       clipPathUnits="userSpaceOnUse"
       id="clipPath190"><rect
         style="display:inline;opacity:0.2;fill:#0000ff;stroke-width:1.5875;stroke-linecap:square;stroke-miterlimit:12;paint-order:fill markers stroke"
         id="rect190"
         width="15.948458"
         height="133.80484"
         x="68.880463"
         y="-69.747444"
         transform="rotate(30)" /></clipPath><clipPath
       clipPathUnits="userSpaceOnUse"
       id="clipPath202"><rect
         style="opacity:0.2;fill:#0000ff;stroke-width:1.5875;stroke-linecap:square;stroke-miterlimit:12;paint-order:fill markers stroke"
         id="rect203"
         width="15.948458"
         height="98.538681"
         x="5.0866413"
         y="-34.481285"
         transform="rotate(30)" /></clipPath><filter
       inkscape:collect="always"
       style="color-interpolation-filters:sRGB"
       id="filter2"
       x="-0.049759869"
       y="-0.078712115"
       width="1.0995197"
       height="1.1574242"><feGaussianBlur
         inkscape:collect="always"
         stdDeviation="1.4721298"
         id="feGaussianBlur2" /></filter><clipPath
       clipPathUnits="userSpaceOnUse"
       id="clipPath4"><path
         id="path5"
         clip-path="none"
         style="display:inline;fill:#999999;stroke:none;stroke-width:6.52555;stroke-linecap:round;stroke-linejoin:round;stroke-dasharray:none;stroke-opacity:1;paint-order:stroke fill markers"
         d="m -44.837143,14.252343 c -20.774115,-6.6e-5 -37.614828,16.840641 -37.614759,37.614758 0.009,0.492085 0.0272,0.983999 0.0553,1.475362 -0.0348,0.145346 -0.0553,0.296894 -0.0553,0.453202 V 63.5036 c 2.55002,-0.156273 5.661869,-0.340511 9.051647,-0.526584 -0.0024,-0.649438 -0.01204,-1.000252 0.0011,-5.686473 0.03386,-2.53683 -0.01979,-5.173027 0.141076,-7.644495 0.296201,-4.453149 1.70983,-8.808593 4.018875,-12.622485 1.611876,-2.666163 3.668345,-5.068374 6.093685,-7.092074 4.7982,-3.951009 11.063708,-6.450601 17.371034,-6.639903 0.394829,-0.01125 0.789371,-0.01434 1.184423,-0.0093 5.925783,0.07718 11.839585,1.988841 16.621207,5.503023 6.231358,4.557591 10.607112,11.887795 11.490775,19.641179 0.09661,4.849297 0.151781,9.699313 0.182409,14.549496 3.398345,0.186486 6.5178331,0.371009 9.0733562,0.527619 v -9.707936 c 0,-0.156305 -0.021061,-0.307856 -0.05582,-0.453202 0.02823,-0.49136 0.04693,-0.983271 0.05582,-1.475359 6.59e-5,-20.77412 -16.8406472,-37.614827 -37.6147602,-37.61476 z" /></clipPath><clipPath
       clipPathUnits="userSpaceOnUse"
       id="clipPath40"><path
         style="baseline-shift:baseline;display:inline;overflow:visible;opacity:0.6;vector-effect:none;fill:#0000ff;stroke-width:0.999998;stroke-linecap:square;stroke-miterlimit:12;paint-order:fill markers stroke;enable-background:accumulate;stop-color:#000000"
         d="M 74.195386,-91.103999 V 70.70699 c -0.596138,-8e-6 -1.268852,-0.447659 -1.584709,-0.952654 -1.14238,-1.826461 -2.942703,-2.928135 -4.878064,-2.928143 -3.372263,9.8e-5 -6.106081,3.290011 -6.105988,7.348143 1.8e-5,4.058044 2.73381,7.34772 6.105988,7.347802 1.935361,-1.9e-5 3.735684,-1.101712 4.878064,-2.92816 0.315857,-0.504997 0.988579,-0.952648 1.584704,-0.952667 l -8e-6,86.990179 18.716781,-1e-5 V -91.104028 Z"
         id="path40" /></clipPath><clipPath
       clipPathUnits="userSpaceOnUse"
       id="clipPath41"><path
         id="path41"
         style="baseline-shift:baseline;display:inline;overflow:visible;opacity:0.6;vector-effect:none;fill:#0000ff;stroke-width:0.999998;stroke-linecap:square;stroke-miterlimit:12;paint-order:fill markers stroke;enable-background:accumulate;stop-color:#000000"
         d="M 55.478783,-57.122094 V 104.68922 c -0.596138,0 -1.269059,-0.44793 -1.584915,-0.95292 -1.142384,-1.82646 -2.942892,-2.92797 -4.878256,-2.92798 -3.37226,9e-5 -6.105662,3.28974 -6.10557,7.34787 1.9e-5,4.05804 2.733395,7.34779 6.10557,7.34787 1.935364,-2e-5 3.735872,-1.10154 4.878256,-2.92799 0.315856,-0.505 0.98879,-0.9529 1.584915,-0.95291 v 86.99055 H 74.195471 V 165.131 H 73.695242 V 78.451024 c -0.253392,0.140152 -0.53647,0.210889 -0.659908,0.408244 -1.219684,1.950043 -3.177927,3.162062 -5.303036,3.16208 -3.697346,-8.7e-5 -6.605259,-3.564982 -6.605281,-7.847581 -9.7e-5,-4.282694 2.907835,-7.847478 6.605281,-7.847584 2.125107,8e-6 4.083349,1.212027 5.303036,3.16208 0.123441,0.197358 0.406519,0.268095 0.659908,0.408245 V -57.122094 Z M 67.732298,67.326123 c -3.047074,8.7e-5 -5.605431,3.014072 -5.605341,6.847644 1.9e-5,3.833487 2.558338,6.84757 5.605341,6.847644 1.74562,-1.6e-5 3.389947,-0.990518 4.455025,-2.693376 0.414668,-0.662977 1.161725,-1.187498 2.008148,-1.187524 v -5.933488 c -0.846439,-1.3e-5 -1.59348,-0.524555 -2.008148,-1.187524 -1.065078,-1.702866 -2.709405,-2.693371 -4.455025,-2.693376 z" /></clipPath><clipPath
       clipPathUnits="userSpaceOnUse"
       id="clipPath42"><path
         id="path42"
         style="baseline-shift:baseline;display:inline;overflow:visible;opacity:0.6;vector-effect:none;fill:#0000ff;stroke-width:0.999998;stroke-linecap:square;stroke-miterlimit:12;paint-order:fill markers stroke;enable-background:accumulate;stop-color:#000000"
         d="M 36.762097,-74.975785 V 86.835524 c -0.596138,0 -1.269058,-0.447924 -1.584915,-0.952913 -1.142384,-1.826456 -2.942894,-2.927977 -4.878258,-2.927985 -3.37226,9.8e-5 -6.106178,3.289763 -6.106086,7.347871 2.1e-5,4.058015 2.733911,7.347791 6.106086,7.347873 1.935364,-2.1e-5 3.735874,-1.101547 4.878258,-2.927987 0.315857,-0.504997 0.98879,-0.952905 1.584915,-0.952913 v 86.99055 h 18.216459 v -68.32657 c -0.253391,0.14016 -0.536985,0.21088 -0.660424,0.40824 -1.219687,1.95004 -3.177413,3.16205 -5.30252,3.16208 -3.697348,-9e-5 -6.605259,-3.56498 -6.60528,-7.84758 -9.8e-5,-4.28269 2.907832,-7.84749 6.60528,-7.84759 2.125107,1e-5 4.082833,1.21204 5.30252,3.16209 0.123439,0.19736 0.407035,0.26809 0.660424,0.40824 V -57.621288 h 0.500227 V -74.975785 Z M 49.015612,101.30854 c -3.047074,9e-5 -5.60543,3.01408 -5.605343,6.84765 2.1e-5,3.83348 2.558338,6.84756 5.605343,6.84764 1.745618,-2e-5 3.389948,-0.99052 4.455025,-2.69337 0.414666,-0.66298 1.161201,-1.18752 2.00763,-1.18753 h 5.29e-4 v -5.93349 h -5.29e-4 c -0.84645,0 -1.592964,-0.52455 -2.00763,-1.18752 -1.065077,-1.70286 -2.709407,-2.69337 -4.455025,-2.69338 z" /></clipPath><clipPath
       clipPathUnits="userSpaceOnUse"
       id="clipPath43"><path
         id="path44"
         style="baseline-shift:baseline;display:inline;overflow:visible;opacity:0.6;vector-effect:none;fill:#0000ff;stroke-width:0.999998;stroke-linecap:square;stroke-miterlimit:12;paint-order:fill markers stroke;enable-background:accumulate;stop-color:#000000"
         d="M 18.044893,-91.586139 V 70.22517 c -0.596138,-1e-5 -1.268542,-0.447918 -1.584399,-0.952912 -1.142383,-1.826461 -2.942892,-2.92798 -4.878255,-2.927988 -3.3722614,9.8e-5 -6.1061798,3.290258 -6.1060874,7.348389 2.06e-5,4.058042 2.7339112,7.347273 6.1060874,7.347355 1.935363,-1.9e-5 3.735872,-1.101537 4.878255,-2.927988 0.315857,-0.504994 0.988275,-0.952378 1.584399,-0.952396 v 86.99004 H 36.261868 V 94.580272 c -0.253389,0.14015 -0.536985,0.210889 -0.660424,0.408244 -1.219687,1.950035 -3.177413,3.16206 -5.30252,3.162081 -3.697346,-8.8e-5 -6.605774,-3.565009 -6.605797,-7.847584 -9.7e-5,-4.28267 2.908351,-7.847991 6.605797,-7.8481 2.12511,1.1e-5 4.082833,1.212032 5.30252,3.162083 0.123441,0.197353 0.407035,0.268092 0.660424,0.408244 V -75.474461 h 0.500229 V -91.586139 Z M 30.298924,83.454853 c -3.047074,9e-5 -5.605428,3.014099 -5.605341,6.847644 2e-5,3.833458 2.558336,6.84757 5.605341,6.847644 1.74562,-1.8e-5 3.389948,-0.99001 4.455028,-2.69286 0.414668,-0.662977 1.1612,-1.187508 2.007629,-1.187522 h 5.29e-4 v -5.934006 h -5.29e-4 c -0.84645,0 -1.592964,-0.524563 -2.007629,-1.187524 -1.06508,-1.702864 -2.70941,-2.693368 -4.455028,-2.693376 z" /></clipPath><clipPath
       clipPathUnits="userSpaceOnUse"
       id="clipPath44"><path
         id="path45"
         style="baseline-shift:baseline;display:inline;overflow:visible;opacity:0.6;vector-effect:none;fill:#0000ff;stroke-width:0.999998;stroke-linecap:square;stroke-miterlimit:12;paint-order:fill markers stroke;enable-background:accumulate;stop-color:#000000"
         d="M -0.67179361,-56.131975 V 105.67934 c -0.59613799,-1e-5 -1.26854239,-0.4474 -1.58439939,-0.9524 -1.142383,-1.82647 -2.9428922,-2.92849 -4.8782552,-2.9285 -3.3722618,1e-4 -6.1061798,3.29022 -6.1060868,7.34838 2e-5,4.05806 2.733911,7.3478 6.1060868,7.34788 1.935363,-2e-5 3.7358722,-1.10204 4.8782552,-2.92851 0.315857,-0.50499 0.9882754,-0.95237 1.58439939,-0.95239 v 86.99003 H 18.044893 V 164.65041 H 17.544665 V 77.968884 c -0.253593,0.140161 -0.536376,0.210738 -0.659908,0.408244 -1.219687,1.950043 -3.17741,3.16361 -5.302518,3.163631 -3.6973478,-9e-5 -6.6057769,-3.564985 -6.6057986,-7.847584 -9.76e-5,-4.282694 2.9083508,-7.849544 6.6057986,-7.84965 2.125108,1e-5 4.082831,1.214096 5.302518,3.164149 0.123533,0.197504 0.406317,0.268084 0.659908,0.408242 V -56.131975 Z M 11.582239,66.843981 c -3.0470747,9e-5 -5.6059469,3.015623 -5.6058596,6.849194 1.93e-5,3.833487 2.5588555,6.84757 5.6058596,6.847644 1.745619,-1.8e-5 3.389946,-0.990518 4.455025,-2.693376 0.414668,-0.662974 1.161204,-1.187498 2.007629,-1.187524 v -5.935554 c -0.846439,-1.3e-5 -1.592963,-0.524036 -2.007629,-1.187008 -1.065079,-1.702866 -2.709407,-2.693368 -4.455025,-2.693376 z" /></clipPath></defs><g
     inkscape:label="Layer 1"
     inkscape:groupmode="layer"
     id="layer1"><path
       id="path37895"
       style="display:inline;fill:none;fill-opacity:1;stroke:#3eff00;stroke-width:1.5875;stroke-linecap:round;stroke-linejoin:round;stroke-dasharray:1.5875, 4.7625;stroke-dashoffset:0;stroke-opacity:1;paint-order:stroke fill markers"
       d="m 134.40091,27.30549 c -0.006,-7.520207 -5.79274,-13.771821 -13.29036,-14.354304 -0.24812,-6.6355275 -5.697,-11.8881611 -12.33717,-11.8928509 -6.64017,0.00473 -12.089047,5.2573245 -12.337185,11.8928549 -7.497611,0.582479 -13.28586,6.834092 -13.290356,14.3543 0.0046,4.400565 2.407675,7.954534 5.47197,11.286902 3.064304,3.332367 7.863016,2.963238 8.739934,6.862627 0.876921,3.899395 -4.378945,8.613779 -4.378945,8.613779 l 0.01496,1.313684 h 7.537002 v 19.751013 l 4.19552,2.910453 v 4.23911 4.23911 l -4.19552,2.91046 v 2.657301 l 4.19553,2.91088 -1e-5,4.239124 v 4.239107 l -4.19551,2.91045 -1e-5,3.44842 1.91495,2.11934 v 4.23954 l -1e-5,4.23912 -1.91494,2.11975 1e-5,5.19572 8.24261,6.65695 h 4.12108 l 4.12152,-3.77984 V 55.382482 h 7.53657 l 0.0155,-1.313684 c 0,0 -5.4998,-4.706867 -4.37895,-8.613778 1.12086,-3.906909 5.39132,-4.090644 8.73994,-6.862628 3.3486,-2.771985 5.46758,-6.886337 5.47196,-11.286902 z M 114.78845,11.076453 c -4e-5,3.321998 -2.69307,6.015009 -6.01507,6.015063 -3.32199,-5.8e-5 -6.01501,-2.693068 -6.01507,-6.015064 6e-5,-3.3219988 2.69308,-6.0150079 6.01507,-6.0150642 3.322,5.96e-5 6.01503,2.6930689 6.01507,6.0150652 z"
       sodipodi:insensitive="true"
       inkscape:label="key" /><g
       id="g10"
       inkscape:label="basic lock"
       style="display:none"
       sodipodi:insensitive="true"><path
         id="rect792"
         style="display:inline;fill:url(#linearGradient1286);fill-opacity:1;stroke:none;stroke-width:0.285028;stroke-linecap:round;stroke-linejoin:round;paint-order:stroke fill markers"
         d="m 2.2266649,62.438926 c 0,0 29.5707191,-2.006118 44.3787361,-2.006118 14.80802,0 44.378734,2.006118 44.378734,2.006118 1.067033,0.04823 1.928019,0.859899 1.928019,1.928025 v 56.118689 c 0,1.06813 -0.859892,1.92803 -1.928019,1.92803 H 2.2266649 c -1.0681251,0 -1.92802526,-0.8599 -1.92802526,-1.92803 V 64.366951 c 0,-1.068126 0.85990016,-1.928025 1.92802526,-1.928025 z"
         sodipodi:nodetypes="szssssssss"
         inkscape:label="lock-house" /><g
         id="g5"
         style="display:inline"><path
           id="path5990"
           clip-path="none"
           style="display:inline;fill:#474747;fill-opacity:1;stroke:none;stroke-width:5.80116;stroke-linecap:round;stroke-linejoin:round;stroke-dasharray:none;stroke-opacity:1;paint-order:stroke fill markers"
           d="m 84.496559,37.299918 c -18.468023,-6e-5 -33.43928,14.971195 -33.439219,33.439219 0.0078,0.43746 0.02422,0.874768 0.04916,1.311586 -0.03093,0.129212 -0.04916,0.263936 -0.04916,0.402893 v 8.630276 c 2.26695,-0.138925 5.033353,-0.302711 8.046839,-0.468128 -0.0023,-0.577346 -0.0107,-0.889216 9.19e-4,-5.05523 0.0301,-2.25522 -0.0176,-4.59878 0.125416,-6.795895 0.263321,-3.958813 1.520025,-7.830767 3.572749,-11.221288 1.432943,-2.370199 3.261128,-4.505743 5.417237,-6.304797 4.265557,-3.512415 9.835548,-5.734533 15.442709,-5.902822 0.351,-0.01 0.701745,-0.01276 1.052943,-0.0083 5.267973,0.06861 10.525296,1.768064 14.776121,4.892144 5.539627,4.051663 9.429637,10.568152 10.215207,17.460851 0.0859,4.310988 0.13493,8.62261 0.16216,12.934388 3.0211,0.165784 5.7943,0.329822 8.06614,0.469047 v -8.630276 c 0,-0.138957 -0.0187,-0.273681 -0.0496,-0.402893 0.0251,-0.436815 0.0417,-0.874122 0.0496,-1.311586 6e-5,-18.468023 -14.9712,-33.439278 -33.439221,-33.439219 z"
           transform="matrix(1.1248695,0,0,1.1248695,-48.442179,-29.20173)" /><path
           id="path2"
           clip-path="url(#clipPath4)"
           style="display:inline;mix-blend-mode:normal;fill:#ffffff;stroke:none;stroke-width:6.52555;stroke-linecap:round;stroke-linejoin:round;stroke-dasharray:none;stroke-opacity:1;paint-order:stroke fill markers;filter:url(#filter2)"
           d="m -45.730591,16.442318 c -10.77445,0.208426 -21.30855,5.670491 -27.64583,14.393074 -3.14557,4.229351 -5.328164,9.237666 -6.319024,14.370598 -0.58887,2.834956 -0.68302,5.954229 -0.63086,8.938671 -0.003,2.392188 -0.005,4.784376 -0.008,7.176563 1.60742,-0.09245 3.21485,-0.184895 4.822274,-0.277343 0.088,-5.496142 -0.33556,-11.084335 0.91333,-16.485584 2.23043,-9.257177 9.04694,-17.288209 17.87273,-20.896908 8.30428,-3.568177 18.18895,-3.164216 26.1672,1.088985 7.00888,3.65833 12.43863,10.145624 14.89358,17.652854 1.08699,3.20568 1.47139,6.609691 1.36379,9.983167 0.0421,2.885081 0.0752,5.770269 0.10187,8.655532 1.61979,0.0931 3.23958,0.186198 4.8593699,0.279297 -0.051,-4.444413 0.13488,-8.901397 -0.2168,-13.335937 -1.0615699,-9.754058 -6.3662199,-18.968414 -14.3369899,-24.706876 -4.58132,-3.37493 -10.11362,-5.662875 -15.66496,-6.45328 -2.06742,-0.29749 -4.08982,-0.424056 -6.17187,-0.382813 z"
           transform="translate(91.442534,-1.4965341)" /></g></g><path
       id="path51"
       style="baseline-shift:baseline;display:none;overflow:visible;opacity:0.6;vector-effect:none;fill:#00ff00;stroke-width:0.999999;stroke-linecap:square;stroke-miterlimit:12;paint-order:fill markers stroke;enable-background:accumulate;stop-color:#000000"
       d="m 151.4758,67.733333 c -3.57862,8.9e-5 -6.38459,3.446716 -6.38449,7.573874 3e-5,4.127049 2.80596,7.572391 6.38449,7.572472 2.05713,-1.4e-5 3.94953,-1.174343 5.12648,-3.056079 0.19619,-0.31367 0.75928,-0.658739 1.06094,-0.658749 h 0.53869 v -7.715636 h -0.53869 c -0.30164,1e-6 -0.86476,-0.346493 -1.06094,-0.660149 -1.17696,-1.88173 -3.06935,-3.055714 -5.12648,-3.055733 z"
       sodipodi:insensitive="true" /><g
       id="g22"
       inkscape:label="basic lock"
       style="display:inline"
       clip-path="url(#clipPath44)"><path
         id="path19"
         style="display:inline;fill:url(#linearGradient1286);fill-opacity:1;stroke:none;stroke-width:0.285028;stroke-linecap:round;stroke-linejoin:round;paint-order:stroke fill markers"
         inkscape:label="lock-house"
         d="M 46.605423 60.433003 C 31.797406 60.433003 2.2267374 62.439082 2.2267374 62.439082 C 1.1586123 62.439082 0.29868977 63.299004 0.29868977 64.36713 L 0.29868977 120.48567 C 0.29868977 121.5538 1.1586123 122.41372 2.2267374 122.41372 L 90.984109 122.41372 C 92.052236 122.41372 92.912157 121.5538 92.912157 120.48567 L 92.912157 64.36713 C 92.912157 63.299004 92.051142 62.487312 90.984109 62.439082 C 90.984109 62.439082 61.413443 60.433003 46.605423 60.433003 z M 11.643217 66.07917 C 13.700346 66.079189 15.593071 67.253067 16.770036 69.134797 C 16.966214 69.448453 17.529312 69.795223 17.830953 69.795222 L 18.369421 69.795222 L 18.369421 77.510513 L 17.830953 77.510513 C 17.529298 77.510523 16.966221 77.855718 16.770036 78.169388 C 15.593078 80.051124 13.700353 81.225518 11.643217 81.225532 C 8.0646921 81.225451 5.2586207 77.779917 5.2585937 73.652868 C 5.2584927 69.52571 8.0645971 66.079259 11.643217 66.07917 z " /><g
         id="g21"
         style="display:inline"><path
           id="path20"
           clip-path="none"
           style="display:inline;fill:#474747;fill-opacity:1;stroke:none;stroke-width:5.80116;stroke-linecap:round;stroke-linejoin:round;stroke-dasharray:none;stroke-opacity:1;paint-order:stroke fill markers"
           d="m 84.496559,37.299918 c -18.468023,-6e-5 -33.43928,14.971195 -33.439219,33.439219 0.0078,0.43746 0.02422,0.874768 0.04916,1.311586 -0.03093,0.129212 -0.04916,0.263936 -0.04916,0.402893 v 8.630276 c 2.26695,-0.138925 5.033353,-0.302711 8.046839,-0.468128 -0.0023,-0.577346 -0.0107,-0.889216 9.19e-4,-5.05523 0.0301,-2.25522 -0.0176,-4.59878 0.125416,-6.795895 0.263321,-3.958813 1.520025,-7.830767 3.572749,-11.221288 1.432943,-2.370199 3.261128,-4.505743 5.417237,-6.304797 4.265557,-3.512415 9.835548,-5.734533 15.442709,-5.902822 0.351,-0.01 0.701745,-0.01276 1.052943,-0.0083 5.267973,0.06861 10.525296,1.768064 14.776121,4.892144 5.539627,4.051663 9.429637,10.568152 10.215207,17.460851 0.0859,4.310988 0.13493,8.62261 0.16216,12.934388 3.0211,0.165784 5.7943,0.329822 8.06614,0.469047 v -8.630276 c 0,-0.138957 -0.0187,-0.273681 -0.0496,-0.402893 0.0251,-0.436815 0.0417,-0.874122 0.0496,-1.311586 6e-5,-18.468023 -14.9712,-33.439278 -33.439221,-33.439219 z"
           transform="matrix(1.1248695,0,0,1.1248695,-48.442179,-29.20173)" /><path
           id="path21"
           clip-path="url(#clipPath4)"
           style="display:inline;mix-blend-mode:normal;fill:#ffffff;stroke:none;stroke-width:6.52555;stroke-linecap:round;stroke-linejoin:round;stroke-dasharray:none;stroke-opacity:1;paint-order:stroke fill markers;filter:url(#filter2)"
           d="m -45.730591,16.442318 c -10.77445,0.208426 -21.30855,5.670491 -27.64583,14.393074 -3.14557,4.229351 -5.328164,9.237666 -6.319024,14.370598 -0.58887,2.834956 -0.68302,5.954229 -0.63086,8.938671 -0.003,2.392188 -0.005,4.784376 -0.008,7.176563 1.60742,-0.09245 3.21485,-0.184895 4.822274,-0.277343 0.088,-5.496142 -0.33556,-11.084335 0.91333,-16.485584 2.23043,-9.257177 9.04694,-17.288209 17.87273,-20.896908 8.30428,-3.568177 18.18895,-3.164216 26.1672,1.088985 7.00888,3.65833 12.43863,10.145624 14.89358,17.652854 1.08699,3.20568 1.47139,6.609691 1.36379,9.983167 0.0421,2.885081 0.0752,5.770269 0.10187,8.655532 1.61979,0.0931 3.23958,0.186198 4.8593699,0.279297 -0.051,-4.444413 0.13488,-8.901397 -0.2168,-13.335937 -1.0615699,-9.754058 -6.3662199,-18.968414 -14.3369899,-24.706876 -4.58132,-3.37493 -10.11362,-5.662875 -15.66496,-6.45328 -2.06742,-0.29749 -4.08982,-0.424056 -6.17187,-0.382813 z"
           transform="translate(91.442534,-1.4965341)" /></g></g><g
       id="g26"
       inkscape:label="basic lock"
       style="display:inline;opacity:0.8"
       clip-path="url(#clipPath43)"><path
         id="path23"
         style="display:inline;fill:url(#linearGradient1286);fill-opacity:1;stroke:none;stroke-width:0.285028;stroke-linecap:round;stroke-linejoin:round;paint-order:stroke fill markers"
         inkscape:label="lock-house"
         d="M 46.605423 60.433003 C 31.797406 60.433003 2.2267374 62.439082 2.2267374 62.439082 C 1.1586123 62.439082 0.29868977 63.299004 0.29868977 64.36713 L 0.29868977 120.48567 C 0.29868977 121.5538 1.1586123 122.41372 2.2267374 122.41372 L 90.984109 122.41372 C 92.052236 122.41372 92.912157 121.5538 92.912157 120.48567 L 92.912157 64.36713 C 92.912157 63.299004 92.051142 62.487312 90.984109 62.439082 C 90.984109 62.439082 61.413443 60.433003 46.605423 60.433003 z M 30.298409 82.685391 C 32.355538 82.68541 34.247746 83.859289 35.424711 85.741019 C 35.620889 86.054675 36.183987 86.400928 36.485628 86.400927 L 37.024613 86.400927 L 37.024613 94.116735 L 36.485628 94.116735 C 36.183973 94.116745 35.620896 94.461939 35.424711 94.775609 C 34.247753 96.657345 32.355545 97.831739 30.298409 97.831753 C 26.719885 97.831672 23.913813 94.386138 23.913786 90.259089 C 23.913685 86.131931 26.71979 82.68548 30.298409 82.685391 z " /><g
         id="g25"
         style="display:inline"><path
           id="path24"
           clip-path="none"
           style="display:inline;fill:#474747;fill-opacity:1;stroke:none;stroke-width:5.80116;stroke-linecap:round;stroke-linejoin:round;stroke-dasharray:none;stroke-opacity:1;paint-order:stroke fill markers"
           d="m 84.496559,37.299918 c -18.468023,-6e-5 -33.43928,14.971195 -33.439219,33.439219 0.0078,0.43746 0.02422,0.874768 0.04916,1.311586 -0.03093,0.129212 -0.04916,0.263936 -0.04916,0.402893 v 8.630276 c 2.26695,-0.138925 5.033353,-0.302711 8.046839,-0.468128 -0.0023,-0.577346 -0.0107,-0.889216 9.19e-4,-5.05523 0.0301,-2.25522 -0.0176,-4.59878 0.125416,-6.795895 0.263321,-3.958813 1.520025,-7.830767 3.572749,-11.221288 1.432943,-2.370199 3.261128,-4.505743 5.417237,-6.304797 4.265557,-3.512415 9.835548,-5.734533 15.442709,-5.902822 0.351,-0.01 0.701745,-0.01276 1.052943,-0.0083 5.267973,0.06861 10.525296,1.768064 14.776121,4.892144 5.539627,4.051663 9.429637,10.568152 10.215207,17.460851 0.0859,4.310988 0.13493,8.62261 0.16216,12.934388 3.0211,0.165784 5.7943,0.329822 8.06614,0.469047 v -8.630276 c 0,-0.138957 -0.0187,-0.273681 -0.0496,-0.402893 0.0251,-0.436815 0.0417,-0.874122 0.0496,-1.311586 6e-5,-18.468023 -14.9712,-33.439278 -33.439221,-33.439219 z"
           transform="matrix(1.1248695,0,0,1.1248695,-48.442179,-29.20173)" /><path
           id="path25"
           clip-path="url(#clipPath4)"
           style="display:inline;mix-blend-mode:normal;fill:#ffffff;stroke:none;stroke-width:6.52555;stroke-linecap:round;stroke-linejoin:round;stroke-dasharray:none;stroke-opacity:1;paint-order:stroke fill markers;filter:url(#filter2)"
           d="m -45.730591,16.442318 c -10.77445,0.208426 -21.30855,5.670491 -27.64583,14.393074 -3.14557,4.229351 -5.328164,9.237666 -6.319024,14.370598 -0.58887,2.834956 -0.68302,5.954229 -0.63086,8.938671 -0.003,2.392188 -0.005,4.784376 -0.008,7.176563 1.60742,-0.09245 3.21485,-0.184895 4.822274,-0.277343 0.088,-5.496142 -0.33556,-11.084335 0.91333,-16.485584 2.23043,-9.257177 9.04694,-17.288209 17.87273,-20.896908 8.30428,-3.568177 18.18895,-3.164216 26.1672,1.088985 7.00888,3.65833 12.43863,10.145624 14.89358,17.652854 1.08699,3.20568 1.47139,6.609691 1.36379,9.983167 0.0421,2.885081 0.0752,5.770269 0.10187,8.655532 1.61979,0.0931 3.23958,0.186198 4.8593699,0.279297 -0.051,-4.444413 0.13488,-8.901397 -0.2168,-13.335937 -1.0615699,-9.754058 -6.3662199,-18.968414 -14.3369899,-24.706876 -4.58132,-3.37493 -10.11362,-5.662875 -15.66496,-6.45328 -2.06742,-0.29749 -4.08982,-0.424056 -6.17187,-0.382813 z"
           transform="translate(91.442534,-1.4965341)" /></g></g><g
       id="g32"
       inkscape:label="basic lock"
       style="display:inline;opacity:0.6"
       clip-path="url(#clipPath42)"><path
         id="path28"
         style="display:inline;fill:url(#linearGradient1286);fill-opacity:1;stroke:none;stroke-width:0.285028;stroke-linecap:round;stroke-linejoin:round;paint-order:stroke fill markers"
         inkscape:label="lock-house"
         d="M 46.605423 60.433003 C 31.797406 60.433003 2.2267374 62.439082 2.2267374 62.439082 C 1.1586123 62.439082 0.29868977 63.299004 0.29868977 64.36713 L 0.29868977 120.48567 C 0.29868977 121.5538 1.1586123 122.41372 2.2267374 122.41372 L 90.984109 122.41372 C 92.052236 122.41372 92.912157 121.5538 92.912157 120.48567 L 92.912157 64.36713 C 92.912157 63.299004 92.051142 62.487312 90.984109 62.439082 C 90.984109 62.439082 61.413443 60.433003 46.605423 60.433003 z M 48.990808 100.51634 C 51.047937 100.51635 52.940145 101.69024 54.11711 103.57197 C 54.313288 103.88562 54.876386 104.2324 55.178027 104.2324 L 55.717012 104.2324 L 55.717012 111.94769 L 55.178027 111.94769 C 54.876372 111.9477 54.313295 112.29289 54.11711 112.60656 C 52.940152 114.4883 51.047944 115.6627 48.990808 115.66271 C 45.412284 115.66263 42.606211 112.21709 42.606184 108.09004 C 42.606083 103.96288 45.412189 100.51642 48.990808 100.51634 z " /><g
         id="g31"
         style="display:inline"><path
           id="path29"
           clip-path="none"
           style="display:inline;fill:#474747;fill-opacity:1;stroke:none;stroke-width:5.80116;stroke-linecap:round;stroke-linejoin:round;stroke-dasharray:none;stroke-opacity:1;paint-order:stroke fill markers"
           d="m 84.496559,37.299918 c -18.468023,-6e-5 -33.43928,14.971195 -33.439219,33.439219 0.0078,0.43746 0.02422,0.874768 0.04916,1.311586 -0.03093,0.129212 -0.04916,0.263936 -0.04916,0.402893 v 8.630276 c 2.26695,-0.138925 5.033353,-0.302711 8.046839,-0.468128 -0.0023,-0.577346 -0.0107,-0.889216 9.19e-4,-5.05523 0.0301,-2.25522 -0.0176,-4.59878 0.125416,-6.795895 0.263321,-3.958813 1.520025,-7.830767 3.572749,-11.221288 1.432943,-2.370199 3.261128,-4.505743 5.417237,-6.304797 4.265557,-3.512415 9.835548,-5.734533 15.442709,-5.902822 0.351,-0.01 0.701745,-0.01276 1.052943,-0.0083 5.267973,0.06861 10.525296,1.768064 14.776121,4.892144 5.539627,4.051663 9.429637,10.568152 10.215207,17.460851 0.0859,4.310988 0.13493,8.62261 0.16216,12.934388 3.0211,0.165784 5.7943,0.329822 8.06614,0.469047 v -8.630276 c 0,-0.138957 -0.0187,-0.273681 -0.0496,-0.402893 0.0251,-0.436815 0.0417,-0.874122 0.0496,-1.311586 6e-5,-18.468023 -14.9712,-33.439278 -33.439221,-33.439219 z"
           transform="matrix(1.1248695,0,0,1.1248695,-48.442179,-29.20173)" /><path
           id="path31"
           clip-path="url(#clipPath4)"
           style="display:inline;mix-blend-mode:normal;fill:#ffffff;stroke:none;stroke-width:6.52555;stroke-linecap:round;stroke-linejoin:round;stroke-dasharray:none;stroke-opacity:1;paint-order:stroke fill markers;filter:url(#filter2)"
           d="m -45.730591,16.442318 c -10.77445,0.208426 -21.30855,5.670491 -27.64583,14.393074 -3.14557,4.229351 -5.328164,9.237666 -6.319024,14.370598 -0.58887,2.834956 -0.68302,5.954229 -0.63086,8.938671 -0.003,2.392188 -0.005,4.784376 -0.008,7.176563 1.60742,-0.09245 3.21485,-0.184895 4.822274,-0.277343 0.088,-5.496142 -0.33556,-11.084335 0.91333,-16.485584 2.23043,-9.257177 9.04694,-17.288209 17.87273,-20.896908 8.30428,-3.568177 18.18895,-3.164216 26.1672,1.088985 7.00888,3.65833 12.43863,10.145624 14.89358,17.652854 1.08699,3.20568 1.47139,6.609691 1.36379,9.983167 0.0421,2.885081 0.0752,5.770269 0.10187,8.655532 1.61979,0.0931 3.23958,0.186198 4.8593699,0.279297 -0.051,-4.444413 0.13488,-8.901397 -0.2168,-13.335937 -1.0615699,-9.754058 -6.3662199,-18.968414 -14.3369899,-24.706876 -4.58132,-3.37493 -10.11362,-5.662875 -15.66496,-6.45328 -2.06742,-0.29749 -4.08982,-0.424056 -6.17187,-0.382813 z"
           transform="translate(91.442534,-1.4965341)" /></g></g><g
       id="g37"
       inkscape:label="basic lock"
       style="display:inline;opacity:0.4"
       clip-path="url(#clipPath41)"><path
         id="path32"
         style="display:inline;fill:url(#linearGradient1286);fill-opacity:1;stroke:none;stroke-width:0.285028;stroke-linecap:round;stroke-linejoin:round;paint-order:stroke fill markers"
         inkscape:label="lock-house"
         d="M 46.605423 60.433003 C 31.797406 60.433003 2.2267374 62.439082 2.2267374 62.439082 C 1.1586123 62.439082 0.29868977 63.299004 0.29868977 64.36713 L 0.29868977 120.48567 C 0.29868977 121.5538 1.1586123 122.41372 2.2267374 122.41372 L 90.984109 122.41372 C 92.052236 122.41372 92.912157 121.5538 92.912157 120.48567 L 92.912157 64.36713 C 92.912157 63.299004 92.051142 62.487312 90.984109 62.439082 C 90.984109 62.439082 61.413443 60.433003 46.605423 60.433003 z M 67.797928 66.621256 C 69.855057 66.621275 71.747265 67.795153 72.92423 69.676883 C 73.120408 69.990539 73.683506 70.337309 73.985147 70.337308 L 74.523616 70.337308 L 74.523616 78.052599 L 73.985147 78.052599 C 73.683492 78.052609 73.120415 78.397804 72.92423 78.711474 C 71.747272 80.59321 69.855064 81.767604 67.797928 81.767618 C 64.219404 81.767537 61.413332 78.322003 61.413305 74.194954 C 61.413204 70.067796 64.219309 66.621345 67.797928 66.621256 z " /><g
         id="g36"
         style="display:inline"><path
           id="path34"
           clip-path="none"
           style="display:inline;fill:#474747;fill-opacity:1;stroke:none;stroke-width:5.80116;stroke-linecap:round;stroke-linejoin:round;stroke-dasharray:none;stroke-opacity:1;paint-order:stroke fill markers"
           d="m 84.496559,37.299918 c -18.468023,-6e-5 -33.43928,14.971195 -33.439219,33.439219 0.0078,0.43746 0.02422,0.874768 0.04916,1.311586 -0.03093,0.129212 -0.04916,0.263936 -0.04916,0.402893 v 8.630276 c 2.26695,-0.138925 5.033353,-0.302711 8.046839,-0.468128 -0.0023,-0.577346 -0.0107,-0.889216 9.19e-4,-5.05523 0.0301,-2.25522 -0.0176,-4.59878 0.125416,-6.795895 0.263321,-3.958813 1.520025,-7.830767 3.572749,-11.221288 1.432943,-2.370199 3.261128,-4.505743 5.417237,-6.304797 4.265557,-3.512415 9.835548,-5.734533 15.442709,-5.902822 0.351,-0.01 0.701745,-0.01276 1.052943,-0.0083 5.267973,0.06861 10.525296,1.768064 14.776121,4.892144 5.539627,4.051663 9.429637,10.568152 10.215207,17.460851 0.0859,4.310988 0.13493,8.62261 0.16216,12.934388 3.0211,0.165784 5.7943,0.329822 8.06614,0.469047 v -8.630276 c 0,-0.138957 -0.0187,-0.273681 -0.0496,-0.402893 0.0251,-0.436815 0.0417,-0.874122 0.0496,-1.311586 6e-5,-18.468023 -14.9712,-33.439278 -33.439221,-33.439219 z"
           transform="matrix(1.1248695,0,0,1.1248695,-48.442179,-29.20173)" /><path
           id="path36"
           clip-path="url(#clipPath4)"
           style="display:inline;mix-blend-mode:normal;fill:#ffffff;stroke:none;stroke-width:6.52555;stroke-linecap:round;stroke-linejoin:round;stroke-dasharray:none;stroke-opacity:1;paint-order:stroke fill markers;filter:url(#filter2)"
           d="m -45.730591,16.442318 c -10.77445,0.208426 -21.30855,5.670491 -27.64583,14.393074 -3.14557,4.229351 -5.328164,9.237666 -6.319024,14.370598 -0.58887,2.834956 -0.68302,5.954229 -0.63086,8.938671 -0.003,2.392188 -0.005,4.784376 -0.008,7.176563 1.60742,-0.09245 3.21485,-0.184895 4.822274,-0.277343 0.088,-5.496142 -0.33556,-11.084335 0.91333,-16.485584 2.23043,-9.257177 9.04694,-17.288209 17.87273,-20.896908 8.30428,-3.568177 18.18895,-3.164216 26.1672,1.088985 7.00888,3.65833 12.43863,10.145624 14.89358,17.652854 1.08699,3.20568 1.47139,6.609691 1.36379,9.983167 0.0421,2.885081 0.0752,5.770269 0.10187,8.655532 1.61979,0.0931 3.23958,0.186198 4.8593699,0.279297 -0.051,-4.444413 0.13488,-8.901397 -0.2168,-13.335937 -1.0615699,-9.754058 -6.3662199,-18.968414 -14.3369899,-24.706876 -4.58132,-3.37493 -10.11362,-5.662875 -15.66496,-6.45328 -2.06742,-0.29749 -4.08982,-0.424056 -6.17187,-0.382813 z"
           transform="translate(91.442534,-1.4965341)" /></g></g><g
       id="g40"
       inkscape:label="basic lock"
       style="display:inline;opacity:0.2"
       clip-path="url(#clipPath40)"><path
         id="path37"
         style="display:inline;fill:url(#linearGradient1286);fill-opacity:1;stroke:none;stroke-width:0.285028;stroke-linecap:round;stroke-linejoin:round;paint-order:stroke fill markers"
         d="m 2.2266649,62.438926 c 0,0 29.5707191,-2.006118 44.3787361,-2.006118 14.80802,0 44.378734,2.006118 44.378734,2.006118 1.067033,0.04823 1.928019,0.859899 1.928019,1.928025 v 56.118689 c 0,1.06813 -0.859892,1.92803 -1.928019,1.92803 H 2.2266649 c -1.0681251,0 -1.92802526,-0.8599 -1.92802526,-1.92803 V 64.366951 c 0,-1.068126 0.85990016,-1.928025 1.92802526,-1.928025 z"
         sodipodi:nodetypes="szssssssss"
         inkscape:label="lock-house" /><g
         id="g39"
         style="display:inline"><path
           id="path38"
           clip-path="none"
           style="display:inline;fill:#474747;fill-opacity:1;stroke:none;stroke-width:5.80116;stroke-linecap:round;stroke-linejoin:round;stroke-dasharray:none;stroke-opacity:1;paint-order:stroke fill markers"
           d="m 84.496559,37.299918 c -18.468023,-6e-5 -33.43928,14.971195 -33.439219,33.439219 0.0078,0.43746 0.02422,0.874768 0.04916,1.311586 -0.03093,0.129212 -0.04916,0.263936 -0.04916,0.402893 v 8.630276 c 2.26695,-0.138925 5.033353,-0.302711 8.046839,-0.468128 -0.0023,-0.577346 -0.0107,-0.889216 9.19e-4,-5.05523 0.0301,-2.25522 -0.0176,-4.59878 0.125416,-6.795895 0.263321,-3.958813 1.520025,-7.830767 3.572749,-11.221288 1.432943,-2.370199 3.261128,-4.505743 5.417237,-6.304797 4.265557,-3.512415 9.835548,-5.734533 15.442709,-5.902822 0.351,-0.01 0.701745,-0.01276 1.052943,-0.0083 5.267973,0.06861 10.525296,1.768064 14.776121,4.892144 5.539627,4.051663 9.429637,10.568152 10.215207,17.460851 0.0859,4.310988 0.13493,8.62261 0.16216,12.934388 3.0211,0.165784 5.7943,0.329822 8.06614,0.469047 v -8.630276 c 0,-0.138957 -0.0187,-0.273681 -0.0496,-0.402893 0.0251,-0.436815 0.0417,-0.874122 0.0496,-1.311586 6e-5,-18.468023 -14.9712,-33.439278 -33.439221,-33.439219 z"
           transform="matrix(1.1248695,0,0,1.1248695,-48.442179,-29.20173)" /><path
           id="path39"
           clip-path="url(#clipPath4)"
           style="display:inline;mix-blend-mode:normal;fill:#ffffff;stroke:none;stroke-width:6.52555;stroke-linecap:round;stroke-linejoin:round;stroke-dasharray:none;stroke-opacity:1;paint-order:stroke fill markers;filter:url(#filter2)"
           d="m -45.730591,16.442318 c -10.77445,0.208426 -21.30855,5.670491 -27.64583,14.393074 -3.14557,4.229351 -5.328164,9.237666 -6.319024,14.370598 -0.58887,2.834956 -0.68302,5.954229 -0.63086,8.938671 -0.003,2.392188 -0.005,4.784376 -0.008,7.176563 1.60742,-0.09245 3.21485,-0.184895 4.822274,-0.277343 0.088,-5.496142 -0.33556,-11.084335 0.91333,-16.485584 2.23043,-9.257177 9.04694,-17.288209 17.87273,-20.896908 8.30428,-3.568177 18.18895,-3.164216 26.1672,1.088985 7.00888,3.65833 12.43863,10.145624 14.89358,17.652854 1.08699,3.20568 1.47139,6.609691 1.36379,9.983167 0.0421,2.885081 0.0752,5.770269 0.10187,8.655532 1.61979,0.0931 3.23958,0.186198 4.8593699,0.279297 -0.051,-4.444413 0.13488,-8.901397 -0.2168,-13.335937 -1.0615699,-9.754058 -6.3662199,-18.968414 -14.3369899,-24.706876 -4.58132,-3.37493 -10.11362,-5.662875 -15.66496,-6.45328 -2.06742,-0.29749 -4.08982,-0.424056 -6.17187,-0.382813 z"
           transform="translate(91.442534,-1.4965341)" /></g></g></g></svg>
