<?xml version="1.0" encoding="UTF-8" standalone="no"?>
<!-- Created with Inkscape (http://www.inkscape.org/) -->

<svg
   width="512"
   height="512"
   viewBox="0 0 135.46666 135.46667"
   version="1.1"
   id="svg5"
   inkscape:version="1.4.2 (ebf0e940d0, 2025-05-08)"
   xml:space="preserve"
   sodipodi:docname="pkcs.svg"
   xmlns:inkscape="http://www.inkscape.org/namespaces/inkscape"
   xmlns:sodipodi="http://sodipodi.sourceforge.net/DTD/sodipodi-0.dtd"
   xmlns:xlink="http://www.w3.org/1999/xlink"
   xmlns="http://www.w3.org/2000/svg"
   xmlns:svg="http://www.w3.org/2000/svg"><sodipodi:namedview
     id="namedview7"
     pagecolor="#242424"
     bordercolor="#666666"
     borderopacity="1"
     inkscape:showpageshadow="0"
     inkscape:pageopacity="0"
     inkscape:pagecheckerboard="1"
     inkscape:deskcolor="#000000"
     inkscape:document-units="px"
     showgrid="false"
     inkscape:zoom="2.6074563"
     inkscape:cx="220.71319"
     inkscape:cy="309.30529"
     inkscape:window-width="3256"
     inkscape:window-height="1080"
     inkscape:window-x="1864"
     inkscape:window-y="0"
     inkscape:window-maximized="0"
     inkscape:current-layer="layer1" /><defs
     id="defs2"><linearGradient
       id="linearGradient3"
       inkscape:collect="always"><stop
         style="stop-color:#ffffff;stop-opacity:1;"
         offset="0"
         id="stop3" /><stop
         style="stop-color:#ffffff;stop-opacity:0;"
         offset="1"
         id="stop4" /></linearGradient><linearGradient
       id="linearGradient32"
       inkscape:collect="always"><stop
         style="stop-color:#adadad;stop-opacity:1;"
         offset="0.5550881"
         id="stop32" /><stop
         style="stop-color:#4d4d4d;stop-opacity:0;"
         offset="1"
         id="stop33" /></linearGradient><inkscape:path-effect
       effect="fillet_chamfer"
       id="path-effect28"
       is_visible="true"
       lpeversion="1"
       nodesatellites_param="F,0,0,1,0,0,0,1 @ F,0,0,1,0,0,0,1 @ F,0,0,1,0,0,0,1 @ F,0,0,1,0,0,0,1 @ F,0,0,1,0,0,0,1 @ F,0,0,1,0,0,0,1 @ F,0,0,1,0,0,0,1 @ F,0,0,1,0,0,0,1 @ F,0,0,1,0,0,0,1 @ F,0,0,1,0,0,0,1 @ F,0,0,1,0,0,0,1 @ F,0,0,1,0,0,0,1 @ F,0,0,1,0,0,0,1 | F,0,0,1,0,0,0,1 @ F,0,0,1,0,0,0,1 @ F,0,1,1,0,1.5874999,0,1 @ F,0,0,1,0,0,0,1 @ F,0,0,1,0,0,0,1 @ F,0,0,1,0,0,0,1 @ F,0,0,1,0,0,0,1 @ F,0,1,1,0,1.5874999,0,1 @ F,0,0,1,0,0,0,1 | F,0,1,1,0,1.5874999,0,1 @ F,0,0,1,0,0,0,1 @ F,0,0,1,0,0,0,1 @ F,0,0,1,0,0,0,1 @ F,0,0,1,0,0,0,1 @ F,0,0,1,0,0,0,1 @ F,0,0,1,0,0,0,1 @ F,0,0,1,0,0,0,1 @ F,0,0,1,0,0,0,1 | F,0,1,1,0,1.5874999,0,1 @ F,0,0,1,0,0,0,1 @ F,0,0,1,0,0,0,1 @ F,0,0,1,0,0,0,1 @ F,0,0,1,0,0,0,1 @ F,0,0,1,0,0,0,1 @ F,0,0,1,0,0,0,1 @ F,0,0,1,0,0,0,1 @ F,0,0,1,0,0,0,1"
       radius="6"
       unit="px"
       method="auto"
       mode="F"
       chamfer_steps="1"
       flexible="false"
       use_knot_distance="true"
       apply_no_radius="true"
       apply_with_radius="true"
       only_selected="true"
       hide_knots="false" /><inkscape:path-effect
       effect="fillet_chamfer"
       id="path-effect14"
       is_visible="true"
       lpeversion="1"
       nodesatellites_param="F,0,1,1,0,1.0583333,0,1 @ F,0,0,1,0,0,0,1 @ F,0,0,1,0,0,0,1 @ F,0,0,1,0,0,0,1 @ F,0,1,1,0,1.0583333,0,1"
       radius="4"
       unit="px"
       method="auto"
       mode="F"
       chamfer_steps="1"
       flexible="false"
       use_knot_distance="true"
       apply_no_radius="true"
       apply_with_radius="true"
       only_selected="true"
       hide_knots="false" /><inkscape:path-effect
       effect="fillet_chamfer"
       id="path-effect13"
       is_visible="true"
       lpeversion="1"
       nodesatellites_param="F,0,0,1,0,0,0,1 @ F,0,0,1,0,0,0,1 @ F,0,0,1,0,0,0,1 @ F,0,0,1,0,0,0,1 @ F,0,0,1,0,0,0,1 @ F,0,0,1,0,0,0,1 @ F,0,0,1,0,0,0,1 @ F,0,0,1,0,0,0,1 @ F,0,0,1,0,0,0,1 @ F,0,0,1,0,0,0,1 @ F,0,0,1,0,0,0,1 @ F,0,0,1,0,0,0,1 @ F,0,0,1,0,0,0,1 @ F,0,0,1,0,0,0,1 @ F,0,0,1,0,0,0,1 @ F,0,0,1,0,0,0,1 @ F,0,0,1,0,0,0,1 @ F,0,0,1,0,0,0,1 @ F,0,0,1,0,0,0,1 @ F,0,0,1,0,0,0,1 @ F,0,0,1,0,0,0,1 @ F,0,0,1,0,0,0,1 @ F,0,0,1,0,0,0,1 @ F,0,0,1,0,0,0,1 @ F,0,0,1,0,0,0,1 @ F,0,0,1,0,0,0,1 @ F,0,0,1,0,0,0,1 @ F,0,0,1,0,0,0,1 @ F,0,0,1,0,0,0,1 @ F,0,0,1,0,0,0,1 @ F,0,0,1,0,0,0,1 @ F,0,0,1,0,0,0,1 @ F,0,0,1,0,0,0,1 @ F,0,0,1,0,0,0,1 @ F,0,0,1,0,0,0,1 @ F,0,0,1,0,0,0,1 @ F,0,0,1,0,0,0,1 @ F,0,0,1,0,0,0,1 @ F,0,0,1,0,0,0,1 @ F,0,0,1,0,0,0,1 @ F,0,0,1,0,0,0,1 @ F,0,0,1,0,0,0,1 | F,0,0,1,0,0,0,1 @ F,0,0,1,0,0,0,1 @ F,0,1,1,0,1.5874999,0,1 @ F,0,0,1,0,0,0,1 @ F,0,0,1,0,0,0,1 @ F,0,0,1,0,0,0,1 @ F,0,0,1,0,0,0,1 @ F,0,1,1,0,1.5874999,0,1 @ F,0,0,1,0,0,0,1 | F,0,1,1,0,1.5874999,0,1 @ F,0,0,1,0,0,0,1 @ F,0,0,1,0,0,0,1 @ F,0,0,1,0,0,0,1 @ F,0,0,1,0,0,0,1 @ F,0,0,1,0,0,0,1 @ F,0,0,1,0,0,0,1 @ F,0,0,1,0,0,0,1 @ F,0,0,1,0,0,0,1 | F,0,1,1,0,1.5874999,0,1 @ F,0,0,1,0,0,0,1 @ F,0,0,1,0,0,0,1 @ F,0,0,1,0,0,0,1 @ F,0,0,1,0,0,0,1 @ F,0,0,1,0,0,0,1 @ F,0,0,1,0,0,0,1 @ F,0,0,1,0,0,0,1 @ F,0,0,1,0,0,0,1"
       radius="6"
       unit="px"
       method="auto"
       mode="F"
       chamfer_steps="1"
       flexible="false"
       use_knot_distance="true"
       apply_no_radius="true"
       apply_with_radius="true"
       only_selected="true"
       hide_knots="false" /><inkscape:path-effect
       effect="fillet_chamfer"
       id="path-effect12"
       is_visible="true"
       lpeversion="1"
       nodesatellites_param="F,0,0,1,0,0,0,1 @ F,0,0,1,0,0,0,1 @ F,0,0,1,0,0,0,1 @ F,0,0,1,0,0,0,1 @ F,0,0,1,0,0,0,1 @ F,0,0,1,0,0,0,1 @ F,0,0,1,0,0,0,1 @ F,0,0,1,0,0,0,1 @ F,0,1,1,0,1.5874999,0,1 @ F,0,0,1,0,0,0,1 @ F,0,0,1,0,0,0,1 @ F,0,0,1,0,0,0,1 @ F,0,0,1,0,0,0,1 @ F,0,0,1,0,0,0,1 @ F,0,0,1,0,0,0,1 @ F,0,0,1,0,0,0,1 @ F,0,0,1,0,0,0,1 @ F,0,0,1,0,0,0,1 @ F,0,0,1,0,0,0,1 @ F,0,0,1,0,0,0,1 @ F,0,0,1,0,0,0,1 @ F,0,0,1,0,0,0,1 @ F,0,0,1,0,0,0,1 @ F,0,0,1,0,0,0,1 @ F,0,0,1,0,0,0,1 @ F,0,0,1,0,0,0,1 @ F,0,0,1,0,0,0,1 @ F,0,0,1,0,0,0,1 @ F,0,0,1,0,0,0,1 @ F,0,0,1,0,0,0,1 @ F,0,0,1,0,0,0,1 @ F,0,0,1,0,0,0,1 @ F,0,0,1,0,0,0,1 @ F,0,0,1,0,0,0,1 @ F,0,0,1,0,0,0,1 @ F,0,0,1,0,0,0,1 @ F,0,0,1,0,0,0,1 @ F,0,0,1,0,0,0,1 @ F,0,0,1,0,0,0,1 @ F,0,0,1,0,0,0,1 @ F,0,0,1,0,0,0,1 | F,0,0,1,0,0,0,1 @ F,0,0,1,0,0,0,1 @ F,0,0,1,0,0,0,1 @ F,0,0,1,0,0,0,1 @ F,0,0,1,0,0,0,1 @ F,0,0,1,0,0,0,1 @ F,0,0,1,0,0,0,1 @ F,0,0,1,0,0,0,1 @ F,0,0,1,0,0,0,1 | F,0,0,1,0,0,0,1 @ F,0,0,1,0,0,0,1 @ F,0,0,1,0,0,0,1 @ F,0,0,1,0,0,0,1 @ F,0,0,1,0,0,0,1 @ F,0,0,1,0,0,0,1 @ F,0,0,1,0,0,0,1 @ F,0,0,1,0,0,0,1 @ F,0,0,1,0,0,0,1 | F,0,0,1,0,0,0,1 @ F,0,0,1,0,0,0,1 @ F,0,0,1,0,0,0,1 @ F,0,0,1,0,0,0,1 @ F,0,0,1,0,0,0,1 @ F,0,0,1,0,0,0,1 @ F,0,0,1,0,0,0,1 @ F,0,0,1,0,0,0,1 @ F,0,0,1,0,0,0,1"
       radius="6"
       unit="px"
       method="auto"
       mode="F"
       chamfer_steps="1"
       flexible="false"
       use_knot_distance="true"
       apply_no_radius="true"
       apply_with_radius="true"
       only_selected="true"
       hide_knots="false" /><inkscape:path-effect
       effect="fillet_chamfer"
       id="path-effect11"
       is_visible="true"
       lpeversion="1"
       nodesatellites_param="F,0,0,1,0,0,0,1 @ F,0,0,1,0,0,0,1 @ F,0,0,1,0,0,0,1 @ F,0,0,1,0,0,0,1 @ F,0,0,1,0,0,0,1 @ F,0,0,1,0,0,0,1 @ F,0,0,1,0,0,0,1 @ F,0,0,1,0,0,0,1 @ F,0,0,1,0,0,0,1 @ F,0,0,1,0,0,0,1 @ F,0,0,1,0,0,0,1 @ F,0,0,1,0,0,0,1 @ F,0,0,1,0,0,0,1 @ F,0,0,1,0,0,0,1 @ F,0,0,1,0,0,0,1 @ F,0,0,1,0,0,0,1 @ F,0,0,1,0,0,0,1 @ F,0,0,1,0,0,0,1 @ F,0,0,1,0,0,0,1 @ F,0,0,1,0,0,0,1 @ F,0,0,1,0,0,0,1 @ F,0,0,1,0,0,0,1 @ F,0,0,1,0,0,0,1 @ F,0,0,1,0,0,0,1 @ F,0,0,1,0,0,0,1 @ F,0,0,1,0,0,0,1 @ F,0,0,1,0,0,0,1 @ F,0,0,1,0,0,0,1 @ F,0,0,1,0,0,0,1 @ F,0,0,1,0,0,0,1 @ F,0,0,1,0,0,0,1 @ F,0,0,1,0,0,0,1 @ F,0,1,1,0,1.5874999,0,1 @ F,0,0,1,0,0,0,1 @ F,0,0,1,0,0,0,1 @ F,0,0,1,0,0,0,1 @ F,0,0,1,0,0,0,1 @ F,0,0,1,0,0,0,1 @ F,0,0,1,0,0,0,1 @ F,0,0,1,0,0,0,1 | F,0,0,1,0,0,0,1 @ F,0,0,1,0,0,0,1 @ F,0,0,1,0,0,0,1 @ F,0,0,1,0,0,0,1 @ F,0,0,1,0,0,0,1 @ F,0,0,1,0,0,0,1 @ F,0,0,1,0,0,0,1 @ F,0,0,1,0,0,0,1 @ F,0,0,1,0,0,0,1 | F,0,0,1,0,0,0,1 @ F,0,0,1,0,0,0,1 @ F,0,0,1,0,0,0,1 @ F,0,0,1,0,0,0,1 @ F,0,0,1,0,0,0,1 @ F,0,0,1,0,0,0,1 @ F,0,0,1,0,0,0,1 @ F,0,0,1,0,0,0,1 @ F,0,0,1,0,0,0,1 | F,0,0,1,0,0,0,1 @ F,0,0,1,0,0,0,1 @ F,0,0,1,0,0,0,1 @ F,0,0,1,0,0,0,1 @ F,0,0,1,0,0,0,1 @ F,0,0,1,0,0,0,1 @ F,0,0,1,0,0,0,1 @ F,0,0,1,0,0,0,1 @ F,0,0,1,0,0,0,1"
       radius="6"
       unit="px"
       method="auto"
       mode="F"
       chamfer_steps="1"
       flexible="false"
       use_knot_distance="true"
       apply_no_radius="true"
       apply_with_radius="true"
       only_selected="true"
       hide_knots="false" /><inkscape:path-effect
       effect="fillet_chamfer"
       id="path-effect10"
       is_visible="true"
       lpeversion="1"
       nodesatellites_param="F,0,0,1,0,0,0,1 @ F,0,0,1,0,0,0,1 @ F,0,0,1,0,0,0,1 @ F,0,0,1,0,0,0,1 @ F,0,0,1,0,0,0,1 @ F,0,0,1,0,0,0,1 @ F,0,0,1,0,0,0,1 @ F,0,0,1,0,0,0,1 @ F,0,0,1,0,0,0,1 @ F,0,0,1,0,0,0,1 @ F,0,1,1,0,1.5874999,0,1 @ F,0,0,1,0,0,0,1 @ F,0,0,1,0,0,0,1 @ F,0,0,1,0,0,0,1 @ F,0,0,1,0,0,0,1 @ F,0,1,1,0,1.5874999,0,1 @ F,0,0,1,0,0,0,1 @ F,0,0,1,0,0,0,1 @ F,0,0,1,0,0,0,1 @ F,0,0,1,0,0,0,1 @ F,0,0,1,0,0,0,1 @ F,0,0,1,0,0,0,1 @ F,0,0,1,0,0,0,1 @ F,0,0,1,0,0,0,1 @ F,0,0,1,0,0,0,1 @ F,0,0,1,0,0,0,1 @ F,0,0,1,0,0,0,1 @ F,0,0,1,0,0,0,1 @ F,0,0,1,0,0,0,1 @ F,0,0,1,0,0,0,1 @ F,0,0,1,0,0,0,1 @ F,0,0,1,0,0,0,1 @ F,0,0,1,0,0,0,1 @ F,0,0,1,0,0,0,1 @ F,0,0,1,0,0,0,1 @ F,0,0,1,0,0,0,1 @ F,0,0,1,0,0,0,1 @ F,0,0,1,0,0,0,1 @ F,0,0,1,0,0,0,1 @ F,0,0,1,0,0,0,1 @ F,0,0,1,0,0,0,1 @ F,0,0,1,0,0,0,1 @ F,0,0,1,0,0,0,1 | F,0,0,1,0,0,0,1 @ F,0,0,1,0,0,0,1 @ F,0,0,1,0,0,0,1 @ F,0,0,1,0,0,0,1 @ F,0,0,1,0,0,0,1 @ F,0,0,1,0,0,0,1 @ F,0,0,1,0,0,0,1 @ F,0,0,1,0,0,0,1 @ F,0,0,1,0,0,0,1 | F,0,0,1,0,0,0,1 @ F,0,0,1,0,0,0,1 @ F,0,0,1,0,0,0,1 @ F,0,0,1,0,0,0,1 @ F,0,0,1,0,0,0,1 @ F,0,0,1,0,0,0,1 @ F,0,0,1,0,0,0,1 @ F,0,0,1,0,0,0,1 @ F,0,0,1,0,0,0,1 | F,0,0,1,0,0,0,1 @ F,0,0,1,0,0,0,1 @ F,0,0,1,0,0,0,1 @ F,0,0,1,0,0,0,1 @ F,0,0,1,0,0,0,1 @ F,0,0,1,0,0,0,1 @ F,0,0,1,0,0,0,1 @ F,0,0,1,0,0,0,1 @ F,0,0,1,0,0,0,1"
       radius="6"
       unit="px"
       method="auto"
       mode="F"
       chamfer_steps="1"
       flexible="false"
       use_knot_distance="true"
       apply_no_radius="true"
       apply_with_radius="true"
       only_selected="true"
       hide_knots="false" /><inkscape:path-effect
       effect="fillet_chamfer"
       id="path-effect5"
       is_visible="true"
       lpeversion="1"
       nodesatellites_param="F,0,0,1,0,0,0,1 @ F,0,0,1,0,0,0,1 @ F,0,0,1,0,0,0,1 @ F,0,0,1,0,0,0,1 @ F,0,0,1,0,0,0,1 @ F,0,0,1,0,0,0,1 @ F,0,1,1,0,3.7041665,0,1 @ F,0,0,1,0,0,0,1 @ F,0,0,1,0,0,0,1 @ F,0,1,1,0,3.7041665,0,1 @ F,0,0,1,0,0,0,1 @ F,0,0,1,0,0,0,1 @ F,0,0,1,0,0,0,1 @ F,0,0,1,0,0,0,1 @ F,0,0,1,0,0,0,1 | F,0,0,1,0,0,0,1 @ F,0,0,1,0,0,0,1 @ F,0,0,1,0,0,0,1 @ F,0,0,1,0,0,0,1 @ F,0,0,1,0,0,0,1 @ F,0,0,1,0,0,0,1 @ F,0,0,1,0,0,0,1 @ F,0,0,1,0,0,0,1 @ F,0,0,1,0,0,0,1 | F,0,0,1,0,0,0,1 @ F,0,0,1,0,0,0,1 @ F,0,0,1,0,0,0,1 @ F,0,0,1,0,0,0,1 @ F,0,0,1,0,0,0,1 @ F,0,0,1,0,0,0,1 @ F,0,0,1,0,0,0,1 @ F,0,0,1,0,0,0,1 @ F,0,0,1,0,0,0,1 | F,0,0,1,0,0,0,1 @ F,0,0,1,0,0,0,1 @ F,0,0,1,0,0,0,1 @ F,0,0,1,0,0,0,1 @ F,0,0,1,0,0,0,1 @ F,0,0,1,0,0,0,1 @ F,0,0,1,0,0,0,1 @ F,0,0,1,0,0,0,1 @ F,0,0,1,0,0,0,1"
       radius="14"
       unit="px"
       method="auto"
       mode="F"
       chamfer_steps="1"
       flexible="false"
       use_knot_distance="true"
       apply_no_radius="true"
       apply_with_radius="true"
       only_selected="true"
       hide_knots="false" /><inkscape:path-effect
       effect="fillet_chamfer"
       id="path-effect4"
       is_visible="true"
       lpeversion="1"
       nodesatellites_param="F,0,0,1,0,0,0,1 @ F,0,0,1,0,0,0,1 @ F,0,0,1,0,0,0,1 @ F,0,1,1,0,1.5874999,0,1 @ F,0,1,1,0,1.5874999,0,1 @ F,0,0,1,0,0,0,1 @ F,0,0,1,0,0,0,1 | F,0,0,1,0,0,0,1 @ F,0,0,1,0,0,0,1 @ F,0,0,1,0,0,0,1 @ F,0,1,1,0,1.5874999,0,1 @ F,0,1,1,0,1.5874999,0,1 @ F,0,1,1,0,1.5874999,0,1 | F,0,0,1,0,0,0,1 @ F,0,1,1,0,1.5874999,0,1 @ F,0,1,1,0,1.5874999,0,1 @ F,0,1,1,0,1.5874999,0,1 @ F,0,0,1,0,0,0,1 @ F,0,0,1,0,0,0,1"
       radius="6"
       unit="px"
       method="auto"
       mode="F"
       chamfer_steps="1"
       flexible="false"
       use_knot_distance="true"
       apply_no_radius="true"
       apply_with_radius="true"
       only_selected="true"
       hide_knots="false" /><inkscape:path-effect
       effect="fillet_chamfer"
       id="path-effect1"
       is_visible="true"
       lpeversion="1"
       nodesatellites_param="F,0,0,1,0,10.583333,0,1 @ F,0,0,1,0,10.583333,0,1 @ F,0,0,1,0,10.583333,0,1 @ F,0,0,1,0,10.583333,0,1 @ F,0,0,1,0,10.583333,0,1 @ F,0,0,1,0,10.583333,0,1"
       radius="40"
       unit="px"
       method="auto"
       mode="F"
       chamfer_steps="1"
       flexible="false"
       use_knot_distance="true"
       apply_no_radius="true"
       apply_with_radius="true"
       only_selected="false"
       hide_knots="false" /><filter
       style="color-interpolation-filters:sRGB;"
       inkscape:label="Noise Fill"
       id="filter23"
       x="-6.228572e-05"
       y="-6.4178636e-05"
       width="1.0001241"
       height="1.0001284"><feTurbulence
         type="fractalNoise"
         baseFrequency="8 8"
         numOctaves="4"
         seed="338"
         result="turbulence"
         id="feTurbulence22" /><feComposite
         in="SourceGraphic"
         in2="turbulence"
         operator="in"
         result="composite1"
         id="feComposite22" /><feColorMatrix
         values="1 0 0 0 0 0 1 0 0 0 0 0 1 0 0 0 0 0 4 -1 "
         result="color"
         id="feColorMatrix22" /><feFlood
         flood-opacity="1"
         flood-color="rgb(0,0,0)"
         result="flood"
         id="feFlood22" /><feMerge
         result="merge"
         id="feMerge23"><feMergeNode
           in="flood"
           id="feMergeNode22" /><feMergeNode
           in="color"
           id="feMergeNode23" /></feMerge><feComposite
         in2="SourceGraphic"
         operator="in"
         result="composite2"
         id="feComposite23" /></filter><filter
       style="color-interpolation-filters:sRGB;"
       inkscape:label="Noise Fill"
       id="filter26"
       x="0"
       y="0"
       width="1"
       height="1"><feTurbulence
         type="fractalNoise"
         baseFrequency="0.02 8"
         numOctaves="4"
         seed="338"
         result="turbulence"
         id="feTurbulence25" /><feComposite
         in="SourceGraphic"
         in2="turbulence"
         operator="in"
         result="composite1"
         id="feComposite25" /><feColorMatrix
         values="1 0 0 0 0 0 1 0 0 0 0 0 1 0 0 0 0 0 4 -1 "
         result="color"
         id="feColorMatrix25" /><feFlood
         flood-opacity="1"
         flood-color="rgb(0,0,0)"
         result="flood"
         id="feFlood25" /><feMerge
         result="merge"
         id="feMerge26"><feMergeNode
           in="flood"
           id="feMergeNode25" /><feMergeNode
           in="color"
           id="feMergeNode26" /></feMerge><feComposite
         in2="SourceGraphic"
         operator="in"
         result="composite2"
         id="feComposite26" /></filter><linearGradient
       inkscape:collect="always"
       xlink:href="#linearGradient32"
       id="linearGradient33"
       x1="10.159305"
       y1="12.204565"
       x2="63.2402"
       y2="65.285461"
       gradientUnits="userSpaceOnUse" /><linearGradient
       inkscape:collect="always"
       xlink:href="#linearGradient3"
       id="linearGradient4"
       x1="195.66815"
       y1="14.681129"
       x2="166.32547"
       y2="44.435314"
       gradientUnits="userSpaceOnUse"
       gradientTransform="translate(-136.13903,0.01287552)" /></defs><g
     inkscape:label="Layer 1"
     inkscape:groupmode="layer"
     id="layer1"><path
       id="path4"
       style="display:none;opacity:0.385246;fill:#ff0000;stroke:#4d4d4d;stroke-width:0.0149883;stroke-linecap:round;stroke-linejoin:round;stroke-miterlimit:12;paint-order:markers stroke fill"
       d="m 40.922945,148.42287 a 10.384186,10.384186 0 0 0 -5.192035,1.39139 L 15.654811,161.405 a 10.384186,10.384186 0 0 0 -5.19204,8.99298 v 23.18207 a 10.384187,10.384187 0 0 0 5.19204,8.99297 l 20.076099,11.59074 a 10.384186,10.384186 0 0 0 10.384069,0 l 20.076103,-11.59074 a 10.384187,10.384187 0 0 0 5.192034,-8.99297 V 170.39798 A 10.384187,10.384187 0 0 0 66.191082,161.405 L 46.114979,149.81426 a 10.384186,10.384186 0 0 0 -5.192034,-1.39139 z m 0,6.25965 c 1.482909,-3e-5 2.9397,0.3903 4.223944,1.13174 l 9.61592,5.55181 -11.799174,11.79947 a 2.1710588,2.1710588 0 0 1 -1.535129,0.63583 h -1.011122 a 2.1710588,2.1710588 0 0 1 -1.53513,-0.63583 l -11.799176,-11.79947 9.615923,-5.55181 c 1.284245,-0.74144 2.741035,-1.13177 4.223944,-1.13174 z m -18.140217,9.16627 12.708135,12.70814 a 2.1710949,2.1710949 0 0 1 0.635831,1.53513 v 2.99765 a 0.89929695,0.89929695 0 0 1 -0.899297,0.8993 h -18.185 a 0.89929695,0.89929695 0 0 1 -0.899299,-0.8993 v -8.53014 c 4e-5,-3.01807 1.6102,-5.80687 4.223945,-7.31587 z m 36.280431,0 2.415981,1.39491 c 2.613631,1.50908 4.22367,4.29786 4.223654,7.31587 v 8.53014 a 0.89929695,0.89929695 0 0 1 -0.899298,0.8993 H 46.618492 a 0.89929695,0.89929695 0 0 1 -0.899296,-0.8993 v -2.99765 a 2.1710949,2.1710949 0 0 1 0.635831,-1.53513 z"
       sodipodi:insensitive="true" /><path
       id="path10"
       style="display:none;opacity:0.385246;fill:#37c8ab;stroke:#4d4d4d;stroke-width:0.0265728;stroke-linecap:round;stroke-linejoin:round;stroke-miterlimit:12;paint-order:markers stroke fill"
       d="m -23.164181,153.22425 h 12.125988 l 2.6458325,2.94924 v 5.89847 l -2.6458325,2.94924 h -12.125988 z"
       sodipodi:nodetypes="ccccccc"
       sodipodi:insensitive="true" /><path
       style="baseline-shift:baseline;display:none;overflow:visible;opacity:0.385246;vector-effect:none;fill:#ff0000;stroke-linecap:round;stroke-linejoin:round;stroke-miterlimit:12;paint-order:markers stroke fill;enable-background:accumulate;stop-color:#000000"
       d="m 101.16106,162.75114 c -2.052925,6e-5 -4.069665,0.54052 -5.847515,1.56704 l -22.61058,13.05401 c -3.61847,2.08915 -5.84753,5.95003 -5.84751,10.12829 l -1e-5,26.10867 c -1e-5,4.17826 2.22904,8.03914 5.84751,10.12829 l 22.61059,13.05401 c 3.61846,2.08909 8.076555,2.08909 11.695015,0 l 22.61059,-13.05401 c 3.61847,-2.08915 5.84752,-5.95002 5.84751,-10.12828 l -1e-5,-26.10868 c 2e-5,-4.17826 -2.22903,-8.03914 -5.8475,-10.1283 l -22.6106,-13.054 c -1.77784,-1.02652 -3.79457,-1.56697 -5.84749,-1.56704 z m 0,7.04989 c 1.67011,-4e-5 3.31081,0.43957 4.75718,1.27461 l 9.45507,5.45894 a 1.2181533,1.2181533 0 0 1 0.25229,1.91631 l -12.16623,12.16654 c -0.45855,0.45852 -1.08047,0.7161 -1.72894,0.7161 h -1.13876 c -0.648465,0 -1.270375,-0.25758 -1.728935,-0.7161 l -12.16624,-12.16655 a 1.2181525,1.2181525 0 0 1 0.25229,-1.9163 l 9.45507,-5.45894 c 1.44638,-0.83504 3.08708,-1.27465 4.757205,-1.27461 z m -19.307785,11.44599 13.18993,13.18994 c 0.45851,0.45856 0.7161,1.08047 0.7161,1.72893 v 3.37609 c 0,0.55937 -0.45346,1.01283 -1.01283,1.01283 h -20.48076 c -0.55937,0 -1.01283,-0.45346 -1.01283,-1.01283 v -9.60702 c 5e-5,-3.39909 1.81349,-6.53995 4.7572,-8.23946 l 1.3459,-0.77717 a 2.0687335,2.0687335 0 0 1 2.49729,0.32869 z m 41.112885,-0.32877 1.34619,0.77725 c 2.94359,1.6996 4.75688,4.84044 4.75687,8.23946 v 9.60702 c 0,0.55937 -0.45346,1.01283 -1.01283,1.01283 h -20.48076 c -0.55937,0 -1.01283,-0.45346 -1.01283,-1.01283 v -3.37609 c 0,-0.64846 0.25759,-1.27037 0.7161,-1.72893 l 13.18993,-13.18994 a 2.0688402,2.0688402 0 0 1 2.49733,-0.32877 z"
       id="path30"
       sodipodi:insensitive="true" /><path
       id="path22"
       style="display:inline;fill:#cccccc;stroke:#4d4d4d;stroke-width:0.0168805;stroke-linecap:round;stroke-linejoin:round;stroke-miterlimit:12;paint-order:markers stroke fill;filter:url(#filter23)"
       d="M 10.183016,12.180765 C 8.7314359,13.632353 7.6875059,15.440454 7.1561559,17.423349 L 0.39869589,42.642403 c -1.0813,4.035784 0.0725,8.341882 3.02687001,11.296307 L 21.887156,72.400308 c 2.95443,2.954637 7.26074,4.108634 11.29672,3.027275 l 5.62779,-1.50829 c 2.49351,-0.668245 5.15429,0.04463 6.97969,1.870029 l 11.18684,11.186842 c 0.69822,0.698223 1.83026,0.698223 2.52849,0 l 2.39268,-2.392682 2.92603,2.926033 c 0.69822,0.698221 1.83027,0.698222 2.52849,0 l 3.99851,-3.998506 4.45571,0.241571 4.6973,4.697297 0.049,4.649145 7.04595,7.045948 0.24157,4.45572 4.45572,0.24157 4.69729,4.6973 0.24199,4.45613 3.191484,1.50582 4.69729,4.6973 1.39882,3.29847 4.45572,0.24157 4.6973,4.6973 0.24198,4.45614 c 0.0928,0.38621 0.3058,0.56184 0.67839,0.56703 5.75587,0.0751 9.42144,-0.27224 17.80256,-1.67366 1.21905,-5.80007 1.29429,-7.52858 0.71977,-12.35643 l -12.40869,-12.40869 -50.026154,-50.026161 3.8915,-3.891504 c 0.69822,-0.698223 0.69822,-1.830266 0,-2.52849 l -2.78529,-2.785289 c -1.5199,-2.086633 -2.53827,-4.486175 -1.87003,-6.979685 l 1.50829,-5.627783 c 1.08136,-4.035989 -0.0726,-8.342294 -3.02728,-11.296721 L 51.940966,5.4233107 C 48.986536,2.4689644 44.680446,1.3151394 40.644656,2.3964474 l -25.21905,6.7574554 c -1.9829,0.5313507 -3.791,1.5752772 -5.24259,3.0268622 z m 4.98496,4.98496 c 1.18093,-1.180976 2.65198,-2.030369 4.26519,-2.462644 l 10.54604,-2.825501 a 1.2181654,1.2181654 0 0 1 1.53342,1.176666 v 17.205797 c -1.1e-4,0.648501 -0.25784,1.270397 -0.71649,1.728871 l -0.80497,0.804969 c -0.45847,0.458644 -1.08036,0.716374 -1.72887,0.716488 H 11.056506 A 1.2181653,1.2181653 0 0 1 9.8798359,31.976953 L 12.705336,21.430906 c 0.43228,-1.613206 1.28167,-3.084254 2.46264,-4.265181 z M 9.6091259,38.91184 28.262296,38.912219 c 0.64839,-1e-4 1.27026,0.257325 1.72887,0.715665 l 2.38734,2.387333 c 0.39556,0.395671 0.39537,1.037119 -4.1e-4,1.432563 l -14.48203,14.482025 c -0.39551,0.395398 -1.03664,0.395398 -1.43215,-1e-6 L 9.6706559,51.136546 c -2.40348,-2.403547 -3.34202,-5.906804 -2.46223,-9.190057 l 0.40229,-1.501281 a 2.0688653,2.0688653 0 0 1 1.99841,-1.533368 z M 38.447876,9.6080529 39.949156,9.2057563 c 3.28322,-0.8796405 6.78619,0.059164 9.18965,2.4626437 l 6.79326,6.793259 c 0.39539,0.39551 0.39539,1.036642 0,1.432153 l -14.48203,14.482023 c -0.39544,0.395787 -1.03689,0.395971 -1.43256,4.11e-4 l -2.38734,-2.387332 c -0.45834,-0.458612 -0.71576,-1.080489 -0.71566,-1.728871 V 11.606456 a 2.0689088,2.0689088 0 0 1 1.5334,-1.9984031 z"
       sodipodi:nodetypes="sccccccsccsscccccccccccccccsccccccccccccsccccccccccccccccccsccccccccccc" /><path
       id="path1"
       style="display:inline;opacity:0.901639;fill:#999999;stroke:none;stroke-width:0.0168805;stroke-linecap:round;stroke-linejoin:round;stroke-miterlimit:12;paint-order:markers stroke fill;stroke-opacity:1"
       d="M 10.183034,12.180767 C 8.7314494,13.632355 7.6875231,15.440456 7.1561723,17.423351 L 0.39871336,42.642406 c -1.08130562,4.035784 0.0725166,8.341882 3.02686364,11.296307 l 18.461598,18.461598 c 2.954429,2.954637 7.260732,4.108634 11.296719,3.027275 l 5.627786,-1.50829 c 2.493509,-0.668245 5.15429,0.04463 6.979686,1.870029 l 11.186842,11.186842 c 0.698223,0.698223 1.830266,0.698223 2.528489,0 l 2.392682,-2.392682 2.926033,2.926033 c 0.698221,0.698221 1.830267,0.698222 2.52849,0 l 3.998504,-3.998506 4.455719,0.241571 4.697297,4.697297 0.04897,4.649145 7.045949,7.045945 0.241571,4.45572 4.455719,0.24157 4.697294,4.6973 0.241984,4.45613 3.191481,1.50582 4.69729,4.6973 1.39882,3.29847 4.45572,0.24157 4.6973,4.6973 0.24198,4.45614 c 0.0928,0.38621 0.3058,0.56184 0.67839,0.56703 5.75587,0.0751 9.42144,-0.27224 17.80256,-1.67366 1.21905,-5.80007 1.29429,-7.52858 0.71977,-12.35643 L 122.71153,107.02054 72.685377,56.994382 76.57688,53.102878 c 0.698224,-0.698223 0.698224,-1.830266 0,-2.52849 L 73.791591,47.789099 C 72.27169,45.702466 71.253318,43.302924 71.921562,40.809414 l 1.508287,-5.627783 C 74.511211,31.145642 73.357218,26.839337 70.402575,23.88491 L 51.940978,5.4233129 C 48.98655,2.4689664 44.680456,1.3151419 40.644669,2.39645 L 15.425618,9.153905 c -1.982895,0.5313507 -3.790996,1.575277 -5.242584,3.026862 z m 4.984961,4.98496 c 1.180926,-1.180976 2.651976,-2.030369 4.265181,-2.462644 l 10.546047,-2.825501 a 1.2181654,1.2181654 37.50077 0 1 1.533418,1.176666 v 17.205798 c -1.14e-4,0.648501 -0.257842,1.270397 -0.716488,1.728871 l -0.804968,0.804969 C 29.53271,33.25253 28.910816,33.51026 28.262314,33.510374 H 11.056516 A 1.2181653,1.2181653 52.499232 0 1 9.87985,31.976956 l 2.825502,-10.546048 c 0.432275,-1.613206 1.281667,-3.084254 2.462643,-4.265181 z m -5.5588585,21.746116 18.6531775,3.79e-4 c 0.648383,-1e-4 1.270258,0.257325 1.728871,0.715665 l 2.387332,2.387333 c 0.395559,0.395671 0.395376,1.037119 -4.11e-4,1.432563 L 17.896081,57.929808 c -0.395511,0.395398 -1.036642,0.395398 -1.432152,-1e-6 L 9.6706699,51.136549 C 7.267187,48.733002 6.3286482,45.229745 7.2084376,41.946492 L 7.6107337,40.445211 A 2.0688653,2.0688653 142.5011 0 1 9.6091365,38.911843 Z M 38.447889,9.6080551 39.949172,9.2057585 c 3.283219,-0.8796405 6.78619,0.059164 9.189644,2.4626435 l 6.79326,6.793259 c 0.395399,0.39551 0.395399,1.036642 0,1.432153 L 41.450051,34.375838 c -0.395445,0.395787 -1.036894,0.395971 -1.432565,4.11e-4 L 37.630154,31.988917 C 37.171815,31.530305 36.914389,30.908428 36.914489,30.260046 V 11.606458 a 2.0689088,2.0689088 127.49948 0 1 1.5334,-1.9984029 z"
       sodipodi:nodetypes="sccccccsccsscccccccccccccccsccccccccccccsccccccccccccccccccsccccccccccc" /><path
       id="path2"
       style="display:inline;fill:url(#linearGradient4);stroke:none;stroke-width:0.0168805;stroke-linecap:round;stroke-linejoin:round;stroke-miterlimit:12;paint-order:markers stroke fill"
       d="m 43.860556,3.0933556 c -0.34016,-0.012218 -0.68205,-0.00839 -1.02422,0.012402 -2.5701,0.262464 -5.13952,1.2526573 -7.71426,1.8494995 -6.8462,1.8533679 -13.71363,3.6182676 -20.53001,5.5531529 -3.53666,1.256793 -6.1495806,4.544286 -6.8450606,8.200533 -0.10809,0.408646 -0.21646,0.817238 -0.32505,1.225765 a 189.14348,42.32951 41.361138 0 1 3.7894306,2.413806 c 0.2336,-0.812911 0.47767,-1.622831 0.73743,-2.427758 1.33315,-3.39699 4.56893,-5.836975 8.11991,-6.501929 3.32118,-0.846601 6.61339,-1.861036 9.96529,-2.591573 0.0992,-0.0086 0.19932,-0.01201 0.29869,-0.0047 1.49396,0.08005 2.31883,1.738076 2.07222,3.088184 -0.0152,5.626127 0.0401,11.255772 -0.0387,16.879589 -0.25439,1.558836 -1.55042,2.743298 -2.85461,3.49436 -0.11848,0.04759 -0.23793,0.08891 -0.35812,0.124541 a 189.14348,42.32951 41.361138 0 1 66.38096,52.49912 189.14348,42.32951 41.361138 0 1 38.698414,36.334732 c -0.0171,-0.82193 -0.0802,-1.64321 -0.19792,-2.46187 0.0818,-0.62772 -0.25362,-1.12271 -0.73742,-1.48001 C 112.78777,98.79145 92.278216,78.281379 71.768466,57.771626 c -0.58572,-0.921533 0.23606,-1.869896 0.93121,-2.431376 1.03265,-1.123924 2.2871,-2.082443 3.16828,-3.322278 -0.0152,-0.919183 -1.05596,-1.344183 -1.55287,-2.004012 -1.41575,-1.29462 -2.60693,-2.830241 -3.25459,-4.617289 -0.73929,-1.882131 -0.72271,-4.004313 -0.0491,-5.901449 0.74179,-3.063363 2.10938,-6.182207 1.38596,-9.387541 -0.49456,-2.535215 -1.98485,-4.770991 -3.91449,-6.449735 -6.04595,-6.027782 -12.04146,-12.107062 -18.14001,-18.0799876 -1.79925,-1.5164126 -4.10117,-2.3990756 -6.4823,-2.4846028 z m -1.56114,4.7568155 c 3.22034,-0.020884 6.27843,1.6199927 8.35349,4.0286979 2.04653,2.078046 4.17125,4.088263 6.14898,6.228561 0.7508,1.095203 0.0412,2.50562 -0.92139,3.200321 -4.71059,4.693481 -9.37837,9.432727 -14.13402,14.079244 -1.10873,0.841128 -2.6094,0.111301 -3.30729,-0.910539 -1.12495,-1.176798 -2.7884,-2.281723 -2.7156,-4.110343 -0.0748,-5.336366 -0.016,-10.675217 -0.0357,-16.012459 0.10679,-1.305462 -0.19807,-2.682035 0.25941,-3.935161 0.54123,-1.2977919 1.932,-1.908655 3.23701,-2.1202872 1.01539,-0.2737904 2.06037,-0.4566417 3.11506,-0.4480347 z"
       inkscape:label="glare" /><path
       id="path28"
       style="baseline-shift:baseline;display:inline;overflow:visible;opacity:1;vector-effect:none;fill:url(#linearGradient33);stroke-linecap:round;stroke-linejoin:round;stroke-miterlimit:12;paint-order:markers stroke fill;enable-background:accumulate;stop-color:#000000"
       d="M 43.691906,2.0024617 C 42.674521,2.0001869 41.648354,2.1305395 40.639379,2.400887 L 15.420764,9.1591307 C 13.437784,9.6903955 11.62988,10.734237 10.17819,12.185819 8.7266001,13.637507 7.6822546,15.445403 7.1509846,17.428393 L 0.39377441,42.647009 c -1.08140004,4.035897 0.0722287,8.342005 3.02668859,11.296468 l 18.461922,18.461922 c 2.95447,2.954481 7.260578,4.108081 11.296468,3.026688 l 25.218615,-6.75721 c 1.638745,-0.43911 0.968414,-1.902814 -0.410827,-1.53324 l -25.219649,6.757727 c -3.49052,0.935262 -7.205941,-0.06063 -9.761161,-2.615861 L 4.5433919,52.821065 C 1.9881419,50.265844 0.99072058,46.548874 1.9259806,43.058353 L 8.6842243,17.838704 c 0.45918,-1.7139 1.3622747,-3.276811 2.6168947,-4.531506 1.25468,-1.254597 2.816066,-2.156168 4.529956,-2.615344 L 41.050724,3.9341267 c 3.49052,-0.935259 7.207491,0.062161 9.762711,2.6174113 L 69.275357,25.01346 c 2.55523,2.555225 3.551131,6.270642 2.615861,9.761161 L 65.133491,59.99427 c -0.34662,1.293577 1.109082,1.993766 1.533236,0.410829 l 6.758244,-25.219132 c 1.08139,-4.035896 -0.07267,-8.341485 -3.027206,-11.295952 L 51.935847,5.4280924 C 49.720002,3.2122249 46.744062,2.0092863 43.691906,2.0024617 Z m -1.262972,5.297351 C 41.463192,7.2975282 40.48962,7.421647 39.53247,7.6780842 l -1.5012,0.4020427 c -0.596537,0.1598323 -1.126339,0.4647706 -1.555977,0.8702311 -0.14323,0.135199 -0.275675,0.2812486 -0.395325,0.4371826 -0.47862,0.6237434 -0.759127,1.4005414 -0.759127,2.2241534 l 10e-4,18.654158 c 5e-5,1.068866 0.424479,2.09623 1.180289,2.852023 l 2.386935,2.386417 c 1.00219,1.002205 2.675095,1.000688 3.677295,-0.0016 l 14.482319,-14.48232 c 1.00219,-1.002195 1.0022,-2.673546 0,-3.675744 l -6.7939,-6.793901 C 48.152796,8.4487479 45.326159,7.3066663 42.428934,7.2998127 Z m -0.0021,1.5864665 c 2.482977,0.00556 4.903972,0.984304 6.706567,2.7869098 l 6.793384,6.793384 c 0.39553,0.395535 0.396047,1.03642 5.17e-4,1.431954 l -14.48232,14.48232 c -0.39554,0.395535 -1.036941,0.395535 -1.432471,0 L 37.62561,31.993912 c -0.45853,-0.458535 -0.716205,-1.081146 -0.716235,-1.72961 V 11.611177 c 1.76e-4,-0.548566 0.218212,-1.074605 0.606164,-1.462443 0.2567,-0.2567047 0.57643,-0.4413423 0.927075,-0.5353674 l 1.501201,-0.4025594 c 0.820807,-0.2199093 1.655393,-0.3263815 2.483052,-0.324528 z M 30.21521,10.256221 c -0.215732,0.0036 -0.434241,0.03308 -0.652157,0.09147 l -10.546126,2.825667 c -1.88229,0.50438 -3.598014,1.495756 -4.975924,2.873726 -1.37799,1.377929 -2.370886,3.095699 -2.875276,4.977991 L 8.3400593,31.570682 c -0.46711,1.743331 0.9061057,3.531551 2.7109457,3.531568 l 17.205151,-5.17e-4 10e-4,0.0015 c 1.06888,-4.2e-5 2.094672,-0.426025 2.850472,-1.18184 l 0.805118,-0.805119 c 0.75581,-0.755797 1.182317,-1.781594 1.182357,-2.850472 l -0.001,-0.0015 V 13.059151 c -1.8e-5,-1.579231 -1.368774,-2.828268 -2.878893,-2.80293 z m 0.09819,1.584917 c 0.663154,0.0133 1.193782,0.554726 1.193725,1.218013 v 17.205668 c -2e-5,0.648466 -0.257178,1.270045 -0.715718,1.728577 l -0.805119,0.805635 c -0.45853,0.458543 -1.080623,0.716208 -1.729093,0.716236 L 11.051005,33.51475 C 10.25013,33.514734 9.6671781,32.75513 9.8743326,31.98151 L 12.7,21.435384 c 0.43229,-1.613207 1.281919,-3.083922 2.462899,-4.264856 1.18092,-1.180972 2.652172,-2.030623 4.265372,-2.462899 l 10.54561,-2.82515 c 0.110664,-0.02968 0.224962,-0.04359 0.339514,-0.04134 z M 9.6030313,37.32847 c -0.82362,0 -1.5998869,0.280995 -2.2236369,0.759644 -0.15594,0.119664 -0.3019726,0.251578 -0.4371826,0.394808 -0.4056,0.42969 -0.7098743,0.959821 -0.8697143,1.556494 l -0.4025594,1.5012 c -1.02592,3.828623 0.07048,7.919541 2.8732096,10.722343 l 6.7933833,6.793901 c 1.0022,1.002196 2.674072,1.001681 3.676262,-5.17e-4 L 33.494596,44.57454 c 1.0022,-1.002195 1.003713,-2.675104 10e-4,-3.677295 l -2.386417,-2.386418 c -0.7558,-0.7558 -1.783162,-1.180761 -2.852022,-1.180806 z m 5.168e-4,1.588017 H 28.25719 c 0.64847,3.2e-5 1.270563,0.257701 1.729093,0.716235 l 2.386934,2.387452 c 0.39554,0.395535 0.39554,1.036936 0,1.43247 L 17.891414,57.934448 c -0.39553,0.395535 -1.036931,0.395535 -1.432471,0 L 9.6655598,51.141581 c -2.40348,-2.403552 -3.342162,-5.906885 -2.462382,-9.190137 l 0.4020426,-1.5012 C 7.699305,40.099358 7.8841302,39.779434 8.141105,39.522652 8.5289361,39.13469 9.0549795,38.916651 9.6035481,38.916487 Z"
       sodipodi:nodetypes="sccccsccccscccccccccccsccccssccccccccccssscccccssccccccccccccccccccccccscccccccccccsscsccccccccscccccccccccccc" /><path
       id="path15"
       style="display:inline;fill:#666666;stroke:none;stroke-width:0.0168805;stroke-linecap:round;stroke-linejoin:round;stroke-miterlimit:12;paint-order:markers stroke fill"
       d="m 42.431957,8.3522338 c -0.82766,-0.0019 -1.66173,0.104101 -2.48253,0.324011 l -1.50172,0.402559 a 2.0689088,2.0689088 0 0 0 -1.53324,1.9983282 v 0.529167 a 2.0689088,2.0689088 0 0 1 1.53324,-1.9983282 l 1.50172,-0.402559 c 3.28322,-0.879641 6.786163,0.05942 9.189617,2.4628982 l 6.792867,6.792867 c 0.129788,0.129824 0.217417,0.286273 0.262,0.451652 0.09124,-0.33845 0.0036,-0.715133 -0.262,-0.980818 L 49.139044,11.139144 C 47.336454,9.3365308 44.914947,8.3578358 42.431957,8.3522338 Z m -12.11295,2.9548582 a 1.2181654,1.2181654 0 0 0 -0.33952,0.04082 l -10.54612,2.825668 c -1.61321,0.432275 -3.08446,1.281922 -4.26538,2.462898 -1.18098,1.180927 -2.0301,2.65165 -2.46238,4.264856 l -2.8256598,10.54613 a 1.2181653,1.2181653 0 0 0 -0.00982,0.579293 1.2181653,1.2181653 0 0 1 0.00982,-0.05013 L 12.705607,21.430505 c 0.43228,-1.613206 1.2814,-3.083929 2.46238,-4.264856 1.18092,-1.180976 2.65217,-2.030624 4.26538,-2.462899 l 10.54612,-2.825667 a 1.2181654,1.2181654 0 0 1 1.53324,1.176672 v -0.529166 a 1.2181654,1.2181654 0 0 0 -1.19372,-1.217497 z m 43.506386,20.583756 c -0.02089,0.921817 -0.150724,1.84866 -0.395325,2.761589 L 71.921633,40.28 c -0.167398,0.624636 -0.22874,1.2432 -0.203088,1.8526 0.01863,-0.437388 0.08394,-0.878829 0.203088,-1.323433 l 1.508435,-5.627564 c 0.291465,-1.08784 0.420141,-2.195402 0.395325,-3.290755 z M 9.6091572,38.382442 a 2.0688653,2.0688653 0 0 0 -1.99833,1.533239 l -0.40256,1.501201 c -0.24155,0.901436 -0.34566,1.819674 -0.32039,2.726965 0.02044,-0.733766 0.12571,-1.471278 0.32039,-2.197799 l 0.40256,-1.5012 a 2.0688653,2.0688653 0 0 1 1.99833,-1.53324 l 18.6531298,5.17e-4 c 0.64838,-1e-4 1.27047,0.257379 1.72909,0.715719 l 2.38693,2.386934 c 0.12979,0.129828 0.21742,0.286275 0.262,0.451652 0.09124,-0.338439 0.0036,-0.715122 -0.262,-0.980819 l -2.38693,-2.386934 c -0.45862,-0.45834 -1.08071,-0.715819 -1.72909,-0.715719 z m -9.60612995,7.021276 c -0.07145,3.15326 1.13646995,6.248773 3.42252995,8.53488 L 21.886957,72.400003 c 2.95443,2.954637 7.261,4.108564 11.29699,3.027205 l 5.62756,-1.507918 c 2.49351,-0.668245 5.15454,0.04425 6.97994,1.869653 l 11.186912,11.186914 c 0.698223,0.698223 1.830305,0.698223 2.528528,0 l 2.392619,-2.392618 2.925919,2.925919 c 0.698221,0.698221 1.830305,0.698222 2.528528,0 l 3.998722,-3.998205 4.455542,0.241329 4.697388,4.697387 0.04858,4.649324 7.046081,7.045567 0.241846,4.45606 4.455542,0.24133 4.697388,4.69738 0.241845,4.45606 3.191533,1.50585 4.69739,4.69739 1.39888,3.29851 4.45554,0.24133 4.69739,4.69739 0.24184,4.45605 c 0.0928,0.38621 0.30593,0.56222 0.67852,0.56741 5.75587,0.0751 9.42141,-0.27238 17.80253,-1.6738 0.77975,-3.70997 1.09144,-5.7544 1.06453,-8.00933 -0.025,2.05768 -0.34612,4.06205 -1.06453,7.48017 -8.38112,1.40142 -12.04666,1.74889 -17.80253,1.67379 -0.37259,-0.005 -0.58572,-0.18119 -0.67852,-0.5674 l -0.24184,-4.45606 -4.69739,-4.69739 -4.45554,-0.24133 -1.39888,-3.2985 -4.69739,-4.69739 -3.191533,-1.50585 -0.241845,-4.45606 -4.697388,-4.69739 -4.455542,-0.24133 -0.241846,-4.456057 -7.046081,-7.04556 -0.04858,-4.64933 -4.697388,-4.697388 -4.455542,-0.241329 -3.998722,3.998205 c -0.698223,0.698222 -1.830307,0.698221 -2.528528,0 l -2.925919,-2.925919 -2.392619,2.392619 c -0.698223,0.698223 -1.830305,0.698223 -2.528528,0 L 45.791447,75.259777 c -1.8254,-1.825399 -4.48643,-2.537899 -6.97994,-1.869654 l -5.62756,1.507919 c -4.03599,1.081359 -8.34256,-0.07257 -11.29699,-3.027206 L 3.4255572,53.409431 C 1.2675472,51.251369 0.07027725,48.372023 0.00302725,45.403718 Z M 77.081008,51.573884 c -0.05444,0.365842 -0.222223,0.7178 -0.503845,0.999423 l -3.891752,3.891752 0.264583,0.264583 3.627169,-3.627169 c 0.416601,-0.416601 0.584381,-0.987403 0.503845,-1.528589 z" /><path
       id="path26"
       style="display:inline;opacity:1;mix-blend-mode:normal;fill:#8f8f8f;stroke:none;stroke-width:0.0302615;stroke-linecap:round;stroke-linejoin:round;stroke-miterlimit:12;paint-order:markers stroke fill;fill-opacity:1"
       d="m 105.30482,93.29143 104.205,10e-7 c 1.36754,-1.743761 2.83564,-3.74739 4.65079,-6.291447 -0.0746,-0.114304 -0.14813,-0.226479 -0.22058,-0.336972 l -108.6352,-1.1e-5 a 1.0583334,1.0583334 0 0 0 -1.05834,1.058333 v 4.511763 a 1.0583331,1.0583331 0 0 0 1.05833,1.058333 z"
       transform="rotate(45,120.2194,13.113457)" /><path
       id="path18"
       style="display:inline;opacity:1;fill:#4d4d4d;stroke:none;stroke-width:0.0302615;stroke-linecap:round;stroke-linejoin:round;stroke-miterlimit:12;paint-order:markers stroke fill"
       d="m 56.917226,54.264738 c -0.28067,4.4e-5 -0.549828,0.111574 -0.74827,0.310059 l -3.18999,3.189986 c -0.264928,0.265102 -0.369889,0.650551 -0.27595,1.013375 0.04707,-0.183158 0.142358,-0.350358 0.27595,-0.484208 l 3.333493,-3.333489 c 0.413345,-0.413538 0.796709,-0.413538 1.210054,0 l 76.832367,76.832879 h 5.2e-4 c 0.0148,-0.002 0.0301,-0.005 0.045,-0.008 0.0281,-0.13355 0.0553,-0.26493 0.0822,-0.39429 L 57.666016,54.574797 c -0.198569,-0.198612 -0.46794,-0.310153 -0.74879,-0.310059 z"
       sodipodi:nodetypes="ccccccccccccc" /><path
       id="path14"
       style="display:inline;opacity:1;fill:#e6e6e6;stroke:none;stroke-width:0.0302615;stroke-linecap:round;stroke-linejoin:round;stroke-miterlimit:12;paint-order:markers stroke fill"
       d="m 52.703002,58.248535 c -0.09374,0.362663 0.01121,0.747863 0.27595,1.012858 l 73.683878,73.684387 4e-5,-0.52916 -73.683918,-73.684394 c -0.133513,-0.133706 -0.228794,-0.300718 -0.27595,-0.483691 z"
       sodipodi:nodetypes="cccccc" /><path
       id="rect5"
       style="display:inline;opacity:0.389344;mix-blend-mode:soft-light;fill:#b3b3b3;stroke:none;stroke-width:0.0302615;stroke-linecap:round;stroke-linejoin:round;stroke-miterlimit:12;paint-order:markers stroke fill;filter:url(#filter26)"
       d="m 105.30482,93.29143 104.205,10e-7 c 1.36754,-1.743761 2.83564,-3.74739 4.65079,-6.291447 -0.0746,-0.114304 -0.14813,-0.226479 -0.22058,-0.336972 l -108.6352,-1.1e-5 a 1.0583334,1.0583334 0 0 0 -1.05834,1.058333 v 4.511763 a 1.0583331,1.0583331 0 0 0 1.05833,1.058333 z"
       transform="rotate(45,120.2194,13.113456)" /><path
       id="path21"
       style="display:inline;opacity:1;fill:#cccccc;stroke:none;stroke-width:0.0168805;stroke-linecap:round;stroke-linejoin:round;stroke-miterlimit:12;paint-order:markers stroke fill"
       d="m 43.696497,1.9977653 c -1.01739,-0.00227 -2.04307,0.128616 -3.05201,0.398942 l -25.21914,6.757211 c -1.98289,0.531351 -3.79099,1.5756197 -5.24257,3.0272047 -1.4515895,1.451588 -2.4953395,3.259679 -3.0266895,5.242574 L 0.39836748,42.642829 c -0.29147,1.087843 -0.42015,2.194881 -0.39533,3.290239 0.02089,-0.921821 0.15072,-1.848141 0.39533,-2.761072 L 7.1560875,17.952864 c 0.53135,-1.982895 1.5751,-3.790986 3.0266895,-5.242574 1.45158,-1.451585 3.25968,-2.495855 5.24257,-3.0272057 l 25.21914,-6.75721 c 4.03579,-1.081308 8.34204,0.072343 11.29647,3.026689 l 18.4614,18.4619217 c 2.15828,2.158098 3.35579,5.037217 3.42305,8.005712 0.07145,-3.153453 -1.13672,-6.248741 -3.42305,-8.534879 L 51.940957,5.4233963 c -2.21583,-2.215759 -5.19229,-3.418809 -8.24446,-3.425631 z m 12.49691,17.4449297 c -0.04458,0.16538 -0.1317,0.321311 -0.26148,0.451135 l -14.48181,14.48232 c -0.39544,0.395787 -1.03731,0.396077 -1.43298,5.17e-4 l -2.38694,-2.387451 c -0.45816,-0.458434 -0.71562,-1.07995 -0.71572,-1.72806 v 0.528133 c -10e-5,0.648382 0.25738,1.270482 0.71572,1.729094 l 2.38694,2.387451 c 0.39567,0.39556 1.03754,0.39527 1.43298,-5.17e-4 l 14.48181,-14.48232 c 0.26561,-0.265686 0.35272,-0.641852 0.26148,-0.980302 z m -24.68067,10.817428 c -1.1e-4,0.648501 -0.25811,1.270619 -0.71675,1.729093 l -0.80512,0.805119 c -0.45848,0.458644 -1.08007,0.716121 -1.72857,0.716235 h -17.20619 a 1.2181653,1.2181653 0 0 1 -1.1859695,-0.954464 1.2181653,1.2181653 0 0 0 1.1859695,1.483631 h 17.20619 c 0.6485,-1.14e-4 1.27009,-0.257592 1.72857,-0.716236 l 0.80512,-0.805118 c 0.45864,-0.458474 0.71664,-1.080593 0.71675,-1.729094 z m 40.2053,12.402343 c -0.08583,2.015653 0.82436,3.941408 2.07326,5.655986 l 2.78536,2.785359 c 0.28163,0.281623 0.44992,0.633581 0.50436,0.999423 0.08054,-0.541186 -0.08775,-1.111988 -0.50436,-1.528589 l -2.78536,-2.78536 c -1.13916,-1.563923 -1.99651,-3.303526 -2.07326,-5.126819 z m -39.07823,0.33383 c -0.04463,0.165558 -0.13199,0.321753 -0.262,0.451652 l -14.4818,14.48232 c -0.39551,0.395398 -1.03697,0.395399 -1.43248,0 L 9.6706675,51.136884 c -1.74359,-1.743639 -2.71653,-4.065883 -2.7833,-6.463171 -0.07193,2.582232 0.91166,5.12065 2.7833,6.992338 l 6.7928595,6.793384 c 0.39551,0.395399 1.03697,0.395398 1.43248,0 l 14.4818,-14.48232 c 0.26592,-0.265691 0.35329,-0.642183 0.262,-0.980819 z m 40.3102,14.262695 -0.26458,0.264583 50.025883,50.026416 12.40855,12.40854 c 0.20703,1.73976 0.33003,3.07717 0.34519,4.34754 0.0174,-1.43392 -0.10925,-2.89402 -0.34519,-4.87671 l -12.40855,-12.40854 z" /></g></svg>
