<?xml version="1.0" encoding="UTF-8" standalone="no"?>
<!-- Created with Inkscape (http://www.inkscape.org/) -->

<svg
   width="512"
   height="512"
   viewBox="0 0 135.46666 135.46667"
   version="1.1"
   id="svg5"
   inkscape:version="1.4.2 (ebf0e940d0, 2025-05-08)"
   sodipodi:docname="text-vcard.svg"
   xmlns:inkscape="http://www.inkscape.org/namespaces/inkscape"
   xmlns:sodipodi="http://sodipodi.sourceforge.net/DTD/sodipodi-0.dtd"
   xmlns="http://www.w3.org/2000/svg"
   xmlns:svg="http://www.w3.org/2000/svg">
  <sodipodi:namedview
     id="namedview7"
     pagecolor="#242424"
     bordercolor="#666666"
     borderopacity="1"
     inkscape:showpageshadow="0"
     inkscape:pageopacity="0"
     inkscape:pagecheckerboard="1"
     inkscape:deskcolor="#000000"
     inkscape:document-units="px"
     showgrid="false"
     inkscape:zoom="1.3037281"
     inkscape:cx="352.45079"
     inkscape:cy="242.38183"
     inkscape:window-width="3256"
     inkscape:window-height="1080"
     inkscape:window-x="1864"
     inkscape:window-y="0"
     inkscape:window-maximized="0"
     inkscape:current-layer="layer1" />
  <defs
     id="defs2" />
  <g
     inkscape:label="Layer 1"
     inkscape:groupmode="layer"
     id="layer1">
    <path
       id="path2219"
       style="font-variation-settings:'wght' 400;display:inline;fill:#0088aa;stroke:none;stroke-width:0.788963;stroke-linecap:round;stroke-linejoin:round;stroke-dasharray:none;stroke-opacity:1;paint-order:stroke fill markers"
       d="m 67.227998,54.00216 c -6.54825,0.0087 -12.92037,2.449253 -18.174697,6.960992 -13.107876,2.016288 -22.446766,6.07616 -24.985054,10.861689 -0.478351,0.667347 -0.883639,1.40523 -1.198747,2.205636 l -3.731031,9.475832 c -2.048369,5.203079 0.490983,11.041154 5.694062,13.089521 4.501667,1.772241 9.478564,0.109604 12.065195,-3.740543 1.648528,18.337993 7.20994,8.829913 7.20994,27.319133 0,7.59218 6.11098,13.70475 13.703167,13.70475 h 18.834326 c 7.592187,0 13.704754,-6.11257 13.704754,-13.70475 0,-18.49756 5.621231,-9.06708 7.217868,-27.436469 2.563679,3.933559 7.595739,5.648024 12.142889,3.857879 5.20309,-2.04837 7.74244,-7.886436 5.69406,-13.089521 l -3.72944,-9.475832 C 111.28016,73.026801 110.74296,72.121772 110.09757,71.33012 107.19851,66.75072 98.050216,62.904283 85.429647,60.958396 80.16741,56.442011 73.785001,54.002806 67.227998,54.00216 Z"
       sodipodi:nodetypes="cccccscsssscsccccc" />
    <ellipse
       style="font-variation-settings:'wght' 400;fill:#666666;stroke:none;stroke-width:0.624306;stroke-linecap:round;stroke-linejoin:round;stroke-dasharray:none;stroke-opacity:1;paint-order:stroke fill markers"
       id="path2667"
       cx="67.268265"
       cy="54.002342"
       rx="8.7475719"
       ry="9.2125998" />
    <ellipse
       style="font-variation-settings:'wght' 400;display:inline;fill:#808080;stroke:none;stroke-width:1.92666;stroke-linecap:round;stroke-linejoin:round;paint-order:stroke fill markers"
       id="path1475"
       cx="67.228424"
       cy="30.141123"
       rx="20.980242"
       ry="23.861162" />
    <path
       id="path1475-3"
       style="font-variation-settings:'wght' 400;fill:#4d4d4d;stroke-width:2.13721;stroke-linecap:round;stroke-linejoin:round;paint-order:stroke fill markers"
       d="m 90.501557,28.056394 c 0,5.97812 -2.000478,4.632411 -5.244321,0.953209 -2.843289,-3.224896 -1.585089,-14.830945 -5.82903,-18.280836 -2.753983,-2.2387098 -10.752266,2.771139 -13.742038,2.771139 -3.247274,0 -9.309282,-4.1599161 -11.969982,-1.612272 -3.114393,2.982065 -2.704293,12.92541 -4.779966,15.898948 -3.170106,4.54139 -4.980944,6.872088 -4.980944,0.269836 0,-14.618375 10.419742,-26.4689125 23.273145,-26.4689125 12.853401,0 23.273136,11.8505375 23.273136,26.4689125 z"
       sodipodi:nodetypes="sssssssss" />
    <rect
       style="font-variation-settings:'wght' 400;fill:#808080;fill-opacity:1;stroke:none;stroke-width:0.902148;stroke-linecap:round;stroke-linejoin:round;stroke-dasharray:none;stroke-opacity:1;paint-order:stroke fill markers"
       id="rect5016"
       width="12.720254"
       height="41.562477"
       x="51.497795"
       y="69.959076"
       ry="6.360127"
       transform="rotate(20.887174)" />
    <rect
       style="font-variation-settings:'wght' 400;fill:#808080;fill-opacity:1;stroke:none;stroke-width:0.902148;stroke-linecap:round;stroke-linejoin:round;stroke-dasharray:none;stroke-opacity:1;paint-order:stroke fill markers"
       id="rect5016-7"
       width="12.720254"
       height="41.562477"
       x="-75.066559"
       y="118.25688"
       ry="6.360127"
       transform="matrix(-0.93428428,0.35652894,0.35652894,0.93428428,0,0)" />
  </g>
</svg>
