<?xml version="1.0" encoding="UTF-8" standalone="no"?>
<!-- Created with Inkscape (http://www.inkscape.org/) -->

<svg
   width="512"
   height="512"
   viewBox="0 0 135.46666 135.46667"
   version="1.1"
   id="svg5"
   inkscape:version="1.4.2 (ebf0e940d0, 2025-05-08)"
   sodipodi:docname="text-x-stylus.svg"
   xmlns:inkscape="http://www.inkscape.org/namespaces/inkscape"
   xmlns:sodipodi="http://sodipodi.sourceforge.net/DTD/sodipodi-0.dtd"
   xmlns:xlink="http://www.w3.org/1999/xlink"
   xmlns="http://www.w3.org/2000/svg"
   xmlns:svg="http://www.w3.org/2000/svg">
  <sodipodi:namedview
     id="namedview7"
     pagecolor="#242424"
     bordercolor="#666666"
     borderopacity="1"
     inkscape:showpageshadow="0"
     inkscape:pageopacity="0"
     inkscape:pagecheckerboard="1"
     inkscape:deskcolor="#000000"
     inkscape:document-units="px"
     showgrid="false"
     inkscape:zoom="13.915862"
     inkscape:cx="236.24121"
     inkscape:cy="363.47013"
     inkscape:window-width="3256"
     inkscape:window-height="1080"
     inkscape:window-x="1864"
     inkscape:window-y="0"
     inkscape:window-maximized="0"
     inkscape:current-layer="layer1" />
  <defs
     id="defs2">
    <linearGradient
       id="linearGradient12"
       inkscape:collect="always">
      <stop
         style="stop-color:#cccccc;stop-opacity:1;"
         offset="0"
         id="stop11" />
      <stop
         style="stop-color:#474747;stop-opacity:1;"
         offset="1"
         id="stop12" />
    </linearGradient>
    <linearGradient
       id="linearGradient10"
       inkscape:collect="always">
      <stop
         style="stop-color:#cccccc;stop-opacity:1;"
         offset="0"
         id="stop9" />
      <stop
         style="stop-color:#474747;stop-opacity:1;"
         offset="1"
         id="stop10" />
    </linearGradient>
    <linearGradient
       id="linearGradient42"
       inkscape:collect="always">
      <stop
         style="stop-color:#00ccff;stop-opacity:0;"
         offset="0"
         id="stop44" />
      <stop
         style="stop-color:#ffffff;stop-opacity:1;"
         offset="0.4994759"
         id="stop42" />
      <stop
         style="stop-color:#00ccff;stop-opacity:0;"
         offset="1"
         id="stop43" />
    </linearGradient>
    <linearGradient
       id="linearGradient40"
       inkscape:collect="always">
      <stop
         style="stop-color:#000000;stop-opacity:0;"
         offset="0"
         id="stop41" />
      <stop
         style="stop-color:#000000;stop-opacity:1;"
         offset="1"
         id="stop40" />
    </linearGradient>
    <linearGradient
       id="linearGradient38"
       inkscape:collect="always">
      <stop
         style="stop-color:#ffffff;stop-opacity:1;"
         offset="0"
         id="stop38" />
      <stop
         style="stop-color:#ffffff;stop-opacity:0;"
         offset="1"
         id="stop39" />
    </linearGradient>
    <linearGradient
       id="linearGradient34"
       inkscape:collect="always">
      <stop
         style="stop-color:#363636;stop-opacity:1;"
         offset="0"
         id="stop34" />
      <stop
         style="stop-color:#b0b0b0;stop-opacity:1;"
         offset="1"
         id="stop35" />
    </linearGradient>
    <linearGradient
       id="linearGradient26"
       inkscape:collect="always">
      <stop
         style="stop-color:#2b2b2b;stop-opacity:1;"
         offset="0"
         id="stop26" />
      <stop
         style="stop-color:#666666;stop-opacity:0;"
         offset="1"
         id="stop27" />
    </linearGradient>
    <linearGradient
       id="linearGradient18"
       inkscape:collect="always">
      <stop
         style="stop-color:#cccccc;stop-opacity:1;"
         offset="0"
         id="stop18" />
      <stop
         style="stop-color:#474747;stop-opacity:1;"
         offset="1"
         id="stop19" />
    </linearGradient>
    <linearGradient
       id="linearGradient6"
       inkscape:collect="always">
      <stop
         style="stop-color:#000000;stop-opacity:1;"
         offset="0"
         id="stop7" />
      <stop
         style="stop-color:#ffffff;stop-opacity:1;"
         offset="1"
         id="stop8" />
    </linearGradient>
    <linearGradient
       id="linearGradient1"
       inkscape:collect="always">
      <stop
         style="stop-color:#666666;stop-opacity:1;"
         offset="0"
         id="stop1" />
      <stop
         style="stop-color:#b6aeae;stop-opacity:1;"
         offset="0.2291927"
         id="stop2" />
      <stop
         style="stop-color:#464646;stop-opacity:1;"
         offset="0.40989745"
         id="stop3" />
      <stop
         style="stop-color:#7d7d7d;stop-opacity:1;"
         offset="0.59820151"
         id="stop4" />
      <stop
         style="stop-color:#404040;stop-opacity:1;"
         offset="0.78998208"
         id="stop5" />
      <stop
         style="stop-color:#b5b5b5;stop-opacity:1;"
         offset="1"
         id="stop6" />
    </linearGradient>
    <radialGradient
       inkscape:collect="always"
       xlink:href="#linearGradient1"
       id="radialGradient2"
       cx="48.494411"
       cy="93.299461"
       fx="48.494411"
       fy="93.299461"
       r="56.113914"
       gradientTransform="matrix(3.4862828,-5.8526136e-7,0,3.569871,-169.63925,-174.06589)"
       gradientUnits="userSpaceOnUse" />
    <linearGradient
       inkscape:collect="always"
       xlink:href="#linearGradient6"
       id="linearGradient8"
       x1="59.764641"
       y1="4.879096"
       x2="73.469643"
       y2="124.84746"
       gradientUnits="userSpaceOnUse"
       gradientTransform="matrix(1,0,0,0.98444976,0,0.07587111)" />
    <linearGradient
       inkscape:collect="always"
       xlink:href="#linearGradient12"
       id="linearGradient19"
       x1="87.215919"
       y1="126.30984"
       x2="87.215919"
       y2="133.71817"
       gradientUnits="userSpaceOnUse"
       gradientTransform="translate(0,-1.4439972)" />
    <linearGradient
       inkscape:collect="always"
       xlink:href="#linearGradient10"
       id="linearGradient20"
       gradientUnits="userSpaceOnUse"
       x1="87.215919"
       y1="126.30984"
       x2="87.215919"
       y2="133.71817"
       gradientTransform="translate(-38.964944,-1.4443322)" />
    <linearGradient
       inkscape:collect="always"
       xlink:href="#linearGradient18"
       id="linearGradient22"
       x1="67.73333"
       y1="125.80984"
       x2="67.73333"
       y2="134.21817"
       gradientUnits="userSpaceOnUse"
       gradientTransform="translate(0,-1.4439972)" />
    <radialGradient
       inkscape:collect="always"
       xlink:href="#linearGradient26"
       id="radialGradient27"
       cx="86.81957"
       cy="146.15806"
       fx="86.81957"
       fy="146.15806"
       r="6.8163845"
       gradientTransform="matrix(1,0,0,0.54342078,0,66.732735)"
       gradientUnits="userSpaceOnUse" />
    <radialGradient
       inkscape:collect="always"
       xlink:href="#linearGradient26"
       id="radialGradient29"
       cx="47.854626"
       cy="146.15773"
       fx="47.854626"
       fy="146.15773"
       r="6.8163843"
       gradientTransform="matrix(1,0,0,0.54342005,0,66.732689)"
       gradientUnits="userSpaceOnUse" />
    <radialGradient
       inkscape:collect="always"
       xlink:href="#linearGradient26"
       id="radialGradient30"
       cx="67.336983"
       cy="146.15807"
       fx="67.336983"
       fy="146.15807"
       r="3.7041664"
       gradientTransform="translate(0,5.9186679e-5)"
       gradientUnits="userSpaceOnUse" />
    <linearGradient
       inkscape:collect="always"
       xlink:href="#linearGradient34"
       id="linearGradient35"
       x1="68.594261"
       y1="145.46761"
       x2="68.594521"
       y2="152.87595"
       gradientUnits="userSpaceOnUse"
       gradientTransform="translate(-0.86032338,-20.601811)" />
    <filter
       inkscape:collect="always"
       style="color-interpolation-filters:sRGB"
       id="filter35"
       x="-0.017265514"
       y="-0.13917423"
       width="1.034531"
       height="1.2783485">
      <feGaussianBlur
         inkscape:collect="always"
         stdDeviation="0.37109314"
         id="feGaussianBlur35" />
    </filter>
    <radialGradient
       inkscape:collect="always"
       xlink:href="#linearGradient1"
       id="radialGradient37"
       cx="76.832504"
       cy="51.841434"
       fx="76.832504"
       fy="51.841434"
       r="56.113888"
       gradientTransform="matrix(1.7978932,0,1.6047912e-7,2.040765,-54.043982,-70.494486)"
       gradientUnits="userSpaceOnUse" />
    <linearGradient
       inkscape:collect="always"
       xlink:href="#linearGradient38"
       id="linearGradient39"
       x1="147.51534"
       y1="73.675942"
       x2="149.1057"
       y2="73.675941"
       gradientUnits="userSpaceOnUse"
       gradientTransform="translate(0.79933752,0.86828574)" />
    <linearGradient
       inkscape:collect="always"
       xlink:href="#linearGradient40"
       id="linearGradient41"
       x1="150.35371"
       y1="73.675941"
       x2="151.94407"
       y2="73.675943"
       gradientUnits="userSpaceOnUse"
       gradientTransform="translate(0.79933752,0.86828574)" />
    <filter
       inkscape:collect="always"
       style="color-interpolation-filters:sRGB"
       id="filter41"
       x="-0.28157357"
       y="-0.008913508"
       width="1.5631471"
       height="1.017827">
      <feGaussianBlur
         inkscape:collect="always"
         stdDeviation="0.3527075"
         id="feGaussianBlur41" />
    </filter>
    <linearGradient
       inkscape:collect="always"
       xlink:href="#linearGradient42"
       id="linearGradient43"
       x1="164.63336"
       y1="74.657197"
       x2="170.08677"
       y2="74.657197"
       gradientUnits="userSpaceOnUse"
       gradientTransform="translate(-8.4460293,-3.0495253)" />
    <clipPath
       clipPathUnits="userSpaceOnUse"
       id="clipPath44">
      <path
         id="path45"
         style="font-variation-settings:'opsz' 32;opacity:1;fill:url(#linearGradient45);stroke:none;stroke-width:3.175;stroke-linecap:round;stroke-linejoin:round;stroke-miterlimit:12;stroke-dasharray:none;stroke-opacity:1;paint-order:markers stroke fill"
         d="m 158.9143,23.570038 c -1.51051,0 -2.72697,1.216456 -2.72697,2.726966 v 78.352326 c 0,0.17815 0.0164,0.34205 0.046,0.49248 a 2.7265537,12.269492 0 0 0 -0.046,2.23397 2.7265537,12.269492 0 0 0 2.72697,12.26953 2.7265537,12.269492 0 0 0 2.72644,-12.26953 2.7265537,12.269492 0 0 0 -0.0455,-2.23397 c 0.0296,-0.15044 0.0455,-0.31433 0.0455,-0.49248 V 26.297004 c 0,-1.51051 -1.21593,-2.726966 -2.72644,-2.726966 z" />
    </clipPath>
    <linearGradient
       inkscape:collect="always"
       xlink:href="#linearGradient42"
       id="linearGradient45"
       gradientUnits="userSpaceOnUse"
       gradientTransform="translate(-8.4460293,-3.0495253)"
       x1="164.63336"
       y1="74.657197"
       x2="170.08677"
       y2="74.657197" />
    <filter
       inkscape:collect="always"
       style="color-interpolation-filters:sRGB"
       id="filter45"
       x="-0.28596429"
       y="-0.016231862"
       width="1.5719286"
       height="1.0324637">
      <feGaussianBlur
         inkscape:collect="always"
         stdDeviation="0.64978357"
         id="feGaussianBlur45" />
    </filter>
    <clipPath
       clipPathUnits="userSpaceOnUse"
       id="clipPath52">
      <path
         style="font-variation-settings:'opsz' 32;baseline-shift:baseline;display:inline;overflow:visible;vector-effect:none;fill:#d4aa00;stroke-width:0.999998;stroke-linecap:round;stroke-linejoin:round;stroke-miterlimit:12;paint-order:markers stroke fill;enable-background:accumulate;stop-color:#000000"
         d="m 188.9878,23.254726 c -1.51051,0 -2.72697,1.216456 -2.72697,2.726966 v 78.352328 c 0,0.17815 0.0164,0.34205 0.046,0.49248 a 2.7265537,12.269492 0 0 0 -0.046,2.23397 2.7265537,12.269492 0 0 0 2.72697,12.26953 2.7265537,12.269492 0 0 0 2.72644,-12.26953 2.7265537,12.269492 0 0 0 -0.0455,-2.23397 c 0.0296,-0.15044 0.0455,-0.31433 0.0455,-0.49248 V 25.981692 c 0,-1.51051 -1.21593,-2.726966 -2.72644,-2.726966 z"
         id="path53" />
    </clipPath>
    <filter
       inkscape:collect="always"
       style="color-interpolation-filters:sRGB"
       id="filter53"
       x="-0.2444838"
       y="-0.013282703"
       width="1.4889676"
       height="1.0265654">
      <feGaussianBlur
         inkscape:collect="always"
         stdDeviation="0.66333754"
         id="feGaussianBlur53" />
    </filter>
    <filter
       inkscape:collect="always"
       style="color-interpolation-filters:sRGB"
       id="filter54"
       x="-0.09404476"
       y="-0.0029770859"
       width="1.1880895"
       height="1.0059542">
      <feGaussianBlur
         inkscape:collect="always"
         stdDeviation="0.11780329"
         id="feGaussianBlur54" />
    </filter>
    <filter
       inkscape:collect="always"
       style="color-interpolation-filters:sRGB"
       id="filter55"
       x="-0.00037540624"
       y="-0.00030945725"
       width="1.0007508"
       height="1.0006189">
      <feGaussianBlur
         inkscape:collect="always"
         stdDeviation="0.0060336498"
         id="feGaussianBlur55" />
    </filter>
  </defs>
  <g
     inkscape:label="Layer 1"
     inkscape:groupmode="layer"
     id="layer1">
    <rect
       style="font-variation-settings:'opsz' 32;fill:url(#radialGradient2);stroke-width:8.46667;stroke-linecap:round;stroke-linejoin:round;stroke-miterlimit:12;paint-order:fill markers stroke"
       id="rect1"
       width="112.22783"
       height="135.46666"
       x="11.619418"
       y="0"
       ry="2.2323799" />
    <rect
       style="font-variation-settings:'opsz' 32;fill:#93aca7;stroke:url(#linearGradient8);stroke-width:0.264584;stroke-linecap:round;stroke-linejoin:round;stroke-miterlimit:12;stroke-dasharray:none;paint-order:markers stroke fill"
       id="rect6"
       width="103.60904"
       height="118.10282"
       x="15.928813"
       y="4.879096"
       ry="0.59936345" />
    <path
       style="fill:none;stroke:#5b5b5b;stroke-width:0.529167;stroke-linecap:round;stroke-linejoin:round;stroke-dasharray:none;stroke-opacity:1"
       d="M 63.849918,104.41577 C 38.672065,89.239095 57.278179,78.90174 69.725372,66.05231 c 4.318353,-4.552322 4.908121,-10.969993 3.309431,-17.417611 -1.59869,-6.447618 -9.25743,-13.660986 -15.490815,-14.365024 -6.233385,-0.704038 -8.53578,5.255587 -6.18541,9.753368 2.35037,4.497781 7.369015,8.243493 11.178075,7.757682 3.80906,-0.485811 7.938571,-3.028448 8.764423,-7.87842 0.825852,-4.849972 -1.283078,-12.354277 -6.890488,-17.203854 -5.60741,-4.849577 -16.179428,-10.475017 -23.0181,-10.418947 -6.838672,0.05607 -9.005628,2.011739 -12.783019,4.571024"
       id="path2"
       sodipodi:nodetypes="czzzzzzzzc" />
    <path
       style="font-variation-settings:'opsz' 32;baseline-shift:baseline;display:inline;overflow:visible;vector-effect:none;stroke-linecap:round;stroke-linejoin:round;stroke-miterlimit:12;paint-order:markers stroke fill;enable-background:accumulate;stop-color:#000000"
       d="m 42.517578,124.4681 c -0.813118,0 -1.480469,0.66735 -1.480469,1.48047 v 5.24219 c 0,0.81311 0.667351,1.48046 1.480469,1.48046 h 11.466797 c 0.813118,0 1.480469,-0.66735 1.480469,-1.48046 v -5.24219 c 0,-0.81312 -0.667351,-1.48047 -1.480469,-1.48047 z m 0,0.79492 h 11.466797 c 0.38711,0 0.685547,0.29844 0.685547,0.68555 v 5.24219 c 0,0.38711 -0.298437,0.6875 -0.685547,0.6875 H 42.517578 c -0.38711,0 -0.685547,-0.30039 -0.685547,-0.6875 v -5.24219 c 0,-0.38711 0.298437,-0.68555 0.685547,-0.68555 z"
       id="path15" />
    <path
       style="font-variation-settings:'opsz' 32;baseline-shift:baseline;display:inline;overflow:visible;vector-effect:none;stroke-linecap:round;stroke-linejoin:round;stroke-miterlimit:12;paint-order:markers stroke fill;enable-background:accumulate;stop-color:#000000"
       d="m 67.732422,124.4681 c -2.260242,0 -4.099609,1.84132 -4.09961,4.10156 10e-7,2.26024 1.839368,4.10156 4.09961,4.10156 2.260242,0 4.101562,-1.84132 4.101562,-4.10156 0,-2.26024 -1.84132,-4.10156 -4.101562,-4.10156 z m 0,0.79492 c 1.831267,0 3.308594,1.47537 3.308594,3.30664 0,1.83127 -1.477327,3.3086 -3.308594,3.3086 -1.831268,0 -3.306641,-1.47733 -3.306641,-3.3086 0,-1.83127 1.475373,-3.30664 3.306641,-3.30664 z"
       id="path13" />
    <path
       style="font-variation-settings:'opsz' 32;baseline-shift:baseline;display:inline;overflow:visible;fill:#666666;stroke:url(#linearGradient22);stroke-width:0.264583;stroke-linecap:round;stroke-linejoin:round;stroke-miterlimit:12;stroke-dasharray:none;stroke-opacity:1;paint-order:markers stroke fill;enable-background:accumulate;stop-color:#000000"
       d="M 71.437496,128.57 A 3.7041667,3.7041667 0 0 1 67.73333,132.27416 3.7041667,3.7041667 0 0 1 64.029163,128.57 3.7041667,3.7041667 0 0 1 67.73333,124.86583 3.7041667,3.7041667 0 0 1 71.437496,128.57 Z"
       id="path14" />
    <path
       style="font-variation-settings:'opsz' 32;baseline-shift:baseline;display:inline;overflow:visible;vector-effect:none;stroke-linecap:round;stroke-linejoin:round;stroke-miterlimit:12;paint-order:markers stroke fill;enable-background:accumulate;stop-color:#000000"
       d="m 81.482422,124.4681 c -0.813118,0 -1.480469,0.66735 -1.480469,1.48047 v 5.24219 c 0,0.81311 0.667351,1.48046 1.480469,1.48046 h 11.466797 c 0.813118,0 1.480468,-0.66735 1.480468,-1.48046 v -5.24219 c 0,-0.81312 -0.66735,-1.48047 -1.480468,-1.48047 z m 0,0.79492 h 11.466797 c 0.38711,0 0.685547,0.29844 0.685547,0.68555 v 5.24219 c 0,0.38711 -0.298437,0.6875 -0.685547,0.6875 H 81.482422 c -0.387111,0 -0.685547,-0.30039 -0.685547,-0.6875 v -5.24219 c 0,-0.38711 0.298436,-0.68555 0.685547,-0.68555 z"
       id="path11" />
    <path
       style="font-variation-settings:'opsz' 32;baseline-shift:baseline;display:inline;overflow:visible;fill:#666666;stroke:url(#linearGradient19);stroke-width:0.264583;stroke-linecap:round;stroke-linejoin:round;stroke-miterlimit:12;stroke-dasharray:none;stroke-opacity:1;paint-order:markers stroke fill;enable-background:accumulate;stop-color:#000000"
       d="m 81.482775,124.86583 h 11.466291 c 0.600114,0 1.083239,0.48312 1.083239,1.08324 v 5.24185 c 0,0.60012 -0.483125,1.08324 -1.083239,1.08324 H 81.482775 c -0.600114,0 -1.083239,-0.48312 -1.083239,-1.08324 v -5.24185 c 0,-0.60012 0.483125,-1.08324 1.083239,-1.08324 z"
       id="path12" />
    <path
       style="font-variation-settings:'opsz' 32;baseline-shift:baseline;display:inline;overflow:visible;fill:#666666;stroke:url(#linearGradient20);stroke-width:0.264583;stroke-linecap:round;stroke-linejoin:round;stroke-miterlimit:12;stroke-dasharray:none;stroke-opacity:1;paint-order:markers stroke fill;enable-background:accumulate;stop-color:#000000"
       d="m 42.517831,124.8655 h 11.466291 c 0.600114,0 1.083239,0.48312 1.083239,1.08323 v 5.24185 c 0,0.60012 -0.483125,1.08324 -1.083239,1.08324 H 42.517831 c -0.600114,0 -1.083239,-0.48312 -1.083239,-1.08324 v -5.24185 c 0,-0.60012 0.483125,-1.08323 1.083239,-1.08323 z"
       id="path19" />
    <path
       id="path30"
       style="font-variation-settings:'opsz' 32;baseline-shift:baseline;display:inline;overflow:visible;opacity:0.4;mix-blend-mode:normal;fill:url(#linearGradient35);stroke:none;stroke-width:0.264583;stroke-linecap:round;stroke-linejoin:round;stroke-miterlimit:12;stroke-dasharray:none;stroke-opacity:1;paint-order:markers stroke fill;filter:url(#filter35);enable-background:accumulate;stop-color:#000000"
       d="m 42.401396,125.40795 c -0.760144,0.26881 -0.320812,1.26586 -0.4375,1.86054 0.03449,1.37811 -0.0678,2.77368 0.04883,4.14141 0.371692,0.62337 1.250184,0.21776 1.837109,0.33398 3.416712,-0.009 6.835132,0.0183 10.250782,-0.0137 0.758705,-0.27412 0.321729,-1.26997 0.4375,-1.87031 -0.02991,-1.37483 0.05986,-2.76326 -0.04492,-4.12969 -0.37542,-0.62493 -1.24907,-0.22055 -1.839063,-0.33594 -3.417341,0.009 -6.836452,-0.0183 -10.252734,0.0137 z m 38.974609,0 c -0.745527,0.23167 -0.347416,1.19475 -0.447266,1.76054 0.03444,1.41145 -0.06773,2.84034 0.04883,4.24141 0.407323,0.63271 1.315766,0.21192 1.937109,0.33398 3.383378,-0.009 6.768466,0.0183 10.150781,-0.0137 0.758706,-0.27412 0.32173,-1.26997 0.4375,-1.87031 -0.03006,-1.37406 0.06007,-2.7626 -0.04492,-4.12774 -0.36931,-0.62399 -1.242428,-0.22451 -1.827343,-0.33789 -3.417953,0.009 -6.837973,-0.0183 -10.254688,0.0137 z m -14.345703,0.0684 c -1.828588,0.38294 -2.992522,2.54514 -2.224358,4.26452 0.650478,1.84587 3.170392,2.60268 4.732107,1.41933 1.638998,-1.04845 1.819661,-3.65712 0.328151,-4.91435 -0.741064,-0.71466 -1.836178,-0.9708 -2.8359,-0.7695 z" />
    <g
       id="g30"
       transform="translate(0.396232,-17.587905)"
       style="display:inline;opacity:0.4">
      <path
         style="font-variation-settings:'opsz' 32;baseline-shift:baseline;display:inline;overflow:visible;fill:url(#radialGradient30);stroke:none;stroke-width:0.264583;stroke-linecap:round;stroke-linejoin:round;stroke-miterlimit:12;stroke-dasharray:none;stroke-opacity:1;paint-order:markers stroke fill;enable-background:accumulate;stop-color:#000000"
         d="m 71.041145,146.15807 a 3.7041667,3.7041667 0 0 1 -3.704166,3.70416 3.7041667,3.7041667 0 0 1 -3.704167,-3.70416 3.7041667,3.7041667 0 0 1 3.704167,-3.70417 3.7041667,3.7041667 0 0 1 3.704166,3.70417 z"
         id="path22" />
      <path
         style="font-variation-settings:'opsz' 32;baseline-shift:baseline;display:inline;overflow:visible;fill:url(#radialGradient27);stroke:none;stroke-width:0.264583;stroke-linecap:round;stroke-linejoin:round;stroke-miterlimit:12;stroke-dasharray:none;stroke-opacity:1;paint-order:markers stroke fill;enable-background:accumulate;stop-color:#000000"
         d="m 81.086424,142.4539 h 11.466291 c 0.600114,0 1.083239,0.48312 1.083239,1.08324 v 5.24185 c 0,0.60012 -0.483125,1.08324 -1.083239,1.08324 H 81.086424 c -0.600114,0 -1.083239,-0.48312 -1.083239,-1.08324 v -5.24185 c 0,-0.60012 0.483125,-1.08324 1.083239,-1.08324 z"
         id="path23" />
      <path
         style="font-variation-settings:'opsz' 32;baseline-shift:baseline;display:inline;overflow:visible;fill:url(#radialGradient29);stroke:none;stroke-width:0.264583;stroke-linecap:round;stroke-linejoin:round;stroke-miterlimit:12;stroke-dasharray:none;stroke-opacity:1;paint-order:markers stroke fill;enable-background:accumulate;stop-color:#000000"
         d="m 42.12148,142.45357 h 11.466291 c 0.600114,0 1.083239,0.48312 1.083239,1.08323 v 5.24185 c 0,0.60012 -0.483125,1.08324 -1.083239,1.08324 H 42.12148 c -0.600114,0 -1.083239,-0.48312 -1.083239,-1.08324 v -5.24185 c 0,-0.60012 0.483125,-1.08323 1.083239,-1.08323 z"
         id="path24" />
    </g>
    <path
       id="path35"
       style="font-variation-settings:'opsz' 32;baseline-shift:baseline;display:inline;overflow:visible;vector-effect:none;stroke-linecap:round;stroke-linejoin:round;stroke-miterlimit:12;paint-order:fill markers stroke;enable-background:accumulate;stop-color:#000000;fill:url(#radialGradient37)"
       d="M 13.851867,-5.0000009e-7 C 12.615132,-5.0000009e-7 11.619448,0.9956835 11.619448,2.2324215 V 133.23425 c 0,1.23673 0.995684,2.23242 2.232419,2.23242 H 121.6148 c 1.23674,0 2.23242,-0.99569 2.23242,-2.23242 V 2.2324215 c 0,-1.236738 -0.99568,-2.23242200000009 -2.23242,-2.23242200000009 z M 13.851357,1.5869825 H 121.61532 c 0.38472,0 0.6444,0.260199 0.6444,0.644922 V 133.23373 c 0,0.38473 -0.25968,0.64647 -0.6444,0.64647 H 13.851357 c -0.38472,0 -0.644409,-0.26174 -0.644409,-0.64647 V 2.2319045 c 0,-0.384723 0.259689,-0.644922 0.644409,-0.644922 z" />
    <g
       id="g53"
       transform="rotate(30,140.90485,-48.271992)">
      <path
         id="path37"
         style="font-variation-settings:'opsz' 32;display:inline;fill:#162d50;stroke-width:3.175;stroke-linecap:round;stroke-linejoin:round;stroke-miterlimit:12;paint-order:markers stroke fill"
         d="m 153.25559,110.21744 c 0,6.77625 -1.22072,12.26948 -2.72655,12.26949 -1.50584,2e-5 -2.72656,-5.49323 -2.72656,-12.26949 0,-3.38813 1e-5,-12.269494 1e-5,-12.269494 0,0 1.97363,-8e-6 2.72655,0 0.75292,8e-6 2.72656,0 2.72656,0 0,0 -10e-6,8.881374 -10e-6,12.269494 z"
         sodipodi:nodetypes="ssscscs" />
      <path
         id="rect37"
         style="font-variation-settings:'opsz' 32;display:inline;fill:#0000ff;stroke-width:3.175;stroke-linecap:round;stroke-linejoin:round;stroke-miterlimit:12;paint-order:markers stroke fill"
         d="m 150.52905,26.411789 c 1.51051,0 2.72655,1.216043 2.72655,2.726553 v 78.352548 c 0,0 0,-0.44845 -2.72655,-0.44845 -2.72655,0 -2.72656,0.44845 -2.72656,0.44845 V 29.138342 c 0,-1.51051 1.21605,-2.726553 2.72656,-2.726553 z"
         sodipodi:nodetypes="ssczcss" />
      <path
         id="ellipse41"
         style="font-variation-settings:'opsz' 32;display:inline;opacity:0.28;mix-blend-mode:normal;fill:url(#linearGradient43);stroke:none;stroke-width:3.175;stroke-linecap:round;stroke-linejoin:round;stroke-miterlimit:12;stroke-dasharray:none;stroke-opacity:1;paint-order:markers stroke fill;filter:url(#filter45)"
         d="m 158.9143,23.570038 c -1.51051,0 -2.72697,1.216456 -2.72697,2.726966 v 78.352326 c 0,0.17815 0.0164,0.34205 0.046,0.49248 a 2.7265537,12.269492 0 0 0 -0.046,2.23397 2.7265537,12.269492 0 0 0 2.72697,12.26953 2.7265537,12.269492 0 0 0 2.72644,-12.26953 2.7265537,12.269492 0 0 0 -0.0455,-2.23397 c 0.0296,-0.15044 0.0455,-0.31433 0.0455,-0.49248 V 26.297004 c 0,-1.51051 -1.21593,-2.726966 -2.72644,-2.726966 z"
         clip-path="url(#clipPath44)"
         transform="translate(-8.3852525,2.8417507)" />
      <path
         id="ellipse37"
         style="font-variation-settings:'opsz' 32;display:inline;opacity:0.48;mix-blend-mode:normal;fill:url(#linearGradient41);stroke:none;stroke-width:3.175;stroke-linecap:round;stroke-linejoin:round;stroke-miterlimit:12;stroke-dasharray:none;stroke-opacity:1;paint-order:markers stroke fill;filter:url(#filter41)"
         d="m 150.53188,27.060377 c -0.0733,8.72e-4 -0.14677,0.0056 -0.22066,0.01447 h -5.2e-4 c -0.20294,0.01518 -0.39471,0.06043 -0.5736,0.130741 0.74953,0.290784 1.33031,0.988312 1.40456,1.822628 0.0273,22.81965 0.004,45.640326 0.0119,68.46042 0.009,4.014134 -0.0103,8.032394 -0.009,12.042164 -0.001,3.70452 -0.12274,7.49122 -1.25419,11.04791 -0.0513,0.10976 -0.0995,0.23535 -0.15038,0.36587 0.17295,0.40078 0.39738,0.77229 0.71365,1.08365 0.60777,-0.0957 0.78714,-0.94241 1.02423,-1.44952 1.13145,-3.55669 1.25291,-7.34339 1.25419,-11.04791 -10e-4,-4.00977 0.0178,-8.02803 0.009,-12.042164 -0.008,-22.820094 0.0154,-45.64077 -0.0119,-68.46042 -0.099,-1.112138 -1.09859,-1.980908 -2.19728,-1.967839 z" />
      <path
         style="font-variation-settings:'opsz' 32;baseline-shift:baseline;display:inline;overflow:visible;vector-effect:none;stroke-linecap:round;stroke-linejoin:round;stroke-miterlimit:12;paint-order:markers stroke fill;filter:url(#filter53);enable-background:accumulate;stop-color:#000000"
         d="m 188.98828,22.724609 c -1.79461,0 -3.25586,1.4632 -3.25586,3.257813 v 78.351558 c 0,0 0.002,1.81685 0,2.72657 0,3.42028 0.30469,6.51497 0.81055,8.79101 0.25293,1.13802 0.55087,2.07066 0.91406,2.76172 0.1816,0.34553 0.37949,0.63329 0.62305,0.85742 0.24356,0.22413 0.55907,0.38891 0.9082,0.38868 0.34909,-7e-5 0.66475,-0.16446 0.9082,-0.38868 0.24346,-0.22422 0.43955,-0.51379 0.6211,-0.85937 0.3631,-0.69116 0.66119,-1.62178 0.91406,-2.75977 0.50575,-2.27597 0.8125,-5.3712 0.8125,-8.79101 v -2.72657 -78.351558 c 0,-1.794489 -1.46125,-3.257813 -3.25586,-3.257813 z m 0,1.058594 c 1.22641,0 2.19727,0.972688 2.19727,2.199219 v 78.351558 c 0,0 -0.002,1.81765 -3e-4,2.72657 0,3.35626 -0.30609,6.39584 -0.78711,8.56054 -0.24051,1.08235 -0.52908,1.94741 -0.81836,2.49805 -0.14464,0.27532 -0.28887,0.46955 -0.40039,0.57227 -0.11152,0.10271 -0.16405,0.10937 -0.19141,0.10937 -0.0274,2e-5 -0.0799,-0.007 -0.19141,-0.10937 -0.11146,-0.10258 -0.25769,-0.29508 -0.40234,-0.57032 -0.2893,-0.55047 -0.5778,-1.41568 -0.81836,-2.49804 -0.48112,-2.16474 -0.78711,-5.20578 -0.78711,-8.5625 0.0451,-239.27745 -2e-4,-2.72657 -2e-4,-2.72657 V 25.982422 c 0,-1.226407 0.97281,-2.199219 2.19922,-2.199219 z"
         id="path51"
         clip-path="url(#clipPath52)"
         transform="translate(-38.458763,3.1569299)"
         sodipodi:nodetypes="ssccssscsssscssssccsssscssccsss" />
      <path
         id="path38"
         style="font-variation-settings:'opsz' 32;display:inline;opacity:1;fill:url(#linearGradient39);stroke:none;stroke-width:3.175;stroke-linecap:round;stroke-linejoin:round;stroke-miterlimit:12;stroke-dasharray:none;stroke-opacity:1;paint-order:markers stroke fill;filter:url(#filter54)"
         d="m 150.52621,27.060375 c 0.0733,8.72e-4 0.14677,0.0056 0.22066,0.01447 h 5.2e-4 c 0.20294,0.01518 0.39471,0.06043 0.5736,0.130741 -0.74953,0.290784 -1.33031,0.988312 -1.40456,1.822628 -0.0273,22.81965 -0.004,45.640326 -0.0119,68.46042 -0.009,4.014136 0.0103,8.032396 0.009,12.042166 0.001,3.70452 0.12274,7.49122 1.25419,11.04791 0.0513,0.10976 0.0995,0.23535 0.15038,0.36587 -0.17295,0.40078 -0.39738,0.77229 -0.71365,1.08365 -0.60777,-0.0957 -0.78714,-0.94241 -1.02423,-1.44952 -1.13145,-3.55669 -1.25291,-7.34339 -1.25419,-11.04791 0.001,-4.00977 -0.0178,-8.02803 -0.009,-12.042166 0.008,-22.820094 -0.0154,-45.64077 0.0119,-68.46042 0.099,-1.112138 1.09859,-1.980908 2.19728,-1.967839 z" />
    </g>
    <path
       id="rect54"
       style="font-variation-settings:'opsz' 32;fill:none;stroke:#ffffff;stroke-width:0.05291667;stroke-linecap:round;stroke-linejoin:round;stroke-miterlimit:12;stroke-dasharray:none;stroke-opacity:1;paint-order:fill markers stroke;filter:url(#filter55)"
       d="m 13.851352,1.5867275 c -0.38472,0 -0.64441,0.260199 -0.64441,0.644922 V 133.23347 c 0,0.38473 0.25969,0.64647 0.64441,0.64647 H 121.61531 c 0.38472,0 0.64441,-0.26174 0.64441,-0.64647 V 2.2316495 c 0,-0.384723 -0.25969,-0.644922 -0.64441,-0.644922 z" />
    <path
       id="path1"
       style="font-variation-settings:'opsz' 32;baseline-shift:baseline;display:inline;overflow:visible;opacity:1;mix-blend-mode:soft-light;fill:#5f8dd3;fill-opacity:1;stroke:none;stroke-width:0.264583;stroke-linecap:round;stroke-linejoin:round;stroke-miterlimit:12;stroke-dasharray:none;stroke-opacity:1;paint-order:markers stroke fill;enable-background:accumulate;stop-color:#000000"
       d="m 42.518128,124.86532 c -0.600114,0 -1.083655,0.48301 -1.083655,1.08313 v 5.24205 c 0,0.60012 0.483541,1.08314 1.083655,1.08314 h 11.465967 c 0.600114,0 1.083138,-0.48302 1.083138,-1.08314 v -5.24205 c 0,-0.60011 -0.483024,-1.08313 -1.083138,-1.08313 z m 25.215515,5.1e-4 a 3.7041667,3.7041667 0 0 0 -3.704167,3.70416 3.7041667,3.7041667 0 0 0 3.704167,3.70417 3.7041667,3.7041667 0 0 0 3.704166,-3.70417 3.7041667,3.7041667 0 0 0 -3.704166,-3.70416 z m 13.749031,0 c -0.600114,0 -1.083138,0.48302 -1.083138,1.08314 v 5.24206 c 0,0.60012 0.483024,1.08313 1.083138,1.08313 h 11.466484 c 0.600114,0 1.083138,-0.48302 1.083138,-1.08313 v -5.24206 c 0,-0.60012 -0.483024,-1.08314 -1.083138,-1.08314 z"
       inkscape:label="color-ovrly" />
  </g>
</svg>
