<?xml version="1.0" encoding="UTF-8" standalone="no"?>
<!-- Created with Inkscape (http://www.inkscape.org/) -->

<svg
   width="512"
   height="512"
   viewBox="0 0 135.46666 135.46667"
   version="1.1"
   id="svg5"
   inkscape:version="1.4.2 (ebf0e940d0, 2025-05-08)"
   sodipodi:docname="text-x-coffeescript.svg"
   xmlns:inkscape="http://www.inkscape.org/namespaces/inkscape"
   xmlns:sodipodi="http://sodipodi.sourceforge.net/DTD/sodipodi-0.dtd"
   xmlns:xlink="http://www.w3.org/1999/xlink"
   xmlns="http://www.w3.org/2000/svg"
   xmlns:svg="http://www.w3.org/2000/svg">
  <sodipodi:namedview
     id="namedview7"
     pagecolor="#242424"
     bordercolor="#666666"
     borderopacity="1"
     inkscape:showpageshadow="0"
     inkscape:pageopacity="0"
     inkscape:pagecheckerboard="1"
     inkscape:deskcolor="#000000"
     inkscape:document-units="px"
     showgrid="false"
     inkscape:zoom="0.99999999"
     inkscape:cx="363.5"
     inkscape:cy="83.000001"
     inkscape:window-width="3256"
     inkscape:window-height="1080"
     inkscape:window-x="1864"
     inkscape:window-y="0"
     inkscape:window-maximized="0"
     inkscape:current-layer="layer1" />
  <defs
     id="defs2">
    <linearGradient
       id="linearGradient48"
       inkscape:collect="always">
      <stop
         style="stop-color:#ffffff;stop-opacity:0;"
         offset="0.4699772"
         id="stop48" />
      <stop
         style="stop-color:#ffffff;stop-opacity:1;"
         offset="1"
         id="stop47" />
    </linearGradient>
    <linearGradient
       id="linearGradient42"
       inkscape:collect="always">
      <stop
         style="stop-color:#ffffff;stop-opacity:0;"
         offset="0"
         id="stop42" />
      <stop
         style="stop-color:#ffffff;stop-opacity:1;"
         offset="0.44542807"
         id="stop41" />
      <stop
         style="stop-color:#ffffff;stop-opacity:0;"
         offset="1"
         id="stop50" />
    </linearGradient>
    <linearGradient
       id="linearGradient36"
       inkscape:collect="always">
      <stop
         style="stop-color:#ffffff;stop-opacity:1;"
         offset="0"
         id="stop39" />
      <stop
         style="stop-color:#ffffff;stop-opacity:0;"
         offset="1"
         id="stop40" />
    </linearGradient>
    <linearGradient
       id="linearGradient29"
       inkscape:collect="always">
      <stop
         style="stop-color:#ffffff;stop-opacity:1;"
         offset="0"
         id="stop29" />
      <stop
         style="stop-color:#ffffff;stop-opacity:0;"
         offset="1"
         id="stop26" />
    </linearGradient>
    <linearGradient
       id="linearGradient25"
       inkscape:collect="always">
      <stop
         style="stop-color:#ffffff;stop-opacity:0;"
         offset="0"
         id="stop25" />
      <stop
         style="stop-color:#ffffff;stop-opacity:1;"
         offset="1"
         id="stop24" />
    </linearGradient>
    <linearGradient
       id="linearGradient52"
       inkscape:collect="always">
      <stop
         style="stop-color:#ffffff;stop-opacity:0;"
         offset="0"
         id="stop54" />
      <stop
         style="stop-color:#ffffff;stop-opacity:1;"
         offset="0.49724773"
         id="stop52" />
      <stop
         style="stop-color:#ffffff;stop-opacity:0;"
         offset="1"
         id="stop53" />
    </linearGradient>
    <linearGradient
       id="linearGradient34"
       inkscape:collect="always">
      <stop
         style="stop-color:#28160b;stop-opacity:1;"
         offset="0"
         id="stop34" />
      <stop
         style="stop-color:#28170b;stop-opacity:1;"
         offset="0.24852051"
         id="stop37" />
      <stop
         style="stop-color:#643717;stop-opacity:1;"
         offset="0.5"
         id="stop36" />
      <stop
         style="stop-color:#28170b;stop-opacity:1;"
         offset="0.75"
         id="stop38" />
      <stop
         style="stop-color:#28170b;stop-opacity:1;"
         offset="1"
         id="stop35" />
    </linearGradient>
    <linearGradient
       id="linearGradient32"
       inkscape:collect="always">
      <stop
         style="stop-color:#ffffff;stop-opacity:1;"
         offset="0"
         id="stop32" />
      <stop
         style="stop-color:#ffffff;stop-opacity:0;"
         offset="1"
         id="stop33" />
    </linearGradient>
    <linearGradient
       id="linearGradient30"
       inkscape:collect="always">
      <stop
         style="stop-color:#ffffff;stop-opacity:0;"
         offset="0"
         id="stop31" />
      <stop
         style="stop-color:#ffffff;stop-opacity:1;"
         offset="1"
         id="stop30" />
    </linearGradient>
    <inkscape:path-effect
       effect="powerstroke"
       message=""
       id="path-effect30"
       is_visible="true"
       lpeversion="1.3"
       scale_width="1"
       interpolator_type="CubicBezierJohan"
       interpolator_beta="0.2"
       start_linecap_type="zerowidth"
       end_linecap_type="round"
       offset_points="4,1.8513937"
       linejoin_type="extrp_arc"
       miter_limit="4"
       not_jump="false"
       sort_points="true" />
    <inkscape:path-effect
       effect="powerstroke"
       message=""
       id="path-effect29"
       is_visible="true"
       lpeversion="1.3"
       scale_width="1"
       interpolator_type="CubicBezierJohan"
       interpolator_beta="0.2"
       start_linecap_type="zerowidth"
       end_linecap_type="round"
       offset_points="2.5929512,3.874716"
       linejoin_type="extrp_arc"
       miter_limit="4"
       not_jump="false"
       sort_points="true" />
    <inkscape:path-effect
       effect="powerstroke"
       message=""
       id="path-effect28"
       is_visible="true"
       lpeversion="1.3"
       scale_width="1"
       interpolator_type="CubicBezierJohan"
       interpolator_beta="0.2"
       start_linecap_type="zerowidth"
       end_linecap_type="round"
       offset_points="3,5.1734004"
       linejoin_type="extrp_arc"
       miter_limit="4"
       not_jump="false"
       sort_points="true" />
    <linearGradient
       id="linearGradient27"
       inkscape:collect="always">
      <stop
         style="stop-color:#ffffff;stop-opacity:1;"
         offset="0"
         id="stop28" />
      <stop
         style="stop-color:#000000;stop-opacity:1;"
         offset="1"
         id="stop27" />
    </linearGradient>
    <clipPath
       clipPathUnits="userSpaceOnUse"
       id="clipPath5">
      <path
         style="baseline-shift:baseline;display:inline;overflow:visible;vector-effect:none;fill:#ffffff;stroke-width:0.999998;stroke-linecap:round;stroke-linejoin:round;stroke-miterlimit:12;paint-order:markers stroke fill;enable-background:accumulate;stop-color:#000000"
         d="m 126.66152,37.425106 c 0,0 -2.6e-4,21.700571 12.40234,34.440791 3.3303,3.435289 8.08478,8.296301 8.08478,12.789402 h 14.69006 14.69006 c 0,-3.77843 2.91497,-7.45754 8.08426,-12.789402 h -0.002 C 197.0147,59.125762 197.01588,37.425106 197.01588,37.425106 Z"
         id="path6" />
    </clipPath>
    <filter
       inkscape:collect="always"
       style="color-interpolation-filters:sRGB"
       id="filter6"
       x="-0.16654879"
       y="-0.22663299"
       width="1.3330976"
       height="1.453266">
      <feGaussianBlur
         inkscape:collect="always"
         stdDeviation="6.0588423"
         id="feGaussianBlur6" />
    </filter>
    <clipPath
       clipPathUnits="userSpaceOnUse"
       id="clipPath10">
      <path
         style="baseline-shift:baseline;display:inline;overflow:visible;vector-effect:none;fill:#ffffff;stroke-width:0.999998;stroke-linecap:round;stroke-linejoin:round;stroke-miterlimit:12;paint-order:markers stroke fill;enable-background:accumulate;stop-color:#000000"
         d="m 118.49819,40.335522 c 0,0 -2.6e-4,21.700572 12.40234,34.440791 3.3303,3.435289 8.08478,8.296302 8.08478,12.789403 h 14.69006 14.69006 c 0,-3.77843 2.91497,-7.457541 8.08426,-12.789403 h -0.002 c 12.40328,-12.740134 12.40446,-34.440791 12.40446,-34.440791 z"
         id="path11" />
    </clipPath>
    <filter
       inkscape:collect="always"
       style="color-interpolation-filters:sRGB"
       id="filter13"
       x="-0.072635323"
       y="-0.10596067"
       width="1.1452706"
       height="1.2119213">
      <feGaussianBlur
         inkscape:collect="always"
         stdDeviation="2.2253567"
         id="feGaussianBlur13" />
    </filter>
    <clipPath
       clipPathUnits="userSpaceOnUse"
       id="clipPath15">
      <path
         id="path16"
         style="opacity:1;fill:#e3e2db;fill-opacity:1;stroke:none;stroke-width:16.9333;stroke-linecap:round;stroke-linejoin:round;stroke-miterlimit:12;stroke-dasharray:none;stroke-opacity:1;paint-order:markers stroke fill"
         d="m 27.839643,57.401147 c 0,0 -2.64e-4,21.700572 12.402344,34.440791 3.330297,3.435289 8.084777,8.296302 8.084777,12.789402 h 14.690061 14.690058 c 0,-3.77843 2.914973,-7.45754 8.084262,-12.789402 h -0.0016 C 98.192838,79.101804 98.194018,57.401147 98.194018,57.401147 Z"
         sodipodi:nodetypes="ccccccccc" />
    </clipPath>
    <filter
       inkscape:collect="always"
       style="color-interpolation-filters:sRGB"
       id="filter16"
       x="-0.20368207"
       y="-0.092539406"
       width="1.4073641"
       height="1.1850788">
      <feGaussianBlur
         inkscape:collect="always"
         stdDeviation="1.8211058"
         id="feGaussianBlur16" />
    </filter>
    <clipPath
       clipPathUnits="userSpaceOnUse"
       id="clipPath18">
      <path
         id="path19"
         style="opacity:1;fill:#e3e2db;fill-opacity:1;stroke:none;stroke-width:16.9333;stroke-linecap:round;stroke-linejoin:round;stroke-miterlimit:12;stroke-dasharray:none;stroke-opacity:1;paint-order:markers stroke fill"
         d="m 27.839643,57.401147 c 0,0 -2.64e-4,21.700572 12.402344,34.440791 3.330297,3.435289 8.084777,8.296302 8.084777,12.789402 h 14.690061 14.690058 c 0,-3.77843 2.914973,-7.45754 8.084262,-12.789402 h -0.0016 C 98.192838,79.101804 98.194018,57.401147 98.194018,57.401147 Z"
         sodipodi:nodetypes="ccccccccc" />
    </clipPath>
    <filter
       inkscape:collect="always"
       style="color-interpolation-filters:sRGB"
       id="filter19"
       x="-0.14223276"
       y="-0.31907088"
       width="1.2844655"
       height="1.6381418">
      <feGaussianBlur
         inkscape:collect="always"
         stdDeviation="2.0653415"
         id="feGaussianBlur19" />
    </filter>
    <clipPath
       clipPathUnits="userSpaceOnUse"
       id="clipPath21">
      <path
         id="path22"
         style="opacity:1;fill:#e3e2db;fill-opacity:1;stroke:none;stroke-width:16.9333;stroke-linecap:round;stroke-linejoin:round;stroke-miterlimit:12;stroke-dasharray:none;stroke-opacity:1;paint-order:markers stroke fill"
         d="m 27.839643,57.401147 c 0,0 -2.64e-4,21.700572 12.402344,34.440791 3.330297,3.435289 8.084777,8.296302 8.084777,12.789402 h 14.690061 14.690058 c 0,-3.77843 2.914973,-7.45754 8.084262,-12.789402 h -0.0016 C 98.192838,79.101804 98.194018,57.401147 98.194018,57.401147 Z"
         sodipodi:nodetypes="ccccccccc" />
    </clipPath>
    <filter
       inkscape:collect="always"
       style="color-interpolation-filters:sRGB"
       id="filter22"
       x="-0.17428065"
       y="-0.10749767"
       width="1.3485613"
       height="1.2149953">
      <feGaussianBlur
         inkscape:collect="always"
         stdDeviation="1.621351"
         id="feGaussianBlur22" />
    </filter>
    <filter
       inkscape:collect="always"
       style="color-interpolation-filters:sRGB"
       id="filter23"
       x="-0.23781403"
       y="-0.063138287"
       width="1.4756281"
       height="1.1262766">
      <feGaussianBlur
         inkscape:collect="always"
         stdDeviation="1.1019471"
         id="feGaussianBlur23" />
    </filter>
    <clipPath
       clipPathUnits="userSpaceOnUse"
       id="clipPath23">
      <path
         id="path24"
         style="opacity:1;fill:#e3e2db;fill-opacity:1;stroke:none;stroke-width:16.9333;stroke-linecap:round;stroke-linejoin:round;stroke-miterlimit:12;stroke-dasharray:none;stroke-opacity:1;paint-order:markers stroke fill"
         d="m 27.839643,57.401147 c 0,0 -2.64e-4,21.700572 12.402344,34.440791 3.330297,3.435289 8.084777,8.296302 8.084777,12.789402 h 14.690061 14.690058 c 0,-3.77843 2.914973,-7.45754 8.084262,-12.789402 h -0.0016 C 98.192838,79.101804 98.194018,57.401147 98.194018,57.401147 Z"
         sodipodi:nodetypes="ccccccccc" />
    </clipPath>
    <clipPath
       clipPathUnits="userSpaceOnUse"
       id="clipPath26">
      <path
         id="path27"
         style="opacity:1;fill:#e3e2db;fill-opacity:1;stroke:none;stroke-width:16.9333;stroke-linecap:round;stroke-linejoin:round;stroke-miterlimit:12;stroke-dasharray:none;stroke-opacity:1;paint-order:markers stroke fill"
         d="m 27.839643,57.401147 c 0,0 -2.64e-4,21.700572 12.402344,34.440791 3.330297,3.435289 8.084777,8.296302 8.084777,12.789402 h 14.690061 14.690058 c 0,-3.77843 2.914973,-7.45754 8.084262,-12.789402 h -0.0016 C 98.192838,79.101804 98.194018,57.401147 98.194018,57.401147 Z"
         sodipodi:nodetypes="ccccccccc" />
    </clipPath>
    <filter
       inkscape:collect="always"
       style="color-interpolation-filters:sRGB"
       id="filter27"
       x="-0.068614724"
       y="-0.22220901"
       width="1.1372294"
       height="1.444418">
      <feGaussianBlur
         inkscape:collect="always"
         stdDeviation="1.4347491"
         id="feGaussianBlur27" />
    </filter>
    <linearGradient
       inkscape:collect="always"
       xlink:href="#linearGradient27"
       id="linearGradient28"
       x1="118.49819"
       y1="63.950619"
       x2="188.85215"
       y2="63.950619"
       gradientUnits="userSpaceOnUse" />
    <linearGradient
       inkscape:collect="always"
       xlink:href="#linearGradient30"
       id="linearGradient31"
       x1="80.551765"
       y1="68.801254"
       x2="81.418846"
       y2="-2.905323"
       gradientUnits="userSpaceOnUse"
       gradientTransform="translate(-35.27415,10.824894)" />
    <linearGradient
       inkscape:collect="always"
       xlink:href="#linearGradient32"
       id="linearGradient33"
       x1="73.351257"
       y1="8.2020836"
       x2="63.155018"
       y2="78.427666"
       gradientUnits="userSpaceOnUse"
       gradientTransform="translate(-1.7261871,6.3500003)" />
    <linearGradient
       inkscape:collect="always"
       xlink:href="#linearGradient34"
       id="linearGradient35"
       x1="127.6878"
       y1="124.83947"
       x2="172.62511"
       y2="124.83947"
       gradientUnits="userSpaceOnUse"
       gradientTransform="translate(-88.864082,-4.2196987)" />
    <filter
       style="color-interpolation-filters:sRGB;"
       inkscape:label="Noise Fill"
       id="filter39"
       x="0"
       y="0"
       width="1"
       height="1">
      <feTurbulence
         type="fractalNoise"
         baseFrequency="24 24"
         numOctaves="4"
         seed="338"
         result="turbulence"
         id="feTurbulence38" />
      <feComposite
         in="SourceGraphic"
         in2="turbulence"
         operator="in"
         result="composite1"
         id="feComposite38" />
      <feColorMatrix
         values="1 0 0 0 0 0 1 0 0 0 0 0 1 0 0 0 0 0 4 -1 "
         result="color"
         id="feColorMatrix38" />
      <feFlood
         flood-opacity="1"
         flood-color="rgb(25,17,8)"
         result="flood"
         id="feFlood38" />
      <feMerge
         result="merge"
         id="feMerge39">
        <feMergeNode
           in="flood"
           id="feMergeNode38" />
        <feMergeNode
           in="color"
           id="feMergeNode39" />
      </feMerge>
      <feComposite
         in2="SourceGraphic"
         operator="in"
         result="composite2"
         id="feComposite39" />
    </filter>
    <clipPath
       clipPathUnits="userSpaceOnUse"
       id="clipPath41">
      <path
         style="baseline-shift:baseline;display:inline;overflow:visible;vector-effect:none;fill:#e3e2db;stroke-width:0.999998;stroke-linecap:round;stroke-linejoin:round;stroke-miterlimit:12;paint-order:markers stroke fill;enable-background:accumulate;stop-color:#000000"
         d="m 151.73441,48.696768 c -7.9185,0 -14.57832,5.565373 -16.26775,12.984737 1.17544,-0.05312 1.30236,-0.03604 4.45761,-0.261999 1.64516,-4.945795 6.29531,-8.490439 11.81014,-8.490439 6.9004,0 12.44937,5.548977 12.44937,12.449371 0,6.900391 -5.0198,12.449373 -11.9202,12.449373 -4.81633,0 -5.8939,-5.774558 -14.61592,-5.912866 -0.0922,1.500362 -0.19159,3.000325 -0.3006,4.499565 6.47588,-1.613411 7.32894,5.647669 14.38735,5.647669 9.18826,0 16.68373,-7.495479 16.68373,-16.683736 0,-9.188254 -7.49547,-16.681669 -16.68373,-16.681669 z"
         id="path42" />
    </clipPath>
    <filter
       inkscape:collect="always"
       style="color-interpolation-filters:sRGB"
       id="filter42"
       x="-0.070692965"
       y="-0.069865508"
       width="1.1413859"
       height="1.139731">
      <feGaussianBlur
         inkscape:collect="always"
         stdDeviation="1.0329156"
         id="feGaussianBlur42" />
    </filter>
    <clipPath
       clipPathUnits="userSpaceOnUse"
       id="clipPath45">
      <path
         id="path46"
         style="baseline-shift:baseline;display:inline;overflow:visible;vector-effect:none;fill:#e3e2db;stroke-width:0.999998;stroke-linecap:round;stroke-linejoin:round;stroke-miterlimit:12;paint-order:markers stroke fill;enable-background:accumulate;stop-color:#000000"
         d="m 101.81446,74.890518 c -7.918501,0 -14.578315,5.565373 -16.267745,12.984736 1.175438,-0.05312 1.302358,-0.03604 4.45761,-0.261998 1.64516,-4.945795 6.295305,-8.490439 11.810135,-8.490439 6.9004,0 12.44937,5.548976 12.44937,12.44937 0,6.900392 -5.0198,12.449373 -11.9202,12.449373 -4.816331,0 -5.893902,-5.774557 -14.615923,-5.912865 -0.09216,1.500362 -0.191588,3.000325 -0.300601,4.499565 6.475886,-1.61341 7.328945,5.64767 14.387354,5.64767 9.18826,0 16.68373,-7.49548 16.68373,-16.683737 0,-9.188254 -7.49547,-16.68167 -16.68373,-16.68167 z"
         sodipodi:nodetypes="sccsssccssss" />
    </clipPath>
    <filter
       inkscape:collect="always"
       style="color-interpolation-filters:sRGB"
       id="filter46"
       x="-0.023835847"
       y="-0.026480477"
       width="1.0476717"
       height="1.052961">
      <feGaussianBlur
         inkscape:collect="always"
         stdDeviation="0.32726033"
         id="feGaussianBlur46" />
    </filter>
    <clipPath
       clipPathUnits="userSpaceOnUse"
       id="clipPath47">
      <path
         id="path48"
         style="baseline-shift:baseline;display:inline;overflow:visible;vector-effect:none;fill:#e3e2db;stroke-width:0.999998;stroke-linecap:round;stroke-linejoin:round;stroke-miterlimit:12;paint-order:markers stroke fill;enable-background:accumulate;stop-color:#000000"
         d="m 101.81446,74.890518 c -7.918501,0 -14.578315,5.565373 -16.267745,12.984736 1.175438,-0.05312 1.302358,-0.03604 4.45761,-0.261998 1.64516,-4.945795 6.295305,-8.490439 11.810135,-8.490439 6.9004,0 12.44937,5.548976 12.44937,12.44937 0,6.900392 -5.0198,12.449373 -11.9202,12.449373 -4.816331,0 -5.893902,-5.774557 -14.615923,-5.912865 -0.09216,1.500362 -0.191588,3.000325 -0.300601,4.499565 6.475886,-1.61341 7.328945,5.64767 14.387354,5.64767 9.18826,0 16.68373,-7.49548 16.68373,-16.683737 0,-9.188254 -7.49547,-16.68167 -16.68373,-16.68167 z"
         sodipodi:nodetypes="sccsssccssss" />
    </clipPath>
    <filter
       inkscape:collect="always"
       style="color-interpolation-filters:sRGB"
       id="filter48"
       x="-0.02363371"
       y="-0.026254418"
       width="1.0472674"
       height="1.0525088">
      <feGaussianBlur
         inkscape:collect="always"
         stdDeviation="0.32448577"
         id="feGaussianBlur48" />
    </filter>
    <linearGradient
       inkscape:collect="always"
       xlink:href="#linearGradient34"
       id="linearGradient50"
       x1="134.59262"
       y1="103.2407"
       x2="204.94658"
       y2="103.2407"
       gradientUnits="userSpaceOnUse"
       gradientTransform="translate(-108.47937,5.17e-4)" />
    <filter
       style="color-interpolation-filters:sRGB;"
       inkscape:label="Noise Fill"
       id="filter51"
       x="0"
       y="0"
       width="1"
       height="1">
      <feTurbulence
         type="fractalNoise"
         baseFrequency="24 24"
         numOctaves="4"
         seed="338"
         result="turbulence"
         id="feTurbulence50" />
      <feComposite
         in="SourceGraphic"
         in2="turbulence"
         operator="in"
         result="composite1"
         id="feComposite50" />
      <feColorMatrix
         values="1 0 0 0 0 0 1 0 0 0 0 0 1 0 0 0 0 0 4 -1 "
         result="color"
         id="feColorMatrix50" />
      <feFlood
         flood-opacity="1"
         flood-color="rgb(25,17,8)"
         result="flood"
         id="feFlood50" />
      <feMerge
         result="merge"
         id="feMerge51">
        <feMergeNode
           in="flood"
           id="feMergeNode50" />
        <feMergeNode
           in="color"
           id="feMergeNode51" />
      </feMerge>
      <feComposite
         in2="SourceGraphic"
         operator="in"
         result="composite2"
         id="feComposite51" />
    </filter>
    <linearGradient
       inkscape:collect="always"
       xlink:href="#linearGradient52"
       id="linearGradient53"
       x1="41.675129"
       y1="99.798553"
       x2="80.912125"
       y2="99.798553"
       gradientUnits="userSpaceOnUse"
       gradientTransform="matrix(1,0,0,0.98686398,0,1.1153388)" />
    <clipPath
       clipPathUnits="userSpaceOnUse"
       id="clipPath54">
      <path
         id="path55"
         style="display:inline;fill:#c8c4b7;fill-opacity:1;stroke:none;stroke-width:16.9333;stroke-linecap:round;stroke-linejoin:round;stroke-miterlimit:12;stroke-dasharray:none;stroke-opacity:1;paint-order:markers stroke fill"
         d="m 26.113457,79.626147 c 0,0 -2.64e-4,21.700573 12.402343,34.440793 3.330297,3.43529 8.084778,8.2963 8.084778,12.7894 h 14.69006 14.690059 c 0,-3.77843 2.914972,-7.45754 8.084261,-12.7894 h -0.0016 C 96.466648,101.3268 96.467831,79.626147 96.467831,79.626147 Z"
         sodipodi:nodetypes="ccccccccc" />
    </clipPath>
    <filter
       inkscape:collect="always"
       style="color-interpolation-filters:sRGB"
       id="filter55"
       x="-0.20450763"
       y="-0.27300628"
       width="1.4090153"
       height="1.5460126">
      <feGaussianBlur
         inkscape:collect="always"
         stdDeviation="3.3434436"
         id="feGaussianBlur55" />
    </filter>
    <linearGradient
       inkscape:collect="always"
       xlink:href="#linearGradient30"
       id="linearGradient2"
       gradientUnits="userSpaceOnUse"
       gradientTransform="translate(-35.273895,10.82497)"
       x1="80.551765"
       y1="68.801254"
       x2="81.418846"
       y2="-2.905323" />
    <linearGradient
       inkscape:collect="always"
       xlink:href="#linearGradient32"
       id="linearGradient3"
       gradientUnits="userSpaceOnUse"
       gradientTransform="translate(-1.726233,6.3498045)"
       x1="73.351257"
       y1="8.2020836"
       x2="63.155018"
       y2="78.427666" />
    <linearGradient
       inkscape:collect="always"
       xlink:href="#linearGradient30"
       id="linearGradient5"
       gradientUnits="userSpaceOnUse"
       gradientTransform="translate(-35.3111,10.636779)"
       x1="80.551765"
       y1="68.801254"
       x2="81.418846"
       y2="-2.905323" />
    <linearGradient
       inkscape:collect="always"
       xlink:href="#linearGradient32"
       id="linearGradient7"
       gradientUnits="userSpaceOnUse"
       gradientTransform="translate(-2.0262783,6.0385663)"
       x1="73.351257"
       y1="8.2020836"
       x2="63.155018"
       y2="78.427666" />
    <linearGradient
       inkscape:collect="always"
       xlink:href="#linearGradient32"
       id="linearGradient8"
       gradientUnits="userSpaceOnUse"
       gradientTransform="translate(-1.7261871,6.3500003)"
       x1="73.351257"
       y1="8.2020836"
       x2="63.155018"
       y2="78.427666" />
    <linearGradient
       inkscape:collect="always"
       xlink:href="#linearGradient30"
       id="linearGradient10"
       gradientUnits="userSpaceOnUse"
       gradientTransform="translate(-35.27415,10.824894)"
       x1="80.551765"
       y1="68.801254"
       x2="81.418846"
       y2="-2.905323" />
    <filter
       inkscape:collect="always"
       style="color-interpolation-filters:sRGB"
       id="filter10"
       x="-0.0068083412"
       y="-0.0031637129"
       width="1.0136167"
       height="1.0063274">
      <feGaussianBlur
         inkscape:collect="always"
         stdDeviation="0.092082582"
         id="feGaussianBlur10" />
    </filter>
    <filter
       inkscape:collect="always"
       style="color-interpolation-filters:sRGB"
       id="filter11"
       x="-0.0059200625"
       y="-0.0034008303"
       width="1.0118401"
       height="1.0068017">
      <feGaussianBlur
         inkscape:collect="always"
         stdDeviation="0.066549683"
         id="feGaussianBlur11" />
    </filter>
    <filter
       inkscape:collect="always"
       style="color-interpolation-filters:sRGB"
       id="filter12"
       x="-0.0059253057"
       y="-0.0033991028"
       width="1.0118506"
       height="1.0067982">
      <feGaussianBlur
         inkscape:collect="always"
         stdDeviation="0.07831933"
         id="feGaussianBlur12" />
    </filter>
    <filter
       inkscape:collect="always"
       style="color-interpolation-filters:sRGB"
       id="filter14"
       x="-0.018082371"
       y="-0.0024530217"
       width="1.0361647"
       height="1.004906">
      <feGaussianBlur
         inkscape:collect="always"
         stdDeviation="0.078666201"
         id="feGaussianBlur14" />
    </filter>
    <filter
       inkscape:collect="always"
       style="color-interpolation-filters:sRGB"
       id="filter15"
       x="-0.016131703"
       y="-0.0024939321"
       width="1.0322634"
       height="1.0049879">
      <feGaussianBlur
         inkscape:collect="always"
         stdDeviation="0.047055501"
         id="feGaussianBlur15" />
    </filter>
    <filter
       inkscape:collect="always"
       style="color-interpolation-filters:sRGB"
       id="filter17"
       x="-0.023580624"
       y="-0.0023778086"
       width="1.0471612"
       height="1.0047556">
      <feGaussianBlur
         inkscape:collect="always"
         stdDeviation="0.065646823"
         id="feGaussianBlur17" />
    </filter>
    <linearGradient
       inkscape:collect="always"
       xlink:href="#linearGradient25"
       id="linearGradient18"
       gradientUnits="userSpaceOnUse"
       gradientTransform="translate(-2.6853018,6.3500003)"
       x1="73.351257"
       y1="8.2020836"
       x2="63.155018"
       y2="78.427666" />
    <linearGradient
       inkscape:collect="always"
       xlink:href="#linearGradient29"
       id="linearGradient21"
       gradientUnits="userSpaceOnUse"
       gradientTransform="translate(-34.215816,10.824894)"
       x1="80.551765"
       y1="68.801254"
       x2="81.418846"
       y2="-2.905323" />
    <filter
       inkscape:collect="always"
       style="color-interpolation-filters:sRGB"
       id="filter21"
       x="-0.0069557293"
       y="-0.0011137094"
       width="1.0139115"
       height="1.0022274">
      <feGaussianBlur
         inkscape:collect="always"
         stdDeviation="0.025406185"
         id="feGaussianBlur21" />
    </filter>
    <filter
       inkscape:collect="always"
       style="color-interpolation-filters:sRGB"
       id="filter24"
       x="-0.0026154309"
       y="-0.001516713"
       width="1.0052309"
       height="1.0030334">
      <feGaussianBlur
         inkscape:collect="always"
         stdDeviation="0.034133274"
         id="feGaussianBlur24" />
    </filter>
    <linearGradient
       inkscape:collect="always"
       xlink:href="#linearGradient36"
       id="linearGradient40"
       x1="77.576744"
       y1="14.968596"
       x2="76.873878"
       y2="35.659992"
       gradientUnits="userSpaceOnUse" />
    <linearGradient
       inkscape:collect="always"
       xlink:href="#linearGradient42"
       id="linearGradient41"
       gradientUnits="userSpaceOnUse"
       x1="78.888786"
       y1="20.640009"
       x2="77.070427"
       y2="33.419308"
       gradientTransform="translate(-0.63009078,-0.13699242)" />
    <filter
       inkscape:collect="always"
       style="color-interpolation-filters:sRGB"
       id="filter41"
       x="-0.032084343"
       y="-0.01182412"
       width="1.0641687"
       height="1.0236482">
      <feGaussianBlur
         inkscape:collect="always"
         stdDeviation="0.062959975"
         id="feGaussianBlur41" />
    </filter>
    <linearGradient
       inkscape:collect="always"
       xlink:href="#linearGradient48"
       id="linearGradient45"
       gradientUnits="userSpaceOnUse"
       x1="77.576744"
       y1="14.968596"
       x2="75.938332"
       y2="38.793575"
       gradientTransform="translate(1.7e-4)" />
    <filter
       inkscape:collect="always"
       style="color-interpolation-filters:sRGB"
       id="filter49"
       x="-0.040454822"
       y="-0.0093013143"
       width="1.0809096"
       height="1.0186026">
      <feGaussianBlur
         inkscape:collect="always"
         stdDeviation="0.09233484"
         id="feGaussianBlur49" />
    </filter>
    <filter
       inkscape:collect="always"
       style="color-interpolation-filters:sRGB"
       id="filter50"
       x="-0.0086435823"
       y="-0.0028796021"
       width="1.0172872"
       height="1.0057592">
      <feGaussianBlur
         inkscape:collect="always"
         stdDeviation="0.024826244"
         id="feGaussianBlur50" />
    </filter>
  </defs>
  <g
     inkscape:label="Layer 1"
     inkscape:groupmode="layer"
     id="layer1">
    <rect
       style="opacity:1;fill:#000000;fill-opacity:1;stroke:#e0cdab;stroke-width:2.11667;stroke-linecap:round;stroke-linejoin:round;stroke-miterlimit:12;stroke-dasharray:none;stroke-opacity:1;paint-order:markers stroke fill"
       id="rect48"
       width="116.92712"
       height="132.29167"
       x="9.2697744"
       y="1.5874966"
       ry="8.2975788" />
    <path
       style="display:none;fill:none;stroke:#ffffff;stroke-width:4.23333;stroke-linecap:round;stroke-linejoin:miter;stroke-dasharray:none;stroke-opacity:1"
       d="m 39.849885,53.413815 c -3.128407,11.878094 -1.358833,24.094188 6.47099,32.534954 7.829823,8.440766 10.673031,20.448141 9.35041,27.148211"
       id="path14"
       sodipodi:nodetypes="czc" />
    <path
       id="path1"
       style="baseline-shift:baseline;display:inline;overflow:visible;vector-effect:none;fill:#c8c4b7;stroke-linecap:round;stroke-linejoin:round;stroke-miterlimit:12;paint-order:markers stroke fill;enable-background:accumulate;stop-color:#000000"
       d="m 100.08827,81.240518 c -7.918498,0 -14.578312,5.565374 -16.267742,12.984737 1.175437,-0.05312 1.302357,-0.03604 4.457609,-0.261999 1.645161,-4.945795 6.295305,-8.490438 11.810133,-8.490438 6.9004,0 12.44937,5.548976 12.44937,12.449369 0,6.900393 -5.0198,12.449373 -11.9202,12.449373 -4.816328,0 -5.893899,-5.77456 -14.615921,-5.91286 -0.09216,1.50036 -0.191587,3.00032 -0.3006,4.49956 6.475887,-1.61341 7.328946,5.64767 14.387351,5.64767 9.18826,0 16.68373,-7.49548 16.68373,-16.683738 0,-9.188254 -7.49547,-16.681669 -16.68373,-16.681669 z"
       sodipodi:nodetypes="sccsssccssss" />
    <path
       id="path44"
       style="baseline-shift:baseline;display:inline;overflow:visible;vector-effect:none;fill:#000000;stroke-linecap:round;stroke-linejoin:round;stroke-miterlimit:12;paint-order:markers stroke fill;filter:url(#filter48);enable-background:accumulate;stop-color:#000000"
       d="m 101.81446,78.593651 c -5.514836,0 -10.164976,3.544653 -11.810136,8.490443 -3.03386,0.2173 -3.26791,0.21 -4.32635,0.25631 -0.04662,0.17722 -0.0904,0.35541 -0.13126,0.53485 1.17544,-0.0531 1.30236,-0.036 4.45761,-0.262 1.64516,-4.94579 6.2953,-8.490436 11.810136,-8.490436 6.81419,0 12.31051,5.411326 12.44679,12.191506 0.002,-0.09015 0.003,-0.18068 0.003,-0.2713 0,-6.90039 -5.54897,-12.449373 -12.44937,-12.449373 z m 16.68167,12.713953 c -0.14223,9.067136 -7.58176,16.419156 -16.68167,16.419156 -7.044306,0 -7.907926,-7.23186 -14.348486,-5.65702 -0.01278,0.17959 -0.0257,0.3589 -0.03875,0.53847 6.47588,-1.61341 7.32882,5.64772 14.387236,5.64772 9.18826,0 16.68374,-7.49548 16.68374,-16.683746 0,-0.08835 -6.9e-4,-0.17655 -0.002,-0.26458 z"
       clip-path="url(#clipPath47)"
       transform="translate(-1.7261871,6.3500003)" />
    <path
       style="baseline-shift:baseline;display:inline;overflow:visible;opacity:0.533954;mix-blend-mode:normal;vector-effect:none;stroke-linecap:round;stroke-linejoin:round;stroke-miterlimit:12;paint-order:markers stroke fill;filter:url(#filter42);enable-background:accumulate;stop-color:#000000"
       d="m 151.73437,47.638672 c -8.41438,0 -15.50115,5.913864 -17.29882,13.808594 a 1.0584391,1.0584391 0 0 0 1.07812,1.291015 c 1.16179,-0.0525 1.32527,-0.0373 4.48633,-0.263672 a 1.0584391,1.0584391 0 0 0 0.92773,-0.720703 c 1.50444,-4.522743 5.74531,-7.765625 10.80664,-7.765625 6.33303,0 11.39063,5.057607 11.39063,11.390625 0,6.387125 -4.5283,11.390625 -10.86133,11.390625 -1.9852,0 -3.18499,-1.186531 -5.21094,-2.695312 -2.02594,-1.508781 -4.79487,-3.143952 -9.38867,-3.216797 a 1.0584391,1.0584391 0 0 0 -1.07226,0.992187 c -0.092,1.496988 -0.1921,2.993558 -0.30078,4.488282 a 1.0584391,1.0584391 0 0 0 1.3125,1.103515 c 1.43298,-0.357016 2.41519,-0.222043 3.32812,0.154297 0.91293,0.376341 1.76603,1.048663 2.70703,1.845703 1.88202,1.594081 4.20359,3.679688 8.0957,3.679688 9.76383,0 17.74219,-7.978361 17.74219,-17.742188 0,-9.763822 -7.97851,-17.740234 -17.74219,-17.740234 z m 0,2.117187 c 8.61285,0 15.625,7.010362 15.625,15.623047 0,8.61269 -7.0123,15.625 -15.625,15.625 -3.16629,0 -4.80042,-1.544627 -6.72851,-3.177734 -0.96405,-0.816554 -1.97865,-1.65616 -3.26758,-2.1875 -0.93216,-0.384266 -2.05017,-0.478547 -3.25391,-0.386719 0.0504,-0.727192 0.10004,-1.454456 0.14649,-2.181641 3.43613,0.258208 5.43327,1.416564 7.1582,2.701172 1.89743,1.413075 3.64348,3.115235 6.47461,3.115235 7.46778,0 12.97852,-6.094153 12.97852,-13.507813 0,-7.467767 -6.04004,-13.507812 -13.50782,-13.507812 -5.69084,0 -10.4707,3.545962 -12.45898,8.52539 -1.20538,0.08321 -1.7298,0.109139 -2.20117,0.13086 2.07146,-6.197778 7.77106,-10.771485 14.66015,-10.771485 z"
       id="path40"
       clip-path="url(#clipPath41)"
       transform="translate(-51.646137,32.543751)" />
    <path
       id="path43"
       style="baseline-shift:baseline;display:inline;overflow:visible;vector-effect:none;fill:#ffffff;stroke-linecap:round;stroke-linejoin:round;stroke-miterlimit:12;paint-order:markers stroke fill;filter:url(#filter46);enable-background:accumulate;stop-color:#000000"
       d="m 101.81453,74.890533 c -7.9185,0 -14.57831,5.565374 -16.26774,12.984737 0.0452,-0.002 0.0889,-0.0038 0.13126,-0.0057 1.88105,-7.1503 8.40949,-12.449886 16.13648,-12.449886 9.09991,0 16.53944,7.349997 16.68167,16.417086 0.001,-0.08804 0.002,-0.176231 0.002,-0.264584 0,-9.188254 -7.49548,-16.681668 -16.68374,-16.681668 z m 12.44678,16.95297 c -0.12958,6.774021 -5.10784,12.178067 -11.91761,12.178067 -4.81633,0 -5.89415,-5.77451 -14.61617,-5.912817 -0.0922,1.500361 -0.19123,3.000227 -0.30024,4.499467 0.0129,-0.003 0.0259,-0.006 0.0388,-0.009 0.094,-1.31982 0.18033,-2.640336 0.26148,-3.96099 8.72202,0.138307 9.79984,5.91281 14.61617,5.91281 6.9004,0 11.9202,-5.548976 11.9202,-12.449362 0,-0.08621 -8.6e-4,-0.172082 -0.003,-0.257865 z"
       clip-path="url(#clipPath45)"
       transform="translate(-1.7261871,6.3500003)" />
    <path
       id="rect1"
       style="display:inline;fill:#c8c4b7;fill-opacity:1;stroke:none;stroke-width:16.9333;stroke-linecap:round;stroke-linejoin:round;stroke-miterlimit:12;stroke-dasharray:none;stroke-opacity:1;paint-order:markers stroke fill"
       d="m 26.113457,79.626147 c 0,0 -2.71e-4,21.700573 12.402344,34.440793 3.330295,3.43529 8.084777,8.2963 8.084777,12.7894 h 14.69006 14.690059 c 0,-3.77843 2.914971,-7.45754 8.084261,-12.7894 h -0.0016 C 96.466636,101.3268 96.467818,79.626147 96.467818,79.626147 Z"
       sodipodi:nodetypes="ccccccccc" />
    <path
       id="path4"
       clip-path="url(#clipPath5)"
       style="baseline-shift:baseline;display:inline;overflow:visible;opacity:0.48;vector-effect:none;stroke-linecap:round;stroke-linejoin:round;stroke-miterlimit:12;paint-order:markers stroke fill;filter:url(#filter6);enable-background:accumulate;stop-color:#000000"
       d="m 126.66203,28.958956 c -4.67582,4.62e-4 -8.4662,3.790848 -8.46666,8.466666 0,0 -0.95194,24.162359 14.80271,40.345857 l -0.0139,-0.01188 c 1.67755,1.730425 3.4232,3.570978 4.52375,5.083927 0.85981,1.181992 1.09323,2.074882 1.15394,2.056205 0.0162,-0.0076 0.0196,-0.08445 0.0196,-0.243396 0.002,4.675214 3.79197,8.464425 8.46718,8.4646 h 14.68902 14.69161 c 4.67502,-4.56e-4 8.46507,-3.789585 8.46667,-8.4646 0,0.576118 0.77361,-1.820308 5.69526,-6.896736 l 0.004,-0.0098 c 15.73491,-16.182963 14.78722,-40.324153 14.78722,-40.324153 -4.6e-4,-4.675822 -3.79085,-8.46621 -8.46667,-8.466666 l -9.67385,16.933849 c -1.20595,6.374551 -3.58506,14.712769 -8.79688,20.065959 -0.003,0.0065 -0.005,0.01309 -0.008,0.01964 l -0.002,-0.0057 c -3.23249,3.334144 -6.19252,6.521284 -8.17005,10.216948 h -8.52713 -8.65838 c -0.64855,-1.148299 -1.28231,-2.350146 -1.97818,-3.306775 -2.10926,-2.899654 -4.40578,-5.205309 -6.05854,-6.910173 l -0.0119,-0.01189 c -5.21145,-5.353312 -7.58938,-13.69343 -8.79481,-20.068026 z"
       sodipodi:nodetypes="ccccscccccccccccccccccscccc"
       transform="translate(-100.54806,42.201041)" />
    <path
       id="path9"
       clip-path="url(#clipPath10)"
       style="baseline-shift:baseline;display:inline;overflow:visible;mix-blend-mode:normal;vector-effect:none;fill:url(#linearGradient28);stroke-linecap:round;stroke-linejoin:round;stroke-miterlimit:12;paint-order:markers stroke fill;filter:url(#filter13);enable-background:accumulate;stop-color:#000000"
       d="m 118.49819,38.748022 c -0.87712,-1.94e-4 -1.58821,0.7109 -1.58801,1.588017 0,0 -0.17765,22.160832 12.85347,35.546667 l -0.004,-0.0021 c 1.66747,1.720042 3.63818,3.751771 5.14852,5.828068 1.51034,2.076298 2.49029,4.170923 2.49029,5.857523 9.4e-4,0.875506 0.71044,1.585008 1.58595,1.58595 h 14.69161 14.68902 c 0.87631,2e-4 1.58708,-0.709637 1.58802,-1.58595 0,-2.96195 2.51389,-6.401623 7.63674,-11.685591 0,-0.0012 0,-0.0024 0,-0.0036 13.02674,-13.386225 12.84987,-35.540982 12.84987,-35.540982 2e-4,-0.877121 -0.7109,-1.588217 -1.58802,-1.588017 l -1.68155,3.176033 c -0.1657,3.917961 -1.41694,21.017911 -11.85923,31.743799 0,0.0021 0,0.0041 0,0.0062 -4.5977,4.742359 -7.57556,8.36853 -8.25014,12.304675 H 153.67589 140.2147 c -0.40745,-2.183407 -1.37446,-4.261553 -2.73989,-6.138643 -1.69948,-2.336306 -3.77096,-4.45285 -5.43378,-6.168099 -0.001,-7.02e-4 -0.003,-0.0014 -0.004,-0.0021 C 121.59535,62.944058 120.34727,45.842101 120.18181,41.924055 Z"
       sodipodi:nodetypes="ccccscccccccccccccccscccc"
       transform="translate(-92.382732,39.290625)" />
    <path
       id="path13"
       style="baseline-shift:baseline;display:inline;overflow:visible;vector-effect:none;fill:#ffffff;stroke-linecap:round;filter:url(#filter16);enable-background:accumulate;stop-color:#000000;opacity:0.6"
       d="m 36.842195,57.401147 c -1.771206,10.983458 0.531328,22.0144 7.927165,29.987316 4.675575,5.0404 7.433987,11.649284 8.526094,17.242877 h 4.437455 C 56.673138,98.016074 53.454199,90.526206 47.873046,84.509569 41.362183,77.490678 39.314546,67.570896 41.133923,57.401147 Z"
       clip-path="url(#clipPath15)"
       transform="translate(-1.7261871,22.225)" />
    <path
       style="baseline-shift:baseline;display:inline;overflow:visible;opacity:0.627761;mix-blend-mode:normal;vector-effect:none;stroke-linecap:round;stroke-linejoin:round;filter:url(#filter19);enable-background:accumulate;stop-color:#000000"
       d="m 90.809829,85.217522 c -3.264129,4.496065 -9.953573,7.681713 -13.991426,10.146958 -7.423681,4.532408 -29.821926,4.83895 -15.342101,4.94185 11.03057,0.0628 13.582583,-1.348184 16.04909,-2.486018 4.646349,-2.143426 9.268234,-4.088805 12.90039,-9.091796 1.22414,-1.682957 1.600535,-5.19157 0.384047,-3.510994 z"
       id="path17"
       clip-path="url(#clipPath18)"
       sodipodi:nodetypes="cscscc"
       transform="translate(-1.7261871,22.225)" />
    <path
       id="path20"
       style="baseline-shift:baseline;display:inline;overflow:visible;opacity:0.215079;vector-effect:none;stroke-linecap:round;stroke-linejoin:round;filter:url(#filter22);enable-background:accumulate;stop-color:#000000"
       d="m 82.666788,57.401147 c 0.516552,0.231889 1.042937,0.431778 1.569413,0.602547 0.440617,0.677619 0.609666,1.181875 0.572575,1.408183 -0.04197,0.256061 -0.212434,0.500304 -0.668176,0.803051 -0.911483,0.605493 -2.675704,1.043253 -3.996139,1.591635 -0.475678,0.197352 -5.197363,1.502184 -5.083927,2.004528 0.393675,1.733661 5.844912,2.413928 6.01772,3.272669 0.0864,0.429371 0.06828,0.56205 -0.130741,0.79685 -0.199022,0.2348 -0.771815,0.61542 -1.984375,0.920358 -0.0515,0.01307 -0.101939,0.03 -0.150895,0.05064 -0.680999,0.285464 -6.517824,-0.144391 -6.863664,0.398426 -0.345839,0.542818 4.890623,2.00945 4.998661,2.535246 0.216075,1.051593 0.845741,1.805272 1.30483,2.501656 0.459089,0.696384 0.649267,1.271908 0.640271,1.332218 -0.0045,0.03015 0.03073,0.03464 -0.15968,0.173633 -0.19041,0.138987 -0.618272,0.344323 -1.326534,0.517798 -0.0059,0.0018 -0.01173,0.0037 -0.01757,0.0057 -1.162611,0.306894 -4.386516,-1.331251 -4.722709,-0.523482 -0.336194,0.807769 2.143701,3.863753 2.166276,4.400765 0.02258,0.537013 -0.03087,0.825984 -0.0646,0.878499 -0.03374,0.05251 -0.15083,0.229573 -1.054716,0.291455 -0.137025,0.0092 -0.270945,0.04503 -0.394291,0.10542 -1.134807,0.557318 -6.093962,-1.423758 -6.281787,-0.453226 -0.187826,0.970533 4.251864,4.952329 4.234884,5.759879 -0.01698,0.807549 -0.119763,1.439195 -0.387057,1.855184 -0.267294,0.41599 -0.718545,0.787606 -1.956986,0.999939 -0.104689,0.01797 -0.206077,0.05159 -0.300757,0.09974 -1.101004,0.560191 -2.396651,1.061081 -3.595646,1.964738 -0.467247,0.351646 -0.560741,1.015593 -0.208773,1.482597 0.351613,0.466917 1.015164,0.560388 1.48208,0.208773 0.862298,-0.649895 1.973804,-1.111584 3.144511,-1.699121 1.530437,-0.295014 2.617107,-0.978639 3.216858,-1.912028 0.620699,-0.965994 0.701378,-2.027105 0.720886,-2.954859 0.01951,-0.927753 -0.01849,-1.772979 0.09353,-2.351794 0.110162,-0.569231 0.237628,-0.820081 0.758094,-1.082105 1.031603,-0.141617 1.872166,-0.490935 2.308386,-1.169954 0.494234,-0.769325 0.422383,-1.54108 0.398425,-2.110982 -0.02396,-0.569902 -0.01201,-0.985776 0.06873,-1.179773 0.08074,-0.193996 0.157877,-0.365326 0.913639,-0.564824 l -0.01757,0.0062 c 0.870805,-0.213286 1.538601,-0.475133 2.070675,-0.863514 0.532073,-0.388381 5.362813,-0.142104 5.452385,-0.742633 0.179145,-1.201059 -4.916226,-2.885545 -5.413628,-3.640045 -0.497401,-0.7545 -0.940254,-1.471174 -0.999939,-1.761649 -0.02984,-0.145237 -0.02256,-0.122874 0.0062,-0.167949 0.02717,-0.04264 0.155865,-0.189812 0.537435,-0.359668 1.391359,-0.358776 2.363905,-0.832194 2.9993,-1.581815 0.648214,-0.764745 0.752767,-1.774148 0.590145,-2.582272 -0.255555,-1.269936 -0.837089,-2.26851 -1.23455,-3.235978 1.026208,-0.333838 2.282835,-0.715959 3.392558,-1.453141 0.730638,-0.485359 1.422558,-1.215137 1.588017,-2.22467 0.123579,-0.754004 -0.05695,-1.540399 -0.495061,-2.352828 z"
       clip-path="url(#clipPath21)"
       sodipodi:nodetypes="ccssccssccsssssccsssccsssscccccssscsssccssssccsscsscc"
       transform="translate(-1.7261871,22.225)" />
    <path
       id="rect22"
       style="display:inline;mix-blend-mode:normal;fill:#ffffff;stroke-width:2.11667;stroke-linecap:round;stroke-linejoin:round;stroke-miterlimit:12;paint-order:markers stroke fill;filter:url(#filter23);opacity:0.4"
       d="m 46.612148,57.401149 h 2.38538 2.385381 c 0,0 4.255607,14.019569 1.5875,20.943496 -2.668107,6.923927 4.7625,20.943497 4.7625,20.943497 0,0 -9.149084,-13.840304 -7.14788,-20.943497 2.001204,-7.103193 -3.972881,-20.943496 -3.972881,-20.943496 z"
       sodipodi:nodetypes="ccczczc"
       clip-path="url(#clipPath23)"
       transform="translate(1.448813,22.225)" />
    <path
       id="path25"
       style="display:inline;opacity:0.28;mix-blend-mode:normal;fill:#ffffff;fill-opacity:1;stroke:none;stroke-width:1.8987;stroke-linecap:round;stroke-linejoin:round;stroke-miterlimit:12;stroke-dasharray:none;stroke-opacity:1;paint-order:markers stroke fill;filter:url(#filter27)"
       d="m 37.992254,56.242044 c -0.04505,0.352183 -0.06764,0.705198 -0.0677,1.058334 10e-7,7.973762 11.234034,14.437796 25.092008,14.437878 13.858176,8.2e-5 25.092524,-6.464 25.092525,-14.437878 -6.5e-5,-0.353136 -0.02265,-0.706151 -0.0677,-1.058334 -0.963525,7.542884 -11.880328,9.121615 -25.024821,9.121597 -13.144297,-1.35e-4 -24.060801,-1.578825 -25.024312,-9.121597 z"
       clip-path="url(#clipPath26)"
       transform="matrix(1,0,0,1.2427739,-1.7261871,8.5708983)"
       sodipodi:nodetypes="ccscccc" />
    <path
       id="path28"
       style="opacity:0.12;fill:url(#linearGradient33);fill-rule:nonzero;stroke:none;stroke-width:0.264583px;stroke-linecap:butt;stroke-linejoin:miter;stroke-opacity:1"
       d="m 69.978479,14.968596 c -6.200591,1.655436 -12.594815,4.412107 -15.968017,10.129613 -2.500806,3.876466 -0.651544,8.996544 2.355412,12.030274 4.132163,4.540845 10.283457,6.010379 15.795935,8.118884 2.997465,1.197548 -5.155689,4.092827 -4.845183,7.611421 -0.676748,4.811244 6.182664,6.321949 3.011703,9.370488 -5.485955,4.383055 -11.773576,8.873491 -13.872022,15.936495 -1.315923,3.156729 1.478295,7.123753 4.972307,6.611999 3.594764,-0.06462 5.393075,-3.434451 6.275586,-6.385657 5.020576,-7.936757 14.447095,-12.470398 17.819583,-21.547005 2.129302,-4.756033 -0.37258,-10.280071 -4.369759,-13.171288 -4.449017,-3.613444 -10.422285,-3.6464 -15.654341,-5.367115 -4.114423,-1.231856 -8.520848,-3.4663 -10.273275,-7.620206 -1.461174,-4.754541 2.240935,-9.097452 5.946407,-11.557951 2.688335,-1.838902 5.670797,-3.266425 8.805664,-4.159952 z M 77.8519,47.743339 c 3.239216,0 5.116484,2.511474 5.116484,4.513419 0,6.45713 -5.40875,9.518282 -6.566524,9.518282 -1.619608,0 -1.82e-4,-3.773443 -2.69751,-4.756816 -1.172251,-0.427371 -2.412256,-2.521292 -2.412256,-3.522265 0,-1.056511 1.411263,-1.93656 2.578137,-3.411161 1.044195,-1.319569 2.451924,-2.341459 3.981669,-2.341459 z" />
    <path
       style="display:inline;opacity:0.12;fill:url(#linearGradient31);fill-opacity:1;fill-rule:nonzero;stroke:none;stroke-width:0.264583px;stroke-linecap:butt;stroke-linejoin:miter;stroke-opacity:1"
       d="m 46.144697,7.919571 c 0.694507,0.9088347 1.287229,1.884481 1.679851,2.895308 0.328071,0.84464 0.505771,1.685488 0.513209,2.523382 0.0066,0.74547 -0.12131,1.467965 -0.375792,2.186676 -0.234755,0.662999 -0.573134,1.312372 -1.00346,1.977171 -0.406981,0.628733 -0.884587,1.254116 -1.425003,1.919382 -0.513825,0.63253 -1.076807,1.290506 -1.656312,1.996514 -3.001998,3.657316 -3.484563,5.362667 -3.643312,6.303697 -0.269346,1.596582 -0.0591,3.543562 0.305819,5.48785 0.257177,1.370229 0.613073,2.851552 1.014915,4.399569 0.400923,1.544477 0.860005,3.201619 1.309476,4.860919 0.937594,3.461292 1.831573,6.932166 2.401518,10.382 0.60148,3.640706 0.778937,6.90924 0.396879,9.787389 -0.324569,2.104015 -0.895843,3.891839 -1.452205,5.363288 -0.682507,1.805074 -1.380979,3.277963 -1.91199,4.566758 -0.251114,0.609468 -0.461695,1.160477 -0.635665,1.686258 -0.05373,0.16238 -0.120473,0.368734 -0.190644,0.599185 -0.186513,0.612538 -0.432425,1.504274 -0.566554,2.484885 -0.122808,0.897851 -0.150019,1.843302 -0.0086,2.818977 0.187245,1.291483 0.619845,2.27671 0.977119,2.933425 2.468912,4.538169 9.276169,0.834799 6.807257,-3.70337 -0.0495,-0.091 -0.09376,-0.194601 -0.11513,-0.341976 -0.01829,-0.12614 -0.02741,-0.330332 0.01726,-0.656862 0.05294,-0.387013 0.165193,-0.82849 0.301992,-1.27776 0.04732,-0.155409 0.09414,-0.300444 0.134421,-0.422178 0.127431,-0.38513 0.284024,-0.855952 0.475202,-1.4282 0.344196,-1.030276 1.047013,-3.091756 1.560666,-5.16988 0.460273,-1.862165 0.896182,-4.188998 0.9859,-6.902477 0.18928,-3.724034 -0.38354,-7.601783 -1.349228,-11.471411 -0.916725,-3.673421 -2.173237,-7.284263 -3.414667,-10.656526 -0.603441,-1.639208 -1.140869,-3.054784 -1.74431,-4.693992 -0.540866,-1.471522 -1.018586,-2.820374 -1.399691,-4.042184 -0.416366,-1.334855 -0.882497,-3.039255 -0.909616,-4.316091 0.07781,-1.980831 1.236675,-3.840132 2.196292,-5.520985 0.444481,-0.770348 0.896316,-1.517486 1.312807,-2.248092 0.4383,-0.768863 0.829699,-1.504975 1.151911,-2.244184 0.341667,-0.783841 0.591412,-1.539917 0.734257,-2.296108 0.154761,-0.819265 0.177696,-1.607071 0.07575,-2.38708 -0.114027,-0.872673 -0.382008,-1.714534 -0.768386,-2.541605 -0.46272,-0.990485 -1.088686,-1.9444825 -1.781936,-2.851672 z"
       id="path29"
       sodipodi:nodetypes="csscsssssssscssssscsssssssscsscscsssscsc" />
    <path
       id="path51"
       style="display:inline;opacity:0.724485;mix-blend-mode:normal;fill:url(#linearGradient53);fill-opacity:1;stroke:none;stroke-width:16.9333;stroke-linecap:round;stroke-linejoin:round;stroke-miterlimit:12;stroke-dasharray:none;stroke-opacity:1;paint-order:markers stroke fill;filter:url(#filter55)"
       d="m 80.707683,84.937997 c -9.479204,-0.0397 -29.550118,-0.0046 -39.032553,-0.01542 1.79694,3.609087 9.783137,18.154343 12.567407,21.016743 1.102107,1.1552 2.109695,7.10823 3.077775,8.35967 2.654948,-0.003 5.309896,-0.007 7.964844,-0.01 3.264295,-4.35876 12.861119,-23.994068 15.391277,-28.859855 0.01495,-0.177279 0.501721,-0.646376 0.03125,-0.491505 z"
       sodipodi:nodetypes="cccccccc"
       clip-path="url(#clipPath54)" />
    <path
       id="path33"
       style="display:inline;opacity:0.28;mix-blend-mode:multiply;fill:url(#linearGradient35);fill-opacity:1;stroke:none;stroke-width:16.9333;stroke-linecap:round;stroke-linejoin:round;stroke-miterlimit:12;stroke-dasharray:none;stroke-opacity:1;paint-order:markers stroke fill;filter:url(#filter39)"
       d="m 38.823718,114.3832 c 3.3076,3.4134 7.77886,8.11609 7.77886,12.47314 h 14.69006 14.69006 c 0,-3.70334 2.79985,-7.31095 7.77833,-12.47314 0,0 -3.168924,1.05833 -22.468655,1.05833 -19.299731,0 -22.468655,-1.05833 -22.468655,-1.05833 z"
       sodipodi:nodetypes="ccccczc" />
    <path
       id="path49"
       style="display:inline;opacity:0.28;mix-blend-mode:multiply;fill:url(#linearGradient50);fill-opacity:1;stroke:none;stroke-width:16.9333;stroke-linecap:round;stroke-linejoin:round;stroke-miterlimit:12;stroke-dasharray:none;stroke-opacity:1;paint-order:markers stroke fill;filter:url(#filter51)"
       d="m 26.113457,79.626147 c 0,0 -2.6e-4,2.074817 0.36638,5.318021 h 69.62056 c 0.36685,-3.243203 0.3669,-5.318021 0.3669,-5.318021 z" />
    <path
       id="path2"
       style="display:inline;opacity:0.12;fill:url(#linearGradient2);fill-opacity:1;fill-rule:nonzero;stroke:none;stroke-width:0.264583px;stroke-linecap:butt;stroke-linejoin:miter;stroke-opacity:1;filter:url(#filter14)"
       d="m 46.144552,7.9196488 c 0.03676,0.048112 0.07318,0.09632 0.10955,0.144694 -0.03614,-0.048427 -0.07231,-0.096636 -0.10903,-0.144694 z m 0.10955,0.144694 c 0.64733,0.8673853 1.19859,1.7933604 1.57045,2.7507362 0.32807,0.844641 0.50622,1.685466 0.51366,2.52336 0.007,0.74547 -0.12172,1.467719 -0.3762,2.18643 -0.23476,0.662999 -0.57272,1.312341 -1.00304,1.97714 -0.05912,0.09133 -0.11983,0.182565 -0.1819,0.273886 -0.13012,0.420778 -0.29081,0.84545 -0.47956,1.278474 -0.32222,0.739209 -0.71357,1.475445 -1.15187,2.244308 -0.41649,0.730606 -0.86862,1.477577 -1.3131,2.247925 -0.95962,1.680853 -2.11844,3.540279 -2.19624,5.52111 0.02711,1.276836 0.49314,2.98116 0.9095,4.316015 0.38111,1.22181 0.85906,2.570609 1.39992,4.042131 0.60344,1.639208 1.14064,3.055079 1.74408,4.694287 1.24143,3.372263 2.49804,6.982776 3.41477,10.656197 0.96569,3.869628 1.53856,7.747617 1.34928,11.471651 -0.08972,2.713479 -0.52572,5.040256 -0.98599,6.902421 -0.51366,2.078124 -1.21643,4.139434 -1.56063,5.16971 -0.19118,0.572248 -0.34747,1.043206 -0.4749,1.428336 -0.04032,0.121734 -0.08706,0.266788 -0.13436,0.422197 -0.1368,0.44927 -0.24941,0.890945 -0.30231,1.277958 -0.0447,0.32653 -0.03535,0.530668 -0.01705,0.656808 0.02133,0.147375 0.06522,0.250581 0.11472,0.341581 0.94768,1.741966 0.52903,3.361414 -0.48679,4.438488 1.98669,-0.760347 3.43114,-3.002755 2.07429,-5.496822 -0.0495,-0.091 -0.09339,-0.194206 -0.11472,-0.341581 -0.0183,-0.12614 -0.02765,-0.330277 0.01705,-0.656807 0.0529,-0.387013 0.16551,-0.828688 0.30231,-1.277958 0.0473,-0.155409 0.09404,-0.300463 0.13436,-0.422197 0.12743,-0.38513 0.28372,-0.856088 0.4749,-1.428336 0.3442,-1.030276 1.04697,-3.091587 1.56063,-5.169711 0.46027,-1.862165 0.89627,-4.188942 0.98599,-6.902421 0.18928,-3.724034 -0.38359,-7.602023 -1.34928,-11.471651 -0.91673,-3.673421 -2.17334,-7.283934 -3.41477,-10.656197 -0.60344,-1.639208 -1.14064,-3.055079 -1.74408,-4.694287 -0.54086,-1.471522 -1.01881,-2.82032 -1.39992,-4.04213 -0.41636,-1.334855 -0.88239,-3.03918 -0.9095,-4.316016 0.0778,-1.980831 1.23662,-3.840257 2.19624,-5.52111 0.44448,-0.770348 0.89661,-1.517318 1.3131,-2.247924 0.4383,-0.768863 0.82965,-1.505099 1.15187,-2.244308 0.34166,-0.783841 0.59148,-1.539793 0.73432,-2.295984 0.15476,-0.819265 0.17745,-1.606925 0.07545,-2.386934 -0.11402,-0.872673 -0.38206,-1.714892 -0.76843,-2.541964 -0.43818,-0.9379552 -1.02278,-1.8430596 -1.67225,-2.7068112 z" />
    <path
       id="path3"
       style="display:inline;opacity:0.12;fill:url(#linearGradient3);fill-rule:nonzero;stroke:none;stroke-width:0.264583px;stroke-linecap:butt;stroke-linejoin:miter;stroke-opacity:1;filter:url(#filter10)"
       d="m 69.978473,14.968594 c -5.88571,1.57137 -11.94581,4.134821 -15.4311,9.281088 -0.72541,1.666403 -0.95966,3.490047 -0.3793,5.378483 0.62843,1.489625 1.59829,2.732089 2.77347,3.770312 -0.70126,-0.798605 -1.28734,-1.697939 -1.71514,-2.711979 -1.46117,-4.754541 2.24093,-9.097452 5.94641,-11.557951 2.68833,-1.838902 5.67079,-3.266426 8.80566,-4.159953 z M 56.372073,37.1352 c 4.02393,4.416763 9.95941,5.925636 15.35565,7.947835 0.12302,-0.358092 -0.03547,-0.658774 -0.62425,-0.894002 -5.05684,-1.934224 -10.65125,-3.330825 -14.7314,-7.053833 z m 25.76328,7.327201 c 2.72301,3.055671 4.06665,7.445601 2.33009,11.324373 -3.37248,9.076607 -12.799,13.610248 -17.81958,21.547005 -0.88251,2.951206 -2.68083,6.321037 -6.27559,6.385657 -1.19615,0.175196 -2.31019,-0.174745 -3.20548,-0.837158 0.97274,1.302549 2.53229,2.1491 4.26382,1.895491 3.59476,-0.06462 5.39307,-3.434451 6.27558,-6.385657 5.02058,-7.936757 14.44711,-12.470397 17.81959,-21.547004 1.94903,-4.353356 0.01798,-9.350516 -3.38843,-12.382707 z m -5.34179,2.222603 c -1.52974,0 -2.93747,1.02189 -3.98167,2.341459 -1.16687,1.474601 -2.57814,2.354651 -2.57814,3.411162 0,0.890978 0.98257,2.647578 2.0252,3.324345 -0.56372,-0.769794 -0.96686,-1.695356 -0.96686,-2.266012 0,-1.056511 1.41127,-1.93656 2.57814,-3.411161 1.0442,-1.319569 2.45192,-2.341459 3.98166,-2.341459 1.29287,0 2.36847,0.400119 3.19464,1.008207 -0.85094,-1.158905 -2.30571,-2.066541 -4.25297,-2.066541 z m -2.805,10.454659 c 0.74154,1.475153 0.14617,3.577043 1.35496,3.577043 0.06346,0 0.13945,-0.0095 0.22686,-0.02791 -0.17386,-1.12575 -0.11174,-2.820502 -1.58182,-3.549138 z" />
    <path
       id="path5"
       style="opacity:0.12;fill:url(#linearGradient5);fill-opacity:1;fill-rule:nonzero;stroke:none;stroke-width:0.264583px;stroke-linecap:butt;stroke-linejoin:miter;stroke-opacity:1;filter:url(#filter17)"
       d="m 47.040654,18.082458 c -2.065595,2.897478 -4.863406,5.370451 -6.132812,8.769532 -0.705927,2.597525 -0.0231,5.352852 0.495653,7.88211 1.885855,8.045539 4.85648,16.036494 4.95011,24.422956 0.09913,3.883902 -1.072441,7.657698 -2.635005,11.170519 -1.374988,3.159041 -2.959492,6.58926 -2.234014,10.118046 0.315487,1.320789 0.864189,2.798357 2.036537,3.543087 -1.934474,-2.530704 -2.041615,-6.004453 -1.154297,-8.960937 1.075672,-3.74715 3.186024,-7.129661 3.994106,-10.967017 0.675108,-2.746188 0.5993,-5.804282 0.305193,-8.602669 -0.827712,-7.632568 -3.566841,-14.852972 -5.096174,-22.338517 -0.477465,-2.654244 -0.869217,-5.606705 0.550897,-8.055069 1.255507,-2.415468 3.179339,-4.386771 4.799375,-6.539297 0.211366,-0.405274 0.638069,-1.286812 0.120431,-0.442744 z" />
    <path
       id="path7"
       style="opacity:0.12;fill:url(#linearGradient7);fill-rule:nonzero;stroke:none;stroke-width:0.264583px;stroke-linecap:butt;stroke-linejoin:miter;stroke-opacity:1;filter:url(#filter12)"
       d="m 56.297647,22.225969 c -1.27338,1.4344 -2.53466,3.015893 -3.02539,4.90625 0.57161,-1.041464 1.45306,-1.877162 1.86132,-3.003906 0.43263,-0.821241 0.95568,-1.594037 1.55469,-2.302735 -0.13021,0.133464 -0.26042,0.266927 -0.39062,0.400391 z M 55.313267,32.433 c 0.86595,2.699252 3.21514,4.637085 5.63988,5.936036 4.20157,2.23594 8.98561,2.803289 13.52614,4.003417 2.77618,0.734904 5.43208,1.99603 7.58175,3.923533 1.1768,1.018637 2.17299,2.244327 2.93387,3.601858 -1.05554,-3.45669 -3.91258,-6.178208 -7.01758,-7.746094 -4.39516,-2.127912 -9.35423,-2.313456 -13.91367,-3.965633 -3.40682,-1.145179 -6.81271,-2.978028 -8.81484,-6.069523 0.0215,0.105469 0.043,0.210938 0.0644,0.316406 z m 14.78711,16.404297 c -1.09162,0.980062 -2.53805,2.0442 -2.55664,3.650391 1.25371,-1.583987 3.11775,-2.541262 4.39648,-4.087891 0.0527,-0.349767 -0.8179,-0.671178 -1.01301,-0.237316 -0.27561,0.224939 -0.55122,0.449877 -0.82683,0.674816 z m 1.42578,6.923828 c 0.14002,1.202588 0.90568,2.350898 1.90625,3.023438 0.4281,0.178531 0.86276,0.371193 1.19531,0.705078 -0.0726,-0.974057 -0.49365,-2.070392 -1.53603,-2.344807 -0.64663,-0.277609 -1.16444,-0.860084 -1.56553,-1.383709 z m 10.04297,1.970703 c -1.22414,1.875424 -2.97278,3.576872 -5.16016,4.226563 -0.43819,0.09322 -0.95836,-0.216064 -0.67952,0.475349 0.10254,0.347961 -0.0149,0.954046 0.34945,1.143792 1.70813,-0.438529 3.07375,-1.744049 4.14062,-3.09961 0.67065,-0.90638 1.19257,-1.926143 1.50781,-3.009766 -0.0527,0.08789 -0.10547,0.175782 -0.1582,0.263672 z m -13.29492,6.251954 c -4.19376,3.346685 -8.57336,6.911614 -10.8279,11.920663 -0.17371,0.371669 -0.4114,0.978871 -0.48851,1.219961 2.72009,-5.188695 7.49931,-8.806691 11.9889,-12.377752 0.70553,-0.502232 1.7405,-1.319248 1.26892,-2.303888 -0.64714,0.513672 -1.29428,1.027344 -1.94141,1.541016 z" />
    <path
       id="path8"
       style="opacity:0.12;fill:url(#linearGradient8);fill-rule:nonzero;stroke:none;stroke-width:0.264583px;stroke-linecap:butt;stroke-linejoin:miter;stroke-opacity:1;filter:url(#filter11)"
       d="m 57.921875,36.474609 c 3.351533,3.338996 8.005576,4.844908 12.402767,6.410244 1.096943,0.472867 2.340078,0.696412 3.315983,1.402256 0.978974,0.850925 1.017656,2.50966 0.02504,3.367143 -1.406505,1.764485 -3.805952,2.662135 -4.71848,4.812947 -0.388268,1.501143 0.367349,2.984226 1.405164,4.030169 1.172263,1.260003 2.630353,2.723991 2.362495,4.606148 -0.332666,2.030265 -2.352454,3.022787 -3.768058,4.239961 -3.938743,3.195338 -8.097816,6.553103 -10.211611,11.299061 -0.655635,1.485054 -1.523842,3.278483 -0.591529,4.844515 0.668675,1.25772 2.167051,2.035963 3.57494,1.677121 2.168751,-0.247442 3.49885,-2.353547 4.113445,-4.259877 0.711228,-2.199842 2.35497,-3.901771 3.821121,-5.624062 4.306362,-4.797897 9.803438,-8.60089 13.089989,-14.257173 1.299512,-2.316248 2.474916,-5.022281 1.75017,-7.72015 -0.981908,-4.263328 -4.7011,-7.413488 -8.739405,-8.730646 -4.600014,-1.545173 -9.550404,-1.905341 -13.992812,-3.947478 -1.418906,-0.631199 -2.786466,-1.391928 -4.02086,-2.337679 0.06055,0.0625 0.121094,0.125 0.181641,0.1875 z m 20.228516,9.677735 c 3.37887,0.0304 6.635072,3.037062 6.395608,6.515975 -0.09271,4.649299 -3.193614,9.265581 -7.697193,10.669477 -1.450623,0.290342 -2.862482,-1.010612 -2.847333,-2.458767 -0.177654,-0.857941 -0.0021,-2.133346 -1.046569,-2.459609 -1.8577,-0.981838 -3.163681,-3.019096 -3.2236,-5.118893 0.155632,-1.893182 1.962373,-2.92467 2.989142,-4.331699 1.351643,-1.593863 3.242556,-2.944877 5.429945,-2.816484 z" />
    <path
       id="path10"
       style="opacity:0.12;fill:url(#linearGradient10);fill-opacity:1;fill-rule:nonzero;stroke:none;stroke-width:0.264583px;stroke-linecap:butt;stroke-linejoin:miter;stroke-opacity:1;filter:url(#filter15)"
       d="m 44.087891,38.841797 c 1.95487,7.469316 4.326306,15.099333 3.799019,22.935391 -0.375573,4.641896 -2.533132,8.848427 -4.208417,13.11357 -0.83119,2.393684 -1.215572,5.273822 0.249241,7.505726 0.773021,1.06621 2.497858,0.708279 2.984375,-0.443359 0.396777,-0.67102 0.0046,-1.353336 -0.275271,-1.968078 -0.623107,-1.975584 0.486473,-3.929651 0.982454,-5.802549 0.915034,-2.785484 1.77751,-5.512774 2.097505,-8.442264 0.429612,-3.660337 0.239501,-7.43182 -0.525391,-11.082031 C 48.000659,48.832393 45.820451,43.307826 43.796875,37.75 c 0.09701,0.363932 0.19401,0.727865 0.291016,1.091797 z" />
    <path
       id="path18"
       style="opacity:0.04;fill:url(#linearGradient18);fill-rule:nonzero;stroke:none;stroke-width:0.264583px;stroke-linecap:butt;stroke-linejoin:miter;stroke-opacity:1;filter:url(#filter24)"
       d="m 53.031119,30.345703 c 0.645019,4.05601 3.746878,7.248355 7.171251,9.255022 3.669056,2.179971 7.84888,3.241497 11.770287,4.833001 0.972123,0.504036 1.295474,1.917976 0.470572,2.708852 -1.460857,1.886554 -3.948939,2.817468 -4.941406,5.054688 -0.332898,1.297476 -0.06458,2.727149 0.790948,3.778349 1.038819,1.510461 2.929332,2.687511 2.971465,4.70084 -0.03904,1.762307 -1.732355,2.780233 -2.973268,3.740933 -4.094418,3.314828 -8.445932,6.70904 -10.80332,11.554906 -0.598237,1.463288 -1.481442,3.0048 -1.188951,4.639034 0.375554,1.92 2.319814,3.521176 4.312729,3.099779 2.309169,-0.09669 3.857947,-2.203176 4.613189,-4.186604 0.364622,-1.168965 0.871194,-2.289273 1.673252,-3.226287 4.493614,-6.147065 11.340255,-10.238969 15.258956,-16.849063 1.300334,-2.349864 2.561485,-5.013308 1.990364,-7.768883 -0.685438,-4.063723 -3.869305,-7.283294 -7.511296,-8.95486 -4.365143,-1.923684 -9.231303,-2.178311 -13.690625,-3.821976 -3.696117,-1.299172 -7.422973,-3.447528 -9.288062,-7.035785 -0.337962,-0.658277 -0.568839,-1.370433 -0.690538,-2.100071 0.02148,0.192708 0.04297,0.385417 0.06445,0.578125 z m 23.855469,16.339844 c 3.169399,-0.129786 6.341142,2.593428 6.17384,5.867959 -0.04294,4.418304 -2.937836,8.798343 -7.164074,10.245322 -1.11826,0.271404 -2.267888,-0.647111 -2.295163,-1.790268 C 73.368098,59.965435 73.575571,58.441887 72.333854,58 c -1.68472,-0.828232 -2.83081,-2.62427 -3.048077,-4.461325 0.01789,-1.760927 1.745359,-2.708021 2.672952,-3.994413 1.247392,-1.481973 2.878015,-2.87467 4.927859,-2.858715 z" />
    <path
       id="path21"
       style="display:inline;opacity:0.04;fill:url(#linearGradient21);fill-opacity:1;fill-rule:nonzero;stroke:none;stroke-width:0.264583px;stroke-linecap:butt;stroke-linejoin:miter;stroke-opacity:1;filter:url(#filter21)"
       d="m 42.765365,29.220703 c 0.07617,3.810717 1.309599,7.466124 2.223647,11.132201 1.859875,6.900627 3.869999,13.953945 3.447472,21.174957 -0.329274,4.415748 -2.256874,8.467738 -3.946509,12.489717 -1.016714,2.6298 -1.602484,5.769379 -0.152344,8.357422 0.55689,1.033303 1.897978,1.555442 2.957684,0.952882 1.171027,-0.526914 1.813902,-2.07598 1.030597,-3.185304 -0.573923,-1.196974 -0.199687,-2.515988 0.183594,-3.703125 1.016223,-3.284568 2.226549,-6.412839 2.6875,-9.845703 0.606425,-4.160696 0.377856,-8.640886 -0.601904,-12.828067 -1.624514,-7.52088 -4.886793,-14.534171 -7.189112,-21.865292 -0.27903,-1.006977 -0.521875,-2.02667 -0.638672,-3.066407 -6.51e-4,0.128907 -0.0013,0.257813 -0.002,0.386719 z" />
    <path
       id="rect29"
       style="opacity:0.12;fill:url(#linearGradient40);stroke-width:2.11667;stroke-linecap:round;stroke-linejoin:round;stroke-miterlimit:12;paint-order:markers stroke fill;filter:url(#filter50)"
       d="m 77.576745,14.968596 c 0,0 3.843793,7.860892 3.839474,11.066718 -0.0044,3.205825 -4.542341,9.624677 -4.542341,9.624677 0,0 -1.885546,-4.190511 -2.308485,-6.235794 -0.422938,-2.045282 2.437031,-3.638261 3.011352,-6.098544 0.574322,-2.460281 0,-8.357057 0,-8.357057 z"
       sodipodi:nodetypes="czczzc" />
    <path
       id="path41"
       style="opacity:0.0878726;mix-blend-mode:normal;fill:url(#linearGradient41);stroke-width:2.11667;stroke-linecap:round;stroke-linejoin:round;stroke-miterlimit:12;paint-order:markers stroke fill;filter:url(#filter41)"
       d="m 78.243072,21.294033 c -0.02621,1.893638 -0.646376,3.782173 -1.927066,5.20158 -0.657636,0.88301 -1.671208,1.904574 -1.215641,3.102208 0.358996,1.256683 0.852789,2.472527 1.339973,3.684494 1.337542,-2.163527 2.779562,-4.459559 3.247957,-7.033295 0.100519,-2.008926 -0.808683,-3.882633 -1.429598,-5.746002 -0.0052,0.263672 -0.01042,0.527343 -0.01563,0.791015 z" />
    <path
       id="path45"
       style="opacity:0.12;mix-blend-mode:normal;fill:url(#linearGradient45);stroke-width:2.11667;stroke-linecap:round;stroke-linejoin:round;stroke-miterlimit:12;paint-order:markers stroke fill;filter:url(#filter49)"
       d="m 77.576745,14.968596 c 0,0 0.116646,1.195756 0.192236,2.735233 1.121638,2.58307 2.591661,6.347997 2.588989,8.331275 -0.0034,2.446558 -2.646883,6.764804 -3.898987,8.672855 0.247093,0.578575 -0.520481,4.085615 -0.520481,4.085615 0,0 5.473401,-9.552645 5.477801,-12.75847 0.0043,-3.205826 -3.839558,-11.066508 -3.839558,-11.066508 z"
       sodipodi:nodetypes="ccccccc" />
  </g>
</svg>
