<?xml version="1.0" encoding="UTF-8" standalone="no"?>
<!-- Created with Inkscape (http://www.inkscape.org/) -->

<svg
   width="512"
   height="512"
   viewBox="0 0 135.46666 135.46667"
   version="1.1"
   id="svg5"
   inkscape:version="1.2.1 (9c6d41e410, 2022-07-14, custom)"
   sodipodi:docname="text-javascript.svg"
   xmlns:inkscape="http://www.inkscape.org/namespaces/inkscape"
   xmlns:sodipodi="http://sodipodi.sourceforge.net/DTD/sodipodi-0.dtd"
   xmlns:xlink="http://www.w3.org/1999/xlink"
   xmlns="http://www.w3.org/2000/svg"
   xmlns:svg="http://www.w3.org/2000/svg">
  <sodipodi:namedview
     id="namedview7"
     pagecolor="#505050"
     bordercolor="#ffffff"
     borderopacity="1"
     inkscape:showpageshadow="0"
     inkscape:pageopacity="0"
     inkscape:pagecheckerboard="1"
     inkscape:deskcolor="#505050"
     inkscape:document-units="px"
     showgrid="false"
     inkscape:zoom="2.2428543"
     inkscape:cx="307.19784"
     inkscape:cy="389.68202"
     inkscape:window-width="3252"
     inkscape:window-height="1076"
     inkscape:window-x="1864"
     inkscape:window-y="0"
     inkscape:window-maximized="0"
     inkscape:current-layer="layer1" />
  <defs
     id="defs2">
    <linearGradient
       inkscape:collect="always"
       id="linearGradient1251">
      <stop
         style="stop-color:#ff6400;stop-opacity:0.48115087;"
         offset="0"
         id="stop1249" />
      <stop
         style="stop-color:#ffff00;stop-opacity:0.48011094;"
         offset="1"
         id="stop1247" />
    </linearGradient>
    <linearGradient
       inkscape:collect="always"
       id="linearGradient14531">
      <stop
         style="stop-color:#ffff00;stop-opacity:1;"
         offset="0"
         id="stop14527" />
      <stop
         style="stop-color:#ffff00;stop-opacity:0;"
         offset="1"
         id="stop14529" />
    </linearGradient>
    <filter
       inkscape:collect="always"
       style="color-interpolation-filters:sRGB"
       id="filter13016"
       x="-0.15552"
       y="-0.15552"
       width="1.31104"
       height="1.31104">
      <feGaussianBlur
         inkscape:collect="always"
         stdDeviation="6.3346244"
         id="feGaussianBlur13018" />
    </filter>
    <linearGradient
       inkscape:collect="always"
       xlink:href="#linearGradient14531"
       id="linearGradient14533"
       x1="15.875"
       y1="15.875"
       x2="67.73333"
       y2="67.73333"
       gradientUnits="userSpaceOnUse" />
    <linearGradient
       inkscape:collect="always"
       xlink:href="#linearGradient1251"
       id="linearGradient1253"
       x1="93.516052"
       y1="72.316666"
       x2="93.516052"
       y2="131.10512"
       gradientUnits="userSpaceOnUse" />
  </defs>
  <g
     inkscape:label="Layer 1"
     inkscape:groupmode="layer"
     id="layer1">
    <rect
       style="fill:#ffcc00;stroke:none;stroke-width:2.22197;stroke-linecap:round;stroke-linejoin:round;paint-order:fill markers stroke"
       id="rect11832"
       width="135.46666"
       height="135.46666"
       x="0"
       y="0"
       ry="2.7100351" />
    <path
       id="rect11832-1"
       style="fill:url(#linearGradient14533);stroke-width:1.60344;stroke-linecap:round;stroke-linejoin:round;paint-order:fill markers stroke;filter:url(#filter13016);fill-opacity:1"
       d="m 15.875,15.875 h 97.75655 L 15.875,113.63155 Z"
       sodipodi:nodetypes="cccc" />
    <g
       aria-label="JS"
       id="text12614"
       style="font-size:74.4159px;line-height:1.25;stroke-width:1.86028539;stroke:url(#linearGradient1253);stroke-opacity:1;stroke-dasharray:none;stroke-linecap:round;paint-order:stroke fill markers">
      <path
         d="m 78.381614,74.214214 v 38.919516 c 0,4.83703 -1.637149,7.21834 -4.911449,7.21834 -2.530141,0 -4.167291,-1.4139 -4.837034,-4.16729 H 58.438153 c 0.446495,4.31612 1.26507,6.5486 3.497547,9.00433 2.827804,3.19988 7.143927,4.98586 11.757713,4.98586 9.227571,0 14.88318,-6.39977 14.88318,-16.74358 V 74.214214 Z"
         style="font-weight:600;font-family:'URW Gothic';-inkscape-font-specification:'URW Gothic Semi-Bold';stroke:url(#linearGradient1253);stroke-opacity:1;stroke-width:1.86028539;stroke-dasharray:none;stroke-linecap:round;paint-order:stroke fill markers"
         id="path13397" />
      <path
         d="m 94.529829,113.50581 c 0.37208,4.31612 1.339486,7.06951 3.571963,10.04615 3.274298,4.16729 8.632248,6.62301 14.511098,6.62301 9.89732,0 17.56216,-7.66484 17.56216,-17.63657 0,-4.61378 -1.63715,-8.48341 -4.91145,-11.46005 -2.15806,-2.009225 -3.86963,-2.902215 -9.30199,-4.985861 -5.20911,-1.934813 -5.35795,-2.009229 -6.10211,-2.455724 -2.00922,-1.265071 -3.05105,-2.976637 -3.05105,-4.985866 0,-3.274299 2.3069,-5.581192 5.65561,-5.581192 3.42313,0 5.50678,2.083645 5.80444,5.80444 h 10.56706 c -0.22325,-4.167291 -1.19065,-6.995095 -3.42313,-9.748483 -2.97664,-3.720795 -7.73926,-5.878856 -12.87395,-5.878856 -8.92991,0 -15.999421,6.920678 -15.999421,15.627339 0,6.920679 4.018461,12.204203 11.460051,14.957593 7.36717,2.75339 7.88808,2.97664 9.52523,4.24171 1.63715,1.33949 2.53014,3.2743 2.53014,5.58119 0,3.94404 -3.05105,6.69743 -7.44159,6.69743 -4.53937,0 -6.99509,-2.23247 -7.44159,-6.84626 z"
         style="font-weight:600;font-family:'URW Gothic';-inkscape-font-specification:'URW Gothic Semi-Bold';stroke:url(#linearGradient1253);stroke-opacity:1;stroke-width:1.86028539;stroke-dasharray:none;stroke-linecap:round;paint-order:stroke fill markers"
         id="path13399" />
    </g>
    <text
       xml:space="preserve"
       style="font-style:normal;font-weight:normal;font-size:74.4159px;line-height:1.25;font-family:sans-serif;display:none;fill:#000000;fill-opacity:1;stroke:none;stroke-width:1.86039"
       x="57.76841"
       y="129.20757"
       id="text13395"
       inkscape:label="font-reference"><tspan
         sodipodi:role="line"
         id="tspan13393"
         style="font-style:normal;font-variant:normal;font-weight:600;font-stretch:normal;font-size:74.4159px;font-family:'URW Gothic';-inkscape-font-specification:'URW Gothic Semi-Bold';font-variant-ligatures:normal;font-variant-caps:normal;font-variant-numeric:normal;font-variant-east-asian:normal;stroke-width:1.86039"
         x="57.76841"
         y="129.20757">JS</tspan></text>
  </g>
</svg>
