<?xml version="1.0" encoding="UTF-8" standalone="no"?>
<!-- Created with Inkscape (http://www.inkscape.org/) -->

<svg
   width="512"
   height="512"
   viewBox="0 0 135.46666 135.46667"
   version="1.1"
   id="svg5"
   inkscape:version="1.4.2 (ebf0e940d0, 2025-05-08)"
   xml:space="preserve"
   sodipodi:docname="text-org.svg"
   xmlns:inkscape="http://www.inkscape.org/namespaces/inkscape"
   xmlns:sodipodi="http://sodipodi.sourceforge.net/DTD/sodipodi-0.dtd"
   xmlns="http://www.w3.org/2000/svg"
   xmlns:svg="http://www.w3.org/2000/svg"><sodipodi:namedview
     id="namedview7"
     pagecolor="#242424"
     bordercolor="#666666"
     borderopacity="1"
     inkscape:showpageshadow="0"
     inkscape:pageopacity="0"
     inkscape:pagecheckerboard="1"
     inkscape:deskcolor="#000000"
     inkscape:document-units="px"
     showgrid="false"
     inkscape:zoom="5.2149125"
     inkscape:cx="317.26323"
     inkscape:cy="291.28005"
     inkscape:window-width="3256"
     inkscape:window-height="1080"
     inkscape:window-x="1864"
     inkscape:window-y="0"
     inkscape:window-maximized="0"
     inkscape:current-layer="layer1" /><defs
     id="defs2"><filter
       inkscape:collect="always"
       style="color-interpolation-filters:sRGB"
       id="filter23"
       x="-0.044435119"
       y="-0.04029858"
       width="1.0888702"
       height="1.0805972"><feGaussianBlur
         inkscape:collect="always"
         stdDeviation="2.3246244"
         id="feGaussianBlur23" /></filter></defs><g
     inkscape:label="EHRMACZ"
     inkscape:groupmode="layer"
     id="layer1"><path
       style="baseline-shift:baseline;display:inline;overflow:visible;vector-effect:none;fill:#587e71;stroke-linecap:round;stroke-linejoin:round;stroke-miterlimit:12;paint-order:markers stroke fill;enable-background:accumulate;stop-color:#000000"
       d="M 13.711824,1.5875 V 133.87917 H 121.75484 V 1.5875 Z"
       id="path67" /><g
       id="g65"
       transform="translate(0,-1.1684879)"
       style="opacity:0.24"><path
         id="rect23"
         style="display:inline;stroke-width:3.17499;stroke-linecap:round;stroke-linejoin:round;stroke-miterlimit:12;paint-order:markers stroke fill"
         d="M 13.711824,1.3749307 H 40.72258 L 13.711824,28.385685 Z"
         sodipodi:nodetypes="cccc" /><path
         id="path24"
         style="display:inline;fill:#1a1a1a;stroke-width:3.17499;stroke-linecap:round;stroke-linejoin:round;stroke-miterlimit:12;paint-order:markers stroke fill"
         d="M 40.72258,28.385685 H 13.711824 L 40.72258,1.3749307 Z"
         sodipodi:nodetypes="cccc" /><path
         id="path25"
         style="display:inline;fill:#666666;stroke-width:3.175;stroke-linecap:round;stroke-linejoin:round;stroke-miterlimit:12;paint-order:markers stroke fill"
         d="M 40.72258,28.385687 H 67.733337 L 40.72258,1.374931 Z"
         sodipodi:nodetypes="cccc" /><path
         id="path27"
         style="display:inline;fill:#4d4d4d;stroke-width:3.175;stroke-linecap:round;stroke-linejoin:round;stroke-miterlimit:12;paint-order:markers stroke fill"
         d="M 67.733337,1.374931 H 40.72258 l 27.010757,27.010756 z"
         sodipodi:nodetypes="cccc" /><path
         id="path30"
         style="display:inline;stroke-width:3.175;stroke-linecap:round;stroke-linejoin:round;stroke-miterlimit:12;paint-order:markers stroke fill"
         d="M 67.733337,1.3749313 H 94.744092 L 67.733337,28.385687 Z"
         sodipodi:nodetypes="cccc" /><path
         id="path31"
         style="display:inline;fill:#4d4d4d;stroke-width:3.175;stroke-linecap:round;stroke-linejoin:round;stroke-miterlimit:12;paint-order:markers stroke fill"
         d="M 94.744092,28.385687 H 67.733337 L 94.744092,1.3749313 Z"
         sodipodi:nodetypes="cccc" /><path
         id="path32"
         style="display:inline;fill:#666666;stroke-width:3.175;stroke-linecap:round;stroke-linejoin:round;stroke-miterlimit:12;paint-order:markers stroke fill"
         d="M 94.744092,28.385687 H 121.75484 L 94.744092,1.3749312 Z"
         sodipodi:nodetypes="cccc" /><path
         id="path33"
         style="display:inline;fill:#4d4d4d;stroke-width:3.175;stroke-linecap:round;stroke-linejoin:round;stroke-miterlimit:12;paint-order:markers stroke fill"
         d="M 121.75484,1.3749312 H 94.744092 L 121.75484,28.385687 Z"
         sodipodi:nodetypes="cccc" /><path
         id="path34"
         style="display:inline;fill:#666666;stroke-width:3.17499;stroke-linecap:round;stroke-linejoin:round;stroke-miterlimit:12;paint-order:markers stroke fill"
         d="M 67.733337,55.396439 H 40.722581 L 67.733337,28.385685 Z"
         sodipodi:nodetypes="cccc" /><path
         id="path35"
         style="display:inline;fill:#333333;stroke-width:3.17499;stroke-linecap:round;stroke-linejoin:round;stroke-miterlimit:12;paint-order:markers stroke fill"
         d="M 40.722581,28.385685 H 67.733337 L 40.722581,55.396439 Z"
         sodipodi:nodetypes="cccc" /><path
         id="path36"
         style="display:inline;fill:#4d4d4d;stroke-width:3.175;stroke-linecap:round;stroke-linejoin:round;stroke-miterlimit:12;paint-order:markers stroke fill"
         d="M 40.722581,28.385683 H 13.711824 l 27.010757,27.010756 z"
         sodipodi:nodetypes="cccc" /><path
         id="path37"
         style="display:inline;fill:#666666;stroke-width:3.175;stroke-linecap:round;stroke-linejoin:round;stroke-miterlimit:12;paint-order:markers stroke fill"
         d="M 13.711824,55.396439 H 40.722581 L 13.711824,28.385683 Z"
         sodipodi:nodetypes="cccc" /><path
         id="path38"
         style="display:inline;stroke-width:3.175;stroke-linecap:round;stroke-linejoin:round;stroke-miterlimit:12;paint-order:markers stroke fill"
         d="M 94.744092,28.385684 H 67.733337 l 27.010755,27.010755 z"
         sodipodi:nodetypes="cccc" /><path
         id="path39"
         style="display:inline;fill:#1a1a1a;stroke-width:3.175;stroke-linecap:round;stroke-linejoin:round;stroke-miterlimit:12;paint-order:markers stroke fill"
         d="M 67.733337,55.396439 H 94.744092 L 67.733337,28.385684 Z"
         sodipodi:nodetypes="cccc" /><path
         id="path40"
         style="display:inline;fill:#333333;stroke-width:3.175;stroke-linecap:round;stroke-linejoin:round;stroke-miterlimit:12;paint-order:markers stroke fill"
         d="M 94.744092,55.396439 H 121.75484 L 94.744092,28.385683 Z"
         sodipodi:nodetypes="cccc" /><path
         id="path41"
         style="display:inline;fill:#4d4d4d;stroke-width:3.175;stroke-linecap:round;stroke-linejoin:round;stroke-miterlimit:12;paint-order:markers stroke fill"
         d="M 121.75484,28.385683 H 94.744092 l 27.010748,27.010756 z"
         sodipodi:nodetypes="cccc" /><path
         id="path42"
         style="display:inline;stroke-width:3.17499;stroke-linecap:round;stroke-linejoin:round;stroke-miterlimit:12;paint-order:markers stroke fill"
         d="M 13.711824,55.396439 H 40.72258 L 13.711824,82.407193 Z"
         sodipodi:nodetypes="cccc" /><path
         id="path43"
         style="display:inline;fill:#1a1a1a;stroke-width:3.17499;stroke-linecap:round;stroke-linejoin:round;stroke-miterlimit:12;paint-order:markers stroke fill"
         d="M 40.72258,82.407193 H 13.711824 L 40.72258,55.396439 Z"
         sodipodi:nodetypes="cccc" /><path
         id="path44"
         style="display:inline;fill:#333333;stroke-width:3.175;stroke-linecap:round;stroke-linejoin:round;stroke-miterlimit:12;paint-order:markers stroke fill"
         d="M 40.72258,82.407195 H 67.733337 L 40.72258,55.396439 Z"
         sodipodi:nodetypes="cccc" /><path
         id="path45"
         style="display:inline;fill:#4d4d4d;stroke-width:3.175;stroke-linecap:round;stroke-linejoin:round;stroke-miterlimit:12;paint-order:markers stroke fill"
         d="M 67.733337,55.396439 H 40.72258 l 27.010757,27.010756 z"
         sodipodi:nodetypes="cccc" /><path
         id="path46"
         style="display:inline;fill:#666666;stroke-width:3.175;stroke-linecap:round;stroke-linejoin:round;stroke-miterlimit:12;paint-order:markers stroke fill"
         d="M 67.733337,55.39644 H 94.744092 L 67.733337,82.407195 Z"
         sodipodi:nodetypes="cccc" /><path
         id="path47"
         style="display:inline;fill:#4d4d4d;stroke-width:3.175;stroke-linecap:round;stroke-linejoin:round;stroke-miterlimit:12;paint-order:markers stroke fill"
         d="M 94.744092,82.407195 H 67.733337 L 94.744092,55.39644 Z"
         sodipodi:nodetypes="cccc" /><path
         id="path48"
         style="display:inline;fill:#666666;stroke-width:3.175;stroke-linecap:round;stroke-linejoin:round;stroke-miterlimit:12;paint-order:markers stroke fill"
         d="M 94.744092,82.407195 H 121.75484 L 94.744092,55.396439 Z"
         sodipodi:nodetypes="cccc" /><path
         id="path49"
         style="display:inline;fill:#808080;stroke-width:3.175;stroke-linecap:round;stroke-linejoin:round;stroke-miterlimit:12;paint-order:markers stroke fill"
         d="M 121.75484,55.396439 H 94.744092 l 27.010748,27.010756 z"
         sodipodi:nodetypes="cccc" /><path
         id="path50"
         style="display:inline;stroke-width:3.17499;stroke-linecap:round;stroke-linejoin:round;stroke-miterlimit:12;paint-order:markers stroke fill"
         d="M 13.711824,109.41795 H 40.72258 L 13.711824,82.407193 Z"
         sodipodi:nodetypes="cccc" /><path
         id="path51"
         style="display:inline;fill:#333333;stroke-width:3.17499;stroke-linecap:round;stroke-linejoin:round;stroke-miterlimit:12;paint-order:markers stroke fill"
         d="M 40.72258,82.407193 H 13.711824 L 40.72258,109.41795 Z"
         sodipodi:nodetypes="cccc" /><path
         id="path52"
         style="display:inline;fill:#666666;stroke-width:3.175;stroke-linecap:round;stroke-linejoin:round;stroke-miterlimit:12;paint-order:markers stroke fill"
         d="M 40.72258,82.407191 H 67.733337 L 40.72258,109.41795 Z"
         sodipodi:nodetypes="cccc" /><path
         id="path53"
         style="display:inline;fill:#4d4d4d;stroke-width:3.175;stroke-linecap:round;stroke-linejoin:round;stroke-miterlimit:12;paint-order:markers stroke fill"
         d="M 67.733337,109.41795 H 40.72258 L 67.733337,82.407191 Z"
         sodipodi:nodetypes="cccc" /><path
         id="path54"
         style="display:inline;stroke-width:3.175;stroke-linecap:round;stroke-linejoin:round;stroke-miterlimit:12;paint-order:markers stroke fill"
         d="M 67.733337,82.407191 H 94.744092 L 67.733337,109.41795 Z"
         sodipodi:nodetypes="cccc" /><path
         id="path55"
         style="display:inline;fill:#1a1a1a;stroke-width:3.175;stroke-linecap:round;stroke-linejoin:round;stroke-miterlimit:12;paint-order:markers stroke fill"
         d="M 94.744092,109.41795 H 67.733337 L 94.744092,82.407191 Z"
         sodipodi:nodetypes="cccc" /><path
         id="path56"
         style="display:inline;fill:#333333;stroke-width:3.175;stroke-linecap:round;stroke-linejoin:round;stroke-miterlimit:12;paint-order:markers stroke fill"
         d="M 94.744092,109.41795 H 121.75484 L 94.744092,82.407191 Z"
         sodipodi:nodetypes="cccc" /><path
         id="path57"
         style="display:inline;fill:#4d4d4d;stroke-width:3.175;stroke-linecap:round;stroke-linejoin:round;stroke-miterlimit:12;paint-order:markers stroke fill"
         d="M 121.75484,82.407191 H 94.744092 l 27.010748,27.010759 z"
         sodipodi:nodetypes="cccc" /><path
         id="path58"
         style="display:inline;stroke-width:3.17499;stroke-linecap:round;stroke-linejoin:round;stroke-miterlimit:12;paint-order:markers stroke fill"
         d="M 40.72258,109.41795 H 13.711824 l 27.010756,27.01076 z"
         sodipodi:nodetypes="cccc" /><path
         id="path59"
         style="display:inline;fill:#1a1a1a;stroke-width:3.17499;stroke-linecap:round;stroke-linejoin:round;stroke-miterlimit:12;paint-order:markers stroke fill"
         d="M 13.711824,136.42871 H 40.72258 L 13.711824,109.41795 Z"
         sodipodi:nodetypes="cccc" /><path
         id="path60"
         style="display:inline;fill:#333333;stroke-width:3.175;stroke-linecap:round;stroke-linejoin:round;stroke-miterlimit:12;paint-order:markers stroke fill"
         d="M 40.72258,109.41795 H 67.733337 L 40.72258,136.42871 Z"
         sodipodi:nodetypes="cccc" /><path
         id="path61"
         style="display:inline;fill:#4d4d4d;stroke-width:3.175;stroke-linecap:round;stroke-linejoin:round;stroke-miterlimit:12;paint-order:markers stroke fill"
         d="M 67.733337,136.42871 H 40.72258 l 27.010757,-27.01076 z"
         sodipodi:nodetypes="cccc" /><path
         id="path62"
         style="display:inline;stroke-width:3.175;stroke-linecap:round;stroke-linejoin:round;stroke-miterlimit:12;paint-order:markers stroke fill"
         d="M 67.733337,136.42871 H 94.744092 L 67.733337,109.41795 Z"
         sodipodi:nodetypes="cccc" /><path
         id="path63"
         style="display:inline;fill:#333333;stroke-width:3.175;stroke-linecap:round;stroke-linejoin:round;stroke-miterlimit:12;paint-order:markers stroke fill"
         d="M 94.744092,109.41795 H 67.733337 l 27.010755,27.01076 z"
         sodipodi:nodetypes="cccc" /><path
         id="path64"
         style="display:inline;fill:#666666;stroke-width:3.175;stroke-linecap:round;stroke-linejoin:round;stroke-miterlimit:12;paint-order:markers stroke fill"
         d="M 94.744092,109.41795 H 121.75484 L 94.744092,136.42871 Z"
         sodipodi:nodetypes="cccc" /><path
         id="path65"
         style="display:inline;fill:#4d4d4d;stroke-width:3.175;stroke-linecap:round;stroke-linejoin:round;stroke-miterlimit:12;paint-order:markers stroke fill"
         d="M 121.75484,136.42871 H 94.744092 l 27.010748,-27.01076 z"
         sodipodi:nodetypes="cccc" /></g><path
       style="baseline-shift:baseline;display:inline;overflow:visible;vector-effect:none;fill:#a04d32;stroke-linecap:round;stroke-linejoin:round;stroke-miterlimit:12;paint-order:markers stroke fill;enable-background:accumulate;stop-color:#000000"
       d="M 13.710938,0 A 1.5876587,1.5876587 0 0 0 12.125,1.5878906 V 133.87891 a 1.5876587,1.5876587 0 0 0 1.585938,1.58789 H 121.75391 a 1.5876587,1.5876587 0 0 0 1.58789,-1.58789 V 1.5878906 A 1.5876587,1.5876587 0 0 0 121.75391,0 Z m 1.58789,3.1757813 H 120.16797 V 132.29102 H 15.298828 Z"
       id="path66" /><g
       id="g21"
       transform="matrix(0.77276089,0,0,0.77276089,15.391664,15.391663)"
       style="display:inline;stroke-width:1.29406"><path
         fill="#a04d32"
         stroke="#000000"
         stroke-width="1.02716"
         d="m 128.35205,49.753821 c -0.18115,-2.785486 -2.51315,-3.860772 -5.29951,-1.879097 -6.38364,-1.146915 -12.64967,-0.607502 -15.74021,-0.867479 -6.77537,-0.948835 -12.41622,-4.5346 -12.41622,-4.5346 0.82414,-1.095623 0.42977,-3.463732 -4.86179,-3.626439 -1.45551,-0.47928 -2.94996,-1.173442 -4.36216,-1.749993 0.48107,-1.012503 -0.11764,-2.507825 -0.11764,-2.507825 2.15322,-0.594238 2.48306,-3.397411 1.63415,-5.048365 2.74659,0.07426 2.30974,-4.172041 1.9304,-5.642601 2.15323,-0.816195 2.45035,-3.387685 1.55899,-5.419763 2.598,-0.593355 2.6723,-3.637936 2.45034,-5.790279 2.6723,-0.148559 2.30179,-4.8255253 2.30179,-5.7911611 2.30265,-1.4847112 1.78271,-3.4893768 2.14437,-5.8123868 1.41928,-2.873914 -0.51022,-3.690108 -1.87112,-0.62784002 -1.45996,2.65373132 -3.33287,3.81213992 -3.31606,5.77259202 0.66763,1.1133128 -4.97408,2.7465801 -3.19227,6.2359569 -1.26274,1.558988 -4.23129,3.563656 -3.17633,5.953871 -0.53589,1.172556 -4.32236,3.920019 -2.68911,6.518039 -3.56279,2.376068 -3.35056,2.949082 -2.598,5.122644 -1.01428,0.650834 -2.04979,1.646536 -2.64844,2.735969 -1.16638,-1.386552 -2.30178,-3.916482 -2.285,-7.334233 0,-2.896022 -5.39323,0.28121 -5.39323,5.998967 0,0.491663 -0.0505,0.938223 -0.11931,1.363564 -1.86583,0.214868 -4.20121,0.625186 -7.14499,1.321116 -0.0939,0.06454 -0.1387,0.164468 -0.16109,0.279438 -0.11597,-0.428877 -0.20421,-0.885166 -0.24498,-1.37329 -0.51466,-3.351429 -4.36307,-8.453736 -6.2404,-2.152342 -0.96916,2.308859 -1.53863,3.883766 -1.87024,5.119108 v 0 c 0,0 -0.29712,0.199861 -0.84627,0.539412 -2.31592,1.434305 -3.14979,5.912308 -11.56196,8.739358 -2.83944,0.954138 -6.5437,1.719926 -11.45943,2.117854 -8.46256,0.683551 -24.6608496,15.310457 -25.7458496,29.267076 -0.25033,3.505295 0.27406,12.147382 3.17987,19.728328 0.002,0.0053 0.003,0.01237 0.003,0.01771 0.0134,0.03713 0.0267,0.07162 0.0425,0.107885 0.0461,0.11848 0.0912,0.236091 0.13803,0.351944 0.24765,0.634915 0.51199,1.242417 0.79142,1.82339 1.6668796,3.561891 3.9438996,6.711701 7.0159196,8.738481 1.55985,1.21677 2.95524,1.9967 3.86605,2.44238 5.22347,8.62087 16.30794,19.67704 37.20618,13.13955 32.05964,-9.09396 49.75235,12.21105 51.7906,13.70636 3.00568,3.03575 -7.7693,-26.38254 -30.58465,-39.605214 -13.48795,-7.358992 -5.02094,-20.03429 -4.05441,-24.510525 0,0 10.81211,7.566801 18.64682,-3.996952 7.07781,1.823386 11.82022,-1.292821 17.90761,0.910808 3.69894,1.620891 19.25082,0.64199 13.47114,-8.0505 3.6344,-2.372528 4.01819,-1.604973 5.83626,-5.217265 0.97625,-4.378961 -1.24065,-5.316302 -1.91623,-6.51362 z M 66.1932,37.993759 c -0.0364,0.01604 -0.0762,0.03536 -0.11062,0.04953 0.0344,-0.03008 0.0662,-0.05481 0.1016,-0.0902 0.003,0.01237 0.007,0.02841 0.01,0.04067 z m -11.86088,3.999606 c -0.0645,0.379356 -0.12633,0.733071 -0.1875,1.075285 0.0334,-0.735721 0.0752,-1.515656 0.12634,-2.339808 0.02,0.384664 0.0441,0.79939 0.0612,1.264523 z m 9.45563,-5.600157 c 0.65967,0.993934 1.46968,1.92685 1.46968,1.92685 0,0 -0.77374,-0.698583 -1.46968,-1.92685 z"
         id="path23"
         style="display:inline;mix-blend-mode:normal;fill:#000000;stroke:none;stroke-width:1.29406;filter:url(#filter23)" /><path
         fill="#a04d32"
         stroke="#000000"
         stroke-width="1.02716"
         d="m 128.35157,49.753821 c -0.18115,-2.785486 -2.51315,-3.860772 -5.29951,-1.879097 -6.38364,-1.146915 -12.64967,-0.607502 -15.74021,-0.867479 -6.77537,-0.948835 -12.416218,-4.5346 -12.416218,-4.5346 0.824145,-1.095623 0.429769,-3.463732 -4.861784,-3.626439 -1.455514,-0.47928 -2.949965,-1.173442 -4.362164,-1.749993 0.481071,-1.012503 -0.117645,-2.507825 -0.117645,-2.507825 2.153225,-0.594238 2.483064,-3.397411 1.634153,-5.048365 2.746594,0.07426 2.309739,-4.172041 1.930403,-5.642601 2.153225,-0.816195 2.450344,-3.387685 1.558987,-5.419763 2.598001,-0.593355 2.672298,-3.637936 2.450344,-5.790279 C 95.800223,12.538821 95.42971,7.8618547 95.42971,6.8962189 97.732364,5.4115077 97.212423,3.4068421 97.574079,1.0838316 98.993364,-1.7900817 97.063863,-2.6062758 95.702966,0.45599207 94.243007,3.1097234 92.37009,4.268132 92.386901,6.2285841 c 0.667631,1.1133128 -4.974082,2.7465801 -3.192272,6.2359569 -1.262738,1.558988 -4.231284,3.563656 -3.176329,5.953871 -0.535883,1.172556 -4.322359,3.920019 -2.689108,6.518039 -3.562784,2.376068 -3.350557,2.949082 -2.598001,5.122644 -1.014281,0.650834 -2.049785,1.646536 -2.648434,2.735969 -1.166383,-1.386552 -2.301784,-3.916482 -2.285006,-7.334233 0,-2.896022 -5.393223,0.28121 -5.393223,5.998967 0,0.491663 -0.05047,0.938223 -0.119315,1.363564 -1.865832,0.214868 -4.201205,0.625186 -7.144987,1.321116 -0.09391,0.06454 -0.1387,0.164468 -0.161092,0.279438 -0.115973,-0.428877 -0.204207,-0.885166 -0.244981,-1.37329 -0.514661,-3.351429 -4.363066,-8.453736 -6.240395,-2.152342 -0.969162,2.308859 -1.538634,3.883766 -1.870244,5.119108 v 0 c 0,0 -0.297119,0.199861 -0.84627,0.539412 -2.315922,1.434305 -3.149793,5.912308 -11.561962,8.739358 -2.839439,0.954138 -6.543697,1.719926 -11.459424,2.117854 -8.462569,0.683551 -24.660853,15.310457 -25.7458543,29.267076 -0.2503284,3.505295 0.2740577,12.147382 3.179872,19.728328 0.00177,0.0053 0.00264,0.01237 0.00334,0.01771 0.013369,0.03713 0.026737,0.07162 0.042445,0.107885 0.046122,0.11848 0.091241,0.236091 0.1380315,0.351944 0.2476547,0.634915 0.5119867,1.242417 0.7914253,1.82339 1.6668725,3.561891 3.9438915,6.711701 7.0159115,8.738481 1.559857,1.21677 2.955245,1.9967 3.866053,2.44238 5.223473,8.62087 16.30794,19.67704 37.20618,13.13955 32.059644,-9.09396 49.752348,12.21105 51.790598,13.70636 3.00568,3.03575 -7.7693,-26.38254 -30.584644,-39.605214 -13.487953,-7.358992 -5.020939,-20.03429 -4.054417,-24.510525 0,0 10.812113,7.566801 18.646822,-3.996952 7.077809,1.823386 11.820219,-1.292821 17.907609,0.910808 3.69894,1.620891 19.25082,0.64199 13.47114,-8.0505 3.6344,-2.372528 4.01819,-1.604973 5.83626,-5.217265 0.97625,-4.378961 -1.24065,-5.316302 -1.91623,-6.51362 z M 66.192728,37.993759 c -0.03643,0.01604 -0.0762,0.03536 -0.110626,0.04953 0.03442,-0.03008 0.06617,-0.05481 0.101602,-0.0902 0.0026,0.01237 0.0067,0.02841 0.01003,0.04067 z m -11.860885,3.999606 c -0.0645,0.379356 -0.126334,0.733071 -0.187496,1.075285 0.03342,-0.735721 0.0752,-1.515656 0.126334,-2.339808 0.02005,0.384664 0.04412,0.79939 0.06116,1.264523 z m 9.455627,-5.600157 c 0.659677,0.993934 1.469685,1.92685 1.469685,1.92685 0,0 -0.773745,-0.698583 -1.469685,-1.92685 z"
         id="path1"
         style="stroke:none" /><path
         fill="#77aa99"
         stroke="#000000"
         stroke-width="0.171194"
         d="m 16.091094,101.20665 c 0,0 8.86139,31.92699 41.162439,21.82407 32.059643,-9.09395 49.752347,12.21105 51.790597,13.70637 3.00568,3.03574 -7.76927,-26.38255 -30.584644,-39.605214 -13.487952,-7.358992 -5.020938,-20.03429 -4.054417,-24.510526 0,0 10.812113,7.566802 18.646823,-3.996951 7.077808,1.823386 11.820208,-1.292821 17.907598,0.910807 3.69895,1.620891 19.25082,0.64199 13.47115,-8.0505 3.6344,-2.372528 4.01818,-1.604972 5.83626,-5.217264 0.97715,-4.378962 -1.23975,-5.315417 -1.91533,-6.513621 -0.18115,-2.785486 -2.51315,-3.860772 -5.29951,-1.879097 -6.38364,-1.146915 -12.64967,-0.607502 -15.74021,-0.867479 -6.77537,-0.948835 -12.416218,-4.5346 -12.416218,-4.5346 0.824145,-1.095623 0.429769,-3.463732 -4.861784,-3.626439 -2.906617,-0.956793 -5.970649,-2.773107 -8.21321,-2.796098 -2.269934,0 -2.576778,-2.243423 -2.576778,-2.243423 -1.420154,-0.769327 -3.469939,-3.759969 -3.447814,-8.345854 0,-2.896022 -5.393256,0.28121 -5.393256,5.998967 0,5.717767 -5.144732,6.86026 -5.144732,6.86026 0,0 -2.254059,-2.017048 -2.52464,-5.268553 -0.514661,-3.351425 -4.363033,-8.453732 -6.240362,-2.152339 -2.852708,6.761219 -3.081746,8.338775 -3.638819,11.631843 -1.158429,6.818697 -0.30514,7.084864 -0.30514,7.084864 l -29.02569,20.718726 z"
         id="path2"
         style="display:inline;stroke:none" /><path
         fill="#314b49"
         stroke="#314b49"
         stroke-width="0.25679"
         stroke-linecap="round"
         stroke-linejoin="round"
         d="m 84.767059,46.894055 c 1.368885,-0.496967 0.792328,-0.366976 1.018693,-0.513768 -2.616583,0.508461 -8.520055,0.542949 -12.660265,-1.001891 0.34665,0.203371 2.270836,0.850678 2.515783,0.99747 0.192843,0.632261 0.08857,1.271597 2.59272,2.395518 2.262882,0.701237 5.168629,0.407655 6.044077,-0.467783 0.09625,-1.489133 0.111294,-0.941763 0.488992,-1.409546 z"
         id="path3" /><path
         fill="#314b49"
         stroke="#314b49"
         stroke-width="0.171194"
         d="m 113.38952,63.824514 c -2.50165,-1.843727 -4.31618,-0.23345 -5.72042,-0.365208 0.87541,-0.570361 3.32666,-1.823387 7.2909,-1.823387 2.23899,0 3.43014,1.941883 4.92545,1.951609 1.00897,0.0063 3.95449,-1.51212 4.54519,-2.102822 -0.85687,0.741029 0.40149,1.551916 -0.43241,2.655499 -0.24933,0.317473 -0.74013,1.336149 -2.35483,1.813661 -1.81279,0.858637 -4.78485,1.558105 -8.25388,-2.129352 z"
         id="path4" /><path
         fill="#314b49"
         d="m 58.964622,30.269555 c 0,0 -2.966775,7.07072 0.275729,13.555157 3.242638,6.48444 0.461587,-6.038759 4.145491,-3.680382 3.003907,0.34045 -2.110779,-2.842964 -1.797718,-6.914199 -0.155745,-2.557343 -1.565204,-4.592961 -2.623669,-2.960576 z"
         id="path5"
         style="stroke-width:0.342387" /><path
         fill="#314b49"
         d="m 115.9159,53.600449 c 0,0.99128 -1.20529,1.795092 -2.69262,1.795092 3.15952,-0.991281 -0.17781,-4.114563 -2.69265,-1.795092 0,-0.99128 1.20528,-1.795092 2.69265,-1.795092 1.48733,0 2.69262,0.803812 2.69262,1.795092 z"
         id="path6"
         style="stroke-width:0.342387" /><path
         fill="#314b49"
         d="m 111.34682,51.315466 c 3.33551,-0.204273 5.60281,0.285621 4.89537,2.774875 0.48458,-0.995702 1.14249,-2.502519 -0.92494,-3.101178 -1.54395,-0.3431 -2.91725,-0.334257 -3.97043,0.326296 z"
         id="path7"
         style="stroke-width:0.342387" /><path
         fill="#a04d32"
         stroke="#000000"
         stroke-width="0.171194"
         d="m 63.383369,70.239979 c 0,-3.113557 -1.334394,-6.336763 -6.225356,-12.89548 -1.445788,-1.938347 -2.316824,-3.834248 -2.839405,-5.548871 -1.238908,-2.913708 -3.029575,-7.091053 -0.542066,-15.238827 0,0 0.549118,-0.339564 0,0 -2.315955,1.434304 -3.149826,5.912308 -11.561995,8.739357 -2.839439,0.954139 -6.543697,1.719927 -11.459424,2.117855 -8.461667,0.68355 -24.6599509,15.310457 -25.7449856,29.267075 -0.2503284,3.505296 0.2740577,12.147383 3.1799054,19.728328 0.00177,0.0053 0.00264,0.01237 0.00334,0.01771 0.013369,0.03713 0.026737,0.07162 0.042446,0.107885 0.046122,0.11848 0.091241,0.236091 0.1380315,0.351943 0.2476547,0.634915 0.5119867,1.242418 0.7914253,1.82339 1.6668724,3.561896 3.9438914,6.711706 7.0158784,8.738476 2.727142,2.12582 4.957303,2.92344 4.957303,2.92344 -2.288549,-3.16396 -3.333745,-6.68694 -2.001156,-10.894357 0.575688,2.331857 1.682815,3.680387 3.224122,4.224217 -0.543837,-1.66599 -0.731333,-3.13832 0,-4.112799 2.269934,5.954759 4.733546,7.985949 7.225466,9.449439 -2.32655,-4.34536 -3.565424,-8.84724 -3.334648,-13.562234 2.271739,5.330454 5.832718,8.794184 9.338017,12.339274 -3.342569,-5.27563 -6.111254,-10.703353 -6.169642,-16.842036 1.497091,2.456533 3.479665,4.361278 5.836261,5.837143 -1.488234,-2.395519 -2.215122,-4.872393 -2.001123,-7.448305 3.912074,4.372772 8.277781,5.84245 12.673533,7.11493 -4.595614,-3.20552 -8.703974,-6.66483 -10.894364,-11.117189 2.628114,1.294588 5.259737,1.497087 7.893098,1.222959 -3.27713,-1.655372 -4.482415,-4.644246 -5.113784,-8.004518 4.577934,4.668126 9.361879,7.805556 14.228978,10.339022 -4.824653,-4.651321 -8.382123,-9.4176 -10.227602,-14.341281 1.856976,1.043451 3.67595,1.535114 5.447166,1.33438 -2.445932,-2.762495 -3.064033,-5.46663 -3.72371,-8.171647 2.331864,3.462847 4.385158,5.325146 6.28107,6.281053 -1.935717,-3.96335 -1.798655,-7.456266 -0.44481,-10.671511 2.231933,1.481171 4.334759,3.797989 6.11483,8.226471 0.646409,-2.109897 -0.395278,-5.627568 -1.667775,-9.338016 1.923318,0.550024 4.225971,2.963229 7.225466,8.782688 -0.291771,-3.41775 -1.891466,-6.875293 -3.667996,-10.339022 2.676709,3.103828 6.682531,11.241872 6.0025,9.559084 z"
         id="path8"
         style="stroke:none" /><path
         fill="#796958"
         stroke="#000000"
         stroke-width="0.171194"
         d="m 77.833431,35.701701 c 0,0 -0.222922,6.607351 5.939701,2.301784 3.192271,0.07426 1.781843,-3.415097 1.781843,-3.415097 2.153225,-0.594238 2.483064,-3.397411 1.634153,-5.048365 2.74656,0.07426 2.309739,-4.172041 1.930369,-5.642601 2.153225,-0.816195 2.450344,-3.387685 1.558988,-5.419763 2.598034,-0.593355 2.672297,-3.637936 2.450344,-5.790279 2.672297,-0.148559 2.301784,-4.8255253 2.301784,-5.7911611 C 97.7333,5.4115077 97.213325,3.4068421 97.575015,1.0838316 98.994266,-1.7900817 97.064766,-2.6062758 95.703868,0.45599207 94.243909,3.1097234 92.371025,4.268132 92.387803,6.2285841 c 0.667632,1.1133128 -4.974081,2.7465801 -3.192238,6.2359569 -1.262771,1.558988 -4.231285,3.563656 -3.176363,5.953871 -0.535849,1.172556 -4.322358,3.920019 -2.689074,6.518039 -3.562785,2.376068 -3.350557,2.949082 -2.598034,5.122644 -1.905638,1.220309 -3.898806,3.65297 -2.898663,5.642606 z"
         id="path9"
         style="stroke:none" /><path
         fill="#ffffff"
         d="m 93.59486,4.5192692 c 0,0 -0.649951,1.1707881 -0.649951,1.8861724 0,0.7153843 1.932141,0.502271 2.588308,-0.2007306 C 94.096252,6.225767 92.91132,6.4602532 93.59486,4.5192692 Z"
         id="path10"
         style="stroke-width:0.342387" /><path
         fill="#ffffff"
         d="m 89.826934,10.063715 c 0,0 -0.718031,0.944413 -0.161761,2.047997 0.34665,0.866597 2.482161,0.850678 3.138329,0.14769 -1.436965,0.02106 -3.660944,-0.253804 -2.976501,-2.195674 z"
         id="path11"
         style="stroke-width:0.342387" /><path
         fill="#ffffff"
         d="m 87.054706,15.771756 c 0,0 -0.882499,1.190243 -0.43505,2.300899 0,0.715384 2.509567,0.845375 3.165701,0.142376 -1.436931,0.01938 -3.223186,-0.432413 -2.730651,-2.443268 z"
         id="path12"
         style="stroke-width:0.342387" /><path
         fill="#ffffff"
         d="m 84.333781,22.10498 c 0,0 -1.240647,1.363565 -0.131682,2.604211 1.271595,0.715384 3.310751,0.04335 3.966886,-0.659674 -1.436965,0.01938 -4.327673,0.06721 -3.835138,-1.944537 z"
         id="path13"
         style="stroke-width:0.342387" /><path
         fill="#ffffff"
         d="m 81.67649,27.163959 c 0,0 -1.392715,1.250372 -0.01671,2.928742 1.271595,0.715384 4.041182,0.175096 4.697316,-0.527919 -1.436062,0.02106 -5.295965,-1.190243 -4.679602,-2.400823 z"
         id="path14"
         style="stroke-width:0.342387" /><path
         fill="#ffffff"
         d="m 78.893667,33.124903 c 0,0 -1.240646,1.363561 -0.131681,2.60421 1.271594,0.715384 5.337542,-0.164468 5.993676,-0.86748 -1.436965,0.02039 -6.353561,0.274994 -5.861928,-1.73673 z"
         id="path15"
         style="stroke-width:0.342387" /><path
         fill="#a04d32"
         stroke="#000000"
         stroke-width="0.171194"
         d="m 77.905923,35.802507 c -0.397918,-0.397925 -0.472215,-0.792314 -0.324524,-1.519196 0,0 0.326195,-3.631746 -14.442978,-0.139702 -0.947939,0.654369 2.118734,4.175577 2.118734,4.175577 0,0 0.369644,0.190136 0.925848,-0.366977 0.223591,0.993049 0.753424,3.608756 0.206211,4.049127 1.100944,-0.681779 1.651833,-1.720812 1.482051,-3.647662 1.87646,0.407654 3.30898,1.450223 4.149067,3.3417 0.268711,-1.237993 0.53321,-2.475103 -0.339564,-3.648545 1.9295,0.252033 3.431003,1.322884 4.7415,2.762496 0.195517,-0.825034 0.313161,-1.665101 0,-2.591831 1.230051,0.418265 2.287647,1.421043 3.280705,2.642234 8.69e-4,0 0.186493,-3.415097 -1.796849,-5.057208 z"
         id="path16"
         style="stroke:none" /><path
         opacity="0.26"
         d="m 63.737973,60.249364 c 0,0 8.448866,13.02119 18.019471,13.579045 5.350507,0.311872 8.859647,-3.653974 8.859647,-3.653974 0,0 -5.074273,1.987821 -11.43267,0.460448 -4.890266,-1.174708 -10.48648,-4.884646 -15.446448,-10.385519 z"
         id="path17"
         style="stroke-width:0.342387"
         sodipodi:nodetypes="cscsc" /><path
         opacity="0.26"
         d="m 70.425444,70.782753 2.930853,1.913763 c 0,0 -7.037991,10.347847 -3.718383,18.231218 3.319608,7.883372 10.161794,6.688166 21.147587,18.264866 6.836688,7.20442 15.172509,22.07256 15.172509,22.07256 0,0 -14.516037,-14.59618 -38.317525,-11.84428 0,0 9.925874,-8.6242 2.941813,-15.60825 C 60.639449,93.868877 60.182803,84.661556 70.425444,70.782753 Z"
         id="path18"
         style="stroke-width:0.342387"
         sodipodi:nodetypes="ccsscccc" /><path
         opacity="0.18"
         fill="#ffffff"
         d="M 49.931679,42.836971 C 46.505957,45.048557 42.4869,49.111834 28.341944,49.984621 13.265793,55.983588 4.0834211,73.581682 7.3163668,85.7662 c 1.1920175,6.470293 3.4407282,12.539118 3.4407282,12.539118 -0.7843399,-5.234066 -1.222966,-10.07816 0.913481,-12.02535 1.268921,2.108129 2.625407,2.182408 3.985435,2.192134 -1.405983,-2.125812 -1.581079,-4.251625 0,-6.377437 1.316714,1.348528 2.645794,1.663333 3.985468,1.196432 -1.881741,-2.165608 -1.650964,-4.286998 0,-6.376558 1.227378,4.440865 3.945663,6.590554 6.775376,8.567807 -1.952494,-3.831591 -3.683938,-7.66849 -2.590949,-11.557564 1.169893,0.644641 2.294699,0.569479 3.387689,0 -1.111539,-1.393627 -0.817963,-2.788139 0,-4.18442 2.605955,2.688216 5.494022,3.293064 8.369723,3.985458 -2.353086,-2.17003 -4.901589,-4.003145 -5.978636,-8.369727 1.327308,-1.601437 2.890707,-2.3743 4.782207,-1.99229 -1.681043,-1.031954 -1.45909,-2.248727 0,-3.587529 1.84725,0.976247 3.709539,1.19555 5.579816,0.996584 -2.482195,-1.485594 -7.449191,-4.416103 9.964974,-17.935887 z"
         id="path19"
         style="stroke-width:0.342387" /><path
         opacity="0.27"
         fill="#ffffff"
         d="m 73.419096,26.16295 c 0.880728,-0.851561 1.013379,-0.574783 0.755163,0.252033 -0.868362,2.086903 0.312159,4.109255 0.704763,5.487853 l -3.423048,0.100799 c 0.09559,-2.008205 0.218243,-4.239245 1.963122,-5.840685 z"
         id="path20"
         style="stroke-width:0.342387" /></g></g></svg>
