<?xml version="1.0" encoding="UTF-8" standalone="no"?>
<!-- Created with Inkscape (http://www.inkscape.org/) -->

<svg
   width="512"
   height="512"
   viewBox="0 0 135.46666 135.46667"
   version="1.1"
   id="svg5"
   inkscape:version="1.4.2 (ebf0e940d0, 2025-05-08)"
   xml:space="preserve"
   sodipodi:docname="text-x-elixir.svg"
   xmlns:inkscape="http://www.inkscape.org/namespaces/inkscape"
   xmlns:sodipodi="http://sodipodi.sourceforge.net/DTD/sodipodi-0.dtd"
   xmlns:xlink="http://www.w3.org/1999/xlink"
   xmlns="http://www.w3.org/2000/svg"
   xmlns:svg="http://www.w3.org/2000/svg"><sodipodi:namedview
     id="namedview7"
     pagecolor="#242424"
     bordercolor="#666666"
     borderopacity="1"
     inkscape:showpageshadow="0"
     inkscape:pageopacity="0"
     inkscape:pagecheckerboard="1"
     inkscape:deskcolor="#000000"
     inkscape:document-units="px"
     showgrid="false"
     inkscape:zoom="0.921875"
     inkscape:cx="409.49153"
     inkscape:cy="306.98305"
     inkscape:window-width="3256"
     inkscape:window-height="1080"
     inkscape:window-x="1864"
     inkscape:window-y="0"
     inkscape:window-maximized="0"
     inkscape:current-layer="layer1" /><defs
     id="defs2"><linearGradient
       id="linearGradient20"
       inkscape:collect="always"><stop
         style="stop-color:#7137c8;stop-opacity:0.68000001;"
         offset="0"
         id="stop20" /><stop
         style="stop-color:#ffffff;stop-opacity:0;"
         offset="0.84074873"
         id="stop19" /></linearGradient><linearGradient
       id="linearGradient3"
       inkscape:collect="always"><stop
         style="stop-color:#7137c8;stop-opacity:0;"
         offset="0"
         id="stop16" /><stop
         style="stop-color:#7137c8;stop-opacity:0.46178002;"
         offset="1"
         id="stop15" /></linearGradient><linearGradient
       id="SVGID_1_"
       gradientUnits="userSpaceOnUse"
       x1="328.19"
       y1="23.052999"
       x2="323.42499"
       y2="-172.409"
       gradientTransform="matrix(0.17880054,0,0,-0.27571402,9.554386,49.393899)"><stop
         offset="0"
         stop-color="#d9d8dc"
         id="stop1" /><stop
         offset="1"
         stop-color="#fff"
         stop-opacity=".385"
         id="stop2" /></linearGradient><linearGradient
       id="SVGID_2_"
       gradientUnits="userSpaceOnUse"
       x1="371.72198"
       y1="30.572001"
       x2="332.737"
       y2="-139.339"
       gradientTransform="matrix(0.15743271,0,0,-0.31307327,8.976765,51.712654)"><stop
         offset="0"
         stop-color="#8d67af"
         stop-opacity=".672"
         id="stop3" /><stop
         offset="1"
         stop-color="#9f8daf"
         id="stop4" /></linearGradient><linearGradient
       id="SVGID_3_"
       gradientUnits="userSpaceOnUse"
       x1="361.69199"
       y1="-26.343"
       x2="361.69199"
       y2="-154.205"
       gradientTransform="matrix(0.16915055,0,0,-0.29156758,9.292457,50.374062)"><stop
         offset="0"
         stop-color="#26053d"
         stop-opacity=".762"
         id="stop5" /><stop
         offset="1"
         stop-color="#b7b4b4"
         stop-opacity=".278"
         id="stop6" /></linearGradient><linearGradient
       id="SVGID_4_"
       gradientUnits="userSpaceOnUse"
       x1="176.455"
       y1="-76.586998"
       x2="235.593"
       y2="-195.597"
       gradientTransform="matrix(0.25475975,0,0,-0.19355124,11.604319,44.298704)"><stop
         offset="0"
         stop-color="#91739f"
         stop-opacity=".46"
         id="stop7" /><stop
         offset="1"
         stop-color="#32054f"
         stop-opacity=".54"
         id="stop8" /></linearGradient><linearGradient
       id="SVGID_5_"
       gradientUnits="userSpaceOnUse"
       x1="347.87601"
       y1="-172.927"
       x2="242.769"
       y2="-60.638"
       gradientTransform="matrix(0.19548124,0,0,-0.25214047,10.006557,47.931236)"><stop
         offset="0"
         stop-color="#463d49"
         stop-opacity=".331"
         id="stop9" /><stop
         offset="1"
         stop-color="#340a50"
         stop-opacity=".821"
         id="stop10" /></linearGradient><linearGradient
       id="SVGID_6_"
       gradientUnits="userSpaceOnUse"
       x1="430.311"
       y1="-13.082"
       x2="399.03201"
       y2="-122.998"
       gradientTransform="matrix(0.14612843,0,0,-0.33747396,8.669344,53.222188)"><stop
         offset="0"
         stop-color="#715383"
         stop-opacity=".145"
         id="stop11" /><stop
         offset="1"
         stop-color="#f4f4f4"
         stop-opacity=".234"
         id="stop12" /></linearGradient><linearGradient
       id="SVGID_7_"
       gradientUnits="userSpaceOnUse"
       x1="525.60199"
       y1="-20.752001"
       x2="425.694"
       y2="-1.951"
       gradientTransform="matrix(0.12645624,0,0,-0.38985962,8.139973,56.470099)"><stop
         offset="0"
         stop-color="#a5a1a8"
         stop-opacity=".356"
         id="stop13" /><stop
         offset="1"
         stop-color="#370c50"
         stop-opacity=".582"
         id="stop14" /></linearGradient><radialGradient
       inkscape:collect="always"
       xlink:href="#linearGradient3"
       id="radialGradient16"
       cx="67.733333"
       cy="67.733333"
       fx="67.733333"
       fy="67.733333"
       r="54.447707"
       gradientTransform="matrix(1,0,0,1.2148507,0,-14.552555)"
       gradientUnits="userSpaceOnUse" /><linearGradient
       inkscape:collect="always"
       xlink:href="#linearGradient20"
       id="linearGradient19"
       x1="122.18104"
       y1="133.87917"
       x2="13.285625"
       y2="1.5874966"
       gradientUnits="userSpaceOnUse" /></defs><g
     inkscape:label="Layer 1"
     inkscape:groupmode="layer"
     id="layer1"><path
       style="baseline-shift:baseline;display:inline;overflow:visible;vector-effect:none;fill:url(#radialGradient16);fill-opacity:0.46178;stroke-linecap:round;stroke-linejoin:round;stroke-miterlimit:12;paint-order:markers stroke fill;enable-background:accumulate;stop-color:#000000"
       d="M 13.285625,1.5874966 H 122.18104 V 133.87917 H 13.285625 Z"
       id="path3" /><path
       id="path18"
       style="baseline-shift:baseline;display:inline;overflow:visible;vector-effect:none;fill:url(#linearGradient19);fill-opacity:0.46178;stroke-linecap:round;stroke-linejoin:round;stroke-miterlimit:12;paint-order:markers stroke fill;enable-background:accumulate;stop-color:#000000"
       d="M 98.168167,1.5875015 A 109.7925,109.7925 0 0 1 100.49826,24.086386 109.7925,109.7925 0 0 1 13.285497,131.53202 v 2.34714 H 122.18117 V 1.5875015 Z" /><path
       style="baseline-shift:baseline;display:inline;overflow:visible;vector-effect:none;fill:#ccaaff;stroke-linecap:round;stroke-linejoin:round;stroke-miterlimit:12;paint-order:markers stroke fill;enable-background:accumulate;stop-color:#000000"
       d="m 13.285156,0 a 1.5876587,1.5876587 0 0 0 -1.58789,1.5878906 V 133.87891 a 1.5876587,1.5876587 0 0 0 1.58789,1.58789 H 122.18164 a 1.5876587,1.5876587 0 0 0 1.58594,-1.58789 V 1.5878906 A 1.5876587,1.5876587 0 0 0 122.18164,0 Z m 1.587891,3.1757813 H 120.59375 V 132.29102 H 14.873047 Z"
       id="path1" /><path
       d="m 69.367785,38.780288 c -4.273567,1.516427 -8.27142,5.927851 -12.269274,13.096416 -5.927851,10.890703 -13.509987,26.330689 -3.032854,38.599962 4.824995,5.652138 12.958559,8.960706 23.435692,3.72214 C 85.910626,89.925238 88.392053,77.655964 85.221341,72.003827 78.879919,60.148124 72.538496,57.253127 70.884212,49.946705 69.781356,44.983853 69.229928,41.261714 69.367785,38.780288 Z"
       fill-rule="evenodd"
       clip-rule="evenodd"
       fill="url(#SVGID_1_)"
       id="path2"
       style="fill:url(#SVGID_1_);stroke-width:1.37857" /><path
       d="m 69.367785,38.642431 c -4.273567,1.516427 -8.409277,5.927851 -12.269274,13.096416 -5.927851,10.890703 -13.509987,26.330689 -3.032854,38.599962 4.824995,5.652138 12.820702,7.444279 17.232126,4.135711 2.894997,-2.205712 4.824996,-4.273568 5.927852,-8.684992 1.240713,-4.962852 0.275714,-11.442132 -0.413571,-14.612843 -0.827142,-3.859996 -1.102856,-7.995707 -0.827142,-12.682845 0,0 -0.137857,0 -0.137857,-0.137857 -2.34357,-2.75714 -3.997854,-5.238566 -4.824996,-8.684992 -1.240713,-4.824995 -1.792141,-8.547134 -1.654284,-11.02856 z"
       fill-rule="evenodd"
       clip-rule="evenodd"
       fill="url(#SVGID_2_)"
       id="path4"
       style="fill:url(#SVGID_2_);stroke-width:1.37857" /><path
       d="M 65.783503,40.572429 C 61.78565,43.74314 58.890652,48.981706 56.960654,56.288128 54.065657,67.316689 53.789943,77.518107 54.754942,83.583816 56.68494,95.163805 67.024216,99.437372 77.501349,94.060949 83.980628,90.75238 86.737768,83.721673 86.599911,76.00168 86.462054,68.005974 71.022069,59.045268 68.402786,52.428132 66.610645,47.87885 65.783503,44.018854 65.783503,40.572429 Z"
       fill-rule="evenodd"
       clip-rule="evenodd"
       fill="url(#SVGID_3_)"
       id="path6"
       style="fill:url(#SVGID_3_);stroke-width:1.37857" /><path
       d="m 75.847065,61.25098 c 4.824995,6.065709 5.789994,10.339276 3.170711,12.682845 -3.997853,3.584282 -13.923558,5.927852 -19.989267,1.654284 -4.13571,-2.894997 -5.652137,-9.098562 -4.687138,-18.610696 -1.654284,3.584282 -3.170711,7.030708 -4.273567,10.752847 -1.102856,3.584282 -1.516427,7.444278 -0.964999,11.304275 1.516427,2.894997 4.962852,4.962852 10.614989,5.927851 8.409278,1.516427 16.404985,0.689285 21.781408,-1.929998 3.584282,-1.792141 5.238566,-3.584282 5.100709,-5.376424 0.137857,-2.619283 -0.689285,-5.100709 -2.481426,-7.582135 -1.654284,-2.481426 -4.411424,-5.376423 -8.27142,-8.822849 z"
       fill-rule="evenodd"
       clip-rule="evenodd"
       fill="url(#SVGID_4_)"
       id="path8"
       style="fill:url(#SVGID_4_);stroke-width:1.37857" /><path
       d="m 57.236368,55.185272 c 0,4.411424 1.102856,8.547134 3.446426,12.544988 3.446425,5.927851 7.444278,11.855703 13.509986,16.680698 3.997854,3.308568 7.306422,4.273567 9.649991,3.170711 -1.929998,3.584282 -4.13571,5.238567 -6.341422,5.238567 C 74.19278,92.682379 70.05707,91.303808 63.577791,83.445959 59.166366,78.207393 56.271369,73.24454 54.617085,68.557402 c 0.275714,-1.792141 0.551428,-3.722139 0.827142,-5.514281 0.413571,-1.792141 0.964999,-4.411424 1.792141,-7.857849 z"
       fill-rule="evenodd"
       clip-rule="evenodd"
       fill="url(#SVGID_5_)"
       id="path10"
       style="fill:url(#SVGID_5_);stroke-width:1.37857" /><path
       d="m 67.575644,61.25098 c 0.413571,3.584283 1.792141,9.374277 0,13.096416 -1.792141,3.859997 -9.925705,10.752847 -7.719993,16.818555 2.205713,6.065709 7.719993,4.687139 11.166418,1.929999 3.446425,-2.757141 5.238567,-7.306422 5.652138,-10.61499 0.413571,-3.170711 -0.964999,-9.374277 -1.37857,-14.7507 -0.275714,-3.584282 -0.137857,-6.617137 0.551428,-9.23642 l -1.102856,-1.37857 -6.203566,-1.792141 c -0.827142,1.516427 -1.240713,3.446425 -0.964999,5.927851 z"
       fill-rule="evenodd"
       clip-rule="evenodd"
       fill="url(#SVGID_6_)"
       id="path12"
       style="fill:url(#SVGID_6_);stroke-width:1.37857" /><path
       d="m 69.781356,43.467426 c -2.067855,0.827142 -3.859996,2.481426 -5.652137,5.100709 -2.75714,3.72214 -4.135711,6.065709 -3.032854,13.509987 0.689285,4.962853 1.102856,9.512134 1.516427,13.785701 L 71.297783,50.635991 C 71.022069,49.395277 70.746355,48.154564 70.470641,47.189565 70.05707,45.948852 69.919213,44.845996 69.781356,43.467426 Z"
       fill-rule="evenodd"
       clip-rule="evenodd"
       fill="url(#SVGID_7_)"
       id="path14"
       style="fill:url(#SVGID_7_);stroke-width:1.37857" /><path
       d="m 71.159926,50.498134 c -2.205712,1.240713 -3.859996,3.997853 -5.100709,7.857849 -1.240713,3.997853 -2.343569,9.512134 -3.308568,16.680698 1.37857,-4.549281 2.205712,-7.857849 2.619283,-9.925704 0.689285,-3.032855 0.827142,-7.444279 2.619283,-10.339276 1.102856,-1.929998 2.205712,-3.308568 3.170711,-4.273567 z"
       fill-rule="evenodd"
       clip-rule="evenodd"
       fill="#330a4c"
       fill-opacity="0.316"
       id="path15"
       style="stroke-width:1.37857" /><path
       d="m 60.820651,93.233807 c 3.584282,0.551428 5.51428,0.964999 5.652137,1.37857 0.275714,0.551428 -0.413571,1.102856 -2.481426,0.827142 -1.240713,-0.275714 -2.343569,-0.964999 -3.170711,-2.205712 z"
       fill-rule="evenodd"
       clip-rule="evenodd"
       fill="#ffffff"
       id="path16"
       style="display:inline;stroke-width:1.37857;opacity:0.35466028" /><path
       d="m 62.750649,43.467426 c -1.929998,2.343569 -3.72214,4.962852 -5.238567,7.582136 -1.516427,2.619283 -2.481426,4.687138 -3.170711,5.927851 -0.137857,0.964999 -0.275714,2.481426 -0.275714,4.411424 0,1.929998 0.137857,3.997854 0.551428,6.341423 0.275714,-4.549282 1.102856,-9.098563 2.619283,-13.37213 1.37857,-4.273568 3.308568,-7.995707 5.514281,-10.890704 z"
       fill-rule="evenodd"
       clip-rule="evenodd"
       fill="#ededed"
       fill-opacity="0.603"
       id="path17"
       style="stroke-width:1.37857" /></g><style
     id="style1">.st10{fill:#333}</style></svg>
