<?xml version="1.0" encoding="UTF-8" standalone="no"?>
<!-- Created with Inkscape (http://www.inkscape.org/) -->

<svg
   width="512"
   height="512"
   viewBox="0 0 135.46666 135.46667"
   version="1.1"
   id="svg5"
   inkscape:version="1.4.2 (ebf0e940d0, 2025-05-08)"
   sodipodi:docname="text-x-lua.svg"
   xmlns:inkscape="http://www.inkscape.org/namespaces/inkscape"
   xmlns:sodipodi="http://sodipodi.sourceforge.net/DTD/sodipodi-0.dtd"
   xmlns="http://www.w3.org/2000/svg"
   xmlns:svg="http://www.w3.org/2000/svg">
  <sodipodi:namedview
     id="namedview7"
     pagecolor="#242424"
     bordercolor="#666666"
     borderopacity="1"
     inkscape:showpageshadow="0"
     inkscape:pageopacity="0"
     inkscape:pagecheckerboard="1"
     inkscape:deskcolor="#000000"
     inkscape:document-units="px"
     showgrid="false"
     inkscape:zoom="1.84375"
     inkscape:cx="419.52542"
     inkscape:cy="157.55932"
     inkscape:window-width="3256"
     inkscape:window-height="1080"
     inkscape:window-x="1864"
     inkscape:window-y="0"
     inkscape:window-maximized="0"
     inkscape:current-layer="layer1" />
  <defs
     id="defs2" />
  <g
     inkscape:label="Layer 1"
     inkscape:groupmode="layer"
     id="layer1">
    <circle
       style="font-variation-settings:'opsz' 32;display:none;opacity:1;fill:none;stroke:#00007e;stroke-width:4.23333;stroke-linecap:round;stroke-linejoin:round;stroke-miterlimit:12;stroke-dasharray:8.46667, 8.46667;stroke-dashoffset:0;stroke-opacity:1;paint-order:markers stroke fill"
       id="path1"
       cx="2.8421709e-14"
       cy="95.789391"
       r="63.5"
       transform="rotate(-45)" />
    <path
       id="path3"
       style="font-variation-settings:'opsz' 32;opacity:1;fill:#00007e;fill-opacity:1;stroke:#ffffff;stroke-width:2.11667;stroke-linecap:round;stroke-linejoin:round;stroke-miterlimit:12;stroke-dasharray:none;stroke-dashoffset:0;stroke-opacity:1;paint-order:markers stroke fill"
       d="m 67.733331,18.802985 c -27.023488,10e-5 -48.930246,21.906858 -48.930346,48.930346 9.8e-5,27.02349 21.906856,48.930249 48.930346,48.930349 27.023492,-1e-4 48.930249,-21.906857 48.930349,-48.930349 -1e-4,-27.02349 -21.906859,-48.930248 -48.930349,-48.930346 z M 88.748069,34.924999 A 11.793568,11.793568 0 0 1 100.54167,46.718594 11.793568,11.793568 0 0 1 88.748069,58.512189 11.793568,11.793568 0 0 1 76.954474,46.718594 11.793568,11.793568 0 0 1 88.748069,34.924999 Z" />
    <path
       style="font-variation-settings:'opsz' 32;baseline-shift:baseline;display:inline;overflow:visible;opacity:1;fill:#00007e;stroke:#ffffff;stroke-width:2.11667;stroke-linecap:round;stroke-linejoin:round;stroke-miterlimit:12;stroke-dasharray:none;stroke-dashoffset:0;stroke-opacity:1;paint-order:markers stroke fill;enable-background:accumulate;stop-color:#000000;stop-opacity:1"
       d="m 19.18034,23.547017 c -1.965409,2.152911 -3.789469,4.435887 -5.452457,6.833525 -0.666638,0.960293 -0.428583,2.279181 0.531711,2.945817 0.960912,0.667303 2.280932,0.428537 2.9472,-0.533092 1.553918,-2.240385 3.260232,-4.377368 5.100284,-6.392963 0.787803,-0.863464 0.726592,-2.202048 -0.136726,-2.990012 -0.863465,-0.787803 -2.202049,-0.726593 -2.990012,0.136725 z m 6.301813,-6.05322 c -0.893174,0.75246 -1.00813,2.086152 -0.256879,2.980344 0.752167,0.8945 2.086962,1.010113 2.981726,0.25826 2.08781,-1.757228 4.291661,-3.3769 6.593218,-4.8365 0.986885,-0.626285 1.27933,-1.933947 0.653245,-2.920959 -0.626285,-0.986884 -1.933947,-1.27933 -2.920958,-0.653245 -2.465104,1.563319 -4.819917,3.29483 -7.050352,5.1721 z M 9.2338888,37.87974 c -1.3285709,2.597139 -2.482538,5.285097 -3.4499075,8.037816 -0.3874811,1.102926 0.1925105,2.311138 1.2954408,2.698607 1.1029261,0.387481 2.3111397,-0.192511 2.6986073,-1.295442 C 10.682017,44.74836 11.760859,42.236928 13.002823,39.809093 13.535615,38.76798 13.123097,37.492085 12.08165,36.959949 11.041242,36.427892 9.7665014,36.839616 9.2338888,37.87974 Z M 40.209861,8.1384434 c -1.061911,0.4895208 -1.525718,1.7473634 -1.035801,2.8090916 0.490029,1.060598 1.746716,1.523588 2.807712,1.03442 2.475568,-1.142047 5.029775,-2.1153596 7.637305,-2.914053 1.11849,-0.3420968 1.747501,-1.5265177 1.404546,-2.6447448 C 50.680918,5.3059313 49.497648,4.6778211 48.380259,5.0199915 45.591082,5.8743242 42.859466,6.9161082 40.209861,8.1384434 Z M 4.3518136,52.998291 c -0.4694913,0.307972 -0.7973718,0.789876 -0.9115045,1.339636 -0.594686,2.85596 -0.9986801,5.749934 -1.2084349,8.657915 -0.084154,1.166318 0.793383,2.179907 1.9597359,2.26357 C 5.3579275,65.343566 6.371517,64.46603 6.4551805,63.299677 6.6515009,60.57794 7.0275608,57.869651 7.5835122,55.199714 7.8210626,54.055681 7.0866742,52.935553 5.9428039,52.697219 5.3935311,52.582743 4.8212795,52.691034 4.3518136,52.998291 Z M 55.514856,3.8764676 c -0.326675,0.4562458 -0.45881,1.0235413 -0.367364,1.577179 0.191404,1.1532947 1.281544,1.9330256 2.434822,1.7415269 2.690766,-0.4475229 5.412645,-0.7151472 8.138634,-0.7996387 1.168553,-0.035782 2.086803,-1.0121597 2.050883,-2.1807081 -0.03652,-1.168564 -1.013529,-2.0862118 -2.182088,-2.0495052 -2.915477,0.090367 -5.823795,0.3750169 -8.700724,0.8535026 -0.553651,0.09237 -1.047944,0.4008688 -1.374163,0.8576435 z M 2.7097243,70.205017 c -0.3714864,0.420602 -0.5607541,0.971503 -0.5261872,1.531603 0.1759034,2.910293 0.5431761,5.810467 1.1048544,8.673108 0.2256194,1.147266 1.3387207,1.894282 2.4859222,1.66833 C 6.921492,81.853068 7.669058,80.740686 7.4440248,79.593517 6.9189457,76.917406 6.5728494,74.204825 6.4082237,71.481124 6.3381515,70.314079 5.3351644,69.424869 4.1681313,69.495147 c -0.561109,0.03359 -1.0858148,0.288982 -1.458407,0.70987 z M 72.004807,4.3598415 c -0.117563,1.1632126 0.730212,2.2014426 1.893444,2.3188125 2.713665,0.2728088 5.410501,0.7280003 8.062675,1.3617335 1.137286,0.2717666 2.279485,-0.4301267 2.550832,-1.5675129 C 84.782732,5.3364776 84.081779,4.1954208 82.945627,3.9234237 80.108242,3.2454349 77.224353,2.7595323 74.322239,2.4677779 73.160025,2.3510014 72.1229,3.197761 72.004807,4.3598415 Z M 6.8625949,86.171543 c -1.1075788,0.374419 -1.7018271,1.575905 -1.3272062,2.683414 0.9349903,2.763812 2.0575089,5.463917 3.3559953,8.076486 0.5199603,1.04751 1.790872,1.474858 2.838094,0.954318 1.046467,-0.520967 1.472488,-1.79161 0.951556,-2.838095 C 11.467407,92.605833 10.419766,90.081551 9.54601,87.49875 9.1715913,86.39117 7.9701037,85.796922 6.8625949,86.171543 Z M 88.556906,7.7282656 c -0.418803,1.0914865 0.126578,2.3158094 1.218102,2.7345144 2.544859,0.9778 5.024792,2.128518 7.413573,3.441621 1.024382,0.562728 2.310987,0.18868 2.873999,-0.835546 0.56273,-1.024383 0.18868,-2.310987 -0.835543,-2.874002 C 96.669759,8.789128 94.016494,7.5580572 91.292802,6.5115448 90.201308,6.0916832 88.976159,6.6365373 88.556906,7.7282656 Z M 13.863229,101.54421 c -0.969095,0.65492 -1.223299,1.97171 -0.56762,2.94029 1.635183,2.41641 3.433281,4.72 5.373736,6.89568 0.777979,0.87261 2.116069,0.94929 2.988631,0.17125 0.872618,-0.77798 0.949296,-2.11607 0.171252,-2.98863 -1.816514,-2.03672 -3.500232,-4.19261 -5.028469,-6.45097 -0.654792,-0.96738 -1.969479,-1.22141 -2.93753,-0.56762 z m 10.815142,12.9779 c -0.76248,0.88562 -0.662945,2.22161 0.22235,2.98448 2.208467,1.90257 4.544204,3.66159 6.990971,5.25359 0.980068,0.63796 2.291767,0.36028 2.929244,-0.6201 0.637966,-0.98007 0.360284,-2.29178 -0.620103,-2.92925 -2.284309,-1.4863 -4.468887,-3.13115 -6.536592,-4.91246 -0.886197,-0.76307 -2.223284,-0.66288 -2.98587,0.22374 z M 121.7854,34.418783 c -1.01425,0.580598 -1.36603,1.873334 -0.78583,2.887814 1.35416,2.365893 2.54823,4.826081 3.57282,7.354186 0.43949,1.082952 1.67352,1.604757 2.75662,1.165623 1.08273,-0.438951 1.60508,-1.672119 1.167,-2.755233 -1.09545,-2.702921 -2.37307,-5.33369 -3.82279,-7.86656 -0.5806,-1.014252 -1.87334,-1.366032 -2.88782,-0.78583 z M 38.515291,124.2103 c -0.502864,1.05562 -0.05452,2.31901 1.001278,2.82152 2.635115,1.25355 5.356678,2.32709 8.13587,3.21375 1.113602,0.35538 2.304454,-0.25922 2.659933,-1.37279 0.355383,-1.1136 -0.259214,-2.30446 -1.37278,-2.65993 -2.597956,-0.82884 -5.141006,-1.83274 -7.602779,-3.00383 -1.055622,-0.50285 -2.319014,-0.0545 -2.821522,1.00128 z M 128.65345,49.852216 c -1.13166,0.290938 -1.81351,1.443839 -1.52332,2.575691 0.67819,2.642607 1.18055,5.330439 1.50123,8.039201 0.13731,1.160881 1.18969,1.990666 2.35057,1.853389 1.16089,-0.137307 1.99067,-1.189687 1.85339,-2.350576 -0.3429,-2.896522 -0.88127,-5.769759 -1.60618,-8.594385 -0.29093,-1.131664 -1.44384,-1.813517 -2.57569,-1.52332 z M 55.296648,128.52614 c -0.460382,0.32108 -0.774309,0.81192 -0.872839,1.36449 -0.20531,1.151 0.561475,2.25047 1.712527,2.45554 2.871293,0.51198 5.776835,0.83031 8.691059,0.95431 1.167686,0.0494 2.154423,-0.85696 2.204189,-2.02464 0.04939,-1.16769 -0.856973,-2.15442 -2.024649,-2.20419 -2.724816,-0.11594 -5.442391,-0.41474 -8.12758,-0.89354 -0.552851,-0.0985 -1.122194,0.0267 -1.582707,0.34803 z M 129.05396,68.637505 c -0.0382,2.727908 -0.25881,5.4537 -0.66015,8.15106 -0.1716,1.156315 0.62665,2.232806 1.78296,2.404441 1.15634,0.17248 2.23353,-0.625203 2.40582,-1.781576 0.42932,-2.885407 0.6635,-5.79882 0.70435,-8.714536 0.0164,-1.168381 -0.91705,-2.129045 -2.08542,-2.146183 -1.16944,-0.0172 -2.13119,0.917315 -2.14758,2.086772 z M 71.752074,129.63237 c -0.360076,0.4305 -0.534444,0.98638 -0.484755,1.54542 0.10273,1.16483 1.130543,2.02567 2.295333,1.92244 2.905313,-0.25813 5.793595,-0.71271 8.638582,-1.35759 1.14035,-0.25774 1.855784,-1.39118 1.597893,-2.5315 -0.258349,-1.14045 -1.392534,-1.85534 -2.532877,-1.59651 -2.659487,0.60284 -5.361254,1.02783 -8.077864,1.2692 -0.559076,0.0492 -1.075713,0.31848 -1.436312,0.74854 z M 126.66057,84.783571 c -0.7524,2.620803 -1.6826,5.19214 -2.78147,7.687024 -0.47175,1.070116 0.0138,2.320019 1.08414,2.791135 1.07011,0.471743 2.32001,-0.01375 2.79113,-1.08414 1.17619,-2.670398 2.16979,-5.421475 2.97482,-8.225639 0.32256,-1.123512 -0.32664,-2.295798 -1.45012,-2.618503 -1.12351,-0.322562 -2.2958,0.326652 -2.6185,1.450123 z M 89.10795,125.28338 c -1.09608,0.40653 -1.655052,1.62465 -1.248482,2.72071 0.406521,1.09608 1.624641,1.65506 2.720703,1.24849 2.735579,-1.01464 5.402042,-2.21367 7.975666,-3.5894 1.031581,-0.55117 1.420605,-1.83453 0.868691,-2.86572 -0.551174,-1.03157 -1.834527,-1.42059 -2.865712,-0.86869 -2.403947,1.28503 -4.894664,2.40652 -7.450866,3.35461 z m 30.98564,-25.563559 c -1.42012,2.326849 -2.99986,4.558709 -4.72049,6.676079 -0.73753,0.90692 -0.60027,2.24 0.3066,2.97759 0.90749,0.73814 2.24168,0.60021 2.97896,-0.30798 1.8389,-2.26292 3.52883,-4.64904 5.04919,-7.14013 0.60902,-0.99837 0.29299,-2.301447 -0.70573,-2.909906 -0.99772,-0.608328 -2.29965,-0.293039 -2.90853,0.704347 z m -16.59215,17.884829 c -0.94876,0.68271 -1.16455,2.00523 -0.48199,2.95411 0.68322,0.94916 2.00672,1.16438 2.95548,0.4806 2.36723,-1.70459 4.6194,-3.56736 6.73824,-5.56984 0.84989,-0.80308 0.88762,-2.14316 0.0842,-2.99277 -0.80307,-0.84992 -2.14316,-0.88764 -2.99278,-0.0843 -1.98333,1.87443 -4.08996,3.61844 -6.30319,5.21215 z"
       id="circle3"
       sodipodi:nodetypes="ccccccccccccccccccccccccccccccccccccccccccccccccccccccscccccccccccccccscccccccccccccccccccccccccccccccccccccccccccccscccccssccccccccccccsccscccccscccccccccccccc" />
    <circle
       style="font-variation-settings:'opsz' 32;opacity:1;fill:#00007e;fill-opacity:1;stroke:#ffffff;stroke-width:2.11667;stroke-linecap:round;stroke-linejoin:round;stroke-miterlimit:12;stroke-dasharray:none;stroke-dashoffset:0;stroke-opacity:1;paint-order:markers stroke fill"
       id="path2"
       cx="117.32309"
       cy="18.143568"
       r="11.793568" />
  </g>
</svg>
