<?xml version="1.0" encoding="UTF-8" standalone="no"?>
<!-- Created with Inkscape (http://www.inkscape.org/) -->

<svg
   width="512"
   height="512"
   viewBox="0 0 135.46666 135.46667"
   version="1.1"
   id="svg5"
   inkscape:version="1.4.2 (ebf0e940d0, 2025-05-08)"
   sodipodi:docname="text-x-wxmathml.svg"
   xmlns:inkscape="http://www.inkscape.org/namespaces/inkscape"
   xmlns:sodipodi="http://sodipodi.sourceforge.net/DTD/sodipodi-0.dtd"
   xmlns="http://www.w3.org/2000/svg"
   xmlns:svg="http://www.w3.org/2000/svg">
  <sodipodi:namedview
     id="namedview7"
     pagecolor="#242424"
     bordercolor="#666666"
     borderopacity="1"
     inkscape:showpageshadow="0"
     inkscape:pageopacity="0"
     inkscape:pagecheckerboard="1"
     inkscape:deskcolor="#000000"
     inkscape:document-units="px"
     showgrid="false"
     inkscape:zoom="0.921875"
     inkscape:cx="418.16949"
     inkscape:cy="373.15254"
     inkscape:window-width="3256"
     inkscape:window-height="1080"
     inkscape:window-x="1864"
     inkscape:window-y="0"
     inkscape:window-maximized="0"
     inkscape:current-layer="layer1" />
  <defs
     id="defs2">
    <filter
       inkscape:collect="always"
       style="color-interpolation-filters:sRGB"
       id="filter10"
       x="-0.020659397"
       y="-0.014850761"
       width="1.0413188"
       height="1.0297015">
      <feGaussianBlur
         inkscape:collect="always"
         stdDeviation="0.46744665"
         id="feGaussianBlur10" />
    </filter>
    <filter
       inkscape:collect="always"
       style="color-interpolation-filters:sRGB"
       id="filter11"
       x="-0.016492556"
       y="-0.018146408"
       width="1.0329851"
       height="1.0362928">
      <feGaussianBlur
         inkscape:collect="always"
         stdDeviation="0.67909742"
         id="feGaussianBlur11" />
    </filter>
    <filter
       inkscape:collect="always"
       style="color-interpolation-filters:sRGB"
       id="filter12"
       x="-0.021477137"
       y="-0.014455128"
       width="1.0429543"
       height="1.0289103">
      <feGaussianBlur
         inkscape:collect="always"
         stdDeviation="0.48325232"
         id="feGaussianBlur12" />
    </filter>
    <clipPath
       clipPathUnits="userSpaceOnUse"
       id="clipPath20">
      <path
         style="font-size:119.787px;line-height:1.25;font-family:'Architects Daughter';-inkscape-font-specification:'Architects Daughter, Normal';text-align:center;baseline-shift:baseline;text-anchor:middle;display:inline;overflow:visible;vector-effect:none;fill:#0000ff;stroke-width:0.999998;paint-order:markers stroke fill;enable-background:accumulate;stop-color:#000000"
         d="m 264.44769,142.64163 v -8.86424 L 292.7174,98.440223 265.64555,66.097731 v -8.984025 h 56.65925 v 9.58296 h -30.78527 q -2.63531,0 -6.46848,0 -3.7134,0 -5.62999,-0.119788 l 24.55632,29.108244 v 3.234248 l -27.19163,34.1393 q 4.5519,0 8.74446,0 4.31231,-0.11979 9.10381,-0.11979 h 29.10824 v 9.70275 z"
         id="path21" />
    </clipPath>
    <clipPath
       clipPathUnits="userSpaceOnUse"
       id="clipPath21">
      <path
         style="font-size:143.645px;line-height:1.25;font-family:'Times New Roman';-inkscape-font-specification:'Times New Roman, @opsz=32';font-variation-settings:'opsz' 32;text-align:center;baseline-shift:baseline;text-anchor:middle;display:inline;overflow:visible;vector-effect:none;fill:#ff0000;stroke-width:0.999998;paint-order:markers stroke fill;enable-background:accumulate;stop-color:#000000"
         d="M 251.23957,122.46265 214.48665,42.433864 v 63.546076 q 0,8.7674 1.89376,10.94172 2.59515,2.94584 8.20628,2.94584 h 3.36668 v 2.59515 h -33.10568 v -2.59515 h 3.36668 q 6.03196,0 8.55697,-3.64723 1.54306,-2.24446 1.54306,-10.24033 V 43.836648 q 0,-6.312527 -1.40278,-9.118092 -0.98195,-2.034035 -3.64723,-3.36668 -2.59515,-1.402784 -8.4167,-1.402784 v -2.595147 h 26.93343 l 34.50847,74.417655 33.94734,-74.417655 h 26.93345 v 2.595147 h -3.29655 q -6.10211,0 -8.62711,3.647236 -1.54305,2.244453 -1.54305,10.24032 v 62.143292 q 0,8.7674 1.96389,10.94172 2.59514,2.94584 8.20627,2.94584 h 3.29655 v 2.59515 h -40.40016 v -2.59515 h 3.36669 q 6.10209,0 8.55697,-3.64723 1.54305,-2.24446 1.54305,-10.24033 V 42.433864 l -36.68277,80.028786 z"
         id="path22" />
    </clipPath>
    <clipPath
       clipPathUnits="userSpaceOnUse"
       id="clipPath22">
      <path
         style="font-size:153.827px;line-height:1.25;font-family:'Architects Daughter';-inkscape-font-specification:'Architects Daughter, Normal';text-align:center;baseline-shift:baseline;text-anchor:middle;display:inline;overflow:visible;vector-effect:none;fill:#0000ff;stroke-width:0.999998;paint-order:markers stroke fill;enable-background:accumulate;stop-color:#000000"
         d="m 222.57911,92.702699 q -17.84393,0 -26.15059,-6.768388 -8.15283,-6.922214 -8.15283,-17.228624 0,-9.229619 5.07629,-13.6906 5.23012,-4.460983 12.30616,-6.460736 v -0.769133 q -6.61456,-2.153579 -10.61406,-6.614562 -3.9995,-4.61481 -3.9995,-11.998505 0,-10.460236 7.999,-16.151835 7.999,-5.845426 22.45874,-5.845426 8.61431,0 15.53653,1.8459241 7.07604,1.6920969 11.53702,4.1533289 l -4.30715,11.229371 q -4.92247,-2.768886 -10.61406,-4.307156 -5.53778,-1.692097 -12.15234,-1.692097 -9.22962,0 -13.22912,3.230367 -3.84567,3.07654 -3.84567,8.460485 0,7.07604 5.53777,9.998755 5.6916,2.768885 13.07529,2.768885 h 10.61407 v 10.460236 h -10.61407 q -10.15258,0 -15.53652,3.845674 -5.23012,3.69185 -5.23012,10.767891 0,6.614559 5.23012,9.998755 5.38394,3.230366 15.07504,3.230366 7.99901,0 13.84443,-1.230617 5.99925,-1.230616 10.76789,-3.691847 v 11.998507 q -4.76864,2.461231 -11.07554,3.384193 -6.30691,1.076788 -13.53678,1.076788 z"
         id="path23" />
    </clipPath>
    <filter
       inkscape:collect="always"
       style="color-interpolation-filters:sRGB"
       id="filter23"
       x="-0.020640189"
       y="-0.014860701"
       width="1.0412804"
       height="1.0297214">
      <feGaussianBlur
         inkscape:collect="always"
         stdDeviation="0.54924681"
         id="feGaussianBlur23" />
    </filter>
    <filter
       inkscape:collect="always"
       style="color-interpolation-filters:sRGB"
       id="filter24"
       x="-0.015406531"
       y="-0.019672181"
       width="1.0308131"
       height="1.0393444">
      <feGaussianBlur
         inkscape:collect="always"
         stdDeviation="0.8056208"
         id="feGaussianBlur24" />
    </filter>
    <filter
       inkscape:collect="always"
       style="color-interpolation-filters:sRGB"
       id="filter25"
       x="-0.02090807"
       y="-0.014724869"
       width="1.0418161"
       height="1.0294497">
      <feGaussianBlur
         inkscape:collect="always"
         stdDeviation="0.54422582"
         id="feGaussianBlur25" />
    </filter>
  </defs>
  <g
     inkscape:label="Layer 1"
     inkscape:groupmode="layer"
     id="layer1">
    <path
       d="m 34.303408,85.527734 q -17.843932,0 -26.1505895,-6.768388 Q -1.2266428e-5,71.837131 -1.2266428e-5,61.530722 q 0,-9.229619 5.076290866428,-13.690602 5.2301174,-4.460983 12.3061594,-6.460734 V 40.610251 Q 10.767877,38.456673 6.7683756,33.99569 2.7688737,29.38088 2.7688737,21.997184 q 0,-10.460235 7.9990033,-16.1518341 7.999004,-5.845425827734 22.458742,-5.845425827734 8.614312,0 15.536526,1.845923927734 7.076042,1.692097 11.537025,4.1533289 L 55.993014,17.228548 Q 51.07055,14.459662 45.378952,12.921392 39.84118,11.229295 33.226619,11.229295 q -9.22962,0 -13.229122,3.230367 -3.845675,3.07654 -3.845675,8.460484 0,7.076042 5.537772,9.998755 5.691599,2.768886 13.075295,2.768886 H 45.378952 V 46.148023 H 34.764889 q -10.152582,0 -15.536527,3.845675 -5.230118,3.691848 -5.230118,10.767889 0,6.614561 5.230118,9.998755 5.383945,3.230367 15.075046,3.230367 7.999004,0 13.844429,-1.230616 5.999253,-1.230616 10.76789,-3.691848 v 11.998506 q -4.768637,2.461232 -11.075544,3.384194 -6.306906,1.076789 -13.536775,1.076789 z"
       id="text1"
       style="font-size:153.827px;line-height:1.25;font-family:'Architects Daughter';-inkscape-font-specification:'Architects Daughter, Normal';text-align:center;text-anchor:middle;fill:#0000ff;stroke-width:0.264583"
       aria-label="ε" />
    <path
       id="text4"
       style="font-size:153.827px;line-height:1.25;font-family:'Architects Daughter';-inkscape-font-specification:'Architects Daughter, Normal';text-align:center;text-anchor:middle;fill:#ffffff;stroke-width:0.264583;fill-opacity:1;filter:url(#filter10)"
       d="m 31.54231,2.6633695 c -6.54919,0.2045312 -13.4848,1.3121717 -19.00453,5.1567911 -2.44505,1.6897659 -4.5371,4.0466204 -5.67562,6.6781454 -1.33133,3.071178 -1.6369,6.385486 -1.35082,9.692431 0.35409,3.573922 1.86139,7.133499 4.66483,9.466089 0.0225,0.02002 0.0451,0.04005 0.0677,0.05995 -1.83747,-2.221354 -2.86136,-5.075319 -3.14503,-7.938534 -0.28608,-3.306945 0.0195,-6.621253 1.35082,-9.692431 1.13852,-2.631525 3.23057,-4.98838 5.67562,-6.6781454 5.51973,-3.8446194 12.45534,-4.9522599 19.00453,-5.1567911 2.99357,-0.04367 5.96553,0.039321 8.92193,0.3586344 5.01576,0.6558325 9.90366,1.6840884 14.5955,3.5093465 C 56.74967,7.8517755 56.85176,7.5849507 56.95419,7.3178707 51.68885,4.9917437 46.15911,3.7666386 40.46424,3.022009 37.50784,2.7026961 34.53588,2.6197046 31.54231,2.6633745 Z M 18.00877,33.594814 c 1.83043,2.24175 4.54517,3.683852 7.27139,4.586284 5.59709,1.989844 11.58604,1.759463 17.44751,1.726509 V 38.31804 C 36.3657,38.29342 29.79618,38.763483 23.69266,36.593598 21.67354,35.925231 19.66067,34.960881 18.00877,33.594814 Z m 2.17351,6.22236 c -0.0274,0.06101 -0.0601,0.119749 -0.0987,0.174666 -0.1272,1.145051 0.16092,2.628673 -0.96067,3.380672 -1.42455,0.882735 -3.14578,1.061056 -4.63537,1.812809 -3.51991,1.487326 -6.99642,3.489805 -9.35137,6.569625 -2.43706,3.627502 -2.74592,8.22207 -2.33061,12.45402 0.55055,4.578258 2.90132,8.837219 6.32623,11.891781 C 6.57513,73.235373 4.85378,69.627733 4.39306,65.796466 3.97775,61.564516 4.28661,56.969948 6.72367,53.342446 c 2.35495,-3.07982 5.83146,-5.082299 9.35137,-6.569625 1.48959,-0.751753 3.21082,-0.930074 4.63537,-1.812809 1.12159,-0.751999 0.83347,-2.235621 0.96067,-3.380672 0.3283,-0.467474 0.25954,-1.203253 -0.34985,-1.406633 -0.38093,-0.112912 -0.76088,-0.231022 -1.13895,-0.355533 z m -4.02301,31.94637 c 0.43992,0.528367 0.92321,1.022411 1.44952,1.475362 3.91591,3.214659 9.05617,4.406532 14.00431,4.801257 8.27937,0.480337 16.76413,-0.07537 24.65586,-2.75332 -0.002,-0.716282 -0.008,-1.43256 -0.0253,-2.148706 -8.32756,3.160803 -17.38955,3.826721 -26.21804,3.314526 -4.8903,-0.390111 -9.9681,-1.558595 -13.86633,-4.689119 z" />
    <path
       style="font-size:153.827px;line-height:1.25;font-family:'Architects Daughter';-inkscape-font-specification:'Architects Daughter, Normal';text-align:center;baseline-shift:baseline;text-anchor:middle;display:inline;overflow:visible;vector-effect:none;paint-order:markers stroke fill;enable-background:accumulate;stop-color:#000000;filter:url(#filter23);opacity:0.48"
       d="m 221.50195,5.5878906 c -9.84977,0 -17.68671,1.9841074 -23.38672,6.1464844 -5.70089,4.060645 -8.6582,10.063366 -8.6582,17.4375 0,5.209096 1.44595,9.645862 4.38672,13.039062 l 0.01,0.0098 0.008,0.0098 c 2.2746,2.537059 5.28953,4.386808 8.67969,5.859375 -3.77477,1.392965 -7.26346,3.196108 -10.21875,5.716797 l -0.01,0.0078 -0.008,0.0078 c -3.79198,3.332348 -5.61719,8.438691 -5.61719,14.882812 0,7.289534 2.98135,13.573052 8.71289,18.439453 l 0.0137,0.0098 0.0117,0.0098 c 5.96931,4.86388 15.05763,7.126954 27.1543,7.126954 4.89008,0 9.48203,-0.363508 13.77929,-1.095704 4.34213,-0.636759 8.20353,-1.810312 11.56055,-3.542968 l 0.85938,-0.44336 V 73.636719 l -2.31641,1.195312 c -3.03381,1.565839 -6.48089,2.753642 -10.35742,3.548828 h -0.006 -0.004 c -3.7541,0.790338 -8.26436,1.197266 -13.51562,1.197266 -6.26604,0 -11.00016,-1.06161 -14.22852,-2.988281 -3.07856,-1.998633 -4.49023,-4.668569 -4.49023,-8.652344 0,-4.326237 1.46222,-7.286986 4.55859,-9.472656 l 0.004,-0.002 0.004,-0.002 c 3.20525,-2.289462 8.04534,-3.550781 14.61329,-3.550781 h 12.20117 V 41.275391 h -12.20117 c -4.7137,0 -8.80926,-0.88125 -12.35547,-2.601563 -3.20662,-1.70182 -4.66992,-4.2861 -4.66993,-8.578125 0,-3.21132 1.03896,-5.451869 3.25,-7.220703 l 0.002,-0.0039 0.004,-0.002 c 2.20198,-1.778516 6.2626,-2.876954 12.23047,-2.876954 4.27434,0 8.16653,0.546599 11.68946,1.623047 l 0.0234,0.0078 0.0254,0.0059 c 3.67408,0.992995 7.08674,2.378868 10.25,4.158203 l 1.60157,0.900391 5.46093,-14.236328 -1.21093,-0.667969 C 246.19722,10.048264 242.23353,8.6323436 237.43164,7.4824219 232.66227,6.2122401 227.3521,5.5878906 221.50195,5.5878906 Z m 0,3.1738282 c 5.62948,0 10.67055,0.6045956 15.12696,1.7929692 l 0.0215,0.0059 0.0195,0.0039 c 4.02842,0.963317 7.23992,2.143685 9.88477,3.445313 l -3.15039,8.21875 c -2.93491,-1.500628 -6.01509,-2.762935 -9.31446,-3.65625 -3.85315,-1.173962 -8.05377,-1.75586 -12.58789,-1.75586 -6.33829,0 -11.09586,1.055345 -14.22656,3.583985 -2.9122,2.333065 -4.43555,5.731046 -4.43555,9.695312 0,5.131492 2.22522,9.207024 6.38477,11.402344 l 0.0234,0.01172 0.0234,0.01172 c 4.03725,1.964063 8.64864,2.929688 13.76954,2.929688 h 9.02539 v 7.285156 h -9.02539 c -6.96883,0 -12.48565,1.30252 -16.45899,4.140625 -3.87258,2.736929 -5.89648,6.955123 -5.89648,12.060547 0,4.828118 2.07423,8.817679 5.95703,11.330078 l 0.0215,0.01563 0.0234,0.01367 c 3.94963,2.36978 9.25546,3.457031 15.89258,3.457031 5.41081,0 10.12393,-0.414227 14.16211,-1.263672 l 0.008,-0.002 c 3.21666,-0.660353 6.12109,-1.662853 8.85352,-2.851562 v 8.539062 c -2.81779,1.33654 -6.01238,2.336796 -9.7168,2.878906 l -0.0195,0.0039 -0.0176,0.002 c -4.10541,0.700923 -8.52843,1.054687 -13.26953,1.054687 -11.6913,0 -20.03588,-2.250251 -25.14258,-6.408203 -5.12531,-4.359743 -7.57422,-9.557957 -7.57422,-16.001953 0,-5.855882 1.55899,-9.872451 4.5293,-12.488281 3.30503,-2.816785 7.18263,-4.858891 11.69726,-6.134766 l 1.15625,-0.326172 v -3.123047 l -1.0957,-0.357421 c -4.18778,-1.363464 -7.45428,-3.416186 -9.91406,-6.15625 -2.38578,-2.758388 -3.60352,-6.317421 -3.60352,-10.947266 0,-6.568833 2.37368,-11.329362 7.33203,-14.857422 l 0.008,-0.0059 0.008,-0.0059 c 4.96475,-3.628088 12.09557,-5.5410152 21.52148,-5.5410152 z"
       id="path19"
       clip-path="url(#clipPath22)"
       transform="translate(-188.27546,-7.1748728)" />
    <path
       d="M 62.963869,115.28768 26.210948,35.258897 v 63.546081 q 0,8.767392 1.893757,10.941712 2.595149,2.94584 8.206282,2.94584 h 3.36668 v 2.59515 H 6.5719821 v -2.59515 h 3.3666798 q 6.0319681,0 8.5569781,-3.64723 1.543061,-2.24446 1.543061,-10.240322 V 36.661681 q 0,-6.312525 -1.402783,-9.118091 Q 17.65397,25.509554 14.988682,24.17691 12.393533,22.774127 6.5719821,22.774127 V 20.178978 H 33.50542 L 68.013888,94.596629 101.96124,20.178978 h 26.93344 v 2.595149 h -3.29654 q -6.10211,0 -8.62712,3.647236 -1.54306,2.244453 -1.54306,10.240318 v 62.143297 q 0,8.767392 1.9639,10.941712 2.59515,2.94584 8.20628,2.94584 h 3.29654 v 2.59515 H 88.494524 v -2.59515 h 3.366679 q 6.102108,0 8.556977,-3.64723 1.54306,-2.24446 1.54306,-10.240322 V 35.258897 L 65.278461,115.28768 Z"
       id="text2"
       style="font-size:143.645px;line-height:1.25;font-family:'Times New Roman';-inkscape-font-specification:'Times New Roman, @opsz=32';font-variation-settings:'opsz' 32;text-align:center;text-anchor:middle;fill:#ff0000;stroke-width:0.264583"
       aria-label="M" />
    <path
       id="text5"
       style="font-size:143.645px;line-height:1.25;font-family:'Times New Roman';-inkscape-font-specification:'Times New Roman, @opsz=32';font-variation-settings:'opsz' 32;text-align:center;text-anchor:middle;fill:#ffffff;stroke-width:0.264583;filter:url(#filter11)"
       d="m 31.81206,22.819762 c -4.62628,0.0039 -9.29985,-0.008 -13.89683,0.0057 0.651,0.45534 1.23677,0.991184 1.7508,1.5875 4.2625,-0.01215 8.58952,-0.0032 12.88242,-0.0052 -0.24549,-0.52935 -0.49091,-1.058666 -0.73639,-1.588016 z m 71.83954,0 C 91.9177,48.543757 80.18588,74.268907 68.45065,99.992311 c 0.15405,0.332159 0.30845,0.664159 0.4625,0.996319 10.36421,-22.550488 20.65617,-45.134631 31.07252,-67.660983 0.45698,-0.881666 1.20923,-1.855304 2.17662,-2.175061 1.02561,-2.248509 2.05117,-4.496828 3.07681,-6.745324 h 9.94823 c 0.0712,-0.09536 0.14479,-0.189513 0.22066,-0.28267 0.39294,-0.482539 0.84594,-0.914269 1.32963,-1.30483 z m -83.7246,1.90841 c 1.06387,1.34219 1.78318,2.957445 2.09082,4.648812 0.92724,4.331655 0.58446,8.7946 0.6625,13.191443 -0.0203,19.509245 0.064,39.018901 -0.076,58.527693 -0.0717,3.16968 -0.23964,6.53503 -1.89394,9.33328 -0.53403,0.83875 -1.21072,1.58374 -1.98644,2.20503 h 3.14244 c 0.1525,-0.19955 0.29652,-0.40553 0.4315,-0.61753 1.09653,-1.85478 1.54005,-3.95867 1.7353,-6.08955 -0.7848,-4.89495 -0.34502,-9.893809 -0.46406,-14.832687 0.003,-19.01726 -0.0551,-38.036104 0.0522,-57.052331 0.002,-0.437762 0.10217,-0.903033 0.29404,-1.317232 -0.0831,-0.589003 -0.18489,-1.175907 -0.31006,-1.760616 -0.44215,-2.430821 -1.73432,-4.70421 -3.67832,-6.236312 z m 84.50388,7.903911 c 0.0703,0.409169 0.0739,0.838838 0.0568,1.213362 0.26229,5.899071 0.0307,11.804817 0.11575,17.706929 -0.0121,16.74808 0.0544,33.497705 -0.0832,50.244996 -0.14099,3.32219 -0.39446,6.95182 -2.60604,9.62784 -0.37133,0.44245 -0.79203,0.84196 -1.23713,1.20923 h 3.12022 c 1.93961,-2.63369 2.176,-6.08143 2.31045,-9.24957 0.1376,-16.747291 0.0711,-33.496916 0.0832,-50.244996 -0.0851,-5.902112 0.14654,-11.807858 -0.11575,-17.706929 0.0465,-1.020935 -0.0593,-2.451349 -1.25729,-2.761072 -0.13171,-0.02578 -0.26082,-0.03856 -0.38706,-0.03979 z m -76.32661,0.528649 c 0.12608,0.239192 0.23212,0.484849 0.31781,0.723987 3.57386,7.461632 6.9246,15.0285 10.41229,22.531441 8.42291,18.341005 16.84584,36.681995 25.26874,55.023 0.14337,-0.31095 0.28662,-0.6223 0.42995,-0.93328 C 56.49598,93.005005 48.45896,75.504531 40.42187,58.00366 36.93418,50.500719 33.58344,42.933851 30.00958,35.472219 29.67786,34.546558 29.04396,33.522169 28.10427,33.160732 Z" />
    <path
       style="font-size:143.645px;line-height:1.25;font-family:'Times New Roman';-inkscape-font-specification:'Times New Roman, @opsz=32';font-variation-settings:'opsz' 32;text-align:center;baseline-shift:baseline;text-anchor:middle;display:inline;overflow:visible;vector-effect:none;paint-order:markers stroke fill;enable-background:accumulate;stop-color:#000000;filter:url(#filter24);opacity:0.48"
       d="m 193.25977,25.765625 v 5.771484 h 1.58789 c 3.75352,0 6.36883,0.511872 7.66211,1.210938 l 0.0215,0.01172 0.0234,0.01172 c 1.55764,0.778823 2.45856,1.664868 2.92773,2.636719 l 0.004,0.0098 0.006,0.0098 c 0.7222,1.444407 1.23437,4.317446 1.23437,8.408203 v 62.144531 c 0,5.22846 -0.73355,8.56875 -1.26367,9.33984 -1.34688,1.94207 -3.54963,2.95899 -7.24805,2.95899 h -4.95507 v 5.77148 h 36.28125 v -5.77148 h -4.95508 c -3.45919,0 -5.6525,-0.8674 -7.00782,-2.40235 -0.28428,-0.32696 -0.76353,-1.36658 -1.05468,-3.04882 -0.29133,-1.68321 -0.44922,-3.98234 -0.44922,-6.84766 V 49.691406 l 34.14844,74.359374 h 4.34961 L 288.6506,49.705078 v 56.275392 c 0,5.22846 -0.7355,8.56875 -1.26562,9.33984 l -0.004,0.008 -0.004,0.006 c -1.29636,1.92602 -3.48845,2.94532 -7.24023,2.94532 h -4.95313 v 5.77148 h 43.57422 v -5.77148 h -4.88476 c -3.46294,0 -5.65871,-0.86819 -7.01368,-2.40625 l -0.008,-0.008 -0.006,-0.008 c -0.29892,-0.33095 -0.78662,-1.36058 -1.08789,-3.03906 -0.30126,-1.67848 -0.46679,-3.97469 -0.46679,-6.83789 V 43.835937 c 0,-5.224855 0.73168,-8.561845 1.26171,-9.335937 l 0.002,-0.002 c 1.6e-4,-2.34e-4 -1.6e-4,-0.0017 0,-0.002 1.34293,-1.937151 3.56882,-2.958985 7.31836,-2.958985 h 4.88476 v -5.77139 H 289.2168 L 256.2793,97.972656 222.79492,25.765625 Z m 7.5664,3.175781 h 19.94141 l 35.5332,76.628904 34.95703,-76.628904 h 18.43164 c -2.4193,0.647014 -4.42774,1.844854 -5.74804,3.751953 l -0.002,0.002 v 0.002 c -1.52729,2.221519 -1.82422,5.705975 -1.82422,11.138671 v 62.14453 c 0,2.98173 0.16422,5.42968 0.51758,7.39844 0.3527,1.96504 0.84703,3.48162 1.85352,4.59961 1.38249,1.56478 3.40447,2.38881 5.67187,2.89648 h -25.84375 c 2.40785,-0.64757 4.39758,-1.84666 5.6875,-3.75586 l 0.002,-0.002 c 1.52606,-2.22162 1.82031,-5.70569 1.82031,-11.13672 V 42.433594 l -3.03125,-0.66211 -36.25781,79.103516 h -0.2793 l -36.32617,-79.103516 -3.03125,0.66211 v 63.546876 c 0,2.97962 0.15811,5.42463 0.49804,7.38867 0.33993,1.96404 0.80883,3.47249 1.78711,4.5957 l 0.002,0.002 0.004,0.004 c 1.38325,1.57017 3.40968,2.39561 5.68164,2.9043 h -18.51172 c 2.40172,-0.64797 4.39845,-1.84767 5.7168,-3.75195 l 0.002,-0.002 0.002,-0.002 c 1.52729,-2.22152 1.82226,-5.70597 1.82226,-11.13867 V 43.835937 c 0,-4.318836 -0.4225,-7.518893 -1.5664,-9.814453 -0.83688,-1.727502 -2.3575,-3.077282 -4.33594,-4.072265 -0.88467,-0.475767 -2.00125,-0.758378 -3.17383,-1.007813 z"
       id="path17"
       clip-path="url(#clipPath21)"
       transform="translate(-188.27546,-7.1748728)" />
    <path
       d="m 76.171982,135.46666 v -8.86424 L 104.44171,91.265256 77.369852,58.922765 V 49.93874 H 134.0291 v 9.58296 h -30.78526 q -2.63531,0 -6.468494,0 -3.713397,0 -5.629989,-0.119787 l 24.556333,29.108242 v 3.234249 L 88.510043,125.8837 q 4.551906,0 8.744451,0 4.312336,-0.11979 9.103816,-0.11979 h 29.10824 v 9.70275 z"
       id="text3"
       style="font-size:119.787px;line-height:1.25;font-family:'Architects Daughter';-inkscape-font-specification:'Architects Daughter, Normal';text-align:center;text-anchor:middle;fill:#0000ff;stroke-width:0.264583"
       aria-label="Σ" />
    <path
       id="text6"
       style="font-size:119.787px;line-height:1.25;font-family:'Architects Daughter';-inkscape-font-specification:'Architects Daughter, Normal';text-align:center;text-anchor:middle;fill:#ffffff;stroke-width:0.264583;filter:url(#filter12)"
       d="m 80.01118,52.579185 v 5.369181 5.17e-4 C 89.29232,69.039464 98.57433,80.129224 107.85496,91.220237 98.17557,103.32191 88.49402,115.4219 78.81384,127.52293 v 5.29114 h 1.5875 v -3.70364 C 90.08152,117.0094 99.76307,104.90941 109.44246,92.807737 100.16183,81.716724 90.87982,70.626964 81.59868,59.536383 v -5.17e-4 -5.369181 h 49.77939 v -1.5875 z m 52.80453,75.824835 c -14.38203,-0.0226 -28.764,0.0325 -43.14568,0.1173 -1.26713,2.4e-4 -2.5342,8.2e-4 -3.80132,0.001 -0.42142,0.52924 -0.8426,1.05823 -1.26401,1.5875 2.2177,0 4.43512,-6.1e-4 6.65283,-0.001 13.85252,-0.0817 27.70533,-0.13618 41.55818,-0.11989 z" />
    <g
       id="g9"
       style="display:none"
       sodipodi:insensitive="true">
      <text
         xml:space="preserve"
         style="font-size:153.827px;line-height:1.25;font-family:'Architects Daughter';-inkscape-font-specification:'Architects Daughter, Normal';text-align:center;text-anchor:middle;fill:#0000ff;stroke-width:0.264583"
         x="29.227064"
         y="83.989464"
         id="text7"><tspan
           sodipodi:role="line"
           id="tspan7"
           style="fill:#0000ff;stroke-width:0.264583"
           x="29.227064"
           y="83.989464">ε</tspan></text>
      <text
         xml:space="preserve"
         style="font-style:normal;font-variant:normal;font-weight:normal;font-stretch:normal;font-size:143.645px;line-height:1.25;font-family:'Times New Roman';-inkscape-font-specification:'Times New Roman, @opsz=32';font-variant-ligatures:normal;font-variant-caps:normal;font-variant-numeric:normal;font-variant-east-asian:normal;font-variation-settings:'opsz' 32;text-align:center;text-anchor:middle;fill:#ff0000;stroke-width:0.264583"
         x="68.048958"
         y="115.28768"
         id="text8"><tspan
           sodipodi:role="line"
           id="tspan8"
           style="font-style:normal;font-variant:normal;font-weight:normal;font-stretch:normal;font-size:143.645px;font-family:'Times New Roman';-inkscape-font-specification:'Times New Roman, @opsz=32';font-variant-ligatures:normal;font-variant-caps:normal;font-variant-numeric:normal;font-variant-east-asian:normal;font-variation-settings:'opsz' 32;fill:#ff0000;stroke-width:0.264583"
           x="68.048958"
           y="115.28768">M</tspan></text>
      <text
         xml:space="preserve"
         style="font-size:119.787px;line-height:1.25;font-family:'Architects Daughter';-inkscape-font-specification:'Architects Daughter, Normal';text-align:center;text-anchor:middle;fill:#0000ff;stroke-width:0.264583"
         x="105.87919"
         y="135.46666"
         id="text9"><tspan
           sodipodi:role="line"
           id="tspan9"
           style="fill:#0000ff;stroke-width:0.264583"
           x="105.87919"
           y="135.46666">Σ</tspan></text>
    </g>
    <path
       style="font-size:119.787px;line-height:1.25;font-family:'Architects Daughter';-inkscape-font-specification:'Architects Daughter, Normal';text-align:center;baseline-shift:baseline;text-anchor:middle;display:inline;overflow:visible;vector-effect:none;paint-order:markers stroke fill;enable-background:accumulate;stop-color:#000000;filter:url(#filter25);opacity:0.48"
       d="m 264.05859,55.525391 v 11.148437 l 26.60743,31.789063 -27.80665,34.757809 v 11.00782 h 62.47071 v -12.87696 h -30.69531 c -3.20755,0 -6.25724,0.0408 -9.14844,0.1211 l 0.043,-0.002 h -5.44922 l 25.48437,-31.996091 v -4.36914 L 282.90039,68.238281 c 0.76958,0.01131 1.21469,0.04492 2.15039,0.04492 h 6.46875 32.37305 v -12.75781 z m 3.17383,3.175781 h 53.48438 v 6.408203 h -29.19727 -6.46875 c -2.45853,0 -4.31723,-0.04131 -5.53125,-0.117188 l -3.70703,-0.232421 26.57812,31.505859 v 2.099609 l -28.89843,36.281246 h 12.06054 0.0215 c 2.85857,-0.0794 5.87946,-0.11914 9.06055,-0.11914 h 27.51953 v 6.52735 h -56.11914 v -6.72071 L 294.76953,98.417969 267.23242,65.521484 Z"
       id="path15"
       clip-path="url(#clipPath20)"
       transform="translate(-188.27546,-7.1748728)" />
  </g>
</svg>
