<?xml version="1.0" encoding="UTF-8" standalone="no"?>
<!-- Created with Inkscape (http://www.inkscape.org/) -->

<svg
   width="512"
   height="512"
   viewBox="0 0 135.46666 135.46667"
   version="1.1"
   id="svg5"
   inkscape:version="1.3.2 (091e20ef0f, 2023-11-25, custom)"
   sodipodi:docname="text-x-systemd-unit.svg"
   xmlns:inkscape="http://www.inkscape.org/namespaces/inkscape"
   xmlns:sodipodi="http://sodipodi.sourceforge.net/DTD/sodipodi-0.dtd"
   xmlns:xlink="http://www.w3.org/1999/xlink"
   xmlns="http://www.w3.org/2000/svg"
   xmlns:svg="http://www.w3.org/2000/svg"
   xmlns:rdf="http://www.w3.org/1999/02/22-rdf-syntax-ns#"
   xmlns:cc="http://creativecommons.org/ns#"
   xmlns:dc="http://purl.org/dc/elements/1.1/">>
  <sodipodi:namedview
     id="namedview7"
     pagecolor="#292929"
     bordercolor="#666666"
     borderopacity="1"
     inkscape:showpageshadow="0"
     inkscape:pageopacity="0"
     inkscape:pagecheckerboard="1"
     inkscape:deskcolor="#1a1a1a"
     inkscape:document-units="px"
     showgrid="false"
     inkscape:zoom="0.65186406"
     inkscape:cx="260.02354"
     inkscape:cy="47.555927"
     inkscape:window-width="3256"
     inkscape:window-height="1080"
     inkscape:window-x="1864"
     inkscape:window-y="0"
     inkscape:window-maximized="0"
     inkscape:current-layer="layer1" />
  <defs
     id="defs2">
    <linearGradient
       id="linearGradient68"
       inkscape:collect="always">
      <stop
         style="stop-color:#ff0000;stop-opacity:1;"
         offset="0.87709635"
         id="stop67" />
      <stop
         style="stop-color:#800000;stop-opacity:1;"
         offset="1"
         id="stop68" />
    </linearGradient>
    <linearGradient
       id="linearGradient65"
       inkscape:collect="always">
      <stop
         style="stop-color:#ffffff;stop-opacity:1;"
         offset="0"
         id="stop65" />
      <stop
         style="stop-color:#ffffff;stop-opacity:0;"
         offset="1"
         id="stop66" />
    </linearGradient>
    <linearGradient
       id="linearGradient57"
       inkscape:collect="always">
      <stop
         style="stop-color:#000000;stop-opacity:1;"
         offset="0"
         id="stop57" />
      <stop
         style="stop-color:#ffffff;stop-opacity:1;"
         offset="1"
         id="stop58" />
    </linearGradient>
    <linearGradient
       id="linearGradient42"
       inkscape:collect="always">
      <stop
         style="stop-color:#000000;stop-opacity:1;"
         offset="0"
         id="stop41" />
      <stop
         style="stop-color:#000000;stop-opacity:0;"
         offset="1"
         id="stop42" />
    </linearGradient>
    <linearGradient
       id="linearGradient40"
       inkscape:collect="always">
      <stop
         style="stop-color:#000000;stop-opacity:1;"
         offset="0"
         id="stop39" />
      <stop
         style="stop-color:#000000;stop-opacity:0;"
         offset="1"
         id="stop40" />
    </linearGradient>
    <linearGradient
       id="linearGradient38"
       inkscape:collect="always">
      <stop
         style="stop-color:#000000;stop-opacity:1;"
         offset="0"
         id="stop37" />
      <stop
         style="stop-color:#000000;stop-opacity:0;"
         offset="1"
         id="stop38" />
    </linearGradient>
    <linearGradient
       id="linearGradient36"
       inkscape:collect="always">
      <stop
         style="stop-color:#000000;stop-opacity:1;"
         offset="0"
         id="stop35" />
      <stop
         style="stop-color:#000000;stop-opacity:0;"
         offset="1"
         id="stop36" />
    </linearGradient>
    <linearGradient
       id="linearGradient30"
       inkscape:collect="always">
      <stop
         style="stop-color:#000000;stop-opacity:1;"
         offset="0"
         id="stop30" />
      <stop
         style="stop-color:#000000;stop-opacity:0;"
         offset="1"
         id="stop31" />
    </linearGradient>
    <linearGradient
       id="linearGradient14"
       inkscape:collect="always">
      <stop
         style="stop-color:#ffffff;stop-opacity:0.40000001;"
         offset="0.0001"
         id="stop13" />
      <stop
         style="stop-color:#000000;stop-opacity:0.40000001;"
         offset="1"
         id="stop14" />
    </linearGradient>
    <linearGradient
       id="linearGradient10"
       inkscape:collect="always">
      <stop
         style="stop-color:#ffffff;stop-opacity:0.40000001;"
         offset="0.03"
         id="stop11" />
      <stop
         style="stop-color:#000000;stop-opacity:0.40000001;"
         offset="1"
         id="stop10" />
    </linearGradient>
    <linearGradient
       id="linearGradient8"
       inkscape:collect="always">
      <stop
         style="stop-color:#ff0000;stop-opacity:1;"
         offset="0"
         id="stop8" />
      <stop
         style="stop-color:#800000;stop-opacity:1;"
         offset="1"
         id="stop7" />
    </linearGradient>
    <linearGradient
       id="linearGradient4"
       inkscape:collect="always">
      <stop
         style="stop-color:#800000;stop-opacity:1;"
         offset="0"
         id="stop4" />
      <stop
         style="stop-color:#ff0000;stop-opacity:1;"
         offset="1"
         id="stop5" />
    </linearGradient>
    <linearGradient
       inkscape:collect="always"
       xlink:href="#linearGradient4"
       id="linearGradient5"
       x1="9.5249977"
       y1="9.5249977"
       x2="125.94167"
       y2="125.94167"
       gradientUnits="userSpaceOnUse"
       gradientTransform="matrix(0.93181821,0,0,0.93181821,4.6181893,4.6181893)" />
    <linearGradient
       inkscape:collect="always"
       xlink:href="#linearGradient8"
       id="linearGradient7"
       x1="0"
       y1="0"
       x2="135.46664"
       y2="135.46666"
       gradientUnits="userSpaceOnUse" />
    <linearGradient
       inkscape:collect="always"
       xlink:href="#linearGradient10"
       id="linearGradient11"
       x1="28.231859"
       y1="71.224724"
       x2="21.352381"
       y2="45.550159"
       gradientUnits="userSpaceOnUse" />
    <linearGradient
       inkscape:collect="always"
       xlink:href="#linearGradient14"
       id="linearGradient13"
       x1="75.023598"
       y1="111.38959"
       x2="60.443066"
       y2="82.516747"
       gradientUnits="userSpaceOnUse" />
    <linearGradient
       inkscape:collect="always"
       xlink:href="#linearGradient10"
       id="linearGradient15"
       gradientUnits="userSpaceOnUse"
       x1="15.394576"
       y1="67.784988"
       x2="34.189663"
       y2="48.989902"
       gradientTransform="translate(-92.525449,-24.79212)" />
    <linearGradient
       inkscape:collect="always"
       xlink:href="#linearGradient10"
       id="linearGradient16"
       gradientUnits="userSpaceOnUse"
       x1="37.629402"
       y1="61.827183"
       x2="11.95484"
       y2="54.947704"
       gradientTransform="translate(67.73333,-67.73333)" />
    <linearGradient
       inkscape:collect="always"
       xlink:href="#linearGradient10"
       id="linearGradient17"
       gradientUnits="userSpaceOnUse"
       gradientTransform="translate(42.941211,-160.25878)"
       x1="34.189663"
       y1="48.989899"
       x2="15.394576"
       y2="67.784988" />
    <radialGradient
       inkscape:collect="always"
       xlink:href="#linearGradient40"
       id="radialGradient31"
       cx="45.973839"
       cy="115.27212"
       fx="45.973839"
       fy="115.27212"
       r="9.397543"
       gradientUnits="userSpaceOnUse" />
    <radialGradient
       inkscape:collect="always"
       xlink:href="#linearGradient38"
       id="radialGradient32"
       cx="-106.40604"
       cy="80.381569"
       fx="-106.40604"
       fy="80.381569"
       r="9.397543"
       gradientUnits="userSpaceOnUse" />
    <radialGradient
       inkscape:collect="always"
       xlink:href="#linearGradient42"
       id="radialGradient33"
       cx="-45.973839"
       cy="-183.54813"
       fx="-45.973839"
       fy="-183.54813"
       r="9.397543"
       gradientUnits="userSpaceOnUse" />
    <radialGradient
       inkscape:collect="always"
       xlink:href="#linearGradient30"
       id="radialGradient34"
       cx="-149.41013"
       cy="75.193676"
       fx="-149.41013"
       fy="75.193676"
       r="7.2902656"
       gradientTransform="matrix(1,0,0,1.9802325,0,-73.707281)"
       gradientUnits="userSpaceOnUse" />
    <radialGradient
       inkscape:collect="always"
       xlink:href="#linearGradient36"
       id="radialGradient35"
       cx="-152.37988"
       cy="-69.028557"
       fx="-152.37988"
       fy="-69.028557"
       r="9.397543"
       gradientUnits="userSpaceOnUse" />
    <filter
       inkscape:collect="always"
       style="color-interpolation-filters:sRGB"
       id="filter57"
       x="-0.016828431"
       y="-0.017756472"
       width="1.0336569"
       height="1.0355129">
      <feGaussianBlur
         inkscape:collect="always"
         stdDeviation="0.58789479"
         id="feGaussianBlur57" />
    </filter>
    <linearGradient
       inkscape:collect="always"
       xlink:href="#linearGradient57"
       id="linearGradient59"
       gradientUnits="userSpaceOnUse"
       x1="8.4666672"
       y1="8.4666672"
       x2="127"
       y2="127"
       gradientTransform="matrix(1.0043585,0,0,1.0043424,-0.29503951,-0.2937326)" />
    <linearGradient
       inkscape:collect="always"
       xlink:href="#linearGradient57"
       id="linearGradient62"
       gradientUnits="userSpaceOnUse"
       gradientTransform="matrix(-0.99336057,0,0,-0.99337753,135.01678,135.01771)"
       x1="8.4666672"
       y1="8.4666672"
       x2="127"
       y2="127" />
    <filter
       inkscape:collect="always"
       style="color-interpolation-filters:sRGB"
       id="filter65"
       x="-0.023520001"
       y="-0.023520001"
       width="1.04704"
       height="1.04704">
      <feGaussianBlur
         inkscape:collect="always"
         stdDeviation="1.1616267"
         id="feGaussianBlur65" />
    </filter>
    <radialGradient
       inkscape:collect="always"
       xlink:href="#linearGradient65"
       id="radialGradient66"
       cx="-162.33882"
       cy="8.0599394"
       fx="-162.33882"
       fy="8.0599394"
       r="67.733322"
       gradientUnits="userSpaceOnUse"
       gradientTransform="translate(183.1267,10.847911)" />
    <radialGradient
       inkscape:collect="always"
       xlink:href="#linearGradient68"
       id="radialGradient67"
       cx="-59.266655"
       cy="40.301369"
       fx="-59.266655"
       fy="40.301369"
       r="67.733322"
       gradientUnits="userSpaceOnUse"
       gradientTransform="translate(126.99999,27.431964)" />
  </defs>
  <g
     inkscape:label="Layer 1"
     inkscape:groupmode="layer"
     id="layer1">
    <rect
       style="display:none;fill:#1a1a1a;stroke-width:1.05833;stroke-linecap:round;stroke-linejoin:round;paint-order:markers stroke fill"
       id="rect1"
       width="135.46666"
       height="135.46666"
       x="0"
       y="0"
       sodipodi:insensitive="true" />
    <ellipse
       style="display:inline;fill:url(#linearGradient7);stroke-width:1.05833;stroke-linecap:round;stroke-linejoin:round;paint-order:markers stroke fill"
       id="path1"
       cx="67.73333"
       cy="67.73333"
       rx="67.733322"
       ry="67.73333" />
    <ellipse
       style="display:inline;mix-blend-mode:multiply;fill:url(#radialGradient67);stroke-width:1.05833;stroke-linecap:round;stroke-linejoin:round;paint-order:markers stroke fill"
       id="ellipse66"
       cx="67.73333"
       cy="67.73333"
       rx="67.733322"
       ry="67.73333" />
    <circle
       style="display:inline;opacity:1;fill:url(#linearGradient5);stroke:none;stroke-width:7.40833;stroke-linecap:round;stroke-linejoin:round;stroke-dasharray:none;stroke-opacity:1;paint-order:markers stroke fill"
       id="path3"
       cx="67.73333"
       cy="67.73333"
       r="54.239582" />
    <ellipse
       style="display:inline;opacity:0.4;mix-blend-mode:normal;fill:url(#radialGradient66);stroke:none;stroke-width:1.05833;stroke-linecap:round;stroke-linejoin:round;stroke-opacity:1;paint-order:markers stroke fill"
       id="ellipse65"
       cx="67.73333"
       cy="67.73333"
       rx="67.733322"
       ry="67.73333"
       sodipodi:insensitive="true" />
    <path
       style="color:#000000;display:inline;fill:url(#linearGradient59);stroke-width:1;stroke-linecap:round;stroke-linejoin:round;-inkscape-stroke:none;paint-order:markers stroke fill;opacity:0.6"
       d="m 67.733326,6.6145803 c -33.695917,0 -61.1187407,27.4223897 -61.1187407,61.1177677 0,33.695372 27.4227637,61.119732 61.1187407,61.119732 33.695994,0 61.118754,-27.4243 61.118754,-61.119732 0,-33.695443 -27.42283,-61.1177677 -61.118754,-61.1177677 z m 0,3.1895724 c 31.967576,0 57.931094,25.9612003 57.931094,57.9281953 0,31.966988 -25.963583,57.930162 -57.931094,57.930162 -31.967506,0 -57.9310774,-25.963109 -57.9310774,-57.930162 0,-31.96706 25.9635114,-57.9281953 57.9310774,-57.9281953 z"
       id="path59"
       sodipodi:nodetypes="ssssssssss" />
    <path
       style="color:#000000;fill:url(#linearGradient62);stroke-width:1;stroke-linecap:round;stroke-linejoin:round;-inkscape-stroke:none;paint-order:markers stroke fill;opacity:0.6"
       d="m 67.733336,124.61875 c 31.397755,-8e-5 56.885334,-25.488098 56.885414,-56.886388 -7e-5,-31.39829 -25.487659,-56.884365 -56.885414,-56.884444 -31.397766,7.9e-5 -56.885342,25.486154 -56.885421,56.884444 7.9e-5,31.398309 25.487645,56.886318 56.885421,56.886388 z m 0,-3.15475 c -29.693278,-5e-5 -53.730647,-24.037855 -53.730726,-53.731638 6.9e-5,-29.693764 24.037458,-53.731563 53.730726,-53.731643 29.693258,8e-5 53.730644,24.037879 53.730714,53.731643 -7e-5,29.693763 -24.037456,53.731568 -53.730714,53.731638 z"
       id="path62"
       sodipodi:nodetypes="cccccccccc" />
    <path
       id="path64"
       style="color:#000000;fill:#1a1a1a;stroke-linecap:round;stroke-linejoin:round;-inkscape-stroke:none;paint-order:markers stroke fill"
       d="M 67.732299 6.8786498 C 34.182643 6.8786498 6.8786498 34.182642 6.8786498 67.732299 C 6.8786498 101.28195 34.182578 128.58802 67.732299 128.58802 C 101.28202 128.58802 128.58802 101.28201 128.58802 67.732299 C 128.58802 34.182577 101.28196 6.8786499 67.732299 6.8786498 z M 67.732299 13.642578 C 97.624004 13.642635 121.82194 37.840593 121.82202 67.732299 C 121.82194 97.623994 97.623993 121.82194 67.732299 121.82202 C 37.840606 121.82194 13.642651 97.623993 13.642578 67.732299 C 13.642652 37.840606 37.840606 13.642653 67.732299 13.642578 z " />
    <g
       id="g43"
       style="display:inline">
      <circle
         style="opacity:1;fill:#1a1a1a;stroke:url(#linearGradient11);stroke-width:0.529167;stroke-linecap:round;stroke-linejoin:round;stroke-dasharray:none;stroke-opacity:1;paint-order:markers stroke fill"
         id="path8"
         cx="24.79212"
         cy="58.387444"
         r="9.397543"
         inkscape:transform-center-y="-29.564382"
         transform="rotate(-30)"
         inkscape:transform-center-x="17.069003" />
      <rect
         style="opacity:1;fill:#1a1a1a;stroke:url(#linearGradient13);stroke-width:0.529167;stroke-linecap:round;stroke-linejoin:round;stroke-dasharray:none;stroke-opacity:1;paint-order:markers stroke fill"
         id="rect10"
         width="14.580531"
         height="28.872841"
         x="60.443066"
         y="82.516747"
         ry="5.6436095"
         rx="5.6436095" />
      <circle
         style="opacity:1;fill:#1a1a1a;stroke:url(#linearGradient15);stroke-width:0.529167;stroke-linecap:round;stroke-linejoin:round;stroke-dasharray:none;stroke-opacity:1;paint-order:markers stroke fill"
         id="circle14"
         cx="-67.73333"
         cy="33.595325"
         r="9.397543"
         transform="rotate(-90)"
         inkscape:transform-center-x="34.138006" />
      <circle
         style="opacity:1;fill:#1a1a1a;stroke:url(#linearGradient16);stroke-width:0.529167;stroke-linecap:round;stroke-linejoin:round;stroke-dasharray:none;stroke-opacity:1;paint-order:markers stroke fill"
         id="circle15"
         cx="92.525452"
         cy="-9.3458862"
         r="9.397543"
         inkscape:transform-center-y="-29.56438"
         transform="rotate(30)"
         inkscape:transform-center-x="-17.069006" />
      <circle
         style="opacity:1;fill:#1a1a1a;stroke:url(#linearGradient17);stroke-width:0.529167;stroke-linecap:round;stroke-linejoin:round;stroke-dasharray:none;stroke-opacity:1;paint-order:markers stroke fill"
         id="circle16"
         cx="67.73333"
         cy="-101.87134"
         r="9.397543"
         transform="rotate(90)"
         inkscape:transform-center-x="-34.13801" />
    </g>
    <path
       id="circle50"
       style="display:inline;opacity:0.6;fill:#000000;stroke:none;stroke-width:0.529167;stroke-linecap:round;stroke-linejoin:round;stroke-dasharray:none;stroke-opacity:1;paint-order:markers stroke fill;filter:url(#filter57)"
       inkscape:transform-center-x="17.069003"
       inkscape:transform-center-y="-29.564382"
       d="m 50.508554,30.35024 c -0.264346,0.0033 -0.525393,0.03212 -0.786516,0.06408 -0.374874,0.04273 -0.744049,0.112422 -1.104842,0.21239 -0.24515,0.06822 -0.478374,0.170171 -0.715718,0.261999 -0.157036,0.06135 -0.320747,0.105191 -0.473356,0.176734 -1.974666,0.911985 -3.58452,2.625755 -4.228166,4.731494 -0.703682,2.241864 -0.308908,4.949477 1.126029,6.917407 0.47212,0.674877 1.058377,1.250197 1.717208,1.723409 0.319739,0.239316 0.657883,0.451233 1.011825,0.629936 0.912688,0.486229 1.93627,0.742932 2.979146,0.818554 0.149223,0.01274 0.296768,0.03495 0.446484,0.03927 0.06678,0.0011 0.133154,-0.0072 0.199988,-0.0078 0.700819,0.0025 1.4027,-0.07212 2.081527,-0.262516 0.789194,-0.200156 1.520719,-0.545402 2.183846,-0.991154 0.09166,-0.05958 0.180285,-0.121764 0.269234,-0.185519 0.219829,-0.162166 0.433111,-0.332953 0.634587,-0.517797 0.05659,-0.05155 0.122288,-0.09114 0.17725,-0.144694 0.82107,-0.754794 1.423049,-1.703754 1.830379,-2.7311 0.07395,-0.186517 0.145839,-0.371658 0.205672,-0.563273 0.102163,-0.309166 0.183491,-0.623987 0.246497,-0.943095 0.003,-0.01604 0.0054,-0.032 0.0083,-0.04806 0.139615,-0.731469 0.170625,-1.481236 0.08217,-2.226737 -0.01223,-0.125347 -0.02828,-0.248697 -0.04651,-0.373104 -0.001,-0.0058 -0.001,-0.01174 -0.0021,-0.01757 -0.03587,-0.248979 -0.08856,-0.493513 -0.150379,-0.735356 -0.04198,-0.166778 -0.09016,-0.329812 -0.14366,-0.492993 -0.01469,-0.04406 -0.03409,-0.08596 -0.04961,-0.129708 -0.08944,-0.255972 -0.172382,-0.514632 -0.290938,-0.75861 -0.05543,-0.116325 -0.131474,-0.219877 -0.192753,-0.332796 -0.01257,-0.02298 -0.02647,-0.04485 -0.03927,-0.0677 -0.198585,-0.356866 -0.42383,-0.69402 -0.675928,-1.012858 -0.01953,-0.02487 -0.03961,-0.04874 -0.05943,-0.07338 -0.236293,-0.291477 -0.490338,-0.564396 -0.765328,-0.819071 -0.06523,-0.06135 -0.130706,-0.120675 -0.19792,-0.179834 -0.222656,-0.192822 -0.454339,-0.370583 -0.696599,-0.537952 -0.135766,-0.09551 -0.270491,-0.189093 -0.411861,-0.275952 -0.177374,-0.10717 -0.360707,-0.200291 -0.545703,-0.293522 -0.202899,-0.103678 -0.403705,-0.207176 -0.614949,-0.292489 -0.153979,-0.06186 -0.313236,-0.105554 -0.470773,-0.157613 -0.246489,-0.0811 -0.489253,-0.171203 -0.743624,-0.225826 -0.0062,-0.0014 -0.01243,-0.0023 -0.0186,-0.0036 -0.324049,-0.06869 -0.65318,-0.115907 -0.986503,-0.138493 -0.120438,-0.01015 -0.240166,-0.01648 -0.361218,-0.02067 -0.142737,-0.0069 -0.28561,-0.01624 -0.427881,-0.01447 z m 34.449576,0 c -0.142272,-0.0018 -0.285144,0.0076 -0.427881,0.01447 -0.121052,0.0042 -0.24078,0.01052 -0.361218,0.02067 -0.333323,0.02259 -0.662454,0.0698 -0.986503,0.138493 -0.0062,0.0014 -0.01243,0.0022 -0.0186,0.0036 -0.25437,0.05462 -0.497134,0.144724 -0.743623,0.225826 -0.157549,0.05206 -0.316783,0.09575 -0.470773,0.157613 -0.211654,0.08548 -0.412708,0.189092 -0.615983,0.293006 -0.184331,0.09294 -0.366874,0.18571 -0.543636,0.292488 -0.141597,0.08698 -0.276401,0.180813 -0.412378,0.276469 -0.242529,0.167555 -0.474752,0.345404 -0.697632,0.538469 -0.06619,0.05827 -0.130557,0.116854 -0.19482,0.17725 -0.277297,0.25661 -0.533559,0.531789 -0.771529,0.825789 -0.01763,0.02195 -0.03583,0.04298 -0.05323,0.06511 -0.253289,0.319967 -0.479152,0.658683 -0.678511,1.016992 -0.01273,0.02272 -0.02678,0.04433 -0.03927,0.06718 -0.06128,0.112919 -0.137322,0.216471 -0.192753,0.332796 -0.117665,0.242143 -0.19937,0.498957 -0.288355,0.752926 -0.01678,0.04719 -0.03741,0.09249 -0.05323,0.140043 -0.05246,0.160357 -0.100255,0.32038 -0.141593,0.484208 -0.06231,0.243175 -0.115342,0.489093 -0.151412,0.73949 -0.0011,0.0062 -9.92e-4,0.01243 -0.0021,0.0186 -0.01816,0.12407 -0.03431,0.247067 -0.04651,0.372071 -0.08846,0.745501 -0.05745,1.495268 0.08217,2.226737 0.0029,0.01606 0.0053,0.03201 0.0083,0.04806 0.06301,0.319108 0.144334,0.633929 0.246497,0.943095 0.05983,0.191596 0.131729,0.376775 0.205672,0.563273 0.40733,1.027369 1.009293,1.976292 1.830379,2.7311 0.05593,0.0545 0.122731,0.09485 0.180351,0.147277 0.199832,0.183165 0.41103,0.352791 0.628902,0.513664 0.09004,0.0646 0.180025,0.127271 0.272851,0.187586 0.662916,0.445483 1.39394,0.790563 2.182813,0.990637 0.678827,0.190391 1.380708,0.265043 2.081527,0.262516 0.06683,5.03e-4 0.133206,0.0089 0.199987,0.0078 0.149717,-0.0043 0.297262,-0.02654 0.446485,-0.03927 1.042876,-0.07562 2.066458,-0.332325 2.979146,-0.818554 0.353942,-0.178703 0.692085,-0.39062 1.011825,-0.629936 0.658831,-0.473212 1.245088,-1.048532 1.717207,-1.723409 1.434938,-1.96793 1.829712,-4.675543 1.12603,-6.917407 -0.643646,-2.105739 -2.2535,-3.819509 -4.228166,-4.731494 -0.155972,-0.07312 -0.323102,-0.117885 -0.483691,-0.180351 -0.233587,-0.09 -0.462705,-0.191234 -0.703833,-0.258382 -0.361095,-0.100104 -0.731189,-0.169618 -1.106393,-0.21239 -0.261122,-0.03196 -0.522169,-0.06078 -0.786515,-0.06408 z M 33.851689,59.911743 c -0.217889,-0.0067 -0.436248,-0.0039 -0.654223,0.0093 -3.44e-4,1.6e-5 -6.9e-4,-1.7e-5 -10e-4,0 -0.384938,0.01897 -0.766255,0.0763 -1.143599,0.153995 -0.0593,0.01242 -0.117784,0.02542 -0.176734,0.03927 -1.468805,0.338528 -2.843751,1.095666 -3.894852,2.174545 -1.310544,1.261006 -2.014328,2.985271 -2.145089,4.761466 -0.0099,0.122405 -0.01274,0.244823 -0.01654,0.36742 -0.0029,0.10071 -0.0085,0.200998 -0.0078,0.30179 0.0011,0.117004 0.009,0.233578 0.0155,0.350366 0.09233,1.844147 0.790967,3.661239 2.087211,4.995561 0.319085,0.345281 0.675173,0.648866 1.051099,0.923974 0.03574,0.02675 0.06968,0.05555 0.105937,0.08165 0.08233,0.058 0.167609,0.110763 0.252181,0.165365 0.147575,0.09716 0.298106,0.189721 0.453202,0.275952 0.04806,0.02645 0.09658,0.05159 0.145211,0.077 0.09334,0.04907 0.183702,0.102847 0.279569,0.147794 0.07227,0.03485 0.149454,0.05697 0.222726,0.0894 0.115855,0.05029 0.233066,0.0964 0.351399,0.141076 0.184076,0.07053 0.367802,0.138901 0.556555,0.19482 0.01774,0.0052 0.03596,0.0089 0.05374,0.01395 0.48891,0.140995 0.989508,0.233134 1.496549,0.276986 0.02601,0.0023 0.05147,0.0077 0.07751,0.0098 0.18916,0.0145 0.378088,0.01546 0.567924,0.01654 0.08373,7.77e-4 0.166713,0.0091 0.250631,0.0072 0.05561,-6.69e-4 0.109547,-0.0085 0.164848,-0.01033 0.111276,-0.0051 0.221775,-0.01045 0.332796,-0.02015 0.864653,-0.06483 1.701662,-0.265106 2.562117,-0.645955 0.528581,-0.233904 1.016149,-0.53724 1.467094,-0.885734 1.511678,-1.135118 2.661632,-2.941819 2.954342,-4.862752 0.02459,-0.124291 0.02704,-0.250599 0.04496,-0.375688 0.01249,-0.09143 0.02332,-0.182592 0.03256,-0.274402 0.0347,-0.332387 0.04656,-0.663809 0.03617,-0.996838 -0.002,-0.06327 -0.0021,-0.126415 -0.0057,-0.189653 -0.130248,-2.310734 -1.300856,-4.552345 -3.242179,-5.860624 -0.164661,-0.116792 -0.348098,-0.204522 -0.521415,-0.308508 -0.035,-0.02141 -0.0701,-0.04166 -0.10542,-0.06253 -0.294518,-0.170597 -0.5954,-0.322922 -0.909505,-0.454752 -0.123394,-0.05302 -0.248155,-0.09864 -0.374138,-0.145211 -0.248585,-0.0899 -0.497226,-0.170131 -0.753442,-0.234611 -0.178364,-0.04559 -0.357856,-0.07939 -0.539502,-0.111621 -0.355233,-0.0629 -0.71011,-0.124855 -1.070736,-0.135909 z m 67.763301,0 c -0.36079,0.01106 -0.71585,0.07295 -1.07125,0.135909 -0.18099,0.03214 -0.3597,0.06621 -0.53743,0.111621 -0.256723,0.06455 -0.505933,0.144537 -0.754996,0.234611 -0.125953,0.04656 -0.250771,0.0922 -0.374137,0.145211 -0.313674,0.131649 -0.61381,0.283924 -0.907955,0.454236 -0.03632,0.02145 -0.07254,0.04206 -0.10852,0.06408 -0.172689,0.103671 -0.355259,0.191087 -0.519349,0.307475 -1.940602,1.307793 -3.11171,3.548217 -3.242696,5.85804 -0.0039,0.06754 -0.0037,0.135001 -0.0057,0.202572 -0.0097,0.32682 0.0015,0.652038 0.03514,0.978235 0.0095,0.09512 0.02115,0.189512 0.03411,0.28422 0.01787,0.124564 0.01995,0.250366 0.04444,0.374138 0.292738,1.92112 1.442962,3.728173 2.954858,4.863269 0.450828,0.348349 0.938682,0.651388 1.467094,0.885217 0.860115,0.380698 1.696801,0.58104 2.561091,0.645955 0.11136,0.0097 0.22221,0.01504 0.33383,0.02015 0.0553,0.0018 0.10924,0.0097 0.16485,0.01033 0.0839,0.0018 0.1669,-0.0065 0.25063,-0.0072 0.18966,-0.0011 0.37841,-0.0021 0.5674,-0.01654 0.0278,-0.0022 0.0549,-0.0078 0.0827,-0.01033 0.50728,-0.04421 1.00851,-0.136563 1.49758,-0.278019 0.0154,-0.0044 0.0312,-0.0074 0.0465,-0.01189 0.19051,-0.0564 0.37598,-0.125604 0.56172,-0.196887 0.11585,-0.04381 0.23069,-0.08878 0.34417,-0.137976 0.0745,-0.03293 0.15288,-0.05553 0.22634,-0.09095 0.0973,-0.04564 0.18896,-0.10049 0.2837,-0.150378 0.0459,-0.02405 0.092,-0.04737 0.13746,-0.07235 0.15752,-0.08746 0.31015,-0.181359 0.45992,-0.280086 0.0834,-0.0539 0.16738,-0.1061 0.24856,-0.163298 0.0363,-0.0261 0.0702,-0.0549 0.10594,-0.08165 0.37593,-0.275108 0.73202,-0.578693 1.0511,-0.923974 1.29624,-1.334322 1.99489,-3.151414 2.08721,-4.995561 0.006,-0.116788 0.0144,-0.233362 0.0155,-0.350366 7.9e-4,-0.100792 -0.005,-0.20108 -0.008,-0.30179 -0.004,-0.122597 -0.007,-0.245015 -0.0165,-0.36742 -0.13076,-1.776195 -0.83455,-3.50046 -2.14509,-4.761466 -1.0511,-1.078879 -2.42605,-1.836017 -3.89486,-2.174545 -0.0589,-0.01385 -0.11742,-0.02685 -0.17673,-0.03927 -0.3775,-0.07772 -0.75849,-0.135042 -1.1436,-0.153995 -3.4e-4,-1.7e-5 -6.9e-4,1.6e-5 -0.001,0 -0.21798,-0.01319 -0.43634,-0.01598 -0.65423,-0.0093 z M 65.810462,84.079776 c -0.313611,0.02666 -0.619877,0.103433 -0.919324,0.202572 -0.456606,0.131283 -0.891478,0.335014 -1.28726,0.664042 -0.383372,0.270984 -0.677601,0.606885 -0.908471,0.980302 -0.301675,0.446126 -0.517913,0.948328 -0.600481,1.491899 -0.0018,0.06905 -0.0014,0.138169 -0.0031,0.207222 -0.09815,0.608921 -0.108155,1.238955 -0.06511,1.835545 0.008,0.70081 -7.21e-4,1.40224 0.0021,2.10323 -0.033,4.17798 0.01964,8.35821 -0.0031,12.536192 -0.06139,0.75048 -0.05979,1.54958 0.08372,2.30735 4.08e-4,0.0151 1.04e-4,0.0303 5.17e-4,0.0455 0.0031,0.0207 0.01252,0.0389 0.01602,0.0594 0.0438,0.21003 0.09764,0.41673 0.166915,0.61754 2.52e-4,7.3e-4 7.82e-4,10e-4 0.001,0.002 0.03077,0.0843 0.06767,0.16412 0.104386,0.24547 0.197262,0.4752 0.470633,0.91659 0.867131,1.28726 0.470343,0.47286 1.024309,0.74199 1.615922,0.90589 0.592501,0.20388 1.221782,0.28914 1.845882,0.21135 0.339661,0.004 0.670303,0.0169 1.00614,0.009 0.335897,0.008 0.666416,-0.005 1.00614,-0.009 0.624923,0.078 1.254755,-0.008 1.847949,-0.21239 0.590777,-0.16398 1.144094,-0.43257 1.613855,-0.90485 0.396497,-0.37067 0.669869,-0.81206 0.867131,-1.28726 0.0368,-0.0815 0.07408,-0.16152 0.104903,-0.24598 1.85e-4,-5.1e-4 3.32e-4,-10e-4 5.17e-4,-0.002 0.06883,-0.19951 0.122728,-0.40478 0.166398,-0.6134 0.0038,-0.022 0.01369,-0.0415 0.01705,-0.0636 4.36e-4,-0.016 6.02e-4,-0.032 0.001,-0.0481 0.142995,-0.75699 0.143996,-1.55516 0.08268,-2.30477 -0.0228,-4.187972 0.03039,-8.378202 -0.0031,-12.566162 0.0028,-0.69101 -0.0058,-1.38244 0.0021,-2.07326 0.04303,-0.59642 0.03297,-1.226264 -0.06511,-1.835028 -0.0017,-0.06923 -0.0013,-0.138516 -0.0031,-0.207739 -0.08257,-0.543559 -0.2983,-1.045781 -0.599963,-1.491899 -0.230873,-0.373429 -0.525089,-0.709311 -0.908472,-0.980302 -0.395799,-0.329042 -0.831148,-0.53276 -1.287776,-0.664042 -0.397187,-0.131498 -0.809222,-0.19605 -1.227316,-0.197404 -0.533602,-0.03028 -1.076315,-0.01519 -1.614888,0 -0.538573,-0.01519 -1.080769,-0.03028 -1.614372,0 -0.102954,3.28e-4 -0.206077,-0.01387 -0.308508,-0.0052 z" />
    <g
       id="g42"
       transform="translate(217.14345,21.759491)"
       style="display:inline">
      <circle
         style="opacity:1;fill:url(#radialGradient35);stroke:none;stroke-width:0.529167;stroke-linecap:round;stroke-linejoin:round;stroke-dasharray:none;stroke-opacity:1;paint-order:markers stroke fill"
         id="circle17"
         cx="-152.37988"
         cy="-69.028557"
         r="9.397543"
         inkscape:transform-center-y="-29.564382"
         transform="rotate(-30)"
         inkscape:transform-center-x="17.069003" />
      <rect
         style="opacity:1;fill:url(#radialGradient34);stroke:none;stroke-width:0.529167;stroke-linecap:round;stroke-linejoin:round;stroke-dasharray:none;stroke-opacity:1;paint-order:markers stroke fill"
         id="rect17"
         width="14.580531"
         height="28.872841"
         x="-156.70039"
         y="60.757256"
         ry="5.6436095"
         rx="5.6436095" />
      <circle
         style="opacity:1;fill:url(#radialGradient33);stroke:none;stroke-width:0.529167;stroke-linecap:round;stroke-linejoin:round;stroke-dasharray:none;stroke-opacity:1;paint-order:markers stroke fill"
         id="circle18"
         cx="-45.973839"
         cy="-183.54813"
         r="9.397543"
         transform="rotate(-90)"
         inkscape:transform-center-x="34.138006" />
      <circle
         style="opacity:1;fill:url(#radialGradient32);stroke:none;stroke-width:0.529167;stroke-linecap:round;stroke-linejoin:round;stroke-dasharray:none;stroke-opacity:1;paint-order:markers stroke fill"
         id="circle19"
         cx="-106.40604"
         cy="80.381569"
         r="9.397543"
         inkscape:transform-center-y="-29.56438"
         transform="rotate(30)"
         inkscape:transform-center-x="-17.069006" />
      <circle
         style="opacity:1;fill:url(#radialGradient31);stroke:none;stroke-width:0.529167;stroke-linecap:round;stroke-linejoin:round;stroke-dasharray:none;stroke-opacity:1;paint-order:markers stroke fill"
         id="circle20"
         cx="45.973839"
         cy="115.27212"
         r="9.397543"
         transform="rotate(90)"
         inkscape:transform-center-x="-34.13801" />
    </g>
    <path
       id="path63"
       style="color:#000000;display:inline;fill:#000000;stroke:none;stroke-width:3.175;stroke-linecap:round;stroke-linejoin:round;stroke-dasharray:none;stroke-opacity:1;paint-order:markers stroke fill;filter:url(#filter65)"
       d="M 67.732323,8.4666665 C 35.043026,8.4666665 8.4666662,35.043031 8.4666662,67.732332 8.4666662,100.42163 35.043026,127 67.732323,127 100.42163,127 127,100.42163 127,67.732332 127,35.043031 100.42163,8.4666665 67.732323,8.4666665 Z m 9.2e-4,3.5893535 A 55.677449,55.67745 0 0 1 123.41059,67.733333 55.677449,55.67745 0 0 1 67.733273,123.41065 55.677449,55.67745 0 0 1 12.055966,67.733333 55.677449,55.67745 0 0 1 67.733273,12.05602 Z" />
  </g>
  <metadata
     id="metadata1">
    <rdf:RDF>
      <cc:Work
         rdf:about="">
        <dc:creator>
          <cc:Agent>
            <dc:title>Jess Tipton</dc:title>
          </cc:Agent>
        </dc:creator>
        <dc:publisher>
          <cc:Agent>
            <dc:title>m0dw3rks.com</dc:title>
          </cc:Agent>
        </dc:publisher>
        <cc:license
           rdf:resource="https://creativecommons.org/licenses/by-nc-nd/4.0/deed.en" />
      </cc:Work>
    </rdf:RDF>
  </metadata>
  <metadata
     id="metadata6">
    <rdf:RDF>
      <cc:Work
         rdf:about="">
        <dc:creator>
          <cc:Agent>
            <dc:title>Jess Tipton</dc:title>
          </cc:Agent>
        </dc:creator>
        <cc:license
           rdf:resource="https://creativecommons.org/licenses/by-nc-nd/4.0/deed.en" />
        <dc:publisher>
          <cc:Agent>
            <dc:title>m0dw3rks.com</dc:title>
          </cc:Agent>
        </dc:publisher>
      </cc:Work>
    </rdf:RDF>
  </metadata>
  <metadata
     id="metadata6">
    <rdf:RDF>
      <cc:Work
         rdf:about="">
        <dc:creator>
          <cc:Agent>
            <dc:title>Jess Tipton</dc:title>
          </cc:Agent>
        </dc:creator>
        <cc:license
           rdf:resource="https://creativecommons.org/licenses/by-nc-nd/4.0/deed.en" />
        <dc:publisher>
          <cc:Agent>
            <dc:title>m0dw3rks.com</dc:title>
          </cc:Agent>
        </dc:publisher>
      </cc:Work>
    </rdf:RDF>
  </metadata>
  <metadata
     id="metadata6">
    <rdf:RDF>
      <cc:Work
         rdf:about="">
        <dc:creator>
          <cc:Agent>
            <dc:title>Jess Tipton</dc:title>
          </cc:Agent>
        </dc:creator>
        <cc:license
           rdf:resource="https://creativecommons.org/licenses/by-nc-nd/4.0/deed.en" />
        <dc:publisher>
          <cc:Agent>
            <dc:title>m0dw3rks.com</dc:title>
          </cc:Agent>
        </dc:publisher>
      </cc:Work>
    </rdf:RDF>
  </metadata>
  <metadata
     id="metadata6">
    <rdf:RDF>
      <cc:Work
         rdf:about="">
        <dc:creator>
          <cc:Agent>
            <dc:title>Jess Tipton</dc:title>
          </cc:Agent>
        </dc:creator>
        <cc:license
           rdf:resource="https://creativecommons.org/licenses/by-nc-nd/4.0/deed.en" />
        <dc:publisher>
          <cc:Agent>
            <dc:title>m0dw3rks.com</dc:title>
          </cc:Agent>
        </dc:publisher>
      </cc:Work>
    </rdf:RDF>
  </metadata>
  <metadata
     id="metadata6">
    <rdf:RDF>
      <cc:Work
         rdf:about="">
        <dc:creator>
          <cc:Agent>
            <dc:title>Jess Tipton</dc:title>
          </cc:Agent>
        </dc:creator>
        <cc:license
           rdf:resource="https://creativecommons.org/licenses/by-nc-nd/4.0/deed.en" />
        <dc:publisher>
          <cc:Agent>
            <dc:title>m0dw3rks.com</dc:title>
          </cc:Agent>
        </dc:publisher>
      </cc:Work>
    </rdf:RDF>
  </metadata>
  <metadata
     id="metadata6">
    <rdf:RDF>
      <cc:Work
         rdf:about="">
        <dc:creator>
          <cc:Agent>
            <dc:title>Jess Tipton</dc:title>
          </cc:Agent>
        </dc:creator>
        <cc:license
           rdf:resource="https://creativecommons.org/licenses/by-nc-nd/4.0/deed.en" />
        <dc:publisher>
          <cc:Agent>
            <dc:title>m0dw3rks.com</dc:title>
          </cc:Agent>
        </dc:publisher>
      </cc:Work>
    </rdf:RDF>
  </metadata>
  <metadata
     id="metadata6">
    <rdf:RDF>
      <cc:Work
         rdf:about="">
        <dc:creator>
          <cc:Agent>
            <dc:title>Jess Tipton</dc:title>
          </cc:Agent>
        </dc:creator>
        <cc:license
           rdf:resource="https://creativecommons.org/licenses/by-nc-nd/4.0/deed.en" />
        <dc:publisher>
          <cc:Agent>
            <dc:title>m0dw3rks.com</dc:title>
          </cc:Agent>
        </dc:publisher>
      </cc:Work>
    </rdf:RDF>
  </metadata>
  <metadata
     id="metadata6">
    <rdf:RDF>
      <cc:Work
         rdf:about="">
        <dc:creator>
          <cc:Agent>
            <dc:title>Jess Tipton</dc:title>
          </cc:Agent>
        </dc:creator>
        <cc:license
           rdf:resource="https://creativecommons.org/licenses/by-nc-nd/4.0/deed.en" />
        <dc:publisher>
          <cc:Agent>
            <dc:title>m0dw3rks.com</dc:title>
          </cc:Agent>
        </dc:publisher>
      </cc:Work>
    </rdf:RDF>
  </metadata>
  <metadata
     id="metadata6">
    <rdf:RDF>
      <cc:Work
         rdf:about="">
        <dc:creator>
          <cc:Agent>
            <dc:title>Jess Tipton</dc:title>
          </cc:Agent>
        </dc:creator>
        <cc:license
           rdf:resource="https://creativecommons.org/licenses/by-nc-nd/4.0/deed.en" />
        <dc:publisher>
          <cc:Agent>
            <dc:title>m0dw3rks.com</dc:title>
          </cc:Agent>
        </dc:publisher>
      </cc:Work>
    </rdf:RDF>
  </metadata>
  <metadata
     id="metadata6">
    <rdf:RDF>
      <cc:Work
         rdf:about="">
        <dc:creator>
          <cc:Agent>
            <dc:title>Jess Tipton</dc:title>
          </cc:Agent>
        </dc:creator>
        <cc:license
           rdf:resource="https://creativecommons.org/licenses/by-nc-nd/4.0/deed.en" />
        <dc:publisher>
          <cc:Agent>
            <dc:title>m0dw3rks.com</dc:title>
          </cc:Agent>
        </dc:publisher>
      </cc:Work>
    </rdf:RDF>
  </metadata>
  <metadata
     id="metadata6">
    <rdf:RDF>
      <cc:Work
         rdf:about="">
        <dc:creator>
          <cc:Agent>
            <dc:title>Jess Tipton</dc:title>
          </cc:Agent>
        </dc:creator>
        <cc:license
           rdf:resource="https://creativecommons.org/licenses/by-nc-nd/4.0/deed.en" />
        <dc:publisher>
          <cc:Agent>
            <dc:title>m0dw3rks.com</dc:title>
          </cc:Agent>
        </dc:publisher>
      </cc:Work>
    </rdf:RDF>
  </metadata>
  <metadata
     id="metadata6">
    <rdf:RDF>
      <cc:Work
         rdf:about="">
        <dc:creator>
          <cc:Agent>
            <dc:title>Jess Tipton</dc:title>
          </cc:Agent>
        </dc:creator>
        <cc:license
           rdf:resource="https://creativecommons.org/licenses/by-nc-nd/4.0/deed.en" />
        <dc:publisher>
          <cc:Agent>
            <dc:title>m0dw3rks.com</dc:title>
          </cc:Agent>
        </dc:publisher>
      </cc:Work>
    </rdf:RDF>
  </metadata>
  <metadata
     id="metadata6">
    <rdf:RDF>
      <cc:Work
         rdf:about="">
        <dc:creator>
          <cc:Agent>
            <dc:title>Jess Tipton</dc:title>
          </cc:Agent>
        </dc:creator>
        <cc:license
           rdf:resource="https://creativecommons.org/licenses/by-nc-nd/4.0/deed.en" />
        <dc:publisher>
          <cc:Agent>
            <dc:title>m0dw3rks.com</dc:title>
          </cc:Agent>
        </dc:publisher>
      </cc:Work>
    </rdf:RDF>
  </metadata>
  <metadata
     id="metadata6">
    <rdf:RDF>
      <cc:Work
         rdf:about="">
        <dc:creator>
          <cc:Agent>
            <dc:title>Jess Tipton</dc:title>
          </cc:Agent>
        </dc:creator>
        <cc:license
           rdf:resource="https://creativecommons.org/licenses/by-nc-nd/4.0/deed.en" />
        <dc:publisher>
          <cc:Agent>
            <dc:title>m0dw3rks.com</dc:title>
          </cc:Agent>
        </dc:publisher>
      </cc:Work>
    </rdf:RDF>
  </metadata>
  <metadata
     id="metadata6">
    <rdf:RDF>
      <cc:Work
         rdf:about="">
        <dc:creator>
          <cc:Agent>
            <dc:title>Jess Tipton</dc:title>
          </cc:Agent>
        </dc:creator>
        <cc:license
           rdf:resource="https://creativecommons.org/licenses/by-nc-nd/4.0/deed.en" />
        <dc:publisher>
          <cc:Agent>
            <dc:title>m0dw3rks.com</dc:title>
          </cc:Agent>
        </dc:publisher>
      </cc:Work>
    </rdf:RDF>
  </metadata>
  <metadata
     id="metadata6">
    <rdf:RDF>
      <cc:Work
         rdf:about="">
        <dc:creator>
          <cc:Agent>
            <dc:title>Jess Tipton</dc:title>
          </cc:Agent>
        </dc:creator>
        <cc:license
           rdf:resource="https://creativecommons.org/licenses/by-nc-nd/4.0/deed.en" />
        <dc:publisher>
          <cc:Agent>
            <dc:title>m0dw3rks.com</dc:title>
          </cc:Agent>
        </dc:publisher>
      </cc:Work>
    </rdf:RDF>
  </metadata>
  <metadata
     id="metadata6">
    <rdf:RDF>
      <cc:Work
         rdf:about="">
        <dc:creator>
          <cc:Agent>
            <dc:title>Jess Tipton</dc:title>
          </cc:Agent>
        </dc:creator>
        <cc:license
           rdf:resource="https://creativecommons.org/licenses/by-nc-nd/4.0/deed.en" />
        <dc:publisher>
          <cc:Agent>
            <dc:title>m0dw3rks.com</dc:title>
          </cc:Agent>
        </dc:publisher>
      </cc:Work>
    </rdf:RDF>
  </metadata>
</svg>
