<?xml version="1.0" encoding="UTF-8" standalone="no"?>
<!-- Created with Inkscape (http://www.inkscape.org/) -->

<svg
   width="512"
   height="512"
   viewBox="0 0 135.46666 135.46667"
   version="1.1"
   id="svg5"
   inkscape:version="1.4.2 (ebf0e940d0, 2025-05-08)"
   xml:space="preserve"
   sodipodi:docname="text-x-lyx.svg"
   xmlns:inkscape="http://www.inkscape.org/namespaces/inkscape"
   xmlns:sodipodi="http://sodipodi.sourceforge.net/DTD/sodipodi-0.dtd"
   xmlns:xlink="http://www.w3.org/1999/xlink"
   xmlns="http://www.w3.org/2000/svg"
   xmlns:svg="http://www.w3.org/2000/svg"><sodipodi:namedview
     id="namedview7"
     pagecolor="#242424"
     bordercolor="#666666"
     borderopacity="1"
     inkscape:showpageshadow="0"
     inkscape:pageopacity="0"
     inkscape:pagecheckerboard="1"
     inkscape:deskcolor="#000000"
     inkscape:document-units="px"
     showgrid="false"
     inkscape:zoom="1.84375"
     inkscape:cx="316.47458"
     inkscape:cy="182.77966"
     inkscape:window-width="3256"
     inkscape:window-height="1080"
     inkscape:window-x="1864"
     inkscape:window-y="0"
     inkscape:window-maximized="0"
     inkscape:current-layer="layer1" /><defs
     id="defs2"><linearGradient
       id="linearGradient1806"><stop
         style="stop-color:#000000;stop-opacity:0.40677965;"
         offset="0.0000000"
         id="stop1807" /><stop
         style="stop-color:#000000;stop-opacity:0.073446326;"
         offset="0.64777780"
         id="stop3276" /><stop
         style="stop-color:#000000;stop-opacity:0.0000000;"
         offset="1.0000000"
         id="stop1808" /></linearGradient><linearGradient
       id="linearGradient1518"><stop
         style="stop-color:#ffffff;stop-opacity:0.74226803;"
         offset="0.0000000"
         id="stop1519" /><stop
         style="stop-color:#ffffff;stop-opacity:0.0000000;"
         offset="1.0000000"
         id="stop1520" /></linearGradient><linearGradient
       id="linearGradient1512"><stop
         style="stop-color:#000000;stop-opacity:0.54639173;"
         offset="0.0000000"
         id="stop1513" /><stop
         style="stop-color:#000000;stop-opacity:0.0000000;"
         offset="1.0000000"
         id="stop1514" /></linearGradient><pattern
       width="130.00000"
       height="96.000000"
       id="pattern903"><image
         xlink:href="file:///tmp/lyx_files/lux.png"
         width="130.00000"
         height="96.000000"
         id="image904" /></pattern><linearGradient
       xlink:href="#linearGradient1512"
       id="linearGradient1515"
       x1="32.921471"
       y1="69.99723"
       x2="49.624015"
       y2="77.80533"
       gradientTransform="matrix(0.66752474,0,0,0.21443799,73.228086,39.756119)"
       gradientUnits="userSpaceOnUse" /><linearGradient
       xlink:href="#linearGradient1518"
       id="linearGradient1517"
       x1="46.503232"
       y1="26.114084"
       x2="46.767103"
       y2="52.293003"
       gradientTransform="matrix(0.41141638,0,0,0.34792649,73.228086,39.756119)"
       gradientUnits="userSpaceOnUse" /><linearGradient
       xlink:href="#linearGradient1512"
       id="linearGradient1522"
       x1="39.077764"
       y1="45.472822"
       x2="38.935727"
       y2="34.736868"
       gradientUnits="userSpaceOnUse"
       gradientTransform="matrix(0.34882719,0,0,0.34882719,74.4674,41.283902)" /><radialGradient
       xlink:href="#linearGradient1518"
       id="radialGradient1524"
       cx="42.243992"
       cy="36.216045"
       fx="42.243992"
       fy="36.216045"
       r="6.1075649"
       gradientUnits="userSpaceOnUse"
       gradientTransform="matrix(0.29090778,0,0,0.29090778,76.308783,42.154143)" /><radialGradient
       xlink:href="#linearGradient1518"
       id="radialGradient1525"
       cx="42.243992"
       cy="36.216045"
       fx="42.243992"
       fy="36.216045"
       r="6.1075649"
       gradientUnits="userSpaceOnUse"
       gradientTransform="matrix(0.29090778,0,0,0.29090778,83.405729,40.128229)" /><linearGradient
       xlink:href="#linearGradient1518"
       id="linearGradient1527"
       x1="50.072014"
       y1="13.720966"
       x2="26.487234"
       y2="13.768328"
       gradientTransform="scale(0.8380055,1.1933096)"
       gradientUnits="userSpaceOnUse" /><linearGradient
       xlink:href="#linearGradient1518"
       id="linearGradient1529"
       x1="61.980094"
       y1="88.52422"
       x2="51.749805"
       y2="51.554661"
       gradientTransform="matrix(0.41141638,0,0,0.34792649,73.228086,39.756119)"
       gradientUnits="userSpaceOnUse" /><linearGradient
       xlink:href="#linearGradient1518"
       id="linearGradient1531"
       x1="58.108066"
       y1="60.616996"
       x2="42.782681"
       y2="60.616996"
       gradientTransform="matrix(0.61162036,0,0,0.23403841,73.228086,39.756119)"
       gradientUnits="userSpaceOnUse" /><linearGradient
       xlink:href="#linearGradient1518"
       id="linearGradient1533"
       x1="51.998036"
       y1="87.44861"
       x2="44.157573"
       y2="78.630961"
       gradientTransform="matrix(0.52764622,0,0,0.2712853,73.228086,39.756119)"
       gradientUnits="userSpaceOnUse" /><linearGradient
       xlink:href="#linearGradient1518"
       id="linearGradient1535"
       x1="9.9581958"
       y1="96.715331"
       x2="22.288983"
       y2="86.950267"
       gradientTransform="matrix(0.57398925,0,0,0.24938213,73.228086,39.756119)"
       gradientUnits="userSpaceOnUse" /><linearGradient
       xlink:href="#linearGradient1512"
       id="linearGradient1537"
       x1="50.659911"
       y1="88.177996"
       x2="53.563345"
       y2="65.57518"
       gradientTransform="matrix(0.37562486,0,0,0.38107876,73.228086,39.756119)"
       gradientUnits="userSpaceOnUse" /><linearGradient
       xlink:href="#linearGradient1512"
       id="linearGradient1539"
       x1="13.065491"
       y1="85.119429"
       x2="26.982304"
       y2="67.896692"
       gradientTransform="matrix(0.39141582,0,0,0.36570485,73.228086,39.756119)"
       gradientUnits="userSpaceOnUse" /><linearGradient
       xlink:href="#linearGradient1518"
       id="linearGradient1659"
       x1="36.185605"
       y1="131.57237"
       x2="34.98345"
       y2="109.63145"
       gradientTransform="matrix(0.26618763,0,0,0.2629887,71.531406,36.826562)"
       gradientUnits="userSpaceOnUse" /><radialGradient
       xlink:href="#linearGradient1806"
       id="radialGradient1977"
       cx="41.875938"
       cy="37.865574"
       r="12.562782"
       fx="41.875938"
       fy="37.865574"
       gradientUnits="userSpaceOnUse"
       gradientTransform="matrix(1.7879356,0,0,0.88844516,19.513053,30.282993)" /><linearGradient
       xlink:href="#linearGradient1518"
       id="linearGradient1734"
       x1="84.67462"
       y1="134.88581"
       x2="79.578964"
       y2="116.69227"
       gradientTransform="matrix(0.29373576,0,0,0.23832419,71.531406,36.826562)"
       gradientUnits="userSpaceOnUse" /><linearGradient
       inkscape:collect="always"
       id="linearGradient54490"><stop
         style="stop-color:#000000;stop-opacity:0;"
         offset="0"
         id="stop54488" /><stop
         style="stop-color:#000000;stop-opacity:1;"
         offset="1"
         id="stop54486" /></linearGradient><linearGradient
       inkscape:collect="always"
       id="linearGradient37404"><stop
         style="stop-color:#000000;stop-opacity:1;"
         offset="0"
         id="stop37400" /><stop
         style="stop-color:#000000;stop-opacity:0;"
         offset="1"
         id="stop37402" /></linearGradient><linearGradient
       inkscape:collect="always"
       id="linearGradient1645"><stop
         style="stop-color:#ffffff;stop-opacity:1;"
         offset="0"
         id="stop1641" /><stop
         style="stop-color:#e4e4e4;stop-opacity:1;"
         offset="1"
         id="stop1643" /></linearGradient><linearGradient
       inkscape:collect="always"
       xlink:href="#linearGradient1645"
       id="linearGradient1647"
       x1="72.237862"
       y1="0"
       x2="72.237862"
       y2="135.46666"
       gradientUnits="userSpaceOnUse"
       gradientTransform="translate(-116.17174,-23.950238)" /><linearGradient
       inkscape:collect="always"
       xlink:href="#linearGradient37404"
       id="linearGradient37406"
       x1="-11.441011"
       y1="58.719894"
       x2="-4.8819146"
       y2="61.333099"
       gradientUnits="userSpaceOnUse"
       gradientTransform="translate(9.8771,-2.669967)" /><filter
       inkscape:collect="always"
       style="color-interpolation-filters:sRGB"
       id="filter38138"
       x="-0.03930807"
       y="-0.016419649"
       width="1.0786161"
       height="1.0328393"><feGaussianBlur
         inkscape:collect="always"
         stdDeviation="0.59340391"
         id="feGaussianBlur38140" /></filter><filter
       inkscape:collect="always"
       style="color-interpolation-filters:sRGB"
       id="filter44679"
       x="-0.036776951"
       y="-0.028194829"
       width="1.0735544"
       height="1.0563905"><feGaussianBlur
         inkscape:collect="always"
         stdDeviation="1.413525"
         id="feGaussianBlur44681" /></filter><filter
       inkscape:collect="always"
       style="color-interpolation-filters:sRGB"
       id="filter53756"
       x="-0.0034881006"
       y="-0.0026740535"
       width="1.0069762"
       height="1.0053481"><feGaussianBlur
         inkscape:collect="always"
         stdDeviation="0.095727335"
         id="feGaussianBlur53758" /></filter><linearGradient
       inkscape:collect="always"
       xlink:href="#linearGradient54490"
       id="linearGradient54492"
       x1="15.445251"
       y1="67.733328"
       x2="120.02142"
       y2="67.733328"
       gradientUnits="userSpaceOnUse"
       gradientTransform="translate(-111.57873,-23.950238)" /><filter
       inkscape:collect="always"
       style="color-interpolation-filters:sRGB"
       id="filter10"
       x="-0.05454454"
       y="-0.094325866"
       width="1.1090891"
       height="1.1886517"><feGaussianBlur
         inkscape:collect="always"
         stdDeviation="1.9316328"
         id="feGaussianBlur10" /></filter></defs><g
     inkscape:label="Layer 1"
     inkscape:groupmode="layer"
     id="layer1"><g
       id="g6"
       sodipodi:insensitive="true"
       style="display:none"><path
         style="font-size:64.5918px;line-height:0%;font-family:'Arial Black';-inkscape-font-specification:'Arial Black, Normal';display:inline;fill:#cb3300;fill-opacity:1;stroke-width:0.264582pt"
         d="m 275.96372,-5.7555093 h 15.73794 l 8.20013,14.224072 7.94782,-14.224072 h 15.58025 L 309.04809,16.637155 324.78603,40.480611 H 308.7327 l -9.11476,-14.854852 -9.1463,14.854852 h -15.95871 l 15.95871,-24.095768 z"
         id="path3"
         sodipodi:insensitive="true" /><path
         style="font-size:64.5918px;line-height:0%;font-family:'Arial Black';-inkscape-font-specification:'Arial Black, Normal';display:inline;fill:#ffbf00;fill-opacity:1;stroke-width:0.264582pt"
         d="m 224.23982,-5.7555093 h 15.8641 l 9.33553,15.611787 9.33553,-15.611787 h 15.76949 L 256.56726,21.115688 V 40.480611 H 242.24857 V 21.115688 Z"
         id="path2"
         sodipodi:insensitive="true" /><path
         style="font-size:64.5918px;line-height:0%;font-family:'Arial Black';-inkscape-font-specification:'Arial Black, Normal';display:inline;fill:#007fff;fill-opacity:1;stroke-width:0.264582pt"
         d="m 190.80852,-5.7555093 h 14.28715 V 29.095045 h 22.29805 v 11.385566 h -36.5852 z"
         id="text1067"
         sodipodi:insensitive="true" /></g><g
       id="g8"
       transform="translate(106.92032,23.95024)"
       sodipodi:insensitive="true"><rect
         style="display:inline;opacity:0.68;mix-blend-mode:normal;fill:url(#linearGradient54492);fill-opacity:1;stroke:#00ff00;stroke-width:0.264999;stroke-linecap:round;stroke-linejoin:round;stroke-opacity:0;paint-order:stroke markers fill;filter:url(#filter53756)"
         id="rect52301"
         width="103.85168"
         height="135.46666"
         x="-95.77124"
         y="-23.950237"
         ry="3.4415066e-09"
         inkscape:label="page-shadow" /><rect
         style="display:inline;fill:url(#linearGradient1647);fill-opacity:1;stroke:#00ff00;stroke-width:0.264999;stroke-linecap:round;stroke-linejoin:round;stroke-opacity:0;paint-order:stroke markers fill"
         id="rect785"
         width="103.85168"
         height="135.46666"
         x="-95.859711"
         y="-23.950237"
         ry="3.4415066e-09"
         inkscape:label="page" /><path
         id="rect785-2"
         style="display:inline;mix-blend-mode:normal;fill:#ffffff;stroke:#00ff00;stroke-width:0.264999;stroke-linecap:round;stroke-linejoin:round;stroke-opacity:0;paint-order:stroke markers fill;filter:url(#filter44679)"
         d="M -91.856734,106.29187 H 3.98897 V -18.725706 c 0,0 -12.7232,58.886455 -29.774943,80.57347 -17.051742,21.687018 -66.070761,44.444106 -66.070761,44.444106 z"
         sodipodi:nodetypes="ccczc"
         inkscape:label="page-texture" /><rect
         style="display:inline;fill:#ff8080;fill-opacity:1;stroke:#00ff00;stroke-width:0.122141;stroke-linecap:round;stroke-linejoin:round;stroke-opacity:0;paint-order:stroke markers fill"
         id="rect2607"
         width="0.37785882"
         height="128.50867"
         x="-86.985321"
         y="-21.02927"
         ry="3.4453367e-09"
         inkscape:label="margin" /><g
         id="g39641"
         style="display:inline"
         inkscape:label="lines"
         transform="translate(-111.66721,-23.950238)"><rect
           style="fill:#006680;fill-opacity:1;stroke:#00ff00;stroke-width:0.107359;stroke-linecap:round;stroke-linejoin:round;stroke-opacity:0;paint-order:stroke markers fill"
           id="rect2607-3"
           width="0.37785882"
           height="99.284889"
           x="12.365952"
           y="-117.37578"
           ry="2.6618425e-09"
           transform="rotate(90)" /><rect
           style="fill:#006680;fill-opacity:1;stroke:#00ff00;stroke-width:0.107359;stroke-linecap:round;stroke-linejoin:round;stroke-opacity:0;paint-order:stroke markers fill"
           id="rect2607-3-6"
           width="0.37785882"
           height="99.284889"
           x="19.007242"
           y="-117.37578"
           ry="2.6618425e-09"
           transform="rotate(90)" /><rect
           style="fill:#006680;fill-opacity:1;stroke:#00ff00;stroke-width:0.107359;stroke-linecap:round;stroke-linejoin:round;stroke-opacity:0;paint-order:stroke markers fill"
           id="rect2607-3-7"
           width="0.37785882"
           height="99.284889"
           x="32.289822"
           y="-117.37578"
           ry="2.6618425e-09"
           transform="rotate(90)" /><rect
           style="fill:#006680;fill-opacity:1;stroke:#00ff00;stroke-width:0.107359;stroke-linecap:round;stroke-linejoin:round;stroke-opacity:0;paint-order:stroke markers fill"
           id="rect2607-3-5"
           width="0.37785882"
           height="99.284889"
           x="45.572403"
           y="-117.37578"
           ry="2.6618425e-09"
           transform="rotate(90)" /><rect
           style="fill:#006680;fill-opacity:1;stroke:#00ff00;stroke-width:0.107359;stroke-linecap:round;stroke-linejoin:round;stroke-opacity:0;paint-order:stroke markers fill"
           id="rect2607-3-3"
           width="0.37785882"
           height="99.284889"
           x="25.648531"
           y="-117.37578"
           ry="2.6618425e-09"
           transform="rotate(90)" /><rect
           style="fill:#006680;fill-opacity:1;stroke:#00ff00;stroke-width:0.107359;stroke-linecap:round;stroke-linejoin:round;stroke-opacity:0;paint-order:stroke markers fill"
           id="rect2607-3-56"
           width="0.37785882"
           height="99.284889"
           x="38.93111"
           y="-117.37578"
           ry="2.6618425e-09"
           transform="rotate(90)" /><rect
           style="fill:#006680;fill-opacity:1;stroke:#00ff00;stroke-width:0.107359;stroke-linecap:round;stroke-linejoin:round;stroke-opacity:0;paint-order:stroke markers fill"
           id="rect2607-3-2"
           width="0.37785882"
           height="99.284889"
           x="52.213692"
           y="-117.37578"
           ry="2.6618425e-09"
           transform="rotate(90)" /><rect
           style="fill:#006680;fill-opacity:1;stroke:#00ff00;stroke-width:0.107359;stroke-linecap:round;stroke-linejoin:round;stroke-opacity:0;paint-order:stroke markers fill"
           id="rect2607-3-9"
           width="0.37785882"
           height="99.284889"
           x="58.85498"
           y="-117.37578"
           ry="2.6618425e-09"
           transform="rotate(90)" /><rect
           style="fill:#006680;fill-opacity:1;stroke:#00ff00;stroke-width:0.107359;stroke-linecap:round;stroke-linejoin:round;stroke-opacity:0;paint-order:stroke markers fill"
           id="rect2607-3-1"
           width="0.37785882"
           height="99.284889"
           x="65.496269"
           y="-117.37578"
           ry="2.6618425e-09"
           transform="rotate(90)" /><rect
           style="fill:#006680;fill-opacity:1;stroke:#00ff00;stroke-width:0.107359;stroke-linecap:round;stroke-linejoin:round;stroke-opacity:0;paint-order:stroke markers fill"
           id="rect2607-3-27"
           width="0.37785882"
           height="99.284889"
           x="78.778854"
           y="-117.37578"
           ry="2.6618425e-09"
           transform="rotate(90)" /><rect
           style="fill:#006680;fill-opacity:1;stroke:#00ff00;stroke-width:0.107359;stroke-linecap:round;stroke-linejoin:round;stroke-opacity:0;paint-order:stroke markers fill"
           id="rect2607-3-0"
           width="0.37785882"
           height="99.284889"
           x="72.137566"
           y="-117.37578"
           ry="2.6618425e-09"
           transform="rotate(90)" /><rect
           style="fill:#006680;fill-opacity:1;stroke:#00ff00;stroke-width:0.107359;stroke-linecap:round;stroke-linejoin:round;stroke-opacity:0;paint-order:stroke markers fill"
           id="rect2607-3-93"
           width="0.37785882"
           height="99.284889"
           x="85.420143"
           y="-117.37578"
           ry="2.6618425e-09"
           transform="rotate(90)" /><rect
           style="fill:#006680;fill-opacity:1;stroke:#00ff00;stroke-width:0.107359;stroke-linecap:round;stroke-linejoin:round;stroke-opacity:0;paint-order:stroke markers fill"
           id="rect2607-3-60"
           width="0.37785882"
           height="99.284889"
           x="92.061432"
           y="-117.37578"
           ry="2.6618425e-09"
           transform="rotate(90)" /><rect
           style="fill:#006680;fill-opacity:1;stroke:#00ff00;stroke-width:0.107359;stroke-linecap:round;stroke-linejoin:round;stroke-opacity:0;paint-order:stroke markers fill"
           id="rect2607-3-62"
           width="0.37785882"
           height="99.284889"
           x="98.702721"
           y="-117.37578"
           ry="2.6618425e-09"
           transform="rotate(90)" /><rect
           style="fill:#006680;fill-opacity:1;stroke:#00ff00;stroke-width:0.107359;stroke-linecap:round;stroke-linejoin:round;stroke-opacity:0;paint-order:stroke markers fill"
           id="rect2607-3-61"
           width="0.37785882"
           height="99.284889"
           x="105.34401"
           y="-117.37578"
           ry="2.6618425e-09"
           transform="rotate(90)" /><rect
           style="fill:#006680;fill-opacity:1;stroke:#00ff00;stroke-width:0.107359;stroke-linecap:round;stroke-linejoin:round;stroke-opacity:0;paint-order:stroke markers fill"
           id="rect2607-3-8"
           width="0.37785882"
           height="99.284889"
           x="111.98531"
           y="-117.37578"
           ry="2.6618425e-09"
           transform="rotate(90)" /><rect
           style="fill:#006680;fill-opacity:1;stroke:#00ff00;stroke-width:0.107359;stroke-linecap:round;stroke-linejoin:round;stroke-opacity:0;paint-order:stroke markers fill"
           id="rect2607-3-79"
           width="0.37785882"
           height="99.284889"
           x="118.62659"
           y="-117.37578"
           ry="2.6618425e-09"
           transform="rotate(90)" /><rect
           style="fill:#006680;fill-opacity:1;stroke:#00ff00;stroke-width:0.107359;stroke-linecap:round;stroke-linejoin:round;stroke-opacity:0;paint-order:stroke markers fill"
           id="rect2607-3-20"
           width="0.37785882"
           height="99.284889"
           x="125.26788"
           y="-117.37578"
           ry="2.6618425e-09"
           transform="rotate(90)" /></g><path
         id="rect18683-93"
         style="display:inline;mix-blend-mode:normal;fill:url(#linearGradient37406);fill-opacity:1;stroke:none;stroke-width:0.306206;stroke-linecap:round;stroke-linejoin:round;stroke-opacity:0;paint-order:stroke markers fill;filter:url(#filter38138)"
         d="m 15.38297,17.151787 c -0.76702,0.01257 -1.48581,0.47589 -1.79109,1.23455 l -0.66508,1.653129 -0.0568,-0.02325 -1.54668,3.843693 0.0568,0.02274 -29.020969,72.120153 -0.512114,4.678268 c -0.02691,0.24579 -0.05422,0.47207 -0.08061,0.68265 l -5.17e-4,-5.2e-4 c 0,0 -0.801944,2.34833 -0.396875,2.51613 0.400018,0.16545 1.633718,-2.30651 1.665014,-2.36937 0.06582,-0.0867 0.133384,-0.17496 0.204634,-0.26768 l 2.87166,-3.730008 29.020977,-72.120155 0.0568,0.02274 1.54668,-3.843176 -0.0569,-0.02274 0.66508,-1.653129 c 0.0827,-0.20555 0.12752,-0.41622 0.13952,-0.625285 0.0249,-0.433963 -0.0951,-0.859977 -0.33383,-1.212846 l -5.1e-4,-5.17e-4 c -0.0406,-0.05992 -0.0845,-0.117729 -0.13178,-0.173116 -0.009,-0.01012 -0.0175,-0.02001 -0.0263,-0.02997 -0.0167,-0.01874 -0.0337,-0.03716 -0.0512,-0.05529 -0.0217,-0.02257 -0.0438,-0.04455 -0.0667,-0.06615 -5.3e-4,-5.03e-4 -0.001,-0.001 -0.002,-0.0015 -0.0114,-0.01075 -0.0224,-0.02154 -0.0341,-0.03204 -2.8e-4,-2.49e-4 -7.6e-4,-2.68e-4 -10e-4,-5.17e-4 -0.005,-0.0041 -0.009,-0.0083 -0.0139,-0.0124 -0.0148,-0.01305 -0.0297,-0.02612 -0.045,-0.03876 -0.005,-0.0037 -0.009,-0.0077 -0.0134,-0.01137 -2.9e-4,-2.37e-4 -7.4e-4,-2.79e-4 -10e-4,-5.16e-4 -0.0122,-0.01 -0.0247,-0.01977 -0.0372,-0.02946 -3e-4,-2.31e-4 -7.4e-4,-2.86e-4 -0.001,-5.17e-4 -0.0125,-0.0097 -0.0249,-0.01954 -0.0377,-0.02894 -3.1e-4,-2.25e-4 -7.3e-4,-2.93e-4 -0.001,-5.17e-4 -0.0128,-0.0094 -0.0257,-0.01879 -0.0388,-0.02791 -3.2e-4,-2.2e-4 -7.2e-4,-2.98e-4 -0.001,-5.17e-4 -0.0131,-0.0091 -0.0259,-0.01806 -0.0393,-0.02687 -3.2e-4,-2.1e-4 -7.1e-4,-3.07e-4 -10e-4,-5.17e-4 -0.0134,-0.0088 -0.0272,-0.01732 -0.0408,-0.02584 -3.2e-4,-2.04e-4 -7e-4,-3.13e-4 -0.001,-5.17e-4 -0.0136,-0.0085 -0.0269,-0.01712 -0.0408,-0.02532 -3.3e-4,-1.94e-4 -7.1e-4,-3.23e-4 -10e-4,-5.17e-4 -0.0139,-0.0082 -0.0282,-0.01639 -0.0424,-0.02429 -3.4e-4,-1.87e-4 -7e-4,-3.3e-4 -0.001,-5.17e-4 -0.002,-0.0012 -0.004,-0.0024 -0.007,-0.0036 -0.0122,-0.0067 -0.0243,-0.01367 -0.0367,-0.02015 -0.0144,-0.0076 -0.0293,-0.01498 -0.0439,-0.02222 -3.4e-4,-1.69e-4 -6.9e-4,-3.47e-4 -0.001,-5.16e-4 -0.0147,-0.0072 -0.0295,-0.01428 -0.0444,-0.02119 -3.5e-4,-1.6e-4 -6.9e-4,-3.56e-4 -0.001,-5.17e-4 -0.0151,-0.007 -0.0301,-0.01352 -0.0455,-0.02015 l -5.2e-4,-5.17e-4 c -0.0153,-0.0066 -0.0309,-0.01284 -0.0465,-0.01912 l -0.0992,-0.03979 c -0.0158,-0.0064 -0.0317,-0.01268 -0.0475,-0.0186 -0.23799,-0.08888 -0.48222,-0.128984 -0.72192,-0.125057 z" /><g
         id="g47583"
         style="display:inline"
         transform="translate(-90.500541,-2.783571)"><path
           id="rect18683"
           style="display:inline;fill:#d38d5f;stroke-width:0.306206;stroke-linecap:round;stroke-linejoin:round;stroke-opacity:0;paint-order:stroke markers fill"
           d="m 72.264122,97.804884 3.751144,1.509459 -2.871465,3.729717 c -0.229288,0.29833 -0.429936,0.5657 -0.605,0.80138 l -0.912012,-0.33073 c 0.03976,-0.30041 0.08277,-0.64397 0.125207,-1.03161 z"
           sodipodi:nodetypes="ccccccc" /><path
           id="rect4098"
           style="fill:#ffcc00;stroke-width:0.224195;stroke-linecap:round;stroke-linejoin:round;stroke-opacity:0;paint-order:stroke markers fill"
           d="m 101.28531,25.684553 3.75115,1.509459 v 0 l -29.021197,72.12034 v 0 0 l -3.633653,3.614258 -0.117492,-5.123717 v 0 0 z"
           sodipodi:nodetypes="ccccccccccc" /><path
           id="rect4098-2"
           style="opacity:0.5;fill:#ff6600;stroke-width:0.122751;stroke-linecap:round;stroke-linejoin:round;stroke-opacity:0;paint-order:stroke markers fill"
           d="m 103.91196,26.741512 1.1245,0.4525 v 0 L 76.015262,99.314351 v 0 l -2.706773,3.479589 v 0 z"
           sodipodi:nodetypes="cccccccc" /><path
           id="rect4098-2-3"
           style="display:inline;opacity:0.5;fill:#ffff00;stroke-width:0.122751;stroke-linecap:round;stroke-linejoin:round;stroke-opacity:0;paint-order:stroke markers fill"
           d="m 101.28531,25.684553 1.12451,0.452499 v 0 L 71.982158,101.75258 v 0 l 0.28196,-3.947687 v 0 z"
           sodipodi:nodetypes="cccccccc" /><rect
           style="fill:#de8787;fill-opacity:1;stroke:none;stroke-width:0.220332;stroke-linecap:round;stroke-linejoin:round;stroke-opacity:0;paint-order:stroke markers fill"
           id="rect9916"
           width="4.043457"
           height="6.8008251"
           x="-107.59483"
           y="-21.875542"
           ry="1.9681873"
           transform="matrix(-0.92770708,-0.37330896,-0.37330896,0.92770708,0,0)" /><path
           id="rect9916-2"
           style="opacity:0.24;fill:#c83737;stroke-width:0.220332;stroke-linecap:round;stroke-linejoin:round;stroke-opacity:0;paint-order:stroke markers fill"
           d="m 106.15595,19.136887 c 0.95255,1.981918 -4.12868,5.098355 -2.53881,6.309174 1.01155,0.407047 2.1536,-0.07961 2.56065,-1.091159 l 1.06932,-2.657371 c 0.40705,-1.01155 -0.0796,-2.153596 -1.09116,-2.560644 z"
           sodipodi:nodetypes="ccssc" /><path
           id="rect9916-2-5"
           style="opacity:0.24;fill:#6c5353;stroke-width:0.220332;stroke-linecap:round;stroke-linejoin:round;stroke-opacity:0;paint-order:stroke markers fill"
           d="m 106.15595,19.136887 c 2.0171,1.812577 -0.6559,4.813034 -2.53881,6.309174 1.01155,0.407047 2.1536,-0.07961 2.56065,-1.091159 l 1.06932,-2.657371 c 0.40705,-1.01155 -0.0796,-2.153596 -1.09116,-2.560644 z"
           sodipodi:nodetypes="ccssc" /><path
           id="rect9916-2-8"
           style="fill:#ffaaaa;stroke-width:0.220332;stroke-linecap:round;stroke-linejoin:round;stroke-opacity:0;paint-order:stroke markers fill"
           d="m 106.05758,19.097303 c -2.57509,-0.263744 -3.43673,4.89181 -2.53881,6.309174 -1.01155,-0.407048 -1.4982,-1.549094 -1.09116,-2.560643 l 1.06933,-2.657371 c 0.40704,-1.01155 1.54909,-1.498207 2.56064,-1.09116 z"
           sodipodi:nodetypes="ccssc" /><rect
           style="fill:#e6e6e6;fill-opacity:1;stroke:none;stroke-width:0.235842;stroke-linecap:round;stroke-linejoin:round;stroke-opacity:0;paint-order:stroke markers fill"
           id="rect7946"
           width="4.043458"
           height="4.14288"
           x="103.55138"
           y="-18.125854"
           ry="2.3724154e-09"
           transform="rotate(21.919835)" /><rect
           style="opacity:0.5;fill:#808080;fill-opacity:1;stroke:none;stroke-width:0.135513;stroke-linecap:round;stroke-linejoin:round;stroke-opacity:0;paint-order:stroke markers fill"
           id="rect7946-7"
           width="1.3349614"
           height="4.14288"
           x="106.32129"
           y="-18.125854"
           ry="2.3724154e-09"
           transform="rotate(21.919835)" /><rect
           style="fill:#f2f2f2;fill-opacity:1;stroke:none;stroke-width:0.135513;stroke-linecap:round;stroke-linejoin:round;stroke-opacity:0;paint-order:stroke markers fill"
           id="rect7946-7-5"
           width="1.3349614"
           height="4.14288"
           x="103.48996"
           y="-18.125854"
           ry="2.3724154e-09"
           transform="rotate(21.919835)" /><path
           id="rect18683-7"
           style="fill:#aa8800;stroke-width:0.306206;stroke-linecap:round;stroke-linejoin:round;stroke-opacity:0;paint-order:stroke markers fill"
           d="m 74.467534,98.691546 c 0,0 0.308541,0.631804 0.607517,0.752112 0.298976,0.120308 0.959134,-0.121692 0.959134,-0.121692 l -2.871465,3.729714 c -0.229288,0.29833 -0.429936,0.5657 -0.605,0.80138 l -0.475113,-0.15492 c 0.03976,-0.30041 0.519671,-0.46816 0.562106,-0.8558 z"
           sodipodi:nodetypes="czcccccc" /><path
           id="rect18683-7-3"
           style="fill:#deaa87;stroke-width:0.306206;stroke-linecap:round;stroke-linejoin:round;stroke-opacity:0;paint-order:stroke markers fill"
           d="m 74.467534,98.691546 c 0,0 -1.296868,-0.01467 -1.595844,-0.134981 -0.298976,-0.120307 -0.607516,-0.752111 -0.607516,-0.752111 l -0.512227,4.679066 c -0.04126,0.374 -0.08173,0.70583 -0.118694,0.99707 0,0 0.599361,0.0452 0.826862,-0.2779 z"
           sodipodi:nodetypes="czccccc" /><path
           id="rect18683-6"
           style="display:inline;opacity:0.408524;fill:#483e37;stroke-width:0.306206;stroke-linecap:round;stroke-linejoin:round;stroke-opacity:0;paint-order:stroke markers fill"
           d="m 72.264122,97.804884 c 0,0 0.417125,0.675489 0.761979,0.814258 0.344856,0.13877 0.676694,-0.235336 0.676694,-0.235336 0,0 0.854024,0.851296 1.198879,0.990066 0.344855,0.138769 1.113592,-0.05953 1.113592,-0.05953 l -2.871465,3.729718 c -0.229287,0.29833 -0.429936,0.5657 -0.605,0.80138 l -0.912012,-0.33073 c 0.03976,-0.30041 0.08277,-0.64397 0.125207,-1.03161 z"
           sodipodi:nodetypes="czczcccccc" /><path
           id="rect18683-7-3-1"
           style="opacity:0.45;fill:#decd87;stroke-width:0.306206;stroke-linecap:round;stroke-linejoin:round;stroke-opacity:0;paint-order:stroke markers fill"
           d="m 73.660172,98.504548 c 0,0 -0.489506,0.172326 -0.788482,0.05202 -0.298976,-0.120307 -0.607516,-0.752111 -0.607516,-0.752111 l -0.512227,4.679063 c -0.04126,0.374 -0.08173,0.70583 -0.118694,0.99707 0,0 0.191755,0.19962 0.419256,-0.12345 z"
           sodipodi:nodetypes="czccccc" /><path
           id="rect18683-9"
           style="display:inline;fill:#1a1a1a;stroke-width:0.306206;stroke-linecap:round;stroke-linejoin:round;stroke-opacity:0;paint-order:stroke markers fill"
           d="m 71.670856,103.16502 c 0,0 0.234858,0.19844 0.485042,0.30625 0.25033,0.10745 0.786123,-0.16512 0.786123,-0.16512 0,0 -1.262983,2.54285 -1.66814,2.37527 -0.405071,-0.1678 0.396975,-2.5164 0.396975,-2.5164 z"
           sodipodi:nodetypes="czczc" /></g></g><path
       id="path8"
       style="font-size:64.5918px;line-height:0%;font-family:'Arial Black';-inkscape-font-specification:'Arial Black, Normal';fill:#000000;fill-opacity:1;stroke:none;stroke-width:0.264582pt;stroke-opacity:1;filter:url(#filter10);opacity:0.48"
       d="m 71.584194,12.492286 7.6171,16.051216 -9.29245,-1.082621 -8.29149,10.797274 -5.58829,-12.413713 -11.79256,-1.373559 6.77478,13.190409 -8.84855,3.942395 -10.61434,-23.824385 -9.76685,4.351156 14.08183,31.607889 19.0469,-8.485787 0.38654,0.752925 -1.6769,14.394987 10.64431,1.239718 1.67638,-14.394987 0.45837,-0.537952 11.21534,1.546159 8.29923,-10.077937 5.23948,11.94449 11.901606,1.640727 -9.230976,-19.285645 12.951156,-15.131892 -11.551236,-1.592151 -7.34581,9.733256 -4.62607,-11.383801 z" /><path
       style="font-size:64.5918px;line-height:0%;font-family:'Arial Black';-inkscape-font-specification:'Arial Black, Normal';fill:#cb3300;fill-opacity:1;stroke-width:0.264582pt;stroke:#900000;stroke-opacity:1"
       d="m 70.292522,10.770183 11.667825,1.608448 4.625701,11.383538 7.346098,-9.733188 11.550924,1.59233 L 92.532103,30.752976 101.76309,50.038538 89.861436,48.397861 84.622113,36.45319 76.323016,46.531543 64.491515,44.900534 78.785647,28.667373 Z"
       id="path4" /><path
       style="font-size:64.5918px;line-height:0%;font-family:'Arial Black';-inkscape-font-specification:'Arial Black, Normal';fill:#007fff;fill-opacity:1;stroke-width:0.264582pt;stroke:#0000ff;stroke-opacity:1"
       d="M 20.489817,20.408623 30.256763,16.057255 40.871023,39.881696 56.114352,33.09049 59.582,40.873861 34.571724,52.016427 Z"
       id="path6" /><path
       style="font-size:64.5918px;line-height:0%;font-family:'Arial Black';-inkscape-font-specification:'Arial Black, Normal';fill:#ffbf00;fill-opacity:1;stroke-width:0.264582pt;stroke:#d77600;stroke-opacity:1"
       d="m 42.944866,22.748675 11.792854,1.373652 5.587924,12.413645 8.291527,-10.796945 11.72252,1.365461 L 64.649283,45.523046 62.972499,59.918287 52.328457,58.678454 54.00524,44.283198 Z"
       id="path5" /></g></svg>
