<?xml version="1.0" encoding="UTF-8" standalone="no"?>
<!-- Created with Inkscape (http://www.inkscape.org/) -->

<svg
   width="512"
   height="512"
   viewBox="0 0 135.46666 135.46667"
   version="1.1"
   id="svg5"
   inkscape:version="1.3.2 (091e20ef0f, 2023-11-25, custom)"
   sodipodi:docname="text-x-dbus-service.svg"
   xmlns:inkscape="http://www.inkscape.org/namespaces/inkscape"
   xmlns:sodipodi="http://sodipodi.sourceforge.net/DTD/sodipodi-0.dtd"
   xmlns:xlink="http://www.w3.org/1999/xlink"
   xmlns="http://www.w3.org/2000/svg"
   xmlns:svg="http://www.w3.org/2000/svg">
  <sodipodi:namedview
     id="namedview7"
     pagecolor="#292929"
     bordercolor="#666666"
     borderopacity="1"
     inkscape:showpageshadow="0"
     inkscape:pageopacity="0"
     inkscape:pagecheckerboard="1"
     inkscape:deskcolor="#1a1a1a"
     inkscape:document-units="px"
     showgrid="false"
     inkscape:zoom="3.6875"
     inkscape:cx="424"
     inkscape:cy="201.49153"
     inkscape:window-width="3256"
     inkscape:window-height="1080"
     inkscape:window-x="1864"
     inkscape:window-y="0"
     inkscape:window-maximized="0"
     inkscape:current-layer="layer1" />
  <defs
     id="defs2">
    <linearGradient
       id="linearGradient8"
       inkscape:collect="always">
      <stop
         style="stop-color:#e0e0e0;stop-opacity:1;"
         offset="0"
         id="stop29" />
      <stop
         style="stop-color:#cccccc;stop-opacity:1;"
         offset="0.76999998"
         id="stop8" />
      <stop
         style="stop-color:#adadad;stop-opacity:1;"
         offset="0.76999998"
         id="stop9" />
      <stop
         style="stop-color:#7a7a7a;stop-opacity:1;"
         offset="1"
         id="stop10" />
    </linearGradient>
    <inkscape:path-effect
       effect="fillet_chamfer"
       id="path-effect5"
       is_visible="true"
       lpeversion="1"
       nodesatellites_param="F,0,0,1,0,3,0,1 @ F,0,0,1,0,3,0,1 @ F,0,0,1,0,3,0,1 @ F,0,0,1,0,3,0,1 @ F,0,0,1,0,3,0,1 @ F,0,0,1,0,3,0,1 @ F,0,0,1,0,3,0,1 @ F,0,0,1,0,3,0,1 @ F,0,0,1,0,3,0,1 @ F,0,0,1,0,3,0,1"
       radius="3"
       unit="px"
       method="auto"
       mode="F"
       chamfer_steps="1"
       flexible="false"
       use_knot_distance="true"
       apply_no_radius="true"
       apply_with_radius="true"
       only_selected="false"
       hide_knots="false" />
    <radialGradient
       inkscape:collect="always"
       xlink:href="#linearGradient8"
       id="radialGradient9"
       cx="158.83751"
       cy="-10.691275"
       fx="158.83751"
       fy="-10.691275"
       r="68.812618"
       gradientTransform="matrix(0.67969424,0.67969424,-0.67970205,0.67970205,-47.494235,-32.961179)"
       gradientUnits="userSpaceOnUse" />
    <clipPath
       clipPathUnits="userSpaceOnUse"
       id="clipPath20">
      <path
         style="color:#000000;display:inline;opacity:1;fill:#4d4d4d;stroke-width:0.999998;stroke-linecap:round;stroke-linejoin:round;-inkscape-stroke:none;paint-order:markers stroke fill"
         d="m 67.733329,22.939807 c -24.653761,0 -44.793529,20.139767 -44.793529,44.793523 0,24.653758 20.139768,44.79353 44.793529,44.79353 24.653753,0 44.793531,-20.139772 44.793531,-44.79353 0,-24.653756 -20.139778,-44.793522 -44.793531,-44.793523 z m 0,14.351126 c 16.898059,0 30.442397,13.544332 30.442397,30.442397 0,16.898064 -13.544338,30.442397 -30.442397,30.442397 -16.898067,0 -30.4424,-13.544333 -30.4424,-30.442397 0,-16.898065 13.544333,-30.442397 30.4424,-30.442397 z"
         id="path21" />
    </clipPath>
    <clipPath
       clipPathUnits="userSpaceOnUse"
       id="clipPath24">
      <path
         id="path25"
         style="color:#000000;opacity:1;fill:#0000ff;stroke:none;stroke-width:3.175;stroke-linecap:round;stroke-linejoin:round;stroke-dasharray:none;stroke-opacity:1;paint-order:markers stroke fill"
         d="m 251.51914,24.100852 a 2.6938803,2.6938803 0 0 0 -3.44942,0.302019 l -9.78081,9.780822 a 1.7996878,1.7996878 0 0 0 2.6e-4,-0.0019 l -1.83876,-1.759149 c -21.55484,-19.722052 -54.76167,-19.722051 -76.3165,-5e-6 -1.03696,0.948793 -2.64951,2.561333 -3.5983,3.598301 -19.72211,21.554895 -19.72338,54.762995 -0.001,76.3179 0.94876,1.03701 2.56095,2.64919 3.59794,3.59795 21.55477,19.72184 54.76363,19.72216 76.31863,7.9e-4 1.037,-0.94876 1.03373,-2.56492 0.0398,-3.55886 l -0.21002,-0.21 c -0.99393,-0.99394 -2.60158,-0.98898 -3.6427,-0.0448 -19.48126,17.66814 -49.21142,17.66817 -68.69245,-2.6e-4 -1.04109,-0.94422 -2.65371,-2.55684 -3.59794,-3.59794 -17.66866,-19.481166 -17.66772,-49.210546 0.001,-68.691721 0.94423,-1.04109 2.55721,-2.65407 3.5983,-3.598299 19.48111,-17.66872 49.20956,-17.668719 68.69068,0 1.04109,0.944229 1.84306,1.755645 1.84339,1.755976 l -9.77977,9.779757 a 2.6938803,2.6938803 0 0 0 1.20701,4.506491 l 31.92208,8.553561 a 2.6938803,2.6938803 0 0 0 3.29912,-3.299118 l -8.55347,-31.922194 a 2.6938803,2.6938803 0 0 0 -1.05672,-1.509389 z m -2.93917,7.410504 6.13847,22.908733 -22.9091,-6.138111 z"
         inkscape:transform-center-x="-3.0842349"
         inkscape:transform-center-y="0.090810911" />
    </clipPath>
    <clipPath
       clipPathUnits="userSpaceOnUse"
       id="clipPath27">
      <path
         id="path28"
         style="color:#000000;opacity:1;fill:#0000ff;stroke:#ffffff;stroke-width:3.175;stroke-linecap:round;stroke-linejoin:round;stroke-dasharray:none;stroke-opacity:1;paint-order:markers stroke fill"
         d="m 257.48226,2.538427 a 2.6938803,2.6938803 0 0 0 -3.44942,0.302019 l -9.78081,9.780822 a 1.7996878,1.7996878 0 0 0 2.6e-4,-0.0018 l -1.83875,-1.759149 c -21.55484,-19.7220515 -54.76167,-19.7220507 -76.31649,-3e-6 -1.03698,0.948791 -2.64952,2.561332 -3.59831,3.598299 -19.72211,21.554895 -19.72338,54.762995 -0.001,76.317903 0.94875,1.037011 2.56094,2.649191 3.59794,3.59795 21.55477,19.721842 54.76362,19.722162 76.31862,7.94e-4 1.037,-0.948759 1.03372,-2.564919 0.0398,-3.558861 l -0.21001,-0.209999 c -0.99393,-0.993939 -2.60159,-0.988981 -3.6427,-0.0448 -19.48126,17.668148 -49.21142,17.668168 -68.69244,-2.64e-4 -1.0411,-0.944221 -2.65372,-2.556841 -3.59795,-3.597942 -17.66866,-19.48117 -17.66773,-49.210547 0.001,-68.691721 0.94422,-1.041091 2.55719,-2.65407 3.59828,-3.598299 19.48112,-17.6687199 49.20956,-17.6687188 68.69068,0 1.04109,0.94423 1.84307,1.755646 1.8434,1.755976 l -9.77977,9.779756 a 2.6938803,2.6938803 0 0 0 1.20702,4.506491 l 31.92207,8.553562 a 2.6938803,2.6938803 0 0 0 3.29921,-3.299288 L 258.53904,4.0477961 A 2.6938803,2.6938803 0 0 0 257.48232,2.538407 Z m -2.93917,7.4105039 6.13847,22.9087331 -22.9091,-6.138111 z"
         inkscape:transform-center-x="-3.0842349"
         inkscape:transform-center-y="0.090810911" />
    </clipPath>
    <filter
       inkscape:collect="always"
       style="color-interpolation-filters:sRGB"
       id="filter36"
       x="-0.016811984"
       y="-0.017760412"
       width="1.033624"
       height="1.0355208">
      <feGaussianBlur
         inkscape:collect="always"
         stdDeviation="0.83694272"
         id="feGaussianBlur36" />
    </filter>
    <clipPath
       clipPathUnits="userSpaceOnUse"
       id="clipPath37">
      <path
         id="path38"
         style="color:#000000;display:inline;opacity:1;fill:#000055;stroke:#ffffff;stroke-width:3.175;stroke-linecap:round;stroke-linejoin:round;stroke-dasharray:none;stroke-opacity:1;paint-order:markers stroke fill"
         d="m -24.528111,14.243813 a 2.6938803,2.6938803 0 0 0 -3.44942,0.302019 l -9.780809,9.780822 a 1.7996878,1.7996878 0 0 0 2.64e-4,-0.0018 l -1.838759,-1.759149 c -21.554836,-19.7220517 -54.761661,-19.7220509 -76.316485,-3e-6 -1.03698,0.948791 -2.64952,2.561332 -3.5983,3.598299 -19.72212,21.554895 -19.72339,54.762995 -0.001,76.317899 0.94875,1.03701 2.56094,2.64919 3.59794,3.59795 21.554762,19.72184 54.763616,19.72216 76.318617,7.9e-4 1.037,-0.94876 1.033719,-2.56492 0.0398,-3.55886 l -0.210011,-0.21 c -0.993928,-0.99394 -2.601589,-0.98897 -3.642698,-0.0448 -19.481266,17.66814 -49.211418,17.66818 -68.692448,-2.6e-4 -1.04109,-0.94422 -2.65371,-2.556837 -3.59794,-3.597938 -17.66866,-19.48117 -17.66773,-49.210547 0.001,-68.691722 0.94423,-1.04109 2.5572,-2.65407 3.5983,-3.598298 19.481113,-17.66872 49.209556,-17.6687192 68.690676,0 1.04109,0.944228 1.843058,1.755645 1.843389,1.755975 l -9.779767,9.779757 a 2.6938803,2.6938803 0 0 0 1.207013,4.506492 l 31.922074,8.553561 a 2.6938803,2.6938803 0 0 0 3.29912,-3.299119 L -23.47103,15.753181 a 2.6938803,2.6938803 0 0 0 -1.05672,-1.509389 z m -2.939171,7.410504 6.138471,22.908734 -22.909101,-6.138111 z"
         inkscape:transform-center-x="-3.0842349"
         inkscape:transform-center-y="0.090810911" />
    </clipPath>
  </defs>
  <g
     inkscape:label="Layer 1"
     inkscape:groupmode="layer"
     id="layer1">
    <path
       id="path5"
       style="opacity:1;fill:url(#radialGradient9);stroke:#ffffff;stroke-width:0.26458333;stroke-linecap:round;stroke-linejoin:round;stroke-dasharray:none;paint-order:markers stroke fill;stroke-opacity:1"
       d="m 114.44041,20.895404 c -0.81936,-0.817127 -1.63849,-1.590684 -2.46888,-2.339621 l -13.047585,8.855156 a 51.028495,51.028495 0 0 0 -5.87627,-3.912833 l 3.1963,-15.4827372 C 94.136735,7.0050441 91.991505,6.104192 89.810635,5.3304775 L 81.079811,18.604251 A 51.028495,51.028495 0 0 0 74.20461,17.241436 L 71.215895,1.6290946 c -2.320411,-0.1221788 -4.645423,-0.1223068 -6.96583,-3.5e-6 L 61.2617,17.241785 a 51.028495,51.028495 0 0 0 -6.874501,1.36282 L 45.656383,5.3315306 c -2.181075,0.7738626 -4.326614,1.6743792 -6.434046,2.6848927 l 3.196297,15.4827327 a 51.028495,51.028495 0 0 0 -5.875567,3.912135 L 23.496195,18.556839 c -1.837782,1.657527 -3.420089,3.254814 -4.939864,4.939863 l 8.854451,13.046874 a 51.028495,51.028495 0 0 0 -3.912134,5.875566 L 8.0162693,39.223199 c -1.010453,2.107384 -1.91144,4.252674 -2.685248,6.433694 L 18.60445,54.388061 a 51.028495,51.028495 0 0 0 -1.362114,6.873795 L 1.6289353,64.250221 c -0.122283,2.320728 -0.121568,4.645803 6.99e-4,6.966535 l 15.6126927,2.988363 a 51.028495,51.028495 0 0 0 1.362819,6.873797 L 5.3313773,89.810437 c 0.773766,2.180879 1.674143,4.326429 2.684536,6.4337 L 23.499348,93.047834 a 51.028495,51.028495 0 0 0 3.912134,5.874864 l -8.855155,13.047582 c 1.657454,1.83772 3.254904,3.42017 4.939869,4.93987 l 13.047576,-8.85516 a 51.028495,51.028495 0 0 0 5.875211,3.91248 l -3.196296,15.48274 c 2.107263,1.0104 4.252813,1.91147 6.433703,2.68524 l 8.731511,-13.27378 a 51.028495,51.028495 0 0 0 6.873448,1.36247 l 2.988367,15.61339 c 2.320802,0.1223 4.645727,0.1223 6.966536,1e-5 l 2.98871,-15.61305 a 51.028495,51.028495 0 0 0 6.873451,-1.36246 l 8.731172,13.27343 c 2.181,-0.77383 4.3263,-1.6748 6.43369,-2.68525 l -3.19595,-15.48239 a 51.028495,51.028495 0 0 0 5.87557,-3.91212 l 13.046875,8.85444 c 1.83777,-1.65749 3.42002,-3.25471 4.93987,-4.93986 l -8.83303,-13.014912 a 51.028495,51.028495 0 0 0 3.94023,-5.897346 l 15.43321,3.186114 c 1.01052,-2.107433 1.91102,-4.252984 2.6849,-6.434045 l -13.18106,-8.67041 a 51.028495,51.028495 0 0 0 1.38355,-6.956338 l 15.4996,-2.966584 c 0.12232,-2.320747 0.12292,-4.645787 6.9e-4,-6.966534 l -15.50029,-2.966584 a 51.028495,51.028495 0 0 0 -1.3832,-6.9567 L 130.136,45.655843 c -0.77364,-2.180627 -1.67435,-4.325987 -2.68455,-6.433 l -15.43391,3.186118 a 51.028495,51.028495 0 0 0 -3.94058,-5.897703 l 8.83373,-13.016314 c -0.83133,-0.921725 -1.65092,-1.782416 -2.47028,-2.59954 z m -35.3416,27.460429 8.011827,8.011828 -4.738602,4.738601 a 16.072599,16.072599 0 0 1 -3.273225,17.991652 16.072599,16.072599 0 0 1 -22.730256,2e-6 16.072599,16.072599 0 0 1 3e-6,-22.730256 16.072599,16.072599 0 0 1 17.963903,-3.245477 z" />
    <path
       style="color:#000000;display:inline;opacity:1;fill:#4d4d4d;stroke-width:0.999998;stroke-linecap:round;stroke-linejoin:round;-inkscape-stroke:none;paint-order:markers stroke fill"
       d="m 67.733333,22.939807 c -24.653761,0 -44.793528,20.139768 -44.793528,44.793523 0,24.653758 20.139767,44.79353 44.793528,44.79353 24.653753,0 44.793527,-20.139772 44.793527,-44.79353 0,-24.653755 -20.139774,-44.793522 -44.793527,-44.793523 z m 0,14.351127 c 16.89806,0 30.442396,13.544333 30.442396,30.442396 0,16.898063 -13.544336,30.442398 -30.442396,30.442398 -16.898068,0 -30.4424,-13.544335 -30.4424,-30.442398 0,-16.898063 13.544332,-30.442396 30.4424,-30.442396 z"
       id="path13" />
    <path
       sodipodi:type="spiral"
       style="fill:none;fill-rule:evenodd;stroke:#354359;stroke-width:0.264583;stroke-opacity:1"
       id="path20"
       sodipodi:cx="67.73333"
       sodipodi:cy="67.73333"
       sodipodi:expansion="1"
       sodipodi:revolution="60"
       sodipodi:radius="44.650482"
       sodipodi:argument="-251.99136"
       sodipodi:t0="0"
       d="m 67.73333,67.73333 c 0.08816,-0.06898 0.136474,0.0848 0.114646,0.146521 -0.05915,0.167257 -0.282728,0.168019 -0.407689,0.08277 -0.223524,-0.152487 -0.212374,-0.476261 -0.0509,-0.668856 0.236975,-0.282641 0.67255,-0.258409 0.930024,-0.01902 0.343171,0.319066 0.30518,0.869836 -0.01285,1.191192 -0.400213,0.404393 -1.0676,0.352337 -1.452359,-0.04473 -0.465995,-0.480899 -0.399719,-1.265635 0.0766,-1.713527 0.561328,-0.527825 1.463838,-0.44724 1.974694,0.108478 0.589804,0.641598 0.494856,1.662154 -0.140352,2.235862 -0.721764,0.651883 -1.860549,0.542537 -2.497029,-0.172228 -0.714035,-0.801858 -0.590267,-2.059002 0.204102,-2.758197 0.8819,-0.776238 2.257498,-0.638031 3.019364,0.235978 0.838483,0.961903 0.685824,2.456028 -0.267852,3.280531 -1.041876,0.900759 -2.654584,0.733637 -3.541699,-0.299726 -0.963059,-1.121827 -0.781468,-2.853162 0.331602,-3.802867 1.201758,-1.025379 3.051755,-0.829312 4.064034,0.363476 1.087715,1.281676 0.877168,3.250364 -0.395351,4.325202 -1.361581,1.150064 -3.448985,0.925034 -4.58637,-0.427226 -1.212425,-1.441475 -0.972907,-3.647615 0.459101,-4.847537 1.521362,-1.274795 3.846254,-1.020787 5.108705,0.490976 1.337173,1.60124 1.068672,4.0449 -0.522851,5.369872 -1.681113,1.399558 -4.243552,1.116563 -5.63104,-0.554726 -1.461949,-1.76098 -1.164458,-4.44221 0.586601,-5.892207 1.840843,-1.524345 4.640873,-1.212357 6.153375,0.618475 1.586745,1.920702 1.260259,4.83954 -0.650351,6.414543 -2.000557,1.64915 -5.03821,1.308165 -6.67571,-0.682225 -1.711558,-2.080409 -1.356072,-5.236885 0.7141,-6.936878 2.160259,-1.77397 5.435562,-1.403982 7.198046,0.745975 1.836384,2.240105 1.451894,5.634241 -0.77785,7.459213 -2.31995,1.898801 -5.832924,1.499808 -7.72038,-0.809725 -1.961221,-2.399792 -1.547725,-6.031607 0.841599,-7.981548 2.479633,-2.023642 6.230294,-1.595641 8.242715,0.873475 2.086066,2.559472 1.643561,6.428982 -0.905349,8.503883 -2.63931,2.14849 -6.627671,1.69148 -8.76505,-0.937224 -2.210917,-2.719147 -1.739402,-6.826363 0.969099,-9.026219 2.798981,-2.273344 7.025055,-1.787323 9.287385,1.000974 2.335774,2.878815 1.835247,7.223749 -1.032848,9.548553 -2.958648,2.398204 -7.422444,1.883171 -9.809721,-1.064723 -2.460635,-3.03848 -1.931096,-7.62114 1.096598,-10.070888 3.118311,-2.523068 7.819837,-1.979021 10.332056,1.128473 2.585501,3.198141 2.026947,8.018535 -1.160348,10.593223 -3.277971,2.647936 -8.217234,2.074875 -10.854391,-1.192223 -2.710371,-3.357799 -2.122802,-8.415933 1.224098,-11.115558 3.437627,-2.772807 8.614634,-2.17073 11.376726,1.255973 2.835243,3.517454 2.218659,8.813334 -1.287848,11.637893 -3.597282,2.897681 -9.012036,2.266588 -11.899061,-1.319722 -2.960118,-3.677109 -2.314517,-9.210739 1.351597,-12.160229 3.756935,-3.022557 9.409442,-2.362448 12.421397,1.383472 3.084996,3.83676 2.410378,9.608145 -1.415347,12.682564 -3.916585,3.147435 -9.806849,2.458309 -12.943732,-1.447222 -3.209875,-3.996409 -2.50624,-10.005553 1.479097,-13.204899 4.076234,-3.272316 10.204258,-2.554171 13.466067,1.510972 3.334756,4.156057 2.602103,10.402963 -1.542847,13.727234 -4.235881,3.397198 -10.601669,2.650035 -13.988401,-1.574722 -3.45964,-4.315704 -2.697969,-10.800374 1.606596,-14.249569 4.395527,-3.522081 10.999081,-2.745901 14.510736,1.638471 3.584525,4.47535 2.793834,11.197788 -1.670345,14.771905 C 69.713,79.732005 62.871677,78.926806 59.2351,74.382818 c -3.70941,-4.634994 -2.889701,-11.595202 1.734095,-15.29424 4.714816,-3.771853 11.79391,-2.937634 15.555407,1.765971 3.834297,4.794637 2.985568,11.992618 -1.797845,15.816574 -4.874459,3.896741 -12.191326,3.033503 -16.077742,-1.82972 -3.959185,-4.95428 -3.081437,-12.390034 1.861595,-16.338909 5.034101,-4.021629 12.588743,-3.129371 16.600077,1.89347 4.084073,5.113921 3.177306,12.787451 -1.925345,16.861244 -5.193742,4.146518 -12.98616,3.225241 -17.122412,-1.957219 -4.208963,-5.273563 -3.273175,-13.18487 1.989095,-17.38358 5.353383,-4.271408 13.383579,-3.321111 17.644747,2.020969 4.333853,5.433203 3.369046,13.582289 -2.052844,17.905915 -5.513023,4.396299 -13.780999,3.416981 -18.167083,-2.084719 -4.458745,-5.592843 -3.464916,-13.979709 2.116594,-18.42825 5.672663,-4.521191 14.178419,-3.512852 18.689418,2.148469 4.583636,5.752482 3.560788,14.377129 -2.180344,18.950585 -5.832301,4.646083 -14.57584,3.608724 -19.211753,-2.212219 -4.708529,-5.91212 -3.656659,-14.77455 2.244094,-19.47292 5.99194,-4.770975 14.973261,-3.704596 19.734088,2.275968 4.833422,6.071759 3.752532,15.171972 -2.307844,19.995256 -6.151577,4.895869 -15.370683,3.800468 -20.256422,-2.339718 -4.958316,-6.231397 -3.848405,-15.569394 2.371592,-20.517591 6.311216,-5.020762 15.768106,-3.896341 20.778758,2.403468 5.08321,6.391034 3.944278,15.966817 -2.435342,21.039926 -6.470853,5.145657 -16.165529,3.992214 -21.301093,-2.467218 -5.208105,-6.550671 -4.040151,-16.36424 2.499092,-21.562261 6.630489,-5.270551 16.562952,-4.088087 21.823428,2.530968 5.332999,6.710307 4.136025,16.761663 -2.562842,22.084595 -6.790125,5.395447 -16.960375,4.183962 -22.345763,-2.594716 -5.457895,-6.869944 -4.231899,-17.159088 2.626592,-22.606931 6.949761,-5.520343 17.357799,-4.279836 22.868098,2.658466 5.58279,7.02958 4.327773,17.556512 -2.690341,23.129266 -7.109398,5.645238 -17.755224,4.37571 -23.390434,-2.722216 -5.707686,-7.189216 -4.423647,-17.953936 2.754091,-23.651601 7.269034,-5.770134 18.152649,-4.471585 23.912769,2.785966 5.832582,7.348851 4.519522,18.351361 -2.817841,24.173936 -7.428669,5.895031 -18.550074,4.56746 -24.435104,-2.849716 C 48.002857,71.0016 49.344939,59.7613 56.841927,53.813815 c 7.588304,-6.019927 18.947499,-4.663335 24.957439,2.913466 6.082376,7.668121 4.711272,19.146211 -2.945341,25.218606 -7.747938,6.144824 -19.344924,4.75921 -25.479774,-2.977215 -6.207273,-7.827756 -4.807147,-19.543638 3.00909,-25.740942 7.907574,-6.269721 19.742351,-4.855085 26.00211,3.040965 6.33217,7.987391 4.903023,19.941064 -3.07284,26.263277 -8.067208,6.394619 -20.139777,4.950961 -26.524444,-3.104715 -6.457068,-8.147025 -4.998899,-20.33849 3.136589,-26.785612 8.226842,-6.519516 20.537203,-5.046837 27.046779,3.168465 6.581966,8.306659 5.094775,20.735916 -3.200339,27.307947 C 71.38472,89.762471 58.836567,88.260769 52.202082,79.885842 45.495218,71.419549 47.011431,58.7525 55.466171,52.05556 c 8.54611,-6.769312 21.332056,-5.238588 28.091449,3.295964 6.831762,8.625927 5.286527,21.53077 -3.327838,28.352617 -8.705744,6.894212 -21.729484,5.334466 -28.613785,-3.359713 -6.95666,-8.785561 -5.382403,-21.928197 3.391588,-28.874952 8.865378,-7.01911 22.126911,-5.430342 29.13612,3.423463 7.081559,8.945194 5.47828,22.325624 -3.455338,29.397287 -9.025011,7.144008 -22.524338,5.526218 -29.658455,-3.487213 -7.206457,-9.104827 -5.574156,-22.723051 3.519088,-29.919622 9.184644,-7.268907 22.921765,-5.622095 30.18079,3.550963 7.331356,9.264461 5.670033,23.120478 -3.582838,30.441957 -9.344277,7.393806 -23.319192,5.717972 -30.703125,-3.614712 -7.456255,-9.424095 -5.76591,-23.517907 3.646588,-30.964293 9.50391,-7.518705 23.71662,-5.813848 31.22546,3.678462 7.581154,9.583727 5.861787,23.915335 -3.710337,31.486628 -9.663544,7.643604 -24.114049,5.909725 -31.747796,-3.742212 -7.706053,-9.74336 -5.957663,-24.312762 3.774087,-32.008963 9.823177,-7.768503 24.511476,-6.005602 32.270131,3.805962 7.830953,9.902993 6.05354,24.71019 -3.837837,32.531298 C 72.081314,93.941884 57.155219,92.14996 49.271658,82.178769 41.315805,72.116144 43.122239,57.071151 53.173244,49.125136 63.315686,41.106834 78.479576,42.92778 86.488044,53.058597 94.568797,63.280856 92.73334,78.563644 82.522708,86.634566 72.220634,94.777768 56.818947,92.9278 48.685573,82.637355 40.479921,72.255464 42.3444,56.73488 52.714658,48.539051 63.176366,40.270949 78.815848,42.14994 87.074129,52.600012 95.404681,63.141536 93.511179,78.899916 82.981294,87.22065 72.359954,95.613652 56.482676,93.705639 48.099488,83.09594 39.644036,72.394784 41.56656,56.398608 52.256073,47.952967 63.037045,39.435065 79.15212,41.3721 87.660214,52.141427 96.240566,63.002215 94.289019,79.236188 83.439879,87.806735 72.499275,96.449537 56.146404,94.483479 47.513403,83.554526 38.808151,72.534105 40.78872,56.062336 51.797488,47.366882 62.897724,38.59918 79.488392,40.59426 88.246299,51.682841 97.076451,62.862894 95.06686,79.57246 83.898465,88.39282 72.638596,97.285423 55.810131,95.26132 46.927318,84.013111 37.972266,72.673426 40.01088,55.726063 51.338902,46.780797 62.758403,37.763294 79.824665,39.81642 88.832384,51.224256 97.912337,62.723573 95.8447,79.908733 84.35705,88.978905 72.777917,98.121308 55.473859,96.03916 46.341233,84.471696 37.13638,72.812748 39.233039,55.38979 50.880317,46.194712 c 11.738765,-9.267304 29.280621,-7.156133 38.538152,4.570959 9.329754,11.81858 7.204072,29.479335 -4.602834,38.799319 -11.898396,9.392204 -29.67805,7.252011 -39.060486,-4.634708 -9.454655,-11.978213 -7.299951,-29.876765 4.666582,-39.321655 12.058029,-9.517105 30.07548,-7.347889 39.582822,4.698458 9.579556,12.137844 7.395829,30.274194 -4.730332,39.84399 C 73.056561,99.79308 54.801312,97.594842 45.169064,85.388867 35.464608,73.091391 37.677357,54.717244 49.963146,45.022542 62.340438,35.255636 80.833484,37.482897 90.590638,49.8485 100.42,62.305607 98.178223,80.917553 85.732806,90.73716 73.195883,100.62897 54.465039,98.372683 44.582979,85.847453 34.628721,73.230713 36.899516,54.38097 49.504561,44.436458 62.201116,34.41975 81.169758,36.705056 91.176723,49.389914 101.25588,62.166285 98.956064,81.253826 86.191392,91.323244 73.335205,101.46485 54.128765,99.150524 43.996894,86.306038 33.792835,73.370035 36.121675,54.044696 49.045975,43.850373 62.061794,33.583863 81.506032,35.927214 91.762808,48.931329 102.09177,62.026963 99.733906,81.5901 86.649977,91.909329 73.474527,102.30074 53.792491,99.928366 43.410809,86.764623 32.956948,73.509358 35.343833,53.708422 48.58739,43.264288 61.922471,32.747976 81.842306,35.149373 92.348893,48.472744 102.92766,61.88764 100.51175,81.926375 87.108562,92.495414 73.61385,103.13663 53.456216,100.70621 42.824724,87.223209 32.12106,73.64868 34.565991,53.372148 48.128805,42.678203 61.783149,31.912089 82.17858,34.371531 92.934978,48.014158 103.76354,61.748318 101.28959,82.262649 87.567148,93.081499 73.753172,103.97251 53.119942,101.48405 42.238639,87.681794 31.285173,73.788003 33.78815,53.035873 47.670219,42.092118 61.643826,31.076201 82.514855,33.593689 93.521062,47.555573 104.59943,61.608995 102.06743,82.598924 88.025733,93.667584 73.892495,104.8084 52.783667,102.26189 41.652555,88.140379 30.449286,73.927326 33.010308,52.699599 47.211634,41.506033 61.504503,30.240314 82.85113,32.815847 94.107147,47.096987 105.43532,61.469672 102.84527,82.935198 88.484318,94.253669 74.031818,105.64429 52.447392,103.03973 41.06647,88.598965 29.613398,74.066649 32.232466,52.363324 46.753048,40.919949 61.36518,29.404426 83.187405,32.038005 94.693232,46.638402 106.27121,61.330349 103.62312,83.271473 88.942904,94.839753 74.171141,106.48018 52.111117,103.81758 40.480385,89.05755 28.77751,74.205972 31.454623,52.027049 46.294463,40.333864 61.225857,28.568538 83.52368,31.260163 95.279317,46.179817 107.10709,61.191026 104.40096,83.607748 89.401489,95.425838 74.310465,107.31607 51.774842,104.59542 39.8943,89.516136 27.941622,74.345295 30.676781,51.690774 45.835878,39.747779 61.086533,27.73265 83.859955,30.48232 95.865402,45.721231 107.94298,61.051702 105.1788,83.944024 89.860075,96.011923 74.449788,108.15195 51.438567,105.37326 39.308215,89.974721 27.105734,74.484619 29.898939,51.354498 45.377292,39.161694 60.94721,26.896762 84.19623,29.704478 96.451487,45.262646 108.77887,60.912379 105.95664,84.280299 90.31866,96.598008 74.589111,108.98784 51.102292,106.1511 38.72213,90.433306 26.269846,74.623942 29.121096,51.018223 44.918707,38.575609 60.807886,26.060874 84.532506,28.926635 97.037571,44.80406 109.61476,60.773055 106.73448,84.616574 90.777245,97.184093 74.728435,109.82373 50.766016,106.92895 38.136046,90.891892 25.433958,74.763266 28.343253,50.681947 44.460121,37.989524 60.668563,25.224986 84.868781,28.148793 97.623656,44.345475 110.45065,60.633732 107.51233,84.95285 91.235831,97.770178 74.867759,110.65962 50.429741,107.70679 37.549961,91.350477 24.598069,74.90259 27.565411,50.345672 44.001536,37.40344 60.529239,24.389097 85.205057,27.37095 98.209741,43.88689 111.28653,60.494408 108.29017,85.289126 91.694416,98.356262 75.007082,111.49551 50.093465,108.48463 36.963876,91.809063 23.762181,75.041913 26.787568,50.009396 43.542951,36.817355 60.389915,23.553208 85.541333,26.593107 98.795826,43.428304 112.12242,60.355084 109.06801,85.625402 92.153002,98.942347 75.146406,112.3314 49.757189,109.26247 36.377791,92.267648 22.926292,75.181237 26.009725,49.67312 43.084365,36.23127 60.250591,22.71732 85.877609,25.815264 99.381911,42.969719 112.95831,60.21576 109.84586,85.961678 92.611587,99.528432 75.28573,113.16728 49.420913,110.04032 35.791706,92.726233 22.090403,75.320561 25.231882,49.336844 42.62578,35.645185 60.111267,21.881431 86.213885,25.037421 99.967996,42.511134 113.7942,60.076436 110.6237,86.297954 93.070172,100.11452 75.425054,114.00317 49.084637,110.81816 35.205621,93.184819 21.254514,75.459885 24.454039,49.000568 42.167195,35.0591 59.971943,21.045542 86.550161,24.259578 100.55408,42.052548 114.63009,59.937112 111.40154,86.63423 93.528758,100.7006 75.564378,114.83906 48.748361,111.596 34.619537,93.643404 20.418626,75.599209 23.676196,48.664292 41.708609,34.473015 59.832619,20.209653 86.886437,23.481735 101.14017,41.593963 115.46598,59.797788 112.17939,86.970506 93.987343,101.28669 75.703702,115.67495 48.412085,112.37385 34.033452,94.101989 19.582737,75.738533 22.898353,48.328016 41.250024,33.886931 59.693295,19.373764 87.222713,22.703892 101.72625,41.135377 116.30187,59.658464 112.95723,87.306782 94.445928,101.87277 75.843026,116.51084 48.075808,113.15169 33.447367,94.560575 18.746848,75.877857 22.12051,47.991739 40.791438,33.300846 59.553971,18.537875 87.558989,21.926049 102.31233,40.676792 117.13776,59.51914 113.73507,87.643058 94.904514,102.45886 75.982351,117.34673 47.739532,113.92953 32.861282,95.01916 17.910958,76.017182 21.342666,47.655463 40.332853,32.714761 59.414647,17.701986 87.895266,21.148206 102.89842,40.218207"
       transform="translate(0.18534744,0.18534845)"
       clip-path="url(#clipPath20)" />
    <g
       id="g17"
       style="display:inline">
      <path
         id="path14"
         style="color:#000000;opacity:1;fill:#000000;stroke-width:0.999998;stroke-linecap:round;stroke-linejoin:round;-inkscape-stroke:none;paint-order:markers stroke fill"
         d="m 67.733453,22.939807 c -24.653738,0 -44.793648,20.139917 -44.793648,44.793647 0,12.460854 5.15007,23.763455 13.42244,31.900379 -7.96194,-8.094469 -12.89327,-19.178332 -12.89327,-31.371212 0,-24.65373 20.13991,-44.793648 44.793644,-44.793648 12.192878,1e-6 23.276744,4.931334 31.371212,12.89327 C 91.496907,28.089878 80.194303,22.939807 67.733453,22.939807 Z m 21.816239,23.506575 c 5.343107,5.476488 8.62583,12.973605 8.62583,21.287072 0,16.898047 -13.544026,30.442586 -30.442069,30.442586 -8.31347,0 -15.810588,-3.283239 -21.287068,-8.626346 5.51735,5.655083 13.231654,9.155513 21.816234,9.155513 16.898043,0 30.442069,-13.54454 30.442069,-30.442586 0,-8.584579 -3.499913,-16.298887 -9.154996,-21.816239 z" />
      <path
         id="path17"
         style="color:#000000;opacity:1;fill:#f9f9f9;stroke-width:0.999998;stroke-linecap:round;stroke-linejoin:round;-inkscape-stroke:none;paint-order:markers stroke fill"
         d="m 99.104424,35.83283 c 7.961936,8.09447 12.893266,19.17834 12.893266,31.37122 0,24.65373 -20.139916,44.79364 -44.793644,44.79364 -12.192879,0 -23.276744,-4.93133 -31.371211,-12.89327 8.136922,8.27237 19.439527,13.42244 31.900378,13.42244 24.653728,0 44.793647,-20.13991 44.793647,-44.79365 0,-12.46085 -5.15007,-23.76346 -13.422436,-31.90038 z m -31.900378,0.92915 c -16.898052,0 -30.442071,13.54402 -30.442071,30.44207 0,8.58458 3.49992,16.29888 9.154998,21.81623 -5.343108,-5.47649 -8.625828,-12.9736 -8.625828,-21.28707 0,-16.89804 13.544019,-30.44207 30.442068,-30.44207 8.314091,0 15.81151,3.28356 21.288106,8.62738 C 83.50388,40.26267 75.789288,36.76198 67.204046,36.76198 Z" />
    </g>
    <path
       id="path2"
       style="color:#000000;display:inline;opacity:1;fill:#000055;stroke:#ffffff;stroke-width:3.175;stroke-linecap:round;stroke-linejoin:round;stroke-dasharray:none;stroke-opacity:1;paint-order:markers stroke fill"
       d="m 120.90023,17.745148 a 2.6938803,2.6938803 0 0 0 -3.44942,0.302019 L 107.67,27.827989 a 1.7996878,1.7996878 0 0 0 3.5e-4,-0.0018 L 105.83159,26.06704 C 84.276754,6.3449887 51.069929,6.3449894 29.515097,26.067037 c -1.036967,0.948791 -2.649508,2.561332 -3.598299,3.598299 -19.7221172,21.554897 -19.7233836,54.762995 -0.0014,76.317904 0.948755,1.03701 2.560943,2.64919 3.597941,3.59795 21.554768,19.72184 54.76362,19.72216 76.318621,7.2e-4 1.037,-0.94876 1.03372,-2.56492 0.0398,-3.55886 l -0.21001,-0.21 c -0.99393,-0.99394 -2.60159,-0.98898 -3.6427,-0.0448 -19.481264,17.66814 -49.211416,17.66817 -68.692444,-3.6e-4 -1.041095,-0.94422 -2.653716,-2.55684 -3.597941,-3.59794 -17.668661,-19.48117 -17.66773,-49.210549 0.0011,-68.691723 0.94423,-1.041091 2.557209,-2.65407 3.5983,-3.598299 19.481112,-17.66872 49.209555,-17.668719 68.690675,0 1.04109,0.94423 1.84306,1.755646 1.84339,1.755976 l -9.779768,9.779756 a 2.6938803,2.6938803 0 0 0 1.207014,4.506493 l 31.922074,8.553561 a 2.6938803,2.6938803 0 0 0 3.29912,-3.29912 l -8.55356,-31.922077 a 2.6938803,2.6938803 0 0 0 -1.05672,-1.509389 z m -2.93917,7.410504 6.13847,22.908734 -22.9091,-6.138111 z"
       inkscape:transform-center-x="-3.0842349"
       inkscape:transform-center-y="0.090810911" />
    <path
       id="path37"
       style="color:#000000;display:inline;opacity:1;fill:#00ccff;stroke:none;stroke-width:3.175;stroke-linecap:round;stroke-linejoin:round;stroke-dasharray:none;stroke-opacity:1;paint-order:markers stroke fill;filter:url(#filter36)"
       inkscape:transform-center-x="-3.0842349"
       inkscape:transform-center-y="0.090810911"
       d="m -77.80098,7.7743278 c -13.6904,0 -27.38099,4.9308502 -38.15839,14.7918702 -1.03697,0.94879 -2.64944,2.56126 -3.59823,3.59823 -19.7221,21.55487 -19.7234,54.76292 -0.001,76.317812 0.94876,1.03701 2.56072,2.64895 3.59772,3.59771 21.55475,19.72182 54.76387,19.72245 76.318849,0.001 1.037,-0.94875 1.03371,-2.56501 0.0398,-3.55895 l -0.21032,-0.20981 c -0.99393,-0.99394 -2.60156,-0.98914 -3.64267,-0.045 -19.481239,17.66813 -49.211439,17.668 -68.692449,-5.1e-4 -1.0411,-0.94422 -2.65349,-2.556615 -3.59771,-3.597715 -17.66864,-19.481147 -17.66768,-49.210767 10e-4,-68.691927 0.94423,-1.04109 2.55714,-2.654 3.59823,-3.59823 19.48109,-17.6687002 49.2098,-17.6687002 68.690899,0 1.04109,0.94423 1.84297,1.75564 1.8433,1.75597 l -9.779769,9.77976 a 2.6938803,2.6938803 0 0 0 1.20716,4.5067 l 31.922089,8.55349 a 2.6938803,2.6938803 0 0 0 3.29902,-3.29903 l -8.55348,-31.92208 a 2.6938803,2.6938803 0 0 0 -1.05679,-1.50947 h -5.1e-4 a 2.6938803,2.6938803 0 0 0 -3.4494,0.30179 l -9.7808,9.7808 a 1.7996878,1.7996878 0 0 0 5.1e-4,-0.002 l -1.83916,-1.75906 C -50.4205,12.704778 -64.11058,7.7739278 -77.80098,7.7739278 Z m -1.28312,1.60352 c 2.41895,-0.0402 4.83874,0.062 7.24452,0.31833 11.82409,1.2562302 23.22327,6.5222802 31.772729,14.7071102 0.73734,0.85828 1.91259,1.83339 3.09387,1.20355 3.30119,-3.10244 6.42547,-6.39994 9.67435,-9.56273 0.41079,-0.73752 1.57633,-0.92746 2.0686,-0.17673 2.91136,10.51885 5.68359,21.08596 8.52403,31.62804 0.46536,0.73514 0.0823,1.96638 -0.87798,1.98179 -10.58546,-2.73698 -21.13836,-5.63197 -31.707109,-8.44599 -0.81892,3.5e-4 -1.59407,-0.84775 -1.24437,-1.65882 2.87296,-3.09472 5.944459,-6.01774 8.913669,-9.02684 0.89012,-0.71309 1.87293,-1.91078 1.233,-3.09645 -1.99724,-2.16464 -4.29138,-4.05426 -6.678149,-5.77897 -11.17824,-8.17327 -25.68847,-11.4869102 -39.32783,-9.23665 -12.47822,1.98107 -24.07107,8.7337 -32.11173,18.45572 -7.3985,8.82999 -11.6611,20.16906 -12.08505,31.66784 -0.48084,11.47202 2.98697,23.03713 9.62577,32.3975 6.21359,8.830492 15.19626,15.666282 25.37416,19.276852 11.27299,4.08028 23.94028,4.09371 35.23454,0.0837 6.65231,-2.30125 12.78323,-6.0111 18.007169,-10.71924 0.89175,-0.84152 2.53632,0.70402 1.52755,1.54977 -4.44264,4.08523 -9.552359,7.39047 -15.042489,9.76427 -12.41954,5.47066 -26.86418,6.02753 -39.6968,1.66294 -6.54095,-2.21348 -12.70873,-5.72111 -17.99477,-10.24485 -7.20803,-6.129485 -12.81366,-14.243202 -15.98507,-23.083852 -3.78917,-10.46653 -4.29684,-22.05129 -1.42937,-32.84296 3.02816,-11.64671 10.09139,-22.15349 19.63084,-29.47107 9.18518,-7.12814 20.70025,-11.1093802 32.25592,-11.3522802 z m 51.375149,10.8965002 c -0.30354,-0.0206 -0.63717,0.0288 -0.89296,0.2036 -5.36509,5.29644 -10.67378,10.66234 -16.01711,15.98559 -1.224749,0.66709 -1.534259,2.7241 -0.21291,3.45353 7.23626,1.98781 14.50398,3.89439 21.75216,5.85081 0.91826,0.48517 2.19334,0.39325 2.85512,-0.47956 0.76465,-0.93768 -0.0254,-2.07498 -0.18397,-3.08095 -1.82315,-6.85819 -3.70078,-13.70641 -5.49372,-20.5698 -0.1868,-0.85252 -0.97897,-1.32557 -1.80661,-1.36322 z m 0.19534,1.38027 6.13864,22.90868 -22.90919,-6.13813 z"
       clip-path="url(#clipPath37)"
       transform="translate(145.42834,3.5013387)" />
  </g>
</svg>
