<?xml version="1.0" encoding="UTF-8" standalone="no"?>
<!-- Created with Inkscape (http://www.inkscape.org/) -->

<svg
   width="512"
   height="512"
   viewBox="0 0 135.46666 135.46667"
   version="1.1"
   id="svg5"
   inkscape:version="1.4.2 (ebf0e940d0, 2025-05-08)"
   xml:space="preserve"
   sodipodi:docname="text-x-fortran.svg"
   xmlns:inkscape="http://www.inkscape.org/namespaces/inkscape"
   xmlns:sodipodi="http://sodipodi.sourceforge.net/DTD/sodipodi-0.dtd"
   xmlns="http://www.w3.org/2000/svg"
   xmlns:svg="http://www.w3.org/2000/svg"><sodipodi:namedview
     id="namedview7"
     pagecolor="#242424"
     bordercolor="#666666"
     borderopacity="1"
     inkscape:showpageshadow="0"
     inkscape:pageopacity="0"
     inkscape:pagecheckerboard="1"
     inkscape:deskcolor="#000000"
     inkscape:document-units="px"
     showgrid="false"
     inkscape:zoom="0.921875"
     inkscape:cx="244.0678"
     inkscape:cy="176.27119"
     inkscape:window-width="3256"
     inkscape:window-height="1080"
     inkscape:window-x="1864"
     inkscape:window-y="0"
     inkscape:window-maximized="0"
     inkscape:current-layer="layer1" /><defs
     id="defs2" /><g
     inkscape:label="Layer 1"
     inkscape:groupmode="layer"
     id="layer1"><path
       style="display:inline;fill:#734f96;fill-opacity:1;stroke-width:1"
       d="M 21.711873,134.98332 C 10.872092,133.5788 1.929371,124.44624 0.483722,113.3045 c -0.67922,-5.23478 -0.67922,-85.85617 0,-91.090944 C 1.963187,10.811205 10.7855,1.9888942 22.187847,0.50941618 c 5.234778,-0.679223 85.856173,-0.679223 91.090943,0 11.40235,1.47947802 20.22467,10.30178882 21.70415,21.70413982 0.67922,5.234774 0.67922,85.856164 0,91.090944 -1.47948,11.40235 -10.3018,20.22466 -21.70415,21.70415 -4.8246,0.62601 -86.714918,0.60337 -91.566917,-0.0254 z m 53.43676,-20.01387 v -6.28568 l -6.753235,-0.26302 c -7.906793,-0.30796 -9.456831,-0.84593 -10.199875,-3.54006 -0.288059,-1.04444 -0.583793,-9.054209 -0.657195,-17.799479 l -0.133526,-15.9005 4.766986,0.41296 c 6.029726,0.52235 10.057965,2.35178 11.508515,5.22659 1.09605,2.17228 2.26266,7.52698 2.78593,12.78742 l 0.35564,3.57523 h 6.04897 6.04898 V 66.6997 40.216487 h -6.04143 -6.04145 l -0.34392,2.780738 c -0.9852,7.965909 -2.53845,12.034432 -5.28022,13.830917 -1.54563,1.012729 -4.9182,1.734692 -9.967929,2.133817 L 57.66964,59.244543 V 43.03662 26.828698 l 15.757503,0.288333 c 17.6787,0.323487 19.56125,0.635162 23.33211,3.862868 4.375327,3.745124 6.475647,9.433612 7.570107,20.502696 0.35226,3.562705 0.90238,6.652756 1.22252,6.866783 0.32012,0.214026 3.1469,0.392786 6.28174,0.397248 l 5.6997,0.0082 -0.13824,-22.113482 -0.13824,-22.113483 H 67.733231 18.209606 l -0.151305,5.783412 c -0.111755,4.270387 0.02685,5.896436 0.529657,6.215444 0.374506,0.237617 3.012468,0.435683 5.862148,0.440142 5.603624,0.0087 8.376944,0.773737 9.341901,2.576771 0.617555,1.153907 0.83994,73.44436 0.232907,75.71045 -0.550339,2.05442 -3.045922,2.88512 -9.526568,3.17112 l -5.920185,0.26124 -0.316724,1.58362 c -0.430057,2.15029 -0.402535,10.19313 0.03647,10.63204 0.19421,0.19421 13.065065,0.35312 28.601876,0.35312 h 28.24875 z"
       id="path1" /><path
       id="rect1"
       style="display:inline;fill:#ffffff;stroke-width:4.23333;stroke-linecap:round;stroke-miterlimit:12;paint-order:markers stroke fill;opacity:0.1"
       d="m 23.148934,-2.6035288 1.597562,1.68379799 V -4.2010906 Z m 4.489397,-4.4893972 v 9.2170401 c 2.579724,2.6882217 3.715931,3.6115123 4.262479,3.4892767 0.07038,-0.015739 0.182412,-0.07457 0.329232,-0.1706453 V -11.684637 Z m 7.483547,-7.483547 V 2.9777061 c 0.402087,-0.3793347 0.81851,-0.7825413 1.235443,-1.1981713 1.255903,-1.25200949 2.364896,-2.24998795 3.356268,-3.0105928 v -17.937126 z m 7.483546,-7.483546 v 19.1561252 c 0.810352,-0.2711895 1.525444,-0.2985659 2.179656,-0.1004871 0.149365,0.045224 1.009954,0.8099505 2.412056,2.12484492 V -26.651731 Z m 7.483547,-7.483547 V 1.8719829 c 1.341163,1.2888326 2.889755,2.789578 4.591711,4.4484715 V -34.135277 Z m 7.483547,-7.483547 V 9.1465164 c 1.462114,1.4323026 3.001549,2.9453346 4.591711,4.5120526 v -33.051844 l -2.414613,-2.414613 2.414613,-2.327646 v -17.48329 l -3.996828,3.996828 z m 7.483546,-7.483546 v 17.587065 l 4.591712,-4.426547 v -17.75223 z m 7.483547,-7.483547 v 17.857467 c 1.74388,-1.675968 3.259071,-3.119804 4.591711,-4.365159 v -18.084019 z m 7.483547,-7.483547 v 18.333959 c 1.905888,-1.688224 3.349117,-2.828954 4.591711,-3.608765 v -19.316905 z m 7.362597,-7.362597 v 20.80046 c 0.918788,-0.268268 1.84647,-0.388358 2.939703,-0.473203 0.632745,-0.04911 1.262405,-0.06156 1.893908,-0.03618 v -25.124693 z m 7.122158,-4.494147 v 25.045034 c 1.768311,0.331238 3.589389,0.971771 5.556387,1.964431 v -21.522505 z m 7.965887,7.866494 v 20.489863 c 1.43503,0.874607 2.95565,1.921581 4.59171,3.15566 V -58.933295 Z M 65.056064,-16.50144 v 33.013111 c 1.508001,1.490089 3.045448,3.012974 4.591712,4.547132 v -32.968531 z m 44.901276,-39.57583 v 18.530548 c 0.0726,0.05922 0.14551,0.118451 0.21852,0.178319 1.67769,1.375782 3.28385,2.577209 4.3732,3.293783 v -17.467942 z m -27.187779,30.182664 1.722897,2.209619 c 0.04105,0.05264 0.08179,0.105175 0.122411,0.157491 v -4.212418 z m 4.616194,-4.616194 v 10.808025 c 2.726791,4.120396 3.668685,7.05425 3.152736,9.53129 -0.27338,1.3124453 -1.3348,3.1963484 -3.152736,5.6031598 V 38.802628 c 1.770204,1.789219 3.399441,3.444347 4.833611,4.911078 V 11.015576 L 90.92363,9.7410345 92.219366,8.65212 V -33.531989 L 91.313155,-34.4382 Z m 7.122158,-0.732642 V 6.7282493 l 0.07856,-0.066139 C 96.511341,5.0441566 98.351438,3.8305184 100.0643,3.0361714 V -25.687055 Z M 72.539611,-9.017893 v 32.94953 c 1.541321,1.532997 3.078663,3.064756 4.591711,4.575633 V -4.4261817 Z m 44.901279,-39.668644 v 14.140542 c 0.87391,-0.763264 2.01274,-1.830424 3.17759,-2.991957 l 1.41412,-1.409743 v -5.204134 z M 80.023158,-1.5343463 V 31.399106 c 1.582079,1.584148 3.121035,3.128927 4.591711,4.60925 V -1.1645539 L 82.670901,1.1133968 Z M 102.4738,-23.277557 V 2.1752712 c 1.45147,-0.350534 2.77773,-0.3397542 3.94603,0.044945 0.19877,0.065451 0.41468,0.1476065 0.64568,0.2444576 V -18.685846 Z m 7.48354,7.483546 V 3.978192 c 1.40539,0.8391005 2.98897,1.8989694 4.59172,3.0774624 V -11.202299 l -4.5095,-4.509495 z M 94.507913,13.26539 v 32.800444 c 2.329072,2.408803 3.790025,3.976881 3.977096,4.300847 1.020449,1.767208 -0.02186,4.004038 -3.977096,8.408758 v 10.341765 c 1.785092,1.797712 3.587922,3.434867 3.921554,3.434831 0.06573,0 0.643294,-0.514555 1.634833,-1.448476 V 18.729695 Z M 117.44089,-8.310464 V 9.2999876 l 2.77052,2.2691814 1.82119,-1.8211917 v -13.46673 z M 102.4738,21.098997 V 68.02025 c 0,0.236864 0.0356,0.465014 0.10158,0.679659 1.26788,-1.226028 2.78429,-2.705286 4.49013,-4.380506 v -38.76828 c -1.45382,-1.390845 -3.00938,-2.897973 -4.59171,-4.452126 z M 124.92444,-0.82691729 V 6.8561419 l 3.84153,-3.8415296 z M 109.95734,28.289487 v 33.181199 c 1.44716,-1.429245 2.98658,-2.954583 4.59172,-4.550786 V 32.434671 c -0.94413,-0.781847 -2.57405,-2.255936 -4.59172,-4.145184 z m 7.48355,5.32545 v 20.423359 c 0.48358,-0.482695 0.97142,-0.969955 1.46273,-1.461265 l 3.12898,-3.128985 V 30.977425 c -2.1166,1.784863 -3.43606,2.56157 -4.59171,2.637512 z m 7.48355,-5.217289 V 46.556211 L 129.51615,41.9645 V 24.150151 l -4.4883,4.152126 c -0.0346,0.03204 -0.0691,0.06366 -0.10341,0.09537 z m -32.705074,32.883391 -2.229717,2.435076 0.895979,1.343969 c 0.264783,0.397174 0.742196,0.975939 1.333738,1.639218 z M 132.40798,26.132121 v 12.940543 l 4.59172,-4.591711 v -3.757121 l -2.56626,-2.566257 z"
       transform="rotate(45)"
       sodipodi:nodetypes="ccccccscccccccccccsccccccccccccccccccccccccccccccccccscccccccccccccccccccccccccccccccsccccccccccccccccccccccccccccccccccscccccccccccsccsccccccccccscccccccccccccccscccccccccccscccccccc" /><path
       id="path20"
       style="fill:#ffffff;stroke-width:4.23333;stroke-linecap:round;stroke-miterlimit:12;paint-order:markers stroke fill;opacity:0.3"
       inkscape:transform-center-x="31.950297"
       inkscape:transform-center-y="-31.950297"
       d="m -129.58652,-47.807979 -0.0605,2.302702 2.75229,-2.302702 z m 4.05505,0 -4.13825,3.17345 -0.0625,2.396753 7.09983,-5.570203 z m 4.5651,0 -8.78448,6.308659 c -0.0201,0.901174 -0.0276,1.67458 -0.0212,2.334224 l 11.75897,-8.642883 z m 4.98005,0 -13.77487,9.250598 c 0.0268,1.011475 0.096,1.700799 0.21395,2.143539 l 16.56849,-11.394137 z m 5.46634,0 -18.85622,11.820984 c 0.0508,0.08038 0.10655,0.138807 0.16795,0.177767 0.21721,0.137817 1.19603,0.262498 2.53576,0.343648 l 19.2133,-12.342399 z m 6.04097,0 -21.21834,12.390975 c 0.73405,0.02949 1.53399,0.04678 2.35128,0.04806 0.40897,6.35e-4 0.80262,0.0052 1.18184,0.01395 h 5.1e-4 l 20.79408,-12.452987 z m 6.725173,0 -23.049243,12.506213 c 1.19797,0.06768 2.22293,0.187631 3.0918,0.364319 1.5e-4,2.9e-5 3.8e-4,-2.9e-5 5.2e-4,0 l 23.107635,-12.870532 z m 7.548376,0 -26.259379,13.198161 c 0.80324,0.269542 1.41746,0.614801 1.86759,1.043347 l 27.574024,-14.241508 z m 8.552966,0 -32.356165,15.00787 c 0.001,0.0026 0.003,0.0052 0.005,0.0078 0.0546,0.102032 0.10587,0.760577 0.154,1.877405 l 35.390602,-16.893026 h -1.60352 z m 9.792684,0 -41.952479,17.880046 c 0.0194,0.566789 0.0382,1.209027 0.0563,1.920296 l 45.072183,-19.800342 z m 11.348661,0 -53.22207,20.733101 c 0.0138,0.599627 0.0268,1.23933 0.0398,1.915646 l 23.567034,-9.481592 v -0.866097 l 2.058789,0.03772 30.668929,-12.338782 z m 13.335104,0 -35.170463,12.443168 3.977018,0.07286 34.172074,-12.516032 z m 15.931327,0 -39.696802,12.656592 c 1.414142,0.03045 2.70847,0.06243 3.895887,0.09819 h 5.16e-4 l 36.509916,-12.086084 -0.0041,-0.668693 z m 0.738456,5.313371 -28.006559,7.969022 c 1.004761,0.128427 1.850449,0.283258 2.587956,0.47284 l 25.424287,-7.539075 z m 0.03411,5.439978 -21.060213,5.283398 c 0.162414,0.13275 0.327209,0.271362 0.495577,0.415479 0.181328,0.15521 0.358664,0.313809 0.532268,0.47594 l 20.038053,-5.263245 z m -59.654239,4.442623 -23.550504,8.332308 c 0.0109,0.610709 0.0212,1.247348 0.0315,1.90841 l 23.518974,-8.614461 z m 59.687829,0.913639 -17.556551,3.822506 c 0.205316,0.317497 0.402537,0.646355 0.592729,0.987536 l 16.969506,-3.891235 z m -59.687829,2.66392 -23.506574,7.494116 v 5.17e-4 c 0.009,0.614757 0.0183,1.248686 0.0269,1.899626 l 23.479704,-7.772136 z m 59.720385,2.619995 -15.504996,2.869076 c 0.119239,0.335537 0.234538,0.680252 0.345715,1.035079 l 15.164966,-2.979663 -0.001,-0.204639 z m -59.720385,0.884701 -23.469884,6.678145 c 0.008,0.617012 0.0154,1.248514 0.0227,1.892908 l 23.447144,-6.952547 z m 19.167305,3.410644 -0.08061,0.65164 2.84117,-0.65164 z m -19.167305,0.03049 -23.438874,5.880261 c 0.007,0.617738 0.0133,1.24667 0.0196,1.885673 l 23.419244,-6.150528 z m 59.753458,0.89762 -14.288016,2.182296 c 0.07313,0.344749 0.143865,0.697113 0.21239,1.057299 l 14.081311,-2.309936 z m -28.503686,0.04496 -12.490194,2.31097 c -0.06383,0.493109 -0.130326,0.970857 -0.198954,1.433505 l 12.689148,-2.493388 z m -31.249772,2.443779 -23.412524,5.09788 c 0.006,0.617887 0.0116,1.244331 0.017,1.878955 l 23.395474,-5.365047 z m 31.249772,1.864485 -13.125814,2.005046 c -0.09877,0.506027 -0.20175,0.989682 -0.309542,1.452108 l 13.435356,-2.204 z m 28.535726,0.821139 -13.534575,1.634009 c 0.04715,0.349472 0.09311,0.705574 0.13746,1.067635 l 13.403316,-1.768368 z m -59.785498,0.65319 -23.389274,4.327901 c 0.005,0.617793 0.0102,1.2427986 0.015,1.8737876 l 23.374284,-4.5930016 z m 31.249772,2.792078 -14.137638,1.706872 c -0.179233,0.534262 -0.369104,1.029438 -0.569991,1.4877647 L -58.876624,-11.3177 Z m -31.249772,0.506429 -23.369634,3.5692908 c 0.005,0.6176438 0.009,1.241186 0.0134,1.8691366 l 23.356194,-3.8318074 z m 59.818054,1.184424 -13.038481,1.1601354 c 0.04155,0.3658192 0.08471,0.7228936 0.129191,1.0691854 l 12.914974,-1.2929443 z m -59.818054,2.082043 -23.352064,2.8189493 c 0.004,0.6173875 0.008,1.2392459 0.0114,1.8644857 l 23.340694,-3.0793986 z m 31.249772,0.4594034 -16.175757,1.4391887 c -0.464624,0.5672214 -0.973394,1.0266909 -1.531172,1.392163 -0.123148,0.080689 -0.257843,0.1596971 -0.40411,0.2366781 L -58.876624,-7.08385 Z m 28.599804,2.5667684 -12.34705,0.7084839 c 0.128978,0.5634066 0.249929,0.9359043 0.350883,1.0510986 l 12.002368,-0.8216553 z m -59.849576,0.2134237 -23.337074,2.0758422 v 5.168e-4 c 0.003,0.6176156 0.007,1.2380647 0.01,1.8613851 l 23.327254,-2.3347412 z m 31.249772,1.427303 -54.573926,3.13159176 c 0.003,0.6180411 0.006,1.23804 0.008,1.85983478 l 54.565656,-3.73568924 z m 0,4.19147537 -54.563076,1.41335043 c 0.002,0.6183633 0.005,1.2379995 0.007,1.8582845 L -58.876624,1.3156372 Z M -113.43092,3.9413167 c 0.002,0.6193004 0.004,1.2388321 0.006,1.8582844 L -58.876624,5.4988443 V 4.3640299 4.2425903 Z m 0.007,2.4690999 c 0.002,0.6201942 0.003,1.2397052 0.004,1.8582844 l 23.028054,0.5963461 v -0.020154 l 0.33383,0.028939 31.181042,0.8077026 V 8.4257974 Z m 0.006,2.473234 c 0.001,0.6215884 0.002,1.2416804 0.003,1.8598344 l 23.050786,1.322917 -0.01344,-1.605587 z m 35.992121,2.4639324 c 0.865214,0.462384 1.594787,0.992165 2.180745,1.58595 l 16.36851,0.939477 v -1.255737 z m -35.989021,0.0186 c 6.5e-4,0.623167 0.001,1.2441 0.002,1.861902 l 23.075598,2.053105 -0.01344,-1.606104 z m 0.002,2.496489 c 1.5e-4,0.625656 2.5e-4,1.247873 0,1.866036 L -90.310364,18.517688 -90.3238,16.909 Z m 39.67045,1.474845 c 0.165737,0.428191 0.331167,0.9199 0.494027,1.463993 l 14.372249,1.278475 v -1.254703 z m -39.67096,1.041797 c -4e-4,0.628059 -7.4e-4,1.251491 -0.002,1.869653 l 23.132435,3.533118 -0.01344,-1.610238 z m -0.003,2.540413 c -9.8e-4,0.630956 -0.002,1.256065 -0.004,1.874305 l 23.16499,4.28656 c -0.001,-0.111555 -0.0022,-0.223572 -0.0031,-0.33538 l -0.01085,-1.277442 z m 40.80268,0.326079 c 0.105903,0.464872 0.20869,0.947643 0.307992,1.445389 l 13.429154,1.621607 v -1.254187 z m -40.80784,2.243274 c -0.002,0.634955 -0.004,1.262243 -0.006,1.881022 l 23.213571,5.054471 c -0.0084,-0.533355 -0.01594,-1.073155 -0.02274,-1.617989 -2e-6,-1.7e-4 3e-6,-3.46e-4 0,-5.16e-4 z m 41.563866,1.707389 c 0.07512,0.471627 0.146219,0.949872 0.212907,1.431954 2.4e-5,1.7e-4 -2.3e-5,3.46e-4 0,5.17e-4 l 12.768213,1.949751 v -1.252636 z m -41.572136,0.897619 c -0.002,0.639154 -0.005,1.268627 -0.008,1.887224 l 23.29005,5.843054 c -0.01222,-0.530665 -0.02392,-1.072611 -0.03462,-1.62419 z m -0.0119,2.645317 c -0.003,0.644311 -0.007,1.276055 -0.0114,1.893941 l 23.400125,6.659025 c -0.01703,-0.524942 -0.03305,-1.070204 -0.04858,-1.632458 z m 42.103374,0.448035 c 0.0028,0.02818 0.0055,0.05605 0.0083,0.08423 l 0.132808,1.335836 12.103654,2.239657 h 0.217041 V 29.635872 Z M -113.4583,29.4302 c -0.005,0.65127 -0.01,1.285811 -0.015,1.902209 l 23.561351,7.512203 c -0.02491,-0.507605 -0.04902,-1.057426 -0.07235,-1.643827 z m -0.0227,2.742985 c -0.006,0.66052 -0.0125,1.298116 -0.0196,1.910477 l 23.898283,8.455298 c -0.06437,-0.239356 -0.129196,-0.826239 -0.191719,-1.690336 z m -0.0305,2.800862 c -0.009,0.674846 -0.018,1.315289 -0.0279,1.917713 l 40.891564,15.929777 v -0.188103 -1.219047 z m -0.0444,2.862875 c -0.0133,0.70572 -0.0276,1.348971 -0.0429,1.92288 l 40.950984,17.453715 v -1.405599 z m -0.0734,2.924886 c -0.0309,0.905462 -0.0653,1.554921 -0.10336,1.90686 -1e-5,9.5e-5 1e-5,4.22e-4 0,5.17e-4 l 35.034557,16.250171 h 3.109888 z m -0.41858,2.829284 c -0.29229,0.502249 -0.7591,0.913209 -1.44643,1.247986 l 28.015348,14.080278 h 3.108854 z m -2.59881,1.680518 c -0.75008,0.218338 -1.66509,0.389797 -2.77037,0.523482 l 24.188183,13.124264 h 3.086634 L -116.64622,45.27161 Z m -4.1212,0.660941 c -0.76662,0.06471 -1.60798,0.116403 -2.53007,0.157097 l -0.74828,0.03307 21.91288,12.796635 c 0.41035,2.23e-4 0.8228,0 1.23713,0 h 1.814359 L -120.76742,45.932551 Z m 41.166483,0.144694 6.953581,2.460315 v -1.408699 l -2.385901,-0.873849 -4.367175,-0.170015 c -0.06741,-0.0026 -0.134016,-0.0051 -0.200505,-0.0078 z m -45.568793,0.09509 -3.26802,0.143661 20.08353,12.590962 c 0.98775,0.0034 1.9962,0.0062 3.02152,0.0083 z m -4.0535,0.205672 -0.31109,1.556494 c -0.0267,0.1337 -0.0517,0.290105 -0.0749,0.466122 l 15.60318,10.47843 c 0.96527,0.0063 1.96238,0.01214 2.98638,0.01705 z m -0.4501,2.600875 c -0.0584,0.626488 -0.10162,1.395761 -0.12971,2.224154 l 10.62933,7.633125 c 0.93486,0.0098 1.91956,0.01862 2.94814,0.02687 z m -0.14935,2.92902 c -0.0178,0.770722 -0.0233,1.570327 -0.017,2.336809 l 5.90403,4.527888 c 0.88466,0.01502 1.86061,0.02925 2.91662,0.04237 z m -0.005,3.186886 c 0.0204,0.975944 0.0621,1.852243 0.12402,2.482536 l 1.32395,1.083138 c 0.68665,0.02953 1.6727,0.05728 2.91352,0.0832 z"
       transform="translate(147.79626,62.335774)"
       sodipodi:nodetypes="cccccccccccccccccccccccccccsccccccscccccccccccccccccccccccccccccccccccscccccccccccscccccccccccccccscccccccccccccccccccccccccccccccccccccccccccccccccccccccccccccccccccccccccccsccccccccccscccccccccccccccccccccccccccccccccccccccccccccccccccccccccccccccccccccccscccscccccccccccccccccccccccccccccccccccccccccccscccccccccccccccccccsccccccccccccccccccccccccccccccccccc" /></g></svg>
