<?xml version="1.0" encoding="UTF-8" standalone="no"?>
<!-- Created with Inkscape (http://www.inkscape.org/) -->

<svg
   width="512"
   height="512"
   viewBox="0 0 135.46666 135.46667"
   version="1.1"
   id="svg5"
   inkscape:version="1.4 (e7c3feb100, 2024-10-09)"
   sodipodi:docname="text-sql.svg"
   xml:space="preserve"
   xmlns:inkscape="http://www.inkscape.org/namespaces/inkscape"
   xmlns:sodipodi="http://sodipodi.sourceforge.net/DTD/sodipodi-0.dtd"
   xmlns="http://www.w3.org/2000/svg"
   xmlns:svg="http://www.w3.org/2000/svg"><sodipodi:namedview
     id="namedview7"
     pagecolor="#242424"
     bordercolor="#666666"
     borderopacity="1"
     inkscape:showpageshadow="0"
     inkscape:pageopacity="0"
     inkscape:pagecheckerboard="1"
     inkscape:deskcolor="#000000"
     inkscape:document-units="px"
     showgrid="false"
     inkscape:zoom="5.2149124"
     inkscape:cx="456.47938"
     inkscape:cy="495.21446"
     inkscape:window-width="3256"
     inkscape:window-height="1080"
     inkscape:window-x="1864"
     inkscape:window-y="0"
     inkscape:window-maximized="0"
     inkscape:current-layer="layer1" /><defs
     id="defs2"><inkscape:path-effect
       effect="fillet_chamfer"
       id="path-effect5"
       is_visible="true"
       lpeversion="1"
       nodesatellites_param="F,0,0,1,0,0,0,1 @ F,0,0,1,0,0,0,1 @ F,0,1,1,0,8.7458019,0,1 @ F,0,0,1,0,0,0,1 @ F,0,1,1,0,8.7458019,0,1 @ F,0,0,1,0,0,0,1"
       radius="6"
       unit="px"
       method="auto"
       mode="F"
       chamfer_steps="1"
       flexible="false"
       use_knot_distance="true"
       apply_no_radius="true"
       apply_with_radius="true"
       only_selected="true"
       hide_knots="false" /></defs><g
     inkscape:label="Layer 1"
     inkscape:groupmode="layer"
     id="layer1"><g
       id="g9"
       transform="matrix(1.1360799,0,0,1.1360799,-10.783419,-13.008466)"
       style="stroke-width:0.88022"><path
         style="fill:#003545;fill-opacity:1;stroke:#ffffff;stroke-width:2.7947;stroke-linecap:round;stroke-linejoin:round;stroke-miterlimit:12;stroke-dasharray:none;stroke-opacity:1;paint-order:markers stroke fill"
         d="m 67.732422,12.847656 c -30.211767,0 -54.884766,24.672999 -54.884766,54.884766 0,30.211767 24.672999,54.884768 54.884766,54.884768 30.211767,0 54.884768,-24.673001 54.884768,-54.884768 0,-30.211767 -24.673001,-54.884766 -54.884768,-54.884766 z m 0,16.933594 c 21.060278,0 37.953128,16.890893 37.953128,37.951172 0,21.060278 -16.89285,37.953128 -37.953128,37.953128 -21.060279,0 -37.951172,-16.89285 -37.951172,-37.953128 0,-21.060279 16.890893,-37.951172 37.951172,-37.951172 z"
         id="path1" /><path
         id="rect1"
         style="fill:#003545;stroke:#ffffff;stroke-width:2.7947;stroke-linecap:round;stroke-linejoin:round;stroke-miterlimit:12;paint-order:markers stroke fill"
         d="m 75.69202,87.012259 c -0.0133,1e-5 -0.01612,0.0077 -0.0067,0.01705 l 32.56339,32.562871 -4.0318,4.0318 21.15943,5.66942 -5.66942,-21.15943 -4.03127,4.03128 -25.136457,-25.135941 c -0.0094,-0.0094 -0.02781,-0.01677 -0.04082,-0.01705 z" /></g><path
       d="m 21.076869,48.490317 q -4.831058,0 -8.370089,-1.713341 Q 9.1677485,45.035548 7.2297076,41.861655 5.2916667,38.687762 5.2916667,34.334192 h 5.1681093 q 0,2.97728 1.235852,5.140021 1.26394,2.134654 3.651381,3.286244 2.387442,1.123502 5.72986,1.123502 3.061543,0 5.308547,-0.898802 2.275091,-0.898801 3.539031,-2.555967 1.26394,-1.657165 1.26394,-3.904169 0,-1.741428 -0.814539,-3.033455 -0.814539,-1.292028 -2.64023,-2.247004 -1.797603,-0.983065 -4.831058,-1.713341 L 18.211939,28.379632 Q 11.807978,26.806729 8.9711356,24.166499 6.1342932,21.52627 6.1342932,17.256962 q 0,-3.623294 1.7695156,-6.291611 1.7976031,-2.6964044 5.0557592,-4.1850444 3.258155,-1.4886401 7.611725,-1.4886401 4.35357,0 7.555551,1.6009903 3.230068,1.5729027 5.027671,4.4940082 1.797603,2.921105 1.909954,6.937624 H 30.064885 Q 29.840184,14.392032 27.25613,12.173116 24.672075,9.926112 20.402768,9.926112 q -2.696405,0 -4.802971,0.898802 -2.078478,0.898801 -3.286243,2.499791 -1.179677,1.600991 -1.179677,3.679469 0,1.629078 0.842626,2.836843 0.842627,1.207764 2.668318,2.134654 1.853778,0.926889 4.887233,1.685252 l 4.746796,1.179678 q 3.061543,0.758363 5.308547,1.82569 2.247003,1.067327 3.707556,2.471704 1.48864,1.404378 2.218916,3.201981 0.730277,1.769516 0.730277,3.960344 0,3.623294 -1.909954,6.375874 -1.881865,2.75258 -5.308546,4.297395 -3.398594,1.516728 -7.948777,1.516728 z"
       id="text4"
       style="font-size:57.5233px;line-height:1.25;font-family:'Adwaita Sans';-inkscape-font-specification:'Adwaita Sans, @opsz=32';font-variation-settings:'opsz' 32;text-align:center;text-orientation:upright;text-anchor:middle;display:none;fill:#ffffff;stroke:#000000;stroke-width:3.175;paint-order:markers stroke fill"
       aria-label="S" /><rect
       style="display:none;fill:#003545;fill-opacity:1;stroke:#ffffff;stroke-width:3.77573;stroke-linecap:round;stroke-linejoin:round;stroke-miterlimit:12;stroke-dasharray:none;stroke-opacity:1;paint-order:markers stroke fill"
       id="rect5"
       width="14.853801"
       height="48.903984"
       x="-14.842265"
       y="124.50291"
       ry="0.023969552"
       transform="matrix(1,0,0.70710678,0.70710678,0,0)"
       sodipodi:insensitive="true" /><path
       id="path6"
       style="display:none;fill:#003545;stroke:#ffffff;stroke-width:3.175;stroke-linecap:round;stroke-linejoin:round;stroke-miterlimit:12;paint-order:markers stroke fill"
       d="m 75.692264,87.012229 h 14.805864 c 0.01301,2.82e-4 0.03157,0.0075 0.04098,0.01693 l 29.607852,29.607861 -3.71347,3.71346 -3.71347,3.71347 -37.034752,-37.034754 c -0.0094,-0.0094 -0.0063,-0.017 0.007,-0.01701 z"
       sodipodi:nodetypes="ssscccsss"
       sodipodi:insensitive="true" /><path
       sodipodi:type="star"
       style="display:none;opacity:1;fill:#003545;fill-opacity:1;stroke:#ffffff;stroke-width:18.0355;stroke-linecap:round;stroke-linejoin:round;stroke-miterlimit:12;stroke-dasharray:none;stroke-opacity:1;paint-order:markers stroke fill"
       id="path7"
       inkscape:flatsided="true"
       sodipodi:sides="3"
       sodipodi:cx="-139.21935"
       sodipodi:cy="-79.553909"
       sodipodi:r1="71.843193"
       sodipodi:r2="35.921597"
       sodipodi:arg1="0"
       sodipodi:arg2="1.0471976"
       inkscape:rounded="0"
       inkscape:randomized="0"
       d="m -67.376152,-79.553909 -107.764788,62.21803 0,-124.436061 z"
       inkscape:transform-center-x="1.636694"
       transform="matrix(0.12448027,0.12448027,-0.12448027,0.12448027,123.86066,147.58343)"
       inkscape:transform-center-y="-1.6366932"
       sodipodi:insensitive="true" /><path
       d="M 104.95237,130.175 V 88.324555 h 5.05576 V 125.681 h 20.16686 v 4.494 z"
       id="text5"
       style="font-size:57.5233px;line-height:1.25;font-family:'Adwaita Sans';-inkscape-font-specification:'Adwaita Sans, @opsz=32';font-variation-settings:'opsz' 32;text-align:center;text-orientation:upright;text-anchor:middle;display:none;fill:#ffffff;stroke:#000000;stroke-width:3.175;paint-order:markers stroke fill"
       aria-label="L" /><path
       style="display:none;fill:#003545;fill-opacity:1;stroke:#ffffff;stroke-width:3.175;stroke-linecap:round;stroke-linejoin:round;stroke-miterlimit:12;stroke-dasharray:none;stroke-opacity:1;paint-order:markers stroke fill"
       d="m 67.732422,12.847656 c -30.211767,0 -54.884766,24.672999 -54.884766,54.884766 0,30.211767 24.672999,54.884768 54.884766,54.884768 30.211767,0 54.884768,-24.673001 54.884768,-54.884768 0,-30.211767 -24.673001,-54.884766 -54.884768,-54.884766 z m 0,16.933594 c 21.060278,0 37.953128,16.890893 37.953128,37.951172 0,21.060278 -16.89285,37.953128 -37.953128,37.953128 -21.060279,0 -37.951172,-16.89285 -37.951172,-37.953128 0,-21.060279 16.890893,-37.951172 37.951172,-37.951172 z"
       id="path8"
       sodipodi:insensitive="true" /><path
       id="path9"
       style="display:none;fill:#003545;stroke:#ffffff;stroke-width:3.175;stroke-linecap:round;stroke-linejoin:round;stroke-miterlimit:12;paint-order:markers stroke fill"
       d="m 75.69202,87.012259 c -0.0133,1e-5 -0.01612,0.0077 -0.0067,0.01705 l 32.56339,32.562871 -4.0318,4.0318 21.15943,5.66942 -5.66942,-21.15943 -4.03127,4.03128 -25.136457,-25.135941 c -0.0094,-0.0094 -0.02781,-0.01677 -0.04082,-0.01705 z"
       sodipodi:insensitive="true" /><path
       id="path2"
       style="mix-blend-mode:normal;fill:#2ad4ff;fill-opacity:1;stroke:none;stroke-width:3.175;stroke-linecap:round;stroke-linejoin:round;stroke-miterlimit:12;stroke-dasharray:none;stroke-opacity:1;paint-order:markers stroke fill"
       d="M 64.049356,3.5606617 C 52.465182,3.8374552 40.892502,7.6042374 31.354192,14.269053 c -9.1728,6.361798 -16.57287,15.333216 -21.01577,25.535392 -1.8423591,4.236509 -3.2674386,8.853912 -4.0596986,13.435872 -2.06527,11.553302 -0.67501,23.785621 4.1067286,34.606673 3.52548,8.069838 8.87998,15.3081 15.48071,21.12689 -4.18772,-4.71153 -7.66369,-10.054666 -10.18905,-15.835224 -4.78174,-10.821052 -6.1719897,-23.05337 -4.10672,-34.606672 0.79226,-4.58196 2.21734,-9.199364 4.0597,-13.435873 4.4429,-10.202176 11.84297,-19.173593 21.01577,-25.535392 9.53831,-6.664814 21.11099,-10.4315972 32.69516,-10.7083907 11.854929,-0.316578 23.819962,2.9895207 33.805158,9.4154467 2.65068,1.688386 5.15914,3.593348 7.51221,5.674589 C 106.92251,19.71863 102.61143,16.006086 97.854527,12.976109 87.869317,6.5501816 75.904285,3.2440837 64.049356,3.5606617 Z M 100.1288,34.503993 c 0.3259,0.388579 0.6591,0.77088 0.971,1.171505 7.37831,9.314909 10.86244,21.60962 9.40356,33.40933 -1.07282,9.064537 -4.87171,17.851821 -11.002947,24.641906 -0.915584,0.765789 -2.160321,0.549427 -3.08094,-0.09819 1.488689,1.490406 2.977703,2.980639 4.466387,4.471045 0.82321,1.19885 2.66772,1.954671 3.90622,0.918807 6.13123,-6.790085 9.93013,-15.57737 11.00294,-24.641907 1.45889,-11.79971 -2.02525,-24.094421 -9.40356,-33.40933 -1.85062,-2.377059 -3.96422,-4.530244 -6.26266,-6.463171 z m -9.462464,64.337674 c 0.833606,1.492503 -0.37146,3.276633 -1.838131,3.771363 -13.322499,8.08764 -30.901095,8.5177 -44.605543,1.09606 -2.79953,-1.48631 -5.43019,-3.28095 -7.84862,-5.327343 3.67074,4.316253 8.13391,7.961043 13.14028,10.619003 13.704452,7.42165 31.28305,6.99159 44.605549,-1.09605 1.466671,-0.49473 2.671737,-2.27885 1.838131,-3.77135 -3.32375,-3.48924 -6.896433,-6.976344 -5.291666,-5.291683 z"
       sodipodi:nodetypes="cccccccccccccccsccccccccsscccccccc" /><path
       id="path5"
       style="opacity:1;fill:#2ad4ff;stroke-width:4.3729;stroke-linecap:round;stroke-linejoin:round;stroke-miterlimit:12;paint-order:fill markers stroke"
       inkscape:transform-center-x="1.2014599"
       inkscape:transform-center-y="-1.2014583"
       transform="matrix(0.18151565,0,0,0.18151565,93.996198,101.0119)"
       d="m 188.85413,162.46157 -85.57232,-22.92903 18.22241,-18.22241 c 3.64822,-3.64822 4.39288,-9.29126 1.81591,-13.76096 l -12.03881,-22.660409 22.66041,12.038815 c 4.4697,2.576965 10.11274,1.832301 13.76096,-1.815915 L 165.9251,76.889254 Z"
       sodipodi:nodetypes="ccccccccc" /></g></svg>
