<?xml version="1.0" encoding="UTF-8" standalone="no"?>
<!-- Created with Inkscape (http://www.inkscape.org/) -->

<svg
   width="512"
   height="512"
   viewBox="0 0 135.46666 135.46667"
   version="1.1"
   id="svg5"
   inkscape:version="1.4.2 (ebf0e940d0, 2025-05-08)"
   sodipodi:docname="unknown.svg"
   xmlns:inkscape="http://www.inkscape.org/namespaces/inkscape"
   xmlns:sodipodi="http://sodipodi.sourceforge.net/DTD/sodipodi-0.dtd"
   xmlns="http://www.w3.org/2000/svg"
   xmlns:svg="http://www.w3.org/2000/svg">
  <sodipodi:namedview
     id="namedview7"
     pagecolor="#242424"
     bordercolor="#666666"
     borderopacity="1"
     inkscape:showpageshadow="0"
     inkscape:pageopacity="0"
     inkscape:pagecheckerboard="1"
     inkscape:deskcolor="#000000"
     inkscape:document-units="px"
     showgrid="false"
     inkscape:zoom="1.3037281"
     inkscape:cx="381.21445"
     inkscape:cy="259.64002"
     inkscape:window-width="3256"
     inkscape:window-height="1080"
     inkscape:window-x="1864"
     inkscape:window-y="0"
     inkscape:window-maximized="0"
     inkscape:current-layer="layer1" />
  <defs
     id="defs2">
    <inkscape:path-effect
       effect="fillet_chamfer"
       id="path-effect5"
       is_visible="true"
       lpeversion="1"
       nodesatellites_param="F,0,0,1,0,4.519464,0,1 @ F,0,0,1,0,4.519464,0,1 @ F,0,0,1,0,4.519464,0,1"
       radius="20"
       unit="px"
       method="auto"
       mode="F"
       chamfer_steps="1"
       flexible="false"
       use_knot_distance="true"
       apply_no_radius="true"
       apply_with_radius="true"
       only_selected="false"
       hide_knots="false" />
    <clipPath
       clipPathUnits="userSpaceOnUse"
       id="clipPath10">
      <path
         id="path10"
         style="baseline-shift:baseline;display:inline;overflow:visible;vector-effect:none;fill:#ffdc00;stroke-width:0.999998;stroke-linecap:round;stroke-linejoin:round;stroke-miterlimit:12;paint-order:markers stroke fill;enable-background:accumulate;stop-color:#000000"
         d="m -136.77565,-8.2811481 c 6.82248,-5.3e-6 11.42884,-7.9801189 8.0176,-13.8885579 l -57.95671,-100.385084 c -3.41124,-5.90844 -12.62602,-5.90844 -16.03727,0 l -57.95719,100.385084 c -3.41124,5.908439 1.19513,13.8885523 8.0176,13.8885579 z" />
    </clipPath>
    <filter
       inkscape:collect="always"
       style="color-interpolation-filters:sRGB"
       id="filter10"
       x="-0.064749968"
       y="-0.038135086"
       width="1.1294999"
       height="1.0762702">
      <feGaussianBlur
         inkscape:collect="always"
         stdDeviation="2.1114699"
         id="feGaussianBlur10" />
    </filter>
  </defs>
  <g
     inkscape:label="Layer 1"
     inkscape:groupmode="layer"
     id="layer1">
    <path
       id="path5"
       inkscape:transform-center-x="-5.9560442e-06"
       inkscape:transform-center-y="18.185546"
       d="M 65.213605,119.38044 7.2564876,18.995767 a 2.9095365,2.9095365 0 0 1 2.5197301,-4.364305 l 115.9142323,-3e-6 a 2.9095365,2.9095365 0 0 1 2.51973,4.364305 L 70.25307,119.38044 a 2.9095365,2.9095365 0 0 1 -5.039465,0 z"
       style="fill:#ff0000;fill-opacity:1;stroke:#ffdc00;stroke-width:12.7;stroke-linecap:round;stroke-linejoin:round;stroke-miterlimit:12;stroke-dasharray:none;stroke-opacity:1;paint-order:markers stroke fill" />
    <path
       id="path6"
       style="baseline-shift:baseline;display:inline;overflow:visible;opacity:1;mix-blend-mode:normal;vector-effect:none;fill:#000000;stroke-linecap:round;stroke-linejoin:round;stroke-miterlimit:12;paint-order:markers stroke fill;filter:url(#filter10);enable-background:accumulate;stop-color:#000000;stop-opacity:1"
       d="m -196.73476,-1.4960327 c 5.69418,0.2948204 11.48985,-0.6501132 16.96899,-2.9181681 14.61104,-6.0481462 24.16597,-20.3446322 24.16597,-36.1579992 a 6.3499498,6.3499498 0 0 0 -6.34949,-6.35155 6.3499498,6.3499498 0 0 0 -6.34948,6.35155 c 0,10.71218 -6.42636,20.326739 -16.32407,24.423832 -9.89771,4.097092 -21.23948,1.835861 -28.81064,-5.742285 -7.57117,-7.578146 -9.82111,-18.920335 -5.7149,-28.814262 4.10622,-9.893927 13.72716,-16.312755 24.43934,-16.30288 a 6.3499498,6.3499498 0 0 0 0.003,0 6.3499498,6.3499498 0 0 0 0.003,0 6.3499498,6.3499498 0 0 0 0.59118,-0.03876 6.3499498,6.3499498 0 0 0 0.23203,-0.01499 6.3499498,6.3499498 0 0 0 0.001,0 6.3499498,6.3499498 0 0 0 0.48421,-0.09612 6.3499498,6.3499498 0 0 0 0.33279,-0.06615 6.3499498,6.3499498 0 0 0 0.24547,-0.0832 6.3499498,6.3499498 0 0 0 0.54312,-0.184485 6.3499498,6.3499498 0 0 0 0.74,-0.364319 6.3499498,6.3499498 0 0 0 0.43615,-0.290421 6.3499498,6.3499498 0 0 0 0.25735,-0.172083 6.3499498,6.3499498 0 0 0 0.29404,-0.257865 6.3499498,6.3499498 0 0 0 0.33073,-0.289388 6.3499498,6.3499498 0 0 0 0.28577,-0.326078 6.3499498,6.3499498 0 0 0 0.26148,-0.297657 6.3499498,6.3499498 0 0 0 0.17002,-0.253731 6.3499498,6.3499498 0 0 0 0.29352,-0.439766 6.3499498,6.3499498 0 0 0 0.0217,-0.04393 6.3499498,6.3499498 0 0 0 0.34469,-0.698666 6.3499498,6.3499498 0 0 0 0.11937,-0.350883 6.3499498,6.3499498 0 0 0 0.14779,-0.434598 6.3499498,6.3499498 0 0 0 0.06,-0.299724 6.3499498,6.3499498 0 0 0 0.10283,-0.517281 6.3499498,6.3499498 0 0 0 0.0119,-0.178284 6.3499498,6.3499498 0 0 0 0.0429,-0.645438 6.3499498,6.3499498 0 0 0 0,-0.0057 6.3499498,6.3499498 0 0 0 0,-0.0052 V -103.0118 a 6.3499498,6.3499498 0 0 0 -6.35,-6.34948 6.3499498,6.3499498 0 0 0 -6.34948,6.34948 v 23.818702 c -13.19921,2.162636 -24.5894,11.000924 -29.82609,23.618713 -6.06161,14.605459 -2.7156,31.473554 8.46098,42.660445 6.98537,6.9918072 16.19289,10.9265399 25.68319,11.4179073 z m 2.00143,-120.1311673 a 6.3499999,6.3499999 0 0 0 6.35,-6.35 6.3499999,6.3499999 0 0 0 -6.35,-6.35 6.3499999,6.3499999 0 0 0 -6.35,6.35 6.3499999,6.3499999 0 0 0 6.35,6.35 z"
       transform="rotate(180,-63.499078,0)"
       clip-path="url(#clipPath10)" />
    <path
       style="fill:none;stroke:#ffffff;stroke-width:12.6999;stroke-linecap:round;stroke-linejoin:round;stroke-miterlimit:12;stroke-dasharray:none;stroke-opacity:1;paint-order:markers stroke fill"
       id="path1"
       transform="scale(-1)"
       sodipodi:type="arc"
       sodipodi:cx="-67.73333"
       sodipodi:cy="-40.57296"
       sodipodi:rx="32.784328"
       sodipodi:ry="32.784328"
       sodipodi:start="0"
       sodipodi:end="4.7133108"
       sodipodi:open="true"
       sodipodi:arc-type="arc"
       d="m -34.949001,-40.57296 a 32.784328,32.784328 0 0 1 -20.24529,30.291661 32.784328,32.784328 0 0 1 -35.731742,-7.120327 32.784328,32.784328 0 0 1 -7.087386,-35.738291 32.784328,32.784328 0 0 1 30.31031,-20.217357" />
    <path
       style="fill:none;stroke:#ffffff;stroke-width:12.6999;stroke-linecap:round;stroke-linejoin:round;stroke-dasharray:none;stroke-opacity:1"
       d="M 67.703107,73.357276 V 103.01188"
       id="path3" />
    <circle
       style="fill:#ffffff;fill-opacity:1;stroke:none;stroke-width:12.6999;stroke-linecap:round;stroke-linejoin:round;stroke-miterlimit:12;stroke-dasharray:none;stroke-opacity:1;paint-order:markers stroke fill"
       id="path4"
       cx="67.73333"
       cy="127.97744"
       r="6.3499999" />
  </g>
</svg>
