<?xml version="1.0" encoding="UTF-8" standalone="no"?>
<!-- Created with Inkscape (http://www.inkscape.org/) -->

<svg
   width="512"
   height="512"
   viewBox="0 0 135.46666 135.46667"
   version="1.1"
   id="svg5"
   inkscape:version="1.4.2 (ebf0e940d0, 2025-05-08)"
   xml:space="preserve"
   sodipodi:docname="video-x-javafx.svg"
   xmlns:inkscape="http://www.inkscape.org/namespaces/inkscape"
   xmlns:sodipodi="http://sodipodi.sourceforge.net/DTD/sodipodi-0.dtd"
   xmlns:xlink="http://www.w3.org/1999/xlink"
   xmlns="http://www.w3.org/2000/svg"
   xmlns:svg="http://www.w3.org/2000/svg"><sodipodi:namedview
     id="namedview7"
     pagecolor="#242424"
     bordercolor="#666666"
     borderopacity="1"
     inkscape:showpageshadow="0"
     inkscape:pageopacity="0"
     inkscape:pagecheckerboard="1"
     inkscape:deskcolor="#000000"
     inkscape:document-units="px"
     showgrid="false"
     inkscape:zoom="0.921875"
     inkscape:cx="241.35593"
     inkscape:cy="222.37288"
     inkscape:window-width="3256"
     inkscape:window-height="1080"
     inkscape:window-x="1864"
     inkscape:window-y="0"
     inkscape:window-maximized="0"
     inkscape:current-layer="layer1" /><defs
     id="defs2"><linearGradient
       id="linearGradient8"><stop
         id="stop7"
         style="stop-color:#e11f21;stop-opacity:1;"
         offset="0" /><stop
         id="stop8"
         style="stop-color:#ffb15d;stop-opacity:1"
         offset="1" /></linearGradient><linearGradient
       x1="64"
       y1="60"
       x2="62"
       y2="7"
       id="linearGradient3724"
       xlink:href="#linearGradient3763"
       gradientUnits="userSpaceOnUse"
       gradientTransform="matrix(1.231823,0,0,1.231823,-157.81615,7.1708322)" /><linearGradient
       id="linearGradient3763"><stop
         id="stop3765"
         style="stop-color:#ff7700;stop-opacity:1"
         offset="0" /><stop
         id="stop3767"
         style="stop-color:#ffb15d;stop-opacity:1"
         offset="1" /></linearGradient><clipPath
       id="clipPath3716"><path
         d="m -118,6 c -3.324,0 -6,2.676 -6,6 v 72 c 0,3.324 2.676,6 6,6 h 72 c 3.324,0 6,-2.676 6,-6 V 12 c 0,-3.324 -2.676,-6 -6,-6 z m 42.53125,9.4375 c 0,0 6.742786,6.784262 -6.4375,17.1875 -10.569721,8.348428 -2.406258,13.091934 0,18.53125 -6.170339,-5.566626 -10.691951,-10.439321 -7.65625,-15 4.457852,-6.693689 16.821977,-9.970594 14.09375,-20.71875 z m 8.125,13.34375 c -14.197756,8.233791 -11.545654,10.600025 -8.125,15.40625 3.661158,5.156183 -4.3125,9.25 -4.3125,9.25 0,0 3.954627,-3.226804 0.8125,-6.84375 -10.643745,-12.265213 11.625144,-17.8125 11.625,-17.8125 z m 3.59375,21.875 c 6.598371,-0.338475 10.187997,8.957958 -4.59375,12.84375 -1.44e-4,0 0.16215,-0.192534 0.21875,-0.34375 12.215092,-6.34575 6.567276,-12.446464 2.625,-11.625 -0.964039,0.201189 -1.40625,0.375 -1.40625,0.375 0,0 0.378571,-0.570411 1.0625,-0.8125 0.731171,-0.256932 1.41116,-0.40248 2.09375,-0.4375 z m -26.40625,0.625 c 0.519115,-0.01358 0.8125,0 0.8125,0 0,0 -11.82939,2.822105 -4.1875,3.84375 3.227673,0.431901 9.630792,0.315402 15.625,-0.1875 4.897387,-0.41102 9.8125,-1.25 9.8125,-1.25 0,0 -1.719415,0.709928 -2.96875,1.5625 -12.017218,3.160705 -35.24553,1.700167 -28.5625,-1.53125 4.236968,-2.049735 7.911406,-2.39676 9.46875,-2.4375 z m -1.9375,7.40625 c 0,0 -2.823626,2.059601 1.4375,2.5 5.511613,0.569005 9.87295,0.637302 17.40625,-0.8125 0,0 1.050477,1.047931 2.6875,1.625 -15.407629,4.506818 -32.55548,0.346355 -21.53125,-3.3125 z m 1.53125,7.125 c 0,0 -2.476708,1.449143 1.78125,1.9375 5.159208,0.589021 7.816289,0.511854 13.5,-0.5625 0,0 1.474997,0.907513 3.5625,1.71875 -12.745505,5.460632 -28.85383,-0.296827 -18.84375,-3.09375 z m -6.46875,4.71875 c 0.614519,0.02364 1.14585,0.147618 1.46875,0.375 0,0 -0.852618,-0.05906 -2.28125,0.25 -1.370161,0.295952 -5.69609,1.676512 -3.375,2.6875 6.461397,2.810602 29.707491,2.165274 37.0625,-0.0625 3.867966,-1.173437 2.03125,-2.71875 2.03125,-2.71875 6.739204,3.040884 -14.609199,9.149373 -40.59375,4.9375 -8.33743,-1.353006 1.38587,-5.63424 5.6875,-5.46875 z M -58,74.375 c -0.426144,5.547328 -18.43383,6.718207 -30.15625,5.96875 -7.704246,-0.495845 -9.1875,-1.71875 -9.1875,-1.71875 7.318718,1.208433 19.649918,1.415115 29.65625,-0.46875 C -58.817879,76.487689 -58,74.375 -58,74.375 Z"
         inkscape:connector-curvature="0"
         id="path3718"
         style="display:inline;fill:#ff00ff;fill-opacity:1;fill-rule:nonzero;stroke:none" /></clipPath><filter
       style="color-interpolation-filters:sRGB"
       x="-0.17383916"
       y="-0.13525651"
       width="1.3476862"
       height="1.26344"
       id="filter3720"><feGaussianBlur
         id="feGaussianBlur3722"
         stdDeviation="3.3931715" /></filter><linearGradient
       inkscape:collect="always"
       id="linearGradient1292"><stop
         style="stop-color:#c6b90d;stop-opacity:1;"
         offset="0"
         id="stop1288" /><stop
         style="stop-color:#1e0808;stop-opacity:0;"
         offset="0.1626891"
         id="stop1428" /><stop
         style="stop-color:#000000;stop-opacity:0.48711377;"
         offset="0.29704928"
         id="stop1424" /><stop
         style="stop-color:#ffe500;stop-opacity:0.62992752;"
         offset="0.49543294"
         id="stop1296" /><stop
         style="stop-color:#000909;stop-opacity:0.44760337;"
         offset="0.70519549"
         id="stop1426" /><stop
         style="stop-color:#1d0606;stop-opacity:0;"
         offset="0.82049024"
         id="stop1430" /><stop
         style="stop-color:#ff8800;stop-opacity:1;"
         offset="1"
         id="stop1290" /></linearGradient><linearGradient
       inkscape:collect="always"
       id="linearGradient39048"><stop
         style="stop-color:#ffffff;stop-opacity:1;"
         offset="0"
         id="stop39044" /><stop
         style="stop-color:#ffffff;stop-opacity:0;"
         offset="1"
         id="stop39046" /></linearGradient><linearGradient
       inkscape:collect="always"
       id="linearGradient27028"><stop
         style="stop-color:#2b1100;stop-opacity:1;"
         offset="0"
         id="stop27022" /><stop
         style="stop-color:#674900;stop-opacity:1;"
         offset="1"
         id="stop27024" /></linearGradient><linearGradient
       inkscape:collect="always"
       id="linearGradient22575"><stop
         style="stop-color:#2b1100;stop-opacity:1;"
         offset="0"
         id="stop22571" /><stop
         style="stop-color:#674900;stop-opacity:1;"
         offset="0.47181943"
         id="stop24075" /><stop
         style="stop-color:#2b1d00;stop-opacity:1;"
         offset="1"
         id="stop22573" /></linearGradient><linearGradient
       inkscape:collect="always"
       xlink:href="#linearGradient22575"
       id="linearGradient22577"
       x1="242.57208"
       y1="206.87029"
       x2="378.03873"
       y2="71.403618"
       gradientUnits="userSpaceOnUse"
       gradientTransform="translate(-409.29097,-60.081774)" /><radialGradient
       inkscape:collect="always"
       xlink:href="#linearGradient27028"
       id="radialGradient27020"
       cx="-282.64951"
       cy="111.36107"
       fx="-282.64951"
       fy="111.36107"
       r="67.73333"
       gradientUnits="userSpaceOnUse"
       gradientTransform="translate(183.66394,-32.305906)" /><linearGradient
       inkscape:collect="always"
       xlink:href="#linearGradient39048"
       id="linearGradient39052"
       x1="-168.78044"
       y1="15.682095"
       x2="-160.12178"
       y2="76.026642"
       gradientUnits="userSpaceOnUse"
       gradientTransform="matrix(-1,0,0,1,-241.79952,-4.360407)" /><radialGradient
       inkscape:collect="always"
       xlink:href="#linearGradient1292"
       id="radialGradient1"
       cx="-160.64742"
       cy="77.418159"
       fx="-160.64742"
       fy="77.418159"
       r="67.73333"
       gradientTransform="matrix(3.1594414,-3.411575,1.9902128,1.8431252,217.58031,-574.89622)"
       gradientUnits="userSpaceOnUse" /></defs><g
     inkscape:label="who uses this garbage lang?"
     inkscape:groupmode="layer"
     id="layer1"><g
       id="g1"
       transform="translate(166.71889,-11.321789)"
       style="display:inline"><path
         id="rect792-97-1-5"
         style="display:inline;opacity:0.6;mix-blend-mode:normal;fill:#121100;fill-opacity:1;stroke-width:1.37583;stroke-linecap:round;stroke-linejoin:round;paint-order:stroke fill markers"
         d="M -166.71889,11.321833 V 146.78851 h 3.38274 v -2.67632 c 0,-0.54839 0.44174,-0.99013 0.99012,-0.99013 h 6.07095 c 0.54837,0 0.99063,0.44174 0.99063,0.99013 v 2.67632 h 112.5983 v -2.67632 c 0,-0.54839 0.44122,-0.99013 0.9896,-0.99013 h 6.07147 c 0.54836,0 0.99012,0.44173 0.99012,0.99013 v 2.67632 h 3.38273 V 11.321833 h -3.38273 v 2.67684 c 0,0.548375 -0.44176,0.989604 -0.99012,0.989604 h -6.07147 c -0.54838,0 -0.9896,-0.441229 -0.9896,-0.989604 v -2.67684 h -112.5983 v 2.67684 c 0,0.548375 -0.44226,0.989604 -0.99063,0.989604 h -6.07095 c -0.54838,0 -0.99012,-0.441229 -0.99012,-0.989604 v -2.67684 z m 4.37286,8.95811 h 6.07095 c 0.54837,0 0.99063,0.441228 0.99063,0.989603 v 2.965711 c 0,0.548376 -0.44226,0.99012 -0.99063,0.99012 h -6.07095 c -0.54838,0 -0.99012,-0.441744 -0.99012,-0.99012 v -2.965711 c 0,-0.548375 0.44174,-0.989603 0.99012,-0.989603 z m 120.64948,0 h 6.07147 c 0.54836,0 0.99012,0.441228 0.99012,0.989603 v 2.965711 c 0,0.548376 -0.44176,0.99012 -0.99012,0.99012 h -6.07147 c -0.54838,0 -0.9896,-0.441744 -0.9896,-0.99012 v -2.965711 c 0,-0.548375 0.44122,-0.989603 0.9896,-0.989603 z m -120.64948,10.237101 h 6.07095 c 0.54837,0 0.99063,0.441227 0.99063,0.989603 v 2.965711 c 0,0.548375 -0.44226,0.989603 -0.99063,0.989603 h -6.07095 c -0.54838,0 -0.99012,-0.441228 -0.99012,-0.989603 v -2.965711 c 0,-0.548376 0.44174,-0.989603 0.99012,-0.989603 z m 120.64948,0 h 6.07147 c 0.54836,0 0.99012,0.441227 0.99012,0.989603 v 2.965711 c 0,0.548375 -0.44176,0.989603 -0.99012,0.989603 h -6.07147 c -0.54838,0 -0.9896,-0.441228 -0.9896,-0.989603 v -2.965711 c 0,-0.548376 0.44122,-0.989603 0.9896,-0.989603 z m -120.64948,10.236585 h 6.07095 c 0.54837,0 0.99063,0.44123 0.99063,0.9896 v 2.96571 c 0,0.54838 -0.44226,0.99012 -0.99063,0.99012 h -6.07095 c -0.54838,0 -0.99012,-0.44174 -0.99012,-0.99012 v -2.96571 c 0,-0.54837 0.44174,-0.9896 0.99012,-0.9896 z m 120.64948,0 h 6.07147 c 0.54836,0 0.99012,0.44123 0.99012,0.9896 v 2.96571 c 0,0.54838 -0.44176,0.99012 -0.99012,0.99012 h -6.07147 c -0.54838,0 -0.9896,-0.44174 -0.9896,-0.99012 v -2.96571 c 0,-0.54837 0.44122,-0.9896 0.9896,-0.9896 z m -120.64948,10.2371 h 6.07095 c 0.54837,0 0.99063,0.44123 0.99063,0.9896 v 2.96571 c 0,0.54838 -0.44226,0.98961 -0.99063,0.98961 h -6.07095 c -0.54838,0 -0.99012,-0.44123 -0.99012,-0.98961 v -2.96571 c 0,-0.54837 0.44174,-0.9896 0.99012,-0.9896 z m 120.64948,0 h 6.07147 c 0.54836,0 0.99012,0.44123 0.99012,0.9896 v 2.96571 c 0,0.54838 -0.44176,0.98961 -0.99012,0.98961 h -6.07147 c -0.54838,0 -0.9896,-0.44123 -0.9896,-0.98961 v -2.96571 c 0,-0.54837 0.44122,-0.9896 0.9896,-0.9896 z m -120.64948,10.23658 h 6.07095 c 0.54837,0 0.99063,0.44123 0.99063,0.98961 v 2.96571 c 0,0.54838 -0.44226,0.99012 -0.99063,0.99012 h -6.07095 c -0.54838,0 -0.99012,-0.44174 -0.99012,-0.99012 v -2.96571 c 0,-0.54838 0.44174,-0.98961 0.99012,-0.98961 z m 120.64948,0 h 6.07147 c 0.54836,0 0.99012,0.44123 0.99012,0.98961 v 2.96571 c 0,0.54838 -0.44176,0.99012 -0.99012,0.99012 h -6.07147 c -0.54838,0 -0.9896,-0.44174 -0.9896,-0.99012 v -2.96571 c 0,-0.54838 0.44122,-0.98961 0.9896,-0.98961 z m -120.64948,10.237104 h 6.07095 c 0.54837,0 0.99063,0.44123 0.99063,0.98961 v 2.96571 c 0,0.54838 -0.44226,0.9896 -0.99063,0.9896 h -6.07095 c -0.54838,0 -0.99012,-0.44122 -0.99012,-0.9896 v -2.96571 c 0,-0.54838 0.44174,-0.98961 0.99012,-0.98961 z m 120.64948,0 h 6.07147 c 0.54836,0 0.99012,0.44123 0.99012,0.98961 v 2.96571 c 0,0.54838 -0.44176,0.9896 -0.99012,0.9896 h -6.07147 c -0.54838,0 -0.9896,-0.44122 -0.9896,-0.9896 v -2.96571 c 0,-0.54838 0.44122,-0.98961 0.9896,-0.98961 z m -120.64948,10.23659 h 6.07095 c 0.54837,0 0.99063,0.44123 0.99063,0.9896 v 2.96571 c 0,0.54838 -0.44226,0.99012 -0.99063,0.99012 h -6.07095 c -0.54838,0 -0.99012,-0.44174 -0.99012,-0.99012 v -2.96571 c 0,-0.54837 0.44174,-0.9896 0.99012,-0.9896 z m 120.64948,0 h 6.07147 c 0.54836,0 0.99012,0.44123 0.99012,0.9896 v 2.96571 c 0,0.54838 -0.44176,0.99012 -0.99012,0.99012 h -6.07147 c -0.54838,0 -0.9896,-0.44174 -0.9896,-0.99012 v -2.96571 c 0,-0.54837 0.44122,-0.9896 0.9896,-0.9896 z m -120.64948,10.237099 h 6.07095 c 0.54837,0 0.99063,0.44123 0.99063,0.9896 v 2.96571 c 0,0.54838 -0.44226,0.98961 -0.99063,0.98961 h -6.07095 c -0.54838,0 -0.99012,-0.44123 -0.99012,-0.98961 v -2.96571 c 0,-0.54837 0.44174,-0.9896 0.99012,-0.9896 z m 120.64948,0 h 6.07147 c 0.54836,0 0.99012,0.44123 0.99012,0.9896 v 2.96571 c 0,0.54837 -0.44176,0.98961 -0.99012,0.98961 h -6.07147 c -0.54838,0 -0.9896,-0.44124 -0.9896,-0.98961 v -2.96571 c 0,-0.54837 0.44122,-0.9896 0.9896,-0.9896 z m -120.64948,10.236578 h 6.07095 c 0.54837,0 0.99063,0.44123 0.99063,0.98961 V 106.13 c 0,0.54837 -0.44226,0.99012 -0.99063,0.99012 h -6.07095 c -0.54838,0 -0.99012,-0.44175 -0.99012,-0.99012 v -2.96571 c 0,-0.54838 0.44174,-0.98961 0.99012,-0.98961 z m 120.64948,0 h 6.07147 c 0.54836,0 0.99012,0.44123 0.99012,0.98961 V 106.13 c 0,0.54838 -0.44176,0.99012 -0.99012,0.99012 h -6.07147 c -0.54838,0 -0.9896,-0.44174 -0.9896,-0.99012 v -2.96571 c 0,-0.54838 0.44122,-0.98961 0.9896,-0.98961 z m -120.64948,10.2371 h 6.07095 c 0.54837,0 0.99063,0.44123 0.99063,0.98961 v 2.96571 c 0,0.54838 -0.44226,0.9896 -0.99063,0.9896 h -6.07095 c -0.54838,0 -0.99012,-0.44122 -0.99012,-0.9896 v -2.96571 c 0,-0.54838 0.44174,-0.98961 0.99012,-0.98961 z m 120.64948,0 h 6.07147 c 0.54836,0 0.99012,0.44123 0.99012,0.98961 v 2.96571 c 0,0.54838 -0.44176,0.9896 -0.99012,0.9896 h -6.07147 c -0.54838,0 -0.9896,-0.44122 -0.9896,-0.9896 v -2.96571 c 0,-0.54838 0.44122,-0.98961 0.9896,-0.98961 z m -120.64948,10.2366 h 6.07095 c 0.54837,0 0.99063,0.44123 0.99063,0.9896 v 2.96571 c 0,0.54837 -0.44226,0.99013 -0.99063,0.99013 h -6.07095 c -0.54838,0 -0.99012,-0.44176 -0.99012,-0.99013 v -2.96571 c 0,-0.54837 0.44174,-0.9896 0.99012,-0.9896 z m 120.64948,0 h 6.07147 c 0.54836,0 0.99012,0.44123 0.99012,0.9896 v 2.96571 c 0,0.54837 -0.44176,0.99013 -0.99012,0.99013 h -6.07147 c -0.54838,0 -0.9896,-0.44176 -0.9896,-0.99013 v -2.96571 c 0,-0.54837 0.44122,-0.9896 0.9896,-0.9896 z m -120.64948,10.2371 h 6.07095 c 0.54837,0 0.99063,0.44122 0.99063,0.9896 v 2.96571 c 0,0.54838 -0.44226,0.98961 -0.99063,0.98961 h -6.07095 c -0.54838,0 -0.99012,-0.44123 -0.99012,-0.98961 v -2.96571 c 0,-0.54838 0.44174,-0.9896 0.99012,-0.9896 z m 120.64948,0 h 6.07147 c 0.54836,0 0.99012,0.44122 0.99012,0.9896 v 2.96571 c 0,0.54838 -0.44176,0.98961 -0.99012,0.98961 h -6.07147 c -0.54838,0 -0.9896,-0.44123 -0.9896,-0.98961 v -2.96571 c 0,-0.54838 0.44122,-0.9896 0.9896,-0.9896 z" /><path
         id="rect792-97"
         style="display:inline;opacity:0.4;fill:url(#linearGradient22577);fill-opacity:1;stroke-width:1.37583;stroke-linecap:round;stroke-linejoin:round;paint-order:stroke fill markers"
         d="M -166.71889,11.32184 V 146.7885 h 3.38274 v -2.67632 c 0,-0.54838 0.44174,-0.99012 0.99012,-0.99012 h 6.07095 c 0.54837,0 0.99063,0.44174 0.99063,0.99012 v 2.67632 h 112.5983 v -2.67632 c 0,-0.54838 0.44122,-0.99012 0.9896,-0.99012 h 6.07147 c 0.54836,0 0.99012,0.44173 0.99012,0.99012 v 2.67632 h 3.38273 V 11.32184 h -3.38273 v 2.676839 c 0,0.548376 -0.44176,0.989604 -0.99012,0.989604 h -6.07147 c -0.54838,0 -0.9896,-0.441228 -0.9896,-0.989604 V 11.32184 h -112.5983 v 2.676839 c 0,0.548376 -0.44226,0.989604 -0.99063,0.989604 h -6.07095 c -0.54838,0 -0.99012,-0.441228 -0.99012,-0.989604 V 11.32184 Z m 4.37286,8.958109 h 6.07095 c 0.54837,0 0.99063,0.441228 0.99063,0.989604 v 2.965711 c 0,0.548376 -0.44226,0.99012 -0.99063,0.99012 h -6.07095 c -0.54838,0 -0.99012,-0.441744 -0.99012,-0.99012 v -2.965711 c 0,-0.548376 0.44174,-0.989604 0.99012,-0.989604 z m 120.64948,0 h 6.07147 c 0.54836,0 0.99012,0.441228 0.99012,0.989604 v 2.965711 c 0,0.548376 -0.44176,0.99012 -0.99012,0.99012 h -6.07147 c -0.54838,0 -0.9896,-0.441744 -0.9896,-0.99012 v -2.965711 c 0,-0.548376 0.44122,-0.989604 0.9896,-0.989604 z m -120.64948,10.237102 h 6.07095 c 0.54837,0 0.99063,0.441227 0.99063,0.989603 v 2.965711 c 0,0.548375 -0.44226,0.989603 -0.99063,0.989603 h -6.07095 c -0.54838,0 -0.99012,-0.441228 -0.99012,-0.989603 v -2.965711 c 0,-0.548376 0.44174,-0.989603 0.99012,-0.989603 z m 120.64948,0 h 6.07147 c 0.54836,0 0.99012,0.441227 0.99012,0.989603 v 2.965711 c 0,0.548375 -0.44176,0.989603 -0.99012,0.989603 h -6.07147 c -0.54838,0 -0.9896,-0.441228 -0.9896,-0.989603 v -2.965711 c 0,-0.548376 0.44122,-0.989603 0.9896,-0.989603 z m -120.64948,10.236585 h 6.07095 c 0.54837,0 0.99063,0.44123 0.99063,0.9896 v 2.96571 c 0,0.54838 -0.44226,0.99012 -0.99063,0.99012 h -6.07095 c -0.54838,0 -0.99012,-0.44174 -0.99012,-0.99012 v -2.96571 c 0,-0.54837 0.44174,-0.9896 0.99012,-0.9896 z m 120.64948,0 h 6.07147 c 0.54836,0 0.99012,0.44123 0.99012,0.9896 v 2.96571 c 0,0.54838 -0.44176,0.99012 -0.99012,0.99012 h -6.07147 c -0.54838,0 -0.9896,-0.44174 -0.9896,-0.99012 v -2.96571 c 0,-0.54837 0.44122,-0.9896 0.9896,-0.9896 z m -120.64948,10.2371 h 6.07095 c 0.54837,0 0.99063,0.44123 0.99063,0.9896 v 2.96571 c 0,0.54838 -0.44226,0.98961 -0.99063,0.98961 h -6.07095 c -0.54838,0 -0.99012,-0.44123 -0.99012,-0.98961 v -2.96571 c 0,-0.54837 0.44174,-0.9896 0.99012,-0.9896 z m 120.64948,0 h 6.07147 c 0.54836,0 0.99012,0.44123 0.99012,0.9896 v 2.96571 c 0,0.54838 -0.44176,0.98961 -0.99012,0.98961 h -6.07147 c -0.54838,0 -0.9896,-0.44123 -0.9896,-0.98961 v -2.96571 c 0,-0.54837 0.44122,-0.9896 0.9896,-0.9896 z m -120.64948,10.23658 h 6.07095 c 0.54837,0 0.99063,0.44123 0.99063,0.98961 v 2.96571 c 0,0.54838 -0.44226,0.99012 -0.99063,0.99012 h -6.07095 c -0.54838,0 -0.99012,-0.44174 -0.99012,-0.99012 v -2.96571 c 0,-0.54838 0.44174,-0.98961 0.99012,-0.98961 z m 120.64948,0 h 6.07147 c 0.54836,0 0.99012,0.44123 0.99012,0.98961 v 2.96571 c 0,0.54838 -0.44176,0.99012 -0.99012,0.99012 h -6.07147 c -0.54838,0 -0.9896,-0.44174 -0.9896,-0.99012 v -2.96571 c 0,-0.54838 0.44122,-0.98961 0.9896,-0.98961 z m -120.64948,10.2371 h 6.07095 c 0.54837,0 0.99063,0.44123 0.99063,0.98961 v 2.96571 c 0,0.54838 -0.44226,0.9896 -0.99063,0.9896 h -6.07095 c -0.54838,0 -0.99012,-0.44122 -0.99012,-0.9896 v -2.96571 c 0,-0.54838 0.44174,-0.98961 0.99012,-0.98961 z m 120.64948,0 h 6.07147 c 0.54836,0 0.99012,0.44123 0.99012,0.98961 v 2.96571 c 0,0.54838 -0.44176,0.9896 -0.99012,0.9896 h -6.07147 c -0.54838,0 -0.9896,-0.44122 -0.9896,-0.9896 v -2.96571 c 0,-0.54838 0.44122,-0.98961 0.9896,-0.98961 z m -120.64948,10.23659 h 6.07095 c 0.54837,0 0.99063,0.44123 0.99063,0.9896 v 2.96571 c 0,0.54838 -0.44226,0.99012 -0.99063,0.99012 h -6.07095 c -0.54838,0 -0.99012,-0.44174 -0.99012,-0.99012 v -2.96571 c 0,-0.54837 0.44174,-0.9896 0.99012,-0.9896 z m 120.64948,0 h 6.07147 c 0.54836,0 0.99012,0.44123 0.99012,0.9896 v 2.96571 c 0,0.54838 -0.44176,0.99012 -0.99012,0.99012 h -6.07147 c -0.54838,0 -0.9896,-0.44174 -0.9896,-0.99012 v -2.96571 c 0,-0.54837 0.44122,-0.9896 0.9896,-0.9896 z m -120.64948,10.2371 h 6.07095 c 0.54837,0 0.99063,0.44123 0.99063,0.9896 v 2.96571 c 0,0.54838 -0.44226,0.98961 -0.99063,0.98961 h -6.07095 c -0.54838,0 -0.99012,-0.44123 -0.99012,-0.98961 v -2.96571 c 0,-0.54837 0.44174,-0.9896 0.99012,-0.9896 z m 120.64948,0 h 6.07147 c 0.54836,0 0.99012,0.44123 0.99012,0.9896 v 2.96571 c 0,0.54837 -0.44176,0.98961 -0.99012,0.98961 h -6.07147 c -0.54838,0 -0.9896,-0.44124 -0.9896,-0.98961 v -2.96571 c 0,-0.54837 0.44122,-0.9896 0.9896,-0.9896 z m -120.64948,10.236584 h 6.07095 c 0.54837,0 0.99063,0.44123 0.99063,0.98961 v 2.96571 c 0,0.54837 -0.44226,0.99012 -0.99063,0.99012 h -6.07095 c -0.54838,0 -0.99012,-0.44175 -0.99012,-0.99012 v -2.96571 c 0,-0.54838 0.44174,-0.98961 0.99012,-0.98961 z m 120.64948,0 h 6.07147 c 0.54836,0 0.99012,0.44123 0.99012,0.98961 v 2.96571 c 0,0.54838 -0.44176,0.99012 -0.99012,0.99012 h -6.07147 c -0.54838,0 -0.9896,-0.44174 -0.9896,-0.99012 v -2.96571 c 0,-0.54838 0.44122,-0.98961 0.9896,-0.98961 z m -120.64948,10.2371 h 6.07095 c 0.54837,0 0.99063,0.44123 0.99063,0.98961 v 2.96571 c 0,0.54838 -0.44226,0.9896 -0.99063,0.9896 h -6.07095 c -0.54838,0 -0.99012,-0.44122 -0.99012,-0.9896 v -2.96571 c 0,-0.54838 0.44174,-0.98961 0.99012,-0.98961 z m 120.64948,0 h 6.07147 c 0.54836,0 0.99012,0.44123 0.99012,0.98961 v 2.96571 c 0,0.54838 -0.44176,0.9896 -0.99012,0.9896 h -6.07147 c -0.54838,0 -0.9896,-0.44122 -0.9896,-0.9896 v -2.96571 c 0,-0.54838 0.44122,-0.98961 0.9896,-0.98961 z m -120.64948,10.23659 h 6.07095 c 0.54837,0 0.99063,0.44122 0.99063,0.9896 v 2.96571 c 0,0.54837 -0.44226,0.99012 -0.99063,0.99012 h -6.07095 c -0.54838,0 -0.99012,-0.44175 -0.99012,-0.99012 v -2.96571 c 0,-0.54838 0.44174,-0.9896 0.99012,-0.9896 z m 120.64948,0 h 6.07147 c 0.54836,0 0.99012,0.44122 0.99012,0.9896 v 2.96571 c 0,0.54837 -0.44176,0.99012 -0.99012,0.99012 h -6.07147 c -0.54838,0 -0.9896,-0.44175 -0.9896,-0.99012 v -2.96571 c 0,-0.54838 0.44122,-0.9896 0.9896,-0.9896 z m -120.64948,10.2371 h 6.07095 c 0.54837,0 0.99063,0.44122 0.99063,0.9896 v 2.96571 c 0,0.54838 -0.44226,0.98961 -0.99063,0.98961 h -6.07095 c -0.54838,0 -0.99012,-0.44123 -0.99012,-0.98961 v -2.96571 c 0,-0.54838 0.44174,-0.9896 0.99012,-0.9896 z m 120.64948,0 h 6.07147 c 0.54836,0 0.99012,0.44122 0.99012,0.9896 v 2.96571 c 0,0.54838 -0.44176,0.98961 -0.99012,0.98961 h -6.07147 c -0.54838,0 -0.9896,-0.44123 -0.9896,-0.98961 v -2.96571 c 0,-0.54838 0.44122,-0.9896 0.9896,-0.9896 z" /><path
         id="rect792-97-1"
         style="display:inline;opacity:0.4;mix-blend-mode:overlay;fill:url(#radialGradient27020);fill-opacity:1;stroke-width:1.37583;stroke-linecap:round;stroke-linejoin:round;paint-order:stroke fill markers"
         d="M -166.71889,11.321834 V 146.78851 h 3.38274 v -2.67632 c 0,-0.54839 0.44174,-0.99013 0.99012,-0.99013 h 6.07095 c 0.54837,0 0.99063,0.44174 0.99063,0.99013 v 2.67632 h 112.5983 v -2.67632 c 0,-0.54839 0.44122,-0.99013 0.9896,-0.99013 h 6.07147 c 0.54836,0 0.99012,0.44173 0.99012,0.99013 v 2.67632 h 3.38273 V 11.321834 h -3.38273 v 2.67684 c 0,0.548375 -0.44176,0.989604 -0.99012,0.989604 h -6.07147 c -0.54838,0 -0.9896,-0.441229 -0.9896,-0.989604 v -2.67684 h -112.5983 v 2.67684 c 0,0.548375 -0.44226,0.989604 -0.99063,0.989604 h -6.07095 c -0.54838,0 -0.99012,-0.441229 -0.99012,-0.989604 v -2.67684 z m 4.37286,8.95811 h 6.07095 c 0.54837,0 0.99063,0.441228 0.99063,0.989603 v 2.965711 c 0,0.548376 -0.44226,0.99012 -0.99063,0.99012 h -6.07095 c -0.54838,0 -0.99012,-0.441744 -0.99012,-0.99012 v -2.965711 c 0,-0.548375 0.44174,-0.989603 0.99012,-0.989603 z m 120.64948,0 h 6.07147 c 0.54836,0 0.99012,0.441228 0.99012,0.989603 v 2.965711 c 0,0.548376 -0.44176,0.99012 -0.99012,0.99012 h -6.07147 c -0.54838,0 -0.9896,-0.441744 -0.9896,-0.99012 v -2.965711 c 0,-0.548375 0.44122,-0.989603 0.9896,-0.989603 z m -120.64948,10.237101 h 6.07095 c 0.54837,0 0.99063,0.441227 0.99063,0.989603 v 2.965711 c 0,0.548375 -0.44226,0.989603 -0.99063,0.989603 h -6.07095 c -0.54838,0 -0.99012,-0.441228 -0.99012,-0.989603 v -2.965711 c 0,-0.548376 0.44174,-0.989603 0.99012,-0.989603 z m 120.64948,0 h 6.07147 c 0.54836,0 0.99012,0.441227 0.99012,0.989603 v 2.965711 c 0,0.548375 -0.44176,0.989603 -0.99012,0.989603 h -6.07147 c -0.54838,0 -0.9896,-0.441228 -0.9896,-0.989603 v -2.965711 c 0,-0.548376 0.44122,-0.989603 0.9896,-0.989603 z M -162.34603,40.75363 h 6.07095 c 0.54837,0 0.99063,0.44123 0.99063,0.9896 v 2.96571 c 0,0.54838 -0.44226,0.99012 -0.99063,0.99012 h -6.07095 c -0.54838,0 -0.99012,-0.44174 -0.99012,-0.99012 v -2.96571 c 0,-0.54837 0.44174,-0.9896 0.99012,-0.9896 z m 120.64948,0 h 6.07147 c 0.54836,0 0.99012,0.44123 0.99012,0.9896 v 2.96571 c 0,0.54838 -0.44176,0.99012 -0.99012,0.99012 h -6.07147 c -0.54838,0 -0.9896,-0.44174 -0.9896,-0.99012 v -2.96571 c 0,-0.54837 0.44122,-0.9896 0.9896,-0.9896 z m -120.64948,10.2371 h 6.07095 c 0.54837,0 0.99063,0.44123 0.99063,0.9896 v 2.96571 c 0,0.54838 -0.44226,0.98961 -0.99063,0.98961 h -6.07095 c -0.54838,0 -0.99012,-0.44123 -0.99012,-0.98961 v -2.96571 c 0,-0.54837 0.44174,-0.9896 0.99012,-0.9896 z m 120.64948,0 h 6.07147 c 0.54836,0 0.99012,0.44123 0.99012,0.9896 v 2.96571 c 0,0.54838 -0.44176,0.98961 -0.99012,0.98961 h -6.07147 c -0.54838,0 -0.9896,-0.44123 -0.9896,-0.98961 v -2.96571 c 0,-0.54837 0.44122,-0.9896 0.9896,-0.9896 z m -120.64948,10.23658 h 6.07095 c 0.54837,0 0.99063,0.44123 0.99063,0.98961 v 2.96571 c 0,0.54838 -0.44226,0.99012 -0.99063,0.99012 h -6.07095 c -0.54838,0 -0.99012,-0.44174 -0.99012,-0.99012 v -2.96571 c 0,-0.54838 0.44174,-0.98961 0.99012,-0.98961 z m 120.64948,0 h 6.07147 c 0.54836,0 0.99012,0.44123 0.99012,0.98961 v 2.96571 c 0,0.54838 -0.44176,0.99012 -0.99012,0.99012 h -6.07147 c -0.54838,0 -0.9896,-0.44174 -0.9896,-0.99012 v -2.96571 c 0,-0.54838 0.44122,-0.98961 0.9896,-0.98961 z m -120.64948,10.237104 h 6.07095 c 0.54837,0 0.99063,0.44123 0.99063,0.98961 v 2.96571 c 0,0.54838 -0.44226,0.9896 -0.99063,0.9896 h -6.07095 c -0.54838,0 -0.99012,-0.44122 -0.99012,-0.9896 v -2.96571 c 0,-0.54838 0.44174,-0.98961 0.99012,-0.98961 z m 120.64948,0 h 6.07147 c 0.54836,0 0.99012,0.44123 0.99012,0.98961 v 2.96571 c 0,0.54838 -0.44176,0.9896 -0.99012,0.9896 h -6.07147 c -0.54838,0 -0.9896,-0.44122 -0.9896,-0.9896 v -2.96571 c 0,-0.54838 0.44122,-0.98961 0.9896,-0.98961 z m -120.64948,10.23659 h 6.07095 c 0.54837,0 0.99063,0.44123 0.99063,0.9896 v 2.96571 c 0,0.54838 -0.44226,0.99012 -0.99063,0.99012 h -6.07095 c -0.54838,0 -0.99012,-0.44174 -0.99012,-0.99012 v -2.96571 c 0,-0.54837 0.44174,-0.9896 0.99012,-0.9896 z m 120.64948,0 h 6.07147 c 0.54836,0 0.99012,0.44123 0.99012,0.9896 v 2.96571 c 0,0.54838 -0.44176,0.99012 -0.99012,0.99012 h -6.07147 c -0.54838,0 -0.9896,-0.44174 -0.9896,-0.99012 v -2.96571 c 0,-0.54837 0.44122,-0.9896 0.9896,-0.9896 z m -120.64948,10.2371 h 6.07095 c 0.54837,0 0.99063,0.44123 0.99063,0.9896 v 2.96571 c 0,0.54838 -0.44226,0.98961 -0.99063,0.98961 h -6.07095 c -0.54838,0 -0.99012,-0.44123 -0.99012,-0.98961 v -2.96571 c 0,-0.54837 0.44174,-0.9896 0.99012,-0.9896 z m 120.64948,0 h 6.07147 c 0.54836,0 0.99012,0.44123 0.99012,0.9896 v 2.96571 c 0,0.54837 -0.44176,0.98961 -0.99012,0.98961 h -6.07147 c -0.54838,0 -0.9896,-0.44124 -0.9896,-0.98961 v -2.96571 c 0,-0.54837 0.44122,-0.9896 0.9896,-0.9896 z m -120.64948,10.236576 h 6.07095 c 0.54837,0 0.99063,0.44123 0.99063,0.98961 V 106.13 c 0,0.54837 -0.44226,0.99012 -0.99063,0.99012 h -6.07095 c -0.54838,0 -0.99012,-0.44175 -0.99012,-0.99012 v -2.96571 c 0,-0.54838 0.44174,-0.98961 0.99012,-0.98961 z m 120.64948,0 h 6.07147 c 0.54836,0 0.99012,0.44123 0.99012,0.98961 V 106.13 c 0,0.54838 -0.44176,0.99012 -0.99012,0.99012 h -6.07147 c -0.54838,0 -0.9896,-0.44174 -0.9896,-0.99012 v -2.96571 c 0,-0.54838 0.44122,-0.98961 0.9896,-0.98961 z m -120.64948,10.2371 h 6.07095 c 0.54837,0 0.99063,0.44123 0.99063,0.98961 v 2.96571 c 0,0.54838 -0.44226,0.9896 -0.99063,0.9896 h -6.07095 c -0.54838,0 -0.99012,-0.44122 -0.99012,-0.9896 v -2.96571 c 0,-0.54838 0.44174,-0.98961 0.99012,-0.98961 z m 120.64948,0 h 6.07147 c 0.54836,0 0.99012,0.44123 0.99012,0.98961 v 2.96571 c 0,0.54838 -0.44176,0.9896 -0.99012,0.9896 h -6.07147 c -0.54838,0 -0.9896,-0.44122 -0.9896,-0.9896 v -2.96571 c 0,-0.54838 0.44122,-0.98961 0.9896,-0.98961 z m -120.64948,10.2366 h 6.07095 c 0.54837,0 0.99063,0.44123 0.99063,0.9896 v 2.96571 c 0,0.54837 -0.44226,0.99013 -0.99063,0.99013 h -6.07095 c -0.54838,0 -0.99012,-0.44176 -0.99012,-0.99013 v -2.96571 c 0,-0.54837 0.44174,-0.9896 0.99012,-0.9896 z m 120.64948,0 h 6.07147 c 0.54836,0 0.99012,0.44123 0.99012,0.9896 v 2.96571 c 0,0.54837 -0.44176,0.99013 -0.99012,0.99013 h -6.07147 c -0.54838,0 -0.9896,-0.44176 -0.9896,-0.99013 v -2.96571 c 0,-0.54837 0.44122,-0.9896 0.9896,-0.9896 z m -120.64948,10.2371 h 6.07095 c 0.54837,0 0.99063,0.44122 0.99063,0.9896 v 2.96571 c 0,0.54838 -0.44226,0.98961 -0.99063,0.98961 h -6.07095 c -0.54838,0 -0.99012,-0.44123 -0.99012,-0.98961 v -2.96571 c 0,-0.54838 0.44174,-0.9896 0.99012,-0.9896 z m 120.64948,0 h 6.07147 c 0.54836,0 0.99012,0.44122 0.99012,0.9896 v 2.96571 c 0,0.54838 -0.44176,0.98961 -0.99012,0.98961 h -6.07147 c -0.54838,0 -0.9896,-0.44123 -0.9896,-0.98961 v -2.96571 c 0,-0.54838 0.44122,-0.9896 0.9896,-0.9896 z" /><path
         id="rect16913-28-5"
         style="display:inline;opacity:0.2;mix-blend-mode:difference;fill:#d5ff00;fill-opacity:1;stroke-width:1.56974;stroke-linecap:round;stroke-linejoin:round;paint-order:stroke fill markers"
         d="m -151.03109,11.164693 c 0,4.966778 3.99856,8.965344 8.96534,8.965344 h 86.160636 c 4.96678,0 8.965344,-3.998566 8.965344,-8.965344 z m 8.96534,15.844511 c -4.96677,0 -8.96534,3.998566 -8.96534,8.965344 V 122.1357 c 0,4.96677 3.99857,8.96534 8.96534,8.96534 h 86.160636 c 4.966778,0 8.965344,-3.99857 8.965344,-8.96534 V 35.974548 c 0,-4.966778 -3.998566,-8.965344 -8.965344,-8.965344 z m 0,110.971006 c -4.96678,0 -8.96534,3.99856 -8.96534,8.96534 h 104.09132 c 0,-4.96678 -3.998564,-8.96534 -8.965344,-8.96534 z" /><path
         id="rect792-97-1-5-3"
         style="display:inline;mix-blend-mode:overlay;fill:url(#radialGradient1);stroke-width:1.37583;stroke-linecap:round;stroke-linejoin:round;paint-order:stroke fill markers"
         d="M -31.25223,11.321831 V 146.78851 h -3.38274 v -2.67632 c 0,-0.5484 -0.44174,-0.99013 -0.99012,-0.99013 h -6.07095 c -0.54837,0 -0.99063,0.44173 -0.99063,0.99013 v 2.67632 h -112.59829 v -2.67632 c 0,-0.5484 -0.44122,-0.99013 -0.9896,-0.99013 h -6.07147 c -0.54836,0 -0.99012,0.44173 -0.99012,0.99013 v 2.67632 h -3.38274 V 11.321831 h 3.38274 v 2.67684 c 0,0.54838 0.44176,0.98961 0.99012,0.98961 h 6.07147 c 0.54838,0 0.9896,-0.44123 0.9896,-0.98961 v -2.67684 h 112.59829 v 2.67684 c 0,0.54838 0.44226,0.98961 0.99063,0.98961 h 6.07095 c 0.54838,0 0.99012,-0.44123 0.99012,-0.98961 v -2.67684 z m -4.37286,8.95811 h -6.07095 c -0.54837,0 -0.99063,0.44123 -0.99063,0.989609 v 2.96571 c 0,0.54837 0.44226,0.99012 0.99063,0.99012 h 6.07095 c 0.54838,0 0.99012,-0.44175 0.99012,-0.99012 v -2.965709 c 0,-0.54838 -0.44174,-0.98961 -0.99012,-0.98961 z m -120.64947,0 h -6.07147 c -0.54836,0 -0.99012,0.44123 -0.99012,0.989609 v 2.96571 c 0,0.54837 0.44176,0.99012 0.99012,0.99012 h 6.07147 c 0.54838,0 0.9896,-0.44175 0.9896,-0.99012 v -2.965709 c 0,-0.54838 -0.44122,-0.98961 -0.9896,-0.98961 z M -35.62509,30.51704 h -6.07095 c -0.54837,0 -0.99063,0.44123 -0.99063,0.98961 v 2.96571 c 0,0.54837 0.44226,0.9896 0.99063,0.9896 h 6.07095 c 0.54838,0 0.99012,-0.44123 0.99012,-0.9896 v -2.96571 c 0,-0.54838 -0.44174,-0.98961 -0.99012,-0.98961 z m -120.64947,0 h -6.07147 c -0.54836,0 -0.99012,0.44123 -0.99012,0.98961 v 2.96571 c 0,0.54837 0.44176,0.9896 0.99012,0.9896 h 6.07147 c 0.54838,0 0.9896,-0.44123 0.9896,-0.9896 v -2.96571 c 0,-0.54838 -0.44122,-0.98961 -0.9896,-0.98961 z m 120.64947,10.236589 h -6.07095 c -0.54837,0 -0.99063,0.44123 -0.99063,0.9896 v 2.96571 c 0,0.54838 0.44226,0.99012 0.99063,0.99012 h 6.07095 c 0.54838,0 0.99012,-0.44174 0.99012,-0.99012 v -2.96571 c 0,-0.54837 -0.44174,-0.9896 -0.99012,-0.9896 z m -120.64947,0 h -6.07147 c -0.54836,0 -0.99012,0.44123 -0.99012,0.9896 v 2.96571 c 0,0.54838 0.44176,0.99012 0.99012,0.99012 h 6.07147 c 0.54838,0 0.9896,-0.44174 0.9896,-0.99012 v -2.96571 c 0,-0.54837 -0.44122,-0.9896 -0.9896,-0.9896 z m 120.64947,10.2371 h -6.07095 c -0.54837,0 -0.99063,0.44123 -0.99063,0.9896 v 2.96571 c 0,0.54838 0.44226,0.98961 0.99063,0.98961 h 6.07095 c 0.54838,0 0.99012,-0.44123 0.99012,-0.98961 v -2.96571 c 0,-0.54837 -0.44174,-0.9896 -0.99012,-0.9896 z m -120.64947,0 h -6.07147 c -0.54836,0 -0.99012,0.44123 -0.99012,0.9896 v 2.96571 c 0,0.54838 0.44176,0.98961 0.99012,0.98961 h 6.07147 c 0.54838,0 0.9896,-0.44123 0.9896,-0.98961 v -2.96571 c 0,-0.54837 -0.44122,-0.9896 -0.9896,-0.9896 z m 120.64947,10.23658 h -6.07095 c -0.54837,0 -0.99063,0.44123 -0.99063,0.98961 v 2.96571 c 0,0.54838 0.44226,0.99012 0.99063,0.99012 h 6.07095 c 0.54838,0 0.99012,-0.44174 0.99012,-0.99012 v -2.96571 c 0,-0.54838 -0.44174,-0.98961 -0.99012,-0.98961 z m -120.64947,0 h -6.07147 c -0.54836,0 -0.99012,0.44123 -0.99012,0.98961 v 2.96571 c 0,0.54838 0.44176,0.99012 0.99012,0.99012 h 6.07147 c 0.54838,0 0.9896,-0.44174 0.9896,-0.99012 v -2.96571 c 0,-0.54838 -0.44122,-0.98961 -0.9896,-0.98961 z m 120.64947,10.237104 h -6.07095 c -0.54837,0 -0.99063,0.44123 -0.99063,0.98961 v 2.96571 c 0,0.54838 0.44226,0.9896 0.99063,0.9896 h 6.07095 c 0.54838,0 0.99012,-0.44122 0.99012,-0.9896 v -2.96571 c 0,-0.54838 -0.44174,-0.98961 -0.99012,-0.98961 z m -120.64947,0 h -6.07147 c -0.54836,0 -0.99012,0.44123 -0.99012,0.98961 v 2.96571 c 0,0.54838 0.44176,0.9896 0.99012,0.9896 h 6.07147 c 0.54838,0 0.9896,-0.44122 0.9896,-0.9896 v -2.96571 c 0,-0.54838 -0.44122,-0.98961 -0.9896,-0.98961 z m 120.64947,10.23659 h -6.07095 c -0.54837,0 -0.99063,0.44123 -0.99063,0.9896 v 2.96571 c 0,0.54838 0.44226,0.99012 0.99063,0.99012 h 6.07095 c 0.54838,0 0.99012,-0.44174 0.99012,-0.99012 v -2.96571 c 0,-0.54837 -0.44174,-0.9896 -0.99012,-0.9896 z m -120.64947,0 h -6.07147 c -0.54836,0 -0.99012,0.44123 -0.99012,0.9896 v 2.96571 c 0,0.54838 0.44176,0.99012 0.99012,0.99012 h 6.07147 c 0.54838,0 0.9896,-0.44174 0.9896,-0.99012 v -2.96571 c 0,-0.54837 -0.44122,-0.9896 -0.9896,-0.9896 z m 120.64947,10.237099 h -6.07095 c -0.54837,0 -0.99063,0.44123 -0.99063,0.9896 v 2.96571 c 0,0.54838 0.44226,0.98961 0.99063,0.98961 h 6.07095 c 0.54838,0 0.99012,-0.44123 0.99012,-0.98961 v -2.96571 c 0,-0.54837 -0.44174,-0.9896 -0.99012,-0.9896 z m -120.64947,0 h -6.07147 c -0.54836,0 -0.99012,0.44123 -0.99012,0.9896 v 2.96571 c 0,0.54837 0.44176,0.98961 0.99012,0.98961 h 6.07147 c 0.54838,0 0.9896,-0.44124 0.9896,-0.98961 v -2.96571 c 0,-0.54837 -0.44122,-0.9896 -0.9896,-0.9896 z m 120.64947,10.236578 h -6.07095 c -0.54837,0 -0.99063,0.44123 -0.99063,0.98961 V 106.13 c 0,0.54837 0.44226,0.99012 0.99063,0.99012 h 6.07095 c 0.54838,0 0.99012,-0.44175 0.99012,-0.99012 v -2.96571 c 0,-0.54838 -0.44174,-0.98961 -0.99012,-0.98961 z m -120.64947,0 h -6.07147 c -0.54836,0 -0.99012,0.44123 -0.99012,0.98961 V 106.13 c 0,0.54838 0.44176,0.99012 0.99012,0.99012 h 6.07147 c 0.54838,0 0.9896,-0.44174 0.9896,-0.99012 v -2.96571 c 0,-0.54838 -0.44122,-0.98961 -0.9896,-0.98961 z m 120.64947,10.23709 h -6.07095 c -0.54837,0 -0.99063,0.44124 -0.99063,0.98961 v 2.96572 c 0,0.54837 0.44226,0.98959 0.99063,0.98959 h 6.07095 c 0.54838,0 0.99012,-0.44122 0.99012,-0.98959 v -2.96572 c 0,-0.54837 -0.44174,-0.98961 -0.99012,-0.98961 z m -120.64947,0 h -6.07147 c -0.54836,0 -0.99012,0.44124 -0.99012,0.98961 v 2.96572 c 0,0.54837 0.44176,0.98959 0.99012,0.98959 h 6.07147 c 0.54838,0 0.9896,-0.44122 0.9896,-0.98959 v -2.96572 c 0,-0.54837 -0.44122,-0.98961 -0.9896,-0.98961 z m 120.64947,10.2366 h -6.07095 c -0.54837,0 -0.99063,0.44123 -0.99063,0.9896 v 2.96571 c 0,0.54837 0.44226,0.99013 0.99063,0.99013 h 6.07095 c 0.54838,0 0.99012,-0.44176 0.99012,-0.99013 v -2.96571 c 0,-0.54837 -0.44174,-0.9896 -0.99012,-0.9896 z m -120.64947,0 h -6.07147 c -0.54836,0 -0.99012,0.44123 -0.99012,0.9896 v 2.96571 c 0,0.54837 0.44176,0.99013 0.99012,0.99013 h 6.07147 c 0.54838,0 0.9896,-0.44176 0.9896,-0.99013 v -2.96571 c 0,-0.54837 -0.44122,-0.9896 -0.9896,-0.9896 z m 120.64947,10.2371 h -6.07095 c -0.54837,0 -0.99063,0.44122 -0.99063,0.9896 v 2.96571 c 0,0.54838 0.44226,0.98961 0.99063,0.98961 h 6.07095 c 0.54838,0 0.99012,-0.44123 0.99012,-0.98961 v -2.96571 c 0,-0.54838 -0.44174,-0.9896 -0.99012,-0.9896 z m -120.64947,0 h -6.07147 c -0.54836,0 -0.99012,0.44122 -0.99012,0.9896 v 2.96571 c 0,0.54838 0.44176,0.98961 0.99012,0.98961 h 6.07147 c 0.54838,0 0.9896,-0.44123 0.9896,-0.98961 v -2.96571 c 0,-0.54838 -0.44122,-0.9896 -0.9896,-0.9896 z" /><path
         id="rect792-97-1-5-4"
         style="display:inline;opacity:0.6;mix-blend-mode:normal;fill:url(#linearGradient39052);fill-opacity:1;stroke-width:1.37583;stroke-linecap:round;stroke-linejoin:round;paint-order:stroke fill markers"
         d="m -32.31748,82.138246 c -2.24472,-1.651014 -4.56151,-3.203745 -6.92969,-4.671875 1.44772,-0.03541 2.92624,0.116848 4.35352,-0.130859 1.26404,-0.450178 1.45655,-1.972329 1.29273,-3.127329 0.0489,-1.217888 0.24911,-2.876278 -1.04956,-3.537676 -1.15348,-0.530152 -2.4629,-0.147313 -3.68378,-0.260516 -1.36687,0.04145 -2.76434,-0.130796 -4.11017,0.130599 -1.22886,0.436468 -1.44811,1.90707 -1.3041,3.038664 -0.072,0.348107 0.1704,1.266274 -0.17861,1.132456 -13.7471,-7.676651 -23.235463,-16.456808 -49.719045,-18.079321 -26.483585,-1.622513 -40.161065,7.439451 -60.604885,-3.146487 0.0887,-1.13938 0.1643,-2.648657 -1.01953,-3.269531 -1.15782,-0.563433 -2.48175,-0.160327 -3.71366,-0.28027 -1.40345,0.04722 -2.84979,-0.164743 -4.2219,0.178708 -1.19558,0.503873 -1.30182,1.961154 -1.19531,3.079687 -0.063,0.544387 0.29334,1.462384 -0.59602,1.270547 -0.90879,0.39535 -0.6454,-0.524971 -0.6696,-1.1225 V 12.380434 c 0.45263,0.113304 1.47873,-0.321449 1.27017,0.432213 -0.13431,1.140243 0.0378,2.655016 1.30209,3.079506 1.1823,0.339424 2.43432,0.06188 3.64646,0.147471 1.33768,-0.03411 2.71934,0.155681 4.02543,-0.176768 1.30794,-0.57374 1.28892,-2.198056 1.17578,-3.400391 0.3929,-0.191673 1.15966,-0.02715 1.69609,-0.08203 h 108.81758 c -0.0725,1.183546 -0.1999,2.768761 1.05078,3.40625 1.158,0.516204 2.46261,0.145584 3.68474,0.254295 1.40322,-0.04414 2.84916,0.162781 4.22151,-0.17617 1.30971,-0.573442 1.29209,-2.198465 1.17968,-3.402344 0.25231,-0.05587 1.49235,-0.372488 1.2793,0.317969 z m -3.87891,-62.93164 c -2.00889,0.08367 -4.03368,-0.0822 -6.03515,0.07813 -1.23865,0.316945 -1.74417,1.739845 -1.50391,2.894531 0.0248,1.262077 -0.35511,2.949106 0.89844,3.759766 1.26106,0.648628 2.73646,0.228257 4.09296,0.34266 1.27781,-0.02928 2.58401,0.110657 3.84259,-0.127817 1.2186,-0.432125 1.48002,-1.897768 1.29882,-3.029297 0.0323,-1.239485 0.28778,-2.929487 -1.02378,-3.627137 -0.47659,-0.267922 -1.03646,-0.294872 -1.56997,-0.290831 z m -120.65039,0 c -2.01076,0.08485 -4.03818,-0.0847 -6.04102,0.08008 -1.23459,0.320005 -1.73383,1.739044 -1.49804,2.890625 0.0234,1.262604 -0.35227,2.945185 0.89648,3.759765 1.26142,0.650851 2.73763,0.230508 4.09491,0.34461 1.28078,-0.03126 2.59232,0.114831 3.85237,-0.131719 1.21542,-0.435825 1.47023,-1.896024 1.28906,-3.025391 0.0352,-1.239721 0.28626,-2.928809 -1.02356,-3.627547 -0.47699,-0.263846 -1.03679,-0.298762 -1.5702,-0.290421 z m 120.58789,10.236328 c -1.98906,0.08694 -3.99533,-0.08611 -5.97656,0.08008 -1.2394,0.316367 -1.73726,1.741512 -1.5,2.894531 0.026,1.260157 -0.35679,2.947247 0.89649,3.755859 1.26074,0.654042 2.73763,0.229889 4.09491,0.344612 1.27781,-0.02928 2.58401,0.110657 3.84259,-0.127817 1.22151,-0.428778 1.47976,-1.89842 1.29882,-3.029297 0.0266,-1.223765 0.28792,-2.853929 -0.95898,-3.591796 -0.51216,-0.302138 -1.11729,-0.33967 -1.69727,-0.326172 z m -120.65234,0 c -1.98842,0.08692 -3.99403,-0.08607 -5.97461,0.08008 -1.23916,0.315238 -1.73453,1.741007 -1.5,2.892578 0.0243,1.261484 -0.35391,2.945692 0.89648,3.757812 1.26155,0.650217 2.73765,0.230855 4.09491,0.34461 1.28031,-0.03011 2.58996,0.11249 3.85041,-0.129766 1.21795,-0.434839 1.47226,-1.896821 1.29102,-3.027344 0.0288,-1.222851 0.28742,-2.851559 -0.95703,-3.589843 -0.5118,-0.30482 -1.1206,-0.340915 -1.70118,-0.328125 z m 120.65234,10.236328 c -1.98906,0.08694 -3.99533,-0.08611 -5.97656,0.08008 -1.2394,0.316368 -1.73726,1.741512 -1.5,2.894531 0.0253,1.261275 -0.3555,2.946655 0.89649,3.757813 1.26167,0.651498 2.7391,0.228 4.09686,0.344137 1.27952,-0.03381 2.58956,0.112955 3.84845,-0.131249 1.26404,-0.450177 1.45655,-1.972329 1.29273,-3.127329 0.0489,-1.217887 0.24911,-2.876277 -1.04956,-3.537676 -0.49106,-0.266114 -1.06276,-0.289692 -1.60841,-0.280307 z m -120.65234,0 c -1.98842,0.08692 -3.99403,-0.08607 -5.97461,0.08008 -1.23916,0.315238 -1.73453,1.741008 -1.5,2.892578 0.0271,1.254242 -0.35156,2.904682 0.86133,3.738281 1.23857,0.681894 2.71331,0.247164 4.05779,0.364081 1.30552,-0.03188 2.6418,0.116045 3.92659,-0.131659 1.21524,-0.434715 1.46701,-1.897307 1.28711,-3.02539 0.0288,-1.222852 0.28742,-2.85156 -0.95703,-3.589844 -0.5118,-0.30482 -1.1206,-0.340914 -1.70118,-0.328125 z M -36.25889,49.91559 c -1.98906,0.08694 -3.99533,-0.08611 -5.97656,0.08008 -1.23701,0.319417 -1.7383,1.740882 -1.5,2.894531 0.027,1.255745 -0.35304,2.91411 0.86914,3.742188 1.23686,0.674654 2.70539,0.242286 4.04609,0.359715 1.30318,-0.03211 2.63459,0.109227 3.91876,-0.127295 1.2186,-0.432126 1.48002,-1.897769 1.29882,-3.029297 0.0249,-1.221311 0.28974,-2.849457 -0.95312,-3.587891 -0.51259,-0.304367 -1.12131,-0.346032 -1.70313,-0.332031 z m 0.0625,10.238281 c -2.00889,0.08367 -4.03368,-0.0822 -6.03515,0.07813 -1.23865,0.316945 -1.74417,1.739846 -1.50391,2.894532 0.0236,1.262691 -0.35311,2.947086 0.89844,3.759765 1.22758,0.642126 2.6699,0.233401 3.99296,0.341722 1.31106,-0.02951 2.65078,0.114334 3.94259,-0.126878 1.21938,-0.431336 1.47957,-1.897956 1.29882,-3.029302 0.0323,-1.239485 0.28778,-2.929487 -1.02378,-3.627137 -0.47659,-0.267923 -1.03646,-0.294873 -1.56997,-0.290832 z"
         sodipodi:nodetypes="ccccccccczccccccccccccccccccccccccccccccccccccccccccccccccscccccccsscccccccccscccccccsscccccccccccccccccc"
         inkscape:label="glare" /></g><path
       id="path10"
       style="display:none;fill:#cccccc;fill-opacity:1;fill-rule:evenodd;stroke-width:0.199894"
       d="m 83.148929,0 c 6.447088,22.363887 -22.759201,29.164261 -33.293575,43.091943 -7.173683,9.489489 3.52109,19.654787 18.102254,31.237369 -5.686243,-11.317686 -24.977368,-21.2357 0,-38.606428 C 99.104015,14.076675 83.148929,0 83.148929,0 Z m 19.194181,27.713037 c 3.4e-4,0 -52.624522,11.564103 -27.472229,37.084557 7.425178,7.525847 -1.909961,14.257528 -1.909961,14.257528 0,0 18.839713,-8.494551 10.188009,-19.223116 C 75.065562,49.831604 68.792314,44.845237 102.34311,27.713037 Z"
       sodipodi:insensitive="true" /><g
       id="g2"
       transform="matrix(0.609374,0,0,0.609374,26.460072,26.458466)"
       style="stroke-width:1.64103"><path
         id="path2"
         style="display:inline;fill:#37abc8;fill-opacity:1;fill-rule:evenodd;stroke-width:0.328032"
         d="m 111.61954,73.269429 c -0.23999,0.0014 -0.4819,0.0076 -0.72554,0.0186 -1.61304,0.07287 -3.27548,0.34648 -5.00331,0.881083 -1.6162,0.503719 -2.45618,1.682068 -2.45618,1.682068 0,0 0.99661,-0.382367 3.27474,-0.800985 9.31601,-1.709235 22.67988,10.984985 -6.18567,24.188705 -0.13375,0.314638 -0.546044,0.720886 -0.545704,0.720886 34.385044,-7.958908 26.761404,-26.776036 11.641664,-26.69036 z m -61.713543,1.289327 c -0.324233,-0.0035 -0.801539,-0.0033 -1.414901,0.01085 -3.680168,0.08477 -12.36556,0.781281 -22.377962,5.046203 -15.792715,6.723668 39.099218,9.77996 67.497172,3.203422 2.952312,-1.773962 7.004224,-3.28352 7.004224,-3.28352 0,0 -11.623475,1.787515 -23.196517,2.642732 -14.164947,1.046398 -29.304781,1.299157 -36.932113,0.400493 -18.058589,-2.125757 9.915157,-8.00933 9.915157,-8.00933 0,0 -0.170826,-0.0073 -0.49506,-0.01085 z m -6.054411,15.389241 c -26.051427,7.613047 14.531222,16.265893 50.941076,6.888468 -3.868458,-1.200719 -6.36757,-3.364135 -6.36757,-3.364135 -17.801984,3.016631 -28.092345,2.866006 -41.116869,1.682067 -10.06949,-0.916346 -3.456637,-5.2064 -3.456637,-5.2064 z m 3.638538,14.817703 c -23.654871,5.81961 14.454532,17.85 44.573506,6.48797 -4.93299,-1.68796 -8.459949,-3.60443 -8.459949,-3.60443 -13.43121,2.23543 -19.737048,2.42707 -31.9288,1.20148 -10.062005,-1.01613 -4.184757,-4.08502 -4.184757,-4.08502 z m -15.282271,9.85211 c -10.165205,-0.34434 -33.16548416,8.55823 -13.463261,11.37346 61.404238,8.76372 111.895308,-3.92485 95.969848,-10.25208 0,0 4.31901,3.16478 -4.82141,5.60637 -17.380656,4.63537 -72.331383,6.00827 -87.600334,0.1602 -5.484998,-2.10359 4.766845,-4.99059 8.004679,-5.60638 3.376009,-0.64306 5.367114,-0.48059 5.367114,-0.48059 -0.763047,-0.47312 -2.004463,-0.75179 -3.456636,-0.80098 z m 92.239847,8.00933 c 0,0 -1.9633,4.37785 -22.92315,7.84965 -23.646022,3.91979 -52.749398,3.47559 -70.044301,0.96118 0,0 3.534845,2.5722 21.740791,3.60391 27.701317,1.55941 70.21963,-0.87231 71.22666,-12.41474 z" /><path
         id="path14"
         style="display:inline;fill:#5fbcd3;fill-opacity:1;fill-rule:evenodd;stroke-width:0.328032"
         d="m 114.35323,73.467349 c -1.03477,0.144875 -2.08873,0.366945 -3.17087,0.701766 -0.64334,0.200511 -1.1275,0.50614 -1.52084,0.803569 0.48714,0.05582 0.97246,0.139898 1.45004,0.259932 0.2865,-0.06035 0.54542,-0.119218 0.88935,-0.182418 8.57833,-1.57389 20.56063,9.065842 -0.12815,21.069515 18.75491,-8.30723 13.71624,-20.927575 2.48047,-22.652364 z m -65.637341,1.495 c -4.419661,0.534746 -10.540098,1.769265 -17.311088,4.653462 -9.288811,3.954664 5.912794,6.619928 25.756567,6.823356 12.564212,-0.147719 26.218094,-1.250625 36.448938,-3.619934 1.406273,-0.84499 3.045543,-1.617694 4.394047,-2.208134 -4.281297,0.538054 -9.758635,1.158248 -15.294674,1.567346 -9.169054,0.67734 -18.713839,1.014954 -26.397871,0.930176 -6.427556,0.07602 -12.050408,-0.08485 -15.825908,-0.529683 -16.197788,-1.906714 3.763869,-6.620836 8.229989,-7.616589 z m -6.848161,18.276403 c -4.324931,3.892932 6.455969,7.325988 22.574333,7.657928 9.378256,-0.19511 20.030402,-1.402228 30.350601,-4.060215 -2.544623,-0.789818 -4.405509,-1.951421 -5.443595,-2.68459 -9.606502,1.440705 -17.051175,1.893301 -24.200073,1.746663 -6.058505,0.133754 -11.647431,-0.181161 -17.840771,-0.744141 -3.582639,-0.326028 -5.032224,-1.080644 -5.440495,-1.915645 z m 4.452958,14.260628 c -4.076448,3.69055 6.356149,7.94605 21.038509,8.41189 7.908372,-0.24478 16.592512,-1.59747 24.704435,-4.6576 -3.60334,-1.23298 -5.900539,-2.33314 -7.176823,-2.97398 -6.987306,1.04764 -12.10638,1.42537 -17.766357,1.26866 -4.760081,0.17022 -9.372782,-0.0872 -15.445569,-0.69763 -3.055623,-0.30858 -4.627459,-0.80758 -5.354195,-1.35134 z m -12.381673,7.31583 c -10.962015,1.27146 -27.5475034,8.65482 -9.902754,11.17606 13.838327,1.97503 27.110865,2.85296 39.205358,2.96727 24.995344,-0.22854 44.140743,-3.73762 51.324513,-7.46156 -10.10449,2.53194 -31.486244,4.04427 -50.999468,3.86281 -17.211501,0.10224 -33.888338,-1.0253 -41.273966,-3.85403 -5.484998,-2.10359 4.766845,-4.99059 8.004679,-5.60638 3.376009,-0.64306 5.367114,-0.48059 5.367114,-0.48059 -0.433349,-0.26869 -1.032567,-0.46673 -1.725476,-0.60358 z m 87.618427,12.25455 c -3.36919,1.11465 -8.09478,2.30611 -14.74122,3.40703 -13.226276,2.19251 -28.1577,3.01773 -41.777297,2.88096 -9.469839,0.0794 -18.504934,-0.3084 -26.160676,-1.04386 2.645328,0.84412 8.288062,2.08501 19.63446,2.72799 4.095605,0.23056 8.53192,0.36097 13.093257,0.4005 20.443047,-0.1873 42.252166,-2.50379 49.951476,-8.37262 z" /><path
         id="path11"
         style="display:inline;fill:#ff2a2a;fill-opacity:1;fill-rule:evenodd;stroke-width:0.328032"
         d="m 83.148929,0 c 0.0508,0.17622114 0.08021,0.34298152 0.126607,0.51728108 3.089965,4.65808222 7.2235,16.84892092 -16.905428,33.61810292 -24.97737,17.370728 -5.68624,27.288742 0,38.606428 -4.197417,-3.334229 -8.050851,-6.5475 -11.27063,-9.664526 3.495951,3.609741 7.944351,7.348753 12.85813,11.252026 -5.68624,-11.317686 -24.97737,-21.2357 0,-38.606428 C 99.104018,14.076675 83.148929,0 83.148929,0 Z m 19.194181,27.713037 c 9e-5,0 -4.482056,1.008167 -10.166825,3.01842 -23.745473,13.526432 -17.923187,18.471481 -10.614856,27.513049 5.365742,6.653796 0.157161,12.443075 -4.573364,15.884818 -1.34117,2.969467 -4.027145,4.925798 -4.027145,4.925798 0,0 18.839719,-8.494551 10.188009,-19.223116 C 75.065569,49.831604 68.792314,44.845237 102.34311,27.713037 Z" /><path
         id="path1"
         style="display:inline;fill:#ff8080;fill-opacity:1;fill-rule:evenodd;stroke-width:0.328032"
         d="m 83.148929,0 c 6.447088,22.363887 -22.759201,29.164261 -33.293575,43.091943 -7.173683,9.489489 3.52109,19.654787 18.102254,31.237369 -5.686243,-11.317686 -24.977368,-21.2357 0,-38.606428 C 99.104015,14.076675 83.148929,0 83.148929,0 Z m 2.571936,8.5105915 c 0.53092,4.1186515 -0.992113,8.2072505 -3.224093,11.6085935 -3.48208,5.299986 -8.3109,9.464915 -13.37386,13.19506 -4.67527,3.350179 -9.57286,6.766189 -12.64729,11.751738 -1.66019,2.542702 -2.585804,5.586675 -2.348694,8.634098 0.29496,4.28747 2.71249,8.041051 5.22087,11.388452 -1.07878,-1.002805 -2.132692,-2.03224 -3.152262,-3.095419 -2.75098,-3.012675 -5.657335,-6.234484 -6.603215,-10.3203 -0.68898,-2.477282 0.07246,-5.130407 1.557011,-7.163903 3.54726,-4.623277 8.405744,-7.983221 13.143384,-11.275281 5.61702,-3.972999 11.550046,-7.720877 16.049666,-13.011609 2.74047,-3.121041 4.723432,-6.96204 5.302002,-11.1000973 z M 102.34311,27.713037 c 3.4e-4,0 -52.624522,11.564103 -27.472229,37.084557 7.425178,7.525847 -1.909961,14.257528 -1.909961,14.257528 0,0 18.839713,-8.494551 10.188009,-19.223116 C 75.065562,49.831604 68.79231,44.845237 102.34311,27.713037 Z m -14.667326,6.777881 c -0.46591,0.294241 -0.920784,0.605614 -1.382344,0.906921 -3.14536,2.168625 -6.303191,4.46993 -8.665621,7.510652 -1.77576,2.287008 -2.830897,5.346981 -1.996777,8.21552 1.02128,3.792622 3.88695,6.649089 6.23011,9.666076 1.32382,1.543506 2.348226,3.502967 2.131136,5.595524 -0.37477,3.010152 -2.568606,5.402104 -4.830196,7.244002 0.4548,-1.502736 0.443555,-3.127736 0.05994,-4.644677 -0.51302,-2.329663 -2.145428,-4.145812 -3.745508,-5.81825 -2.84564,-3.015854 -5.428003,-6.723414 -5.624463,-11.001395 -0.17408,-3.925014 2.212551,-7.427122 5.013131,-9.956498 3.48424,-3.126465 7.64959,-5.395663 11.85354,-7.299813 0.31901,-0.139323 0.638037,-0.278739 0.957047,-0.418062 z" /><path
         id="path8"
         style="display:inline;fill:#ffd5d5;fill-opacity:1;fill-rule:evenodd;stroke-width:0.328032"
         d="M 83.146816,-1.5e-7 C 89.593906,22.363887 60.387616,29.16426 49.853246,43.091942 c -5.05007,6.680331 -1.22667,13.698388 6.55567,21.307227 -7.05734,-7.202707 -10.31245,-13.879366 -5.49734,-20.248893 10.50552,-13.889542 39.57261,-20.6943 33.3375,-42.9121088 C 83.628746,0.44319795 83.146816,-1.5e-7 83.146816,-1.5e-7 Z M 102.341,27.713036 c 3.4e-4,0 -52.624534,11.564104 -27.472234,37.084558 7.42517,7.525847 -1.90996,14.257528 -1.90996,14.257528 0,0 1.95427,-0.888149 4.31085,-2.437578 1.73736,-2.672267 2.7709,-6.592384 -1.34255,-10.761617 -19.5628,-19.849133 7.85534,-31.22058 21.03799,-35.309989 1.6755,-0.909479 3.443424,-1.846112 5.375904,-2.832902 z" /><path
         id="path12"
         style="display:inline;fill:#afdde9;fill-opacity:1;fill-rule:evenodd;stroke-width:0.328032"
         d="m 109.2972,73.434276 c -1.10975,0.141661 -2.24226,0.374614 -3.40651,0.734839 -0.61081,0.190372 -1.07319,0.476063 -1.45882,0.759127 0.55667,0.03941 1.11178,0.12433 1.65984,0.248564 0.21098,-0.04269 0.37873,-0.08272 0.61754,-0.126608 8.77629,-1.610212 21.13062,9.562793 -1.59939,21.902022 21.26588,-8.335939 16.00992,-21.914766 4.18734,-23.517944 z m -64.800175,1.401465 c -4.464254,0.457883 -11.05737,1.659237 -18.383891,4.78007 -9.34699,3.979434 6.104435,6.653096 26.130705,6.826457 12.606412,-0.140356 26.331311,-1.244043 36.603967,-3.623035 1.465909,-0.880824 3.200017,-1.694341 4.577498,-2.292366 -4.361912,0.555994 -10.182695,1.221156 -16.007291,1.651578 -9.137394,0.675001 -18.650371,1.013256 -26.320874,0.931727 -6.232833,0.06286 -11.689732,-0.09718 -15.373739,-0.531234 -16.798061,-1.977375 5.476379,-7.022856 8.773625,-7.743197 z m -7.504451,18.043343 c -5.454099,4.058684 5.653114,7.709126 22.402766,8.020696 9.447691,-0.17617 20.20895,-1.378112 30.634822,-4.063315 -2.618736,-0.812821 -4.528534,-2.02639 -5.54178,-2.75177 -9.746549,1.481456 -17.274452,1.956969 -24.48171,1.81746 -5.911039,0.111882 -11.398416,-0.196669 -17.460949,-0.747758 -4.092503,-0.372426 -5.407989,-1.302835 -5.553149,-2.275313 z m 4.306197,14.374836 c -4.862041,3.7681 5.897815,8.23791 21.058662,8.66562 7.971876,-0.22458 16.750167,-1.57495 24.943697,-4.66587 -3.736175,-1.27843 -6.103357,-2.42833 -7.30498,-3.03702 -7.114889,1.08049 -12.298359,1.48352 -17.99115,1.33687 -4.636186,0.14535 -9.17003,-0.10743 -15.092619,-0.7028 -3.510943,-0.35456 -5.057125,-0.95997 -5.61361,-1.5968 z m -12.321212,7.52719 c -10.953369,1.15706 -28.05744215,8.66324 -10.232967,11.21016 13.989541,1.99662 27.398323,2.87026 39.598616,2.96882 25.721496,-0.22263 45.296812,-3.91979 52.029382,-7.75767 -0.16576,0.0474 -0.30399,0.0962 -0.47956,0.14314 -9.8329,2.62241 -31.686067,4.19748 -51.580311,4.01475 -17.036136,0.0777 -33.467411,-1.05283 -40.782523,-3.85455 -5.484998,-2.10359 4.766845,-4.99059 8.004679,-5.60638 3.376009,-0.64306 5.367114,-0.48059 5.367114,-0.48059 -0.473655,-0.29368 -1.146132,-0.50223 -1.92443,-0.63768 z m 88.242671,11.95482 c -3.41156,1.20826 -8.37696,2.52858 -15.69568,3.74086 -13.085995,2.16926 -27.83772,2.99755 -41.340111,2.88251 -9.740622,0.0786 -19.017514,-0.33792 -26.801981,-1.11724 2.536925,0.84389 8.136803,2.1367 19.838582,2.79982 4.205413,0.23674 8.769887,0.36771 13.461194,0.40256 20.874073,-0.17988 43.223096,-2.5768 50.537996,-8.70851 z" /></g></g></svg>
