<?xml version="1.0" encoding="UTF-8" standalone="no"?>
<!-- Created with Inkscape (http://www.inkscape.org/) -->

<svg
   width="512"
   height="512"
   viewBox="0 0 135.46666 135.46667"
   version="1.1"
   id="svg5"
   inkscape:version="1.4.2 (ebf0e940d0, 2025-05-08)"
   sodipodi:docname="applications-chat-panel.svg"
   xmlns:inkscape="http://www.inkscape.org/namespaces/inkscape"
   xmlns:sodipodi="http://sodipodi.sourceforge.net/DTD/sodipodi-0.dtd"
   xmlns:xlink="http://www.w3.org/1999/xlink"
   xmlns="http://www.w3.org/2000/svg"
   xmlns:svg="http://www.w3.org/2000/svg"
   xmlns:rdf="http://www.w3.org/1999/02/22-rdf-syntax-ns#"
   xmlns:cc="http://creativecommons.org/ns#"
   xmlns:dc="http://purl.org/dc/elements/1.1/">&gt;
  <sodipodi:namedview
   id="namedview7"
   pagecolor="#505050"
   bordercolor="#ffffff"
   borderopacity="1"
   inkscape:showpageshadow="0"
   inkscape:pageopacity="0"
   inkscape:pagecheckerboard="1"
   inkscape:deskcolor="#505050"
   inkscape:document-units="mm"
   showgrid="false"
   inkscape:zoom="2.2428544"
   inkscape:cx="311.87936"
   inkscape:cy="89.840874"
   inkscape:window-width="3256"
   inkscape:window-height="1080"
   inkscape:window-x="1864"
   inkscape:window-y="0"
   inkscape:window-maximized="0"
   inkscape:current-layer="layer2" />
<defs
   id="defs2">
  <linearGradient
     id="linearGradient8"
     inkscape:collect="always">
    <stop
       style="stop-color:#b3b3b3;stop-opacity:0;"
       offset="0"
       id="stop9" />
    <stop
       style="stop-color:#ffffff;stop-opacity:0.46000001;"
       offset="1"
       id="stop8" />
  </linearGradient>
  <linearGradient
     inkscape:collect="always"
     id="linearGradient40105">
    <stop
       style="stop-color:#000000;stop-opacity:1;"
       offset="0"
       id="stop40101" />
    <stop
       style="stop-color:#ffffff;stop-opacity:1;"
       offset="1"
       id="stop40103" />
  </linearGradient>
  <clipPath
     clipPathUnits="userSpaceOnUse"
     id="clipPath14927">
    <path
       style="color:#000000;fill:#008000;stroke-width:0.416999;stroke-linecap:round;stroke-linejoin:round;paint-order:stroke fill markers"
       d="m -156.10193,-47.713641 c -10.9346,0 -19.73781,8.803206 -19.73781,19.737814 v 44.247428 c 0,10.934606 8.80321,19.737812 19.73781,19.737812 h 60.52654 c 7.424836,0.866794 11.631761,15.482615 13.249839,19.218466 5.431848,12.54117 16.962271,17.176731 16.962271,17.176731 -8.37332,-12.921811 -13.953173,-35.30478 2.59984,-36.395197 h 2.652549 c 10.93461,0 19.737821,-8.803206 19.737821,-19.737812 v -44.247428 c 0,-10.934608 -8.803211,-19.737814 -19.737821,-19.737814 z"
       id="path14929" />
  </clipPath>
  <clipPath
     clipPathUnits="userSpaceOnUse"
     id="clipPath14927-3">
    <path
       style="color:#000000;fill:#008000;stroke-width:0.416999;stroke-linecap:round;stroke-linejoin:round;paint-order:stroke fill markers"
       d="m -156.10193,-47.713641 c -10.9346,0 -19.73781,8.803206 -19.73781,19.737814 v 44.247428 c 0,10.934606 8.80321,19.737812 19.73781,19.737812 h 60.52654 c 7.424836,0.866794 11.631761,15.482615 13.249839,19.218466 5.431848,12.54117 16.962271,17.176731 16.962271,17.176731 -8.37332,-12.921811 -13.953173,-35.30478 2.59984,-36.395197 h 2.652549 c 10.93461,0 19.737821,-8.803206 19.737821,-19.737812 v -44.247428 c 0,-10.934608 -8.803211,-19.737814 -19.737821,-19.737814 z"
       id="path14929-5" />
  </clipPath>
  <clipPath
     clipPathUnits="userSpaceOnUse"
     id="clipPath29816">
    <path
       id="path29818"
       style="fill:#800077;fill-opacity:1;stroke:none;stroke-width:0.416999;stroke-linecap:round;stroke-linejoin:round;paint-order:stroke fill markers"
       d="m -61.88401,-53.688893 c 10.9346,0 19.737811,8.803206 19.737811,19.737811 v 44.24743 c 0,10.934607 -8.803211,19.737813 -19.737811,19.737813 h -60.52654 c -7.42484,0.866791 -11.63176,15.482613 -13.24984,19.218466 -5.43185,12.541168 -16.96227,17.176729 -16.96227,17.176729 8.37332,-12.921811 13.95317,-35.304781 -2.59984,-36.395195 h -2.65255 c -10.93461,0 -19.73782,-8.803206 -19.73782,-19.737813 v -44.24743 c 0,-10.934605 8.80321,-19.737811 19.73782,-19.737811 z" />
  </clipPath>
  <clipPath
     clipPathUnits="userSpaceOnUse"
     id="clipPath15721">
    <path
       id="path15723"
       style="display:inline;fill:#442178;stroke:none;stroke-width:0.600001;stroke-linecap:round;stroke-linejoin:round;paint-order:fill markers stroke"
       d="m -167.16454,-57.869984 a 67.733331,41.861505 0 0 0 -67.73333,41.861527 67.733331,41.861505 0 0 0 59.83511,41.555603 c 0.10795,3.179333 -0.31281,6.447369 -1.32602,9.677963 -2.82118,8.974436 -9.76897,15.983736 -18.46864,18.631937 l 0.0248,0.009 c 12.60842,-0.122679 26.70868,-5.061649 33.60932,-18.621608 1.55104,-3.047836 2.86175,-6.408666 3.80545,-9.837125 a 67.733331,41.861505 0 0 0 57.98665,-41.415766 67.733331,41.861505 0 0 0 -67.73334,-41.861527 z" />
  </clipPath>
  <clipPath
     clipPathUnits="userSpaceOnUse"
     id="clipPath33743">
    <text
       xml:space="preserve"
       style="font-style:normal;font-weight:normal;font-size:36.0114px;line-height:1.25;font-family:sans-serif;display:inline;mix-blend-mode:normal;fill:#ffffff;fill-opacity:1;stroke:none;stroke-width:0.900287"
       x="-134.09187"
       y="6.5039406"
       id="text33747"
       inkscape:label="Pidgin"><tspan
         sodipodi:role="line"
         id="tspan33745"
         style="font-style:normal;font-variant:normal;font-weight:normal;font-stretch:normal;font-size:36.0114px;font-family:'Berlin Sans FB';-inkscape-font-specification:'Berlin Sans FB, Normal';font-variant-ligatures:normal;font-variant-caps:normal;font-variant-numeric:normal;font-variant-east-asian:normal;fill:#ffffff;stroke-width:0.900287"
         x="-134.09187"
         y="6.5039406">Pidgin</tspan></text>
  </clipPath>
  <clipPath
     clipPathUnits="userSpaceOnUse"
     id="clipPath35201">
    <text
       xml:space="preserve"
       style="font-style:normal;font-weight:normal;font-size:36.0114px;line-height:1.25;font-family:sans-serif;display:inline;mix-blend-mode:normal;fill:#ff6600;fill-opacity:1;stroke:none;stroke-width:0.900287"
       x="-121.69192"
       y="41.858791"
       id="text35205"
       inkscape:label="Pidgin"><tspan
         sodipodi:role="line"
         id="tspan35203"
         style="font-style:normal;font-variant:normal;font-weight:normal;font-stretch:normal;font-size:36.0114px;font-family:'Berlin Sans FB';-inkscape-font-specification:'Berlin Sans FB, Normal';font-variant-ligatures:normal;font-variant-caps:normal;font-variant-numeric:normal;font-variant-east-asian:normal;fill:#ff6600;stroke-width:0.900287"
         x="-121.69192"
         y="41.858791">Pidgin</tspan></text>
  </clipPath>
  <linearGradient
     inkscape:collect="always"
     xlink:href="#linearGradient40105"
     id="linearGradient40107"
     x1="67.73333"
     y1="25.780256"
     x2="67.73333"
     y2="57.311333"
     gradientUnits="userSpaceOnUse" />
  <clipPath
     clipPathUnits="userSpaceOnUse"
     id="clipPath41462">
    <text
       xml:space="preserve"
       style="font-style:normal;font-weight:normal;font-size:36.0114px;line-height:1.25;font-family:sans-serif;display:inline;mix-blend-mode:difference;fill:#ffffff;fill-opacity:1;stroke:none;stroke-width:0.499999;stroke-linecap:square;stroke-dasharray:none;paint-order:stroke fill markers"
       x="134.16055"
       y="89.297821"
       id="text41466"
       inkscape:label="Pidgin"><tspan
         sodipodi:role="line"
         id="tspan41464"
         style="font-style:normal;font-variant:normal;font-weight:normal;font-stretch:normal;font-size:36.0114px;font-family:'Berlin Sans FB';-inkscape-font-specification:'Berlin Sans FB, Normal';font-variant-ligatures:normal;font-variant-caps:normal;font-variant-numeric:normal;font-variant-east-asian:normal;fill:#ffffff;stroke:none;stroke-width:0.499999;stroke-linecap:square;stroke-dasharray:none;paint-order:stroke fill markers"
         x="134.16055"
         y="89.297821">Pidgin</tspan></text>
  </clipPath>
  <clipPath
     clipPathUnits="userSpaceOnUse"
     id="clipPath4">
    <path
       id="path5"
       style="display:inline;fill:#b3b3b3;stroke:none;stroke-width:0.600001;stroke-linecap:round;stroke-linejoin:round;paint-order:fill markers stroke"
       d="M 67.733333,0 A 67.733331,41.861505 0 0 0 0,41.861528 67.733331,41.861505 0 0 0 59.835108,83.417132 c 0.10795,3.179331 -0.312812,6.447367 -1.326018,9.677961 -2.821185,8.974437 -9.768972,15.983737 -18.468641,18.631937 l 0.02482,0.009 c 12.60842,-0.12268 26.708682,-5.06165 33.609319,-18.621609 1.551038,-3.047839 2.861752,-6.408666 3.805452,-9.837126 A 67.733331,41.861505 0 0 0 135.46667,41.861528 67.733331,41.861505 0 0 0 67.733333,0 Z" />
  </clipPath>
  <clipPath
     clipPathUnits="userSpaceOnUse"
     id="clipPath6">
    <path
       id="path7"
       style="display:inline;fill:#b3b3b3;stroke:none;stroke-width:0.600001;stroke-linecap:round;stroke-linejoin:round;paint-order:fill markers stroke"
       d="M 67.733333,0 A 67.733331,41.861505 0 0 0 0,41.861528 67.733331,41.861505 0 0 0 59.835108,83.417132 c 0.10795,3.179331 -0.312812,6.447367 -1.326018,9.677961 -2.821185,8.974437 -9.768972,15.983737 -18.468641,18.631937 l 0.02482,0.009 c 12.60842,-0.12268 26.708682,-5.06165 33.609319,-18.621609 1.551038,-3.047839 2.861752,-6.408666 3.805452,-9.837126 A 67.733331,41.861505 0 0 0 135.46667,41.861528 67.733331,41.861505 0 0 0 67.733333,0 Z" />
  </clipPath>
  <radialGradient
     inkscape:collect="always"
     xlink:href="#linearGradient8"
     id="radialGradient9"
     cx="67.733337"
     cy="39.563591"
     fx="67.733337"
     fy="39.563591"
     r="67.733335"
     gradientTransform="matrix(1,0,0,0.82482304,0,9.7867893)"
     gradientUnits="userSpaceOnUse" />
</defs>
<g
   inkscape:groupmode="layer"
   id="layer2"
   inkscape:label="Layer 2">
  <path
     id="path1550"
     style="display:inline;fill:url(#radialGradient9);stroke:none;stroke-width:0.600001;stroke-linecap:round;stroke-linejoin:round;paint-order:fill markers stroke;opacity:1"
     d="M 67.733333,0 A 67.73333,41.861504 0 0 0 0,41.861528 67.73333,41.861504 0 0 0 59.835107,83.417131 c 0.107952,3.179332 -0.312811,6.447369 -1.326017,9.677962 -2.821185,8.974437 -9.768973,15.983737 -18.46864,18.631937 l 0.02481,0.009 c 12.608418,-0.12268 26.70868,-5.06165 33.609318,-18.621607 1.551039,-3.047838 2.861753,-6.408666 3.805452,-9.837126 A 67.73333,41.861504 0 0 0 135.46667,41.861528 67.73333,41.861504 0 0 0 67.733333,0 Z" />
  <path
     id="path3"
     style="display:inline;fill:#9500ff;stroke:none;stroke-width:0.600001;stroke-linecap:round;stroke-linejoin:round;paint-order:fill markers stroke;fill-opacity:1"
     d="m 131.23047,31.267578 c 1.17979,5.943976 0.2727,12.218105 -2.34304,17.667133 -3.67647,7.761129 -10.1825,13.824989 -17.37115,18.338235 -9.85505,6.143944 -21.142883,9.70291 -32.569673,11.472591 -1.840937,0.278854 -3.687944,0.515697 -5.540357,0.703682 -2.100027,7.054639 -5.511751,13.980482 -11.143473,18.881687 -2.241072,2.002744 -4.75934,3.686384 -7.432699,5.055814 -1.779178,2.2441 -3.877291,4.23841 -6.222656,5.88281 7.638562,-1.47443 15.032491,-5.20782 20.003378,-11.303409 3.515484,-4.261502 5.642443,-9.458598 7.237376,-14.69607 0.189124,-1.289029 1.607131,-1.721676 2.731902,-1.71927 7.580813,-0.75448 15.062247,-2.343901 22.261722,-4.878906 9.06272,-3.230058 17.8895,-8.025922 24.52746,-15.151623 4.292,-4.619582 7.57271,-10.41543 8.30847,-16.752674 0.18075,-1.528624 0.23169,-3.294233 0.0996,-4.949219 -0.18639,-2.252011 -0.73229,-4.651985 -1.55868,-6.831464 -0.35402,-0.945245 -0.75087,-1.85317 -1.21085,-2.774004 0.0742,0.351562 0.14844,0.703125 0.22266,1.054687 z M 31.455078,75.46875 c 6.877101,2.751992 14.113392,4.551427 21.439453,5.599609 0.04028,-0.520968 0.05796,-0.965483 0.06641,-1.490234 C 45.492165,78.920814 38.073229,77.53766 30.927734,75.25 c 0.175782,0.07292 0.351563,0.145833 0.527344,0.21875 z"
     clip-path="url(#clipPath6)" />
  <path
     id="path2"
     style="display:inline;fill:#00ff00;stroke:none;stroke-width:0.600001;stroke-linecap:round;stroke-linejoin:round;paint-order:fill markers stroke"
     d="M 65.869141,1.6113281 C 54.140061,1.8631533 42.331222,3.8594115 31.413211,8.2572602 24.241103,11.151541 17.299009,15.105197 11.673681,20.574912 7.9369002,24.197359 4.7738495,28.60323 3.0664062,33.503906 2.0870009,36.298565 1.5589574,39.235098 1.6065004,42.134345 1.6553616,46.10669 2.7031073,49.995248 4.453125,53.464844 3.047303,47.511843 3.7185931,41.135967 6.2182121,35.563249 9.6581887,27.778461 15.981172,21.61865 23.032421,17.031837 32.823464,10.677206 44.145315,6.9943392 55.607412,5.1127379 c 14.874373,-2.4018899 30.26706,-1.726135 44.839378,2.133496 1.34074,0.3587425 2.67183,0.7521872 3.99657,1.1658755 C 95.152579,4.6298893 85.190212,2.5786037 75.236114,1.8632056 72.133911,1.6532595 69.008204,1.5733748 65.869141,1.6113281 Z M 60.830078,90.451172 c -1.503191,7.503513 -5.931068,14.397758 -12.193359,18.810548 3.258392,-0.64075 6.391876,-1.62936 9.378906,-3.10156 2.407154,-3.08546 4.020537,-6.76616 4.88141,-10.574543 0.395721,-1.780098 0.619905,-3.59953 0.642027,-5.423508 -0.870462,-0.07305 -1.739315,-0.160887 -2.607421,-0.257812 -0.03385,0.182292 -0.06771,0.364583 -0.101563,0.546875 z"
     clip-path="url(#clipPath4)" />
  <g
     id="g13"
     transform="translate(-120.09857,4.5347042)">
    <path
       id="rect11"
       style="opacity:1;fill:#9500ff;stroke-width:4;stroke-linecap:round;stroke-linejoin:round;stroke-miterlimit:12;paint-order:markers stroke fill"
       d="m 191.99293,6.4445679 a 2.0002,2.0002 0 0 0 -1.97042,1.6639811 l -7.31842,42.888338 a 2.0002,2.0002 0 0 0 1.97249,2.336292 h 2.9006 l 0.8909,-4.000273 h -1.42213 l 6.63473,-38.888582 h 3.44889 l 0.8909,-3.9997561 z m -5.7304,49.4605471 c -1.8256,0 -3.59479,0.674114 -5.08031,1.847949 a 2.0002,2.0002 0 0 0 -0.0155,0.01344 c -1.47038,1.187953 -2.5097,2.786763 -2.93936,4.594035 -0.42533,1.789059 -0.14428,3.702743 0.91984,5.150073 a 2.0002,2.0002 0 0 0 0.0413,0.05478 c 1.11362,1.409577 2.90847,2.175578 4.73407,2.175578 l 0.91313,-4.100525 c -0.29231,0.06929 -0.59355,0.100769 -0.91313,0.100769 -0.88188,0 -1.20103,-0.178306 -1.56838,-0.633036 -0.34421,-0.480184 -0.45244,-0.903649 -0.23409,-1.822111 0.23065,-0.97016 0.69251,-1.701672 1.55443,-2.400371 0.84947,-0.668351 1.60058,-0.948469 2.43809,-0.977718 l 0.88263,-3.962032 c -0.24267,-0.02688 -0.48752,-0.04082 -0.73277,-0.04082 z" />
    <path
       id="path12"
       style="opacity:1;fill:#00ff00;stroke-width:4;stroke-linecap:round;stroke-linejoin:round;stroke-miterlimit:12;paint-order:markers stroke fill"
       d="m 198.02047,6.4445679 -0.8909,3.9997561 h 4.21886 l -11.85715,38.888582 h -1.0232 l -0.8909,4.000273 h 3.39411 a 2.0002,2.0002 0 0 0 1.91409,-1.415935 L 205.96159,9.0283895 a 2.0002,2.0002 0 0 0 -1.9141,-2.5838216 z m -11.02517,49.5013711 -0.88263,3.962032 c 0.0496,-0.0017 0.0996,-0.0026 0.14986,-0.0026 0.93746,0 1.23056,0.17826 1.57407,0.628903 0.34351,0.450646 0.45981,0.852937 0.22841,1.826245 -0.22225,0.934842 -0.68407,1.681835 -1.56632,2.413806 -0.56931,0.458836 -1.09983,0.732622 -1.66294,0.866097 l -0.91313,4.100525 c 1.84312,0 3.62544,-0.671367 5.09582,-1.859318 a 2.0002,2.0002 0 0 0 0.0176,-0.01344 c 1.46014,-1.206012 2.49439,-2.793088 2.91972,-4.582149 0.42967,-1.807275 0.15875,-3.73941 -0.93742,-5.177462 -0.95031,-1.246697 -2.44191,-1.987558 -4.02301,-2.162659 z" />
  </g>
  <path
     style="font-size:36.0114px;line-height:1.25;font-family:'Adwaita Sans';-inkscape-font-specification:'Adwaita Sans, Normal';text-orientation:upright;baseline-shift:baseline;display:inline;overflow:visible;vector-effect:none;stroke-linecap:round;stroke-linejoin:round;paint-order:markers stroke fill;enable-background:accumulate;stop-color:#000000"
     d="M 64.585509,55.868015 71.902231,12.978889 H 83.957484 L 70.88116,55.868015 Z m -0.753046,16.408042 c -1.364058,0 -2.41912,-0.472174 -3.165189,-1.416522 -0.713601,-0.97058 -0.908254,-2.137898 -0.583961,-3.501956 0.33053,-1.390291 1.080222,-2.557608 2.249081,-3.501957 1.19509,-0.944346 2.474663,-1.416519 3.838721,-1.416519 1.390291,0 2.445353,0.472173 3.165192,1.416519 0.719837,0.944349 0.914492,2.111666 0.583962,3.501957 -0.324293,1.364058 -1.073987,2.531376 -2.249082,3.501956 -1.16886,0.944348 -2.448433,1.416522 -3.838724,1.416522 z"
     id="path10" />
</g>
<metadata
   id="metadata1">
  <rdf:RDF>
    <cc:Work
       rdf:about="">
      <dc:creator>
        <cc:Agent>
          <dc:title>Jess Tipton</dc:title>
        </cc:Agent>
      </dc:creator>
      <dc:publisher>
        <cc:Agent>
          <dc:title>m0dw3rks.com</dc:title>
        </cc:Agent>
      </dc:publisher>
      <cc:license
         rdf:resource="https://creativecommons.org/licenses/by-nc-nd/4.0/deed.en" />
    </cc:Work>
  </rdf:RDF>
</metadata>
<metadata
   id="metadata6">
  <rdf:RDF>
    <cc:Work
       rdf:about="">
      <dc:creator>
        <cc:Agent>
          <dc:title>Jess Tipton</dc:title>
        </cc:Agent>
      </dc:creator>
      <cc:license
         rdf:resource="https://creativecommons.org/licenses/by-nc-nd/4.0/deed.en" />
      <dc:publisher>
        <cc:Agent>
          <dc:title>m0dw3rks.com</dc:title>
        </cc:Agent>
      </dc:publisher>
    </cc:Work>
  </rdf:RDF>
</metadata>
<metadata
   id="metadata2">
  <rdf:RDF>
    <cc:Work
       rdf:about="">
      <dc:creator>
        <cc:Agent>
          <dc:title>Jess Tipton</dc:title>
        </cc:Agent>
      </dc:creator>
      <cc:license
         rdf:resource="https://creativecommons.org/licenses/by-nc-nd/4.0/deed.en" />
      <dc:publisher>
        <cc:Agent>
          <dc:title>m0dw3rks.com</dc:title>
        </cc:Agent>
      </dc:publisher>
    </cc:Work>
  </rdf:RDF>
</metadata>
<metadata
   id="metadata3">
  <rdf:RDF>
    <cc:Work
       rdf:about="">
      <dc:creator>
        <cc:Agent>
          <dc:title>Jess Tipton</dc:title>
        </cc:Agent>
      </dc:creator>
      <cc:license
         rdf:resource="https://creativecommons.org/licenses/by-nc-nd/4.0/deed.en" />
      <dc:publisher>
        <cc:Agent>
          <dc:title>m0dw3rks.com</dc:title>
        </cc:Agent>
      </dc:publisher>
    </cc:Work>
  </rdf:RDF>
</metadata>
<metadata
   id="metadata4">
  <rdf:RDF>
    <cc:Work
       rdf:about="">
      <dc:creator>
        <cc:Agent>
          <dc:title>Jess Tipton</dc:title>
        </cc:Agent>
      </dc:creator>
      <cc:license
         rdf:resource="https://creativecommons.org/licenses/by-nc-nd/4.0/deed.en" />
      <dc:publisher>
        <cc:Agent>
          <dc:title>m0dw3rks.com</dc:title>
        </cc:Agent>
      </dc:publisher>
    </cc:Work>
  </rdf:RDF>
</metadata>
<metadata
   id="metadata5">
  <rdf:RDF>
    <cc:Work
       rdf:about="">
      <dc:creator>
        <cc:Agent>
          <dc:title>Jess Tipton</dc:title>
        </cc:Agent>
      </dc:creator>
      <cc:license
         rdf:resource="https://creativecommons.org/licenses/by-nc-nd/4.0/deed.en" />
      <dc:publisher>
        <cc:Agent>
          <dc:title>m0dw3rks.com</dc:title>
        </cc:Agent>
      </dc:publisher>
    </cc:Work>
  </rdf:RDF>
</metadata>
<metadata
   id="metadata7">
  <rdf:RDF>
    <cc:Work
       rdf:about="">
      <dc:creator>
        <cc:Agent>
          <dc:title>Jess Tipton</dc:title>
        </cc:Agent>
      </dc:creator>
      <cc:license
         rdf:resource="https://creativecommons.org/licenses/by-nc-nd/4.0/deed.en" />
      <dc:publisher>
        <cc:Agent>
          <dc:title>m0dw3rks.com</dc:title>
        </cc:Agent>
      </dc:publisher>
    </cc:Work>
  </rdf:RDF>
</metadata>
<metadata
   id="metadata8">
  <rdf:RDF>
    <cc:Work
       rdf:about="">
      <dc:creator>
        <cc:Agent>
          <dc:title>Jess Tipton</dc:title>
        </cc:Agent>
      </dc:creator>
      <cc:license
         rdf:resource="https://creativecommons.org/licenses/by-nc-nd/4.0/deed.en" />
      <dc:publisher>
        <cc:Agent>
          <dc:title>m0dw3rks.com</dc:title>
        </cc:Agent>
      </dc:publisher>
    </cc:Work>
  </rdf:RDF>
</metadata>
<metadata
   id="metadata9">
  <rdf:RDF>
    <cc:Work
       rdf:about="">
      <dc:creator>
        <cc:Agent>
          <dc:title>Jess Tipton</dc:title>
        </cc:Agent>
      </dc:creator>
      <cc:license
         rdf:resource="https://creativecommons.org/licenses/by-nc-nd/4.0/deed.en" />
      <dc:publisher>
        <cc:Agent>
          <dc:title>m0dw3rks.com</dc:title>
        </cc:Agent>
      </dc:publisher>
    </cc:Work>
  </rdf:RDF>
</metadata>
<metadata
   id="metadata10">
  <rdf:RDF>
    <cc:Work
       rdf:about="">
      <dc:creator>
        <cc:Agent>
          <dc:title>Jess Tipton</dc:title>
        </cc:Agent>
      </dc:creator>
      <cc:license
         rdf:resource="https://creativecommons.org/licenses/by-nc-nd/4.0/deed.en" />
      <dc:publisher>
        <cc:Agent>
          <dc:title>m0dw3rks.com</dc:title>
        </cc:Agent>
      </dc:publisher>
    </cc:Work>
  </rdf:RDF>
</metadata>
<metadata
   id="metadata11">
  <rdf:RDF>
    <cc:Work
       rdf:about="">
      <dc:creator>
        <cc:Agent>
          <dc:title>Jess Tipton</dc:title>
        </cc:Agent>
      </dc:creator>
      <cc:license
         rdf:resource="https://creativecommons.org/licenses/by-nc-nd/4.0/deed.en" />
      <dc:publisher>
        <cc:Agent>
          <dc:title>m0dw3rks.com</dc:title>
        </cc:Agent>
      </dc:publisher>
    </cc:Work>
  </rdf:RDF>
</metadata>
<metadata
   id="metadata12">
  <rdf:RDF>
    <cc:Work
       rdf:about="">
      <dc:creator>
        <cc:Agent>
          <dc:title>Jess Tipton</dc:title>
        </cc:Agent>
      </dc:creator>
      <cc:license
         rdf:resource="https://creativecommons.org/licenses/by-nc-nd/4.0/deed.en" />
      <dc:publisher>
        <cc:Agent>
          <dc:title>m0dw3rks.com</dc:title>
        </cc:Agent>
      </dc:publisher>
    </cc:Work>
  </rdf:RDF>
</metadata>
<metadata
   id="metadata13">
  <rdf:RDF>
    <cc:Work
       rdf:about="">
      <dc:creator>
        <cc:Agent>
          <dc:title>Jess Tipton</dc:title>
        </cc:Agent>
      </dc:creator>
      <cc:license
         rdf:resource="https://creativecommons.org/licenses/by-nc-nd/4.0/deed.en" />
      <dc:publisher>
        <cc:Agent>
          <dc:title>m0dw3rks.com</dc:title>
        </cc:Agent>
      </dc:publisher>
    </cc:Work>
  </rdf:RDF>
</metadata>
<metadata
   id="metadata14">
  <rdf:RDF>
    <cc:Work
       rdf:about="">
      <dc:creator>
        <cc:Agent>
          <dc:title>Jess Tipton</dc:title>
        </cc:Agent>
      </dc:creator>
      <cc:license
         rdf:resource="https://creativecommons.org/licenses/by-nc-nd/4.0/deed.en" />
      <dc:publisher>
        <cc:Agent>
          <dc:title>m0dw3rks.com</dc:title>
        </cc:Agent>
      </dc:publisher>
    </cc:Work>
  </rdf:RDF>
</metadata>
<metadata
   id="metadata15">
  <rdf:RDF>
    <cc:Work
       rdf:about="">
      <dc:creator>
        <cc:Agent>
          <dc:title>Jess Tipton</dc:title>
        </cc:Agent>
      </dc:creator>
      <cc:license
         rdf:resource="https://creativecommons.org/licenses/by-nc-nd/4.0/deed.en" />
      <dc:publisher>
        <cc:Agent>
          <dc:title>m0dw3rks.com</dc:title>
        </cc:Agent>
      </dc:publisher>
    </cc:Work>
  </rdf:RDF>
</metadata>
<metadata
   id="metadata16">
  <rdf:RDF>
    <cc:Work
       rdf:about="">
      <dc:creator>
        <cc:Agent>
          <dc:title>Jess Tipton</dc:title>
        </cc:Agent>
      </dc:creator>
      <cc:license
         rdf:resource="https://creativecommons.org/licenses/by-nc-nd/4.0/deed.en" />
      <dc:publisher>
        <cc:Agent>
          <dc:title>m0dw3rks.com</dc:title>
        </cc:Agent>
      </dc:publisher>
    </cc:Work>
  </rdf:RDF>
</metadata>
<metadata
   id="metadata17">
  <rdf:RDF>
    <cc:Work
       rdf:about="">
      <dc:creator>
        <cc:Agent>
          <dc:title>Jess Tipton</dc:title>
        </cc:Agent>
      </dc:creator>
      <cc:license
         rdf:resource="https://creativecommons.org/licenses/by-nc-nd/4.0/deed.en" />
      <dc:publisher>
        <cc:Agent>
          <dc:title>m0dw3rks.com</dc:title>
        </cc:Agent>
      </dc:publisher>
    </cc:Work>
  </rdf:RDF>
</metadata>
<metadata
   id="metadata18">
  <rdf:RDF>
    <cc:Work
       rdf:about="">
      <dc:creator>
        <cc:Agent>
          <dc:title>Jess Tipton</dc:title>
        </cc:Agent>
      </dc:creator>
      <cc:license
         rdf:resource="https://creativecommons.org/licenses/by-nc-nd/4.0/deed.en" />
      <dc:publisher>
        <cc:Agent>
          <dc:title>m0dw3rks.com</dc:title>
        </cc:Agent>
      </dc:publisher>
    </cc:Work>
  </rdf:RDF>
</metadata>
</svg>
