<?xml version="1.0" encoding="UTF-8" standalone="no"?>
<!-- Created with Inkscape (http://www.inkscape.org/) -->

<svg
   width="512"
   height="512"
   viewBox="0 0 135.46666 135.46667"
   version="1.1"
   id="svg5"
   inkscape:version="1.3.2 (091e20ef0f, 2023-11-25, custom)"
   sodipodi:docname="audacious-panel.svg"
   xmlns:inkscape="http://www.inkscape.org/namespaces/inkscape"
   xmlns:sodipodi="http://sodipodi.sourceforge.net/DTD/sodipodi-0.dtd"
   xmlns:xlink="http://www.w3.org/1999/xlink"
   xmlns="http://www.w3.org/2000/svg"
   xmlns:svg="http://www.w3.org/2000/svg"
   xmlns:rdf="http://www.w3.org/1999/02/22-rdf-syntax-ns#"
   xmlns:cc="http://creativecommons.org/ns#"
   xmlns:dc="http://purl.org/dc/elements/1.1/">&gt;
  <sodipodi:namedview
   id="namedview7"
   pagecolor="#505050"
   bordercolor="#ffffff"
   borderopacity="1"
   inkscape:showpageshadow="0"
   inkscape:pageopacity="0"
   inkscape:pagecheckerboard="1"
   inkscape:deskcolor="#505050"
   inkscape:document-units="px"
   showgrid="false"
   inkscape:zoom="0.79296878"
   inkscape:cx="610.99505"
   inkscape:cy="211.86206"
   inkscape:window-width="3224"
   inkscape:window-height="1076"
   inkscape:window-x="1864"
   inkscape:window-y="0"
   inkscape:window-maximized="0"
   inkscape:current-layer="layer1"
   showguides="false" />
<defs
   id="defs2">
  <linearGradient
     inkscape:collect="always"
     id="linearGradient52260">
    <stop
       style="stop-color:#5a5a5a;stop-opacity:1;"
       offset="0"
       id="stop52256" />
    <stop
       style="stop-color:#c0c0c0;stop-opacity:1;"
       offset="1"
       id="stop52258" />
  </linearGradient>
  <clipPath
     clipPathUnits="userSpaceOnUse"
     id="clipPath31919">
    <path
       style="color:#000000;-inkscape-font-specification:'Century Gothic, Normal';fill:#00ff00;stroke-width:3.70417;-inkscape-stroke:none;paint-order:stroke fill markers"
       d="M -26.096777,38.472657 V 143.373 h -13.434581 v -18.02986 q -8.566968,10.31654 -19.275698,15.52303 -10.611376,5.20647 -23.26714,5.20647 -22.488324,0 -38.454054,-16.10152 -15.86838,-16.19784 -15.86838,-39.337513 0,-22.657689 16.06308,-38.75914 16.06309,-16.101459 38.648762,-16.101459 13.045173,0 23.559193,5.49571 10.611369,5.495711 18.594237,16.487119 v -19.28318 z m -54.517139,10.316501 q -11.390188,0 -21.028044,5.59212 -9.63785,5.49571 -15.38162,15.52295 -5.64642,10.027251 -5.64642,21.211461 0,11.087761 5.74377,21.211371 5.74377,10.1236 15.38163,15.81215 9.735198,5.59215 20.833331,5.59215 11.195484,0 21.222742,-5.59215 10.027261,-5.59213 15.381621,-15.13724 5.451718,-9.54512 5.451718,-21.500622 0,-18.222561 -12.169008,-30.467371 -12.071651,-12.244819 -29.78972,-12.244819 z"
       id="path31921" />
  </clipPath>
  <clipPath
     clipPathUnits="userSpaceOnUse"
     id="clipPath32649">
    <path
       style="color:#000000;-inkscape-font-specification:'Century Gothic, Normal';fill:#00ff00;stroke-width:3.70417;-inkscape-stroke:none;paint-order:stroke fill markers"
       d="m -175.07676,31.05917 v 104.90034 h -13.43458 v -18.02986 q -8.56697,10.31654 -19.2757,15.52303 -10.61137,5.20647 -23.26714,5.20647 -22.48832,0 -38.45405,-16.10152 -15.86839,-16.19784 -15.86839,-39.33751 0,-22.657689 16.0631,-38.75914 16.06308,-16.10146 38.64875,-16.10146 13.04517,0 23.55919,5.495711 10.61137,5.495708 18.59424,16.487119 V 31.05917 Z m -54.51714,10.316501 q -11.39018,0 -21.02804,5.592119 -9.63785,5.495711 -15.38162,15.522951 -5.64642,10.02725 -5.64642,21.21146 0,11.087759 5.74379,21.211369 5.74375,10.1236 15.38161,15.81215 9.7352,5.59215 20.83333,5.59215 11.19549,0 21.22274,-5.59215 10.02726,-5.59213 15.38162,-15.13724 5.45172,-9.54512 5.45172,-21.50062 0,-18.22256 -12.16901,-30.467371 -12.07165,-12.244818 -29.78972,-12.244818 z"
       id="path32651" />
  </clipPath>
  <linearGradient
     inkscape:collect="always"
     xlink:href="#linearGradient52260"
     id="linearGradient52253"
     gradientUnits="userSpaceOnUse"
     x1="67.733589"
     y1="135.46672"
     x2="67.733589"
     y2="0"
     gradientTransform="translate(1.6e-5)" />
  <clipPath
     clipPathUnits="userSpaceOnUse"
     id="clipPath3622">
    <path
       id="path3624"
       style="display:inline;opacity:1;fill:#ff0000;fill-opacity:1;stroke:none;stroke-width:2.11667;stroke-linecap:round;stroke-linejoin:round;paint-order:stroke fill markers"
       d="m -96.02558,-52.650614 a 67.73333,67.73333 0 0 0 -3.178101,0.118856 c -0.223469,0.0088 -0.447749,0.01437 -0.670758,0.02532 a 67.73333,67.73333 0 0 0 -1.867071,0.119372 c -16.05998,1.227719 -30.8284,8.055467 -42.36589,19.620507 -12.79277,12.823322 -19.71249,29.5249881 -19.71249,47.560922 0,18.261473 6.76327,35.118522 19.43758,48.055983 l 0.0274,0.0274 0.0258,0.0274 c 11.6964,11.79581 26.76669,18.675009 43.13742,19.709389 a 67.73333,67.73333 0 0 0 0.33435,0.02069 c 0.947928,0.0552 1.899997,0.0911 2.856156,0.106968 a 67.73333,67.73333 0 0 0 1.97558,0.0739 67.73333,67.73333 0 0 0 29.071096,-6.569102 v 3.809072 h 38.723737 v -129.94665 h -12.644713 -26.079024 v 3.800287 a 67.73333,67.73333 0 0 0 -29.071096,-6.560325 z" />
  </clipPath>
  <clipPath
     clipPathUnits="userSpaceOnUse"
     id="clipPath58816">
    <path
       id="path58818"
       style="display:inline;fill:#ffcc00;fill-opacity:1;stroke:none;stroke-width:2.11667;stroke-linecap:round;stroke-linejoin:round;paint-order:stroke fill markers"
       d="M 67.733081,-2.8900001e-5 A 67.73333,67.73333 0 0 0 64.554983,0.1188271 c -0.22347,0.0088 -0.447752,0.01437 -0.670761,0.02532 a 67.73333,67.73333 0 0 0 -1.867069,0.119373 C 45.957172,1.4912391 31.188752,8.3189859 19.651262,19.884027 6.8584926,32.707347 -0.0612275,49.409013 -0.0612275,67.444947 c 0,18.261476 6.7632701,35.118523 19.4375795,48.055983 l 0.0274,0.0274 0.0258,0.0274 c 11.6964,11.79581 26.76669,18.67501 43.137422,19.70939 a 67.73333,67.73333 0 0 0 0.334348,0.0207 c 0.947931,0.0552 1.900002,0.0911 2.856161,0.10697 a 67.73333,67.73333 0 0 0 1.975581,0.0739 67.73333,67.73333 0 0 0 29.071098,-6.56909 v 3.80907 H 135.52789 V 2.7600092 H 122.88318 96.804161 v 3.800285 A 67.73333,67.73333 0 0 0 67.733063,-2.8900001e-5 Z" />
  </clipPath>
  <clipPath
     clipPathUnits="userSpaceOnUse"
     id="clipPath58826">
    <path
       id="path58828"
       style="display:inline;fill:#ffcc00;fill-opacity:1;stroke:none;stroke-width:2.11667;stroke-linecap:round;stroke-linejoin:round;paint-order:stroke fill markers"
       d="m 67.733332,0 a 67.73333,67.73333 0 0 0 -3.1781,0.11885579 c -0.22347,0.008801 -0.447749,0.0143708 -0.670759,0.0253215 A 67.73333,67.73333 0 0 0 62.017401,0.2635498 C 45.957415,1.4912687 31.189001,8.3190158 19.651513,19.884057 6.8587434,32.707379 -0.06097819,49.409045 -0.06097819,67.444979 -0.0609782,85.706452 6.7022921,102.5635 19.376595,115.50096 l 0.02739,0.0274 0.02584,0.0274 c 11.696399,11.79581 26.766687,18.67501 43.137418,19.70939 a 67.73333,67.73333 0 0 0 0.334346,0.0207 c 0.947936,0.0552 1.900008,0.0911 2.856159,0.10697 a 67.73333,67.73333 0 0 0 1.975588,0.0739 67.73333,67.73333 0 0 0 29.071094,-6.5691 v 3.80908 h 38.72373 V 2.7600383 H 122.88345 96.804426 V 6.560323 A 67.73333,67.73333 0 0 0 67.733332,0 Z" />
  </clipPath>
  <clipPath
     clipPathUnits="userSpaceOnUse"
     id="clipPath67978">
    <path
       id="path67980"
       style="display:inline;opacity:1;fill:#ff0000;fill-opacity:1;stroke:none;stroke-width:2.11667;stroke-linecap:round;stroke-linejoin:round;paint-order:stroke fill markers"
       d="m 67.733081,133.4209 a 67.73333,67.73333 0 0 1 -3.178101,-0.11886 c -0.22347,-0.009 -0.447749,-0.0144 -0.670761,-0.0253 a 67.73333,67.73333 0 0 1 -1.86707,-0.11939 C 45.957169,131.92963 31.188749,125.10188 19.65126,113.53684 6.85849,100.71352 -0.06123,84.011849 -0.06123,65.975915 c 0,-18.26147 6.76327,-35.118516 19.43758,-48.055974 l 0.0274,-0.0274 0.0258,-0.0274 C 31.12595,6.0693301 46.196238,-0.80987089 62.566969,-1.8442488 a 67.73333,67.73333 0 0 1 0.334352,-0.020691 c 0.947928,-0.0552 1.899999,-0.091101 2.856158,-0.106971 a 67.73333,67.73333 0 0 1 1.97558,-0.073898 67.73333,67.73333 0 0 1 29.071102,6.5690987 V 0.7142217 H 135.52789 V 130.66086 H 122.88318 96.804161 v -3.80029 a 67.73333,67.73333 0 0 1 -29.071102,6.56033 z" />
  </clipPath>
</defs>
<g
   inkscape:label="Layer 1"
   inkscape:groupmode="layer"
   id="layer1">
  <path
     id="path792"
     style="display:inline;fill:#1a1a1a;fill-opacity:1;stroke:none;stroke-width:2.11667;stroke-linecap:round;stroke-linejoin:round;paint-order:stroke fill markers"
     d="m 67.733332,0 a 67.73333,67.73333 0 0 0 -3.1781,0.11885579 c -0.223469,0.008801 -0.44775,0.0143708 -0.67076,0.0253215 A 67.73333,67.73333 0 0 0 62.017402,0.2635498 C 45.957416,1.4912687 31.189,8.3190158 19.651513,19.884057 6.8587435,32.707378 -0.06097819,49.409044 -0.06097819,67.444978 -0.0609782,85.706452 6.7022921,102.5635 19.376595,115.50096 l 0.02739,0.0274 0.02584,0.0274 c 11.696399,11.79581 26.766686,18.67501 43.137418,19.70939 a 67.73333,67.73333 0 0 0 0.334346,0.0207 c 0.947936,0.0552 1.900006,0.0911 2.856157,0.10697 a 67.73333,67.73333 0 0 0 1.975589,0.0739 67.73333,67.73333 0 0 0 29.071094,-6.5691 v 3.80907 H 135.52816 V 2.7600382 H 122.88345 96.804426 V 6.560323 A 67.73333,67.73333 0 0 0 67.733332,0 Z" />
  <path
     id="path792-8"
     style="display:inline;opacity:1;fill:url(#linearGradient52253);fill-opacity:1;stroke:none;stroke-width:2.11667;stroke-linecap:round;stroke-linejoin:round;paint-order:stroke fill markers"
     d="m 67.733332,0 a 67.73333,67.73333 0 0 0 -3.1781,0.11885579 c -0.22347,0.0088 -0.44775,0.0143715 -0.67076,0.0253215 A 67.73333,67.73333 0 0 0 62.017402,0.2635498 C 45.957438,1.491268 31.188992,8.3190279 19.651513,19.884057 6.8587562,32.707366 -0.06097819,49.409062 -0.06097819,67.444978 c 0,18.261456 6.76327569,35.118532 19.43757319,48.055982 l 0.02739,0.0274 0.02584,0.0274 c 11.696388,11.79579 26.766704,18.67501 43.137418,19.70939 a 67.73333,67.73333 0 0 0 0.334346,0.0207 c 0.947929,0.0552 1.899997,0.0911 2.856157,0.10697 a 67.73333,67.73333 0 0 0 1.975589,0.0739 67.73333,67.73333 0 0 0 29.071094,-6.5691 v 3.80907 H 135.52816 V 2.7600382 H 122.88345 96.804426 V 6.560323 A 67.73333,67.73333 0 0 0 67.733332,0 Z m -0.438216,12.583728 c 8.696774,0 16.549946,1.831469 23.559286,5.495272 7.07424,3.663803 13.272308,9.159766 18.594218,16.487365 v -19.28306 h 13.43483 V 120.18336 h -13.43483 v -18.02991 c -5.71131,6.87769 -12.136684,12.0521 -19.275831,15.52309 -7.074243,3.47097 -14.829629,5.2064 -23.266796,5.2064 -14.992199,0 -27.810689,-5.36701 -38.4545,-16.10135 C 17.872582,95.983043 12.583211,82.870376 12.583211,67.443944 12.583211,52.338833 17.9376,39.41936 28.646313,28.68507 39.355026,17.950775 52.238017,12.583728 67.295116,12.583728 Z m 1.070736,13.015743 c -7.593451,0 -14.602429,1.864347 -21.027657,5.592423 -6.425227,3.663803 -11.55283,8.838263 -15.382006,15.523083 -3.764275,6.684827 -5.646167,13.754976 -5.646167,21.211109 0,7.391832 1.914659,14.462558 5.743835,21.211624 3.829176,6.74906 8.956262,12.01959 15.38149,15.81196 6.490129,3.72809 13.434605,5.59242 20.833353,5.59242 7.463648,0 14.538161,-1.86433 21.222994,-5.59242 6.684833,-3.72809 11.811916,-8.773665 15.381486,-15.137065 3.63448,-6.363407 5.45187,-13.530171 5.45187,-21.500496 0,-12.148362 -4.05662,-22.304193 -12.169285,-30.467391 C 90.108006,29.681513 80.177887,25.599471 68.365852,25.599471 Z" />
</g>
<metadata
   id="metadata1">
  <rdf:RDF>
    <cc:Work
       rdf:about="">
      <dc:creator>
        <cc:Agent>
          <dc:title>Jess Tipton</dc:title>
        </cc:Agent>
      </dc:creator>
      <dc:publisher>
        <cc:Agent>
          <dc:title>m0dw3rks.com</dc:title>
        </cc:Agent>
      </dc:publisher>
      <cc:license
         rdf:resource="https://creativecommons.org/licenses/by-nc-nd/4.0/deed.en" />
    </cc:Work>
  </rdf:RDF>
</metadata>
<metadata
   id="metadata6">
  <rdf:RDF>
    <cc:Work
       rdf:about="">
      <dc:creator>
        <cc:Agent>
          <dc:title>Jess Tipton</dc:title>
        </cc:Agent>
      </dc:creator>
      <cc:license
         rdf:resource="https://creativecommons.org/licenses/by-nc-nd/4.0/deed.en" />
      <dc:publisher>
        <cc:Agent>
          <dc:title>m0dw3rks.com</dc:title>
        </cc:Agent>
      </dc:publisher>
    </cc:Work>
  </rdf:RDF>
</metadata>
<metadata
   id="metadata2">
  <rdf:RDF>
    <cc:Work
       rdf:about="">
      <dc:creator>
        <cc:Agent>
          <dc:title>Jess Tipton</dc:title>
        </cc:Agent>
      </dc:creator>
      <cc:license
         rdf:resource="https://creativecommons.org/licenses/by-nc-nd/4.0/deed.en" />
      <dc:publisher>
        <cc:Agent>
          <dc:title>m0dw3rks.com</dc:title>
        </cc:Agent>
      </dc:publisher>
    </cc:Work>
  </rdf:RDF>
</metadata>
<metadata
   id="metadata3">
  <rdf:RDF>
    <cc:Work
       rdf:about="">
      <dc:creator>
        <cc:Agent>
          <dc:title>Jess Tipton</dc:title>
        </cc:Agent>
      </dc:creator>
      <cc:license
         rdf:resource="https://creativecommons.org/licenses/by-nc-nd/4.0/deed.en" />
      <dc:publisher>
        <cc:Agent>
          <dc:title>m0dw3rks.com</dc:title>
        </cc:Agent>
      </dc:publisher>
    </cc:Work>
  </rdf:RDF>
</metadata>
<metadata
   id="metadata4">
  <rdf:RDF>
    <cc:Work
       rdf:about="">
      <dc:creator>
        <cc:Agent>
          <dc:title>Jess Tipton</dc:title>
        </cc:Agent>
      </dc:creator>
      <cc:license
         rdf:resource="https://creativecommons.org/licenses/by-nc-nd/4.0/deed.en" />
      <dc:publisher>
        <cc:Agent>
          <dc:title>m0dw3rks.com</dc:title>
        </cc:Agent>
      </dc:publisher>
    </cc:Work>
  </rdf:RDF>
</metadata>
<metadata
   id="metadata5">
  <rdf:RDF>
    <cc:Work
       rdf:about="">
      <dc:creator>
        <cc:Agent>
          <dc:title>Jess Tipton</dc:title>
        </cc:Agent>
      </dc:creator>
      <cc:license
         rdf:resource="https://creativecommons.org/licenses/by-nc-nd/4.0/deed.en" />
      <dc:publisher>
        <cc:Agent>
          <dc:title>m0dw3rks.com</dc:title>
        </cc:Agent>
      </dc:publisher>
    </cc:Work>
  </rdf:RDF>
</metadata>
<metadata
   id="metadata7">
  <rdf:RDF>
    <cc:Work
       rdf:about="">
      <dc:creator>
        <cc:Agent>
          <dc:title>Jess Tipton</dc:title>
        </cc:Agent>
      </dc:creator>
      <cc:license
         rdf:resource="https://creativecommons.org/licenses/by-nc-nd/4.0/deed.en" />
      <dc:publisher>
        <cc:Agent>
          <dc:title>m0dw3rks.com</dc:title>
        </cc:Agent>
      </dc:publisher>
    </cc:Work>
  </rdf:RDF>
</metadata>
<metadata
   id="metadata8">
  <rdf:RDF>
    <cc:Work
       rdf:about="">
      <dc:creator>
        <cc:Agent>
          <dc:title>Jess Tipton</dc:title>
        </cc:Agent>
      </dc:creator>
      <cc:license
         rdf:resource="https://creativecommons.org/licenses/by-nc-nd/4.0/deed.en" />
      <dc:publisher>
        <cc:Agent>
          <dc:title>m0dw3rks.com</dc:title>
        </cc:Agent>
      </dc:publisher>
    </cc:Work>
  </rdf:RDF>
</metadata>
<metadata
   id="metadata9">
  <rdf:RDF>
    <cc:Work
       rdf:about="">
      <dc:creator>
        <cc:Agent>
          <dc:title>Jess Tipton</dc:title>
        </cc:Agent>
      </dc:creator>
      <cc:license
         rdf:resource="https://creativecommons.org/licenses/by-nc-nd/4.0/deed.en" />
      <dc:publisher>
        <cc:Agent>
          <dc:title>m0dw3rks.com</dc:title>
        </cc:Agent>
      </dc:publisher>
    </cc:Work>
  </rdf:RDF>
</metadata>
<metadata
   id="metadata10">
  <rdf:RDF>
    <cc:Work
       rdf:about="">
      <dc:creator>
        <cc:Agent>
          <dc:title>Jess Tipton</dc:title>
        </cc:Agent>
      </dc:creator>
      <cc:license
         rdf:resource="https://creativecommons.org/licenses/by-nc-nd/4.0/deed.en" />
      <dc:publisher>
        <cc:Agent>
          <dc:title>m0dw3rks.com</dc:title>
        </cc:Agent>
      </dc:publisher>
    </cc:Work>
  </rdf:RDF>
</metadata>
<metadata
   id="metadata11">
  <rdf:RDF>
    <cc:Work
       rdf:about="">
      <dc:creator>
        <cc:Agent>
          <dc:title>Jess Tipton</dc:title>
        </cc:Agent>
      </dc:creator>
      <cc:license
         rdf:resource="https://creativecommons.org/licenses/by-nc-nd/4.0/deed.en" />
      <dc:publisher>
        <cc:Agent>
          <dc:title>m0dw3rks.com</dc:title>
        </cc:Agent>
      </dc:publisher>
    </cc:Work>
  </rdf:RDF>
</metadata>
<metadata
   id="metadata12">
  <rdf:RDF>
    <cc:Work
       rdf:about="">
      <dc:creator>
        <cc:Agent>
          <dc:title>Jess Tipton</dc:title>
        </cc:Agent>
      </dc:creator>
      <cc:license
         rdf:resource="https://creativecommons.org/licenses/by-nc-nd/4.0/deed.en" />
      <dc:publisher>
        <cc:Agent>
          <dc:title>m0dw3rks.com</dc:title>
        </cc:Agent>
      </dc:publisher>
    </cc:Work>
  </rdf:RDF>
</metadata>
<metadata
   id="metadata13">
  <rdf:RDF>
    <cc:Work
       rdf:about="">
      <dc:creator>
        <cc:Agent>
          <dc:title>Jess Tipton</dc:title>
        </cc:Agent>
      </dc:creator>
      <cc:license
         rdf:resource="https://creativecommons.org/licenses/by-nc-nd/4.0/deed.en" />
      <dc:publisher>
        <cc:Agent>
          <dc:title>m0dw3rks.com</dc:title>
        </cc:Agent>
      </dc:publisher>
    </cc:Work>
  </rdf:RDF>
</metadata>
<metadata
   id="metadata14">
  <rdf:RDF>
    <cc:Work
       rdf:about="">
      <dc:creator>
        <cc:Agent>
          <dc:title>Jess Tipton</dc:title>
        </cc:Agent>
      </dc:creator>
      <cc:license
         rdf:resource="https://creativecommons.org/licenses/by-nc-nd/4.0/deed.en" />
      <dc:publisher>
        <cc:Agent>
          <dc:title>m0dw3rks.com</dc:title>
        </cc:Agent>
      </dc:publisher>
    </cc:Work>
  </rdf:RDF>
</metadata>
<metadata
   id="metadata15">
  <rdf:RDF>
    <cc:Work
       rdf:about="">
      <dc:creator>
        <cc:Agent>
          <dc:title>Jess Tipton</dc:title>
        </cc:Agent>
      </dc:creator>
      <cc:license
         rdf:resource="https://creativecommons.org/licenses/by-nc-nd/4.0/deed.en" />
      <dc:publisher>
        <cc:Agent>
          <dc:title>m0dw3rks.com</dc:title>
        </cc:Agent>
      </dc:publisher>
    </cc:Work>
  </rdf:RDF>
</metadata>
<metadata
   id="metadata16">
  <rdf:RDF>
    <cc:Work
       rdf:about="">
      <dc:creator>
        <cc:Agent>
          <dc:title>Jess Tipton</dc:title>
        </cc:Agent>
      </dc:creator>
      <cc:license
         rdf:resource="https://creativecommons.org/licenses/by-nc-nd/4.0/deed.en" />
      <dc:publisher>
        <cc:Agent>
          <dc:title>m0dw3rks.com</dc:title>
        </cc:Agent>
      </dc:publisher>
    </cc:Work>
  </rdf:RDF>
</metadata>
<metadata
   id="metadata17">
  <rdf:RDF>
    <cc:Work
       rdf:about="">
      <dc:creator>
        <cc:Agent>
          <dc:title>Jess Tipton</dc:title>
        </cc:Agent>
      </dc:creator>
      <cc:license
         rdf:resource="https://creativecommons.org/licenses/by-nc-nd/4.0/deed.en" />
      <dc:publisher>
        <cc:Agent>
          <dc:title>m0dw3rks.com</dc:title>
        </cc:Agent>
      </dc:publisher>
    </cc:Work>
  </rdf:RDF>
</metadata>
<metadata
   id="metadata18">
  <rdf:RDF>
    <cc:Work
       rdf:about="">
      <dc:creator>
        <cc:Agent>
          <dc:title>Jess Tipton</dc:title>
        </cc:Agent>
      </dc:creator>
      <cc:license
         rdf:resource="https://creativecommons.org/licenses/by-nc-nd/4.0/deed.en" />
      <dc:publisher>
        <cc:Agent>
          <dc:title>m0dw3rks.com</dc:title>
        </cc:Agent>
      </dc:publisher>
    </cc:Work>
  </rdf:RDF>
</metadata>
</svg>
