<?xml version="1.0" encoding="UTF-8" standalone="no"?>
<!-- Created with Inkscape (http://www.inkscape.org/) -->

<svg
   width="512"
   height="512"
   viewBox="0 0 135.46666 135.46667"
   version="1.1"
   id="svg5"
   inkscape:version="1.4.2 (ebf0e940d0, 2025-05-08)"
   sodipodi:docname="audio-output-none.svg"
   xmlns:inkscape="http://www.inkscape.org/namespaces/inkscape"
   xmlns:sodipodi="http://sodipodi.sourceforge.net/DTD/sodipodi-0.dtd"
   xmlns:xlink="http://www.w3.org/1999/xlink"
   xmlns="http://www.w3.org/2000/svg"
   xmlns:svg="http://www.w3.org/2000/svg">
  <sodipodi:namedview
     id="namedview7"
     pagecolor="#242424"
     bordercolor="#666666"
     borderopacity="1"
     inkscape:showpageshadow="0"
     inkscape:pageopacity="0"
     inkscape:pagecheckerboard="1"
     inkscape:deskcolor="#000000"
     inkscape:document-units="px"
     showgrid="false"
     inkscape:zoom="0.92187498"
     inkscape:cx="400.81357"
     inkscape:cy="331.38984"
     inkscape:window-width="3256"
     inkscape:window-height="1080"
     inkscape:window-x="1864"
     inkscape:window-y="0"
     inkscape:window-maximized="0"
     inkscape:current-layer="layer1" />
  <defs
     id="defs2">
    <linearGradient
       id="linearGradient18"
       inkscape:collect="always">
      <stop
         style="stop-color:#ffffff;stop-opacity:0;"
         offset="0"
         id="stop18" />
      <stop
         style="stop-color:#ffffff;stop-opacity:1;"
         offset="1"
         id="stop17" />
    </linearGradient>
    <linearGradient
       id="linearGradient16"
       inkscape:collect="always">
      <stop
         style="stop-color:#ffffff;stop-opacity:0;"
         offset="0"
         id="stop16" />
      <stop
         style="stop-color:#ffffff;stop-opacity:1;"
         offset="1"
         id="stop15" />
    </linearGradient>
    <linearGradient
       id="linearGradient12"
       inkscape:collect="always">
      <stop
         style="stop-color:#ffffff;stop-opacity:0;"
         offset="0"
         id="stop13" />
      <stop
         style="stop-color:#ffffff;stop-opacity:1;"
         offset="1"
         id="stop12" />
    </linearGradient>
    <inkscape:path-effect
       effect="powerstroke"
       message=""
       id="path-effect12"
       is_visible="true"
       lpeversion="1.3"
       scale_width="1"
       interpolator_type="CubicBezierJohan"
       interpolator_beta="0.2"
       start_linecap_type="zerowidth"
       end_linecap_type="round"
       offset_points="1,4.8234841"
       linejoin_type="extrp_arc"
       miter_limit="4"
       not_jump="false"
       sort_points="true" />
    <inkscape:path-effect
       effect="powerstroke"
       message=""
       id="path-effect11"
       is_visible="true"
       lpeversion="1.3"
       scale_width="1"
       interpolator_type="CubicBezierJohan"
       interpolator_beta="0.2"
       start_linecap_type="zerowidth"
       end_linecap_type="round"
       offset_points="1,4.8234841"
       linejoin_type="extrp_arc"
       miter_limit="4"
       not_jump="false"
       sort_points="true" />
    <inkscape:path-effect
       effect="powerstroke"
       message=""
       id="path-effect9"
       is_visible="true"
       lpeversion="1.3"
       scale_width="1"
       interpolator_type="CubicBezierJohan"
       interpolator_beta="0.2"
       start_linecap_type="zerowidth"
       end_linecap_type="round"
       offset_points="1,4.8234841"
       linejoin_type="extrp_arc"
       miter_limit="4"
       not_jump="false"
       sort_points="true" />
    <inkscape:path-effect
       effect="powerstroke"
       message=""
       id="path-effect8"
       is_visible="true"
       lpeversion="1.3"
       scale_width="1"
       interpolator_type="CubicBezierJohan"
       interpolator_beta="0.2"
       start_linecap_type="zerowidth"
       end_linecap_type="zerowidth"
       offset_points="0,4.8234841"
       linejoin_type="extrp_arc"
       miter_limit="4"
       not_jump="false"
       sort_points="true" />
    <inkscape:path-effect
       effect="powerstroke"
       message=""
       id="path-effect7"
       is_visible="true"
       lpeversion="1.3"
       scale_width="1"
       interpolator_type="CubicBezierJohan"
       interpolator_beta="0.2"
       start_linecap_type="zerowidth"
       end_linecap_type="zerowidth"
       offset_points="0,4.8234841"
       linejoin_type="extrp_arc"
       miter_limit="4"
       not_jump="false"
       sort_points="true" />
    <inkscape:path-effect
       effect="powerstroke"
       message=""
       id="path-effect6"
       is_visible="true"
       lpeversion="1.3"
       scale_width="1"
       interpolator_type="CubicBezierJohan"
       interpolator_beta="0.2"
       start_linecap_type="zerowidth"
       end_linecap_type="zerowidth"
       offset_points="0,4.8234841"
       linejoin_type="extrp_arc"
       miter_limit="4"
       not_jump="false"
       sort_points="true" />
    <linearGradient
       id="linearGradient5"
       inkscape:collect="always">
      <stop
         style="stop-color:#1a1a1a;stop-opacity:1;"
         offset="0"
         id="stop5" />
      <stop
         style="stop-color:#1a1a1a;stop-opacity:0;"
         offset="1"
         id="stop6" />
    </linearGradient>
    <clipPath
       clipPathUnits="userSpaceOnUse"
       id="clipPath3">
      <path
         sodipodi:type="star"
         style="fill:#800000;stroke-width:10.3981;stroke-linecap:round;stroke-linejoin:round;stroke-miterlimit:12;paint-order:fill markers stroke"
         id="path4"
         inkscape:flatsided="true"
         sodipodi:sides="3"
         sodipodi:cx="169.66087"
         sodipodi:cy="58.650711"
         sodipodi:r1="82.753738"
         sodipodi:r2="32.273956"
         sodipodi:arg1="3.1415927"
         sodipodi:arg2="4.1887902"
         inkscape:rounded="0"
         inkscape:randomized="0"
         d="m 86.907135,58.650707 124.130615,-71.666834 -10e-6,143.333677 z"
         inkscape:transform-center-x="14.513162"
         transform="matrix(0.70151087,0,0,0.94511399,-60.966299,12.301724)" />
    </clipPath>
    <filter
       inkscape:collect="always"
       style="color-interpolation-filters:sRGB"
       id="filter4"
       x="-0.083074395"
       y="-0.12175916"
       width="1.1661488"
       height="1.2435183">
      <feGaussianBlur
         inkscape:collect="always"
         stdDeviation="3.0141804"
         id="feGaussianBlur4" />
    </filter>
    <clipPath
       clipPathUnits="userSpaceOnUse"
       id="clipPath4">
      <path
         sodipodi:type="star"
         style="fill:#d45500;stroke-width:8.46667;stroke-linecap:round;stroke-linejoin:round;stroke-miterlimit:12;paint-order:fill markers stroke"
         id="path5"
         inkscape:flatsided="true"
         sodipodi:sides="3"
         sodipodi:cx="169.66087"
         sodipodi:cy="58.650711"
         sodipodi:r1="82.753738"
         sodipodi:r2="32.273956"
         sodipodi:arg1="3.1415927"
         sodipodi:arg2="4.1887902"
         inkscape:rounded="0"
         inkscape:randomized="0"
         d="m 86.907135,58.650707 124.130615,-71.666834 -10e-6,143.333677 z"
         inkscape:transform-center-x="14.513162"
         transform="translate(2.9701893e-4,-1.9035474e-4)" />
    </clipPath>
    <linearGradient
       inkscape:collect="always"
       xlink:href="#linearGradient5"
       id="linearGradient6"
       x1="96.164871"
       y1="70.031166"
       x2="111.15192"
       y2="44.653088"
       gradientUnits="userSpaceOnUse" />
    <filter
       inkscape:collect="always"
       style="color-interpolation-filters:sRGB"
       id="filter6"
       x="-0.039901541"
       y="-0.057818731"
       width="1.0798031"
       height="1.1156375">
      <feGaussianBlur
         inkscape:collect="always"
         stdDeviation="2.0637498"
         id="feGaussianBlur6" />
    </filter>
    <linearGradient
       inkscape:collect="always"
       xlink:href="#linearGradient12"
       id="linearGradient13"
       x1="1.2014549e-06"
       y1="67.733327"
       x2="134.99749"
       y2="67.733327"
       gradientUnits="userSpaceOnUse" />
    <linearGradient
       inkscape:collect="always"
       xlink:href="#linearGradient18"
       id="linearGradient14"
       x1="0.00039929865"
       y1="67.73333"
       x2="135.46686"
       y2="-0.000145"
       gradientUnits="userSpaceOnUse" />
    <linearGradient
       inkscape:collect="always"
       xlink:href="#linearGradient16"
       id="linearGradient15"
       x1="0.00020002881"
       y1="67.733192"
       x2="134.99847"
       y2="0.4681825"
       gradientUnits="userSpaceOnUse" />
  </defs>
  <g
     inkscape:label="Layer 1"
     inkscape:groupmode="layer"
     id="layer1"
     style="display:inline">
    <path
       style="display:none;opacity:0.5;fill:url(#linearGradient15);fill-rule:nonzero;stroke:none;stroke-width:0.264583px;stroke-linecap:butt;stroke-linejoin:miter;stroke-opacity:1"
       d="M 2.0002881e-4,67.733192 C 26.035158,55.244887 106.22615,22.129006 132.26111,9.6407009 A 4.8234841,4.8234841 90 0 0 128.08887,0.94263234 C 102.05391,13.430937 26.035158,55.244887 2.0002881e-4,67.733192 Z"
       id="path8"
       inkscape:path-effect="#path-effect9"
       inkscape:original-d="M 2.0002881e-4,67.733192 130.17499,5.2916666"
       sodipodi:nodetypes="cc" />
    <path
       style="display:none;opacity:0.5;fill:url(#linearGradient14);fill-rule:nonzero;stroke:none;stroke-width:0.264583px;stroke-linecap:butt;stroke-linejoin:miter;stroke-opacity:1"
       d="M 2.0002881e-4,67.733192 C 26.035158,55.244887 106.22615,22.129006 132.26111,9.6407009 A 4.8234841,4.8234841 90 0 0 128.08887,0.94263234 C 102.05391,13.430937 26.035158,55.244887 2.0002881e-4,67.733192 Z"
       id="path9"
       inkscape:path-effect="#path-effect11"
       inkscape:original-d="M 2.0002881e-4,67.733192 130.17499,5.2916666"
       transform="matrix(1,0,0,-1,-1.9926983e-4,135.46652)"
       sodipodi:nodetypes="cc" />
    <path
       style="display:none;opacity:0.5;fill:url(#linearGradient13);fill-rule:nonzero;stroke:none;stroke-width:0.264583px;stroke-linecap:butt;stroke-linejoin:miter;stroke-opacity:1"
       d="M 1.2014549e-6,67.733327 C 26.034999,67.733327 104.13999,72.556811 130.17499,72.556811 a 4.8234841,4.8234841 90 0 0 0,-9.646968 c -26.035,0 -104.139991,4.823484 -130.1749887985451,4.823484 z"
       id="path11"
       inkscape:path-effect="#path-effect12"
       inkscape:original-d="M 1.2014549e-6,67.733327 H 130.17499"
       sodipodi:nodetypes="cc" />
    <path
       sodipodi:type="star"
       style="display:none;fill:#999999;fill-opacity:1;stroke-width:10.3981;stroke-linecap:round;stroke-linejoin:round;stroke-miterlimit:12;paint-order:fill markers stroke"
       id="path1"
       inkscape:flatsided="true"
       sodipodi:sides="3"
       sodipodi:cx="169.66087"
       sodipodi:cy="58.650711"
       sodipodi:r1="82.753738"
       sodipodi:r2="32.273956"
       sodipodi:arg1="3.1415927"
       sodipodi:arg2="4.1887902"
       inkscape:rounded="0"
       inkscape:randomized="0"
       d="m 86.907135,58.650707 124.130615,-71.666834 -10e-6,143.333677 z"
       inkscape:transform-center-x="14.513162"
       transform="matrix(0.70151088,0,0,0.94511398,-60.9663,12.301724)" />
    <path
       id="rect2"
       style="display:none;opacity:0.1;mix-blend-mode:luminosity;fill:#000000;fill-opacity:1;stroke-width:8.46667;stroke-linecap:round;stroke-linejoin:round;stroke-miterlimit:12;paint-order:fill markers stroke;filter:url(#filter4)"
       d="M 1.6209602e-6,67.733328 87.078975,8.3206895 l -10e-7,18.8737575 z"
       sodipodi:nodetypes="ccccc"
       clip-path="url(#clipPath3)" />
    <path
       id="path2"
       style="display:none;opacity:0.4;fill:url(#linearGradient6);stroke-width:10.3981;stroke-linecap:round;stroke-linejoin:round;stroke-miterlimit:12;paint-order:fill markers stroke;filter:url(#filter6)"
       inkscape:transform-center-x="14.513162"
       d="M 111.15192,44.653088 86.907468,58.650518 211.038,130.31736 V 102.3225 Z"
       transform="matrix(0.70151088,0,0,0.94511398,-60.966509,12.301904)"
       clip-path="url(#clipPath4)" />
    <rect
       style="display:none;fill:#999999;stroke-width:8.46667;stroke-linecap:round;stroke-linejoin:round;stroke-miterlimit:12;paint-order:fill markers stroke"
       id="rect1"
       width="36.7328"
       height="75.292091"
       x="0"
       y="30.087286"
       ry="5.2765346" />
    <path
       style="baseline-shift:baseline;display:inline;overflow:visible;vector-effect:none;fill:#999999;stroke-width:0.814253;stroke-linecap:round;stroke-linejoin:round;stroke-miterlimit:12;stroke-dasharray:16.9334, 33.8666;paint-order:fill markers stroke;enable-background:accumulate;stop-color:#000000;opacity:0.4"
       d="M 87.078922,4.0684454e-7 36.732643,39.161433 v -3.7977 c 0,-2.923201 -2.352965,-5.276681 -5.276168,-5.276681 H 5.2766807 C 2.35348,30.087052 5.0617921e-8,32.440532 5.0617921e-8,35.363733 v 32.3696 32.369597 C 5.0617921e-8,103.02613 2.35348,105.37961 5.2766807,105.37961 H 31.456475 c 2.923203,0 5.276168,-2.35348 5.276168,-5.27668 v -3.797699 l 50.346279,39.161429 z"
       id="path6" />
    <path
       id="path7"
       style="baseline-shift:baseline;display:inline;overflow:visible;vector-effect:none;stroke-width:0.814253;stroke-linecap:round;stroke-linejoin:round;stroke-miterlimit:12;stroke-dasharray:16.9334, 33.8666;paint-order:fill markers stroke;enable-background:accumulate;stop-color:#000000;fill:#ffffff"
       d="M 87.078921 0 L 73.633231 10.458793 A 3.6471831 4.9136853 0 0 0 73.633231 10.45931 A 3.6471831 4.9136853 0 0 0 78.615355 12.25765 L 87.078921 5.6735554 L 87.078921 0 z M 87.078405 21.110339 A 3.6471831 4.9136853 0 0 0 83.431082 26.024251 L 83.431082 42.026892 A 3.6471831 4.9136853 0 0 0 87.078405 46.940287 A 3.6471831 4.9136853 0 0 0 87.078921 46.940287 L 87.078921 21.110339 A 3.6471831 4.9136853 0 0 0 87.078405 21.110339 z M 59.375186 21.549072 L 42.771032 34.464563 A 3.6471831 4.9136853 0 0 0 47.75264 36.263936 L 58.039867 28.26184 A 3.6471831 4.9136853 0 0 0 59.375703 21.549589 A 3.6471831 4.9136853 0 0 0 59.375186 21.549072 z M 12.874666 30.087052 A 3.6471831 4.9136853 0 0 0 16.521989 35.000964 L 28.40085 35.000964 A 3.6471831 4.9136853 0 0 0 32.048173 30.119608 C 31.85398 30.098123 31.656586 30.087052 31.456477 30.087052 L 12.874666 30.087052 z M 0 37.520707 L 0 63.352721 A 3.6471831 4.9136853 0 0 0 3.6468058 58.43881 L 3.6468058 42.434619 A 3.6471831 4.9136853 0 0 0 0 37.520707 z M 87.078405 69.121361 A 3.6471831 4.9136853 0 0 0 83.431082 74.035273 L 83.431082 90.038947 A 3.6471831 4.9136853 0 0 0 87.078405 94.952859 A 3.6471831 4.9136853 0 0 0 87.078921 94.952859 L 87.078921 69.121361 A 3.6471831 4.9136853 0 0 0 87.078405 69.121361 z M 0 85.533279 L 0 100.10293 C 0 103.02613 2.3534797 105.37961 5.2766804 105.37961 L 6.4001261 105.37961 A 3.6471831 4.9136853 0 0 0 4.122229 100.18665 C 4.040552 100.14315 3.960137 100.09341 3.8840006 100.03679 L 3.8824503 100.03472 C 3.7291692 99.919602 3.6842447 99.844411 3.6468058 99.791324 L 3.6468058 90.447191 A 3.6471831 4.9136853 0 0 0 0 85.533279 z M 36.636523 95.673229 A 3.6471831 4.9136853 0 0 0 33.113224 99.780988 C 33.045813 99.867985 32.906793 100.01138 32.701879 100.13652 L 32.701363 100.13652 L 32.700846 100.13652 L 32.700329 100.13652 C 32.367363 100.33776 31.928854 100.46663 31.456477 100.46673 L 26.482621 100.46673 A 3.6471831 4.9136853 0 0 0 22.835298 105.3791 A 3.6471831 4.9136853 0 0 0 22.835298 105.37961 L 31.456477 105.37961 C 34.37968 105.37961 36.732641 103.02613 36.732641 100.10293 L 36.732641 96.305232 L 40.154138 98.966568 A 3.6471831 4.9136853 0 0 0 37.141402 95.705785 L 37.140885 95.706302 A 3.6471831 4.9136853 0 0 0 36.636523 95.673229 z M 33.148881 99.727762 L 33.149397 99.727762 L 33.149397 99.728278 L 33.149397 99.728795 L 33.148881 99.729312 C 33.148725 99.729593 33.148582 99.730008 33.148364 99.730345 A 3.6475478 4.9141767 0 0 0 33.142679 99.739647 C 33.141452 99.741562 33.14042 99.743294 33.139062 99.745332 C 33.143242 99.735792 33.14712 99.730376 33.148881 99.728278 L 33.148881 99.727762 z M 33.095137 99.94687 A 3.6471831 4.9136853 0 0 0 33.089453 100.00526 L 33.089453 99.995962 C 33.091181 99.978468 33.093248 99.962269 33.095137 99.94687 z M 54.555326 105.25507 A 3.6471831 4.9136853 0 0 0 53.611714 105.42302 A 3.6471831 4.9136853 0 0 0 51.397379 107.71229 L 68.00205 120.62778 A 3.6471831 4.9136853 0 0 0 66.666214 113.91449 L 56.378987 105.9124 A 3.6471831 4.9136853 0 0 0 54.555326 105.25507 z M 87.078405 117.13393 A 3.6471831 4.9136853 0 0 0 83.431082 122.04733 L 83.431082 130.50573 A 3.6471831 4.9136853 0 0 0 82.260094 131.71806 L 87.078921 135.46666 L 87.078921 117.13393 A 3.6471831 4.9136853 0 0 0 87.078405 117.13393 z " />
  </g>
</svg>
