<?xml version="1.0" encoding="UTF-8" standalone="no"?>
<!-- Created with Inkscape (http://www.inkscape.org/) -->

<svg
   width="512"
   height="512"
   viewBox="0 0 135.46666 135.46667"
   version="1.1"
   id="svg5"
   inkscape:version="1.4.2 (ebf0e940d0, 2025-05-08)"
   sodipodi:docname="audio-input-microphone-muted.svg"
   xmlns:inkscape="http://www.inkscape.org/namespaces/inkscape"
   xmlns:sodipodi="http://sodipodi.sourceforge.net/DTD/sodipodi-0.dtd"
   xmlns:xlink="http://www.w3.org/1999/xlink"
   xmlns="http://www.w3.org/2000/svg"
   xmlns:svg="http://www.w3.org/2000/svg">
  <sodipodi:namedview
     id="namedview7"
     pagecolor="#242424"
     bordercolor="#666666"
     borderopacity="1"
     inkscape:showpageshadow="0"
     inkscape:pageopacity="0"
     inkscape:pagecheckerboard="1"
     inkscape:deskcolor="#000000"
     inkscape:document-units="px"
     showgrid="false"
     inkscape:zoom="2.6074562"
     inkscape:cx="322.34482"
     inkscape:cy="87.249788"
     inkscape:window-width="3256"
     inkscape:window-height="1080"
     inkscape:window-x="1864"
     inkscape:window-y="0"
     inkscape:window-maximized="0"
     inkscape:current-layer="layer1" />
  <defs
     id="defs2">
    <linearGradient
       id="linearGradient3"
       inkscape:collect="always">
      <stop
         style="stop-color:#ffffff;stop-opacity:0.40000001;"
         offset="0"
         id="stop3" />
      <stop
         style="stop-color:#ffffff;stop-opacity:0.60000002;"
         offset="0.5"
         id="stop5" />
      <stop
         style="stop-color:#000000;stop-opacity:0;"
         offset="0.60333335"
         id="stop12" />
      <stop
         style="stop-color:#000000;stop-opacity:0.5;"
         offset="1"
         id="stop4" />
    </linearGradient>
    <inkscape:path-effect
       effect="powermask"
       id="path-effect26"
       is_visible="true"
       lpeversion="1"
       uri="#mask-powermask-path-effect26"
       invert="false"
       hide_mask="false"
       background="true"
       background_color="#ffffffff" />
    <linearGradient
       id="linearGradient21"
       inkscape:collect="always">
      <stop
         style="stop-color:#ffffff;stop-opacity:0;"
         offset="0"
         id="stop21" />
      <stop
         style="stop-color:#ffffff;stop-opacity:1;"
         offset="0.60000002"
         id="stop18" />
      <stop
         style="stop-color:#ffffff;stop-opacity:0;"
         offset="1"
         id="stop22" />
    </linearGradient>
    <linearGradient
       id="linearGradient9"
       inkscape:collect="always">
      <stop
         style="stop-color:#ffff00;stop-opacity:0;"
         offset="0"
         id="stop23" />
      <stop
         style="stop-color:#ffff00;stop-opacity:1;"
         offset="0.10333333"
         id="stop10" />
      <stop
         style="stop-color:#ffff00;stop-opacity:0;"
         offset="1"
         id="stop11" />
    </linearGradient>
    <linearGradient
       id="linearGradient6"
       inkscape:collect="always">
      <stop
         style="stop-color:#a4a4a4;stop-opacity:1;"
         offset="0"
         id="stop6" />
      <stop
         style="stop-color:#ffffff;stop-opacity:0.67721522;"
         offset="0.04"
         id="stop17" />
      <stop
         style="stop-color:#000000;stop-opacity:0.17721519;"
         offset="0.06"
         id="stop7" />
      <stop
         style="stop-color:#000000;stop-opacity:0;"
         offset="0.10333335"
         id="stop15" />
      <stop
         style="stop-color:#000000;stop-opacity:0;"
         offset="0.94"
         id="stop16" />
      <stop
         style="stop-color:#ffffff;stop-opacity:0.37974682;"
         offset="0.95999998"
         id="stop9" />
      <stop
         style="stop-color:#000000;stop-opacity:1;"
         offset="1"
         id="stop8" />
    </linearGradient>
    <linearGradient
       id="linearGradient54"
       inkscape:collect="always">
      <stop
         style="stop-color:#ffffff;stop-opacity:1;"
         offset="0"
         id="stop54" />
      <stop
         style="stop-color:#ffffff;stop-opacity:0;"
         offset="1"
         id="stop55" />
    </linearGradient>
    <linearGradient
       id="linearGradient53"
       inkscape:collect="always">
      <stop
         style="stop-color:#474747;stop-opacity:0;"
         offset="0.86000001"
         id="stop53" />
      <stop
         style="stop-color:#ffffff;stop-opacity:1;"
         offset="1"
         id="stop52" />
    </linearGradient>
    <linearGradient
       id="linearGradient47"
       inkscape:collect="always">
      <stop
         style="stop-color:#000000;stop-opacity:1;"
         offset="0"
         id="stop47" />
      <stop
         style="stop-color:#ffffff;stop-opacity:1;"
         offset="1"
         id="stop48" />
    </linearGradient>
    <linearGradient
       id="linearGradient45"
       inkscape:collect="always">
      <stop
         style="stop-color:#000000;stop-opacity:1;"
         offset="0"
         id="stop45" />
      <stop
         style="stop-color:#ffffff;stop-opacity:1;"
         offset="1"
         id="stop46" />
    </linearGradient>
    <linearGradient
       id="linearGradient41"
       inkscape:collect="always">
      <stop
         style="stop-color:#ffffff;stop-opacity:1;"
         offset="0"
         id="stop41" />
      <stop
         style="stop-color:#ffffff;stop-opacity:0;"
         offset="1"
         id="stop42" />
    </linearGradient>
    <linearGradient
       id="linearGradient37"
       inkscape:collect="always">
      <stop
         style="stop-color:#666666;stop-opacity:1;"
         offset="0"
         id="stop38" />
      <stop
         style="stop-color:#333333;stop-opacity:1;"
         offset="1"
         id="stop37" />
    </linearGradient>
    <linearGradient
       id="linearGradient33"
       inkscape:collect="always">
      <stop
         style="stop-color:#9e9e9e;stop-opacity:1;"
         offset="0"
         id="stop33" />
      <stop
         style="stop-color:#474747;stop-opacity:1;"
         offset="1"
         id="stop34" />
    </linearGradient>
    <linearGradient
       id="linearGradient31"
       inkscape:collect="always">
      <stop
         style="stop-color:#ababab;stop-opacity:1;"
         offset="0"
         id="stop31" />
      <stop
         style="stop-color:#474747;stop-opacity:1;"
         offset="1"
         id="stop32" />
    </linearGradient>
    <linearGradient
       id="linearGradient29"
       inkscape:collect="always">
      <stop
         style="stop-color:#474747;stop-opacity:1;"
         offset="0"
         id="stop30" />
      <stop
         style="stop-color:#999999;stop-opacity:1;"
         offset="0.55000001"
         id="stop43" />
      <stop
         style="stop-color:#9e9e9e;stop-opacity:1;"
         offset="1"
         id="stop29" />
    </linearGradient>
    <inkscape:path-effect
       effect="fillet_chamfer"
       id="path-effect27"
       is_visible="true"
       lpeversion="1"
       nodesatellites_param="F,0,0,1,0,0,0,1 @ F,0,1,1,0,10.583333,0,1 @ F,0,0,1,0,0,0,1"
       radius="40"
       unit="px"
       method="auto"
       mode="F"
       chamfer_steps="1"
       flexible="false"
       use_knot_distance="true"
       apply_no_radius="true"
       apply_with_radius="true"
       only_selected="true"
       hide_knots="false" />
    <linearGradient
       id="linearGradient24"
       inkscape:collect="always">
      <stop
         style="stop-color:#000000;stop-opacity:1;"
         offset="0"
         id="stop24" />
      <stop
         style="stop-color:#ffffff;stop-opacity:1;"
         offset="1"
         id="stop25" />
    </linearGradient>
    <linearGradient
       id="linearGradient19"
       inkscape:collect="always">
      <stop
         style="stop-color:#838383;stop-opacity:1;"
         offset="0"
         id="stop19" />
      <stop
         style="stop-color:#adadad;stop-opacity:1;"
         offset="1"
         id="stop20" />
    </linearGradient>
    <linearGradient
       inkscape:collect="always"
       xlink:href="#linearGradient19"
       id="linearGradient20"
       x1="81.17334"
       y1="92.582153"
       x2="60.006157"
       y2="1.058333"
       gradientUnits="userSpaceOnUse"
       gradientTransform="translate(0,-1.014718)" />
    <clipPath
       clipPathUnits="userSpaceOnUse"
       id="clipPath23">
      <path
         style="baseline-shift:baseline;display:inline;overflow:visible;vector-effect:none;stroke-width:0.999998;stroke-linecap:round;stroke-linejoin:round;stroke-miterlimit:12;paint-order:markers stroke fill;enable-background:accumulate;stop-color:#000000"
         d="m -55.568974,-9.291793 h 44.839645 C -4.7852808,-9.291793 0,-4.5065121 0,1.4375362 V 71.502698 c 0,5.944047 -4.7852808,10.729327 -10.729329,10.729327 h -44.839645 c -5.944047,0 -10.729327,-4.78528 -10.729327,-10.729327 V 1.4375362 c 0,-5.9440483 4.78528,-10.7293292 10.729327,-10.7293292 z"
         id="path24" />
    </clipPath>
    <linearGradient
       inkscape:collect="always"
       xlink:href="#linearGradient24"
       id="linearGradient25"
       x1="-33.149151"
       y1="82.232025"
       x2="-33.149151"
       y2="-9.2917929"
       gradientUnits="userSpaceOnUse" />
    <filter
       inkscape:collect="always"
       style="color-interpolation-filters:sRGB"
       id="filter25"
       x="-0.22633585"
       y="-0.16670964"
       width="1.4526717"
       height="1.3334193">
      <feGaussianBlur
         inkscape:collect="always"
         stdDeviation="6.6515625"
         id="feGaussianBlur25" />
    </filter>
    <linearGradient
       inkscape:collect="always"
       xlink:href="#linearGradient29"
       id="linearGradient30"
       x1="139.27097"
       y1="48.503529"
       x2="139.27097"
       y2="43.835827"
       gradientUnits="userSpaceOnUse"
       gradientTransform="translate(-36.272,-0.36415415)" />
    <linearGradient
       inkscape:collect="always"
       xlink:href="#linearGradient31"
       id="linearGradient32"
       x1="67.73333"
       y1="36.076351"
       x2="67.74987"
       y2="103.05056"
       gradientUnits="userSpaceOnUse"
       gradientTransform="translate(0,-1.014718)" />
    <linearGradient
       inkscape:collect="always"
       xlink:href="#linearGradient33"
       id="linearGradient34"
       x1="69.605438"
       y1="135.46666"
       x2="69.605438"
       y2="100.3505"
       gradientUnits="userSpaceOnUse" />
    <linearGradient
       inkscape:collect="always"
       xlink:href="#linearGradient37"
       id="linearGradient38"
       x1="70.589493"
       y1="1.0583333"
       x2="70.589493"
       y2="92.581566"
       gradientUnits="userSpaceOnUse"
       gradientTransform="translate(0,-1.014718)" />
    <filter
       inkscape:collect="always"
       style="color-interpolation-filters:sRGB"
       id="filter41"
       x="-0.0087447568"
       y="-0.72123891"
       width="1.0174895"
       height="2.4424778">
      <feGaussianBlur
         inkscape:collect="always"
         stdDeviation="0.27592143"
         id="feGaussianBlur41" />
    </filter>
    <linearGradient
       inkscape:collect="always"
       xlink:href="#linearGradient41"
       id="linearGradient42"
       x1="45.240322"
       y1="45.373173"
       x2="45.240322"
       y2="46.291332"
       gradientUnits="userSpaceOnUse"
       gradientTransform="translate(0,-1.014718)" />
    <clipPath
       clipPathUnits="userSpaceOnUse"
       id="clipPath44">
      <path
         style="baseline-shift:baseline;display:inline;overflow:visible;vector-effect:none;stroke-width:0.999998;stroke-linecap:round;stroke-linejoin:round;stroke-miterlimit:12;paint-order:markers stroke fill;enable-background:accumulate;stop-color:#000000"
         d="m 157.13546,-1.2762535 h 44.83964 c 5.94405,0 10.72933,4.7852809 10.72933,10.7293291 V 79.518237 c 0,5.944049 -4.78528,10.72933 -10.72933,10.72933 h -44.83964 c -5.94405,0 -10.72933,-4.785281 -10.72933,-10.72933 V 9.4530756 c 0,-5.9440482 4.78528,-10.7293291 10.72933,-10.7293291 z"
         id="path45" />
    </clipPath>
    <filter
       inkscape:collect="always"
       style="color-interpolation-filters:sRGB"
       id="filter45"
       x="-0.020515584"
       y="-0.014925972"
       width="1.0410312"
       height="1.0298519">
      <feGaussianBlur
         inkscape:collect="always"
         stdDeviation="0.57578203"
         id="feGaussianBlur45" />
    </filter>
    <linearGradient
       inkscape:collect="always"
       xlink:href="#linearGradient45"
       id="linearGradient46"
       x1="182.41182"
       y1="90.24765"
       x2="182.41182"
       y2="-1.2752193"
       gradientUnits="userSpaceOnUse" />
    <linearGradient
       inkscape:collect="always"
       xlink:href="#linearGradient47"
       id="linearGradient48"
       x1="67.74987"
       y1="103.05056"
       x2="67.73333"
       y2="36.076351"
       gradientUnits="userSpaceOnUse"
       gradientTransform="translate(0,-1.014718)" />
    <linearGradient
       inkscape:collect="always"
       xlink:href="#linearGradient53"
       id="linearGradient49"
       gradientUnits="userSpaceOnUse"
       x1="67.73333"
       y1="36.076351"
       x2="67.74987"
       y2="103.05056"
       gradientTransform="translate(-1.17e-4,-1.014718)" />
    <radialGradient
       inkscape:collect="always"
       xlink:href="#linearGradient54"
       id="radialGradient55"
       cx="67.73333"
       cy="46.320442"
       fx="67.73333"
       fy="46.320442"
       r="33.149397"
       gradientTransform="matrix(1.2221893,0,0,1.9273127,-15.049621,-43.997365)"
       gradientUnits="userSpaceOnUse" />
    <filter
       inkscape:collect="always"
       style="color-interpolation-filters:sRGB"
       id="filter55"
       x="-0.41890906"
       y="-0.12454054"
       width="1.8378181"
       height="1.2490811">
      <feGaussianBlur
         inkscape:collect="always"
         stdDeviation="1.6531525"
         id="feGaussianBlur55" />
    </filter>
    <clipPath
       clipPathUnits="userSpaceOnUse"
       id="clipPath55">
      <rect
         style="opacity:1;fill:url(#linearGradient56);fill-opacity:1;stroke:none;stroke-width:3.175;stroke-linecap:round;stroke-linejoin:round;stroke-miterlimit:12;stroke-dasharray:none;stroke-opacity:1;paint-order:markers stroke fill"
         id="rect56"
         width="14.214516"
         height="35.116161"
         x="-3.0826097"
         y="117.90858"
         ry="2.1948009" />
    </clipPath>
    <linearGradient
       inkscape:collect="always"
       xlink:href="#linearGradient33"
       id="linearGradient56"
       gradientUnits="userSpaceOnUse"
       gradientTransform="translate(-65.580791,17.558077)"
       x1="69.605438"
       y1="135.46666"
       x2="69.605438"
       y2="100.3505" />
    <clipPath
       clipPathUnits="userSpaceOnUse"
       id="clipPath5">
      <path
         id="path5"
         style="display:inline;opacity:0.483607;fill:#ffff00;stroke:none;stroke-width:1.05833;stroke-linecap:round;stroke-linejoin:round;stroke-miterlimit:12;paint-order:markers stroke fill"
         d="m -91.058134,-26.352975 c -5.944049,0 -10.729066,4.785013 -10.729066,10.729061 v 6.1391594 h 16.317865 10.514611 c 1.349171,0 2.43551,1.0858243 2.43551,2.4349924 0,1.3491694 -1.086339,2.4355088 -2.43551,2.4355088 H -101.7872 v 5.7128288 h 26.832476 c 0.749681,0 1.418391,0.3351379 1.864481,0.8645459 a 64.990172,78.742134 0 0 1 9.635588,-6.8543606 c -0.77575,-0.4063947 -1.302758,-1.2187113 -1.302758,-2.1585229 0,-1.3491681 1.085818,-2.4349924 2.43499,-2.4349924 h 8.864578 a 64.990172,78.742134 0 0 1 17.96892,-3.0695794 v -3.06958 c 0,-5.944048 -4.785518,-10.729061 -10.729568,-10.729061 h -4.109831 v 9.552905 c 0,1.349169 -1.08531,2.435511 -2.434479,2.435511 -1.349171,0 -2.435511,-1.086341 -2.435511,-2.435511 v -9.552905 h -5.71283 v 9.552905 c 0,1.349169 -1.086339,2.435511 -2.435511,2.435511 -1.349168,0 -2.435508,-1.086341 -2.435508,-2.435511 v -9.552905 h -5.71283 v 9.552905 c 0,1.349169 -1.085821,2.435511 -2.434992,2.435511 -1.349169,0 -2.435508,-1.086341 -2.435508,-2.435511 v -9.552905 h -5.712831 v 9.552905 c 0,1.349169 -1.08531,2.435511 -2.434481,2.435511 -1.349169,0 -2.435508,-1.086341 -2.435508,-2.435511 v -9.552905 z M -101.7872,5.9690785 v 5.7128295 h 19.395205 a 64.990172,78.742134 0 0 1 5.028631,-5.7128295 z m 0,10.5833365 v 5.712831 h 12.357905 a 64.990172,78.742134 0 0 1 3.488161,-5.712831 z m 0,10.583333 v 5.712831 h 7.420735 a 64.990172,78.742134 0 0 1 2.44326,-5.712831 z m 0,10.583334 v 5.71283 h 4.080886 a 64.990172,78.742134 0 0 1 1.623679,-5.71283 z m 0,10.583333 v 6.13864 c 0,2.017691 0.55118,3.901929 1.51206,5.510781 a 64.990172,78.742134 0 0 1 1.494475,-11.649421 z" />
    </clipPath>
    <linearGradient
       inkscape:collect="always"
       xlink:href="#linearGradient6"
       id="linearGradient7"
       x1="-115.3914"
       y1="40.325962"
       x2="-49.09261"
       y2="40.325962"
       gradientUnits="userSpaceOnUse"
       gradientTransform="translate(34.296466,3.3624598)" />
    <linearGradient
       inkscape:collect="always"
       xlink:href="#linearGradient19"
       id="linearGradient17"
       gradientUnits="userSpaceOnUse"
       gradientTransform="translate(87.466236,-22.796851)"
       x1="81.17334"
       y1="92.582153"
       x2="60.006157"
       y2="1.058333" />
    <linearGradient
       inkscape:collect="always"
       xlink:href="#linearGradient21"
       id="linearGradient18"
       gradientUnits="userSpaceOnUse"
       gradientTransform="translate(0.00319974,-0.94210415)"
       x1="74.037796"
       y1="60.18708"
       x2="36.122345"
       y2="2.634825" />
    <filter
       inkscape:collect="always"
       style="color-interpolation-filters:sRGB"
       id="filter22"
       x="-0.020860979"
       y="-0.014748315"
       width="1.041722"
       height="1.0294966">
      <feGaussianBlur
         inkscape:collect="always"
         stdDeviation="0.48869101"
         id="feGaussianBlur22" />
    </filter>
    <mask
       maskUnits="userSpaceOnUse"
       id="mask35">
      <path
         id="path35"
         style="display:inline;opacity:1;fill:url(#linearGradient36);stroke:none;stroke-width:1.05833;stroke-linecap:round;stroke-linejoin:round;stroke-miterlimit:12;paint-order:markers stroke fill"
         d="m -70.365364,-2.073384 c -5.94405,0 -10.729569,4.7850121 -10.729569,10.729061 v 6.13916 h 16.318378 10.514602 c 1.349172,0 2.435514,1.085824 2.435514,2.434993 0,1.34917 -1.086342,2.435511 -2.435514,2.435511 h -26.83298 v 5.71283 h 26.83298 c 1.349172,0 2.435514,1.085823 2.435514,2.434992 0,1.349171 -1.086342,2.435511 -2.435514,2.435511 h -26.83298 v 5.712827 h 19.42465 c 1.349169,0 2.435508,1.085827 2.435508,2.434995 0,1.349171 -1.086339,2.435511 -2.435508,2.435511 h -19.42465 v 5.71283 h 19.42465 c 1.349169,0 2.435508,1.085824 2.435508,2.434992 0,1.349169 -1.086339,2.435511 -2.435508,2.435511 h -19.42465 v 5.71283 h 26.83298 c 1.349172,0 2.435514,1.085824 2.435514,2.434993 0,1.349168 -1.086342,2.43551 -2.435514,2.43551 h -26.83298 v 5.712828 h 26.83298 c 1.349172,0 2.435514,1.085826 2.435514,2.434995 0,1.349168 -1.086342,2.43551 -2.435514,2.43551 h -26.83298 v 6.139159 c 0,5.94405 4.785519,10.729061 10.729569,10.729061 h 4.109831 V 79.89732 c 0,-1.349168 1.086339,-2.435508 2.43551,-2.435508 1.349169,0 2.434477,1.08634 2.434477,2.435508 v 9.552906 h 5.71283 V 79.89732 c 0,-1.349168 1.086339,-2.435508 2.435508,-2.435508 1.349171,0 2.434995,1.08634 2.434995,2.435508 v 9.552906 h 5.712827 V 79.89732 c 0,-1.349168 1.086343,-2.435508 2.435511,-2.435508 1.349171,0 2.435511,1.08634 2.435511,2.435508 v 9.552906 h 5.71283 V 79.89732 c 0,-1.349168 1.08634,-2.435508 2.435511,-2.435508 1.349169,0 2.434476,1.08634 2.434476,2.435508 v 9.552906 h 4.109826 c 5.944047,0 10.729582,-4.785011 10.729582,-10.729061 v -6.139159 h -26.833507 c -1.349172,0 -2.434995,-1.086342 -2.434995,-2.43551 0,-1.349169 1.085823,-2.434995 2.434995,-2.434995 h 26.833507 v -5.712828 h -26.833507 c -1.349172,0 -2.434995,-1.086342 -2.434995,-2.43551 0,-1.349169 1.085823,-2.434993 2.434995,-2.434993 h 26.833507 v -5.71283 h -19.425174 c -1.349171,0 -2.434995,-1.086342 -2.434995,-2.435511 0,-1.349168 1.085824,-2.434992 2.434995,-2.434992 h 19.425174 v -5.71283 h -19.425174 c -1.349171,0 -2.434995,-1.08634 -2.434995,-2.435511 0,-1.349168 1.085824,-2.434995 2.434995,-2.434995 h 19.425174 v -5.712827 h -26.833507 c -1.349172,0 -2.434995,-1.08634 -2.434995,-2.435511 0,-1.349169 1.085823,-2.434992 2.434995,-2.434992 h 26.833507 v -5.71283 h -26.833507 c -1.349172,0 -2.434995,-1.086341 -2.434995,-2.435511 0,-1.349169 1.085823,-2.434993 2.434995,-2.434993 h 26.833507 v -6.13916 c 0,-5.9440489 -4.785535,-10.729061 -10.729582,-10.729061 h -4.109826 v 9.552905 c 0,1.3491689 -1.085307,2.43551 -2.434476,2.43551 -1.349171,0 -2.435511,-1.08634 -2.435511,-2.43551 v -9.552905 h -5.71283 v 9.552905 c 0,1.3491689 -1.08634,2.43551 -2.435511,2.43551 -1.349168,0 -2.435511,-1.08634 -2.435511,-2.43551 v -9.552905 h -5.712827 v 9.552905 c 0,1.3491689 -1.085824,2.43551 -2.434995,2.43551 -1.349169,0 -2.435508,-1.08634 -2.435508,-2.43551 v -9.552905 h -5.71283 v 9.552905 c 0,1.3491689 -1.085308,2.43551 -2.434477,2.43551 -1.349171,0 -2.43551,-1.08634 -2.43551,-2.43551 v -9.552905 z" />
    </mask>
    <linearGradient
       inkscape:collect="always"
       xlink:href="#linearGradient9"
       id="linearGradient36"
       gradientUnits="userSpaceOnUse"
       gradientTransform="translate(-84.401582,39.776952)"
       x1="36.489277"
       y1="49.708801"
       x2="3.306396"
       y2="-41.849815" />
    <mask
       maskUnits="userSpaceOnUse"
       id="mask39">
      <path
         id="path40"
         style="display:inline;opacity:1;fill:url(#linearGradient40);stroke:none;stroke-width:1.05833;stroke-linecap:round;stroke-linejoin:round;stroke-miterlimit:12;paint-order:markers stroke fill"
         d="m -70.365367,-2.0733836 c -5.94405,0 -10.729569,4.785012 -10.729569,10.7290617 v 6.1391599 h 16.318378 10.514603 c 1.349171,0 2.435513,1.085824 2.435513,2.434993 0,1.34917 -1.086342,2.435511 -2.435513,2.435511 h -26.832981 v 5.712829 h 26.832981 c 1.349171,0 2.435513,1.085823 2.435513,2.434992 0,1.349171 -1.086342,2.435511 -2.435513,2.435511 h -26.832981 v 5.712827 h 19.42465 c 1.349169,0 2.435508,1.085829 2.435508,2.434995 0,1.349171 -1.086339,2.435511 -2.435508,2.435511 h -19.42465 v 5.71283 h 19.42465 c 1.349169,0 2.435508,1.085824 2.435508,2.434992 0,1.349169 -1.086339,2.435511 -2.435508,2.435511 h -19.42465 v 5.71283 h 26.832981 c 1.349171,0 2.435513,1.085824 2.435513,2.434995 0,1.349166 -1.086342,2.435508 -2.435513,2.435508 h -26.832981 v 5.712828 h 26.832981 c 1.349171,0 2.435513,1.085826 2.435513,2.434995 0,1.349168 -1.086342,2.43551 -2.435513,2.43551 h -26.832981 v 6.139159 c 0,5.94405 4.785519,10.729063 10.729569,10.729063 h 4.109831 V 79.89732 c 0,-1.349166 1.086339,-2.435508 2.435511,-2.435508 1.349168,0 2.434476,1.086342 2.434476,2.435508 v 9.552908 h 5.71283 V 79.89732 c 0,-1.349166 1.08634,-2.435508 2.435508,-2.435508 1.349172,0 2.434995,1.086342 2.434995,2.435508 v 9.552908 h 5.712828 V 79.89732 c 0,-1.349166 1.086342,-2.435508 2.435511,-2.435508 1.349171,0 2.43551,1.086342 2.43551,2.435508 v 9.552908 h 5.712831 V 79.89732 c 0,-1.349166 1.086339,-2.435508 2.43551,-2.435508 1.349169,0 2.434477,1.086342 2.434477,2.435508 v 9.552908 h 4.109825 c 5.944047,0 10.729585,-4.785013 10.729585,-10.729063 v -6.139159 h -26.83351 c -1.349171,0 -2.434995,-1.086342 -2.434995,-2.43551 0,-1.349169 1.085824,-2.434995 2.434995,-2.434995 h 26.83351 v -5.712828 h -26.83351 c -1.349171,0 -2.434995,-1.086342 -2.434995,-2.435508 0,-1.349171 1.085824,-2.434995 2.434995,-2.434995 h 26.83351 v -5.71283 h -19.425177 c -1.349171,0 -2.434994,-1.086342 -2.434994,-2.435511 0,-1.349168 1.085823,-2.434992 2.434994,-2.434992 h 19.425177 v -5.71283 h -19.425177 c -1.349171,0 -2.434994,-1.08634 -2.434994,-2.435511 0,-1.349166 1.085823,-2.434995 2.434994,-2.434995 h 19.425177 v -5.712827 h -26.83351 c -1.349171,0 -2.434995,-1.08634 -2.434995,-2.435511 0,-1.349169 1.085824,-2.434992 2.434995,-2.434992 h 26.83351 v -5.712829 h -26.83351 c -1.349171,0 -2.434995,-1.086341 -2.434995,-2.435511 0,-1.349169 1.085824,-2.434993 2.434995,-2.434993 h 26.83351 V 8.6556781 c 0,-5.9440497 -4.785538,-10.7290617 -10.729585,-10.7290617 h -4.109825 v 9.5529049 c 0,1.3491697 -1.085308,2.4355107 -2.434477,2.4355107 -1.349171,0 -2.43551,-1.08634 -2.43551,-2.4355107 v -9.5529049 h -5.712831 v 9.5529049 c 0,1.3491697 -1.086339,2.4355107 -2.43551,2.4355107 -1.349169,0 -2.435511,-1.08634 -2.435511,-2.4355107 v -9.5529049 h -5.712828 v 9.5529049 c 0,1.3491697 -1.085823,2.4355107 -2.434995,2.4355107 -1.349168,0 -2.435508,-1.08634 -2.435508,-2.4355107 v -9.5529049 h -5.71283 v 9.5529049 c 0,1.3491697 -1.085308,2.4355107 -2.434476,2.4355107 -1.349172,0 -2.435511,-1.08634 -2.435511,-2.4355107 v -9.5529049 z" />
    </mask>
    <linearGradient
       inkscape:collect="always"
       xlink:href="#linearGradient9"
       id="linearGradient40"
       gradientUnits="userSpaceOnUse"
       gradientTransform="translate(-84.401584,39.776952)"
       x1="8.0757179"
       y1="42.677162"
       x2="3.306396"
       y2="-41.849815" />
    <linearGradient
       inkscape:collect="always"
       xlink:href="#linearGradient3"
       id="linearGradient4"
       x1="-81.094934"
       y1="43.688422"
       x2="-14.796144"
       y2="43.688422"
       gradientUnits="userSpaceOnUse"
       gradientTransform="translate(115.60821,2.116631)" />
    <filter
       style="color-interpolation-filters:sRGB;"
       inkscape:label="Noise Fill"
       id="filter19"
       x="0"
       y="0"
       width="1"
       height="1">
      <feTurbulence
         type="fractalNoise"
         baseFrequency="8 8"
         numOctaves="1"
         seed="9"
         result="turbulence"
         id="feTurbulence18" />
      <feComposite
         in="SourceGraphic"
         in2="turbulence"
         operator="in"
         result="composite1"
         id="feComposite18" />
      <feColorMatrix
         values="1 0 0 0 0 0 1 0 0 0 0 0 1 0 0 0 0 0 3.4 -1 "
         result="color"
         id="feColorMatrix18" />
      <feFlood
         flood-opacity="1"
         flood-color="rgb(0,0,0)"
         result="flood"
         id="feFlood18" />
      <feMerge
         result="merge"
         id="feMerge19">
        <feMergeNode
           in="flood"
           id="feMergeNode18" />
        <feMergeNode
           in="color"
           id="feMergeNode19" />
      </feMerge>
      <feComposite
         in2="SourceGraphic"
         operator="in"
         result="composite2"
         id="feComposite19" />
    </filter>
    <filter
       inkscape:collect="always"
       style="color-interpolation-filters:sRGB"
       id="filter6"
       x="-0.057131321"
       y="-0.041385359"
       width="1.1142626"
       height="1.0827707">
      <feGaussianBlur
         inkscape:collect="always"
         stdDeviation="1.578224"
         id="feGaussianBlur6" />
    </filter>
    <linearGradient
       inkscape:collect="always"
       xlink:href="#linearGradient24726"
       id="linearGradient432253"
       gradientUnits="userSpaceOnUse"
       gradientTransform="matrix(7.8966941,0,0,7.8966941,0.44026536,-595.1683)"
       x1="16.167793"
       y1="84.628014"
       x2="16.167793"
       y2="87.699104" />
    <linearGradient
       inkscape:collect="always"
       id="linearGradient24726">
      <stop
         style="stop-color:#000000;stop-opacity:1;"
         offset="0"
         id="stop24722" />
      <stop
         style="stop-color:#ffffff;stop-opacity:0.88235295;"
         offset="0.1"
         id="stop24734" />
      <stop
         style="stop-color:#000000;stop-opacity:1;"
         offset="0.5"
         id="stop24730" />
      <stop
         style="stop-color:#ffffff;stop-opacity:1;"
         offset="0.89999998"
         id="stop24732" />
      <stop
         style="stop-color:#000000;stop-opacity:1;"
         offset="1"
         id="stop24724" />
    </linearGradient>
    <filter
       inkscape:collect="always"
       style="color-interpolation-filters:sRGB"
       id="filter965379-5-9"
       x="-0.12044035"
       y="-0.5150316"
       width="1.2408807"
       height="2.0300632">
      <feGaussianBlur
         inkscape:collect="always"
         stdDeviation="0.074838521"
         id="feGaussianBlur965381-7-0" />
    </filter>
    <filter
       inkscape:collect="always"
       style="color-interpolation-filters:sRGB"
       id="filter965375-7-4"
       x="-0.12044035"
       y="-0.51502883"
       width="1.2408807"
       height="2.0300577">
      <feGaussianBlur
         inkscape:collect="always"
         stdDeviation="0.074838521"
         id="feGaussianBlur965377-1-10" />
    </filter>
    <filter
       inkscape:collect="always"
       style="color-interpolation-filters:sRGB"
       id="filter965379-5-5"
       x="-0.12044035"
       y="-0.5150316"
       width="1.2408807"
       height="2.0300632">
      <feGaussianBlur
         inkscape:collect="always"
         stdDeviation="0.074838521"
         id="feGaussianBlur965381-7-5" />
    </filter>
    <filter
       inkscape:collect="always"
       style="color-interpolation-filters:sRGB"
       id="filter965375-7-3"
       x="-0.12044035"
       y="-0.51502883"
       width="1.2408807"
       height="2.0300577">
      <feGaussianBlur
         inkscape:collect="always"
         stdDeviation="0.074838521"
         id="feGaussianBlur965377-1-2" />
    </filter>
    <filter
       inkscape:collect="always"
       style="color-interpolation-filters:sRGB"
       id="filter965379-5-2"
       x="-0.12044035"
       y="-0.5150316"
       width="1.2408807"
       height="2.0300632">
      <feGaussianBlur
         inkscape:collect="always"
         stdDeviation="0.074838521"
         id="feGaussianBlur965381-7-1" />
    </filter>
    <filter
       inkscape:collect="always"
       style="color-interpolation-filters:sRGB"
       id="filter965375-7-8"
       x="-0.12044035"
       y="-0.51502883"
       width="1.2408807"
       height="2.0300577">
      <feGaussianBlur
         inkscape:collect="always"
         stdDeviation="0.074838521"
         id="feGaussianBlur965377-1-7" />
    </filter>
    <filter
       inkscape:collect="always"
       style="color-interpolation-filters:sRGB"
       id="filter965379-5-4"
       x="-0.12044035"
       y="-0.5150316"
       width="1.2408807"
       height="2.0300632">
      <feGaussianBlur
         inkscape:collect="always"
         stdDeviation="0.074838521"
         id="feGaussianBlur965381-7-9" />
    </filter>
    <filter
       inkscape:collect="always"
       style="color-interpolation-filters:sRGB"
       id="filter965375-7-2"
       x="-0.12044035"
       y="-0.51502883"
       width="1.2408807"
       height="2.0300577">
      <feGaussianBlur
         inkscape:collect="always"
         stdDeviation="0.074838521"
         id="feGaussianBlur965377-1-1" />
    </filter>
    <filter
       inkscape:collect="always"
       style="color-interpolation-filters:sRGB"
       id="filter965387-0-5-5-9"
       x="-0.12044036"
       y="-0.5150316"
       width="1.2408807"
       height="2.0300632">
      <feGaussianBlur
         inkscape:collect="always"
         stdDeviation="0.074838521"
         id="feGaussianBlur965389-0-0-4-7" />
    </filter>
    <filter
       inkscape:collect="always"
       style="color-interpolation-filters:sRGB"
       id="filter965383-8-4-6-2"
       x="-0.12044036"
       y="-0.5150436"
       width="1.2408807"
       height="2.0300872">
      <feGaussianBlur
         inkscape:collect="always"
         stdDeviation="0.074838521"
         id="feGaussianBlur965385-5-2-4-9" />
    </filter>
    <filter
       inkscape:collect="always"
       style="color-interpolation-filters:sRGB"
       id="filter965395-2-08"
       x="-0.12044036"
       y="-0.51503326"
       width="1.2408807"
       height="2.0300665">
      <feGaussianBlur
         inkscape:collect="always"
         stdDeviation="0.074838521"
         id="feGaussianBlur965397-9-0" />
    </filter>
    <filter
       inkscape:collect="always"
       style="color-interpolation-filters:sRGB"
       id="filter965391-2-4"
       x="-0.12044036"
       y="-0.51503031"
       width="1.2408807"
       height="2.0300606">
      <feGaussianBlur
         inkscape:collect="always"
         stdDeviation="0.074838521"
         id="feGaussianBlur965393-2-5" />
    </filter>
    <filter
       inkscape:collect="always"
       style="color-interpolation-filters:sRGB"
       id="filter965395-9-9"
       x="-0.12044036"
       y="-0.51503326"
       width="1.2408807"
       height="2.0300665">
      <feGaussianBlur
         inkscape:collect="always"
         stdDeviation="0.074838521"
         id="feGaussianBlur965397-4-3" />
    </filter>
    <filter
       inkscape:collect="always"
       style="color-interpolation-filters:sRGB"
       id="filter965391-9-8"
       x="-0.12044036"
       y="-0.51503031"
       width="1.2408807"
       height="2.0300606">
      <feGaussianBlur
         inkscape:collect="always"
         stdDeviation="0.074838521"
         id="feGaussianBlur965393-7-2" />
    </filter>
    <filter
       inkscape:collect="always"
       style="color-interpolation-filters:sRGB"
       id="filter965387-1-1"
       x="-0.12044036"
       y="-0.5150316"
       width="1.2408807"
       height="2.0300632">
      <feGaussianBlur
         inkscape:collect="always"
         stdDeviation="0.074838521"
         id="feGaussianBlur965389-5-35" />
    </filter>
    <filter
       inkscape:collect="always"
       style="color-interpolation-filters:sRGB"
       id="filter965383-1-33"
       x="-0.12044036"
       y="-0.5150436"
       width="1.2408807"
       height="2.0300872">
      <feGaussianBlur
         inkscape:collect="always"
         stdDeviation="0.074838521"
         id="feGaussianBlur965385-1-3" />
    </filter>
    <filter
       inkscape:collect="always"
       style="color-interpolation-filters:sRGB"
       id="filter965387-0-7"
       x="-0.12044036"
       y="-0.5150316"
       width="1.2408807"
       height="2.0300632">
      <feGaussianBlur
         inkscape:collect="always"
         stdDeviation="0.074838521"
         id="feGaussianBlur965389-0-5" />
    </filter>
    <filter
       inkscape:collect="always"
       style="color-interpolation-filters:sRGB"
       id="filter965383-8-9"
       x="-0.12044036"
       y="-0.5150436"
       width="1.2408807"
       height="2.0300872">
      <feGaussianBlur
         inkscape:collect="always"
         stdDeviation="0.074838521"
         id="feGaussianBlur965385-5-23" />
    </filter>
    <filter
       inkscape:collect="always"
       style="color-interpolation-filters:sRGB"
       id="filter965387-2-8"
       x="-0.12044036"
       y="-0.5150316"
       width="1.2408807"
       height="2.0300632">
      <feGaussianBlur
         inkscape:collect="always"
         stdDeviation="0.074838521"
         id="feGaussianBlur965389-7-02" />
    </filter>
    <filter
       inkscape:collect="always"
       style="color-interpolation-filters:sRGB"
       id="filter965383-9-0"
       x="-0.12044036"
       y="-0.5150436"
       width="1.2408807"
       height="2.0300872">
      <feGaussianBlur
         inkscape:collect="always"
         stdDeviation="0.074838521"
         id="feGaussianBlur965385-2-8" />
    </filter>
  </defs>
  <g
     inkscape:label="Layer 1"
     inkscape:groupmode="layer"
     id="layer1">
    <path
       id="rect28"
       style="display:inline;opacity:1;fill:url(#linearGradient30);stroke:none;stroke-width:3.175;stroke-linecap:round;stroke-linejoin:round;stroke-miterlimit:12;stroke-dasharray:none;stroke-opacity:1;paint-order:markers stroke fill"
       d="m 30.309261,43.470936 c -0.674585,0 -1.217497,0.542912 -1.217497,1.217497 v 2.232422 c 0,0.674584 0.542912,1.217496 1.217497,1.217496 h 5.173327 c 0.674585,0 1.217497,-0.542912 1.217497,-1.217496 v -2.232422 c 0,-0.674585 -0.542912,-1.217497 -1.217497,-1.217497 z m 70.103209,5.17e-4 c -0.67458,0 -1.218009,0.543429 -1.218009,1.218013 v 2.232422 c 0,0.674585 0.543429,1.217497 1.218009,1.217497 h 5.17333 c 0.67459,0 1.2175,-0.542912 1.2175,-1.217497 v -2.232422 c 0,-0.674584 -0.54291,-1.218013 -1.2175,-1.218013 z" />
    <rect
       style="display:inline;opacity:0.6;fill:url(#linearGradient42);fill-opacity:1;stroke:none;stroke-width:3.175;stroke-linecap:round;stroke-linejoin:round;stroke-miterlimit:12;stroke-dasharray:none;stroke-opacity:1;paint-order:markers stroke fill;filter:url(#filter41)"
       id="rect40"
       width="75.726685"
       height="0.91815823"
       x="29.869987"
       y="44.358463" />
    <rect
       style="display:inline;opacity:1;fill:url(#linearGradient20);stroke:none;stroke-width:1.05833;stroke-linecap:round;stroke-linejoin:round;stroke-miterlimit:12;paint-order:markers stroke fill"
       id="rect1"
       width="66.298302"
       height="91.523819"
       x="34.584183"
       y="0.043614339"
       ry="10.729329" />
    <rect
       style="display:inline;opacity:0.18;fill:url(#linearGradient20);stroke:none;stroke-width:1.05833;stroke-linecap:round;stroke-linejoin:round;stroke-miterlimit:12;paint-order:markers stroke fill;filter:url(#filter19)"
       id="rect12"
       width="66.298302"
       height="91.523819"
       x="34.584183"
       y="0.043614339"
       ry="10.729329"
       inkscape:label="noise" />
    <path
       style="baseline-shift:baseline;display:inline;overflow:visible;mix-blend-mode:normal;vector-effect:none;fill:url(#linearGradient25);stroke-linecap:round;stroke-linejoin:round;stroke-miterlimit:12;paint-order:markers stroke fill;filter:url(#filter25);enable-background:accumulate;stop-color:#000000"
       d="m -55.568359,-11.408203 c -7.08007,0 -12.845703,5.7656339 -12.845703,12.845703 v 70.064453 c 0,7.080069 5.765633,12.847656 12.845703,12.847656 h 44.839843 c 7.0800695,0 12.8457035,-5.767587 12.8457035,-12.847656 V 1.4375 c 0,-7.0800691 -5.765634,-12.845703 -12.8457035,-12.845703 z m 0,4.2324218 h 44.839843 c 4.8080279,0 8.6113285,3.8052537 8.6113285,8.6132812 v 70.064453 c 0,4.808028 -3.8033006,8.613281 -8.6113285,8.613281 h -44.839843 c -4.808028,0 -8.613282,-3.805253 -8.613282,-8.613281 V 1.4375 c 0,-4.8080275 3.805254,-8.6132812 8.613282,-8.6132812 z"
       id="path22"
       clip-path="url(#clipPath23)"
       transform="translate(100.88177,9.334819)" />
    <path
       id="path2"
       style="display:inline;opacity:1;fill:url(#linearGradient4);stroke:none;stroke-width:1.05833;stroke-linecap:round;stroke-linejoin:round;stroke-miterlimit:12;paint-order:markers stroke fill"
       d="m 45.242842,0.04324704 c -5.94405,0 -10.72957,4.78501236 -10.72957,10.72906096 v 6.13916 h 16.31838 10.51461 c 1.34917,0 2.43551,1.085824 2.43551,2.434993 0,1.34917 -1.08634,2.435511 -2.43551,2.435511 h -26.83299 v 5.712829 h 26.83299 c 1.34917,0 2.43551,1.085825 2.43551,2.434994 0,1.34917 -1.08634,2.43551 -2.43551,2.43551 h -26.83299 v 5.712829 h 19.42465 c 1.34917,0 2.43551,1.085825 2.43551,2.434994 0,1.34917 -1.08634,2.43551 -2.43551,2.43551 h -19.42465 v 5.71283 h 19.42465 c 1.34917,0 2.43551,1.085824 2.43551,2.434993 0,1.34917 -1.08634,2.43551 -2.43551,2.43551 h -19.42465 v 5.71283 h 26.83299 c 1.34917,0 2.43551,1.085824 2.43551,2.434993 0,1.34917 -1.08634,2.43551 -2.43551,2.43551 h -26.83299 v 5.71283 h 26.83299 c 1.34917,0 2.43551,1.085824 2.43551,2.434993 0,1.34917 -1.08634,2.435511 -2.43551,2.435511 h -26.83299 v 6.13916 c 0,5.944048 4.78552,10.72906 10.72957,10.72906 h 4.10983 v -9.552905 c 0,-1.34917 1.08634,-2.43551 2.43551,-2.43551 1.34917,0 2.43448,1.086341 2.43448,2.43551 v 9.552905 h 5.71283 v -9.552905 c 0,-1.34917 1.08634,-2.43551 2.43551,-2.43551 1.34917,0 2.43499,1.086341 2.43499,2.43551 v 9.552905 h 5.71283 v -9.552905 c 0,-1.34917 1.08634,-2.43551 2.43551,-2.43551 1.34917,0 2.43551,1.086341 2.43551,2.43551 v 9.552905 h 5.71283 v -9.552905 c 0,-1.34917 1.08634,-2.43551 2.43551,-2.43551 1.34917,0 2.43448,1.086341 2.43448,2.43551 v 9.552905 h 4.10983 c 5.94405,0 10.729578,-4.785012 10.729578,-10.72906 v -6.13916 H 73.978562 c -1.34917,0 -2.43499,-1.086341 -2.43499,-2.435511 0,-1.349169 1.08582,-2.434993 2.43499,-2.434993 h 26.833508 v -5.71283 H 73.978562 c -1.34917,0 -2.43499,-1.08634 -2.43499,-2.43551 0,-1.349169 1.08582,-2.434993 2.43499,-2.434993 h 26.833508 v -5.71283 H 81.386892 c -1.34917,0 -2.43499,-1.08634 -2.43499,-2.43551 0,-1.349169 1.08582,-2.434993 2.43499,-2.434993 h 19.425178 v -5.71283 H 81.386892 c -1.34917,0 -2.43499,-1.08634 -2.43499,-2.43551 0,-1.349169 1.08582,-2.434994 2.43499,-2.434994 H 100.81207 V 32.365305 H 73.978562 c -1.34917,0 -2.43499,-1.08634 -2.43499,-2.43551 0,-1.349169 1.08582,-2.434994 2.43499,-2.434994 H 100.81207 V 21.781972 H 73.978562 c -1.34917,0 -2.43499,-1.086341 -2.43499,-2.435511 0,-1.349169 1.08582,-2.434993 2.43499,-2.434993 h 26.833508 v -6.13916 c 0,-5.9440486 -4.785528,-10.72906096 -10.729578,-10.72906096 h -4.10983 V 9.5961523 c 0,1.3491687 -1.08531,2.4355097 -2.43448,2.4355097 -1.34917,0 -2.43551,-1.08634 -2.43551,-2.4355097 V 0.04324704 h -5.71283 V 9.5961523 c 0,1.3491687 -1.08634,2.4355097 -2.43551,2.4355097 -1.34917,0 -2.43551,-1.08634 -2.43551,-2.4355097 V 0.04324704 h -5.71283 V 9.5961523 c 0,1.3491687 -1.08582,2.4355097 -2.43499,2.4355097 -1.34917,0 -2.43551,-1.08634 -2.43551,-2.4355097 V 0.04324704 h -5.71283 V 9.5961523 c 0,1.3491687 -1.08531,2.4355097 -2.43448,2.4355097 -1.34917,0 -2.43551,-1.08634 -2.43551,-2.4355097 V 0.04324704 Z"
       mask="none" />
    <path
       id="rect7"
       style="display:inline;opacity:1;fill:#000000;fill-opacity:1;stroke:none;stroke-width:1.05833;stroke-linecap:round;stroke-linejoin:round;stroke-miterlimit:12;paint-order:markers stroke fill"
       d="m 49.423339,0.0434082 v 9.5529052 c 0,1.3491696 1.08634,2.4355106 2.43551,2.4355106 1.34917,0 2.434477,-1.086342 2.434477,-2.4355106 V 0.0434082 Z m 10.582817,0 v 9.5529052 c 0,1.3491696 1.08634,2.4355106 2.43551,2.4355106 1.34917,0 2.434993,-1.086342 2.434993,-2.4355106 V 0.0434082 Z m 10.583333,0 v 9.5529052 c 0,1.3491696 1.08634,2.4355106 2.43551,2.4355106 1.34917,0 2.43551,-1.086342 2.43551,-2.4355106 V 0.0434082 Z m 10.58385,0 v 9.5529052 c 0,1.3491696 1.08634,2.4355106 2.43551,2.4355106 1.34917,0 2.434477,-1.086342 2.434477,-2.4355106 V 0.0434082 Z M 34.583935,16.911629 v 4.870504 h 26.832987 c 1.34917,0 2.43551,-1.086341 2.43551,-2.435511 0,-1.349169 -1.08634,-2.434993 -2.43551,-2.434993 H 50.902319 Z m 39.465291,0 c -1.349169,0 -2.434993,1.085824 -2.434993,2.434993 0,1.34917 1.085824,2.435511 2.434993,2.435511 H 100.88273 V 16.911629 Z M 34.583935,27.494962 v 4.870504 h 26.832987 c 1.34917,0 2.43551,-1.08634 2.43551,-2.43551 0,-1.349169 -1.08634,-2.434994 -2.43551,-2.434994 z m 39.465291,0 c -1.349169,0 -2.434993,1.085825 -2.434993,2.434994 0,1.34917 1.085824,2.43551 2.434993,2.43551 h 26.833504 v -4.870504 z m -6.315894,9.15448 a 2.1309083,2.1309083 0 0 0 -2.131136,2.131136 2.1309083,2.1309083 0 0 0 2.131136,2.130619 2.1309083,2.1309083 0 0 0 2.131137,-2.130619 2.1309083,2.1309083 0 0 0 -2.131137,-2.131136 z m -33.149397,1.428853 v 4.870504 h 19.424654 c 1.34917,0 2.43551,-1.08634 2.43551,-2.43551 0,-1.349169 -1.08634,-2.434994 -2.43551,-2.434994 z m 46.873624,0 c -1.349169,0 -2.434993,1.085825 -2.434993,2.434994 0,1.34917 1.085824,2.43551 2.434993,2.43551 h 19.425171 v -4.870504 z m -19.80861,2.084111 a 2.1309083,2.1309083 0 0 0 -1.845365,1.065051 2.1309083,2.1309083 0 0 0 0.780314,2.910934 2.1309083,2.1309083 0 0 0 2.910417,-0.779798 2.1309083,2.1309083 0 0 0 -0.779798,-2.910933 2.1309083,2.1309083 0 0 0 -1.065568,-0.285254 z m 12.168767,0 a 2.1309083,2.1309083 0 0 0 -1.065568,0.285254 2.1309083,2.1309083 0 0 0 -0.779798,2.910933 2.1309083,2.1309083 0 0 0 2.910417,0.779798 2.1309083,2.1309083 0 0 0 0.780314,-2.910934 2.1309083,2.1309083 0 0 0 -1.845365,-1.065051 z m -6.084384,3.512447 a 2.1309083,2.1309083 0 0 0 -2.131136,2.131136 2.1309083,2.1309083 0 0 0 2.131136,2.130619 2.1309083,2.1309083 0 0 0 2.131137,-2.130619 2.1309083,2.1309083 0 0 0 -2.131137,-2.131136 z m -6.084383,3.512964 a 2.1309083,2.1309083 0 0 0 -1.065051,0.285254 2.1309083,2.1309083 0 0 0 -0.780314,2.910933 2.1309083,2.1309083 0 0 0 2.910933,0.779797 2.1309083,2.1309083 0 0 0 0.779798,-2.910933 2.1309083,2.1309083 0 0 0 -1.845366,-1.065051 z m 12.168767,0 a 2.1309083,2.1309083 0 0 0 -1.845366,1.065051 2.1309083,2.1309083 0 0 0 0.779798,2.910933 2.1309083,2.1309083 0 0 0 2.910933,-0.779797 2.1309083,2.1309083 0 0 0 -0.780314,-2.910933 2.1309083,2.1309083 0 0 0 -1.065051,-0.285254 z m -39.233781,1.473812 v 4.870503 h 19.424654 c 1.34917,0 2.43551,-1.08634 2.43551,-2.43551 0,-1.349169 -1.08634,-2.434993 -2.43551,-2.434993 z m 46.873624,0 c -1.349169,0 -2.434993,1.085824 -2.434993,2.434993 0,1.34917 1.085824,2.43551 2.434993,2.43551 h 19.425171 v -4.870503 z m -13.724227,2.038635 a 2.1309083,2.1309083 0 0 0 -2.131136,2.131136 2.1309083,2.1309083 0 0 0 2.131136,2.130619 2.1309083,2.1309083 0 0 0 2.131137,-2.130619 2.1309083,2.1309083 0 0 0 -2.131137,-2.131136 z m -33.149397,8.544698 v 4.870504 h 26.832987 c 1.34917,0 2.43551,-1.086341 2.43551,-2.435511 0,-1.349169 -1.08634,-2.434993 -2.43551,-2.434993 z m 39.465291,0 c -1.349169,0 -2.434993,1.085824 -2.434993,2.434993 0,1.34917 1.085824,2.435511 2.434993,2.435511 H 100.88273 V 59.244962 Z M 34.583935,69.828295 v 4.870504 h 26.832987 c 1.34917,0 2.43551,-1.086341 2.43551,-2.435511 0,-1.349169 -1.08634,-2.434993 -2.43551,-2.434993 z m 39.465291,0 c -1.349169,0 -2.434993,1.085824 -2.434993,2.434993 0,1.34917 1.085824,2.435511 2.434993,2.435511 h 26.833504 v -4.870504 z m -22.190377,9.750309 c -1.34917,0 -2.43551,1.08634 -2.43551,2.43551 v 9.552906 h 4.869987 v -9.552906 c 0,-1.349169 -1.085307,-2.43551 -2.434477,-2.43551 z m 10.582817,0 c -1.34917,0 -2.43551,1.08634 -2.43551,2.43551 v 9.552906 h 4.870503 v -9.552906 c 0,-1.349169 -1.085823,-2.43551 -2.434993,-2.43551 z m 10.583333,0 c -1.34917,0 -2.43551,1.08634 -2.43551,2.43551 v 9.552906 h 4.87102 v -9.552906 c 0,-1.349169 -1.08634,-2.43551 -2.43551,-2.43551 z m 10.58385,0 c -1.34917,0 -2.43551,1.08634 -2.43551,2.43551 v 9.552906 h 4.869987 v -9.552906 c 0,-1.349169 -1.085307,-2.43551 -2.434477,-2.43551 z" />
    <rect
       style="display:inline;opacity:1;fill:url(#linearGradient34);fill-opacity:1;stroke:none;stroke-width:3.175;stroke-linecap:round;stroke-linejoin:round;stroke-miterlimit:12;stroke-dasharray:none;stroke-opacity:1;paint-order:markers stroke fill"
       id="rect32"
       width="14.214516"
       height="35.116161"
       x="62.49818"
       y="100.3505"
       ry="2.1948009" />
    <ellipse
       style="display:inline;opacity:0.6;mix-blend-mode:normal;fill:#ffffff;fill-opacity:1;stroke:none;stroke-width:0.264583;stroke-linecap:round;stroke-linejoin:round;stroke-miterlimit:12;stroke-dasharray:none;stroke-opacity:1;paint-order:markers stroke fill;filter:url(#filter55)"
       id="path55"
       cx="4.0246482"
       cy="135.46666"
       rx="4.7355933"
       ry="15.928813"
       clip-path="url(#clipPath55)"
       transform="translate(65.58079,-17.558073)" />
    <path
       id="path25"
       style="baseline-shift:baseline;display:inline;overflow:visible;opacity:1;fill:url(#linearGradient32);stroke:url(#linearGradient48);stroke-width:0.264583;stroke-linecap:round;stroke-dasharray:none;paint-order:markers stroke fill;enable-background:accumulate;stop-color:#000000;stop-opacity:1"
       d="m 28.804443,35.06163 a 1.5875,1.5875 0 0 0 -1.58595,1.5875 v 52.818481 c 0,6.714022 5.440483,12.203829 12.152747,12.273589 l 28.345556,0.29456 a 1.5875,1.5875 0 0 0 0.01654,-10e-4 1.5875,1.5875 0 0 0 0.01654,10e-4 l 28.346073,-0.29456 c 6.712271,-0.0698 12.152231,-5.559567 12.152231,-12.273589 V 36.64913 a 1.5875,1.5875 0 0 0 -1.58802,-1.5875 1.5875,1.5875 0 0 0 -1.58594,1.5875 v 52.818481 c 0,5.008965 -4.00177,9.045571 -9.011861,9.097636 L 67.733332,98.860319 39.404313,98.565247 C 34.394226,98.513187 30.39246,94.476576 30.39246,89.467611 V 36.64913 a 1.5875,1.5875 0 0 0 -1.588017,-1.5875 z" />
    <path
       id="rect36"
       style="display:inline;opacity:1;fill:url(#linearGradient38);stroke:none;stroke-width:3.175;stroke-linecap:round;stroke-linejoin:round;stroke-miterlimit:12;stroke-dasharray:none;stroke-opacity:1;paint-order:markers stroke fill"
       d="m 49.423344,0.0439768 v 2.5833029 h 4.86998 V 0.0439768 Z m 10.58281,0 v 2.5833029 h 4.87051 V 0.0439768 Z m 10.58334,0 v 2.5833029 h 4.87102 V 0.0439768 Z m 10.58385,0 v 2.5833029 h 4.86998 V 0.0439768 Z M 34.583934,16.912196 v 4.869987 h 2.58331 v -4.869987 z m 63.71498,0 v 4.869987 h 2.583816 v -4.869987 h -10e-4 z m -63.71498,10.582816 v 5.17e-4 4.869987 h 2.58331 v -4.869987 -5.17e-4 z m 63.71498,0 v 5.17e-4 4.869987 h 2.583816 v -4.869987 h -10e-4 v -5.17e-4 z m -63.71498,10.58385 v 4.869987 h 2.58331 v -4.869987 z m 63.71498,0 v 4.869987 h 2.583816 v -4.869987 h -10e-4 z m -63.71498,10.582817 v 5.16e-4 4.869987 h 2.58331 v -4.869987 -5.16e-4 z m 63.71498,0 v 5.16e-4 4.869987 h 2.583816 v -4.869987 h -10e-4 v -5.16e-4 z m -63.71498,10.583333 v 5.17e-4 4.870503 h 2.58331 v -4.870503 -5.17e-4 z m 63.71498,0 v 5.17e-4 4.870503 h 2.582786 0.001 v -4.870503 h -0.001 v -5.17e-4 z m -63.71498,10.583333 v 5.17e-4 4.869987 h 2.58331 v -4.869987 -5.17e-4 z m 63.71498,0 v 5.17e-4 4.869987 h 2.583816 v -4.869987 h -10e-4 v -5.17e-4 z m -48.87557,19.155937 v 2.582788 h 4.86998 v -2.582788 z m 10.58281,0 v 2.582788 h 4.87051 v -2.582788 z m 10.58334,0 v 2.582788 h 4.87102 v -2.582788 z m 10.58385,0 v 2.582788 h 4.86998 v -2.582788 z" />
    <path
       style="baseline-shift:baseline;display:inline;overflow:visible;opacity:0.44;vector-effect:none;fill:url(#linearGradient46);stroke-linecap:round;stroke-linejoin:round;stroke-miterlimit:12;paint-order:markers stroke fill;filter:url(#filter45);enable-background:accumulate;stop-color:#000000"
       d="m 157.13477,-1.8046875 c -6.22806,0 -11.25782,5.029759 -11.25782,11.2578125 v 70.064453 c 0,6.228054 5.02976,11.259766 11.25782,11.259766 h 44.83984 c 6.22805,0 11.25977,-5.031712 11.25976,-11.259766 V 9.453125 c 0,-6.2280535 -5.03171,-11.2578125 -11.25976,-11.2578125 z m 0,1.05664063 h 44.83984 c 5.66004,0 10.20117,4.54112877 10.20117,10.20117187 v 70.064453 c 0,5.660043 -4.54113,10.201172 -10.20117,10.201172 h -44.83984 c -5.66005,0 -10.19922,-4.541129 -10.19922,-10.201172 V 9.453125 c 0,-5.6600431 4.53917,-10.20117187 10.19922,-10.20117187 z"
       id="path43"
       clip-path="url(#clipPath44)"
       transform="translate(-111.82233,1.3191942)" />
    <path
       id="path48"
       style="baseline-shift:baseline;display:inline;overflow:visible;opacity:1;fill:url(#linearGradient49);stroke:none;stroke-width:0.264583;stroke-linecap:round;stroke-dasharray:none;paint-order:markers stroke fill;enable-background:accumulate;stop-color:#000000;stop-opacity:1"
       d="m 28.804443,35.061372 a 1.5875,1.5875 0 0 0 -1.58595,1.5875 v 50.701814 c 0,6.714022 5.44049,12.20385 12.15275,12.273604 l 28.34555,0.295058 a 1.5875,1.5875 0 0 0 0.01654,-0.001 1.5875,1.5875 0 0 0 0.01654,0.001 L 96.095943,99.62429 C 102.8082,99.55449 108.24817,94.064708 108.24817,87.350686 V 36.648872 a 1.5875,1.5875 0 0 0 -1.58802,-1.5875 1.5875,1.5875 0 0 0 -1.58595,1.5875 v 50.701814 2.116667 c 0,5.008965 -4.00177,9.04556 -9.011847,9.09763 l -28.32902,0.29507 -28.32902,-0.29507 c -5.01009,-0.0521 -9.01185,-4.088665 -9.01185,-9.09763 V 87.350686 36.648872 a 1.5875,1.5875 0 0 0 -1.58802,-1.5875 z" />
    <path
       id="path53"
       style="display:inline;opacity:0.6;fill:url(#radialGradient55);stroke:none;stroke-width:1.05833;stroke-linecap:round;stroke-linejoin:round;stroke-miterlimit:12;paint-order:markers stroke fill"
       d="m 49.423337,9.596519 v 0.529167 c 0,1.34917 1.08634,2.43551 2.43551,2.43551 1.34917,0 2.43448,-1.086341 2.43448,-2.43551 V 9.596519 c 0,1.349169 -1.08531,2.435511 -2.43448,2.435511 -1.34917,0 -2.43551,-1.086341 -2.43551,-2.435511 z m 10.58282,0 v 0.529167 c 0,1.34917 1.08634,2.43551 2.43551,2.43551 1.34917,0 2.43499,-1.086341 2.43499,-2.43551 V 9.596519 c 0,1.349169 -1.08582,2.435511 -2.43499,2.435511 -1.34917,0 -2.43551,-1.086341 -2.43551,-2.435511 z m 10.58333,0 v 0.529167 c 0,1.34917 1.08634,2.43551 2.43551,2.43551 1.34917,0 2.43551,-1.086341 2.43551,-2.43551 V 9.596519 c 0,1.349169 -1.08634,2.435511 -2.43551,2.435511 -1.34917,0 -2.43551,-1.086341 -2.43551,-2.435511 z m 10.58385,0 v 0.529167 c 0,1.34917 1.08634,2.43551 2.43551,2.43551 1.34917,0 2.43448,-1.086341 2.43448,-2.43551 V 9.596519 c 0,1.349169 -1.08531,2.435511 -2.43448,2.435511 -1.34917,0 -2.43551,-1.086341 -2.43551,-2.435511 z m -17.33486,10.014893 c -0.13109,1.223827 -1.16181,2.170927 -2.42155,2.170927 h -26.83299 v 0.529166 h 26.83299 c 1.34917,0 2.43551,-1.08634 2.43551,-2.43551 0,-0.08943 -0.0047,-0.177707 -0.01396,-0.264583 z m 7.78971,0 c -0.0093,0.08688 -0.01395,0.175153 -0.01395,0.264583 0,1.34917 1.08582,2.43551 2.43499,2.43551 H 100.88273 V 21.782339 H 74.049227 c -1.25974,0 -2.29001,-0.9471 -2.42104,-2.170927 z m -7.78971,10.583333 c -0.13109,1.223827 -1.16181,2.170927 -2.42155,2.170927 h -26.83299 v 0.529166 h 26.83299 c 1.34917,0 2.43551,-1.08634 2.43551,-2.43551 0,-0.08943 -0.0047,-0.177706 -0.01396,-0.264583 z m 7.78971,0 c -0.0093,0.08688 -0.01395,0.175153 -0.01395,0.264583 0,1.34917 1.08582,2.43551 2.43499,2.43551 H 100.88273 V 32.365672 H 74.049227 c -1.25974,0 -2.29001,-0.9471 -2.42104,-2.170927 z m -6.00894,8.850106 c -0.01117,0.08776 -0.01686,0.17612 -0.01705,0.264583 1.6e-4,1.176846 0.954294,2.130747 2.13114,2.130619 1.176842,1.22e-4 2.13097,-0.953777 2.13113,-2.130619 -1.86e-4,-0.08846 -0.0059,-0.176828 -0.01705,-0.264583 -0.13354,1.066002 -1.039746,1.865884 -2.11408,1.866036 -1.074338,-1.47e-4 -1.98055,-0.80003 -2.11409,-1.866036 z m -9.1891,1.733227 c -0.13109,1.223827 -1.16182,2.170927 -2.42156,2.170927 h -19.42465 v 0.529167 h 19.42465 c 1.34917,0 2.43551,-1.086341 2.43551,-2.435511 0,-0.08943 -0.0046,-0.177706 -0.01395,-0.264583 z m 22.60637,0 c -0.0093,0.08688 -0.01395,0.175153 -0.01395,0.264583 0,1.34917 1.08582,2.435511 2.43499,2.435511 H 100.88273 V 42.949005 H 81.457557 c -1.25974,0 -2.29,-0.9471 -2.42104,-2.170927 z m -19.50113,1.77922 c -0.10646,0.850149 0.306609,1.68138 1.04851,2.109948 1.019052,0.588153 2.32194,0.239066 2.91042,-0.779797 0.231952,-0.402314 0.326129,-0.869388 0.2682,-1.330151 -0.03506,0.282216 -0.126247,0.554561 -0.2682,0.800984 -0.588479,1.018864 -1.891368,1.367951 -2.91042,0.779798 -0.577695,-0.333734 -0.965741,-0.91877 -1.04851,-1.580782 z m 12.16876,0 c -0.05793,0.460764 0.03625,0.927838 0.26821,1.330151 0.588479,1.018857 1.89136,1.367943 2.91041,0.779797 0.741905,-0.428565 1.154978,-1.259796 1.04852,-2.109948 -0.08277,0.662014 -0.470821,1.24705 -1.04852,1.580782 -1.01905,0.588146 -2.321931,0.23906 -2.91041,-0.779798 -0.141956,-0.246422 -0.233151,-0.518767 -0.26821,-0.800984 z m -6.0849,3.512963 c -0.01117,0.08776 -0.01686,0.176121 -0.01705,0.264584 1.6e-4,1.176846 0.954294,2.130747 2.13114,2.130619 1.176842,1.22e-4 2.13097,-0.953777 2.13113,-2.130619 -1.86e-4,-0.08846 -0.0059,-0.176829 -0.01705,-0.264584 -0.13354,1.066002 -1.039746,1.865884 -2.11408,1.866036 -1.074338,-1.47e-4 -1.98055,-0.80003 -2.11409,-1.866036 z m -6.08386,3.512448 c -0.05793,0.460763 0.03625,0.927837 0.2682,1.330151 0.588494,1.019169 1.891764,1.368297 2.91093,0.779797 0.741705,-0.428709 1.154558,-1.259911 1.048,-2.109948 -0.08266,0.661915 -0.4705,1.246931 -1.048,1.580782 -1.019166,0.5885 -2.322437,0.239372 -2.91093,-0.779798 -0.141953,-0.246423 -0.233144,-0.518768 -0.2682,-0.800984 z m 12.16876,0 c -0.106558,0.850037 0.306295,1.681239 1.048,2.109948 1.019168,0.588507 2.322446,0.239378 2.91094,-0.779797 0.231952,-0.402314 0.326129,-0.869388 0.2682,-1.330151 -0.03506,0.282216 -0.126247,0.554561 -0.2682,0.800984 -0.588494,1.019176 -1.891772,1.368305 -2.91094,0.779798 -0.5775,-0.333851 -0.965345,-0.918867 -1.048,-1.580782 z m -15.274,1.778702 c -0.13109,1.223828 -1.16182,2.170927 -2.42156,2.170927 h -19.42465 v 0.529167 h 19.42465 c 1.34917,0 2.43551,-1.08634 2.43551,-2.43551 0,-0.08943 -0.0046,-0.177707 -0.01395,-0.264584 z m 22.60637,0 c -0.0093,0.08688 -0.01395,0.175153 -0.01395,0.264584 0,1.34917 1.08582,2.43551 2.43499,2.43551 H 100.88273 V 53.532338 H 81.457557 c -1.25974,0 -2.29,-0.947099 -2.42104,-2.170927 z m -13.41727,1.734261 c -0.01117,0.08775 -0.01686,0.176121 -0.01705,0.264584 1.6e-4,1.176846 0.954294,2.130747 2.13114,2.130619 1.176842,1.22e-4 2.13097,-0.953777 2.13113,-2.130619 -1.86e-4,-0.08846 -0.0059,-0.176829 -0.01705,-0.264584 -0.13354,1.066002 -1.039746,1.865884 -2.11408,1.866036 -1.074338,-1.47e-4 -1.98055,-0.80003 -2.11409,-1.866036 z m -1.78077,8.849073 c -0.13109,1.223827 -1.16181,2.170926 -2.42155,2.170926 h -26.83299 v 0.529167 h 26.83299 c 1.34917,0 2.43551,-1.08634 2.43551,-2.43551 0,-0.08943 -0.0047,-0.177707 -0.01396,-0.264583 z m 7.78971,0 c -0.0093,0.08688 -0.01395,0.175153 -0.01395,0.264583 0,1.34917 1.08582,2.43551 2.43499,2.43551 H 100.88273 V 64.115671 H 74.049227 c -1.25974,0 -2.29001,-0.947099 -2.42104,-2.170926 z m -7.78971,10.583333 c -0.13109,1.223827 -1.16181,2.170927 -2.42155,2.170927 h -26.83299 v 0.529166 h 26.83299 c 1.34917,0 2.43551,-1.08634 2.43551,-2.43551 0,-0.08943 -0.0047,-0.177707 -0.01396,-0.264583 z m 7.78971,0 c -0.0093,0.08688 -0.01395,0.175153 -0.01395,0.264583 0,1.34917 1.08582,2.43551 2.43499,2.43551 H 100.88273 V 74.699005 H 74.049227 c -1.25974,0 -2.29001,-0.9471 -2.42104,-2.170927 z"
       sodipodi:nodetypes="cssscsccssscsccssscsccssscsccsccssccssccsccsccssccssccscccccccccsccssccssccscccccccccccccccccccccccccccccccccccccsccssccssccscccccccccsccssccssccsccsccssccssccsc" />
    <path
       id="rect5"
       style="display:inline;opacity:1;fill:url(#linearGradient7);stroke:none;stroke-width:1.05833;stroke-linecap:round;stroke-linejoin:round;stroke-miterlimit:12;paint-order:markers stroke fill;filter:url(#filter6)"
       d="m -70.365364,-2.073384 c -5.94405,0 -10.72957,4.7850124 -10.72957,10.7290608 v 6.1391602 h 16.318379 10.514603 c 1.34917,0 2.435511,1.085824 2.435511,2.434993 0,1.34917 -1.086341,2.435511 -2.435511,2.435511 h -26.832982 v 5.712829 h 26.832982 c 1.34917,0 2.435511,1.085825 2.435511,2.434994 0,1.34917 -1.086341,2.43551 -2.435511,2.43551 h -26.832982 v 5.712829 h 19.424649 c 1.34917,0 2.43551,1.085825 2.43551,2.434994 0,1.34917 -1.08634,2.43551 -2.43551,2.43551 h -19.424649 v 5.71283 h 19.424649 c 1.34917,0 2.43551,1.085824 2.43551,2.434993 0,1.34917 -1.08634,2.43551 -2.43551,2.43551 h -19.424649 v 5.71283 h 26.832982 c 1.34917,0 2.435511,1.085824 2.435511,2.434993 0,1.34917 -1.086341,2.43551 -2.435511,2.43551 h -26.832982 v 5.71283 h 26.832982 c 1.34917,0 2.435511,1.085824 2.435511,2.434993 0,1.34917 -1.086341,2.435511 -2.435511,2.435511 h -26.832982 v 6.13916 c 0,5.944048 4.78552,10.72906 10.72957,10.72906 h 4.10983 v -9.552905 c 0,-1.34917 1.08634,-2.43551 2.43551,-2.43551 1.34917,0 2.434476,1.086341 2.434476,2.43551 v 9.552905 h 5.71283 v -9.552905 c 0,-1.34917 1.08634,-2.43551 2.43551,-2.43551 1.34917,0 2.434993,1.086341 2.434993,2.43551 v 9.552905 h 5.71283 v -9.552905 c 0,-1.34917 1.08634,-2.43551 2.43551,-2.43551 1.34917,0 2.43551,1.086341 2.43551,2.43551 v 9.552905 h 5.71283 v -9.552905 c 0,-1.34917 1.08634,-2.43551 2.43551,-2.43551 1.34917,0 2.434477,1.086341 2.434477,2.43551 v 9.552905 h 4.109826 c 5.944049,0 10.729578,-4.785012 10.729578,-10.72906 v -6.13916 h -26.833504 c -1.349169,0 -2.434993,-1.086341 -2.434993,-2.435511 0,-1.349169 1.085824,-2.434993 2.434993,-2.434993 h 26.833504 v -5.71283 h -26.833504 c -1.349169,0 -2.434993,-1.08634 -2.434993,-2.43551 0,-1.349169 1.085824,-2.434993 2.434993,-2.434993 h 26.833504 v -5.71283 h -19.425171 c -1.349169,0 -2.434993,-1.08634 -2.434993,-2.43551 0,-1.349169 1.085824,-2.434993 2.434993,-2.434993 h 19.425171 v -5.71283 h -19.425171 c -1.349169,0 -2.434993,-1.08634 -2.434993,-2.43551 0,-1.349169 1.085824,-2.434994 2.434993,-2.434994 h 19.425171 v -5.712829 h -26.833504 c -1.349169,0 -2.434993,-1.08634 -2.434993,-2.43551 0,-1.349169 1.085824,-2.434994 2.434993,-2.434994 h 26.833504 v -5.712829 h -26.833504 c -1.349169,0 -2.434993,-1.086341 -2.434993,-2.435511 0,-1.349169 1.085824,-2.434993 2.434993,-2.434993 h 26.833504 V 8.6556768 c 0,-5.9440484 -4.785529,-10.7290608 -10.729578,-10.7290608 h -4.109826 v 9.5529051 c 0,1.3491687 -1.085307,2.4355097 -2.434477,2.4355097 -1.34917,0 -2.43551,-1.08634 -2.43551,-2.4355097 V -2.073384 h -5.71283 v 9.5529051 c 0,1.3491687 -1.08634,2.4355097 -2.43551,2.4355097 -1.34917,0 -2.43551,-1.08634 -2.43551,-2.4355097 V -2.073384 h -5.71283 v 9.5529051 c 0,1.3491687 -1.085823,2.4355097 -2.434993,2.4355097 -1.34917,0 -2.43551,-1.08634 -2.43551,-2.4355097 V -2.073384 h -5.71283 v 9.5529051 c 0,1.3491687 -1.085306,2.4355097 -2.434476,2.4355097 -1.34917,0 -2.43551,-1.08634 -2.43551,-2.4355097 V -2.073384 Z"
       mask="url(#mask39)"
       transform="translate(115.67912,2.116842)" />
    <path
       id="rect17"
       style="display:none;opacity:1;fill:url(#linearGradient17);stroke:none;stroke-width:1.05833;stroke-linecap:round;stroke-linejoin:round;stroke-miterlimit:12;paint-order:markers stroke fill"
       d="m 132.78001,-21.738725 c -5.94405,0 -10.7301,4.785529 -10.7301,10.729578 v 6.1386433 h 16.3189 10.51461 c 1.34917,0 2.43551,1.0858245 2.43551,2.4349935 C 151.31893,-1.0863402 150.23259,0 148.88342,0 h -26.83351 v 5.7128295 h 26.83351 c 1.34917,0 2.43551,1.0858245 2.43551,2.4349935 0,1.34917 -1.08634,2.43551 -2.43551,2.43551 h -26.83351 v 5.71283 h 19.42517 c 1.34917,0 2.43551,1.085824 2.43551,2.434993 0,1.34917 -1.08634,2.43551 -2.43551,2.43551 h -19.42517 v 5.71283 h 19.42517 c 1.34917,0 2.43551,1.085824 2.43551,2.434993 0,1.34917 -1.08634,2.435511 -2.43551,2.435511 h -19.42517 v 5.712829 h 21.16874 c 3.36641,-2.14069 6.79942,-4.302372 9.92446,-6.972184 a 2.1309083,2.1309083 0 0 1 1.70687,-1.543575 c 1.97763,-1.896815 3.79145,-4.054102 5.33352,-6.611483 a 2.1309083,2.1309083 0 0 1 -0.74466,-0.759126 2.1309083,2.1309083 0 0 1 0.77929,-2.910934 2.1309083,2.1309083 0 0 1 1.06556,-0.285254 2.1309083,2.1309083 0 0 1 0.96377,0.22996 c 1.33397,-2.61195 2.50408,-5.315592 3.58014,-8.0269 h -4.3124 c -1.34917,0 -2.43447,-1.08634 -2.43447,-2.43551 0,-1.349169 1.0853,-2.4349935 2.43447,-2.4349935 h 6.16294 C 168.38989,3.7756061 169.07448,1.8608111 169.75811,0 h -8.24291 c -1.34917,0 -2.43447,-1.0863402 -2.43447,-2.4355102 0,-1.349169 1.0853,-2.4349935 2.43447,-2.4349935 h 10.10533 c 2.92846,-7.2413103 6.24614,-13.0523403 11.83752,-15.1515293 -1.67832,-1.08658 -3.6819,-1.716692 -5.8384,-1.716692 h -4.11035 v 9.552906 c 0,1.349169 -1.08479,2.4355099 -2.43396,2.4355099 -1.34917,0 -2.43551,-1.0863399 -2.43551,-2.4355099 v -9.552906 H 162.927 v 9.552906 c 0,1.349169 -1.08634,2.4355099 -2.43551,2.4355099 -1.34917,0 -2.43551,-1.0863399 -2.43551,-2.4355099 v -9.552906 h -5.71283 v 9.552906 c 0,1.349169 -1.08634,2.4355099 -2.43551,2.4355099 -1.34917,0 -2.43551,-1.0863399 -2.43551,-2.4355099 v -9.552906 h -5.71283 v 9.552906 c 0,1.349169 -1.08479,2.4355099 -2.43396,2.4355099 -1.34917,0 -2.43551,-1.0863399 -2.43551,-2.4355099 v -9.552906 z m 22.41982,36.606034 a 2.1309083,2.1309083 0 0 1 2.13113,2.131136 2.1309083,2.1309083 0 0 1 -2.13113,2.13062 2.1309083,2.1309083 0 0 1 -2.13166,-2.13062 2.1309083,2.1309083 0 0 1 2.13166,-2.131136 z m -6.08439,3.512964 a 2.1309083,2.1309083 0 0 1 1.06506,0.285254 2.1309083,2.1309083 0 0 1 0.77979,2.910934 2.1309083,2.1309083 0 0 1 -2.91041,0.779797 2.1309083,2.1309083 0 0 1 -0.78032,-2.910934 2.1309083,2.1309083 0 0 1 1.84588,-1.065051 z m 6.08439,3.512447 a 2.1309083,2.1309083 0 0 1 2.13113,2.131136 2.1309083,2.1309083 0 0 1 -2.13113,2.13062 2.1309083,2.1309083 0 0 1 -2.13166,-2.13062 2.1309083,2.1309083 0 0 1 2.13166,-2.131136 z m -6.08439,3.512964 a 2.1309083,2.1309083 0 0 1 1.84485,1.065051 2.1309083,2.1309083 0 0 1 -0.77979,2.910934 2.1309083,2.1309083 0 0 1 -2.91094,-0.779798 2.1309083,2.1309083 0 0 1 0.78032,-2.910933 2.1309083,2.1309083 0 0 1 1.06556,-0.285254 z m -27.06553,16.927649 v 5.712829 h 8.14421 c 1.69736,-2.187597 3.69779,-4.034361 5.86889,-5.712829 z m 0,10.583333 v 6.13916 c 0,2.717847 1.00086,5.193475 2.65514,7.080188 0,-5.41961 0.94334,-9.701276 2.54248,-13.219348 z"
       sodipodi:insensitive="true" />
    <path
       id="path17"
       style="display:inline;opacity:0.4;mix-blend-mode:normal;fill:url(#linearGradient18);stroke:none;stroke-width:1.05833;stroke-linecap:round;stroke-linejoin:round;stroke-miterlimit:12;paint-order:markers stroke fill;filter:url(#filter22)"
       d="m 87.635198,4.8548307 c 6.1e-4,0.645833 0.002,1.291666 0.002,1.9374996 1.29498,-1.8470086 2.85256,-3.5331956 4.71094,-4.8242186 -1.54676,-0.341936 -3.14206,-0.257572 -4.71484,-0.275391 6.5e-4,1.054037 0.001,2.108073 0.002,3.16211 z m -43.1543,-3.119141 c -4.29404,0.322549 -8.06569,4.062484 -8.25829,8.3928793 -0.13803,1.762141 0.006,3.530201 -0.0444,5.294619 7.96416,-0.05264 15.92908,-0.0371 23.89326,-0.0058 1.29175,0.02441 2.73649,-0.138025 3.78447,0.79286 1.70765,1.31615 2.16242,4.049093 0.71778,5.722881 -1.10296,1.414025 -3.03786,1.686764 -4.71348,1.509541 -7.89531,0 -15.79062,0 -23.68594,0 0,0.845703 0,1.691406 0,2.537109 8.64195,0.01463 17.2874,-0.04991 25.92709,0.05736 2.71439,0.339249 4.30356,3.897569 2.71183,6.135398 -0.99017,1.631821 -3.07765,2.071752 -4.85103,1.854115 -7.92929,0 -15.85859,0 -23.78789,0 0,0.845703 0,1.691406 0,2.537109 6.17192,0.014 12.34732,-0.0488 18.51697,0.05711 2.744,0.336003 4.32421,3.966065 2.67702,6.195971 -1.0095,1.589761 -3.06413,2.00108 -4.81625,1.79184 -5.45925,0 -10.91849,0 -16.37774,0 0,0.845703 0,1.691406 0,2.537109 6.17062,0.01445 12.34473,-0.05015 18.51306,0.05906 2.74147,0.332358 4.32691,3.955534 2.68575,6.18678 -1.00427,1.596633 -3.06702,2.009787 -4.82107,1.801031 -5.45925,0 -10.91849,0 -16.37774,0 0,0.845704 0,1.691407 0,2.53711 6.37305,0 12.7461,0 19.11914,0 2.37017,-1.509422 4.73858,-3.027329 6.99024,-4.710938 -2.11938,0.477334 -4.34228,-1.31545 -4.31103,-3.488962 -0.0851,-1.596145 0.95638,-3.18271 2.50048,-3.651663 -1.98193,-0.574237 -3.04636,-2.970597 -2.25195,-4.853515 0.7236,-2.263966 3.86699,-3.131277 5.66797,-1.603516 0.47753,0.518162 -0.002,-0.77861 0.20117,-1.089844 0.18622,-1.940301 2.10581,-3.376659 4.00992,-3.171708 2.08963,0.145665 3.69649,2.363288 3.29086,4.396318 0.67357,-0.639356 1.66117,-0.900096 2.53516,-0.910157 0.71324,-1.549392 1.42406,-3.054865 2.07031,-4.626953 -1.72715,0.09428 -3.77887,0.108575 -4.97661,-1.368001 -1.61647,-1.799941 -1.16345,-5.035682 1.04888,-6.147624 1.7593,-0.90463 3.79342,-0.394902 5.6832,-0.523437 0.5368,-0.11402 1.46803,0.335061 1.52084,-0.469908 0.251,-0.690369 0.50199,-1.380738 0.75299,-2.071108 -2.39044,-0.04405 -4.80561,0.155777 -7.17774,-0.173828 -2.60032,-0.714535 -3.73416,-4.350262 -1.92969,-6.382813 1.09553,-1.400113 3.00712,-1.643875 4.66368,-1.486328 2.50794,0 5.01588,0 7.52382,0 0.24551,-0.569199 0.4842,-1.141367 0.74219,-1.705078 -2.23278,0.179939 -4.33457,-1.802383 -4.25731,-4.0512471 -0.0149,-2.6438136 0.0103,-5.2898356 -0.002,-7.9350796 -0.84636,0 -1.69271,0 -2.53907,0 -0.0568,3.035604 0.15523,6.0924668 -0.15625,9.1132797 -0.67374,2.573562 -4.21534,3.782789 -6.28393,2.073332 -1.45178,-1.047378 -1.7846,-2.9849611 -1.60474,-4.6584872 0,-2.1760415 0,-4.3520825 0,-6.5281245 -0.84635,0 -1.69271,0 -2.53906,0 -0.0568,3.035604 0.15523,6.0924668 -0.15625,9.1132797 -0.67374,2.573562 -4.21534,3.782789 -6.28393,2.073332 -1.45179,-1.047378 -1.7846,-2.9849611 -1.60474,-4.6584872 0,-2.1760415 0,-4.3520825 0,-6.5281245 -0.84636,0 -1.69271,0 -2.53906,0 -0.0568,3.035604 0.15522,6.0924668 -0.15626,9.1132797 -0.67054,2.573855 -4.21475,3.782402 -6.28197,2.073332 -1.45179,-1.047378 -1.78461,-2.9849611 -1.60474,-4.6584872 0,-2.1760415 0,-4.3520825 0,-6.5281245 -1.11884,0.0193 -2.24043,-0.03996 -3.35743,0.03125 z m 25.57813,40.0019513 c -0.16035,0.318713 -1.41241,0.528148 -0.95117,0.685547 0.36162,0.0092 1.1054,0.904301 1.04883,0.494141 -0.19025,-0.296071 0.23063,-1.44269 -0.0929,-1.183828 z m -4.76563,-0.0293 c 0.26506,0.339527 -0.26254,1.69146 0.28176,1.166046 0.25827,-0.31928 1.42227,-0.462332 0.58542,-0.653298 -0.28328,-0.05809 -0.82003,-0.587991 -0.86718,-0.512748 z m -1.45703,3.652344 c -0.37223,0.349668 -1.48527,0.459781 -0.50698,0.718856 0.53114,0.287545 0.9442,0.851549 0.69448,-0.08604 -0.11492,-0.24825 0.32025,-1.189409 -0.1875,-0.632813 z m 1.44336,3.308594 c 0.17369,0.403923 -0.003,1.237386 0.0781,1.414062 0.18719,-0.310618 1.315,-0.60613 0.96034,-0.780858 -0.37226,-0.133343 -0.79488,-0.448478 -1.03847,-0.633204 z M 36.174258,68.31381 c 1.9349,0 3.8698,0 5.80469,0 0.72871,-0.893691 1.52326,-1.731579 2.34766,-2.537109 -2.71745,0 -5.4349,0 -8.15235,0 0,0.845703 0,1.691406 0,2.537109 z m 0,12.554688 c -0.0235,0.967272 0.13204,-0.347825 0.2218,-0.672665 0.26772,-1.299544 0.60755,-2.586262 1.05164,-3.837101 -0.55203,0.07244 -1.55444,-0.305484 -1.27344,0.6 0,1.303255 0,2.60651 0,3.909766 z" />
    <rect
       style="fill:#000000;fill-opacity:1;stroke:#b8b8b8;stroke-width:0.128957;stroke-linecap:round;stroke-linejoin:round;stroke-dasharray:none;stroke-opacity:1;paint-order:fill markers stroke"
       id="rect23448-0"
       width="3.3563423"
       height="114.02074"
       x="126.43414"
       y="10.722965"
       ry="1.133433" />
    <g
       id="g1"
       transform="translate(-6.4849854e-5,37.04373)">
      <rect
         style="fill:#474747;fill-opacity:1;stroke:#000000;stroke-width:0.0740287;stroke-linecap:round;stroke-linejoin:round;stroke-dasharray:none;stroke-opacity:1;paint-order:fill markers stroke"
         id="rect24357-5-1"
         width="12.591885"
         height="24.251465"
         x="121.81644"
         y="73.113136"
         ry="2.2603624" />
      <rect
         style="opacity:0.336239;fill:url(#linearGradient432253);fill-opacity:1;stroke:none;stroke-width:0.211351;stroke-linecap:round;stroke-linejoin:round;stroke-dasharray:none;stroke-opacity:1;paint-order:fill markers stroke"
         id="rect24357-22"
         width="12.591885"
         height="24.251465"
         x="121.81644"
         y="73.113136"
         ry="2.2603624" />
    </g>
    <g
       id="g966864-9-0"
       transform="matrix(5.6446708,0,0,5.6446708,24.742547,-512.1913)"
       style="stroke-width:0.177158">
      <rect
         style="fill:#002b00;fill-opacity:1;stroke:#000000;stroke-width:0.00574104;stroke-linecap:round;stroke-linejoin:round;stroke-dasharray:none;stroke-opacity:1;paint-order:fill markers stroke"
         id="rect30039-0-18-2-0-9"
         width="1.6955962"
         height="0.88243753"
         x="-4.1958499"
         y="102.29722"
         ry="0.2213593" />
      <path
         id="rect30039-0-6-53-2-9-5"
         style="opacity:0.2;mix-blend-mode:normal;fill:#ffffff;stroke-width:0.00574104;stroke-linecap:round;stroke-linejoin:round;paint-order:fill markers stroke;filter:url(#filter965379-5-9)"
         d="m -3.8894021,102.3897 h 1.2869993 c 0,0.14322 -1.1377471,0.11842 -1.1377471,0.11842 -0.3303119,0 -0.3535508,0.44064 -0.3535508,0.10296 0,-0.12263 0.091117,-0.2212 0.2042986,-0.2212 z"
         sodipodi:nodetypes="scccss" />
      <path
         id="rect30039-0-6-3-4-9-4-8-4-5-0"
         style="opacity:0.2;mix-blend-mode:normal;fill:#000000;stroke-width:0.00574104;stroke-linecap:round;stroke-linejoin:round;paint-order:fill markers stroke;filter:url(#filter965375-7-4)"
         d="m -2.8067014,103.08718 h -1.2869993 c 0,-0.14322 1.1377471,-0.11843 1.1377471,-0.11843 0.3303119,0 0.3535508,-0.44063 0.3535508,-0.10295 0,0.12263 -0.091117,0.22133 -0.2042986,0.22133 z"
         sodipodi:nodetypes="scccss" />
    </g>
    <g
       id="g966864-9-04"
       transform="matrix(5.6446708,0,0,5.6446708,24.742547,-505.10184)"
       style="stroke-width:0.177158">
      <rect
         style="fill:#002b00;fill-opacity:1;stroke:#000000;stroke-width:0.00574104;stroke-linecap:round;stroke-linejoin:round;stroke-dasharray:none;stroke-opacity:1;paint-order:fill markers stroke"
         id="rect30039-0-18-2-0-3"
         width="1.6955962"
         height="0.88243753"
         x="-4.1958499"
         y="102.29722"
         ry="0.2213593" />
      <path
         id="rect30039-0-6-53-2-9-7"
         style="opacity:0.2;mix-blend-mode:normal;fill:#ffffff;stroke-width:0.00574104;stroke-linecap:round;stroke-linejoin:round;paint-order:fill markers stroke;filter:url(#filter965379-5-5)"
         d="m -3.8894021,102.3897 h 1.2869993 c 0,0.14322 -1.1377471,0.11842 -1.1377471,0.11842 -0.3303119,0 -0.3535508,0.44064 -0.3535508,0.10296 0,-0.12263 0.091117,-0.2212 0.2042986,-0.2212 z"
         sodipodi:nodetypes="scccss" />
      <path
         id="rect30039-0-6-3-4-9-4-8-4-5-6"
         style="opacity:0.2;mix-blend-mode:normal;fill:#000000;stroke-width:0.00574104;stroke-linecap:round;stroke-linejoin:round;paint-order:fill markers stroke;filter:url(#filter965375-7-3)"
         d="m -2.8067014,103.08718 h -1.2869993 c 0,-0.14322 1.1377471,-0.11843 1.1377471,-0.11843 0.3303119,0 0.3535508,-0.44063 0.3535508,-0.10295 0,0.12263 -0.091117,0.22133 -0.2042986,0.22133 z"
         sodipodi:nodetypes="scccss" />
    </g>
    <g
       id="g966864-9-5"
       transform="matrix(5.6446708,0,0,5.6446708,24.742547,-519.28075)"
       style="stroke-width:0.177158">
      <rect
         style="fill:#002b00;fill-opacity:1;stroke:#000000;stroke-width:0.00574104;stroke-linecap:round;stroke-linejoin:round;stroke-dasharray:none;stroke-opacity:1;paint-order:fill markers stroke"
         id="rect30039-0-18-2-0-87"
         width="1.6955962"
         height="0.88243753"
         x="-4.1958499"
         y="102.29722"
         ry="0.2213593" />
      <path
         id="rect30039-0-6-53-2-9-0"
         style="opacity:0.2;mix-blend-mode:normal;fill:#ffffff;stroke-width:0.00574104;stroke-linecap:round;stroke-linejoin:round;paint-order:fill markers stroke;filter:url(#filter965379-5-2)"
         d="m -3.8894021,102.3897 h 1.2869993 c 0,0.14322 -1.1377471,0.11842 -1.1377471,0.11842 -0.3303119,0 -0.3535508,0.44064 -0.3535508,0.10296 0,-0.12263 0.091117,-0.2212 0.2042986,-0.2212 z"
         sodipodi:nodetypes="scccss" />
      <path
         id="rect30039-0-6-3-4-9-4-8-4-5-7"
         style="opacity:0.2;mix-blend-mode:normal;fill:#000000;stroke-width:0.00574104;stroke-linecap:round;stroke-linejoin:round;paint-order:fill markers stroke;filter:url(#filter965375-7-8)"
         d="m -2.8067014,103.08718 h -1.2869993 c 0,-0.14322 1.1377471,-0.11843 1.1377471,-0.11843 0.3303119,0 0.3535508,-0.44063 0.3535508,-0.10295 0,0.12263 -0.091117,0.22133 -0.2042986,0.22133 z"
         sodipodi:nodetypes="scccss" />
    </g>
    <g
       id="g1043605"
       transform="matrix(5.6446708,0,0,5.6446708,-350.57424,-544.19344)"
       style="stroke-width:0.177158">
      <g
         id="g966864-9-8"
         transform="translate(66.490476,3.220452)"
         style="stroke-width:0.177158">
        <rect
           style="fill:#002b00;fill-opacity:1;stroke:#000000;stroke-width:0.00574104;stroke-linecap:round;stroke-linejoin:round;stroke-dasharray:none;stroke-opacity:1;paint-order:fill markers stroke"
           id="rect30039-0-18-2-0-8"
           width="1.6955962"
           height="0.88243753"
           x="-4.1958499"
           y="102.29722"
           ry="0.2213593" />
        <path
           id="rect30039-0-6-53-2-9-3"
           style="opacity:0.2;mix-blend-mode:normal;fill:#ffffff;stroke-width:0.00574104;stroke-linecap:round;stroke-linejoin:round;paint-order:fill markers stroke;filter:url(#filter965379-5-4)"
           d="m -3.8894021,102.3897 h 1.2869993 c 0,0.14322 -1.1377471,0.11842 -1.1377471,0.11842 -0.3303119,0 -0.3535508,0.44064 -0.3535508,0.10296 0,-0.12263 0.091117,-0.2212 0.2042986,-0.2212 z"
           sodipodi:nodetypes="scccss" />
        <path
           id="rect30039-0-6-3-4-9-4-8-4-5-9"
           style="opacity:0.2;mix-blend-mode:normal;fill:#000000;stroke-width:0.00574104;stroke-linecap:round;stroke-linejoin:round;paint-order:fill markers stroke;filter:url(#filter965375-7-2)"
           d="m -2.8067014,103.08718 h -1.2869993 c 0,-0.14322 1.1377471,-0.11843 1.1377471,-0.11843 0.3303119,0 0.3535508,-0.44063 0.3535508,-0.10295 0,0.12263 -0.091117,0.22133 -0.2042986,0.22133 z"
           sodipodi:nodetypes="scccss" />
      </g>
      <g
         id="g966859-4-8-6-7"
         transform="translate(66.490476,3.4686762)"
         style="stroke-width:0.177158">
        <rect
           style="fill:#ad5a00;fill-opacity:1;stroke:#000000;stroke-width:0.00574104;stroke-linecap:round;stroke-linejoin:round;stroke-dasharray:none;stroke-opacity:1;paint-order:fill markers stroke"
           id="rect30039-0-96-4-1-9-7-4-8"
           width="1.6955962"
           height="0.88243753"
           x="-4.1958499"
           y="100.79304"
           ry="0.2213593" />
        <path
           id="rect30039-0-6-3-03-9-7-3-1-3"
           style="opacity:0.2;mix-blend-mode:normal;fill:#ffffff;stroke-width:0.00574104;stroke-linecap:round;stroke-linejoin:round;paint-order:fill markers stroke;filter:url(#filter965387-0-5-5-9)"
           d="m -3.8894016,100.88553 h 1.2869993 c 0,0.14322 -1.1377471,0.11842 -1.1377471,0.11842 -0.3303119,0 -0.3535507,0.44064 -0.3535507,0.10296 0,-0.12263 0.091116,-0.22134 0.2042985,-0.22134 z"
           sodipodi:nodetypes="scccss" />
        <path
           id="rect30039-0-6-3-4-9-4-8-0-0-8-3-2"
           style="opacity:0.2;mix-blend-mode:normal;fill:#000000;stroke-width:0.00574104;stroke-linecap:round;stroke-linejoin:round;paint-order:fill markers stroke;filter:url(#filter965383-8-4-6-2)"
           d="m -2.8067016,101.58299 h -1.2869992 c 0,-0.14322 1.1377471,-0.11842 1.1377471,-0.11842 0.3303118,0 0.3535507,-0.44063 0.3535507,-0.10295 0,0.12263 -0.091117,0.22133 -0.2042986,0.22133 z"
           sodipodi:nodetypes="scccss" />
      </g>
    </g>
    <g
       id="g1039451"
       transform="matrix(5.6446708,0,0,5.6446708,-346.87805,-545.07249)"
       style="stroke-width:0.177158">
      <g
         id="g966128-6-7"
         transform="translate(65.835666,-1.2141249)"
         style="stroke-width:0.177158">
        <rect
           style="fill:#800000;fill-opacity:1;stroke:#000000;stroke-width:0.00574104;stroke-linecap:round;stroke-linejoin:round;stroke-dasharray:none;stroke-opacity:1;paint-order:fill markers stroke"
           id="rect30039-0-96-2-4-7-7-5"
           width="1.6955962"
           height="0.88243753"
           x="-4.1958499"
           y="99.288864"
           ry="0.2213593" />
        <path
           id="rect30039-0-6-3-4-9-4-3-37"
           style="opacity:0.2;mix-blend-mode:normal;fill:#ffffff;stroke-width:0.00574104;stroke-linecap:round;stroke-linejoin:round;paint-order:fill markers stroke;filter:url(#filter965395-2-08)"
           d="m -3.889402,99.381359 h 1.2869993 c 0,0.143219 -1.1377471,0.118425 -1.1377471,0.118425 -0.3303119,0 -0.3535507,0.440632 -0.3535507,0.102953 0,-0.122631 0.091116,-0.221334 0.2042985,-0.221334 z"
           sodipodi:nodetypes="scccss" />
        <path
           id="rect30039-0-6-3-4-9-4-8-6-86"
           style="opacity:0.2;mix-blend-mode:normal;fill:#000000;stroke-width:0.00574104;stroke-linecap:round;stroke-linejoin:round;paint-order:fill markers stroke;filter:url(#filter965391-2-4)"
           d="m -2.8067013,100.07884 h -1.2869992 c 0,-0.143221 1.137747,-0.118427 1.137747,-0.118427 0.3303119,0 0.3535508,-0.440632 0.3535508,-0.102953 0,0.122631 -0.091117,0.22133 -0.2042986,0.22133 z"
           sodipodi:nodetypes="scccss" />
      </g>
      <g
         id="g966128-2-99"
         transform="translate(65.835666,0.04183008)"
         style="stroke-width:0.177158">
        <rect
           style="fill:#800000;fill-opacity:1;stroke:#000000;stroke-width:0.00574104;stroke-linecap:round;stroke-linejoin:round;stroke-dasharray:none;stroke-opacity:1;paint-order:fill markers stroke"
           id="rect30039-0-96-2-4-7-3-65"
           width="1.6955962"
           height="0.88243753"
           x="-4.1958499"
           y="99.288864"
           ry="0.2213593" />
        <path
           id="rect30039-0-6-3-4-9-4-85-4"
           style="opacity:0.2;mix-blend-mode:normal;fill:#ffffff;stroke-width:0.00574104;stroke-linecap:round;stroke-linejoin:round;paint-order:fill markers stroke;filter:url(#filter965395-9-9)"
           d="m -3.889402,99.381359 h 1.2869993 c 0,0.143219 -1.1377471,0.118425 -1.1377471,0.118425 -0.3303119,0 -0.3535507,0.440632 -0.3535507,0.102953 0,-0.122631 0.091116,-0.221334 0.2042985,-0.221334 z"
           sodipodi:nodetypes="scccss" />
        <path
           id="rect30039-0-6-3-4-9-4-8-2-5"
           style="opacity:0.2;mix-blend-mode:normal;fill:#000000;stroke-width:0.00574104;stroke-linecap:round;stroke-linejoin:round;paint-order:fill markers stroke;filter:url(#filter965391-9-8)"
           d="m -2.8067013,100.07884 h -1.2869992 c 0,-0.143221 1.137747,-0.118427 1.137747,-0.118427 0.3303119,0 0.3535508,-0.440632 0.3535508,-0.102953 0,0.122631 -0.091117,0.22133 -0.2042986,0.22133 z"
           sodipodi:nodetypes="scccss" />
      </g>
      <g
         id="g966859-66-9"
         transform="translate(65.835666,-0.20637518)"
         style="stroke-width:0.177158">
        <rect
           style="fill:#ad5a00;fill-opacity:1;stroke:#000000;stroke-width:0.00574104;stroke-linecap:round;stroke-linejoin:round;stroke-dasharray:none;stroke-opacity:1;paint-order:fill markers stroke"
           id="rect30039-0-96-4-1-0-4"
           width="1.6955962"
           height="0.88243753"
           x="-4.1958499"
           y="100.79304"
           ry="0.2213593" />
        <path
           id="rect30039-0-6-3-03-9-92-92"
           style="opacity:0.2;mix-blend-mode:normal;fill:#ffffff;stroke-width:0.00574104;stroke-linecap:round;stroke-linejoin:round;paint-order:fill markers stroke;filter:url(#filter965387-1-1)"
           d="m -3.8894016,100.88553 h 1.2869993 c 0,0.14322 -1.1377471,0.11842 -1.1377471,0.11842 -0.3303119,0 -0.3535507,0.44064 -0.3535507,0.10296 0,-0.12263 0.091116,-0.22134 0.2042985,-0.22134 z"
           sodipodi:nodetypes="scccss" />
        <path
           id="rect30039-0-6-3-4-9-4-8-0-7-0"
           style="opacity:0.2;mix-blend-mode:normal;fill:#000000;stroke-width:0.00574104;stroke-linecap:round;stroke-linejoin:round;paint-order:fill markers stroke;filter:url(#filter965383-1-33)"
           d="m -2.8067016,101.58299 h -1.2869992 c 0,-0.14322 1.1377471,-0.11842 1.1377471,-0.11842 0.3303118,0 0.3535507,-0.44063 0.3535507,-0.10295 0,0.12263 -0.091117,0.22133 -0.2042986,0.22133 z"
           sodipodi:nodetypes="scccss" />
      </g>
      <g
         id="g966859-4-4"
         transform="translate(65.835666,2.3055354)"
         style="stroke-width:0.177158">
        <rect
           style="fill:#ad5a00;fill-opacity:1;stroke:#000000;stroke-width:0.00574104;stroke-linecap:round;stroke-linejoin:round;stroke-dasharray:none;stroke-opacity:1;paint-order:fill markers stroke"
           id="rect30039-0-96-4-1-9-5"
           width="1.6955962"
           height="0.88243753"
           x="-4.1958499"
           y="100.79304"
           ry="0.2213593" />
        <path
           id="rect30039-0-6-3-03-9-7-39"
           style="opacity:0.2;mix-blend-mode:normal;fill:#ffffff;stroke-width:0.00574104;stroke-linecap:round;stroke-linejoin:round;paint-order:fill markers stroke;filter:url(#filter965387-0-7)"
           d="m -3.8894016,100.88553 h 1.2869993 c 0,0.14322 -1.1377471,0.11842 -1.1377471,0.11842 -0.3303119,0 -0.3535507,0.44064 -0.3535507,0.10296 0,-0.12263 0.091116,-0.22134 0.2042985,-0.22134 z"
           sodipodi:nodetypes="scccss" />
        <path
           id="rect30039-0-6-3-4-9-4-8-0-0-4"
           style="opacity:0.2;mix-blend-mode:normal;fill:#000000;stroke-width:0.00574104;stroke-linecap:round;stroke-linejoin:round;paint-order:fill markers stroke;filter:url(#filter965383-8-9)"
           d="m -2.8067016,101.58299 h -1.2869992 c 0,-0.14322 1.1377471,-0.11842 1.1377471,-0.11842 0.3303118,0 0.3535507,-0.44063 0.3535507,-0.10295 0,0.12263 -0.091117,0.22133 -0.2042986,0.22133 z"
           sodipodi:nodetypes="scccss" />
      </g>
      <g
         id="g966859-6-0"
         transform="translate(65.835666,1.0495794)"
         style="stroke-width:0.177158">
        <rect
           style="fill:#ad5a00;fill-opacity:1;stroke:#000000;stroke-width:0.00574104;stroke-linecap:round;stroke-linejoin:round;stroke-dasharray:none;stroke-opacity:1;paint-order:fill markers stroke"
           id="rect30039-0-96-4-1-7-17"
           width="1.6955962"
           height="0.88243753"
           x="-4.1958499"
           y="100.79304"
           ry="0.2213593" />
        <path
           id="rect30039-0-6-3-03-9-0-3"
           style="opacity:0.2;mix-blend-mode:normal;fill:#ffffff;stroke-width:0.00574104;stroke-linecap:round;stroke-linejoin:round;paint-order:fill markers stroke;filter:url(#filter965387-2-8)"
           d="m -3.8894016,100.88553 h 1.2869993 c 0,0.14322 -1.1377471,0.11842 -1.1377471,0.11842 -0.3303119,0 -0.3535507,0.44064 -0.3535507,0.10296 0,-0.12263 0.091116,-0.22134 0.2042985,-0.22134 z"
           sodipodi:nodetypes="scccss" />
        <path
           id="rect30039-0-6-3-4-9-4-8-0-9-1"
           style="opacity:0.2;mix-blend-mode:normal;fill:#000000;stroke-width:0.00574104;stroke-linecap:round;stroke-linejoin:round;paint-order:fill markers stroke;filter:url(#filter965383-9-0)"
           d="m -2.8067016,101.58299 h -1.2869992 c 0,-0.14322 1.1377471,-0.11842 1.1377471,-0.11842 0.3303118,0 0.3535507,-0.44063 0.3535507,-0.10295 0,0.12263 -0.091117,0.22133 -0.2042986,0.22133 z"
           sodipodi:nodetypes="scccss" />
      </g>
    </g>
    <g
       id="g6"
       transform="matrix(5.6446708,0,0,5.6446708,24.742547,-498.01237)"
       style="stroke-width:0.177158">
      <rect
         style="fill:#002b00;fill-opacity:1;stroke:#000000;stroke-width:0.00574104;stroke-linecap:round;stroke-linejoin:round;stroke-dasharray:none;stroke-opacity:1;paint-order:fill markers stroke"
         id="rect2"
         width="1.6955962"
         height="0.88243753"
         x="-4.1958499"
         y="102.29722"
         ry="0.2213593" />
      <path
         id="path4"
         style="opacity:0.2;mix-blend-mode:normal;fill:#ffffff;stroke-width:0.00574104;stroke-linecap:round;stroke-linejoin:round;paint-order:fill markers stroke;filter:url(#filter965379-5-5)"
         d="m -3.8894021,102.3897 h 1.2869993 c 0,0.14322 -1.1377471,0.11842 -1.1377471,0.11842 -0.3303119,0 -0.3535508,0.44064 -0.3535508,0.10296 0,-0.12263 0.091117,-0.2212 0.2042986,-0.2212 z"
         sodipodi:nodetypes="scccss" />
      <path
         id="path6"
         style="opacity:0.2;mix-blend-mode:normal;fill:#000000;stroke-width:0.00574104;stroke-linecap:round;stroke-linejoin:round;paint-order:fill markers stroke;filter:url(#filter965375-7-3)"
         d="m -2.8067014,103.08718 h -1.2869993 c 0,-0.14322 1.1377471,-0.11843 1.1377471,-0.11843 0.3303119,0 0.3535508,-0.44063 0.3535508,-0.10295 0,0.12263 -0.091117,0.22133 -0.2042986,0.22133 z"
         sodipodi:nodetypes="scccss" />
    </g>
    <g
       id="g8"
       transform="matrix(5.6446708,0,0,5.6446708,24.742547,-490.92291)"
       style="stroke-width:0.177158">
      <rect
         style="fill:#002b00;fill-opacity:1;stroke:#000000;stroke-width:0.00574104;stroke-linecap:round;stroke-linejoin:round;stroke-dasharray:none;stroke-opacity:1;paint-order:fill markers stroke"
         id="rect6"
         width="1.6955962"
         height="0.88243753"
         x="-4.1958499"
         y="102.29722"
         ry="0.2213593" />
      <path
         id="path7"
         style="opacity:0.2;mix-blend-mode:normal;fill:#ffffff;stroke-width:0.00574104;stroke-linecap:round;stroke-linejoin:round;paint-order:fill markers stroke;filter:url(#filter965379-5-5)"
         d="m -3.8894021,102.3897 h 1.2869993 c 0,0.14322 -1.1377471,0.11842 -1.1377471,0.11842 -0.3303119,0 -0.3535508,0.44064 -0.3535508,0.10296 0,-0.12263 0.091117,-0.2212 0.2042986,-0.2212 z"
         sodipodi:nodetypes="scccss" />
      <path
         id="path8"
         style="opacity:0.2;mix-blend-mode:normal;fill:#000000;stroke-width:0.00574104;stroke-linecap:round;stroke-linejoin:round;paint-order:fill markers stroke;filter:url(#filter965375-7-3)"
         d="m -2.8067014,103.08718 h -1.2869993 c 0,-0.14322 1.1377471,-0.11843 1.1377471,-0.11843 0.3303119,0 0.3535508,-0.44063 0.3535508,-0.10295 0,0.12263 -0.091117,0.22133 -0.2042986,0.22133 z"
         sodipodi:nodetypes="scccss" />
    </g>
    <g
       id="g10"
       transform="matrix(5.6446708,0,0,5.6446708,24.742547,-483.83346)"
       style="stroke-width:0.177158">
      <rect
         style="fill:#002b00;fill-opacity:1;stroke:#000000;stroke-width:0.00574104;stroke-linecap:round;stroke-linejoin:round;stroke-dasharray:none;stroke-opacity:1;paint-order:fill markers stroke"
         id="rect8"
         width="1.6955962"
         height="0.88243753"
         x="-4.1958499"
         y="102.29722"
         ry="0.2213593" />
      <path
         id="path9"
         style="opacity:0.2;mix-blend-mode:normal;fill:#ffffff;stroke-width:0.00574104;stroke-linecap:round;stroke-linejoin:round;paint-order:fill markers stroke;filter:url(#filter965379-5-5)"
         d="m -3.8894021,102.3897 h 1.2869993 c 0,0.14322 -1.1377471,0.11842 -1.1377471,0.11842 -0.3303119,0 -0.3535508,0.44064 -0.3535508,0.10296 0,-0.12263 0.091117,-0.2212 0.2042986,-0.2212 z"
         sodipodi:nodetypes="scccss" />
      <path
         id="path10"
         style="opacity:0.2;mix-blend-mode:normal;fill:#000000;stroke-width:0.00574104;stroke-linecap:round;stroke-linejoin:round;paint-order:fill markers stroke;filter:url(#filter965375-7-3)"
         d="m -2.8067014,103.08718 h -1.2869993 c 0,-0.14322 1.1377471,-0.11843 1.1377471,-0.11843 0.3303119,0 0.3535508,-0.44063 0.3535508,-0.10295 0,0.12263 -0.091117,0.22133 -0.2042986,0.22133 z"
         sodipodi:nodetypes="scccss" />
    </g>
    <g
       id="g12"
       transform="matrix(5.6446708,0,0,5.6446708,24.742547,-476.744)"
       style="stroke-width:0.177158">
      <rect
         style="fill:#002b00;fill-opacity:1;stroke:#000000;stroke-width:0.00574104;stroke-linecap:round;stroke-linejoin:round;stroke-dasharray:none;stroke-opacity:1;paint-order:fill markers stroke"
         id="rect10"
         width="1.6955962"
         height="0.88243753"
         x="-4.1958499"
         y="102.29722"
         ry="0.2213593" />
      <path
         id="path11"
         style="opacity:0.2;mix-blend-mode:normal;fill:#ffffff;stroke-width:0.00574104;stroke-linecap:round;stroke-linejoin:round;paint-order:fill markers stroke;filter:url(#filter965379-5-5)"
         d="m -3.8894021,102.3897 h 1.2869993 c 0,0.14322 -1.1377471,0.11842 -1.1377471,0.11842 -0.3303119,0 -0.3535508,0.44064 -0.3535508,0.10296 0,-0.12263 0.091117,-0.2212 0.2042986,-0.2212 z"
         sodipodi:nodetypes="scccss" />
      <path
         id="path12"
         style="opacity:0.2;mix-blend-mode:normal;fill:#000000;stroke-width:0.00574104;stroke-linecap:round;stroke-linejoin:round;paint-order:fill markers stroke;filter:url(#filter965375-7-3)"
         d="m -2.8067014,103.08718 h -1.2869993 c 0,-0.14322 1.1377471,-0.11843 1.1377471,-0.11843 0.3303119,0 0.3535508,-0.44063 0.3535508,-0.10295 0,0.12263 -0.091117,0.22133 -0.2042986,0.22133 z"
         sodipodi:nodetypes="scccss" />
    </g>
    <g
       id="g14"
       transform="matrix(5.6446708,0,0,5.6446708,24.742547,-469.65456)"
       style="stroke-width:0.177158">
      <rect
         style="fill:#002b00;fill-opacity:1;stroke:#000000;stroke-width:0.00574104;stroke-linecap:round;stroke-linejoin:round;stroke-dasharray:none;stroke-opacity:1;paint-order:fill markers stroke"
         id="rect13"
         width="1.6955962"
         height="0.88243753"
         x="-4.1958499"
         y="102.29722"
         ry="0.2213593" />
      <path
         id="path13"
         style="opacity:0.2;mix-blend-mode:normal;fill:#ffffff;stroke-width:0.00574104;stroke-linecap:round;stroke-linejoin:round;paint-order:fill markers stroke;filter:url(#filter965379-5-5)"
         d="m -3.8894021,102.3897 h 1.2869993 c 0,0.14322 -1.1377471,0.11842 -1.1377471,0.11842 -0.3303119,0 -0.3535508,0.44064 -0.3535508,0.10296 0,-0.12263 0.091117,-0.2212 0.2042986,-0.2212 z"
         sodipodi:nodetypes="scccss" />
      <path
         id="path14"
         style="opacity:0.2;mix-blend-mode:normal;fill:#000000;stroke-width:0.00574104;stroke-linecap:round;stroke-linejoin:round;paint-order:fill markers stroke;filter:url(#filter965375-7-3)"
         d="m -2.8067014,103.08718 h -1.2869993 c 0,-0.14322 1.1377471,-0.11843 1.1377471,-0.11843 0.3303119,0 0.3535508,-0.44063 0.3535508,-0.10295 0,0.12263 -0.091117,0.22133 -0.2042986,0.22133 z"
         sodipodi:nodetypes="scccss" />
    </g>
    <g
       id="g16"
       transform="matrix(5.6446708,0,0,5.6446708,24.742547,-462.5651)"
       style="stroke-width:0.177158">
      <rect
         style="fill:#002b00;fill-opacity:1;stroke:#000000;stroke-width:0.00574104;stroke-linecap:round;stroke-linejoin:round;stroke-dasharray:none;stroke-opacity:1;paint-order:fill markers stroke"
         id="rect14"
         width="1.6955962"
         height="0.88243753"
         x="-4.1958499"
         y="102.29722"
         ry="0.2213593" />
      <path
         id="path15"
         style="opacity:0.2;mix-blend-mode:normal;fill:#ffffff;stroke-width:0.00574104;stroke-linecap:round;stroke-linejoin:round;paint-order:fill markers stroke;filter:url(#filter965379-5-5)"
         d="m -3.8894021,102.3897 h 1.2869993 c 0,0.14322 -1.1377471,0.11842 -1.1377471,0.11842 -0.3303119,0 -0.3535508,0.44064 -0.3535508,0.10296 0,-0.12263 0.091117,-0.2212 0.2042986,-0.2212 z"
         sodipodi:nodetypes="scccss" />
      <path
         id="path16"
         style="opacity:0.2;mix-blend-mode:normal;fill:#000000;stroke-width:0.00574104;stroke-linecap:round;stroke-linejoin:round;paint-order:fill markers stroke;filter:url(#filter965375-7-3)"
         d="m -2.8067014,103.08718 h -1.2869993 c 0,-0.14322 1.1377471,-0.11843 1.1377471,-0.11843 0.3303119,0 0.3535508,-0.44063 0.3535508,-0.10295 0,0.12263 -0.091117,0.22133 -0.2042986,0.22133 z"
         sodipodi:nodetypes="scccss" />
    </g>
    <g
       id="g19"
       transform="matrix(5.6446708,0,0,5.6446708,24.742547,-455.47565)"
       style="stroke-width:0.177158">
      <rect
         style="fill:#002b00;fill-opacity:1;stroke:#000000;stroke-width:0.00574104;stroke-linecap:round;stroke-linejoin:round;stroke-dasharray:none;stroke-opacity:1;paint-order:fill markers stroke"
         id="rect16"
         width="1.6955962"
         height="0.88243753"
         x="-4.1958499"
         y="102.29722"
         ry="0.2213593" />
      <path
         id="path18"
         style="opacity:0.2;mix-blend-mode:normal;fill:#ffffff;stroke-width:0.00574104;stroke-linecap:round;stroke-linejoin:round;paint-order:fill markers stroke;filter:url(#filter965379-5-5)"
         d="m -3.8894021,102.3897 h 1.2869993 c 0,0.14322 -1.1377471,0.11842 -1.1377471,0.11842 -0.3303119,0 -0.3535508,0.44064 -0.3535508,0.10296 0,-0.12263 0.091117,-0.2212 0.2042986,-0.2212 z"
         sodipodi:nodetypes="scccss" />
      <path
         id="path19"
         style="opacity:0.2;mix-blend-mode:normal;fill:#000000;stroke-width:0.00574104;stroke-linecap:round;stroke-linejoin:round;paint-order:fill markers stroke;filter:url(#filter965375-7-3)"
         d="m -2.8067014,103.08718 h -1.2869993 c 0,-0.14322 1.1377471,-0.11843 1.1377471,-0.11843 0.3303119,0 0.3535508,-0.44063 0.3535508,-0.10295 0,0.12263 -0.091117,0.22133 -0.2042986,0.22133 z"
         sodipodi:nodetypes="scccss" />
    </g>
  </g>
</svg>
