<?xml version="1.0" encoding="UTF-8" standalone="no"?>
<!-- Created with Inkscape (http://www.inkscape.org/) -->

<svg
   width="512"
   height="512"
   viewBox="0 0 135.46666 135.46667"
   version="1.1"
   id="svg5"
   inkscape:version="1.3.2 (091e20ef0f, 2023-11-25, custom)"
   sodipodi:docname="dialog-password.svg"
   xmlns:inkscape="http://www.inkscape.org/namespaces/inkscape"
   xmlns:sodipodi="http://sodipodi.sourceforge.net/DTD/sodipodi-0.dtd"
   xmlns:xlink="http://www.w3.org/1999/xlink"
   xmlns="http://www.w3.org/2000/svg"
   xmlns:svg="http://www.w3.org/2000/svg">
  <sodipodi:namedview
     id="namedview7"
     pagecolor="#292929"
     bordercolor="#666666"
     borderopacity="1"
     inkscape:showpageshadow="0"
     inkscape:pageopacity="0"
     inkscape:pagecheckerboard="1"
     inkscape:deskcolor="#1a1a1a"
     inkscape:document-units="px"
     showgrid="false"
     inkscape:zoom="0.65186406"
     inkscape:cx="-82.072326"
     inkscape:cy="162.61059"
     inkscape:window-width="3256"
     inkscape:window-height="1080"
     inkscape:window-x="1864"
     inkscape:window-y="0"
     inkscape:window-maximized="0"
     inkscape:current-layer="layer1" />
  <defs
     id="defs2">
    <linearGradient
       id="linearGradient24"
       inkscape:collect="always">
      <stop
         style="stop-color:#adadad;stop-opacity:1;"
         offset="0"
         id="stop24" />
      <stop
         style="stop-color:#cccccc;stop-opacity:1;"
         offset="0.22"
         id="stop26" />
      <stop
         style="stop-color:#7a7a7a;stop-opacity:1;"
         offset="1"
         id="stop25" />
    </linearGradient>
    <linearGradient
       id="linearGradient22"
       inkscape:collect="always">
      <stop
         style="stop-color:#ffffff;stop-opacity:1;"
         offset="0"
         id="stop22" />
      <stop
         style="stop-color:#000000;stop-opacity:1;"
         offset="1"
         id="stop23" />
    </linearGradient>
    <linearGradient
       id="linearGradient13"
       inkscape:collect="always">
      <stop
         style="stop-color:#000000;stop-opacity:1;"
         offset="0"
         id="stop13" />
      <stop
         style="stop-color:#ffffff;stop-opacity:1;"
         offset="1"
         id="stop14" />
    </linearGradient>
    <linearGradient
       id="linearGradient8"
       inkscape:collect="always">
      <stop
         style="stop-color:#000000;stop-opacity:1;"
         offset="0"
         id="stop8" />
      <stop
         style="stop-color:#000000;stop-opacity:0;"
         offset="1"
         id="stop9" />
    </linearGradient>
    <linearGradient
       id="linearGradient5"
       inkscape:collect="always">
      <stop
         style="stop-color:#7a7a7a;stop-opacity:1;"
         offset="0.01"
         id="stop5" />
      <stop
         style="stop-color:#999999;stop-opacity:1;"
         offset="1"
         id="stop6" />
    </linearGradient>
    <linearGradient
       id="linearGradient2"
       inkscape:collect="always">
      <stop
         style="stop-color:#3b3b3b;stop-opacity:1;"
         offset="0"
         id="stop2" />
      <stop
         style="stop-color:#707070;stop-opacity:1;"
         offset="0.48160058"
         id="stop4" />
      <stop
         style="stop-color:#ffffff;stop-opacity:1;"
         offset="1"
         id="stop3" />
    </linearGradient>
    <linearGradient
       inkscape:collect="always"
       xlink:href="#linearGradient2"
       id="linearGradient3"
       x1="121.22136"
       y1="48.977558"
       x2="121.22136"
       y2="56.959816"
       gradientUnits="userSpaceOnUse"
       gradientTransform="matrix(0.75814306,0.20314382,-0.20314382,0.75814306,10.39872,10.137155)" />
    <linearGradient
       inkscape:collect="always"
       xlink:href="#linearGradient5"
       id="linearGradient6"
       x1="32.296219"
       y1="25.132832"
       x2="32.296219"
       y2="81.055519"
       gradientUnits="userSpaceOnUse"
       gradientTransform="matrix(0.75814306,0.20314382,-0.20314382,0.75814306,12.179509,11.514814)" />
    <linearGradient
       inkscape:collect="always"
       xlink:href="#linearGradient8"
       id="linearGradient10"
       gradientUnits="userSpaceOnUse"
       x1="32.296219"
       y1="25.132832"
       x2="32.296219"
       y2="54.276791"
       gradientTransform="translate(-70.259251)" />
    <clipPath
       clipPathUnits="userSpaceOnUse"
       id="clipPath11">
      <path
         id="path11"
         style="opacity:1;fill:url(#linearGradient12);fill-opacity:1;stroke:none;stroke-width:0.04;stroke-linecap:round;stroke-linejoin:round;paint-order:fill markers stroke"
         d="m -37.963033,25.132832 a 27.961346,27.961346 0 0 0 -27.9616,27.961084 27.961346,27.961346 0 0 0 27.9616,27.9616 27.961346,27.961346 0 0 0 27.961085,-27.9616 27.961346,27.961346 0 0 0 -27.961085,-27.961084 z m -16.421219,17.378266 a 10.583333,10.583333 0 0 1 10.583334,10.583334 10.583333,10.583333 0 0 1 -10.583334,10.583333 10.583333,10.583333 0 0 1 -10.583333,-10.583333 10.583333,10.583333 0 0 1 10.583333,-10.583334 z" />
    </clipPath>
    <linearGradient
       inkscape:collect="always"
       xlink:href="#linearGradient5"
       id="linearGradient12"
       gradientUnits="userSpaceOnUse"
       gradientTransform="translate(-70.259251)"
       x1="32.296219"
       y1="25.132832"
       x2="32.296219"
       y2="81.055519" />
    <filter
       inkscape:collect="always"
       style="color-interpolation-filters:sRGB"
       id="filter12"
       x="-0.029571104"
       y="-0.05674231"
       width="1.0591422"
       height="1.1134846">
      <feGaussianBlur
         inkscape:collect="always"
         stdDeviation="0.68903977"
         id="feGaussianBlur12" />
    </filter>
    <linearGradient
       inkscape:collect="always"
       xlink:href="#linearGradient13"
       id="linearGradient14"
       x1="32.296219"
       y1="25.132832"
       x2="32.296219"
       y2="81.055519"
       gradientUnits="userSpaceOnUse"
       gradientTransform="matrix(0.75814306,0.20314382,-0.20314382,0.75814306,12.179509,11.514814)" />
    <linearGradient
       inkscape:collect="always"
       xlink:href="#linearGradient22"
       id="linearGradient23"
       x1="32.296219"
       y1="20.798212"
       x2="32.295959"
       y2="85.390137"
       gradientUnits="userSpaceOnUse"
       gradientTransform="matrix(0.75814306,0.20314382,-0.20314382,0.75814306,12.179509,11.514814)" />
    <linearGradient
       inkscape:collect="always"
       xlink:href="#linearGradient24"
       id="linearGradient25"
       x1="83.435059"
       y1="40.071236"
       x2="83.435059"
       y2="66.117111"
       gradientUnits="userSpaceOnUse"
       gradientTransform="matrix(0.75814306,0.20314382,-0.20314382,0.75814306,12.179509,11.514814)" />
    <linearGradient
       inkscape:collect="always"
       xlink:href="#linearGradient24"
       id="linearGradient28"
       x1="42.492287"
       y1="20.798212"
       x2="42.492287"
       y2="85.390137"
       gradientUnits="userSpaceOnUse"
       gradientTransform="matrix(0.75814306,0.20314382,-0.20314382,0.75814306,12.179509,11.514814)" />
    <clipPath
       clipPathUnits="userSpaceOnUse"
       id="clipPath48">
      <path
         id="path48"
         style="opacity:0.382333;fill:#c83737;fill-opacity:1;stroke:none;stroke-width:0.04;stroke-linecap:round;stroke-linejoin:round;paint-order:fill markers stroke"
         d="M 32.296219,20.798213 A 32.296002,32.296002 0 0 0 -1e-6,53.094434 a 32.296002,32.296002 0 0 0 32.29622,32.295698 32.296002,32.296002 0 0 0 29.52429,-19.27324 h 9.63972 l -0.01085,-2.64583 2.842209,-5.29167 h 2.842721 l 2.842199,5.29167 h 2.842201 2.84221 l 2.84272,-2.645839 2.8422,2.645839 h 2.842209 l 2.842721,-5.29167 h 2.842199 l 2.842202,5.29167 h 2.84272 2.84221 l 2.8422,-5.29167 h 2.84272 2.84221 l 5.68492,5.29167 h 2.8422 2.84221 l 2.84272,-5.29167 2.8422,5.29167 h 2.84221 2.84272 l 2.8422,-5.29167 5.68492,5.29167 h 2.84221 l 2.8422,-2.645839 2.84272,2.645839 h 2.84221 2.8422 l 12.69432,-10.215399 v -5.386239 l -8.99015,-7.79849 H 61.83912 A 32.296002,32.296002 0 0 0 32.296219,20.798213 Z m -16.42122,21.71288 A 10.583333,10.583333 0 0 1 26.458329,53.094434 10.583333,10.583333 0 0 1 15.874999,63.677762 10.583333,10.583333 0 0 1 5.2916589,53.094434 10.583333,10.583333 0 0 1 15.874999,42.511093 Z" />
    </clipPath>
    <filter
       inkscape:collect="always"
       style="color-interpolation-filters:sRGB"
       id="filter48"
       x="-0.03071496"
       y="-0.12125357"
       width="1.0614299"
       height="1.2425071">
      <feGaussianBlur
         inkscape:collect="always"
         stdDeviation="2.8184731"
         id="feGaussianBlur48" />
    </filter>
    <linearGradient
       inkscape:collect="always"
       xlink:href="#linearGradient24"
       id="linearGradient51"
       gradientUnits="userSpaceOnUse"
       gradientTransform="matrix(0.75450961,0,0,0.75450961,3.6197869,27.832271)"
       x1="83.435059"
       y1="40.071236"
       x2="83.435059"
       y2="66.117111" />
    <filter
       style="color-interpolation-filters:sRGB;"
       inkscape:label="Noise Fill"
       id="filter52"
       x="0"
       y="0"
       width="1"
       height="1">
      <feTurbulence
         type="fractalNoise"
         baseFrequency="22 1"
         numOctaves="4"
         seed="2"
         result="turbulence"
         id="feTurbulence51" />
      <feComposite
         in="SourceGraphic"
         in2="turbulence"
         operator="in"
         result="composite1"
         id="feComposite51" />
      <feColorMatrix
         values="1 0 0 0 0 0 1 0 0 0 0 0 1 0 0 0 0 0 4 -1 "
         result="color"
         id="feColorMatrix51" />
      <feFlood
         flood-opacity="1"
         flood-color="rgb(0,0,0)"
         result="flood"
         id="feFlood51" />
      <feMerge
         result="merge"
         id="feMerge52">
        <feMergeNode
           in="flood"
           id="feMergeNode51" />
        <feMergeNode
           in="color"
           id="feMergeNode52" />
      </feMerge>
      <feComposite
         in2="SourceGraphic"
         operator="in"
         result="composite2"
         id="feComposite52" />
    </filter>
    <filter
       style="color-interpolation-filters:sRGB;"
       inkscape:label="Noise Fill"
       id="filter54"
       x="0"
       y="0"
       width="1"
       height="1">
      <feTurbulence
         type="fractalNoise"
         baseFrequency="1 44"
         numOctaves="4"
         seed="2"
         result="turbulence"
         id="feTurbulence52" />
      <feComposite
         in="SourceGraphic"
         in2="turbulence"
         operator="in"
         result="composite1"
         id="feComposite53" />
      <feColorMatrix
         values="1 0 0 0 0 0 1 0 0 0 0 0 1 0 0 0 0 0 4 -1 "
         result="color"
         id="feColorMatrix53" />
      <feFlood
         flood-opacity="1"
         flood-color="rgb(0,0,0)"
         result="flood"
         id="feFlood53" />
      <feMerge
         result="merge"
         id="feMerge54">
        <feMergeNode
           in="flood"
           id="feMergeNode53" />
        <feMergeNode
           in="color"
           id="feMergeNode54" />
      </feMerge>
      <feComposite
         in2="SourceGraphic"
         operator="in"
         result="composite2"
         id="feComposite54" />
    </filter>
    <clipPath
       clipPathUnits="userSpaceOnUse"
       id="clipPath56">
      <path
         id="path57"
         style="display:inline;fill:#ff2a2a;fill-opacity:1;stroke:none;stroke-width:0.04;stroke-linecap:round;stroke-linejoin:round;paint-order:fill markers stroke"
         d="m 13.063791,100.94391 h 82.584535 l 6.783284,5.88376 v 4.06401 l -9.578117,7.70779 -2.144596,1e-5 -2.144596,-1e-5 -2.144596,-1.9963 -2.144596,1.9963 -2.144596,1e-5 -4.289198,-3.99262 -2.144598,3.99261 -2.144594,1e-5 H 71.40753 l -2.144599,-3.99262 -2.144593,3.99261 h -2.144596 l -2.144594,1e-5 -4.289192,-3.99262 H 56.39536 54.250767 l -2.144596,3.99262 -2.144604,-1e-5 H 47.81697 l -2.14459,-3.99261 h -2.144588 l -2.144594,3.99262 -2.144599,-1e-5 -2.144593,-1.9963 -2.144596,1.9963 -2.144596,1e-5 -2.144599,-1e-5 -2.144596,-3.99261 h -2.144595 l -2.144596,3.99262 0.0083,1.9963 H 13.063755 v -4.91296 l -2e-6,-4.91298 v -4.91296 z"
         sodipodi:nodetypes="ccccccccccccccccccccccccccccccccccccccccc" />
    </clipPath>
    <filter
       inkscape:collect="always"
       style="color-interpolation-filters:sRGB"
       id="filter59"
       x="-0.012717979"
       y="-0.16651119"
       width="1.025436"
       height="1.3330224">
      <feGaussianBlur
         inkscape:collect="always"
         stdDeviation="0.39888797"
         id="feGaussianBlur59" />
    </filter>
  </defs>
  <g
     inkscape:label="Layer 1"
     inkscape:groupmode="layer"
     id="layer1">
    <path
       id="rect1"
       style="display:inline;fill:url(#linearGradient25);stroke:none;stroke-width:0.04;stroke-linecap:round;stroke-linejoin:round;paint-order:fill markers stroke"
       d="m 46.991501,53.403554 82.982229,22.235021 5.2318,7.738418 -1.09419,4.083578 -11.69948,5.166109 -2.15492,-0.57741 -2.15492,-0.57741 -1.61744,-2.58333 -2.69241,1.42851 -2.15492,-0.577409 -3.23488,-5.166663 -3.2299,3.43443 -2.15492,-0.577409 -2.15492,-0.57741 -1.079957,-4.589251 -3.229893,3.434431 -2.154923,-0.57741 -2.154923,-0.57741 -3.234877,-5.166661 -2.154923,-0.577409 -2.154923,-0.57741 -3.229893,3.434431 -2.15493,-0.577413 -2.154923,-0.57741 -1.079952,-4.589249 -2.154912,-0.577407 -3.229893,3.43443 -2.154924,-0.577409 -1.617438,-2.583331 -2.692409,1.42851 -2.154924,-0.57741 -2.154924,-0.57741 -1.079954,-4.589251 -2.154923,-0.57741 -3.229894,3.43443 -0.529107,2.008165 -11.22477,-3.007668 1.322765,-4.936625 1.322765,-4.936628 1.322765,-4.936625 z"
       sodipodi:nodetypes="ccccccccccccccccccccccccccccccccccccccccc" />
    <path
       id="path55"
       clip-path="url(#clipPath56)"
       style="display:inline;opacity:0.2;fill:#ffffff;fill-opacity:1;stroke:none;stroke-width:0.0384519;stroke-linecap:round;stroke-linejoin:round;paint-order:fill markers stroke;filter:url(#filter59)"
       inkscape:label="wear-base"
       transform="matrix(1.0048156,0.26923954,-0.26923954,1.0048156,61.049332,-51.550896)"
       d="m 26.290575,113.69936 -2.068086,3.85024 0.0036,1.04975 2.140793,-3.9842 2.144263,3e-5 2.144615,3.99259 2.144762,-1e-4 2.144762,-1.1e-4 2.144404,-1.99607 2.144621,1.996 2.144397,5.3e-4 2.14491,-3.99281 2.144263,3e-5 2.144615,3.9926 2.144762,-1.1e-4 2.144263,3e-5 2.14491,-3.9928 2.144263,3e-5 2.144896,4e-4 4.288878,3.99262 2.144762,-10e-5 2.144263,3e-5 2.14491,-3.99281 2.145114,3.99246 2.144263,3e-5 2.144762,-1e-4 2.144544,-3.99217 4.289377,3.99249 2.144263,3e-5 2.144769,-1.9967 2.144257,1.99663 2.144762,-1.1e-4 2.144762,-1e-4 7.144162,-5.749 h -1.314879 l -5.829285,4.6908 -2.144762,1.1e-4 -2.144762,1e-4 -2.144256,-1.99663 -2.144769,1.9967 -2.144397,-5.3e-4 -4.289377,-3.99249 -2.144411,3.99267 -2.144762,1.1e-4 -2.144263,-3e-5 -2.145114,-3.99246 -2.144544,3.99217 -2.144763,1e-4 -2.144762,1e-4 -4.288878,-3.99262 -2.144762,1e-4 -2.144263,-3e-5 -2.14491,3.99281 -2.144263,-3e-5 -2.144762,1e-4 -2.144615,-3.99259 -2.144263,-3e-5 -2.145043,3.9923 -2.144263,-3e-5 -2.144622,-1.996 -2.144404,1.99607 -2.144762,1.1e-4 -2.144263,-3e-5 -2.11302,-3.93258 z m -2.940802,5.84633 c -0.623504,0.36012 -2.190793,0.76787 -2.877958,1.05747 l 3.758286,-1.7e-4 -0.0038,-1.05828 z"
       sodipodi:nodetypes="cccccccccccccccccccccccccccccccccccccccccccccccccccccccccccccccccccccc" />
    <path
       id="path59"
       clip-path="url(#clipPath56)"
       style="display:inline;opacity:0.2;fill:#ffffff;fill-opacity:1;stroke:none;stroke-width:0.0384519;stroke-linecap:round;stroke-linejoin:round;paint-order:fill markers stroke;filter:url(#filter59)"
       inkscape:label="wear-base"
       transform="matrix(1.0048156,0.26923954,-0.26923954,1.0048156,61.04933,-51.550899)"
       d="m 26.290575,113.69936 -1.570976,2.92418 c 0.09019,0.18419 0.181132,0.36801 0.271523,0.55211 l 1.37578,-2.5605 2.144263,3e-5 2.144615,3.99259 2.144762,-1e-4 2.144762,-1.1e-4 0.872199,-0.81203 c -0.257539,-0.11306 -0.515472,-0.22518 -0.772848,-0.33861 l -0.09935,0.0924 -2.144762,1.1e-4 -2.144263,-3e-5 -2.11302,-3.93258 z m 17.233059,-0.14236 -1.277201,2.37734 c 0.154266,0.0654 0.307969,0.13222 0.462237,0.19767 l 0.814966,-1.5168 2.144263,3e-5 1.945709,3.62164 c 0.310454,0.13308 0.615483,0.26683 0.858502,0.37077 l 1.485166,8e-5 2.144263,3e-5 2.14491,-3.9928 2.144263,3e-5 2.144896,4e-4 0.929497,0.86533 c -0.04316,-0.18178 -0.08273,-0.36436 -0.112271,-0.54878 -0.03701,-0.23102 -0.06039,-0.46411 -0.08818,-0.69647 l -0.729182,-0.6788 -2.144762,1e-4 -2.144263,-3e-5 -2.14491,3.99281 -2.144263,-3e-5 -2.144762,1e-4 -2.144615,-3.99259 z m 25.734785,-8e-5 -2.144544,3.99217 -2.144763,10e-5 -0.416796,-1.3e-4 c 0.07759,0.17772 0.154012,0.35158 0.280891,0.64697 0.06012,0.13726 0.120495,0.27441 0.180413,0.41176 l 2.099891,1.5e-4 2.14491,-3.99281 2.145114,3.99246 2.144263,3e-5 2.144762,-1e-4 2.144544,-3.99217 4.289377,3.99249 0.83033,7e-5 c 0.06851,-0.34092 0.134884,-0.66521 0.213971,-1.0583 l -1.044436,-4.9e-4 -4.289377,-3.99249 -2.144411,3.99267 -2.144762,1.1e-4 -2.144263,-3e-5 z m 29.420141,-0.69833 -1.094653,0.88092 c 0.135192,0.11018 0.270156,0.22073 0.406538,0.32923 0.148439,0.1181 0.12212,0.0982 0.250564,0.20036 l 1.752429,-1.41051 z m -10.989071,3.88094 c -0.04847,0.23011 -0.121569,0.58056 -0.16481,0.77657 -0.0094,0.0466 -0.01277,0.0618 -0.02201,0.10755 l 1.057099,0.98415 2.144762,-1.1e-4 2.144762,-1e-4 1.99368,-1.60419 c -0.218467,-0.17829 -0.441096,-0.351 -0.662423,-0.52549 l -1.331259,1.07146 -2.144762,1.1e-4 -2.144762,1e-4 z"
       sodipodi:nodetypes="ccccccccccccccccccccccccccccsccccccccccccccccccccccccccccccccsccccccccccccccc" />
    <path
       id="path66"
       clip-path="url(#clipPath56)"
       style="display:inline;opacity:0.2;fill:#ffffff;fill-opacity:1;stroke:none;stroke-width:0.0384519;stroke-linecap:round;stroke-linejoin:round;paint-order:fill markers stroke;filter:url(#filter59)"
       inkscape:label="wear-base"
       transform="matrix(1.0048156,0.26923954,-0.26923954,1.0048156,61.04933,-51.550899)"
       d="m 26.290578,113.69936 -1.324231,2.46538 c 0.104839,0.15775 0.208327,0.31636 0.313206,0.47407 l 1.087352,-2.02366 0.187277,1.1e-4 c 0.01308,-0.0882 0.03255,-0.19556 0.06242,-0.37999 0.04557,-0.18384 0.08447,-0.3696 0.133355,-0.55254 z m 1.215416,-0.0443 c -0.01649,0.0496 -0.03108,0.0907 -0.05174,0.15831 -0.05921,0.19376 -0.0938,0.39426 -0.140598,0.59139 -0.01096,0.0702 -0.02513,0.14005 -0.03733,0.21009 l 1.234843,2.9e-4 0.05978,0.11131 c 0.105527,-0.15851 0.21005,-0.31764 0.310833,-0.47919 l -0.338526,-0.63046 z m 1.762191,1.31149 c -0.0755,0.11543 -0.151395,0.23072 -0.225941,0.34676 -0.03624,0.0535 -0.05609,0.0821 -0.08723,0.1277 l 0.554379,1.03272 c 0.06132,-0.24135 0.120166,-0.48338 0.179085,-0.72529 z m -4.68725,1.91613 -0.358443,0.66688 0.0036,1.04976 0.667896,-1.24307 c -0.104421,-0.1578 -0.208256,-0.31601 -0.313073,-0.47357 z m -5.434065,2.663 c -0.234557,0.32696 -0.468254,0.65618 -0.557434,1.05831 l 0.755365,-1.7e-4 c 0.01159,-0.12433 0.02184,-0.24874 0.03434,-0.373 0.02607,-0.22782 0.05057,-0.45674 0.07534,-0.68518 z m 11.04421,-2.86192 c -0.05967,0.23955 -0.12201,0.47866 -0.183222,0.71783 l 0.629542,1.17148 c 0.190513,-0.34119 0.380943,-0.68246 0.571556,-1.02359 l -0.552676,-1e-4 z m -10.025623,2.9576 c -0.0241,0.22359 -0.0479,0.44732 -0.07333,0.67073 -0.0097,0.0972 -0.0175,0.19452 -0.02668,0.29177 l 0.697079,-7e-5 c -0.217244,-0.44168 -0.298371,-0.63339 -0.347416,-0.77146 -0.08292,-0.064 -0.166347,-0.12746 -0.249653,-0.19097 z m 1.04482,-0.0959 c 0.0506,0.0404 0.101988,0.0799 0.152203,0.12078 0.401618,0.31289 0.813402,0.61834 1.21263,0.93766 l 1.655266,-10e-6 -9.33e-4,-0.27902 c -0.0084,-0.008 -0.01633,-0.0173 -0.025,-0.0254 -0.277334,-0.25964 -0.568407,-0.50399 -0.854667,-0.75378 z m 22.596905,-5.98849 c 0.236809,0.39769 0.50047,0.84027 0.628641,1.0583 l 1.232079,-4e-5 0.91035,1.69435 c 0.07097,-0.2165 0.141252,-0.43922 0.211715,-0.66341 L 45.6679,113.55703 Z m -6.717473,1.99629 -0.845665,0.78727 c -0.06624,0.16188 -0.09062,0.21958 -0.17379,0.42159 -0.06351,0.1611 -0.06151,0.1543 -0.107993,0.27183 0.129012,0.0529 0.357609,0.14912 0.466658,0.19221 l 0.660792,-0.61469 1.210159,1.12611 c -0.0045,-0.0863 -0.0099,-0.17275 -0.01163,-0.25903 -0.0054,-0.27386 -0.0097,-0.54777 -0.01257,-0.82159 z m 6.821584,-1.70158 c 0.0072,0.0159 0.307824,0.51325 0.457588,0.76334 l 0.03059,3.6e-4 c -0.24648,-0.39032 -0.505947,-0.80317 -0.48818,-0.7637 z m -0.64908,0.19318 -0.62525,1.16262 c 0.0017,0.002 0.0037,0.004 0.0054,0.006 0.119216,0.12922 0.233734,0.26266 0.346269,0.39781 l 0.535173,-0.99564 0.0069,-2.5e-4 c -0.245835,-0.4128 -0.202656,-0.35073 0.01768,8e-5 l 0.05303,2.4e-4 c -0.08791,-0.14865 -0.219007,-0.36894 -0.339153,-0.57091 z m -11.231582,3.50436 c -0.197147,0.35284 -0.393914,0.7059 -0.591022,1.05876 l 1.360936,-3.3e-4 1.772971,10e-6 c 0.09252,-0.24821 0.289002,-0.74847 0.436827,-1.1191 l -0.06504,0.0608 -2.144762,1e-4 z m 10.244966,-1.66979 -0.897003,1.66985 -2.144263,-3e-5 -0.231508,-0.21509 c 8.9e-4,0.0452 0.0018,0.0905 0.0027,0.13571 0.003,0.14884 0.0129,0.2979 0.02018,0.44666 0.582297,0.1161 1.128641,0.22079 2.455768,0.49971 l 1.139364,-2.12106 c -0.113434,-0.13984 -0.227354,-0.27972 -0.345192,-0.41575 z m -6.577775,1.82082 c -0.03081,0.0773 -0.09799,0.24817 -0.129497,0.32734 l 0.283496,-0.26374 c -0.04031,-0.0164 -0.111327,-0.0461 -0.153999,-0.0636 z m 18.548628,-4.14352 -1.537066,2.86105 c 0.03004,0.25053 0.05754,0.50112 0.07596,0.75271 0.0037,0.0508 0.0041,0.10164 0.0061,0.15246 l 1.455028,-2.70801 1.537061,9e-5 c -0.120563,-0.26836 -0.244681,-0.53486 -0.382029,-0.79482 -0.04162,-0.0787 -0.09859,-0.17819 -0.144951,-0.26343 z m 1.824867,1e-5 c 0.180353,0.34547 0.339635,0.70148 0.49752,1.05812 l 1.966774,5.1e-4 0.704854,0.65589 c 0.05235,-0.43416 0.08162,-0.69202 0.111936,-0.95393 l -0.816926,-0.76068 -2.144762,1.1e-4 z m -8.809811,2.96673 c -0.02836,0.0866 -0.05497,0.17411 -0.08374,0.26051 -0.04233,0.12711 -0.09198,0.25169 -0.143354,0.37546 l 0.778104,1.44838 0.890247,7e-5 c 0.0382,-0.085 0.07675,-0.17001 0.120099,-0.2526 0.143676,-0.27374 0.299822,-0.54075 0.459272,-0.80572 l -1.46962,3e-5 z m 2.855719,1.02597 c -0.215059,0.34775 -0.426734,0.69722 -0.617852,1.05846 l 0.457906,-1.8e-4 2.094498,-1e-5 c 0.0026,-0.10749 0.0071,-0.21495 0.0094,-0.32244 0.0052,-0.24501 0.01722,-0.49083 0.01796,-0.73561 z m 9.886544,-2.62609 c -0.02053,0.17529 -0.02902,0.25542 -0.05671,0.48118 -0.01927,0.15711 -0.03823,0.31419 -0.05776,0.47129 l 0.218777,0.20353 c 0.248498,-0.0679 0.471539,-0.1285 0.66025,-0.17745 0.053,-0.0138 0.173246,-0.0423 0.226323,-0.0558 z m 9.254653,-1.36645 -0.351269,0.65372 c 0.103524,-0.0176 0.206921,-0.0358 0.310478,-0.0532 0.12398,-0.0208 0.218165,-0.0349 0.334411,-0.0538 z m -8.317429,3.0413 c -0.06102,0.0159 -0.14954,0.0409 -0.213505,0.0577 l 0.66563,0.61932 c 0.199604,-0.16685 0.39947,-0.33386 0.598646,-0.5012 l -0.369939,-0.34439 c -0.179543,0.0445 -0.52143,0.12714 -0.680832,0.16852 z m 7.494923,-1.51071 -0.304105,0.56619 c 0.171569,-0.0487 0.344734,-0.0937 0.512017,-0.15164 0.04411,0.004 0.08831,0.007 0.132432,0.0111 l 0.09383,-0.17494 c -0.128057,-0.0962 -0.284386,-0.17138 -0.434173,-0.25067 z m 0.976049,-0.23478 c 0.306253,0.25608 0.609424,0.51559 0.911582,0.77651 0.01669,9.8e-4 0.03338,0.002 0.05007,0.003 l -0.462098,-0.86004 c -0.167964,0.0268 -0.30848,0.0486 -0.499552,0.0804 z m -6.891201,2.41412 c -0.199059,0.16775 -0.398894,0.33473 -0.598512,0.50169 l 0.902237,0.83947 1.417225,1e-4 c 0.03673,-0.11764 0.07051,-0.23603 0.09704,-0.35662 0.05087,-0.23126 0.07845,-0.46626 0.09912,-0.70226 l -1.613523,7e-5 z m 5.831655,-0.96554 c -0.137038,0.0326 -0.270825,0.0727 -0.391825,0.14298 -0.158896,0.0923 -0.298853,0.21127 -0.434069,0.33672 l -0.412647,0.76808 -0.439731,1.3e-4 c -0.415921,0.35358 -0.833011,0.70634 -1.250119,1.05881 l 1.689486,-9e-5 z m 9.722692,-2.5228 c -0.266143,0.26135 -0.526901,0.52878 -0.785567,0.79792 l -1.596983,2.97288 -1.365829,3e-5 c -0.07677,0.0749 -0.154635,0.14864 -0.231782,0.22314 0.254863,0.27537 0.506315,0.55356 0.754501,0.83519 l 0.843112,-1.5e-4 0.582203,-1.08368 c 0.174973,-0.42497 0.239957,-0.54439 0.759698,-1.55335 0.163831,-0.31802 0.320081,-0.64076 0.50997,-0.94395 0.24527,-0.39163 0.478735,-0.74081 0.710998,-1.08021 z m -12.91559,3.77049 c -0.01097,0.13036 -0.03655,0.25846 -0.05389,0.38786 0.152856,-0.12928 0.305592,-0.25866 0.458274,-0.38815 z m 5.145637,-0.98609 1.09838,2.04469 0.774173,1.4e-4 c 0.07599,-0.0717 0.15209,-0.14338 0.228029,-0.21518 -0.24568,-0.2138 -0.58856,-0.51209 -0.968484,-0.84312 l -0.03372,-6e-5 -0.02989,-0.0557 c -0.123517,-0.10764 -0.165862,-0.14417 -0.306333,-0.26673 -0.253915,-0.22154 -0.507957,-0.44277 -0.762152,-0.66408 z m 8.480539,-2.12309 c -0.144583,0.21237 -0.289593,0.42822 -0.434754,0.65363 l 1.717131,1.59855 c 0.182253,-0.18342 0.365276,-0.3659 0.551524,-0.54528 z m -6.256004,3.10954 c 0.119447,0.10394 0.300347,0.26156 0.399837,0.34815 0.02205,-0.0208 0.04421,-0.0414 0.06627,-0.0622 0.05322,-0.0513 0.06126,-0.0591 0.08967,-0.0866 -0.06292,-0.0667 -0.126047,-0.13305 -0.189745,-0.199 z m 1.044473,0.72539 c -0.02896,0.0278 -0.05779,0.0558 -0.08672,0.0837 -0.0052,0.005 -0.01013,0.01 -0.01529,0.0148 0.08793,0.0772 0.193305,0.16933 0.266682,0.23456 l 0.140141,-10e-5 c -0.04662,-0.0509 -0.08267,-0.0919 -0.13206,-0.14545 -0.05761,-0.0625 -0.115253,-0.12493 -0.172754,-0.1875 z m 27.898854,-7.33959 c 0.15636,0.11766 0.31055,0.23801 0.4631,0.36062 l 0.49112,-0.39535 z m -0.78951,0.30999 -0.64523,0.51903 c 0.15233,0.23026 0.30602,0.45923 0.46169,0.68681 l 0.86438,-0.69545 c -0.2228,-0.17573 -0.45009,-0.34547 -0.68084,-0.51039 z m -19.538612,5.3905 c -0.186391,0.17903 -0.369551,0.36144 -0.551658,0.54479 l 1.533244,1.4274 2.144263,3e-5 0.728789,-0.67837 c -0.01821,-0.1029 -0.03236,-0.18193 -0.06103,-0.34156 -0.02941,-0.19209 -0.06015,-0.38405 -0.09017,-0.57611 l -0.577598,0.53783 -2.144396,-5.3e-4 z m 5.270617,-1.0827 -0.928725,0.86463 c 0.0061,0.0466 0.0084,0.0678 0.01573,0.12258 0.03606,0.26962 0.0809,0.53773 0.123497,0.80632 l 0.64523,-0.60089 c 0.142304,-0.30996 0.283047,-0.62073 0.425834,-0.9305 z m 12.037965,-2.51348 -1.822379,1.46681 c 0.06021,0.0705 0.09129,0.10708 0.159072,0.18635 0.125529,0.14681 0.245778,0.29817 0.365572,0.44988 l 1.673228,-1.3466 c -0.0574,-0.11771 -0.114882,-0.23532 -0.172653,-0.35284 -0.06897,-0.13386 -0.136406,-0.26843 -0.20284,-0.4036 z M 87.24887,116.329 c -0.112775,0.24767 -0.224746,0.49578 -0.33798,0.74326 l 0.998014,0.92936 c 0.07328,-0.026 0.146406,-0.0526 0.219672,-0.0786 0.288432,-0.10267 0.577162,-0.20459 0.865913,-0.30639 0.01045,-0.0224 0.0207,-0.0449 0.03121,-0.0672 l -0.465928,1.9e-4 z m 8.421873,-1.05022 -1.064615,0.85664 c 0.258396,0.0394 0.516454,0.0811 0.775609,0.11531 0.0836,0.011 0.236126,0.0236 0.352959,0.0354 l 0.476155,-0.38331 c -0.176803,-0.21076 -0.358368,-0.41748 -0.540108,-0.62407 z m -5.470752,2.27052 c 0.07574,0.17074 -0.0259,0.41222 -0.373947,0.53514 -0.102309,0.0361 -0.204586,0.0724 -0.306916,0.10846 -0.01141,0.0262 -0.02356,0.052 -0.03466,0.0783 -0.0315,0.0747 -0.07208,0.20164 -0.112542,0.33671 l 1.332608,-2.4e-4 2.144762,-1e-4 0.238078,-0.19166 c 0.02447,-0.10476 0.04033,-0.21152 0.05771,-0.31773 0.08277,-0.50506 0.08677,-0.54919 0.110662,-0.85087 -0.0051,-0.004 -0.0097,-0.009 -0.01476,-0.0132 l -0.391686,0.3152 -2.144762,1.1e-4 z m 3.748421,-0.78772 c 0.01917,0.0546 0.04096,0.1062 0.04449,0.178 0.09815,0.0865 0.198489,0.17035 0.290984,0.26336 0.04879,0.0439 0.09609,0.0896 0.143665,0.13485 l 0.529464,-0.42596 c -0.336537,-0.0476 -0.67302,-0.0961 -1.008599,-0.15025 z m -5.290473,1.73537 c -0.05244,0.0186 -0.104956,0.0369 -0.157385,0.0555 l 0.05922,0.0553 0.06631,-1.1e-4 c 0.01009,-0.0379 0.02136,-0.0733 0.03186,-0.11072 z"
       sodipodi:nodetypes="cccccccccsccccccccccccccccccccccccccccccccccccccccccccccccccccccccccccccsccssccccccccccccccccccccccccccccccccccscccccccccccccccscccscccccccccccsccccccccccccccccccccccccccccccccccsccccsccccccccccccccsscccccccccccccscccccccccccccsscccssscccccccccccccccccccccsccccccsccccccccccccccccccccccsccccccccccsccccsssccccs" />
    <path
       id="path1"
       style="display:inline;fill:url(#linearGradient28);fill-opacity:1;stroke:url(#linearGradient23);stroke-width:0.264584;stroke-linecap:round;stroke-linejoin:round;stroke-dasharray:none;stroke-opacity:1;paint-order:fill markers stroke"
       d="M 32.439634,33.843612 A 25.348726,25.348726 0 0 0 1.3937024,51.76799 25.348726,25.348726 0 0 0 19.318184,82.81353 25.348726,25.348726 0 0 0 50.36362,64.88944 25.348726,25.348726 0 0 0 32.439634,33.843612 Z M 15.579162,46.969217 A 8.3067253,8.3067253 0 0 1 21.452904,57.142837 8.3067253,8.3067253 0 0 1 11.279285,63.016578 8.3067253,8.3067253 0 0 1 5.4055427,52.842959 8.3067253,8.3067253 0 0 1 15.579162,46.969217 Z" />
    <path
       id="rect2"
       style="display:inline;fill:url(#linearGradient3);stroke-width:0.04;stroke-linecap:round;stroke-linejoin:round;paint-order:fill markers stroke"
       d="m 60.708802,63.415653 74.496728,19.96134 -1.09419,4.083578 -2.97303,1.312797 -72.051055,-19.306022 c 0,0 -7.978819,-2.317363 -7.212907,-5.175785 0.765912,-2.858422 8.834454,-0.875908 8.834454,-0.875908 z"
       sodipodi:nodetypes="ccccczc" />
    <path
       id="path5"
       style="display:inline;opacity:0.4;fill:url(#linearGradient6);fill-opacity:1;stroke:url(#linearGradient14);stroke-width:0.105833;stroke-linecap:round;stroke-linejoin:round;stroke-dasharray:none;paint-order:fill markers stroke"
       d="M 31.559084,37.129873 A 21.946509,21.946509 0 0 0 4.6800693,52.648148 21.946509,21.946509 0 0 0 20.198735,79.527268 21.946509,21.946509 0 0 0 47.077463,64.008495 21.946509,21.946509 0 0 0 31.559084,37.129873 Z M 15.579162,46.969217 A 8.3067253,8.3067253 0 0 1 21.452904,57.142836 8.3067253,8.3067253 0 0 1 11.279284,63.016577 8.3067253,8.3067253 0 0 1 5.4055436,52.842959 8.3067253,8.3067253 0 0 1 15.579162,46.969217 Z" />
    <path
       id="path10"
       style="display:inline;opacity:0.2;fill:url(#linearGradient10);fill-opacity:1;stroke:none;stroke-width:0.0509627;stroke-linecap:round;stroke-linejoin:round;paint-order:fill markers stroke;filter:url(#filter12)"
       d="m -37.963032,25.132832 c -15.442621,-1.4e-4 -27.961455,12.518462 -27.9616,27.961083 0.01518,0.26484 0.03413,0.52945 0.05684,0.79375 0.429221,-15.109734 12.788946,-27.142836 27.904756,-27.167333 15.274507,0.01435 27.710972,12.283544 27.932145,27.556457 0.01799,-0.394043 0.02764,-0.788423 0.02894,-1.182874 -1.45e-4,-15.44242 -12.518665,-27.960939 -27.961085,-27.961083 z"
       sodipodi:nodetypes="scccccs"
       clip-path="url(#clipPath11)"
       transform="matrix(0.75814306,0.20314382,-0.20314382,0.75814306,65.446072,25.787546)" />
    <text
       xml:space="preserve"
       style="font-style:normal;font-variant:normal;font-weight:normal;font-stretch:normal;font-size:8.3067px;line-height:1.25;font-family:'Another Typewriter';-inkscape-font-specification:'Another Typewriter, Normal';font-variant-ligatures:normal;font-variant-caps:normal;font-variant-numeric:normal;font-variant-east-asian:normal;display:inline;opacity:0.04;fill:#000000;fill-opacity:1;stroke:none;stroke-width:0.264584"
       x="-56.068352"
       y="47.224762"
       id="text15"
       transform="rotate(-74.999999)"><tspan
         sodipodi:role="line"
         id="tspan15"
         style="font-style:normal;font-variant:normal;font-weight:normal;font-stretch:normal;font-size:8.3067px;font-family:'Another Typewriter';-inkscape-font-specification:'Another Typewriter, Normal';font-variant-ligatures:normal;font-variant-caps:normal;font-variant-numeric:normal;font-variant-east-asian:normal;fill:#000000;fill-opacity:1;stroke-width:0.264584"
         x="0"
         y="0">003</tspan></text>
    <path
       id="text17"
       style="font-style:normal;font-variant:normal;font-weight:normal;font-stretch:normal;font-size:10.5833px;line-height:1.25;font-family:'Another Typewriter';-inkscape-font-specification:'Another Typewriter, Normal';font-variant-ligatures:normal;font-variant-caps:normal;font-variant-numeric:normal;font-variant-east-asian:normal;display:inline;opacity:0.6;fill:#000000;fill-opacity:1;stroke:none;stroke-width:0.264584"
       d="m 31.98532,53.398883 c -0.155123,-0.04157 -0.331768,-0.03447 -0.530171,0.02128 -0.19697,0.05042 -0.364815,0.120445 -0.503329,0.209459 -0.02035,0.01174 -0.04456,0.02784 -0.07314,0.04885 -0.03391,0.01958 -0.06544,0.03988 -0.094,0.0609 -0.03391,0.01958 -0.0619,0.03817 -0.08368,0.05526 l -0.04074,0.02352 -0.367087,0.50337 c -0.0193,0.02923 -0.03749,0.04426 -0.05498,0.04532 -0.0175,0.001 -0.03971,-0.0019 -0.06645,-0.0089 -0.07489,-0.02007 -0.129199,-0.06337 -0.163009,-0.129759 -0.03916,-0.06781 -0.07776,-0.126833 -0.115871,-0.177175 -0.05129,-0.06534 -0.110966,-0.152998 -0.178969,-0.262949 -0.068,-0.109952 -0.141948,-0.218681 -0.222082,-0.326149 -0.08548,-0.108903 -0.171318,-0.206233 -0.257186,-0.292306 -0.08979,-0.09285 -0.177332,-0.150814 -0.262917,-0.173746 -0.106983,-0.02867 -0.203159,-0.02302 -0.288465,0.01718 -0.08922,0.03342 -0.149774,0.109199 -0.181306,0.22688 l -0.02058,0.07679 c 0.03153,-0.117681 0.09198,-0.193064 0.181202,-0.226488 0.0853,-0.04021 0.181587,-0.04624 0.288569,-0.01758 0.08558,0.02293 0.173135,0.08089 0.262918,0.173746 0.08586,0.08607 0.171702,0.183403 0.257186,0.292306 0.08013,0.107468 0.154079,0.216197 0.222081,0.326149 0.068,0.109951 0.127681,0.197607 0.17897,0.262948 0.03811,0.05035 0.07661,0.109744 0.115766,0.177568 0.03381,0.06639 0.08822,0.109302 0.163114,0.129368 0.02674,0.0072 0.04887,0.01041 0.06635,0.0094 0.0175,-10e-4 0.03578,-0.01648 0.05508,-0.04571 l 0.367088,-0.503371 0.04073,-0.02352 c 0.02178,-0.01709 0.04965,-0.0353 0.08356,-0.05486 0.02857,-0.02101 0.06009,-0.04132 0.094,-0.0609 0.02857,-0.02101 0.0529,-0.03749 0.07325,-0.04925 0.138514,-0.08902 0.306253,-0.15865 0.503225,-0.209068 0.198403,-0.05577 0.375046,-0.06285 0.53017,-0.02128 l 0.786306,0.21069 c 0.01069,0.0029 0.03319,0.01467 0.06778,0.03538 0.03065,0.01398 0.06612,0.03186 0.106039,0.05402 0.036,0.01542 0.07069,0.03618 0.103829,0.06225 0.03458,0.02073 0.0593,0.03578 0.07391,0.04542 0.143272,0.10719 0.270481,0.210273 0.381661,0.308862 0.105829,0.09716 0.195201,0.201182 0.268552,0.312566 0.07335,0.111385 0.12977,0.232667 0.169208,0.363631 0.03944,0.130963 0.06184,0.283384 0.06699,0.456756 0.0056,0.06457 0.01818,0.125017 0.03738,0.18176 0.02598,0.05282 0.0388,0.110677 0.03908,0.173818 l 0.02058,-0.07679 c -2.84e-4,-0.06314 -0.01311,-0.120992 -0.03908,-0.173817 -0.01919,-0.05674 -0.03164,-0.117578 -0.03727,-0.182152 -0.0051,-0.173372 -0.02766,-0.3254 -0.0671,-0.456364 -0.03944,-0.130964 -0.09586,-0.252246 -0.169208,-0.363631 -0.07335,-0.111385 -0.162722,-0.215412 -0.268551,-0.312567 -0.111179,-0.09859 -0.238389,-0.201674 -0.381662,-0.308861 -0.0146,-0.0097 -0.03933,-0.02469 -0.07391,-0.04542 -0.03314,-0.02608 -0.06782,-0.04687 -0.103828,-0.06225 -0.03993,-0.02216 -0.07527,-0.04047 -0.105933,-0.05442 -0.03458,-0.02073 -0.05708,-0.03252 -0.06778,-0.03538 z m -1.137233,1.613008 -0.02068,0.07718 c 0.04413,0.09209 0.0673,0.175711 0.07006,0.250983 0.0036,0.06093 -0.006,0.133615 -0.02515,0.214552 0.0045,-0.01405 0.0094,-0.02706 0.01342,-0.04218 0.0258,-0.09629 0.03664,-0.179631 0.03243,-0.249556 -0.0028,-0.07527 -0.02594,-0.158897 -0.07006,-0.250982 z m 2.305238,1.056493 c -0.04213,0.02885 -0.07968,0.07319 -0.11292,0.133087 -0.03716,0.05311 -0.07693,0.105704 -0.119437,0.157377 -0.04108,0.04632 -0.08609,0.08559 -0.13501,0.11835 -0.04748,0.02741 -0.103329,0.03278 -0.167519,0.01557 -0.06954,-0.01863 -0.13209,-0.05265 -0.18768,-0.101935 -0.05559,-0.04929 -0.121019,-0.08407 -0.195908,-0.104141 -0.06954,-0.01863 -0.144641,-0.02726 -0.225261,-0.02593 -0.07919,-0.0041 -0.156393,0.0068 -0.232048,0.0323 -0.07422,0.02024 -0.138596,0.05741 -0.193239,0.111568 -0.05856,0.04737 -0.09938,0.113852 -0.122305,0.199438 -0.0041,0.01504 -0.0066,0.02934 -0.0097,0.04401 0.024,-0.06954 0.06079,-0.125698 0.111426,-0.16666 0.05465,-0.05416 0.119018,-0.09132 0.193239,-0.111567 0.07566,-0.02559 0.152862,-0.03633 0.232048,-0.0323 0.08062,-0.0014 0.155723,0.0073 0.225262,0.02593 0.07489,0.02007 0.140317,0.05485 0.195908,0.104141 0.05559,0.04929 0.118142,0.0833 0.18768,0.101935 0.06419,0.0172 0.119938,0.01222 0.167414,-0.01519 0.04891,-0.03276 0.09404,-0.07241 0.135116,-0.118742 0.04252,-0.05167 0.08226,-0.104272 0.119436,-0.157376 0.03325,-0.05989 0.0708,-0.104244 0.112921,-0.133089 z M 28.016017,55.18188 c -0.02007,0.07489 -0.04414,0.143188 -0.07202,0.204515 -0.02646,0.05598 -0.04898,0.118522 -0.06761,0.18806 -0.0021,0.0078 -0.0017,0.01453 -0.0034,0.02218 0.01501,-0.04754 0.03133,-0.093 0.05045,-0.133449 0.0279,-0.06132 0.05185,-0.129235 0.07191,-0.204123 z m 0.733329,0.377056 -0.02068,0.07718 c -0.01146,0.04279 0.02398,0.08062 0.106697,0.114251 0.07737,0.0322 0.162047,0.06947 0.254031,0.111321 0.09198,0.04185 0.173896,0.100957 0.245147,0.177384 0.05973,0.06178 0.07747,0.14572 0.05828,0.249505 0.0045,-0.01253 0.0103,-0.02401 0.01385,-0.03744 0.03296,-0.123029 0.01582,-0.219202 -0.05151,-0.288844 -0.07125,-0.07642 -0.153058,-0.135929 -0.245042,-0.177775 -0.09198,-0.04185 -0.176767,-0.07873 -0.254137,-0.110926 -0.08272,-0.03363 -0.118058,-0.07185 -0.106592,-0.114643 z m 1.441433,1.616148 c -0.288852,-0.0774 -0.603153,-0.11295 -0.943115,-0.106579 -0.338529,10e-4 -0.661842,0.05197 -0.969812,0.152911 -0.313321,0.09951 -0.589119,0.252102 -0.827655,0.457645 -0.238537,0.205542 -0.401397,0.471565 -0.488827,0.797859 -0.0029,0.01086 -0.0045,0.02168 -0.007,0.03255 0.09008,-0.305862 0.247793,-0.557585 0.475292,-0.753616 0.238535,-0.205544 0.514334,-0.358139 0.827655,-0.457646 0.30797,-0.100936 0.631283,-0.15189 0.969812,-0.152911 0.339963,-0.0063 0.654262,0.02918 0.943114,0.106579 0.588401,0.157661 1.111047,0.389704 1.567997,0.695603 0.458384,0.300552 0.832263,0.724558 1.121266,1.272114 0.03982,0.108136 0.04442,0.241196 0.01355,0.399187 -0.02728,0.141461 -0.05412,0.258656 -0.08075,0.360902 0.0045,-0.01583 0.01009,-0.03278 0.01423,-0.04826 0.02867,-0.106982 0.05768,-0.236789 0.08713,-0.389426 0.03086,-0.15799 0.02637,-0.291445 -0.01345,-0.399579 -0.289002,-0.547555 -0.662881,-0.971561 -1.121265,-1.272114 -0.45695,-0.305899 -0.979701,-0.53755 -1.568102,-0.695212 z m -2.362004,1.598503 c -0.0043,0.0153 -0.0079,0.02483 -0.01223,0.04081 -0.0258,0.09629 -0.04187,0.177807 -0.04839,0.244858 -0.01182,0.06563 -0.01157,0.128949 8.43e-4,0.189605 0.0085,0.05387 0.03073,0.111163 0.06597,0.172205 0.03133,0.05426 0.07634,0.120736 0.135466,0.199643 0.207642,0.273496 0.439936,0.487904 0.696591,0.642672 0.252737,0.147987 0.539443,0.265058 0.86039,0.351056 0.208614,0.05589 0.425023,0.09355 0.649018,0.11344 0.223998,0.01989 0.444225,0.02181 0.660774,0.0053 0.08206,-0.0067 0.160801,-0.02317 0.236458,-0.04876 0.07709,-0.03094 0.154682,-0.05306 0.23282,-0.06652 0.01214,-0.0025 0.02717,-0.0042 0.04466,-0.0052 0.01749,-10e-4 0.02677,-0.0043 0.0282,-0.0097 0.09209,-0.04413 0.170732,-0.09163 0.236074,-0.142921 0.06677,-0.05664 0.139777,-0.114492 0.218683,-0.173613 l 0.02068,-0.07718 c -0.0789,0.05912 -0.151908,0.116975 -0.218683,0.173614 -0.06534,0.0513 -0.144091,0.09919 -0.236178,0.143312 -0.0015,0.0054 -0.01072,0.0086 -0.0282,0.0097 -0.0175,10e-4 -0.03253,0.0028 -0.04466,0.0052 -0.07813,0.01346 -0.155732,0.03559 -0.23282,0.06653 -0.07566,0.02559 -0.154298,0.04168 -0.236351,0.04836 -0.21655,0.01651 -0.436883,0.01497 -0.66088,-0.0049 -0.223998,-0.01989 -0.440301,-0.05793 -0.648915,-0.113827 -0.320946,-0.086 -0.607654,-0.203067 -0.86039,-0.351054 -0.256654,-0.154769 -0.489055,-0.368786 -0.696695,-0.642283 -0.05912,-0.0789 -0.104139,-0.145383 -0.135466,-0.199642 -0.03524,-0.06104 -0.05737,-0.118721 -0.06587,-0.172597 -0.01242,-0.06066 -0.01281,-0.123591 -9.47e-4,-0.189213 0.0056,-0.05792 0.01999,-0.129148 0.04002,-0.208891 z m 1.228982,2.629991 c -0.288853,-0.0774 -0.603152,-0.112948 -0.943115,-0.106578 -0.338529,0.001 -0.661843,0.05197 -0.969812,0.152911 -0.313321,0.09951 -0.58912,0.252103 -0.827655,0.457645 -0.238536,0.205543 -0.401397,0.471566 -0.488826,0.797861 -0.0029,0.01086 -0.0045,0.02168 -0.007,0.03255 0.09008,-0.30586 0.247793,-0.557584 0.475291,-0.753616 0.238536,-0.205542 0.514335,-0.358138 0.827655,-0.457644 0.307971,-0.100937 0.631284,-0.15189 0.969813,-0.152912 0.339963,-0.0063 0.654263,0.02918 0.943114,0.106578 0.588401,0.157662 1.111047,0.389704 1.567997,0.695605 0.458384,0.300551 0.832263,0.724557 1.121265,1.272114 0.03983,0.108134 0.04442,0.241196 0.01355,0.399186 -0.02727,0.141462 -0.05412,0.258656 -0.08075,0.360902 0.0045,-0.01583 0.01009,-0.03278 0.01423,-0.04826 0.02867,-0.106982 0.05768,-0.236787 0.08713,-0.389425 0.03086,-0.15799 0.02637,-0.291445 -0.01345,-0.399578 -0.289002,-0.547556 -0.662881,-0.971563 -1.121265,-1.272113 -0.45695,-0.305901 -0.979701,-0.537552 -1.568102,-0.695213 z m -2.362004,1.598505 c -0.0043,0.0153 -0.0079,0.02483 -0.01223,0.04081 -0.0258,0.09629 -0.04187,0.177807 -0.04839,0.244858 -0.01182,0.06563 -0.01157,0.12895 8.42e-4,0.189605 0.0085,0.05388 0.03073,0.111164 0.06597,0.172204 0.03133,0.05426 0.07634,0.120738 0.135466,0.199643 0.20764,0.273497 0.439936,0.487907 0.696589,0.642674 0.252737,0.147986 0.539549,0.264665 0.860496,0.350663 0.208614,0.05589 0.424917,0.09394 0.648914,0.113826 0.223998,0.01989 0.44433,0.02143 0.66088,0.0049 0.08206,-0.0067 0.160697,-0.02278 0.236352,-0.04836 0.07709,-0.03094 0.154682,-0.05306 0.232819,-0.06652 0.01214,-0.0025 0.02718,-0.0042 0.04466,-0.0052 0.0175,-10e-4 0.02677,-0.0043 0.0282,-0.0097 0.0921,-0.04413 0.170732,-0.09163 0.236073,-0.14292 0.06677,-0.05664 0.139778,-0.114494 0.218684,-0.173615 l 0.02068,-0.07718 c -0.0789,0.05912 -0.151908,0.116975 -0.218683,0.173615 -0.06534,0.05129 -0.14409,0.09919 -0.236177,0.143311 -0.0015,0.0054 -0.01073,0.0086 -0.0282,0.0097 -0.0175,10e-4 -0.03253,0.0028 -0.04466,0.0052 -0.07813,0.01346 -0.155733,0.03559 -0.23282,0.06652 -0.07566,0.02559 -0.154299,0.04168 -0.236353,0.04836 -0.216549,0.01651 -0.436882,0.01497 -0.660879,-0.0049 -0.223997,-0.01989 -0.4403,-0.05793 -0.648915,-0.113826 -0.320946,-0.086 -0.607653,-0.203068 -0.86039,-0.351055 -0.256654,-0.154767 -0.489055,-0.368784 -0.696695,-0.642281 -0.05912,-0.0789 -0.104139,-0.145384 -0.135466,-0.199644 -0.03524,-0.06104 -0.05737,-0.118721 -0.06587,-0.172596 -0.01241,-0.06066 -0.01281,-0.123591 -9.48e-4,-0.189213 0.0056,-0.05793 0.01999,-0.129147 0.04001,-0.208891 z" />
    <path
       id="text21"
       style="font-style:normal;font-variant:normal;font-weight:normal;font-stretch:normal;font-size:10.5833px;line-height:1.25;font-family:'Another Typewriter';-inkscape-font-specification:'Another Typewriter, Normal';font-variant-ligatures:normal;font-variant-caps:normal;font-variant-numeric:normal;font-variant-east-asian:normal;display:inline;opacity:0.6;fill:#ffffff;fill-opacity:1;stroke:none;stroke-width:0.264584"
       d="m 32.29661,54.131001 c -0.267454,-0.07166 -0.499956,-0.07071 -0.69731,0.0025 -0.197353,0.07325 -0.398326,0.182643 -0.603615,0.328295 l -0.02058,0.07679 c 0.205289,-0.145653 0.406262,-0.255048 0.603616,-0.328297 0.197354,-0.07325 0.429855,-0.0742 0.69731,-0.0025 0.224662,0.0602 0.420559,0.152936 0.587711,0.277991 0.161802,0.123621 0.28719,0.297882 0.376102,0.522366 0.02703,0.0703 0.03775,0.14751 0.0323,0.232047 -0.0041,0.07919 0.0103,0.154676 0.04263,0.226417 l 0.02058,-0.07679 c -0.03237,-0.07174 -0.04665,-0.147229 -0.04263,-0.226417 0.0054,-0.08454 -0.0052,-0.162133 -0.0322,-0.232439 -0.08891,-0.224485 -0.214404,-0.398355 -0.376207,-0.521975 -0.167151,-0.125054 -0.363048,-0.217792 -0.587711,-0.27799 z m -3.178164,0.05122 -0.02068,0.07718 c 0.05884,0.01577 0.102799,0.03332 0.132035,0.0526 0.02388,0.01786 0.0464,0.04115 0.06741,0.06971 0.01709,0.02178 0.0354,0.04926 0.05498,0.08317 0.01567,0.02713 0.03845,0.05932 0.06873,0.0961 0.0093,0.0082 0.02718,0.02718 0.05354,0.05718 0.02245,0.02322 0.04966,0.05042 0.08137,0.08185 0.03171,0.03143 0.0613,0.0597 0.0891,0.08433 0.02245,0.02322 0.03567,0.03826 0.03958,0.04504 0.06055,0.07356 0.117354,0.160442 0.170742,0.260744 0.05339,0.100302 0.110191,0.198689 0.170361,0.295074 0.0616,0.09103 0.128084,0.174767 0.199337,0.25119 0.07125,0.07643 0.154876,0.127581 0.251159,0.15338 0.12303,0.03297 0.213948,0.02549 0.272507,-0.02188 0.05999,-0.05273 0.105784,-0.137784 0.137316,-0.255465 0.0033,-0.01239 0.0044,-0.02266 0.0072,-0.03461 -0.03065,0.09528 -0.07163,0.167336 -0.123911,0.213285 -0.05856,0.04737 -0.149371,0.05446 -0.2724,0.02149 -0.09629,-0.0258 -0.179908,-0.07696 -0.25116,-0.153379 -0.07126,-0.07642 -0.137733,-0.160151 -0.199336,-0.251189 -0.06017,-0.09639 -0.116975,-0.194772 -0.170362,-0.295075 -0.05339,-0.100302 -0.110187,-0.187187 -0.170742,-0.260745 -0.004,-0.0069 -0.01713,-0.02182 -0.03958,-0.04503 -0.0278,-0.02465 -0.05749,-0.05252 -0.0892,-0.08395 -0.03171,-0.03143 -0.05892,-0.05864 -0.08137,-0.08185 -0.02636,-0.02999 -0.04418,-0.04935 -0.05344,-0.05757 -0.03028,-0.03678 -0.05317,-0.06857 -0.06883,-0.0957 -0.01958,-0.03391 -0.03777,-0.06178 -0.05486,-0.08356 -0.02101,-0.02857 -0.04352,-0.05185 -0.06741,-0.06971 -0.02923,-0.0193 -0.07319,-0.03684 -0.132036,-0.0526 z m -0.974046,0.392805 -0.02058,0.07679 c -0.01118,0.105934 -0.02412,0.197132 -0.03884,0.273451 l 0.02058,-0.07679 c 0.01469,-0.07633 0.02765,-0.167519 0.03884,-0.273451 z m 5.801105,1.554401 c -0.02544,0.07344 -0.06794,0.136389 -0.127932,0.189114 -0.05321,0.04881 -0.100437,0.107817 -0.141899,0.176971 -0.0015,0.0054 -0.0086,0.02067 -0.02114,0.04598 -0.01255,0.02531 -0.02574,0.05319 -0.03969,0.08385 l -0.04189,0.09207 c -0.01786,0.02388 -0.02755,0.03854 -0.02898,0.04388 -0.06219,0.103735 -0.146305,0.20461 -0.252723,0.302224 -0.111769,0.09618 -0.230846,0.17577 -0.356845,0.239471 -0.131347,0.06227 -0.266229,0.106628 -0.405024,0.132502 -0.138796,0.02587 -0.269649,0.02223 -0.392678,-0.01073 -0.112332,-0.0301 -0.213875,-0.0688 -0.304426,-0.116 -0.09447,-0.05398 -0.172062,-0.117683 -0.232617,-0.19124 -0.0659,-0.07498 -0.10882,-0.160821 -0.12868,-0.257873 -0.02212,-0.08639 -0.02056,-0.183054 0.0021,-0.288337 -0.0037,0.01089 -0.0078,0.02119 -0.01089,0.03278 -0.03297,0.123029 -0.03699,0.233866 -0.0118,0.332348 0.01986,0.09705 0.06278,0.182881 0.128681,0.257873 0.06055,0.07356 0.138046,0.137654 0.232512,0.191633 0.09055,0.0472 0.192094,0.0859 0.304425,0.115999 0.12303,0.03297 0.253988,0.03622 0.392783,0.0103 0.138796,-0.02587 0.273572,-0.06984 0.40492,-0.13211 0.125998,-0.06371 0.24518,-0.143683 0.356949,-0.239864 0.106421,-0.09762 0.190529,-0.198492 0.252723,-0.302224 0.0015,-0.0054 0.01103,-0.01961 0.02887,-0.04349 l 0.04189,-0.09207 c 0.01398,-0.03065 0.02717,-0.05853 0.03969,-0.08384 0.01254,-0.0253 0.0197,-0.04064 0.02114,-0.04598 0.04146,-0.06916 0.08868,-0.128166 0.1419,-0.176972 0.06,-0.05272 0.102622,-0.11605 0.128036,-0.189505 z m -6.051331,-0.611149 c -0.0059,0.01862 -0.0123,0.03648 -0.01757,0.05617 -0.0215,0.08024 -0.02332,0.151413 -0.0055,0.213503 0.01919,0.05674 0.05127,0.108674 0.09617,0.155102 0.03954,0.04499 0.08859,0.08647 0.14705,0.125064 0.05311,0.03716 0.109523,0.07262 0.169413,0.105858 0.02531,0.01254 0.06536,0.03474 0.119897,0.06656 0.05454,0.03182 0.114213,0.06506 0.179453,0.09973 0.05989,0.03325 0.117181,0.06543 0.171721,0.09724 0.05598,0.02646 0.09381,0.04544 0.113768,0.05652 0.0054,0.0015 0.01292,0.0061 0.02219,0.01435 l 0.02389,0.0064 c 0.106981,0.02867 0.20919,0.02197 0.306626,-0.02072 0.09352,-0.04947 0.155512,-0.130612 0.185611,-0.242943 0.0036,-0.01361 0.0041,-0.02561 0.0066,-0.03856 -0.03322,0.0919 -0.08937,0.16088 -0.171481,0.204318 -0.09744,0.04269 -0.19975,0.04978 -0.306732,0.02111 l -0.02389,-0.0065 c -0.0093,-0.0082 -0.01684,-0.01291 -0.02219,-0.01434 -0.01995,-0.01112 -0.0578,-0.03005 -0.113769,-0.05652 -0.05454,-0.03182 -0.111727,-0.06439 -0.171618,-0.09763 -0.06523,-0.03468 -0.12491,-0.06792 -0.179452,-0.09973 -0.05454,-0.03182 -0.09458,-0.05404 -0.119895,-0.06657 -0.05989,-0.03325 -0.116411,-0.0683 -0.169516,-0.105471 -0.05846,-0.03859 -0.107405,-0.08045 -0.146946,-0.125456 -0.0449,-0.04643 -0.07708,-0.09797 -0.09628,-0.15471 -0.01616,-0.05647 -0.01377,-0.121412 0.0026,-0.192892 z m 2.046472,2.238488 c -0.0642,-0.0172 -0.129237,-0.03195 -0.194857,-0.0438 -0.07098,-0.01325 -0.139939,-0.02335 -0.206994,-0.02986 -0.06563,-0.01182 -0.122528,-0.0125 -0.171053,-0.0026 l -0.741677,0.136777 c -0.01214,0.0025 -0.04144,0.01454 -0.0875,0.03661 -0.04604,0.02206 -0.08178,0.03816 -0.107467,0.04848 l -0.07114,0.0414 c -0.03391,0.01958 -0.06859,0.0417 -0.103932,0.06663 -0.03926,0.01815 -0.07615,0.03701 -0.110063,0.05659 l -0.07104,0.04102 c -0.06611,0.09695 -0.109796,0.185659 -0.131296,0.265895 -0.02688,0.07879 -0.0555,0.174208 -0.08559,0.286538 -0.0035,0.0131 -0.0053,0.0238 -0.0085,0.03635 0.02542,-0.09226 0.05052,-0.178507 0.07351,-0.246108 0.0215,-0.08024 0.06518,-0.168947 0.131296,-0.265895 l 0.07104,-0.04102 c 0.03391,-0.01958 0.07081,-0.03845 0.110063,-0.05659 0.03535,-0.02493 0.07003,-0.04705 0.103932,-0.06663 l 0.07104,-0.04102 c 0.02569,-0.0103 0.06152,-0.0268 0.10757,-0.04886 0.04604,-0.02206 0.07536,-0.03412 0.08749,-0.03661 l 0.741679,-0.136777 c 0.04852,-0.0099 0.105322,-0.0088 0.170946,0.003 0.06705,0.0066 0.136128,0.01618 0.207101,0.02946 0.06563,0.01182 0.130668,0.02661 0.194856,0.0438 l 0.152403,0.04084 0.08032,0.02152 c 0.03745,0.01 0.07681,0.02326 0.118177,0.04007 l 0.120276,0.03223 0.07248,0.01942 c 0.04384,0.02895 0.08349,0.05108 0.119505,0.06645 0.03744,0.01 0.07422,0.02298 0.110237,0.03835 0.03209,0.0086 0.06898,0.02117 0.110341,0.03797 0.04279,0.01146 0.09211,0.03045 0.148099,0.0569 0.234592,0.10872 0.441496,0.256164 0.621061,0.441873 0.180998,0.180361 0.326898,0.385365 0.437206,0.615583 0.01174,0.02035 0.02525,0.0558 0.04053,0.105759 0.01136,0.04318 0.01529,0.06989 0.01242,0.08059 l 0.02058,-0.07679 c 0.0029,-0.01069 -9.54e-4,-0.0378 -0.01232,-0.08098 -0.01528,-0.04995 -0.02888,-0.08502 -0.04063,-0.105368 -0.110308,-0.230217 -0.256103,-0.435613 -0.437101,-0.615973 -0.179565,-0.185711 -0.386575,-0.332759 -0.621166,-0.441483 -0.05598,-0.02646 -0.105306,-0.04544 -0.148099,-0.0569 -0.04135,-0.01685 -0.07815,-0.02975 -0.110237,-0.03836 -0.036,-0.01542 -0.07289,-0.02793 -0.11034,-0.03797 -0.036,-0.01542 -0.07566,-0.03751 -0.119505,-0.06645 l -0.07248,-0.01942 -0.120277,-0.03223 c -0.04135,-0.01685 -0.08073,-0.03003 -0.118176,-0.04007 l -0.08028,-0.02151 z m 2.871596,2.147586 c -0.02778,0.09854 -0.06043,0.202784 -0.100343,0.31492 -0.0451,0.125512 -0.103049,0.236063 -0.174509,0.33158 -0.142917,0.191031 -0.345051,0.346116 -0.606314,0.465304 -0.259828,0.11384 -0.53735,0.196973 -0.832422,0.249772 -0.30042,0.05137 -0.596135,0.07521 -0.887572,0.07165 -0.290004,-0.0089 -0.536776,-0.04053 -0.740042,-0.095 -0.213964,-0.05733 -0.432752,-0.138959 -0.656646,-0.244814 -0.223896,-0.105854 -0.432733,-0.20473 -0.625965,-0.296639 -0.115863,-0.05971 -0.215196,-0.138074 -0.298195,-0.234848 -0.08691,-0.103558 -0.175239,-0.201549 -0.265021,-0.294404 -0.113662,-0.110721 -0.21836,-0.233439 -0.314157,-0.368037 -0.09971,-0.14138 -0.181233,-0.286219 -0.244552,-0.435048 -0.06188,-0.154177 -0.102871,-0.311576 -0.123016,-0.471768 -0.01744,-0.154434 -0.0064,-0.308988 0.03102,-0.463666 -0.0043,0.01458 -0.0094,0.02862 -0.01335,0.04345 -0.04443,0.165823 -0.05698,0.331457 -0.03827,0.496998 0.02014,0.160192 0.06114,0.317591 0.123017,0.471768 0.06332,0.148828 0.144734,0.294059 0.244446,0.43544 0.0958,0.134598 0.2006,0.256925 0.314262,0.367645 0.08978,0.09285 0.177999,0.191243 0.264915,0.294796 0.083,0.09676 0.182438,0.174745 0.298301,0.234456 0.193232,0.09191 0.401965,0.191173 0.625859,0.297031 0.223895,0.105854 0.442789,0.187088 0.656753,0.24442 0.203265,0.05447 0.449933,0.08648 0.739937,0.09539 0.291437,0.0035 0.587256,-0.02068 0.887676,-0.07204 0.295072,-0.0528 0.572594,-0.135932 0.832423,-0.249772 0.261263,-0.119189 0.463397,-0.274273 0.606313,-0.465304 0.07146,-0.09552 0.129413,-0.206068 0.174509,-0.331579 0.04653,-0.130861 0.08485,-0.252423 0.114953,-0.364754 0.002,-0.0074 0.004,-0.01934 0.0059,-0.02696 z m -4.004618,2.080909 c -0.0642,-0.0172 -0.129238,-0.03195 -0.194855,-0.04382 -0.07098,-0.01325 -0.139939,-0.02335 -0.206994,-0.02985 -0.06564,-0.01182 -0.122525,-0.01251 -0.171053,-0.0026 l -0.741678,0.136777 c -0.01214,0.0025 -0.04144,0.01454 -0.08749,0.03661 -0.04604,0.02206 -0.08178,0.03816 -0.107465,0.04847 l -0.07114,0.0414 c -0.03391,0.01958 -0.0686,0.0417 -0.103932,0.06663 -0.03926,0.01815 -0.07615,0.03701 -0.110063,0.05659 l -0.07104,0.04102 c -0.06611,0.09695 -0.109796,0.185658 -0.131295,0.265895 -0.02688,0.07879 -0.0555,0.174207 -0.08559,0.286538 -0.0034,0.01296 -0.0052,0.02354 -0.0084,0.03596 0.02541,-0.09223 0.05041,-0.17813 0.07339,-0.245717 0.0215,-0.08024 0.06518,-0.168946 0.131296,-0.265895 l 0.07104,-0.04102 c 0.03391,-0.01958 0.07081,-0.03845 0.110063,-0.05659 0.03535,-0.02492 0.07003,-0.04705 0.103933,-0.06663 l 0.07104,-0.04102 c 0.02569,-0.0103 0.06152,-0.0268 0.107571,-0.04886 0.04604,-0.02206 0.07536,-0.03412 0.08749,-0.03661 l 0.741677,-0.136775 c 0.04852,-0.0099 0.105322,-0.0088 0.170946,0.003 0.06706,0.0066 0.136129,0.01618 0.207101,0.02946 0.06563,0.01182 0.130666,0.02662 0.194855,0.04382 l 0.152403,0.04084 0.08032,0.02152 c 0.03744,0.01 0.07681,0.02326 0.118179,0.04006 l 0.120276,0.03223 0.07248,0.01942 c 0.04384,0.02895 0.08349,0.05108 0.119505,0.06645 0.03745,0.01 0.07422,0.02298 0.110236,0.03835 0.03209,0.0086 0.06898,0.02116 0.110343,0.03796 0.04279,0.01146 0.09213,0.03045 0.148099,0.0569 0.234593,0.10872 0.441496,0.256164 0.621061,0.441874 0.180999,0.18036 0.326899,0.385363 0.437206,0.615582 0.01176,0.02035 0.02525,0.0558 0.04053,0.105759 0.01136,0.04318 0.01529,0.0699 0.01242,0.08059 l 0.02058,-0.07679 c 0.0029,-0.01069 -9.54e-4,-0.0378 -0.01232,-0.08098 -0.01528,-0.04995 -0.02888,-0.08502 -0.04063,-0.105368 -0.110308,-0.230216 -0.256103,-0.435612 -0.437101,-0.615973 -0.179565,-0.18571 -0.386575,-0.332758 -0.621167,-0.441483 -0.05598,-0.02646 -0.105305,-0.04544 -0.148099,-0.0569 -0.04135,-0.01685 -0.07814,-0.02975 -0.110236,-0.03835 -0.036,-0.01542 -0.07289,-0.02793 -0.110341,-0.03797 -0.036,-0.01542 -0.07566,-0.03751 -0.119505,-0.06645 l -0.07248,-0.01942 -0.120277,-0.03223 c -0.04135,-0.01685 -0.08073,-0.03002 -0.118178,-0.04006 l -0.08028,-0.02151 z m 2.871596,2.147586 c -0.02779,0.09854 -0.06032,0.202394 -0.100239,0.31453 -0.0451,0.125511 -0.103163,0.236454 -0.174613,0.33197 -0.142918,0.191032 -0.345052,0.346115 -0.606315,0.465305 -0.259829,0.11384 -0.53735,0.196972 -0.832422,0.249771 -0.30042,0.05137 -0.596135,0.07521 -0.887572,0.07165 -0.290004,-0.0089 -0.536777,-0.04053 -0.740042,-0.095 -0.213964,-0.05733 -0.432752,-0.13896 -0.656647,-0.244814 -0.223895,-0.105854 -0.432731,-0.20473 -0.625964,-0.296639 -0.115862,-0.05971 -0.215197,-0.138074 -0.298196,-0.234847 -0.08691,-0.103558 -0.175238,-0.20155 -0.265021,-0.294405 -0.113661,-0.110721 -0.218359,-0.233438 -0.314155,-0.368037 -0.09971,-0.141381 -0.18113,-0.286612 -0.244447,-0.43544 -0.06189,-0.154177 -0.102976,-0.311184 -0.123122,-0.471376 -0.01745,-0.154433 -0.0064,-0.308988 0.03102,-0.463667 -0.0043,0.01458 -0.0094,0.02862 -0.01335,0.04345 -0.04443,0.165822 -0.05698,0.331456 -0.03827,0.496997 0.02014,0.160192 0.06114,0.317591 0.123016,0.471768 0.06332,0.148828 0.14484,0.293668 0.244552,0.435048 0.0958,0.134598 0.200495,0.257317 0.314157,0.368037 0.08979,0.09285 0.177999,0.191243 0.264915,0.294796 0.083,0.09677 0.182438,0.174745 0.298301,0.234456 0.193232,0.09191 0.401965,0.191174 0.62586,0.297031 0.223894,0.105854 0.442788,0.187088 0.656752,0.24442 0.203265,0.05447 0.449933,0.08648 0.739937,0.09539 0.291437,0.0035 0.587256,-0.02068 0.887676,-0.07204 0.295072,-0.05279 0.572594,-0.135932 0.832423,-0.249772 0.261263,-0.119189 0.463397,-0.274272 0.606313,-0.465304 0.07146,-0.09552 0.129413,-0.206067 0.17451,-0.331579 0.04653,-0.130862 0.08485,-0.252423 0.114953,-0.364753 0.002,-0.0074 0.004,-0.01934 0.0059,-0.02696 z" />
    <path
       style="color:#000000;display:inline;opacity:0.24;fill:#000000;stroke-width:1.27407;-inkscape-stroke:none;filter:url(#filter48)"
       d="m 3.873864,26.089282 c -9.29002,1.228743 -20.674506,5.003222 -23.191702,15.237843 1.279766,6.54434 11.939706,16.651301 -1.0828,17.625371 -4.553296,2.045169 -11.679622,4.712859 -11.173372,10.780964 7.133839,-5.964439 15.447154,-14.007018 25.612242,-11.494796 8.378104,5.797306 17.001408,11.346222 26.776132,14.496101 17.259551,6.348299 35.8063,7.083699 53.973631,7.787475 15.987147,1.234878 32.287315,2.628248 48.108545,-0.812485 -7.72706,-4.252547 -16.52716,2.03447 -24.778092,-0.325992 C 77.618322,78.703554 57.07288,77.562591 36.740552,74.853795 21.39885,71.810914 6.92127,64.990026 -5.612463,55.69275 c 16.276085,-4.058568 33.286154,-3.312384 49.679816,-6.585206 11.415418,0.253828 18.854284,12.913735 30.662604,11.241155 9.336497,-7.012485 21.695169,-4.514039 32.098303,-1.82136 26.42992,3.762349 52.55321,-6.135176 78.99957,-3.245702 9.06173,-6.777562 -6.17927,-14.859752 -12.86461,-15.155017 -17.3194,-2.658105 -33.27076,10.243866 -50.56482,5.890574 C 112.19849,43.407192 101.51819,45.17683 92.052906,49.511592 82.593922,53.142482 72.637081,48.373147 63.600933,45.536454 49.875543,40.170121 35.908665,35.496851 22.236568,29.992215 16.318454,27.923017 10.167502,26.319684 3.873864,26.089282 Z m 0.191406,2.332031 c 19.123634,1.661652 35.776047,12.228497 53.921617,17.539779 8.374796,2.962488 16.84342,5.680511 25.453383,7.87819 -8.52398,7.545012 -21.35036,2.87439 -28.766761,-3.958681 C 41.578315,42.837368 27.272034,51.435667 13.574378,50.201519 4.228406,50.979118 -8.888056,56.782418 -15.45408,47.129673 -19.758184,36.804519 -7.907041,29.489106 1.073323,28.974135 2.067797,28.774836 3.065875,28.594033 4.06527,28.421313 Z m 161.94922,13.826172 c 6.39604,0.219421 19.94299,1.107986 18.56088,9.973282 -14.55639,0.289081 -29.16626,0.59767 -43.50675,3.355982 -15.48236,1.922677 -31.47165,2.379197 -46.648523,-1.773008 2.146777,-7.510229 14.070213,-6.550367 20.565163,-6.129503 12.41984,2.152932 25.54183,2.079212 37.30005,-2.916311 4.47586,-1.280165 9.04994,-2.415741 13.72918,-2.510442 z"
       id="path47"
       clip-path="url(#clipPath48)"
       transform="matrix(0.75814306,0.20314382,-0.20314382,0.75814306,12.179509,11.514814)"
       inkscape:label="random-tex" />
    <path
       id="path50"
       style="display:inline;opacity:0.04;mix-blend-mode:overlay;fill:url(#linearGradient51);stroke:none;stroke-width:0.0384519;stroke-linecap:round;stroke-linejoin:round;paint-order:fill markers stroke;filter:url(#filter52)"
       d="M 21.122412,44.51166 A 24.367643,24.367643 0 0 0 3.6196765,67.892582 24.367643,24.367643 0 0 0 27.987774,92.260131 24.367643,24.367643 0 0 0 50.263667,77.718047 l 7.27327,1.16e-4 -0.0079,-1.99609 2.14441,-3.992668 2.144762,-1.04e-4 2.144116,3.992728 2.144762,-1.04e-4 2.144762,-1.05e-4 2.144404,-1.996069 2.144622,1.995995 2.144896,3.96e-4 2.14441,-3.992668 2.144762,-1.05e-4 2.144616,3.992594 2.144262,3e-5 2.144762,-1.04e-4 2.144411,-3.992668 2.144762,-1.04e-4 2.144397,5.28e-4 4.289378,3.992491 2.144762,-1.04e-4 2.144257,3e-5 2.14491,-3.992802 2.14462,3.992594 2.14426,3.1e-5 2.14476,-1.04e-4 2.14455,-3.99217 4.28938,3.99249 2.14426,3e-5 2.14476,-1.996702 2.14477,1.996493 2.14426,3e-5 2.14476,-1.05e-4 9.57831,-7.70779 -1.8e-4,-4.063765 -6.78309,-5.883712 -78.673107,-4.99e-4 A 24.367643,24.367643 0 0 0 27.987859,43.524849 24.367643,24.367643 0 0 0 21.122412,44.51166 Z m -7.591456,15.667906 a 7.9852265,7.9852265 0 0 1 2.066477,-0.272304 7.9852265,7.9852265 0 0 1 7.985466,7.985058 7.9852265,7.9852265 0 0 1 -7.985057,7.985467 7.9852265,7.9852265 0 0 1 -7.9854676,-7.985059 7.9852265,7.9852265 0 0 1 5.9185816,-7.713162 z"
       transform="matrix(1.0048156,0.26923954,-0.26923954,1.0048156,16.043804,-17.423596)"
       inkscape:label="noise" />
    <path
       id="path52"
       style="display:inline;opacity:0.1;mix-blend-mode:overlay;fill:#838383;fill-opacity:1;stroke-width:0.0384519;stroke-linecap:round;stroke-linejoin:round;paint-order:fill markers stroke;filter:url(#filter54)"
       d="m 59.210681,70.755415 74.139699,10e-7 v 4.064007 l -2.43396,1.958682 -71.70574,-10e-7 c 0,0 -7.985227,-0.166622 -7.985226,-3.011344 0,-2.844723 7.985227,-3.011345 7.985227,-3.011345 z"
       sodipodi:nodetypes="ccccczc"
       transform="matrix(1.0048156,0.26923954,-0.26923954,1.0048156,20.263139,-23.622352)" />
  </g>
</svg>
