<?xml version="1.0" encoding="UTF-8" standalone="no"?>
<!-- Created with Inkscape (http://www.inkscape.org/) -->

<svg
   width="512"
   height="512"
   viewBox="0 0 135.46666 135.46667"
   version="1.1"
   id="svg5"
   inkscape:version="1.3.2 (091e20ef0f, 2023-11-25, custom)"
   sodipodi:docname="dialog-question.svg"
   xmlns:inkscape="http://www.inkscape.org/namespaces/inkscape"
   xmlns:sodipodi="http://sodipodi.sourceforge.net/DTD/sodipodi-0.dtd"
   xmlns="http://www.w3.org/2000/svg"
   xmlns:svg="http://www.w3.org/2000/svg">
  <sodipodi:namedview
     id="namedview7"
     pagecolor="#292929"
     bordercolor="#666666"
     borderopacity="1"
     inkscape:showpageshadow="0"
     inkscape:pageopacity="0"
     inkscape:pagecheckerboard="1"
     inkscape:deskcolor="#1a1a1a"
     inkscape:document-units="px"
     showgrid="false"
     inkscape:zoom="0.92187498"
     inkscape:cx="294.50848"
     inkscape:cy="165.96611"
     inkscape:window-width="3256"
     inkscape:window-height="1080"
     inkscape:window-x="1864"
     inkscape:window-y="0"
     inkscape:window-maximized="1"
     inkscape:current-layer="layer1" />
  <defs
     id="defs2">
    <inkscape:path-effect
       effect="fillet_chamfer"
       id="path-effect5"
       is_visible="true"
       lpeversion="1"
       nodesatellites_param="F,0,0,1,0,0,0,1 @ F,0,0,1,0,0,0,1 @ F,0,0,1,0,0,0,1 @ F,0,0,1,0,0,0,1 @ F,0,0,1,0,0,0,1 @ F,0,0,1,0,0,0,1 @ F,0,0,1,0,0,0,1 @ F,0,0,1,0,0,0,1 @ F,0,0,1,0,0,0,1 @ F,0,0,1,0,0,0,1 @ F,0,0,1,0,0,0,1 @ F,0,0,1,0,0,0,1"
       radius="0"
       unit="px"
       method="auto"
       mode="F"
       chamfer_steps="1"
       flexible="false"
       use_knot_distance="true"
       apply_no_radius="true"
       apply_with_radius="true"
       only_selected="false"
       hide_knots="false" />
    <inkscape:path-effect
       effect="fillet_chamfer"
       id="path-effect3"
       is_visible="true"
       lpeversion="1"
       nodesatellites_param="F,0,0,1,0,2,0,1 @ F,0,0,1,0,2,0,1 @ F,0,0,1,0,2,0,1 @ F,0,0,1,0,2,0,1 @ F,0,0,1,0,2,0,1 @ F,0,0,1,0,2,0,1 @ F,0,0,1,0,2,0,1 @ F,0,0,1,0,2,0,1 @ F,0,0,1,0,2,0,1 @ F,0,0,1,0,2,0,1 @ F,0,0,1,0,2,0,1 @ F,0,0,1,0,2,0,1"
       radius="2"
       unit="px"
       method="auto"
       mode="F"
       chamfer_steps="1"
       flexible="false"
       use_knot_distance="true"
       apply_no_radius="true"
       apply_with_radius="true"
       only_selected="false"
       hide_knots="false" />
    <inkscape:path-effect
       effect="fillet_chamfer"
       id="path-effect1"
       is_visible="true"
       lpeversion="1"
       nodesatellites_param="F,0,0,1,0,7,0,1 @ F,0,0,1,0,7,0,1 @ F,0,0,1,0,7,0,1 @ F,0,0,1,0,7,0,1 @ F,0,0,1,0,7,0,1 @ F,0,0,1,0,7,0,1 @ F,0,0,1,0,7,0,1 @ F,0,0,1,0,7,0,1 @ F,0,0,1,0,7,0,1 @ F,0,0,1,0,7,0,1 @ F,0,0,1,0,7,0,1 @ F,0,0,1,0,7,0,1"
       radius="7"
       unit="px"
       method="auto"
       mode="F"
       chamfer_steps="1"
       flexible="false"
       use_knot_distance="true"
       apply_no_radius="true"
       apply_with_radius="true"
       only_selected="false"
       hide_knots="false" />
  </defs>
  <g
     inkscape:label="Layer 1"
     inkscape:groupmode="layer"
     id="layer1">
    <path
       sodipodi:type="star"
       style="fill:#000080;stroke:none;stroke-width:3.60242;stroke-linecap:square;paint-order:markers stroke fill"
       id="path1"
       inkscape:flatsided="false"
       sodipodi:sides="6"
       sodipodi:cx="0"
       sodipodi:cy="0"
       sodipodi:r1="76.851646"
       sodipodi:r2="66.553528"
       sodipodi:arg1="0.52359878"
       sodipodi:arg2="1.0471976"
       inkscape:rounded="0"
       inkscape:randomized="0"
       d="M 60.493122,41.925516 39.339117,54.137355 a 137918.11,137918.11 150 0 0 -12.124356,7 L 6.0619999,73.351339 a 12.122935,12.122935 2.519753e-7 0 1 -12.1240004,0 L -27.214767,61.137352 a 137918.11,137918.11 30 0 0 -12.124355,-7 L -60.493123,41.925515 a 12.122935,12.122935 60 0 1 -6.062,-10.499692 l 0.0012,-24.4258263 a 137918.11,137918.11 90 0 0 0,-13.9999999 l -0.0012,-24.4258208 a 12.122935,12.122935 120 0 1 6.062001,-10.499692 l 21.154005,-12.211839 a 137918.11,137918.11 150 0 0 12.124356,-7 l 21.1527611,-12.213984 a 12.122935,12.122935 2.5197531e-7 0 1 12.1240004,0 l 21.1527665,12.213987 a 137918.11,137918.11 30 0 0 12.124355,7 l 21.154001,12.211837 a 12.122935,12.122935 60 0 1 6.062,10.499692 l -0.0012,24.4258263 a 137918.11,137918.11 90 0 0 0,13.9999999 l 0.0012,24.4258208 a 12.122935,12.122935 120 0 1 -6.062001,10.499692 z"
       transform="matrix(0.88135173,0,0,0.88135173,67.733332,67.733332)"
       inkscape:path-effect="#path-effect1" />
    <g
       id="g12"
       style="display:inline;opacity:1">
      <path
         id="path3"
         style="display:inline;fill:#0066ff;stroke:none;stroke-width:3.17499;stroke-linecap:square;stroke-dasharray:none;stroke-opacity:1;paint-order:fill markers stroke"
         d="M 67.733332,6.8791666 41.198518,22.200712 14.662154,37.52019 41.198518,52.839151 67.733332,68.160697 94.268147,52.839151 120.80451,37.52019 94.268147,22.200712 Z" />
      <path
         id="path5"
         style="fill:#0044aa;stroke:none;stroke-width:3.17499;stroke-linecap:square;stroke-dasharray:none;stroke-opacity:1;paint-order:fill markers stroke"
         d="M 67.733332,68.160697 14.662154,37.52019 15.021027,98.141094 67.733332,128.5875 Z"
         sodipodi:nodetypes="ccccc" />
      <path
         id="path6"
         style="fill:#0055d4;stroke:none;stroke-width:3.17499;stroke-linecap:square;stroke-dasharray:none;stroke-opacity:1;paint-order:fill markers stroke"
         d="M 67.732558,68.159404 120.80374,37.518898 120.44486,98.139801 67.732558,128.58621 Z"
         sodipodi:nodetypes="ccccc" />
    </g>
    <path
       sodipodi:type="star"
       style="display:inline;fill:none;stroke:#ffffff;stroke-width:3.98168;stroke-linecap:square;stroke-dasharray:none;stroke-opacity:1;paint-order:fill markers stroke"
       id="path2"
       inkscape:flatsided="false"
       sodipodi:sides="6"
       sodipodi:cx="0"
       sodipodi:cy="0"
       sodipodi:r1="76.851646"
       sodipodi:r2="66.553528"
       sodipodi:arg1="0.52359878"
       sodipodi:arg2="1.0471976"
       inkscape:rounded="0"
       inkscape:randomized="0"
       d="M 64.823376,39.425736 35.008863,56.637135 a 39405.175,39405.175 150 0 0 -3.464102,2 L 1.7319997,75.851559 a 3.4636956,3.4636956 2.5197514e-7 0 1 -3.4640001,0 L -31.544767,58.637132 a 39405.175,39405.175 30 0 0 -3.464101,-2 L -64.823377,39.425735 a 3.4636956,3.4636956 60 0 1 -1.732,-2.999912 l 0.0017,-34.4258263 a 39405.175,39405.175 90 0 0 0,-3.9999999 l -0.0017,-34.4258208 a 3.4636956,3.4636956 120 0 1 1.732,-2.999912 l 29.814513,-17.211399 a 39405.175,39405.175 150 0 0 3.464102,-2 l 29.8127613,-17.214424 a 3.4636956,3.4636956 2.5197491e-7 0 1 3.4640001,0 l 29.8127666,17.214427 a 39405.175,39405.175 30 0 0 3.464101,2 l 29.814509,17.211397 a 3.4636956,3.4636956 60 0 1 1.732,2.999912 l -0.0017,34.4258263 a 39405.175,39405.175 90 0 0 0,3.9999999 l 0.0017,34.4258208 a 3.4636956,3.4636956 120 0 1 -1.732,2.999912 z"
       transform="matrix(0.79740042,0,0,0.79740042,67.733332,67.733332)"
       inkscape:path-effect="#path-effect3" />
    <path
       style="display:none;fill:none;stroke:#ffffff;stroke-width:10.5833;stroke-linecap:round;stroke-linejoin:miter;stroke-dasharray:none;stroke-opacity:1"
       d="m 53.631348,48.119069 c -5.427241,-8.683004 0.495442,-23.424422 15.10323,-23.298162 12.872482,0.111281 17.678561,12.700099 15.276567,20.994399 -2.401994,8.2943 -6.569758,11.52293 -11.479381,16.991992 -4.437585,4.842371 -5.669111,11.905838 -4.86625,20.573706"
       id="path4"
       sodipodi:nodetypes="cszcc"
       sodipodi:insensitive="true" />
    <g
       id="g11"
       transform="translate(0,-2.766815)">
      <circle
         style="fill:#ffffff;fill-opacity:1;stroke:#000000;stroke-width:3.175;stroke-linecap:square;stroke-linejoin:miter;stroke-dasharray:none;stroke-opacity:1;paint-order:markers stroke fill"
         id="path9"
         cx="67.73333"
         cy="109.51216"
         r="6.1389623" />
      <path
         style="color:#000000;fill:#ffffff;stroke:#000000;stroke-width:3.175;stroke-linecap:round;stroke-dasharray:none;stroke-opacity:1;paint-order:markers stroke fill"
         d="M 68.78125,25.350134 C 50.60148,25.193 41.373446,44.311761 49.144531,56.744665 a 5.2916498,5.2916498 0 0 0 7.291016,1.681641 5.2916498,5.2916498 0 0 0 1.683594,-7.291016 c -3.083386,-4.933087 -0.465464,-15.296558 10.570312,-15.201172 4.717109,0.04078 7.159713,1.992971 8.869141,4.851563 1.709427,2.858591 2.108856,6.824603 1.36914,9.378906 -2.043271,7.055599 -5.111391,9.12008 -10.296875,14.888672 -5.839837,6.372534 -7.107419,15.211132 -6.234375,24.636719 a 5.2916498,5.2916498 0 0 0 5.757813,4.78125 5.2916498,5.2916498 0 0 0 4.78125,-5.757813 C 72.202871,80.803283 73.39827,75.515848 76.433594,72.203649 l 0.01758,-0.01953 0.01758,-0.02148 c 4.606728,-5.131653 9.870132,-9.541881 12.625,-19.054688 C 90.756026,47.367958 89.953807,40.891245 86.642578,35.35404 83.331349,29.816836 76.93661,25.420636 68.78125,25.350134 Z"
         id="path10" />
    </g>
  </g>
</svg>
