<?xml version="1.0" encoding="UTF-8" standalone="no"?>
<!-- Created with Inkscape (http://www.inkscape.org/) -->

<svg
   width="512"
   height="512"
   viewBox="0 0 135.46666 135.46667"
   version="1.1"
   id="svg5"
   inkscape:version="1.4.2 (ebf0e940d0, 2025-05-08)"
   sodipodi:docname="input-touchpad-off.svg"
   xmlns:inkscape="http://www.inkscape.org/namespaces/inkscape"
   xmlns:sodipodi="http://sodipodi.sourceforge.net/DTD/sodipodi-0.dtd"
   xmlns:xlink="http://www.w3.org/1999/xlink"
   xmlns="http://www.w3.org/2000/svg"
   xmlns:svg="http://www.w3.org/2000/svg">
  <sodipodi:namedview
     id="namedview7"
     pagecolor="#242424"
     bordercolor="#666666"
     borderopacity="1"
     inkscape:showpageshadow="0"
     inkscape:pageopacity="0"
     inkscape:pagecheckerboard="1"
     inkscape:deskcolor="#000000"
     inkscape:document-units="px"
     showgrid="false"
     inkscape:zoom="1.4142136"
     inkscape:cx="290.97443"
     inkscape:cy="306.53078"
     inkscape:window-width="3256"
     inkscape:window-height="1080"
     inkscape:window-x="1864"
     inkscape:window-y="0"
     inkscape:window-maximized="0"
     inkscape:current-layer="layer1" />
  <defs
     id="defs2">
    <linearGradient
       id="linearGradient17"
       inkscape:collect="always">
      <stop
         style="stop-color:#242424;stop-opacity:1;"
         offset="0"
         id="stop17" />
      <stop
         style="stop-color:#242424;stop-opacity:0;"
         offset="1"
         id="stop18" />
    </linearGradient>
    <linearGradient
       id="linearGradient15"
       inkscape:collect="always">
      <stop
         style="stop-color:#000000;stop-opacity:1;"
         offset="0"
         id="stop15" />
      <stop
         style="stop-color:#ffffff;stop-opacity:0.40000001;"
         offset="1"
         id="stop16" />
    </linearGradient>
    <linearGradient
       id="linearGradient13"
       inkscape:collect="always">
      <stop
         style="stop-color:#000000;stop-opacity:1;"
         offset="0"
         id="stop13" />
      <stop
         style="stop-color:#ffffff;stop-opacity:1;"
         offset="1"
         id="stop14" />
    </linearGradient>
    <linearGradient
       id="linearGradient10"
       inkscape:collect="always">
      <stop
         style="stop-color:#333333;stop-opacity:0;"
         offset="0"
         id="stop11" />
      <stop
         style="stop-color:#474747;stop-opacity:1;"
         offset="1"
         id="stop10" />
    </linearGradient>
    <linearGradient
       id="linearGradient7"
       inkscape:collect="always">
      <stop
         style="stop-color:#1a1a1a;stop-opacity:1;"
         offset="0"
         id="stop7" />
      <stop
         style="stop-color:#242424;stop-opacity:1;"
         offset="1"
         id="stop8" />
    </linearGradient>
    <linearGradient
       inkscape:collect="always"
       xlink:href="#linearGradient7"
       id="linearGradient8"
       x1="67.73333"
       y1="0"
       x2="67.73333"
       y2="135.46666"
       gradientUnits="userSpaceOnUse" />
    <linearGradient
       inkscape:collect="always"
       xlink:href="#linearGradient10"
       id="linearGradient11"
       x1="67.733109"
       y1="139.85561"
       x2="67.733109"
       y2="157.18854"
       gradientUnits="userSpaceOnUse"
       gradientTransform="translate(2.1979771e-4,-26.464063)" />
    <filter
       inkscape:collect="always"
       style="color-interpolation-filters:sRGB"
       id="filter11"
       x="-0.0077418536"
       y="-0.056763454"
       width="1.0154837"
       height="1.1135269">
      <feGaussianBlur
         inkscape:collect="always"
         stdDeviation="0.40994503"
         id="feGaussianBlur11" />
    </filter>
    <linearGradient
       inkscape:collect="always"
       xlink:href="#linearGradient13"
       id="linearGradient14"
       x1="220.45709"
       y1="95.570396"
       x2="220.45709"
       y2="-38.83794"
       gradientUnits="userSpaceOnUse"
       gradientTransform="translate(-152.72453,39.366589)" />
    <linearGradient
       inkscape:collect="always"
       xlink:href="#linearGradient15"
       id="linearGradient16"
       x1="67.73333"
       y1="1.6486142"
       x2="67.73333"
       y2="108.95686"
       gradientUnits="userSpaceOnUse" />
    <radialGradient
       inkscape:collect="always"
       xlink:href="#linearGradient17"
       id="radialGradient18"
       cx="217.61133"
       cy="26.491081"
       fx="217.61133"
       fy="26.491081"
       r="66.145828"
       gradientTransform="matrix(0.85399952,0,0,0.61714897,-118.10663,38.953791)"
       gradientUnits="userSpaceOnUse" />
  </defs>
  <g
     inkscape:label="Layer 1"
     inkscape:groupmode="layer"
     id="layer1">
    <rect
       style="opacity:1;fill:url(#linearGradient8);stroke-width:1.05833332;stroke-linecap:round;stroke-linejoin:round;stroke-miterlimit:12;paint-order:fill markers stroke;stroke:none;stroke-opacity:1;stroke-dasharray:none"
       id="rect1"
       width="135.46666"
       height="135.46666"
       x="0"
       y="0"
       ry="8.2331276" />
    <rect
       style="opacity:1;fill:#141414;fill-opacity:1;stroke:url(#linearGradient16);stroke-width:0.26458333;stroke-linecap:round;stroke-linejoin:round;stroke-miterlimit:12;paint-order:fill markers stroke;stroke-opacity:1;stroke-dasharray:none"
       id="rect7"
       width="132.29166"
       height="107.30824"
       x="1.5875043"
       y="1.6486142"
       ry="7.1210074" />
    <rect
       style="display:inline;opacity:1;fill:#ff0000;stroke:#000000;stroke-width:1.05833;stroke-linecap:round;stroke-linejoin:round;stroke-miterlimit:12;stroke-dasharray:none;stroke-opacity:1;paint-order:markers stroke fill"
       id="rect4"
       width="48.98328"
       height="19.379696"
       x="83.30838"
       y="112.36811"
       ry="2.8230262" />
    <rect
       style="display:inline;opacity:1;fill:#ff0000;stroke:#000000;stroke-width:1.05833;stroke-linecap:round;stroke-linejoin:round;stroke-miterlimit:12;stroke-dasharray:none;stroke-opacity:1;paint-order:markers stroke fill"
       id="rect5"
       width="49.578087"
       height="19.379696"
       x="3.175"
       y="112.36811"
       ry="2.8230262" />
    <rect
       style="display:inline;opacity:1;fill:#ff0000;stroke:#000000;stroke-width:1.05833;stroke-linecap:round;stroke-linejoin:round;stroke-miterlimit:12;stroke-dasharray:none;stroke-opacity:1;paint-order:markers stroke fill"
       id="rect6"
       width="21.412951"
       height="19.379696"
       x="57.026855"
       y="112.36811"
       ry="2.8230262" />
    <path
       id="rect8"
       style="display:inline;opacity:1;mix-blend-mode:multiply;fill:url(#linearGradient11);stroke:none;stroke-width:1.05833;stroke-linecap:round;stroke-linejoin:round;stroke-miterlimit:12;stroke-dasharray:none;stroke-opacity:1;paint-order:markers stroke fill;filter:url(#filter11)"
       d="m 75.507238,113.392 c -0.05334,-10e-4 -0.106274,-3.2e-4 -0.159163,0.003 -5.297706,0.0773 -10.605321,-0.0366 -15.902389,0.0667 -1.130375,0.24495 -1.548909,1.5265 -1.35909,2.54972 0.03092,4.45255 -0.06709,8.91237 0.05633,13.36042 0.262287,1.10963 1.531742,1.48248 2.536279,1.31207 5.131509,-0.033 10.270352,0.0717 15.396993,-0.06 1.099324,-0.26304 1.48532,-1.53085 1.304313,-2.53059 -0.03092,-4.4532 0.0671,-8.91328 -0.05633,-13.36198 -0.188355,-0.80815 -1.016822,-1.32328 -1.816943,-1.33945 z m -25.687321,0.001 c -0.05339,-0.001 -0.106725,-9e-4 -0.15968,0.002 -8.092776,0.0589 -16.190966,0.006 -24.285856,0.0238 -6.594173,0.016 -13.193269,-0.0288 -19.7843216,0.045 -1.128447,0.24439 -1.5439978,1.5267 -1.354956,2.54765 0.032147,4.45443 -0.070006,8.91655 0.057878,13.36611 0.2647576,1.1065 1.5324021,1.47561 2.534729,1.3069 14.4666316,-0.009 28.9352206,0.0273 43.4004506,-0.0269 1.136024,-0.15687 1.668421,-1.43958 1.467094,-2.46806 -0.03192,-4.48524 0.0687,-8.9779 -0.05839,-13.45861 -0.188029,-0.81269 -1.016048,-1.3171 -1.816944,-1.33791 z m 79.539333,0 c -0.0534,-0.001 -0.10673,-9e-4 -0.15968,0.002 -8.09382,0.059 -16.19303,0.006 -24.28896,0.0243 -6.395219,0.016 -12.795884,-0.0292 -19.187975,0.0444 -1.128447,0.24439 -1.543998,1.52722 -1.354956,2.54817 0.03091,4.45255 -0.06709,8.91185 0.05633,13.3599 0.262246,1.10786 1.531427,1.48529 2.53628,1.31259 14.268711,-0.009 28.539891,0.0272 42.807201,-0.0269 1.13216,-0.15442 1.67047,-1.43799 1.46503,-2.46445 -0.0315,-4.48653 0.0675,-8.97967 -0.0563,-13.46171 -0.18802,-0.81269 -1.01605,-1.31761 -1.81694,-1.33842 z" />
    <path
       id="path12"
       style="baseline-shift:baseline;display:inline;overflow:visible;vector-effect:none;fill:url(#linearGradient14);stroke-linecap:round;stroke-linejoin:round;stroke-miterlimit:12;paint-order:fill markers stroke;enable-background:accumulate;stop-color:#000000;opacity:0.2"
       d="M 8.2330925,0 C 3.6719325,0 2.4999999e-6,3.671937 2.4999999e-6,8.233089 V 127.23358 c 0,4.56115 3.6719300000001,8.23308 8.2330900000001,8.23308 H 127.23357 c 4.56115,0 8.23309,-3.67193 8.23309,-8.23308 V 8.233089 C 135.46666,3.671937 131.79472,0 127.23357,0 Z m -5.2e-4,0.52865 H 127.23254 c 4.27715,0 7.70495,3.427807 7.70495,7.704956 V 127.23358 c 0,4.27714 -3.4278,7.7034 -7.70495,7.7034 H 8.2325725 c -4.27715,0 -7.70341,-3.42626 -7.70341,-7.7034 V 8.233606 c 0,-4.277149 3.42626,-7.704956 7.70341,-7.704956 z" />
    <rect
       style="display:inline;opacity:0.4;fill:url(#radialGradient18);stroke:none;stroke-width:0.264583;stroke-linecap:round;stroke-linejoin:round;stroke-miterlimit:12;stroke-dasharray:none;stroke-opacity:1;paint-order:fill markers stroke"
       id="rect16"
       width="132.29166"
       height="107.30824"
       x="1.5875144"
       y="1.6486136"
       ry="7.1210074" />
    <rect
       style="display:inline;opacity:1;mix-blend-mode:soft-light;fill:#b3b3b3;stroke:none;stroke-width:1.05833;stroke-linecap:round;stroke-linejoin:round;stroke-miterlimit:12;stroke-dasharray:none;stroke-opacity:1;paint-order:fill markers stroke"
       id="rect9"
       width="135.46666"
       height="135.46666"
       x="2.7270507e-06"
       y="2.7270507e-06"
       ry="8.2331276"
       inkscape:label="midrange" />
    <rect
       style="opacity:1;fill:#ff0000;stroke-width:3.175;stroke-linecap:round;stroke-linejoin:round;stroke-miterlimit:12;paint-order:fill markers stroke"
       id="rect2"
       width="1.0147182"
       height="84.627502"
       x="128.6093"
       y="13.851794"
       ry="0.39843455" />
    <rect
       style="opacity:1;fill:#ff0000;stroke-width:3.175;stroke-linecap:round;stroke-linejoin:round;stroke-miterlimit:12;paint-order:fill markers stroke"
       id="rect3"
       width="1.0147182"
       height="84.627502"
       x="-104.75315"
       y="25.41958"
       ry="0.39843455"
       transform="rotate(-90)" />
  </g>
</svg>
