<?xml version="1.0" encoding="UTF-8" standalone="no"?>
<!-- Created with Inkscape (http://www.inkscape.org/) -->

<svg
   width="512"
   height="512"
   viewBox="0 0 135.46666 135.46667"
   version="1.1"
   id="svg5"
   inkscape:version="1.4.2 (ebf0e940d0, 2025-05-08)"
   sodipodi:docname="network-vpn.svg"
   xml:space="preserve"
   xmlns:inkscape="http://www.inkscape.org/namespaces/inkscape"
   xmlns:sodipodi="http://sodipodi.sourceforge.net/DTD/sodipodi-0.dtd"
   xmlns:xlink="http://www.w3.org/1999/xlink"
   xmlns="http://www.w3.org/2000/svg"
   xmlns:svg="http://www.w3.org/2000/svg"
   xmlns:rdf="http://www.w3.org/1999/02/22-rdf-syntax-ns#"
   xmlns:cc="http://creativecommons.org/ns#"
   xmlns:dc="http://purl.org/dc/elements/1.1/">&gt;
  <sodipodi:namedview
   id="namedview7"
   pagecolor="#505050"
   bordercolor="#ffffff"
   borderopacity="1"
   inkscape:showpageshadow="0"
   inkscape:pageopacity="0"
   inkscape:pagecheckerboard="1"
   inkscape:deskcolor="#505050"
   inkscape:document-units="mm"
   showgrid="false"
   inkscape:zoom="0.79296878"
   inkscape:cx="131.78325"
   inkscape:cy="262.93595"
   inkscape:window-width="3256"
   inkscape:window-height="1080"
   inkscape:window-x="1864"
   inkscape:window-y="0"
   inkscape:window-maximized="0"
   inkscape:current-layer="layer1" /><defs
   id="defs2"><linearGradient
     inkscape:collect="always"
     id="linearGradient34655"><stop
       style="stop-color:#a8ff00;stop-opacity:1;"
       offset="0"
       id="stop34653" /><stop
       style="stop-color:#00ff00;stop-opacity:1;"
       offset="1"
       id="stop34651" /></linearGradient><linearGradient
     inkscape:collect="always"
     id="linearGradient34645"><stop
       style="stop-color:#ffa800;stop-opacity:1;"
       offset="0"
       id="stop34643" /><stop
       style="stop-color:#ff6600;stop-opacity:1;"
       offset="1"
       id="stop34641" /></linearGradient><filter
     inkscape:collect="always"
     style="color-interpolation-filters:sRGB"
     id="filter11602"
     x="-0.068886947"
     y="-0.14832472"
     width="1.1377739"
     height="1.2966494"><feGaussianBlur
       inkscape:collect="always"
       stdDeviation="0.40666174"
       id="feGaussianBlur11604" /></filter><filter
     inkscape:collect="always"
     style="color-interpolation-filters:sRGB"
     id="filter12332"
     x="-0.068889958"
     y="-0.14831074"
     width="1.1377799"
     height="1.2966215"><feGaussianBlur
       inkscape:collect="always"
       stdDeviation="0.40662343"
       id="feGaussianBlur12334" /></filter><radialGradient
     inkscape:collect="always"
     xlink:href="#linearGradient34645"
     id="radialGradient34647"
     cx="9.2006025"
     cy="36.13533"
     fx="9.2006025"
     fy="36.13533"
     r="9.2006044"
     gradientTransform="matrix(1,0,0,0.58773657,0,14.897275)"
     gradientUnits="userSpaceOnUse" /><radialGradient
     inkscape:collect="always"
     xlink:href="#linearGradient34655"
     id="radialGradient34657"
     cx="126.26606"
     cy="36.135334"
     fx="126.26606"
     fy="36.135334"
     r="9.2006044"
     gradientTransform="matrix(1,0,0,0.58773657,0,14.897277)"
     gradientUnits="userSpaceOnUse" /><clipPath
     clipPathUnits="userSpaceOnUse"
     id="clipPath39873"><path
       id="path39875"
       style="opacity:0.6;fill:#ffffff;fill-opacity:1;stroke:none;stroke-width:0.162601;stroke-linecap:round;stroke-linejoin:round;paint-order:fill markers stroke"
       d="m -78.509908,26.877177 v 2.209686 c 0,1.918179 -0.647739,4.807974 -2.787943,4.807974 -3.89958,0.05473 -8.011444,0.07245 -10.945067,0.0801 h -15.159802 -0.002 c -0.007,0.597993 -0.002,1.196869 0.002,1.795756 v 4.020426 c -0.0196,0.953569 -0.0672,1.90564 -0.16123,2.855124 -0.19672,0.643162 -0.52575,1.239094 -0.97823,1.710489 -0.51288,0.449207 -1.15559,0.75312 -1.83865,0.919326 -1.89798,0.06939 -3.79779,0.09149 -5.69784,0.09922 h -4.84208 c -1.51729,-0.0054 -3.03456,-0.0092 -4.55115,0 V 97.55917 H -13.703008 V 45.375274 c -1.51659,-0.0092 -3.03386,-0.0054 -4.55115,0 h -4.84208 c -1.90005,-0.0077 -3.799859,-0.02983 -5.69784,-0.09922 -0.683061,-0.166203 -1.325771,-0.470117 -1.83865,-0.919324 -0.45248,-0.471395 -0.78151,-1.067326 -0.978231,-1.710489 -0.0941,-0.949484 -0.14161,-1.901555 -0.161229,-2.855124 V 35.77069 c 0.004,-0.598887 0.009,-1.197763 0.0021,-1.795756 h -0.0021 -15.159802 c -2.933626,-0.0076 -7.045489,-0.02537 -10.945069,-0.0801 -2.079276,0 -2.787944,-2.889795 -2.787944,-4.807974 v -2.209686 h -17.844905 z m -21.464323,10.549228 c 0.111509,8e-6 0.221618,0.006 0.330214,0.01704 1.628944,0.165555 2.900195,1.541153 2.900079,3.213757 -1.27e-4,1.672433 -1.271291,3.048235 -2.900079,3.213758 -0.107908,0.01098 -0.217364,0.01646 -0.328147,0.01654 -0.111506,8e-6 -0.221616,-0.0055 -0.330216,-0.01654 -1.62897,-0.165317 -2.90047,-1.54115 -2.90059,-3.213758 -1.2e-4,-1.672252 1.27014,-3.047699 2.89853,-3.213757 0.10861,-0.01103 0.21869,-0.01707 0.330209,-0.01704 z m 8.681641,0 c 0.111519,-8e-6 0.221604,0.006 0.330213,0.01704 5.29e-4,5.3e-5 0.0011,-5e-5 0.0016,0 0.108079,0.01101 0.214698,0.02716 0.31936,0.04858 1.472205,0.301177 2.57928,1.60392 2.579169,3.165181 -1.27e-4,1.672079 -1.270297,3.047733 -2.898529,3.213759 -0.108588,0.01106 -0.218715,0.01648 -0.330214,0.01654 -0.111495,-8e-6 -0.221625,-0.0055 -0.330213,-0.01654 -1.628788,-0.165524 -2.899952,-1.541325 -2.900079,-3.213759 -1.09e-4,-1.5611 1.107141,-2.863845 2.579169,-3.165181 0.105145,-0.02151 0.212315,-0.03754 0.32091,-0.04858 0.107953,-0.0109 0.21784,-0.01707 0.328663,-0.01704 z m 8.681125,0 c 0.111519,-8e-6 0.221604,0.006 0.330213,0.01704 0.325826,0.03307 0.637699,0.114075 0.927589,0.236678 1.159571,0.490413 1.973101,1.638858 1.973009,2.977079 -1.3e-4,1.672608 -1.271625,3.048441 -2.900598,3.213758 -0.107752,0.01093 -0.217014,0.01646 -0.327631,0.01654 -0.02879,0 -0.05666,-0.0034 -0.08527,-0.0041 -0.08306,-0.0021 -0.16614,-0.0046 -0.247528,-0.01291 -0.03012,-0.0031 -0.05902,-0.0095 -0.08888,-0.01344 -0.184631,-0.02413 -0.365524,-0.06076 -0.538985,-0.114723 -7.94e-4,-2.09e-4 -0.0013,-2.65e-4 -0.0021,-5.29e-4 -1.313815,-0.409663 -2.267452,-1.635871 -2.267564,-3.084566 -9.7e-5,-1.449591 0.954657,-2.676493 2.269631,-3.0856 0.10034,-0.03114 0.202692,-0.05771 0.306959,-0.07906 0.03002,-0.0062 0.06115,-0.0086 0.09147,-0.01394 0.07671,-0.01349 0.153037,-0.02716 0.23151,-0.03514 0.107926,-0.01093 0.217347,-0.01704 0.328144,-0.01704 z m 8.682156,0 c 0.111509,8e-6 0.222134,0.006 0.330729,0.01704 5.3e-4,5.3e-5 0.0011,-5e-5 0.0016,0 1.628209,0.166265 2.898129,1.54168 2.898013,3.213757 -1.27e-4,1.67191 -1.269963,3.047526 -2.898013,3.213758 -0.108408,0.01106 -0.2189,0.01646 -0.330213,0.01654 -0.111506,8e-6 -0.221615,-0.0055 -0.330211,-0.01654 -0.108598,-0.01103 -0.215765,-0.02758 -0.32091,-0.04909 -1.472073,-0.30112 -2.579571,-1.603563 -2.579688,-3.164666 -1.16e-4,-1.672778 1.271466,-3.048407 2.900598,-3.213756 0.10795,-0.0109 0.217321,-0.01707 0.328144,-0.01704 z m 8.681641,0 c 0.111519,-8e-6 0.221604,0.006 0.330213,0.01704 1.629132,0.165349 2.900714,1.540979 2.900598,3.213757 -1.19e-4,1.561099 -1.107617,2.863545 -2.579687,3.164665 -0.105149,0.02151 -0.212313,0.03807 -0.320911,0.04909 -0.107921,0.01095 -0.21735,0.01648 -0.328147,0.01654 -0.112022,-8e-6 -0.223194,-0.0054 -0.332277,-0.01654 -1.628052,-0.166233 -2.897888,-1.541852 -2.898015,-3.213759 -1.17e-4,-1.672077 1.269804,-3.047492 2.898015,-3.213756 0.108606,-0.01103 0.218694,-0.01707 0.330211,-0.01704 z m 8.68164,0 c 0.111509,8e-6 0.222134,0.006 0.33073,0.01704 0.07847,0.008 0.154802,0.02164 0.23151,0.03514 0.135557,0.02376 0.269251,0.05293 0.398426,0.09302 1.314973,0.40911 2.269728,1.636009 2.26963,3.0856 -1.11e-4,1.448697 -0.953749,2.674903 -2.267564,3.084568 -7.94e-4,2.09e-4 -0.0013,2.65e-4 -0.0021,5.29e-4 -0.173461,0.05396 -0.354354,0.09058 -0.538988,0.114721 -0.02987,0.0039 -0.05876,0.01037 -0.08888,0.01344 -0.08139,0.0083 -0.164465,0.01079 -0.247531,0.01291 -0.02774,7.93e-4 -0.05477,0.0041 -0.08268,0.0041 -0.111509,8e-6 -0.221615,-0.0055 -0.330213,-0.01654 -1.628971,-0.165314 -2.900469,-1.54115 -2.900598,-3.213756 -9.3e-5,-1.338223 0.813437,-2.486668 1.973005,-2.977081 0.289894,-0.122603 0.601769,-0.203607 0.927593,-0.236678 0.107775,-0.01087 0.216992,-0.01704 0.32763,-0.01704 z m 8.682157,0 c 0.111509,8e-6 0.221618,0.006 0.330213,0.01704 0.108596,0.01103 0.215765,0.02705 0.320911,0.04858 1.472028,0.301336 2.57928,1.604081 2.579171,3.165181 -1.27e-4,1.672434 -1.271291,3.048235 -2.900082,3.213759 -0.108077,0.01098 -0.217699,0.01646 -0.328663,0.01654 -0.112032,8e-6 -0.222665,-0.0054 -0.331761,-0.01654 -1.628235,-0.166026 -2.898404,-1.54168 -2.898531,-3.213759 -1.09e-4,-1.561261 1.106966,-2.864004 2.579169,-3.165181 0.209854,-0.04283 0.427064,-0.06564 0.649573,-0.06563 z m 8.681125,0 c 0.111519,-8e-6 0.22212,0.006 0.330729,0.01704 5.29e-4,5.3e-5 0.0011,-5e-5 0.0016,0 1.628389,0.166058 2.898648,1.541505 2.898529,3.213757 -1.29e-4,1.672608 -1.271619,3.048441 -2.900595,3.213758 -0.107921,0.01095 -0.21735,0.01648 -0.328147,0.01654 -0.111495,-8e-6 -0.221625,-0.0055 -0.33021,-0.01654 -1.628789,-0.165523 -2.899955,-1.541325 -2.900082,-3.213758 -1.17e-4,-1.672604 1.271135,-3.048202 2.900082,-3.213757 0.10795,-0.0109 0.217323,-0.01707 0.328144,-0.01704 z M -69.588488,52.40637 c 0.338081,0 0.67433,0.0084 1.008208,0.02532 7.93e-4,3.4e-5 0.0013,-3.5e-5 0.0021,0 0.333179,0.01693 0.664126,0.04259 0.992706,0.07596 7.94e-4,6.8e-5 0.0013,-6.9e-5 0.0021,0 0.328567,0.0334 0.654674,0.0751 0.978236,0.124539 0.324234,0.04954 0.646001,0.106847 0.964798,0.172082 8.926319,1.826633 15.640849,9.724777 15.640907,19.191076 -5.8e-5,9.466302 -6.714588,17.36393 -15.640907,19.19056 -0.318797,0.06524 -0.640564,0.123058 -0.964798,0.172601 -0.972037,0.148526 -1.967685,0.225713 -2.981214,0.225824 -0.338606,0 -0.67537,-0.0089 -1.009756,-0.02585 -0.333187,-0.01688 -0.66463,-0.04211 -0.993222,-0.07545 -7.93e-4,-7.1e-5 -0.0013,6.9e-5 -0.0021,0 -0.328576,-0.03337 -0.654662,-0.07513 -0.978234,-0.124542 -0.324233,-0.04954 -0.646004,-0.107363 -0.9648,-0.172598 -8.926317,-1.826631 -15.640847,-9.724258 -15.640905,-19.19056 5.8e-5,-9.466302 6.714588,-17.364443 15.640905,-19.191076 0.318796,-0.06524 0.640567,-0.122539 0.9648,-0.172085 0.972061,-0.148429 1.967669,-0.225819 2.981214,-0.225824 z"
       sodipodi:nodetypes="ssccccccccccccccccccccccccccsccscsscsccscscssscssscccscssccscscsccsccsscsscssscsssssscsscsssccsccssscssscssssssccscssscsscsscssscscsscssccsccscscsccscsccc" /></clipPath><filter
     inkscape:collect="always"
     style="color-interpolation-filters:sRGB"
     id="filter39877"
     x="-0.025462578"
     y="-0.039633892"
     width="1.0509252"
     height="1.0792678"><feGaussianBlur
       inkscape:collect="always"
       stdDeviation="1.1676857"
       id="feGaussianBlur39879" /></filter><linearGradient
     id="linearGradient28"
     inkscape:collect="always"><stop
       style="stop-color:#000000;stop-opacity:0;"
       offset="0"
       id="stop29" /><stop
       style="stop-color:#000000;stop-opacity:1;"
       offset="1"
       id="stop28" /></linearGradient><linearGradient
     inkscape:collect="always"
     id="linearGradient1284"><stop
       style="stop-color:#ffb600;stop-opacity:1;"
       offset="0"
       id="stop1280" /><stop
       style="stop-color:#ffff00;stop-opacity:1;"
       offset="0.49571416"
       id="stop1288" /><stop
       style="stop-color:#ffad00;stop-opacity:1;"
       offset="1"
       id="stop1282" /></linearGradient><linearGradient
     inkscape:collect="always"
     xlink:href="#linearGradient1284"
     id="linearGradient1286"
     x1="10.704506"
     y1="93.050919"
     x2="108.68611"
     y2="93.050919"
     gradientUnits="userSpaceOnUse"
     gradientTransform="matrix(1.0772775,0,0,1.0772775,3.5943827,8.6022251e-8)" /><clipPath
     clipPathUnits="userSpaceOnUse"
     id="clipPath2959"><path
       id="path2961"
       style="fill:url(#linearGradient2963);fill-opacity:1;stroke:#000000;stroke-width:0.264583;stroke-linecap:round;stroke-linejoin:round;paint-order:stroke fill markers"
       d="m -93.612334,1.616853 c 0,0 31.200222,-2.116667 46.824241,-2.116667 15.624021,0 46.824243,2.116667 46.824243,2.116667 1.12584,0.05089 2.03427,0.907284 2.03427,2.0342689 V 62.862258 c 0,1.12699 -0.90728,2.03427 -2.03427,2.03427 h -93.648484 c -1.126985,0 -2.03427,-0.90728 -2.03427,-2.03427 V 3.6511219 c 0,-1.1269849 0.907285,-2.0342689 2.03427,-2.0342689 z"
       sodipodi:nodetypes="szssssssss" /></clipPath><linearGradient
     inkscape:collect="always"
     xlink:href="#linearGradient1284"
     id="linearGradient2963"
     gradientUnits="userSpaceOnUse"
     gradientTransform="translate(-106.4834,-60.85256)"
     x1="10.704506"
     y1="93.050919"
     x2="108.68611"
     y2="93.050919" /><clipPath
     clipPathUnits="userSpaceOnUse"
     id="clipPath17075"><path
       id="path17077"
       style="fill:#ffff00;stroke:none;stroke-width:6.05745;stroke-linecap:round;stroke-linejoin:round;stroke-dasharray:none;stroke-opacity:1;paint-order:stroke fill markers"
       d="m -139.57909,-31.124334 a 39.6875,39.6875 0 0 0 -39.6875,39.6874999 39.6875,39.6875 0 0 0 0.0584,1.5564941 c -0.0367,0.153356 -0.0584,0.313085 -0.0584,0.478007 v 52.58542 c 0,1.12699 0.90752,2.0345 2.0345,2.0345 h 75.306 c 1.12699,0 2.034501,-0.90751 2.034501,-2.0345 v -52.58542 c 0,-0.164922 -0.0217,-0.324651 -0.0584,-0.478007 a 39.6875,39.6875 0 0 0 0.0584,-1.5564941 39.6875,39.6875 0 0 0 -39.687501,-39.6874999 z m 0.26097,9.527584 c 6.25233,0.08143 12.49179,2.098524 17.53691,5.806364 6.57475,4.808749 11.19146,12.5426291 12.12381,20.7232821 0.33668,16.8981519 0.1954,33.8030749 0.22583,50.7043979 -20.09504,0.01109 -40.19018,0.02249 -60.28521,0.03359 0.009,-13.795166 -0.0369,-27.590474 0.002,-41.385586 0.0357,-2.676625 -0.0209,-5.4579949 0.14883,-8.0656581 0.31252,-4.6985489 1.80427,-9.2939829 4.24056,-13.3180498 1.70071,-2.8130902 3.87059,-5.3475251 6.42959,-7.4827471 5.06261,-4.16874 11.67317,-6.80604 18.32808,-7.005774 0.41658,-0.01185 0.83323,-0.01525 1.25005,-0.0098 z" /></clipPath><filter
     inkscape:collect="always"
     style="color-interpolation-filters:sRGB"
     id="filter17825"
     x="-0.028153625"
     y="-0.050966521"
     width="1.0563229"
     height="1.0844243"><feGaussianBlur
       inkscape:collect="always"
       stdDeviation="0.65530376"
       id="feGaussianBlur17827" /></filter><clipPath
     clipPathUnits="userSpaceOnUse"
     id="clipPath20906"><path
       id="path20908"
       style="fill:url(#linearGradient20910);fill-opacity:1;stroke:#000000;stroke-width:0.264583;stroke-linecap:round;stroke-linejoin:round;paint-order:stroke fill markers"
       d="m -186.44641,40.250178 c 0,0 31.20022,-2.116666 46.82424,-2.116666 15.62402,0 46.824237,2.116666 46.824237,2.116666 1.125842,0.05089 2.034273,0.907283 2.034273,2.034268 v 59.211134 c 0,1.12699 -0.90728,2.03427 -2.034273,2.03427 h -93.648477 c -1.12699,0 -2.03427,-0.90728 -2.03427,-2.03427 V 42.284446 c 0,-1.126985 0.90728,-2.034268 2.03427,-2.034268 z"
       sodipodi:nodetypes="szssssssss" /></clipPath><linearGradient
     inkscape:collect="always"
     xlink:href="#linearGradient1284"
     id="linearGradient20910"
     gradientUnits="userSpaceOnUse"
     gradientTransform="translate(-199.31748,-22.219236)"
     x1="10.704506"
     y1="93.050919"
     x2="108.68611"
     y2="93.050919" /><filter
     inkscape:collect="always"
     style="color-interpolation-filters:sRGB"
     id="filter21638"
     x="-0.0082433078"
     y="-0.012317444"
     width="1.0164866"
     height="1.0246349"><feGaussianBlur
       inkscape:collect="always"
       stdDeviation="0.26098086"
       id="feGaussianBlur21640" /></filter><linearGradient
     inkscape:collect="always"
     xlink:href="#linearGradient1284"
     id="linearGradient26262"
     gradientUnits="userSpaceOnUse"
     gradientTransform="translate(-173.91467,-89.139177)"
     x1="10.704506"
     y1="93.050919"
     x2="108.68611"
     y2="93.050919" /><clipPath
     clipPathUnits="userSpaceOnUse"
     id="clipPath26258-9"><path
       id="path26260-2"
       style="fill:url(#linearGradient26262);fill-opacity:1;stroke:#000000;stroke-width:0.264583;stroke-linecap:round;stroke-linejoin:round;paint-order:stroke fill markers"
       d="m -161.0436,-26.669764 c 0,0 31.20022,-2.116667 46.82424,-2.116667 15.624022,0 46.824239,2.116667 46.824239,2.116667 1.125842,0.05089 2.03427,0.907285 2.03427,2.03427 v 59.211138 c 0,1.12699 -0.90728,2.03427 -2.03427,2.03427 H -161.0436 c -1.12698,0 -2.03427,-0.90728 -2.03427,-2.03427 v -59.211138 c 0,-1.126985 0.90729,-2.03427 2.03427,-2.03427 z"
       sodipodi:nodetypes="szssssssss" /></clipPath><clipPath
     clipPathUnits="userSpaceOnUse"
     id="clipPath20906-3"><path
       id="path20908-6"
       style="fill:url(#linearGradient20910);fill-opacity:1;stroke:#000000;stroke-width:0.264583;stroke-linecap:round;stroke-linejoin:round;paint-order:stroke fill markers"
       d="m -186.44641,40.250178 c 0,0 31.20022,-2.116666 46.82424,-2.116666 15.62402,0 46.824237,2.116666 46.824237,2.116666 1.125842,0.05089 2.034273,0.907283 2.034273,2.034268 v 59.211134 c 0,1.12699 -0.90728,2.03427 -2.034273,2.03427 h -93.648477 c -1.12699,0 -2.03427,-0.90728 -2.03427,-2.03427 V 42.284446 c 0,-1.126985 0.90728,-2.034268 2.03427,-2.034268 z"
       sodipodi:nodetypes="szssssssss" /></clipPath><clipPath
     clipPathUnits="userSpaceOnUse"
     id="clipPath32973"><path
       id="path32975"
       style="fill:url(#linearGradient32977);fill-opacity:1;stroke:#000000;stroke-width:0.264583;stroke-linecap:round;stroke-linejoin:round;paint-order:stroke fill markers"
       d="m -158.4074,97.544603 c 0,0 31.20022,-2.116669 46.82424,-2.116669 15.624022,0 46.824239,2.116669 46.824239,2.116669 1.125842,0.05089 2.03427,0.907283 2.03427,2.034268 v 59.211139 c 0,1.12699 -0.90728,2.03427 -2.03427,2.03427 H -158.4074 c -1.12698,0 -2.03427,-0.90728 -2.03427,-2.03427 V 99.578871 c 0,-1.126985 0.90729,-2.034268 2.03427,-2.034268 z"
       sodipodi:nodetypes="szssssssss" /></clipPath><linearGradient
     inkscape:collect="always"
     xlink:href="#linearGradient1284"
     id="linearGradient32977"
     gradientUnits="userSpaceOnUse"
     gradientTransform="translate(-171.27847,35.075188)"
     x1="10.704506"
     y1="93.050919"
     x2="108.68611"
     y2="93.050919" /><filter
     inkscape:collect="always"
     style="color-interpolation-filters:sRGB"
     id="filter36136"
     x="-0.037535766"
     y="-0.038311082"
     width="1.074796"
     height="1.0711462"><feGaussianBlur
       inkscape:collect="always"
       stdDeviation="0.93341447"
       id="feGaussianBlur36138" /></filter><clipPath
     clipPathUnits="userSpaceOnUse"
     id="clipPath20"><path
       id="path20"
       style="fill:#0000ff;fill-opacity:1;stroke:#000000;stroke-width:0.264584;stroke-linecap:round;stroke-linejoin:round;paint-order:stroke fill markers"
       d="m -161.0436,-26.669765 c 0,0 31.20022,-2.116665 46.82424,-2.116665 15.624021,0 46.824239,2.116665 46.824239,2.116665 1.125843,0.05089 2.03427,0.907287 2.03427,2.034271 v 59.211135 c 0,1.126989 -0.90728,2.034276 -2.03427,2.034276 H -161.0436 c -1.12698,0 -2.03428,-0.907287 -2.03428,-2.034276 v -59.211135 c 0,-1.126984 0.9073,-2.034271 2.03428,-2.034271 z"
       sodipodi:nodetypes="szssssssss" /></clipPath><filter
     inkscape:collect="always"
     style="color-interpolation-filters:sRGB"
     id="filter20"
     x="-0.073849975"
     y="-0.11070836"
     width="1.1476999"
     height="1.2214167"><feGaussianBlur
       inkscape:collect="always"
       stdDeviation="3.0240467"
       id="feGaussianBlur20" /></filter><filter
     style="color-interpolation-filters:sRGB;"
     inkscape:label="Noise Fill"
     id="filter25"
     x="-0.0013538211"
     y="-0.0020229165"
     width="1.0027076"
     height="1.0040458"><feTurbulence
       type="fractalNoise"
       baseFrequency="0.02 8"
       numOctaves="1"
       seed="9"
       result="turbulence"
       id="feTurbulence24" /><feComposite
       in="SourceGraphic"
       in2="turbulence"
       operator="in"
       result="composite1"
       id="feComposite24" /><feColorMatrix
       values="1 0 0 0 0 0 1 0 0 0 0 0 1 0 0 0 0 0 3.4 -1 "
       result="color"
       id="feColorMatrix24" /><feFlood
       flood-opacity="1"
       flood-color="rgb(0,0,0)"
       result="flood"
       id="feFlood24" /><feMerge
       result="merge"
       id="feMerge25"><feMergeNode
         in="flood"
         id="feMergeNode24" /><feMergeNode
         in="color"
         id="feMergeNode25" /></feMerge><feComposite
       in2="SourceGraphic"
       operator="in"
       result="composite2"
       id="feComposite25" /></filter><filter
     style="color-interpolation-filters:sRGB;"
     inkscape:label="Noise Fill"
     id="filter27"
     x="-0.0038689577"
     y="-0.0057811034"
     width="1.0077379"
     height="1.0115622"><feTurbulence
       type="fractalNoise"
       baseFrequency="0.02 8"
       numOctaves="1"
       seed="9"
       result="turbulence"
       id="feTurbulence25" /><feComposite
       in="SourceGraphic"
       in2="turbulence"
       operator="in"
       result="composite1"
       id="feComposite26" /><feColorMatrix
       values="1 0 0 0 0 0 1 0 0 0 0 0 1 0 0 0 0 0 3.4 -1 "
       result="color"
       id="feColorMatrix26" /><feFlood
       flood-opacity="1"
       flood-color="rgb(198,70,0)"
       result="flood"
       id="feFlood26" /><feMerge
       result="merge"
       id="feMerge27"><feMergeNode
         in="flood"
         id="feMergeNode26" /><feMergeNode
         in="color"
         id="feMergeNode27" /></feMerge><feComposite
       in2="SourceGraphic"
       operator="in"
       result="composite2"
       id="feComposite27" /><feGaussianBlur
       stdDeviation="0.089281792"
       id="feGaussianBlur27" /></filter><clipPath
     clipPathUnits="userSpaceOnUse"
     id="clipPath28"><path
       id="path28"
       style="fill:#ffff00;stroke:none;stroke-width:6.05745;stroke-linecap:round;stroke-linejoin:round;stroke-dasharray:none;stroke-opacity:1;paint-order:stroke fill markers"
       d="m -212.8129,52.337104 a 39.687501,39.687501 0 0 0 -39.6875,39.6875 39.687501,39.687501 0 0 0 0.0584,1.556496 c -0.0367,0.153355 -0.0584,0.313083 -0.0584,0.478008 v 52.585412 c 0,1.12699 0.90752,2.0345 2.0345,2.0345 h 75.306 c 1.12699,0 2.0345,-0.90751 2.0345,-2.0345 V 94.059108 c 0,-0.164925 -0.0217,-0.324653 -0.0584,-0.478008 a 39.687501,39.687501 0 0 0 0.0584,-1.556496 39.687501,39.687501 0 0 0 -39.6875,-39.6875 z m 0.26097,9.527585 c 6.25233,0.08143 12.49179,2.098524 17.53691,5.806363 6.57475,4.808749 11.19146,12.542632 12.12381,20.723283 0.33668,16.898145 0.1954,33.803075 0.22583,50.704395 -20.09504,0.0111 -40.19018,0.0225 -60.28521,0.0336 0.009,-13.79517 -0.0369,-27.59048 0.002,-41.385583 0.0357,-2.676623 -0.0209,-5.457994 0.14883,-8.065655 0.31252,-4.69855 1.80427,-9.293985 4.24056,-13.318051 1.70071,-2.81309 3.8706,-5.347525 6.42959,-7.482747 5.06261,-4.168741 11.67317,-6.806039 18.32808,-7.005773 0.41658,-0.01185 0.83323,-0.01524 1.25006,-0.0098 z" /></clipPath><filter
     inkscape:collect="always"
     style="color-interpolation-filters:sRGB"
     id="filter28"
     x="-0.039726859"
     y="-0.032176008"
     width="1.0794537"
     height="1.064352"><feGaussianBlur
       inkscape:collect="always"
       stdDeviation="1.1952989"
       id="feGaussianBlur28" /></filter><radialGradient
     inkscape:collect="always"
     xlink:href="#linearGradient28"
     id="radialGradient29"
     cx="-212.81073"
     cy="88.629662"
     fx="-212.81073"
     fy="88.629662"
     r="38.974232"
     gradientTransform="matrix(0.92639466,0,0,0.71669028,-15.664007,22.455988)"
     gradientUnits="userSpaceOnUse" /></defs><g
   inkscape:label="Layer 1"
   inkscape:groupmode="layer"
   id="layer1"><path
     id="path36885-6"
     style="color:#000000;display:none;opacity:1;fill:#ffffff;stroke-width:3.363;stroke-linecap:round;stroke-linejoin:round;paint-order:fill markers stroke;filter:url(#filter39877)"
     d="m -78.509908,26.877177 v 2.209685 c 0,1.918177 -0.647742,4.807975 -2.787943,4.807975 -3.899577,0.05473 -8.011446,0.07245 -10.945068,0.0801 h -15.159801 -0.002 c -0.007,0.597991 -0.002,1.196869 0.002,1.795756 v 4.020427 c -0.0196,0.953568 -0.0672,1.90564 -0.16123,2.855123 -0.19672,0.643162 -0.52575,1.239093 -0.97823,1.71049 -0.51288,0.449204 -1.15559,0.753119 -1.83865,0.919323 -52.05144,50.198328 62.136108,52.633724 96.677822,52.283114 V 45.375273 c -1.51659,-0.0092 -3.03386,-0.0054 -4.55115,0 h -4.84208 c -1.90005,-0.0077 -3.79986,-0.02983 -5.69784,-0.09922 -0.68306,-0.166204 -1.32577,-0.470119 -1.83865,-0.919323 -0.45248,-0.471397 -0.78151,-1.067328 -0.97823,-1.71049 -0.0941,-0.949483 -0.14161,-1.901555 -0.16123,-2.855123 V 35.77069 c 0.004,-0.598887 0.009,-1.197765 0.002,-1.795756 h -0.002 -15.159802 c -2.933623,-0.0076 -7.045492,-0.02537 -10.945068,-0.0801 -2.079276,0 -2.787944,-2.889798 -2.787944,-4.807975 V 26.877174 Z M -99.97423,37.426404 c 0.111506,9e-6 0.221616,0.006 0.330212,0.01705 1.628944,0.165555 2.900197,1.541154 2.900081,3.213757 -1.27e-4,1.672431 -1.271295,3.048233 -2.900081,3.213757 -0.107908,0.01097 -0.217363,0.01646 -0.328145,0.01654 -0.111507,8e-6 -0.221617,-0.0055 -0.330217,-0.01654 -1.62897,-0.165316 -2.90047,-1.541151 -2.90059,-3.213757 -1.2e-4,-1.67225 1.27014,-3.047699 2.89853,-3.213757 0.10861,-0.01102 0.21869,-0.01706 0.33021,-0.01705 z m 8.68164,0 c 0.111519,-8e-6 0.221604,0.006 0.330213,0.01705 5.08e-4,5.2e-5 9.5e-4,-5.1e-5 0.0016,0 0.108081,0.01102 0.214699,0.02716 0.31936,0.04857 1.472205,0.301178 2.57928,1.603923 2.579171,3.165182 -1.27e-4,1.672078 -1.270299,3.047731 -2.898531,3.213757 -0.108588,0.01107 -0.218714,0.01649 -0.330213,0.01654 -0.111495,-8e-6 -0.221626,-0.0055 -0.330212,-0.01654 -1.628788,-0.165522 -2.899954,-1.541324 -2.900081,-3.213757 -1.08e-4,-1.561098 1.107145,-2.863846 2.57917,-3.165182 0.105145,-0.02152 0.212315,-0.03754 0.320911,-0.04857 0.107952,-0.01089 0.217839,-0.01706 0.328662,-0.01705 z m 8.681124,0 c 0.111519,-8e-6 0.221603,0.006 0.330212,0.01705 0.325826,0.03307 0.637701,0.114075 0.927592,0.236678 1.15957,0.490411 1.9731,1.638858 1.973007,2.977079 -1.28e-4,1.672606 -1.271627,3.048441 -2.900599,3.213757 -0.107751,0.01093 -0.217012,0.01646 -0.327628,0.01654 -0.02879,-2e-6 -0.05666,-0.0034 -0.08527,-0.0041 -0.08306,-0.0021 -0.16614,-0.0046 -0.24753,-0.01292 -0.03012,-0.0031 -0.05902,-0.0095 -0.08888,-0.01344 -0.184632,-0.02414 -0.365525,-0.06076 -0.538985,-0.114722 -6.74e-4,-2.09e-4 -0.0014,-3.08e-4 -0.0021,-5.17e-4 -1.313814,-0.409663 -2.267451,-1.635872 -2.267562,-3.084566 -1e-4,-1.44959 0.954656,-2.676493 2.269629,-3.0856 0.100341,-0.03114 0.202691,-0.05772 0.306958,-0.07906 0.03002,-0.0062 0.06115,-0.0086 0.09147,-0.01395 0.07671,-0.01349 0.153039,-0.02716 0.231511,-0.03514 0.107926,-0.01092 0.217346,-0.01703 0.328145,-0.01705 z m 8.682157,0 c 0.111508,8e-6 0.222133,0.006 0.33073,0.01705 5.08e-4,5.2e-5 9.5e-4,-5.1e-5 0.0016,0 1.628207,0.166263 2.89813,1.54168 2.898014,3.213757 -1.27e-4,1.671906 -1.269965,3.047525 -2.898014,3.213757 -0.108407,0.01107 -0.218902,0.01646 -0.330213,0.01654 -0.111507,8e-6 -0.221614,-0.0055 -0.330212,-0.01654 -0.108598,-0.01102 -0.215764,-0.02758 -0.320911,-0.04909 -1.47207,-0.301121 -2.579568,-1.603567 -2.579687,-3.164665 -1.16e-4,-1.672777 1.271469,-3.04841 2.900598,-3.213757 0.107951,-0.01089 0.217323,-0.01706 0.328145,-0.01705 z m 8.681641,0 c 0.111519,-8e-6 0.221604,0.006 0.330212,0.01705 1.62913,0.165347 2.900714,1.54098 2.900598,3.213757 -1.19e-4,1.561098 -1.107616,2.863544 -2.579687,3.164665 -0.105148,0.02151 -0.212313,0.03807 -0.320911,0.04909 -0.10792,0.01095 -0.21735,0.01647 -0.328145,0.01654 -0.112023,-8e-6 -0.223196,-0.0054 -0.332279,-0.01654 -1.62805,-0.166232 -2.897887,-1.541851 -2.898015,-3.213757 -1.15e-4,-1.672077 1.269807,-3.047494 2.898015,-3.213757 0.108607,-0.01102 0.218694,-0.01706 0.330212,-0.01705 z m 8.681641,0 c 0.111506,8e-6 0.222132,0.006 0.330729,0.01705 0.07847,0.008 0.154802,0.02165 0.23151,0.03514 0.135557,0.02375 0.26925,0.05293 0.398425,0.09302 1.314972,0.409107 2.269728,1.63601 2.269629,3.0856 -1.11e-4,1.448694 -0.953749,2.674903 -2.267561,3.084566 -6.74e-4,2.09e-4 -0.0014,3.08e-4 -0.0021,5.17e-4 -0.17346,0.05396 -0.354352,0.09058 -0.538985,0.114722 -0.02987,0.0039 -0.05876,0.01037 -0.08888,0.01344 -0.08139,0.0083 -0.164466,0.01079 -0.24753,0.01292 -0.02774,7.28e-4 -0.05477,0.0041 -0.08268,0.0041 -0.111507,8e-6 -0.221614,-0.0055 -0.330212,-0.01654 -1.628971,-0.165316 -2.90047,-1.541151 -2.900598,-3.213757 -9.3e-5,-1.338221 0.813437,-2.486668 1.973006,-2.977079 0.289893,-0.122603 0.601766,-0.203609 0.927592,-0.236678 0.107774,-0.01087 0.216992,-0.01705 0.327629,-0.01705 z m 8.682157,0 c 0.111507,8e-6 0.221616,0.006 0.330212,0.01705 0.108596,0.01104 0.215766,0.02705 0.320911,0.04857 1.472026,0.301336 2.579279,1.604084 2.579171,3.165182 -1.28e-4,1.672433 -1.271294,3.048235 -2.900082,3.213757 -0.108077,0.01098 -0.2177,0.01647 -0.328662,0.01654 -0.112034,8e-6 -0.222667,-0.0054 -0.331762,-0.01654 -1.628234,-0.166026 -2.898404,-1.541679 -2.898532,-3.213757 -1.08e-4,-1.561259 1.106968,-2.864004 2.579171,-3.165182 0.209854,-0.04283 0.427063,-0.06564 0.649573,-0.06563 z m 8.681124,0 c 0.111519,-8e-6 0.22212,0.006 0.330729,0.01705 5.09e-4,5.2e-5 9.5e-4,-5.1e-5 0.0016,0 1.628389,0.166058 2.898649,1.541507 2.898529,3.213757 -1.3e-4,1.672606 -1.27162,3.048441 -2.900596,3.213757 -0.10792,0.01095 -0.21735,0.01647 -0.328145,0.01654 -0.111495,-8e-6 -0.221627,-0.0055 -0.330212,-0.01654 -1.628787,-0.165524 -2.899954,-1.541326 -2.900082,-3.213757 -1.15e-4,-1.672603 1.271137,-3.048202 2.900082,-3.213757 0.107949,-0.01089 0.217323,-0.01706 0.328145,-0.01705 z m -30.385742,14.979964 c 0.338081,2e-6 0.674331,0.0084 1.008207,0.02532 6.84e-4,3.4e-5 0.0014,-3.5e-5 0.0021,0 0.333178,0.01693 0.664125,0.04259 0.992704,0.07596 6.81e-4,6.9e-5 0.0014,-6.9e-5 0.0021,0 0.328567,0.0334 0.654674,0.0751 0.978235,0.12454 0.324234,0.04954 0.646002,0.106846 0.964799,0.172083 8.926309,1.826631 15.640848,9.724785 15.640906,19.191077 -5.7e-5,9.466293 -6.714597,17.363933 -15.640906,19.190563 -0.318797,0.0652 -0.640565,0.12305 -0.964799,0.1726 -0.972036,0.14852 -1.967685,0.22571 -2.981213,0.22582 -0.338606,0 -0.675371,-0.009 -1.009758,-0.02584 -0.333186,-0.0169 -0.66463,-0.04204 -0.993221,-0.07544 -6.83e-4,-7e-5 -0.0014,7e-5 -0.0021,0 -0.328576,-0.0334 -0.654663,-0.0751 -0.978235,-0.12454 -0.324232,-0.0495 -0.646002,-0.10736 -0.964799,-0.1726 -8.926308,-1.82663 -15.640848,-9.72427 -15.640905,-19.190563 5.7e-5,-9.466292 6.714597,-17.364446 15.640905,-19.191077 0.318797,-0.06524 0.640567,-0.122539 0.964799,-0.172083 0.97206,-0.148428 1.96767,-0.22582 2.981214,-0.225826 z"
     clip-path="url(#clipPath39873)"
     transform="translate(137.32079,5.5151595)"
     sodipodi:nodetypes="csccccccccccccccccccccccsccscssccscscsccssccsscccccsssccccscscccccccscsscccscccscsssccscsscsccsscsssscsscccsscssccscsscscssccsccccscscsscccccsccccsccc" /><g
     id="g18"
     transform="translate(0,-22.166605)"><path
       id="rect1222"
       style="fill:#ffffff;fill-opacity:1;stroke:none;stroke-width:0.2;stroke-linecap:round;stroke-linejoin:round;paint-order:fill markers stroke"
       d="m 51.399444,22.166605 v 8.032068 H 20.046836 v 12.93151 H -1.6666667e-6 V 113.30006 H 135.46667 V 43.130183 H 115.41983 V 30.198673 H 84.067218 v -8.032068 z m 2.561601,2.784326 h 28.073739 v 7.90236 H 112.96882 V 45.252018 H 132.7366 V 110.19121 H 2.7300642 V 45.252018 H 22.49785 V 32.853291 h 31.463195 z"
       sodipodi:nodetypes="cccccccccccccccccccccccccc" /><rect
       style="opacity:1;fill:url(#radialGradient34647);fill-opacity:1;stroke:none;stroke-width:0.2;stroke-linecap:round;stroke-linejoin:round;paint-order:fill markers stroke"
       id="rect1748"
       width="18.401209"
       height="10.815063"
       x="-1.6666667e-06"
       y="30.727798" /><path
       id="rect1748-35"
       style="opacity:0.26;fill:#ffcc00;fill-opacity:1;stroke:none;stroke-width:0.2;stroke-linecap:round;stroke-linejoin:round;paint-order:fill markers stroke;filter:url(#filter12332)"
       d="m 3.1759284,40.483703 c 4.7220052,0 9.4440106,0 14.1660156,0 0,-2.193359 0,-4.386718 0,-6.580078 -4.722005,0 -9.4440104,0 -14.1660156,0 0,2.19336 0,4.386719 0,6.580078 z" /><rect
       style="fill:url(#radialGradient34657);fill-opacity:1;stroke:none;stroke-width:0.2;stroke-linecap:round;stroke-linejoin:round;paint-order:fill markers stroke"
       id="rect1748-3"
       width="18.401209"
       height="10.815063"
       x="117.06545"
       y="30.727802" /><path
       id="rect1748-3-6"
       style="opacity:0.66;fill:#ffff00;fill-opacity:1;stroke:none;stroke-width:0.2;stroke-linecap:round;stroke-linejoin:round;paint-order:fill markers stroke;filter:url(#filter11602)"
       d="m 118.12373,38.367039 c 4.72266,0 9.44532,0 14.16797,0 0,-2.193359 0,-4.386718 0,-6.580078 -4.72265,0 -9.44531,0 -14.16797,0 0,2.19336 0,4.386719 0,6.580078 z" /><path
       id="path15358"
       style="opacity:0.6;fill:#ffffff;fill-opacity:1;stroke:none;stroke-width:0.162601;stroke-linecap:round;stroke-linejoin:round;paint-order:fill markers stroke"
       d="m 58.81088,32.392338 v 2.209684 c 0,1.918179 -0.64774,4.807976 -2.787943,4.807976 -3.899581,0.05473 -8.011443,0.07245 -10.945068,0.0801 H 29.91807 29.91597 c -0.0069,0.597991 -0.0022,1.196868 0.0021,1.795756 v 4.020426 c -0.01962,0.953569 -0.06716,1.905639 -0.16123,2.855123 -0.196725,0.643163 -0.525751,1.239093 -0.978235,1.71049 -0.512878,0.449205 -1.155586,0.753119 -1.838647,0.919324 -1.89798,0.06939 -3.797792,0.09149 -5.697844,0.09922 h -4.842081 c -1.517284,-0.0054 -3.034551,-0.0092 -4.551144,0 V 103.07433 H 123.61778 V 50.890434 c -1.51659,-0.0092 -3.03386,-0.0054 -4.55115,0 h -4.84208 c -1.90005,-0.0077 -3.79986,-0.02983 -5.69784,-0.09922 -0.68306,-0.166205 -1.32577,-0.470119 -1.83865,-0.919324 -0.45248,-0.471397 -0.78151,-1.067327 -0.97823,-1.71049 -0.0941,-0.949484 -0.14161,-1.901554 -0.16123,-2.855123 v -4.020426 c 0.004,-0.598888 0.009,-1.197765 0.002,-1.795756 h -0.002 -15.159802 c -2.933626,-0.0076 -7.045488,-0.02537 -10.945068,-0.0801 -2.079278,0 -2.787944,-2.889797 -2.787944,-4.807976 V 32.392335 H 58.81088 Z M 37.346558,42.941565 c 0.111507,9e-6 0.221616,0.006 0.330212,0.01705 1.628946,0.165556 2.900197,1.541153 2.900081,3.213757 -1.27e-4,1.672433 -1.271293,3.048234 -2.900081,3.213758 -0.107908,0.01097 -0.217362,0.01646 -0.328145,0.01654 -0.111507,8e-6 -0.221615,-0.0055 -0.330213,-0.01654 -1.628973,-0.165316 -2.90047,-1.54115 -2.900598,-3.213758 -1.16e-4,-1.672251 1.270139,-3.047698 2.898531,-3.213757 0.108609,-0.01102 0.218694,-0.01706 0.330213,-0.01705 z m 8.68164,0 c 0.111519,-8e-6 0.221604,0.006 0.330213,0.01705 5.08e-4,5.2e-5 0.001,-5.1e-5 0.0016,0 0.108081,0.01102 0.214699,0.02716 0.31936,0.04858 1.472206,0.301178 2.57928,1.603921 2.579171,3.165181 -1.27e-4,1.67208 -1.270297,3.047732 -2.898531,3.213758 -0.108588,0.01107 -0.218713,0.01649 -0.330212,0.01654 -0.111496,-8e-6 -0.221627,-0.0055 -0.330213,-0.01654 -1.62879,-0.165522 -2.899954,-1.541323 -2.900081,-3.213758 -1.08e-4,-1.561099 1.107143,-2.863845 2.57917,-3.165181 0.105145,-0.02152 0.212315,-0.03754 0.320911,-0.04858 0.107952,-0.01089 0.217839,-0.01706 0.328662,-0.01705 z m 8.681124,0 c 0.111519,-8e-6 0.221604,0.006 0.330213,0.01705 0.325826,0.03307 0.637699,0.114075 0.927591,0.236678 1.159571,0.490412 1.9731,1.638857 1.973007,2.977079 -1.28e-4,1.672608 -1.271625,3.048442 -2.900598,3.213758 -0.107751,0.01093 -0.217013,0.01646 -0.327629,0.01654 -0.02879,-2e-6 -0.05666,-0.0034 -0.08527,-0.0041 -0.08306,-0.0021 -0.16614,-0.0046 -0.24753,-0.01292 -0.03012,-0.0031 -0.05902,-0.0095 -0.08888,-0.01344 -0.184632,-0.02414 -0.365525,-0.06076 -0.538985,-0.114722 -6.74e-4,-2.09e-4 -0.0014,-3.07e-4 -0.0021,-5.16e-4 -1.313815,-0.409663 -2.267451,-1.635871 -2.267562,-3.084567 -1e-4,-1.449591 0.954655,-2.676492 2.269629,-3.085599 0.100341,-0.03114 0.202691,-0.05771 0.306958,-0.07906 0.03002,-0.0062 0.06115,-0.0086 0.09147,-0.01395 0.07671,-0.01349 0.153039,-0.02716 0.231511,-0.03514 0.107926,-0.01092 0.217346,-0.01703 0.328145,-0.01705 z m 8.682157,0 c 0.111508,8e-6 0.222133,0.006 0.33073,0.01705 5.08e-4,5.2e-5 10e-4,-5.1e-5 0.0016,0 1.628209,0.166264 2.89813,1.541679 2.898014,3.213757 -1.27e-4,1.671908 -1.269963,3.047526 -2.898014,3.213758 -0.108407,0.01107 -0.218901,0.01646 -0.330212,0.01654 -0.111508,8e-6 -0.221615,-0.0055 -0.330213,-0.01654 -0.108598,-0.01102 -0.215763,-0.02758 -0.32091,-0.04909 -1.472072,-0.301121 -2.579569,-1.603565 -2.579688,-3.164665 -1.16e-4,-1.672778 1.271467,-3.048409 2.900598,-3.213757 0.107951,-0.01089 0.217323,-0.01706 0.328145,-0.01705 z m 8.681641,0 c 0.111519,-8e-6 0.221604,0.006 0.330213,0.01705 1.629131,0.165348 2.900714,1.540979 2.900598,3.213757 -1.19e-4,1.5611 -1.107616,2.863544 -2.579688,3.164665 -0.105148,0.02151 -0.212312,0.03807 -0.32091,0.04909 -0.107921,0.01095 -0.217351,0.01647 -0.328146,0.01654 -0.112023,-8e-6 -0.223195,-0.0054 -0.332279,-0.01654 -1.628051,-0.166232 -2.897887,-1.54185 -2.898015,-3.213758 -1.15e-4,-1.672078 1.269806,-3.047493 2.898015,-3.213757 0.108608,-0.01102 0.218694,-0.01706 0.330212,-0.01705 z m 8.681641,0 c 0.111507,8e-6 0.222132,0.006 0.330729,0.01705 0.07847,0.008 0.154802,0.02165 0.23151,0.03514 0.135557,0.02375 0.26925,0.05293 0.398426,0.09302 1.314973,0.409107 2.269728,1.636008 2.269629,3.085599 -1.11e-4,1.448696 -0.953748,2.674904 -2.267562,3.084567 -6.74e-4,2.09e-4 -0.0014,3.07e-4 -0.0021,5.16e-4 -0.173461,0.05396 -0.354353,0.09058 -0.538986,0.114722 -0.02987,0.0039 -0.05876,0.01037 -0.08888,0.01344 -0.08139,0.0083 -0.164466,0.01079 -0.24753,0.01292 -0.02774,7.28e-4 -0.05477,0.0041 -0.08268,0.0041 -0.111508,8e-6 -0.221615,-0.0055 -0.330213,-0.01654 -1.628973,-0.165316 -2.90047,-1.54115 -2.900598,-3.213758 -9.3e-5,-1.338222 0.813436,-2.486667 1.973006,-2.977079 0.289893,-0.122603 0.601766,-0.203608 0.927592,-0.236678 0.107774,-0.01087 0.216992,-0.01705 0.327629,-0.01705 z m 8.682157,0 c 0.111507,8e-6 0.221616,0.006 0.330213,0.01705 0.108596,0.01104 0.215765,0.02705 0.32091,0.04858 1.472027,0.301336 2.579279,1.604082 2.579171,3.165181 -1.28e-4,1.672435 -1.271292,3.048236 -2.900081,3.213758 -0.108078,0.01098 -0.217701,0.01647 -0.328663,0.01654 -0.112034,8e-6 -0.222666,-0.0054 -0.331762,-0.01654 -1.628235,-0.166026 -2.898404,-1.541678 -2.898531,-3.213758 -1.09e-4,-1.56126 1.106965,-2.864003 2.57917,-3.165181 0.209854,-0.04283 0.427063,-0.06564 0.649573,-0.06563 z m 8.681124,0 c 0.111519,-8e-6 0.22212,0.006 0.330729,0.01705 5.09e-4,5.2e-5 0.001,-5.1e-5 0.0016,0 1.628389,0.166059 2.898649,1.541506 2.898529,3.213757 -1.3e-4,1.672608 -1.27162,3.048442 -2.900596,3.213758 -0.10792,0.01095 -0.21735,0.01647 -0.328145,0.01654 -0.111495,-8e-6 -0.221626,-0.0055 -0.330212,-0.01654 -1.628788,-0.165524 -2.899954,-1.541325 -2.900082,-3.213758 -1.15e-4,-1.672604 1.271136,-3.048201 2.900082,-3.213757 0.10795,-0.01089 0.217323,-0.01706 0.328145,-0.01705 z M 67.7323,57.921529 c 0.338082,2e-6 0.674331,0.0084 1.008207,0.02532 6.84e-4,3.4e-5 0.0014,-3.5e-5 0.0021,0 0.333178,0.01693 0.664124,0.04259 0.992704,0.07596 6.81e-4,6.9e-5 0.0014,-6.9e-5 0.0021,0 0.328567,0.0334 0.654674,0.0751 0.978235,0.12454 0.324234,0.04954 0.646002,0.106846 0.964799,0.172083 8.926318,1.826633 15.640848,9.724775 15.640906,19.191076 -5.7e-5,9.466301 -6.714588,17.363925 -15.640906,19.190555 -0.318797,0.0652 -0.640565,0.12306 -0.964799,0.1726 -0.972037,0.14853 -1.967684,0.22572 -2.981213,0.22583 -0.338606,0 -0.675371,-0.009 -1.009758,-0.0258 -0.333187,-0.0169 -0.66463,-0.0421 -0.993221,-0.0755 -6.83e-4,-7e-5 -0.0014,7e-5 -0.0021,0 -0.328577,-0.0334 -0.654663,-0.0751 -0.978235,-0.12454 -0.324233,-0.0495 -0.646002,-0.10736 -0.964799,-0.1726 -8.926317,-1.82663 -15.640848,-9.724254 -15.640905,-19.190559 5.7e-5,-9.466301 6.714588,-17.364443 15.640905,-19.191076 0.318797,-0.06524 0.640566,-0.122539 0.964799,-0.172083 0.972061,-0.148429 1.967669,-0.22582 2.981214,-0.225826 z"
       sodipodi:nodetypes="ssccccccccccccccccccccccccccsccscsscsccscscssscssscccscssccscscsccsccsscsscssscsssssscsscsssccsccssscssscssssssccscssscsscsscssscscsscssccsccscscsccscsccc" /><circle
       style="fill:#00ff00;fill-opacity:1;stroke:none;stroke-width:1.14553;stroke-linecap:round;stroke-linejoin:round;stroke-dasharray:none;stroke-opacity:1;paint-order:fill markers stroke"
       id="path44787"
       cx="-54.700775"
       cy="46.172375"
       r="3.2002921"
       transform="scale(-1,1)" /><circle
       style="fill:#0000ff;fill-opacity:1;stroke:none;stroke-width:1.14553;stroke-linecap:round;stroke-linejoin:round;stroke-dasharray:none;stroke-opacity:1;paint-order:fill markers stroke"
       id="path44787-9"
       cx="-72.065453"
       cy="46.172371"
       r="3.2002921"
       transform="scale(-1,1)" /><circle
       style="fill:#ff0000;fill-opacity:1;stroke:none;stroke-width:1.14553;stroke-linecap:round;stroke-linejoin:round;stroke-dasharray:none;stroke-opacity:1;paint-order:fill markers stroke"
       id="path44787-9-6"
       cx="-89.43013"
       cy="46.172371"
       r="3.2002921"
       transform="scale(-1,1)" /><circle
       style="fill:#502d16;fill-opacity:1;stroke:none;stroke-width:1.14553;stroke-linecap:round;stroke-linejoin:round;stroke-dasharray:none;stroke-opacity:1;paint-order:fill markers stroke"
       id="path44787-2"
       cx="-37.336098"
       cy="46.172375"
       r="3.2002921"
       transform="scale(-1,1)" /><g
       id="g53897"><path
         id="path44787-2-9"
         style="fill:#502d16;stroke-width:1.14553;stroke-linecap:round;stroke-linejoin:round;paint-order:fill markers stroke"
         d="m 43.755489,48.435324 c 1.249791,1.249791 3.276105,1.249791 4.525896,0 l -4.525896,-4.525897 c -1.249791,1.249792 -1.249791,3.276105 0,4.525897 z"
         sodipodi:nodetypes="sccs" /><path
         id="path44787-2-9-1"
         style="fill:#ffffff;stroke-width:1.14553;stroke-linecap:round;stroke-linejoin:round;paint-order:fill markers stroke"
         d="m 48.281385,43.909427 c 1.249792,1.249792 1.249792,3.276105 0,4.525897 l -4.525896,-4.525897 c 1.249791,-1.249791 3.276105,-1.249791 4.525896,0 z"
         sodipodi:nodetypes="sccs" /></g><g
       id="g48532"
       transform="matrix(-1,0,0,1,135.50403,1.1225342e-5)"><path
         id="path44787-2-9-7"
         style="fill:#0000ff;stroke-width:1.14553;stroke-linecap:round;stroke-linejoin:round;paint-order:fill markers stroke"
         d="m 74.383863,48.435312 c -1.249792,1.249791 -3.276105,1.249791 -4.525897,0 l 4.525897,-4.525897 c 1.249791,1.249792 1.249791,3.276105 0,4.525897 z"
         sodipodi:nodetypes="sccs" /><path
         id="path44787-2-9-1-0"
         style="fill:#ffffff;stroke-width:1.14553;stroke-linecap:round;stroke-linejoin:round;paint-order:fill markers stroke"
         d="m 69.857966,43.909415 c -1.249791,1.249792 -1.249791,3.276105 0,4.525897 l 4.525897,-4.525897 c -1.249792,-1.249791 -3.276105,-1.249791 -4.525897,0 z"
         sodipodi:nodetypes="sccs" /></g><g
       id="g49354"
       transform="matrix(-1,0,0,1,135.00954,0.25217341)"><path
         id="path44787-2-9-7-6"
         style="fill:#00ff00;stroke-width:1.14553;stroke-linecap:round;stroke-linejoin:round;paint-order:fill markers stroke"
         d="m 56.524689,48.183146 c -1.249792,1.249791 -3.276105,1.249791 -4.525897,0 l 4.525897,-4.525897 c 1.249791,1.249792 1.249791,3.276105 0,4.525897 z"
         sodipodi:nodetypes="sccs" /><path
         id="path44787-2-9-1-0-0"
         style="fill:#ffffff;stroke-width:1.14553;stroke-linecap:round;stroke-linejoin:round;paint-order:fill markers stroke"
         d="m 51.998792,43.657249 c -1.249791,1.249792 -1.249791,3.276105 0,4.525897 l 4.525897,-4.525897 c -1.249792,-1.249791 -3.276105,-1.249791 -4.525897,0 z"
         sodipodi:nodetypes="sccs" /></g><g
       id="g50140"
       transform="matrix(-1,0,0,1,134.64844,0.62754341)"><path
         id="path44787-2-9-7-6-6"
         style="fill:#ff0000;stroke-width:1.14553;stroke-linecap:round;stroke-linejoin:round;paint-order:fill markers stroke"
         d="m 38.798909,47.807776 c -1.249792,1.249791 -3.276105,1.249791 -4.525897,0 l 4.525897,-4.525897 c 1.249791,1.249792 1.249791,3.276105 0,4.525897 z"
         sodipodi:nodetypes="sccs" /><path
         id="path44787-2-9-1-0-0-1"
         style="fill:#ffffff;stroke-width:1.14553;stroke-linecap:round;stroke-linejoin:round;paint-order:fill markers stroke"
         d="m 34.273012,43.281879 c -1.249791,1.249792 -1.249791,3.276105 0,4.525897 l 4.525897,-4.525897 c -1.249792,-1.249791 -3.276105,-1.249791 -4.525897,0 z"
         sodipodi:nodetypes="sccs" /></g></g><g
     inkscape:label="Layer 1"
     id="layer1-8"
     transform="matrix(0.73840853,0,0,0.73840853,17.718465,35.75531)"
     style="stroke-width:1.35426"><path
       id="path5990"
       style="display:inline;fill:#cccccc;fill-opacity:1;stroke:none;stroke-width:8.83731;stroke-linecap:round;stroke-linejoin:round;stroke-dasharray:none;stroke-opacity:1;paint-order:stroke fill markers"
       d="M 67.902795,8.6022251e-8 A 42.754451,42.754451 0 0 0 25.148345,42.754451 a 42.754451,42.754451 0 0 0 0.0629,1.676776 c -0.03954,0.165207 -0.0629,0.337279 -0.0629,0.514946 v 56.649087 c 0,1.21408 0.977649,2.19172 2.191722,2.19172 h 81.125453 c 1.21408,0 2.19172,-0.97764 2.19172,-2.19172 V 44.946173 c 0,-0.177667 -0.0234,-0.349739 -0.0629,-0.514946 a 42.754451,42.754451 0 0 0 0.0629,-1.676776 A 42.754451,42.754451 0 0 0 67.902795,8.6022251e-8 Z M 68.183928,10.263851 c 6.735501,0.08772 13.457122,2.260694 18.892123,6.255066 7.082822,5.180357 12.056304,13.511892 13.060709,22.324726 0.36269,18.203999 0.21049,36.415292 0.24327,54.622707 -21.647922,0.01196 -43.29597,0.02423 -64.943895,0.03619 0.0094,-14.861222 -0.03979,-29.722599 0.0017,-44.583762 0.03848,-2.883468 -0.02253,-5.879775 0.160329,-8.688952 0.336675,-5.061641 1.943705,-10.012199 4.568268,-14.347236 1.832128,-3.030478 4.169696,-5.760768 6.926444,-8.060995 5.453837,-4.490889 12.575248,-7.331993 19.744429,-7.547162 0.448779,-0.01277 0.89762,-0.01643 1.346653,-0.01056 z" /><path
       id="path5990-6-2"
       clip-path="url(#clipPath28)"
       style="display:inline;opacity:0.801556;mix-blend-mode:normal;fill:url(#radialGradient29);fill-opacity:1;stroke:none;stroke-width:8.2034;stroke-linecap:round;stroke-linejoin:round;stroke-dasharray:none;stroke-opacity:1;paint-order:stroke fill markers;filter:url(#filter28)"
       d="m -213.91211,58.060547 c -6.79001,0.209922 -13.57923,2.457103 -19.20508,6.261719 -7.62662,5.095968 -13.14385,13.447006 -15.00781,22.435546 -0.85321,3.77504 -0.7267,7.637981 -0.76688,11.506242 -0.0469,16.310976 -0.0172,32.622186 0.0149,48.933216 24.05404,0.002 48.10809,0.0146 72.16211,-0.0274 -0.026,-18.59878 0.087,-37.1997 -0.10594,-55.797006 -0.71227,-9.476351 -5.33847,-18.606738 -12.59322,-24.701859 -6.72418,-5.773316 -15.60973,-8.886846 -24.49811,-8.610508 z m 1.4375,2.326172 c 11.6302,0.07205 23.07238,6.603698 28.77751,16.786103 3.13369,5.248277 4.71139,11.404638 4.4576,17.51426 0.20363,15.641008 0.18637,31.285028 0.12427,46.926198 -0.36372,2.30512 -2.96923,3.56756 -5.1211,3.1836 -19.75429,-4.2e-4 -39.51075,0.0724 -59.26367,-0.0352 -2.24249,-0.44778 -3.39553,-3.00299 -3.03711,-5.11133 0.0334,-16.09357 -0.13567,-32.19019 0.16486,-48.281355 0.81126,-11.308889 7.82072,-21.986828 17.96348,-27.097364 4.89416,-2.552782 10.40889,-3.932332 15.93416,-3.884952 z"
       transform="matrix(1.0772775,0,0,1.0772775,297.16134,-56.381578)" /><path
       style="display:inline;opacity:0.34;mix-blend-mode:darken;fill:none;stroke:#000000;stroke-width:1.07495;stroke-linecap:butt;stroke-linejoin:miter;stroke-dasharray:none;stroke-opacity:1;filter:url(#filter36136)"
       d="M 33.605422,69.980087 C 29.924842,65.958627 31.554451,60.153648 32.47717,55.4039 34.129032,49.177163 30.321456,42.898433 32.236193,36.665476 c 0.684113,-4.808129 4.229914,-8.238384 6.495651,-12.27572 3.581447,-5.326515 9.367549,-9.430791 15.867894,-10.013022 0.920768,-3.740083 4.214815,-5.7086048 7.832264,-4.6563079 5.206384,-0.5179559 11.215417,-1.5769464 15.648593,1.9551109 3.729449,2.076757 8.579493,0.301267 12.052979,3.045956 4.210381,1.901827 0.990243,10.162298 7.449446,9.222981 3.93477,1.523143 3.26563,6.456949 5.60185,9.270212 2.35942,2.835583 -1.21488,5.756765 0.18395,9.068168 0.28207,6.268871 -0.3679,12.616814 1.09332,18.791122 1.55208,3.638765 0.075,6.982824 -1.72089,10.158808 1.19842,3.163608 1.80409,6.677369 2.42004,10.115755 l 0.14634,0.514542"
       id="path35771"
       transform="matrix(1.0772775,0,0,1.0772775,-5.0647997,-5.1305339)" /><path
       id="rect792"
       style="display:inline;fill:url(#linearGradient1286);fill-opacity:1;stroke:#000000;stroke-width:0.386005;stroke-linecap:round;stroke-linejoin:round;paint-order:stroke fill markers"
       d="m 17.460093,67.296894 c 0,0 33.611297,-2.280237 50.442702,-2.280237 16.831405,0 50.442695,2.280237 50.442695,2.280237 1.21285,0.05482 2.19148,0.977397 2.19148,2.191473 v 63.786823 c 0,1.21408 -0.9774,2.19148 -2.19148,2.19148 H 17.460093 c -1.214076,0 -2.191473,-0.9774 -2.191473,-2.19148 V 69.488367 c 0,-1.214076 0.977397,-2.191473 2.191473,-2.191473 z"
       sodipodi:nodetypes="szssssssss" /><path
       id="rect792-6"
       style="display:inline;opacity:0.4;mix-blend-mode:normal;fill:#000000;fill-opacity:1;stroke:#000000;stroke-width:0.358315;stroke-linecap:round;stroke-linejoin:round;paint-order:stroke fill markers;filter:url(#filter21638)"
       d="m -139.62217,38.13368 c -15.62401,0 -46.82402,2.116667 -46.82402,2.116667 -1.12699,0 -2.0345,0.907001 -2.0345,2.033984 V 101.4957 c 0,1.12699 0.90751,2.03398 2.0345,2.03398 h 93.648034 c 1.126989,0 2.034501,-0.90699 2.034501,-2.03398 V 42.284331 c 0,-1.126983 -0.908662,-1.983094 -2.034501,-2.033984 0,0 -31.200014,-2.116667 -46.824014,-2.116667 z m -0.98495,1.047482 c 0.70311,-0.0026 1.40575,-0.0026 2.10891,0 14.75805,0.200004 29.48625,1.096543 44.209705,2.016931 0.81826,0.108185 2.088602,-0.168899 2.422592,0.835608 0.0496,19.535056 0.02191,39.075706 0.02791,58.612959 0.10515,0.67902 0.009,1.69944 -0.849561,1.79834 -30.883446,0.009 -61.766716,0.0118 -92.650156,0.008 -0.72575,0.0408 -1.83202,0.16922 -2.07842,-0.74414 -0.0347,-11.90164 -0.0147,-23.807287 -0.0227,-35.710481 0.014,-7.942859 -0.0263,-15.890674 0.0207,-23.830586 0.0822,-0.99153 1.27168,-0.902431 2.00349,-0.954981 14.21891,-0.865335 28.44633,-1.739341 42.69817,-2.015381 v -5.16e-4 c 0.70312,-0.0078 1.40632,-0.0129 2.10944,-0.0155 z"
       clip-path="url(#clipPath20906)"
       transform="matrix(1.0772775,0,0,1.0772775,218.31438,23.936101)" /><path
       style="display:inline;mix-blend-mode:normal;fill:none;stroke:#ffffff;stroke-width:1.71992;stroke-linecap:butt;stroke-linejoin:miter;stroke-dasharray:none;stroke-opacity:1;filter:url(#filter17825)"
       d="m -97.213105,18.806237 c 1.016442,-20.9985709 -15.776855,-40.723175 -29.821285,-46.014686 -14.04443,-5.291512 -32.21054,-0.757542 -39.848,9.106204 -7.63746,9.8637464 -15.72277,18.04034315 -16.65018,35.259977"
       id="path16710"
       clip-path="url(#clipPath17075)"
       transform="matrix(1.0772775,0,0,1.0772775,218.26821,33.529551)"
       sodipodi:nodetypes="czzc" /><path
       id="path25123-5"
       style="baseline-shift:baseline;display:inline;overflow:visible;opacity:1;mix-blend-mode:overlay;vector-effect:none;stroke-width:1.35426;filter:url(#filter20);enable-background:accumulate;stop-color:#000000;stop-opacity:1"
       d="m -119.57052,-28.721941 c -5.74874,0.715653 -11.5611,-0.0679 -17.31421,0.576995 -6.18899,3.158205 -9.34319,10.20207 -15.89043,12.875492 -3.93054,2.419338 -6.983,5.944542 -10.30272,9.0901441 -1.81558,4.4027959 3.56317,4.9013254 5.23122,1.4473754 5.89352,-6.2273725 7.81371,-7.0829805 13.10368,-13.9518595 4.92257,-4.98082 18.59092,-8.767775 25.17246,-10.038147 z m 12.20152,0.0355 c -5.82273,4.155137 -13.0712,6.893184 -17.17187,13.030059 -2.11263,4.448299 4.7282,7.679663 3.21135,12.9011017 -1.51684,5.2214387 -11.38445,10.9031643 -16.36667,14.1561713 -8.17477,4.739492 -17.92003,6.609051 -23.79126,14.252665 -1.96325,2.051735 -2.79165,8.211016 -1.18901,8.617324 8.25601,-12.249746 21.98875,-18.838762 34.45649,-25.9081712 5.46375,-2.6087552 10.4586,-8.56770209 8.8986,-14.9517203 -2.69736,-3.6065565 -1.0094,-8.3424575 2.66963,-10.5614655 4.65418,-3.196194 9.55002,-5.999312 14.35328,-8.970348 2.406137,-1.245196 2.361897,-3.127455 -0.64677,-2.431555 -1.47439,-0.05097 -2.94898,-0.09626 -4.42377,-0.134061 z m 28.539434,1.30381 c -3.569153,4.286048 -8.53341,8.424786 -10.09659,14.365235 -2.917439,3.951838 -1.289681,5.4713965 -0.474017,9.4800661 1.278037,4.6864966 -4.694566,5.5911706 -6.872611,8.6453441 -5.536066,4.9659698 -8.303366,12.0683718 -13.167966,17.5624278 -3.23285,4.58848 -7.40648,0.07335 -11.15343,0.06155 -6.44963,0.558482 -11.1272,5.898767 -14.25324,11.113159 -3.83777,1.642978 -1.24902,3.638207 1.6693,2.786498 5.41645,-0.305523 5.68951,-8.102362 10.98731,-8.823169 4.53182,-0.02641 9.31874,3.505373 13.70952,0.8314 5.48822,-4.978642 7.04212,-14.522549 11.624163,-20.2771712 3.304849,-4.3550574 11.497341,-3.4731473 12.896678,-9.21293005 0.769179,-4.41628085 -4.521818,-7.63802725 -2.612611,-12.16717475 1.397476,-4.145861 5.193716,-6.919569 8.967069,-8.787392 2.131309,-1.409993 6.210344,-6.337497 0.751865,-5.683886 -0.659619,0.0077 -1.318365,0.04975 -1.97544,0.106039 z m 13.468868,16.361907 c -4.095798,4.1857453 -5.197727,10.807527 -7.692289,16.1287382 -3.287728,2.6829781 -4.7488,5.5061528 -2.160584,8.2673468 2.539483,2.362822 5.03129,9.245481 3.167196,12.525357 -2.051414,4.278129 -7.886182,2.348011 -11.931777,3.986355 -1.923033,1.276743 -8.198334,5.128378 -4.538941,6.836469 3.967877,-0.156287 7.329577,-2.77554 10.837165,-4.406542 3.069061,-1.745871 6.851082,-2.851954 8.326954,-6.416282 2.208076,-4.173032 2.389979,-9.509112 0.02607,-13.657888 -4.799108,-1.59065 -2.693234,-7.0976805 -0.312509,-9.8934109 1.540117,-3.1086906 4.885248,-5.4262277 4.331984,-9.2847963 -0.03933,-1.3617987 -0.06454,-2.7229358 -0.05327,-4.0853468 z m -25.049178,11.57359401 -0.09152,0.11189407 z"
       clip-path="url(#clipPath20)"
       transform="matrix(1.0772775,0,0,1.0772775,190.95722,96.02745)"
       sodipodi:nodetypes="ccccccccczcccccccccsccccccccccccccssccccccccccccccc" /><path
       id="path25"
       style="display:inline;opacity:0.2;mix-blend-mode:multiply;fill:#ffffff;fill-opacity:1;stroke:#000000;stroke-width:0.386005;stroke-linecap:round;stroke-linejoin:round;paint-order:stroke fill markers;filter:url(#filter27)"
       d="m 17.460088,67.296898 c 0,0 33.6113,-2.28024 50.4427,-2.28024 16.831411,0 50.442702,2.28024 50.442702,2.28024 1.21285,0.0548 2.19148,0.9774 2.19148,2.19147 v 63.786822 c 0,1.21408 -0.9774,2.19148 -2.19148,2.19148 H 17.460088 c -1.21408,0 -2.19147,-0.9774 -2.19147,-2.19148 V 69.488368 c 0,-1.21407 0.97739,-2.19147 2.19147,-2.19147 z"
       sodipodi:nodetypes="szssssssss" /></g></g><metadata
   id="metadata1"><rdf:RDF><cc:Work
       rdf:about=""><dc:creator><cc:Agent><dc:title>Jess Tipton</dc:title></cc:Agent></dc:creator><dc:publisher><cc:Agent><dc:title>m0dw3rks.com</dc:title></cc:Agent></dc:publisher><cc:license
         rdf:resource="https://creativecommons.org/licenses/by-nc-nd/4.0/deed.en" /></cc:Work></rdf:RDF></metadata><metadata
   id="metadata6"><rdf:RDF><cc:Work
       rdf:about=""><dc:creator><cc:Agent><dc:title>Jess Tipton</dc:title></cc:Agent></dc:creator><cc:license
         rdf:resource="https://creativecommons.org/licenses/by-nc-nd/4.0/deed.en" /><dc:publisher><cc:Agent><dc:title>m0dw3rks.com</dc:title></cc:Agent></dc:publisher></cc:Work></rdf:RDF></metadata><metadata
   id="metadata2"><rdf:RDF><cc:Work
       rdf:about=""><dc:creator><cc:Agent><dc:title>Jess Tipton</dc:title></cc:Agent></dc:creator><cc:license
         rdf:resource="https://creativecommons.org/licenses/by-nc-nd/4.0/deed.en" /><dc:publisher><cc:Agent><dc:title>m0dw3rks.com</dc:title></cc:Agent></dc:publisher></cc:Work></rdf:RDF></metadata><metadata
   id="metadata3"><rdf:RDF><cc:Work
       rdf:about=""><dc:creator><cc:Agent><dc:title>Jess Tipton</dc:title></cc:Agent></dc:creator><cc:license
         rdf:resource="https://creativecommons.org/licenses/by-nc-nd/4.0/deed.en" /><dc:publisher><cc:Agent><dc:title>m0dw3rks.com</dc:title></cc:Agent></dc:publisher></cc:Work></rdf:RDF></metadata><metadata
   id="metadata4"><rdf:RDF><cc:Work
       rdf:about=""><dc:creator><cc:Agent><dc:title>Jess Tipton</dc:title></cc:Agent></dc:creator><cc:license
         rdf:resource="https://creativecommons.org/licenses/by-nc-nd/4.0/deed.en" /><dc:publisher><cc:Agent><dc:title>m0dw3rks.com</dc:title></cc:Agent></dc:publisher></cc:Work></rdf:RDF></metadata><metadata
   id="metadata5"><rdf:RDF><cc:Work
       rdf:about=""><dc:creator><cc:Agent><dc:title>Jess Tipton</dc:title></cc:Agent></dc:creator><cc:license
         rdf:resource="https://creativecommons.org/licenses/by-nc-nd/4.0/deed.en" /><dc:publisher><cc:Agent><dc:title>m0dw3rks.com</dc:title></cc:Agent></dc:publisher></cc:Work></rdf:RDF></metadata><metadata
   id="metadata7"><rdf:RDF><cc:Work
       rdf:about=""><dc:creator><cc:Agent><dc:title>Jess Tipton</dc:title></cc:Agent></dc:creator><cc:license
         rdf:resource="https://creativecommons.org/licenses/by-nc-nd/4.0/deed.en" /><dc:publisher><cc:Agent><dc:title>m0dw3rks.com</dc:title></cc:Agent></dc:publisher></cc:Work></rdf:RDF></metadata><metadata
   id="metadata8"><rdf:RDF><cc:Work
       rdf:about=""><dc:creator><cc:Agent><dc:title>Jess Tipton</dc:title></cc:Agent></dc:creator><cc:license
         rdf:resource="https://creativecommons.org/licenses/by-nc-nd/4.0/deed.en" /><dc:publisher><cc:Agent><dc:title>m0dw3rks.com</dc:title></cc:Agent></dc:publisher></cc:Work></rdf:RDF></metadata><metadata
   id="metadata9"><rdf:RDF><cc:Work
       rdf:about=""><dc:creator><cc:Agent><dc:title>Jess Tipton</dc:title></cc:Agent></dc:creator><cc:license
         rdf:resource="https://creativecommons.org/licenses/by-nc-nd/4.0/deed.en" /><dc:publisher><cc:Agent><dc:title>m0dw3rks.com</dc:title></cc:Agent></dc:publisher></cc:Work></rdf:RDF></metadata><metadata
   id="metadata10"><rdf:RDF><cc:Work
       rdf:about=""><dc:creator><cc:Agent><dc:title>Jess Tipton</dc:title></cc:Agent></dc:creator><cc:license
         rdf:resource="https://creativecommons.org/licenses/by-nc-nd/4.0/deed.en" /><dc:publisher><cc:Agent><dc:title>m0dw3rks.com</dc:title></cc:Agent></dc:publisher></cc:Work></rdf:RDF></metadata><metadata
   id="metadata11"><rdf:RDF><cc:Work
       rdf:about=""><dc:creator><cc:Agent><dc:title>Jess Tipton</dc:title></cc:Agent></dc:creator><cc:license
         rdf:resource="https://creativecommons.org/licenses/by-nc-nd/4.0/deed.en" /><dc:publisher><cc:Agent><dc:title>m0dw3rks.com</dc:title></cc:Agent></dc:publisher></cc:Work></rdf:RDF></metadata><metadata
   id="metadata12"><rdf:RDF><cc:Work
       rdf:about=""><dc:creator><cc:Agent><dc:title>Jess Tipton</dc:title></cc:Agent></dc:creator><cc:license
         rdf:resource="https://creativecommons.org/licenses/by-nc-nd/4.0/deed.en" /><dc:publisher><cc:Agent><dc:title>m0dw3rks.com</dc:title></cc:Agent></dc:publisher></cc:Work></rdf:RDF></metadata><metadata
   id="metadata13"><rdf:RDF><cc:Work
       rdf:about=""><dc:creator><cc:Agent><dc:title>Jess Tipton</dc:title></cc:Agent></dc:creator><cc:license
         rdf:resource="https://creativecommons.org/licenses/by-nc-nd/4.0/deed.en" /><dc:publisher><cc:Agent><dc:title>m0dw3rks.com</dc:title></cc:Agent></dc:publisher></cc:Work></rdf:RDF></metadata><metadata
   id="metadata14"><rdf:RDF><cc:Work
       rdf:about=""><dc:creator><cc:Agent><dc:title>Jess Tipton</dc:title></cc:Agent></dc:creator><cc:license
         rdf:resource="https://creativecommons.org/licenses/by-nc-nd/4.0/deed.en" /><dc:publisher><cc:Agent><dc:title>m0dw3rks.com</dc:title></cc:Agent></dc:publisher></cc:Work></rdf:RDF></metadata><metadata
   id="metadata15"><rdf:RDF><cc:Work
       rdf:about=""><dc:creator><cc:Agent><dc:title>Jess Tipton</dc:title></cc:Agent></dc:creator><cc:license
         rdf:resource="https://creativecommons.org/licenses/by-nc-nd/4.0/deed.en" /><dc:publisher><cc:Agent><dc:title>m0dw3rks.com</dc:title></cc:Agent></dc:publisher></cc:Work></rdf:RDF></metadata><metadata
   id="metadata16"><rdf:RDF><cc:Work
       rdf:about=""><dc:creator><cc:Agent><dc:title>Jess Tipton</dc:title></cc:Agent></dc:creator><cc:license
         rdf:resource="https://creativecommons.org/licenses/by-nc-nd/4.0/deed.en" /><dc:publisher><cc:Agent><dc:title>m0dw3rks.com</dc:title></cc:Agent></dc:publisher></cc:Work></rdf:RDF></metadata><metadata
   id="metadata17"><rdf:RDF><cc:Work
       rdf:about=""><dc:creator><cc:Agent><dc:title>Jess Tipton</dc:title></cc:Agent></dc:creator><cc:license
         rdf:resource="https://creativecommons.org/licenses/by-nc-nd/4.0/deed.en" /><dc:publisher><cc:Agent><dc:title>m0dw3rks.com</dc:title></cc:Agent></dc:publisher></cc:Work></rdf:RDF></metadata><metadata
   id="metadata18"><rdf:RDF><cc:Work
       rdf:about=""><dc:creator><cc:Agent><dc:title>Jess Tipton</dc:title></cc:Agent></dc:creator><cc:license
         rdf:resource="https://creativecommons.org/licenses/by-nc-nd/4.0/deed.en" /><dc:publisher><cc:Agent><dc:title>m0dw3rks.com</dc:title></cc:Agent></dc:publisher></cc:Work></rdf:RDF></metadata></svg>
