<?xml version="1.0" encoding="UTF-8" standalone="no"?>
<!-- Created with Inkscape (http://www.inkscape.org/) -->

<svg
   width="512"
   height="512"
   viewBox="0 0 135.46666 135.46667"
   version="1.1"
   id="svg5"
   inkscape:version="1.4.2 (ebf0e940d0, 2025-05-08)"
   sodipodi:docname="nm-signal-disconnected.svg"
   xml:space="preserve"
   xmlns:inkscape="http://www.inkscape.org/namespaces/inkscape"
   xmlns:sodipodi="http://sodipodi.sourceforge.net/DTD/sodipodi-0.dtd"
   xmlns:xlink="http://www.w3.org/1999/xlink"
   xmlns="http://www.w3.org/2000/svg"
   xmlns:svg="http://www.w3.org/2000/svg"><sodipodi:namedview
     id="namedview7"
     pagecolor="#242424"
     bordercolor="#666666"
     borderopacity="1"
     inkscape:showpageshadow="0"
     inkscape:pageopacity="0"
     inkscape:pagecheckerboard="1"
     inkscape:deskcolor="#000000"
     inkscape:document-units="px"
     showgrid="false"
     inkscape:zoom="0.32593203"
     inkscape:cx="289.93775"
     inkscape:cy="501.63833"
     inkscape:window-width="3256"
     inkscape:window-height="1080"
     inkscape:window-x="1864"
     inkscape:window-y="0"
     inkscape:window-maximized="0"
     inkscape:current-layer="layer1" /><defs
     id="defs2"><linearGradient
       id="linearGradient33"
       inkscape:collect="always"><stop
         style="stop-color:#ffff00;stop-opacity:1;"
         offset="0"
         id="stop33" /><stop
         style="stop-color:#00ff00;stop-opacity:1;"
         offset="0.99999994"
         id="stop34" /></linearGradient><linearGradient
       id="linearGradient31"
       inkscape:collect="always"><stop
         style="stop-color:#ff8800;stop-opacity:1;"
         offset="0"
         id="stop31" /><stop
         style="stop-color:#ffff00;stop-opacity:1;"
         offset="1"
         id="stop32" /></linearGradient><linearGradient
       id="linearGradient29"
       inkscape:collect="always"><stop
         style="stop-color:#ff8800;stop-opacity:1;"
         offset="0"
         id="stop29" /><stop
         style="stop-color:#ff4000;stop-opacity:1;"
         offset="1"
         id="stop30" /></linearGradient><linearGradient
       id="linearGradient27"
       inkscape:collect="always"><stop
         style="stop-color:#ff4000;stop-opacity:1;"
         offset="0"
         id="stop28" /><stop
         style="stop-color:#ffffff;stop-opacity:1;"
         offset="1"
         id="stop27" /></linearGradient><clipPath
       clipPathUnits="userSpaceOnUse"
       id="clipPath34996"><path
         id="path34998"
         style="display:inline;mix-blend-mode:normal;fill:#ffa800;fill-opacity:1;stroke:none;stroke-width:0.321331;stroke-linecap:round;stroke-linejoin:round;stroke-opacity:1;paint-order:stroke fill markers"
         inkscape:label="base-yellow"
         d="m -194.95223,-68.677073 -2.31511,2.116667 v 5.152657 a 60.500001,60.500001 0 0 0 -32.85794,13.608473 l -0.15761,-0.157612 -3.36724,-3.367754 -3.50831,-0.234096 -2.38539,2.385386 -2.38538,2.385385 0.23409,3.508312 3.36776,3.367235 0.15761,0.157615 a 60.500001,60.500001 0 0 0 -13.60847,32.8579419 h -0.12558 -4.7625 l -2.64583,2.3151042 v 3.3734369 3.373438 l 2.64583,2.315104 h 4.7625 0.12558 a 60.500001,60.500001 0 0 0 13.60847,32.857944 l -0.15761,0.15761 -3.36776,3.367241 -0.23409,3.508311 2.38538,2.38538 2.38539,2.385388 3.50831,-0.2341 3.36724,-3.367749 0.15761,-0.15761 a 60.500001,60.500001 0 0 0 32.85794,13.608471 v 0.39016 4.7625 l 2.31511,2.645828 h 3.37343 3.37344 l 2.3151,-2.645828 v -4.7625 -0.39016 a 60.500001,60.500001 0 0 0 32.85743,-13.608471 l 0.0176,0.0176 3.7419,3.741891 3.13365,-0.14056 2.38538,-2.385391 2.3854,-2.38538 0.14055,-3.133661 -3.74189,-3.741889 -0.0176,-0.0176 A 60.500001,60.500001 0 0 0 -131.37937,4.48022 h 0.12557 5.29167 l 2.11667,-2.315104 v -3.373438 -3.3734369 l -2.11667,-2.3151042 h -5.29167 -0.0977 a 60.500001,60.500001 0 0 0 -13.61622,-32.8775789 l 3.73931,-3.739309 -0.14056,-3.133659 -2.38539,-2.385382 -2.38538,-2.385386 -3.13366,-0.14056 -3.73931,3.739309 a 60.500001,60.500001 0 0 0 -32.87755,-13.616223 v -5.124754 l -2.3151,-2.116667 h -3.37344 z m 2.17351,4.218866 h 2.39985 v 7.556643 c 14.46386,0.306827 27.58119,6.141281 37.32175,15.474508 l 5.3542,-5.354196 1.69705,1.697054 -5.35419,5.354198 c 9.33268,9.74076 15.16666,22.858137 15.47347,37.321752 h 7.55768 v 2.399853 h -7.55768 c -0.30655,14.46399 -6.14058,27.581135 -15.47347,37.321749 l 5.35419,5.354201 -1.69705,1.697051 -5.3542,-5.354191 c -9.74057,9.332871 -22.85787,15.167179 -37.32175,15.47399 v 7.557159 h -2.39985 v -7.557159 c -14.46414,-0.306549 -27.58174,-6.140529 -37.32227,-15.473479 l -5.35368,5.35368 -1.69706,-1.697051 5.35368,-5.35368 c -9.3328,-9.740651 -15.16641,-22.858148 -15.47296,-37.32227 h -7.55767 v -2.399853 h 7.55767 c 0.3068,-14.463747 6.14037,-27.581482 15.47296,-37.322271 l -5.35368,-5.353679 1.69706,-1.697054 5.35368,5.35368 c 9.74053,-9.333304 22.85814,-15.167422 37.32227,-15.473992 z m 2.39985,9.965282 v 22.153169 1.262456 1.169438 a 28.750001,28.750001 0 0 0 -1.20044,-0.04961 28.750001,28.750001 0 0 0 -19.45205,7.599536 l 15.60577,15.6057659 a 6.75,6.75 0 0 1 0.53278,-0.2950729 6.75,6.75 0 0 1 0.52504,-0.2914549 6.75,6.75 0 0 1 0.8785,-0.3069582 6.75,6.75 0 0 1 0.48317,-0.1514118 6.75,6.75 0 0 1 1.4273,-0.1612302 6.75,6.75 0 0 1 1.43041,0.1612302 6.75,6.75 0 0 1 0.46405,0.145728 6.75,6.75 0 0 1 0.89865,0.3141919 6.75,6.75 0 0 1 0.50437,0.2790529 6.75,6.75 0 0 1 0.55035,0.304891 l 32.98093,-32.9809309 a 53.3,53.3 0 0 0 -35.62883,-14.75879 z m -2.39985,0.03152 a 53.3,53.3 0 0 0 -35.60713,14.748973 l 15.65486,15.654859 c 5.28623,-4.896924 12.26629,-7.984165 19.95227,-8.277013 z m 39.72574,16.424323 -32.98094,32.9809331 a 6.75,6.75 0 0 1 0.30489,0.550354 6.75,6.75 0 0 1 0.27906,0.504362 6.75,6.75 0 0 1 0.31419,0.8986528 6.75,6.75 0 0 1 0.14573,0.4640551 6.75,6.75 0 0 1 0.16123,1.430403 6.75,6.75 0 0 1 -0.16123,1.427303 6.75,6.75 0 0 1 -0.15141,0.48317501 6.75,6.75 0 0 1 -0.30696,0.87849899 6.75,6.75 0 0 1 -0.29146,0.525033 6.75,6.75 0 0 1 -0.29507,0.532784 l 15.61455,15.614551 a 28.750001,28.750001 0 0 0 7.59127,-19.460828 28.750001,28.750001 0 0 0 -0.0496,-1.200443 h 1.16892 1.26401 22.1511 a 53.3,53.3 0 0 0 -14.75827,-35.628834 z m -77.02993,0.0217 a 53.3,53.3 0 0 0 -14.74897,35.6071327 h 22.12527 c 0.29323,-7.6861407 3.3811,-14.6662007 8.27856,-19.9522707 z m 17.3545,17.3545 a 28.750001,28.750001 0 0 0 -7.60005,19.4530757 28.750001,28.750001 0 0 0 0.0496,1.19941001 h -1.16893 -1.264 -22.1201 a 53.3,53.3 0 0 0 14.74897,35.60713529 l 32.96027,-32.960263 a 6.75,6.75 0 0 1 -0.29508,-0.532784 6.75,6.75 0 0 1 -0.29145,-0.525033 6.75,6.75 0 0 1 -0.30696,-0.87849899 6.75,6.75 0 0 1 -0.15141,-0.48317501 6.75,6.75 0 0 1 -0.16123,-1.427303 6.75,6.75 0 0 1 0.16123,-1.427303 6.75,6.75 0 0 1 0.15141,-0.4831741 6.75,6.75 0 0 1 0.30696,-0.8785 6.75,6.75 0 0 1 0.29145,-0.525032 6.75,6.75 0 0 1 0.29508,-0.5327838 z m 52.27743,20.652491 c -0.29276,7.686416 -3.38046,14.666834 -8.27805,19.952787 l 15.67605,15.676044 a 53.3,53.3 0 0 0 14.75827,-35.628831 z m -34.97461,4.343921 -32.96026,32.96026 a 53.3,53.3 0 0 0 35.60713,14.74897 V 29.92311 28.660656 27.492769 a 28.750001,28.750001 0 0 0 1.19941,0.04961 28.750001,28.750001 0 0 0 19.46186,-7.592301 L -187.732,4.335526 a 6.75,6.75 0 0 1 -0.53279,0.2950721 6.75,6.75 0 0 1 -0.52503,0.2914549 6.75,6.75 0 0 1 -0.8785,0.306959 6.75,6.75 0 0 1 -0.48317,0.151411 6.75,6.75 0 0 1 -1.42731,0.161231 6.75,6.75 0 0 1 -1.4273,-0.161231 6.75,6.75 0 0 1 -0.48317,-0.151411 6.75,6.75 0 0 1 -0.8785,-0.306959 6.75,6.75 0 0 1 -0.52504,-0.2914549 6.75,6.75 0 0 1 -0.53278,-0.2950721 z m 24.99899,17.305404 c -5.28632,4.89667 -12.2663,7.983955 -19.95227,8.277013 v 22.158341 a 53.3,53.3 0 0 0 35.62883,-14.758789 z" /></clipPath><linearGradient
       inkscape:collect="always"
       xlink:href="#linearGradient27"
       id="linearGradient28"
       x1="67.733337"
       y1="75.829613"
       x2="67.733337"
       y2="89.32341"
       gradientUnits="userSpaceOnUse" /><linearGradient
       inkscape:collect="always"
       xlink:href="#linearGradient29"
       id="linearGradient30"
       x1="83.699089"
       y1="53.200054"
       x2="93.247322"
       y2="43.651901"
       gradientUnits="userSpaceOnUse" /><linearGradient
       inkscape:collect="always"
       xlink:href="#linearGradient31"
       id="linearGradient32"
       x1="19.164646"
       y1="68.668716"
       x2="32.662292"
       y2="68.668686"
       gradientUnits="userSpaceOnUse"
       gradientTransform="translate(0,-0.9353525)" /><linearGradient
       inkscape:collect="always"
       xlink:href="#linearGradient33"
       id="linearGradient34"
       x1="22.743299"
       y1="24.175772"
       x2="32.284855"
       y2="33.717335"
       gradientUnits="userSpaceOnUse" /><linearGradient
       inkscape:collect="always"
       xlink:href="#linearGradient33"
       id="linearGradient35"
       gradientUnits="userSpaceOnUse"
       x1="22.743299"
       y1="24.175772"
       x2="32.284855"
       y2="33.717335"
       gradientTransform="rotate(180,67.73333,67.73333)" /><linearGradient
       inkscape:collect="always"
       xlink:href="#linearGradient29"
       id="linearGradient36"
       gradientUnits="userSpaceOnUse"
       x1="83.699089"
       y1="53.200054"
       x2="93.247322"
       y2="43.651901"
       gradientTransform="rotate(180,67.733334,67.733334)" /><linearGradient
       inkscape:collect="always"
       xlink:href="#linearGradient31"
       id="linearGradient37"
       gradientUnits="userSpaceOnUse"
       x1="19.164646"
       y1="68.668716"
       x2="32.662292"
       y2="68.668686"
       gradientTransform="rotate(180,67.73333,68.201009)" /><linearGradient
       inkscape:collect="always"
       xlink:href="#linearGradient27"
       id="linearGradient38"
       gradientUnits="userSpaceOnUse"
       x1="67.733337"
       y1="75.829613"
       x2="67.733337"
       y2="89.32341"
       gradientTransform="rotate(180,67.733335,67.733334)" /></defs><g
     inkscape:label="Layer 1"
     inkscape:groupmode="layer"
     id="layer1"><path
       id="path16"
       style="display:inline;mix-blend-mode:normal;fill:#4d4d4d;fill-opacity:1;stroke:none;stroke-width:0.321331;stroke-linecap:round;stroke-linejoin:round;stroke-opacity:1;paint-order:stroke fill markers;opacity:0.2"
       inkscape:label="base-ttb"
       d="M 64.359907,-9.9500008e-7 62.044793,2.1166663 V 7.269323 A 60.500004,60.500004 0 0 0 29.186851,20.877796 l -0.157606,-0.157613 -3.367243,-3.367754 -3.508314,-0.234094 -2.385388,2.385384 -2.385378,2.385385 0.234084,3.508313 3.367765,3.367236 0.157606,0.157615 A 60.500004,60.500004 0 0 0 7.5339088,61.780212 H 7.4083282 2.6458245 L -7.500001e-7,64.095316 v 3.373438 3.373438 L 2.6458245,73.157296 H 7.4083282 7.5339088 A 60.500004,60.500004 0 0 0 21.142377,106.01525 l -0.157606,0.15761 -3.367765,3.36722 -0.234084,3.50832 2.385378,2.38538 2.385388,2.38538 3.508314,-0.23409 3.367243,-3.36776 0.157606,-0.1576 a 60.500004,60.500004 0 0 0 32.857942,13.60847 v 0.39016 4.7625 l 2.315114,2.64583 h 3.373427 3.373438 l 2.315114,-2.64583 v -4.7625 -0.39016 a 60.500004,60.500004 0 0 0 32.857424,-13.60847 l 0.0176,0.0176 3.74188,3.74188 3.13366,-0.14055 2.38539,-2.38539 2.38539,-2.38538 0.14056,-3.13366 -3.7419,-3.74189 -0.0176,-0.0176 a 60.500004,60.500004 0 0 0 13.60847,-32.857424 h 0.12557 5.29167 l 2.11667,-2.315104 v -3.373438 -3.373438 l -2.11666,-2.315104 h -5.29167 -0.0977 A 60.500004,60.500004 0 0 0 114.34442,28.902631 l 3.73931,-3.739309 -0.14056,-3.133659 -2.38539,-2.385384 -2.38538,-2.385384 -3.13366,-0.14056 -3.7393,3.739307 A 60.500004,60.500004 0 0 0 73.421875,7.241418 V 2.1166663 L 71.106772,-9.9500008e-7 H 67.733334 Z M 66.533417,4.2188631 h 2.399845 v 7.5566449 c 14.46386,0.306826 27.581189,6.141281 37.321758,15.47451 l 5.3542,-5.354197 1.69706,1.697054 -5.3542,5.354197 c 9.33268,9.740764 15.16667,22.858139 15.47347,37.321754 h 7.55769 v 2.399853 h -7.55769 c -0.30655,14.463992 -6.14058,27.581139 -15.47347,37.321761 l 5.3542,5.35418 -1.69706,1.69706 -5.3542,-5.35418 c -9.740574,9.33285 -22.857888,15.16716 -37.321758,15.47397 v 7.55716 h -2.399845 v -7.55716 C 52.069276,122.85493 38.951675,117.02095 29.211136,107.68801 l -5.353673,5.35367 -1.697059,-1.69706 5.353673,-5.35366 C 18.18128,96.2503 12.347672,83.132802 12.041125,68.668679 H 4.4834528 V 66.268826 H 12.041125 C 12.347923,51.805078 18.181491,38.687344 27.514077,28.946553 l -5.353673,-5.353678 1.697059,-1.697054 5.353673,5.353679 c 9.740539,-9.333304 22.85815,-15.167424 37.322281,-15.473992 z m 2.399845,9.9652829 v 22.153173 1.262454 1.169437 a 28.750002,28.750002 0 0 0 -1.20044,-0.04961 28.750002,28.750002 0 0 0 -19.452055,7.599537 l 15.605781,15.605766 a 6.7500003,6.7500003 0 0 1 0.532771,-0.295075 6.7500003,6.7500003 0 0 1 0.525041,-0.291453 6.7500003,6.7500003 0 0 1 0.878502,-0.306957 6.7500003,6.7500003 0 0 1 0.483167,-0.151414 6.7500003,6.7500003 0 0 1 1.427305,-0.161228 6.7500003,6.7500003 0 0 1 1.430408,0.161228 6.7500003,6.7500003 0 0 1 0.464053,0.145728 6.7500003,6.7500003 0 0 1 0.89865,0.314193 6.7500003,6.7500003 0 0 1 0.50437,0.279053 6.7500003,6.7500003 0 0 1 0.55035,0.30489 L 104.5621,28.942936 A 53.300003,53.300003 0 0 0 68.933262,14.184146 Z m -2.399845,0.03152 A 53.300003,53.300003 0 0 0 30.926286,28.964644 l 15.654852,15.654858 c 5.28623,-4.896923 12.266296,-7.984164 19.952279,-8.277013 z M 106.25916,30.639992 73.278214,63.620926 a 6.7500003,6.7500003 0 0 1 0.304891,0.550355 6.7500003,6.7500003 0 0 1 0.27906,0.504362 6.7500003,6.7500003 0 0 1 0.314188,0.898652 6.7500003,6.7500003 0 0 1 0.145729,0.464055 6.7500003,6.7500003 0 0 1 0.16123,1.430404 6.7500003,6.7500003 0 0 1 -0.16123,1.427303 6.7500003,6.7500003 0 0 1 -0.151412,0.483174 6.7500003,6.7500003 0 0 1 -0.306959,0.878498 6.7500003,6.7500003 0 0 1 -0.291458,0.525034 6.7500003,6.7500003 0 0 1 -0.295073,0.532785 L 88.891735,86.9301 a 28.750002,28.750002 0 0 0 7.591268,-19.46083 28.750002,28.750002 0 0 0 -0.04961,-1.200444 h 1.168922 1.264004 22.151111 A 53.300003,53.300003 0 0 0 106.25916,30.639992 Z m -77.029943,0.02171 A 53.300003,53.300003 0 0 0 14.480253,66.26883 H 36.60552 c 0.293236,-7.686141 3.381098,-14.666202 8.278559,-19.952272 z m 17.354501,17.354497 a 28.750002,28.750002 0 0 0 -7.600048,19.453077 28.750002,28.750002 0 0 0 0.04959,1.199409 H 37.864338 36.60033 14.480233 A 53.300003,53.300003 0 0 0 29.229196,104.27582 L 62.189469,71.315548 a 6.7500003,6.7500003 0 0 1 -0.295073,-0.532785 6.7500003,6.7500003 0 0 1 -0.291449,-0.525034 6.7500003,6.7500003 0 0 1 -0.306969,-0.878498 6.7500003,6.7500003 0 0 1 -0.151401,-0.483174 6.7500003,6.7500003 0 0 1 -0.16123,-1.427303 6.7500003,6.7500003 0 0 1 0.16123,-1.427303 6.7500003,6.7500003 0 0 1 0.151401,-0.483174 6.7500003,6.7500003 0 0 1 0.306969,-0.878501 6.7500003,6.7500003 0 0 1 0.291449,-0.525033 6.7500003,6.7500003 0 0 1 0.295073,-0.532782 z M 98.861152,68.668685 C 98.568388,76.3551 95.480689,83.335518 90.583102,88.621469 L 106.25916,104.29752 A 53.300003,53.300003 0 0 0 121.01743,68.668676 Z M 63.886548,73.012598 30.926286,105.97287 a 53.300003,53.300003 0 0 0 35.607131,14.74895 V 98.600186 97.337729 96.169842 a 28.750002,28.750002 0 0 0 1.199405,0.04961 28.750002,28.750002 0 0 0 19.461864,-7.592304 L 71.580131,73.012601 A 6.7500003,6.7500003 0 0 1 71.04734,73.307674 6.7500003,6.7500003 0 0 1 70.522309,73.59913 6.7500003,6.7500003 0 0 1 69.643817,73.906089 6.7500003,6.7500003 0 0 1 69.16064,74.057498 6.7500003,6.7500003 0 0 1 67.733334,74.21873 6.7500003,6.7500003 0 0 1 66.306029,74.057498 6.7500003,6.7500003 0 0 1 65.822862,73.906089 6.7500003,6.7500003 0 0 1 64.94436,73.59913 6.7500003,6.7500003 0 0 1 64.419319,73.307674 6.7500003,6.7500003 0 0 1 63.886548,73.012601 Z m 24.998983,17.305408 c -5.28633,4.896667 -12.266296,7.983955 -19.952269,8.277013 V 120.75336 A 53.300003,53.300003 0 0 0 104.5621,105.99457 Z" /><path
       id="path1"
       style="baseline-shift:baseline;display:inline;overflow:visible;opacity:1;fill-opacity:0.2;stroke:#ffffff;stroke-width:0.529167;stroke-linecap:round;stroke-linejoin:round;stroke-miterlimit:12;stroke-dasharray:none;stroke-opacity:0.2;paint-order:markers stroke fill;enable-background:accumulate;stop-color:#000000;stop-opacity:1"
       d="m 67.732014,0.26458271 c -37.198174,0 -67.46743129,30.26925729 -67.46743129,67.46743129 0,37.198166 30.26925729,67.470066 67.46743129,67.470066 37.198166,0 67.470066,-30.2719 67.470066,-67.470066 0,-37.198174 -30.2719,-67.46743129 -67.470066,-67.46743129 z m 0,10.79346029 c 31.364102,0 56.673966,25.309871 56.673966,56.673971 0,31.364102 -25.309864,56.673966 -56.673966,56.673966 -31.3641,0 -56.673971,-25.309864 -56.673971,-56.673966 0,-31.3641 25.309871,-56.673971 56.673971,-56.673971 z m 0,2.699288 c -29.745753,0 -53.974683,24.22893 -53.974683,53.974683 0,29.745755 24.22893,53.976786 53.974683,53.976786 29.745755,0 53.976786,-24.231031 53.976786,-53.976786 0,-29.745753 -24.231031,-53.974683 -53.976786,-53.974683 z m 0,10.796096 c 23.91168,0 43.181226,19.266908 43.181226,43.178587 0,23.91168 -19.269546,43.181226 -43.181226,43.181226 -23.911679,0 -43.178587,-19.269546 -43.178587,-43.181226 0,-23.911679 19.266908,-43.178587 43.178587,-43.178587 z m 0,2.697179 c -22.293332,0 -40.481408,18.188076 -40.481408,40.481408 0,22.293333 18.188076,40.481396 40.481408,40.481396 22.293333,0 40.481396,-18.188063 40.481396,-40.481396 0,-22.293332 -18.188063,-40.481408 -40.481396,-40.481408 z m 0,10.79557 c 16.45926,0 29.687949,13.22658 29.687949,29.685838 0,16.45926 -13.228689,29.687949 -29.687949,29.687949 -16.459258,0 -29.685838,-13.228689 -29.685838,-29.687949 0,-16.459258 13.22658,-29.685838 29.685838,-29.685838 z m 0,2.699815 c -14.84091,0 -26.986023,12.145113 -26.986023,26.986023 0,14.840912 12.145113,26.988134 26.986023,26.988134 14.840912,0 26.988134,-12.147222 26.988134,-26.988134 0,-14.84091 -12.147222,-26.986023 -26.988134,-26.986023 z m 0,10.79346 c 9.006838,0 16.192565,7.185727 16.192565,16.192563 0,9.006838 -7.185727,16.192565 -16.192565,16.192565 -9.006836,0 -16.192563,-7.185727 -16.192563,-16.192565 0,-9.006836 7.185727,-16.192563 16.192563,-16.192563 z"
       inkscape:label="4"
       sodipodi:nodetypes="ssssssssssssssssssssssssssssssssssssssss" /><path
       id="path9"
       style="baseline-shift:baseline;display:none;overflow:visible;opacity:1;fill-opacity:0.2;stroke:#ffffff;stroke-width:0.529167;stroke-linecap:round;stroke-linejoin:round;stroke-miterlimit:12;stroke-dasharray:none;stroke-opacity:0.2;paint-order:markers stroke fill;enable-background:accumulate;stop-color:#000000;stop-opacity:1"
       d="m 67.732299,1.5880167 c -36.468656,0 -66.1442823,29.6756263 -66.1442823,66.1442823 0,36.468661 29.6756263,66.146871 66.1442823,66.146871 36.468661,0 66.146871,-29.67821 66.146871,-66.146871 0,-36.468656 -29.67821,-66.1442823 -66.146871,-66.1442823 z m 0,10.5817833 c 30.748998,0 55.562501,24.813501 55.562501,55.562499 0,30.748998 -24.813503,55.562501 -55.562501,55.562501 C 36.983301,123.2948 12.1698,98.481297 12.1698,67.732299 12.1698,36.983301 36.983301,12.1698 67.732299,12.1698 Z m 0,2.64635 c -29.16239,0 -52.916149,23.753759 -52.916149,52.916149 0,29.16239 23.753759,52.918221 52.916149,52.918221 29.16239,0 52.918221,-23.755831 52.918221,-52.918221 0,-29.16239 -23.755831,-52.916149 -52.918221,-52.916149 z m 0,10.584366 c 23.442732,0 42.334371,18.889051 42.334371,42.331783 0,23.442732 -18.891639,42.334371 -42.334371,42.334371 -23.442732,0 -42.331783,-18.891639 -42.331783,-42.334371 0,-23.442732 18.889051,-42.331783 42.331783,-42.331783 z m 0,2.644283 c -21.856122,0 -39.6875,17.831378 -39.6875,39.6875 0,21.856122 17.831378,39.687501 39.6875,39.687501 21.856122,0 39.687501,-17.831379 39.687501,-39.687501 0,-21.856122 -17.831379,-39.6875 -39.687501,-39.6875 z m 0,10.58385 c 16.136465,0 29.105717,12.967185 29.105717,29.10365 0,16.136465 -12.969252,29.105717 -29.105717,29.105717 -16.136465,0 -29.10365,-12.969252 -29.10365,-29.105717 0,-16.136465 12.967185,-29.10365 29.10365,-29.10365 z m 0,2.646867 c -14.549856,0 -26.456783,11.906927 -26.456783,26.456783 0,14.549856 11.906927,26.45885 26.456783,26.45885 14.549856,0 26.45885,-11.908994 26.45885,-26.45885 0,-14.549856 -11.908994,-26.456783 -26.45885,-26.456783 z m 0,10.581783 c 8.830198,0 15.875,7.044802 15.875,15.875 0,8.830198 -7.044802,15.875 -15.875,15.875 -8.830198,0 -15.875,-7.044802 -15.875,-15.875 0,-8.830198 7.044802,-15.875 15.875,-15.875 z m 0,2.64635 c -7.243589,0 -13.22865,5.985061 -13.22865,13.22865 0,7.243589 5.985061,13.230717 13.22865,13.230717 7.243589,0 13.230717,-5.987128 13.230717,-13.230717 0,-7.243589 -5.987128,-13.22865 -13.230717,-13.22865 z m 0,10.584367 c 1.523931,0 2.64635,1.120352 2.64635,2.644283 0,1.523931 -1.122419,2.64635 -2.64635,2.64635 -1.523931,0 -2.644283,-1.122419 -2.644283,-2.64635 0,-1.523931 1.120352,-2.644283 2.644283,-2.644283 z"
       inkscape:label="5"
       sodipodi:insensitive="true" /><circle
       style="display:none;mix-blend-mode:normal;fill:none;stroke:#00ff00;stroke-width:10.5833;stroke-linecap:round;stroke-linejoin:round;stroke-miterlimit:12;stroke-dasharray:none;stroke-opacity:1;paint-order:markers stroke fill"
       id="circle5"
       cx="67.73333"
       cy="67.73333"
       r="62.071487"
       mask="none"
       clip-path="none" /><circle
       style="display:none;mix-blend-mode:normal;fill:none;stroke:#ffff00;stroke-width:10.5833;stroke-linecap:round;stroke-linejoin:round;stroke-miterlimit:12;stroke-dasharray:none;stroke-opacity:1;paint-order:markers stroke fill"
       id="circle6"
       cx="67.73333"
       cy="67.73333"
       r="48.57769"
       clip-path="none" /><circle
       style="display:none;mix-blend-mode:normal;fill:none;stroke:#ff8800;stroke-width:10.5833;stroke-linecap:round;stroke-linejoin:round;stroke-miterlimit:12;stroke-dasharray:none;stroke-opacity:1;paint-order:markers stroke fill"
       id="circle7"
       cx="67.73333"
       cy="67.73333"
       r="35.083885"
       clip-path="none" /><circle
       style="display:none;mix-blend-mode:normal;fill:none;stroke:#ff0000;stroke-width:10.5833;stroke-linecap:round;stroke-linejoin:round;stroke-miterlimit:12;stroke-dasharray:none;stroke-opacity:1;paint-order:markers stroke fill"
       id="circle8"
       cx="67.73333"
       cy="67.73333"
       r="21.590082"
       clip-path="none" /><circle
       style="display:none;mix-blend-mode:normal;fill:none;stroke:#ffffff;stroke-width:10.5833;stroke-linecap:round;stroke-linejoin:round;stroke-miterlimit:12;stroke-dasharray:none;stroke-opacity:1;paint-order:markers stroke fill"
       id="circle9"
       cx="67.73333"
       cy="67.73333"
       r="8.0962811"
       clip-path="none" /><path
       style="fill:none;stroke:url(#linearGradient28);stroke-width:4.23333;stroke-linecap:round;stroke-linejoin:round;stroke-dasharray:none;stroke-opacity:1"
       d="m 67.733335,75.829611 -5e-6,13.493801"
       id="path24"
       inkscape:transform-center-x="2.125e-06"
       inkscape:transform-center-y="14.843178" /><path
       style="fill:none;stroke:url(#linearGradient30);stroke-width:4.23333;stroke-linecap:round;stroke-linejoin:round;stroke-dasharray:none"
       d="m 83.705297,53.193843 9.541561,-9.541554"
       id="path25"
       inkscape:transform-center-x="-20.742744"
       inkscape:transform-center-y="-19.310269" /><path
       style="fill:none;stroke:url(#linearGradient32);stroke-width:4.23333;stroke-linecap:round;stroke-linejoin:round;stroke-dasharray:none"
       d="m 32.287182,67.733335 -13.493801,-5e-6"
       id="path26"
       inkscape:transform-center-x="14.843178"
       inkscape:transform-center-y="-2.5478536e-06" /><path
       style="fill:none;stroke:url(#linearGradient34);stroke-width:4.23333;stroke-linecap:round;stroke-linejoin:round;stroke-dasharray:none"
       d="M 32.284855,33.717334 22.7433,24.175772"
       id="path27"
       inkscape:transform-center-x="40.219254"
       inkscape:transform-center-y="-38.786778" /><path
       style="fill:none;stroke:url(#linearGradient35);stroke-width:4.23333;stroke-linecap:round;stroke-linejoin:round;stroke-dasharray:none"
       d="m 103.18181,101.74933 9.54155,9.54156"
       id="path34"
       inkscape:transform-center-x="-40.219256"
       inkscape:transform-center-y="38.786782" /><path
       style="fill:none;stroke:url(#linearGradient36);stroke-width:4.23333;stroke-linecap:round;stroke-linejoin:round;stroke-dasharray:none"
       d="M 51.761372,82.272826 42.219811,91.81438"
       id="path35"
       inkscape:transform-center-x="20.742744"
       inkscape:transform-center-y="19.310269" /><path
       style="fill:none;stroke:url(#linearGradient37);stroke-width:4.23333;stroke-linecap:round;stroke-linejoin:round;stroke-dasharray:none;stroke-opacity:1"
       d="m 103.17948,67.73333 13.4938,5e-6"
       id="path36"
       inkscape:transform-center-x="-42.193052"
       inkscape:transform-center-y="-0.93535531" /><path
       style="fill:none;stroke:url(#linearGradient38);stroke-width:4.23333;stroke-linecap:round;stroke-linejoin:round;stroke-dasharray:none;stroke-opacity:1"
       d="m 67.733334,59.637057 5e-6,-13.493801"
       id="path37"
       inkscape:transform-center-x="-1.8750002e-06"
       inkscape:transform-center-y="-14.843178" /><path
       id="rect1"
       style="fill:#ff0000;fill-opacity:1;stroke:none;stroke-width:4.23333;stroke-linecap:round;stroke-linejoin:round;stroke-miterlimit:12;stroke-opacity:1;paint-order:markers stroke fill"
       d="m 77.193368,58.256488 c -1.108418,-1.108418 -2.892794,-1.108419 -4.001212,-10e-7 l -5.458824,5.458824 -5.458823,-5.458824 c -1.108418,-1.108418 -2.892794,-1.108417 -4.001212,10e-7 l -0.01681,0.01681 c -1.108418,1.108418 -1.108419,2.892794 -10e-7,4.001212 l 5.458824,5.458824 -5.458824,5.458823 c -1.108418,1.108418 -1.108417,2.892794 10e-7,4.001212 l 0.01681,0.01681 c 1.108418,1.108418 2.892794,1.108419 4.001212,10e-7 l 5.458823,-5.458824 5.458824,5.458824 c 1.108418,1.108418 2.892794,1.108417 4.001212,-10e-7 l 0.01681,-0.01681 c 1.108418,-1.108418 1.108419,-2.892794 10e-7,-4.001212 l -5.458824,-5.458823 5.458824,-5.458824 c 1.108418,-1.108418 1.108417,-2.892794 -10e-7,-4.001212 z" /></g></svg>
