<?xml version="1.0" encoding="UTF-8" standalone="no"?>
<!-- Created with Inkscape (http://www.inkscape.org/) -->

<svg
   width="512"
   height="512"
   viewBox="0 0 135.46666 135.46667"
   version="1.1"
   id="svg5"
   inkscape:version="1.4.2 (ebf0e940d0, 2025-05-08)"
   sodipodi:docname="media-removable.svg"
   xml:space="preserve"
   xmlns:inkscape="http://www.inkscape.org/namespaces/inkscape"
   xmlns:sodipodi="http://sodipodi.sourceforge.net/DTD/sodipodi-0.dtd"
   xmlns:xlink="http://www.w3.org/1999/xlink"
   xmlns="http://www.w3.org/2000/svg"
   xmlns:svg="http://www.w3.org/2000/svg"
   xmlns:rdf="http://www.w3.org/1999/02/22-rdf-syntax-ns#"
   xmlns:cc="http://creativecommons.org/ns#"
   xmlns:dc="http://purl.org/dc/elements/1.1/">&gt;<sodipodi:namedview
   id="namedview7"
   pagecolor="#505050"
   bordercolor="#ffffff"
   borderopacity="1"
   inkscape:showpageshadow="0"
   inkscape:pageopacity="0"
   inkscape:pagecheckerboard="1"
   inkscape:deskcolor="#505050"
   inkscape:document-units="px"
   showgrid="false"
   inkscape:zoom="1"
   inkscape:cx="306.5"
   inkscape:cy="307.5"
   inkscape:window-width="3256"
   inkscape:window-height="1080"
   inkscape:window-x="1864"
   inkscape:window-y="0"
   inkscape:window-maximized="0"
   inkscape:current-layer="svg5" /><defs
   id="defs2"><linearGradient
     id="linearGradient23"
     inkscape:collect="always"><stop
       style="stop-color:#292929;stop-opacity:1;"
       offset="0"
       id="stop23" /><stop
       style="stop-color:#2d2d2d;stop-opacity:1;"
       offset="0.5"
       id="stop25" /><stop
       style="stop-color:#1a1a1a;stop-opacity:1;"
       offset="1"
       id="stop24" /></linearGradient><rect
     x="-305.70736"
     y="115.24367"
     width="132.28433"
     height="103.59712"
     id="rect7243" /><linearGradient
     inkscape:collect="always"
     id="linearGradient14269"><stop
       style="stop-color:#c6c6c6;stop-opacity:1;"
       offset="0"
       id="stop14265" /><stop
       style="stop-color:#8c8c8c;stop-opacity:1;"
       offset="1"
       id="stop14279" /></linearGradient><clipPath
     clipPathUnits="userSpaceOnUse"
     id="clipPath16586"><circle
       style="opacity:1;fill:#999999;fill-opacity:1;stroke:none;stroke-width:1.48167;stroke-linecap:round;stroke-linejoin:round;paint-order:stroke fill markers"
       id="circle16588"
       cx="-4.3258052"
       cy="117.11976"
       r="13.911281"
       transform="rotate(62.103165)" /></clipPath><clipPath
     clipPathUnits="userSpaceOnUse"
     id="clipPath16586-7"><circle
       style="opacity:1;fill:#999999;fill-opacity:1;stroke:none;stroke-width:1.48167;stroke-linecap:round;stroke-linejoin:round;paint-order:stroke fill markers"
       id="circle16588-5"
       cx="-4.3258052"
       cy="117.11976"
       r="13.911281"
       transform="rotate(62.103165)" /></clipPath><clipPath
     clipPathUnits="userSpaceOnUse"
     id="clipPath16586-5"><circle
       style="opacity:1;fill:#999999;fill-opacity:1;stroke:none;stroke-width:1.48167;stroke-linecap:round;stroke-linejoin:round;paint-order:stroke fill markers"
       id="circle16588-0"
       cx="-4.3258052"
       cy="117.11976"
       r="13.911281"
       transform="rotate(62.103165)" /></clipPath><clipPath
     clipPathUnits="userSpaceOnUse"
     id="clipPath16586-7-1"><circle
       style="opacity:1;fill:#999999;fill-opacity:1;stroke:none;stroke-width:1.48167;stroke-linecap:round;stroke-linejoin:round;paint-order:stroke fill markers"
       id="circle16588-5-5"
       cx="-4.3258052"
       cy="117.11976"
       r="13.911281"
       transform="rotate(62.103165)" /></clipPath><clipPath
     clipPathUnits="userSpaceOnUse"
     id="clipPath16586-5-9"><circle
       style="opacity:1;fill:#999999;fill-opacity:1;stroke:none;stroke-width:1.48167;stroke-linecap:round;stroke-linejoin:round;paint-order:stroke fill markers"
       id="circle16588-0-3"
       cx="-4.3258052"
       cy="117.11976"
       r="13.911281"
       transform="rotate(62.103165)" /></clipPath><clipPath
     clipPathUnits="userSpaceOnUse"
     id="clipPath16586-7-1-1"><circle
       style="opacity:1;fill:#999999;fill-opacity:1;stroke:none;stroke-width:1.48167;stroke-linecap:round;stroke-linejoin:round;paint-order:stroke fill markers"
       id="circle16588-5-5-5"
       cx="-4.3258052"
       cy="117.11976"
       r="13.911281"
       transform="rotate(62.103165)" /></clipPath><clipPath
     clipPathUnits="userSpaceOnUse"
     id="clipPath16586-4"><circle
       style="opacity:1;fill:#999999;fill-opacity:1;stroke:none;stroke-width:1.48167;stroke-linecap:round;stroke-linejoin:round;paint-order:stroke fill markers"
       id="circle16588-1"
       cx="-4.3258052"
       cy="117.11976"
       r="13.911281"
       transform="rotate(62.103165)" /></clipPath><clipPath
     clipPathUnits="userSpaceOnUse"
     id="clipPath16586-7-4"><circle
       style="opacity:1;fill:#999999;fill-opacity:1;stroke:none;stroke-width:1.48167;stroke-linecap:round;stroke-linejoin:round;paint-order:stroke fill markers"
       id="circle16588-5-3"
       cx="-4.3258052"
       cy="117.11976"
       r="13.911281"
       transform="rotate(62.103165)" /></clipPath><clipPath
     clipPathUnits="userSpaceOnUse"
     id="clipPath43801"><circle
       style="display:inline;fill:url(#linearGradient43805);fill-opacity:1;stroke:none;stroke-width:0.186739;stroke-linecap:round;stroke-linejoin:round;paint-order:stroke fill markers"
       id="circle43803"
       cx="-6.8715911"
       cy="49.973873"
       r="1.7532779" /></clipPath><linearGradient
     inkscape:collect="always"
     xlink:href="#linearGradient14269"
     id="linearGradient43805"
     gradientUnits="userSpaceOnUse"
     gradientTransform="matrix(0.12603282,0,0,0.12603282,2.167997,45.126984)"
     x1="-71.724083"
     y1="52.368603"
     x2="-71.724083"
     y2="24.54604" /><clipPath
     clipPathUnits="userSpaceOnUse"
     id="clipPath14607"><path
       id="path14609"
       style="display:inline;fill:#cbcbcb;fill-opacity:1;stroke:none;stroke-width:1.82463;stroke-linecap:round;stroke-linejoin:round;paint-order:stroke fill markers"
       d="m -104.51898,-23.696414 c -8.47701,10e-6 -16.31684,2.724282 -22.69577,7.342187 h -7.44244 c -2.26696,0 -4.09174,1.824772 -4.09174,4.09174 v 9.1462121 c -2.88208,5.4188719 -4.51754,11.6016369 -4.51755,18.1673659 1.3e-4,1.280122 0.0635,2.55392 0.18862,3.816821 0.12509,1.262901 0.31202,2.514936 0.55862,3.752226 0.24659,1.23729 0.55314,2.459533 0.91777,3.662825 0.36464,1.203292 0.78738,2.387715 1.26659,3.548622 0.47921,1.160905 1.01475,2.298446 1.60507,3.408577 0.59032,1.110131 0.26273,0.94315 1.93322,3.243728 1.67049,2.300581 0.64957,5.178708 -0.80874,5.892149 -1.45831,0.713436 -5.1418,2.293713 -5.1418,5.14232 v 30.019873 c 0,2.84861 2.29319,5.141802 5.1418,5.141802 h 66.172705 c 2.848607,0 5.141803,-2.293192 5.141803,-5.141802 V 47.518359 c 0,-2.848607 -3.683497,-4.428884 -5.141803,-5.14232 -1.458307,-0.713441 -2.479226,-3.591568 -0.808736,-5.892149 1.670486,-2.300578 1.342892,-2.133597 1.933215,-3.243728 -0.0052,-0.0019 -0.01029,-0.0037 -0.01551,-0.0057 0.589897,-1.107077 1.125728,-2.241547 1.605071,-3.399274 0.480666,-1.160928 0.904692,-2.34515 1.270722,-3.548621 0.366033,-1.203472 0.673989,-2.426237 0.921909,-3.663859 0.247917,-1.237621 0.435909,-2.489885 0.56224,-3.75326 0.12633,-1.263375 0.190968,-2.53764 0.192235,-3.818371 -2.9e-5,-21.3995867 -17.347906,-38.747459 -38.747501,-38.747489 z" /></clipPath><clipPath
     clipPathUnits="userSpaceOnUse"
     id="clipPath24782"><path
       id="path24784"
       style="display:inline;fill:#cbcbcb;fill-opacity:1;stroke:none;stroke-width:1.82463;stroke-linecap:round;stroke-linejoin:round;paint-order:stroke fill markers"
       d="m -114.12565,-33.433961 c -8.47701,10e-6 -16.31684,2.724282 -22.69577,7.342187 h -7.44244 c -2.26696,0 -4.09174,1.824772 -4.09174,4.09174 v 9.146212 c -2.88208,5.4188717 -4.51754,11.6016368 -4.51755,18.1673657 1.3e-4,1.2801221 0.0635,2.5539202 0.18862,3.8168212 0.12509,1.2629011 0.31202,2.5149361 0.55862,3.7522261 0.24659,1.23729 0.55314,2.459533 0.91777,3.662825 0.36464,1.203292 0.78738,2.387715 1.26659,3.548621 0.47921,1.160905 1.01475,2.298446 1.60507,3.408577 0.59032,1.110131 0.26273,0.943151 1.93322,3.243731 1.67049,2.300579 0.64957,5.178708 -0.80874,5.892147 -1.45831,0.713438 -5.1418,2.293712 -5.1418,5.142319 V 67.80069 c 0,2.84861 2.29319,5.141799 5.1418,5.141799 h 66.172711 c 2.84861,0 5.141812,-2.293189 5.141812,-5.141799 V 37.780811 c 0,-2.848607 -3.6835,-4.428881 -5.141812,-5.142319 -1.458309,-0.713439 -2.479228,-3.591568 -0.808728,-5.892147 1.670479,-2.30058 1.34289,-2.1336 1.93321,-3.243731 -0.005,-0.0019 -0.01029,-0.0037 -0.01551,-0.0057 0.589902,-1.107077 1.125731,-2.241549 1.605071,-3.399276 0.480671,-1.160927 0.90469,-2.345148 1.27072,-3.54862 0.36604,-1.203472 0.673991,-2.426237 0.921911,-3.663859 0.24791,-1.237621 0.435909,-2.489885 0.56224,-3.7532603 0.12633,-1.2633751 0.19096,-2.5376402 0.192238,-3.8183711 -2.9e-5,-21.3995866 -17.347909,-38.7474606 -38.747513,-38.7474896 z" /></clipPath><clipPath
     clipPathUnits="userSpaceOnUse"
     id="clipPath33631"><path
       id="path33633"
       style="display:inline;fill:#e6e6e6;fill-opacity:1;stroke:none;stroke-width:1.35542;stroke-linecap:round;stroke-linejoin:round;paint-order:stroke fill markers"
       d="m -70.861337,-16.778488 c -23.526221,0.02115 -47.054663,-0.01976 -70.579733,0.03948 -1.98719,0.192668 -3.33047,2.326926 -2.9945,4.22693 -2.6e-4,33.915107 -0.0186,67.830232 0.0332,101.745312 0.18328,1.991299 2.32369,3.36061 4.22891,3.013681 23.44448,-0.01101 46.892321,0.0423 70.33469,-0.0528 1.975723,-0.26426 3.213687,-2.424501 2.871962,-4.305379 2.64e-4,-33.882555 0.0186,-67.765127 -0.03322,-101.647656 -0.168114,-1.838977 -2.057575,-3.241903 -3.861327,-3.019531 z" /></clipPath><rect
     x="-305.70737"
     y="115.24367"
     width="132.28433"
     height="103.59712"
     id="rect7243-9" /><rect
     x="-305.70737"
     y="115.24367"
     width="132.28433"
     height="103.59712"
     id="rect37632" /><rect
     x="-305.70736"
     y="115.24367"
     width="132.28433"
     height="103.59712"
     id="rect37634" /><clipPath
     clipPathUnits="userSpaceOnUse"
     id="clipPath114026"><path
       id="path114028"
       style="fill:#ff0000;fill-opacity:1;stroke-width:0.264583;stroke-linecap:square;stroke-linejoin:round;paint-order:fill markers stroke"
       d="m -74.693112,80.76721 c -0.119952,0.006 -0.214458,0.104836 -0.214458,0.226343 v 0.03617 0.71882 h 0.452686 v -0.71882 -0.03617 c 0,-0.121507 -0.0945,-0.220342 -0.214458,-0.226343 h -5.29e-4 c -0.0039,-1.93e-4 -0.0075,0 -0.01138,0 -0.0039,0 -0.008,-1.93e-4 -0.01188,0 z m 0.61133,0 c -0.119951,0.006 -0.214455,0.104836 -0.214455,0.226343 v 0.03617 0.71882 h 0.452683 v -0.71882 -0.03617 c 0,-0.121507 -0.0945,-0.220342 -0.214455,-0.226343 -0.0039,-1.93e-4 -0.008,0 -0.01188,0 -0.0039,0 -0.008,-1.93e-4 -0.01188,0 z m 0.611333,0 c -0.119951,0.006 -0.214458,0.104836 -0.214458,0.226343 v 0.03617 0.71882 h 0.452686 v -0.71882 -0.03617 c 0,-0.121507 -0.0945,-0.220342 -0.214458,-0.226343 -0.0039,-1.93e-4 -0.008,0 -0.01188,0 -0.0039,0 -0.008,-1.93e-4 -0.01188,0 z m 0.611333,0 c -0.119954,0.006 -0.214458,0.104836 -0.214458,0.226343 v 0.03617 0.71882 h 0.452686 v -0.71882 -0.03617 c 0,-0.121507 -0.0945,-0.220342 -0.214458,-0.226343 -0.0039,-1.93e-4 -0.008,0 -0.01188,0 -0.0039,0 -0.008,-1.93e-4 -0.01188,0 z m 0.611849,0 c -0.119954,0.006 -0.214974,0.104836 -0.214974,0.226343 v 0.03617 0.71882 h 0.452686 v -0.71882 -0.03617 c 0,-0.121507 -0.0945,-0.220342 -0.214458,-0.226343 -0.0039,-1.93e-4 -0.008,0 -0.01188,0 -0.0039,0 -0.0075,-1.93e-4 -0.01138,0 z m 0.61133,0 c -0.119951,0.006 -0.214455,0.104836 -0.214455,0.226343 v 0.03617 0.71882 h 0.452686 v -0.71882 -0.03617 c 0,-0.121507 -0.0945,-0.220342 -0.214458,-0.226343 h -5.29e-4 c -0.0039,-1.93e-4 -0.0075,0 -0.01138,0 -0.0039,0 -0.008,-1.93e-4 -0.01188,0 z m 0.611333,0 c -0.119951,0.006 -0.214458,0.104836 -0.214458,0.226343 v 0.03617 0.71882 h 0.452687 v -0.71882 -0.03617 c 0,-0.121507 -0.0945,-0.220342 -0.214456,-0.226343 -0.0039,-1.93e-4 -0.008,0 -0.01188,0 -0.0039,0 -0.008,-1.93e-4 -0.01188,0 z m 0.611333,0 c -0.119951,0.006 -0.214458,0.104836 -0.214458,0.226343 v 0.03617 0.71882 h 0.452687 v -0.71882 -0.03617 c 0,-0.121507 -0.0945,-0.220342 -0.214458,-0.226343 -0.0039,-1.93e-4 -0.008,0 -0.01188,0 -0.0039,0 -0.008,-1.93e-4 -0.01188,0 z m 1.423168,1.802993 v 0.452683 h 0.71882 0.03617 c 0.125426,0 0.226343,-0.100915 0.226343,-0.22634 0,-0.0039 1.93e-4,-0.008 0,-0.01188 -0.006,-0.119954 -0.104836,-0.214458 -0.226343,-0.214458 h -0.03617 z m -7.24607,0.08992 c -0.121507,0 -0.220342,0.0945 -0.22634,0.214458 -1.96e-4,0.0039 0,0.008 0,0.01188 0,0.125426 0.100914,0.22634 0.22634,0.22634 h 0.03617 0.71882 V 82.66011 h -0.71882 z m -9.796301,0.146762 c -0.119954,0.006 -0.214455,0.104836 -0.214455,0.226343 v 0.03617 0.718818 h 0.452686 v -0.718818 -0.03617 c 0,-0.125426 -0.100915,-0.226343 -0.226343,-0.226343 -0.0039,0 -0.008,-1.96e-4 -0.01188,0 z m 0.611333,0 c -0.119954,0.006 -0.214458,0.104836 -0.214458,0.226343 v 0.03617 0.718818 h 0.452686 v -0.718818 -0.03617 c 0,-0.125426 -0.100914,-0.226343 -0.226343,-0.226343 -0.0039,0 -0.008,-1.96e-4 -0.01188,0 z m 0.611333,0 c -0.119954,0.006 -0.214458,0.104836 -0.214458,0.226343 v 0.03617 0.718818 h 0.452686 v -0.718818 -0.03617 c 0,-0.125426 -0.100914,-0.226343 -0.226343,-0.226343 -0.0039,0 -0.008,-1.96e-4 -0.01188,0 z m 0.611333,0 c -0.119957,0.006 -0.214458,0.104836 -0.214458,0.226343 v 0.03617 0.718818 h 0.452684 v -0.718818 -0.03617 c 0,-0.125426 -0.100915,-0.226343 -0.226341,-0.226343 -0.0039,0 -0.008,-1.96e-4 -0.01188,0 z m 0.611331,0 c -0.119955,0.006 -0.214456,0.104836 -0.214456,0.226343 v 0.03617 0.718818 h 0.452684 v -0.718818 -0.03617 c 0,-0.125426 -0.100915,-0.226343 -0.226341,-0.226343 -0.0039,0 -0.008,-1.96e-4 -0.01188,0 z m 0.611848,0 c -0.119954,0.006 -0.214455,0.104836 -0.214455,0.226343 v 0.03617 0.718818 h 0.452684 v -0.718818 -0.03617 c 0,-0.125426 -0.100915,-0.226343 -0.226341,-0.226343 -0.0039,0 -0.008,-1.96e-4 -0.01188,0 z m 0.611333,0 c -0.119956,0.006 -0.214458,0.104836 -0.214458,0.226343 v 0.03617 0.718818 h 0.452687 v -0.718818 -0.03617 c 0,-0.125426 -0.100915,-0.226343 -0.226343,-0.226343 -0.0039,0 -0.008,-1.96e-4 -0.01188,0 z m 0.611331,0 c -0.119954,0.006 -0.214456,0.104836 -0.214456,0.226343 v 0.03617 0.718818 h 0.452687 v -0.718818 -0.03617 c 0,-0.125426 -0.100915,-0.226343 -0.226343,-0.226343 -0.0039,0 -0.008,-1.96e-4 -0.01188,0 z m 0.611333,0 c -0.119954,0.006 -0.214458,0.104836 -0.214458,0.226343 v 0.03617 0.718818 h 0.452686 v -0.718818 -0.03617 c 0,-0.125426 -0.100915,-0.226343 -0.226343,-0.226343 -0.0039,0 -0.008,-1.96e-4 -0.01188,0 z m 12.151196,0.396359 v 0.452168 h 0.71882 0.03617 c 0.125426,0 0.226343,-0.100915 0.226343,-0.226343 0,-0.0039 1.93e-4,-0.0075 0,-0.01138 -0.006,-0.119954 -0.104836,-0.214458 -0.226343,-0.214458 h -0.03617 z m -7.24607,0.0894 c -0.121507,0 -0.220342,0.0945 -0.22634,0.214455 -1.96e-4,0.0039 0,0.008 0,0.01188 0,0.125429 0.100914,0.226343 0.22634,0.226343 h 0.03617 0.71882 v -0.452686 h -0.71882 z m 7.24607,0.543118 v 0.452686 h 0.71882 0.03617 c 0.125426,0 0.226343,-0.100914 0.226343,-0.226343 0,-0.0039 1.93e-4,-0.008 0,-0.01188 -0.006,-0.119957 -0.104836,-0.214459 -0.226343,-0.214459 h -0.03617 z m -7.257436,0.08992 c -0.116274,0.0057 -0.209164,0.09825 -0.214974,0.214456 -1.96e-4,0.0039 0,0.008 0,0.01188 0,0.125425 0.100914,0.22634 0.22634,0.22634 h 0.03617 0.71882 v -0.452683 h -0.71882 -0.03617 c -0.0038,0 -0.0076,-1.83e-4 -0.01138,0 z m -11.443229,0.501262 c -0.119952,0.006 -0.214458,0.104833 -0.214458,0.226343 0,0.0039 -1.96e-4,0.008 0,0.01188 0.006,0.119955 0.104833,0.214458 0.226343,0.214458 h 0.03617 0.71882 v -0.452686 h -0.71882 -0.03617 c -0.0039,0 -0.008,-1.96e-4 -0.01188,0 z m 7.42642,0.03824 v 0.452683 h 0.718817 0.03617 c 0.121508,0 0.220343,-0.0945 0.226343,-0.214455 1.96e-4,-0.0039 0,-0.008 0,-0.01188 0,-0.125428 -0.100917,-0.226343 -0.226343,-0.226343 h -0.03617 z m 11.274245,0.0031 v 0.452687 h 0.71882 0.03617 c 0.125426,0 0.226343,-0.100915 0.226343,-0.226344 0,-0.0039 1.93e-4,-0.008 0,-0.01188 -0.006,-0.119954 -0.104836,-0.214456 -0.226343,-0.214456 h -0.03617 z m -7.257436,0.08992 c -0.116274,0.0057 -0.209164,0.09825 -0.214974,0.214455 -1.96e-4,0.0039 0,0.008 0,0.01188 0,0.125428 0.100914,0.226343 0.22634,0.226343 h 0.03617 0.71882 v -0.452686 h -0.71882 -0.03617 c -0.0038,0 -0.0076,-1.8e-4 -0.01138,0 z m -11.43703,0.480073 c -0.122693,0.0031 -0.220657,0.102875 -0.220657,0.226343 0,0.0039 -1.96e-4,0.008 0,0.01188 0.006,0.119954 0.104833,0.214458 0.226343,0.214458 h 0.03617 0.71882 v -0.452686 h -0.71882 -0.03617 c -0.0021,0 -0.0037,-5.1e-5 -0.0057,0 z m 7.420221,0.03824 v 0.452686 h 0.718817 0.03617 c 0.121508,0 0.220343,-0.0945 0.226343,-0.214458 1.96e-4,-0.0039 0,-0.008 0,-0.01188 0,-0.125426 -0.100917,-0.226341 -0.226343,-0.226341 h -0.03617 z m 11.274245,0.02429 v 0.452683 h 0.71882 0.03617 c 0.125426,0 0.226343,-0.100914 0.226343,-0.226343 0,-0.0039 1.93e-4,-0.008 0,-0.01188 -0.006,-0.119955 -0.104836,-0.214458 -0.226343,-0.214458 h -0.03617 z m -7.257436,0.08992 c -0.116274,0.0057 -0.209164,0.09825 -0.214974,0.214458 -1.96e-4,0.0039 0,0.008 0,0.01188 0,0.125429 0.100914,0.226343 0.22634,0.226343 h 0.03617 0.71882 v -0.452686 h -0.71882 -0.03617 c -0.0038,0 -0.0076,-1.82e-4 -0.01138,0 z m -11.43703,0.458885 c -0.122693,0.0031 -0.220657,0.102875 -0.220657,0.226343 0,0.0039 -1.96e-4,0.008 0,0.01188 0.006,0.119954 0.104833,0.214458 0.226343,0.214458 h 0.03617 0.71882 v -0.452686 h -0.71882 -0.03617 c -0.0021,0 -0.0037,-5.1e-5 -0.0057,0 z m 7.420221,0.03824 v 0.452686 h 0.718817 0.03617 c 0.121508,0 0.220343,-0.0945 0.226343,-0.214458 1.96e-4,-0.0039 0,-0.008 0,-0.01188 0,-0.125429 -0.100917,-0.226344 -0.226343,-0.226344 h -0.03617 z m 11.274245,0.04547 v 0.452687 h 0.71882 0.03617 c 0.125426,0 0.226343,-0.100915 0.226343,-0.226343 0,-0.0039 1.93e-4,-0.008 0,-0.01188 -0.006,-0.119954 -0.104836,-0.214458 -0.226343,-0.214458 h -0.03617 z m -7.24607,0.08992 c -0.121507,0 -0.220342,0.0945 -0.22634,0.214458 -1.96e-4,0.0039 0,0.008 0,0.01188 0,0.125428 0.100914,0.226343 0.22634,0.226343 h 0.03617 0.71882 v -0.452686 h -0.71882 z m -11.44271,0.4377 c -0.125429,0 -0.226343,0.100915 -0.226343,0.226343 0,0.0039 -1.96e-4,0.008 0,0.01188 0.006,0.119954 0.104833,0.214456 0.226343,0.214456 h 0.03617 0.71882 v -0.452684 h -0.71882 z m 7.414535,0.03824 v 0.452686 h 0.718817 0.03617 c 0.121508,0 0.220343,-0.0945 0.226343,-0.214458 1.96e-4,-0.0039 0,-0.008 0,-0.01188 0,-0.125428 -0.100917,-0.226343 -0.226343,-0.226343 h -0.03617 z m 11.274245,0.06666 v 0.452686 h 0.71882 0.03617 c 0.125426,0 0.226343,-0.100915 0.226343,-0.226343 0,-0.0039 1.93e-4,-0.008 0,-0.01188 -0.006,-0.119954 -0.104836,-0.214455 -0.226343,-0.214455 h -0.03617 z m -7.24607,0.08992 c -0.121507,0 -0.220342,0.0945 -0.22634,0.214458 -1.96e-4,0.0039 0,0.008 0,0.01188 0,0.125428 0.100914,0.226343 0.22634,0.226343 h 0.03617 0.71882 v -0.452684 h -0.71882 z m -11.454595,0.417028 c -0.119952,0.006 -0.214458,0.104833 -0.214458,0.226343 0,0.0039 -1.96e-4,0.008 0,0.01188 0.006,0.119954 0.104833,0.214456 0.226343,0.214456 h 0.03617 0.71882 v -0.452687 h -0.71882 -0.03617 c -0.0039,0 -0.008,-1.93e-4 -0.01188,0 z m 7.42642,0.03824 v 0.452687 h 0.718817 0.03617 c 0.121508,0 0.220343,-0.0945 0.226343,-0.214458 1.96e-4,-0.0039 0,-0.008 0,-0.01188 0,-0.125429 -0.100917,-0.226343 -0.226343,-0.226343 h -0.03617 z m 11.274245,0.08733 v 0.452686 h 0.71882 0.03617 c 0.125426,0 0.226343,-0.100915 0.226343,-0.226343 0,-0.0039 1.93e-4,-0.008 0,-0.01188 -0.006,-0.119954 -0.104836,-0.214455 -0.226343,-0.214455 h -0.03617 z m -7.24607,0.08992 c -0.121507,0 -0.220342,0.0945 -0.22634,0.214456 -1.96e-4,0.0039 0,0.008 0,0.01188 0,0.125429 0.100914,0.226343 0.22634,0.226343 h 0.03617 0.71882 v -0.452686 h -0.71882 z m -11.454595,0.395841 c -0.119952,0.006 -0.214458,0.104835 -0.214458,0.226343 0,0.0039 -1.96e-4,0.008 0,0.01188 0.006,0.119954 0.104833,0.214455 0.226343,0.214455 h 0.03617 0.71882 V 87.48411 h -0.71882 -0.03617 c -0.0039,0 -0.008,-1.95e-4 -0.01188,0 z m 7.42642,0.03824 v 0.452686 h 0.718817 0.03617 c 0.121508,0 0.220343,-0.0945 0.226343,-0.214455 1.96e-4,-0.0039 0,-0.008 0,-0.01188 0,-0.125428 -0.100917,-0.226343 -0.226343,-0.226343 h -0.03617 z m 11.274245,0.10904 v 0.452683 h 0.71882 0.03617 c 0.125426,0 0.226343,-0.100914 0.226343,-0.226343 0,-0.0039 1.93e-4,-0.008 0,-0.01188 -0.006,-0.119955 -0.104836,-0.214456 -0.226343,-0.214456 h -0.03617 z m -7.257436,0.08992 c -0.116272,0.0057 -0.209164,0.09825 -0.214974,0.214458 -1.96e-4,0.0039 0,0.008 0,0.01188 0,0.125426 0.100914,0.226341 0.226343,0.226341 H -76.2 -75.48118 V 87.7213 H -76.2 -76.23617 c -0.0038,0 -0.0076,-1.82e-4 -0.01138,0 z m -11.437028,0.374136 c -0.122695,0.0031 -0.220659,0.102876 -0.220659,0.226343 0,0.0039 -1.96e-4,0.008 0,0.01188 0.006,0.119957 0.104833,0.214458 0.226343,0.214458 h 0.03617 0.718817 v -0.452686 h -0.718817 -0.03617 c -0.0021,0 -0.0037,-4.8e-5 -0.0057,0 z m 7.420219,0.03824 v 0.452687 h 0.71882 0.03617 c 0.12151,0 0.220345,-0.0945 0.226343,-0.214458 1.96e-4,-0.0039 0,-0.008 0,-0.01188 0,-0.125428 -0.100914,-0.226343 -0.226343,-0.226343 h -0.03617 z m 11.274247,0.130226 v 0.452686 h 0.71882 0.03617 c 0.125428,0 0.226343,-0.100915 0.226343,-0.226343 0,-0.0039 1.96e-4,-0.008 0,-0.01188 -0.006,-0.119954 -0.104836,-0.214458 -0.226343,-0.214458 h -0.03617 z m -7.257438,0.08992 c -0.116272,0.0057 -0.209161,0.09825 -0.214974,0.214458 -1.96e-4,0.0039 0,0.008 0,0.01188 0,0.125429 0.100917,0.226343 0.226343,0.226343 H -76.2 -75.48118 V 88.35383 H -76.2 -76.23617 c -0.0038,0 -0.0076,-1.82e-4 -0.01138,0 z m -11.437028,0.352952 c -0.122695,0.0031 -0.220659,0.102875 -0.220659,0.226343 0,0.0039 -1.96e-4,0.008 0,0.01188 0.006,0.119954 0.104835,0.214453 0.226343,0.214453 h 0.03617 0.718817 V 88.70679 h -0.718817 -0.03617 c -0.0021,0 -0.0037,-5.1e-5 -0.0057,0 z m 7.420219,0.03824 v 0.452686 h 0.71882 0.03617 c 0.12151,0 0.220345,-0.0945 0.226343,-0.214458 1.96e-4,-0.0039 0,-0.008 0,-0.01188 0,-0.125429 -0.100914,-0.226344 -0.226343,-0.226344 h -0.03617 z m 11.274247,0.151411 v 0.452686 h 0.71882 0.03617 c 0.125428,0 0.226343,-0.10091 0.226343,-0.226341 0,-0.004 1.96e-4,-0.008 0,-0.01191 -0.006,-0.119957 -0.104836,-0.214458 -0.226343,-0.214458 h -0.03617 z m -7.257438,0.08992 c -0.116272,0.0057 -0.209161,0.09826 -0.214974,0.214455 -1.96e-4,0.004 0,0.008 0,0.01191 0,0.125431 0.100917,0.226351 0.226343,0.226351 H -76.2 -75.48118 V 88.986393 H -76.2 -76.23617 c -0.0038,0 -0.0076,-1.85e-4 -0.01138,0 z m -11.431344,0.331764 c -0.125426,0 -0.226343,0.100912 -0.226343,0.22634 0,0.004 -1.96e-4,0.008 0,0.01191 0.006,0.119949 0.104835,0.214461 0.226343,0.214461 h 0.03617 0.718817 v -0.452692 h -0.718817 z m 7.414535,0.0382 v 0.452681 h 0.71882 0.03617 c 0.12151,0 0.220345,-0.0945 0.226343,-0.21445 1.96e-4,-0.004 0,-0.008 0,-0.01191 0,-0.125429 -0.100914,-0.226349 -0.226343,-0.226349 h -0.03617 z m 11.274247,0.172601 v 0.452681 h 0.71882 0.03617 c 0.125428,0 0.226343,-0.100912 0.226343,-0.22634 0,-0.004 1.96e-4,-0.008 0,-0.01191 -0.006,-0.119959 -0.104836,-0.21446 -0.226343,-0.21446 h -0.03617 z m -7.246069,0.0899 c -0.121507,0 -0.220343,0.0945 -0.226343,0.21445 -1.96e-4,0.004 0,0.008 0,0.01191 0,0.125431 0.100917,0.226351 0.226343,0.226351 H -76.2 -75.48118 V 89.618853 H -76.2 Z m 7.246069,0.5426 v 0.452681 h 0.71882 0.03617 c 0.125428,0 0.226343,-0.100912 0.226343,-0.226341 0,-0.004 1.96e-4,-0.008 0,-0.01191 -0.006,-0.119949 -0.104836,-0.214461 -0.226343,-0.214461 h -0.03617 z m -7.246069,0.0899 c -0.121507,0 -0.220343,0.0945 -0.226343,0.214461 -1.96e-4,0.004 0,0.008 0,0.01191 0,0.12542 0.100917,0.22634 0.226343,0.22634 H -76.2 -75.48118 V 90.251353 H -76.2 Z m -10.048999,0.196371 v 0.71882 0.0362 c 0,0.12151 0.0945,0.22034 0.214458,0.226341 0.0039,2.01e-4 0.008,0 0.01188,0 0.125429,0 0.226343,-0.10091 0.226343,-0.226341 v -0.0362 -0.71882 z m 0.611333,0 v 0.71882 0.0362 c 0,0.12151 0.0945,0.22034 0.214455,0.226341 0.0039,2.01e-4 0.008,0 0.01188,0 0.125428,0 0.226343,-0.10091 0.226343,-0.226341 v -0.0362 -0.71882 z m 0.61133,0 v 0.71882 0.0362 c 0,0.12151 0.0945,0.22034 0.214458,0.226341 0.0039,2.01e-4 0.008,0 0.01188,0 0.125428,0 0.22634,-0.10091 0.22634,-0.226341 v -0.0362 -0.71882 z m 0.611333,0 v 0.71882 0.0362 c 0,0.12151 0.0945,0.22034 0.214458,0.226341 0.0039,2.01e-4 0.008,0 0.01188,0 0.125425,0 0.22634,-0.10091 0.22634,-0.226341 v -0.0362 -0.71882 z m 0.611333,0 v 0.71882 0.0362 c 0,0.12151 0.0945,0.22034 0.214455,0.226341 0.0039,2.01e-4 0.008,0 0.01188,0 0.125428,0 0.226343,-0.10091 0.226343,-0.226341 v -0.0362 -0.71882 z m 0.611849,0 v 0.71882 0.0362 c 0,0.12151 0.0945,0.22034 0.214455,0.226341 0.0039,2.01e-4 0.008,0 0.01188,0 0.125428,0 0.226343,-0.10091 0.226343,-0.226341 v -0.0362 -0.71882 z m 0.61133,0 v 0.71882 0.0362 c 0,0.12151 0.0945,0.22034 0.214458,0.226341 0.0039,2.01e-4 0.008,0 0.01188,0 0.125428,0 0.226343,-0.10091 0.226343,-0.226341 v -0.0362 -0.71882 z m 0.611333,0 v 0.71882 0.0362 c 0,0.12151 0.0945,0.22034 0.214458,0.226341 0.0039,2.01e-4 0.008,0 0.01188,0 0.125428,0 0.226343,-0.10091 0.226343,-0.226341 v -0.0362 -0.71882 z m 0.611333,0 v 0.71882 0.0362 c 0,0.12151 0.0945,0.22034 0.214458,0.226341 0.0039,2.01e-4 0.008,0 0.01188,0 0.125428,0 0.226343,-0.10091 0.226343,-0.226341 v -0.0362 -0.71882 z m 12.403894,0.346231 v 0.452689 h 0.71882 0.03617 c 0.125428,0 0.226343,-0.10092 0.226343,-0.226348 0,-0.004 1.96e-4,-0.008 0,-0.01191 -0.006,-0.119949 -0.104836,-0.21445 -0.226343,-0.21445 h -0.03617 z m -7.246069,0.0899 c -0.121507,0 -0.220343,0.0945 -0.226343,0.214461 -1.96e-4,0.004 0,0.008 0,0.01191 0,0.125431 0.100917,0.226341 0.226343,0.226341 H -76.2 -75.48118 V 90.883864 H -76.2 Z m 7.246069,0.543121 v 0.452689 h 0.71882 0.03617 c 0.125428,0 0.226343,-0.10092 0.226343,-0.226351 0,-0.004 1.96e-4,-0.008 0,-0.01191 -0.006,-0.119963 -0.104836,-0.214451 -0.226343,-0.214451 h -0.03617 z m -7.246069,0.0894 c -0.121336,0 -0.220089,0.0953 -0.226343,0.214972 -1.56e-4,0.004 0,0.007 0,0.0114 0,0.125429 0.100917,0.226859 0.226343,0.226859 H -76.2 -75.48118 V 91.516386 H -76.2 Z m 7.246069,0.543121 v 0.452681 h 0.71882 0.03617 c 0.125428,0 0.226343,-0.100909 0.226343,-0.22634 0,-0.004 1.96e-4,-0.008 0,-0.01191 -0.006,-0.119959 -0.104836,-0.21445 -0.226343,-0.21445 h -0.03617 z m -7.257438,0.0899 c -0.116272,0.006 -0.209161,0.0982 -0.214974,0.214461 -1.96e-4,0.004 0,0.008 0,0.01191 0,0.125429 0.100917,0.226338 0.226343,0.226338 H -76.2 -75.48118 V 92.149395 H -76.2 -76.23617 c -0.0038,0 -0.0076,-1.8e-4 -0.01138,0 z m 7.257438,0.5426 v 0.452691 h 0.71882 0.03617 c 0.125428,0 0.226343,-0.10092 0.226343,-0.226351 0,-0.004 1.96e-4,-0.008 0,-0.01191 -0.006,-0.119951 -0.104836,-0.21445 -0.226343,-0.21445 h -0.03617 z m -7.257438,0.0899 c -0.116272,0.006 -0.209161,0.0983 -0.214974,0.214461 -1.96e-4,0.004 0,0.008 0,0.01191 0,0.125428 0.100917,0.226338 0.226343,0.226338 H -76.2 -75.48118 V 92.781905 H -76.2 -76.23617 c -0.0038,0 -0.0076,-1.9e-4 -0.01138,0 z m 7.257438,0.5426 v 0.452691 h 0.71882 0.03617 c 0.125428,0 0.226343,-0.100909 0.226343,-0.22634 0,-0.004 1.96e-4,-0.008 0,-0.01191 -0.006,-0.119949 -0.104836,-0.214458 -0.226343,-0.214458 h -0.03617 z m -7.257438,0.0899 c -0.116272,0.006 -0.209161,0.0983 -0.214974,0.21446 -1.96e-4,0.004 0,0.008 0,0.01191 0,0.125428 0.100917,0.22634 0.226343,0.22634 H -76.2 -75.48118 V 93.414404 H -76.2 -76.23617 c -0.0038,0 -0.0076,-1.8e-4 -0.01138,0 z m 1.339969,1.184952 v 0.718809 0.0362 c 0,0.125428 0.100914,0.226348 0.226343,0.226348 0.0039,0 0.0075,1.91e-4 0.01138,0 h 5.29e-4 c 0.119954,-0.006 0.214455,-0.104838 0.214455,-0.226348 v -0.0362 -0.718809 z m 0.611333,0 v 0.718809 0.0362 c 0,0.125428 0.100914,0.226348 0.226343,0.226348 0.0039,0 0.008,1.91e-4 0.01188,0 0.119954,-0.006 0.214455,-0.104838 0.214455,-0.226348 v -0.0362 -0.718809 z m 0.611333,0 v 0.718809 0.0362 c 0,0.125428 0.100914,0.226348 0.226343,0.226348 0.0039,0 0.008,1.91e-4 0.01188,0 0.119954,-0.006 0.214455,-0.104838 0.214455,-0.226348 v -0.0362 -0.718809 z m 0.61133,0 v 0.718809 0.0362 c 0,0.125428 0.100915,0.226348 0.226343,0.226348 0.0039,0 0.008,1.91e-4 0.01188,0 0.119957,-0.006 0.214458,-0.104838 0.214458,-0.226348 v -0.0362 -0.718809 z m 0.611333,0 v 0.718809 0.0362 c 0,0.125428 0.100915,0.226348 0.226343,0.226348 0.0039,0 0.008,1.91e-4 0.01188,0 0.119954,-0.006 0.214455,-0.104838 0.214455,-0.226348 v -0.0362 -0.718809 z m 0.611849,0 v 0.718809 0.0362 c 0,0.125428 0.100915,0.226348 0.226343,0.226348 0.0039,0 0.0075,1.91e-4 0.01138,0 h 5.29e-4 c 0.119955,-0.006 0.214456,-0.104838 0.214456,-0.226348 v -0.0362 -0.718809 z m 0.611333,0 v 0.718809 0.0362 c 0,0.125428 0.100915,0.226348 0.226343,0.226348 0.0039,0 0.008,1.91e-4 0.01188,0 0.119957,-0.006 0.214458,-0.104838 0.214458,-0.226348 v -0.0362 -0.718809 z m 0.611333,0 v 0.718809 0.0362 c 0,0.125428 0.100912,0.226348 0.22634,0.226348 0.0039,0 0.008,1.91e-4 0.01188,0 0.119954,-0.006 0.214458,-0.104838 0.214458,-0.226348 v -0.0362 -0.718809 z m 0.61133,0 v 0.718809 0.0362 c 0,0.125428 0.100915,0.226348 0.226344,0.226348 0.0039,0 0.008,1.91e-4 0.01188,0 0.119957,-0.006 0.214458,-0.104838 0.214458,-0.226348 v -0.0362 -0.718809 z" /></clipPath><clipPath
     clipPathUnits="userSpaceOnUse"
     id="clipPath55"><path
       style="color:#000000;fill:#b3b3b3;stroke-width:0.999998;stroke-linejoin:round;-inkscape-stroke:none;paint-order:markers stroke fill"
       d="m 249.05645,-4.6561798 c -4.39943,-4.3994474 -11.48077,-4.399435 -15.88023,2.04e-5 l -30.50647,30.5064794 -25.07636,25.076346 -7.94013,7.94013 c 0,0 -8.0495,16.406841 -7.9868,23.86702 0.0627,7.460183 1.91201,13.857197 6.53057,18.475744 4.61851,4.61852 11.01345,6.4656 18.47386,6.52869 7.46037,0.0631 23.86897,-7.984858 23.86897,-7.984858 l 7.94012,-7.940137 25.07631,-25.076335 30.50653,-30.506474 c 4.39944,-4.399487 4.39751,-11.482794 -0.003,-15.882206 z M 188.05319,81.353429 a 8.4465225,8.4465225 0 0 1 -1e-5,11.945175 8.4465225,8.4465225 0 0 1 -11.94518,1.1e-5 8.4465225,8.4465225 0 0 1 0,-11.945176 8.4465225,8.4465225 0 0 1 11.94519,-10e-6 z"
       id="path56" /></clipPath><clipPath
     clipPathUnits="userSpaceOnUse"
     id="clipPath59"><path
       style="color:#000000;fill:#b3b3b3;stroke-width:0.999998;stroke-linejoin:round;-inkscape-stroke:none;paint-order:markers stroke fill"
       d="m 347.48242,-15.644766 c -4.39944,-4.399441 -11.4808,-4.399422 -15.88024,1.8e-5 l -30.50651,30.506497 -25.07633,25.076335 -7.94012,7.94013 c 0,0 -8.04951,16.406846 -7.98682,23.867025 0.0627,7.46017 1.91202,13.8572 6.53058,18.475761 4.61851,4.618508 11.01344,6.46557 18.47384,6.528649 7.4604,0.0631 23.86899,-7.98485 23.86899,-7.98485 l 7.94012,-7.940129 25.07633,-25.076335 30.50651,-30.506496 c 4.39944,-4.39944 4.39748,-11.482748 -0.003,-15.8821881 z m -61.00328,86.009615 a 8.4465222,8.4465222 0 0 1 0,11.945181 8.4465222,8.4465222 0 0 1 -11.9452,0 8.4465222,8.4465222 0 0 1 0,-11.945181 8.4465222,8.4465222 0 0 1 11.9452,0 z"
       id="path60" /></clipPath><clipPath
     clipPathUnits="userSpaceOnUse"
     id="clipPath61"><path
       id="path62"
       style="fill:url(#linearGradient62);fill-opacity:1;stroke:none;stroke-width:3.17499;stroke-linejoin:round;paint-order:markers stroke fill"
       d="m 82.455283,-44.324483 c -4.871962,0 -8.792911,3.92097 -8.792912,8.792931 l 3e-6,33.7830374 -6e-6,27.7696496 v 8.792936 c 0,0 4.627484,13.541538 8.792915,17.637546 4.165431,4.095996 8.73145,6.614071 13.846067,6.614071 5.11456,0 9.67817,-2.518166 13.84394,-6.61408 4.16577,-4.095897 8.79507,-17.637538 8.79507,-17.637538 l 1e-5,-8.792935 -1e-5,-27.7696525 1e-5,-33.7830335 c 0,-4.871959 -3.92312,-8.792931 -8.79512,-8.792892 z m 13.846068,81.401382 a 6.6140773,6.6140773 0 0 1 6.614069,6.614071 6.6140773,6.6140773 0 0 1 -6.614076,6.614079 6.6140773,6.6140773 0 0 1 -6.614072,-6.614071 6.6140773,6.6140773 0 0 1 6.614079,-6.614079 z" /></clipPath><linearGradient
     inkscape:collect="always"
     xlink:href="#linearGradient23"
     id="linearGradient62"
     gradientUnits="userSpaceOnUse"
     gradientTransform="matrix(4.1663479,1.465004e-7,-1.465004e-7,4.1663479,-354.47938,227.6165)"
     x1="102.76188"
     y1="-52.863062"
     x2="113.62943"
     y2="-52.863062" /><filter
     inkscape:collect="always"
     style="color-interpolation-filters:sRGB"
     id="filter99"
     x="-0.065637768"
     y="-0.067219735"
     width="1.1312755"
     height="1.1344395"><feGaussianBlur
       inkscape:collect="always"
       stdDeviation="1.4992312"
       id="feGaussianBlur99" /></filter></defs>  <metadata
   id="metadata1">
    <rdf:RDF>
      <cc:Work
   rdf:about="">
        <dc:creator>
          <cc:Agent>
            <dc:title>Jess Tipton</dc:title>
          </cc:Agent>
        </dc:creator>
        <dc:publisher>
          <cc:Agent>
            <dc:title>m0dw3rks.com</dc:title>
          </cc:Agent>
        </dc:publisher>
        <cc:license
   rdf:resource="https://creativecommons.org/licenses/by-nc-nd/4.0/deed.en" />
      </cc:Work>
    </rdf:RDF>
  </metadata>
  <metadata
   id="metadata6">
    <rdf:RDF>
      <cc:Work
   rdf:about="">
        <dc:creator>
          <cc:Agent>
            <dc:title>Jess Tipton</dc:title>
          </cc:Agent>
        </dc:creator>
        <cc:license
   rdf:resource="https://creativecommons.org/licenses/by-nc-nd/4.0/deed.en" />
        <dc:publisher>
          <cc:Agent>
            <dc:title>m0dw3rks.com</dc:title>
          </cc:Agent>
        </dc:publisher>
      </cc:Work>
    </rdf:RDF>
  </metadata>
  <metadata
   id="metadata2">
    <rdf:RDF>
      <cc:Work
   rdf:about="">
        <dc:creator>
          <cc:Agent>
            <dc:title>Jess Tipton</dc:title>
          </cc:Agent>
        </dc:creator>
        <cc:license
   rdf:resource="https://creativecommons.org/licenses/by-nc-nd/4.0/deed.en" />
        <dc:publisher>
          <cc:Agent>
            <dc:title>m0dw3rks.com</dc:title>
          </cc:Agent>
        </dc:publisher>
      </cc:Work>
    </rdf:RDF>
  </metadata>
  <metadata
   id="metadata3">
    <rdf:RDF>
      <cc:Work
   rdf:about="">
        <dc:creator>
          <cc:Agent>
            <dc:title>Jess Tipton</dc:title>
          </cc:Agent>
        </dc:creator>
        <cc:license
   rdf:resource="https://creativecommons.org/licenses/by-nc-nd/4.0/deed.en" />
        <dc:publisher>
          <cc:Agent>
            <dc:title>m0dw3rks.com</dc:title>
          </cc:Agent>
        </dc:publisher>
      </cc:Work>
    </rdf:RDF>
  </metadata>
  <metadata
   id="metadata4">
    <rdf:RDF>
      <cc:Work
   rdf:about="">
        <dc:creator>
          <cc:Agent>
            <dc:title>Jess Tipton</dc:title>
          </cc:Agent>
        </dc:creator>
        <cc:license
   rdf:resource="https://creativecommons.org/licenses/by-nc-nd/4.0/deed.en" />
        <dc:publisher>
          <cc:Agent>
            <dc:title>m0dw3rks.com</dc:title>
          </cc:Agent>
        </dc:publisher>
      </cc:Work>
    </rdf:RDF>
  </metadata>
  <metadata
   id="metadata5">
    <rdf:RDF>
      <cc:Work
   rdf:about="">
        <dc:creator>
          <cc:Agent>
            <dc:title>Jess Tipton</dc:title>
          </cc:Agent>
        </dc:creator>
        <cc:license
   rdf:resource="https://creativecommons.org/licenses/by-nc-nd/4.0/deed.en" />
        <dc:publisher>
          <cc:Agent>
            <dc:title>m0dw3rks.com</dc:title>
          </cc:Agent>
        </dc:publisher>
      </cc:Work>
    </rdf:RDF>
  </metadata>
  <metadata
   id="metadata7">
    <rdf:RDF>
      <cc:Work
   rdf:about="">
        <dc:creator>
          <cc:Agent>
            <dc:title>Jess Tipton</dc:title>
          </cc:Agent>
        </dc:creator>
        <cc:license
   rdf:resource="https://creativecommons.org/licenses/by-nc-nd/4.0/deed.en" />
        <dc:publisher>
          <cc:Agent>
            <dc:title>m0dw3rks.com</dc:title>
          </cc:Agent>
        </dc:publisher>
      </cc:Work>
    </rdf:RDF>
  </metadata>
  <metadata
   id="metadata8">
    <rdf:RDF>
      <cc:Work
   rdf:about="">
        <dc:creator>
          <cc:Agent>
            <dc:title>Jess Tipton</dc:title>
          </cc:Agent>
        </dc:creator>
        <cc:license
   rdf:resource="https://creativecommons.org/licenses/by-nc-nd/4.0/deed.en" />
        <dc:publisher>
          <cc:Agent>
            <dc:title>m0dw3rks.com</dc:title>
          </cc:Agent>
        </dc:publisher>
      </cc:Work>
    </rdf:RDF>
  </metadata>
  <metadata
   id="metadata9">
    <rdf:RDF>
      <cc:Work
   rdf:about="">
        <dc:creator>
          <cc:Agent>
            <dc:title>Jess Tipton</dc:title>
          </cc:Agent>
        </dc:creator>
        <cc:license
   rdf:resource="https://creativecommons.org/licenses/by-nc-nd/4.0/deed.en" />
        <dc:publisher>
          <cc:Agent>
            <dc:title>m0dw3rks.com</dc:title>
          </cc:Agent>
        </dc:publisher>
      </cc:Work>
    </rdf:RDF>
  </metadata>
  <metadata
   id="metadata10">
    <rdf:RDF>
      <cc:Work
   rdf:about="">
        <dc:creator>
          <cc:Agent>
            <dc:title>Jess Tipton</dc:title>
          </cc:Agent>
        </dc:creator>
        <cc:license
   rdf:resource="https://creativecommons.org/licenses/by-nc-nd/4.0/deed.en" />
        <dc:publisher>
          <cc:Agent>
            <dc:title>m0dw3rks.com</dc:title>
          </cc:Agent>
        </dc:publisher>
      </cc:Work>
    </rdf:RDF>
  </metadata>
  <metadata
   id="metadata11">
    <rdf:RDF>
      <cc:Work
   rdf:about="">
        <dc:creator>
          <cc:Agent>
            <dc:title>Jess Tipton</dc:title>
          </cc:Agent>
        </dc:creator>
        <cc:license
   rdf:resource="https://creativecommons.org/licenses/by-nc-nd/4.0/deed.en" />
        <dc:publisher>
          <cc:Agent>
            <dc:title>m0dw3rks.com</dc:title>
          </cc:Agent>
        </dc:publisher>
      </cc:Work>
    </rdf:RDF>
  </metadata>
  <metadata
   id="metadata12">
    <rdf:RDF>
      <cc:Work
   rdf:about="">
        <dc:creator>
          <cc:Agent>
            <dc:title>Jess Tipton</dc:title>
          </cc:Agent>
        </dc:creator>
        <cc:license
   rdf:resource="https://creativecommons.org/licenses/by-nc-nd/4.0/deed.en" />
        <dc:publisher>
          <cc:Agent>
            <dc:title>m0dw3rks.com</dc:title>
          </cc:Agent>
        </dc:publisher>
      </cc:Work>
    </rdf:RDF>
  </metadata>
  <metadata
   id="metadata13">
    <rdf:RDF>
      <cc:Work
   rdf:about="">
        <dc:creator>
          <cc:Agent>
            <dc:title>Jess Tipton</dc:title>
          </cc:Agent>
        </dc:creator>
        <cc:license
   rdf:resource="https://creativecommons.org/licenses/by-nc-nd/4.0/deed.en" />
        <dc:publisher>
          <cc:Agent>
            <dc:title>m0dw3rks.com</dc:title>
          </cc:Agent>
        </dc:publisher>
      </cc:Work>
    </rdf:RDF>
  </metadata>
  <metadata
   id="metadata14">
    <rdf:RDF>
      <cc:Work
   rdf:about="">
        <dc:creator>
          <cc:Agent>
            <dc:title>Jess Tipton</dc:title>
          </cc:Agent>
        </dc:creator>
        <cc:license
   rdf:resource="https://creativecommons.org/licenses/by-nc-nd/4.0/deed.en" />
        <dc:publisher>
          <cc:Agent>
            <dc:title>m0dw3rks.com</dc:title>
          </cc:Agent>
        </dc:publisher>
      </cc:Work>
    </rdf:RDF>
  </metadata>
  <metadata
   id="metadata15">
    <rdf:RDF>
      <cc:Work
   rdf:about="">
        <dc:creator>
          <cc:Agent>
            <dc:title>Jess Tipton</dc:title>
          </cc:Agent>
        </dc:creator>
        <cc:license
   rdf:resource="https://creativecommons.org/licenses/by-nc-nd/4.0/deed.en" />
        <dc:publisher>
          <cc:Agent>
            <dc:title>m0dw3rks.com</dc:title>
          </cc:Agent>
        </dc:publisher>
      </cc:Work>
    </rdf:RDF>
  </metadata>
  <metadata
   id="metadata16">
    <rdf:RDF>
      <cc:Work
   rdf:about="">
        <dc:creator>
          <cc:Agent>
            <dc:title>Jess Tipton</dc:title>
          </cc:Agent>
        </dc:creator>
        <cc:license
   rdf:resource="https://creativecommons.org/licenses/by-nc-nd/4.0/deed.en" />
        <dc:publisher>
          <cc:Agent>
            <dc:title>m0dw3rks.com</dc:title>
          </cc:Agent>
        </dc:publisher>
      </cc:Work>
    </rdf:RDF>
  </metadata>
  <metadata
   id="metadata17">
    <rdf:RDF>
      <cc:Work
   rdf:about="">
        <dc:creator>
          <cc:Agent>
            <dc:title>Jess Tipton</dc:title>
          </cc:Agent>
        </dc:creator>
        <cc:license
   rdf:resource="https://creativecommons.org/licenses/by-nc-nd/4.0/deed.en" />
        <dc:publisher>
          <cc:Agent>
            <dc:title>m0dw3rks.com</dc:title>
          </cc:Agent>
        </dc:publisher>
      </cc:Work>
    </rdf:RDF>
  </metadata>
  <metadata
   id="metadata18">
    <rdf:RDF>
      <cc:Work
   rdf:about="">
        <dc:creator>
          <cc:Agent>
            <dc:title>Jess Tipton</dc:title>
          </cc:Agent>
        </dc:creator>
        <cc:license
   rdf:resource="https://creativecommons.org/licenses/by-nc-nd/4.0/deed.en" />
        <dc:publisher>
          <cc:Agent>
            <dc:title>m0dw3rks.com</dc:title>
          </cc:Agent>
        </dc:publisher>
      </cc:Work>
    </rdf:RDF>
  </metadata>
<g
   id="g3"
   inkscape:label="Eject-bright-blue"
   style="display:inline;stroke-width:0.484937"
   transform="matrix(2.0621214,0,0,2.0621214,-135.45042,-134.55724)"><path
     id="path99"
     style="display:inline;mix-blend-mode:normal;fill:#0088ff;fill-opacity:0.999256;stroke:#808080;stroke-width:1.53967;stroke-linecap:round;stroke-linejoin:round;stroke-dasharray:none;stroke-opacity:1;paint-order:markers stroke fill"
     inkscape:transform-center-x="1.1508182e-06"
     inkscape:transform-center-y="-7.6036876"
     d="M 98.531423,66.021689 66.887868,101.75853 H 130.17497 Z M 67.066668,112.3491 c -0.09901,0 -0.1788,0.0798 -0.1788,0.1788 v 17.46818 c 0,0.099 0.07979,0.1788 0.1788,0.1788 h 62.929502 c 0.099,0 0.1788,-0.0798 0.1788,-0.1788 V 112.5279 c 0,-0.099 -0.0798,-0.1788 -0.1788,-0.1788 z"
     sodipodi:nodetypes="ccccsssssssss" /><path
     id="path97"
     style="display:inline;opacity:0.25181;fill:#ffffff;fill-opacity:1;stroke:none;stroke-width:0.513229;stroke-linecap:round;stroke-linejoin:round;stroke-dasharray:none;stroke-opacity:0.44;paint-order:markers stroke fill;filter:url(#filter99)"
     inkscape:transform-center-x="1.1508182e-06"
     inkscape:transform-center-y="-7.6036876"
     d="M 76.294108,97.713517 H 120.76872 C 113.35596,89.343084 105.9432,80.972641 98.530438,72.602198 c -7.41211,8.370443 -14.82422,16.740886 -22.23633,25.111319 z m -5.17187,28.416933 H 125.9406 v -9.35742 H 71.122238 Z"
     sodipodi:nodetypes="ccccccccc" /></g></svg>
