<?xml version="1.0" encoding="UTF-8" standalone="no"?>
<!-- Created with Inkscape (http://www.inkscape.org/) -->

<svg
   width="512"
   height="512"
   viewBox="0 0 135.46666 135.46667"
   version="1.1"
   id="svg5"
   inkscape:version="1.4 (e7c3feb100, 2024-10-09)"
   sodipodi:docname="notification-audio-volume-low.svg"
   xmlns:inkscape="http://www.inkscape.org/namespaces/inkscape"
   xmlns:sodipodi="http://sodipodi.sourceforge.net/DTD/sodipodi-0.dtd"
   xmlns="http://www.w3.org/2000/svg"
   xmlns:svg="http://www.w3.org/2000/svg">
  <sodipodi:namedview
     id="namedview7"
     pagecolor="#242424"
     bordercolor="#666666"
     borderopacity="1"
     inkscape:showpageshadow="0"
     inkscape:pageopacity="0"
     inkscape:pagecheckerboard="1"
     inkscape:deskcolor="#000000"
     inkscape:document-units="px"
     showgrid="false"
     inkscape:zoom="0.65186406"
     inkscape:cx="412.66273"
     inkscape:cy="260.02354"
     inkscape:window-width="3256"
     inkscape:window-height="1080"
     inkscape:window-x="1864"
     inkscape:window-y="0"
     inkscape:window-maximized="0"
     inkscape:current-layer="layer1" />
  <defs
     id="defs2" />
  <g
     inkscape:label="Layer 1"
     inkscape:groupmode="layer"
     id="layer1">
    <path
       id="path1-6"
       style="fill:#ffffff;stroke:none;stroke-width:0.529171;stroke-linecap:round;stroke-linejoin:round;stroke-dasharray:none;stroke-opacity:1;paint-order:markers stroke fill"
       inkscape:transform-center-x="42.725576"
       inkscape:transform-center-y="1.8477945e-06"
       d="M 2.600572e-5,67.733326 71.519506,4.1179455 V 131.34872 Z"
       sodipodi:nodetypes="cccc"
       inkscape:export-filename="../../../../www/www-fsrv/mail/gfx/audio-on.png"
       inkscape:export-xdpi="1.3729192"
       inkscape:export-ydpi="1.3729192" />
    <rect
       style="fill:#ffffff;fill-opacity:1;stroke:none;stroke-width:0.529171;stroke-linecap:round;stroke-linejoin:round;stroke-dasharray:none;stroke-opacity:1;paint-order:markers stroke fill"
       id="rect1-7"
       width="26.367649"
       height="63.663502"
       x="-1.3489331e-06"
       y="35.901585"
       rx="5.0693283"
       ry="5.0693283" />
    <path
       style="color:#000000;display:none;fill:#ffffff;stroke:#ffffff;stroke-width:8.46667;stroke-linecap:round;stroke-linejoin:round;stroke-dasharray:none;stroke-opacity:1;paint-order:markers stroke fill"
       d="m 119.31564,27.046206 a 2.183688,2.183688 0 0 0 -1.65042,0.270315 l -0.35008,0.216587 a 2.183688,2.183688 0 0 0 -0.70602,3.003681 c 5.79613,9.378294 9.48705,22.579202 9.48705,37.196786 0,14.61759 -3.69097,27.819385 -9.48705,37.197625 a 2.183688,2.183688 0 0 0 0.71023,3.00536 l 0.34923,0.21575 a 2.183688,2.183688 0 0 0 3.00451,-0.7102 c 6.36764,-10.303014 10.20148,-24.292847 10.20148,-39.708535 0,-15.415684 -3.83384,-29.406363 -10.20148,-39.709367 a 2.183688,2.183688 0 0 0 -1.35745,-0.978002 z"
       id="path36" />
    <path
       style="color:#000000;display:none;fill:#ffffff;stroke:#ffffff;stroke-width:8.46667;stroke-linecap:round;stroke-linejoin:round;stroke-dasharray:none;stroke-opacity:1;paint-order:markers stroke fill"
       d="m 101.50174,42.476799 a 2.183688,2.183688 0 0 0 -1.649585,0.266957 l -0.256906,0.158663 a 2.183688,2.183688 0 0 0 -0.70937,3.00536 c 3.366761,5.447475 5.552381,13.21345 5.552381,21.825796 0,8.612349 -2.18562,16.378322 -5.552381,21.8258 a 2.183688,2.183688 0 0 0 0.712723,3.007038 l 0.256905,0.157824 a 2.183688,2.183688 0 0 0 3.002003,-0.711046 c 3.92505,-6.350875 6.24998,-14.887524 6.24998,-24.279616 0,-9.39209 -2.32489,-17.928681 -6.24998,-24.279613 a 2.183688,2.183688 0 0 0 -1.35577,-0.977163 z"
       id="path38" />
    <path
       style="color:#000000;fill:#ffffff;stroke:#ffffff;stroke-width:8.46667;stroke-linecap:round;stroke-linejoin:round;stroke-dasharray:none;stroke-opacity:1;paint-order:markers stroke fill"
       d="m 83.672728,57.900678 a 2.183688,2.183688 0 0 0 -1.649593,0.266955 l -0.109947,0.06799 a 2.183688,2.183688 0 0 0 -0.70937,3.00536 c 0.944651,1.528477 1.628576,3.871546 1.628576,6.492584 0,2.621041 -0.683968,4.963328 -1.628576,6.491748 a 2.183688,2.183688 0 0 0 0.70937,3.005357 l 0.109947,0.068 A 2.183688,2.183688 0 0 0 85.0285,76.589315 c 1.482352,-2.398443 2.300208,-5.483784 2.300208,-8.855741 0,-3.371954 -0.817899,-6.458186 -2.300208,-8.856577 a 2.183688,2.183688 0 0 0 -1.355772,-0.976319 z"
       id="path40" />
  </g>
</svg>
