<?xml version="1.0" encoding="UTF-8" standalone="no"?>
<!-- Created with Inkscape (http://www.inkscape.org/) -->

<svg
   width="512"
   height="512"
   viewBox="0 0 135.46666 135.46667"
   version="1.1"
   id="svg5"
   inkscape:version="1.3.2 (091e20ef0f, 2023-11-25, custom)"
   sodipodi:docname="octopi-indicator.svg"
   xmlns:inkscape="http://www.inkscape.org/namespaces/inkscape"
   xmlns:sodipodi="http://sodipodi.sourceforge.net/DTD/sodipodi-0.dtd"
   xmlns:xlink="http://www.w3.org/1999/xlink"
   xmlns="http://www.w3.org/2000/svg"
   xmlns:svg="http://www.w3.org/2000/svg"
   xmlns:rdf="http://www.w3.org/1999/02/22-rdf-syntax-ns#"
   xmlns:cc="http://creativecommons.org/ns#"
   xmlns:dc="http://purl.org/dc/elements/1.1/"><sodipodi:namedview
   id="namedview7"
   pagecolor="#292929"
   bordercolor="#666666"
   borderopacity="1"
   inkscape:showpageshadow="0"
   inkscape:pageopacity="0"
   inkscape:pagecheckerboard="1"
   inkscape:deskcolor="#1a1a1a"
   inkscape:document-units="px"
   showgrid="false"
   inkscape:zoom="1.1953126"
   inkscape:cx="492.33983"
   inkscape:cy="228.39214"
   inkscape:window-width="3256"
   inkscape:window-height="1080"
   inkscape:window-x="1864"
   inkscape:window-y="0"
   inkscape:window-maximized="0"
   inkscape:current-layer="layer1"
   showguides="false" />










&gt;
  <defs
   id="defs2">
  <inkscape:path-effect
     effect="powerstroke"
     id="path-effect90"
     is_visible="true"
     lpeversion="1.3"
     scale_width="1"
     interpolator_type="CubicBezierJohan"
     interpolator_beta="0.2"
     start_linecap_type="zerowidth"
     end_linecap_type="zerowidth"
     offset_points="0.23188114,-4.8837982"
     linejoin_type="extrp_arc"
     miter_limit="4"
     not_jump="false"
     sort_points="true"
     message="&lt;b&gt;Ctrl + click&lt;/b&gt; on existing node and move it" />
  <inkscape:path-effect
     effect="powerstroke"
     id="path-effect88"
     is_visible="true"
     lpeversion="1.3"
     scale_width="1"
     interpolator_type="CubicBezierJohan"
     interpolator_beta="0.2"
     start_linecap_type="zerowidth"
     end_linecap_type="zerowidth"
     offset_points="0.27055101,5.504263"
     linejoin_type="extrp_arc"
     miter_limit="4"
     not_jump="false"
     sort_points="true"
     message="&lt;b&gt;Ctrl + click&lt;/b&gt; on existing node and move it" />
  <inkscape:path-effect
     effect="powerstroke"
     id="path-effect83"
     is_visible="true"
     lpeversion="1.3"
     scale_width="1"
     interpolator_type="CubicBezierJohan"
     interpolator_beta="0.2"
     start_linecap_type="zerowidth"
     end_linecap_type="zerowidth"
     offset_points="0,4.8837982"
     linejoin_type="extrp_arc"
     miter_limit="4"
     not_jump="false"
     sort_points="true"
     message="&lt;b&gt;Ctrl + click&lt;/b&gt; on existing node and move it" />
  <inkscape:path-effect
     effect="powerstroke"
     id="path-effect81"
     is_visible="true"
     lpeversion="1.3"
     scale_width="1"
     interpolator_type="CubicBezierJohan"
     interpolator_beta="0.2"
     start_linecap_type="zerowidth"
     end_linecap_type="zerowidth"
     offset_points="0,4.8837982"
     linejoin_type="extrp_arc"
     miter_limit="4"
     not_jump="false"
     sort_points="true"
     message="&lt;b&gt;Ctrl + click&lt;/b&gt; on existing node and move it" />
  <inkscape:path-effect
     effect="powerstroke"
     id="path-effect76"
     is_visible="true"
     lpeversion="1.3"
     scale_width="1"
     interpolator_type="CubicBezierJohan"
     interpolator_beta="0.2"
     start_linecap_type="zerowidth"
     end_linecap_type="zerowidth"
     offset_points="3,6"
     linejoin_type="extrp_arc"
     miter_limit="4"
     not_jump="false"
     sort_points="true"
     message="&lt;b&gt;Ctrl + click&lt;/b&gt; on existing node and move it" />
  <inkscape:path-effect
     effect="powerstroke"
     id="path-effect74"
     is_visible="true"
     lpeversion="1.3"
     scale_width="1"
     interpolator_type="CubicBezierJohan"
     interpolator_beta="0.2"
     start_linecap_type="zerowidth"
     end_linecap_type="zerowidth"
     offset_points="0,6"
     linejoin_type="extrp_arc"
     miter_limit="4"
     not_jump="false"
     sort_points="true"
     message="&lt;b&gt;Ctrl + click&lt;/b&gt; on existing node and move it" />
  <inkscape:path-effect
     effect="powerstroke"
     id="path-effect39"
     is_visible="true"
     lpeversion="1.3"
     scale_width="1"
     interpolator_type="CubicBezierJohan"
     interpolator_beta="0.2"
     start_linecap_type="zerowidth"
     end_linecap_type="zerowidth"
     offset_points="3,6"
     linejoin_type="extrp_arc"
     miter_limit="4"
     not_jump="false"
     sort_points="true"
     message="&lt;b&gt;Ctrl + click&lt;/b&gt; on existing node and move it" />
  <inkscape:path-effect
     effect="powerstroke"
     id="path-effect37"
     is_visible="true"
     lpeversion="1.3"
     scale_width="1"
     interpolator_type="CubicBezierJohan"
     interpolator_beta="0.2"
     start_linecap_type="zerowidth"
     end_linecap_type="zerowidth"
     offset_points="0,6"
     linejoin_type="extrp_arc"
     miter_limit="4"
     not_jump="false"
     sort_points="true"
     message="&lt;b&gt;Ctrl + click&lt;/b&gt; on existing node and move it" />
  <inkscape:path-effect
     effect="powerstroke"
     id="path-effect35"
     is_visible="true"
     lpeversion="1.3"
     scale_width="1"
     interpolator_type="CubicBezierJohan"
     interpolator_beta="0.2"
     start_linecap_type="zerowidth"
     end_linecap_type="zerowidth"
     offset_points="0.23188114,-4.8837982"
     linejoin_type="extrp_arc"
     miter_limit="4"
     not_jump="false"
     sort_points="true"
     message="&lt;b&gt;Ctrl + click&lt;/b&gt; on existing node and move it" />
  <inkscape:path-effect
     effect="powerstroke"
     id="path-effect33"
     is_visible="true"
     lpeversion="1.3"
     scale_width="1"
     interpolator_type="CubicBezierJohan"
     interpolator_beta="0.2"
     start_linecap_type="zerowidth"
     end_linecap_type="zerowidth"
     offset_points="0,4.8837982"
     linejoin_type="extrp_arc"
     miter_limit="4"
     not_jump="false"
     sort_points="true"
     message="&lt;b&gt;Ctrl + click&lt;/b&gt; on existing node and move it" />
  <inkscape:path-effect
     effect="powerstroke"
     id="path-effect31"
     is_visible="true"
     lpeversion="1.3"
     scale_width="1"
     interpolator_type="CubicBezierJohan"
     interpolator_beta="0.2"
     start_linecap_type="zerowidth"
     end_linecap_type="zerowidth"
     offset_points="0.27055101,5.504263"
     linejoin_type="extrp_arc"
     miter_limit="4"
     not_jump="false"
     sort_points="true"
     message="&lt;b&gt;Ctrl + click&lt;/b&gt; on existing node and move it" />
  <inkscape:path-effect
     effect="powerstroke"
     id="path-effect29"
     is_visible="true"
     lpeversion="1.3"
     scale_width="1"
     interpolator_type="CubicBezierJohan"
     interpolator_beta="0.2"
     start_linecap_type="zerowidth"
     end_linecap_type="zerowidth"
     offset_points="0,4.8837982"
     linejoin_type="extrp_arc"
     miter_limit="4"
     not_jump="false"
     sort_points="true"
     message="&lt;b&gt;Ctrl + click&lt;/b&gt; on existing node and move it" />
  <inkscape:path-effect
     effect="bend_path"
     id="path-effect424"
     is_visible="true"
     lpeversion="1"
     bendpath="M 162.65697,11.388202 H 220.9802"
     prop_scale="1"
     scale_y_rel="false"
     vertical="false"
     hide_knot="false" />
  <inkscape:path-effect
     effect="bend_path"
     id="path-effect422"
     is_visible="true"
     lpeversion="1"
     bendpath="m -17.823854,21.370529 c 0,0 -10.98826,32.103266 -29.95971,35.567881 -18.97145,3.464615 -17.154488,-39.001537 -15.340449,-61.437343 1.814039,-22.435807 -13.441955,-9.671254 -13.441955,-9.671254"
     prop_scale="1.11"
     scale_y_rel="false"
     vertical="false"
     hide_knot="false"
     bendpath-nodetypes="czzc" />
  <inkscape:path-effect
     effect="bend_path"
     id="path-effect342"
     is_visible="true"
     lpeversion="1"
     bendpath="m 9.7505114,-6.1864393 c 0,0 12.9382246,0 19.4073366,0 6.469112,0 12.938225,0 19.407335,0 6.469113,0 12.938225,0 19.407338,0 6.469113,0 12.938223,0 19.407336,0 6.469112,0 12.938223,0 19.407343,0 6.46911,0 12.93822,0 19.40734,0 6.46911,0 12.93821,0 19.40732,0 6.46912,0 19.40734,0 19.40734,0"
     prop_scale="1"
     scale_y_rel="false"
     vertical="false"
     hide_knot="false" />
  <inkscape:path-effect
     effect="bend_path"
     id="path-effect341"
     is_visible="true"
     lpeversion="1"
     bendpath="M 85.1409,-17.00565 H 96.4244"
     prop_scale="1"
     scale_y_rel="false"
     vertical="false"
     hide_knot="false" />
  <inkscape:path-effect
     effect="bend_path"
     id="path-effect97"
     is_visible="true"
     lpeversion="1"
     bendpath="m 229.04627,-11.856619 c 0,0 12.20933,-5.012191 24.96629,0.634519 12.75695,5.6467098 0.17966,53.087802 27.62183,52.613697 37.20081,-8.556333 34.38651,-47.2393781 34.38651,-47.2393781"
     prop_scale="1"
     scale_y_rel="false"
     vertical="false"
     hide_knot="false"
     bendpath-nodetypes="czzc" />
  <inkscape:path-effect
     effect="bend_path"
     id="path-effect98"
     is_visible="true"
     lpeversion="1"
     bendpath="m 150.49544,30.774165 c 0,0 37.85008,-31.59673431 44.31919,-31.59673431 17.1122,6.69585511 4.01335,36.97877331 31.30417,47.34164531 27.29082,10.362872 39.8019,4.507009 48.13018,-10.098751 8.32828,-14.605759 9.33329,-41.875548 9.33329,-41.875548"
     prop_scale="1.096"
     scale_y_rel="false"
     vertical="false"
     hide_knot="false"
     bendpath-nodetypes="czzzc" />
  <linearGradient
     id="linearGradient19"
     inkscape:collect="always">
    <stop
       style="stop-color:#6f8a91;stop-opacity:1;"
       offset="0"
       id="stop19" />
    <stop
       style="stop-color:#53676c;stop-opacity:1;"
       offset="1"
       id="stop20" />
  </linearGradient>
  <linearGradient
     id="linearGradient1916">
    <stop
       style="stop-color:#53676c;stop-opacity:1;"
       offset="0.65956956"
       id="stop1918" />
    <stop
       style="stop-color:#6f8a91;stop-opacity:1;"
       offset="0.7270236"
       id="stop1927" />
    <stop
       style="stop-color:#53676c;stop-opacity:0;"
       offset="1"
       id="stop1919" />
  </linearGradient>
  <linearGradient
     id="linearGradient1916-1">
    <stop
       style="stop-color:#53676c;stop-opacity:0;"
       offset="0"
       id="stop1920" />
    <stop
       style="stop-color:#53676c;stop-opacity:1;"
       offset="0.5"
       id="stop1916" />
    <stop
       style="stop-color:#53676c;stop-opacity:0;"
       offset="1"
       id="stop1917" />
  </linearGradient>
  <inkscape:path-effect
     effect="powerstroke"
     id="path-effect13"
     is_visible="true"
     lpeversion="1.3"
     scale_width="1"
     interpolator_type="CubicBezierJohan"
     interpolator_beta="0.2"
     start_linecap_type="zerowidth"
     end_linecap_type="zerowidth"
     offset_points="0.088805865,6.8729204"
     linejoin_type="extrp_arc"
     miter_limit="4"
     not_jump="false"
     sort_points="true"
     message="&lt;b&gt;Ctrl + click&lt;/b&gt; on existing node and move it" />
  <inkscape:path-effect
     effect="powerstroke"
     id="path-effect12"
     is_visible="true"
     lpeversion="1.3"
     scale_width="1"
     interpolator_type="CubicBezierJohan"
     interpolator_beta="0.2"
     start_linecap_type="zerowidth"
     end_linecap_type="zerowidth"
     offset_points="0.053964977,7.1004956"
     linejoin_type="extrp_arc"
     miter_limit="4"
     not_jump="false"
     sort_points="true"
     message="&lt;b&gt;Ctrl + click&lt;/b&gt; on existing node and move it" />
  <inkscape:path-effect
     effect="powerstroke"
     id="path-effect11"
     is_visible="true"
     lpeversion="1.3"
     scale_width="1"
     interpolator_type="CubicBezierJohan"
     interpolator_beta="0.2"
     start_linecap_type="zerowidth"
     end_linecap_type="zerowidth"
     offset_points="0,4.8837982"
     linejoin_type="extrp_arc"
     miter_limit="4"
     not_jump="false"
     sort_points="true"
     message="&lt;b&gt;Ctrl + click&lt;/b&gt; on existing node and move it" />
  <inkscape:path-effect
     effect="powerstroke"
     id="path-effect10"
     is_visible="true"
     lpeversion="1.3"
     scale_width="1"
     interpolator_type="CubicBezierJohan"
     interpolator_beta="0.2"
     start_linecap_type="zerowidth"
     end_linecap_type="zerowidth"
     offset_points="0,4.8837982"
     linejoin_type="extrp_arc"
     miter_limit="4"
     not_jump="false"
     sort_points="true"
     message="&lt;b&gt;Ctrl + click&lt;/b&gt; on existing node and move it" />
  <inkscape:path-effect
     effect="powerstroke"
     id="path-effect9"
     is_visible="true"
     lpeversion="1.3"
     scale_width="1"
     interpolator_type="CubicBezierJohan"
     interpolator_beta="0.2"
     start_linecap_type="zerowidth"
     end_linecap_type="zerowidth"
     offset_points="0.23188114,-4.8837982"
     linejoin_type="extrp_arc"
     miter_limit="4"
     not_jump="false"
     sort_points="true"
     message="&lt;b&gt;Ctrl + click&lt;/b&gt; on existing node and move it" />
  <inkscape:path-effect
     effect="powerstroke"
     id="path-effect8"
     is_visible="true"
     lpeversion="1.3"
     scale_width="1"
     interpolator_type="CubicBezierJohan"
     interpolator_beta="0.2"
     start_linecap_type="zerowidth"
     end_linecap_type="zerowidth"
     offset_points="0,5.504263"
     linejoin_type="extrp_arc"
     miter_limit="4"
     not_jump="false"
     sort_points="true"
     message="&lt;b&gt;Ctrl + click&lt;/b&gt; on existing node and move it" />
  <inkscape:path-effect
     effect="powerstroke"
     id="path-effect7"
     is_visible="true"
     lpeversion="1.3"
     scale_width="1"
     interpolator_type="CubicBezierJohan"
     interpolator_beta="0.2"
     start_linecap_type="zerowidth"
     end_linecap_type="zerowidth"
     offset_points="0.27055101,5.504263"
     linejoin_type="extrp_arc"
     miter_limit="4"
     not_jump="false"
     sort_points="true"
     message="&lt;b&gt;Ctrl + click&lt;/b&gt; on existing node and move it" />
  <inkscape:path-effect
     effect="powerstroke"
     id="path-effect6"
     is_visible="true"
     lpeversion="1.3"
     scale_width="1"
     interpolator_type="CubicBezierJohan"
     interpolator_beta="0.2"
     start_linecap_type="zerowidth"
     end_linecap_type="zerowidth"
     offset_points="0,6"
     linejoin_type="extrp_arc"
     miter_limit="4"
     not_jump="false"
     sort_points="true"
     message="&lt;b&gt;Ctrl + click&lt;/b&gt; on existing node and move it" />
  <inkscape:path-effect
     effect="powerstroke"
     id="path-effect5"
     is_visible="true"
     lpeversion="1.3"
     scale_width="1"
     interpolator_type="CubicBezierJohan"
     interpolator_beta="0.2"
     start_linecap_type="zerowidth"
     end_linecap_type="zerowidth"
     offset_points="2,6"
     linejoin_type="extrp_arc"
     miter_limit="4"
     not_jump="false"
     sort_points="true"
     message="&lt;b&gt;Ctrl + click&lt;/b&gt; on existing node and move it" />
  <inkscape:path-effect
     effect="powerstroke"
     id="path-effect4"
     is_visible="true"
     lpeversion="1.3"
     scale_width="1"
     interpolator_type="CubicBezierJohan"
     interpolator_beta="0.2"
     start_linecap_type="zerowidth"
     end_linecap_type="zerowidth"
     offset_points="3,6"
     linejoin_type="extrp_arc"
     miter_limit="4"
     not_jump="false"
     sort_points="true"
     message="&lt;b&gt;Ctrl + click&lt;/b&gt; on existing node and move it" />
  <inkscape:path-effect
     effect="powerstroke"
     id="path-effect3"
     is_visible="true"
     lpeversion="1.3"
     scale_width="1"
     interpolator_type="CubicBezierJohan"
     interpolator_beta="0.2"
     start_linecap_type="zerowidth"
     end_linecap_type="zerowidth"
     offset_points="1,12"
     linejoin_type="extrp_arc"
     miter_limit="4"
     not_jump="false"
     sort_points="true"
     message="&lt;b&gt;Ctrl + click&lt;/b&gt; on existing node and move it" />
  <inkscape:path-effect
     effect="powerstroke"
     id="path-effect2"
     is_visible="true"
     lpeversion="1.3"
     scale_width="1"
     interpolator_type="CubicBezierJohan"
     interpolator_beta="0.2"
     start_linecap_type="zerowidth"
     end_linecap_type="zerowidth"
     offset_points="1,56.08"
     linejoin_type="extrp_arc"
     miter_limit="4"
     not_jump="false"
     sort_points="true"
     message="&lt;b&gt;Ctrl + click&lt;/b&gt; on existing node and move it" />
  <clipPath
     clipPathUnits="userSpaceOnUse"
     id="clipPath21">
    <path
       id="path22"
       style="opacity:1;fill:url(#linearGradient22);stroke-width:0.264583px"
       d="m 62.0426,143.47094 c 1.192869,-0.87575 2.328124,-1.81609 3.401346,-2.80489 1.073221,-0.9888 2.084411,-2.02606 3.029151,-3.09565 0.944742,-1.06959 1.823032,-2.17152 2.630461,-3.28965 3.359544,-4.65233 5.363485,-9.36911 6.454386,-13.43432 0.110842,-0.41305 0.159586,-0.53207 -2.142506,-2.66134 -2.302092,-2.12926 -2.931578,-2.85233 -5.759855,-2.06654 -2.828276,0.78581 -2.481812,1.60795 -2.565217,1.91875 -0.81933,3.05319 -2.168112,6.69488 -4.514453,10.46706 -0.568079,0.91329 -1.185656,1.81785 -1.849924,2.70196 -0.664271,0.8841 -1.375236,1.74775 -2.130089,2.57922 -0.754857,0.83148 -1.553602,1.63077 -2.393434,2.38616 l -0.273434,5.91968 z m 31.802205,-5.34598 c -0.16137,-0.42277 -0.328078,-0.93773 -0.504878,-1.5813 -0.378645,-1.37828 -0.714828,-3.02058 -1.092957,-4.8798 -0.420542,-2.06776 -0.839271,-4.12353 -1.390097,-6.25182 -0.63419,-2.45041 -1.373555,-4.71315 -2.306836,-6.81663 -0.305038,-0.68752 -0.624824,-1.34499 -0.960665,-1.97404 -0.26529,-0.4969 -0.804989,-0.61388 -3.596161,-0.91209 -2.791174,-0.29821 -3.643638,1.35285 -4.36046,2.9161 -0.328263,0.6886 -1.465874,2.62254 -1.298112,2.93677 0.219585,0.41129 0.440219,0.8545 0.660942,1.3348 0.682239,1.48457 1.306719,3.18665 1.939933,5.28082 0.573413,1.89637 1.008309,3.60416 1.586468,5.77277 0.473165,1.77481 1.032251,3.81431 1.703771,5.61722 0.325459,0.87381 0.707242,1.7765 1.165305,2.64015 0.441679,0.83275 0.993142,1.70379 1.694468,2.50217 l 5.436947,-0.71588 z"
       sodipodi:nodetypes="cssssssssssccccsssssscssssssccc" />
  </clipPath>
  <linearGradient
     inkscape:collect="always"
     xlink:href="#linearGradient19"
     id="linearGradient22"
     gradientUnits="userSpaceOnUse"
     gradientTransform="translate(126.49862,7.6967452)"
     x1="-51.90773"
     y1="130.72922"
     x2="-51.90773"
     y2="108.79337" />
  <clipPath
     clipPathUnits="userSpaceOnUse"
     id="clipPath27">
    <path
       id="path27"
       style="fill:#53676c;stroke-width:8.46667;stroke-linecap:round;stroke-linejoin:round;paint-order:stroke fill markers"
       d="m -106.81309,91.569097 c 0,0 -6.28581,3.130907 -8.54001,5.17933 -2.25421,2.048422 -3.15359,5.634673 -0.77974,7.093423 2.37385,1.45875 8.02092,-1.63307 18.859609,-1.63307 10.838686,0 16.485759,3.09182 18.859609,1.63307 2.373849,-1.45875 1.474475,-5.045001 -0.779735,-7.093423 -2.254208,-2.048423 -9.908694,-5.17933 -9.908694,-5.17933 z"
       sodipodi:nodetypes="cssssscc" />
  </clipPath>
  <inkscape:path-effect
     effect="powerstroke"
     id="path-effect1"
     is_visible="true"
     lpeversion="1.3"
     scale_width="18"
     interpolator_type="Linear"
     interpolator_beta="0.4"
     start_linecap_type="round"
     end_linecap_type="zerowidth"
     offset_points="0.15416547,0.27206135 | 0.54052909,0.14886163 | 0.81714688,0.080613815"
     linejoin_type="round"
     miter_limit="1.6"
     not_jump="false"
     sort_points="true"
     message="&lt;b&gt;Ctrl + click&lt;/b&gt; on existing node and move it" />
  <inkscape:path-effect
     effect="bend_path"
     id="path-effect2-5"
     is_visible="true"
     lpeversion="1"
     bendpath="M -6.9799789,10.381711 C 70.828139,68.110059 -93.13687,42.349481 -76.382482,67.890628"
     prop_scale="1"
     scale_y_rel="false"
     vertical="false"
     hide_knot="false"
     bendpath-nodetypes="cc" />
  <inkscape:path-effect
     effect="powerstroke"
     id="path-effect1-3"
     is_visible="true"
     lpeversion="1.3"
     scale_width="33.436533"
     interpolator_type="CentripetalCatmullRom"
     interpolator_beta="0.2"
     start_linecap_type="round"
     end_linecap_type="zerowidth"
     offset_points="0.084531264,0.14022537 | 0.53427463,0.088467548 | 0.80178804,0.048191257"
     linejoin_type="round"
     miter_limit="1.6"
     not_jump="false"
     sort_points="true"
     message="&lt;b&gt;Ctrl + click&lt;/b&gt; on existing node and move it" />
  <inkscape:path-effect
     effect="bend_path"
     id="path-effect2-6"
     is_visible="true"
     lpeversion="1"
     bendpath="M -4.422704,12.503119 H 130.94041"
     prop_scale="1"
     scale_y_rel="false"
     vertical="false"
     hide_knot="false" />
  <inkscape:path-effect
     effect="powerstroke"
     id="path-effect16"
     is_visible="true"
     lpeversion="1.3"
     scale_width="33.436533"
     interpolator_type="CentripetalCatmullRom"
     interpolator_beta="0.2"
     start_linecap_type="round"
     end_linecap_type="zerowidth"
     offset_points="0.084531264,0.14022537 | 0.53427463,0.088467548 | 0.80178804,0.048191257"
     linejoin_type="round"
     miter_limit="1.6"
     not_jump="false"
     sort_points="true"
     message="&lt;b&gt;Ctrl + click&lt;/b&gt; on existing node and move it" />
  <inkscape:path-effect
     effect="bend_path"
     id="path-effect18"
     is_visible="true"
     lpeversion="1"
     bendpath="M -4.422704,12.503119 H 130.94041"
     prop_scale="1"
     scale_y_rel="false"
     vertical="false"
     hide_knot="false" />
  <inkscape:path-effect
     effect="powerstroke"
     id="path-effect20"
     is_visible="true"
     lpeversion="1.3"
     scale_width="33.436533"
     interpolator_type="CentripetalCatmullRom"
     interpolator_beta="0.2"
     start_linecap_type="round"
     end_linecap_type="zerowidth"
     offset_points="0.084531264,0.14022537 | 0.53427463,0.088467548 | 0.80178804,0.048191257"
     linejoin_type="round"
     miter_limit="1.6"
     not_jump="false"
     sort_points="true"
     message="&lt;b&gt;Ctrl + click&lt;/b&gt; on existing node and move it" />
  <inkscape:path-effect
     effect="bend_path"
     id="path-effect22"
     is_visible="true"
     lpeversion="1"
     bendpath="M -4.422704,12.503119 H 130.94041"
     prop_scale="1"
     scale_y_rel="false"
     vertical="false"
     hide_knot="false" />
  <inkscape:path-effect
     effect="powerstroke"
     id="path-effect46"
     is_visible="true"
     lpeversion="1.3"
     scale_width="33.436533"
     interpolator_type="CentripetalCatmullRom"
     interpolator_beta="0.2"
     start_linecap_type="round"
     end_linecap_type="zerowidth"
     offset_points="0.084531264,0.14022537 | 0.53427463,0.088467548 | 0.80178804,0.048191257"
     linejoin_type="round"
     miter_limit="1.6"
     not_jump="false"
     sort_points="true"
     message="&lt;b&gt;Ctrl + click&lt;/b&gt; on existing node and move it" />
  <inkscape:path-effect
     effect="bend_path"
     id="path-effect48"
     is_visible="true"
     lpeversion="1"
     bendpath="M -4.422704,12.503119 H 130.94041"
     prop_scale="1"
     scale_y_rel="false"
     vertical="false"
     hide_knot="false" />
  <inkscape:path-effect
     effect="powerstroke"
     id="path-effect50"
     is_visible="true"
     lpeversion="1.3"
     scale_width="33.436533"
     interpolator_type="CentripetalCatmullRom"
     interpolator_beta="0.2"
     start_linecap_type="round"
     end_linecap_type="zerowidth"
     offset_points="0.084531264,0.14022537 | 0.53427463,0.088467548 | 0.80178804,0.048191257"
     linejoin_type="round"
     miter_limit="1.6"
     not_jump="false"
     sort_points="true"
     message="&lt;b&gt;Ctrl + click&lt;/b&gt; on existing node and move it" />
  <inkscape:path-effect
     effect="bend_path"
     id="path-effect52"
     is_visible="true"
     lpeversion="1"
     bendpath="M -4.422704,12.503119 H 130.94041"
     prop_scale="1"
     scale_y_rel="false"
     vertical="false"
     hide_knot="false" />
  <inkscape:path-effect
     effect="powerstroke"
     id="path-effect54"
     is_visible="true"
     lpeversion="1.3"
     scale_width="33.436533"
     interpolator_type="CentripetalCatmullRom"
     interpolator_beta="0.2"
     start_linecap_type="round"
     end_linecap_type="zerowidth"
     offset_points="0.084531264,0.14022537 | 0.53427463,0.088467548 | 0.80178804,0.048191257"
     linejoin_type="round"
     miter_limit="1.6"
     not_jump="false"
     sort_points="true"
     message="&lt;b&gt;Ctrl + click&lt;/b&gt; on existing node and move it" />
  <inkscape:path-effect
     effect="bend_path"
     id="path-effect56"
     is_visible="true"
     lpeversion="1"
     bendpath="M -4.422704,12.503119 H 130.94041"
     prop_scale="1"
     scale_y_rel="false"
     vertical="false"
     hide_knot="false" />
  <inkscape:path-effect
     effect="powerstroke"
     id="path-effect58"
     is_visible="true"
     lpeversion="1.3"
     scale_width="33.436533"
     interpolator_type="CentripetalCatmullRom"
     interpolator_beta="0.2"
     start_linecap_type="round"
     end_linecap_type="zerowidth"
     offset_points="0.084531264,0.14022537 | 0.53427463,0.088467548 | 0.80178804,0.048191257"
     linejoin_type="round"
     miter_limit="1.6"
     not_jump="false"
     sort_points="true"
     message="&lt;b&gt;Ctrl + click&lt;/b&gt; on existing node and move it" />
  <inkscape:path-effect
     effect="bend_path"
     id="path-effect60"
     is_visible="true"
     lpeversion="1"
     bendpath="M -4.422704,12.503119 H 130.94041"
     prop_scale="1"
     scale_y_rel="false"
     vertical="false"
     hide_knot="false" />
  <clipPath
     clipPathUnits="userSpaceOnUse"
     id="clipPath61">
    <path
       id="path61"
       style="fill:#1c2224;fill-rule:nonzero;stroke:none;stroke-width:0.211667;stroke-linecap:butt;stroke-linejoin:miter;stroke-dasharray:none;stroke-opacity:1"
       d="m 243.05235,-40.567033 c -0.75367,0.01431 -1.50252,0.0551 -2.21641,0.132808 -0.68359,0.07441 -1.35062,0.184227 -1.9668,0.342614 -0.5979,0.153689 -1.17034,0.35895 -1.67122,0.637172 -0.24757,0.137515 -0.4829,0.295693 -0.69763,0.479039 -0.21274,0.18165 -0.40669,0.389136 -0.57154,0.626835 -0.16362,0.235934 -0.29629,0.498277 -0.38912,0.787551 -0.0919,0.286485 -0.14219,0.59187 -0.14935,0.913638 -0.0141,0.633886 0.13975,1.312907 0.45062,2.030367 0.3057,0.705549 0.77007,1.464361 1.40301,2.283582 1.23832,1.602753 3.16629,3.491254 5.97122,5.730917 2.67068,2.135462 4.82666,4.106171 6.53138,5.922635 1.68022,1.790352 2.89594,3.403235 3.73414,4.847766 0.82994,1.430291 1.26829,2.65767 1.44435,3.698482 0.1735,1.025634 0.094,1.875514 -0.11782,2.5977744 -0.21215,0.7233727 -0.57769,1.3879761 -1.0604,2.0184819 -0.49065,0.6408785 -1.10734,1.2528902 -1.81952,1.8531168 -0.7211,0.6077423 -1.51254,1.1802467 -2.33992,1.7518306 -0.83489,0.5767818 -1.68873,1.138678 -2.51302,1.7301273 -0.64648,0.4912399 -1.20233,1.0769777 -1.67277,1.7022219 -0.47729,0.63435813 -0.8819,1.32945202 -1.21749,2.054138 -0.68425,1.4775844 -1.11417,3.147028 -1.27486,4.8622352 -0.1674,1.786864 -0.0477,3.6646449 0.40773,5.5118089 0.47931,1.944048 1.3265,3.837697 2.57969,5.551599 0.72255,0.988188 1.56609,1.889017 2.5156,2.698543 -1.87159,-0.115361 -3.67002,-0.365183 -5.46943,-0.761194 -1.18411,-0.260596 -2.33658,-0.573735 -3.50831,-0.924491 -0.13275,-3.304997 -0.13544,-6.732036 -0.0842,-10.1151452 0.0642,-4.241583 0.19693,-8.41400689 0.24029,-12.258683 0.0461,-4.0911984 -0.007,-7.7236208 -0.29456,-10.8763388 -0.15068,-1.654724 -0.36322,-3.146434 -0.6506,-4.471562 -0.30156,-1.39049 -0.68252,-2.584693 -1.15239,-3.584277 -0.49932,-1.062258 -1.09241,-1.890773 -1.77921,-2.495972 -0.36166,-0.318691 -0.74606,-0.572458 -1.15084,-0.765845 -0.42233,-0.201767 -0.86484,-0.336995 -1.3255,-0.412894 -0.99514,-0.163957 -2.07811,-0.05214 -3.22358,0.26355 -1.32028,0.363869 -2.72666,1.000279 -4.15943,1.795756 1.43453,-0.796453 2.8512,-1.407772 4.17804,-1.722376 1.15435,-0.273707 2.21685,-0.317232 3.15484,-0.08682 0.43167,0.106043 0.83313,0.26883 1.20355,0.49041 0.35467,0.212152 0.68029,0.478115 0.97823,0.798918 0.56433,0.607653 1.03018,1.415646 1.3994,2.441194 0.34824,0.967248 0.60833,2.121383 0.786,3.47214 0.16934,1.28737 0.26212,2.739156 0.28835,4.357357 0.05,3.085082 -0.1416,6.6483791 -0.45682,10.6970213 -0.29605,3.80248926 -0.69713,7.9498628 -1.04231,12.2111408 -0.2418,2.9850699 -0.45535,6.0576079 -0.57257,9.0790319 -0.20949,-0.07117 -0.40783,-0.136116 -0.62167,-0.209289 -2.88222,-0.997101 -5.2833,-1.380904 -7.22437,-1.656746 -0.96728,-0.13746 -1.73267,-0.23714 -2.43912,-0.370004 -0.002,-2.91e-4 -0.003,-7.41e-4 -0.004,-0.0011 -0.47509,-1.40226 -0.78317,-2.831431 -0.91829,-4.280359 -0.266,-2.8524614 0.12748,-5.7754913 1.17512,-8.6837078 1.20425,-3.3029491 1.56991,-6.1976085 1.50069,-8.6335814 -0.0403,-1.4176523 -0.23477,-2.6779498 -0.50023,-3.8013188 0.62147,-0.291637 1.26312,-0.592222 1.82624,-0.869714 0.98982,-0.487753 1.82751,-0.963607 2.51561,-1.522905 0.36753,-0.29873 0.68074,-0.612638 0.94155,-0.948779 0.27825,-0.358626 0.49247,-0.737351 0.64854,-1.141015 0.16902,-0.437191 0.26794,-0.899142 0.30695,-1.386996 0.0433,-0.541036 0.0124,-1.110594 -0.0765,-1.701705 0.089,0.591599 0.11205,1.161174 0.0538,1.699121 -0.0526,0.485135 -0.17055,0.938145 -0.35967,1.35754 -0.17441,0.386768 -0.40726,0.740467 -0.70022,1.065568 -0.27444,0.304557 -0.59882,0.58126 -0.97461,0.838192 -0.70286,0.480544 -1.55264,0.871224 -2.56264,1.262971 -0.61103,0.237002 -1.20461,0.450986 -1.79937,0.666626 -0.18404,-0.661398 -0.38293,-1.285235 -0.59842,-1.826244 -0.71309,-1.7903 -1.56521,-3.065812 -2.13113,-3.80597 -0.76459,-0.999991 -1.12965,-1.257804 -1.12965,-1.257804 0,0 0.28814,0.339357 0.8723,1.426787 0.43284,0.805733 1.06988,2.151391 1.52497,3.924308 0.14962,0.58289 0.27194,1.24455 0.37155,1.943033 -0.0527,0.02018 -0.10306,0.03732 -0.15606,0.05788 -1.01168,0.39387 -2.1024,0.8698643 -3.13159,1.5063685 -0.98762,0.6107991 -1.95999,1.3940197 -2.78794,2.4535971 -0.80185,1.0261721 -1.46521,2.3076609 -1.87844,3.9351603 -0.40115,1.5799238 -0.56366,3.47243728 -0.39998,5.759855 0.1533,2.1683054 0.33974,4.0377448 0.57413,5.6399657 0.2305,1.5756514 0.51142,2.9225774 0.86713,4.0710694 0.35319,1.140371 0.78971,2.117238 1.35289,2.953308 0.56804,0.843298 1.24064,1.506562 2.02003,2.043287 0.20859,0.143648 0.42258,0.273946 0.63924,0.396874 0.31048,0.899463 0.67401,1.794303 1.10277,2.681491 1.59139,3.292848 3.9656,6.407832 7.06779,9.259385 1.87009,1.71899 3.99336,3.321658 6.33449,4.808492 0.19196,0.713661 0.40377,1.41405 0.64854,2.090306 0.5698,1.574255 1.30055,3.064309 2.24328,4.402834 1.47389,2.146339 3.28377,3.835307 5.3728,5.046207 2.11729,1.227278 4.43606,1.913853 6.8249,2.139402 2.44716,0.231058 4.93307,-0.02389 7.34374,-0.635619 2.51797,-0.638937 4.96451,-1.668759 7.25846,-2.964156 1.29338,-0.730382 2.53417,-1.541775 3.7176,-2.417427 1.18356,-0.875752 2.31016,-1.816197 3.375,-2.804998 0.5324,-0.494401 1.04918,-1.001125 1.55027,-1.517735 0.007,-0.0076 0.014,-0.01479 0.0212,-0.0222 0.49342,-0.509437 0.97211,-1.028388 1.43402,-1.555459 v -5.3e-4 c 0.92432,-1.054716 1.78366,-2.141079 2.57556,-3.243212 0.0111,-0.01543 0.0235,-0.03053 0.0346,-0.04602 0.0114,-0.01603 0.0217,-0.03198 0.0331,-0.04808 0.81201,-1.136581 1.54385,-2.276583 2.20192,-3.410127 1.50902,-2.599404 2.6194,-5.157586 3.42977,-7.560262 1.8e-4,-5e-6 0,4e-6 0,0 0.50625,-0.01416 1.01499,-0.02687 1.54614,-0.02687 0.26453,0 0.51168,0.0098 0.76999,0.01343 0.0426,0.09683 0.0849,0.196317 0.12711,0.295073 0.0729,0.170513 0.14729,0.332918 0.21913,0.509529 v 5.29e-4 c 0.32609,0.801951 0.64206,1.669333 0.95601,2.623614 0.0493,0.149827 0.0986,0.316565 0.1478,0.470772 0.10758,0.336989 0.21471,0.669703 0.32247,1.028875 0.005,0.01543 0.008,0.03007 0.013,0.04549 0.27416,0.915961 0.51758,1.790223 0.76015,2.693892 0.25476,0.949132 0.50951,1.931522 0.801,3.033408 0.35208,1.3311 0.75268,2.811791 1.21179,4.229198 0.15298,0.472252 0.31255,0.937498 0.47905,1.388025 v 5.29e-4 c 0.16143,0.436764 0.33684,0.880727 0.52864,1.323436 v 5.29e-4 c 0.003,0.003 0.003,0.0069 0.005,0.0098 0.19064,0.439383 0.39722,0.877398 0.6227,1.305862 0.43823,0.832752 0.9852,1.703795 1.68103,2.502175 v 5.29e-4 c 0.68384,0.784643 1.54712,1.539714 2.62877,2.098067 1.07479,0.554791 2.25258,0.856123 3.49334,0.879528 1.19132,0.02252 2.34408,-0.212024 3.43959,-0.60461 0.71554,-0.256442 1.42735,-0.59353 2.13836,-0.987021 0.29424,0.08664 0.58827,0.174316 0.88781,0.242361 1.55194,0.352587 3.13896,0.445686 4.72064,0.289388 3.00691,-0.297127 5.92476,-1.489855 8.47286,-3.390489 1.35911,-1.005896 2.47512,-2.060451 3.34243,-3.199802 0.86135,-1.131523 1.45415,-2.317734 1.79678,-3.570325 0.0715,-0.261289 0.12518,-0.522126 0.17415,-0.782905 1.11228,-0.324151 2.20052,-0.817901 3.26337,-1.505852 1.18388,-0.766265 2.33289,-1.756553 3.46128,-2.973969 3.00665,-3.188976 5.99393,-5.787443 8.69458,-8.17005 1.35268,-1.193401 2.63321,-2.332717 3.78685,-3.450951 1.16369,-1.128013 2.21239,-2.247879 3.08816,-3.398759 0.88768,-1.166492 1.60296,-2.371348 2.0805,-3.655074 0.48699,-1.309094 0.71295,-2.6638194 0.65008,-4.0948408 -0.0637,-1.4501145 -0.42227,-2.9431241 -1.06193,-4.5123864 -0.65302,-1.6020751 -1.60552,-3.30034446 -2.85565,-5.1263022 -2.45467,-3.573765 -3.45241,-7.19684 -3.66799,-10.5352736 -0.23355,-3.616873 0.44627,-6.992667 1.32603,-9.741525 0.9865,-3.082468 2.29955,-5.606742 3.19773,-7.162352 1.16845,-2.023732 1.79007,-2.784327 1.79007,-2.784327 0,0 -0.6753,0.712878 -1.96371,2.675805 -0.98936,1.507318 -2.45163,3.977286 -3.62355,7.05745 -1.0404,2.734524 -1.94466,6.191522 -1.90685,9.998357 0.035,3.5258852 0.87971,7.4870188 3.34761,11.4830195 1.11345,1.80883139 1.89161,3.425612 2.37244,4.8823898 0.46855,1.4195364 0.64701,2.6667518 0.59584,3.7770305 -0.0499,1.0829915 -0.31784,2.0603694 -0.76896,2.9868972 -0.44722,0.918563 -1.08736,1.813798 -1.92029,2.730583 -0.82651,0.909737 -1.82862,1.8256 -3.00085,2.802413 -1.16615,0.971755 -2.46184,1.971838 -3.89536,3.077849 -2.81749,2.173791 -6.12108,4.719516 -9.47176,7.916826 -0.98946,0.909347 -1.89979,1.537492 -2.72645,1.955438 -0.35261,0.178271 -0.68639,0.310986 -1.00873,0.418579 -0.0857,-0.396317 -0.17814,-0.793253 -0.28268,-1.191141 -0.64778,-2.465461 -1.61724,-5.08091 -2.51923,-8.121468 -0.0825,-0.278074 -0.1593,-0.577026 -0.24029,-0.861446 0.88976,-0.883268 1.7418,-1.716733 2.54145,-2.538346 0.7833,-0.804831 1.53826,-1.625251 2.20141,-2.476852 0.66027,-0.847922 1.24828,-1.750039 1.70532,-2.745568 0.45776,-0.9971 0.76632,-2.048447 0.91004,-3.1946376 0.14263,-1.1377112 0.11845,-2.32968 -0.0507,-3.6132163 -0.16944,-1.2860023 -0.4872,-2.6819627 -0.93999,-4.22041404 -0.3498,-1.18850041 -0.8116,-2.51387936 -1.33016,-3.91603986 0.57391,0.064923 1.14927,0.1694775 1.71204,0.3079917 2.13529,0.5255461 4.23045,1.5021692 5.63377,2.24327337 -1.37181,-0.72445937 -3.4793,-1.81985007 -5.55987,-2.50423957 -0.63064,-0.2074402 -1.2903,-0.3858676 -1.95699,-0.511597 -0.10711,-0.2847428 -0.19479,-0.5431991 -0.30851,-0.8371581 -1.13157,-2.9108511 -1.82218,-5.4586376 -2.2226,-7.7018556 0.29744,-0.178211 0.58668,-0.338278 0.86145,-0.470772 1.0133,-0.488614 1.90042,-0.697652 2.67891,-0.731222 0.81907,-0.03532 1.55329,0.122422 2.21123,0.397909 0.70046,0.293287 1.31093,0.718688 1.82779,1.179773 0.55748,0.497284 1.00973,1.03947 1.35496,1.510502 0.87969,1.2002512 1.11363,1.8489831 1.11363,1.8489831 0,0 -0.0945,-0.681527 -0.77359,-2.0582731 -0.26582,-0.53886 -0.63825,-1.188651 -1.13845,-1.827278 -0.46114,-0.588767 -1.05907,-1.20465 -1.82004,-1.706356 -0.71948,-0.474347 -1.60753,-0.861786 -2.68147,-1.006657 -1.02807,-0.138679 -2.21152,-0.05271 -3.54915,0.377238 -0.13385,0.04302 -0.27511,0.104562 -0.41185,0.154513 -0.27802,-2.727621 -0.13348,-5.011124 0.14986,-6.900871 0.32475,-2.166054 0.87707,-4.083711 1.25677,-5.440494 0.24064,-0.859949 0.42617,-1.532329 0.57412,-2.188498 0.17222,-0.763754 0.25945,-1.364631 0.29041,-1.904275 -0.0308,0.536937 -0.15682,1.139444 -0.39585,1.874819 -0.20362,0.626488 -0.46693,1.285925 -0.80356,2.100648 -0.5274,1.276434 -1.34459,3.165537 -1.94509,5.335591 -0.54988,1.987034 -1.00721,4.485689 -0.97102,7.578349 0.003,0.124932 0.008,0.256929 0.0114,0.383956 -0.64823,0.356447 -1.31993,0.777042 -2.02417,1.292944 -1.5176,1.111735 -3.17235,2.6187087 -4.97231,4.6203899 -1.82417,2.0332689 -3.05792,4.0539576 -3.76516,6.0967854 -0.70429,2.03439236 -0.86423,4.0168789 -0.66714,5.959843 0.19333,1.9056363 0.72488,3.7219956 1.34929,5.4389443 0.62418,1.7163754 1.34506,3.3539114 1.96731,4.9288984 0.37232,0.942324 0.69355,1.837522 0.96015,2.713529 -0.15671,0.136966 -0.30377,0.256361 -0.46302,0.398426 -0.91329,0.787683 -1.79613,1.25809 -2.60811,1.538407 -0.85248,0.294303 -1.69915,0.403585 -2.52026,0.395324 -0.35973,-0.0036 -0.71974,-0.03507 -1.07849,-0.08061 -0.37135,-0.253264 -0.74607,-0.517921 -1.10535,-0.741041 -1.24659,-0.774132 -2.51119,-1.44835 -3.54553,-1.969388 -0.60891,-0.30674 -1.12921,-0.559028 -1.59887,-0.783415 -2.42197,-1.524727 -5.9785,-2.710379 -8.47752,-4.173389 -3.0217,-1.769009 -4.4917,-0.659544 -4.4917,-2.4489456 0,-1.6622385 3.0734,-0.5827316 9.06868,-5.1831467 1.62308,-1.2454377 2.9365,-2.7286879 3.84421,-4.37544294 0.90773,-1.64675656 1.40975,-3.45682346 1.40975,-5.35729616 0,-7.6018936 -0.9289,-9.1528456 -7.15616,-10.1936926 -5.29299,-0.884692 -12.26084,1.743254 -15.11279,4.397665 -4.52506,4.2116881 -6.54304,8.5953735 -5.13455,14.1216175 1.87468,7.3553595 5.85028,3.9412 5.85028,6.5902959 0,2.2087126 -2.82858,0.6799366 -5.85028,2.4489456 -1.56282,0.914931 -3.17466,1.721954 -4.67879,2.570386 -1.79681,0.475505 -3.5478,0.854645 -5.23586,1.120345 -2.85127,0.448793 -5.36351,0.548191 -7.52562,0.326078 -1.92497,-0.197751 -3.48719,-0.641591 -4.73976,-1.247985 -1.14658,-0.555081 -2.05558,-1.256616 -2.76573,-2.067058 -0.67279,-0.767803 -1.19095,-1.661643 -1.54512,-2.6572021 -0.33935,-0.9538769 -0.51714,-1.973037 -0.53641,-2.9837969 -0.0187,-0.9792211 0.11294,-1.8789756 0.33435,-2.6225791 0.10721,-0.3600548 0.2281,-0.6595581 0.34778,-0.9033042 0.12008,-0.2445395 0.22241,-0.4014263 0.29508,-0.5146968 0.61806,-0.6196471 1.31614,-1.2463666 2.1518,-2.02829992 0.7905,-0.73967325 1.65669,-1.5762064 2.46807,-2.49700558 0.80567,-0.9143183 1.58742,-1.9453802 2.21227,-3.1031696 0.62605,-1.1600156 1.09432,-2.4464811 1.27382,-3.8628137 0.18012,-1.4212391 0.0596,-2.8959611 -0.40049,-4.4250521 -0.45884,-1.525261 -1.24774,-3.078751 -2.37599,-4.683398 -1.13901,-1.619954 -2.64162,-3.316954 -4.54339,-5.111316 -1.93312,-1.823947 -4.29247,-3.761577 -7.12308,-5.829619 -2.8104,-2.050309 -4.68432,-3.700272 -5.88026,-5.023982 -0.60889,-0.673949 -1.02945,-1.249333 -1.30896,-1.737879 -0.28297,-0.494588 -0.41431,-0.887259 -0.45941,-1.194757 -0.0228,-0.155663 -0.0247,-0.296622 -0.009,-0.425299 0.0156,-0.130263 0.05,-0.256413 0.10593,-0.381371 0.0568,-0.126971 0.13686,-0.254905 0.24495,-0.382923 0.10944,-0.129622 0.24544,-0.25726 0.40927,-0.381373 0.33571,-0.254313 0.76998,-0.480357 1.28572,-0.675926 0.52748,-0.200028 1.1252,-0.362622 1.7663,-0.492993 1.34213,-0.272934 2.85237,-0.401526 4.30981,-0.451654 1.56789,-0.05393 3.11188,-0.01762 4.38888,0.04186 3.26541,0.152093 4.76405,0.374653 4.76405,0.374653 0,0 -1.47685,-0.333545 -4.7377,-0.706933 -1.27656,-0.146174 -2.82355,-0.28821 -4.41368,-0.350366 -0.73286,-0.02865 -1.49116,-0.04118 -2.24482,-0.02687 z m 80.4943,29.606461 c 0.24305,2.0930879 0.70935,4.4270753 1.49138,7.0331629 -0.15203,0.024178 -0.30443,0.046241 -0.45527,0.081648 -0.82489,0.193665 -1.6406,0.5653077 -2.38641,1.1999275 -0.71244,0.6062427 -1.34765,1.441319 -1.85931,2.55694986 -0.49241,1.07361428 -0.86841,2.40193684 -1.094,4.03179524 -0.21931,1.5845639 -0.29728,3.4587764 -0.19999,5.6709711 0.009,0.2060657 0.0235,0.4039324 0.0346,0.6071984 -0.48106,-0.8879898 -0.94744,-1.7551484 -1.35961,-2.5915731 -0.71453,-1.4501344 -1.26942,-2.8125403 -1.56734,-4.172872 -0.29625,-1.3527623 -0.346,-2.73819014 0.005,-4.22609868 0.35976,-1.52413422 1.15536,-3.21646682 2.62467,-5.10511482 1.55583,-1.9941325 2.95116,-3.4896615 4.19663,-4.6048864 0.19569,-0.175231 0.38098,-0.324066 0.56947,-0.481108 z m -97.96972,1.2107795 c 0.0925,0.978073 0.11738,2.0468664 0.0269,3.2065227 -0.17365,2.2248769 -0.76267,4.8195811 -2.1084,7.7375121 -1.41579,3.1009016 -2.18774,6.3853864 -2.17971,9.7627117 7.9e-4,0.313995 0.0152,0.628345 0.0294,0.942578 -0.0142,-0.03115 -0.0287,-0.05651 -0.0429,-0.08837 -0.40096,-0.901077 -0.76963,-2.0520134 -1.1064,-3.5170983 -0.34131,-1.4848306 -0.64313,-3.263615 -0.91415,-5.3831336 -0.26926,-2.0898934 -0.23296,-3.77377239 0.004,-5.1536909 0.24321,-1.4155565 0.70255,-2.5398494 1.29242,-3.464388 0.61498,-0.9638964 1.3845,-1.7305099 2.23346,-2.3765986 0.86978,-0.6619324 1.82537,-1.1948739 2.7652,-1.6660481 z m 99.66522,6.5489539 c 0.49499,1.6873115 0.8812,3.20525867 1.12708,4.524272 0.27077,1.4526866 0.38975,2.6717191 0.38187,3.7067505 -0.008,1.0243185 -0.14049,1.8463077 -0.35499,2.5238768 -0.21212,0.6699258 -0.51115,1.2242377 -0.878,1.7285766 -0.37187,0.5112732 -0.84201,1.0094047 -1.42419,1.5373737 -0.59712,0.541501 -1.29641,1.100807 -2.12649,1.740979 -0.0905,0.06981 -0.20812,0.160447 -0.30078,0.231511 -0.17817,-1.068704 -0.33289,-2.176174 -0.45111,-3.3377813 -0.21437,-2.1037894 -0.25702,-3.8602295 -0.16846,-5.3268067 0.091,-1.5077419 0.32022,-2.7081601 0.64336,-3.66489254 0.33414,-0.98932237 0.77256,-1.73081346 1.27796,-2.28771536 0.53055,-0.5846197 1.15319,-0.9853256 1.84277,-1.2423021 0.14047,-0.052339 0.28557,-0.093226 0.43098,-0.1338416 z M 228.03362,20.162076 c 1.58446,0.456884 3.26905,0.984858 5.22552,1.859835 0.81706,0.361582 1.625,0.712202 2.43241,1.055233 0.0224,1.639543 0.10052,3.246901 0.231,4.817279 -0.6917,-0.483037 -1.36077,-0.975101 -1.99316,-1.481048 -2.44001,-1.952126 -4.4017,-4.049926 -5.89577,-6.251299 z m 11.86233,4.548043 c 0.50537,0.175076 1.00969,0.351006 1.53014,0.51108 3.08987,0.950364 6.27275,1.548808 9.83402,1.691368 4.01414,0.160695 8.2272,-0.273558 12.71396,-1.212845 0.53028,-0.111011 1.06305,-0.234844 1.59576,-0.358633 -0.68043,0.815379 -1.40779,1.64476 -2.22673,2.464447 -1.12879,1.129813 -2.42114,2.260655 -3.85351,3.243212 -1.32611,0.909667 -2.77863,1.696752 -4.34134,2.235525 -1.4692,0.506535 -3.06744,0.805225 -4.79351,0.761709 -1.65117,-0.04159 -3.48985,-0.397904 -5.51129,-1.262451 -1.34637,-0.580136 -2.62395,-1.193141 -3.84576,-1.830896 -0.4961,-1.898192 -0.84575,-4.006725 -1.10174,-6.242516 z m 60.32138,0.05736 c 0.64964,0.304052 1.33816,0.603358 2.08619,0.879019 1.20452,0.443885 2.61075,0.859389 4.1434,1.110007 0.17259,0.02824 0.35449,0.04724 0.53176,0.07128 0.11605,0.06395 0.25368,0.129259 0.36224,0.192754 1.7412,1.244198 3.32756,2.505641 5.0519,3.751709 -0.73017,0.785353 -1.54315,1.59757 -2.51354,2.457728 -1.77477,1.576218 -3.23323,2.692995 -4.44677,3.488161 -0.32668,-0.345609 -0.64704,-0.713163 -0.95446,-1.119309 -0.82103,-1.084739 -1.55966,-2.373223 -2.20554,-3.859713 -0.91099,-2.096664 -1.57514,-4.46098 -2.05518,-6.971668 z m 21.9909,3.777033 c 0.0301,0.177247 0.0719,0.3712 0.0977,0.542602 0.0183,0.121367 0.0306,0.234127 0.0465,0.351914 -0.14118,-0.04968 -0.28313,-0.101235 -0.42632,-0.16071 0.10162,-0.245565 0.19261,-0.489622 0.28215,-0.733806 z m -3.30314,5.923666 c 0.82963,0.302522 1.69511,0.541038 2.5926,0.684712 -0.20897,0.306142 -0.45802,0.610648 -0.75345,0.916742 -0.60791,0.629857 -1.43584,1.291148 -2.56728,1.992125 -1.32025,0.802134 -2.66219,1.31137 -3.95997,1.567865 0.27903,-0.266507 0.54727,-0.510662 0.83405,-0.792716 1.50257,-1.475493 2.77842,-2.928662 3.85405,-4.368728 z m -56.4932,2.737302 c -0.11553,0.08577 -0.22636,0.17802 -0.34313,0.261999 -1.60651,1.155287 -3.27694,2.095947 -4.95267,2.763655 -1.59966,0.637397 -3.18467,1.017473 -4.69481,1.106392 -1.45998,0.086 -2.87934,-0.09699 -4.21731,-0.608748 -0.82353,-0.314971 -1.64118,-0.785643 -2.43758,-1.405081 1.43452,0.44445 2.84281,0.720405 4.2168,0.839743 2.52127,0.218972 4.87972,-0.07227 7.02954,-0.669211 1.98047,-0.549944 3.77988,-1.367589 5.39916,-2.288749 z" />
  </clipPath>
  <filter
     style="color-interpolation-filters:sRGB;"
     inkscape:menu-tooltip="Adds a small scale crossy graininess"
     inkscape:menu="Overlays"
     inkscape:label="Cross Noise B"
     id="filter65"
     x="0"
     y="0"
     width="1"
     height="1">
    <feColorMatrix
       result="result6"
       values="1 0 0 0 0 0 1 0 0 0 0 0 1 0 0 0 0 0 1 1 "
       id="feColorMatrix63" />
    <feTurbulence
       result="result0"
       seed="0"
       baseFrequency="1"
       numOctaves="5"
       type="fractalNoise"
       id="feTurbulence63" />
    <feConvolveMatrix
       result="result5"
       order="5 5"
       kernelMatrix="-2 0 0 0 -2 0 -2 0 -2 0 0 0 -10 0 0 0 -2 0 -2 0 -2 0 0 0 -2 "
       targetX="2"
       targetY="2"
       id="feConvolveMatrix63" />
    <feColorMatrix
       in="result5"
       type="saturate"
       values="0"
       result="result4"
       id="feColorMatrix64" />
    <feComposite
       in2="result6"
       result="result2"
       k3="0.5"
       k2="0.5"
       k1="1.5"
       operator="arithmetic"
       in="result4"
       id="feComposite64" />
    <feBlend
       result="result7"
       mode="normal"
       in2="result4"
       id="feBlend64" />
    <feComposite
       in2="SourceGraphic"
       result="result3"
       operator="in"
       in="result7"
       id="feComposite65" />
  </filter>
  <clipPath
     clipPathUnits="userSpaceOnUse"
     id="clipPath69">
    <path
       style="color:#000000;fill:#53676c;stroke-width:0.999998;stroke-linecap:round;stroke-linejoin:round;-inkscape-stroke:none;paint-order:markers stroke fill"
       d="m -104.6539,38.862071 c -5.293,-0.88469 -12.26071,1.74317 -15.11263,4.397584 -4.52509,4.211693 -6.54317,8.595355 -5.13468,14.121606 1.87468,7.355366 5.8501,3.940979 5.8501,6.590078 0,2.208715 -2.8284,0.679976 -5.8501,2.448985 -3.0217,1.769013 -6.2367,3.13091 -8.47329,5.179333 -2.2366,2.048423 -3.12895,5.634667 -0.77365,7.093418 2.35531,1.458751 7.95826,-1.633069 18.71227,-1.633069 10.75401,0 16.356964,3.09182 18.712268,1.633069 2.355303,-1.458751 1.462956,-5.044995 -0.773644,-7.093418 -2.236597,-2.048423 -6.809584,-3.41032 -9.831284,-5.179333 -3.0217,-1.769009 -4.49211,-0.659582 -4.49211,-2.448985 0,-1.66224 3.07347,-0.582367 9.06878,-5.182786 1.62306,-1.245438 2.936428,-2.728679 3.844136,-4.375438 0.907717,-1.646756 1.409854,-3.457149 1.409854,-5.357625 0,-7.601899 -0.928754,-9.152569 -7.15602,-10.193419 z"
       id="path70" />
  </clipPath>
  <clipPath
     clipPathUnits="userSpaceOnUse"
     id="clipPath77">
    <path
       style="color:#000000;fill:#53676c;stroke-width:0.999998;stroke-linecap:round;stroke-linejoin:round;-inkscape-stroke:none;paint-order:markers stroke fill"
       d="m -125.28176,10.543542 c -0.75366,0.01431 -1.50251,0.0551 -2.2164,0.132809 -0.68359,0.07441 -1.35062,0.184226 -1.9668,0.342615 -0.5979,0.153687 -1.16982,0.358431 -1.6707,0.636653 -0.24757,0.137516 -0.48342,0.295694 -0.69815,0.479041 -0.21274,0.181648 -0.4067,0.38965 -0.57154,0.627352 -0.16363,0.235934 -0.29629,0.498277 -0.38913,0.787548 -0.0919,0.286487 -0.14218,0.591871 -0.14934,0.91364 -0.0141,0.633885 0.14027,1.31239 0.45113,2.02985 0.30571,0.705548 0.76955,1.464877 1.4025,2.284098 1.23832,1.602754 3.16629,3.491255 5.97121,5.730916 2.67069,2.135464 4.82718,4.106171 6.5319,5.922636 1.68022,1.790353 2.89543,3.403237 3.73363,4.847767 0.82993,1.43029 1.26829,2.657668 1.44435,3.698481 0.1735,1.025633 0.094,1.875515 -0.11782,2.597774 -0.21216,0.723374 -0.57769,1.387459 -1.0604,2.017964 -0.49065,0.640879 -1.10735,1.252892 -1.81953,1.853118 -0.7211,0.607742 -1.51201,1.180764 -2.33939,1.752348 -0.8349,0.576781 -1.68925,1.138161 -2.51354,1.729611 -0.64649,0.491238 -1.20233,1.076978 -1.67277,1.70222 -0.47729,0.63436 -0.8819,1.329452 -1.21749,2.054138 -0.68425,1.477584 -1.11366,3.147028 -1.27434,4.862237 -0.1674,1.786864 -0.0477,3.665162 0.40772,5.512324 0.47931,1.94405 1.32599,3.837181 2.57917,5.551083 1.33704,1.828578 3.07517,3.369672 5.16816,4.555278 2.26139,1.280993 4.83824,2.092992 7.63003,2.488218 3.11322,0.440733 6.45471,0.358842 9.909471,-0.121954 0.106755,-0.01487 0.214517,-0.034 0.321427,-0.04961 2.769039,0.451239 8.245819,-1.962671 17.758605,-1.962671 4.743112,0 8.433906,0.598469 11.336261,1.145667 l -0.0021,0.0057 c -0.05906,-0.01937 1.170623,0.221168 3.586345,1.022678 0.960417,0.318657 2.058477,0.715442 3.133143,1.167371 1.024036,0.430639 1.894279,0.855382 2.603458,1.270207 1.836132,1.312044 3.491193,2.644304 5.327322,3.956346 1.824053,1.298715 3.893174,2.620126 6.114872,3.44992 1.106078,0.413113 2.277446,0.715563 3.503147,0.829922 1.221711,0.113987 2.470584,0.03873 3.73362,-0.278019 1.254215,-0.314534 2.475738,-0.85489 3.667477,-1.626256 1.18387,-0.766273 2.332879,-1.757072 3.461287,-2.974497 3.006641,-3.188972 5.993911,-5.786921 8.69456,-8.169526 1.352705,-1.1934 2.633753,-2.333236 3.787366,-3.451471 1.163701,-1.128011 2.211879,-2.247876 3.087667,-3.398758 0.887667,-1.16649 1.602934,-2.371347 2.080493,-3.655073 0.486995,-1.309095 0.713449,-2.66382 0.650606,-4.09484 -0.06368,-1.450115 -0.422296,-2.943124 -1.06195,-4.512387 -0.65303,-1.602075 -1.606033,-3.300343 -2.856157,-5.126302 -2.454676,-3.573764 -3.45191,-7.196841 -3.667476,-10.535274 -0.233545,-3.616872 0.44575,-6.992149 1.325501,-9.741008 0.98652,-3.082467 2.299567,-5.607258 3.197737,-7.16287 1.168451,-2.02373 1.790072,-2.784326 1.790072,-2.784326 0,0 -0.674771,0.712877 -1.963188,2.675806 -0.989365,1.507318 -2.452163,3.977803 -3.624068,7.057966 -1.040399,2.734525 -1.94416,6.191523 -1.906344,9.998358 0.03503,3.525885 0.879182,7.487018 3.347083,11.48302 1.113469,1.808829 1.89215,3.425095 2.372982,4.881872 0.468539,1.419537 0.646486,2.666751 0.595312,3.77703 -0.04992,1.082993 -0.317318,2.060369 -0.768428,2.986897 -0.447234,0.918562 -1.087894,1.813798 -1.920813,2.730582 -0.826517,0.909738 -1.82863,1.826117 -3.000851,2.802933 -1.166152,0.971753 -2.461332,1.971836 -3.894853,3.077847 -2.817489,2.17379 -6.121077,4.719 -9.471773,7.916312 -0.989447,0.909341 -1.899767,1.537491 -2.726447,1.955435 -0.824825,0.417005 -1.564984,0.623964 -2.229839,0.698667 -0.665123,0.07473 -1.298155,0.02193 -1.917195,-0.12454 -0.629518,-0.148963 -1.27581,-0.402259 -1.947685,-0.754477 -1.394029,-0.730793 -2.823329,-1.844387 -4.365109,-3.202387 -1.576792,-1.388841 -3.196408,-2.968625 -4.893241,-4.453475 -1.063792,-0.984755 -2.31003,-1.850104 -3.449918,-2.557984 -1.246577,-0.774133 -2.511182,-1.44835 -3.54552,-1.969389 -0.609076,-0.306816 -1.129125,-0.559509 -1.598869,-0.783931 -2.421975,-1.524643 -5.978091,-2.710437 -8.477001,-4.173389 -3.021698,-1.76901 -4.492234,-0.659546 -4.492234,-2.448947 0,-1.662236 3.0734,-0.582215 9.068697,-5.182629 1.623065,-1.245438 2.936502,-2.728687 3.844211,-4.375443 0.907714,-1.646756 1.409731,-3.45734 1.409731,-5.357813 0,-7.601892 -0.928888,-9.152329 -7.15615,-10.193176 -5.292993,-0.88469 -12.260332,1.742737 -15.112257,4.397148 -4.525079,4.211687 -6.543056,8.595373 -5.13457,14.121619 1.874679,7.355358 5.849773,3.941199 5.849773,6.590294 0,2.208713 -2.828078,0.679937 -5.849773,2.448947 -1.562399,0.914685 -3.174481,1.721688 -4.678267,2.569869 -1.797193,0.475638 -3.547978,0.855106 -5.23637,1.120862 -2.85129,0.448791 -5.36353,0.548709 -7.52563,0.326594 -1.92498,-0.19775 -3.48772,-0.642107 -4.74029,-1.248503 -1.14657,-0.55508 -2.05506,-1.256099 -2.7652,-2.066539 -0.67279,-0.767805 -1.19147,-1.66216 -1.54565,-2.657721 -0.33933,-0.953876 -0.51713,-1.973035 -0.5364,-2.983796 -0.0187,-0.97922 0.11293,-1.878975 0.33435,-2.622579 0.10721,-0.360056 0.2281,-0.659043 0.34778,-0.902787 0.12009,-0.244539 0.22292,-0.401426 0.29559,-0.514697 0.61807,-0.619646 1.31563,-1.246883 2.15129,-2.028817 0.79049,-0.739672 1.6572,-1.576208 2.46858,-2.497005 0.80568,-0.914318 1.58691,-1.944862 2.21175,-3.102653 0.62605,-1.160015 1.09433,-2.44648 1.27383,-3.862813 0.18012,-1.421238 0.0596,-2.895962 -0.40049,-4.425053 -0.45894,-1.525299 -1.24732,-3.079305 -2.37557,-4.68395 -1.13901,-1.619957 -2.64162,-3.316439 -4.54339,-5.1108 -1.93313,-1.823947 -4.29298,-3.762094 -7.1236,-5.830136 -2.8104,-2.05031 -4.68432,-3.700271 -5.88026,-5.023983 -0.60888,-0.67395 -1.02945,-1.249332 -1.30896,-1.737878 -0.28297,-0.494589 -0.4138,-0.887258 -0.45889,-1.194758 -0.0228,-0.155661 -0.0247,-0.296105 -0.009,-0.424782 0.0156,-0.130263 0.0495,-0.256931 0.10542,-0.381889 0.0568,-0.12697 0.13686,-0.254386 0.24495,-0.382405 0.10943,-0.129622 0.24596,-0.257261 0.40979,-0.381372 0.33571,-0.254313 0.76946,-0.480875 1.28519,-0.676445 0.52749,-0.200026 1.12572,-0.362105 1.76682,-0.492475 1.34214,-0.272934 2.85186,-0.402043 4.3093,-0.45217 1.56788,-0.05393 3.11239,-0.0171 4.38939,0.04237 3.26542,0.152094 4.76405,0.374137 4.76405,0.374137 0,0 -1.47685,-0.333029 -4.73769,-0.706417 -1.27657,-0.146175 -2.82356,-0.288725 -4.41369,-0.350882 -0.73285,-0.02865 -1.49168,-0.04066 -2.24534,-0.02635 z"
       id="path78" />
  </clipPath>
  <clipPath
     clipPathUnits="userSpaceOnUse"
     id="clipPath84">
    <path
       style="color:#000000;fill:#1c2224;stroke-width:0.760188;-inkscape-stroke:none;paint-order:markers stroke fill"
       d="m -96.469045,28.710392 c 0.08897,0.591598 0.112048,1.161172 0.05374,1.69912 -0.05258,0.485135 -0.170548,0.938146 -0.359669,1.35754 -0.174408,0.386768 -0.407257,0.739952 -0.700215,1.065051 -0.274444,0.304559 -0.59882,0.581779 -0.974616,0.838711 -0.702858,0.480544 -1.552635,0.871222 -2.562635,1.26297 -1.03432,0.401182 -2.01148,0.727432 -3.04581,1.128614 -1.01168,0.39387 -2.1024,0.869863 -3.13159,1.506368 -0.98762,0.610799 -1.95999,1.394021 -2.78794,2.453598 -0.80185,1.026171 -1.46521,2.307659 -1.87844,3.935159 -0.40115,1.579925 -0.56314,3.472436 -0.39946,5.759854 0.15329,2.168306 0.33974,4.037746 0.57413,5.639967 0.2305,1.575652 0.51142,2.922577 0.86713,4.07107 0.35319,1.14037 0.78971,2.117238 1.35289,2.953308 0.56804,0.843296 1.24012,1.506561 2.01951,2.043284 0.76701,0.528201 1.59438,0.90474 2.44068,1.214398 0.83374,0.305062 1.74282,0.564076 2.63963,0.81752 1.88193,0.531845 3.868775,1.088303 6.250263,2.153357 2.707653,1.198247 5.306822,2.319594 8.166944,3.199288 3.089873,0.950357 6.272752,1.54881 9.834023,1.691371 4.014134,0.160686 8.227195,-0.273561 12.713954,-1.212845 5.657204,-1.184315 11.480228,-3.121623 16.890957,-5.253945 l -1.346687,-3.471106 -1.346689,-3.471622 c -5.224833,2.059062 -10.616382,3.940752 -15.75149,5.186762 -4.046897,0.981962 -7.691606,1.512507 -11.078911,1.581301 -2.984312,0.06061 -5.681972,-0.23622 -8.398454,-0.834059 -2.569805,-0.565558 -4.982477,-1.355532 -7.792807,-2.317171 -2.882218,-0.9971 -5.283814,-1.380905 -7.224883,-1.656746 -0.96728,-0.137459 -1.73216,-0.237141 -2.43861,-0.370004 -0.68046,-0.127977 -1.22605,-0.273667 -1.68775,-0.471805 -0.45225,-0.194083 -0.87163,-0.457811 -1.27382,-0.876433 -0.41314,-0.430006 -0.82528,-1.041839 -1.22215,-1.933731 -0.40096,-0.901078 -0.77014,-2.052015 -1.10691,-3.517098 -0.34131,-1.484831 -0.64313,-3.263617 -0.91416,-5.383136 -0.26925,-2.089893 -0.23244,-3.77377 0.005,-5.153689 0.24322,-1.415555 0.70204,-2.539849 1.29191,-3.464388 0.61498,-0.963895 1.3845,-1.73051 2.23346,-2.376598 0.88812,-0.675892 1.86571,-1.219727 2.82463,-1.698088 1.02103,-0.509344 2.02587,-0.949701 2.92902,-1.394746 0.98982,-0.487754 1.82751,-0.964126 2.515609,-1.523423 0.367527,-0.29873 0.680741,-0.612121 0.941546,-0.948261 0.278249,-0.358627 0.492474,-0.737352 0.648539,-1.141016 0.169023,-0.437192 0.268464,-0.89966 0.307475,-1.387512 0.04326,-0.541036 0.01191,-1.110078 -0.077,-1.701189 z m 93.0020755,13.860653 c -0.4419322,0.01556 -0.8840991,0.06915 -1.320337,0.171564 -0.8249002,0.193667 -1.6411302,0.565309 -2.3869319,1.199928 -0.7124541,0.606242 -1.3476573,1.44132 -1.8593212,2.556949 -0.4923928,1.073615 -0.8683943,2.401937 -1.0939904,4.031797 -0.21932,1.584563 -0.29729,3.458776 -0.199988,5.670971 0.189515,4.318463 0.8211521,8.017198 1.5234216,11.314038 0.6815066,3.19935 1.4038802,5.927426 1.7394314,8.159194 0.1688132,1.122805 0.2378559,2.089841 0.1891369,2.947107 -0.048537,0.853802 -0.2119818,1.563984 -0.4847225,2.193663 -0.2714985,0.626803 -0.6757215,1.230606 -1.26556,1.841749 -0.6079059,0.629856 -1.4363574,1.291148 -2.5678004,1.992124 -1.992075,1.210318 -4.036032,1.767094 -5.898349,1.767848 -0.976622,5.29e-4 -1.904787,-0.150773 -2.775541,-0.435626 -0.911596,-0.29822 -1.775925,-0.747866 -2.587955,-1.346173 -0.86468,-0.637098 -1.681453,-1.450658 -2.437061,-2.448947 -0.821041,-1.084738 -1.559681,-2.37323 -2.205551,-3.859712 -1.606954,-3.698452 -2.467647,-8.213019 -2.849438,-12.937712 l -3.685563,0.302823 -3.68608,0.302308 c 0.420269,5.200872 1.500174,10.666815 3.757393,15.358234 0.922427,1.917174 2.032447,3.684765 3.349667,5.22914 1.216771,1.426605 2.596663,2.645678 4.132048,3.601334 1.445811,0.899898 2.998808,1.546741 4.627107,1.916676 1.551945,0.352587 3.138964,0.445678 4.720642,0.289388 3.00691,-0.297135 5.925299,-1.489855 8.4733812,-3.39049 1.3591214,-1.005895 2.4751247,-2.06045 3.3424362,-3.199812 0.8613447,-1.131512 1.4536216,-2.317732 1.7962679,-3.570322 0.3376186,-1.23417 0.4141274,-2.463332 0.327116,-3.683498 -0.085868,-1.204084 -0.3323331,-2.418394 -0.6531869,-3.639565 -0.6477955,-2.465462 -1.6172476,-5.080913 -2.5192323,-8.12147 -0.9243901,-3.116096 -1.7700683,-6.620254 -2.1895263,-10.741462 -0.2143596,-2.103789 -0.257021,-3.860231 -0.1684647,-5.326806 0.091032,-1.507744 0.3207552,-2.708161 0.6438884,-3.664894 0.3341428,-0.989322 0.7725614,-1.730812 1.2779557,-2.287715 0.5305489,-0.58462 1.1526674,-0.985327 1.8422686,-1.242303 0.7349435,-0.273876 1.542261,-0.382776 2.377111,-0.373621 0.9021661,0.0099 1.83021383,0.157816 2.72593612,0.378272 C 2.6789263,44.051571 4.774089,45.028193 6.1774014,45.769299 4.8056043,45.044841 2.6981142,43.94945 0.61753532,43.265058 -0.26801003,42.973767 -1.2094377,42.734703 -2.1497371,42.627372 -2.5836276,42.57785 -3.025045,42.55549 -3.4669695,42.57104 Z"
       id="path85" />
  </clipPath>
  <clipPath
     clipPathUnits="userSpaceOnUse"
     id="clipPath96">
    <path
       id="path96"
       style="color:#000000;display:inline;fill:#374548;stroke-width:0.760188;-inkscape-stroke:none"
       d="m -64.835317,6.0761149 c -0.03082,0.5369383 -0.156297,1.1399618 -0.395327,1.8753375 -0.203629,0.6264863 -0.466942,1.2859248 -0.803566,2.1006466 -0.527399,1.276436 -1.344586,3.165538 -1.945103,5.335592 -0.549873,1.987035 -1.007195,4.485689 -0.971,7.578349 0.03392,2.898876 0.500153,6.359188 1.760101,10.50065 0.583044,1.927646 1.005928,3.605406 1.279507,5.073076 0.27078,1.452687 0.389757,2.67172 0.381889,3.706749 -0.0078,1.024321 -0.139981,1.84631 -0.3545,2.523879 -0.212103,0.669925 -0.511669,1.224238 -0.878501,1.728576 -0.371872,0.511273 -0.841494,1.009404 -1.423683,1.537374 -0.597117,0.541502 -1.296392,1.100805 -2.126485,1.74098 -1.726187,1.331243 -3.841862,2.880955 -6.242513,5.022432 -0.913294,0.787683 -1.79613,1.258088 -2.608112,1.538406 -0.852493,0.294302 -1.699159,0.403585 -2.520257,0.395325 -0.881692,-0.0089 -1.765916,-0.154178 -2.624648,-0.38499 -0.935839,-0.251534 -1.835811,-0.603417 -2.658753,-0.986502 -1.794843,-0.835514 -3.33584,-1.87652 -4.188891,-2.455148 -0.08437,-0.05723 -0.210767,-0.08715 -0.367935,-0.09457 -0.666853,-0.03147 -1.878404,0.328925 -2.821535,0.751375 -0.957384,0.428834 -1.604034,0.954463 -1.604034,0.954463 0,0 -0.444844,0.707829 -0.593762,1.802474 -0.150484,1.106154 -0.007,2.422157 0.422196,3.183268 0.0951,0.16864 0.200046,0.297614 0.310573,0.372589 1.111234,0.753747 3.196712,2.014783 5.833237,2.986381 1.204534,0.443891 2.610771,0.858864 4.143417,1.109493 1.409549,0.230487 2.980513,0.331042 4.628658,0.156062 1.555255,-0.165129 3.185017,-0.576212 4.79919,-1.357024 1.542483,-0.746133 3.0236,-1.807128 4.389911,-3.244247 1.967791,-2.117286 3.80892,-3.836911 5.442045,-5.514909 0.783307,-0.80483 1.538274,-1.625248 2.201418,-2.476849 0.660281,-0.847923 1.248283,-1.749523 1.705321,-2.745052 0.457759,-0.997101 0.765795,-2.048446 0.909506,-3.194637 0.142644,-1.137711 0.118462,-2.330199 -0.05064,-3.613735 -0.169434,-1.286002 -0.48668,-2.681446 -0.93948,-4.219895 -0.458295,-1.557152 -1.063371,-3.287141 -1.810223,-5.217771 -1.480722,-3.808963 -2.210025,-7.000464 -2.516127,-9.694498 -0.327305,-2.880674 -0.177863,-5.271215 0.117306,-7.239868 0.324768,-2.166054 0.877083,-4.083711 1.25677,-5.440495 0.24066,-0.8599476 0.425657,-1.5328454 0.573609,-2.1890137 0.172212,-0.7637568 0.259467,-1.3646327 0.290423,-1.9042766 z M -169.57983,19.338354 c 0,0 0.28762,0.339358 0.87178,1.426787 0.43283,0.805732 1.07039,2.151392 1.52549,3.924308 0.40566,1.580343 0.69311,3.59856 0.50695,5.983614 -0.17365,2.224879 -0.76267,4.819063 -2.1084,7.736994 -1.41579,3.100903 -2.18771,6.385904 -2.17971,9.763228 0.008,3.339645 0.77948,6.698263 2.35489,9.958051 1.59138,3.292846 3.96508,6.407833 7.06727,9.259382 3.21549,2.95569 7.15879,5.579041 11.72228,7.832598 2.58835,1.272096 5.10729,1.946643 7.52306,2.156455 2.52127,0.218972 4.8792,-0.07276 7.02903,-0.669727 2.26957,-0.630235 4.31668,-1.602994 6.10763,-2.691823 1.93232,-1.174763 3.62912,-2.522299 5.06016,-3.825089 3.36446,-3.062949 5.76006,-6.33408 6.93394,-8.079094 0.11636,-0.17298 0.22667,-0.339614 0.33022,-0.498679 0.43231,-0.664075 0.34781,-2.279007 -0.0481,-3.476789 -0.39195,-1.18595 -1.11105,-1.830896 -1.11105,-1.830898 v -5.29e-4 c -1e-5,0 -0.92528,-0.210611 -2.09909,-0.01913 -1.16257,0.189659 -2.57347,0.696741 -2.92592,1.238168 -0.0891,0.136822 -0.18326,0.280588 -0.28216,0.430464 -1.0074,1.525929 -2.97821,4.405686 -5.63531,7.065203 -1.12879,1.129819 -2.42063,2.260648 -3.853,3.243212 -1.3261,0.909667 -2.77914,1.696752 -4.34185,2.235523 -1.4692,0.506534 -3.06744,0.805209 -4.79351,0.761709 -1.65116,-0.04162 -3.48985,-0.398423 -5.51129,-1.26297 -4.27349,-1.841373 -7.92659,-3.98045 -10.91354,-6.370156 -2.87704,-2.301769 -5.09654,-4.804087 -6.65851,-7.442438 -1.54299,-2.606299 -2.44561,-5.34656 -2.70785,-8.158676 -0.266,-2.852462 0.12799,-5.775489 1.17564,-8.683706 1.20425,-3.30295 1.56989,-6.198127 1.50069,-8.634098 -0.0739,-2.600844 -0.64564,-4.718531 -1.27899,-6.30866 -0.71309,-1.790299 -1.56522,-3.065296 -2.13114,-3.805452 -0.76459,-0.999991 -1.12965,-1.257805 -1.12965,-1.257805 z" />
  </clipPath>
  <clipPath
     clipPathUnits="userSpaceOnUse"
     id="clipPath99">
    <path
       style="color:#000000;fill:#6f8a91;stroke-width:0.999998;-inkscape-stroke:none;paint-order:markers stroke fill"
       d="m -127.71623,16.079638 c -0.77804,-0.02289 -1.60173,0.09913 -2.46084,0.335897 -1.32027,0.36387 -2.72718,0.999763 -4.15995,1.79524 1.43453,-0.796453 2.85172,-1.407772 4.17856,-1.722376 1.15435,-0.273707 2.21686,-0.317232 3.15484,-0.08682 0.43168,0.106042 0.83261,0.269346 1.20303,0.490926 0.35466,0.212152 0.68082,0.477598 0.97875,0.798401 0.56433,0.607653 1.03018,1.415646 1.3994,2.441194 0.34823,0.967247 0.60833,2.1219 0.786,3.472656 0.16934,1.28737 0.26211,2.739157 0.28835,4.357358 0.05,3.085081 -0.1416,6.648378 -0.45682,10.697022 -0.29606,3.802488 -0.69714,7.949861 -1.04231,12.211139 -0.33129,4.08976 -0.61388,8.345572 -0.66094,12.405961 -0.046,3.973354 0.13047,7.881014 0.74362,11.399821 0.30524,1.751698 0.72437,3.440711 1.29501,5.017265 0.56979,1.574247 1.30056,3.064303 2.24328,4.402833 1.47389,2.146337 3.28377,3.835305 5.3728,5.046202 2.11729,1.227278 4.43607,1.913856 6.8249,2.139405 2.44717,0.231058 4.93256,-0.02389 7.34322,-0.635619 2.517972,-0.638942 4.965034,-1.66928 7.258993,-2.964677 5.174009,-2.921797 9.503793,-7.135038 12.708268,-11.607562 3.333303,-4.652333 5.321366,-9.369118 6.403742,-13.434322 0.109977,-0.413054 0.158136,-0.531548 -2.125967,-2.660819 -2.284108,-2.129272 -2.908718,-2.852862 -5.714896,-2.067057 -2.806182,0.785807 -2.462313,1.607944 -2.545064,1.918745 -0.812927,3.053193 -2.151301,6.6954 -4.479314,10.46758 -2.254562,3.653171 -5.294516,7.16611 -8.942607,9.789581 -1.6065,1.15529 -3.276945,2.095947 -4.952665,2.763657 -1.59966,0.6374 -3.18468,1.017472 -4.69481,1.106393 -1.45999,0.086 -2.87934,-0.09699 -4.21731,-0.608748 -1.3199,-0.504812 -2.63252,-1.357445 -3.84938,-2.696993 -0.69685,-0.783882 -1.3299,-1.759898 -1.89291,-2.938841 -0.56365,-1.180309 -1.04256,-2.533402 -1.44229,-4.044196 -0.80888,-3.057186 -1.2608,-6.631014 -1.49189,-10.484633 -0.23492,-3.917619 -0.2391,-8.080338 -0.17725,-12.167214 0.0642,-4.241583 0.19693,-8.414009 0.24029,-12.258683 0.0461,-4.091199 -0.007,-7.723621 -0.29455,-10.876338 -0.15067,-1.654726 -0.36322,-3.145918 -0.65061,-4.471046 -0.30156,-1.390491 -0.68252,-2.58521 -1.15239,-3.584794 -0.49933,-1.062258 -1.09293,-1.890256 -1.77973,-2.495455 -0.36166,-0.318692 -0.74553,-0.572458 -1.15032,-0.765845 -0.42232,-0.201768 -0.86483,-0.336996 -1.3255,-0.412895 -0.24878,-0.04099 -0.5034,-0.06472 -0.76274,-0.07235 z m 95.859778,11.243242 c -0.829196,-0.01418 -1.745456,0.114721 -2.748669,0.437182 -1.28765,0.413874 -2.709349,1.14377 -4.269507,2.286682 -1.5176,1.111735 -3.172365,2.618709 -4.972307,4.62039 -1.824164,2.03327 -3.057414,4.05344 -3.764629,6.09627 -0.704292,2.034392 -0.864769,4.017393 -0.66766,5.960358 0.193323,1.905638 0.725374,3.721995 1.349788,5.438945 0.624202,1.716376 1.344543,3.353395 1.966806,4.92838 0.631614,1.598639 1.14,3.069754 1.427303,4.522206 0.285451,1.443074 0.336233,2.794322 0.100253,4.141866 -0.236386,1.349881 -0.780177,2.808338 -1.81746,4.433322 -1.069197,1.674992 -2.680438,3.5532 -5.059124,5.66167 -2.540148,2.255954 -4.46569,3.616161 -5.89008,4.354772 -0.719889,0.373298 -1.25372,0.556268 -1.614887,0.626319 -0.368419,0.0714 -0.82922,0.248777 -0.854728,0.206187 -0.05003,-0.0835 0.504832,-0.42246 0.629417,-0.47284 0.136879,-0.0554 0.07338,-0.194302 0.07338,-0.194302 0,0 -0.03587,-0.0556 -0.186036,-0.45217 -0.16011,-0.422778 -0.325843,-0.937212 -0.501262,-1.580782 -0.375684,-1.378289 -0.708996,-3.021105 -1.084172,-4.880322 -0.417253,-2.067761 -0.833239,-4.12352 -1.37976,-6.251815 -0.629234,-2.450407 -1.362244,-4.712626 -2.288233,-6.816119 -0.302654,-0.687523 -0.620212,-1.344996 -0.953428,-1.974041 -0.263219,-0.496903 -0.798894,-0.613875 -3.568259,-0.91209 -2.769364,-0.298212 -3.614615,1.352333 -4.325834,2.915587 -0.711218,1.563248 0.325184,-0.688605 -5.29e-4,0 -0.325702,0.688602 -1.454229,2.62306 -1.287777,2.937287 0.217868,0.41129 0.436774,0.854499 0.655772,1.334802 0.67691,1.484572 1.296681,3.186647 1.92495,5.280816 0.568928,1.89638 1.000421,3.604165 1.574064,5.772772 0.469469,1.774801 1.024059,3.81431 1.690336,5.617228 0.322916,0.873811 0.701516,1.775984 1.155999,2.639632 0.438232,0.832749 0.985705,1.703795 1.681554,2.502175 0.683858,0.784638 1.547137,1.54023 2.628778,2.09858 1.074767,0.554789 2.25258,0.856123 3.493328,0.879533 1.191318,0.02249 2.344095,-0.212027 3.439583,-0.604615 1.069523,-0.3833 2.131455,-0.934006 3.193085,-1.609204 2.053145,-1.30579 4.345215,-3.2326 6.9665,-5.810499 2.667923,-2.619856 4.644959,-5.170421 5.994466,-7.699787 1.334399,-2.501038 2.025742,-4.930069 2.185913,-7.295679 0.157501,-2.326294 -0.20724,-4.454671 -0.81752,-6.395993 -0.59935,-1.9065 -1.447287,-3.667575 -2.284616,-5.265827 -0.844259,-1.611498 -1.702422,-3.111643 -2.411222,-4.550111 -0.714558,-1.450134 -1.269436,-2.813058 -1.567344,-4.173387 -0.296259,-1.352764 -0.346292,-2.738191 0.0052,-4.226099 0.359751,-1.524135 1.155337,-3.21595 2.624645,-5.104599 1.55584,-1.994132 2.951681,-3.490179 4.19716,-4.605403 1.278699,-1.144979 2.402633,-1.892133 3.383774,-2.365232 1.013318,-0.488612 1.900418,-0.697651 2.678907,-0.731221 0.819068,-0.03532 1.553284,0.122422 2.211234,0.397909 0.70045,0.293288 1.310915,0.719207 1.827794,1.180291 0.557459,0.497284 1.010244,1.038952 1.355474,1.509985 0.879679,1.20025 1.11311,1.848982 1.11311,1.848982 0,0 -0.09401,-0.681011 -0.773079,-2.057755 -0.26583,-0.538861 -0.638244,-1.189169 -1.138433,-1.827797 -0.461139,-0.588764 -1.059592,-1.204132 -1.82056,-1.705837 -0.719479,-0.474348 -1.607532,-0.861788 -2.681492,-1.006658 -0.257013,-0.03467 -0.523552,-0.05522 -0.799949,-0.05994 z"
       id="path100" />
  </clipPath>
  <filter
     style="color-interpolation-filters:sRGB;"
     inkscape:label="Noise Fill"
     id="filter41"
     x="0"
     y="0"
     width="1"
     height="1">
    <feTurbulence
       type="fractalNoise"
       baseFrequency="10 10"
       numOctaves="4"
       seed="2"
       result="turbulence"
       id="feTurbulence40" />
    <feComposite
       in="SourceGraphic"
       in2="turbulence"
       operator="in"
       result="composite1"
       id="feComposite40" />
    <feColorMatrix
       values="1 0 0 0 0 0 1 0 0 0 0 0 1 0 0 0 0 0 4 -1 "
       result="color"
       id="feColorMatrix40" />
    <feFlood
       flood-opacity="1"
       flood-color="rgb(255,158,0)"
       result="flood"
       id="feFlood40" />
    <feMerge
       result="merge"
       id="feMerge41">
      <feMergeNode
         in="flood"
         id="feMergeNode40" />
      <feMergeNode
         in="color"
         id="feMergeNode41" />
    </feMerge>
    <feComposite
       in2="SourceGraphic"
       operator="in"
       result="composite2"
       id="feComposite41" />
  </filter>
  <filter
     style="color-interpolation-filters:sRGB;"
     inkscape:label="Noise Fill"
     id="filter43"
     x="0"
     y="0"
     width="1"
     height="1">
    <feTurbulence
       type="fractalNoise"
       baseFrequency="10 10"
       numOctaves="4"
       seed="2"
       result="turbulence"
       id="feTurbulence41" />
    <feComposite
       in="SourceGraphic"
       in2="turbulence"
       operator="in"
       result="composite1"
       id="feComposite42" />
    <feColorMatrix
       values="1 0 0 0 0 0 1 0 0 0 0 0 1 0 0 0 0 0 4 -1 "
       result="color"
       id="feColorMatrix42" />
    <feFlood
       flood-opacity="1"
       flood-color="rgb(255,158,0)"
       result="flood"
       id="feFlood42" />
    <feMerge
       result="merge"
       id="feMerge43">
      <feMergeNode
         in="flood"
         id="feMergeNode42" />
      <feMergeNode
         in="color"
         id="feMergeNode43" />
    </feMerge>
    <feComposite
       in2="SourceGraphic"
       operator="in"
       result="composite2"
       id="feComposite43" />
  </filter>
</defs>
<g
   inkscape:label="Layer 1"
   inkscape:groupmode="layer"
   id="layer1"
   style="display:inline">
  <path
     id="path10"
     style="fill:#217867;fill-rule:nonzero;stroke:none;stroke-width:0.27844;stroke-linecap:butt;stroke-linejoin:miter;stroke-dasharray:none;stroke-opacity:1"
     d="m 3.7506341,12.326423 c -1.0199367,0.01921 -2.0379247,0.07271 -3.01986685,0.178761 -0.94015737,0.101533 -1.86758145,0.25228 -2.74483715,0.476018 -0.8509091,0.217013 -1.6887306,0.509148 -2.4554759,0.931723 -0.3781891,0.208429 -0.7478698,0.454912 -1.0932941,0.747545 -0.3421888,0.2899 -0.6603434,0.629167 -0.934282,1.021103 -0.2722745,0.389511 -0.4973856,0.825505 -0.6524277,1.304818 -0.153695,0.475183 -0.2361759,0.977214 -0.2477314,1.492381 -0.022847,1.015838 0.2277671,2.052163 0.6838207,3.096489 0.4484335,1.026848 1.1072021,2.089355 1.9832164,3.214308 1.7133474,2.200255 4.3157165,4.721176 8.0604852,7.688067 3.4962655,2.773754 6.3087282,5.324929 8.5170477,7.659627 2.176572,2.301108 3.733943,4.356476 4.790157,6.162507 1.045795,1.788232 1.572466,3.280338 1.779845,4.496781 0.204473,1.199221 0.108201,2.134982 -0.128984,2.937364 -0.237436,0.803225 -0.648222,1.55608 -1.225008,2.303576 -0.586043,0.759513 -1.346595,1.51234 -2.246645,2.26498 -0.911763,0.762435 -1.930168,1.496174 -3.010312,2.236541 -1.089138,0.746549 -2.2230974,1.486146 -3.3351613,2.277845 -0.0078,0.0051 -0.015539,0.01028 -0.023203,0.01557 -0.9429307,0.710888 -1.7411162,1.549179 -2.4117988,2.433584 -0.680376,0.897227 -1.252409,1.870427 -1.7232008,2.879132 -0.9598876,2.056603 -1.5519115,4.35662 -1.774385,6.713008 -0.2317708,2.454586 -0.0657,5.029196 0.5650734,7.567539 0.6638153,2.671338 1.8381486,5.279174 3.5774332,7.639314 0.4001175,0.542937 0.8380431,1.0579 1.2891589,1.562802 C 6.5878754,91.45084 5.2189143,91.229675 3.8482252,90.930372 2.5557931,90.648159 1.2865693,90.309289 0.00599922,89.941771 -0.13657546,85.88677 -0.13100372,81.68862 -0.06770601,77.538212 0.01694646,71.99181 0.19220168,66.524566 0.24963593,61.471412 0.31064909,56.094754 0.24303307,51.305813 -0.14277614,47.11435 -0.34466104,44.91438 -0.63110578,42.918358 -1.0224616,41.127896 -1.4331119,39.249207 -1.9569271,37.611904 -2.6214555,36.209267 -3.3277291,34.718495 -4.1883334,33.508432 -5.2263892,32.600872 -5.7729589,32.122998 -6.36196,31.737341 -6.9857602,31.441636 -7.6360918,31.133356 -8.3189185,30.926208 -9.0181135,30.81191 -9.3958272,30.75017 -9.7798119,30.71552 -10.166004,30.704248 h -6.83e-4 c -1.158695,-0.03382 -2.348604,0.144853 -3.559689,0.476018 -1.861218,0.508964 -3.783569,1.378732 -5.723074,2.447126 0,0 -1.170825,1.282429 -0.822359,1.816724 0.348466,0.534295 1.841265,0 1.841265,0 1.837342,-1.012121 3.6328,-1.773803 5.251498,-2.154609 1.408242,-0.331298 2.642105,-0.366382 3.6729766,-0.115111 0.4739878,0.115531 0.9021325,0.29062 1.3000783,0.526803 0.3807644,0.225987 0.7325183,0.507321 1.0625836,0.859948 0.6257151,0.66848 1.1778504,1.597984 1.6297044,2.843244 0.4261677,1.174484 0.7580138,2.619861 0.9854661,4.335625 0.2168081,1.635302 0.3370913,3.498297 0.371256,5.588982 0.065107,3.986388 -0.1826908,8.629242 -0.5978313,13.91964 -0.3898767,4.968304 -0.9211775,10.403654 -1.3778782,15.997734 -0.2822022,3.456488 -0.5284788,7.004968 -0.6920101,10.526571 -3.6689074,-1.209218 -6.7717974,-1.715892 -9.2349914,-2.063197 -1.047038,-0.14763 -1.82569,-0.263215 -2.590602,-0.390701 -0.482716,-1.554419 -0.821749,-3.129009 -0.971817,-4.725649 -0.335982,-3.574719 0.159305,-7.244658 1.493895,-10.922011 v -0.0041 c 1.633753,-4.447461 2.13971,-8.379546 2.044638,-11.69935 -0.04596,-1.60472 -0.245254,-3.057358 -0.516619,-4.390473 0.567218,-0.262699 1.160842,-0.540133 1.698632,-0.803069 1.339346,-0.654837 2.511833,-1.310493 3.517377,-2.12143 0.537489,-0.433466 1.01168,-0.899876 1.4120013,-1.411803 0.427005,-0.54605 0.7626915,-1.135587 1.0059398,-1.759846 0.2633577,-0.67587 0.4156219,-1.385102 0.4743068,-2.113304 0.065094,-0.807639 0.01558,-1.632071 -0.1112403,-2.468794 0,0 -0.3630665,-1.377769 -1.2343216,-1.159237 -0.871255,0.218532 -0.830107,1.472068 -0.830107,1.472068 0.106614,0.703463 0.132001,1.360675 0.06688,1.956888 -0.05875,0.537845 -0.188756,1.019963 -0.389,1.460557 -0.184553,0.406069 -0.426944,0.774168 -0.745924,1.12538 -0.299154,0.329383 -0.662946,0.639654 -1.101484,0.93714 -0.822228,0.557765 -1.87217,1.042919 -3.172054,1.543166 -0.44658,0.171861 -0.901849,0.334325 -1.343756,0.4943 -0.160168,-0.481703 -0.322688,-0.959087 -0.494098,-1.386073 -0.984993,-2.453641 -2.165072,-4.207082 -2.957081,-5.234846 -0.527473,-0.684482 -0.927427,-1.129011 -1.210676,-1.413835 -0.282853,-0.284423 -0.508478,-0.451846 -0.509112,-0.452319 0,0 -1.043915,-0.344051 -1.390163,-6.77e-4 -0.346248,0.343374 0,1.53504 0,1.53504 0,0 0.279429,0.308988 1.025731,1.687394 0.544166,1.005064 1.347889,2.688154 1.921796,4.906441 0.128403,0.49632 0.24743,1.027265 0.3501,1.591241 -1.206091,0.484581 -2.479179,1.047524 -3.722797,1.81063 -1.383017,0.848658 -2.770304,1.954673 -3.954831,3.45875 -1.147179,1.45665 -2.092872,3.279959 -2.672497,5.544969 -0.562681,2.198801 -0.780947,4.793302 -0.558249,7.881047 0.203655,2.857648 0.452859,5.33089 0.767763,7.466648 0.309728,2.10076 0.688973,3.916906 1.181331,5.494184 0.488819,1.56593 1.104536,2.943901 1.919748,4.144677 0.822238,1.211136 1.812126,2.181349 2.941385,2.952938 0.168159,0.114898 0.345708,0.192507 0.516619,0.297258 0.404564,1.132645 0.876927,2.258099 1.42019,3.373432 2.167143,4.449156 5.387427,8.634093 9.56803,12.446893 2.433011,2.21896 5.19798,4.27527 8.2085782,6.19568 0.2315516,0.81758 0.4604444,1.63697 0.7466066,2.4214 0.7776669,2.13177 1.782167,4.16816 3.0901598,6.01151 6.603e-4,9.4e-4 0.00141,0.002 0.00273,0.003 2.02656143,2.9249 4.5319681,5.24777 7.4258013,6.91208 2.9366876,1.68894 6.1506651,2.63256 9.4404101,2.94075 3.369723,0.31568 6.771889,-0.0334 10.054621,-0.85995 3.428776,-0.86326 6.744948,-2.2506 9.845107,-3.98758 6.990599,-3.9168 12.808654,-9.53862 17.119403,-15.50818 l 13.094962,-0.77327 c 0.621411,2.33086 1.358904,5.02956 2.262341,7.45513 0.437479,1.17456 0.952676,2.39752 1.58125,3.58267 0.606006,1.14256 1.371785,2.35349 2.359932,3.47838 0.971208,1.10564 2.212535,2.18526 3.781487,2.98883 1.559263,0.79859 3.277698,1.23599 5.073377,1.26961 1.72355,0.0323 3.374644,-0.30701 4.916411,-0.85521 0.887292,-0.31551 1.759208,-0.7282 2.625407,-1.18497 0.261885,0.0701 0.51996,0.15292 0.784824,0.21262 2.160046,0.4869 4.370207,0.61619 6.56659,0.40086 4.174907,-0.40933 8.20374,-2.04898 11.70685,-4.64101 l 0.002,-0.002 c 1.85466,-1.36219 3.40418,-2.808 4.62296,-4.39657 1.21134,-1.57885 2.05941,-3.26146 2.54897,-5.03712 0.0402,-0.14592 0.0625,-0.29102 0.0976,-0.43675 1.36976,-0.4533 2.70692,-1.09257 4.00534,-1.92642 1.64974,-1.05947 3.23106,-2.41707 4.76968,-4.0641 l -0.005,0.007 c 3.92785,-4.1335 7.84342,-7.512749 11.41407,-10.638292 1.78853,-1.565568 3.49086,-3.068469 5.03721,-4.555691 1.5599,-1.500249 2.97917,-3.003067 4.18141,-4.570587 1.21859,-1.588858 2.22113,-3.255925 2.89634,-5.056763 0.68851,-1.836339 1.01247,-3.760602 0.92336,-5.773837 -0.0903,-2.039821 -0.59742,-4.116087 -1.4782,-6.260012 -0.89923,-2.188838 -2.19453,-4.474771 -3.87635,-6.912083 -9.1e-4,-1e-6 -0.002,-1e-6 -0.003,0 -3.12954,-4.520699 -4.38674,-9.065621 -4.66117,-13.282466 -0.2973,-4.568299 0.56908,-8.866722 1.70273,-12.381214 1.27117,-3.940856 2.97049,-7.186032 4.13227,-9.18248 1.51946,-2.611112 2.26984,-3.508857 2.26984,-3.508857 0.88023,-1.038007 -0.6481,-2.372243 -1.57374,-1.373884 0,0 -0.0458,0.06035 -0.0464,0.06094 l -0.005,-0.0047 c 0,0 -0.0682,0.103238 -0.0696,0.104954 -0.0825,0.08888 -0.93351,0.989176 -2.5865,3.487866 -1.33482,2.017729 -3.30598,5.319222 -4.89048,9.451298 -1.40665,3.668273 -2.63611,8.320526 -2.58446,13.479509 0.0479,4.778255 1.20942,10.17542 4.57518,15.582657 1.43872,2.318941 2.42904,4.366478 3.03079,6.175372 0.58625,1.762281 0.79578,3.267754 0.735,4.576004 -0.0593,1.27715 -0.37028,2.405493 -0.91039,3.506149 -0.5355,1.091254 -1.31868,2.186516 -2.37017,3.334836 -1.04354,1.13964 -2.33252,2.310749 -3.85861,3.572507 -1.51853,1.255512 -3.21932,2.558828 -5.11227,4.007897 -3.72042,2.848005 -8.1197,6.209085 -12.59268,10.443957 -1.24069,1.12882 -2.36481,1.89292 -3.35085,2.38754 -0.0437,0.0219 -0.079,0.0286 -0.12216,0.0494 -0.0371,-0.14646 -0.0623,-0.29458 -0.10101,-0.44081 -0.87471,-3.30307 -2.1564,-6.728701 -3.33584,-10.6735 -0.0481,-0.160897 -0.0922,-0.335271 -0.1399,-0.497686 1.00123,-0.983754 1.98703,-1.944312 2.90999,-2.885226 1.04797,-1.068351 2.07204,-2.16967 2.98438,-3.332128 0.90815,-1.157135 1.73309,-2.406677 2.37904,-3.802729 0.64695,-1.398188 1.08604,-2.886734 1.28916,-4.494072 0.2016,-1.595351 0.16452,-3.251359 -0.0683,-5.003947 -0.23319,-1.756059 -0.66641,-3.636522 -1.27551,-5.689874 -0.33026,-1.113324 -0.72442,-2.299252 -1.16359,-3.541359 0.14467,0.03185 0.29007,0.04948 0.43405,0.08464 1.13337,0.276773 2.24554,0.691079 3.31878,1.111837 1.35928,0.622072 2.90809,1.226536 3.88454,1.738178 0,0 1.49609,0.227552 1.76206,-0.295579 0.26596,-0.52313 -0.79366,-1.554324 -0.79366,-1.554324 -1.10589,-0.579511 -2.56485,-1.234166 -4.14251,-1.849903 -1.17952,-0.537104 -2.07897,-1.081383 -3.36109,-1.49983 -0.69266,-0.226065 -1.41908,-0.417512 -2.15929,-0.579618 -0.0706,-0.183548 -0.1246,-0.345255 -0.19723,-0.531543 v -0.002 c -1.35133,-3.448969 -2.19648,-6.471121 -2.72846,-9.166906 0.14254,-0.07503 0.29249,-0.162752 0.42927,-0.228191 1.22798,-0.587496 2.25111,-0.819793 3.12633,-0.857239 0.92053,-0.03939 1.72635,0.1337 2.47049,0.442839 0.79168,0.328898 1.50445,0.81857 2.12039,1.363728 0.66443,0.588081 1.21926,1.243289 1.64335,1.817401 1.10753,1.499335 1.32806,2.160026 1.32806,2.160026 0,0 0.78869,0.950063 1.28312,0.828402 0.49442,-0.121662 0.74172,-1.322702 0.74172,-1.322702 0,0 -0.0726,-0.19429 -0.0744,-0.204492 l 0.0232,-0.0047 c 0,0 -0.0688,-0.111988 -0.0703,-0.115788 -0.0404,-0.212343 -0.15872,-1.001768 -0.99775,-2.689537 -0.37487,-0.753966 -0.8996,-1.667793 -1.61742,-2.577134 -0.66183,-0.838395 -1.52838,-1.727439 -2.65134,-2.462023 -1.06211,-0.694761 -2.39228,-1.269033 -3.98009,-1.481548 -0.38019,-0.05088 -0.77316,-0.08047 -1.1786,-0.08735 -1.00773,-0.0171 -2.1074,0.152371 -3.25872,0.45435 -0.19814,-2.914705 -0.0371,-5.415627 0.28117,-7.521494 0.41638,-2.755326 1.12965,-5.217144 1.63312,-7.00214 0.3184,-1.128941 0.5682,-2.026641 0.77117,-2.919759 0.23674,-1.041708 0.36395,-1.890257 0.40879,-2.665838 0,0 -0.30646,-1.262804 -0.8551,-1.323826 -0.54864,-0.06102 -1.23117,1.202621 -1.23117,1.202621 -0.0338,0.584786 -0.17604,1.286906 -0.47294,2.193205 -0.25355,0.773952 -0.58925,1.61474 -1.03119,2.675994 -0.6899,1.656689 -1.79429,4.182642 -2.61107,7.111158 -0.7407,2.655687 -1.35573,6.010079 -1.31783,10.12639 -0.72298,0.422064 -1.45857,0.885119 -2.22139,1.439566 -2.07544,1.508507 -4.31124,3.532899 -6.726968,6.198394 -2.482683,2.745658 -4.194564,5.513202 -5.181886,8.342846 -0.982889,2.816965 -1.206903,5.583203 -0.9336,8.256174 0.268047,2.621585 0.998808,5.082429 1.839218,7.375235 0.839696,2.29089 1.796266,4.447832 2.607664,6.485495 0.391432,0.982992 0.734827,1.915928 1.034603,2.823607 -0.03349,0.02953 -0.06401,0.05358 -0.09759,0.08329 -1.109642,0.949551 -2.150842,1.494369 -3.103809,1.820786 -1.000248,0.342613 -1.992873,0.472311 -2.978237,0.462476 -0.357069,-0.0036 -0.71946,-0.05037 -1.08101,-0.08938 -0.4183,-0.278349 -0.843829,-0.581412 -1.247529,-0.830155 -1.684455,-1.037883 -3.38035,-1.934218 -4.764224,-2.625887 -0.811944,-0.405813 -1.504957,-0.740417 -2.129944,-1.036677 l 0.10578,0.05891 c -3.382649,-2.112751 -8.083909,-3.660657 -11.222985,-5.484028 -2.141711,-1.244037 -3.856009,-1.510019 -4.764224,-1.712447 -0.454107,-0.101208 -0.625995,-0.205262 -0.61148,-0.191626 0.01451,0.01364 -0.03822,0.03405 -0.03822,-0.40966 0,-0.112005 0.0036,-0.07881 0.002,-0.07652 -0.0016,0.0024 0.03785,-0.05131 0.201324,-0.138133 0.326944,-0.173646 1.078118,-0.406786 2.102646,-0.750254 2.049059,-0.686932 5.200713,-1.910388 9.25956,-5.000561 2.245677,-1.709729 4.080623,-3.756842 5.357278,-6.054844 1.276687,-2.298041 1.991406,-4.850832 1.991406,-7.524202 0,-5.022791 -0.245608,-8.212039 -1.826252,-10.490007 -1.580645,-2.277966 -4.312233,-3.195702 -8.499304,-3.890078 -3.735233,-0.619443 -7.915791,-0.01373 -11.678865,1.174133 -3.763074,1.18786 -7.098894,2.940006 -9.167429,4.85024 -6.12772,5.658779 -9.034563,11.925148 -7.082526,19.524196 0.64563,2.513356 1.492386,4.191552 2.465713,5.338446 0.973326,1.146896 2.083988,1.723522 3.020549,2.023924 0.936563,0.300403 1.708639,0.39965 1.993453,0.517323 0.142407,0.05883 0.139768,0.07069 0.150141,0.08667 0.01043,0.01599 0.06415,0.105825 0.06415,0.40966 0,0.501575 -0.02423,0.435385 -0.152188,0.514614 -0.127956,0.07923 -0.590708,0.201368 -1.276875,0.273559 -1.372334,0.14438 -3.545731,0.229112 -5.77767,1.52556 -1.977527,1.148671 -4.047076,2.180902 -6.022673,3.280666 -2.305485,0.602063 -4.549504,1.086882 -6.703763,1.423315 -3.695681,0.577157 -6.928953,0.701276 -9.670398,0.421848 -2.440751,-0.248777 -4.381524,-0.804189 -5.908702,-1.537748 -1.398113,-0.671568 -2.476898,-1.502447 -3.320148,-2.457284 -0.798585,-0.904247 -1.418118,-1.957533 -1.843995,-3.145241 -0.407864,-1.137549 -0.624289,-2.364118 -0.647651,-3.579955 -0.02258,-1.177825 0.141102,-2.257743 0.39992,-3.120188 0.125327,-0.417765 0.262792,-0.75707 0.394459,-1.023134 0.110933,-0.224236 0.19434,-0.347253 0.279124,-0.478727 0.7708,-0.761229 1.651154,-1.551246 2.728459,-2.551404 1.052728,-0.977364 2.222255,-2.097248 3.330384,-3.344993 1.100099,-1.238675 2.180894,-2.649508 3.056037,-4.258433 0.876872,-1.612052 1.5453,-3.424054 1.801,-5.425795 0.256573,-2.008709 0.08156,-4.093881 -0.565073,-6.226156 -0.644917,-2.126672 -1.742972,-4.262183 -3.283977,-6.436742 -1.555638,-2.195231 -3.587745,-4.467809 -6.13869,-6.855881 -2.593072,-2.427501 -5.744003,-4.9913 -9.5100208,-7.721246 v -6.77e-4 -6.77e-4 -6.78e-4 -6.77e-4 C 3.0633375,25.346882 0.63853475,23.220282 -0.86617926,21.567812 -1.6323038,20.726456 -2.1428991,20.026785 -2.4631258,19.471436 -2.7872219,18.909388 -2.906315,18.51451 -2.9422097,18.271572 c -0.018225,-0.123077 -0.01651,-0.211388 -0.00819,-0.281683 0.00924,-0.07262 0.023275,-0.131808 0.053914,-0.199752 0.031827,-0.0705 0.0817,-0.154673 0.1678841,-0.255953 0.086105,-0.101169 0.2099238,-0.21728 0.3739858,-0.340593 0.3357837,-0.252388 0.8215157,-0.511744 1.43383958,-0.742128 0.62646783,-0.235705 1.36706787,-0.436117 2.17225672,-0.598578 1.6852971,-0.340039 3.629183,-0.509102 5.5169725,-0.573524 2.0305762,-0.06929 4.046237,-0.02017 5.71352,0.05688 4.279941,0.197788 6.185096,0.47805 6.185096,0.47805 1.314906,0.173476 1.673654,-1.733325 0.384223,-2.042206 0,0 -0.07646,-0.01274 -0.07712,-0.01287 v -0.0027 c 0,0 -0.05433,-0.0047 -0.0546,-0.0047 -0.08228,-0.01811 -1.985235,-0.441304 -6.236281,-0.924274 -1.70444,-0.193691 -3.771368,-0.38239 -5.9073305,-0.465231 -0.9846098,-0.03819 -2.005535,-0.05509 -3.0253264,-0.03589 z m -26.2745471,29.916019 6.82e-4,-6.77e-4 h -0.0014 z M 109.29242,54.249206 c 0.31158,1.949636 0.80784,4.07441 1.43998,6.31486 -1.07179,0.312431 -2.13991,0.830516 -3.11473,1.653537 -1.06828,0.901919 -1.99995,2.128839 -2.7305,3.709285 -0.70296,1.520749 -1.22229,3.362173 -1.53143,5.578149 -0.16731,1.199289 -0.25656,2.541892 -0.29482,3.978104 -0.78073,-1.634185 -1.40189,-3.174365 -1.72935,-4.657937 -0.36452,-1.651478 -0.42068,-3.287489 0.005,-5.075045 0.43536,-1.83008 1.40591,-3.908365 3.27101,-6.287774 l 0.003,-0.0027 c 1.72243,-2.190113 3.27616,-3.879529 4.68233,-5.21047 z m -129.564229,1.156528 c 0.02106,0.784443 0.01343,1.597927 -0.0546,2.462701 -0.219832,2.794522 -0.964343,6.065221 -2.690923,9.779703 v 0.002 l -0.0027,0.0014 c -1.243988,2.70331 -2.118932,5.5208 -2.58446,8.411913 -0.354234,-1.694987 -0.684948,-3.605712 -0.980689,-5.900459 v -0.002 c -0.344803,-2.655335 -0.291846,-4.75414 0,-6.43945 0.299387,-1.728866 0.850685,-3.057412 1.554635,-4.152125 0.734059,-1.141559 1.654823,-2.05588 2.70116,-2.845952 0.645039,-0.487061 1.343285,-0.914689 2.057604,-1.317684 z M 111.5998,63.697119 c 0.48793,1.737923 0.8985,3.356254 1.16086,4.752734 0.34828,1.853857 0.49836,3.38729 0.48864,4.656582 -0.01,1.255612 -0.17356,2.224771 -0.42039,2.998306 -0.24436,0.765765 -0.57847,1.379344 -1.00731,1.964337 -0.43442,0.59258 -1.00314,1.195817 -1.73685,1.855997 -0.47055,0.423386 -1.11866,0.919469 -1.71501,1.392844 -0.11908,-0.840515 -0.24517,-1.670289 -0.33577,-2.553435 -0.27849,-2.711875 -0.33171,-4.959592 -0.21907,-6.810514 0.11579,-1.90285 0.40758,-3.384976 0.79711,-4.529283 0.40278,-1.18323 0.91181,-2.017566 1.47069,-2.628596 0.44924,-0.491155 0.96334,-0.8267 1.5171,-1.098972 z M -13.267766,94.86514 c 1.160581,0.394597 2.367813,0.843323 3.6825318,1.426701 h 0.00205 l 0.00205,0.002 c 0.8648776,0.379754 1.7253988,0.728225 2.58446,1.09491 0.022708,1.17809 0.071723,2.343836 0.1358087,3.500059 -0.2540452,-0.19341 -0.5359802,-0.37694 -0.7827768,-0.57285 -2.1892963,-1.737859 -4.0376287,-3.566347 -5.6241187,-5.450851 z m 14.09817179,5.50163 c 0.16507978,0.052 0.32220571,0.11105 0.48863831,0.16184 4.154999,1.26798 8.4556217,2.07117 13.2498789,2.26159 5.099763,0.20255 10.429011,-0.32633 16.045218,-1.42941 -0.272103,0.2853 -0.512953,0.57302 -0.797109,0.85521 -1.455282,1.44522 -3.116721,2.885 -4.941662,4.12707 -1.689576,1.14994 -3.527488,2.1353 -5.484214,2.80465 -1.839825,0.62936 -3.822733,0.99686 -5.966711,0.94323 -2.050016,-0.0513 -4.3393236,-0.48857 -6.8928037,-1.5716 -1.5946938,-0.68176 -3.1017542,-1.40209 -4.559487,-2.14378 -0.4696161,-1.86383 -0.8501884,-3.86952 -1.14174851,-6.0088 z m 79.88281321,0.35888 c 0.316733,0.12633 0.604068,0.26184 0.934282,0.38257 1.639716,0.59954 3.558038,1.16249 5.662336,1.5039 0.185085,0.03 0.381963,0.0498 0.571215,0.0765 0.06934,0.0389 0.158371,0.0799 0.225211,0.1185 1.925431,1.36708 3.755789,2.77094 5.665065,4.17176 -0.738092,0.7432 -1.532123,1.50531 -2.439779,2.30358 -1.94379,1.71283 -3.57326,2.97699 -4.969643,3.94628 -0.212904,-0.24778 -0.433985,-0.46287 -0.640826,-0.73401 -1.025616,-1.34442 -1.960552,-2.96057 -2.785102,-4.84347 -0.920919,-2.10296 -1.647117,-4.44226 -2.222759,-6.92562 z m 23.630711,12.16453 c 0.35058,0.1127 0.6985,0.22909 1.05917,0.32367 -0.71087,0.69366 -1.64671,1.43845 -2.95912,2.24602 -0.16978,0.10234 -0.33981,0.17076 -0.5098,0.26543 0.86697,-0.94811 1.67427,-1.8929 2.40975,-2.83512 z"
     transform="matrix(0.7572129,0,0,0.76317521,23.680833,12.886509)"
     sodipodi:nodetypes="ssssscccccccscsssscccscsscsccccssssscccczcsssssccsscscsccscsssssczcssssscsssczcsscssscsssscsscsscssccccsssssscssccsscsccssssssccssscccccssscsssssscsccscsssscscscczccsccccsssssczcccccsssscsssczcssscscssssccsscssccsssscssssssssssssscsssscsssscccccsscsssscccccssccccssssscccccsssccccccssscscccccsccccccsssccscsssccssscccsccccccssssssscccccscccccsscccccccccc" />
</g>
<metadata
   id="metadata1">
  <rdf:RDF>
    <cc:Work
       rdf:about="">
      <dc:creator>
        <cc:Agent>
          <dc:title>Jess Tipton</dc:title>
        </cc:Agent>
      </dc:creator>
      <dc:publisher>
        <cc:Agent>
          <dc:title>m0dw3rks.com</dc:title>
        </cc:Agent>
      </dc:publisher>
      <cc:license
         rdf:resource="https://creativecommons.org/licenses/by-nc-nd/4.0/deed.en" />
    </cc:Work>
  </rdf:RDF>
</metadata>
<metadata
   id="metadata6">
  <rdf:RDF>
    <cc:Work
       rdf:about="">
      <dc:creator>
        <cc:Agent>
          <dc:title>Jess Tipton</dc:title>
        </cc:Agent>
      </dc:creator>
      <cc:license
         rdf:resource="https://creativecommons.org/licenses/by-nc-nd/4.0/deed.en" />
      <dc:publisher>
        <cc:Agent>
          <dc:title>m0dw3rks.com</dc:title>
        </cc:Agent>
      </dc:publisher>
    </cc:Work>
  </rdf:RDF>
</metadata>
<metadata
   id="metadata2">
  <rdf:RDF>
    <cc:Work
       rdf:about="">
      <dc:creator>
        <cc:Agent>
          <dc:title>Jess Tipton</dc:title>
        </cc:Agent>
      </dc:creator>
      <cc:license
         rdf:resource="https://creativecommons.org/licenses/by-nc-nd/4.0/deed.en" />
      <dc:publisher>
        <cc:Agent>
          <dc:title>m0dw3rks.com</dc:title>
        </cc:Agent>
      </dc:publisher>
    </cc:Work>
  </rdf:RDF>
</metadata>
<metadata
   id="metadata3">
  <rdf:RDF>
    <cc:Work
       rdf:about="">
      <dc:creator>
        <cc:Agent>
          <dc:title>Jess Tipton</dc:title>
        </cc:Agent>
      </dc:creator>
      <cc:license
         rdf:resource="https://creativecommons.org/licenses/by-nc-nd/4.0/deed.en" />
      <dc:publisher>
        <cc:Agent>
          <dc:title>m0dw3rks.com</dc:title>
        </cc:Agent>
      </dc:publisher>
    </cc:Work>
  </rdf:RDF>
</metadata>
<metadata
   id="metadata4">
  <rdf:RDF>
    <cc:Work
       rdf:about="">
      <dc:creator>
        <cc:Agent>
          <dc:title>Jess Tipton</dc:title>
        </cc:Agent>
      </dc:creator>
      <cc:license
         rdf:resource="https://creativecommons.org/licenses/by-nc-nd/4.0/deed.en" />
      <dc:publisher>
        <cc:Agent>
          <dc:title>m0dw3rks.com</dc:title>
        </cc:Agent>
      </dc:publisher>
    </cc:Work>
  </rdf:RDF>
</metadata>
<metadata
   id="metadata5">
  <rdf:RDF>
    <cc:Work
       rdf:about="">
      <dc:creator>
        <cc:Agent>
          <dc:title>Jess Tipton</dc:title>
        </cc:Agent>
      </dc:creator>
      <cc:license
         rdf:resource="https://creativecommons.org/licenses/by-nc-nd/4.0/deed.en" />
      <dc:publisher>
        <cc:Agent>
          <dc:title>m0dw3rks.com</dc:title>
        </cc:Agent>
      </dc:publisher>
    </cc:Work>
  </rdf:RDF>
</metadata>
<metadata
   id="metadata7">
  <rdf:RDF>
    <cc:Work
       rdf:about="">
      <dc:creator>
        <cc:Agent>
          <dc:title>Jess Tipton</dc:title>
        </cc:Agent>
      </dc:creator>
      <cc:license
         rdf:resource="https://creativecommons.org/licenses/by-nc-nd/4.0/deed.en" />
      <dc:publisher>
        <cc:Agent>
          <dc:title>m0dw3rks.com</dc:title>
        </cc:Agent>
      </dc:publisher>
    </cc:Work>
  </rdf:RDF>
</metadata>
<metadata
   id="metadata8">
  <rdf:RDF>
    <cc:Work
       rdf:about="">
      <dc:creator>
        <cc:Agent>
          <dc:title>Jess Tipton</dc:title>
        </cc:Agent>
      </dc:creator>
      <cc:license
         rdf:resource="https://creativecommons.org/licenses/by-nc-nd/4.0/deed.en" />
      <dc:publisher>
        <cc:Agent>
          <dc:title>m0dw3rks.com</dc:title>
        </cc:Agent>
      </dc:publisher>
    </cc:Work>
  </rdf:RDF>
</metadata>
<metadata
   id="metadata9">
  <rdf:RDF>
    <cc:Work
       rdf:about="">
      <dc:creator>
        <cc:Agent>
          <dc:title>Jess Tipton</dc:title>
        </cc:Agent>
      </dc:creator>
      <cc:license
         rdf:resource="https://creativecommons.org/licenses/by-nc-nd/4.0/deed.en" />
      <dc:publisher>
        <cc:Agent>
          <dc:title>m0dw3rks.com</dc:title>
        </cc:Agent>
      </dc:publisher>
    </cc:Work>
  </rdf:RDF>
</metadata>
<metadata
   id="metadata10">
  <rdf:RDF>
    <cc:Work
       rdf:about="">
      <dc:creator>
        <cc:Agent>
          <dc:title>Jess Tipton</dc:title>
        </cc:Agent>
      </dc:creator>
      <cc:license
         rdf:resource="https://creativecommons.org/licenses/by-nc-nd/4.0/deed.en" />
      <dc:publisher>
        <cc:Agent>
          <dc:title>m0dw3rks.com</dc:title>
        </cc:Agent>
      </dc:publisher>
    </cc:Work>
  </rdf:RDF>
</metadata>
<metadata
   id="metadata11">
  <rdf:RDF>
    <cc:Work
       rdf:about="">
      <dc:creator>
        <cc:Agent>
          <dc:title>Jess Tipton</dc:title>
        </cc:Agent>
      </dc:creator>
      <cc:license
         rdf:resource="https://creativecommons.org/licenses/by-nc-nd/4.0/deed.en" />
      <dc:publisher>
        <cc:Agent>
          <dc:title>m0dw3rks.com</dc:title>
        </cc:Agent>
      </dc:publisher>
    </cc:Work>
  </rdf:RDF>
</metadata>
<metadata
   id="metadata12">
  <rdf:RDF>
    <cc:Work
       rdf:about="">
      <dc:creator>
        <cc:Agent>
          <dc:title>Jess Tipton</dc:title>
        </cc:Agent>
      </dc:creator>
      <cc:license
         rdf:resource="https://creativecommons.org/licenses/by-nc-nd/4.0/deed.en" />
      <dc:publisher>
        <cc:Agent>
          <dc:title>m0dw3rks.com</dc:title>
        </cc:Agent>
      </dc:publisher>
    </cc:Work>
  </rdf:RDF>
</metadata>
<metadata
   id="metadata13">
  <rdf:RDF>
    <cc:Work
       rdf:about="">
      <dc:creator>
        <cc:Agent>
          <dc:title>Jess Tipton</dc:title>
        </cc:Agent>
      </dc:creator>
      <cc:license
         rdf:resource="https://creativecommons.org/licenses/by-nc-nd/4.0/deed.en" />
      <dc:publisher>
        <cc:Agent>
          <dc:title>m0dw3rks.com</dc:title>
        </cc:Agent>
      </dc:publisher>
    </cc:Work>
  </rdf:RDF>
</metadata>
<metadata
   id="metadata14">
  <rdf:RDF>
    <cc:Work
       rdf:about="">
      <dc:creator>
        <cc:Agent>
          <dc:title>Jess Tipton</dc:title>
        </cc:Agent>
      </dc:creator>
      <cc:license
         rdf:resource="https://creativecommons.org/licenses/by-nc-nd/4.0/deed.en" />
      <dc:publisher>
        <cc:Agent>
          <dc:title>m0dw3rks.com</dc:title>
        </cc:Agent>
      </dc:publisher>
    </cc:Work>
  </rdf:RDF>
</metadata>
<metadata
   id="metadata15">
  <rdf:RDF>
    <cc:Work
       rdf:about="">
      <dc:creator>
        <cc:Agent>
          <dc:title>Jess Tipton</dc:title>
        </cc:Agent>
      </dc:creator>
      <cc:license
         rdf:resource="https://creativecommons.org/licenses/by-nc-nd/4.0/deed.en" />
      <dc:publisher>
        <cc:Agent>
          <dc:title>m0dw3rks.com</dc:title>
        </cc:Agent>
      </dc:publisher>
    </cc:Work>
  </rdf:RDF>
</metadata>
<metadata
   id="metadata16">
  <rdf:RDF>
    <cc:Work
       rdf:about="">
      <dc:creator>
        <cc:Agent>
          <dc:title>Jess Tipton</dc:title>
        </cc:Agent>
      </dc:creator>
      <cc:license
         rdf:resource="https://creativecommons.org/licenses/by-nc-nd/4.0/deed.en" />
      <dc:publisher>
        <cc:Agent>
          <dc:title>m0dw3rks.com</dc:title>
        </cc:Agent>
      </dc:publisher>
    </cc:Work>
  </rdf:RDF>
</metadata>
<metadata
   id="metadata17">
  <rdf:RDF>
    <cc:Work
       rdf:about="">
      <dc:creator>
        <cc:Agent>
          <dc:title>Jess Tipton</dc:title>
        </cc:Agent>
      </dc:creator>
      <cc:license
         rdf:resource="https://creativecommons.org/licenses/by-nc-nd/4.0/deed.en" />
      <dc:publisher>
        <cc:Agent>
          <dc:title>m0dw3rks.com</dc:title>
        </cc:Agent>
      </dc:publisher>
    </cc:Work>
  </rdf:RDF>
</metadata>
<metadata
   id="metadata18">
  <rdf:RDF>
    <cc:Work
       rdf:about="">
      <dc:creator>
        <cc:Agent>
          <dc:title>Jess Tipton</dc:title>
        </cc:Agent>
      </dc:creator>
      <cc:license
         rdf:resource="https://creativecommons.org/licenses/by-nc-nd/4.0/deed.en" />
      <dc:publisher>
        <cc:Agent>
          <dc:title>m0dw3rks.com</dc:title>
        </cc:Agent>
      </dc:publisher>
    </cc:Work>
  </rdf:RDF>
</metadata>
</svg>
