<?xml version="1.0" encoding="UTF-8" standalone="no"?>
<!-- Created with Inkscape (http://www.inkscape.org/) -->

<svg
   width="512"
   height="512"
   viewBox="0 0 135.46666 135.46667"
   version="1.1"
   id="svg5"
   inkscape:version="1.4.2 (ebf0e940d0, 2025-05-08)"
   sodipodi:docname="package-broken.svg"
   xml:space="preserve"
   xmlns:inkscape="http://www.inkscape.org/namespaces/inkscape"
   xmlns:sodipodi="http://sodipodi.sourceforge.net/DTD/sodipodi-0.dtd"
   xmlns:xlink="http://www.w3.org/1999/xlink"
   xmlns="http://www.w3.org/2000/svg"
   xmlns:svg="http://www.w3.org/2000/svg"><sodipodi:namedview
     id="namedview7"
     pagecolor="#292929"
     bordercolor="#666666"
     borderopacity="1"
     inkscape:showpageshadow="0"
     inkscape:pageopacity="0"
     inkscape:pagecheckerboard="1"
     inkscape:deskcolor="#1a1a1a"
     inkscape:document-units="px"
     showgrid="false"
     inkscape:zoom="1.3037281"
     inkscape:cx="344.01344"
     inkscape:cy="238.93018"
     inkscape:window-width="3256"
     inkscape:window-height="1080"
     inkscape:window-x="1864"
     inkscape:window-y="0"
     inkscape:window-maximized="0"
     inkscape:current-layer="layer2" /><defs
     id="defs2"><linearGradient
       id="linearGradient1"
       inkscape:collect="always"><stop
         style="stop-color:#000000;stop-opacity:1;"
         offset="0"
         id="stop1" /><stop
         style="stop-color:#1a1a1a;stop-opacity:1;"
         offset="1"
         id="stop2" /></linearGradient><radialGradient
       inkscape:collect="always"
       xlink:href="#linearGradient1"
       id="radialGradient2"
       cx="67.733333"
       cy="67.733333"
       fx="67.733333"
       fy="67.733333"
       r="67.733336"
       gradientUnits="userSpaceOnUse" /><inkscape:path-effect
       effect="fillet_chamfer"
       id="path-effect12"
       is_visible="true"
       lpeversion="1"
       nodesatellites_param="F,0,0,1,0,0,0,1 @ F,0,0,1,0,0,0,1 @ F,0,0,1,0,0,0,1 @ F,0,0,1,0,0,0,1 @ F,0,0,1,0,0,0,1 @ F,0,0,1,0,0,0,1 | F,0,1,1,0,5.1395358,0,1 @ F,0,1,1,0,5.1395358,0,1 @ F,0,1,1,0,5.1395358,0,1"
       radius="26"
       unit="px"
       method="auto"
       mode="F"
       chamfer_steps="1"
       flexible="false"
       use_knot_distance="true"
       apply_no_radius="true"
       apply_with_radius="true"
       only_selected="true"
       hide_knots="false" /><inkscape:path-effect
       effect="fillet_chamfer"
       id="path-effect11"
       is_visible="true"
       lpeversion="1"
       nodesatellites_param="F,0,1,1,0,6.127908,0,1 @ F,0,1,1,0,6.127908,0,1 @ F,0,1,1,0,6.127908,0,1 @ F,0,1,1,0,6.127908,0,1 @ F,0,1,1,0,6.127908,0,1 @ F,0,1,1,0,6.127908,0,1 | F,0,1,1,0,6.127908,0,1 @ F,0,1,1,0,6.127908,0,1 @ F,0,1,1,0,6.127908,0,1"
       radius="31"
       unit="px"
       method="auto"
       mode="F"
       chamfer_steps="1"
       flexible="false"
       use_knot_distance="true"
       apply_no_radius="true"
       apply_with_radius="true"
       only_selected="true"
       hide_knots="false" /><inkscape:path-effect
       effect="fillet_chamfer"
       id="path-effect10"
       is_visible="true"
       lpeversion="1"
       nodesatellites_param="F,0,0,1,0,5.3372102,0,1 @ F,0,0,1,0,5.3372102,0,1 @ F,0,0,1,0,5.3372102,0,1 @ F,0,0,1,0,5.3372102,0,1 @ F,0,0,1,0,5.3372102,0,1 @ F,0,0,1,0,5.3372102,0,1 | F,0,0,1,0,5.3372102,0,1 @ F,0,0,1,0,5.3372102,0,1 @ F,0,0,1,0,5.3372102,0,1"
       radius="27"
       unit="px"
       method="auto"
       mode="F"
       chamfer_steps="1"
       flexible="false"
       use_knot_distance="true"
       apply_no_radius="true"
       apply_with_radius="true"
       only_selected="false"
       hide_knots="false" /></defs><g
     inkscape:label="Layer 1"
     inkscape:groupmode="layer"
     id="layer1"><rect
       style="display:inline;fill:url(#radialGradient2);stroke:#ffffff;stroke-width:3.175;stroke-linecap:round;stroke-linejoin:round;stroke-dasharray:none;stroke-opacity:1;paint-order:markers stroke fill"
       id="rect1"
       width="132.29167"
       height="132.29167"
       x="1.5874966"
       y="1.5874966"
       ry="18.082767"
       inkscape:label="Base"
       sodipodi:insensitive="true" /><rect
       style="display:none;mix-blend-mode:multiply;fill:#6b00ff;fill-opacity:1;stroke:#ffffff;stroke-width:3.175;stroke-linecap:round;stroke-linejoin:round;stroke-dasharray:none;stroke-opacity:1;paint-order:markers stroke fill"
       id="rect2"
       width="132.29167"
       height="132.29167"
       x="1.5874966"
       y="1.5874966"
       ry="18.082767"
       inkscape:label="reinstall" /><rect
       style="display:none;mix-blend-mode:color;fill:#ab37c8;fill-opacity:1;stroke:#ffffff;stroke-width:3.175;stroke-linecap:round;stroke-linejoin:round;stroke-dasharray:none;stroke-opacity:1;paint-order:markers stroke fill"
       id="rect4"
       width="132.29167"
       height="132.29167"
       x="1.5874966"
       y="1.5874966"
       ry="18.082767"
       inkscape:label="remove" /><rect
       style="display:inline;mix-blend-mode:color;fill:#ff0000;fill-opacity:1;stroke:#ffffff;stroke-width:3.175;stroke-linecap:round;stroke-linejoin:round;stroke-dasharray:none;stroke-opacity:1;paint-order:markers stroke fill"
       id="rect7"
       width="132.29167"
       height="132.29167"
       x="1.5874966"
       y="1.5874966"
       ry="18.082767"
       inkscape:label="purge" /></g><g
     inkscape:groupmode="layer"
     id="layer2"
     inkscape:label="Layer 2"><g
       id="g9"
       transform="translate(173.29444,48.76951)"
       style="display:none"
       sodipodi:insensitive="true"><rect
         style="fill:#ff6600;fill-opacity:1;stroke:none;stroke-width:3.175;stroke-linecap:round;stroke-linejoin:round;stroke-dasharray:none;stroke-opacity:1;paint-order:markers stroke fill"
         id="rect8"
         width="17.371483"
         height="137.45409"
         x="-69.919273"
         y="19.325384"
         ry="8.6857414"
         transform="rotate(45)" /><rect
         style="fill:#ff6600;fill-opacity:1;stroke:none;stroke-width:3.175;stroke-linecap:round;stroke-linejoin:round;stroke-dasharray:none;stroke-opacity:1;paint-order:markers stroke fill"
         id="rect9"
         width="17.371483"
         height="137.45409"
         x="-96.738167"
         y="-129.96057"
         ry="8.6857414"
         transform="rotate(-45)" /></g><path
       id="rect5"
       style="display:none;fill:#ff6600;fill-opacity:1;stroke:none;stroke-width:3.175;stroke-linecap:round;stroke-linejoin:round;stroke-dasharray:none;stroke-opacity:1;paint-order:markers stroke fill"
       d="M 29.60057,-6.1472513 C 28.030623,-4.5773051 27.062083,-2.405948 27.062083,0 c 0,4.8118959 3.873842,8.6857375 8.685738,8.6857375 H 87.10366 V 60.041577 c 0,4.811896 3.873842,8.685737 8.685737,8.685737 4.811893,0 8.685733,-3.873841 8.685733,-8.685737 V 8.6857375 h 51.35584 c 4.8119,0 8.68574,-3.8738416 8.68574,-8.6857375 0,-4.8118959 -3.87384,-8.6857375 -8.68574,-8.6857375 H 104.47513 V -60.041577 c 0,-4.811896 -3.87384,-8.685737 -8.685733,-8.685737 -4.811895,0 -8.685737,3.873841 -8.685737,8.685737 V -8.6857375 H 35.747821 c -2.405948,0 -4.577305,0.9685401 -6.147251,2.5384862 z"
       transform="rotate(45)"
       inkscape:label="remove" /><path
       id="rect3"
       style="display:none;fill:#87cdde;fill-opacity:1;stroke:none;stroke-width:3.175;stroke-linecap:round;stroke-linejoin:round;stroke-dasharray:none;stroke-opacity:1;paint-order:markers stroke fill"
       d="m 11.418493,53.937488 c -3.4024598,3.402461 -3.403029,8.880965 -5.7e-4,12.283424 L 49.969811,104.7728 c 3.40246,3.40246 8.880964,3.40189 12.283425,-5.7e-4 L 124.04817,42.977291 c 3.40246,-3.402462 3.40303,-8.880965 5.7e-4,-12.283426 -3.40246,-3.402459 -8.88096,-3.40189 -12.28342,5.71e-4 L 56.111809,86.347948 23.701347,53.937488 c -3.402459,-3.402459 -8.880395,-3.402459 -12.282854,0 z"
       inkscape:label="recheck" /><path
       id="path10"
       style="display:none;fill:#aade87;fill-opacity:1;stroke:none;stroke-width:3.175;stroke-linecap:round;stroke-linejoin:round;stroke-dasharray:none;stroke-opacity:1;paint-order:markers stroke fill"
       d="m 11.418493,53.937488 c -3.4024598,3.402461 -3.403029,8.880965 -5.7e-4,12.283424 L 49.969811,104.7728 c 3.40246,3.40246 8.880964,3.40189 12.283425,-5.7e-4 L 124.04817,42.977291 c 3.40246,-3.402462 3.40303,-8.880965 5.7e-4,-12.283426 -3.40246,-3.402459 -8.88096,-3.40189 -12.28342,5.71e-4 L 56.111809,86.347948 23.701347,53.937488 c -3.402459,-3.402459 -8.880395,-3.402459 -12.282854,0 z"
       inkscape:label="check" /><path
       id="path11"
       style="display:inline;fill:#de8787;fill-opacity:1;stroke:none;stroke-width:3.175;stroke-linecap:round;stroke-linejoin:round;stroke-dasharray:none;stroke-opacity:1;paint-order:markers stroke fill"
       d="M 29.60057,-6.1472513 C 28.030623,-4.5773051 27.062083,-2.405948 27.062083,0 c 0,4.8118959 3.873842,8.6857375 8.685738,8.6857375 H 87.10366 V 60.041577 c 0,4.811896 3.873842,8.685737 8.685737,8.685737 4.811893,0 8.685733,-3.873841 8.685733,-8.685737 V 8.6857375 h 51.35584 c 4.8119,0 8.68574,-3.8738416 8.68574,-8.6857375 0,-4.8118959 -3.87384,-8.6857375 -8.68574,-8.6857375 H 104.47513 V -60.041577 c 0,-4.811896 -3.87384,-8.685737 -8.685733,-8.685737 -4.811895,0 -8.685737,3.873841 -8.685737,8.685737 V -8.6857375 H 35.747821 c -2.405948,0 -4.577305,0.9685401 -6.147251,2.5384862 z"
       transform="rotate(45)"
       inkscape:label="purge" /><path
       id="path2"
       style="fill:#dcde87;stroke:none;stroke-width:3.175;stroke-linecap:round;stroke-linejoin:round;stroke-miterlimit:12;stroke-dasharray:none;stroke-opacity:1;paint-order:markers stroke fill;fill-opacity:1"
       d="m 79.542405,33.360667 c 0,10.964811 -5.287101,46.656153 -11.809078,46.656152 -6.521977,10e-7 -11.809078,-35.381253 -11.809078,-46.656152 0,-11.274899 6.241205,-16.776778 11.809078,-16.776778 5.567873,0 11.809078,5.811967 11.809078,16.776778 z"
       sodipodi:nodetypes="zszzz" /><path
       id="path3"
       style="fill:#dcde87;stroke:none;stroke-width:3.175;stroke-linecap:round;stroke-linejoin:round;stroke-miterlimit:12;stroke-dasharray:none;stroke-opacity:1;paint-order:markers stroke fill;fill-opacity:1"
       d="M 79.542405,106.96229 A 11.809075,11.920481 0 0 1 67.733327,118.88277 11.809075,11.920481 0 0 1 55.924249,106.96229 11.809075,11.920481 0 0 1 67.733327,95.041811 11.809075,11.920481 0 0 1 79.542405,106.96229 Z" /></g></svg>
