<?xml version="1.0" encoding="UTF-8" standalone="no"?>
<!-- Created with Inkscape (http://www.inkscape.org/) -->

<svg
   width="512"
   height="512"
   viewBox="0 0 135.46666 135.46667"
   version="1.1"
   id="svg5"
   inkscape:version="1.3.2 (091e20ef0f, 2023-11-25, custom)"
   sodipodi:docname="pidgin-tray-available.svg"
   xmlns:inkscape="http://www.inkscape.org/namespaces/inkscape"
   xmlns:sodipodi="http://sodipodi.sourceforge.net/DTD/sodipodi-0.dtd"
   xmlns:xlink="http://www.w3.org/1999/xlink"
   xmlns="http://www.w3.org/2000/svg"
   xmlns:svg="http://www.w3.org/2000/svg"
   xmlns:rdf="http://www.w3.org/1999/02/22-rdf-syntax-ns#"
   xmlns:cc="http://creativecommons.org/ns#"
   xmlns:dc="http://purl.org/dc/elements/1.1/">&gt;
  <sodipodi:namedview
   id="namedview7"
   pagecolor="#505050"
   bordercolor="#ffffff"
   borderopacity="1"
   inkscape:showpageshadow="0"
   inkscape:pageopacity="0"
   inkscape:pagecheckerboard="1"
   inkscape:deskcolor="#505050"
   inkscape:document-units="mm"
   showgrid="false"
   inkscape:zoom="2.2428543"
   inkscape:cx="347.54821"
   inkscape:cy="176.56073"
   inkscape:window-width="3256"
   inkscape:window-height="1080"
   inkscape:window-x="1864"
   inkscape:window-y="0"
   inkscape:window-maximized="0"
   inkscape:current-layer="layer2" />
<defs
   id="defs2">
  <linearGradient
     inkscape:collect="always"
     id="linearGradient40105">
    <stop
       style="stop-color:#000000;stop-opacity:1;"
       offset="0"
       id="stop40101" />
    <stop
       style="stop-color:#ffffff;stop-opacity:1;"
       offset="1"
       id="stop40103" />
  </linearGradient>
  <linearGradient
     inkscape:collect="always"
     id="linearGradient10111">
    <stop
       style="stop-color:#442178;stop-opacity:0;"
       offset="0"
       id="stop10107" />
    <stop
       style="stop-color:#000000;stop-opacity:1;"
       offset="0.48692855"
       id="stop10127" />
    <stop
       style="stop-color:#442178;stop-opacity:0;"
       offset="1"
       id="stop10109" />
  </linearGradient>
  <linearGradient
     inkscape:collect="always"
     id="linearGradient9303">
    <stop
       style="stop-color:#dd55ff;stop-opacity:1;"
       offset="0"
       id="stop9299" />
    <stop
       style="stop-color:#dd55ff;stop-opacity:0"
       offset="1"
       id="stop9301" />
  </linearGradient>
  <linearGradient
     inkscape:collect="always"
     id="linearGradient4045">
    <stop
       style="stop-color:#ffffff;stop-opacity:1;"
       offset="0"
       id="stop4041" />
    <stop
       style="stop-color:#ffffff;stop-opacity:0;"
       offset="1"
       id="stop4043" />
  </linearGradient>
  <linearGradient
     inkscape:collect="always"
     id="linearGradient3930">
    <stop
       style="stop-color:#ffffff;stop-opacity:1;"
       offset="0"
       id="stop3926" />
    <stop
       style="stop-color:#dd55ff;stop-opacity:0.49411765;"
       offset="1"
       id="stop3928" />
  </linearGradient>
  <clipPath
     clipPathUnits="userSpaceOnUse"
     id="clipPath14927">
    <path
       style="color:#000000;fill:#008000;stroke-width:0.416999;stroke-linecap:round;stroke-linejoin:round;paint-order:stroke fill markers"
       d="m -156.10193,-47.713641 c -10.9346,0 -19.73781,8.803206 -19.73781,19.737814 v 44.247428 c 0,10.934606 8.80321,19.737812 19.73781,19.737812 h 60.52654 c 7.424836,0.866794 11.631761,15.482615 13.249839,19.218466 5.431848,12.54117 16.962271,17.176731 16.962271,17.176731 -8.37332,-12.921811 -13.953173,-35.30478 2.59984,-36.395197 h 2.652549 c 10.93461,0 19.737821,-8.803206 19.737821,-19.737812 v -44.247428 c 0,-10.934608 -8.803211,-19.737814 -19.737821,-19.737814 z"
       id="path14929" />
  </clipPath>
  <clipPath
     clipPathUnits="userSpaceOnUse"
     id="clipPath14927-3">
    <path
       style="color:#000000;fill:#008000;stroke-width:0.416999;stroke-linecap:round;stroke-linejoin:round;paint-order:stroke fill markers"
       d="m -156.10193,-47.713641 c -10.9346,0 -19.73781,8.803206 -19.73781,19.737814 v 44.247428 c 0,10.934606 8.80321,19.737812 19.73781,19.737812 h 60.52654 c 7.424836,0.866794 11.631761,15.482615 13.249839,19.218466 5.431848,12.54117 16.962271,17.176731 16.962271,17.176731 -8.37332,-12.921811 -13.953173,-35.30478 2.59984,-36.395197 h 2.652549 c 10.93461,0 19.737821,-8.803206 19.737821,-19.737812 v -44.247428 c 0,-10.934608 -8.803211,-19.737814 -19.737821,-19.737814 z"
       id="path14929-5" />
  </clipPath>
  <clipPath
     clipPathUnits="userSpaceOnUse"
     id="clipPath29816">
    <path
       id="path29818"
       style="fill:#800077;fill-opacity:1;stroke:none;stroke-width:0.416999;stroke-linecap:round;stroke-linejoin:round;paint-order:stroke fill markers"
       d="m -61.88401,-53.688893 c 10.9346,0 19.737811,8.803206 19.737811,19.737811 v 44.24743 c 0,10.934607 -8.803211,19.737813 -19.737811,19.737813 h -60.52654 c -7.42484,0.866791 -11.63176,15.482613 -13.24984,19.218466 -5.43185,12.541168 -16.96227,17.176729 -16.96227,17.176729 8.37332,-12.921811 13.95317,-35.304781 -2.59984,-36.395195 h -2.65255 c -10.93461,0 -19.73782,-8.803206 -19.73782,-19.737813 v -44.24743 c 0,-10.934605 8.80321,-19.737811 19.73782,-19.737811 z" />
  </clipPath>
  <linearGradient
     inkscape:collect="always"
     xlink:href="#linearGradient3930"
     id="linearGradient3932"
     x1="68.357925"
     y1="4.204041"
     x2="68.357925"
     y2="42.119263"
     gradientUnits="userSpaceOnUse"
     gradientTransform="matrix(1.0272745,0,0,1.0647245,-1.3991339,-2.5505275)" />
  <linearGradient
     inkscape:collect="always"
     xlink:href="#linearGradient4045"
     id="linearGradient4047"
     x1="67.990257"
     y1="3.696125"
     x2="67.990257"
     y2="42.664246"
     gradientUnits="userSpaceOnUse"
     gradientTransform="matrix(1.0272745,0,0,1.0647245,-1.399136,-2.5505274)" />
  <linearGradient
     inkscape:collect="always"
     xlink:href="#linearGradient10111"
     id="linearGradient10113"
     x1="-59.314281"
     y1="81.076225"
     x2="-59.314281"
     y2="-1.6440912"
     gradientUnits="userSpaceOnUse"
     gradientTransform="translate(126.12414,1.647876)" />
  <linearGradient
     inkscape:collect="always"
     xlink:href="#linearGradient9303"
     id="linearGradient14265"
     gradientUnits="userSpaceOnUse"
     gradientTransform="translate(-66.0789,-43.042364)"
     x1="-100.43849"
     y1="96.908409"
     x2="-100.43849"
     y2="31.306911" />
  <clipPath
     clipPathUnits="userSpaceOnUse"
     id="clipPath15721">
    <path
       id="path15723"
       style="display:inline;fill:#442178;stroke:none;stroke-width:0.600001;stroke-linecap:round;stroke-linejoin:round;paint-order:fill markers stroke"
       d="m -167.16454,-57.869984 a 67.733331,41.861505 0 0 0 -67.73333,41.861527 67.733331,41.861505 0 0 0 59.83511,41.555603 c 0.10795,3.179333 -0.31281,6.447369 -1.32602,9.677963 -2.82118,8.974436 -9.76897,15.983736 -18.46864,18.631937 l 0.0248,0.009 c 12.60842,-0.122679 26.70868,-5.061649 33.60932,-18.621608 1.55104,-3.047836 2.86175,-6.408666 3.80545,-9.837125 a 67.733331,41.861505 0 0 0 57.98665,-41.415766 67.733331,41.861505 0 0 0 -67.73334,-41.861527 z" />
  </clipPath>
  <filter
     inkscape:collect="always"
     style="color-interpolation-filters:sRGB"
     id="filter15725"
     x="-0.085925013"
     y="-0.17194049"
     width="1.17185"
     height="1.343881">
    <feGaussianBlur
       inkscape:collect="always"
       stdDeviation="4.5670246"
       id="feGaussianBlur15727" />
  </filter>
  <filter
     inkscape:collect="always"
     style="color-interpolation-filters:sRGB"
     id="filter30671-2"
     x="-0.0048791352"
     y="-0.018030243"
     width="1.0097583"
     height="1.0360605">
    <feGaussianBlur
       inkscape:collect="always"
       stdDeviation="0.22746455"
       id="feGaussianBlur30673-8" />
  </filter>
  <filter
     inkscape:collect="always"
     style="color-interpolation-filters:sRGB"
     id="filter30675-0"
     x="-0.0048353889"
     y="-0.018653907"
     width="1.0096708"
     height="1.0373078">
    <feGaussianBlur
       inkscape:collect="always"
       stdDeviation="0.22542405"
       id="feGaussianBlur30677-9" />
  </filter>
  <clipPath
     clipPathUnits="userSpaceOnUse"
     id="clipPath33743">
    <text
       xml:space="preserve"
       style="font-style:normal;font-weight:normal;font-size:36.0114px;line-height:1.25;font-family:sans-serif;display:inline;mix-blend-mode:normal;fill:#ffffff;fill-opacity:1;stroke:none;stroke-width:0.900287"
       x="-134.09187"
       y="6.5039406"
       id="text33747"
       inkscape:label="Pidgin"><tspan
         sodipodi:role="line"
         id="tspan33745"
         style="font-style:normal;font-variant:normal;font-weight:normal;font-stretch:normal;font-size:36.0114px;font-family:'Berlin Sans FB';-inkscape-font-specification:'Berlin Sans FB, Normal';font-variant-ligatures:normal;font-variant-caps:normal;font-variant-numeric:normal;font-variant-east-asian:normal;fill:#ffffff;stroke-width:0.900287"
         x="-134.09187"
         y="6.5039406">Pidgin</tspan></text>
  </clipPath>
  <clipPath
     clipPathUnits="userSpaceOnUse"
     id="clipPath35201">
    <text
       xml:space="preserve"
       style="font-style:normal;font-weight:normal;font-size:36.0114px;line-height:1.25;font-family:sans-serif;display:inline;mix-blend-mode:normal;fill:#ff6600;fill-opacity:1;stroke:none;stroke-width:0.900287"
       x="-121.69192"
       y="41.858791"
       id="text35205"
       inkscape:label="Pidgin"><tspan
         sodipodi:role="line"
         id="tspan35203"
         style="font-style:normal;font-variant:normal;font-weight:normal;font-stretch:normal;font-size:36.0114px;font-family:'Berlin Sans FB';-inkscape-font-specification:'Berlin Sans FB, Normal';font-variant-ligatures:normal;font-variant-caps:normal;font-variant-numeric:normal;font-variant-east-asian:normal;fill:#ff6600;stroke-width:0.900287"
         x="-121.69192"
         y="41.858791">Pidgin</tspan></text>
  </clipPath>
  <linearGradient
     inkscape:collect="always"
     xlink:href="#linearGradient40105"
     id="linearGradient40107"
     x1="67.73333"
     y1="25.780256"
     x2="67.73333"
     y2="57.311333"
     gradientUnits="userSpaceOnUse" />
  <clipPath
     clipPathUnits="userSpaceOnUse"
     id="clipPath41462">
    <text
       xml:space="preserve"
       style="font-style:normal;font-weight:normal;font-size:36.0114px;line-height:1.25;font-family:sans-serif;display:inline;mix-blend-mode:difference;fill:#ffffff;fill-opacity:1;stroke:none;stroke-width:0.499999;stroke-linecap:square;stroke-dasharray:none;paint-order:stroke fill markers"
       x="134.16055"
       y="89.297821"
       id="text41466"
       inkscape:label="Pidgin"><tspan
         sodipodi:role="line"
         id="tspan41464"
         style="font-style:normal;font-variant:normal;font-weight:normal;font-stretch:normal;font-size:36.0114px;font-family:'Berlin Sans FB';-inkscape-font-specification:'Berlin Sans FB, Normal';font-variant-ligatures:normal;font-variant-caps:normal;font-variant-numeric:normal;font-variant-east-asian:normal;fill:#ffffff;stroke:none;stroke-width:0.499999;stroke-linecap:square;stroke-dasharray:none;paint-order:stroke fill markers"
         x="134.16055"
         y="89.297821">Pidgin</tspan></text>
  </clipPath>
  <filter
     inkscape:collect="always"
     style="color-interpolation-filters:sRGB"
     id="filter41468"
     x="-0.03166344"
     y="-0.11556473"
     width="1.0633269"
     height="1.2311295">
    <feGaussianBlur
       inkscape:collect="always"
       stdDeviation="1.4749529"
       id="feGaussianBlur41470" />
  </filter>
  <filter
     inkscape:collect="always"
     style="color-interpolation-filters:sRGB"
     id="filter46401"
     x="-0.023851165"
     y="-0.10511211"
     width="1.0477023"
     height="1.2102242">
    <feGaussianBlur
       inkscape:collect="always"
       stdDeviation="1.0471967"
       id="feGaussianBlur46403" />
  </filter>
</defs>
<g
   inkscape:groupmode="layer"
   id="layer2"
   inkscape:label="Layer 2">
  <path
     id="path1550"
     style="display:inline;fill:#442178;stroke:none;stroke-width:0.600001;stroke-linecap:round;stroke-linejoin:round;paint-order:fill markers stroke"
     d="M 67.733333,0 A 67.73333,41.861504 0 0 0 0,41.861528 67.73333,41.861504 0 0 0 59.835107,83.417131 c 0.107952,3.179332 -0.312811,6.447369 -1.326017,9.677962 -2.821185,8.974437 -9.768973,15.983737 -18.46864,18.631937 l 0.02481,0.009 c 12.608418,-0.12268 26.70868,-5.06165 33.609318,-18.621607 1.551039,-3.047838 2.861753,-6.408666 3.805452,-9.837126 A 67.73333,41.861504 0 0 0 135.46667,41.861528 67.73333,41.861504 0 0 0 67.733333,0 Z" />
  <path
     id="path1550-9-0"
     style="display:inline;mix-blend-mode:normal;fill:url(#linearGradient14265);fill-opacity:1;stroke:none;stroke-width:0.600001;stroke-linecap:round;stroke-linejoin:round;paint-order:fill markers stroke;filter:url(#filter15725)"
     d="m -230.29894,-0.826061 c 8.8674,14.049901 29.69356,24.520781 55.2223,26.373207 0.10795,3.179332 -0.31281,6.447369 -1.32602,9.677962 -2.82119,8.974437 -9.76897,15.983737 -18.46864,18.631937 l 0.0248,0.009 c 12.60842,-0.12268 26.70868,-5.06165 33.60932,-18.621607 1.55104,-3.047838 2.86175,-6.408666 3.80545,-9.837126 26.10505,-2.346038 46.92367,-13.698706 54.69587,-28.515576 -67.72602,30.892172 -90.71094,-28.277608 -127.56308,2.282203 z"
     sodipodi:nodetypes="cccccsccc"
     clip-path="url(#clipPath15721)"
     transform="translate(234.89788,57.869984)" />
  <path
     id="path1550-5"
     style="display:none;opacity:0.4;mix-blend-mode:hard-light;fill:url(#linearGradient10113);fill-opacity:1;stroke:none;stroke-width:0.600001;stroke-linecap:round;stroke-linejoin:round;paint-order:fill markers stroke"
     d="M 67.733333,-1.0605e-4 A 67.73333,41.861504 0 0 0 0,41.861422 67.73333,41.861504 0 0 0 59.835107,83.417025 c 0.107952,3.179332 -0.312811,6.447369 -1.326017,9.677962 -2.821185,8.974443 -9.768973,15.983743 -18.46864,18.631943 l 0.02481,0.009 c 12.608418,-0.12268 26.70868,-5.06165 33.609318,-18.621613 1.551039,-3.047838 2.861753,-6.408666 3.805452,-9.837126 A 67.73333,41.861504 0 0 0 135.46667,41.861422 67.73333,41.861504 0 0 0 67.733333,-1.0605e-4 Z"
     inkscape:label="grad-dark" />
  <text
     xml:space="preserve"
     style="font-style:normal;font-weight:normal;font-size:36.0114px;line-height:1.25;font-family:sans-serif;display:none;fill:#000000;fill-opacity:1;stroke:none;stroke-width:0.900287"
     x="14.120662"
     y="51.709167"
     id="text23846"><tspan
       sodipodi:role="line"
       id="tspan23844"
       style="font-style:normal;font-variant:normal;font-weight:normal;font-stretch:normal;font-size:36.0114px;font-family:Aharoni;-inkscape-font-specification:'Aharoni, Normal';font-variant-ligatures:normal;font-variant-caps:normal;font-variant-numeric:normal;font-variant-east-asian:normal;fill:#ffffff;stroke-width:0.900287"
       x="14.120662"
       y="51.709167">Pidgin</tspan></text>
  <text
     xml:space="preserve"
     style="font-style:normal;font-weight:normal;font-size:36.0114px;line-height:1.25;font-family:sans-serif;display:none;mix-blend-mode:overlay;fill:#ffffff;fill-opacity:1;stroke:none;stroke-width:0.5;stroke-linecap:square;stroke-dasharray:none;paint-order:stroke fill markers"
     x="10.438131"
     y="51.709167"
     id="text23962"
     inkscape:label="Pidgin-white-Berlin Sans FB"><tspan
       sodipodi:role="line"
       id="tspan23960"
       style="font-style:normal;font-variant:normal;font-weight:normal;font-stretch:normal;font-size:36.0114px;font-family:'Berlin Sans FB';-inkscape-font-specification:'Berlin Sans FB, Normal';font-variant-ligatures:normal;font-variant-caps:normal;font-variant-numeric:normal;font-variant-east-asian:normal;fill:#ffffff;stroke:none;stroke-width:0.5;stroke-linecap:square;stroke-dasharray:none;paint-order:stroke fill markers"
       x="10.438131"
       y="51.709167">Pidgin</tspan></text>
  <g
     aria-label="Pidgin"
     id="text44369"
     style="font-size:36.0114px;line-height:1.25;display:inline;fill:#41a200;stroke-width:0.5;stroke-linecap:square;paint-order:stroke fill markers"
     inkscape:label="Pidgin-green">
    <path
       d="m 34.176114,36.76303 q 0,4.71243 -2.444133,7.385151 -2.532052,2.778223 -7.174146,2.778223 -0.351674,0 -1.055022,-0.05275 -0.685763,-0.07034 -1.037437,-0.07034 -0.931936,0 -0.931936,0.545094 0,0.685764 0.158253,2.057292 0.158254,1.353944 0.158254,2.022124 0,0.404425 -0.351674,0.404425 -0.123086,0 -0.439593,-0.05275 -1.529781,-0.211004 -4.571759,-0.211004 -0.66818,0 -2.022125,0.07034 -1.33636,0.07033 -2.00454,0.07033 -0.580262,0 -0.580262,-0.509927 0,-1.969373 0.211004,-5.90812 0.211005,-3.95633 0.211005,-5.925703 0,-5.028936 -0.492344,-11.675571 l -0.01758,-0.246172 q -0.03517,-0.404424 0.422008,-0.404424 1.090189,0 3.270567,0.07033 2.180377,0.07034 3.270566,0.07034 0.931936,0 2.795807,-0.07034 1.863871,-0.07033 2.795807,-0.07033 4.360755,0 7.086227,2.690304 2.743056,2.672721 2.743056,7.033476 z m -9.547944,0.246172 q 0,-2.584802 -2.514468,-2.584802 -0.720931,0 -0.720931,2.584802 0,0.404425 0.03517,1.195691 0.03517,0.791266 0.03517,1.195691 0,0.281339 0.527511,0.281339 2.637554,0 2.637554,-2.672721 z"
       style="font-family:'Berlin Sans FB';-inkscape-font-specification:'Berlin Sans FB, Normal';fill:#b6ff00;fill-opacity:1"
       id="path48778" />
    <path
       d="m 45.412092,30.362567 q 0,3.692575 -4.501425,3.692575 -1.916622,0 -3.129897,-0.879184 -1.371527,-0.984687 -1.371527,-2.813391 0,-1.740785 1.424278,-2.81339 1.301194,-0.984687 3.077146,-0.984687 1.775953,0 3.077146,0.984687 1.424279,1.072605 1.424279,2.81339 z m 0.175837,4.466258 q 0,0.123085 -0.03517,0.457175 -0.61543,6.611468 -0.61543,8.352254 0,1.178107 0.05275,3.551905 0.07033,2.356215 0.07033,3.551905 0,0.580262 -0.03517,0.668181 -0.08792,0.298922 -0.545094,0.298922 -0.61543,0 -1.846288,-0.07033 -1.213275,-0.07034 -1.828704,-0.07034 -0.615429,0 -1.846287,0.07034 -1.213275,0.07033 -1.828704,0.07033 -0.457176,0 -0.545095,-0.298922 -0.03517,-0.08792 -0.03517,-0.668181 0,-1.19569 0.05275,-3.551905 0.05275,-2.373798 0.05275,-3.551905 0,-2.672721 -0.597845,-8.352254 -0.05275,-0.33409 -0.05275,-0.474759 0,-0.457176 0.545094,-0.457176 0.703348,0 2.110043,0.228588 1.424279,0.228588 2.14521,0.228588 0.720931,0 2.127627,-0.228588 1.424279,-0.228588 2.127626,-0.228588 0.527511,0 0.527511,0.47476 z"
       style="font-family:'Berlin Sans FB';-inkscape-font-specification:'Berlin Sans FB, Normal';fill:#b6ff00;fill-opacity:1"
       id="path48780" />
    <path
       d="m 68.218139,26.757911 q 0,-0.03517 -0.175837,4.220085 -0.298923,6.945558 -0.298923,9.776532 0,8.457755 0.246172,10.198541 0.03517,0.246171 0.03517,0.351674 0,0.351673 -0.281339,0.439592 0.105503,-0.03517 -4.061832,-0.03517 -0.562678,0 -1.670451,0.05275 -1.107772,0.07033 -1.67045,0.07033 -0.298923,0 -0.369258,-0.492343 -0.05275,-0.509927 -0.19342,-0.509927 0.140669,0 -1.547365,0.66818 -1.670451,0.650597 -2.76064,0.650597 -3.885995,0 -6.048789,-2.532052 -2.057292,-2.391382 -2.057292,-6.330128 0,-4.026665 1.986957,-6.400464 2.127627,-2.532051 6.04879,-2.532051 1.406695,0 3.604656,1.14294 0.175837,0 0.175837,-0.492344 v -4.044248 q 0,-0.562679 -0.123086,-1.670451 -0.105502,-1.125356 -0.105502,-1.670451 0,-0.580261 0.33409,-0.580261 1.072605,0 4.23767,-0.246172 0.545094,-0.05275 2.197961,-0.316507 1.424279,-0.246171 2.110043,-0.246171 0.386841,0 0.386841,0.527511 z M 59.180122,43.14591 q 0,-0.703347 -0.492343,-1.178107 -0.47476,-0.492343 -1.178108,-0.492343 -0.720931,0 -1.19569,0.474759 -0.457176,0.47476 -0.457176,1.195691 0,0.720931 0.457176,1.195691 0.474759,0.457176 1.19569,0.457176 0.720932,0 1.195691,-0.457176 0.47476,-0.47476 0.47476,-1.195691 z"
       style="font-family:'Berlin Sans FB';-inkscape-font-specification:'Berlin Sans FB, Normal';fill:#b6ff00;fill-opacity:1"
       id="path48782" />
    <path
       d="m 90.092248,34.899159 q 0,1.318777 -0.08792,3.956331 -0.07033,2.637553 -0.07033,3.95633 0,0.580262 0.01758,1.758369 0.01758,1.160524 0.01758,1.740785 0,4.782764 -1.195691,6.629052 -2.549635,3.921163 -9.653446,3.921163 -1.723202,0 -4.290421,-0.422009 -3.48157,-0.562678 -3.48157,-1.441862 0.474759,-1.986957 1.037437,-4.448674 0.158254,-0.66818 0.457176,-0.66818 0.05275,0 0.158254,0.03517 2.95406,0.791266 4.712429,0.791266 0.949519,0 1.899038,-0.246172 1.353944,-0.316506 1.353944,-0.949519 v -0.756099 q -1.406695,0.650597 -3.534321,0.650597 -3.393653,0 -5.538863,-2.14521 -2.127626,-2.14521 -2.127626,-5.521279 0,-3.376069 2.022124,-5.626781 2.092459,-2.338631 5.43336,-2.338631 1.811121,0 2.989228,1.00227 0.509927,0.545095 1.019854,1.072606 0.07034,-0.105503 0.07034,-0.334091 0,-0.228588 -0.07034,-0.685763 -0.07034,-0.457176 -0.07034,-0.685764 0,-0.334091 0.228588,-0.334091 0.386841,0 4.343172,0.316507 3.95633,0.298923 4.044248,0.33409 0.316507,0.105502 0.316507,0.439592 z m -8.510506,7.121395 q 0,-0.650597 -0.457176,-1.090189 -0.457176,-0.457176 -1.107773,-0.457176 -0.633013,0 -1.090189,0.457176 -0.457176,0.439592 -0.457176,1.090189 0,0.650597 0.457176,1.107772 0.457176,0.439593 1.090189,0.439593 0.633013,0 1.090189,-0.457176 0.47476,-0.457176 0.47476,-1.090189 z"
       style="font-family:'Berlin Sans FB';-inkscape-font-specification:'Berlin Sans FB, Normal';fill:#b6ff00;fill-opacity:1"
       id="path48784" />
    <path
       d="m 101.73265,30.362567 q 0,3.692575 -4.501424,3.692575 -1.916622,0 -3.129897,-0.879184 -1.371528,-0.984687 -1.371528,-2.813391 0,-1.740785 1.424279,-2.81339 1.301193,-0.984687 3.077146,-0.984687 1.775953,0 3.077144,0.984687 1.42428,1.072605 1.42428,2.81339 z m 0.17584,4.466258 q 0,0.123085 -0.0352,0.457175 -0.61543,6.611468 -0.61543,8.352254 0,1.178107 0.0528,3.551905 0.0703,2.356215 0.0703,3.551905 0,0.580262 -0.0352,0.668181 -0.0879,0.298922 -0.54509,0.298922 -0.61543,0 -1.846292,-0.07033 -1.213275,-0.07034 -1.828704,-0.07034 -0.615429,0 -1.846288,0.07034 -1.213274,0.07033 -1.828704,0.07033 -0.457176,0 -0.545094,-0.298922 -0.03517,-0.08792 -0.03517,-0.668181 0,-1.19569 0.05275,-3.551905 0.05275,-2.373798 0.05275,-3.551905 0,-2.672721 -0.597846,-8.352254 -0.05275,-0.33409 -0.05275,-0.474759 0,-0.457176 0.545095,-0.457176 0.703347,0 2.110042,0.228588 1.424279,0.228588 2.145211,0.228588 0.720931,0 2.127626,-0.228588 1.42428,-0.228588 2.12763,-0.228588 0.52751,0 0.52751,0.47476 z"
       style="font-family:'Berlin Sans FB';-inkscape-font-specification:'Berlin Sans FB, Normal';fill:#b6ff00;fill-opacity:1"
       id="path48786" />
    <path
       d="m 123.6771,51.058571 q 0,0.720931 -0.65059,0.720931 -0.59785,0 -1.77596,-0.05275 -1.1781,-0.05275 -1.75837,-0.05275 -0.61543,0 -1.84628,0.01758 -1.21328,0.01758 -1.82871,0.01758 -0.68576,0 -0.68576,-0.896768 0,-0.80885 0.0352,-2.391382 0.0352,-1.600116 0.0352,-2.408965 0,-0.597846 -0.0352,-1.793537 -0.0352,-1.195691 -0.0352,-1.793536 0,-1.019854 -1.00227,-1.019854 -1.01986,0 -1.01986,0.984686 v 8.492923 q 0,0.896768 -0.75609,0.896768 -0.56268,0 -1.70562,-0.05275 -1.14294,-0.05275 -1.70562,-0.05275 -0.59785,0 -1.81112,0.01758 -1.19569,0.01758 -1.79354,0.01758 -0.7561,0 -0.7561,-0.756098 v -8.211584 q 0,-3.815661 -0.82643,-6.840055 -0.0528,-0.193421 -0.0528,-0.33409 0,-0.334091 0.29892,-0.457176 1.79354,-0.228588 4.25526,-0.580262 3.63982,-0.703348 4.18491,-0.703348 0.35168,0 0.4396,1.160524 0.0879,1.160523 0.28134,1.160523 -0.14067,0 1.81112,-1.019854 1.96937,-1.019854 3.25298,-1.019854 2.12762,0 3.67499,1.002271 1.77595,1.178107 1.77595,3.200231 z"
       style="font-family:'Berlin Sans FB';-inkscape-font-specification:'Berlin Sans FB, Normal';fill:#b6ff00;fill-opacity:1"
       id="path48788" />
  </g>
  <path
     id="text23962-6-0-2-4"
     style="font-style:normal;font-weight:normal;font-size:36.0114px;line-height:1.25;font-family:sans-serif;display:none;mix-blend-mode:overlay;fill:#ffffff;fill-opacity:1;stroke:none;stroke-width:0.900287;filter:url(#filter30671-2)"
     d="m -63.927263,16.733076 c -0.009,0.198628 -0.05333,1.266884 -0.16071,3.865397 -0.19928,4.630367 -0.29921,7.88935 -0.29921,9.776664 0,0.144386 0.0015,0.248708 0.0015,0.390158 0.0041,-1.903909 0.10252,-5.103485 0.29766,-9.637655 0.11722,-2.836833 0.1757,-4.243342 0.1757,-4.219898 0,-0.06489 -0.0062,-0.121747 -0.01499,-0.174666 z m -56.387767,0.660425 c -0.021,0.05564 -0.0301,0.121492 -0.0233,0.199988 l 0.0176,0.24598 c 0.31693,4.278666 0.4795,8.049704 0.49041,11.322823 2.2e-4,-0.05425 0.002,-0.124062 0.002,-0.176217 0,-3.330979 -0.16278,-7.197008 -0.48679,-11.592574 z m 47.150087,0.209806 c -0.0059,0.05289 -0.01395,0.102652 -0.01395,0.165882 0,0.363395 0.03509,0.920462 0.10542,1.670699 0.08206,0.738514 0.12351,1.295064 0.12351,1.670182 v -0.529167 c 0,-0.375118 -0.04145,-0.931668 -0.12351,-1.670182 -0.05183,-0.552849 -0.07783,-0.964627 -0.09147,-1.307414 z m -22.54281,2.653068 c -0.0054,0.08483 -0.01343,0.168441 -0.01343,0.255799 0,1.219134 0.45714,2.156807 1.37149,2.813265 0.80885,0.586122 1.8523,0.879532 3.13004,0.879532 3.00095,0 4.50154,-1.231083 4.50154,-3.692797 0,-0.07747 -0.0077,-0.151371 -0.01189,-0.22686 -0.12148,2.258005 -1.61555,3.390491 -4.48965,3.390491 -1.27774,0 -2.32119,-0.293411 -3.13004,-0.879533 -0.84396,-0.605923 -1.29309,-1.454592 -1.35806,-2.539897 z m 56.3206,0 c -0.0054,0.08483 -0.01344,0.168441 -0.01344,0.255799 0,1.219134 0.45714,2.156807 1.37149,2.813265 0.80885,0.586122 1.8523,0.879532 3.13005,0.879532 3.000943,0 4.501533,-1.231083 4.501533,-3.692797 0,-0.07747 -0.008,-0.151371 -0.0119,-0.22686 -0.12148,2.258005 -1.61554,3.390491 -4.489643,3.390491 -1.27775,0 -2.3212,-0.293411 -3.13005,-0.879533 -0.84396,-0.605923 -1.29308,-1.454592 -1.35805,-2.539897 z m -70.629277,3.7884 c -0.48062,0 -0.72089,0.861655 -0.72089,2.584855 0,0.04521 0.005,0.148047 0.006,0.200504 0.0304,-1.497352 0.26719,-2.256193 0.71521,-2.256193 1.58695,0 2.42119,0.773819 2.50579,2.318205 0.005,-0.08566 0.008,-0.17229 0.008,-0.262516 0,-1.7232 -0.83775,-2.584855 -2.51406,-2.584855 z m 59.072357,0.07131 c -0.01589,0.0487 -0.02636,0.104812 -0.02636,0.176733 0,0.152392 0.0234,0.380963 0.07028,0.685747 0.0216,0.140382 0.03693,0.2604 0.04858,0.368453 0.01398,-0.05874 0.0217,-0.128673 0.0217,-0.211874 0,-0.152392 -0.02339,-0.380962 -0.07028,-0.685746 -0.01953,-0.126993 -0.03252,-0.232777 -0.04392,-0.333313 z m -45.14815,0.648022 c -0.02198,0.05652 -0.03307,0.121928 -0.03307,0.196888 0,0.09378 0.01754,0.25218 0.05271,0.474906 0.38387,3.646823 0.58065,6.353808 0.59479,8.141105 4.1e-4,-0.0939 0.0031,-0.233685 0.0031,-0.318327 0,-1.781812 -0.19933,-4.565594 -0.59789,-8.351945 -0.0088,-0.05557 -0.01305,-0.09508 -0.01964,-0.142627 z m 56.32059,0 c -0.02198,0.05652 -0.03359,0.121928 -0.03359,0.196888 0,0.09378 0.01806,0.25218 0.05323,0.474906 0.38373,3.645459 0.58052,6.351714 0.5948,8.139038 4e-4,-0.09323 0.0026,-0.232168 0.0026,-0.31626 0,-1.781812 -0.19882,-4.565594 -0.59738,-8.351945 -0.0088,-0.05557 -0.01305,-0.09508 -0.01964,-0.142627 z m -46.79766,0.03204 c -0.0043,0.04563 -0.0026,0.05674 -0.0083,0.110587 -0.41029,4.407641 -0.61547,7.191423 -0.61547,8.351945 0,0.0955 0.0026,0.251871 0.0031,0.359152 0.01635,-1.241673 0.21914,-3.957566 0.61237,-8.18193 0.02344,-0.222726 0.03514,-0.375279 0.03514,-0.457336 0,-0.06879 -0.01026,-0.12858 -0.02688,-0.182418 z m 56.320603,0 c -0.004,0.04563 -0.003,0.05674 -0.008,0.110587 -0.41029,4.407641 -0.61547,7.191423 -0.61547,8.351945 0,0.09673 0.003,0.254978 0.003,0.363802 0.0159,-1.239602 0.21868,-3.957204 0.61237,-8.18658 0.0234,-0.222726 0.0351,-0.375279 0.0351,-0.457336 0,-0.06879 -0.0103,-0.12858 -0.0269,-0.182418 z m -11.795663,0.203605 c -0.0073,0.860543 -0.03158,1.973944 -0.08165,3.476274 -0.04689,1.758367 -0.07028,3.077164 -0.07028,3.956347 0,0.06014 0.0023,0.203603 0.0026,0.273369 0.0034,-0.873892 0.02444,-2.078607 0.0677,-3.70055 0.05861,-1.758367 0.08785,-3.077164 0.08785,-3.956347 0,-0.01787 -0.0049,-0.03221 -0.0062,-0.04909 z m 13.663763,0.498161 c -0.0285,0.06413 -0.0475,0.134849 -0.0475,0.219108 0,0.09378 0.0175,0.205399 0.0527,0.334346 0.55095,2.016262 0.8263,4.296122 0.8263,6.839893 v -0.529167 c 0,-2.543771 -0.27535,-4.823631 -0.8263,-6.839892 -0.002,-0.0087 -0.003,-0.01578 -0.005,-0.02429 z m -69.578183,1.173572 c -0.0489,3.003504 -0.86069,5.370614 -2.439647,7.097241 -1.68803,1.852147 -4.07951,2.778125 -7.17423,2.778125 -0.23445,0 -0.58582,-0.01754 -1.05472,-0.05271 -0.45718,-0.04689 -0.80321,-0.07028 -1.03766,-0.07028 -0.62129,0 -0.93173,0.18179 -0.93173,0.545186 0,0.123179 0.004,0.26583 0.0119,0.422197 0.0583,-0.291265 0.36361,-0.438216 0.91984,-0.438216 0.23445,0 0.58048,0.02339 1.03766,0.07028 0.4689,0.03517 0.82027,0.05271 1.05472,0.05271 3.09472,0 5.4862,-0.925978 7.17423,-2.778125 1.629417,-1.781812 2.444297,-4.243462 2.444297,-7.385078 0,-0.08143 -0.0032,-0.160781 -0.0047,-0.241329 z m 45.84526,3.422013 c -0.42201,0 -0.78559,0.152553 -1.09037,0.457336 -0.30478,0.293062 -0.45682,0.656642 -0.45682,1.090373 0,0.09146 0.0082,0.179374 0.0217,0.2651 0.05067,-0.318997 0.19453,-0.594966 0.43512,-0.826306 0.30478,-0.304784 0.66836,-0.457336 1.09037,-0.457336 0.43373,0 0.80316,0.152552 1.10794,0.457336 0.23905,0.22985 0.38253,0.503724 0.43409,0.820105 0.01412,-0.08391 0.02273,-0.169759 0.02273,-0.258899 0,-0.433731 -0.15203,-0.797311 -0.45682,-1.090373 -0.30478,-0.304783 -0.67421,-0.457336 -1.10794,-0.457336 z m 34.112133,0.932243 c -0.6799,0 -1.01957,0.327979 -1.01957,0.984436 v 0.529166 c 0,-0.656457 0.33967,-0.984436 1.01957,-0.984436 0.66818,0 1.00252,0.339674 1.00252,1.019576 0,0.398564 0.0117,0.996563 0.0351,1.793689 0.0205,0.696766 0.0279,1.175618 0.0305,1.567863 3.8e-4,-0.07628 0.005,-0.235429 0.005,-0.30334 0,-0.398564 -0.0117,-0.996563 -0.0351,-1.793689 -0.0234,-0.797127 -0.0351,-1.395126 -0.0351,-1.793689 0,-0.679902 -0.33434,-1.019576 -1.00252,-1.019576 z m -56.619283,0.07028 c -0.48062,0 -0.87929,0.1584 -1.19579,0.474906 -0.30479,0.316506 -0.45734,0.714656 -0.45734,1.195276 0,0.09141 0.0076,0.179111 0.0186,0.264583 0.04702,-0.363715 0.19203,-0.674501 0.43874,-0.930692 0.3165,-0.316506 0.71517,-0.474907 1.19579,-0.474907 0.4689,0 0.86172,0.164248 1.17822,0.492477 0.26546,0.25598 0.42156,0.562629 0.47232,0.91829 0.01192,-0.08708 0.02016,-0.176496 0.02016,-0.269751 0,-0.468898 -0.16425,-0.8612 -0.49248,-1.177706 -0.3165,-0.328228 -0.70932,-0.492476 -1.17822,-0.492476 z m 12.26075,0.519865 c -0.0023,0.09067 -0.0052,0.18093 -0.0052,0.272851 0,2.25071 0.70962,4.091488 2.12804,5.521627 1.43014,1.430139 3.27624,2.145089 5.53868,2.145089 1.41841,0 2.59635,-0.216876 3.53415,-0.650607 V 38.37568 c -0.9378,0.43373 -2.11574,0.650606 -3.53415,0.650606 -2.26244,0 -4.10854,-0.71495 -5.53868,-2.145089 -1.364,-1.37527 -2.07054,-3.131225 -2.12287,-5.265311 z m -22.40225,1.552876 c -0.0015,0.08909 -0.0041,0.177343 -0.0041,0.267684 0,2.625829 0.68571,4.735593 2.05723,6.329847 1.44186,1.688029 3.45807,2.532149 6.04873,2.532149 0.72679,0 1.64692,-0.21688 2.76056,-0.65061 1.05502,-0.417613 1.57452,-0.639492 1.55804,-0.665593 0.0878,0.01301 0.14917,0.181064 0.18293,0.507463 0.04689,0.32823 0.16969,0.49248 0.36897,0.49248 0.37512,0 0.93219,-0.02391 1.6707,-0.0708 0.73852,-0.03517 1.29507,-0.05271 1.67019,-0.05271 2.77822,0 4.1321,0.01169 4.06176,0.03514 0.18756,-0.05861 0.28164,-0.2048 0.28164,-0.43925 0,-0.06641 -0.01217,-0.18227 -0.03307,-0.33228 -0.04111,0.11987 -0.12184,0.20276 -0.24857,0.24236 0.07034,-0.02344 -1.28354,-0.03514 -4.06176,-0.03514 -0.37512,0 -0.93167,0.01755 -1.67019,0.05271 -0.73851,0.04689 -1.29558,0.0708 -1.6707,0.0708 -0.19928,0 -0.32208,-0.16425 -0.36897,-0.492477 -0.03376,-0.326399 -0.09513,-0.494451 -0.18293,-0.507463 0.01648,0.0261 -0.50302,0.247981 -1.55804,0.665593 -1.11364,0.433727 -2.03377,0.650607 -2.76056,0.650607 -2.59066,0 -4.60687,-0.844114 -6.04873,-2.532146 -1.32543,-1.540674 -2.00856,-3.564287 -2.0531,-6.068364 z m 42.59792,2.965711 c -0.01721,3.075842 -0.41317,5.222279 -1.1927,6.425969 -1.69975,2.6141 -4.91728,3.9212 -9.65315,3.9212 -1.1488,0 -2.57922,-0.14034 -4.2907,-0.42168 -2.0013,-0.32344 -3.13753,-0.72581 -3.41323,-1.20612 -0.0211,0.08861 -0.04736,0.20575 -0.06821,0.293 0,0.58612 1.1604,1.06717 3.48144,1.44229 1.71148,0.28134 3.1419,0.42168 4.2907,0.42168 4.73587,0 7.9534,-1.3071 9.65315,-3.92121 0.79713,-1.23086 1.1958,-3.440545 1.1958,-6.629051 0,-0.07248 -0.0027,-0.240025 -0.0031,-0.326078 z m 23.143293,4.368725 c 0,0.597845 -0.25196,0.897104 -0.75603,0.897104 -0.37512,0 -0.94388,-0.01806 -1.70584,-0.05323 -0.76196,-0.03516 -1.3302,-0.05271 -1.70532,-0.05271 -0.39856,0 -1.00241,0.0059 -1.81126,0.01757 -0.79713,0.01173 -1.39513,0.01757 -1.79369,0.01757 -0.50406,0 -0.75603,-0.251958 -0.75603,-0.756024 v 0.529167 c 0,0.504067 0.25197,0.756027 0.75603,0.756027 0.39856,0 0.99656,-0.0058 1.79369,-0.01757 0.80885,-0.01172 1.4127,-0.01757 1.81126,-0.01757 0.37512,0 0.94336,0.01754 1.70532,0.05271 0.76196,0.03517 1.33072,0.05323 1.70584,0.05323 0.50407,0 0.75603,-0.29926 0.75603,-0.897107 z m -76.556573,0.02894 c -5.2e-4,0.107822 -0.0031,0.263182 -0.0031,0.359668 0,0.386837 0.01169,0.609567 0.03514,0.668177 0.05861,0.19928 0.2404,0.29869 0.54518,0.29869 0.41029,0 1.01998,-0.02339 1.82883,-0.07028 0.82057,-0.04689 1.43612,-0.07028 1.8464,-0.07028 0.41029,0 1.01998,0.02339 1.82883,0.07028 0.82057,0.04689 1.4356,0.07028 1.84588,0.07028 0.30479,0 0.48658,-0.09941 0.54519,-0.29869 0.02344,-0.05861 0.03514,-0.28134 0.03514,-0.668177 0,-0.08789 -0.003,-0.230332 -0.0036,-0.327628 -0.004,0.245221 -0.01324,0.42094 -0.03152,0.466638 -0.05861,0.199281 -0.2404,0.298687 -0.54519,0.298687 -0.41028,0 -1.02531,-0.02339 -1.84588,-0.07028 -0.80885,-0.04689 -1.41854,-0.07028 -1.82883,-0.07028 -0.41028,0 -1.02583,0.02339 -1.8464,0.07028 -0.80885,0.04689 -1.41854,0.07028 -1.82883,0.07028 -0.30478,0 -0.48657,-0.09941 -0.54518,-0.298687 -0.0191,-0.04775 -0.0285,-0.233074 -0.03204,-0.498678 z m 56.32059,0 c -5.1e-4,0.107822 -0.0031,0.263182 -0.0031,0.359668 0,0.386837 0.0117,0.609567 0.03514,0.668177 0.05861,0.19928 0.2404,0.29869 0.54519,0.29869 0.41028,0 1.01998,-0.02339 1.82883,-0.07028 0.82057,-0.04689 1.43611,-0.07028 1.8464,-0.07028 0.41028,0 1.01946,0.02339 1.82831,0.07028 0.82057,0.04689 1.436113,0.07028 1.846403,0.07028 0.30478,0 0.48657,-0.09941 0.54518,-0.29869 0.0234,-0.05861 0.0351,-0.28134 0.0351,-0.668177 0,-0.08789 -0.003,-0.230332 -0.004,-0.327628 -0.004,0.245221 -0.0132,0.42094 -0.0315,0.466638 -0.0586,0.199281 -0.2404,0.298687 -0.54518,0.298687 -0.41029,0 -1.025833,-0.02339 -1.846403,-0.07028 -0.80885,-0.04689 -1.41803,-0.07028 -1.82831,-0.07028 -0.41029,0 -1.02583,0.02339 -1.8464,0.07028 -0.80885,0.04689 -1.41855,0.07028 -1.82883,0.07028 -0.30479,0 -0.48658,-0.09941 -0.54519,-0.298687 -0.0191,-0.04775 -0.0285,-0.233074 -0.03204,-0.498678 z m 22.264283,0.01809 c -7e-4,0.10816 -0.006,0.318998 -0.006,0.411861 0,0.597847 0.22858,0.896587 0.68575,0.896587 0.41029,0 1.01998,-0.0058 1.82883,-0.01757 0.82057,-0.01172 1.4356,-0.01757 1.84588,-0.01757 0.38684,0 0.97315,0.01754 1.75855,0.05271 0.78541,0.03517 1.37756,0.05323 1.77612,0.05323 0.43373,0 0.65061,-0.24079 0.65061,-0.721407 v -0.529167 c 0,0.480621 -0.21688,0.721404 -0.65061,0.721404 -0.39856,0 -0.99071,-0.01806 -1.77612,-0.05323 -0.7854,-0.03516 -1.37171,-0.05271 -1.75855,-0.05271 -0.41028,0 -1.02531,0.0059 -1.84588,0.01757 -0.80885,0.01173 -1.41854,0.01757 -1.82883,0.01757 -0.4253,0 -0.64989,-0.261893 -0.67954,-0.779278 z m -103.2521,0.341063 c -0.002,0.149653 -0.006,0.322214 -0.006,0.457854 0,0.33995 0.19348,0.50953 0.58032,0.50953 0.44546,0 1.11363,-0.02339 2.00453,-0.07028 0.90263,-0.04689 1.57665,-0.07028 2.0221,-0.07028 2.02798,0 3.55196,0.07069 4.57181,0.21136 0.21101,0.03516 0.35771,0.05271 0.43977,0.05271 0.23445,0 0.3514,-0.13501 0.3514,-0.40463 0,-0.1228 -0.005,-0.26672 -0.0129,-0.424264 -0.0296,0.195534 -0.13882,0.299724 -0.33848,0.299724 -0.0821,0 -0.22876,-0.01754 -0.43977,-0.05271 -1.01985,-0.14067 -2.54383,-0.211357 -4.57181,-0.211357 -0.44545,0 -1.11947,0.02339 -2.0221,0.07028 -0.8909,0.04689 -1.55907,0.07028 -2.00453,0.07028 -0.35795,0 -0.54791,-0.147145 -0.57464,-0.438214 z"
     inkscape:label="highlight"
     clip-path="url(#clipPath35201)"
     transform="translate(132.13005,9.8503761)" />
  <path
     id="text23962-6-4"
     style="font-style:normal;font-weight:normal;font-size:36.0114px;line-height:1.25;font-family:sans-serif;display:none;opacity:0.574243;fill:#000000;fill-opacity:1;stroke:none;stroke-width:0.900287;filter:url(#filter30675-0)"
     d="m -76.698779,-18.974827 c -0.45718,0 -1.16043,0.08238 -2.10995,0.246496 -1.10191,0.175837 -1.8344,0.281093 -2.1978,0.31626 -2.11004,0.164114 -3.52291,0.246497 -4.23798,0.246497 -0.22273,0 -0.33383,0.192969 -0.33383,0.579809 0,0.0948 0.0092,0.239067 0.01395,0.360185 0.03091,-0.268739 0.13424,-0.410828 0.31988,-0.410828 0.71507,0 2.12794,-0.08238 4.23798,-0.246496 0.3634,-0.03517 1.09589,-0.140423 2.1978,-0.31626 0.94952,-0.164114 1.65277,-0.246497 2.10995,-0.246497 0.21023,0 0.33322,0.11925 0.37207,0.352951 8.3e-4,-0.01821 0.01498,-0.35647 0.01498,-0.354501 0,-0.351673 -0.12916,-0.527616 -0.38705,-0.527616 z m -26.920841,0.334346 c -1.18397,0 -2.20935,0.327979 -3.07681,0.984436 -0.94952,0.71507 -1.42421,1.65326 -1.42421,2.813782 0,0.09492 0.008,0.184963 0.0134,0.276469 0.0654,-1.043558 0.53186,-1.89919 1.41077,-2.561084 0.86746,-0.656457 1.89284,-0.984436 3.07681,-0.984436 1.18397,0 2.20987,0.327979 3.07733,0.984436 0.886131,0.667333 1.353161,1.531627 1.412321,2.586922 0.0054,-0.09966 0.01188,-0.198253 0.01188,-0.302307 0,-1.160522 -0.47468,-2.098712 -1.424201,-2.813782 -0.86746,-0.656457 -1.89336,-0.984436 -3.07733,-0.984436 z m 56.320591,0 c -1.18396,0 -2.20935,0.327979 -3.07681,0.984436 -0.94952,0.71507 -1.4242,1.65326 -1.4242,2.813782 0,0.09492 0.0079,0.184963 0.01343,0.276469 0.06536,-1.043558 0.53186,-1.89919 1.41077,-2.561084 0.86746,-0.656457 1.89285,-0.984436 3.07681,-0.984436 1.18397,0 2.20987,0.327979 3.077339,0.984436 0.88613,0.667333 1.35316,1.531627 1.41231,2.586922 0.005,-0.09966 0.0119,-0.198253 0.0119,-0.302307 0,-1.160522 -0.47469,-2.098712 -1.4242,-2.813782 -0.867469,-0.656457 -1.893369,-0.984436 -3.077339,-0.984436 z m -85.017031,0.474907 c -0.30478,0 -0.44512,0.134493 -0.42168,0.404109 l 0.0176,0.246497 c 0.002,0.02825 0.004,0.05395 0.006,0.08217 0.0514,-0.13485 0.18287,-0.203605 0.39842,-0.203605 0.72679,0 1.81702,0.02339 3.2706,0.07028 1.45359,0.04689 2.54381,0.07028 3.2706,0.07028 0.62129,0 1.55312,-0.02339 2.7957,-0.07028 1.24258,-0.04689 2.1744,-0.07028 2.79569,-0.07028 2.90717,0 5.26941,0.89674 7.08639,2.690275 1.77759,1.732009 2.68865,3.997018 2.73834,6.792351 0.002,-0.09608 0.005,-0.190964 0.005,-0.288355 0,-2.907167 -0.91429,-5.25135 -2.74299,-7.033162 -1.81698,-1.793535 -4.17922,-2.690276 -7.08639,-2.690276 -0.62129,0 -1.55311,0.02339 -2.79569,0.07028 -1.24258,0.04689 -2.17441,0.07028 -2.7957,0.07028 -0.72679,0 -1.81701,-0.02339 -3.2706,-0.07028 -1.45358,-0.04689 -2.54381,-0.07028 -3.2706,-0.07028 z m 65.006891,6.734472 c -2.22727,0 -4.03829,0.779273 -5.43326,2.338359 -1.34809,1.500473 -2.0221,3.376336 -2.0221,5.627047 0,0.08628 0.0031,0.170719 0.0052,0.255798 0.05291,-2.12917 0.72402,-3.914603 2.01694,-5.353678 1.39497,-1.559086 3.20599,-2.338359 5.43326,-2.338359 1.20741,0 2.20407,0.333826 2.98948,1.002006 0.33995,0.363396 0.67962,0.721129 1.01957,1.072803 0.04689,-0.07034 0.07028,-0.181955 0.07028,-0.334347 0,-0.0821 -0.0081,-0.190438 -0.0217,-0.316776 -0.01162,0.04861 -0.02736,0.09014 -0.04858,0.121956 -0.33995,-0.351673 -0.67962,-0.709407 -1.01957,-1.072803 -0.78541,-0.668179 -1.78207,-1.002006 -2.98948,-1.002006 z m 4.16718,0.03514 c -0.15239,0 -0.22841,0.111104 -0.22841,0.33383 0,0.08909 0.01033,0.212297 0.02636,0.353467 0.03318,-0.102879 0.09848,-0.15813 0.20205,-0.15813 0.2579,0 1.70586,0.105256 4.34341,0.31626 2.63755,0.199281 3.98558,0.310901 4.04419,0.334346 0.19401,0.06467 0.29443,0.19666 0.31006,0.390157 0.0013,-0.146661 0.0067,-0.352054 0.0067,-0.480074 0,-0.222726 -0.10577,-0.368915 -0.31678,-0.439249 -0.05861,-0.02345 -1.40664,-0.135065 -4.04419,-0.334347 -2.63755,-0.211004 -4.08551,-0.31626 -4.34341,-0.31626 z m 31.052889,0.01757 c -0.3634,0 -1.75821,0.234419 -4.18476,0.703317 -1.64114,0.234449 -3.05935,0.427934 -4.25504,0.580326 -0.19928,0.08206 -0.2992,0.234093 -0.2992,0.45682 0,0.08747 0.0169,0.191991 0.0475,0.310058 0.0469,-0.105327 0.12781,-0.186715 0.25166,-0.237711 1.19569,-0.152392 2.6139,-0.345878 4.25504,-0.580327 2.42655,-0.468898 3.82136,-0.703316 4.18476,-0.703316 0.23445,0 0.38115,0.386971 0.43976,1.160653 0.0572,0.754339 0.14781,1.13766 0.27182,1.156518 -0.006,-0.03984 0.6007,-0.37855 1.82056,-1.015958 1.31292,-0.679902 2.3973,-1.020093 3.25303,-1.020093 1.41842,0 2.64366,0.334343 3.67523,1.002523 1.18397,0.785404 1.7756,1.852239 1.7756,3.200321 v -0.529167 c 0,-1.348081 -0.59163,-2.414917 -1.7756,-3.200321 -1.03157,-0.66818 -2.25681,-1.002523 -3.67523,-1.002523 -0.85573,0 -1.94011,0.340191 -3.25303,1.020093 -1.21986,0.637408 -1.82674,0.976121 -1.82056,1.015959 -0.12401,-0.01886 -0.21467,-0.402179 -0.27182,-1.156519 -0.0586,-0.773682 -0.20531,-1.160653 -0.43976,-1.160653 z m -75.89098,0.527617 c -0.36339,0 -0.54518,0.152036 -0.54518,0.456819 0,0.07046 0.0132,0.189547 0.0331,0.332797 0.0672,-0.173678 0.23779,-0.26045 0.51211,-0.26045 0.4689,0 1.17216,0.07602 2.10995,0.22841 0.94952,0.152392 1.66447,0.22841 2.14509,0.22841 0.48062,0 1.18972,-0.07602 2.12752,-0.22841 0.94952,-0.152392 1.659141,-0.22841 2.128031,-0.22841 0.27458,0 0.44056,0.09747 0.50075,0.290422 0.01336,-0.142072 0.02635,-0.283264 0.02635,-0.345199 0,-0.316506 -0.17542,-0.474389 -0.5271,-0.474389 -0.46889,0 -1.178511,0.07602 -2.128031,0.22841 -0.9378,0.152391 -1.6469,0.228409 -2.12752,0.228409 -0.48062,0 -1.19557,-0.07602 -2.14509,-0.228409 -0.93779,-0.152392 -1.64105,-0.22841 -2.10995,-0.22841 z m 18.849501,0 c -2.61411,0 -4.63031,0.843596 -6.04873,2.531628 -1.32463,1.582531 -1.98696,3.716202 -1.98696,6.400643 0,0.08546 0.0027,0.16885 0.0041,0.253215 0.0444,-2.554274 0.70419,-4.597121 1.98282,-6.124691 1.41842,-1.688033 3.43462,-2.531629 6.04873,-2.531629 0.93779,0 2.13964,0.380607 3.60495,1.142566 0.11722,0 0.1757,-0.163731 0.1757,-0.491959 v -0.529167 c 0,0.328229 -0.05848,0.49196 -0.1757,0.49196 -1.46531,-0.76196 -2.66716,-1.142566 -3.60495,-1.142566 z m 37.4711,0 c -0.3634,0 -0.54519,0.152036 -0.54519,0.456819 0,0.07055 0.01317,0.189791 0.03307,0.333313 0.06713,-0.173971 0.23757,-0.260966 0.51212,-0.260966 0.46889,0 1.17215,0.07602 2.10995,0.22841 0.94951,0.152392 1.66446,0.22841 2.14508,0.22841 0.48062,0 1.18973,-0.07602 2.12752,-0.22841 0.949519,-0.152392 1.659139,-0.22841 2.128039,-0.22841 0.27459,0 0.44056,0.09746 0.50074,0.290422 0.0134,-0.142072 0.0264,-0.283264 0.0264,-0.345199 0,-0.316506 -0.17543,-0.474389 -0.5271,-0.474389 -0.4689,0 -1.17852,0.07602 -2.128039,0.22841 -0.93779,0.152391 -1.6469,0.228409 -2.12752,0.228409 -0.48062,0 -1.19557,-0.07602 -2.14508,-0.228409 -0.9378,-0.152392 -1.64106,-0.22841 -2.10995,-0.22841 z m -71.471611,2.861324 c -0.002,0.107126 -0.006,0.208207 -0.006,0.322977 0,0.269617 0.0117,0.667766 0.0351,1.195276 0.0234,0.527511 0.0351,0.926177 0.0351,1.195793 0,0.187559 0.17594,0.281637 0.52762,0.281637 1.75836,0 2.63756,-0.890893 2.63756,-2.672706 0,-0.09188 -0.004,-0.180184 -0.008,-0.267167 -0.0845,1.605993 -0.95993,2.410706 -2.62929,2.410706 -0.35168,0 -0.52762,-0.09408 -0.52762,-0.281637 0,-0.269616 -0.0117,-0.668282 -0.0351,-1.195792 -0.0194,-0.436511 -0.0256,-0.729168 -0.0289,-0.989087 z m -9.09919,2.330607 c -0.006,1.31119 -0.0738,3.21486 -0.20877,5.744869 -0.14067,2.625828 -0.21084,4.595252 -0.21084,5.908166 0,0.02575 0.003,0.04855 0.005,0.07235 0.013,-1.298964 0.0795,-3.096183 0.20567,-5.451347 0.14067,-2.63755 0.21084,-4.612822 0.21084,-5.925736 0,-0.113803 -0.002,-0.233254 -0.002,-0.348299 z m 55.445201,1.595768 c -9e-5,0.04118 -0.0015,0.101643 -0.0015,0.141594 0,5.638497 0.08186,9.038338 0.24598,10.19886 0.0013,0.0089 8.6e-4,0.01046 0.0021,0.01912 0.01966,-0.05747 0.03308,-0.120987 0.03308,-0.196887 0,-0.07033 -0.0117,-0.187285 -0.03514,-0.351399 -0.15994,-1.131002 -0.24036,-4.427231 -0.24443,-9.811288 z m 13.81363,1.136882 c -0.05266,0.313543 -0.20187,0.591457 -0.45166,0.83199 -0.30478,0.304784 -0.66836,0.457337 -1.09037,0.457337 -0.42201,0 -0.78507,-0.146706 -1.08986,-0.439767 -0.24052,-0.24052 -0.38491,-0.522019 -0.43563,-0.842842 -0.01353,0.08515 -0.0217,0.172671 -0.0217,0.264066 0,0.433731 0.15255,0.803159 0.45733,1.107943 0.30479,0.293061 0.66785,0.439766 1.08986,0.439766 0.42201,0 0.78559,-0.152553 1.09037,-0.457336 0.31651,-0.304784 0.47491,-0.668365 0.47491,-1.090373 0,-0.09379 -0.009,-0.183573 -0.02325,-0.270784 z m 8.37778,0.806152 c -2.8e-4,0.0735 -0.0026,0.187586 -0.0026,0.255798 0,0.386841 0.0058,0.973145 0.01757,1.758549 0.0095,0.628775 0.01269,1.04163 0.01447,1.414901 3.9e-4,-0.06944 0.0031,-0.132692 0.0031,-0.203088 0,-0.386841 -0.0058,-0.967298 -0.01757,-1.740979 -0.0099,-0.663313 -0.01344,-1.106149 -0.01498,-1.485181 z m -34.06149,0.325561 c -0.01104,0.08554 -0.01808,0.1731 -0.01808,0.264584 0,0.48062 0.15255,0.879286 0.45733,1.195792 0.31651,0.304784 0.71466,0.45682 1.19528,0.45682 0.48062,0 0.87928,-0.152036 1.19579,-0.45682 0.31651,-0.316506 0.47491,-0.715172 0.47491,-1.195792 0,-0.08883 -0.0079,-0.173989 -0.01964,-0.257349 -0.04982,0.36073 -0.2007,0.66941 -0.45527,0.923975 -0.31651,0.304783 -0.71517,0.456819 -1.19579,0.456819 -0.48062,0 -0.87877,-0.152036 -1.19528,-0.456819 -0.24677,-0.256261 -0.39228,-0.567366 -0.43925,-0.93121 z m -19.222081,0.539502 c -0.003,0.77777 -0.0187,1.824527 -0.0501,3.240113 -0.0352,1.570808 -0.0527,2.754594 -0.0527,3.551721 0,0.06972 0.002,0.105791 0.003,0.164848 0.004,-0.782622 0.0188,-1.809189 0.0496,-3.187403 0.0352,-1.58253 0.0527,-2.766317 0.0527,-3.551721 0,-0.06775 -0.002,-0.146909 -0.003,-0.217558 z m 56.320591,0 c -0.0033,0.77777 -0.01867,1.824527 -0.05012,3.240113 -0.03517,1.570808 -0.05271,2.754594 -0.05271,3.551721 0,0.06972 0.0023,0.105791 0.0031,0.164848 0.0038,-0.782622 0.01875,-1.809189 0.04961,-3.187403 0.03516,-1.58253 0.05271,-2.766317 0.05271,-3.551721 0,-0.06775 -0.002,-0.146909 -0.0026,-0.217558 z m -48.03272,0.04548 c -7.3e-4,0.05454 -0.0031,0.123288 -0.0031,0.172082 0,0.785404 0.01755,1.969191 0.05271,3.551721 0.04172,1.397611 0.06207,2.438957 0.06667,3.224093 0.0011,-0.0693 0.0036,-0.116304 0.0036,-0.201538 0,-0.797127 -0.02339,-1.980913 -0.07028,-3.551721 -0.03091,-1.391221 -0.04587,-2.419465 -0.0496,-3.194637 z m 56.320069,0.0021 c -7.1e-4,0.05381 -0.003,0.121808 -0.003,0.170015 0,0.785404 0.0181,1.969191 0.0532,3.551721 0.0417,1.397611 0.0621,2.438957 0.0667,3.224093 10e-4,-0.0693 0.004,-0.116304 0.004,-0.201538 0,-0.797127 -0.0234,-1.980913 -0.0703,-3.551721 -0.0309,-1.390114 -0.0464,-2.417525 -0.0501,-3.19257 z m 13.9361,2.317688 c -0.003,0.529393 -0.01,1.173388 -0.0305,2.105814 -0.0234,1.055021 -0.0351,1.851836 -0.0351,2.391069 0,0.04168 0.004,0.07853 0.006,0.117305 0.003,-0.51989 0.01,-1.105915 0.0289,-1.979207 0.0234,-1.066743 0.0351,-1.869923 0.0351,-2.409155 0,-0.05019 -0.004,-0.16931 -0.005,-0.225826 z m -93.65165,1.455208 c -0.007,0.03407 -0.0119,0.06891 -0.0119,0.10697 0,0.457176 0.0526,1.142888 0.15813,2.057239 0.0763,0.653022 0.12462,1.182551 0.14573,1.596285 0.005,-0.03357 0.0129,-0.06405 0.0129,-0.103353 0,-0.445453 -0.0531,-1.11947 -0.15865,-2.022099 -0.0771,-0.668225 -0.12549,-1.210993 -0.14625,-1.635042 z m 59.421181,1.740462 c 0,0.422008 -0.45129,0.738809 -1.35392,0.949813 -0.63301,0.164114 -1.2661,0.24598 -1.89911,0.24598 -1.17224,0 -2.743,-0.263656 -4.71237,-0.791166 -0.07034,-0.02344 -0.12296,-0.03514 -0.15813,-0.03514 -0.19928,0 -0.35184,0.222723 -0.45734,0.668176 -0.37512,1.641143 -0.72115,3.124187 -1.03766,4.448824 0,0.08058 0.02435,0.159057 0.06821,0.235645 0.29924,-1.256758 0.61908,-2.622418 0.96945,-4.155302 0.1055,-0.445453 0.25806,-0.668177 0.45734,-0.668177 0.03517,0 0.08779,0.0117 0.15813,0.03514 1.96937,0.527511 3.54013,0.791167 4.71237,0.791167 0.63301,0 1.2661,-0.08187 1.89911,-0.24598 0.90263,-0.211004 1.35392,-0.527288 1.35392,-0.949296 z"
     inkscape:label="shadow"
     clip-path="url(#clipPath33743)"
     transform="translate(144.53,45.205227)" />
  <text
     xml:space="preserve"
     style="font-style:normal;font-weight:normal;font-size:36.0114px;line-height:1.25;font-family:sans-serif;display:none;mix-blend-mode:normal;fill:#ffffff;fill-opacity:1;stroke:none;stroke-width:0.5;stroke-linecap:square;stroke-dasharray:none;paint-order:stroke fill markers"
     x="10.438131"
     y="51.709167"
     id="text40207"
     inkscape:label="Pidgin"><tspan
       sodipodi:role="line"
       id="tspan40205"
       style="font-style:normal;font-variant:normal;font-weight:normal;font-stretch:normal;font-size:36.0114px;font-family:'Berlin Sans FB';-inkscape-font-specification:'Berlin Sans FB, Normal';font-variant-ligatures:normal;font-variant-caps:normal;font-variant-numeric:normal;font-variant-east-asian:normal;fill:#ffffff;stroke:none;stroke-width:0.5;stroke-linecap:square;stroke-dasharray:none;paint-order:stroke fill markers"
       x="10.438131"
       y="51.709167">Pidgin</tspan></text>
  <path
     id="text40207-9"
     style="font-style:normal;font-weight:normal;font-size:36.0114px;line-height:1.25;font-family:sans-serif;display:none;opacity:0.074522;mix-blend-mode:multiply;fill:#000000;fill-opacity:1;stroke:none;stroke-width:0.5;stroke-linecap:square;stroke-dasharray:none;paint-order:stroke fill markers;filter:url(#filter46401)"
     inkscape:label="Pidgin-dark-center"
     d="m 40.505709,30.111602 c -0.41264,-0.02312 -1.09321,0.305452 -0.96289,0.785156 0.72606,0.54208 1.7706,0.395228 2.56641,0.132813 0.25406,-0.897835 -1.03414,-0.948278 -1.60352,-0.917969 z m 56.32032,0 c -0.4173,-0.02775 -1.09298,0.308416 -0.96289,0.78711 0.73224,0.531239 1.76936,0.397948 2.5664,0.130859 0.25406,-0.897835 -1.03413,-0.948278 -1.60351,-0.917969 z m -33.52149,0.21875 c -0.35601,0.150139 -1.21717,-0.153752 -1.11017,0.395427 0.0634,2.055176 0.25407,4.164997 -0.21237,6.181098 -0.42166,1.144082 -1.55637,1.938726 -2.74972,2.083631 2.58508,1.081547 3.9435,4.585329 2.38432,7.01633 -0.48482,0.827321 -1.25378,1.471675 -2.12456,1.862577 0.87604,0.182497 1.7788,0.456669 2.44922,1.078125 0.88455,-0.04825 1.77071,-0.04396 2.65625,-0.04492 -0.26343,-6.247156 -0.0371,-12.500796 0.2207,-18.744141 -0.50455,0.05729 -1.00911,0.114583 -1.51367,0.171875 z m -39.125,0.271484 c -3.03865,0.03684 -6.07885,0.160431 -9.11718,0.04492 0.42526,6.042282 0.31803,12.10997 -0.0156,18.154297 1.06733,-0.0606 2.23042,-0.0012 3.23828,-0.04883 -0.16046,-1.667647 0.41923,-3.645555 2.09841,-4.329476 2.04655,-0.972132 4.29348,0.147958 6.38229,-0.5796 1.95936,-0.503917 3.52898,-2.18414 3.85514,-4.189193 0.47581,-1.937947 0.44322,-4.350107 -0.62979,-6.185972 -1.21695,-1.922995 -3.54455,-3.072727 -5.81152,-2.86615 z m -2.11133,0.988282 c 3.02993,-0.167911 5.84116,2.60693 5.65592,5.648996 0.16732,2.699741 -1.78142,5.494751 -4.53932,5.874415 -1.90604,0.489904 -4.37256,-0.418151 -4.84316,-2.488255 -0.27116,-2.27842 -0.4577,-4.7001 0.39844,-6.878906 0.62308,-1.235157 1.90879,-2.187347 3.32812,-2.15625 z m 55.06446,5.722656 c -2.50244,-0.166315 -4.47179,2.359236 -4.29821,4.736665 -0.14959,2.152821 1.49903,4.365107 3.72584,4.493928 0.35926,0.0344 1.67829,0.188308 0.828,-0.183371 -2.04771,-1.171395 -2.79572,-3.998227 -1.66941,-6.055543 0.54647,-1.094388 1.50101,-2.001817 2.66182,-2.409648 -0.32718,-0.330048 -0.75274,-0.656146 -1.24804,-0.582031 z m 6.83398,0.462891 c -0.18429,0.44534 -0.44772,0.86128 -0.79101,1.201171 1.78408,1.672658 2.04279,4.803517 0.26468,6.578554 -0.12797,0.263222 -0.74798,0.490166 -0.64293,0.691386 1.09972,0.758065 1.45105,2.186289 1.27073,3.449024 -0.0388,1.792743 -1.26537,3.512758 -3.03341,3.960843 -0.40897,0.149877 -0.82839,0.272988 -1.25556,0.359256 2.02167,-0.08505 4.2842,-0.385635 5.77344,-1.892578 1.14522,-1.180968 0.95362,-2.95331 1.10008,-4.462953 0.0772,-3.297178 -0.0278,-6.597741 0.10304,-9.894469 -0.90333,-0.04813 -1.80107,-0.176166 -2.70507,-0.212891 -0.028,0.07422 -0.056,0.148438 -0.084,0.222657 z m 34.035171,-0.08203 c -0.93773,0.130387 -1.74239,0.665083 -2.54492,1.126953 1.56719,0.461927 2.6819,1.991384 2.68555,3.619367 0.2316,2.099839 0.0912,4.22261 0.0867,6.326875 0.18396,0.245846 1.03222,0.02213 1.46598,0.108446 0.809,0.259165 0.74592,-0.373401 0.70234,-0.986323 0.003,-3.14469 0.0484,-6.299724 -0.0734,-9.437505 -0.4945,-0.731251 -1.51448,-0.842202 -2.32226,-0.757813 z m -9.36914,0.308594 c -0.44498,0.07362 -0.89229,0.146521 -1.33985,0.208985 0.53863,3.52606 0.33339,7.105395 0.36524,10.658203 0.73045,-0.01625 1.46108,0.0062 2.19141,0.01953 0.0294,-2.598144 -0.20309,-5.239999 0.29337,-7.802446 0.26535,-0.730487 0.80105,-1.340898 1.44491,-1.765914 -0.64299,-0.353973 -1.17401,-0.910153 -1.50586,-1.564453 -0.48308,0.08203 -0.96615,0.164063 -1.44922,0.246095 z m -54.277361,-0.07617 c -1.90693,0.16337 -3.43579,1.792132 -3.69989,3.653008 -0.46499,2.293806 -0.31188,5.06694 1.5215,6.746167 0.976,0.800574 2.3172,1.154679 3.56121,0.930903 0.0838,-0.400342 0.32882,-0.77048 0.59961,-1.050781 -2.64107,-0.459138 -4.42233,-3.460427 -3.56545,-5.997346 0.54452,-1.994478 2.46071,-3.611142 4.56545,-3.571013 -0.87867,-0.561648 -1.94433,-0.81954 -2.98243,-0.710938 z m 43.3418,0.367188 c -0.65445,0.02693 -1.3116,0.03311 -1.96484,-0.02148 0.31611,3.496078 0.35792,7.011789 0.26562,10.519532 0.68597,-0.02568 1.37248,-0.01512 2.0586,-0.002 -0.0842,-3.516974 -0.0639,-7.044328 0.29297,-10.546874 -0.21745,0.01693 -0.4349,0.03385 -0.65235,0.05078 z m -56.32422,0 c -0.65378,0.0237 -1.31032,0.03244 -1.96289,-0.02148 0.32638,3.495467 0.35382,7.011918 0.26563,10.519532 0.68661,-0.02566 1.37377,-0.01514 2.06054,-0.002 -0.0827,-3.516252 -0.0666,-7.043082 0.29102,-10.544921 -0.2181,0.01628 -0.4362,0.03255 -0.6543,0.04883 z" />
  <path
     id="text40207-3"
     style="font-style:normal;font-weight:normal;font-size:36.0114px;line-height:1.25;font-family:sans-serif;display:none;mix-blend-mode:normal;fill:#b6ff00;fill-opacity:1;stroke:none;stroke-width:0.5;stroke-linecap:square;stroke-dasharray:none;paint-order:stroke fill markers;filter:url(#filter41468)"
     inkscape:label="Pidgin-edge-contour"
     d="m 191.50821,63.818844 c -0.30407,0 -0.72717,0.04006 -1.24902,0.112654 -0.0235,0.556947 -0.0425,0.999181 -0.12713,3.047876 -0.19928,4.630367 -0.2992,7.888833 -0.2992,9.776148 0,5.638497 0.0824,9.038338 0.24649,10.19886 0.0234,0.164115 0.0351,0.281065 0.0351,0.3514 0,0.234449 -0.0941,0.381154 -0.28163,0.439767 0.0703,-0.02344 -1.28355,-0.03514 -4.06177,-0.03514 -0.37512,0 -0.93167,0.01754 -1.67018,0.05271 -0.73852,0.04689 -1.29558,0.07028 -1.6707,0.07028 -0.19928,0 -0.32208,-0.164247 -0.36897,-0.492476 -0.0338,-0.327011 -0.0954,-0.494498 -0.18345,-0.506946 0.0165,0.0261 -0.50251,0.24798 -1.55753,0.665593 -1.11363,0.43373 -2.03376,0.650606 -2.76056,0.650606 -1.92248,0 -3.52793,-0.466207 -4.81779,-1.39578 0.1138,0.154177 0.23133,0.305558 0.35657,0.451135 1.44186,1.688032 3.45806,2.532145 6.04872,2.532145 0.7268,0 1.64693,-0.216876 2.76056,-0.650606 1.05502,-0.417613 1.57401,-0.639492 1.55753,-0.665593 0.0881,0.01245 0.14962,0.179935 0.18345,0.506946 0.0469,0.328229 0.16969,0.492476 0.36897,0.492476 0.37512,0 0.93218,-0.02339 1.6707,-0.07028 0.73851,-0.03517 1.29506,-0.05271 1.67018,-0.05271 2.77822,0 4.1321,0.01169 4.06177,0.03514 0.18756,-0.05861 0.28163,-0.205318 0.28163,-0.439767 0,-0.07034 -0.0117,-0.187285 -0.0351,-0.3514 -0.16411,-1.160522 -0.24649,-4.560363 -0.24649,-10.19886 0,-1.887315 0.0999,-5.145781 0.2992,-9.776148 0.11723,-2.836832 0.1757,-4.243859 0.1757,-4.220414 0,-0.351673 -0.12916,-0.527616 -0.38705,-0.527616 z m -24.35666,0.984436 c 0.23301,0.46558 0.35037,0.985735 0.35037,1.560628 0,2.461714 -1.50059,3.692281 -4.50153,3.692281 -1.01572,0 -1.88095,-0.188243 -2.60036,-0.558622 0.20884,0.457012 0.52437,0.84842 0.94413,1.175639 0.65707,0.09211 1.17715,0.139009 1.55081,0.139009 0.48062,0 1.18972,-0.07602 2.12752,-0.22841 0.94951,-0.152391 1.65862,-0.228409 2.12751,-0.228409 0.35168,0 0.52762,0.157883 0.52762,0.474389 0,0.01863 -0.007,0.07798 -0.008,0.10387 0.94592,-0.606138 1.41955,-1.60016 1.41955,-2.982247 0,-1.160523 -0.4752,-2.098712 -1.42472,-2.813782 -0.1648,-0.124718 -0.33692,-0.233323 -0.51315,-0.334346 z m 56.3206,0 c 0.23301,0.46558 0.35036,0.985735 0.35036,1.560628 0,2.461714 -1.50058,3.692281 -4.50153,3.692281 -1.01591,0 -1.88138,-0.188104 -2.60088,-0.558622 0.20885,0.457027 0.52488,0.848412 0.94465,1.175639 0.65707,0.09211 1.17715,0.139009 1.55081,0.139009 0.48062,0 1.18972,-0.07602 2.12752,-0.22841 0.94952,-0.152391 1.65862,-0.228409 2.12752,-0.228409 0.35167,0 0.52761,0.157883 0.52761,0.474389 0,0.01863 -0.007,0.07798 -0.008,0.10387 0.94592,-0.606138 1.41904,-1.60016 1.41904,-2.982247 0,-1.160523 -0.47469,-2.098712 -1.42421,-2.813782 -0.1648,-0.124718 -0.33691,-0.233323 -0.51314,-0.334346 z m -69.14617,1.825728 c 1.29133,1.648301 1.93993,3.692059 1.93993,6.135026 0,3.141616 -0.81487,5.603267 -2.44429,7.385079 -1.68803,1.852147 -4.07951,2.778642 -7.17424,2.778642 -0.23445,0 -0.58582,-0.01754 -1.05472,-0.05271 -0.45717,-0.04689 -0.80321,-0.0708 -1.03766,-0.0708 -0.62129,0 -0.93173,0.18179 -0.93173,0.545186 0,0.457176 0.0526,1.142888 0.15813,2.057239 0.10551,0.902629 0.15813,1.576646 0.15813,2.022099 0,0.269616 -0.11695,0.404626 -0.3514,0.404626 -0.0821,0 -0.22876,-0.01754 -0.43976,-0.05271 -1.01985,-0.140669 -2.54383,-0.210839 -4.57182,-0.210839 -0.44545,0 -1.11947,0.02339 -2.02209,0.07028 -0.37479,0.01972 -0.68797,0.03301 -0.98392,0.04444 -0.009,0.408221 -0.0134,0.776441 -0.0134,1.103292 0,0.339951 0.19349,0.510047 0.58033,0.510047 0.44545,0 1.11362,-0.02339 2.00453,-0.07028 0.90262,-0.04689 1.57664,-0.07028 2.02209,-0.07028 2.02799,0 3.55197,0.07017 4.57182,0.210839 0.211,0.03517 0.35719,0.05271 0.43925,0.05271 0.23445,0 0.35191,-0.13501 0.35191,-0.404626 0,-0.445453 -0.0526,-1.11947 -0.15813,-2.022099 -0.1055,-0.914351 -0.15813,-1.600063 -0.15813,-2.057239 0,-0.363396 0.31044,-0.545186 0.93173,-0.545186 0.23445,0 0.58049,0.02391 1.03766,0.0708 0.4689,0.03517 0.82027,0.05271 1.05472,0.05271 3.09473,0 5.48621,-0.926495 7.17424,-2.778642 1.62942,-1.781812 2.44429,-4.243463 2.44429,-7.385079 0,-2.907167 -0.9148,-5.25135 -2.7435,-7.033162 -0.25069,-0.247461 -0.51248,-0.476047 -0.78393,-0.689364 z m -10.1229,3.796667 c -0.48062,0 -0.72088,0.861656 -0.72088,2.584856 0,0.269616 0.0117,0.667765 0.0351,1.195275 0.0234,0.527511 0.0351,0.926177 0.0351,1.195793 0,0.187559 0.17594,0.281637 0.52761,0.281637 0.38135,0 0.71887,-0.04487 1.01751,-0.128675 -0.015,-0.380918 -0.0279,-0.740769 -0.0279,-0.95653 0,-1.7232 0.24026,-2.584856 0.72088,-2.584856 0.30452,0 0.58073,0.02944 0.82993,0.0863 -0.2637,-1.115157 -1.06891,-1.6738 -2.41743,-1.6738 z m 91.91532,0.989604 c -0.15703,0 -0.54498,0.05248 -1.08727,0.140043 0.0541,0.375403 0.12431,0.576519 0.21136,0.589628 -0.004,-0.02864 0.43834,-0.27536 1.06763,-0.612882 -0.0559,-0.07478 -0.11883,-0.116789 -0.19172,-0.116789 z m -23.95047,0.513664 c -0.0126,0.793562 -0.0336,1.717835 -0.0739,2.92747 -0.0469,1.758367 -0.0703,3.077164 -0.0703,3.956347 0,0.386841 0.006,0.973145 0.0176,1.758549 0.0117,0.773682 0.0176,1.354139 0.0176,1.740979 0,3.188506 -0.39867,5.398196 -1.19579,6.629053 -1.69976,2.614106 -4.91781,3.921208 -9.65368,3.921208 -1.1488,0 -2.5787,-0.140858 -4.29017,-0.422197 -0.70154,-0.11338 -1.28404,-0.237863 -1.77354,-0.37052 -0.0375,0.157979 -0.0837,0.362532 -0.1204,0.516248 0,0.586122 1.16039,1.066654 3.48144,1.441772 1.71147,0.281339 3.14137,0.422197 4.29017,0.422197 4.73587,0 7.95392,-1.307102 9.65368,-3.921208 0.79712,-1.230857 1.19579,-3.440547 1.19579,-6.629053 0,-0.38684 -0.006,-0.967297 -0.0176,-1.740979 -0.0117,-0.785404 -0.0176,-1.371708 -0.0176,-1.758549 0,-0.879183 0.0234,-2.19798 0.0703,-3.956347 0.0586,-1.758368 0.0879,-3.077164 0.0879,-3.956348 0,-0.222726 -0.10577,-0.368915 -0.31678,-0.43925 -0.0316,-0.01262 -0.50537,-0.05577 -1.28467,-0.119372 z m -43.43043,0.01395 c -0.29107,0 -0.68593,0.03274 -1.1622,0.09147 -0.3608,3.943766 -0.54829,6.516932 -0.54829,7.60522 0,0.785404 0.0175,1.969191 0.0527,3.551722 0.0469,1.570808 0.0703,2.754594 0.0703,3.551721 0,0.386841 -0.0117,0.609564 -0.0351,0.668176 -0.0586,0.199282 -0.2404,0.299207 -0.54518,0.299207 -0.41029,0 -1.02583,-0.02339 -1.8464,-0.07028 -0.80885,-0.04689 -1.41803,-0.07028 -1.82831,-0.07028 -0.41029,0 -1.02583,0.02339 -1.8464,0.07028 -0.31014,0.01798 -0.56443,0.02922 -0.81597,0.04031 -0.002,0.21143 -0.006,0.475693 -0.006,0.65009 0,0.386841 0.0117,0.609564 0.0351,0.668176 0.0586,0.199282 0.24041,0.299207 0.54519,0.299207 0.41028,0 1.01998,-0.02339 1.82883,-0.07028 0.82057,-0.04689 1.43611,-0.07028 1.8464,-0.07028 0.41028,0 1.01946,0.02339 1.82831,0.07028 0.82057,0.04689 1.43611,0.07028 1.8464,0.07028 0.30478,0 0.48657,-0.09992 0.54518,-0.299207 0.0234,-0.05861 0.0351,-0.281335 0.0351,-0.668176 0,-0.797127 -0.0234,-1.980913 -0.0703,-3.551721 -0.0352,-1.582531 -0.0527,-2.766318 -0.0527,-3.551722 0,-1.160522 0.20518,-3.944821 0.61547,-8.352461 0.0234,-0.222727 0.0351,-0.37528 0.0351,-0.457337 0,-0.316506 -0.17594,-0.474389 -0.52762,-0.474389 z m 56.3206,0 c -0.29107,0 -0.68594,0.03274 -1.16221,0.09147 -0.3608,3.943766 -0.54828,6.516932 -0.54828,7.60522 0,0.785404 0.0175,1.969191 0.0527,3.551722 0.0469,1.570808 0.0703,2.754594 0.0703,3.551721 0,0.386841 -0.0117,0.609564 -0.0351,0.668176 -0.0586,0.199282 -0.24041,0.299207 -0.54519,0.299207 -0.41028,0 -1.02583,-0.02339 -1.8464,-0.07028 -0.80885,-0.04689 -1.41802,-0.07028 -1.82831,-0.07028 -0.41029,0 -1.02583,0.02339 -1.8464,0.07028 -0.31014,0.01798 -0.56443,0.02922 -0.81597,0.04031 -0.002,0.21143 -0.006,0.475693 -0.006,0.65009 0,0.386841 0.0117,0.609564 0.0351,0.668176 0.0586,0.199282 0.2404,0.299207 0.54518,0.299207 0.41029,0 1.01998,-0.02339 1.82883,-0.07028 0.82057,-0.04689 1.43611,-0.07028 1.8464,-0.07028 0.41029,0 1.01946,0.02339 1.82831,0.07028 0.82057,0.04689 1.43612,0.07028 1.8464,0.07028 0.30478,0 0.48658,-0.09992 0.54519,-0.299207 0.0234,-0.05861 0.0351,-0.281335 0.0351,-0.668176 0,-0.797127 -0.0234,-1.980913 -0.0703,-3.551721 -0.0352,-1.582531 -0.0527,-2.766318 -0.0527,-3.551722 0,-1.160522 0.20518,-3.944821 0.61546,-8.352461 0.0234,-0.222727 0.0351,-0.37528 0.0351,-0.457337 0,-0.316506 -0.17594,-0.474389 -0.52761,-0.474389 z m 20.29902,0.624768 c 0.272,0.516883 0.40979,1.097925 0.40979,1.744079 v 12.748059 c 0,0.480621 -0.21687,0.720886 -0.65061,0.720886 -0.39856,0 -0.99071,-0.01754 -1.77611,-0.05271 -0.78541,-0.03517 -1.37171,-0.05271 -1.75855,-0.05271 -0.41029,0 -1.02531,0.0058 -1.84589,0.01757 -0.40545,0.0059 -0.61143,0.0059 -0.91674,0.0088 -0.002,0.201782 -0.0103,0.541502 -0.0103,0.699182 0,0.597845 0.22857,0.897103 0.68575,0.897103 0.41028,0 1.01998,-0.0058 1.82882,-0.01757 0.82058,-0.01172 1.4356,-0.01757 1.84589,-0.01757 0.38684,0 0.97314,0.01754 1.75855,0.05271 0.7854,0.03517 1.37755,0.05271 1.77611,0.05271 0.43374,0 0.65061,-0.240265 0.65061,-0.720886 V 75.899243 c 0,-1.348081 -0.59215,-2.414917 -1.77612,-3.200321 -0.072,-0.04666 -0.14726,-0.08786 -0.22117,-0.131258 z m -43.25059,3.906738 c -0.42201,0 -0.78559,0.152553 -1.09038,0.457336 -0.30478,0.293061 -0.45733,0.656126 -0.45733,1.089856 0,0.433731 0.15255,0.803159 0.45733,1.107943 0.30479,0.293061 0.66837,0.439766 1.09038,0.439766 0.0142,0 0.0278,-0.0017 0.0419,-0.0021 0.01,-0.414997 0.16051,-0.764572 0.45527,-1.047998 0.29871,-0.298709 0.65426,-0.45035 1.06557,-0.456303 3.5e-4,-0.01389 0.002,-0.02732 0.002,-0.04134 0,-0.43373 -0.15255,-0.796795 -0.45734,-1.089856 -0.30478,-0.304783 -0.67369,-0.457336 -1.10742,-0.457336 z m 34.11213,0.931726 c -0.67991,0 -1.01958,0.328496 -1.01958,0.984953 v 8.493021 c 0,0.597845 -0.25196,0.896586 -0.75603,0.896586 -0.37511,0 -0.94388,-0.01754 -1.70583,-0.05271 -0.76196,-0.03517 -1.33073,-0.05271 -1.70584,-0.05271 -0.39857,0 -1.0019,0.0058 -1.81075,0.01757 -0.42761,0.0063 -0.64929,0.0064 -0.96221,0.0093 v 0.839742 c 0,0.504066 0.25196,0.756027 0.75602,0.756027 0.39857,0 0.99657,-0.0058 1.79369,-0.01757 0.80885,-0.01172 1.41218,-0.01757 1.81075,-0.01757 0.37511,0 0.94388,0.01754 1.70584,0.05271 0.76195,0.03517 1.33072,0.05271 1.70583,0.05271 0.50407,0 0.75603,-0.298741 0.75603,-0.896586 v -8.493021 c 0,-0.433506 0.15154,-0.720934 0.44804,-0.868164 -0.003,-0.210022 -0.0134,-0.532166 -0.0134,-0.684196 0,-0.679902 -0.33434,-1.020093 -1.00252,-1.020093 z m -56.61929,0.07028 c -0.48062,0 -0.87928,0.1584 -1.19579,0.474906 -0.30478,0.316506 -0.45734,0.715173 -0.45734,1.195793 0,0.48062 0.15256,0.879286 0.45734,1.195793 0.30235,0.291151 0.68064,0.441213 1.13275,0.454235 -6e-4,-0.02099 -0.003,-0.04121 -0.003,-0.06253 0,-0.48062 0.15256,-0.879287 0.45734,-1.195793 0.31651,-0.316506 0.71517,-0.474906 1.19579,-0.474906 0.0269,0 0.0526,0.0025 0.0791,0.0036 -0.0179,-0.433491 -0.17909,-0.800431 -0.48834,-1.098641 -0.31651,-0.328228 -0.70933,-0.492476 -1.17823,-0.492476 z m 15.24817,6.5257 c 0.21598,0.296785 0.45666,0.579001 0.72243,0.846976 0.83137,0.831364 1.80452,1.419773 2.91714,1.767851 0.48192,0.05915 0.92314,0.09095 1.31568,0.09095 0.63301,0 1.2661,-0.08187 1.89911,-0.24598 0.90263,-0.211004 1.35392,-0.527288 1.35392,-0.949296 v -0.756543 c -0.93779,0.43373 -2.11573,0.650606 -3.53415,0.650606 -1.83051,0 -3.38846,-0.468361 -4.67413,-1.404565 z"
     clip-path="url(#clipPath41462)"
     transform="translate(-123.67749,-37.588342)" />
  <path
     id="path3478"
     style="display:inline;mix-blend-mode:soft-light;fill:url(#linearGradient3932);stroke-width:0.845549;stroke-linecap:round;stroke-linejoin:round;paint-order:fill markers stroke"
     d="M 7.0732896,26.370776 C 17.06332,11.686066 40.414194,1.3848286 67.627026,1.3848272 96.456499,1.3848258 120.95152,12.946353 129.81775,29.033073 98.554833,58.503508 57.296053,14.586455 7.0732896,26.370776 Z"
     sodipodi:nodetypes="cscc"
     sodipodi:insensitive="true" />
  <path
     id="path4039"
     style="display:inline;opacity:0.318536;mix-blend-mode:normal;fill:url(#linearGradient4047);fill-opacity:1;stroke-width:0.845549;stroke-linecap:round;stroke-linejoin:round;paint-order:fill markers stroke"
     d="M 7.0732901,26.370777 C 17.063316,11.686067 40.414186,1.3848286 67.627025,1.3848276 96.456487,1.3848256 120.95152,12.946354 129.81775,29.033073 98.554831,58.503508 57.296048,14.586455 7.0732901,26.370777 Z"
     sodipodi:nodetypes="cscc"
     sodipodi:insensitive="true" />
</g>
<metadata
   id="metadata1">
  <rdf:RDF>
    <cc:Work
       rdf:about="">
      <dc:creator>
        <cc:Agent>
          <dc:title>Jess Tipton</dc:title>
        </cc:Agent>
      </dc:creator>
      <dc:publisher>
        <cc:Agent>
          <dc:title>m0dw3rks.com</dc:title>
        </cc:Agent>
      </dc:publisher>
      <cc:license
         rdf:resource="https://creativecommons.org/licenses/by-nc-nd/4.0/deed.en" />
    </cc:Work>
  </rdf:RDF>
</metadata>
<metadata
   id="metadata6">
  <rdf:RDF>
    <cc:Work
       rdf:about="">
      <dc:creator>
        <cc:Agent>
          <dc:title>Jess Tipton</dc:title>
        </cc:Agent>
      </dc:creator>
      <cc:license
         rdf:resource="https://creativecommons.org/licenses/by-nc-nd/4.0/deed.en" />
      <dc:publisher>
        <cc:Agent>
          <dc:title>m0dw3rks.com</dc:title>
        </cc:Agent>
      </dc:publisher>
    </cc:Work>
  </rdf:RDF>
</metadata>
<metadata
   id="metadata2">
  <rdf:RDF>
    <cc:Work
       rdf:about="">
      <dc:creator>
        <cc:Agent>
          <dc:title>Jess Tipton</dc:title>
        </cc:Agent>
      </dc:creator>
      <cc:license
         rdf:resource="https://creativecommons.org/licenses/by-nc-nd/4.0/deed.en" />
      <dc:publisher>
        <cc:Agent>
          <dc:title>m0dw3rks.com</dc:title>
        </cc:Agent>
      </dc:publisher>
    </cc:Work>
  </rdf:RDF>
</metadata>
<metadata
   id="metadata3">
  <rdf:RDF>
    <cc:Work
       rdf:about="">
      <dc:creator>
        <cc:Agent>
          <dc:title>Jess Tipton</dc:title>
        </cc:Agent>
      </dc:creator>
      <cc:license
         rdf:resource="https://creativecommons.org/licenses/by-nc-nd/4.0/deed.en" />
      <dc:publisher>
        <cc:Agent>
          <dc:title>m0dw3rks.com</dc:title>
        </cc:Agent>
      </dc:publisher>
    </cc:Work>
  </rdf:RDF>
</metadata>
<metadata
   id="metadata4">
  <rdf:RDF>
    <cc:Work
       rdf:about="">
      <dc:creator>
        <cc:Agent>
          <dc:title>Jess Tipton</dc:title>
        </cc:Agent>
      </dc:creator>
      <cc:license
         rdf:resource="https://creativecommons.org/licenses/by-nc-nd/4.0/deed.en" />
      <dc:publisher>
        <cc:Agent>
          <dc:title>m0dw3rks.com</dc:title>
        </cc:Agent>
      </dc:publisher>
    </cc:Work>
  </rdf:RDF>
</metadata>
<metadata
   id="metadata5">
  <rdf:RDF>
    <cc:Work
       rdf:about="">
      <dc:creator>
        <cc:Agent>
          <dc:title>Jess Tipton</dc:title>
        </cc:Agent>
      </dc:creator>
      <cc:license
         rdf:resource="https://creativecommons.org/licenses/by-nc-nd/4.0/deed.en" />
      <dc:publisher>
        <cc:Agent>
          <dc:title>m0dw3rks.com</dc:title>
        </cc:Agent>
      </dc:publisher>
    </cc:Work>
  </rdf:RDF>
</metadata>
<metadata
   id="metadata7">
  <rdf:RDF>
    <cc:Work
       rdf:about="">
      <dc:creator>
        <cc:Agent>
          <dc:title>Jess Tipton</dc:title>
        </cc:Agent>
      </dc:creator>
      <cc:license
         rdf:resource="https://creativecommons.org/licenses/by-nc-nd/4.0/deed.en" />
      <dc:publisher>
        <cc:Agent>
          <dc:title>m0dw3rks.com</dc:title>
        </cc:Agent>
      </dc:publisher>
    </cc:Work>
  </rdf:RDF>
</metadata>
<metadata
   id="metadata8">
  <rdf:RDF>
    <cc:Work
       rdf:about="">
      <dc:creator>
        <cc:Agent>
          <dc:title>Jess Tipton</dc:title>
        </cc:Agent>
      </dc:creator>
      <cc:license
         rdf:resource="https://creativecommons.org/licenses/by-nc-nd/4.0/deed.en" />
      <dc:publisher>
        <cc:Agent>
          <dc:title>m0dw3rks.com</dc:title>
        </cc:Agent>
      </dc:publisher>
    </cc:Work>
  </rdf:RDF>
</metadata>
<metadata
   id="metadata9">
  <rdf:RDF>
    <cc:Work
       rdf:about="">
      <dc:creator>
        <cc:Agent>
          <dc:title>Jess Tipton</dc:title>
        </cc:Agent>
      </dc:creator>
      <cc:license
         rdf:resource="https://creativecommons.org/licenses/by-nc-nd/4.0/deed.en" />
      <dc:publisher>
        <cc:Agent>
          <dc:title>m0dw3rks.com</dc:title>
        </cc:Agent>
      </dc:publisher>
    </cc:Work>
  </rdf:RDF>
</metadata>
<metadata
   id="metadata10">
  <rdf:RDF>
    <cc:Work
       rdf:about="">
      <dc:creator>
        <cc:Agent>
          <dc:title>Jess Tipton</dc:title>
        </cc:Agent>
      </dc:creator>
      <cc:license
         rdf:resource="https://creativecommons.org/licenses/by-nc-nd/4.0/deed.en" />
      <dc:publisher>
        <cc:Agent>
          <dc:title>m0dw3rks.com</dc:title>
        </cc:Agent>
      </dc:publisher>
    </cc:Work>
  </rdf:RDF>
</metadata>
<metadata
   id="metadata11">
  <rdf:RDF>
    <cc:Work
       rdf:about="">
      <dc:creator>
        <cc:Agent>
          <dc:title>Jess Tipton</dc:title>
        </cc:Agent>
      </dc:creator>
      <cc:license
         rdf:resource="https://creativecommons.org/licenses/by-nc-nd/4.0/deed.en" />
      <dc:publisher>
        <cc:Agent>
          <dc:title>m0dw3rks.com</dc:title>
        </cc:Agent>
      </dc:publisher>
    </cc:Work>
  </rdf:RDF>
</metadata>
<metadata
   id="metadata12">
  <rdf:RDF>
    <cc:Work
       rdf:about="">
      <dc:creator>
        <cc:Agent>
          <dc:title>Jess Tipton</dc:title>
        </cc:Agent>
      </dc:creator>
      <cc:license
         rdf:resource="https://creativecommons.org/licenses/by-nc-nd/4.0/deed.en" />
      <dc:publisher>
        <cc:Agent>
          <dc:title>m0dw3rks.com</dc:title>
        </cc:Agent>
      </dc:publisher>
    </cc:Work>
  </rdf:RDF>
</metadata>
<metadata
   id="metadata13">
  <rdf:RDF>
    <cc:Work
       rdf:about="">
      <dc:creator>
        <cc:Agent>
          <dc:title>Jess Tipton</dc:title>
        </cc:Agent>
      </dc:creator>
      <cc:license
         rdf:resource="https://creativecommons.org/licenses/by-nc-nd/4.0/deed.en" />
      <dc:publisher>
        <cc:Agent>
          <dc:title>m0dw3rks.com</dc:title>
        </cc:Agent>
      </dc:publisher>
    </cc:Work>
  </rdf:RDF>
</metadata>
<metadata
   id="metadata14">
  <rdf:RDF>
    <cc:Work
       rdf:about="">
      <dc:creator>
        <cc:Agent>
          <dc:title>Jess Tipton</dc:title>
        </cc:Agent>
      </dc:creator>
      <cc:license
         rdf:resource="https://creativecommons.org/licenses/by-nc-nd/4.0/deed.en" />
      <dc:publisher>
        <cc:Agent>
          <dc:title>m0dw3rks.com</dc:title>
        </cc:Agent>
      </dc:publisher>
    </cc:Work>
  </rdf:RDF>
</metadata>
<metadata
   id="metadata15">
  <rdf:RDF>
    <cc:Work
       rdf:about="">
      <dc:creator>
        <cc:Agent>
          <dc:title>Jess Tipton</dc:title>
        </cc:Agent>
      </dc:creator>
      <cc:license
         rdf:resource="https://creativecommons.org/licenses/by-nc-nd/4.0/deed.en" />
      <dc:publisher>
        <cc:Agent>
          <dc:title>m0dw3rks.com</dc:title>
        </cc:Agent>
      </dc:publisher>
    </cc:Work>
  </rdf:RDF>
</metadata>
<metadata
   id="metadata16">
  <rdf:RDF>
    <cc:Work
       rdf:about="">
      <dc:creator>
        <cc:Agent>
          <dc:title>Jess Tipton</dc:title>
        </cc:Agent>
      </dc:creator>
      <cc:license
         rdf:resource="https://creativecommons.org/licenses/by-nc-nd/4.0/deed.en" />
      <dc:publisher>
        <cc:Agent>
          <dc:title>m0dw3rks.com</dc:title>
        </cc:Agent>
      </dc:publisher>
    </cc:Work>
  </rdf:RDF>
</metadata>
<metadata
   id="metadata17">
  <rdf:RDF>
    <cc:Work
       rdf:about="">
      <dc:creator>
        <cc:Agent>
          <dc:title>Jess Tipton</dc:title>
        </cc:Agent>
      </dc:creator>
      <cc:license
         rdf:resource="https://creativecommons.org/licenses/by-nc-nd/4.0/deed.en" />
      <dc:publisher>
        <cc:Agent>
          <dc:title>m0dw3rks.com</dc:title>
        </cc:Agent>
      </dc:publisher>
    </cc:Work>
  </rdf:RDF>
</metadata>
<metadata
   id="metadata18">
  <rdf:RDF>
    <cc:Work
       rdf:about="">
      <dc:creator>
        <cc:Agent>
          <dc:title>Jess Tipton</dc:title>
        </cc:Agent>
      </dc:creator>
      <cc:license
         rdf:resource="https://creativecommons.org/licenses/by-nc-nd/4.0/deed.en" />
      <dc:publisher>
        <cc:Agent>
          <dc:title>m0dw3rks.com</dc:title>
        </cc:Agent>
      </dc:publisher>
    </cc:Work>
  </rdf:RDF>
</metadata>
</svg>
