<?xml version="1.0" encoding="UTF-8" standalone="no"?>
<!-- Created with Inkscape (http://www.inkscape.org/) -->

<svg
   width="512"
   height="512"
   viewBox="0 0 135.46666 135.46667"
   version="1.1"
   id="svg5"
   inkscape:version="1.3.2 (091e20ef0f, 2023-11-25, custom)"
   sodipodi:docname="com.leinardi.gwe-symbolic.svg"
   xmlns:inkscape="http://www.inkscape.org/namespaces/inkscape"
   xmlns:sodipodi="http://sodipodi.sourceforge.net/DTD/sodipodi-0.dtd"
   xmlns:xlink="http://www.w3.org/1999/xlink"
   xmlns="http://www.w3.org/2000/svg"
   xmlns:svg="http://www.w3.org/2000/svg"
   xmlns:rdf="http://www.w3.org/1999/02/22-rdf-syntax-ns#"
   xmlns:cc="http://creativecommons.org/ns#"
   xmlns:dc="http://purl.org/dc/elements/1.1/">&gt;
  <sodipodi:namedview
   id="namedview7"
   pagecolor="#505050"
   bordercolor="#ffffff"
   borderopacity="1"
   inkscape:showpageshadow="0"
   inkscape:pageopacity="0"
   inkscape:pagecheckerboard="1"
   inkscape:deskcolor="#505050"
   inkscape:document-units="mm"
   showgrid="false"
   inkscape:zoom="0.5607136"
   inkscape:cx="259.49076"
   inkscape:cy="194.39514"
   inkscape:window-width="3256"
   inkscape:window-height="1080"
   inkscape:window-x="1864"
   inkscape:window-y="0"
   inkscape:window-maximized="0"
   inkscape:current-layer="g22" />
<defs
   id="defs2">
  <linearGradient
     id="linearGradient7"
     inkscape:collect="always">
    <stop
       style="stop-color:#5d8f00;stop-opacity:1;"
       offset="0"
       id="stop8" />
    <stop
       style="stop-color:#77b900;stop-opacity:1;"
       offset="0.49741024"
       id="stop7" />
    <stop
       style="stop-color:#88d600;stop-opacity:1;"
       offset="1"
       id="stop9" />
  </linearGradient>
  <linearGradient
     id="linearGradient5"
     inkscape:collect="always">
    <stop
       style="stop-color:#ffffff;stop-opacity:1;"
       offset="0"
       id="stop5" />
    <stop
       style="stop-color:#ffffff;stop-opacity:0;"
       offset="1"
       id="stop6" />
  </linearGradient>
  <linearGradient
     id="linearGradient4"
     inkscape:collect="always">
    <stop
       style="stop-color:#000000;stop-opacity:1;"
       offset="0"
       id="stop3" />
    <stop
       style="stop-color:#000000;stop-opacity:0;"
       offset="1"
       id="stop4" />
  </linearGradient>
  <clipPath
     clipPathUnits="userSpaceOnUse"
     id="clipPath26339">
    <path
       style="color:#000000;fill:#00ff00;stroke-width:2;stroke-linecap:round;stroke-linejoin:round;-inkscape-stroke:none;paint-order:stroke fill markers"
       d="m 208.09421,-6.4984371 c -37.40796,0 -67.73333,24.4989281 -67.73333,54.7196571 0,1.48295 0.0231,2.884294 0.0646,4.224033 -0.0336,0.57585 -0.0552,1.15234 -0.0646,1.729089 0.74705,0.53508 1.47803,1.045861 2.2009,1.544609 -0.72293,-0.49879 -1.45378,-1.009489 -2.2009,-1.544609 0,30.22073 30.32535,54.719658 67.73333,54.719658 37.40796,0 67.73333,-24.498928 67.73333,-54.719658 0,-1.482942 -0.023,-2.884286 -0.0646,-4.224028 0.0336,-0.575849 0.0552,-1.152345 0.0646,-1.729094 -0.74229,-0.531662 -1.46801,-1.038468 -2.18641,-1.534274 0.71832,0.495763 1.44418,1.002665 2.18641,1.534274 0,-30.220729 -30.32535,-54.7196571 -67.73333,-54.7196571 z M 234.63109,7.024769 c -0.41684,0 -0.82827,0.0067 -1.2361,0.016539 0.408,-0.0099 0.81908,-0.016539 1.2361,-0.016539 z m -1.53789,0.025839 c -0.29754,0.009 -0.59245,0.020399 -0.88521,0.03462 0.29259,-0.014221 0.58785,-0.025609 0.88521,-0.03462 z m -1.28002,0.05529 c -0.28351,0.01614 -0.56483,0.03533 -0.84388,0.05633 0.27922,-0.021011 0.56019,-0.04018 0.84388,-0.05633 z m -1.15962,0.07958 c -0.37977,0.03123 -0.75604,0.0658 -1.12758,0.1059371 0.37132,-0.04011 0.74805,-0.07472 1.12758,-0.1059371 z m -1.20975,0.115756 c -0.34936,0.03842 -0.69444,0.08148 -1.03663,0.1276401 0.34211,-0.04614 0.68736,-0.08923 1.03663,-0.1276401 z m -1.3627,0.174149 c -0.26013,0.03719 -0.51863,0.0762 -0.77463,0.117823 0.25612,-0.04165 0.51438,-0.08061 0.77463,-0.117823 z m -1.12707,0.176734 c -0.24824,0.04264 -0.49407,0.08758 -0.73845,0.1343581 0.24427,-0.04676 0.49032,-0.09174 0.73845,-0.1343581 z m -1.07177,0.19792 c -0.34562,0.06929 -0.68835,0.142135 -1.02629,0.2196251 0.3381,-0.07753 0.6805,-0.1503072 1.02629,-0.2196251 z m -1.05936,0.2273771 c -0.31649,0.07288 -0.6286,0.150028 -0.93845,0.22996 0.30975,-0.0799 0.62207,-0.157107 0.93845,-0.22996 z m -1.3007,0.3265948 c -0.21635,0.0582 -0.43128,0.1182222 -0.6444,0.1798341 0.21311,-0.06161 0.42806,-0.1216369 0.6444,-0.1798341 z m -0.99115,0.2811201 c -0.2227,0.06684 -0.44331,0.1361651 -0.6625,0.2067049 0.21924,-0.07056 0.43975,-0.1398508 0.6625,-0.2067049 z m -0.95343,0.2997231 c -0.31021,0.1028428 -0.61714,0.2091968 -0.92036,0.3193598 0.3032,-0.1101558 0.61017,-0.2165228 0.92036,-0.3193598 z m -1.07694,0.3782709 c -0.24719,0.09119 -0.49224,0.1846299 -0.73484,0.280603 0.2426,-0.09597 0.48765,-0.1894131 0.73484,-0.280603 z m -1.07539,0.418579 c -0.18958,0.07742 -0.37803,0.1563669 -0.56482,0.236678 0.18681,-0.08032 0.37521,-0.1592501 0.56482,-0.236678 z m -0.88315,0.374655 c -0.22069,0.09764 -0.43896,0.197564 -0.65577,0.299206 0.21678,-0.101628 0.43511,-0.201581 0.65577,-0.299206 z m -0.84749,0.38809 c -0.28129,0.134078 -0.55975,0.271158 -0.83457,0.411861 0.27487,-0.140728 0.55323,-0.27776 0.83457,-0.411861 z m -2.096,1.096573 c -0.0885,0.05033 -0.17678,0.100908 -0.26458,0.151929 0.0878,-0.05102 0.17609,-0.101601 0.26458,-0.151929 z m -1.46089,0.879017 c -0.0461,0.02949 -0.091,0.06023 -0.13694,0.08992 0.0459,-0.0297 0.0908,-0.06041 0.13694,-0.08992 z m -1.18907,0.799951 c -0.0786,0.0552 -0.15813,0.109578 -0.23617,0.165364 0.0781,-0.05579 0.15752,-0.110156 0.23617,-0.165364 z m -1.31362,0.968416 c -0.0781,0.06066 -0.15501,0.122708 -0.23254,0.183968 0.0776,-0.06127 0.15437,-0.123291 0.23254,-0.183968 z m -1.23197,1.002006 c -0.0254,0.02163 -0.0517,0.04238 -0.077,0.06408 0.0253,-0.02169 0.0516,-0.04245 0.077,-0.06408 z m -1.09657,0.974101 c -0.0775,0.07155 -0.15469,0.143326 -0.23151,0.215491 0.0768,-0.07217 0.15404,-0.143937 0.23151,-0.215491 z m -1.19011,1.145666 c -0.0421,0.04245 -0.0831,0.08603 -0.12505,0.128675 0.042,-0.04265 0.0829,-0.08621 0.12505,-0.128675 z m -0.971,1.015959 c -0.0662,0.07151 -0.13278,0.142489 -0.19843,0.214457 0.0656,-0.07196 0.13228,-0.142965 0.19843,-0.214457 z m -1.03766,1.163754 c -0.38617,0.449438 -0.76454,0.906209 -1.13326,1.370976 0.3688,-0.464875 0.747,-0.921437 1.13326,-1.370976 z m -1.29243,1.577682 c -0.30936,0.394371 -0.61281,0.793618 -0.91054,1.197859 0.29768,-0.404165 0.60124,-0.803561 0.91054,-1.197859 z m -1.26349,1.686202 c -0.23089,0.321198 -0.45896,0.644874 -0.68316,0.971517 0.22424,-0.326706 0.45222,-0.650258 0.68316,-0.971517 z m -1.04541,1.503784 c -0.24267,0.362203 -0.48106,0.727548 -0.71624,1.09554 0.23518,-0.367986 0.47357,-0.733344 0.71624,-1.09554 z m -0.9648,1.48208 c -0.31442,0.499898 -0.6231,1.004654 -0.92501,1.513603 0.30195,-0.509029 0.61054,-1.013629 0.92501,-1.513603 z m -1.12293,1.855183 c -0.23896,0.407861 -0.47521,0.817232 -0.70693,1.2299 0.23168,-0.412586 0.46801,-0.822119 0.70693,-1.2299 z m -0.99167,1.743565 c -0.20084,0.363677 -0.3995,0.728874 -0.59531,1.095539 0.19588,-0.366784 0.3944,-0.731743 0.59531,-1.095539 z m -0.8661,1.604036 c -0.21134,0.401579 -0.41929,0.804923 -0.62528,1.209228 0.20598,-0.404289 0.41395,-0.807664 0.62528,-1.209228 z m -0.8387,1.62574 c -0.26118,0.517983 -0.51799,1.037585 -0.77153,1.55856 0.25357,-0.521036 0.51032,-1.040516 0.77153,-1.55856 z m 75.07604,0.08733 c 0.17033,0.351509 0.33379,0.723249 0.4904,1.115695 0.15661,0.392448 0.30644,0.805966 0.44908,1.24075 -0.14264,-0.434784 -0.29247,-0.848302 -0.44908,-1.24075 -0.15661,-0.392446 -0.32007,-0.764186 -0.4904,-1.115695 z m -26.001,2.354897 c 0.0772,0.0016 0.15578,0.0048 0.23357,0.0072 -0.0778,-0.0024 -0.15632,-0.0057 -0.23357,-0.0072 z m -1.49397,0.02739 c -0.0781,0.0045 -0.15505,0.01103 -0.23254,0.01654 0.0775,-0.0055 0.15444,-0.01199 0.23254,-0.01654 z m 2.26291,0.0026 c 0.1011,0.0057 0.20286,0.01243 0.30489,0.01963 -0.1021,-0.0072 -0.20371,-0.01389 -0.30489,-0.01963 z m -2.98483,0.05529 c -0.0851,0.0084 -0.16986,0.01728 -0.25425,0.02687 0.0844,-0.0096 0.16917,-0.01844 0.25425,-0.02687 z m 3.80649,0.0078 c 0.0949,0.0089 0.1895,0.01717 0.28525,0.02739 -0.0957,-0.01021 -0.19036,-0.01847 -0.28525,-0.02739 z m -4.54598,0.08165 c -0.0734,0.01048 -0.14734,0.02013 -0.22014,0.03152 0.0728,-0.0114 0.14677,-0.02103 0.22014,-0.03152 z m 5.51904,0.02946 c 0.0416,0.0057 0.0823,0.01013 0.12403,0.01603 -0.0417,-0.0059 -0.0824,-0.01037 -0.12403,-0.01603 z m -6.40787,0.119888 c -0.025,0.005 -0.0495,0.01093 -0.0744,0.01601 0.025,-0.0051 0.0494,-0.01103 0.0744,-0.01601 z m 7.35769,0.02687 c 0.10314,0.01796 0.2081,0.03903 0.31212,0.05839 -0.10399,-0.01937 -0.20902,-0.04044 -0.31212,-0.05839 z m -8.02845,0.122989 c -0.0699,0.01707 -0.13888,0.03528 -0.20826,0.05323 0.0693,-0.01794 0.13839,-0.03617 0.20826,-0.05323 z m 8.89971,0.04444 c 0.11283,0.02339 0.22668,0.04837 0.34055,0.07338 -0.11383,-0.025 -0.22775,-0.05 -0.34055,-0.07338 z m -9.53482,0.125574 c -0.0859,0.02484 -0.1717,0.05028 -0.25683,0.07648 0.0852,-0.02622 0.17085,-0.05163 0.25683,-0.07648 z m 10.42882,0.07493 c 0.11134,0.02665 0.22256,0.05294 0.33487,0.08113 -0.11225,-0.02817 -0.2236,-0.0545 -0.33487,-0.08113 z m -11.10113,0.136427 c -0.0677,0.02294 -0.13593,0.04441 -0.20309,0.06821 0.0671,-0.02379 0.13547,-0.04529 0.20309,-0.06821 z m 12.12433,0.12609 c 0.0714,0.01955 0.14167,0.03771 0.21342,0.05788 -0.0717,-0.02016 -0.14209,-0.03833 -0.21342,-0.05788 z m 0.43511,0.122989 c 0.43857,0.126397 0.88522,0.26566 1.33842,0.414962 -0.45339,-0.14936 -0.89967,-0.288526 -1.33842,-0.414962 z m -13.36559,0.04651 c -0.0363,0.01461 -0.0718,0.03061 -0.108,0.04548 0.0362,-0.01487 0.0716,-0.03086 0.108,-0.04548 z m -0.59945,0.257347 c -0.0687,0.03105 -0.13651,0.0636 -0.20464,0.0956 0.0681,-0.03201 0.13594,-0.06454 0.20464,-0.0956 z m -43.79112,0.177768 c -0.0986,0.211844 -0.19685,0.423757 -0.29456,0.635619 0.0978,-0.212129 0.19584,-0.423508 0.29456,-0.635619 z m 59.37363,0.02429 c 0.49225,0.166222 0.99395,0.346924 1.50379,0.540536 -0.50989,-0.19363 -1.01149,-0.374301 -1.50379,-0.540536 z m -16.09875,0.04496 c -0.29648,0.147346 -0.58872,0.301992 -0.87489,0.467156 0.28606,-0.165103 0.57853,-0.319858 0.87489,-0.467156 z m -0.98806,0.534852 c -0.26432,0.155427 -0.5239,0.31867 -0.7798,0.488858 0.25582,-0.170135 0.51556,-0.333473 0.7798,-0.488858 z m 18.90479,0.08217 c 0.53056,0.205907 1.06698,0.421873 1.61696,0.657842 0.55009,0.236021 1.11357,0.492331 1.68362,0.759124 -0.57007,-0.266798 -1.13351,-0.5231 -1.68362,-0.759124 -0.54993,-0.235945 -1.08644,-0.451956 -1.61696,-0.657842 z M 237.14412,37.8829 c -0.27048,0.183782 -0.53641,0.375888 -0.79789,0.575675 0.26161,-0.199896 0.52727,-0.391803 0.79789,-0.575675 z m -0.9772,0.716235 c -0.25228,0.19776 -0.50193,0.400677 -0.74621,0.612883 0.24421,-0.212151 0.494,-0.415173 0.74621,-0.612883 z m -41.28482,0.05374 c -0.35924,0.791461 -0.71687,1.582335 -1.06764,2.368846 0.35128,-0.787664 0.70787,-1.576215 1.06764,-2.368846 z m 65.72209,0.303339 c 0.56061,0.266515 1.13024,0.547225 1.71048,0.843876 -0.5802,-0.296622 -1.14991,-0.577387 -1.71048,-0.843876 z m -25.22224,0.288872 c -0.25616,0.22369 -0.50663,0.457619 -0.75447,0.696598 0.24788,-0.239024 0.49826,-0.472871 0.75447,-0.696598 z m 27.22418,0.706417 c 0.56458,0.291909 1.13786,0.596439 1.72134,0.917257 -0.58376,-0.320974 -1.1565,-0.625218 -1.72134,-0.917257 z m -28.14867,0.155546 c -0.2433,0.239736 -0.4836,0.484523 -0.71934,0.738457 0.23567,-0.253857 0.47612,-0.49879 0.71934,-0.738457 z m -0.78755,0.813903 c -0.18182,0.197493 -0.35986,0.402603 -0.53743,0.608232 0.17758,-0.205642 0.3556,-0.410726 0.53743,-0.608232 z m 30.81311,0.03256 c 0.61628,0.340606 1.2453,0.700963 1.8831,1.074354 -0.63772,-0.373336 -1.26693,-0.733793 -1.8831,-1.074354 z m 2.25153,1.290878 c 0.63511,0.37569 1.2785,0.763966 1.9353,1.172538 -0.65646,-0.408358 -1.30048,-0.797028 -1.9353,-1.172538 z m -34.23201,0.04341 c -0.086,0.106987 -0.17337,0.211013 -0.25838,0.319876 0.085,-0.108828 0.17245,-0.212923 0.25838,-0.319876 z m -39.65443,0.900721 c -0.26238,0.59014 -0.52706,1.184077 -0.78806,1.766816 0.26182,-0.584562 0.52485,-1.174808 0.78806,-1.766816 z m 76.08992,0.397907 c 0.61053,0.382233 1.23132,0.779608 1.86087,1.190625 -0.62974,-0.411144 -1.25016,-0.808281 -1.86087,-1.190625 z m -37.53826,0.150379 c -0.0462,0.06472 -0.091,0.132654 -0.13695,0.197921 0.0459,-0.06526 0.0908,-0.13321 0.13695,-0.197921 z m -0.82321,1.207161 c -0.0917,0.139536 -0.18213,0.28207 -0.27285,0.423746 0.0907,-0.14165 0.18117,-0.284239 0.27285,-0.423746 z m 40.5541,0.04909 c 0.67493,0.44373 1.36168,0.905163 2.0588,1.382342 -0.69691,-0.477041 -1.38406,-0.938731 -2.0588,-1.382342 z m -41.3618,1.229315 c -0.0919,0.150662 -0.18398,0.301461 -0.27492,0.454237 0.091,-0.152805 0.18303,-0.303546 0.27492,-0.454237 z m -0.83561,1.420585 c -0.0694,0.122171 -0.13984,0.242009 -0.20877,0.365355 0.0689,-0.123322 0.13938,-0.243205 0.20877,-0.365355 z m -38.2943,0.434599 c -0.35316,0.760193 -0.70908,1.507387 -1.06764,2.243791 0.35872,-0.736716 0.71433,-1.483267 1.06764,-2.243791 z m 37.34965,1.283126 c -0.0574,0.108392 -0.11343,0.220028 -0.17053,0.329179 0.0571,-0.10917 0.11316,-0.220766 0.17053,-0.329179 z m -0.74207,1.439191 c -0.0836,0.165801 -0.16644,0.333441 -0.2496,0.500742 0.0831,-0.167182 0.16603,-0.335058 0.2496,-0.500742 z m -38.05194,0.288869 c -0.086,0.173133 -0.17184,0.346789 -0.25838,0.518316 0.0865,-0.171503 0.17235,-0.345207 0.25838,-0.518316 z m 37.42769,0.975135 c -0.3605,0.740185 -0.71829,1.490922 -1.07332,2.255163 0.35495,-0.764072 0.7129,-1.515134 1.07332,-2.255163 z m -38.29172,0.720371 c -0.0402,0.07667 -0.0801,0.155217 -0.12041,0.23151 0.0404,-0.07634 0.0802,-0.154794 0.12041,-0.23151 z m -0.86196,1.59577 c -0.0737,0.131861 -0.14904,0.260152 -0.22324,0.390671 0.0742,-0.13058 0.14954,-0.25876 0.22324,-0.390671 z m -0.7767,1.343581 c -0.0878,0.147471 -0.17644,0.29324 -0.2651,0.43874 0.0887,-0.145539 0.17727,-0.291229 0.2651,-0.43874 z m -43.70586,0.28784 c 0.70092,0.479899 1.39116,0.943999 2.06964,1.3901 -0.67842,-0.446061 -1.36878,-0.910241 -2.06964,-1.3901 z m 42.90023,1.015439 c -0.0923,0.14423 -0.18414,0.289492 -0.27751,0.431501 0.0934,-0.142049 0.18513,-0.287221 0.27751,-0.431501 z m 38.26639,0.360191 c -0.28451,0.634989 -0.57009,1.276019 -0.85628,1.91978 0.28541,-0.642001 0.57254,-1.28651 0.85628,-1.91978 z m -78.75333,0.238231 c 0.62538,0.408199 1.24188,0.803079 1.84847,1.18287 -0.60648,-0.37973 -1.22321,-0.77475 -1.84847,-1.18287 z m 39.54901,0.802529 c -0.055,0.07838 -0.10842,0.16012 -0.16382,0.237709 0.0554,-0.07759 0.1088,-0.159329 0.16382,-0.237709 z m -37.42873,0.551389 c 0.65294,0.406172 1.29292,0.79267 1.92444,1.166341 -0.63168,-0.373769 -1.27132,-0.76006 -1.92444,-1.166341 z m 36.41897,0.817001 c -0.0796,0.10191 -0.16139,0.19947 -0.24185,0.299731 0.0805,-0.100251 0.16223,-0.197832 0.24185,-0.299731 z M 149.828,60.371956 c 0.63252,0.370239 1.25676,0.72758 1.8681,1.065569 -0.61129,-0.337971 -1.23563,-0.695359 -1.8681,-1.065569 z m 33.22588,0.497639 c -0.17566,0.203369 -0.35142,0.406111 -0.53123,0.601519 0.17979,-0.195379 0.35559,-0.398179 0.53123,-0.601519 z m 39.29734,0.556561 c -0.33121,0.74249 -0.6674,1.485479 -1.00614,2.232419 0.33821,-0.745791 0.67544,-1.491059 1.00614,-2.232419 z m -70.47063,0.11162 c 0.58309,0.320389 1.15611,0.625229 1.72031,0.916739 -0.56435,-0.291579 -1.13706,-0.59626 -1.72031,-0.916739 z m 30.56971,0.01344 c -0.23734,0.255648 -0.4795,0.502377 -0.7245,0.74363 0.245,-0.241253 0.48716,-0.487982 0.7245,-0.74363 z m -0.88522,0.900208 c -0.24904,0.240252 -0.50116,0.47489 -0.75861,0.699701 0.25745,-0.224811 0.50957,-0.459449 0.75861,-0.699701 z m -27.70063,0.140041 c 0.58388,0.298619 1.15681,0.580408 1.72082,0.848529 -0.56384,-0.268039 -1.13712,-0.55 -1.72082,-0.848529 z m 26.90585,0.59015 c -0.25219,0.219149 -0.50927,0.429289 -0.76998,0.633029 0.26073,-0.203761 0.51777,-0.413858 0.76998,-0.633029 z m -24.85223,0.41496 c 0.57006,0.2668 1.1335,0.523099 1.68362,0.759118 0.55359,0.237522 1.09439,0.454401 1.62832,0.661461 -0.53401,-0.207089 -1.07464,-0.423889 -1.62832,-0.661461 -0.5501,-0.236019 -1.11357,-0.492328 -1.68362,-0.759118 z m 23.93859,0.33021 c -0.26451,0.20252 -0.53345,0.397298 -0.80719,0.58343 0.27378,-0.186161 0.54264,-0.380881 0.80719,-0.58343 z m -0.96273,0.68575 c -0.2525,0.16769 -0.50876,0.328811 -0.76947,0.48214 0.26067,-0.153311 0.517,-0.314482 0.76947,-0.48214 z m 41.78504,0.508489 c -0.0862,0.186809 -0.17301,0.372862 -0.25993,0.55966 0.0868,-0.186629 0.17379,-0.37302 0.25993,-0.55966 z m -61.1482,0.01241 c 0.50975,0.19362 1.01058,0.37482 1.50275,0.54106 -0.49195,-0.166179 -0.99323,-0.34753 -1.50275,-0.54106 z m 18.47949,0.02998 c -0.28792,0.166169 -0.58169,0.322109 -0.88005,0.47025 0.29834,-0.14813 0.59215,-0.304091 0.88005,-0.47025 z m -16.69045,0.60461 c 0.45544,0.149979 0.90447,0.289669 1.34513,0.41651 -0.44077,-0.126881 -0.88958,-0.26648 -1.34513,-0.41651 z m 15.5174,0.0078 c -0.0743,0.03498 -0.14829,0.07054 -0.22325,0.104389 0.075,-0.03385 0.14895,-0.06941 0.22325,-0.104389 z m -13.96866,0.46871 c 0.0914,0.02569 0.18109,0.04866 0.27182,0.07338 -0.0908,-0.02474 -0.1804,-0.04766 -0.27182,-0.07338 z m 12.55582,0.11472 c -0.0711,0.02524 -0.14329,0.04859 -0.21497,0.07286 0.0716,-0.02424 0.14392,-0.04764 0.21497,-0.07286 z m -11.67215,0.119888 c 0.1263,0.03181 0.25113,0.06211 0.3762,0.09198 -0.12499,-0.02985 -0.24999,-0.06019 -0.3762,-0.09198 z m 11.02826,0.09198 c -0.0725,0.02223 -0.14549,0.04336 -0.21859,0.0646 0.0731,-0.02125 0.14608,-0.04237 0.21859,-0.0646 z m -10.11463,0.122989 c 0.11248,0.02471 0.22495,0.04975 0.33642,0.07287 -0.11146,-0.02312 -0.22396,-0.04816 -0.33642,-0.07287 z m 9.45886,0.0615 c -0.0779,0.02021 -0.15548,0.04135 -0.2341,0.06046 0.0786,-0.0191 0.15614,-0.04024 0.2341,-0.06046 z M 165.626,66.8879 c 0.0772,0.01418 0.15534,0.02999 0.23203,0.04341 -0.0767,-0.01342 -0.15488,-0.02922 -0.23203,-0.04341 z m 7.70031,0.05426 c -0.0304,0.0062 -0.06,0.01357 -0.0904,0.01963 0.0305,-0.0061 0.0601,-0.01341 0.0904,-0.01963 z m -6.63577,0.121441 c 0.0655,0.0093 0.12964,0.01611 0.19482,0.02479 -0.0652,-0.0087 -0.12926,-0.01553 -0.19482,-0.02479 z m 5.87612,0.01603 c -0.0778,0.01217 -0.15672,0.02244 -0.23512,0.03359 0.0784,-0.01114 0.15736,-0.02143 0.23512,-0.03359 z m -5.05395,0.08527 c 0.1008,0.01077 0.20032,0.01958 0.30024,0.02893 -0.0999,-0.0093 -0.19942,-0.01818 -0.30024,-0.02893 z m 4.36459,0.0067 c -0.0917,0.01053 -0.18389,0.02032 -0.27647,0.02946 0.0926,-0.0091 0.18475,-0.01894 0.27647,-0.02946 z m -3.5543,0.0646 c 0.0956,0.0067 0.19097,0.01318 0.28577,0.0186 -0.0948,-0.0054 -0.19018,-0.01185 -0.28577,-0.0186 z m 2.79259,0.0057 c -0.0763,0.0054 -0.15208,0.01154 -0.22893,0.01601 0.0769,-0.0045 0.15264,-0.01061 0.22893,-0.01601 z m -1.95027,0.03669 c 0.0754,0.0024 0.15148,0.0058 0.22634,0.0072 -0.0749,-0.0016 -0.15092,-0.0049 -0.22634,-0.0072 z m 1.08779,0.0052 c -0.069,0.0016 -0.13828,0.0027 -0.20774,0.0036 0.0354,-5.29e-4 0.0717,7.94e-4 0.10697,0 0.0339,-5.29e-4 0.067,-0.0028 0.10077,-0.0036 z m -27.80244,5.29e-4 c 0.14263,0.434779 0.29246,0.848299 0.44907,1.24075 0.15661,0.392449 0.32008,0.76367 0.49041,1.115179 -0.17033,-0.351509 -0.3338,-0.72273 -0.49041,-1.115179 -0.15661,-0.392451 -0.30644,-0.805971 -0.44907,-1.24075 z m 76.78756,0.885209 c -0.25798,0.53009 -0.51959,1.05846 -0.78548,1.585441 0.26584,-0.526881 0.52756,-1.055449 0.78548,-1.585441 z m -0.95239,1.911 c -0.21803,0.42862 -0.43898,0.856001 -0.66301,1.281571 0.22405,-0.42562 0.44496,-0.852901 0.66301,-1.281571 z m -0.91829,1.761652 c -0.19768,0.370358 -0.39769,0.739068 -0.60048,1.106389 0.20275,-0.367249 0.40284,-0.7361 0.60048,-1.106389 z m -0.90072,1.646928 c -0.22584,0.401942 -0.45614,0.800991 -0.68885,1.198372 0.23273,-0.397412 0.46299,-0.796391 0.68885,-1.198372 z m -0.89504,1.55339 c -0.30393,0.512371 -0.61459,1.02023 -0.93121,1.52342 0.31663,-0.503219 0.62726,-1.01102 0.93121,-1.52342 z m -1.15548,1.87275 c -0.24226,0.37951 -0.48773,0.75629 -0.73794,1.129651 0.25015,-0.373271 0.49574,-0.750231 0.73794,-1.129651 z m -1.08883,1.644872 c -0.22543,0.328599 -0.45457,0.65409 -0.68678,0.977199 0.2322,-0.323102 0.46135,-0.6486 0.68678,-0.977199 z m -1.05161,1.482079 c -0.27461,0.372629 -0.55526,0.740061 -0.83974,1.104321 0.28448,-0.364271 0.56513,-0.731682 0.83974,-1.104321 z m -1.07435,1.40869 c -0.36406,0.458491 -0.73723,0.909341 -1.11828,1.352891 0.38112,-0.443622 0.75416,-0.894321 1.11828,-1.352891 z m -1.96939,2.315109 c -0.0577,0.0632 -0.11659,0.12527 -0.17467,0.1881 0.0581,-0.0628 0.11696,-0.124891 0.17467,-0.1881 z m -1.05834,1.11569 c -0.0315,0.0319 -0.0619,0.0648 -0.0935,0.0966 0.0316,-0.0318 0.0621,-0.0647 0.0935,-0.0966 z m -1.0728,1.046451 c -0.069,0.0647 -0.13826,0.12904 -0.20774,0.19327 0.0695,-0.0642 0.1388,-0.128561 0.20774,-0.19327 z m -1.23817,1.113628 c -0.025,0.02151 -0.0508,0.0422 -0.076,0.0636 0.0251,-0.02141 0.0509,-0.0421 0.076,-0.0636 z m -1.08055,0.885222 c -0.0761,0.0601 -0.1517,0.120798 -0.22841,0.180348 0.0767,-0.0596 0.15227,-0.120219 0.22841,-0.180348 z m -1.31723,0.991148 c -0.0684,0.0489 -0.13784,0.0968 -0.20671,0.145211 0.0689,-0.0484 0.13831,-0.0964 0.20671,-0.145211 z m -1.2945,0.87953 c -0.0382,0.02471 -0.0753,0.0504 -0.11369,0.0749 0.0383,-0.0245 0.0755,-0.0503 0.11369,-0.0749 z m -1.3162,0.805641 c -0.0878,0.051 -0.17608,0.1016 -0.26458,0.151929 0.0885,-0.0503 0.17678,-0.10091 0.26458,-0.151929 z m -1.51618,0.831469 c -0.27575,0.14129 -0.55491,0.278791 -0.83716,0.413411 0.28221,-0.134591 0.56145,-0.27214 0.83716,-0.413411 z m -1.05885,0.516252 c -0.20884,0.0977 -0.41906,0.193839 -0.63149,0.287838 0.21238,-0.094 0.42271,-0.190159 0.63149,-0.287838 z m -0.94568,0.424778 c -0.20158,0.0867 -0.40495,0.171421 -0.60978,0.254762 0.20483,-0.0833 0.4082,-0.16805 0.60978,-0.254762 z m -0.88419,0.36639 c -0.25793,0.10229 -0.51873,0.201811 -0.78186,0.29869 0.26311,-0.0969 0.52395,-0.19641 0.78186,-0.29869 z m -0.91777,0.34984 c -0.30334,0.11022 -0.61053,0.216482 -0.92087,0.31937 0.31036,-0.102899 0.6175,-0.20914 0.92087,-0.31937 z m -1.21543,0.413422 c -0.21566,0.0694 -0.43258,0.137289 -0.65164,0.203078 0.21909,-0.0658 0.43595,-0.133689 0.65164,-0.203078 z m -1.00717,0.307469 c -0.22554,0.0652 -0.45298,0.128289 -0.68213,0.189651 0.22909,-0.0613 0.45665,-0.124481 0.68213,-0.189651 z m -0.97824,0.268719 c -0.28615,0.074 -0.57531,0.14487 -0.86713,0.21291 0.2918,-0.068 0.581,-0.138869 0.86713,-0.21291 z m -1.01596,0.249082 c -0.33932,0.0776 -0.68335,0.150259 -1.03042,0.21962 0.34715,-0.0694 0.69102,-0.141971 1.03042,-0.21962 z m -1.28726,0.268718 c -0.26568,0.0512 -0.5333,0.10042 -0.80356,0.146762 0.2702,-0.0463 0.53793,-0.0955 0.80356,-0.146762 z m -1.14049,0.203081 c -0.2569,0.0418 -0.51617,0.081 -0.77722,0.11834 0.2611,-0.0373 0.52027,-0.0765 0.77722,-0.11834 z m -1.10795,0.16537 c -0.34105,0.046 -0.68535,0.0888 -1.03353,0.127119 0.34816,-0.0383 0.6925,-0.0811 1.03353,-0.127119 z m -1.11672,0.13694 c -0.37199,0.0402 -0.74891,0.0747 -1.12913,0.10594 0.38029,-0.0313 0.75707,-0.0657 1.12913,-0.10594 z m -1.43919,0.129189 c -0.28035,0.02109 -0.56264,0.0401 -0.8475,0.0563 0.28484,-0.01619 0.56717,-0.0352 0.8475,-0.0563 z m -1.24334,0.077 c -0.28117,0.01371 -0.56502,0.02421 -0.85059,0.0331 0.28561,-0.009 0.56938,-0.01939 0.85059,-0.0331 z m -1.20871,0.0444 c -0.40071,0.01 -0.80447,0.0155 -1.21388,0.0155 0.40935,0 0.81323,-0.006 1.21388,-0.0155 z"
       id="path26341" />
  </clipPath>
  <clipPath
     clipPathUnits="userSpaceOnUse"
     id="clipPath26339-9">
    <path
       style="color:#000000;fill:#00ff00;stroke-width:2;stroke-linecap:round;stroke-linejoin:round;-inkscape-stroke:none;paint-order:stroke fill markers"
       d="m 208.09421,-6.4984371 c -37.40796,0 -67.73333,24.4989281 -67.73333,54.7196571 0,1.48295 0.0231,2.884294 0.0646,4.224033 -0.0336,0.57585 -0.0552,1.15234 -0.0646,1.729089 0.74705,0.53508 1.47803,1.045861 2.2009,1.544609 -0.72293,-0.49879 -1.45378,-1.009489 -2.2009,-1.544609 0,30.22073 30.32535,54.719658 67.73333,54.719658 37.40796,0 67.73333,-24.498928 67.73333,-54.719658 0,-1.482942 -0.023,-2.884286 -0.0646,-4.224028 0.0336,-0.575849 0.0552,-1.152345 0.0646,-1.729094 -0.74229,-0.531662 -1.46801,-1.038468 -2.18641,-1.534274 0.71832,0.495763 1.44418,1.002665 2.18641,1.534274 0,-30.220729 -30.32535,-54.7196571 -67.73333,-54.7196571 z M 234.63109,7.024769 c -0.41684,0 -0.82827,0.0067 -1.2361,0.016539 0.408,-0.0099 0.81908,-0.016539 1.2361,-0.016539 z m -1.53789,0.025839 c -0.29754,0.009 -0.59245,0.020399 -0.88521,0.03462 0.29259,-0.014221 0.58785,-0.025609 0.88521,-0.03462 z m -1.28002,0.05529 c -0.28351,0.01614 -0.56483,0.03533 -0.84388,0.05633 0.27922,-0.021011 0.56019,-0.04018 0.84388,-0.05633 z m -1.15962,0.07958 c -0.37977,0.03123 -0.75604,0.0658 -1.12758,0.1059371 0.37132,-0.04011 0.74805,-0.07472 1.12758,-0.1059371 z m -1.20975,0.115756 c -0.34936,0.03842 -0.69444,0.08148 -1.03663,0.1276401 0.34211,-0.04614 0.68736,-0.08923 1.03663,-0.1276401 z m -1.3627,0.174149 c -0.26013,0.03719 -0.51863,0.0762 -0.77463,0.117823 0.25612,-0.04165 0.51438,-0.08061 0.77463,-0.117823 z m -1.12707,0.176734 c -0.24824,0.04264 -0.49407,0.08758 -0.73845,0.1343581 0.24427,-0.04676 0.49032,-0.09174 0.73845,-0.1343581 z m -1.07177,0.19792 c -0.34562,0.06929 -0.68835,0.142135 -1.02629,0.2196251 0.3381,-0.07753 0.6805,-0.1503072 1.02629,-0.2196251 z m -1.05936,0.2273771 c -0.31649,0.07288 -0.6286,0.150028 -0.93845,0.22996 0.30975,-0.0799 0.62207,-0.157107 0.93845,-0.22996 z m -1.3007,0.3265948 c -0.21635,0.0582 -0.43128,0.1182222 -0.6444,0.1798341 0.21311,-0.06161 0.42806,-0.1216369 0.6444,-0.1798341 z m -0.99115,0.2811201 c -0.2227,0.06684 -0.44331,0.1361651 -0.6625,0.2067049 0.21924,-0.07056 0.43975,-0.1398508 0.6625,-0.2067049 z m -0.95343,0.2997231 c -0.31021,0.1028428 -0.61714,0.2091968 -0.92036,0.3193598 0.3032,-0.1101558 0.61017,-0.2165228 0.92036,-0.3193598 z m -1.07694,0.3782709 c -0.24719,0.09119 -0.49224,0.1846299 -0.73484,0.280603 0.2426,-0.09597 0.48765,-0.1894131 0.73484,-0.280603 z m -1.07539,0.418579 c -0.18958,0.07742 -0.37803,0.1563669 -0.56482,0.236678 0.18681,-0.08032 0.37521,-0.1592501 0.56482,-0.236678 z m -0.88315,0.374655 c -0.22069,0.09764 -0.43896,0.197564 -0.65577,0.299206 0.21678,-0.101628 0.43511,-0.201581 0.65577,-0.299206 z m -0.84749,0.38809 c -0.28129,0.134078 -0.55975,0.271158 -0.83457,0.411861 0.27487,-0.140728 0.55323,-0.27776 0.83457,-0.411861 z m -2.096,1.096573 c -0.0885,0.05033 -0.17678,0.100908 -0.26458,0.151929 0.0878,-0.05102 0.17609,-0.101601 0.26458,-0.151929 z m -1.46089,0.879017 c -0.0461,0.02949 -0.091,0.06023 -0.13694,0.08992 0.0459,-0.0297 0.0908,-0.06041 0.13694,-0.08992 z m -1.18907,0.799951 c -0.0786,0.0552 -0.15813,0.109578 -0.23617,0.165364 0.0781,-0.05579 0.15752,-0.110156 0.23617,-0.165364 z m -1.31362,0.968416 c -0.0781,0.06066 -0.15501,0.122708 -0.23254,0.183968 0.0776,-0.06127 0.15437,-0.123291 0.23254,-0.183968 z m -1.23197,1.002006 c -0.0254,0.02163 -0.0517,0.04238 -0.077,0.06408 0.0253,-0.02169 0.0516,-0.04245 0.077,-0.06408 z m -1.09657,0.974101 c -0.0775,0.07155 -0.15469,0.143326 -0.23151,0.215491 0.0768,-0.07217 0.15404,-0.143937 0.23151,-0.215491 z m -1.19011,1.145666 c -0.0421,0.04245 -0.0831,0.08603 -0.12505,0.128675 0.042,-0.04265 0.0829,-0.08621 0.12505,-0.128675 z m -0.971,1.015959 c -0.0662,0.07151 -0.13278,0.142489 -0.19843,0.214457 0.0656,-0.07196 0.13228,-0.142965 0.19843,-0.214457 z m -1.03766,1.163754 c -0.38617,0.449438 -0.76454,0.906209 -1.13326,1.370976 0.3688,-0.464875 0.747,-0.921437 1.13326,-1.370976 z m -1.29243,1.577682 c -0.30936,0.394371 -0.61281,0.793618 -0.91054,1.197859 0.29768,-0.404165 0.60124,-0.803561 0.91054,-1.197859 z m -1.26349,1.686202 c -0.23089,0.321198 -0.45896,0.644874 -0.68316,0.971517 0.22424,-0.326706 0.45222,-0.650258 0.68316,-0.971517 z m -1.04541,1.503784 c -0.24267,0.362203 -0.48106,0.727548 -0.71624,1.09554 0.23518,-0.367986 0.47357,-0.733344 0.71624,-1.09554 z m -0.9648,1.48208 c -0.31442,0.499898 -0.6231,1.004654 -0.92501,1.513603 0.30195,-0.509029 0.61054,-1.013629 0.92501,-1.513603 z m -1.12293,1.855183 c -0.23896,0.407861 -0.47521,0.817232 -0.70693,1.2299 0.23168,-0.412586 0.46801,-0.822119 0.70693,-1.2299 z m -0.99167,1.743565 c -0.20084,0.363677 -0.3995,0.728874 -0.59531,1.095539 0.19588,-0.366784 0.3944,-0.731743 0.59531,-1.095539 z m -0.8661,1.604036 c -0.21134,0.401579 -0.41929,0.804923 -0.62528,1.209228 0.20598,-0.404289 0.41395,-0.807664 0.62528,-1.209228 z m -0.8387,1.62574 c -0.26118,0.517983 -0.51799,1.037585 -0.77153,1.55856 0.25357,-0.521036 0.51032,-1.040516 0.77153,-1.55856 z m 75.07604,0.08733 c 0.17033,0.351509 0.33379,0.723249 0.4904,1.115695 0.15661,0.392448 0.30644,0.805966 0.44908,1.24075 -0.14264,-0.434784 -0.29247,-0.848302 -0.44908,-1.24075 -0.15661,-0.392446 -0.32007,-0.764186 -0.4904,-1.115695 z m -26.001,2.354897 c 0.0772,0.0016 0.15578,0.0048 0.23357,0.0072 -0.0778,-0.0024 -0.15632,-0.0057 -0.23357,-0.0072 z m -1.49397,0.02739 c -0.0781,0.0045 -0.15505,0.01103 -0.23254,0.01654 0.0775,-0.0055 0.15444,-0.01199 0.23254,-0.01654 z m 2.26291,0.0026 c 0.1011,0.0057 0.20286,0.01243 0.30489,0.01963 -0.1021,-0.0072 -0.20371,-0.01389 -0.30489,-0.01963 z m -2.98483,0.05529 c -0.0851,0.0084 -0.16986,0.01728 -0.25425,0.02687 0.0844,-0.0096 0.16917,-0.01844 0.25425,-0.02687 z m 3.80649,0.0078 c 0.0949,0.0089 0.1895,0.01717 0.28525,0.02739 -0.0957,-0.01021 -0.19036,-0.01847 -0.28525,-0.02739 z m -4.54598,0.08165 c -0.0734,0.01048 -0.14734,0.02013 -0.22014,0.03152 0.0728,-0.0114 0.14677,-0.02103 0.22014,-0.03152 z m 5.51904,0.02946 c 0.0416,0.0057 0.0823,0.01013 0.12403,0.01603 -0.0417,-0.0059 -0.0824,-0.01037 -0.12403,-0.01603 z m -6.40787,0.119888 c -0.025,0.005 -0.0495,0.01093 -0.0744,0.01601 0.025,-0.0051 0.0494,-0.01103 0.0744,-0.01601 z m 7.35769,0.02687 c 0.10314,0.01796 0.2081,0.03903 0.31212,0.05839 -0.10399,-0.01937 -0.20902,-0.04044 -0.31212,-0.05839 z m -8.02845,0.122989 c -0.0699,0.01707 -0.13888,0.03528 -0.20826,0.05323 0.0693,-0.01794 0.13839,-0.03617 0.20826,-0.05323 z m 8.89971,0.04444 c 0.11283,0.02339 0.22668,0.04837 0.34055,0.07338 -0.11383,-0.025 -0.22775,-0.05 -0.34055,-0.07338 z m -9.53482,0.125574 c -0.0859,0.02484 -0.1717,0.05028 -0.25683,0.07648 0.0852,-0.02622 0.17085,-0.05163 0.25683,-0.07648 z m 10.42882,0.07493 c 0.11134,0.02665 0.22256,0.05294 0.33487,0.08113 -0.11225,-0.02817 -0.2236,-0.0545 -0.33487,-0.08113 z m -11.10113,0.136427 c -0.0677,0.02294 -0.13593,0.04441 -0.20309,0.06821 0.0671,-0.02379 0.13547,-0.04529 0.20309,-0.06821 z m 12.12433,0.12609 c 0.0714,0.01955 0.14167,0.03771 0.21342,0.05788 -0.0717,-0.02016 -0.14209,-0.03833 -0.21342,-0.05788 z m 0.43511,0.122989 c 0.43857,0.126397 0.88522,0.26566 1.33842,0.414962 -0.45339,-0.14936 -0.89967,-0.288526 -1.33842,-0.414962 z m -13.36559,0.04651 c -0.0363,0.01461 -0.0718,0.03061 -0.108,0.04548 0.0362,-0.01487 0.0716,-0.03086 0.108,-0.04548 z m -0.59945,0.257347 c -0.0687,0.03105 -0.13651,0.0636 -0.20464,0.0956 0.0681,-0.03201 0.13594,-0.06454 0.20464,-0.0956 z m -43.79112,0.177768 c -0.0986,0.211844 -0.19685,0.423757 -0.29456,0.635619 0.0978,-0.212129 0.19584,-0.423508 0.29456,-0.635619 z m 59.37363,0.02429 c 0.49225,0.166222 0.99395,0.346924 1.50379,0.540536 -0.50989,-0.19363 -1.01149,-0.374301 -1.50379,-0.540536 z m -16.09875,0.04496 c -0.29648,0.147346 -0.58872,0.301992 -0.87489,0.467156 0.28606,-0.165103 0.57853,-0.319858 0.87489,-0.467156 z m -0.98806,0.534852 c -0.26432,0.155427 -0.5239,0.31867 -0.7798,0.488858 0.25582,-0.170135 0.51556,-0.333473 0.7798,-0.488858 z m 18.90479,0.08217 c 0.53056,0.205907 1.06698,0.421873 1.61696,0.657842 0.55009,0.236021 1.11357,0.492331 1.68362,0.759124 -0.57007,-0.266798 -1.13351,-0.5231 -1.68362,-0.759124 -0.54993,-0.235945 -1.08644,-0.451956 -1.61696,-0.657842 z M 237.14412,37.8829 c -0.27048,0.183782 -0.53641,0.375888 -0.79789,0.575675 0.26161,-0.199896 0.52727,-0.391803 0.79789,-0.575675 z m -0.9772,0.716235 c -0.25228,0.19776 -0.50193,0.400677 -0.74621,0.612883 0.24421,-0.212151 0.494,-0.415173 0.74621,-0.612883 z m -41.28482,0.05374 c -0.35924,0.791461 -0.71687,1.582335 -1.06764,2.368846 0.35128,-0.787664 0.70787,-1.576215 1.06764,-2.368846 z m 65.72209,0.303339 c 0.56061,0.266515 1.13024,0.547225 1.71048,0.843876 -0.5802,-0.296622 -1.14991,-0.577387 -1.71048,-0.843876 z m -25.22224,0.288872 c -0.25616,0.22369 -0.50663,0.457619 -0.75447,0.696598 0.24788,-0.239024 0.49826,-0.472871 0.75447,-0.696598 z m 27.22418,0.706417 c 0.56458,0.291909 1.13786,0.596439 1.72134,0.917257 -0.58376,-0.320974 -1.1565,-0.625218 -1.72134,-0.917257 z m -28.14867,0.155546 c -0.2433,0.239736 -0.4836,0.484523 -0.71934,0.738457 0.23567,-0.253857 0.47612,-0.49879 0.71934,-0.738457 z m -0.78755,0.813903 c -0.18182,0.197493 -0.35986,0.402603 -0.53743,0.608232 0.17758,-0.205642 0.3556,-0.410726 0.53743,-0.608232 z m 30.81311,0.03256 c 0.61628,0.340606 1.2453,0.700963 1.8831,1.074354 -0.63772,-0.373336 -1.26693,-0.733793 -1.8831,-1.074354 z m 2.25153,1.290878 c 0.63511,0.37569 1.2785,0.763966 1.9353,1.172538 -0.65646,-0.408358 -1.30048,-0.797028 -1.9353,-1.172538 z m -34.23201,0.04341 c -0.086,0.106987 -0.17337,0.211013 -0.25838,0.319876 0.085,-0.108828 0.17245,-0.212923 0.25838,-0.319876 z m -39.65443,0.900721 c -0.26238,0.59014 -0.52706,1.184077 -0.78806,1.766816 0.26182,-0.584562 0.52485,-1.174808 0.78806,-1.766816 z m 76.08992,0.397907 c 0.61053,0.382233 1.23132,0.779608 1.86087,1.190625 -0.62974,-0.411144 -1.25016,-0.808281 -1.86087,-1.190625 z m -37.53826,0.150379 c -0.0462,0.06472 -0.091,0.132654 -0.13695,0.197921 0.0459,-0.06526 0.0908,-0.13321 0.13695,-0.197921 z m -0.82321,1.207161 c -0.0917,0.139536 -0.18213,0.28207 -0.27285,0.423746 0.0907,-0.14165 0.18117,-0.284239 0.27285,-0.423746 z m 40.5541,0.04909 c 0.67493,0.44373 1.36168,0.905163 2.0588,1.382342 -0.69691,-0.477041 -1.38406,-0.938731 -2.0588,-1.382342 z m -41.3618,1.229315 c -0.0919,0.150662 -0.18398,0.301461 -0.27492,0.454237 0.091,-0.152805 0.18303,-0.303546 0.27492,-0.454237 z m -0.83561,1.420585 c -0.0694,0.122171 -0.13984,0.242009 -0.20877,0.365355 0.0689,-0.123322 0.13938,-0.243205 0.20877,-0.365355 z m -38.2943,0.434599 c -0.35316,0.760193 -0.70908,1.507387 -1.06764,2.243791 0.35872,-0.736716 0.71433,-1.483267 1.06764,-2.243791 z m 37.34965,1.283126 c -0.0574,0.108392 -0.11343,0.220028 -0.17053,0.329179 0.0571,-0.10917 0.11316,-0.220766 0.17053,-0.329179 z m -0.74207,1.439191 c -0.0836,0.165801 -0.16644,0.333441 -0.2496,0.500742 0.0831,-0.167182 0.16603,-0.335058 0.2496,-0.500742 z m -38.05194,0.288869 c -0.086,0.173133 -0.17184,0.346789 -0.25838,0.518316 0.0865,-0.171503 0.17235,-0.345207 0.25838,-0.518316 z m 37.42769,0.975135 c -0.3605,0.740185 -0.71829,1.490922 -1.07332,2.255163 0.35495,-0.764072 0.7129,-1.515134 1.07332,-2.255163 z m -38.29172,0.720371 c -0.0402,0.07667 -0.0801,0.155217 -0.12041,0.23151 0.0404,-0.07634 0.0802,-0.154794 0.12041,-0.23151 z m -0.86196,1.59577 c -0.0737,0.131861 -0.14904,0.260152 -0.22324,0.390671 0.0742,-0.13058 0.14954,-0.25876 0.22324,-0.390671 z m -0.7767,1.343581 c -0.0878,0.147471 -0.17644,0.29324 -0.2651,0.43874 0.0887,-0.145539 0.17727,-0.291229 0.2651,-0.43874 z m -43.70586,0.28784 c 0.70092,0.479899 1.39116,0.943999 2.06964,1.3901 -0.67842,-0.446061 -1.36878,-0.910241 -2.06964,-1.3901 z m 42.90023,1.015439 c -0.0923,0.14423 -0.18414,0.289492 -0.27751,0.431501 0.0934,-0.142049 0.18513,-0.287221 0.27751,-0.431501 z m 38.26639,0.360191 c -0.28451,0.634989 -0.57009,1.276019 -0.85628,1.91978 0.28541,-0.642001 0.57254,-1.28651 0.85628,-1.91978 z m -78.75333,0.238231 c 0.62538,0.408199 1.24188,0.803079 1.84847,1.18287 -0.60648,-0.37973 -1.22321,-0.77475 -1.84847,-1.18287 z m 39.54901,0.802529 c -0.055,0.07838 -0.10842,0.16012 -0.16382,0.237709 0.0554,-0.07759 0.1088,-0.159329 0.16382,-0.237709 z m -37.42873,0.551389 c 0.65294,0.406172 1.29292,0.79267 1.92444,1.166341 -0.63168,-0.373769 -1.27132,-0.76006 -1.92444,-1.166341 z m 36.41897,0.817001 c -0.0796,0.10191 -0.16139,0.19947 -0.24185,0.299731 0.0805,-0.100251 0.16223,-0.197832 0.24185,-0.299731 z M 149.828,60.371956 c 0.63252,0.370239 1.25676,0.72758 1.8681,1.065569 -0.61129,-0.337971 -1.23563,-0.695359 -1.8681,-1.065569 z m 33.22588,0.497639 c -0.17566,0.203369 -0.35142,0.406111 -0.53123,0.601519 0.17979,-0.195379 0.35559,-0.398179 0.53123,-0.601519 z m 39.29734,0.556561 c -0.33121,0.74249 -0.6674,1.485479 -1.00614,2.232419 0.33821,-0.745791 0.67544,-1.491059 1.00614,-2.232419 z m -70.47063,0.11162 c 0.58309,0.320389 1.15611,0.625229 1.72031,0.916739 -0.56435,-0.291579 -1.13706,-0.59626 -1.72031,-0.916739 z m 30.56971,0.01344 c -0.23734,0.255648 -0.4795,0.502377 -0.7245,0.74363 0.245,-0.241253 0.48716,-0.487982 0.7245,-0.74363 z m -0.88522,0.900208 c -0.24904,0.240252 -0.50116,0.47489 -0.75861,0.699701 0.25745,-0.224811 0.50957,-0.459449 0.75861,-0.699701 z m -27.70063,0.140041 c 0.58388,0.298619 1.15681,0.580408 1.72082,0.848529 -0.56384,-0.268039 -1.13712,-0.55 -1.72082,-0.848529 z m 26.90585,0.59015 c -0.25219,0.219149 -0.50927,0.429289 -0.76998,0.633029 0.26073,-0.203761 0.51777,-0.413858 0.76998,-0.633029 z m -24.85223,0.41496 c 0.57006,0.2668 1.1335,0.523099 1.68362,0.759118 0.55359,0.237522 1.09439,0.454401 1.62832,0.661461 -0.53401,-0.207089 -1.07464,-0.423889 -1.62832,-0.661461 -0.5501,-0.236019 -1.11357,-0.492328 -1.68362,-0.759118 z m 23.93859,0.33021 c -0.26451,0.20252 -0.53345,0.397298 -0.80719,0.58343 0.27378,-0.186161 0.54264,-0.380881 0.80719,-0.58343 z m -0.96273,0.68575 c -0.2525,0.16769 -0.50876,0.328811 -0.76947,0.48214 0.26067,-0.153311 0.517,-0.314482 0.76947,-0.48214 z m 41.78504,0.508489 c -0.0862,0.186809 -0.17301,0.372862 -0.25993,0.55966 0.0868,-0.186629 0.17379,-0.37302 0.25993,-0.55966 z m -61.1482,0.01241 c 0.50975,0.19362 1.01058,0.37482 1.50275,0.54106 -0.49195,-0.166179 -0.99323,-0.34753 -1.50275,-0.54106 z m 18.47949,0.02998 c -0.28792,0.166169 -0.58169,0.322109 -0.88005,0.47025 0.29834,-0.14813 0.59215,-0.304091 0.88005,-0.47025 z m -16.69045,0.60461 c 0.45544,0.149979 0.90447,0.289669 1.34513,0.41651 -0.44077,-0.126881 -0.88958,-0.26648 -1.34513,-0.41651 z m 15.5174,0.0078 c -0.0743,0.03498 -0.14829,0.07054 -0.22325,0.104389 0.075,-0.03385 0.14895,-0.06941 0.22325,-0.104389 z m -13.96866,0.46871 c 0.0914,0.02569 0.18109,0.04866 0.27182,0.07338 -0.0908,-0.02474 -0.1804,-0.04766 -0.27182,-0.07338 z m 12.55582,0.11472 c -0.0711,0.02524 -0.14329,0.04859 -0.21497,0.07286 0.0716,-0.02424 0.14392,-0.04764 0.21497,-0.07286 z m -11.67215,0.119888 c 0.1263,0.03181 0.25113,0.06211 0.3762,0.09198 -0.12499,-0.02985 -0.24999,-0.06019 -0.3762,-0.09198 z m 11.02826,0.09198 c -0.0725,0.02223 -0.14549,0.04336 -0.21859,0.0646 0.0731,-0.02125 0.14608,-0.04237 0.21859,-0.0646 z m -10.11463,0.122989 c 0.11248,0.02471 0.22495,0.04975 0.33642,0.07287 -0.11146,-0.02312 -0.22396,-0.04816 -0.33642,-0.07287 z m 9.45886,0.0615 c -0.0779,0.02021 -0.15548,0.04135 -0.2341,0.06046 0.0786,-0.0191 0.15614,-0.04024 0.2341,-0.06046 z M 165.626,66.8879 c 0.0772,0.01418 0.15534,0.02999 0.23203,0.04341 -0.0767,-0.01342 -0.15488,-0.02922 -0.23203,-0.04341 z m 7.70031,0.05426 c -0.0304,0.0062 -0.06,0.01357 -0.0904,0.01963 0.0305,-0.0061 0.0601,-0.01341 0.0904,-0.01963 z m -6.63577,0.121441 c 0.0655,0.0093 0.12964,0.01611 0.19482,0.02479 -0.0652,-0.0087 -0.12926,-0.01553 -0.19482,-0.02479 z m 5.87612,0.01603 c -0.0778,0.01217 -0.15672,0.02244 -0.23512,0.03359 0.0784,-0.01114 0.15736,-0.02143 0.23512,-0.03359 z m -5.05395,0.08527 c 0.1008,0.01077 0.20032,0.01958 0.30024,0.02893 -0.0999,-0.0093 -0.19942,-0.01818 -0.30024,-0.02893 z m 4.36459,0.0067 c -0.0917,0.01053 -0.18389,0.02032 -0.27647,0.02946 0.0926,-0.0091 0.18475,-0.01894 0.27647,-0.02946 z m -3.5543,0.0646 c 0.0956,0.0067 0.19097,0.01318 0.28577,0.0186 -0.0948,-0.0054 -0.19018,-0.01185 -0.28577,-0.0186 z m 2.79259,0.0057 c -0.0763,0.0054 -0.15208,0.01154 -0.22893,0.01601 0.0769,-0.0045 0.15264,-0.01061 0.22893,-0.01601 z m -1.95027,0.03669 c 0.0754,0.0024 0.15148,0.0058 0.22634,0.0072 -0.0749,-0.0016 -0.15092,-0.0049 -0.22634,-0.0072 z m 1.08779,0.0052 c -0.069,0.0016 -0.13828,0.0027 -0.20774,0.0036 0.0354,-5.29e-4 0.0717,7.94e-4 0.10697,0 0.0339,-5.29e-4 0.067,-0.0028 0.10077,-0.0036 z m -27.80244,5.29e-4 c 0.14263,0.434779 0.29246,0.848299 0.44907,1.24075 0.15661,0.392449 0.32008,0.76367 0.49041,1.115179 -0.17033,-0.351509 -0.3338,-0.72273 -0.49041,-1.115179 -0.15661,-0.392451 -0.30644,-0.805971 -0.44907,-1.24075 z m 76.78756,0.885209 c -0.25798,0.53009 -0.51959,1.05846 -0.78548,1.585441 0.26584,-0.526881 0.52756,-1.055449 0.78548,-1.585441 z m -0.95239,1.911 c -0.21803,0.42862 -0.43898,0.856001 -0.66301,1.281571 0.22405,-0.42562 0.44496,-0.852901 0.66301,-1.281571 z m -0.91829,1.761652 c -0.19768,0.370358 -0.39769,0.739068 -0.60048,1.106389 0.20275,-0.367249 0.40284,-0.7361 0.60048,-1.106389 z m -0.90072,1.646928 c -0.22584,0.401942 -0.45614,0.800991 -0.68885,1.198372 0.23273,-0.397412 0.46299,-0.796391 0.68885,-1.198372 z m -0.89504,1.55339 c -0.30393,0.512371 -0.61459,1.02023 -0.93121,1.52342 0.31663,-0.503219 0.62726,-1.01102 0.93121,-1.52342 z m -1.15548,1.87275 c -0.24226,0.37951 -0.48773,0.75629 -0.73794,1.129651 0.25015,-0.373271 0.49574,-0.750231 0.73794,-1.129651 z m -1.08883,1.644872 c -0.22543,0.328599 -0.45457,0.65409 -0.68678,0.977199 0.2322,-0.323102 0.46135,-0.6486 0.68678,-0.977199 z m -1.05161,1.482079 c -0.27461,0.372629 -0.55526,0.740061 -0.83974,1.104321 0.28448,-0.364271 0.56513,-0.731682 0.83974,-1.104321 z m -1.07435,1.40869 c -0.36406,0.458491 -0.73723,0.909341 -1.11828,1.352891 0.38112,-0.443622 0.75416,-0.894321 1.11828,-1.352891 z m -1.96939,2.315109 c -0.0577,0.0632 -0.11659,0.12527 -0.17467,0.1881 0.0581,-0.0628 0.11696,-0.124891 0.17467,-0.1881 z m -1.05834,1.11569 c -0.0315,0.0319 -0.0619,0.0648 -0.0935,0.0966 0.0316,-0.0318 0.0621,-0.0647 0.0935,-0.0966 z m -1.0728,1.046451 c -0.069,0.0647 -0.13826,0.12904 -0.20774,0.19327 0.0695,-0.0642 0.1388,-0.128561 0.20774,-0.19327 z m -1.23817,1.113628 c -0.025,0.02151 -0.0508,0.0422 -0.076,0.0636 0.0251,-0.02141 0.0509,-0.0421 0.076,-0.0636 z m -1.08055,0.885222 c -0.0761,0.0601 -0.1517,0.120798 -0.22841,0.180348 0.0767,-0.0596 0.15227,-0.120219 0.22841,-0.180348 z m -1.31723,0.991148 c -0.0684,0.0489 -0.13784,0.0968 -0.20671,0.145211 0.0689,-0.0484 0.13831,-0.0964 0.20671,-0.145211 z m -1.2945,0.87953 c -0.0382,0.02471 -0.0753,0.0504 -0.11369,0.0749 0.0383,-0.0245 0.0755,-0.0503 0.11369,-0.0749 z m -1.3162,0.805641 c -0.0878,0.051 -0.17608,0.1016 -0.26458,0.151929 0.0885,-0.0503 0.17678,-0.10091 0.26458,-0.151929 z m -1.51618,0.831469 c -0.27575,0.14129 -0.55491,0.278791 -0.83716,0.413411 0.28221,-0.134591 0.56145,-0.27214 0.83716,-0.413411 z m -1.05885,0.516252 c -0.20884,0.0977 -0.41906,0.193839 -0.63149,0.287838 0.21238,-0.094 0.42271,-0.190159 0.63149,-0.287838 z m -0.94568,0.424778 c -0.20158,0.0867 -0.40495,0.171421 -0.60978,0.254762 0.20483,-0.0833 0.4082,-0.16805 0.60978,-0.254762 z m -0.88419,0.36639 c -0.25793,0.10229 -0.51873,0.201811 -0.78186,0.29869 0.26311,-0.0969 0.52395,-0.19641 0.78186,-0.29869 z m -0.91777,0.34984 c -0.30334,0.11022 -0.61053,0.216482 -0.92087,0.31937 0.31036,-0.102899 0.6175,-0.20914 0.92087,-0.31937 z m -1.21543,0.413422 c -0.21566,0.0694 -0.43258,0.137289 -0.65164,0.203078 0.21909,-0.0658 0.43595,-0.133689 0.65164,-0.203078 z m -1.00717,0.307469 c -0.22554,0.0652 -0.45298,0.128289 -0.68213,0.189651 0.22909,-0.0613 0.45665,-0.124481 0.68213,-0.189651 z m -0.97824,0.268719 c -0.28615,0.074 -0.57531,0.14487 -0.86713,0.21291 0.2918,-0.068 0.581,-0.138869 0.86713,-0.21291 z m -1.01596,0.249082 c -0.33932,0.0776 -0.68335,0.150259 -1.03042,0.21962 0.34715,-0.0694 0.69102,-0.141971 1.03042,-0.21962 z m -1.28726,0.268718 c -0.26568,0.0512 -0.5333,0.10042 -0.80356,0.146762 0.2702,-0.0463 0.53793,-0.0955 0.80356,-0.146762 z m -1.14049,0.203081 c -0.2569,0.0418 -0.51617,0.081 -0.77722,0.11834 0.2611,-0.0373 0.52027,-0.0765 0.77722,-0.11834 z m -1.10795,0.16537 c -0.34105,0.046 -0.68535,0.0888 -1.03353,0.127119 0.34816,-0.0383 0.6925,-0.0811 1.03353,-0.127119 z m -1.11672,0.13694 c -0.37199,0.0402 -0.74891,0.0747 -1.12913,0.10594 0.38029,-0.0313 0.75707,-0.0657 1.12913,-0.10594 z m -1.43919,0.129189 c -0.28035,0.02109 -0.56264,0.0401 -0.8475,0.0563 0.28484,-0.01619 0.56717,-0.0352 0.8475,-0.0563 z m -1.24334,0.077 c -0.28117,0.01371 -0.56502,0.02421 -0.85059,0.0331 0.28561,-0.009 0.56938,-0.01939 0.85059,-0.0331 z m -1.20871,0.0444 c -0.40071,0.01 -0.80447,0.0155 -1.21388,0.0155 0.40935,0 0.81323,-0.006 1.21388,-0.0155 z"
       id="path26341-2" />
  </clipPath>
  <clipPath
     clipPathUnits="userSpaceOnUse"
     id="clipPath26339-9-7">
    <path
       style="color:#000000;fill:#00ff00;stroke-width:2;stroke-linecap:round;stroke-linejoin:round;-inkscape-stroke:none;paint-order:stroke fill markers"
       d="m 208.09421,-6.4984371 c -37.40796,0 -67.73333,24.4989281 -67.73333,54.7196571 0,1.48295 0.0231,2.884294 0.0646,4.224033 -0.0336,0.57585 -0.0552,1.15234 -0.0646,1.729089 0.74705,0.53508 1.47803,1.045861 2.2009,1.544609 -0.72293,-0.49879 -1.45378,-1.009489 -2.2009,-1.544609 0,30.22073 30.32535,54.719658 67.73333,54.719658 37.40796,0 67.73333,-24.498928 67.73333,-54.719658 0,-1.482942 -0.023,-2.884286 -0.0646,-4.224028 0.0336,-0.575849 0.0552,-1.152345 0.0646,-1.729094 -0.74229,-0.531662 -1.46801,-1.038468 -2.18641,-1.534274 0.71832,0.495763 1.44418,1.002665 2.18641,1.534274 0,-30.220729 -30.32535,-54.7196571 -67.73333,-54.7196571 z M 234.63109,7.024769 c -0.41684,0 -0.82827,0.0067 -1.2361,0.016539 0.408,-0.0099 0.81908,-0.016539 1.2361,-0.016539 z m -1.53789,0.025839 c -0.29754,0.009 -0.59245,0.020399 -0.88521,0.03462 0.29259,-0.014221 0.58785,-0.025609 0.88521,-0.03462 z m -1.28002,0.05529 c -0.28351,0.01614 -0.56483,0.03533 -0.84388,0.05633 0.27922,-0.021011 0.56019,-0.04018 0.84388,-0.05633 z m -1.15962,0.07958 c -0.37977,0.03123 -0.75604,0.0658 -1.12758,0.1059371 0.37132,-0.04011 0.74805,-0.07472 1.12758,-0.1059371 z m -1.20975,0.115756 c -0.34936,0.03842 -0.69444,0.08148 -1.03663,0.1276401 0.34211,-0.04614 0.68736,-0.08923 1.03663,-0.1276401 z m -1.3627,0.174149 c -0.26013,0.03719 -0.51863,0.0762 -0.77463,0.117823 0.25612,-0.04165 0.51438,-0.08061 0.77463,-0.117823 z m -1.12707,0.176734 c -0.24824,0.04264 -0.49407,0.08758 -0.73845,0.1343581 0.24427,-0.04676 0.49032,-0.09174 0.73845,-0.1343581 z m -1.07177,0.19792 c -0.34562,0.06929 -0.68835,0.142135 -1.02629,0.2196251 0.3381,-0.07753 0.6805,-0.1503072 1.02629,-0.2196251 z m -1.05936,0.2273771 c -0.31649,0.07288 -0.6286,0.150028 -0.93845,0.22996 0.30975,-0.0799 0.62207,-0.157107 0.93845,-0.22996 z m -1.3007,0.3265948 c -0.21635,0.0582 -0.43128,0.1182222 -0.6444,0.1798341 0.21311,-0.06161 0.42806,-0.1216369 0.6444,-0.1798341 z m -0.99115,0.2811201 c -0.2227,0.06684 -0.44331,0.1361651 -0.6625,0.2067049 0.21924,-0.07056 0.43975,-0.1398508 0.6625,-0.2067049 z m -0.95343,0.2997231 c -0.31021,0.1028428 -0.61714,0.2091968 -0.92036,0.3193598 0.3032,-0.1101558 0.61017,-0.2165228 0.92036,-0.3193598 z m -1.07694,0.3782709 c -0.24719,0.09119 -0.49224,0.1846299 -0.73484,0.280603 0.2426,-0.09597 0.48765,-0.1894131 0.73484,-0.280603 z m -1.07539,0.418579 c -0.18958,0.07742 -0.37803,0.1563669 -0.56482,0.236678 0.18681,-0.08032 0.37521,-0.1592501 0.56482,-0.236678 z m -0.88315,0.374655 c -0.22069,0.09764 -0.43896,0.197564 -0.65577,0.299206 0.21678,-0.101628 0.43511,-0.201581 0.65577,-0.299206 z m -0.84749,0.38809 c -0.28129,0.134078 -0.55975,0.271158 -0.83457,0.411861 0.27487,-0.140728 0.55323,-0.27776 0.83457,-0.411861 z m -2.096,1.096573 c -0.0885,0.05033 -0.17678,0.100908 -0.26458,0.151929 0.0878,-0.05102 0.17609,-0.101601 0.26458,-0.151929 z m -1.46089,0.879017 c -0.0461,0.02949 -0.091,0.06023 -0.13694,0.08992 0.0459,-0.0297 0.0908,-0.06041 0.13694,-0.08992 z m -1.18907,0.799951 c -0.0786,0.0552 -0.15813,0.109578 -0.23617,0.165364 0.0781,-0.05579 0.15752,-0.110156 0.23617,-0.165364 z m -1.31362,0.968416 c -0.0781,0.06066 -0.15501,0.122708 -0.23254,0.183968 0.0776,-0.06127 0.15437,-0.123291 0.23254,-0.183968 z m -1.23197,1.002006 c -0.0254,0.02163 -0.0517,0.04238 -0.077,0.06408 0.0253,-0.02169 0.0516,-0.04245 0.077,-0.06408 z m -1.09657,0.974101 c -0.0775,0.07155 -0.15469,0.143326 -0.23151,0.215491 0.0768,-0.07217 0.15404,-0.143937 0.23151,-0.215491 z m -1.19011,1.145666 c -0.0421,0.04245 -0.0831,0.08603 -0.12505,0.128675 0.042,-0.04265 0.0829,-0.08621 0.12505,-0.128675 z m -0.971,1.015959 c -0.0662,0.07151 -0.13278,0.142489 -0.19843,0.214457 0.0656,-0.07196 0.13228,-0.142965 0.19843,-0.214457 z m -1.03766,1.163754 c -0.38617,0.449438 -0.76454,0.906209 -1.13326,1.370976 0.3688,-0.464875 0.747,-0.921437 1.13326,-1.370976 z m -1.29243,1.577682 c -0.30936,0.394371 -0.61281,0.793618 -0.91054,1.197859 0.29768,-0.404165 0.60124,-0.803561 0.91054,-1.197859 z m -1.26349,1.686202 c -0.23089,0.321198 -0.45896,0.644874 -0.68316,0.971517 0.22424,-0.326706 0.45222,-0.650258 0.68316,-0.971517 z m -1.04541,1.503784 c -0.24267,0.362203 -0.48106,0.727548 -0.71624,1.09554 0.23518,-0.367986 0.47357,-0.733344 0.71624,-1.09554 z m -0.9648,1.48208 c -0.31442,0.499898 -0.6231,1.004654 -0.92501,1.513603 0.30195,-0.509029 0.61054,-1.013629 0.92501,-1.513603 z m -1.12293,1.855183 c -0.23896,0.407861 -0.47521,0.817232 -0.70693,1.2299 0.23168,-0.412586 0.46801,-0.822119 0.70693,-1.2299 z m -0.99167,1.743565 c -0.20084,0.363677 -0.3995,0.728874 -0.59531,1.095539 0.19588,-0.366784 0.3944,-0.731743 0.59531,-1.095539 z m -0.8661,1.604036 c -0.21134,0.401579 -0.41929,0.804923 -0.62528,1.209228 0.20598,-0.404289 0.41395,-0.807664 0.62528,-1.209228 z m -0.8387,1.62574 c -0.26118,0.517983 -0.51799,1.037585 -0.77153,1.55856 0.25357,-0.521036 0.51032,-1.040516 0.77153,-1.55856 z m 75.07604,0.08733 c 0.17033,0.351509 0.33379,0.723249 0.4904,1.115695 0.15661,0.392448 0.30644,0.805966 0.44908,1.24075 -0.14264,-0.434784 -0.29247,-0.848302 -0.44908,-1.24075 -0.15661,-0.392446 -0.32007,-0.764186 -0.4904,-1.115695 z m -26.001,2.354897 c 0.0772,0.0016 0.15578,0.0048 0.23357,0.0072 -0.0778,-0.0024 -0.15632,-0.0057 -0.23357,-0.0072 z m -1.49397,0.02739 c -0.0781,0.0045 -0.15505,0.01103 -0.23254,0.01654 0.0775,-0.0055 0.15444,-0.01199 0.23254,-0.01654 z m 2.26291,0.0026 c 0.1011,0.0057 0.20286,0.01243 0.30489,0.01963 -0.1021,-0.0072 -0.20371,-0.01389 -0.30489,-0.01963 z m -2.98483,0.05529 c -0.0851,0.0084 -0.16986,0.01728 -0.25425,0.02687 0.0844,-0.0096 0.16917,-0.01844 0.25425,-0.02687 z m 3.80649,0.0078 c 0.0949,0.0089 0.1895,0.01717 0.28525,0.02739 -0.0957,-0.01021 -0.19036,-0.01847 -0.28525,-0.02739 z m -4.54598,0.08165 c -0.0734,0.01048 -0.14734,0.02013 -0.22014,0.03152 0.0728,-0.0114 0.14677,-0.02103 0.22014,-0.03152 z m 5.51904,0.02946 c 0.0416,0.0057 0.0823,0.01013 0.12403,0.01603 -0.0417,-0.0059 -0.0824,-0.01037 -0.12403,-0.01603 z m -6.40787,0.119888 c -0.025,0.005 -0.0495,0.01093 -0.0744,0.01601 0.025,-0.0051 0.0494,-0.01103 0.0744,-0.01601 z m 7.35769,0.02687 c 0.10314,0.01796 0.2081,0.03903 0.31212,0.05839 -0.10399,-0.01937 -0.20902,-0.04044 -0.31212,-0.05839 z m -8.02845,0.122989 c -0.0699,0.01707 -0.13888,0.03528 -0.20826,0.05323 0.0693,-0.01794 0.13839,-0.03617 0.20826,-0.05323 z m 8.89971,0.04444 c 0.11283,0.02339 0.22668,0.04837 0.34055,0.07338 -0.11383,-0.025 -0.22775,-0.05 -0.34055,-0.07338 z m -9.53482,0.125574 c -0.0859,0.02484 -0.1717,0.05028 -0.25683,0.07648 0.0852,-0.02622 0.17085,-0.05163 0.25683,-0.07648 z m 10.42882,0.07493 c 0.11134,0.02665 0.22256,0.05294 0.33487,0.08113 -0.11225,-0.02817 -0.2236,-0.0545 -0.33487,-0.08113 z m -11.10113,0.136427 c -0.0677,0.02294 -0.13593,0.04441 -0.20309,0.06821 0.0671,-0.02379 0.13547,-0.04529 0.20309,-0.06821 z m 12.12433,0.12609 c 0.0714,0.01955 0.14167,0.03771 0.21342,0.05788 -0.0717,-0.02016 -0.14209,-0.03833 -0.21342,-0.05788 z m 0.43511,0.122989 c 0.43857,0.126397 0.88522,0.26566 1.33842,0.414962 -0.45339,-0.14936 -0.89967,-0.288526 -1.33842,-0.414962 z m -13.36559,0.04651 c -0.0363,0.01461 -0.0718,0.03061 -0.108,0.04548 0.0362,-0.01487 0.0716,-0.03086 0.108,-0.04548 z m -0.59945,0.257347 c -0.0687,0.03105 -0.13651,0.0636 -0.20464,0.0956 0.0681,-0.03201 0.13594,-0.06454 0.20464,-0.0956 z m -43.79112,0.177768 c -0.0986,0.211844 -0.19685,0.423757 -0.29456,0.635619 0.0978,-0.212129 0.19584,-0.423508 0.29456,-0.635619 z m 59.37363,0.02429 c 0.49225,0.166222 0.99395,0.346924 1.50379,0.540536 -0.50989,-0.19363 -1.01149,-0.374301 -1.50379,-0.540536 z m -16.09875,0.04496 c -0.29648,0.147346 -0.58872,0.301992 -0.87489,0.467156 0.28606,-0.165103 0.57853,-0.319858 0.87489,-0.467156 z m -0.98806,0.534852 c -0.26432,0.155427 -0.5239,0.31867 -0.7798,0.488858 0.25582,-0.170135 0.51556,-0.333473 0.7798,-0.488858 z m 18.90479,0.08217 c 0.53056,0.205907 1.06698,0.421873 1.61696,0.657842 0.55009,0.236021 1.11357,0.492331 1.68362,0.759124 -0.57007,-0.266798 -1.13351,-0.5231 -1.68362,-0.759124 -0.54993,-0.235945 -1.08644,-0.451956 -1.61696,-0.657842 z M 237.14412,37.8829 c -0.27048,0.183782 -0.53641,0.375888 -0.79789,0.575675 0.26161,-0.199896 0.52727,-0.391803 0.79789,-0.575675 z m -0.9772,0.716235 c -0.25228,0.19776 -0.50193,0.400677 -0.74621,0.612883 0.24421,-0.212151 0.494,-0.415173 0.74621,-0.612883 z m -41.28482,0.05374 c -0.35924,0.791461 -0.71687,1.582335 -1.06764,2.368846 0.35128,-0.787664 0.70787,-1.576215 1.06764,-2.368846 z m 65.72209,0.303339 c 0.56061,0.266515 1.13024,0.547225 1.71048,0.843876 -0.5802,-0.296622 -1.14991,-0.577387 -1.71048,-0.843876 z m -25.22224,0.288872 c -0.25616,0.22369 -0.50663,0.457619 -0.75447,0.696598 0.24788,-0.239024 0.49826,-0.472871 0.75447,-0.696598 z m 27.22418,0.706417 c 0.56458,0.291909 1.13786,0.596439 1.72134,0.917257 -0.58376,-0.320974 -1.1565,-0.625218 -1.72134,-0.917257 z m -28.14867,0.155546 c -0.2433,0.239736 -0.4836,0.484523 -0.71934,0.738457 0.23567,-0.253857 0.47612,-0.49879 0.71934,-0.738457 z m -0.78755,0.813903 c -0.18182,0.197493 -0.35986,0.402603 -0.53743,0.608232 0.17758,-0.205642 0.3556,-0.410726 0.53743,-0.608232 z m 30.81311,0.03256 c 0.61628,0.340606 1.2453,0.700963 1.8831,1.074354 -0.63772,-0.373336 -1.26693,-0.733793 -1.8831,-1.074354 z m 2.25153,1.290878 c 0.63511,0.37569 1.2785,0.763966 1.9353,1.172538 -0.65646,-0.408358 -1.30048,-0.797028 -1.9353,-1.172538 z m -34.23201,0.04341 c -0.086,0.106987 -0.17337,0.211013 -0.25838,0.319876 0.085,-0.108828 0.17245,-0.212923 0.25838,-0.319876 z m -39.65443,0.900721 c -0.26238,0.59014 -0.52706,1.184077 -0.78806,1.766816 0.26182,-0.584562 0.52485,-1.174808 0.78806,-1.766816 z m 76.08992,0.397907 c 0.61053,0.382233 1.23132,0.779608 1.86087,1.190625 -0.62974,-0.411144 -1.25016,-0.808281 -1.86087,-1.190625 z m -37.53826,0.150379 c -0.0462,0.06472 -0.091,0.132654 -0.13695,0.197921 0.0459,-0.06526 0.0908,-0.13321 0.13695,-0.197921 z m -0.82321,1.207161 c -0.0917,0.139536 -0.18213,0.28207 -0.27285,0.423746 0.0907,-0.14165 0.18117,-0.284239 0.27285,-0.423746 z m 40.5541,0.04909 c 0.67493,0.44373 1.36168,0.905163 2.0588,1.382342 -0.69691,-0.477041 -1.38406,-0.938731 -2.0588,-1.382342 z m -41.3618,1.229315 c -0.0919,0.150662 -0.18398,0.301461 -0.27492,0.454237 0.091,-0.152805 0.18303,-0.303546 0.27492,-0.454237 z m -0.83561,1.420585 c -0.0694,0.122171 -0.13984,0.242009 -0.20877,0.365355 0.0689,-0.123322 0.13938,-0.243205 0.20877,-0.365355 z m -38.2943,0.434599 c -0.35316,0.760193 -0.70908,1.507387 -1.06764,2.243791 0.35872,-0.736716 0.71433,-1.483267 1.06764,-2.243791 z m 37.34965,1.283126 c -0.0574,0.108392 -0.11343,0.220028 -0.17053,0.329179 0.0571,-0.10917 0.11316,-0.220766 0.17053,-0.329179 z m -0.74207,1.439191 c -0.0836,0.165801 -0.16644,0.333441 -0.2496,0.500742 0.0831,-0.167182 0.16603,-0.335058 0.2496,-0.500742 z m -38.05194,0.288869 c -0.086,0.173133 -0.17184,0.346789 -0.25838,0.518316 0.0865,-0.171503 0.17235,-0.345207 0.25838,-0.518316 z m 37.42769,0.975135 c -0.3605,0.740185 -0.71829,1.490922 -1.07332,2.255163 0.35495,-0.764072 0.7129,-1.515134 1.07332,-2.255163 z m -38.29172,0.720371 c -0.0402,0.07667 -0.0801,0.155217 -0.12041,0.23151 0.0404,-0.07634 0.0802,-0.154794 0.12041,-0.23151 z m -0.86196,1.59577 c -0.0737,0.131861 -0.14904,0.260152 -0.22324,0.390671 0.0742,-0.13058 0.14954,-0.25876 0.22324,-0.390671 z m -0.7767,1.343581 c -0.0878,0.147471 -0.17644,0.29324 -0.2651,0.43874 0.0887,-0.145539 0.17727,-0.291229 0.2651,-0.43874 z m -43.70586,0.28784 c 0.70092,0.479899 1.39116,0.943999 2.06964,1.3901 -0.67842,-0.446061 -1.36878,-0.910241 -2.06964,-1.3901 z m 42.90023,1.015439 c -0.0923,0.14423 -0.18414,0.289492 -0.27751,0.431501 0.0934,-0.142049 0.18513,-0.287221 0.27751,-0.431501 z m 38.26639,0.360191 c -0.28451,0.634989 -0.57009,1.276019 -0.85628,1.91978 0.28541,-0.642001 0.57254,-1.28651 0.85628,-1.91978 z m -78.75333,0.238231 c 0.62538,0.408199 1.24188,0.803079 1.84847,1.18287 -0.60648,-0.37973 -1.22321,-0.77475 -1.84847,-1.18287 z m 39.54901,0.802529 c -0.055,0.07838 -0.10842,0.16012 -0.16382,0.237709 0.0554,-0.07759 0.1088,-0.159329 0.16382,-0.237709 z m -37.42873,0.551389 c 0.65294,0.406172 1.29292,0.79267 1.92444,1.166341 -0.63168,-0.373769 -1.27132,-0.76006 -1.92444,-1.166341 z m 36.41897,0.817001 c -0.0796,0.10191 -0.16139,0.19947 -0.24185,0.299731 0.0805,-0.100251 0.16223,-0.197832 0.24185,-0.299731 z M 149.828,60.371956 c 0.63252,0.370239 1.25676,0.72758 1.8681,1.065569 -0.61129,-0.337971 -1.23563,-0.695359 -1.8681,-1.065569 z m 33.22588,0.497639 c -0.17566,0.203369 -0.35142,0.406111 -0.53123,0.601519 0.17979,-0.195379 0.35559,-0.398179 0.53123,-0.601519 z m 39.29734,0.556561 c -0.33121,0.74249 -0.6674,1.485479 -1.00614,2.232419 0.33821,-0.745791 0.67544,-1.491059 1.00614,-2.232419 z m -70.47063,0.11162 c 0.58309,0.320389 1.15611,0.625229 1.72031,0.916739 -0.56435,-0.291579 -1.13706,-0.59626 -1.72031,-0.916739 z m 30.56971,0.01344 c -0.23734,0.255648 -0.4795,0.502377 -0.7245,0.74363 0.245,-0.241253 0.48716,-0.487982 0.7245,-0.74363 z m -0.88522,0.900208 c -0.24904,0.240252 -0.50116,0.47489 -0.75861,0.699701 0.25745,-0.224811 0.50957,-0.459449 0.75861,-0.699701 z m -27.70063,0.140041 c 0.58388,0.298619 1.15681,0.580408 1.72082,0.848529 -0.56384,-0.268039 -1.13712,-0.55 -1.72082,-0.848529 z m 26.90585,0.59015 c -0.25219,0.219149 -0.50927,0.429289 -0.76998,0.633029 0.26073,-0.203761 0.51777,-0.413858 0.76998,-0.633029 z m -24.85223,0.41496 c 0.57006,0.2668 1.1335,0.523099 1.68362,0.759118 0.55359,0.237522 1.09439,0.454401 1.62832,0.661461 -0.53401,-0.207089 -1.07464,-0.423889 -1.62832,-0.661461 -0.5501,-0.236019 -1.11357,-0.492328 -1.68362,-0.759118 z m 23.93859,0.33021 c -0.26451,0.20252 -0.53345,0.397298 -0.80719,0.58343 0.27378,-0.186161 0.54264,-0.380881 0.80719,-0.58343 z m -0.96273,0.68575 c -0.2525,0.16769 -0.50876,0.328811 -0.76947,0.48214 0.26067,-0.153311 0.517,-0.314482 0.76947,-0.48214 z m 41.78504,0.508489 c -0.0862,0.186809 -0.17301,0.372862 -0.25993,0.55966 0.0868,-0.186629 0.17379,-0.37302 0.25993,-0.55966 z m -61.1482,0.01241 c 0.50975,0.19362 1.01058,0.37482 1.50275,0.54106 -0.49195,-0.166179 -0.99323,-0.34753 -1.50275,-0.54106 z m 18.47949,0.02998 c -0.28792,0.166169 -0.58169,0.322109 -0.88005,0.47025 0.29834,-0.14813 0.59215,-0.304091 0.88005,-0.47025 z m -16.69045,0.60461 c 0.45544,0.149979 0.90447,0.289669 1.34513,0.41651 -0.44077,-0.126881 -0.88958,-0.26648 -1.34513,-0.41651 z m 15.5174,0.0078 c -0.0743,0.03498 -0.14829,0.07054 -0.22325,0.104389 0.075,-0.03385 0.14895,-0.06941 0.22325,-0.104389 z m -13.96866,0.46871 c 0.0914,0.02569 0.18109,0.04866 0.27182,0.07338 -0.0908,-0.02474 -0.1804,-0.04766 -0.27182,-0.07338 z m 12.55582,0.11472 c -0.0711,0.02524 -0.14329,0.04859 -0.21497,0.07286 0.0716,-0.02424 0.14392,-0.04764 0.21497,-0.07286 z m -11.67215,0.119888 c 0.1263,0.03181 0.25113,0.06211 0.3762,0.09198 -0.12499,-0.02985 -0.24999,-0.06019 -0.3762,-0.09198 z m 11.02826,0.09198 c -0.0725,0.02223 -0.14549,0.04336 -0.21859,0.0646 0.0731,-0.02125 0.14608,-0.04237 0.21859,-0.0646 z m -10.11463,0.122989 c 0.11248,0.02471 0.22495,0.04975 0.33642,0.07287 -0.11146,-0.02312 -0.22396,-0.04816 -0.33642,-0.07287 z m 9.45886,0.0615 c -0.0779,0.02021 -0.15548,0.04135 -0.2341,0.06046 0.0786,-0.0191 0.15614,-0.04024 0.2341,-0.06046 z M 165.626,66.8879 c 0.0772,0.01418 0.15534,0.02999 0.23203,0.04341 -0.0767,-0.01342 -0.15488,-0.02922 -0.23203,-0.04341 z m 7.70031,0.05426 c -0.0304,0.0062 -0.06,0.01357 -0.0904,0.01963 0.0305,-0.0061 0.0601,-0.01341 0.0904,-0.01963 z m -6.63577,0.121441 c 0.0655,0.0093 0.12964,0.01611 0.19482,0.02479 -0.0652,-0.0087 -0.12926,-0.01553 -0.19482,-0.02479 z m 5.87612,0.01603 c -0.0778,0.01217 -0.15672,0.02244 -0.23512,0.03359 0.0784,-0.01114 0.15736,-0.02143 0.23512,-0.03359 z m -5.05395,0.08527 c 0.1008,0.01077 0.20032,0.01958 0.30024,0.02893 -0.0999,-0.0093 -0.19942,-0.01818 -0.30024,-0.02893 z m 4.36459,0.0067 c -0.0917,0.01053 -0.18389,0.02032 -0.27647,0.02946 0.0926,-0.0091 0.18475,-0.01894 0.27647,-0.02946 z m -3.5543,0.0646 c 0.0956,0.0067 0.19097,0.01318 0.28577,0.0186 -0.0948,-0.0054 -0.19018,-0.01185 -0.28577,-0.0186 z m 2.79259,0.0057 c -0.0763,0.0054 -0.15208,0.01154 -0.22893,0.01601 0.0769,-0.0045 0.15264,-0.01061 0.22893,-0.01601 z m -1.95027,0.03669 c 0.0754,0.0024 0.15148,0.0058 0.22634,0.0072 -0.0749,-0.0016 -0.15092,-0.0049 -0.22634,-0.0072 z m 1.08779,0.0052 c -0.069,0.0016 -0.13828,0.0027 -0.20774,0.0036 0.0354,-5.29e-4 0.0717,7.94e-4 0.10697,0 0.0339,-5.29e-4 0.067,-0.0028 0.10077,-0.0036 z m -27.80244,5.29e-4 c 0.14263,0.434779 0.29246,0.848299 0.44907,1.24075 0.15661,0.392449 0.32008,0.76367 0.49041,1.115179 -0.17033,-0.351509 -0.3338,-0.72273 -0.49041,-1.115179 -0.15661,-0.392451 -0.30644,-0.805971 -0.44907,-1.24075 z m 76.78756,0.885209 c -0.25798,0.53009 -0.51959,1.05846 -0.78548,1.585441 0.26584,-0.526881 0.52756,-1.055449 0.78548,-1.585441 z m -0.95239,1.911 c -0.21803,0.42862 -0.43898,0.856001 -0.66301,1.281571 0.22405,-0.42562 0.44496,-0.852901 0.66301,-1.281571 z m -0.91829,1.761652 c -0.19768,0.370358 -0.39769,0.739068 -0.60048,1.106389 0.20275,-0.367249 0.40284,-0.7361 0.60048,-1.106389 z m -0.90072,1.646928 c -0.22584,0.401942 -0.45614,0.800991 -0.68885,1.198372 0.23273,-0.397412 0.46299,-0.796391 0.68885,-1.198372 z m -0.89504,1.55339 c -0.30393,0.512371 -0.61459,1.02023 -0.93121,1.52342 0.31663,-0.503219 0.62726,-1.01102 0.93121,-1.52342 z m -1.15548,1.87275 c -0.24226,0.37951 -0.48773,0.75629 -0.73794,1.129651 0.25015,-0.373271 0.49574,-0.750231 0.73794,-1.129651 z m -1.08883,1.644872 c -0.22543,0.328599 -0.45457,0.65409 -0.68678,0.977199 0.2322,-0.323102 0.46135,-0.6486 0.68678,-0.977199 z m -1.05161,1.482079 c -0.27461,0.372629 -0.55526,0.740061 -0.83974,1.104321 0.28448,-0.364271 0.56513,-0.731682 0.83974,-1.104321 z m -1.07435,1.40869 c -0.36406,0.458491 -0.73723,0.909341 -1.11828,1.352891 0.38112,-0.443622 0.75416,-0.894321 1.11828,-1.352891 z m -1.96939,2.315109 c -0.0577,0.0632 -0.11659,0.12527 -0.17467,0.1881 0.0581,-0.0628 0.11696,-0.124891 0.17467,-0.1881 z m -1.05834,1.11569 c -0.0315,0.0319 -0.0619,0.0648 -0.0935,0.0966 0.0316,-0.0318 0.0621,-0.0647 0.0935,-0.0966 z m -1.0728,1.046451 c -0.069,0.0647 -0.13826,0.12904 -0.20774,0.19327 0.0695,-0.0642 0.1388,-0.128561 0.20774,-0.19327 z m -1.23817,1.113628 c -0.025,0.02151 -0.0508,0.0422 -0.076,0.0636 0.0251,-0.02141 0.0509,-0.0421 0.076,-0.0636 z m -1.08055,0.885222 c -0.0761,0.0601 -0.1517,0.120798 -0.22841,0.180348 0.0767,-0.0596 0.15227,-0.120219 0.22841,-0.180348 z m -1.31723,0.991148 c -0.0684,0.0489 -0.13784,0.0968 -0.20671,0.145211 0.0689,-0.0484 0.13831,-0.0964 0.20671,-0.145211 z m -1.2945,0.87953 c -0.0382,0.02471 -0.0753,0.0504 -0.11369,0.0749 0.0383,-0.0245 0.0755,-0.0503 0.11369,-0.0749 z m -1.3162,0.805641 c -0.0878,0.051 -0.17608,0.1016 -0.26458,0.151929 0.0885,-0.0503 0.17678,-0.10091 0.26458,-0.151929 z m -1.51618,0.831469 c -0.27575,0.14129 -0.55491,0.278791 -0.83716,0.413411 0.28221,-0.134591 0.56145,-0.27214 0.83716,-0.413411 z m -1.05885,0.516252 c -0.20884,0.0977 -0.41906,0.193839 -0.63149,0.287838 0.21238,-0.094 0.42271,-0.190159 0.63149,-0.287838 z m -0.94568,0.424778 c -0.20158,0.0867 -0.40495,0.171421 -0.60978,0.254762 0.20483,-0.0833 0.4082,-0.16805 0.60978,-0.254762 z m -0.88419,0.36639 c -0.25793,0.10229 -0.51873,0.201811 -0.78186,0.29869 0.26311,-0.0969 0.52395,-0.19641 0.78186,-0.29869 z m -0.91777,0.34984 c -0.30334,0.11022 -0.61053,0.216482 -0.92087,0.31937 0.31036,-0.102899 0.6175,-0.20914 0.92087,-0.31937 z m -1.21543,0.413422 c -0.21566,0.0694 -0.43258,0.137289 -0.65164,0.203078 0.21909,-0.0658 0.43595,-0.133689 0.65164,-0.203078 z m -1.00717,0.307469 c -0.22554,0.0652 -0.45298,0.128289 -0.68213,0.189651 0.22909,-0.0613 0.45665,-0.124481 0.68213,-0.189651 z m -0.97824,0.268719 c -0.28615,0.074 -0.57531,0.14487 -0.86713,0.21291 0.2918,-0.068 0.581,-0.138869 0.86713,-0.21291 z m -1.01596,0.249082 c -0.33932,0.0776 -0.68335,0.150259 -1.03042,0.21962 0.34715,-0.0694 0.69102,-0.141971 1.03042,-0.21962 z m -1.28726,0.268718 c -0.26568,0.0512 -0.5333,0.10042 -0.80356,0.146762 0.2702,-0.0463 0.53793,-0.0955 0.80356,-0.146762 z m -1.14049,0.203081 c -0.2569,0.0418 -0.51617,0.081 -0.77722,0.11834 0.2611,-0.0373 0.52027,-0.0765 0.77722,-0.11834 z m -1.10795,0.16537 c -0.34105,0.046 -0.68535,0.0888 -1.03353,0.127119 0.34816,-0.0383 0.6925,-0.0811 1.03353,-0.127119 z m -1.11672,0.13694 c -0.37199,0.0402 -0.74891,0.0747 -1.12913,0.10594 0.38029,-0.0313 0.75707,-0.0657 1.12913,-0.10594 z m -1.43919,0.129189 c -0.28035,0.02109 -0.56264,0.0401 -0.8475,0.0563 0.28484,-0.01619 0.56717,-0.0352 0.8475,-0.0563 z m -1.24334,0.077 c -0.28117,0.01371 -0.56502,0.02421 -0.85059,0.0331 0.28561,-0.009 0.56938,-0.01939 0.85059,-0.0331 z m -1.20871,0.0444 c -0.40071,0.01 -0.80447,0.0155 -1.21388,0.0155 0.40935,0 0.81323,-0.006 1.21388,-0.0155 z"
       id="path26341-2-3" />
  </clipPath>
  <clipPath
     clipPathUnits="userSpaceOnUse"
     id="clipPath6836">
    <path
       style="color:#000000;fill:#333333;stroke-width:4;stroke-linecap:round;stroke-linejoin:round;paint-order:stroke fill markers"
       d="M -362.90454,35.259793 V -77.415803 c 0,-6.313125 5.08241,-11.39553 11.39553,-11.39553 h 112.6756 c 6.31312,0 11.39553,5.082405 11.39553,11.39553 V 35.259793 c 0,6.31313 -5.08241,11.39553 -11.39553,11.39553 h -112.6756 c -6.31312,0 -11.39553,-5.0824 -11.39553,-11.39553 z"
       id="path6838" />
  </clipPath>
  <clipPath
     clipPathUnits="userSpaceOnUse"
     id="clipPath7621">
    <rect
       style="display:inline;opacity:1;fill:#333333;stroke:none;stroke-width:2.9963;stroke-linecap:round;stroke-linejoin:round;paint-order:stroke fill markers"
       id="rect7623"
       width="135.46666"
       height="135.46666"
       x="-4.9580011"
       y="3.5603841e-06"
       ry="11.395532" />
  </clipPath>
  <clipPath
     clipPathUnits="userSpaceOnUse"
     id="clipPath6836-5">
    <path
       style="color:#000000;fill:#333333;stroke-width:4;stroke-linecap:round;stroke-linejoin:round;paint-order:stroke fill markers"
       d="M -362.90454,35.259793 V -77.415803 c 0,-6.313125 5.08241,-11.39553 11.39553,-11.39553 h 112.6756 c 6.31312,0 11.39553,5.082405 11.39553,11.39553 V 35.259793 c 0,6.31313 -5.08241,11.39553 -11.39553,11.39553 h -112.6756 c -6.31312,0 -11.39553,-5.0824 -11.39553,-11.39553 z"
       id="path6838-3" />
  </clipPath>
  <clipPath
     clipPathUnits="userSpaceOnUse"
     id="clipPath6836-1">
    <path
       style="color:#000000;fill:#333333;stroke-width:4;stroke-linecap:round;stroke-linejoin:round;paint-order:stroke fill markers"
       d="M -362.90454,35.259793 V -77.415803 c 0,-6.313125 5.08241,-11.39553 11.39553,-11.39553 h 112.6756 c 6.31312,0 11.39553,5.082405 11.39553,11.39553 V 35.259793 c 0,6.31313 -5.08241,11.39553 -11.39553,11.39553 h -112.6756 c -6.31312,0 -11.39553,-5.0824 -11.39553,-11.39553 z"
       id="path6838-2" />
  </clipPath>
  <clipPath
     clipPathUnits="userSpaceOnUse"
     id="clipPath2067">
    <g
       id="g2071">
      <rect
         style="display:inline;opacity:1;fill:#333333;stroke:none;stroke-width:2.9963;stroke-linecap:round;stroke-linejoin:round;paint-order:stroke fill markers"
         id="rect2069"
         width="135.46666"
         height="135.46666"
         x="149.88332"
         y="-11.395721"
         ry="11.395532" />
    </g>
  </clipPath>
  <clipPath
     clipPathUnits="userSpaceOnUse"
     id="clipPath2073">
    <g
       id="g2077">
      <rect
         style="display:inline;opacity:1;fill:#333333;stroke:none;stroke-width:2.9963;stroke-linecap:round;stroke-linejoin:round;paint-order:stroke fill markers"
         id="rect2075"
         width="135.46666"
         height="135.46666"
         x="149.88332"
         y="-11.395721"
         ry="11.395532" />
    </g>
  </clipPath>
  <filter
     inkscape:collect="always"
     style="color-interpolation-filters:sRGB"
     id="filter2"
     x="-0.030729177"
     y="-0.055989679"
     width="1.0614584"
     height="1.1119794">
    <feGaussianBlur
       inkscape:collect="always"
       stdDeviation="1.5992385"
       id="feGaussianBlur2" />
  </filter>
  <linearGradient
     inkscape:collect="always"
     xlink:href="#linearGradient4"
     id="linearGradient3"
     gradientUnits="userSpaceOnUse"
     gradientTransform="translate(-187.24712,-8.9958336)"
     x1="255.1566"
     y1="139.17593"
     x2="255.1566"
     y2="70.659935" />
  <linearGradient
     inkscape:collect="always"
     xlink:href="#linearGradient5"
     id="linearGradient6"
     x1="67.733337"
     y1="5.2687068"
     x2="67.717834"
     y2="77.305969"
     gradientUnits="userSpaceOnUse" />
  <linearGradient
     inkscape:collect="always"
     xlink:href="#linearGradient7"
     id="linearGradient8"
     x1="67.733337"
     y1="0"
     x2="67.733337"
     y2="135.46667"
     gradientUnits="userSpaceOnUse" />
</defs>
<g
   inkscape:groupmode="layer"
   id="g22"
   inkscape:label="Layer 2 copy"
   style="display:inline">
  <path
     id="rect25"
     style="display:inline;fill:url(#linearGradient8);fill-opacity:1;stroke:none;stroke-width:3;stroke-linecap:round;stroke-linejoin:round;stroke-dasharray:none;stroke-dashoffset:149.514;stroke-opacity:1;paint-order:markers stroke fill"
     d="M 19.435764,0 C 8.6684125,0 1.679375e-6,8.6684108 1.679375e-6,19.435763 v 96.595147 c 0,10.76735 8.668410820625,19.43576 19.435762320625,19.43576 h 96.595146 c 10.76735,0 19.43576,-8.66841 19.43576,-19.43576 V 19.435763 C 135.46667,8.6684108 126.79826,0 116.03091,0 Z M 60.57953,34.058225 c 29.874753,0.613079 49.158,25.8826 49.158,25.8826 0,0 -23.599065,28.69512 -48.184862,28.69512 -2.253265,0 -4.362888,-0.208747 -6.344179,-0.559858 v 5.29e-4 C 34.04798,84.304089 28.174422,62.307787 28.174422,62.307787 c 0,0 10.159952,-11.255233 27.034067,-13.080471 1.483585,-0.158836 2.994685,-0.269903 4.573587,-0.269346 14.525537,0 23.142046,11.300883 23.142046,11.300883 L 71.120001,70.211949 C 65.812718,61.364619 64.036009,57.46487 55.208489,56.398054 c -0.0128,0 -0.02162,-0.0036 -0.03228,-0.0036 -8.856444,-1.062819 -15.774987,7.210426 -15.774987,7.210426 0,0 3.877715,13.928306 15.807268,17.936634 2.000664,0.672592 4.223613,1.071033 6.702953,1.071033 17.229116,0 33.297811,-22.317075 33.297811,-22.317075 0,0 -14.87696,-20.198821 -37.553369,-19.486563 -0.829296,0.02621 -1.6415,0.06967 -2.447395,0.125941 v -5.29e-4 c -25.04227,1.91437 -37.584062,20.418913 -37.584062,20.418913 0,0 9.585736,30.857669 37.584063,34.379958 1.694262,0.215129 3.451222,0.341842 5.284257,0.341842 22.878723,0 39.42418,-11.684358 55.445032,-25.513243 2.65621,2.127307 13.53056,7.302342 15.76599,9.567863 -15.23282,12.753252 -50.734075,23.033556 -70.860713,23.033556 -1.940054,0 -3.8032,-0.11755 -5.634566,-0.29421 C 17.055708,99.268056 3.4512266,59.940825 3.4512266,59.940825 c 0,0 24.0197694,-23.492519 51.7572624,-25.720146 0.814262,-0.06241 1.628688,-0.115531 2.447396,-0.143404 0.985453,-0.03321 1.959944,-0.03881 2.923645,-0.01904 z" />
  <path
     style="color:#000000;display:none;fill:#ffffff;fill-opacity:1;stroke-linecap:round;stroke-linejoin:round;stroke-dashoffset:149.514;-inkscape-stroke:none;paint-order:markers stroke fill"
     d="m 21.023437,0.08789062 c -11.5724037,0 -20.93554638,9.36314268 -20.93554638,20.93554638 v 93.419923 c 0,11.5724 9.36314268,20.93555 20.93554638,20.93555 h 93.419923 c 11.5724,0 20.93555,-9.36315 20.93555,-20.93555 V 21.023437 c 0,-11.5724037 -9.36315,-20.93554638 -20.93555,-20.93554638 z m 0,2.99999998 h 93.419923 c 9.9623,0 17.93555,7.9732494 17.93555,17.9355464 v 93.419923 c 0,9.9623 -7.97325,17.93555 -17.93555,17.93555 H 21.023437 c -9.962297,0 -17.9355464,-7.97325 -17.9355464,-17.93555 V 21.023437 c 0,-9.962297 7.9732494,-17.9355464 17.9355464,-17.9355464 z"
     id="rect23" />
  <path
     id="rect22"
     style="display:none;fill:#333333;fill-opacity:1;stroke:none;stroke-width:2.11667;stroke-linecap:round;stroke-linejoin:round;stroke-dashoffset:149.514;paint-order:markers stroke fill"
     d="m 60.747196,34.847485 c -0.941116,-0.01931 -1.892763,-0.01383 -2.855122,0.0186 -0.79952,0.02722 -1.594856,0.07909 -2.390035,0.140043 v 6.556189 5.17e-4 c 0.787009,-0.05496 1.580175,-0.0974 2.390035,-0.12299 22.144977,-0.695567 36.673213,19.029846 36.673213,19.029846 0,0 -15.692052,21.794019 -32.517395,21.794019 -2.421236,0 -4.592075,-0.3891 -6.545853,-1.045931 V 87.5993 c 1.934858,0.342882 3.995029,0.546737 6.195487,0.546737 24.009616,0 47.055524,-28.022579 47.055524,-28.022579 0,0 -18.831232,-24.677266 -48.005854,-25.275977 z m -0.778763,14.550533 c -1.541899,-5.44e-4 -3.017576,0.107918 -4.466394,0.263033 v 7.002674 c 8.620643,1.041815 10.355682,4.850143 15.538586,13.490132 l 11.527462,-9.71982 c 0,0 -8.414529,-11.036019 -22.599654,-11.036019 z M 114.80798,70.495439 C 99.162593,84.000236 83.004995,95.410714 60.662447,95.410714 c -1.790078,0 -3.50585,-0.123743 -5.160408,-0.33383 v 6.968566 c 1.788448,0.17252 3.607918,0.28732 5.502506,0.28732 19.65496,0 54.324095,-10.039344 69.199915,-22.493716 -2.18304,-2.212429 -12.80252,-7.266164 -15.39648,-9.343615 z" />
  <path
     id="path18"
     fill="#77b900"
     d="m 13.840628,61.502917 c 0,0 12.24811,-18.071182 36.7035,-19.940728 V 35.005992 C 23.456678,37.181413 8.3333333e-6,60.123209 8.3333333e-6,60.123209 c 0,0 13.2854696666667,38.405958 50.5441196666667,41.922451 v -6.968757 c -27.34217,-3.439745 -36.7035,-33.573986 -36.7035,-33.573986 z m 36.7035,26.096892 c -20.6646,-3.684117 -26.40059,-25.165111 -26.40059,-25.165111 0,0 9.92193,-10.991405 26.40059,-12.773866 v 7.003039 c -0.0125,0 -0.0212,-0.0039 -0.0316,-0.0039 -8.64889,-1.037912 -15.40538,7.041681 -15.40538,7.041681 0,0 3.78699,13.60169 15.436965,17.516078 z"
     style="display:none;mix-blend-mode:normal;stroke-width:0.544263"
     sodipodi:nodetypes="ccccccccccccccc"
     clip-path="url(#clipPath7621)"
     transform="translate(4.9580049)" />
  <path
     id="path1"
     style="display:inline;opacity:0.28;fill:url(#linearGradient6);fill-opacity:1;stroke:none;stroke-width:3;stroke-linecap:round;stroke-linejoin:round;stroke-dasharray:none;stroke-dashoffset:149.514;stroke-opacity:1;paint-order:markers stroke fill;filter:url(#filter2)"
     d="m 114.69233,5.2834634 c -32.258453,0.03711 -64.517123,-0.03704 -96.775393,0.105469 -6.53247,0.543979 -12.2703902,6.3581516 -12.5292902,12.9140596 -0.2588,4.514307 -0.008,9.037111 -0.10503,13.555078 0.002,6.511589 0.004,13.023177 0.005,19.534766 C 16.482327,42.238309 29.300577,34.803805 43.310857,30.969248 c 10.6262,-2.847463 22.05078,-3.02351 32.63078,0.131535 13.54527,3.855663 25.595653,12.045865 35.121943,22.311196 1.27321,1.427686 2.5893,2.874808 3.50272,4.560898 0.99544,2.609395 -0.37672,5.526573 -2.41495,7.217978 -2.87611,3.134072 -5.87398,6.160076 -9.03756,9.004715 3.40305,-2.602891 6.67445,-5.376207 10.01789,-8.050606 2.19433,-1.373919 5.08587,-0.674354 7.01047,0.853286 3.25052,2.068997 6.72441,3.751073 10.02633,5.732476 -0.0165,-18.321927 0.0514,-36.646044 -0.1057,-54.966471 -0.61508,-5.94615 -5.44873,-11.2147599 -11.37009,-12.2041006 -1.31784,-0.243963 -2.66208,-0.328894 -4.00078,-0.276691 z M 88.041937,60.605726 c 0.30911,0.410364 0.0686,-1.037217 0,0 z m -34.76953,1.070313 c -2.86675,0.103661 -5.5027,1.508791 -7.66797,3.306641 1.57112,3.491017 3.73016,6.657806 6.7594,9.042162 2.88444,2.312662 6.62019,3.506907 10.31226,3.245727 2.57254,-0.122749 5.18966,-0.904465 7.56506,-2.020311 -2.17567,-0.436535 -3.94941,-2.118598 -4.7684,-4.143283 -1.8709,-2.955672 -3.40171,-6.424495 -6.5461,-8.260835 -1.73334,-0.896205 -3.71292,-1.254288 -5.65425,-1.170101 z"
     sodipodi:nodetypes="cccccccccccccccccccccccccccc" />
  <path
     id="path2"
     style="display:inline;opacity:0.16;fill:url(#linearGradient3);fill-opacity:1;stroke:none;stroke-width:3;stroke-linecap:round;stroke-linejoin:round;stroke-dasharray:none;stroke-dashoffset:149.514;stroke-opacity:1;paint-order:markers stroke fill;filter:url(#filter2)"
     d="m 53.272407,61.676039 c -2.86675,0.103661 -5.5027,1.508791 -7.66797,3.306641 1.57112,3.491017 3.73016,6.657806 6.7594,9.042162 2.88444,2.312662 6.62019,3.506907 10.31226,3.245727 2.57254,-0.122749 5.18966,-0.904465 7.56506,-2.020311 -2.17567,-0.436535 -3.94941,-2.118598 -4.7684,-4.143283 -1.8709,-2.955672 -3.40171,-6.424495 -6.5461,-8.260835 -1.73334,-0.896205 -3.71292,-1.254288 -5.65425,-1.170101 z M 5.2899868,94.314714 c 0.0442,7.962306 -0.0372,15.928766 0.17304,23.887926 0.85611,6.15909 6.2718202,11.44236 12.5276102,11.85004 3.62074,0.3612 7.47346,-0.0133 11.19076,0.13501 29.50655,-0.0197 59.01518,0.0313 88.520353,-0.11363 6.17317,-0.64725 11.61749,-5.8441 12.31032,-12.05494 0.36238,-4.14886 0.0717,-8.32091 0.17198,-12.47943 l -0.009,-17.754276 c -10.31276,6.75556 -21.9756,11.093145 -33.718193,14.641146 -11.46051,3.34373 -23.2873,5.72025 -35.25051,6.01168 -12.4534,0.0712 -24.98981,-3.5722 -35.18674,-10.788715 -8.42272,-5.815881 -15.36432,-13.612922 -20.7312802,-22.293799 6.5e-4,6.319662 0.001,12.639323 0.002,18.958988 z"
     sodipodi:nodetypes="cccccccccccccccccccccc" />
</g>
<metadata
   id="metadata1">
  <rdf:RDF>
    <cc:Work
       rdf:about="">
      <dc:creator>
        <cc:Agent>
          <dc:title>Jess Tipton</dc:title>
        </cc:Agent>
      </dc:creator>
      <dc:publisher>
        <cc:Agent>
          <dc:title>m0dw3rks.com</dc:title>
        </cc:Agent>
      </dc:publisher>
      <cc:license
         rdf:resource="https://creativecommons.org/licenses/by-nc-nd/4.0/deed.en" />
    </cc:Work>
  </rdf:RDF>
</metadata>
<metadata
   id="metadata6">
  <rdf:RDF>
    <cc:Work
       rdf:about="">
      <dc:creator>
        <cc:Agent>
          <dc:title>Jess Tipton</dc:title>
        </cc:Agent>
      </dc:creator>
      <cc:license
         rdf:resource="https://creativecommons.org/licenses/by-nc-nd/4.0/deed.en" />
      <dc:publisher>
        <cc:Agent>
          <dc:title>m0dw3rks.com</dc:title>
        </cc:Agent>
      </dc:publisher>
    </cc:Work>
  </rdf:RDF>
</metadata>
<metadata
   id="metadata2">
  <rdf:RDF>
    <cc:Work
       rdf:about="">
      <dc:creator>
        <cc:Agent>
          <dc:title>Jess Tipton</dc:title>
        </cc:Agent>
      </dc:creator>
      <cc:license
         rdf:resource="https://creativecommons.org/licenses/by-nc-nd/4.0/deed.en" />
      <dc:publisher>
        <cc:Agent>
          <dc:title>m0dw3rks.com</dc:title>
        </cc:Agent>
      </dc:publisher>
    </cc:Work>
  </rdf:RDF>
</metadata>
<metadata
   id="metadata3">
  <rdf:RDF>
    <cc:Work
       rdf:about="">
      <dc:creator>
        <cc:Agent>
          <dc:title>Jess Tipton</dc:title>
        </cc:Agent>
      </dc:creator>
      <cc:license
         rdf:resource="https://creativecommons.org/licenses/by-nc-nd/4.0/deed.en" />
      <dc:publisher>
        <cc:Agent>
          <dc:title>m0dw3rks.com</dc:title>
        </cc:Agent>
      </dc:publisher>
    </cc:Work>
  </rdf:RDF>
</metadata>
<metadata
   id="metadata4">
  <rdf:RDF>
    <cc:Work
       rdf:about="">
      <dc:creator>
        <cc:Agent>
          <dc:title>Jess Tipton</dc:title>
        </cc:Agent>
      </dc:creator>
      <cc:license
         rdf:resource="https://creativecommons.org/licenses/by-nc-nd/4.0/deed.en" />
      <dc:publisher>
        <cc:Agent>
          <dc:title>m0dw3rks.com</dc:title>
        </cc:Agent>
      </dc:publisher>
    </cc:Work>
  </rdf:RDF>
</metadata>
<metadata
   id="metadata5">
  <rdf:RDF>
    <cc:Work
       rdf:about="">
      <dc:creator>
        <cc:Agent>
          <dc:title>Jess Tipton</dc:title>
        </cc:Agent>
      </dc:creator>
      <cc:license
         rdf:resource="https://creativecommons.org/licenses/by-nc-nd/4.0/deed.en" />
      <dc:publisher>
        <cc:Agent>
          <dc:title>m0dw3rks.com</dc:title>
        </cc:Agent>
      </dc:publisher>
    </cc:Work>
  </rdf:RDF>
</metadata>
<metadata
   id="metadata7">
  <rdf:RDF>
    <cc:Work
       rdf:about="">
      <dc:creator>
        <cc:Agent>
          <dc:title>Jess Tipton</dc:title>
        </cc:Agent>
      </dc:creator>
      <cc:license
         rdf:resource="https://creativecommons.org/licenses/by-nc-nd/4.0/deed.en" />
      <dc:publisher>
        <cc:Agent>
          <dc:title>m0dw3rks.com</dc:title>
        </cc:Agent>
      </dc:publisher>
    </cc:Work>
  </rdf:RDF>
</metadata>
<metadata
   id="metadata8">
  <rdf:RDF>
    <cc:Work
       rdf:about="">
      <dc:creator>
        <cc:Agent>
          <dc:title>Jess Tipton</dc:title>
        </cc:Agent>
      </dc:creator>
      <cc:license
         rdf:resource="https://creativecommons.org/licenses/by-nc-nd/4.0/deed.en" />
      <dc:publisher>
        <cc:Agent>
          <dc:title>m0dw3rks.com</dc:title>
        </cc:Agent>
      </dc:publisher>
    </cc:Work>
  </rdf:RDF>
</metadata>
<metadata
   id="metadata9">
  <rdf:RDF>
    <cc:Work
       rdf:about="">
      <dc:creator>
        <cc:Agent>
          <dc:title>Jess Tipton</dc:title>
        </cc:Agent>
      </dc:creator>
      <cc:license
         rdf:resource="https://creativecommons.org/licenses/by-nc-nd/4.0/deed.en" />
      <dc:publisher>
        <cc:Agent>
          <dc:title>m0dw3rks.com</dc:title>
        </cc:Agent>
      </dc:publisher>
    </cc:Work>
  </rdf:RDF>
</metadata>
<metadata
   id="metadata10">
  <rdf:RDF>
    <cc:Work
       rdf:about="">
      <dc:creator>
        <cc:Agent>
          <dc:title>Jess Tipton</dc:title>
        </cc:Agent>
      </dc:creator>
      <cc:license
         rdf:resource="https://creativecommons.org/licenses/by-nc-nd/4.0/deed.en" />
      <dc:publisher>
        <cc:Agent>
          <dc:title>m0dw3rks.com</dc:title>
        </cc:Agent>
      </dc:publisher>
    </cc:Work>
  </rdf:RDF>
</metadata>
<metadata
   id="metadata11">
  <rdf:RDF>
    <cc:Work
       rdf:about="">
      <dc:creator>
        <cc:Agent>
          <dc:title>Jess Tipton</dc:title>
        </cc:Agent>
      </dc:creator>
      <cc:license
         rdf:resource="https://creativecommons.org/licenses/by-nc-nd/4.0/deed.en" />
      <dc:publisher>
        <cc:Agent>
          <dc:title>m0dw3rks.com</dc:title>
        </cc:Agent>
      </dc:publisher>
    </cc:Work>
  </rdf:RDF>
</metadata>
<metadata
   id="metadata12">
  <rdf:RDF>
    <cc:Work
       rdf:about="">
      <dc:creator>
        <cc:Agent>
          <dc:title>Jess Tipton</dc:title>
        </cc:Agent>
      </dc:creator>
      <cc:license
         rdf:resource="https://creativecommons.org/licenses/by-nc-nd/4.0/deed.en" />
      <dc:publisher>
        <cc:Agent>
          <dc:title>m0dw3rks.com</dc:title>
        </cc:Agent>
      </dc:publisher>
    </cc:Work>
  </rdf:RDF>
</metadata>
<metadata
   id="metadata13">
  <rdf:RDF>
    <cc:Work
       rdf:about="">
      <dc:creator>
        <cc:Agent>
          <dc:title>Jess Tipton</dc:title>
        </cc:Agent>
      </dc:creator>
      <cc:license
         rdf:resource="https://creativecommons.org/licenses/by-nc-nd/4.0/deed.en" />
      <dc:publisher>
        <cc:Agent>
          <dc:title>m0dw3rks.com</dc:title>
        </cc:Agent>
      </dc:publisher>
    </cc:Work>
  </rdf:RDF>
</metadata>
<metadata
   id="metadata14">
  <rdf:RDF>
    <cc:Work
       rdf:about="">
      <dc:creator>
        <cc:Agent>
          <dc:title>Jess Tipton</dc:title>
        </cc:Agent>
      </dc:creator>
      <cc:license
         rdf:resource="https://creativecommons.org/licenses/by-nc-nd/4.0/deed.en" />
      <dc:publisher>
        <cc:Agent>
          <dc:title>m0dw3rks.com</dc:title>
        </cc:Agent>
      </dc:publisher>
    </cc:Work>
  </rdf:RDF>
</metadata>
<metadata
   id="metadata15">
  <rdf:RDF>
    <cc:Work
       rdf:about="">
      <dc:creator>
        <cc:Agent>
          <dc:title>Jess Tipton</dc:title>
        </cc:Agent>
      </dc:creator>
      <cc:license
         rdf:resource="https://creativecommons.org/licenses/by-nc-nd/4.0/deed.en" />
      <dc:publisher>
        <cc:Agent>
          <dc:title>m0dw3rks.com</dc:title>
        </cc:Agent>
      </dc:publisher>
    </cc:Work>
  </rdf:RDF>
</metadata>
<metadata
   id="metadata16">
  <rdf:RDF>
    <cc:Work
       rdf:about="">
      <dc:creator>
        <cc:Agent>
          <dc:title>Jess Tipton</dc:title>
        </cc:Agent>
      </dc:creator>
      <cc:license
         rdf:resource="https://creativecommons.org/licenses/by-nc-nd/4.0/deed.en" />
      <dc:publisher>
        <cc:Agent>
          <dc:title>m0dw3rks.com</dc:title>
        </cc:Agent>
      </dc:publisher>
    </cc:Work>
  </rdf:RDF>
</metadata>
<metadata
   id="metadata17">
  <rdf:RDF>
    <cc:Work
       rdf:about="">
      <dc:creator>
        <cc:Agent>
          <dc:title>Jess Tipton</dc:title>
        </cc:Agent>
      </dc:creator>
      <cc:license
         rdf:resource="https://creativecommons.org/licenses/by-nc-nd/4.0/deed.en" />
      <dc:publisher>
        <cc:Agent>
          <dc:title>m0dw3rks.com</dc:title>
        </cc:Agent>
      </dc:publisher>
    </cc:Work>
  </rdf:RDF>
</metadata>
<metadata
   id="metadata18">
  <rdf:RDF>
    <cc:Work
       rdf:about="">
      <dc:creator>
        <cc:Agent>
          <dc:title>Jess Tipton</dc:title>
        </cc:Agent>
      </dc:creator>
      <cc:license
         rdf:resource="https://creativecommons.org/licenses/by-nc-nd/4.0/deed.en" />
      <dc:publisher>
        <cc:Agent>
          <dc:title>m0dw3rks.com</dc:title>
        </cc:Agent>
      </dc:publisher>
    </cc:Work>
  </rdf:RDF>
</metadata>
</svg>
