<?xml version="1.0" encoding="UTF-8" standalone="no"?>
<!-- Created with Inkscape (http://www.inkscape.org/) -->

<svg
   width="512"
   height="512"
   viewBox="0 0 135.46666 135.46667"
   version="1.1"
   id="svg5"
   inkscape:version="1.2.1 (9c6d41e410, 2022-07-14, custom)"
   sodipodi:docname="zeal-panel.svg"
   xmlns:inkscape="http://www.inkscape.org/namespaces/inkscape"
   xmlns:sodipodi="http://sodipodi.sourceforge.net/DTD/sodipodi-0.dtd"
   xmlns:xlink="http://www.w3.org/1999/xlink"
   xmlns="http://www.w3.org/2000/svg"
   xmlns:svg="http://www.w3.org/2000/svg"
   xmlns:rdf="http://www.w3.org/1999/02/22-rdf-syntax-ns#"
   xmlns:cc="http://creativecommons.org/ns#"
   xmlns:dc="http://purl.org/dc/elements/1.1/">>
  <sodipodi:namedview
     id="namedview7"
     pagecolor="#505050"
     bordercolor="#ffffff"
     borderopacity="1"
     inkscape:showpageshadow="0"
     inkscape:pageopacity="0"
     inkscape:pagecheckerboard="1"
     inkscape:deskcolor="#505050"
     inkscape:document-units="mm"
     showgrid="false"
     inkscape:zoom="2.2428543"
     inkscape:cx="181.91106"
     inkscape:cy="234.52259"
     inkscape:window-width="3252"
     inkscape:window-height="1076"
     inkscape:window-x="1864"
     inkscape:window-y="0"
     inkscape:window-maximized="0"
     inkscape:current-layer="layer1"
     showguides="false">
    <sodipodi:guide
       position="22.869262,69.06387"
       orientation="1,0"
       id="guide3164"
       inkscape:locked="false" />
    <sodipodi:guide
       position="24.759501,69.569611"
       orientation="1,0"
       id="guide3166"
       inkscape:locked="false" />
  </sodipodi:namedview>
  <defs
     id="defs2">
    <linearGradient
       inkscape:collect="always"
       id="linearGradient30546">
      <stop
         style="stop-color:#4f2f11;stop-opacity:1;"
         offset="0"
         id="stop30542" />
      <stop
         style="stop-color:#782121;stop-opacity:0;"
         offset="1"
         id="stop30544" />
    </linearGradient>
    <linearGradient
       inkscape:collect="always"
       id="linearGradient28112">
      <stop
         style="stop-color:#4f2b11;stop-opacity:1;"
         offset="0"
         id="stop28106" />
      <stop
         style="stop-color:#782121;stop-opacity:0;"
         offset="1"
         id="stop28110" />
    </linearGradient>
    <linearGradient
       inkscape:collect="always"
       id="linearGradient23549">
      <stop
         style="stop-color:#555555;stop-opacity:1;"
         offset="0"
         id="stop23545" />
      <stop
         style="stop-color:#ffffff;stop-opacity:1;"
         offset="1"
         id="stop23547" />
    </linearGradient>
    <linearGradient
       inkscape:collect="always"
       id="linearGradient21090">
      <stop
         style="stop-color:#ff7b00;stop-opacity:1;"
         offset="0"
         id="stop21086" />
      <stop
         style="stop-color:#593009;stop-opacity:1;"
         offset="0.17417492"
         id="stop21370" />
      <stop
         style="stop-color:#ffb500;stop-opacity:1;"
         offset="0.3885183"
         id="stop21372" />
      <stop
         style="stop-color:#452c00;stop-opacity:1;"
         offset="0.58925712"
         id="stop22271" />
      <stop
         style="stop-color:#ffb500;stop-opacity:1;"
         offset="0.80912489"
         id="stop22273" />
      <stop
         style="stop-color:#ff7b00;stop-opacity:1;"
         offset="1"
         id="stop21088" />
    </linearGradient>
    <linearGradient
       inkscape:collect="always"
       id="linearGradient9943">
      <stop
         style="stop-color:#ffffff;stop-opacity:0;"
         offset="0"
         id="stop10156" />
      <stop
         style="stop-color:#782121;stop-opacity:1;"
         offset="0.04"
         id="stop9939" />
      <stop
         style="stop-color:#470b0b;stop-opacity:1;"
         offset="0.46000001"
         id="stop9947" />
      <stop
         style="stop-color:#470b0b;stop-opacity:1;"
         offset="0.54000002"
         id="stop13830" />
      <stop
         style="stop-color:#782121;stop-opacity:1;"
         offset="0.95999998"
         id="stop9941" />
      <stop
         style="stop-color:#ffffff;stop-opacity:0;"
         offset="1"
         id="stop10158" />
    </linearGradient>
    <linearGradient
       inkscape:collect="always"
       id="linearGradient1236">
      <stop
         style="stop-color:#4f1111;stop-opacity:1;"
         offset="0"
         id="stop1232" />
      <stop
         style="stop-color:#782121;stop-opacity:1;"
         offset="0.01142998"
         id="stop3007" />
      <stop
         style="stop-color:#782121;stop-opacity:1;"
         offset="1"
         id="stop1234" />
    </linearGradient>
    <linearGradient
       inkscape:collect="always"
       xlink:href="#linearGradient1236"
       id="linearGradient1238"
       x1="20.689106"
       y1="67.73333"
       x2="122.4899"
       y2="67.73333"
       gradientUnits="userSpaceOnUse"
       gradientTransform="translate(-3.8561709)" />
    <linearGradient
       inkscape:collect="always"
       xlink:href="#linearGradient9943"
       id="linearGradient9945"
       x1="9.1688786"
       y1="61.676082"
       x2="10.284362"
       y2="61.676082"
       gradientUnits="userSpaceOnUse"
       gradientTransform="matrix(1.664161,0,0,15.18027,4.966591,-868.5262)" />
    <linearGradient
       inkscape:collect="always"
       xlink:href="#linearGradient21090"
       id="linearGradient21092"
       x1="58.022179"
       y1="23.465506"
       x2="78.089287"
       y2="111.8681"
       gradientUnits="userSpaceOnUse"
       gradientTransform="translate(-3.8561709)" />
    <radialGradient
       inkscape:collect="always"
       xlink:href="#linearGradient21090"
       id="radialGradient22360"
       cx="150.48145"
       cy="48.547783"
       fx="150.48145"
       fy="48.547783"
       r="39.661243"
       gradientTransform="matrix(1,0,0,1.1262779,-80.102279,13.055032)"
       gradientUnits="userSpaceOnUse" />
    <linearGradient
       inkscape:collect="always"
       xlink:href="#linearGradient23549"
       id="linearGradient23559"
       gradientUnits="userSpaceOnUse"
       x1="-47.547806"
       y1="-27.345388"
       x2="-50.615517"
       y2="65.049164"
       gradientTransform="translate(118.09999,49.028448)" />
    <linearGradient
       inkscape:collect="always"
       xlink:href="#linearGradient28112"
       id="linearGradient28103"
       gradientUnits="userSpaceOnUse"
       gradientTransform="translate(-3.8565662,-1.1011667e-4)"
       x1="117.19732"
       y1="5.2930117"
       x2="34.521355"
       y2="78.841576" />
    <filter
       inkscape:collect="always"
       style="color-interpolation-filters:sRGB"
       id="filter28124"
       x="-0.0565891"
       y="-0.04133352"
       width="1.1131782"
       height="1.082667">
      <feGaussianBlur
         inkscape:collect="always"
         stdDeviation="2.1507355"
         id="feGaussianBlur28126" />
    </filter>
    <filter
       inkscape:collect="always"
       style="color-interpolation-filters:sRGB"
       id="filter28124-4"
       x="-0.056589098"
       y="-0.04133352"
       width="1.1131782"
       height="1.082667">
      <feGaussianBlur
         inkscape:collect="always"
         stdDeviation="2.1507355"
         id="feGaussianBlur28126-9" />
    </filter>
    <linearGradient
       inkscape:collect="always"
       xlink:href="#linearGradient30546"
       id="linearGradient30539"
       gradientUnits="userSpaceOnUse"
       gradientTransform="translate(-143.54992,-37.769759)"
       x1="117.19732"
       y1="5.2930117"
       x2="34.521355"
       y2="78.841576" />
    <filter
       inkscape:collect="always"
       style="color-interpolation-filters:sRGB"
       id="filter34562"
       x="-0.015871983"
       y="-0.013380264"
       width="1.031744"
       height="1.0267605">
      <feGaussianBlur
         inkscape:collect="always"
         stdDeviation="0.4672857"
         id="feGaussianBlur34564" />
    </filter>
  </defs>
  <g
     inkscape:label="Layer 1"
     inkscape:groupmode="layer"
     id="layer1">
    <rect
       style="fill:url(#linearGradient1238);fill-opacity:1;stroke-width:3.36301;stroke-linecap:round;stroke-linejoin:round;paint-order:fill markers stroke"
       id="rect792"
       width="101.8008"
       height="135.46666"
       x="16.832935"
       y="0"
       sodipodi:insensitive="true" />
    <path
       id="rect792-8"
       style="display:inline;opacity:0.475796;mix-blend-mode:normal;fill:url(#linearGradient28103);fill-opacity:1;stroke-width:3.36301;stroke-linecap:round;stroke-linejoin:round;paint-order:fill markers stroke;filter:url(#filter28124)"
       d="m 22.125914,130.17376 c 30.40494,0 60.809891,0 91.214836,0 0,-41.626952 0,-83.253905 0,-124.8808582 -30.404945,0 -60.809896,0 -91.214836,0 0,41.6269532 0,83.2539062 0,124.8808582 z"
       inkscape:label="cover-texture"
       transform="matrix(0.94788506,0,0,1,6.1757514,0)"
       sodipodi:insensitive="true" />
    <path
       id="rect792-8-2"
       style="display:inline;opacity:0.475796;mix-blend-mode:normal;fill:url(#linearGradient30539);fill-opacity:1;stroke-width:3.36301;stroke-linecap:round;stroke-linejoin:round;paint-order:fill markers stroke;filter:url(#filter28124-4)"
       d="m -117.56744,92.404111 c 30.404944,0 60.809895,0 91.21484,0 0,-41.626952 0,-83.253905 0,-124.880858 -30.404945,0 -60.809896,0 -91.21484,0 0,41.626953 0,83.253906 0,124.880858 z"
       inkscape:label="cover-texture"
       transform="matrix(-0.94389853,0,0,-1,2.3690162,97.82815)"
       sodipodi:insensitive="true" />
    <rect
       style="opacity:0.4;mix-blend-mode:normal;fill:url(#linearGradient9945);fill-opacity:1;stroke-width:16.903;stroke-linecap:round;stroke-linejoin:round;paint-order:fill markers stroke"
       id="rect9574"
       width="1.8563434"
       height="135.46666"
       x="20.225082"
       y="3.5603841e-06"
       sodipodi:insensitive="true" />
    <text
       xml:space="preserve"
       style="font-style:normal;font-weight:normal;font-size:122.215px;line-height:1.25;font-family:sans-serif;fill:url(#linearGradient21092);fill-opacity:1;stroke:none;stroke-width:3.05539;stroke-opacity:1"
       x="25.462677"
       y="110.56969"
       id="text17258"
       sodipodi:insensitive="true"><tspan
         sodipodi:role="line"
         id="tspan17256"
         style="font-style:normal;font-variant:normal;font-weight:normal;font-stretch:normal;font-size:122.215px;font-family:'Adobe Caslon Pro';-inkscape-font-specification:'Adobe Caslon Pro, Normal';font-variant-ligatures:normal;font-variant-caps:normal;font-variant-numeric:normal;font-variant-east-asian:normal;fill:url(#linearGradient21092);fill-opacity:1;stroke:none;stroke-width:3.05539;stroke-opacity:1"
         x="25.462677"
         y="110.56969">Z</tspan></text>
    <text
       xml:space="preserve"
       style="font-style:normal;font-weight:normal;font-size:122.215px;line-height:1.25;font-family:sans-serif;display:inline;opacity:0.269705;mix-blend-mode:overlay;fill:url(#radialGradient22360);fill-opacity:1;stroke:none;stroke-width:3.05539;stroke-opacity:1"
       x="25.462677"
       y="110.56968"
       id="text17258-4"><tspan
         sodipodi:role="line"
         id="tspan17256-7"
         style="font-style:normal;font-variant:normal;font-weight:normal;font-stretch:normal;font-size:122.215px;font-family:'Adobe Caslon Pro';-inkscape-font-specification:'Adobe Caslon Pro, Normal';font-variant-ligatures:normal;font-variant-caps:normal;font-variant-numeric:normal;font-variant-east-asian:normal;fill:url(#radialGradient22360);fill-opacity:1;stroke:none;stroke-width:3.05539;stroke-opacity:1"
         x="25.462677"
         y="110.56968">Z</tspan></text>
    <g
       aria-label="Z"
       id="text17258-6"
       style="font-size:122.215px;line-height:1.25;display:inline;opacity:0.224;fill:#ffcc00;stroke-width:3.05539"
       transform="translate(117.92596,48.881443)">
      <path
         d="m -59.098586,61.688244 c 11.610425,0 31.042609,0.48886 37.764434,1.344365 1.588795,0.24443 2.566515,0.48886 3.055375,0.48886 0.611075,0 1.344365,-0.48886 1.588795,-1.344365 0.97772,-3.299805 7.0884698,-18.08782 8.6772647,-21.143195 0.24443,-0.48886 0.122215,-0.855504 -0.2444299,-1.099934 l -1.71101,-0.97772 c -0.4888598,-0.24443 -0.7332898,-0.122215 -1.0999348,0.24443 -1.588795,2.077654 -12.588145,15.276874 -17.1101,18.087819 H -71.19787 c 2.322085,-3.788665 56.096683,-77.239878 58.418768,-79.928608 1.344365,-1.588795 1.099935,-2.93316 -0.855505,-2.93316 -4.277525,0 -8.55505,0.122215 -12.95479,0.366645 -4.39974,0.122215 -8.799479,0.366645 -13.199219,0.366645 -10.143845,0 -27.376159,0 -33.120264,-0.73329 -0.97772,-0.122215 -1.95544,-0.24443 -2.4443,-0.24443 -0.611075,0 -1.099935,0.24443 -1.46658,1.344365 l -7.699545,21.9986998 c -0.24443,0.73329 -0.122215,0.855505 0.24443,1.099935 l 1.588795,0.73328993 c 0.366645,0.24443 0.73329,0.36664499 1.099935,-0.12221499 2.322085,-3.78866484 12.343715,-16.13237974 14.91023,-18.21003474 1.711009,-1.344365 3.177589,-1.95544 4.888599,-1.95544 h 33.120264 c -0.855505,1.46658 -51.452513,71.862418 -57.807693,79.317533 -0.611075,0.611075 -0.73329,1.588795 -0.73329,2.322085 0,0.97772 1.344365,0.97772 2.322085,0.97772 z"
         style="font-family:'Adobe Caslon Pro';-inkscape-font-specification:'Adobe Caslon Pro, Normal';fill:#ffcc00"
         id="path18086" />
    </g>
    <g
       aria-label="Z"
       id="text17258-6-9"
       style="font-size:122.215px;line-height:1.25;display:inline;opacity:1;fill:#ffcc00;stroke-width:3.05539"
       transform="translate(-1.76351,46.030094)">
      <path
         id="path18086-2"
         style="font-family:'Adobe Caslon Pro';-inkscape-font-specification:'Adobe Caslon Pro, Normal';opacity:0.204371;fill:#ffffff;fill-opacity:1;filter:url(#filter34562)"
         d="m 40.241827,-11.628412 c -0.624761,1.7930519 -1.256372,3.5837244 -1.875,5.3789067 3.311171,-4.3373737 6.806958,-8.5432517 10.544327,-12.5192917 0.958493,-0.944809 2.117601,-1.814952 3.254501,-2.427975 -2.794359,-0.113403 -5.586184,-0.296871 -8.367187,-0.595703 z m 58.580072,-9.919922 c -1.583586,0.04661 -3.167287,0.09031 -4.749994,0.162109 C 81.36127,-3.2359083 68.838165,15.384928 55.83321,33.326171 49.055803,42.632017 41.728804,51.213534 34.696905,60.328619 c 2.679688,5.94e-4 5.359376,0.006 8.039063,0.002 C 50.220316,49.239113 57.274638,35.575968 65.101852,24.728045 77.130675,8.2438741 90.16127,-5.2623124 102.39025,-21.599069 c -1.1896,-0.0043 -2.37892,0.03515 -3.568351,0.05078 z m 5.365231,69.78125 c -3.71872,4.294633 -7.530437,8.569497 -11.977574,12.131333 -0.496645,0.35706 -1.05006,0.654444 -1.64937,0.792495 2.934937,0.140878 5.865189,0.405377 8.76757,0.867187 1.282994,-3.821086 2.886304,-7.525148 4.379414,-11.26665 0.54012,-1.303223 1.08608,-2.603426 1.64793,-3.897412 -0.38933,0.457682 -0.77865,0.915364 -1.16797,1.373047 z"
         sodipodi:nodetypes="cccccccccccccccccccccc" />
    </g>
    <path
       style="color:#000000;font-size:122.215px;-inkscape-font-specification:'Adobe Caslon Pro, Normal';display:inline;mix-blend-mode:overlay;fill:url(#linearGradient23559);stroke:none;stroke-width:0.455"
       d="m 42.746477,22.983526 c -0.33587,0 -0.67723,0.07369 -0.96875,0.310547 -0.29151,0.236855 -0.52157,0.615506 -0.71289,1.189453 v -0.0039 l -7.69922,22 v 0.002 c -0.12701,0.381033 -0.17999,0.635694 -0.10937,0.871094 0.0706,0.235399 0.25518,0.364783 0.44336,0.490234 l 0.0137,0.0098 1.57422,0.724609 c 0.19788,0.131922 0.41662,0.251953 0.67578,0.251953 0.25915,0 0.5218,-0.146904 0.73242,-0.427734 l 0.006,-0.0078 0.006,-0.0098 c 1.14236,-1.863861 4.23231,-5.907229 7.3457,-9.722657 1.55669,-1.907713 3.1213,-3.760356 4.45508,-5.265625 1.33378,-1.505268 2.44631,-2.668408 3.058593,-3.164062 1.686598,-1.324683 3.090048,-1.904297 4.746094,-1.904297 h 32.689453 c -0.117099,0.173447 -0.196273,0.291514 -0.476563,0.691406 -0.418621,0.597252 -1.009308,1.432981 -1.748047,2.472657 -1.477478,2.079351 -3.547884,4.978459 -6.029296,8.439453 -4.962826,6.921987 -11.566737,16.090502 -18.341797,25.447265 -6.775061,9.356764 -13.721197,18.902233 -19.371097,26.572266 -5.64989,7.670033 -10.01317,13.475682 -11.58398,15.318362 l 0.0137,-0.0117 c -0.68615,0.68614 -0.80078,1.72385 -0.80078,2.48242 0,0.29656 0.11347,0.55197 0.29492,0.72851 0.18145,0.17655 0.41571,0.27844 0.66797,0.34571 0.50452,0.13453 1.09708,0.13086 1.58594,0.13086 h 25.789059 c 11.602036,0 31.047167,0.49212 37.728513,1.34179 1.58013,0.2431 2.52515,0.49024 3.08985,0.49024 0.731661,0 1.534671,-0.55856 1.806641,-1.50586 l 0.002,-0.002 c 0.958,-3.23198 7.1,-18.101264 8.66015,-21.101564 v -0.002 l 0.002,-0.002 c 0.13917,-0.278344 0.18475,-0.550082 0.12305,-0.796875 -0.0617,-0.246794 -0.22802,-0.448885 -0.44531,-0.59375 l -0.006,-0.0039 -1.72461,-0.984375 -0.006,-0.0039 c -0.27156,-0.13578 -0.52253,-0.186682 -0.75586,-0.123047 -0.23333,0.06363 -0.41321,0.217897 -0.60547,0.410156 l -0.0117,0.01172 -0.008,0.01172 c -0.78172,1.022254 -3.93571,4.849522 -7.445311,8.755859 -3.492888,3.887736 -7.363175,7.858856 -9.564455,9.242186 H 47.338407 c 0.37124,-0.57368 1.26743,-1.86285 2.83008,-4.05078 1.696635,-2.37553 3.997293,-5.566691 6.699217,-9.296874 C 62.271553,85.280929 69.283513,75.6613 76.295439,66.07528 83.307364,56.48926 90.319275,46.937292 95.723173,39.614343 c 2.701946,-3.661475 5.002507,-6.766524 6.699217,-9.039063 1.69671,-2.272539 2.80556,-3.7325 3.07031,-4.039062 h 0.002 c 0.69702,-0.823741 1.02368,-1.613444 0.85547,-2.267579 -0.0841,-0.327067 -0.306,-0.603369 -0.6289,-0.779296 -0.32291,-0.175928 -0.74093,-0.261719 -1.25586,-0.261719 -4.28186,0 -8.563103,0.122537 -12.966799,0.367187 -4.401984,0.122386 -8.79814,0.365235 -13.1875,0.365235 -10.143835,0 -27.404394,-0.0044 -33.091794,-0.730469 -0.97772,-0.122215 -1.94588,-0.246094 -2.47266,-0.246094 z m 0,0.455078 c 0.45094,0 1.4383,0.119973 2.41602,0.242188 5.80079,0.740526 23.0046,0.734375 33.148435,0.734375 4.408161,0 8.80955,-0.243137 13.205078,-0.365235 h 0.0039 0.0039 c 4.395775,-0.244209 8.66822,-0.367187 12.94141,-0.367187 0.46279,0 0.80818,0.08124 1.03906,0.207031 0.23088,0.12579 0.35286,0.284565 0.40625,0.492188 0.10678,0.415245 -0.11632,1.094322 -0.76367,1.859375 -0.31641,0.366557 -1.39314,1.789959 -3.08985,4.0625 -1.69762,2.273759 -3.998931,5.377192 -6.701169,9.039062 -5.40448,7.32374 -12.415503,16.876452 -19.427734,26.462891 -7.012231,9.586438 -14.025158,19.206663 -19.429687,26.667968 -2.702265,3.730653 -5.001529,6.921824 -6.699223,9.29883 -1.69769,2.377 -2.78489,3.92504 -3.09179,4.42578 l -0.21094,0.3457 h 43.490234 l 0.05469,-0.0332 c 2.32633,-1.4461 6.187328,-5.44591 9.705078,-9.361325 3.508901,-3.905557 6.630521,-7.693197 7.447271,-8.759766 0.002,-0.0015 0.002,-4.56e-4 0.004,-0.002 0.17204,-0.171435 0.29656,-0.263232 0.39843,-0.291016 0.10277,-0.02803 0.2163,-0.01685 0.4336,0.0918 l 1.6875,0.962891 c 0.14935,0.09956 0.22589,0.204368 0.25586,0.324219 0.03,0.11985 0.0154,0.273858 -0.0898,0.484375 -1.61808,3.112365 -7.69305,17.812162 -8.69141,21.181642 v 0.002 c -0.2177,0.76195 -0.88135,1.17968 -1.371091,1.17968 -0.41303,0 -1.42208,-0.24056 -3.01953,-0.48633 l -0.004,-0.002 h -0.002 c -6.765529,-0.86106 -26.176174,-1.3457 -37.792973,-1.3457 H 33.213221 c -0.48886,0 -1.05666,-0.005 -1.46875,-0.11523 -0.20604,-0.055 -0.36757,-0.13399 -0.46875,-0.23242 -0.10117,-0.0984 -0.15625,-0.21005 -0.15625,-0.40235 0,-0.70801 0.13002,-1.6261 0.66602,-2.16211 l 0.008,-0.006 0.006,-0.008 c 1.60678,-1.88487 5.9504,-7.671992 11.60156,-15.343745 5.65116,-7.671752 12.599486,-17.216829 19.375,-26.574219 6.775514,-9.357389 13.378484,-18.526551 18.341797,-25.449218 2.481657,-3.461334 4.553133,-6.361156 6.03125,-8.441406 0.739059,-1.040126 1.330364,-1.87591 1.75,-2.47461 0.419637,-0.5987 0.653836,-0.935036 0.730469,-1.066406 l 0.199219,-0.341797 H 56.312857 c -1.765175,0 -3.294965,0.641216 -5.0293,2.003906 h -0.002 v 0.002 c -0.67098,0.543173 -1.77361,1.702933 -3.11328,3.214844 -1.33967,1.511912 -2.90701,3.369749 -4.46679,5.28125 -3.1142,3.816419 -6.18493,7.825211 -7.36915,9.753906 -0.15602,0.20803 -0.26165,0.246094 -0.36914,0.246094 -0.10749,0 -0.25506,-0.06327 -0.42382,-0.175781 l -0.0137,-0.0098 -1.58008,-0.730469 c -0.16896,-0.113271 -0.23336,-0.167826 -0.25391,-0.236328 -0.021,-0.07014 -0.0119,-0.243447 0.10547,-0.595703 l 7.69922,-21.998047 v -0.002 c 0.17533,-0.525986 0.37101,-0.818172 0.56836,-0.978515 0.19734,-0.160344 0.40643,-0.208985 0.68164,-0.208985 z"
       id="path23557" />
  </g>
  <metadata
     id="metadata1">
    <rdf:RDF>
      <cc:Work
         rdf:about="">
        <dc:creator>
          <cc:Agent>
            <dc:title>Jess Tipton</dc:title>
          </cc:Agent>
        </dc:creator>
        <dc:publisher>
          <cc:Agent>
            <dc:title>m0dw3rks.com</dc:title>
          </cc:Agent>
        </dc:publisher>
        <cc:license
           rdf:resource="https://creativecommons.org/licenses/by-nc-nd/4.0/deed.en" />
      </cc:Work>
    </rdf:RDF>
  </metadata>
  <metadata
     id="metadata6">
    <rdf:RDF>
      <cc:Work
         rdf:about="">
        <dc:creator>
          <cc:Agent>
            <dc:title>Jess Tipton</dc:title>
          </cc:Agent>
        </dc:creator>
        <cc:license
           rdf:resource="https://creativecommons.org/licenses/by-nc-nd/4.0/deed.en" />
        <dc:publisher>
          <cc:Agent>
            <dc:title>m0dw3rks.com</dc:title>
          </cc:Agent>
        </dc:publisher>
      </cc:Work>
    </rdf:RDF>
  </metadata>
  <metadata
     id="metadata6">
    <rdf:RDF>
      <cc:Work
         rdf:about="">
        <dc:creator>
          <cc:Agent>
            <dc:title>Jess Tipton</dc:title>
          </cc:Agent>
        </dc:creator>
        <cc:license
           rdf:resource="https://creativecommons.org/licenses/by-nc-nd/4.0/deed.en" />
        <dc:publisher>
          <cc:Agent>
            <dc:title>m0dw3rks.com</dc:title>
          </cc:Agent>
        </dc:publisher>
      </cc:Work>
    </rdf:RDF>
  </metadata>
  <metadata
     id="metadata6">
    <rdf:RDF>
      <cc:Work
         rdf:about="">
        <dc:creator>
          <cc:Agent>
            <dc:title>Jess Tipton</dc:title>
          </cc:Agent>
        </dc:creator>
        <cc:license
           rdf:resource="https://creativecommons.org/licenses/by-nc-nd/4.0/deed.en" />
        <dc:publisher>
          <cc:Agent>
            <dc:title>m0dw3rks.com</dc:title>
          </cc:Agent>
        </dc:publisher>
      </cc:Work>
    </rdf:RDF>
  </metadata>
  <metadata
     id="metadata6">
    <rdf:RDF>
      <cc:Work
         rdf:about="">
        <dc:creator>
          <cc:Agent>
            <dc:title>Jess Tipton</dc:title>
          </cc:Agent>
        </dc:creator>
        <cc:license
           rdf:resource="https://creativecommons.org/licenses/by-nc-nd/4.0/deed.en" />
        <dc:publisher>
          <cc:Agent>
            <dc:title>m0dw3rks.com</dc:title>
          </cc:Agent>
        </dc:publisher>
      </cc:Work>
    </rdf:RDF>
  </metadata>
  <metadata
     id="metadata6">
    <rdf:RDF>
      <cc:Work
         rdf:about="">
        <dc:creator>
          <cc:Agent>
            <dc:title>Jess Tipton</dc:title>
          </cc:Agent>
        </dc:creator>
        <cc:license
           rdf:resource="https://creativecommons.org/licenses/by-nc-nd/4.0/deed.en" />
        <dc:publisher>
          <cc:Agent>
            <dc:title>m0dw3rks.com</dc:title>
          </cc:Agent>
        </dc:publisher>
      </cc:Work>
    </rdf:RDF>
  </metadata>
  <metadata
     id="metadata6">
    <rdf:RDF>
      <cc:Work
         rdf:about="">
        <dc:creator>
          <cc:Agent>
            <dc:title>Jess Tipton</dc:title>
          </cc:Agent>
        </dc:creator>
        <cc:license
           rdf:resource="https://creativecommons.org/licenses/by-nc-nd/4.0/deed.en" />
        <dc:publisher>
          <cc:Agent>
            <dc:title>m0dw3rks.com</dc:title>
          </cc:Agent>
        </dc:publisher>
      </cc:Work>
    </rdf:RDF>
  </metadata>
  <metadata
     id="metadata6">
    <rdf:RDF>
      <cc:Work
         rdf:about="">
        <dc:creator>
          <cc:Agent>
            <dc:title>Jess Tipton</dc:title>
          </cc:Agent>
        </dc:creator>
        <cc:license
           rdf:resource="https://creativecommons.org/licenses/by-nc-nd/4.0/deed.en" />
        <dc:publisher>
          <cc:Agent>
            <dc:title>m0dw3rks.com</dc:title>
          </cc:Agent>
        </dc:publisher>
      </cc:Work>
    </rdf:RDF>
  </metadata>
  <metadata
     id="metadata6">
    <rdf:RDF>
      <cc:Work
         rdf:about="">
        <dc:creator>
          <cc:Agent>
            <dc:title>Jess Tipton</dc:title>
          </cc:Agent>
        </dc:creator>
        <cc:license
           rdf:resource="https://creativecommons.org/licenses/by-nc-nd/4.0/deed.en" />
        <dc:publisher>
          <cc:Agent>
            <dc:title>m0dw3rks.com</dc:title>
          </cc:Agent>
        </dc:publisher>
      </cc:Work>
    </rdf:RDF>
  </metadata>
  <metadata
     id="metadata6">
    <rdf:RDF>
      <cc:Work
         rdf:about="">
        <dc:creator>
          <cc:Agent>
            <dc:title>Jess Tipton</dc:title>
          </cc:Agent>
        </dc:creator>
        <cc:license
           rdf:resource="https://creativecommons.org/licenses/by-nc-nd/4.0/deed.en" />
        <dc:publisher>
          <cc:Agent>
            <dc:title>m0dw3rks.com</dc:title>
          </cc:Agent>
        </dc:publisher>
      </cc:Work>
    </rdf:RDF>
  </metadata>
  <metadata
     id="metadata6">
    <rdf:RDF>
      <cc:Work
         rdf:about="">
        <dc:creator>
          <cc:Agent>
            <dc:title>Jess Tipton</dc:title>
          </cc:Agent>
        </dc:creator>
        <cc:license
           rdf:resource="https://creativecommons.org/licenses/by-nc-nd/4.0/deed.en" />
        <dc:publisher>
          <cc:Agent>
            <dc:title>m0dw3rks.com</dc:title>
          </cc:Agent>
        </dc:publisher>
      </cc:Work>
    </rdf:RDF>
  </metadata>
  <metadata
     id="metadata6">
    <rdf:RDF>
      <cc:Work
         rdf:about="">
        <dc:creator>
          <cc:Agent>
            <dc:title>Jess Tipton</dc:title>
          </cc:Agent>
        </dc:creator>
        <cc:license
           rdf:resource="https://creativecommons.org/licenses/by-nc-nd/4.0/deed.en" />
        <dc:publisher>
          <cc:Agent>
            <dc:title>m0dw3rks.com</dc:title>
          </cc:Agent>
        </dc:publisher>
      </cc:Work>
    </rdf:RDF>
  </metadata>
  <metadata
     id="metadata6">
    <rdf:RDF>
      <cc:Work
         rdf:about="">
        <dc:creator>
          <cc:Agent>
            <dc:title>Jess Tipton</dc:title>
          </cc:Agent>
        </dc:creator>
        <cc:license
           rdf:resource="https://creativecommons.org/licenses/by-nc-nd/4.0/deed.en" />
        <dc:publisher>
          <cc:Agent>
            <dc:title>m0dw3rks.com</dc:title>
          </cc:Agent>
        </dc:publisher>
      </cc:Work>
    </rdf:RDF>
  </metadata>
  <metadata
     id="metadata6">
    <rdf:RDF>
      <cc:Work
         rdf:about="">
        <dc:creator>
          <cc:Agent>
            <dc:title>Jess Tipton</dc:title>
          </cc:Agent>
        </dc:creator>
        <cc:license
           rdf:resource="https://creativecommons.org/licenses/by-nc-nd/4.0/deed.en" />
        <dc:publisher>
          <cc:Agent>
            <dc:title>m0dw3rks.com</dc:title>
          </cc:Agent>
        </dc:publisher>
      </cc:Work>
    </rdf:RDF>
  </metadata>
  <metadata
     id="metadata6">
    <rdf:RDF>
      <cc:Work
         rdf:about="">
        <dc:creator>
          <cc:Agent>
            <dc:title>Jess Tipton</dc:title>
          </cc:Agent>
        </dc:creator>
        <cc:license
           rdf:resource="https://creativecommons.org/licenses/by-nc-nd/4.0/deed.en" />
        <dc:publisher>
          <cc:Agent>
            <dc:title>m0dw3rks.com</dc:title>
          </cc:Agent>
        </dc:publisher>
      </cc:Work>
    </rdf:RDF>
  </metadata>
  <metadata
     id="metadata6">
    <rdf:RDF>
      <cc:Work
         rdf:about="">
        <dc:creator>
          <cc:Agent>
            <dc:title>Jess Tipton</dc:title>
          </cc:Agent>
        </dc:creator>
        <cc:license
           rdf:resource="https://creativecommons.org/licenses/by-nc-nd/4.0/deed.en" />
        <dc:publisher>
          <cc:Agent>
            <dc:title>m0dw3rks.com</dc:title>
          </cc:Agent>
        </dc:publisher>
      </cc:Work>
    </rdf:RDF>
  </metadata>
  <metadata
     id="metadata6">
    <rdf:RDF>
      <cc:Work
         rdf:about="">
        <dc:creator>
          <cc:Agent>
            <dc:title>Jess Tipton</dc:title>
          </cc:Agent>
        </dc:creator>
        <cc:license
           rdf:resource="https://creativecommons.org/licenses/by-nc-nd/4.0/deed.en" />
        <dc:publisher>
          <cc:Agent>
            <dc:title>m0dw3rks.com</dc:title>
          </cc:Agent>
        </dc:publisher>
      </cc:Work>
    </rdf:RDF>
  </metadata>
  <metadata
     id="metadata6">
    <rdf:RDF>
      <cc:Work
         rdf:about="">
        <dc:creator>
          <cc:Agent>
            <dc:title>Jess Tipton</dc:title>
          </cc:Agent>
        </dc:creator>
        <cc:license
           rdf:resource="https://creativecommons.org/licenses/by-nc-nd/4.0/deed.en" />
        <dc:publisher>
          <cc:Agent>
            <dc:title>m0dw3rks.com</dc:title>
          </cc:Agent>
        </dc:publisher>
      </cc:Work>
    </rdf:RDF>
  </metadata>
</svg>
