<?xml version="1.0" encoding="UTF-8" standalone="no"?>
<!-- Created with Inkscape (http://www.inkscape.org/) -->

<svg
   width="512"
   height="512"
   viewBox="0 0 135.46666 135.46667"
   version="1.1"
   id="svg5"
   inkscape:version="1.4.2 (ebf0e940d0, 2025-05-08)"
   sodipodi:docname="audio-speaker-right-back.svg"
   xmlns:inkscape="http://www.inkscape.org/namespaces/inkscape"
   xmlns:sodipodi="http://sodipodi.sourceforge.net/DTD/sodipodi-0.dtd"
   xmlns="http://www.w3.org/2000/svg"
   xmlns:svg="http://www.w3.org/2000/svg">
  <sodipodi:namedview
     id="namedview7"
     pagecolor="#242424"
     bordercolor="#666666"
     borderopacity="1"
     inkscape:showpageshadow="0"
     inkscape:pageopacity="0"
     inkscape:pagecheckerboard="1"
     inkscape:deskcolor="#000000"
     inkscape:document-units="px"
     showgrid="false"
     inkscape:zoom="1.3037281"
     inkscape:cx="370.85954"
     inkscape:cy="225.89066"
     inkscape:window-width="3256"
     inkscape:window-height="1080"
     inkscape:window-x="1864"
     inkscape:window-y="0"
     inkscape:window-maximized="0"
     inkscape:current-layer="layer1" />
  <defs
     id="defs2" />
  <g
     inkscape:label="Layer 1"
     inkscape:groupmode="layer"
     id="layer1">
    <g
       id="g1"
       transform="translate(-2.8548191,-3.3209863)">
      <rect
         style="fill:#b3b3b3;stroke-width:0.264998;stroke-linecap:round;stroke-linejoin:round;stroke-miterlimit:12;paint-order:markers stroke fill"
         id="rect1"
         width="72.044991"
         height="34.50042"
         x="-36.352127"
         y="125.3179"
         ry="9.9869633"
         transform="rotate(-45)" />
      <path
         sodipodi:type="star"
         style="fill:#b3b3b3;stroke-width:0.186589;stroke-linecap:round;stroke-linejoin:round;stroke-miterlimit:12;paint-order:markers stroke fill"
         id="path1"
         inkscape:flatsided="true"
         sodipodi:sides="3"
         sodipodi:cx="72.450882"
         sodipodi:cy="65.753738"
         sodipodi:r1="45.678551"
         sodipodi:r2="22.839275"
         sodipodi:arg1="-1.5707963"
         sodipodi:arg2="-0.52359878"
         inkscape:rounded="0"
         inkscape:randomized="0"
         d="m 72.450883,20.075188 39.558787,68.517827 -79.117574,-2e-6 z"
         inkscape:transform-center-y="14.227036"
         transform="matrix(1.1448336,-1.1448336,-0.88094085,-0.88094085,47.445897,213.80047)" />
    </g>
    <path
       id="path2"
       style="baseline-shift:baseline;display:none;overflow:visible;vector-effect:none;fill:#ff7500;stroke-linecap:round;stroke-linejoin:round;stroke-miterlimit:12;paint-order:markers stroke fill;enable-background:accumulate;stop-color:#000000"
       d="M 17.756088,17.289736 C -1.4205408,36.466365 -3.7890183,66.160941 10.651101,87.935437 l 4.588058,-4.588058 C 3.172815,64.132196 5.5083328,38.517012 22.245849,21.779496 38.983364,5.0419808 64.597391,2.7076198 83.812268,14.77427 l 4.589159,-4.589159 C 66.627,-4.2550768 36.932717,-1.8868928 17.756088,17.289736 Z m 9.354068,9.354068 C 12.243345,41.510615 8.8308628,63.552745 16.873261,81.713277 l 4.851516,-4.851516 c -5.800788,-15.360938 -2.5095,-33.343557 9.87514,-45.728197 12.38464,-12.38464 30.367362,-15.676031 45.728196,-9.875139 l 4.850053,-4.850053 C 64.01803,8.3656761 41.976884,11.777076 27.110156,26.643804 Z m 9.355525,9.355524 C 26.156209,46.3088 22.205701,60.606162 24.615151,73.971388 l 5.678798,-5.678799 c -0.541778,-9.98797 3.012326,-20.15432 10.6615,-27.803493 7.649172,-7.649173 17.814914,-11.202668 27.802396,-10.660403 l 5.678796,-5.678795 c -13.364697,-2.409965 -27.661517,1.539988 -37.97096,11.84943 z" />
    <g
       id="g6"
       style="display:none"
       sodipodi:insensitive="true">
      <circle
         style="opacity:1;fill:none;stroke:#ff7500;stroke-width:6.35;stroke-linecap:round;stroke-linejoin:round;stroke-miterlimit:12;stroke-dasharray:none;stroke-opacity:1;paint-order:markers stroke fill"
         id="circle4"
         cx="68.392006"
         cy="56.620831"
         r="52.916664" />
      <circle
         style="opacity:1;fill:none;stroke:#ff7500;stroke-width:6.35;stroke-linecap:round;stroke-linejoin:round;stroke-miterlimit:12;stroke-dasharray:none;stroke-opacity:1;paint-order:markers stroke fill"
         id="circle5"
         cx="68.392006"
         cy="63.235413"
         r="46.302082" />
      <circle
         style="opacity:1;fill:none;stroke:#ff7500;stroke-width:6.35;stroke-linecap:round;stroke-linejoin:round;stroke-miterlimit:12;stroke-dasharray:none;stroke-opacity:1;paint-order:markers stroke fill"
         id="circle6"
         cx="68.392006"
         cy="69.849998"
         r="39.6875" />
    </g>
  </g>
</svg>
