<?xml version="1.0" encoding="UTF-8" standalone="no"?>
<!-- Created with Inkscape (http://www.inkscape.org/) -->

<svg
   width="512"
   height="512"
   viewBox="0 0 135.46666 135.46667"
   version="1.1"
   id="svg5"
   inkscape:version="1.4.2 (ebf0e940d0, 2025-05-08)"
   sodipodi:docname="audio-speaker-center-back.svg"
   xmlns:inkscape="http://www.inkscape.org/namespaces/inkscape"
   xmlns:sodipodi="http://sodipodi.sourceforge.net/DTD/sodipodi-0.dtd"
   xmlns="http://www.w3.org/2000/svg"
   xmlns:svg="http://www.w3.org/2000/svg">
  <sodipodi:namedview
     id="namedview7"
     pagecolor="#242424"
     bordercolor="#666666"
     borderopacity="1"
     inkscape:showpageshadow="0"
     inkscape:pageopacity="0"
     inkscape:pagecheckerboard="1"
     inkscape:deskcolor="#000000"
     inkscape:document-units="px"
     showgrid="false"
     inkscape:zoom="1.3037281"
     inkscape:cx="370.85954"
     inkscape:cy="225.89066"
     inkscape:window-width="3256"
     inkscape:window-height="1080"
     inkscape:window-x="1864"
     inkscape:window-y="0"
     inkscape:window-maximized="0"
     inkscape:current-layer="layer1" />
  <defs
     id="defs2" />
  <g
     inkscape:label="Layer 1"
     inkscape:groupmode="layer"
     id="layer1">
    <g
       id="g1"
       transform="translate(0,-25.102105)">
      <rect
         style="opacity:1;fill:#b3b3b3;stroke-width:0.264998;stroke-linecap:round;stroke-linejoin:round;stroke-miterlimit:12;paint-order:markers stroke fill"
         id="rect1"
         width="72.044991"
         height="34.50042"
         x="31.710836"
         y="101.06593"
         ry="9.9869633" />
      <path
         sodipodi:type="star"
         style="opacity:1;fill:#b3b3b3;stroke-width:0.186589;stroke-linecap:round;stroke-linejoin:round;stroke-miterlimit:12;paint-order:markers stroke fill"
         id="path1"
         inkscape:flatsided="true"
         sodipodi:sides="3"
         sodipodi:cx="72.450882"
         sodipodi:cy="65.753738"
         sodipodi:r1="45.678551"
         sodipodi:r2="22.839275"
         sodipodi:arg1="-1.5707963"
         sodipodi:arg2="-0.52359878"
         inkscape:rounded="0"
         inkscape:randomized="0"
         d="m 72.450883,20.075188 39.558787,68.517827 -79.117574,-2e-6 z"
         inkscape:transform-center-y="14.227036"
         transform="matrix(1.6190392,0,0,-1.2458385,-49.567486,160.47711)" />
    </g>
    <path
       id="path2"
       style="baseline-shift:baseline;display:none;overflow:visible;opacity:1;vector-effect:none;fill:#ff7500;stroke-linecap:round;stroke-linejoin:round;stroke-miterlimit:12;paint-order:markers stroke fill;enable-background:accumulate;stop-color:#000000;stop-opacity:1"
       d="m 68.392724,0.52916666 c -27.119849,0 -49.791852,19.32247634 -54.978039,44.93007334 h 6.488493 C 24.958171,23.339863 44.722302,6.8786498 68.392724,6.8786498 92.063145,6.8786499 111.82564,23.339863 116.8802,45.45924 h 6.49005 C 118.18416,19.851643 95.512572,0.52916667 68.392724,0.52916666 Z m 0,13.22864934 c -21.024846,0 -39.023975,13.173151 -46.178576,31.701424 h 6.86108 C 35.835274,30.495644 50.878198,20.1073 68.392724,20.1073 c 17.514526,0 32.557596,10.388344 39.317496,25.35194 h 6.85901 C 107.41512,26.931036 89.417452,13.757816 68.392724,13.757816 Z m 0,13.230717 c -14.579795,0 -27.482988,7.316326 -35.229891,18.470707 h 8.031034 c 6.679466,-7.445656 16.381292,-12.121224 27.198857,-12.121224 10.817564,0 20.518529,4.675568 27.197306,12.121224 h 8.03103 C 95.874894,34.304872 82.972478,26.988533 68.392724,26.988533 Z" />
    <g
       id="g6"
       style="display:none"
       sodipodi:insensitive="true">
      <circle
         style="opacity:1;fill:none;stroke:#ff7500;stroke-width:6.35;stroke-linecap:round;stroke-linejoin:round;stroke-miterlimit:12;stroke-dasharray:none;stroke-opacity:1;paint-order:markers stroke fill"
         id="circle4"
         cx="68.392006"
         cy="56.620831"
         r="52.916664" />
      <circle
         style="opacity:1;fill:none;stroke:#ff7500;stroke-width:6.35;stroke-linecap:round;stroke-linejoin:round;stroke-miterlimit:12;stroke-dasharray:none;stroke-opacity:1;paint-order:markers stroke fill"
         id="circle5"
         cx="68.392006"
         cy="63.235413"
         r="46.302082" />
      <circle
         style="opacity:1;fill:none;stroke:#ff7500;stroke-width:6.35;stroke-linecap:round;stroke-linejoin:round;stroke-miterlimit:12;stroke-dasharray:none;stroke-opacity:1;paint-order:markers stroke fill"
         id="circle6"
         cx="68.392006"
         cy="69.849998"
         r="39.6875" />
    </g>
  </g>
</svg>
