<?xml version="1.0" encoding="UTF-8" standalone="no"?>
<!-- Created with Inkscape (http://www.inkscape.org/) -->

<svg
   width="512"
   height="512"
   viewBox="0 0 135.46666 135.46667"
   version="1.1"
   id="svg5"
   inkscape:version="1.4.2 (ebf0e940d0, 2025-05-08)"
   sodipodi:docname="audio-speaker-left-back.svg"
   xmlns:inkscape="http://www.inkscape.org/namespaces/inkscape"
   xmlns:sodipodi="http://sodipodi.sourceforge.net/DTD/sodipodi-0.dtd"
   xmlns="http://www.w3.org/2000/svg"
   xmlns:svg="http://www.w3.org/2000/svg">
  <sodipodi:namedview
     id="namedview7"
     pagecolor="#242424"
     bordercolor="#666666"
     borderopacity="1"
     inkscape:showpageshadow="0"
     inkscape:pageopacity="0"
     inkscape:pagecheckerboard="1"
     inkscape:deskcolor="#000000"
     inkscape:document-units="px"
     showgrid="false"
     inkscape:zoom="1.3037281"
     inkscape:cx="370.85954"
     inkscape:cy="225.89066"
     inkscape:window-width="3256"
     inkscape:window-height="1080"
     inkscape:window-x="1864"
     inkscape:window-y="0"
     inkscape:window-maximized="0"
     inkscape:current-layer="layer1" />
  <defs
     id="defs2" />
  <g
     inkscape:label="Layer 1"
     inkscape:groupmode="layer"
     id="layer1">
    <g
       id="g1"
       transform="translate(2.85482,-3.3209875)">
      <rect
         style="fill:#b3b3b3;stroke-width:0.264998;stroke-linecap:round;stroke-linejoin:round;stroke-miterlimit:12;paint-order:markers stroke fill"
         id="rect1"
         width="72.044991"
         height="34.50042"
         x="-132.14153"
         y="29.528507"
         ry="9.9869633"
         transform="matrix(-0.70710678,-0.70710678,-0.70710678,0.70710678,0,0)" />
      <path
         sodipodi:type="star"
         style="fill:#b3b3b3;stroke-width:0.186589;stroke-linecap:round;stroke-linejoin:round;stroke-miterlimit:12;paint-order:markers stroke fill"
         id="path1"
         inkscape:flatsided="true"
         sodipodi:sides="3"
         sodipodi:cx="72.450882"
         sodipodi:cy="65.753738"
         sodipodi:r1="45.678551"
         sodipodi:r2="22.839275"
         sodipodi:arg1="-1.5707963"
         sodipodi:arg2="-0.52359878"
         inkscape:rounded="0"
         inkscape:randomized="0"
         d="m 72.450883,20.075188 39.558787,68.517827 -79.117574,-2e-6 z"
         inkscape:transform-center-y="14.227036"
         transform="matrix(-1.1448336,-1.1448336,0.88094085,-0.88094085,88.020768,213.80047)" />
    </g>
    <path
       id="path2"
       style="baseline-shift:baseline;display:none;overflow:visible;vector-effect:none;fill:#ff7500;stroke-linecap:round;stroke-linejoin:round;stroke-miterlimit:12;paint-order:markers stroke fill;enable-background:accumulate;stop-color:#000000"
       d="m 117.71058,17.289735 c 19.17663,19.17663 21.5451,48.871206 7.10498,70.645702 l -4.58805,-4.588058 C 132.29385,64.132196 129.95833,38.517012 113.22082,21.779496 96.483301,5.0419805 70.869273,2.7076195 51.654396,14.774269 l -4.589158,-4.589158 c 21.774427,-14.4401881 51.46871,-12.0720041 70.645342,7.104624 z m -9.35407,9.354068 c 14.86681,14.866812 18.27929,36.908942 10.23689,55.069474 l -4.85151,-4.851516 c 5.80079,-15.360938 2.5095,-33.343557 -9.87514,-45.728197 C 91.482108,18.748924 73.499385,15.457533 58.138551,21.258425 L 53.288499,16.408372 C 71.448634,8.3656759 93.489781,11.777076 108.35651,26.643803 Z m -9.355526,9.355525 C 109.31046,46.3088 113.26096,60.606162 110.85151,73.971387 l -5.67879,-5.678798 C 105.71449,58.304619 102.16039,48.138269 94.511216,40.489096 86.862043,32.839923 76.696302,29.286428 66.70882,29.828693 l -5.678796,-5.678796 c 13.364697,-2.409964 27.661517,1.539988 37.97096,11.849431 z" />
    <g
       id="g6"
       style="display:none"
       sodipodi:insensitive="true">
      <circle
         style="opacity:1;fill:none;stroke:#ff7500;stroke-width:6.35;stroke-linecap:round;stroke-linejoin:round;stroke-miterlimit:12;stroke-dasharray:none;stroke-opacity:1;paint-order:markers stroke fill"
         id="circle4"
         cx="68.392006"
         cy="56.620831"
         r="52.916664" />
      <circle
         style="opacity:1;fill:none;stroke:#ff7500;stroke-width:6.35;stroke-linecap:round;stroke-linejoin:round;stroke-miterlimit:12;stroke-dasharray:none;stroke-opacity:1;paint-order:markers stroke fill"
         id="circle5"
         cx="68.392006"
         cy="63.235413"
         r="46.302082" />
      <circle
         style="opacity:1;fill:none;stroke:#ff7500;stroke-width:6.35;stroke-linecap:round;stroke-linejoin:round;stroke-miterlimit:12;stroke-dasharray:none;stroke-opacity:1;paint-order:markers stroke fill"
         id="circle6"
         cx="68.392006"
         cy="69.849998"
         r="39.6875" />
    </g>
  </g>
</svg>
