<?xml version="1.0" encoding="UTF-8" standalone="no"?>
<!-- Created with Inkscape (http://www.inkscape.org/) -->

<svg
   width="512"
   height="512"
   viewBox="0 0 135.46666 135.46667"
   version="1.1"
   id="svg5"
   inkscape:version="1.4.2 (ebf0e940d0, 2025-05-08)"
   xml:space="preserve"
   sodipodi:docname="audio-headphones.svg"
   xmlns:inkscape="http://www.inkscape.org/namespaces/inkscape"
   xmlns:sodipodi="http://sodipodi.sourceforge.net/DTD/sodipodi-0.dtd"
   xmlns:xlink="http://www.w3.org/1999/xlink"
   xmlns="http://www.w3.org/2000/svg"
   xmlns:svg="http://www.w3.org/2000/svg"><sodipodi:namedview
     id="namedview7"
     pagecolor="#242424"
     bordercolor="#666666"
     borderopacity="1"
     inkscape:showpageshadow="0"
     inkscape:pageopacity="0"
     inkscape:pagecheckerboard="1"
     inkscape:deskcolor="#000000"
     inkscape:document-units="px"
     showgrid="false"
     inkscape:zoom="0.65186406"
     inkscape:cx="751.69047"
     inkscape:cy="548.42723"
     inkscape:window-width="3233"
     inkscape:window-height="1080"
     inkscape:window-x="1887"
     inkscape:window-y="0"
     inkscape:window-maximized="0"
     inkscape:current-layer="layer1" /><defs
     id="defs2"><inkscape:path-effect
       effect="fillet_chamfer"
       id="path-effect9"
       is_visible="true"
       lpeversion="1"
       nodesatellites_param="F,0,0,1,0,0,0,1 @ F,0,0,1,0,0,0,1 @ F,0,0,1,0,0,0,1 @ F,0,1,1,0,4.7624998,0,1 @ F,0,0,1,0,0,0,1 @ F,0,0,1,0,0,0,1 @ F,0,0,1,0,0,0,1 @ F,0,1,1,0,4.7624998,0,1 @ F,0,0,1,0,0,0,1 @ F,0,0,1,0,0,0,1 @ F,0,0,1,0,0,0,1 @ F,0,0,1,0,0,0,1"
       radius="18"
       unit="px"
       method="auto"
       mode="F"
       chamfer_steps="1"
       flexible="false"
       use_knot_distance="true"
       apply_no_radius="true"
       apply_with_radius="true"
       only_selected="true"
       hide_knots="false" /><inkscape:path-effect
       effect="fillet_chamfer"
       id="path-effect5"
       is_visible="true"
       lpeversion="1"
       nodesatellites_param="F,0,1,1,0,2.6458332,0,1 @ F,0,0,1,0,0,0,1 @ F,0,0,1,0,0,0,1 @ F,0,0,1,0,0,0,1 @ F,0,0,1,0,0,0,1 @ F,0,0,1,0,0,0,1 @ F,0,1,1,0,2.6458332,0,1 @ F,0,0,1,0,0,0,1 @ F,0,0,1,0,0,0,1 @ F,0,0,1,0,0,0,1"
       radius="10"
       unit="px"
       method="auto"
       mode="F"
       chamfer_steps="1"
       flexible="false"
       use_knot_distance="true"
       apply_no_radius="true"
       apply_with_radius="true"
       only_selected="true"
       hide_knots="false" /><inkscape:path-effect
       effect="fillet_chamfer"
       id="path-effect4"
       is_visible="true"
       lpeversion="1"
       nodesatellites_param="F,0,0,1,0,0,0,1 @ F,0,1,1,0,4.7624998,0,1 @ F,0,0,1,0,0,0,1 @ F,0,1,1,0,4.7624998,0,1 @ F,0,0,1,0,0,0,1 @ F,0,0,1,0,0,0,1 @ F,0,0,1,0,0,0,1 @ F,0,0,1,0,0,0,1"
       radius="18"
       unit="px"
       method="auto"
       mode="F"
       chamfer_steps="1"
       flexible="false"
       use_knot_distance="true"
       apply_no_radius="true"
       apply_with_radius="true"
       only_selected="true"
       hide_knots="false" /><linearGradient
       id="linearGradient5"
       inkscape:collect="always"><stop
         style="stop-color:#28220b;stop-opacity:1;"
         offset="0"
         id="stop5" /><stop
         style="stop-color:#28220b;stop-opacity:0;"
         offset="1"
         id="stop6" /></linearGradient><filter
       inkscape:collect="always"
       style="color-interpolation-filters:sRGB"
       id="filter5"
       x="-0.069115418"
       y="-0.069124596"
       width="1.1382308"
       height="1.1382492"><feGaussianBlur
         inkscape:collect="always"
         stdDeviation="3.3833812"
         id="feGaussianBlur5" /></filter><radialGradient
       inkscape:collect="always"
       xlink:href="#linearGradient5"
       id="radialGradient6"
       cx="67.725586"
       cy="67.733406"
       fx="67.725586"
       fy="67.733406"
       r="60.773193"
       gradientTransform="matrix(1,0,0,0.9998715,-190.66144,-27.732667)"
       gradientUnits="userSpaceOnUse" /><linearGradient
       id="linearGradient2"
       inkscape:collect="always"><stop
         style="stop-color:#000000;stop-opacity:1;"
         offset="0"
         id="stop3" /><stop
         style="stop-color:#ffffff;stop-opacity:1;"
         offset="0.2"
         id="stop7" /><stop
         style="stop-color:#000000;stop-opacity:1;"
         offset="0.40365851"
         id="stop8" /><stop
         style="stop-color:#ffffff;stop-opacity:1;"
         offset="0.60454738"
         id="stop9" /><stop
         style="stop-color:#000000;stop-opacity:1;"
         offset="0.79727012"
         id="stop10" /><stop
         style="stop-color:#ffffff;stop-opacity:1;"
         offset="1"
         id="stop6-3" /></linearGradient><linearGradient
       inkscape:collect="always"
       xlink:href="#linearGradient2"
       id="linearGradient3"
       x1="0"
       y1="0"
       x2="135.46666"
       y2="135.46666"
       gradientUnits="userSpaceOnUse"
       gradientTransform="matrix(0.98437504,0,0,0.98437504,-189.60311,-26.683039)" /><linearGradient
       inkscape:collect="always"
       xlink:href="#linearGradient2"
       id="linearGradient12"
       x1="101.15155"
       y1="62.854244"
       x2="135.46666"
       y2="124.88334"
       gradientUnits="userSpaceOnUse"
       gradientTransform="translate(-1.0583333,5.2916641)" /><linearGradient
       inkscape:collect="always"
       xlink:href="#linearGradient2"
       id="linearGradient16"
       x1="15.928742"
       y1="33.790943"
       x2="119.53792"
       y2="33.790943"
       gradientUnits="userSpaceOnUse"
       gradientTransform="translate(0,5.2916641)" /><linearGradient
       inkscape:collect="always"
       xlink:href="#linearGradient2"
       id="linearGradient13"
       x1="21.560438"
       y1="12.502079"
       x2="113.91191"
       y2="92.846527"
       gradientUnits="userSpaceOnUse" /><linearGradient
       inkscape:collect="always"
       xlink:href="#linearGradient2"
       id="linearGradient14"
       gradientUnits="userSpaceOnUse"
       gradientTransform="matrix(-1,0,0,1,136.52499,5.2916641)"
       x1="101.15155"
       y1="62.854244"
       x2="135.46666"
       y2="124.88334" /><filter
       inkscape:collect="always"
       style="color-interpolation-filters:sRGB"
       id="filter19"
       x="-0.066684299"
       y="-0.071740384"
       width="1.1333686"
       height="1.1434808"><feGaussianBlur
         inkscape:collect="always"
         stdDeviation="3.3537916"
         id="feGaussianBlur19" /></filter></defs><g
     inkscape:label="Layer 1"
     inkscape:groupmode="layer"
     id="layer1"><g
       id="g19"
       style="display:none"><path
         id="rect1"
         style="display:inline;fill:#c2c2c2;fill-opacity:1;stroke:url(#linearGradient3);stroke-width:1.79705;stroke-linecap:round;stroke-linejoin:round;stroke-dasharray:none;stroke-opacity:1;paint-order:markers stroke fill"
         d="m -143.78134,-26.683039 v 45.821768 h -45.82177 v 41.706468 h 45.82177 v 45.821763 h 41.70647 V 60.845197 h 45.82176 V 19.138729 h -45.82176 v -45.821768 z" /><path
         id="rect3"
         style="display:inline;opacity:0.2;fill:url(#radialGradient6);fill-opacity:1;stroke:none;stroke-width:6.35;stroke-linecap:round;stroke-linejoin:round;stroke-opacity:1;paint-order:fill markers stroke;filter:url(#filter5)"
         d="m -135.11456,18.807457 c -0.0412,5.237474 -5.2465,9.533986 -10.36953,9.044497 -12.06486,-0.06704 -24.12995,-0.04121 -36.19493,-0.0484 0.0154,8.124993 0.0206,16.249993 0.0156,24.375 13.14614,0.03674 26.2983,-0.137624 39.43945,0.248047 4.66436,1.083341 7.74649,6.128874 7.10938,10.78125 0,11.839838 0,23.679688 0,35.519528 8.12434,0 16.24869,0 24.37304,0 0.0367,-13.14614 -0.13762,-26.2983 0.24805,-39.43945 1.08334,-4.664357 6.12887,-7.746492 10.781249,-7.109375 11.839841,0 23.679691,0 35.519531,0 0,-8.124349 0,-16.248698 0,-24.373047 -13.14614,-0.03674 -26.2983,0.137624 -39.43945,-0.248047 -4.66436,-1.083341 -7.74649,-6.128874 -7.10938,-10.78125 0,-11.839844 0,-23.679687 0,-35.519531 -8.12435,0 -16.2487,0 -24.37304,0 0,12.516927 0,25.033854 0,37.550781 z" /></g><path
       id="rect8"
       style="opacity:1;fill:#ffffff;fill-opacity:1;stroke:url(#linearGradient13);stroke-width:1.58749998;stroke-linecap:round;stroke-linejoin:round;stroke-miterlimit:12;stroke-dasharray:none;stroke-opacity:1;paint-order:markers stroke fill"
       d="M 67.732299 12.502079 C 42.257261 12.502079 21.560441 33.198899 21.560441 58.673937 C 21.560441 58.691607 21.560436 58.709007 21.560441 58.726647 L 21.560441 92.846528 L 25.794808 92.846528 L 25.794808 58.727164 L 25.794808 58.726647 C 25.794814 58.709073 25.794808 58.691538 25.794808 58.673937 C 25.794808 35.486761 44.545122 16.736446 67.732299 16.736446 C 90.919475 16.736446 109.67186 35.486761 109.67186 58.673937 C 109.67186 59.149004 109.67371 59.614673 109.67754 60.071268 L 109.67754 92.846528 L 113.91191 92.846528 L 113.91191 58.726647 L 113.90622 58.726647 C 113.90623 58.709006 113.90622 58.691606 113.90622 58.673937 C 113.90622 33.198899 93.207337 12.502079 67.732299 12.502079 z " /><path
       id="path1"
       style="baseline-shift:baseline;display:inline;overflow:visible;fill:#c2c2c2;fill-opacity:1;stroke:url(#linearGradient16);stroke-width:1.5875;stroke-linecap:round;stroke-linejoin:round;stroke-miterlimit:12;stroke-dasharray:none;paint-order:markers stroke fill;enable-background:accumulate;stop-color:#000000"
       d="m 67.733331,5.2916641 c -14.25528,0 -27.206428,5.8235079 -36.593755,15.2108349 -4.693663,4.693664 -8.496372,10.278283 -11.125665,16.471396 0.111878,0 6.624994,2.734804 11.192289,4.658383 2.420908,1.0196 5.183188,-0.141103 6.524645,-2.401156 1.482377,-2.497474 3.268032,-4.7907 5.307451,-6.830161 6.297796,-6.297926 15.015481,-10.175963 24.695035,-10.175963 9.679555,0 18.397367,3.878037 24.69529,10.175963 2.039467,2.039467 3.825167,4.3327 5.307584,6.830183 1.34148,2.260039 4.109565,3.427402 6.536545,2.413474 l 11.18,-4.670723 C 112.82346,30.780782 109.02075,25.196163 104.32709,20.502499 94.939759,11.115172 81.988611,5.2916641 67.733329,5.2916641 h 10e-7 z"
       sodipodi:nodetypes="ssccsssccsscs" /><path
       id="path5"
       style="display:inline;fill:#c2c2c2;fill-opacity:1;stroke:url(#linearGradient12);stroke-width:1.5875;stroke-linecap:round;stroke-linejoin:round;stroke-miterlimit:12;stroke-dasharray:none;paint-order:markers stroke fill"
       d="m 117.25077,68.145908 h -12.39506 c -2.63025,0 -4.76249,2.132244 -4.76249,4.7625 V 125.4125 c 0,2.63026 2.13224,4.7625 4.76249,4.7625 h 12.39506 c 1.67225,0 3.25375,-0.76046 4.29792,-2.06664 6.88491,-5.58754 8.76709,-7.92702 12.85963,-16.08647 V 99.160451 86.299013 c -4.10415,-8.182594 -5.99446,-10.514947 -12.85963,-16.086459 -1.30248,-1.048787 -2.62567,-2.066644 -4.29792,-2.066646 z"
       sodipodi:nodetypes="ccccccccccsc" /><path
       id="path2"
       style="baseline-shift:baseline;display:none;overflow:visible;fill:#c2c2c2;fill-opacity:1;stroke:url(#linearGradient16);stroke-width:1.5875;stroke-linecap:round;stroke-linejoin:round;stroke-miterlimit:12;stroke-dasharray:none;paint-order:markers stroke fill;enable-background:accumulate;stop-color:#000000"
       d="m 67.733331,5.2916641 c -28.510561,0 -51.804589,23.2940299 -51.804589,51.8045909 0,25.20472 16.93385,15.287514 16.93385,0 0,-19.359109 15.51163,-34.871257 34.870739,-34.871257 19.359109,0 34.871249,15.512148 34.871249,34.871257 0,16.522534 16.93334,25.1159 16.93334,0 0,-28.510561 -23.294027,-51.8045909 -51.804591,-51.8045909 z"
       sodipodi:nodetypes="ssssssss" /><path
       id="path13"
       style="display:inline;fill:#c2c2c2;fill-opacity:1;stroke:url(#linearGradient14);stroke-width:1.5875;stroke-linecap:round;stroke-linejoin:round;stroke-miterlimit:12;stroke-dasharray:none;paint-order:markers stroke fill"
       d="m 18.215884,68.145908 h 12.39506 c 2.63025,0 4.76249,2.132244 4.76249,4.7625 V 125.4125 c 0,2.63026 -2.13224,4.7625 -4.76249,4.7625 h -12.39506 c -1.67225,0 -3.25375,-0.76046 -4.29792,-2.06664 C 7.0330534,122.52082 5.1508734,120.18134 1.0583333,112.02189 V 99.160451 86.299013 C 5.1624834,78.116419 7.0527934,75.784066 13.917964,70.212554 c 1.30248,-1.048787 2.62567,-2.066644 4.29792,-2.066646 z"
       sodipodi:nodetypes="ccccccccccsc" /><path
       id="path14"
       style="baseline-shift:baseline;display:inline;overflow:visible;opacity:0.2;fill:#28220b;fill-opacity:1;stroke:none;stroke-width:1.5875;stroke-linecap:round;stroke-linejoin:round;stroke-miterlimit:12;stroke-dasharray:none;paint-order:markers stroke fill;filter:url(#filter19);enable-background:accumulate;stop-color:#000000"
       d="m 66.614884,11.638183 c -9.34214,0.232838 -18.68433,3.450686 -26.17467,9.162936 -4.66473,3.550406 -8.61426,7.912329 -11.64954,12.915189 1.30064,0.525844 2.62661,1.178368 3.94336,1.548828 4.22739,-6.977805 10.71127,-12.50921 18.15607,-15.810092 7.33612,-3.300608 15.64505,-4.419316 23.58089,-3.0477 11.192892,1.820443 21.553392,8.448869 27.718896,17.992957 0.33459,0.290517 0.50055,1.242492 1.0438,0.79275 1.1307,-0.509836 2.28031,-0.976045 3.42417,-1.455259 C 99.594806,21.935357 86.964616,13.554485 73.260934,11.986885 c -2.17806,-0.276068 -4.41342,-0.373265 -6.64605,-0.348702 z m 41.339856,62.835938 c -0.51701,0.01448 -1.03426,0.02262 -1.55078,0.05078 0.0593,16.429592 -2.4e-4,32.859479 0.084,49.289059 3.48451,-0.10704 7.00027,0.15946 10.46493,-0.15898 1.09161,-0.78625 2.04593,-1.76126 3.09562,-2.6086 3.20564,-2.66209 5.79322,-6.04332 7.5936,-9.79634 0.83989,-1.55211 0.18936,-3.36366 0.39663,-5.02983 0,-6.14192 0,-12.283851 0,-18.425778 -2.15348,-4.474375 -5.1904,-8.591285 -9.19455,-11.576109 -0.97179,-0.867419 -2.03361,-1.9945 -3.47612,-1.745882 -2.47106,0.03098 -4.94221,-0.02727 -7.41331,0.0017 z m -86.800786,0.01172 c -1.20654,0.09844 -2.66621,-0.19358 -3.54163,0.867138 -2.80336,2.325202 -5.65201,4.71137 -7.60119,7.836486 -0.9737703,1.4818 -1.9183803,3.022231 -2.5632303,4.66958 -0.15623,2.643466 0.0209,5.293131 -0.0557,7.939296 0,4.895179 0,9.790359 0,14.685549 2.14697,4.46017 5.1659603,8.57461 9.1649303,11.54321 0.9006,0.7779 1.76447,2.01605 3.12491,1.77426 3.1142,-0.0515 6.23009,0.0341 9.34297,-0.0284 -0.0481,-16.21342 0.004,-32.42715 -0.0874,-48.640531 0.28878,-0.908363 -0.62232,-0.614945 -1.20242,-0.653058 -2.19377,-0.0021 -4.38756,-0.01966 -6.58125,0.0065 z" /></g></svg>
