<?xml version="1.0" encoding="UTF-8" standalone="no"?>
<!-- Created with Inkscape (http://www.inkscape.org/) -->

<svg
   width="512"
   height="512"
   viewBox="0 0 135.46666 135.46667"
   version="1.1"
   id="svg5"
   inkscape:version="1.4.2 (ebf0e940d0, 2025-05-08)"
   xml:space="preserve"
   sodipodi:docname="audio-headphones.svg"
   xmlns:inkscape="http://www.inkscape.org/namespaces/inkscape"
   xmlns:sodipodi="http://sodipodi.sourceforge.net/DTD/sodipodi-0.dtd"
   xmlns:xlink="http://www.w3.org/1999/xlink"
   xmlns="http://www.w3.org/2000/svg"
   xmlns:svg="http://www.w3.org/2000/svg"><sodipodi:namedview
     id="namedview7"
     pagecolor="#242424"
     bordercolor="#666666"
     borderopacity="1"
     inkscape:showpageshadow="0"
     inkscape:pageopacity="0"
     inkscape:pagecheckerboard="1"
     inkscape:deskcolor="#000000"
     inkscape:document-units="px"
     showgrid="false"
     inkscape:zoom="1"
     inkscape:cx="348.5"
     inkscape:cy="307.5"
     inkscape:window-width="3256"
     inkscape:window-height="1080"
     inkscape:window-x="1864"
     inkscape:window-y="0"
     inkscape:window-maximized="0"
     inkscape:current-layer="layer1" /><defs
     id="defs2"><linearGradient
       id="linearGradient49"
       inkscape:collect="always"><stop
         style="stop-color:#000000;stop-opacity:1;"
         offset="0"
         id="stop51" /><stop
         style="stop-color:#1a1a1a;stop-opacity:1;"
         offset="0.08333334"
         id="stop52" /><stop
         style="stop-color:#474747;stop-opacity:1;"
         offset="0.49666667"
         id="stop49" /><stop
         style="stop-color:#1a1a1a;stop-opacity:1;"
         offset="0.91999996"
         id="stop53" /><stop
         style="stop-color:#000000;stop-opacity:1;"
         offset="1"
         id="stop50" /></linearGradient><linearGradient
       id="linearGradient19"
       inkscape:collect="always"><stop
         style="stop-color:#b8b8b8;stop-opacity:1;"
         offset="0"
         id="stop17" /><stop
         style="stop-color:#000000;stop-opacity:1;"
         offset="1"
         id="stop19" /></linearGradient><linearGradient
       id="linearGradient6"
       inkscape:collect="always"><stop
         style="stop-color:#b8b8b8;stop-opacity:1;"
         offset="0"
         id="stop11" /><stop
         style="stop-color:#000000;stop-opacity:1;"
         offset="1"
         id="stop12" /></linearGradient><inkscape:path-effect
       effect="fillet_chamfer"
       id="path-effect9"
       is_visible="true"
       lpeversion="1"
       nodesatellites_param="F,0,0,1,0,0,0,1 @ F,0,0,1,0,0,0,1 @ F,0,0,1,0,0,0,1 @ F,0,1,1,0,4.7624998,0,1 @ F,0,0,1,0,0,0,1 @ F,0,0,1,0,0,0,1 @ F,0,0,1,0,0,0,1 @ F,0,1,1,0,4.7624998,0,1 @ F,0,0,1,0,0,0,1 @ F,0,0,1,0,0,0,1 @ F,0,0,1,0,0,0,1 @ F,0,0,1,0,0,0,1"
       radius="18"
       unit="px"
       method="auto"
       mode="F"
       chamfer_steps="1"
       flexible="false"
       use_knot_distance="true"
       apply_no_radius="true"
       apply_with_radius="true"
       only_selected="true"
       hide_knots="false" /><inkscape:path-effect
       effect="fillet_chamfer"
       id="path-effect5"
       is_visible="true"
       lpeversion="1"
       nodesatellites_param="F,0,1,1,0,2.6458332,0,1 @ F,0,0,1,0,0,0,1 @ F,0,0,1,0,0,0,1 @ F,0,0,1,0,0,0,1 @ F,0,0,1,0,0,0,1 @ F,0,0,1,0,0,0,1 @ F,0,1,1,0,2.6458332,0,1 @ F,0,0,1,0,0,0,1 @ F,0,0,1,0,0,0,1 @ F,0,0,1,0,0,0,1"
       radius="10"
       unit="px"
       method="auto"
       mode="F"
       chamfer_steps="1"
       flexible="false"
       use_knot_distance="true"
       apply_no_radius="true"
       apply_with_radius="true"
       only_selected="true"
       hide_knots="false" /><inkscape:path-effect
       effect="fillet_chamfer"
       id="path-effect4"
       is_visible="true"
       lpeversion="1"
       nodesatellites_param="F,0,0,1,0,0,0,1 @ F,0,1,1,0,4.7624998,0,1 @ F,0,0,1,0,0,0,1 @ F,0,1,1,0,4.7624998,0,1 @ F,0,0,1,0,0,0,1 @ F,0,0,1,0,0,0,1 @ F,0,0,1,0,0,0,1 @ F,0,0,1,0,0,0,1"
       radius="18"
       unit="px"
       method="auto"
       mode="F"
       chamfer_steps="1"
       flexible="false"
       use_knot_distance="true"
       apply_no_radius="true"
       apply_with_radius="true"
       only_selected="true"
       hide_knots="false" /><linearGradient
       id="linearGradient5"
       inkscape:collect="always"><stop
         style="stop-color:#28220b;stop-opacity:1;"
         offset="0"
         id="stop5" /><stop
         style="stop-color:#28220b;stop-opacity:0;"
         offset="1"
         id="stop6" /></linearGradient><filter
       inkscape:collect="always"
       style="color-interpolation-filters:sRGB"
       id="filter5"
       x="-0.069115418"
       y="-0.069124596"
       width="1.1382308"
       height="1.1382492"><feGaussianBlur
         inkscape:collect="always"
         stdDeviation="3.3833812"
         id="feGaussianBlur5" /></filter><radialGradient
       inkscape:collect="always"
       xlink:href="#linearGradient5"
       id="radialGradient6"
       cx="67.725586"
       cy="67.733406"
       fx="67.725586"
       fy="67.733406"
       r="60.773193"
       gradientTransform="matrix(1,0,0,0.9998715,-190.66144,-27.732667)"
       gradientUnits="userSpaceOnUse" /><linearGradient
       id="linearGradient2"
       inkscape:collect="always"><stop
         style="stop-color:#000000;stop-opacity:1;"
         offset="0"
         id="stop3" /><stop
         style="stop-color:#ffffff;stop-opacity:1;"
         offset="0.2"
         id="stop7" /><stop
         style="stop-color:#000000;stop-opacity:1;"
         offset="0.40365851"
         id="stop8" /><stop
         style="stop-color:#ffffff;stop-opacity:1;"
         offset="0.60454738"
         id="stop9" /><stop
         style="stop-color:#000000;stop-opacity:1;"
         offset="0.79727012"
         id="stop10" /><stop
         style="stop-color:#ffffff;stop-opacity:1;"
         offset="1"
         id="stop6-3" /></linearGradient><linearGradient
       inkscape:collect="always"
       xlink:href="#linearGradient2"
       id="linearGradient3"
       x1="0"
       y1="0"
       x2="135.46666"
       y2="135.46666"
       gradientUnits="userSpaceOnUse"
       gradientTransform="matrix(0.98437504,0,0,0.98437504,-189.60311,-26.683039)" /><linearGradient
       inkscape:collect="always"
       xlink:href="#linearGradient2"
       id="linearGradient13"
       x1="21.560438"
       y1="12.502079"
       x2="113.91191"
       y2="92.846527"
       gradientUnits="userSpaceOnUse"
       gradientTransform="matrix(1.4069246,0,0,1.4069246,-27.562356,-6.386639)" /><filter
       inkscape:collect="always"
       style="color-interpolation-filters:sRGB"
       id="filter19"
       x="-0.1033696"
       y="-0.33995039"
       width="1.2067392"
       height="1.6799008"><feGaussianBlur
         inkscape:collect="always"
         stdDeviation="3.3537916"
         id="feGaussianBlur19" /></filter><linearGradient
       inkscape:collect="always"
       xlink:href="#linearGradient6"
       id="linearGradient12"
       x1="-91.994286"
       y1="59.822742"
       x2="-91.994286"
       y2="121.85184"
       gradientUnits="userSpaceOnUse" /><clipPath
       clipPathUnits="userSpaceOnUse"
       id="clipPath15"><path
         id="path16"
         style="display:inline;fill:#7137c8;fill-opacity:1;stroke:none;stroke-width:1.5875;stroke-linecap:round;stroke-linejoin:round;stroke-miterlimit:12;stroke-dasharray:none;paint-order:markers stroke fill"
         d="m -91.994285,59.822743 h 12.39506 c 2.630249,0 4.762489,2.132246 4.762489,4.7625 v 52.504097 c 0,2.63026 -2.13224,4.7625 -4.762489,4.7625 h -12.39506 c -1.672249,0 -3.253751,-0.76046 -4.297921,-2.06664 -6.884914,-5.58754 -8.767094,-7.92702 -12.859634,-16.08647 V 90.837286 77.975848 c 4.10415,-8.182594 5.99446,-10.514946 12.859634,-16.086457 1.30248,-1.048788 2.625672,-2.066645 4.297921,-2.066648 z"
         sodipodi:nodetypes="ccccccccccsc" /></clipPath><filter
       inkscape:collect="always"
       style="color-interpolation-filters:sRGB"
       id="filter16"
       x="-0.032326463"
       y="-0.017883317"
       width="1.0646529"
       height="1.0357666"><feGaussianBlur
         inkscape:collect="always"
         stdDeviation="0.4622025"
         id="feGaussianBlur16" /></filter><linearGradient
       inkscape:collect="always"
       xlink:href="#linearGradient19"
       id="linearGradient17"
       gradientUnits="userSpaceOnUse"
       x1="-91.994286"
       y1="59.822742"
       x2="-91.994286"
       y2="121.85184" /><clipPath
       clipPathUnits="userSpaceOnUse"
       id="clipPath21"><path
         id="path22"
         style="display:inline;fill:#7137c8;fill-opacity:1;stroke:none;stroke-width:1.5875;stroke-linecap:round;stroke-linejoin:round;stroke-miterlimit:12;stroke-dasharray:none;paint-order:markers stroke fill"
         d="m 117.25077,68.145908 h -12.39506 c -2.63025,0 -4.76249,2.132245 -4.76249,4.7625 V 125.4125 c 0,2.63026 2.13224,4.7625 4.76249,4.7625 h 12.39506 c 1.67225,0 3.25375,-0.76046 4.29792,-2.06664 6.88491,-5.58754 8.76709,-7.92702 12.85963,-16.08647 V 99.16045 86.299012 c -4.10415,-8.182594 -5.99446,-10.514946 -12.85963,-16.086457 -1.30248,-1.048787 -2.62567,-2.066644 -4.29792,-2.066647 z"
         sodipodi:nodetypes="ccccccccccsc" /></clipPath><filter
       inkscape:collect="always"
       style="color-interpolation-filters:sRGB"
       id="filter22"
       x="-0.29876382"
       y="-0.55597067"
       width="1.5975276"
       height="2.1119413"><feGaussianBlur
         inkscape:collect="always"
         stdDeviation="4.2717276"
         id="feGaussianBlur22" /></filter><clipPath
       clipPathUnits="userSpaceOnUse"
       id="clipPath27"><path
         id="path28"
         style="baseline-shift:baseline;display:inline;overflow:visible;fill:#1a1a1a;fill-opacity:1;stroke:none;stroke-width:1.5875;stroke-linecap:round;stroke-linejoin:round;stroke-miterlimit:12;stroke-dasharray:none;paint-order:markers stroke fill;enable-background:accumulate;stop-color:#000000"
         d="m 67.733335,-82.020843 c -20.056104,0 -38.277395,8.193238 -51.484655,21.4005 -6.6036305,6.603635 -11.9537554,14.46077 -15.65297227,23.174015 0.1574039,0 9.32086697,3.847661 15.74670627,6.553994 3.406035,1.434499 7.292355,-0.198522 9.179684,-3.378245 2.085593,-3.513759 4.597875,-6.740155 7.467183,-9.609524 8.860526,-8.860705 21.125651,-14.31681 34.744054,-14.31681 13.618403,0 25.883706,5.456105 34.744405,14.31681 2.86938,2.869377 5.38173,6.095783 7.46738,9.609553 1.88736,3.179704 5.78184,4.822097 9.19642,3.395578 l 15.72942,-6.571356 c -3.69921,-8.713245 -9.04934,-16.57038 -15.65297,-23.174015 -13.20726,-13.207262 -31.428553,-21.4005 -51.48466,-21.4005 h 2e-6 z"
         sodipodi:nodetypes="ssccsssccsscs" /></clipPath><filter
       inkscape:collect="always"
       style="color-interpolation-filters:sRGB"
       id="filter28"
       x="-0.020445036"
       y="-0.061251425"
       width="1.0408901"
       height="1.1225028"><feGaussianBlur
         inkscape:collect="always"
         stdDeviation="1.1438572"
         id="feGaussianBlur28" /></filter><clipPath
       clipPathUnits="userSpaceOnUse"
       id="clipPath31"><path
         id="path32"
         style="baseline-shift:baseline;display:inline;overflow:visible;fill:#1a1a1a;fill-opacity:1;stroke:none;stroke-width:1.5875;stroke-linecap:round;stroke-linejoin:round;stroke-miterlimit:12;stroke-dasharray:none;paint-order:markers stroke fill;enable-background:accumulate;stop-color:#000000"
         d="m 67.733332,-73.55433 c -20.056099,0 -38.277389,8.193236 -51.484651,21.400497 -6.603637,6.603633 -11.9537538,14.460771 -15.65297367,23.174013 0.15739999,0 9.32086667,3.847663 15.74670367,6.553994 3.406037,1.4345 7.292354,-0.198521 9.179684,-3.378245 2.085596,-3.513757 4.597878,-6.740155 7.467184,-9.609521 8.860528,-8.860708 21.125651,-14.316813 34.744053,-14.316813 13.618406,0 25.883714,5.456105 34.744408,14.316813 2.86938,2.869374 5.38173,6.09578 7.46738,9.609552 1.88736,3.179704 5.78184,4.822096 9.19642,3.395576 l 15.72942,-6.571356 C 131.17175,-37.693062 125.82162,-45.5502 119.21799,-52.153833 106.01073,-65.361094 87.789437,-73.55433 67.73333,-73.55433 v 0 z"
         sodipodi:nodetypes="ssccsssccsscs" /></clipPath><filter
       inkscape:collect="always"
       style="color-interpolation-filters:sRGB"
       id="filter32"
       x="-0.016026406"
       y="-0.070587751"
       width="1.0320528"
       height="1.1411755"><feGaussianBlur
         inkscape:collect="always"
         stdDeviation="0.8966441"
         id="feGaussianBlur32" /></filter><filter
       inkscape:collect="always"
       style="color-interpolation-filters:sRGB"
       id="filter33"
       x="-0.12579063"
       y="-0.40535901"
       width="1.2515813"
       height="1.810718"><feGaussianBlur
         inkscape:collect="always"
         stdDeviation="5.8118795"
         id="feGaussianBlur33" /></filter><clipPath
       clipPathUnits="userSpaceOnUse"
       id="clipPath34"><path
         id="path35"
         style="baseline-shift:baseline;display:inline;overflow:visible;fill:#1a1a1a;fill-opacity:1;stroke:none;stroke-width:1.5875;stroke-linecap:round;stroke-linejoin:round;stroke-miterlimit:12;stroke-dasharray:none;paint-order:markers stroke fill;enable-background:accumulate;stop-color:#000000"
         d="M 16.24868,22.458831 C 9.6450495,29.062463 4.2949246,36.919601 0.59570773,45.632843 c 0.1574039,0 9.32086697,3.847663 15.74670627,6.553994 3.406035,1.434499 7.292355,-0.19852 9.179684,-3.378245 2.085593,-3.513757 4.597875,-6.740155 7.467183,-9.609521 8.860526,-8.860708 21.125651,-14.316814 34.744054,-14.316814 13.618403,0 25.883706,5.456106 34.744405,14.316814 2.86938,2.869374 5.38173,6.09578 7.46738,9.609553 1.88736,3.179704 5.78184,4.822094 9.19642,3.395575 l 15.72942,-6.571356 C 131.17175,36.919601 125.82162,29.062463 119.21799,22.458831 106.01073,9.2515699 87.789437,1.0583334 67.733335,1.0583334 c -20.056104,0 -38.277395,8.1932365 -51.484655,21.4004976 z"
         sodipodi:nodetypes="sccsssccssccs" /></clipPath><clipPath
       clipPathUnits="userSpaceOnUse"
       id="clipPath38"><path
         id="path38"
         style="display:inline;fill:#88aa00;fill-opacity:1;stroke:none;stroke-width:1.5875;stroke-linecap:round;stroke-linejoin:round;stroke-miterlimit:12;stroke-dasharray:none;paint-order:markers stroke fill"
         d="m -200.1516,52.72288 c -1.67225,0 -2.99545,1.017754 -4.29793,2.066541 -6.86517,5.571511 -8.75553,7.90376 -12.85968,16.086354 v 12.861232 12.861748 c 4.09254,8.159445 5.97477,10.498815 12.85968,16.086355 1.04417,1.30618 2.62568,2.06654 4.29793,2.06654 h 12.3951 c 2.63025,0 4.7625,-2.13224 4.7625,-4.7625 V 57.48538 c 0,-2.630257 -2.13225,-4.7625 -4.7625,-4.7625 z m 86.64018,0 c -2.63025,0 -4.7625,2.132243 -4.7625,4.7625 v 52.50377 c 0,2.63026 2.13225,4.7625 4.7625,4.7625 h 12.3946 c 1.672249,0 3.253754,-0.76036 4.297924,-2.06654 6.884911,-5.58754 8.767141,-7.92691 12.859681,-16.086355 V 83.737007 70.875775 c -4.10415,-8.182594 -5.994511,-10.514843 -12.859681,-16.086354 -1.30248,-1.048787 -2.625675,-2.066541 -4.297924,-2.066541 z" /></clipPath><filter
       inkscape:collect="always"
       style="color-interpolation-filters:sRGB"
       id="filter38"
       x="-0.026841144"
       y="-0.17209062"
       width="1.0536823"
       height="1.3441812"><feGaussianBlur
         inkscape:collect="always"
         stdDeviation="1.491361"
         id="feGaussianBlur38" /></filter><filter
       inkscape:collect="always"
       style="color-interpolation-filters:sRGB"
       id="filter41"
       x="-0.039950356"
       y="-0.25613966"
       width="1.0799007"
       height="1.5122793"><feGaussianBlur
         inkscape:collect="always"
         stdDeviation="2.2197417"
         id="feGaussianBlur41" /></filter><clipPath
       clipPathUnits="userSpaceOnUse"
       id="clipPath49"><path
         id="path49"
         clip-path="none"
         style="display:inline;mix-blend-mode:normal;fill:#ff0000;fill-opacity:1;stroke:none;stroke-width:1.5875;stroke-linecap:round;stroke-linejoin:round;stroke-miterlimit:12;stroke-dasharray:none;paint-order:markers stroke fill"
         d="m 18.215942,68.145709 c -1.67225,3e-6 -2.995449,1.017755 -4.297929,2.066542 -6.8651737,5.571511 -8.7555297,7.903763 -12.8596797,16.086357 v 12.861747 12.861225 c 4.09254,8.15945 5.974766,10.49882 12.8596797,16.08636 1.04417,1.30618 2.625679,2.06706 4.297929,2.06706 H 30.61105 c 2.63025,0 4.7625,-2.13225 4.7625,-4.7625 V 72.908209 c 0,-2.630254 -2.13225,-4.7625 -4.7625,-4.7625 z m 86.639668,0 c -2.63025,0 -4.7625,2.132246 -4.7625,4.7625 v 52.503771 c 0,2.63025 2.13224,4.7625 4.7625,4.7625 h 12.39511 c 1.67224,0 3.25375,-0.76036 4.29793,-2.06654 6.88491,-5.58754 8.76714,-7.92691 12.85968,-16.08636 V 99.159839 86.298608 c -4.10415,-8.182594 -5.9945,-10.514846 -12.85968,-16.086357 -1.30248,-1.048787 -2.62568,-2.066539 -4.29793,-2.066542 z" /></clipPath><linearGradient
       inkscape:collect="always"
       xlink:href="#linearGradient49"
       id="linearGradient50"
       x1="67.733246"
       y1="68.145905"
       x2="67.73333"
       y2="130.175"
       gradientUnits="userSpaceOnUse" /><clipPath
       clipPathUnits="userSpaceOnUse"
       id="clipPath58"><path
         id="path58"
         clip-path="none"
         style="display:inline;mix-blend-mode:overlay;fill:#ff00ff;fill-opacity:1;stroke:none;stroke-width:1.5875;stroke-linecap:round;stroke-linejoin:round;stroke-miterlimit:12;stroke-dasharray:none;paint-order:markers stroke fill"
         d="m 18.215942,68.145715 c -1.67225,2e-6 -2.99545,1.01827 -4.29793,2.067057 -6.8651703,5.571514 -8.7555303,7.903763 -12.8596804,16.086357 v 12.861226 12.861755 c 4.0925399,8.15945 5.9747701,10.49881 12.8596804,16.08635 1.04417,1.30618 2.62568,2.06654 4.29793,2.06654 h 12.395111 c 2.630249,0 4.7625,-2.13224 4.7625,-4.7625 V 72.908215 c 0,-2.630255 -2.132251,-4.7625 -4.7625,-4.7625 z m 86.639668,0 c -2.63025,0 -4.7625,2.132245 -4.7625,4.7625 V 125.4125 c 0,2.63026 2.13225,4.7625 4.7625,4.7625 h 12.39511 c 1.67225,0 3.25376,-0.76036 4.29793,-2.06654 6.88492,-5.58754 8.76714,-7.9269 12.85968,-16.08635 V 99.160355 86.299129 c -4.10415,-8.182594 -5.9945,-10.514843 -12.85968,-16.086357 -1.30248,-1.048787 -2.62568,-2.067055 -4.29793,-2.067057 z" /></clipPath><filter
       inkscape:collect="always"
       style="color-interpolation-filters:sRGB"
       id="filter58"
       x="-0.05280224"
       y="-0.43105066"
       width="1.1056045"
       height="1.8621013"><feGaussianBlur
         inkscape:collect="always"
         stdDeviation="2.9803803"
         id="feGaussianBlur58" /></filter></defs><g
     inkscape:label="Layer 1"
     inkscape:groupmode="layer"
     id="layer1"><g
       id="g19"
       style="display:none"><path
         id="rect1"
         style="display:inline;fill:#c2c2c2;fill-opacity:1;stroke:url(#linearGradient3);stroke-width:1.79705;stroke-linecap:round;stroke-linejoin:round;stroke-dasharray:none;stroke-opacity:1;paint-order:markers stroke fill"
         d="m -143.78134,-26.683039 v 45.821768 h -45.82177 v 41.706468 h 45.82177 v 45.821763 h 41.70647 V 60.845197 h 45.82176 V 19.138729 h -45.82176 v -45.821768 z" /><path
         id="rect3"
         style="display:inline;opacity:0.2;fill:url(#radialGradient6);fill-opacity:1;stroke:none;stroke-width:6.35;stroke-linecap:round;stroke-linejoin:round;stroke-opacity:1;paint-order:fill markers stroke;filter:url(#filter5)"
         d="m -135.11456,18.807457 c -0.0412,5.237474 -5.2465,9.533986 -10.36953,9.044497 -12.06486,-0.06704 -24.12995,-0.04121 -36.19493,-0.0484 0.0154,8.124993 0.0206,16.249993 0.0156,24.375 13.14614,0.03674 26.2983,-0.137624 39.43945,0.248047 4.66436,1.083341 7.74649,6.128874 7.10938,10.78125 0,11.839838 0,23.679688 0,35.519528 8.12434,0 16.24869,0 24.37304,0 0.0367,-13.14614 -0.13762,-26.2983 0.24805,-39.43945 1.08334,-4.664357 6.12887,-7.746492 10.781249,-7.109375 11.839841,0 23.679691,0 35.519531,0 0,-8.124349 0,-16.248698 0,-24.373047 -13.14614,-0.03674 -26.2983,0.137624 -39.43945,-0.248047 -4.66436,-1.083341 -7.74649,-6.128874 -7.10938,-10.78125 0,-11.839844 0,-23.679687 0,-35.519531 -8.12435,0 -16.2487,0 -24.37304,0 0,12.516927 0,25.033854 0,37.550781 z" /></g><path
       id="rect8"
       style="fill:#ffffff;fill-opacity:1;stroke:url(#linearGradient13);stroke-width:1.5875;stroke-linecap:round;stroke-linejoin:round;stroke-miterlimit:12;stroke-dasharray:none;stroke-opacity:1;paint-order:markers stroke fill"
       d="m 67.731882,11.202843 c -35.841458,0 -64.9603232,29.118866 -64.9603232,64.960323 0,0.02486 -7e-6,0.04934 0,0.07416 v 21.545771 h 5.9574351 v -21.545043 -7.28e-4 c 8.5e-6,-0.02472 0,-0.0494 0,-0.07416 0,-32.622608 26.3802781,-59.002887 59.0028881,-59.002887 32.622608,0 59.005798,26.380279 59.005798,59.002887 0,0.668384 0.003,1.323545 0.008,1.96594 v 19.653991 h 5.95744 V 76.237325 h -0.008 c 2e-5,-0.02482 0,-0.0493 0,-0.07416 0,-35.841457 -29.12177,-64.960323 -64.963224,-64.960323 z"
       sodipodi:nodetypes="ssccccsssscccccsss" /><path
       id="path1"
       style="baseline-shift:baseline;display:inline;overflow:visible;fill:#1a1a1a;fill-opacity:1;stroke:none;stroke-width:1.5875;stroke-linecap:round;stroke-linejoin:round;stroke-miterlimit:12;stroke-dasharray:none;paint-order:markers stroke fill;enable-background:accumulate;stop-color:#000000"
       d="M 16.24868,22.458831 C 9.6450496,29.062463 4.2949247,36.9196 0.59570773,45.632843 c 0.15740391,0 9.32086707,3.847663 15.74670627,6.553994 3.406035,1.4345 7.292355,-0.198521 9.179684,-3.378245 2.085593,-3.513758 4.597875,-6.740154 7.467183,-9.609522 8.860525,-8.860707 21.12565,-14.316813 34.744053,-14.316813 13.618404,0 25.883708,5.456106 34.744406,14.316813 2.86938,2.869376 5.38173,6.095782 7.46738,9.609553 1.88736,3.179704 5.78184,4.822096 9.19642,3.395576 l 15.72942,-6.571356 C 131.17175,36.9196 125.82162,29.062463 119.21799,22.458831 106.01073,9.2515699 87.789438,1.0583334 67.733334,1.0583334 c -20.056104,0 -38.277393,8.1932365 -51.484654,21.4004976 z"
       sodipodi:nodetypes="sccsssccssccs" /><path
       id="path39"
       style="display:inline;mix-blend-mode:normal;fill:#000000;fill-opacity:1;stroke:none;stroke-width:1.5875;stroke-linecap:round;stroke-linejoin:round;stroke-miterlimit:12;stroke-dasharray:none;paint-order:markers stroke fill;filter:url(#filter41)"
       d="m -200.1516,52.722879 c -1.67225,2e-6 -2.99545,1.017754 -4.29793,2.066541 -6.86517,5.571512 -8.75553,7.903762 -12.85968,16.086356 v 2.645834 c 4.10415,-8.182594 5.99451,-10.514845 12.85968,-16.086357 1.30248,-1.048787 2.62568,-2.066538 4.29793,-2.06654 h 12.3951 c 2.63025,0 4.7625,2.132244 4.7625,4.7625 v -2.645834 c 0,-2.630256 -2.13225,-4.7625 -4.7625,-4.7625 z m 86.64018,0 c -2.63025,0 -4.7625,2.132244 -4.7625,4.7625 v 2.645834 c 0,-2.630256 2.13225,-4.7625 4.7625,-4.7625 h 12.3946 c 1.672245,2e-6 2.995445,1.017753 4.297925,2.06654 6.86517,5.571512 8.75553,7.903763 12.85968,16.086357 v -2.645834 c -4.10415,-8.182594 -5.99451,-10.514844 -12.85968,-16.086356 -1.30248,-1.048787 -2.62568,-2.066539 -4.297925,-2.066541 z"
       clip-path="url(#clipPath38)"
       transform="matrix(1,0,0,-1,218.36746,182.94254)" /><path
       id="path5"
       style="display:inline;fill:#88aa00;fill-opacity:1;stroke:none;stroke-width:1.5875;stroke-linecap:round;stroke-linejoin:round;stroke-miterlimit:12;stroke-dasharray:none;paint-order:markers stroke fill"
       d="m 18.215942,68.14571 c -1.67225,2e-6 -2.995449,1.018271 -4.297929,2.067058 -1.719958,1.395853 -3.127166,2.588542 -4.3356523,3.720703 H 9.581844 l -5.168e-4,5.17e-4 C 7.1705596,76.192614 5.552556,78.211033 3.8297404,81.124246 2.9694479,82.578967 2.0826741,84.256858 1.0583333,86.299124 v 12.86123 12.861746 c 1.0249044,2.04339 1.9117036,3.72167 2.7724406,5.17695 0.8597239,1.45373 1.6938542,2.68584 2.6158609,3.83749 1.7713462,2.21254 3.8657492,4.12952 7.0832882,6.75617 0.127534,0.10412 0.256978,0.20934 0.38809,0.31575 1.30248,1.04879 2.625679,2.06654 4.297929,2.06654 h 12.395109 c 2.63025,0 4.7625,-2.13224 4.7625,-4.7625 V 72.90821 c 0,-2.630256 -2.13225,-4.7625 -4.7625,-4.7625 z m 86.639668,0 c -0.16439,0 -0.32669,0.0085 -0.48679,0.02481 -0.8005,0.0813 -1.54268,0.360655 -2.17609,0.788582 -0.50662,0.342265 -0.94392,0.779639 -1.28623,1.286227 v 5.17e-4 c -0.17117,0.253366 -0.31875,0.523847 -0.43925,0.808736 -0.1205,0.284889 -0.21406,0.583975 -0.2775,0.894002 -0.0634,0.310027 -0.0966,0.630849 -0.0966,0.959631 V 125.4125 c 0,0.32878 0.0332,0.64961 0.0966,0.95964 0.0634,0.31002 0.157,0.60911 0.2775,0.894 0.1205,0.28489 0.26808,0.55589 0.43925,0.80924 0.17117,0.25337 0.36642,0.48941 0.58188,0.70487 0.10765,0.10763 0.22045,0.2105 0.33796,0.30748 0.35282,0.29117 0.74831,0.53238 1.17564,0.71314 0.14244,0.0602 0.28806,0.11381 0.43718,0.1602 h 5.2e-4 c 0.14898,0.0463 0.30145,0.0856 0.4563,0.1173 0.31003,0.0634 0.63085,0.0966 0.95963,0.0966 h 12.39511 c 1.67225,0 2.99545,-1.01827 4.29793,-2.06706 1.02321,-0.8304 1.81261,-1.52463 2.6386,-2.24121 0.37267,-0.32339 0.85114,-0.70227 1.19063,-1.0113 5.8e-4,-5.4e-4 9.6e-4,-0.001 0.002,-0.002 1.09225,-0.99435 2.02373,-1.92868 2.86752,-2.89388 2.21637,-2.53619 3.83279,-5.29534 6.16138,-9.9379 v -5.2e-4 -12.861231 -12.86123 -5.17e-4 c -2.27136,-4.528456 -3.86473,-7.265272 -5.9986,-9.750826 -0.85998,-1.001306 -1.80891,-1.963362 -2.92643,-2.986381 -0.34454,-0.315341 -0.83502,-0.703221 -1.21388,-1.033011 -0.84921,-0.73922 -1.66085,-1.455431 -2.72077,-2.315621 -1.30248,-1.048787 -2.62568,-2.067056 -4.29793,-2.067058 z" /><path
       id="rect19"
       style="display:inline;mix-blend-mode:normal;fill:#ffffff;fill-opacity:1;stroke:none;stroke-width:16.9333;stroke-linecap:round;stroke-linejoin:round;stroke-miterlimit:12;paint-order:fill markers stroke;filter:url(#filter22)"
       d="m 119.81542,78.65773 c -0.47828,0.0077 -0.9157,5.993394 -0.9157,6.546371 0,-0.65538 -0.5275,-1.183391 -1.18288,-1.183391 h -16.44085 c -0.65538,0 -1.18288,0.528011 -1.18288,1.183391 v 3.113505 c 0,0.65538 0.5275,1.182873 1.18288,1.182873 h 16.44085 c 0.65538,0 1.18288,-0.527493 1.18288,-1.182873 0,0.65538 0.61413,0.857201 1.18287,1.182873 l 13.14287,7.525639 c 0.56874,0.325672 1.18287,-0.527494 1.18287,-1.182874 v -3.113505 c 0,-0.65538 -0.61413,-0.857201 -1.18287,-1.182873 L 120.08259,78.729043 c -0.0889,-0.05089 -0.17859,-0.07274 -0.26717,-0.07131 z"
       clip-path="url(#clipPath21)"
       sodipodi:nodetypes="scsssssscccssccs" /><path
       id="path23"
       style="display:inline;fill:#ffffff;fill-opacity:1;stroke:none;stroke-width:16.9333;stroke-linecap:round;stroke-linejoin:round;stroke-miterlimit:12;paint-order:fill markers stroke;filter:url(#filter22)"
       d="m 119.81542,78.65773 c 0,-0.478342 -0.9157,5.993394 -0.9157,6.546371 0,-0.65538 -0.5275,-1.183391 -1.18288,-1.183391 h -16.44085 c -0.65538,0 -1.18288,0.528011 -1.18288,1.183391 v 3.113505 c 0,0.65538 0.5275,1.182873 1.18288,1.182873 h 16.44085 c 0.65538,0 1.18288,-0.527493 1.18288,-1.182873 0,0.65538 0.61413,0.857201 1.18287,1.182873 l 13.14287,7.525639 c 0.56874,0.325672 1.18287,-0.527494 1.18287,-1.182874 v -3.113505 c 0,-0.65538 -0.61413,-0.857201 -1.18287,-1.182873 L 120.08259,78.729043 c -0.0889,-0.05089 -0.26717,0.01728 -0.26717,-0.07131 z"
       clip-path="url(#clipPath21)"
       transform="matrix(-1,0,0,1,135.46655,0)"
       sodipodi:nodetypes="scsssssscccssccss" /><path
       id="path36"
       style="display:inline;fill:#ffffff;fill-opacity:1;stroke:none;stroke-width:1.5875;stroke-linecap:round;stroke-linejoin:round;stroke-miterlimit:12;stroke-dasharray:none;paint-order:markers stroke fill;filter:url(#filter38)"
       d="m -200.1516,52.722879 c -1.67225,2e-6 -2.99545,1.017754 -4.29793,2.066541 -6.86517,5.571512 -8.75553,7.903762 -12.85968,16.086356 v 2.645834 c 4.10415,-8.182594 5.99451,-10.514845 12.85968,-16.086357 1.30248,-1.048787 2.62568,-2.066538 4.29793,-2.06654 h 12.3951 c 2.63025,0 4.7625,2.132244 4.7625,4.7625 v -2.645834 c 0,-2.630256 -2.13225,-4.7625 -4.7625,-4.7625 z m 86.64018,0 c -2.63025,0 -4.7625,2.132244 -4.7625,4.7625 v 2.645834 c 0,-2.630256 2.13225,-4.7625 4.7625,-4.7625 h 12.3946 c 1.672245,2e-6 2.995445,1.017753 4.297925,2.06654 6.86517,5.571512 8.75553,7.903763 12.85968,16.086357 v -2.645834 c -4.10415,-8.182594 -5.99451,-10.514844 -12.85968,-16.086356 -1.30248,-1.048787 -2.62568,-2.066539 -4.297925,-2.066541 z"
       clip-path="url(#clipPath38)"
       transform="translate(218.36746,15.423028)" /><path
       id="path41"
       style="baseline-shift:baseline;display:inline;overflow:visible;mix-blend-mode:normal;vector-effect:none;fill:url(#linearGradient50);enable-background:accumulate;stop-color:#000000"
       d="m 17.81855,68.146227 v 62.029803 h 0.794784 V 68.146227 Z m 99.03478,0 v 62.029803 h 0.7953 V 68.146227 Z"
       clip-path="url(#clipPath49)" /><path
       id="path6"
       style="display:inline;mix-blend-mode:overlay;fill:url(#linearGradient12);fill-opacity:1;stroke:none;stroke-width:1.5875;stroke-linecap:round;stroke-linejoin:round;stroke-miterlimit:12;stroke-dasharray:none;paint-order:markers stroke fill;filter:url(#filter16)"
       d="m -91.994285,59.822744 h 12.39506 c 2.63025,0 4.76249,2.132244 4.76249,4.7625 v 52.504096 c 0,2.63026 -2.13224,4.7625 -4.76249,4.7625 h -12.39506 c -1.67225,0 -3.25375,-0.76046 -4.29792,-2.06664 -6.884915,-5.58754 -8.767095,-7.92702 -12.859635,-16.08647 V 90.837287 77.975849 c 4.10415,-8.182594 5.99446,-10.514947 12.859635,-16.086459 1.30248,-1.048787 2.62567,-2.066644 4.29792,-2.066646 z"
       sodipodi:nodetypes="ccccccccccsc"
       clip-path="url(#clipPath15)"
       transform="translate(110.21017,8.323164)" /><path
       id="path17"
       style="display:inline;mix-blend-mode:overlay;fill:url(#linearGradient17);fill-opacity:1;stroke:none;stroke-width:1.5875;stroke-linecap:round;stroke-linejoin:round;stroke-miterlimit:12;stroke-dasharray:none;paint-order:markers stroke fill;filter:url(#filter16)"
       d="m -91.994285,59.822744 h 12.39506 c 2.63025,0 4.76249,2.132244 4.76249,4.7625 v 52.504096 c 0,2.63026 -2.13224,4.7625 -4.76249,4.7625 h -12.39506 c -1.67225,0 -3.25375,-0.76046 -4.29792,-2.06664 -6.884915,-5.58754 -8.767095,-7.92702 -12.859635,-16.08647 V 90.837287 77.975849 c 4.10415,-8.182594 5.99446,-10.514947 12.859635,-16.086459 1.30248,-1.048787 2.62567,-2.066644 4.29792,-2.066646 z"
       sodipodi:nodetypes="ccccccccccsc"
       clip-path="url(#clipPath15)"
       transform="matrix(-1,0,0,1,25.256483,8.323164)" /><path
       id="path53"
       style="baseline-shift:baseline;display:inline;overflow:visible;mix-blend-mode:color;vector-effect:none;fill:#66ff00;fill-opacity:1;enable-background:accumulate;stop-color:#000000"
       d="m 17.81855,68.146227 v 62.029803 h 0.794784 V 68.146227 Z m 99.03478,0 v 62.029803 h 0.7953 V 68.146227 Z"
       clip-path="url(#clipPath49)" /><path
       id="path54"
       style="baseline-shift:baseline;display:inline;overflow:visible;mix-blend-mode:soft-light;vector-effect:none;stroke-linecap:round;stroke-linejoin:round;filter:url(#filter58);enable-background:accumulate;stop-color:#000000;opacity:0.4"
       d="m 1.0366292,104.53315 c -0.42816052,0.009 -0.80879687,0.27483 -0.9642822,0.67386 -0.21128854,0.5441 0.05782683,1.15655 0.60151367,1.36891 L 17.433561,121.05463 c 0.122713,0.0478 0.253279,0.0724 0.384989,0.0723 h 17.554484 c 2.228774,0.001 0.245822,-7.40897 0,-7.40885 H 18.017505 L 1.4433227,104.6055 c -0.1294929,-0.0506 -0.2676894,-0.0752 -0.4066935,-0.0724 z m 133.3934108,0 c -0.13901,-0.003 -0.27721,0.0218 -0.4067,0.0724 l -16.57418,9.11262 h -17.35553 c -0.245192,0 -2.227839,7.40885 0,7.40885 h 17.555 c 0.13154,0 0.26192,-0.0245 0.38447,-0.0723 l 16.7597,-14.47871 c 0.54369,-0.21236 0.81281,-0.8248 0.60152,-1.36891 -0.15549,-0.39903 -0.53612,-0.66502 -0.96428,-0.67386 z"
       clip-path="url(#clipPath58)"
       sodipodi:nodetypes="cccccccccccccccscccccc" /><path
       style="baseline-shift:baseline;display:inline;overflow:visible;opacity:0.2;fill:#28220b;fill-opacity:1;stroke:none;stroke-width:1.12835;stroke-linecap:round;stroke-linejoin:round;stroke-miterlimit:12;stroke-dasharray:none;paint-order:markers stroke fill;filter:url(#filter19);enable-background:accumulate;stop-color:#000000"
       d="m 66.614884,11.638183 c -9.34214,0.232838 -18.68433,3.450686 -26.17467,9.162936 -4.66473,3.550406 -8.61426,7.912329 -11.64954,12.915189 1.30064,0.525844 2.62661,1.178368 3.94336,1.548828 4.22739,-6.977805 10.71127,-12.50921 18.15607,-15.810092 7.33612,-3.300608 15.64505,-4.419316 23.58089,-3.0477 11.192892,1.820443 21.553392,8.448869 27.718896,17.992957 0.33459,0.290517 0.50055,1.242492 1.0438,0.79275 1.1307,-0.509836 2.28031,-0.976045 3.42417,-1.455259 C 99.594806,21.935357 86.964616,13.554485 73.260934,11.986885 c -2.17806,-0.276068 -4.41342,-0.373265 -6.64605,-0.348702 z"
       id="path24"
       transform="matrix(1.4069246,0,0,1.4069246,-27.562356,-6.386639)" /><path
       id="path25"
       style="baseline-shift:baseline;display:inline;overflow:visible;opacity:0.237705;mix-blend-mode:normal;fill:#ffffff;fill-opacity:1;stroke:none;stroke-width:1.5875;stroke-linecap:round;stroke-linejoin:round;stroke-miterlimit:12;stroke-dasharray:none;paint-order:markers stroke fill;filter:url(#filter28);enable-background:accumulate;stop-color:#000000"
       d="m 67.733332,-82.020831 c -20.056104,0 -38.277451,8.192982 -51.484712,21.400244 -6.60363,6.603632 -11.9535738,14.461052 -15.65279074,23.174295 0.0227028,0 0.23262093,0.08019 0.59479574,0.22531 3.6683015,-8.170727 8.8003248,-15.554433 15.057995,-21.812105 13.207261,-13.207262 31.428608,-21.400244 51.484712,-21.400244 20.056107,0 38.277448,8.192982 51.484708,21.400244 6.2627,6.262699 11.3979,13.653185 15.06679,21.831742 l 0.58601,-0.244947 c -3.69921,-8.713243 -9.04917,-16.570663 -15.6528,-23.174295 -13.20726,-13.207262 -31.428601,-21.400244 -51.484708,-21.400244 z"
       clip-path="url(#clipPath27)"
       transform="translate(0,83.07917)" /><path
       id="path29"
       style="baseline-shift:baseline;display:inline;overflow:visible;mix-blend-mode:normal;fill:#000000;fill-opacity:1;stroke:none;stroke-width:1.5875;stroke-linecap:round;stroke-linejoin:round;stroke-miterlimit:12;stroke-dasharray:none;paint-order:markers stroke fill;filter:url(#filter32);enable-background:accumulate;stop-color:#000000"
       d="m 67.733332,-52.376131 c -13.618403,0 -25.883607,5.456249 -34.744132,14.316956 -2.869308,2.869368 -5.910818,6.095474 -7.996411,9.609232 -1.887329,3.179724 -5.244082,5.342272 -8.650117,3.907772 -5.192235,-2.186781 -15.42482865,-5.195936 -15.74684274,-4.437455 0.15740391,0 9.32100304,3.847791 15.74684274,6.554122 3.406035,1.4345 7.291955,-0.198881 9.179284,-3.378605 2.085593,-3.513758 4.597936,-6.739865 7.467244,-9.609233 8.860525,-8.860707 21.125729,-14.316955 34.744132,-14.316955 13.618404,0 25.883951,5.456248 34.744648,14.316955 2.86938,2.869376 5.3816,6.095462 7.46725,9.609233 1.88736,3.179704 5.78175,4.822178 9.19633,3.395658 l 15.72928,-6.571175 c -0.31852,-0.750233 -15.72928,4.454509 -15.72928,4.454509 -3.41458,1.42652 -6.7798,-0.745122 -8.66716,-3.924826 -2.08565,-3.513771 -5.12704,-6.739856 -7.99642,-9.609232 -8.860697,-8.860707 -21.126244,-14.316956 -34.744648,-14.316956 z"
       clip-path="url(#clipPath31)"
       transform="translate(0,74.612504)"
       sodipodi:nodetypes="sssscsssssscccsss" /><path
       id="path33"
       style="baseline-shift:baseline;display:inline;overflow:visible;opacity:0.6;fill:#999999;fill-opacity:1;stroke:none;stroke-width:1.5875;stroke-linecap:round;stroke-linejoin:round;stroke-miterlimit:12;stroke-dasharray:none;paint-order:markers stroke fill;filter:url(#filter33);enable-background:accumulate;stop-color:#000000"
       d="M 66.025391,9.5527344 C 57.945892,9.7791073 49.787422,11.597432 42.357954,14.7927 29.870127,20.147453 19.220632,29.622991 12.304688,41.304688 c 2.108249,0.882873 4.20177,1.807647 6.361328,2.560546 0.802653,-1.314539 1.602853,-2.627974 2.556421,-3.841625 11.110727,-15.404916 30.296711,-24.642126 49.281495,-23.51257 17.051647,0.746952 33.694208,9.467546 43.628698,23.412418 0.98776,1.328443 1.92689,2.692206 2.91034,4.023809 2.01843,-0.940656 4.10343,-1.72283 6.14844,-2.603516 C 115.13713,27.633982 101.83234,17.061913 86.59378,12.381749 80.060861,10.38458 72.976159,9.398228 66.025391,9.5527344 Z"
       clip-path="url(#clipPath34)" /></g></svg>
