<?xml version="1.0" encoding="UTF-8" standalone="no"?>
<!-- Created with Inkscape (http://www.inkscape.org/) -->

<svg
   width="512"
   height="512"
   viewBox="0 0 135.46666 135.46667"
   version="1.1"
   id="svg5"
   inkscape:version="1.4.2 (ebf0e940d0, 2025-05-08)"
   xml:space="preserve"
   sodipodi:docname="blueman-headset.svg"
   xmlns:inkscape="http://www.inkscape.org/namespaces/inkscape"
   xmlns:sodipodi="http://sodipodi.sourceforge.net/DTD/sodipodi-0.dtd"
   xmlns:xlink="http://www.w3.org/1999/xlink"
   xmlns="http://www.w3.org/2000/svg"
   xmlns:svg="http://www.w3.org/2000/svg"><sodipodi:namedview
     id="namedview7"
     pagecolor="#242424"
     bordercolor="#666666"
     borderopacity="1"
     inkscape:showpageshadow="0"
     inkscape:pageopacity="0"
     inkscape:pagecheckerboard="1"
     inkscape:deskcolor="#000000"
     inkscape:document-units="px"
     showgrid="false"
     inkscape:zoom="0.65186406"
     inkscape:cx="372.01008"
     inkscape:cy="184.85449"
     inkscape:window-width="3256"
     inkscape:window-height="1080"
     inkscape:window-x="1864"
     inkscape:window-y="0"
     inkscape:window-maximized="0"
     inkscape:current-layer="layer1" /><defs
     id="defs2"><inkscape:path-effect
       effect="fillet_chamfer"
       id="path-effect5"
       is_visible="true"
       lpeversion="1"
       nodesatellites_param="F,0,1,1,0,2.6458332,0,1 @ F,0,0,1,0,0,0,1 @ F,0,0,1,0,0,0,1 @ F,0,0,1,0,0,0,1 @ F,0,0,1,0,0,0,1 @ F,0,0,1,0,0,0,1 @ F,0,1,1,0,2.6458332,0,1 @ F,0,0,1,0,0,0,1 @ F,0,0,1,0,0,0,1 @ F,0,0,1,0,0,0,1"
       radius="10"
       unit="px"
       method="auto"
       mode="F"
       chamfer_steps="1"
       flexible="false"
       use_knot_distance="true"
       apply_no_radius="true"
       apply_with_radius="true"
       only_selected="true"
       hide_knots="false" /><inkscape:path-effect
       effect="fillet_chamfer"
       id="path-effect4"
       is_visible="true"
       lpeversion="1"
       nodesatellites_param="F,0,0,1,0,0,0,1 @ F,0,1,1,0,4.7624998,0,1 @ F,0,0,1,0,0,0,1 @ F,0,1,1,0,4.7624998,0,1 @ F,0,0,1,0,0,0,1 @ F,0,0,1,0,0,0,1 @ F,0,0,1,0,0,0,1 @ F,0,0,1,0,0,0,1"
       radius="18"
       unit="px"
       method="auto"
       mode="F"
       chamfer_steps="1"
       flexible="false"
       use_knot_distance="true"
       apply_no_radius="true"
       apply_with_radius="true"
       only_selected="true"
       hide_knots="false" /><linearGradient
       id="linearGradient5"
       inkscape:collect="always"><stop
         style="stop-color:#28220b;stop-opacity:1;"
         offset="0"
         id="stop5" /><stop
         style="stop-color:#28220b;stop-opacity:0;"
         offset="1"
         id="stop6" /></linearGradient><filter
       inkscape:collect="always"
       style="color-interpolation-filters:sRGB"
       id="filter5"
       x="-0.069115418"
       y="-0.069124596"
       width="1.1382308"
       height="1.1382492"><feGaussianBlur
         inkscape:collect="always"
         stdDeviation="3.3833812"
         id="feGaussianBlur5" /></filter><radialGradient
       inkscape:collect="always"
       xlink:href="#linearGradient5"
       id="radialGradient6"
       cx="67.725586"
       cy="67.733406"
       fx="67.725586"
       fy="67.733406"
       r="60.773193"
       gradientTransform="matrix(1,0,0,0.9998715,-190.66144,-27.732667)"
       gradientUnits="userSpaceOnUse" /><linearGradient
       id="linearGradient2"
       inkscape:collect="always"><stop
         style="stop-color:#000000;stop-opacity:1;"
         offset="0"
         id="stop3" /><stop
         style="stop-color:#ffffff;stop-opacity:1;"
         offset="0.2"
         id="stop7" /><stop
         style="stop-color:#000000;stop-opacity:1;"
         offset="0.40365851"
         id="stop8" /><stop
         style="stop-color:#ffffff;stop-opacity:1;"
         offset="0.60454738"
         id="stop9" /><stop
         style="stop-color:#000000;stop-opacity:1;"
         offset="0.79727012"
         id="stop10" /><stop
         style="stop-color:#ffffff;stop-opacity:1;"
         offset="1"
         id="stop6-3" /></linearGradient><linearGradient
       inkscape:collect="always"
       xlink:href="#linearGradient2"
       id="linearGradient3"
       x1="0"
       y1="0"
       x2="135.46666"
       y2="135.46666"
       gradientUnits="userSpaceOnUse"
       gradientTransform="matrix(0.98437504,0,0,0.98437504,-189.60311,-26.683039)" /><linearGradient
       inkscape:collect="always"
       xlink:href="#linearGradient2"
       id="linearGradient12"
       x1="95.859886"
       y1="93.86879"
       x2="135.46666"
       y2="93.86879"
       gradientUnits="userSpaceOnUse"
       gradientTransform="translate(-1.0583333,1.0583333)" /><linearGradient
       inkscape:collect="always"
       xlink:href="#linearGradient2"
       id="linearGradient14"
       x1="0"
       y1="93.86879"
       x2="39.606781"
       y2="93.86879"
       gradientUnits="userSpaceOnUse"
       gradientTransform="translate(1.0583333,1.0583333)" /><linearGradient
       inkscape:collect="always"
       xlink:href="#linearGradient2"
       id="linearGradient16"
       x1="15.928742"
       y1="33.790943"
       x2="119.53792"
       y2="33.790943"
       gradientUnits="userSpaceOnUse"
       gradientTransform="translate(0,1.0583333)" /><filter
       inkscape:collect="always"
       style="color-interpolation-filters:sRGB"
       id="filter20"
       x="-0.088556743"
       y="-0.14850751"
       width="1.1771135"
       height="1.297015"><feGaussianBlur
         inkscape:collect="always"
         stdDeviation="3.3527954"
         id="feGaussianBlur20" /></filter><filter
       inkscape:collect="always"
       style="color-interpolation-filters:sRGB"
       id="filter21"
       x="-0.066696607"
       y="-0.1630204"
       width="1.1333932"
       height="1.3260408"><feGaussianBlur
         inkscape:collect="always"
         stdDeviation="3.3527954"
         id="feGaussianBlur21" /></filter></defs><g
     inkscape:label="Layer 1"
     inkscape:groupmode="layer"
     id="layer1"><rect
       style="display:none;fill:#c2c2c2;fill-opacity:1;stroke:none;stroke-width:15.3972;stroke-linecap:round;stroke-linejoin:round;stroke-dasharray:369.534, 369.534;stroke-dashoffset:0;stroke-opacity:1;paint-order:fill markers stroke"
       id="rect35429"
       width="135.46667"
       height="17.926836"
       x="-190.66144"
       y="31.028542"
       ry="8.963418" /><rect
       style="display:none;fill:#c2c2c2;fill-opacity:1;stroke:none;stroke-width:15.3972;stroke-linecap:round;stroke-linejoin:round;stroke-dasharray:369.534, 369.534;stroke-dashoffset:0;stroke-opacity:1;paint-order:fill markers stroke"
       id="rect35429-1"
       width="135.46667"
       height="17.926836"
       x="-27.741381"
       y="113.9647"
       ry="8.963418"
       transform="rotate(90)" /><path
       id="rect1"
       style="display:none;fill:#c2c2c2;fill-opacity:1;stroke:url(#linearGradient3);stroke-width:1.79705;stroke-linecap:round;stroke-linejoin:round;stroke-dasharray:none;stroke-opacity:1;paint-order:markers stroke fill"
       d="m -143.78134,-26.683039 v 45.821768 h -45.82177 v 41.706468 h 45.82177 v 45.821763 h 41.70647 V 60.845197 h 45.82176 V 19.138729 h -45.82176 v -45.821768 z" /><path
       id="rect3"
       style="display:none;opacity:0.2;fill:url(#radialGradient6);fill-opacity:1;stroke:none;stroke-width:6.35;stroke-linecap:round;stroke-linejoin:round;stroke-opacity:1;paint-order:fill markers stroke;filter:url(#filter5)"
       d="m -135.11456,18.807457 c -0.0412,5.237474 -5.2465,9.533986 -10.36953,9.044497 -12.06486,-0.06704 -24.12995,-0.04121 -36.19493,-0.0484 0.0154,8.124993 0.0206,16.249993 0.0156,24.375 13.14614,0.03674 26.2983,-0.137624 39.43945,0.248047 4.66436,1.083341 7.74649,6.128874 7.10938,10.78125 0,11.839838 0,23.679688 0,35.519528 8.12434,0 16.24869,0 24.37304,0 0.0367,-13.14614 -0.13762,-26.2983 0.24805,-39.43945 1.08334,-4.664357 6.12887,-7.746492 10.781249,-7.109375 11.839841,0 23.679691,0 35.519531,0 0,-8.124349 0,-16.248698 0,-24.373047 -13.14614,-0.03674 -26.2983,0.137624 -39.43945,-0.248047 -4.66436,-1.083341 -7.74649,-6.128874 -7.10938,-10.78125 0,-11.839844 0,-23.679687 0,-35.519531 -8.12435,0 -16.2487,0 -24.37304,0 0,12.516927 0,25.033854 0,37.550781 z" /><g
       id="g16"
       transform="translate(0,4.2333308)"><path
         id="path1"
         style="baseline-shift:baseline;display:inline;overflow:visible;opacity:1;fill:#2424ff;fill-opacity:1;stroke:url(#linearGradient16);stroke-width:1.5875;stroke-linecap:round;stroke-linejoin:round;stroke-miterlimit:12;stroke-dasharray:none;paint-order:markers stroke fill;enable-background:accumulate;stop-color:#000000;stop-opacity:1"
         d="m 67.733331,1.0583333 c -28.510561,0 -51.804589,23.2940297 -51.804589,51.8045907 0,25.20472 16.93385,15.287514 16.93385,0 0,-19.359109 15.51163,-34.871257 34.870739,-34.871257 19.359109,0 34.871249,15.512148 34.871249,34.871257 0,16.522534 16.93334,25.1159 16.93334,0 0,-28.510561 -23.294027,-51.8045907 -51.804591,-51.8045907 z"
         sodipodi:nodetypes="ssssssss" /><path
         id="rect4"
         style="opacity:1;fill:#2424ff;fill-opacity:1;stroke:url(#linearGradient14);stroke-width:1.5875;stroke-linecap:round;stroke-linejoin:round;stroke-miterlimit:12;stroke-dasharray:none;paint-order:markers stroke fill"
         d="m 18.215891,63.912577 h 12.395057 c 2.630256,0 4.762499,2.132244 4.762499,4.7625 v 52.504093 c 0,2.63026 -2.132243,4.7625 -4.762499,4.7625 H 18.215891 c -1.672248,0 -3.253751,-0.76046 -4.297925,-2.06664 L 1.0583333,107.78856 V 82.065682 L 13.917966,65.979223 c 1.044173,-1.306184 2.625676,-2.066646 4.297925,-2.066646 z"
         sodipodi:nodetypes="cccccccccsc" /><path
         id="path5"
         style="opacity:1;fill:#2424ff;fill-opacity:1;stroke:url(#linearGradient12);stroke-width:1.5875;stroke-linecap:round;stroke-linejoin:round;stroke-miterlimit:12;stroke-dasharray:none;paint-order:markers stroke fill"
         d="m 117.25077,63.912577 h -12.39506 c -2.63025,0 -4.76249,2.132244 -4.76249,4.7625 v 52.504093 c 0,2.63026 2.13224,4.7625 4.76249,4.7625 h 12.39506 c 1.67225,0 3.25375,-0.76046 4.29792,-2.06664 l 12.85963,-16.08647 V 82.065682 L 121.54869,65.979223 c -1.04417,-1.306183 -2.62567,-2.066644 -4.29792,-2.066646 z"
         sodipodi:nodetypes="cccccccccsc" /></g><g
       id="g21"
       transform="translate(-211.46684,91.071948)"
       sodipodi:insensitive="true"><path
         id="path16"
         style="baseline-shift:baseline;display:inline;overflow:visible;opacity:0.2;fill:#28220b;fill-opacity:1;stroke:none;stroke-width:1.5875;stroke-linecap:round;stroke-linejoin:round;stroke-miterlimit:12;stroke-dasharray:none;paint-order:markers stroke fill;filter:url(#filter20);enable-background:accumulate;stop-color:#000000"
         d="m 277.19141,-79.400391 c -7.8138,0.343633 -15.61497,2.791532 -22.2793,7.03711 -6.27859,4.007488 -11.71008,9.694112 -15.39258,16.287109 -2.81392,4.986863 -4.56385,10.408917 -5.34972,16.047485 -0.39505,2.850918 -0.51954,5.826806 -0.30067,8.663453 0.1972,1.940631 0.38535,3.919888 1.0332,5.769531 2.40188,-2.341955 3.00637,-5.83943 3.10057,-9.054635 0.0559,-3.808567 0.57988,-7.614988 1.70599,-11.258935 3.60621,-11.990806 12.8986,-22.212767 24.67616,-26.587142 12.64054,-4.845613 27.67868,-3.104696 38.69454,4.839389 9.92764,7.006829 16.50964,18.596246 17.22755,30.749274 0.22914,3.006464 0.0664,6.012192 1.24363,8.872596 0.44162,1.015671 1.00505,1.997412 1.79102,2.787109 1.14815,-2.63187 1.13558,-5.576976 1.28178,-8.39492 0.12165,-9.649515 -2.98455,-19.226348 -8.68022,-27.01133 -6.44603,-8.904329 -16.20031,-15.343757 -26.94107,-17.706619 -3.88269,-0.87131 -7.81533,-1.176833 -11.81088,-1.039475 z" /><path
         id="path17"
         style="opacity:0.2;fill:#28220b;fill-opacity:1;stroke:none;stroke-width:1.5875;stroke-linecap:round;stroke-linejoin:round;stroke-miterlimit:12;stroke-dasharray:none;paint-order:markers stroke fill;filter:url(#filter21)"
         d="m 233.50586,-16.599609 c -1.1588,0.01647 -2.31776,0.04322 -3.47461,0.115234 -1.176,1.217534 -2.00082,2.724524 -3.16822,3.952611 -2.66203,3.3204839 -5.32405,6.6409677 -7.98608,9.9614515 0,7.0917969 0,14.1835935 0,21.2753905 3.74124,4.674824 7.4714,9.358694 11.27344,13.984375 1.79028,0.201828 3.59093,-0.145861 5.38437,0.03142 1.65066,0.0024 3.3728,0.05949 4.97696,-0.02556 -0.0563,-16.433509 0.003,-32.86733171 -0.0957,-49.300781 -2.30324,0.02775 -4.60685,-0.01177 -6.91016,0.0059 z m 86.11523,0 c -0.57827,0.01764 -1.15683,0.02878 -1.73437,0.06445 0.0603,16.42566898 0.002,32.851666 0.0859,49.277344 3.44077,-0.09025 6.8875,0.124487 10.32422,-0.126954 1.17569,-0.985941 1.85397,-2.417545 2.90004,-3.529846 2.79665,-3.443736 5.55238,-6.9204 8.32652,-10.382263 0,-7.090495 0,-14.1809896 0,-21.2714844 -3.75361,-4.6912471 -7.48784,-9.3983846 -11.31836,-14.0273436 -2.86135,0.0223 -5.72263,-0.02304 -8.58399,-0.0039 z" /></g></g></svg>
