<?xml version="1.0" encoding="UTF-8" standalone="no"?>
<!-- Created with Inkscape (http://www.inkscape.org/) -->

<svg
   width="512"
   height="512"
   viewBox="0 0 135.46666 135.46667"
   version="1.1"
   id="svg5"
   inkscape:version="1.2.1 (9c6d41e410, 2022-07-14, custom)"
   sodipodi:docname="firewire.svg"
   xmlns:inkscape="http://www.inkscape.org/namespaces/inkscape"
   xmlns:sodipodi="http://sodipodi.sourceforge.net/DTD/sodipodi-0.dtd"
   xmlns="http://www.w3.org/2000/svg"
   xmlns:svg="http://www.w3.org/2000/svg">
  <sodipodi:namedview
     id="namedview7"
     pagecolor="#505050"
     bordercolor="#ffffff"
     borderopacity="1"
     inkscape:showpageshadow="0"
     inkscape:pageopacity="0"
     inkscape:pagecheckerboard="1"
     inkscape:deskcolor="#505050"
     inkscape:document-units="px"
     showgrid="false"
     inkscape:zoom="1.1214272"
     inkscape:cx="39.235718"
     inkscape:cy="292.48444"
     inkscape:window-width="3252"
     inkscape:window-height="1076"
     inkscape:window-x="1864"
     inkscape:window-y="0"
     inkscape:window-maximized="0"
     inkscape:current-layer="layer1" />
  <defs
     id="defs2">
    <clipPath
       clipPathUnits="userSpaceOnUse"
       id="clipPath32001">
      <path
         id="path32003"
         style="color:#000000;fill:#d38d5f;stroke-width:1;stroke-linecap:round;stroke-linejoin:round;paint-order:stroke fill markers"
         d="m -132.78,-16.564362 c -0.0926,0 -0.18533,0.03547 -0.25632,0.106453 l -22.31234,22.3123319 c -0.14196,0.1419691 -0.14196,0.3706609 0,0.5126299 l 6.97116,6.9711522 c 0.14196,0.141969 0.37066,0.141969 0.51263,0 l 22.31233,-22.3123342 c 0.14198,-0.1419688 0.14198,-0.3706609 0,-0.5126299 l -6.97115,-6.9711499 c -0.071,-0.07098 -0.16368,-0.106453 -0.25631,-0.106453 z m 72.96453,0.882116 c -0.638141,0 -1.2763,0.244316 -1.765271,0.733289 l -18.91978,18.9202909 c -0.977939,0.9779449 -0.977939,2.552588 0,3.530534 l 19.29443,19.2944311 c 0.97795,0.977944 2.55207,0.977944 3.530021,0 L -38.75578,7.8760049 c 0.97795,-0.977946 0.97795,-2.552588 0,-3.5305341 L -58.05021,-14.948957 c -0.488971,-0.488973 -1.12713,-0.733289 -1.76526,-0.733289 z m -57.99748,14.0849279 c -0.0926,0 -0.18482,0.03547 -0.2558,0.106453 l -22.31233,22.3123341 c -0.14197,0.141969 -0.14197,0.370661 0,0.51263 l 6.97063,6.97115 c 0.14196,0.14197 0.37065,0.14197 0.51263,0 l 22.31233,-22.3123331 c 0.14197,-0.1419691 0.14197,-0.370662 0,-0.51263 l -6.97115,-6.971151 c -0.071,-0.07098 -0.16367,-0.106453 -0.25631,-0.106453 z M -96.296971,23.54275 c -10.486519,0 -19.050509,8.564503 -19.050509,19.051033 0,10.48653 8.56399,19.048966 19.050509,19.048966 10.48653,0 19.048971,-8.562436 19.048971,-19.048966 0,-10.48653 -8.562441,-19.051033 -19.048971,-19.051033 z m 0,5.820316 c 7.340732,0 13.228651,5.88999 13.228651,13.230717 0,7.340727 -5.887919,13.228651 -13.228651,13.228651 -7.340719,0 -13.230179,-5.887924 -13.230179,-13.228651 0,-7.340727 5.88946,-13.230717 13.230179,-13.230717 z M -112.07481,78.5766 c -0.20077,0 -0.36224,0.161478 -0.36224,0.362252 v 9.858311 c 0,0.200774 0.16146,0.362768 0.36224,0.362768 h 31.55466 c 0.200771,0 0.362249,-0.161994 0.362249,-0.362768 v -9.858311 c 0,-0.200774 -0.161478,-0.362252 -0.362249,-0.362252 z m 0,21.166669 c -0.20077,0 -0.36224,0.161481 -0.36224,0.362261 v 9.85831 c 0,0.20077 0.16146,0.36277 0.36224,0.36277 h 31.55466 c 0.200771,0 0.362249,-0.162 0.362249,-0.36277 v -9.85831 c 0,-0.20078 -0.161478,-0.362261 -0.362249,-0.362261 z" />
    </clipPath>
    <filter
       inkscape:collect="always"
       style="color-interpolation-filters:sRGB"
       id="filter32005"
       x="-0.10733704"
       y="-0.083737675"
       width="1.2146741"
       height="1.1674754">
      <feGaussianBlur
         inkscape:collect="always"
         stdDeviation="4.4273144"
         id="feGaussianBlur32007" />
    </filter>
  </defs>
  <g
     inkscape:label="Layer 1"
     inkscape:groupmode="layer"
     id="layer1">
    <circle
       style="opacity:1;fill:none;stroke:#ffbc00;stroke-width:5.82083;stroke-linecap:round;stroke-linejoin:round;stroke-dasharray:none;stroke-opacity:1;paint-order:stroke fill markers"
       id="path792"
       cx="67.73333"
       cy="67.73333"
       r="16.139584"
       inkscape:transform-center-x="1.1131801e-06" />
    <rect
       style="display:inline;opacity:1;fill:#ffbc00;fill-opacity:1;stroke:none;stroke-width:3.50044;stroke-linecap:round;stroke-linejoin:round;stroke-dasharray:none;stroke-opacity:1;paint-order:stroke fill markers"
       id="rect2043"
       width="32.279167"
       height="31.75"
       x="79.649811"
       y="-67.73333"
       ry="2.4964354"
       inkscape:transform-center-x="-36.669377"
       inkscape:transform-center-y="-36.669378"
       transform="rotate(45)" />
    <rect
       style="fill:#ffbc00;fill-opacity:1;stroke:none;stroke-width:2.02098;stroke-linecap:round;stroke-linejoin:round;stroke-dasharray:none;stroke-opacity:1;paint-order:stroke fill markers"
       id="rect2043-3"
       width="32.279167"
       height="10.583333"
       x="-16.13958"
       y="28.056065"
       ry="0.36240864"
       inkscape:transform-center-x="44.152922"
       inkscape:transform-center-y="-44.152927"
       transform="rotate(-45)" />
    <rect
       style="fill:#ffbc00;fill-opacity:1;stroke:none;stroke-width:2.02098;stroke-linecap:round;stroke-linejoin:round;stroke-dasharray:none;stroke-opacity:1;paint-order:stroke fill markers"
       id="rect2043-3-7"
       width="32.279167"
       height="10.583333"
       x="-16.13958"
       y="49.222729"
       ry="0.36240864"
       inkscape:transform-center-x="29.18583"
       inkscape:transform-center-y="-29.185835"
       transform="rotate(-45)" />
    <rect
       style="fill:#ffbc00;fill-opacity:1;stroke:none;stroke-width:2.02098;stroke-linecap:round;stroke-linejoin:round;stroke-dasharray:none;stroke-opacity:1;paint-order:stroke fill markers"
       id="rect4384"
       width="32.279167"
       height="10.583333"
       x="-83.87291"
       y="-135.46666"
       ry="0.36240864"
       inkscape:transform-center-x="4.3271419e-06"
       inkscape:transform-center-y="62.441665"
       transform="scale(-1)" />
    <rect
       style="display:inline;fill:#ffbc00;fill-opacity:1;stroke:none;stroke-width:2.02098;stroke-linecap:round;stroke-linejoin:round;stroke-dasharray:none;stroke-opacity:1;paint-order:stroke fill markers"
       id="rect4388"
       width="32.279167"
       height="10.583333"
       x="-83.87291"
       y="-114.3"
       ry="0.36240864"
       inkscape:transform-center-x="4.9278775e-06"
       inkscape:transform-center-y="41.275008"
       transform="scale(-1)" />
    <path
       id="path792-2"
       style="color:#000000;display:inline;fill:#ff0000;fill-opacity:1;stroke-linecap:round;stroke-linejoin:round;paint-order:stroke fill markers;filter:url(#filter32005)"
       d="m -132.78001,-16.564363 c -0.0926,0 -0.18533,0.03547 -0.25631,0.106453 l -22.31234,22.3123329 c -0.14196,0.1419687 -0.14196,0.3706617 0,0.5126302 l 1.5875,1.5875 c -0.14196,-0.1419688 -0.14196,-0.3706613 0,-0.5126302 l 22.31234,-22.3123329 c 0.071,-0.07098 0.16371,-0.106453 0.25631,-0.106453 0.0926,0 0.18532,0.03547 0.25632,0.106453 l -1.5875,-1.5875 c -0.071,-0.07098 -0.16368,-0.106453 -0.25632,-0.106453 z m 72.96454,0.882116 c -0.638135,0 -1.276294,0.244316 -1.765267,0.733289 L -80.500512,3.9713338 c -0.977944,0.9779445 -0.977944,2.5525893 0,3.5305338 l 1.5875,1.5875 c -0.977939,-0.9779451 -0.977939,-2.5525898 0,-3.5305338 l 18.919775,-18.9202918 c 0.488973,-0.488973 1.127132,-0.733289 1.765267,-0.733289 0.638136,0 1.276295,0.244316 1.765267,0.733289 l -1.5875,-1.5875 c -0.488972,-0.488973 -1.127131,-0.733289 -1.765267,-0.733289 z m -57.99749,14.0849285 c -0.0926,0 -0.18482,0.035469 -0.2558,0.1064534 l -22.31233,22.3123331 c -0.14197,0.141969 -0.14197,0.370661 0,0.51263 l 1.5875,1.5875 c -0.14197,-0.141969 -0.14197,-0.370661 0,-0.51263 l 22.31233,-22.31233307 c 0.071,-0.07098289 0.1632,-0.10645345 0.2558,-0.10645345 0.0926,0 0.18531,0.03547352 0.25631,0.10645345 l -1.5875,-1.58750003 c -0.071,-0.070984 -0.16367,-0.1064534 -0.25631,-0.1064534 z m 21.515997,25.1400675 c -10.486527,0 -19.050517,8.564515 -19.050517,19.051033 0,5.64469 2.48405,10.729073 6.41098,14.223421 -2.99614,-3.367671 -4.82348,-7.795504 -4.82348,-12.635921 0,-10.486519 8.56401,-19.051033 19.050517,-19.051033 4.840845,0 9.269172,1.827786 12.636954,4.824511 -3.494375,-3.927658 -8.579275,-6.412011 -14.224454,-6.412011 z m 10.123413,10.510469 c 1.938756,2.300235 3.105236,5.276121 3.105236,8.540564 0,7.34072 -5.887931,13.22865 -13.228649,13.22865 -3.264444,0 -6.239927,-1.166481 -8.540047,-3.105237 2.42133,2.87382 6.04955,4.692737 10.127547,4.692737 7.340722,0 13.228649,-5.88793 13.228649,-13.22865 0,-4.078 -1.818917,-7.70659 -4.692736,-10.128064 z m -25.90126,44.52338 c -0.20078,0 -0.36225,0.161478 -0.36225,0.362252 v 9.858313 c 0,0.200774 0.16147,0.362768 0.36225,0.362768 h 1.22525 V 80.52635 c 0,-0.200774 0.16148,-0.362252 0.36225,-0.362252 h 30.329413 V 78.93885 c 0,-0.200774 -0.161478,-0.362252 -0.362252,-0.362252 z m 0,21.166667 c -0.20078,0 -0.36225,0.161474 -0.36225,0.362255 v 9.85831 c 0,0.20077 0.16147,0.36277 0.36225,0.36277 h 1.22525 v -8.63358 c 0,-0.20078 0.16148,-0.36226 0.36225,-0.36226 h 30.329413 v -1.22524 c 0,-0.200781 -0.161478,-0.362255 -0.362252,-0.362255 z"
       clip-path="url(#clipPath32001)"
       transform="translate(164.03079,25.140307)" />
    <path
       id="path792-5"
       style="color:#000000;display:inline;mix-blend-mode:soft-light;fill:#ffff00;stroke-linecap:round;stroke-linejoin:round;paint-order:stroke fill markers"
       d="m 31.250802,8.5757046 c -0.09264,0 -0.18534,0.03547 -0.25632,0.106454 L 8.6821522,30.994492 c -0.14197,0.141969 -0.14197,0.370661 0,0.51263 l 6.9711498,6.971151 c 0.14197,0.141967 0.37066,0.141967 0.51263,0 l 0.62425,-0.624252 -6.3469,-6.346899 c -0.14197,-0.141969 -0.14197,-0.370661 0,-0.51263 l 21.68808,-21.6880824 -0.62425,-0.624251 c -0.07098,-0.07099 -0.16368,-0.106454 -0.25631,-0.106454 z m 72.964538,0.882117 c -0.63813,0 -1.27629,0.244834 -1.76526,0.7338054 L 83.530292,29.111403 c -0.97794,0.977944 -0.97794,2.552589 0,3.530533 l 19.293918,19.29443 c 0.71796,0.71795 1.75689,0.906712 2.64584,0.570507 -0.32192,-0.121751 -0.62471,-0.310513 -0.8847,-0.570507 L 85.291422,32.641936 c -0.97794,-0.977944 -0.97794,-2.552589 0,-3.530533 L 104.21121,10.191627 c 0.25996,-0.2599614 0.56283,-0.4486624 0.8847,-0.5705074 -0.28355,-0.107338 -0.58169,-0.163298 -0.88057,-0.163298 z M 46.217842,23.543267 c -0.09264,0 -0.18533,0.03547 -0.25631,0.106454 l -22.31234,22.312332 c -0.14197,0.141969 -0.14197,0.370145 0,0.512114 l 6.97115,6.97115 c 0.14197,0.141969 0.37066,0.141969 0.51263,0 l 0.62425,-0.624251 -6.34689,-6.346899 c -0.14197,-0.141969 -0.14197,-0.370145 0,-0.512114 l 21.68808,-21.688081 -0.62425,-0.624251 c -0.07099,-0.07099 -0.16368,-0.106454 -0.25632,-0.106454 z m 21.51497,25.139034 c -10.48652,0 -19.04897,8.564513 -19.04897,19.051033 0,10.48652 8.56245,19.050517 19.04897,19.050517 0.29529,0 0.58846,-0.0088 0.88056,-0.02222 -10.08079,-0.463617 -18.1684,-8.837073 -18.1684,-19.028296 0,-10.191224 8.08761,-18.565169 18.1684,-19.028812 -0.2921,-0.01343 -0.58527,-0.02222 -0.88056,-0.02222 z m 1.76113,5.822383 c -0.29638,0 -0.58922,0.01314 -0.88057,0.03204 6.92495,0.449307 12.34964,6.152267 12.34964,13.19661 0,7.044343 -5.42469,12.747303 -12.34964,13.19661 0.29135,0.0189 0.58419,0.03204 0.88057,0.03204 7.34072,0 13.2302,-5.887931 13.2302,-13.22865 0,-7.34072 -5.88948,-13.22865 -13.2302,-13.22865 z m -17.53795,49.211986 c -0.20077,0 -0.36225,0.16148 -0.36225,0.36225 v 9.85883 c 0,0.20077 0.16148,0.36225 0.36225,0.36225 h 1.76113 c -0.20077,0 -0.36225,-0.16148 -0.36225,-0.36225 v -9.85883 c 0,-0.20077 0.16148,-0.36225 0.36225,-0.36225 z m 0,21.16666 c -0.20077,0 -0.36225,0.16148 -0.36225,0.36225 v 9.85883 c 0,0.20078 0.16148,0.36226 0.36225,0.36226 h 1.76113 c -0.20077,0 -0.36225,-0.16148 -0.36225,-0.36226 v -9.85883 c 0,-0.20077 0.16148,-0.36225 0.36225,-0.36225 z" />
  </g>
</svg>
