<?xml version="1.0" encoding="UTF-8" standalone="no"?>
<!-- Created with Inkscape (http://www.inkscape.org/) -->

<svg
   width="512"
   height="512"
   viewBox="0 0 135.46666 135.46667"
   version="1.1"
   id="svg5"
   inkscape:version="1.4.2 (ebf0e940d0, 2025-05-08)"
   sodipodi:docname="input-dailpad.svg"
   xmlns:inkscape="http://www.inkscape.org/namespaces/inkscape"
   xmlns:sodipodi="http://sodipodi.sourceforge.net/DTD/sodipodi-0.dtd"
   xmlns:xlink="http://www.w3.org/1999/xlink"
   xmlns="http://www.w3.org/2000/svg"
   xmlns:svg="http://www.w3.org/2000/svg">
  <sodipodi:namedview
     id="namedview7"
     pagecolor="#242424"
     bordercolor="#666666"
     borderopacity="1"
     inkscape:showpageshadow="0"
     inkscape:pageopacity="0"
     inkscape:pagecheckerboard="1"
     inkscape:deskcolor="#000000"
     inkscape:document-units="px"
     showgrid="false"
     inkscape:zoom="1.84375"
     inkscape:cx="373.42373"
     inkscape:cy="358.77966"
     inkscape:window-width="3256"
     inkscape:window-height="1080"
     inkscape:window-x="1864"
     inkscape:window-y="0"
     inkscape:window-maximized="0"
     inkscape:current-layer="layer1" />
  <defs
     id="defs2">
    <linearGradient
       id="linearGradient68"
       inkscape:collect="always">
      <stop
         style="stop-color:#000000;stop-opacity:1;"
         offset="0"
         id="stop68" />
      <stop
         style="stop-color:#616161;stop-opacity:1;"
         offset="1"
         id="stop69" />
    </linearGradient>
    <inkscape:path-effect
       effect="fillet_chamfer"
       id="path-effect24"
       is_visible="true"
       lpeversion="1"
       nodesatellites_param="F,0,0,1,0,0,0,1 @ F,0,1,1,0,4.7624998,0,1 @ F,0,0,1,0,0,0,1"
       radius="18"
       unit="px"
       method="auto"
       mode="F"
       chamfer_steps="1"
       flexible="false"
       use_knot_distance="true"
       apply_no_radius="true"
       apply_with_radius="true"
       only_selected="true"
       hide_knots="false" />
    <filter
       inkscape:collect="always"
       style="color-interpolation-filters:sRGB"
       id="filter48"
       x="-0.017280005"
       y="-0.017280004"
       width="1.03456"
       height="1.03456">
      <feGaussianBlur
         inkscape:collect="always"
         stdDeviation="0.13654688"
         id="feGaussianBlur48" />
    </filter>
    <filter
       inkscape:collect="always"
       style="color-interpolation-filters:sRGB"
       id="filter49"
       x="-0.012311109"
       y="-0.028974349"
       width="1.0246222"
       height="1.0579487">
      <feGaussianBlur
         inkscape:collect="always"
         stdDeviation="0.22895579"
         id="feGaussianBlur49" />
    </filter>
    <filter
       inkscape:collect="always"
       style="color-interpolation-filters:sRGB"
       id="filter50"
       x="-0.028974333"
       y="-0.012311112"
       width="1.0579487"
       height="1.0246222">
      <feGaussianBlur
         inkscape:collect="always"
         stdDeviation="0.22895582"
         id="feGaussianBlur50" />
    </filter>
    <clipPath
       clipPathUnits="userSpaceOnUse"
       id="clipPath67">
      <path
         style="baseline-shift:baseline;display:inline;overflow:visible;vector-effect:none;fill:#333333;stroke-width:0.999998;stroke-linecap:round;stroke-linejoin:round;stroke-miterlimit:12;paint-order:markers stroke fill;enable-background:accumulate;stop-color:#000000"
         d="m 158.04343,-11.518538 h 99.29621 c 2.75689,0 4.97633,2.2194412 4.97633,4.976326 V 118.97179 c 0,2.75689 -2.21944,4.97633 -4.97633,4.97633 h -99.29621 c -2.75688,0 -4.97632,-2.21944 -4.97632,-4.97633 V -6.542212 c 0,-2.7568848 2.21944,-4.976326 4.97632,-4.976326 z"
         id="path68" />
    </clipPath>
    <filter
       inkscape:collect="always"
       style="color-interpolation-filters:sRGB"
       id="filter68"
       x="-0.030810725"
       y="-0.024984448"
       width="1.0616214"
       height="1.0499689">
      <feGaussianBlur
         inkscape:collect="always"
         stdDeviation="1.4432748"
         id="feGaussianBlur68" />
    </filter>
    <linearGradient
       inkscape:collect="always"
       xlink:href="#linearGradient68"
       id="linearGradient69"
       x1="207.69238"
       y1="125.53516"
       x2="207.69141"
       y2="-13.105469"
       gradientUnits="userSpaceOnUse" />
  </defs>
  <g
     inkscape:label="Layer 1"
     inkscape:groupmode="layer"
     id="layer1">
    <rect
       style="opacity:1;fill:#333333;fill-opacity:1;stroke:none;stroke-width:1.5875;stroke-linecap:round;stroke-linejoin:round;stroke-miterlimit:12;stroke-dasharray:none;stroke-opacity:1;paint-order:markers stroke fill"
       id="rect41"
       width="109.24886"
       height="135.46666"
       x="13.108901"
       y="6.8997711e-06"
       ry="4.9763265" />
    <path
       id="rect33"
       style="fill:#cccccc;stroke-width:1.26999998;stroke-linecap:round;stroke-linejoin:round;stroke-miterlimit:12;paint-order:markers stroke fill;stroke:#000000;stroke-opacity:1;stroke-dasharray:none"
       d="m 19.658656,108.91941 c -0.254206,0 -0.458718,0.2045 -0.458718,0.45871 v 19.24721 c 0,0.25421 0.204512,0.45872 0.458718,0.45872 h 20.164648 7.531719 17.184602 c 0.254206,0 0.459178,-0.20451 0.459178,-0.45872 v -19.24721 c 0,-0.25421 -0.204972,-0.45871 -0.459178,-0.45871 H 47.355023 39.823304 Z" />
    <rect
       style="fill:#cccccc;stroke-width:1.26999998;stroke-linecap:round;stroke-linejoin:round;stroke-miterlimit:12;paint-order:markers stroke fill;stroke:#000000;stroke-opacity:1;stroke-dasharray:none"
       id="rect4"
       width="20.164726"
       height="20.164726"
       x="19.199715"
       y="32.016785"
       ry="0.45885611" />
    <rect
       style="fill:#cccccc;stroke-width:1.26999998;stroke-linecap:round;stroke-linejoin:round;stroke-miterlimit:12;paint-order:markers stroke fill;stroke:#000000;stroke-opacity:1;stroke-dasharray:none"
       id="rect5"
       width="20.164726"
       height="20.164726"
       x="44.833885"
       y="32.016785"
       ry="0.45885611" />
    <rect
       style="fill:#cccccc;stroke-width:1.26999998;stroke-linecap:round;stroke-linejoin:round;stroke-miterlimit:12;paint-order:markers stroke fill;stroke:#000000;stroke-opacity:1;stroke-dasharray:none"
       id="rect6"
       width="20.164726"
       height="20.164726"
       x="70.468056"
       y="32.016785"
       ry="0.45885611" />
    <rect
       style="fill:#cccccc;stroke-width:1.26999998;stroke-linecap:round;stroke-linejoin:round;stroke-miterlimit:12;paint-order:markers stroke fill;stroke:#000000;stroke-opacity:1;stroke-dasharray:none"
       id="rect7"
       width="20.164726"
       height="20.164726"
       x="19.199715"
       y="57.650955"
       ry="0.45885611" />
    <rect
       style="fill:#cccccc;stroke-width:1.26999998;stroke-linecap:round;stroke-linejoin:round;stroke-miterlimit:12;paint-order:markers stroke fill;stroke:#000000;stroke-opacity:1;stroke-dasharray:none"
       id="rect8"
       width="20.164726"
       height="20.164726"
       x="44.833885"
       y="57.650955"
       ry="0.45885611" />
    <rect
       style="fill:#cccccc;stroke-width:1.26999998;stroke-linecap:round;stroke-linejoin:round;stroke-miterlimit:12;paint-order:markers stroke fill;stroke:#000000;stroke-opacity:1;stroke-dasharray:none"
       id="rect9"
       width="20.164726"
       height="20.164726"
       x="70.468056"
       y="57.650955"
       ry="0.45885611" />
    <rect
       style="fill:#cccccc;stroke-width:1.26999998;stroke-linecap:round;stroke-linejoin:round;stroke-miterlimit:12;paint-order:markers stroke fill;stroke:#000000;stroke-opacity:1;stroke-dasharray:none"
       id="rect10"
       width="20.164726"
       height="20.164726"
       x="19.199715"
       y="83.285133"
       ry="0.45885611" />
    <rect
       style="fill:#cccccc;stroke-width:1.26999998;stroke-linecap:round;stroke-linejoin:round;stroke-miterlimit:12;paint-order:markers stroke fill;stroke:#000000;stroke-opacity:1;stroke-dasharray:none"
       id="rect11"
       width="20.164726"
       height="20.164726"
       x="44.833885"
       y="83.285133"
       ry="0.45885611" />
    <rect
       style="fill:#cccccc;stroke-width:1.26999998;stroke-linecap:round;stroke-linejoin:round;stroke-miterlimit:12;paint-order:markers stroke fill;stroke:#000000;stroke-opacity:1;stroke-dasharray:none"
       id="rect12"
       width="20.164726"
       height="20.164726"
       x="70.468056"
       y="83.285133"
       ry="0.45885611" />
    <rect
       style="fill:#cccccc;stroke-width:1.26999998;stroke-linecap:round;stroke-linejoin:round;stroke-miterlimit:12;paint-order:markers stroke fill;stroke:#000000;stroke-opacity:1;stroke-dasharray:none"
       id="rect1"
       width="20.164726"
       height="20.164726"
       x="96.102226"
       y="32.016785"
       ry="0.45885611" />
    <path
       id="rect16"
       style="fill:none;stroke:#000000;stroke-width:1.5875;stroke-linecap:round;stroke-linejoin:round;stroke-miterlimit:12;stroke-dasharray:none;stroke-opacity:1;paint-order:markers stroke fill"
       d="m 104.50983,39.337967 h 6.17268 v 5.522362 h -6.17268 l -2.82316,-2.761181 z"
       sodipodi:nodetypes="cccccc" />
    <rect
       style="fill:#cccccc;stroke-width:1.26999998;stroke-linecap:round;stroke-linejoin:round;stroke-miterlimit:12;paint-order:markers stroke fill;stroke:#000000;stroke-opacity:1;stroke-dasharray:none"
       id="rect2"
       width="20.164726"
       height="20.164726"
       x="19.199715"
       y="6.3826141"
       ry="0.45885611" />
    <rect
       style="fill:#cccccc;stroke-width:1.26999998;stroke-linecap:round;stroke-linejoin:round;stroke-miterlimit:12;paint-order:markers stroke fill;stroke:#000000;stroke-opacity:1;stroke-dasharray:none"
       id="rect3"
       width="20.164726"
       height="20.164726"
       x="44.833881"
       y="6.3826141"
       ry="0.45885611" />
    <rect
       style="fill:#cccccc;stroke-width:1.26999998;stroke-linecap:round;stroke-linejoin:round;stroke-miterlimit:12;paint-order:markers stroke fill;stroke:#000000;stroke-opacity:1;stroke-dasharray:none"
       id="rect13"
       width="20.164726"
       height="20.164726"
       x="70.468048"
       y="6.3826141"
       ry="0.45885611" />
    <text
       xml:space="preserve"
       style="font-size:10.601px;line-height:1.25;font-family:'Adwaita Sans';-inkscape-font-specification:'Adwaita Sans, Normal';text-orientation:upright;stroke-width:0.264582"
       x="27.558374"
       y="19.922737"
       id="text16"><tspan
         sodipodi:role="line"
         id="tspan16"
         style="stroke-width:0.264582"
         x="27.558374"
         y="19.922737">/</tspan></text>
    <text
       xml:space="preserve"
       style="font-size:22.5683px;line-height:1.25;font-family:'Adwaita Sans';-inkscape-font-specification:'Adwaita Sans, Normal';text-orientation:upright;stroke-width:0.264582"
       x="49.626808"
       y="28.267038"
       id="text17"><tspan
         sodipodi:role="line"
         id="tspan17"
         style="stroke-width:0.264582"
         x="49.626808"
         y="28.267038">*</tspan></text>
    <text
       xml:space="preserve"
       style="font-size:27.5525px;line-height:1.25;font-family:'Adwaita Sans';-inkscape-font-specification:'Adwaita Sans, Normal';text-orientation:upright;stroke-width:0.264582"
       x="74.644379"
       y="24.644634"
       id="text18"><tspan
         sodipodi:role="line"
         id="tspan18"
         style="stroke-width:0.264582"
         x="74.644379"
         y="24.644634">-</tspan></text>
    <rect
       style="fill:#cccccc;stroke-width:1.26999998;stroke-linecap:round;stroke-linejoin:round;stroke-miterlimit:12;paint-order:markers stroke fill;stroke:#000000;stroke-opacity:1;stroke-dasharray:none"
       id="rect14"
       width="20.164726"
       height="20.164726"
       x="96.102219"
       y="6.3826151"
       ry="0.45885611" />
    <text
       xml:space="preserve"
       style="font-size:18.7127px;line-height:1.25;font-family:'Adwaita Sans';-inkscape-font-specification:'Adwaita Sans, Normal';text-orientation:upright;stroke-width:0.264582"
       x="100.30944"
       y="21.72794"
       id="text19"><tspan
         sodipodi:role="line"
         id="tspan19"
         style="stroke-width:0.264582"
         x="100.30944"
         y="21.72794">+</tspan></text>
    <rect
       style="fill:#cccccc;stroke-width:1.26999998;stroke-linecap:round;stroke-linejoin:round;stroke-miterlimit:12;paint-order:markers stroke fill;stroke:#000000;stroke-opacity:1;stroke-dasharray:none"
       id="rect15"
       width="20.164726"
       height="45.798904"
       x="96.102219"
       y="83.285133"
       ry="0.58953846" />
    <g
       id="g65">
      <path
         style="fill:none;stroke:#000000;stroke-width:1.5875;stroke-linecap:round;stroke-linejoin:round;stroke-dasharray:none;stroke-opacity:1"
         d="M 111.40708,97.162328 V 108.9097 c 0,2.34654 -1.90224,4.24878 -4.24878,4.24878 h -3.5484"
         id="path21"
         sodipodi:nodetypes="cccc" />
      <path
         id="path23"
         style="baseline-shift:baseline;display:inline;overflow:visible;vector-effect:none;fill:#000000;stroke-width:0.999991;stroke-linecap:round;stroke-linejoin:round;stroke-miterlimit:12;paint-order:markers stroke fill;enable-background:accumulate;stop-color:#000000;stroke:#000000;stroke-opacity:1"
         d="m 104.39551,111.11033 a 0.16446401,0.16446401 0 0 0 -0.0878,0.0217 l -3.26348,1.88408 a 0.16446401,0.16446401 0 0 0 0,0.28478 l 3.26348,1.88409 a 0.16446401,0.16446401 0 0 0 0.24635,-0.1425 v -3.76806 a 0.16446401,0.16446401 0 0 0 -0.15857,-0.16412 z" />
    </g>
    <text
       xml:space="preserve"
       style="font-size:10.601px;line-height:1.25;font-family:'Adwaita Sans';-inkscape-font-specification:'Adwaita Sans, Normal';text-orientation:upright;stroke-width:0.264582"
       x="26.549"
       y="45.955482"
       id="text24"><tspan
         sodipodi:role="line"
         id="tspan24"
         style="stroke-width:0.264582"
         x="26.549"
         y="45.955482">7</tspan></text>
    <text
       xml:space="preserve"
       style="font-size:10.601px;line-height:1.25;font-family:'Adwaita Sans';-inkscape-font-specification:'Adwaita Sans, Normal';text-orientation:upright;stroke-width:0.264582"
       x="51.831184"
       y="45.955482"
       id="text25"><tspan
         sodipodi:role="line"
         id="tspan25"
         style="stroke-width:0.264582"
         x="51.831184"
         y="45.955482">8</tspan></text>
    <text
       xml:space="preserve"
       style="font-size:10.601px;line-height:1.25;font-family:'Adwaita Sans';-inkscape-font-specification:'Adwaita Sans, Normal';text-orientation:upright;stroke-width:0.264582"
       x="77.454994"
       y="45.955482"
       id="text26"><tspan
         sodipodi:role="line"
         id="tspan26"
         style="stroke-width:0.264582"
         x="77.454994"
         y="45.955482">9</tspan></text>
    <text
       xml:space="preserve"
       style="font-size:10.601px;line-height:1.25;font-family:'Adwaita Sans';-inkscape-font-specification:'Adwaita Sans, Normal';text-orientation:upright;stroke-width:0.264582"
       x="26.00808"
       y="71.589653"
       id="text27"><tspan
         sodipodi:role="line"
         id="tspan27"
         style="stroke-width:0.264582"
         x="26.00808"
         y="71.589653">4</tspan></text>
    <text
       xml:space="preserve"
       style="font-size:10.601px;line-height:1.25;font-family:'Adwaita Sans';-inkscape-font-specification:'Adwaita Sans, Normal';text-orientation:upright;stroke-width:0.264582"
       x="51.885532"
       y="71.537888"
       id="text28"><tspan
         sodipodi:role="line"
         id="tspan28"
         style="stroke-width:0.264582"
         x="51.885532"
         y="71.537888">5</tspan></text>
    <text
       xml:space="preserve"
       style="font-size:10.601px;line-height:1.25;font-family:'Adwaita Sans';-inkscape-font-specification:'Adwaita Sans, Normal';text-orientation:upright;stroke-width:0.264582"
       x="77.454994"
       y="71.589653"
       id="text29"><tspan
         sodipodi:role="line"
         id="tspan29"
         style="stroke-width:0.264582"
         x="77.454994"
         y="71.589653">6</tspan></text>
    <text
       xml:space="preserve"
       style="font-size:10.601px;line-height:1.25;font-family:'Adwaita Sans';-inkscape-font-specification:'Adwaita Sans, Normal';text-orientation:upright;stroke-width:0.264582"
       x="27.620491"
       y="97.223831"
       id="text30"><tspan
         sodipodi:role="line"
         id="tspan30"
         style="stroke-width:0.264582"
         x="27.620491"
         y="97.223831">1</tspan></text>
    <text
       xml:space="preserve"
       style="font-size:10.601px;line-height:1.25;font-family:'Adwaita Sans';-inkscape-font-specification:'Adwaita Sans, Normal';text-orientation:upright;stroke-width:0.264582"
       x="51.942474"
       y="97.285942"
       id="text31"><tspan
         sodipodi:role="line"
         id="tspan31"
         style="stroke-width:0.264582"
         x="51.942474"
         y="97.285942">2</tspan></text>
    <text
       xml:space="preserve"
       style="font-size:10.601px;line-height:1.25;font-family:'Adwaita Sans';-inkscape-font-specification:'Adwaita Sans, Normal';text-orientation:upright;stroke-width:0.264582"
       x="77.361824"
       y="97.223831"
       id="text32"><tspan
         sodipodi:role="line"
         id="tspan32"
         style="stroke-width:0.264582"
         x="77.361824"
         y="97.223831">3</tspan></text>
    <rect
       style="fill:#cccccc;stroke-width:1.26999998;stroke-linecap:round;stroke-linejoin:round;stroke-miterlimit:12;paint-order:markers stroke fill;stroke:#000000;stroke-opacity:1;stroke-dasharray:none"
       id="rect32"
       width="20.164726"
       height="20.164726"
       x="70.468056"
       y="108.91931"
       ry="0.45885611" />
    <text
       xml:space="preserve"
       style="font-size:10.601px;line-height:1.25;font-family:'Adwaita Sans';-inkscape-font-specification:'Adwaita Sans, Normal';text-orientation:upright;stroke-width:0.264582"
       x="38.848663"
       y="122.85806"
       id="text34"><tspan
         sodipodi:role="line"
         style="stroke-width:0.264582"
         x="38.848663"
         y="122.85806"
         id="tspan35">0</tspan></text>
    <text
       xml:space="preserve"
       style="font-size:10.601px;line-height:1.25;font-family:'Adwaita Sans';-inkscape-font-specification:'Adwaita Sans, Normal';text-orientation:upright;stroke-width:0.264582"
       x="79.385757"
       y="119.56071"
       id="text36"><tspan
         sodipodi:role="line"
         id="tspan36"
         style="stroke-width:0.264582"
         x="79.385757"
         y="119.56071">.</tspan></text>
    <rect
       style="fill:#cccccc;stroke-width:1.26999998;stroke-linecap:round;stroke-linejoin:round;stroke-miterlimit:12;paint-order:markers stroke fill;stroke:#000000;stroke-opacity:1;stroke-dasharray:none"
       id="rect39"
       width="20.164726"
       height="20.164726"
       x="96.102226"
       y="57.650955"
       ry="0.45885611" />
    <circle
       style="fill:none;fill-opacity:1;stroke:#000000;stroke-width:1.5875;stroke-linecap:round;stroke-linejoin:round;stroke-miterlimit:12;stroke-dasharray:none;stroke-opacity:1;paint-order:markers stroke fill"
       id="path40"
       cx="106.18459"
       cy="67.733322"
       r="4.4979167" />
    <path
       sodipodi:type="star"
       style="fill:none;fill-opacity:1;stroke:#000000;stroke-width:3.82075;stroke-linecap:round;stroke-linejoin:round;stroke-miterlimit:12;stroke-dasharray:none;stroke-opacity:1;paint-order:markers stroke fill"
       id="path41"
       inkscape:flatsided="true"
       sodipodi:sides="4"
       sodipodi:cx="152.47176"
       sodipodi:cy="62.332588"
       sodipodi:r1="5.0943503"
       sodipodi:r2="2.5471752"
       sodipodi:arg1="0"
       sodipodi:arg2="0.78539816"
       inkscape:rounded="0"
       inkscape:randomized="0"
       d="m 157.56611,62.332588 -5.09435,5.094351 -5.09435,-5.094351 5.09435,-5.09435 z"
       inkscape:transform-center-x="-0.59314777"
       transform="matrix(0.41549295,0,0,0.41549295,42.83365,41.834567)" />
    <g
       id="g64"
       style="opacity:0.4">
      <path
         style="baseline-shift:baseline;display:inline;overflow:visible;vector-effect:none;fill:#ffffff;stroke-linecap:round;stroke-linejoin:round;stroke-miterlimit:12;paint-order:markers stroke fill;filter:url(#filter48);enable-background:accumulate;stop-color:#000000"
         d="m 97.739276,32.616725 c -0.56387,0 -1.03711,0.47323 -1.03711,1.03711 V 50.54446 c 0,0.56388 0.47324,1.03711 1.03711,1.03711 H 114.6299 c 0.56387,0 1.03711,-0.47323 1.03711,-1.03711 V 33.653835 c 0,-0.56388 -0.47324,-1.03711 -1.03711,-1.03711 z m 0.23242,1.26953 H 114.39748 V 50.31204 H 97.971696 Z"
         id="path57" />
      <path
         style="baseline-shift:baseline;display:inline;overflow:visible;vector-effect:none;fill:#ffffff;stroke-linecap:round;stroke-linejoin:round;stroke-miterlimit:12;paint-order:markers stroke fill;enable-background:accumulate;stop-color:#000000;filter:url(#filter49)"
         d="m 20.819486,109.51931 c -0.563631,0 -1.03711,0.47345 -1.03711,1.03711 v 16.89062 c 0,0.56366 0.47347,1.03711 1.03711,1.03711 h 19.28281 6.609379 16.667581 c 0.563639,0 1.03711,-0.47269 1.03711,-1.03711 v -16.89062 c 0,-0.56442 -0.47349,-1.03711 -1.03711,-1.03711 H 46.711675 40.102296 Z m 0.23242,1.26953 h 19.05039 6.609379 16.43515 v 16.42578 H 46.711675 40.102296 21.051905 Z"
         id="path47"
         sodipodi:nodetypes="ssssccssssccsccccccccc" />
      <path
         style="baseline-shift:baseline;display:inline;overflow:visible;vector-effect:none;fill:#ffffff;stroke-linecap:round;stroke-linejoin:round;stroke-miterlimit:12;paint-order:markers stroke fill;enable-background:accumulate;stop-color:#000000;filter:url(#filter50)"
         d="m 97.854507,83.867595 c -0.62741,0 -1.15235,0.524939 -1.15235,1.152343 v 42.329302 c 0,0.6274 0.52494,1.15234 1.15235,1.15234 h 16.660153 c 0.62741,0 1.15235,-0.52494 1.15235,-1.15234 V 85.019938 c 0,-0.627404 -0.52494,-1.152343 -1.15235,-1.152343 z m 0.11718,1.269531 H 114.39748 V 127.23205 H 97.971687 Z"
         id="path45"
         sodipodi:nodetypes="sssssssssccccc" />
      <path
         style="baseline-shift:baseline;display:inline;overflow:visible;vector-effect:none;fill:#ffffff;stroke-linecap:round;stroke-linejoin:round;stroke-miterlimit:12;paint-order:markers stroke fill;enable-background:accumulate;stop-color:#000000;filter:url(#filter48)"
         d="m 72.105104,109.51925 c -0.56387,0 -1.03711,0.47323 -1.03711,1.03711 v 16.89062 c 0,0.56388 0.47324,1.03711 1.03711,1.03711 h 16.89063 c 0.56387,0 1.03711,-0.47323 1.03711,-1.03711 v -16.89062 c 0,-0.56388 -0.47324,-1.03711 -1.03711,-1.03711 z m 0.23242,1.26953 h 16.42579 v 16.42578 h -16.42579 z"
         id="path43" />
      <path
         style="baseline-shift:baseline;display:inline;overflow:visible;vector-effect:none;fill:#ffffff;stroke-linecap:round;stroke-linejoin:round;stroke-miterlimit:12;paint-order:markers stroke fill;filter:url(#filter48);enable-background:accumulate;stop-color:#000000"
         d="m 72.105104,83.885076 c -0.56387,0 -1.03711,0.47323 -1.03711,1.03711 v 16.890624 c 0,0.56388 0.47324,1.03711 1.03711,1.03711 h 16.89063 c 0.56387,0 1.03711,-0.47323 1.03711,-1.03711 V 84.922186 c 0,-0.56388 -0.47324,-1.03711 -1.03711,-1.03711 z m 0.23242,1.26953 h 16.42579 v 16.425784 h -16.42579 z"
         id="path50" />
      <path
         style="baseline-shift:baseline;display:inline;overflow:visible;vector-effect:none;fill:#ffffff;stroke-linecap:round;stroke-linejoin:round;stroke-miterlimit:12;paint-order:markers stroke fill;filter:url(#filter48);enable-background:accumulate;stop-color:#000000"
         d="m 46.470933,83.885074 c -0.56387,0 -1.03711,0.47323 -1.03711,1.03711 v 16.890626 c 0,0.56388 0.47324,1.03711 1.03711,1.03711 h 16.89063 c 0.56387,0 1.03711,-0.47323 1.03711,-1.03711 V 84.922184 c 0,-0.56388 -0.47324,-1.03711 -1.03711,-1.03711 z m 0.23242,1.26953 h 16.42579 v 16.425786 h -16.42579 z"
         id="path51" />
      <path
         style="baseline-shift:baseline;display:inline;overflow:visible;vector-effect:none;fill:#ffffff;stroke-linecap:round;stroke-linejoin:round;stroke-miterlimit:12;paint-order:markers stroke fill;filter:url(#filter48);enable-background:accumulate;stop-color:#000000"
         d="m 20.836763,83.885074 c -0.56387,0 -1.03711,0.47323 -1.03711,1.03711 v 16.890626 c 0,0.56388 0.47324,1.03711 1.03711,1.03711 h 16.89063 c 0.56387,0 1.03711,-0.47323 1.03711,-1.03711 V 84.922184 c 0,-0.56388 -0.47324,-1.03711 -1.03711,-1.03711 z m 0.23242,1.26953 h 16.42579 v 16.425786 h -16.42579 z"
         id="path52" />
      <path
         style="baseline-shift:baseline;display:inline;overflow:visible;vector-effect:none;fill:#ffffff;stroke-linecap:round;stroke-linejoin:round;stroke-miterlimit:12;paint-order:markers stroke fill;filter:url(#filter48);enable-background:accumulate;stop-color:#000000"
         d="m 20.836763,58.250896 c -0.56387,0 -1.03711,0.47323 -1.03711,1.03711 v 16.890625 c 0,0.56388 0.47324,1.03711 1.03711,1.03711 h 16.89063 c 0.56387,0 1.03711,-0.47323 1.03711,-1.03711 V 59.288006 c 0,-0.56388 -0.47324,-1.03711 -1.03711,-1.03711 z m 0.23242,1.26953 h 16.42579 v 16.425785 h -16.42579 z"
         id="path53" />
      <path
         style="baseline-shift:baseline;display:inline;overflow:visible;vector-effect:none;fill:#ffffff;stroke-linecap:round;stroke-linejoin:round;stroke-miterlimit:12;paint-order:markers stroke fill;filter:url(#filter48);enable-background:accumulate;stop-color:#000000"
         d="m 46.470933,58.250896 c -0.56387,0 -1.03711,0.47323 -1.03711,1.03711 v 16.890625 c 0,0.56388 0.47324,1.03711 1.03711,1.03711 h 16.89063 c 0.56387,0 1.03711,-0.47323 1.03711,-1.03711 V 59.288006 c 0,-0.56388 -0.47324,-1.03711 -1.03711,-1.03711 z m 0.23242,1.26953 h 16.42579 v 16.425785 h -16.42579 z"
         id="path54" />
      <path
         style="baseline-shift:baseline;display:inline;overflow:visible;vector-effect:none;fill:#ffffff;stroke-linecap:round;stroke-linejoin:round;stroke-miterlimit:12;paint-order:markers stroke fill;filter:url(#filter48);enable-background:accumulate;stop-color:#000000"
         d="m 72.105104,58.250896 c -0.56387,0 -1.03711,0.47323 -1.03711,1.03711 v 16.890625 c 0,0.56388 0.47324,1.03711 1.03711,1.03711 h 16.89063 c 0.56387,0 1.03711,-0.47323 1.03711,-1.03711 V 59.288006 c 0,-0.56388 -0.47324,-1.03711 -1.03711,-1.03711 z m 0.23242,1.26953 h 16.42579 v 16.425785 h -16.42579 z"
         id="path55" />
      <path
         style="baseline-shift:baseline;display:inline;overflow:visible;vector-effect:none;fill:#ffffff;stroke-linecap:round;stroke-linejoin:round;stroke-miterlimit:12;paint-order:markers stroke fill;filter:url(#filter48);enable-background:accumulate;stop-color:#000000"
         d="m 97.739276,58.250896 c -0.56387,0 -1.03711,0.47323 -1.03711,1.03711 v 16.890625 c 0,0.56388 0.47324,1.03711 1.03711,1.03711 H 114.6299 c 0.56387,0 1.03711,-0.47323 1.03711,-1.03711 V 59.288006 c 0,-0.56388 -0.47324,-1.03711 -1.03711,-1.03711 z m 0.23242,1.26953 H 114.39748 V 75.946211 H 97.971696 Z"
         id="path56" />
      <path
         style="baseline-shift:baseline;display:inline;overflow:visible;vector-effect:none;fill:#ffffff;stroke-linecap:round;stroke-linejoin:round;stroke-miterlimit:12;paint-order:markers stroke fill;filter:url(#filter48);enable-background:accumulate;stop-color:#000000"
         d="m 72.105105,32.616725 c -0.56387,0 -1.03711,0.47323 -1.03711,1.03711 V 50.54446 c 0,0.56388 0.47324,1.03711 1.03711,1.03711 h 16.890627 c 0.56387,0 1.03711,-0.47323 1.03711,-1.03711 V 33.653835 c 0,-0.56388 -0.47324,-1.03711 -1.03711,-1.03711 z m 0.23242,1.26953 H 88.763312 V 50.31204 H 72.337525 Z"
         id="path58" />
      <path
         style="baseline-shift:baseline;display:inline;overflow:visible;vector-effect:none;fill:#ffffff;stroke-linecap:round;stroke-linejoin:round;stroke-miterlimit:12;paint-order:markers stroke fill;filter:url(#filter48);enable-background:accumulate;stop-color:#000000"
         d="m 46.470935,32.616725 c -0.56387,0 -1.03711,0.47323 -1.03711,1.03711 V 50.54446 c 0,0.56388 0.47324,1.03711 1.03711,1.03711 h 16.890627 c 0.56387,0 1.03711,-0.47323 1.03711,-1.03711 V 33.653835 c 0,-0.56388 -0.47324,-1.03711 -1.03711,-1.03711 z m 0.23242,1.26953 H 63.129142 V 50.31204 H 46.703355 Z"
         id="path59" />
      <path
         style="baseline-shift:baseline;display:inline;overflow:visible;vector-effect:none;fill:#ffffff;stroke-linecap:round;stroke-linejoin:round;stroke-miterlimit:12;paint-order:markers stroke fill;filter:url(#filter48);enable-background:accumulate;stop-color:#000000"
         d="m 20.836764,32.616725 c -0.56387,0 -1.03711,0.47323 -1.03711,1.03711 V 50.54446 c 0,0.56388 0.47324,1.03711 1.03711,1.03711 h 16.890627 c 0.56387,0 1.03711,-0.47323 1.03711,-1.03711 V 33.653835 c 0,-0.56388 -0.47324,-1.03711 -1.03711,-1.03711 z m 0.23242,1.26953 H 37.494971 V 50.31204 H 21.069184 Z"
         id="path60" />
      <path
         style="baseline-shift:baseline;display:inline;overflow:visible;vector-effect:none;fill:#ffffff;stroke-linecap:round;stroke-linejoin:round;stroke-miterlimit:12;paint-order:markers stroke fill;filter:url(#filter48);enable-background:accumulate;stop-color:#000000"
         d="m 20.836764,6.9825548 c -0.56387,0 -1.03711,0.47323 -1.03711,1.03711 V 24.91029 c 0,0.56388 0.47324,1.03711 1.03711,1.03711 h 16.890627 c 0.56387,0 1.03711,-0.47323 1.03711,-1.03711 V 8.0196648 c 0,-0.56388 -0.47324,-1.03711 -1.03711,-1.03711 z m 0.23242,1.26953 H 37.494971 V 24.67787 H 21.069184 Z"
         id="path61" />
      <path
         style="baseline-shift:baseline;display:inline;overflow:visible;vector-effect:none;fill:#ffffff;stroke-linecap:round;stroke-linejoin:round;stroke-miterlimit:12;paint-order:markers stroke fill;filter:url(#filter48);enable-background:accumulate;stop-color:#000000"
         d="m 46.470931,6.9825546 c -0.56387,0 -1.03711,0.47323 -1.03711,1.03711 V 24.91029 c 0,0.56388 0.47324,1.03711 1.03711,1.03711 h 16.890627 c 0.56387,0 1.03711,-0.47323 1.03711,-1.03711 V 8.0196646 c 0,-0.56388 -0.47324,-1.03711 -1.03711,-1.03711 z m 0.23242,1.26953 H 63.129138 V 24.67787 H 46.703351 Z"
         id="path62" />
      <path
         style="baseline-shift:baseline;display:inline;overflow:visible;vector-effect:none;fill:#ffffff;stroke-linecap:round;stroke-linejoin:round;stroke-miterlimit:12;paint-order:markers stroke fill;filter:url(#filter48);enable-background:accumulate;stop-color:#000000"
         d="m 72.105098,6.9825546 c -0.56387,0 -1.03711,0.47323 -1.03711,1.03711 V 24.91029 c 0,0.56388 0.47324,1.03711 1.03711,1.03711 h 16.890627 c 0.56387,0 1.03711,-0.47323 1.03711,-1.03711 V 8.0196646 c 0,-0.56388 -0.47324,-1.03711 -1.03711,-1.03711 z m 0.23242,1.26953 H 88.763305 V 24.67787 H 72.337518 Z"
         id="path63" />
      <path
         style="baseline-shift:baseline;display:inline;overflow:visible;vector-effect:none;fill:#ffffff;stroke-linecap:round;stroke-linejoin:round;stroke-miterlimit:12;paint-order:markers stroke fill;filter:url(#filter48);enable-background:accumulate;stop-color:#000000"
         d="m 97.739271,6.9825556 c -0.56387,0 -1.03711,0.47323 -1.03711,1.03711 V 24.910291 c 0,0.56388 0.47324,1.03711 1.03711,1.03711 h 16.890619 c 0.56387,0 1.03711,-0.47323 1.03711,-1.03711 V 8.0196656 c 0,-0.56388 -0.47324,-1.03711 -1.03711,-1.03711 z m 0.23242,1.26953 H 114.39747 V 24.677871 H 97.971691 Z"
         id="path64" />
    </g>
    <path
       style="baseline-shift:baseline;display:inline;overflow:visible;vector-effect:none;fill:url(#linearGradient69);stroke-linecap:round;stroke-linejoin:round;stroke-miterlimit:12;paint-order:markers stroke fill;filter:url(#filter68);enable-background:accumulate;stop-color:#000000"
       d="m 158.04297,-13.105469 c -3.6089,0 -6.5625,2.9536 -6.5625,6.5625003 V 118.97266 c 0,3.6089 2.9536,6.5625 6.5625,6.5625 h 99.29687 c 3.6089,0 6.56446,-2.9536 6.56446,-6.5625 V -6.5429687 c 0,-3.6089003 -2.95556,-6.5625003 -6.56446,-6.5625003 z m 0,3.1738284 h 99.29687 c 1.90487,0 3.38868,1.4838026 3.38868,3.3886719 V 118.97266 c 0,1.90487 -1.48381,3.38867 -3.38868,3.38867 h -99.29687 c -1.90487,0 -3.38867,-1.4838 -3.38867,-3.38867 V -6.5429687 c 0,-1.9048693 1.4838,-3.3886719 3.38867,-3.3886719 z"
       id="path66"
       clip-path="url(#clipPath67)"
       transform="translate(-139.95905,11.518487)" />
  </g>
</svg>
