<?xml version="1.0" encoding="UTF-8" standalone="no"?>
<!-- Created with Inkscape (http://www.inkscape.org/) -->

<svg
   width="512"
   height="512"
   viewBox="0 0 135.46666 135.46667"
   version="1.1"
   id="svg5"
   inkscape:version="1.4.1 (93de688d07, 2025-03-30)"
   sodipodi:docname="input-tape.svg"
   xmlns:inkscape="http://www.inkscape.org/namespaces/inkscape"
   xmlns:sodipodi="http://sodipodi.sourceforge.net/DTD/sodipodi-0.dtd"
   xmlns:xlink="http://www.w3.org/1999/xlink"
   xmlns="http://www.w3.org/2000/svg"
   xmlns:svg="http://www.w3.org/2000/svg">
  <sodipodi:namedview
     id="namedview7"
     pagecolor="#242424"
     bordercolor="#666666"
     borderopacity="1"
     inkscape:showpageshadow="0"
     inkscape:pageopacity="0"
     inkscape:pagecheckerboard="1"
     inkscape:deskcolor="#000000"
     inkscape:document-units="px"
     showgrid="false"
     inkscape:zoom="1.3037281"
     inkscape:cx="245.06643"
     inkscape:cy="203.64675"
     inkscape:window-width="3256"
     inkscape:window-height="1080"
     inkscape:window-x="1864"
     inkscape:window-y="0"
     inkscape:window-maximized="0"
     inkscape:current-layer="layer1" />
  <defs
     id="defs2">
    <linearGradient
       id="linearGradient84"
       inkscape:collect="always">
      <stop
         style="stop-color:#ffffff;stop-opacity:1;"
         offset="0"
         id="stop84" />
      <stop
         style="stop-color:#ffffff;stop-opacity:0;"
         offset="1"
         id="stop85" />
    </linearGradient>
    <linearGradient
       id="linearGradient82"
       inkscape:collect="always">
      <stop
         style="stop-color:#b3b3b3;stop-opacity:1;"
         offset="0"
         id="stop82" />
      <stop
         style="stop-color:#9e9e9e;stop-opacity:1;"
         offset="1"
         id="stop83" />
    </linearGradient>
    <linearGradient
       id="linearGradient77"
       inkscape:collect="always">
      <stop
         style="stop-color:#000000;stop-opacity:0.5;"
         offset="0"
         id="stop77" />
      <stop
         style="stop-color:#ffffff;stop-opacity:0.5;"
         offset="1"
         id="stop78" />
    </linearGradient>
    <linearGradient
       id="linearGradient75"
       inkscape:collect="always">
      <stop
         style="stop-color:#000000;stop-opacity:1;"
         offset="0"
         id="stop75" />
      <stop
         style="stop-color:#ffffff;stop-opacity:1;"
         offset="1"
         id="stop76" />
    </linearGradient>
    <linearGradient
       id="linearGradient73"
       inkscape:collect="always">
      <stop
         style="stop-color:#000000;stop-opacity:0.5;"
         offset="0"
         id="stop73" />
      <stop
         style="stop-color:#ffffff;stop-opacity:0.5;"
         offset="1"
         id="stop74" />
    </linearGradient>
    <inkscape:path-effect
       effect="fillet_chamfer"
       id="path-effect62"
       is_visible="true"
       lpeversion="1"
       nodesatellites_param="F,0,0,1,0,1.0583333,0,1 @ F,0,0,1,0,1.0583333,0,1 @ F,0,0,1,0,1.0583333,0,1 @ F,0,0,1,0,1.0583333,0,1"
       radius="4"
       unit="px"
       method="auto"
       mode="F"
       chamfer_steps="1"
       flexible="false"
       use_knot_distance="true"
       apply_no_radius="true"
       apply_with_radius="true"
       only_selected="false"
       hide_knots="false" />
    <inkscape:path-effect
       effect="fillet_chamfer"
       id="path-effect57"
       is_visible="true"
       lpeversion="1"
       nodesatellites_param="F,0,0,1,0,0,0,1 @ F,0,1,1,0,2.9104165,0,1 @ F,0,0,1,0,0,0,1"
       radius="12"
       unit="px"
       method="auto"
       mode="F"
       chamfer_steps="1"
       flexible="false"
       use_knot_distance="true"
       apply_no_radius="true"
       apply_with_radius="true"
       only_selected="true"
       hide_knots="false" />
    <linearGradient
       id="linearGradient31"
       inkscape:collect="always">
      <stop
         style="stop-color:#333333;stop-opacity:1;"
         offset="0.37"
         id="stop31" />
      <stop
         style="stop-color:#000000;stop-opacity:1;"
         offset="1"
         id="stop32" />
    </linearGradient>
    <linearGradient
       id="linearGradient5"
       inkscape:collect="always">
      <stop
         style="stop-color:#441650;stop-opacity:1;"
         offset="0"
         id="stop5" />
      <stop
         style="stop-color:#441650;stop-opacity:0.80000001;"
         offset="1"
         id="stop6" />
    </linearGradient>
    <linearGradient
       inkscape:collect="always"
       xlink:href="#linearGradient5"
       id="linearGradient6"
       x1="109.3494"
       y1="67.733333"
       x2="135.46666"
       y2="67.733333"
       gradientUnits="userSpaceOnUse"
       gradientTransform="translate(0)" />
    <radialGradient
       inkscape:collect="always"
       xlink:href="#linearGradient31"
       id="radialGradient32"
       cx="67.733332"
       cy="67.733332"
       fx="67.733332"
       fy="67.733332"
       r="38.766108"
       gradientUnits="userSpaceOnUse" />
    <filter
       inkscape:collect="always"
       style="color-interpolation-filters:sRGB"
       id="filter66"
       x="-0.44475482"
       y="-0.0065366724"
       width="1.8895096"
       height="1.0130733">
      <feGaussianBlur
         inkscape:collect="always"
         stdDeviation="0.11967076"
         id="feGaussianBlur66" />
    </filter>
    <filter
       inkscape:collect="always"
       style="color-interpolation-filters:sRGB"
       id="filter69"
       x="-0.59650508"
       y="-0.0087669837"
       width="2.1930102"
       height="1.017534">
      <feGaussianBlur
         inkscape:collect="always"
         stdDeviation="0.16050241"
         id="feGaussianBlur69" />
    </filter>
    <filter
       inkscape:collect="always"
       style="color-interpolation-filters:sRGB"
       id="filter70"
       x="-0.59650508"
       y="-0.0087669837"
       width="2.1930102"
       height="1.017534">
      <feGaussianBlur
         inkscape:collect="always"
         stdDeviation="0.16050241"
         id="feGaussianBlur70" />
    </filter>
    <linearGradient
       inkscape:collect="always"
       xlink:href="#linearGradient73"
       id="linearGradient74"
       x1="67.73333"
       y1="38.171753"
       x2="67.73333"
       y2="97.294907"
       gradientUnits="userSpaceOnUse" />
    <linearGradient
       inkscape:collect="always"
       xlink:href="#linearGradient75"
       id="linearGradient76"
       x1="21.360264"
       y1="63.76458"
       x2="21.360264"
       y2="71.70208"
       gradientUnits="userSpaceOnUse" />
    <linearGradient
       inkscape:collect="always"
       xlink:href="#linearGradient77"
       id="linearGradient78"
       x1="4.9209561"
       y1="39.606777"
       x2="4.9209561"
       y2="27.839548"
       gradientUnits="userSpaceOnUse"
       gradientTransform="matrix(0.70537217,0,0,0.85217893,-1.6220032,2.7340578)" />
    <linearGradient
       inkscape:collect="always"
       xlink:href="#linearGradient77"
       id="linearGradient79"
       gradientUnits="userSpaceOnUse"
       gradientTransform="matrix(0.70537217,0,0,0.85217893,-1.6220032,75.256265)"
       x1="4.9209561"
       y1="39.606777"
       x2="4.9209561"
       y2="27.839548" />
    <linearGradient
       inkscape:collect="always"
       xlink:href="#linearGradient77"
       id="linearGradient80"
       gradientUnits="userSpaceOnUse"
       gradientTransform="matrix(0.70537217,0,0,0.85217893,128.02387,75.256265)"
       x1="4.9209561"
       y1="39.606777"
       x2="4.9209561"
       y2="27.839548" />
    <linearGradient
       inkscape:collect="always"
       xlink:href="#linearGradient77"
       id="linearGradient81"
       gradientUnits="userSpaceOnUse"
       gradientTransform="matrix(0.70537217,0,0,0.85217893,128.02387,2.7340578)"
       x1="4.9209561"
       y1="39.606777"
       x2="4.9209561"
       y2="27.839548" />
    <linearGradient
       inkscape:collect="always"
       xlink:href="#linearGradient82"
       id="linearGradient83"
       x1="62.972488"
       y1="49.844128"
       x2="75.28344"
       y2="84.635277"
       gradientUnits="userSpaceOnUse" />
    <linearGradient
       inkscape:collect="always"
       xlink:href="#linearGradient84"
       id="linearGradient85"
       x1="65.17292"
       y1="52.172291"
       x2="69.299637"
       y2="74.252922"
       gradientUnits="userSpaceOnUse" />
    <filter
       inkscape:collect="always"
       style="color-interpolation-filters:sRGB"
       id="filter85"
       x="-0.080108134"
       y="-0.11395521"
       width="1.1602163"
       height="1.2279104">
      <feGaussianBlur
         inkscape:collect="always"
         stdDeviation="1.0577506"
         id="feGaussianBlur85" />
    </filter>
  </defs>
  <g
     inkscape:label="Layer 1"
     inkscape:groupmode="layer"
     id="layer1">
    <path
       id="rect1"
       style="opacity:1;fill:#672178;stroke:none;stroke-width:0.264583;stroke-linecap:round;stroke-linejoin:round;stroke-miterlimit:12;paint-order:markers stroke fill"
       d="M 1.058337,2.4999999e-6 H 134.40833 A 1.0583333,1.0583333 45 0 1 135.46666,1.0583358 V 134.40833 a 1.0583333,1.0583333 135 0 1 -1.05833,1.05833 H 1.058342 A 1.0583333,1.0583333 44.999999 0 1 8.6859374e-6,134.40833 L 3.7640624e-6,1.0583358 A 1.0583333,1.0583333 135 0 1 1.058337,2.4999999e-6 Z"
       sodipodi:nodetypes="ccccc" />
    <path
       id="path1"
       style="opacity:1;fill:url(#linearGradient6);stroke-width:0.264583;stroke-linecap:round;stroke-linejoin:round;stroke-miterlimit:12;paint-order:markers stroke fill"
       d="M 135.46666,41.616062 A 26.117514,26.117514 0 0 0 109.3494,67.73333 26.117514,26.117514 0 0 0 135.46666,93.850599 Z" />
    <rect
       style="opacity:1;fill:#672178;fill-opacity:1;stroke-width:0.264583;stroke-linecap:round;stroke-linejoin:round;stroke-miterlimit:12;paint-order:markers stroke fill"
       id="rect2"
       width="2.0090394"
       height="43.938232"
       x="130.98225"
       y="45.764217"
       ry="1.1476402" />
    <rect
       style="opacity:1;fill:#672178;fill-opacity:1;stroke-width:0.264583;stroke-linecap:round;stroke-linejoin:round;stroke-miterlimit:12;paint-order:markers stroke fill"
       id="rect3"
       width="2.0090394"
       height="39.473473"
       x="125.69056"
       y="47.996597"
       ry="1.0045197" />
    <rect
       style="opacity:1;fill:#672178;fill-opacity:1;stroke-width:0.264583;stroke-linecap:round;stroke-linejoin:round;stroke-miterlimit:12;paint-order:markers stroke fill"
       id="rect4"
       width="2.0090394"
       height="33.486637"
       x="120.39888"
       y="50.990013"
       ry="1.0045197" />
    <rect
       style="opacity:1;fill:#672178;fill-opacity:1;stroke-width:0.264583;stroke-linecap:round;stroke-linejoin:round;stroke-miterlimit:12;paint-order:markers stroke fill"
       id="rect5"
       width="2.0090394"
       height="24.557116"
       x="115.10725"
       y="55.454773"
       ry="1.0045197" />
    <rect
       style="opacity:1;fill:#000000;fill-opacity:1;stroke:none;stroke-width:0.264583;stroke-linecap:round;stroke-linejoin:round;stroke-miterlimit:12;paint-order:markers stroke fill"
       id="rect6"
       width="5.4531074"
       height="12.198977"
       x="126.5695"
       y="6.6011295"
       ry="2.7265537" />
    <path
       id="rect59"
       style="opacity:1;fill:#2b0000;fill-opacity:1;stroke:none;stroke-width:0.264583;stroke-linecap:round;stroke-linejoin:round;stroke-miterlimit:12;paint-order:markers stroke fill"
       d="M 126.96227 9.3544677 L 126.96227 15.91169 L 126.96796 15.91169 A 2.3338518 2.3338518 0 0 0 126.96227 16.073437 A 2.3338518 2.3338518 0 0 0 129.29598 18.407145 A 2.3338518 2.3338518 0 0 0 131.62969 16.073437 A 2.3338518 2.3338518 0 0 0 131.62452 15.91169 L 131.62969 15.91169 L 131.62969 9.3544677 L 126.96227 9.3544677 z " />
    <circle
       style="opacity:1;fill:#d40000;fill-opacity:1;stroke:none;stroke-width:0.264583;stroke-linecap:round;stroke-linejoin:round;stroke-miterlimit:12;paint-order:markers stroke fill"
       id="path6"
       r="2.3338518"
       cy="9.3589745"
       cx="129.29605" />
    <circle
       style="display:inline;opacity:1;fill:#000000;fill-opacity:1;stroke:url(#linearGradient74);stroke-width:0.52916666;stroke-linecap:round;stroke-linejoin:round;stroke-miterlimit:12;paint-order:markers stroke fill;stroke-dasharray:none"
       id="path7"
       cx="67.73333"
       cy="67.73333"
       r="29.561581" />
    <path
       id="rect7"
       style="opacity:1;fill:url(#radialGradient32);fill-opacity:1;stroke:none;stroke-width:0.264583;stroke-linecap:round;stroke-linejoin:round;stroke-miterlimit:12;paint-order:markers stroke fill"
       inkscape:transform-center-x="1.6541671e-06"
       inkscape:transform-center-y="-26.589731"
       d="M 67.258943 38.175964 A 29.561581 29.561581 0 0 0 66.718407 38.1894 L 66.718407 52.25004 L 64.883377 38.309289 A 29.561581 29.561581 0 0 0 64.345426 38.36665 C 64.373818 38.419468 64.393429 38.478094 64.401753 38.541316 L 66.337035 53.243261 C 66.570896 53.064359 66.720943 52.787933 66.73391 52.482584 C 66.786596 52.783529 66.970975 53.038409 67.22587 53.185383 L 67.22587 38.356315 C 67.22587 38.29264 67.237703 38.232029 67.258943 38.175964 z M 68.207722 38.175964 C 68.228962 38.232029 68.240795 38.29264 68.240795 38.356315 L 68.240795 53.185383 C 68.495668 53.038547 68.680044 52.784001 68.732755 52.483101 C 68.745738 52.788251 68.895508 53.064863 69.129113 53.243778 L 71.064912 38.541316 C 71.073223 38.478191 71.092881 38.419435 71.121239 38.36665 A 29.561581 29.561581 0 0 0 70.583288 38.309806 L 68.748258 52.25004 L 68.748258 38.1894 A 29.561581 29.561581 0 0 0 68.207722 38.175964 z M 63.404398 38.490157 A 29.561581 29.561581 0 0 0 62.871097 38.574389 L 64.706127 52.51359 L 61.067073 38.933024 A 29.561581 29.561581 0 0 0 60.541524 39.059631 C 60.576623 39.108329 60.603556 39.164393 60.620072 39.226029 L 64.45808 53.549702 C 64.666389 53.341938 64.77855 53.048405 64.751602 52.744067 C 64.843138 53.035689 65.059305 53.263935 65.331412 53.376069 L 63.395613 38.673608 C 63.387305 38.610501 63.390646 38.548464 63.404398 38.490157 z M 72.06175 38.490157 C 72.075609 38.548666 72.079387 38.610819 72.071052 38.674125 L 70.135253 53.376069 C 70.407346 53.263638 70.623498 53.035195 70.715063 52.74355 C 70.688065 53.047954 70.800222 53.341794 71.008585 53.549702 L 74.846593 39.226029 C 74.863109 39.164393 74.890042 39.108329 74.925141 39.059631 A 29.561581 29.561581 0 0 0 74.399592 38.933024 L 70.760538 52.51359 L 72.596085 38.574389 A 29.561581 29.561581 0 0 0 72.06175 38.490157 z M 59.624784 39.305611 A 29.561581 29.561581 0 0 0 59.106469 39.458573 L 62.745523 53.040689 L 57.364973 40.049751 A 29.561581 29.561581 0 0 0 56.860611 40.244055 C 56.901584 40.28765 56.935488 40.339283 56.95983 40.39805 L 62.634419 54.098506 C 62.81399 53.864998 62.887238 53.55879 62.820454 53.260314 C 62.949143 53.537873 63.193175 53.73632 63.477778 53.812219 L 59.63977 39.488545 C 59.62328 39.427004 59.618737 39.365266 59.624784 39.305611 z M 75.841881 39.305611 C 75.847928 39.365266 75.843385 39.427004 75.826895 39.488545 L 71.988887 53.812219 C 72.273156 53.73645 72.516907 53.538463 72.645694 53.261348 C 72.579264 53.559507 72.652257 53.865266 72.831729 54.098506 L 78.506835 40.398567 C 78.53124 40.339648 78.565451 40.287784 78.60657 40.244055 A 29.561581 29.561581 0 0 0 78.101692 40.049751 L 72.721142 53.040689 L 76.360196 39.458573 A 29.561581 29.561581 0 0 0 75.841881 39.305611 z M 55.983662 40.60734 A 29.561581 29.561581 0 0 0 55.490152 40.826448 L 60.871736 53.818937 L 53.840124 41.639835 A 29.561581 29.561581 0 0 0 53.365217 41.898217 C 53.411638 41.936124 53.452227 41.983101 53.484073 42.03826 L 60.898608 54.88037 C 61.046035 54.625345 61.078353 54.312349 60.973022 54.025125 C 61.136812 54.283805 61.405265 54.449028 61.697525 54.487113 L 56.02242 40.786657 C 55.99806 40.727849 55.985519 40.667245 55.983662 40.60734 z M 79.483003 40.60734 C 79.481208 40.667309 79.468632 40.727784 79.444245 40.786657 L 73.76914 54.487113 C 74.061416 54.449133 74.329762 54.284132 74.493643 54.025642 C 74.388518 54.312723 74.420782 54.625507 74.568057 54.88037 L 81.982592 42.03826 C 82.014438 41.983101 82.055027 41.936124 82.101448 41.898217 A 29.561581 29.561581 0 0 0 81.626541 41.639835 L 74.595963 53.817903 L 79.977029 40.826448 A 29.561581 29.561581 0 0 0 79.483003 40.60734 z M 52.543562 42.372607 A 29.561581 29.561581 0 0 0 52.082608 42.65476 L 59.113704 54.833345 L 50.552986 43.676403 A 29.561581 29.561581 0 0 0 50.115803 43.99473 C 50.166938 44.026349 50.213385 44.067614 50.252229 44.118237 L 59.279585 55.882893 C 59.392633 55.610927 59.383801 55.296158 59.241861 55.025064 C 59.437994 55.259999 59.725512 55.388685 60.020108 55.38835 L 52.605574 42.545723 C 52.573713 42.490539 52.55321 42.431807 52.543562 42.372607 z M 82.923103 42.372607 C 82.913455 42.431807 82.892952 42.490539 82.861091 42.545723 L 75.446557 55.38835 C 75.741229 55.388628 76.028642 55.259645 76.224804 55.024548 C 76.08285 55.295627 76.0741 55.610684 76.18708 55.882893 L 85.214436 44.11772 C 85.253215 44.067183 85.299377 44.026226 85.350345 43.99473 A 29.561581 29.561581 0 0 0 84.913679 43.676403 L 76.352961 54.833345 L 83.384057 42.65476 A 29.561581 29.561581 0 0 0 82.923103 42.372607 z M 49.363395 44.572473 A 29.561581 29.561581 0 0 0 48.942748 44.911987 L 57.503983 56.068928 L 47.559887 46.124833 A 29.561581 29.561581 0 0 0 47.16818 46.49742 C 47.22304 46.522 47.274479 46.556693 47.319592 46.601806 L 57.80474 57.087471 C 57.881324 56.802787 57.831696 56.491836 57.655395 56.241528 C 57.880495 56.448943 58.182316 56.539169 58.474466 56.500427 L 49.44711 44.73577 C 49.408296 44.685186 49.38068 44.62997 49.363395 44.572473 z M 86.10327 44.572473 C 86.085981 44.629859 86.058326 44.685243 86.019555 44.73577 L 76.992199 56.500427 C 77.284085 56.539 77.585767 56.449244 77.810753 56.242044 C 77.634636 56.492303 77.584766 56.802961 77.661409 57.087471 L 88.147073 46.601806 C 88.192186 46.556693 88.243625 46.522 88.298485 46.49742 A 29.561581 29.561581 0 0 0 87.906778 46.124833 L 77.962682 56.068928 L 86.5234 44.911987 A 29.561581 29.561581 0 0 0 86.10327 44.572473 z M 46.49742 47.16818 A 29.561581 29.561581 0 0 0 46.124833 47.559887 L 56.068928 57.503983 L 44.911987 48.943265 A 29.561581 29.561581 0 0 0 44.572473 49.363395 C 44.629938 49.380583 44.685218 49.408324 44.73577 49.44711 L 56.500427 58.474466 C 56.539001 58.18258 56.449246 57.880898 56.242044 57.655912 C 56.492304 57.83203 56.80296 57.8819 57.087471 57.805256 L 46.601806 47.319592 C 46.556688 47.274473 46.522053 47.22298 46.49742 47.16818 z M 88.969245 47.16818 C 88.944612 47.22298 88.909977 47.274473 88.864859 47.319592 L 78.379194 57.80474 C 78.663878 57.881324 78.974829 57.831697 79.225137 57.655395 C 79.017722 57.880495 78.927496 58.182316 78.966238 58.474466 L 90.730895 49.44711 C 90.781511 49.408271 90.836705 49.380651 90.894192 49.363395 A 29.561581 29.561581 0 0 0 90.554678 48.942748 L 79.397737 57.503983 L 89.341832 47.559887 A 29.561581 29.561581 0 0 0 88.969245 47.16818 z M 43.99473 50.115803 A 29.561581 29.561581 0 0 0 43.676403 50.552986 L 54.833345 59.113704 L 42.65476 52.082608 A 29.561581 29.561581 0 0 0 42.372607 52.543562 C 42.431817 52.553188 42.490534 52.573711 42.545723 52.605574 L 55.38835 60.020108 C 55.388628 59.725436 55.259645 59.438023 55.024548 59.241861 C 55.295655 59.38383 55.610664 59.392602 55.882893 59.279585 L 44.118237 50.252229 C 44.067608 50.21338 44.026296 50.166924 43.99473 50.115803 z M 91.471935 50.115803 C 91.440326 50.166936 91.399067 50.213372 91.348428 50.252229 L 79.583772 59.279585 C 79.855738 59.392633 80.170508 59.383801 80.441601 59.241861 C 80.206667 59.437994 80.077981 59.725512 80.078315 60.020108 L 92.920942 52.605574 C 92.976131 52.573711 93.034848 52.553188 93.094058 52.543562 A 29.561581 29.561581 0 0 0 92.811905 52.082608 L 80.63332 59.113704 L 91.790262 50.552986 A 29.561581 29.561581 0 0 0 91.471935 50.115803 z M 41.898217 53.365217 A 29.561581 29.561581 0 0 0 41.639835 53.840124 L 53.817903 60.870702 L 40.826448 55.489636 A 29.561581 29.561581 0 0 0 40.606823 55.983662 C 40.617246 55.983963 40.627881 55.984758 40.638346 55.985729 C 40.688089 55.990339 40.737967 56.00225 40.786657 56.02242 L 54.487113 61.697525 C 54.449133 61.405249 54.284132 61.136903 54.025642 60.973022 C 54.312723 61.078148 54.625507 61.045884 54.88037 60.898608 L 42.03826 53.484073 C 41.983111 53.452233 41.936135 53.411633 41.898217 53.365217 z M 93.568448 53.365217 C 93.53053 53.411633 93.483554 53.452233 93.428405 53.484073 L 80.586295 60.898608 C 80.84132 61.046036 81.154315 61.078354 81.44154 60.973022 C 81.182858 61.136812 81.017636 61.405265 80.979552 61.697525 L 94.680008 56.02242 C 94.738883 55.998071 94.799371 55.985478 94.859325 55.983662 A 29.561581 29.561581 0 0 0 94.640217 55.490152 L 81.647728 60.871736 L 93.82683 53.840124 A 29.561581 29.561581 0 0 0 93.568448 53.365217 z M 40.244055 56.860095 A 29.561581 29.561581 0 0 0 40.049751 57.364973 L 53.040689 62.745523 L 39.458573 59.106469 A 29.561581 29.561581 0 0 0 39.305611 59.624784 C 39.315919 59.623743 39.326191 59.623119 39.336617 59.622717 C 39.386535 59.620791 39.437639 59.62613 39.488545 59.63977 L 53.812219 63.477778 C 53.73645 63.193509 53.538462 62.949758 53.261348 62.820971 C 53.559507 62.8874 53.865266 62.814408 54.098506 62.634936 L 40.398567 56.95983 C 40.33965 56.935426 40.287788 56.901212 40.244055 56.860095 z M 95.22261 56.860611 C 95.179 56.901606 95.127355 56.935499 95.068615 56.95983 L 81.368159 62.634419 C 81.601667 62.813989 81.907877 62.887236 82.206351 62.820454 C 81.928794 62.949143 81.730346 63.193176 81.654446 63.477778 L 95.97812 59.63977 C 96.029026 59.62613 96.08013 59.620791 96.130048 59.622717 C 96.140474 59.623119 96.150746 59.623743 96.161054 59.624784 A 29.561581 29.561581 0 0 0 96.008092 59.106469 L 82.425976 62.745523 L 95.416914 57.364973 A 29.561581 29.561581 0 0 0 95.22261 56.860611 z M 39.059631 60.541524 A 29.561581 29.561581 0 0 0 38.933024 61.067073 L 52.51359 64.706127 L 38.574389 62.87058 A 29.561581 29.561581 0 0 0 38.490157 63.404915 C 38.532477 63.394915 38.576765 63.390112 38.621931 63.391479 C 38.639109 63.391999 38.656708 63.39332 38.674125 63.395613 L 53.376069 65.331412 C 53.263638 65.05932 53.035193 64.843166 52.74355 64.751602 C 53.047954 64.7786 53.341794 64.666443 53.549702 64.45808 L 39.226029 60.620072 C 39.164405 60.60356 39.108339 60.576621 39.059631 60.541524 z M 96.407034 60.541524 C 96.358326 60.576621 96.30226 60.60356 96.240636 60.620072 L 81.916963 64.45808 C 82.124726 64.666392 82.418255 64.778554 82.722598 64.751602 C 82.430972 64.843138 82.202729 65.059304 82.090596 65.331412 L 96.793057 63.395613 C 96.819183 63.392163 96.845045 63.390941 96.870572 63.391479 C 96.896099 63.392016 96.920883 63.394513 96.945503 63.398713 C 96.955882 63.400489 96.966331 63.402511 96.976508 63.404915 A 29.561581 29.561581 0 0 0 96.892276 62.871097 L 82.953075 64.706127 L 96.533641 61.067073 A 29.561581 29.561581 0 0 0 96.407034 60.541524 z M 38.36665 64.345426 A 29.561581 29.561581 0 0 0 38.309806 64.883377 L 52.25004 66.718407 L 38.1894 66.718407 A 29.561581 29.561581 0 0 0 38.175964 67.258943 C 38.232029 67.237703 38.29264 67.22587 38.356315 67.22587 L 53.185383 67.22587 C 53.038547 66.970997 52.784001 66.786621 52.483101 66.73391 C 52.788252 66.720926 53.064863 66.571157 53.243778 66.337552 L 38.541316 64.401753 C 38.478195 64.393443 38.41944 64.373764 38.36665 64.345426 z M 97.100015 64.345426 C 97.047176 64.373819 96.988546 64.393432 96.925349 64.401753 L 82.223404 66.337035 C 82.402306 66.570896 82.678735 66.720942 82.984081 66.73391 C 82.683139 66.786597 82.428257 66.970976 82.281282 67.22587 L 97.11035 67.22587 C 97.174025 67.22587 97.234636 67.237703 97.290701 67.258943 A 29.561581 29.561581 0 0 0 97.277265 66.718407 L 83.216625 66.718407 L 97.157376 64.883377 A 29.561581 29.561581 0 0 0 97.100015 64.345426 z M 38.175964 68.207722 A 29.561581 29.561581 0 0 0 38.1894 68.748258 L 52.25004 68.748258 L 38.309289 70.583288 A 29.561581 29.561581 0 0 0 38.366133 71.121239 C 38.418978 71.092839 38.478111 71.073234 38.541316 71.064912 L 53.243261 69.12963 C 53.089796 68.92902 52.864604 68.790144 52.610742 68.746707 C 52.56865 68.739484 52.525517 68.735131 52.482067 68.733271 C 52.783346 68.680731 53.038354 68.496057 53.185383 68.240795 L 38.356315 68.240795 C 38.29264 68.240795 38.232029 68.228962 38.175964 68.207722 z M 97.290701 68.207722 C 97.234636 68.228962 97.174025 68.240795 97.11035 68.240795 L 82.281282 68.240795 C 82.428119 68.495667 82.682667 68.680042 82.983564 68.732755 C 82.678468 68.745735 82.402322 68.895576 82.223404 69.129113 L 96.925349 71.064395 C 96.98849 71.072708 97.047212 71.092329 97.100015 71.120723 A 29.561581 29.561581 0 0 0 97.156859 70.583288 L 83.216625 68.748258 L 97.277265 68.748258 A 29.561581 29.561581 0 0 0 97.290701 68.207722 z M 53.376069 70.135253 L 38.673608 72.071052 C 38.610477 72.079364 38.548483 72.076032 38.490157 72.062267 A 29.561581 29.561581 0 0 0 38.574389 72.596085 L 52.51359 70.760538 L 38.933024 74.399592 A 29.561581 29.561581 0 0 0 39.059631 74.925141 C 39.108339 74.890044 39.164405 74.863105 39.226029 74.846593 L 53.549702 71.008585 C 53.371291 70.829769 53.129588 70.721891 52.872224 70.711962 C 52.829725 70.710322 52.786696 70.711276 52.74355 70.715063 C 53.035281 70.623578 53.26382 70.407399 53.376069 70.135253 z M 82.090596 70.135253 C 82.203087 70.407451 82.431719 70.623614 82.723632 70.715063 C 82.680321 70.711241 82.637101 70.710316 82.594441 70.711962 C 82.337077 70.721891 82.095374 70.829769 81.916963 71.008585 L 96.240636 74.846593 C 96.30226 74.863105 96.358326 74.890044 96.407034 74.925141 A 29.561581 29.561581 0 0 0 96.533641 74.399592 L 82.953075 70.760538 L 96.892276 72.596085 A 29.561581 29.561581 0 0 0 96.976508 72.06175 C 96.917999 72.075609 96.855846 72.079387 96.79254 72.071052 L 82.090596 70.135253 z M 53.812219 71.988887 L 39.488545 75.826895 C 39.427004 75.843385 39.365266 75.847928 39.305611 75.841881 A 29.561581 29.561581 0 0 0 39.458573 76.360196 L 53.040689 72.721142 L 40.049751 78.101692 A 29.561581 29.561581 0 0 0 40.244055 78.606054 C 40.287665 78.565059 40.33931 78.531166 40.39805 78.506835 L 54.098506 72.832246 C 53.950127 72.718207 53.772315 72.647048 53.585876 72.627607 C 53.479061 72.616458 53.368989 72.621895 53.260314 72.646211 C 53.537858 72.517518 53.736314 72.273485 53.812219 71.988887 z M 81.654446 71.988887 C 81.730236 72.273461 81.928398 72.517479 82.205834 72.646211 C 82.163443 72.636786 82.121169 72.629988 82.07871 72.626057 C 81.822463 72.602329 81.568917 72.678413 81.368676 72.832246 L 95.068098 78.506835 C 95.127014 78.531239 95.178877 78.565452 95.22261 78.60657 A 29.561581 29.561581 0 0 0 95.416914 78.101692 L 82.425976 72.721142 L 96.008092 76.360196 A 29.561581 29.561581 0 0 0 96.161054 75.841881 C 96.101399 75.847928 96.039661 75.843385 95.97812 75.826895 L 81.654446 71.988887 z M 54.487113 73.76914 L 40.786657 79.444245 C 40.727849 79.468605 40.667245 79.481146 40.60734 79.483003 A 29.561581 29.561581 0 0 0 40.826448 79.976513 L 53.818937 74.594929 L 41.639835 81.626541 A 29.561581 29.561581 0 0 0 41.898217 82.101448 C 41.936135 82.055032 41.983111 82.014432 42.03826 81.982592 L 54.88037 74.568057 C 54.718289 74.474342 54.532879 74.427088 54.345519 74.432148 C 54.237994 74.435053 54.129851 74.455237 54.025125 74.493643 C 54.283813 74.329854 54.449031 74.061402 54.487113 73.76914 z M 80.979552 73.76914 C 81.017601 74.061179 81.182649 74.329268 81.441023 74.493127 C 81.33648 74.45486 81.228471 74.435048 81.121146 74.432148 C 80.933786 74.427088 80.748376 74.474342 80.586295 74.568057 L 93.428405 81.982592 C 93.483554 82.014432 93.53053 82.055032 93.568448 82.101448 A 29.561581 29.561581 0 0 0 93.82683 81.626541 L 81.648762 74.595963 L 94.640217 79.977029 A 29.561581 29.561581 0 0 0 94.859325 79.483003 C 94.799356 79.481208 94.738881 79.468632 94.680008 79.444245 L 80.979552 73.76914 z M 55.38835 75.446557 L 42.545723 82.861091 C 42.490539 82.892952 42.431807 82.913455 42.372607 82.923103 A 29.561581 29.561581 0 0 0 42.65476 83.384057 L 54.833345 76.352961 L 43.676403 84.913679 A 29.561581 29.561581 0 0 0 43.99473 85.350862 C 44.026339 85.299729 44.067598 85.253293 44.118237 85.214436 L 55.882893 76.18708 C 55.800652 76.152913 55.714331 76.129903 55.626578 76.11835 C 55.424405 76.091731 55.21362 76.125781 55.024548 76.224804 C 55.259575 76.028691 55.388558 75.741149 55.38835 75.446557 z M 80.078315 75.446557 C 80.07804 75.741228 80.207026 76.028642 80.442117 76.224804 C 80.343308 76.173063 80.238277 76.139398 80.132059 76.122484 C 79.946967 76.093019 79.756653 76.115433 79.583772 76.18708 L 91.348428 85.214436 C 91.399057 85.253285 91.440369 85.299741 91.471935 85.350862 A 29.561581 29.561581 0 0 0 91.790262 84.913679 L 80.63332 76.352961 L 92.811905 83.384057 A 29.561581 29.561581 0 0 0 93.094058 82.923103 C 93.034858 82.913455 92.976126 82.892952 92.920942 82.861091 L 80.078315 75.446557 z M 56.500427 76.992199 L 44.73577 86.019555 C 44.685186 86.058369 44.62997 86.085985 44.572473 86.10327 A 29.561581 29.561581 0 0 0 44.911987 86.523917 L 56.068928 77.962682 L 46.124833 87.906778 A 29.561581 29.561581 0 0 0 46.49742 88.298485 C 46.522053 88.243685 46.556688 88.192192 46.601806 88.147073 L 57.087471 77.661409 C 57.001343 77.638222 56.913018 77.626785 56.824438 77.626785 C 56.620442 77.626785 56.416101 77.688324 56.241528 77.81127 C 56.448974 77.586165 56.539184 77.284354 56.500427 76.992199 z M 78.966238 76.992199 C 78.927649 77.284091 79.017387 77.585762 79.224621 77.810753 C 79.05012 77.687962 78.846095 77.626785 78.642227 77.626785 C 78.553647 77.626785 78.465322 77.638222 78.379194 77.661409 L 88.864859 88.147073 C 88.909977 88.192192 88.944612 88.243685 88.969245 88.298485 A 29.561581 29.561581 0 0 0 89.341832 87.906778 L 79.397737 77.962682 L 90.554678 86.5234 A 29.561581 29.561581 0 0 0 90.894192 86.10327 C 90.836806 86.085981 90.781422 86.058326 90.730895 86.019555 L 78.966238 76.992199 z M 57.805256 78.379194 L 47.319592 88.864859 C 47.274473 88.909977 47.22298 88.944612 47.16818 88.969245 A 29.561581 29.561581 0 0 0 47.559887 89.341832 L 57.503983 79.397737 L 48.943265 90.554678 A 29.561581 29.561581 0 0 0 49.363395 90.894192 C 49.380684 90.836806 49.408339 90.781422 49.44711 90.730895 L 58.474466 78.966238 C 58.182269 78.927371 57.88056 79.017157 57.655395 79.224621 C 57.831601 78.974368 57.881757 78.663684 57.805256 78.379194 z M 77.661409 78.379194 C 77.584809 78.663882 77.634937 78.974821 77.81127 79.225137 C 77.654238 79.080456 77.45955 78.992865 77.257299 78.966238 C 77.169588 78.95469 77.080471 78.954529 76.992199 78.966238 L 86.019555 90.730895 C 86.058369 90.781479 86.085985 90.836695 86.10327 90.894192 A 29.561581 29.561581 0 0 0 86.523917 90.554678 L 77.962682 79.397737 L 87.906778 89.341832 A 29.561581 29.561581 0 0 0 88.298485 88.969245 C 88.243685 88.944612 88.192192 88.909977 88.147073 88.864859 L 77.661409 78.379194 z M 59.279585 79.583772 L 50.252229 91.348428 C 50.21338 91.399057 50.166924 91.440369 50.115803 91.471935 A 29.561581 29.561581 0 0 0 50.552986 91.790262 L 59.113704 80.63332 L 52.082608 92.811905 A 29.561581 29.561581 0 0 0 52.543562 93.094058 C 52.55321 93.034858 52.573713 92.976126 52.605574 92.920942 L 60.020108 80.078315 C 59.725363 80.07789 59.438034 80.206555 59.241861 80.441601 C 59.3837 80.170574 59.392496 79.85582 59.279585 79.583772 z M 76.18708 79.584289 C 76.074071 79.856251 76.082937 80.170538 76.224804 80.441601 C 76.028683 80.206717 75.741165 80.077964 75.446557 80.078315 L 82.861091 92.920942 C 82.892952 92.976126 82.913455 93.034858 82.923103 93.094058 A 29.561581 29.561581 0 0 0 83.384057 92.811905 L 76.352961 80.63332 L 84.913679 91.790262 A 29.561581 29.561581 0 0 0 85.350862 91.471935 C 85.299729 91.440326 85.253293 91.399067 85.214436 91.348428 L 76.18708 79.584289 z M 60.898608 80.586295 L 53.484073 93.428405 C 53.452233 93.483554 53.411633 93.53053 53.365217 93.568448 A 29.561581 29.561581 0 0 0 53.840124 93.82683 L 60.871736 81.647728 L 55.489636 94.640217 A 29.561581 29.561581 0 0 0 55.983662 94.859842 C 55.985442 94.799828 55.998014 94.738926 56.02242 94.680008 L 61.697525 80.979552 C 61.405251 81.017594 61.136885 81.182506 60.973022 81.441023 C 61.078185 81.153921 61.045905 80.841157 60.898608 80.586295 z M 74.568057 80.586295 C 74.420634 80.841321 74.388319 81.15432 74.493643 81.44154 C 74.329894 81.182906 74.061375 81.017703 73.76914 80.979552 L 79.444245 94.680008 C 79.468605 94.738816 79.481146 94.79942 79.483003 94.859325 A 29.561581 29.561581 0 0 0 79.976513 94.640217 L 74.594929 81.647728 L 81.626541 93.82683 A 29.561581 29.561581 0 0 0 82.101448 93.568448 C 82.055032 93.53053 82.014432 93.483554 81.982592 93.428405 L 74.568057 80.586295 z M 62.634936 81.368159 L 56.95983 95.068615 C 56.935435 95.127509 56.901192 95.179446 56.860095 95.223127 A 29.561581 29.561581 0 0 0 57.364973 95.41743 L 62.745523 82.425976 L 59.106469 96.008092 A 29.561581 29.561581 0 0 0 59.624784 96.161054 C 59.618737 96.101399 59.62328 96.039661 59.63977 95.97812 L 63.478295 81.65393 C 63.193982 81.729755 62.949782 81.928159 62.820971 82.205317 C 62.887359 81.907206 62.814359 81.601397 62.634936 81.368159 z M 72.831729 81.368159 C 72.652306 81.601498 72.579512 81.907491 72.646211 82.205834 C 72.517493 81.928253 72.273002 81.729752 71.98837 81.65393 L 75.826895 95.97812 C 75.843385 96.039661 75.847928 96.101399 75.841881 96.161054 A 29.561581 29.561581 0 0 0 76.360196 96.008092 L 72.721142 82.425976 L 78.101692 95.416914 A 29.561581 29.561581 0 0 0 78.606054 95.22261 C 78.565059 95.179 78.531166 95.127355 78.506835 95.068615 L 72.831729 81.368159 z M 64.45808 81.916963 L 60.620072 96.240636 C 60.60356 96.30226 60.576621 96.358326 60.541524 96.407034 A 29.561581 29.561581 0 0 0 61.067073 96.533641 L 64.706127 82.953075 L 62.87058 96.892276 A 29.561581 29.561581 0 0 0 63.404915 96.976508 C 63.391056 96.917999 63.387278 96.855846 63.395613 96.79254 L 65.331412 82.091112 C 65.059337 82.203394 64.843154 82.431475 64.751602 82.723115 C 64.778639 82.418672 64.66647 82.124863 64.45808 81.916963 z M 71.008585 81.916963 C 70.800278 82.124728 70.688118 82.418262 70.715063 82.722598 C 70.623559 82.431045 70.40731 82.202894 70.135253 82.090596 L 72.071052 96.793057 C 72.07936 96.856164 72.076019 96.918201 72.062267 96.976508 A 29.561581 29.561581 0 0 0 72.595568 96.892276 L 70.760538 82.953075 L 74.399592 96.533641 A 29.561581 29.561581 0 0 0 74.925141 96.407034 C 74.890044 96.358326 74.863105 96.30226 74.846593 96.240636 L 71.008585 81.916963 z M 66.337552 82.223404 L 64.401753 96.925349 C 64.393443 96.98847 64.373764 97.047225 64.345426 97.100015 A 29.561581 29.561581 0 0 0 64.883377 97.156859 L 66.718407 83.216625 L 66.718407 97.277265 A 29.561581 29.561581 0 0 0 67.258943 97.290701 C 67.237703 97.234636 67.22587 97.174025 67.22587 97.11035 L 67.22587 82.281282 C 66.970995 82.428117 66.786619 82.68266 66.73391 82.983564 C 66.720907 82.678422 66.571167 82.402173 66.337552 82.223404 z M 69.12963 82.223404 C 68.895783 82.402313 68.745741 82.678758 68.732755 82.984081 C 68.680072 82.683131 68.495693 82.428255 68.240795 82.281282 L 68.240795 97.11035 C 68.240795 97.174025 68.228962 97.234636 68.207722 97.290701 A 29.561581 29.561581 0 0 0 68.748258 97.277265 L 68.748258 83.216625 L 70.583288 97.157376 A 29.561581 29.561581 0 0 0 71.121239 97.100015 C 71.092846 97.047176 71.073233 96.988546 71.064912 96.925349 L 69.12963 82.223404 z " />
    <circle
       style="opacity:1;fill:url(#linearGradient83);fill-opacity:1;stroke:none;stroke-width:0.264583;stroke-linecap:round;stroke-linejoin:round;stroke-miterlimit:12;paint-order:markers stroke fill"
       id="path8"
       cx="67.73333"
       cy="67.73333"
       r="18.511866" />
    <circle
       style="opacity:1;fill:#1a1a1a;fill-opacity:1;stroke:none;stroke-width:0.264583;stroke-linecap:round;stroke-linejoin:round;stroke-miterlimit:12;paint-order:markers stroke fill"
       id="path32"
       cx="67.73333"
       cy="67.73333"
       r="4.0898304" />
    <path
       id="circle83"
       style="opacity:0.2;mix-blend-mode:normal;fill:url(#linearGradient85);fill-opacity:1;stroke:none;stroke-width:0.264583;stroke-linecap:round;stroke-linejoin:round;stroke-miterlimit:12;paint-order:markers stroke fill;filter:url(#filter85)"
       d="m 68.231014,51.983486 c -0.456677,-0.01463 -0.914327,-0.0086 -1.370975,0.0186 -6.361004,0.263563 -12.271565,4.796276 -14.189315,10.86652 -1.160284,3.487298 -1.010164,7.320945 0.319877,10.769368 0.07828,0.206964 0.161473,0.412209 0.24908,0.61495 0.123499,-0.627753 0.286273,-1.24888 0.489376,-1.859318 1.91775,-6.070244 7.828311,-10.602957 14.189315,-10.86652 1.826594,-0.108864 3.666516,0.121944 5.416207,0.653707 4.399117,1.259915 8.091005,4.579754 9.931693,8.748303 0.548778,-2.723978 0.381942,-5.642536 -0.568441,-8.266162 -1.608512,-4.751304 -5.588084,-8.622817 -10.421586,-10.007141 -1.312268,-0.398823 -2.6752,-0.62843 -4.045231,-0.672311 z" />
    <path
       id="path33"
       style="opacity:1;fill:#1a1a1a;fill-opacity:1;stroke:none;stroke-width:0.264583;stroke-linecap:round;stroke-linejoin:round;stroke-miterlimit:12;paint-order:markers stroke fill"
       inkscape:transform-center-y="1.5062487"
       d="m 75.484999,61.011238 a 1.0403955,1.0403955 0 0 0 -1.467423,-0.104383 1.0403955,1.0403955 0 0 0 -0.104383,1.467422 1.0403955,1.0403955 0 0 0 1.467423,0.104384 1.0403955,1.0403955 0 0 0 0.104383,-1.467423 z m -15.680063,3.028187 a 1.0403955,1.0403955 0 0 0 -0.445613,-0.301684 1.0403955,1.0403955 0 0 0 -1.323546,0.643642 1.0403955,1.0403955 0 0 0 0.643303,1.323156 1.0403955,1.0403955 0 0 0 1.323547,-0.643642 1.0403955,1.0403955 0 0 0 -0.197691,-1.021472 z m 10.462836,12.06535 a 1.0403955,1.0403955 0 0 0 -0.983204,-0.340291 1.0403955,1.0403955 0 0 0 -0.824511,1.219111 1.0403955,1.0403955 0 0 0 1.218773,0.82412 1.0403955,1.0403955 0 0 0 0.824511,-1.219111 1.0403955,1.0403955 0 0 0 -0.235569,-0.483829 z"
       inkscape:transform-center-x="0.87434578" />
    <path
       id="rect57"
       style="opacity:1;fill:#491755;fill-opacity:1;stroke-width:0.264583;stroke-linecap:round;stroke-linejoin:round;stroke-miterlimit:12;paint-order:markers stroke fill"
       d="M 4.2043943e-6,8.7559501 12.182474,14.858922 a 1.4581871,1.4581871 0 0 1 1.25e-4,2.607416 L 4.2043943e-6,23.570838 Z"
       sodipodi:nodetypes="cccc" />
    <path
       id="path57"
       style="opacity:0.4;fill:#000000;fill-opacity:1;stroke-width:0.264583;stroke-linecap:round;stroke-linejoin:round;stroke-miterlimit:12;paint-order:markers stroke fill"
       d="M -1.2029584e-4,8.7559421 V 10.343442 L 12.182598,16.44643 a 1.4581871,1.4581871 0 0 1 0.567924,0.510047 1.4581871,1.4581871 0 0 0 -0.567924,-2.097547 z" />
    <path
       id="path59"
       style="opacity:0.28;fill:#000000;fill-opacity:1;stroke-width:0.264583;stroke-linecap:round;stroke-linejoin:round;stroke-miterlimit:12;paint-order:markers stroke fill"
       d="m 135.46666,41.616062 a 26.117514,26.117514 0 0 0 -26.11726,26.117269 26.117514,26.117514 0 0 0 0.0346,0.529166 26.117514,26.117514 0 0 1 26.08264,-25.588101 z" />
    <path
       id="path61"
       style="opacity:1;mix-blend-mode:soft-light;fill:#ffffff;fill-opacity:1;stroke-width:0.264583;stroke-linecap:round;stroke-linejoin:round;stroke-miterlimit:12;paint-order:markers stroke fill"
       d="m 135.46668,94.908933 a 26.117514,26.117514 0 0 1 -26.11726,-26.117269 26.117514,26.117514 0 0 1 0.0346,-0.529166 26.117514,26.117514 0 0 0 26.08264,25.588101 z" />
    <path
       id="path62"
       style="opacity:0.18;mix-blend-mode:soft-light;fill:#000000;fill-opacity:1;stroke-width:0.264583;stroke-linecap:round;stroke-linejoin:round;stroke-miterlimit:12;paint-order:markers stroke fill"
       d="m 135.46668,40.557728 a 26.117514,26.117514 0 0 0 -26.11726,26.117269 26.117514,26.117514 0 0 0 0.0346,0.529166 26.117514,26.117514 0 0 1 26.08264,-25.588101 z" />
    <path
       id="rect62"
       style="opacity:1;fill:#491755;fill-opacity:1;stroke-width:0.264583;stroke-linecap:round;stroke-linejoin:round;stroke-miterlimit:12;paint-order:markers stroke fill"
       d="m 108.22814,1.3175128e-6 h 10.655 V 8.9239589 h -12.1147 z"
       sodipodi:nodetypes="ccccc" />
    <rect
       style="opacity:1;fill:#491755;fill-opacity:1;stroke:none;stroke-width:0.264583;stroke-linecap:round;stroke-linejoin:round;stroke-miterlimit:12;paint-order:markers stroke fill"
       id="rect63"
       width="5.8717933"
       height="3.9016094"
       x="92.657974"
       y="0" />
    <path
       id="path63"
       style="opacity:1;fill:#491755;fill-opacity:1;stroke-width:0.264583;stroke-linecap:round;stroke-linejoin:round;stroke-miterlimit:12;paint-order:markers stroke fill"
       d="m 108.22814,135.46666 h 10.655 v -8.92395 h -12.1147 z"
       sodipodi:nodetypes="ccccc" />
    <rect
       style="opacity:1;fill:#491755;fill-opacity:1;stroke:none;stroke-width:0.264583;stroke-linecap:round;stroke-linejoin:round;stroke-miterlimit:12;paint-order:markers stroke fill"
       id="rect64"
       width="5.8717933"
       height="3.9016094"
       x="92.657974"
       y="-135.46666"
       transform="scale(1,-1)" />
    <path
       id="path64"
       style="opacity:1;fill:#a259af;fill-opacity:1;stroke-width:0.264583;stroke-linecap:round;stroke-linejoin:round;stroke-miterlimit:12;paint-order:markers stroke fill"
       d="m 92.657869,3.9104954 v 0.5291667 h 5.871993 V 3.9104954 Z m 14.110571,5.0134635 -0.0863,0.5291667 12.201,0.00897 V 8.9329278 Z"
       sodipodi:nodetypes="cccccccccc" />
    <path
       id="path65"
       style="opacity:1;fill:#2c0e33;fill-opacity:1;stroke-width:0.264583;stroke-linecap:round;stroke-linejoin:round;stroke-miterlimit:12;paint-order:markers stroke fill"
       d="m 106.76854,126.54271 0.17311,1.05834 h 11.9414 v -1.05834 z m -14.110254,5.02244 v 1.05833 h 5.871476 v -1.05833 z" />
    <rect
       style="opacity:0.4;fill:#a259af;fill-opacity:1;stroke-width:0.278745;stroke-linecap:round;stroke-linejoin:round;stroke-miterlimit:12;paint-order:markers stroke fill;filter:url(#filter69)"
       id="rect66"
       width="0.64577115"
       height="43.938232"
       x="131.66388"
       y="45.764221"
       ry="0.32288557"
       transform="matrix(0.94919286,0,0,0.94919286,6.7058788,3.4413333)" />
    <rect
       style="opacity:0.4;fill:#a259af;fill-opacity:1;stroke-width:0.298043;stroke-linecap:round;stroke-linejoin:round;stroke-miterlimit:12;paint-order:markers stroke fill;filter:url(#filter66)"
       id="rect67"
       width="0.64577115"
       height="43.938232"
       x="131.66388"
       y="45.764221"
       ry="0.32288557"
       transform="matrix(0.94919286,0,0,0.83025773,1.4141842,11.497207)" />
    <rect
       style="opacity:0.4;fill:#a259af;fill-opacity:1;stroke-width:0.320957;stroke-linecap:round;stroke-linejoin:round;stroke-miterlimit:12;paint-order:markers stroke fill;filter:url(#filter66)"
       id="rect68"
       width="0.64577115"
       height="43.938232"
       x="131.66388"
       y="45.764221"
       ry="0.32288557"
       transform="matrix(0.94919286,0,0,0.71594145,-3.8774952,19.240228)" />
    <rect
       style="opacity:0.4;fill:#a259af;fill-opacity:1;stroke-width:0.378419;stroke-linecap:round;stroke-linejoin:round;stroke-miterlimit:12;paint-order:markers stroke fill;filter:url(#filter70)"
       id="rect69"
       width="0.64577115"
       height="43.938232"
       x="131.66388"
       y="45.764221"
       ry="0"
       transform="matrix(0.94919286,0,0,0.51502194,-9.1691288,32.849176)"
       rx="0.32288557" />
    <path
       id="circle70"
       style="display:inline;opacity:1;fill:#2c0e33;fill-opacity:1;stroke:none;stroke-width:0.264583;stroke-linecap:round;stroke-linejoin:round;stroke-miterlimit:12;paint-order:markers stroke fill"
       d="m 67.73333,37.642582 a 29.561581,29.561581 0 0 0 -29.561503,29.561503 29.561581,29.561581 0 0 0 0.01757,0.264584 29.561581,29.561581 0 0 1 29.543933,-29.29692 29.561581,29.561581 0 0 1 29.543932,29.29692 29.561581,29.561581 0 0 0 0.01757,-0.264584 A 29.561581,29.561581 0 0 0 67.73333,37.642582 Z" />
    <path
       id="circle72"
       style="display:inline;opacity:1;fill:#a259af;fill-opacity:1;stroke:none;stroke-width:0.264583;stroke-linecap:round;stroke-linejoin:round;stroke-miterlimit:12;paint-order:markers stroke fill"
       d="m 38.189398,67.99799 a 29.561581,29.561581 0 0 0 -0.01757,0.26459 29.561581,29.561581 0 0 0 29.561502,29.5615 29.561581,29.561581 0 0 0 29.561503,-29.5615 29.561581,29.561581 0 0 0 -0.01757,-0.26459 A 29.561581,29.561581 0 0 1 67.73333,97.29491 29.561581,29.561581 0 0 1 38.189398,67.99799 Z" />
    <circle
       style="opacity:0.2;fill:#491755;fill-opacity:1;stroke:url(#linearGradient76);stroke-width:0.52916666;stroke-linecap:round;stroke-linejoin:round;stroke-miterlimit:12;stroke-dasharray:none;paint-order:markers stroke fill;stroke-opacity:1"
       id="path74"
       cx="21.360264"
       cy="67.73333"
       r="3.7041667" />
    <rect
       style="opacity:0.2;fill:#a259af;fill-opacity:1;stroke:url(#linearGradient78);stroke-width:0.529167;stroke-linecap:round;stroke-linejoin:round;stroke-miterlimit:12;stroke-dasharray:none;stroke-opacity:1;paint-order:markers stroke fill"
       id="rect76"
       width="4.8586988"
       height="10.027786"
       x="0.52917165"
       y="26.458332"
       rx="1.6062324"
       ry="0" />
    <rect
       style="opacity:0.2;fill:#a259af;fill-opacity:1;stroke:url(#linearGradient79);stroke-width:0.529167;stroke-linecap:round;stroke-linejoin:round;stroke-miterlimit:12;stroke-dasharray:none;stroke-opacity:1;paint-order:markers stroke fill"
       id="rect78"
       width="4.8586988"
       height="10.027786"
       x="0.52917165"
       y="98.980553"
       rx="1.6062324"
       ry="0" />
    <rect
       style="opacity:0.2;fill:#a259af;fill-opacity:1;stroke:url(#linearGradient81);stroke-width:0.529167;stroke-linecap:round;stroke-linejoin:round;stroke-miterlimit:12;stroke-dasharray:none;stroke-opacity:1;paint-order:markers stroke fill"
       id="rect79"
       width="4.8586988"
       height="10.027786"
       x="130.17496"
       y="26.458332"
       rx="1.6062324"
       ry="0" />
    <rect
       style="opacity:0.2;fill:#a259af;fill-opacity:1;stroke:url(#linearGradient80);stroke-width:0.529167;stroke-linecap:round;stroke-linejoin:round;stroke-miterlimit:12;stroke-dasharray:none;stroke-opacity:1;paint-order:markers stroke fill"
       id="rect80"
       width="4.8586988"
       height="10.027786"
       x="130.17496"
       y="98.980553"
       rx="1.6062324"
       ry="0" />
    <path
       id="rect85"
       style="opacity:1;fill:#491755;fill-opacity:1;stroke:none;stroke-width:0.529167;stroke-linecap:round;stroke-linejoin:round;stroke-miterlimit:12;stroke-dasharray:none;stroke-opacity:1;paint-order:markers stroke fill"
       d="M 26.180831 10.583333 C 24.747336 10.583333 23.593392 11.737278 23.593392 13.170772 L 23.593392 16.615006 C 23.593392 18.048501 24.747336 19.202445 26.180831 19.202445 C 27.614325 19.202445 28.768786 18.048501 28.768786 16.615006 L 28.768786 13.170772 C 28.768786 11.737278 27.614325 10.583333 26.180831 10.583333 z M 24.383524 119.0625 C 23.588109 119.0625 22.947953 119.70265 22.947953 120.49807 L 22.947953 123.44776 C 22.947953 124.24318 23.588109 124.88333 24.383524 124.88333 L 27.332698 124.88333 C 28.128114 124.88333 28.768786 124.24318 28.768786 123.44776 L 28.768786 120.49807 C 28.768786 119.70265 28.128114 119.0625 27.332698 119.0625 L 24.383524 119.0625 z " />
    <path
       id="path86"
       style="opacity:1;fill:#2c0e33;fill-opacity:1;stroke:none;stroke-width:0.529167;stroke-linecap:round;stroke-linejoin:round;stroke-miterlimit:12;stroke-dasharray:none;stroke-opacity:1;paint-order:markers stroke fill"
       d="m 26.18083,10.583333 c -1.433495,0 -2.587439,1.153945 -2.587439,2.587439 v 1.058333 c 0,-1.433494 1.153944,-2.587438 2.587439,-2.587438 1.433494,0 2.587956,1.153944 2.587956,2.587438 v -1.058333 c 0,-1.433494 -1.154462,-2.587439 -2.587956,-2.587439 z M 24.383524,119.0625 c -0.795415,0 -1.435571,0.64015 -1.435571,1.43557 v 1.05834 c 0,-0.79542 0.640156,-1.43558 1.435571,-1.43558 h 2.949174 c 0.795416,0 1.436088,0.64016 1.436088,1.43558 v -1.05834 c 0,-0.79542 -0.640672,-1.43557 -1.436088,-1.43557 z" />
    <path
       id="path87"
       style="opacity:1;fill:#a259af;fill-opacity:1;stroke:none;stroke-width:0.529167;stroke-linecap:round;stroke-linejoin:round;stroke-miterlimit:12;stroke-dasharray:none;stroke-opacity:1;paint-order:markers stroke fill"
       d="m 23.593392,16.615003 v 0.529166 c 0,1.433495 1.153944,2.587439 2.587439,2.587439 1.433494,0 2.587955,-1.153944 2.587955,-2.587439 v -0.529166 c 0,1.433495 -1.154461,2.587439 -2.587955,2.587439 -1.433495,0 -2.587439,-1.153944 -2.587439,-2.587439 z M 22.947953,123.44776 v 0.52916 c 0,0.79542 0.640156,1.43557 1.435571,1.43557 h 2.949174 c 0.795416,0 1.436088,-0.64015 1.436088,-1.43557 v -0.52916 c 0,0.79542 -0.640672,1.43557 -1.436088,1.43557 h -2.949174 c -0.795415,0 -1.435571,-0.64015 -1.435571,-1.43557 z" />
  </g>
</svg>
