<?xml version="1.0" encoding="UTF-8" standalone="no"?>
<!-- Created with Inkscape (http://www.inkscape.org/) -->

<svg
   width="512"
   height="512"
   viewBox="0 0 135.46666 135.46667"
   version="1.1"
   id="svg5"
   inkscape:version="1.4.2 (ebf0e940d0, 2025-05-08)"
   sodipodi:docname="media-tape.svg"
   xmlns:inkscape="http://www.inkscape.org/namespaces/inkscape"
   xmlns:sodipodi="http://sodipodi.sourceforge.net/DTD/sodipodi-0.dtd"
   xmlns:xlink="http://www.w3.org/1999/xlink"
   xmlns="http://www.w3.org/2000/svg"
   xmlns:svg="http://www.w3.org/2000/svg"
   xmlns:rdf="http://www.w3.org/1999/02/22-rdf-syntax-ns#"
   xmlns:cc="http://creativecommons.org/ns#"
   xmlns:dc="http://purl.org/dc/elements/1.1/">&gt;
  <sodipodi:namedview
   id="namedview7"
   pagecolor="#505050"
   bordercolor="#ffffff"
   borderopacity="1"
   inkscape:showpageshadow="0"
   inkscape:pageopacity="0"
   inkscape:pagecheckerboard="1"
   inkscape:deskcolor="#505050"
   inkscape:document-units="mm"
   showgrid="false"
   inkscape:zoom="4.4857088"
   inkscape:cx="334.72971"
   inkscape:cy="301.95897"
   inkscape:window-width="3256"
   inkscape:window-height="1080"
   inkscape:window-x="1864"
   inkscape:window-y="0"
   inkscape:window-maximized="0"
   inkscape:current-layer="layer1" />
<defs
   id="defs2">
  <linearGradient
     inkscape:collect="always"
     id="linearGradient90701">
    <stop
       style="stop-color:#ffffff;stop-opacity:1;"
       offset="0"
       id="stop90697" />
    <stop
       style="stop-color:#ffffff;stop-opacity:0;"
       offset="1"
       id="stop90699" />
  </linearGradient>
  <linearGradient
     inkscape:collect="always"
     id="linearGradient89965">
    <stop
       style="stop-color:#ffffff;stop-opacity:0;"
       offset="0"
       id="stop89963" />
    <stop
       style="stop-color:#ffffff;stop-opacity:1;"
       offset="1"
       id="stop89961" />
  </linearGradient>
  <linearGradient
     inkscape:collect="always"
     id="linearGradient87668">
    <stop
       style="stop-color:#ffffff;stop-opacity:1;"
       offset="0"
       id="stop87664" />
    <stop
       style="stop-color:#ffffff;stop-opacity:0;"
       offset="1"
       id="stop87666" />
  </linearGradient>
  <linearGradient
     inkscape:collect="always"
     id="linearGradient85141">
    <stop
       style="stop-color:#ffffff;stop-opacity:1;"
       offset="0"
       id="stop85137" />
    <stop
       style="stop-color:#ffffff;stop-opacity:0;"
       offset="1"
       id="stop85139" />
  </linearGradient>
  <linearGradient
     inkscape:collect="always"
     id="linearGradient83649">
    <stop
       style="stop-color:#171717;stop-opacity:1;"
       offset="0"
       id="stop83647" />
    <stop
       style="stop-color:#1a1a1a;stop-opacity:1;"
       offset="1"
       id="stop83645" />
  </linearGradient>
  <linearGradient
     inkscape:collect="always"
     id="linearGradient4896">
    <stop
       style="stop-color:#ffffff;stop-opacity:0.46104032;"
       offset="0"
       id="stop4892" />
    <stop
       style="stop-color:#000000;stop-opacity:0;"
       offset="1"
       id="stop4894" />
  </linearGradient>
  <linearGradient
     inkscape:collect="always"
     xlink:href="#linearGradient4896"
     id="linearGradient4898"
     x1="67.733337"
     y1="75.555138"
     x2="67.733337"
     y2="94.935463"
     gradientUnits="userSpaceOnUse"
     gradientTransform="translate(0,12.172349)" />
  <linearGradient
     inkscape:collect="always"
     xlink:href="#linearGradient83649"
     id="linearGradient83651"
     x1="78.428772"
     y1="76.48568"
     x2="78.428772"
     y2="94.476799"
     gradientUnits="userSpaceOnUse"
     gradientTransform="translate(0,12.172349)" />
  <linearGradient
     inkscape:collect="always"
     xlink:href="#linearGradient85141"
     id="linearGradient85143"
     x1="-33.14114"
     y1="23.42618"
     x2="-33.14114"
     y2="101.84941"
     gradientUnits="userSpaceOnUse"
     gradientTransform="translate(104.25039,82.374488)" />
  <clipPath
     clipPathUnits="userSpaceOnUse"
     id="clipPath85879">
    <path
       style="color:#000000;fill:#0d0d0d;stroke-width:0.246003;stroke-linecap:round;stroke-linejoin:round;-inkscape-stroke:none;paint-order:stroke fill markers"
       d="m 13.568906,105.71029 c -2.759131,0 -4.9805749,2.22144 -4.9805749,4.98058 v 47.33457 H 7.154827 v 18.24695 l 1.4335041,-0.22376 v 3.13263 c 0,2.75913 2.2214439,4.98058 4.9805749,4.98058 H 136.20742 c 2.75914,0 4.98057,-2.22145 4.98057,-4.98058 v -3.13263 l 1.43351,0.22376 v -18.24695 h -1.43351 v -47.33457 c 0,-2.75914 -2.22143,-4.98058 -4.98057,-4.98058 z m 46.20493,29.78526 h 30.228646 c 1.538607,0 2.777093,1.23849 2.777093,2.77709 v 13.38213 c 0,1.53861 -1.238486,2.7771 -2.777093,2.7771 H 59.773836 c -1.538602,0 -2.777091,-1.23849 -2.777091,-2.7771 v -13.38213 c 0,-1.5386 1.238489,-2.77709 2.777091,-2.77709 z m -11.916585,1.48105 c 4.396111,-1.9e-4 7.959908,3.56361 7.959723,7.95972 -1.01e-4,4.39591 -3.563814,7.95939 -7.959723,7.95921 -4.395705,-1e-4 -7.959103,-3.5635 -7.959204,-7.95921 -1.85e-4,-4.39591 3.563298,-7.95962 7.959204,-7.95972 z m 54.061819,0 c 4.39591,1e-4 7.9594,3.56381 7.95921,7.95972 -1e-4,4.39571 -3.5635,7.95911 -7.95921,7.95921 -4.39591,1.8e-4 -7.959623,-3.5633 -7.959721,-7.95921 -1.85e-4,-4.39611 3.56361,-7.95991 7.959721,-7.95972 z m -48.335553,37.70364 c 1.169003,0 2.116667,0.94767 2.116667,2.11667 0,1.169 -0.947664,2.11667 -2.116667,2.11667 -1.169003,0 -2.116666,-0.94767 -2.116666,-2.11667 0,-1.169 0.947663,-2.11667 2.116666,-2.11667 z m 42.609286,0 c 1.169003,0 2.116667,0.94767 2.116667,2.11667 0,1.169 -0.947664,2.11667 -2.116667,2.11667 -1.169003,0 -2.116667,-0.94767 -2.116667,-2.11667 0,-1.169 0.947664,-2.11667 2.116667,-2.11667 z M 44.587684,178.341 c 1.169003,0 2.116667,0.94766 2.116667,2.11667 0,1.169 -0.947664,2.11667 -2.116667,2.11667 -1.169001,0 -2.116667,-0.94767 -2.116667,-2.11667 0,-1.16901 0.947664,-2.11667 2.116667,-2.11667 z m 60.600956,0 c 1.169,0 2.11667,0.94766 2.11667,2.11667 0,1.169 -0.94767,2.11667 -2.11667,2.11667 -1.16901,0 -2.11667,-0.94767 -2.11667,-2.11667 0,-1.16901 0.94766,-2.11667 2.11667,-2.11667 z"
       id="path85881" />
  </clipPath>
  <linearGradient
     inkscape:collect="always"
     xlink:href="#linearGradient87668"
     id="linearGradient87670"
     x1="0.77778864"
     y1="68.747231"
     x2="0.1225152"
     y2="85.010101"
     gradientUnits="userSpaceOnUse"
     gradientTransform="translate(0,12.172349)" />
  <linearGradient
     inkscape:collect="always"
     xlink:href="#linearGradient87668"
     id="linearGradient89157"
     gradientUnits="userSpaceOnUse"
     x1="0.77778864"
     y1="68.747231"
     x2="0.1225152"
     y2="85.010101"
     gradientTransform="translate(133.91014,12.172349)" />
  <linearGradient
     inkscape:collect="always"
     xlink:href="#linearGradient89965"
     id="linearGradient89967"
     x1="0.1225152"
     y1="77.63624"
     x2="1.4330621"
     y2="77.63624"
     gradientUnits="userSpaceOnUse"
     gradientTransform="translate(0,12.172349)" />
  <linearGradient
     inkscape:collect="always"
     xlink:href="#linearGradient90701"
     id="linearGradient90703"
     x1="134.03267"
     y1="77.63624"
     x2="135.34322"
     y2="77.63624"
     gradientUnits="userSpaceOnUse"
     gradientTransform="translate(0,12.172349)" />
</defs>
<g
   inkscape:label="Layer 1"
   inkscape:groupmode="layer"
   id="layer1">
  <path
     id="path25620"
     style="display:inline;fill:#28170b;fill-opacity:1;stroke:#5e421a;stroke-width:0.0901373;stroke-linecap:round;stroke-linejoin:round;stroke-dasharray:none;stroke-opacity:1;paint-order:stroke fill markers"
     d="M 94.764243,39.736558 A 27.97065,27.97065 0 0 0 66.793339,67.70746 27.97065,27.97065 0 0 0 94.764243,95.677846 27.97065,27.97065 0 0 0 122.73463,67.70746 27.97065,27.97065 0 0 0 94.764243,39.736558 Z m 0,20.453015 a 7.5177188,7.5177188 0 0 1 7.517367,7.517887 7.5177188,7.5177188 0 0 1 -7.517367,7.517371 7.5177188,7.5177188 0 0 1 -7.517889,-7.517371 7.5177188,7.5177188 0 0 1 7.517889,-7.517887 z" />
  <path
     id="path25622"
     style="color:#000000;fill:#5e421a;fill-rule:evenodd;stroke-width:0.886717"
     d="M 94.782323,39.982538 C 87.704328,39.963858 80.61764,42.553123 75.246049,47.782061 64.38323,58.356418 64.114209,76.276672 74.695184,87.146067 85.226636,97.964595 103.07441,98.232944 113.8995,87.694871 124.67373,77.206317 124.94038,59.432571 114.44521,48.651776 103.99955,37.921849 86.297773,37.655351 75.561276,48.107623 64.875651,58.510373 64.611365,76.138647 75.020743,86.830841 85.380588,97.472167 102.93638,97.735781 113.58428,87.36931 124.1813,77.052362 124.44321,59.570594 114.11965,48.967002 103.8456,38.414277 86.435799,38.152515 75.876504,48.433185 65.368081,58.66433 65.108547,76.000624 75.346301,86.515615 c 10.188248,10.464124 27.452069,10.723002 37.922749,0.528133 10.41983,-10.145343 10.677,-27.33513 0.52503,-37.76152 C 103.69164,38.906705 86.573826,38.649679 76.191732,48.758747 65.86051,58.818286 65.604151,75.864151 75.670316,86.201939 85.686958,96.488862 102.66035,96.743004 112.95383,86.719737 123.19645,76.746 123.45045,59.844574 113.47008,49.595387 103.53924,39.397065 86.711843,39.145293 76.50696,49.082758 c -10.15402,9.887934 -10.405644,26.64337 -0.511086,36.803955 9.845027,10.109722 26.526446,10.359126 36.642726,0.507462 10.06543,-9.802131 10.31467,-26.411578 0.50591,-36.483561 -9.75924,-10.021121 -26.294649,-10.268158 -36.32233,-0.502295 -9.97682,9.71633 -10.223699,26.179785 -0.500739,36.163168 9.673429,9.932519 26.062839,10.17719 36.001929,0.497126 9.88822,-9.630526 10.13274,-25.947992 0.49558,-35.842773 C 103.23133,40.381921 86.987887,40.139619 77.137408,49.73388 67.337781,59.278605 67.095636,75.450081 76.647,85.256261 c 9.501822,9.755318 25.59927,9.995251 35.36115,0.486791 9.71101,-9.458921 9.95081,-25.484408 0.48524,-35.201986 -9.41601,-9.666718 -25.367991,-9.904282 -35.041269,-0.481624 -9.622416,9.373119 -9.859311,25.252615 -0.479563,34.881591 9.330216,9.57812 25.135682,9.813316 34.720362,0.476458 9.53381,-9.287315 9.76886,-25.020824 0.47491,-34.561199 -9.24441,-9.489517 -24.905956,-9.722346 -34.402033,-0.471288 -9.445214,9.201512 -9.675831,24.789031 -0.467672,34.240803 9.15861,9.400918 24.672615,9.631378 34.080085,0.466122 9.35662,-9.11571 9.58641,-24.557239 0.46406,-33.92041 -9.07281,-9.312317 -24.442378,-9.540409 -33.761245,-0.460954 -9.268013,9.029907 -9.495447,24.325446 -0.458894,33.600016 8.987004,9.223715 24.212139,9.450992 33.442409,0.457337 9.17942,-8.944105 9.40447,-24.095204 0.45371,-33.281172 -8.90119,-9.135115 -23.980341,-9.360024 -33.122005,-0.452169 -9.090821,8.858301 -9.313502,23.863412 -0.448546,32.960778 8.815397,9.046514 23.748541,9.269055 32.801611,0.447001 9.00221,-8.772498 9.22253,-23.63162 0.44338,-32.640384 -8.72959,-8.957914 -23.516754,-9.178087 -32.481218,-0.441834 -8.913618,8.686696 -9.131573,23.399827 -0.438215,32.319991 8.64379,8.869313 23.284963,9.087118 32.160823,0.436666 8.82501,-8.600894 9.04061,-23.168035 0.43306,-31.999597 -8.558,-8.780712 -23.053187,-8.99615 -31.84044,-0.431499 -8.736417,8.515091 -8.949637,22.93676 -0.427876,31.67972 8.472193,8.692112 22.821366,8.904665 31.520026,0.425814 8.64782,-8.429287 8.85867,-22.704451 0.42272,-31.358809 -8.38639,-8.603511 -22.589582,-8.814213 -31.199642,-0.421163 -8.559206,8.343485 -8.767691,22.474725 -0.417546,31.040482 8.300587,8.514911 22.357788,8.721178 30.879248,0.413929 8.47061,-8.257682 8.67674,-22.242933 0.41238,-30.720089 -8.21478,-8.426309 -22.125995,-8.630209 -30.558854,-0.40876 -8.382005,8.171878 -8.585763,22.011141 -0.407216,30.399694 8.128972,8.337709 21.89422,8.539241 30.23847,0.403593 8.2934,-8.086075 8.49478,-21.779349 0.40203,-30.0793 -8.04318,-8.249109 -21.662417,-8.448274 -29.918064,-0.398426 -8.204804,8.000273 -8.405362,21.547558 -0.39842,29.758907 7.957374,8.160507 21.432174,8.358855 29.599224,0.394808 8.11621,-7.91447 8.31441,-21.317316 0.39326,-29.440063 -7.87157,-8.071907 -21.20039,-8.267888 -29.278836,-0.389641 -8.027602,7.828667 -8.223434,21.085525 -0.38809,29.11967 7.785768,7.983306 20.968586,8.17692 28.958436,0.384472 7.93901,-7.742864 8.13247,-20.853732 0.38293,-28.799275 -7.69997,-7.894706 -20.738879,-8.085951 -28.640115,-0.379306 -7.850409,7.657062 -8.039439,20.621941 -0.375684,28.478882 7.614152,7.806105 20.505009,7.994984 28.317639,0.374138 7.76182,-7.571259 7.95053,-20.390148 0.37259,-28.158488 -7.52836,-7.717504 -20.275273,-7.904015 -27.999317,-0.36897 -7.673198,7.485455 -7.857503,20.158357 -0.365354,27.838094 7.442546,7.628904 20.041421,7.813049 27.676861,0.363803 7.5846,-7.399652 7.76859,-19.926565 0.36225,-27.517701 -7.35674,-7.540302 -19.811696,-7.72208 -27.358529,-0.358634 -7.496006,7.313849 -7.675566,19.694773 -0.355023,27.197306 7.270948,7.451703 19.579912,7.631112 27.038142,0.353467 7.4074,-7.228047 7.5846,-19.462982 0.34985,-26.876912 -7.18515,-7.363102 -19.348118,-7.540145 -26.717749,-0.348299 -7.318796,7.142242 -7.49363,19.231189 -0.344676,26.556518 7.099342,7.274501 19.116325,7.449177 26.397345,0.343131 7.23021,-7.056439 7.40266,-18.999397 0.33952,-26.236124 -7.01354,-7.185901 -18.884541,-7.35821 -26.076962,-0.337964 -7.141594,6.970636 -7.313235,18.767606 -0.335897,25.915731 6.927736,7.097299 18.654289,7.268792 25.758109,0.334346 7.05302,-6.884834 7.22228,-18.537364 0.33074,-25.596887 -6.84194,-7.008698 -18.422504,-7.177826 -25.437724,-0.329179 -6.964392,6.79903 -7.131308,18.305573 -0.325558,25.276493 6.756129,6.920098 18.190712,7.086859 25.117332,0.324011 6.8758,-6.713226 7.04033,-18.073781 0.32038,-24.956099 -6.67032,-6.831496 -17.958917,-6.995891 -24.796926,-0.318844 -6.787208,6.627425 -6.949371,17.844059 -0.315228,24.637773 6.584523,6.742898 17.727137,6.902857 24.476544,0.311609 6.6986,-6.54162 6.85841,-17.612267 0.31006,-24.317378 -6.49872,-6.654297 -17.49534,-6.811891 -24.156148,-0.306442 -6.610007,6.455818 -6.767443,17.380475 -0.304897,23.996985 6.412916,6.565695 17.263548,6.720923 23.835755,0.301274 6.52139,-6.370015 6.67647,-17.148684 0.29972,-23.676591 -6.32711,-6.477095 -17.031753,-6.629956 -23.515358,-0.296106 -6.432797,6.284211 -6.585499,16.916891 -0.29455,23.356197 6.24131,6.388493 16.799961,6.538989 23.194958,0.290938 6.34419,-6.198408 6.49454,-16.6851 0.28939,-23.035803 -6.1555,-6.299893 -16.568167,-6.448023 -22.87457,-0.285771 -6.255587,6.112605 -6.403571,16.453309 -0.28422,22.715409 6.069704,6.211292 16.336383,6.357056 22.55417,0.280604 6.167,-6.026802 6.31261,-16.221519 0.27906,-22.395016 -5.9839,-6.122691 -16.106655,-6.266088 -22.235849,-0.275435 -6.078384,5.940998 -6.221128,15.989727 -0.273366,22.074621 5.898089,6.034092 15.874338,6.176673 21.914935,0.271818 5.98979,-5.855193 6.13221,-15.759487 0.27027,-21.755778 -5.812287,-5.945489 -15.644628,-6.085706 -21.596611,-0.26665 -5.9012,5.769391 -6.039182,15.527696 -0.263035,21.435384 5.726491,5.856889 15.410759,5.994741 21.274156,0.261483 5.81259,-5.683587 5.95029,-15.295905 0.25993,-21.11499 -5.640687,-5.768289 -15.181041,-5.903774 -20.955831,-0.256316 -5.723991,5.597784 -5.857256,15.064114 -0.252697,20.794597 5.554884,5.679688 14.949251,5.812808 20.635428,0.251147 5.63538,-5.511979 5.7663,-14.832323 0.24753,-20.474202 -5.469077,-5.591088 -14.717454,-5.721842 -20.315033,-0.24598 -5.546789,5.426177 -5.675328,14.600533 -0.242358,20.153809 5.383269,5.502486 14.485674,5.630876 19.994641,0.240812 5.45818,-5.340373 5.58436,-14.368742 0.23719,-19.833415 -5.297457,-5.413886 -14.253876,-5.539911 -19.674245,-0.235644 -5.369579,5.254568 -5.493391,14.136952 -0.232028,19.51302 5.211663,5.325285 14.022086,5.448946 19.353853,0.230477 5.28098,-5.168765 5.40243,-13.905162 0.22686,-19.192627 -5.125867,-5.236684 -13.790298,-5.357979 -19.033458,-0.225309 -5.192385,5.082962 -5.311462,13.673372 -0.221697,18.872233 5.040066,5.148083 13.558508,5.267015 18.713075,0.220142 5.10378,-4.997158 5.22049,-13.441582 0.21652,-18.55184 -4.954247,-5.059481 -13.326712,-5.176048 -18.39267,-0.214974 -5.015184,4.911354 -5.131086,13.211859 -0.212909,18.233513 4.86845,4.970882 13.096472,5.084568 18.073829,0.209289 4.92658,-4.825549 5.04011,-12.981102 0.20774,-17.914151 -4.782657,-4.882281 -12.864685,-4.99412 -17.75344,-0.20464 -4.837974,4.739746 -4.949151,12.74983 -0.202571,17.594276 4.696844,4.793681 12.632914,4.902638 17.433041,0.198954 4.74938,-4.653941 4.85819,-12.517524 0.1974,-17.273364 -4.611027,-4.70508 -12.401097,-4.812192 -17.112642,-0.194304 -4.660772,4.568138 -4.767223,12.286251 -0.192232,16.953488 4.525237,4.616479 12.169327,4.72071 16.792254,0.188618 4.57218,-4.482332 4.67626,-12.054461 0.18707,-16.633093 -4.439437,-4.527879 -11.937529,-4.629746 -16.471864,-0.183451 -4.483571,4.396528 -4.585295,11.822672 -0.181902,16.312699 4.353631,4.439277 11.705749,4.538782 16.151466,0.178284 4.39498,-4.310725 4.49434,-11.590883 0.17674,-15.992306 -4.267827,-4.350676 -11.475504,-4.44782 -15.832628,-0.173115 -4.306369,4.224919 -4.401824,11.359094 -0.170019,15.671911 4.182015,4.262076 11.24216,4.356857 15.510687,0.167948 4.21777,-4.139115 4.31241,-11.127306 0.16639,-15.351518 -4.096207,-4.173473 -11.011925,-4.265893 -15.19183,-0.16278 -4.129176,4.053311 -4.219905,10.895517 -0.15968,15.031124 4.0104,4.084874 10.780143,4.174931 14.87144,0.157613 4.04057,-3.967506 4.12893,-10.663729 0.15451,-14.71073 -3.924607,-3.996273 -10.548862,-4.08397 -14.551565,-0.152446 -3.951966,3.881702 -4.038997,10.431942 -0.150379,14.390337 3.838803,3.907672 10.318117,3.994558 14.232204,0.148827 3.86337,-3.795894 3.94701,-10.201704 0.14418,-14.071492 -3.752987,-3.819071 -10.085284,-3.903596 -13.910777,-0.143661 -3.774765,3.710092 -3.857087,9.969917 -0.14004,13.7511 3.667179,3.730469 9.85506,3.812635 13.591927,0.138492 3.68617,-3.624285 3.76613,-9.738129 0.13488,-13.430705 -3.581387,-3.641869 -9.623266,-3.721675 -13.271539,-0.133325 -3.597572,3.53848 -3.67516,9.506343 -0.129709,13.110311 3.495581,3.553269 9.391491,3.630715 12.951148,0.128158 3.50896,-3.452674 3.58419,-9.274556 0.12454,-12.789918 -3.409767,-3.464667 -9.159706,-3.539755 -12.630752,-0.122989 -3.420369,3.366869 -3.49324,9.044321 -0.119378,12.471073 3.323975,3.376067 8.927923,3.447246 12.31036,0.116272 3.33177,-3.281063 3.40228,-8.812535 0.1142,-12.150679 -3.238147,-3.287467 -8.696118,-3.356289 -11.989954,-0.111105 -3.243168,3.195257 -3.31133,8.580749 -0.109039,11.830286 3.152351,3.198864 8.464336,3.265331 11.669573,0.105937 3.15456,-3.109451 3.22037,-8.348964 0.10387,-11.509892 -3.066547,-3.110263 -8.23256,-3.174374 -11.349184,-0.100769 -3.065958,3.023644 -3.129403,8.117695 -0.0987,11.190015 1.819251,1.844224 4.398313,2.58544 6.820257,2.203999 a 7.8667383,7.8667383 0 0 1 -1.06506,0.08423 7.8667383,7.8667383 0 0 1 -2.593633,-0.452169 c -1.143183,-0.366587 -2.212626,-1.00002 -3.099033,-1.898592 -2.995854,-3.036983 -2.932249,-8.075852 0.0987,-11.064958 0.294683,-0.290614 0.608164,-0.552577 0.936373,-0.786515 a 7.8667383,7.8667383 0 0 1 0.09716,-0.0677 c 0.23146,-0.159648 0.46965,-0.30619 0.714162,-0.438216 8.87e-4,-4.77e-4 0.0017,-0.0011 0.0026,-0.0016 a 7.8667383,7.8667383 0 0 1 3.843681,-1.024227 7.8667383,7.8667383 0 0 1 7.419187,5.260143 c 8.2e-4,0.0023 0.002,0.0045 0.003,0.0067 a 7.8667383,7.8667383 0 0 1 0.005,0.01447 7.8667383,7.8667383 0 0 1 0.0672,0.19637 c 0.93513,2.836179 0.26756,6.122684 -1.96784,8.326107 -3.169877,3.124557 -8.426677,3.058404 -11.544499,-0.10542 -3.16746,-3.214192 -3.099085,-8.545017 0.109031,-11.705746 3.2585,-3.210359 8.659721,-3.141825 11.863358,0.110588 3.25325,3.302798 3.18406,8.779601 -0.11266,12.026139 -3.347097,3.296164 -8.895841,3.225248 -12.185296,-0.115755 -3.339058,-3.391401 -3.265921,-9.012634 0.11937,-12.344983 3.43571,-3.381965 9.128889,-3.309703 12.504146,0.11989 3.42487,3.480006 3.35089,9.246702 -0.12299,12.66486 -3.524307,3.467768 -9.363471,3.393643 -12.824532,-0.12454 -3.510674,-3.568611 -3.434327,-9.481804 0.128157,-12.985771 3.612911,-3.553571 9.598058,-3.475001 13.144925,0.131775 3.59647,3.657214 3.51774,9.714322 -0.13332,13.304098 -3.701517,3.639373 -9.832644,3.558423 -13.46533,-0.136943 -3.68227,-3.745817 -3.601171,-9.948908 0.138497,-13.624491 3.790113,-3.725176 10.067226,-3.641849 13.785713,0.14211 3.76807,3.834421 3.6846,10.183492 -0.14366,13.944885 -3.878727,3.810978 -10.301825,3.725273 -14.106108,-0.147278 -3.853886,-3.923025 -3.768025,-10.418079 0.148827,-14.265279 3.967332,-3.896781 10.536404,-3.808699 14.426501,0.152445 3.93969,4.011628 3.85145,10.652665 -0.154,14.585673 -4.055917,3.982584 -10.770979,3.892123 -14.746886,-0.157613 -4.025492,-4.10023 -3.934364,-10.887251 0.15968,-14.906067 4.144525,-4.068386 11.005049,-3.97555 15.066776,0.162781 4.11128,4.188833 4.01829,11.121837 -0.16434,15.226461 -4.233127,4.154188 -11.240152,4.058976 -15.387683,-0.167949 -4.197081,-4.277436 -4.101209,-11.356424 0.170019,-15.546855 4.321727,-4.239991 11.472677,-4.142401 15.706004,0.173117 4.2829,4.36604 4.18516,11.591012 -0.17466,15.867248 -4.410337,4.325794 -11.707784,4.225829 -16.026921,-0.178283 -4.368697,-4.454642 -4.268063,-11.824049 0.180349,-16.186092 4.498937,-4.411597 11.941865,-4.310806 16.346792,0.181901 4.45451,4.543245 4.35201,12.058637 -0.18499,16.506486 -4.587547,4.4974 -12.175414,4.394233 -16.666167,-0.187069 -4.540293,-4.631848 -4.436459,-12.293224 0.189137,-16.82688 4.676157,-4.5832 12.411033,-4.47766 16.98759,0.192237 4.6261,4.72045 4.51885,12.527811 -0.19533,17.147273 -4.764757,4.669004 -12.644596,4.561088 -17.306955,-0.197404 -4.711909,-4.809052 -4.601761,-12.7624 0.201019,-17.467667 4.853358,-4.754807 12.878659,-4.644516 17.626826,0.202571 4.79771,4.897654 4.68571,12.996988 -0.20568,17.788062 -4.941947,4.840609 -13.113749,4.727944 -17.947732,-0.20774 -4.88379,-4.986181 -4.768898,-13.2315 0.211075,-18.10838 5.030568,-4.926411 13.34783,-4.811372 18.267627,0.212907 4.9693,5.074859 4.85204,13.466162 -0.21653,18.428849 -5.119157,5.012214 -13.582424,4.894799 -18.588013,-0.218074 -5.055113,-5.163462 -4.935486,-13.700752 0.221697,-18.749244 5.207752,-5.098016 13.817019,-4.978227 18.908396,0.223243 5.14092,5.252064 5.0189,13.935339 -0.22685,19.069637 -5.296377,5.183819 -14.051605,5.061656 -19.228801,-0.22841 -5.226729,-5.340666 -5.102349,-14.169928 0.232027,-19.390031 5.384963,-5.269621 14.284637,-5.143017 19.547634,0.235645 5.31253,5.429268 5.18732,14.402449 -0.23564,19.708357 -5.473567,5.355424 -14.520768,5.226964 -19.869589,-0.240295 -5.398316,-5.517871 -5.269193,-14.636005 0.242367,-20.027718 5.562164,-5.441226 14.753805,-5.311427 20.188432,0.244429 5.48412,5.606472 5.35417,14.870078 -0.24599,20.347596 -5.650757,5.527028 -14.988397,5.394855 -20.508815,-0.249598 -5.569941,-5.695073 -5.437598,-15.104667 0.251145,-20.667989 5.739375,-5.612831 15.223003,-5.478285 20.82922,0.254765 5.65574,5.783675 5.52103,15.339255 -0.25632,20.988383 -5.827967,5.698633 -15.457579,5.561715 -21.149612,-0.259933 -5.74153,-5.872277 -5.604461,-15.573844 0.261484,-21.308776 5.916585,-5.784436 15.692171,-5.645144 21.470008,0.2651 5.82734,5.96088 5.68789,15.808434 -0.26665,21.62917 -6.005177,5.870239 -15.926761,5.728572 -21.7904,-0.270267 -5.913136,-6.049482 -5.771324,-16.043023 0.271823,-21.949565 6.093778,-5.956041 16.16135,-5.812001 22.110787,0.275436 5.99894,6.138084 5.85319,16.277612 -0.27853,22.269958 -6.182387,6.041843 -16.394393,5.895431 -22.429639,-0.280603 -6.084742,-6.226686 -5.938185,-16.512201 0.282154,-22.590353 6.270988,-6.127645 16.630525,-5.978861 22.751575,0.285772 6.17055,6.315286 6.02006,16.74679 -0.28887,22.910745 -6.359587,6.213449 -16.863565,6.062293 -23.070426,-0.290938 -6.256349,-6.403888 -6.104525,-16.98138 0.293007,-23.23114 6.448181,-6.29925 17.097639,-6.145721 23.390299,0.296106 6.34215,6.49249 6.18847,17.214419 -0.29765,23.549984 -6.536787,6.385052 -17.332747,6.230702 -23.711214,-0.299724 -6.427955,-6.58109 -6.269836,-17.449008 0.304889,-23.870377 6.625391,-6.470855 17.565275,-6.314132 24.029535,0.304891 6.51377,6.669693 6.35534,17.683598 -0.30799,24.190772 -6.713987,6.556657 -17.800375,6.397562 -24.350449,-0.31006 -6.599562,-6.758294 -6.438241,-17.918187 0.313676,-24.511164 6.802602,-6.642461 18.034443,-6.480993 24.670333,0.315226 6.68535,6.846896 6.52219,18.152777 -0.31833,24.831559 -6.8912,6.728262 -18.269557,6.564423 -24.991238,-0.320394 -6.771167,-6.935498 -6.605103,-18.387367 0.324016,-25.151953 6.979795,-6.814064 18.503632,-6.647854 25.311112,0.325562 6.85696,7.024098 6.68905,18.621957 -0.32866,25.472346 -7.0684,6.899867 -18.738739,6.731285 -25.632026,-0.330729 -6.942774,-7.112701 -6.771966,-18.856548 0.334346,-25.792741 7.157005,-6.985669 18.9728,-6.812647 25.9519,0.337965 7.02858,7.201302 6.85591,19.089069 -0.339,26.111067 -7.2456,7.071472 -19.207902,6.896595 -26.272813,-0.342615 -7.114372,-7.289904 -6.938819,-19.324176 0.344685,-26.431979 7.334207,-7.157273 19.441988,-6.979507 26.592688,0.3483 7.20017,7.378505 7.02225,19.55825 -0.34985,26.751855 -7.42281,7.243077 -19.676582,7.063457 -26.913081,-0.35295 -7.285978,-7.467105 -7.105691,-19.793357 0.355015,-27.072765 7.511399,-7.32888 19.909616,-7.146371 27.231926,0.358634 7.37178,7.555707 7.19066,20.025879 -0.35863,27.391093 -7.60001,7.414681 -20.145755,7.231869 -27.553869,-0.361736 -7.457594,-7.644307 -7.272563,-20.260986 0.365345,-27.712003 7.68861,-7.500483 20.378794,-7.314783 27.872724,0.36742 7.54338,7.732909 7.35753,20.495059 -0.36898,28.03188 -7.7772,7.586286 -20.613384,7.398729 -28.193105,-0.37207 -7.629182,-7.821511 -7.440967,-20.730167 0.374142,-28.352791 7.865811,-7.67209 20.847973,-7.481645 28.513493,0.377755 7.71499,7.910112 7.52285,20.964239 -0.38085,28.672668 -7.95441,7.75789 -21.081016,7.565074 -28.832343,-0.382923 -7.800797,-7.998714 -7.607821,-21.19883 0.384472,-28.993062 8.043013,-7.843692 21.317151,-7.648505 29.154281,0.38809 7.8866,8.087315 7.68971,21.433421 -0.39118,29.313456 -8.13161,7.929496 -21.550206,7.731937 -29.47314,-0.393258 -7.972395,-8.175916 -7.774684,-21.66801 0.394811,-29.63385 8.220214,-8.015298 21.786339,-7.815368 29.795079,0.398425 8.0582,8.264518 7.85656,21.902602 -0.40153,29.954245 -8.30882,8.101099 -22.019378,7.898799 -30.113918,-0.403593 -8.144002,-8.353118 -7.939489,-22.137192 0.407207,-30.274638 8.397416,-8.186902 22.253451,-7.982231 30.433801,0.40876 8.2298,8.44172 8.02342,22.371783 -0.41186,30.595032 -8.48603,8.272706 -22.488551,8.065663 -30.754707,-0.413928 -8.315598,-8.530321 -8.106351,-22.604821 0.417538,-30.913875 8.574627,-8.358507 22.721089,-8.150643 31.073039,0.417545 8.40142,8.618923 8.19183,22.839413 -0.42065,31.23427 -8.66322,8.444309 -22.956189,8.234075 -31.393942,-0.422713 -8.487214,-8.707525 -8.274756,-23.074003 0.426334,-31.554664 8.751819,-8.530111 23.190258,-8.317505 31.713818,0.427881 8.57301,8.796125 8.35871,23.308593 -0.43098,31.875057 -8.84042,8.615915 -23.425362,8.400937 -32.03473,-0.433048 -8.658812,-8.884726 -8.441619,-23.543183 0.436664,-32.195451 8.92903,-8.701716 23.659436,-8.48437 32.354606,0.438216 8.74462,8.973326 8.52557,23.777775 -0.44131,32.515845 -9.01762,8.787519 -23.894553,8.567801 -32.675527,-0.443384 -8.830418,-9.061928 -8.608482,-24.012364 0.447003,-32.836239 9.106231,-8.873321 24.128624,-8.649164 32.995404,0.450618 8.91621,9.150529 8.69242,24.244889 -0.45166,33.154566 -9.19482,8.959124 -24.363733,8.733113 -33.316305,-0.45527 -9.002025,-9.239129 -8.775344,-24.479994 0.457333,-33.475476 9.283433,-9.044925 24.597812,-8.816026 33.636192,0.460954 9.08783,9.327733 8.85929,24.71407 -0.46199,33.795353 -9.37204,9.130729 -24.832906,8.899977 -33.957094,-0.465604 -9.17363,-9.416333 -8.942206,-24.949176 0.467664,-34.116264 9.460634,-9.216531 25.067,-8.98289 34.27698,0.471289 9.25943,9.504935 9.02615,25.183251 -0.47232,34.436141 -9.54924,9.302333 -25.302097,9.066839 -34.597891,-0.47594 -9.345237,-9.593535 -9.109069,-25.416806 0.478012,-34.755501 9.637836,-9.388135 25.534609,-9.151304 34.916209,0.480074 9.43104,9.682135 9.19251,25.650882 -0.48317,35.075379 -9.72644,9.473938 -25.767657,9.235252 -35.235057,-0.484726 -9.516844,-9.770736 -9.277492,-25.885989 0.48679,-35.396288 9.815037,-9.559741 26.003807,-9.318169 35.556997,0.490408 9.60264,9.859339 9.35937,26.120063 -0.4935,35.716167 -9.90364,9.645542 -26.236848,9.402116 -35.875854,-0.495061 -9.688441,-9.947938 -9.444355,-26.355169 0.497129,-36.037076 9.992239,-9.731345 26.472985,-9.485032 36.197785,0.500744 9.77425,10.036541 9.52623,26.589244 -0.50385,36.356954 -10.08083,9.817148 -26.70601,9.568979 -36.516623,-0.505395 -9.860047,-10.125141 -9.609142,-26.824352 0.509526,-36.677865 10.169441,-9.90295 26.940087,-9.651893 36.836507,0.51108 9.94586,10.213743 9.6931,27.058426 -0.51418,36.997742 -10.25804,9.988751 -27.1752,9.735326 -37.157411,-0.516247 C 65.702745,75.837067 65.958395,58.846394 76.254264,48.821274 86.600897,38.746721 103.66353,39.002517 113.73156,49.34269 123.849,59.733634 123.59152,76.870297 113.20704,86.981219 102.7718,97.141576 85.562658,96.88341 75.408832,86.454637 65.205572,75.975092 65.465965,58.692439 75.939036,48.495714 c 10.523853,-10.24616 27.876904,-9.985622 38.116534,0.53175 10.28906,10.568146 10.02837,27.996789 -0.5333,38.279317 C 102.90981,97.638742 85.408706,97.375835 75.083274,86.769863 64.708407,76.113116 64.973536,58.540034 75.623808,48.171702 86.324862,37.753938 103.96989,38.017667 114.38112,48.712237 124.84179,59.457586 124.57636,77.176657 113.8375,87.630792 103.04784,98.134358 85.256288,97.86826 74.759258,87.085089 64.212786,76.25114 64.481106,58.386079 75.30858,47.846141 c 10.878247,-10.589369 28.81527,-10.31935 39.39811,0.55242 10.63227,10.92255 10.36209,28.932052 -0.55397,39.557793 l 0.062,0.06408 c 10.95143,-10.660158 11.22282,-28.725885 0.55604,-39.683882 -5.30863,-5.453564 -12.46187,-8.24835 -19.651507,-8.351428 -0.11234,-0.0016 -0.22459,-0.0023 -0.33694,-0.0026 z" />
  <path
     id="rect792"
     style="display:none;opacity:1;fill:#0d0d0d;fill-opacity:1;stroke:none;stroke-width:0.246003;stroke-linecap:round;stroke-linejoin:round;paint-order:stroke fill markers"
     d="m 6.4140788,16.309082 c -2.7591391,0 -4.9805746,2.221435 -4.9805746,4.980575 V 68.624235 H 0 v 18.246948 l 1.4335042,-0.223759 v 3.132626 c 0,2.759138 2.2214355,4.980574 4.9805746,4.980574 H 129.05259 c 2.75914,0 4.98057,-2.221436 4.98057,-4.980574 v -3.132626 l 1.43351,0.223759 V 68.624235 h -1.43351 V 21.289657 c 0,-2.75914 -2.22143,-4.980575 -4.98057,-4.980575 z m 40.0146122,68.96995 a 2.1166666,2.1166666 0 0 1 2.116666,2.116667 2.1166666,2.1166666 0 0 1 -2.116666,2.116667 2.1166666,2.1166666 0 0 1 -2.116667,-2.116667 2.1166666,2.1166666 0 0 1 2.116667,-2.116667 z m 42.609285,0 a 2.1166666,2.1166666 0 0 1 2.116667,2.116667 2.1166666,2.1166666 0 0 1 -2.116667,2.116667 2.1166666,2.1166666 0 0 1 -2.116667,-2.116667 2.1166666,2.1166666 0 0 1 2.116667,-2.116667 z m -51.605119,3.660759 a 2.1166666,2.1166666 0 0 1 2.116667,2.116667 2.1166666,2.1166666 0 0 1 -2.116667,2.116666 2.1166666,2.1166666 0 0 1 -2.116666,-2.116666 2.1166666,2.1166666 0 0 1 2.116666,-2.116667 z m 60.600952,0 a 2.1166666,2.1166666 0 0 1 2.116671,2.116667 2.1166666,2.1166666 0 0 1 -2.116671,2.116666 2.1166666,2.1166666 0 0 1 -2.116666,-2.116666 2.1166666,2.1166666 0 0 1 2.116666,-2.116667 z" />
  <text
     xml:space="preserve"
     style="font-style:normal;font-weight:normal;font-size:10.5833px;line-height:1.25;font-family:sans-serif;display:none;fill:#000000;fill-opacity:1;stroke:none;stroke-width:0.264583"
     x="23.413797"
     y="40.503056"
     id="text8118"
     transform="rotate(-5.4844596)"
     inkscape:label="font-reference"><tspan
       sodipodi:role="line"
       id="tspan8116"
       style="font-style:normal;font-variant:normal;font-weight:normal;font-stretch:normal;font-size:10.5833px;font-family:'Segoe Print';-inkscape-font-specification:'Segoe Print, Normal';font-variant-ligatures:normal;font-variant-caps:normal;font-variant-numeric:normal;font-variant-east-asian:normal;stroke-width:0.264583"
       x="23.413797"
       y="40.503056">Kool Mix Tape</tspan></text>
  <text
     xml:space="preserve"
     style="font-style:normal;font-weight:normal;font-size:29.0792px;line-height:1.25;font-family:sans-serif;display:none;fill:#000000;fill-opacity:1;stroke:none;stroke-width:0.726982"
     x="7.5373116"
     y="38.294739"
     id="text8122"
     inkscape:label="font-reference"><tspan
       sodipodi:role="line"
       id="tspan8120"
       style="font-style:normal;font-variant:normal;font-weight:normal;font-stretch:normal;font-size:29.0792px;font-family:MoolBoran;-inkscape-font-specification:'MoolBoran, Normal';font-variant-ligatures:normal;font-variant-caps:normal;font-variant-numeric:normal;font-variant-east-asian:normal;stroke-width:0.726982"
       x="7.5373116"
       y="38.294739">B</tspan></text>
  <text
     xml:space="preserve"
     style="font-style:normal;font-weight:normal;font-size:9.03973px;line-height:1.25;font-family:sans-serif;display:none;fill:#000000;fill-opacity:1;stroke:none;stroke-width:0.225994"
     x="50.744114"
     y="71.706078"
     id="text8126"
     inkscape:label="font-reference"><tspan
       sodipodi:role="line"
       id="tspan8124"
       style="font-style:normal;font-variant:normal;font-weight:normal;font-stretch:normal;font-size:9.03973px;font-family:MoolBoran;-inkscape-font-specification:'MoolBoran, Normal';font-variant-ligatures:normal;font-variant-caps:normal;font-variant-numeric:normal;font-variant-east-asian:normal;stroke-width:0.225994"
       x="50.744114"
       y="71.706078">Stereophonic</tspan></text>
  <path
     id="path41669"
     style="display:inline;fill:#0d0d0d;fill-opacity:1;stroke:none;stroke-width:0.246003;stroke-linecap:round;stroke-linejoin:round;paint-order:stroke fill markers"
     d="m 6.4140788,28.481431 c -2.759131,0 -4.9805746,2.221441 -4.9805746,4.980575 V 80.796584 H 0 v 18.246948 l 1.4335042,0.305408 v 2.60346 c 0,2.75913 2.2214436,4.98057 4.9805746,4.98057 H 129.05259 c 2.75914,0 4.98057,-2.22144 4.98057,-4.98057 v -2.60346 l 1.43351,-0.305408 V 80.796584 h -1.43351 V 33.462006 c 0,-2.759134 -2.22143,-4.980575 -4.98057,-4.980575 z M 52.61901,58.266693 h 30.228646 c 1.538606,0 2.777092,1.238488 2.777092,2.777091 v 13.38213 c 0,1.538603 -1.238486,2.777091 -2.777092,2.777091 H 52.61901 c -1.538603,0 -2.777091,-1.238488 -2.777091,-2.777091 v -13.38213 c 0,-1.538603 1.238488,-2.777091 2.777091,-2.777091 z M 40.702425,59.74774 c 4.396109,-1.86e-4 7.959907,3.563611 7.959721,7.95972 -9.9e-5,4.395908 -3.563813,7.959391 -7.959721,7.959205 -4.395706,-10e-5 -7.959105,-3.563499 -7.959204,-7.959205 -1.86e-4,-4.395907 3.563297,-7.95962 7.959204,-7.95972 z m 54.061817,0 c 4.395909,9.7e-5 7.959398,3.563811 7.959208,7.95972 -1e-4,4.395708 -3.5635,7.959108 -7.959208,7.959205 -4.395908,1.86e-4 -7.959622,-3.563297 -7.959721,-7.959205 -1.85e-4,-4.396109 3.563612,-7.959906 7.959721,-7.95972 z M 46.428691,97.451381 c 1.169003,0 2.116666,0.947664 2.116666,2.116667 0,1.169002 -0.947663,2.116672 -2.116666,2.116672 -1.169003,0 -2.116667,-0.94767 -2.116667,-2.116672 0,-1.169003 0.947664,-2.116667 2.116667,-2.116667 z m 42.609285,0 c 1.169003,0 2.116667,0.947664 2.116667,2.116667 0,1.169002 -0.947664,2.116672 -2.116667,2.116672 -1.169003,0 -2.116667,-0.94767 -2.116667,-2.116672 0,-1.169003 0.947664,-2.116667 2.116667,-2.116667 z m -51.605119,3.660759 c 1.169003,0 2.116667,0.94766 2.116667,2.11667 0,1.169 -0.947664,2.11666 -2.116667,2.11666 -1.169002,0 -2.116666,-0.94766 -2.116666,-2.11666 0,-1.16901 0.947663,-2.11667 2.116666,-2.11667 z m 60.600952,0 c 1.169005,0 2.116671,0.94766 2.116671,2.11667 0,1.169 -0.947667,2.11667 -2.116671,2.11666 -1.169002,0 -2.116666,-0.94766 -2.116666,-2.11666 0,-1.16901 0.947663,-2.11667 2.116666,-2.11667 z"
     sodipodi:nodetypes="ssccccssssccccssssssssssssccccccccccssssssssssssssssssss" />
  <path
     id="path23588"
     style="fill:#28170b;fill-opacity:1;stroke:none;stroke-width:0.459852;stroke-linecap:round;stroke-linejoin:round;stroke-dasharray:none;paint-order:stroke fill markers"
     d="M 40.702425,50.252195 A 17.455257,17.455257 0 0 0 23.24716,67.70746 17.455257,17.455257 0 0 0 40.702425,85.162209 17.455257,17.455257 0 0 0 58.15769,67.70746 17.455257,17.455257 0 0 0 40.702425,50.252195 Z m 0,9.937378 a 7.5177188,7.5177188 0 0 1 7.517887,7.517887 7.5177188,7.5177188 0 0 1 -7.517887,7.517371 7.5177188,7.5177188 0 0 1 -7.51737,-7.517371 7.5177188,7.5177188 0 0 1 7.51737,-7.517887 z" />
  <path
     id="path24110"
     style="display:inline;fill:none;fill-rule:evenodd;stroke:#5e421a;stroke-width:0.1;stroke-dasharray:none;stroke-opacity:1"
     d="m 51.88216,54.655769 c -5.145023,-4.353202 -12.66734,-5.555454 -18.991923,-2.389441 -8.371614,4.190734 -11.893401,14.686438 -7.698455,23.06593 4.164326,8.31833 14.593437,11.817551 22.919643,7.649011 l -0.194014,-0.391064 c -8.113066,4.062921 -18.275865,0.653231 -22.334565,-7.451961 -4.089326,-8.166351 -0.657072,-18.395745 7.501405,-22.480852 8.219636,-4.115731 18.515227,-0.661241 22.62674,7.55052 4.142136,8.272922 0.66548,18.635436 -7.599566,22.773357 l 0.193684,0.391461 c 8.478184,-4.243547 12.0451,-14.872439 7.797344,-23.358502 -1.054285,-2.106225 -2.505286,-3.907393 -4.220293,-5.358459 z M 47.917411,82.590205 C 55.969319,78.557911 59.356443,68.461707 55.319927,60.401926 51.31404,52.403303 41.28443,49.038743 33.277935,53.048854 25.332597,57.028334 21.990602,66.99135 25.974307,74.94456 c 3.953003,7.891914 13.849235,11.211553 21.749089,7.254581 z m 3.109207,-26.946101 c 1.585529,1.340829 2.926783,3.005135 3.901848,4.951507 3.930895,7.846639 0.63403,17.676466 -7.20474,21.603132 L 47.529712,81.80768 C 39.84293,85.659361 30.212818,82.429462 26.365371,74.750546 22.487285,67.010477 25.739749,57.313771 33.47195,53.439917 39.316964,50.51155 46.270032,51.621618 51.026618,55.644104 Z M 47.529712,81.80768 C 55.155344,77.98664 58.362678,68.423122 54.537402,60.789625 50.742769,53.217277 41.245846,50.032508 33.665635,53.83138 26.14657,57.599606 22.984696,67.029537 26.757162,74.556463 c 3.741749,7.465639 13.104964,10.605885 20.578536,6.860153 l -0.194082,-0.391792 c -7.260499,3.640443 -16.357198,0.590266 -19.99339,-6.662375 -3.666847,-7.313785 -0.594503,-16.477407 6.711422,-20.140005 7.367071,-3.693253 16.597287,-0.598345 20.286292,6.760865 3.719657,7.420356 0.602582,16.717496 -6.809912,20.432909 l -3.3e-4,3.98e-4 z M 47.141616,81.024824 C 54.340973,77.41504 57.368914,68.384537 53.754877,61.177323 50.171499,54.031251 41.207261,51.026272 34.053333,54.613905 c -7.092789,3.556972 -10.074873,12.454216 -6.513645,19.55486 3.530564,7.039503 12.360886,9.999421 19.408243,6.464598 l -0.194014,-0.391064 c -6.834216,3.429204 -15.398229,0.558818 -18.823166,-6.267548 -3.455608,-6.887502 -0.562657,-15.518109 6.316993,-18.969452 6.940787,-3.482014 15.638319,-0.566897 19.116069,6.366039 3.508418,6.994072 0.570338,15.757867 -6.415882,19.262025 z M 46.753917,80.242299 C 53.527,76.84377 56.375151,68.345952 52.972352,61.565022 49.600229,54.845224 41.169403,52.019968 34.441759,55.396363 c -6.666514,3.345715 -9.469934,11.710014 -6.119944,18.384374 3.319238,6.613088 11.617083,9.393754 18.238088,6.070499 z m 2.561288,-22.621126 c 1.326571,1.120351 2.449129,2.511595 3.265753,4.138261 3.297181,6.567788 0.53922,14.798502 -6.020725,18.091403 l -0.194014,-0.391063 c -6.407932,3.217967 -14.439262,0.52737 -17.652942,-5.872722 -3.244372,-6.461218 -0.53121,-14.559141 5.922166,-17.799228 4.885877,-2.453082 10.700048,-1.527706 14.679762,1.833349 z m -2.948986,21.838601 c 6.346808,-3.187273 9.01484,-11.15201 5.823277,-17.506656 -3.160865,-6.293523 -11.058678,-8.939389 -17.360039,-5.77423 -6.24024,3.134458 -8.86387,10.966076 -5.725116,17.214149 3.10798,6.186816 10.873143,8.787693 17.067864,5.675672 L 45.978521,78.677248 C 39.996874,81.68398 32.498224,79.173172 29.495803,73.199353 26.462666,67.164422 28.996039,59.599178 35.023142,56.57035 c 6.088218,-3.059542 13.720054,-0.503604 16.775291,5.576783 3.085945,6.141503 0.507773,13.839535 -5.625899,16.921179 l -3.29e-4,3.97e-4 z m -0.387698,-0.782526 c 5.920535,-2.976014 8.408778,-10.40807 5.42845,-16.336431 -2.949607,-5.867251 -10.31474,-8.333328 -16.189815,-5.379404 -5.813967,2.9232 -8.257809,10.222137 -5.330289,16.043926 2.896791,5.760683 10.129136,8.18196 15.89764,5.280845 l -0.193685,-0.391462 c -5.555361,2.795499 -12.521333,0.464479 -15.312494,-5.083067 -2.821903,-5.608646 -0.468318,-12.641211 5.132512,-15.45878 5.661932,-2.848307 12.76109,-0.472158 15.605067,5.181955 2.874711,5.715219 0.475997,12.88097 -5.2314,15.751354 z m -0.387699,-0.782526 c 5.494261,-2.764753 7.802717,-9.664132 5.033624,-15.166207 -2.738347,-5.440978 -9.570803,-7.727267 -15.019592,-4.984576 -5.387694,2.711938 -7.651749,9.478199 -4.935462,14.873702 2.68553,5.334409 9.385199,7.575901 14.727416,4.886018 L 45.202794,77.112595 C 40.07379,79.696533 33.641012,77.544693 31.061184,72.423559 28.450512,67.241199 30.62398,60.741707 35.798539,58.1354 c 5.235645,-2.637075 11.802127,-0.440712 14.434842,4.78713 2.663479,5.288931 0.444553,11.922006 -4.836573,14.581129 z m 1.727392,-17.967364 c -3.073362,-2.589392 -7.558785,-3.299489 -11.325661,-1.400894 -4.961423,2.500675 -7.045363,8.733865 -4.540305,13.70308 2.474266,4.90814 8.640534,6.969912 13.556464,4.49126 l -0.193685,-0.391462 c -4.702785,2.373039 -10.602684,0.401522 -12.971318,-4.293482 -2.399442,-4.756071 -0.40576,-10.722892 4.342528,-13.117934 4.809357,-2.425846 10.843168,-0.409269 13.264618,4.392302 2.452251,4.862643 0.412712,10.962717 -4.442143,13.410576 l 0.194412,0.391393 c 5.06799,-2.553492 7.196659,-8.920195 4.638795,-13.995983 -0.63177,-1.253677 -1.49925,-2.325726 -2.523705,-3.188856 z m -2.503187,16.401984 c 4.641721,-2.342226 6.591401,-8.175602 4.244765,-12.8251 -2.315817,-4.588436 -8.083328,-6.515485 -12.679541,-4.195253 -4.535153,2.28941 -6.439308,7.989931 -4.145478,12.532857 2.263,4.48187 7.8966,6.363858 12.38624,4.096432 l -0.193684,-0.391461 c -4.276495,2.161814 -9.644127,0.36975 -11.801492,-3.898985 -2.188218,-4.329781 -0.373193,-9.763675 3.948826,-11.947449 4.383067,-2.21462 9.883484,-0.377759 12.093667,3.997544 2.241024,4.436353 0.381269,10.003759 -4.047317,12.240351 z m -0.387698,-0.782525 c 4.215451,-2.130957 5.98502,-7.431271 3.849607,-11.654478 -2.104547,-4.162169 -7.338668,-5.909503 -11.508588,-3.800494 -4.108885,2.078139 -5.833656,7.245668 -3.75105,11.362303 2.05173,4.055601 7.152668,5.757808 11.216016,3.701604 l -0.173593,-0.3493 a 7.8667383,7.8667383 0 0 1 -1.81944,0.602107 c -0.03224,0.0072 -0.06446,0.0144 -0.09675,0.02116 a 7.8667383,7.8667383 0 0 1 -0.30798,0.05816 c -3.329577,0.557237 -6.839613,-1.093142 -8.427193,-4.227745 -1.976997,-3.903487 -0.341752,-8.804723 3.554,-10.777225 3.956774,-2.003398 8.924201,-0.34592 10.923113,3.603115 2.029801,4.010061 0.350158,9.044409 -3.652161,11.069729 z" />
  <path
     id="path18140"
     style="fill:#ececec;fill-opacity:1;stroke:none;stroke-width:0.648959;stroke-linecap:round;stroke-linejoin:round;stroke-dasharray:none;paint-order:stroke fill markers"
     d="M 40.702537,56.334511 A 11.372821,11.372821 0 0 0 29.329588,67.706944 11.372821,11.372821 0 0 0 40.702537,79.079893 11.372821,11.372821 0 0 0 52.075486,67.706944 11.372821,11.372821 0 0 0 40.702537,56.334511 Z m 0.839742,4.831747 a 6.6007924,6.6007924 0 0 1 3.191537,1.321883 l -0.89917,0.89917 c -0.118996,0.118995 -0.118994,0.310438 0,0.429431 l 0.758093,0.758093 c 0.118994,0.118995 0.310953,0.118996 0.429948,0 l 0.898653,-0.898653 a 6.6007924,6.6007924 0 0 1 1.321883,3.19102 h -1.27124 c -0.168283,0 -0.303341,0.135573 -0.303341,0.303857 v 1.072286 c 0,0.168283 0.135058,0.303341 0.303341,0.303341 h 1.277441 a 6.6007924,6.6007924 0 0 1 -1.32395,3.19567 l -0.902787,-0.902787 c -0.118994,-0.118994 -0.310436,-0.118995 -0.429431,0 l -0.75861,0.75861 c -0.118995,0.118995 -0.118995,0.309921 0,0.428915 l 0.903304,0.902787 a 6.6007924,6.6007924 0 0 1 -3.195671,1.32395 v -1.276925 c 0,-0.168281 -0.135573,-0.303857 -0.303857,-0.303857 h -1.07177 c -0.168281,0 -0.303857,0.135576 -0.303857,0.303857 v 1.270724 a 6.6007924,6.6007924 0 0 1 -3.19102,-1.321883 l 0.898137,-0.898653 c 0.118994,-0.118993 0.118995,-0.310438 0,-0.429432 l -0.757577,-0.758093 c -0.118993,-0.118994 -0.310955,-0.118994 -0.429948,0 l -0.898653,0.898653 a 6.6007924,6.6007924 0 0 1 -1.321883,-3.191536 h 1.27124 c 0.168285,0 0.303858,-0.135058 0.303858,-0.303341 v -1.072286 c 0,-0.168284 -0.135573,-0.303857 -0.303858,-0.303857 h -1.270723 a 6.6007924,6.6007924 0 0 1 1.321883,-3.19102 l 0.898653,0.898653 c 0.118995,0.118996 0.310437,0.119511 0.429431,5.17e-4 l 0.758094,-0.75861 c 0.118994,-0.118994 0.118995,-0.310436 0,-0.429431 l -0.898654,-0.898653 a 6.6007924,6.6007924 0 0 1 3.19102,-1.321883 v 1.270723 c 0,0.168285 0.135576,0.303858 0.303857,0.303858 h 1.07177 c 0.168284,0 0.303857,-0.135573 0.303857,-0.303858 z" />
  <path
     id="path18140-9"
     style="fill:#ececec;fill-opacity:1;stroke:none;stroke-width:0.648959;stroke-linecap:round;stroke-linejoin:round;stroke-dasharray:none;paint-order:stroke fill markers"
     d="M 94.764123,56.334511 A 11.372821,11.372821 0 0 0 83.391178,67.706944 11.372821,11.372821 0 0 0 94.764123,79.079893 11.372821,11.372821 0 0 0 106.13708,67.706944 11.372821,11.372821 0 0 0 94.764123,56.334511 Z m 0.83975,4.831747 a 6.6007924,6.6007924 0 0 1 3.19153,1.321883 l -0.89917,0.89917 c -0.11899,0.118995 -0.11899,0.310438 0,0.429431 l 0.7581,0.758093 c 0.11899,0.118995 0.31095,0.118996 0.42994,0 l 0.89866,-0.898653 a 6.6007924,6.6007924 0 0 1 1.321877,3.19102 h -1.27124 c -0.168277,0 -0.303337,0.135573 -0.303337,0.303857 v 1.072286 c 0,0.168283 0.13506,0.303341 0.303337,0.303341 h 1.27744 a 6.6007924,6.6007924 0 0 1 -1.323947,3.19567 l -0.90279,-0.902787 c -0.11899,-0.118994 -0.31043,-0.118995 -0.42943,0 l -0.75861,0.75861 c -0.11899,0.118995 -0.11899,0.309921 0,0.428915 l 0.90331,0.902787 a 6.6007924,6.6007924 0 0 1 -3.19567,1.32395 v -1.276925 c 0,-0.168281 -0.13558,-0.303857 -0.30386,-0.303857 h -1.071771 c -0.168281,0 -0.303857,0.135576 -0.303857,0.303857 v 1.270724 a 6.6007924,6.6007924 0 0 1 -3.19102,-1.321883 l 0.898137,-0.898653 c 0.118994,-0.118993 0.118995,-0.310438 0,-0.429432 l -0.757577,-0.758093 c -0.118993,-0.118994 -0.310955,-0.118994 -0.429948,0 l -0.898653,0.898653 a 6.6007924,6.6007924 0 0 1 -1.321883,-3.191536 h 1.27124 c 0.168285,0 0.303858,-0.135058 0.303858,-0.303341 v -1.072286 c 0,-0.168284 -0.135573,-0.303857 -0.303858,-0.303857 h -1.270723 a 6.6007924,6.6007924 0 0 1 1.321883,-3.19102 l 0.898653,0.898653 c 0.118995,0.118996 0.310437,0.119511 0.429431,5.17e-4 l 0.758094,-0.75861 c 0.118994,-0.118994 0.118995,-0.310436 0,-0.429431 l -0.898654,-0.898653 a 6.6007924,6.6007924 0 0 1 3.19102,-1.321883 v 1.270723 c 0,0.168285 0.135576,0.303858 0.303857,0.303858 h 1.071771 c 0.16828,0 0.30386,-0.135573 0.30386,-0.303858 z" />
  <path
     style="color:#000000;display:inline;fill:url(#linearGradient85143);stroke-linecap:round;stroke-linejoin:round;paint-order:stroke fill markers"
     d="m 13.568359,105.58789 c -2.825149,0 -5.1035152,2.27836 -5.1035152,5.10352 v 47.21093 H 7.1542969 c -0.067966,-2e-5 -0.1230669,0.0551 -0.1230469,0.12305 v 18.24609 c -9.959e-4,0.0764 0.067153,0.13521 0.1425781,0.12305 l 1.2910157,-0.20312 v 2.99023 c 0,2.82515 2.2783662,5.10352 5.1035152,5.10352 H 136.20703 c 2.82516,0 5.10352,-2.27837 5.10352,-5.10352 v -2.99023 l 1.29101,0.20312 c 0.0754,0.0122 0.14358,-0.0467 0.14258,-0.12305 v -18.24609 c 2e-5,-0.068 -0.0551,-0.12307 -0.12305,-0.12305 h -1.31054 v -47.21093 c 0,-2.82516 -2.27836,-5.10352 -5.10352,-5.10352 z m 0,0.24609 H 136.20703 c 2.69312,0 4.85742,2.16431 4.85742,4.85743 v 47.33398 c -2e-5,0.068 0.0551,0.12307 0.12305,0.12305 h 1.31055 v 17.98047 l -1.29102,-0.20118 c -0.0746,-0.012 -0.14237,0.0455 -0.14258,0.1211 v 3.13281 c 0,2.69311 -2.1643,4.85742 -4.85742,4.85742 H 13.568359 c -2.693107,0 -4.8574215,-2.16431 -4.8574215,-4.85742 v -3.13281 c -3.924e-4,-0.0747 -0.066707,-0.13179 -0.140625,-0.1211 l -1.2929688,0.20118 v -17.98047 h 1.3105469 c 0.067966,2e-5 0.1230669,-0.0551 0.1230469,-0.12305 v -47.33398 c 0,-2.69312 2.1643145,-4.85743 4.8574215,-4.85743 z m 46.205078,29.53907 c -1.604607,0 -2.90039,1.29578 -2.90039,2.90039 v 13.38086 c 0,1.60461 1.295783,2.90039 2.90039,2.90039 h 30.228516 c 1.604611,0 2.900391,-1.29578 2.900391,-2.90039 v -13.38086 c 0,-1.60461 -1.29578,-2.90039 -2.900391,-2.90039 z m 0,0.24609 h 30.228516 c 1.472599,0 2.654297,1.18171 2.654297,2.6543 v 13.38086 c 0,1.4726 -1.181698,2.65429 -2.654297,2.65429 H 59.773437 c -1.472595,0 -2.654296,-1.18169 -2.654296,-2.65429 v -13.38086 c 0,-1.47259 1.181701,-2.6543 2.654296,-2.6543 z m -11.916015,1.23438 c -4.462378,1e-4 -8.08222,3.61965 -8.082031,8.08203 1e-4,4.46218 3.619856,8.08193 8.082031,8.08203 4.462379,1.8e-4 8.081931,-3.61965 8.082031,-8.08203 1.89e-4,-4.46259 -3.619448,-8.08223 -8.082031,-8.08203 z m 54.062498,0 c -4.462582,-2e-4 -8.08417,3.61944 -8.083983,8.08203 1.01e-4,4.46238 3.621605,8.08221 8.083983,8.08203 4.46218,-1e-4 8.08193,-3.61985 8.08203,-8.08203 2e-4,-4.46238 -3.61965,-8.08193 -8.08203,-8.08203 z m -54.062498,0.24609 c 4.329626,-1.9e-4 7.836121,3.50631 7.835937,7.83594 -9.7e-5,4.32943 -3.506509,7.83806 -7.835937,7.83789 -4.329229,-1e-4 -7.83584,-3.50866 -7.835938,-7.83789 -1.83e-4,-4.32943 3.506511,-7.83584 7.835938,-7.83594 z m 54.062498,0 c 4.32943,10e-5 7.83613,3.50651 7.83594,7.83594 -1e-4,4.32923 -3.50671,7.83779 -7.83594,7.83789 -4.329427,1.7e-4 -7.837791,-3.50846 -7.837889,-7.83789 -1.82e-4,-4.32963 3.508264,-7.83613 7.837889,-7.83594 z m -48.335936,37.45703 c -1.235477,0 -2.240234,1.00476 -2.240234,2.24023 0,1.23548 1.004757,2.24024 2.240234,2.24024 1.235477,0 2.238282,-1.00476 2.238282,-2.24024 0,-1.23547 -1.002805,-2.24023 -2.238282,-2.24023 z m 42.609375,0 c -1.235477,0 -2.240234,1.00476 -2.240234,2.24023 0,1.23548 1.004757,2.24024 2.240234,2.24024 1.235477,0 2.238282,-1.00476 2.238282,-2.24024 0,-1.23547 -1.002805,-2.24023 -2.238282,-2.24023 z m -42.609375,0.24609 c 1.102527,0 1.994141,0.89162 1.994141,1.99414 0,1.10253 -0.891614,1.99415 -1.994141,1.99415 -1.102526,0 -1.99414,-0.89162 -1.99414,-1.99415 0,-1.10252 0.891614,-1.99414 1.99414,-1.99414 z m 42.609375,0 c 1.102527,0 1.992188,0.89162 1.992188,1.99414 0,1.10253 -0.889661,1.99415 -1.992188,1.99415 -1.102526,0 -1.99414,-0.89162 -1.99414,-1.99415 0,-1.10252 0.891614,-1.99414 1.99414,-1.99414 z m -51.605468,3.41602 c -1.235477,0 -2.240235,1.0028 -2.240235,2.23828 0,1.23548 1.004758,2.24024 2.240235,2.24024 1.235477,0 2.240234,-1.00476 2.240234,-2.24024 0,-1.23548 -1.004758,-2.23828 -2.240234,-2.23828 z m 60.601559,0 c -1.23548,0 -2.24023,1.0028 -2.24023,2.23828 0,1.23547 1.00475,2.24024 2.24023,2.24024 1.23548,0 2.23828,-1.00476 2.23828,-2.24024 0,-1.23548 -1.0028,-2.23828 -2.23828,-2.23828 z m -60.601559,0.24609 c 1.102527,0 1.99414,0.88966 1.99414,1.99219 0,1.10253 -0.891614,1.99414 -1.99414,1.99414 -1.102526,0 -1.994141,-0.89161 -1.994141,-1.99414 0,-1.10253 0.891613,-1.99219 1.994141,-1.99219 z m 60.601559,0 c 1.10253,0 1.99219,0.88966 1.99219,1.99219 0,1.10252 -0.88966,1.99414 -1.99219,1.99414 -1.10253,0 -1.99414,-0.89161 -1.99414,-1.99414 0,-1.10253 0.89161,-1.99219 1.99414,-1.99219 z"
     id="path85147"
     clip-path="url(#clipPath85879)"
     transform="translate(-7.1548285,-77.228863)"
     sodipodi:nodetypes="ssccccccssssccccccssssssccccccssssccccccssssssssssssssssssssccccccccccccccccccccssssssssssssssssssssssssssssssssssssssss" />
  <path
     id="rect4404"
     style="display:inline;fill:url(#linearGradient83651);fill-opacity:1;stroke:url(#linearGradient4898);stroke-width:0.493;stroke-linecap:round;stroke-linejoin:round;stroke-dasharray:none;paint-order:stroke fill markers"
     d="m 26.793713,88.674139 -5.291666,18.433501 h 92.462573 l -5.29167,-18.433501 z m 19.634978,8.777242 a 2.1166666,2.1166666 0 0 1 2.116666,2.116667 2.1166666,2.1166666 0 0 1 -2.116666,2.116672 2.1166666,2.1166666 0 0 1 -2.116667,-2.116672 2.1166666,2.1166666 0 0 1 2.116667,-2.116667 z m 42.609285,0 a 2.1166666,2.1166666 0 0 1 2.116667,2.116667 2.1166666,2.1166666 0 0 1 -2.116667,2.116672 2.1166666,2.1166666 0 0 1 -2.116667,-2.116672 2.1166666,2.1166666 0 0 1 2.116667,-2.116667 z m -51.605119,3.660759 a 2.1166666,2.1166666 0 0 1 2.116667,2.11667 2.1166666,2.1166666 0 0 1 -2.116667,2.11666 2.1166666,2.1166666 0 0 1 -2.116666,-2.11666 2.1166666,2.1166666 0 0 1 2.116666,-2.11667 z m 60.600952,0 a 2.1166666,2.1166666 0 0 1 2.116671,2.11667 2.1166666,2.1166666 0 0 1 -2.116671,2.11666 2.1166666,2.1166666 0 0 1 -2.116666,-2.11666 2.1166666,2.1166666 0 0 1 2.116666,-2.11667 z" />
  <path
     id="rect60474"
     style="fill:#e9ddaf;fill-opacity:1;stroke:none;stroke-width:0.233611;stroke-linecap:round;stroke-linejoin:round;stroke-dasharray:none;stroke-opacity:1;paint-order:stroke fill markers"
     d="m 8.8924805,33.289923 c -1.5386077,0 -2.7770915,1.238484 -2.7770915,2.777092 v 13.163537 34.874357 0.17725 c 0,1.27772 1.0285996,2.30632 2.3063192,2.30632 h 0.1167887 c 0.02135,5.36e-4 0.042079,0.0031 0.063562,0.0031 h 97.8188311 20.44372 0.1819 c 1.27677,0 2.30477,-1.027481 2.30477,-2.304252 V 84.104909 49.230552 36.067015 c 0,-1.538608 -1.23849,-2.777092 -2.77709,-2.777092 z M 31.350024,57.299311 H 104.11613 V 78.247734 H 31.350024 Z"
     sodipodi:nodetypes="ssccsscsccssccsssccccc" />
  <rect
     style="fill:#1a1a1a;fill-opacity:1;stroke:none;stroke-width:0.237645;stroke-linecap:round;stroke-linejoin:round;stroke-dasharray:none;stroke-opacity:1;paint-order:stroke fill markers"
     id="rect62110"
     width="120.39204"
     height="0.75"
     x="7.5373168"
     y="52.054588"
     ry="0.375" />
  <rect
     style="opacity:0.1;fill:url(#linearGradient87670);fill-opacity:1;stroke:url(#linearGradient89967);stroke-width:0.127;stroke-linecap:round;stroke-linejoin:round;stroke-dasharray:none;stroke-opacity:1;paint-order:stroke fill markers"
     id="rect86314"
     width="1.3105469"
     height="17.778019"
     x="0.1225152"
     y="80.919579" />
  <rect
     style="opacity:0.1;fill:url(#linearGradient89157);fill-opacity:1;stroke:url(#linearGradient90703);stroke-width:0.127;stroke-linecap:round;stroke-linejoin:round;stroke-dasharray:none;stroke-opacity:1;paint-order:stroke fill markers"
     id="rect86314-3"
     width="1.3105469"
     height="17.778019"
     x="134.03267"
     y="80.919579" />
  <rect
     style="fill:#c83737;stroke:none;stroke-width:1.05833;stroke-linecap:round;stroke-linejoin:round;stroke-miterlimit:12;paint-order:markers stroke fill"
     id="rect18"
     width="25.234634"
     height="4.4694381"
     x="6.1147528"
     y="59.002525" />
  <rect
     style="fill:#c89337;stroke:none;stroke-width:1.05833;stroke-linecap:round;stroke-linejoin:round;stroke-miterlimit:12;paint-order:markers stroke fill;fill-opacity:1"
     id="rect19"
     width="25.234634"
     height="4.4694381"
     x="6.1147528"
     y="63.471962" />
  <rect
     style="fill:#71c837;stroke:none;stroke-width:1.05833;stroke-linecap:round;stroke-linejoin:round;stroke-miterlimit:12;paint-order:markers stroke fill"
     id="rect20"
     width="25.234634"
     height="4.4694381"
     x="6.1147528"
     y="67.941406" />
  <rect
     style="fill:#37c8ab;stroke:none;stroke-width:1.05833;stroke-linecap:round;stroke-linejoin:round;stroke-miterlimit:12;paint-order:markers stroke fill"
     id="rect21"
     width="25.234634"
     height="4.4694381"
     x="6.1147528"
     y="72.410851" />
  <rect
     style="fill:#c83737;stroke:none;stroke-width:1.05833;stroke-linecap:round;stroke-linejoin:round;stroke-miterlimit:12;paint-order:markers stroke fill"
     id="rect22"
     width="25.234634"
     height="4.4694381"
     x="104.11665"
     y="59.002525" />
  <rect
     style="fill:#c89337;stroke:none;stroke-width:1.05833;stroke-linecap:round;stroke-linejoin:round;stroke-miterlimit:12;paint-order:markers stroke fill;fill-opacity:1"
     id="rect23"
     width="25.234634"
     height="4.4694381"
     x="104.11665"
     y="63.471962" />
  <rect
     style="fill:#71c837;stroke:none;stroke-width:1.05833;stroke-linecap:round;stroke-linejoin:round;stroke-miterlimit:12;paint-order:markers stroke fill"
     id="rect24"
     width="25.234634"
     height="4.4694381"
     x="104.11665"
     y="67.941406" />
  <rect
     style="fill:#37c8ab;stroke:none;stroke-width:1.05833;stroke-linecap:round;stroke-linejoin:round;stroke-miterlimit:12;paint-order:markers stroke fill"
     id="rect25"
     width="25.234634"
     height="4.4694381"
     x="104.11665"
     y="72.410851" />
</g>
<metadata
   id="metadata1">
  <rdf:RDF>
    <cc:Work
       rdf:about="">
      <dc:creator>
        <cc:Agent>
          <dc:title>Jess Tipton</dc:title>
        </cc:Agent>
      </dc:creator>
      <dc:publisher>
        <cc:Agent>
          <dc:title>m0dw3rks.com</dc:title>
        </cc:Agent>
      </dc:publisher>
      <cc:license
         rdf:resource="https://creativecommons.org/licenses/by-nc-nd/4.0/deed.en" />
    </cc:Work>
  </rdf:RDF>
</metadata>
<metadata
   id="metadata6">
  <rdf:RDF>
    <cc:Work
       rdf:about="">
      <dc:creator>
        <cc:Agent>
          <dc:title>Jess Tipton</dc:title>
        </cc:Agent>
      </dc:creator>
      <cc:license
         rdf:resource="https://creativecommons.org/licenses/by-nc-nd/4.0/deed.en" />
      <dc:publisher>
        <cc:Agent>
          <dc:title>m0dw3rks.com</dc:title>
        </cc:Agent>
      </dc:publisher>
    </cc:Work>
  </rdf:RDF>
</metadata>
<metadata
   id="metadata2">
  <rdf:RDF>
    <cc:Work
       rdf:about="">
      <dc:creator>
        <cc:Agent>
          <dc:title>Jess Tipton</dc:title>
        </cc:Agent>
      </dc:creator>
      <cc:license
         rdf:resource="https://creativecommons.org/licenses/by-nc-nd/4.0/deed.en" />
      <dc:publisher>
        <cc:Agent>
          <dc:title>m0dw3rks.com</dc:title>
        </cc:Agent>
      </dc:publisher>
    </cc:Work>
  </rdf:RDF>
</metadata>
<metadata
   id="metadata3">
  <rdf:RDF>
    <cc:Work
       rdf:about="">
      <dc:creator>
        <cc:Agent>
          <dc:title>Jess Tipton</dc:title>
        </cc:Agent>
      </dc:creator>
      <cc:license
         rdf:resource="https://creativecommons.org/licenses/by-nc-nd/4.0/deed.en" />
      <dc:publisher>
        <cc:Agent>
          <dc:title>m0dw3rks.com</dc:title>
        </cc:Agent>
      </dc:publisher>
    </cc:Work>
  </rdf:RDF>
</metadata>
<metadata
   id="metadata4">
  <rdf:RDF>
    <cc:Work
       rdf:about="">
      <dc:creator>
        <cc:Agent>
          <dc:title>Jess Tipton</dc:title>
        </cc:Agent>
      </dc:creator>
      <cc:license
         rdf:resource="https://creativecommons.org/licenses/by-nc-nd/4.0/deed.en" />
      <dc:publisher>
        <cc:Agent>
          <dc:title>m0dw3rks.com</dc:title>
        </cc:Agent>
      </dc:publisher>
    </cc:Work>
  </rdf:RDF>
</metadata>
<metadata
   id="metadata5">
  <rdf:RDF>
    <cc:Work
       rdf:about="">
      <dc:creator>
        <cc:Agent>
          <dc:title>Jess Tipton</dc:title>
        </cc:Agent>
      </dc:creator>
      <cc:license
         rdf:resource="https://creativecommons.org/licenses/by-nc-nd/4.0/deed.en" />
      <dc:publisher>
        <cc:Agent>
          <dc:title>m0dw3rks.com</dc:title>
        </cc:Agent>
      </dc:publisher>
    </cc:Work>
  </rdf:RDF>
</metadata>
<metadata
   id="metadata7">
  <rdf:RDF>
    <cc:Work
       rdf:about="">
      <dc:creator>
        <cc:Agent>
          <dc:title>Jess Tipton</dc:title>
        </cc:Agent>
      </dc:creator>
      <cc:license
         rdf:resource="https://creativecommons.org/licenses/by-nc-nd/4.0/deed.en" />
      <dc:publisher>
        <cc:Agent>
          <dc:title>m0dw3rks.com</dc:title>
        </cc:Agent>
      </dc:publisher>
    </cc:Work>
  </rdf:RDF>
</metadata>
<metadata
   id="metadata8">
  <rdf:RDF>
    <cc:Work
       rdf:about="">
      <dc:creator>
        <cc:Agent>
          <dc:title>Jess Tipton</dc:title>
        </cc:Agent>
      </dc:creator>
      <cc:license
         rdf:resource="https://creativecommons.org/licenses/by-nc-nd/4.0/deed.en" />
      <dc:publisher>
        <cc:Agent>
          <dc:title>m0dw3rks.com</dc:title>
        </cc:Agent>
      </dc:publisher>
    </cc:Work>
  </rdf:RDF>
</metadata>
<metadata
   id="metadata9">
  <rdf:RDF>
    <cc:Work
       rdf:about="">
      <dc:creator>
        <cc:Agent>
          <dc:title>Jess Tipton</dc:title>
        </cc:Agent>
      </dc:creator>
      <cc:license
         rdf:resource="https://creativecommons.org/licenses/by-nc-nd/4.0/deed.en" />
      <dc:publisher>
        <cc:Agent>
          <dc:title>m0dw3rks.com</dc:title>
        </cc:Agent>
      </dc:publisher>
    </cc:Work>
  </rdf:RDF>
</metadata>
<metadata
   id="metadata10">
  <rdf:RDF>
    <cc:Work
       rdf:about="">
      <dc:creator>
        <cc:Agent>
          <dc:title>Jess Tipton</dc:title>
        </cc:Agent>
      </dc:creator>
      <cc:license
         rdf:resource="https://creativecommons.org/licenses/by-nc-nd/4.0/deed.en" />
      <dc:publisher>
        <cc:Agent>
          <dc:title>m0dw3rks.com</dc:title>
        </cc:Agent>
      </dc:publisher>
    </cc:Work>
  </rdf:RDF>
</metadata>
<metadata
   id="metadata11">
  <rdf:RDF>
    <cc:Work
       rdf:about="">
      <dc:creator>
        <cc:Agent>
          <dc:title>Jess Tipton</dc:title>
        </cc:Agent>
      </dc:creator>
      <cc:license
         rdf:resource="https://creativecommons.org/licenses/by-nc-nd/4.0/deed.en" />
      <dc:publisher>
        <cc:Agent>
          <dc:title>m0dw3rks.com</dc:title>
        </cc:Agent>
      </dc:publisher>
    </cc:Work>
  </rdf:RDF>
</metadata>
<metadata
   id="metadata12">
  <rdf:RDF>
    <cc:Work
       rdf:about="">
      <dc:creator>
        <cc:Agent>
          <dc:title>Jess Tipton</dc:title>
        </cc:Agent>
      </dc:creator>
      <cc:license
         rdf:resource="https://creativecommons.org/licenses/by-nc-nd/4.0/deed.en" />
      <dc:publisher>
        <cc:Agent>
          <dc:title>m0dw3rks.com</dc:title>
        </cc:Agent>
      </dc:publisher>
    </cc:Work>
  </rdf:RDF>
</metadata>
<metadata
   id="metadata13">
  <rdf:RDF>
    <cc:Work
       rdf:about="">
      <dc:creator>
        <cc:Agent>
          <dc:title>Jess Tipton</dc:title>
        </cc:Agent>
      </dc:creator>
      <cc:license
         rdf:resource="https://creativecommons.org/licenses/by-nc-nd/4.0/deed.en" />
      <dc:publisher>
        <cc:Agent>
          <dc:title>m0dw3rks.com</dc:title>
        </cc:Agent>
      </dc:publisher>
    </cc:Work>
  </rdf:RDF>
</metadata>
<metadata
   id="metadata14">
  <rdf:RDF>
    <cc:Work
       rdf:about="">
      <dc:creator>
        <cc:Agent>
          <dc:title>Jess Tipton</dc:title>
        </cc:Agent>
      </dc:creator>
      <cc:license
         rdf:resource="https://creativecommons.org/licenses/by-nc-nd/4.0/deed.en" />
      <dc:publisher>
        <cc:Agent>
          <dc:title>m0dw3rks.com</dc:title>
        </cc:Agent>
      </dc:publisher>
    </cc:Work>
  </rdf:RDF>
</metadata>
<metadata
   id="metadata15">
  <rdf:RDF>
    <cc:Work
       rdf:about="">
      <dc:creator>
        <cc:Agent>
          <dc:title>Jess Tipton</dc:title>
        </cc:Agent>
      </dc:creator>
      <cc:license
         rdf:resource="https://creativecommons.org/licenses/by-nc-nd/4.0/deed.en" />
      <dc:publisher>
        <cc:Agent>
          <dc:title>m0dw3rks.com</dc:title>
        </cc:Agent>
      </dc:publisher>
    </cc:Work>
  </rdf:RDF>
</metadata>
<metadata
   id="metadata16">
  <rdf:RDF>
    <cc:Work
       rdf:about="">
      <dc:creator>
        <cc:Agent>
          <dc:title>Jess Tipton</dc:title>
        </cc:Agent>
      </dc:creator>
      <cc:license
         rdf:resource="https://creativecommons.org/licenses/by-nc-nd/4.0/deed.en" />
      <dc:publisher>
        <cc:Agent>
          <dc:title>m0dw3rks.com</dc:title>
        </cc:Agent>
      </dc:publisher>
    </cc:Work>
  </rdf:RDF>
</metadata>
<metadata
   id="metadata17">
  <rdf:RDF>
    <cc:Work
       rdf:about="">
      <dc:creator>
        <cc:Agent>
          <dc:title>Jess Tipton</dc:title>
        </cc:Agent>
      </dc:creator>
      <cc:license
         rdf:resource="https://creativecommons.org/licenses/by-nc-nd/4.0/deed.en" />
      <dc:publisher>
        <cc:Agent>
          <dc:title>m0dw3rks.com</dc:title>
        </cc:Agent>
      </dc:publisher>
    </cc:Work>
  </rdf:RDF>
</metadata>
<metadata
   id="metadata18">
  <rdf:RDF>
    <cc:Work
       rdf:about="">
      <dc:creator>
        <cc:Agent>
          <dc:title>Jess Tipton</dc:title>
        </cc:Agent>
      </dc:creator>
      <cc:license
         rdf:resource="https://creativecommons.org/licenses/by-nc-nd/4.0/deed.en" />
      <dc:publisher>
        <cc:Agent>
          <dc:title>m0dw3rks.com</dc:title>
        </cc:Agent>
      </dc:publisher>
    </cc:Work>
  </rdf:RDF>
</metadata>
</svg>
