<?xml version="1.0" encoding="UTF-8" standalone="no"?>
<!-- Created with Inkscape (http://www.inkscape.org/) -->

<svg
   width="512"
   height="512"
   viewBox="0 0 135.46666 135.46667"
   version="1.1"
   id="svg5"
   inkscape:version="1.4.2 (ebf0e940d0, 2025-05-08)"
   sodipodi:docname="media-memory.svg"
   xmlns:inkscape="http://www.inkscape.org/namespaces/inkscape"
   xmlns:sodipodi="http://sodipodi.sourceforge.net/DTD/sodipodi-0.dtd"
   xmlns:xlink="http://www.w3.org/1999/xlink"
   xmlns="http://www.w3.org/2000/svg"
   xmlns:svg="http://www.w3.org/2000/svg">
  <sodipodi:namedview
     id="namedview7"
     pagecolor="#242424"
     bordercolor="#666666"
     borderopacity="1"
     inkscape:showpageshadow="0"
     inkscape:pageopacity="0"
     inkscape:pagecheckerboard="1"
     inkscape:deskcolor="#000000"
     inkscape:document-units="px"
     showgrid="false"
     inkscape:zoom="1.3037281"
     inkscape:cx="346.31453"
     inkscape:cy="319.46845"
     inkscape:window-width="3256"
     inkscape:window-height="1080"
     inkscape:window-x="1864"
     inkscape:window-y="0"
     inkscape:window-maximized="0"
     inkscape:current-layer="layer1" />
  <defs
     id="defs2">
    <linearGradient
       id="linearGradient14"
       inkscape:collect="always">
      <stop
         style="stop-color:#4d4d4d;stop-opacity:1;"
         offset="0"
         id="stop14" />
      <stop
         style="stop-color:#333333;stop-opacity:1;"
         offset="1"
         id="stop15" />
    </linearGradient>
    <rect
       x="0"
       y="0"
       width="512"
       height="512"
       id="rect6" />
    <rect
       x="0"
       y="0"
       width="512"
       height="512"
       id="rect5" />
    <rect
       x="0"
       y="0"
       width="512"
       height="512"
       id="rect4" />
    <rect
       x="159.15117"
       y="86.956421"
       width="41.526798"
       height="94.196122"
       id="rect3" />
    <rect
       x="93.288136"
       y="58.576273"
       width="58.576242"
       height="275.52542"
       id="rect2" />
    <linearGradient
       inkscape:collect="always"
       xlink:href="#linearGradient14"
       id="linearGradient15"
       x1="22.949503"
       y1="13.192119"
       x2="80.767159"
       y2="122.27454"
       gradientUnits="userSpaceOnUse" />
    <rect
       x="0"
       y="0"
       width="512"
       height="512"
       id="rect15" />
  </defs>
  <g
     inkscape:label="Layer 1"
     inkscape:groupmode="layer"
     id="layer1">
    <path
       id="rect8"
       style="opacity:1;fill:#f2f2f2;fill-opacity:1;stroke:#000000;stroke-width:3.70417;stroke-linecap:round;stroke-linejoin:round;stroke-miterlimit:12;stroke-opacity:1;paint-order:markers stroke fill"
       d="M 20.108333 2.1166666 C 18.534303 2.1166666 17.267163 3.3838069 17.267163 4.9578369 L 17.267163 17.267163 L 4.9578369 17.267163 C 3.3838069 17.267163 2.1166666 18.534302 2.1166666 20.108333 C 2.1166666 21.682364 3.3838069 22.949503 4.9578369 22.949503 L 18.961116 22.949503 C 20.04554 22.949503 20.972835 22.340803 21.45192 21.45192 C 22.340803 20.972835 22.949503 20.04554 22.949503 18.961116 L 22.949503 4.9578369 C 22.949503 3.3838069 21.682363 2.1166666 20.108333 2.1166666 z M 35.983333 2.1166666 C 34.409305 2.1166666 33.142163 3.3838069 33.142163 4.9578369 L 33.142163 18.961116 C 33.142163 20.535146 34.409305 21.802287 35.983333 21.802287 C 37.557364 21.802287 38.824503 20.535146 38.824503 18.961116 L 38.824503 4.9578369 C 38.824503 3.3838069 37.557364 2.1166666 35.983333 2.1166666 z M 51.858333 2.1166666 C 50.284302 2.1166666 49.017162 3.3838069 49.017162 4.9578369 L 49.017162 18.961116 C 49.017162 20.535146 50.284302 21.802287 51.858333 21.802287 C 53.432363 21.802287 54.699503 20.535146 54.699503 18.961116 L 54.699503 4.9578369 C 54.699503 3.3838069 53.432363 2.1166666 51.858333 2.1166666 z M 67.733332 2.1166666 C 66.159302 2.1166666 64.892162 3.3838069 64.892162 4.9578369 L 64.892162 18.961116 C 64.892162 20.535146 66.159302 21.802287 67.733332 21.802287 C 69.307363 21.802287 70.574503 20.535146 70.574503 18.961116 L 70.574503 4.9578369 C 70.574503 3.3838069 69.307363 2.1166666 67.733332 2.1166666 z M 83.608332 2.1166666 C 82.034301 2.1166666 80.767162 3.3838069 80.767162 4.9578369 L 80.767162 18.961116 C 80.767162 20.535146 82.034301 21.802287 83.608332 21.802287 C 85.182363 21.802287 86.449503 20.535146 86.449503 18.961116 L 86.449503 4.9578369 C 86.449503 3.3838069 85.182363 2.1166666 83.608332 2.1166666 z M 99.483332 2.1166666 C 97.909301 2.1166666 96.642162 3.3838069 96.642162 4.9578369 L 96.642162 18.961116 C 96.642162 20.535146 97.909301 21.802287 99.483332 21.802287 C 101.05736 21.802287 102.3245 20.535146 102.3245 18.961116 L 102.3245 4.9578369 C 102.3245 3.3838069 101.05736 2.1166666 99.483332 2.1166666 z M 115.35833 2.1166666 C 113.7843 2.1166666 112.51716 3.3838069 112.51716 4.9578369 L 112.51716 18.961116 C 112.51716 20.04554 113.12586 20.972835 114.01474 21.45192 C 114.49383 22.340803 115.42113 22.949503 116.50555 22.949503 L 130.50883 22.949503 C 132.08286 22.949503 133.35 21.682364 133.35 20.108333 C 133.35 18.534302 132.08286 17.267163 130.50883 17.267163 L 118.1995 17.267163 L 118.1995 4.9578369 C 118.1995 3.3838069 116.93236 2.1166666 115.35833 2.1166666 z M 4.9578369 33.142163 C 3.3838069 33.142163 2.1166666 34.409302 2.1166666 35.983333 C 2.1166666 37.557364 3.3838069 38.824503 4.9578369 38.824503 L 18.961116 38.824503 C 20.535146 38.824503 21.802287 37.557364 21.802287 35.983333 C 21.802287 34.409302 20.535146 33.142163 18.961116 33.142163 L 4.9578369 33.142163 z M 116.50555 33.142163 C 114.93152 33.142163 113.66438 34.409302 113.66438 35.983333 C 113.66438 37.557364 114.93152 38.824503 116.50555 38.824503 L 130.50883 38.824503 C 132.08286 38.824503 133.35 37.557364 133.35 35.983333 C 133.35 34.409302 132.08286 33.142163 130.50883 33.142163 L 116.50555 33.142163 z M 4.9578369 49.017162 C 3.3838069 49.017162 2.1166666 50.284302 2.1166666 51.858333 C 2.1166666 53.432364 3.3838069 54.699503 4.9578369 54.699503 L 18.961116 54.699503 C 20.535146 54.699503 21.802287 53.432364 21.802287 51.858333 C 21.802287 50.284302 20.535146 49.017162 18.961116 49.017162 L 4.9578369 49.017162 z M 116.50555 49.017162 C 114.93152 49.017162 113.66438 50.284302 113.66438 51.858333 C 113.66438 53.432364 114.93152 54.699503 116.50555 54.699503 L 130.50883 54.699503 C 132.08286 54.699503 133.35 53.432364 133.35 51.858333 C 133.35 50.284302 132.08286 49.017162 130.50883 49.017162 L 116.50555 49.017162 z M 4.9578369 64.892162 C 3.3838069 64.892162 2.1166666 66.159301 2.1166666 67.733332 C 2.1166666 69.307362 3.3838069 70.574503 4.9578369 70.574503 L 18.961116 70.574503 C 20.535146 70.574503 21.802287 69.307362 21.802287 67.733332 C 21.802287 66.159301 20.535146 64.892162 18.961116 64.892162 L 4.9578369 64.892162 z M 116.50555 64.892162 C 114.93152 64.892162 113.66438 66.159301 113.66438 67.733332 C 113.66438 69.307362 114.93152 70.574503 116.50555 70.574503 L 130.50883 70.574503 C 132.08286 70.574503 133.35 69.307362 133.35 67.733332 C 133.35 66.159301 132.08286 64.892162 130.50883 64.892162 L 116.50555 64.892162 z M 4.9578369 80.767162 C 3.3838069 80.767162 2.1166666 82.034302 2.1166666 83.608332 C 2.1166666 85.182363 3.3838069 86.449503 4.9578369 86.449503 L 18.961116 86.449503 C 20.535146 86.449503 21.802287 85.182363 21.802287 83.608332 C 21.802287 82.034302 20.535146 80.767162 18.961116 80.767162 L 4.9578369 80.767162 z M 116.50555 80.767162 C 114.93152 80.767162 113.66438 82.034302 113.66438 83.608332 C 113.66438 85.182363 114.93152 86.449503 116.50555 86.449503 L 130.50883 86.449503 C 132.08286 86.449503 133.35 85.182363 133.35 83.608332 C 133.35 82.034302 132.08286 80.767162 130.50883 80.767162 L 116.50555 80.767162 z M 4.9578369 96.642162 C 3.3838069 96.642162 2.1166666 97.909301 2.1166666 99.483332 C 2.1166666 101.05736 3.3838069 102.3245 4.9578369 102.3245 L 18.961116 102.3245 C 20.535146 102.3245 21.802287 101.05736 21.802287 99.483332 C 21.802287 97.909301 20.535146 96.642162 18.961116 96.642162 L 4.9578369 96.642162 z M 116.50555 96.642162 C 114.93152 96.642162 113.66438 97.909301 113.66438 99.483332 C 113.66438 101.05736 114.93152 102.3245 116.50555 102.3245 L 130.50883 102.3245 C 132.08286 102.3245 133.35 101.05736 133.35 99.483332 C 133.35 97.909301 132.08286 96.642162 130.50883 96.642162 L 116.50555 96.642162 z M 4.9578369 112.51716 C 3.3838069 112.51716 2.1166666 113.7843 2.1166666 115.35833 C 2.1166666 116.93236 3.3838069 118.1995 4.9578369 118.1995 L 17.267163 118.1995 L 17.267163 130.50883 C 17.267163 132.08286 18.534303 133.35 20.108333 133.35 C 21.682363 133.35 22.949503 132.08286 22.949503 130.50883 L 22.949503 116.50555 C 22.949503 115.42113 22.340803 114.49383 21.45192 114.01474 C 20.972835 113.12586 20.04554 112.51716 18.961116 112.51716 L 4.9578369 112.51716 z M 116.50555 112.51716 C 115.42113 112.51716 114.49383 113.12586 114.01474 114.01474 C 113.12586 114.49383 112.51716 115.42113 112.51716 116.50555 L 112.51716 130.50883 C 112.51716 132.08286 113.7843 133.35 115.35833 133.35 C 116.93236 133.35 118.1995 132.08286 118.1995 130.50883 L 118.1995 118.1995 L 130.50883 118.1995 C 132.08286 118.1995 133.35 116.93236 133.35 115.35833 C 133.35 113.7843 132.08286 112.51716 130.50883 112.51716 L 116.50555 112.51716 z M 35.983333 113.66438 C 34.409305 113.66438 33.142163 114.93152 33.142163 116.50555 L 33.142163 130.50883 C 33.142163 132.08286 34.409305 133.35 35.983333 133.35 C 37.557364 133.35 38.824503 132.08286 38.824503 130.50883 L 38.824503 116.50555 C 38.824503 114.93152 37.557364 113.66438 35.983333 113.66438 z M 51.858333 113.66438 C 50.284302 113.66438 49.017162 114.93152 49.017162 116.50555 L 49.017162 130.50883 C 49.017162 132.08286 50.284302 133.35 51.858333 133.35 C 53.432363 133.35 54.699503 132.08286 54.699503 130.50883 L 54.699503 116.50555 C 54.699503 114.93152 53.432363 113.66438 51.858333 113.66438 z M 67.733332 113.66438 C 66.159302 113.66438 64.892162 114.93152 64.892162 116.50555 L 64.892162 130.50883 C 64.892162 132.08286 66.159302 133.35 67.733332 133.35 C 69.307363 133.35 70.574503 132.08286 70.574503 130.50883 L 70.574503 116.50555 C 70.574503 114.93152 69.307363 113.66438 67.733332 113.66438 z M 83.608332 113.66438 C 82.034301 113.66438 80.767162 114.93152 80.767162 116.50555 L 80.767162 130.50883 C 80.767162 132.08286 82.034301 133.35 83.608332 133.35 C 85.182363 133.35 86.449503 132.08286 86.449503 130.50883 L 86.449503 116.50555 C 86.449503 114.93152 85.182363 113.66438 83.608332 113.66438 z M 99.483332 113.66438 C 97.909301 113.66438 96.642162 114.93152 96.642162 116.50555 L 96.642162 130.50883 C 96.642162 132.08286 97.909301 133.35 99.483332 133.35 C 101.05736 133.35 102.3245 132.08286 102.3245 130.50883 L 102.3245 116.50555 C 102.3245 114.93152 101.05736 113.66438 99.483332 113.66438 z " />
    <path
       id="path15"
       style="opacity:1;fill:#ababab;fill-opacity:1;stroke:none;stroke-width:3.70417;stroke-linecap:round;stroke-linejoin:round;stroke-miterlimit:12;stroke-opacity:1;paint-order:markers stroke fill"
       d="m 21.5098,2.4976321 c 0.23608,0.4146445 0.38137,0.8883137 0.38137,1.4014648 V 17.902376 c 0,1.084424 -0.6087,2.011719 -1.49758,2.490804 -0.47909,0.888883 -1.40637,1.497583 -2.4908,1.497583 H 3.89951 c -0.51299,0 -0.9864,-0.145432 -1.40095,-0.381372 0.48808,0.857182 1.39844,1.439706 2.45928,1.439706 h 14.00328 c 1.08443,0 2.01171,-0.6087 2.4908,-1.497583 0.88888,-0.479085 1.49759,-1.40638 1.49759,-2.490804 V 4.9574302 c 0,-1.0608789 -0.58248,-1.9717324 -1.43971,-2.4597981 z m 15.875,0 c 0.23608,0.4146445 0.38137,0.8883137 0.38137,1.4014648 V 17.902376 c 0,1.57403 -1.26714,2.841171 -2.84117,2.841171 -0.51298,0 -0.98639,-0.145433 -1.40094,-0.381373 0.48807,0.857183 1.39843,1.439706 2.45928,1.439706 1.57403,0 2.84117,-1.26714 2.84117,-2.84117 V 4.9574302 c 0,-1.0608789 -0.58248,-1.9717324 -1.43971,-2.4597981 z m 15.875,0 c 0.23608,0.4146445 0.38137,0.8883137 0.38137,1.4014648 V 17.902376 c 0,1.57403 -1.26714,2.841171 -2.84117,2.841171 -0.51298,0 -0.98639,-0.145433 -1.40094,-0.381373 0.48807,0.857183 1.39843,1.439706 2.45928,1.439706 1.57403,0 2.84117,-1.26714 2.84117,-2.84117 V 4.9574302 c 0,-1.0608789 -0.58248,-1.9717324 -1.43971,-2.4597981 z m 15.875,0 c 0.23608,0.4146445 0.38137,0.8883137 0.38137,1.4014648 V 17.902376 c 0,1.57403 -1.26714,2.841171 -2.84117,2.841171 -0.51298,0 -0.98639,-0.145433 -1.40094,-0.381373 0.48807,0.857183 1.39843,1.439706 2.45928,1.439706 1.57403,0 2.84117,-1.26714 2.84117,-2.84117 V 4.9574302 c 0,-1.0608789 -0.58248,-1.9717324 -1.43971,-2.4597981 z m 15.875,0 c 0.23608,0.4146445 0.38137,0.8883137 0.38137,1.4014648 V 17.902376 c 0,1.57403 -1.26714,2.841171 -2.84117,2.841171 -0.51299,0 -0.98639,-0.145433 -1.40095,-0.381373 0.48808,0.857183 1.39844,1.439706 2.45929,1.439706 1.57403,0 2.84117,-1.26714 2.84117,-2.84117 V 4.9574302 c 0,-1.0608789 -0.58248,-1.9717324 -1.43971,-2.4597981 z m 15.875,0 c 0.23608,0.4146445 0.38137,0.8883137 0.38137,1.4014648 V 17.902376 c 0,1.57403 -1.26714,2.841171 -2.84117,2.841171 -0.51299,0 -0.98639,-0.145433 -1.40095,-0.381373 0.48808,0.857183 1.39844,1.439706 2.45929,1.439706 1.57403,0 2.84117,-1.26714 2.84117,-2.84117 V 4.9574302 c 0,-1.0608789 -0.58248,-1.9717324 -1.43971,-2.4597981 z m 15.875,0 c 0.23608,0.4146445 0.38137,0.8883137 0.38137,1.4014648 V 16.208423 h 1.05834 V 4.9574302 c 0,-1.0608789 -0.58248,-1.9717324 -1.43971,-2.4597981 z m 15.1505,15.1504959 c 0.23608,0.414645 0.38137,0.888314 0.38137,1.401465 0,1.574031 -1.26714,2.84117 -2.84117,2.84117 h -14.00328 c -0.50951,0 -0.9786,-0.144118 -1.38855,-0.378788 0.48875,0.852948 1.38946,1.437122 2.44688,1.437122 h 14.00328 c 1.57403,0 2.84117,-1.26714 2.84117,-2.841171 0,-1.060879 -0.58247,-1.971732 -1.4397,-2.459798 z m -19.01435,2.701127 c 0.13313,0.232564 0.29275,0.446711 0.48421,0.632003 -0.16387,-0.177353 -0.30805,-0.373418 -0.42374,-0.588078 -0.0221,-0.01193 -0.0387,-0.03145 -0.0605,-0.04393 z m 0.5054,0.657325 c 0.008,0.0076 0.0172,0.01366 0.0253,0.02119 -0.008,-0.0079 -0.0178,-0.01318 -0.0253,-0.02119 z M 20.36259,33.523128 c 0.23607,0.414645 0.38137,0.888313 0.38137,1.401465 0,1.574031 -1.26714,2.84117 -2.84117,2.84117 H 3.89951 c -0.51299,0 -0.9864,-0.145432 -1.40095,-0.381372 0.48808,0.857182 1.39844,1.439705 2.45928,1.439705 h 14.00328 c 1.57403,0 2.84117,-1.267139 2.84117,-2.84117 0,-1.060879 -0.58248,-1.971733 -1.4397,-2.459798 z m 111.54771,0 c 0.23608,0.414645 0.38137,0.888313 0.38137,1.401465 0,1.574031 -1.26714,2.84117 -2.84117,2.84117 h -14.00328 c -0.51299,0 -0.98639,-0.145432 -1.40095,-0.381372 0.48808,0.857182 1.39844,1.439705 2.45928,1.439705 h 14.00328 c 1.57403,0 2.84117,-1.267139 2.84117,-2.84117 0,-1.060879 -0.58247,-1.971733 -1.4397,-2.459798 z m -111.54771,15.875 c 0.23607,0.414645 0.38137,0.888313 0.38137,1.401465 0,1.574031 -1.26714,2.84117 -2.84117,2.84117 H 3.89951 c -0.51299,0 -0.9864,-0.145432 -1.40095,-0.381372 0.48808,0.857182 1.39844,1.439705 2.45928,1.439705 h 14.00328 c 1.57403,0 2.84117,-1.267139 2.84117,-2.84117 0,-1.06088 -0.58248,-1.971732 -1.4397,-2.459798 z m 111.54771,0 c 0.23608,0.414645 0.38137,0.888313 0.38137,1.401465 0,1.574031 -1.26714,2.84117 -2.84117,2.84117 h -14.00328 c -0.51299,0 -0.98639,-0.145432 -1.40095,-0.381372 0.48808,0.857182 1.39844,1.439705 2.45928,1.439705 h 14.00328 c 1.57403,0 2.84117,-1.267139 2.84117,-2.84117 0,-1.06088 -0.58247,-1.971732 -1.4397,-2.459798 z m -111.54771,15.875 c 0.23607,0.414644 0.38137,0.888313 0.38137,1.401465 0,1.57403 -1.26714,2.84117 -2.84117,2.84117 H 3.89951 c -0.51299,0 -0.9864,-0.145432 -1.40095,-0.381372 0.48808,0.857182 1.39844,1.439705 2.45928,1.439705 h 14.00328 c 1.57403,0 2.84117,-1.26714 2.84117,-2.84117 0,-1.06088 -0.58248,-1.971733 -1.4397,-2.459798 z m 111.54771,0 c 0.23608,0.414644 0.38137,0.888313 0.38137,1.401465 0,1.57403 -1.26714,2.84117 -2.84117,2.84117 h -14.00328 c -0.51299,0 -0.98639,-0.145432 -1.40095,-0.381372 0.48808,0.857182 1.39844,1.439705 2.45928,1.439705 h 14.00328 c 1.57403,0 2.84117,-1.26714 2.84117,-2.84117 0,-1.06088 -0.58247,-1.971733 -1.4397,-2.459798 z m -111.54771,15.875 c 0.23607,0.414644 0.38137,0.888313 0.38137,1.401464 0,1.574031 -1.26714,2.841171 -2.84117,2.841171 H 3.89951 c -0.51299,0 -0.9864,-0.145433 -1.40095,-0.381373 0.48808,0.857183 1.39844,1.439706 2.45928,1.439706 h 14.00328 c 1.57403,0 2.84117,-1.267139 2.84117,-2.84117 0,-1.060879 -0.58248,-1.971733 -1.4397,-2.459798 z m 111.54771,0 c 0.23608,0.414644 0.38137,0.888313 0.38137,1.401464 0,1.574031 -1.26714,2.841171 -2.84117,2.841171 h -14.00328 c -0.51299,0 -0.98639,-0.145433 -1.40095,-0.381373 0.48808,0.857183 1.39844,1.439706 2.45928,1.439706 h 14.00328 c 1.57403,0 2.84117,-1.267139 2.84117,-2.84117 0,-1.060879 -0.58247,-1.971733 -1.4397,-2.459798 z M 20.36259,97.023127 c 0.23607,0.414645 0.38137,0.888314 0.38137,1.401465 0,1.574028 -1.26714,2.841168 -2.84117,2.841168 H 3.89951 c -0.51299,0 -0.9864,-0.14543 -1.40095,-0.38137 0.48808,0.85718 1.39844,1.43971 2.45928,1.43971 h 14.00328 c 1.57403,0 2.84117,-1.26715 2.84117,-2.841175 0,-1.060879 -0.58248,-1.971732 -1.4397,-2.459798 z m 111.54771,0 c 0.23608,0.414645 0.38137,0.888314 0.38137,1.401465 0,1.574028 -1.26714,2.841168 -2.84117,2.841168 h -14.00328 c -0.51299,0 -0.98639,-0.14543 -1.40095,-0.38137 0.48808,0.85718 1.39844,1.43971 2.45928,1.43971 h 14.00328 c 1.57403,0 2.84117,-1.26715 2.84117,-2.841175 0,-1.060879 -0.58247,-1.971732 -1.4397,-2.459798 z M 20.34967,112.89554 c 0.01247,0.0218 0.032,0.0383 0.04392,0.0605 0.21301,0.11481 0.40764,0.25837 0.58394,0.42065 -0.18443,-0.18989 -0.39681,-0.34884 -0.62786,-0.48111 z m 111.56063,0.003 c 0.23608,0.41464 0.38137,0.88831 0.38137,1.40146 0,1.57403 -1.26714,2.84117 -2.84117,2.84117 h -12.30933 v 12.30933 c 0,1.57403 -1.26714,2.84117 -2.84117,2.84117 -0.51299,0 -0.98639,-0.14543 -1.40095,-0.38137 0.48808,0.85718 1.39844,1.4397 2.45929,1.4397 1.57403,0 2.84117,-1.26714 2.84117,-2.84117 v -12.30932 h 12.30932 c 1.57403,0 2.84117,-1.26714 2.84117,-2.84117 0,-1.06088 -0.58247,-1.97174 -1.4397,-2.4598 z m -110.90176,0.50384 c 0.006,0.006 0.01002,0.0133 0.01602,0.0191 -0.0057,-0.006 -0.01027,-0.013 -0.01602,-0.0191 z m 16.37626,0.64337 c 0.23608,0.41465 0.38137,0.88832 0.38137,1.40147 v 14.00328 c 0,1.57403 -1.26714,2.84117 -2.84117,2.84117 -0.51298,0 -0.98639,-0.14543 -1.40094,-0.38137 0.48807,0.85718 1.39843,1.4397 2.45928,1.4397 1.57403,0 2.84117,-1.26714 2.84117,-2.84117 v -14.00328 c 0,-1.06088 -0.58248,-1.97173 -1.43971,-2.4598 z m 15.875,0 c 0.23608,0.41465 0.38137,0.88832 0.38137,1.40147 v 14.00328 c 0,1.57403 -1.26714,2.84117 -2.84117,2.84117 -0.51298,0 -0.98639,-0.14543 -1.40094,-0.38137 0.48807,0.85718 1.39843,1.4397 2.45928,1.4397 1.57403,0 2.84117,-1.26714 2.84117,-2.84117 v -14.00328 c 0,-1.06088 -0.58248,-1.97173 -1.43971,-2.4598 z m 15.875,0 c 0.23608,0.41465 0.38137,0.88832 0.38137,1.40147 v 14.00328 c 0,1.57403 -1.26714,2.84117 -2.84117,2.84117 -0.51298,0 -0.98639,-0.14543 -1.40094,-0.38137 0.48807,0.85718 1.39843,1.4397 2.45928,1.4397 1.57403,0 2.84117,-1.26714 2.84117,-2.84117 v -14.00328 c 0,-1.06088 -0.58248,-1.97173 -1.43971,-2.4598 z m 15.875,0 c 0.23608,0.41465 0.38137,0.88832 0.38137,1.40147 v 14.00328 c 0,1.57403 -1.26714,2.84117 -2.84117,2.84117 -0.51299,0 -0.98639,-0.14543 -1.40095,-0.38137 0.48808,0.85718 1.39844,1.4397 2.45929,1.4397 1.57403,0 2.84117,-1.26714 2.84117,-2.84117 v -14.00328 c 0,-1.06088 -0.58248,-1.97173 -1.43971,-2.4598 z m 15.875,0 c 0.23608,0.41465 0.38137,0.88832 0.38137,1.40147 v 14.00328 c 0,1.57403 -1.26714,2.84117 -2.84117,2.84117 -0.51299,0 -0.98639,-0.14543 -1.40095,-0.38137 0.48808,0.85718 1.39844,1.4397 2.45929,1.4397 1.57403,0 2.84117,-1.26714 2.84117,-2.84117 v -14.00328 c 0,-1.06088 -0.58248,-1.97173 -1.43971,-2.4598 z m -79.37241,0.0129 c 0.23467,0.40995 0.37878,0.87904 0.37878,1.38855 v 14.00328 c 0,1.57403 -1.26714,2.84117 -2.84117,2.84117 -0.51298,0 -0.98639,-0.14543 -1.40094,-0.38137 0.48807,0.85718 1.39843,1.4397 2.45928,1.4397 1.57403,0 2.84117,-1.26714 2.84117,-2.84117 v -14.00328 c 0,-1.05743 -0.58416,-1.95813 -1.43712,-2.44688 z m -19.01383,2.70113 c 0.48808,0.85718 1.39844,1.43971 2.45928,1.43971 h 11.25099 v -1.05873 H 3.89951 c -0.51299,0 -0.9864,-0.14543 -1.40095,-0.38137 z" />
    <rect
       style="opacity:1;fill:url(#linearGradient15);fill-opacity:1;stroke:#000000;stroke-width:3.70417;stroke-linecap:round;stroke-linejoin:round;stroke-miterlimit:12;paint-order:markers stroke fill"
       id="rect7"
       width="110.34366"
       height="109.08243"
       x="12.561503"
       y="13.192119"
       ry="4.0443692" />
  </g>
</svg>
