<?xml version="1.0" encoding="UTF-8" standalone="no"?>
<!-- Created with Inkscape (http://www.inkscape.org/) -->

<svg
   width="512"
   height="512"
   viewBox="0 0 135.46666 135.46667"
   version="1.1"
   id="svg5"
   inkscape:version="1.4.1 (93de688d07, 2025-03-30)"
   sodipodi:docname="multimedia-player.svg"
   xmlns:inkscape="http://www.inkscape.org/namespaces/inkscape"
   xmlns:sodipodi="http://sodipodi.sourceforge.net/DTD/sodipodi-0.dtd"
   xmlns:xlink="http://www.w3.org/1999/xlink"
   xmlns="http://www.w3.org/2000/svg"
   xmlns:svg="http://www.w3.org/2000/svg">
  <sodipodi:namedview
     id="namedview7"
     pagecolor="#242424"
     bordercolor="#666666"
     borderopacity="1"
     inkscape:showpageshadow="0"
     inkscape:pageopacity="0"
     inkscape:pagecheckerboard="1"
     inkscape:deskcolor="#000000"
     inkscape:document-units="px"
     showgrid="false"
     inkscape:zoom="5.1320484"
     inkscape:cx="301.92623"
     inkscape:cy="150.9144"
     inkscape:window-width="3256"
     inkscape:window-height="1080"
     inkscape:window-x="1864"
     inkscape:window-y="0"
     inkscape:window-maximized="0"
     inkscape:current-layer="g221" />
  <defs
     id="defs2">
    <linearGradient
       id="linearGradient115"
       inkscape:collect="always">
      <stop
         style="stop-color:#000000;stop-opacity:1;"
         offset="0"
         id="stop115" />
      <stop
         style="stop-color:#ffffff;stop-opacity:1;"
         offset="1"
         id="stop116" />
    </linearGradient>
    <linearGradient
       id="linearGradient112"
       inkscape:collect="always">
      <stop
         style="stop-color:#7a7a7a;stop-opacity:1;"
         offset="0"
         id="stop111" />
      <stop
         style="stop-color:#adadad;stop-opacity:1;"
         offset="1"
         id="stop112" />
    </linearGradient>
    <linearGradient
       id="linearGradient110"
       inkscape:collect="always">
      <stop
         style="stop-color:#000000;stop-opacity:1;"
         offset="0"
         id="stop109" />
      <stop
         style="stop-color:#ffffff;stop-opacity:1;"
         offset="1"
         id="stop110" />
    </linearGradient>
    <linearGradient
       id="linearGradient106"
       inkscape:collect="always">
      <stop
         style="stop-color:#000000;stop-opacity:1;"
         offset="0"
         id="stop106" />
      <stop
         style="stop-color:#ffffff;stop-opacity:1;"
         offset="1"
         id="stop107" />
    </linearGradient>
    <linearGradient
       id="linearGradient98"
       inkscape:collect="always">
      <stop
         style="stop-color:#000000;stop-opacity:1;"
         offset="0"
         id="stop98" />
      <stop
         style="stop-color:#000000;stop-opacity:0;"
         offset="1"
         id="stop99" />
    </linearGradient>
    <linearGradient
       id="linearGradient24"
       inkscape:collect="always">
      <stop
         style="stop-color:#000000;stop-opacity:1;"
         offset="0"
         id="stop24" />
      <stop
         style="stop-color:#ffffff;stop-opacity:1;"
         offset="1"
         id="stop25" />
    </linearGradient>
    <linearGradient
       id="linearGradient17"
       inkscape:collect="always">
      <stop
         style="stop-color:#ffffff;stop-opacity:1;"
         offset="0"
         id="stop17" />
      <stop
         style="stop-color:#ffffff;stop-opacity:0;"
         offset="1"
         id="stop18" />
    </linearGradient>
    <linearGradient
       id="linearGradient11"
       inkscape:collect="always">
      <stop
         style="stop-color:#999999;stop-opacity:1;"
         offset="0"
         id="stop11" />
      <stop
         style="stop-color:#cccccc;stop-opacity:1;"
         offset="1"
         id="stop12" />
    </linearGradient>
    <linearGradient
       id="linearGradient9"
       inkscape:collect="always">
      <stop
         style="stop-color:#666666;stop-opacity:1;"
         offset="0"
         id="stop9" />
      <stop
         style="stop-color:#ffffff;stop-opacity:1;"
         offset="1"
         id="stop10" />
    </linearGradient>
    <linearGradient
       id="linearGradient137"
       inkscape:collect="always">
      <stop
         style="stop-color:#000000;stop-opacity:0.5;"
         offset="0"
         id="stop137" />
      <stop
         style="stop-color:#ffffff;stop-opacity:0.40000001;"
         offset="1"
         id="stop138" />
    </linearGradient>
    <inkscape:path-effect
       effect="fillet_chamfer"
       id="path-effect126"
       is_visible="true"
       lpeversion="1"
       nodesatellites_param="F,0,0,1,0,0,0,1 @ F,0,0,1,0,0,0,1 @ F,0,1,1,0,1.0583333,0,1 @ F,0,1,1,0,1.0583333,0,1 @ F,0,0,1,0,0,0,1 @ F,0,1,1,0,1.0583333,0,1 @ F,0,1,1,0,1.0583333,0,1"
       radius="4"
       unit="px"
       method="auto"
       mode="F"
       chamfer_steps="1"
       flexible="false"
       use_knot_distance="true"
       apply_no_radius="true"
       apply_with_radius="true"
       only_selected="true"
       hide_knots="false" />
    <linearGradient
       id="linearGradient20"
       inkscape:collect="always">
      <stop
         style="stop-color:#000056;stop-opacity:1;"
         offset="0"
         id="stop20" />
      <stop
         style="stop-color:#0000ff;stop-opacity:1;"
         offset="1"
         id="stop21" />
    </linearGradient>
    <linearGradient
       id="linearGradient15"
       inkscape:collect="always">
      <stop
         style="stop-color:#ffffff;stop-opacity:1;"
         offset="0"
         id="stop15" />
      <stop
         style="stop-color:#ffffff;stop-opacity:0;"
         offset="1"
         id="stop16" />
    </linearGradient>
    <linearGradient
       id="linearGradient3"
       inkscape:collect="always">
      <stop
         style="stop-color:#292929;stop-opacity:1;"
         offset="0"
         id="stop4" />
      <stop
         style="stop-color:#d0d0d0;stop-opacity:1;"
         offset="1"
         id="stop3" />
    </linearGradient>
    <radialGradient
       inkscape:collect="always"
       xlink:href="#linearGradient3"
       id="radialGradient4"
       cx="67.733337"
       cy="102.08065"
       fx="67.733337"
       fy="102.08065"
       r="8.7265768"
       gradientUnits="userSpaceOnUse"
       gradientTransform="translate(0,-2.1166667)" />
    <linearGradient
       inkscape:collect="always"
       xlink:href="#linearGradient15"
       id="linearGradient16"
       x1="191.03008"
       y1="0.50545722"
       x2="185.41266"
       y2="48.924316"
       gradientUnits="userSpaceOnUse"
       gradientTransform="translate(-123.29674,11.808867)" />
    <clipPath
       clipPathUnits="userSpaceOnUse"
       id="clipPath19">
      <path
         style="baseline-shift:baseline;display:inline;overflow:visible;vector-effect:none;fill:#0000aa;stroke-width:0.999998;stroke-linecap:round;stroke-linejoin:round;stroke-miterlimit:12;paint-order:markers stroke fill;enable-background:accumulate;stop-color:#000000"
         d="m 138.35294,-4.6316516 c 0,0 30.86252,-1.5875 46.30738,-1.5875 15.44487,0 46.30739,1.5875 46.30739,1.5875 1.32832,0.045537 2.39909,1.0699925 2.39909,2.3990863 V 124.67968 c 0,1.32909 -1.06999,2.39909 -2.39909,2.39909 0,0 -30.86252,1.5875 -46.30739,1.5875 -15.44486,0 -46.30738,-1.5875 -46.30738,-1.5875 -1.32832,-0.0455 -2.39909,-1.07 -2.39909,-2.39909 V -2.2325653 c 0,-1.3290938 1.06999,-2.3990863 2.39909,-2.3990863 z"
         id="path20" />
    </clipPath>
    <linearGradient
       inkscape:collect="always"
       xlink:href="#linearGradient20"
       id="linearGradient21"
       x1="184.66032"
       y1="128.66628"
       x2="184.66032"
       y2="-6.2191515"
       gradientUnits="userSpaceOnUse" />
    <linearGradient
       inkscape:collect="always"
       xlink:href="#linearGradient137"
       id="linearGradient138"
       x1="67.733337"
       y1="10.712399"
       x2="67.733337"
       y2="65.304237"
       gradientUnits="userSpaceOnUse" />
    <linearGradient
       inkscape:collect="always"
       xlink:href="#linearGradient9"
       id="linearGradient10"
       x1="149.53842"
       y1="109.66643"
       x2="149.53842"
       y2="56.494995"
       gradientUnits="userSpaceOnUse"
       gradientTransform="translate(-81.805078,16.883113)" />
    <linearGradient
       inkscape:collect="always"
       xlink:href="#linearGradient112"
       id="linearGradient12"
       x1="-28.361963"
       y1="67.733406"
       x2="-28.361963"
       y2="120.90464"
       gradientUnits="userSpaceOnUse"
       gradientTransform="translate(96.095301,5.6449661)" />
    <clipPath
       clipPathUnits="userSpaceOnUse"
       id="clipPath15">
      <path
         id="path15"
         style="display:inline;opacity:1;fill:#0000aa;stroke-width:8.46667;stroke-linecap:round;stroke-linejoin:round;stroke-miterlimit:12;paint-order:markers stroke fill"
         d="m 138.35293,-4.6316517 c 0,0 30.86253,-1.5874997 46.30739,-1.5874997 15.44486,0 46.30739,1.5874997 46.30739,1.5874997 1.32832,0.045537 2.39909,1.0699924 2.39909,2.3990863 V 124.67968 c 0,1.32909 -1.06999,2.39909 -2.39909,2.39909 0,0 -30.86253,1.5875 -46.30739,1.5875 -15.44486,0 -46.30739,-1.5875 -46.30739,-1.5875 -1.32831,-0.0455 -2.39908,-1.07 -2.39908,-2.39909 V -2.2325654 c 0,-1.3290939 1.06999,-2.3990863 2.39908,-2.3990863 z"
         sodipodi:nodetypes="szsssszssss" />
    </clipPath>
    <filter
       inkscape:collect="always"
       style="color-interpolation-filters:sRGB"
       id="filter15"
       x="-0.098437421"
       y="-0.071090778"
       width="1.1968748"
       height="1.1421816">
      <feGaussianBlur
         inkscape:collect="always"
         stdDeviation="3.9954588"
         id="feGaussianBlur15" />
    </filter>
    <linearGradient
       inkscape:collect="always"
       xlink:href="#linearGradient17"
       id="linearGradient18"
       x1="184.66042"
       y1="128.66623"
       x2="184.66042"
       y2="-6.2190738"
       gradientUnits="userSpaceOnUse" />
    <linearGradient
       inkscape:collect="always"
       xlink:href="#linearGradient24"
       id="linearGradient25"
       x1="147.54086"
       y1="70.731606"
       x2="147.54086"
       y2="127.02067"
       gradientUnits="userSpaceOnUse"
       gradientTransform="translate(-79.807528,1.0876895)" />
    <filter
       inkscape:collect="always"
       style="color-interpolation-filters:sRGB"
       id="filter97"
       x="-0.19186192"
       y="-0.19213827"
       width="1.3837238"
       height="1.3842765">
      <feGaussianBlur
         inkscape:collect="always"
         stdDeviation="0.64034654"
         id="feGaussianBlur97" />
    </filter>
    <radialGradient
       inkscape:collect="always"
       xlink:href="#linearGradient98"
       id="radialGradient99"
       cx="10.788664"
       cy="76.735353"
       fx="10.788664"
       fy="76.735353"
       r="4.5583053"
       gradientTransform="matrix(1,0,0,0.99873638,22.948273,0.68024338)"
       gradientUnits="userSpaceOnUse" />
    <clipPath
       clipPathUnits="userSpaceOnUse"
       id="clipPath101">
      <circle
         style="opacity:1;fill:url(#linearGradient101);fill-opacity:1;stroke:none;stroke-width:1.05833;stroke-linecap:round;stroke-linejoin:round;stroke-miterlimit:12;stroke-dasharray:none;stroke-opacity:1;paint-order:markers stroke fill"
         id="circle101"
         cx="144.55046"
         cy="101.52171"
         r="26.585617" />
    </clipPath>
    <linearGradient
       inkscape:collect="always"
       xlink:href="#linearGradient11"
       id="linearGradient101"
       gradientUnits="userSpaceOnUse"
       gradientTransform="translate(172.91242,7.2026899)"
       x1="-28.361963"
       y1="67.733406"
       x2="-28.361963"
       y2="120.90464" />
    <filter
       inkscape:collect="always"
       style="color-interpolation-filters:sRGB"
       id="filter101"
       x="-0.20038467"
       y="-0.18926381"
       width="1.4007693"
       height="1.3785277">
      <feGaussianBlur
         inkscape:collect="always"
         stdDeviation="3.9703212"
         id="feGaussianBlur101" />
    </filter>
    <filter
       inkscape:collect="always"
       style="color-interpolation-filters:sRGB"
       id="filter105"
       x="-0.76799999"
       y="-0.76799999"
       width="2.536"
       height="2.536">
      <feGaussianBlur
         inkscape:collect="always"
         stdDeviation="1.6933333"
         id="feGaussianBlur105" />
    </filter>
    <linearGradient
       inkscape:collect="always"
       xlink:href="#linearGradient106"
       id="linearGradient107"
       x1="67.733337"
       y1="91.237411"
       x2="67.733337"
       y2="108.69057"
       gradientUnits="userSpaceOnUse" />
    <linearGradient
       inkscape:collect="always"
       xlink:href="#linearGradient106"
       id="linearGradient108"
       gradientUnits="userSpaceOnUse"
       x1="67.733337"
       y1="91.237411"
       x2="67.733337"
       y2="108.69057"
       gradientTransform="translate(-0.07518414,0.02309292)" />
    <linearGradient
       inkscape:collect="always"
       xlink:href="#linearGradient110"
       id="linearGradient109"
       x1="143.51935"
       y1="84.601997"
       x2="143.51935"
       y2="102.18745"
       gradientUnits="userSpaceOnUse"
       gradientTransform="translate(-75.861199,6.592358)" />
    <linearGradient
       inkscape:collect="always"
       xlink:href="#linearGradient115"
       id="linearGradient116"
       x1="11.000877"
       y1="85.490387"
       x2="11.000877"
       y2="73.31955"
       gradientUnits="userSpaceOnUse"
       gradientTransform="translate(22.736058,-2.0863394)" />
    <filter
       inkscape:collect="always"
       style="color-interpolation-filters:sRGB"
       id="filter221"
       x="-0.0062096931"
       y="-0.010062577"
       width="1.0124194"
       height="1.0201252">
      <feGaussianBlur
         inkscape:collect="always"
         stdDeviation="0.20050042"
         id="feGaussianBlur221" />
    </filter>
  </defs>
  <g
     inkscape:label="Layer 1"
     inkscape:groupmode="layer"
     id="layer1">
    <path
       id="rect126"
       style="font-variation-settings:'opsz' 32;opacity:1;fill:#cccccc;fill-opacity:1;stroke:none;stroke-width:8.46667;stroke-linecap:round;stroke-linejoin:round;stroke-miterlimit:12;stroke-dasharray:none;stroke-opacity:1;paint-order:markers stroke fill"
       d="m 111.67491,20.53109 v 34.954455 h 5.32784 a 0.98291147,0.98291147 0 0 0 0.98023,-1.055447 l -0.90213,-12.191074 c -0.0431,-0.582908 -0.56729,-1.039035 -1.11707,-1.229341 -1.24326,-0.430349 -2.13603,-1.61147 -2.13603,-3.001107 0,-1.389596 0.89271,-2.57069 2.13592,-3.001069 0.54984,-0.190347 1.07405,-0.646471 1.11718,-1.229379 l 0.90213,-12.19159 a 0.98291409,0.98291409 0 0 0 -0.98023,-1.055448 z"
       sodipodi:nodetypes="ccccsccc" />
    <path
       id="rect1"
       style="display:inline;opacity:1;fill:#0000aa;stroke-width:8.46667;stroke-linecap:round;stroke-linejoin:round;stroke-miterlimit:12;paint-order:markers stroke fill"
       d="m 21.425944,1.8781211 c 0,0 30.862523,-1.58749995 46.307386,-1.58749995 15.444863,0 46.30739,1.58749995 46.30739,1.58749995 1.32832,0.045537 2.39909,1.0699924 2.39909,2.3990862 V 131.18945 c 0,1.32909 -1.06999,2.39909 -2.39909,2.39909 0,0 -30.862527,1.5875 -46.30739,1.5875 -15.444863,0 -46.307386,-1.5875 -46.307386,-1.5875 -1.328313,-0.0455 -2.399086,-1.07 -2.399086,-2.39909 V 4.2772073 c 0,-1.3290938 1.069993,-2.3990862 2.399086,-2.3990862 z"
       sodipodi:nodetypes="szsssszssss"
       sodipodi:insensitive="true" />
    <rect
       style="opacity:1;fill:#1a1a1a;fill-opacity:1;stroke-width:2.11666664;stroke-linecap:round;stroke-linejoin:round;stroke-miterlimit:12;paint-order:markers stroke fill;stroke:url(#linearGradient138);stroke-dasharray:none"
       id="rect2"
       width="80.97451"
       height="54.591839"
       x="27.246078"
       y="10.712399"
       ry="2.7230134" />
    <path
       id="path23"
       style="baseline-shift:baseline;display:inline;overflow:visible;mix-blend-mode:overlay;vector-effect:none;fill:url(#linearGradient25);stroke-linecap:round;stroke-linejoin:round;stroke-miterlimit:12;paint-order:markers stroke fill;enable-background:accumulate;stop-color:#000000"
       d="m 67.733332,71.820323 c -15.52548,0 -28.14453,12.616946 -28.14453,28.142467 0,15.52552 12.61899,28.14454 28.14453,28.14454 15.52553,0 28.14454,-12.61902 28.14454,-28.14454 0,-15.525521 -12.61907,-28.142468 -28.14454,-28.142467 z m 0,2.058272 c 14.41248,9e-5 26.08619,11.67171 26.08627,26.084195 1.9e-4,14.41268 -11.67359,26.08772 -26.08627,26.08781 -14.41269,-8e-5 -26.08593,-11.67305 -26.08574,-26.085743 8e-5,-14.412489 11.67325,-26.086178 26.08574,-26.086262 z" />
    <circle
       style="opacity:1;fill:#cccccc;fill-opacity:1;stroke:#000000;stroke-width:2.11666664;stroke-linecap:round;stroke-linejoin:round;stroke-miterlimit:12;stroke-dasharray:none;stroke-opacity:1;paint-order:markers stroke fill"
       id="path2"
       cx="67.733337"
       cy="99.963989"
       r="26.585617" />
    <circle
       style="display:inline;opacity:1;fill:url(#linearGradient12);fill-opacity:1;stroke:none;stroke-width:1.05833;stroke-linecap:round;stroke-linejoin:round;stroke-miterlimit:12;stroke-dasharray:none;stroke-opacity:1;paint-order:markers stroke fill"
       id="circle10"
       cx="67.733337"
       cy="99.963989"
       r="26.585617" />
    <path
       id="rect99"
       clip-path="url(#clipPath101)"
       style="display:inline;opacity:0.48;mix-blend-mode:normal;fill:#ffffff;stroke:#ffffff;stroke-width:0.264583;stroke-linecap:round;stroke-linejoin:round;stroke-miterlimit:12;paint-order:markers stroke fill;filter:url(#filter101)"
       inkscape:transform-center-x="-14.737141"
       inkscape:transform-center-y="-16.224651"
       d="m 154.96728,77.06206 -10.41694,24.48326 22.23121,-14.603243 A 26.585617,26.585617 0 0 0 154.96728,77.06206 Z m -10.41694,24.48326 -12.62196,23.3748 a 26.585617,26.585617 0 0 0 12.62196,3.1874 26.585617,26.585617 0 0 0 2.44585,-0.11317 z m 0,0 -18.49964,-19.116662 a 26.585617,26.585617 0 0 0 -7.48172,13.458093 z"
       transform="translate(-76.892191,-1.55824)"
       inkscape:label="button-ref" />
    <rect
       style="display:inline;opacity:1;fill:#cccccc;fill-opacity:1;stroke:#000000;stroke-width:1.05833;stroke-linecap:round;stroke-linejoin:round;stroke-miterlimit:12;stroke-dasharray:none;stroke-opacity:1;paint-order:markers stroke fill"
       id="rect3"
       width="12.170834"
       height="12.170834"
       x="27.65152"
       y="71.233215"
       ry="2.8211136" />
    <circle
       style="display:inline;opacity:1;fill:url(#radialGradient4);stroke:url(#linearGradient107);stroke-width:0.132292;stroke-linecap:round;stroke-linejoin:round;stroke-miterlimit:12;stroke-dasharray:none;paint-order:markers stroke fill"
       id="path3"
       cx="67.733337"
       cy="99.963989"
       r="8.7265768" />
    <path
       id="rect97"
       style="display:inline;opacity:0.401639;fill:url(#radialGradient99);stroke:none;stroke-width:1.05833;stroke-linecap:round;stroke-linejoin:round;stroke-miterlimit:12;stroke-dasharray:none;paint-order:markers stroke fill;filter:url(#filter97)"
       d="m 35.937805,73.343618 c -1.938112,0.04587 -3.889225,-0.0939 -5.818359,0.0957 -0.668081,0.653624 -0.247863,1.701839 -0.345704,2.530859 0.02864,1.661758 -0.110383,3.34708 0.113282,4.992579 0.663173,0.637737 1.695549,0.197733 2.514453,0.314453 1.659776,-0.03492 3.344075,0.113783 4.9875,-0.111329 0.633852,-0.668484 0.196483,-1.695807 0.312795,-2.516406 -0.01601,-1.650612 0.07244,-3.310843 -0.08428,-4.954297 -0.376047,-0.512727 -1.134675,-0.352149 -1.679688,-0.351562 z" />
    <path
       id="path4"
       style="opacity:0.8;fill:#1a1a1a;fill-opacity:1;stroke-width:0.26458333;stroke-linecap:round;stroke-linejoin:round;stroke-miterlimit:12;paint-order:markers stroke fill;stroke:#ffffff;stroke-opacity:1;stroke-dasharray:none"
       inkscape:transform-center-x="0.59755311"
       d="m 32.6625,75.248676 -3.585472,2.069956 3.585472,2.069957 v -1.085507 c 0.01082,-0.0085 0.212019,-0.145399 1.980586,-0.145399 1.825618,0 3.753757,0.691747 3.753757,0.691747 0,0 -0.675165,-1.24776 -2.345829,-1.88278 C 34.38035,76.331615 32.6625,76.334527 32.6625,76.334527 Z"
       sodipodi:nodetypes="ccccscccc" />
    <path
       id="path10"
       clip-path="url(#clipPath15)"
       style="baseline-shift:baseline;display:inline;overflow:visible;mix-blend-mode:overlay;vector-effect:none;fill:url(#linearGradient18);stroke-linecap:round;stroke-linejoin:round;stroke-miterlimit:12;paint-order:markers stroke fill;filter:url(#filter15);enable-background:accumulate;stop-color:#000000"
       d="m 184.66042,-6.219074 c -15.44486,0 -46.30725,1.5875 -46.30725,1.5875 -1.3291,0 -2.39934,1.0697262 -2.39934,2.39882 V 124.67991 c 0,1.32909 1.07102,2.35332 2.39934,2.39882 0,0 30.86239,1.5875 46.30725,1.5875 15.44487,0 46.30725,-1.5875 46.30725,-1.5875 1.3291,0 2.39933,-1.06973 2.39933,-2.39882 V -2.232754 c 0,-1.3290938 -1.07101,-2.353283 -2.39933,-2.39882 0,0 -30.86238,-1.5875 -46.30725,-1.5875 z m 0,4.2328165 c 14.44895,0 41.82144,1.3739695 44.47222,1.50791832 V 122.92601 c -2.65078,0.13395 -30.02327,1.5074 -44.47222,1.5074 -14.44895,0 -41.82195,-1.37345 -44.47274,-1.5074 V -0.47833918 c 2.65079,-0.13394882 30.02379,-1.50791832 44.47274,-1.50791832 z"
       transform="translate(-116.92708,6.5097545)"
       inkscape:label="inner-light" />
    <path
       style="baseline-shift:baseline;display:inline;overflow:visible;mix-blend-mode:normal;vector-effect:none;fill:url(#linearGradient21);stroke-linecap:round;stroke-linejoin:round;stroke-miterlimit:12;paint-order:markers stroke fill;enable-background:accumulate;stop-color:#000000"
       d="m 184.66016,-10.453125 c -15.73495,0 -46.52539,1.59375 -46.52539,1.59375 l 0.21875,-0.00586 c -3.60114,0 -6.63282,3.0316824 -6.63282,6.6328125 V 124.67969 c 0,3.60211 3.0637,6.51256 6.48633,6.63086 0.12773,0.007 30.75094,1.58984 46.45313,1.58984 15.73495,0 46.52539,-1.59375 46.52539,-1.59375 l -0.21875,0.006 c 3.60114,0 6.63281,-3.03168 6.63281,-6.63281 V -2.2324219 c 0,-3.60143 -3.06073,-6.5114474 -6.48242,-6.6308594 h -0.004 c -0.12774,-0.00661 -30.75093,-1.5898437 -46.45312,-1.5898437 z m 0,8.4667969 c 14.44895,0 41.82187,1.37386365 44.47265,1.50781247 V 122.92578 c -2.65078,0.13395 -30.0237,1.50781 -44.47265,1.50781 -14.44895,0 -41.82187,-1.37386 -44.47266,-1.50781 V -0.47851563 c 2.65079,-0.13394882 30.02371,-1.50781247 44.47266,-1.50781247 z"
       id="path18"
       clip-path="url(#clipPath19)"
       transform="translate(-116.92699,6.5097727)"
       inkscape:label="bevel" />
    <path
       id="rect14"
       style="display:inline;opacity:0.6;fill:url(#linearGradient16);stroke-width:8.46667;stroke-linecap:round;stroke-linejoin:round;stroke-miterlimit:12;paint-order:markers stroke fill"
       d="m 104.8423,12.31478 c -0.2459,0.0026 -0.48614,0.01605 -0.6997,0.01809 l -4.12119,0.02274 c -23.417274,-0.0074 -46.834484,0.0025 -70.251534,0.01395 -0.85543,0.187174 -1.04868,1.165714 -0.93172,1.909444 0.02674,7.926742 0.02168,15.853144 0.0186,23.779943 a 107.75018,37.915192 0 0 1 77.799394,11.701611 c 0.004,-12.194906 0.0137,-24.390584 -0.0388,-36.582779 -0.25122,-0.782576 -1.03738,-0.870932 -1.77509,-0.862996 z" />
    <path
       sodipodi:type="star"
       style="font-variation-settings:'opsz' 32;fill:#1a1a1a;fill-opacity:1;stroke:#ffffff;stroke-width:1.62069377;stroke-linecap:round;stroke-linejoin:round;stroke-miterlimit:12;stroke-dasharray:none;stroke-opacity:1;paint-order:markers stroke fill;opacity:0.8"
       id="path129"
       inkscape:flatsided="true"
       sodipodi:sides="3"
       sodipodi:cx="-33.392754"
       sodipodi:cy="45.787441"
       sodipodi:r1="23.710869"
       sodipodi:r2="11.855434"
       sodipodi:arg1="0"
       sodipodi:arg2="1.0471976"
       inkscape:rounded="0"
       inkscape:randomized="0"
       d="m -9.6818848,45.787441 -35.5663032,20.534215 0,-41.06843 z"
       inkscape:transform-center-x="-0.9677186"
       transform="matrix(0.16325313,0,0,0.16325313,68.295066,77.193206)" />
    <g
       id="g130"
       transform="translate(0.93585624,1.9272888)"
       style="display:inline;opacity:0.8;fill:#1a1a1a;fill-opacity:1;stroke:#ffffff;stroke-width:0.264583;stroke-dasharray:none;stroke-opacity:1">
      <rect
         style="font-variation-settings:'opsz' 32;opacity:1;fill:#1a1a1a;fill-opacity:1;stroke:#ffffff;stroke-width:0.264583;stroke-linecap:round;stroke-linejoin:round;stroke-miterlimit:12;stroke-dasharray:none;stroke-opacity:1;paint-order:markers stroke fill"
         id="rect129"
         width="1.3102446"
         height="6.7045412"
         x="68.608253"
         y="79.388588" />
      <rect
         style="font-variation-settings:'opsz' 32;opacity:1;fill:#1a1a1a;fill-opacity:1;stroke:#ffffff;stroke-width:0.264583;stroke-linecap:round;stroke-linejoin:round;stroke-miterlimit:12;stroke-dasharray:none;stroke-opacity:1;paint-order:markers stroke fill"
         id="rect130"
         width="1.3102446"
         height="6.7045412"
         x="72.312416"
         y="79.388588" />
    </g>
    <path
       id="rect131"
       style="font-variation-settings:'opsz' 32;display:inline;fill:#1a1a1a;fill-opacity:1;stroke:#ffffff;stroke-width:0.26458333;stroke-linecap:round;stroke-linejoin:round;stroke-miterlimit:12;stroke-dasharray:none;stroke-opacity:1;paint-order:markers stroke fill;opacity:0.8"
       d="m 64.381087,112.01044 v 1.31 h 6.7045 v -1.31 z m 0,3.70417 v 1.31 h 6.7045 v -1.31 z m 0,3.70417 v 1.30999 h 6.7045 v -1.30999 z" />
    <path
       sodipodi:type="star"
       style="font-variation-settings:'opsz' 32;display:inline;fill:#1a1a1a;fill-opacity:1;stroke:#ffffff;stroke-width:1.62069377;stroke-linecap:round;stroke-linejoin:round;stroke-miterlimit:12;stroke-dasharray:none;stroke-opacity:1;paint-order:markers stroke fill;opacity:0.8"
       id="path134"
       inkscape:flatsided="true"
       sodipodi:sides="3"
       sodipodi:cx="-33.392754"
       sodipodi:cy="45.787441"
       sodipodi:r1="23.710869"
       sodipodi:r2="11.855434"
       sodipodi:arg1="0"
       sodipodi:arg2="1.0471976"
       inkscape:rounded="0"
       inkscape:randomized="0"
       d="m -9.6818848,45.787441 -35.5663032,20.534215 0,-41.06843 z"
       inkscape:transform-center-x="-0.9677186"
       transform="matrix(0.16325313,0,0,0.16325313,86.374551,92.489046)" />
    <path
       sodipodi:type="star"
       style="font-variation-settings:'opsz' 32;fill:#1a1a1a;fill-opacity:1;stroke:#ffffff;stroke-width:1.62069377;stroke-linecap:round;stroke-linejoin:round;stroke-miterlimit:12;stroke-dasharray:none;stroke-opacity:1;paint-order:markers stroke fill;opacity:0.8"
       id="path135"
       inkscape:flatsided="true"
       sodipodi:sides="3"
       sodipodi:cx="-33.392754"
       sodipodi:cy="45.787441"
       sodipodi:r1="23.710869"
       sodipodi:r2="11.855434"
       sodipodi:arg1="0"
       sodipodi:arg2="1.0471976"
       inkscape:rounded="0"
       inkscape:randomized="0"
       d="m -9.6818848,45.787441 -35.5663032,20.534215 0,-41.06843 z"
       inkscape:transform-center-x="-0.9677186"
       transform="matrix(0.16325313,0,0,0.16325313,92.724553,92.489046)" />
    <path
       sodipodi:type="star"
       style="font-variation-settings:'opsz' 32;fill:#1a1a1a;fill-opacity:1;stroke:#ffffff;stroke-width:1.62069377;stroke-linecap:round;stroke-linejoin:round;stroke-miterlimit:12;stroke-dasharray:none;stroke-opacity:1;paint-order:markers stroke fill;opacity:0.8"
       id="path136"
       inkscape:flatsided="true"
       sodipodi:sides="3"
       sodipodi:cx="-33.392754"
       sodipodi:cy="45.787441"
       sodipodi:r1="23.710869"
       sodipodi:r2="11.855434"
       sodipodi:arg1="0"
       sodipodi:arg2="1.0471976"
       inkscape:rounded="0"
       inkscape:randomized="0"
       d="m -9.6818848,45.787441 -35.5663032,20.534215 0,-41.06843 z"
       inkscape:transform-center-x="-0.9677186"
       transform="matrix(-0.16325313,0,0,0.16325313,49.092116,92.489046)" />
    <path
       sodipodi:type="star"
       style="font-variation-settings:'opsz' 32;fill:#1a1a1a;fill-opacity:1;stroke:#ffffff;stroke-width:1.62069377;stroke-linecap:round;stroke-linejoin:round;stroke-miterlimit:12;stroke-dasharray:none;stroke-opacity:1;paint-order:markers stroke fill;opacity:0.8"
       id="path137"
       inkscape:flatsided="true"
       sodipodi:sides="3"
       sodipodi:cx="-33.392754"
       sodipodi:cy="45.787441"
       sodipodi:r1="23.710869"
       sodipodi:r2="11.855434"
       sodipodi:arg1="0"
       sodipodi:arg2="1.0471976"
       inkscape:rounded="0"
       inkscape:randomized="0"
       d="m -9.6818848,45.787441 -35.5663032,20.534215 0,-41.06843 z"
       inkscape:transform-center-x="-0.9677186"
       transform="matrix(-0.16325313,0,0,0.16325313,42.742115,92.489046)" />
    <path
       id="path8"
       style="baseline-shift:baseline;display:inline;overflow:visible;vector-effect:none;fill:url(#linearGradient10);stroke-linecap:round;stroke-linejoin:round;stroke-miterlimit:12;paint-order:markers stroke fill;enable-background:accumulate;stop-color:#000000"
       d="m 67.733082,73.378372 a 26.585617,26.585617 0 0 0 -26.58546,26.585457 26.585617,26.585617 0 0 0 26.58546,26.585451 26.585617,26.585617 0 0 0 26.58597,-26.585451 26.585617,26.585617 0 0 0 -26.58597,-26.585457 z m 0.001,2.645316 c 13.25292,0 23.93911,10.686708 23.93911,23.939624 0,13.252918 -10.68619,23.939108 -23.93911,23.939108 -13.25291,0 -23.94169,-10.68619 -23.94169,-23.939108 0,-13.252916 10.68878,-23.939624 23.94169,-23.939624 z" />
    <circle
       style="display:inline;opacity:0.68;mix-blend-mode:normal;fill:url(#linearGradient109);stroke:url(#linearGradient108);stroke-width:0.132292;stroke-linecap:round;stroke-linejoin:round;stroke-miterlimit:12;stroke-dasharray:none;paint-order:markers stroke fill"
       id="circle107"
       cx="67.65815"
       cy="99.987083"
       r="8.7265768" />
    <circle
       style="display:inline;opacity:0.48;fill:#000000;fill-opacity:1;stroke:none;stroke-width:0.132292;stroke-linecap:round;stroke-linejoin:round;stroke-miterlimit:12;stroke-dasharray:none;stroke-opacity:1;paint-order:markers stroke fill;filter:url(#filter105)"
       id="path105"
       cx="67.733337"
       cy="99.963989"
       r="2.6458333" />
    <path
       id="path114"
       style="baseline-shift:baseline;display:inline;overflow:visible;vector-effect:none;fill:url(#linearGradient116);stroke-linecap:round;stroke-linejoin:round;stroke-miterlimit:12;paint-order:markers stroke fill;enable-background:accumulate;stop-color:#000000"
       d="m 30.473053,71.233216 c -1.562897,0 -2.821533,1.258119 -2.821533,2.821016 v 6.528284 c 0,1.562896 1.258636,2.821533 2.821533,2.821533 h 6.528284 c 1.562897,0 2.821016,-1.258637 2.821016,-2.821533 v -6.528284 c 0,-1.562897 -1.258119,-2.821016 -2.821016,-2.821016 z m -5.16e-4,0.131775 h 6.529317 c 1.491896,0 2.689241,1.197345 2.689241,2.689241 v 6.529317 c 0,1.491896 -1.197345,2.687692 -2.689241,2.687692 h -6.529317 c -1.491896,0 -2.687692,-1.195796 -2.687692,-2.687692 v -6.529317 c 0,-1.491896 1.195796,-2.689241 2.687692,-2.689241 z" />
    <g
       id="g221"
       style="display:inline">
      <path
         id="rect117"
         style="font-variation-settings:'opsz' 32;display:inline;mix-blend-mode:normal;fill:#00ff00;fill-opacity:1;stroke:none;stroke-width:8.46667;stroke-linecap:round;stroke-linejoin:round;stroke-miterlimit:12;stroke-dasharray:none;stroke-opacity:1;paint-order:markers stroke fill;filter:url(#filter221)"
         d="m 31.530892,14.844572 v 0.712618 h 0.712618 v -0.712618 z m 1.899625,0 v 0.712618 h 0.712618 v -0.712618 z m 0.95033,0 v 0.712618 h 0.712101 v -0.712618 z m 0.949813,0 v 0.712618 h 0.712618 v -0.712618 z m 0.949812,0 v 0.712618 h 0.712618 v -0.712618 z m 1.900143,0 v 0.712618 h 0.712618 v -0.712618 z m 0.949813,0 v 0.712618 h 0.712618 v -0.712618 z m 0.949812,0 v 0.712618 h 0.712618 v -0.712618 z m 0.95033,0 v 0.712618 h 0.712101 v -0.712618 z m 1.899626,0 v 0.712618 h 0.712618 v -0.712618 z m 0.950329,0 v 0.712618 h 0.712101 v -0.712618 z m 0.949813,0 v 0.712618 h 0.712618 v -0.712618 z m 1.900142,0 v 0.712618 h 0.712102 v -0.712618 z m 0.949813,0 v 0.712618 h 0.712618 v -0.712618 z m 0.949813,0 v 0.712618 h 0.712618 v -0.712618 z m 1.900142,0 v 0.712618 h 0.712102 v -0.712618 z m 0.949813,0 v 0.712618 h 0.712618 v -0.712618 z m 0.949813,0 v 0.712618 h 0.712618 v -0.712618 z m -18.999357,0.950329 v 0.712102 h 0.712618 v -0.712102 z m 2.849955,0 v 0.712102 h 0.712618 v -0.712102 z m 1.900143,0 v 0.712102 h 0.712618 v -0.712102 z m 2.849955,0 v 0.712102 h 0.712101 v -0.712102 z m 1.899626,0 v 0.712102 h 0.712618 v -0.712102 z m 3.800284,0 v 0.712102 h 0.712102 v -0.712102 z m 3.799768,0 v 0.712102 h 0.712102 v -0.712102 z m -18.999356,0.949813 v 0.712618 h 0.712618 v -0.712618 z m 1.899625,0 v 0.712618 h 0.712618 v -0.712618 z m 0.95033,0 v 0.712618 h 0.712101 v -0.712618 z m 0.949813,0 v 0.712618 h 0.712618 v -0.712618 z m 0.949812,0 v 0.712618 h 0.712618 v -0.712618 z m 1.900143,0 v 0.712618 h 0.712618 v -0.712618 z m 2.849955,0 v 0.712618 h 0.712101 v -0.712618 z m 1.899626,0 v 0.712618 h 0.712618 v -0.712618 z m 3.800284,0 v 0.712618 h 0.712102 v -0.712618 z m 3.799768,0 v 0.712618 h 0.712102 v -0.712618 z m -18.999356,0.949813 v 0.712618 h 0.712618 v -0.712618 z m 4.74958,0 v 0.712618 h 0.712618 v -0.712618 z m 1.900143,0 v 0.712618 h 0.712618 v -0.712618 z m 2.849955,0 v 0.712618 h 0.712101 v -0.712618 z m 1.899626,0 v 0.712618 h 0.712618 v -0.712618 z m 3.800284,0 v 0.712618 h 0.712102 v -0.712618 z m 3.799768,0 v 0.712618 h 0.712102 v -0.712618 z m -18.999356,0.95033 v 0.712101 h 0.712618 v -0.712101 z m 1.899625,0 v 0.712101 h 0.712618 v -0.712101 z m 0.95033,0 v 0.712101 h 0.712101 v -0.712101 z m 0.949813,0 v 0.712101 h 0.712618 v -0.712101 z m 0.949812,0 v 0.712101 h 0.712618 v -0.712101 z m 1.900143,0 v 0.712101 h 0.712618 v -0.712101 z m 0.949813,0 v 0.712101 h 0.712618 v -0.712101 z m 0.949812,0 v 0.712101 h 0.712618 v -0.712101 z m 0.95033,0 v 0.712101 h 0.712101 v -0.712101 z m 1.899626,0 v 0.712101 h 0.712618 v -0.712101 z m 3.800284,0 v 0.712101 h 0.712102 v -0.712101 z m 3.799768,0 v 0.712101 h 0.712102 v -0.712101 z m -18.999356,8.074442 v 0.712618 h 0.712618 v -0.712618 z m 0.949812,0 v 0.712618 h 0.712618 v -0.712618 z m 0.949813,0 v 0.712618 h 0.712618 v -0.712618 z m 0.95033,0 v 0.712618 h 0.712101 v -0.712618 z m 1.899625,0 v 0.712618 h 0.712618 v -0.712618 z m 0.95033,0 v 0.712618 h 0.712101 v -0.712618 z m 0.949813,0 v 0.712618 h 0.712618 v -0.712618 z m 0.949813,0 v 0.712618 h 0.712618 v -0.712618 z m 1.900142,0 v 0.712618 h 0.712101 v -0.712618 z m 1.899626,0 v 0.712618 h 0.712618 v -0.712618 z m 0.950329,0 v 0.712618 h 0.712101 v -0.712618 z m 0.949813,0 v 0.712618 h 0.712618 v -0.712618 z m 1.900142,0 v 0.712618 h 0.712102 v -0.712618 z m 1.899626,0 v 0.712618 h 0.712618 v -0.712618 z m 3.809587,0 v 0.712618 h 0.712101 v -0.712618 z m 2.849955,0 v 0.712618 h 0.712101 v -0.712618 z m 1.899625,0 v 0.712618 h 0.712618 v -0.712618 z m 0.949813,0 v 0.712618 h 0.712618 v -0.712618 z m 0.95033,0 v 0.712618 h 0.712101 v -0.712618 z m 0.949813,0 v 0.712618 h 0.712618 v -0.712618 z m 1.900142,0 v 0.712618 h 0.712101 v -0.712618 z m 3.799768,0 v 0.712618 h 0.712101 v -0.712618 z m 1.899626,0 v 0.712618 h 0.712618 v -0.712618 z m 3.809586,0 v 0.712618 h 0.712618 v -0.712618 z m 2.849955,0 v 0.712618 h 0.712102 v -0.712618 z m 4.749581,0 v 0.712618 h 0.712618 v -0.712618 z m 0.95033,0 v 0.712618 h 0.712101 v -0.712618 z m 0.949813,0 v 0.712618 h 0.712618 v -0.712618 z m 0.949812,0 v 0.712618 h 0.712618 v -0.712618 z m 1.900143,0 v 0.712618 h 0.712101 v -0.712618 z m 0.949813,0 v 0.712618 h 0.712618 v -0.712618 z m 0.949812,0 v 0.712618 h 0.712618 v -0.712618 z m 0.95033,0 v 0.712618 h 0.712101 v -0.712618 z m 4.749581,0 v 0.712618 h 0.712618 v -0.712618 z m -59.866629,0.949813 v 0.712618 h 0.712618 v -0.712618 z m 4.74958,0 v 0.712618 h 0.712618 v -0.712618 z m 2.849956,0 v 0.712618 h 0.712618 v -0.712618 z m 3.799768,0 v 0.712618 h 0.712618 v -0.712618 z m 5.69991,0 v 0.712618 h 0.712618 v -0.712618 z m 0.949813,0 v 0.712618 h 0.712618 v -0.712618 z m 0.950329,0 v 0.712618 h 0.712102 v -0.712618 z m 1.909445,0 v 0.712618 h 0.712101 v -0.712618 z m 2.849955,0 v 0.712618 h 0.712101 v -0.712618 z m 4.749581,0 v 0.712618 h 0.712618 v -0.712618 z m 1.900142,0 v 0.712618 h 0.712101 v -0.712618 z m 5.699394,0 v 0.712618 h 0.712618 v -0.712618 z m 0.950329,0 v 0.712618 h 0.712101 v -0.712618 z m 0.949813,0 v 0.712618 h 0.712618 v -0.712618 z m 1.909444,0 v 0.712618 h 0.712618 v -0.712618 z m 2.849955,0 v 0.712618 h 0.712102 v -0.712618 z m 7.599536,0 v 0.712618 h 0.712618 v -0.712618 z m 1.900143,0 v 0.712618 h 0.712101 v -0.712618 z m 2.849955,0 v 0.712618 h 0.712101 v -0.712618 z m 1.899626,0 v 0.712618 h 0.712618 v -0.712618 z m 0.949812,0 v 0.712618 h 0.712618 v -0.712618 z m 0.95033,0 v 0.712618 h 0.712101 v -0.712618 z m 0.949813,0 v 0.712618 h 0.712618 v -0.712618 z m -59.866629,0.950329 v 0.712102 h 0.712618 v -0.712102 z m 0.949812,0 v 0.712102 h 0.712618 v -0.712102 z m 0.949813,0 v 0.712102 h 0.712618 v -0.712102 z m 0.95033,0 v 0.712102 h 0.712101 v -0.712102 z m 1.899625,0 v 0.712102 h 0.712618 v -0.712102 z m 0.95033,0 v 0.712102 h 0.712101 v -0.712102 z m 0.949813,0 v 0.712102 h 0.712618 v -0.712102 z m 0.949813,0 v 0.712102 h 0.712618 v -0.712102 z m 1.900142,0 v 0.712102 h 0.712101 v -0.712102 z m 1.899626,0 v 0.712102 h 0.712618 v -0.712102 z m 3.800284,0 v 0.712102 h 0.712102 v -0.712102 z m 1.899626,0 v 0.712102 h 0.712618 v -0.712102 z m 3.809587,0 v 0.712102 h 0.712101 v -0.712102 z m 2.849955,0 v 0.712102 h 0.712101 v -0.712102 z m 1.899625,0 v 0.712102 h 0.712618 v -0.712102 z m 0.949813,0 v 0.712102 h 0.712618 v -0.712102 z m 0.95033,0 v 0.712102 h 0.712101 v -0.712102 z m 0.949813,0 v 0.712102 h 0.712618 v -0.712102 z m 1.900142,0 v 0.712102 h 0.712101 v -0.712102 z m 3.799768,0 v 0.712102 h 0.712101 v -0.712102 z m 1.899626,0 v 0.712102 h 0.712618 v -0.712102 z m 3.809586,0 v 0.712102 h 0.712618 v -0.712102 z m 0.949813,0 v 0.712102 h 0.712618 v -0.712102 z m 0.949813,0 v 0.712102 h 0.712618 v -0.712102 z m 0.950329,0 v 0.712102 h 0.712102 v -0.712102 z m 4.749581,0 v 0.712102 h 0.712618 v -0.712102 z m 0.95033,0 v 0.712102 h 0.712101 v -0.712102 z m 0.949813,0 v 0.712102 h 0.712618 v -0.712102 z m 0.949812,0 v 0.712102 h 0.712618 v -0.712102 z m 1.900143,0 v 0.712102 h 0.712101 v -0.712102 z m 2.849955,0 v 0.712102 h 0.712101 v -0.712102 z m 1.899626,0 v 0.712102 h 0.712618 v -0.712102 z m 2.849955,0 v 0.712102 h 0.712618 v -0.712102 z m -57.016674,0.949813 v 0.712618 h 0.712101 v -0.712618 z m 1.899625,0 v 0.712618 h 0.712618 v -0.712618 z m 4.750098,0 v 0.712618 h 0.712101 v -0.712618 z m 1.899626,0 v 0.712618 h 0.712618 v -0.712618 z m 3.800284,0 v 0.712618 h 0.712102 v -0.712618 z m 1.899626,0 v 0.712618 h 0.712618 v -0.712618 z m 3.809587,0 v 0.712618 h 0.712101 v -0.712618 z m 2.849955,0 v 0.712618 h 0.712101 v -0.712618 z m 1.899625,0 v 0.712618 h 0.712618 v -0.712618 z m 2.849956,0 v 0.712618 h 0.712618 v -0.712618 z m 1.900142,0 v 0.712618 h 0.712101 v -0.712618 z m 3.799768,0 v 0.712618 h 0.712101 v -0.712618 z m 1.899626,0 v 0.712618 h 0.712618 v -0.712618 z m 6.659541,0 v 0.712618 h 0.712102 v -0.712618 z m 4.749581,0 v 0.712618 h 0.712618 v -0.712618 z m 2.849955,0 v 0.712618 h 0.712618 v -0.712618 z m 1.900143,0 v 0.712618 h 0.712101 v -0.712618 z m 2.849955,0 v 0.712618 h 0.712101 v -0.712618 z m 1.899626,0 v 0.712618 h 0.712618 v -0.712618 z m 2.849955,0 v 0.712618 h 0.712618 v -0.712618 z m -59.866629,0.949813 v 0.712618 h 0.712618 v -0.712618 z m 0.949812,0 v 0.712618 h 0.712618 v -0.712618 z m 0.949813,0 v 0.712618 h 0.712618 v -0.712618 z m 0.95033,0 v 0.712618 h 0.712101 v -0.712618 z m 1.899625,0 v 0.712618 h 0.712618 v -0.712618 z m 4.750098,0 v 0.712618 h 0.712101 v -0.712618 z m 1.899626,0 v 0.712618 h 0.712618 v -0.712618 z m 3.800284,0 v 0.712618 h 0.712102 v -0.712618 z m 1.899626,0 v 0.712618 h 0.712618 v -0.712618 z m 3.809587,0 v 0.712618 h 0.712101 v -0.712618 z m 0.949812,0 v 0.712618 h 0.712618 v -0.712618 z m 0.949813,0 v 0.712618 h 0.712618 v -0.712618 z m 0.95033,0 v 0.712618 h 0.712101 v -0.712618 z m 1.899625,0 v 0.712618 h 0.712618 v -0.712618 z m 0.949813,0 v 0.712618 h 0.712618 v -0.712618 z m 0.95033,0 v 0.712618 h 0.712101 v -0.712618 z m 0.949813,0 v 0.712618 h 0.712618 v -0.712618 z m 1.900142,0 v 0.712618 h 0.712101 v -0.712618 z m 0.949813,0 v 0.712618 h 0.712618 v -0.712618 z m 0.949813,0 v 0.712618 h 0.712618 v -0.712618 z m 1.900142,0 v 0.712618 h 0.712101 v -0.712618 z m 1.899626,0 v 0.712618 h 0.712618 v -0.712618 z m 3.809586,0 v 0.712618 h 0.712618 v -0.712618 z m 0.949813,0 v 0.712618 h 0.712618 v -0.712618 z m 0.949813,0 v 0.712618 h 0.712618 v -0.712618 z m 0.950329,0 v 0.712618 h 0.712102 v -0.712618 z m 4.749581,0 v 0.712618 h 0.712618 v -0.712618 z m 0.95033,0 v 0.712618 h 0.712101 v -0.712618 z m 0.949813,0 v 0.712618 h 0.712618 v -0.712618 z m 0.949812,0 v 0.712618 h 0.712618 v -0.712618 z m 1.900143,0 v 0.712618 h 0.712101 v -0.712618 z m 2.849955,0 v 0.712618 h 0.712101 v -0.712618 z m 1.899626,0 v 0.712618 h 0.712618 v -0.712618 z m 0.949812,0 v 0.712618 h 0.712618 v -0.712618 z m 0.95033,0 v 0.712618 h 0.712101 v -0.712618 z m 0.949813,0 v 0.712618 h 0.712618 v -0.712618 z m 4.749581,0 v 0.712618 h 0.712618 v -0.712618 z m 1.900142,0 v 0.712618 h 0.712618 v -0.712618 z m 1.900142,0 v 0.712618 h 0.712104 v -0.712618 z m -68.416494,8.074959 v 0.712101 h 0.712618 v -0.712101 z m 4.74958,0 v 0.712101 h 0.712618 v -0.712101 z m 1.900143,0 v 0.712101 h 0.712618 v -0.712101 z m 0.949813,0 v 0.712101 h 0.712618 v -0.712101 z m 0.949812,0 v 0.712101 h 0.712618 v -0.712101 z m 0.95033,0 v 0.712101 h 0.712101 v -0.712101 z m 0.949813,0 v 0.712101 h 0.712618 v -0.712101 z m 1.900142,0 v 0.712101 h 0.712101 v -0.712101 z m 0.949813,0 v 0.712101 h 0.712618 v -0.712101 z m 0.949813,0 v 0.712101 h 0.712618 v -0.712101 z m 0.950329,0 v 0.712101 h 0.712102 v -0.712101 z m 1.899626,0 v 0.712101 h 0.712618 v -0.712101 z m 3.799768,0 v 0.712101 h 0.712618 v -0.712101 z m 0.95033,0 v 0.712101 h 0.712101 v -0.712101 z m 0.949812,0 v 0.712101 h 0.712618 v -0.712101 z m 0.949813,0 v 0.712101 h 0.712618 v -0.712101 z m 1.900143,0 v 0.712101 h 0.712101 v -0.712101 z m 2.849955,0 v 0.712101 h 0.712101 v -0.712101 z m 1.899625,0 v 0.712101 h 0.712618 v -0.712101 z m 0.949813,0 v 0.712101 h 0.712618 v -0.712101 z m 0.95033,0 v 0.712101 h 0.712618 v -0.712101 z m 0.949813,0 v 0.712101 h 0.712618 v -0.712101 z m 4.750097,0 v 0.712101 h 0.712101 v -0.712101 z m 0.949813,0 v 0.712101 h 0.712618 v -0.712101 z m 0.949813,0 v 0.712101 h 0.712618 v -0.712101 z m 0.949813,0 v 0.712101 h 0.712618 v -0.712101 z m 0.950329,0 v 0.712101 h 0.712102 v -0.712101 z m 1.899626,0 v 0.712101 h 0.712618 v -0.712101 z m 0.950329,0 v 0.712101 h 0.712102 v -0.712101 z m 0.949813,0 v 0.712101 h 0.712618 v -0.712101 z m 0.949813,0 v 0.712101 h 0.712618 v -0.712101 z m 1.900143,0 v 0.712101 h 0.712101 v -0.712101 z m 0.949812,0 v 0.712101 h 0.712618 v -0.712101 z m 0.949813,0 v 0.712101 h 0.712618 v -0.712101 z m 0.95033,0 v 0.712101 h 0.712101 v -0.712101 z m 1.899625,0 v 0.712101 h 0.712618 v -0.712101 z m 0.95033,0 v 0.712101 h 0.712101 v -0.712101 z m 0.949813,0 v 0.712101 h 0.712618 v -0.712101 z m 0.949813,0 v 0.712101 h 0.712618 v -0.712101 z m 1.900142,0 v 0.712101 h 0.712101 v -0.712101 z m 1.899626,0 v 0.712101 h 0.712618 v -0.712101 z m 2.849955,0 v 0.712101 h 0.712618 v -0.712101 z m -62.697464,0.949813 v 0.712618 h 0.712618 v -0.712618 z m 0.949812,0 v 0.712618 h 0.712618 v -0.712618 z m 0.949813,0 v 0.712618 h 0.712618 v -0.712618 z m 0.95033,0 v 0.712618 h 0.712101 v -0.712618 z m 3.799768,0 v 0.712618 h 0.712618 v -0.712618 z m 1.899625,0 v 0.712618 h 0.712618 v -0.712618 z m 1.900143,0 v 0.712618 h 0.712618 v -0.712618 z m 4.750097,0 v 0.712618 h 0.712102 v -0.712618 z m 1.899626,0 v 0.712618 h 0.712618 v -0.712618 z m 6.649723,0 v 0.712618 h 0.712618 v -0.712618 z m 1.900143,0 v 0.712618 h 0.712101 v -0.712618 z m 2.849955,0 v 0.712618 h 0.712101 v -0.712618 z m 4.749581,0 v 0.712618 h 0.712618 v -0.712618 z m 4.750097,0 v 0.712618 h 0.712101 v -0.712618 z m 1.899626,0 v 0.712618 h 0.712618 v -0.712618 z m 1.900142,0 v 0.712618 h 0.712102 v -0.712618 z m 4.749581,0 v 0.712618 h 0.712618 v -0.712618 z m 1.900143,0 v 0.712618 h 0.712101 v -0.712618 z m 4.74958,0 v 0.712618 h 0.712618 v -0.712618 z m 6.649724,0 v 0.712618 h 0.712618 v -0.712618 z m 2.849955,0 v 0.712618 h 0.712618 v -0.712618 z m -62.697464,0.949813 v 0.712618 h 0.712618 v -0.712618 z m 2.849955,0 v 0.712618 h 0.712101 v -0.712618 z m 1.899625,0 v 0.712618 h 0.712618 v -0.712618 z m 1.900143,0 v 0.712618 h 0.712618 v -0.712618 z m 1.899625,0 v 0.712618 h 0.712618 v -0.712618 z m 1.900143,0 v 0.712618 h 0.712618 v -0.712618 z m 1.900142,0 v 0.712618 h 0.712101 v -0.712618 z m 0.949813,0 v 0.712618 h 0.712618 v -0.712618 z m 0.949813,0 v 0.712618 h 0.712618 v -0.712618 z m 0.950329,0 v 0.712618 h 0.712102 v -0.712618 z m 1.899626,0 v 0.712618 h 0.712618 v -0.712618 z m 3.799768,0 v 0.712618 h 0.712618 v -0.712618 z m 0.95033,0 v 0.712618 h 0.712101 v -0.712618 z m 0.949812,0 v 0.712618 h 0.712618 v -0.712618 z m 0.949813,0 v 0.712618 h 0.712618 v -0.712618 z m 1.900143,0 v 0.712618 h 0.712101 v -0.712618 z m 0.949812,0 v 0.712618 h 0.712618 v -0.712618 z m 0.949813,0 v 0.712618 h 0.712618 v -0.712618 z m 0.95033,0 v 0.712618 h 0.712101 v -0.712618 z m 1.899625,0 v 0.712618 h 0.712618 v -0.712618 z m 0.949813,0 v 0.712618 h 0.712618 v -0.712618 z m 0.95033,0 v 0.712618 h 0.712618 v -0.712618 z m 0.949813,0 v 0.712618 h 0.712618 v -0.712618 z m 4.750097,0 v 0.712618 h 0.712101 v -0.712618 z m 1.899626,0 v 0.712618 h 0.712618 v -0.712618 z m 1.900142,0 v 0.712618 h 0.712102 v -0.712618 z m 1.899626,0 v 0.712618 h 0.712618 v -0.712618 z m 0.950329,0 v 0.712618 h 0.712102 v -0.712618 z m 0.949813,0 v 0.712618 h 0.712618 v -0.712618 z m 0.949813,0 v 0.712618 h 0.712618 v -0.712618 z m 1.900143,0 v 0.712618 h 0.712101 v -0.712618 z m 0.949812,0 v 0.712618 h 0.712618 v -0.712618 z m 0.949813,0 v 0.712618 h 0.712618 v -0.712618 z m 0.95033,0 v 0.712618 h 0.712101 v -0.712618 z m 1.899625,0 v 0.712618 h 0.712618 v -0.712618 z m 0.95033,0 v 0.712618 h 0.712101 v -0.712618 z m 0.949813,0 v 0.712618 h 0.712618 v -0.712618 z m 0.949813,0 v 0.712618 h 0.712618 v -0.712618 z m 1.900142,0 v 0.712618 h 0.712101 v -0.712618 z m 1.899626,0 v 0.712618 h 0.712618 v -0.712618 z m 1.900142,0 v 0.712618 h 0.712618 v -0.712618 z m -61.747651,0.950329 v 0.712102 h 0.712618 v -0.712102 z m 2.849955,0 v 0.712102 h 0.712101 v -0.712102 z m 1.899625,0 v 0.712102 h 0.712618 v -0.712102 z m 1.900143,0 v 0.712102 h 0.712618 v -0.712102 z m 1.899625,0 v 0.712102 h 0.712618 v -0.712102 z m 1.900143,0 v 0.712102 h 0.712618 v -0.712102 z m 1.900142,0 v 0.712102 h 0.712101 v -0.712102 z m 2.849955,0 v 0.712102 h 0.712102 v -0.712102 z m 1.899626,0 v 0.712102 h 0.712618 v -0.712102 z m 3.799768,0 v 0.712102 h 0.712618 v -0.712102 z m 2.849955,0 v 0.712102 h 0.712618 v -0.712102 z m 4.750098,0 v 0.712102 h 0.712101 v -0.712102 z m 1.899625,0 v 0.712102 h 0.712618 v -0.712102 z m 2.849956,0 v 0.712102 h 0.712618 v -0.712102 z m 4.750097,0 v 0.712102 h 0.712101 v -0.712102 z m 1.899626,0 v 0.712102 h 0.712618 v -0.712102 z m 1.900142,0 v 0.712102 h 0.712102 v -0.712102 z m 1.899626,0 v 0.712102 h 0.712618 v -0.712102 z m 2.849955,0 v 0.712102 h 0.712618 v -0.712102 z m 4.750098,0 v 0.712102 h 0.712101 v -0.712102 z m 4.749581,0 v 0.712102 h 0.712618 v -0.712102 z m 1.900142,0 v 0.712102 h 0.712101 v -0.712102 z m 1.899626,0 v 0.712102 h 0.712618 v -0.712102 z m 1.900142,0 v 0.712102 h 0.712618 v -0.712102 z m -61.747651,0.949813 v 0.712618 h 0.712618 v -0.712618 z m 2.849955,0 v 0.712618 h 0.712101 v -0.712618 z m 1.899625,0 v 0.712618 h 0.712618 v -0.712618 z m 1.900143,0 v 0.712618 h 0.712618 v -0.712618 z m 1.899625,0 v 0.712618 h 0.712618 v -0.712618 z m 1.900143,0 v 0.712618 h 0.712618 v -0.712618 z m 1.900142,0 v 0.712618 h 0.712101 v -0.712618 z m 0.949813,0 v 0.712618 h 0.712618 v -0.712618 z m 0.949813,0 v 0.712618 h 0.712618 v -0.712618 z m 0.950329,0 v 0.712618 h 0.712102 v -0.712618 z m 1.899626,0 v 0.712618 h 0.712618 v -0.712618 z m 0.949813,0 v 0.712618 h 0.712618 v -0.712618 z m 0.950329,0 v 0.712618 h 0.712102 v -0.712618 z m 1.899626,0 v 0.712618 h 0.712618 v -0.712618 z m 0.95033,0 v 0.712618 h 0.712101 v -0.712618 z m 0.949812,0 v 0.712618 h 0.712618 v -0.712618 z m 0.949813,0 v 0.712618 h 0.712618 v -0.712618 z m 1.900143,0 v 0.712618 h 0.712101 v -0.712618 z m 0.949812,0 v 0.712618 h 0.712618 v -0.712618 z m 0.949813,0 v 0.712618 h 0.712618 v -0.712618 z m 0.95033,0 v 0.712618 h 0.712101 v -0.712618 z m 1.899625,0 v 0.712618 h 0.712618 v -0.712618 z m 0.949813,0 v 0.712618 h 0.712618 v -0.712618 z m 0.95033,0 v 0.712618 h 0.712618 v -0.712618 z m 0.949813,0 v 0.712618 h 0.712618 v -0.712618 z m 4.750097,0 v 0.712618 h 0.712101 v -0.712618 z m 1.899626,0 v 0.712618 h 0.712618 v -0.712618 z m 1.900142,0 v 0.712618 h 0.712102 v -0.712618 z m 1.899626,0 v 0.712618 h 0.712618 v -0.712618 z m 0.950329,0 v 0.712618 h 0.712102 v -0.712618 z m 0.949813,0 v 0.712618 h 0.712618 v -0.712618 z m 0.949813,0 v 0.712618 h 0.712618 v -0.712618 z m 1.900143,0 v 0.712618 h 0.712101 v -0.712618 z m 0.949812,0 v 0.712618 h 0.712618 v -0.712618 z m 0.949813,0 v 0.712618 h 0.712618 v -0.712618 z m 0.95033,0 v 0.712618 h 0.712101 v -0.712618 z m 1.899625,0 v 0.712618 h 0.712618 v -0.712618 z m 0.95033,0 v 0.712618 h 0.712101 v -0.712618 z m 0.949813,0 v 0.712618 h 0.712618 v -0.712618 z m 0.949813,0 v 0.712618 h 0.712618 v -0.712618 z m 1.900142,0 v 0.712618 h 0.712101 v -0.712618 z m 1.899626,0 v 0.712618 h 0.712618 v -0.712618 z m 0.950329,0 v 0.712618 h 0.712101 v -0.712618 z m 2.849439,0 v 0.712618 h 0.712618 v -0.712618 z m 1.900142,0 v 0.712618 h 0.712618 v -0.712618 z m 1.900142,0 v 0.712618 h 0.712102 v -0.712618 z m -29.774409,8.314738 v 0.715202 h 0.714685 v -0.715202 z m 0,0.913639 v 0.715719 h 0.714685 v -0.715719 z m 0,0.914156 v 5.17e-4 h -5.17e-4 v 0.714169 h 5.17e-4 v 10e-4 h 0.714685 v -10e-4 h 5.17e-4 v -0.714169 h -5.17e-4 v -5.17e-4 z m -40.216666,5.17e-4 v 0.714169 h 0.715201 v -0.714169 z m 0.913639,0 v 0.714169 h 0.715718 v -0.714169 z m 0.914156,0 v 0.714169 h 0.715719 v -0.714169 z m 0.914156,0 v 0.714169 h 0.715719 v -0.714169 z m 0.914156,0 v 0.714169 h 0.715202 v -0.714169 z m 0.913639,0 v 0.714169 h 0.715719 v -0.714169 z m 0.914157,0 v 0.714169 h 0.715718 v -0.714169 z m 0.914156,0 v 0.714169 h 0.715201 v -0.714169 z m 0.913639,0 v 0.714169 h 0.715718 v -0.714169 z m 0.914156,0 v 0.714169 h 0.715719 v -0.714169 z m 0.914156,0 v 0.714169 h 0.715719 v -0.714169 z m 0.914156,0 v 0.714169 h 0.715202 v -0.714169 z m 0.913639,0 v 0.714169 h 0.715719 v -0.714169 z m 0.914157,0 v 0.714169 h 0.715718 v -0.714169 z m 0.914156,0 v 0.714169 h 0.715201 v -0.714169 z m 0.913639,0 v 0.714169 h 0.715718 v -0.714169 z m 0.914156,0 v 0.714169 h 0.715719 v -0.714169 z m 0.914156,0 v 0.714169 h 0.715719 v -0.714169 z m 0.914156,0 v 0.714169 h 0.715202 v -0.714169 z m 0.913639,0 v 0.714169 h 0.715719 v -0.714169 z m 0.914157,0 v 0.714169 h 0.715718 v -0.714169 z m 0.914156,0 v 0.714169 h 0.715201 v -0.714169 z m 0.913639,0 v 0.714169 h 0.715718 v -0.714169 z m 0.914156,0 v 0.714169 h 0.715719 v -0.714169 z m 0.914156,0 v 0.714169 h 0.715719 v -0.714169 z m 0.914156,0 v 0.714169 h 0.715202 v -0.714169 z m 0.913639,0 v 0.714169 h 0.715719 v -0.714169 z m 0.914157,0 v 0.714169 h 0.715718 v -0.714169 z m 0.914156,0 v 0.714169 h 0.715201 v -0.714169 z m 0.913639,0 v 0.714169 h 0.715718 v -0.714169 z m 0.914156,0 v 0.714169 h 0.715719 v -0.714169 z m 0.914156,0 v 0.714169 h 0.715719 v -0.714169 z m 0.914156,0 v 0.714169 h 0.715202 v -0.714169 z m 0.913639,0 v 0.714169 h 0.715719 v -0.714169 z m 0.914157,0 v 0.714169 h 0.715718 v -0.714169 z m 0.914156,0 v 0.714169 h 0.715201 v -0.714169 z m 0.913639,0 v 0.714169 h 0.715718 v -0.714169 z m 0.914156,0 v 0.714169 h 0.715719 v -0.714169 z m 0.914156,0 v 0.714169 h 0.715202 v -0.714169 z m 0.914156,0 v 0.714169 h 0.715202 v -0.714169 z m 0.913639,0 v 0.714169 h 0.715719 v -0.714169 z m 0.914157,0 v 0.714169 h 0.715718 v -0.714169 z m 0.914156,0 v 0.714169 h 0.715201 v -0.714169 z m 0.913639,0 v 0.714169 h 0.715718 v -0.714169 z m 1.828312,0 v 0.714169 h 0.715719 v -0.714169 z m 0.914156,0 v 0.714169 h 0.715202 v -0.714169 z m 0.913639,0 v 0.714169 h 0.715719 v -0.714169 z m 0.914157,0 v 0.714169 h 0.715718 v -0.714169 z m 0.914156,0 v 0.714169 h 0.715201 v -0.714169 z m 0.913639,0 v 0.714169 h 0.715718 v -0.714169 z m 0.914156,0 v 0.714169 h 0.715719 v -0.714169 z m 0.914156,0 v 0.714169 h 0.715719 v -0.714169 z m 0.914156,0 v 0.714169 H 78.1451 v -0.714169 z m 0.913639,0 v 0.714169 h 0.715719 v -0.714169 z m 0.914157,0 v 0.714169 h 0.715718 v -0.714169 z m 0.914156,0 v 0.714169 h 0.715201 v -0.714169 z m 0.913639,0 v 0.714169 h 0.715718 v -0.714169 z m 0.914156,0 v 0.714169 h 0.715719 v -0.714169 z m 0.914156,0 v 0.714169 h 0.715202 v -0.714169 z m 0.913639,0 v 0.714169 h 0.715719 v -0.714169 z m 0.914156,0 v 0.714169 h 0.715719 v -0.714169 z m 0.914157,0 v 0.714169 h 0.715718 v -0.714169 z m 0.914156,0 v 0.714169 h 0.715201 v -0.714169 z m 0.913639,0 v 0.714169 h 0.715718 v -0.714169 z m 0.914156,0 v 0.714169 h 0.715719 v -0.714169 z m 0.914156,0 v 0.714169 h 0.715202 v -0.714169 z m 0.913639,0 v 0.714169 h 0.715719 v -0.714169 z m 0.914156,0 v 0.714169 h 0.715719 v -0.714169 z m 0.914157,0 v 0.714169 h 0.715718 v -0.714169 z m 0.914156,0 v 0.714169 h 0.715201 v -0.714169 z m 0.913639,0 v 0.714169 h 0.715718 v -0.714169 z m 0.914156,0 v 0.714169 h 0.715719 v -0.714169 z m 0.914156,0 v 0.714169 h 0.715202 v -0.714169 z m 0.913639,0 v 0.714169 h 0.715719 v -0.714169 z m 0.914156,0 v 0.714169 h 0.715719 v -0.714169 z m 0.914157,0 v 0.714169 h 0.715718 v -0.714169 z m 0.914156,0 v 0.714169 h 0.715203 v -0.714169 z m 0.913643,0 v 0.714169 h 0.71571 v -0.714169 z m 0.91415,0 v 0.714169 h 0.71572 v -0.714169 z m 0.91416,0 v 0.714169 h 0.7152 v -0.714169 z m 0.91364,0 v 0.714169 h 0.71572 v -0.714169 z m 0.91415,0 v 0.714169 h 0.71572 v -0.714169 z m 0.91416,0 v 0.714169 h 0.71572 v -0.714169 z m 0.91416,0 v 0.714169 h 0.7152 v -0.714169 z m -36.560046,0.91364 v 0.715201 h 0.714685 v -0.715201 z m 0,0.913639 v 0.715718 h 0.714685 v -0.715718 z m 2.364196,3.789433 v 0.712101 h 0.712618 v -0.712101 z m 0.949813,0 v 0.712101 h 0.712618 v -0.712101 z m 0.95033,0 v 0.712101 h 0.712101 v -0.712101 z m 0.949813,0 v 0.712101 h 0.712618 v -0.712101 z m 3.799768,0 v 0.712101 h 0.712618 v -0.712101 z m 0.949813,0 v 0.712101 h 0.712618 v -0.712101 z m 0.950329,0 v 0.712101 h 0.712101 v -0.712101 z m 0.949813,0 v 0.712101 h 0.712618 v -0.712101 z m 1.900142,0 v 0.712101 h 0.712102 v -0.712101 z m 0.949813,0 v 0.712101 h 0.712618 v -0.712101 z m 0.949813,0 v 0.712101 h 0.712618 v -0.712101 z m 4.750098,0 v 0.712101 h 0.712101 v -0.712101 z m 4.74958,0 v 0.712101 h 0.712618 v -0.712101 z m 2.849956,0 v 0.712101 h 0.712618 v -0.712101 z m 3.799769,0 v 0.712101 h 0.71262 v -0.712101 z m 0.94981,0 v 0.712101 h 0.71262 v -0.712101 z m 1.90014,0 v 0.712101 h 0.71262 v -0.712101 z m 0.94982,0 v 0.712101 h 0.71261 v -0.712101 z m 0.95033,0 v 0.712101 h 0.7121 v -0.712101 z m -31.348994,0.949812 v 0.712618 h 0.712618 v -0.712618 z m 6.649723,0 v 0.712618 h 0.712618 v -0.712618 z m 3.799768,0 v 0.712618 h 0.712618 v -0.712618 z m 4.750098,0 v 0.712618 h 0.712101 v -0.712618 z m 4.74958,0 v 0.712618 h 0.712618 v -0.712618 z m 2.849956,0 v 0.712618 h 0.712618 v -0.712618 z m 4.749579,0 v 0.712618 h 0.71262 v -0.712618 z m 3.80029,0 v 0.712618 h 0.7121 v -0.712618 z m -34.19895,0.949813 v 0.712618 h 0.712618 v -0.712618 z m 0.949813,0 v 0.712618 h 0.712618 v -0.712618 z m 0.95033,0 v 0.712618 h 0.712101 v -0.712618 z m 0.949813,0 v 0.712618 h 0.712618 v -0.712618 z m 1.900142,0 v 0.712618 h 0.712101 v -0.712618 z m 1.899626,0 v 0.712618 h 0.712618 v -0.712618 z m 0.949813,0 v 0.712618 h 0.712618 v -0.712618 z m 0.950329,0 v 0.712618 h 0.712101 v -0.712618 z m 0.949813,0 v 0.712618 h 0.712618 v -0.712618 z m 3.799768,0 v 0.712618 h 0.712618 v -0.712618 z m 4.750098,0 v 0.712618 h 0.712101 v -0.712618 z m 4.74958,0 v 0.712618 h 0.712618 v -0.712618 z m 0.949813,0 v 0.712618 h 0.712618 v -0.712618 z m 0.95033,0 v 0.712618 h 0.712101 v -0.712618 z m 0.949813,0 v 0.712618 h 0.712618 v -0.712618 z m 1.900142,0 v 0.712618 h 0.712101 v -0.712618 z m 2.849437,0 v 0.712618 h 0.71262 v -0.712618 z m 3.80029,0 v 0.712618 h 0.7121 v -0.712618 z m -34.19895,0.949813 v 0.712618 h 0.712618 v -0.712618 z m 9.499679,0 v 0.712618 h 0.712618 v -0.712618 z m 3.799768,0 v 0.712618 h 0.712618 v -0.712618 z m 4.750098,0 v 0.712618 h 0.712101 v -0.712618 z m 7.599536,0 v 0.712618 h 0.712618 v -0.712618 z m 4.749579,0 v 0.712618 h 0.71262 v -0.712618 z m 3.80029,0 v 0.712618 h 0.7121 v -0.712618 z m -34.19895,0.95033 v 0.712101 h 0.712618 v -0.712101 z m 0.949813,0 v 0.712101 h 0.712618 v -0.712101 z m 0.95033,0 v 0.712101 h 0.712101 v -0.712101 z m 0.949813,0 v 0.712101 h 0.712618 v -0.712101 z m 1.900142,0 v 0.712101 h 0.712101 v -0.712101 z m 1.899626,0 v 0.712101 h 0.712618 v -0.712101 z m 0.949813,0 v 0.712101 h 0.712618 v -0.712101 z m 0.950329,0 v 0.712101 h 0.712101 v -0.712101 z m 0.949813,0 v 0.712101 h 0.712618 v -0.712101 z m 3.799768,0 v 0.712101 h 0.712618 v -0.712101 z m 4.750098,0 v 0.712101 h 0.712101 v -0.712101 z m 7.599536,0 v 0.712101 h 0.712618 v -0.712101 z m 1.900142,0 v 0.712101 h 0.712101 v -0.712101 z m 2.849437,0 v 0.712101 h 0.71262 v -0.712101 z m 3.80029,0 v 0.712101 h 0.7121 v -0.712101 z" />
      <path
         id="rect96"
         style="font-variation-settings:'opsz' 32;display:inline;fill:#00ff00;fill-opacity:1;stroke:none;stroke-width:8.46667;stroke-linecap:round;stroke-linejoin:round;stroke-miterlimit:12;stroke-dasharray:none;stroke-opacity:1;paint-order:markers stroke fill"
         d="m 31.530892,14.844572 v 0.712618 h 0.712618 v -0.712618 z m 1.899625,0 v 0.712618 h 0.712618 v -0.712618 z m 0.95033,0 v 0.712618 h 0.712101 v -0.712618 z m 0.949813,0 v 0.712618 h 0.712618 v -0.712618 z m 0.949812,0 v 0.712618 h 0.712618 v -0.712618 z m 1.900143,0 v 0.712618 h 0.712618 v -0.712618 z m 0.949813,0 v 0.712618 h 0.712618 v -0.712618 z m 0.949812,0 v 0.712618 h 0.712618 v -0.712618 z m 0.95033,0 v 0.712618 h 0.712101 v -0.712618 z m 1.899626,0 v 0.712618 h 0.712618 v -0.712618 z m 0.950329,0 v 0.712618 h 0.712101 v -0.712618 z m 0.949813,0 v 0.712618 h 0.712618 v -0.712618 z m 1.900142,0 v 0.712618 h 0.712102 v -0.712618 z m 0.949813,0 v 0.712618 h 0.712618 v -0.712618 z m 0.949813,0 v 0.712618 h 0.712618 v -0.712618 z m 1.900142,0 v 0.712618 h 0.712102 v -0.712618 z m 0.949813,0 v 0.712618 h 0.712618 v -0.712618 z m 0.949813,0 v 0.712618 h 0.712618 v -0.712618 z m -18.999357,0.950329 v 0.712102 h 0.712618 v -0.712102 z m 2.849955,0 v 0.712102 h 0.712618 v -0.712102 z m 1.900143,0 v 0.712102 h 0.712618 v -0.712102 z m 2.849955,0 v 0.712102 h 0.712101 v -0.712102 z m 1.899626,0 v 0.712102 h 0.712618 v -0.712102 z m 3.800284,0 v 0.712102 h 0.712102 v -0.712102 z m 3.799768,0 v 0.712102 h 0.712102 v -0.712102 z m -18.999356,0.949813 v 0.712618 h 0.712618 v -0.712618 z m 1.899625,0 v 0.712618 h 0.712618 v -0.712618 z m 0.95033,0 v 0.712618 h 0.712101 v -0.712618 z m 0.949813,0 v 0.712618 h 0.712618 v -0.712618 z m 0.949812,0 v 0.712618 h 0.712618 v -0.712618 z m 1.900143,0 v 0.712618 h 0.712618 v -0.712618 z m 2.849955,0 v 0.712618 h 0.712101 v -0.712618 z m 1.899626,0 v 0.712618 h 0.712618 v -0.712618 z m 3.800284,0 v 0.712618 h 0.712102 v -0.712618 z m 3.799768,0 v 0.712618 h 0.712102 v -0.712618 z m -18.999356,0.949813 v 0.712618 h 0.712618 v -0.712618 z m 4.74958,0 v 0.712618 h 0.712618 v -0.712618 z m 1.900143,0 v 0.712618 h 0.712618 v -0.712618 z m 2.849955,0 v 0.712618 h 0.712101 v -0.712618 z m 1.899626,0 v 0.712618 h 0.712618 v -0.712618 z m 3.800284,0 v 0.712618 h 0.712102 v -0.712618 z m 3.799768,0 v 0.712618 h 0.712102 v -0.712618 z m -18.999356,0.95033 v 0.712101 h 0.712618 v -0.712101 z m 1.899625,0 v 0.712101 h 0.712618 v -0.712101 z m 0.95033,0 v 0.712101 h 0.712101 v -0.712101 z m 0.949813,0 v 0.712101 h 0.712618 v -0.712101 z m 0.949812,0 v 0.712101 h 0.712618 v -0.712101 z m 1.900143,0 v 0.712101 h 0.712618 v -0.712101 z m 0.949813,0 v 0.712101 h 0.712618 v -0.712101 z m 0.949812,0 v 0.712101 h 0.712618 v -0.712101 z m 0.95033,0 v 0.712101 h 0.712101 v -0.712101 z m 1.899626,0 v 0.712101 h 0.712618 v -0.712101 z m 3.800284,0 v 0.712101 h 0.712102 v -0.712101 z m 3.799768,0 v 0.712101 h 0.712102 v -0.712101 z m -18.999356,8.074442 v 0.712618 h 0.712618 v -0.712618 z m 0.949812,0 v 0.712618 h 0.712618 v -0.712618 z m 0.949813,0 v 0.712618 h 0.712618 v -0.712618 z m 0.95033,0 v 0.712618 h 0.712101 v -0.712618 z m 1.899625,0 v 0.712618 h 0.712618 v -0.712618 z m 0.95033,0 v 0.712618 h 0.712101 v -0.712618 z m 0.949813,0 v 0.712618 h 0.712618 v -0.712618 z m 0.949813,0 v 0.712618 h 0.712618 v -0.712618 z m 1.900142,0 v 0.712618 h 0.712101 v -0.712618 z m 1.899626,0 v 0.712618 h 0.712618 v -0.712618 z m 0.950329,0 v 0.712618 h 0.712101 v -0.712618 z m 0.949813,0 v 0.712618 h 0.712618 v -0.712618 z m 1.900142,0 v 0.712618 h 0.712102 v -0.712618 z m 1.899626,0 v 0.712618 h 0.712618 v -0.712618 z m 3.809587,0 v 0.712618 h 0.712101 v -0.712618 z m 2.849955,0 v 0.712618 h 0.712101 v -0.712618 z m 1.899625,0 v 0.712618 h 0.712618 v -0.712618 z m 0.949813,0 v 0.712618 h 0.712618 v -0.712618 z m 0.95033,0 v 0.712618 h 0.712101 v -0.712618 z m 0.949813,0 v 0.712618 h 0.712618 v -0.712618 z m 1.900142,0 v 0.712618 h 0.712101 v -0.712618 z m 3.799768,0 v 0.712618 h 0.712101 v -0.712618 z m 1.899626,0 v 0.712618 h 0.712618 v -0.712618 z m 3.809586,0 v 0.712618 h 0.712618 v -0.712618 z m 2.849955,0 v 0.712618 h 0.712102 v -0.712618 z m 4.749581,0 v 0.712618 h 0.712618 v -0.712618 z m 0.95033,0 v 0.712618 h 0.712101 v -0.712618 z m 0.949813,0 v 0.712618 h 0.712618 v -0.712618 z m 0.949812,0 v 0.712618 h 0.712618 v -0.712618 z m 1.900143,0 v 0.712618 h 0.712101 v -0.712618 z m 0.949813,0 v 0.712618 h 0.712618 v -0.712618 z m 0.949812,0 v 0.712618 h 0.712618 v -0.712618 z m 0.95033,0 v 0.712618 h 0.712101 v -0.712618 z m 4.749581,0 v 0.712618 h 0.712618 v -0.712618 z m -59.866629,0.949813 v 0.712618 h 0.712618 v -0.712618 z m 4.74958,0 v 0.712618 h 0.712618 v -0.712618 z m 2.849956,0 v 0.712618 h 0.712618 v -0.712618 z m 3.799768,0 v 0.712618 h 0.712618 v -0.712618 z m 5.69991,0 v 0.712618 h 0.712618 v -0.712618 z m 0.949813,0 v 0.712618 h 0.712618 v -0.712618 z m 0.950329,0 v 0.712618 h 0.712102 v -0.712618 z m 1.909445,0 v 0.712618 h 0.712101 v -0.712618 z m 2.849955,0 v 0.712618 h 0.712101 v -0.712618 z m 4.749581,0 v 0.712618 h 0.712618 v -0.712618 z m 1.900142,0 v 0.712618 h 0.712101 v -0.712618 z m 5.699394,0 v 0.712618 h 0.712618 v -0.712618 z m 0.950329,0 v 0.712618 h 0.712101 v -0.712618 z m 0.949813,0 v 0.712618 h 0.712618 v -0.712618 z m 1.909444,0 v 0.712618 h 0.712618 v -0.712618 z m 2.849955,0 v 0.712618 h 0.712102 v -0.712618 z m 7.599536,0 v 0.712618 h 0.712618 v -0.712618 z m 1.900143,0 v 0.712618 h 0.712101 v -0.712618 z m 2.849955,0 v 0.712618 h 0.712101 v -0.712618 z m 1.899626,0 v 0.712618 h 0.712618 v -0.712618 z m 0.949812,0 v 0.712618 h 0.712618 v -0.712618 z m 0.95033,0 v 0.712618 h 0.712101 v -0.712618 z m 0.949813,0 v 0.712618 h 0.712618 v -0.712618 z m -59.866629,0.950329 v 0.712102 h 0.712618 v -0.712102 z m 0.949812,0 v 0.712102 h 0.712618 v -0.712102 z m 0.949813,0 v 0.712102 h 0.712618 v -0.712102 z m 0.95033,0 v 0.712102 h 0.712101 v -0.712102 z m 1.899625,0 v 0.712102 h 0.712618 v -0.712102 z m 0.95033,0 v 0.712102 h 0.712101 v -0.712102 z m 0.949813,0 v 0.712102 h 0.712618 v -0.712102 z m 0.949813,0 v 0.712102 h 0.712618 v -0.712102 z m 1.900142,0 v 0.712102 h 0.712101 v -0.712102 z m 1.899626,0 v 0.712102 h 0.712618 v -0.712102 z m 3.800284,0 v 0.712102 h 0.712102 v -0.712102 z m 1.899626,0 v 0.712102 h 0.712618 v -0.712102 z m 3.809587,0 v 0.712102 h 0.712101 v -0.712102 z m 2.849955,0 v 0.712102 h 0.712101 v -0.712102 z m 1.899625,0 v 0.712102 h 0.712618 v -0.712102 z m 0.949813,0 v 0.712102 h 0.712618 v -0.712102 z m 0.95033,0 v 0.712102 h 0.712101 v -0.712102 z m 0.949813,0 v 0.712102 h 0.712618 v -0.712102 z m 1.900142,0 v 0.712102 h 0.712101 v -0.712102 z m 3.799768,0 v 0.712102 h 0.712101 v -0.712102 z m 1.899626,0 v 0.712102 h 0.712618 v -0.712102 z m 3.809586,0 v 0.712102 h 0.712618 v -0.712102 z m 0.949813,0 v 0.712102 h 0.712618 v -0.712102 z m 0.949813,0 v 0.712102 h 0.712618 v -0.712102 z m 0.950329,0 v 0.712102 h 0.712102 v -0.712102 z m 4.749581,0 v 0.712102 h 0.712618 v -0.712102 z m 0.95033,0 v 0.712102 h 0.712101 v -0.712102 z m 0.949813,0 v 0.712102 h 0.712618 v -0.712102 z m 0.949812,0 v 0.712102 h 0.712618 v -0.712102 z m 1.900143,0 v 0.712102 h 0.712101 v -0.712102 z m 2.849955,0 v 0.712102 h 0.712101 v -0.712102 z m 1.899626,0 v 0.712102 h 0.712618 v -0.712102 z m 2.849955,0 v 0.712102 h 0.712618 v -0.712102 z m -57.016674,0.949813 v 0.712618 h 0.712101 v -0.712618 z m 1.899625,0 v 0.712618 h 0.712618 v -0.712618 z m 4.750098,0 v 0.712618 h 0.712101 v -0.712618 z m 1.899626,0 v 0.712618 h 0.712618 v -0.712618 z m 3.800284,0 v 0.712618 h 0.712102 v -0.712618 z m 1.899626,0 v 0.712618 h 0.712618 v -0.712618 z m 3.809587,0 v 0.712618 h 0.712101 v -0.712618 z m 2.849955,0 v 0.712618 h 0.712101 v -0.712618 z m 1.899625,0 v 0.712618 h 0.712618 v -0.712618 z m 2.849956,0 v 0.712618 h 0.712618 v -0.712618 z m 1.900142,0 v 0.712618 h 0.712101 v -0.712618 z m 3.799768,0 v 0.712618 h 0.712101 v -0.712618 z m 1.899626,0 v 0.712618 h 0.712618 v -0.712618 z m 6.659541,0 v 0.712618 h 0.712102 v -0.712618 z m 4.749581,0 v 0.712618 h 0.712618 v -0.712618 z m 2.849955,0 v 0.712618 h 0.712618 v -0.712618 z m 1.900143,0 v 0.712618 h 0.712101 v -0.712618 z m 2.849955,0 v 0.712618 h 0.712101 v -0.712618 z m 1.899626,0 v 0.712618 h 0.712618 v -0.712618 z m 2.849955,0 v 0.712618 h 0.712618 v -0.712618 z m -59.866629,0.949813 v 0.712618 h 0.712618 v -0.712618 z m 0.949812,0 v 0.712618 h 0.712618 v -0.712618 z m 0.949813,0 v 0.712618 h 0.712618 v -0.712618 z m 0.95033,0 v 0.712618 h 0.712101 v -0.712618 z m 1.899625,0 v 0.712618 h 0.712618 v -0.712618 z m 4.750098,0 v 0.712618 h 0.712101 v -0.712618 z m 1.899626,0 v 0.712618 h 0.712618 v -0.712618 z m 3.800284,0 v 0.712618 h 0.712102 v -0.712618 z m 1.899626,0 v 0.712618 h 0.712618 v -0.712618 z m 3.809587,0 v 0.712618 h 0.712101 v -0.712618 z m 0.949812,0 v 0.712618 h 0.712618 v -0.712618 z m 0.949813,0 v 0.712618 h 0.712618 v -0.712618 z m 0.95033,0 v 0.712618 h 0.712101 v -0.712618 z m 1.899625,0 v 0.712618 h 0.712618 v -0.712618 z m 0.949813,0 v 0.712618 h 0.712618 v -0.712618 z m 0.95033,0 v 0.712618 h 0.712101 v -0.712618 z m 0.949813,0 v 0.712618 h 0.712618 v -0.712618 z m 1.900142,0 v 0.712618 h 0.712101 v -0.712618 z m 0.949813,0 v 0.712618 h 0.712618 v -0.712618 z m 0.949813,0 v 0.712618 h 0.712618 v -0.712618 z m 1.900142,0 v 0.712618 h 0.712101 v -0.712618 z m 1.899626,0 v 0.712618 h 0.712618 v -0.712618 z m 3.809586,0 v 0.712618 h 0.712618 v -0.712618 z m 0.949813,0 v 0.712618 h 0.712618 v -0.712618 z m 0.949813,0 v 0.712618 h 0.712618 v -0.712618 z m 0.950329,0 v 0.712618 h 0.712102 v -0.712618 z m 4.749581,0 v 0.712618 h 0.712618 v -0.712618 z m 0.95033,0 v 0.712618 h 0.712101 v -0.712618 z m 0.949813,0 v 0.712618 h 0.712618 v -0.712618 z m 0.949812,0 v 0.712618 h 0.712618 v -0.712618 z m 1.900143,0 v 0.712618 h 0.712101 v -0.712618 z m 2.849955,0 v 0.712618 h 0.712101 v -0.712618 z m 1.899626,0 v 0.712618 h 0.712618 v -0.712618 z m 0.949812,0 v 0.712618 h 0.712618 v -0.712618 z m 0.95033,0 v 0.712618 h 0.712101 v -0.712618 z m 0.949813,0 v 0.712618 h 0.712618 v -0.712618 z m 4.749581,0 v 0.712618 h 0.712618 v -0.712618 z m 1.900142,0 v 0.712618 h 0.712618 v -0.712618 z m 1.900142,0 v 0.712618 h 0.712104 v -0.712618 z m -68.416494,8.074959 v 0.712101 h 0.712618 v -0.712101 z m 4.74958,0 v 0.712101 h 0.712618 v -0.712101 z m 1.900143,0 v 0.712101 h 0.712618 v -0.712101 z m 0.949813,0 v 0.712101 h 0.712618 v -0.712101 z m 0.949812,0 v 0.712101 h 0.712618 v -0.712101 z m 0.95033,0 v 0.712101 h 0.712101 v -0.712101 z m 0.949813,0 v 0.712101 h 0.712618 v -0.712101 z m 1.900142,0 v 0.712101 h 0.712101 v -0.712101 z m 0.949813,0 v 0.712101 h 0.712618 v -0.712101 z m 0.949813,0 v 0.712101 h 0.712618 v -0.712101 z m 0.950329,0 v 0.712101 h 0.712102 v -0.712101 z m 1.899626,0 v 0.712101 h 0.712618 v -0.712101 z m 3.799768,0 v 0.712101 h 0.712618 v -0.712101 z m 0.95033,0 v 0.712101 h 0.712101 v -0.712101 z m 0.949812,0 v 0.712101 h 0.712618 v -0.712101 z m 0.949813,0 v 0.712101 h 0.712618 v -0.712101 z m 1.900143,0 v 0.712101 h 0.712101 v -0.712101 z m 2.849955,0 v 0.712101 h 0.712101 v -0.712101 z m 1.899625,0 v 0.712101 h 0.712618 v -0.712101 z m 0.949813,0 v 0.712101 h 0.712618 v -0.712101 z m 0.95033,0 v 0.712101 h 0.712618 v -0.712101 z m 0.949813,0 v 0.712101 h 0.712618 v -0.712101 z m 4.750097,0 v 0.712101 h 0.712101 v -0.712101 z m 0.949813,0 v 0.712101 h 0.712618 v -0.712101 z m 0.949813,0 v 0.712101 h 0.712618 v -0.712101 z m 0.949813,0 v 0.712101 h 0.712618 v -0.712101 z m 0.950329,0 v 0.712101 h 0.712102 v -0.712101 z m 1.899626,0 v 0.712101 h 0.712618 v -0.712101 z m 0.950329,0 v 0.712101 h 0.712102 v -0.712101 z m 0.949813,0 v 0.712101 h 0.712618 v -0.712101 z m 0.949813,0 v 0.712101 h 0.712618 v -0.712101 z m 1.900143,0 v 0.712101 h 0.712101 v -0.712101 z m 0.949812,0 v 0.712101 h 0.712618 v -0.712101 z m 0.949813,0 v 0.712101 h 0.712618 v -0.712101 z m 0.95033,0 v 0.712101 h 0.712101 v -0.712101 z m 1.899625,0 v 0.712101 h 0.712618 v -0.712101 z m 0.95033,0 v 0.712101 h 0.712101 v -0.712101 z m 0.949813,0 v 0.712101 h 0.712618 v -0.712101 z m 0.949813,0 v 0.712101 h 0.712618 v -0.712101 z m 1.900142,0 v 0.712101 h 0.712101 v -0.712101 z m 1.899626,0 v 0.712101 h 0.712618 v -0.712101 z m 2.849955,0 v 0.712101 h 0.712618 v -0.712101 z m -62.697464,0.949813 v 0.712618 h 0.712618 v -0.712618 z m 0.949812,0 v 0.712618 h 0.712618 v -0.712618 z m 0.949813,0 v 0.712618 h 0.712618 v -0.712618 z m 0.95033,0 v 0.712618 h 0.712101 v -0.712618 z m 3.799768,0 v 0.712618 h 0.712618 v -0.712618 z m 1.899625,0 v 0.712618 h 0.712618 v -0.712618 z m 1.900143,0 v 0.712618 h 0.712618 v -0.712618 z m 4.750097,0 v 0.712618 h 0.712102 v -0.712618 z m 1.899626,0 v 0.712618 h 0.712618 v -0.712618 z m 6.649723,0 v 0.712618 h 0.712618 v -0.712618 z m 1.900143,0 v 0.712618 h 0.712101 v -0.712618 z m 2.849955,0 v 0.712618 h 0.712101 v -0.712618 z m 4.749581,0 v 0.712618 h 0.712618 v -0.712618 z m 4.750097,0 v 0.712618 h 0.712101 v -0.712618 z m 1.899626,0 v 0.712618 h 0.712618 v -0.712618 z m 1.900142,0 v 0.712618 h 0.712102 v -0.712618 z m 4.749581,0 v 0.712618 h 0.712618 v -0.712618 z m 1.900143,0 v 0.712618 h 0.712101 v -0.712618 z m 4.74958,0 v 0.712618 h 0.712618 v -0.712618 z m 6.649724,0 v 0.712618 h 0.712618 v -0.712618 z m 2.849955,0 v 0.712618 h 0.712618 v -0.712618 z m -62.697464,0.949813 v 0.712618 h 0.712618 v -0.712618 z m 2.849955,0 v 0.712618 h 0.712101 v -0.712618 z m 1.899625,0 v 0.712618 h 0.712618 v -0.712618 z m 1.900143,0 v 0.712618 h 0.712618 v -0.712618 z m 1.899625,0 v 0.712618 h 0.712618 v -0.712618 z m 1.900143,0 v 0.712618 h 0.712618 v -0.712618 z m 1.900142,0 v 0.712618 h 0.712101 v -0.712618 z m 0.949813,0 v 0.712618 h 0.712618 v -0.712618 z m 0.949813,0 v 0.712618 h 0.712618 v -0.712618 z m 0.950329,0 v 0.712618 h 0.712102 v -0.712618 z m 1.899626,0 v 0.712618 h 0.712618 v -0.712618 z m 3.799768,0 v 0.712618 h 0.712618 v -0.712618 z m 0.95033,0 v 0.712618 h 0.712101 v -0.712618 z m 0.949812,0 v 0.712618 h 0.712618 v -0.712618 z m 0.949813,0 v 0.712618 h 0.712618 v -0.712618 z m 1.900143,0 v 0.712618 h 0.712101 v -0.712618 z m 0.949812,0 v 0.712618 h 0.712618 v -0.712618 z m 0.949813,0 v 0.712618 h 0.712618 v -0.712618 z m 0.95033,0 v 0.712618 h 0.712101 v -0.712618 z m 1.899625,0 v 0.712618 h 0.712618 v -0.712618 z m 0.949813,0 v 0.712618 h 0.712618 v -0.712618 z m 0.95033,0 v 0.712618 h 0.712618 v -0.712618 z m 0.949813,0 v 0.712618 h 0.712618 v -0.712618 z m 4.750097,0 v 0.712618 h 0.712101 v -0.712618 z m 1.899626,0 v 0.712618 h 0.712618 v -0.712618 z m 1.900142,0 v 0.712618 h 0.712102 v -0.712618 z m 1.899626,0 v 0.712618 h 0.712618 v -0.712618 z m 0.950329,0 v 0.712618 h 0.712102 v -0.712618 z m 0.949813,0 v 0.712618 h 0.712618 v -0.712618 z m 0.949813,0 v 0.712618 h 0.712618 v -0.712618 z m 1.900143,0 v 0.712618 h 0.712101 v -0.712618 z m 0.949812,0 v 0.712618 h 0.712618 v -0.712618 z m 0.949813,0 v 0.712618 h 0.712618 v -0.712618 z m 0.95033,0 v 0.712618 h 0.712101 v -0.712618 z m 1.899625,0 v 0.712618 h 0.712618 v -0.712618 z m 0.95033,0 v 0.712618 h 0.712101 v -0.712618 z m 0.949813,0 v 0.712618 h 0.712618 v -0.712618 z m 0.949813,0 v 0.712618 h 0.712618 v -0.712618 z m 1.900142,0 v 0.712618 h 0.712101 v -0.712618 z m 1.899626,0 v 0.712618 h 0.712618 v -0.712618 z m 1.900142,0 v 0.712618 h 0.712618 v -0.712618 z m -61.747651,0.950329 v 0.712102 h 0.712618 v -0.712102 z m 2.849955,0 v 0.712102 h 0.712101 v -0.712102 z m 1.899625,0 v 0.712102 h 0.712618 v -0.712102 z m 1.900143,0 v 0.712102 h 0.712618 v -0.712102 z m 1.899625,0 v 0.712102 h 0.712618 v -0.712102 z m 1.900143,0 v 0.712102 h 0.712618 v -0.712102 z m 1.900142,0 v 0.712102 h 0.712101 v -0.712102 z m 2.849955,0 v 0.712102 h 0.712102 v -0.712102 z m 1.899626,0 v 0.712102 h 0.712618 v -0.712102 z m 3.799768,0 v 0.712102 h 0.712618 v -0.712102 z m 2.849955,0 v 0.712102 h 0.712618 v -0.712102 z m 4.750098,0 v 0.712102 h 0.712101 v -0.712102 z m 1.899625,0 v 0.712102 h 0.712618 v -0.712102 z m 2.849956,0 v 0.712102 h 0.712618 v -0.712102 z m 4.750097,0 v 0.712102 h 0.712101 v -0.712102 z m 1.899626,0 v 0.712102 h 0.712618 v -0.712102 z m 1.900142,0 v 0.712102 h 0.712102 v -0.712102 z m 1.899626,0 v 0.712102 h 0.712618 v -0.712102 z m 2.849955,0 v 0.712102 h 0.712618 v -0.712102 z m 4.750098,0 v 0.712102 h 0.712101 v -0.712102 z m 4.749581,0 v 0.712102 h 0.712618 v -0.712102 z m 1.900142,0 v 0.712102 h 0.712101 v -0.712102 z m 1.899626,0 v 0.712102 h 0.712618 v -0.712102 z m 1.900142,0 v 0.712102 h 0.712618 v -0.712102 z m -61.747651,0.949813 v 0.712618 h 0.712618 v -0.712618 z m 2.849955,0 v 0.712618 h 0.712101 v -0.712618 z m 1.899625,0 v 0.712618 h 0.712618 v -0.712618 z m 1.900143,0 v 0.712618 h 0.712618 v -0.712618 z m 1.899625,0 v 0.712618 h 0.712618 v -0.712618 z m 1.900143,0 v 0.712618 h 0.712618 v -0.712618 z m 1.900142,0 v 0.712618 h 0.712101 v -0.712618 z m 0.949813,0 v 0.712618 h 0.712618 v -0.712618 z m 0.949813,0 v 0.712618 h 0.712618 v -0.712618 z m 0.950329,0 v 0.712618 h 0.712102 v -0.712618 z m 1.899626,0 v 0.712618 h 0.712618 v -0.712618 z m 0.949813,0 v 0.712618 h 0.712618 v -0.712618 z m 0.950329,0 v 0.712618 h 0.712102 v -0.712618 z m 1.899626,0 v 0.712618 h 0.712618 v -0.712618 z m 0.95033,0 v 0.712618 h 0.712101 v -0.712618 z m 0.949812,0 v 0.712618 h 0.712618 v -0.712618 z m 0.949813,0 v 0.712618 h 0.712618 v -0.712618 z m 1.900143,0 v 0.712618 h 0.712101 v -0.712618 z m 0.949812,0 v 0.712618 h 0.712618 v -0.712618 z m 0.949813,0 v 0.712618 h 0.712618 v -0.712618 z m 0.95033,0 v 0.712618 h 0.712101 v -0.712618 z m 1.899625,0 v 0.712618 h 0.712618 v -0.712618 z m 0.949813,0 v 0.712618 h 0.712618 v -0.712618 z m 0.95033,0 v 0.712618 h 0.712618 v -0.712618 z m 0.949813,0 v 0.712618 h 0.712618 v -0.712618 z m 4.750097,0 v 0.712618 h 0.712101 v -0.712618 z m 1.899626,0 v 0.712618 h 0.712618 v -0.712618 z m 1.900142,0 v 0.712618 h 0.712102 v -0.712618 z m 1.899626,0 v 0.712618 h 0.712618 v -0.712618 z m 0.950329,0 v 0.712618 h 0.712102 v -0.712618 z m 0.949813,0 v 0.712618 h 0.712618 v -0.712618 z m 0.949813,0 v 0.712618 h 0.712618 v -0.712618 z m 1.900143,0 v 0.712618 h 0.712101 v -0.712618 z m 0.949812,0 v 0.712618 h 0.712618 v -0.712618 z m 0.949813,0 v 0.712618 h 0.712618 v -0.712618 z m 0.95033,0 v 0.712618 h 0.712101 v -0.712618 z m 1.899625,0 v 0.712618 h 0.712618 v -0.712618 z m 0.95033,0 v 0.712618 h 0.712101 v -0.712618 z m 0.949813,0 v 0.712618 h 0.712618 v -0.712618 z m 0.949813,0 v 0.712618 h 0.712618 v -0.712618 z m 1.900142,0 v 0.712618 h 0.712101 v -0.712618 z m 1.899626,0 v 0.712618 h 0.712618 v -0.712618 z m 0.950329,0 v 0.712618 h 0.712101 v -0.712618 z m 2.849439,0 v 0.712618 h 0.712618 v -0.712618 z m 1.900142,0 v 0.712618 h 0.712618 v -0.712618 z m 1.900142,0 v 0.712618 h 0.712102 v -0.712618 z m -29.774409,8.314738 v 0.715202 h 0.714685 v -0.715202 z m 0,0.913639 v 0.715719 h 0.714685 v -0.715719 z m 0,0.914156 v 5.17e-4 h -5.17e-4 v 0.714169 h 5.17e-4 v 10e-4 h 0.714685 v -10e-4 h 5.17e-4 v -0.714169 h -5.17e-4 v -5.17e-4 z m -40.216666,5.17e-4 v 0.714169 h 0.715201 v -0.714169 z m 0.913639,0 v 0.714169 h 0.715718 v -0.714169 z m 0.914156,0 v 0.714169 h 0.715719 v -0.714169 z m 0.914156,0 v 0.714169 h 0.715719 v -0.714169 z m 0.914156,0 v 0.714169 h 0.715202 v -0.714169 z m 0.913639,0 v 0.714169 h 0.715719 v -0.714169 z m 0.914157,0 v 0.714169 h 0.715718 v -0.714169 z m 0.914156,0 v 0.714169 h 0.715201 v -0.714169 z m 0.913639,0 v 0.714169 h 0.715718 v -0.714169 z m 0.914156,0 v 0.714169 h 0.715719 v -0.714169 z m 0.914156,0 v 0.714169 h 0.715719 v -0.714169 z m 0.914156,0 v 0.714169 h 0.715202 v -0.714169 z m 0.913639,0 v 0.714169 h 0.715719 v -0.714169 z m 0.914157,0 v 0.714169 h 0.715718 v -0.714169 z m 0.914156,0 v 0.714169 h 0.715201 v -0.714169 z m 0.913639,0 v 0.714169 h 0.715718 v -0.714169 z m 0.914156,0 v 0.714169 h 0.715719 v -0.714169 z m 0.914156,0 v 0.714169 h 0.715719 v -0.714169 z m 0.914156,0 v 0.714169 h 0.715202 v -0.714169 z m 0.913639,0 v 0.714169 h 0.715719 v -0.714169 z m 0.914157,0 v 0.714169 h 0.715718 v -0.714169 z m 0.914156,0 v 0.714169 h 0.715201 v -0.714169 z m 0.913639,0 v 0.714169 h 0.715718 v -0.714169 z m 0.914156,0 v 0.714169 h 0.715719 v -0.714169 z m 0.914156,0 v 0.714169 h 0.715719 v -0.714169 z m 0.914156,0 v 0.714169 h 0.715202 v -0.714169 z m 0.913639,0 v 0.714169 h 0.715719 v -0.714169 z m 0.914157,0 v 0.714169 h 0.715718 v -0.714169 z m 0.914156,0 v 0.714169 h 0.715201 v -0.714169 z m 0.913639,0 v 0.714169 h 0.715718 v -0.714169 z m 0.914156,0 v 0.714169 h 0.715719 v -0.714169 z m 0.914156,0 v 0.714169 h 0.715719 v -0.714169 z m 0.914156,0 v 0.714169 h 0.715202 v -0.714169 z m 0.913639,0 v 0.714169 h 0.715719 v -0.714169 z m 0.914157,0 v 0.714169 h 0.715718 v -0.714169 z m 0.914156,0 v 0.714169 h 0.715201 v -0.714169 z m 0.913639,0 v 0.714169 h 0.715718 v -0.714169 z m 0.914156,0 v 0.714169 h 0.715719 v -0.714169 z m 0.914156,0 v 0.714169 h 0.715202 v -0.714169 z m 0.914156,0 v 0.714169 h 0.715202 v -0.714169 z m 0.913639,0 v 0.714169 h 0.715719 v -0.714169 z m 0.914157,0 v 0.714169 h 0.715718 v -0.714169 z m 0.914156,0 v 0.714169 h 0.715201 v -0.714169 z m 0.913639,0 v 0.714169 h 0.715718 v -0.714169 z m 1.828312,0 v 0.714169 h 0.715719 v -0.714169 z m 0.914156,0 v 0.714169 h 0.715202 v -0.714169 z m 0.913639,0 v 0.714169 h 0.715719 v -0.714169 z m 0.914157,0 v 0.714169 h 0.715718 v -0.714169 z m 0.914156,0 v 0.714169 h 0.715201 v -0.714169 z m 0.913639,0 v 0.714169 h 0.715718 v -0.714169 z m 0.914156,0 v 0.714169 h 0.715719 v -0.714169 z m 0.914156,0 v 0.714169 h 0.715719 v -0.714169 z m 0.914156,0 v 0.714169 H 78.1451 v -0.714169 z m 0.913639,0 v 0.714169 h 0.715719 v -0.714169 z m 0.914157,0 v 0.714169 h 0.715718 v -0.714169 z m 0.914156,0 v 0.714169 h 0.715201 v -0.714169 z m 0.913639,0 v 0.714169 h 0.715718 v -0.714169 z m 0.914156,0 v 0.714169 h 0.715719 v -0.714169 z m 0.914156,0 v 0.714169 h 0.715202 v -0.714169 z m 0.913639,0 v 0.714169 h 0.715719 v -0.714169 z m 0.914156,0 v 0.714169 h 0.715719 v -0.714169 z m 0.914157,0 v 0.714169 h 0.715718 v -0.714169 z m 0.914156,0 v 0.714169 h 0.715201 v -0.714169 z m 0.913639,0 v 0.714169 h 0.715718 v -0.714169 z m 0.914156,0 v 0.714169 h 0.715719 v -0.714169 z m 0.914156,0 v 0.714169 h 0.715202 v -0.714169 z m 0.913639,0 v 0.714169 h 0.715719 v -0.714169 z m 0.914156,0 v 0.714169 h 0.715719 v -0.714169 z m 0.914157,0 v 0.714169 h 0.715718 v -0.714169 z m 0.914156,0 v 0.714169 h 0.715201 v -0.714169 z m 0.913639,0 v 0.714169 h 0.715718 v -0.714169 z m 0.914156,0 v 0.714169 h 0.715719 v -0.714169 z m 0.914156,0 v 0.714169 h 0.715202 v -0.714169 z m 0.913639,0 v 0.714169 h 0.715719 v -0.714169 z m 0.914156,0 v 0.714169 h 0.715719 v -0.714169 z m 0.914157,0 v 0.714169 h 0.715718 v -0.714169 z m 0.914156,0 v 0.714169 h 0.715203 v -0.714169 z m 0.913643,0 v 0.714169 h 0.71571 v -0.714169 z m 0.91415,0 v 0.714169 h 0.71572 v -0.714169 z m 0.91416,0 v 0.714169 h 0.7152 v -0.714169 z m 0.91364,0 v 0.714169 h 0.71572 v -0.714169 z m 0.91415,0 v 0.714169 h 0.71572 v -0.714169 z m 0.91416,0 v 0.714169 h 0.71572 v -0.714169 z m 0.91416,0 v 0.714169 h 0.7152 v -0.714169 z m -36.560046,0.91364 v 0.715201 h 0.714685 v -0.715201 z m 0,0.913639 v 0.715718 h 0.714685 v -0.715718 z m 2.364196,3.789433 v 0.712101 h 0.712618 v -0.712101 z m 0.949813,0 v 0.712101 h 0.712618 v -0.712101 z m 0.95033,0 v 0.712101 h 0.712101 v -0.712101 z m 0.949813,0 v 0.712101 h 0.712618 v -0.712101 z m 3.799768,0 v 0.712101 h 0.712618 v -0.712101 z m 0.949813,0 v 0.712101 h 0.712618 v -0.712101 z m 0.950329,0 v 0.712101 h 0.712101 v -0.712101 z m 0.949813,0 v 0.712101 h 0.712618 v -0.712101 z m 1.900142,0 v 0.712101 h 0.712102 v -0.712101 z m 0.949813,0 v 0.712101 h 0.712618 v -0.712101 z m 0.949813,0 v 0.712101 h 0.712618 v -0.712101 z m 4.750098,0 v 0.712101 h 0.712101 v -0.712101 z m 4.74958,0 v 0.712101 h 0.712618 v -0.712101 z m 2.849956,0 v 0.712101 h 0.712618 v -0.712101 z m 3.799769,0 v 0.712101 h 0.71262 v -0.712101 z m 0.94981,0 v 0.712101 h 0.71262 v -0.712101 z m 1.90014,0 v 0.712101 h 0.71262 v -0.712101 z m 0.94982,0 v 0.712101 h 0.71261 v -0.712101 z m 0.95033,0 v 0.712101 h 0.7121 v -0.712101 z m -31.348994,0.949812 v 0.712618 h 0.712618 v -0.712618 z m 6.649723,0 v 0.712618 h 0.712618 v -0.712618 z m 3.799768,0 v 0.712618 h 0.712618 v -0.712618 z m 4.750098,0 v 0.712618 h 0.712101 v -0.712618 z m 4.74958,0 v 0.712618 h 0.712618 v -0.712618 z m 2.849956,0 v 0.712618 h 0.712618 v -0.712618 z m 4.749579,0 v 0.712618 h 0.71262 v -0.712618 z m 3.80029,0 v 0.712618 h 0.7121 v -0.712618 z m -34.19895,0.949813 v 0.712618 h 0.712618 v -0.712618 z m 0.949813,0 v 0.712618 h 0.712618 v -0.712618 z m 0.95033,0 v 0.712618 h 0.712101 v -0.712618 z m 0.949813,0 v 0.712618 h 0.712618 v -0.712618 z m 1.900142,0 v 0.712618 h 0.712101 v -0.712618 z m 1.899626,0 v 0.712618 h 0.712618 v -0.712618 z m 0.949813,0 v 0.712618 h 0.712618 v -0.712618 z m 0.950329,0 v 0.712618 h 0.712101 v -0.712618 z m 0.949813,0 v 0.712618 h 0.712618 v -0.712618 z m 3.799768,0 v 0.712618 h 0.712618 v -0.712618 z m 4.750098,0 v 0.712618 h 0.712101 v -0.712618 z m 4.74958,0 v 0.712618 h 0.712618 v -0.712618 z m 0.949813,0 v 0.712618 h 0.712618 v -0.712618 z m 0.95033,0 v 0.712618 h 0.712101 v -0.712618 z m 0.949813,0 v 0.712618 h 0.712618 v -0.712618 z m 1.900142,0 v 0.712618 h 0.712101 v -0.712618 z m 2.849437,0 v 0.712618 h 0.71262 v -0.712618 z m 3.80029,0 v 0.712618 h 0.7121 v -0.712618 z m -34.19895,0.949813 v 0.712618 h 0.712618 v -0.712618 z m 9.499679,0 v 0.712618 h 0.712618 v -0.712618 z m 3.799768,0 v 0.712618 h 0.712618 v -0.712618 z m 4.750098,0 v 0.712618 h 0.712101 v -0.712618 z m 7.599536,0 v 0.712618 h 0.712618 v -0.712618 z m 4.749579,0 v 0.712618 h 0.71262 v -0.712618 z m 3.80029,0 v 0.712618 h 0.7121 v -0.712618 z m -34.19895,0.95033 v 0.712101 h 0.712618 v -0.712101 z m 0.949813,0 v 0.712101 h 0.712618 v -0.712101 z m 0.95033,0 v 0.712101 h 0.712101 v -0.712101 z m 0.949813,0 v 0.712101 h 0.712618 v -0.712101 z m 1.900142,0 v 0.712101 h 0.712101 v -0.712101 z m 1.899626,0 v 0.712101 h 0.712618 v -0.712101 z m 0.949813,0 v 0.712101 h 0.712618 v -0.712101 z m 0.950329,0 v 0.712101 h 0.712101 v -0.712101 z m 0.949813,0 v 0.712101 h 0.712618 v -0.712101 z m 3.799768,0 v 0.712101 h 0.712618 v -0.712101 z m 4.750098,0 v 0.712101 h 0.712101 v -0.712101 z m 7.599536,0 v 0.712101 h 0.712618 v -0.712101 z m 1.900142,0 v 0.712101 h 0.712101 v -0.712101 z m 2.849437,0 v 0.712101 h 0.71262 v -0.712101 z m 3.80029,0 v 0.712101 h 0.7121 v -0.712101 z" />
    </g>
  </g>
</svg>
