<?xml version="1.0" encoding="UTF-8" standalone="no"?>
<!-- Created with Inkscape (http://www.inkscape.org/) -->

<svg
   width="512"
   height="512"
   viewBox="0 0 135.46666 135.46667"
   version="1.1"
   id="svg5"
   inkscape:version="1.3.1 (91b66b0783, 2023-11-16, custom)"
   sodipodi:docname="printer.svg"
   xmlns:inkscape="http://www.inkscape.org/namespaces/inkscape"
   xmlns:sodipodi="http://sodipodi.sourceforge.net/DTD/sodipodi-0.dtd"
   xmlns:xlink="http://www.w3.org/1999/xlink"
   xmlns="http://www.w3.org/2000/svg"
   xmlns:svg="http://www.w3.org/2000/svg">
  <sodipodi:namedview
     id="namedview7"
     pagecolor="#292929"
     bordercolor="#666666"
     borderopacity="1"
     inkscape:showpageshadow="0"
     inkscape:pageopacity="0"
     inkscape:pagecheckerboard="1"
     inkscape:deskcolor="#1a1a1a"
     inkscape:document-units="px"
     showgrid="false"
     inkscape:zoom="14.75"
     inkscape:cx="75.627119"
     inkscape:cy="208.20339"
     inkscape:window-width="3256"
     inkscape:window-height="1080"
     inkscape:window-x="1864"
     inkscape:window-y="0"
     inkscape:window-maximized="0"
     inkscape:current-layer="layer1" />
  <defs
     id="defs2">
    <linearGradient
       id="linearGradient49"
       inkscape:collect="always">
      <stop
         style="stop-color:#70601f;stop-opacity:1;"
         offset="0"
         id="stop51" />
      <stop
         style="stop-color:#decd87;stop-opacity:1;"
         offset="0.53924865"
         id="stop49" />
      <stop
         style="stop-color:#70601f;stop-opacity:1;"
         offset="1"
         id="stop50" />
    </linearGradient>
    <linearGradient
       id="linearGradient30"
       inkscape:collect="always">
      <stop
         style="stop-color:#ffffff;stop-opacity:1;"
         offset="0"
         id="stop30" />
      <stop
         style="stop-color:#adadad;stop-opacity:1;"
         offset="1"
         id="stop31" />
    </linearGradient>
    <linearGradient
       id="linearGradient28"
       inkscape:collect="always">
      <stop
         style="stop-color:#434343;stop-opacity:1;"
         offset="0.0015977"
         id="stop28" />
      <stop
         style="stop-color:#000000;stop-opacity:0;"
         offset="1"
         id="stop29" />
    </linearGradient>
    <linearGradient
       id="linearGradient26"
       inkscape:collect="always">
      <stop
         style="stop-color:#000000;stop-opacity:1;"
         offset="0"
         id="stop26" />
      <stop
         style="stop-color:#000000;stop-opacity:0;"
         offset="1"
         id="stop27" />
    </linearGradient>
    <linearGradient
       id="linearGradient24"
       inkscape:collect="always">
      <stop
         style="stop-color:#3b3b3b;stop-opacity:1;"
         offset="0"
         id="stop24" />
      <stop
         style="stop-color:#000000;stop-opacity:0;"
         offset="1"
         id="stop25" />
    </linearGradient>
    <linearGradient
       id="linearGradient22"
       inkscape:collect="always">
      <stop
         style="stop-color:#3ec63c;stop-opacity:1;"
         offset="0.82063341"
         id="stop22" />
      <stop
         style="stop-color:#013500;stop-opacity:1;"
         offset="1"
         id="stop23" />
    </linearGradient>
    <linearGradient
       id="linearGradient19"
       inkscape:collect="always">
      <stop
         style="stop-color:#1a1a1a;stop-opacity:1;"
         offset="0"
         id="stop19" />
      <stop
         style="stop-color:#292929;stop-opacity:1;"
         offset="1"
         id="stop20" />
    </linearGradient>
    <linearGradient
       id="linearGradient17"
       inkscape:collect="always">
      <stop
         style="stop-color:#474747;stop-opacity:1;"
         offset="0"
         id="stop17" />
      <stop
         style="stop-color:#000000;stop-opacity:1;"
         offset="1"
         id="stop18" />
    </linearGradient>
    <linearGradient
       id="linearGradient5"
       inkscape:collect="always">
      <stop
         style="stop-color:#1a1a1a;stop-opacity:1;"
         offset="0"
         id="stop5" />
      <stop
         style="stop-color:#000000;stop-opacity:1;"
         offset="1"
         id="stop6" />
    </linearGradient>
    <linearGradient
       inkscape:collect="always"
       xlink:href="#linearGradient5"
       id="linearGradient6"
       x1="67.73333"
       y1="18.214331"
       x2="67.73333"
       y2="65.374367"
       gradientUnits="userSpaceOnUse"
       gradientTransform="translate(0.002138,11.944802)" />
    <filter
       inkscape:collect="always"
       style="color-interpolation-filters:sRGB"
       id="filter6"
       x="-0.432"
       y="-0.432"
       width="1.864"
       height="1.864">
      <feGaussianBlur
         inkscape:collect="always"
         stdDeviation="0.72339606"
         id="feGaussianBlur6" />
    </filter>
    <clipPath
       clipPathUnits="userSpaceOnUse"
       id="clipPath12">
      <rect
         style="opacity:1;fill:#000000;fill-opacity:1;stroke:none;stroke-width:0.264583;stroke-linecap:round;stroke-linejoin:round;paint-order:markers stroke fill"
         id="rect12"
         width="86.133018"
         height="35.328323"
         x="-259.54404"
         y="39.926445"
         ry="7.3132133"
         rx="7.3132138" />
    </clipPath>
    <clipPath
       clipPathUnits="userSpaceOnUse"
       id="clipPath16">
      <path
         style="color:#000000;fill:#ff0000;stroke-width:0.999998;stroke-linecap:round;stroke-linejoin:round;-inkscape-stroke:none;paint-order:markers stroke fill"
         d="m -143.37824,26.467271 h 120.845395 c 4.050089,0 7.310631,3.260542 7.310631,7.31063 v 43.278732 c 0,4.050088 -3.260542,7.31063 -7.310631,7.31063 H -143.37824 c -4.05009,0 -7.31063,-3.260542 -7.31063,-7.31063 V 33.777901 c 0,-4.050088 3.26054,-7.31063 7.31063,-7.31063 z"
         id="path17" />
    </clipPath>
    <filter
       inkscape:collect="always"
       style="color-interpolation-filters:sRGB"
       id="filter17"
       x="-0.0030880277"
       y="-0.0071874369"
       width="1.0061761"
       height="1.0143749">
      <feGaussianBlur
         inkscape:collect="always"
         stdDeviation="0.1749832"
         id="feGaussianBlur17" />
    </filter>
    <linearGradient
       inkscape:collect="always"
       xlink:href="#linearGradient17"
       id="linearGradient18"
       x1="-82.956055"
       y1="26.732422"
       x2="-82.956055"
       y2="84.632812"
       gradientUnits="userSpaceOnUse" />
    <linearGradient
       inkscape:collect="always"
       xlink:href="#linearGradient19"
       id="linearGradient20"
       x1="67.736107"
       y1="100.22404"
       x2="67.736107"
       y2="42.323647"
       gradientUnits="userSpaceOnUse"
       gradientTransform="translate(0.002138,11.944802)" />
    <linearGradient
       inkscape:collect="always"
       xlink:href="#linearGradient22"
       id="linearGradient23"
       x1="42.743851"
       y1="95.517441"
       x2="57.986671"
       y2="59.242756"
       gradientUnits="userSpaceOnUse"
       gradientTransform="translate(-11.914851,8.0154262)" />
    <linearGradient
       inkscape:collect="always"
       xlink:href="#linearGradient24"
       id="linearGradient25"
       x1="67.735466"
       y1="76.310814"
       x2="67.732353"
       y2="111.3754"
       gradientUnits="userSpaceOnUse" />
    <linearGradient
       inkscape:collect="always"
       xlink:href="#linearGradient26"
       id="linearGradient27"
       x1="67.735451"
       y1="111.95078"
       x2="67.735466"
       y2="123.18404"
       gradientUnits="userSpaceOnUse" />
    <linearGradient
       inkscape:collect="always"
       xlink:href="#linearGradient28"
       id="linearGradient29"
       x1="67.735466"
       y1="30.159132"
       x2="67.735466"
       y2="77.319168"
       gradientUnits="userSpaceOnUse" />
    <linearGradient
       inkscape:collect="always"
       xlink:href="#linearGradient30"
       id="linearGradient31"
       x1="67.735466"
       y1="12.136974"
       x2="67.735466"
       y2="90.578262"
       gradientUnits="userSpaceOnUse" />
    <filter
       inkscape:collect="always"
       style="color-interpolation-filters:sRGB"
       id="filter44"
       x="-1.3124569"
       y="-0.71928271"
       width="3.6249137"
       height="2.4385654">
      <feGaussianBlur
         inkscape:collect="always"
         stdDeviation="1.3182207"
         id="feGaussianBlur44" />
    </filter>
    <linearGradient
       inkscape:collect="always"
       xlink:href="#linearGradient49"
       id="linearGradient50"
       x1="-22.680786"
       y1="40.578092"
       x2="-5.3262898"
       y2="40.578092"
       gradientUnits="userSpaceOnUse"
       gradientTransform="translate(33.298921,2.7304451)" />
  </defs>
  <g
     inkscape:label="Layer 1"
     inkscape:groupmode="layer"
     id="layer1">
    <rect
       style="fill:url(#linearGradient6);stroke:url(#linearGradient29);stroke-width:0.264583;stroke-linecap:round;stroke-linejoin:round;paint-order:markers stroke fill"
       id="rect5"
       width="86.133018"
       height="47.160034"
       x="24.668957"
       y="30.159134" />
    <path
       id="rect4"
       style="fill:url(#linearGradient31);stroke-width:0.264583;stroke-linecap:round;stroke-linejoin:round;paint-order:markers stroke fill"
       d="M 34.636732,12.136974 H 100.8342 L 97.659204,90.578266 H 37.811735 Z"
       sodipodi:nodetypes="ccccc" />
    <path
       id="rect1"
       style="fill:url(#linearGradient20);stroke:none;stroke-width:0.264583;stroke-linecap:round;stroke-linejoin:round;paint-order:markers stroke fill"
       d="m 7.3153866,53.739151 c -4.0515161,0 -7.3132486,3.261732 -7.3132486,7.313248 v 43.273361 c 0,3.71557 2.7458553,6.75939 6.325712,7.23987 v 11.61841 h 122.81473 v -11.61841 c 3.5801,-0.48026 6.32622,-3.52413 6.32622,-7.23987 V 61.052399 c 0,-4.051516 -3.26173,-7.313248 -7.31324,-7.313248 z" />
    <path
       style="color:#000000;mix-blend-mode:normal;fill:url(#linearGradient18);stroke-linecap:round;stroke-linejoin:round;-inkscape-stroke:none;paint-order:markers stroke fill;filter:url(#filter17)"
       d="m -143.37891,26.203125 c -4.19208,0 -7.57421,3.38213 -7.57421,7.574219 v 43.279297 c 0,4.192088 3.38213,7.576171 7.57421,7.576171 h 120.845707 c 4.192088,0 7.576172,-3.384083 7.576172,-7.576171 V 33.777344 c 0,-4.192089 -3.384084,-7.574219 -7.576172,-7.574219 z m 0,0.529297 h 120.845707 c 3.908083,0 7.046875,3.136838 7.046875,7.044922 v 43.279297 c 0,3.908083 -3.138792,7.046875 -7.046875,7.046875 H -143.37891 c -3.90808,0 -7.04492,-3.138792 -7.04492,-7.046875 V 33.777344 c 0,-3.908084 3.13684,-7.044922 7.04492,-7.044922 z"
       id="path15"
       clip-path="url(#clipPath16)"
       transform="translate(150.68841,27.27188)" />
    <rect
       style="fill:#000000;fill-opacity:1;stroke:url(#linearGradient25);stroke-width:0.264583;stroke-linecap:round;stroke-linejoin:round;paint-order:markers stroke fill"
       id="rect3"
       width="86.133018"
       height="35.328323"
       x="24.668959"
       y="76.310814"
       ry="7.3132133"
       rx="7.3132138" />
    <circle
       style="fill:#00ff00;fill-opacity:1;stroke:none;stroke-width:0.264583;stroke-linecap:round;stroke-linejoin:round;paint-order:markers stroke fill"
       id="path6"
       cx="5.5304441"
       cy="58.962711"
       r="1.0583333" />
    <circle
       style="mix-blend-mode:normal;fill:#00ff00;fill-opacity:1;stroke:none;stroke-width:0.264583;stroke-linecap:round;stroke-linejoin:round;paint-order:markers stroke fill;filter:url(#filter6)"
       id="circle6"
       cx="5.5304441"
       cy="58.962711"
       r="2.0094335" />
    <g
       id="g12"
       clip-path="url(#clipPath12)"
       transform="translate(284.21299,36.384378)">
      <path
         id="path9"
         style="fill:#ff0000;stroke-width:0.264583;stroke-linecap:round;stroke-linejoin:round;paint-order:markers stroke fill"
         d="m -259.54492,60.367188 c 0,6.101562 0,12.203125 0,18.304687 28.71159,0 57.42318,0 86.13476,0 0,-6.101563 0,-12.203125 0,-18.304687 -2.17643,-1.719402 -4.35286,-3.438803 -6.52929,-5.158204 -5.00131,1.719401 -10.00261,3.438802 -15.00391,5.158204 -3.1582,-1.719402 -6.31641,-3.438803 -9.47461,-5.158204 -4.01953,1.719401 -8.03906,3.438802 -12.05859,5.158204 -4.41732,-2.631511 -8.83464,-5.263021 -13.25196,-7.894532 -2.76106,2.631511 -5.52213,5.263021 -8.2832,7.894532 -2.50586,-2.808594 -5.01172,-5.617188 -7.51758,-8.425782 -4.67187,2.808594 -9.34375,5.617188 -14.01562,8.425782 z"
         sodipodi:nodetypes="cccccccccccc" />
      <path
         id="path10"
         style="fill:#ff6600;stroke-width:0.264583;stroke-linecap:round;stroke-linejoin:round;paint-order:markers stroke fill"
         d="m -259.54492,63.804688 c 0,5.307942 0,10.615885 0,15.923828 28.71159,0 57.42318,0 86.13476,0 0,-5.307943 0,-10.615886 0,-15.923828 -4.11263,-1.298178 -8.22526,-2.596355 -12.33789,-3.894532 -3.0651,1.298177 -6.13021,2.596354 -9.19531,3.894532 -3.52409,-1.942709 -7.04818,-3.885417 -10.57226,-5.828126 -3.65365,1.942709 -7.3073,3.885417 -10.96094,5.828126 -4.03646,-1.51237 -8.07292,-3.02474 -12.10938,-4.53711 -3.14192,1.51237 -6.28385,3.02474 -9.42578,4.53711 -3.722,-2.44336 -7.44401,-4.886719 -11.16601,-7.330079 -3.45573,2.44336 -6.91146,4.886719 -10.36719,7.330079 z"
         sodipodi:nodetypes="cccccccccccc" />
      <path
         id="path11"
         style="fill:#ffcc00;stroke-width:0.264583;stroke-linecap:round;stroke-linejoin:round;paint-order:markers stroke fill"
         d="m -259.54492,67.490234 c 0,4.432292 0,8.864584 0,13.296875 28.71159,0 57.42318,0 86.13476,0 0,-4.432291 0,-8.864583 0,-13.296875 -1.25195,-1.203125 -2.5039,-2.40625 -3.75586,-3.609375 -1.88346,1.203125 -3.76692,2.40625 -5.65039,3.609375 -2.50976,-1.524739 -5.01953,-3.049479 -7.52929,-4.574218 -1.53256,1.524739 -3.06511,3.049479 -4.59766,4.574218 -1.57943,-0.624349 -3.15885,-1.248698 -4.73828,-1.873046 -2.20638,0.76302 -4.41276,1.526041 -6.61914,2.289062 -1.56511,-1.985677 -3.13021,-3.971354 -4.69531,-5.957031 -1.82683,1.847005 -3.65365,3.69401 -5.48047,5.541015 -1.81055,-0.786458 -3.6211,-1.572916 -5.43164,-2.359375 -1.98959,0.615886 -3.97917,1.231771 -5.96875,1.847657 -1.79883,-1.453125 -3.59766,-2.90625 -5.39649,-4.359375 -1.57942,1.623698 -3.15885,3.247395 -4.73828,4.871093 -1.86068,-2.097656 -3.72135,-4.195312 -5.58203,-6.292968 -1.77865,1.473307 -3.55729,2.946614 -5.33594,4.419922 -1.81054,-1.473308 -3.62109,-2.946615 -5.43164,-4.419922 -1.72786,2.097656 -3.45573,4.195312 -5.18359,6.292968 z"
         sodipodi:nodetypes="cccccccccccccccccccc" />
      <path
         id="path12"
         style="fill:#ff0000;stroke-width:0.264583;stroke-linecap:round;stroke-linejoin:round;paint-order:markers stroke fill"
         d="m -238.01172,73.648438 c -1.53255,-1.52474 -3.0651,-3.04948 -4.59766,-4.574219 -2.23828,2.712239 -4.47656,5.424479 -6.71484,8.136719 -2.15495,-2.390625 -4.30989,-4.781251 -6.46484,-7.171876 -1.25196,1.203126 -2.50391,2.40625 -3.75586,3.609376 0,4.432291 0,8.864583 0,13.296874 28.71159,0 57.42318,10e-7 86.13476,0 0,-4.432291 0,-8.864583 0,-13.296874 -2.19401,-2.654297 -4.38802,-5.308594 -6.58203,-7.962891 -1.3444,2.029948 -2.6888,4.059896 -4.0332,6.089844 -1.77865,-1.473308 -3.55729,-2.946615 -5.33594,-4.419922 -1.86068,2.097656 -3.72135,4.195312 -5.58203,6.292969 -1.57943,-1.623698 -3.15885,-3.247396 -4.73828,-4.871094 -1.78451,1.469401 -3.56901,2.938802 -5.35352,4.408203 -1.82161,-1.920573 -3.64323,-3.841146 -5.46484,-5.761719 -1.99219,2.07487 -3.98438,4.14974 -5.97656,6.22461 -1.82748,-1.847006 -3.65495,-3.694011 -5.48242,-5.541016 -1.50912,2.021484 -3.01823,4.042969 -4.52735,6.064453 -1.6276,-3.328125 -3.25521,-6.65625 -4.88281,-9.984375 -2.21419,3.153646 -4.42839,6.307292 -6.64258,9.460938 z"
         sodipodi:nodetypes="cccccccccccccccccccc" />
    </g>
    <g
       id="g23"
       transform="translate(107.23783,40.531532)">
      <path
         id="rect22"
         style="opacity:1;fill:#ff6600;stroke-width:0.529167;stroke-linecap:round;stroke-linejoin:round;paint-order:markers stroke fill"
         d="m -56.28902,39.343027 c 0,0 -1.975829,5.328659 -4.061925,7.739074 -2.086095,2.410414 -8.408701,6.09673 -8.408701,6.09673 0,0 0.252259,2.708847 2.141059,3.871281 2.081022,1.280735 5.892886,1.007874 7.697381,0.56256 1.490268,-0.367768 0.441654,-5.903459 1.378323,-6.840128 3.100243,-3.100242 1.253863,-11.429517 1.253863,-11.429517 z"
         sodipodi:nodetypes="czcsssc" />
      <rect
         style="opacity:1;fill:url(#linearGradient23);stroke:none;stroke-width:0.529167;stroke-linecap:round;stroke-linejoin:round;stroke-dasharray:none;stroke-opacity:1;paint-order:markers stroke fill"
         id="rect20"
         width="15.242822"
         height="36.274689"
         x="30.829"
         y="67.258186"
         ry="0"
         rx="0"
         transform="rotate(80.009835)" />
      <path
         id="rect21"
         style="opacity:1;fill:#ff0000;stroke-width:0.529167;stroke-linecap:round;stroke-linejoin:round;paint-order:markers stroke fill"
         d="m -58.46464,47.315398 c 3.406144,-3.406144 4.150476,-7.975716 4.150476,-7.975716 0,0 0.766792,6.823373 -2.639352,10.229517 -3.406144,3.406144 -0.138298,10.961391 -3.544442,7.555247 -3.406144,-3.406144 -1.372826,-6.402904 2.033318,-9.809048 z"
         sodipodi:nodetypes="zczzz" />
      <ellipse
         style="opacity:1;fill:#e6e6e6;fill-opacity:1;stroke:none;stroke-width:0.529167;stroke-linecap:round;stroke-linejoin:round;stroke-dasharray:none;stroke-opacity:1;paint-order:markers stroke fill"
         id="path20"
         cx="-85.395523"
         cy="38.450409"
         rx="5.7368083"
         ry="6.8199344"
         transform="rotate(-9.9901645)" />
      <path
         id="path22"
         style="opacity:1;fill:#ffcc00;stroke-width:0.529167;stroke-linecap:round;stroke-linejoin:round;paint-order:markers stroke fill"
         d="m -61.717485,47.969932 c 1.511124,-3.44271 -0.836309,-7.433011 -0.836309,-7.433011 0,0 5.753577,6.280668 2.347433,9.686812 -3.406144,3.406144 6.520265,4.182319 0.461188,7.555247 -6.059077,3.372928 -3.483436,-6.366338 -1.972312,-9.809048 z"
         sodipodi:nodetypes="zczzz" />
    </g>
    <rect
       style="opacity:0.2;fill:url(#linearGradient27);fill-opacity:1;stroke:none;stroke-width:0.529167;stroke-linecap:round;stroke-linejoin:round;stroke-dasharray:none;stroke-opacity:1;paint-order:markers stroke fill"
       id="rect25"
       width="122.81473"
       height="11.618423"
       x="6.3278503"
       y="111.56562" />
    <path
       id="path31"
       style="color:#000000;fill:#000000;stroke:#000000;stroke-width:1;stroke-linecap:round;stroke-linejoin:round;stroke-opacity:1;-inkscape-stroke:none;paint-order:markers stroke fill;opacity:0.2;fill-opacity:1"
       d="m 67.735464,16.964949 c -9.158485,0 -16.585677,7.427191 -16.585677,16.585677 0,1.78031 0.283756,3.493835 0.80322,5.101524 a 0.13632414,0.13632414 0 0 0 0.05485,0.161602 c 2.187895,6.538493 8.334529,11.262742 15.594498,11.320155 l 0.004,0.01278 a 0.13632414,0.13632414 0 0 0 0.128857,0.09345 0.13632414,0.13632414 0 0 0 0.129654,-0.09345 l 0.004,-0.01278 c 7.254738,-0.05749 13.397801,-4.775059 15.589706,-11.306311 a 0.13632414,0.13632414 0 0 0 0.06442,-0.190621 c 0.516316,-1.603282 0.798161,-3.311667 0.798161,-5.086349 0,-9.158486 -7.427191,-16.585677 -16.585677,-16.585677 z m 0,0.272621 c 3.530532,0 6.795914,1.124607 9.465321,3.029978 l -9.465587,6.908968 -9.465055,-6.908968 c 2.669407,-1.905371 5.934789,-3.029978 9.465321,-3.029978 z m -9.767228,3.245093 3.646039,11.140183 -9.441893,6.829364 c -0.486618,-1.547215 -0.749974,-3.193506 -0.749974,-4.901584 0,-5.347576 2.571641,-10.09313 6.545828,-13.067963 z m 19.534722,2.66e-4 c 3.974017,2.974848 6.545563,7.720255 6.545563,13.067697 0,1.707989 -0.263406,3.354172 -0.749974,4.901318 l -9.442691,-6.829098 z m -19.200335,0.145096 9.20122,6.716484 -5.657148,4.110611 z m 18.865949,0 -3.544071,10.827095 -5.657149,-4.110611 z m -9.433108,6.885274 5.800115,4.214175 -2.215576,6.818184 h -7.169077 l -2.215577,-6.818184 z m 6.032002,4.381901 9.231038,6.67575 -11.39177,-0.0245 z m -12.064004,2.66e-4 2.160733,6.650991 -11.391504,0.02449 z m 2.534788,6.922812 h 6.99363 l -3.496682,10.843334 z m -0.285666,2.67e-4 3.561109,11.040611 C 60.453085,49.764706 54.480559,45.188641 52.305231,38.844103 Z m 7.566027,0 11.647086,0.02556 c -2.1753,6.344457 -8.147703,10.920487 -15.208196,11.015053 z" />
    <g
       id="g51"
       transform="translate(-3.1750001)">
      <ellipse
         style="fill:#a89959;fill-opacity:1;stroke:none;stroke-width:0.582082;stroke-linecap:round;stroke-linejoin:round;stroke-dasharray:none;stroke-opacity:1;paint-order:markers stroke fill"
         id="path51"
         cx="20.679821"
         cy="34.07827"
         rx="3.9891362"
         ry="1.1889426" />
      <path
         style="fill:none;stroke:#000000;stroke-width:0.582083;stroke-linecap:butt;stroke-linejoin:miter;stroke-dasharray:none;stroke-opacity:1"
         d="M 20.103249,33.76772 C 19.554166,31.843031 19.889758,28.570231 17.294903,28.145182"
         id="path35"
         sodipodi:nodetypes="cc" />
      <path
         id="rect35"
         style="fill:#decd87;stroke:none;stroke-width:0.529167;stroke-linecap:round;stroke-linejoin:round;paint-order:markers stroke fill"
         d="m 15.107906,33.76772 c 0,0 3.395133,0.152534 4.995343,0 1.60021,-0.152533 4.565708,-0.878393 4.565708,-0.878393 v 20.230057 h -9.561051 z"
         sodipodi:nodetypes="czcccc" />
      <path
         id="path36"
         style="fill:#decd87;stroke-width:0.529167;stroke-linecap:round;stroke-linejoin:round;paint-order:markers stroke fill"
         d="m 27.972575,53.719974 c -1.794333,0.01721 -15.463064,2e-6 -17.354686,0 0,-0.606078 3.884979,-1.097401 8.677343,-1.097401 4.792365,0 8.677343,0.491323 8.677343,1.097401 z"
         sodipodi:nodetypes="ccsc" />
      <path
         id="path37"
         style="fill:#decd87;stroke-width:0.529167;stroke-linecap:round;stroke-linejoin:round;paint-order:markers stroke fill"
         d="m 16.437291,52.540989 c 0,0.651137 -0.64393,1.178987 -1.438257,1.178987 -0.794328,0 -1.438258,-0.52785 -1.438258,-1.178987 0,-0.651137 0.64393,-1.178988 1.438258,-1.178988 0.794327,0 1.438257,0.527851 1.438257,1.178988 z"
         sodipodi:nodetypes="sssss" />
      <path
         id="path38"
         style="fill:#decd87;stroke-width:0.529167;stroke-linecap:round;stroke-linejoin:round;paint-order:markers stroke fill"
         d="m 26.682449,52.077244 c 1e-6,0.907255 -0.985528,1.642731 -2.20124,1.642731 -1.215712,0 -2.20124,-0.735476 -2.20124,-1.642731 0,-0.907255 0.985529,-1.64273 2.20124,-1.64273 1.215711,0 2.20124,0.735475 2.20124,1.64273 z"
         sodipodi:nodetypes="sssss" />
      <path
         id="path40"
         style="opacity:0.513534;fill:#ff0000;stroke-width:0.582083;stroke-linecap:round;stroke-linejoin:round;paint-order:markers stroke fill"
         d="m 21.30174,28.334962 c 0.209482,1.538617 -0.690159,2.930848 -2.009293,3.110448 -1.319134,0.179599 -2.53135,-0.723998 -2.767714,-2.460062 -0.32771,-2.406992 2.639305,-6.256425 2.639305,-6.256425 0,0 1.809992,3.199047 2.137702,5.606039 z"
         sodipodi:nodetypes="ssscs"
         clip-path="none" />
      <path
         id="path45"
         style="opacity:0.579552;fill:#ff6600;stroke-width:0.582085;stroke-linecap:round;stroke-linejoin:round;paint-order:markers stroke fill"
         d="m 20.450377,29.446131 c 0.134433,0.98739 -0.442902,1.880837 -1.289441,1.996094 -0.84654,0.115256 -1.624465,-0.464618 -1.776149,-1.578717 -0.105153,-0.772329 0.413073,-1.776076 0.957587,-2.586741 0.544514,-0.810665 0.586149,-1.957415 0.586149,-1.957415 0,0 0.724762,1.042405 0.946646,1.748726 0.221884,0.70632 0.470055,1.605723 0.575208,2.378053 z"
         sodipodi:nodetypes="sssscss" />
      <path
         id="path41"
         style="opacity:0.579552;fill:#ffff00;stroke-width:0.582085;stroke-linecap:round;stroke-linejoin:round;paint-order:markers stroke fill"
         d="m 19.822226,30.269486 c 0.07938,0.58303 -0.261523,1.110589 -0.761384,1.178646 -0.499861,0.06806 -0.959208,-0.274346 -1.048774,-0.932195 -0.06209,-0.456042 0.488716,-1.048731 0.654008,-1.527409 0.165293,-0.478678 -0.05493,-0.843346 -0.05493,-0.843346 0,0 0.437248,0.303055 0.724496,0.72012 0.287246,0.417066 0.424492,0.948142 0.486582,1.404184 z"
         sodipodi:nodetypes="sssscsss" />
      <path
         id="path43"
         style="display:inline;opacity:1;mix-blend-mode:normal;fill:#ffff00;stroke-width:0.582085;stroke-linecap:round;stroke-linejoin:round;paint-order:markers stroke fill;filter:url(#filter44)"
         d="m 19.41547,21.227587 c 0,0.776406 -0.539617,1.405475 -1.20527,1.405475 -0.665652,0 -1.20527,-0.529435 -1.20527,-1.405475 0,-1.214599 1.20527,-2.992976 1.20527,-2.992976 0,0 1.20527,1.778377 1.20527,2.992976 z"
         sodipodi:nodetypes="ssscs"
         clip-path="none"
         transform="rotate(-7.7531052,79.870952,19.318172)" />
      <path
         id="path46"
         style="display:inline;fill:url(#linearGradient50);stroke:none;stroke-width:0.529167;stroke-linecap:round;stroke-linejoin:round;paint-order:markers stroke fill"
         d="m 24.668957,32.889327 c 0,0 -2.965404,0.725967 -4.565613,0.8785 -1.600208,0.152533 -4.995044,0 -4.995044,0 v 17.597892 c -0.03601,-0.0022 -0.07233,-0.0036 -0.109037,-0.0036 -0.794327,0 -1.438155,0.52812 -1.438155,1.179256 0,0.121694 0.02232,0.238893 0.06408,0.349333 -1.838703,0.201225 -3.007052,0.497758 -3.007052,0.829407 1.89162,2e-6 15.560165,0.01721 17.354496,0 0,-0.2462 -0.648606,-0.472688 -1.73116,-0.655774 0.277144,-0.274779 0.441317,-0.616613 0.441316,-0.98702 0,-0.860088 -0.885947,-1.565024 -2.01383,-1.636076 z" />
      <path
         style="opacity:0.481853;fill:none;stroke:#716539;stroke-width:0.264583px;stroke-linecap:round;stroke-linejoin:miter;stroke-opacity:1"
         d="m 24.481209,50.434514 c -1.849232,0.958597 -3.97803,1.126661 -6.02649,1.113885 -1.007124,-0.0214 -2.018906,-0.0042 -3.020049,-0.131356"
         id="path39" />
    </g>
    <path
       id="path52"
       style="opacity:1;fill:#a69552;fill-opacity:1;stroke-width:0.582083;stroke-linecap:round;stroke-linejoin:round;paint-order:markers stroke fill"
       d="m 20.96479,57.670022 c 0,0.671254 -0.391336,0.807327 -0.665327,0.807327 -0.304758,0 -0.665328,-0.136073 -0.665328,-0.807327 0,-0.399941 0.09977,-0.610854 0.378639,-1.662881 0.278872,-1.052028 -0.25142,-2.759777 0.286689,-2.759777 0.475076,0 -0.0091,1.707749 0.273991,2.759777 0.283104,1.052027 0.391336,1.341845 0.391336,1.662881 z"
       sodipodi:nodetypes="sssssss" />
    <path
       id="path53"
       style="opacity:0.307704;fill:#f9f9f9;fill-opacity:1;stroke-width:0.582083;stroke-linecap:round;stroke-linejoin:round;paint-order:markers stroke fill"
       d="m 20.299463,58.477349 c -0.346799,0 -0.665328,-0.136073 -0.665328,-0.807327 0,-0.412072 0.09977,-0.610854 0.378639,-1.662881 0.158725,-0.59878 0.01592,-1.642204 0.03523,-2.27952 0.01462,-0.482417 0.251457,-0.480257 0.251457,-0.480257 -0.238518,1.022177 -0.03309,1.850234 -0.219809,2.93697 -0.06506,0.378689 -0.260571,1.142573 -0.277112,1.485688 -0.02947,0.611211 0.433299,0.512935 0.496921,0.807327 z"
       sodipodi:nodetypes="csssssscc" />
    <path
       id="path54"
       style="opacity:1;fill:#847432;fill-opacity:1;stroke-width:0.582083;stroke-linecap:round;stroke-linejoin:round;paint-order:markers stroke fill"
       d="m 23.938277,61.37254 c 0,0.831634 -0.484836,1.000218 -0.82429,1.000218 -0.377573,0 -0.824292,-0.168584 -0.824292,-1.000218 0,-0.495497 0.123608,-0.756803 0.469106,-2.060186 0.345501,-1.303384 -0.311491,-6.064991 0.355186,-6.064991 0.588584,0 -0.01127,4.761607 0.339454,6.064991 0.350745,1.303383 0.484836,1.662446 0.484836,2.060186 z"
       sodipodi:nodetypes="sssssss" />
    <path
       id="path55"
       style="opacity:0.307704;fill:#f9f9f9;fill-opacity:1;stroke-width:0.582083;stroke-linecap:round;stroke-linejoin:round;paint-order:markers stroke fill"
       d="m 23.113987,62.372758 c -0.429658,0 -0.824292,-0.168584 -0.824292,-1.000218 0,-0.510527 0.204966,-0.48646 0.550464,-1.789843 0.196648,-0.741844 -0.01234,-4.762397 0.01162,-5.551984 0.01811,-0.597679 0.262207,-0.78335 0.262207,-0.78335 -0.295506,1.266401 0.0042,5.103437 -0.08846,6.600612 -0.02942,0.475133 -0.268612,1.099471 -0.289105,1.524565 -0.03651,0.757245 0.298747,0.635488 0.377569,1.000218 z"
       sodipodi:nodetypes="cssssssc" />
  </g>
</svg>
