<?xml version="1.0" encoding="UTF-8" standalone="no"?>
<!-- Created with Inkscape (http://www.inkscape.org/) -->

<svg
   width="512"
   height="512"
   viewBox="0 0 135.46666 135.46667"
   version="1.1"
   id="svg5"
   inkscape:version="1.3.2 (091e20ef0f, 2023-11-25, custom)"
   sodipodi:docname="usb.svg"
   xmlns:inkscape="http://www.inkscape.org/namespaces/inkscape"
   xmlns:sodipodi="http://sodipodi.sourceforge.net/DTD/sodipodi-0.dtd"
   xmlns="http://www.w3.org/2000/svg"
   xmlns:svg="http://www.w3.org/2000/svg"
   xmlns:rdf="http://www.w3.org/1999/02/22-rdf-syntax-ns#"
   xmlns:cc="http://creativecommons.org/ns#"
   xmlns:dc="http://purl.org/dc/elements/1.1/">&gt;
  <sodipodi:namedview
   id="namedview7"
   pagecolor="#505050"
   bordercolor="#ffffff"
   borderopacity="1"
   inkscape:showpageshadow="0"
   inkscape:pageopacity="0"
   inkscape:pagecheckerboard="1"
   inkscape:deskcolor="#505050"
   inkscape:document-units="px"
   showgrid="false"
   inkscape:zoom="1.5859375"
   inkscape:cx="304.867"
   inkscape:cy="243.38916"
   inkscape:window-width="3256"
   inkscape:window-height="1080"
   inkscape:window-x="1864"
   inkscape:window-y="0"
   inkscape:window-maximized="0"
   inkscape:current-layer="layer1" />
<defs
   id="defs2" />
<g
   inkscape:label="Layer 1"
   inkscape:groupmode="layer"
   id="layer1">
  <path
     style="color:#000000;fill:#797979;stroke-linecap:round;stroke-linejoin:round;-inkscape-stroke:none;paint-order:stroke fill markers"
     d="m 67.732422,21.966797 c -1.744078,0 -3.179688,1.437562 -3.179688,3.18164 V 91.082031 L 48.660156,75.861328 v -9.841797 c 4.27e-4,-1.740674 -1.433154,-3.174932 -3.173828,-3.175781 -1.741554,-4.26e-4 -3.176207,1.434228 -3.175781,3.175781 v 11.197266 a 1.0584391,1.0584391 0 0 0 0,0.002 c 7.25e-4,0.864503 0.354168,1.691102 0.978515,2.289062 l 21.263672,20.365235 v 12.556646 c 0,1.74408 1.43561,3.18164 3.179688,3.18164 1.744078,0 3.18164,-1.43756 3.18164,-3.18164 v -5.72656 -0.0176 c 8.7e-4,-0.0232 0.0035,-0.0471 0.0039,-0.0703 a 1.0584391,1.0584391 0 0 0 0,-0.0156 v -8.06641 a 1.0584391,1.0584391 0 0 0 0,-0.002 c -5.1e-5,-0.03636 -0.0026,-0.07304 -0.0039,-0.109375 v -0.002 -9.00586 -0.01758 c 0.0053,-0.07243 0.01331,-0.14415 0.01367,-0.216797 a 1.0584391,1.0584391 0 0 0 0,-0.0059 V 81.148367 L 91.25781,71.296805 a 1.0584391,1.0584391 0 0 0 0.002,-0.002 c 1.0923,-0.529692 1.788801,-1.641511 1.789062,-2.855469 V 57.777344 c 4.26e-4,-1.741554 -1.434227,-3.176209 -3.175781,-3.175782 -1.741554,-4.26e-4 -3.176208,1.434228 -3.175781,3.175782 v 8.671875 L 70.914062,74.097656 V 25.148437 c 0,-1.744078 -1.437562,-3.18164 -3.18164,-3.18164 z m 0,2.117187 c 0.608033,0 1.066406,0.45642 1.066406,1.064453 v 50.636719 a 1.0584391,1.0584391 0 0 0 1.519531,0.953125 l 17.898438,-8.671875 a 1.0584391,1.0584391 0 0 0 0.597656,-0.953125 v -9.335937 c -1.46e-4,-0.597257 0.461337,-1.05874 1.058594,-1.058594 0.597257,-1.46e-4 1.05874,0.461337 1.058594,1.058594 v 10.662109 c -8.8e-5,0.407849 -0.228728,0.773213 -0.595704,0.951172 L 69.408203,79.53125 a 1.0584391,1.0584391 0 0 0 -0.597656,0.953125 v 8.689453 c -3.71e-4,0.03533 -0.002,0.07035 -0.0059,0.105469 a 1.0584391,1.0584391 0 0 0 -0.0059,0.117187 v 9.025391 a 1.0584391,1.0584391 0 0 0 0,0.05664 c 10e-4,0.01859 0.0019,0.03802 0.002,0.05664 v 8.064455 c -2.78e-4,0.009 -0.0014,0.0182 -0.002,0.0273 a 1.0584391,1.0584391 0 0 0 0,0.0586 v 5.74414 c 0,0.60804 -0.458372,1.06445 -1.066406,1.06445 -0.608032,0 -1.064453,-0.45641 -1.064453,-1.06445 V 99.421875 A 1.0584391,1.0584391 0 0 0 66.341797,98.65625 L 44.753906,77.980469 C 44.545317,77.780695 44.427977,77.50562 44.427734,77.216797 V 66.019531 c -1.46e-4,-0.597257 0.461337,-1.05874 1.058594,-1.058594 0.596926,2.91e-4 1.056787,0.461669 1.056641,1.058594 V 76.3125 a 1.0584391,1.0584391 0 0 0 0.326172,0.763672 l 18.009765,17.248047 a 1.0584391,1.0584391 0 0 0 1.789063,-0.765625 V 25.148437 c 0,-0.608033 0.456421,-1.064453 1.064453,-1.064453 z"
     id="path18" />
  <path
     id="rect2771"
     style="fill:#800000;stroke-width:6.99526;stroke-linecap:round;stroke-linejoin:round;paint-order:stroke fill markers"
     d="m 67.733331,0 17.17502,25.249853 H 50.558313 Z"
     sodipodi:nodetypes="cccc"
     inkscape:label="Triangle" />
  <circle
     style="fill:#000080;stroke-width:7.47944;stroke-linecap:round;stroke-linejoin:round;paint-order:stroke fill markers"
     id="path792"
     cx="67.73333"
     cy="123.825"
     r="11.641666"
     inkscape:label="Root-Circle" />
  <rect
     style="display:inline;fill:#808000;stroke:none;stroke-width:4.23333;stroke-linecap:round;stroke-linejoin:round;stroke-dasharray:none;stroke-opacity:1;paint-order:stroke fill markers"
     id="rect14297"
     width="20.636482"
     height="20.636482"
     x="79.554565"
     y="37.029339"
     ry="0"
     inkscape:label="Square" />
  <circle
     style="fill:#008000;stroke:none;stroke-width:4.23333;stroke-linecap:round;stroke-linejoin:round;stroke-dasharray:none;stroke-opacity:1;paint-order:stroke fill markers"
     id="path14191"
     cx="45.593864"
     cy="55.851341"
     r="10.318241"
     inkscape:label="Circle" />
  <path
     style="color:#000000;mix-blend-mode:normal;fill:#1a1a1a;stroke-linecap:round;stroke-linejoin:round;-inkscape-stroke:none;paint-order:stroke fill markers"
     d="m 67.733332,23.024951 c -1.176056,0 -2.122867,0.946811 -2.122867,2.122868 V 93.559146 L 47.601745,76.312654 V 66.019742 a 2.1166649,2.1166649 0 0 0 -2.115633,-2.117183 2.1166649,2.1166649 0 0 0 -2.117183,2.117183 v 11.197249 a 2.1168766,2.1168766 0 0 0 0.652673,1.527039 l 21.588863,20.67729 v 13.00799 c 0,1.17606 0.946811,2.12287 2.122867,2.12287 1.176057,0 2.122868,-0.94681 2.122868,-2.12287 v -5.74332 a 2.1166649,2.1166649 0 0 0 0.0031,-0.0863 v -8.066687 a 2.1168766,2.1168766 0 0 0 -0.0031,-0.111622 v -9.024255 a 2.1166649,2.1166649 0 0 0 0.01292,-0.223242 V 80.484492 L 90.797041,70.343509 A 2.1168766,2.1168766 0 0 0 91.99025,68.439233 V 57.777351 a 2.1166649,2.1166649 0 0 0 -2.117184,-2.117183 2.1166649,2.1166649 0 0 0 -2.117183,2.117183 v 9.335864 L 69.8562,75.786071 V 25.147819 c 0,-1.176057 -0.946811,-2.122868 -2.122868,-2.122868 z"
     id="path19" />
  <g
     id="g53126"
     transform="translate(146.77139,43.196146)"
     style="display:none;mix-blend-mode:soft-light"
     sodipodi:insensitive="true">
    <circle
       style="fill:#0000ff;stroke-width:7.47944;stroke-linecap:round;stroke-linejoin:round;paint-order:stroke fill markers"
       id="path792-2"
       cx="-79.038063"
       cy="80.628853"
       r="11.641666"
       inkscape:label="Root-Circle" />
    <path
       id="rect2771-3"
       style="fill:#ff0000;stroke-width:6.99526;stroke-linecap:round;stroke-linejoin:round;paint-order:stroke fill markers"
       d="m -79.038059,-43.196146 17.17502,25.249853 h -34.350038 z"
       sodipodi:nodetypes="cccc"
       inkscape:label="Triangle" />
    <rect
       style="display:inline;fill:#ffff00;stroke:none;stroke-width:4.23333;stroke-linecap:round;stroke-linejoin:round;stroke-dasharray:none;stroke-opacity:1;paint-order:stroke fill markers"
       id="rect14297-7"
       width="20.636482"
       height="20.636482"
       x="-67.216827"
       y="-6.1668072"
       ry="0"
       inkscape:label="Square" />
    <circle
       style="fill:#00ff00;stroke:none;stroke-width:4.23333;stroke-linecap:round;stroke-linejoin:round;stroke-dasharray:none;stroke-opacity:1;paint-order:stroke fill markers"
       id="path14191-5"
       cx="-101.17753"
       cy="12.655195"
       r="10.318241"
       inkscape:label="Circle" />
  </g>
  <path
     id="rect2406-9"
     style="display:inline;opacity:1;mix-blend-mode:overlay;fill:#ffffff;stroke-width:6.6585;stroke-linecap:round;stroke-linejoin:round;stroke-dasharray:none;paint-order:stroke fill markers"
     d="M 67.75607,2.7362671 C 63.030814,9.6848284 58.305448,16.633463 53.580191,23.582023 c 4.112321,0.02783 8.232786,-0.07242 12.339816,0.06253 1.280619,0.389901 1.428364,1.917591 1.30638,3.045292 v 66.792822 c -0.03408,2.224128 -1.330064,2.48144 -3.412195,0.449068 -5.797413,-5.57419 -11.653659,-11.094687 -17.396354,-16.720943 -0.727849,-1.346437 -0.232332,-2.927822 -0.381372,-4.380611 0.019,-2.404782 -0.05591,-4.816935 0.05529,-7.21713 0.348539,-1.331258 1.884987,-1.378361 2.935738,-1.83193 3.353076,-1.363448 5.563056,-5.037598 5.2958,-8.576221 -0.219224,-4.041123 -3.576997,-7.644555 -7.611421,-8.082194 -3.778216,-0.51122 -7.753274,1.748892 -9.149312,5.317505 -0.871439,2.060786 -0.867916,4.6783 0.06976,6.796485 1.078049,2.632204 3.579466,4.474854 6.298323,5.137154 1.202859,0.586568 1.101771,2.082306 1.045931,3.208589 0.063,3.25413 -0.118815,6.536577 0.111105,9.773047 0.718489,0.988642 1.768625,1.670473 2.580204,2.579688 6.371136,6.117843 12.776078,12.205995 19.125964,18.342549 0.617839,0.617839 0.276427,2.985997 0.433048,4.468457 -0.0213,3.27644 0.06057,6.56036 -0.05684,9.83196 -0.366732,1.3229 -1.890723,1.39127 -2.964676,1.78697 -4.228653,1.52232 -7.048234,6.17469 -6.408395,10.63088 0.267613,2.35678 1.595373,4.84788 3.530017,6.4487 3.248035,2.80761 8.324428,3.10007 11.903666,0.73639 3.792298,-2.37838 5.564059,-7.47677 4.017843,-11.68921 -1.136914,-3.40634 -4.232831,-6.01558 -7.752498,-6.66368 -1.282831,-0.46516 -1.309504,-2.03096 -1.197343,-3.1688 -0.0111,-10.10814 -0.0244,-20.218691 0.02946,-30.325274 0.241186,-1.477537 1.936092,-1.787589 3.037024,-2.409672 6.289491,-3.064486 12.622721,-6.064998 18.869132,-9.202023 0.455588,-0.844943 0.04967,-1.791578 0.192237,-2.707845 0.03217,-2.902959 -0.07314,-5.814107 0.06356,-8.711612 0.3899,-1.280621 1.91759,-1.428882 3.045292,-1.306897 h 5.091679 v -17.46095 h -17.46095 v 17.463017 c 2.297268,0.0265 4.602983,-0.07058 6.89467,0.06253 1.281236,0.389057 1.427748,1.917886 1.30638,3.045292 -0.0266,2.738797 0.07146,5.488253 -0.0646,8.22017 -0.477675,1.389885 -2.081518,1.60658 -3.171899,2.267045 -5.223051,2.517437 -10.428671,5.081241 -15.66261,7.569564 -1.906245,0.843053 -2.182812,-0.434119 -2.182812,-2.639632 0.01014,-16.484235 -0.02049,-32.971533 0.01499,-49.453828 0.256843,-1.352937 1.849736,-1.654834 3.007052,-1.489315 H 81.931432 C 77.206176,16.632047 72.481325,9.6841774 67.75607,2.7362671 Z m 0.0041,1.4629597 c 4.05859,5.9687442 8.117412,11.9376552 12.176001,17.9064002 -2.913935,0.0037 -5.828195,-0.0071 -8.742102,-0.0036 -1.249175,-0.120982 -2.638041,0.166549 -3.422013,1.231966 -0.339391,-0.365262 -0.863538,-0.964627 -1.486214,-1.101225 -3.560483,-0.230413 -7.13783,-0.09375 -10.70529,-0.125057 C 59.640443,16.138316 63.700277,10.168639 67.76017,4.1992438 Z M 82.229088,39.17797 h 15.343766 v 15.343766 c -1.012316,-0.008 -2.025018,0.0066 -3.036507,0.01499 -1.589156,-0.08561 -3.575046,-0.224589 -4.64106,1.211296 C 89.576853,55.371312 89.09652,54.835287 88.522761,54.684 86.446275,54.389756 84.324322,54.567193 82.229088,54.523803 Z m -36.382275,8.512142 c 2.65783,0.05598 5.146157,1.622406 6.448702,3.93671 2.12412,3.465622 0.645577,8.424879 -2.863391,10.368876 -1.251011,0.763911 -2.988176,0.739806 -3.906221,1.998328 -0.555555,-0.983435 -1.820461,-1.140314 -2.794145,-1.565796 -3.066329,-1.186869 -5.05863,-4.522703 -4.721675,-7.781954 0.21276,-3.733345 3.620176,-6.813309 7.302913,-6.946863 0.178394,-0.0099 0.356629,-0.01303 0.533817,-0.0093 z m 21.933028,65.624418 c 0.26414,0.42162 0.645734,0.77656 1.102259,0.97978 1.821603,0.41529 3.609049,1.17667 4.985225,2.47375 2.738246,2.43948 3.631033,6.62758 2.196248,9.99113 -1.384732,3.62555 -5.372012,5.95205 -9.205639,5.49113 -4.152702,-0.31208 -7.675544,-3.92674 -8.037236,-8.04757 -0.370758,-3.33847 1.406716,-6.74666 4.166671,-8.47958 1.438738,-1.08636 3.558688,-0.87858 4.745447,-2.34198 z"
     inkscape:label="leads"
     sodipodi:nodetypes="ccccccccccccccccccccccccccccccccccccccccccccccccccccccscccccccccccccccccccccccccc" />
  <path
     id="path792-7"
     style="display:inline;fill:#0000d4;stroke-width:7.47944;stroke-linecap:round;stroke-linejoin:round;paint-order:stroke fill markers"
     inkscape:label="Root-Circle"
     d="m 67.099609,116.00586 c -1.109915,0.0769 -2.450859,0.55933 -3.365895,1.20271 -2.420668,1.57244 -3.877063,4.61374 -3.231761,7.48088 0.509282,2.73424 2.574094,5.20517 5.348081,5.8112 2.58333,0.64383 5.490277,-0.0327 7.259052,-2.02508 2.46008,-2.5689 2.767136,-6.99349 0.404449,-9.72729 -1.504582,-1.90249 -3.998411,-2.9692 -6.413926,-2.74242 z" />
  <path
     id="rect2771-9"
     style="display:inline;fill:#d40000;stroke-width:6.99526;stroke-linecap:round;stroke-linejoin:round;paint-order:stroke fill markers"
     inkscape:label="Triangle"
     d="m 58.582031,20.570312 c 6.116537,10e-7 12.233073,0 18.34961,0 C 73.873047,16.070964 70.814453,11.571615 67.755859,7.0722656 64.697917,11.571615 61.639974,16.070964 58.582031,20.570312 Z" />
  <path
     id="rect14297-2"
     style="display:inline;fill:#ffcc00;stroke:none;stroke-width:4.23333;stroke-linecap:round;stroke-linejoin:round;stroke-dasharray:none;stroke-opacity:1;paint-order:stroke fill markers"
     inkscape:label="Square"
     d="m 83.8125,52.986328 c 4.05599,0 8.111979,0 12.167969,0 0,-4.055989 0,-8.111979 0,-12.167969 -4.05599,0 -8.111979,0 -12.167969,0 0,4.05599 0,8.11198 0,12.167969 z" />
  <path
     id="path14191-0"
     style="display:inline;fill:#00d400;stroke:none;stroke-width:4.23333;stroke-linecap:round;stroke-linejoin:round;stroke-dasharray:none;stroke-opacity:1;paint-order:stroke fill markers"
     inkscape:label="Circle"
     d="m 45.205078,49.355469 c -3.394156,0.11674 -6.336448,3.725442 -5.567206,7.122457 0.556084,2.970536 3.552369,5.410406 6.59432,4.960168 3.012421,-0.306414 5.649297,-3.092789 5.441636,-6.180282 -0.01038,-2.821138 -2.227846,-5.441248 -5.036788,-5.835606 -0.471841,-0.08284 -0.954378,-0.09788 -1.431962,-0.06674 z" />
  <path
     id="path792-7-9"
     style="display:inline;mix-blend-mode:normal;fill:#ffffff;stroke-width:7.47944;stroke-linecap:round;stroke-linejoin:round;paint-order:stroke fill markers;opacity:0.6"
     inkscape:label="highlight"
     d="M 67.765339,7.0722656 C 64.707405,11.571606 61.649676,16.07081 58.591739,20.57015 h 1.77767 C 63.131094,16.506681 65.892469,12.443164 68.654174,8.3796793 68.357911,7.9438614 68.061604,7.508086 67.765339,7.0722656 Z M 83.821724,40.818009 v 12.16825 h 1.058333 V 41.876343 h 11.109916 v -1.058334 z m -38.248311,8.522994 c -0.119771,0.0017 -0.239239,0.0067 -0.358635,0.01447 -3.394148,0.11674 -6.336859,3.725038 -5.567619,7.122045 0.272504,1.455681 1.133261,2.781462 2.295984,3.704684 -0.61473,-0.77272 -1.056791,-1.680232 -1.23765,-2.64635 -0.769239,-3.397008 2.17347,-7.005306 5.567619,-7.122046 0.119395,-0.0078 0.238863,-0.01277 0.358634,-0.01447 0.359311,-0.005 0.71944,0.019 1.073319,0.08113 0.991466,0.139195 1.905931,0.560079 2.678907,1.164786 -0.916333,-1.167608 -2.240525,-2.01299 -3.73724,-2.22312 -0.353879,-0.06213 -0.714009,-0.08616 -1.073319,-0.08113 z m 22.216214,66.634687 c -0.22695,-0.001 -0.454124,0.009 -0.680578,0.03 -1.109913,0.0769 -2.450652,0.55913 -3.365686,1.20251 -2.420664,1.57244 -3.877146,4.61407 -3.231844,7.48119 0.325548,1.74781 1.288752,3.38524 2.664437,4.49947 -0.807478,-0.98921 -1.372319,-2.18598 -1.606104,-3.44113 -0.645301,-2.86713 0.811181,-5.90876 3.231844,-7.4812 0.915034,-0.64338 2.255773,-1.12561 3.365686,-1.20251 0.226454,-0.021 0.453628,-0.031 0.680579,-0.03 1.674385,0.008 3.337095,0.61595 4.637443,1.66915 -1.365665,-1.69663 -3.521453,-2.71695 -5.695777,-2.72749 z" />
</g>
<metadata
   id="metadata1">
  <rdf:RDF>
    <cc:Work
       rdf:about="">
      <dc:creator>
        <cc:Agent>
          <dc:title>Jess Tipton</dc:title>
        </cc:Agent>
      </dc:creator>
      <dc:publisher>
        <cc:Agent>
          <dc:title>m0dw3rks.com</dc:title>
        </cc:Agent>
      </dc:publisher>
      <cc:license
         rdf:resource="https://creativecommons.org/licenses/by-nc-nd/4.0/deed.en" />
    </cc:Work>
  </rdf:RDF>
</metadata>
<metadata
   id="metadata6">
  <rdf:RDF>
    <cc:Work
       rdf:about="">
      <dc:creator>
        <cc:Agent>
          <dc:title>Jess Tipton</dc:title>
        </cc:Agent>
      </dc:creator>
      <cc:license
         rdf:resource="https://creativecommons.org/licenses/by-nc-nd/4.0/deed.en" />
      <dc:publisher>
        <cc:Agent>
          <dc:title>m0dw3rks.com</dc:title>
        </cc:Agent>
      </dc:publisher>
    </cc:Work>
  </rdf:RDF>
</metadata>
<metadata
   id="metadata2">
  <rdf:RDF>
    <cc:Work
       rdf:about="">
      <dc:creator>
        <cc:Agent>
          <dc:title>Jess Tipton</dc:title>
        </cc:Agent>
      </dc:creator>
      <cc:license
         rdf:resource="https://creativecommons.org/licenses/by-nc-nd/4.0/deed.en" />
      <dc:publisher>
        <cc:Agent>
          <dc:title>m0dw3rks.com</dc:title>
        </cc:Agent>
      </dc:publisher>
    </cc:Work>
  </rdf:RDF>
</metadata>
<metadata
   id="metadata3">
  <rdf:RDF>
    <cc:Work
       rdf:about="">
      <dc:creator>
        <cc:Agent>
          <dc:title>Jess Tipton</dc:title>
        </cc:Agent>
      </dc:creator>
      <cc:license
         rdf:resource="https://creativecommons.org/licenses/by-nc-nd/4.0/deed.en" />
      <dc:publisher>
        <cc:Agent>
          <dc:title>m0dw3rks.com</dc:title>
        </cc:Agent>
      </dc:publisher>
    </cc:Work>
  </rdf:RDF>
</metadata>
<metadata
   id="metadata4">
  <rdf:RDF>
    <cc:Work
       rdf:about="">
      <dc:creator>
        <cc:Agent>
          <dc:title>Jess Tipton</dc:title>
        </cc:Agent>
      </dc:creator>
      <cc:license
         rdf:resource="https://creativecommons.org/licenses/by-nc-nd/4.0/deed.en" />
      <dc:publisher>
        <cc:Agent>
          <dc:title>m0dw3rks.com</dc:title>
        </cc:Agent>
      </dc:publisher>
    </cc:Work>
  </rdf:RDF>
</metadata>
<metadata
   id="metadata5">
  <rdf:RDF>
    <cc:Work
       rdf:about="">
      <dc:creator>
        <cc:Agent>
          <dc:title>Jess Tipton</dc:title>
        </cc:Agent>
      </dc:creator>
      <cc:license
         rdf:resource="https://creativecommons.org/licenses/by-nc-nd/4.0/deed.en" />
      <dc:publisher>
        <cc:Agent>
          <dc:title>m0dw3rks.com</dc:title>
        </cc:Agent>
      </dc:publisher>
    </cc:Work>
  </rdf:RDF>
</metadata>
<metadata
   id="metadata7">
  <rdf:RDF>
    <cc:Work
       rdf:about="">
      <dc:creator>
        <cc:Agent>
          <dc:title>Jess Tipton</dc:title>
        </cc:Agent>
      </dc:creator>
      <cc:license
         rdf:resource="https://creativecommons.org/licenses/by-nc-nd/4.0/deed.en" />
      <dc:publisher>
        <cc:Agent>
          <dc:title>m0dw3rks.com</dc:title>
        </cc:Agent>
      </dc:publisher>
    </cc:Work>
  </rdf:RDF>
</metadata>
<metadata
   id="metadata8">
  <rdf:RDF>
    <cc:Work
       rdf:about="">
      <dc:creator>
        <cc:Agent>
          <dc:title>Jess Tipton</dc:title>
        </cc:Agent>
      </dc:creator>
      <cc:license
         rdf:resource="https://creativecommons.org/licenses/by-nc-nd/4.0/deed.en" />
      <dc:publisher>
        <cc:Agent>
          <dc:title>m0dw3rks.com</dc:title>
        </cc:Agent>
      </dc:publisher>
    </cc:Work>
  </rdf:RDF>
</metadata>
<metadata
   id="metadata9">
  <rdf:RDF>
    <cc:Work
       rdf:about="">
      <dc:creator>
        <cc:Agent>
          <dc:title>Jess Tipton</dc:title>
        </cc:Agent>
      </dc:creator>
      <cc:license
         rdf:resource="https://creativecommons.org/licenses/by-nc-nd/4.0/deed.en" />
      <dc:publisher>
        <cc:Agent>
          <dc:title>m0dw3rks.com</dc:title>
        </cc:Agent>
      </dc:publisher>
    </cc:Work>
  </rdf:RDF>
</metadata>
<metadata
   id="metadata10">
  <rdf:RDF>
    <cc:Work
       rdf:about="">
      <dc:creator>
        <cc:Agent>
          <dc:title>Jess Tipton</dc:title>
        </cc:Agent>
      </dc:creator>
      <cc:license
         rdf:resource="https://creativecommons.org/licenses/by-nc-nd/4.0/deed.en" />
      <dc:publisher>
        <cc:Agent>
          <dc:title>m0dw3rks.com</dc:title>
        </cc:Agent>
      </dc:publisher>
    </cc:Work>
  </rdf:RDF>
</metadata>
<metadata
   id="metadata11">
  <rdf:RDF>
    <cc:Work
       rdf:about="">
      <dc:creator>
        <cc:Agent>
          <dc:title>Jess Tipton</dc:title>
        </cc:Agent>
      </dc:creator>
      <cc:license
         rdf:resource="https://creativecommons.org/licenses/by-nc-nd/4.0/deed.en" />
      <dc:publisher>
        <cc:Agent>
          <dc:title>m0dw3rks.com</dc:title>
        </cc:Agent>
      </dc:publisher>
    </cc:Work>
  </rdf:RDF>
</metadata>
<metadata
   id="metadata12">
  <rdf:RDF>
    <cc:Work
       rdf:about="">
      <dc:creator>
        <cc:Agent>
          <dc:title>Jess Tipton</dc:title>
        </cc:Agent>
      </dc:creator>
      <cc:license
         rdf:resource="https://creativecommons.org/licenses/by-nc-nd/4.0/deed.en" />
      <dc:publisher>
        <cc:Agent>
          <dc:title>m0dw3rks.com</dc:title>
        </cc:Agent>
      </dc:publisher>
    </cc:Work>
  </rdf:RDF>
</metadata>
<metadata
   id="metadata13">
  <rdf:RDF>
    <cc:Work
       rdf:about="">
      <dc:creator>
        <cc:Agent>
          <dc:title>Jess Tipton</dc:title>
        </cc:Agent>
      </dc:creator>
      <cc:license
         rdf:resource="https://creativecommons.org/licenses/by-nc-nd/4.0/deed.en" />
      <dc:publisher>
        <cc:Agent>
          <dc:title>m0dw3rks.com</dc:title>
        </cc:Agent>
      </dc:publisher>
    </cc:Work>
  </rdf:RDF>
</metadata>
<metadata
   id="metadata14">
  <rdf:RDF>
    <cc:Work
       rdf:about="">
      <dc:creator>
        <cc:Agent>
          <dc:title>Jess Tipton</dc:title>
        </cc:Agent>
      </dc:creator>
      <cc:license
         rdf:resource="https://creativecommons.org/licenses/by-nc-nd/4.0/deed.en" />
      <dc:publisher>
        <cc:Agent>
          <dc:title>m0dw3rks.com</dc:title>
        </cc:Agent>
      </dc:publisher>
    </cc:Work>
  </rdf:RDF>
</metadata>
<metadata
   id="metadata15">
  <rdf:RDF>
    <cc:Work
       rdf:about="">
      <dc:creator>
        <cc:Agent>
          <dc:title>Jess Tipton</dc:title>
        </cc:Agent>
      </dc:creator>
      <cc:license
         rdf:resource="https://creativecommons.org/licenses/by-nc-nd/4.0/deed.en" />
      <dc:publisher>
        <cc:Agent>
          <dc:title>m0dw3rks.com</dc:title>
        </cc:Agent>
      </dc:publisher>
    </cc:Work>
  </rdf:RDF>
</metadata>
<metadata
   id="metadata16">
  <rdf:RDF>
    <cc:Work
       rdf:about="">
      <dc:creator>
        <cc:Agent>
          <dc:title>Jess Tipton</dc:title>
        </cc:Agent>
      </dc:creator>
      <cc:license
         rdf:resource="https://creativecommons.org/licenses/by-nc-nd/4.0/deed.en" />
      <dc:publisher>
        <cc:Agent>
          <dc:title>m0dw3rks.com</dc:title>
        </cc:Agent>
      </dc:publisher>
    </cc:Work>
  </rdf:RDF>
</metadata>
<metadata
   id="metadata17">
  <rdf:RDF>
    <cc:Work
       rdf:about="">
      <dc:creator>
        <cc:Agent>
          <dc:title>Jess Tipton</dc:title>
        </cc:Agent>
      </dc:creator>
      <cc:license
         rdf:resource="https://creativecommons.org/licenses/by-nc-nd/4.0/deed.en" />
      <dc:publisher>
        <cc:Agent>
          <dc:title>m0dw3rks.com</dc:title>
        </cc:Agent>
      </dc:publisher>
    </cc:Work>
  </rdf:RDF>
</metadata>
<metadata
   id="metadata18">
  <rdf:RDF>
    <cc:Work
       rdf:about="">
      <dc:creator>
        <cc:Agent>
          <dc:title>Jess Tipton</dc:title>
        </cc:Agent>
      </dc:creator>
      <cc:license
         rdf:resource="https://creativecommons.org/licenses/by-nc-nd/4.0/deed.en" />
      <dc:publisher>
        <cc:Agent>
          <dc:title>m0dw3rks.com</dc:title>
        </cc:Agent>
      </dc:publisher>
    </cc:Work>
  </rdf:RDF>
</metadata>
</svg>
