<?xml version="1.0" encoding="UTF-8" standalone="no"?>
<!-- Created with Inkscape (http://www.inkscape.org/) -->

<svg
   width="512"
   height="512"
   viewBox="0 0 135.46666 135.46667"
   version="1.1"
   id="svg5"
   inkscape:version="1.4.2 (ebf0e940d0, 2025-05-08)"
   sodipodi:docname="wiimotedev.svg"
   xmlns:inkscape="http://www.inkscape.org/namespaces/inkscape"
   xmlns:sodipodi="http://sodipodi.sourceforge.net/DTD/sodipodi-0.dtd"
   xmlns:xlink="http://www.w3.org/1999/xlink"
   xmlns="http://www.w3.org/2000/svg"
   xmlns:svg="http://www.w3.org/2000/svg">
  <sodipodi:namedview
     id="namedview7"
     pagecolor="#242424"
     bordercolor="#666666"
     borderopacity="1"
     inkscape:showpageshadow="0"
     inkscape:pageopacity="0"
     inkscape:pagecheckerboard="1"
     inkscape:deskcolor="#000000"
     inkscape:document-units="px"
     showgrid="false"
     inkscape:zoom="1"
     inkscape:cx="495.5"
     inkscape:cy="272"
     inkscape:window-width="3256"
     inkscape:window-height="1080"
     inkscape:window-x="1864"
     inkscape:window-y="0"
     inkscape:window-maximized="0"
     inkscape:current-layer="layer1" />
  <defs
     id="defs2">
    <linearGradient
       id="linearGradient61"
       inkscape:collect="always">
      <stop
         style="stop-color:#ffffff;stop-opacity:1;"
         offset="0"
         id="stop61" />
      <stop
         style="stop-color:#b3b3b3;stop-opacity:1;"
         offset="1"
         id="stop62" />
    </linearGradient>
    <linearGradient
       id="linearGradient58"
       inkscape:collect="always">
      <stop
         style="stop-color:#ffffff;stop-opacity:1;"
         offset="0"
         id="stop59" />
      <stop
         style="stop-color:#ffffff;stop-opacity:0;"
         offset="1"
         id="stop60" />
    </linearGradient>
    <linearGradient
       id="linearGradient57"
       inkscape:collect="always">
      <stop
         style="stop-color:#e6e6e6;stop-opacity:1;"
         offset="0.33000001"
         id="stop58" />
      <stop
         style="stop-color:#cccccc;stop-opacity:1;"
         offset="1"
         id="stop57" />
    </linearGradient>
    <linearGradient
       id="linearGradient25"
       inkscape:collect="always">
      <stop
         style="stop-color:#244981;stop-opacity:1;"
         offset="0"
         id="stop25" />
      <stop
         style="stop-color:#0b1423;stop-opacity:1;"
         offset="1"
         id="stop26" />
    </linearGradient>
    <linearGradient
       id="linearGradient23"
       inkscape:collect="always">
      <stop
         style="stop-color:#ffffff;stop-opacity:1;"
         offset="0"
         id="stop23" />
      <stop
         style="stop-color:#ffffff;stop-opacity:0;"
         offset="1"
         id="stop24" />
    </linearGradient>
    <linearGradient
       id="linearGradient12"
       inkscape:collect="always">
      <stop
         style="stop-color:#ffffff;stop-opacity:1;"
         offset="0"
         id="stop12" />
      <stop
         style="stop-color:#ffffff;stop-opacity:0;"
         offset="1"
         id="stop13" />
    </linearGradient>
    <linearGradient
       id="linearGradient8"
       inkscape:collect="always">
      <stop
         style="stop-color:#bbbfc6;stop-opacity:1;"
         offset="0"
         id="stop9" />
      <stop
         style="stop-color:#adb2c3;stop-opacity:1;"
         offset="0.90333331"
         id="stop8" />
      <stop
         style="stop-color:#40434f;stop-opacity:1;"
         offset="1"
         id="stop14" />
    </linearGradient>
    <inkscape:path-effect
       effect="fillet_chamfer"
       id="path-effect7"
       is_visible="true"
       lpeversion="1"
       nodesatellites_param="F,0,0,1,0,0,0,1 @ F,0,0,1,0,0,0,1 @ F,0,1,1,0,0.52916664,0,1 @ F,0,0,1,0,0,0,1 @ F,0,0,1,0,0,0,1 @ F,0,0,1,0,0,0,1 @ F,0,0,1,0,0,0,1 @ F,0,1,1,0,0.52916664,0,1 @ F,0,0,1,0,0,0,1 @ F,0,0,1,0,0,0,1 @ F,0,0,1,0,0,0,1 @ F,0,0,1,0,0,0,1 @ F,0,1,1,0,0.52916664,0,1 @ F,0,0,1,0,0,0,1 @ F,0,0,1,0,0,0,1 @ F,0,0,1,0,0,0,1 @ F,0,0,1,0,0,0,1 @ F,0,1,1,0,0.52916664,0,1 @ F,0,0,1,0,0,0,1 @ F,0,0,1,0,0,0,1"
       radius="2"
       unit="px"
       method="auto"
       mode="F"
       chamfer_steps="1"
       flexible="false"
       use_knot_distance="true"
       apply_no_radius="true"
       apply_with_radius="true"
       only_selected="true"
       hide_knots="false" />
    <radialGradient
       inkscape:collect="always"
       xlink:href="#linearGradient8"
       id="radialGradient9"
       cx="53.069836"
       cy="43.731239"
       fx="53.069836"
       fy="43.731239"
       r="5.8599977"
       gradientUnits="userSpaceOnUse" />
    <filter
       inkscape:collect="always"
       style="color-interpolation-filters:sRGB"
       id="filter12"
       x="-0.017279579"
       y="-0.017280422"
       width="1.0345592"
       height="1.0345608">
      <feGaussianBlur
         inkscape:collect="always"
         stdDeviation="0.076428821"
         id="feGaussianBlur12" />
    </filter>
    <linearGradient
       inkscape:collect="always"
       xlink:href="#linearGradient12"
       id="linearGradient13"
       x1="77.742027"
       y1="35.092949"
       x2="77.775871"
       y2="40.698292"
       gradientUnits="userSpaceOnUse"
       gradientTransform="matrix(0.9014208,0,0,0.9014208,-17.005104,6.7902995)" />
    <linearGradient
       inkscape:collect="always"
       xlink:href="#linearGradient23"
       id="linearGradient24"
       x1="34.528126"
       y1="116.30091"
       x2="34.528126"
       y2="117.16081"
       gradientUnits="userSpaceOnUse"
       gradientTransform="matrix(0.93269333,0,0,0.86538683,10.659301,17.520118)" />
    <linearGradient
       inkscape:collect="always"
       xlink:href="#linearGradient25"
       id="linearGradient26"
       x1="42.862499"
       y1="120.18698"
       x2="42.862499"
       y2="118.07031"
       gradientUnits="userSpaceOnUse" />
    <linearGradient
       inkscape:collect="always"
       xlink:href="#linearGradient23"
       id="linearGradient27"
       gradientUnits="userSpaceOnUse"
       gradientTransform="matrix(0.93269333,0,0,0.86538683,15.950968,17.520118)"
       x1="34.528126"
       y1="116.30091"
       x2="34.528126"
       y2="117.16081" />
    <linearGradient
       inkscape:collect="always"
       xlink:href="#linearGradient25"
       id="linearGradient28"
       gradientUnits="userSpaceOnUse"
       x1="42.862499"
       y1="120.18698"
       x2="42.862499"
       y2="118.07031"
       gradientTransform="translate(5.2916666)" />
    <linearGradient
       inkscape:collect="always"
       xlink:href="#linearGradient23"
       id="linearGradient29"
       gradientUnits="userSpaceOnUse"
       gradientTransform="matrix(0.93269333,0,0,0.86538683,21.242635,17.520118)"
       x1="34.528126"
       y1="116.30091"
       x2="34.528126"
       y2="117.16081" />
    <linearGradient
       inkscape:collect="always"
       xlink:href="#linearGradient25"
       id="linearGradient30"
       gradientUnits="userSpaceOnUse"
       gradientTransform="translate(10.583333)"
       x1="42.862499"
       y1="120.18698"
       x2="42.862499"
       y2="118.07031" />
    <linearGradient
       inkscape:collect="always"
       xlink:href="#linearGradient23"
       id="linearGradient31"
       gradientUnits="userSpaceOnUse"
       gradientTransform="matrix(0.93269333,0,0,0.86538683,26.534302,17.520118)"
       x1="34.528126"
       y1="116.30091"
       x2="34.528126"
       y2="117.16081" />
    <linearGradient
       inkscape:collect="always"
       xlink:href="#linearGradient25"
       id="linearGradient32"
       gradientUnits="userSpaceOnUse"
       gradientTransform="translate(15.875)"
       x1="42.862499"
       y1="120.18698"
       x2="42.862499"
       y2="118.07031" />
    <radialGradient
       inkscape:collect="always"
       xlink:href="#linearGradient57"
       id="radialGradient58"
       cx="53.069836"
       cy="20.192909"
       fx="53.069836"
       fy="20.192909"
       r="8.757347"
       gradientTransform="translate(0,-1.4987862e-5)"
       gradientUnits="userSpaceOnUse" />
    <linearGradient
       inkscape:collect="always"
       xlink:href="#linearGradient58"
       id="linearGradient60"
       x1="52.808922"
       y1="0"
       x2="52.808922"
       y2="86.562019"
       gradientUnits="userSpaceOnUse"
       gradientTransform="matrix(0.95419848,0,0,0.95419848,2.4187367,0.66031752)" />
    <linearGradient
       inkscape:collect="always"
       xlink:href="#linearGradient61"
       id="linearGradient62"
       x1="52.809036"
       y1="135.46666"
       x2="52.809177"
       y2="0.66031754"
       gradientUnits="userSpaceOnUse" />
    <radialGradient
       inkscape:collect="always"
       xlink:href="#linearGradient8"
       id="radialGradient62"
       gradientUnits="userSpaceOnUse"
       cx="53.069836"
       cy="43.731239"
       fx="53.069836"
       fy="43.731239"
       r="5.8599977" />
  </defs>
  <g
     inkscape:label="Layer 1"
     inkscape:groupmode="layer"
     id="layer1">
    <g
       id="g62"
       transform="translate(14.924294)">
      <rect
         style="fill:url(#linearGradient62);stroke:none;stroke-width:1.5875;stroke-linecap:round;stroke-linejoin:round;stroke-miterlimit:12;paint-order:markers stroke fill"
         id="rect1"
         width="30.996609"
         height="135.46666"
         x="37.310734"
         y="0"
         ry="4.8073444" />
      <path
         id="path58"
         style="display:inline;fill:url(#linearGradient60);fill-opacity:1;stroke:none;stroke-width:0.264583;stroke-linecap:square;stroke-linejoin:miter;stroke-miterlimit:12;stroke-dasharray:none;stroke-opacity:1;paint-order:markers fill stroke"
         d="m 42.475225,0.66031752 c -2.541287,0 -4.454484,1.91369088 -4.454484,4.45497828 V 58.794329 c 7.852415,8.558213 18.12332,14.764043 29.576872,17.870775 V 5.1152958 c 0,-2.5412874 -1.913691,-4.45497828 -4.454979,-4.45497828 z"
         sodipodi:nodetypes="ssccsss" />
      <circle
         style="fill:#ececec;stroke:#000000;stroke-width:0.264583;stroke-linecap:round;stroke-linejoin:round;stroke-miterlimit:12;stroke-dasharray:none;stroke-opacity:1;paint-order:markers stroke fill"
         id="path1"
         cx="43.37056"
         cy="4.6646113"
         r="2.1213286" />
      <path
         id="path3"
         style="baseline-shift:baseline;display:inline;overflow:visible;fill:#ff0000;stroke:#ff0000;stroke-width:0.264584;stroke-linecap:round;stroke-linejoin:round;stroke-miterlimit:12;stroke-dasharray:none;stroke-opacity:1;paint-order:markers stroke fill;enable-background:accumulate;stop-color:#000000"
         d="m 43.370605,3.2912625 c -0.03946,0 -0.07148,0.03203 -0.07148,0.07149 v 1.038442 c 0,0.03947 0.03203,0.07096 0.07148,0.07096 0.03946,0 0.07096,-0.0315 0.07096,-0.07096 v -1.038442 c 0,-0.03946 -0.0315,-0.07149 -0.07096,-0.07149 z m -0.825034,0.347914 c -0.03617,-5.59e-4 -0.07106,0.01336 -0.09691,0.03865 -0.389599,0.37412 -0.513645,0.947264 -0.314552,1.449373 0.199094,0.502109 0.682613,0.835449 1.222726,0.840922 0.540113,0.0054 1.030972,-0.317533 1.240201,-0.815503 0.209228,-0.497972 0.09598,-1.072732 -0.285956,-1.454669 -0.05245,-0.053 -0.137864,-0.05374 -0.191167,-0.0015 l 0.09532,0.09638 c 0.343233,0.343194 0.444737,0.859925 0.25683,1.307454 -0.18791,0.447732 -0.628096,0.737213 -1.113638,0.732364 -0.485393,-0.0051 -0.919467,-0.303322 -1.098283,-0.754605 -0.179002,-0.451196 -0.06724,-0.965845 0.282779,-1.302158 l 0.09797,-0.09479 c -0.02495,-0.02607 -0.05925,-0.04112 -0.09532,-0.04183 z" />
      <path
         id="rect6"
         style="fill:url(#radialGradient58);stroke:#000000;stroke-width:0.264583;stroke-linecap:round;stroke-linejoin:round;stroke-miterlimit:12;stroke-dasharray:none;stroke-opacity:1;paint-order:markers stroke fill"
         d="m 50.711586,11.567853 c -0.04279,0 -0.077,0.03421 -0.077,0.077 v 5.583638 a 0.52916664,0.52916664 135 0 1 -0.529167,0.529167 h -5.583638 c -0.04279,0 -0.077,0.03421 -0.077,0.077 v 4.716508 c 0,0.04279 0.03421,0.077 0.077,0.077 h 5.583638 a 0.52916664,0.52916664 45 0 1 0.529167,0.529167 v 5.583638 c 0,0.04279 0.03421,0.077 0.077,0.077 h 4.716507 c 0.04279,0 0.077,-0.03421 0.077,-0.077 V 23.157327 A 0.52916664,0.52916664 135 0 1 56.03426,22.62816 h 5.583122 c 0.04279,0 0.07751,-0.03421 0.07751,-0.077 v -4.716508 c 0,-0.04279 -0.03473,-0.077 -0.07751,-0.077 H 56.03426 a 0.52916664,0.52916664 45 0 1 -0.529167,-0.529167 v -5.583638 c 0,-0.04279 -0.03421,-0.077 -0.077,-0.077 z" />
      <path
         id="rect7"
         style="fill:#949494;fill-opacity:1;stroke:none;stroke-width:0.264583;stroke-linecap:round;stroke-linejoin:round;stroke-miterlimit:12;stroke-dasharray:none;stroke-opacity:1;paint-order:markers stroke fill"
         d="m 53.060326,12.982153 c -0.03511,0.0036 -0.06253,0.03366 -0.06253,0.06976 v 2.046904 a 5.0943503,5.0943503 0 0 1 0.07183,-5.17e-4 5.0943503,5.0943503 0 0 1 0.07183,5.17e-4 v -2.046904 c 0,-0.03851 -0.03126,-0.06976 -0.06976,-0.06976 h -0.0047 c -0.0024,0 -0.0044,-2.38e-4 -0.0067,0 z m -7.138582,7.139099 c -0.03516,0.0036 -0.06304,0.03367 -0.06304,0.06976 v 0.0047 c 0,0.03851 0.03125,0.06925 0.06976,0.06925 h 2.04742 a 5.0943503,5.0943503 0 0 1 -5.16e-4,-0.07183 5.0943503,5.0943503 0 0 1 5.16e-4,-0.07183 h -2.04742 c -0.0024,0 -0.0044,-2.38e-4 -0.0067,0 z m 12.242147,0 a 5.0943503,5.0943503 0 0 1 5.17e-4,0.07183 5.0943503,5.0943503 0 0 1 -5.17e-4,0.07183 h 2.04742 c 0.03851,0 0.06925,-0.03074 0.06925,-0.06925 v -0.0047 c 0,-0.03851 -0.03074,-0.06976 -0.06925,-0.06976 z m -5.166093,5.165576 v 2.047937 c 0,0.03851 0.03074,0.06925 0.06925,0.06925 h 0.0047 c 0.03851,0 0.06976,-0.03074 0.06976,-0.06925 v -2.047937 a 5.0943503,5.0943503 0 0 1 -0.07183,5.17e-4 5.0943503,5.0943503 0 0 1 -0.07183,-5.17e-4 z" />
      <circle
         style="fill:url(#radialGradient62);fill-opacity:1;stroke:#000000;stroke-width:0.264583;stroke-linecap:round;stroke-linejoin:round;stroke-miterlimit:12;stroke-dasharray:none;stroke-opacity:1;paint-order:markers stroke fill"
         id="path8"
         cx="53.069836"
         cy="43.731239"
         r="5.8599977" />
      <path
         id="path10"
         style="baseline-shift:baseline;display:inline;overflow:visible;vector-effect:none;fill:#ffffff;stroke-linecap:round;stroke-linejoin:round;stroke-miterlimit:12;paint-order:markers stroke fill;filter:url(#filter12);enable-background:accumulate;stop-color:#000000"
         d="m 53.068802,38.423812 c -2.929604,0 -5.306653,2.378599 -5.306653,5.308203 0,1.644955 0.938444,3.013253 0.938444,3.013253 v 0 c 0,0 -0.674894,-1.989245 -0.674894,-3.013253 0,-3.411578 3.243339,-5.607041 5.896281,-5.239992 -0.0023,0.0079 -0.0516,0.0817 0,0 -0.277837,-0.04498 -0.562737,-0.06821 -0.853178,-0.06821 z m 3.89847,1.706873 c -0.04874,0.07702 0,0 0,0 0.802592,0.893 1.144633,2.305211 1.144633,3.60133 0,2.786613 -2.25649,5.043103 -5.043103,5.043103 -0.500405,0 -1.586467,0.02222 -1.586467,0.02222 0,0 0.04474,-0.07042 0,0 0.501081,0.156936 1.033809,0.241329 1.586467,0.241329 2.929604,0 5.30872,-2.377048 5.30872,-5.306653 0,-1.389417 -0.535083,-2.654658 -1.41025,-3.601329 z"
         sodipodi:nodetypes="ssccsccsccssccssc" />
      <text
         xml:space="preserve"
         style="font-style:normal;font-variant:normal;font-weight:normal;font-stretch:normal;font-size:5.88589px;line-height:1.25;font-family:Arial;-inkscape-font-specification:'Arial, Normal';font-variant-ligatures:normal;font-variant-caps:normal;font-variant-numeric:normal;font-variant-east-asian:normal;text-align:center;text-anchor:middle;stroke-width:0.264584"
         x="53.069836"
         y="45.83786"
         id="text12"><tspan
           sodipodi:role="line"
           id="tspan12"
           style="font-style:normal;font-variant:normal;font-weight:normal;font-stretch:normal;font-size:5.88589px;font-family:Arial;-inkscape-font-specification:'Arial, Normal';font-variant-ligatures:normal;font-variant-caps:normal;font-variant-numeric:normal;font-variant-east-asian:normal;stroke-width:0.264584"
           x="53.069836"
           y="45.83786">A</tspan></text>
      <path
         id="circle12"
         style="fill:url(#linearGradient13);stroke:none;stroke-width:0.264583;stroke-linecap:round;stroke-linejoin:round;stroke-miterlimit:12;stroke-dasharray:none;stroke-opacity:1;paint-order:markers stroke fill"
         d="m 53.073174,38.423813 a 5.2823238,5.2823238 0 0 0 -5.216276,4.450465 14.667806,8.0643127 0 0 1 3.826262,-0.279029 14.667806,8.0643127 0 0 1 6.667313,0.881337 5.2823238,5.2823238 0 0 0 -5.277299,-5.052773 z" />
      <circle
         style="fill:#ececec;stroke:#000000;stroke-width:0.264583;stroke-linecap:round;stroke-linejoin:round;stroke-miterlimit:12;stroke-dasharray:none;stroke-opacity:1;paint-order:markers stroke fill"
         id="circle14"
         cx="43.449402"
         cy="65.206657"
         r="1.8236724" />
      <circle
         style="fill:#ececec;stroke:#000000;stroke-width:0.264583;stroke-linecap:round;stroke-linejoin:round;stroke-miterlimit:12;stroke-dasharray:none;stroke-opacity:1;paint-order:markers stroke fill"
         id="circle15"
         cx="62.168674"
         cy="65.206657"
         r="1.8236724" />
      <circle
         style="fill:#ececec;stroke:#000000;stroke-width:0.264583;stroke-linecap:round;stroke-linejoin:round;stroke-miterlimit:12;stroke-dasharray:none;stroke-opacity:1;paint-order:markers stroke fill"
         id="circle16"
         cx="52.809036"
         cy="65.206657"
         r="1.8236724" />
      <rect
         style="fill:#949494;fill-opacity:1;stroke:none;stroke-width:0.264583;stroke-linecap:round;stroke-linejoin:round;stroke-miterlimit:12;stroke-dasharray:none;stroke-opacity:1;paint-order:markers stroke fill"
         id="rect16"
         width="2.3316405"
         height="0.35066876"
         x="42.283581"
         y="65.031326"
         ry="0.17533438" />
      <rect
         style="fill:#949494;fill-opacity:1;stroke:none;stroke-width:0.264583;stroke-linecap:round;stroke-linejoin:round;stroke-miterlimit:12;stroke-dasharray:none;stroke-opacity:1;paint-order:markers stroke fill"
         id="rect17"
         width="2.3316405"
         height="0.35066876"
         x="61.002853"
         y="65.031326"
         ry="0.17533438" />
      <rect
         style="fill:#949494;fill-opacity:1;stroke:none;stroke-width:0.264583;stroke-linecap:round;stroke-linejoin:round;stroke-miterlimit:12;stroke-dasharray:none;stroke-opacity:1;paint-order:markers stroke fill"
         id="rect18"
         width="2.3316405"
         height="0.35066876"
         x="-66.372482"
         y="61.99334"
         ry="0.17533438"
         transform="rotate(-90)" />
      <path
         id="rect19"
         style="baseline-shift:baseline;display:inline;overflow:visible;opacity:1;vector-effect:none;fill:#4ac6e3;stroke-linecap:square;stroke-miterlimit:12;paint-order:markers fill stroke;enable-background:accumulate;stop-color:#000000;stop-opacity:1"
         d="m 52.809295,64.313947 -1.077454,0.499195 h 0.299724 v 1.286226 h 1.554427 v -1.286226 h 0.30024 z m -0.512113,0.901237 h 1.02526 v 0.620117 h -1.02526 z" />
      <circle
         style="fill:#ececec;stroke:#000000;stroke-width:0.264584;stroke-linecap:round;stroke-linejoin:round;stroke-miterlimit:12;stroke-dasharray:none;stroke-opacity:1;paint-order:markers stroke fill"
         id="circle21"
         cx="52.809036"
         cy="109.31267"
         r="3.9922154" />
      <circle
         style="fill:#ececec;stroke:#000000;stroke-width:0.264584;stroke-linecap:round;stroke-linejoin:round;stroke-miterlimit:12;stroke-dasharray:none;stroke-opacity:1;paint-order:markers stroke fill"
         id="circle22"
         cx="52.809036"
         cy="95.025185"
         r="3.9922154" />
      <g
         id="g35">
        <rect
           style="fill:url(#linearGradient26);fill-opacity:1;stroke:#000000;stroke-width:0.0529167;stroke-linecap:square;stroke-linejoin:miter;stroke-miterlimit:12;stroke-dasharray:none;stroke-opacity:1;paint-order:markers fill stroke"
           id="rect22"
           width="2.1166666"
           height="2.1166666"
           x="41.804165"
           y="118.07031" />
        <path
           id="rect23"
           style="fill:url(#linearGradient24);stroke:none;stroke-width:0.105833;stroke-linecap:square;stroke-linejoin:miter;stroke-miterlimit:12;stroke-dasharray:none;stroke-opacity:1;paint-order:markers fill stroke"
           d="m 41.876353,118.16538 v 0.74415 a 4.056366,2.0535472 0 0 1 1.557768,-0.15742 4.056366,2.0535472 0 0 1 0.416433,0.0107 v -0.59747 z" />
      </g>
      <g
         id="g34"
         transform="translate(0.70555557)">
        <rect
           style="fill:url(#linearGradient28);fill-opacity:1;stroke:#000000;stroke-width:0.0529167;stroke-linecap:square;stroke-linejoin:miter;stroke-miterlimit:12;stroke-dasharray:none;stroke-opacity:1;paint-order:markers fill stroke"
           id="rect26"
           width="2.1166666"
           height="2.1166666"
           x="47.095833"
           y="118.07031" />
        <path
           id="path26"
           style="fill:url(#linearGradient27);stroke:none;stroke-width:0.105833;stroke-linecap:square;stroke-linejoin:miter;stroke-miterlimit:12;stroke-dasharray:none;stroke-opacity:1;paint-order:markers fill stroke"
           d="m 47.16802,118.16538 v 0.74415 a 4.056366,2.0535472 0 0 1 1.557768,-0.15742 4.056366,2.0535472 0 0 1 0.416433,0.0107 v -0.59747 z" />
      </g>
      <g
         id="g33"
         transform="translate(1.4111111)">
        <rect
           style="fill:url(#linearGradient30);fill-opacity:1;stroke:#000000;stroke-width:0.0529167;stroke-linecap:square;stroke-linejoin:miter;stroke-miterlimit:12;stroke-dasharray:none;stroke-opacity:1;paint-order:markers fill stroke"
           id="rect28"
           width="2.1166666"
           height="2.1166666"
           x="52.387501"
           y="118.07031" />
        <path
           id="path28"
           style="fill:url(#linearGradient29);stroke:none;stroke-width:0.105833;stroke-linecap:square;stroke-linejoin:miter;stroke-miterlimit:12;stroke-dasharray:none;stroke-opacity:1;paint-order:markers fill stroke"
           d="m 52.459687,118.16538 v 0.74415 a 4.056366,2.0535472 0 0 1 1.557768,-0.15742 4.056366,2.0535472 0 0 1 0.416433,0.0107 v -0.59747 z" />
      </g>
      <g
         id="g32"
         transform="translate(2.1166667)">
        <rect
           style="fill:url(#linearGradient32);fill-opacity:1;stroke:#000000;stroke-width:0.0529167;stroke-linecap:square;stroke-linejoin:miter;stroke-miterlimit:12;stroke-dasharray:none;stroke-opacity:1;paint-order:markers fill stroke"
           id="rect30"
           width="2.1166666"
           height="2.1166666"
           x="57.679169"
           y="118.07031" />
        <path
           id="path30"
           style="fill:url(#linearGradient31);stroke:none;stroke-width:0.105833;stroke-linecap:square;stroke-linejoin:miter;stroke-miterlimit:12;stroke-dasharray:none;stroke-opacity:1;paint-order:markers fill stroke"
           d="m 57.751354,118.16538 v 0.74415 a 4.056366,2.0535472 0 0 1 1.557768,-0.15742 4.056366,2.0535472 0 0 1 0.416433,0.0107 v -0.59747 z" />
      </g>
      <path
         style="fill:#000000;fill-opacity:1;stroke:#ffffff;stroke-width:0.264583;stroke-linecap:square;stroke-linejoin:miter;stroke-miterlimit:12;stroke-dasharray:none;stroke-opacity:1;paint-order:markers fill stroke"
         d="m 49.66178,86.086747 a 0.4841934,0.4841934 0 0 0 -0.484194,0.484194 0.4841934,0.4841934 0 0 0 0.484194,0.484194 0.4841934,0.4841934 0 0 0 0.484194,-0.484194 0.4841934,0.4841934 0 0 0 -0.484194,-0.484194 z"
         id="path56" />
      <path
         style="fill:#000000;fill-opacity:1;stroke:#ffffff;stroke-width:0.264583;stroke-linecap:square;stroke-linejoin:miter;stroke-miterlimit:12;stroke-dasharray:none;stroke-opacity:1;paint-order:markers fill stroke"
         d="m 49.66178,83.257662 a 0.72629013,0.72629013 0 0 0 -0.72629,0.72629 0.72629013,0.72629013 0 0 0 0.72629,0.72629 0.72629013,0.72629013 0 0 0 0.72629,-0.72629 0.72629013,0.72629013 0 0 0 -0.72629,-0.72629 z"
         id="path55" />
      <path
         style="fill:#000000;fill-opacity:1;stroke:#ffffff;stroke-width:0.264583;stroke-linecap:square;stroke-linejoin:miter;stroke-miterlimit:12;stroke-dasharray:none;stroke-opacity:1;paint-order:markers fill stroke"
         d="m 49.66178,80.065431 a 0.96838682,0.96838682 0 0 0 -0.968386,0.968386 0.96838682,0.96838682 0 0 0 0.968386,0.968388 0.96838682,0.96838682 0 0 0 0.968387,-0.968388 0.96838682,0.96838682 0 0 0 -0.968387,-0.968386 z"
         id="path54" />
      <path
         style="fill:#000000;fill-opacity:1;stroke:#ffffff;stroke-width:0.264583;stroke-linecap:square;stroke-linejoin:miter;stroke-miterlimit:12;stroke-dasharray:none;stroke-opacity:1;paint-order:markers fill stroke"
         d="m 49.66178,76.873201 a 0.96838682,0.96838682 0 0 0 -0.968386,0.968386 0.96838682,0.96838682 0 0 0 0.968386,0.968387 0.96838682,0.96838682 0 0 0 0.968387,-0.968387 0.96838682,0.96838682 0 0 0 -0.968387,-0.968386 z"
         id="path53" />
      <path
         style="fill:#000000;fill-opacity:1;stroke:#ffffff;stroke-width:0.264583;stroke-linecap:square;stroke-linejoin:miter;stroke-miterlimit:12;stroke-dasharray:none;stroke-opacity:1;paint-order:markers fill stroke"
         d="m 49.66178,74.165163 a 0.72629013,0.72629013 0 0 0 -0.72629,0.72629 0.72629013,0.72629013 0 0 0 0.72629,0.72629 0.72629013,0.72629013 0 0 0 0.72629,-0.72629 0.72629013,0.72629013 0 0 0 -0.72629,-0.72629 z"
         id="path52" />
      <path
         style="fill:#000000;fill-opacity:1;stroke:#ffffff;stroke-width:0.264583;stroke-linecap:square;stroke-linejoin:miter;stroke-miterlimit:12;stroke-dasharray:none;stroke-opacity:1;paint-order:markers fill stroke"
         d="m 49.66178,71.820271 a 0.4841934,0.4841934 0 0 0 -0.484194,0.484193 0.4841934,0.4841934 0 0 0 0.484194,0.484193 0.4841934,0.4841934 0 0 0 0.484194,-0.484193 0.4841934,0.4841934 0 0 0 -0.484194,-0.484193 z"
         id="path35" />
      <path
         style="fill:#000000;fill-opacity:1;stroke:#ffffff;stroke-width:0.264583;stroke-linecap:square;stroke-linejoin:miter;stroke-miterlimit:12;stroke-dasharray:none;stroke-opacity:1;paint-order:markers fill stroke"
         d="m 55.956296,86.086747 a 0.4841934,0.4841934 0 0 0 -0.484194,0.484194 0.4841934,0.4841934 0 0 0 0.484194,0.484194 0.4841934,0.4841934 0 0 0 0.484194,-0.484194 0.4841934,0.4841934 0 0 0 -0.484194,-0.484194 z"
         id="path51" />
      <path
         style="fill:#000000;fill-opacity:1;stroke:#ffffff;stroke-width:0.264583;stroke-linecap:square;stroke-linejoin:miter;stroke-miterlimit:12;stroke-dasharray:none;stroke-opacity:1;paint-order:markers fill stroke"
         d="m 55.956296,83.257662 a 0.72629013,0.72629013 0 0 0 -0.72629,0.72629 0.72629013,0.72629013 0 0 0 0.72629,0.72629 0.72629013,0.72629013 0 0 0 0.72629,-0.72629 0.72629013,0.72629013 0 0 0 -0.72629,-0.72629 z"
         id="path50" />
      <path
         style="fill:#000000;fill-opacity:1;stroke:#ffffff;stroke-width:0.264583;stroke-linecap:square;stroke-linejoin:miter;stroke-miterlimit:12;stroke-dasharray:none;stroke-opacity:1;paint-order:markers fill stroke"
         d="m 55.956296,80.065431 a 0.96838682,0.96838682 0 0 0 -0.968387,0.968386 0.96838682,0.96838682 0 0 0 0.968387,0.968388 0.96838682,0.96838682 0 0 0 0.968386,-0.968388 0.96838682,0.96838682 0 0 0 -0.968386,-0.968386 z"
         id="path49" />
      <path
         style="fill:#000000;fill-opacity:1;stroke:#ffffff;stroke-width:0.264583;stroke-linecap:square;stroke-linejoin:miter;stroke-miterlimit:12;stroke-dasharray:none;stroke-opacity:1;paint-order:markers fill stroke"
         d="m 55.956296,76.873201 a 0.96838682,0.96838682 0 0 0 -0.968387,0.968386 0.96838682,0.96838682 0 0 0 0.968387,0.968387 0.96838682,0.96838682 0 0 0 0.968386,-0.968387 0.96838682,0.96838682 0 0 0 -0.968386,-0.968386 z"
         id="path48" />
      <path
         style="fill:#000000;fill-opacity:1;stroke:#ffffff;stroke-width:0.264583;stroke-linecap:square;stroke-linejoin:miter;stroke-miterlimit:12;stroke-dasharray:none;stroke-opacity:1;paint-order:markers fill stroke"
         d="m 55.956296,74.165163 a 0.72629013,0.72629013 0 0 0 -0.72629,0.72629 0.72629013,0.72629013 0 0 0 0.72629,0.72629 0.72629013,0.72629013 0 0 0 0.72629,-0.72629 0.72629013,0.72629013 0 0 0 -0.72629,-0.72629 z"
         id="path47" />
      <path
         style="fill:#000000;fill-opacity:1;stroke:#ffffff;stroke-width:0.264583;stroke-linecap:square;stroke-linejoin:miter;stroke-miterlimit:12;stroke-dasharray:none;stroke-opacity:1;paint-order:markers fill stroke"
         d="m 55.956296,71.820271 a 0.4841934,0.4841934 0 0 0 -0.484194,0.484193 0.4841934,0.4841934 0 0 0 0.484194,0.484193 0.4841934,0.4841934 0 0 0 0.484194,-0.484193 0.4841934,0.4841934 0 0 0 -0.484194,-0.484193 z"
         id="path40" />
      <path
         style="fill:#000000;fill-opacity:1;stroke:#ffffff;stroke-width:0.264583;stroke-linecap:square;stroke-linejoin:miter;stroke-miterlimit:12;stroke-dasharray:none;stroke-opacity:1;paint-order:markers fill stroke"
         d="m 52.809038,86.086747 a 0.4841934,0.4841934 0 0 0 -0.484194,0.484194 0.4841934,0.4841934 0 0 0 0.484194,0.484194 0.4841934,0.4841934 0 0 0 0.484194,-0.484194 0.4841934,0.4841934 0 0 0 -0.484194,-0.484194 z"
         id="path46" />
      <path
         style="fill:#000000;fill-opacity:1;stroke:#ffffff;stroke-width:0.264583;stroke-linecap:square;stroke-linejoin:miter;stroke-miterlimit:12;stroke-dasharray:none;stroke-opacity:1;paint-order:markers fill stroke"
         d="m 52.809038,83.257662 a 0.72629013,0.72629013 0 0 0 -0.72629,0.72629 0.72629013,0.72629013 0 0 0 0.72629,0.72629 0.72629013,0.72629013 0 0 0 0.72629,-0.72629 0.72629013,0.72629013 0 0 0 -0.72629,-0.72629 z"
         id="path45" />
      <path
         style="fill:#000000;fill-opacity:1;stroke:#ffffff;stroke-width:0.264583;stroke-linecap:square;stroke-linejoin:miter;stroke-miterlimit:12;stroke-dasharray:none;stroke-opacity:1;paint-order:markers fill stroke"
         d="m 52.809038,80.065431 a 0.96838682,0.96838682 0 0 0 -0.968387,0.968386 0.96838682,0.96838682 0 0 0 0.968387,0.968388 0.96838682,0.96838682 0 0 0 0.968387,-0.968388 0.96838682,0.96838682 0 0 0 -0.968387,-0.968386 z"
         id="path44" />
      <path
         style="fill:#000000;fill-opacity:1;stroke:#ffffff;stroke-width:0.264583;stroke-linecap:square;stroke-linejoin:miter;stroke-miterlimit:12;stroke-dasharray:none;stroke-opacity:1;paint-order:markers fill stroke"
         d="m 52.809038,76.873201 a 0.96838682,0.96838682 0 0 0 -0.968387,0.968386 0.96838682,0.96838682 0 0 0 0.968387,0.968387 0.96838682,0.96838682 0 0 0 0.968387,-0.968387 0.96838682,0.96838682 0 0 0 -0.968387,-0.968386 z"
         id="path43" />
      <path
         style="fill:#000000;fill-opacity:1;stroke:#ffffff;stroke-width:0.264583;stroke-linecap:square;stroke-linejoin:miter;stroke-miterlimit:12;stroke-dasharray:none;stroke-opacity:1;paint-order:markers fill stroke"
         d="m 52.809038,74.165163 a 0.72629013,0.72629013 0 0 0 -0.72629,0.72629 0.72629013,0.72629013 0 0 0 0.72629,0.72629 0.72629013,0.72629013 0 0 0 0.72629,-0.72629 0.72629013,0.72629013 0 0 0 -0.72629,-0.72629 z"
         id="path42" />
      <path
         style="fill:#000000;fill-opacity:1;stroke:#ffffff;stroke-width:0.264583;stroke-linecap:square;stroke-linejoin:miter;stroke-miterlimit:12;stroke-dasharray:none;stroke-opacity:1;paint-order:markers fill stroke"
         d="m 52.809038,71.820271 a 0.4841934,0.4841934 0 0 0 -0.484194,0.484193 0.4841934,0.4841934 0 0 0 0.484194,0.484193 0.4841934,0.4841934 0 0 0 0.484194,-0.484193 0.4841934,0.4841934 0 0 0 -0.484194,-0.484193 z"
         id="path41" />
      <text
         xml:space="preserve"
         style="font-size:4.83042px;line-height:1.25;font-family:Arial;-inkscape-font-specification:'Arial, Normal';text-align:center;text-anchor:middle;fill:#949494;fill-opacity:1;stroke-width:0.264583"
         x="52.989468"
         y="96.761116"
         id="text56"><tspan
           sodipodi:role="line"
           id="tspan56"
           style="fill:#949494;fill-opacity:1;stroke-width:0.264583"
           x="52.989468"
           y="96.761116">1</tspan></text>
      <text
         xml:space="preserve"
         style="font-size:4.83042px;line-height:1.25;font-family:Arial;-inkscape-font-specification:'Arial, Normal';text-align:center;text-anchor:middle;fill:#949494;fill-opacity:1;stroke-width:0.264583"
         x="52.865643"
         y="111.0486"
         id="text57"><tspan
           sodipodi:role="line"
           id="tspan57"
           style="fill:#949494;fill-opacity:1;stroke-width:0.264583"
           x="52.865643"
           y="111.0486">2</tspan></text>
    </g>
    <circle
       style="display:none;fill:url(#radialGradient9);fill-opacity:1;stroke:#000000;stroke-width:0.264583;stroke-linecap:round;stroke-linejoin:round;stroke-miterlimit:12;stroke-dasharray:none;stroke-opacity:1;paint-order:markers stroke fill"
       id="circle62"
       cx="53.069836"
       cy="43.731239"
       r="5.8599977"
       sodipodi:insensitive="true" />
  </g>
</svg>
