<?xml version="1.0" encoding="UTF-8" standalone="no"?>
<!-- Created with Inkscape (http://www.inkscape.org/) -->

<svg
   width="512"
   height="512"
   viewBox="0 0 135.46666 135.46667"
   version="1.1"
   id="svg5"
   inkscape:version="1.4 (e7c3feb100, 2024-10-09)"
   sodipodi:docname="abiword.svg"
   xmlns:inkscape="http://www.inkscape.org/namespaces/inkscape"
   xmlns:sodipodi="http://sodipodi.sourceforge.net/DTD/sodipodi-0.dtd"
   xmlns="http://www.w3.org/2000/svg"
   xmlns:svg="http://www.w3.org/2000/svg">
  <sodipodi:namedview
     id="namedview7"
     pagecolor="#242424"
     bordercolor="#666666"
     borderopacity="1"
     inkscape:showpageshadow="0"
     inkscape:pageopacity="0"
     inkscape:pagecheckerboard="1"
     inkscape:deskcolor="#000000"
     inkscape:document-units="px"
     showgrid="false"
     inkscape:zoom="0.92187498"
     inkscape:cx="433.35594"
     inkscape:cy="173.55933"
     inkscape:window-width="3256"
     inkscape:window-height="1080"
     inkscape:window-x="1864"
     inkscape:window-y="0"
     inkscape:window-maximized="0"
     inkscape:current-layer="layer1" />
  <defs
     id="defs2">
    <inkscape:path-effect
       effect="taper_stroke"
       start_shape="center | center"
       end_shape="center | center"
       id="path-effect10"
       is_visible="true"
       lpeversion="1"
       stroke_width="12"
       subpath="1"
       attach_start="1.7"
       end_offset="2.2"
       start_smoothing="0.5"
       end_smoothing="0.5"
       jointype="round"
       miter_limit="100" />
    <inkscape:path-effect
       effect="taper_stroke"
       start_shape="center | center"
       end_shape="center | center"
       id="path-effect8"
       is_visible="true"
       lpeversion="1"
       stroke_width="14"
       subpath="1"
       attach_start="1"
       end_offset="0.99999999"
       start_smoothing="0.5"
       end_smoothing="0.5"
       jointype="round"
       miter_limit="100" />
    <inkscape:path-effect
       effect="taper_stroke"
       start_shape="center | center"
       end_shape="center | center"
       id="path-effect6"
       is_visible="true"
       lpeversion="1"
       stroke_width="12"
       subpath="1"
       attach_start="1.7"
       end_offset="2.2"
       start_smoothing="0.5"
       end_smoothing="0.5"
       jointype="round"
       miter_limit="100" />
    <inkscape:path-effect
       effect="taper_stroke"
       start_shape="center | center"
       end_shape="center | center"
       id="path-effect3"
       is_visible="true"
       lpeversion="1"
       stroke_width="14"
       subpath="1"
       attach_start="1"
       end_offset="0.99999999"
       start_smoothing="0.5"
       end_smoothing="0.5"
       jointype="round"
       miter_limit="100" />
    <inkscape:path-effect
       effect="taper_stroke"
       start_shape="center | center"
       end_shape="center | center"
       id="path-effect1"
       is_visible="true"
       lpeversion="1"
       stroke_width="14"
       subpath="1"
       attach_start="1"
       end_offset="0.99999999"
       start_smoothing="0.5"
       end_smoothing="0.5"
       jointype="round"
       miter_limit="100" />
    <clipPath
       clipPathUnits="userSpaceOnUse"
       id="clipPath11">
      <path
         style="fill:#000666;stroke-width:0.999998;stroke-linejoin:round"
         d="M 67.240234,1.46875 C 62.607192,1.5800255 58.029408,3.93779 55.744141,8.4882812 L 2.1933594,115.11914 c -2.64833073,5.27343 -1.21695357,11.5002 2.3496094,15.15625 3.5665629,3.65606 9.7563232,5.24147 15.0937502,2.72461 a 7.0007,7.0007 0 0 0 0.02148,-0.01 C 54.74898,116.4406 86.787108,94.365235 86.787108,94.365235 A 7.0007,7.0007 0 0 0 80.89453,81.867186 c 0,0 -17.378897,5.126908 -39.113279,13.310547 L 68.511718,41.949219 c 26.802035,44.960264 53.447262,83.136721 53.447262,83.136721 a 7.0007,7.0007 0 0 0 12.13282,-6.8418 c 0,0 -24.73331,-56.588374 -55.0293,-110.3164056 C 76.561407,3.4922018 71.873276,1.3574745 67.240234,1.46875 Z M 8.4003906,109.08008 v 0.002 c -0.010888,0.005 -0.022315,0.009 -0.033203,0.0137 z"
         id="path12" />
    </clipPath>
    <clipPath
       clipPathUnits="userSpaceOnUse"
       id="clipPath12">
      <path
         style="display:inline;fill:#000666;stroke-width:0.999998;stroke-linejoin:round"
         d="M 67.240234,1.46875 C 62.607192,1.5800255 58.029408,3.93779 55.744141,8.4882812 L 2.1933594,115.11914 c -2.64833073,5.27343 -1.21695357,11.5002 2.3496094,15.15625 3.5665629,3.65606 9.7563232,5.24147 15.0937502,2.72461 a 7.0007,7.0007 0 0 0 0.02148,-0.01 C 54.74898,116.4406 86.787108,94.365235 86.787108,94.365235 A 7.0007,7.0007 0 0 0 80.89453,81.867186 c 0,0 -17.378897,5.126908 -39.113279,13.310547 L 68.511718,41.949219 c 26.802035,44.960264 53.447262,83.136721 53.447262,83.136721 a 7.0007,7.0007 0 0 0 12.13282,-6.8418 c 0,0 -24.73331,-56.588374 -55.0293,-110.3164056 C 76.561407,3.4922018 71.873276,1.3574745 67.240234,1.46875 Z M 8.4003906,109.08008 v 0.002 c -0.010888,0.005 -0.022315,0.009 -0.033203,0.0137 z"
         id="path13" />
    </clipPath>
    <filter
       inkscape:collect="always"
       style="color-interpolation-filters:sRGB"
       id="filter13"
       x="-0.026558679"
       y="-0.036427625"
       width="1.0531174"
       height="1.0728553">
      <feGaussianBlur
         inkscape:collect="always"
         stdDeviation="1.4808921"
         id="feGaussianBlur13" />
    </filter>
    <filter
       inkscape:collect="always"
       style="color-interpolation-filters:sRGB"
       id="filter14"
       x="-0.029386363"
       y="-0.032180443"
       width="1.0587727"
       height="1.0643609">
      <feGaussianBlur
         inkscape:collect="always"
         stdDeviation="1.6382614"
         id="feGaussianBlur14" />
    </filter>
    <filter
       inkscape:collect="always"
       style="color-interpolation-filters:sRGB"
       id="filter8"
       x="-0.042854391"
       y="-0.035580227"
       width="1.0857088"
       height="1.0711605">
      <feGaussianBlur
         inkscape:collect="always"
         stdDeviation="1.6550413"
         id="feGaussianBlur8" />
    </filter>
    <filter
       inkscape:collect="always"
       style="color-interpolation-filters:sRGB"
       id="filter10"
       x="-0.028102024"
       y="-0.033875865"
       width="1.056204"
       height="1.0677517">
      <feGaussianBlur
         inkscape:collect="always"
         stdDeviation="1.3187689"
         id="feGaussianBlur10" />
    </filter>
  </defs>
  <g
     inkscape:label="Abi-Word or lame Death Metal Band logo"
     inkscape:groupmode="layer"
     id="layer1">
    <path
       style="display:none;fill:none;fill-rule:nonzero;stroke:#000666;stroke-width:14;stroke-linecap:butt;stroke-linejoin:round;stroke-dasharray:none;stroke-opacity:1"
       d="m 16.652823,126.6687 c 34.40911,-16.22557 66.167954,-38.071492 66.167954,-38.071492 0,0 -37.059375,10.605226 -71.468485,26.830812 l -6.88e-4,3.2e-4 8.203216,8.40905 53.550219,-106.630703 -10.965619,0.263371 10e-7,10e-7 c 30.063282,53.31535 65.539239,103.578631 65.539239,103.578631 0,0 -24.65062,-56.367436 -54.713904,-109.682786 v -1e-6 A 6.2138676,6.2138676 0 0 0 61.999137,11.629274 L 8.4489182,118.25998 a 6.2138676,6.2138676 0 0 0 8.2032158,8.40905 z"
       id="path2"
       sodipodi:nodetypes="cccc" />
    <path
       id="path7"
       style="display:none;fill:#00002b;stroke-linejoin:round;filter:url(#filter13)"
       d="M 68.511719,36.657552 38.519951,96.380761 c 1.11868,-0.421216 2.167472,-0.798289 3.261299,-1.203027 L 68.511719,41.949219 c 26.802034,44.960264 53.447241,83.136681 53.447241,83.136681 4.85348,6.70929 15.28194,0.91999 12.1543,-6.74739 -2.07673,5.0863 -8.93516,5.90774 -12.1543,1.45573 0,0 -26.645207,-38.176424 -53.447241,-83.136688 z m 20.711258,49.22506 c -0.483072,1.278681 -1.329907,2.387974 -2.436027,3.19102 0,0 -32.037939,22.075118 -67.128719,38.624518 -0.0072,0.003 -0.01446,0.007 -0.0217,0.0103 -5.337427,2.51686 -11.5270889,0.93116 -15.0936519,-2.7249 -1.7055974,-1.74839 -2.9025837,-4.09129 -3.4189127,-6.63008 -0.88345123,4.41693 0.5615572,8.9927 3.4189127,11.92175 3.566563,3.65606 9.7562249,5.24176 15.0936519,2.7249 0.0072,-0.003 0.01447,-0.007 0.0217,-0.0103 35.09078,-16.54941 67.128719,-38.624522 67.128719,-38.624522 2.716494,-1.895229 3.732999,-5.434884 2.436027,-8.482686 z M 8.4005207,103.7885 8.366931,103.804 c 0.010888,-0.005 0.022701,-0.008 0.03359,-0.0134 z"
       sodipodi:nodetypes="ccccccccccccscssccccccc"
       clip-path="url(#clipPath12)" />
    <path
       id="path9"
       style="display:none;opacity:0.526377;fill:#ffffff;stroke-linejoin:round;filter:url(#filter14)"
       d="M 67.240339,1.4686442 C 62.607298,1.5799197 58.029152,3.9378793 55.743884,8.4883707 L 2.1931478,115.11907 c -1.38184926,2.75158 -1.63254843,5.75603 -1.0691854,8.52609 0.2192762,-1.0963 0.5425675,-2.18581 1.0691854,-3.23442 L 55.743884,13.780037 C 58.029152,9.2295458 62.607298,6.8715863 67.240339,6.7603108 71.873381,6.6490353 76.561263,8.7838154 79.062357,13.219348 109.35835,66.94738 134.09156,123.53561 134.09156,123.53561 c 0.007,0.0315 0.0147,0.063 0.0217,0.0946 0.71138,-1.72646 0.70357,-3.66557 -0.0217,-5.38624 0,0 -24.73321,-56.588227 -55.029203,-110.3162586 C 76.561263,3.4921488 71.873381,1.3573687 67.240339,1.4686442 Z M 83.334447,81.616723 c -0.821798,-0.06072 -1.647864,0.02412 -2.440161,0.25063 0,0 -18.955339,5.851627 -39.113036,13.310381 l -3.261299,6.494696 c 21.734384,-8.183641 42.374335,-14.51341 42.374335,-14.51341 3.390903,-0.946061 6.956921,0.773115 8.328691,4.015259 1.729156,-4.353591 -1.22239,-9.144187 -5.88853,-9.557556 z m -74.9339263,32.755107 -0.03359,0.0155 c 0.010888,-0.005 0.022701,-0.008 0.03359,-0.0134 z"
       sodipodi:nodetypes="scccccsscccssccccccccccc"
       clip-path="url(#clipPath11)" />
    <g
       id="g10"
       transform="matrix(1.1299185,0,0,1.1299185,4.2809896e-6,0.14462552)"
       style="stroke-width:0.88502">
      <path
         style="display:inline;fill:#0000eb;fill-opacity:1;fill-rule:nonzero;stroke:none;stroke-width:6.35;stroke-linecap:round;stroke-linejoin:round;stroke-dasharray:none;stroke-opacity:1;paint-order:markers stroke fill"
         d="M 39.619115,112.59431 C 22.685952,55.444888 0,0 0,0 0,0 11.180375,58.853949 28.113538,116.00337 l 3.38e-4,0.001 a 6,6 0 0 0 11.351122,0.45386 l 33.866665,-87.841643 -11.196666,0 33.86667,87.841643 a 6,6 0 0 0 11.351123,-0.45386 l 3.4e-4,-0.001 C 124.28629,58.853948 135.46666,0 135.46666,0 c 0,0 -22.68595,55.444889 -39.61911,112.59431 l -3.39e-4,0.001 11.351119,-0.45386 -33.866667,-87.841651 a 6,6 0 0 0 -11.196666,0 l -33.866665,87.841651 11.351122,0.45386 z"
         id="path4"
         sodipodi:nodetypes="ccccc"
         inkscape:path-effect="#path-effect6"
         inkscape:original-d="M 0,0 33.866665,114.29998 67.73333,26.458333 101.6,114.29998 135.46666,0"
         transform="matrix(0.88501956,0,0,0.88501956,0,6.5834116)" />
      <path
         id="path8"
         style="display:inline;opacity:0.6;fill:#000080;fill-opacity:1;fill-rule:nonzero;stroke:none;stroke-width:12;stroke-linecap:round;stroke-linejoin:round;stroke-dasharray:none;stroke-opacity:1;paint-order:markers stroke fill;filter:url(#filter10)"
         d="m 67.511719,30.405326 c -1.711582,0.03936 -2.554148,1.813868 -2.992826,3.224234 -8.507541,22.183967 -17.06601,44.352093 -25.632523,66.5109 -0.586018,1.38119 -1.010898,2.84483 -1.696917,4.17502 -1.550311,2.13694 -5.373198,1.21737 -5.965528,-1.29716 C 29.150276,96.009466 26.756661,89.100488 24.458779,82.163115 20.295757,69.802874 15.936278,57.51554 11.425781,45.27056 c 5.838113,25.763441 12.292395,51.378786 19.820313,76.70508 0.514045,1.64226 2.6387,2.3809 4.070306,1.45186 1.155298,-0.65615 1.383986,-2.02984 1.879378,-3.12693 4.422503,-11.56998 8.909204,-23.117926 13.353917,-34.680535 4.781513,-12.391055 9.546964,-24.790706 14.37218,-37.163928 1.255798,-2.142673 4.747549,-1.744147 5.859111,0.339369 0.583909,1.490978 1.051745,3.035162 1.688148,4.510837 8.887573,23.070612 17.768257,46.144591 26.730085,69.186907 0.998461,1.78792 4.147661,1.76881 4.894531,-0.23828 0.81648,-1.80019 1.08429,-3.78489 1.73471,-5.64435 6.81131,-23.584919 12.80766,-47.402671 18.22427,-71.353701 -7.13267,19.333638 -13.83926,38.822596 -20.10546,58.468751 -0.9243,2.21646 -4.273277,2.30617 -5.679021,0.53012 -0.735388,-0.99151 -0.91018,-2.27897 -1.418196,-3.39134 C 87.955814,77.791871 79.09883,54.704282 70.111328,31.670951 69.565238,30.809944 68.508435,30.369579 67.511719,30.405326 Z"
         transform="matrix(0.88501956,0,0,0.88501956,0,0.75696354)" />
    </g>
    <g
       id="g11"
       transform="matrix(1.1299185,0,0,1.1299185,-8.7998129,-8.7998129)"
       style="stroke-width:0.88502">
      <path
         style="display:inline;opacity:1;mix-blend-mode:normal;fill:#00ccff;fill-rule:nonzero;stroke:none;stroke-width:6.33085;stroke-linecap:butt;stroke-linejoin:miter;stroke-dasharray:none;stroke-opacity:1"
         d="m 10.394666,133.86018 c 38.762295,-18.27831 74.539032,-42.888013 74.539032,-42.888013 0,0 -41.747852,11.946923 -80.5101472,30.225243 l -7.752e-4,3.6e-4 9.2410264,9.4729 60.324995,-120.120824 -12.352908,0.29669 1e-6,2e-6 c 33.866666,60.060412 73.83077,116.682622 73.83077,116.682622 0,0 -27.76923,-63.498616 -61.635893,-123.5590292 l 0,-1.2e-6 A 7,7 0 0 0 61.477859,4.2668199 L 1.1528638,124.38765 a 7,7 0 0 0 9.2410262,9.4729 z"
         id="path1"
         sodipodi:nodetypes="cccc"
         inkscape:path-effect="#path-effect1"
         inkscape:original-d="M 84.933698,90.972167 7.408333,127.52916 67.733328,7.408333 135.46666,127.52916"
         transform="matrix(0.88769538,0,0,0.88769538,7.4255307,7.8416379)" />
      <path
         id="path6"
         style="display:inline;opacity:1;mix-blend-mode:normal;fill:#aaeeff;fill-opacity:1;fill-rule:nonzero;stroke:none;stroke-width:10.9988;stroke-linecap:butt;stroke-linejoin:miter;stroke-dasharray:none;stroke-opacity:1;filter:url(#filter8)"
         d="m 67.304688,12.039062 c -1.597016,0.170131 -2.329591,1.820799 -2.876857,3.118187 C 46.816525,50.231944 29.19636,85.302022 11.621094,120.39453 c -0.646012,1.78397 1.401171,3.94137 3.203772,3.07142 1.911996,-0.66303 3.615803,-1.79398 5.47465,-2.58348 12.121688,-5.95799 23.947758,-12.50564 35.528609,-19.45278 -9.358559,3.3448 -18.656841,6.88102 -27.803738,10.78658 -1.905496,1.06572 -4.837358,-0.20819 -4.90134,-2.51705 0.0016,-2.03931 1.457029,-3.63678 2.175605,-5.44926 C 39.421377,76.129019 53.541936,48.006984 67.666016,19.886719 79.317922,40.074544 91.50188,59.947497 104.1875,79.501953 93.29244,57.059214 81.876266,34.85922 69.593738,13.142205 69.100989,12.393748 68.20117,11.947269 67.304688,12.039062 Z" />
    </g>
  </g>
</svg>
