<?xml version="1.0" encoding="UTF-8" standalone="no"?>
<!-- Created with Inkscape (http://www.inkscape.org/) -->

<svg
   width="512"
   height="512"
   viewBox="0 0 135.46666 135.46667"
   version="1.1"
   id="svg5"
   inkscape:version="1.4 (e7c3feb100, 2024-10-09)"
   sodipodi:docname="ark.svg"
   xmlns:inkscape="http://www.inkscape.org/namespaces/inkscape"
   xmlns:sodipodi="http://sodipodi.sourceforge.net/DTD/sodipodi-0.dtd"
   xmlns:xlink="http://www.w3.org/1999/xlink"
   xmlns="http://www.w3.org/2000/svg"
   xmlns:svg="http://www.w3.org/2000/svg">
  <sodipodi:namedview
     id="namedview7"
     pagecolor="#242424"
     bordercolor="#666666"
     borderopacity="1"
     inkscape:showpageshadow="0"
     inkscape:pageopacity="0"
     inkscape:pagecheckerboard="1"
     inkscape:deskcolor="#000000"
     inkscape:document-units="px"
     showgrid="false"
     inkscape:zoom="1.4142136"
     inkscape:cx="419.31432"
     inkscape:cy="208.24295"
     inkscape:window-width="3256"
     inkscape:window-height="1080"
     inkscape:window-x="1864"
     inkscape:window-y="0"
     inkscape:window-maximized="0"
     inkscape:current-layer="layer1" />
  <defs
     id="defs2">
    <inkscape:path-effect
       effect="skeletal"
       id="path-effect82"
       is_visible="true"
       lpeversion="1"
       pattern="#path80"
       copytype="repeated"
       prop_scale="1"
       scale_y_rel="false"
       spacing="0"
       normal_offset="0"
       tang_offset="0"
       prop_units="false"
       vertical_pattern="false"
       hide_knot="false"
       fuse_tolerance="0" />
    <inkscape:path-effect
       effect="skeletal"
       id="path-effect80"
       is_visible="true"
       lpeversion="1"
       pattern="#path80"
       copytype="repeated"
       prop_scale="1"
       scale_y_rel="false"
       spacing="0"
       normal_offset="0"
       tang_offset="0"
       prop_units="false"
       vertical_pattern="false"
       hide_knot="false"
       fuse_tolerance="0" />
    <linearGradient
       id="linearGradient48"
       inkscape:collect="always">
      <stop
         style="stop-color:#ffffff;stop-opacity:1;"
         offset="0"
         id="stop49" />
      <stop
         style="stop-color:#301a73;stop-opacity:0.99607801;"
         offset="1"
         id="stop48" />
    </linearGradient>
    <linearGradient
       id="linearGradient46"
       inkscape:collect="always">
      <stop
         style="stop-color:#ffffff;stop-opacity:0.99607801;"
         offset="0"
         id="stop46" />
      <stop
         style="stop-color:#ffffff;stop-opacity:0;"
         offset="1"
         id="stop47" />
    </linearGradient>
    <linearGradient
       id="linearGradient37"
       inkscape:collect="always">
      <stop
         style="stop-color:#d9b2b2;stop-opacity:1;"
         offset="0"
         id="stop38" />
      <stop
         style="stop-color:#703b5f;stop-opacity:1;"
         offset="1"
         id="stop37" />
    </linearGradient>
    <linearGradient
       id="linearGradient35"
       inkscape:collect="always">
      <stop
         style="stop-color:#d6c3c3;stop-opacity:0.99607843;"
         offset="0"
         id="stop35" />
      <stop
         style="stop-color:#ae8787;stop-opacity:1;"
         offset="1"
         id="stop36" />
    </linearGradient>
    <linearGradient
       id="linearGradient33"
       inkscape:collect="always">
      <stop
         style="stop-color:#474767;stop-opacity:0.99607843;"
         offset="0"
         id="stop33" />
      <stop
         style="stop-color:#333353;stop-opacity:1;"
         offset="1"
         id="stop34" />
    </linearGradient>
    <linearGradient
       id="linearGradient31"
       inkscape:collect="always">
      <stop
         style="stop-color:#2e2e3e;stop-opacity:0.99607843;"
         offset="0"
         id="stop31" />
      <stop
         style="stop-color:#1a1a2a;stop-opacity:1;"
         offset="1"
         id="stop32" />
    </linearGradient>
    <linearGradient
       id="linearGradient17"
       inkscape:collect="always">
      <stop
         style="stop-color:#474747;stop-opacity:0.99607801;"
         offset="0"
         id="stop17" />
      <stop
         style="stop-color:#666666;stop-opacity:1;"
         offset="1"
         id="stop18" />
    </linearGradient>
    <inkscape:path-effect
       effect="fillet_chamfer"
       id="path-effect16"
       is_visible="true"
       lpeversion="1"
       nodesatellites_param="F,0,1,1,0,7.408333,0,1 @ F,0,0,1,0,0,0,1 @ F,0,1,1,0,7.408333,0,1 @ F,0,0,1,0,0,0,1 @ F,0,0,1,0,0,0,1 @ F,0,0,1,0,0,0,1"
       radius="28"
       unit="px"
       method="auto"
       mode="F"
       chamfer_steps="1"
       flexible="false"
       use_knot_distance="true"
       apply_no_radius="true"
       apply_with_radius="true"
       only_selected="true"
       hide_knots="false" />
    <inkscape:path-effect
       effect="fillet_chamfer"
       id="path-effect15"
       is_visible="true"
       lpeversion="1"
       nodesatellites_param="F,0,0,1,0,0,0,1 @ F,0,0,1,0,0,0,1 @ F,0,0,1,0,0,0,1 @ F,0,0,1,0,0,0,1 @ F,0,1,1,0,8.4666662,0,1 @ F,0,0,1,0,0,0,1 @ F,0,1,1,0,8.4666662,0,1 @ F,0,0,1,0,0,0,1 @ F,0,0,1,0,0,0,1 @ F,0,0,1,0,0,0,1 @ F,0,0,1,0,0,0,1 | F,0,0,1,0,0,0,1 @ F,0,0,1,0,0,0,1 @ F,0,0,1,0,0,0,1 @ F,0,0,1,0,0,0,1 @ F,0,0,1,0,0,0,1 @ F,0,0,1,0,0,0,1 @ F,0,0,1,0,0,0,1 @ F,0,0,1,0,0,0,1"
       radius="32"
       unit="px"
       method="auto"
       mode="F"
       chamfer_steps="1"
       flexible="false"
       use_knot_distance="true"
       apply_no_radius="true"
       apply_with_radius="true"
       only_selected="true"
       hide_knots="false" />
    <linearGradient
       id="linearGradient1"
       inkscape:collect="always">
      <stop
         style="stop-color:#9999af;stop-opacity:1;"
         offset="0"
         id="stop1" />
      <stop
         style="stop-color:#686878;stop-opacity:1;"
         offset="1"
         id="stop2" />
    </linearGradient>
    <linearGradient
       inkscape:collect="always"
       xlink:href="#linearGradient1"
       id="linearGradient2"
       x1="38.458755"
       y1="0"
       x2="86.675697"
       y2="135.46666"
       gradientUnits="userSpaceOnUse"
       gradientTransform="translate(6.574707e-6)" />
    <linearGradient
       inkscape:collect="always"
       xlink:href="#linearGradient17"
       id="linearGradient18"
       x1="81.43911"
       y1="8.598958"
       x2="110.13969"
       y2="8.598958"
       gradientUnits="userSpaceOnUse"
       gradientTransform="rotate(45,-4.9015578e-4,-9.2754411e-4)" />
    <linearGradient
       inkscape:collect="always"
       xlink:href="#linearGradient31"
       id="linearGradient32"
       x1="38.387157"
       y1="41.777504"
       x2="94.079735"
       y2="97.470085"
       gradientUnits="userSpaceOnUse"
       gradientTransform="translate(2.0524692,-2.0532375)" />
    <linearGradient
       inkscape:collect="always"
       xlink:href="#linearGradient33"
       id="linearGradient34"
       x1="87.907822"
       y1="0.62770367"
       x2="104.22335"
       y2="0.62770367"
       gradientUnits="userSpaceOnUse"
       gradientTransform="matrix(0.85406393,0,0,0.85406393,14.018884,-1.0419501)" />
    <linearGradient
       inkscape:collect="always"
       xlink:href="#linearGradient35"
       id="linearGradient36"
       x1="26.64534"
       y1="84.532059"
       x2="51.325134"
       y2="109.21185"
       gradientUnits="userSpaceOnUse"
       gradientTransform="translate(-8.041e-4,8.144e-5)" />
    <linearGradient
       inkscape:collect="always"
       xlink:href="#linearGradient37"
       id="linearGradient38"
       x1="38.387165"
       y1="71.913826"
       x2="52.950024"
       y2="106.56488"
       gradientUnits="userSpaceOnUse"
       gradientTransform="translate(-8.041e-4,8.144e-5)" />
    <clipPath
       clipPathUnits="userSpaceOnUse"
       id="clipPath42">
      <path
         id="path43"
         style="-inkscape-font-specification:'Adwaita Sans, Normal';opacity:1;fill:#c8b7b7;stroke-width:0.999998;paint-order:markers stroke fill"
         d="M 170.03633,26.228589 159.92274,53.62485 h 5.45341 l 2.543,-7.091556 h 9.06456 l 2.47065,7.091556 h 5.52318 L 174.97556,26.228589 Z m 15.22078,0 V 53.62485 h 5.16971 v -9.925492 h 4.63072 l 5.33404,9.925492 h 5.97845 l -5.96449,-10.919746 c 0.0374,-0.01699 0.0817,-0.02183 0.11885,-0.03928 1.48079,-0.696095 2.68204,-1.726028 3.52537,-3.046844 l 0.002,-0.0021 c 0.86467,-1.337316 1.28726,-2.922995 1.28726,-4.661734 0,-1.727253 -0.39277,-3.293615 -1.2051,-4.619355 -0.79598,-1.328679 -1.96252,-2.368145 -3.41426,-3.068547 -1.44968,-0.704869 -3.13605,-1.038695 -5.02346,-1.038695 z m 21.97075,0 V 53.62485 h 5.16971 v -8.927621 l 2.51561,-2.705262 8.31835,11.632883 h 6.21668 L 218.49332,38.316222 229.8332,26.228589 h -6.94325 l -7.98246,8.583973 -1.80299,1.937348 -0.70693,0.775663 v -1.43402 -9.862964 z m -16.80104,4.831745 h 5.16816 c 1.05418,0 1.89483,0.181988 2.55643,0.503846 l 0.008,0.0041 0.008,0.0021 c 0.68612,0.320188 1.15598,0.736991 1.4981,1.292942 l 0.002,0.0057 0.004,0.0041 c 0.34484,0.546693 0.53123,1.211726 0.53123,2.082044 0,0.861163 -0.18364,1.533403 -0.52555,2.097548 -0.34346,0.566721 -0.81498,0.993116 -1.4981,1.322398 -5.3e-4,2.32e-4 -0.002,-2.31e-4 -0.002,0 -0.66518,0.31429 -1.50433,0.491961 -2.54868,0.491961 h -5.20123 z m -17.92966,2.51406 c 0.0581,0.177144 0.15286,0.47988 0.20722,0.644406 l 0.002,0.0057 0.002,0.0041 c 0.44161,1.290854 0.83814,2.441948 1.1896,3.450955 l 1.40249,4.02146 h -5.64883 l 1.43971,-4.011644 v -0.0021 c 0.36472,-1.014431 0.76241,-2.168504 1.1932,-3.460771 l 0.002,-0.0041 c 0.0562,-0.165793 0.15101,-0.469379 0.21084,-0.648023 z" />
    </clipPath>
    <filter
       inkscape:collect="always"
       style="color-interpolation-filters:sRGB"
       id="filter43"
       x="-0.012025813"
       y="-0.030687765"
       width="1.0240516"
       height="1.0613755">
      <feGaussianBlur
         inkscape:collect="always"
         stdDeviation="0.35030421"
         id="feGaussianBlur43" />
    </filter>
    <filter
       inkscape:collect="always"
       style="color-interpolation-filters:sRGB"
       id="filter45"
       x="-0.10128818"
       y="-0.009445732"
       width="1.2025764"
       height="1.0188915">
      <feGaussianBlur
         inkscape:collect="always"
         stdDeviation="0.9516375"
         id="feGaussianBlur45" />
    </filter>
    <filter
       inkscape:collect="always"
       style="color-interpolation-filters:sRGB"
       id="filter46"
       x="-0.097521434"
       y="-0.0094798789"
       width="1.1950429"
       height="1.0189598">
      <feGaussianBlur
         inkscape:collect="always"
         stdDeviation="0.95925862"
         id="feGaussianBlur46" />
    </filter>
    <linearGradient
       inkscape:collect="always"
       xlink:href="#linearGradient46"
       id="linearGradient47"
       x1="250.74413"
       y1="-57.051296"
       x2="250.74316"
       y2="186.86127"
       gradientUnits="userSpaceOnUse" />
    <linearGradient
       inkscape:collect="always"
       xlink:href="#linearGradient48"
       id="linearGradient49"
       x1="236.63728"
       y1="65.434568"
       x2="264.84905"
       y2="65.434568"
       gradientUnits="userSpaceOnUse" />
    <filter
       inkscape:collect="always"
       style="color-interpolation-filters:sRGB"
       id="filter51"
       x="-0.01728244"
       y="-0.017277565"
       width="1.0345649"
       height="1.0345551">
      <feGaussianBlur
         inkscape:collect="always"
         stdDeviation="0.52598856"
         id="feGaussianBlur51" />
    </filter>
    <marker
       markerWidth="55.79493713"
       markerHeight="55.79493713"
       refX="27.897468"
       refY="27.897468"
       orient="auto"
       id="marker75"
       viewBox="0 0 55.794936 55.794936"
       preserveAspectRatio="xMidYMid">
      <path
         style="display:inline;fill:#6666b5;fill-opacity:0.996078;stroke-width:1.05833;stroke-linecap:round;stroke-linejoin:round;stroke-miterlimit:1;paint-order:markers stroke fill"
         d="M 0,0 V 55.794936 H 28.724599 L 55.794936,27.898432 28.724599,0 Z"
         id="path75" />
    </marker>
    <marker
       markerWidth="16.00000115"
       markerHeight="16"
       refX="27.89747"
       refY="27.897468"
       orient="0.00"
       id="marker76"
       viewBox="0 0 55.79494 55.794936"
       preserveAspectRatio="xMidYMid"
       markerUnits="userSpaceOnUse">
      <path
         style="display:inline;fill:#6666b5;fill-opacity:0.996078;stroke-width:1.05833;stroke-linecap:round;stroke-linejoin:round;stroke-miterlimit:1;paint-order:markers stroke fill"
         d="M 0,0 V 55.794936 H 28.724599 L 55.79494,27.898432 28.724599,0 Z"
         id="path76" />
    </marker>
    <marker
       markerWidth="16"
       markerHeight="16"
       refX="27.897468"
       refY="27.897468"
       orient="0.00"
       id="marker79"
       viewBox="0 0 55.794936 55.794936"
       preserveAspectRatio="xMidYMid"
       markerUnits="userSpaceOnUse">
      <path
         style="display:inline;fill:#c83737;fill-opacity:0.996078;stroke-width:1.05833;stroke-linecap:round;stroke-linejoin:round;stroke-miterlimit:1;paint-order:markers stroke fill"
         d="M 55.794936,0 V 55.794936 H 27.070337 L 0,27.898432 27.070337,0 Z"
         id="path79" />
    </marker>
    <filter
       inkscape:collect="always"
       style="color-interpolation-filters:sRGB"
       id="filter90"
       x="-0.0062552269"
       y="-0.0040150077"
       width="1.0125105"
       height="1.00803">
      <feGaussianBlur
         inkscape:collect="always"
         stdDeviation="0.59550393"
         id="feGaussianBlur90" />
    </filter>
    <filter
       inkscape:collect="always"
       style="color-interpolation-filters:sRGB"
       id="filter95"
       x="-0.17524803"
       y="-0.2122931"
       width="1.3504961"
       height="1.4245862">
      <feGaussianBlur
         inkscape:collect="always"
         stdDeviation="4.6740538"
         id="feGaussianBlur95" />
    </filter>
  </defs>
  <g
     inkscape:label="Layer 1"
     inkscape:groupmode="layer"
     id="layer1">
    <rect
       style="display:inline;fill:url(#linearGradient2);stroke:none;stroke-width:1.05833;stroke-linecap:round;stroke-linejoin:round;stroke-miterlimit:1;paint-order:markers stroke fill"
       id="rect1"
       width="135.46666"
       height="135.46666"
       x="2.7270507e-06"
       y="2.7270507e-06"
       ry="10.252907"
       sodipodi:insensitive="true" />
    <path
       id="rect16"
       style="display:inline;fill:url(#linearGradient18);stroke:none;stroke-width:1.05833;stroke-linecap:round;stroke-linejoin:round;stroke-miterlimit:1;paint-order:markers stroke fill"
       d="m 105.44289,-9.728535 c 0,0 -12.574963,32.032179 -47.85754,67.314759 C 22.302773,92.868803 -7.951e-4,115.17237 -7.951e-4,115.17237 l -7e-6,20.29437 20.2943671,-10e-6 c 0,0 18.22724,-18.22723 57.586152,-57.586139 C 117.23864,38.521676 147.06537,31.893944 147.06537,31.893944 L 135.46587,7.244e-5 Z"
       sodipodi:nodetypes="czccczccc" />
    <path
       id="path38"
       style="display:inline;fill:#1b1b1b;fill-opacity:1"
       d="M 117.18665,-7.9659191 C 109.36041,14.080186 95.571044,31.084749 83.102419,45.929495 L -2.99342,132.47324 2.99342,138.46008 92.977527,49.778873 C 109.49079,35.241107 128.92713,25.424754 151.05335,18.499213 141.13015,1.4534465 133.12363,-4.3332157 117.18665,-7.9659191 Z"
       sodipodi:nodetypes="ccccccc" />
    <g
       id="g47"
       transform="rotate(45,156.46349,-154.32978)"
       style="display:none">
      <path
         id="rect2"
         style="display:inline;fill:#6666b5;fill-opacity:0.996078;stroke-width:1.05833;stroke-linecap:round;stroke-linejoin:round;stroke-miterlimit:1;paint-order:markers stroke fill"
         d="m 237.8816,-57.051297 v 14.762406 h 7.60005 l 7.16236,-7.380945 -7.16236,-7.381461 z m 18.12499,10.962121 -7.16287,7.381462 7.16287,7.380944 h 7.60006 l -5.2e-4,-14.761889 z m -18.12447,10.962638 -5.2e-4,14.762407 h 7.60005 l 7.16236,-7.380945 -7.16287,-7.381462 z m 18.12447,10.962639 -7.16235,7.380944 7.16235,7.380945 h 7.60006 V -24.163899 Z M 237.8816,-13.201778 V 1.5601115 h 7.60005 l 7.16236,-7.3809448 -7.16236,-7.3809447 z m 18.12499,10.9626382 -7.16235,7.380428 7.16287,7.3814618 h 7.59902 l 5.2e-4,-14.7618898 z m -18.12499,10.9621215 5.2e-4,14.7618893 7.59953,5.17e-4 7.16236,-7.381462 -7.16236,-7.3809443 z m 18.12499,10.9621213 -7.16287,7.380945 7.16287,7.381461 h 7.60006 V 19.685103 Z m -10.52494,10.962122 -7.59953,5.16e-4 -5.2e-4,14.76189 h 7.60005 l 7.16236,-7.380945 z m 10.52546,10.962638 -7.16287,7.381461 7.16235,7.380428 h 7.60006 l -5.2e-4,-14.761889 z m -18.12499,10.962121 -5.2e-4,14.762406 h 5.2e-4 7.59953 l 7.16236,-7.380944 5.1e-4,-5.17e-4 -7.16287,-7.380428 v -5.17e-4 z m 18.12447,10.962122 v 5.16e-4 l -7.16235,7.380945 7.16235,7.380945 h 7.60006 v -14.76189 h -5.2e-4 z m -18.12447,10.962638 v 14.761889 h 7.59953 l 7.16236,-7.380428 -7.16287,-7.381461 z m 18.12447,10.962638 -7.16235,7.380945 7.16235,7.380943 h 7.60006 V 85.459382 Z m -18.12447,10.962122 v 14.761886 h 7.59953 l 7.16236,-7.38094 -7.16236,-7.380946 z m 18.12447,10.962116 -7.16235,7.38095 7.16287,7.38146 h 7.59902 l 5.2e-4,-14.76241 z m -18.12447,10.96264 v 14.76189 l 7.59953,5.2e-4 7.16287,-7.38146 -7.16287,-7.38095 z m 18.12447,10.96212 -7.16235,7.38095 7.16235,7.38146 h 7.60006 v -14.76241 z m -10.52494,10.96213 -7.59953,5.1e-4 v 14.76189 h 7.59953 l 7.16287,-7.38146 z m 10.52546,10.96263 -7.16287,7.38095 7.16235,7.38094 h 7.60006 l -5.2e-4,-14.76189 z m -18.12499,10.96213 v 14.76189 h 7.59953 l 7.16236,-7.38043 -7.16236,-7.38095 z m 18.12447,10.96263 -7.16235,7.38095 7.16235,7.38094 h 7.60006 V 173.1579 Z" />
      <path
         id="path44"
         style="display:inline;opacity:0.4;fill:url(#linearGradient47);fill-opacity:0.996078;stroke-width:1.05833;stroke-linecap:round;stroke-linejoin:round;stroke-miterlimit:1;paint-order:markers stroke fill;filter:url(#filter45)"
         d="m 239.46875,-43.876953 c 1.78125,0 3.5625,0 5.34375,0 1.8737,-1.93099 3.7474,-3.861979 5.62109,-5.792969 -1.87369,-1.930989 -3.74739,-3.861979 -5.62109,-5.792969 -1.78125,0 -3.5625,0 -5.34375,0 0,3.86198 0,7.723959 0,11.585938 z m 11.58203,5.169922 c 1.87435,1.930989 3.7487,3.861979 5.62305,5.792969 1.78125,0 3.5625,-10e-7 5.34375,0 0,-3.86198 0,-7.723959 0,-11.585938 -1.78125,0 -3.5625,0 -5.34375,0 -1.87435,1.93099 -3.7487,3.861979 -5.62305,5.792969 z m -11.58203,16.755859 c 1.78125,0 3.5625,0 5.34375,0 1.8737,-1.930989 3.7474,-3.861979 5.62109,-5.792969 -1.87369,-1.930989 -3.74739,-3.861979 -5.62109,-5.792968 -1.78125,0 -3.5625,0 -5.34375,0 0,3.861979 0,7.723958 0,11.585937 z m 11.58398,5.169922 c 1.8737,1.93099 3.7474,3.861979 5.6211,5.792969 1.78125,0 3.5625,0 5.34375,0 0,-3.86263 0,-7.725261 0,-11.587891 -1.78125,0 -3.5625,0 -5.34375,0 -1.8737,1.931641 -3.7474,3.863281 -5.6211,5.794922 z m -11.58398,16.75390625 c 1.78125,0 3.5625,0 5.34375,0 1.8737,-1.93098955 3.7474,-3.86197915 5.62109,-5.79296875 -1.87369,-1.9309896 -3.74739,-3.8619792 -5.62109,-5.7929685 -1.78125,0 -3.5625,0 -5.34375,0 0,3.8619789 0,7.7239581 0,11.58593725 z m 11.58398,5.16992185 c 1.8737,1.9309896 3.7474,3.8619792 5.6211,5.7929689 1.78125,0 3.5625,0 5.34375,0 0,-3.8619793 0,-7.7239585 0,-11.58593762 -1.78125,0 -3.5625,0 -5.34375,0 -1.8737,1.93098962 -3.7474,3.86197912 -5.6211,5.79296872 z M 239.46875,21.898438 c 1.78125,0 3.5625,0 5.34375,0 1.8737,-1.93099 3.7474,-3.86198 5.62109,-5.792969 -1.87369,-1.93099 -3.74739,-3.861979 -5.62109,-5.792969 -1.78125,0 -3.5625,0 -5.34375,0 0,3.861979 0,7.723958 0,11.585938 z m 11.58203,5.167968 c 1.87435,1.931641 3.7487,3.863281 5.62305,5.794922 1.78125,0 3.5625,0 5.34375,0 0,-3.86263 0,-7.72526 0,-11.58789 -1.78125,0 -3.5625,-10e-7 -5.34375,0 -1.87435,1.930989 -3.7487,3.861979 -5.62305,5.792968 z m -11.58203,16.75586 c 1.78125,0 3.5625,0 5.34375,0 1.8737,-1.93099 3.7474,-3.86198 5.62109,-5.792969 -1.87369,-1.93099 -3.74739,-3.861979 -5.62109,-5.792969 -1.78125,0 -3.5625,0 -5.34375,0 0,3.861979 0,7.723958 0,11.585938 z m 11.58398,5.169922 c 1.8737,1.930989 3.7474,3.861979 5.6211,5.792968 1.78125,0 3.5625,0 5.34375,0 0,-3.861979 0,-7.723958 0,-11.585937 -1.78125,0 -3.5625,0 -5.34375,0 -1.8737,1.930989 -3.7474,3.861979 -5.6211,5.792969 z m -11.58398,16.755859 c 1.78125,0 3.5625,0 5.34375,0 1.8737,-1.93099 3.7474,-3.861979 5.62109,-5.792969 -1.87369,-1.931641 -3.74739,-3.863281 -5.62109,-5.794922 -1.78125,0 -3.5625,0 -5.34375,0 0,3.86263 0,7.725261 0,11.587891 z m 11.58398,5.167969 c 1.8737,1.930989 3.7474,3.861979 5.6211,5.792968 1.78125,0 3.5625,0 5.34375,0 0,-3.861979 0,-7.723958 0,-11.585937 -1.78125,0 -3.5625,0 -5.34375,0 -1.8737,1.930989 -3.7474,3.861979 -5.6211,5.792969 z m -11.58398,16.755859 c 1.78125,0 3.5625,0 5.34375,0 1.8737,-1.93099 3.7474,-3.861979 5.62109,-5.792969 -1.87369,-1.930989 -3.74739,-3.861979 -5.62109,-5.792968 -1.78125,0 -3.5625,-10e-7 -5.34375,0 0,3.861979 0,7.723958 0,11.585937 z m 11.58398,5.169922 c 1.8737,1.930989 3.7474,3.861979 5.6211,5.792969 1.78125,0 3.5625,0 5.34375,0 0,-3.86198 0,-7.723959 0,-11.585938 -1.78125,0 -3.5625,0 -5.34375,0 -1.8737,1.93099 -3.7474,3.861979 -5.6211,5.792969 z M 239.46875,109.5957 c 1.78125,0 3.5625,0 5.34375,0 1.8737,-1.93099 3.7474,-3.86198 5.62109,-5.79297 -1.87369,-1.93099 -3.74739,-3.861975 -5.62109,-5.792964 -1.78125,0 -3.5625,0 -5.34375,0 0,3.861974 0,7.723954 0,11.585934 z m 11.58398,5.16992 c 1.8737,1.93099 3.7474,3.86198 5.6211,5.79297 1.78125,0 3.5625,0 5.34375,0 0,-3.86198 0,-7.72395 0,-11.58593 -1.78125,0 -3.5625,0 -5.34375,0 -1.8737,1.93099 -3.7474,3.86198 -5.6211,5.79296 z m -11.58398,16.75586 c 1.78125,0 3.5625,0 5.34375,0 1.8737,-1.93099 3.7474,-3.86197 5.62109,-5.79296 -1.87369,-1.93099 -3.74739,-3.86198 -5.62109,-5.79297 -1.78125,0 -3.5625,0 -5.34375,0 0,3.86198 0,7.72396 0,11.58593 z m 11.58398,5.16797 c 1.8737,1.93164 3.7474,3.86328 5.6211,5.79493 1.78125,0 3.5625,-10e-6 5.34375,0 0,-3.86264 0,-7.72527 0,-11.5879 -1.78125,0 -3.5625,0 -5.34375,0 -1.8737,1.93099 -3.7474,3.86198 -5.6211,5.79297 z m -11.58398,16.75586 c 1.78125,0 3.5625,0 5.34375,0 1.8737,-1.93099 3.7474,-3.86198 5.62109,-5.79297 -1.87369,-1.93099 -3.74739,-3.86198 -5.62109,-5.79296 -1.78125,0 -3.5625,-10e-6 -5.34375,0 0,3.86197 0,7.72395 0,11.58593 z m 11.58398,5.16992 c 1.8737,1.93099 3.7474,3.86198 5.6211,5.79297 1.78125,0 3.5625,0 5.34375,0 0,-3.86198 0,-7.72396 0,-11.58593 -1.78125,0 -3.5625,0 -5.34375,0 -1.8737,1.93099 -3.7474,3.86197 -5.6211,5.79296 z m -11.58398,16.75391 c 1.78125,0 3.5625,0 5.34375,0 1.8737,-1.93034 3.7474,-3.86068 5.62109,-5.79102 -1.87369,-1.93098 -3.74739,-3.86197 -5.62109,-5.79296 -1.78125,-6.5e-4 -3.5625,-10e-4 -5.34375,-0.002 0,3.86198 0,7.72396 0,11.58594 z m 11.58398,5.16992 c 1.8737,1.93099 3.7474,3.86198 5.6211,5.79297 1.78125,0 3.5625,0 5.34375,0 0,-3.86198 0,-7.72396 0,-11.58594 -1.78125,0 -3.5625,0 -5.34375,0 -1.8737,1.93099 -3.7474,3.86198 -5.6211,5.79297 z" />
      <path
         id="path45"
         style="display:inline;fill:url(#linearGradient49);stroke-width:1.05833;stroke-linecap:round;stroke-linejoin:round;stroke-miterlimit:1;paint-order:markers stroke fill;filter:url(#filter46)"
         d="m 238.9395,-55.992124 v 12.644706 h 1.05832 v -11.586373 h 6.06423 l -1.02681,-1.058333 z m 17.51158,10.962638 c -2.04557,2.107422 -4.09099,4.215189 -6.13658,6.322611 2.04559,2.107422 4.09101,4.214673 6.13658,6.322095 h 0.031 c -1.70313,-1.754626 -3.4061,-3.509135 -5.10925,-5.263761 2.04558,-2.107422 4.09101,-4.21519 6.13658,-6.322612 h 5.03742 v -1.058333 z m -17.51158,10.963155 v 12.644706 h 1.05832 v -11.586373 h 6.06423 l -1.02681,-1.058333 z m 17.51158,10.961088 -6.13503,6.324162 6.13503,6.322094 h 0.0315 c -1.70263,-1.754669 -3.40558,-3.509092 -5.10821,-5.263761 l 6.13502,-6.324162 h 5.03742 v -1.058333 z M 238.9395,-12.142605 V 0.50210115 h 1.05832 V -11.084272 h 6.06423 l -1.02681,-1.058333 z m 17.51158,10.9631551 -6.13503,6.3220946 c 2.04492,2.1074214 4.09011,4.2146725 6.13503,6.3220943 h 0.0315 C 254.77995,9.7100698 253.077,7.9556472 251.37437,6.200978 l 6.13502,-6.32209461 h 5.03742 V -1.1794499 Z M 238.9395,9.7831883 V 22.427894 h 1.05832 V 10.841522 h 6.06423 l -1.02681,-1.0583337 z m 17.51158,10.9610877 c -2.04557,2.107422 -4.09099,4.214673 -6.13658,6.322095 2.04559,2.108073 4.09101,4.216089 6.13658,6.324162 h 0.0315 c -1.70327,-1.755314 -3.40648,-3.510515 -5.10977,-5.265829 2.04558,-2.107422 4.09101,-4.214672 6.13658,-6.322094 h 5.03742 V 20.744276 Z M 238.9395,31.706914 V 44.35162 h 1.05832 V 32.765248 h 6.06423 c -0.34229,-0.352753 -0.68451,-0.705581 -1.02681,-1.058334 z m 17.51158,10.963155 -6.13503,6.322095 c 2.04492,2.107422 4.09011,4.214674 6.13503,6.322095 h 0.0315 c -1.70263,-1.754669 -3.40558,-3.509093 -5.10821,-5.263762 l 6.13502,-6.322094 h 5.03742 V 42.670069 Z M 238.9395,53.630641 v 12.646773 h 1.05832 v -11.58844 h 6.06371 l -1.02629,-1.058333 z m 17.51158,10.963155 -6.13503,6.322094 6.13503,6.322612 h 0.0315 l -5.10821,-5.264279 6.13502,-6.322094 h 5.03742 V 64.593796 Z M 238.9395,75.556434 V 88.20114 h 1.05832 V 76.614767 h 6.06423 l -1.02681,-1.058333 z m 17.51158,10.963155 -6.13503,6.322094 6.13503,6.322612 h 0.0315 c -1.70264,-1.754684 -3.40556,-3.509594 -5.10821,-5.264278 l 6.13502,-6.322095 h 5.03742 V 86.519589 Z M 238.9395,97.480677 v 12.644183 h 1.05832 V 98.53901 h 6.06423 c -0.34231,-0.352767 -0.68451,-0.705566 -1.02681,-1.058333 z m 17.51158,10.962633 c -2.04492,2.10743 -4.09011,4.21468 -6.13503,6.3221 2.04492,2.10742 4.09011,4.21519 6.13503,6.32261 h 0.0315 c -1.70264,-1.75469 -3.40556,-3.5096 -5.10821,-5.26428 2.04491,-2.10742 4.0901,-4.21466 6.13502,-6.32209 h 5.03742 v -1.05834 z m -17.51158,10.96316 v 12.64419 h 1.05832 V 120.4648 h 6.06423 l -1.02681,-1.05833 z m 17.51158,10.96057 -6.13503,6.32261 c 2.04492,2.10808 4.09011,4.21609 6.13503,6.32416 h 0.0315 c -1.70268,-1.75527 -3.40553,-3.51055 -5.10821,-5.26583 l 6.13502,-6.32261 h 5.03742 v -1.05833 z m -17.51158,10.96315 v 12.64419 h 1.05832 v -11.58585 h 6.06423 l -1.02681,-1.05834 z m 17.51158,10.96264 -6.13503,6.32261 c 2.04492,2.10743 4.09011,4.21468 6.13503,6.3221 h 0.0315 c -1.70263,-1.75467 -3.40558,-3.50909 -5.10821,-5.26376 l 6.13502,-6.32262 h 5.03742 v -1.05833 z m -17.51158,10.96109 v 12.64471 h 1.05832 v -11.58638 c 2.02139,0.001 4.04284,0.001 6.06423,0.002 l -1.02681,-1.05833 c -2.03191,-6.5e-4 -4.06384,-0.001 -6.09574,-0.002 z m 17.51158,10.96264 -6.13503,6.32261 c 2.04492,2.10742 4.09011,4.21467 6.13503,6.32209 h 0.0315 c -1.70263,-1.75467 -3.40558,-3.50909 -5.10821,-5.26376 l 6.13502,-6.32261 h 5.03742 v -1.05833 z" />
    </g>
    <path
       style="display:inline;fill:#6666b5;fill-opacity:0.996078;stroke-width:1.05833;stroke-linecap:round;stroke-linejoin:round;stroke-miterlimit:1;paint-order:markers stroke fill"
       d="m 303.20419,-208.54634 v 14.76241 h 7.60005 l 7.16236,-7.38095 -7.16236,-7.38146 z"
       id="path51" />
    <g
       id="g91"
       transform="matrix(0.61542739,0.61542739,-0.61542739,0.61542739,95.879947,201.28396)"
       style="display:inline;opacity:1;stroke-width:1.14897">
      <path
         style="display:none;fill:#424283;fill-opacity:1;stroke:#000000;stroke-width:2.43198;stroke-linecap:butt;stroke-linejoin:miter;stroke-miterlimit:12;stroke-dasharray:none;stroke-opacity:1;paint-order:fill markers stroke"
         d="M -119.92757,84.666635 V 69.904229 h -7.60004 c -2.38746,2.460316 -4.77491,4.920632 -7.16236,7.380948 2.38745,2.460486 4.7749,4.920972 7.16236,7.381458 z m 0,-14.762406 V 55.141823 h -7.60004 c -2.38746,2.460316 -4.77491,4.920632 -7.16236,7.380948 2.38745,2.460486 4.7749,4.920972 7.16236,7.381458 z m 0,-14.762406 V 40.379418 h -7.60004 c -2.38746,2.460316 -4.77491,4.920632 -7.16236,7.380948 2.38745,2.460485 4.7749,4.920971 7.16236,7.381457 z m 0,-14.762405 V 25.617012 h -7.60004 c -2.38746,2.460316 -4.77491,4.920632 -7.16236,7.380948 2.38745,2.460486 4.7749,4.920972 7.16236,7.381458 z m 0,-14.762406 V 10.854606 h -7.60004 c -2.38746,2.460316 -4.77491,4.920632 -7.16236,7.380948 2.38745,2.460486 4.7749,4.920972 7.16236,7.381458 z m 0,-14.762406 V -3.9077994 h -7.60004 c -2.38746,2.4603159 -4.77491,4.9206319 -7.16236,7.3809478 2.38745,2.460486 4.7749,4.9209719 7.16236,7.3814576 z m 0,-14.7624054 V -18.670205 h -7.60004 c -2.38746,2.460316 -4.77491,4.920632 -7.16236,7.380948 2.38745,2.4604857 4.7749,4.9209716 7.16236,7.3814576 z m 0,-14.7624056 v -14.762406 h -7.60004 c -2.38746,2.460316 -4.77491,4.920632 -7.16236,7.380948 2.38745,2.460486 4.7749,4.920972 7.16236,7.381458 z m 0,-14.762406 v -14.762406 h -7.60004 c -2.38746,2.460316 -4.77491,4.920632 -7.16236,7.380948 2.38745,2.460486 4.7749,4.920972 7.16236,7.381458 z m 0,-14.762406 v -14.762405 h -7.60004 c -2.38746,2.460316 -4.77491,4.920632 -7.16236,7.380948 2.38745,2.460486 4.7749,4.920971 7.16236,7.381457 z m 0,-14.762405 v -14.762406 h -7.60004 c -2.38746,2.460316 -4.77491,4.920632 -7.16236,7.380948 2.38745,2.460486 4.7749,4.920972 7.16236,7.381458 z m 0,-14.762406 v -14.762406 h -7.60004 c -2.38746,2.460316 -4.77491,4.920632 -7.16236,7.380948 2.38745,2.460486 4.7749,4.920972 7.16236,7.381458 z m 0,-14.762406 v -3.05603 c 0.007,-3.794003 0.0954,-7.590196 0.27005,-11.380786 l -7.60739,-0.34507 c -2.50152,2.35644 -4.96818,4.78419 -7.39572,7.277131 1.37781,1.50692 2.76752,2.989681 4.16769,4.448725 0.98844,1.018677 1.97688,2.037354 2.96533,3.05603 z m 0.27005,-14.436816 c 0.22023,-4.78015 0.57806,-9.55139 1.08491,-14.29812 l -7.57341,-0.81186 c -2.64218,2.19898 -5.25422,4.4787 -7.83188,6.83306 2.19496,2.71521 4.435,5.35843 6.71299,7.93185 z m 1.08491,-14.29812 c 0.50685,-4.74673 1.16271,-9.46894 1.97902,-14.15102 l -7.4912,-1.31392 c -2.77911,2.01482 -5.53281,4.11983 -8.25684,6.30892 2.01207,2.85428 4.07965,5.63494 6.19561,8.34416 z m 1.97902,-14.15102 c 0.8163,-4.68208 1.79304,-9.32403 2.94163,-13.91024 l -7.36076,-1.85125 c -2.91231,1.80397 -5.80394,3.70757 -8.67061,5.7047 1.80262,2.98882 3.67117,5.90238 5.59854,8.74287 z m 2.94163,-13.91024 c 1.14859,-4.5862 2.46904,-9.11666 3.97276,-13.57577 l -7.18208,-2.42385 c -3.04179,1.56642 -6.0676,3.24192 -9.07319,5.02039 1.56659,3.11883 3.20955,6.16076 4.92175,9.12798 z m 3.97276,-13.57577 c 1.50373,-4.4591 3.19072,-8.84685 5.07241,-13.14763 l -6.95519,-3.03172 c -3.16752,1.30218 -6.32379,2.72288 -9.46456,4.256 1.304,3.24431 2.69479,6.41007 4.16526,9.4995 z m 5.07241,-13.14763 c 0.88346,-2.01921 1.80982,-4.01925 2.78029,-5.9985 1.08953,-2.2362 2.235208,-4.44547 3.435176,-6.62521 l -6.657506,-3.66522 c -3.27953,1.00681 -6.56251,2.13931 -9.84098,3.39982 0.0615,0.20536 0.12341,0.41045 0.18569,0.61526 0.96401,3.15068 2.01335,6.23078 3.14214,9.24213 z m 6.215466,-12.62371 c 2.261952,-4.10881 4.716821,-8.11265 7.352238,-11.9939 l -6.286932,-4.26921 c -3.358912,0.69692 -6.732892,1.51794 -10.114002,2.46536 0.68939,3.44308 1.48807,6.82282 2.39119,10.13253 z m 7.352238,-11.9939 c 2.635417,-3.88125 5.451382,-7.63991 8.435526,-11.25839 l -5.861986,-4.835 c -3.408837,0.38144 -6.84438,0.88538 -10.298678,1.51411 0.366279,3.49185 0.847301,6.93078 1.438206,10.31007 z m 8.435526,-11.25839 c 2.984144,-3.61848 6.136467,-7.09678 9.444599,-10.41729 l -5.382671,-5.36257 c -3.429317,0.0604 -6.89697,0.24162 -10.395011,0.54607 0.03846,3.51103 0.197114,6.97952 0.471097,10.39879 z m 9.444599,-10.41729 c 3.308132,-3.3205 6.772073,-6.48322 10.379455,-9.47056 l -4.848986,-5.85194 c -3.420348,-0.26632 -6.890664,-0.41334 -10.402999,-0.43876 -0.294065,3.50059 -0.462492,6.96905 -0.510141,10.39869 z m 10.379455,-9.47056 c 0.15614,-0.1293 0.312548,-0.25827 0.469224,-0.38691 3.446528,-2.84328 7.019338,-5.53519 10.702974,-8.06706 l -4.220605,-6.29624 c -3.358594,-0.58521 -6.787111,-1.05893 -10.279738,-1.41597 -0.585098,3.16371 -1.058368,6.30831 -1.420879,9.42796 -0.03427,0.29564 -0.06759,0.59107 -0.09996,0.88628 z m 11.172198,-8.45397 c 3.850289,-2.64641 7.82166,-5.11796 11.896462,-7.40474 l -3.559247,-6.68607 c -3.268195,-0.89657 -6.615539,-1.68773 -10.036217,-2.36829 -0.974494,3.40203 -1.814561,6.79221 -2.521603,10.16286 z m 11.896462,-7.40474 c 4.074802,-2.28677 8.253036,-4.38877 12.517052,-6.29608 l -2.86725,-7.02139 c -3.150525,-1.20072 -6.389421,-2.30211 -9.710876,-3.29899 -1.300417,3.3135 -2.466007,6.62619 -3.498173,9.93039 z m 12.517052,-6.29608 c 1.400033,-0.62624 2.809314,-1.23149 4.227217,-1.8154 l 9.07921,-2.99805 -2.295313,-7.22303 c -3.057761,-1.49944 -6.194572,-2.97469 -9.410433,-4.42576 -0.554799,1.04331 -1.100278,2.08378 -1.636438,3.12139 -1.0018,2.10394 -1.945498,4.21114 -2.831493,6.31946 z"
         id="path77"
         sodipodi:nodetypes="czc" />
      <path
         style="display:none;fill:#424283;fill-opacity:1;stroke:#000000;stroke-width:2.43198;stroke-linecap:butt;stroke-linejoin:miter;stroke-miterlimit:12;stroke-dasharray:none;stroke-opacity:1"
         d="M -143.34835,77.285687 V 62.523281 h 7.60004 c 2.38746,2.460316 4.77491,4.920632 7.16236,7.380948 -2.38745,2.460486 -4.7749,4.920972 -7.16236,7.381458 z m 0,-14.762406 V 47.760875 h 7.60004 c 2.38746,2.460316 4.77491,4.920632 7.16236,7.380948 -2.38745,2.460486 -4.7749,4.920972 -7.16236,7.381458 z m 0,-14.762406 V 32.99847 h 7.60004 c 2.38746,2.460316 4.77491,4.920632 7.16236,7.380948 -2.38745,2.460485 -4.7749,4.920971 -7.16236,7.381457 z m 0,-14.762405 V 18.236064 h 7.60004 c 2.38746,2.460316 4.77491,4.920632 7.16236,7.380948 -2.38745,2.460486 -4.7749,4.920972 -7.16236,7.381458 z m 0,-14.762406 V 3.4736581 h 7.60004 c 2.38746,2.460316 4.77491,4.920632 7.16236,7.3809479 -2.38745,2.460486 -4.7749,4.920972 -7.16236,7.381458 z m 0,-14.7624059 V -11.288747 h 7.60004 c 2.38746,2.4603158 4.77491,4.9206318 7.16236,7.3809477 -2.38745,2.460486 -4.7749,4.9209719 -7.16236,7.3814574 z m 0,-14.7624051 v -14.762406 h 7.60004 c 2.38746,2.460316 4.77491,4.920632 7.16236,7.380948 -2.38745,2.460486 -4.7749,4.920972 -7.16236,7.381458 z m 0,-14.762406 v -14.762406 h 7.60004 c 2.38746,2.460316 4.77491,4.920632 7.16236,7.380948 -2.38745,2.460486 -4.7749,4.920972 -7.16236,7.381458 z m 0,-14.762406 v -14.762406 h 7.60004 c 2.38746,2.460316 4.77491,4.920632 7.16236,7.380948 -2.38745,2.460486 -4.7749,4.920972 -7.16236,7.381458 z m 0,-14.762406 V -70.33837 h 7.60004 c 2.38746,2.460316 4.77491,4.920632 7.16236,7.380948 -2.38745,2.460486 -4.7749,4.920971 -7.16236,7.381457 z m 0,-14.762405 v -14.762406 h 7.60004 c 2.38746,2.460316 4.77491,4.920632 7.16236,7.380948 -2.38745,2.460486 -4.7749,4.920972 -7.16236,7.381458 z m 0,-14.762406 v -14.762406 h 7.60004 c 2.38746,2.460316 4.77491,4.920632 7.16236,7.380948 -2.38745,2.460486 -4.7749,4.920972 -7.16236,7.381458 z m 0,-14.762406 v -3.056028 c -0.007,-3.794 -0.0954,-7.5902 -0.27005,-11.38079 l 7.60739,-0.34507 c 2.50152,2.35644 4.96818,4.78419 7.39572,7.27713 -1.37781,1.50692 -2.76752,2.98968 -4.16769,4.44873 -0.98844,1.01868 -1.97688,2.03735 -2.96533,3.056028 z M -143.6184,-114.3 c -0.22023,-4.78015 -0.57806,-9.55139 -1.08491,-14.29812 l 7.57341,-0.81186 c 2.64218,2.19898 5.25422,4.4787 7.83188,6.83306 -2.19496,2.71521 -4.435,5.35843 -6.71299,7.93185 z m -1.08491,-14.29812 c -0.50685,-4.74673 -1.16271,-9.46894 -1.97902,-14.15102 l 7.4912,-1.31392 c 2.77911,2.01482 5.53281,4.11983 8.25684,6.30892 -2.01207,2.85428 -4.07965,5.63494 -6.19561,8.34416 z m -1.97902,-14.15102 c -0.8163,-4.68208 -1.79304,-9.32403 -2.94163,-13.91024 l 7.36076,-1.85125 c 2.91231,1.80397 5.80394,3.70757 8.67061,5.7047 -1.80262,2.98882 -3.67117,5.90238 -5.59854,8.74287 z m -2.94163,-13.91024 c -1.14859,-4.5862 -2.46904,-9.11666 -3.97276,-13.57577 l 7.18208,-2.42385 c 3.04179,1.56642 6.0676,3.24192 9.07319,5.02039 -1.56659,3.11883 -3.20955,6.16076 -4.92175,9.12798 z m -3.97276,-13.57577 c -1.50373,-4.4591 -3.19072,-8.84685 -5.07241,-13.14763 l 6.95519,-3.03172 c 3.16752,1.30218 6.32379,2.72288 9.46456,4.256 -1.304,3.24431 -2.69479,6.41007 -4.16526,9.4995 z m -5.07241,-13.14763 c -0.88346,-2.01921 -1.80982,-4.01925 -2.78029,-5.9985 -1.08953,-2.2362 -2.23521,-4.44547 -3.43518,-6.62521 l 6.65751,-3.66522 c 3.27953,1.00681 6.56251,2.13931 9.84098,3.39982 -0.0615,0.20536 -0.12341,0.41045 -0.18569,0.61526 -0.96401,3.15068 -2.01335,6.23078 -3.14214,9.24213 z m -6.21547,-12.62371 c -2.26195,-4.10881 -4.71682,-8.11265 -7.35224,-11.9939 l 6.28694,-4.26921 c 3.35891,0.69692 6.73289,1.51794 10.114,2.46536 -0.68939,3.44308 -1.48807,6.82282 -2.39119,10.13253 z m -7.35224,-11.9939 c -2.63541,-3.88125 -5.45138,-7.63991 -8.43552,-11.25839 l 5.86198,-4.835 c 3.40884,0.38144 6.84438,0.88538 10.29868,1.51411 -0.36628,3.49185 -0.8473,6.93078 -1.4382,10.31007 z m -8.43552,-11.25839 c -2.98415,-3.61848 -6.13647,-7.09678 -9.4446,-10.41729 l 5.38267,-5.36257 c 3.42932,0.0604 6.89697,0.24162 10.39501,0.54607 -0.0385,3.51103 -0.19711,6.97952 -0.4711,10.39879 z m -9.4446,-10.41729 c -3.30813,-3.3205 -6.77207,-6.48322 -10.37946,-9.47056 l 4.84899,-5.85194 c 3.42035,-0.26632 6.89066,-0.41334 10.403,-0.43876 0.29406,3.50059 0.46249,6.96905 0.51014,10.39869 z m -10.37946,-9.47056 c -0.15614,-0.1293 -0.31254,-0.25827 -0.46922,-0.38691 -3.44653,-2.84328 -7.01934,-5.53519 -10.70297,-8.06706 l 4.2206,-6.29624 c 3.35859,-0.58521 6.78711,-1.05893 10.27974,-1.41597 0.5851,3.16371 1.05837,6.30831 1.42088,9.42796 0.0343,0.29564 0.0676,0.59107 0.1,0.88628 z m -11.17219,-8.45397 c -3.8503,-2.64641 -7.82167,-5.11796 -11.89647,-7.40474 l 3.55925,-6.68607 c 3.26819,-0.89657 6.61554,-1.68773 10.03622,-2.36829 0.97449,3.40203 1.81456,6.79221 2.5216,10.16286 z m -11.89647,-7.40474 c -4.0748,-2.28677 -8.25304,-4.38877 -12.51705,-6.29608 l 2.86725,-7.02139 c 3.15052,-1.20072 6.38942,-2.30211 9.71087,-3.29899 1.30042,3.3135 2.46601,6.62619 3.49818,9.93039 z m -12.51705,-6.29608 c -1.40004,-0.62624 -2.80932,-1.23149 -4.22722,-1.8154 l -9.07921,-2.99805 2.29531,-7.22303 c 3.05776,-1.49944 6.19457,-2.97469 9.41044,-4.42576 0.55479,1.04331 1.10027,2.08378 1.63643,3.12139 1.0018,2.10394 1.9455,4.21114 2.8315,6.31946 z"
         id="path82"
         sodipodi:nodetypes="czc" />
      <path
         id="path97"
         style="fill:#424283;stroke-miterlimit:12;paint-order:fill markers stroke"
         d="M -76.876928 -236.7913 C -77.09807 -233.88463 -77.251198 -230.99505 -77.300548 -228.13878 L -73.121023 -223.97437 C -70.337009 -226.72371 -67.446419 -229.36098 -64.455068 -231.88041 L -64.455068 -231.88293 L -68.220629 -236.42772 C -71.069803 -236.63967 -73.962091 -236.7473 -76.876928 -236.7913 z M -87.667703 -225.96106 C -87.613172 -223.04733 -87.496345 -220.15729 -87.27767 -217.30854 L -82.724905 -213.55264 C -80.209094 -216.55395 -77.577918 -219.45629 -74.837756 -222.25176 L -79.017701 -226.41575 C -81.873631 -226.35579 -84.762521 -226.19129 -87.667703 -225.96106 z M -65.083991 -246.5648 C -65.569177 -243.81653 -66.005172 -241.07616 -66.320425 -238.36319 C -66.334695 -238.2401 -66.34721 -238.11717 -66.36115 -237.99415 L -62.599787 -233.45524 C -59.581322 -235.92535 -56.455818 -238.2633 -53.257886 -240.49808 L -56.535172 -245.38672 C -59.333708 -245.86429 -62.190656 -246.24601 -65.083991 -246.5648 z M -97.394598 -214.1719 C -97.06827 -211.27589 -96.680012 -208.40843 -96.197209 -205.59201 L -91.314029 -202.27736 C -89.087919 -205.50011 -86.738915 -208.63651 -84.271602 -211.67762 L -88.822268 -215.43143 L -88.824367 -215.43185 C -91.66263 -215.10463 -94.523444 -214.67175 -97.394598 -214.1719 z M -52.416104 -255.22068 C -53.203672 -252.38634 -53.919599 -249.55915 -54.519511 -246.74827 L -54.519511 -246.74575 L -51.252302 -241.87307 C -48.019923 -244.05723 -44.705968 -246.11908 -41.318425 -248.0544 L -41.318425 -248.05692 L -44.085602 -253.25582 C -46.804273 -253.99115 -49.590125 -254.63495 -52.416104 -255.22068 z M -105.98078 -201.52753 C -105.38651 -198.6738 -104.7317 -195.85533 -103.98863 -193.09584 C -103.98847 -193.09484 -103.98837 -193.09435 -103.98821 -193.09374 L -98.82206 -190.25015 L -98.820381 -190.25015 C -96.904202 -193.66564 -94.856223 -197.00583 -92.681873 -200.2638 L -97.562535 -203.58013 C -100.35903 -202.99018 -103.16776 -202.29248 -105.98078 -201.52753 z M -39.025668 -262.7031 C -40.086728 -259.93605 -41.073068 -257.16953 -41.945249 -254.41038 L -39.195285 -249.24381 C -35.778439 -251.12563 -32.291918 -252.88036 -28.744162 -254.49981 L -30.976461 -259.96909 C -30.977061 -259.9693 -30.97799 -259.96846 -30.97856 -259.96867 C -33.596055 -260.95515 -36.288354 -261.85718 -39.025668 -262.7031 z M -113.37126 -188.12911 C -112.50799 -185.34153 -111.57774 -182.61031 -110.58393 -179.93338 L -105.20869 -177.59192 C -104.46819 -179.24904 -103.71954 -180.90263 -102.92014 -182.53304 C -101.99937 -184.42287 -101.01651 -186.28287 -100.01735 -188.13289 L -105.16419 -190.96473 C -107.89909 -190.11505 -110.63618 -189.15677 -113.37126 -188.12911 z M -25.056691 -268.78493 C -25.416535 -268.10187 -25.779306 -267.41873 -26.131067 -266.7382 C -26.132967 -266.7345 -26.135044 -266.73044 -26.136944 -266.72644 C -27.057373 -264.79295 -27.91668 -262.85688 -28.738284 -260.92003 L -26.535374 -255.52548 C -25.502845 -255.97733 -24.471842 -256.4302 -23.429804 -256.85932 L -23.38866 -256.87695 L -15.409986 -259.51188 L -17.181718 -265.08234 C -19.746699 -266.33494 -22.379689 -267.56592 -25.056691 -268.78493 z M -119.42958 -174.16182 C -118.32847 -171.47761 -117.1815 -168.83637 -115.96462 -166.25997 L -110.39458 -164.37866 C -109.11359 -168.08894 -107.70311 -171.74887 -106.16006 -175.35165 L -111.5546 -177.70318 C -111.5556 -177.70296 -111.55574 -177.70341 -111.55628 -177.70318 C -114.18982 -176.61057 -116.8129 -175.41648 -119.42958 -174.16182 z M -124.29302 -159.77552 C -122.97456 -157.19371 -121.61526 -154.65444 -120.19537 -152.17806 L -119.66217 -152.04287 L -114.49014 -150.7443 C -113.50711 -154.5631 -112.40315 -158.34167 -111.17381 -162.07457 L -116.74385 -163.95504 C -119.27306 -162.64308 -121.78748 -161.23638 -124.29302 -159.77552 z M -128.01366 -145.07014 C -126.49973 -142.5946 -124.9506 -140.15955 -123.34964 -137.78714 L -123.34796 -137.78714 L -120.30495 -137.25394 L -117.53903 -136.76944 C -116.83474 -140.67189 -116.01872 -144.54679 -115.08379 -148.38479 L -120.7907 -149.82023 L -120.79112 -149.82065 C -123.21467 -148.31035 -125.62064 -146.71634 -128.01366 -145.07014 z M -130.65027 -130.13468 C -128.96352 -127.7705 -127.24758 -125.44506 -125.48831 -123.18168 L -124.55836 -123.08218 L -119.61305 -122.55276 C -119.16859 -126.51337 -118.61832 -130.45543 -117.95887 -134.37299 L -123.76948 -135.39236 C -126.08302 -133.70629 -128.37411 -131.94346 -130.65027 -130.13468 z M -132.27758 -115.06824 C -130.4394 -112.81835 -128.57603 -110.60663 -126.67982 -108.45531 L -120.78105 -108.18745 C -120.57762 -112.17894 -120.27594 -116.16292 -119.87335 -120.13279 L -125.14866 -120.69916 L -125.7461 -120.76339 C -127.94614 -118.92382 -130.12176 -117.01727 -132.27758 -115.06824 z M -132.96276 -99.951414 C -131.85285 -98.748968 -130.7397 -97.552267 -129.61536 -96.38066 L -129.62124 -96.384858 C -128.75203 -95.489058 -127.88071 -94.592827 -127.0115 -93.697031 L -121.14463 -93.697031 L -121.14421 -95.538877 L -121.14463 -95.540976 C -121.13835 -98.946747 -121.04277 -102.35329 -120.90238 -105.75783 L -126.76169 -106.02317 L -126.79066 -106.02527 C -128.87546 -104.05289 -130.92907 -102.02013 -132.96276 -99.951414 z M -127.01192 -91.265727 C -129.00595 -89.210841 -130.9998 -87.156496 -132.99383 -85.101609 C -130.99948 -83.046246 -129.00586 -80.990755 -127.0115 -78.935392 L -121.14463 -78.935392 L -121.14463 -91.265307 L -127.01192 -91.265727 z M -127.01192 -76.504088 C -129.00595 -74.449203 -131.00022 -72.394437 -132.99425 -70.339551 C -130.9999 -68.284187 -129.00586 -66.229117 -127.0115 -64.173754 L -121.14463 -64.173754 L -121.14463 -76.503668 L -127.01192 -76.504088 z M -127.0115 -61.74203 C -129.00586 -59.68681 -130.9999 -57.631455 -132.99425 -55.576233 C -131.00017 -53.521149 -129.00601 -51.465099 -127.01192 -49.410016 L -121.14463 -49.410436 L -121.14463 -61.74203 L -127.0115 -61.74203 z M -127.0115 -46.978712 C -129.00586 -44.923491 -130.99948 -42.867717 -132.99383 -40.812495 C -130.9998 -38.757467 -129.00595 -36.703405 -127.01192 -34.648377 L -121.14421 -34.648377 L -121.14463 -46.978712 L -127.0115 -46.978712 z M -127.01192 -32.216653 C -129.00628 -30.161432 -130.99948 -28.106078 -132.99383 -26.050856 C -130.9998 -23.995828 -129.00595 -21.941766 -127.01192 -19.886739 L -121.14421 -19.886739 L -121.14463 -32.217073 L -127.01192 -32.216653 z M -127.01192 -17.455015 C -129.00628 -15.399794 -130.9999 -13.344019 -132.99425 -11.288798 C -131.00017 -9.2337142 -129.00559 -7.1780838 -127.0115 -5.123001 L -121.14463 -5.123001 L -121.14421 -17.455015 L -127.01192 -17.455015 z M -127.0115 -2.6912772 C -129.00553 -0.63639165 -131.00022 1.4179541 -132.99425 3.4728405 C -130.9999 5.5282042 -129.00586 7.5832748 -127.0115 9.6386375 L -121.14463 9.6386375 L -121.14463 -2.6912772 L -127.0115 -2.6912772 z M -127.0115 12.070361 C -129.00553 14.125246 -131.00022 16.179593 -132.99425 18.234479 C -130.9999 20.289843 -129.00586 22.344913 -127.0115 24.400276 L -121.14463 24.400276 L -121.14463 12.070361 L -127.0115 12.070361 z M -127.0115 26.832 C -129.00559 28.886941 -131.00017 30.942855 -132.99425 32.997797 C -131.00017 35.052881 -129.00601 37.108932 -127.01192 39.164014 L -121.14421 39.164014 L -121.14463 26.832 L -127.0115 26.832 z M -127.01192 41.595738 C -129.00628 43.650959 -130.9999 45.706733 -132.99425 47.761955 C -131.00022 49.816983 -129.00595 51.870625 -127.01192 53.925652 L -121.14463 53.926072 L -121.14421 41.595738 L -127.01192 41.595738 z M -127.01192 56.357376 C -129.00628 58.412597 -130.9999 60.468372 -132.99425 62.523593 C -131.00022 64.578622 -129.00595 66.632263 -127.01192 68.687291 L -121.14463 68.687711 L -121.14421 56.357376 L -127.01192 56.357376 z M -127.0115 71.121114 C -129.00553 73.175999 -131.00022 75.230346 -132.99425 77.285232 C -131.00017 79.340316 -129.00559 81.395946 -127.0115 83.451029 L -121.14463 83.451029 L -121.14463 71.121114 L -127.0115 71.121114 z " />
      <path
         id="path99"
         style="display:inline;fill:#424283;stroke-miterlimit:12"
         d="M -246.09376 -272.46484 L -247.86549 -266.8927 L -239.88681 -264.25777 L -239.84567 -264.24014 C -238.80364 -263.81102 -237.77263 -263.35815 -236.7401 -262.9063 L -234.53719 -268.30085 C -235.3588 -270.2377 -236.2181 -272.17377 -237.13853 -274.10726 C -237.49277 -274.79265 -237.85635 -275.48199 -238.21878 -276.16994 C -240.89586 -274.95092 -243.52871 -273.71745 -246.09376 -272.46484 z M -232.29901 -267.35159 L -234.53131 -261.88063 C -230.98312 -260.26098 -227.49702 -258.50714 -224.07977 -256.62505 L -221.33023 -261.79288 C -222.20228 -264.55149 -223.19105 -267.31783 -224.2519 -270.08434 C -226.98916 -269.2384 -229.68158 -268.33809 -232.29901 -267.35159 z M -219.18945 -260.63706 L -221.39488 -256.49616 L -221.95915 -255.43564 C -218.57113 -253.50004 -215.25599 -251.43838 -212.02317 -249.25388 L -211.23849 -250.42566 L -208.75806 -254.12699 C -209.35806 -256.93845 -210.07165 -259.76657 -210.85937 -262.6015 C -213.68536 -262.01576 -216.47079 -261.37239 -219.18945 -260.63706 z M -206.7403 -252.76754 L -209.02928 -249.35339 L -210.01759 -247.8789 C -206.82005 -245.64434 -203.69381 -243.30589 -200.67569 -240.83606 L -196.9139 -245.37707 C -196.91398 -245.37807 -196.91383 -245.37809 -196.9139 -245.37874 C -196.9277 -245.50046 -196.94095 -245.62226 -196.95505 -245.74401 C -197.2703 -248.45698 -197.70629 -251.19735 -198.19148 -253.94562 C -201.08427 -253.6269 -203.94228 -253.24498 -206.7403 -252.76754 z M -195.05484 -243.80854 L -198.82041 -239.26375 C -195.8287 -236.74407 -192.93877 -234.10484 -190.15445 -231.35519 L -185.97451 -235.51918 C -185.97452 -235.52018 -185.9745 -235.52106 -185.97451 -235.5217 C -186.02389 -238.37735 -186.17914 -241.2661 -186.40023 -244.17212 L -186.40064 -244.1717 C -189.31537 -244.12774 -192.20577 -244.02048 -195.05484 -243.80854 z M -188.4373 -229.633 C -185.69778 -226.83818 -183.06795 -223.9361 -180.55267 -220.93555 L -176.00032 -224.68936 C -175.78164 -227.53811 -175.66195 -230.42771 -175.60735 -233.34146 C -178.51374 -233.57182 -181.40276 -233.73709 -184.25987 -233.79699 L -184.8338 -233.22474 L -188.4373 -229.633 z M -179.00387 -219.05844 C -176.53656 -216.01733 -174.18671 -212.88093 -171.96061 -209.65818 L -167.07994 -212.97283 C -166.59715 -215.78917 -166.20889 -218.65679 -165.88256 -221.55272 C -168.75307 -222.05242 -171.61348 -222.48553 -174.45111 -222.81267 C -174.45211 -222.81274 -174.45258 -222.81218 -174.45321 -222.81225 L -179.00387 -219.05844 z M -170.5936 -207.6463 C -168.41875 -204.38766 -166.37165 -201.0472 -164.45509 -197.63097 L -159.28516 -200.47666 C -158.54213 -203.23601 -157.88893 -206.05476 -157.29469 -208.90834 C -160.10771 -209.67329 -162.91645 -210.371 -165.71294 -210.96095 L -170.5936 -207.6463 z M -163.2598 -195.51371 C -162.26103 -193.66442 -161.27788 -191.80502 -160.35744 -189.91596 L -160.35534 -189.91386 C -159.55573 -188.28301 -158.80746 -186.63031 -158.06678 -184.97274 C -158.06678 -184.97249 -158.06437 -184.97299 -158.06426 -184.97274 L -152.69322 -187.3142 C -151.6992 -189.99172 -150.76764 -192.72339 -149.90421 -195.51161 C -152.63987 -196.53947 -155.3779 -197.49782 -158.11338 -198.34764 L -162.98061 -195.66779 L -163.2598 -195.51371 z M -157.115 -182.73457 C -157.11477 -182.73357 -157.11566 -182.73303 -157.11542 -182.73247 C -155.57262 -179.13017 -154.1638 -175.46966 -152.88299 -171.7599 L -147.31043 -173.64037 C -146.09355 -176.21678 -144.94659 -178.85884 -143.84548 -181.54305 C -146.4627 -182.79797 -149.08678 -183.9912 -151.72087 -185.084 L -157.115 -182.73457 z M -152.10377 -169.45497 C -150.87442 -165.72207 -149.77005 -161.94392 -148.78702 -158.12512 L -143.07843 -159.56056 C -141.65902 -162.0362 -140.30051 -164.57531 -138.98245 -167.15633 C -141.48849 -168.61747 -144.00359 -170.02367 -146.5333 -171.33586 L -150.89084 -169.86348 L -152.10377 -169.45497 z M -148.19336 -155.76561 C -147.25843 -151.9276 -146.44074 -148.05273 -145.73645 -144.15026 L -139.92583 -145.16964 C -138.32522 -147.54157 -136.77711 -149.97594 -135.26349 -152.45096 C -137.65569 -154.09656 -140.06165 -155.69167 -142.48435 -157.20147 C -142.48435 -157.20176 -142.48599 -157.20077 -142.48645 -157.20105 L -148.19336 -155.76561 z M -145.3166 -141.75381 C -144.65715 -137.83625 -144.1069 -133.89419 -143.66243 -129.93358 L -138.71711 -130.463 L -137.78716 -130.5625 C -136.02789 -132.82588 -134.31195 -135.15133 -132.6252 -137.5155 C -134.90136 -139.32429 -137.19245 -141.08711 -139.50599 -142.77318 L -145.3166 -141.75381 z M -143.40212 -127.51361 C -142.99954 -123.54375 -142.69954 -119.55975 -142.49611 -115.56827 L -136.62504 -115.83361 L -136.59775 -115.83571 C -134.70129 -117.98728 -132.83841 -120.19931 -131 -122.44948 C -133.15547 -124.39816 -135.32972 -126.30495 -137.52938 -128.14421 L -138.41986 -128.04891 L -143.40212 -127.51361 z M -142.37477 -113.13865 C -142.23439 -109.73411 -142.13852 -106.32756 -142.13252 -102.9218 L -142.13294 -102.9197 L -142.13294 -101.07995 L -136.26355 -101.07995 C -135.3957 -101.97434 -134.52795 -102.86708 -133.66011 -103.76148 C -132.53551 -104.93337 -131.42457 -106.13117 -130.3144 -107.33391 C -132.34751 -109.40199 -134.40229 -111.43429 -136.48649 -113.40609 L -136.51336 -113.40441 L -142.37477 -113.13865 z M -142.13294 -98.646546 L -142.13294 -86.316631 L -136.26355 -86.316631 C -134.26952 -88.371659 -132.27526 -90.4253 -130.28123 -92.480329 C -132.27558 -94.53555 -134.26919 -96.591325 -136.26355 -98.646546 L -142.13294 -98.646546 z M -142.13294 -83.884907 L -142.13252 -71.554573 L -136.26397 -71.554573 C -134.26994 -73.609601 -132.27526 -75.663663 -130.28123 -77.718691 C -132.27558 -79.773913 -134.26919 -81.829686 -136.26355 -83.884907 L -142.13294 -83.884907 z M -142.13294 -69.123269 L -142.13294 -56.790835 L -136.26355 -56.790835 C -134.26946 -58.845917 -132.27531 -60.901969 -130.28123 -62.957052 C -132.27558 -65.012274 -134.26919 -67.068048 -136.26355 -69.123269 L -142.13294 -69.123269 z M -142.13294 -54.359111 L -142.13294 -42.029197 L -136.26355 -42.029197 C -134.26919 -44.08456 -132.27558 -46.14005 -130.28123 -48.195413 C -132.27526 -50.2503 -134.26952 -52.304225 -136.26355 -54.359111 L -142.13294 -54.359111 z M -142.13294 -39.597473 L -142.13294 -27.267558 L -136.26355 -27.267558 C -134.26919 -29.322921 -132.27558 -31.378411 -130.28123 -33.433775 C -132.27526 -35.488661 -134.26952 -37.542588 -136.26355 -39.597473 L -142.13294 -39.597473 z M -142.13294 -24.835834 L -142.13252 -12.50382 L -136.26397 -12.50382 C -134.26988 -14.558903 -132.27531 -16.614533 -130.28123 -18.669617 C -132.27558 -20.724839 -134.26919 -22.780614 -136.26355 -24.835834 L -142.13294 -24.835834 z M -142.13294 -10.072516 L -142.13252 2.2578182 L -136.26397 2.2578182 C -134.26994 0.20279112 -132.27526 -1.851271 -130.28123 -3.9062994 C -132.27558 -5.9615211 -134.26919 -8.0172952 -136.26355 -10.072516 L -142.13294 -10.072516 z M -142.13252 4.6895421 L -142.13252 17.019457 L -136.26397 17.019457 C -134.26994 14.96443 -132.27526 12.910367 -130.28123 10.855339 C -132.27558 8.8001172 -134.26961 6.744763 -136.26397 4.6895421 L -142.13252 4.6895421 z M -142.13252 19.451181 L -142.13294 31.783195 L -136.26355 31.783195 C -134.26946 29.728112 -132.27531 27.672062 -130.28123 25.616978 C -132.27558 23.561757 -134.26961 21.506402 -136.26397 19.451181 L -142.13252 19.451181 z M -142.13294 34.214918 L -142.13294 46.544833 L -136.26355 46.544833 C -134.26919 44.48947 -132.27558 42.433979 -130.28123 40.378616 C -132.27526 38.32373 -134.26952 36.269803 -136.26355 34.214918 L -142.13294 34.214918 z M -142.13294 48.976557 L -142.13294 61.306472 L -136.26355 61.306472 C -134.26919 59.251109 -132.27558 57.195619 -130.28123 55.140255 C -132.27526 53.085369 -134.26952 51.031443 -136.26355 48.976557 L -142.13294 48.976557 z M -142.13252 63.740295 L -142.13252 76.070209 L -136.26397 76.070209 C -134.26988 74.015127 -132.27531 71.959496 -130.28123 69.904412 C -132.27467 67.850131 -134.268 65.794576 -136.26145 63.740295 L -142.13252 63.740295 z " />
      <path
         id="path87"
         style="display:inline;opacity:0.4;mix-blend-mode:normal;fill:#ffffff;stroke-width:1.14897;stroke-miterlimit:12"
         d="m -238.38559,-275.67288 c -0.43554,0.19987 -0.87134,0.39958 -1.30689,0.59945 -2.0402,0.94819 -4.07476,1.90804 -6.09782,2.89233 -0.53711,1.6901 -1.07416,3.38039 -1.61127,5.07049 0.57732,0.19935 1.16103,0.38198 1.74201,0.57154 0.48554,-1.52789 0.97121,-3.05584 1.45676,-4.5837 2.02306,-0.98429 4.05762,-1.94414 6.09782,-2.89233 0.14584,-0.0669 0.29182,-0.1336 0.4377,-0.2005 -0.24175,-0.48426 -0.46159,-0.98083 -0.71831,-1.45728 z m 13.92163,6.04666 c -0.44531,0.13932 -0.89052,0.27873 -1.33583,0.41806 -2.05479,0.66138 -4.16357,1.39529 -6.21306,2.16008 -0.67838,1.65951 -1.35663,3.31899 -2.03502,4.9785 0.568,0.26142 1.11075,0.57415 1.67587,0.84181 0.64888,-1.58734 1.29777,-3.17463 1.94665,-4.76198 2.04949,-0.76479 4.15827,-1.49869 6.21306,-2.16007 0.0798,-0.025 0.1595,-0.05 0.23926,-0.0749 -0.17172,-0.46432 -0.3145,-0.93889 -0.49093,-1.40147 z m 199.57438,1.3379 c -0.30143,0.57552 -0.6029,1.15099 -0.90433,1.72651 -0.88789,1.86795 -1.73489,3.75508 -2.54507,5.65806 0.66667,1.63217 1.33321,3.26469 1.99988,4.89685 0.32416,-0.15093 0.67015,-0.24382 0.99839,-0.38395 -0.47027,-1.15153 -0.94046,-2.30314 -1.41077,-3.45457 0.81018,-1.90298 1.65718,-3.7901 2.54507,-5.65805 0.30143,-0.57552 0.6029,-1.15099 0.90433,-1.72651 1.98414,0.91453 3.95905,1.84831 5.92884,2.79311 -0.03878,-0.12177 -0.07749,-0.24359 -0.11627,-0.36535 -2.45004,-1.19748 -4.92359,-2.34464 -7.40007,-3.4861 z m -13.92576,6.04304 c -0.17123,0.45247 -0.34243,0.90506 -0.51366,1.35754 -0.78309,2.13725 -1.52812,4.2888 -2.22106,6.45697 0.83138,1.56055 1.66304,3.12082 2.49442,4.68137 0.26414,-0.14495 0.54219,-0.26284 0.80719,-0.40617 -0.57138,-1.07228 -1.14281,-2.14451 -1.71411,-3.21686 0.69294,-2.16817 1.43797,-4.31972 2.22106,-6.45697 0.17123,-0.45248 0.34243,-0.90507 0.51366,-1.35754 2.08919,0.64698 4.15141,1.37581 6.20789,2.11977 -0.08171,-0.19997 -0.16325,-0.4 -0.24495,-0.59997 -2.49261,-0.92864 -5.00943,-1.79124 -7.55044,-2.57814 z m -172.30111,0.078 c -0.45573,0.0957 -0.91111,0.19162 -1.36684,0.28732 -2.15656,0.48208 -4.3071,0.99723 -6.45335,1.57406 -0.83919,1.57552 -1.67848,3.15081 -2.51768,4.72633 0.54989,0.31627 1.06973,0.68194 1.61592,1.00459 0.82968,-1.55763 1.65959,-3.11495 2.48926,-4.67259 2.14625,-0.57683 4.29679,-1.09198 6.45335,-1.57406 0.0353,-0.007 0.0706,-0.0148 0.10594,-0.0222 -0.11745,-0.44044 -0.20381,-0.88139 -0.3266,-1.32343 z m 158.95309,7.38301 c -0.12695,0.46289 -0.25391,0.92565 -0.38086,1.38854 -0.57011,2.18475 -1.10836,4.37776 -1.58181,6.58565 l 2.96312,4.42195 c 0.20211,-0.13575 0.41739,-0.2507 0.62012,-0.38551 l -1.99574,-2.97811 c 0.47345,-2.20789 1.0117,-4.40089 1.58181,-6.58564 0.12695,-0.46289 0.25391,-0.92566 0.38086,-1.38855 2.23086,0.4672 4.4449,1.01079 6.65179,1.58078 l -0.41497,-0.77979 c -2.58995,-0.69323 -5.20022,-1.30977 -7.82432,-1.85932 z m -146.32182,1.24953 c -0.472,0.0534 -0.94445,0.10682 -1.41645,0.1602 -2.21096,0.27555 -4.41775,0.58704 -6.6151,0.95705 -0.99283,1.48177 -1.98579,2.96395 -2.97863,4.44572 2.99985,2.10529 5.93932,4.29815 8.77931,6.6151 0.0234,-0.0282 0.0469,-0.0565 0.0703,-0.0847 -2.37668,-1.88198 -4.78065,-3.73054 -7.26209,-5.47201 0.99284,-1.48177 1.9858,-2.96396 2.97863,-4.44573 2.19735,-0.37001 4.40414,-0.6815 6.6151,-0.95705 0.002,-2.7e-4 0.005,-7.6e-4 0.007,-0.001 -0.0674,-0.40464 -0.10774,-0.8134 -0.17828,-1.2175 z m 133.69106,7.38095 c -0.071,0.41276 -0.14194,0.82592 -0.2129,1.23868 -0.37298,2.26643 -0.7031,4.53985 -0.96687,6.82181 1.13737,1.37305 2.27482,2.74608 3.41219,4.11913 0.14141,-0.11556 0.28958,-0.22254 0.4315,-0.33745 -0.75202,-0.90782 -1.50419,-1.81552 -2.25619,-2.72335 0.26377,-2.28196 0.59389,-4.55537 0.96687,-6.8218 0.07096,-0.41276 0.1419,-0.82593 0.2129,-1.23869 2.36335,0.26443 4.71684,0.60779 7.0652,0.98237 -0.20647,-0.30786 -0.41314,-0.6156 -0.6196,-0.92346 -2.66746,-0.44242 -5.34597,-0.81659 -8.0331,-1.11724 z m -121.93571,2.36161 c -0.47135,0.008 -0.9425,0.0168 -1.41386,0.0253 -2.24738,0.0668 -4.49055,0.17312 -6.71846,0.32815 -1.14127,1.3776 -2.2828,2.75496 -3.42408,4.13256 2.80924,2.37022 5.52392,4.85411 8.14628,7.43004 0.068,-0.0677 0.1361,-0.13538 0.20412,-0.20309 -2.20317,-2.11208 -4.43066,-4.20085 -6.7629,-6.16861 1.14128,-1.3776 2.28281,-2.75497 3.42408,-4.13257 2.18747,-0.15221 4.39007,-0.25494 6.5965,-0.32194 -0.0244,-0.36177 -0.0243,-0.72898 -0.0517,-1.08986 z m 110.17984,7.3825 c -0.0345,0.47006 -0.06884,0.9402 -0.10335,1.41025 -0.13365,2.23557 -0.23953,4.47406 -0.27957,6.72258 1.26497,1.26041 2.53015,2.52127 3.79512,3.78169 0.0883,-0.0867 0.18588,-0.16359 0.2744,-0.25012 -0.82736,-0.82445 -1.65473,-1.64892 -2.48202,-2.47323 0.04004,-2.24852 0.14592,-4.48702 0.27957,-6.72259 0.03455,-0.47005 0.06885,-0.94019 0.10335,-1.41025 2.47707,0.0392 4.94129,0.16066 7.398,0.31988 -0.28345,-0.34216 -0.56712,-0.68412 -0.85059,-1.0263 -2.69909,-0.18699 -5.4111,-0.30886 -8.13491,-0.35191 z m -107.55467,3.00033 c -1.08528,1.08204 -2.17033,2.16377 -3.25562,3.2458 -0.1221,0.27511 -0.84085,0.47111 -0.34261,0.73845 2.49474,2.57543 4.91182,5.22698 7.21558,7.97471 0.12026,-0.0992 0.24044,-0.19847 0.3607,-0.29766 -1.94318,-2.25387 -3.91822,-4.48118 -5.98878,-6.61871 -0.49824,-0.26734 0.22051,-0.46335 0.34261,-0.73846 1.08529,-1.08203 2.17034,-2.16376 3.25562,-3.2458 2.1814,0.057 4.33342,0.18587 6.49779,0.33073 0.008,-0.32598 0.0393,-0.64887 0.0455,-0.97513 -2.72121,-0.2154 -5.40115,-0.34256 -8.13077,-0.41393 z m 104.93364,7.38095 c -0.64063,0.0182 -1.28121,0.0361 -1.92184,0.0543 -2.08447,0.0874 -4.13163,0.19366 -6.20893,0.35966 0.0514,2.72147 0.18544,5.43417 0.37672,8.13491 1.37761,1.13672 2.75549,2.27341 4.13309,3.41013 0.04157,-0.0496 0.08599,-0.0967 0.12764,-0.14625 -0.89109,-0.7352 -1.78222,-1.47034 -2.67323,-2.20555 -0.19128,-2.70074 -0.32532,-5.41343 -0.37672,-8.1349 2.0773,-0.166 4.12446,-0.27227 6.20893,-0.35967 0.47009,-0.0134 0.94017,-0.0265 1.41025,-0.0398 -0.35869,-0.35756 -0.71725,-0.71525 -1.07591,-1.0728 z m -95.16576,3.61683 c -1.3763,1.13542 -2.75265,2.27109 -4.12895,3.40651 2.3165,2.86197 4.51594,5.81745 6.61923,8.83977 0.17574,-0.11933 0.35137,-0.23879 0.5271,-0.35812 -1.79262,-2.51951 -3.61349,-5.0199 -5.55883,-7.42332 1.3763,-1.13542 2.75265,-2.27109 4.12895,-3.40651 2.12797,0.25145 4.245,0.58344 6.36033,0.92449 0.0326,-0.27101 0.083,-0.53963 0.11421,-0.8108 -2.67639,-0.46281 -5.36472,-0.85329 -8.06204,-1.17202 z m 85.39633,7.38094 c -0.63737,0.0768 -1.27465,0.15366 -1.91202,0.23048 -2.05471,0.28236 -4.10738,0.58364 -6.15053,0.94154 0.31075,2.69649 0.68831,5.38544 1.13688,8.06256 1.47851,1.0039 2.95688,2.0078 4.43539,3.0117 0.0031,-0.004 0.0067,-0.008 0.0098,-0.0129 -0.95256,-0.64682 -1.9051,-1.29364 -2.8577,-1.94045 -0.44857,-2.67712 -0.82613,-5.36607 -1.13688,-8.06256 2.04315,-0.3579 4.09582,-0.65919 6.15053,-0.94155 0.54882,-0.0661 1.0976,-0.13229 1.64641,-0.19843 -0.4406,-0.36351 -0.8813,-0.7269 -1.32189,-1.09038 z m -76.69351,4.48242 c -1.47591,1.00196 -2.95172,2.00407 -4.42763,3.00602 2.03916,3.06457 3.95506,6.2122 5.76967,9.41596 0.23411,-0.12884 0.46818,-0.25771 0.70228,-0.38654 -1.56292,-2.69705 -3.15819,-5.37676 -4.88445,-7.97109 1.47591,-1.00195 2.95172,-2.00406 4.42763,-3.00602 2.07265,0.44278 4.12687,0.96569 6.17896,1.49552 0.0456,-0.2137 0.10682,-0.42378 0.15141,-0.63769 -2.6212,-0.71085 -5.26195,-1.34877 -7.91787,-1.91616 z m 67.99017,7.38094 c -0.62695,0.13607 -1.25356,0.27218 -1.88051,0.40825 -2.02398,0.46705 -4.0457,0.96283 -6.03529,1.50378 0.55401,2.65941 1.18371,5.30269 1.88258,7.92768 0.51226,0.28194 1.02455,0.56397 1.53685,0.84594 -0.67653,-2.5556 -1.29276,-5.12714 -1.83193,-7.71529 1.98959,-0.54095 4.01131,-1.03673 6.03529,-1.50378 0.61989,-0.13454 1.23945,-0.26906 1.85932,-0.40359 -0.52211,-0.35432 -1.04422,-0.70863 -1.56631,-1.06299 z m -60.42164,5.23844 c -1.24545,0.6849 -2.49076,1.36976 -3.7362,2.05466 -0.22178,0.28747 -0.8788,0.29553 -0.91364,0.58187 1.74071,3.21917 3.34818,6.50853 4.84311,9.84953 0.29303,-0.1276 0.586,-0.25531 0.87902,-0.38292 -1.30468,-2.83891 -2.64862,-5.66013 -4.13463,-8.40827 0.0348,-0.28634 0.69186,-0.29441 0.91364,-0.58188 1.24544,-0.6849 2.49075,-1.36975 3.7362,-2.05465 2.00826,0.63041 3.99062,1.33873 5.9707,2.05258 0.0487,-0.15412 0.10834,-0.30461 0.15658,-0.45888 -2.54679,-0.9547 -5.11991,-1.83748 -7.71478,-2.65204 z m 52.85156,7.37681 -1.834,0.58601 c -1.97165,0.65457 -3.93332,1.33891 -5.87871,2.06809 0.80863,2.59131 1.69309,5.15877 2.6324,7.70548 0.48018,0.20938 0.96051,0.41851 1.44074,0.62787 -0.881,-2.40667 -1.72217,-4.82844 -2.48564,-7.27501 1.94539,-0.72918 3.90706,-1.41352 5.87871,-2.06809 l 1.834,-0.58601 c 1.00827,0.55543 2.01639,1.11109 3.02462,1.66656 0.0255,-0.0474 0.0458,-0.0974 0.0713,-0.14469 -1.5612,-0.86002 -3.12223,-1.72019 -4.68343,-2.58021 z m -46.50001,5.88646 c -1.63216,0.71159 -3.26417,1.42317 -4.89634,2.13476 1.44201,3.39105 2.76389,6.83255 3.97444,10.31255 0.34794,-0.1175 0.69591,-0.23494 1.04386,-0.35244 -1.07138,-2.99465 -2.18605,-5.97462 -3.4308,-8.90178 1.63217,-0.71159 3.26418,-1.42316 4.89634,-2.13475 1.91742,0.8036 3.80561,1.67441 5.69113,2.55023 0.0404,-0.0976 0.0874,-0.19225 0.12764,-0.2899 -2.43891,-1.1713 -4.91102,-2.27289 -7.40627,-3.31867 z m 40.15053,7.38302 c -0.58984,0.2487 -1.18008,0.4975 -1.76992,0.7462 -1.89274,0.82537 -3.77409,1.67613 -5.63635,2.56832 1.02532,2.50214 2.12098,4.975 3.2675,7.42384 0.43908,0.14811 0.87814,0.29632 1.31723,0.44442 -1.04386,-2.25001 -2.0567,-4.51471 -2.99723,-6.80992 1.86226,-0.8922 3.74361,-1.74295 5.63635,-2.56832 0.58984,-0.2487 1.18008,-0.49751 1.76992,-0.74621 1.06266,0.46287 2.12529,0.92571 3.18791,1.38855 0.0437,-0.10339 0.077,-0.2109 0.12093,-0.3142 -1.63216,-0.71094 -3.26418,-1.42175 -4.89634,-2.13268 z m -34.99425,6.36705 c -1.68685,0.56966 -3.37382,1.13928 -5.06067,1.70894 1.14884,3.51534 2.19135,7.0655 3.11505,10.6469 0.39667,-0.0999 0.79341,-0.19979 1.19011,-0.29973 -0.83214,-3.11756 -1.71536,-6.22189 -2.71766,-9.28884 1.68685,-0.56966 3.37382,-1.13928 5.06067,-1.70894 1.84018,0.96466 3.63605,1.97676 5.43533,2.99672 0.0244,-0.0476 0.0521,-0.0934 0.0765,-0.14108 -2.34408,-1.36607 -4.6958,-2.654 -7.09931,-3.91397 z m 29.8359,7.38094 c -0.56706,0.29883 -1.13412,0.59776 -1.70118,0.89659 -1.79277,0.97995 -3.61979,1.97867 -5.39451,3.01945 1.22986,2.40707 2.51728,4.7844 3.85558,7.1329 0.39174,0.0986 0.78339,0.19749 1.17512,0.29611 -1.18547,-2.103 -2.34479,-4.22088 -3.4432,-6.37067 1.77472,-1.04079 3.60174,-2.0395 5.39451,-3.01946 0.56706,-0.29882 1.13412,-0.59775 1.70118,-0.89658 1.11196,0.37537 2.22384,0.75067 3.33572,1.12603 0.0509,-0.15712 0.0877,-0.31845 0.13901,-0.47543 -1.6875,-0.56966 -3.37473,-1.13927 -5.06223,-1.70894 z m -25.81444,6.75205 c -1.73112,0.43489 -3.46236,0.86993 -5.19348,1.30483 0.87488,3.61544 1.63997,7.25607 2.30683,10.91561 0.43839,-0.077 0.87678,-0.154 1.31517,-0.23099 -0.6087,-3.22328 -1.26296,-6.43788 -2.0345,-9.62629 1.73112,-0.4349 3.46236,-0.86993 5.19348,-1.30483 1.75391,1.09932 3.47305,2.25251 5.19038,3.40806 0.002,-0.004 0.005,-0.008 0.007,-0.0114 -2.22935,-1.53365 -4.49234,-3.01795 -6.78511,-4.45502 z m 21.7966,7.37888 c -0.54102,0.34114 -1.08162,0.68204 -1.62264,1.02319 -1.73096,1.13001 -3.46524,2.25372 -5.16402,3.43183 1.41095,2.31215 2.87977,4.58832 4.38836,6.83783 0.34124,0.06 0.68246,0.1203 1.02371,0.18035 -1.30569,-1.96673 -2.59482,-3.94463 -3.82457,-5.95985 1.69878,-1.17811 3.43306,-2.30181 5.16402,-3.43183 0.54102,-0.34114 1.08162,-0.68205 1.62264,-1.02319 1.15789,0.29132 2.31577,0.58297 3.47369,0.87436 0.0494,-0.20744 0.0822,-0.41852 0.13229,-0.6258 -1.73112,-0.43554 -3.46236,-0.87135 -5.19348,-1.30689 z m -18.84949,7.04091 -5.28702,0.92966 c 0.6164,3.68875 1.13381,7.39325 1.55649,11.1094 0.47265,-0.0507 0.94534,-0.10126 1.41801,-0.15193 -0.39507,-3.30901 -0.83775,-6.61223 -1.387,-9.89914 l 5.12424,-0.90124 c -0.47889,-0.35705 -0.94312,-0.7334 -1.42472,-1.08675 z m 15.90032,7.38094 c -0.51693,0.38086 -1.03388,0.76171 -1.55081,1.14257 -1.65271,1.24705 -3.29441,2.50766 -4.91753,3.79305 1.57866,2.20841 3.20396,4.38304 4.86327,6.53138 0.28956,0.031 0.57912,0.062 0.86868,0.093 -1.40526,-1.83758 -2.79912,-3.68406 -4.14445,-5.56607 1.62312,-1.28539 3.26482,-2.54599 4.91753,-3.79305 0.51693,-0.38086 1.03388,-0.7617 1.55081,-1.14256 1.19772,0.2106 2.39537,0.4214 3.59306,0.632 0.0411,-0.25274 0.0644,-0.50808 0.10645,-0.76068 -1.76237,-0.30989 -3.52464,-0.61976 -5.28701,-0.92966 z m -13.95471,7.24039 c -1.77995,0.19075 -3.56029,0.3813 -5.34024,0.57206 0.37274,3.73609 0.64876,7.48126 0.85163,11.23032 0.50074,-0.0229 1.00149,-0.0458 1.50223,-0.0687 -0.19593,-3.37207 -0.43103,-6.74211 -0.76636,-10.10326 1.66954,-0.17892 3.33942,-0.3575 5.009,-0.5364 -0.42254,-0.36033 -0.83142,-0.73636 -1.25626,-1.09399 z m 12.00961,7.38094 c -0.49284,0.41602 -0.98563,0.83197 -1.47847,1.24799 -1.57917,1.36432 -3.12043,2.70732 -4.66793,4.10311 1.71941,2.09834 3.47704,4.1652 5.26531,6.2053 0.23909,0.011 0.47818,0.0221 0.71727,0.0331 -1.48414,-1.71048 -2.95979,-3.42844 -4.39508,-5.18005 1.5475,-1.39578 3.08876,-2.73878 4.66793,-4.10311 0.49284,-0.41601 0.98563,-0.83197 1.47847,-1.24798 1.22854,0.13166 2.45705,0.2632 3.68556,0.3948 0.0279,-0.29324 0.0378,-0.58793 0.0667,-0.88108 -1.77995,-0.19075 -3.55978,-0.3813 -5.33972,-0.57206 z m -10.98435,7.35149 c -1.17448,0.0534 -2.34881,0.10681 -3.52329,0.1602 -0.61263,0.0285 -1.22551,0.0572 -1.83814,0.0858 0.15249,3.77463 0.22113,7.5524 0.21705,11.33006 h 1.56734 c -0.009,-3.42478 -0.0586,-6.84968 -0.19689,-10.27172 0.61263,-0.0286 1.22551,-0.0573 1.83814,-0.0858 1.01186,-0.046 2.02364,-0.092 3.03547,-0.13797 -0.37032,-0.35636 -0.72703,-0.72662 -1.09968,-1.08056 z m 9.95909,7.38095 c -0.46485,0.44466 -0.92991,0.8891 -1.39475,1.33377 -1.48097,1.44109 -2.95161,2.89323 -4.40438,4.36304 1.82863,1.99546 3.71882,3.933278 5.59966,5.879224 h 0.57929 c -1.54311,-1.594966 -3.09203,-3.184674 -4.59145,-4.820894 1.45277,-1.46981 2.92341,-2.92195 4.40438,-4.36304 0.46484,-0.44466 0.9299,-0.88911 1.39475,-1.33377 1.25169,0.0575 2.50323,0.11466 3.75481,0.17208 0.012,-0.32801 0.005,-0.65647 0.0186,-0.98443 -1.78711,-0.082 -3.5738,-0.16395 -5.36091,-0.24598 z m -15.10192,7.37061 v 11.587919 h 1.5875 V -97.19906 h 4.78317 l -1.02681,-1.05833 z m 14.90038,7.380941 c -1.87369,1.930989 -3.74715,3.861939 -5.62085,5.792928 l 5.62292,5.794995 h 0.56068 l -4.5961,-4.736662 c 1.8737,-1.930989 3.74716,-3.861939 5.62085,-5.792928 h 3.75636 v -1.058333 c -1.78125,-1e-6 -3.56261,0 -5.34386,0 z m -14.90038,7.383012 v 11.585856 h 1.5875 v -10.527523 h 4.78523 c -0.34223,-0.352811 -0.68458,-0.70552 -1.02681,-1.058333 z m 14.89883,7.380944 c -1.87305,1.930339 -3.74625,3.860523 -5.6193,5.790861 l 5.62292,5.794995 h 0.56068 l -4.5961,-4.736661 c 1.87305,-1.930339 3.74625,-3.860523 5.6193,-5.790861 h 3.75791 v -1.058334 z m -14.89883,7.380945 v 11.585856 h 1.5875 v -10.527523 h 4.78317 l -1.02681,-1.058333 z m 14.90038,7.380428 c -1.87369,1.93099 -3.74715,3.862455 -5.62085,5.793445 1.8737,1.930989 3.74716,3.861938 5.62085,5.792928 h 0.56069 c -1.53134,-1.578214 -3.06264,-3.156372 -4.59404,-4.734595 1.8737,-1.93099 3.74716,-3.862455 5.62085,-5.793445 h 3.75636 v -1.058333 z m -14.90038,7.380945 v 11.587923 h 1.5875 v -10.52959 h 4.78317 l -1.02681,-1.058333 z m 14.90038,7.380945 c -1.87369,1.930989 -3.74715,3.861938 -5.62085,5.792928 1.87435,1.93164 3.74857,3.863354 5.62292,5.794995 h 0.56068 c -1.53202,-1.578902 -3.06404,-3.157779 -4.5961,-4.736662 1.8737,-1.93099 3.74716,-3.861939 5.62085,-5.792928 h 3.75636 v -1.058333 z m -14.90038,7.383011 v 11.585856 h 1.5875 v -10.527522 h 4.78523 c -0.34229,-0.352751 -0.68452,-0.705574 -1.02681,-1.058334 z m 14.89883,7.380945 c -1.87305,1.930338 -3.74625,3.860523 -5.6193,5.790861 1.87435,1.931641 3.74857,3.863355 5.62292,5.794995 h 0.56068 c -1.53202,-1.578901 -3.06404,-3.157778 -4.5961,-4.736662 1.87305,-1.930338 3.74625,-3.860523 5.6193,-5.790861 h 3.75791 v -1.058333 z m -14.89883,7.380428 v 11.586373 h 1.5875 v -10.52804 h 4.78317 l -1.02681,-1.058333 z m 14.90038,7.380945 c -1.87369,1.930989 -3.74715,3.861939 -5.62085,5.792928 1.87435,1.931641 3.74857,3.863355 5.62292,5.794995 h 0.56068 c -1.53202,-1.578901 -3.06404,-3.157778 -4.5961,-4.736662 1.8737,-1.930989 3.74716,-3.861939 5.62085,-5.792928 h 3.75636 v -1.058333 z m -14.90038,7.380945 V 1.904967 h 1.5875 v -10.52959 h 4.78317 l -1.02681,-1.058333 z m 14.90038,7.380944 c -1.87369,1.93099 -3.74715,3.861938 -5.62085,5.792928 l 5.62292,5.794995 h 0.56068 l -4.5961,-4.736661 c 1.8737,-1.93099 3.74716,-3.861938 5.62085,-5.792928 h 3.75636 V -2.302012 Z M -141.76099,5.081 v 11.585856 h 1.5875 V 6.139373 h 4.78523 c -0.34223,-0.352811 -0.68458,-0.70552 -1.02681,-1.058333 z m 14.90038,7.380428 c -1.87369,1.93099 -3.74715,3.861938 -5.62085,5.792928 1.8737,1.930989 3.74716,3.862455 5.62085,5.793445 h 0.56069 c -1.53135,-1.578356 -3.06262,-3.156873 -4.59404,-4.735112 1.8737,-1.93099 3.74716,-3.861938 5.62085,-5.792928 h 3.75636 v -1.058293 z m -14.90038,7.380945 V 31.43034 h 1.5875 V 20.900746 h 4.78317 c -0.3423,-0.352748 -0.68453,-0.705583 -1.02681,-1.058333 z m 14.90038,7.380947 c -1.87369,1.93099 -3.74715,3.86194 -5.62085,5.79293 l 5.62292,5.79499 h 0.56068 l -4.5961,-4.73666 c 1.8737,-1.93099 3.74716,-3.86194 5.62085,-5.79293 h 3.75636 v -1.05833 z m -14.90038,7.38094 v 11.58793 h 1.5875 V 35.66264 h 4.78317 c -0.3423,-0.35275 -0.68453,-0.70559 -1.02681,-1.05834 z m 14.90038,7.38095 c -1.87369,1.93099 -3.74715,3.86193 -5.62085,5.79292 1.87435,1.93164 3.74857,3.86336 5.62292,5.795 h 0.56068 c -1.53202,-1.5789 -3.06404,-3.15778 -4.5961,-4.73666 1.8737,-1.93099 3.74716,-3.86194 5.62085,-5.79293 h 3.75636 v -1.05829 z m -14.90038,7.38249 v 11.58586 h 1.5875 V 50.42608 h 4.78317 l -1.02681,-1.05834 z m 14.90038,7.38095 c -1.87369,1.93099 -3.74715,3.86193 -5.62085,5.79292 l 5.62085,5.79293 c 0.18689,0 0.37379,0 0.56069,0 l -4.59404,-4.73459 c 1.8737,-1.93099 3.74716,-3.86194 5.62085,-5.79293 h 3.75636 v -1.05833 z m -14.90038,7.38094 v 11.58796 h 1.5875 V 65.18796 h 4.78317 l -1.02681,-1.05833 z m 14.90038,7.38095 c -1.87369,1.93099 -3.74715,3.86193 -5.62085,5.79292 l 5.62292,5.795 h 0.56068 l -4.5961,-4.73666 c 1.8737,-1.93099 3.74716,-3.86194 5.62085,-5.79293 h 3.75636 v -1.05833 z" />
      <path
         id="path88"
         style="display:inline;mix-blend-mode:normal;fill:#5f8dd3;stroke-width:1.14897;stroke-miterlimit:12;filter:url(#filter90)"
         d="m -239.17773,-273.97266 c -1.87558,0.87869 -3.74826,1.76316 -5.61329,2.66407 -0.36263,1.14127 -0.72526,2.28255 -1.08789,3.42382 2.77037,0.93427 5.5899,1.74082 8.28125,2.89258 0.44597,-1.09245 0.89193,-2.18489 1.33789,-3.27734 -0.8507,-1.95662 -1.70527,-3.91351 -2.67578,-5.81445 -0.0807,0.0371 -0.16146,0.0742 -0.24218,0.11132 z m 13.75781,5.91993 c -1.90203,0.62019 -3.79359,1.27333 -5.67188,1.96289 -0.46484,1.13737 -0.92968,2.27474 -1.39453,3.41211 2.62316,1.22873 5.21564,2.52395 7.76563,3.89843 0.55859,-1.04948 1.11718,-2.09896 1.67578,-3.14843 -0.6749,-2.07134 -1.38731,-4.13855 -2.1582,-6.19336 -0.0723,0.0228 -0.14454,0.0456 -0.2168,0.0684 z m 200.728514,2.00781 c -0.816053,1.70032 -1.574415,3.42749 -2.328125,5.15625 0.445312,1.09114 0.890625,2.18229 1.335937,3.27344 2.691555,-1.15663 5.517672,-1.94867 8.28711,-2.89063 -0.363933,-1.14323 -0.727865,-2.28646 -1.091797,-3.42969 -1.947072,-0.93555 -3.900008,-1.85835 -5.861328,-2.76367 -0.113933,0.2181 -0.227865,0.4362 -0.341797,0.6543 z m -187.527344,5.35156 c -1.969,0.4558 -3.93938,0.90718 -5.89258,1.42774 -0.57422,1.07682 -1.14844,2.15364 -1.72265,3.23046 2.50291,1.45883 4.96452,2.9878 7.38086,4.58594 0.66666,-0.99544 1.33333,-1.99088 2,-2.98633 -0.4697,-2.11204 -0.97658,-4.21584 -1.54102,-6.30468 -0.0749,0.0156 -0.14974,0.0312 -0.22461,0.0469 z m 174.033203,0.21289 c -0.700713,1.9725 -1.407876,3.94275 -2.048828,5.93555 0.559245,1.04948 1.11849,2.09896 1.677734,3.14844 2.549264,-1.37596 5.141868,-2.67066 7.763672,-3.90235 -0.464844,-1.13672 -0.929687,-2.27344 -1.394531,-3.41015 -1.951916,-0.71876 -3.918624,-1.39751 -5.900391,-2.0293 -0.03255,0.0859 -0.0651,0.17187 -0.09766,0.25781 z m -13.179687,7.38281 c -0.509083,2.00891 -1.021507,4.01737 -1.460938,6.04297 0.667318,0.9961 1.334636,1.99219 2.001953,2.98828 2.414474,-1.60037 4.877706,-3.12621 7.378907,-4.58789 -0.572917,-1.07682 -1.145834,-2.15364 -1.71875,-3.23047 -2.032827,-0.5329 -4.077225,-1.02163 -6.13086,-1.46875 -0.02344,0.0853 -0.04687,0.17058 -0.07031,0.25586 z m -148.402346,0.92969 c -1.95152,0.26844 -4.03916,0.53073 -6.0332,0.86719 -0.67643,1.00846 -1.35287,2.01693 -2.0293,3.02539 2.35976,1.67678 4.67748,3.41299 6.93555,5.22461 0.77279,-0.93164 1.54557,-1.86328 2.31836,-2.79492 -0.25968,-2.1236 -0.56565,-4.24165 -0.91992,-6.35157 -0.0905,0.01 -0.18099,0.0195 -0.27149,0.0293 z m 135.958986,7.45899 c -0.336523,2.05034 -0.644074,4.17056 -0.892578,6.24414 0.771485,0.93164 1.542969,1.86328 2.314453,2.79492 2.260333,-1.80926 4.580479,-3.54239 6.939453,-5.2207 -0.676432,-1.00912 -1.352864,-2.01823 -2.029296,-3.02735 -2.09881,-0.33769 -4.203271,-0.64114 -6.314454,-0.89062 l -0.01738,0.0985 z m -124.291016,2.15625 c -2.05426,0.079 -4.10903,0.15296 -6.16016,0.29492 -0.77669,0.93685 -1.55338,1.8737 -2.33007,2.81054 2.20362,1.88955 4.34911,3.84706 6.43359,5.86719 0.86003,-0.85612 1.72005,-1.71224 2.58008,-2.56836 -0.0564,-2.13766 -0.14286,-4.27494 -0.29297,-6.4082 -0.0768,0.001 -0.15365,0.003 -0.23047,0.004 z m 112.658204,7.6289 c -0.106631,2.05059 -0.220597,4.10112 -0.263672,6.1543 0.860026,0.85742 1.720052,1.71484 2.580078,2.57226 2.08747,-2.01829 4.231016,-3.9792 6.435547,-5.86914 -0.775391,-0.93619 -1.550781,-1.87239 -2.326172,-2.80859 -2.133938,-0.13788 -4.270143,-0.2458 -6.408203,-0.29102 -0.0059,0.0807 -0.01172,0.16146 -0.01758,0.24219 z m -110.775394,5.33789 c 1.28743,1.21548 2.43368,2.58836 3.64439,3.886 0.75208,0.84495 1.50177,1.69011 2.23257,2.55346 0.93554,-0.77149 1.87109,-1.54297 2.80664,-2.31446 0.14244,-2.13197 0.25869,-4.26607 0.31054,-6.40234 -2.12932,-0.15535 -4.26271,-0.24709 -6.39648,-0.31445 -0.86589,0.86393 -1.73177,1.72786 -2.59766,2.59179 z m 105.181644,4.82813 c -1.673542,0.0835 -3.348237,0.15072 -5.019532,0.27343 0.05389,2.13617 0.168899,4.27035 0.310547,6.40235 0.935547,0.77213 1.871094,1.54427 2.806641,2.31641 1.88471,-2.21342 3.841043,-4.36488 5.857422,-6.45899 -0.860677,-0.85742 -1.721354,-1.71484 -2.582031,-2.57227 -0.457683,0.013 -0.915365,0.026 -1.373047,0.0391 z m -95.740234,5.93164 c 1.81482,2.27516 3.55117,4.61177 5.23242,6.98633 1.00456,-0.68295 2.00912,-1.36589 3.01367,-2.04883 0.34214,-2.10782 0.65038,-4.22143 0.9043,-6.3418 -2.10804,-0.34666 -4.2233,-0.64827 -6.34375,-0.9082 -0.93555,0.77083 -1.87109,1.54166 -2.80664,2.3125 z m 86.095702,5.22851 c -1.658977,0.24315 -3.321028,0.4676 -4.974609,0.7461 0.256511,2.11939 0.562446,4.23254 0.904297,6.33984 1.005859,0.6836 2.011719,1.36719 3.017578,2.05078 1.676677,-2.37721 3.417721,-4.70749 5.228516,-6.98437 -0.935547,-0.77214 -1.871094,-1.54427 -2.806641,-2.31641 -0.45638,0.0547 -0.91276,0.10938 -1.369141,0.16406 z m -77.710932,6.39258 c 1.5891,2.43575 3.10686,4.917 4.55468,7.43946 1.06511,-0.58594 2.13021,-1.17188 3.19532,-1.75782 0.5376,-2.06585 1.04069,-4.14099 1.48828,-6.22851 -2.06438,-0.54802 -4.14326,-1.04072 -6.23047,-1.49414 -1.00261,0.68033 -2.00521,1.36067 -3.00781,2.04101 z m 69.148432,5.62891 c -1.629532,0.39228 -3.262082,0.77162 -4.882812,1.19922 0.44843,2.08947 0.95155,4.16696 1.49219,6.23437 1.0638,0.58529 2.1276,1.17057 3.191404,1.75586 1.442848,-2.52464 2.967126,-5.00197 4.558594,-7.43555 -1.005209,-0.68229 -2.010417,-1.36458 -3.015626,-2.04687 -0.447916,0.0977 -0.895833,0.19531 -1.34375,0.29297 z m -61.884762,6.71875 c 1.38902,2.55523 2.64675,5.18224 3.86328,7.82422 1.10416,-0.48047 2.20833,-0.96094 3.3125,-1.44141 0.73327,-2.00665 1.43828,-4.02392 2.08398,-6.06055 -2.00797,-0.73638 -4.03227,-1.42771 -6.07031,-2.07617 -1.06315,0.58464 -2.1263,1.16927 -3.18945,1.75391 z m 54.47265,6.04297 c -1.58725,0.54546 -3.17974,1.07705 -4.75586,1.65429 0.64907,2.03668 1.34947,4.05689 2.08399,6.06446 1.10351,0.48112 2.20703,0.96224 3.31055,1.44336 1.20335,-2.64871 2.49081,-5.25777 3.85351,-7.82813 -1.06055,-0.58398 -2.12109,-1.16797 -3.18164,-1.75195 -0.43685,0.13932 -0.8737,0.27864 -1.31055,0.41797 z m -48.375,6.91992 c 1.11873,2.68467 2.15942,5.40071 3.13477,8.14062 1.14388,-0.38606 2.28776,-0.77213 3.43164,-1.1582 0.89756,-1.9172 1.75532,-3.86038 2.58008,-5.83008 -1.93728,-0.91459 -3.85431,-1.76264 -5.82813,-2.59961 -1.10612,0.48243 -2.21224,0.96485 -3.31836,1.44727 z m 42.19141,6.46875 c -1.52209,0.68254 -3.05223,1.34783 -4.56055,2.06055 0.82264,1.96192 1.68357,3.9076 2.58203,5.83593 1.14453,0.38607 2.28907,0.77214 3.4336,1.15821 0.97474,-2.74129 2.01422,-5.45908 3.13867,-8.14258 -1.10807,-0.48242 -2.21615,-0.96485 -3.32422,-1.44727 -0.42318,0.17839 -0.84635,0.35677 -1.26953,0.53516 z m -37.25977,6.98828 c 0.88579,2.78177 1.7116,5.58245 2.46094,8.4043 1.17253,-0.29493 2.34505,-0.58985 3.51758,-0.88477 1.04099,-1.84862 2.06411,-3.71296 3.04297,-5.60937 -1.844,-1.05626 -3.70853,-2.07649 -5.58789,-3.06836 -1.14453,0.38606 -2.28907,0.77213 -3.4336,1.1582 z m 32.26172,6.86523 c -1.45852,0.8027 -2.92148,1.59839 -4.36523,2.42774 0.97697,1.88919 2.00127,3.7532 3.04297,5.60742 1.17317,0.29492 2.34635,0.58984 3.51953,0.88477 0.75101,-2.82042 1.57056,-5.62223 2.45898,-8.40235 -1.14713,-0.38672 -2.29427,-0.77343 -3.4414,-1.16015 -0.40495,0.21419 -0.8099,0.42838 -1.21485,0.64257 z m -28.43945,6.98243 c 0.67546,2.85891 1.28126,5.73375 1.82227,8.62109 1.19596,-0.21029 2.39192,-0.42057 3.58789,-0.63086 1.18725,-1.78704 2.34019,-3.55316 3.46679,-5.37695 -1.77151,-1.20424 -3.53633,-2.35558 -5.34961,-3.49805 -1.17578,0.29492 -2.35156,0.58984 -3.52734,0.88477 z m 24.58008,7.22461 c -1.39799,0.9167 -2.80098,1.82586 -4.1836,2.76562 1.1151,1.80478 2.28058,3.59955 3.46485,5.37891 1.19661,0.21093 2.39323,0.42187 3.58984,0.63281 0.54431,-2.88674 1.14948,-5.76157 1.82227,-8.62109 -1.17709,-0.29688 -2.35417,-0.59375 -3.53125,-0.89063 -0.38737,0.24479 -0.77474,0.48958 -1.16211,0.73438 z m -21.79297,6.92382 c 0.47189,2.91678 0.88562,5.84254 1.23047,8.77735 1.20898,-0.12956 2.41797,-0.25912 3.62695,-0.38867 1.29516,-1.70151 2.59332,-3.40106 3.83984,-5.13868 -1.67422,-1.32851 -3.39069,-2.60215 -5.10156,-3.88281 -1.19857,0.21094 -2.39713,0.42188 -3.5957,0.63281 z m 18.98633,7.56836 c -1.33191,1.01503 -2.66364,2.02991 -3.98047,3.06446 1.2457,1.73723 2.54314,3.43635 3.83594,5.13867 1.20963,0.1289 2.41927,0.25781 3.6289,0.38672 0.34749,-2.93423 0.75935,-5.85986 1.22656,-8.77735 -1.19856,-0.21028 -2.39713,-0.42057 -3.5957,-0.63086 -0.37174,0.27279 -0.74349,0.54558 -1.11523,0.81836 z m -17.16016,6.78711 c 0.27559,2.95515 0.50232,5.91392 0.67383,8.87696 1.21614,-0.056 2.43229,-0.11198 3.64844,-0.16797 1.39808,-1.61868 2.80145,-3.23305 4.1582,-4.88672 -1.59129,-1.4333 -3.2233,-2.82007 -4.85156,-4.21094 -1.20964,0.12956 -2.41927,0.25912 -3.62891,0.38867 z m 15.34766,7.89063 c -1.2645,1.10014 -2.53002,2.19893 -3.7793,3.3164 1.35553,1.6523 2.75894,3.26423 4.1543,4.88282 1.21679,0.056 2.43359,0.11198 3.65039,0.16797 0.16753,-2.96394 0.40042,-5.92296 0.67383,-8.87891 -1.21094,-0.12956 -2.42188,-0.25912 -3.63282,-0.38867 -0.35547,0.30013 -0.71093,0.60026 -1.0664,0.90039 z m -13.75196,6.56054 c -0.51842,-0.0526 -0.82715,0.0253 -0.63709,0.63095 0.0971,2.78404 0.14088,5.56973 0.15077,8.35538 1.20638,0 2.41276,0 3.61914,0 1.47918,-1.54051 2.97458,-3.06583 4.42382,-4.63476 -1.50556,-1.5164 -3.03624,-3.00686 -4.57617,-4.48828 -0.99349,0.0456 -1.98698,0.0911 -2.98047,0.13671 z m 12.86329,8.20704 c -1.19364,1.17024 -2.38554,2.34224 -3.56641,3.525386 1.45345,1.566237 2.94573,3.095693 4.42773,4.634766 1.20573,0 2.41146,0 3.61719,0 0.006,-2.985714 0.0667,-5.971182 0.16992,-8.955082 -1.21354,-0.056 -2.42708,-0.11198 -3.64062,-0.16796 -0.33594,0.32096 -0.67188,0.64192 -1.00781,0.96289 z m -13.34376,15.542964 c 1.20443,0 2.40886,0 3.61329,0 1.48046,-1.52539 2.96093,-3.050781 4.4414,-4.576172 -1.48047,-1.527343 -2.96093,-3.054687 -4.4414,-4.582031 -1.20443,0 -2.40886,0 -3.61329,0 10e-6,3.052735 0,6.105469 0,9.158203 z m 9.75977,2.800782 c 1.48112,1.527343 2.96224,3.054687 4.44336,4.582031 1.20378,0 2.40755,0 3.61133,0 0,-3.053386 0,-6.106771 0,-9.160156 -1.20443,0 -2.40886,0 -3.61328,0 -1.48047,1.526041 -2.96094,3.052083 -4.44141,4.578125 z m -9.75977,11.960937 c 1.20443,0 2.40886,0 3.61329,0 1.48047,-1.526042 2.96093,-3.052083 4.4414,-4.578125 -1.47982,-1.526042 -2.95963,-3.052083 -4.43945,-4.578125 -1.20508,0 -2.41016,0 -3.61524,0 0,3.052083 10e-6,6.104167 0,9.15625 z m 9.75977,2.800781 c 1.48112,1.526693 2.96224,3.053386 4.44336,4.580078 1.20378,0 2.40755,10e-7 3.61133,0 0,-3.052083 0,-6.104166 0,-9.15625 -1.20508,10e-7 -2.41016,0 -3.61524,0 -1.47981,1.525391 -2.95963,3.050782 -4.43945,4.576172 z m -9.75781,11.960938 c 1.20443,0 2.40885,0 3.61328,0 1.48047,-1.526042 2.96094,-3.052083 4.44141,-4.578125 -1.48047,-1.526042 -2.96094,-3.052083 -4.44141,-4.578125 -1.20443,0 -2.40885,0 -3.61328,0 0,3.052083 0,6.104167 0,9.15625 z m 9.75781,2.802734 c 1.48047,1.526042 2.96094,3.052084 4.44141,4.578125 1.20442,0 2.40885,0 3.61328,0 0,-3.052083 0,-6.104166 0,-9.15625 -1.20443,0 -2.40886,0 -3.61328,0 -1.48047,1.526042 -2.96094,3.052084 -4.44141,4.578125 z m -9.75977,11.960938 c 1.20443,0 2.40886,0 3.61329,0 1.48112,-1.526693 2.96224,-3.053386 4.44336,-4.580078 -1.48047,-1.526042 -2.96094,-3.052084 -4.44141,-4.578125 -1.20443,0 -2.40885,0 -3.61328,0 -6.5e-4,3.052734 -0.001,6.105468 -0.002,9.158203 z m 9.76172,2.800781 c 1.48112,1.526693 2.96224,3.053385 4.44336,4.580078 1.20313,0 2.40625,0 3.60938,0 0,-3.052734 0,-6.105469 0,-9.158203 -1.20443,0 -2.40886,0 -3.61328,0 -1.47982,1.526042 -2.95964,3.052083 -4.43946,4.578125 z m -9.76172,11.960937 c 1.20443,0 2.40886,10e-7 3.61329,0 1.48046,-1.526692 2.96093,-3.053385 4.4414,-4.580078 -1.47982,-1.52539 -2.95963,-3.050781 -4.43945,-4.576172 -1.20508,10e-7 -2.41016,10e-7 -3.61524,0 0,3.052084 10e-6,6.104167 0,9.15625 z m 9.75977,2.802735 c 1.48177,1.526042 2.96354,3.052083 4.44531,4.578125 1.20313,0 2.40625,0 3.60938,0 0,-3.052083 0,-6.104167 0,-9.15625 -1.20508,0 -2.41016,0 -3.61524,0 -1.47981,1.526042 -2.95963,3.052083 -4.43945,4.578125 z m -9.75977,11.958984 c 1.20508,0 2.41016,0 3.61524,0 1.47982,-1.526041 2.95963,-3.052083 4.43945,-4.578125 -1.48047,-1.526041 -2.96093,-3.052083 -4.4414,-4.578125 -1.20443,0 -2.40886,0 -3.61329,0 10e-6,3.052084 0,6.104167 0,9.15625 z m 9.75977,2.802735 c 1.48112,1.5266923 2.96224,3.053385 4.44336,4.5800778 1.20378,-10e-8 2.40755,0 3.61133,0 0,-3.0527344 0,-6.1054688 0,-9.1582028 -1.20443,0 -2.40886,0 -3.61328,0 -1.48047,1.526041 -2.96094,3.052083 -4.44141,4.578125 z m -9.75781,11.96093712 c 1.20443,0 2.40885,10e-9 3.61328,0 1.48047,-1.52604166 2.96094,-3.05208332 4.44141,-4.57812502 -1.48112,-1.5266927 -2.96224,-3.0533854 -4.44336,-4.5800781 -1.20443,0 -2.40886,0 -3.61329,0 6.6e-4,3.0527344 0.001,6.1054687 0.002,9.15820312 z m 9.75781,2.80078128 c 1.48112,1.5266927 2.96224,3.0533854 4.44336,4.5800781 1.20378,0 2.40755,0 3.61133,0 0,-3.0520833 0,-6.1041667 0,-9.15625 -1.20443,0 -2.40886,0 -3.61328,0 -1.48047,1.52539063 -2.96094,3.0507813 -4.44141,4.5761719 z m -9.75781,11.9609376 c 1.20443,0 2.40885,0 3.61328,0 1.48047,-1.526042 2.96094,-3.052083 4.44141,-4.578125 -1.48047,-1.5260418 -2.96094,-3.0520835 -4.44141,-4.5781251 -1.20443,0 -2.40885,0 -3.61328,0 0,3.0520833 0,6.1041671 0,9.1562501 z m 9.75781,2.802734 c 1.48047,1.526042 2.96094,3.052084 4.44141,4.578125 1.20442,0 2.40885,0 3.61328,0 0,-3.052083 0,-6.104166 0,-9.15625 -1.20443,0 -2.40886,0 -3.61328,0 -1.48047,1.526042 -2.96094,3.052084 -4.44141,4.578125 z m -9.75977,11.960938 c 1.20443,0 2.40886,0 3.61329,0 1.48112,-1.526693 2.96224,-3.053386 4.44336,-4.580078 -1.48047,-1.526042 -2.96094,-3.052084 -4.44141,-4.578125 -1.20443,0 -2.40885,0 -3.61328,0 -6.5e-4,3.052734 -0.001,6.105468 -0.002,9.158203 z m 9.75977,2.802734 c 1.48177,1.526042 2.96354,3.052083 4.44531,4.578125 1.20313,0 2.40625,0 3.60938,0 0,-3.052734 0,-6.105469 0,-9.158203 -1.20443,0 -2.40886,0 -3.61328,0 -1.48047,1.526693 -2.96094,3.053385 -4.44141,4.580078 z m -9.75977,11.958984 c 1.20443,10e-7 2.40886,0 3.61329,0 1.48046,-1.526692 2.96093,-3.053385 4.4414,-4.580078 -1.48047,-1.52539 -2.96094,-3.050781 -4.4414,-4.576172 -1.20443,0 -2.40886,0 -3.61329,0 0,3.052084 10e-6,6.104167 0,9.15625 z m 9.75977,2.802735 c 1.48177,1.526042 2.96354,3.052083 4.44531,4.578125 1.20313,0 2.40625,0 3.60938,0 0,-3.052735 0,-6.105469 0,-9.158203 -1.20443,0 -2.40886,0 -3.61328,0 -1.48047,1.526692 -2.96094,3.053385 -4.44141,4.580078 z m -9.75977,11.958984 c 1.20508,6.51e-4 2.41016,0.0013 3.61524,0.002 1.48047,-1.526041 2.96094,-3.052083 4.44141,-4.578125 -1.48112,-1.526692 -2.96224,-3.053385 -4.44336,-4.580078 -1.20443,0 -2.40886,0 -3.61329,0 0,3.052084 10e-6,6.104167 0,9.15625 z m 9.75977,2.802735 c 1.48047,1.526692 2.96094,3.053385 4.44141,4.580078 1.20442,0 2.40885,0 3.61328,0 0,-3.052084 0,-6.104167 0,-9.15625 -1.20443,0 -2.40886,0 -3.61328,0 -1.48047,1.52539 -2.96094,3.050781 -4.44141,4.576172 z m -9.75781,11.960937 c 1.20443,0 2.40885,0 3.61328,0 1.48047,-1.526042 2.96094,-3.052083 4.44141,-4.578125 -1.48112,-1.526693 -2.96224,-3.053385 -4.44336,-4.580078 -1.20443,0 -2.40886,0 -3.61329,0 6.6e-4,3.052734 0.001,6.105469 0.002,9.158203 z m 9.75781,2.800781 c 1.48112,1.526693 2.96224,3.053386 4.44336,4.580078 1.20378,10e-7 2.40755,0 3.61133,0 0,-3.052734 0,-6.105468 0,-9.158203 -1.20443,0 -2.40886,0 -3.61328,0 -1.48047,1.526042 -2.96094,3.052084 -4.44141,4.578125 z" />
    </g>
    <path
       id="rect12"
       style="display:inline;fill:url(#linearGradient32);stroke-width:1.05833;stroke-linecap:round;stroke-linejoin:round;stroke-miterlimit:1;paint-order:markers stroke fill"
       d="m 70.604853,41.6874 9.8668,13.697409 13.69741,9.866808 c 2.30139,1.500314 2.63883,4.738263 0.69623,6.680861 l -5.19795,5.197954 -7.8905,2.50542 -15.78098,15.780988 -18.163175,-7.39307 -7.393057,-18.163182 15.780974,-15.780975 2.505424,-7.890488 5.197954,-5.197956 c 1.9426,-1.942598 5.18055,-1.605163 6.68087,0.696231 z"
       sodipodi:nodetypes="cccccccccccsc" />
    <path
       id="rect14"
       style="fill:url(#linearGradient36);fill-opacity:0.996078;stroke:url(#linearGradient38);stroke-width:0.529167;stroke-linecap:round;stroke-linejoin:round;stroke-miterlimit:1;stroke-dasharray:none;stroke-opacity:1;paint-order:markers stroke fill"
       d="m 64.014732,59.036959 c -1.491665,-1.491666 -3.8934,-1.491666 -5.385065,10e-7 L 43.452087,74.214536 26.644538,84.53214 3.598926,107.57774 c -2.3792771,2.37928 -2.5762891,6.4159 -0.394157,8.97714 2.421418,2.84208 5.467426,6.32775 7.61824,8.47858 2.150926,2.15093 5.636956,5.19728 8.479108,7.61877 2.561013,2.18192 6.597334,1.98458 8.976607,-0.39469 L 51.324331,109.21193 61.641939,92.404383 76.819507,77.226802 c 1.49167,-1.491655 1.49167,-3.893397 1e-5,-5.385062 z m -0.770157,6.143655 7.431282,7.431283 c 1.13725,1.137247 1.13724,2.968349 0,4.105586 l -6.155749,6.155752 c -1.137244,1.137243 -2.96835,1.137239 -4.105589,-10e-7 l -7.43128,-7.431284 c -1.137243,-1.137238 -1.137247,-2.968343 -3e-6,-4.105585 l 6.155752,-6.155752 c 1.13724,-1.137239 2.968345,-1.137241 4.105587,1e-6 z m -39.954133,35.844856 11.540546,11.54056 c 1.13724,1.13724 1.13724,2.96835 7e-6,4.10558 l -7.431289,7.43129 c -1.13724,1.13724 -2.96835,1.13725 -4.105589,10e-6 L 11.75357,112.56234 c -1.13724,-1.13724 -1.137245,-2.96834 -5e-6,-4.10558 l 7.431289,-7.43129 c 1.137238,-1.137227 2.968349,-1.137237 4.105588,0 z" />
    <path
       id="path49"
       style="opacity:0.4;fill:#d35f5f;fill-opacity:0.996078;stroke:none;stroke-width:0.529167;stroke-linecap:round;stroke-linejoin:round;stroke-miterlimit:1;stroke-dasharray:none;stroke-opacity:1;paint-order:markers stroke fill;filter:url(#filter51)"
       d="m 61.077025,59.52377 c -1.594852,0.305211 -2.369446,1.927139 -3.557374,2.866093 -4.411578,4.395469 -8.778958,8.838316 -13.241454,13.180782 -5.616157,3.474221 -11.297758,6.854618 -16.850037,10.424197 -7.721274,7.736651 -15.49385,15.424578 -23.153673,23.219478 -1.60461,2.10514 -1.184111,5.35197 0.790133,7.07848 3.86032,4.5604 7.929773,8.97083 12.534391,12.79418 1.361206,1.12056 2.585286,2.51652 4.233829,3.21195 2.180392,0.77486 4.731338,-0.12775 6.10435,-1.95174 7.375388,-7.37604 14.750776,-14.75207 22.126163,-22.12811 3.478307,-5.64744 6.910395,-11.325927 10.447266,-16.935547 5.168172,-5.206249 10.425008,-10.332764 15.518828,-15.607612 0.72092,-1.149299 0.0626,-2.640218 -0.97674,-3.344266 C 70.851987,68.1699 66.733014,63.915938 62.460649,59.832623 62.047936,59.583518 61.556173,59.47763 61.077025,59.52377 Z m 0.158203,3.21875 c 2.158338,-0.05109 3.592816,1.782534 4.972252,3.169244 2.081158,2.151662 4.338087,4.146076 6.258667,6.443982 1.27604,2.000331 0.50859,4.807508 -1.35503,6.164647 -2.130762,2.056979 -4.093749,4.303685 -6.386479,6.182006 -2.001172,1.235485 -4.767743,0.461226 -6.117084,-1.384578 -2.452648,-2.505887 -5.04394,-4.886896 -7.361624,-7.517048 -1.371284,-2.008013 -0.596192,-4.904341 1.312451,-6.281615 2.101034,-2.040378 4.053969,-4.247491 6.305922,-6.12241 0.708971,-0.430801 1.541701,-0.658276 2.370925,-0.654228 z M 21.274291,98.588223 c 2.159548,-0.0587 3.595881,1.778467 4.978516,3.160157 3.409448,3.45359 6.927852,6.80856 10.237339,10.35649 1.412655,1.9704 0.747922,4.90894 -1.162039,6.30829 -2.525163,2.47349 -4.928802,5.08208 -7.575723,7.424 -1.994272,1.35839 -4.875021,0.61411 -6.256185,-1.27713 -3.800784,-3.84412 -7.709314,-7.59011 -11.410762,-11.52728 -1.419253,-1.96796 -0.752364,-4.91322 1.158549,-6.31236 2.529647,-2.46997 4.927537,-5.08665 7.57965,-7.423917 0.722107,-0.46993 1.591842,-0.70587 2.450655,-0.70825 z" />
    <rect
       style="fill:url(#linearGradient34);fill-opacity:0.996078;stroke:#777e83;stroke-width:0.529167;stroke-linecap:round;stroke-linejoin:round;stroke-miterlimit:1;stroke-dasharray:none;stroke-opacity:1;paint-order:markers stroke fill"
       id="rect13"
       width="13.934502"
       height="18.898113"
       x="89.097778"
       y="-9.9548998"
       ry="2.4794075"
       transform="rotate(45)" />
    <path
       id="path39"
       style="-inkscape-font-specification:'Adwaita Sans, Normal';opacity:0.2;paint-order:markers stroke fill"
       d="M 14.00793,4.7774861 3.8943359,32.173746 H 9.3477497 L 11.890747,25.08219 h 9.064563 l 2.47065,7.091556 h 5.523177 L 18.947164,4.7774861 Z m 15.220777,0 V 32.173746 h 5.16971 v -9.925492 h 4.630725 l 5.334041,9.925492 h 5.978446 L 44.377136,21.254 c 0.03737,-0.01699 0.08174,-0.02184 0.118855,-0.03927 1.480784,-0.696095 2.682037,-1.726027 3.525367,-3.046842 l 0.0021,-0.0021 c 0.864672,-1.337315 1.28726,-2.922993 1.28726,-4.661731 0,-1.727254 -0.392768,-3.293616 -1.205095,-4.6193561 C 47.309611,7.5560502 46.143067,6.5165828 44.691328,5.8161824 43.241646,5.1113136 41.555276,4.7774861 39.667862,4.7774861 Z m 21.970751,0 V 32.173746 h 5.16971 v -8.92762 l 2.515609,-2.705261 8.318355,11.632881 h 6.216675 L 62.46492,16.86512 73.804796,4.7774861 h -6.943245 l -7.982458,8.5839719 -1.802991,1.93735 -0.706934,0.775663 V 14.64045 4.7774861 Z M 34.398417,9.6092325 h 5.16816 c 1.054185,0 1.894835,0.1819871 2.556433,0.5038455 l 0.0078,0.0041 0.0078,0.0021 c 0.686119,0.320189 1.155975,0.736993 1.498099,1.292944 l 0.0021,0.0057 0.0041,0.0041 c 0.344836,0.546692 0.531233,1.211724 0.531233,2.082043 0,0.861162 -0.183643,1.533402 -0.525549,2.097546 -0.343468,0.566723 -0.814979,0.993117 -1.4981,1.3224 -4.92e-4,2.32e-4 -0.0016,-2.32e-4 -0.0021,0 -0.665183,0.31429 -1.504338,0.49196 -2.548681,0.49196 H 34.398417 Z M 16.468762,12.123291 c 0.05809,0.177145 0.152857,0.47988 0.207222,0.644405 l 0.0016,0.0057 0.0021,0.0041 c 0.441609,1.290854 0.83814,2.441948 1.189591,3.450953 l 1.402499,4.02146 h -5.648751 l 1.439705,-4.011642 v -0.0021 c 0.364721,-1.01443 0.762409,-2.168504 1.193209,-3.460771 l 0.0021,-0.0041 c 0.05622,-0.165793 0.151014,-0.46938 0.21084,-0.648022 z"
       sodipodi:insensitive="true" />
    <path
       id="path40"
       style="-inkscape-font-specification:'Adwaita Sans, Normal';opacity:1;fill:#000000;paint-order:markers stroke fill;filter:url(#filter43)"
       d="m 170.03633,26.228551 -10.11359,27.396261 h 0.7245 l 9.91826,-26.867094 h 4.60334 l -0.19327,-0.529167 z m 15.22078,0 v 27.241748 l 0.0563,0.154513 h 0.47284 V 26.757718 h 10.43915 c 1.88742,0 3.57379,0.333828 5.02347,1.038696 0.72587,0.350201 1.38025,0.785127 1.95285,1.298629 -0.68671,-0.747438 -1.51997,-1.363651 -2.48202,-1.827795 -1.44968,-0.704868 -3.13605,-1.038697 -5.02346,-1.038697 z m 21.97075,0 v 27.396261 h 0.52917 V 26.757718 h 4.64054 v -0.529167 z m 15.66209,0 -7.98245,8.583972 -1.80299,1.93735 -0.17777,0.19482 v 1.11001 l 0.70693,-0.775663 1.80299,-1.93735 7.98246,-8.583972 h 5.91747 l 0.49661,-0.529167 z m -23.43887,6.337598 c 0.0747,0.0957 0.14906,0.191723 0.21394,0.297139 l 0.002,0.0057 0.004,0.0041 c 0.34483,0.546692 0.53123,1.211724 0.53123,2.082043 0,0.861162 -0.18364,1.533403 -0.52555,2.097547 -0.34347,0.566723 -0.81498,0.993117 -1.4981,1.3224 -4.9e-4,2.32e-4 -0.002,-2.32e-4 -0.002,0 -0.66519,0.31429 -1.50434,0.491959 -2.54869,0.491959 h -4.67206 v 0.529167 h 5.20123 c 1.04434,0 1.8835,-0.17767 2.54868,-0.49196 5e-4,-2.32e-4 0.002,2.32e-4 0.002,0 0.68312,-0.329283 1.15463,-0.755677 1.4981,-1.3224 0.3419,-0.564144 0.52555,-1.236384 0.52555,-2.097546 0,-0.870319 -0.1864,-1.535351 -0.53124,-2.082043 l -0.004,-0.0041 -0.002,-0.0057 c -0.1972,-0.320448 -0.44408,-0.590172 -0.7431,-0.826306 z m -26.42475,1.537374 c -0.0498,0.148739 -0.11985,0.369181 -0.1757,0.539502 0.37906,1.106292 0.73772,2.148658 1.04697,3.036507 l 1.4025,4.02146 h -4.92994 l -0.18965,0.529166 h 5.64875 l -1.4025,-4.021459 c -0.35145,-1.009005 -0.74798,-2.160099 -1.18959,-3.450953 l -0.002,-0.0041 -0.002,-0.0057 c -0.0544,-0.164525 -0.14913,-0.46726 -0.20722,-0.644405 z m 42.41602,8.417574 -0.0853,0.09147 7.87446,11.012248 h 0.15089 z m -20.10058,1.707389 5.04982,9.396326 h 0.24494 l -5.04982,-9.396326 z m -18.17357,2.833936 2.28616,6.56239 h 0.34469 l -2.28617,-6.56239 z"
       clip-path="url(#clipPath42)"
       transform="translate(-156.0284,-21.451065)"
       sodipodi:insensitive="true" />
    <path
       style="display:inline;fill:#ff0000;fill-opacity:0.996078;stroke-width:1.05833;stroke-linecap:round;stroke-linejoin:round;stroke-miterlimit:1;paint-order:markers stroke fill"
       d="m 17.829149,-299.22722 v 14.76241 h 7.60005 l 7.16236,-7.38095 -7.16236,-7.38146 z"
       id="path80"
       transform="rotate(-90,25.210354,-291.84601)" />
    <path
       id="path94"
       style="display:inline;mix-blend-mode:normal;fill:#000000;fill-opacity:1;filter:url(#filter95);opacity:0.6"
       d="m 128.23828,-11.458984 c -3.77499,6.8943726 -7.22828,13.9602602 -10.42736,21.1389218 -2.3612,4.9958092 -5.58734,9.5070542 -8.42922,14.2298112 -1.18453,1.901177 -10.881584,13.156788 -12.066114,15.057965 6.472464,-4.032421 21.607814,-16.099291 28.354584,-19.661869 3.86925,-1.619489 10.67071,-4.643664 14.60982,-6.06891 8.01403,-2.817701 13.05288,-5.1787432 21.04618,-8.0279506 -6.71554,-4.5188935 -13.88704,-8.3907866 -20.87354,-12.5017745 -3.66896,-2.1232945 -7.33162,-4.2621589 -10.88232,-6.5802569 z"
       sodipodi:nodetypes="cccccccccc" />
  </g>
</svg>
