<?xml version="1.0" encoding="UTF-8" standalone="no"?>
<!-- Created with Inkscape (http://www.inkscape.org/) -->

<svg
   width="512"
   height="512"
   viewBox="0 0 135.46666 135.46667"
   version="1.1"
   id="svg5"
   inkscape:version="1.3.2 (091e20ef0f, 2023-11-25, custom)"
   sodipodi:docname="blueman-device.svg"
   xmlns:inkscape="http://www.inkscape.org/namespaces/inkscape"
   xmlns:sodipodi="http://sodipodi.sourceforge.net/DTD/sodipodi-0.dtd"
   xmlns:xlink="http://www.w3.org/1999/xlink"
   xmlns="http://www.w3.org/2000/svg"
   xmlns:svg="http://www.w3.org/2000/svg">
  <sodipodi:namedview
     id="namedview7"
     pagecolor="#292929"
     bordercolor="#666666"
     borderopacity="1"
     inkscape:showpageshadow="0"
     inkscape:pageopacity="0"
     inkscape:pagecheckerboard="1"
     inkscape:deskcolor="#1a1a1a"
     inkscape:document-units="px"
     showgrid="false"
     inkscape:zoom="1.4142136"
     inkscape:cx="352.49272"
     inkscape:cy="250.31579"
     inkscape:window-width="3256"
     inkscape:window-height="1080"
     inkscape:window-x="1864"
     inkscape:window-y="0"
     inkscape:window-maximized="1"
     inkscape:current-layer="layer1" />
  <defs
     id="defs2">
    <linearGradient
       id="linearGradient46"
       inkscape:collect="always">
      <stop
         style="stop-color:#000000;stop-opacity:1;"
         offset="0"
         id="stop46" />
      <stop
         style="stop-color:#ffffff;stop-opacity:1;"
         offset="1"
         id="stop47" />
    </linearGradient>
    <linearGradient
       id="linearGradient17"
       inkscape:collect="always">
      <stop
         style="stop-color:#000000;stop-opacity:1;"
         offset="0"
         id="stop17" />
      <stop
         style="stop-color:#000000;stop-opacity:0;"
         offset="1"
         id="stop18" />
    </linearGradient>
    <linearGradient
       id="linearGradient10"
       inkscape:collect="always">
      <stop
         style="stop-color:#ffffff;stop-opacity:0;"
         offset="0"
         id="stop9" />
      <stop
         style="stop-color:#0074ff;stop-opacity:1;"
         offset="1"
         id="stop10" />
    </linearGradient>
    <linearGradient
       id="linearGradient27"
       inkscape:collect="always">
      <stop
         style="stop-color:#ffffff;stop-opacity:1;"
         offset="0"
         id="stop27" />
      <stop
         style="stop-color:#000cff;stop-opacity:0;"
         offset="1"
         id="stop28" />
    </linearGradient>
    <linearGradient
       id="linearGradient11"
       inkscape:collect="always">
      <stop
         style="stop-color:#ffffff;stop-opacity:1;"
         offset="0"
         id="stop12" />
      <stop
         style="stop-color:#000000;stop-opacity:1;"
         offset="1"
         id="stop11" />
    </linearGradient>
    <linearGradient
       id="linearGradient7"
       inkscape:collect="always">
      <stop
         style="stop-color:#000080;stop-opacity:1;"
         offset="0"
         id="stop7" />
      <stop
         style="stop-color:#000080;stop-opacity:0;"
         offset="1"
         id="stop8" />
    </linearGradient>
    <inkscape:path-effect
       effect="fillet_chamfer"
       id="path-effect3"
       is_visible="true"
       lpeversion="1"
       nodesatellites_param="F,0,0,1,0,15,0,1 @ F,0,0,1,0,15,0,1 @ F,0,0,1,0,15,0,1 @ F,0,0,1,0,15,0,1 @ F,0,0,1,0,15,0,1 @ F,0,0,1,0,15,0,1 @ F,0,0,1,0,0,0,1 @ F,0,0,1,0,15,0,1 @ F,0,0,1,0,15,0,1 @ F,0,0,1,0,15,0,1 @ F,0,0,1,0,0,0,1 @ F,0,0,1,0,15,0,1 @ F,0,0,1,0,15,0,1 @ F,0,0,1,0,15,0,1"
       radius="15"
       unit="px"
       method="auto"
       mode="F"
       chamfer_steps="1"
       flexible="false"
       use_knot_distance="true"
       apply_no_radius="true"
       apply_with_radius="true"
       only_selected="false"
       hide_knots="false" />
    <linearGradient
       inkscape:collect="always"
       xlink:href="#linearGradient7"
       id="linearGradient8"
       x1="63.03344"
       y1="13.281919"
       x2="78.871483"
       y2="5.7292552"
       gradientUnits="userSpaceOnUse"
       gradientTransform="translate(-15.113599,-0.32227803)" />
    <clipPath
       clipPathUnits="userSpaceOnUse"
       id="clipPath10">
      <path
         style="color:#000000;fill:#000cff;stroke-width:0.999998;stroke-linecap:round;stroke-linejoin:round;-inkscape-stroke:none;paint-order:markers stroke fill"
         d="m 209.53453,-2.4727489 c -6.07318,2.99940326 -14.87225,2.31591006 -22.72324,-0.1069212 -5.15468,-1.5907222 -11.47698,-1.7153008 -18.8511,1.89929317 -7.4059,3.63017153 -14.97475,9.44946913 -16.71132,17.77296493 -6.03244,28.913749 5.61424,34.873348 8.98738,61.845756 0.65696,5.253223 -0.74478,16.361658 0.82901,24.482296 2.96634,15.30607 10.36448,26.15126 19.02158,26.15126 3.18516,0 7.46653,-10.82019 9.28756,-26.09867 0.97989,-8.221247 2.31914,-16.300217 5.92107,-23.705092 3.61286,-7.427312 9.65508,-7.409759 13.27745,0.04041 3.58995,7.383505 4.92184,15.443435 5.90166,23.664702 1.82089,15.27847 6.10195,26.09865 9.28711,26.09865 3.58929,0 18.94302,-1.56113 19.913,-43.319174 0.34967,-15.053622 4.34564,-24.414151 6.22736,-41.819358 0.88438,-8.180229 3.25054,-21.631983 0.01,-29.194458 -3.34981,-7.8156209 -9.30613,-14.1434597 -16.71239,-17.7736673 -7.37417,-3.6144781 -16.30137,-3.5747435 -23.66513,0.062008 z"
         id="path11" />
    </clipPath>
    <linearGradient
       inkscape:collect="always"
       xlink:href="#linearGradient11"
       id="linearGradient12"
       x1="149.54328"
       y1="62.174401"
       x2="251.5664"
       y2="62.174401"
       gradientUnits="userSpaceOnUse" />
    <filter
       inkscape:collect="always"
       style="color-interpolation-filters:sRGB"
       id="filter24"
       x="-0.035507446"
       y="-0.027070147"
       width="1.0710149"
       height="1.0541403">
      <feGaussianBlur
         inkscape:collect="always"
         stdDeviation="1.556271"
         id="feGaussianBlur24" />
    </filter>
    <filter
       inkscape:collect="always"
       style="color-interpolation-filters:sRGB"
       id="filter25"
       x="-0.098066591"
       y="-0.069167396"
       width="1.1961332"
       height="1.1383348">
      <feGaussianBlur
         inkscape:collect="always"
         stdDeviation="3.5596675"
         id="feGaussianBlur25" />
    </filter>
    <filter
       inkscape:collect="always"
       style="color-interpolation-filters:sRGB"
       id="filter26"
       x="-0.21866807"
       y="-0.17112957"
       width="1.4373361"
       height="1.3422591">
      <feGaussianBlur
         inkscape:collect="always"
         stdDeviation="6.3877413"
         id="feGaussianBlur26" />
    </filter>
    <radialGradient
       inkscape:collect="always"
       xlink:href="#linearGradient27"
       id="radialGradient28"
       cx="32.684471"
       cy="34.15715"
       fx="32.684471"
       fy="34.15715"
       r="51.011623"
       gradientTransform="matrix(1,0,0,1.3212186,-15.134562,-21.757209)"
       gradientUnits="userSpaceOnUse" />
    <filter
       inkscape:collect="always"
       style="color-interpolation-filters:sRGB"
       id="filter28"
       x="-0.47629957"
       y="-0.1079734"
       width="1.9523982"
       height="1.2159468">
      <feGaussianBlur
         inkscape:collect="always"
         stdDeviation="2.0378724"
         id="feGaussianBlur28" />
    </filter>
    <filter
       inkscape:collect="always"
       style="color-interpolation-filters:sRGB"
       id="filter29"
       x="-0.48782655"
       y="-0.14636169"
       width="1.9757375"
       height="1.2927234">
      <feGaussianBlur
         inkscape:collect="always"
         stdDeviation="2.9112543"
         id="feGaussianBlur29" />
    </filter>
    <linearGradient
       inkscape:collect="always"
       xlink:href="#linearGradient10"
       id="linearGradient13"
       gradientUnits="userSpaceOnUse"
       gradientTransform="matrix(0.84374132,0,0,0.84374132,-97.866876,15.295833)"
       x1="227.967"
       y1="22.656084"
       x2="276.4473"
       y2="22.656084" />
    <radialGradient
       inkscape:collect="always"
       xlink:href="#linearGradient17"
       id="radialGradient18"
       cx="211.11078"
       cy="44.259857"
       fx="211.11078"
       fy="44.259857"
       r="5.2916665"
       gradientUnits="userSpaceOnUse" />
    <radialGradient
       inkscape:collect="always"
       xlink:href="#linearGradient17"
       id="radialGradient20"
       cx="200.52744"
       cy="54.843193"
       fx="200.52744"
       fy="54.843193"
       r="5.2916665"
       gradientUnits="userSpaceOnUse" />
    <radialGradient
       inkscape:collect="always"
       xlink:href="#linearGradient17"
       id="radialGradient21"
       cx="211.11078"
       cy="65.426529"
       fx="211.11078"
       fy="65.426529"
       r="5.2916665"
       gradientUnits="userSpaceOnUse" />
    <radialGradient
       inkscape:collect="always"
       xlink:href="#linearGradient17"
       id="radialGradient22"
       cx="221.69412"
       cy="54.843193"
       fx="221.69412"
       fy="54.843193"
       r="5.2916665"
       gradientUnits="userSpaceOnUse" />
    <clipPath
       clipPathUnits="userSpaceOnUse"
       id="clipPath41">
      <path
         style="color:#000000;fill:#333333;stroke-width:0.999998;stroke-linecap:round;-inkscape-stroke:none;paint-order:markers stroke fill"
         d="m 188.32287,14.739669 v 11.023099 h -11.02362 v 9.703802 h 11.02362 v 11.023097 h 9.70328 V 35.46657 h 11.0231 v -9.703802 h -11.0231 V 14.739669 Z"
         id="path42" />
    </clipPath>
    <clipPath
       clipPathUnits="userSpaceOnUse"
       id="clipPath42">
      <path
         style="color:#000000;fill:#333333;stroke-width:0.999998;stroke-linecap:round;-inkscape-stroke:none;paint-order:markers stroke fill"
         d="m 188.32287,14.739669 v 11.023099 h -11.02362 v 9.703802 h 11.02362 v 11.023097 h 9.70328 V 35.46657 h 11.0231 v -9.703802 h -11.0231 V 14.739669 Z"
         id="path43" />
    </clipPath>
    <clipPath
       clipPathUnits="userSpaceOnUse"
       id="clipPath43">
      <path
         style="color:#000000;fill:#333333;stroke-width:0.999998;stroke-linecap:round;-inkscape-stroke:none;paint-order:markers stroke fill"
         d="m 188.32287,14.739669 v 11.023099 h -11.02362 v 9.703802 h 11.02362 v 11.023097 h 9.70328 V 35.46657 h 11.0231 v -9.703802 h -11.0231 V 14.739669 Z"
         id="path44" />
    </clipPath>
    <clipPath
       clipPathUnits="userSpaceOnUse"
       id="clipPath44">
      <path
         style="color:#000000;fill:#333333;stroke-width:0.999997;stroke-linecap:round;-inkscape-stroke:none;paint-order:markers stroke fill"
         d="m 213.24424,27.851877 v 28.135345 h -28.13668 v 24.767972 h 28.13668 v 28.135336 h 24.76664 V 80.755194 h 28.13534 V 55.987222 H 238.01088 V 27.851877 Z"
         id="path45" />
    </clipPath>
    <clipPath
       clipPathUnits="userSpaceOnUse"
       id="clipPath45">
      <path
         style="color:#000000;fill:#333333;stroke-width:0.999998;stroke-linecap:round;-inkscape-stroke:none;paint-order:markers stroke fill"
         d="m 188.32287,14.739669 v 11.023099 h -11.02362 v 9.703802 h 11.02362 v 11.023097 h 9.70328 V 35.46657 h 11.0231 v -9.703802 h -11.0231 V 14.739669 Z"
         id="path46" />
    </clipPath>
    <filter
       inkscape:collect="always"
       style="color-interpolation-filters:sRGB"
       id="filter46"
       x="-0.0043200004"
       y="-0.0043199994"
       width="1.00864"
       height="1.00864">
      <feGaussianBlur
         inkscape:collect="always"
         stdDeviation="0.058102728"
         id="feGaussianBlur46" />
    </filter>
    <linearGradient
       inkscape:collect="always"
       xlink:href="#linearGradient46"
       id="linearGradient47"
       x1="203.33427"
       y1="40.774693"
       x2="181.94801"
       y2="19.38843"
       gradientUnits="userSpaceOnUse" />
    <filter
       inkscape:collect="always"
       style="color-interpolation-filters:sRGB"
       id="filter53"
       x="-0.01728"
       y="-0.01728"
       width="1.03456"
       height="1.03456">
      <feGaussianBlur
         inkscape:collect="always"
         stdDeviation="0.23621999"
         id="feGaussianBlur53" />
    </filter>
    <filter
       inkscape:collect="always"
       style="color-interpolation-filters:sRGB"
       id="filter63"
       x="-0.017280134"
       y="-0.017279865"
       width="1.0345603"
       height="1.0345597">
      <feGaussianBlur
         inkscape:collect="always"
         stdDeviation="0.23622188"
         id="feGaussianBlur63" />
    </filter>
    <linearGradient
       inkscape:collect="always"
       xlink:href="#linearGradient10"
       id="linearGradient64"
       gradientUnits="userSpaceOnUse"
       gradientTransform="matrix(-0.84374132,0,0,0.84374132,233.33354,15.295833)"
       x1="227.967"
       y1="22.656084"
       x2="276.4473"
       y2="22.656084" />
  </defs>
  <g
     inkscape:label="Layer 1"
     inkscape:groupmode="layer"
     id="layer1">
    <path
       id="rect29"
       style="display:inline;opacity:1;fill:#e6e6e6;fill-opacity:1;stroke:none;stroke-width:2.03729;stroke-linecap:round;stroke-linejoin:round;stroke-dasharray:none;stroke-opacity:1;paint-order:markers stroke fill"
       d="m -80.028273,68.21684 25.951609,3.65e-4 16.574156,16.574156 h -18.698635 v 7.252609 h 23.826765 l 3.65e-4,23.82713 h 7.252609 V 97.172465 l 16.5741559,16.574155 3.654e-4,25.95161 7.2522437,-18.699 V 110.74297 92.044335 84.791726 l -23.82713,-3.65e-4 V 68.217205 60.964596 h -25.951245 -10.256259 z m 36.207868,3.65e-4 h 11.446027 v 11.446026 z m 23.827131,23.82713 h 11.4460259 v 11.446025 z"
       transform="rotate(45)"
       inkscape:label="METAL TOOTH" />
    <path
       id="path10"
       style="display:inline;fill:url(#linearGradient13);stroke:none;stroke-width:0.264583;stroke-linecap:round;stroke-linejoin:round;stroke-opacity:1;paint-order:markers stroke fill"
       d="m 96.588554,10.867171 c -0.704852,0.0022 -1.40839,0.05781 -2.110315,0.124264 2.638154,0.261836 5.233217,0.967895 7.632451,2.143888 6.24893,3.06295 11.27436,8.402401 14.10073,14.99675 2.73417,6.380761 0.73806,17.730272 -0.008,24.632255 -1.58769,14.685462 -4.9594,22.583645 -5.25443,35.284982 -0.63693,27.42074 -8.61015,34.27416 -13.548734,35.97607 0.416927,0.36348 0.824652,0.5738 1.212123,0.5738 3.028431,0 15.983001,-1.31695 16.801411,-36.54987 0.29503,-12.701337 3.66674,-20.59952 5.25443,-35.284982 0.74619,-6.901983 2.74229,-18.251494 0.008,-24.632255 -2.82637,-6.594349 -7.85182,-11.9338 -14.10074,-14.99675 -3.11093,-1.524839 -6.5495,-2.278883 -9.986926,-2.268152 z m 13.394396,0 c -0.70486,0.0022 -1.40839,0.05781 -2.11032,0.124264 2.63816,0.261836 5.23321,0.967895 7.63245,2.143888 6.24893,3.06295 11.27437,8.402401 14.10074,14.99675 2.73417,6.380761 0.73805,17.730272 -0.008,24.632255 -1.58768,14.685462 -4.95939,22.583645 -5.25442,35.284982 -0.63694,27.42074 -8.61016,34.27416 -13.54874,35.97607 0.41692,0.36348 0.82464,0.5738 1.21212,0.5738 3.02843,0 15.983,-1.31695 16.80142,-36.54987 0.29503,-12.701337 3.66674,-20.59952 5.25442,-35.284982 0.74618,-6.901983 2.7423,-18.251494 0.008,-24.632255 -2.82637,-6.594349 -7.85182,-11.9338 -14.10074,-14.99675 -3.11094,-1.524839 -6.5495,-2.278883 -9.98693,-2.268152 z" />
    <g
       id="g3"
       style="display:inline;stroke-width:1.18519"
       transform="matrix(0.84374132,0,0,0.84374132,23.356494,10.583761)">
      <path
         id="path1"
         style="display:inline;fill:#000cff;fill-opacity:1;stroke:none;stroke-width:0.313583;stroke-linecap:round;stroke-linejoin:round;stroke-opacity:1;paint-order:markers stroke fill"
         d="M 61.578459,3.0861811 C 55.505277,6.0855844 46.706214,5.4020912 38.855222,2.9792599 33.700545,1.3885377 27.378242,1.263959 20.004122,4.8785531 12.598222,8.5087247 5.029375,14.328022 3.292797,22.651518 c -6.032437,28.913748 5.614246,34.873348 8.987382,61.845757 0.656962,5.253222 -0.744773,16.361655 0.829017,24.482295 2.966336,15.30607 10.364477,26.15126 19.021576,26.15126 3.185161,0 7.466529,-10.82019 9.287562,-26.09867 0.979887,-8.22125 2.319134,-16.300216 5.92107,-23.705093 3.612855,-7.427311 9.655077,-7.409757 13.277447,0.04041 3.589953,7.383505 4.921845,15.443433 5.90166,23.664703 1.820893,15.27847 6.101955,26.09865 9.287114,26.09865 3.589291,0 18.943013,-1.56113 19.912993,-43.319175 0.34967,-15.053622 4.345642,-24.41415 6.227362,-41.819357 0.88438,-8.180228 3.25054,-21.631983 0.01,-29.194458 C 98.606168,12.982219 92.649848,6.6543803 85.243588,3.0241727 77.869418,-0.5903054 68.942217,-0.55057074 61.578459,3.0861811 Z"
         sodipodi:nodetypes="ccssssssssssssssc" />
      <path
         id="path9"
         clip-path="url(#clipPath10)"
         style="color:#000000;display:inline;opacity:0.4;mix-blend-mode:normal;fill:url(#linearGradient12);stroke-width:1.18519;stroke-linecap:round;stroke-linejoin:round;-inkscape-stroke:none;paint-order:markers stroke fill;filter:url(#filter24)"
         transform="translate(-147.96665,5.5615257)"
         d="m 221.35743,-6.8162295 -2.33315,1.698696 c 3.83751,-0.012026 10.01766,2.3131547 13.47532,4.0079316 7.05354,3.4573267 12.74945,9.5002671 15.95303,16.9746739 1.43037,3.339429 1.70728,8.421491 1.41594,13.65033 -0.29139,5.229658 -1.09667,10.600423 -1.54513,14.748453 -1.86242,17.226678 -5.8805,26.634147 -6.23631,41.952994 -0.48048,20.684811 -4.54547,31.169241 -8.63462,36.372971 -4.0891,5.20386 -8.12696,5.39451 -9.69139,5.39451 0.10251,0 -0.48763,-0.18051 -1.23817,-1.25212 -0.75058,-1.07161 -1.61015,-2.80239 -2.42776,-5.02709 -1.63521,-4.44929 -3.14691,-10.8824 -4.04523,-18.42006 -0.98558,-8.267977 -2.32978,-16.516456 -6.05079,-24.169586 -1.96275,-4.036754 -4.83473,-6.484487 -8.06463,-6.494177 -3.22992,-0.0097 -6.10937,2.425745 -8.06824,6.452836 -3.73288,7.67402 -5.08282,15.942338 -6.06836,24.210927 -0.89842,7.53766 -2.41153,13.97077 -4.04678,18.42006 -0.81765,2.2247 -1.67509,3.95548 -2.4257,5.02709 -0.75061,1.07162 -1.34275,1.25212 -1.24023,1.25212 -3.66561,0 -7.23241,-2.3017 -10.35182,-6.66988 -3.11942,-4.36829 -5.66163,-10.71562 -7.1112,-18.19527 -0.74442,-3.841127 -0.79977,-8.57026 -0.72864,-12.990425 0.0711,-4.420153 0.27899,-8.485144 -0.0837,-11.386385 -1.7127,-13.694973 -5.53886,-22.122241 -8.07651,-30.461189 -2.53766,-8.338948 -3.90123,-16.62991 -0.93121,-30.865299 1.57843,-7.5654187 8.66779,-13.1486909 15.85536,-16.6718503 7.03911,-3.4503656 12.85777,-3.2963469 17.68523,-1.8066081 l 7.3082,1.72463698 c -0.75632,-0.41672971 -0.71936,-0.84793694 -0.99718,-1.10394244 -0.57143,-0.52656122 -1.0343,-0.69875744 -2.38005,-1.18947394 -1.92614,-0.3875908 -1.4916,-1.2892546 -2.99775,-2.4641124 -5.48178,-1.691664 -12.30896,-1.7886685 -20.0179,1.9900593 -7.62402,3.7370902 -15.67168,9.7913869 -17.56637,18.8727499 -3.06233,14.677982 -1.61881,23.825631 1.00201,32.437813 2.62078,8.61217 6.30239,16.652365 7.96282,29.929438 0.29413,2.351916 0.13106,6.466117 0.0589,10.943518 -0.072,4.477413 -0.0424,9.365201 0.78703,13.64465 1.51673,7.82616 4.15907,14.55482 7.6445,19.4355 3.48539,4.88081 7.94424,8.0021 12.93564,8.0021 1.69507,0 2.8347,-1.17297 3.83956,-2.60759 1.00488,-1.43462 1.92862,-3.36414 2.80706,-5.75417 1.75688,-4.7803 3.29575,-11.39781 4.21835,-19.13837 0.97422,-8.17372 2.30084,-16.062015 5.77174,-23.197553 1.65392,-3.400129 3.60281,-4.670665 5.20279,-4.665865 1.59992,0.0048 3.55918,1.291818 5.2188,4.705139 3.45875,7.113697 4.77993,14.983906 5.75417,23.158279 0.92251,7.74054 2.46207,14.35807 4.21886,19.13837 0.87841,2.39003 1.79964,4.31955 2.80448,5.75417 1.00485,1.43463 2.14498,2.60759 3.84008,2.60759 2.02476,0 7.4599,-0.59166 12.18737,-6.60787 4.72743,-6.01608 8.82313,-17.19059 9.31261,-38.263296 0.34348,-14.787994 4.31775,-24.102535 6.21874,-41.685827 0.43592,-4.032094 1.25592,-9.478459 1.55856,-14.9102 0.30265,-5.431752 0.14141,-10.856722 -1.66811,-15.0797 -3.49597,-8.1566298 -9.71408,-14.771583 -17.47284,-18.5745765 -3.9158,-1.9193476 -8.22692,-2.8682222 -12.5367,-2.8551229 z"
         sodipodi:nodetypes="ccccssccccsccscsssccsccsccccscccccscccsscssscscsscssscssc" />
      <path
         id="path6"
         style="display:inline;fill:url(#linearGradient8);fill-opacity:1;stroke:none;stroke-width:0.313583;stroke-linecap:round;stroke-linejoin:round;stroke-opacity:1;paint-order:markers stroke fill"
         d="m 64.615775,1.8357239 c -1.036598,0.358267 -2.053825,0.776135 -3.041674,1.264006 -5.178335,2.557458 -12.336491,2.423268 -19.200895,0.83044 4.580605,1.565339 6.897333,3.6404861 8.749336,5.3149211 3.398236,3.072417 7.491486,2.863802 11.2882,2.685124 0.886685,-0.05166 4.305977,-0.666665 6.326614,-2.102352 2.020637,-1.4356867 1.045082,-8.3623274 -4.121581,-7.9921391 z"
         sodipodi:nodetypes="cccszzc" />
      <path
         id="path24"
         style="display:inline;opacity:0.68;mix-blend-mode:normal;fill:#0062f5;fill-opacity:1;stroke:none;stroke-width:0.313583;stroke-linecap:round;stroke-linejoin:round;stroke-opacity:1;paint-order:markers stroke fill;filter:url(#filter25)"
         d="m 42.068558,2.8314077 c -0.53575,0.2291696 0.40595,0.7099228 0.3418,0.1445312 -0.002,-0.1798224 -0.2121,-0.2073214 -0.3418,-0.1445312 z m 35.027347,4.7714841 c -0.329411,4.0788422 -3.080646,7.9274862 -6.982807,9.2919272 -4.87897,2.123532 -10.4162,2.405192 -15.60899,1.477602 -3.72821,-0.816069 -7.13048,-2.809911 -9.84526,-5.467117 -2.83524,-2.244882 -6.45409,-3.1248787 -9.92866,-3.8264932 -2.91558,-0.563831 -5.94263,-0.209619 -8.7174,0.8113705 -4.2511,1.5080517 -8.15813,3.9709857 -11.44251,7.0531157 -2.03054,1.939984 -3.57931,4.426311 -4.10138,7.209951 -0.69846,3.223038 -1.10846,6.494878 -1.33968,9.782992 -0.34689,5.704974 0.31886,11.537905 2.09929,17.034943 2.57128,8.562101 5.91357,17.032607 7.47751,25.919931 1.04672,5.607201 1.35523,11.331051 1.11842,17.025571 -0.11797,5.808068 -0.16281,11.580285 1.52931,17.151565 1.4195,5.12687 3.42655,10.36748 7.25716,14.22886 0.33834,0.26151 0.8199,0.85986 1.13507,0.80928 4.4282,-10.80023 4.09812,-22.73422 7.06563,-33.906633 1.24644,-4.598726 2.88728,-9.148134 5.38984,-13.222033 2.07005,-3.261112 5.24133,-5.992029 9.09623,-6.794991 3.50577,-0.833839 7.30839,0.04073 10.17998,2.193958 3.59865,2.554218 5.72259,6.592509 7.2891,10.611208 3.485396,8.560535 4.44341,17.874781 5.776479,26.908541 0.7856,4.92549 1.762664,9.9013 3.824152,14.41932 3.021634,-1.90921 4.551696,-5.32724 5.8382,-8.52028 2.137309,-5.55609 2.992469,-11.53255 3.566809,-17.4643 0.67615,-8.059179 0.56138,-16.221977 2.102,-24.202829 1.69635,-10.062384 4.1117,-19.993138 5.02751,-30.17609 0.75337,-6.67014 1.77779,-13.327185 0.94405,-20.047065 -0.85953,-4.754473 -3.92168,-8.783244 -7.22857,-12.114806 -3.18644,-3.051788 -7.158305,-5.3872672 -11.51953,-6.2304672 z" />
      <path
         id="path25"
         style="display:inline;opacity:0.6;mix-blend-mode:normal;fill:#66a4ff;fill-opacity:1;stroke:none;stroke-width:0.313583;stroke-linecap:round;stroke-linejoin:round;stroke-opacity:1;paint-order:markers stroke fill;filter:url(#filter26)"
         d="m 42.242391,3.7578125 c -0.810554,0.2279804 0.446354,0.8074475 0.244141,0.087891 -0.05358,-0.076075 -0.15472,-0.1096117 -0.244141,-0.087891 z M 31.101766,18.519531 c -3.976893,0.569103 -7.373172,2.951896 -10.418412,5.421468 -1.516427,1.381195 -2.236116,3.416567 -2.364288,5.424559 -1.054192,6.30825 -1.205367,12.906497 0.703624,19.072742 1.550363,5.45886 3.483311,10.799947 5.065197,16.249591 2.515931,8.384888 4.339518,17.072805 4.218706,25.86598 0.0088,0.669533 0.0043,1.339081 2.51e-4,2.008629 1.512253,-6.209584 3.695701,-12.361392 7.293864,-17.686663 3.115773,-4.557623 7.679605,-8.337351 13.131606,-9.629626 6.270535,-1.611645 13.320228,-0.258864 18.326601,3.919579 5.194281,4.080831 8.414884,10.127384 10.468287,16.294824 0.915608,2.575273 1.647996,5.212925 2.262064,7.875324 0.410954,-6.858981 0.860583,-13.785001 2.29235,-20.495575 2.021802,-10.930567 4.172852,-21.872802 5.099842,-32.940494 0.3476,-3.753297 0.75711,-7.514094 0.21282,-11.281855 -0.71428,-3.582832 -3.290862,-6.517598 -6.075715,-8.692233 -3.617427,4.439694 -9.100378,7.018002 -14.687273,7.876676 -7.998526,1.590915 -16.767897,0.417061 -23.580841,-4.244442 -2.515569,-1.775403 -4.780206,-4.057195 -7.928768,-4.58707 -1.318746,-0.328496 -2.630868,-0.478326 -4.019915,-0.451414 z" />
      <path
         id="path26"
         style="display:inline;opacity:0.8;fill:url(#radialGradient28);stroke:none;stroke-width:0.313583;stroke-linecap:round;stroke-linejoin:round;stroke-opacity:1;paint-order:markers stroke fill"
         d="m 73.407361,0.33595901 c -3.80364,0.011874 -7.60181,0.82449899 -11.08615,2.41070509 0.7513,-0.340059 1.51765,-0.642407 2.29495,-0.911055 5.16667,-0.370188 6.14184,6.556592 4.1212,7.992277 -2.02063,1.4356849 -5.43955,2.0505369 -6.32623,2.1021969 -3.79671,0.178678 -7.88996,0.387307 -11.2882,-2.6851069 -1.852,-1.674434 -4.16873,-3.749584 -8.74934,-5.314921 0.81759,0.189715 1.63927,0.357081 2.46135,0.503328 -2.01415,-0.357533 -4.02612,-0.851365 -5.97948,-1.454175 -5.15467,-1.59072 -11.47693,-1.7154811 -18.85104,1.899109 -7.4059,3.630169 -14.97507,9.4495879 -16.71165,17.7730749 -6.03242,28.913719 5.61443,34.873459 8.98757,61.845833 0.65696,5.25323 -0.7449,16.361605 0.82889,24.482235 2.96634,15.30605 10.36449,26.15138 19.02158,26.15138 3.18515,0 7.46677,-10.82021 9.2878,-26.09867 0.97989,-8.22124 2.31916,-16.300155 5.92109,-23.705015 3.61285,-7.42731 9.65486,-7.40985 13.27722,0.04031 3.58995,7.38349 4.92215,15.443445 5.90197,23.664705 1.82089,15.27845 6.10161,26.09867 9.28677,26.09867 3.58929,0 18.943017,-1.56132 19.912997,-43.319325 0.34967,-15.05361 4.345802,-24.413967 6.227522,-41.819156 0.88438,-8.18022 3.25036,-21.632133 0.01,-29.1946 C 98.606378,12.982146 92.650278,6.6543711 85.244018,3.0241671 81.556941,1.21693 77.481581,0.32324101 73.407541,0.33595901 Z m -11.0877,2.41122209 c -0.2472,0.112557 -0.49715,0.218547 -0.74104,0.338998 -3.03389,1.498367 -6.74823,2.077234 -10.68462,1.979724 3.93407,0.100935 7.64782,-0.468525 10.68049,-1.966289 0.24661,-0.121797 0.49505,-0.2392 0.74517,-0.352433 z m -17.44338,1.693954 c 0.99349,0.175812 1.98651,0.315654 2.97398,0.421162 -0.98718,-0.10476 -1.98085,-0.245805 -2.97398,-0.421162 z m 3.07578,0.430981 c 0.98149,0.102381 1.95543,0.167392 2.91714,0.192753 -0.96137,-0.024503 -1.93605,-0.09114 -2.91714,-0.192753 z" />
      <path
         style="display:inline;opacity:0.4;mix-blend-mode:overlay;fill:none;stroke:#000000;stroke-width:1.66199;stroke-linecap:round;stroke-linejoin:miter;stroke-dasharray:none;stroke-opacity:1;filter:url(#filter28)"
         d="m 46.783891,14.739829 c 10.885003,2.15499 8.765508,15.981951 11.988306,18.685263 0.615202,4.019256 -10.42836,2.85147 -4.122546,5.738283 2.319096,2.258757 -5.478418,4.034017 -0.533676,6.085516 5.256493,0.556306 5.954516,6.059787 1.683846,8.548777 -0.421554,2.141333 1.49392,3.405449 -1.475241,4.810638 -3.520379,2.388184 1.38433,6.223125 -1.725753,9.125026"
         id="path28"
         sodipodi:nodetypes="ccccccc" />
      <path
         style="opacity:0.4;mix-blend-mode:overlay;fill:none;stroke:#000000;stroke-width:2.41459;stroke-linecap:round;stroke-linejoin:miter;stroke-dasharray:none;stroke-opacity:1;filter:url(#filter29)"
         d="m 70.113097,16.894819 c -3.676519,2.088847 -6.907965,6.034168 -4.731205,9.859735 -2.876123,2.689547 -5.456092,6.591164 -5.778459,9.41034 -5.101786,3.268234 1.923787,10.359339 -4.239146,13.279105 -1.717259,5.810989 -4.110001,12.221665 1.249283,17.043648 0.563361,1.923344 3.724937,4.442691 2.267778,6.393855"
         id="path29" />
    </g>
    <path
       id="path62"
       style="color:#000000;display:inline;mix-blend-mode:normal;fill:#000000;stroke-width:1.18519;stroke-linecap:round;-inkscape-stroke:none;paint-order:markers stroke fill;filter:url(#filter63)"
       d="m 77.710509,17.932877 c -3.20848,0 -5.82032,2.611833 -5.82032,5.820316 0,3.208484 2.61184,5.822384 5.82032,5.822385 3.20848,0 5.82032,-2.613901 5.82032,-5.822385 0,-3.208484 -2.61184,-5.820317 -5.82032,-5.820316 z m -10.58385,10.584367 c -3.20848,0 -5.82032,2.611834 -5.82032,5.820317 0,3.208483 2.61184,5.820316 5.82032,5.820316 3.20848,0 5.82032,-2.611832 5.82032,-5.820316 0,-3.208483 -2.61184,-5.820317 -5.82032,-5.820317 z m 21.16563,0 c -3.20848,0 -5.82031,2.611834 -5.82031,5.820317 0,3.208484 2.61183,5.820316 5.82031,5.820316 3.20849,0 5.82239,-2.611833 5.82239,-5.820316 0,-3.208483 -2.6139,-5.820317 -5.82239,-5.820317 z m -10.58178,10.581783 c -3.20848,0 -5.82032,2.6139 -5.82032,5.822383 0,3.208483 2.61184,5.820316 5.82032,5.820317 3.20848,0 5.82032,-2.611834 5.82032,-5.820317 0,-3.208483 -2.61184,-5.822383 -5.82032,-5.822383 z"
       transform="matrix(0.84374132,0,0,0.84374132,23.356494,10.583761)" />
    <circle
       style="display:inline;fill:#ff000f;fill-opacity:1;stroke:#000000;stroke-width:0.529168;stroke-linecap:round;stroke-dasharray:none;stroke-opacity:1;paint-order:markers stroke fill"
       id="path2"
       cx="88.924065"
       cy="30.625963"
       r="4.4647975" />
    <circle
       style="fill:#0000ff;fill-opacity:1;stroke:#000000;stroke-width:0.529168;stroke-linecap:round;stroke-dasharray:none;stroke-opacity:1;paint-order:markers stroke fill"
       id="circle2"
       cx="88.924065"
       cy="48.485161"
       r="4.4647975" />
    <circle
       style="fill:#ffff00;fill-opacity:1;stroke:#000000;stroke-width:0.529168;stroke-linecap:round;stroke-dasharray:none;stroke-opacity:1;paint-order:markers stroke fill"
       id="circle3"
       cx="79.994461"
       cy="39.555561"
       r="4.4647975" />
    <circle
       style="fill:#00ff00;fill-opacity:1;stroke:#000000;stroke-width:0.529168;stroke-linecap:round;stroke-dasharray:none;stroke-opacity:1;paint-order:markers stroke fill"
       id="circle4"
       cx="97.853668"
       cy="39.555561"
       r="4.4647975" />
    <path
       id="circle5"
       style="opacity:0.4;mix-blend-mode:normal;fill:#ffffff;fill-opacity:1;stroke:none;stroke-width:0.529169;stroke-linecap:round;stroke-opacity:1;paint-order:fill markers stroke"
       d="m 88.924065,26.161166 a 4.4647977,4.4647977 0 0 0 -4.464801,4.464798 4.4647977,4.4647977 0 0 0 1.42054,3.230438 4.4647977,4.4647977 0 0 1 -0.974057,-2.783958 4.4647977,4.4647977 0 0 1 4.4648,-4.464798 4.4647977,4.4647977 0 0 1 2.783959,0.974058 4.4647977,4.4647977 0 0 0 -3.230441,-1.420538 z m -8.929593,8.929596 a 4.4647977,4.4647977 0 0 0 -4.464801,4.464797 4.4647977,4.4647977 0 0 0 1.42054,3.230438 4.4647977,4.4647977 0 0 1 -0.974057,-2.783958 4.4647977,4.4647977 0 0 1 4.464792,-4.464798 4.4647977,4.4647977 0 0 1 2.783958,0.974059 4.4647977,4.4647977 0 0 0 -3.230432,-1.420538 z m 17.859186,0 a 4.4647977,4.4647977 0 0 0 -4.464793,4.464797 4.4647977,4.4647977 0 0 0 1.42054,3.230438 4.4647977,4.4647977 0 0 1 -0.974065,-2.783958 4.4647977,4.4647977 0 0 1 4.4648,-4.464798 4.4647977,4.4647977 0 0 1 2.78396,0.974059 4.4647977,4.4647977 0 0 0 -3.230442,-1.420538 z m -8.929593,8.929595 a 4.4647977,4.4647977 0 0 0 -4.464801,4.464798 4.4647977,4.4647977 0 0 0 1.42054,3.230438 4.4647977,4.4647977 0 0 1 -0.974057,-2.783959 4.4647977,4.4647977 0 0 1 4.4648,-4.464797 4.4647977,4.4647977 0 0 1 2.92348,1.094835 4.4647977,4.4647977 0 0 0 -3.369962,-1.541315 z" />
    <path
       id="path13"
       style="display:inline;opacity:0.2;mix-blend-mode:normal;fill:#000000;fill-opacity:1;stroke:none;stroke-width:0.529169;stroke-linecap:round;stroke-opacity:1;paint-order:fill markers stroke"
       d="m 91.968326,27.395966 a 4.4647977,4.4647977 0 0 1 0.974057,2.783523 4.4647977,4.4647977 0 0 1 -4.464792,4.464797 4.4647977,4.4647977 0 0 1 -2.783959,-0.974058 4.4647977,4.4647977 0 0 0 3.230433,1.420538 4.4647977,4.4647977 0 0 0 4.4648,-4.464798 4.4647977,4.4647977 0 0 0 -1.420539,-3.230002 z m -8.929593,8.929596 a 4.4647977,4.4647977 0 0 1 0.974057,2.783522 4.4647977,4.4647977 0 0 1 -4.464801,4.464798 4.4647977,4.4647977 0 0 1 -2.783958,-0.974059 4.4647977,4.4647977 0 0 0 3.230441,1.420538 4.4647977,4.4647977 0 0 0 4.464801,-4.464797 4.4647977,4.4647977 0 0 0 -1.42054,-3.230002 z m 17.859197,0 a 4.4647977,4.4647977 0 0 1 0.97405,2.783522 4.4647977,4.4647977 0 0 1 -4.464797,4.464798 4.4647977,4.4647977 0 0 1 -2.783958,-0.974059 4.4647977,4.4647977 0 0 0 3.230441,1.420538 4.4647977,4.4647977 0 0 0 4.464794,-4.464797 4.4647977,4.4647977 0 0 0 -1.42053,-3.230002 z m -9.049508,8.790942 a 4.4647977,4.4647977 0 0 1 1.093961,2.922175 4.4647977,4.4647977 0 0 1 -4.464792,4.464796 4.4647977,4.4647977 0 0 1 -2.783959,-0.974056 4.4647977,4.4647977 0 0 0 3.230433,1.420539 4.4647977,4.4647977 0 0 0 4.4648,-4.464799 4.4647977,4.4647977 0 0 0 -1.540443,-3.368655 z" />
    <g
       id="g22"
       transform="matrix(0.84374132,0,0,0.84374132,-89.198826,-6.7179065)"
       style="display:inline;opacity:0.4;mix-blend-mode:multiply;stroke-width:1.18519">
      <circle
         style="fill:url(#radialGradient18);fill-opacity:1;stroke:none;stroke-width:0.627168;stroke-linecap:round;stroke-dasharray:none;stroke-opacity:1;paint-order:markers stroke fill"
         id="circle13"
         cx="211.11078"
         cy="44.259857"
         r="5.2916665" />
      <circle
         style="fill:url(#radialGradient21);fill-opacity:1;stroke:none;stroke-width:0.627168;stroke-linecap:round;stroke-dasharray:none;stroke-opacity:1;paint-order:markers stroke fill"
         id="circle14"
         cx="211.11078"
         cy="65.426529"
         r="5.2916665" />
      <circle
         style="fill:url(#radialGradient20);fill-opacity:1;stroke:none;stroke-width:0.627168;stroke-linecap:round;stroke-dasharray:none;stroke-opacity:1;paint-order:markers stroke fill"
         id="circle15"
         cx="200.52744"
         cy="54.843193"
         r="5.2916665" />
      <circle
         style="fill:url(#radialGradient22);fill-opacity:1;stroke:none;stroke-width:0.627168;stroke-linecap:round;stroke-dasharray:none;stroke-opacity:1;paint-order:markers stroke fill"
         id="circle16"
         cx="221.69412"
         cy="54.843193"
         r="5.2916665" />
    </g>
    <path
       style="color:#000000;fill:#000000;stroke-width:1.18519;stroke-linecap:round;-inkscape-stroke:none;paint-order:markers stroke fill;filter:url(#filter53)"
       d="M 23.061665,17.933136 V 28.794504 H 12.199759 V 39.8801 H 23.061665 V 50.741468 H 34.146722 V 39.8801 H 45.008091 V 28.794504 H 34.146722 V 17.933136 Z"
       id="path53"
       sodipodi:nodetypes="ccccccccccccc"
       transform="matrix(0.84374132,0,0,0.84374132,23.356494,10.583761)" />
    <path
       id="rect23"
       style="fill:#333333;fill-opacity:1;stroke:none;stroke-width:0.627168;stroke-linecap:round;stroke-dasharray:none;stroke-opacity:1;paint-order:markers stroke fill"
       d="m 188.32287,14.739669 v 11.023099 h -11.02362 v 9.703801 h 11.02362 v 11.023099 h 9.70328 V 35.466569 h 11.0231 v -9.703801 h -11.0231 V 14.739669 Z"
       clip-path="url(#clipPath45)"
       transform="matrix(0.84374132,0,0,0.84374132,-115.49876,13.725048)" />
    <path
       style="color:#000000;opacity:0.2;fill:url(#linearGradient47);stroke-width:1.18519;stroke-linecap:round;-inkscape-stroke:none;paint-order:markers stroke fill;filter:url(#filter46)"
       d="m 197.76172,14.990234 v 11.03711 h 11.02344 v 9.173828 h -11.02344 v 11.023437 h -9.17383 V 35.201172 h -11.02344 v -9.173828 h 11.02344 V 14.991886 c 0.86245,0.0096 7.07087,0.0014 9.17383,-0.0017 z m -9.70313,-0.50675 v 11.014563 h -11.02343 v 10.232422 h 11.02343 v 11.023437 h 10.23243 V 35.730469 h 11.02343 V 25.498047 H 198.29102 V 14.474609 Z"
       id="path40"
       sodipodi:nodetypes="cccccccccccccccccccccccccc"
       clip-path="url(#clipPath41)"
       transform="matrix(0.84374132,0,0,0.84374132,-115.49876,13.725048)" />
    <path
       id="path64"
       style="display:inline;fill:url(#linearGradient64);stroke:none;stroke-width:0.264583;stroke-linecap:round;stroke-linejoin:round;stroke-opacity:1;paint-order:markers stroke fill"
       d="m 38.878115,10.867171 c 0.70485,0.0022 1.40839,0.05781 2.11031,0.124264 -2.63815,0.261836 -5.23322,0.967895 -7.63245,2.143888 -6.24893,3.06295 -11.27436,8.402401 -14.10073,14.99675 -2.73417,6.380761 -0.73806,17.730272 0.008,24.632255 1.58769,14.685462 4.9594,22.583645 5.25443,35.284982 0.63693,27.42074 8.61015,34.27416 13.54873,35.97607 -0.41692,0.36348 -0.82465,0.5738 -1.21212,0.5738 -3.02843,0 -15.983,-1.31695 -16.80141,-36.54987 -0.29503,-12.701337 -3.66674,-20.59952 -5.254434,-35.284982 -0.74619,-6.901983 -2.74229,-18.251494 -0.008,-24.632255 2.826374,-6.594349 7.851824,-11.9338 14.100744,-14.99675 3.11093,-1.524839 6.5495,-2.278883 9.98693,-2.268152 z m -13.3944,0 c 0.70486,0.0022 1.40839,0.05781 2.11032,0.124264 -2.63816,0.261836 -5.23321,0.967895 -7.63245,2.143888 -6.248934,3.06295 -11.2743743,8.402401 -14.1007443,14.99675 -2.73417,6.380761 -0.73805,17.730272 0.008,24.632255 1.58768,14.685462 4.9593903,22.583645 5.2544203,35.284982 0.63694,27.42074 8.610164,34.27416 13.548744,35.97607 -0.41692,0.36348 -0.82464,0.5738 -1.21212,0.5738 -3.02843,0 -15.9830043,-1.31695 -16.8014243,-36.54987 -0.29503,-12.701337 -3.66674,-20.59952 -5.25442,-35.284982 -0.74618003,-6.901983 -2.7423,-18.251494 -0.008,-24.632255 2.82637,-6.594349 7.85182,-11.9338 14.1007403,-14.99675 3.110944,-1.524839 6.549504,-2.278883 9.986934,-2.268152 z" />
    <g
       id="g63"
       style="display:inline"
       sodipodi:insensitive="true">
      <path
         id="path33"
         style="display:inline;fill:#ffffff;fill-opacity:1;stroke:none;stroke-width:2.03729;stroke-linecap:round;stroke-linejoin:round;stroke-dasharray:none;stroke-opacity:1;paint-order:markers stroke fill"
         d="m 115.57875,79.510072 v 17.238663 l -9.72417,-9.724158 -3.77171,3.771694 12.39106,12.391059 -12.39106,12.39142 3.77171,3.7717 9.72417,-9.72418 v 17.23868 7.5434 l 5.33374,-5.33374 9.72416,-9.72416 3.7717,-3.7717 -12.39103,-12.39142 8.61933,-8.619368 3.7717,-3.771691 -13.49586,-13.495859 -5.33374,-5.333735 z m 5.33374,5.333737 5.95247,5.952462 -5.95247,5.952464 z m 0,24.782461 5.95247,5.95248 -5.95247,5.95247 z"
         sodipodi:nodetypes="ccccccccccccccccccccccccccc" />
      <path
         id="path34"
         style="opacity:1;fill:#0000ff;fill-opacity:1;stroke:none;stroke-width:2.03729;stroke-linecap:round;stroke-linejoin:round;stroke-dasharray:none;stroke-opacity:1;paint-order:markers stroke fill"
         d="m 115.57875,70.908344 v 1.058333 l 18.82958,18.829611 0.52917,-0.529167 z m 4.80443,13.406043 1.5e-4,12.963515 0.52916,-0.529167 -1.5e-4,-11.905181 z m -13.99943,2.181023 -0.52917,0.529167 9.72432,9.724312 v -1.058334 z m 16.16274,16.16276 -0.52917,0.52916 12.39103,12.39142 0.52917,-0.52916 z m -2.16316,6.43885 v 12.96337 l 0.52916,-0.52917 v -11.90503 z"
         sodipodi:nodetypes="ccccccccccccccccccccccccc" />
    </g>
    <path
       id="path65"
       style="opacity:1;fill:#1a1a1a;fill-opacity:1;stroke:none;stroke-width:1.05833;stroke-linecap:round;stroke-dasharray:none;stroke-opacity:1;paint-order:markers stroke fill"
       d="M 47.490124 27.847912 L 45.028259 32.112251 L 49.952506 32.112251 L 47.490124 27.847912 z M 47.490124 36.909891 A 2.6458333 2.6458333 0 0 0 44.844291 39.555725 A 2.6458333 2.6458333 0 0 0 47.490124 42.201558 A 2.6458333 2.6458333 0 0 0 50.135957 39.555725 A 2.6458333 2.6458333 0 0 0 47.490124 36.909891 z M 54.934114 37.092826 L 54.934114 42.017073 L 59.198453 39.555208 L 54.934114 37.092826 z M 40.047167 37.093859 L 35.782828 39.556241 L 40.047167 42.018107 L 40.047167 37.093859 z M 45.029292 46.999198 L 47.491157 51.263537 L 49.953539 46.999198 L 45.029292 46.999198 z " />
    <path
       id="path69"
       style="opacity:1;fill:#000000;fill-opacity:1;stroke:none;stroke-width:1.05833;stroke-linecap:round;stroke-dasharray:none;stroke-opacity:1;paint-order:markers stroke fill"
       d="m 47.490124,27.847912 -2.461865,4.264339 h 0.208772 L 47.59451,28.02878 Z m 0,9.061979 a 2.6458333,2.6458333 0 0 0 -2.645834,2.645834 2.6458333,2.6458333 0 0 0 0.637688,1.687235 2.6458333,2.6458333 0 0 1 -0.505396,-1.554944 2.6458333,2.6458333 0 0 1 2.645833,-2.645833 2.6458333,2.6458333 0 0 1 1.770435,0.679545 2.6458333,2.6458333 0 0 0 -1.902726,-0.811837 z m 7.44399,0.182935 v 4.924247 l 0.132291,-0.07648 v -4.715474 l 4.083472,2.357995 0.04858,-0.02791 z m -14.886947,10e-4 -4.264339,2.462382 0.180868,0.104387 4.083471,-2.357996 z m 4.982125,9.905372 2.461865,4.264339 0.02791,-0.04858 -2.357479,-4.083472 h 4.715474 l 0.07648,-0.132291 z" />
    <path
       id="path72"
       style="opacity:0.3;fill:#ffffff;fill-opacity:1;stroke:none;stroke-width:1.05833;stroke-linecap:round;stroke-dasharray:none;stroke-opacity:1;paint-order:markers stroke fill"
       d="m 47.490124,27.847912 -0.02791,0.04858 2.357996,4.083471 h -4.71547 l -0.07648,0.132292 h 4.924247 z m -7.442956,9.245947 -0.132292,0.07648 v 4.715475 l -4.083472,-2.357479 -0.04857,0.02791 4.264339,2.461866 z m 9.276953,0.559139 a 2.6458333,2.6458333 0 0 1 0.679545,1.770435 2.6458333,2.6458333 0 0 1 -2.645833,2.645833 2.6458333,2.6458333 0 0 1 -1.554944,-0.505395 2.6458333,2.6458333 0 0 0 1.687235,0.637687 2.6458333,2.6458333 0 0 0 2.645834,-2.645834 2.6458333,2.6458333 0 0 0 -0.811837,-1.902726 z m 9.693465,1.797823 -4.083472,2.357479 v 0.208773 l 4.264339,-2.461865 z m -9.272819,7.548377 -2.357996,4.083471 0.104387,0.180868 2.462382,-4.264339 z" />
  </g>
</svg>
