<?xml version="1.0" encoding="UTF-8" standalone="no"?>
<!-- Created with Inkscape (http://www.inkscape.org/) -->

<svg
   width="512"
   height="512"
   viewBox="0 0 135.46666 135.46667"
   version="1.1"
   id="svg5"
   inkscape:version="1.3.2 (091e20ef0f, 2023-11-25, custom)"
   sodipodi:docname="cmus.svg"
   xmlns:inkscape="http://www.inkscape.org/namespaces/inkscape"
   xmlns:sodipodi="http://sodipodi.sourceforge.net/DTD/sodipodi-0.dtd"
   xmlns:xlink="http://www.w3.org/1999/xlink"
   xmlns="http://www.w3.org/2000/svg"
   xmlns:svg="http://www.w3.org/2000/svg">
  <sodipodi:namedview
     id="namedview7"
     pagecolor="#242424"
     bordercolor="#666666"
     borderopacity="1"
     inkscape:showpageshadow="0"
     inkscape:pageopacity="0"
     inkscape:pagecheckerboard="1"
     inkscape:deskcolor="#000000"
     inkscape:document-units="px"
     showgrid="false"
     inkscape:zoom="1.84375"
     inkscape:cx="258.44068"
     inkscape:cy="84.610169"
     inkscape:window-width="3256"
     inkscape:window-height="1080"
     inkscape:window-x="1864"
     inkscape:window-y="0"
     inkscape:window-maximized="0"
     inkscape:current-layer="layer1"
     showguides="false" />
  <defs
     id="defs2">
    <linearGradient
       id="linearGradient18"
       inkscape:collect="always">
      <stop
         style="stop-color:#000000;stop-opacity:1;"
         offset="0"
         id="stop18" />
      <stop
         style="stop-color:#9d957e;stop-opacity:0;"
         offset="1"
         id="stop19" />
    </linearGradient>
    <linearGradient
       id="linearGradient7"
       inkscape:collect="always">
      <stop
         style="stop-color:#000000;stop-opacity:1;"
         offset="0.40934706"
         id="stop8" />
      <stop
         style="stop-color:#000000;stop-opacity:0;"
         offset="1"
         id="stop9" />
    </linearGradient>
    <linearGradient
       id="linearGradient6"
       inkscape:collect="always">
      <stop
         style="stop-color:#ffffff;stop-opacity:1;"
         offset="0"
         id="stop6" />
      <stop
         style="stop-color:#000000;stop-opacity:0.40000001;"
         offset="1"
         id="stop7" />
    </linearGradient>
    <inkscape:path-effect
       effect="fillet_chamfer"
       id="path-effect17"
       is_visible="true"
       lpeversion="1"
       nodesatellites_param="F,0,0,1,0,0,0,1 @ F,0,0,1,0,0,0,1 @ F,0,1,1,0,2,0,1 @ F,0,1,1,0,2,0,1 @ F,0,0,1,0,0,0,1 @ F,0,0,1,0,0,0,1 @ F,0,0,1,0,0,0,1 @ F,0,0,1,0,0,0,1 @ F,0,1,1,0,2,0,1 @ F,0,1,1,0,2,0,1 @ F,0,0,1,0,0,0,1 @ F,0,0,1,0,0,0,1 @ F,0,0,1,0,0,0,1 @ F,0,0,1,0,0,0,1 @ F,0,1,1,0,2,0,1 @ F,0,1,1,0,2,0,1 @ F,0,1,1,0,2,0,1 @ F,0,0,1,0,0,0,1 @ F,0,0,1,0,0,0,1 @ F,0,0,1,0,0,0,1 @ F,0,0,1,0,0,0,1 @ F,0,1,1,0,2,0,1 @ F,0,1,1,0,2,0,1 @ F,0,0,1,0,0,0,1 @ F,0,0,1,0,0,0,1 @ F,0,0,1,0,0,0,1 @ F,0,0,1,0,0,0,1 @ F,0,1,1,0,2,0,1 @ F,0,1,1,0,2,0,1 @ F,0,0,1,0,0,0,1 @ F,0,0,1,0,0,0,1"
       radius="2"
       unit="px"
       method="auto"
       mode="F"
       chamfer_steps="1"
       flexible="false"
       use_knot_distance="true"
       apply_no_radius="true"
       apply_with_radius="true"
       only_selected="true"
       hide_knots="false" />
    <inkscape:path-effect
       effect="fillet_chamfer"
       id="path-effect16"
       is_visible="true"
       lpeversion="1"
       nodesatellites_param="F,0,0,1,0,0,0,1 @ F,0,0,1,0,0,0,1 @ F,0,1,1,0,2,0,1 @ F,0,1,1,0,2,0,1 @ F,0,0,1,0,0,0,1 @ F,0,0,1,0,0,0,1 @ F,0,0,1,0,0,0,1 @ F,0,0,1,0,0,0,1 @ F,0,1,1,0,2,0,1 @ F,0,1,1,0,2,0,1 @ F,0,0,1,0,0,0,1 @ F,0,0,1,0,0,0,1 @ F,0,0,1,0,0,0,1 @ F,0,0,1,0,0,0,1 @ F,0,1,1,0,2,0,1 @ F,0,1,1,0,2,0,1 @ F,0,1,1,0,2,0,1 @ F,0,0,1,0,0,0,1 @ F,0,0,1,0,0,0,1 @ F,0,0,1,0,0,0,1 @ F,0,0,1,0,0,0,1 @ F,0,1,1,0,2,0,1 @ F,0,1,1,0,2,0,1 @ F,0,0,1,0,0,0,1 @ F,0,0,1,0,0,0,1 @ F,0,0,1,0,0,0,1 @ F,0,0,1,0,0,0,1 @ F,0,1,1,0,2,0,1 @ F,0,1,1,0,2,0,1 @ F,0,0,1,0,0,0,1 @ F,0,0,1,0,0,0,1"
       radius="2"
       unit="px"
       method="auto"
       mode="F"
       chamfer_steps="1"
       flexible="false"
       use_knot_distance="true"
       apply_no_radius="true"
       apply_with_radius="true"
       only_selected="true"
       hide_knots="false" />
    <linearGradient
       id="linearGradient15"
       inkscape:collect="always">
      <stop
         style="stop-color:#000000;stop-opacity:1;"
         offset="0"
         id="stop15" />
      <stop
         style="stop-color:#0f0e09;stop-opacity:0;"
         offset="1"
         id="stop16" />
    </linearGradient>
    <inkscape:path-effect
       effect="fillet_chamfer"
       id="path-effect15"
       is_visible="true"
       lpeversion="1"
       nodesatellites_param="F,0,0,1,0,0,0,1 @ F,0,0,1,0,0,0,1 @ F,0,0,1,0,0,0,1 @ F,0,1,1,0,4,0,1 @ F,0,1,1,0,4,0,1 @ F,0,0,1,0,0,0,1 @ F,0,0,1,0,0,0,1 @ F,0,0,1,0,0,0,1 @ F,0,1,1,0,4,0,1 @ F,0,1,1,0,4,0,1"
       radius="4"
       unit="px"
       method="auto"
       mode="F"
       chamfer_steps="1"
       flexible="false"
       use_knot_distance="true"
       apply_no_radius="true"
       apply_with_radius="true"
       only_selected="true"
       hide_knots="false" />
    <inkscape:path-effect
       effect="fillet_chamfer"
       id="path-effect14"
       is_visible="true"
       lpeversion="1"
       nodesatellites_param="F,0,0,1,0,0,0,1 @ F,0,0,1,0,0,0,1 @ F,0,0,1,0,0,0,1 @ F,0,0,1,0,0,0,1 @ F,0,0,1,0,0,0,1 @ F,0,0,1,0,0,0,1 @ F,0,0,1,0,0,0,1 @ F,0,0,1,0,0,0,1 @ F,0,0,1,0,0,0,1 @ F,0,0,1,0,0,0,1 @ F,0,0,1,0,0,0,1 @ F,0,0,1,0,0,0,1 @ F,0,0,1,0,0,0,1 @ F,0,0,1,0,0,0,1 @ F,0,0,1,0,0,0,1 @ F,0,0,1,0,0,0,1 @ F,0,0,1,0,0,0,1 @ F,0,0,1,0,0,0,1 @ F,0,0,1,0,0,0,1 @ F,0,0,1,0,0,0,1 @ F,0,0,1,0,0,0,1 @ F,0,0,1,0,0,0,1 @ F,0,0,1,0,0,0,1 @ F,0,0,1,0,0,0,1 @ F,0,0,1,0,0,0,1 @ F,0,0,1,0,0,0,1 @ F,0,0,1,0,0,0,1 @ F,0,0,1,0,0,0,1 @ F,0,0,1,0,0,0,1 @ F,0,0,1,0,0,0,1 @ F,0,0,1,0,0,0,1"
       radius="1"
       unit="px"
       method="auto"
       mode="F"
       chamfer_steps="1"
       flexible="false"
       use_knot_distance="true"
       apply_no_radius="true"
       apply_with_radius="true"
       only_selected="true"
       hide_knots="false" />
    <linearGradient
       inkscape:collect="always"
       xlink:href="#linearGradient15"
       id="linearGradient16"
       x1="204.55176"
       y1="120.50401"
       x2="204.55176"
       y2="-4.3924446"
       gradientUnits="userSpaceOnUse"
       gradientTransform="translate(-136.81842,9.6775533)" />
    <filter
       inkscape:collect="always"
       style="color-interpolation-filters:sRGB"
       id="filter16"
       x="-0.030722311"
       y="-0.03071769"
       width="1.0614446"
       height="1.0614354">
      <feGaussianBlur
         inkscape:collect="always"
         stdDeviation="1.5985542"
         id="feGaussianBlur16" />
    </filter>
    <radialGradient
       inkscape:collect="always"
       xlink:href="#linearGradient6"
       id="radialGradient7"
       cx="48.366318"
       cy="67.73333"
       fx="48.366318"
       fy="67.73333"
       r="21.960417"
       gradientUnits="userSpaceOnUse"
       gradientTransform="matrix(0.60240959,0,0,0.60240959,22.244144,35.457099)" />
    <radialGradient
       inkscape:collect="always"
       xlink:href="#linearGradient7"
       id="radialGradient9"
       cx="-46.487671"
       cy="45.64275"
       fx="-46.487671"
       fy="45.64275"
       r="54.891838"
       gradientTransform="matrix(1,0,0,1.0102832,0,-0.46935456)"
       gradientUnits="userSpaceOnUse" />
    <linearGradient
       inkscape:collect="always"
       xlink:href="#linearGradient18"
       id="linearGradient19"
       x1="62.368816"
       y1="0"
       x2="62.368816"
       y2="15.875"
       gradientUnits="userSpaceOnUse"
       gradientTransform="matrix(1.0732861,0,0,1.0060472,0.79374696,0.68272689)" />
  </defs>
  <g
     inkscape:label="Layer 1"
     inkscape:groupmode="layer"
     id="layer1">
    <path
       id="rect15"
       style="display:inline;opacity:1;mix-blend-mode:normal;fill:url(#linearGradient16);stroke:none;stroke-width:2.16958;stroke-linecap:round;stroke-linejoin:round;stroke-dasharray:none;stroke-opacity:1;paint-order:markers stroke fill;filter:url(#filter16)"
       d="m 39.581968,5.3103658 c -8.85693,0.023974 -17.71643,0.021103 -26.57168,0.086183 C 8.5481582,5.9827379 4.9571782,10.35539 5.3197482,14.85645 c -0.0365,17.742978 -0.0144,35.486483 -0.0241,53.229696 0.006,18.084628 0.006,36.172024 0.0976,54.254804 0.52359,4.21597 4.38848,7.7629 8.6632898,7.79754 5.97284,0.0963 11.94836,-0.005 17.92226,0.0358 30.15369,-0.0186 60.30998,0.0385 90.461972,-0.10996 3.17068,-0.42001 5.94859,-2.73936 7.13871,-5.74096 0.6797,-1.55135 0.56361,-3.44349 0.57246,-5.1708 0.0377,-20.738449 0.009,-41.47712 0.0198,-62.215662 -0.0205,-14.643858 -0.002,-29.29058 -0.10627,-43.932534 -0.59358,-4.3837496 -4.80904,-7.9652172 -9.25259,-7.7040976 -27.076662,-0.025014 -54.154112,-0.017302 -81.230942,0.01007 z" />
    <rect
       style="opacity:0.6;fill:#ffffff;fill-opacity:1;stroke:none;stroke-width:2.16958;stroke-linecap:round;stroke-linejoin:round;stroke-dasharray:none;stroke-opacity:1;paint-order:markers stroke fill"
       id="rect3"
       width="135.46666"
       height="135.46666"
       x="0"
       y="0"
       ry="14.416858" />
    <path
       style="display:none;fill:none;stroke:#c20000;stroke-width:2.16958;stroke-linecap:butt;stroke-linejoin:miter;stroke-dasharray:none;stroke-opacity:1"
       d="M 21.569637,118.82242 C 19.858066,150.90036 67.733332,133.47535 57.0663,103.44796 46.399267,73.420563 40.571461,21.836229 46.11246,-14.652607 51.653459,-51.141443 78.417361,11.499582 47.868531,26.216342 17.3197,40.933102 8.3538737,71.471751 29.128308,91.712919 49.902742,111.95409 88.416141,80.679255 74.478718,58.808646 60.541295,36.938036 25.66894,46.007036 34.453222,67.733332"
       id="path3"
       sodipodi:nodetypes="czzzzzc"
       sodipodi:insensitive="true" />
    <path
       id="path1"
       style="color:#000000;display:inline;opacity:0.6;fill:#ffffff;fill-opacity:1;stroke-linecap:round;stroke-linejoin:round;-inkscape-stroke:none;paint-order:markers stroke fill"
       d="M 14.416692,-1.3000001e-6 C 6.429762,-1.3000001e-6 1.9999999e-6,6.4302753 1.9999999e-6,14.417206 V 121.04998 c 0,7.98693 6.4297600000001,14.41669 14.4166900000001,14.41669 H 121.04997 c 7.98693,0 14.41669,-6.42976 14.41669,-14.41669 V 14.417206 C 135.46666,6.4302753 129.0369,-1.3000001e-6 121.04997,-1.3000001e-6 Z M 14.417202,1.0852038 H 121.04997 c 7.40472,0 13.332,5.9272885 13.332,13.3320022 V 121.04998 c 0,7.40471 -5.92728,13.33252 -13.332,13.33252 H 14.417202 c -7.40471,0 -13.332,-5.92781 -13.332,-13.33252 V 14.417206 c 0,-7.4047137 5.92729,-13.3320021 13.332,-13.3320022 z" />
    <path
       id="path8"
       style="color:#000000;fill:#ffffff;stroke-width:0.931185;stroke-linecap:round;stroke-linejoin:round;-inkscape-stroke:none;paint-order:stroke markers fill"
       d="m 51.380842,30.700453 c -25.08044,0 -45.5610423,20.478533 -45.5610423,45.558975 0,25.080442 20.4806013,45.560542 45.5610423,45.560542 11.406698,0 21.861841,-4.24108 29.866911,-11.21741 0.999867,-0.87137 -0.751375,-3.01578 -0.751375,-3.01578 v 0 c 0,0 -0.08924,0.93927 -0.639755,1.41903 -7.637674,6.65613 -17.593508,10.69754 -28.475781,10.69754 -23.928941,0 -43.4438589,-19.51494 -43.4438589,-43.443877 0,-23.92894 19.5149179,-43.441792 43.4438589,-43.441792 10.882266,0 20.838109,4.041419 28.475781,10.697538 0.550519,0.47977 0.639755,1.418518 0.639755,1.418518 v 0 c 0,0 1.751247,-2.143989 0.751375,-3.015365 C 73.242684,34.942073 62.787531,30.700453 51.380842,30.700453 Z"
       sodipodi:nodetypes="sssscccssssccss" />
    <path
       style="color:#000000;fill:#000000;stroke-width:0.931185;stroke-linecap:round;stroke-linejoin:round;-inkscape-stroke:none;paint-order:stroke markers fill"
       d="m 51.380484,31.758973 c -24.504765,0 -44.5013176,19.996557 -44.5013176,44.501322 0,24.504765 19.9965526,44.501335 44.5013176,44.501335 11.144518,0 21.350565,-4.14177 29.17196,-10.95801 1.550385,-1.35114 1.269329,-3.41072 -0.50019,-4.45978 l -4.485539,-2.65926 c -1.769519,-1.04906 -4.461905,-0.79447 -6.167927,0.35292 -5.135736,3.45407 -11.328982,5.46885 -18.018304,5.46885 -17.881531,0 -32.247161,-14.364523 -32.247161,-32.246055 0,-17.881532 14.36563,-32.246039 32.247161,-32.246039 6.689325,0 12.882574,2.014776 18.018311,5.468847 1.706018,1.147394 4.398401,1.401981 6.167919,0.352917 l 4.485541,-2.659264 c 1.769518,-1.049063 2.050568,-3.10865 0.500173,-4.459797 C 72.731034,35.90073 62.524993,31.758973 51.380484,31.758973 Z"
       id="path11" />
    <path
       id="path10"
       style="fill:#000000;fill-opacity:1;stroke:#ffffff;stroke-width:2.92463;stroke-linecap:round;stroke-linejoin:round;stroke-dasharray:none;stroke-opacity:1;paint-order:stroke markers fill"
       d="m -29.31759,44.265515 c -3.657623,0 -6.602181,2.944556 -6.602181,6.602181 0,3.554163 1.733126,9.405575 3.536382,14.537923 0.366098,1.04197 -0.178386,2.193182 -1.091938,2.810063 -0.124929,0.08436 -0.247731,0.171825 -0.368292,0.262317 -0.881612,0.661724 -2.148276,0.800707 -3.011872,0.112037 -4.184398,-3.336822 -9.024813,-6.908319 -12.315667,-8.426784 -3.439219,-1.244981 -7.210318,0.521779 -8.455298,3.960999 l -0.628902,1.737878 c -1.24498,3.439219 0.521777,7.210318 3.960998,8.455298 3.340689,1.209313 9.428914,1.571452 14.866961,1.623009 1.104364,0.01047 2.005914,0.914304 2.280189,1.981961 0.03468,0.135006 0.07248,0.269193 0.113357,0.402453 0.323278,1.053855 0.02203,2.288942 -0.921519,2.8632 -4.574945,2.784371 -9.599075,6.106294 -12.158364,8.677265 -2.351075,2.801902 -1.988516,6.950166 0.813387,9.301241 l 1.415934,1.188044 c 2.801902,2.35107 6.950166,1.98851 9.301241,-0.81339 2.284038,-2.722011 4.717079,-8.31657 6.634526,-13.406351 0.389348,-1.033508 1.545536,-1.562891 2.64154,-1.44501 0.502432,0.05404 1.821862,0.06677 2.895636,-0.182485 0.592056,-0.137434 1.371142,0.524211 1.772825,1.55315 1.947623,4.988975 4.346605,10.513882 6.434074,13.480696 2.351074,2.8019 6.499855,3.16446 9.3017574,0.81339 l 1.4154174,-1.188044 c 2.8019022,-2.351075 3.164979,-6.499339 0.8139038,-9.301241 -2.2848069,-2.722927 -7.3742126,-6.091763 -12.0549326,-8.864423 -0.950215,-0.562867 -1.272334,-1.79428 -0.967996,-2.85376 0.04016,-0.139796 0.07694,-0.280541 0.110314,-0.422109 0.252942,-1.072912 1.136431,-1.992061 2.240698,-2.01772 5.349763,-0.124308 11.3524931,-0.489529 14.8504729,-1.435352 3.43704232,-1.25098 5.1964762,-5.024974 3.9454955,-8.462015 L 0.81855468,64.073091 C -0.43242618,60.636049 -4.2064198,58.876099 -7.643461,60.127079 c -3.335797,1.21413 -8.233689,4.836885 -12.436381,8.283067 -0.85401,0.700284 -2.124089,0.583979 -3.018081,-0.06092 -0.119646,-0.08631 -0.241384,-0.169682 -0.365105,-0.250042 -0.924437,-0.600445 -1.487344,-1.741119 -1.133797,-2.787574 1.712636,-5.069192 3.421807,-10.833851 3.729365,-14.443912 0,-3.657625 -2.944557,-6.602181 -6.602181,-6.602181 z"
       transform="matrix(0.72373716,0,0,0.72373716,127.24619,-3.5732183)"
       inkscape:path-effect="#path-effect17"
       inkscape:original-d="m -29.31759,44.265515 c -3.657623,0 -6.602181,2.944556 -6.602181,6.602181 0,3.997764 2.192754,10.902012 4.211629,16.420186 a 9.0527115,9.0527115 0 0 0 -3.589961,2.556949 c -4.487839,-3.651733 -10.16443,-7.970346 -13.873055,-9.681579 -3.439219,-1.244981 -7.210318,0.521779 -8.455298,3.960999 l -0.628902,1.737878 c -1.24498,3.439219 0.521777,7.210318 3.960998,8.455298 3.757754,1.360288 10.991893,1.64867 16.866671,1.628841 a 9.0527115,9.0527115 0 0 0 1.185974,4.210595 c -4.974083,2.960551 -10.98803,6.811297 -13.872021,9.708452 -2.351075,2.801902 -1.988516,6.950166 0.813387,9.301241 l 1.415934,1.188044 c 2.801902,2.35107 6.950166,1.98851 9.301241,-0.81339 2.569157,-3.061802 5.326838,-9.758081 7.327201,-15.282271 a 9.0527115,9.0527115 0 0 0 2.862358,0.482657 9.0527115,9.0527115 0 0 0 3.037024,-0.54777 c 2.051824,5.412572 4.799707,12.004164 7.152018,15.347384 2.351074,2.8019 6.499855,3.16446 9.3017574,0.81339 l 1.4154174,-1.188044 c 2.8019022,-2.351075 3.164979,-6.499339 0.8139038,-9.301241 -2.5699597,-3.062759 -8.6882526,-6.942711 -13.7821046,-9.872266 a 9.0527115,9.0527115 0 0 0 1.110527,-4.249353 c 5.784772,-0.07732 12.9080324,-0.405835 16.8501339,-1.471745 3.43704232,-1.25098 5.1964762,-5.024974 3.9454955,-8.462015 L 0.81855468,64.073091 C -0.43242618,60.636049 -4.2064198,58.876099 -7.643461,60.127079 c -3.752478,1.36579 -9.481674,5.779519 -13.974341,9.561173 a 9.0527115,9.0527115 0 0 0 -3.628719,-2.48512 c 1.905686,-5.462031 4.032451,-12.266984 4.379061,-16.335436 0,-3.657625 -2.944557,-6.602181 -6.602181,-6.602181 z" />
    <path
       sodipodi:type="star"
       style="opacity:1;fill:url(#radialGradient9);stroke:none;stroke-width:0.885765;stroke-linecap:round;stroke-linejoin:round;stroke-dasharray:none;stroke-opacity:1;paint-order:markers stroke fill"
       id="path7"
       inkscape:flatsided="false"
       sodipodi:sides="68"
       sodipodi:cx="-46.487671"
       sodipodi:cy="45.64275"
       sodipodi:r1="55.456303"
       sodipodi:r2="22.182522"
       sodipodi:arg1="-1.5707963"
       sodipodi:arg2="-1.5245964"
       inkscape:rounded="0"
       inkscape:randomized="0"
       d="m -46.487669,-9.8135529 1.024464,33.2974499 4.092398,-33.0608829 -2.052207,33.2499349 7.125413,-32.5422526 L -41.40897,24.049439 -31.311332,-7.6965438 -39.438255,24.610156 -26.454542,-6.0687118 -37.527684,25.350315 -21.768668,-3.999696 -35.693556,26.263602 -17.293688,-1.5071482 -33.951519,27.342226 -13.067781,1.3876658 -32.316437,28.576983 -9.1270003,4.6600486 -30.802259,29.957339 -5.5049677,8.2820814 -29.421903,31.471517 -2.2325851,12.222862 -28.187146,33.1066 0.66222867,16.44877 -27.108523,34.848636 3.1547762,20.92375 -26.195236,36.682764 5.2237918,25.609624 -25.455076,38.593335 6.8516235,30.466414 -24.89436,40.56405 8.0243831,35.452682 -24.51787,42.578094 8.7320651,40.525889 -24.328818,44.618285 8.9686317,45.642751 -24.328818,46.667216 8.7320648,50.759613 -24.51787,48.707407 8.0243825,55.83282 -24.89436,50.721451 6.8516227,60.819089 -25.455077,52.692166 5.2237907,65.675878 -26.195236,54.602737 3.1547748,70.361752 -27.108524,56.436865 0.66222711,74.836732 -28.187147,58.178901 -2.2325869,79.06264 -29.421904,59.813984 -5.5049697,83.00342 -30.80226,61.328162 -9.1270025,86.625453 -32.316438,62.708518 l 19.248655,27.189318 -20.883738,-25.954561 16.65783,28.849374 -18.399866,-27.770751 13.924886,30.263299 -15.759014,-29.350012 11.07314,31.419027 -12.983712,-30.678868 8.126922,32.3067 -10.097636,-31.745983 5.111368,32.918739 -7.125412,-32.542249 2.052205,33.249939 -4.092396,-33.060888 -1.024466,33.297448 -1.024465,-33.297448 -4.092397,33.060888 2.052206,-33.249939 -7.125413,32.542249 5.111369,-32.91874 -10.097638,31.745983 8.126923,-32.306699 -12.983712,30.678867 11.073141,-31.419027 -15.759015,29.350012 13.924887,-30.263299 -18.399868,27.770751 16.657832,-28.849374 -20.883739,25.95456 19.248656,-27.189317 -23.189436,23.916934 21.675258,-25.29729 -25.297291,21.675257 23.916935,-23.189436 -27.189318,19.248655 25.954561,-20.883737 -28.849374,16.65783 27.770751,-18.399866 -30.263299,13.924886 29.350012,-15.759014 -31.419028,11.07314 30.678869,-12.983712 -32.3067,8.126922 31.745983,-10.097636 -32.918738,5.111367 32.542248,-7.125412 -33.249938,2.052205 33.060887,-4.092395 -33.297447,-1.024467 33.297447,-1.024465 -33.060887,-4.092397 33.249938,2.052207 -32.542248,-7.125414 32.918738,5.111369 -31.745982,-10.097637 32.306699,8.126923 L -98.199133,25.609621 -66.780106,36.682763 -96.130117,20.923747 -65.866818,34.848635 -93.637569,16.448767 -64.788195,33.106598 -90.742755,12.22286 -63.553438,31.471516 -87.470372,8.2820792 -62.173082,29.957338 -83.848339,4.6600466 -60.658904,28.576982 -79.907558,1.387664 l 20.883737,25.954561 -16.65783,-28.8493748 18.399866,27.7707518 -13.924886,-30.2632993 15.759014,29.3500123 -11.07314,-31.4190279 12.983712,30.6788679 -8.126922,-32.3066996 10.097636,31.7459836 -5.111367,-32.9187432 7.125412,32.5422532 -2.052205,-33.2499352 4.092395,33.0608832 z"
       inkscape:transform-center-y="-8.2825694"
       transform="matrix(0.59741227,0,0,0.59741227,79.152791,48.992756)" />
    <circle
       style="opacity:1;fill:url(#radialGradient7);stroke:#000000;stroke-width:0.529167;stroke-linecap:round;stroke-linejoin:round;stroke-dasharray:none;stroke-opacity:1;paint-order:markers stroke fill"
       id="path6"
       cx="51.380486"
       cy="76.260292"
       r="13.229166" />
    <g
       id="g6"
       style="display:none;opacity:0.22;stroke-width:1.04918"
       transform="matrix(0.95312499,0,0,0.95312499,3.1750002,3.1750145)">
      <path
         style="color:#000000;fill:#decdc2;fill-opacity:1;stroke-width:1.04918;-inkscape-stroke:none"
         d="M 51.208708,3.6853969e-4 C 50.81066,0.00631411 50.411475,0.08420102 50.032949,0.24229446 49.275898,0.55847967 48.620649,1.156744 48.05561,1.9793205 46.925531,3.6244736 46.080489,6.2118098 45.497648,10.049963 43.891489,20.626915 43.48999,32.713934 43.946098,45.005002 33.139642,51.140131 26.005565,59.784754 23.342091,69.016935 20.398025,79.221714 20.6654,88.817693 29.45029,97.37708 c 6.135666,5.97817 16.326163,7.96836 23.598666,5.64977 0.513417,1.6609 0.9917,3.44696 1.537035,4.98206 2.122232,5.97402 1.32977,11.21804 -1.003186,15.43647 -2.332956,4.21843 -6.250622,7.39264 -10.364097,9.01093 -4.113474,1.61829 -8.36688,1.66032 -11.423732,-0.14354 -3.056852,-1.80387 -2.844319,-3.33584 1.859464,-3.1104 l -8.431779,-8.8456 c -0.364951,6.83984 1.978053,11.32448 5.661062,13.49784 3.683009,2.17337 8.499107,2.03506 12.99141,0.26774 4.492303,-1.76732 8.717239,-5.18373 11.275351,-9.80928 2.558113,-4.62556 3.404573,-10.48029 1.122536,-16.90416 -0.537988,-1.51442 -1.010725,-3.28502 -1.517681,-4.92883 C 67.893438,97.354553 78.197811,82.347799 70.562765,70.36688 64.761957,61.26425 54.722205,58.416942 46.733082,60.049555 46.287007,55.396154 45.978022,50.717191 45.781507,46.050121 46.591412,45.610559 47.371178,45.151024 48.223345,44.740496 54.799866,41.572287 58.318932,35.773717 59.766426,29.497564 61.213922,23.221411 60.656398,16.436426 59.148709,10.964442 58.394865,8.2284492 57.403842,5.8214966 56.271406,3.9534343 55.138972,2.0853721 53.88839,0.71145909 52.381241,0.19068364 52.004454,0.06048895 51.606756,-0.00557868 51.208708,3.6853969e-4 Z M 51.795781,1.8841634 c 0.814091,0.2812988 1.925946,1.3198274 2.94343,2.9982657 1.017483,1.6784383 1.964056,3.9515628 2.682149,6.5577989 1.436187,5.212475 1.958882,11.755089 0.598363,17.654126 -1.360519,5.899038 -4.5371,11.123555 -10.573767,14.031691 -0.595489,0.286875 -1.131832,0.616589 -1.707995,0.917705 -0.404455,-11.893535 -0.01212,-23.554705 1.532196,-33.724443 0.56106,-3.6947147 1.40699,-6.0796168 2.262812,-7.325511 0.427911,-0.6229475 0.838875,-0.9515788 1.190274,-1.0983426 0.351401,-0.1467639 0.665492,-0.1519398 1.072538,-0.011288 z M 43.989645,47.012985 c 0.203385,4.503676 0.520197,9.019235 0.9548,13.502681 -3.565792,1.081207 -6.911401,3.853498 -8.244082,5.962662 -1.332681,2.109164 -2.988805,6.918324 0.07724,10.872957 -0.864066,-2.137108 -0.459419,-7.490129 1.437215,-9.914932 1.896634,-2.424803 3.84644,-4.103743 6.928006,-5.106244 1.475534,14.206953 4.066956,27.76791 7.378734,38.990361 -6.688256,2.14187 -13.92868,1.52187 -19.53792,-3.94339 -8.370062,-8.155207 -10.69469,-18.242363 -7.919035,-27.863391 2.445553,-8.476821 8.922372,-16.594071 18.925042,-22.500704 z m 8.327083,14.392967 c 6.093124,0.3636 12.579589,3.400891 16.73642,9.923793 6.860857,10.766058 -2.70355,24.622098 -14.82682,29.434295 -3.279504,-11.154404 -5.855934,-24.723634 -7.314221,-38.935524 1.716396,-0.368003 3.535719,-0.534089 5.404621,-0.422564 z"
         id="path4"
         sodipodi:nodetypes="sssscsscssssccsssscsccssssssssssscssssscczczccsscssccs" />
      <circle
         style="fill:#decdc2;fill-opacity:1;stroke:none;stroke-width:2.27628;stroke-linecap:round;stroke-linejoin:round;stroke-dasharray:none;stroke-opacity:1;paint-order:markers stroke fill"
         id="path2"
         cx="8.8493872"
         cy="40.236122"
         r="8.8493872" />
      <circle
         style="fill:#decdc2;fill-opacity:1;stroke:none;stroke-width:2.27628;stroke-linecap:round;stroke-linejoin:round;stroke-dasharray:none;stroke-opacity:1;paint-order:markers stroke fill"
         id="circle2"
         cx="8.8493872"
         cy="95.230545"
         r="8.8493872" />
      <rect
         style="fill:#decdc2;fill-opacity:1;stroke:none;stroke-width:2.27628;stroke-linecap:round;stroke-linejoin:round;stroke-dasharray:none;stroke-opacity:1;paint-order:markers stroke fill"
         id="rect2"
         width="66.292419"
         height="7.6032143"
         x="69.174248"
         y="122.13956" />
      <circle
         style="fill:#decdc2;fill-opacity:1;stroke:none;stroke-width:2.27628;stroke-linecap:round;stroke-linejoin:round;stroke-dasharray:none;stroke-opacity:1;paint-order:markers stroke fill"
         id="path5"
         cx="34.078384"
         cy="120.3568"
         r="8.8557253" />
      <path
         id="rect5"
         style="fill:#decdc2;fill-opacity:1;stroke:none;stroke-width:2.27628;stroke-linecap:round;stroke-linejoin:round;paint-order:markers stroke fill"
         d="m 39.714412,65.704789 c -0.56101,-1.017775 -1.073646,-0.33771 0.108213,-1.240272 1.181859,-0.902563 5.29254,-2.885038 5.29254,-2.885038 l 12.997817,-0.875611 9.792963,6.215243 4.995615,9.322525 -1.399234,10.612492 -8.365047,10.718752 c 0,0 -5.024297,2.030373 -8.910951,3.19116 C 70.893106,92.79119 68.108562,74.901762 60.838611,67.73333 50.368059,57.408992 41.773631,63.529583 39.714412,65.704789 Z"
         sodipodi:nodetypes="czcccccccsc" />
      <path
         id="rect6"
         style="fill:#decdc2;fill-opacity:1;stroke-width:2.27628;stroke-linecap:round;stroke-linejoin:round;paint-order:markers stroke fill"
         d="m 57.42136,11.440228 c 2.227607,1.54934 3.183723,10.844724 3.183723,10.844724 l -3.257007,13.711425 c 0,0 -4.43863,6.089581 -11.566569,10.053744 -7.127938,3.964163 -12.87909,16.768323 -14.281483,24.11868 C 30.09763,77.519158 31.073284,104.4882 49.453523,102.09612 34.078384,109.9465 22.852978,83.297345 22.852978,83.297345 l 0.489113,-14.28041 7.731193,-13.72579 c 0,0 6.872832,-4.670908 12.872814,-10.286143 0.742445,-0.694836 0.905415,-0.491641 1.791863,-0.961252 2.702881,-1.431897 7.06442,-7.576242 8.2884,-9.734095 3.321715,-5.856124 5.383051,-15.449916 3.394999,-22.869427 z"
         sodipodi:nodetypes="ccczzccccsssc" />
    </g>
    <rect
       style="fill:#9d957e;stroke:none;stroke-width:2.11667;stroke-linecap:round;stroke-linejoin:round;stroke-dasharray:none;stroke-opacity:1;paint-order:stroke markers fill;fill-opacity:1"
       id="rect16"
       width="135.46666"
       height="17.240454"
       x="0"
       y="0"
       ry="0" />
    <rect
       style="opacity:0.6;fill:#ffffff;fill-opacity:1;stroke:none;stroke-width:2.11667;stroke-linecap:round;stroke-linejoin:round;stroke-dasharray:none;stroke-opacity:1;paint-order:stroke markers fill"
       id="rect17"
       width="133.29677"
       height="1.0583333"
       x="1.085202"
       y="17.240454" />
    <rect
       style="fill:url(#linearGradient19);stroke:none;stroke-width:2.11667;stroke-linecap:round;stroke-linejoin:round;stroke-dasharray:none;stroke-opacity:1;paint-order:stroke markers fill;opacity:0.2"
       id="rect18"
       width="133.87917"
       height="15.971"
       x="0.79374695"
       y="0.68272686"
       ry="0" />
  </g>
</svg>
