<?xml version="1.0" encoding="UTF-8" standalone="no"?>
<!-- Created with Inkscape (http://www.inkscape.org/) -->

<svg
   width="512"
   height="512"
   viewBox="0 0 135.46666 135.46667"
   version="1.1"
   id="svg5"
   inkscape:version="1.4 (e7c3feb100, 2024-10-09)"
   sodipodi:docname="deskflow.svg"
   xmlns:inkscape="http://www.inkscape.org/namespaces/inkscape"
   xmlns:sodipodi="http://sodipodi.sourceforge.net/DTD/sodipodi-0.dtd"
   xmlns:xlink="http://www.w3.org/1999/xlink"
   xmlns="http://www.w3.org/2000/svg"
   xmlns:svg="http://www.w3.org/2000/svg">
  <sodipodi:namedview
     id="namedview7"
     pagecolor="#242424"
     bordercolor="#666666"
     borderopacity="1"
     inkscape:showpageshadow="0"
     inkscape:pageopacity="0"
     inkscape:pagecheckerboard="1"
     inkscape:deskcolor="#000000"
     inkscape:document-units="px"
     showgrid="false"
     inkscape:zoom="0.65186408"
     inkscape:cx="464.82083"
     inkscape:cy="258.48947"
     inkscape:window-width="3256"
     inkscape:window-height="1080"
     inkscape:window-x="1864"
     inkscape:window-y="0"
     inkscape:window-maximized="0"
     inkscape:current-layer="layer1" />
  <defs
     id="defs2">
    <linearGradient
       id="linearGradient19"
       inkscape:collect="always">
      <stop
         style="stop-color:#006652;stop-opacity:1;"
         offset="0"
         id="stop19" />
      <stop
         style="stop-color:#008066;stop-opacity:0;"
         offset="1"
         id="stop20" />
    </linearGradient>
    <linearGradient
       id="linearGradient17"
       inkscape:collect="always">
      <stop
         style="stop-color:#000080;stop-opacity:1;"
         offset="0"
         id="stop17" />
      <stop
         style="stop-color:#000080;stop-opacity:0;"
         offset="1"
         id="stop18" />
    </linearGradient>
    <linearGradient
       id="linearGradient15"
       inkscape:collect="always">
      <stop
         style="stop-color:#008000;stop-opacity:1;"
         offset="0"
         id="stop15" />
      <stop
         style="stop-color:#008000;stop-opacity:0;"
         offset="1"
         id="stop16" />
    </linearGradient>
    <linearGradient
       inkscape:collect="always"
       xlink:href="#linearGradient15"
       id="linearGradient16"
       x1="98.349655"
       y1="-99.904724"
       x2="98.349655"
       y2="-141.49698"
       gradientUnits="userSpaceOnUse"
       gradientTransform="translate(-23.940469,141.64048)" />
    <linearGradient
       inkscape:collect="always"
       xlink:href="#linearGradient17"
       id="linearGradient18"
       x1="411.34067"
       y1="80.920067"
       x2="411.34067"
       y2="39.327675"
       gradientUnits="userSpaceOnUse"
       gradientTransform="translate(-350.28008,54.415747)" />
    <linearGradient
       inkscape:collect="always"
       xlink:href="#linearGradient19"
       id="linearGradient20"
       x1="264.99487"
       y1="34.66972"
       x2="264.99487"
       y2="4.1971598"
       gradientUnits="userSpaceOnUse"
       gradientTransform="translate(-197.26155,48.299893)" />
  </defs>
  <g
     inkscape:label="Layer 1"
     inkscape:groupmode="layer"
     id="layer1">
    <path
       style="fill:none;stroke:#00ff66;stroke-width:10.5833;stroke-linecap:round;stroke-linejoin:miter;stroke-miterlimit:1;stroke-dasharray:none;stroke-opacity:1"
       d="m 45.313058,21.057257 c 0,0 15.255262,-9.94476 24.900258,-9.94476 9.644996,0 25.416437,19.889519 35.061424,19.889519 9.645,0 24.90025,-9.944759 24.90025,-9.944759"
       id="path1"
       sodipodi:nodetypes="czzc" />
    <path
       style="fill:none;stroke:#00ffcc;stroke-width:10.5833;stroke-linecap:round;stroke-linejoin:miter;stroke-dasharray:none;stroke-opacity:1"
       d="m 25.302362,67.733332 c 0,0 15.255262,-9.944759 24.900258,-9.944759 9.644996,0 25.416433,19.889518 35.061429,19.889518 9.644999,0 24.900251,-9.944759 24.900251,-9.944759"
       id="path2"
       sodipodi:nodetypes="czzc" />
    <path
       style="fill:none;stroke:#00ccff;stroke-width:10.5833;stroke-linecap:round;stroke-linejoin:miter;stroke-miterlimit:1;stroke-dasharray:none;stroke-opacity:1"
       d="m 5.2916664,114.40942 c 0,0 15.2552626,-9.94477 24.9002586,-9.94477 9.644996,0 25.416433,19.88953 35.061429,19.88953 9.644999,0 24.900253,-9.94476 24.900253,-9.94476"
       id="path3"
       sodipodi:nodetypes="czzc" />
    <path
       sodipodi:type="star"
       style="opacity:1;fill:none;stroke:#00ccff;stroke-width:22.6292;stroke-linecap:butt;stroke-linejoin:round;stroke-miterlimit:1;stroke-dasharray:none;stroke-opacity:1;paint-order:fill markers stroke"
       id="path6"
       inkscape:flatsided="false"
       sodipodi:sides="3"
       sodipodi:cx="197.74689"
       sodipodi:cy="92.415817"
       sodipodi:r1="44.202599"
       sodipodi:r2="21.659271"
       sodipodi:arg1="0"
       sodipodi:arg2="1.0471976"
       inkscape:rounded="0"
       inkscape:randomized="0"
       d="m 241.94949,92.415817 -33.37297,18.757483 -32.93093,19.52309 0.44203,-38.280574 -0.44203,-38.280572 32.93093,19.523095 z"
       inkscape:transform-center-x="1.5802373e-06"
       transform="matrix(0,0.46768297,-0.46768297,0,142.14746,16.861733)"
       inkscape:transform-center-y="5.1681989" />
    <path
       sodipodi:type="star"
       style="opacity:1;fill:none;stroke:#00ff66;stroke-width:22.6292;stroke-linecap:butt;stroke-linejoin:round;stroke-miterlimit:1;stroke-dasharray:none;stroke-opacity:1;paint-order:fill markers stroke"
       id="path7"
       inkscape:flatsided="false"
       sodipodi:sides="3"
       sodipodi:cx="197.74689"
       sodipodi:cy="92.415817"
       sodipodi:r1="44.202599"
       sodipodi:r2="21.659271"
       sodipodi:arg1="0"
       sodipodi:arg2="1.0471976"
       inkscape:rounded="0"
       inkscape:randomized="0"
       d="m 241.94949,92.415817 -33.37297,18.757483 -32.93093,19.52309 0.44203,-38.280574 -0.44203,-38.280572 32.93093,19.523095 z"
       inkscape:transform-center-x="1.5802373e-06"
       transform="matrix(0,-0.46768297,-0.46768297,0,79.761809,118.60495)"
       inkscape:transform-center-y="-5.1681958" />
    <path
       id="path4"
       style="fill:url(#linearGradient20);stroke-linecap:round;stroke-miterlimit:1"
       d="m 50.201378,52.497053 c -6.6412,0 -13.09242,2.885853 -18.41386,5.521627 -5.32144,2.635774 -9.37514,5.281331 -9.37514,5.281331 -2.4478,1.595977 -3.1386,4.873954 -1.54306,7.322033 1.59598,2.447795 4.87395,3.138601 7.32203,1.543059 0,0 3.5756,-2.325642 8.29304,-4.662248 4.71744,-2.336606 10.7132,-4.423503 13.71699,-4.423503 0.59255,0 2.76513,0.666158 5.38882,2.304769 2.62369,1.638612 5.70561,4.029176 8.88266,6.515365 3.17706,2.48619 6.44931,5.067547 9.79682,7.158219 3.34751,2.090673 6.76421,3.911906 10.99416,3.911906 6.6412,0 13.09449,-2.887402 18.415932,-5.523177 5.32143,-2.635774 9.37307,-5.281331 9.37307,-5.281331 2.44851,-1.595307 3.14027,-4.873419 1.54512,-7.322034 -1.59607,-2.449072 -4.87561,-3.140014 -7.3241,-1.543058 0,0 -3.57404,2.327193 -8.291482,4.663798 -4.71744,2.336606 -10.71474,4.421952 -13.71854,4.421952 -0.59254,0 -2.76513,-0.666157 -5.38882,-2.304769 -2.62369,-1.638612 -5.70355,-4.029174 -8.8806,-6.515364 -3.17706,-2.48619 -6.45136,-5.067547 -9.79888,-7.158219 -3.34751,-2.090673 -6.76421,-3.910356 -10.99416,-3.910356 z"
       sodipodi:nodetypes="sscccssssssscccssssss" />
    <path
       id="path14"
       style="fill:url(#linearGradient16);stroke-linecap:round;stroke-miterlimit:1"
       d="m 35.750047,0.20407701 c -1.610108,0.24535 -3.017565,1.21839999 -3.81579,2.63807999 l -8.74262,15.55461 -9.0997,15.34893 c -2.104159,3.55094 0.485877,8.036719 4.61316,7.989697 l 17.84232,-0.205677 17.84232,0.205677 c 2.598283,0.02943 4.833556,-1.831847 5.27513,-4.392497 0.213727,-1.23969 -0.02114,-2.51498 -0.66249,-3.5972 l -6.43372,-10.85205 c 1.17411,-0.65603 2.46353,-1.35415 3.93309,-2.08204 4.71744,-2.33661 10.71475,-4.42144 13.71855,-4.42144 0.59255,0 2.76512,0.66564 5.38881,2.30426 2.623694,1.63861 5.703554,4.02969 8.880604,6.51588 3.177051,2.48619 6.449301,5.06754 9.796821,7.15822 3.34751,2.09067 6.764198,3.90984 10.994158,3.90984 6.6412,0 13.09449,-2.88534 18.41593,-5.52111 5.32144,-2.63578 9.37514,-5.28134 9.37514,-5.28134 2.44811,-1.596 3.13895,-4.87437 1.54305,-7.32255 -1.59615,-2.44761 -4.87409,-3.13818 -7.32203,-1.54254 0,0 -3.5756,2.32513 -8.29303,4.66173 -4.71744,2.33661 -10.71527,4.42402 -13.71906,4.42402 -0.59254,0 -2.76306,-0.66615 -5.386752,-2.30477 -2.623686,-1.63861 -5.705596,-4.02917 -8.882656,-6.51536 -3.17705,-2.48619 -6.449301,-5.06755 -9.796821,-7.1582199 C 77.866941,7.627557 74.450247,5.805807 70.220297,5.805807 c -6.6412,0 -13.09449,2.88792 -18.41593,5.52369 -1.69495,0.83953 -3.17712,1.64467 -4.52479,2.40037 L 41.160057,2.842157 C 40.081021,0.92307706 37.926568,-0.12749299 35.750047,0.20407701 Z m 0.79737,16.03105999 4.15995,7.40059 c 0.01992,0.0355 0.04025,0.0709 0.06098,0.10593 l 4.32945,7.30292 -8.48941,-0.0987 c -0.04082,-4.7e-4 -0.08165,-4.7e-4 -0.12247,0 l -8.48837,0.0987 4.32894,-7.30292 c 0.02073,-0.0351 0.04106,-0.0704 0.06097,-0.10593 z"
       sodipodi:nodetypes="ccccccccccssssssscccsssssssccccccccccccc" />
    <path
       id="path15"
       style="fill:url(#linearGradient18);stroke-linecap:round;stroke-miterlimit:1"
       d="m 81.084154,93.743787 c -4.12745,-0.04685 -6.71727,4.439345 -4.61263,7.990193 l 6.43319,10.85101 c -1.17437,0.65604 -2.46351,1.35415 -3.93309,2.08205 -4.71744,2.3366 -10.71474,4.42195 -13.71854,4.42195 -0.59254,0 -2.76306,-0.66616 -5.38675,-2.30477 -2.62369,-1.63861 -5.70561,-4.02917 -8.88266,-6.51536 -3.17705,-2.48619 -6.44931,-5.06755 -9.79682,-7.15822 -3.34752,-2.09068 -6.7642,-3.910364 -10.99416,-3.910364 -6.6412,0 -13.09449,2.885854 -18.415932,5.521634 -5.3214409,2.63578 -9.3730711,5.28133 -9.3730711,5.28133 -2.44851988,1.5953 -3.14027984,4.87342 -1.54512996,7.32203 1.59606996,2.44908 4.87561006,3.14002 7.32410016,1.54306 0,0 3.5735409,-2.32564 8.2909729,-4.66225 4.71744,-2.3366 10.71527,-4.4235 13.71906,-4.4235 0.59255,0 2.76461,0.66616 5.3883,2.30477 2.62369,1.63861 5.70405,4.02917 8.88111,6.51536 3.17705,2.4862 6.4493,5.06755 9.79682,7.15822 3.34752,2.09068 6.76421,3.91243 10.99416,3.91243 6.64121,0 13.09449,-2.88792 18.41593,-5.5237 1.69494,-0.83952 3.17711,-1.64519 4.52479,-2.40088 l 6.12004,10.88874 c 2.02304,3.5977 7.202756,3.5977 9.225806,0 l 8.74263,-15.55513 9.0997,-15.34841 c 0.64117,-1.08228 0.87586,-2.357574 0.66198,-3.597198 -0.44135,-2.560845 -2.67668,-4.422379 -5.27513,-4.392995 l -17.842346,0.205672 z m 9.29246,10.690803 8.48889,0.0987 c 0.0408,4.7e-4 0.0817,4.7e-4 0.12247,0 l 8.489426,-0.0987 -4.32946,7.30343 c -0.0209,0.0351 -0.0414,0.0704 -0.0615,0.10593 l -4.159966,7.40059 -4.15944,-7.40059 c -0.0201,-0.0356 -0.0406,-0.0709 -0.0615,-0.10593 z"
       sodipodi:nodetypes="cccssssssscccsssssssccccccccccccccccccc" />
  </g>
</svg>
