<?xml version="1.0" encoding="UTF-8" standalone="no"?>
<!-- Created with Inkscape (http://www.inkscape.org/) -->

<svg
   width="512"
   height="512"
   viewBox="0 0 135.46666 135.46667"
   version="1.1"
   id="svg5"
   inkscape:version="1.4 (e7c3feb100, 2024-10-09)"
   sodipodi:docname="desktop-environment-unity.svg"
   xmlns:inkscape="http://www.inkscape.org/namespaces/inkscape"
   xmlns:sodipodi="http://sodipodi.sourceforge.net/DTD/sodipodi-0.dtd"
   xmlns="http://www.w3.org/2000/svg"
   xmlns:svg="http://www.w3.org/2000/svg">
  <sodipodi:namedview
     id="namedview7"
     pagecolor="#242424"
     bordercolor="#666666"
     borderopacity="1"
     inkscape:showpageshadow="0"
     inkscape:pageopacity="0"
     inkscape:pagecheckerboard="1"
     inkscape:deskcolor="#000000"
     inkscape:document-units="px"
     showgrid="false"
     inkscape:zoom="0.65186406"
     inkscape:cx="276.89822"
     inkscape:cy="298.37509"
     inkscape:window-width="3256"
     inkscape:window-height="1080"
     inkscape:window-x="1864"
     inkscape:window-y="0"
     inkscape:window-maximized="0"
     inkscape:current-layer="layer1" />
  <defs
     id="defs2" />
  <g
     inkscape:label="Layer 1"
     inkscape:groupmode="layer"
     id="layer1">
    <path
       d="m 67.733332,7.88e-4 c -37.415452,0 -67.7329395,30.317488 -67.7329395,67.732933 0,37.415449 30.3174875,67.732939 67.7329395,67.732939 37.415448,0 67.732938,-30.31749 67.732938,-67.732939 0,-4.65331 -0.43591,-9.23026 -1.32947,-13.6198 -1.45569,5.47842 -3.07653,10.89078 -5.17792,15.78883 -0.7379,1.50905 -1.5686,3.05101 -2.79889,4.05837 -1.13523,0.88445 -2.58393,1.30765 -4.1289,1.33003 -0.87997,-0.0358 -1.80697,-0.25078 -2.58841,-0.49036 l 0.55976,-2.37904 c 1.51505,0.64313 3.47735,0.59134 4.68826,-0.34987 0.64783,-0.50156 1.22681,-1.29963 1.74928,-2.44913 -2.83492,-5.42266 -5.05634,-11.00117 -6.50728,-16.5134 h 3.07877 c 1.20723,4.45895 2.87166,9.22622 4.68824,13.15474 1.70938,-4.70794 2.69588,-9.0124 3.70841,-13.15474 h 2.51899 C 127.23666,22.726924 100.12557,3.9999999e-6 67.732432,3.9999999e-6 Z m 66.192438,53.109343 c 0.0717,0.32525 0.14303,0.67744 0.20991,1.00442 0.0848,-0.33491 0.1972,-0.66674 0.27989,-1.00442 z m -31.41689,-6.78673 c 0.9705,-1.1e-4 1.88233,0.59672 1.88924,1.88925 -0.006,1.18773 -0.86938,1.90357 -1.88924,1.88924 -1.047,0.0144 -1.81677,-0.69696 -1.81928,-1.88924 0.0378,-1.30327 0.79263,-1.89632 1.81928,-1.88925 z m 9.37626,1.67933 v 5.10785 h 6.22739 v 2.44913 h -6.22739 v 7.48712 c 0,0.81504 0.0845,1.48583 0.20991,2.02919 0.28213,1.38431 1.05514,2.0064 2.79887,2.09917 1.6914,-0.0317 2.15529,-0.27718 3.21873,-0.76971 l 0.63143,2.44735 c -1.37992,0.63136 -2.46123,0.8085 -4.05839,0.83966 -2.01311,-0.0816 -2.98562,-0.0176 -4.47821,-1.67932 -1.1813,-1.41615 -1.18693,-3.27782 -1.18952,-4.89804 v -14.55419 z m -87.186295,4.26818 h 11.61536 v 34.14637 c -2e-5,7.94142 1.27067,13.57592 3.77849,17.003309 2.507817,3.42741 6.729857,5.17793 12.664827,5.17793 4.42761,-0.1136 10.67337,-0.53899 12.94472,-1.25949 V 52.270471 h 11.61535 v 63.324139 c -8.65637,2.18088 -16.91867,3.26909 -25.81688,3.28925 C 31.026334,118.9869 24.792664,105.79629 24.700861,88.866411 Z m 68.012837,1.04958 c 1.84829,0.75463 3.43232,2.46571 3.42851,6.92735 v 9.16645 h -2.93882 v -8.53659 c -0.0437,-2.88352 -0.29,-4.58211 -2.09917,-5.24802 -1.3527,-0.45973 -2.00074,-0.62636 -5.17793,0 v 13.78439 h -2.93882 v -15.88377 c 3.76975,-0.739 7.06169,-1.20258 9.72623,-0.20992 z m 8.396628,-0.20991 h 2.93884 v 16.30337 h -2.93884 z"
       fill-opacity="0.94118"
       fill="#982e6f"
       id="path1"
       style="stroke-width:1.39946" />
  </g>
</svg>
