<?xml version="1.0" encoding="UTF-8" standalone="no"?>
<!-- Created with Inkscape (http://www.inkscape.org/) -->

<svg
   width="512"
   height="512"
   viewBox="0 0 135.46666 135.46667"
   version="1.1"
   id="svg5"
   inkscape:version="1.4 (e7c3feb100, 2024-10-09)"
   sodipodi:docname="desktop-environment-kde.svg"
   xmlns:inkscape="http://www.inkscape.org/namespaces/inkscape"
   xmlns:sodipodi="http://sodipodi.sourceforge.net/DTD/sodipodi-0.dtd"
   xmlns="http://www.w3.org/2000/svg"
   xmlns:svg="http://www.w3.org/2000/svg"
   xmlns:rdf="http://www.w3.org/1999/02/22-rdf-syntax-ns#"
   xmlns:cc="http://creativecommons.org/ns#"
   xmlns:dc="http://purl.org/dc/elements/1.1/">
  <sodipodi:namedview
     id="namedview7"
     pagecolor="#242424"
     bordercolor="#666666"
     borderopacity="1"
     inkscape:showpageshadow="0"
     inkscape:pageopacity="0"
     inkscape:pagecheckerboard="1"
     inkscape:deskcolor="#000000"
     inkscape:document-units="px"
     showgrid="false"
     inkscape:zoom="0.4609375"
     inkscape:cx="254.91525"
     inkscape:cy="257.08475"
     inkscape:window-width="3256"
     inkscape:window-height="1080"
     inkscape:window-x="1864"
     inkscape:window-y="0"
     inkscape:window-maximized="0"
     inkscape:current-layer="layer1" />
  <defs
     id="defs2" />
  <g
     inkscape:label="Layer 1"
     inkscape:groupmode="layer"
     id="layer1">
    <g
       id="g1"
       transform="matrix(3.9996065,0,0,3.9996065,-350.27387,-219.05345)"
       style="stroke-width:0.250025">
      <path
         d="m 87.577082,54.768749 h 33.869998 v 33.87 H 87.577082 Z"
         fill="#1d99f3"
         id="path1"
         style="stroke-width:0.250025" />
      <path
         d="m 106.38318,59.115749 -4.30242,0.41187 v 17.7156 l 4.25685,-0.64088 v -7.55326 l 5.72205,8.37759 4.48586,-1.41935 -5.85934,-8.05685 5.90521,-7.59912 -4.57729,-1.05245 -5.67649,7.59883 z m -9.752538,4.31712 c -0.04858,0.005 -0.09551,0.0265 -0.13199,0.0632 l -1.68863,1.68833 c -0.071,0.0712 -0.08437,0.18161 -0.03203,0.26782 l 1.97702,3.25614 c -0.35065,0.5895 -0.63169,1.22509 -0.83255,1.89559 l -3.6295,0.75494 c -0.10098,0.0209 -0.17374,0.11039 -0.17374,0.21402 v 2.38772 c 0,0.10098 0.06909,0.18844 0.16639,0.21196 l 3.52278,0.86107 c 0.18786,0.77655 0.47897,1.51268 0.86372,2.18928 l -2.03906,3.10944 c -0.05689,0.0869 -0.045,0.20138 0.0285,0.27458 l 1.68804,1.68834 c 0.071,0.0708 0.18183,0.0847 0.26841,0.0326 l 3.19528,-1.94057 c 0.627648,0.36219 1.304538,0.64721 2.019948,0.8405 l 0.74553,3.58451 c 0.021,0.10157 0.11076,0.17375 0.21373,0.17375 h 2.38802 c 0.10039,0 0.188,-0.0685 0.21196,-0.16699 l 0.87812,-3.59186 c 0.73745,-0.19902 1.43492,-0.49565 2.07786,-0.8743 l 3.14883,2.06463 c 0.0866,0.057 0.20109,0.0456 0.27458,-0.0279 l 1.68863,-1.68834 c 0.0714,-0.0714 0.0842,-0.18182 0.0317,-0.26781 l -1.14947,-1.89442 -0.37189,0.11759 c -0.0542,0.0171 -0.11333,-0.003 -0.14522,-0.0503 0,0 -0.73319,-1.07332 -1.68011,-2.45915 -1.13197,2.21544 -3.43502,3.73297 -6.09453,3.73297 -3.77847,0 -6.841828,-3.06343 -6.841828,-6.84212 0,-2.77974 1.65799,-5.17032 4.038128,-6.24122 v -1.76506 c -0.43318,0.15154 -0.85196,0.33425 -1.249718,0.55092 -2.9e-4,-2.7e-4 -5.8e-4,-0.001 -0.0017,-0.002 l -3.22292,-2.11384 c -0.04341,-0.0284 -0.09371,-0.0397 -0.14229,-0.0347 z"
         fill="#fcfcfc"
         stroke-width="0.0662565"
         id="path2" />
    </g>
  </g>
  <metadata
     id="metadata1">
    <rdf:RDF>
      <cc:Work
         rdf:about="">
        <dc:description>I haven't done anything to alter the logo and I am not the owner or creator of the design.</dc:description>
      </cc:Work>
    </rdf:RDF>
  </metadata>
</svg>
