<?xml version="1.0" encoding="UTF-8" standalone="no"?>
<!-- Created with Inkscape (http://www.inkscape.org/) -->

<svg
   width="512"
   height="512"
   viewBox="0 0 135.46666 135.46667"
   version="1.1"
   id="svg5"
   inkscape:version="1.4 (e7c3feb100, 2024-10-09)"
   xml:space="preserve"
   sodipodi:docname="start-here-mate.svg"
   xmlns:inkscape="http://www.inkscape.org/namespaces/inkscape"
   xmlns:sodipodi="http://sodipodi.sourceforge.net/DTD/sodipodi-0.dtd"
   xmlns:xlink="http://www.w3.org/1999/xlink"
   xmlns="http://www.w3.org/2000/svg"
   xmlns:svg="http://www.w3.org/2000/svg"
   xmlns:rdf="http://www.w3.org/1999/02/22-rdf-syntax-ns#"
   xmlns:cc="http://creativecommons.org/ns#"
   xmlns:dc="http://purl.org/dc/elements/1.1/"><sodipodi:namedview
     id="namedview7"
     pagecolor="#242424"
     bordercolor="#666666"
     borderopacity="1"
     inkscape:showpageshadow="0"
     inkscape:pageopacity="0"
     inkscape:pagecheckerboard="1"
     inkscape:deskcolor="#000000"
     inkscape:document-units="px"
     showgrid="false"
     inkscape:zoom="0.921875"
     inkscape:cx="358.50847"
     inkscape:cy="307.52542"
     inkscape:window-width="3256"
     inkscape:window-height="1080"
     inkscape:window-x="1864"
     inkscape:window-y="0"
     inkscape:window-maximized="0"
     inkscape:current-layer="layer1" /><defs
     id="defs2"><linearGradient
       id="linearGradient3907"><stop
         id="stop3909"
         style="stop-color:#e1e1e1;stop-opacity:1"
         offset="0" /><stop
         id="stop3911"
         style="stop-color:#ffffff;stop-opacity:1"
         offset="1" /></linearGradient><linearGradient
       x1="45.447727"
       y1="92.539597"
       x2="45.447727"
       y2="7.0165396"
       id="ButtonShadow"
       gradientUnits="userSpaceOnUse"
       gradientTransform="scale(1.0058652,0.994169)"><stop
         id="stop3750"
         style="stop-color:#ff0000;stop-opacity:1;"
         offset="0" /><stop
         id="stop3752"
         style="stop-color:#000000;stop-opacity:0.58823532"
         offset="1" /></linearGradient><linearGradient
       id="linearGradient3737"><stop
         id="stop3739"
         style="stop-color:#ffffff;stop-opacity:1;"
         offset="0" /><stop
         id="stop3741"
         style="stop-color:#ffffff;stop-opacity:0"
         offset="1" /></linearGradient><linearGradient
       id="linearGradient3700"><stop
         id="stop3702"
         style="stop-color:#57c412;stop-opacity:1;"
         offset="0" /><stop
         id="stop3704"
         style="stop-color:#92d74e;stop-opacity:1"
         offset="1" /></linearGradient><filter
       color-interpolation-filters="sRGB"
       id="filter3174"
       x="-0.047720931"
       y="-0.048282354"
       width="1.0954419"
       height="1.0965647"><feGaussianBlur
         id="feGaussianBlur3176"
         stdDeviation="1.71" /></filter><linearGradient
       x1="36.357143"
       y1="6"
       x2="36.357143"
       y2="81.384666"
       id="linearGradient3188"
       xlink:href="#linearGradient3737"
       gradientUnits="userSpaceOnUse"
       gradientTransform="matrix(0.26458333,0,0,0.26458333,54.504166,54.901041)" /><filter
       x="-0.19262146"
       y="-0.19262146"
       width="1.3852429"
       height="1.3852429"
       color-interpolation-filters="sRGB"
       id="filter3794"><feGaussianBlur
         id="feGaussianBlur3796"
         stdDeviation="5.28" /></filter><linearGradient
       x1="48"
       y1="20.220806"
       x2="48"
       y2="138.66119"
       id="linearGradient3613"
       xlink:href="#linearGradient3737"
       gradientUnits="userSpaceOnUse" /><radialGradient
       cx="48"
       cy="90.171875"
       r="42"
       fx="48"
       fy="90.171875"
       id="radialGradient3619"
       xlink:href="#linearGradient3737"
       gradientUnits="userSpaceOnUse"
       gradientTransform="matrix(0.05447577,-0.05887891,0.1052156,0.09734726,55.101841,72.761744)" /><clipPath
       id="clipPath3613"><rect
         width="84"
         height="84"
         rx="6"
         ry="6"
         x="6"
         y="6"
         id="rect3615"
         style="fill:#ffffff;fill-opacity:1;fill-rule:nonzero;stroke:none" /></clipPath><linearGradient
       x1="48"
       y1="90"
       x2="48"
       y2="69.445343"
       id="linearGradient3617"
       xlink:href="#linearGradient3700"
       gradientUnits="userSpaceOnUse"
       gradientTransform="matrix(0.26458333,0,0,0.26458333,54.504166,54.901041)" /><linearGradient
       x1="45.447727"
       y1="92.539597"
       x2="45.447727"
       y2="7.0165396"
       id="ButtonShadow-0"
       gradientUnits="userSpaceOnUse"
       gradientTransform="matrix(1.0058652,0,0,0.994169,100,0)"><stop
         id="stop3750-8"
         style="stop-color:#000000;stop-opacity:1"
         offset="0" /><stop
         id="stop3752-5"
         style="stop-color:#000000;stop-opacity:0.58823532"
         offset="1" /></linearGradient><linearGradient
       x1="32.251034"
       y1="6.1317081"
       x2="32.251034"
       y2="90.238609"
       id="linearGradient3780"
       xlink:href="#ButtonShadow-0"
       gradientUnits="userSpaceOnUse"
       gradientTransform="matrix(0.27088293,0,0,0.26773314,54.201785,-80.849106)" /><linearGradient
       x1="32.251034"
       y1="6.1317081"
       x2="32.251034"
       y2="90.238609"
       id="linearGradient3721"
       xlink:href="#ButtonShadow-0"
       gradientUnits="userSpaceOnUse"
       gradientTransform="matrix(0.26458333,0,0,0.26458333,54.504166,-80.565624)" /><linearGradient
       x1="48"
       y1="67.218414"
       x2="48"
       y2="28.781588"
       id="linearGradient3913"
       xlink:href="#linearGradient3907"
       gradientUnits="userSpaceOnUse" /><linearGradient
       y2="18.908218"
       x2="10.915961"
       y1="14.010388"
       x1="10.915961"
       gradientTransform="matrix(2.3340955,0,0,2.0797356,-1.8209963,2.8226078)"
       gradientUnits="userSpaceOnUse"
       id="linearGradient3022"
       xlink:href="#linearGradient5671"
       inkscape:collect="always" /><linearGradient
       id="linearGradient5671"
       inkscape:collect="always"><stop
         id="stop5673"
         offset="0"
         style="stop-color:#729fcf;stop-opacity:1;" /><stop
         id="stop5675"
         offset="1"
         style="stop-color:#3465a4;stop-opacity:1" /></linearGradient></defs><g
     inkscape:label="Layer 1"
     inkscape:groupmode="layer"
     id="layer1"><g
       id="g3"
       transform="matrix(6.0952379,0,0,6.0952379,-341.89205,-344.31109)"
       style="stroke-width:0.164062"><rect
         width="22.225"
         height="22.225"
         rx="1.5875"
         ry="1.5875"
         x="56.091667"
         y="56.488541"
         id="rect2419"
         style="fill:url(#linearGradient3617);fill-opacity:1;fill-rule:nonzero;stroke:none;stroke-width:0.0434081"
         inkscape:export-filename="/home/rowen/MATE/Icon themes/Faenza MATE/places/96/distributor-logo-mate.png"
         inkscape:export-xdpi="102.85714"
         inkscape:export-ydpi="102.85714" /><path
         d="m 57.679166,56.488541 c -0.879475,0 -1.5875,0.708025 -1.5875,1.5875 v 0.529167 17.991666 0.529167 c 0,0.08856 0.01094,0.172164 0.02481,0.256315 0.01289,0.07821 0.02567,0.157934 0.04961,0.23151 0.0026,0.008 0.0055,0.01683 0.0083,0.02481 0.02616,0.07614 0.06215,0.144847 0.09922,0.214974 0.03826,0.07237 0.08351,0.141715 0.132292,0.206706 0.04879,0.06499 0.09889,0.125272 0.157096,0.181901 0.116403,0.113256 0.249478,0.21551 0.396875,0.289388 0.0737,0.03694 0.151731,0.06534 0.23151,0.09095 -0.06779,-0.02652 -0.128775,-0.06251 -0.190169,-0.09922 -0.002,-0.0012 -0.0063,0.0012 -0.0083,0 -0.0084,-0.0051 -0.01648,-0.01125 -0.02481,-0.01654 -0.03185,-0.02029 -0.06112,-0.04326 -0.09095,-0.06615 -0.02809,-0.02138 -0.05643,-0.04263 -0.08268,-0.06615 -0.04708,-0.04271 -0.09193,-0.09138 -0.132291,-0.14056 -0.02846,-0.03446 -0.05778,-0.07019 -0.08268,-0.107487 -0.0066,-0.01015 -0.01017,-0.02272 -0.01654,-0.03307 -0.01714,-0.02726 -0.03446,-0.05411 -0.04961,-0.08268 -0.02672,-0.05152 -0.05442,-0.109987 -0.07441,-0.165364 -0.0021,-0.0058 -0.0062,-0.01073 -0.0083,-0.01654 -0.0084,-0.02433 -0.0095,-0.04943 -0.01654,-0.07441 -0.008,-0.02821 -0.01862,-0.05372 -0.02481,-0.08268 -0.01928,-0.09036 -0.03307,-0.184734 -0.03307,-0.28112 V 76.861457 58.869791 58.340624 c 0,-0.73603 0.586886,-1.322916 1.322917,-1.322916 h 0.529167 17.991666 0.529167 c 0.73603,0 1.322916,0.586886 1.322916,1.322916 v 0.529167 17.991666 0.529167 c 0,0.09639 -0.01379,0.190761 -0.03307,0.28112 -0.01168,0.05474 -0.02338,0.105214 -0.04134,0.157096 -0.002,0.0058 -0.0062,0.01077 -0.0083,0.01654 -0.0166,0.04597 -0.03661,0.09722 -0.05788,0.14056 -0.011,0.02191 -0.02091,0.04497 -0.03307,0.06614 -0.01445,0.02572 -0.03354,0.04984 -0.04961,0.07441 -0.0249,0.0373 -0.05422,0.07302 -0.08268,0.107487 -0.03788,0.04616 -0.08021,0.09181 -0.124024,0.132292 -0.003,0.0027 -0.0053,0.0056 -0.0083,0.0083 -0.03661,0.03322 -0.07543,0.06203 -0.115755,0.09095 -0.02714,0.01935 -0.05406,0.04058 -0.08268,0.05788 -0.002,0.0012 -0.0063,-0.0012 -0.0083,0 -0.06139,0.03671 -0.122383,0.0727 -0.19017,0.09922 0.07978,-0.02561 0.157812,-0.05401 0.231511,-0.09095 0.147396,-0.07388 0.280472,-0.176132 0.396875,-0.289388 0.0582,-0.05663 0.108311,-0.11691 0.157096,-0.181901 0.04879,-0.06499 0.09404,-0.134341 0.132292,-0.206706 0.03707,-0.07013 0.07306,-0.138835 0.09922,-0.214974 0.0028,-0.0081 0.0056,-0.0166 0.0083,-0.02481 0.02393,-0.07358 0.03672,-0.1533 0.04961,-0.23151 0.01386,-0.08415 0.02481,-0.167754 0.02481,-0.256315 V 76.596874 58.605208 58.076041 c 0,-0.879475 -0.708025,-1.5875 -1.5875,-1.5875 z"
         inkscape:connector-curvature="0"
         id="rect3728"
         style="opacity:0.45;fill:url(#linearGradient3188);fill-opacity:1;fill-rule:nonzero;stroke:none;stroke-width:0.0434081" /><path
         d="m 57.679166,78.713541 c -0.879475,0 -1.5875,-0.708025 -1.5875,-1.5875 V 76.596874 58.605208 58.076041 c 0,-0.08856 0.01094,-0.172164 0.02481,-0.256315 0.01289,-0.07821 0.02567,-0.157934 0.04961,-0.231511 0.0026,-0.008 0.0055,-0.01683 0.0083,-0.0248 0.02616,-0.07614 0.06215,-0.144847 0.09922,-0.214974 0.03826,-0.07237 0.08351,-0.141715 0.132292,-0.206706 0.04879,-0.06499 0.09889,-0.125273 0.157096,-0.181901 0.116403,-0.113256 0.249478,-0.21551 0.396875,-0.289388 0.0737,-0.03694 0.151731,-0.06534 0.23151,-0.09095 -0.06779,0.02652 -0.128775,0.06251 -0.190169,0.09922 -0.002,0.0012 -0.0063,-0.0012 -0.0083,0 -0.0084,0.0051 -0.01648,0.01125 -0.02481,0.01654 -0.03185,0.02029 -0.06112,0.04326 -0.09095,0.06615 -0.02809,0.02138 -0.05643,0.04263 -0.08268,0.06614 -0.04708,0.04271 -0.09193,0.09138 -0.132291,0.14056 -0.02846,0.03446 -0.05778,0.07019 -0.08268,0.107487 -0.0066,0.01016 -0.01017,0.02272 -0.01654,0.03307 -0.01714,0.02726 -0.03446,0.05411 -0.04961,0.08268 -0.02672,0.05152 -0.05442,0.109988 -0.07441,0.165365 -0.0021,0.0058 -0.0062,0.01073 -0.0083,0.01654 -0.0084,0.02433 -0.0095,0.04943 -0.01654,0.07442 -0.008,0.02821 -0.01862,0.05372 -0.02481,0.08268 -0.01928,0.09036 -0.03307,0.184733 -0.03307,0.28112 v 0.529166 17.991667 0.529166 c 0,0.736031 0.586886,1.322917 1.322917,1.322917 h 0.529167 17.991666 0.529167 c 0.73603,0 1.322916,-0.586886 1.322916,-1.322917 V 76.332291 58.340624 57.811458 c 0,-0.09639 -0.01379,-0.190762 -0.03307,-0.28112 -0.01168,-0.05474 -0.02338,-0.105214 -0.04134,-0.157097 -0.002,-0.0058 -0.0062,-0.01076 -0.0083,-0.01654 -0.0166,-0.04597 -0.03661,-0.09722 -0.05788,-0.14056 -0.011,-0.02191 -0.02091,-0.04497 -0.03307,-0.06615 -0.01445,-0.02572 -0.03354,-0.04983 -0.04961,-0.07441 -0.0249,-0.0373 -0.05422,-0.07302 -0.08268,-0.107487 -0.03788,-0.04616 -0.08021,-0.09181 -0.124024,-0.132291 -0.003,-0.0027 -0.0053,-0.0056 -0.0083,-0.0083 -0.03661,-0.03322 -0.07543,-0.06203 -0.115755,-0.09095 -0.02714,-0.01935 -0.05406,-0.04058 -0.08268,-0.05788 -0.002,-0.0012 -0.0063,0.0012 -0.0083,0 -0.06139,-0.03671 -0.122383,-0.0727 -0.19017,-0.09922 0.07978,0.02561 0.157812,0.05401 0.231511,0.09095 0.147396,0.07388 0.280472,0.176132 0.396875,0.289388 0.0582,0.05663 0.108311,0.11691 0.157096,0.181901 0.04879,0.06499 0.09404,0.13434 0.132292,0.206706 0.03707,0.07013 0.07306,0.138834 0.09922,0.214974 0.0028,0.0081 0.0056,0.0166 0.0083,0.0248 0.02393,0.07358 0.03672,0.153301 0.04961,0.231511 0.01386,0.08415 0.02481,0.167753 0.02481,0.256315 v 0.529167 17.991666 0.529167 c 0,0.879475 -0.708025,1.5875 -1.5875,1.5875 z"
         inkscape:connector-curvature="0"
         id="path3615"
         style="opacity:0.2;fill:url(#radialGradient3619);fill-opacity:1;fill-rule:nonzero;stroke:none;stroke-width:0.0434081" /><rect
         width="66"
         height="66"
         rx="33"
         ry="12"
         x="15"
         y="15"
         clip-path="url(#clipPath3613)"
         id="rect3171"
         style="opacity:0.1;fill:url(#linearGradient3613);fill-opacity:1;fill-rule:nonzero;stroke:#ffffff;stroke-width:0.0820312;stroke-linecap:round;stroke-linejoin:miter;stroke-miterlimit:4;stroke-dasharray:none;stroke-dashoffset:0;stroke-opacity:1;filter:url(#filter3794)"
         transform="matrix(0.26458333,0,0,0.26458333,54.504166,54.901041)" /><path
         id="path5070"
         d="m 58.773923,61.917025 9.085431,5.362084 -9.092391,5.366192 z"
         style="fill:#ccffaa;fill-opacity:1;fill-rule:evenodd;stroke:#fffdff;stroke-width:0.0688879px;stroke-linecap:butt;stroke-linejoin:miter;stroke-opacity:1"
         inkscape:connector-curvature="0" /><path
         sodipodi:nodetypes="cccc"
         id="path5665"
         d="m 59.197392,62.674971 7.777411,4.605193 -7.783368,4.572795 z"
         style="opacity:0.180556;fill:#ccffaa;stroke:#eeeeec;stroke-width:0.0688879px;stroke-linecap:butt;stroke-linejoin:miter;stroke-opacity:1"
         inkscape:connector-curvature="0" /><path
         sodipodi:nodetypes="czc"
         id="path5691"
         d="m 71.484704,64.184864 c 0,0 1.167176,1.208619 1.167176,3.031808 0,1.795387 -1.056016,3.031808 -1.056016,3.031808"
         style="opacity:0.324074;fill:#ccffaa;stroke:#ffffff;stroke-width:0.0688879px;stroke-linecap:round;stroke-linejoin:miter;stroke-opacity:1"
         inkscape:connector-curvature="0" /><path
         id="path5067"
         d="m 76.388141,67.332563 c 0,-4.751454 -3.850374,-8.607706 -8.594584,-8.607706 -2.739439,0 -5.17028,1.292057 -6.744453,3.293498 l 1.075964,0.682318 c 1.343012,-1.643762 3.395003,-2.689908 5.68161,-2.689908 4.041632,0 7.321799,3.280165 7.321799,7.321798 0,4.041633 -3.280166,7.321799 -7.321799,7.321799 -2.280013,0 -4.325328,-1.041184 -5.668489,-2.676787 l -1.075963,0.682318 c 1.574546,1.993156 3.998508,3.280376 6.731331,3.280376 4.74421,0 8.594584,-3.856252 8.594584,-8.607706 z"
         style="fill:#ccffaa;fill-opacity:1;stroke:#ffffff;stroke-width:0.0688879;stroke-linecap:round;stroke-linejoin:round;stroke-miterlimit:4;stroke-dasharray:none;stroke-dashoffset:0;stroke-opacity:1"
         inkscape:connector-curvature="0" /><path
         id="path5648"
         d="m 73.055279,67.345685 c 0,-2.904471 -2.357252,-5.261723 -5.261722,-5.261723 -1.546344,0 -2.934114,0.66886 -3.897087,1.732038 l 1.115328,0.69544 c 0.71738,-0.708514 1.698116,-1.141571 2.781759,-1.141571 2.194649,0 3.975815,1.792922 3.975815,4.002059 0,2.209136 -1.781166,4.002058 -3.975815,4.002058 -1.103842,0 -2.100511,-0.448968 -2.821123,-1.180935 l -1.075964,0.682318 c 0.962973,1.063179 2.350743,1.732039 3.897087,1.732038 2.90447,0 5.261722,-2.357252 5.261722,-5.261722 z"
         style="fill:#ccffaa;fill-opacity:1;stroke:#fffdff;stroke-width:0.0688879;stroke-linecap:round;stroke-linejoin:round;stroke-miterlimit:4;stroke-dasharray:none;stroke-dashoffset:0;stroke-opacity:1"
         inkscape:connector-curvature="0" /></g></g><metadata
     id="metadata3"><rdf:RDF><cc:Work
         rdf:about=""><dc:description>I haven't done anything to alter the logo and I am not the owner or creator of the design.</dc:description></cc:Work></rdf:RDF></metadata></svg>
