<?xml version="1.0" encoding="UTF-8" standalone="no"?>
<!-- Created with Inkscape (http://www.inkscape.org/) -->

<svg
   width="512"
   height="512"
   viewBox="0 0 135.46666 135.46667"
   version="1.1"
   id="svg5"
   inkscape:version="1.4 (e7c3feb100, 2024-10-09)"
   xml:space="preserve"
   sodipodi:docname="start-here-lxde.svg"
   xmlns:inkscape="http://www.inkscape.org/namespaces/inkscape"
   xmlns:sodipodi="http://sodipodi.sourceforge.net/DTD/sodipodi-0.dtd"
   xmlns:xlink="http://www.w3.org/1999/xlink"
   xmlns="http://www.w3.org/2000/svg"
   xmlns:svg="http://www.w3.org/2000/svg"
   xmlns:rdf="http://www.w3.org/1999/02/22-rdf-syntax-ns#"
   xmlns:cc="http://creativecommons.org/ns#"
   xmlns:dc="http://purl.org/dc/elements/1.1/"><sodipodi:namedview
     id="namedview7"
     pagecolor="#242424"
     bordercolor="#666666"
     borderopacity="1"
     inkscape:showpageshadow="0"
     inkscape:pageopacity="0"
     inkscape:pagecheckerboard="1"
     inkscape:deskcolor="#000000"
     inkscape:document-units="px"
     showgrid="false"
     inkscape:zoom="0.4609375"
     inkscape:cx="253.83051"
     inkscape:cy="257.08475"
     inkscape:window-width="3256"
     inkscape:window-height="1080"
     inkscape:window-x="1864"
     inkscape:window-y="0"
     inkscape:window-maximized="0"
     inkscape:current-layer="layer1" /><defs
     id="defs2"><linearGradient
       id="linearGradient4835"><stop
         id="stop4837"
         style="stop-color:#ffffff;stop-opacity:0"
         offset="0" /><stop
         id="stop4839"
         style="stop-color:#ffffff;stop-opacity:0.63529414"
         offset="1" /></linearGradient><linearGradient
       id="linearGradient4793"><stop
         id="stop4795"
         style="stop-color:#000000;stop-opacity:0"
         offset="0" /><stop
         id="stop4797"
         style="stop-color:#000000;stop-opacity:0.2"
         offset="1" /></linearGradient><linearGradient
       id="linearGradient4777"><stop
         id="stop4779"
         style="stop-color:#000000;stop-opacity:0.1451"
         offset="0" /><stop
         id="stop4781"
         style="stop-color:#000000;stop-opacity:0"
         offset="1" /></linearGradient><filter
       id="filter3326"
       x="-0.01182883"
       y="-0.012176197"
       width="1.0236577"
       height="1.0243524"><feGaussianBlur
         inkscape:collect="always"
         stdDeviation="2.6472166"
         id="feGaussianBlur3328" /></filter><linearGradient
       id="linearGradient3486"><stop
         id="stop3488"
         style="stop-color:#000000;stop-opacity:0.502"
         offset="0" /><stop
         id="stop3490"
         style="stop-color:#ffffff;stop-opacity:1"
         offset="1" /></linearGradient><filter
       id="filter4517"
       x="-0.005870285"
       y="-0.0069754877"
       width="1.0117406"
       height="1.013951"><feGaussianBlur
         inkscape:collect="always"
         stdDeviation="1.3154426"
         id="feGaussianBlur4519" /></filter><filter
       id="filter4638"
       x="-0.0066677331"
       y="-0.0054538318"
       width="1.0133355"
       height="1.0109077"><feGaussianBlur
         id="feGaussianBlur4640"
         stdDeviation="1.1397656"
         inkscape:collect="always" /></filter><radialGradient
       cx="244.97728"
       cy="276.31491"
       r="217.6875"
       fx="244.97728"
       fy="276.31491"
       id="radialGradient4712"
       xlink:href="#linearGradient3486"
       gradientUnits="userSpaceOnUse"
       gradientTransform="matrix(1.197615,0,0,1.2337965,-49.386039,-65.706911)" /><filter
       id="filter4773"
       x="-0.013674367"
       y="-0.011050325"
       width="1.0273487"
       height="1.0221006"><feGaussianBlur
         id="feGaussianBlur4775"
         stdDeviation="1.5496228"
         inkscape:collect="always" /></filter><linearGradient
       x1="352.8949"
       y1="175.32442"
       x2="324.35019"
       y2="158.35384"
       id="linearGradient4783"
       xlink:href="#linearGradient4777"
       gradientUnits="userSpaceOnUse" /><radialGradient
       cx="390.52817"
       cy="105.77066"
       r="118.78125"
       fx="390.52817"
       fy="105.77066"
       id="radialGradient4832"
       xlink:href="#linearGradient4793"
       gradientUnits="userSpaceOnUse"
       gradientTransform="matrix(-0.06916979,0.05892941,-0.10501338,-0.12326196,138.5782,13.091394)" /><radialGradient
       cx="235.58434"
       cy="137.56808"
       r="268.90195"
       fx="235.58434"
       fy="137.56808"
       id="radialGradient4841"
       xlink:href="#linearGradient4835"
       gradientUnits="userSpaceOnUse"
       gradientTransform="matrix(0.238287,-0.271638,0.08478984,0.07437954,222.35079,262.49258)" /><filter
       id="filter4871"
       x="-0.044783792"
       y="-0.051713909"
       width="1.0895676"
       height="1.1034278"><feGaussianBlur
         id="feGaussianBlur4873"
         stdDeviation="8.1240593"
         inkscape:collect="always" /></filter></defs><g
     inkscape:label="Layer 1"
     inkscape:groupmode="layer"
     id="layer1"><path
       d="m 101.50746,54.146604 c -8.212564,-9.271368 -15.613474,-15.259595 -26.569118,0.353754 -6.519097,9.290643 -45.64059,62.513282 -52.819196,70.990892 -2.085234,2.46256 -3.306783,4.17397 -4.907809,5.16596 0.0025,-3.36978 27.023541,-46.160829 34.585483,-58.561538 9.083312,-14.895579 8.794914,-14.025711 7.707928,-14.021769 -1.538822,0.0056 -4.668681,2.275494 -9.427798,7.351134 C 41.386503,74.693474 15.648356,109.18886 13.87391,108.65681 14.490361,106.15101 34.624322,75.276201 43.766012,62.504218 51.646542,51.49422 48.634198,50.655047 44.117275,51.729877 24.871732,56.319905 1.8539952,67.416645 1.1095939,67.016291 1.3879518,66.441701 78.630286,12.125128 88.948921,11.086739 c 1.201223,-0.12088 3.735711,-2.2632684 8.252144,-4.0476774 4.902955,-1.9371198 8.202715,-3.5127508 9.019015,-3.0146062 -3.578,5.0157109 -5.46196,6.0250986 -5.49379,7.6430076 -0.0521,2.649298 -0.995048,6.935219 -2.0276,8.303676 19.96036,13.297097 27.74797,58.635823 33.45025,95.102911 1.36082,8.6556 2.62192,15.15569 2.94354,19.01802 -1.68475,-4.33495 -17.64423,-61.949523 -33.58502,-79.945466 z"
       id="path3317"
       style="fill-opacity:0.333333;stroke-width:0.264583" /><path
       d="m 413.66855,218.15915 c -32.92218,-37.16666 -62.59063,-61.172 -106.50912,1.41811 -26.13347,37.24392 -182.96198,250.60048 -211.739265,284.58514 -8.359192,9.8718 -13.256086,16.73245 -19.674206,20.70907 0.01017,-13.50863 108.330781,-185.04748 138.644751,-234.75889 36.41279,-59.71274 35.25668,-56.22565 30.89921,-56.20985 -6.16877,0.0224 -18.71561,9.1219 -37.79375,29.4689 -34.83788,37.1549 -138.015821,175.43845 -145.129141,173.30561 2.4712,-10.04513 83.183331,-133.8147 119.830131,-185.01446 31.59113,-44.13639 19.51538,-47.50043 1.40813,-43.1917 -77.15067,18.4003 -169.42316,62.88442 -172.40729,61.2795 1.11587,-2.30339 310.76152,-220.045274 352.12641,-224.207924 4.81542,-0.48458 14.97556,-9.07289 33.08084,-16.22615 19.65476,-7.76544 32.88269,-14.08176 36.15504,-12.08482 -14.34335,20.10676 -21.89566,24.15315 -22.02329,30.63895 -0.20897,10.62039 -3.98889,27.8016 -8.12815,33.28741 80.0162,53.304814 111.23482,235.056704 134.09388,381.244344 5.45519,34.6982 10.51065,60.75544 11.79995,76.23861 -6.75374,-17.37777 -70.73143,-248.34051 -134.63413,-320.48185 z"
       id="path3293"
       style="fill-opacity:0.627451;stroke-width:1.06065;filter:url(#filter3326)"
       transform="matrix(0.24945396,0,0,0.24945396,-1.3096106,-0.27405694)" /><path
       d="M 100.82138,51.589699 C 92.608813,42.318328 85.207903,36.330101 74.252259,51.943452 67.733161,61.234095 28.611668,114.45673 21.433061,122.93434 c -2.085231,2.46256 -3.306781,4.17398 -4.907806,5.16596 0.0025,-3.36978 27.023539,-46.160825 34.585482,-58.561533 9.083312,-14.89558 8.794913,-14.025711 7.707928,-14.02177 -1.538822,0.0056 -4.668681,2.275494 -9.427798,7.351134 -8.690448,9.268437 -34.428594,43.763809 -36.203039,43.231769 0.61645,-2.5058 20.750411,-33.380605 29.8921,-46.152588 7.88053,-11.009997 4.868187,-11.84917 0.351264,-10.774341 C 24.185649,53.762999 1.1679127,64.859739 0.42351145,64.459385 0.70186939,63.884796 77.944202,9.5682216 88.262838,8.5298321 89.464061,8.4089517 91.998548,6.2665638 96.514982,4.4821547 101.41794,2.545035 104.7177,0.969404 105.534,1.4675486 c -3.578,5.0157108 -5.46196,6.0250989 -5.49379,7.6430073 -0.05214,2.6492981 -0.995051,6.9352191 -2.027604,8.3036761 19.960354,13.297096 27.747964,58.635825 33.450244,95.102908 1.36082,8.6556 2.62193,15.15568 2.94355,19.01802 -1.68475,-4.33495 -17.64424,-61.949518 -33.58502,-79.945461 z"
       id="path3287"
       style="fill:#ffffff;stroke:#6e6e6e;stroke-width:0.396874" /><path
       d="m 369.68194,43.72421 c -8.62411,0.84525 -13.87931,1.1176 -19.74075,3.48457 C 321.0342,58.882 295.07449,77.33996 268.25823,93.53775 204.47385,133.64807 142.00159,175.77354 80.111522,218.75514 116.08971,204.76035 152.66026,191.3193 190.79902,184.91139 c 11.59378,0.10725 21.10173,13.52401 15.84375,24.3125 -6.95064,23.78165 -25.54358,41.23517 -38.07947,61.91327 -9.6428,13.81423 -19.10916,27.76671 -28.48303,41.77423 24.8568,-31.05314 49.43716,-62.74855 79.08315,-89.29351 7.18605,-5.66397 15.82806,-12.42042 25.47935,-10.89399 7.4589,1.93798 10.99057,11.74381 6.03125,17.78125 -10.19008,19.34247 -22.74153,37.52193 -33.76459,56.42702 -27.54131,44.62756 -55.31053,88.97785 -82.42291,133.82298 58.31625,-76.66837 81.02078,-100.96809 137.42001,-179.05066 13.06885,-16.48161 67.06234,-84.35427 89.20499,-81.63684 24.86312,3.4436 42.62656,23.67591 57.63497,41.92879 39.6373,49.04976 60.70361,109.4662 83.45878,167.53996 4.5654,12.33697 8.95162,24.73452 13.28125,37.15625 C 501.08748,319.66806 480.13673,235.9727 443.81358,155.09981 419.50847,130.25872 411.77023,120.36297 383.96982,103.05797 380.3438,99.578425 341.4367,130.64903 341.4367,130.64903 Z"
       id="path3431"
       style="fill:url(#radialGradient4712);stroke-width:1.06065;filter:url(#filter4871)"
       transform="matrix(0.24945396,0,0,0.24945396,-1.3096106,-0.27405694)" /><path
       d="M 97.357226,17.663242 C 77.552737,30.940386 59.496561,43.726813 59.36227,44.004021 c 0.7444,0.400354 23.761879,-10.696823 43.00742,-15.286851 0.95449,-0.227125 1.84093,-0.364644 2.5725,-0.342999 -1.96808,-2.510784 -4.08061,-4.66469 -6.36108,-6.384462 -0.741537,-0.344361 -1.423901,-0.729735 -2.026814,-1.177111 z m 9.432474,13.244446 c -0.36763,1.700064 -1.78276,4.408136 -4.7708,8.582775 -1.29023,1.8026 -2.843282,4.039092 -4.490174,6.439031 1.445715,1.351015 2.774034,2.848589 4.053624,4.373239 2.68306,-3.274143 5.06049,-6.086197 6.75085,-7.888981 1.17601,-1.254225 2.25264,-2.333507 3.22731,-3.250697 -1.48017,-3.003643 -3.06638,-5.766931 -4.77081,-8.255367 z m 6.72747,12.511675 c -1.00498,1.638529 -1.95061,3.177348 -3.46897,5.667282 -1.02609,1.68266 -2.52915,4.11839 -4.17836,6.78203 1.55777,2.304795 2.98918,4.687976 4.32647,7.125029 2.44769,-3.316256 4.81477,-6.52832 7.10164,-9.642955 -1.172,-3.479865 -2.42913,-6.805151 -3.78078,-9.931386 z"
       id="path4752"
       style="fill:url(#radialGradient4832);stroke-width:0.264583" /><path
       d="M 358.33965,37.660347 C 311.53448,49.208781 15.125,255.25 15.125,255.25 c 0,0 52.96875,-24.4375 52.96875,-24.4375 77.00719,-53.34297 154.43404,-106.50191 234.84375,-154.75 20.83207,-11.523767 40.77455,-25.63294 64,-31.5 C 381.0195,38.319639 394.15978,29.40753 409,24.75 c 0,0 7.30154,-6.701861 13.03125,-11.96875 1.07609,-1.39811 2.17923,-2.8519548 3.34375,-4.4375 -22.45974,7.774558 -62.33068,28.155795 -67.03535,29.316597 z M 198.875,205.84375 c 3.98369,11.98392 -53.17476,77.04509 -135.09375,212.59375 -0.612419,1.08253 -1.026913,1.85872 -1.46875,2.6875 7.227323,-9.10904 54.625,-68.84375 54.625,-68.84375 24.2019,-37.62841 49.64454,-74.34107 75,-111.1875 5.30644,-9.08203 13.15917,-18.17118 12.8125,-29.1875 0.57691,-4.0675 -3.55312,-4.16175 -5.875,-6.0625 z m 49.1875,27.09375 c -3.40763,0.85409 -6.59405,2.5178 -9.84375,3.875 -55.275,91.50517 -112.99659,179.58202 -163.1875,273.09375 C 80.978009,502.03556 114,458.34375 114,458.34375 153.85446,390.27521 196.69611,323.81805 237.8125,256.375 c 3.7599,-7.78083 10.08279,-14.30054 12.625,-22.59375 -0.58594,-0.72021 -1.4309,-0.92513 -2.375,-0.84375 z"
       id="path3279"
       style="fill:#ffffff;stroke-width:1.06065;filter:url(#filter4638)"
       transform="matrix(0.24945396,0,0,0.24945396,-1.3096106,-0.27405694)" /><path
       d="m 41.799152,39.435895 c -8.767379,5.876048 -17.456442,11.864148 -26.122507,17.86714 0,0 -5.401008,2.542744 -9.9163859,4.661926 L 4.0686495,63.157662 C 11.33322,60.192904 28.444684,52.745985 43.428398,49.172395 c 4.516923,-1.07483 7.529738,-0.236704 -0.350795,10.773293 -1.471132,2.055341 -3.247257,4.606372 -5.160578,7.405665 1.276231,1.230117 2.551367,2.617682 3.850945,4.084808 0.05385,0.06079 0.10986,0.125403 0.163704,0.187091 2.983864,-3.658225 5.61013,-6.797232 7.452437,-8.762071 1.970619,-2.101679 3.660191,-3.709737 5.074829,-4.887738 C 50.931477,50.191709 46.777382,43.760566 41.799152,39.435895 Z m 14.203285,22.107858 c -1.211977,1.977089 -2.754241,4.478848 -4.895534,7.990322 -1.179366,1.934024 -2.930261,4.764767 -4.879943,7.912367 1.397022,2.171794 2.788344,4.58931 4.154967,7.179597 3.269598,-4.425276 6.383415,-8.653376 9.362319,-12.714356 -1.158414,-3.623062 -2.401151,-7.092862 -3.741809,-10.36793 z"
       id="path3522"
       style="fill-opacity:0.2;stroke-width:0.264583" /><path
       d="m 56.749912,231.34053 c 2.20549,-0.90252 3.39165,1.05365 5.6875,0.125 33.95251,-13.73349 76.770088,-26.53957 116.156248,-35.875 5.00268,-1.18575 9.73236,-1.93001 14.59375,-0.96875 2.43069,0.48063 5.02293,1.51171 7.15625,3.53125 2.13332,2.01954 3.98136,-1.0729 4.375,1.78125 0.78728,5.7083 -1.05898,11.26836 -4.59375,18.46875 -3.53477,7.20039 -9.08644,16.00401 -17.25,27.15625 -18.48226,25.24861 -48.1052,69.46453 -73.3125,108.46875 -2.51539,3.89216 -4.08676,6.54621 -6.5,10.3125 3.45584,-4.31935 6.20114,-2.34679 9.78125,-6.84375 31.19405,-39.18264 65.65706,-83.11413 83.6875,-102.34375 9.67316,-10.31651 18.00147,-18.35051 24.96875,-24 6.96728,-5.64949 11.712,-9.62993 18.96875,-9.65625 0.17178,-6.2e-4 0.58043,-0.13495 2.15625,0.0312 0.78791,0.0831 3.60516,-2.60749 3.625,-0.71875 0.0688,6.55194 3.38627,-0.72559 3.6875,0.9375 0.60246,3.32618 -0.30759,4.42404 -0.875,5.75 -0.56741,1.32596 -1.30448,2.67443 -2.3125,4.46875 -4.0321,7.1773 -12.83783,21.25866 -31.03125,51.09375 -15.22203,24.96236 -50.07181,80.64821 -81.15625,131.8125 -10.02832,16.50639 -19.22136,31.83789 -27.65625,46.1875 98.47265,-125.45022 150.65536,-191.62004 172.19253,-226.0478 12.04733,-19.25799 26.62022,-43.94725 41.98039,-66.02389 13.20426,-18.978 33.89172,-22.30979 44.76593,-19.17278 21.74843,6.27403 38.05846,27.14429 52.03125,44.28125 34.57092,42.39957 68.08512,127.73568 105.99865,245.21322 -10.55985,-66.36256 -23.41563,-143.3538 -43.15625,-210.6562 -20.42008,-69.61889 -55.03337,-107.80633 -92.91265,-132.986207 0,0 10.35015,-26.232543 10.35015,-26.232543 81.24692,54.0081 112.25207,240.06424 133.78125,375.8125 9.03413,56.96317 12.04716,70.08905 10.875,76.78125 -49.08574,-156.96151 -90.77178,-264.13642 -131.62229,-312.56521 -25.97695,-30.79601 -61.01465,-71.7644 -109.65896,1.19021 -24.96336,37.43896 -182.84771,249.95284 -211.624998,283.9375 -8.359183,9.8718 -13.39438,17.33588 -19.8125,21.3125 7.042947,-9.99226 108.990628,-179.75581 139.304608,-229.46722 36.41278,-59.71273 35.92785,-63.95483 31.57039,-63.93903 -6.16876,0.0224 -19.76561,11.0905 -38.84375,31.4375 C 167.28703,291.08918 69.051953,423.72973 61.938633,421.59689 66.871306,412.25504 139.1653,299.84264 176.51538,246.00558 207.45435,201.40962 198.8297,192.1103 180.71866,196.40303 103.26784,214.76066 8.2340345,261.1017 5.249912,259.49678 M 236.18741,221.77803 c 0.0324,0.0231 0.0476,0.10751 0,0.21875 -0.0136,0.0318 -0.10777,0.18037 -0.125,0.21875 0.009,-0.047 -0.0106,-0.24651 0,-0.28125 0.043,-0.14114 0.0926,-0.17935 0.125,-0.15625 z"
       id="path3461"
       style="fill:url(#radialGradient4841);stroke-width:1.06065;filter:url(#filter4517)"
       transform="matrix(0.24945396,0,0,0.24945396,-1.3096106,-0.27405694)" /><path
       d="m 248.24312,283.84454 c 34.81133,-45.39256 -0.7308,-3.22509 63.83243,-89.91243 12.70425,-15.77478 28.04613,-34.20568 49.48695,-30.55711 25.1887,4.93895 42.13937,26.18806 58.12439,44.56174 34.52407,44.04064 54.29351,97.3743 75.2094,148.93345 8.95694,23.45972 17.38063,47.07477 25.32246,70.87981 -15.14922,-92.51632 -31.2192,-181.30353 -68.90029,-267.74863 -13.89251,-27.15489 -32.46761,-46.5938 -61.81847,-68.811134 0,0 -100.4997,98.274574 -141.25687,192.654304 z"
       id="path4714"
       style="fill:url(#linearGradient4783);stroke-width:1.06065;filter:url(#filter4773)"
       transform="matrix(0.24945396,0,0,0.24945396,-1.3096106,-0.27405694)" /><path
       d="m 105.11369,1.565666 c -0.15648,-0.00106 -0.36609,0.018008 -0.60805,0.070159 -0.48391,0.1043022 -1.12037,0.3147751 -1.88649,0.6002486 -1.53225,0.570947 -3.579412,1.4469263 -6.033672,2.4165853 -2.245542,0.8871967 -4.001144,1.8699293 -5.347669,2.6426529 -1.346525,0.7727235 -2.257344,1.3486169 -2.954471,1.4187694 -1.220561,0.1228278 -3.563734,1.0758994 -6.657302,2.6582438 -3.093569,1.582344 -6.957154,3.793386 -11.303383,6.415644 -8.69246,5.244516 -19.322,12.146978 -29.638249,19.036455 -10.316248,6.889477 -20.31863,13.762143 -27.759548,18.950706 -3.7204591,2.594281 -6.806723,4.77268 -8.9647517,6.314303 -1.0790143,0.77081 -1.927885,1.379857 -2.5101305,1.808541 -0.099595,0.07333 -0.1422566,0.109111 -0.2260676,0.1715 0.1378757,-0.04727 0.2333589,-0.07646 0.4053627,-0.140318 0.733467,-0.272311 1.7669689,-0.688468 3.0480155,-1.216088 0.020024,-0.0083 0.050016,-0.02287 0.070159,-0.03118 C 19.826897,51.908334 79.936968,10.309029 88.969337,9.4000794 90.170557,9.2791993 92.70827,7.1386571 97.224704,5.354248 100.4352,4.0858086 102.93398,2.9863934 104.52123,2.5089138 c 0.2218,-0.2954094 0.44921,-0.5996287 0.686,-0.9276569 -0.0377,-0.00383 -0.048,-0.015282 -0.0935,-0.015591 z M 48.10566,50.107848 c 0.13466,0.793458 -0.115814,1.889718 -0.841907,3.437787 -0.76321,1.627203 -2.056169,3.751189 -4.030241,6.509189 -4.567153,6.380833 -11.887876,17.290991 -18.13998,26.917642 -3.126053,4.813323 -5.983748,9.30912 -8.099458,12.753333 -1.057856,1.722111 -1.931442,3.181911 -2.556903,4.287491 -0.312731,0.55279 -0.567117,1.01752 -0.748362,1.37979 -0.08709,0.17407 -0.102355,0.23373 -0.155909,0.35859 0.04899,-0.0337 0.08273,-0.0484 0.140318,-0.0935 0.276146,-0.21632 0.649158,-0.56135 1.091361,-1.01341 0.245042,-0.2505 0.514266,-0.54324 0.80293,-0.8575 5.068585,-8.678606 20.52143,-32.21339 28.219479,-42.968443 4.894162,-6.8377 5.578741,-9.741586 4.318672,-10.710929 z m 11.771109,6.275326 c -0.09417,-0.0049 -0.214923,0.0073 -0.350795,0.0078 -0.07544,2.49e-4 -0.163976,0.01147 -0.249454,0.02337 -0.08748,0.173749 -0.19535,0.367934 -0.335204,0.615839 -0.933679,1.655047 -3.129437,5.158062 -7.670709,12.60522 -3.78274,6.203257 -12.427971,20.003192 -20.127816,32.670667 -3.849923,6.33374 -7.460784,12.38036 -10.110681,17.05642 -1.324949,2.33803 -2.41381,4.33528 -3.164947,5.84658 -0.375569,0.75564 -0.668548,1.39284 -0.865294,1.88649 -0.100689,0.25264 -0.09965,0.34086 -0.148113,0.5145 0.465078,-0.34181 0.91208,-0.75331 1.371997,-1.23168 4.912467,-10.12815 26.887816,-44.971753 33.590534,-55.963433 7.9479,-13.03363 8.719694,-13.997273 8.060482,-14.031785 z"
       id="path3523"
       style="fill:#c2c2c2;stroke-width:0.264583" /></g><metadata
     id="metadata1"><rdf:RDF><cc:Work
         rdf:about=""><dc:description>I haven't done anything to alter the logo and I am not the owner or creator of the design.</dc:description></cc:Work></rdf:RDF></metadata></svg>
