<?xml version="1.0" encoding="UTF-8" standalone="no"?>
<!-- Created with Inkscape (http://www.inkscape.org/) -->

<svg
   width="512"
   height="512"
   viewBox="0 0 135.46666 135.46667"
   version="1.1"
   id="svg5"
   inkscape:version="1.4 (e7c3feb100, 2024-10-09)"
   xml:space="preserve"
   sodipodi:docname="start-here-xfce.svg"
   xmlns:inkscape="http://www.inkscape.org/namespaces/inkscape"
   xmlns:sodipodi="http://sodipodi.sourceforge.net/DTD/sodipodi-0.dtd"
   xmlns:xlink="http://www.w3.org/1999/xlink"
   xmlns="http://www.w3.org/2000/svg"
   xmlns:svg="http://www.w3.org/2000/svg"><sodipodi:namedview
     id="namedview7"
     pagecolor="#242424"
     bordercolor="#666666"
     borderopacity="1"
     inkscape:showpageshadow="0"
     inkscape:pageopacity="0"
     inkscape:pagecheckerboard="1"
     inkscape:deskcolor="#000000"
     inkscape:document-units="px"
     showgrid="false"
     inkscape:zoom="0.65186406"
     inkscape:cx="154.17325"
     inkscape:cy="431.8385"
     inkscape:window-width="3256"
     inkscape:window-height="1080"
     inkscape:window-x="1864"
     inkscape:window-y="0"
     inkscape:window-maximized="0"
     inkscape:current-layer="layer1" /><defs
     id="defs2"><linearGradient
       id="linearGradient4380"><stop
         id="stop4382"
         style="stop-color:#000000"
         offset="0" /><stop
         id="stop4384"
         style="stop-color:#000000;stop-opacity:0"
         offset="1" /></linearGradient><linearGradient
       id="linearGradient3694"><stop
         id="stop3702"
         style="stop-color:#b7b7b7"
         offset="0" /><stop
         id="stop3698"
         style="stop-color:#000000"
         offset="1" /></linearGradient><linearGradient
       id="linearGradient3743"><stop
         id="stop3745"
         style="stop-color:#ffffff"
         offset="0" /><stop
         id="stop3751"
         style="stop-color:#7fd4ee"
         offset="0.5" /><stop
         id="stop3747"
         style="stop-color:#00aade"
         offset="1" /></linearGradient><linearGradient
       id="linearGradient3652"><stop
         id="stop3654"
         style="stop-color:#ffffff"
         offset="0" /><stop
         id="stop3662"
         style="stop-color:#d5e2ec"
         offset="0.49903482" /><stop
         id="stop3656"
         style="stop-color:#d5e2ec"
         offset="1" /></linearGradient><filter
       color-interpolation-filters="sRGB"
       id="filter3729"
       x="-0.0223587"
       y="-0.021303179"
       width="1.0447174"
       height="1.0426064"><feGaussianBlur
         stdDeviation="6.4154088"
         id="feGaussianBlur3731" /></filter><linearGradient
       x1="965.02625"
       y1="17.489901"
       x2="1557.8665"
       y2="663.80927"
       id="linearGradient3737"
       xlink:href="#linearGradient3652"
       gradientUnits="userSpaceOnUse"
       gradientTransform="matrix(0.26458333,0,0,0.26458333,-253.19815,-11.820626)" /><linearGradient
       x1="33.526711"
       y1="441.98093"
       x2="159.24117"
       y2="581.41302"
       id="linearGradient3966"
       xlink:href="#linearGradient3743"
       gradientUnits="userSpaceOnUse"
       gradientTransform="matrix(0.26458333,0,0,0.26458333,-28.862171,-23.707223)" /><linearGradient
       x1="245.51741"
       y1="426.95151"
       x2="305.39166"
       y2="531.48969"
       id="linearGradient3968"
       xlink:href="#linearGradient3743"
       gradientUnits="userSpaceOnUse"
       gradientTransform="matrix(0.26458333,0,0,0.26458333,-28.963347,-22.998989)" /><linearGradient
       x1="601.53467"
       y1="434.94836"
       x2="668.81775"
       y2="543.35834"
       id="linearGradient3970"
       xlink:href="#linearGradient3743"
       gradientUnits="userSpaceOnUse"
       gradientTransform="matrix(0.26458333,0,0,0.26458333,-28.862171,-23.707223)" /><linearGradient
       x1="440.52084"
       y1="455.93307"
       x2="486.95523"
       y2="535.30469"
       id="linearGradient3972"
       xlink:href="#linearGradient3743"
       gradientUnits="userSpaceOnUse"
       gradientTransform="matrix(0.26458333,0,0,0.26458333,-28.997073,-22.088403)" /><linearGradient
       x1="118.25153"
       y1="254.24648"
       x2="291.87143"
       y2="254.24648"
       id="linearGradient4386"
       xlink:href="#linearGradient4380"
       gradientUnits="userSpaceOnUse" /><filter
       color-interpolation-filters="sRGB"
       id="filter4631"><feGaussianBlur
         id="feGaussianBlur4633"
         stdDeviation="2.3336003" /></filter><linearGradient
       x1="174.28104"
       y1="164.16707"
       x2="236.40213"
       y2="253.70575"
       id="linearGradient4162"
       xlink:href="#linearGradient3694"
       gradientUnits="userSpaceOnUse"
       gradientTransform="matrix(0.99284699,0,0,0.99284699,-245.68262,-212.45514)" /><filter
       color-interpolation-filters="sRGB"
       id="filter4223"
       x="-0.018858854"
       y="-0.059311242"
       width="1.0368287"
       height="1.1154076"><feGaussianBlur
         id="feGaussianBlur4225"
         stdDeviation="4.6672006" /></filter><filter
       color-interpolation-filters="sRGB"
       id="filter4266"
       x="-0.018997795"
       y="-0.03666286"
       width="1.0379964"
       height="1.0733307"><feGaussianBlur
         id="feGaussianBlur4268"
         stdDeviation="1.308628" /></filter></defs><g
     inkscape:label="Layer 1"
     inkscape:groupmode="layer"
     id="layer1"><path
       d="m 0.0542591,32.621376 c -0.719104,0.393742 5.735155,4.623292 17.8302599,9.602799 12.09589,4.979506 28.816842,17.586039 27.506736,19.62311 -3.928748,5.533565 -6.241082,12.1676 -4.641762,23.503523 0.288428,1.995419 -5.927898,5.462245 -5.476788,8.473058 0.377235,2.290919 6.945844,-2.275992 7.662591,-1.375337 0.438536,1.616608 -3.510252,9.803991 -1.915647,10.388701 1.166285,0.34659 11.41392,-9.746422 12.009637,-9.578237 16.907998,5.111542 38.918495,1.267082 39.344456,1.105182 -0.04008,-0.08881 15.812448,7.459635 17.191708,6.557415 3.47921,-3.767641 -6.5914,-9.078018 -4.91192,-11.199177 0.7364,-1.110484 12.27645,4.16747 12.84466,2.726116 0.82678,-2.495255 -5.35752,-7.731364 -6.28724,-9.283527 -0.8087,-1.431133 -0.96883,-3.735999 1.10518,-5.182069 2.07478,-1.44607 23.28798,-9.561542 22.39833,-15.840931 -1.53801,-11.4098 -26.92536,-12.154445 -27.33481,-13.114823 -0.19255,-0.451108 1.13819,-16.315619 -6.2627,-13.38497 -4.556686,1.695983 -0.85958,11.807856 -0.56487,13.114815 0.27193,1.203224 -2.022923,1.068444 -2.455959,0.540309 C 97.129457,48.116906 93.952433,37.567478 90.187939,39.448942 84.908217,42.359937 89.865717,51.458577 88.812602,51.753294 86.85648,52.84649 86.966704,55.52132 85.39882,57.69671 82.813186,61.402265 63.458662,55.963396 57.204415,55.58459 52.625723,55.314238 48.2606,59.058691 47.847213,58.58086 42.271991,52.997775 30.742149,43.26766 18.105555,40.038368 11.019034,38.11526 0.4770781,32.550641 0.0542591,32.621376 Z M 129.11487,42.838163 c -0.42215,0.182195 -2.12543,8.956736 -1.30165,9.357207 0.7301,0.546198 1.99266,-8.846954 1.32622,-9.332645 -0.0109,-0.01259 -0.0109,-0.0304 -0.0246,-0.02462 z m 6.2627,1.203422 c -0.95755,-0.01757 -6.06364,8.142386 -4.88735,9.013365 0.7301,0.546206 5.27382,-8.679948 4.96103,-8.98881 -0.0219,-0.01805 -0.0427,-0.02399 -0.0736,-0.02462 z m -24.75606,9.946633 c 1.2097,0 2.18581,1.103209 2.18581,2.480515 0,1.377314 -0.97611,2.505078 -2.18581,2.505078 -1.2097,0 -2.1858,-1.127764 -2.1858,-2.505078 0,-1.377306 0.9761,-2.480515 2.1858,-2.480515 z m -4.91191,1.498131 c 0.93051,4.016768 2.37068,5.285613 6.72932,5.157514 -5.54772,5.087175 -8.90707,-3.617921 -6.72932,-5.157514 z m 11.73948,10.511503 c 0.34528,-0.02794 0.60956,0.0262 0.76134,0.171921 2.18561,0.792194 -9.37842,4.960248 -9.45544,4.371605 -0.11621,-0.405726 6.27711,-4.347493 8.6941,-4.543526 z m 1.42445,2.652437 c 0.11963,-0.0093 0.23096,0.0281 0.31927,0.07362 2.06301,2.049641 -6.53127,6.594148 -6.43461,6.434607 -0.69257,-0.418494 4.32092,-6.369065 6.11534,-6.508286 z"
       id="path14"
       style="fill:#00aade;fill-opacity:1;fill-rule:evenodd;stroke:none;stroke-width:0.266227" /></g></svg>
