<?xml version="1.0" encoding="UTF-8" standalone="no"?>
<!-- Created with Inkscape (http://www.inkscape.org/) -->

<svg
   width="512"
   height="512"
   viewBox="0 0 135.46666 135.46667"
   version="1.1"
   id="svg5"
   inkscape:version="1.3.2 (091e20ef0f, 2023-11-25, custom)"
   sodipodi:docname="digikam.svg"
   xmlns:inkscape="http://www.inkscape.org/namespaces/inkscape"
   xmlns:sodipodi="http://sodipodi.sourceforge.net/DTD/sodipodi-0.dtd"
   xmlns:xlink="http://www.w3.org/1999/xlink"
   xmlns="http://www.w3.org/2000/svg"
   xmlns:svg="http://www.w3.org/2000/svg">
  <sodipodi:namedview
     id="namedview7"
     pagecolor="#292929"
     bordercolor="#666666"
     borderopacity="1"
     inkscape:showpageshadow="0"
     inkscape:pageopacity="0"
     inkscape:pagecheckerboard="1"
     inkscape:deskcolor="#1a1a1a"
     inkscape:document-units="px"
     showgrid="false"
     inkscape:zoom="1.3037282"
     inkscape:cx="248.90158"
     inkscape:cy="309.88055"
     inkscape:window-width="3256"
     inkscape:window-height="1080"
     inkscape:window-x="1864"
     inkscape:window-y="0"
     inkscape:window-maximized="0"
     inkscape:current-layer="layer1" />
  <defs
     id="defs2">
    <linearGradient
       id="linearGradient35"
       inkscape:collect="always">
      <stop
         style="stop-color:#002b22;stop-opacity:1;"
         offset="0"
         id="stop36" />
      <stop
         style="stop-color:#002b22;stop-opacity:0;"
         offset="1"
         id="stop37" />
    </linearGradient>
    <linearGradient
       id="linearGradient33"
       inkscape:collect="always">
      <stop
         style="stop-color:#005544;stop-opacity:1;"
         offset="0"
         id="stop34" />
      <stop
         style="stop-color:#005544;stop-opacity:0;"
         offset="1"
         id="stop35" />
    </linearGradient>
    <linearGradient
       id="linearGradient31"
       inkscape:collect="always">
      <stop
         style="stop-color:#002b22;stop-opacity:1;"
         offset="0"
         id="stop32" />
      <stop
         style="stop-color:#002b22;stop-opacity:0;"
         offset="1"
         id="stop33" />
    </linearGradient>
    <linearGradient
       id="linearGradient29"
       inkscape:collect="always">
      <stop
         style="stop-color:#005544;stop-opacity:1;"
         offset="0"
         id="stop30" />
      <stop
         style="stop-color:#005544;stop-opacity:0;"
         offset="1"
         id="stop31" />
    </linearGradient>
    <linearGradient
       id="linearGradient27"
       inkscape:collect="always">
      <stop
         style="stop-color:#002b22;stop-opacity:1;"
         offset="0"
         id="stop28" />
      <stop
         style="stop-color:#002b22;stop-opacity:0;"
         offset="1"
         id="stop29" />
    </linearGradient>
    <linearGradient
       id="linearGradient25"
       inkscape:collect="always">
      <stop
         style="stop-color:#005544;stop-opacity:1;"
         offset="0"
         id="stop26" />
      <stop
         style="stop-color:#005544;stop-opacity:0;"
         offset="1"
         id="stop27" />
    </linearGradient>
    <linearGradient
       id="linearGradient23"
       inkscape:collect="always">
      <stop
         style="stop-color:#002b22;stop-opacity:1;"
         offset="0"
         id="stop24" />
      <stop
         style="stop-color:#002b22;stop-opacity:0;"
         offset="1"
         id="stop25" />
    </linearGradient>
    <linearGradient
       id="linearGradient22"
       inkscape:collect="always">
      <stop
         style="stop-color:#005544;stop-opacity:1;"
         offset="0"
         id="stop22" />
      <stop
         style="stop-color:#005544;stop-opacity:0;"
         offset="1"
         id="stop23" />
    </linearGradient>
    <linearGradient
       id="linearGradient9"
       inkscape:collect="always">
      <stop
         style="stop-color:#000000;stop-opacity:1;"
         offset="0.81545734"
         id="stop7" />
      <stop
         style="stop-color:#333333;stop-opacity:1;"
         offset="0.83999997"
         id="stop8" />
      <stop
         style="stop-color:#000000;stop-opacity:1;"
         offset="1"
         id="stop9" />
    </linearGradient>
    <linearGradient
       id="linearGradient54"
       inkscape:collect="always">
      <stop
         style="stop-color:#ffffff;stop-opacity:1;"
         offset="0"
         id="stop55" />
      <stop
         style="stop-color:#ffffff;stop-opacity:0;"
         offset="1"
         id="stop56" />
    </linearGradient>
    <linearGradient
       id="linearGradient53"
       inkscape:collect="always">
      <stop
         style="stop-color:#ffffff;stop-opacity:0;"
         offset="0"
         id="stop54" />
      <stop
         style="stop-color:#000000;stop-opacity:1;"
         offset="1"
         id="stop53" />
    </linearGradient>
    <linearGradient
       id="linearGradient4"
       inkscape:collect="always">
      <stop
         style="stop-color:#b6b6b6;stop-opacity:1;"
         offset="0"
         id="stop4" />
      <stop
         style="stop-color:#1a1a1a;stop-opacity:1;"
         offset="0.5"
         id="stop6" />
      <stop
         style="stop-color:#474747;stop-opacity:1;"
         offset="1"
         id="stop5" />
    </linearGradient>
    <radialGradient
       inkscape:collect="always"
       xlink:href="#linearGradient9"
       id="radialGradient2"
       cx="67.73333"
       cy="67.73333"
       fx="67.73333"
       fy="67.73333"
       r="67.73333"
       gradientUnits="userSpaceOnUse"
       gradientTransform="matrix(0.93749999,0,0,0.93749999,4.2333334,4.2333308)" />
    <linearGradient
       inkscape:collect="always"
       xlink:href="#linearGradient4"
       id="linearGradient5"
       x1="-2.0000002e-06"
       y1="67.733333"
       x2="135.46667"
       y2="67.733333"
       gradientUnits="userSpaceOnUse"
       gradientTransform="matrix(0,1.0000038,-1.0000038,0,135.46692,-2.6155e-4)" />
    <radialGradient
       inkscape:collect="always"
       xlink:href="#linearGradient53"
       id="radialGradient54"
       cx="-85.231079"
       cy="60.249809"
       fx="-85.231079"
       fy="60.249809"
       r="55.5625"
       gradientUnits="userSpaceOnUse"
       gradientTransform="matrix(0.93749999,0,0,0.93749999,147.63746,11.249134)" />
    <linearGradient
       inkscape:collect="always"
       xlink:href="#linearGradient54"
       id="linearGradient56"
       x1="-87.123518"
       y1="68.394936"
       x2="-48.985939"
       y2="68.394936"
       gradientUnits="userSpaceOnUse"
       gradientTransform="matrix(0,1.4984966,-1.4984966,0,170.22292,148.15439)" />
    <filter
       inkscape:collect="always"
       style="color-interpolation-filters:sRGB"
       id="filter12"
       x="-0.010874424"
       y="-0.042048881"
       width="1.0217488"
       height="1.0840978">
      <feGaussianBlur
         inkscape:collect="always"
         stdDeviation="0.1517594"
         id="feGaussianBlur12" />
    </filter>
    <radialGradient
       inkscape:collect="always"
       xlink:href="#linearGradient22"
       id="radialGradient23"
       cx="-44.770492"
       cy="42.861851"
       fx="-44.770492"
       fy="42.861851"
       r="14.502946"
       gradientTransform="matrix(1,0,0,1.258733,0,-11.089777)"
       gradientUnits="userSpaceOnUse" />
    <radialGradient
       inkscape:collect="always"
       xlink:href="#linearGradient23"
       id="radialGradient25"
       cx="-64.922851"
       cy="46.749977"
       fx="-64.922851"
       fy="46.749977"
       r="15.500977"
       gradientTransform="matrix(1,0,0,1.3469429,0,-16.21957)"
       gradientUnits="userSpaceOnUse" />
    <radialGradient
       inkscape:collect="always"
       xlink:href="#linearGradient25"
       id="radialGradient27"
       cx="-65.427087"
       cy="61.92543"
       fx="-65.427087"
       fy="61.92543"
       r="18.253259"
       gradientTransform="matrix(1,0,0,0.79482596,0,12.70549)"
       gradientUnits="userSpaceOnUse" />
    <radialGradient
       inkscape:collect="always"
       xlink:href="#linearGradient27"
       id="radialGradient29"
       cx="-61.59375"
       cy="82.028655"
       fx="-61.59375"
       fy="82.028655"
       r="20.931641"
       gradientTransform="matrix(1,0,0,0.73982186,0,21.342063)"
       gradientUnits="userSpaceOnUse" />
    <radialGradient
       inkscape:collect="always"
       xlink:href="#linearGradient29"
       id="radialGradient31"
       cx="-46.427903"
       cy="82.544923"
       fx="-46.427903"
       fy="82.544923"
       r="14.531419"
       gradientTransform="matrix(1,0,0,1.2560339,0,-21.134297)"
       gradientUnits="userSpaceOnUse" />
    <radialGradient
       inkscape:collect="always"
       xlink:href="#linearGradient31"
       id="radialGradient33"
       cx="-26.254883"
       cy="78.675217"
       fx="-26.254883"
       fy="78.675217"
       r="15.493164"
       gradientTransform="matrix(1,0,0,1.3485924,0,-27.425585)"
       gradientUnits="userSpaceOnUse" />
    <radialGradient
       inkscape:collect="always"
       xlink:href="#linearGradient33"
       id="radialGradient35"
       cx="-25.745694"
       cy="63.451792"
       fx="-25.745694"
       fy="63.451792"
       r="18.252353"
       gradientTransform="matrix(1,0,0,0.79092088,0,13.266445)"
       gradientUnits="userSpaceOnUse" />
    <radialGradient
       inkscape:collect="always"
       xlink:href="#linearGradient35"
       id="radialGradient37"
       cx="-29.646514"
       cy="43.386293"
       fx="-29.646514"
       fy="43.386293"
       r="20.863252"
       gradientTransform="matrix(1,0,0,0.74211096,0,11.188849)"
       gradientUnits="userSpaceOnUse" />
    <filter
       inkscape:collect="always"
       style="color-interpolation-filters:sRGB"
       id="filter37"
       x="-0.030720678"
       y="-0.030719324"
       width="1.0614414"
       height="1.0614386">
      <feGaussianBlur
         inkscape:collect="always"
         stdDeviation="0.97521517"
         id="feGaussianBlur37" />
    </filter>
  </defs>
  <g
     inkscape:label="Layer 1"
     inkscape:groupmode="layer"
     id="layer1">
    <g
       id="g56"
       style="display:none"
       sodipodi:insensitive="true">
      <path
         style="color:#000000;fill:#002b22;stroke-linejoin:round;-inkscape-stroke:none;paint-order:markers stroke fill"
         d="m 322.26605,12.624575 -23.41356,31.75 7.48326,7.48378 V 41.275022 l 38.99659,-5.89318 c -2.06384,-4.889743 -5.07835,-9.473427 -9.0625,-13.457576 -4.13303,-4.133042 -8.90777,-7.233169 -14.00379,-9.299691 z m 23.18101,23.02185 c 0.0392,0.09443 0.0741,0.190997 0.11266,0.285771 l 0.01,-0.0041 c -0.0384,-0.09468 -0.0834,-0.187181 -0.12247,-0.281637 z"
         id="path38" />
      <path
         style="color:#000000;fill:#005544;stroke-linejoin:round;-inkscape-stroke:none;paint-order:markers stroke fill"
         d="m 306.33575,51.858365 7.48378,-7.48379 31.74122,23.40736 c 1.9981,-4.9168 3.10834,-10.28931 3.10834,-15.92357 0,-5.84501 -1.18476,-11.41338 -3.32693,-16.47807 l -39.00641,5.89473 z m 38.9971,16.47393 0.009,0.0041 c 0.0377,-0.0892 0.0698,-0.18128 0.10697,-0.27079 -0.037,0.08946 -0.0786,0.17741 -0.11628,0.26666 z"
         id="path40" />
      <path
         style="color:#000000;fill:#002b22;stroke-linejoin:round;-inkscape-stroke:none;paint-order:markers stroke fill"
         d="m 345.56967,67.788275 -31.75,-23.41356 -7.48378,7.48326 h 10.58334 l 5.89318,38.996588 c 4.88974,-2.06384 9.47342,-5.07835 13.45757,-9.062498 4.13304,-4.13303 7.23317,-8.90777 9.29969,-14.00379 z m -23.02185,23.181008 c -0.0944,0.0392 -0.19099,0.0741 -0.28577,0.11266 l 0.004,0.01 c 0.0947,-0.0384 0.18718,-0.0834 0.28163,-0.12247 z"
         id="path42" />
      <path
         style="color:#000000;fill:#005544;stroke-linejoin:round;-inkscape-stroke:none;paint-order:markers stroke fill"
         d="m 306.33588,51.857975 7.48379,7.48378 -23.40736,31.741218 c 4.9168,1.9981 10.28931,3.10834 15.92357,3.10834 5.84501,0 11.41338,-1.18476 16.47807,-3.32693 l -5.89473,-39.006408 z m -16.47393,38.997098 -0.004,0.009 c 0.0892,0.0377 0.18128,0.0698 0.27079,0.10697 -0.0895,-0.037 -0.17741,-0.0786 -0.26666,-0.11628 z"
         id="path44" />
      <path
         style="color:#000000;fill:#002b22;stroke-linejoin:round;-inkscape-stroke:none;paint-order:markers stroke fill"
         d="m 290.40597,91.091893 23.41356,-31.749998 -7.48326,-7.48378 v 10.58334 l -38.99658,5.89318 c 2.06384,4.88974 5.07835,9.47342 9.06249,13.45757 4.13303,4.133038 8.90777,7.233168 14.00379,9.299688 z m -23.181,-23.021848 c -0.0392,-0.0944 -0.0741,-0.19099 -0.11266,-0.28577 l -0.01,0.004 c 0.0384,0.0947 0.0834,0.18718 0.12247,0.28163 z"
         id="path46" />
      <path
         style="color:#000000;fill:#005544;stroke-linejoin:round;-inkscape-stroke:none;paint-order:markers stroke fill"
         d="m 306.33627,51.858105 -7.48378,7.48379 -31.74121,-23.40736 c -1.9981,4.9168 -3.10834,10.28931 -3.10834,15.92357 0,5.84501 1.18476,11.41338 3.32693,16.47807 l 39.0064,-5.89473 z m -38.99709,-16.47393 -0.009,-0.004 c -0.0377,0.0892 -0.0698,0.18128 -0.10697,0.27079 0.037,-0.0895 0.0786,-0.17741 0.11628,-0.26666 z"
         id="path48" />
      <path
         style="color:#000000;fill:#002b22;stroke-linejoin:round;-inkscape-stroke:none;paint-order:markers stroke fill"
         d="m 267.10236,35.928195 31.74999,23.41356 7.48378,-7.48326 h -10.58334 l -5.89318,-38.99658 c -4.88974,2.06384 -9.47342,5.07835 -13.45757,9.06249 -4.13303,4.13303 -7.23316,8.90777 -9.29968,14.00379 z m 23.02184,-23.181 c 0.0944,-0.0392 0.19099,-0.0741 0.28577,-0.11266 l -0.004,-0.01 c -0.0947,0.0384 -0.18718,0.0834 -0.28163,0.12247 z"
         id="path50" />
      <path
         style="color:#000000;fill:#005544;stroke-linejoin:round;-inkscape-stroke:none;paint-order:markers stroke fill"
         d="m 306.33614,51.858495 -7.48379,-7.48378 23.40736,-31.74121 c -4.9168,-1.9981 -10.28931,-3.1083396 -15.92357,-3.1083396 -5.84501,0 -11.41338,1.1847596 -16.47807,3.3269296 l 5.89473,39.0064 z m 16.47393,-38.99709 0.004,-0.009 c -0.0892,-0.0377 -0.18128,-0.0698 -0.27079,-0.10697 0.0895,0.037 0.17741,0.0786 0.26666,0.11628 z"
         id="path52" />
    </g>
    <circle
       style="display:inline;fill:url(#radialGradient2);stroke-width:2.11667;stroke-linejoin:round;paint-order:markers stroke fill"
       id="path1"
       cx="67.73333"
       cy="67.73333"
       r="63.5" />
    <circle
       style="display:inline;fill:#00ccff;stroke-width:2.11667;stroke-linejoin:round;paint-order:markers stroke fill"
       id="path2"
       cx="67.73333"
       cy="67.73333"
       r="52.089844" />
    <path
       id="path3"
       style="color:#000000;display:inline;fill:url(#linearGradient5);stroke-width:1;stroke-linejoin:round;-inkscape-stroke:none;paint-order:markers stroke fill"
       d="M 135.46667,67.733332 A 67.733585,67.733585 0 0 0 67.733076,-2.6355e-4 67.733585,67.733585 0 0 0 -4.0000011e-7,67.733332 67.733585,67.733585 0 0 0 67.733076,135.46693 67.733585,67.733585 0 0 0 135.46667,67.733332 Z m -4.23232,-0.001 c 0,35.120298 -28.37996,63.500248 -63.500241,63.500248 -35.120287,0 -63.5002434,-28.37995 -63.5002434,-63.500248 0,-35.120281 28.3799564,-63.5002386 63.5002434,-63.5002386 35.120281,0 63.500241,28.3799576 63.500241,63.5002386 z" />
    <circle
       style="display:inline;fill:#00ccff;stroke:#000000;stroke-width:1.05833;stroke-linejoin:round;stroke-dasharray:none;stroke-opacity:1;paint-order:markers stroke fill"
       id="circle7"
       cx="67.73333"
       cy="67.73333"
       r="49.609379"
       inkscape:label="ring" />
    <circle
       style="display:inline;fill:#00ccff;stroke:#000000;stroke-width:1.05833;stroke-linejoin:round;stroke-dasharray:none;stroke-opacity:1;paint-order:markers stroke fill"
       id="path6"
       cx="67.73333"
       cy="67.73333"
       r="47.128906"
       inkscape:label="ring" />
    <circle
       style="display:inline;fill:#00ccff;stroke:#000000;stroke-width:1.05833;stroke-linejoin:round;stroke-dasharray:none;stroke-opacity:1;paint-order:markers stroke fill"
       id="circle6"
       cx="67.73333"
       cy="67.73333"
       r="44.648434"
       inkscape:label="ring" />
    <circle
       style="display:inline;fill:#00ccff;stroke:#000000;stroke-width:1.05833;stroke-linejoin:round;stroke-dasharray:none;stroke-opacity:1;paint-order:markers stroke fill"
       id="circle52"
       cx="67.73333"
       cy="67.73333"
       r="42.167965"
       inkscape:label="ring" />
    <g
       id="g28"
       transform="matrix(0.93749999,0,0,0.93749999,-123.36328,4.2334399)"
       style="display:inline;mix-blend-mode:overlay;stroke-width:1.06667">
      <path
         id="path17"
         style="fill:#002b22;stroke-width:1.12889;stroke-linejoin:round;paint-order:markers stroke fill"
         inkscape:transform-center-x="-15.874999"
         inkscape:transform-center-y="-19.616772"
         d="m 219.76643,28.499552 -23.41356,31.75 7.48326,7.48378 V 57.149999 l 38.99659,-5.89318 c -2.06384,-4.889743 -5.07835,-9.473427 -9.0625,-13.457576 -4.13303,-4.133042 -8.90777,-7.233169 -14.00379,-9.299691 z m 23.18101,23.02185 c 0.0392,0.09443 0.0741,0.190997 0.11266,0.285771 l 0.01,-0.0041 c -0.0384,-0.09468 -0.0834,-0.187181 -0.12247,-0.281637 z" />
      <path
         id="path20"
         style="fill:#005544;stroke-width:1.12889;stroke-linejoin:round;paint-order:markers stroke fill"
         inkscape:transform-center-y="-1.4781251e-05"
         d="m 203.83613,67.733342 7.48378,-7.48379 31.74122,23.40736 c 1.9981,-4.9168 3.10834,-10.28931 3.10834,-15.92357 0,-5.84501 -1.18476,-11.41338 -3.32693,-16.47807 l -39.00641,5.89473 z m 38.9971,16.47393 0.009,0.0041 c 0.0377,-0.0892 0.0698,-0.18128 0.10697,-0.27079 -0.037,0.08946 -0.0786,0.17741 -0.11628,0.26666 z"
         inkscape:transform-center-x="-21.166666" />
      <path
         id="path23"
         style="fill:#002b22;stroke-width:1.12889;stroke-linejoin:round;paint-order:markers stroke fill"
         inkscape:transform-center-x="-19.616769"
         inkscape:transform-center-y="15.875093"
         d="m 243.07005,83.663252 -31.75,-23.41356 -7.48378,7.48326 h 10.58334 l 5.89318,38.996588 c 4.88974,-2.06384 9.47342,-5.07835 13.45757,-9.062498 4.13304,-4.13303 7.23317,-8.90777 9.29969,-14.00379 z M 220.0482,106.84426 c -0.0944,0.0392 -0.19099,0.0741 -0.28577,0.11266 l 0.004,0.01 c 0.0947,-0.0384 0.18718,-0.0834 0.28163,-0.12247 z" />
      <path
         id="path24"
         style="fill:#005544;stroke-width:1.12889;stroke-linejoin:round;paint-order:markers stroke fill"
         inkscape:transform-center-y="21.166665"
         d="m 203.83626,67.732952 7.48379,7.48378 -23.40736,31.741218 c 4.9168,1.9981 10.28931,3.10834 15.92357,3.10834 5.84501,0 11.41338,-1.18476 16.47807,-3.32693 L 214.4196,67.732952 Z m -16.47393,38.997098 -0.004,0.009 c 0.0892,0.0377 0.18128,0.0698 0.27079,0.10697 -0.0895,-0.037 -0.17741,-0.0786 -0.26666,-0.11628 z"
         inkscape:transform-center-x="-6.191936e-05" />
      <path
         id="path25"
         style="fill:#002b22;stroke-width:1.12889;stroke-linejoin:round;paint-order:markers stroke fill"
         inkscape:transform-center-x="15.875092"
         inkscape:transform-center-y="19.616768"
         d="m 187.90635,106.96687 23.41356,-31.749998 -7.48326,-7.48378 v 10.58334 l -38.99658,5.89318 c 2.06384,4.88974 5.07835,9.47342 9.06249,13.45757 4.13303,4.133038 8.90777,7.233168 14.00379,9.299688 z m -23.181,-23.021848 c -0.0392,-0.0944 -0.0741,-0.19099 -0.11266,-0.28577 l -0.01,0.004 c 0.0384,0.0947 0.0834,0.18718 0.12247,0.28163 z" />
      <path
         id="path26"
         style="fill:#005544;stroke-width:1.12889;stroke-linejoin:round;paint-order:markers stroke fill"
         inkscape:transform-center-y="6.2057463e-05"
         d="m 203.83665,67.733082 -7.48378,7.48379 -31.74121,-23.40736 c -1.9981,4.9168 -3.10834,10.28931 -3.10834,15.92357 0,5.84501 1.18476,11.41338 3.32693,16.47807 l 39.0064,-5.89473 z m -38.99709,-16.47393 -0.009,-0.004 c -0.0377,0.0892 -0.0698,0.18128 -0.10697,0.27079 0.037,-0.0895 0.0786,-0.17741 0.11628,-0.26666 z"
         inkscape:transform-center-x="21.166664" />
      <path
         id="path27"
         style="fill:#002b22;stroke-width:1.12889;stroke-linejoin:round;paint-order:markers stroke fill"
         inkscape:transform-center-x="19.616767"
         inkscape:transform-center-y="-15.875092"
         d="m 164.60274,51.803172 31.74999,23.41356 7.48378,-7.48326 h -10.58334 l -5.89318,-38.99658 c -4.88974,2.06384 -9.47342,5.07835 -13.45757,9.06249 -4.13303,4.13303 -7.23316,8.90777 -9.29968,14.00379 z m 23.02184,-23.181 c 0.0944,-0.0392 0.19099,-0.0741 0.28577,-0.11266 l -0.004,-0.01 c -0.0947,0.0384 -0.18718,0.0834 -0.28163,0.12247 z" />
      <path
         id="path28"
         style="fill:#005544;stroke-width:1.12889;stroke-linejoin:round;paint-order:markers stroke fill"
         inkscape:transform-center-y="-21.166664"
         d="m 203.83652,67.733472 -7.48379,-7.48378 23.40736,-31.74121 c -4.9168,-1.9981 -10.28931,-3.10834 -15.92357,-3.10834 -5.84501,0 -11.41338,1.18476 -16.47807,3.32693 l 5.89473,39.0064 z m 16.47393,-38.99709 0.004,-0.009 c -0.0892,-0.0377 -0.18128,-0.0698 -0.27079,-0.10697 0.0895,0.037 0.17741,0.0786 0.26666,0.11628 z"
         inkscape:transform-center-x="6.5195566e-05" />
    </g>
    <g
       id="g37"
       transform="translate(113.32018,7.1198821)"
       style="display:inline;mix-blend-mode:color-dodge;filter:url(#filter37)">
      <path
         id="path12"
         style="mix-blend-mode:normal;fill:url(#radialGradient37);stroke-width:1.05833;stroke-linejoin:round;paint-order:markers stroke fill"
         inkscape:transform-center-x="-15.874999"
         inkscape:transform-center-y="-19.616772"
         d="m -30.230469,28.009766 c -6.738216,9.185143 -13.523286,18.345647 -20.279297,27.521484 1.112631,1.11263 2.225261,2.22526 3.337891,3.337891 0.01813,-2.122023 -0.06278,-4.253069 0.06055,-6.369141 0.39633,-1.317941 1.937161,-1.418364 3.079482,-1.556866 10.894661,-1.645956 21.789472,-3.292894 32.68419,-4.939228 -3.746753,-7.738435 -10.218942,-14.114684 -17.996094,-17.77539 -0.216151,-0.0089 -0.753597,-0.547779 -0.886719,-0.21875 z m 21.2792971,19.287109 c -0.8818339,0.811903 0.6556408,0.09937 0,0 z" />
      <path
         id="path13"
         style="mix-blend-mode:normal;fill:url(#radialGradient35);stroke-width:1.05833;stroke-linejoin:round;paint-order:markers stroke fill"
         inkscape:transform-center-x="-21.166666"
         inkscape:transform-center-y="-1.4781251e-05"
         d="m -43.998047,54.148438 c 0,1.574218 0,3.148437 0,4.722656 1.515276,-1.48487 2.962659,-3.049022 4.542969,-4.460938 1.253293,-0.675601 2.426164,0.421078 3.364496,1.135083 8.840741,6.519426 17.681482,13.038851 26.5222226,19.558277 2.9260021,-8.383901 2.7430131,-17.843209 -0.4570316,-26.087891 -11.324218,1.710938 -22.648437,3.421875 -33.972656,5.132813 z m 34.8789064,23.503906 c -0.1521263,0.385151 0.9790138,0.240853 0.1367187,-0.02539 l -0.098319,0.01826 z" />
      <path
         id="path14"
         style="mix-blend-mode:normal;fill:url(#radialGradient33);stroke-width:1.05833;stroke-linejoin:round;paint-order:markers stroke fill"
         inkscape:transform-center-x="-19.616769"
         inkscape:transform-center-y="15.875093"
         d="m -41.748047,61.119141 c 2.121372,0.01811 4.251766,-0.06276 6.367188,0.06055 1.31794,0.39633 1.418364,1.93716 1.556866,3.079482 1.645956,10.89466 3.292894,21.789471 4.939227,32.684189 7.336885,-3.53768 13.481589,-9.599628 17.181641,-16.794921 0.333724,-0.666151 0.642496,-1.285393 0.941406,-1.980469 -9.216146,-6.795573 -18.432291,-13.591146 -27.648437,-20.386719 -1.11263,1.11263 -2.225261,2.22526 -3.337891,3.337891 z m 10.976563,37.839843 c -0.738839,0.465018 0.465604,0.902129 0.515688,0.3574 -0.02317,-0.225527 -0.29059,-0.435778 -0.515688,-0.3574 z" />
      <path
         id="path16"
         style="mix-blend-mode:normal;fill:url(#radialGradient31);stroke-width:1.05833;stroke-linejoin:round;paint-order:markers stroke fill"
         inkscape:transform-center-x="-6.191936e-05"
         inkscape:transform-center-y="21.166665"
         d="m -37.443359,68.595703 c 0.858571,1.087198 0.01951,2.445668 -0.764386,3.297311 -6.58769,8.946546 -13.179558,17.890012 -19.77663,26.829642 8.387239,2.923894 17.80731,2.744864 26.087891,-0.46289 -1.710938,-11.322266 -3.421875,-22.644532 -5.132813,-33.966797 -1.572917,0 -3.145833,0 -4.71875,0 1.434896,1.434245 2.869792,2.868489 4.304688,4.302734 z m -23.277344,30.509766 c -0.667283,0.492746 0.309775,0.439492 0,0 z" />
      <path
         id="path18"
         style="mix-blend-mode:normal;fill:url(#radialGradient29);stroke-width:1.05833;stroke-linejoin:round;paint-order:markers stroke fill"
         inkscape:transform-center-x="15.875092"
         inkscape:transform-center-y="19.616768"
         d="m -43.998047,72.626953 c -0.151459,1.347355 -1.669013,1.731793 -2.804449,1.792383 -11.010088,1.65501 -22.018239,3.325829 -33.027582,4.986914 3.864701,7.975426 10.605174,14.473331 18.702937,18.10809 0.300104,-0.09037 0.498448,-0.669314 0.775437,-0.932395 6.563198,-8.901013 13.126396,-17.802026 19.689595,-26.703039 -1.11198,-1.111979 -2.223959,-2.223958 -3.335938,-3.335937 0,2.027995 0,4.055989 0,6.083984 z m -38.527344,5.255859 c 0.210328,0.63602 0.996062,-0.4338 0,0 z" />
      <path
         id="path19"
         style="mix-blend-mode:normal;fill:url(#radialGradient27);stroke-width:1.05833;stroke-linejoin:round;paint-order:markers stroke fill"
         inkscape:transform-center-x="21.166664"
         inkscape:transform-center-y="6.2057463e-05"
         d="m -82.404297,47.427734 c -0.490182,0.314493 0.673579,0.372133 0.212891,0.0293 -0.07122,-0.0073 -0.137469,-0.06233 -0.212891,-0.0293 z m 0.626953,3.359375 c -2.333936,7.087957 -2.53292,14.888062 -0.53125,22.09375 0.329706,1.206155 0.73355,2.367251 1.160156,3.552735 4.222363,-0.724871 8.480282,-1.294112 12.716334,-1.959059 7.086092,-1.070939 14.172184,-2.141878 21.258276,-3.212816 0,-1.574219 0,-3.148438 0,-4.722657 -1.515276,1.48487 -2.962659,3.049022 -4.542969,4.460938 -1.253298,0.675608 -2.426153,-0.421093 -3.364504,-1.135072 -8.843342,-6.520731 -17.686685,-13.041462 -26.530027,-19.562194 -0.05534,0.161459 -0.110677,0.322917 -0.166016,0.484375 z" />
      <path
         id="path21"
         style="mix-blend-mode:normal;fill:url(#radialGradient25);stroke-width:1.05833;stroke-linejoin:round;paint-order:markers stroke fill"
         inkscape:transform-center-x="19.616767"
         inkscape:transform-center-y="-15.875092"
         d="m -60.919922,25.873047 c -0.426227,0.595219 0.648322,0.294461 0.0332,-0.002 z m -1.986328,2.896484 c -6.342343,3.230183 -11.709606,8.266213 -15.345036,14.316272 -0.811896,1.346077 -1.538579,2.743357 -2.172542,4.181775 2.109733,1.455835 4.137961,3.049314 6.222277,4.551572 7.147262,5.269919 14.294523,10.539838 21.441785,15.809756 1.112631,-1.11263 2.225261,-2.22526 3.337891,-3.33789 -2.122023,-0.01813 -4.253069,0.06278 -6.369141,-0.06055 -1.31794,-0.396331 -1.418364,-1.937161 -1.556866,-3.079483 -1.645318,-10.89596 -3.291589,-21.792076 -4.937274,-32.688095 -0.207032,0.102213 -0.414063,0.204427 -0.621094,0.30664 z" />
      <path
         id="path22"
         style="mix-blend-mode:normal;fill:url(#radialGradient23);stroke-width:1.05833;stroke-linejoin:round;paint-order:markers stroke fill"
         inkscape:transform-center-x="6.5195566e-05"
         inkscape:transform-center-y="-21.166664"
         d="m -46.542969,24.619141 c -4.344147,0.1281 -8.677258,0.949894 -12.730469,2.529297 1.710287,11.322916 3.420573,22.645833 5.13086,33.96875 1.574219,-10e-7 3.148437,0 4.722656,0 -1.484869,-1.515277 -3.049021,-2.962659 -4.460937,-4.542969 -0.675595,-1.253289 0.421065,-2.426173 1.135092,-3.364489 6.521375,-8.842697 13.042751,-17.685393 19.564126,-26.528089 -4.194739,-1.452624 -8.823205,-2.181813 -13.361328,-2.0625 z m 16.117188,1.162109 c -0.715802,0.637876 0.590794,0.394434 0,0 z" />
    </g>
    <path
       sodipodi:type="star"
       style="display:inline;fill:#000000;stroke:none;stroke-width:2.63905;stroke-linejoin:round;stroke-dasharray:none;stroke-opacity:1;paint-order:markers stroke fill"
       id="path15"
       inkscape:flatsided="true"
       sodipodi:sides="8"
       sodipodi:cx="184.84344"
       sodipodi:cy="28.499788"
       sodipodi:r1="40.954098"
       sodipodi:r2="37.836651"
       sodipodi:arg1="-1.5707963"
       sodipodi:arg2="-1.1780972"
       inkscape:rounded="0"
       inkscape:randomized="0"
       d="M 184.84345,-12.454309 213.80237,-0.45913117 225.79754,28.499789 213.80236,57.458709 184.84344,69.453886 155.88452,57.458708 143.88935,28.499787 155.88453,-0.45913273 Z"
       transform="matrix(0.40102614,0,0,0.40102614,-6.3937211,56.304169)" />
    <path
       id="path37"
       style="color:#000000;display:inline;mix-blend-mode:normal;fill:#000000;stroke-width:1;stroke-linejoin:round;-inkscape-stroke:none;paint-order:markers stroke fill"
       d="m 67.734054,27.549924 c -5.338707,0 -10.433091,1.050774 -15.095007,2.942165 a 0.49614183,0.49614183 0 0 0 -0.02568,0 c -0.102206,0.04144 -0.181574,0.07938 -0.249018,0.108036 -0.0075,0.003 -0.01226,0.0042 -0.01985,0.0073 a 0.49614183,0.49614183 0 0 0 -0.0029,0.002 c -0.08264,0.03429 -0.167634,0.064 -0.249985,0.09883 a 0.49614183,0.49614183 0 0 0 -0.02277,0.02034 c -4.631897,1.958674 -8.974323,4.816634 -12.748744,8.591045 -3.775941,3.775947 -6.635344,8.120488 -8.594428,12.75552 a 0.49614183,0.49614183 0 0 0 -0.01696,0.01647 c -0.04021,0.09514 -0.06693,0.172111 -0.09254,0.235934 -0.03946,0.0952 -0.08484,0.188458 -0.123543,0.283898 a 0.49614183,0.49614183 0 0 0 -0.002,0.03343 c -1.889437,4.65934 -2.940704,9.750589 -2.940704,15.087258 0,5.338723 1.051239,10.433567 2.942645,15.095493 a 0.49614183,0.49614183 0 0 0 0,0.02568 c 0.04444,0.109627 0.08638,0.19703 0.115303,0.26694 l 4.87e-4,4.85e-4 c 0.03487,0.08405 0.06486,0.170593 0.100285,0.254345 a 0.49614183,0.49614183 0 0 0 0.01938,0.02132 c 1.958691,4.632416 4.817222,8.97539 8.592009,12.750189 3.775032,3.775032 8.119697,6.633928 12.753582,8.592978 a 0.49614183,0.49614183 0 0 0 0.01793,0.0183 c 0.08934,0.0377 0.161353,0.0617 0.223332,0.0862 0.0019,8.2e-4 0.0038,0.002 0.0059,0.003 0.0097,0.005 0.01762,0.009 0.02907,0.0136 a 0.49614183,0.49614183 0 0 0 0.0019,-4.9e-4 c 0.08774,0.0363 0.173663,0.0782 0.261609,0.11386 a 0.49614183,0.49614183 0 0 0 0.03489,0.002 c 4.658962,1.88907 9.749672,2.94071 15.0858,2.94071 5.338705,0 10.431768,-1.05125 15.093553,-2.94264 a 0.49614183,0.49614183 0 0 0 0.02762,0 c 0.109622,-0.0444 0.197512,-0.0863 0.267423,-0.11531 a 0.49614183,0.49614183 0 0 0 0.0034,-0.003 c 0.0823,-0.0341 0.166996,-0.0636 0.249019,-0.0983 a 0.49614183,0.49614183 0 0 0 0.08866,-0.0499 c 4.607156,-1.95787 8.926828,-4.804994 12.683325,-8.561489 3.77532,-3.775309 6.634413,-8.120272 8.593473,-12.75455 a 0.49614183,0.49614183 0 0 0 0.0175,-0.01696 c 0.0437,-0.103378 0.0753,-0.192166 0.10271,-0.258219 a 0.49614183,0.49614183 0 0 0 0,-0.0015 c 0.0364,-0.08787 0.0781,-0.174019 0.11386,-0.262097 a 0.49614183,0.49614183 0 0 0 0.0271,-0.09786 c 1.87331,-4.642146 2.91503,-9.710789 2.91503,-15.023308 0,-5.322819 -1.04497,-10.400909 -2.92569,-15.051406 a 0.49614183,0.49614183 0 0 0 -0.0165,-0.06928 c -0.0444,-0.109565 -0.0863,-0.197491 -0.1153,-0.267425 a 0.49614183,0.49614183 0 0 0 -0.002,-0.0015 c -0.0344,-0.08293 -0.0638,-0.168304 -0.0988,-0.250953 a 0.49614183,0.49614183 0 0 0 -0.0199,-0.0218 C 102.77978,47.436707 99.921736,43.093735 96.146932,39.318936 92.383939,35.55592 88.056026,32.703919 83.438894,30.745332 a 0.49614183,0.49614183 0 0 0 -0.06395,-0.0378 c -0.103379,-0.04369 -0.190228,-0.07479 -0.256285,-0.102223 -4.5e-4,-1.85e-4 -9.38e-4,-2.2e-5 -0.0014,0 -1.4e-4,-5.6e-5 -3.46e-4,5.7e-5 -4.87e-4,0 -0.08773,-0.03631 -0.173672,-0.07818 -0.261609,-0.113849 a 0.49614183,0.49614183 0 0 0 -0.02907,-0.0015 C 78.165597,28.599445 73.072562,27.549399 67.734054,27.549399 Z m 0,0.992188 c 4.986328,0 9.72644,0.989065 14.112514,2.687335 L 60.318326,60.422432 a 0.49614183,0.49614183 0 0 0 0.04796,0.644824 l 6.170652,6.170652 H 58.23851 L 52.840582,31.510437 c 4.595634,-1.891898 9.613518,-2.968326 14.893472,-2.968325 z m 15.082415,3.044872 h 4.78e-4 c 4.586915,1.911812 8.895394,4.700869 12.628594,8.434077 3.526066,3.526074 6.177869,7.577161 8.078489,11.879605 l -35.864583,5.420212 a 0.49614183,0.49614183 0 0 0 -0.421491,0.490763 V 66.5364 l -5.868337,-5.868343 z m -30.915263,0.355598 5.419725,35.864574 a 0.49614183,0.49614183 0 0 0 0.490763,0.421001 H 66.53694 L 60.668106,74.096985 31.587522,52.649651 c 1.911816,-4.587056 4.700297,-8.89528 8.433591,-12.62859 3.526078,-3.526064 7.577643,-6.177862 11.880093,-8.078479 z m 52.054954,20.897464 c 1.89151,4.595216 2.96833,9.612645 2.96833,14.892017 0,4.9862 -0.99013,9.726045 -2.68831,14.112026 L 75.043684,60.318272 a 0.49614183,0.49614183 0 0 0 -0.644343,0.04747 l -6.170644,6.17065 v -8.298427 z m -72.723753,0.781929 29.190562,21.525818 a 0.49614183,0.49614183 0 0 0 0.646275,-0.04747 l 6.168712,-6.170651 V 77.2281 l -35.727468,5.397926 c -1.891491,-4.595216 -2.968322,-9.614584 -2.968322,-14.893955 0,-4.985655 0.992419,-9.724503 2.690241,-14.110088 z m 43.56614,7.747105 29.080583,21.447333 c -1.91181,4.587056 -4.700279,8.895281 -8.433589,12.62859 -3.526079,3.526076 -7.577645,6.178347 -11.880085,8.078967 L 78.145722,67.658909 A 0.49614183,0.49614183 0 0 0 77.654959,67.23597 H 68.931654 Z M 68.9302,68.228157 h 8.297944 l 5.397928,35.727953 c -4.595203,1.89149 -9.612666,2.96785 -14.892018,2.96785 -4.986047,0 -9.725175,-0.99168 -14.111054,-2.68977 L 75.148328,75.043632 a 0.49614183,0.49614183 0 0 0 0.06153,-0.114333 0.49614183,0.49614183 0 0 0 0.01162,-0.03924 0.49614183,0.49614183 0 0 0 0.01938,-0.08914 0.49614183,0.49614183 0 0 0 0.002,-0.04505 0.49614183,0.49614183 0 0 0 -0.0067,-0.08769 0.49614183,0.49614183 0 0 0 -0.0087,-0.04505 0.49614183,0.49614183 0 0 0 -0.03004,-0.08042 0.49614183,0.49614183 0 0 0 -0.01937,-0.04263 0.49614183,0.49614183 0 0 0 -0.07752,-0.102706 z m -0.699572,0.703446 5.866406,5.866405 -21.446849,29.081072 C 48.063129,101.96727 43.754425,99.178314 40.021113,95.445003 36.495053,91.918928 33.84325,87.86784 31.942639,83.5654 l 7.443336,-1.124932 28.421719,-4.294796 a 0.49614183,0.49614183 0 0 0 0.125475,-0.0378 0.49614183,0.49614183 0 0 0 0.03246,-0.01792 0.49614183,0.49614183 0 0 0 0.07898,-0.05136 0.49614183,0.49614183 0 0 0 0.03391,-0.03101 0.49614183,0.49614183 0 0 0 0.05572,-0.06493 0.49614183,0.49614183 0 0 0 0.02568,-0.03827 0.49614183,0.49614183 0 0 0 0.0373,-0.08091 0.49614183,0.49614183 0 0 0 0.01502,-0.04117 0.49614183,0.49614183 0 0 0 0.0184,-0.127414 v -4.85e-4 z"
       inkscape:label="iris-separation" />
    <circle
       style="display:inline;opacity:0.4;mix-blend-mode:hard-light;fill:url(#radialGradient54);stroke-width:2.11667;stroke-linejoin:round;paint-order:markers stroke fill"
       id="circle53"
       cx="67.73333"
       cy="67.73333"
       r="52.089844"
       sodipodi:insensitive="true" />
    <path
       id="path54"
       style="display:inline;fill:url(#linearGradient56);stroke:none;stroke-width:1.05833;stroke-linejoin:round;paint-order:markers stroke fill"
       d="m 67.733331,54.519586 c -39.138589,0 -49.609377,13.213741 -49.472507,13.345948 0,-27.322913 22.149595,-49.472508 49.472507,-49.472508 27.322909,0 49.472509,22.149595 49.472509,49.472508 0,0 -10.33392,-13.345948 -49.472509,-13.345948 z"
       sodipodi:nodetypes="zcscz"
       inkscape:label="top-glare"
       sodipodi:insensitive="true" />
    <g
       id="g12"
       style="display:inline">
      <circle
         style="display:inline;opacity:0.4;fill:#ffffff;stroke:none;stroke-width:1.05833;stroke-linejoin:round;stroke-dasharray:none;stroke-opacity:1;paint-order:markers stroke fill"
         id="path56"
         cx="98.838348"
         cy="81.074196"
         r="5.0498495" />
      <circle
         style="display:inline;opacity:0.4;fill:#ffffff;stroke:none;stroke-width:1.05833;stroke-linejoin:round;stroke-dasharray:none;stroke-opacity:1;paint-order:markers stroke fill"
         id="circle56"
         cx="74.74913"
         cy="96.872566"
         r="7.6423116" />
      <circle
         style="display:inline;opacity:0.4;fill:#ffffff;stroke:none;stroke-width:1.05833;stroke-linejoin:round;stroke-dasharray:none;stroke-opacity:1;paint-order:markers stroke fill"
         id="circle57"
         cx="36.677956"
         cy="68.90567"
         r="3.1133478" />
      <circle
         style="display:inline;opacity:0.4;fill:#ffffff;stroke:none;stroke-width:1.05833;stroke-linejoin:round;stroke-dasharray:none;stroke-opacity:1;paint-order:markers stroke fill"
         id="circle58"
         cx="45.948944"
         cy="77.076462"
         r="1.9408817" />
    </g>
    <path
       id="circle9"
       style="display:inline;fill:none;fill-opacity:1;stroke-width:2.11667;stroke-linejoin:round;paint-order:markers stroke fill"
       d="M 128.32292,67.733334 A 60.589586,60.589586 0 0 0 67.733335,7.1437482 60.589586,60.589586 0 0 0 7.1437481,67.733334 60.589586,60.589586 0 0 0 67.733335,128.32292 60.589586,60.589586 0 0 0 128.32292,67.733334 Z" />
    <text
       xml:space="preserve"
       style="font-style:normal;font-weight:normal;font-size:9.17222px;line-height:1.25;font-family:sans-serif;display:inline;fill:#ffffff;fill-opacity:1;stroke:#000000;stroke-width:0.26458333;stroke-opacity:1;stroke-dasharray:none;paint-order:markers stroke fill"
       id="text9"
       inkscape:transform-center-x="-1.9387044"
       inkscape:transform-center-y="57.971542"
       transform="rotate(106.90316,67.779084,67.704771)"><textPath
         xlink:href="#circle9"
         id="textPath11"
         style="font-style:normal;font-variant:normal;font-weight:normal;font-stretch:normal;font-size:9.17222px;font-family:Aharoni;-inkscape-font-specification:'Aharoni, Normal';font-variant-ligatures:normal;font-variant-caps:normal;font-variant-numeric:normal;font-variant-east-asian:normal;fill:#ffffff;stroke:#000000;stroke-opacity:1;stroke-width:0.26458333;stroke-dasharray:none;paint-order:markers stroke fill">digiKam</textPath></text>
    <path
       id="text12"
       style="font-size:9.17222px;line-height:1.25;font-family:Aharoni;-inkscape-font-specification:'Aharoni, Normal';fill:#ececec;stroke-width:0.264583;filter:url(#filter12)"
       inkscape:transform-center-x="-1.9387044"
       inkscape:transform-center-y="57.971542"
       d="m 84.429155,123.19944 c 0.01768,-0.82902 -1.104907,-1.03868 -1.510479,-0.57129 1.049966,-0.052 1.254476,1.16565 1.424244,1.94986 -0.148778,0.7359 0.829585,1.12138 0.477266,0.21973 -0.130343,-0.53277 -0.260688,-1.06553 -0.391031,-1.5983 z m -2.55509,1.26079 c -0.200966,-0.44169 0.164439,-1.02081 -0.387308,-1.24451 -0.325072,-0.34586 -1.253335,-0.0874 -1.280458,0.0824 0.970559,-0.0718 1.253741,0.9931 1.387431,1.74669 -0.08774,0.51811 0.591623,1.50203 0.572431,0.60824 -0.09737,-0.39762 -0.194731,-0.79524 -0.292096,-1.19285 z m -2.701492,0.66104 c -0.09977,-0.52061 -0.25174,-0.95697 -0.373212,-1.526 -0.80348,0.0109 -0.02796,0.9812 -0.06622,1.45705 0.236283,0.47364 0.121758,1.52469 0.598197,1.60305 0.468708,-0.0832 -0.200536,-1.16208 -0.158761,-1.5341 z m -2.411852,-1.19221 c -0.773331,-0.14946 -0.150293,0.99114 -0.28103,1.1758 0.205227,0.62457 0.117859,1.30486 0.263918,1.95037 0.799669,0.0797 0.13934,-0.97182 0.231224,-1.44051 -0.07137,-0.56189 -0.142741,-1.12377 -0.214112,-1.68566 z m -1.113099,3.15239 c -1.147638,0.49679 -2.427486,-0.83334 -1.8825,-1.96015 0.253943,-0.60252 0.924875,-0.9874 1.57177,-0.87984 -1.107035,-0.6605 -2.480328,0.62335 -2.124065,1.79919 0.09123,1.12391 1.632446,1.8686 2.434795,1.0408 z m -6.251132,-1.74447 c -0.644669,-0.44246 0.349046,-0.91978 0.544597,-1.38103 0.267108,-0.4238 0.990145,-1.07565 0.984176,-1.36285 -0.707902,-0.14597 -0.868442,0.74699 -1.289653,1.14519 -0.268703,0.48521 -0.879645,0.97982 -0.94053,1.45959 0.674853,0.81905 1.349182,1.63854 2.023832,2.45776 1.105519,0.19341 0.263282,-0.46838 -0.110077,-0.92431 -0.404117,-0.46478 -0.808231,-0.92956 -1.212345,-1.39435 z m -1.570872,0.89032 c -0.03267,-1.18335 -0.06268,-2.36676 -0.09493,-3.55012 -0.880711,-0.24019 -0.403208,0.80739 -0.496542,1.31374 0.03316,1.25154 0.06632,2.50309 0.09949,3.75463 0.881945,0.24158 0.405388,-0.80555 0.497558,-1.31316 -0.0019,-0.0684 -0.0037,-0.13672 -0.0056,-0.20509 z m -2.51157,-1.66344 c -0.772049,-0.21644 -0.302368,0.93418 -0.474274,1.37846 0.09289,0.52008 -0.315497,1.49547 0.119827,1.7045 0.487476,-0.0969 0.12722,-1.12702 0.283937,-1.58802 0.0235,-0.49831 0.04701,-0.99663 0.07051,-1.49494 z m 0.190663,-2.11198 c 0.01334,-0.60511 -0.943259,-0.18245 -0.474263,0.21719 0.178533,0.13777 0.469635,0.0145 0.474263,-0.21719 z m -2.860102,5.75084 c 0.184786,-1.24473 0.292876,-2.49986 0.447174,-3.74873 -0.693446,-0.28353 -0.438453,0.78468 -0.503177,1.19232 -0.09444,0.77862 -0.261949,1.50984 -0.312273,2.32407 -0.0062,1.22681 -1.707084,1.81446 -2.496822,0.92125 -0.687206,-0.52915 -0.510002,0.18544 0.134522,0.32982 0.978713,0.40014 2.535652,0.26089 2.730576,-1.01873 z m -1.653213,-0.94126 c -1.319291,-0.0318 -1.843446,-1.94039 -0.774195,-2.6767 0.356979,-0.3041 0.872615,-0.38464 1.317416,-0.25286 -0.971837,-0.74445 -2.41474,0.21884 -2.366777,1.37505 -0.188452,1.06371 1.009611,1.99393 1.989854,1.55809 l -0.09998,-0.002 z m -3.266673,-3.53821 c -0.739644,-0.31923 -0.428711,0.8826 -0.657628,1.3028 0.02245,0.5284 -0.511643,1.44141 -0.10843,1.70666 0.499122,-0.0286 0.278487,-1.09942 0.495937,-1.53588 0.09004,-0.49119 0.180082,-0.98239 0.270121,-1.47358 z m 0.478152,-2.15117 c -0.07416,-0.57844 -0.931776,-0.0759 -0.466036,0.27072 0.205102,0.13585 0.487159,-0.0214 0.466036,-0.27072 z m -2.037228,-0.74565 c -0.712762,-0.36764 -0.482227,0.85474 -0.739232,1.25533 -0.201509,0.66761 -0.353596,1.65139 -0.587757,2.12397 0.01806,0.69588 -0.365851,1.32397 -0.460261,2.01169 0.712728,0.36763 0.482406,-0.85469 0.739496,-1.25526 0.349252,-1.37858 0.698502,-2.75715 1.047754,-4.13573 z m -2.824183,5.01464 c -1.269745,0.0471 -1.961178,-1.7239 -0.990497,-2.5444 0.416907,-0.50861 1.343604,-0.44443 1.718267,-0.25355 -0.8665,-0.99934 -2.590514,-0.20291 -2.632925,1.05342 -0.24421,1.05052 0.934342,2.21342 1.905155,1.74453 z" />
  </g>
</svg>
