<?xml version="1.0" encoding="UTF-8" standalone="no"?>
<!-- Created with Inkscape (http://www.inkscape.org/) -->

<svg
   width="512"
   height="512"
   viewBox="0 0 135.46666 135.46667"
   version="1.1"
   id="svg5"
   inkscape:version="1.4 (e7c3feb100, 2024-10-09)"
   sodipodi:docname="engrampa.svg"
   xmlns:inkscape="http://www.inkscape.org/namespaces/inkscape"
   xmlns:sodipodi="http://sodipodi.sourceforge.net/DTD/sodipodi-0.dtd"
   xmlns:xlink="http://www.w3.org/1999/xlink"
   xmlns="http://www.w3.org/2000/svg"
   xmlns:svg="http://www.w3.org/2000/svg">
  <sodipodi:namedview
     id="namedview7"
     pagecolor="#242424"
     bordercolor="#666666"
     borderopacity="1"
     inkscape:showpageshadow="0"
     inkscape:pageopacity="0"
     inkscape:pagecheckerboard="1"
     inkscape:deskcolor="#000000"
     inkscape:document-units="px"
     showgrid="false"
     inkscape:zoom="0.35355339"
     inkscape:cx="296.98485"
     inkscape:cy="-179.60512"
     inkscape:window-width="3233"
     inkscape:window-height="1080"
     inkscape:window-x="1887"
     inkscape:window-y="0"
     inkscape:window-maximized="0"
     inkscape:current-layer="layer1" />
  <defs
     id="defs2">
    <linearGradient
       id="linearGradient3"
       inkscape:collect="always">
      <stop
         style="stop-color:#ffffff;stop-opacity:1;"
         offset="0"
         id="stop3" />
      <stop
         style="stop-color:#3a466f;stop-opacity:1;"
         offset="1"
         id="stop4" />
    </linearGradient>
    <inkscape:path-effect
       effect="skeletal"
       id="path-effect82"
       is_visible="true"
       lpeversion="1"
       pattern="m 17.829149,-299.22722 v 14.76241 h 7.60005 l 7.16236,-7.38095 -7.16236,-7.38146 z"
       copytype="repeated"
       prop_scale="1"
       scale_y_rel="false"
       spacing="0"
       normal_offset="0"
       tang_offset="0"
       prop_units="false"
       vertical_pattern="false"
       hide_knot="false"
       fuse_tolerance="0" />
    <inkscape:path-effect
       effect="skeletal"
       id="path-effect80"
       is_visible="true"
       lpeversion="1"
       pattern="m 17.829149,-299.22722 v 14.76241 h 7.60005 l 7.16236,-7.38095 -7.16236,-7.38146 z"
       copytype="repeated"
       prop_scale="1"
       scale_y_rel="false"
       spacing="0"
       normal_offset="0"
       tang_offset="0"
       prop_units="false"
       vertical_pattern="false"
       hide_knot="false"
       fuse_tolerance="0" />
    <linearGradient
       id="linearGradient37"
       inkscape:collect="always">
      <stop
         style="stop-color:#b2cad9;stop-opacity:1;"
         offset="0"
         id="stop38" />
      <stop
         style="stop-color:#523b70;stop-opacity:1;"
         offset="1"
         id="stop37" />
    </linearGradient>
    <linearGradient
       id="linearGradient35"
       inkscape:collect="always">
      <stop
         style="stop-color:#c3c8d6;stop-opacity:0.99607801;"
         offset="0"
         id="stop35" />
      <stop
         style="stop-color:#879bae;stop-opacity:1;"
         offset="1"
         id="stop36" />
    </linearGradient>
    <linearGradient
       id="linearGradient33"
       inkscape:collect="always">
      <stop
         style="stop-color:#abaec8;stop-opacity:0.99607843;"
         offset="0"
         id="stop33" />
      <stop
         style="stop-color:#8199ab;stop-opacity:1;"
         offset="1"
         id="stop34" />
    </linearGradient>
    <linearGradient
       id="linearGradient31"
       inkscape:collect="always">
      <stop
         style="stop-color:#a3a3b9;stop-opacity:0.99607843;"
         offset="0"
         id="stop31" />
      <stop
         style="stop-color:#827d9e;stop-opacity:1;"
         offset="1"
         id="stop32" />
    </linearGradient>
    <linearGradient
       id="linearGradient17"
       inkscape:collect="always">
      <stop
         style="stop-color:#5e6bba;stop-opacity:0.99607843;"
         offset="0"
         id="stop18" />
      <stop
         style="stop-color:#3d4caa;stop-opacity:0.99607801;"
         offset="1"
         id="stop17" />
    </linearGradient>
    <inkscape:path-effect
       effect="fillet_chamfer"
       id="path-effect16"
       is_visible="true"
       lpeversion="1"
       nodesatellites_param="F,0,1,1,0,7.408333,0,1 @ F,0,0,1,0,0,0,1 @ F,0,1,1,0,7.408333,0,1 @ F,0,0,1,0,0,0,1 @ F,0,0,1,0,0,0,1 @ F,0,0,1,0,0,0,1"
       radius="28"
       unit="px"
       method="auto"
       mode="F"
       chamfer_steps="1"
       flexible="false"
       use_knot_distance="true"
       apply_no_radius="true"
       apply_with_radius="true"
       only_selected="true"
       hide_knots="false" />
    <inkscape:path-effect
       effect="fillet_chamfer"
       id="path-effect15"
       is_visible="true"
       lpeversion="1"
       nodesatellites_param="F,0,0,1,0,0,0,1 @ F,0,0,1,0,0,0,1 @ F,0,0,1,0,0,0,1 @ F,0,0,1,0,0,0,1 @ F,0,1,1,0,8.4666662,0,1 @ F,0,0,1,0,0,0,1 @ F,0,1,1,0,8.4666662,0,1 @ F,0,0,1,0,0,0,1 @ F,0,0,1,0,0,0,1 @ F,0,0,1,0,0,0,1 @ F,0,0,1,0,0,0,1 | F,0,0,1,0,0,0,1 @ F,0,0,1,0,0,0,1 @ F,0,0,1,0,0,0,1 @ F,0,0,1,0,0,0,1 @ F,0,0,1,0,0,0,1 @ F,0,0,1,0,0,0,1 @ F,0,0,1,0,0,0,1 @ F,0,0,1,0,0,0,1"
       radius="32"
       unit="px"
       method="auto"
       mode="F"
       chamfer_steps="1"
       flexible="false"
       use_knot_distance="true"
       apply_no_radius="true"
       apply_with_radius="true"
       only_selected="true"
       hide_knots="false" />
    <linearGradient
       id="linearGradient1"
       inkscape:collect="always">
      <stop
         style="stop-color:#6075b9;stop-opacity:1;"
         offset="0"
         id="stop1" />
      <stop
         style="stop-color:#515187;stop-opacity:1;"
         offset="1"
         id="stop2" />
    </linearGradient>
    <linearGradient
       inkscape:collect="always"
       xlink:href="#linearGradient1"
       id="linearGradient2"
       x1="38.458755"
       y1="0"
       x2="86.675697"
       y2="135.46666"
       gradientUnits="userSpaceOnUse"
       gradientTransform="translate(6.574707e-6)" />
    <linearGradient
       inkscape:collect="always"
       xlink:href="#linearGradient17"
       id="linearGradient18"
       x1="81.43911"
       y1="8.598958"
       x2="110.13969"
       y2="8.598958"
       gradientUnits="userSpaceOnUse"
       gradientTransform="matrix(1.1489687,0,0,1.1489687,-241.42949,-85.634093)" />
    <linearGradient
       inkscape:collect="always"
       xlink:href="#linearGradient31"
       id="linearGradient32"
       x1="66.233444"
       y1="41.777493"
       x2="44.210548"
       y2="97.870232"
       gradientUnits="userSpaceOnUse"
       gradientTransform="matrix(-1,0,0,1,133.41339,-2.0533185)" />
    <linearGradient
       inkscape:collect="always"
       xlink:href="#linearGradient33"
       id="linearGradient34"
       x1="90.122643"
       y1="-10.354526"
       x2="103.17372"
       y2="10.52487"
       gradientUnits="userSpaceOnUse"
       gradientTransform="matrix(0.85406393,0,0,0.85406393,-81.770006,94.746821)" />
    <linearGradient
       inkscape:collect="always"
       xlink:href="#linearGradient35"
       id="linearGradient36"
       x1="45.231583"
       y1="72.43576"
       x2="51.325134"
       y2="109.21185"
       gradientUnits="userSpaceOnUse"
       gradientTransform="matrix(-1,0,0,1,135.46666,5.3179685e-7)" />
    <linearGradient
       inkscape:collect="always"
       xlink:href="#linearGradient37"
       id="linearGradient38"
       x1="51.041679"
       y1="66.625664"
       x2="52.950024"
       y2="106.56488"
       gradientUnits="userSpaceOnUse"
       gradientTransform="matrix(-1,0,0,1,135.46666,5.3179685e-7)" />
    <clipPath
       clipPathUnits="userSpaceOnUse"
       id="clipPath42">
      <path
         id="path43"
         style="-inkscape-font-specification:'Adwaita Sans, Normal';opacity:1;fill:#c8b7b7;stroke-width:0.999998;paint-order:markers stroke fill"
         d="M 170.03633,26.228589 159.92274,53.62485 h 5.45341 l 2.543,-7.091556 h 9.06456 l 2.47065,7.091556 h 5.52318 L 174.97556,26.228589 Z m 15.22078,0 V 53.62485 h 5.16971 v -9.925492 h 4.63072 l 5.33404,9.925492 h 5.97845 l -5.96449,-10.919746 c 0.0374,-0.01699 0.0817,-0.02183 0.11885,-0.03928 1.48079,-0.696095 2.68204,-1.726028 3.52537,-3.046844 l 0.002,-0.0021 c 0.86467,-1.337316 1.28726,-2.922995 1.28726,-4.661734 0,-1.727253 -0.39277,-3.293615 -1.2051,-4.619355 -0.79598,-1.328679 -1.96252,-2.368145 -3.41426,-3.068547 -1.44968,-0.704869 -3.13605,-1.038695 -5.02346,-1.038695 z m 21.97075,0 V 53.62485 h 5.16971 v -8.927621 l 2.51561,-2.705262 8.31835,11.632883 h 6.21668 L 218.49332,38.316222 229.8332,26.228589 h -6.94325 l -7.98246,8.583973 -1.80299,1.937348 -0.70693,0.775663 v -1.43402 -9.862964 z m -16.80104,4.831745 h 5.16816 c 1.05418,0 1.89483,0.181988 2.55643,0.503846 l 0.008,0.0041 0.008,0.0021 c 0.68612,0.320188 1.15598,0.736991 1.4981,1.292942 l 0.002,0.0057 0.004,0.0041 c 0.34484,0.546693 0.53123,1.211726 0.53123,2.082044 0,0.861163 -0.18364,1.533403 -0.52555,2.097548 -0.34346,0.566721 -0.81498,0.993116 -1.4981,1.322398 -5.3e-4,2.32e-4 -0.002,-2.31e-4 -0.002,0 -0.66518,0.31429 -1.50433,0.491961 -2.54868,0.491961 h -5.20123 z m -17.92966,2.51406 c 0.0581,0.177144 0.15286,0.47988 0.20722,0.644406 l 0.002,0.0057 0.002,0.0041 c 0.44161,1.290854 0.83814,2.441948 1.1896,3.450955 l 1.40249,4.02146 h -5.64883 l 1.43971,-4.011644 v -0.0021 c 0.36472,-1.014431 0.76241,-2.168504 1.1932,-3.460771 l 0.002,-0.0041 c 0.0562,-0.165793 0.15101,-0.469379 0.21084,-0.648023 z" />
    </clipPath>
    <filter
       inkscape:collect="always"
       style="color-interpolation-filters:sRGB"
       id="filter51"
       x="-0.01728244"
       y="-0.017277565"
       width="1.0345649"
       height="1.0345551">
      <feGaussianBlur
         inkscape:collect="always"
         stdDeviation="0.52598856"
         id="feGaussianBlur51" />
    </filter>
    <marker
       markerWidth="55.79493713"
       markerHeight="55.79493713"
       refX="27.897468"
       refY="27.897468"
       orient="auto"
       id="marker75"
       viewBox="0 0 55.794936 55.794936"
       preserveAspectRatio="xMidYMid">
      <path
         style="display:inline;fill:#6666b5;fill-opacity:0.996078;stroke-width:1.05833;stroke-linecap:round;stroke-linejoin:round;stroke-miterlimit:1;paint-order:markers stroke fill"
         d="M 0,0 V 55.794936 H 28.724599 L 55.794936,27.898432 28.724599,0 Z"
         id="path75" />
    </marker>
    <marker
       markerWidth="16.00000115"
       markerHeight="16"
       refX="27.89747"
       refY="27.897468"
       orient="0.00"
       id="marker76"
       viewBox="0 0 55.79494 55.794936"
       preserveAspectRatio="xMidYMid"
       markerUnits="userSpaceOnUse">
      <path
         style="display:inline;fill:#6666b5;fill-opacity:0.996078;stroke-width:1.05833;stroke-linecap:round;stroke-linejoin:round;stroke-miterlimit:1;paint-order:markers stroke fill"
         d="M 0,0 V 55.794936 H 28.724599 L 55.79494,27.898432 28.724599,0 Z"
         id="path76" />
    </marker>
    <marker
       markerWidth="16"
       markerHeight="16"
       refX="27.897468"
       refY="27.897468"
       orient="0.00"
       id="marker79"
       viewBox="0 0 55.794936 55.794936"
       preserveAspectRatio="xMidYMid"
       markerUnits="userSpaceOnUse">
      <path
         style="display:inline;fill:#c83737;fill-opacity:0.996078;stroke-width:1.05833;stroke-linecap:round;stroke-linejoin:round;stroke-miterlimit:1;paint-order:markers stroke fill"
         d="M 55.794936,0 V 55.794936 H 27.070337 L 0,27.898432 27.070337,0 Z"
         id="path79" />
    </marker>
    <filter
       inkscape:collect="always"
       style="color-interpolation-filters:sRGB"
       id="filter90"
       x="-0.03054835"
       y="-0.0069320603"
       width="1.0610967"
       height="1.0138641">
      <feGaussianBlur
         inkscape:collect="always"
         stdDeviation="0.59550393"
         id="feGaussianBlur90" />
    </filter>
    <filter
       inkscape:collect="always"
       style="color-interpolation-filters:sRGB"
       id="filter95"
       x="-0.17524803"
       y="-0.2122931"
       width="1.3504961"
       height="1.4245862">
      <feGaussianBlur
         inkscape:collect="always"
         stdDeviation="4.6740538"
         id="feGaussianBlur95" />
    </filter>
    <linearGradient
       inkscape:collect="always"
       xlink:href="#linearGradient3"
       id="linearGradient4"
       x1="122.4396"
       y1="-27.846292"
       x2="126.67414"
       y2="27.846292"
       gradientUnits="userSpaceOnUse" />
    <clipPath
       clipPathUnits="userSpaceOnUse"
       id="clipPath5">
      <path
         style="fill:#91add7;stroke-width:0.999998;stroke-linecap:round;stroke-linejoin:round;stroke-miterlimit:1;paint-order:markers stroke fill"
         d="m 124.35521,-25.883148 -9.8668,13.697409 -13.69741,9.866808 c -2.301395,1.50031404 -2.638834,4.738263 -0.69623,6.680861 l 5.19795,5.1979539 7.8905,2.5054201 15.78098,15.780988 18.16317,-7.39307 7.39306,-18.163182 -15.78097,-15.780975 -2.50543,-7.890488 -5.19795,-5.197957 c -1.9426,-1.942597 -5.18055,-1.605161 -6.68087,0.696232 z"
         id="path6" />
    </clipPath>
    <filter
       inkscape:collect="always"
       style="color-interpolation-filters:sRGB"
       id="filter6"
       x="-0.030657013"
       y="-0.030657149"
       width="1.061314"
       height="1.0613143">
      <feGaussianBlur
         inkscape:collect="always"
         stdDeviation="0.72483362"
         id="feGaussianBlur6" />
    </filter>
    <linearGradient
       inkscape:collect="always"
       xlink:href="#linearGradient1"
       id="linearGradient7"
       gradientUnits="userSpaceOnUse"
       gradientTransform="translate(-168.07991,24.597977)"
       x1="33.805752"
       y1="51.814011"
       x2="80.722832"
       y2="104.59042" />
    <filter
       style="color-interpolation-filters:sRGB;"
       inkscape:label="Noise Fill"
       id="filter9"
       x="0"
       y="0"
       width="1"
       height="1">
      <feTurbulence
         type="fractalNoise"
         baseFrequency="0.01 4"
         numOctaves="1"
         seed="4"
         result="turbulence"
         id="feTurbulence8" />
      <feComposite
         in="SourceGraphic"
         in2="turbulence"
         operator="in"
         result="composite1"
         id="feComposite8" />
      <feColorMatrix
         values="1 0 0 0 0 0 1 0 0 0 0 0 1 0 0 0 0 0 4 -1 "
         result="color"
         id="feColorMatrix8" />
      <feFlood
         flood-opacity="1"
         flood-color="rgb(41,41,41)"
         result="flood"
         id="feFlood8" />
      <feMerge
         result="merge"
         id="feMerge9">
        <feMergeNode
           in="flood"
           id="feMergeNode8" />
        <feMergeNode
           in="color"
           id="feMergeNode9" />
      </feMerge>
      <feComposite
         in2="SourceGraphic"
         operator="in"
         result="composite2"
         id="feComposite9" />
    </filter>
    <filter
       inkscape:collect="always"
       style="color-interpolation-filters:sRGB"
       id="filter11"
       x="-0.069152643"
       y="-0.069087394"
       width="1.1383053"
       height="1.1381748">
      <feGaussianBlur
         inkscape:collect="always"
         stdDeviation="1.4045325"
         id="feGaussianBlur11" />
    </filter>
  </defs>
  <g
     inkscape:label="Layer 1"
     inkscape:groupmode="layer"
     id="layer1">
    <rect
       style="display:inline;fill:url(#linearGradient2);stroke:none;stroke-width:1.05833;stroke-linecap:round;stroke-linejoin:round;stroke-miterlimit:1;paint-order:markers stroke fill"
       id="rect1"
       width="135.46666"
       height="135.46666"
       x="2.7270507e-06"
       y="2.7270507e-06"
       ry="10.252907" />
    <path
       id="rect7"
       style="display:inline;opacity:0.6;mix-blend-mode:luminosity;fill:url(#linearGradient7);stroke:none;stroke-width:0.550732;stroke-linecap:round;stroke-linejoin:round;stroke-miterlimit:1;paint-order:markers stroke fill;filter:url(#filter9)"
       d="m -146.42064,88.558468 c -2.09007,2.090072 -2.09007,5.455471 0,7.545542 l 42.3014,42.30139 c 2.09007,2.09007 5.455276,2.08988 7.545348,-1.9e-4 l 42.301203,-42.3012 c 2.090072,-2.090071 2.090262,-5.45528 1.9e-4,-7.545352 L -96.573892,46.257265 c -2.090072,-2.090072 -5.455468,-2.090072 -7.545538,0 z"
       transform="matrix(1.3588316,1.3588316,-1.3588316,1.3588316,329.55015,78.624945)" />
    <path
       id="path9"
       style="display:inline;opacity:0.6;mix-blend-mode:soft-light;fill:#ff0000;fill-opacity:1;stroke:none;stroke-width:0.550732;stroke-linecap:round;stroke-linejoin:round;stroke-miterlimit:1;paint-order:markers stroke fill;filter:url(#filter9)"
       d="m -146.42064,88.558468 c -2.09007,2.090072 -2.09007,5.455471 0,7.545542 l 42.3014,42.30139 c 2.09007,2.09007 5.455276,2.08988 7.545348,-1.9e-4 l 42.301203,-42.3012 c 2.090072,-2.090071 2.090262,-5.45528 1.9e-4,-7.545352 L -96.573892,46.257265 c -2.090072,-2.090072 -5.455468,-2.090072 -7.545538,0 z"
       transform="matrix(-1.3588316,1.3588316,-1.3588316,-1.3588316,56.841712,329.55015)" />
    <g
       id="g91"
       transform="matrix(-0.61542739,0.61542739,0.61542739,0.61542739,39.58591,201.28388)"
       style="display:inline;opacity:1;stroke-width:1.14897">
      <path
         id="rect16"
         style="display:inline;opacity:1;fill:url(#linearGradient18);stroke:none;stroke-width:1.21599;stroke-linecap:round;stroke-linejoin:round;stroke-miterlimit:1;paint-order:markers stroke fill"
         d="m -163.66639,-179.20508 c 0,0 15.80789,36.24078 15.80789,93.570987 0,57.330207 0,93.5709867 0,93.5709867 l 16.48803,16.4880293 16.48801,-16.4880293 c 0,0 10e-6,-29.6171987 2e-5,-93.5709897 0,-63.953794 18.84788,-93.570984 18.84788,-93.570984 l -35.33591,-16.48803 z"
         sodipodi:nodetypes="czccczccc" />
      <path
         id="path38"
         style="display:inline;opacity:1;fill:#1b1b1b;fill-opacity:1;stroke-width:1.32013"
         d="m -152.69322,-187.3142 c 11.55284,24.2696 14.165,49.28793 16.09547,71.47849 l 0.3639,140.259918 h 9.72793 l 1.05854,-145.155478 c 1.60498,-25.22721 9.42067,-48.99337 21.77037,-72.59628 -21.91077,-5.78669 -33.11695,-3.98318 -49.01621,6.01335 z"
         sodipodi:nodetypes="ccccccc" />
      <path
         id="path94"
         style="display:inline;opacity:0.6;mix-blend-mode:normal;fill:#000000;fill-opacity:1;stroke-width:1.14897;filter:url(#filter95)"
         d="m 128.23828,-11.458984 c -3.77499,6.8943726 -7.22828,13.9602602 -10.42736,21.1389218 -2.3612,4.9958092 -5.58734,9.5070542 -8.42922,14.2298112 -1.18453,1.901177 -10.881584,13.156788 -12.066114,15.057965 6.472464,-4.032421 21.607814,-16.099291 28.354584,-19.661869 3.86925,-1.619489 10.67071,-4.643664 14.60982,-6.06891 8.01403,-2.817701 13.05288,-5.1787432 21.04618,-8.0279506 -6.71554,-4.5188935 -13.88704,-8.3907866 -20.87354,-12.5017745 -3.66896,-2.1232945 -7.33162,-4.2621589 -10.88232,-6.5802569 z"
         sodipodi:nodetypes="cccccccccc"
         transform="matrix(0.81244353,-0.81244353,0.81244353,0.81244353,-241.4289,-85.634805)" />
      <path
         id="path97"
         style="display:inline;fill:#73738f;fill-opacity:1;stroke-miterlimit:12;paint-order:fill markers stroke"
         d="m -157.11475,-182.73468 5.39413,-2.34944 c 2.63409,1.0928 5.25817,2.28603 7.87539,3.54095 -1.10111,2.68421 -2.24807,5.32627 -3.46495,7.90268 l -5.57256,1.88047 c -1.28081,-3.70976 -2.68963,-7.37026 -4.23243,-10.97256 -2.4e-4,0 6.5e-4,-10e-4 4.2e-4,-0.002 z m 5.01123,13.27959 1.21292,-0.4085 4.35754,-1.47239 c 2.52971,1.31219 5.04482,2.71839 7.55086,4.17953 -1.31806,2.58102 -2.67657,5.12014 -4.09598,7.59578 l -5.70859,1.43544 c -0.98303,-3.8188 -2.0874,-7.59696 -3.31675,-11.32986 z m 3.91041,13.68937 5.70691,-1.43544 c 0,2.8e-4 0.002,-7.1e-4 0.002,-4.2e-4 2.4227,1.5098 4.82866,3.10491 7.22086,4.75051 -1.51362,2.47502 -3.06174,4.90938 -4.66235,7.28131 l -5.81061,1.01938 c -0.70429,-3.90247 -1.52198,-7.77733 -2.45691,-11.61534 z m 28.76378,-18.39621 c 2.61645,-1.25454 5.23915,-2.44886 7.87246,-3.54137 0.001,-2.3e-4 0.002,2.2e-4 0.003,0 l 5.39454,2.35154 c -1.54305,3.60278 -2.95353,7.2627 -4.23452,10.97298 l -5.57004,-1.88131 c -1.21688,-2.5764 -2.36385,-5.21763 -3.46496,-7.90184 z m -25.88703,32.40801 5.81062,-1.01938 c 2.31354,1.68607 4.60462,3.44889 6.88078,5.25768 -1.68675,2.36417 -3.40268,4.68962 -5.16195,6.953 l -0.92995,0.0995 -4.94532,0.52942 c -0.44447,-3.96061 -0.99473,-7.90266 -1.65418,-11.82022 z m 21.02358,-18.02171 c 2.50554,-1.46086 5.01997,-2.86757 7.54918,-4.17953 l 5.57004,1.88047 c -1.22934,3.7329 -2.3333,7.51147 -3.31633,11.33027 l -5.17203,-1.29857 -0.5332,-0.13519 c -1.41989,-2.47638 -2.7792,-5.01564 -4.09766,-7.59745 z m -3.72063,14.70538 c 2.39302,-1.6462 4.79898,-3.24021 7.22253,-4.75051 l 4.2e-4,4.2e-4 5.70691,1.43544 c -0.93493,3.838 -1.75094,7.71289 -2.45523,11.61534 l -2.76592,-0.4845 -3.04301,-0.5332 h -0.002 c -1.60096,-2.37241 -3.15009,-4.80745 -4.66402,-7.28299 z m -15.38847,17.55652 4.98185,-0.53488 0.89048,-0.0953 c 2.19966,1.83926 4.37391,3.74605 6.52938,5.69473 -1.83841,2.25017 -3.70129,4.4622 -5.59775,6.61377 l -0.0269,0.002 -5.87107,0.26534 c -0.20343,-3.99148 -0.50344,-7.97548 -0.90602,-11.94534 z m 12.75186,-2.62107 c 2.27616,-1.80878 4.56725,-3.57161 6.88079,-5.25768 l 5.81061,1.01938 c -0.65945,3.91756 -1.20972,7.85961 -1.65418,11.82022 l -4.94532,-0.52942 -0.92995,-0.0995 c -1.75927,-2.26338 -3.4752,-4.58882 -5.16195,-6.953 z m -11.7245,16.99604 5.86099,-0.26534 0.0273,-0.002 c 2.0842,1.9718 4.13898,4.00409 6.17209,6.07217 -1.11017,1.20274 -2.22112,2.40054 -3.34572,3.57243 -0.86784,0.8944 -1.73559,1.78714 -2.60344,2.68153 h -5.86938 v -1.83974 l 4.2e-4,-0.002 c -0.006,-3.40576 -0.10187,-6.81231 -0.24225,-10.21685 z m 10.09719,-1.9296 c 2.15582,-1.94903 4.33144,-3.85558 6.53148,-5.69515 l 0.59744,0.0642 5.27531,0.56637 c -0.40259,3.96987 -0.70427,7.95385 -0.9077,11.94534 l -5.89878,-0.26786 c -1.89621,-2.15132 -3.75957,-4.36304 -5.59775,-6.61293 z m -9.85536,16.421696 h 5.86938 c 1.99436,2.055221 3.98798,4.110996 5.98233,6.166217 -1.99403,2.055029 -3.9883,4.10867 -5.98233,6.163698 h -5.86938 z m 9.17018,-1.304868 c 2.03355,-2.068568 4.08702,-4.101188 6.17168,-6.073428 l 0.029,0.002 5.85932,0.26534 c -0.14039,3.40454 -0.23625,6.811075 -0.24225,10.216846 l 4.2e-4,0.0021 -4.2e-4,1.841846 h -5.86687 c -0.86921,-0.895796 -1.74053,-1.792028 -2.60974,-2.687828 l 0.006,0.0038 c -1.12434,-1.171607 -2.23749,-2.368309 -3.3474,-3.570755 z m -9.17018,16.066507 h 5.86938 c 1.99436,2.055221 3.98798,4.110995 5.98233,6.166217 -1.99403,2.055028 -3.98872,4.10909 -5.98275,6.164118 h -5.86854 z m 15.12102,-7.380819 5.86729,4.2e-4 v 12.329914 h -5.86687 c -1.99436,-2.055363 -3.98798,-4.110854 -5.98233,-6.166217 1.99403,-2.054887 3.98788,-4.109231 5.98191,-6.164117 z m -15.12102,22.142458 h 5.86938 c 1.99436,2.055221 3.98798,4.110994 5.98233,6.166216 -1.99408,2.055083 -3.98824,4.111135 -5.98233,6.166217 h -5.86938 z m 15.12102,-7.38082 5.86729,4.2e-4 v 12.329915 h -5.86687 c -1.99436,-2.055363 -3.9884,-4.110433 -5.98275,-6.165797 1.99403,-2.054886 3.9883,-4.109653 5.98233,-6.164538 z m -15.12102,22.144977 h 5.86938 c 1.99403,2.054886 3.9883,4.108811 5.98233,6.163698 -1.99435,2.055363 -3.98797,4.110854 -5.98233,6.166217 h -5.86938 z m 15.12144,-7.382918 h 5.86687 v 12.331594 l -5.86729,4.2e-4 c -1.99409,-2.055083 -3.98825,-4.111133 -5.98233,-6.166217 1.99435,-2.055222 3.98839,-4.110577 5.98275,-6.165797 z m -15.12144,22.144557 h 5.86938 c 1.99403,2.054885 3.9883,4.108812 5.98233,6.163698 -1.99435,2.055364 -3.98797,4.110853 -5.98233,6.166216 h -5.86938 z m 15.12144,-7.381239 h 5.86687 l 4.2e-4,12.330334 h -5.86771 c -1.99403,-2.055028 -3.98788,-4.10909 -5.98191,-6.164118 1.99435,-2.055222 3.98797,-4.110995 5.98233,-6.166216 z m -15.12144,22.142877 h 5.86938 c 1.99436,2.05522 3.98798,4.110995 5.98233,6.166217 -1.99408,2.055084 -3.98866,4.110714 -5.98275,6.165797 h -5.86854 z m 15.12102,-7.380819 5.86729,-4.2e-4 4.2e-4,12.330335 h -5.86771 c -1.99403,-2.055027 -3.98788,-4.10909 -5.98191,-6.164118 1.99435,-2.055222 3.98755,-4.110576 5.98191,-6.165797 z m -15.12102,22.144137 h 5.86938 c 1.99436,2.0552207 3.98798,4.1109951 5.98233,6.1662171 -1.99403,2.0550283 -3.98872,4.10909037 -5.98275,6.1641176 h -5.86854 z m 15.12102,-7.382498 h 5.86771 l -4.2e-4,12.3320135 h -5.86687 c -1.99409,-2.055083 -3.98867,-4.1107136 -5.98275,-6.1657975 1.99435,-2.055221 3.98797,-4.110995 5.98233,-6.166216 z m -15.1206,22.1445566 h 5.86854 c 1.99436,2.0552203 3.9884,4.1105747 5.98275,6.1657974 -1.99403,2.055028 -3.98872,4.10909 -5.98275,6.164117 h -5.86854 z m 15.12102,-7.3808193 h 5.86687 V 9.63852 h -5.86687 c -1.99436,-2.055363 -3.9884,-4.110433 -5.98275,-6.165797 1.99403,-2.054886 3.98872,-4.10923266 5.98275,-6.1641177 z m 0,14.7616387 h 5.86687 v 12.329915 h -5.86687 c -1.99436,-2.055363 -3.9884,-4.110433 -5.98275,-6.165797 1.99403,-2.054886 3.98872,-4.109233 5.98275,-6.164118 z"
         sodipodi:nodetypes="ccccccccccccccccccccccccccccccccccccccccccccccccccccccccccccccccccccccccccccccccsccccccccccccccccccccccccccccccccccccccccccccccccccccccccccccccccccccccccccccccccccccccccccccccccccccccccccccccccccccc" />
      <path
         id="path101"
         style="display:inline;opacity:0.4;mix-blend-mode:normal;fill:#ffffff;stroke-width:1.14897;stroke-miterlimit:12"
         d="m -155.14363,-181.78046 c 1.11873,2.68466 2.1596,5.40039 3.13495,8.1403 0.50729,-0.17121 1.01465,-0.34225 1.52193,-0.51345 -0.9216,-2.56425 -1.88863,-5.11194 -2.93679,-7.62727 0.81629,-0.35602 1.63264,-0.71165 2.44893,-1.06767 -0.28576,-0.12274 -0.56224,-0.25702 -0.85018,-0.37912 -1.10612,0.48243 -2.21272,0.96478 -3.31884,1.44721 z m 4.93188,13.45719 c 0.88579,2.78176 1.71177,5.58253 2.46111,8.40438 0.53389,-0.13428 1.06781,-0.26834 1.6017,-0.40263 -0.72038,-2.68472 -1.49979,-5.35326 -2.34314,-8.00176 0.78938,-0.26626 1.57894,-0.53269 2.36833,-0.79895 -0.21961,-0.11692 -0.43409,-0.24327 -0.65412,-0.3594 -1.14453,0.38606 -2.28935,0.77228 -3.43388,1.15836 z m 3.82225,13.84722 c 0.67545,2.85891 1.28151,5.73411 1.82252,8.62145 0.55271,-0.0972 1.10524,-0.1946 1.65796,-0.29179 -0.52695,-2.78879 -1.10823,-5.5675 -1.76082,-8.32966 0.76139,-0.19098 1.52297,-0.38126 2.28436,-0.57224 -0.16083,-0.10201 -0.31493,-0.21014 -0.47652,-0.31195 -1.17578,0.29492 -2.35173,0.58926 -3.5275,0.88419 z m 28.87713,-18.77491 c 0.82264,1.96191 1.68356,3.90748 2.58202,5.83581 1.14453,0.38606 2.28894,0.77184 3.43347,1.15791 0.0615,-0.17284 0.13577,-0.34081 0.19775,-0.51346 -0.63719,-0.21493 -1.27436,-0.42953 -1.91154,-0.64446 -0.89846,-1.92833 -1.75939,-3.87388 -2.58203,-5.83581 1.50832,-0.71272 3.03865,-1.37846 4.56074,-2.061 0.1319,-0.0556 0.26359,-0.11148 0.39549,-0.1671 -0.28197,-0.12273 -0.56402,-0.24544 -0.84598,-0.3682 -0.42318,0.17839 -0.84642,0.35733 -1.2696,0.53572 -1.52209,0.68254 -3.052,1.34787 -4.56032,2.06059 z m -26.09023,32.92358 c 0.47189,2.91678 0.88612,5.8424 1.23097,8.77721 0.56475,-0.0605 1.12932,-0.12127 1.69407,-0.18179 -0.3405,-2.87365 -0.74326,-5.73906 -1.20537,-8.59542 0.733,-0.129 1.46613,-0.25809 2.19913,-0.38709 -0.10829,-0.081 -0.21461,-0.16458 -0.32286,-0.24562 -1.19857,0.21094 -2.39737,0.42177 -3.59594,0.63271 z m 21.28766,-18.70311 c 0.97697,1.88918 2.00131,3.75317 3.04301,5.60739 1.17317,0.29492 2.34635,0.58968 3.51953,0.88461 0.036,-0.13516 0.0817,-0.26755 0.11798,-0.40263 -0.63927,-0.16069 -1.27857,-0.32127 -1.91784,-0.48198 -1.0417,-1.85422 -2.06604,-3.71822 -3.04301,-5.6074 1.44375,-0.82934 2.90658,-1.62525 4.36509,-2.42795 0.18179,-0.0961 0.3636,-0.19227 0.54538,-0.28843 -0.35,-0.11798 -0.70002,-0.23593 -1.05003,-0.35393 l -1.21502,0.64236 c -1.45852,0.8027 -2.92134,1.59861 -4.36509,2.42796 z m -3.67782,14.545 c 1.1151,1.80478 2.28027,3.59964 3.46454,5.37901 1.19661,0.21092 2.39345,0.42175 3.59006,0.6327 0.0185,-0.0979 0.0436,-0.19436 0.0621,-0.29222 -0.64413,-0.11353 -1.2884,-0.22695 -1.93253,-0.34049 -1.18427,-1.77935 -2.34944,-3.57423 -3.46454,-5.379 1.38263,-0.93977 2.78532,-1.84923 4.18331,-2.76593 0.2238,-0.14143 0.44795,-0.28261 0.67175,-0.42404 -0.40969,-0.10333 -0.8192,-0.20693 -1.22888,-0.31026 -0.38737,0.24479 -0.77517,0.48951 -1.16254,0.7343 -1.39799,0.91671 -2.80069,1.82616 -4.18331,2.76593 z m -15.78353,18.51334 c 0.27559,2.95515 0.50276,5.9141 0.67427,8.87714 l 1.71379,-0.0789 c -0.17096,-2.93662 -0.39525,-5.86933 -0.66839,-8.79821 0.69943,-0.0749 1.39895,-0.15012 2.09837,-0.22503 -0.0634,-0.0541 -0.12555,-0.10963 -0.18893,-0.16375 -1.20964,0.12956 -2.41947,0.25922 -3.62911,0.38877 z m 13.17967,-3.72231 c 1.2457,1.73723 2.5433,3.43612 3.8361,5.13844 1.20963,0.1289 2.41906,0.25776 3.62869,0.38667 0.007,-0.0603 0.018,-0.1202 0.0252,-0.18053 -0.64477,-0.0687 -1.28944,-0.13743 -1.93421,-0.20614 -1.2928,-1.70232 -2.59039,-3.40122 -3.83609,-5.13844 1.31683,-1.03456 2.64861,-2.0494 3.98052,-3.06443 0.26118,-0.19166 0.52266,-0.38312 0.78384,-0.57476 -0.46269,-0.0812 -0.9253,-0.16234 -1.388,-0.24351 -0.37174,0.27278 -0.74378,0.54548 -1.11552,0.81826 -1.33191,1.01504 -2.66369,2.02989 -3.98052,3.06444 z m -12.16785,18.24212 c -0.11823,0.0886 -0.14793,0.25977 -0.0529,0.56259 0.0971,2.78404 0.14083,5.56962 0.15072,8.35527 h 1.71967 c -0.01,-2.78565 -0.0536,-5.57123 -0.15072,-8.35527 -0.19004,-0.60563 0.11848,-0.68362 0.63688,-0.63104 0.44588,-0.0205 0.89174,-0.0409 1.33762,-0.0613 -0.0258,-0.0248 -0.051,-0.0503 -0.0768,-0.0752 -0.99349,0.0456 -1.98696,0.0908 -2.98045,0.13645 -0.25921,-0.0263 -0.46577,-0.0202 -0.584,0.0684 z m 10.5565,-3.31255 c 1.35553,1.6523 2.7594,3.26417 4.15476,4.88276 1.21679,0.056 2.4333,0.11195 3.6501,0.16794 0.001,-0.0264 0.004,-0.0526 0.006,-0.0789 -0.64549,-0.0297 -1.29083,-0.0593 -1.93631,-0.089 -1.39536,-1.61859 -2.79923,-3.23046 -4.15476,-4.88276 1.24928,-1.11747 2.51534,-2.21619 3.77984,-3.31633 0.29096,-0.24566 0.58147,-0.49158 0.87243,-0.73724 -0.50864,-0.0544 -1.01748,-0.10891 -1.52612,-0.16332 -0.35547,0.30013 -0.71051,0.60043 -1.06598,0.90056 -1.2645,1.10014 -2.53056,2.19886 -3.77984,3.31633 z m -10.4528,17.836137 c 1e-5,3.052736 -4.2e-4,6.105275 -4.2e-4,9.158009 h 1.71967 c 0,-3.052734 4.3e-4,-6.105273 4.2e-4,-9.158009 z m 9.77728,-2.859962 c 1.45345,1.566235 2.94565,3.095982 4.42765,4.635053 h 1.71967 c -1.482,-1.539078 -2.9742,-3.068818 -4.42765,-4.635053 1.18087,-1.183145 2.37249,-2.354745 3.56613,-3.524985 0.30961,-0.2958 0.61951,-0.59133 0.92911,-0.88713 -0.54694,-0.0252 -1.0938,-0.0503 -1.64074,-0.0756 -0.33592,0.32097 -0.67211,0.64173 -1.00804,0.9627 -1.19364,1.17024 -2.38525,2.34184 -3.56613,3.524991 z m -9.77728,17.623279 c 0,3.052083 -4.1e-4,6.104248 -4.2e-4,9.156331 h 1.71967 c 1e-5,-3.052083 4.2e-4,-6.104247 4.2e-4,-9.156331 z m 14.20115,-7.382918 c -1.48047,1.526044 -2.96105,3.05233 -4.44151,4.578375 1.48112,1.527346 2.96249,3.054814 4.44361,4.582152 h 1.71967 c -1.48112,-1.527348 -2.96249,-3.054813 -4.44361,-4.582152 1.48047,-1.526046 2.96104,-3.052341 4.44151,-4.578375 z m -14.19947,22.144557 4.2e-4,9.156331 h 1.71967 c 0,-3.052084 -4.2e-4,-6.104248 -4.2e-4,-9.156331 z m 14.19737,-7.380819 c -1.47981,1.525389 -2.95959,3.050889 -4.43941,4.576276 1.48111,1.526696 2.96207,3.053359 4.44319,4.580054 h 1.71967 c -1.48112,-1.526697 -2.96207,-3.053357 -4.44319,-4.580054 1.47982,-1.525389 2.9596,-3.050887 4.43941,-4.576275 z m -14.19695,22.142877 c -6.5e-4,3.052734 -0.001,6.105276 -0.002,9.15801 h 1.71967 c 0.001,-3.052734 0.001,-6.105276 0.002,-9.15801 z m 14.19905,-7.380818 c -1.48047,1.526045 -2.96063,3.05191 -4.44109,4.577954 1.48047,1.526045 2.96061,3.051919 4.44109,4.577955 h 1.71967 c -1.48047,-1.526046 -2.96062,-3.051908 -4.44109,-4.577955 1.48047,-1.526046 2.96062,-3.051908 4.44109,-4.577954 z m -14.20115,22.144556 c 0,3.052085 1e-5,6.103828 0,9.155911 h 1.71967 c 1e-5,-3.052083 0,-6.103825 0,-9.155911 z m 14.20115,-7.382917 -4.43941,4.577951 4.44319,4.580058 1.71967,-2e-6 c -1.48112,-1.526695 -2.96208,-3.053359 -4.44319,-4.580056 1.47981,-1.526046 2.95958,-3.051913 4.43941,-4.577951 z m -14.20115,22.144553 c 1e-5,3.05209 0,6.103834 0,9.155912 l 1.71967,6e-6 c 0,-3.052088 1e-5,-6.10383 0,-9.155911 z m 14.19905,-7.380816 c -1.47977,1.526081 -2.95961,3.051899 -4.43938,4.577984 l 4.44528,4.577957 1.71967,-2e-6 c -1.48177,-1.526045 -2.96352,-3.051911 -4.44528,-4.577956 1.47985,-1.526006 2.95961,-3.051905 4.43938,-4.577985 z m -14.19905,22.1424575 c 6.6e-4,3.0527403 0.001,6.1052746 0.002,9.15801562 l 1.71967,-1e-6 c -0.001,-3.05274102 -0.001,-6.10527732 -0.002,-9.15800862 z m 14.20115,-7.3812395 c -1.48043,1.526085 -2.96103,3.052346 -4.44154,4.578351 l 4.4432,4.5800608 1.71967,-2e-6 c -1.48112,-1.5266953 -2.96207,-3.0533573 -4.44319,-4.5800518 1.48051,-1.526007 2.96103,-3.052347 4.44153,-4.578351 z m -14.19905,22.1449767 -4.2e-4,9.1563313 1.71967,-1e-6 c 0,-3.05208 4.2e-4,-6.1042433 4.2e-4,-9.1563243 z m 14.19905,-7.38081558 -4.44149,4.57587128 4.44318,4.5800533 1.71967,-2e-6 c -1.48111,-1.526695 -2.96207,-3.0533573 -4.44319,-4.5800523 1.48051,-1.525356 2.96099,-3.05051728 4.4415,-4.57587328 z m 0,14.76164088 c -1.4805,1.526004 -2.96102,3.052346 -4.44153,4.57835 1.48047,1.526042 2.96104,3.051496 4.44151,4.577538 l 1.71967,-2e-6 c -1.48047,-1.526042 -2.96104,-3.051496 -4.44151,-4.577537 1.4805,-1.526005 2.9611,-3.052263 4.44153,-4.578351 z"
         sodipodi:nodetypes="ccccccccccccccccccccccccccccccccccccccccccccccccccccccccccccccccccccccccccccccccscccccccccccccccccccccccccccccscccccccssccccccccccccccccccccccccccccccccccccccccccccccccccccccccccccccccccccccccccccccccccccccccccc" />
      <path
         id="path88"
         style="display:inline;opacity:0.8;mix-blend-mode:normal;fill:#91add7;fill-opacity:1;stroke-width:1.14897;stroke-miterlimit:12;filter:url(#filter90)"
         d="m -155.0293,-181.89453 c 1.11873,2.68467 2.15942,5.40071 3.13477,8.14062 1.14388,-0.38606 2.28776,-0.77213 3.43164,-1.1582 0.89756,-1.9172 1.75532,-3.86038 2.58008,-5.83008 -1.93728,-0.91459 -3.85431,-1.76264 -5.82813,-2.59961 -1.10612,0.48243 -2.21224,0.96485 -3.31836,1.44727 z m 42.19141,6.46875 c -1.52209,0.68254 -3.05223,1.34783 -4.56055,2.06055 0.82264,1.96192 1.68357,3.9076 2.58203,5.83593 1.14453,0.38607 2.28907,0.77214 3.4336,1.15821 0.97474,-2.74129 2.01422,-5.45908 3.13867,-8.14258 -1.10807,-0.48242 -2.21615,-0.96485 -3.32422,-1.44727 -0.42318,0.17839 -0.84635,0.35677 -1.26953,0.53516 z m -37.25977,6.98828 c 0.88579,2.78177 1.7116,5.58245 2.46094,8.4043 1.17253,-0.29493 2.34505,-0.58985 3.51758,-0.88477 1.04099,-1.84862 2.06411,-3.71296 3.04297,-5.60937 -1.844,-1.05626 -3.70853,-2.07649 -5.58789,-3.06836 -1.14453,0.38606 -2.28907,0.77213 -3.4336,1.1582 z m 32.26172,6.86523 c -1.45852,0.8027 -2.92148,1.59839 -4.36523,2.42774 0.97697,1.88919 2.00127,3.7532 3.04297,5.60742 1.17317,0.29492 2.34635,0.58984 3.51953,0.88477 0.75101,-2.82042 1.57056,-5.62223 2.45898,-8.40235 -1.14713,-0.38672 -2.29427,-0.77343 -3.4414,-1.16015 z m -28.43945,6.98243 c 0.67546,2.85891 1.28126,5.73375 1.82227,8.62109 1.19596,-0.21029 2.39192,-0.42057 3.58789,-0.63086 1.18725,-1.78704 2.34019,-3.55316 3.46679,-5.37695 -1.77151,-1.20424 -3.53633,-2.35558 -5.34961,-3.49805 -1.17578,0.29492 -2.35156,0.58984 -3.52734,0.88477 z m 24.58008,7.22461 c -1.39799,0.9167 -2.80098,1.82586 -4.1836,2.76562 1.1151,1.80478 2.28058,3.59955 3.46485,5.37891 1.19661,0.21093 2.39323,0.42187 3.58984,0.63281 0.54431,-2.88674 1.14948,-5.76157 1.82227,-8.62109 -1.17709,-0.29688 -2.35417,-0.59375 -3.53125,-0.89063 -0.38737,0.24479 -0.77474,0.48958 -1.16211,0.73438 z m -21.79297,6.92382 c 0.47189,2.91678 0.88562,5.84254 1.23047,8.77735 1.20898,-0.12956 2.41797,-0.25912 3.62695,-0.38867 1.29516,-1.70151 2.59332,-3.40106 3.83984,-5.13868 -1.67422,-1.32851 -3.39069,-2.60215 -5.10156,-3.88281 -1.19857,0.21094 -2.39713,0.42188 -3.5957,0.63281 z m 18.98633,7.56836 c -1.33191,1.01503 -2.66364,2.02991 -3.98047,3.06446 1.2457,1.73723 2.54314,3.43635 3.83594,5.13867 1.20963,0.1289 2.41927,0.25781 3.6289,0.38672 0.34749,-2.93423 0.75935,-5.85986 1.22656,-8.77735 -1.19856,-0.21028 -2.39713,-0.42057 -3.5957,-0.63086 -0.37174,0.27279 -0.74349,0.54558 -1.11523,0.81836 z m -17.16016,6.78711 c 0.27559,2.95515 0.50232,5.91392 0.67383,8.87696 1.21614,-0.056 2.43229,-0.11198 3.64844,-0.16797 1.39808,-1.61868 2.80145,-3.23305 4.1582,-4.88672 -1.59129,-1.4333 -3.2233,-2.82007 -4.85156,-4.21094 -1.20964,0.12956 -2.41927,0.25912 -3.62891,0.38867 z m 15.34766,7.89063 c -1.2645,1.10014 -2.53002,2.19893 -3.7793,3.3164 1.35553,1.6523 2.75894,3.26423 4.1543,4.88282 1.21679,0.056 2.43359,0.11198 3.65039,0.16797 0.16753,-2.96394 0.40042,-5.92296 0.67383,-8.87891 -1.21094,-0.12956 -2.42188,-0.25912 -3.63282,-0.38867 -0.35547,0.30013 -0.71093,0.60026 -1.0664,0.90039 z m -13.75196,6.56054 c -0.51842,-0.0526 -0.82715,0.0253 -0.63709,0.63095 0.0971,2.78404 0.14088,5.56973 0.15077,8.35538 h 3.61914 c 1.47918,-1.54051 2.97458,-3.06583 4.42382,-4.63476 -1.50556,-1.5164 -3.03624,-3.00686 -4.57617,-4.48828 -0.99349,0.0456 -1.98698,0.0911 -2.98047,0.13671 z m 12.86329,8.20704 c -1.19364,1.17024 -2.38554,2.34224 -3.56641,3.525386 1.45345,1.566237 2.94573,3.095693 4.42773,4.634766 h 3.61719 c 0.006,-2.985714 0.0667,-5.971182 0.16992,-8.955082 -1.21354,-0.056 -2.42708,-0.11198 -3.64062,-0.16796 -0.33594,0.32096 -0.67188,0.64192 -1.00781,0.96289 z m -13.34376,15.542964 h 3.61329 c 1.48046,-1.52539 2.96093,-3.050781 4.4414,-4.576172 -1.48047,-1.527343 -2.96093,-3.054687 -4.4414,-4.582031 h -3.61329 c 10e-6,3.052735 0,6.105469 0,9.158203 z m 9.75977,2.800782 4.44336,4.582031 h 3.61133 v -9.160156 h -3.61328 z m -9.75977,11.960937 h 3.61329 c 1.48047,-1.526042 2.96093,-3.052083 4.4414,-4.578125 -1.47982,-1.526042 -2.95963,-3.052083 -4.43945,-4.578125 h -3.61524 c 0,3.052083 10e-6,6.104167 0,9.15625 z m 9.75977,2.800781 4.44336,4.580078 h 3.61133 v -9.15625 h -3.61524 c -1.47981,1.525391 -2.95963,3.050782 -4.43945,4.576172 z m -9.75781,11.960938 h 3.61328 l 4.44141,-4.578125 -4.44141,-4.578125 h -3.61328 z m 9.75781,2.802734 4.44141,4.578125 h 3.61328 v -9.15625 h -3.61328 z m -9.75977,11.960938 h 3.61329 l 4.44336,-4.580078 -4.44141,-4.578125 h -3.61328 c -6.5e-4,3.052734 -0.001,6.105468 -0.002,9.158203 z m 9.76172,2.800781 4.44336,4.580078 h 3.60938 V -45.375 h -3.61328 z m -9.76172,11.960937 c 1.20443,0 2.40886,10e-7 3.61329,0 1.48046,-1.526692 2.96093,-3.053385 4.4414,-4.580078 -1.47982,-1.52539 -2.95963,-3.050781 -4.43945,-4.576172 h -3.61524 c 0,3.052084 10e-6,6.104167 0,9.15625 z m 9.75977,2.802735 4.44531,4.578125 h 3.60938 v -9.15625 h -3.61524 c -1.47981,1.526042 -2.95963,3.052083 -4.43945,4.578125 z m -9.75977,11.958984 h 3.61524 c 1.47982,-1.526041 2.95963,-3.052083 4.43945,-4.578125 -1.48047,-1.526041 -2.96093,-3.052083 -4.4414,-4.578125 h -3.61329 c 10e-6,3.052084 0,6.104167 0,9.15625 z m 9.75977,2.802735 4.44336,4.5800778 h 3.61133 v -9.1582028 h -3.61328 z m -9.75781,11.96093712 h 3.61328 l 4.44141,-4.57812532 -4.44336,-4.5800783 h -3.61329 c 6.6e-4,3.0527353 10e-4,6.1054696 0.002,9.15820362 z m 9.75781,2.80078128 4.44336,4.5800783 h 3.61133 v -9.1562506 h -3.61328 z m -9.75781,11.9609376 h 3.61328 l 4.44141,-4.578125 -4.44141,-4.5781253 h -3.61328 z m 9.75781,2.802734 4.44141,4.578125 h 3.61328 v -9.15625 h -3.61328 z"
         sodipodi:nodetypes="ccccccccccccccccccccccccccccccccccccccccccccccccccccccccccccccccccccccccccccccccccccccccccccccccccccccccccccccccccccccccccccccccccccccccccccccccccccccccccccccccccccccccccccccccc" />
    </g>
    <path
       id="rect12"
       style="display:inline;fill:url(#linearGradient32);stroke-width:1.05833;stroke-linecap:round;stroke-linejoin:round;stroke-miterlimit:1;paint-order:markers stroke fill"
       d="m 64.86101,41.68732 -9.8668,13.697409 -13.69741,9.866808 c -2.30139,1.500314 -2.63883,4.738263 -0.69623,6.680861 l 5.19795,5.197954 7.8905,2.50542 L 69.47,95.41676 87.63317,88.02369 95.02623,69.860508 79.24526,54.079533 76.73983,46.189045 71.54188,40.991089 c -1.9426,-1.942598 -5.18055,-1.605163 -6.68087,0.696231 z"
       sodipodi:nodetypes="cccccccccccsc" />
    <path
       id="path10"
       style="display:inline;opacity:0.4;mix-blend-mode:normal;fill:#2c3f71;fill-opacity:1;stroke-width:1.05833;stroke-linecap:round;stroke-linejoin:round;stroke-miterlimit:1;paint-order:markers stroke fill;filter:url(#filter11)"
       d="m 68.402344,43.123047 c -1.185569,0.528983 -1.555516,1.920331 -2.398835,2.81608 -2.989056,4.064606 -5.785985,8.27945 -8.974212,12.191732 -4.725968,3.437147 -9.541656,6.752787 -14.169922,10.322266 -0.483991,0.914306 0.368353,1.811273 1.073975,2.298652 1.393195,1.277331 2.544184,2.855387 4.138225,3.888784 2.592174,0.892618 5.388628,1.464235 7.838581,2.789127 4.87312,4.77177 9.679265,9.611074 14.494141,14.441406 4.976105,-2.070295 9.976641,-4.081105 14.966797,-6.117188 2.030599,-4.990234 4.061198,-9.980468 6.091797,-14.970703 -4.883719,-4.93353 -9.893351,-9.75139 -14.63266,-14.822102 -1.155045,-2.529165 -1.81347,-5.24855 -2.695465,-7.87907 -1.754174,-1.638862 -3.249126,-3.568392 -5.220704,-4.964843 -0.167372,-0.03646 -0.349011,-0.06465 -0.511718,0.0059 z" />
    <path
       style="display:inline;mix-blend-mode:normal;fill:url(#linearGradient4);stroke-linecap:round;stroke-linejoin:round;stroke-miterlimit:1;paint-order:markers stroke fill;filter:url(#filter6)"
       d="m 127.47656,-28.341797 c -1.39336,0.145206 -2.72564,0.883246 -3.56445,2.169922 l 0.0137,-0.02148 -9.8164,13.628906 -13.60743,9.8027342 c -2.57335,1.6776085 -2.953411,5.3258899 -0.781247,7.4980469 L 104.918,9.9335978 a 0.52921795,0.52921795 0 0 0 0.21484,0.1308592 l 7.76758,2.466797 15.68945,15.689453 a 0.52921795,0.52921795 0 0 0 0.57422,0.115234 l 18.16211,-7.392578 a 0.52921795,0.52921795 0 0 0 0.29102,-0.291015 L 155.0098,2.4902384 a 0.52921795,0.52921795 0 0 0 -0.11524,-0.5742188 l -15.68945,-15.6894536 -2.4668,-7.767578 a 0.52921795,0.52921795 0 0 0 -0.13086,-0.214843 l -5.19726,-5.197266 c -1.08608,-1.086078 -2.54024,-1.533878 -3.9336,-1.388672 z m 0.10742,1.039063 c 1.08635,-0.113211 2.22161,0.241136 3.07813,1.097656 l 5.10742,5.107422 2.46484,7.767578 a 0.52921795,0.52921795 0 0 0 0.13086,0.21289 l 15.53321,15.5332036 -7.17774,17.6308594 -17.63086,7.177734 -15.5332,-15.533203 a 0.52921795,0.52921795 0 0 0 -0.21289,-0.130859 L 105.57617,9.09375 100.46875,3.9882813 C 98.755706,2.2752423 99.050643,-0.55198042 101.08008,-1.875 a 0.52921795,0.52921795 0 0 0 0.0195,-0.013672 l 13.69727,-9.867187 a 0.52921795,0.52921795 0 0 0 0.12109,-0.121094 l 9.86719,-13.697266 a 0.52921795,0.52921795 0 0 0 0.0137,-0.01953 c 0.66151,-1.014718 1.69881,-1.595774 2.78515,-1.708985 z"
       id="path4"
       clip-path="url(#clipPath5)"
       transform="translate(-59.49727,67.566985)" />
    <path
       id="rect14"
       style="display:inline;fill:url(#linearGradient36);fill-opacity:0.996078;stroke:url(#linearGradient38);stroke-width:0.529167;stroke-linecap:round;stroke-linejoin:round;stroke-miterlimit:1;stroke-dasharray:none;stroke-opacity:1;paint-order:markers stroke fill"
       d="m 71.45113,59.036879 c 1.49166,-1.491666 3.8934,-1.491666 5.38506,10e-7 l 15.17758,15.177576 16.80755,10.317604 23.04561,23.0456 c 2.37928,2.37928 2.57629,6.4159 0.39416,8.97714 -2.42142,2.84208 -5.46742,6.32775 -7.61824,8.47858 -2.15092,2.15093 -5.63695,5.19728 -8.47911,7.61877 -2.56101,2.18192 -6.59733,1.98458 -8.9766,-0.39469 L 84.14153,109.21185 73.82392,92.404303 58.64635,77.226722 c -1.49167,-1.491655 -1.49167,-3.893397 -10e-6,-5.385062 z m 0.77016,6.143655 -7.43129,7.431283 c -1.13725,1.137247 -1.13724,2.968349 0,4.105586 l 6.15575,6.155752 c 1.13725,1.137243 2.96835,1.137239 4.10559,-10e-7 l 7.43128,-7.431284 c 1.13724,-1.137238 1.13725,-2.968343 0,-4.105585 l -6.15575,-6.155752 c -1.13724,-1.137239 -2.96834,-1.137241 -4.10558,10e-7 z m 39.95413,35.844856 -11.54055,11.54056 c -1.13724,1.13724 -1.13724,2.96835 0,4.10558 l 7.43128,7.43129 c 1.13724,1.13724 2.96835,1.13725 4.10559,1e-5 l 11.54055,-11.54057 c 1.13724,-1.13724 1.13725,-2.96834 1e-5,-4.10558 l -7.43129,-7.43129 c -1.13724,-1.137227 -2.96835,-1.137237 -4.10559,0 z" />
    <path
       id="path49"
       style="display:inline;opacity:0.28;fill:#6e86a7;fill-opacity:0.99607801;stroke:none;stroke-width:0.529167;stroke-linecap:round;stroke-linejoin:round;stroke-miterlimit:1;stroke-dasharray:none;stroke-opacity:1;paint-order:markers stroke fill;filter:url(#filter51)"
       d="m 61.077025,59.52377 c -1.594852,0.305211 -2.369446,1.927139 -3.557374,2.866093 -4.411578,4.395469 -8.778958,8.838316 -13.241454,13.180782 -5.616157,3.474221 -11.297758,6.854618 -16.850037,10.424197 -7.721274,7.736651 -15.49385,15.424578 -23.153673,23.219478 -1.60461,2.10514 -1.184111,5.35197 0.790133,7.07848 3.86032,4.5604 7.929773,8.97083 12.534391,12.79418 1.361206,1.12056 2.585286,2.51652 4.233829,3.21195 2.180392,0.77486 4.731338,-0.12775 6.10435,-1.95174 7.375388,-7.37604 14.750776,-14.75207 22.126163,-22.12811 3.478307,-5.64744 6.910395,-11.325927 10.447266,-16.935547 5.168172,-5.206249 10.425008,-10.332764 15.518828,-15.607612 0.72092,-1.149299 0.0626,-2.640218 -0.97674,-3.344266 C 70.851987,68.1699 66.733014,63.915938 62.460649,59.832623 62.047936,59.583518 61.556173,59.47763 61.077025,59.52377 Z m 0.158203,3.21875 c 2.158338,-0.05109 3.592816,1.782534 4.972252,3.169244 2.081158,2.151662 4.338087,4.146076 6.258667,6.443982 1.27604,2.000331 0.50859,4.807508 -1.35503,6.164647 -2.130762,2.056979 -4.093749,4.303685 -6.386479,6.182006 -2.001172,1.235485 -4.767743,0.461226 -6.117084,-1.384578 -2.452648,-2.505887 -5.04394,-4.886896 -7.361624,-7.517048 -1.371284,-2.008013 -0.596192,-4.904341 1.312451,-6.281615 2.101034,-2.040378 4.053969,-4.247491 6.305922,-6.12241 0.708971,-0.430801 1.541701,-0.658276 2.370925,-0.654228 z M 21.274291,98.588223 c 2.159548,-0.0587 3.595881,1.778467 4.978516,3.160157 3.409448,3.45359 6.927852,6.80856 10.237339,10.35649 1.412655,1.9704 0.747922,4.90894 -1.162039,6.30829 -2.525163,2.47349 -4.928802,5.08208 -7.575723,7.424 -1.994272,1.35839 -4.875021,0.61411 -6.256185,-1.27713 -3.800784,-3.84412 -7.709314,-7.59011 -11.410762,-11.52728 -1.419253,-1.96796 -0.752364,-4.91322 1.158549,-6.31236 2.529647,-2.46997 4.927537,-5.08665 7.57965,-7.423917 0.722107,-0.46993 1.591842,-0.70587 2.450655,-0.70825 z"
       transform="matrix(-1,0,0,1,135.46586,-8.0908204e-5)" />
    <rect
       style="display:inline;fill:url(#linearGradient34);fill-opacity:0.996078;stroke:#aaaaaa;stroke-width:0.529167;stroke-linecap:round;stroke-linejoin:round;stroke-miterlimit:1;stroke-dasharray:none;stroke-opacity:1;paint-order:markers stroke fill"
       id="rect13"
       width="13.934502"
       height="18.898113"
       x="-6.6911082"
       y="85.83387"
       ry="2.4794075"
       transform="matrix(-0.70710678,0.70710678,0.70710678,0.70710678,0,0)" />
  </g>
</svg>
