<?xml version="1.0" encoding="UTF-8" standalone="no"?>
<!-- Created with Inkscape (http://www.inkscape.org/) -->

<svg
   width="512"
   height="512"
   viewBox="0 0 135.46666 135.46667"
   version="1.1"
   id="svg5"
   inkscape:version="1.2.1 (9c6d41e410, 2022-07-14, custom)"
   sodipodi:docname="featherpad.svg"
   xmlns:inkscape="http://www.inkscape.org/namespaces/inkscape"
   xmlns:sodipodi="http://sodipodi.sourceforge.net/DTD/sodipodi-0.dtd"
   xmlns:xlink="http://www.w3.org/1999/xlink"
   xmlns="http://www.w3.org/2000/svg"
   xmlns:svg="http://www.w3.org/2000/svg">
  <sodipodi:namedview
     id="namedview7"
     pagecolor="#505050"
     bordercolor="#ffffff"
     borderopacity="1"
     inkscape:showpageshadow="0"
     inkscape:pageopacity="0"
     inkscape:pagecheckerboard="1"
     inkscape:deskcolor="#505050"
     inkscape:document-units="mm"
     showgrid="false"
     inkscape:zoom="1.4142136"
     inkscape:cx="86.974135"
     inkscape:cy="261.62951"
     inkscape:window-width="3252"
     inkscape:window-height="1076"
     inkscape:window-x="1864"
     inkscape:window-y="0"
     inkscape:window-maximized="0"
     inkscape:current-layer="layer1" />
  <defs
     id="defs2">
    <linearGradient
       inkscape:collect="always"
       id="linearGradient3022">
      <stop
         style="stop-color:#ffffff;stop-opacity:0;"
         offset="0"
         id="stop3020" />
      <stop
         style="stop-color:#ffffff;stop-opacity:1;"
         offset="1"
         id="stop3018" />
    </linearGradient>
    <linearGradient
       inkscape:collect="always"
       id="linearGradient2533">
      <stop
         style="stop-color:#000000;stop-opacity:0;"
         offset="0"
         id="stop2531" />
      <stop
         style="stop-color:#ffffff;stop-opacity:1;"
         offset="1"
         id="stop2529" />
    </linearGradient>
    <linearGradient
       inkscape:collect="always"
       id="linearGradient72313">
      <stop
         style="stop-color:#5f5f5f;stop-opacity:1;"
         offset="0"
         id="stop72309" />
      <stop
         style="stop-color:#cbcbcb;stop-opacity:1;"
         offset="1"
         id="stop72311" />
    </linearGradient>
    <linearGradient
       inkscape:collect="always"
       id="linearGradient62676">
      <stop
         style="stop-color:#ffffff;stop-opacity:0;"
         offset="0"
         id="stop62674" />
      <stop
         style="stop-color:#ffffff;stop-opacity:1;"
         offset="1"
         id="stop62672" />
    </linearGradient>
    <linearGradient
       inkscape:collect="always"
       id="linearGradient62589">
      <stop
         style="stop-color:#ffffff;stop-opacity:0;"
         offset="0"
         id="stop62587" />
      <stop
         style="stop-color:#ffffff;stop-opacity:1;"
         offset="1"
         id="stop62585" />
    </linearGradient>
    <linearGradient
       inkscape:collect="always"
       id="linearGradient62583">
      <stop
         style="stop-color:#000000;stop-opacity:1;"
         offset="0"
         id="stop62579" />
      <stop
         style="stop-color:#919191;stop-opacity:1;"
         offset="1"
         id="stop62581" />
    </linearGradient>
    <linearGradient
       inkscape:collect="always"
       id="linearGradient47986">
      <stop
         style="stop-color:#78788c;stop-opacity:1;"
         offset="0"
         id="stop47982" />
      <stop
         style="stop-color:#49495d;stop-opacity:1;"
         offset="1"
         id="stop47984" />
    </linearGradient>
    <linearGradient
       inkscape:collect="always"
       id="linearGradient13435">
      <stop
         style="stop-color:#292929;stop-opacity:1;"
         offset="0"
         id="stop13433" />
      <stop
         style="stop-color:#1f1f1f;stop-opacity:1;"
         offset="1"
         id="stop13431" />
    </linearGradient>
    <clipPath
       clipPathUnits="userSpaceOnUse"
       id="clipPath8211">
      <rect
         style="font-variation-settings:'wght' 400;fill:#000000;fill-opacity:1;stroke-width:2.56065;stroke-linecap:round;stroke-linejoin:round;paint-order:stroke fill markers"
         id="rect8213"
         width="135.46666"
         height="135.46666"
         x="166.47066"
         y="-14.361695"
         ry="12.0545" />
    </clipPath>
    <clipPath
       clipPathUnits="userSpaceOnUse"
       id="clipPath8211-7">
      <rect
         style="font-variation-settings:'wght' 400;fill:#000000;fill-opacity:1;stroke-width:2.56065;stroke-linecap:round;stroke-linejoin:round;paint-order:stroke fill markers"
         id="rect8213-7"
         width="135.46666"
         height="135.46666"
         x="166.47066"
         y="-14.361695"
         ry="12.0545" />
    </clipPath>
    <clipPath
       clipPathUnits="userSpaceOnUse"
       id="clipPath13392">
      <path
         style="color:#000000;fill:#000000;stroke-width:4;stroke-linecap:round;stroke-linejoin:round;paint-order:stroke fill markers"
         d="m -129.05445,-21.018303 h 111.357662 c 6.678193,0 12.0544997,5.376307 12.0544997,12.0544996 V 102.39386 c 0,6.67819 -5.3763067,12.0545 -12.0544997,12.0545 H -129.05445 c -6.67819,0 -12.0545,-5.37631 -12.0545,-12.0545 V -8.9638034 c 0,-6.6781926 5.37631,-12.0544996 12.0545,-12.0544996 z"
         id="path13394" />
    </clipPath>
    <clipPath
       clipPathUnits="userSpaceOnUse"
       id="clipPath8211-4">
      <rect
         style="font-variation-settings:'wght' 400;fill:#000000;fill-opacity:1;stroke-width:2.56065;stroke-linecap:round;stroke-linejoin:round;paint-order:stroke fill markers"
         id="rect8213-8"
         width="135.46666"
         height="135.46666"
         x="166.47066"
         y="-14.361695"
         ry="12.0545" />
    </clipPath>
    <clipPath
       clipPathUnits="userSpaceOnUse"
       id="clipPath52412">
      <rect
         style="font-variation-settings:'wght' 400;display:inline;fill:url(#radialGradient52416);fill-opacity:1;stroke-width:2.56065;stroke-linecap:round;stroke-linejoin:round;paint-order:stroke fill markers"
         id="rect52414"
         width="135.46666"
         height="135.46666"
         x="-161.44014"
         y="-62.493698"
         ry="12.0545" />
    </clipPath>
    <radialGradient
       inkscape:collect="always"
       xlink:href="#linearGradient13435"
       id="radialGradient52416"
       gradientUnits="userSpaceOnUse"
       gradientTransform="translate(-161.44015,-62.493702)"
       cx="67.73333"
       cy="67.73333"
       fx="67.73333"
       fy="67.73333"
       r="67.73333" />
    <linearGradient
       inkscape:collect="always"
       xlink:href="#linearGradient47986"
       id="linearGradient47988"
       x1="-245.6035"
       y1="50.014868"
       x2="-164.50657"
       y2="50.014868"
       gradientUnits="userSpaceOnUse"
       gradientTransform="matrix(0.97420395,2.5028145e-4,0.24411146,0.94312406,257.27141,23.555207)" />
    <linearGradient
       inkscape:collect="always"
       xlink:href="#linearGradient62583"
       id="linearGradient58059"
       x1="-12.914199"
       y1="4.5790482"
       x2="-9.2425146"
       y2="7.127758"
       gradientUnits="userSpaceOnUse"
       gradientTransform="matrix(0.97420398,0,0,1.3389705,38.391784,3.5512697)" />
    <linearGradient
       inkscape:collect="always"
       xlink:href="#linearGradient62583"
       id="linearGradient59970"
       gradientUnits="userSpaceOnUse"
       gradientTransform="matrix(0.97420398,0,0,1.3389705,43.454858,3.5512698)"
       x1="-12.914199"
       y1="4.5790482"
       x2="-9.2425146"
       y2="7.127758" />
    <linearGradient
       inkscape:collect="always"
       xlink:href="#linearGradient62589"
       id="linearGradient62591"
       x1="13.119585"
       y1="4.5676818"
       x2="17.729155"
       y2="4.5676818"
       gradientUnits="userSpaceOnUse"
       gradientTransform="matrix(0.97420398,0,0,0.97420398,12.572723,6.9389501)" />
    <linearGradient
       inkscape:collect="always"
       xlink:href="#linearGradient62676"
       id="linearGradient62678"
       x1="18.785665"
       y1="4.5676818"
       x2="22.45735"
       y2="4.5676818"
       gradientUnits="userSpaceOnUse"
       gradientTransform="matrix(0.97420398,0,0,0.97420398,12.572723,6.9389501)" />
    <linearGradient
       inkscape:collect="always"
       xlink:href="#linearGradient62583"
       id="linearGradient69342"
       gradientUnits="userSpaceOnUse"
       gradientTransform="matrix(0.97420398,0,0,1.3389705,48.662385,3.5839898)"
       x1="-12.914199"
       y1="4.5790482"
       x2="-9.2425146"
       y2="7.127758" />
    <linearGradient
       inkscape:collect="always"
       xlink:href="#linearGradient62676"
       id="linearGradient69344"
       gradientUnits="userSpaceOnUse"
       x1="18.785665"
       y1="4.5676818"
       x2="22.45735"
       y2="4.5676818"
       gradientTransform="matrix(0.97420398,0,0,0.97420398,17.78025,6.9716701)" />
    <linearGradient
       inkscape:collect="always"
       xlink:href="#linearGradient62583"
       id="linearGradient69375"
       gradientUnits="userSpaceOnUse"
       gradientTransform="matrix(0.97420398,0,0,1.3389705,53.757586,3.5447231)"
       x1="-12.914199"
       y1="4.5790482"
       x2="-9.2425146"
       y2="7.127758" />
    <linearGradient
       inkscape:collect="always"
       xlink:href="#linearGradient62676"
       id="linearGradient69377"
       gradientUnits="userSpaceOnUse"
       x1="18.785665"
       y1="4.5676818"
       x2="22.45735"
       y2="4.5676818"
       gradientTransform="matrix(0.97420398,0,0,0.97420398,22.875451,6.9324034)" />
    <linearGradient
       inkscape:collect="always"
       xlink:href="#linearGradient62583"
       id="linearGradient69408"
       gradientUnits="userSpaceOnUse"
       gradientTransform="matrix(0.97420398,0,0,1.3389705,58.972709,3.5839896)"
       x1="-12.914199"
       y1="4.5790482"
       x2="-9.2425146"
       y2="7.127758" />
    <linearGradient
       inkscape:collect="always"
       xlink:href="#linearGradient62676"
       id="linearGradient69410"
       gradientUnits="userSpaceOnUse"
       x1="18.785665"
       y1="4.5676818"
       x2="22.45735"
       y2="4.5676818"
       gradientTransform="matrix(0.97420398,0,0,0.97420398,28.090575,6.9716699)" />
    <linearGradient
       inkscape:collect="always"
       xlink:href="#linearGradient62583"
       id="linearGradient69441"
       gradientUnits="userSpaceOnUse"
       gradientTransform="matrix(0.97420398,0,0,1.3389705,64.067912,3.5447235)"
       x1="-12.914199"
       y1="4.5790482"
       x2="-9.2425146"
       y2="7.127758" />
    <linearGradient
       inkscape:collect="always"
       xlink:href="#linearGradient62676"
       id="linearGradient69443"
       gradientUnits="userSpaceOnUse"
       x1="18.785665"
       y1="4.5676818"
       x2="22.45735"
       y2="4.5676818"
       gradientTransform="matrix(0.97420398,0,0,0.97420398,33.185777,6.9324037)" />
    <linearGradient
       inkscape:collect="always"
       xlink:href="#linearGradient62583"
       id="linearGradient69474"
       gradientUnits="userSpaceOnUse"
       gradientTransform="matrix(0.97420398,0,0,1.3389705,69.283037,3.5839896)"
       x1="-12.914199"
       y1="4.5790482"
       x2="-9.2425146"
       y2="7.127758" />
    <linearGradient
       inkscape:collect="always"
       xlink:href="#linearGradient62676"
       id="linearGradient69476"
       gradientUnits="userSpaceOnUse"
       x1="18.785665"
       y1="4.5676818"
       x2="22.45735"
       y2="4.5676818"
       gradientTransform="matrix(0.97420398,0,0,0.97420398,38.400903,6.9716698)" />
    <linearGradient
       inkscape:collect="always"
       xlink:href="#linearGradient62583"
       id="linearGradient69507"
       gradientUnits="userSpaceOnUse"
       gradientTransform="matrix(0.97420398,0,0,1.3389705,74.438199,3.5839895)"
       x1="-12.914199"
       y1="4.5790482"
       x2="-9.2425146"
       y2="7.127758" />
    <linearGradient
       inkscape:collect="always"
       xlink:href="#linearGradient62676"
       id="linearGradient69509"
       gradientUnits="userSpaceOnUse"
       x1="18.785665"
       y1="4.5676818"
       x2="22.45735"
       y2="4.5676818"
       gradientTransform="matrix(0.97420398,0,0,0.97420398,43.556065,6.9716697)" />
    <linearGradient
       inkscape:collect="always"
       xlink:href="#linearGradient62583"
       id="linearGradient69540"
       gradientUnits="userSpaceOnUse"
       gradientTransform="matrix(0.97420398,0,0,1.3389705,79.541001,3.55127)"
       x1="-12.914199"
       y1="4.5790482"
       x2="-9.2425146"
       y2="7.127758" />
    <linearGradient
       inkscape:collect="always"
       xlink:href="#linearGradient62676"
       id="linearGradient69542"
       gradientUnits="userSpaceOnUse"
       x1="18.785665"
       y1="4.5676818"
       x2="22.45735"
       y2="4.5676818"
       gradientTransform="matrix(0.97420398,0,0,0.97420398,48.658866,6.9389501)" />
    <linearGradient
       inkscape:collect="always"
       xlink:href="#linearGradient62583"
       id="linearGradient69573"
       gradientUnits="userSpaceOnUse"
       gradientTransform="matrix(0.97420398,0,0,1.3389705,84.643803,3.5512698)"
       x1="-12.914199"
       y1="4.5790482"
       x2="-9.2425146"
       y2="7.127758" />
    <linearGradient
       inkscape:collect="always"
       xlink:href="#linearGradient62676"
       id="linearGradient69575"
       gradientUnits="userSpaceOnUse"
       x1="18.785665"
       y1="4.5676818"
       x2="22.45735"
       y2="4.5676818"
       gradientTransform="matrix(0.97420398,0,0,0.97420398,53.761669,6.9389501)" />
    <linearGradient
       inkscape:collect="always"
       xlink:href="#linearGradient62583"
       id="linearGradient69606"
       gradientUnits="userSpaceOnUse"
       gradientTransform="matrix(0.97420398,0,0,1.3389705,89.892609,3.5799661)"
       x1="-12.914199"
       y1="4.5790482"
       x2="-9.2425146"
       y2="7.127758" />
    <linearGradient
       inkscape:collect="always"
       xlink:href="#linearGradient62676"
       id="linearGradient69608"
       gradientUnits="userSpaceOnUse"
       x1="18.785665"
       y1="4.5676818"
       x2="22.45735"
       y2="4.5676818"
       gradientTransform="matrix(0.97420398,0,0,0.97420398,59.010474,6.9676463)" />
    <linearGradient
       inkscape:collect="always"
       xlink:href="#linearGradient72313"
       id="linearGradient72128"
       x1="20.50074"
       y1="6.2354007"
       x2="28.798338"
       y2="6.2354007"
       gradientUnits="userSpaceOnUse"
       gradientTransform="translate(0.52916663)" />
    <linearGradient
       inkscape:collect="always"
       xlink:href="#linearGradient72313"
       id="linearGradient72138"
       x1="25.372471"
       y1="6.3748174"
       x2="33.660107"
       y2="6.3748174"
       gradientUnits="userSpaceOnUse"
       gradientTransform="translate(0.52916663)" />
    <linearGradient
       inkscape:collect="always"
       xlink:href="#linearGradient72313"
       id="linearGradient72146"
       x1="30.527634"
       y1="6.3747845"
       x2="38.815269"
       y2="6.3747845"
       gradientUnits="userSpaceOnUse"
       gradientTransform="translate(0.52916663)" />
    <linearGradient
       inkscape:collect="always"
       xlink:href="#linearGradient72313"
       id="linearGradient72154"
       x1="35.682796"
       y1="6.3747845"
       x2="43.970432"
       y2="6.3747845"
       gradientUnits="userSpaceOnUse"
       gradientTransform="translate(0.52916663)" />
    <linearGradient
       inkscape:collect="always"
       xlink:href="#linearGradient72313"
       id="linearGradient72162"
       x1="40.837959"
       y1="6.3747845"
       x2="49.125595"
       y2="6.3747845"
       gradientUnits="userSpaceOnUse"
       gradientTransform="translate(0.52916663)" />
    <linearGradient
       inkscape:collect="always"
       xlink:href="#linearGradient72313"
       id="linearGradient72170"
       x1="45.993122"
       y1="6.3747845"
       x2="54.280758"
       y2="6.3747845"
       gradientUnits="userSpaceOnUse"
       gradientTransform="translate(0.52916663)" />
    <linearGradient
       inkscape:collect="always"
       xlink:href="#linearGradient72313"
       id="linearGradient72178"
       x1="51.148285"
       y1="6.3747845"
       x2="59.435921"
       y2="6.3747845"
       gradientUnits="userSpaceOnUse"
       gradientTransform="translate(0.52916663)" />
    <linearGradient
       inkscape:collect="always"
       xlink:href="#linearGradient72313"
       id="linearGradient72283"
       x1="56.303448"
       y1="6.3747845"
       x2="64.591087"
       y2="6.3747845"
       gradientUnits="userSpaceOnUse"
       gradientTransform="translate(0.52916663)" />
    <linearGradient
       inkscape:collect="always"
       xlink:href="#linearGradient72313"
       id="linearGradient72291"
       x1="61.458611"
       y1="6.3747845"
       x2="69.746246"
       y2="6.3747845"
       gradientUnits="userSpaceOnUse"
       gradientTransform="translate(0.52916663)" />
    <linearGradient
       inkscape:collect="always"
       xlink:href="#linearGradient72313"
       id="linearGradient72299"
       x1="66.613777"
       y1="6.3748174"
       x2="74.901413"
       y2="6.3748174"
       gradientUnits="userSpaceOnUse"
       gradientTransform="translate(0.52916663)" />
    <linearGradient
       inkscape:collect="always"
       xlink:href="#linearGradient72313"
       id="linearGradient72307"
       x1="71.768936"
       y1="6.3748174"
       x2="80.056572"
       y2="6.3748174"
       gradientUnits="userSpaceOnUse"
       gradientTransform="translate(0.52916663)" />
    <linearGradient
       inkscape:collect="always"
       xlink:href="#linearGradient2533"
       id="linearGradient2535"
       x1="57.703999"
       y1="81.753755"
       x2="85.049284"
       y2="81.753755"
       gradientUnits="userSpaceOnUse" />
    <linearGradient
       inkscape:collect="always"
       xlink:href="#linearGradient3022"
       id="linearGradient3024"
       x1="34.684668"
       y1="17.329022"
       x2="107.89697"
       y2="17.329022"
       gradientUnits="userSpaceOnUse" />
  </defs>
  <g
     inkscape:label="Layer 1"
     inkscape:groupmode="layer"
     id="layer1">
    <rect
       style="font-variation-settings:'wght' 400;fill:#666666;fill-opacity:1;stroke:none;stroke-width:0.378729;stroke-linecap:round;stroke-linejoin:round;stroke-dasharray:none;stroke-opacity:1;paint-order:stroke fill markers"
       id="rect38053"
       width="81.791946"
       height="127.45695"
       x="12.323755"
       y="6.9386954"
       ry="11.341756" />
    <rect
       style="font-variation-settings:'wght' 400;fill:#ffffff;fill-opacity:1;stroke:#a2a2a2;stroke-width:0.745743;stroke-linecap:round;stroke-linejoin:round;stroke-dasharray:none;stroke-opacity:1;paint-order:stroke fill markers"
       id="rect38053-8"
       width="79.463608"
       height="126.14906"
       x="12.743413"
       y="7.5926452"
       ry="11.225371" />
    <rect
       style="font-variation-settings:'wght' 400;fill:#ffffff;fill-opacity:1;stroke:#bababa;stroke-width:0.743429;stroke-linecap:round;stroke-linejoin:round;stroke-dasharray:none;stroke-opacity:1;paint-order:stroke fill markers"
       id="rect38053-8-7"
       width="78.968033"
       height="126.15365"
       x="13.238987"
       y="7.5903411"
       ry="11.225782" />
    <rect
       style="font-variation-settings:'wght' 400;fill:#ffffff;fill-opacity:1;stroke:#d1d1d1;stroke-width:0.743454;stroke-linecap:round;stroke-linejoin:round;stroke-dasharray:none;stroke-opacity:1;paint-order:stroke fill markers"
       id="rect38053-8-7-9"
       width="78.97036"
       height="126.15829"
       x="13.734547"
       y="7.5880194"
       ry="11.226194" />
    <rect
       style="font-variation-settings:'wght' 400;fill:#ffffff;fill-opacity:1;stroke:#e3e3e3;stroke-width:0.738751;stroke-linecap:round;stroke-linejoin:round;stroke-dasharray:none;stroke-opacity:1;paint-order:stroke fill markers"
       id="rect38053-8-7-9-2"
       width="77.974594"
       height="126.15829"
       x="14.232426"
       y="7.5880194"
       ry="11.226194" />
    <rect
       style="font-variation-settings:'wght' 400;fill:#ffffff;fill-opacity:1;stroke:#e3e3e3;stroke-width:0.738751;stroke-linecap:round;stroke-linejoin:round;stroke-dasharray:none;stroke-opacity:1;paint-order:stroke fill markers"
       id="rect38053-8-7-9-2-0"
       width="77.974594"
       height="126.15829"
       x="14.730307"
       y="7.5880194"
       ry="11.226194" />
    <rect
       style="font-variation-settings:'wght' 400;fill:#999999;fill-opacity:1;stroke:none;stroke-width:0.378293;stroke-linecap:round;stroke-linejoin:round;stroke-dasharray:none;stroke-opacity:1;paint-order:stroke fill markers"
       id="rect38053-2"
       width="79.004951"
       height="131.65018"
       x="11.924775"
       y="7.15345"
       ry="11.71489"
       transform="matrix(0.99999997,2.5690867e-4,0.25057531,0.96809711,0,0)" />
    <path
       id="rect38053-2-2"
       style="font-variation-settings:'wght' 400;fill:url(#linearGradient47988);fill-opacity:1;stroke:none;stroke-width:0.372198;stroke-linecap:round;stroke-linejoin:round;stroke-dasharray:none;stroke-opacity:1;paint-order:stroke fill markers"
       d="m 78.773267,9.0125475 c -18.067694,0.00175 -36.136869,-0.048096 -54.203628,0.027891 -3.11074,0.1727069 -6.084069,2.7500385 -6.162746,5.9642385 -0.13405,2.740387 1.013494,5.311812 1.569569,7.949149 8.692491,33.488968 17.319681,66.996285 26.049581,100.474664 1.259324,3.65303 4.391663,6.6105 7.86507,8.02364 2.199276,0.89213 4.60327,0.99264 6.944623,0.8957 18.039092,-0.0334 36.080463,0.0564 54.118104,-0.0518 3.02872,-0.20899 5.91197,-2.6784 6.0548,-5.80809 0.20204,-2.77282 -0.97781,-5.378 -1.54126,-8.04287 C 110.76047,84.909745 102.13535,51.351821 93.373204,17.831768 91.624761,13.040796 86.84895,9.4039505 81.821464,9.0505541 80.833816,8.9757352 79.799532,8.987377 78.773267,9.0125017 Z" />
    <ellipse
       style="font-variation-settings:'wght' 400;fill:url(#linearGradient69606);fill-opacity:1;stroke:url(#linearGradient69608);stroke-width:0.13444;stroke-linecap:round;stroke-linejoin:round;stroke-dasharray:none;stroke-opacity:1;paint-order:stroke fill markers"
       id="path57636-6-97"
       cx="79.100037"
       cy="11.4175"
       rx="1.7884848"
       ry="1.7063236" />
    <text
       xml:space="preserve"
       style="font-style:normal;font-weight:normal;font-size:14.082px;line-height:1.25;font-family:sans-serif;fill:#003380;fill-opacity:1;stroke:url(#linearGradient3024);stroke-width:0.152;stroke-dasharray:none;stroke-linecap:round;stroke-linejoin:round"
       x="33.318714"
       y="22.609772"
       id="text40605"
       transform="matrix(0.70710677,0,0.36620921,1.4142136,0,0)"><tspan
         sodipodi:role="line"
         id="tspan40603"
         style="fill:#003380;stroke-width:0.152;stroke:url(#linearGradient3024);stroke-dasharray:none;stroke-linecap:round;stroke-linejoin:round"
         x="33.318714"
         y="22.609772">FeatherPad</tspan></text>
    <ellipse
       style="font-variation-settings:'wght' 400;fill:url(#linearGradient58059);fill-opacity:1;stroke:url(#linearGradient62591);stroke-width:0.13444;stroke-linecap:round;stroke-linejoin:round;stroke-dasharray:none;stroke-opacity:1;paint-order:stroke fill markers"
       id="path57636"
       cx="27.599205"
       cy="11.388803"
       rx="1.7884848"
       ry="1.7063236" />
    <ellipse
       style="font-variation-settings:'wght' 400;fill:url(#linearGradient59970);fill-opacity:1;stroke:url(#linearGradient62678);stroke-width:0.13444;stroke-linecap:round;stroke-linejoin:round;stroke-dasharray:none;stroke-opacity:1;paint-order:stroke fill markers"
       id="path57636-6"
       cx="32.662277"
       cy="11.388803"
       rx="1.7884848"
       ry="1.7063236" />
    <ellipse
       style="font-variation-settings:'wght' 400;fill:url(#linearGradient69342);fill-opacity:1;stroke:url(#linearGradient69344);stroke-width:0.13444;stroke-linecap:round;stroke-linejoin:round;stroke-dasharray:none;stroke-opacity:1;paint-order:stroke fill markers"
       id="path57636-6-3"
       cx="37.869804"
       cy="11.421523"
       rx="1.7884848"
       ry="1.7063236" />
    <ellipse
       style="font-variation-settings:'wght' 400;fill:url(#linearGradient69375);fill-opacity:1;stroke:url(#linearGradient69377);stroke-width:0.13444;stroke-linecap:round;stroke-linejoin:round;stroke-dasharray:none;stroke-opacity:1;paint-order:stroke fill markers"
       id="path57636-6-0"
       cx="42.965008"
       cy="11.382257"
       rx="1.7884848"
       ry="1.7063236" />
    <ellipse
       style="font-variation-settings:'wght' 400;fill:url(#linearGradient69408);fill-opacity:1;stroke:url(#linearGradient69410);stroke-width:0.13444;stroke-linecap:round;stroke-linejoin:round;stroke-dasharray:none;stroke-opacity:1;paint-order:stroke fill markers"
       id="path57636-6-6"
       cx="48.18013"
       cy="11.421523"
       rx="1.7884848"
       ry="1.7063236" />
    <ellipse
       style="font-variation-settings:'wght' 400;fill:url(#linearGradient69441);fill-opacity:1;stroke:url(#linearGradient69443);stroke-width:0.13444;stroke-linecap:round;stroke-linejoin:round;stroke-dasharray:none;stroke-opacity:1;paint-order:stroke fill markers"
       id="path57636-6-04"
       cx="53.275333"
       cy="11.382257"
       rx="1.7884848"
       ry="1.7063236" />
    <ellipse
       style="font-variation-settings:'wght' 400;fill:url(#linearGradient69474);fill-opacity:1;stroke:url(#linearGradient69476);stroke-width:0.13444;stroke-linecap:round;stroke-linejoin:round;stroke-dasharray:none;stroke-opacity:1;paint-order:stroke fill markers"
       id="path57636-6-2"
       cx="58.490459"
       cy="11.421523"
       rx="1.7884848"
       ry="1.7063236" />
    <ellipse
       style="font-variation-settings:'wght' 400;fill:url(#linearGradient69507);fill-opacity:1;stroke:url(#linearGradient69509);stroke-width:0.13444;stroke-linecap:round;stroke-linejoin:round;stroke-dasharray:none;stroke-opacity:1;paint-order:stroke fill markers"
       id="path57636-6-1"
       cx="63.645615"
       cy="11.421523"
       rx="1.7884848"
       ry="1.7063236" />
    <ellipse
       style="font-variation-settings:'wght' 400;fill:url(#linearGradient69540);fill-opacity:1;stroke:url(#linearGradient69542);stroke-width:0.13444;stroke-linecap:round;stroke-linejoin:round;stroke-dasharray:none;stroke-opacity:1;paint-order:stroke fill markers"
       id="path57636-6-9"
       cx="68.748421"
       cy="11.388803"
       rx="1.7884848"
       ry="1.7063236" />
    <ellipse
       style="font-variation-settings:'wght' 400;fill:url(#linearGradient69573);fill-opacity:1;stroke:url(#linearGradient69575);stroke-width:0.13444;stroke-linecap:round;stroke-linejoin:round;stroke-dasharray:none;stroke-opacity:1;paint-order:stroke fill markers"
       id="path57636-6-17"
       cx="73.851219"
       cy="11.388803"
       rx="1.7884848"
       ry="1.7063236" />
    <path
       id="path57172"
       style="color:#000000;display:inline;fill:url(#linearGradient72307);fill-opacity:1;stroke-width:0.695201;stroke-linecap:round;stroke-linejoin:round;paint-order:stroke fill markers"
       d="m 76.434318,1.0709251 c -1.228138,0 -2.26941,0.7807236 -2.992411,1.9372135 -0.651047,1.0413944 -1.067318,2.4154914 -1.143802,3.9413836 3.49e-4,-2.37e-5 6.89e-4,2.1e-5 9.74e-4,0 0.0029,-1.764e-4 0.0059,-1.68e-5 0.0091,0 0.143622,7.702e-4 0.287351,0.00778 0.430437,0.020137 0.03778,0.00326 0.07556,0.00709 0.113273,0.011076 0.0196,0.00207 0.03922,0.00606 0.0589,0.00705 0.0028,1.422e-4 0.0057,3.968e-4 0.0086,5.034e-4 0.07208,-1.473098 0.477231,-2.7941812 1.079866,-3.7581338 0.666416,-1.0659787 1.543064,-1.6613317 2.43511,-1.6613317 0.892045,0 1.770707,0.595353 2.437123,1.6613317 0.666416,1.0659767 1.091444,2.5687727 1.091444,4.2308582 0,1.5072268 -0.349629,2.883036 -0.911718,3.921246 0.0025,0.0021 0.0052,0.0043 0.0076,0.0065 0.02098,0.01387 0.02912,0.01908 0.04129,0.0287 0.0036,0.0013 0.0073,0.0023 0.01108,0.004 0.10525,0.04773 0.204926,0.106333 0.303571,0.166133 0.05066,0.03071 0.101794,0.06058 0.15254,0.09112 0.63862,-1.129659 1.018446,-2.6034573 1.018446,-4.2177688 0,-1.7292855 -0.435401,-3.2963824 -1.1584,-4.4528725 -0.723076,-1.1564238 -1.764852,-1.9371475 -2.99299,-1.9371475 z"
       sodipodi:nodetypes="sscccssscssssccccscssss" />
    <path
       id="path57170"
       style="color:#000000;display:inline;fill:url(#linearGradient72299);fill-opacity:1;stroke-width:0.695201;stroke-linecap:round;stroke-linejoin:round;paint-order:stroke fill markers"
       d="m 71.279155,1.0709251 c -1.228138,0 -2.26941,0.7807236 -2.992411,1.9372135 -0.651047,1.0413944 -1.067318,2.4154914 -1.143802,3.9413836 3.49e-4,-2.37e-5 6.89e-4,2.1e-5 9.74e-4,0 0.0029,-1.764e-4 0.0059,-1.68e-5 0.0091,0 0.143622,7.702e-4 0.287351,0.00778 0.430437,0.020137 0.03778,0.00326 0.07556,0.00709 0.113272,0.011076 0.0196,0.00207 0.03922,0.00606 0.0589,0.00705 0.0028,1.422e-4 0.0057,3.968e-4 0.0086,5.034e-4 0.07208,-1.473098 0.477231,-2.7941812 1.079866,-3.7581338 0.666416,-1.0659787 1.543064,-1.6613317 2.43511,-1.6613317 0.892045,0 1.770707,0.595353 2.437123,1.6613317 0.666416,1.0659767 1.091444,2.5687727 1.091444,4.2308582 0,1.5072268 -0.349629,2.883036 -0.911718,3.921246 0.0025,0.0021 0.0052,0.0043 0.0076,0.0065 0.02098,0.01387 0.02912,0.01908 0.04129,0.0287 0.0036,0.0013 0.0073,0.0023 0.01108,0.004 0.10525,0.04773 0.204926,0.106333 0.303571,0.166133 0.05066,0.03071 0.101794,0.06058 0.15254,0.09112 0.63862,-1.129659 1.018446,-2.6034573 1.018446,-4.2177688 0,-1.7292855 -0.435401,-3.2963824 -1.1584,-4.4528725 C 73.549102,1.8516469 72.507326,1.0709232 71.279188,1.0709232 Z"
       sodipodi:nodetypes="sscccssscssssccccscssss" />
    <path
       id="path57168"
       style="color:#000000;display:inline;fill:url(#linearGradient72291);fill-opacity:1;stroke-width:0.695201;stroke-linecap:round;stroke-linejoin:round;paint-order:stroke fill markers"
       d="m 66.123992,1.0709251 c -1.228138,0 -2.26941,0.7807236 -2.992411,1.9372135 -0.651047,1.0413944 -1.067318,2.4154914 -1.143802,3.9413836 3.49e-4,-2.37e-5 6.89e-4,2.1e-5 9.74e-4,0 0.0029,-1.764e-4 0.0059,-1.68e-5 0.0091,0 0.143622,7.702e-4 0.287351,0.00778 0.430437,0.020137 0.03778,0.00326 0.07556,0.00709 0.113272,0.011076 0.0196,0.00207 0.03922,0.00606 0.0589,0.00705 0.0028,1.422e-4 0.0057,3.968e-4 0.0086,5.034e-4 0.07208,-1.473098 0.477231,-2.7941812 1.079866,-3.7581338 0.666416,-1.0659787 1.543064,-1.6613317 2.435109,-1.6613317 0.892046,0 1.770708,0.595353 2.437124,1.6613317 0.666416,1.0659767 1.091444,2.5687727 1.091444,4.2308582 0,1.5072268 -0.349629,2.883036 -0.911718,3.921246 0.0025,0.0021 0.0052,0.0043 0.0076,0.0065 0.02098,0.01387 0.02912,0.01908 0.04129,0.0287 0.0036,0.0013 0.0073,0.0023 0.01108,0.004 0.10525,0.04773 0.204926,0.106333 0.303571,0.166133 0.05066,0.03071 0.101794,0.06058 0.15254,0.09112 0.63862,-1.129659 1.018446,-2.6034573 1.018446,-4.2177688 0,-1.7292855 -0.435401,-3.2963824 -1.158401,-4.4528725 -0.723,-1.1564898 -1.764776,-1.9372135 -2.992914,-1.9372135 z"
       sodipodi:nodetypes="sscccssscssssccccscssss" />
    <path
       id="path57166"
       style="color:#000000;display:inline;fill:url(#linearGradient72283);fill-opacity:1;stroke-width:0.695201;stroke-linecap:round;stroke-linejoin:round;paint-order:stroke fill markers"
       d="m 60.968829,1.0709251 c -1.228138,0 -2.26941,0.7807236 -2.992411,1.9372135 C 57.325371,4.049533 56.9091,5.42363 56.832616,6.9495222 c 3.49e-4,-2.37e-5 6.89e-4,2.1e-5 9.74e-4,0 0.0029,-1.764e-4 0.0059,-1.68e-5 0.0091,0 0.143622,7.702e-4 0.287351,0.00778 0.430437,0.020137 0.03778,0.00326 0.07556,0.00709 0.113272,0.011076 0.0196,0.00207 0.03922,0.00606 0.0589,0.00705 0.0028,1.422e-4 0.0057,3.968e-4 0.0086,5.034e-4 0.07208,-1.473098 0.477231,-2.7941812 1.079866,-3.7581338 0.666416,-1.0659787 1.543064,-1.6613317 2.435109,-1.6613317 0.892046,0 1.770708,0.595353 2.437124,1.6613317 0.666416,1.0659767 1.091444,2.5687727 1.091444,4.2308582 0,1.5072268 -0.349629,2.883036 -0.911718,3.921246 0.0025,0.0021 0.0052,0.0043 0.0076,0.0065 0.02098,0.01387 0.02912,0.01908 0.04129,0.0287 0.0036,0.0013 0.0073,0.0023 0.01108,0.004 0.10525,0.04773 0.204926,0.106333 0.303571,0.166133 0.05066,0.03071 0.101794,0.06058 0.15254,0.09112 0.638619,-1.129659 1.018446,-2.6034573 1.018446,-4.2177688 0,-1.7292855 -0.435401,-3.2963824 -1.158401,-4.4528725 -0.723,-1.1564898 -1.764776,-1.9372135 -2.992914,-1.9372135 z"
       sodipodi:nodetypes="sscccssscssssccccscssss" />
    <path
       id="path57164"
       style="color:#000000;display:inline;fill:url(#linearGradient72178);fill-opacity:1;stroke-width:0.695201;stroke-linecap:round;stroke-linejoin:round;paint-order:stroke fill markers"
       d="m 55.813666,1.0709251 c -1.228138,0 -2.26941,0.7807236 -2.992411,1.9372135 -0.651047,1.0413944 -1.067318,2.4154914 -1.143802,3.9413836 3.49e-4,-2.37e-5 6.89e-4,2.1e-5 9.74e-4,0 0.0029,-1.764e-4 0.0059,-1.68e-5 0.0091,0 0.143622,7.702e-4 0.28735,0.00778 0.430437,0.020137 0.03778,0.00326 0.07556,0.00709 0.113272,0.011076 0.0196,0.00207 0.03922,0.00606 0.0589,0.00705 0.0028,1.422e-4 0.0057,3.968e-4 0.0086,5.034e-4 0.07208,-1.473098 0.477231,-2.7941812 1.079866,-3.7581338 0.666416,-1.0659787 1.543064,-1.6613317 2.435109,-1.6613317 0.892046,0 1.770708,0.595353 2.437124,1.6613317 0.666416,1.0659767 1.091444,2.5687727 1.091444,4.2308582 0,1.5072268 -0.349629,2.883036 -0.911718,3.921246 0.0025,0.0021 0.0052,0.0043 0.0076,0.0065 0.02098,0.01387 0.02912,0.01908 0.04129,0.0287 0.0036,0.0013 0.0073,0.0023 0.01108,0.004 0.10525,0.04773 0.204926,0.106333 0.303571,0.166133 0.05066,0.03071 0.101794,0.06058 0.15254,0.09112 0.638619,-1.129659 1.018446,-2.6034573 1.018446,-4.2177688 0,-1.7292855 -0.435401,-3.2963824 -1.158401,-4.4528725 -0.723,-1.1564898 -1.764776,-1.9372135 -2.992914,-1.9372135 z"
       sodipodi:nodetypes="sscccssscssssccccscssss" />
    <path
       id="path57162"
       style="color:#000000;display:inline;fill:url(#linearGradient72170);fill-opacity:1;stroke-width:0.695201;stroke-linecap:round;stroke-linejoin:round;paint-order:stroke fill markers"
       d="m 50.658503,1.0709251 c -1.228138,0 -2.26941,0.7807236 -2.992411,1.9372135 -0.651047,1.0413944 -1.067318,2.4154914 -1.143802,3.9413836 3.49e-4,-2.37e-5 6.89e-4,2.1e-5 9.74e-4,0 0.0029,-1.764e-4 0.0059,-1.68e-5 0.0091,0 0.143622,7.702e-4 0.28735,0.00778 0.430437,0.020137 0.03778,0.00326 0.07556,0.00709 0.113272,0.011076 0.0196,0.00207 0.03922,0.00606 0.0589,0.00705 0.0028,1.422e-4 0.0057,3.968e-4 0.0086,5.034e-4 0.07208,-1.473098 0.477231,-2.7941812 1.079866,-3.7581338 0.666416,-1.0659787 1.543064,-1.6613317 2.435109,-1.6613317 0.892046,0 1.770708,0.595353 2.437124,1.6613317 0.666415,1.0659767 1.091444,2.5687727 1.091444,4.2308582 0,1.5072268 -0.349629,2.883036 -0.911718,3.921246 0.0025,0.0021 0.0052,0.0043 0.0076,0.0065 0.02099,0.01387 0.02912,0.01908 0.04129,0.0287 0.0036,0.0013 0.0073,0.0023 0.01108,0.004 0.10525,0.04773 0.204926,0.106333 0.303571,0.166133 0.05066,0.03071 0.101794,0.06058 0.152539,0.09112 0.63862,-1.129659 1.018447,-2.6034573 1.018447,-4.2177688 0,-1.7292855 -0.435401,-3.2963824 -1.158401,-4.4528725 -0.723,-1.1564898 -1.764776,-1.9372135 -2.992914,-1.9372135 z"
       sodipodi:nodetypes="sscccssscssssccccscssss" />
    <path
       id="path57160"
       style="color:#000000;display:inline;fill:url(#linearGradient72162);fill-opacity:1;stroke-width:0.695201;stroke-linecap:round;stroke-linejoin:round;paint-order:stroke fill markers"
       d="m 45.50334,1.0709251 c -1.228138,0 -2.26941,0.7807236 -2.992411,1.9372135 -0.651047,1.0413944 -1.067318,2.4154914 -1.143802,3.9413836 3.49e-4,-2.37e-5 6.89e-4,2.1e-5 9.74e-4,0 0.0029,-1.764e-4 0.0059,-1.68e-5 0.0091,0 0.143622,7.702e-4 0.28735,0.00778 0.430437,0.020137 0.03778,0.00326 0.07556,0.00709 0.113272,0.011076 0.0196,0.00207 0.03922,0.00606 0.0589,0.00705 0.0028,1.422e-4 0.0057,3.968e-4 0.0086,5.034e-4 0.07208,-1.473098 0.477231,-2.7941812 1.079866,-3.7581338 0.666416,-1.0659787 1.543064,-1.6613317 2.435109,-1.6613317 0.892046,0 1.770708,0.595353 2.437124,1.6613317 0.666415,1.0659767 1.091444,2.5687727 1.091444,4.2308582 0,1.5072268 -0.349629,2.883036 -0.911718,3.921246 0.0025,0.0021 0.0052,0.0043 0.0076,0.0065 0.02099,0.01387 0.02912,0.01908 0.04129,0.0287 0.0036,0.0013 0.0073,0.0023 0.01108,0.004 0.10525,0.04773 0.204926,0.106333 0.303571,0.166133 0.05066,0.03071 0.101794,0.06058 0.152539,0.09112 0.63862,-1.129659 1.018447,-2.6034573 1.018447,-4.2177688 0,-1.7292855 -0.435401,-3.2963824 -1.158401,-4.4528725 -0.723,-1.1564898 -1.764776,-1.9372135 -2.992914,-1.9372135 z"
       sodipodi:nodetypes="sscccssscssssccccscssss" />
    <path
       id="path57158"
       style="color:#000000;display:inline;fill:url(#linearGradient72154);fill-opacity:1;stroke-width:0.695201;stroke-linecap:round;stroke-linejoin:round;paint-order:stroke fill markers"
       d="m 40.348177,1.0709251 c -1.228138,0 -2.26941,0.7807236 -2.992411,1.9372135 -0.651047,1.0413944 -1.067318,2.4154914 -1.143802,3.9413836 3.49e-4,-2.37e-5 6.89e-4,2.1e-5 9.74e-4,0 0.0029,-1.764e-4 0.0059,-1.68e-5 0.0091,0 0.143622,7.702e-4 0.28735,0.00778 0.430437,0.020137 0.03778,0.00326 0.07556,0.00709 0.113272,0.011076 0.0196,0.00207 0.03922,0.00606 0.0589,0.00705 0.0028,1.422e-4 0.0057,3.968e-4 0.0086,5.034e-4 0.07208,-1.473098 0.477231,-2.7941812 1.079866,-3.7581338 0.666416,-1.0659787 1.543064,-1.6613317 2.435109,-1.6613317 0.892046,0 1.770708,0.595353 2.437123,1.6613317 0.666416,1.0659767 1.091445,2.5687727 1.091445,4.2308582 0,1.5072268 -0.349629,2.883036 -0.911719,3.921246 0.0025,0.0021 0.0052,0.0043 0.0076,0.0065 0.02098,0.01387 0.02912,0.01908 0.04129,0.0287 0.0036,0.0013 0.0073,0.0023 0.01108,0.004 0.10525,0.04773 0.204925,0.106333 0.30357,0.166133 0.05066,0.03071 0.101795,0.06058 0.15254,0.09112 0.63862,-1.129659 1.018447,-2.6034573 1.018447,-4.2177688 0,-1.7292855 -0.435401,-3.2963824 -1.158401,-4.4528725 -0.723,-1.1564898 -1.764776,-1.9372135 -2.992914,-1.9372135 z"
       sodipodi:nodetypes="sscccssscssssccccscssss" />
    <path
       id="path57156"
       style="color:#000000;display:inline;fill:url(#linearGradient72146);fill-opacity:1;stroke-width:0.695201;stroke-linecap:round;stroke-linejoin:round;paint-order:stroke fill markers"
       d="m 35.193014,1.0709251 c -1.228138,0 -2.26941,0.7807236 -2.992411,1.9372135 -0.651047,1.0413944 -1.067318,2.4154914 -1.143802,3.9413836 3.48e-4,-2.37e-5 6.88e-4,2.1e-5 9.74e-4,0 0.0029,-1.764e-4 0.0059,-1.68e-5 0.0091,0 0.143622,7.702e-4 0.28735,0.00778 0.430436,0.020137 0.03778,0.00326 0.07556,0.00709 0.113273,0.011076 0.0196,0.00207 0.03922,0.00606 0.0589,0.00705 0.0028,1.422e-4 0.0057,3.968e-4 0.0086,5.034e-4 0.07208,-1.473098 0.477232,-2.7941812 1.079867,-3.7581338 0.666416,-1.0659787 1.543064,-1.6613317 2.435109,-1.6613317 0.892046,0 1.770707,0.595353 2.437123,1.6613317 0.666416,1.0659767 1.091445,2.5687727 1.091445,4.2308582 0,1.5072268 -0.349629,2.883036 -0.911719,3.921246 0.0025,0.0021 0.0052,0.0043 0.0076,0.0065 0.02098,0.01387 0.02912,0.01908 0.04129,0.0287 0.0036,0.0013 0.0073,0.0023 0.01108,0.004 0.10525,0.04773 0.204925,0.106333 0.30357,0.166133 0.05066,0.03071 0.101795,0.06058 0.15254,0.09112 0.63862,-1.129659 1.018447,-2.6034573 1.018447,-4.2177688 0,-1.7292855 -0.435401,-3.2963824 -1.158401,-4.4528725 -0.723,-1.1564898 -1.764776,-1.9372135 -2.992914,-1.9372135 z"
       sodipodi:nodetypes="sscccssscssssccccscssss" />
    <path
       id="path50083-3"
       style="color:#000000;display:inline;fill:url(#linearGradient72138);fill-opacity:1;stroke-width:0.695201;stroke-linecap:round;stroke-linejoin:round;paint-order:stroke fill markers"
       d="m 30.037851,1.0709251 c -1.228138,0 -2.269411,0.7807236 -2.992411,1.9372135 -0.651047,1.0413944 -1.067319,2.4154914 -1.143802,3.9413836 3.48e-4,-2.37e-5 6.88e-4,2.1e-5 9.74e-4,0 0.0029,-1.764e-4 0.0059,-1.68e-5 0.0091,0 0.143622,7.702e-4 0.28735,0.00778 0.430436,0.020137 0.03778,0.00326 0.07556,0.00709 0.113273,0.011076 0.0196,0.00207 0.03922,0.00606 0.0589,0.00705 0.0028,1.422e-4 0.0057,3.968e-4 0.0086,5.034e-4 0.07208,-1.473098 0.477232,-2.7941812 1.079867,-3.7581338 0.666415,-1.0659787 1.543064,-1.6613317 2.435109,-1.6613317 0.892046,0 1.770707,0.595353 2.437123,1.6613317 0.666416,1.0659767 1.091445,2.5687727 1.091445,4.2308582 0,1.5072268 -0.349629,2.883036 -0.911719,3.921246 0.0025,0.0021 0.0052,0.0043 0.0076,0.0065 0.02099,0.01387 0.02912,0.01908 0.04129,0.0287 0.0036,0.0013 0.0073,0.0023 0.01108,0.004 0.10525,0.04773 0.204925,0.106333 0.30357,0.166133 0.05066,0.03071 0.101795,0.06058 0.15254,0.09112 0.63862,-1.129659 1.018447,-2.6034573 1.018447,-4.2177688 0,-1.7292855 -0.435401,-3.2963824 -1.158401,-4.4528725 -0.723075,-1.1564238 -1.76485,-1.9371475 -2.992988,-1.9371475 z"
       sodipodi:nodetypes="sscccssscssssccccscssss" />
    <path
       id="path54077"
       style="color:#000000;display:inline;fill:url(#linearGradient72128);fill-opacity:1;stroke-width:0.695201;stroke-linecap:round;stroke-linejoin:round;paint-order:stroke fill markers"
       d="m 25.176694,1.0709251 c -1.228139,0 -2.269914,0.7807236 -2.992915,1.9372135 -0.691978,1.1068668 -1.118488,2.5900362 -1.153871,4.2313615 0.237174,-0.077001 0.457063,-0.1145351 0.627278,-0.1490167 0.05795,-1.5140829 0.46739,-2.8741934 1.083893,-3.8603309 0.666416,-1.0659777 1.543568,-1.6613316 2.435614,-1.6613316 0.892045,0 1.770203,0.5953539 2.436619,1.6613316 0.666416,1.0659776 1.091948,2.5687727 1.091948,4.2308582 0,1.2985042 -0.259895,2.4995187 -0.691215,3.4711763 0.21741,0.231582 0.312801,0.338202 0.444029,0.46769 0.548358,-1.088614 0.86943,-2.4541787 0.86943,-3.9388663 0,-1.7292854 -0.435401,-3.2963824 -1.158401,-4.4528724 -0.723002,-1.1564899 -1.764274,-1.9372135 -2.99241,-1.9372135 z"
       sodipodi:nodetypes="ssccssssccssss" />
    <path
       id="path50083-3-7"
       style="color:#000000;display:inline;opacity:0.388045;fill:#ffffff;fill-opacity:1;stroke-width:0.695201;stroke-linecap:round;stroke-linejoin:round;paint-order:stroke fill markers"
       d="m 29.004084,7.1821786 c 0,1.5072268 -0.197619,2.8830364 -0.759709,3.9212454 0.05077,0.148115 0.150109,0.222564 0.213699,0.296453 0.63459,-1.260011 0.866437,-2.6034567 0.866437,-4.2177682 0,-1.7292855 -0.615945,-3.3998812 -1.339643,-4.4528725 -0.314321,-0.457342 -1.329005,-1.6258845 -2.659736,-1.6518936 2.318177,0.5191182 3.636179,3.3416313 3.678952,6.1048359 z"
       sodipodi:nodetypes="cccsscc" />
    <path
       id="path50083-3-7-3"
       style="color:#000000;display:inline;opacity:0.388045;fill:#ffffff;fill-opacity:1;stroke-width:0.695201;stroke-linecap:round;stroke-linejoin:round;paint-order:stroke fill markers"
       d="m 33.865664,7.461014 c 0,1.507227 -0.346447,2.883036 -0.908537,3.921245 0.05077,0.148115 0.150109,0.222564 0.213699,0.296453 0.63459,-1.260011 1.015265,-2.603456 1.015265,-4.2177678 0,-1.7292855 -0.434044,-3.3998812 -1.157742,-4.4528725 -0.314321,-0.457342 -1.107837,-1.7233065 -2.692809,-1.920611 2.282207,0.5775566 3.487351,3.6103487 3.530124,6.3735533 z"
       sodipodi:nodetypes="cccsscc" />
    <path
       id="path50083-3-7-3-6"
       style="color:#000000;display:inline;opacity:0.388045;fill:#ffffff;fill-opacity:1;stroke-width:0.695201;stroke-linecap:round;stroke-linejoin:round;paint-order:stroke fill markers"
       d="m 39.020827,7.461014 c 0,1.507227 -0.346447,2.883036 -0.908537,3.921245 0.05077,0.148115 0.150109,0.222564 0.213699,0.296453 0.63459,-1.260011 1.015265,-2.603456 1.015265,-4.217768 0,-1.7292857 -0.434044,-3.3998814 -1.157742,-4.4528727 -0.314321,-0.457342 -1.107837,-1.7233065 -2.692809,-1.920611 2.282207,0.5775566 3.487351,3.6103487 3.530124,6.3735537 z"
       sodipodi:nodetypes="cccsscc" />
    <path
       id="path50083-3-7-3-6-5"
       style="color:#000000;display:inline;opacity:0.388045;fill:#ffffff;fill-opacity:1;stroke-width:0.695201;stroke-linecap:round;stroke-linejoin:round;paint-order:stroke fill markers"
       d="m 44.175989,7.461014 c 0,1.507227 -0.346447,2.883036 -0.908537,3.921245 0.05077,0.148115 0.150109,0.222564 0.213699,0.296453 0.63459,-1.260011 1.015265,-2.603456 1.015265,-4.217768 0,-1.7292856 -0.434044,-3.3998813 -1.157742,-4.4528726 -0.314321,-0.457342 -1.107837,-1.7233065 -2.692809,-1.920611 2.282207,0.5775566 3.487351,3.6103487 3.530124,6.3735536 z"
       sodipodi:nodetypes="cccsscc" />
    <path
       id="path50083-3-7-3-6-6"
       style="color:#000000;display:inline;opacity:0.388045;fill:#ffffff;fill-opacity:1;stroke-width:0.695201;stroke-linecap:round;stroke-linejoin:round;paint-order:stroke fill markers"
       d="m 49.331153,7.461014 c 0,1.507227 -0.346447,2.883036 -0.908537,3.921245 0.05077,0.148115 0.150109,0.222564 0.213699,0.296453 0.63459,-1.260011 1.015265,-2.603456 1.015265,-4.217768 0,-1.729285 -0.434044,-3.399881 -1.157742,-4.4528723 -0.314321,-0.457342 -1.107837,-1.7233065 -2.692809,-1.920611 2.282207,0.5775566 3.487351,3.6103487 3.530124,6.3735533 z"
       sodipodi:nodetypes="cccsscc" />
    <path
       id="path50083-3-7-3-6-3"
       style="color:#000000;display:inline;opacity:0.388045;fill:#ffffff;fill-opacity:1;stroke-width:0.695201;stroke-linecap:round;stroke-linejoin:round;paint-order:stroke fill markers"
       d="m 54.486316,7.461013 c 0,1.507228 -0.346447,2.883037 -0.908537,3.921246 0.05077,0.148115 0.150109,0.222564 0.213699,0.296453 0.63459,-1.260012 1.015265,-2.603456 1.015265,-4.217769 0,-1.7292852 -0.434044,-3.3998809 -1.157742,-4.4528722 -0.314321,-0.457342 -1.107837,-1.7233065 -2.692809,-1.920611 2.282207,0.5775566 3.487351,3.6103487 3.530124,6.3735532 z"
       sodipodi:nodetypes="cccsscc" />
    <path
       id="path50083-3-7-3-6-9"
       style="color:#000000;display:inline;opacity:0.388045;fill:#ffffff;fill-opacity:1;stroke-width:0.695201;stroke-linecap:round;stroke-linejoin:round;paint-order:stroke fill markers"
       d="m 59.64148,7.4610143 c 0,1.507227 -0.346447,2.8830357 -0.908537,3.9212447 0.05077,0.148115 0.150109,0.222564 0.213699,0.296453 0.63459,-1.260011 1.015265,-2.6034557 1.015265,-4.2177677 0,-1.729285 -0.434044,-3.399881 -1.157742,-4.4528723 -0.314321,-0.457342 -1.107837,-1.7233065 -2.692809,-1.920611 2.282207,0.5775566 3.487351,3.6103487 3.530124,6.3735533 z"
       sodipodi:nodetypes="cccsscc" />
    <path
       id="path50083-3-7-3-6-4"
       style="color:#000000;display:inline;opacity:0.388045;fill:#ffffff;fill-opacity:1;stroke-width:0.695201;stroke-linecap:round;stroke-linejoin:round;paint-order:stroke fill markers"
       d="m 64.796643,7.461014 c 0,1.507227 -0.346447,2.883036 -0.908537,3.921245 0.05077,0.148115 0.150109,0.222564 0.213699,0.296453 0.63459,-1.260011 1.015265,-2.603456 1.015265,-4.217768 0,-1.7292857 -0.434044,-3.3998814 -1.157742,-4.4528727 -0.314321,-0.457342 -1.107837,-1.7233065 -2.692809,-1.920611 2.282207,0.5775566 3.487351,3.6103487 3.530124,6.3735537 z"
       sodipodi:nodetypes="cccsscc" />
    <path
       id="path50083-3-7-3-6-8"
       style="color:#000000;display:inline;opacity:0.388045;fill:#ffffff;fill-opacity:1;stroke-width:0.695201;stroke-linecap:round;stroke-linejoin:round;paint-order:stroke fill markers"
       d="m 69.951806,7.461014 c 0,1.507227 -0.346447,2.883036 -0.908537,3.921245 0.05077,0.148115 0.150109,0.222564 0.213699,0.296453 0.63459,-1.260011 1.015265,-2.603456 1.015265,-4.217768 0,-1.7292855 -0.434044,-3.3998812 -1.157742,-4.4528725 -0.314321,-0.457342 -1.107837,-1.7233065 -2.692809,-1.920611 2.282207,0.5775566 3.487351,3.6103487 3.530124,6.3735535 z"
       sodipodi:nodetypes="cccsscc" />
    <path
       id="path50083-3-7-3-6-1"
       style="color:#000000;display:inline;opacity:0.388045;fill:#ffffff;fill-opacity:1;stroke-width:0.695201;stroke-linecap:round;stroke-linejoin:round;paint-order:stroke fill markers"
       d="m 75.11015,7.461014 c 0,1.507227 -0.346447,2.883036 -0.908537,3.921245 0.05077,0.148115 0.150109,0.222564 0.213699,0.296453 0.63459,-1.260011 1.015265,-2.603456 1.015265,-4.217768 0,-1.729286 -0.434044,-3.3998817 -1.157742,-4.452873 -0.314321,-0.457342 -1.107837,-1.7233065 -2.692809,-1.920611 2.282207,0.5775566 3.487351,3.6103487 3.530124,6.373554 z"
       sodipodi:nodetypes="cccsscc" />
    <path
       id="path50083-3-7-3-6-1-2"
       style="color:#000000;display:inline;opacity:0.388045;fill:#ffffff;fill-opacity:1;stroke-width:0.695201;stroke-linecap:round;stroke-linejoin:round;paint-order:stroke fill markers"
       d="m 80.262133,7.461014 c 0,1.507227 -0.346447,2.883036 -0.908537,3.921245 0.05077,0.148115 0.150109,0.222564 0.213699,0.296453 0.63459,-1.260011 1.015265,-2.603456 1.015265,-4.217768 0,-1.7292858 -0.434044,-3.3998815 -1.157742,-4.4528728 -0.314321,-0.457342 -1.107837,-1.7233065 -2.692809,-1.920611 2.282207,0.5775566 3.487351,3.6103487 3.530124,6.3735538 z"
       sodipodi:nodetypes="cccsscc" />
    <path
       id="path76671"
       style="font-variation-settings:'wght' 400;opacity:1;fill:#003380;stroke:url(#linearGradient2535);stroke-width:0.667;stroke-linecap:round;stroke-linejoin:round;paint-order:stroke fill markers;stroke-opacity:1;stroke-dasharray:none"
       d="m 64.061497,35.879969 c -0.703969,-0.158282 -1.366048,-0.201898 -1.977491,-0.120897 -0.611435,0.081 -1.172229,0.286623 -1.673635,0.626811 -0.5014,0.340191 -0.943407,0.814953 -1.31729,1.434236 -0.373876,0.619282 -0.679607,1.383088 -0.908449,2.301369 -0.228851,0.918282 -0.380798,1.991038 -0.447127,3.228219 -0.03341,0.623357 7.992693,10.48285 7.992693,10.48285 0.01106,0.697293 -7.982398,-7.049989 -7.925988,-6.268067 0.113695,1.575989 0.321787,3.326358 0.633007,5.261057 0.311226,1.934702 0.725588,4.053736 1.251828,6.367052 0.499636,2.196308 1.077639,4.468994 1.717803,6.771112 0.640177,2.302121 1.342503,4.633672 2.090767,6.947712 0.748264,2.314043 1.542451,4.610573 2.366346,6.842644 0.823889,2.232071 1.677491,4.399687 2.544549,6.455899 0.867073,2.056212 1.747601,4.001026 2.625382,5.787484 0.877779,1.786465 1.752799,3.41458 2.608842,4.837404 0.856034,1.422825 1.693083,2.640353 2.494918,3.605646 0.801827,0.96529 1.568449,1.67834 2.283624,2.09222 3.542615,15.04448 6.165913,25.16273 6.547786,25.2553 0.378639,0.0783 -1.566859,-9.88748 -4.856011,-24.87492 4.750469,-0.95682 3.967457,-21.564694 -0.02949,-39.134972 -0.268762,-1.181433 -5.365756,4.121555 -5.365756,4.121555 -0.272244,-1.051695 3.984795,-9.605248 3.69959,-10.581767 -0.5829,-1.995787 -1.191666,-3.836244 -1.821379,-5.528255 -0.629713,-1.69201 -1.280373,-3.235572 -1.947058,-4.637566 -0.666692,-1.401993 -1.349401,-2.662417 -2.043233,-3.788153 -0.693824,-1.125735 -1.398758,-2.116781 -2.109877,-2.980015 -0.711126,-0.863237 -1.428431,-1.598659 -2.147012,-2.213153 -0.718582,-0.614492 -1.438426,-1.108053 -2.154631,-1.487561 -0.716191,-0.379509 -1.42873,-0.644963 -2.132706,-0.803244 z"
       sodipodi:nodetypes="sssssscsssssssssscccscsssssssss" />
  </g>
</svg>
