<?xml version="1.0" encoding="UTF-8" standalone="no"?>
<!-- Created with Inkscape (http://www.inkscape.org/) -->

<svg
   width="512"
   height="512"
   viewBox="0 0 135.46666 135.46667"
   version="1.1"
   id="svg5"
   inkscape:version="1.4 (e7c3feb100, 2024-10-09)"
   sodipodi:docname="focuswriter.svg"
   xmlns:inkscape="http://www.inkscape.org/namespaces/inkscape"
   xmlns:sodipodi="http://sodipodi.sourceforge.net/DTD/sodipodi-0.dtd"
   xmlns:xlink="http://www.w3.org/1999/xlink"
   xmlns="http://www.w3.org/2000/svg"
   xmlns:svg="http://www.w3.org/2000/svg">
  <sodipodi:namedview
     id="namedview7"
     pagecolor="#242424"
     bordercolor="#666666"
     borderopacity="1"
     inkscape:showpageshadow="0"
     inkscape:pageopacity="0"
     inkscape:pagecheckerboard="1"
     inkscape:deskcolor="#000000"
     inkscape:document-units="px"
     showgrid="false"
     inkscape:zoom="2.6074564"
     inkscape:cx="344.5887"
     inkscape:cy="182.74515"
     inkscape:window-width="3233"
     inkscape:window-height="1080"
     inkscape:window-x="1887"
     inkscape:window-y="0"
     inkscape:window-maximized="0"
     inkscape:current-layer="layer1" />
  <defs
     id="defs2">
    <linearGradient
       id="linearGradient14"
       inkscape:collect="always">
      <stop
         style="stop-color:#060033;stop-opacity:0;"
         offset="0.23666666"
         id="stop16" />
      <stop
         style="stop-color:#5800ff;stop-opacity:1;"
         offset="1"
         id="stop15" />
    </linearGradient>
    <linearGradient
       id="linearGradient10"
       inkscape:collect="always">
      <stop
         style="stop-color:#000000;stop-opacity:0;"
         offset="0.28"
         id="stop14" />
      <stop
         style="stop-color:#ffffff;stop-opacity:1;"
         offset="1"
         id="stop13" />
    </linearGradient>
    <linearGradient
       id="linearGradient3"
       inkscape:collect="always">
      <stop
         style="stop-color:#000000;stop-opacity:0;"
         offset="0.40000001"
         id="stop12" />
      <stop
         style="stop-color:#ffffff;stop-opacity:1;"
         offset="1"
         id="stop9" />
    </linearGradient>
    <linearGradient
       id="linearGradient53"
       inkscape:collect="always">
      <stop
         style="stop-color:#b8b8b8;stop-opacity:1;"
         offset="0"
         id="stop52" />
      <stop
         style="stop-color:#999999;stop-opacity:1;"
         offset="1"
         id="stop53" />
    </linearGradient>
    <linearGradient
       id="linearGradient11"
       inkscape:collect="always">
      <stop
         style="stop-color:#ffffff;stop-opacity:1;"
         offset="0"
         id="stop10" />
      <stop
         style="stop-color:#ffffff;stop-opacity:0;"
         offset="1"
         id="stop11" />
    </linearGradient>
    <linearGradient
       id="linearGradient7"
       inkscape:collect="always">
      <stop
         style="stop-color:#cccccc;stop-opacity:1;"
         offset="0"
         id="stop7" />
      <stop
         style="stop-color:#adadad;stop-opacity:1;"
         offset="1"
         id="stop8" />
    </linearGradient>
    <linearGradient
       id="linearGradient5"
       inkscape:collect="always">
      <stop
         style="stop-color:#00baff;stop-opacity:1;"
         offset="0"
         id="stop5" />
      <stop
         style="stop-color:#ffffff;stop-opacity:1;"
         offset="1"
         id="stop6" />
    </linearGradient>
    <linearGradient
       id="linearGradient2"
       inkscape:collect="always">
      <stop
         style="stop-color:#999999;stop-opacity:1;"
         offset="0"
         id="stop3" />
      <stop
         style="stop-color:#000000;stop-opacity:1;"
         offset="0.5"
         id="stop4" />
    </linearGradient>
    <linearGradient
       id="linearGradient1"
       inkscape:collect="always">
      <stop
         style="stop-color:#000000;stop-opacity:0;"
         offset="0"
         id="stop2" />
      <stop
         style="stop-color:#000000;stop-opacity:1;"
         offset="1"
         id="stop1" />
    </linearGradient>
    <radialGradient
       inkscape:collect="always"
       xlink:href="#linearGradient1"
       id="radialGradient2"
       cx="67.73333"
       cy="67.73333"
       fx="67.73333"
       fy="67.73333"
       r="67.865829"
       gradientUnits="userSpaceOnUse"
       gradientTransform="matrix(0.99218753,0,0,0.99218753,0.52916989,0.53157859)" />
    <linearGradient
       inkscape:collect="always"
       xlink:href="#linearGradient2"
       id="linearGradient4"
       x1="67.73333"
       y1="-0.13255468"
       x2="67.73333"
       y2="135.59921"
       gradientUnits="userSpaceOnUse"
       gradientTransform="matrix(0.99218753,0,0,0.99218753,0.52916989,0.53157859)" />
    <linearGradient
       inkscape:collect="always"
       xlink:href="#linearGradient5"
       id="linearGradient6"
       x1="93.947281"
       y1="32.952396"
       x2="41.519382"
       y2="102.51427"
       gradientUnits="userSpaceOnUse" />
    <linearGradient
       inkscape:collect="always"
       xlink:href="#linearGradient53"
       id="linearGradient8"
       x1="73.772972"
       y1="33.480797"
       x2="61.693687"
       y2="101.98584"
       gradientUnits="userSpaceOnUse" />
    <linearGradient
       inkscape:collect="always"
       xlink:href="#linearGradient11"
       id="linearGradient9"
       gradientUnits="userSpaceOnUse"
       x1="67.73333"
       y1="34.011684"
       x2="67.73333"
       y2="65.060028"
       gradientTransform="translate(0.01178614,0.00205955)" />
    <filter
       inkscape:collect="always"
       style="color-interpolation-filters:sRGB"
       id="filter11"
       x="-0.021117548"
       y="-0.014622714"
       width="1.0422351"
       height="1.0292454">
      <feGaussianBlur
         inkscape:collect="always"
         stdDeviation="0.41092258"
         id="feGaussianBlur11" />
    </filter>
    <filter
       style="color-interpolation-filters:sRGB;"
       inkscape:label="Noise Fill"
       id="filter18"
       x="0"
       y="0"
       width="1"
       height="1">
      <feTurbulence
         type="fractalNoise"
         baseFrequency="0.02 16"
         numOctaves="1"
         seed="9"
         result="turbulence"
         id="feTurbulence17" />
      <feComposite
         in="SourceGraphic"
         in2="turbulence"
         operator="in"
         result="composite1"
         id="feComposite17" />
      <feColorMatrix
         values="1 0 0 0 0 0 1 0 0 0 0 0 1 0 0 0 0 0 3.4 -1 "
         result="color"
         id="feColorMatrix17" />
      <feFlood
         flood-opacity="1"
         flood-color="rgb(0,0,0)"
         result="flood"
         id="feFlood17" />
      <feMerge
         result="merge"
         id="feMerge18">
        <feMergeNode
           in="flood"
           id="feMergeNode17" />
        <feMergeNode
           in="color"
           id="feMergeNode18" />
      </feMerge>
      <feComposite
         in2="SourceGraphic"
         operator="in"
         result="composite2"
         id="feComposite18" />
    </filter>
    <filter
       inkscape:label="Dots Transparency"
       inkscape:menu="Overlays"
       inkscape:menu-tooltip="Gives a pointillist HSL sensitive transparency"
       style="color-interpolation-filters:sRGB;"
       id="filter20"
       x="0"
       y="0"
       width="1"
       height="1">
      <feTurbulence
         result="result1"
         numOctaves="3"
         baseFrequency="1"
         type="fractalNoise"
         seed="50"
         id="feTurbulence18" />
      <feColorMatrix
         result="result0"
         in="SourceGraphic"
         type="luminanceToAlpha"
         id="feColorMatrix18" />
      <feColorMatrix
         values="1 0 0 0 0 0 1 0 0 0 0 0 1 0 0 0 0 0 0.7 0 "
         result="result2"
         id="feColorMatrix19" />
      <feComposite
         in="result1"
         operator="over"
         in2="result2"
         result="result3"
         id="feComposite19" />
      <feColorMatrix
         values="1 0 0 0 0 0 1 0 0 0 0 0 1 0 0 0 0 0 5 -3.2 "
         result="result91"
         id="feColorMatrix20" />
      <feComposite
         operator="out"
         in="SourceGraphic"
         result="result4"
         in2="result91"
         id="feComposite20" />
    </filter>
    <filter
       inkscape:label="3D Marble"
       inkscape:menu="Materials"
       inkscape:menu-tooltip="3D warped marble texture"
       height="1.6248334"
       y="-0.31241671"
       width="1.8291478"
       x="-0.41451768"
       style="color-interpolation-filters:sRGB;"
       id="filter25">
      <feGaussianBlur
         stdDeviation="4"
         result="result8"
         id="feGaussianBlur21" />
      <feTurbulence
         seed="50"
         result="result7"
         type="turbulence"
         numOctaves="7"
         baseFrequency="0.01 0.01"
         id="feTurbulence21" />
      <feColorMatrix
         result="result5"
         values="1 0 0 0 0 0 1 0 0 0 0 0 1 0 0 0 0 0 1.4 0 "
         id="feColorMatrix21" />
      <feComposite
         result="result6"
         in="result5"
         operator="in"
         in2="result8"
         id="feComposite21" />
      <feDisplacementMap
         in="result5"
         xChannelSelector="A"
         yChannelSelector="A"
         scale="100"
         result="result4"
         in2="result6"
         id="feDisplacementMap21" />
      <feFlood
         flood-opacity="1"
         flood-color="rgb(224,224,224)"
         id="feFlood21" />
      <feComposite
         result="result2"
         operator="atop"
         in2="result4"
         id="feComposite22" />
      <feComposite
         in="result2"
         operator="atop"
         in2="SourceGraphic"
         result="result9"
         id="feComposite23" />
      <feBlend
         result="fbSourceGraphic"
         mode="darken"
         in2="result9"
         id="feBlend23" />
      <feGaussianBlur
         stdDeviation="5"
         in="fbSourceGraphic"
         result="result0"
         id="feGaussianBlur23" />
      <feSpecularLighting
         in="result0"
         result="result1"
         lighting-color="rgb(255,255,255)"
         surfaceScale="8"
         specularConstant="0.8"
         specularExponent="30"
         id="feSpecularLighting23">
        <feDistantLight
           elevation="55"
           azimuth="235"
           id="feDistantLight23" />
      </feSpecularLighting>
      <feComposite
         in2="fbSourceGraphic"
         in="result1"
         result="result2"
         operator="in"
         id="feComposite24" />
      <feComposite
         in="fbSourceGraphic"
         result="result4"
         operator="arithmetic"
         k2="1"
         k3="1"
         in2="result2"
         id="feComposite25" />
    </filter>
    <filter
       inkscape:label="Blue Cheese"
       inkscape:menu="Overlays"
       inkscape:menu-tooltip="Marble-like bluish speckles"
       style="color-interpolation-filters:sRGB;"
       id="filter27"
       x="-0.048300456"
       y="-0.03640344"
       width="1.0967134"
       height="1.0728069">
      <feTurbulence
         numOctaves="2"
         baseFrequency="0.063"
         id="feTurbulence25" />
      <feColorMatrix
         values="1"
         id="feColorMatrix25"
         type="saturate" />
      <feGaussianBlur
         stdDeviation="1"
         result="result1"
         id="feGaussianBlur25" />
      <feTurbulence
         numOctaves="3"
         baseFrequency="0.031"
         type="fractalNoise"
         result="result0"
         id="feTurbulence26" />
      <feColorMatrix
         result="result2"
         values="1"
         id="feColorMatrix26"
         type="saturate" />
      <feComposite
         operator="in"
         in2="result2"
         in="result1"
         id="feComposite26" />
      <feComposite
         in2="SourceGraphic"
         operator="atop"
         id="feComposite27" />
    </filter>
    <filter
       inkscape:label="Blueprint"
       inkscape:menu="Image Paint and Draw"
       inkscape:menu-tooltip="Detect color edges and retrace them in blue"
       style="color-interpolation-filters:sRGB;"
       id="filter28"
       x="-0.0025233034"
       y="-0.0019017816"
       width="1.0051591"
       height="1.0038036">
      <feConvolveMatrix
         order="3 3"
         kernelMatrix="1 1 1 1 -8 1 1 1 1"
         in="SourceGraphic"
         divisor="1"
         targetX="1"
         targetY="1"
         preserveAlpha="true"
         result="result0"
         bias="0"
         id="feConvolveMatrix27" />
      <feColorMatrix
         result="result3"
         values="-0.15 -0.3 -0.05 0 1 -0.15 -0.3 -0.05 0 1 0 0 0 0 1 0 0 0 1 0"
         id="feColorMatrix27" />
    </filter>
    <filter
       inkscape:label="Cracked Lava"
       inkscape:menu="Materials"
       inkscape:menu-tooltip="A volcanic texture, a little like leather"
       style="color-interpolation-filters:sRGB;"
       id="filter31"
       x="-0.3916291"
       y="-0.29516588"
       width="1.8215183"
       height="1.6190831">
      <feGaussianBlur
         result="result0"
         in="SourceGraphic"
         stdDeviation="0.5"
         id="feGaussianBlur28" />
      <feTurbulence
         baseFrequency="0.042"
         seed="488"
         numOctaves="7"
         result="result1"
         id="feTurbulence28" />
      <feDisplacementMap
         result="result5"
         xChannelSelector="R"
         scale="0"
         in2="result1"
         in="result1"
         yChannelSelector="G"
         id="feDisplacementMap28" />
      <feComposite
         result="result2"
         operator="in"
         in2="result5"
         in="result0"
         id="feComposite28" />
      <feSpecularLighting
         lighting-color="rgb(255,230,136)"
         surfaceScale="2"
         result="result4"
         specularConstant="2"
         specularExponent="65"
         in="result2"
         id="feSpecularLighting28">
        <feDistantLight
           elevation="62"
           azimuth="225"
           id="feDistantLight28" />
      </feSpecularLighting>
      <feComposite
         k1="2.5"
         k3="1"
         k2="-0.5"
         in2="result2"
         in="result4"
         operator="arithmetic"
         result="result91"
         id="feComposite29" />
      <feBlend
         result="fbSourceGraphic"
         mode="multiply"
         in2="result91"
         id="feBlend29" />
      <feColorMatrix
         values="1 0 0 -1 0 1 0 1 -1 0 1 0 0 -1 0 -2 -0.5 0 5 -2"
         in="fbSourceGraphic"
         result="fbSourceGraphicAlpha"
         id="feColorMatrix29" />
      <feGaussianBlur
         stdDeviation="8"
         in="fbSourceGraphicAlpha"
         result="result0"
         id="feGaussianBlur29" />
      <feOffset
         dx="2"
         dy="2"
         in="result0"
         result="result3"
         id="feOffset29" />
      <feSpecularLighting
         in="result0"
         result="result1"
         lighting-color="rgb(255,255,255)"
         surfaceScale="4"
         specularConstant="0.8"
         specularExponent="15"
         id="feSpecularLighting29">
        <fePointLight
           x="-5000"
           y="-10000"
           z="20000"
           id="fePointLight29" />
      </feSpecularLighting>
      <feComposite
         in2="fbSourceGraphicAlpha"
         in="result1"
         result="result2"
         operator="in"
         id="feComposite30" />
      <feComposite
         in="fbSourceGraphic"
         result="result4"
         operator="arithmetic"
         k2="2"
         k3="2"
         in2="result2"
         id="feComposite31" />
      <feBlend
         mode="darken"
         in2="result4"
         id="feBlend31" />
    </filter>
    <filter
       style="color-interpolation-filters:sRGB"
       inkscape:label="Deep Metal"
       inkscape:menu-tooltip="Deep and dark metal shading"
       inkscape:menu="Non-Realistic 3D Shaders"
       height="1.3488201"
       y="-0.17441007"
       width="1.4629306"
       x="-0.23140907"
       id="filter38">
      <feGaussianBlur
         result="result8"
         stdDeviation="5"
         in="SourceGraphic"
         id="feGaussianBlur31" />
      <feComposite
         result="result19"
         operator="xor"
         in2="result8"
         id="feComposite32" />
      <feComposite
         in2="result8"
         result="result17"
         operator="arithmetic"
         k2="1"
         id="feComposite33" />
      <feComposite
         operator="xor"
         result="result6"
         in2="result17"
         id="feComposite34" />
      <feOffset
         in="result6"
         result="result18"
         id="feOffset34" />
      <feDisplacementMap
         result="result4"
         scale="100"
         yChannelSelector="A"
         xChannelSelector="A"
         in="result18"
         in2="result17"
         id="feDisplacementMap34" />
      <feComposite
         k3="1"
         operator="arithmetic"
         result="result2"
         in2="result4"
         in="result4"
         id="feComposite35" />
      <feComposite
         operator="over"
         in="result2"
         result="fbSourceGraphic"
         in2="result2"
         id="feComposite36" />
      <feComposite
         result="result15"
         operator="xor"
         in2="SourceGraphic"
         in="fbSourceGraphic"
         id="feComposite37" />
      <feComposite
         in="result15"
         operator="in"
         in2="result8"
         result="result16"
         id="feComposite38" />
    </filter>
    <filter
       inkscape:label="Electronic Microscopy"
       inkscape:menu="Bevels"
       inkscape:menu-tooltip="Bevel, crude light, discoloration and glow like in electronic microscopy"
       x="-0.42825083"
       y="-0.3227672"
       width="1.8566141"
       height="1.6455344"
       style="color-interpolation-filters:sRGB;"
       id="filter43">
      <feGaussianBlur
         stdDeviation="0.5"
         result="result6"
         id="feGaussianBlur38" />
      <feComposite
         operator="in"
         in="result6"
         in2="result6"
         result="result91"
         id="feComposite39" />
      <feBlend
         mode="multiply"
         in="result6"
         result="result2"
         in2="result91"
         id="feBlend39" />
      <feGaussianBlur
         stdDeviation="7"
         result="result3"
         in="result2"
         id="feGaussianBlur39" />
      <feComposite
         in2="result2"
         result="result92"
         id="feComposite40" />
      <feComposite
         operator="in"
         in="result3"
         result="result5"
         in2="result92"
         id="feComposite41" />
      <feGaussianBlur
         stdDeviation="1"
         in="result5"
         id="feGaussianBlur41" />
      <feSpecularLighting
         surfaceScale="2"
         specularConstant="1.5"
         specularExponent="100"
         id="feSpecularLighting41">
        <fePointLight
           x="-5000"
           y="-5000"
           z="20000"
           id="fePointLight41" />
      </feSpecularLighting>
      <feComposite
         operator="arithmetic"
         k1="1"
         in2="result5"
         result="result93"
         id="feComposite42" />
      <feGaussianBlur
         stdDeviation="0.8"
         in="result93"
         result="result9"
         id="feGaussianBlur42" />
      <feComposite
         operator="arithmetic"
         k2="0.1"
         k3="1"
         k1="0.5"
         in2="result9"
         result="result94"
         id="feComposite43" />
      <feBlend
         mode="multiply"
         in2="result94"
         id="feBlend43" />
    </filter>
    <clipPath
       clipPathUnits="userSpaceOnUse"
       id="clipPath45">
      <path
         d="M -12.670931,10.568816 V 37.911352 H 0 c 2.9069606,0 5.0273322,-0.632693 6.3611151,-1.898076 1.3679812,-1.299583 2.2742688,-3.847449 2.718863,-7.643598 H 10.978053 V 51.916065 H 9.0799781 C 9.0457781,49.214301 8.6866829,47.230728 8.002693,45.965345 7.3529017,44.699962 6.4295141,43.759474 5.2325301,43.143881 4.0697454,42.494091 2.3255687,42.169193 0,42.169193 h -12.670931 v 21.853509 c 0,3.522554 0.222297,5.848122 0.666891,6.976708 0.341995,0.854988 1.060186,1.590278 2.154571,2.205871 1.5047801,0.820785 3.077959,1.23118 4.7195369,1.23118 h 2.5136671 v 1.898079 h -29.856203 v -1.898079 h 2.462368 c 2.872762,0 4.958934,-0.837888 6.258517,-2.513663 0.820789,-1.094386 1.231183,-3.727752 1.231183,-7.900096 v -44.9382 c 0,-3.522553 -0.222297,-5.848121 -0.666891,-6.976706 -0.341995,-0.854989 -1.043086,-1.590279 -2.103272,-2.2058712 -1.47058,-0.8207886 -3.043758,-1.231183 -4.719537,-1.231183 h -2.462368 v -1.898075 h 51.76101 L 19.955433,22.059863 H 18.159957 C 17.270769,18.810906 16.227683,16.434038 15.030699,14.929258 13.867914,13.390279 12.414434,12.278794 10.670257,11.594803 8.9602796,10.910812 6.2927152,10.568816 2.6675641,10.568816 Z"
         id="path45"
         style="font-size:105.061px;line-height:1.25;font-family:'Times New Roman';-inkscape-font-specification:'Times New Roman, @opsz=32';font-variation-settings:'opsz' 32;text-align:center;text-orientation:upright;text-anchor:middle;fill:url(#linearGradient45);stroke:url(#linearGradient46);stroke-width:0.264583;stroke-dasharray:none;stroke-opacity:1;paint-order:markers stroke fill"
         aria-label="F"
         sodipodi:nodetypes="ccscccccccscsccsccccscssccscccccccsc" />
    </clipPath>
    <linearGradient
       inkscape:collect="always"
       xlink:href="#linearGradient7"
       id="linearGradient45"
       gradientUnits="userSpaceOnUse"
       gradientTransform="translate(-73.99185,-26.179729)"
       x1="67.73333"
       y1="32.952396"
       x2="67.73333"
       y2="102.51427" />
    <linearGradient
       inkscape:collect="always"
       xlink:href="#linearGradient5"
       id="linearGradient46"
       gradientUnits="userSpaceOnUse"
       gradientTransform="translate(-73.99185,-26.179729)"
       x1="93.947281"
       y1="32.952396"
       x2="41.519382"
       y2="102.51427" />
    <filter
       inkscape:collect="always"
       style="color-interpolation-filters:sRGB"
       id="filter46"
       x="-0.058450641"
       y="-0.040719573"
       width="1.1169013"
       height="1.0814391">
      <feGaussianBlur
         inkscape:collect="always"
         stdDeviation="1.5959574"
         id="feGaussianBlur46" />
    </filter>
    <clipPath
       clipPathUnits="userSpaceOnUse"
       id="clipPath51">
      <path
         d="m -184.24088,-42.996445 v 27.342536 h 12.67093 q 4.36044,0 6.36111,-1.898075 2.05197,-1.949374 2.71887,-7.643598 h 1.89807 v 23.5463865 h -1.89807 q -0.0513,-4.0526459 -1.07729,-5.9507199 -0.97469,-1.898075 -2.77016,-2.8214636 -1.74418,-0.974687 -5.23253,-0.974687 h -12.67093 v 21.853508 q 0,5.28383 0.66689,6.976707 0.51299,1.282483 2.15457,2.205871 2.25717,1.231181 4.71954,1.231181 h 2.51366 v 1.89808 h -29.8562 v -1.89808 h 2.46237 q 4.30914,0 6.25851,-2.513664 1.23119,-1.641578 1.23119,-7.900095 v -44.938201 q 0,-5.283827 -0.66689,-6.976705 -0.513,-1.282483 -2.10328,-2.205871 -2.20587,-1.231183 -4.71953,-1.231183 h -2.46237 v -1.898076 h 51.76101 l 0.66689,15.287196 H -153.41 q -1.33378,-4.873434 -3.12925,-7.130605 -1.74418,-2.308468 -4.36045,-3.334454 -2.56496,-1.025988 -8.00269,-1.025988 z"
         id="path51"
         style="font-size:105.061px;line-height:1.25;font-family:'Times New Roman';-inkscape-font-specification:'Times New Roman, @opsz=32';font-variation-settings:'opsz' 32;text-align:center;text-orientation:upright;text-anchor:middle;display:inline;fill:#ff2a2a;stroke:none;stroke-width:0.264583;stroke-dasharray:none;stroke-opacity:1;paint-order:markers stroke fill"
         aria-label="F" />
    </clipPath>
    <filter
       inkscape:collect="always"
       style="color-interpolation-filters:sRGB"
       id="filter51"
       x="-0.016431451"
       y="-0.018220961"
       width="1.0328629"
       height="1.0364419">
      <feGaussianBlur
         inkscape:collect="always"
         stdDeviation="1.4395124"
         id="feGaussianBlur51" />
    </filter>
    <radialGradient
       inkscape:collect="always"
       xlink:href="#linearGradient3"
       id="radialGradient12"
       cx="61.323154"
       cy="68.444786"
       fx="61.323154"
       fy="68.444786"
       r="55.771118"
       gradientUnits="userSpaceOnUse" />
    <radialGradient
       inkscape:collect="always"
       xlink:href="#linearGradient10"
       id="radialGradient14"
       cx="-36.529854"
       cy="91.527573"
       fx="-36.529854"
       fy="91.527573"
       r="89.315216"
       gradientUnits="userSpaceOnUse" />
    <radialGradient
       inkscape:collect="always"
       xlink:href="#linearGradient14"
       id="radialGradient16"
       cx="173.31386"
       cy="59.259541"
       fx="173.31386"
       fy="59.259541"
       r="74.164444"
       gradientUnits="userSpaceOnUse" />
  </defs>
  <g
     inkscape:label="Layer 1"
     inkscape:groupmode="layer"
     id="layer1">
    <rect
       style="font-variation-settings:'opsz' 32;display:none;opacity:1;fill:#ffffff;fill-opacity:1;stroke-width:2.11667;stroke-linecap:round;stroke-linejoin:round;stroke-miterlimit:12;paint-order:markers stroke fill"
       id="rect2"
       width="293.5625"
       height="181.43161"
       x="-79.04792"
       y="-22.982473"
       ry="8.7873058"
       inkscape:label="contrast-test" />
    <path
       d="m 61.320912,36.748543 v 27.342535 h 12.67093 q 4.36044,0 6.36112,-1.898075 2.05197,-1.949374 2.71886,-7.643598 h 1.89808 v 23.546386 h -1.89808 q -0.0513,-4.052646 -1.07728,-5.95072 -0.97469,-1.898075 -2.77017,-2.821463 -1.74417,-0.974687 -5.23253,-0.974687 h -12.67093 v 21.853508 q 0,5.28383 0.66689,6.976707 0.513,1.282483 2.15457,2.205871 2.25717,1.231183 4.71954,1.231183 h 2.51367 v 1.89808 h -29.8562 v -1.89808 h 2.46236 q 4.30915,0 6.25852,-2.513666 1.23118,-1.641578 1.23118,-7.900095 v -44.9382 q 0,-5.283829 -0.66689,-6.976706 -0.51299,-1.282483 -2.10327,-2.205871 -2.20587,-1.231183 -4.71954,-1.231183 h -2.46236 v -1.898075 h 51.761 l 0.6669,15.287196 h -1.79548 q -1.33378,-4.873435 -3.12926,-7.130605 -1.74418,-2.308469 -4.36044,-3.334455 -2.56497,-1.025987 -8.00269,-1.025987 z"
       id="path1"
       style="font-size:105.061px;line-height:1.25;font-family:'Times New Roman';-inkscape-font-specification:'Times New Roman, @opsz=32';font-variation-settings:'opsz' 32;text-align:center;text-orientation:upright;text-anchor:middle;display:inline;fill:#000000;fill-opacity:1;stroke:#000000;stroke-width:3.70417;stroke-dasharray:none;stroke-opacity:1;paint-order:markers stroke fill"
       aria-label="F"
       inkscape:label="F StrokeTrast" />
    <rect
       style="display:inline;opacity:1;fill:url(#radialGradient2);stroke:url(#linearGradient4);stroke-width:1.05833;stroke-linecap:round;stroke-linejoin:round;stroke-miterlimit:12;stroke-dasharray:none;paint-order:markers stroke fill"
       id="rect1"
       width="134.40833"
       height="134.40833"
       x="0.52916992"
       y="0.5315786"
       ry="8.7873058"
       inkscape:label="base" />
    <path
       id="path14"
       style="display:inline;opacity:0.4;fill:url(#radialGradient16);fill-opacity:1;stroke-width:2.47215;stroke-linecap:round;stroke-linejoin:round;stroke-miterlimit:12;paint-order:markers stroke fill"
       d="m 140.26439,14.409435 19.98102,28.711821 -26.84288,-28.619392 c -0.21887,0.0346 -0.42945,0.08517 -0.63942,0.143128 l 25.86685,29.930651 -29.93134,-25.867885 c -0.0581,0.2099 -0.10911,0.420273 -0.14382,0.639075 l 28.62077,26.844259 -28.71354,-19.982047 v 0.94154 L 155.89811,47.94967 128.46203,32.84501 v 1.051215 l 26.349,15.935837 -26.349,-11.095007 v 1.116399 l 25.46505,11.964121 -25.46505,-7.705115 v 1.155371 l 24.79321,8.616995 -24.79321,-4.744952 v 1.177443 l 24.34141,5.693735 -24.34141,-2.058973 v 1.189169 l 24.11413,3.031554 -24.11413,0.490429 v 1.192619 l 24.11413,0.490429 -24.11413,3.031554 v 1.189169 l 24.34141,-2.058973 -24.34141,5.693735 v 1.177443 l 24.79321,-4.744952 -24.79321,8.616995 v 1.155371 l 25.46505,-7.705115 -25.46505,11.964121 v 1.116399 l 26.349,-11.095007 -26.349,15.935837 v 1.051215 l 27.43608,-15.10466 -27.43608,20.799085 v 0.94154 l 28.71354,-19.982047 -28.62111,26.844604 c 0.0346,0.218881 0.0852,0.429438 0.14312,0.63942 L 158.62996,73.943438 132.76104,103.8765 c 0.20977,0.058 0.42007,0.1088 0.63873,0.14348 L 160.24541,75.397826 140.26198,104.1131 h 0.94189 l 20.80012,-27.437814 -15.1057,27.437814 h 1.05122 l 15.93687,-26.350731 -11.0957,26.350731 h 1.1164 l 11.96481,-25.466786 -7.7058,25.466786 h 1.15537 l 8.61768,-24.794947 -4.7453,24.794947 h 1.17745 l 5.69408,-24.343145 -2.05898,24.343145 h 1.18883 l 3.0319,-24.115865 0.49043,24.115865 h 1.19262 l 0.49042,-24.115865 3.0319,24.115865 h 1.18883 l -2.05898,-24.343145 5.69408,24.343145 h 1.17745 l -4.7453,-24.794947 8.61769,24.794947 h 1.15537 l -7.70581,-25.466786 11.96481,25.466786 h 1.1164 l -11.0957,-26.350731 15.93688,26.350731 h 1.05121 L 184.62373,76.675286 205.42385,104.1131 h 0.94188 L 186.3823,75.397826 213.22794,104.01998 c 0.21866,-0.0347 0.42896,-0.0855 0.63873,-0.14348 l -25.86892,-29.933062 29.93238,25.868575 c 0.058,-0.209982 0.10852,-0.420539 0.14313,-0.63942 l -28.62112,-26.844604 28.71355,19.982047 v -0.94154 l -27.43609,-20.799085 27.43609,15.10466 v -1.051215 l -26.34901,-15.935837 26.34901,11.095007 v -1.116399 l -25.46506,-11.964121 25.46506,7.705115 V 73.25125 l -24.79322,-8.616995 24.79322,4.744952 v -1.177443 l -24.34142,-5.693735 24.34142,2.058973 v -1.189169 l -24.11414,-3.031554 24.11414,-0.490429 v -1.192619 l -24.11414,-0.490429 24.11414,-3.031554 v -1.189169 l -24.34142,2.058973 24.34142,-5.693735 v -1.177443 l -24.79322,4.744952 24.79322,-8.616995 V 44.11246 l -25.46506,7.705115 25.46506,-11.964121 V 38.737055 L 191.81668,49.832062 218.16569,33.896225 V 32.84501 L 190.7296,47.94967 218.16569,27.150585 v -0.94154 l -28.71355,19.982047 28.62077,-26.844259 c -0.0347,-0.218802 -0.0858,-0.429175 -0.14382,-0.639075 L 187.99775,44.575643 213.8646,14.644992 c -0.20997,-0.05795 -0.42055,-0.108526 -0.63942,-0.143128 L 186.3823,43.121256 206.36332,14.409435 h -0.94189 l -20.7977,27.43436 15.10397,-27.43436 h -1.05156 l -15.93481,26.347277 11.09432,-26.347277 h -1.1164 l -11.96343,25.463332 7.70477,-25.463332 h -1.15537 l -8.61665,24.791493 4.74461,-24.791493 h -1.17745 l -5.69339,24.339691 2.05863,-24.339691 h -1.18917 l -3.03121,24.112411 -0.49042,-24.112411 h -1.19262 l -0.49043,24.112411 -3.03121,-24.112411 h -1.18917 l 2.05863,24.339691 -5.69339,-24.339691 h -1.17745 l 4.74461,24.791493 -8.61665,-24.791493 h -1.15537 l 7.70477,25.463332 -11.96343,-25.463332 h -1.1164 l 11.09432,26.347277 -15.9348,-26.347277 h -1.05156 l 15.10397,27.43436 -20.79771,-27.43436 z"
       transform="matrix(1.4983595,0,0,1.4983595,-191.95313,-21.058763)"
       inkscape:label="pazow3-dark" />
    <path
       id="path2"
       style="display:inline;opacity:0.28;fill:url(#radialGradient12);stroke-width:3.074;stroke-linecap:round;stroke-linejoin:round;stroke-miterlimit:12;paint-order:markers stroke fill"
       d="M 17.095397,12.673671 55.215895,61.12174 12.426505,12.71527 c -0.04999,0.0029 -0.09825,0.01116 -0.147954,0.01501 L 54.847083,61.445951 8.4836557,14.144628 c -0.030061,0.02252 -0.056931,0.04864 -0.086628,0.07162 L 54.495426,61.788602 6.0872406,17.238782 c -0.015679,0.039 -0.022717,0.08203 -0.037739,0.121365 L 54.162209,62.148836 5.5520355,21.831768 v 0.169396 L 53.847433,62.525795 5.5520355,26.499803 v 0.183119 L 53.552813,62.918622 5.5520355,30.820898 v 0.19384 L 53.278778,63.32603 5.5520355,34.852948 v 0.201988 L 53.026185,63.746732 5.5520355,38.643555 v 0.208421 L 52.795464,64.1803 5.5520355,42.232174 v 0.213567 L 52.587043,64.624588 5.5520355,45.652683 v 0.216998 L 52.402208,65.079599 5.5520355,48.932958 V 49.15253 L 52.24096,65.543186 5.5520355,52.097444 V 52.31916 L 52.103728,66.014492 5.5520355,55.16887 v 0.223859 L 51.990941,66.49266 5.5520355,58.166962 v 0.224717 L 51.903026,66.975545 5.5520355,61.109303 v 0.225575 L 51.839985,67.46229 5.5520355,64.012619 v 0.226004 L 51.801818,67.952037 5.5520355,66.893206 V 67.11921 L 51.789381,68.442642 5.5520355,69.766074 v 0.226004 L 51.801818,68.933247 5.5520355,72.646661 v 0.226004 L 51.839985,69.422994 5.5520355,75.550406 v 0.225575 L 51.903026,69.909739 5.5520355,78.493605 v 0.224718 L 51.990941,70.392624 5.5520355,81.492555 v 0.22386 L 52.103728,70.870792 5.5520355,84.566124 V 84.78784 L 52.24096,71.342099 5.5520355,87.732754 v 0.219572 L 52.402208,71.805686 5.5520355,91.015603 v 0.216998 L 52.587043,72.260696 5.5520355,94.439543 v 0.213568 L 52.795464,72.704985 5.5520355,98.033308 v 0.208421 L 53.026185,73.138552 5.5520355,101.83035 v 0.20199 L 53.278778,73.559254 5.5520355,105.87055 v 0.19384 L 53.552813,73.966662 5.5520355,110.20236 v 0.18312 L 53.847433,74.359489 5.5520355,114.88412 v 0.1694 L 54.162209,74.736448 6.0486441,119.526 c 0.01501,0.0393 0.022072,0.0823 0.037739,0.12136 L 54.495426,75.096682 8.3948837,122.67118 c 0.029775,0.0231 0.056915,0.049 0.087057,0.0716 L 54.847083,75.439334 12.275121,124.15886 c 0.04983,0.004 0.09827,0.0117 0.148382,0.0146 L 55.215895,75.763544 17.091966,124.2159 h 0.176687 L 55.601002,76.068028 21.578598,124.2159 h 0.189123 L 56.001119,76.352785 25.748737,124.2159 h 0.198558 L 56.415389,76.616099 29.655134,124.2159 h 0.205419 l 26.98197,-47.35793 -23.50185,47.35793 h 0.210994 L 57.281666,77.077542 36.841377,124.2159 H 37.05666 L 57.73153,77.273955 40.188125,124.2159 h 0.218713 L 58.190829,77.44721 43.407932,124.2159 H 43.62879 L 58.658704,77.59645 46.523529,124.2159 h 0.223002 L 59.133441,77.721675 49.556358,124.2159 h 0.22386 L 59.613754,77.822026 52.524002,124.2159 h 0.225575 L 60.099212,77.897503 55.445329,124.2159 h 0.225576 L 60.587244,77.948108 58.334922,124.2159 h 0.226433 l 2.516493,-46.24249 0.132086,46.24249 h 0.226433 l 0.132086,-46.24249 2.516493,46.24249 h 0.226433 L 62.059058,77.948108 66.975397,124.2159 h 0.225575 L 62.547089,77.897503 69.896725,124.2159 H 70.1223 L 63.032548,77.822026 72.866084,124.2159 h 0.223859 L 63.51286,77.721675 75.89977,124.2159 h 0.223002 L 63.987597,77.59645 79.017511,124.2159 h 0.220858 L 64.455473,77.44721 82.239463,124.2159 h 0.218285 L 64.914771,77.273955 85.589641,124.2159 h 0.215283 L 65.364635,77.077542 89.094634,124.2159 h 0.210994 l -23.50185,-47.35793 26.98197,47.35793 h 0.205419 L 66.230913,76.616099 96.699006,124.2159 h 0.198558 L 66.645182,76.352785 100.87858,124.2159 h 0.18912 L 67.045299,76.068028 105.37765,124.2159 h 0.17668 L 67.430407,75.763544 110.2228,124.17345 c 0.0501,-0.003 0.0985,-0.0107 0.14838,-0.0146 L 67.799218,75.439334 114.16436,122.7428 c 0.0301,-0.0226 0.0573,-0.0486 0.0871,-0.0716 L 68.150875,75.096682 116.55992,119.64736 c 0.0157,-0.039 0.0227,-0.082 0.0377,-0.12136 L 68.484092,74.736448 117.09427,115.05352 v -0.1694 L 68.798868,74.359489 117.09427,110.38548 v -0.18312 L 69.093488,73.966662 117.09427,106.06439 v -0.19384 L 69.367523,73.559254 117.09427,102.03234 v -0.20199 L 69.620116,73.138552 117.09427,98.241729 V 98.033308 L 69.850838,72.704985 117.09427,94.653111 V 94.439543 L 70.059259,72.260696 117.09427,91.232601 V 91.015603 L 70.244093,71.805686 117.09427,87.952326 V 87.732754 L 70.405341,71.342099 117.09427,84.78784 V 84.566124 L 70.542573,70.870792 117.09427,81.716415 v -0.22386 L 70.655361,70.392624 117.09427,78.718323 V 78.493605 L 70.743275,69.909739 117.09427,75.775981 V 75.550406 L 70.806316,69.422994 117.09427,72.872665 V 72.646661 L 70.844484,68.933247 117.09427,69.992078 V 69.766074 L 70.85692,68.442642 117.09427,67.11921 V 66.893206 L 70.844484,67.952037 117.09427,64.238623 V 64.012619 L 70.806316,67.46229 117.09427,61.334878 V 61.109303 L 70.743275,66.975545 117.09427,58.391679 V 58.166962 L 70.655361,66.49266 117.09427,55.392729 V 55.16887 L 70.542573,66.014492 117.09427,52.31916 V 52.097444 L 70.405341,65.543186 117.09427,49.15253 V 48.932958 L 70.244093,65.079599 117.09427,45.869681 V 45.652683 L 70.059259,64.624588 117.09427,42.445741 V 42.232174 L 69.850838,64.1803 117.09427,38.851976 V 38.643555 L 69.620116,63.746732 117.09427,35.054936 V 34.852948 L 69.367523,63.32603 117.09427,31.014738 v -0.19384 L 69.093488,62.918622 117.09427,26.682922 V 26.499803 L 68.798868,62.525795 117.09427,22.001164 V 21.831768 L 68.484092,62.148836 116.5968,17.360147 c -0.015,-0.03934 -0.0221,-0.08237 -0.0377,-0.121365 L 68.150875,61.788602 114.24927,14.216246 c -0.0297,-0.02298 -0.0566,-0.0491 -0.0866,-0.07162 L 67.799218,61.445951 110.36775,12.730279 c -0.0497,-0.0038 -0.098,-0.01215 -0.14795,-0.01501 L 67.430407,61.12174 105.5509,12.673671 h -0.17668 L 67.045299,60.817256 101.0647,12.673671 h -0.18912 L 66.645182,60.5325 96.894562,12.673671 H 96.696433 L 66.230913,60.269185 92.988594,12.673671 H 92.783175 L 65.803778,60.027314 89.303913,12.673671 H 89.09249 L 65.364635,59.807743 85.803209,12.673671 H 85.587926 L 64.914771,59.611329 82.456461,12.673671 H 82.238177 L 64.455473,59.438074 79.237083,12.673671 H 79.015796 L 63.987597,59.288834 76.121486,12.673671 H 75.898484 L 63.51286,59.16361 73.089086,12.673671 h -0.22386 l -9.832678,46.389588 7.088894,-46.389588 h -0.225146 l -7.349207,46.31411 4.653454,-46.31411 H 66.974968 L 62.059058,58.937177 64.31095,12.673671 H 64.084517 L 61.568453,58.911875 61.436367,12.673671 H 61.209934 L 61.077848,58.911875 58.561784,12.673671 h -0.226433 l 2.251893,46.263506 -4.915911,-46.263506 h -0.225575 l 4.653454,46.31411 -7.349206,-46.31411 H 52.524859 L 59.613754,59.063259 49.781075,12.673671 H 49.557216 L 59.133441,59.16361 46.747818,12.673671 H 46.524816 L 58.658704,59.288834 43.630505,12.673671 H 43.409219 L 58.190829,59.438074 40.408554,12.673671 H 40.18984 L 57.73153,59.611329 37.058376,12.673671 H 36.843093 L 57.281666,59.807743 33.553812,12.673671 H 33.342388 L 56.842523,60.027314 29.863126,12.673671 H 29.657707 L 56.415389,60.269185 25.949868,12.673671 H 25.751739 L 56.001119,60.5325 21.770723,12.673671 H 21.5816 L 55.601002,60.817256 17.272084,12.673671 Z"
       transform="matrix(1.2049995,0,0,1.2049995,-6.1610334,-14.740017)"
       inkscape:label="pazow" />
    <path
       id="path3"
       style="display:inline;opacity:0.4;fill:url(#radialGradient14);stroke-width:3.19273;stroke-linecap:round;stroke-linejoin:round;stroke-miterlimit:12;paint-order:markers stroke fill"
       d="m -86.261101,33.604731 32.755672,39.558909 -38.61018,-37.449433 c -0.07786,0.07458 -0.152996,0.14977 -0.227606,0.227606 l 37.449433,38.61018 -39.561136,-32.757453 v 0.527369 L -56.169445,76.045017 -94.454918,49.11223 v 0.668565 l 37.131408,27.85301 -37.131408,-21.982021 v 0.765219 l 36.105622,22.89111 -36.105622,-17.707839 v 0.832922 l 35.213905,18.624499 -35.213905,-13.960579 v 0.87969 l 34.462494,14.895056 -34.462494,-10.619091 v 0.912206 l 33.855841,11.574502 -33.855841,-7.583602 v 0.933586 l 33.397511,8.559056 -33.397511,-4.768146 v 0.947838 l 33.090176,5.760081 -33.090176,-2.097004 v 0.955856 l 32.936063,3.098738 -32.936063,0.502426 v 0.958529 l 32.936063,0.502426 -32.936063,3.098738 v 0.955856 l 33.090176,-2.097004 -33.090176,5.760077 v 0.94784 l 33.397511,-4.768144 -33.397511,8.559054 v 0.93359 l 33.855841,-7.583604 -33.855841,11.574504 v 0.9122 l 34.462494,-10.61909 -34.462494,14.89506 v 0.87969 l 35.213905,-13.96058 -35.213905,18.6245 v 0.83292 l 36.105622,-17.70784 -36.105622,22.89111 v 0.76522 l 37.131408,-21.98202 -37.131408,27.85301 v 0.66856 l 38.285473,-26.93278 -38.285473,33.72311 v 0.52736 l 39.561136,-32.75745 -37.451214,38.61196 c 0.07458,0.0779 0.149327,0.15344 0.22716,0.22805 l 38.612407,-37.45166 -32.75968,39.56337 h 0.527814 l 33.72489,-38.2877 -26.934569,38.2877 h 0.668565 l 27.854792,-37.13364 -21.983358,37.13364 h 0.76522 l 22.892445,-36.10785 -17.708729,36.10785 h 0.832477 l 18.625835,-35.21613 -13.96147,35.21613 h 0.879245 l 14.896392,-34.46472 -10.619537,34.46472 h 0.911761 l 11.575392,-33.85807 -7.584047,33.85807 h 0.933586 l 8.559501,-33.39974 -4.768591,33.39974 h 0.947839 l 5.760526,-33.09241 -2.097004,33.09241 h 0.955856 l 3.098738,-32.93829 0.502871,32.93829 h 0.957638 l 0.502871,-32.93829 3.098739,32.93829 h 0.955856 l -2.097004,-33.09241 5.760526,33.09241 h 0.947839 l -4.768592,-33.39974 8.559501,33.39974 h 0.933586 l -7.584047,-33.85807 11.575393,33.85807 h 0.91176 l -10.619536,-34.46472 14.896392,34.46472 h 0.879245 l -13.96147,-35.21613 18.6258348,35.21613 h 0.8324769 L -24.31039,113.34702 -1.417944,149.45487 h 0.76521952 L -22.636082,112.32123 5.2187095,149.45487 h 0.6685649 l -26.9345684,-38.2877 33.724889,38.2877 h 0.527815 l -32.75968,-39.56337 38.612406,37.45166 c 0.07783,-0.0746 0.152581,-0.15018 0.227161,-0.22805 l -37.451215,-38.61196 39.561136,32.75745 v -0.52736 l -38.285473,-33.72311 38.285473,26.93278 v -0.66856 l -37.131408,-27.85301 37.131408,21.98202 v -0.76522 l -36.105622,-22.89111 36.105622,17.70784 v -0.83292 l -35.213905,-18.6245 35.213905,13.96058 v -0.87969 l -34.462493,-14.89506 34.462493,10.61909 v -0.9122 l -33.855841,-11.574504 33.855841,7.583604 v -0.93359 l -33.397511,-8.559054 33.397511,4.768594 v -0.94829 l -33.090176,-5.760077 33.090176,2.097004 v -0.955856 l -32.936063,-3.098738 32.936063,-0.502426 v -0.958529 l -32.936063,-0.502426 32.936063,-3.098738 v -0.955856 l -33.090176,2.097004 33.090176,-5.760081 v -0.948284 l -33.397511,4.768592 33.397511,-8.559056 V 77.155877 L -12.460623,84.739479 21.395218,73.164977 V 72.252771 L -13.067275,82.871862 21.395218,67.976806 v -0.87969 L -13.818687,81.057695 21.395218,62.433196 V 61.600274 L -14.710404,79.308113 21.395218,56.417003 V 55.651784 L -15.73619,77.633805 21.395218,49.780795 V 49.11223 L -16.890255,76.045017 21.395218,42.321909 V 41.79454 l -39.561136,32.757453 37.449433,-38.61018 c -0.07461,-0.07784 -0.149744,-0.153023 -0.227606,-0.227606 L -19.55427,73.16364 13.201401,33.604731 H 12.674032 L -21.047294,71.887978 5.8841565,33.604731 H 5.2155916 L -22.636082,70.733913 -0.65539696,33.604731 H -1.4210619 L -24.31039,69.708127 -6.603442,33.604731 H -7.4363643 L -26.059972,68.81641 -12.100284,33.604731 h -0.87969 l -14.894165,34.460267 10.6182,-34.460267 h -0.91176 L -29.741756,67.458346 -22.1586,33.604731 h -0.933585 l -8.558611,33.395285 4.768146,-33.395285 h -0.948284 l -5.759635,33.08795 2.096558,-33.08795 h -0.955856 l -3.098293,32.933837 -0.502425,-32.933837 h -0.958529 l -0.502426,32.933837 -3.098293,-32.933837 h -0.955856 l 2.096559,33.08795 -5.759635,-33.08795 h -0.948285 l 4.768146,33.395285 -8.55861,-33.395285 H -50.9011 L -43.317944,67.458346 -54.892,33.604731 h -0.91176 l 10.6182,34.460267 -14.894165,-34.460267 h -0.879691 L -46.999727,68.81641 -65.623335,33.604731 h -0.832922 L -48.74931,69.708127 -71.638638,33.604731 h -0.765665 l 21.980686,37.129182 -27.851674,-37.129182 h -0.668565 l 26.931451,38.283247 -33.721327,-38.283247 z"
       transform="matrix(1.1601914,0,0,1.1601914,110.11495,-38.456171)"
       inkscape:label="pazow2" />
    <path
       d="M 61.320919,36.748545 V 64.09108 H 73.99185 q 4.360441,0 6.361115,-1.898075 2.051972,-1.949374 2.718863,-7.643598 h 1.898075 v 23.546386 h -1.898075 q -0.0513,-4.052646 -1.077285,-5.95072 Q 81.019856,70.246998 79.22438,69.32361 77.480203,68.348923 73.99185,68.348923 H 61.320919 v 21.853508 q 0,5.28383 0.666891,6.976707 0.512993,1.282483 2.154571,2.205871 2.25717,1.231181 4.719537,1.231181 h 2.513667 v 1.89808 H 41.519383 v -1.89808 h 2.462367 q 4.309143,0 6.258517,-2.513664 1.231183,-1.641578 1.231183,-7.900095 v -44.9382 q 0,-5.283829 -0.666891,-6.976706 -0.512993,-1.282483 -2.103272,-2.205871 -2.20587,-1.231183 -4.719537,-1.231183 h -2.462367 v -1.898075 h 51.761009 l 0.666891,15.287196 h -1.795476 q -1.333782,-4.873435 -3.129258,-7.130605 -1.744177,-2.308469 -4.360442,-3.334455 -2.564966,-1.025987 -8.002693,-1.025987 z"
       id="text2"
       style="font-size:105.061px;line-height:1.25;font-family:'Times New Roman';-inkscape-font-specification:'Times New Roman, @opsz=32';font-variation-settings:'opsz' 32;text-align:center;text-orientation:upright;text-anchor:middle;display:inline;fill:url(#linearGradient8);stroke:url(#linearGradient6);stroke-width:0.264583;stroke-dasharray:none;stroke-opacity:1;paint-order:markers stroke fill"
       aria-label="F"
       inkscape:label="Base F" />
    <path
       id="path8"
       style="font-size:105.061px;line-height:1.25;font-family:'Times New Roman';-inkscape-font-specification:'Times New Roman, @opsz=32';font-variation-settings:'opsz' 32;text-align:center;text-orientation:upright;text-anchor:middle;display:inline;mix-blend-mode:normal;fill:url(#linearGradient9);stroke:none;stroke-width:0.264583;stroke-dasharray:none;stroke-opacity:1;paint-order:markers stroke fill;filter:url(#filter11)"
       d="m 46.502495,34.089952 c 2.33155,0.544565 4.79454,1.93395 5.5039,4.376953 0.85084,4.311063 0.42461,8.734345 0.53523,13.098437 -0.0124,13.493338 0.0351,26.987833 -0.0356,40.480434 -0.14856,2.289181 -0.12559,4.798384 -1.47375,6.763757 -1.10451,1.455767 -2.84163,2.302657 -4.60598,2.647627 6.76556,-0.001 13.59408,0.003 20.32031,-0.002 -2.10712,-0.45526 -4.31997,-1.44576 -5.4668,-3.361342 -0.96522,-1.902312 -0.85969,-4.115993 -0.96791,-6.190546 -0.0919,-6.965515 -0.009,-13.93241 -0.0379,-20.898517 0,-1.237239 0,-2.474479 0,-3.711718 5.27026,0.04242 10.54566,-0.09604 15.81251,0.08887 2.65081,0.202549 5.35244,1.49429 6.65591,3.904744 0.6544,1.12741 1.00086,2.406445 1.18002,3.689981 0,-6.271484 0,-12.542968 0,-18.814453 -0.47033,2.719732 -1.21443,5.759231 -3.61719,7.429688 -2.73126,1.84346 -6.17328,1.545663 -9.30547,1.560547 -3.57526,0 -7.15052,0 -10.72578,0 0,-9.820313 0,-19.640625 0,-29.460938 6.41907,0.04064 12.84134,-0.08948 19.25821,0.08482 3.1987,0.14986 6.59391,0.868365 8.96836,3.172997 2.24891,2.027308 3.53138,5.147556 4.33593,7.818359 -0.18801,-4.25124 -0.3735,-8.502614 -0.56054,-12.753906 -15.38021,0 -30.76042,0 -46.14063,0 0.1224,0.02539 0.24479,0.05078 0.36719,0.07617 z"
       inkscape:label="light" />
    <path
       id="path43"
       d="m 13.752649,4.1351481 c 0.515926,0.1467879 1.044137,0.2666911 1.570963,0.3927408 3.706046,-9.8028243 2.142773,-11.2787583 -1.570963,-0.3927408 z m -25.36641,-2.1213176 c 1.109802,0.00578 2.2002534,-0.054285 3.2597491,-0.1829345 3.4098221,-1.87508856 1.5033837,-2.24398002 -3.2597491,0.1829345 z m -12.064897,2.2412069 c -3.532375,5.8282246 -10.819131,10.3286816 -17.534847,12.1413776 -2.220574,2.180361 -1.232365,6.109279 -0.333313,6.309692 -0.234291,-1.200369 0.438369,-2.892467 2.475818,-5.154207 4.790282,-3.453768 10.364947,-5.532934 15.742708,-7.860502 5.775189,7.660026 -2.717021,13.337394 -9.956498,14.862142 1.239684,0.280784 2.48524,0.520778 3.725871,0.794266 0.849451,-0.534754 1.636398,-1.164764 2.274797,-1.958536 5.441321,-0.290853 7.367495,1.543635 7.127213,4.017842 0.59937,0.132701 1.216005,0.235835 1.848983,0.315227 -0.480248,-0.649069 -1.032686,-2.186333 -1.755965,-5.011581 1.827592,-6.44782 8.712585,-9.787691 14.7562047,-12.555306 C -5.8996075,9.8390576 -6.505961,9.5732732 -7.1055094,9.2836709 -14.322518,13.914471 -25.985168,22.011774 -19.356441,8.6609699 c 1.07718,-0.9439063 2.316698,-1.8165455 3.641121,-2.6546182 -0.901558,-0.2574286 -1.811422,-0.4837259 -2.723864,-0.7002157 -0.387449,0.1837569 -0.867151,0.4104242 -1.235584,0.5896281 -0.240038,-0.3472269 -0.455197,-0.6926728 -0.656291,-1.0366292 -1.108718,-0.229374 -2.226056,-0.4254219 -3.347599,-0.6040975 z m 37.020996,1.2908772 c -0.04673,0.1913017 -0.101619,0.3753631 -0.142627,0.5720581 0.640257,6.4825413 3.940915,13.6818613 4.631242,20.2483763 0.794302,0.0058 1.587709,0.0173 2.382283,0.03101 C 19.756923,20.281179 16.402207,13.772372 14.414107,8.2713297 14.501696,7.4446423 14.645019,6.6643094 14.838371,5.9257364 14.320705,5.7597897 13.820929,5.6272422 13.342338,5.5459146 Z M -1.3492716,6.9447957 C -1.9947058,6.939323 -2.7096138,7.022163 -3.4793741,7.1814737 0.01721077,8.9625071 0.53083734,8.3373154 -0.60771484,7.001123 -0.84859598,6.9746649 -1.0886985,6.9470051 -1.3492716,6.9447957 Z M -8.5943073,17.455265 c -5.7487277,-0.345962 -7.2337017,8.784152 -8.7364177,10.376111 2.102204,0.169437 4.307006,0.05429 6.420797,-0.343648 -3.800901,-1.390491 -4.483253,-7.62698 2.9827634,-8.862509 2.7796465,2.30845 5.2283423,2.764838 7.19129221,2.160075 0.32797096,-0.821408 0.50235659,-1.716683 0.52244873,-2.680973 C -2.5937487,19.582287 -5.83335,19.90295 -8.5943073,17.455265 Z m -26.6066447,9.464539 c -0.461131,-0.04847 -0.983411,-0.05395 -1.560628,0.0041 0.177146,0.09771 0.289554,0.134568 0.453719,0.219624 0.576115,0.0064 1.153098,-0.02354 1.735811,-0.09095 -0.20803,-0.04613 -0.385863,-0.107262 -0.628902,-0.132808 z m 55.367679,2.49132 c -0.739011,0.0053 -1.478047,0.0044 -2.216918,0.02119 -0.11406,2.600041 -0.810639,5.056999 -2.468067,7.273974 0.07836,0.383268 0.14488,0.762859 0.252698,1.154452 2.80795,-2.527898 4.107918,-5.402643 4.432287,-8.449614 z M 4.4813802,29.817301 c -0.4458519,0.0979 -0.8352474,0.217291 -1.2247315,0.33693 1.4215862,3.336181 0.1845484,7.944775 -3.55430495,8.589657 0.28327349,0.533325 0.60619543,1.067996 0.97926838,1.609204 4.87243577,1.222885 9.10757627,3.173464 6.99285477,7.095174 0.2708336,0.209115 0.5409242,0.417542 0.8139038,0.61805 2.8161503,-1.586778 5.9627583,-2.395123 9.1043533,-2.154907 -1.049386,-2.127125 -2.673064,-4.507535 -4.30413,-6.895703 -0.949483,0.804417 -2.057824,1.569057 -3.3718868,2.282031 -6.1046524,0.844815 -4.237072,-6.421642 -5.435327,-11.480436 z m -16.8113772,0.06666 c -0.196536,0.28872 -0.220769,0.636893 -0.03876,1.038696 -0.04799,-0.362649 -0.03552,-0.709898 0.03876,-1.038696 z m -8.134903,0.551904 c -0.333426,0.0061 -0.643024,0.09746 -0.954464,0.180867 -0.658837,1.022432 -1.559232,2.043451 -2.598808,3.001368 0.231676,0.170408 0.380932,0.322562 0.641305,0.498677 0.663563,-0.260368 1.463086,-0.526019 2.415873,-0.794783 l 2.386934,-1.140499 c 1.693372,2.413275 1.20082,3.905001 -0.103869,4.744413 1.9963,1.114684 3.799363,2.084001 4.434871,2.557467 0.307587,0.176596 0.529006,0.269793 0.806669,0.417028 0.390015,-0.568972 0.876295,-1.101595 1.482597,-1.581298 l 2.0996132,-0.05271 0.142627,0.02532 c -0.3126542,-0.530583 -0.7262292,-1.093107 -1.1916582,-1.677417 -1.101437,1.880751 -8.152443,-1.197359 -5.355229,-4.782137 -1.430128,-0.855745 -2.891767,-1.42022 -4.206461,-1.396296 z m -11.03912,11.668021 c 1.157336,0.190339 2.305581,0.362499 3.457153,0.548287 0.474069,-1.162545 1.393932,-2.283027 2.858741,-3.338297 -0.339783,-0.112416 -0.403836,-0.475104 0.746724,-1.079521 0.255166,0.3448 0.249059,0.591084 0.149862,0.775663 1.354838,-0.153465 2.715814,-0.08602 4.069002,0.05736 -0.764999,-0.5102 -1.519135,-0.936215 -2.277897,-1.294494 -2.154929,-0.06508 -4.066519,-0.817422 -3.527433,-1.915129 -0.162573,-0.09334 -0.320703,-0.204445 -0.484208,-0.294039 -3.863579,2.557435 -8.753222,3.890359 -12.557373,1.601453 -3.959031,-1.846235 2.535533,-2.182213 7.565429,4.938717 z m 7.21248,-3.093868 c -0.190318,0.02156 -0.381176,0.02993 -0.571025,0.05994 -0.118697,0.08007 -0.213329,0.163059 -0.325561,0.243913 0.284714,0.0942 0.732193,0.002 0.896586,-0.303858 z m 5.454447,1.052133 c 0.738707,1.537623 1.726186,3.174046 2.806547,4.859135 1.784056,-0.319026 -0.102413,-2.743082 -2.806547,-4.859135 z m -12.986287,18.34565 c 4.84514,3.063442 8.110853,7.31349 8.949841,11.511442 0.683573,-0.379453 1.361535,-0.789403 2.021065,-1.254704 -6.427274,-8.734391 -21.544041,-14.610387 -10.970906,-10.256738 z m 50.620165,-13.81156 c 0.356926,0.57324 0.726538,1.139126 1.122412,1.692403 0.674459,0.16798 1.343376,0.391924 2.005563,0.667143 -1.124678,-0.760576 -2.181875,-1.540995 -3.127975,-2.359546 z m 3.127975,2.359546 c 1.326555,0.897098 1.453953,0.604293 0,0 z m -52.209733,-2.136304 c 0.194729,0.803342 0.299525,1.675147 0.276469,2.642733 1.944985,4.296322 10.93174,10.037433 15.250749,14.957226 0.347621,-0.523452 0.665101,-1.053561 0.952396,-1.592668 -6.172601,-4.266342 -14.183935,-10.198233 -14.625463,-15.680696 -0.61566,-0.118961 -1.234952,-0.22237 -1.854151,-0.326595 z M 2.778125,52.944571 C 1.8169118,54.140191 0.98526442,55.455707 0.30540771,56.864229 1.6270684,56.278556 2.8283356,55.174712 3.7987345,53.418961 3.4664426,53.243741 3.1169822,53.112104 2.778125,52.944571 Z m -2.47271729,3.919658 c -3.08429721,1.366757 -6.81239801,-0.101862 -9.77666411,-2.800863 -0.1367143,0.299275 -0.2613839,0.603552 -0.3958415,0.903821 1.7366069,3.472697 2.6294044,6.782388 1.3017294,9.522933 -1.0313564,-0.771794 -2.4886815,-1.768741 -4.0726195,-2.854606 -0.423622,1.322061 -0.531413,2.352736 -0.404627,3.162597 0.227012,0.426735 0.383563,0.840778 0.486276,1.244885 0.911202,1.219517 2.9011764,1.40028 5.2906327,1.131198 -0.054337,-1.697736 0.7373969,-3.303669 3.0489095,-4.814694 0.8193504,1.214537 1.7592166,2.431255 2.7507364,3.653007 0.75544018,-0.19173 1.46628900773,-0.35719 2.19573161,-0.546736 -0.78718299,-1.121576 -1.52477899,-2.234141 -2.12700191,-3.328479 0.3134514,-1.861188 0.90803877,-3.626612 1.70273841,-5.273063 z m -42.43823571,-1.262456 -0.110071,0.09715 z M 2.5486816,67.91265 C 1.8315499,68.038765 1.1138609,68.1473 0.39584147,68.221675 7.6712664,76.714358 8.9957393,76.307109 2.5486816,67.91265 Z m -9.5792601,0.690397 c -0.5335658,0.1332 -1.0551365,0.290125 -1.5564941,0.492476 4.9107555,5.156 8.51701269,22.425597 4.5656127,17.754472 -1.2486477,-3.272492 -4.4389914,-5.722005 -6.9975061,-7.975741 0.0037,0.333388 -0.03308,0.554771 -0.102319,0.641822 5.1614788,5.443624 8.913937,9.011156 10.30273032,4.720642 C 0.13009568,78.389113 -5.7742462,73.178716 -7.0305785,68.603047 Z m -4.0907065,10.913029 c -0.115981,-0.122321 -0.241266,-0.23528 -0.360701,-0.354501 0.0042,0.284241 0.216847,0.535355 0.360701,0.354501 z m -0.360701,-0.354501 c -0.0025,-0.167799 0.08455,-0.331101 0.300756,-0.437182 -1.796974,-1.596388 -3.262166,-3.107326 -3.360518,-4.729427 -0.452197,0.653017 -0.852926,1.342014 -1.206128,2.061889 1.572776,0.77674 3.007618,1.848714 4.26589,3.10472 z m 0.300756,-0.437182 c 0.05668,0.05035 0.104875,0.09931 0.162264,0.149861 -8.8e-4,-0.08002 0.0091,-0.130462 0.0016,-0.227893 -0.07261,0.01617 -0.109787,0.05152 -0.163815,0.07803 z M -19.216915,73.0312 c -1.218698,0.248657 -2.425924,0.564217 -3.636987,0.857312 -0.302002,1.473068 -0.978258,2.879399 -2.056722,4.172355 1.016807,-0.574745 2.17175,-1.049296 3.471106,-1.391646 l 1.531173,-0.796334 0.962215,-0.529683 C -18.98405,74.60587 -19.060294,73.84298 -19.216915,73.0312 Z m -5.693709,5.029667 c -1.377084,0.77839 -2.498632,1.741414 -3.370337,2.815332 1.394591,-0.844486 2.514583,-1.78938 3.370337,-2.815332 z m -3.370337,2.815332 c -0.828662,0.501792 -1.743674,0.969324 -2.775024,1.390096 0.460441,0.343652 0.920095,0.643186 1.380277,0.898137 0.362584,-0.794968 0.811286,-1.569423 1.394747,-2.288233 z m -3.997689,3.016354 c -4.613717,10.358602 0.407505,7.19528 2.009697,0.963765 -0.650733,-0.349086 -1.336062,-0.647823 -2.009697,-0.963765 z m 46.085042,1.154451 c 1.814759,1.35576 -2.351041,0.327658 0,0 z"
       sodipodi:nodetypes="ccccccccccccccccccccccccccccccccsccscccccccscccsccccccccccccccccccscccccccccccccsccccccccccccccccccccccccccccccccccccccccccccccccccccccccccccccccccccccccccccccccccccccccccccccc"
       clip-path="url(#clipPath45)"
       transform="translate(73.991006,26.211856)"
       style="display:inline;opacity:0.48;fill:#3b596a;fill-opacity:1;filter:url(#filter46)"
       inkscape:label="dmarb" />
    <path
       id="path48"
       d="m -200.10148,-90.353657 c -14.721,-3.308768 -25.90014,18.637459 -6.75552,20.362707 16.34048,1.117272 10.36609,20.285352 16.0807,30.981761 2.08597,19.060266 -19.63775,0.302497 -22.91407,-8.504719 -13.30906,-18.461939 -30.15286,2.505134 -31.58157,17.854938 -8.28076,6.043277 -25.61606,0.4645 -30.5149,11.573865 5.06075,14.7977949 21.87455,23.2504153 34.45664,31.656476 13.58309,8.703305 30.54317,16.067121 37.28615,31.71287 5.809,15.234524 11.04562,33.389256 2.71942,48.616205 2.3757,15.226244 15.15386,-8.611389 19.9928,-13.612634 12.29285,-16.304847 19.36275,-36.945373 15.65535,-57.410367 0.59958,-8.944891 -9.00839,-24.0149956 -6.68732,-28.0837385 16.81231,15.9946165 29.20393,36.3331175 48.03514,50.2985055 13.38337,11.204997 24.837516,24.465123 36.997301,36.867446 4.218732,-2.11275 -11.647216,-14.131391 -16.541791,-20.044004 -12.05916,-15.259337 -30.09318,-24.942599 -41.7451,-40.669703 16.95614,14.606049 40.65933,20.894008 62.453474,14.820331 C -69.778314,35.847665 -59.522684,18.85354 -69.573221,8.4574115 -81.671979,-4.2384349 -101.05316,0.43474848 -116.59941,-2.414973 c -12.89635,-2.0001948 -48.43127,0.1782743 -32.59522,-20.396001 11.46504,-5.753695 26.34015,-1.486897 39.27054,-3.822184 -10.3263,-6.548915 -30.43548,5.44954 -36.61469,-4.342921 12.19827,-7.881655 40.99613,-5.680767 42.10402,-22.728334 -12.36101,-4.896843 -26.4731,-4.12006 -39.58055,-6.731072 -9.39186,-0.989801 -18.33203,-1.237726 -18.1042,-5.619501 -8.71841,2.486131 -18.61793,-13.54722 -29.66259,-8.314305 -4.85654,14.066482 -35.06973,-4.813372 -17.81352,-11.699867 1.86524,-3.484846 9.71119,0.476994 9.49414,-4.284499 z m 10.70116,17.122986 c 9.27832,-0.320154 31.74489,13.478684 11.98074,8.365383 -4.46623,-0.307233 -24.51552,-2.684513 -11.98074,-8.365383 z m -3.95532,7.711157 c 6.40716,1.905774 31.97896,3.254286 12.52778,6.83554 -16.18153,2.114521 -5.63589,15.073279 3.7673,17.939687 14.19703,13.820284 -16.86188,11.833183 -13.10372,-2.721721 -0.6876,-7.48058 -3.94053,-14.449266 -3.19136,-22.053506 z m 27.2154,4.373893 c 9.68317,3.23884 24.65034,21.893138 12.18519,28.223285 -15.90453,5.193879 -23.75507,-11.805869 -33.84299,-19.275508 4.49933,-6.637065 15.10891,-4.672029 21.6578,-8.947777 z m 6.21822,0.860413 c 18.50691,2.365999 37.10718,4.219142 55.42195,7.869287 -9.1871,11.769421 -28.84477,16.318803 -41.21007,15.452179 -2.97041,-8.95845 -5.71082,-17.953756 -14.21188,-23.321466 z m -67.57417,6.933426 c 10.91575,1.86172 17.97976,13.681925 22.50157,21.985007 -11.33338,-1.594266 -29.52178,6.591195 -36.87862,-0.445724 1.64633,-8.640266 5.94415,-17.735175 14.37705,-21.539283 z m 79.09595,21.172351 c -1.60561,12.868504 -31.78586,0.989701 -9.74948,1.37833 3.44191,0.526572 6.51621,-0.55327 9.74948,-1.37833 z m -22.0152,2.062407 c 5.48905,12.739963 -25.08501,3.341009 -8.80028,0.179838 2.92354,0.178815 5.91203,0.565112 8.80028,-0.179838 z m -16.79174,0.591695 c 9.74226,9.015724 -3.74324,14.391273 -7.96533,3.581029 -6.07381,-6.17645 5.19745,-2.562778 7.96533,-3.581029 z m -14.00172,0.449068 c 13.46372,7.203346 11.06999,18.057713 -2.78561,20.2474696 -9.45964,4.9060079 -19.6287,28.7614864 -29.55706,18.1874267 -3.39267,-10.10094161 -17.55282,-31.6224043 -3.94844,-36.0667913 12.05598,-1.306712 24.16858,-2.07676 36.29111,-2.368105 z m -43.58804,3.193603 c -1.13129,14.441386 4.72065,35.1917927 16.77052,41.935625 11.82692,-6.864655 18.16373,-20.8435398 31.14011,-25.8983033 7.89457,11.6267914 10.99762,29.1462123 2.5073,42.7711373 4.26231,13.891104 1.62019,-8.430765 6.84366,-12.028524 6.00557,-11.103502 -16.72752,-37.628452 7.37671,-31.266148 7.53731,8.0131201 9.46313,21.16198 12.17083,32.06363 4.12302,21.005618 -3.09296,42.42338 -16.22075,58.907152 -3.76775,6.887091 -20.61192,25.866479 -12.50486,8.121097 5.21058,-15.620548 -1.19461,-32.391447 -6.31428,-47.262666 -7.54136,-11.695598 -20.18007,-19.140443 -31.67368,-26.55462 -13.84694,-7.6409575 -27.74016,-16.2403225 -37.57131,-28.746702 -4.9289,-13.016066 20.61821,-9.396851 27.47575,-12.041678 z m 88.33414,0.669727 c 11.04685,-3.947701 -0.78471,22.5718139 -4.62543,10.28129 -7.15372,-6.95418 -4.68097,-11.659578 4.62543,-10.28129 z m -11.9295,1.538407 c 0.40804,8.753443 19.27894,18.0791646 3.01506,13.6963598 -13.61515,1.2797454 -21.16787,-13.8785878 -3.01506,-13.6963598 z m -13.5568,4.694287 c 7.46799,7.020678 -6.92068,3.504479 0,0 z m -5.41155,2.825668 c 10.83984,4.029424 -11.47172,4.498892 0,0 z m -1.46968,0.504362 -0.27864,0.02416 z m 13.91026,6.0621619 c 10.46762,0.3912378 20.4646,3.6544121 18.5015,15.6586056 4.2128,10.8676355 -8.32799,-8.8048959 -11.54973,-10.0497187 -2.15626,-2.0569932 -4.45788,-3.9717951 -6.95177,-5.6088869 z m 19.57813,3.6075317 c 6.19645,0.069577 16.87919,15.8234876 17.96601,10.32395 -5.3482,-4.74696097 -16.46419,-11.6087485 -2.93688,-7.4851842 19.98614,3.77330446 40.708491,2.7089164 60.521691,6.9715926 11.12096,3.1019121 17.712425,20.029663 5.631732,26.383923 -19.513922,9.714303 -44.318973,7.425861 -62.206703,-4.938444 -11.33752,-6.181969 -21.58536,-17.2839957 -18.97585,-31.2558374 z m -44.29083,97.0354194 0.5923,0.271572 z m 0.71675,0.408244 0.15801,0.296747 z"
       style="display:inline;mix-blend-mode:normal;fill:#ffffff;filter:url(#filter51)"
       clip-path="url(#clipPath51)"
       transform="translate(245.56403,79.838712)"
       inkscape:label="lmarb" />
  </g>
</svg>
