<?xml version="1.0" encoding="UTF-8" standalone="no"?>
<!-- Created with Inkscape (http://www.inkscape.org/) -->

<svg
   width="512"
   height="512"
   viewBox="0 0 135.46666 135.46667"
   version="1.1"
   id="svg5"
   inkscape:version="1.4.2 (ebf0e940d0, 2025-05-08)"
   sodipodi:docname="fooyin.svg"
   xmlns:inkscape="http://www.inkscape.org/namespaces/inkscape"
   xmlns:sodipodi="http://sodipodi.sourceforge.net/DTD/sodipodi-0.dtd"
   xmlns:xlink="http://www.w3.org/1999/xlink"
   xmlns="http://www.w3.org/2000/svg"
   xmlns:svg="http://www.w3.org/2000/svg">
  <sodipodi:namedview
     id="namedview7"
     pagecolor="#242424"
     bordercolor="#666666"
     borderopacity="1"
     inkscape:showpageshadow="0"
     inkscape:pageopacity="0"
     inkscape:pagecheckerboard="1"
     inkscape:deskcolor="#000000"
     inkscape:document-units="px"
     showgrid="false"
     inkscape:zoom="1.3037282"
     inkscape:cx="349.76617"
     inkscape:cy="172.96551"
     inkscape:window-width="3233"
     inkscape:window-height="1080"
     inkscape:window-x="1856"
     inkscape:window-y="0"
     inkscape:window-maximized="0"
     inkscape:current-layer="layer1" />
  <defs
     id="defs2">
    <linearGradient
       id="linearGradient47"
       inkscape:collect="always">
      <stop
         style="stop-color:#ff0000;stop-opacity:0;"
         offset="0"
         id="stop48" />
      <stop
         style="stop-color:#ff0000;stop-opacity:1;"
         offset="1"
         id="stop47" />
    </linearGradient>
    <linearGradient
       id="linearGradient44"
       inkscape:collect="always">
      <stop
         style="stop-color:#ff0000;stop-opacity:0;"
         offset="0"
         id="stop45" />
      <stop
         style="stop-color:#ff0000;stop-opacity:1;"
         offset="1"
         id="stop44" />
    </linearGradient>
    <linearGradient
       id="linearGradient32"
       inkscape:collect="always">
      <stop
         style="stop-color:#637425;stop-opacity:1;"
         offset="0"
         id="stop32" />
      <stop
         style="stop-color:#000000;stop-opacity:0;"
         offset="1"
         id="stop33" />
    </linearGradient>
    <linearGradient
       id="linearGradient29"
       inkscape:collect="always">
      <stop
         style="stop-color:#ffffff;stop-opacity:1"
         offset="0"
         id="stop29" />
      <stop
         style="stop-color:#ffffff;stop-opacity:1;"
         offset="1"
         id="stop30" />
    </linearGradient>
    <inkscape:path-effect
       effect="powerstroke"
       message=""
       id="path-effect28"
       is_visible="true"
       lpeversion="1.3"
       scale_width="1"
       interpolator_type="CubicBezierJohan"
       interpolator_beta="0"
       start_linecap_type="round"
       end_linecap_type="zerowidth"
       offset_points="0,4.8234841"
       linejoin_type="extrp_arc"
       miter_limit="4"
       not_jump="false"
       sort_points="true" />
    <linearGradient
       id="linearGradient14"
       inkscape:collect="always">
      <stop
         style="stop-color:#005522;stop-opacity:0;"
         offset="0"
         id="stop15" />
      <stop
         style="stop-color:#9ab332;stop-opacity:1;"
         offset="0.5"
         id="stop13" />
      <stop
         style="stop-color:#005522;stop-opacity:0;"
         offset="1"
         id="stop14" />
    </linearGradient>
    <linearGradient
       id="linearGradient1"
       inkscape:collect="always">
      <stop
         style="stop-color:#677821;stop-opacity:1"
         offset="0"
         id="stop6" />
      <stop
         style="stop-color:#005522;stop-opacity:1;"
         offset="1"
         id="stop5" />
    </linearGradient>
    <linearGradient
       id="c"
       gradientUnits="userSpaceOnUse"
       x1="24.072048"
       x2="23.959682"
       y1="0.75082099"
       y2="46.056854"
       gradientTransform="matrix(2.9167874,0,0,2.9167874,-2.2695481,-2.3389841)">
      <stop
         offset="0"
         stop-color="#fff"
         id="stop3" />
      <stop
         offset="1"
         stop-color="#d9d9d9"
         id="stop4" />
    </linearGradient>
    <linearGradient
       id="b"
       gradientUnits="userSpaceOnUse"
       x1="29.203026"
       x2="34.121048"
       xlink:href="#a"
       y1="24.827356"
       y2="29.224836"
       gradientTransform="matrix(3.5409521,0,0,3.5409521,-17.249507,-17.227636)" />
    <linearGradient
       id="a">
      <stop
         offset="0"
         id="stop1" />
      <stop
         offset="1"
         stop-opacity="0"
         id="stop2" />
    </linearGradient>
    <linearGradient
       id="d"
       gradientUnits="userSpaceOnUse"
       x1="15.948756"
       x2="25.031786"
       xlink:href="#a"
       y1="23.618279"
       y2="33.69899"
       gradientTransform="matrix(3.5409521,0,0,3.5409521,-17.249507,-17.227636)" />
    <linearGradient
       id="e"
       gradientUnits="userSpaceOnUse"
       x1="21.990562"
       x2="29.320522"
       xlink:href="#a"
       y1="33.780373"
       y2="41.931858"
       gradientTransform="matrix(3.5409521,0,0,3.5409521,-17.249507,-17.227636)" />
    <radialGradient
       inkscape:collect="always"
       xlink:href="#linearGradient1"
       id="radialGradient6"
       cx="67.733353"
       cy="56.262108"
       fx="67.733353"
       fy="56.262108"
       r="62.287938"
       gradientTransform="matrix(1.0521457,0,0,0.88736244,-3.532017,5.4239286)"
       gradientUnits="userSpaceOnUse" />
    <clipPath
       clipPathUnits="userSpaceOnUse"
       id="clipPath11">
      <path
         style="baseline-shift:baseline;display:inline;overflow:visible;vector-effect:none;fill:#803300;stroke-width:0.999998;enable-background:accumulate;stop-color:#000000"
         d="m 191.4932,126.49599 c -0.47903,-0.78689 -1.29404,-2.84812 -1.81117,-4.58052 -0.55886,-1.87237 -1.83262,-3.58558 -5.89503,-5.56922 -4.0624,-1.98365 -6.8316,-7.45593 -3.21522,-9.55452 3.61638,-2.09859 -8.38351,-22.772423 -18.81916,-32.159713 -10.43565,-9.387289 -11.25901,-8.879347 -5.52074,-9.352277 5.73827,-0.472932 1.54111,-10.575853 -6.77266,-20.142181 -8.31378,-9.566333 -8.92153,-10.875169 -7.87268,-10.413346 1.04884,0.461819 2.72832,1.213657 8.89192,4.020304 6.16358,2.806649 6.09164,5.629227 19.41117,-12.909139 13.31952,-18.5383661 13.32348,-17.6786409 12.61382,-6.894164 -0.70966,10.78448 1.0083,16.784103 5.36884,17.569235 4.36054,0.785127 5.71851,0.668073 10.41513,-21.499467 4.69662,-22.1675383 5.70256,-22.1675383 10.39917,0 4.69661,22.16754 6.0546,22.284594 10.41514,21.499467 4.36054,-0.785132 6.07849,-6.784755 5.36884,-17.569235 -0.70965,-10.7844769 -0.70571,-11.6442021 12.61382,6.894164 13.31954,18.538366 13.24759,15.715788 19.41118,12.909139 6.16358,-2.806647 7.84306,-3.558485 8.89191,-4.020304 1.04883,-0.461823 0.44109,0.847013 -7.87268,10.413346 -8.31378,9.566328 -12.51093,19.669249 -6.77266,20.142181 5.73827,0.47293 4.91494,-0.035 -5.52071,9.352277 -10.43566,9.38729 -22.45864,30.047743 -18.81919,32.159713 3.63945,2.11197 1.1192,7.43807 -3.35158,9.6211 -4.47078,2.18301 -5.34491,3.58353 -5.97462,6.30783 -1.10753,4.79167 -3.12682,5.62504 -4.54576,1.87602 -1.23569,-3.26481 -1.33953,-3.2951 -5.77825,-1.68649 -2.61616,0.94808 -3.95013,0.93495 -6.7124,-0.0661 -3.98979,-1.44589 -3.80944,-1.51269 -5.99816,2.22119 -1.14331,1.95044 -1.95459,2.40595 -2.54827,1.43072 z"
         id="path12"
         clip-path="none" />
    </clipPath>
    <filter
       inkscape:collect="always"
       style="color-interpolation-filters:sRGB"
       id="filter12"
       x="-0.031137757"
       y="-0.030191021"
       width="1.0622755"
       height="1.060382">
      <feGaussianBlur
         inkscape:collect="always"
         stdDeviation="1.6576179"
         id="feGaussianBlur12" />
    </filter>
    <linearGradient
       inkscape:collect="always"
       xlink:href="#linearGradient14"
       id="linearGradient13"
       x1="-88.717651"
       y1="66.10714"
       x2="39.352676"
       y2="66.10714"
       gradientUnits="userSpaceOnUse"
       gradientTransform="matrix(1.0234375,0,0,1.0234375,92.994318,0.07683361)" />
    <linearGradient
       inkscape:collect="always"
       xlink:href="#linearGradient29"
       id="linearGradient30"
       x1="74.071968"
       y1="75.880775"
       x2="90.986525"
       y2="64.211516"
       gradientUnits="userSpaceOnUse" />
    <linearGradient
       inkscape:collect="always"
       xlink:href="#linearGradient29"
       id="linearGradient31"
       gradientUnits="userSpaceOnUse"
       x1="74.071968"
       y1="75.880775"
       x2="90.986525"
       y2="64.211516"
       gradientTransform="matrix(-1,0,0,1,134.67091,0)" />
    <linearGradient
       inkscape:collect="always"
       xlink:href="#linearGradient32"
       id="linearGradient33"
       x1="132.29672"
       y1="111.53486"
       x2="132.29672"
       y2="107.35295"
       gradientUnits="userSpaceOnUse"
       gradientTransform="translate(-64.56339,0.43795434)" />
    <filter
       inkscape:collect="always"
       style="color-interpolation-filters:sRGB"
       id="filter33"
       x="-0.029538753"
       y="-0.09037148"
       width="1.0590775"
       height="1.180743">
      <feGaussianBlur
         inkscape:collect="always"
         stdDeviation="0.3179471"
         id="feGaussianBlur33" />
    </filter>
    <clipPath
       clipPathUnits="userSpaceOnUse"
       id="clipPath36">
      <path
         style="baseline-shift:baseline;display:inline;overflow:visible;vector-effect:none;fill:#ffffff;stroke-width:0.999998;stroke-linecap:round;stroke-linejoin:round;stroke-miterlimit:12;paint-order:fill markers stroke;enable-background:accumulate;stop-color:#000000"
         d="m 179.11294,70.197381 a 9.9442377,8.5057095 0 0 1 -9.94424,8.505709 9.9442377,8.5057095 0 0 1 -9.94424,-8.505709 9.9442377,8.5057095 0 0 1 9.94424,-8.505711 9.9442377,8.5057095 0 0 1 9.94424,8.505711 z"
         id="path37" />
    </clipPath>
    <filter
       inkscape:collect="always"
       style="color-interpolation-filters:sRGB"
       id="filter37"
       x="-0.10635153"
       y="-0.12150784"
       width="1.2127031"
       height="1.2430157">
      <feGaussianBlur
         inkscape:collect="always"
         stdDeviation="1.0220581"
         id="feGaussianBlur37" />
    </filter>
    <radialGradient
       inkscape:collect="always"
       xlink:href="#linearGradient44"
       id="radialGradient45"
       cx="88.370847"
       cy="72.060452"
       fx="88.370847"
       fy="72.060452"
       r="9.3882938"
       gradientTransform="matrix(1,0,0,1.0262675,0,-1.8928446)"
       gradientUnits="userSpaceOnUse" />
    <radialGradient
       inkscape:collect="always"
       xlink:href="#linearGradient47"
       id="radialGradient48"
       cx="47.095816"
       cy="72.060452"
       fx="47.095816"
       fy="72.060452"
       r="9.388296"
       gradientTransform="matrix(1,0,0,1.0262672,0,-1.8928276)"
       gradientUnits="userSpaceOnUse" />
    <filter
       inkscape:collect="always"
       style="color-interpolation-filters:sRGB"
       id="filter48"
       x="-0.56186184"
       y="-0.54748091"
       width="2.1237237"
       height="2.0949618">
      <feGaussianBlur
         inkscape:collect="always"
         stdDeviation="4.3957703"
         id="feGaussianBlur48" />
    </filter>
    <filter
       inkscape:collect="always"
       style="color-interpolation-filters:sRGB"
       id="filter49"
       x="-0.56186172"
       y="-0.54748092"
       width="2.1237234"
       height="2.0949618">
      <feGaussianBlur
         inkscape:collect="always"
         stdDeviation="4.3957703"
         id="feGaussianBlur49" />
    </filter>
    <linearGradient
       inkscape:collect="always"
       xlink:href="#linearGradient29"
       id="linearGradient54"
       gradientUnits="userSpaceOnUse"
       x1="74.071968"
       y1="75.880775"
       x2="90.986525"
       y2="64.211516" />
    <linearGradient
       inkscape:collect="always"
       xlink:href="#linearGradient29"
       id="linearGradient55"
       gradientUnits="userSpaceOnUse"
       x1="74.071968"
       y1="75.880775"
       x2="90.986525"
       y2="64.211516" />
    <filter
       inkscape:collect="always"
       style="color-interpolation-filters:sRGB"
       id="filter55"
       x="-0.0047868401"
       y="-0.019413481"
       width="1.0095737"
       height="1.038827">
      <feGaussianBlur
         inkscape:collect="always"
         stdDeviation="0.13493696"
         id="feGaussianBlur55" />
    </filter>
    <filter
       inkscape:collect="always"
       style="color-interpolation-filters:sRGB"
       id="filter56"
       x="-0.01942477"
       y="-0.073402534"
       width="1.0388495"
       height="1.1468051">
      <feGaussianBlur
         inkscape:collect="always"
         stdDeviation="0.62943968"
         id="feGaussianBlur56" />
    </filter>
    <filter
       inkscape:collect="always"
       style="color-interpolation-filters:sRGB"
       id="filter57"
       x="-0.04457468"
       y="-0.1538243"
       width="1.0891494"
       height="1.3076486">
      <feGaussianBlur
         inkscape:collect="always"
         stdDeviation="1.5188255"
         id="feGaussianBlur57" />
    </filter>
    <filter
       inkscape:label="Lizard Skin"
       inkscape:menu="Materials"
       inkscape:menu-tooltip="Stylized reptile skin texture"
       style="color-interpolation-filters:sRGB;"
       id="filter4"
       x="-0.48557097"
       y="-0.47035333"
       width="1.5496579"
       height="1.5324318">
      <feGaussianBlur
         stdDeviation="0.5"
         in="SourceGraphic"
         result="result0"
         id="feGaussianBlur1" />
      <feTurbulence
         result="result1"
         numOctaves="1"
         seed="45"
         baseFrequency="0.095"
         type="turbulence"
         id="feTurbulence1" />
      <feComposite
         in="result0"
         in2="result1"
         operator="in"
         result="result2"
         id="feComposite1" />
      <feComposite
         operator="arithmetic"
         in="result4"
         in2="result2"
         k3="1"
         k1="3"
         result="result91"
         id="feComposite2" />
      <feBlend
         mode="multiply"
         result="fbSourceGraphic"
         in2="result91"
         id="feBlend2" />
      <feColorMatrix
         result="fbSourceGraphicAlpha"
         in="fbSourceGraphic"
         values="0 0 0 0 0 0 0 1 0 0 0 0 1 0 0 0 0 0 5 0"
         id="feColorMatrix2" />
      <feGaussianBlur
         result="result0"
         in="fbSourceGraphicAlpha"
         stdDeviation="3"
         id="feGaussianBlur2" />
      <feOffset
         result="result3"
         in="result0"
         dy="-55.244755244755247"
         dx="-55.244755244755247"
         id="feOffset2" />
      <feSpecularLighting
         specularExponent="32.314569536423846"
         specularConstant="0.82781456953642385"
         surfaceScale="1.8474576271186436"
         lighting-color="rgb(239,255,0)"
         result="result1"
         in="result0"
         id="feSpecularLighting2">
        <fePointLight
           z="20000"
           y="-10000"
           x="-5000"
           id="fePointLight2" />
      </feSpecularLighting>
      <feComposite
         k2="-1"
         operator="in"
         result="result2"
         in="result1"
         in2="fbSourceGraphicAlpha"
         id="feComposite3" />
      <feComposite
         k3="1"
         k2="3"
         operator="arithmetic"
         result="result4"
         in="fbSourceGraphic"
         in2="result2"
         id="feComposite4" />
      <feBlend
         mode="multiply"
         in2="result4"
         id="feBlend4" />
    </filter>
    <filter
       inkscape:label="Tiger Fur"
       inkscape:menu="Overlays"
       inkscape:menu-tooltip="Tiger fur pattern with folds and bevel around the edges"
       height="1.354734"
       y="-0.17736701"
       width="1.366211"
       x="-0.18310548"
       style="color-interpolation-filters:sRGB;"
       id="filter9">
      <feTurbulence
         type="turbulence"
         result="result0"
         seed="57"
         numOctaves="2"
         baseFrequency="0.1 0.015"
         id="feTurbulence4" />
      <feComposite
         result="result1"
         operator="over"
         in2="result0"
         in="result0"
         id="feComposite5" />
      <feComposite
         result="fbSourceGraphic"
         in="SourceGraphic"
         operator="arithmetic"
         in2="result1"
         k1="1"
         id="feComposite6" />
      <feGaussianBlur
         stdDeviation="10"
         result="result8"
         in="fbSourceGraphic"
         id="feGaussianBlur6" />
      <feComposite
         in2="result8"
         result="result6"
         operator="xor"
         in="result8"
         id="feComposite7" />
      <feDisplacementMap
         xChannelSelector="A"
         yChannelSelector="A"
         scale="100"
         result="result4"
         in="result1"
         in2="result6"
         id="feDisplacementMap7" />
      <feComposite
         in2="result4"
         result="result2"
         operator="arithmetic"
         k1="1"
         in="SourceGraphic"
         id="feComposite8" />
      <feComposite
         operator="out"
         in="SourceGraphic"
         in2="result2"
         id="feComposite9" />
    </filter>
    <filter
       inkscape:label="Peel Off"
       inkscape:menu="Materials"
       inkscape:menu-tooltip="Peeling painting on a wall"
       height="1.1170622"
       width="1.1208496"
       y="-0.058531113"
       x="-0.060424808"
       style="color-interpolation-filters:sRGB;"
       id="filter13">
      <feTurbulence
         type="fractalNoise"
         numOctaves="3"
         baseFrequency="0.07"
         result="result1"
         id="feTurbulence9" />
      <feGaussianBlur
         stdDeviation="3"
         in="SourceAlpha"
         id="feGaussianBlur9" />
      <feComposite
         in2="result1"
         operator="in"
         id="feComposite10" />
      <feColorMatrix
         values="1 0 0 0 0 0 1 0 0 0 0 0 1 0 0 0 0 0 20 -9"
         result="result1"
         id="feColorMatrix10" />
      <feComposite
         in="SourceGraphic"
         operator="in"
         result="result1"
         in2="result1"
         id="feComposite11" />
      <feTurbulence
         baseFrequency="0.04"
         numOctaves="5"
         result="result0"
         type="fractalNoise"
         id="feTurbulence11" />
      <feDisplacementMap
         in2="result0"
         in="result1"
         xChannelSelector="R"
         yChannelSelector="G"
         scale="35"
         result="result2"
         id="feDisplacementMap11" />
      <feColorMatrix
         result="result3"
         values="4 0 0 0 0 0 1 0 0 0 0 0 2 0 0 0 0 0 0.7 0 "
         id="feColorMatrix11" />
      <feGaussianBlur
         stdDeviation="0.3"
         in="result1"
         result="result4"
         id="feGaussianBlur11" />
      <feComposite
         in2="result3"
         in="result4"
         result="fbSourceGraphic"
         operator="xor"
         id="feComposite12" />
      <feDiffuseLighting
         in="fbSourceGraphic"
         diffuseConstant="2"
         result="result3"
         surfaceScale="5"
         id="feDiffuseLighting12">
        <feDistantLight
           azimuth="225"
           elevation="25"
           id="feDistantLight12" />
      </feDiffuseLighting>
      <feBlend
         in2="fbSourceGraphic"
         in="result3"
         mode="darken"
         result="result7"
         id="feBlend12" />
      <feComposite
         in2="fbSourceGraphic"
         operator="in"
         in="result7"
         id="feComposite13" />
    </filter>
    <filter
       y="-0.16908989"
       width="1.2766419"
       height="1.2864477"
       x="-0.15548707"
       inkscape:label="Fire"
       inkscape:menu="Protrusions"
       inkscape:menu-tooltip="Edges of object are on fire"
       style="color-interpolation-filters:sRGB;"
       id="filter17">
      <feMorphology
         result="result1"
         radius="2.4"
         operator="dilate"
         id="feMorphology13" />
      <feTurbulence
         baseFrequency="0.09 0.028"
         numOctaves="1"
         id="feTurbulence13" />
      <feColorMatrix
         result="result2"
         values="2 0 0 0 0 0 2 0 0 0 0 0 0 0 0 0 0 0 1 0"
         id="feColorMatrix13" />
      <feDisplacementMap
         result="result4"
         scale="10.319410319410318"
         yChannelSelector="G"
         xChannelSelector="R"
         in="result1"
         in2="result2"
         id="feDisplacementMap13" />
      <feFlood
         result="result3"
         flood-opacity="1"
         flood-color="rgb(255,159,54)"
         id="feFlood13" />
      <feMorphology
         radius="3.8"
         result="result7"
         in="result4"
         id="feMorphology14" />
      <feGaussianBlur
         result="result7"
         in="result7"
         stdDeviation="2.4"
         id="feGaussianBlur14" />
      <feComposite
         result="result5"
         in2="result4"
         in="result3"
         operator="in"
         id="feComposite14" />
      <feComposite
         operator="out"
         in2="result7"
         id="feComposite15" />
      <feOffset
         result="result6"
         dy="-7"
         dx="-4.5"
         id="feOffset15" />
      <feGaussianBlur
         result="result7"
         stdDeviation="4.8"
         id="feGaussianBlur15" />
      <feComposite
         in="SourceGraphic"
         in2="result6"
         id="feComposite16" />
      <feComposite
         in2="result7"
         id="feComposite17" />
    </filter>
    <filter
       inkscape:label="Bark"
       inkscape:menu="Textures"
       inkscape:menu-tooltip="Bark texture, vertical; use with deep colors"
       style="color-interpolation-filters:sRGB;"
       id="filter20"
       x="-0.009918213"
       y="-0.0096073793"
       width="1.0198364"
       height="1.0192148">
      <feTurbulence
         seed="10"
         baseFrequency="0.12 0.02"
         numOctaves="10"
         type="fractalNoise"
         id="feTurbulence17" />
      <feColorMatrix
         values="1 0 0 0 0 0 1 0 0 0 0 0 1 0 0 0 0 0 0.7 0 "
         result="result5"
         id="feColorMatrix17" />
      <feComposite
         in2="result5"
         operator="out"
         in="SourceGraphic"
         id="feComposite18" />
      <feMorphology
         result="result3"
         radius="1.3"
         operator="dilate"
         id="feMorphology18" />
      <feTurbulence
         seed="25"
         type="turbulence"
         baseFrequency="0.08 0.05"
         numOctaves="8"
         result="result91"
         id="feTurbulence18" />
      <feDisplacementMap
         result="result4"
         scale="5"
         yChannelSelector="G"
         xChannelSelector="R"
         in="result3"
         in2="result91"
         id="feDisplacementMap18" />
      <feSpecularLighting
         specularExponent="35"
         specularConstant="1"
         surfaceScale="2"
         lighting-color="rgb(255,255,255)"
         result="result1"
         in="result4"
         id="feSpecularLighting18">
        <feDistantLight
           azimuth="235"
           elevation="75"
           id="feDistantLight18" />
      </feSpecularLighting>
      <feComposite
         operator="in"
         result="result2"
         in="result1"
         in2="result4"
         id="feComposite19" />
      <feComposite
         k3="1"
         k2="1"
         operator="arithmetic"
         result="result4"
         in="result4"
         in2="result2"
         id="feComposite20" />
      <feBlend
         mode="multiply"
         in2="result4"
         id="feBlend20" />
    </filter>
    <filter
       x="-0.12817383"
       width="1.2563477"
       y="-0.12415691"
       height="1.2483138"
       inkscape:menu-tooltip="Felt like texture with color turbulence and slightly darker at the edges"
       inkscape:menu="Textures"
       inkscape:label="Felt"
       style="color-interpolation-filters:sRGB;"
       id="filter23">
      <feGaussianBlur
         result="result1"
         in="SourceGraphic"
         stdDeviation="2"
         id="feGaussianBlur20" />
      <feTurbulence
         result="result0"
         numOctaves="5"
         baseFrequency="0.05"
         type="fractalNoise"
         id="feTurbulence20" />
      <feDisplacementMap
         result="result2"
         scale="20"
         yChannelSelector="G"
         xChannelSelector="R"
         in="result1"
         in2="result0"
         id="feDisplacementMap20" />
      <feGaussianBlur
         result="result4"
         in="result2"
         stdDeviation="5"
         id="feGaussianBlur21" />
      <feComposite
         result="result6"
         k1="1"
         k3="1"
         k2="0.5"
         in="result0"
         in2="result4"
         operator="arithmetic"
         id="feComposite21" />
      <feComposite
         in="result6"
         in2="result0"
         operator="in"
         result="result91"
         id="feComposite22" />
      <feComposite
         operator="arithmetic"
         k1="1.5"
         in="result2"
         in2="result91"
         id="feComposite23" />
    </filter>
    <clipPath
       clipPathUnits="userSpaceOnUse"
       id="clipPath23">
      <path
         d="m 55.114107,134.86792 c -0.504007,-0.82793 -1.361516,-2.99664 -1.905614,-4.81937 -0.588002,-1.97001 -1.928182,-3.77256 -6.202431,-5.85963 -4.274235,-2.0871 -7.187837,-7.84473 -3.38288,-10.05275 C 47.428141,111.92815 34.802508,90.176259 23.822684,80.299464 12.84286,70.422666 11.976565,70.957095 18.014061,70.459501 24.051557,69.96191 19.635533,59.332166 10.888235,49.266996 2.1409298,39.201817 1.5014883,37.824732 2.605025,38.310634 c 1.1035345,0.485905 2.8705987,1.276946 9.3556,4.229947 6.484994,2.953004 6.409303,5.922769 20.42338,-13.582295 14.014077,-19.5050628 14.018241,-18.600507 13.271576,-7.253665 -0.746664,11.346843 1.060879,17.659322 5.648804,18.485396 4.587923,0.826069 6.016704,0.702911 10.958232,-22.620573 4.94153,-23.32348 5.999927,-23.32348 10.941444,0 4.941517,23.323484 6.37032,23.446642 10.958245,22.620573 4.587923,-0.826074 6.395458,-7.138553 5.648801,-18.485396 -0.746654,-11.346842 -0.74251,-12.2513978 13.271573,7.253665 14.01411,19.505064 13.9384,16.535299 20.42339,13.582295 6.48499,-2.953001 8.25205,-3.744042 9.35558,-4.229947 1.10353,-0.485902 0.46409,0.891183 -8.2832,10.956362 -8.74731,10.06517 -13.16332,20.694914 -7.12583,21.192505 6.03751,0.497594 5.17124,-0.03682 -5.80859,9.839963 -10.97983,9.876795 -23.629756,31.614596 -19.800523,33.836706 3.82923,2.2221 1.17756,7.82593 -3.526351,10.1228 -4.703902,2.29685 -5.623626,3.7704 -6.286172,6.63677 -1.165283,5.04153 -3.289871,5.91834 -4.782801,1.97384 -1.300125,-3.43506 -1.40938,-3.46694 -6.079561,-1.77445 -2.752582,0.99753 -4.156112,0.98371 -7.062423,-0.0695 -4.197842,-1.5213 -4.008088,-1.59159 -6.310939,2.337 -1.202928,2.05216 -2.056514,2.53141 -2.681153,1.50533 z"
         fill="url(#c)"
         id="path24"
         style="display:inline;fill:#000000;stroke-width:0.259033" />
    </clipPath>
    <filter
       inkscape:collect="always"
       style="color-interpolation-filters:sRGB"
       id="filter29"
       x="-0.29181849"
       y="-0.12053145"
       width="1.583637"
       height="1.2410629">
      <feGaussianBlur
         inkscape:collect="always"
         stdDeviation="3.6863399"
         id="feGaussianBlur29" />
    </filter>
  </defs>
  <g
     inkscape:label="Layer 1"
     inkscape:groupmode="layer"
     id="layer1"
     style="display:inline">
    <path
       d="m 55.114108,134.86792 c -0.504009,-0.82793 -1.361518,-2.99664 -1.905615,-4.81937 -0.588001,-1.97001 -1.928182,-3.77256 -6.20243,-5.85963 -4.274237,-2.0871 -7.187839,-7.84473 -3.382881,-10.05275 C 47.428142,111.92815 34.802508,90.176259 23.822684,80.299463 12.84286,70.422666 11.976565,70.957094 18.014061,70.459502 24.051557,69.96191 19.635533,59.332165 10.888235,49.266995 2.1409298,39.201818 1.5014883,37.824732 2.605025,38.310635 c 1.1035346,0.485903 2.8705987,1.276944 9.3556,4.229946 6.484994,2.953005 6.409303,5.922768 20.42338,-13.582295 14.014076,-19.5050629 14.018242,-18.600507 13.271576,-7.253665 -0.746665,11.346844 1.060879,17.659322 5.648803,18.485396 4.587923,0.826068 6.016705,0.70291 10.958234,-22.620573 4.941529,-23.3234801 5.999925,-23.3234801 10.941442,0 4.941519,23.323483 6.370322,23.446641 10.958245,22.620573 4.587924,-0.826074 6.395458,-7.138552 5.648803,-18.485396 -0.746656,-11.346842 -0.74251,-12.2513979 13.271572,7.253665 14.01411,19.505063 13.9384,16.5353 20.42339,13.582295 6.48499,-2.953002 8.25205,-3.744043 9.35558,-4.229946 1.10353,-0.485903 0.46409,0.891183 -8.2832,10.95636 -8.74731,10.06517 -13.16332,20.694915 -7.12583,21.192507 6.03751,0.497592 5.17124,-0.03682 -5.80859,9.839961 -10.97983,9.876796 -23.629756,31.614597 -19.800523,33.836707 3.829231,2.2221 1.177561,7.82593 -3.526351,10.1228 -4.703902,2.29685 -5.623625,3.7704 -6.286172,6.63677 -1.165282,5.04153 -3.28987,5.91834 -4.782801,1.97384 -1.300126,-3.43506 -1.409381,-3.46694 -6.079562,-1.77445 -2.752581,0.99753 -4.156112,0.98371 -7.062423,-0.0695 -4.197841,-1.5213 -4.008086,-1.59159 -6.310938,2.337 -1.202929,2.05216 -2.056514,2.53141 -2.681152,1.50533 z"
       fill="url(#c)"
       id="path39"
       style="display:inline;fill:#000000;stroke-width:0.259033" />
    <path
       style="display:inline;fill:url(#radialGradient45);stroke-width:1;filter:url(#filter48)"
       d="m 95.583312,62.425646 c -1.4427,0.02386 -4.519523,3.138631 -11.073226,10.361125 -11.983893,13.206853 -1.54642,8.427029 3.853512,6.258016 5.475549,-2.199386 13.461202,3.040067 6.967016,-10.28206 -1.597467,-3.277028 1.448081,-6.356844 0.252698,-6.337081 z"
       id="path44" />
    <path
       style="display:inline;fill:url(#radialGradient48);stroke-width:1;filter:url(#filter49)"
       d="m 39.883353,62.425646 c -1.195383,-0.01976 1.850165,3.060053 0.252698,6.337081 -6.494196,13.322127 1.491467,8.082674 6.967016,10.28206 5.399932,2.169013 15.837405,6.948837 3.853512,-6.258016 C 44.402876,65.564277 41.326053,62.449506 39.883353,62.425646 Z"
       id="path40" />
    <path
       id="path5"
       style="display:inline;fill:url(#radialGradient6);stroke-width:0.259033;filter:url(#filter23)"
       d="m 67.733332,0.07699788 c -1.499979,0 -2.999702,5.83073202 -5.470467,17.49247212 C 57.321336,40.892953 55.892284,41.015862 51.304361,40.189794 46.716437,39.36372 44.908946,33.051462 45.655611,21.704618 46.402277,10.357776 46.398145,9.4533759 32.384069,28.958439 18.369992,48.463502 18.445504,45.49356 11.96051,42.540555 5.4755088,39.587553 3.7085435,38.796742 2.6050089,38.310839 c -1.1035367,-0.485903 -0.46409,0.890744 8.2832151,10.955921 8.747298,10.06517 13.163159,20.694912 7.125663,21.192504 -6.037496,0.497592 -5.170876,-0.03657 5.808948,9.840226 10.979824,9.876796 23.605302,31.62867 19.800342,33.83669 -3.804958,2.20802 -0.891498,7.96552 3.382739,10.05262 4.274248,2.08707 5.614721,3.88958 6.202722,5.85959 0.544097,1.82273 1.401301,3.99142 1.90531,4.81935 0.624638,1.02608 1.478561,0.54682 2.68149,-1.50534 2.302852,-3.92859 2.112885,-3.85811 6.310726,-2.33681 2.906311,1.05321 4.310037,1.0673 7.062618,0.0698 4.670181,-1.69249 4.779089,-1.66101 6.079215,1.77405 1.492931,3.9445 3.617889,3.068 4.783171,-1.97353 0.662547,-2.86637 1.582019,-4.33995 6.285921,-6.6368 4.703912,-2.29687 7.35563,-7.9008 3.526399,-10.1229 -3.829233,-2.22211 8.820512,-23.959894 19.800342,-33.83669 10.97983,-9.876781 11.84646,-9.342634 5.80895,-9.840226 -6.03749,-0.497592 -1.62165,-11.127334 7.12566,-21.192504 8.74729,-10.065177 9.38675,-11.441824 8.28322,-10.955921 -1.10353,0.485903 -2.87052,1.276714 -9.35551,4.229716 -6.48499,2.953005 -6.40944,5.922947 -20.42355,-13.582116 C 89.068514,9.4533759 89.064398,10.357776 89.811054,21.704618 90.557709,33.051462 88.750228,39.36372 84.162304,40.189794 79.574381,41.015862 78.145835,40.892953 73.204316,17.56947 70.733558,5.9077299 69.233312,0.07699788 67.733332,0.07699788 Z M 39.883353,62.425646 c 1.4427,0.02386 4.519523,3.138631 11.073226,10.361125 11.983893,13.206853 1.54642,8.427029 -3.853512,6.258016 -5.475549,-2.199386 -13.461212,3.040067 -6.967016,-10.28206 1.597467,-3.277028 -1.448081,-6.356844 -0.252698,-6.337081 z m 55.699959,0 c 1.195383,-0.01976 -1.850165,3.060053 -0.252698,6.337081 6.494186,13.322127 -1.491467,8.082674 -6.967016,10.28206 -5.399932,2.169013 -15.837405,6.948837 -3.853512,-6.258016 6.553703,-7.222494 9.630526,-10.337265 11.073226,-10.361125 z"
       clip-path="url(#clipPath23)" />
    <path
       id="path13"
       style="display:inline;mix-blend-mode:screen;fill:url(#linearGradient13);stroke-width:0.259033"
       d="m 67.733332,0.07699788 c -1.499979,0 -2.999702,5.83073222 -5.470467,17.49247212 C 57.321336,40.892953 55.892284,41.015862 51.304361,40.189794 46.716437,39.36372 44.908946,33.051462 45.655611,21.704618 46.402277,10.357776 46.398147,9.4533759 32.384069,28.958439 18.369996,48.463502 18.445511,45.49356 11.96051,42.540555 5.4755082,39.587553 3.7085509,38.796742 2.6050089,38.310839 1.5014772,37.824936 2.1409244,39.201583 10.888224,49.26676 c 8.7473,10.06517 13.163156,20.694912 7.125663,21.192504 -6.037493,0.497592 -5.170879,-0.03657 5.808948,9.840226 10.979826,9.876796 23.605302,31.62867 19.800342,33.83669 -3.804958,2.20802 -0.891498,7.96552 3.382739,10.05262 4.274248,2.08707 5.614721,3.88958 6.202722,5.85959 0.544097,1.82273 1.401301,3.99142 1.90531,4.81935 0.624638,1.02608 1.478561,0.54682 2.68149,-1.50534 2.302852,-3.92859 2.112885,-3.85811 6.310726,-2.33681 2.906311,1.05321 4.310037,1.0673 7.062618,0.0698 4.670181,-1.69249 4.779089,-1.66101 6.079215,1.77405 1.492931,3.9445 3.617889,3.068 4.783171,-1.97353 0.662547,-2.86637 1.582019,-4.33995 6.285921,-6.6368 4.703912,-2.29687 7.35563,-7.9008 3.526399,-10.1229 -3.829233,-2.22211 8.820512,-23.959894 19.800342,-33.83669 10.97983,-9.876781 11.84646,-9.342634 5.80895,-9.840226 -6.03749,-0.497592 -1.62165,-11.127334 7.12566,-21.192504 8.74729,-10.065177 9.38675,-11.441824 8.28322,-10.955921 -1.10353,0.485903 -2.87052,1.276714 -9.35551,4.229716 -6.48499,2.953005 -6.40944,5.922947 -20.42355,-13.582116 C 89.068514,9.4533759 89.064398,10.357776 89.811054,21.704618 90.557709,33.051462 88.750228,39.36372 84.162304,40.189794 79.574381,41.015862 78.145835,40.892953 73.204316,17.56947 70.733558,5.9077301 69.233312,0.07699788 67.733332,0.07699788 Z M 39.883353,62.425646 c 1.4427,0.02386 4.519523,3.138631 11.073226,10.361125 11.983893,13.206853 1.54642,8.427029 -3.853512,6.258016 -5.475549,-2.199386 -13.461212,3.040067 -6.967016,-10.28206 1.597467,-3.277028 -1.448081,-6.356844 -0.252698,-6.337081 z m 55.699959,0 c 1.195383,-0.01976 -1.850165,3.060053 -0.252698,6.337081 6.494186,13.322127 -1.491467,8.082674 -6.967016,10.28206 -5.399932,2.169013 -15.837405,6.948837 -3.853512,-6.258016 6.553703,-7.222494 9.630526,-10.337265 11.073226,-10.361125 z" />
    <path
       style="baseline-shift:baseline;display:inline;overflow:visible;mix-blend-mode:normal;vector-effect:none;fill:#204700;fill-opacity:1;stroke-width:0.950437;filter:url(#filter12);enable-background:accumulate;stop-color:#000000"
       d="m 203.48707,-3.2023583 c -0.69246,0 -1.27,0.3503083 -1.63672,0.7031253 -0.36672,0.352817 -0.61238,0.73795 -0.8457,1.173828 -0.46666,0.871755 -0.8639,1.976458 -1.29297,3.412109 -0.85815,2.871302 -1.80003,7.042578 -2.97657,12.595704 -2.34199,11.053974 -3.92384,16.627099 -5.17578,18.92578 -0.62597,1.149342 -0.99929,1.36874 -1.34179,1.472658 -0.34251,0.103915 -0.99523,0.0597 -2.06446,-0.132813 -1.522,-0.274042 -2.55562,-1.302105 -3.3457,-3.929687 -0.79008,-2.627585 -1.06876,-6.683417 -0.7207,-11.972658 0.17751,-2.697593 0.3302,-4.764262 0.20117,-6.316406 -0.0645,-0.776072 -0.10351,-1.461423 -0.70899,-2.222656 -0.30273,-0.380617 -0.85629,-0.733923 -1.41406,-0.802734 -0.55777,-0.06881 -1.02135,0.07832 -1.39258,0.255859 -1.48491,0.710156 -2.54192,2.074166 -4.43945,4.476562 -1.89752,2.402396 -4.39913,5.833314 -7.73242,10.472656 -6.63828,9.239279 -10.08842,13.068101 -11.83399,13.978517 -0.87278,0.455207 -1.19412,0.412448 -2.00781,0.13086 -0.81369,-0.281588 -1.98976,-0.975016 -3.62305,-1.718752 -6.16527,-2.807409 -7.85177,-3.561321 -8.91015,-4.027342 -0.23178,-0.102058 -0.41636,-0.311769 -1.18164,-0.195313 -0.38265,0.05823 -1.00299,0.409895 -1.25196,0.908204 -0.24896,0.498305 -0.19262,0.880253 -0.14648,1.123045 0.18457,0.971172 0.51344,1.208947 1.08008,1.992188 1.13327,1.566481 3.36731,4.282358 7.53515,9.078124 4.06215,4.674153 7.10349,9.514411 8.36133,12.982424 0.62892,1.734005 0.75338,3.111458 0.59961,3.742187 -0.15376,0.630727 -0.16148,0.715994 -1.11914,0.794922 -1.41448,0.116576 -2.37479,0.115922 -3.3418,0.398436 -0.4835,0.141259 -1.28173,0.461754 -1.57226,1.410158 -0.29053,0.948402 0.13837,1.597898 0.44922,2.031249 0.62169,0.866701 1.5274,1.641493 2.99414,2.931641 1.46674,1.290148 3.46269,3.006675 6.05859,5.341797 5.01196,4.508458 10.59252,11.955922 14.3711,18.433592 1.88929,3.23884 3.33521,6.254464 4.05468,8.451174 0.35974,1.09836 0.52386,2.00043 0.52539,2.50196 0.002,0.50152 -0.0693,0.33798 0.13282,0.2207 -1.23922,0.71912 -2.07333,1.8877 -2.34766,3.12891 -0.27433,1.2412 -0.0624,2.49504 0.39844,3.65234 0.92178,2.31459 2.84501,4.39029 5.26562,5.57226 3.85613,1.88292 4.62463,3.10445 5.07032,4.59766 0.54917,1.83975 1.27312,3.79565 1.97656,4.95117 0.26046,0.42787 0.65065,0.89505 1.30469,1.13086 0.65403,0.23581 1.41321,0.0819 1.89648,-0.18945 0.96653,-0.54266 1.44503,-1.32449 2.07227,-2.39453 0.55094,-0.9399 0.94845,-1.6226 1.22265,-2.00781 0.2742,-0.38521 0.35815,-0.38713 0.2832,-0.35938 -0.0749,0.0278 -0.0333,-0.0237 0.40821,0.0918 0.4415,0.11546 1.1691,0.38002 2.17383,0.74414 2.91201,1.05532 5.01183,1.07498 7.79492,0.0664 2.21263,-0.80186 3.2927,-0.8979 3.10351,-0.95312 -0.0946,-0.0276 -0.18726,-0.17843 -0.041,0.0742 0.14624,0.25264 0.38285,0.82469 0.68945,1.63476 0.40575,1.07205 0.85633,1.91774 1.5625,2.56836 0.70617,0.65063 1.95573,0.99868 2.91797,0.60157 0.96224,-0.39712 1.51279,-1.15147 1.97461,-2.02344 0.46181,-0.87198 0.82265,-1.93536 1.12109,-3.22656 0.292,-1.26328 0.55167,-1.94452 1.1875,-2.66016 0.63584,-0.71564 1.78574,-1.5294 3.9375,-2.58008 2.58712,-1.26326 4.5828,-3.35181 5.49805,-5.68164 0.45762,-1.16492 0.64297,-2.42835 0.33789,-3.66016 -0.30508,-1.2318 -1.15362,-2.36482 -2.38281,-3.07812 0.19508,0.1132 0.12447,0.27283 0.125,-0.22852 5.3e-4,-0.50134 0.16435,-1.40183 0.52344,-2.5 0.71816,-2.19633 2.16602,-5.211364 4.05664,-8.449214 3.78123,-6.47572 9.36623,-13.920592 14.3789,-18.429693 2.59591,-2.335117 4.59186,-4.051649 6.0586,-5.341797 1.46674,-1.290148 2.37245,-2.064933 2.99414,-2.931639 0.31084,-0.433353 0.73976,-1.082855 0.44922,-2.031251 -0.29055,-0.948396 -1.08876,-1.268897 -1.57227,-1.410155 -0.96701,-0.282517 -1.92732,-0.281861 -3.3418,-0.398439 -0.95765,-0.07893 -0.96537,-0.164192 -1.11914,-0.794922 -0.15376,-0.630727 -0.0313,-2.008182 0.59766,-3.742187 1.25784,-3.468013 4.30113,-8.308271 8.36328,-12.982422 4.16783,-4.795768 6.40188,-7.511645 7.53516,-9.078126 0.56663,-0.783238 0.8955,-1.021027 1.08007,-1.992188 0.0462,-0.242787 0.10248,-0.624737 -0.14648,-1.123045 -0.24896,-0.498309 -0.86931,-0.849974 -1.25195,-0.908204 -0.7653,-0.116459 -0.95181,0.09326 -1.1836,0.195313 -1.05838,0.466021 -2.74295,1.219935 -8.9082,4.027344 -1.63329,0.743734 -2.80936,1.437162 -3.62305,1.71875 -0.81369,0.281588 -1.13503,0.324347 -2.00781,-0.130861 -1.74556,-0.910412 -5.1957,-4.739237 -11.83398,-13.978514 -3.3333,-4.639344 -5.83685,-8.07026 -7.73438,-10.472658 -1.89752,-2.402395 -2.95259,-3.766404 -4.4375,-4.476561 -0.37123,-0.177539 -0.83481,-0.324671 -1.39258,-0.255859 -0.55777,0.06881 -1.11132,0.422117 -1.41406,0.802734 -0.60547,0.761234 -0.64447,1.446584 -0.70898,2.222656 -0.12903,1.552146 0.0237,3.618812 0.20117,6.316405 0.34805,5.289243 0.0694,9.345073 -0.72071,11.972658 -0.79007,2.627585 -1.8237,3.655645 -3.3457,3.929687 -1.06922,0.192516 -1.72194,0.236728 -2.06445,0.132813 -0.34251,-0.103915 -0.71583,-0.323316 -1.3418,-1.472658 -1.25194,-2.298681 -2.83379,-7.871806 -5.17578,-18.92578 -1.17653,-5.553125 -2.11842,-9.724401 -2.97656,-12.595703 -0.42908,-1.435651 -0.82631,-2.540354 -1.29297,-3.412109 -0.23333,-0.435878 -0.47899,-0.821011 -0.8457,-1.173828 -0.36672,-0.352817 -0.94426,-0.7031255 -1.63672,-0.7031255 z m 0,4.2285153 c 0.22923,0.546281 0.45375,1.038301 0.73242,1.970703 0.79816,2.670583 1.74229,6.813107 2.91406,12.343749 2.35462,11.113569 3.80085,16.681664 5.49219,19.78711 0.84567,1.552726 1.9237,2.600286 3.20898,2.990234 1.28529,0.389951 2.43778,0.155128 3.54883,-0.04492 2.83854,-0.511091 4.8426,-2.875995 5.82422,-6.140625 0.98162,-3.26463 1.20926,-7.600466 0.84766,-13.095703 -0.14792,-2.247953 -0.19267,-3.714808 -0.17188,-4.875 0.5684,0.53481 1.01839,0.864272 2.26563,2.443358 1.82715,2.313305 4.32001,5.727583 7.64648,10.357421 6.68126,9.299091 9.85411,13.328229 12.94336,14.939454 1.54462,0.805612 3.19306,0.774097 4.51563,0.316408 1.32256,-0.457692 2.44993,-1.168535 3.89843,-1.828126 2.67975,-1.22025 2.5606,-1.158734 3.85938,-1.746093 -1.25908,1.555223 -2.04984,2.608296 -4.69531,5.652344 -4.25163,4.892174 -7.46656,9.887206 -8.95118,13.980466 -0.7423,2.046632 -1.11061,3.882597 -0.69726,5.578126 0.41335,1.695529 2.03188,3.049492 3.94336,3.207033 0.44229,0.03645 0.46507,0.05226 0.82422,0.08594 -0.41972,0.402146 -0.50679,0.534522 -1.19141,1.136719 -1.44334,1.269566 -3.46402,3.008667 -6.08594,5.367187 -5.42298,4.878189 -11.06678,12.458178 -14.99609,19.187494 -1.96466,3.36466 -3.49337,6.49766 -4.33203,9.062504 -0.41933,1.28242 -0.67856,2.41494 -0.67969,3.48438 -0.001,1.06943 0.35014,2.33733 1.45508,2.97851 0.59054,0.3427 0.78827,0.66666 0.89453,1.09571 0.10626,0.42904 0.0654,1.03089 -0.21094,1.73437 -0.55271,1.40697 -2.05189,3.07242 -3.93555,3.99219 -2.31901,1.13234 -3.84161,2.11082 -4.91796,3.32226 -1.07636,1.21145 -1.56854,2.59366 -1.90625,4.05469 -0.25532,1.10463 -0.56135,1.9403 -0.83399,2.45508 -0.0982,0.18535 -0.0617,0.11425 -0.13672,0.20703 -0.15361,-0.21182 -0.32283,-0.40539 -0.54492,-0.99219 -0.31124,-0.82232 -0.55068,-1.47861 -0.91016,-2.09961 -0.35947,-0.62099 -0.98655,-1.29099 -1.8164,-1.5332 -1.65971,-0.48442 -2.85008,0.20888 -5.07617,1.01563 -2.44923,0.88758 -3.01834,0.88233 -5.63086,-0.0645 -0.99017,-0.35883 -1.73792,-0.64499 -2.45313,-0.83203 -0.71521,-0.18704 -1.51227,-0.29314 -2.31445,0.004 -0.80218,0.29705 -1.33338,0.88689 -1.76563,1.49413 -0.43224,0.60723 -0.83158,1.3171 -1.375,2.24414 -0.14081,0.24023 -0.11634,0.16472 -0.24218,0.33594 -0.38531,-0.86455 -0.86502,-1.92553 -1.22657,-3.13672 -0.67203,-2.25153 -2.45201,-4.45665 -6.7207,-6.54102 -1.64179,-0.80166 -3.13466,-2.45437 -3.70898,-3.89647 -0.28716,-0.72107 -0.3427,-1.35396 -0.2461,-1.79102 0.0966,-0.43707 0.27087,-0.73819 0.83985,-1.06837 1.1062,-0.64192 1.45249,-1.90913 1.44922,-2.97655 -0.003,-1.06743 -0.26384,-2.19886 -0.6836,-3.48047 -0.83951,-2.563224 -2.36698,-5.697144 -4.33008,-9.062504 -3.92618,-6.730715 -9.56459,-14.31453 -14.98828,-19.193359 -2.62192,-2.358525 -4.64259,-4.097621 -6.08594,-5.367187 -0.68462,-0.6022 -0.77168,-0.734573 -1.1914,-1.136719 0.35914,-0.03368 0.38193,-0.04949 0.82422,-0.08594 1.91148,-0.157541 3.53001,-1.511504 3.94336,-3.207033 0.41335,-1.695529 0.045,-3.531494 -0.69727,-5.578126 -1.48461,-4.09326 -4.69955,-9.088292 -8.95117,-13.980466 -2.64548,-3.044048 -3.43623,-4.097121 -4.69531,-5.652344 1.29878,0.587359 1.17962,0.525843 3.85937,1.746093 1.4485,0.659591 2.57587,1.370434 3.89844,1.828126 1.32256,0.457692 2.971,0.489204 4.51562,-0.316408 3.08925,-1.611225 6.26211,-5.640363 12.94336,-14.939454 3.32647,-4.629838 5.81933,-8.044116 7.64649,-10.357421 1.24723,-1.579086 1.69722,-1.908548 2.26562,-2.443358 0.0208,1.160192 -0.0239,2.627047 -0.17187,4.874998 -0.36161,5.495239 -0.13397,9.831075 0.84765,13.095705 0.98163,3.264628 2.98568,5.629534 5.82422,6.140625 1.11105,0.200046 2.26355,0.434871 3.54883,0.04492 1.28529,-0.389951 2.36332,-1.43751 3.20899,-2.990234 1.69133,-3.105449 3.13756,-8.673544 5.49218,-19.78711 1.17178,-5.530642 2.11591,-9.673166 2.91407,-12.343749 0.27866,-0.932402 0.50319,-1.424422 0.73242,-1.970703 z"
       id="path11"
       clip-path="url(#clipPath11)"
       transform="matrix(1.0521457,0,0,1.0521457,-146.36473,1.7818665)" />
    <g
       id="g37"
       style="display:inline;opacity:0.214008"
       transform="matrix(-1,0,0,1,182.14104,0)">
      <ellipse
         style="fill:#ffffff;fill-opacity:1;stroke:none;stroke-width:0.105833;stroke-linecap:round;stroke-linejoin:round;stroke-miterlimit:12;stroke-dasharray:none;stroke-opacity:1;paint-order:fill markers stroke"
         id="path33"
         cx="76.393593"
         cy="88.613503"
         rx="5.7876625"
         ry="4.9504228"
         transform="rotate(-10.349587)" />
      <path
         style="baseline-shift:baseline;display:inline;overflow:visible;mix-blend-mode:normal;vector-effect:none;fill:#4d4d4d;stroke-width:1.71818;stroke-linecap:round;stroke-linejoin:round;stroke-miterlimit:12;paint-order:fill markers stroke;filter:url(#filter37);enable-background:accumulate;stop-color:#000000"
         d="m 169.16797,60.103516 c -6.22589,0 -11.53125,4.393127 -11.53125,10.09375 0,5.700623 5.30536,10.09375 11.53125,10.09375 6.22589,0 11.5332,-4.393127 11.5332,-10.09375 0,-5.700623 -5.30731,-10.09375 -11.5332,-10.09375 z m 0,3.175781 c 4.75821,0 8.35742,3.223444 8.35742,6.917969 0,3.694524 -3.59921,6.917968 -8.35742,6.917968 -4.75821,0 -8.35547,-3.223444 -8.35547,-6.917968 0,-3.694525 3.59726,-6.917969 8.35547,-6.917969 z"
         id="path36"
         clip-path="url(#clipPath36)"
         transform="matrix(0.57254233,-0.10456053,0.10456053,0.57254233,-13.125712,50.944766)" />
      <ellipse
         style="fill:#000000;fill-opacity:1;stroke:#000000;stroke-width:0.105833;stroke-linecap:round;stroke-linejoin:round;stroke-miterlimit:12;stroke-dasharray:none;stroke-opacity:1;paint-order:fill markers stroke"
         id="path34"
         cx="95.494835"
         cy="67.594894"
         rx="1.2414445"
         ry="4.9504209"
         transform="rotate(3.5935079)" />
    </g>
    <g
       id="g38"
       transform="translate(-46.718907)"
       style="display:inline;opacity:0.214008">
      <ellipse
         style="fill:#ffffff;fill-opacity:1;stroke:none;stroke-width:0.105833;stroke-linecap:round;stroke-linejoin:round;stroke-miterlimit:12;stroke-dasharray:none;stroke-opacity:1;paint-order:fill markers stroke"
         id="ellipse37"
         cx="76.393593"
         cy="88.613503"
         rx="5.7876625"
         ry="4.9504228"
         transform="rotate(-10.349587)" />
      <path
         style="baseline-shift:baseline;display:inline;overflow:visible;mix-blend-mode:normal;vector-effect:none;fill:#4d4d4d;stroke-width:1.71818;stroke-linecap:round;stroke-linejoin:round;stroke-miterlimit:12;paint-order:fill markers stroke;filter:url(#filter37);enable-background:accumulate;stop-color:#000000"
         d="m 169.16797,60.103516 c -6.22589,0 -11.53125,4.393127 -11.53125,10.09375 0,5.700623 5.30536,10.09375 11.53125,10.09375 6.22589,0 11.5332,-4.393127 11.5332,-10.09375 0,-5.700623 -5.30731,-10.09375 -11.5332,-10.09375 z m 0,3.175781 c 4.75821,0 8.35742,3.223444 8.35742,6.917969 0,3.694524 -3.59921,6.917968 -8.35742,6.917968 -4.75821,0 -8.35547,-3.223444 -8.35547,-6.917968 0,-3.694525 3.59726,-6.917969 8.35547,-6.917969 z"
         id="path38"
         clip-path="url(#clipPath36)"
         transform="matrix(0.57254233,-0.10456053,0.10456053,0.57254233,-13.125712,50.944766)" />
      <ellipse
         style="fill:#000000;fill-opacity:1;stroke:#000000;stroke-width:0.105833;stroke-linecap:round;stroke-linejoin:round;stroke-miterlimit:12;stroke-dasharray:none;stroke-opacity:1;paint-order:fill markers stroke"
         id="ellipse38"
         cx="95.494835"
         cy="67.594894"
         rx="1.2414445"
         ry="4.9504209"
         transform="rotate(3.5935079)" />
    </g>
    <path
       id="path15"
       style="display:inline;mix-blend-mode:color;fill:#81d400;fill-opacity:1;stroke-width:0.259033"
       inkscape:label="path15"
       d="m 67.733332,0.08319905 c -1.49998,0 -3.000216,5.83073245 -5.470983,17.49247195 C 57.320824,40.899155 55.892288,41.022063 51.304361,40.195996 46.716444,39.369922 44.908952,33.057663 45.655611,21.710819 46.40228,10.363976 46.398152,9.4595757 32.384069,28.96464 18.369996,48.469702 18.445511,45.499761 11.96051,42.546756 5.4755078,39.593754 3.7085509,38.802427 2.6050089,38.316524 c -1.1035317,-0.485903 -0.464085,0.891259 8.2832151,10.956437 8.7473,10.06517 13.163156,20.694912 7.125663,21.192504 -6.037493,0.497591 -5.170879,-0.03657 5.808948,9.840227 10.979826,9.876796 23.605298,31.628678 19.800342,33.836698 -3.804967,2.20802 -0.891504,7.96551 3.382739,10.05261 4.274244,2.08707 5.614716,3.88958 6.202722,5.85959 0.54409,1.82273 1.401298,3.99142 1.90531,4.81935 0.624635,1.02607 1.478045,0.54682 2.680973,-1.50534 2.302857,-3.92859 2.113399,-3.85811 6.311243,-2.33681 2.906307,1.05321 4.310042,1.06678 7.062618,0.0693 4.670181,-1.69248 4.779091,-1.66048 6.079215,1.77457 1.492929,3.9445 3.617369,3.06801 4.782654,-1.97352 0.662543,-2.86637 1.582535,-4.33996 6.286438,-6.63681 4.703913,-2.29687 7.355631,-7.90079 3.526399,-10.12289 -3.829233,-2.22211 8.820502,-23.959902 19.800342,-33.836698 10.97983,-9.876781 11.84646,-9.342636 5.80895,-9.840227 -6.03749,-0.497592 -1.62165,-11.127334 7.12566,-21.192504 8.74729,-10.065178 9.38675,-11.44234 8.28322,-10.956437 -1.10353,0.485903 -2.87052,1.27723 -9.35551,4.230232 C 117.02116,45.499761 117.0967,48.469702 103.0826,28.96464 89.068511,9.4595757 89.064405,10.363976 89.811054,21.710819 90.557713,33.057663 88.750231,39.369922 84.162304,40.195996 79.574387,41.022063 78.145315,40.899155 73.2038,17.575671 70.733043,5.9139315 69.233313,0.08319905 67.733332,0.08319905 Z M 39.883353,62.425646 c 1.4427,0.02386 4.519523,3.138631 11.073226,10.361125 11.983893,13.206853 1.54642,8.427029 -3.853512,6.258016 -5.475549,-2.199386 -13.461212,3.040067 -6.967016,-10.28206 1.597467,-3.277028 -1.448081,-6.356844 -0.252698,-6.337081 z m 55.699959,0 c 1.195383,-0.01976 -1.850165,3.060053 -0.252698,6.337081 6.494186,13.322127 -1.491467,8.082674 -6.967016,10.28206 -5.399932,2.169013 -15.837405,6.948837 -3.853512,-6.258016 6.553703,-7.222494 9.630526,-10.337265 11.073226,-10.361125 z" />
    <path
       id="rect24"
       style="opacity:0.8;fill:#ffffff;stroke-width:3.175;stroke-linecap:round;stroke-linejoin:round;stroke-miterlimit:12;paint-order:fill markers stroke;filter:url(#filter29)"
       d="M 67.733332 20.106266 L 60.15395 50.627917 L 52.574568 67.390718 L 60.683117 75.157685 L 67.733332 93.507986 L 74.783548 75.157685 L 82.892097 67.390718 L 75.312715 50.627917 L 67.733332 20.106266 z " />
  </g>
  <g
     inkscape:groupmode="layer"
     id="layer2"
     inkscape:label="Layer 2"
     style="display:inline">
    <path
       id="path19"
       style="display:none;stroke-width:1"
       d="m 96.329132,62.425533 c -1.4427,0.02386 -4.519373,3.138716 -11.073076,10.36121 -11.983898,13.206853 -8.39026,11.337379 3.853391,6.258189 12.243653,-5.079192 8.488988,-2.845551 8.488988,-10.891143 0,-3.645657 -0.07392,-5.748019 -1.269303,-5.728256 z m -57.591421,0.226359 c -1.169842,0.02486 -1.349692,1.987372 -1.349692,5.517234 0,8.068251 -1.495322,6.769226 10.188797,11.579211 11.684119,4.809989 13.856028,5.93341 2.303783,-6.796585 C 43.38246,65.791132 40.241794,62.619934 38.737711,62.651892 Z M 67.51544,100.66697 c -1.461799,0.0153 -2.849811,0.45735 -4.175476,1.15136 -3.957938,2.07207 -7.359043,6.39428 -10.501891,8.34144 -4.195491,2.59932 -0.538876,6.53098 3.85392,4.83392 4.392797,-1.69709 6.968514,-7.31181 10.823447,-7.30853 3.53969,0.003 6.921971,5.46543 12.82207,7.14247 5.900098,1.67704 4.206158,-3.55291 0.510893,-5.93135 -3.69526,-2.37845 -8.1106,-8.28438 -13.332963,-8.22931 z"
       sodipodi:insensitive="true" />
    <g
       id="g20"
       transform="translate(-0.058146)">
      <path
         id="path18"
         style="opacity:1;fill:#000000;stroke-width:3.175;stroke-linecap:round;stroke-linejoin:round;stroke-miterlimit:12;paint-order:fill markers stroke"
         d="m 80.07168,104.15768 c 1.685674,1.68567 1.521277,4.58308 -0.36718,6.47154 -0.944231,0.94423 -2.436882,0.66011 -3.904183,1.02274 -1.467302,0.36263 -2.909255,1.37201 -3.752092,0.52917 -1.685669,-1.68567 -0.336553,-5.76781 1.551909,-7.65627 1.888462,-1.88846 4.785872,-2.05286 6.471546,-0.36718 z"
         sodipodi:nodetypes="ssssss" />
      <path
         id="path20"
         style="opacity:1;fill:#000000;stroke-width:3.175;stroke-linecap:round;stroke-linejoin:round;stroke-miterlimit:12;paint-order:fill markers stroke"
         d="m 55.511277,104.15768 c -1.685674,1.68567 -1.521277,4.58308 0.36718,6.47154 0.944231,0.94423 2.436881,0.66011 3.904183,1.02274 1.467302,0.36263 2.909255,1.37201 3.752092,0.52917 1.685669,-1.68567 0.336553,-5.76781 -1.551909,-7.65627 -1.888462,-1.88846 -4.785872,-2.05286 -6.471546,-0.36718 z"
         sodipodi:nodetypes="ssssss" />
    </g>
    <g
       id="g26"
       transform="translate(-2.146808)"
       style="opacity:0.48;fill:#447821">
      <g
         id="g22"
         transform="matrix(1.3699631,0,0,1.3699631,-25.102919,-44.120286)"
         style="fill:#447821;stroke:#000000;stroke-width:0.729946;stroke-opacity:1">
        <path
           id="path21"
           style="baseline-shift:baseline;display:inline;overflow:visible;opacity:1;vector-effect:none;fill:#447821;stroke:none;stroke-width:0.729946;stroke-linecap:round;stroke-linejoin:round;stroke-miterlimit:12;paint-order:fill markers stroke;enable-background:accumulate;stop-color:#000000;stop-opacity:1"
           d="m 77.401031,102.20738 c -0.170742,-0.007 -0.342511,-0.006 -0.514439,0.004 -1.37543,0.0751 -2.767959,0.67222 -3.847569,1.75183 -1.07961,1.07961 -1.927667,2.66281 -2.008594,2.99027 -0.08093,0.32745 3.02875,-3.20193 4.990507,-3.31923 0.966809,-0.0578 2.815825,0.41204 3.488751,1.08497 1.34585,1.34585 3.148641,0.90232 1.123143,-1.12318 -0.886154,-0.88616 -2.036654,-1.33917 -3.231844,-1.38829 z"
           sodipodi:nodetypes="ccscssscc" />
      </g>
      <g
         id="g25"
         transform="matrix(-1.3699631,0,0,1.3699631,164.8632,-44.120286)"
         style="fill:#447821;stroke:#000000;stroke-width:0.729946;stroke-opacity:1">
        <path
           id="path25"
           style="baseline-shift:baseline;display:inline;overflow:visible;opacity:1;vector-effect:none;fill:#447821;stroke:none;stroke-width:0.729946;stroke-linecap:round;stroke-linejoin:round;stroke-miterlimit:12;paint-order:fill markers stroke;enable-background:accumulate;stop-color:#000000;stop-opacity:1"
           d="m 77.401031,102.20738 c -0.170742,-0.007 -0.342511,-0.006 -0.514439,0.004 -1.37543,0.0751 -2.767959,0.67222 -3.847569,1.75183 -1.07961,1.07961 -1.927667,2.66281 -2.008594,2.99027 -0.08093,0.32745 3.02875,-3.20193 4.990507,-3.31923 0.966809,-0.0578 2.815825,0.41204 3.488751,1.08497 1.34585,1.34585 3.148641,0.90232 1.123143,-1.12318 -0.886154,-0.88616 -2.036654,-1.33917 -3.231844,-1.38829 z"
           sodipodi:nodetypes="ccscssscc" />
      </g>
    </g>
    <g
       id="g27"
       transform="translate(0.80698329)"
       style="display:none"
       sodipodi:insensitive="true">
      <path
         id="path26"
         style="display:inline;stroke-width:1"
         d="m 39.076417,62.425533 c 1.4427,0.02386 4.519373,3.138716 11.073076,10.36121 11.983893,13.206853 1.546541,8.427202 -3.853391,6.258189 -5.475549,-2.199386 -13.461107,3.039815 -6.966911,-10.282312 1.597467,-3.277028 -1.448157,-6.35685 -0.252774,-6.337087 z"
         sodipodi:nodetypes="sssss" />
      <path
         id="path27"
         style="display:inline;stroke-width:1"
         d="m 94.776284,62.425533 c -1.4427,0.02386 -4.519373,3.138716 -11.073076,10.36121 -11.983893,13.206853 -1.546541,8.427202 3.853391,6.258189 5.475549,-2.199386 13.461101,3.039815 6.966911,-10.282312 -1.597467,-3.277028 1.448157,-6.35685 0.252774,-6.337087 z"
         sodipodi:nodetypes="sssss" />
    </g>
    <path
       id="path31"
       style="mix-blend-mode:normal;fill:url(#linearGradient33);stroke-width:3.175;stroke-linecap:round;stroke-linejoin:round;stroke-miterlimit:12;paint-order:fill markers stroke;filter:url(#filter33)"
       d="m 57.87216,103.561 c -1.96778,0.1746 -3.37545,2.22194 -2.99219,4.1289 0.25393,1.38895 1.13914,3.03529 2.71238,3.13919 1.42113,0.0935 2.81738,0.38499 4.1297,0.9475 0.57682,0.26017 1.43168,0.36972 1.69698,-0.3738 0.71396,-1.5888 0.0613,-3.4142 -0.67773,-4.87695 -0.91584,-1.80177 -2.76085,-3.23059 -4.86914,-2.96484 z m 18.97656,-0.0195 c -2.3794,0.14872 -4.02115,2.26993 -4.70603,4.38283 -0.39442,1.2588 -0.73516,2.93597 0.32517,3.96482 0.95394,0.29912 1.86464,-0.43713 2.7816,-0.63301 1.27834,-0.50751 2.84008,-0.0866 3.9785,-0.9434 1.6321,-1.46754 2.03501,-4.38099 0.27329,-5.90939 -0.71411,-0.64457 -1.7011,-0.93096 -2.65253,-0.86185 z" />
    <g
       id="g51"
       inkscape:label="Ah White Eyebrow..."
       style="display:inline">
      <path
         style="display:none;fill:url(#linearGradient30);fill-rule:nonzero;stroke:none;stroke-width:0.105833;stroke-linecap:butt;stroke-linejoin:miter;stroke-dasharray:none;stroke-opacity:1"
         d="m 82.918519,59.745435 c 0.141027,-3.931908 -3.556389,-4.72685 -7.129652,-3.476042 2.785634,0.06305 5.446294,1.678316 2.247474,2.239345 5.597176,-0.921677 4.276166,6.94193 1.215555,9.659981 -3.060611,2.71805 -5.179928,7.891173 -5.179928,7.891173 0,0 4.705719,-4.912631 7.030174,-6.125487 2.324455,-1.212856 2.400145,-5.884123 4.348836,-7.723122 0.595144,-0.572761 1.195991,-2.834507 2.760188,-3.319707 0.559712,-0.173618 10.167114,-2.970464 14.392634,-1.560037 4.02824,1.344579 5.4337,7.54457 5.01425,11.22707 2.09943,-4.913537 -1.94847,-10.692457 -1.72703,-10.818544 0.73555,-0.418818 -6.211278,-2.129139 -2.79923,-2.729856 -2.7227,-1.354108 -10.584823,1.845454 -10.603586,0.985935 0.09269,-2.962211 -2.580003,-3.974814 -5.384549,-3.534644 5.668352,4.194627 -1.634702,2.007598 -4.185136,7.283935 z"
         id="path50"
         sodipodi:nodetypes="ccczczcsscscccc"
         sodipodi:insensitive="true" />
      <path
         style="display:none;fill:url(#linearGradient31);fill-rule:nonzero;stroke:none;stroke-width:0.105833;stroke-linecap:butt;stroke-linejoin:miter;stroke-dasharray:none;stroke-opacity:1"
         d="m 51.752415,59.745435 c -0.141027,-3.931908 3.556392,-4.72685 7.129649,-3.476042 -2.785627,0.06305 -5.446287,1.678316 -2.247467,2.239345 -5.59718,-0.921677 -4.27617,6.94193 -1.21556,9.659981 3.060607,2.71805 5.179927,7.891173 5.179927,7.891173 0,0 -4.705717,-4.912631 -7.030177,-6.125487 -2.32445,-1.212856 -2.40014,-5.884123 -4.348831,-7.723122 -0.595144,-0.572761 -1.195991,-2.834507 -2.760188,-3.319707 -0.559712,-0.173618 -10.167114,-2.970464 -14.392634,-1.560037 -4.02824,1.344579 -5.4337,7.54457 -5.01425,11.22707 -2.09943,-4.913537 1.94847,-10.692457 1.72703,-10.818544 -0.73555,-0.418818 6.211278,-2.129139 2.79923,-2.729856 2.7227,-1.354108 10.584823,1.845454 10.603586,0.985935 -0.09269,-2.962211 2.580003,-3.974814 5.384549,-3.534644 -5.668352,4.194627 1.634702,2.007598 4.185136,7.283935 z"
         id="path51"
         sodipodi:nodetypes="ccczczcsscscccc"
         sodipodi:insensitive="true" />
      <path
         id="path28"
         style="display:inline;opacity:0.2;fill:url(#linearGradient30);fill-rule:nonzero;stroke:none;stroke-width:0.105833;stroke-linecap:butt;stroke-linejoin:miter;stroke-dasharray:none;stroke-opacity:1"
         d="m 46.526875,52.365278 c -2.389129,-0.06056 -4.425024,1.038852 -4.343921,3.630787 -0.01876,0.859519 -7.881303,-2.340095 -10.604003,-0.985987 3.412048,0.600717 -3.534346,2.311248 -2.798796,2.730066 0.22144,0.126087 -3.826456,5.904924 -1.727026,10.818461 -0.41945,-3.6825 0.985924,-9.882642 5.014164,-11.227221 4.22552,-1.410427 13.832691,1.386493 14.392403,1.560111 1.564197,0.4852 2.164894,2.746933 2.760038,3.319694 1.948691,1.838999 2.024639,6.510187 4.349089,7.723043 2.32446,1.212856 7.030061,6.125724 7.030061,6.125724 0,0 -2.119438,-5.172941 -5.180045,-7.890991 -3.06061,-2.718051 -4.381234,-10.582069 1.215946,-9.660392 -3.19882,-0.561029 -0.538219,-2.17609 2.247408,-2.23914 -3.573257,-1.250808 -7.270824,-0.456151 -7.129797,3.475757 -2.550434,-5.276337 -9.853626,-3.089166 -4.185274,-7.283793 -0.350568,-0.05502 -0.698943,-0.08747 -1.040247,-0.09612 z m 41.617098,0 c -0.341305,0.0087 -0.689679,0.0411 -1.040247,0.09612 5.668352,4.194627 -1.63484,2.007456 -4.185274,7.283793 0.141027,-3.931908 -3.556534,-4.726565 -7.129797,-3.475757 2.785634,0.06305 5.446744,1.678111 2.247924,2.23914 5.597176,-0.921677 4.276041,6.942341 1.21543,9.660392 -3.060611,2.71805 -5.180045,7.890991 -5.180045,7.890991 0,0 4.705606,-4.912868 7.030061,-6.125724 2.324455,-1.212856 2.400398,-5.884044 4.349089,-7.723043 0.595144,-0.572761 1.195841,-2.834494 2.760038,-3.319694 0.559712,-0.173618 10.166883,-2.970538 14.392408,-1.560111 4.02824,1.344579 5.43413,7.544721 5.01468,11.227221 2.09943,-4.913537 -1.94847,-10.692374 -1.72703,-10.818461 0.73555,-0.418818 -6.211361,-2.129349 -2.79931,-2.730066 -2.7227,-1.354108 -10.584727,1.845506 -10.60349,0.985987 0.0811,-2.591935 -1.955308,-3.691349 -4.344437,-3.630788 z" />
      <path
         id="path52"
         style="display:inline;fill:url(#linearGradient30);fill-rule:nonzero;stroke:none;stroke-width:0.105833;stroke-linecap:butt;stroke-linejoin:miter;stroke-dasharray:none;stroke-opacity:1;filter:url(#filter57)"
         d="m 46.526875,52.365278 c -2.389129,-0.06056 -4.425024,1.038852 -4.343921,3.630787 -0.01876,0.859519 -7.881303,-2.340095 -10.604003,-0.985987 3.412048,0.600717 -3.534346,2.311248 -2.798796,2.730066 0.22144,0.126087 -3.826456,5.904924 -1.727026,10.818461 -0.41945,-3.6825 0.985924,-9.882642 5.014164,-11.227221 4.22552,-1.410427 13.832691,1.386493 14.392403,1.560111 1.564197,0.4852 2.164894,2.746933 2.760038,3.319694 1.948691,1.838999 2.024639,6.510187 4.349089,7.723043 2.32446,1.212856 7.030061,6.125724 7.030061,6.125724 0,0 -2.119438,-5.172941 -5.180045,-7.890991 -3.06061,-2.718051 -4.381234,-10.582069 1.215946,-9.660392 -3.19882,-0.561029 -0.538219,-2.17609 2.247408,-2.23914 -3.573257,-1.250808 -7.270824,-0.456151 -7.129797,3.475757 -2.550434,-5.276337 -9.853626,-3.089166 -4.185274,-7.283793 -0.350568,-0.05502 -0.698943,-0.08747 -1.040247,-0.09612 z m 41.617098,0 c -0.341305,0.0087 -0.689679,0.0411 -1.040247,0.09612 5.668352,4.194627 -1.63484,2.007456 -4.185274,7.283793 0.141027,-3.931908 -3.556534,-4.726565 -7.129797,-3.475757 2.785634,0.06305 5.446744,1.678111 2.247924,2.23914 5.597176,-0.921677 4.276041,6.942341 1.21543,9.660392 -3.060611,2.71805 -5.180045,7.890991 -5.180045,7.890991 0,0 4.705606,-4.912868 7.030061,-6.125724 2.324455,-1.212856 2.400398,-5.884044 4.349089,-7.723043 0.595144,-0.572761 1.195841,-2.834494 2.760038,-3.319694 0.559712,-0.173618 10.166883,-2.970538 14.392408,-1.560111 4.02824,1.344579 5.43413,7.544721 5.01468,11.227221 2.09943,-4.913537 -1.94847,-10.692374 -1.72703,-10.818461 0.73555,-0.418818 -6.211361,-2.129349 -2.79931,-2.730066 -2.7227,-1.354108 -10.584727,1.845506 -10.60349,0.985987 0.0811,-2.591935 -1.955308,-3.691349 -4.344437,-3.630788 z" />
      <path
         id="path53"
         style="display:inline;mix-blend-mode:normal;fill:url(#linearGradient55);fill-rule:nonzero;stroke:none;stroke-width:0.105833;stroke-linecap:butt;stroke-linejoin:miter;stroke-dasharray:none;stroke-opacity:1;filter:url(#filter55)"
         d="m 90.058594,53.917969 c 0.514958,0.90435 -0.01188,2.029694 -0.927358,2.419305 -1.46184,0.844509 -3.210261,1.185616 -4.34608,2.541632 -0.799221,0.908559 -1.329508,2.069907 -1.8676,3.101805 0.01446,2.282796 -0.871809,4.561612 -2.325759,6.312258 -0.595289,0.736479 -1.36884,1.302875 -1.943359,2.05664 0.770157,-0.690131 1.74728,-1.120124 2.493429,-1.819238 1.462483,-1.862408 1.527479,-4.43431 2.951589,-6.328592 0.667424,-0.755354 1.123044,-1.642711 1.640919,-2.500607 0.666054,-1.106295 1.789345,-1.893542 3.07541,-2.070316 0.996296,-0.275211 2.074799,-0.514911 3.032012,-0.763668 -0.765326,-0.637778 -0.137299,-1.771485 -0.853516,-2.447266 -0.284299,-0.335456 -0.657548,-0.595785 -1.068359,-0.751953 0.04622,0.08333 0.09245,0.166666 0.138672,0.25 z M 44.595703,53.734375 C 43.695297,54.095202 43.13049,55.039309 43.259766,56 c 0.107457,0.40085 -0.760063,0.951703 -0.140625,0.953125 1.554988,0.43839 3.259519,0.56532 4.649682,1.446866 1.330738,0.951878 1.696517,2.685101 2.829177,3.813426 1.43085,1.969263 1.483998,4.65108 3.101068,6.49707 0.725341,0.546471 1.523969,0.988132 2.240385,1.547325 -0.978859,-1.185606 -2.260711,-2.126129 -2.940047,-3.542722 -0.862387,-1.501891 -1.214673,-3.247798 -1.321035,-4.943337 -0.823754,-1.493099 -1.600134,-3.182878 -3.18948,-4.021164 -1.257906,-0.798243 -2.976246,-0.990511 -3.887329,-2.258401 -0.321603,-0.570594 -0.192758,-1.284509 0.142579,-1.81836 l -0.09259,0.03777 z m -11.066406,2.064453 c -0.137047,0.416572 0.796136,-0.01773 1.063826,0.103442 0.611144,-0.0071 0.883139,-0.0119 0.06479,-0.09118 -0.334528,0.01045 -0.887532,-0.183956 -1.128613,-0.01226 z m 67.083983,-0.04687 c -0.28628,0.01464 -1.42687,0.129612 -1.071517,0.136922 0.508857,-0.03081 1.216777,0.06112 1.624257,0.02128 0.0464,-0.339926 -0.36992,-0.103496 -0.55274,-0.158203 z m -20.224608,1.318359 c 0.114895,0.436217 0.229487,0.741056 0.701034,0.878827 0.22428,0.06653 0.813519,0.809317 0.492325,0.193439 -0.212348,-0.512659 -0.705324,-0.882156 -1.193359,-1.072266 z m -26.269531,0.07422 c -0.531452,0.257824 -0.995601,0.709861 -1.150391,1.292969 0.295937,-0.387806 0.867232,-0.571085 1.173828,-0.833984 -0.09112,-0.104418 0.211204,-0.648813 -0.02344,-0.458985 z" />
      <path
         id="path54"
         style="display:inline;fill:url(#linearGradient54);fill-rule:nonzero;stroke:none;stroke-width:0.105833;stroke-linecap:butt;stroke-linejoin:miter;stroke-dasharray:none;stroke-opacity:1;filter:url(#filter56)"
         d="m 45.697266,52.925781 c -1.411858,0.06949 -2.911989,1.038284 -2.96647,2.56702 0.08941,0.559542 -0.15505,1.24236 -0.826812,1.179112 -2.256889,-0.227799 -4.416077,-1.046519 -6.670786,-1.323844 -0.722122,-0.08879 -1.549278,-0.21237 -2.221479,-0.107835 0.225941,0.905418 -0.876342,1.314519 -1.524697,1.643743 -0.704128,0.368054 -1.550789,0.579955 -2.186241,1.016414 -0.216488,0.633878 -0.588322,1.203835 -0.849609,1.820312 1.063442,-1.800732 2.962729,-3.102701 5.075806,-3.228422 3.644406,-0.317824 7.279376,0.460178 10.809919,1.282226 1.331723,0.396985 2.950167,0.490708 3.81456,1.739804 0.730139,0.883607 1.053846,2.039011 1.896824,2.83522 1.502887,2.00629 1.568372,4.756834 3.195848,6.680572 0.866879,0.688807 1.889095,1.18129 2.713369,1.941422 0.958386,0.793308 1.876911,1.634285 2.776877,2.493319 -1.081274,-1.991118 -2.441693,-3.836779 -4.124188,-5.359452 -1.505327,-1.720612 -2.352379,-4.018927 -2.356281,-6.302658 -0.02698,-1.401078 0.649265,-3.18453 2.168928,-3.670767 0.541106,-0.0168 0.01852,-0.685431 0.401385,-0.965951 0.322585,-0.448197 0.837831,-0.706329 1.339843,-0.904297 -1.498104,-0.123936 -3.32999,0.501795 -3.730597,2.115683 -0.278181,1.087005 -0.110626,2.225668 -0.185418,3.335489 -0.872599,-1.51283 -1.572872,-3.260958 -3.150625,-4.191258 -1.166681,-0.861693 -2.696977,-1.085202 -3.816037,-2.00303 -0.805426,-0.785358 -0.01058,-1.87745 0.669787,-2.432665 0.494835,-0.356526 -0.04589,-0.117805 -0.253906,-0.160157 z m 43.023437,0.160157 c 0.652499,0.548736 1.439932,1.563096 0.728516,2.371093 -1.059136,0.951064 -2.576187,1.150764 -3.732422,1.96875 -1.371377,0.781156 -2.176578,2.168551 -2.870288,3.529625 -0.411268,0.958492 -0.499327,0.64455 -0.444312,-0.232654 0.02142,-1.314305 0.07873,-2.929826 -1.139357,-3.773706 -0.78542,-0.58199 -1.802406,-0.720683 -2.755028,-0.687327 0.751523,0.257631 1.727176,0.888147 1.484376,1.783203 1.620016,0.398574 2.513035,2.194008 2.384765,3.748047 0.11609,1.154359 -0.231987,2.436303 -0.651954,3.553062 -0.555322,1.53256 -1.589909,2.826071 -2.805712,3.889056 -1.186564,1.247601 -2.176724,2.790343 -2.98374,4.23171 1.634061,-1.549002 3.30441,-3.104049 5.265625,-4.228516 1.430946,-1.347442 1.690984,-3.424613 2.472736,-5.146093 0.347006,-0.955418 0.943551,-1.782388 1.605191,-2.535873 0.725207,-1.33356 1.509282,-2.980192 3.169823,-3.283882 3.866788,-1.037886 7.841922,-1.945705 11.869438,-1.846652 1.93732,0.01893 3.923,0.731379 5.15561,2.28346 0.27771,0.314441 0.52526,0.655264 0.74673,1.011462 -0.26822,-0.633711 -0.65876,-1.228248 -0.87109,-1.876953 -1.18821,-0.653045 -2.66608,-0.904448 -3.60938,-1.931641 -0.23441,-0.411302 0.0971,-0.915916 -0.61914,-0.710937 -2.83448,0.05288 -5.515418,1.131204 -8.304684,1.472656 -0.632067,0.0781 -0.994812,-0.532529 -0.867187,-1.105469 -0.01889,-1.526085 -1.479068,-2.550941 -2.89685,-2.630442 -0.235853,-0.02317 -0.799538,-0.132697 -0.331666,0.148021 z" />
    </g>
  </g>
</svg>
