<?xml version="1.0" encoding="UTF-8" standalone="no"?>
<!-- Created with Inkscape (http://www.inkscape.org/) -->

<svg
   width="512"
   height="512"
   viewBox="0 0 135.46666 135.46667"
   version="1.1"
   id="svg5"
   inkscape:version="1.3.2 (091e20ef0f, 2023-11-25, custom)"
   sodipodi:docname="gedit.svg"
   xmlns:inkscape="http://www.inkscape.org/namespaces/inkscape"
   xmlns:sodipodi="http://sodipodi.sourceforge.net/DTD/sodipodi-0.dtd"
   xmlns:xlink="http://www.w3.org/1999/xlink"
   xmlns="http://www.w3.org/2000/svg"
   xmlns:svg="http://www.w3.org/2000/svg">
  <sodipodi:namedview
     id="namedview7"
     pagecolor="#242424"
     bordercolor="#666666"
     borderopacity="1"
     inkscape:showpageshadow="0"
     inkscape:pageopacity="0"
     inkscape:pagecheckerboard="1"
     inkscape:deskcolor="#000000"
     inkscape:document-units="px"
     showgrid="false"
     inkscape:zoom="1.4142136"
     inkscape:cx="353.90694"
     inkscape:cy="282.13561"
     inkscape:window-width="3256"
     inkscape:window-height="1080"
     inkscape:window-x="1864"
     inkscape:window-y="0"
     inkscape:window-maximized="0"
     inkscape:current-layer="layer1" />
  <defs
     id="defs2">
    <inkscape:path-effect
       effect="fillet_chamfer"
       id="path-effect102"
       is_visible="true"
       lpeversion="1"
       nodesatellites_param="F,0,0,1,0,0,0,1 @ F,0,1,1,0,4,0,1 @ F,0,1,1,0,4,0,1 @ F,0,0,1,0,0,0,1 | F,0,0,1,0,0,0,1 @ F,0,0,1,0,0,0,1 @ F,0,0,1,0,0,0,1 @ F,0,0,1,0,0,0,1 | F,0,0,1,0,0,0,1 @ F,0,0,1,0,0,0,1 @ F,0,0,1,0,0,0,1 @ F,0,0,1,0,0,0,1 | F,0,0,1,0,0,0,1 @ F,0,0,1,0,0,0,1 @ F,0,0,1,0,0,0,1 @ F,0,0,1,0,0,0,1 | F,0,0,1,0,0,0,1 @ F,0,0,1,0,0,0,1 @ F,0,0,1,0,0,0,1 @ F,0,0,1,0,0,0,1 | F,0,0,1,0,0,0,1 @ F,0,0,1,0,0,0,1 @ F,0,0,1,0,0,0,1 @ F,0,0,1,0,0,0,1 | F,0,0,1,0,0,0,1 @ F,0,0,1,0,0,0,1 @ F,0,0,1,0,0,0,1 @ F,0,0,1,0,0,0,1 | F,0,0,1,0,0,0,1 @ F,0,0,1,0,0,0,1 @ F,0,0,1,0,0,0,1 @ F,0,0,1,0,0,0,1 | F,0,0,1,0,0,0,1 @ F,0,0,1,0,0,0,1 @ F,0,0,1,0,0,0,1 @ F,0,0,1,0,0,0,1 | F,0,0,1,0,0,0,1 @ F,0,0,1,0,0,0,1 @ F,0,0,1,0,0,0,1 @ F,0,0,1,0,0,0,1"
       radius="4"
       unit="px"
       method="auto"
       mode="F"
       chamfer_steps="1"
       flexible="false"
       use_knot_distance="true"
       apply_no_radius="true"
       apply_with_radius="true"
       only_selected="true"
       hide_knots="false" />
    <linearGradient
       id="linearGradient55"
       inkscape:collect="always">
      <stop
         style="stop-color:#000000;stop-opacity:1;"
         offset="0"
         id="stop55" />
      <stop
         style="stop-color:#c3c3c3;stop-opacity:0;"
         offset="1"
         id="stop56" />
    </linearGradient>
    <linearGradient
       id="linearGradient9"
       inkscape:collect="always">
      <stop
         style="stop-color:#ffffff;stop-opacity:1;"
         offset="0"
         id="stop9" />
      <stop
         style="stop-color:#000000;stop-opacity:1;"
         offset="1"
         id="stop10" />
    </linearGradient>
    <linearGradient
       id="linearGradient5"
       inkscape:collect="always">
      <stop
         style="stop-color:#dccd8f;stop-opacity:1;"
         offset="0"
         id="stop6" />
      <stop
         style="stop-color:#a47c62;stop-opacity:1;"
         offset="1"
         id="stop5" />
    </linearGradient>
    <linearGradient
       inkscape:collect="always"
       xlink:href="#linearGradient5"
       id="linearGradient6"
       x1="-41.383888"
       y1="115.86801"
       x2="-21.53187"
       y2="115.86801"
       gradientUnits="userSpaceOnUse"
       gradientTransform="translate(46.675557,3.4639867)" />
    <linearGradient
       inkscape:collect="always"
       xlink:href="#linearGradient9"
       id="linearGradient10"
       x1="-163.06963"
       y1="47.678485"
       x2="-143.21761"
       y2="47.678485"
       gradientUnits="userSpaceOnUse"
       gradientTransform="translate(168.3613,20.041469)" />
    <linearGradient
       inkscape:collect="always"
       xlink:href="#linearGradient55"
       id="linearGradient56"
       x1="-83.333984"
       y1="-11.788086"
       x2="-64.832031"
       y2="-11.788086"
       gradientUnits="userSpaceOnUse"
       gradientTransform="translate(110.81942,25.984953)" />
    <linearGradient
       inkscape:collect="always"
       xlink:href="#linearGradient55"
       id="linearGradient57"
       gradientUnits="userSpaceOnUse"
       gradientTransform="translate(121.40232,25.984953)"
       x1="-83.333984"
       y1="-11.788086"
       x2="-64.832031"
       y2="-11.788086" />
    <linearGradient
       inkscape:collect="always"
       xlink:href="#linearGradient55"
       id="linearGradient58"
       gradientUnits="userSpaceOnUse"
       gradientTransform="translate(131.98566,25.984953)"
       x1="-83.333984"
       y1="-11.788086"
       x2="-64.832031"
       y2="-11.788086" />
    <linearGradient
       inkscape:collect="always"
       xlink:href="#linearGradient55"
       id="linearGradient59"
       gradientUnits="userSpaceOnUse"
       gradientTransform="translate(142.569,25.984953)"
       x1="-83.333984"
       y1="-11.788086"
       x2="-64.832031"
       y2="-11.788086" />
    <linearGradient
       inkscape:collect="always"
       xlink:href="#linearGradient55"
       id="linearGradient60"
       gradientUnits="userSpaceOnUse"
       gradientTransform="translate(153.15234,25.984953)"
       x1="-83.333984"
       y1="-11.788086"
       x2="-64.832031"
       y2="-11.788086" />
    <linearGradient
       inkscape:collect="always"
       xlink:href="#linearGradient55"
       id="linearGradient61"
       gradientUnits="userSpaceOnUse"
       gradientTransform="translate(163.73568,25.984953)"
       x1="-83.333984"
       y1="-11.788086"
       x2="-64.832031"
       y2="-11.788086" />
    <linearGradient
       inkscape:collect="always"
       xlink:href="#linearGradient55"
       id="linearGradient62"
       gradientUnits="userSpaceOnUse"
       gradientTransform="translate(174.31902,25.984953)"
       x1="-83.333984"
       y1="-11.788086"
       x2="-64.832031"
       y2="-11.788086" />
    <linearGradient
       inkscape:collect="always"
       xlink:href="#linearGradient55"
       id="linearGradient63"
       gradientUnits="userSpaceOnUse"
       gradientTransform="translate(184.90236,25.984953)"
       x1="-83.333984"
       y1="-11.788086"
       x2="-64.832031"
       y2="-11.788086" />
    <linearGradient
       inkscape:collect="always"
       xlink:href="#linearGradient55"
       id="linearGradient64"
       gradientUnits="userSpaceOnUse"
       gradientTransform="translate(195.4857,25.984953)"
       x1="-83.333984"
       y1="-11.788086"
       x2="-64.832031"
       y2="-11.788086" />
    <filter
       inkscape:collect="always"
       style="color-interpolation-filters:sRGB"
       id="filter110"
       x="-0.14185622"
       y="-0.034264742"
       width="1.2837124"
       height="1.0685295">
      <feGaussianBlur
         inkscape:collect="always"
         stdDeviation="0.3677529"
         id="feGaussianBlur110" />
    </filter>
  </defs>
  <g
     inkscape:label="Layer 1"
     inkscape:groupmode="layer"
     id="layer1">
    <rect
       style="fill:#ffcc00;fill-opacity:1;stroke:none;stroke-width:0.264583;stroke-linecap:round;stroke-linejoin:round;paint-order:markers stroke fill"
       id="rect2"
       width="19.852018"
       height="73.169083"
       x="5.2916689"
       y="33.283684" />
    <path
       id="path3"
       style="fill:#e9afaf;stroke-width:0.264583;stroke-linecap:round;stroke-linejoin:round;paint-order:markers stroke fill"
       d="m 25.143687,15.053279 c 0,3.265125 0,18.230406 0,18.230406 H 5.291669 c 0,0 -2e-6,-14.965281 -2e-6,-18.230406 0,-6.5302513 4.444026,-11.8240659 9.92601,-11.8240659 5.481984,0 9.92601,5.2938146 9.92601,11.8240659 z"
       sodipodi:nodetypes="sccsss" />
    <rect
       style="fill:#b3b3b3;fill-opacity:1;stroke:none;stroke-width:0.264583;stroke-linecap:round;stroke-linejoin:round;paint-order:markers stroke fill"
       id="rect3"
       width="19.852018"
       height="13.47683"
       x="5.2916689"
       y="19.806858" />
    <path
       id="rect4"
       style="fill:url(#linearGradient6);stroke:none;stroke-width:0.264583;stroke-linecap:round;stroke-linejoin:round;paint-order:markers stroke fill"
       d="m 5.291669,106.45277 h 19.852018 l -9.926009,25.75846 z"
       sodipodi:nodetypes="cccc" />
    <rect
       style="fill:#ffff00;fill-opacity:1;stroke:none;stroke-width:0.264583;stroke-linecap:round;stroke-linejoin:round;paint-order:markers stroke fill"
       id="rect6"
       width="6.3499999"
       height="73.169083"
       x="5.2916689"
       y="33.283684" />
    <rect
       style="fill:#d4aa00;fill-opacity:1;stroke:none;stroke-width:0.264583;stroke-linecap:round;stroke-linejoin:round;paint-order:markers stroke fill"
       id="rect7"
       width="6.3499999"
       height="73.169083"
       x="18.793688"
       y="33.283688" />
    <path
       id="path110"
       style="opacity:0.4;fill:#786721;stroke:none;stroke-width:0.264583;stroke-linecap:round;stroke-linejoin:round;paint-order:markers stroke fill;filter:url(#filter110)"
       d="m 21.43952,106.45277 h -4.634342 l -1.5875,25.75846 z"
       sodipodi:nodetypes="cccc" />
    <path
       id="path7"
       style="fill:#666666;stroke:none;stroke-width:0.264583;stroke-linecap:round;stroke-linejoin:round;paint-order:markers stroke fill"
       d="m 17.69918,125.798 -2.481502,6.43961 -2.481502,-6.43961 z"
       sodipodi:nodetypes="cccc" />
    <path
       id="path8"
       style="display:inline;mix-blend-mode:soft-light;fill:url(#linearGradient10);stroke-width:0.264583;stroke-linecap:round;stroke-linejoin:round;paint-order:markers stroke fill"
       d="m 15.217677,3.2290583 c -5.481987,0 -9.926007,5.29384 -9.926007,11.8240847 v 4.753715 13.476696 H 25.143687 V 19.806858 15.053143 c 0,-6.5302447 -4.44404,-11.8240847 -9.92601,-11.8240847 z M 5.29167,106.45273 l 9.926007,25.75813 9.92601,-25.75813 z" />
    <circle
       style="display:none;fill:#666666;stroke-width:3.175;stroke-linecap:round;stroke-linejoin:round;paint-order:markers stroke fill"
       id="circle9"
       cx="142.50946"
       cy="0"
       r="3.7041667"
       sodipodi:insensitive="true" />
    <path
       id="rect1"
       style="fill:#efeeec;fill-opacity:1;stroke:none;stroke-width:0.264583;stroke-linecap:round;stroke-linejoin:round;paint-order:markers stroke fill"
       d="M 28.879374,17.435365 V 130.64577 a 4,4 0 0 0 4,4 H 126.175 a 4,4 0 0 0 4,-4 V 17.435365 Z m 8.314221,4.391463 c 2.045755,0 3.704167,1.658412 3.704167,3.704167 0,2.045755 -1.658412,3.704166 -3.704167,3.704166 -2.045755,0 -3.704167,-1.658411 -3.704167,-3.704166 0,-2.045755 1.658412,-3.704167 3.704167,-3.704167 z m 10.583333,0 c 2.045755,0 3.704167,1.658412 3.704167,3.704167 0,2.045755 -1.658412,3.704166 -3.704167,3.704166 -2.045754,0 -3.704166,-1.658412 -3.704166,-3.704166 0,-2.045755 1.658411,-3.704167 3.704166,-3.704167 z m 10.583333,0 c 2.045755,0 3.704167,1.658412 3.704167,3.704167 0,2.045755 -1.658412,3.704166 -3.704167,3.704166 -2.045754,0 -3.704166,-1.658412 -3.704166,-3.704166 0,-2.045755 1.658411,-3.704167 3.704166,-3.704167 z m 10.583334,0 c 2.045755,0 3.704166,1.658412 3.704166,3.704167 0,2.045754 -1.658412,3.704166 -3.704166,3.704166 -2.045755,0 -3.704167,-1.658411 -3.704167,-3.704166 0,-2.045755 1.658412,-3.704167 3.704167,-3.704167 z m 10.583333,0 c 2.045755,0 3.704166,1.658412 3.704166,3.704167 0,2.045754 -1.658412,3.704166 -3.704166,3.704166 -2.045755,0 -3.704167,-1.658411 -3.704167,-3.704166 0,-2.045755 1.658412,-3.704167 3.704167,-3.704167 z m 10.583333,0 c 2.045755,0 3.704167,1.658412 3.704167,3.704167 0,2.045755 -1.658412,3.704166 -3.704167,3.704166 -2.045755,0 -3.704167,-1.658411 -3.704167,-3.704166 0,-2.045755 1.658412,-3.704167 3.704167,-3.704167 z m 10.583329,0 c 2.04576,-2e-6 3.70417,1.658411 3.70417,3.704167 0,2.045756 -1.65841,3.704168 -3.70417,3.704166 -2.045753,-3e-6 -3.704162,-1.658413 -3.704162,-3.704166 0,-2.045753 1.658409,-3.704164 3.704162,-3.704167 z m 10.58334,0 c 2.04575,4e-6 3.70416,1.658415 3.70416,3.704167 0,2.045752 -1.65841,3.704162 -3.70416,3.704166 -2.04576,2e-6 -3.70417,-1.65841 -3.70417,-3.704166 0,-2.045756 1.65841,-3.704169 3.70417,-3.704167 z m 10.58333,0 c 2.04576,-2e-6 3.70417,1.658411 3.70417,3.704167 0,2.045756 -1.65841,3.704168 -3.70417,3.704166 -2.04576,2e-6 -3.70417,-1.65841 -3.70417,-3.704166 0,-2.045756 1.65841,-3.704169 3.70417,-3.704167 z" />
    <ellipse
       style="fill:none;stroke:#999999;stroke-width:3.175;stroke-linecap:round;stroke-linejoin:round;stroke-opacity:1;paint-order:markers stroke fill"
       id="ellipse46"
       cx="121.40266"
       cy="14.196866"
       rx="7.6632299"
       ry="11.788539" />
    <path
       style="color:#000000;opacity:0.2;fill:url(#linearGradient64);stroke-linecap:round;stroke-linejoin:round;-inkscape-stroke:none;paint-order:markers stroke fill"
       d="m 121.40169,0.8208903 c -2.77605,-10e-7 -5.16213,1.731159 -6.75001,4.173828 -1.58787,2.442668 -2.5,5.6670017 -2.5,9.2011717 0,3.53417 0.91213,6.758503 2.5,9.201172 1.58788,2.442669 3.97396,4.175781 6.75001,4.175781 2.77604,0 5.16212,-1.733112 6.75,-4.175781 1.58788,-2.442669 2.50196,-5.667002 2.50196,-9.201172 0,-3.53417 -0.91408,-6.7585037 -2.50196,-9.2011717 -1.58788,-2.442669 -3.97396,-4.173828 -6.75,-4.173828 z m 0,3.173828 c 1.45624,0 2.90222,0.906529 4.08789,2.730468 1.18567,1.823938 1.98828,4.4942487 1.98828,7.4707037 0,2.976454 -0.80261,5.646764 -1.98828,7.470703 -1.18567,1.823939 -2.63165,2.730469 -4.08789,2.730469 -1.45624,0 -2.90223,-0.90653 -4.08789,-2.730469 -1.18567,-1.823939 -1.98634,-4.494249 -1.98634,-7.470703 0,-2.976455 0.80067,-5.6467657 1.98634,-7.4707037 1.18566,-1.823939 2.63165,-2.730468 4.08789,-2.730468 z"
       id="path63" />
    <path
       id="path71"
       style="fill:#efeeec;fill-opacity:1;stroke:none;stroke-width:0.264583;stroke-linecap:round;stroke-linejoin:round;paint-order:markers stroke fill"
       d="m 113.54605,17.435365 v 5.169193 a 3.7041667,3.7041667 0 0 1 1.43506,2.926437 3.7041667,3.7041667 0 0 1 -1.43506,2.916617 v 5.656503 h 13.7201 v -4.452442 c -0.74981,-0.503077 -1.81245,-1.217886 -2.55178,-1.768367 a 3.7041667,3.7041667 0 0 1 -0.20723,0.225826 c -0.0367,0.03783 -0.0734,0.07538 -0.11162,0.111621 a 3.7041667,3.7041667 0 0 1 -0.20515,0.181384 c -0.0891,0.07273 -0.18082,0.142392 -0.27647,0.206706 a 3.7041667,3.7041667 0 0 1 -0.0868,0.05788 c -0.12883,0.08145 -0.26311,0.154341 -0.40204,0.219625 a 3.7041667,3.7041667 0 0 1 -0.0574,0.02584 c -0.14981,0.06728 -0.30442,0.126062 -0.46406,0.173117 -0.16166,0.04765 -0.32854,0.08329 -0.49868,0.10852 a 3.7041667,3.7041667 0 0 1 -0.0351,0.0047 c -0.16669,0.02308 -0.33637,0.03669 -0.50953,0.03669 -0.16197,0 -0.32048,-0.01394 -0.47697,-0.03411 a 3.7041667,3.7041667 0 0 1 -0.1142,-0.01757 c -0.14002,-0.02251 -0.27757,-0.05166 -0.41187,-0.0894 a 3.7041667,3.7041667 0 0 1 -0.0537,-0.01395 c -0.15685,-0.04663 -0.30843,-0.103928 -0.45581,-0.170016 a 3.7041667,3.7041667 0 0 1 -0.0708,-0.03411 c -0.1293,-0.06133 -0.25462,-0.129299 -0.37516,-0.204639 a 3.7041667,3.7041667 0 0 1 -0.0631,-0.03876 c -0.13261,-0.0866 -0.25922,-0.181296 -0.37931,-0.283704 a 3.7041667,3.7041667 0 0 1 -0.0677,-0.0615 c -0.10127,-0.09075 -0.19708,-0.186565 -0.28784,-0.287837 a 3.7041667,3.7041667 0 0 1 -0.0615,-0.0677 c -0.10241,-0.120089 -0.1971,-0.246705 -0.2837,-0.379305 a 3.7041667,3.7041667 0 0 1 -0.0388,-0.06305 c -0.0753,-0.12054 -0.14331,-0.245867 -0.20464,-0.375171 a 3.7041667,3.7041667 0 0 1 -0.0341,-0.0708 c -0.0661,-0.147379 -0.12338,-0.298953 -0.17001,-0.455786 a 3.7041667,3.7041667 0 0 1 -0.0139,-0.05374 c -0.0377,-0.134299 -0.0669,-0.271849 -0.0894,-0.411861 a 3.7041667,3.7041667 0 0 1 -0.0176,-0.114205 c -0.0202,-0.156489 -0.0341,-0.314999 -0.0341,-0.476973 0,-0.161976 0.0139,-0.320485 0.0341,-0.476974 a 3.7041667,3.7041667 0 0 1 0.0176,-0.114205 c 0.0225,-0.140012 0.0517,-0.277562 0.0894,-0.411861 a 3.7041667,3.7041667 0 0 1 0.0139,-0.05374 c 0.0466,-0.156835 0.10392,-0.308408 0.17001,-0.455787 a 3.7041667,3.7041667 0 0 1 0.0341,-0.0708 c 0.0613,-0.129304 0.1293,-0.254631 0.20464,-0.375171 a 3.7041667,3.7041667 0 0 1 0.0388,-0.06305 c 0.0866,-0.132602 0.18129,-0.259218 0.2837,-0.379305 a 3.7041667,3.7041667 0 0 1 0.0615,-0.0677 c 0.0907,-0.101271 0.18657,-0.197083 0.28784,-0.287837 a 3.7041667,3.7041667 0 0 1 0.0677,-0.0615 c 0.12009,-0.102408 0.2467,-0.197101 0.37931,-0.283704 a 3.7041667,3.7041667 0 0 1 0.0631,-0.03876 c 0.12054,-0.07534 0.24586,-0.143309 0.37516,-0.204639 a 3.7041667,3.7041667 0 0 1 0.0708,-0.03411 c 0.14738,-0.06609 0.29896,-0.123386 0.45579,-0.170016 a 3.7041667,3.7041667 0 0 1 0.0537,-0.01395 c 0.1343,-0.03774 0.27185,-0.06689 0.41187,-0.0894 a 3.7041667,3.7041667 0 0 1 0.1142,-0.01757 c 0.15649,-0.02016 0.315,-0.03411 0.47697,-0.03411 a 3.7041667,3.7041667 0 0 1 0.20103,0.0062 c 0.0279,0.0015 0.0555,0.0041 0.0832,0.0062 a 3.7041667,3.7041667 0 0 1 0.11575,0.01034 c 0.0324,0.0035 0.0645,0.0076 0.0966,0.01188 a 3.7041667,3.7041667 0 0 1 0.0972,0.01447 c 0.035,0.0057 0.0698,0.01144 0.10439,0.01809 a 3.7041667,3.7041667 0 0 1 0.0946,0.01964 c 0.0249,0.0055 0.0502,0.01005 0.0749,0.01602 0.007,0.0016 0.0134,0.004 0.0202,0.0057 a 3.7041667,3.7041667 0 0 1 0.13849,0.03772 c 0.0159,0.0046 0.0323,0.0081 0.0481,0.01292 a 3.7041667,3.7041667 0 0 1 0.0238,0.0078 3.7041667,3.7041667 0 0 1 0.17208,0.05839 c 0.002,6.19e-4 0.003,8.8e-4 0.005,0.0016 a 3.7041667,3.7041667 0 0 1 0.0196,0.0078 3.7041667,3.7041667 0 0 1 0.16485,0.06615 c 0.009,0.0039 0.0179,0.0079 0.0269,0.01188 a 3.7041667,3.7041667 0 0 1 0.17467,0.08217 3.7041667,3.7041667 0 0 1 0.69711,0.453719 l 1.47898,-5.23999 z" />
    <ellipse
       style="fill:none;stroke:#9e9e9e;stroke-width:3.175;stroke-linecap:round;stroke-linejoin:round;stroke-opacity:1;paint-order:markers stroke fill"
       id="ellipse45"
       cx="110.81934"
       cy="14.196866"
       rx="7.6632299"
       ry="11.788539" />
    <path
       style="color:#000000;opacity:0.2;fill:url(#linearGradient63);stroke-linecap:round;stroke-linejoin:round;-inkscape-stroke:none;paint-order:markers stroke fill"
       d="m 110.81835,0.8208903 c -2.77605,-10e-7 -5.16213,1.731159 -6.75001,4.173828 -1.58787,2.442668 -2.5,5.6670017 -2.5,9.2011717 0,3.53417 0.91213,6.758503 2.5,9.201172 1.58788,2.442669 3.97396,4.175781 6.75001,4.175781 2.77604,0 5.16212,-1.733112 6.75,-4.175781 1.58788,-2.442669 2.50196,-5.667002 2.50196,-9.201172 0,-3.53417 -0.91408,-6.7585037 -2.50196,-9.2011717 -1.58788,-2.442669 -3.97396,-4.173828 -6.75,-4.173828 z m 0,3.173828 c 1.45624,0 2.90222,0.906529 4.08789,2.730468 1.18567,1.823938 1.98828,4.4942487 1.98828,7.4707037 0,2.976454 -0.80261,5.646764 -1.98828,7.470703 -1.18567,1.823939 -2.63165,2.730469 -4.08789,2.730469 -1.45624,0 -2.90223,-0.90653 -4.08789,-2.730469 -1.18567,-1.823939 -1.98634,-4.494249 -1.98634,-7.470703 0,-2.976455 0.80067,-5.6467657 1.98634,-7.4707037 1.18566,-1.823939 2.63165,-2.730468 4.08789,-2.730468 z"
       id="path62" />
    <path
       id="path70"
       style="fill:#efeeec;fill-opacity:1;stroke:none;stroke-width:0.264583;stroke-linecap:round;stroke-linejoin:round;paint-order:markers stroke fill"
       d="m 102.96271,17.435365 v 5.169193 a 3.7041667,3.7041667 0 0 1 1.43506,2.926437 3.7041667,3.7041667 0 0 1 -1.43506,2.916617 v 5.656503 h 13.7201 v -4.452442 c -0.74981,-0.503077 -1.81245,-1.217886 -2.55178,-1.768367 a 3.7041667,3.7041667 0 0 1 -0.20723,0.225826 c -0.0367,0.03783 -0.0734,0.07538 -0.11162,0.111621 a 3.7041667,3.7041667 0 0 1 -0.20515,0.181384 c -0.0891,0.07273 -0.18082,0.142392 -0.27647,0.206706 a 3.7041667,3.7041667 0 0 1 -0.0868,0.05788 c -0.12883,0.08145 -0.26311,0.154341 -0.40204,0.219625 a 3.7041667,3.7041667 0 0 1 -0.0574,0.02584 c -0.14981,0.06728 -0.30442,0.126062 -0.46406,0.173117 -0.16166,0.04765 -0.32854,0.08329 -0.49868,0.10852 a 3.7041667,3.7041667 0 0 1 -0.0351,0.0047 c -0.16669,0.02308 -0.33637,0.03669 -0.50953,0.03669 -0.16197,0 -0.32048,-0.01394 -0.47697,-0.03411 a 3.7041667,3.7041667 0 0 1 -0.1142,-0.01757 c -0.14002,-0.02251 -0.27757,-0.05166 -0.41187,-0.0894 a 3.7041667,3.7041667 0 0 1 -0.0537,-0.01395 c -0.15685,-0.04663 -0.30843,-0.103928 -0.45581,-0.170016 a 3.7041667,3.7041667 0 0 1 -0.0708,-0.03411 c -0.1293,-0.06133 -0.25462,-0.129299 -0.37516,-0.204639 a 3.7041667,3.7041667 0 0 1 -0.0631,-0.03876 c -0.13261,-0.0866 -0.25922,-0.181296 -0.37931,-0.283704 a 3.7041667,3.7041667 0 0 1 -0.0677,-0.0615 c -0.10127,-0.09075 -0.19708,-0.186565 -0.28784,-0.287837 a 3.7041667,3.7041667 0 0 1 -0.0615,-0.0677 c -0.10241,-0.120089 -0.1971,-0.246705 -0.2837,-0.379305 a 3.7041667,3.7041667 0 0 1 -0.0388,-0.06305 c -0.0753,-0.12054 -0.14331,-0.245867 -0.20464,-0.375171 a 3.7041667,3.7041667 0 0 1 -0.0341,-0.0708 c -0.0661,-0.147379 -0.12338,-0.298953 -0.17001,-0.455786 a 3.7041667,3.7041667 0 0 1 -0.0139,-0.05374 c -0.0377,-0.134299 -0.0669,-0.271849 -0.0894,-0.411861 a 3.7041667,3.7041667 0 0 1 -0.0176,-0.114205 c -0.0202,-0.156489 -0.0341,-0.314999 -0.0341,-0.476973 0,-0.161976 0.0139,-0.320485 0.0341,-0.476974 a 3.7041667,3.7041667 0 0 1 0.0176,-0.114205 c 0.0225,-0.140012 0.0517,-0.277562 0.0894,-0.411861 a 3.7041667,3.7041667 0 0 1 0.0139,-0.05374 c 0.0466,-0.156835 0.10392,-0.308408 0.17001,-0.455787 a 3.7041667,3.7041667 0 0 1 0.0341,-0.0708 c 0.0613,-0.129304 0.1293,-0.254631 0.20464,-0.375171 a 3.7041667,3.7041667 0 0 1 0.0388,-0.06305 c 0.0866,-0.132602 0.18129,-0.259218 0.2837,-0.379305 a 3.7041667,3.7041667 0 0 1 0.0615,-0.0677 c 0.0907,-0.101271 0.18657,-0.197083 0.28784,-0.287837 a 3.7041667,3.7041667 0 0 1 0.0677,-0.0615 c 0.12009,-0.102408 0.2467,-0.197101 0.37931,-0.283704 a 3.7041667,3.7041667 0 0 1 0.0631,-0.03876 c 0.12054,-0.07534 0.24586,-0.143309 0.37516,-0.204639 a 3.7041667,3.7041667 0 0 1 0.0708,-0.03411 c 0.14738,-0.06609 0.29896,-0.123386 0.45579,-0.170016 a 3.7041667,3.7041667 0 0 1 0.0537,-0.01395 c 0.1343,-0.03774 0.27185,-0.06689 0.41187,-0.0894 a 3.7041667,3.7041667 0 0 1 0.1142,-0.01757 c 0.15649,-0.02016 0.315,-0.03411 0.47697,-0.03411 a 3.7041667,3.7041667 0 0 1 0.20103,0.0062 c 0.0279,0.0015 0.0555,0.0041 0.0832,0.0062 a 3.7041667,3.7041667 0 0 1 0.11575,0.01034 c 0.0324,0.0035 0.0645,0.0076 0.0966,0.01188 a 3.7041667,3.7041667 0 0 1 0.0972,0.01447 c 0.035,0.0057 0.0698,0.01144 0.10439,0.01809 a 3.7041667,3.7041667 0 0 1 0.0946,0.01964 c 0.0249,0.0055 0.0502,0.01005 0.0749,0.01602 0.007,0.0016 0.0134,0.004 0.0202,0.0057 a 3.7041667,3.7041667 0 0 1 0.13849,0.03772 c 0.0159,0.0046 0.0323,0.0081 0.0481,0.01292 a 3.7041667,3.7041667 0 0 1 0.0238,0.0078 3.7041667,3.7041667 0 0 1 0.17208,0.05839 c 0.002,6.19e-4 0.003,8.8e-4 0.005,0.0016 a 3.7041667,3.7041667 0 0 1 0.0196,0.0078 3.7041667,3.7041667 0 0 1 0.16485,0.06615 c 0.009,0.0039 0.0179,0.0079 0.0269,0.01188 a 3.7041667,3.7041667 0 0 1 0.17467,0.08217 3.7041667,3.7041667 0 0 1 0.69711,0.453719 l 1.47898,-5.23999 z" />
    <ellipse
       style="fill:none;stroke:#a3a3a3;stroke-width:3.175;stroke-linecap:round;stroke-linejoin:round;stroke-opacity:1;paint-order:markers stroke fill"
       id="ellipse44"
       cx="100.236"
       cy="14.196866"
       rx="7.6632299"
       ry="11.788539" />
    <path
       style="color:#000000;opacity:0.2;fill:url(#linearGradient62);stroke-linecap:round;stroke-linejoin:round;-inkscape-stroke:none;paint-order:markers stroke fill"
       d="m 100.23501,0.8208903 c -2.776035,-10e-7 -5.162104,1.731159 -6.749979,4.173828 -1.587876,2.442668 -2.5,5.6670017 -2.5,9.2011717 0,3.53417 0.912124,6.758503 2.5,9.201172 1.587875,2.442669 3.973944,4.175781 6.749979,4.175781 2.77604,0 5.16212,-1.733112 6.75,-4.175781 1.58788,-2.442669 2.50196,-5.667002 2.50196,-9.201172 0,-3.53417 -0.91408,-6.7585037 -2.50196,-9.2011717 -1.58788,-2.442669 -3.97396,-4.173828 -6.75,-4.173828 z m 0,3.173828 c 1.45624,0 2.90222,0.906529 4.08789,2.730468 1.18567,1.823938 1.98828,4.4942487 1.98828,7.4707037 0,2.976454 -0.80261,5.646764 -1.98828,7.470703 -1.18567,1.823939 -2.63165,2.730469 -4.08789,2.730469 -1.456231,0 -2.902212,-0.90653 -4.087866,-2.730469 -1.185669,-1.823939 -1.986332,-4.494249 -1.986332,-7.470703 0,-2.976455 0.800663,-5.6467657 1.986332,-7.4707037 1.185654,-1.823939 2.631635,-2.730468 4.087866,-2.730468 z"
       id="path61" />
    <path
       id="path69"
       style="fill:#efeeec;fill-opacity:1;stroke:none;stroke-width:0.264583;stroke-linecap:round;stroke-linejoin:round;paint-order:markers stroke fill"
       d="m 92.379377,17.435365 v 5.169193 a 3.7041667,3.7041667 0 0 1 1.435055,2.926437 3.7041667,3.7041667 0 0 1 -1.435055,2.916617 v 5.656503 h 13.720093 v -4.452442 c -0.74981,-0.503077 -1.81245,-1.217886 -2.55178,-1.768367 a 3.7041667,3.7041667 0 0 1 -0.20723,0.225826 c -0.0367,0.03783 -0.0734,0.07538 -0.11162,0.111621 a 3.7041667,3.7041667 0 0 1 -0.20515,0.181384 c -0.0891,0.07273 -0.18082,0.142392 -0.27647,0.206706 a 3.7041667,3.7041667 0 0 1 -0.0868,0.05788 c -0.12883,0.08145 -0.26311,0.154341 -0.40204,0.219625 a 3.7041667,3.7041667 0 0 1 -0.0574,0.02584 c -0.14981,0.06728 -0.30442,0.126062 -0.46406,0.173117 -0.16166,0.04765 -0.32854,0.08329 -0.49868,0.10852 a 3.7041667,3.7041667 0 0 1 -0.0351,0.0047 c -0.16669,0.02308 -0.33637,0.03669 -0.50953,0.03669 -0.16197,0 -0.32048,-0.01394 -0.47697,-0.03411 a 3.7041667,3.7041667 0 0 1 -0.1142,-0.01757 c -0.140015,-0.02251 -0.277566,-0.05166 -0.411864,-0.0894 a 3.7041667,3.7041667 0 0 1 -0.05374,-0.01395 c -0.156854,-0.04663 -0.308428,-0.103928 -0.455806,-0.170016 a 3.7041667,3.7041667 0 0 1 -0.0708,-0.03411 C 98.980926,28.814729 98.855599,28.74676 98.735059,28.67142 a 3.7041667,3.7041667 0 0 1 -0.06305,-0.03876 c -0.132602,-0.0866 -0.259216,-0.181296 -0.379305,-0.283704 a 3.7041667,3.7041667 0 0 1 -0.0677,-0.0615 c -0.101273,-0.09075 -0.197084,-0.186565 -0.287838,-0.287837 a 3.7041667,3.7041667 0 0 1 -0.0615,-0.0677 c -0.102408,-0.120089 -0.1971,-0.246705 -0.283703,-0.379305 a 3.7041667,3.7041667 0 0 1 -0.03876,-0.06305 c -0.07534,-0.12054 -0.143308,-0.245867 -0.204638,-0.375171 a 3.7041667,3.7041667 0 0 1 -0.03411,-0.0708 C 97.248365,26.896214 97.191069,26.74464 97.14444,26.587807 a 3.7041667,3.7041667 0 0 1 -0.01395,-0.05374 c -0.03774,-0.134299 -0.06689,-0.271849 -0.0894,-0.411861 a 3.7041667,3.7041667 0 0 1 -0.01757,-0.114205 c -0.02016,-0.156489 -0.03411,-0.314999 -0.03411,-0.476973 0,-0.161976 0.01394,-0.320485 0.03411,-0.476974 a 3.7041667,3.7041667 0 0 1 0.01757,-0.114205 c 0.02251,-0.140012 0.05166,-0.277562 0.0894,-0.411861 a 3.7041667,3.7041667 0 0 1 0.01395,-0.05374 c 0.04663,-0.156835 0.103927,-0.308408 0.170015,-0.455787 a 3.7041667,3.7041667 0 0 1 0.03411,-0.0708 c 0.06133,-0.129304 0.129299,-0.254631 0.204638,-0.375171 a 3.7041667,3.7041667 0 0 1 0.03876,-0.06305 c 0.0866,-0.132602 0.181295,-0.259218 0.283703,-0.379305 a 3.7041667,3.7041667 0 0 1 0.0615,-0.0677 c 0.09075,-0.101271 0.186565,-0.197083 0.287838,-0.287837 a 3.7041667,3.7041667 0 0 1 0.0677,-0.0615 c 0.120089,-0.102408 0.246703,-0.197101 0.379305,-0.283704 a 3.7041667,3.7041667 0 0 1 0.06305,-0.03876 c 0.12054,-0.07534 0.245867,-0.143309 0.375171,-0.204639 a 3.7041667,3.7041667 0 0 1 0.0708,-0.03411 c 0.147378,-0.06609 0.298952,-0.123386 0.455786,-0.170016 a 3.7041667,3.7041667 0 0 1 0.05374,-0.01395 c 0.134298,-0.03774 0.271849,-0.06689 0.411864,-0.0894 a 3.7041667,3.7041667 0 0 1 0.1142,-0.01757 c 0.15649,-0.02016 0.315,-0.03411 0.47697,-0.03411 a 3.7041667,3.7041667 0 0 1 0.20103,0.0062 c 0.0279,0.0015 0.0555,0.0041 0.0832,0.0062 a 3.7041667,3.7041667 0 0 1 0.11575,0.01034 c 0.0324,0.0035 0.0645,0.0076 0.0966,0.01188 a 3.7041667,3.7041667 0 0 1 0.0972,0.01447 c 0.035,0.0057 0.0698,0.01144 0.10439,0.01809 a 3.7041667,3.7041667 0 0 1 0.0946,0.01964 c 0.0249,0.0055 0.0502,0.01005 0.0749,0.01602 0.007,0.0016 0.0134,0.004 0.0202,0.0057 a 3.7041667,3.7041667 0 0 1 0.13849,0.03772 c 0.0159,0.0046 0.0323,0.0081 0.0481,0.01292 a 3.7041667,3.7041667 0 0 1 0.0238,0.0078 3.7041667,3.7041667 0 0 1 0.17208,0.05839 c 0.002,6.19e-4 0.003,8.8e-4 0.005,0.0016 a 3.7041667,3.7041667 0 0 1 0.0196,0.0078 3.7041667,3.7041667 0 0 1 0.16485,0.06615 c 0.009,0.0039 0.0179,0.0079 0.0269,0.01188 a 3.7041667,3.7041667 0 0 1 0.17467,0.08217 3.7041667,3.7041667 0 0 1 0.69711,0.453719 l 1.47898,-5.23999 z" />
    <ellipse
       style="fill:none;stroke:#a8a8a8;stroke-width:3.175;stroke-linecap:round;stroke-linejoin:round;stroke-opacity:1;paint-order:markers stroke fill"
       id="ellipse43"
       cx="89.652657"
       cy="14.196866"
       rx="7.6632299"
       ry="11.788539" />
    <path
       style="color:#000000;opacity:0.2;fill:url(#linearGradient61);stroke-linecap:round;stroke-linejoin:round;-inkscape-stroke:none;paint-order:markers stroke fill"
       d="m 89.651697,0.8208903 c -2.776042,-10e-7 -5.162125,1.731159 -6.75,4.173828 -1.587876,2.442668 -2.5,5.6670017 -2.5,9.2011717 0,3.53417 0.912124,6.758503 2.5,9.201172 1.587875,2.442669 3.973958,4.175781 6.75,4.175781 2.776042,0 5.162124,-1.733112 6.749994,-4.175781 1.587871,-2.442669 2.501948,-5.667002 2.501948,-9.201172 0,-3.53417 -0.914077,-6.7585037 -2.501948,-9.2011717 -1.58787,-2.442669 -3.973952,-4.173828 -6.749994,-4.173828 z m 0,3.173828 c 1.456239,0 2.902225,0.906529 4.08789,2.730468 1.185666,1.823938 1.988282,4.4942487 1.988282,7.4707037 0,2.976454 -0.802616,5.646764 -1.988282,7.470703 -1.185665,1.823939 -2.631651,2.730469 -4.08789,2.730469 -1.456239,0 -2.902226,-0.90653 -4.087891,-2.730469 -1.185665,-1.823939 -1.986328,-4.494249 -1.986328,-7.470703 0,-2.976455 0.800663,-5.6467657 1.986328,-7.4707037 1.185665,-1.823939 2.631652,-2.730468 4.087891,-2.730468 z"
       id="path60" />
    <path
       id="path68"
       style="fill:#efeeec;fill-opacity:1;stroke:none;stroke-width:0.264583;stroke-linecap:round;stroke-linejoin:round;paint-order:markers stroke fill"
       d="m 81.796043,17.435365 v 5.169193 a 3.7041667,3.7041667 0 0 1 1.435055,2.926437 3.7041667,3.7041667 0 0 1 -1.435055,2.916617 v 5.656503 h 13.720093 v -4.452442 c -0.749812,-0.503077 -1.812447,-1.217886 -2.551783,-1.768367 a 3.7041667,3.7041667 0 0 1 -0.207222,0.225826 c -0.0367,0.03783 -0.07336,0.07538 -0.111621,0.111621 a 3.7041667,3.7041667 0 0 1 -0.205156,0.181384 c -0.08905,0.07273 -0.180821,0.142392 -0.276468,0.206706 a 3.7041667,3.7041667 0 0 1 -0.08682,0.05788 c -0.128833,0.08145 -0.263107,0.154341 -0.402043,0.219625 a 3.7041667,3.7041667 0 0 1 -0.05736,0.02584 c -0.149808,0.06728 -0.304414,0.126062 -0.464055,0.173117 -0.161657,0.04765 -0.328538,0.08329 -0.498677,0.10852 a 3.7041667,3.7041667 0 0 1 -0.03514,0.0047 c -0.166691,0.02308 -0.336371,0.03669 -0.50953,0.03669 -0.161976,0 -0.320484,-0.01394 -0.476973,-0.03411 a 3.7041667,3.7041667 0 0 1 -0.114205,-0.01757 c -0.140012,-0.02251 -0.277563,-0.05166 -0.411861,-0.0894 a 3.7041667,3.7041667 0 0 1 -0.05374,-0.01395 c -0.156834,-0.04663 -0.308408,-0.103928 -0.455786,-0.170016 a 3.7041667,3.7041667 0 0 1 -0.0708,-0.03411 C 88.397592,28.814729 88.272265,28.74676 88.151725,28.67142 a 3.7041667,3.7041667 0 0 1 -0.06305,-0.03876 c -0.132602,-0.0866 -0.259216,-0.181296 -0.379305,-0.283704 a 3.7041667,3.7041667 0 0 1 -0.0677,-0.0615 c -0.101273,-0.09075 -0.197084,-0.186565 -0.287838,-0.287837 a 3.7041667,3.7041667 0 0 1 -0.0615,-0.0677 c -0.102408,-0.120089 -0.1971,-0.246705 -0.283703,-0.379305 a 3.7041667,3.7041667 0 0 1 -0.03876,-0.06305 c -0.07534,-0.12054 -0.143308,-0.245867 -0.204638,-0.375171 a 3.7041667,3.7041667 0 0 1 -0.03411,-0.0708 c -0.06609,-0.147379 -0.123386,-0.298953 -0.170015,-0.455786 a 3.7041667,3.7041667 0 0 1 -0.01395,-0.05374 c -0.03774,-0.134299 -0.06689,-0.271849 -0.0894,-0.411861 a 3.7041667,3.7041667 0 0 1 -0.01757,-0.114205 c -0.02016,-0.156489 -0.03411,-0.314999 -0.03411,-0.476973 0,-0.161976 0.01394,-0.320485 0.03411,-0.476974 a 3.7041667,3.7041667 0 0 1 0.01757,-0.114205 c 0.02251,-0.140012 0.05166,-0.277562 0.0894,-0.411861 a 3.7041667,3.7041667 0 0 1 0.01395,-0.05374 c 0.04663,-0.156835 0.103927,-0.308408 0.170015,-0.455787 a 3.7041667,3.7041667 0 0 1 0.03411,-0.0708 c 0.06133,-0.129304 0.129299,-0.254631 0.204638,-0.375171 a 3.7041667,3.7041667 0 0 1 0.03876,-0.06305 c 0.0866,-0.132602 0.181295,-0.259218 0.283703,-0.379305 a 3.7041667,3.7041667 0 0 1 0.0615,-0.0677 c 0.09075,-0.101271 0.186565,-0.197083 0.287838,-0.287837 a 3.7041667,3.7041667 0 0 1 0.0677,-0.0615 c 0.120089,-0.102408 0.246703,-0.197101 0.379305,-0.283704 a 3.7041667,3.7041667 0 0 1 0.06305,-0.03876 c 0.12054,-0.07534 0.245867,-0.143309 0.375171,-0.204639 a 3.7041667,3.7041667 0 0 1 0.0708,-0.03411 c 0.147378,-0.06609 0.298952,-0.123386 0.455786,-0.170016 a 3.7041667,3.7041667 0 0 1 0.05374,-0.01395 c 0.134298,-0.03774 0.271849,-0.06689 0.411861,-0.0894 a 3.7041667,3.7041667 0 0 1 0.114205,-0.01757 c 0.156489,-0.02016 0.314997,-0.03411 0.476973,-0.03411 a 3.7041667,3.7041667 0 0 1 0.201021,0.0062 c 0.02789,0.0015 0.05548,0.0041 0.0832,0.0062 a 3.7041667,3.7041667 0 0 1 0.115756,0.01034 c 0.03239,0.0035 0.06451,0.0076 0.09664,0.01188 a 3.7041667,3.7041667 0 0 1 0.09715,0.01447 c 0.03496,0.0057 0.06976,0.01144 0.104387,0.01809 a 3.7041667,3.7041667 0 0 1 0.09457,0.01964 c 0.02493,0.0055 0.0502,0.01005 0.07493,0.01602 0.0068,0.0016 0.01337,0.004 0.02015,0.0057 a 3.7041667,3.7041667 0 0 1 0.138493,0.03772 c 0.01587,0.0046 0.03228,0.0081 0.04806,0.01292 a 3.7041667,3.7041667 0 0 1 0.02377,0.0078 3.7041667,3.7041667 0 0 1 0.172083,0.05839 c 0.0017,6.19e-4 0.0035,8.8e-4 0.0052,0.0016 a 3.7041667,3.7041667 0 0 1 0.01964,0.0078 3.7041667,3.7041667 0 0 1 0.164847,0.06615 c 0.009,0.0039 0.01791,0.0079 0.02687,0.01188 a 3.7041667,3.7041667 0 0 1 0.174666,0.08217 3.7041667,3.7041667 0 0 1 0.697115,0.453719 l 1.47898,-5.23999 z" />
    <ellipse
       style="fill:none;stroke:#adadad;stroke-width:3.175;stroke-linecap:round;stroke-linejoin:round;stroke-opacity:1;paint-order:markers stroke fill"
       id="ellipse42"
       cx="79.069328"
       cy="14.196866"
       rx="7.6632299"
       ry="11.788539" />
    <path
       style="color:#000000;opacity:0.2;fill:url(#linearGradient60);stroke-linecap:round;stroke-linejoin:round;-inkscape-stroke:none;paint-order:markers stroke fill"
       d="m 79.068363,0.8208903 c -2.776042,-10e-7 -5.162125,1.731159 -6.75,4.173828 -1.587876,2.442668 -2.5,5.6670017 -2.5,9.2011717 0,3.53417 0.912124,6.758503 2.5,9.201172 1.587875,2.442669 3.973958,4.175781 6.75,4.175781 2.776042,0 5.162124,-1.733112 6.75,-4.175781 1.587875,-2.442669 2.501953,-5.667002 2.501953,-9.201172 0,-3.53417 -0.914078,-6.7585037 -2.501953,-9.2011717 -1.587876,-2.442669 -3.973958,-4.173828 -6.75,-4.173828 z m 0,3.173828 c 1.456239,0 2.902225,0.906529 4.08789,2.730468 1.185666,1.823938 1.988282,4.4942487 1.988282,7.4707037 0,2.976454 -0.802616,5.646764 -1.988282,7.470703 -1.185665,1.823939 -2.631651,2.730469 -4.08789,2.730469 -1.456239,0 -2.902226,-0.90653 -4.087891,-2.730469 -1.185665,-1.823939 -1.986328,-4.494249 -1.986328,-7.470703 0,-2.976455 0.800663,-5.6467657 1.986328,-7.4707037 1.185665,-1.823939 2.631652,-2.730468 4.087891,-2.730468 z"
       id="path59" />
    <path
       id="path67"
       style="fill:#efeeec;fill-opacity:1;stroke:none;stroke-width:0.264583;stroke-linecap:round;stroke-linejoin:round;paint-order:markers stroke fill"
       d="m 71.212709,17.435365 v 5.169193 a 3.7041667,3.7041667 0 0 1 1.435055,2.926437 3.7041667,3.7041667 0 0 1 -1.435055,2.916617 v 5.656503 H 84.932802 V 29.651673 C 84.18299,29.148596 83.120355,28.433787 82.381019,27.883306 a 3.7041667,3.7041667 0 0 1 -0.207222,0.225826 c -0.0367,0.03783 -0.07336,0.07538 -0.111621,0.111621 a 3.7041667,3.7041667 0 0 1 -0.205156,0.181384 c -0.08905,0.07273 -0.180821,0.142392 -0.276468,0.206706 a 3.7041667,3.7041667 0 0 1 -0.08682,0.05788 c -0.128833,0.08145 -0.263107,0.154341 -0.402043,0.219625 a 3.7041667,3.7041667 0 0 1 -0.05736,0.02584 c -0.149808,0.06728 -0.304414,0.126062 -0.464055,0.173117 -0.161657,0.04765 -0.328538,0.08329 -0.498677,0.10852 a 3.7041667,3.7041667 0 0 1 -0.03514,0.0047 c -0.166691,0.02308 -0.336371,0.03669 -0.50953,0.03669 -0.161976,0 -0.320484,-0.01394 -0.476973,-0.03411 a 3.7041667,3.7041667 0 0 1 -0.114205,-0.01757 c -0.140012,-0.02251 -0.277563,-0.05166 -0.411861,-0.0894 a 3.7041667,3.7041667 0 0 1 -0.05374,-0.01395 c -0.156834,-0.04663 -0.308408,-0.103928 -0.455786,-0.170016 a 3.7041667,3.7041667 0 0 1 -0.0708,-0.03411 C 77.814258,28.814729 77.688931,28.74676 77.568391,28.67142 a 3.7041667,3.7041667 0 0 1 -0.06305,-0.03876 c -0.132602,-0.0866 -0.259216,-0.181296 -0.379305,-0.283704 a 3.7041667,3.7041667 0 0 1 -0.0677,-0.0615 c -0.101273,-0.09075 -0.197084,-0.186565 -0.287838,-0.287837 a 3.7041667,3.7041667 0 0 1 -0.0615,-0.0677 c -0.102408,-0.120089 -0.1971,-0.246705 -0.283703,-0.379305 a 3.7041667,3.7041667 0 0 1 -0.03876,-0.06305 c -0.07534,-0.12054 -0.143308,-0.245867 -0.204638,-0.375171 a 3.7041667,3.7041667 0 0 1 -0.03411,-0.0708 c -0.06609,-0.147379 -0.123386,-0.298953 -0.170015,-0.455786 a 3.7041667,3.7041667 0 0 1 -0.01395,-0.05374 c -0.03774,-0.134299 -0.06689,-0.271849 -0.0894,-0.411861 a 3.7041667,3.7041667 0 0 1 -0.01757,-0.114205 c -0.02016,-0.156489 -0.03411,-0.314999 -0.03411,-0.476973 0,-0.161976 0.01394,-0.320485 0.03411,-0.476974 a 3.7041667,3.7041667 0 0 1 0.01757,-0.114205 c 0.02251,-0.140012 0.05166,-0.277562 0.0894,-0.411861 a 3.7041667,3.7041667 0 0 1 0.01395,-0.05374 c 0.04663,-0.156835 0.103927,-0.308408 0.170015,-0.455787 a 3.7041667,3.7041667 0 0 1 0.03411,-0.0708 c 0.06133,-0.129304 0.129299,-0.254631 0.204638,-0.375171 a 3.7041667,3.7041667 0 0 1 0.03876,-0.06305 c 0.0866,-0.132602 0.181295,-0.259218 0.283703,-0.379305 a 3.7041667,3.7041667 0 0 1 0.0615,-0.0677 c 0.09075,-0.101271 0.186565,-0.197083 0.287838,-0.287837 a 3.7041667,3.7041667 0 0 1 0.0677,-0.0615 c 0.120089,-0.102408 0.246703,-0.197101 0.379305,-0.283704 a 3.7041667,3.7041667 0 0 1 0.06305,-0.03876 c 0.12054,-0.07534 0.245867,-0.143309 0.375171,-0.204639 a 3.7041667,3.7041667 0 0 1 0.0708,-0.03411 c 0.147378,-0.06609 0.298952,-0.123386 0.455786,-0.170016 a 3.7041667,3.7041667 0 0 1 0.05374,-0.01395 c 0.134298,-0.03774 0.271849,-0.06689 0.411861,-0.0894 a 3.7041667,3.7041667 0 0 1 0.114205,-0.01757 c 0.156489,-0.02016 0.314997,-0.03411 0.476973,-0.03411 a 3.7041667,3.7041667 0 0 1 0.201021,0.0062 c 0.02789,0.0015 0.05548,0.0041 0.0832,0.0062 a 3.7041667,3.7041667 0 0 1 0.115756,0.01034 c 0.03239,0.0035 0.06451,0.0076 0.09664,0.01188 a 3.7041667,3.7041667 0 0 1 0.09715,0.01447 c 0.03496,0.0057 0.06976,0.01144 0.104387,0.01809 a 3.7041667,3.7041667 0 0 1 0.09457,0.01964 c 0.02493,0.0055 0.0502,0.01005 0.07493,0.01602 0.0068,0.0016 0.01337,0.004 0.02015,0.0057 a 3.7041667,3.7041667 0 0 1 0.138493,0.03772 c 0.01587,0.0046 0.03228,0.0081 0.04806,0.01292 a 3.7041667,3.7041667 0 0 1 0.02377,0.0078 3.7041667,3.7041667 0 0 1 0.172083,0.05839 c 0.0017,6.19e-4 0.0035,8.8e-4 0.0052,0.0016 a 3.7041667,3.7041667 0 0 1 0.01964,0.0078 3.7041667,3.7041667 0 0 1 0.164847,0.06615 c 0.009,0.0039 0.01791,0.0079 0.02687,0.01188 a 3.7041667,3.7041667 0 0 1 0.174666,0.08217 3.7041667,3.7041667 0 0 1 0.697115,0.453719 l 1.47898,-5.23999 z" />
    <ellipse
       style="fill:none;stroke:#b2b2b2;stroke-width:3.175;stroke-linecap:round;stroke-linejoin:round;stroke-opacity:1;paint-order:markers stroke fill"
       id="ellipse41"
       cx="68.486"
       cy="14.196866"
       rx="7.6632299"
       ry="11.788539" />
    <path
       style="color:#000000;opacity:0.2;fill:url(#linearGradient59);stroke-linecap:round;stroke-linejoin:round;-inkscape-stroke:none;paint-order:markers stroke fill"
       d="m 68.485029,0.8208903 c -2.776042,-10e-7 -5.162125,1.731159 -6.75,4.173828 -1.587876,2.442668 -2.5,5.6670017 -2.5,9.2011717 0,3.53417 0.912124,6.758503 2.5,9.201172 1.587875,2.442669 3.973958,4.175781 6.75,4.175781 2.776042,0 5.162124,-1.733112 6.75,-4.175781 1.587875,-2.442669 2.501953,-5.667002 2.501953,-9.201172 0,-3.53417 -0.914078,-6.7585037 -2.501953,-9.2011717 -1.587876,-2.442669 -3.973958,-4.173828 -6.75,-4.173828 z m 0,3.173828 c 1.456239,0 2.902225,0.906529 4.08789,2.730468 1.185666,1.823938 1.988282,4.4942487 1.988282,7.4707037 0,2.976454 -0.802616,5.646764 -1.988282,7.470703 -1.185665,1.823939 -2.631651,2.730469 -4.08789,2.730469 -1.456239,0 -2.902226,-0.90653 -4.087891,-2.730469 -1.185665,-1.823939 -1.986328,-4.494249 -1.986328,-7.470703 0,-2.976455 0.800663,-5.6467657 1.986328,-7.4707037 1.185665,-1.823939 2.631652,-2.730468 4.087891,-2.730468 z"
       id="path58" />
    <path
       id="path66"
       style="fill:#efeeec;fill-opacity:1;stroke:none;stroke-width:0.264583;stroke-linecap:round;stroke-linejoin:round;paint-order:markers stroke fill"
       d="m 60.629375,17.435365 v 5.169193 a 3.7041667,3.7041667 0 0 1 1.435055,2.926437 3.7041667,3.7041667 0 0 1 -1.435055,2.916617 v 5.656503 h 13.720093 v -4.452442 c -0.749812,-0.503077 -1.812447,-1.217886 -2.551783,-1.768367 a 3.7041667,3.7041667 0 0 1 -0.207222,0.225826 c -0.0367,0.03783 -0.07336,0.07538 -0.111621,0.111621 a 3.7041667,3.7041667 0 0 1 -0.205156,0.181384 c -0.08905,0.07273 -0.180821,0.142392 -0.276468,0.206706 a 3.7041667,3.7041667 0 0 1 -0.08682,0.05788 c -0.128833,0.08145 -0.263107,0.154341 -0.402043,0.219625 a 3.7041667,3.7041667 0 0 1 -0.05736,0.02584 c -0.149808,0.06728 -0.304414,0.126062 -0.464055,0.173117 -0.161657,0.04765 -0.328538,0.08329 -0.498677,0.10852 a 3.7041667,3.7041667 0 0 1 -0.03514,0.0047 c -0.166691,0.02308 -0.336371,0.03669 -0.50953,0.03669 -0.161976,0 -0.320484,-0.01394 -0.476973,-0.03411 a 3.7041667,3.7041667 0 0 1 -0.114205,-0.01757 c -0.140012,-0.02251 -0.277563,-0.05166 -0.411861,-0.0894 a 3.7041667,3.7041667 0 0 1 -0.05374,-0.01395 c -0.156834,-0.04663 -0.308408,-0.103928 -0.455786,-0.170016 a 3.7041667,3.7041667 0 0 1 -0.0708,-0.03411 C 67.230924,28.814729 67.105597,28.74676 66.985057,28.67142 a 3.7041667,3.7041667 0 0 1 -0.06305,-0.03876 c -0.132602,-0.0866 -0.259216,-0.181296 -0.379305,-0.283704 a 3.7041667,3.7041667 0 0 1 -0.0677,-0.0615 c -0.101273,-0.09075 -0.197084,-0.186565 -0.287838,-0.287837 a 3.7041667,3.7041667 0 0 1 -0.0615,-0.0677 c -0.102408,-0.120089 -0.1971,-0.246705 -0.283703,-0.379305 a 3.7041667,3.7041667 0 0 1 -0.03876,-0.06305 c -0.07534,-0.12054 -0.143308,-0.245867 -0.204638,-0.375171 a 3.7041667,3.7041667 0 0 1 -0.03411,-0.0708 c -0.06609,-0.147379 -0.123386,-0.298953 -0.170015,-0.455786 a 3.7041667,3.7041667 0 0 1 -0.01395,-0.05374 c -0.03774,-0.134299 -0.06689,-0.271849 -0.0894,-0.411861 a 3.7041667,3.7041667 0 0 1 -0.01757,-0.114205 c -0.02016,-0.156489 -0.03411,-0.314999 -0.03411,-0.476973 0,-0.161976 0.01394,-0.320485 0.03411,-0.476974 a 3.7041667,3.7041667 0 0 1 0.01757,-0.114205 c 0.02251,-0.140012 0.05166,-0.277562 0.0894,-0.411861 a 3.7041667,3.7041667 0 0 1 0.01395,-0.05374 c 0.04663,-0.156835 0.103927,-0.308408 0.170015,-0.455787 a 3.7041667,3.7041667 0 0 1 0.03411,-0.0708 c 0.06133,-0.129304 0.129299,-0.254631 0.204638,-0.375171 a 3.7041667,3.7041667 0 0 1 0.03876,-0.06305 c 0.0866,-0.132602 0.181295,-0.259218 0.283703,-0.379305 a 3.7041667,3.7041667 0 0 1 0.0615,-0.0677 c 0.09075,-0.101271 0.186565,-0.197083 0.287838,-0.287837 a 3.7041667,3.7041667 0 0 1 0.0677,-0.0615 c 0.120089,-0.102408 0.246703,-0.197101 0.379305,-0.283704 a 3.7041667,3.7041667 0 0 1 0.06305,-0.03876 c 0.12054,-0.07534 0.245867,-0.143309 0.375171,-0.204639 a 3.7041667,3.7041667 0 0 1 0.0708,-0.03411 c 0.147378,-0.06609 0.298952,-0.123386 0.455786,-0.170016 a 3.7041667,3.7041667 0 0 1 0.05374,-0.01395 c 0.134298,-0.03774 0.271849,-0.06689 0.411861,-0.0894 a 3.7041667,3.7041667 0 0 1 0.114205,-0.01757 c 0.156489,-0.02016 0.314997,-0.03411 0.476973,-0.03411 a 3.7041667,3.7041667 0 0 1 0.201021,0.0062 c 0.02789,0.0015 0.05548,0.0041 0.0832,0.0062 a 3.7041667,3.7041667 0 0 1 0.115756,0.01034 c 0.03239,0.0035 0.06451,0.0076 0.09664,0.01188 a 3.7041667,3.7041667 0 0 1 0.09715,0.01447 c 0.03496,0.0057 0.06976,0.01144 0.104387,0.01809 a 3.7041667,3.7041667 0 0 1 0.09457,0.01964 c 0.02493,0.0055 0.0502,0.01005 0.07493,0.01602 0.0068,0.0016 0.01337,0.004 0.02015,0.0057 a 3.7041667,3.7041667 0 0 1 0.138493,0.03772 c 0.01587,0.0046 0.03228,0.0081 0.04806,0.01292 a 3.7041667,3.7041667 0 0 1 0.02377,0.0078 3.7041667,3.7041667 0 0 1 0.172083,0.05839 c 0.0017,6.19e-4 0.0035,8.8e-4 0.0052,0.0016 a 3.7041667,3.7041667 0 0 1 0.01964,0.0078 3.7041667,3.7041667 0 0 1 0.164847,0.06615 c 0.009,0.0039 0.01791,0.0079 0.02687,0.01188 a 3.7041667,3.7041667 0 0 1 0.174666,0.08217 3.7041667,3.7041667 0 0 1 0.697115,0.453719 l 1.47898,-5.23999 z" />
    <ellipse
       style="fill:none;stroke:#b8b8b8;stroke-width:3.175;stroke-linecap:round;stroke-linejoin:round;stroke-opacity:1;paint-order:markers stroke fill"
       id="ellipse40"
       cx="57.902672"
       cy="14.196866"
       rx="7.6632299"
       ry="11.788539" />
    <path
       style="color:#000000;opacity:0.2;fill:url(#linearGradient58);stroke-linecap:round;stroke-linejoin:round;-inkscape-stroke:none;paint-order:markers stroke fill"
       d="m 57.901695,0.8208903 c -2.776042,-10e-7 -5.162125,1.731159 -6.75,4.173828 -1.587876,2.442668 -2.5,5.6670017 -2.5,9.2011717 0,3.53417 0.912124,6.758503 2.5,9.201172 1.587875,2.442669 3.973958,4.175781 6.75,4.175781 2.776042,0 5.162124,-1.733112 6.75,-4.175781 1.587875,-2.442669 2.501953,-5.667002 2.501953,-9.201172 0,-3.53417 -0.914078,-6.7585037 -2.501953,-9.2011717 -1.587876,-2.442669 -3.973958,-4.173828 -6.75,-4.173828 z m 0,3.173828 c 1.456239,0 2.902225,0.906529 4.08789,2.730468 1.185666,1.823938 1.988282,4.4942487 1.988282,7.4707037 0,2.976454 -0.802616,5.646764 -1.988282,7.470703 -1.185665,1.823939 -2.631651,2.730469 -4.08789,2.730469 -1.456239,0 -2.902226,-0.90653 -4.087891,-2.730469 -1.185665,-1.823939 -1.986328,-4.494249 -1.986328,-7.470703 0,-2.976455 0.800663,-5.6467657 1.986328,-7.4707037 1.185665,-1.823939 2.631652,-2.730468 4.087891,-2.730468 z"
       id="path57" />
    <path
       id="path65"
       style="fill:#efeeec;fill-opacity:1;stroke:none;stroke-width:0.264583;stroke-linecap:round;stroke-linejoin:round;paint-order:markers stroke fill"
       d="m 50.046041,17.435365 v 5.169193 a 3.7041667,3.7041667 0 0 1 1.435055,2.926437 3.7041667,3.7041667 0 0 1 -1.435055,2.916617 v 5.656503 h 13.720093 v -4.452442 c -0.749812,-0.503077 -1.812447,-1.217886 -2.551783,-1.768367 a 3.7041667,3.7041667 0 0 1 -0.207222,0.225826 c -0.0367,0.03783 -0.07336,0.07538 -0.111621,0.111621 a 3.7041667,3.7041667 0 0 1 -0.205156,0.181384 c -0.08905,0.07273 -0.180821,0.142392 -0.276468,0.206706 a 3.7041667,3.7041667 0 0 1 -0.08682,0.05788 c -0.128833,0.08145 -0.263107,0.154341 -0.402043,0.219625 a 3.7041667,3.7041667 0 0 1 -0.05736,0.02584 c -0.149808,0.06728 -0.304414,0.126062 -0.464055,0.173117 -0.161657,0.04765 -0.328538,0.08329 -0.498677,0.10852 a 3.7041667,3.7041667 0 0 1 -0.03514,0.0047 c -0.166691,0.02308 -0.336371,0.03669 -0.50953,0.03669 -0.161976,0 -0.320484,-0.01394 -0.476973,-0.03411 a 3.7041667,3.7041667 0 0 1 -0.114205,-0.01757 c -0.140012,-0.02251 -0.277563,-0.05166 -0.411861,-0.0894 a 3.7041667,3.7041667 0 0 1 -0.05374,-0.01395 c -0.156834,-0.04663 -0.308408,-0.103928 -0.455786,-0.170016 a 3.7041667,3.7041667 0 0 1 -0.0708,-0.03411 C 56.64759,28.814729 56.522263,28.74676 56.401723,28.67142 a 3.7041667,3.7041667 0 0 1 -0.06305,-0.03876 c -0.132602,-0.0866 -0.259216,-0.181296 -0.379305,-0.283704 a 3.7041667,3.7041667 0 0 1 -0.0677,-0.0615 c -0.101273,-0.09075 -0.197084,-0.186565 -0.287838,-0.287837 a 3.7041667,3.7041667 0 0 1 -0.0615,-0.0677 c -0.102408,-0.120089 -0.1971,-0.246705 -0.283703,-0.379305 a 3.7041667,3.7041667 0 0 1 -0.03876,-0.06305 c -0.07534,-0.12054 -0.143308,-0.245867 -0.204638,-0.375171 a 3.7041667,3.7041667 0 0 1 -0.03411,-0.0708 c -0.06609,-0.147379 -0.123386,-0.298953 -0.170015,-0.455786 a 3.7041667,3.7041667 0 0 1 -0.01395,-0.05374 c -0.03774,-0.134299 -0.06689,-0.271849 -0.0894,-0.411861 a 3.7041667,3.7041667 0 0 1 -0.01757,-0.114205 c -0.02016,-0.156489 -0.03411,-0.314999 -0.03411,-0.476973 0,-0.161976 0.01394,-0.320485 0.03411,-0.476974 a 3.7041667,3.7041667 0 0 1 0.01757,-0.114205 c 0.02251,-0.140012 0.05166,-0.277562 0.0894,-0.411861 a 3.7041667,3.7041667 0 0 1 0.01395,-0.05374 c 0.04663,-0.156835 0.103927,-0.308408 0.170015,-0.455787 a 3.7041667,3.7041667 0 0 1 0.03411,-0.0708 c 0.06133,-0.129304 0.129299,-0.254631 0.204638,-0.375171 a 3.7041667,3.7041667 0 0 1 0.03876,-0.06305 c 0.0866,-0.132602 0.181295,-0.259218 0.283703,-0.379305 a 3.7041667,3.7041667 0 0 1 0.0615,-0.0677 c 0.09075,-0.101271 0.186565,-0.197083 0.287838,-0.287837 a 3.7041667,3.7041667 0 0 1 0.0677,-0.0615 c 0.120089,-0.102408 0.246703,-0.197101 0.379305,-0.283704 a 3.7041667,3.7041667 0 0 1 0.06305,-0.03876 c 0.12054,-0.07534 0.245867,-0.143309 0.375171,-0.204639 a 3.7041667,3.7041667 0 0 1 0.0708,-0.03411 c 0.147378,-0.06609 0.298952,-0.123386 0.455786,-0.170016 a 3.7041667,3.7041667 0 0 1 0.05374,-0.01395 c 0.134298,-0.03774 0.271849,-0.06689 0.411861,-0.0894 a 3.7041667,3.7041667 0 0 1 0.114205,-0.01757 c 0.156489,-0.02016 0.314997,-0.03411 0.476973,-0.03411 a 3.7041667,3.7041667 0 0 1 0.201021,0.0062 c 0.02789,0.0015 0.05548,0.0041 0.0832,0.0062 a 3.7041667,3.7041667 0 0 1 0.115756,0.01034 c 0.03239,0.0035 0.06451,0.0076 0.09664,0.01188 a 3.7041667,3.7041667 0 0 1 0.09715,0.01447 c 0.03496,0.0057 0.06976,0.01144 0.104387,0.01809 a 3.7041667,3.7041667 0 0 1 0.09457,0.01964 c 0.02493,0.0055 0.0502,0.01005 0.07493,0.01602 0.0068,0.0016 0.01337,0.004 0.02015,0.0057 a 3.7041667,3.7041667 0 0 1 0.138493,0.03772 c 0.01587,0.0046 0.03228,0.0081 0.04806,0.01292 a 3.7041667,3.7041667 0 0 1 0.02377,0.0078 3.7041667,3.7041667 0 0 1 0.172083,0.05839 c 0.0017,6.19e-4 0.0035,8.8e-4 0.0052,0.0016 a 3.7041667,3.7041667 0 0 1 0.01964,0.0078 3.7041667,3.7041667 0 0 1 0.164847,0.06615 c 0.009,0.0039 0.01791,0.0079 0.02687,0.01188 a 3.7041667,3.7041667 0 0 1 0.174666,0.08217 3.7041667,3.7041667 0 0 1 0.697115,0.453719 l 1.47898,-5.23999 z" />
    <ellipse
       style="fill:none;stroke:#bdbdbd;stroke-width:3.175;stroke-linecap:round;stroke-linejoin:round;stroke-opacity:1;paint-order:markers stroke fill"
       id="ellipse39"
       cx="47.319336"
       cy="14.196866"
       rx="7.6632299"
       ry="11.788539" />
    <path
       style="color:#000000;opacity:0.2;fill:url(#linearGradient57);stroke-linecap:round;stroke-linejoin:round;-inkscape-stroke:none;paint-order:markers stroke fill"
       d="m 47.318361,0.8208903 c -2.776042,-10e-7 -5.162125,1.731159 -6.75,4.173828 -1.587876,2.442668 -2.5,5.6670017 -2.5,9.2011717 0,3.53417 0.912124,6.758503 2.5,9.201172 1.587875,2.442669 3.973958,4.175781 6.75,4.175781 2.776042,0 5.162124,-1.733112 6.75,-4.175781 1.587875,-2.442669 2.501953,-5.667002 2.501953,-9.201172 0,-3.53417 -0.914078,-6.7585037 -2.501953,-9.2011717 -1.587876,-2.442669 -3.973958,-4.173828 -6.75,-4.173828 z m 0,3.173828 c 1.456239,0 2.902225,0.906529 4.08789,2.730468 1.185666,1.823938 1.988282,4.4942487 1.988282,7.4707037 0,2.976454 -0.802616,5.646764 -1.988282,7.470703 -1.185665,1.823939 -2.631651,2.730469 -4.08789,2.730469 -1.456239,0 -2.902226,-0.90653 -4.087891,-2.730469 -1.185665,-1.823939 -1.986328,-4.494249 -1.986328,-7.470703 0,-2.976455 0.800663,-5.6467657 1.986328,-7.4707037 1.185665,-1.823939 2.631652,-2.730468 4.087891,-2.730468 z"
       id="path56" />
    <path
       id="path64"
       style="fill:#efeeec;fill-opacity:1;stroke:none;stroke-width:0.264583;stroke-linecap:round;stroke-linejoin:round;paint-order:markers stroke fill"
       d="m 39.462707,17.435365 v 5.169193 a 3.7041667,3.7041667 0 0 1 1.435055,2.926437 3.7041667,3.7041667 0 0 1 -1.435055,2.916617 v 5.656503 H 53.1828 v -4.452442 c -0.749812,-0.503077 -1.812447,-1.217886 -2.551783,-1.768367 a 3.7041667,3.7041667 0 0 1 -0.207222,0.225826 c -0.0367,0.03783 -0.07336,0.07538 -0.111621,0.111621 a 3.7041667,3.7041667 0 0 1 -0.205156,0.181384 c -0.08905,0.07273 -0.180821,0.142392 -0.276468,0.206706 a 3.7041667,3.7041667 0 0 1 -0.08682,0.05788 c -0.128833,0.08145 -0.263107,0.154341 -0.402043,0.219625 a 3.7041667,3.7041667 0 0 1 -0.05736,0.02584 c -0.149808,0.06728 -0.304414,0.126062 -0.464055,0.173117 -0.161657,0.04765 -0.328538,0.08329 -0.498677,0.10852 a 3.7041667,3.7041667 0 0 1 -0.03514,0.0047 c -0.166691,0.02308 -0.336371,0.03669 -0.50953,0.03669 -0.161976,0 -0.320484,-0.01394 -0.476973,-0.03411 a 3.7041667,3.7041667 0 0 1 -0.114202,-0.01762 c -0.140012,-0.02251 -0.277563,-0.05166 -0.411861,-0.0894 a 3.7041667,3.7041667 0 0 1 -0.05374,-0.01395 c -0.156834,-0.04663 -0.308408,-0.103928 -0.455786,-0.170016 a 3.7041667,3.7041667 0 0 1 -0.0708,-0.03411 C 46.064259,28.814679 45.938932,28.74671 45.818392,28.67137 a 3.7041667,3.7041667 0 0 1 -0.06304,-0.03876 c -0.132602,-0.0866 -0.259216,-0.181296 -0.379305,-0.283704 a 3.7041667,3.7041667 0 0 1 -0.0677,-0.0615 c -0.101273,-0.09075 -0.197084,-0.186565 -0.287838,-0.287837 a 3.7041667,3.7041667 0 0 1 -0.0615,-0.0677 c -0.102408,-0.120089 -0.1971,-0.246705 -0.283703,-0.379305 a 3.7041667,3.7041667 0 0 1 -0.03876,-0.06305 c -0.07534,-0.12054 -0.143308,-0.245867 -0.204638,-0.375171 a 3.7041667,3.7041667 0 0 1 -0.03411,-0.0708 c -0.06608,-0.147358 -0.123378,-0.298932 -0.170007,-0.455765 a 3.7041667,3.7041667 0 0 1 -0.01395,-0.05374 c -0.03774,-0.134299 -0.06689,-0.271849 -0.0894,-0.411861 a 3.7041667,3.7041667 0 0 1 -0.01757,-0.114205 c -0.02016,-0.156489 -0.03411,-0.314999 -0.03411,-0.476973 0,-0.161976 0.01394,-0.320485 0.03411,-0.476974 a 3.7041667,3.7041667 0 0 1 0.01757,-0.114205 c 0.02251,-0.140012 0.05166,-0.277562 0.0894,-0.411861 a 3.7041667,3.7041667 0 0 1 0.01395,-0.05374 c 0.04663,-0.156835 0.103927,-0.308408 0.170015,-0.455787 a 3.7041667,3.7041667 0 0 1 0.03411,-0.0708 c 0.06133,-0.129304 0.129299,-0.254631 0.204638,-0.375171 a 3.7041667,3.7041667 0 0 1 0.03876,-0.06305 c 0.0866,-0.132602 0.181295,-0.259218 0.283703,-0.379305 a 3.7041667,3.7041667 0 0 1 0.0615,-0.0677 c 0.09075,-0.101271 0.186565,-0.197083 0.287838,-0.287837 a 3.7041667,3.7041667 0 0 1 0.0677,-0.0615 c 0.120089,-0.102408 0.246703,-0.197101 0.379305,-0.283704 a 3.7041667,3.7041667 0 0 1 0.06304,-0.03876 c 0.12054,-0.07534 0.245867,-0.143309 0.375171,-0.204639 a 3.7041667,3.7041667 0 0 1 0.0708,-0.03411 c 0.147378,-0.06609 0.298952,-0.123386 0.455786,-0.170016 a 3.7041667,3.7041667 0 0 1 0.05374,-0.01395 c 0.134298,-0.03774 0.271849,-0.06689 0.411861,-0.0894 a 3.7041667,3.7041667 0 0 1 0.114205,-0.01757 c 0.156489,-0.02016 0.314997,-0.03411 0.476973,-0.03411 a 3.7041667,3.7041667 0 0 1 0.201021,0.0062 c 0.02789,0.0015 0.05548,0.0041 0.0832,0.0062 a 3.7041667,3.7041667 0 0 1 0.115756,0.01034 c 0.03239,0.0035 0.0645,0.0076 0.09663,0.01188 a 3.7041667,3.7041667 0 0 1 0.09715,0.01447 c 0.03496,0.0057 0.06976,0.01144 0.104387,0.01809 a 3.7041667,3.7041667 0 0 1 0.09457,0.01964 c 0.02493,0.0055 0.0502,0.01005 0.07493,0.01602 0.0068,0.0016 0.01337,0.004 0.02015,0.0057 a 3.7041667,3.7041667 0 0 1 0.138493,0.03772 c 0.01587,0.0046 0.03228,0.0081 0.04806,0.01292 a 3.7041667,3.7041667 0 0 1 0.02377,0.0078 3.7041667,3.7041667 0 0 1 0.172083,0.05839 c 0.0017,6.19e-4 0.0035,8.8e-4 0.0052,0.0016 a 3.7041667,3.7041667 0 0 1 0.01964,0.0078 3.7041667,3.7041667 0 0 1 0.164847,0.06615 c 0.009,0.0039 0.01791,0.0079 0.02687,0.01188 a 3.7041667,3.7041667 0 0 1 0.174666,0.08217 3.7041667,3.7041667 0 0 1 0.697115,0.453719 l 1.47898,-5.23999 z" />
    <ellipse
       style="fill:none;stroke:#c3c3c3;stroke-width:3.175;stroke-linecap:round;stroke-linejoin:round;stroke-opacity:1;paint-order:markers stroke fill"
       id="path17"
       cx="36.736"
       cy="14.196866"
       rx="7.6632299"
       ry="11.788539" />
    <path
       style="color:#000000;opacity:0.2;fill:url(#linearGradient56);stroke-linecap:round;stroke-linejoin:round;-inkscape-stroke:none;paint-order:markers stroke fill"
       d="m 36.735464,0.8208902 c -2.776042,-1e-6 -5.162125,1.731159 -6.75,4.173828 -1.587876,2.442668 -2.5,5.6670028 -2.5,9.2011718 0,3.53417 0.912124,6.758503 2.5,9.201172 1.587875,2.442669 3.973958,4.175781 6.75,4.175781 2.776042,0 5.162124,-1.733112 6.75,-4.175781 1.587875,-2.442669 2.501953,-5.667002 2.501953,-9.201172 0,-3.534169 -0.914078,-6.7585038 -2.501953,-9.2011718 -1.587876,-2.442669 -3.973958,-4.173828 -6.75,-4.173828 z m 0,3.173828 c 1.456239,0 2.902225,0.906529 4.08789,2.730468 1.185666,1.823939 1.988282,4.4942498 1.988282,7.4707038 0,2.976454 -0.802616,5.646764 -1.988282,7.470703 -1.185665,1.823939 -2.631651,2.730469 -4.08789,2.730469 -1.456239,0 -2.902226,-0.90653 -4.087891,-2.730469 -1.185665,-1.823939 -1.986328,-4.494249 -1.986328,-7.470703 0,-2.976454 0.800663,-5.6467648 1.986328,-7.4707038 1.185665,-1.823939 2.631652,-2.730468 4.087891,-2.730468 z"
       id="ellipse55" />
    <path
       id="path23"
       style="fill:#efeeec;fill-opacity:1;stroke:none;stroke-width:0.264583;stroke-linecap:round;stroke-linejoin:round;paint-order:markers stroke fill"
       d="m 28.879374,17.435365 v 16.66875 H 42.599466 V 29.651673 C 41.849654,29.148595 40.78702,28.433788 40.047684,27.883306 a 3.7041667,3.7041667 0 0 1 -0.207222,0.225826 c -0.0367,0.03783 -0.07336,0.07538 -0.111621,0.111621 a 3.7041667,3.7041667 0 0 1 -0.205156,0.181384 c -0.08905,0.07273 -0.180821,0.142392 -0.276469,0.206706 a 3.7041667,3.7041667 0 0 1 -0.08682,0.05788 c -0.128833,0.08145 -0.263107,0.154341 -0.402043,0.219625 a 3.7041667,3.7041667 0 0 1 -0.05736,0.02584 c -0.149808,0.06728 -0.304413,0.126062 -0.464054,0.173117 -0.161657,0.04765 -0.328538,0.08329 -0.498677,0.10852 a 3.7041667,3.7041667 0 0 1 -0.03514,0.0047 c -0.166691,0.02308 -0.336371,0.03669 -0.50953,0.03669 -0.161976,0 -0.320485,-0.01394 -0.476974,-0.03411 a 3.7041667,3.7041667 0 0 1 -0.114204,-0.01757 c -0.140012,-0.02251 -0.277563,-0.05166 -0.411862,-0.0894 a 3.7041667,3.7041667 0 0 1 -0.05374,-0.01395 c -0.156834,-0.04663 -0.308408,-0.103928 -0.455786,-0.170016 a 3.7041667,3.7041667 0 0 1 -0.0708,-0.03411 C 35.480922,28.814729 35.355595,28.74676 35.235055,28.67142 a 3.7041667,3.7041667 0 0 1 -0.06305,-0.03876 C 35.039403,28.54606 34.912789,28.451364 34.7927,28.348956 a 3.7041667,3.7041667 0 0 1 -0.0677,-0.0615 c -0.101273,-0.09075 -0.197084,-0.186565 -0.287838,-0.287837 a 3.7041667,3.7041667 0 0 1 -0.0615,-0.0677 C 34.273254,27.81183 34.178561,27.685215 34.091958,27.552614 a 3.7041667,3.7041667 0 0 1 -0.03876,-0.06305 c -0.07534,-0.12054 -0.143309,-0.245867 -0.204639,-0.375171 a 3.7041667,3.7041667 0 0 1 -0.03411,-0.0708 c -0.06609,-0.147379 -0.123386,-0.298952 -0.170015,-0.455786 a 3.7041667,3.7041667 0 0 1 -0.01395,-0.05374 c -0.03774,-0.134299 -0.06689,-0.271849 -0.0894,-0.411861 a 3.7041667,3.7041667 0 0 1 -0.01757,-0.114205 c -0.02016,-0.156489 -0.03411,-0.314998 -0.03411,-0.476973 0,-0.161976 0.01394,-0.320485 0.03411,-0.476974 a 3.7041667,3.7041667 0 0 1 0.01757,-0.114205 c 0.02251,-0.140012 0.05166,-0.277562 0.0894,-0.411861 a 3.7041667,3.7041667 0 0 1 0.01395,-0.05374 c 0.04663,-0.156835 0.103927,-0.308408 0.170015,-0.455787 a 3.7041667,3.7041667 0 0 1 0.03411,-0.0708 c 0.06133,-0.129304 0.1293,-0.254631 0.204639,-0.375171 a 3.7041667,3.7041667 0 0 1 0.03876,-0.06305 c 0.0866,-0.132602 0.181296,-0.259217 0.283704,-0.379305 a 3.7041667,3.7041667 0 0 1 0.0615,-0.0677 c 0.09075,-0.101272 0.186565,-0.197083 0.287838,-0.287837 a 3.7041667,3.7041667 0 0 1 0.0677,-0.0615 c 0.120089,-0.102408 0.246703,-0.197101 0.379305,-0.283704 a 3.7041667,3.7041667 0 0 1 0.06305,-0.03876 c 0.12054,-0.07534 0.245867,-0.143309 0.375171,-0.204639 a 3.7041667,3.7041667 0 0 1 0.0708,-0.03411 c 0.147378,-0.06609 0.298952,-0.123386 0.455786,-0.170016 a 3.7041667,3.7041667 0 0 1 0.05374,-0.01395 c 0.134299,-0.03774 0.27185,-0.06689 0.411862,-0.0894 a 3.7041667,3.7041667 0 0 1 0.114204,-0.01757 c 0.156489,-0.02016 0.314998,-0.03411 0.476974,-0.03411 a 3.7041667,3.7041667 0 0 1 0.201021,0.0062 c 0.0279,0.0015 0.05548,0.0041 0.0832,0.0062 a 3.7041667,3.7041667 0 0 1 0.115756,0.01034 c 0.03239,0.0035 0.0645,0.0076 0.09663,0.01188 a 3.7041667,3.7041667 0 0 1 0.09715,0.01447 c 0.03496,0.0057 0.06976,0.01144 0.104387,0.01809 a 3.7041667,3.7041667 0 0 1 0.09457,0.01964 c 0.02492,0.0055 0.0502,0.01005 0.07493,0.01602 0.0068,0.0016 0.01337,0.004 0.02015,0.0057 a 3.7041667,3.7041667 0 0 1 0.138493,0.03772 c 0.01587,0.0046 0.03228,0.0081 0.04806,0.01292 a 3.7041667,3.7041667 0 0 1 0.02377,0.0078 3.7041667,3.7041667 0 0 1 0.172083,0.05839 c 0.0017,6.19e-4 0.0035,9.3e-4 0.0052,0.0016 a 3.7041667,3.7041667 0 0 1 0.01964,0.0078 3.7041667,3.7041667 0 0 1 0.164848,0.06615 c 0.009,0.0039 0.01791,0.0079 0.02687,0.01188 a 3.7041667,3.7041667 0 0 1 0.174666,0.08217 3.7041667,3.7041667 0 0 1 0.697115,0.453719 l 1.47898,-5.23999 z" />
    <rect
       style="fill:#a8b8de;fill-opacity:1;stroke:none;stroke-width:3.175;stroke-linecap:round;stroke-linejoin:round;stroke-opacity:1;paint-order:markers stroke fill"
       id="rect97"
       width="88.188461"
       height="0.52916664"
       x="35.432957"
       y="41.190552" />
    <rect
       style="fill:#a8b8de;fill-opacity:1;stroke:none;stroke-width:3.175;stroke-linecap:round;stroke-linejoin:round;stroke-opacity:1;paint-order:markers stroke fill"
       id="rect98"
       width="88.188461"
       height="0.52916664"
       x="35.432957"
       y="57.065556" />
    <rect
       style="fill:#a8b8de;fill-opacity:1;stroke:none;stroke-width:3.175;stroke-linecap:round;stroke-linejoin:round;stroke-opacity:1;paint-order:markers stroke fill"
       id="rect99"
       width="88.188461"
       height="0.52916664"
       x="35.432957"
       y="72.940552" />
    <rect
       style="fill:#a8b8de;fill-opacity:1;stroke:none;stroke-width:3.175;stroke-linecap:round;stroke-linejoin:round;stroke-opacity:1;paint-order:markers stroke fill"
       id="rect100"
       width="88.188461"
       height="0.52916664"
       x="35.432957"
       y="88.815544" />
    <rect
       style="fill:#a8b8de;fill-opacity:1;stroke:none;stroke-width:3.175;stroke-linecap:round;stroke-linejoin:round;stroke-opacity:1;paint-order:markers stroke fill"
       id="rect101"
       width="88.188461"
       height="0.52916664"
       x="35.432957"
       y="104.69055" />
    <rect
       style="fill:#a8b8de;fill-opacity:1;stroke:none;stroke-width:3.175;stroke-linecap:round;stroke-linejoin:round;stroke-opacity:1;paint-order:markers stroke fill"
       id="rect102"
       width="88.188461"
       height="0.52916664"
       x="35.432957"
       y="120.56555" />
    <rect
       style="fill:#b3b3b3;fill-opacity:1;stroke:none;stroke-width:3.175;stroke-linecap:round;stroke-linejoin:round;stroke-opacity:1;paint-order:markers stroke fill"
       id="rect103"
       width="0.93786263"
       height="11.508351"
       x="6.8112478"
       y="20.791098"
       ry="0.46893132" />
    <rect
       style="fill:#b3b3b3;fill-opacity:1;stroke:none;stroke-width:3.175;stroke-linecap:round;stroke-linejoin:round;stroke-opacity:1;paint-order:markers stroke fill"
       id="rect104"
       width="0.93786263"
       height="11.508351"
       x="12.102915"
       y="20.791098"
       ry="0.46893132" />
    <rect
       style="fill:#b3b3b3;fill-opacity:1;stroke:none;stroke-width:3.175;stroke-linecap:round;stroke-linejoin:round;stroke-opacity:1;paint-order:markers stroke fill"
       id="rect105"
       width="0.93786263"
       height="11.508351"
       x="17.394581"
       y="20.791098"
       ry="0.46893132" />
    <rect
       style="fill:#b3b3b3;fill-opacity:1;stroke:none;stroke-width:3.175;stroke-linecap:round;stroke-linejoin:round;stroke-opacity:1;paint-order:markers stroke fill"
       id="rect106"
       width="0.93786263"
       height="11.508351"
       x="22.686247"
       y="20.791098"
       ry="0.46893132" />
    <rect
       style="mix-blend-mode:normal;fill:#b3b3b3;fill-opacity:1;stroke:none;stroke-width:3.175;stroke-linecap:round;stroke-linejoin:round;stroke-opacity:1;paint-order:markers stroke fill"
       id="rect107"
       width="0.93786263"
       height="11.508351"
       x="6.8112478"
       y="20.791098"
       ry="0.46893132" />
    <rect
       style="mix-blend-mode:normal;fill:#999999;fill-opacity:1;stroke:none;stroke-width:3.175;stroke-linecap:round;stroke-linejoin:round;stroke-opacity:1;paint-order:markers stroke fill"
       id="rect108"
       width="0.93786263"
       height="11.508351"
       x="12.102915"
       y="20.791098"
       ry="0.46893132" />
    <rect
       style="mix-blend-mode:normal;fill:#666666;fill-opacity:1;stroke:none;stroke-width:3.175;stroke-linecap:round;stroke-linejoin:round;stroke-opacity:1;paint-order:markers stroke fill"
       id="rect109"
       width="0.93786263"
       height="11.508351"
       x="17.394581"
       y="20.791098"
       ry="0.46893132" />
    <rect
       style="mix-blend-mode:normal;fill:#4d4d4d;fill-opacity:1;stroke:none;stroke-width:3.175;stroke-linecap:round;stroke-linejoin:round;stroke-opacity:1;paint-order:markers stroke fill"
       id="rect110"
       width="0.93786263"
       height="11.508351"
       x="22.686247"
       y="20.791098"
       ry="0.46893132" />
    <path
       id="text1"
       style="font-style:normal;font-variant:normal;font-weight:normal;font-stretch:normal;font-size:10.5833px;line-height:1.25;font-family:Corinthian;-inkscape-font-specification:'Corinthian, Normal';font-variant-ligatures:normal;font-variant-caps:normal;font-variant-numeric:normal;font-variant-east-asian:normal;fill:#666666;fill-opacity:1;stroke:none;stroke-width:0.264583"
       d="m 55.985214,34.18861 c -1.988205,-0.150919 -4.109219,1.822169 -2.220917,2.196599 -0.380317,1.285509 0.689335,5.340031 1.332073,2.163863 2.510173,0.512516 4.243541,-4.753496 0.888844,-4.360462 z m 44.555936,0 c -1.988549,-0.151028 -4.109313,1.822265 -2.221086,2.196606 -0.380561,1.285474 0.689261,5.340126 1.331729,2.163856 2.510367,0.513092 4.244087,-4.753042 0.889357,-4.360462 z m 20.23495,0 c -1.988,-0.150976 -4.10915,1.822079 -2.22091,2.19656 -0.38019,1.285362 0.68928,5.340044 1.33185,2.163902 2.51026,0.512851 4.24383,-4.75351 0.88906,-4.360462 z m -43.793719,0.201022 c 1.006025,1.192969 2.225392,1.97478 0.09738,3.181401 -0.675484,2.455291 4.439075,4.928245 1.06443,1.535961 -0.419004,-2.009434 3.415644,-5.545632 -1.161813,-4.717362 z m -21.611083,0.434082 c 4.916015,1.810995 -3.838367,4.236964 0,0 z m 44.555935,0 c 4.916017,1.810913 -3.838479,4.237012 0,0 z m 20.235467,0 c 4.91589,1.811446 -3.83897,4.236592 0,0 z m -79.52332,0.116272 c -3.169412,1.725019 1.465417,7.268986 0.758951,4.754724 -1.417065,-1.216628 0.71778,-3.526548 -0.758951,-4.754724 z m 26.627832,0 c -3.170331,1.724722 1.46544,7.269217 0.759,4.754721 -1.417119,-1.216574 0.717067,-3.526251 -0.759,-4.754721 z m 48.365528,0 c -3.16953,1.725077 1.46545,7.269039 0.75893,4.754735 -1.41711,-1.216604 0.71777,-3.526531 -0.75893,-4.754735 z m -80.609554,0.22996 c -2.22893,1.713592 0.553811,7.34843 0.406648,2.05736 0.01591,-0.70085 -0.05108,-1.434658 -0.406648,-2.05736 z m 12.876216,0.0031 c -3.518147,1.685123 0.122849,7.899852 2.318187,2.985055 1.685338,-1.696953 -0.456599,-3.605871 -2.318187,-2.985055 z m 60.325008,0 c -3.5185,1.684799 0.12305,7.900118 2.31815,2.984986 1.6852,-1.696963 -0.45657,-3.605777 -2.31815,-2.984986 z m -69.701696,0.01034 c -4.312553,-1.203099 -2.841727,7.542906 0.377342,3.027193 -3.449811,-1.499639 -1.426116,-2.122983 0.495416,-2.555232 l -0.297644,-0.232031 -0.575111,-0.23993 z m 26.627831,0 c -4.312127,-1.203501 -2.842503,7.542786 0.376801,3.027213 -3.449967,-1.500053 -1.425367,-2.122813 0.495893,-2.555234 l -0.297622,-0.232041 z m 6.296774,0.03204 c -3.59397,-0.9025 -2.18386,6.407812 0.476456,4.46588 -2.331651,0.04434 -0.515455,-3.012989 -1.24204,-3.337459 0.39293,-0.119937 1.481774,-0.610783 0.765584,-1.128421 z m 3.704166,0 c -3.593969,-0.902498 -2.183859,6.407812 0.476457,4.46588 -2.331646,0.04433 -0.515503,-3.012961 -1.242039,-3.337459 0.39293,-0.119936 1.481773,-0.610784 0.765582,-1.128421 z m 6.815605,0 c -3.593937,-0.902516 -2.183789,6.407719 0.476457,4.46588 -2.331428,0.04438 -0.515598,-3.013199 -1.242026,-3.337441 0.393001,-0.119876 1.481885,-0.610809 0.765569,-1.128439 z m 12.869498,0.04237 c -0.50908,3.929482 -2.074794,2.373614 -3.067595,0.593624 -0.48464,1.867974 0.299885,6.061126 1.805262,3.096876 3.095215,3.213314 1.9947,-2.592509 1.262333,-3.6905 z m -4.974373,0.211356 c -4.806113,-0.754413 -0.228568,6.618191 -0.107497,4.249682 -2.699674,-0.362567 -0.507645,-3.035327 0.107497,-4.249682 z m -37.983211,0.116789 c -2.344113,3.107629 2.159188,4.515722 0,0 z m 44.55542,0 c -2.343401,3.109721 2.160479,4.513575 0,0 z m -48.217212,0.09509 c 4.283368,-0.648546 -1.546686,5.744304 -0.239416,0.817697 -0.02872,-0.318688 0.02288,-0.574749 0.239416,-0.817697 z m 60.325008,0 c 4.28325,-0.64852 -1.54682,5.7442 -0.23935,0.817591 -0.0286,-0.318643 0.0227,-0.574701 0.23935,-0.817591 z m 5.87354,0.328145 c -0.18187,3.687658 -1.7561,3.766319 -2.67152,1.019716 -1.4895,3.39161 3.12274,4.987868 3.04441,0.794126 l -0.0338,-0.937378 z M 36.173503,50.264632 c 1.005167,1.192897 2.22596,1.974758 0.09716,3.181265 -0.67625,2.45519 4.439157,4.928458 1.064432,1.536223 -0.419957,-2.009155 3.41581,-5.54544 -1.161594,-4.717488 z m 13.49375,0.08475 c -5.141735,1.821028 2.159691,10.047502 2.730715,3.521315 -0.334731,-1.407196 -1.002617,-3.423821 -2.730715,-3.521315 z m 25.537459,0.37052 c -1.992161,3.030983 -4.358086,-1.87433 -5.222674,2.148961 -0.8434,2.093075 0.868356,4.746979 0.957099,0.94595 0.876803,-5.395019 2.619207,5.323937 2.697231,-0.567851 1.572246,-3.838187 1.946057,6.567235 2.368698,1.050964 -0.693897,-1.101322 -0.02227,-2.513799 -0.800354,-3.578024 z m 30.331488,0 c -1.99197,3.030788 -4.35769,-1.874378 -5.22236,2.148861 -0.843434,2.092971 0.86826,4.747338 0.957,0.946143 0.87669,-5.394949 2.61915,5.323788 2.69753,-0.567901 1.57203,-3.837941 1.94577,6.567244 2.36842,1.050863 -0.69429,-1.101213 -0.0217,-2.514036 -0.80059,-3.577966 z m 10.51977,0 c -1.99186,3.030934 -4.35775,-1.874485 -5.22238,2.148851 -0.84344,2.092976 0.86828,4.747361 0.95703,0.946158 0.87658,-5.394937 2.61935,5.323798 2.69739,-0.567922 1.57206,-3.837902 1.94576,6.567259 2.36844,1.050885 -0.69417,-1.101237 -0.022,-2.513925 -0.80048,-3.577972 z m -60.748234,0.09508 c -3.169343,1.724633 1.46514,7.269054 0.759153,4.754558 -1.416745,-1.216755 0.7176,-3.526493 -0.759153,-4.754558 z m 30.120124,0 c -3.169365,1.72498 1.465317,7.268992 0.758992,4.754718 -1.417002,-1.216651 0.717735,-3.526555 -0.758992,-4.754718 z m -36.343,0.18035 c 3.703557,-0.712615 -0.831735,3.799725 0,0 z m 13.483414,0.05271 c -3.519008,1.683859 0.122413,7.900324 2.317617,2.98514 1.685198,-1.696698 -0.455808,-3.606016 -2.317617,-2.98514 z m 20.74292,0.01034 c -4.312519,-1.203117 -2.841677,7.542834 0.377322,3.027217 -3.450033,-1.499875 -1.425743,-2.122895 0.495551,-2.555284 L 83.886371,51.29829 83.311198,51.058382 Z m -15.08125,0.03204 c -3.593937,-0.902516 -2.183789,6.407718 0.476457,4.46588 -2.331428,0.04438 -0.515598,-3.013199 -1.242026,-3.337441 0.393001,-0.119876 1.481885,-0.610809 0.765569,-1.128439 z m 40.851776,0 c -3.59413,-0.903246 -2.18441,6.407359 0.47594,4.46588 -2.33185,0.044 -0.51442,-3.012534 -1.24175,-3.337329 0.39285,-0.120169 1.4812,-0.610668 0.76581,-1.128551 z m -17.285256,0.05013 c -0.163358,2.546592 -4.182436,2.315321 -3.451009,1.212494 0.546118,2.224964 -2.537882,7.193226 0.516822,2.727436 1.037935,-1.209756 3.236995,-2.005703 2.934187,-3.93993 z m -56.893168,0.320394 c -2.343332,3.10791 2.158918,4.51532 0,0 z m 4.571814,0 c -2.343698,3.109621 2.160527,4.513691 0,0 z m 14.329875,0 c -2.343277,3.108056 2.15902,4.515066 0,0 z m 9.080582,0.09509 c 4.283456,-0.648734 -1.546693,5.744404 -0.239416,0.817697 -0.02872,-0.318688 0.02288,-0.574749 0.239416,-0.817697 z m 60.621113,0.0739 c -5.94006,-0.223506 1.46119,6.865433 1.34026,0.987036 -0.19934,-0.555967 -0.74939,-0.962564 -1.34026,-0.987036 z m -80.570799,0.190686 c -4.058297,-1.695468 -0.635431,6.323315 -0.522019,1.544547 -0.424226,-1.148802 2.290658,-1.084124 0.522019,-1.544547 z m 51.858333,0 c -4.058795,-1.695672 -0.635202,6.323496 -0.5223,1.544529 -0.424657,-1.149238 2.290884,-1.083565 0.5223,-1.544529 z m 25.124576,0 c -4.05833,-1.695594 -0.63571,6.323296 -0.52238,1.544562 -0.42452,-1.149054 2.29071,-1.083611 0.52238,-1.544562 z m 2.8577,0.412895 c 5.59872,2.170289 -4.32692,3.152276 0,0 z m -72.696859,0.751375 c 5.421823,0.09252 -3.146283,4.966275 -0.538331,0.137168 0.179444,-0.04572 0.358887,-0.09145 0.538331,-0.137168 z m 75.649659,2.444812 c -1.63625,1.695725 2.26302,0.632569 0,0 z m -89.71495,9.281604 c -2.409818,2.176604 0.502112,9.32379 -2.605398,8.717943 4.974564,-0.763345 1.912509,-7.089438 2.605398,-8.717943 z m 23.230623,1.227315 c -1.98839,-0.151088 -4.109411,1.822273 -2.220938,2.1966 -0.380381,1.285528 0.689198,5.339933 1.332099,2.163853 2.510173,0.512547 4.243391,-4.753339 0.888839,-4.360453 z m 50.461007,0.0956 c -0.8345,1.440587 -1.52628,6.576053 -2.38129,2.200561 -2.05241,-0.129705 2.22944,6.117732 1.95811,1.732756 -0.0925,-1.318157 1.27523,-2.672597 0.42318,-3.933317 z m -57.86934,0.10542 c 1.00615,1.192939 2.225179,1.974867 0.09729,3.181479 -0.67576,2.45535 4.439179,4.928222 1.064547,1.53592 -0.418948,-2.009188 3.414877,-5.545409 -1.161839,-4.717399 z m 36.576061,0.285771 c -1.807386,2.943488 2.119528,6.923288 3.513041,4.480007 3.01879,4.121721 3.105296,-7.74275 1.642775,-2.006931 -0.202447,5.304676 -2.240815,-4.124906 -2.358612,0.43307 -2.289988,4.065884 -1.448433,-2.211482 -2.797204,-2.906146 z m -29.781644,0.148311 c 4.915972,1.810949 -3.83838,4.23696 0,0 z m -12.657625,0.02119 c -1.99186,3.030666 -4.358278,-1.874128 -5.222526,2.149208 -0.843334,2.093155 0.868565,4.746656 0.957139,0.945765 0.876647,-5.394928 2.619141,5.323841 2.697463,-0.567853 1.571971,-3.838062 1.945731,6.567212 2.368364,1.050855 -0.69414,-1.101244 -0.02203,-2.5139 -0.80044,-3.577975 z m 32.40629,0.09508 c -3.170363,1.724852 1.465442,7.269204 0.758962,4.754803 -1.417228,-1.216524 0.716925,-3.526232 -0.758962,-4.754803 z m 34.056848,0 c -3.17024,1.724928 1.46558,7.269179 0.7589,4.754735 -1.4172,-1.216567 0.71762,-3.52645 -0.7589,-4.754735 z m -39.211055,0.105937 c -0.204678,1.966655 -1.746773,4.37101 -1.984627,1.017853 -2.396897,-0.807261 -1.528542,5.236992 -0.456974,1.499909 1.083075,4.402517 4.114482,-0.488479 2.441601,-2.517762 z m 44.830865,0 c -0.2047,1.966648 -1.74666,4.370997 -1.98456,1.017851 -2.39691,-0.807309 -1.52852,5.237012 -0.45699,1.499917 1.08299,4.402571 4.11466,-0.488584 2.44155,-2.517768 z m -41.740615,0.169499 c -3.593932,-0.90261 -2.18413,6.408062 0.476457,4.46588 -2.332052,0.0445 -0.515088,-3.012688 -1.242142,-3.3373 0.392919,-0.120104 1.48129,-0.610781 0.765685,-1.12858 z m 21.103105,0 c -3.593932,-0.902611 -2.184131,6.408062 0.476456,4.46588 -2.33205,0.0445 -0.515089,-3.01269 -1.242141,-3.337301 0.392918,-0.120104 1.48129,-0.610779 0.765685,-1.128579 z m 3.70417,0 c -3.593936,-0.902611 -2.184134,6.40806 0.47646,4.46588 -2.332056,0.0445 -0.51509,-3.01269 -1.24215,-3.337301 0.39293,-0.120102 1.48131,-0.610783 0.76569,-1.128579 z m -45.984276,0.37052 c -2.344165,3.107698 2.159127,4.515558 0,0 z m 55.795056,0 c -2.34418,3.10749 2.15915,4.515851 0,0 z m -43.179806,0.168982 c -5.940061,-0.223793 1.461036,6.865549 1.34023,0.987215 -0.199429,-0.555942 -0.749424,-0.962425 -1.34023,-0.987215 z m 53.699576,0 c -5.94002,-0.223533 1.46107,6.865423 1.34026,0.987105 -0.19937,-0.555967 -0.74942,-0.962508 -1.34026,-0.987105 z m -57.287471,0.190686 c -4.058622,-1.695661 -0.635198,6.323515 -0.522269,1.544526 -0.424634,-1.149161 2.290818,-1.083641 0.522269,-1.544526 z m 22.902478,0 c -4.058736,-1.695891 -0.635778,6.323121 -0.522559,1.544514 -0.424443,-1.148968 2.290729,-1.083487 0.522559,-1.544514 z m -47.222957,0.06356 c -0.181307,3.687117 -1.756435,3.76732 -2.671392,1.019656 -1.489367,3.391379 3.122296,4.988062 3.044086,0.794289 l -0.03378,-0.937356 z m 27.178186,0.349332 c 5.59772,2.170597 -4.326686,3.151973 0,0 z m 53.699574,0 c 5.59867,2.170261 -4.32694,3.152251 0,0 z M 58.334941,81.81361 c -1.988557,-0.151028 -4.109307,1.822267 -2.221073,2.196611 -0.380558,1.285487 0.689278,5.34012 1.331749,2.163842 2.510419,0.513052 4.243977,-4.752851 0.889324,-4.360453 z m 56.281849,0 c -1.98841,-0.151097 -4.10935,1.822259 -2.22102,2.196602 -0.38047,1.285535 0.68919,5.339949 1.33205,2.163851 2.51006,0.512617 4.24342,-4.753254 0.88897,-4.360453 z m -38.925286,0.201021 c 1.00542,1.19288 2.225801,1.974775 0.09723,3.181414 -0.675939,2.455479 4.439587,4.928184 1.064335,1.536071 -0.420076,-2.009185 3.41597,-5.545391 -1.161565,-4.717485 z m -25.601021,0.08475 c -5.141696,1.821455 2.159967,10.04745 2.730881,3.521248 -0.334735,-1.407253 -1.002758,-3.423759 -2.730881,-3.521248 z m 7.630542,0.349332 c 4.916319,1.810617 -3.838866,4.237113 0,0 z m 56.281845,0 c 4.91592,1.810781 -3.83822,4.236991 0,0 z m -44.809677,0.116272 c -3.169527,1.725065 1.465502,7.269022 0.758905,4.754721 -1.417179,-1.216572 0.717566,-3.526413 -0.758905,-4.754721 z m 28.680936,0 c -3.170344,1.724771 1.465467,7.269111 0.758969,4.754797 -1.417163,-1.216558 0.71712,-3.526322 -0.758969,-4.754797 z m -50.133373,0.105937 c -0.204202,1.966932 -1.746866,4.370699 -1.984579,1.017728 -2.397092,-0.807015 -1.52836,5.237262 -0.456881,1.500056 1.083493,4.402342 4.114461,-0.488469 2.44146,-2.517784 z m 35.835021,0 c -0.204053,1.966986 -1.746948,4.370678 -1.984572,1.017728 -2.397085,-0.807013 -1.528372,5.23726 -0.45689,1.500056 1.083176,4.402396 4.114991,-0.488644 2.441462,-2.517784 z m 4.529956,0 c -0.204545,1.966846 -1.747113,4.370825 -1.984923,1.017735 -2.396942,-0.80681 -1.528217,5.236945 -0.456729,1.500019 1.082918,4.402274 4.114581,-0.488413 2.441652,-2.517754 z m -38.597643,0.07441 c 3.70342,-0.712961 -0.83153,3.800052 0,0 z m 46.249372,0.06305 c -4.312123,-1.203458 -2.842465,7.542675 0.37681,3.027211 -3.449988,-1.500039 -1.425348,-2.122792 0.495901,-2.555214 l -0.297625,-0.232047 z m -28.627709,0.03204 c -3.594154,-0.903246 -2.184619,6.40772 0.47594,4.465881 -2.331398,0.04436 -0.515599,-3.013421 -1.242089,-3.33749 0.392984,-0.11991 1.482018,-0.610369 0.766149,-1.128391 z m 34.924487,0 c -3.593975,-0.902492 -2.183867,6.407811 0.47646,4.465881 -2.3316,0.04438 -0.51564,-3.012902 -1.24213,-3.337482 0.39288,-0.119984 1.48172,-0.610709 0.76567,-1.128399 z m 3.70417,0 c -3.59397,-0.902495 -2.18386,6.407812 0.47646,4.465881 -2.33164,0.04434 -0.51554,-3.012954 -1.24207,-3.337472 0.39292,-0.119945 1.48177,-0.610759 0.76561,-1.128409 z m -64.198156,0.04237 c -0.509121,3.929514 -2.074731,2.373401 -3.067619,0.593677 -0.484657,1.867973 0.29992,6.061176 1.805284,3.096824 3.095294,3.213263 1.994515,-2.592467 1.262335,-3.690501 z m -4.974373,0.211357 c -4.806171,-0.754405 -0.228464,6.618229 -0.10753,4.249663 -2.69983,-0.362568 -0.507691,-3.035279 0.10753,-4.249663 z m 84.402089,0.03204 c -6.14429,-0.01068 1.89063,7.804535 1.34421,1.554057 -0.0826,-0.70831 -0.52604,-1.543757 -1.34421,-1.554057 z m -77.82988,0.08475 c -2.343687,3.109669 2.160557,4.513641 0,0 z m 11.070125,0 c -2.343701,3.109623 2.160527,4.513687 0,0 z m 24.765413,0 c -2.344151,3.107499 2.159083,4.515783 0,0 z m 38.543912,0 c -2.34361,3.109459 2.16031,4.513837 0,0 z m 2.72024,0.560689 c 3.20391,1.520064 -2.5546,3.672208 -0.69652,0.06187 z m -69.754402,0.963249 c 5.421769,0.09354 -3.147514,4.965633 -0.538565,0.136963 0.179522,-0.04565 0.359043,-0.09131 0.538565,-0.136963 z m 72.707202,2.444811 c -1.6365,1.695676 2.26316,0.632671 0,0 z M 53.614816,97.784211 c -0.835029,1.440282 -1.52662,6.576129 -2.381659,2.200551 -2.052991,-0.129543 2.229876,6.117888 1.958402,1.732618 -0.09248,-1.31823 1.273639,-2.67204 0.423257,-3.933169 z m -15.991789,0.01033 c -5.361937,-0.969592 -2.727541,9.460279 0.787402,5.197029 -2.514853,1.7009 -3.605681,-2.72674 -0.58586,-2.11747 -4.617392,-0.27944 0.01246,-2.35468 -0.201542,-3.079559 z m 35.454166,0.179834 c -5.141488,1.821529 2.159817,10.047315 2.730821,3.521205 -0.334634,-1.40715 -1.002326,-3.424567 -2.730821,-3.521205 z m 25.77052,0.243396 c -2.899928,0.10244 -2.498981,7.549349 -0.07235,3.367649 0.88507,2.11807 2.450537,3.65832 1.562507,0.34088 -0.11029,-1.29421 0.13777,-3.261302 -1.490157,-3.708529 z M 40.025464,98.43998 c -3.16942,1.72478 1.465291,7.26905 0.759084,4.75461 -1.416845,-1.2167 0.717822,-3.526602 -0.759084,-4.75461 z m 37.232353,0 c -3.170364,1.72471 1.465479,7.26925 0.759004,4.75467 -1.417115,-1.21656 0.717065,-3.526229 -0.759004,-4.75467 z m -31.612541,0.105937 c -0.204199,1.966923 -1.746863,4.370743 -1.98458,1.017755 -2.396966,-0.806953 -1.528517,5.237088 -0.456972,1.500038 1.083631,4.40223 4.114547,-0.48836 2.441552,-2.517793 z m 17.187582,0 c -0.204666,1.966763 -1.747344,4.370983 -1.985006,1.017765 -2.397027,-0.807042 -1.52817,5.237028 -0.456813,1.500028 1.083155,4.40212 4.114668,-0.48831 2.441819,-2.517793 z m 25.209313,0 c -0.204504,1.966793 -1.747116,4.370893 -1.984859,1.017788 -2.397022,-0.806791 -1.528204,5.236975 -0.456745,1.499995 1.082901,4.40237 4.114663,-0.48846 2.441604,-2.517783 z m 16.869779,0 c -0.20452,1.966783 -1.74703,4.370883 -1.9848,1.017788 -2.39702,-0.806842 -1.52822,5.236985 -0.45678,1.500005 1.08298,4.40234 4.11446,-0.48843 2.44158,-2.517793 z m -32.416633,0.07441 c 3.703467,-0.71146 -0.832312,3.798243 0,0 z m -6.572209,0.09508 c -3.594037,-0.90316 -2.184565,6.407423 0.47594,4.465933 -2.331544,0.0445 -0.515375,-3.01321 -1.2419,-3.337393 0.393061,-0.119962 1.481642,-0.610562 0.76596,-1.12854 z m 16.975708,0 c -3.594127,-0.903213 -2.184656,6.407653 0.47594,4.465933 -2.3316,0.0445 -0.515363,-3.0134 -1.241957,-3.337648 0.393004,-0.119889 1.481701,-0.610302 0.766017,-1.128285 z m 35.305864,0 c -3.5941,-0.903181 -2.18467,6.407493 0.47594,4.465933 -2.33162,0.0445 -0.51538,-3.01298 -1.24207,-3.337464 0.39291,-0.120095 1.48138,-0.610369 0.76613,-1.128469 z m 3.70417,0 c -3.5941,-0.903182 -2.18467,6.407493 0.47594,4.465933 -2.33164,0.0445 -0.51537,-3.01297 -1.24207,-3.337466 0.39291,-0.120097 1.48137,-0.610366 0.76613,-1.128467 z m -6.98511,0.04238 c -0.50979,3.929073 -2.07438,2.373953 -3.0675,0.593696 -0.48467,1.867997 0.29981,6.061127 1.80518,3.096767 3.09518,3.21345 1.99466,-2.592302 1.26232,-3.690463 z m -56.210528,0.0078 c -0.163644,2.546323 -4.182355,2.315613 -3.451118,1.212478 0.545558,2.225045 -2.537559,7.193305 0.516789,2.727245 1.037937,-1.20984 3.236676,-2.00547 2.934329,-3.939723 z m 39.891105,0.108521 c 2.595013,2.570442 -2.31004,2.823712 0,0 z m -3.280937,0.09508 c -4.806075,-0.75446 -0.228877,6.618552 -0.107511,4.249662 -2.699881,-0.36237 -0.508236,-3.03547 0.107511,-4.249662 z M 79.755339,99.08594 c -2.343352,3.10804 2.158912,4.51517 0,0 z m 26.564281,0 c -2.3442,3.1076 2.15903,4.51559 0,0 z m -32.829532,1.52394 c 5.421691,0.0936 -3.147629,4.96554 -0.538345,0.13695 0.179448,-0.0457 0.358897,-0.0913 0.538345,-0.13695 z m 39.835302,13.15475 c 1.00598,1.19299 2.22543,1.97475 0.0974,3.1814 -0.67548,2.45533 4.4391,4.92822 1.06439,1.53595 -0.41912,-2.00947 3.41582,-5.54558 -1.16178,-4.71735 z m 3.11144,0 c 1.00658,1.193 2.22545,1.97467 0.0976,3.18145 -0.67525,2.45523 4.43875,4.92811 1.06422,1.5359 -0.41912,-2.00947 3.41582,-5.54558 -1.16178,-4.71735 z m -59.329721,0.32815 c -2.900002,0.1027 -2.49862,7.54926 -0.07194,3.36778 0.884323,2.11889 2.450837,3.65786 1.561994,0.3408 -0.110324,-1.29418 0.138109,-3.26151 -1.490054,-3.70858 z m 4.445207,0 c -2.899972,0.10234 -2.499093,7.54931 -0.0724,3.36767 0.885034,2.118 2.450595,3.65834 1.562355,0.34095 -0.110355,-1.29421 0.137708,-3.26104 -1.489955,-3.70862 z m 32.51171,0.2222 c -3.170163,1.72481 1.465393,7.26921 0.759004,4.75467 -1.417114,-1.21656 0.717065,-3.52623 -0.759004,-4.75467 z m -27.950749,0.0532 c -2.820098,-1.53553 -3.529465,5.97501 -0.622929,3.68805 0.441178,1.74182 2.692484,4.97252 1.568439,1.23681 -1.715908,-1.30366 1.518158,-4.41138 -0.94551,-4.92486 z m 4.127914,0 c -2.820267,-1.53626 -3.530307,5.97506 -0.623316,3.68809 0.440723,1.74278 2.693057,4.97217 1.568097,1.23638 -1.715425,-1.30373 1.518079,-4.41032 -0.944781,-4.92447 z m 29.442642,0.0527 c -0.20457,1.96682 -1.747108,4.37083 -1.984926,1.01774 -2.396945,-0.80682 -1.528215,5.23694 -0.456732,1.50001 1.082908,4.40229 4.114625,-0.48848 2.441658,-2.51775 z m 12.424577,0 c -0.20423,1.96691 -1.74676,4.37069 -1.98451,1.01773 -2.39698,-0.807 -1.52849,5.23711 -0.45699,1.50004 1.08361,4.40234 4.11453,-0.48846 2.4415,-2.51777 z m -29.411132,0.13746 c -4.312445,-1.20285 -2.841495,7.54261 0.377328,3.02714 -3.450228,-1.49992 -1.425552,-2.12276 0.495654,-2.55527 l -0.297735,-0.23201 -0.575242,-0.23986 z m -41.560254,0.032 c -3.594101,-0.90322 -2.184461,6.4073 0.47594,4.46593 -2.331523,0.0445 -0.515409,-3.01327 -1.241892,-3.33739 0.393086,-0.11994 1.481678,-0.61057 0.765952,-1.12854 z m 3.704167,0 c -3.594025,-0.90317 -2.184545,6.40726 0.47594,4.46593 -2.331523,0.0445 -0.515411,-3.01327 -1.241894,-3.33739 0.393085,-0.11994 1.481679,-0.61057 0.765954,-1.12854 z m 33.781917,0 c -3.59404,-0.90317 -2.184562,6.40743 0.47594,4.46593 -2.331541,0.0445 -0.515466,-3.01324 -1.241899,-3.33739 0.393089,-0.11994 1.48167,-0.61056 0.765959,-1.12854 z m 28.341952,0 c -3.594,-0.90266 -2.18432,6.40806 0.47645,4.46593 -2.33245,0.0447 -0.51492,-3.01261 -1.24212,-3.33749 0.3929,-0.12012 1.48091,-0.61059 0.76567,-1.12844 z m -69.108972,0.0424 c -0.509183,3.92948 -2.074725,2.37335 -3.06762,0.59366 -0.484648,1.86808 0.300014,6.06107 1.805285,3.09676 3.095263,3.21334 1.994549,-2.59256 1.262335,-3.69042 z m 16.149918,0 c -0.508627,3.92994 -2.074441,2.37309 -3.067206,0.59346 -0.484768,1.86796 0.299499,6.06123 1.804869,3.09691 3.095759,3.21389 1.995146,-2.59263 1.262337,-3.69037 z m 2.857707,0.11628 c 2.595005,2.57026 -2.309832,2.82397 0,0 z m 4.445207,0 c 2.594576,2.57084 -2.309977,2.82334 0,0 z m 4.074169,0.0847 c 3.623705,1.84092 -3.773533,2.64078 0,0 z m 4.127397,0 c 3.623597,1.84066 -3.773348,2.64103 0,0 z m 23.050789,0.12712 c -2.344117,3.10773 2.159214,4.51557 0,0 z m -1.598352,0.35967 c -4.05857,-1.69551 -0.635189,6.32371 -0.522254,1.54461 -0.424335,-1.14923 2.290881,-1.08352 0.522254,-1.54461 z m 28.648907,3.60908 c -1.63511,1.69738 2.2637,0.63101 0,0 z" />
  </g>
</svg>
