<?xml version="1.0" encoding="UTF-8" standalone="no"?>
<!-- Created with Inkscape (http://www.inkscape.org/) -->

<svg
   width="512"
   height="512"
   viewBox="0 0 135.46666 135.46667"
   version="1.1"
   id="svg5"
   inkscape:version="1.3.2 (091e20ef0f, 2023-11-25, custom)"
   sodipodi:docname="helix.svg"
   xmlns:inkscape="http://www.inkscape.org/namespaces/inkscape"
   xmlns:sodipodi="http://sodipodi.sourceforge.net/DTD/sodipodi-0.dtd"
   xmlns:xlink="http://www.w3.org/1999/xlink"
   xmlns="http://www.w3.org/2000/svg"
   xmlns:svg="http://www.w3.org/2000/svg">
  <sodipodi:namedview
     id="namedview7"
     pagecolor="#242424"
     bordercolor="#666666"
     borderopacity="1"
     inkscape:showpageshadow="0"
     inkscape:pageopacity="0"
     inkscape:pagecheckerboard="1"
     inkscape:deskcolor="#000000"
     inkscape:document-units="px"
     showgrid="false"
     inkscape:zoom="1"
     inkscape:cx="138.5"
     inkscape:cy="333"
     inkscape:window-width="3256"
     inkscape:window-height="1080"
     inkscape:window-x="1864"
     inkscape:window-y="0"
     inkscape:window-maximized="0"
     inkscape:current-layer="layer1" />
  <defs
     id="defs2">
    <linearGradient
       id="linearGradient39"
       inkscape:collect="always">
      <stop
         style="stop-color:#000000;stop-opacity:1;"
         offset="0"
         id="stop39" />
      <stop
         style="stop-color:#ffffff;stop-opacity:0;"
         offset="1"
         id="stop40" />
    </linearGradient>
    <linearGradient
       id="linearGradient37"
       inkscape:collect="always">
      <stop
         style="stop-color:#000000;stop-opacity:1;"
         offset="0"
         id="stop37" />
      <stop
         style="stop-color:#ffffff;stop-opacity:0;"
         offset="1"
         id="stop38" />
    </linearGradient>
    <linearGradient
       id="linearGradient35"
       inkscape:collect="always">
      <stop
         style="stop-color:#ffffff;stop-opacity:1;"
         offset="0"
         id="stop35" />
      <stop
         style="stop-color:#000000;stop-opacity:0;"
         offset="1"
         id="stop36" />
    </linearGradient>
    <linearGradient
       id="linearGradient33"
       inkscape:collect="always">
      <stop
         style="stop-color:#000000;stop-opacity:1;"
         offset="0"
         id="stop33" />
      <stop
         style="stop-color:#ffffff;stop-opacity:0;"
         offset="1"
         id="stop34" />
    </linearGradient>
    <inkscape:path-effect
       effect="fillet_chamfer"
       id="path-effect22"
       is_visible="true"
       lpeversion="1"
       nodesatellites_param="F,0,0,1,0,0,0,1 @ F,0,1,1,0,8,0,1 @ F,0,1,1,0,8,0,1 @ F,0,0,1,0,0,0,1 @ F,0,0,1,0,0,0,1 @ F,0,0,1,0,0,0,1 @ F,0,0,1,0,0,0,1"
       radius="8"
       unit="px"
       method="auto"
       mode="F"
       chamfer_steps="1"
       flexible="false"
       use_knot_distance="true"
       apply_no_radius="true"
       apply_with_radius="true"
       only_selected="true"
       hide_knots="false" />
    <inkscape:path-effect
       effect="fillet_chamfer"
       id="path-effect21"
       is_visible="true"
       lpeversion="1"
       nodesatellites_param="F,0,0,1,0,0,0,1 @ F,0,1,1,0,8,0,1 @ F,0,1,1,0,8,0,1 @ F,0,0,1,0,0,0,1 @ F,0,0,1,0,0,0,1 @ F,0,0,1,0,0,0,1 @ F,0,0,1,0,0,0,1"
       radius="8"
       unit="px"
       method="auto"
       mode="F"
       chamfer_steps="1"
       flexible="false"
       use_knot_distance="true"
       apply_no_radius="true"
       apply_with_radius="true"
       only_selected="true"
       hide_knots="false" />
    <inkscape:path-effect
       effect="fillet_chamfer"
       id="path-effect20"
       is_visible="true"
       lpeversion="1"
       nodesatellites_param="F,0,0,1,0,0,0,1 @ F,0,0,1,0,4,0,1 @ F,0,0,1,0,4,0,1 @ F,0,0,1,0,0,0,1 @ F,0,0,1,0,0,0,1 @ F,0,0,1,0,0,0,1 @ F,0,0,1,0,0,0,1"
       radius="8"
       unit="px"
       method="auto"
       mode="F"
       chamfer_steps="1"
       flexible="false"
       use_knot_distance="true"
       apply_no_radius="true"
       apply_with_radius="true"
       only_selected="true"
       hide_knots="false" />
    <inkscape:path-effect
       effect="fillet_chamfer"
       id="path-effect19"
       is_visible="true"
       lpeversion="1"
       nodesatellites_param="F,0,0,1,0,0,0,1 @ F,0,0,1,0,4,0,1 @ F,0,0,1,0,4,0,1 @ F,0,0,1,0,0,0,1 @ F,0,0,1,0,0,0,1 @ F,0,0,1,0,0,0,1 @ F,0,0,1,0,0,0,1"
       radius="8"
       unit="px"
       method="auto"
       mode="F"
       chamfer_steps="1"
       flexible="false"
       use_knot_distance="true"
       apply_no_radius="true"
       apply_with_radius="true"
       only_selected="true"
       hide_knots="false" />
    <inkscape:path-effect
       effect="fillet_chamfer"
       id="path-effect15"
       is_visible="true"
       lpeversion="1"
       nodesatellites_param="F,0,0,1,0,6,0,1 @ F,0,0,1,0,6,0,1 @ F,0,0,1,0,6,0,1 @ F,0,0,1,0,6,0,1 @ F,0,0,1,0,6,0,1 @ F,0,0,1,0,6,0,1 @ F,0,0,1,0,6,0,1 @ F,0,0,1,0,6,0,1"
       radius="6"
       unit="px"
       method="auto"
       mode="F"
       chamfer_steps="1"
       flexible="false"
       use_knot_distance="true"
       apply_no_radius="true"
       apply_with_radius="true"
       only_selected="false"
       hide_knots="false" />
    <inkscape:path-effect
       effect="fillet_chamfer"
       id="path-effect12"
       is_visible="true"
       lpeversion="1"
       nodesatellites_param="F,0,0,1,0,4,0,1 @ F,0,0,1,0,4,0,1 @ F,0,0,1,0,4,0,1 @ F,0,0,1,0,4,0,1 @ F,0,0,1,0,4,0,1 @ F,0,0,1,0,4,0,1 @ F,0,0,1,0,4,0,1"
       radius="4"
       unit="px"
       method="auto"
       mode="F"
       chamfer_steps="1"
       flexible="false"
       use_knot_distance="true"
       apply_no_radius="true"
       apply_with_radius="true"
       only_selected="false"
       hide_knots="false" />
    <linearGradient
       inkscape:collect="always"
       xlink:href="#linearGradient33"
       id="linearGradient34"
       x1="-392.29251"
       y1="70.416275"
       x2="-250.36002"
       y2="-11.832588"
       gradientUnits="userSpaceOnUse"
       gradientTransform="matrix(-0.67473916,0,0,0.67473916,-159.66136,20.426311)" />
    <linearGradient
       inkscape:collect="always"
       xlink:href="#linearGradient35"
       id="linearGradient36"
       x1="-250.36002"
       y1="70.111572"
       x2="-369.37909"
       y2="1.3965729"
       gradientUnits="userSpaceOnUse"
       gradientTransform="matrix(-0.67473916,0,0,0.67473916,-138.49468,20.426311)" />
    <linearGradient
       inkscape:collect="always"
       xlink:href="#linearGradient37"
       id="linearGradient38"
       x1="-250.36015"
       y1="66.356049"
       x2="-392.29251"
       y2="152.05573"
       gradientUnits="userSpaceOnUse"
       gradientTransform="matrix(-0.67473916,0,0,0.67473916,-138.49467,20.426311)" />
    <linearGradient
       inkscape:collect="always"
       xlink:href="#linearGradient39"
       id="linearGradient40"
       x1="-392.29251"
       y1="70.416275"
       x2="-273.27359"
       y2="138.82655"
       gradientUnits="userSpaceOnUse"
       gradientTransform="matrix(-0.67473916,0,0,0.67473916,-159.66124,20.426325)" />
  </defs>
  <g
     inkscape:label="Layer 1"
     inkscape:groupmode="layer"
     id="layer1">
    <path
       id="path26"
       style="fill:#2a7fff;fill-opacity:1;stroke:none;stroke-width:2.11666;stroke-linecap:round;stroke-linejoin:round;stroke-dashoffset:149.514;paint-order:markers stroke fill"
       d="m 34.846006,55.290934 c -0.47585,0.242207 -0.89141,0.617168 -1.1794,1.11598 -0.79122,1.370426 -0.32492,3.110685 1.04551,3.901907 l 12.329601,7.1185 76.410873,41.060689 5.70203,3.29207 c 1.44641,0.835 2.33747,2.37823 2.33753,4.04836 l -1.1e-4,14.39166 c 1e-5,1.67014 -0.891,3.21341 -2.33738,4.04846 l -2.07554,1.1981 c 0.47585,-0.24221 0.8914,-0.61717 1.17939,-1.11598 0.79122,-1.37042 0.32492,-3.11068 -1.04551,-3.9019 l -12.3296,-7.1185 -76.410867,-41.060692 -5.702037,-3.292072 c -1.4464,-0.835001 -2.33746,-2.378227 -2.33753,-4.048351 l 1.2e-4,-14.391665 c -10e-6,-1.670138 0.891,-3.213407 2.33738,-4.048468 z"
       sodipodi:nodetypes="csccccccccssccccccc" />
    <path
       id="path28"
       style="fill:#672178;fill-opacity:1;stroke:none;stroke-width:2.11666;stroke-linecap:round;stroke-linejoin:round;stroke-dashoffset:149.514;paint-order:markers stroke fill"
       d="m 100.62078,80.175732 c 0.47585,-0.242207 0.89141,-0.617168 1.1794,-1.11598 0.79122,-1.370427 0.32492,-3.110686 -1.04552,-3.901908 L 88.425057,68.039345 12.014189,26.978657 6.3121494,23.686584 C 4.8657494,22.851581 3.9746798,21.308358 3.9746198,19.63823 l 1.2e-4,-14.3916599 c -1e-5,-1.6701414 0.8909996,-3.2134115 2.3373796,-4.0484687 L 8.3876594,8.0779788e-7 C 7.9118094,0.24221192 7.4962494,0.61717122 7.2082594,1.1159856 c -0.79121,1.3704155 -0.32493,3.1106825 1.04552,3.9019019 l 12.3295996,7.1184985 76.410866,41.060691 5.702035,3.292073 c 1.44641,0.835001 2.33748,2.378227 2.33754,4.04835 l -1.2e-4,14.391666 c 1e-5,1.670138 -0.891,3.213407 -2.33738,4.048468 z"
       sodipodi:nodetypes="csscccccccscccccccc" />
    <path
       id="path30"
       style="display:inline;mix-blend-mode:overlay;fill:url(#linearGradient38);stroke:none;stroke-width:2.11666;stroke-linecap:round;stroke-linejoin:round;stroke-dashoffset:149.514;paint-order:markers stroke fill"
       d="m 34.846006,55.290935 c -0.47585,0.242207 -0.89141,0.617168 -1.1794,1.11598 -0.79122,1.370427 -0.32493,3.110685 1.04552,3.901908 l 12.329596,7.118498 76.410878,41.060689 5.70203,3.29207 c 1.4464,0.835 2.33747,2.37823 2.33753,4.04836 l -1.1e-4,14.39166 c 0,1.67014 -0.891,3.21341 -2.33739,4.04846 l -2.07554,1.1981 c 0.47586,-0.24221 0.89141,-0.61717 1.1794,-1.11598 0.79121,-1.37042 0.32493,-3.11068 -1.04551,-3.9019 L 114.8834,123.33028 38.472533,82.26959 32.770496,78.977516 c -1.44639,-0.835001 -2.33746,-2.378226 -2.33753,-4.048351 l 1.2e-4,-14.391665 c -10e-6,-1.670138 0.891,-3.213406 2.33738,-4.048468 z"
       sodipodi:nodetypes="csccccccccssccccccc" />
    <path
       id="path31"
       style="display:inline;mix-blend-mode:soft-light;fill:url(#linearGradient34);stroke:none;stroke-width:2.11666;stroke-linecap:round;stroke-linejoin:round;stroke-dashoffset:149.514;paint-order:markers stroke fill"
       d="m 100.62078,80.175732 c 0.47585,-0.242207 0.89141,-0.617168 1.1794,-1.11598 0.79122,-1.370427 0.32492,-3.110686 -1.04552,-3.901908 L 88.425057,68.039345 12.014179,26.978657 6.3121494,23.686584 C 4.8657494,22.851581 3.9746798,21.308358 3.9746198,19.63823 l 1.1e-4,-14.3916599 c 0,-1.6701414 0.8909996,-3.2134115 2.3373896,-4.0484687 L 8.3876594,8.0779788e-7 C 7.9117994,0.24221192 7.4962494,0.61717122 7.2082594,1.1159856 c -0.79121,1.3704155 -0.32493,3.1106825 1.04552,3.9019019 l 12.3295996,7.1184985 76.410866,41.060691 5.702035,3.292073 c 1.44641,0.835001 2.33748,2.378227 2.33754,4.04835 l -1.2e-4,14.391666 c 1e-5,1.670138 -0.891,3.213407 -2.33738,4.048468 z"
       sodipodi:nodetypes="csscccccccscccccccc" />
    <path
       id="path27"
       style="fill:#0044aa;fill-opacity:1;stroke:none;stroke-width:2.11666;stroke-linecap:round;stroke-linejoin:round;stroke-dashoffset:149.514;paint-order:markers stroke fill"
       d="m 34.846116,80.175729 c -0.47585,-0.242204 -0.89141,-0.61717 -1.1794,-1.115978 -0.79121,-1.370429 -0.32492,-3.110689 1.04552,-3.901909 l 12.329596,-7.118498 55.658508,-32.134454 5.70203,-3.292072 c 1.4464,-0.835005 2.33747,-2.378226 2.33753,-4.048356 l -1.1e-4,-14.391658 c 0,-1.670142 -0.891,-3.213412 -2.33739,-4.048469 l -2.07553,-1.1981012 c 0.47585,0.2422111 0.89141,0.6171691 1.17939,1.1159842 0.79121,1.370417 0.32493,3.110683 -1.04551,3.901902 l -12.3296,7.1185 -55.658497,32.134453 -5.702037,3.292073 c -1.4464,0.835003 -2.33747,2.378226 -2.33753,4.048354 l 1.1e-4,14.39166 c -10e-6,1.670141 0.891,3.213411 2.33739,4.048468 z"
       sodipodi:nodetypes="csccccccccscccccccc" />
    <path
       id="path29"
       style="fill:#bc5fd3;fill-opacity:1;stroke:none;stroke-width:2.11666;stroke-linecap:round;stroke-linejoin:round;stroke-dashoffset:149.514;paint-order:markers stroke fill"
       d="m 100.62077,55.290932 c 0.47586,0.242203 0.89141,0.617172 1.1794,1.115981 0.79123,1.370423 0.32493,3.110689 -1.04551,3.901907 l -12.329609,7.118501 -55.658495,32.134449 -5.70204,3.29207 c -1.4464,0.83501 -2.33747,2.37823 -2.33754,4.04835 l 1.2e-4,14.39167 c -10e-6,1.67013 0.891,3.2134 2.33739,4.04847 l 2.07553,1.19809 c -0.47585,-0.24221 -0.8914,-0.61717 -1.17939,-1.11598 -0.79121,-1.37042 -0.32493,-3.11068 1.04551,-3.90191 l 12.329597,-7.1185 55.658505,-32.134439 5.702042,-3.292073 c 1.4464,-0.835008 2.33747,-2.378226 2.33754,-4.048356 l -1.3e-4,-14.391658 c 10e-6,-1.670144 -0.891,-3.213412 -2.33738,-4.048468 z"
       sodipodi:nodetypes="csccccccccssccccccc" />
    <path
       id="path32"
       style="display:inline;mix-blend-mode:overlay;fill:url(#linearGradient36);stroke:none;stroke-width:2.11666;stroke-linecap:round;stroke-linejoin:round;stroke-dashoffset:149.514;paint-order:markers stroke fill"
       d="m 34.846116,80.175729 c -0.47585,-0.242204 -0.89141,-0.61717 -1.1794,-1.115978 -0.79122,-1.370429 -0.32492,-3.110689 1.04552,-3.901909 l 12.329596,-7.118498 55.658508,-32.134454 5.70203,-3.292072 c 1.4464,-0.835005 2.33746,-2.378226 2.33753,-4.048356 l -1.2e-4,-14.391658 c 1e-5,-1.670142 -0.891,-3.213412 -2.33738,-4.048469 l -2.07554,-1.1981012 c 0.47585,0.2422111 0.89141,0.6171691 1.1794,1.1159842 0.79121,1.370417 0.32492,3.110683 -1.04552,3.901902 l -12.329596,7.1185 -55.658491,32.134453 -5.702037,3.292073 c -1.4464,0.835003 -2.33747,2.378226 -2.33754,4.048354 l 1.2e-4,14.39166 c -10e-6,1.670141 0.891,3.213411 2.33738,4.048468 z"
       sodipodi:nodetypes="csccccccccscccccccc" />
    <path
       id="path33"
       style="display:inline;mix-blend-mode:soft-light;fill:url(#linearGradient40);stroke:none;stroke-width:2.11666;stroke-linecap:round;stroke-linejoin:round;stroke-dashoffset:149.514;paint-order:markers stroke fill"
       d="m 100.62089,55.290947 c 0.47586,0.242203 0.89142,0.617172 1.1794,1.115981 0.79123,1.370423 0.32493,3.110689 -1.04551,3.901907 l -12.329608,7.118501 -55.658496,32.134454 -5.70204,3.29207 c -1.4464,0.83501 -2.33747,2.37823 -2.33754,4.04835 l 1.2e-4,14.39167 c -10e-6,1.67013 0.891,3.2134 2.33739,4.04847 l 2.07553,1.19809 c -0.47585,-0.24221 -0.8914,-0.61717 -1.17939,-1.11598 -0.79121,-1.37042 -0.32493,-3.11068 1.04551,-3.90191 l 12.329599,-7.1185 55.658504,-32.134444 5.702041,-3.292073 c 1.4464,-0.835008 2.33747,-2.378226 2.33754,-4.048356 l -1.2e-4,-14.391658 c 0,-1.670144 -0.891,-3.213413 -2.33739,-4.048468 z"
       sodipodi:nodetypes="csccccccccssccccccc" />
  </g>
</svg>
