<?xml version="1.0" encoding="UTF-8" standalone="no"?>
<!-- Created with Inkscape (http://www.inkscape.org/) -->

<svg
   width="512"
   height="512"
   viewBox="0 0 135.46666 135.46667"
   version="1.1"
   id="svg5"
   inkscape:version="1.2.1 (9c6d41e410, 2022-07-14, custom)"
   sodipodi:docname="io.github.celluloid_player.Celluloid.svg"
   xmlns:inkscape="http://www.inkscape.org/namespaces/inkscape"
   xmlns:sodipodi="http://sodipodi.sourceforge.net/DTD/sodipodi-0.dtd"
   xmlns:xlink="http://www.w3.org/1999/xlink"
   xmlns="http://www.w3.org/2000/svg"
   xmlns:svg="http://www.w3.org/2000/svg"
   xmlns:rdf="http://www.w3.org/1999/02/22-rdf-syntax-ns#"
   xmlns:cc="http://creativecommons.org/ns#"
   xmlns:dc="http://purl.org/dc/elements/1.1/">>
  <sodipodi:namedview
     id="namedview7"
     pagecolor="#505050"
     bordercolor="#ffffff"
     borderopacity="1"
     inkscape:showpageshadow="0"
     inkscape:pageopacity="0"
     inkscape:pagecheckerboard="1"
     inkscape:deskcolor="#505050"
     inkscape:document-units="px"
     showgrid="false"
     inkscape:zoom="0.79296878"
     inkscape:cx="470.38422"
     inkscape:cy="175.29063"
     inkscape:window-width="3252"
     inkscape:window-height="1076"
     inkscape:window-x="1864"
     inkscape:window-y="0"
     inkscape:window-maximized="0"
     inkscape:current-layer="layer1" />
  <defs
     id="defs2">
    <linearGradient
       inkscape:collect="always"
       id="linearGradient10328">
      <stop
         style="stop-color:#ffffff;stop-opacity:1;"
         offset="0"
         id="stop10324" />
      <stop
         style="stop-color:#ffffff;stop-opacity:0;"
         offset="1"
         id="stop10326" />
    </linearGradient>
    <linearGradient
       inkscape:collect="always"
       id="linearGradient1292">
      <stop
         style="stop-color:#501616;stop-opacity:1;"
         offset="0"
         id="stop1288" />
      <stop
         style="stop-color:#1e0808;stop-opacity:0;"
         offset="0.1626891"
         id="stop1428" />
      <stop
         style="stop-color:#000000;stop-opacity:1;"
         offset="0.33983859"
         id="stop1424" />
      <stop
         style="stop-color:#501616;stop-opacity:0.62992752;"
         offset="0.49543294"
         id="stop1296" />
      <stop
         style="stop-color:#000909;stop-opacity:1;"
         offset="0.657287"
         id="stop1426" />
      <stop
         style="stop-color:#1d0606;stop-opacity:0;"
         offset="0.82049024"
         id="stop1430" />
      <stop
         style="stop-color:#5b0000;stop-opacity:1;"
         offset="1"
         id="stop1290" />
    </linearGradient>
    <linearGradient
       inkscape:collect="always"
       id="linearGradient39048">
      <stop
         style="stop-color:#ffffff;stop-opacity:1;"
         offset="0"
         id="stop39044" />
      <stop
         style="stop-color:#ffffff;stop-opacity:0;"
         offset="1"
         id="stop39046" />
    </linearGradient>
    <linearGradient
       inkscape:collect="always"
       id="linearGradient27028">
      <stop
         style="stop-color:#2b1100;stop-opacity:1;"
         offset="0"
         id="stop27022" />
      <stop
         style="stop-color:#674900;stop-opacity:1;"
         offset="1"
         id="stop27024" />
    </linearGradient>
    <linearGradient
       inkscape:collect="always"
       id="linearGradient22575">
      <stop
         style="stop-color:#2b1100;stop-opacity:1;"
         offset="0"
         id="stop22571" />
      <stop
         style="stop-color:#674900;stop-opacity:1;"
         offset="0.47181943"
         id="stop24075" />
      <stop
         style="stop-color:#2b1d00;stop-opacity:1;"
         offset="1"
         id="stop22573" />
    </linearGradient>
    <linearGradient
       inkscape:collect="always"
       id="linearGradient20335">
      <stop
         style="stop-color:#008eff;stop-opacity:1;"
         offset="0"
         id="stop20331" />
      <stop
         style="stop-color:#8f00ff;stop-opacity:1;"
         offset="1"
         id="stop20333" />
    </linearGradient>
    <linearGradient
       inkscape:collect="always"
       id="linearGradient18875">
      <stop
         style="stop-color:#008000;stop-opacity:1;"
         offset="0"
         id="stop18871" />
      <stop
         style="stop-color:#52be00;stop-opacity:1;"
         offset="1"
         id="stop18873" />
    </linearGradient>
    <linearGradient
       inkscape:collect="always"
       xlink:href="#linearGradient18875"
       id="linearGradient18877"
       x1="227.44084"
       y1="135.56653"
       x2="234.59151"
       y2="31.475079"
       gradientUnits="userSpaceOnUse"
       gradientTransform="translate(-159.70749,-15.787565)" />
    <linearGradient
       inkscape:collect="always"
       xlink:href="#linearGradient20335"
       id="linearGradient20337"
       x1="67.733337"
       y1="15.687606"
       x2="61.887386"
       y2="74.909538"
       gradientUnits="userSpaceOnUse" />
    <linearGradient
       inkscape:collect="always"
       xlink:href="#linearGradient22575"
       id="linearGradient22577"
       x1="242.57208"
       y1="206.87029"
       x2="378.03873"
       y2="71.403618"
       gradientUnits="userSpaceOnUse"
       gradientTransform="translate(-242.57208,-71.403614)" />
    <radialGradient
       inkscape:collect="always"
       xlink:href="#linearGradient27028"
       id="radialGradient27020"
       cx="-282.64951"
       cy="111.36107"
       fx="-282.64951"
       fy="111.36107"
       r="67.73333"
       gradientUnits="userSpaceOnUse"
       gradientTransform="translate(350.38283,-43.627746)" />
    <linearGradient
       inkscape:collect="always"
       xlink:href="#linearGradient18875"
       id="linearGradient31517"
       gradientUnits="userSpaceOnUse"
       gradientTransform="translate(-159.70749,-126.75821)"
       x1="227.44084"
       y1="135.56653"
       x2="234.59151"
       y2="31.475079" />
    <linearGradient
       inkscape:collect="always"
       xlink:href="#linearGradient20335"
       id="linearGradient32305"
       gradientUnits="userSpaceOnUse"
       x1="67.733337"
       y1="15.687606"
       x2="61.887386"
       y2="74.909538"
       gradientTransform="translate(6.1278076e-6,110.97063)" />
    <linearGradient
       inkscape:collect="always"
       xlink:href="#linearGradient39048"
       id="linearGradient39052"
       x1="-168.78044"
       y1="15.682095"
       x2="-153.28171"
       y2="73.524178"
       gradientUnits="userSpaceOnUse"
       gradientTransform="translate(210.54064,-15.682247)" />
    <linearGradient
       inkscape:collect="always"
       xlink:href="#linearGradient1292"
       id="linearGradient1294"
       x1="-129.41765"
       y1="-4.4827547"
       x2="-78.85199"
       y2="131.29776"
       gradientUnits="userSpaceOnUse"
       gradientTransform="translate(166.6547,4.3257791)" />
    <radialGradient
       inkscape:collect="always"
       xlink:href="#linearGradient10328"
       id="radialGradient10330"
       cx="-181.66954"
       cy="119.85471"
       fx="-181.66954"
       fy="119.85471"
       r="33.866665"
       gradientTransform="translate(249.40287,-52.121391)"
       gradientUnits="userSpaceOnUse" />
  </defs>
  <g
     inkscape:label="Layer 1"
     inkscape:groupmode="layer"
     id="layer1"
     style="display:inline">
    <path
       id="rect792-97-1-5"
       style="display:inline;opacity:0.6;mix-blend-mode:normal;fill:#121100;fill-opacity:1;stroke-width:1.37583;stroke-linecap:round;stroke-linejoin:round;paint-order:stroke fill markers"
       d="M 3.7499999e-6,-7.0000001e-6 V 135.46667 H 3.3827437 v -2.67632 c 0,-0.54839 0.44174,-0.99013 0.99012,-0.99013 h 6.0709493 c 0.54837,0 0.99063,0.44174 0.99063,0.99013 v 2.67632 H 124.03274 v -2.67632 c 0,-0.54839 0.44122,-0.99013 0.9896,-0.99013 h 6.07147 c 0.54836,0 0.99012,0.44173 0.99012,0.99013 v 2.67632 h 3.38273 V -7.0000001e-6 h -3.38273 V 2.676833 c 0,0.548375 -0.44176,0.989604 -0.99012,0.989604 h -6.07147 c -0.54838,0 -0.9896,-0.441229 -0.9896,-0.989604 V -7.0000001e-6 H 11.434443 V 2.676833 c 0,0.548375 -0.44226,0.989604 -0.99063,0.989604 H 4.3728637 c -0.54838,0 -0.99012,-0.441229 -0.99012,-0.989604 V -7.0000001e-6 Z M 4.3728637,8.958103 h 6.0709493 c 0.54837,0 0.99063,0.441228 0.99063,0.989603 v 2.965711 c 0,0.548376 -0.44226,0.99012 -0.99063,0.99012 H 4.3728637 c -0.54838,0 -0.99012,-0.441744 -0.99012,-0.99012 V 9.947706 c 0,-0.548375 0.44174,-0.989603 0.99012,-0.989603 z m 120.6494763,0 h 6.07147 c 0.54836,0 0.99012,0.441228 0.99012,0.989603 v 2.965711 c 0,0.548376 -0.44176,0.99012 -0.99012,0.99012 h -6.07147 c -0.54838,0 -0.9896,-0.441744 -0.9896,-0.99012 V 9.947706 c 0,-0.548375 0.44122,-0.989603 0.9896,-0.989603 z M 4.3728637,19.195204 h 6.0709493 c 0.54837,0 0.99063,0.441227 0.99063,0.989603 v 2.965711 c 0,0.548375 -0.44226,0.989603 -0.99063,0.989603 H 4.3728637 c -0.54838,0 -0.99012,-0.441228 -0.99012,-0.989603 v -2.965711 c 0,-0.548376 0.44174,-0.989603 0.99012,-0.989603 z m 120.6494763,0 h 6.07147 c 0.54836,0 0.99012,0.441227 0.99012,0.989603 v 2.965711 c 0,0.548375 -0.44176,0.989603 -0.99012,0.989603 h -6.07147 c -0.54838,0 -0.9896,-0.441228 -0.9896,-0.989603 v -2.965711 c 0,-0.548376 0.44122,-0.989603 0.9896,-0.989603 z M 4.3728637,29.431789 h 6.0709493 c 0.54837,0 0.99063,0.44123 0.99063,0.9896 v 2.96571 c 0,0.54838 -0.44226,0.99012 -0.99063,0.99012 H 4.3728637 c -0.54838,0 -0.99012,-0.44174 -0.99012,-0.99012 v -2.96571 c 0,-0.54837 0.44174,-0.9896 0.99012,-0.9896 z m 120.6494763,0 h 6.07147 c 0.54836,0 0.99012,0.44123 0.99012,0.9896 v 2.96571 c 0,0.54838 -0.44176,0.99012 -0.99012,0.99012 h -6.07147 c -0.54838,0 -0.9896,-0.44174 -0.9896,-0.99012 v -2.96571 c 0,-0.54837 0.44122,-0.9896 0.9896,-0.9896 z M 4.3728637,39.668889 h 6.0709493 c 0.54837,0 0.99063,0.44123 0.99063,0.9896 v 2.96571 c 0,0.54838 -0.44226,0.98961 -0.99063,0.98961 H 4.3728637 c -0.54838,0 -0.99012,-0.44123 -0.99012,-0.98961 v -2.96571 c 0,-0.54837 0.44174,-0.9896 0.99012,-0.9896 z m 120.6494763,0 h 6.07147 c 0.54836,0 0.99012,0.44123 0.99012,0.9896 v 2.96571 c 0,0.54838 -0.44176,0.98961 -0.99012,0.98961 h -6.07147 c -0.54838,0 -0.9896,-0.44123 -0.9896,-0.98961 v -2.96571 c 0,-0.54837 0.44122,-0.9896 0.9896,-0.9896 z M 4.3728637,49.905469 h 6.0709493 c 0.54837,0 0.99063,0.44123 0.99063,0.98961 v 2.96571 c 0,0.54838 -0.44226,0.99012 -0.99063,0.99012 H 4.3728637 c -0.54838,0 -0.99012,-0.44174 -0.99012,-0.99012 v -2.96571 c 0,-0.54838 0.44174,-0.98961 0.99012,-0.98961 z m 120.6494763,0 h 6.07147 c 0.54836,0 0.99012,0.44123 0.99012,0.98961 v 2.96571 c 0,0.54838 -0.44176,0.99012 -0.99012,0.99012 h -6.07147 c -0.54838,0 -0.9896,-0.44174 -0.9896,-0.99012 v -2.96571 c 0,-0.54838 0.44122,-0.98961 0.9896,-0.98961 z M 4.3728637,60.142573 h 6.0709493 c 0.54837,0 0.99063,0.44123 0.99063,0.98961 v 2.96571 c 0,0.54838 -0.44226,0.9896 -0.99063,0.9896 H 4.3728637 c -0.54838,0 -0.99012,-0.44122 -0.99012,-0.9896 v -2.96571 c 0,-0.54838 0.44174,-0.98961 0.99012,-0.98961 z m 120.6494763,0 h 6.07147 c 0.54836,0 0.99012,0.44123 0.99012,0.98961 v 2.96571 c 0,0.54838 -0.44176,0.9896 -0.99012,0.9896 h -6.07147 c -0.54838,0 -0.9896,-0.44122 -0.9896,-0.9896 v -2.96571 c 0,-0.54838 0.44122,-0.98961 0.9896,-0.98961 z M 4.3728637,70.379163 h 6.0709493 c 0.54837,0 0.99063,0.44123 0.99063,0.9896 v 2.96571 c 0,0.54838 -0.44226,0.99012 -0.99063,0.99012 H 4.3728637 c -0.54838,0 -0.99012,-0.44174 -0.99012,-0.99012 v -2.96571 c 0,-0.54837 0.44174,-0.9896 0.99012,-0.9896 z m 120.6494763,0 h 6.07147 c 0.54836,0 0.99012,0.44123 0.99012,0.9896 v 2.96571 c 0,0.54838 -0.44176,0.99012 -0.99012,0.99012 h -6.07147 c -0.54838,0 -0.9896,-0.44174 -0.9896,-0.99012 v -2.96571 c 0,-0.54837 0.44122,-0.9896 0.9896,-0.9896 z M 4.3728637,80.616262 h 6.0709493 c 0.54837,0 0.99063,0.44123 0.99063,0.9896 v 2.96571 c 0,0.54838 -0.44226,0.98961 -0.99063,0.98961 H 4.3728637 c -0.54838,0 -0.99012,-0.44123 -0.99012,-0.98961 v -2.96571 c 0,-0.54837 0.44174,-0.9896 0.99012,-0.9896 z m 120.6494763,0 h 6.07147 c 0.54836,0 0.99012,0.44123 0.99012,0.9896 v 2.96571 c 0,0.54837 -0.44176,0.98961 -0.99012,0.98961 h -6.07147 c -0.54838,0 -0.9896,-0.44124 -0.9896,-0.98961 v -2.96571 c 0,-0.54837 0.44122,-0.9896 0.9896,-0.9896 z M 4.3728637,90.852842 h 6.0709493 c 0.54837,0 0.99063,0.44123 0.99063,0.98961 v 2.96571 c 0,0.54837 -0.44226,0.99012 -0.99063,0.99012 H 4.3728637 c -0.54838,0 -0.99012,-0.44175 -0.99012,-0.99012 v -2.96571 c 0,-0.54838 0.44174,-0.98961 0.99012,-0.98961 z m 120.6494763,0 h 6.07147 c 0.54836,0 0.99012,0.44123 0.99012,0.98961 v 2.96571 c 0,0.54838 -0.44176,0.99012 -0.99012,0.99012 h -6.07147 c -0.54838,0 -0.9896,-0.44174 -0.9896,-0.99012 v -2.96571 c 0,-0.54838 0.44122,-0.98961 0.9896,-0.98961 z M 4.3728637,101.08994 h 6.0709493 c 0.54837,0 0.99063,0.44123 0.99063,0.98961 v 2.96571 c 0,0.54838 -0.44226,0.9896 -0.99063,0.9896 H 4.3728637 c -0.54838,0 -0.99012,-0.44122 -0.99012,-0.9896 v -2.96571 c 0,-0.54838 0.44174,-0.98961 0.99012,-0.98961 z m 120.6494763,0 h 6.07147 c 0.54836,0 0.99012,0.44123 0.99012,0.98961 v 2.96571 c 0,0.54838 -0.44176,0.9896 -0.99012,0.9896 h -6.07147 c -0.54838,0 -0.9896,-0.44122 -0.9896,-0.9896 v -2.96571 c 0,-0.54838 0.44122,-0.98961 0.9896,-0.98961 z M 4.3728637,111.32654 h 6.0709493 c 0.54837,0 0.99063,0.44123 0.99063,0.9896 v 2.96571 c 0,0.54837 -0.44226,0.99013 -0.99063,0.99013 H 4.3728637 c -0.54838,0 -0.99012,-0.44176 -0.99012,-0.99013 v -2.96571 c 0,-0.54837 0.44174,-0.9896 0.99012,-0.9896 z m 120.6494763,0 h 6.07147 c 0.54836,0 0.99012,0.44123 0.99012,0.9896 v 2.96571 c 0,0.54837 -0.44176,0.99013 -0.99012,0.99013 h -6.07147 c -0.54838,0 -0.9896,-0.44176 -0.9896,-0.99013 v -2.96571 c 0,-0.54837 0.44122,-0.9896 0.9896,-0.9896 z M 4.3728637,121.56364 h 6.0709493 c 0.54837,0 0.99063,0.44122 0.99063,0.9896 v 2.96571 c 0,0.54838 -0.44226,0.98961 -0.99063,0.98961 H 4.3728637 c -0.54838,0 -0.99012,-0.44123 -0.99012,-0.98961 v -2.96571 c 0,-0.54838 0.44174,-0.9896 0.99012,-0.9896 z m 120.6494763,0 h 6.07147 c 0.54836,0 0.99012,0.44122 0.99012,0.9896 v 2.96571 c 0,0.54838 -0.44176,0.98961 -0.99012,0.98961 h -6.07147 c -0.54838,0 -0.9896,-0.44123 -0.9896,-0.98961 v -2.96571 c 0,-0.54838 0.44122,-0.9896 0.9896,-0.9896 z" />
    <path
       id="rect792-97"
       style="display:inline;opacity:0.4;fill:url(#linearGradient22577);fill-opacity:1;stroke-width:1.37583;stroke-linecap:round;stroke-linejoin:round;paint-order:stroke fill markers"
       d="M 1.9999999e-6,1.999999e-7 V 135.46666 H 3.382742 v -2.67632 c 0,-0.54838 0.44174,-0.99012 0.99012,-0.99012 h 6.07095 c 0.54837,0 0.99063,0.44174 0.99063,0.99012 v 2.67632 H 124.03274 v -2.67632 c 0,-0.54838 0.44122,-0.99012 0.9896,-0.99012 h 6.07147 c 0.54836,0 0.99012,0.44173 0.99012,0.99012 v 2.67632 h 3.38273 V 1.999999e-7 h -3.38273 V 2.6768393 c 0,0.548376 -0.44176,0.989604 -0.99012,0.989604 h -6.07147 c -0.54838,0 -0.9896,-0.441228 -0.9896,-0.989604 V 1.999999e-7 H 11.434442 V 2.6768393 c 0,0.548376 -0.44226,0.989604 -0.99063,0.989604 h -6.07095 c -0.54838,0 -0.99012,-0.441228 -0.99012,-0.989604 V 1.999999e-7 Z M 4.372862,8.9581093 h 6.07095 c 0.54837,0 0.99063,0.441228 0.99063,0.9896036 v 2.9657111 c 0,0.548376 -0.44226,0.99012 -0.99063,0.99012 h -6.07095 c -0.54838,0 -0.99012,-0.441744 -0.99012,-0.99012 V 9.9477129 c 0,-0.5483756 0.44174,-0.9896036 0.99012,-0.9896036 z m 120.649478,0 h 6.07147 c 0.54836,0 0.99012,0.441228 0.99012,0.9896036 v 2.9657111 c 0,0.548376 -0.44176,0.99012 -0.99012,0.99012 h -6.07147 c -0.54838,0 -0.9896,-0.441744 -0.9896,-0.99012 V 9.9477129 c 0,-0.5483756 0.44122,-0.9896036 0.9896,-0.9896036 z M 4.372862,19.195211 h 6.07095 c 0.54837,0 0.99063,0.441227 0.99063,0.989603 v 2.965711 c 0,0.548375 -0.44226,0.989603 -0.99063,0.989603 h -6.07095 c -0.54838,0 -0.99012,-0.441228 -0.99012,-0.989603 v -2.965711 c 0,-0.548376 0.44174,-0.989603 0.99012,-0.989603 z m 120.649478,0 h 6.07147 c 0.54836,0 0.99012,0.441227 0.99012,0.989603 v 2.965711 c 0,0.548375 -0.44176,0.989603 -0.99012,0.989603 h -6.07147 c -0.54838,0 -0.9896,-0.441228 -0.9896,-0.989603 v -2.965711 c 0,-0.548376 0.44122,-0.989603 0.9896,-0.989603 z M 4.372862,29.431796 h 6.07095 c 0.54837,0 0.99063,0.44123 0.99063,0.9896 v 2.96571 c 0,0.54838 -0.44226,0.99012 -0.99063,0.99012 h -6.07095 c -0.54838,0 -0.99012,-0.44174 -0.99012,-0.99012 v -2.96571 c 0,-0.54837 0.44174,-0.9896 0.99012,-0.9896 z m 120.649478,0 h 6.07147 c 0.54836,0 0.99012,0.44123 0.99012,0.9896 v 2.96571 c 0,0.54838 -0.44176,0.99012 -0.99012,0.99012 h -6.07147 c -0.54838,0 -0.9896,-0.44174 -0.9896,-0.99012 v -2.96571 c 0,-0.54837 0.44122,-0.9896 0.9896,-0.9896 z M 4.372862,39.668896 h 6.07095 c 0.54837,0 0.99063,0.44123 0.99063,0.9896 v 2.96571 c 0,0.54838 -0.44226,0.98961 -0.99063,0.98961 h -6.07095 c -0.54838,0 -0.99012,-0.44123 -0.99012,-0.98961 v -2.96571 c 0,-0.54837 0.44174,-0.9896 0.99012,-0.9896 z m 120.649478,0 h 6.07147 c 0.54836,0 0.99012,0.44123 0.99012,0.9896 v 2.96571 c 0,0.54838 -0.44176,0.98961 -0.99012,0.98961 h -6.07147 c -0.54838,0 -0.9896,-0.44123 -0.9896,-0.98961 v -2.96571 c 0,-0.54837 0.44122,-0.9896 0.9896,-0.9896 z M 4.372862,49.905476 h 6.07095 c 0.54837,0 0.99063,0.44123 0.99063,0.98961 v 2.96571 c 0,0.54838 -0.44226,0.99012 -0.99063,0.99012 h -6.07095 c -0.54838,0 -0.99012,-0.44174 -0.99012,-0.99012 v -2.96571 c 0,-0.54838 0.44174,-0.98961 0.99012,-0.98961 z m 120.649478,0 h 6.07147 c 0.54836,0 0.99012,0.44123 0.99012,0.98961 v 2.96571 c 0,0.54838 -0.44176,0.99012 -0.99012,0.99012 h -6.07147 c -0.54838,0 -0.9896,-0.44174 -0.9896,-0.99012 v -2.96571 c 0,-0.54838 0.44122,-0.98961 0.9896,-0.98961 z M 4.372862,60.142576 h 6.07095 c 0.54837,0 0.99063,0.44123 0.99063,0.98961 v 2.96571 c 0,0.54838 -0.44226,0.9896 -0.99063,0.9896 h -6.07095 c -0.54838,0 -0.99012,-0.44122 -0.99012,-0.9896 v -2.96571 c 0,-0.54838 0.44174,-0.98961 0.99012,-0.98961 z m 120.649478,0 h 6.07147 c 0.54836,0 0.99012,0.44123 0.99012,0.98961 v 2.96571 c 0,0.54838 -0.44176,0.9896 -0.99012,0.9896 h -6.07147 c -0.54838,0 -0.9896,-0.44122 -0.9896,-0.9896 v -2.96571 c 0,-0.54838 0.44122,-0.98961 0.9896,-0.98961 z M 4.372862,70.379166 h 6.07095 c 0.54837,0 0.99063,0.44123 0.99063,0.9896 v 2.96571 c 0,0.54838 -0.44226,0.99012 -0.99063,0.99012 h -6.07095 c -0.54838,0 -0.99012,-0.44174 -0.99012,-0.99012 v -2.96571 c 0,-0.54837 0.44174,-0.9896 0.99012,-0.9896 z m 120.649478,0 h 6.07147 c 0.54836,0 0.99012,0.44123 0.99012,0.9896 v 2.96571 c 0,0.54838 -0.44176,0.99012 -0.99012,0.99012 h -6.07147 c -0.54838,0 -0.9896,-0.44174 -0.9896,-0.99012 v -2.96571 c 0,-0.54837 0.44122,-0.9896 0.9896,-0.9896 z M 4.372862,80.616266 h 6.07095 c 0.54837,0 0.99063,0.44123 0.99063,0.9896 v 2.96571 c 0,0.54838 -0.44226,0.98961 -0.99063,0.98961 h -6.07095 c -0.54838,0 -0.99012,-0.44123 -0.99012,-0.98961 v -2.96571 c 0,-0.54837 0.44174,-0.9896 0.99012,-0.9896 z m 120.649478,0 h 6.07147 c 0.54836,0 0.99012,0.44123 0.99012,0.9896 v 2.96571 c 0,0.54837 -0.44176,0.98961 -0.99012,0.98961 h -6.07147 c -0.54838,0 -0.9896,-0.44124 -0.9896,-0.98961 v -2.96571 c 0,-0.54837 0.44122,-0.9896 0.9896,-0.9896 z M 4.372862,90.852846 h 6.07095 c 0.54837,0 0.99063,0.44123 0.99063,0.98961 v 2.96571 c 0,0.54837 -0.44226,0.99012 -0.99063,0.99012 h -6.07095 c -0.54838,0 -0.99012,-0.44175 -0.99012,-0.99012 v -2.96571 c 0,-0.54838 0.44174,-0.98961 0.99012,-0.98961 z m 120.649478,0 h 6.07147 c 0.54836,0 0.99012,0.44123 0.99012,0.98961 v 2.96571 c 0,0.54838 -0.44176,0.99012 -0.99012,0.99012 h -6.07147 c -0.54838,0 -0.9896,-0.44174 -0.9896,-0.99012 v -2.96571 c 0,-0.54838 0.44122,-0.98961 0.9896,-0.98961 z M 4.372862,101.08995 h 6.07095 c 0.54837,0 0.99063,0.44123 0.99063,0.98961 v 2.96571 c 0,0.54838 -0.44226,0.9896 -0.99063,0.9896 h -6.07095 c -0.54838,0 -0.99012,-0.44122 -0.99012,-0.9896 v -2.96571 c 0,-0.54838 0.44174,-0.98961 0.99012,-0.98961 z m 120.649478,0 h 6.07147 c 0.54836,0 0.99012,0.44123 0.99012,0.98961 v 2.96571 c 0,0.54838 -0.44176,0.9896 -0.99012,0.9896 h -6.07147 c -0.54838,0 -0.9896,-0.44122 -0.9896,-0.9896 v -2.96571 c 0,-0.54838 0.44122,-0.98961 0.9896,-0.98961 z M 4.372862,111.32654 h 6.07095 c 0.54837,0 0.99063,0.44122 0.99063,0.9896 v 2.96571 c 0,0.54837 -0.44226,0.99012 -0.99063,0.99012 h -6.07095 c -0.54838,0 -0.99012,-0.44175 -0.99012,-0.99012 v -2.96571 c 0,-0.54838 0.44174,-0.9896 0.99012,-0.9896 z m 120.649478,0 h 6.07147 c 0.54836,0 0.99012,0.44122 0.99012,0.9896 v 2.96571 c 0,0.54837 -0.44176,0.99012 -0.99012,0.99012 h -6.07147 c -0.54838,0 -0.9896,-0.44175 -0.9896,-0.99012 v -2.96571 c 0,-0.54838 0.44122,-0.9896 0.9896,-0.9896 z M 4.372862,121.56364 h 6.07095 c 0.54837,0 0.99063,0.44122 0.99063,0.9896 v 2.96571 c 0,0.54838 -0.44226,0.98961 -0.99063,0.98961 h -6.07095 c -0.54838,0 -0.99012,-0.44123 -0.99012,-0.98961 v -2.96571 c 0,-0.54838 0.44174,-0.9896 0.99012,-0.9896 z m 120.649478,0 h 6.07147 c 0.54836,0 0.99012,0.44122 0.99012,0.9896 v 2.96571 c 0,0.54838 -0.44176,0.98961 -0.99012,0.98961 h -6.07147 c -0.54838,0 -0.9896,-0.44123 -0.9896,-0.98961 v -2.96571 c 0,-0.54838 0.44122,-0.9896 0.9896,-0.9896 z"
       sodipodi:insensitive="true" />
    <path
       id="rect792-97-1"
       style="display:inline;opacity:0.4;mix-blend-mode:overlay;fill:url(#radialGradient27020);fill-opacity:1;stroke-width:1.37583;stroke-linecap:round;stroke-linejoin:round;paint-order:stroke fill markers"
       d="M 3.9999999e-6,-6.0500001e-6 V 135.46667 H 3.382744 v -2.67632 c 0,-0.54839 0.44174,-0.99013 0.99012,-0.99013 h 6.07095 c 0.54837,0 0.99063,0.44174 0.99063,0.99013 v 2.67632 H 124.03274 v -2.67632 c 0,-0.54839 0.44122,-0.99013 0.9896,-0.99013 h 6.07147 c 0.54836,0 0.99012,0.44173 0.99012,0.99013 v 2.67632 h 3.38273 V -6.0500001e-6 h -3.38273 V 2.676834 c 0,0.548375 -0.44176,0.989604 -0.99012,0.989604 h -6.07147 c -0.54838,0 -0.9896,-0.441229 -0.9896,-0.989604 V -6.0500001e-6 H 11.434444 V 2.676834 c 0,0.548375 -0.44226,0.989604 -0.99063,0.989604 h -6.07095 c -0.54838,0 -0.99012,-0.441229 -0.99012,-0.989604 V -6.0500001e-6 Z M 4.372864,8.958104 h 6.07095 c 0.54837,0 0.99063,0.441228 0.99063,0.989603 v 2.965711 c 0,0.548376 -0.44226,0.99012 -0.99063,0.99012 h -6.07095 c -0.54838,0 -0.99012,-0.441744 -0.99012,-0.99012 V 9.947707 c 0,-0.548375 0.44174,-0.989603 0.99012,-0.989603 z m 120.649476,0 h 6.07147 c 0.54836,0 0.99012,0.441228 0.99012,0.989603 v 2.965711 c 0,0.548376 -0.44176,0.99012 -0.99012,0.99012 h -6.07147 c -0.54838,0 -0.9896,-0.441744 -0.9896,-0.99012 V 9.947707 c 0,-0.548375 0.44122,-0.989603 0.9896,-0.989603 z M 4.372864,19.195205 h 6.07095 c 0.54837,0 0.99063,0.441227 0.99063,0.989603 v 2.965711 c 0,0.548375 -0.44226,0.989603 -0.99063,0.989603 h -6.07095 c -0.54838,0 -0.99012,-0.441228 -0.99012,-0.989603 v -2.965711 c 0,-0.548376 0.44174,-0.989603 0.99012,-0.989603 z m 120.649476,0 h 6.07147 c 0.54836,0 0.99012,0.441227 0.99012,0.989603 v 2.965711 c 0,0.548375 -0.44176,0.989603 -0.99012,0.989603 h -6.07147 c -0.54838,0 -0.9896,-0.441228 -0.9896,-0.989603 v -2.965711 c 0,-0.548376 0.44122,-0.989603 0.9896,-0.989603 z M 4.372864,29.43179 h 6.07095 c 0.54837,0 0.99063,0.44123 0.99063,0.9896 v 2.96571 c 0,0.54838 -0.44226,0.99012 -0.99063,0.99012 h -6.07095 c -0.54838,0 -0.99012,-0.44174 -0.99012,-0.99012 v -2.96571 c 0,-0.54837 0.44174,-0.9896 0.99012,-0.9896 z m 120.649476,0 h 6.07147 c 0.54836,0 0.99012,0.44123 0.99012,0.9896 v 2.96571 c 0,0.54838 -0.44176,0.99012 -0.99012,0.99012 h -6.07147 c -0.54838,0 -0.9896,-0.44174 -0.9896,-0.99012 v -2.96571 c 0,-0.54837 0.44122,-0.9896 0.9896,-0.9896 z M 4.372864,39.66889 h 6.07095 c 0.54837,0 0.99063,0.44123 0.99063,0.9896 v 2.96571 c 0,0.54838 -0.44226,0.98961 -0.99063,0.98961 h -6.07095 c -0.54838,0 -0.99012,-0.44123 -0.99012,-0.98961 v -2.96571 c 0,-0.54837 0.44174,-0.9896 0.99012,-0.9896 z m 120.649476,0 h 6.07147 c 0.54836,0 0.99012,0.44123 0.99012,0.9896 v 2.96571 c 0,0.54838 -0.44176,0.98961 -0.99012,0.98961 h -6.07147 c -0.54838,0 -0.9896,-0.44123 -0.9896,-0.98961 v -2.96571 c 0,-0.54837 0.44122,-0.9896 0.9896,-0.9896 z M 4.372864,49.90547 h 6.07095 c 0.54837,0 0.99063,0.44123 0.99063,0.98961 v 2.96571 c 0,0.54838 -0.44226,0.99012 -0.99063,0.99012 h -6.07095 c -0.54838,0 -0.99012,-0.44174 -0.99012,-0.99012 v -2.96571 c 0,-0.54838 0.44174,-0.98961 0.99012,-0.98961 z m 120.649476,0 h 6.07147 c 0.54836,0 0.99012,0.44123 0.99012,0.98961 v 2.96571 c 0,0.54838 -0.44176,0.99012 -0.99012,0.99012 h -6.07147 c -0.54838,0 -0.9896,-0.44174 -0.9896,-0.99012 v -2.96571 c 0,-0.54838 0.44122,-0.98961 0.9896,-0.98961 z M 4.372864,60.142574 h 6.07095 c 0.54837,0 0.99063,0.44123 0.99063,0.98961 v 2.96571 c 0,0.54838 -0.44226,0.9896 -0.99063,0.9896 h -6.07095 c -0.54838,0 -0.99012,-0.44122 -0.99012,-0.9896 v -2.96571 c 0,-0.54838 0.44174,-0.98961 0.99012,-0.98961 z m 120.649476,0 h 6.07147 c 0.54836,0 0.99012,0.44123 0.99012,0.98961 v 2.96571 c 0,0.54838 -0.44176,0.9896 -0.99012,0.9896 h -6.07147 c -0.54838,0 -0.9896,-0.44122 -0.9896,-0.9896 v -2.96571 c 0,-0.54838 0.44122,-0.98961 0.9896,-0.98961 z M 4.372864,70.379164 h 6.07095 c 0.54837,0 0.99063,0.44123 0.99063,0.9896 v 2.96571 c 0,0.54838 -0.44226,0.99012 -0.99063,0.99012 h -6.07095 c -0.54838,0 -0.99012,-0.44174 -0.99012,-0.99012 v -2.96571 c 0,-0.54837 0.44174,-0.9896 0.99012,-0.9896 z m 120.649476,0 h 6.07147 c 0.54836,0 0.99012,0.44123 0.99012,0.9896 v 2.96571 c 0,0.54838 -0.44176,0.99012 -0.99012,0.99012 h -6.07147 c -0.54838,0 -0.9896,-0.44174 -0.9896,-0.99012 v -2.96571 c 0,-0.54837 0.44122,-0.9896 0.9896,-0.9896 z M 4.372864,80.616264 h 6.07095 c 0.54837,0 0.99063,0.44123 0.99063,0.9896 v 2.96571 c 0,0.54838 -0.44226,0.98961 -0.99063,0.98961 h -6.07095 c -0.54838,0 -0.99012,-0.44123 -0.99012,-0.98961 v -2.96571 c 0,-0.54837 0.44174,-0.9896 0.99012,-0.9896 z m 120.649476,0 h 6.07147 c 0.54836,0 0.99012,0.44123 0.99012,0.9896 v 2.96571 c 0,0.54837 -0.44176,0.98961 -0.99012,0.98961 h -6.07147 c -0.54838,0 -0.9896,-0.44124 -0.9896,-0.98961 v -2.96571 c 0,-0.54837 0.44122,-0.9896 0.9896,-0.9896 z M 4.372864,90.852841 h 6.07095 c 0.54837,0 0.99063,0.44123 0.99063,0.98961 v 2.96571 c 0,0.54837 -0.44226,0.99012 -0.99063,0.99012 h -6.07095 c -0.54838,0 -0.99012,-0.44175 -0.99012,-0.99012 v -2.96571 c 0,-0.54838 0.44174,-0.98961 0.99012,-0.98961 z m 120.649476,0 h 6.07147 c 0.54836,0 0.99012,0.44123 0.99012,0.98961 v 2.96571 c 0,0.54838 -0.44176,0.99012 -0.99012,0.99012 h -6.07147 c -0.54838,0 -0.9896,-0.44174 -0.9896,-0.99012 v -2.96571 c 0,-0.54838 0.44122,-0.98961 0.9896,-0.98961 z M 4.372864,101.08994 h 6.07095 c 0.54837,0 0.99063,0.44123 0.99063,0.98961 v 2.96571 c 0,0.54838 -0.44226,0.9896 -0.99063,0.9896 h -6.07095 c -0.54838,0 -0.99012,-0.44122 -0.99012,-0.9896 v -2.96571 c 0,-0.54838 0.44174,-0.98961 0.99012,-0.98961 z m 120.649476,0 h 6.07147 c 0.54836,0 0.99012,0.44123 0.99012,0.98961 v 2.96571 c 0,0.54838 -0.44176,0.9896 -0.99012,0.9896 h -6.07147 c -0.54838,0 -0.9896,-0.44122 -0.9896,-0.9896 v -2.96571 c 0,-0.54838 0.44122,-0.98961 0.9896,-0.98961 z M 4.372864,111.32654 h 6.07095 c 0.54837,0 0.99063,0.44123 0.99063,0.9896 v 2.96571 c 0,0.54837 -0.44226,0.99013 -0.99063,0.99013 h -6.07095 c -0.54838,0 -0.99012,-0.44176 -0.99012,-0.99013 v -2.96571 c 0,-0.54837 0.44174,-0.9896 0.99012,-0.9896 z m 120.649476,0 h 6.07147 c 0.54836,0 0.99012,0.44123 0.99012,0.9896 v 2.96571 c 0,0.54837 -0.44176,0.99013 -0.99012,0.99013 h -6.07147 c -0.54838,0 -0.9896,-0.44176 -0.9896,-0.99013 v -2.96571 c 0,-0.54837 0.44122,-0.9896 0.9896,-0.9896 z M 4.372864,121.56364 h 6.07095 c 0.54837,0 0.99063,0.44122 0.99063,0.9896 v 2.96571 c 0,0.54838 -0.44226,0.98961 -0.99063,0.98961 h -6.07095 c -0.54838,0 -0.99012,-0.44123 -0.99012,-0.98961 v -2.96571 c 0,-0.54838 0.44174,-0.9896 0.99012,-0.9896 z m 120.649476,0 h 6.07147 c 0.54836,0 0.99012,0.44122 0.99012,0.9896 v 2.96571 c 0,0.54838 -0.44176,0.98961 -0.99012,0.98961 h -6.07147 c -0.54838,0 -0.9896,-0.44123 -0.9896,-0.98961 v -2.96571 c 0,-0.54838 0.44122,-0.9896 0.9896,-0.9896 z"
       sodipodi:insensitive="true" />
    <path
       id="rect16913-28-5"
       style="opacity:0.2;mix-blend-mode:difference;fill:url(#linearGradient31517);stroke-width:1.56974;stroke-linecap:round;stroke-linejoin:round;paint-order:stroke fill markers"
       d="m 119.77907,-0.15697575 c 0,4.96677755 -3.99852,8.96530245 -8.9653,8.96530245 H 24.652921 c -4.966778,0 -8.965303,-3.9985249 -8.965303,-8.96530245 z"
       sodipodi:nodetypes="csscc"
       sodipodi:insensitive="true" />
    <path
       id="rect16913-2-0-0"
       style="opacity:0.2;mix-blend-mode:difference;fill:url(#linearGradient32305);fill-opacity:1;stroke-width:1.56974;stroke-linecap:round;stroke-linejoin:round;paint-order:stroke fill markers"
       d="m 24.652914,126.65824 h 86.160856 c 4.96678,0 8.9653,3.99852 8.9653,8.9653 H 15.687614 c 0,-4.96678 3.99852,-8.9653 8.9653,-8.9653 z"
       sodipodi:nodetypes="ssccs"
       sodipodi:insensitive="true" />
    <path
       id="rect792-97-1-5-4"
       style="display:inline;opacity:0.6;mix-blend-mode:normal;fill:url(#linearGradient39052);fill-opacity:1;stroke-width:1.37583;stroke-linecap:round;stroke-linejoin:round;paint-order:stroke fill markers"
       d="M 1.0585938,70.816406 C 3.3033182,69.165392 5.6201082,67.612661 7.9882812,66.144531 6.5405656,66.109121 5.0620437,66.261379 3.6347656,66.013672 2.3707211,65.563494 2.1782121,64.041343 2.342036,62.886343 2.2931205,61.668455 2.0929228,60.010065 3.3915964,59.348667 c 1.1534741,-0.530152 2.4628989,-0.147313 3.6837834,-0.260516 1.3668678,0.04145 2.7643373,-0.130796 4.1101672,0.130599 1.22886,0.436468 1.448105,1.90707 1.304101,3.038664 0.07199,0.348107 -0.170407,1.266274 0.178605,1.132456 13.747097,-7.676651 35.672424,-7.232179 50.992974,-10.716661 19.651815,-4.424047 33.011147,-11.677787 53.128123,-10.852347 2.0693,0.08608 4.13623,0.207618 6.20284,0.3432 -0.0887,-1.13938 -0.1643,-2.648657 1.01953,-3.269531 1.15782,-0.563433 2.48174,-0.160327 3.71365,-0.28027 1.40345,0.04722 2.84979,-0.164743 4.2219,0.178708 1.19558,0.503873 1.30182,1.961154 1.19531,3.079687 0.063,0.544387 -0.29334,1.462384 0.59602,1.270547 0.90879,0.39535 0.6454,-0.524971 0.6696,-1.1225 V 1.0585938 c -0.45263,0.1133046 -1.47873,-0.32144874 -1.27017,0.4322134 0.13431,1.1402428 -0.0378,2.6550154 -1.30209,3.0795053 -1.1823,0.3394243 -2.43432,0.061877 -3.64646,0.1474711 -1.33768,-0.034111 -2.71934,0.1556814 -4.02542,-0.176768 -1.30794,-0.5737392 -1.28892,-2.1980552 -1.17578,-3.4003906 -0.3929,-0.19167341 -1.15966,-0.027151 -1.69609,-0.082031 H 12.474609 c 0.07245,1.1835456 0.199897,2.7687612 -1.050781,3.40625 C 10.265826,4.9810485 8.9612178,4.6104276 7.7390812,4.7191394 6.335866,4.6750045 4.8899269,4.8819202 3.5175781,4.5429688 2.2078655,3.9695271 2.2254839,2.3445043 2.3378906,1.140625 2.0855879,1.0847539 0.84554625,0.76813738 1.0585938,1.4585937 Z M 4.9375,7.8847656 c 2.008896,0.083671 4.0336871,-0.082204 6.035156,0.078125 1.238651,0.3169451 1.744168,1.7398453 1.503906,2.8945314 -0.02482,1.262077 0.355112,2.949106 -0.898437,3.759766 -1.261061,0.648628 -2.7364585,0.228257 -4.0929555,0.34266 C 6.2073578,14.930571 4.9011532,15.070505 3.6425781,14.832031 2.4239766,14.399906 2.1625504,12.934263 2.34375,11.802734 2.3114585,10.563249 2.0559771,8.8732473 3.3675322,8.1755974 3.8441237,7.9076746 4.4039949,7.8807246 4.9375,7.8847656 Z m 120.65039,0 c 2.01076,0.084848 4.03818,-0.084702 6.04102,0.080078 1.23459,0.3200053 1.73383,1.7390444 1.49804,2.8906254 -0.0234,1.262604 0.35227,2.945185 -0.89648,3.759765 -1.26142,0.650851 -2.73763,0.230508 -4.09491,0.34461 -1.28078,-0.03126 -2.59232,0.114831 -3.85236,-0.131719 -1.21542,-0.435825 -1.47023,-1.896024 -1.28906,-3.025391 -0.0352,-1.239721 -0.28626,-2.9288087 1.02356,-3.6275469 0.47699,-0.2638461 1.03679,-0.2987624 1.57019,-0.2904215 z M 5,18.121094 c 1.9890653,0.08694 3.9953303,-0.08611 5.976562,0.08008 1.239407,0.316367 1.737258,1.741512 1.5,2.894531 -0.02601,1.260157 0.356797,2.947247 -0.896484,3.755859 C 10.31933,25.505606 8.842443,25.081453 7.4851695,25.196176 6.2073578,25.166899 4.9011532,25.306833 3.6425781,25.068359 2.4210653,24.639581 2.1628184,23.169939 2.34375,22.039062 2.3171455,20.815297 2.0558327,19.185133 3.3027344,18.447266 3.814893,18.145128 4.420029,18.107596 5,18.121094 Z m 120.65234,0 c 1.98842,0.08692 3.99403,-0.08607 5.97461,0.08008 1.23916,0.315238 1.73453,1.741007 1.5,2.892578 -0.0243,1.261484 0.35391,2.945692 -0.89648,3.757812 -1.26155,0.650217 -2.73765,0.230855 -4.09491,0.34461 -1.28031,-0.03011 -2.58996,0.11249 -3.8504,-0.129766 -1.21795,-0.434839 -1.47226,-1.896821 -1.29102,-3.027344 -0.0288,-1.222851 -0.28742,-2.851559 0.95703,-3.589843 0.5118,-0.30482 1.1206,-0.340915 1.70117,-0.328125 z M 5,28.357422 c 1.9890653,0.08694 3.9953303,-0.08611 5.976562,0.08008 1.239407,0.316368 1.737258,1.741512 1.5,2.894531 -0.02526,1.261275 0.355507,2.946655 -0.896484,3.757813 -1.261669,0.651498 -2.7390991,0.228 -4.0968657,0.344137 C 6.2036986,35.400176 4.893652,35.546938 3.6347656,35.302734 2.3707211,34.852557 2.1782121,33.330405 2.342036,32.175405 2.2931205,30.957518 2.0929228,29.299128 3.3915964,28.637729 3.8826506,28.371615 4.4543564,28.348037 5,28.357422 Z m 120.65234,0 c 1.98842,0.08692 3.99403,-0.08607 5.97461,0.08008 1.23916,0.315238 1.73453,1.741008 1.5,2.892578 -0.0271,1.254242 0.35156,2.904682 -0.86133,3.738281 -1.23857,0.681894 -2.71331,0.247164 -4.05779,0.364081 -1.30552,-0.03188 -2.6418,0.116045 -3.92658,-0.131659 -1.21524,-0.434715 -1.46701,-1.897307 -1.28711,-3.02539 -0.0288,-1.222852 -0.28742,-2.85156 0.95703,-3.589844 0.5118,-0.30482 1.1206,-0.340914 1.70117,-0.328125 z M 5,38.59375 c 1.9890653,0.08694 3.9953303,-0.08611 5.976562,0.08008 1.237012,0.319417 1.738299,1.740882 1.5,2.894531 -0.02701,1.255745 0.353039,2.91411 -0.86914,3.742188 -1.236855,0.674654 -2.7053859,0.242286 -4.0460851,0.359715 C 6.2581515,45.638159 4.9267437,45.779491 3.6425781,45.542969 2.4239766,45.110843 2.1625504,43.6452 2.34375,42.513672 2.318838,41.292361 2.0540164,39.664215 3.296875,38.925781 3.8094665,38.621414 4.4181834,38.579749 5,38.59375 Z M 4.9375,48.832031 c 2.008896,0.08367 4.0336871,-0.0822 6.035156,0.07813 1.238651,0.316945 1.744168,1.739846 1.503906,2.894532 -0.02361,1.262691 0.353115,2.947086 -0.898437,3.759765 C 10.350547,56.206584 8.9082228,55.797859 7.5851651,55.90618 6.2741038,55.87667 4.9343811,56.020514 3.6425781,55.779302 2.4231922,55.347966 2.1630069,53.881346 2.34375,52.75 2.3114585,51.510515 2.0559771,49.820513 3.3675322,49.122863 3.8441237,48.85494 4.4039949,48.82799 4.9375,48.832031 Z"
       sodipodi:nodetypes="cccccccccccccccccccccccccccccccccccccccccccccccccccccccccccscccccccsscccccccccscccccccsscccccccccccccccccc"
       sodipodi:insensitive="true" />
    <g
       id="g21067"
       style="display:inline;opacity:0.2;mix-blend-mode:difference"
       sodipodi:insensitive="true">
      <rect
         style="fill:url(#linearGradient18877);fill-opacity:1;stroke-width:1.56974;stroke-linecap:round;stroke-linejoin:round;paint-order:stroke fill markers"
         id="rect16913-28"
         width="104.09145"
         height="104.09145"
         x="15.687618"
         y="15.687513"
         ry="8.9653025" />
      <path
         id="rect16913-2"
         style="fill:url(#linearGradient20337);fill-opacity:1;stroke-width:1.56974;stroke-linecap:round;stroke-linejoin:round;paint-order:stroke fill markers"
         d="m 24.652908,15.687606 h 86.160852 c 4.96678,0 8.9653,3.998525 8.9653,8.965302 V 41.274997 68.599181 C 110.95612,67.082818 83.006311,59.462799 64.208182,64.103665 48.103864,68.079486 25.828417,74.014056 15.687606,74.909535 l 2e-6,-33.634538 V 24.652908 c 0,-4.966777 3.99852,-8.965302 8.9653,-8.965302 z"
         sodipodi:nodetypes="sssccsccss" />
    </g>
    <path
       id="rect792-97-1-5-3"
       style="display:inline;opacity:1;mix-blend-mode:difference;fill:url(#linearGradient1294);fill-opacity:1;stroke-width:1.37583;stroke-linecap:round;stroke-linejoin:round;paint-order:stroke fill markers"
       d="M 4.9999999e-6,-9.1500001e-6 V 135.46667 H 3.382745 v -2.67632 c 0,-0.5484 0.44174,-0.99013 0.99012,-0.99013 h 6.07095 c 0.54837,0 0.99063,0.44173 0.99063,0.99013 v 2.67632 H 124.03274 v -2.67632 c 0,-0.5484 0.44122,-0.99013 0.9896,-0.99013 h 6.07147 c 0.54836,0 0.99012,0.44173 0.99012,0.99013 v 2.67632 h 3.38273 V -9.1500001e-6 h -3.38273 V 2.6768311 c 0,0.54838 -0.44176,0.98961 -0.99012,0.98961 h -6.07147 c -0.54838,0 -0.9896,-0.44123 -0.9896,-0.98961 V -9.1500001e-6 H 11.434445 V 2.6768311 c 0,0.54838 -0.44226,0.98961 -0.99063,0.98961 h -6.07095 c -0.54838,0 -0.99012,-0.44123 -0.99012,-0.98961 V -9.1500001e-6 Z M 4.372865,8.9581011 h 6.07095 c 0.54837,0 0.99063,0.44123 0.99063,0.989609 V 12.91342 c 0,0.54837 -0.44226,0.99012 -0.99063,0.99012 h -6.07095 c -0.54838,0 -0.99012,-0.44175 -0.99012,-0.99012 V 9.9477111 c 0,-0.54838 0.44174,-0.98961 0.99012,-0.98961 z m 120.649475,0 h 6.07147 c 0.54836,0 0.99012,0.44123 0.99012,0.989609 V 12.91342 c 0,0.54837 -0.44176,0.99012 -0.99012,0.99012 h -6.07147 c -0.54838,0 -0.9896,-0.44175 -0.9896,-0.99012 V 9.9477111 c 0,-0.54838 0.44122,-0.98961 0.9896,-0.98961 z M 4.372865,19.1952 h 6.07095 c 0.54837,0 0.99063,0.44123 0.99063,0.98961 v 2.96571 c 0,0.54837 -0.44226,0.9896 -0.99063,0.9896 h -6.07095 c -0.54838,0 -0.99012,-0.44123 -0.99012,-0.9896 v -2.96571 c 0,-0.54838 0.44174,-0.98961 0.99012,-0.98961 z m 120.649475,0 h 6.07147 c 0.54836,0 0.99012,0.44123 0.99012,0.98961 v 2.96571 c 0,0.54837 -0.44176,0.9896 -0.99012,0.9896 h -6.07147 c -0.54838,0 -0.9896,-0.44123 -0.9896,-0.9896 v -2.96571 c 0,-0.54838 0.44122,-0.98961 0.9896,-0.98961 z M 4.372865,29.431789 h 6.07095 c 0.54837,0 0.99063,0.44123 0.99063,0.9896 v 2.96571 c 0,0.54838 -0.44226,0.99012 -0.99063,0.99012 h -6.07095 c -0.54838,0 -0.99012,-0.44174 -0.99012,-0.99012 v -2.96571 c 0,-0.54837 0.44174,-0.9896 0.99012,-0.9896 z m 120.649475,0 h 6.07147 c 0.54836,0 0.99012,0.44123 0.99012,0.9896 v 2.96571 c 0,0.54838 -0.44176,0.99012 -0.99012,0.99012 h -6.07147 c -0.54838,0 -0.9896,-0.44174 -0.9896,-0.99012 v -2.96571 c 0,-0.54837 0.44122,-0.9896 0.9896,-0.9896 z M 4.372865,39.668889 h 6.07095 c 0.54837,0 0.99063,0.44123 0.99063,0.9896 v 2.96571 c 0,0.54838 -0.44226,0.98961 -0.99063,0.98961 h -6.07095 c -0.54838,0 -0.99012,-0.44123 -0.99012,-0.98961 v -2.96571 c 0,-0.54837 0.44174,-0.9896 0.99012,-0.9896 z m 120.649475,0 h 6.07147 c 0.54836,0 0.99012,0.44123 0.99012,0.9896 v 2.96571 c 0,0.54838 -0.44176,0.98961 -0.99012,0.98961 h -6.07147 c -0.54838,0 -0.9896,-0.44123 -0.9896,-0.98961 v -2.96571 c 0,-0.54837 0.44122,-0.9896 0.9896,-0.9896 z M 4.372865,49.905469 h 6.07095 c 0.54837,0 0.99063,0.44123 0.99063,0.98961 v 2.96571 c 0,0.54838 -0.44226,0.99012 -0.99063,0.99012 h -6.07095 c -0.54838,0 -0.99012,-0.44174 -0.99012,-0.99012 v -2.96571 c 0,-0.54838 0.44174,-0.98961 0.99012,-0.98961 z m 120.649475,0 h 6.07147 c 0.54836,0 0.99012,0.44123 0.99012,0.98961 v 2.96571 c 0,0.54838 -0.44176,0.99012 -0.99012,0.99012 h -6.07147 c -0.54838,0 -0.9896,-0.44174 -0.9896,-0.99012 v -2.96571 c 0,-0.54838 0.44122,-0.98961 0.9896,-0.98961 z M 4.372865,60.142573 h 6.07095 c 0.54837,0 0.99063,0.44123 0.99063,0.98961 v 2.96571 c 0,0.54838 -0.44226,0.9896 -0.99063,0.9896 h -6.07095 c -0.54838,0 -0.99012,-0.44122 -0.99012,-0.9896 v -2.96571 c 0,-0.54838 0.44174,-0.98961 0.99012,-0.98961 z m 120.649475,0 h 6.07147 c 0.54836,0 0.99012,0.44123 0.99012,0.98961 v 2.96571 c 0,0.54838 -0.44176,0.9896 -0.99012,0.9896 h -6.07147 c -0.54838,0 -0.9896,-0.44122 -0.9896,-0.9896 v -2.96571 c 0,-0.54838 0.44122,-0.98961 0.9896,-0.98961 z M 4.372865,70.379163 h 6.07095 c 0.54837,0 0.99063,0.44123 0.99063,0.9896 v 2.96571 c 0,0.54838 -0.44226,0.99012 -0.99063,0.99012 h -6.07095 c -0.54838,0 -0.99012,-0.44174 -0.99012,-0.99012 v -2.96571 c 0,-0.54837 0.44174,-0.9896 0.99012,-0.9896 z m 120.649475,0 h 6.07147 c 0.54836,0 0.99012,0.44123 0.99012,0.9896 v 2.96571 c 0,0.54838 -0.44176,0.99012 -0.99012,0.99012 h -6.07147 c -0.54838,0 -0.9896,-0.44174 -0.9896,-0.99012 v -2.96571 c 0,-0.54837 0.44122,-0.9896 0.9896,-0.9896 z M 4.372865,80.616262 h 6.07095 c 0.54837,0 0.99063,0.44123 0.99063,0.9896 v 2.96571 c 0,0.54838 -0.44226,0.98961 -0.99063,0.98961 h -6.07095 c -0.54838,0 -0.99012,-0.44123 -0.99012,-0.98961 v -2.96571 c 0,-0.54837 0.44174,-0.9896 0.99012,-0.9896 z m 120.649475,0 h 6.07147 c 0.54836,0 0.99012,0.44123 0.99012,0.9896 v 2.96571 c 0,0.54837 -0.44176,0.98961 -0.99012,0.98961 h -6.07147 c -0.54838,0 -0.9896,-0.44124 -0.9896,-0.98961 v -2.96571 c 0,-0.54837 0.44122,-0.9896 0.9896,-0.9896 z M 4.372865,90.852842 h 6.07095 c 0.54837,0 0.99063,0.441232 0.99063,0.989612 v 2.96571 c 0,0.54837 -0.44226,0.99012 -0.99063,0.99012 h -6.07095 c -0.54838,0 -0.99012,-0.44175 -0.99012,-0.99012 v -2.96571 c 0,-0.54838 0.44174,-0.989612 0.99012,-0.989612 z m 120.649475,0 h 6.07147 c 0.54836,0 0.99012,0.441232 0.99012,0.989612 v 2.96571 c 0,0.54838 -0.44176,0.99012 -0.99012,0.99012 h -6.07147 c -0.54838,0 -0.9896,-0.44174 -0.9896,-0.99012 v -2.96571 c 0,-0.54838 0.44122,-0.989612 0.9896,-0.989612 z M 4.372865,101.08993 h 6.07095 c 0.54837,0 0.99063,0.44124 0.99063,0.98961 v 2.96572 c 0,0.54837 -0.44226,0.98959 -0.99063,0.98959 h -6.07095 c -0.54838,0 -0.99012,-0.44122 -0.99012,-0.98959 v -2.96572 c 0,-0.54837 0.44174,-0.98961 0.99012,-0.98961 z m 120.649475,0 h 6.07147 c 0.54836,0 0.99012,0.44124 0.99012,0.98961 v 2.96572 c 0,0.54837 -0.44176,0.98959 -0.99012,0.98959 h -6.07147 c -0.54838,0 -0.9896,-0.44122 -0.9896,-0.98959 v -2.96572 c 0,-0.54837 0.44122,-0.98961 0.9896,-0.98961 z M 4.372865,111.32653 h 6.07095 c 0.54837,0 0.99063,0.44123 0.99063,0.9896 v 2.96571 c 0,0.54837 -0.44226,0.99013 -0.99063,0.99013 h -6.07095 c -0.54838,0 -0.99012,-0.44176 -0.99012,-0.99013 v -2.96571 c 0,-0.54837 0.44174,-0.9896 0.99012,-0.9896 z m 120.649475,0 h 6.07147 c 0.54836,0 0.99012,0.44123 0.99012,0.9896 v 2.96571 c 0,0.54837 -0.44176,0.99013 -0.99012,0.99013 h -6.07147 c -0.54838,0 -0.9896,-0.44176 -0.9896,-0.99013 v -2.96571 c 0,-0.54837 0.44122,-0.9896 0.9896,-0.9896 z M 4.372865,121.56363 h 6.07095 c 0.54837,0 0.99063,0.44122 0.99063,0.9896 v 2.96571 c 0,0.54838 -0.44226,0.98961 -0.99063,0.98961 h -6.07095 c -0.54838,0 -0.99012,-0.44123 -0.99012,-0.98961 v -2.96571 c 0,-0.54838 0.44174,-0.9896 0.99012,-0.9896 z m 120.649475,0 h 6.07147 c 0.54836,0 0.99012,0.44122 0.99012,0.9896 v 2.96571 c 0,0.54838 -0.44176,0.98961 -0.99012,0.98961 h -6.07147 c -0.54838,0 -0.9896,-0.44123 -0.9896,-0.98961 v -2.96571 c 0,-0.54838 0.44122,-0.9896 0.9896,-0.9896 z" />
    <path
       id="path2263"
       style="display:inline;opacity:0.6;mix-blend-mode:soft-light;fill:#ffffff;stroke:none;stroke-width:0.777743;stroke-linecap:round;stroke-linejoin:round;paint-order:stroke fill markers"
       d="M 67.733331,33.866666 A 33.866665,33.866665 0 0 0 33.866667,67.733333 33.866665,33.866665 0 0 0 67.733331,101.6 33.866665,33.866665 0 0 0 101.6,67.733333 33.866665,33.866665 0 0 0 67.733331,33.866666 Z M 54.981138,47.935058 c 0.276135,1.55e-4 0.551888,0.02006 0.81597,0.110071 9.349031,5.332977 18.598339,10.847617 27.88667,16.288928 2.339758,0.696137 3.396309,4.12457 1.540991,5.849772 -3.312516,2.034761 -6.67403,3.996295 -10.020577,5.976896 -6.048324,3.584079 -12.152129,7.073586 -18.169433,10.708907 -1.874348,1.455578 -5.118062,0.391053 -5.503542,-2.023649 -0.0929,-10.90233 -0.01408,-21.808484 -0.06408,-32.712215 -0.38052,-1.992452 1.21413,-4.061297 3.238048,-4.194059 0.09172,-0.0025 0.183908,-0.0047 0.275953,-0.0047 z" />
    <path
       id="path2263-5"
       style="display:inline;opacity:0.6;mix-blend-mode:overlay;fill:url(#radialGradient10330);fill-opacity:1;stroke:none;stroke-width:0.777743;stroke-linecap:round;stroke-linejoin:round;paint-order:stroke fill markers"
       d="M 67.733326,33.866664 A 33.866665,33.866665 0 0 0 33.866666,67.733331 33.866665,33.866665 0 0 0 67.733326,101.6 33.866665,33.866665 0 0 0 101.6,67.733331 33.866665,33.866665 0 0 0 67.733326,33.866664 Z m -12.75219,14.068387 c 0.27613,1.6e-4 0.55189,0.0201 0.81597,0.11008 9.34903,5.33297 18.59834,10.84761 27.88667,16.28892 2.33976,0.69614 3.39631,4.12457 1.54099,5.84978 -3.31252,2.03476 -6.67403,3.99629 -10.02058,5.97689 -6.04832,3.58408 -12.15213,7.07359 -18.16943,10.70891 -1.87435,1.45558 -5.11806,0.39105 -5.50354,-2.02365 -0.0929,-10.90233 -0.0141,-21.80848 -0.0641,-32.71221 -0.38052,-1.99246 1.21413,-4.0613 3.23805,-4.19406 0.0917,-0.002 0.1839,-0.005 0.27595,-0.005 z" />
  </g>
  <metadata
     id="metadata1">
    <rdf:RDF>
      <cc:Work
         rdf:about="">
        <dc:creator>
          <cc:Agent>
            <dc:title>Jess Tipton</dc:title>
          </cc:Agent>
        </dc:creator>
        <dc:publisher>
          <cc:Agent>
            <dc:title>m0dw3rks.com</dc:title>
          </cc:Agent>
        </dc:publisher>
        <cc:license
           rdf:resource="https://creativecommons.org/licenses/by-nc-nd/4.0/deed.en" />
      </cc:Work>
    </rdf:RDF>
  </metadata>
  <metadata
     id="metadata6">
    <rdf:RDF>
      <cc:Work
         rdf:about="">
        <dc:creator>
          <cc:Agent>
            <dc:title>Jess Tipton</dc:title>
          </cc:Agent>
        </dc:creator>
        <cc:license
           rdf:resource="https://creativecommons.org/licenses/by-nc-nd/4.0/deed.en" />
        <dc:publisher>
          <cc:Agent>
            <dc:title>m0dw3rks.com</dc:title>
          </cc:Agent>
        </dc:publisher>
      </cc:Work>
    </rdf:RDF>
  </metadata>
  <metadata
     id="metadata6">
    <rdf:RDF>
      <cc:Work
         rdf:about="">
        <dc:creator>
          <cc:Agent>
            <dc:title>Jess Tipton</dc:title>
          </cc:Agent>
        </dc:creator>
        <cc:license
           rdf:resource="https://creativecommons.org/licenses/by-nc-nd/4.0/deed.en" />
        <dc:publisher>
          <cc:Agent>
            <dc:title>m0dw3rks.com</dc:title>
          </cc:Agent>
        </dc:publisher>
      </cc:Work>
    </rdf:RDF>
  </metadata>
  <metadata
     id="metadata6">
    <rdf:RDF>
      <cc:Work
         rdf:about="">
        <dc:creator>
          <cc:Agent>
            <dc:title>Jess Tipton</dc:title>
          </cc:Agent>
        </dc:creator>
        <cc:license
           rdf:resource="https://creativecommons.org/licenses/by-nc-nd/4.0/deed.en" />
        <dc:publisher>
          <cc:Agent>
            <dc:title>m0dw3rks.com</dc:title>
          </cc:Agent>
        </dc:publisher>
      </cc:Work>
    </rdf:RDF>
  </metadata>
  <metadata
     id="metadata6">
    <rdf:RDF>
      <cc:Work
         rdf:about="">
        <dc:creator>
          <cc:Agent>
            <dc:title>Jess Tipton</dc:title>
          </cc:Agent>
        </dc:creator>
        <cc:license
           rdf:resource="https://creativecommons.org/licenses/by-nc-nd/4.0/deed.en" />
        <dc:publisher>
          <cc:Agent>
            <dc:title>m0dw3rks.com</dc:title>
          </cc:Agent>
        </dc:publisher>
      </cc:Work>
    </rdf:RDF>
  </metadata>
  <metadata
     id="metadata6">
    <rdf:RDF>
      <cc:Work
         rdf:about="">
        <dc:creator>
          <cc:Agent>
            <dc:title>Jess Tipton</dc:title>
          </cc:Agent>
        </dc:creator>
        <cc:license
           rdf:resource="https://creativecommons.org/licenses/by-nc-nd/4.0/deed.en" />
        <dc:publisher>
          <cc:Agent>
            <dc:title>m0dw3rks.com</dc:title>
          </cc:Agent>
        </dc:publisher>
      </cc:Work>
    </rdf:RDF>
  </metadata>
  <metadata
     id="metadata6">
    <rdf:RDF>
      <cc:Work
         rdf:about="">
        <dc:creator>
          <cc:Agent>
            <dc:title>Jess Tipton</dc:title>
          </cc:Agent>
        </dc:creator>
        <cc:license
           rdf:resource="https://creativecommons.org/licenses/by-nc-nd/4.0/deed.en" />
        <dc:publisher>
          <cc:Agent>
            <dc:title>m0dw3rks.com</dc:title>
          </cc:Agent>
        </dc:publisher>
      </cc:Work>
    </rdf:RDF>
  </metadata>
  <metadata
     id="metadata6">
    <rdf:RDF>
      <cc:Work
         rdf:about="">
        <dc:creator>
          <cc:Agent>
            <dc:title>Jess Tipton</dc:title>
          </cc:Agent>
        </dc:creator>
        <cc:license
           rdf:resource="https://creativecommons.org/licenses/by-nc-nd/4.0/deed.en" />
        <dc:publisher>
          <cc:Agent>
            <dc:title>m0dw3rks.com</dc:title>
          </cc:Agent>
        </dc:publisher>
      </cc:Work>
    </rdf:RDF>
  </metadata>
  <metadata
     id="metadata6">
    <rdf:RDF>
      <cc:Work
         rdf:about="">
        <dc:creator>
          <cc:Agent>
            <dc:title>Jess Tipton</dc:title>
          </cc:Agent>
        </dc:creator>
        <cc:license
           rdf:resource="https://creativecommons.org/licenses/by-nc-nd/4.0/deed.en" />
        <dc:publisher>
          <cc:Agent>
            <dc:title>m0dw3rks.com</dc:title>
          </cc:Agent>
        </dc:publisher>
      </cc:Work>
    </rdf:RDF>
  </metadata>
  <metadata
     id="metadata6">
    <rdf:RDF>
      <cc:Work
         rdf:about="">
        <dc:creator>
          <cc:Agent>
            <dc:title>Jess Tipton</dc:title>
          </cc:Agent>
        </dc:creator>
        <cc:license
           rdf:resource="https://creativecommons.org/licenses/by-nc-nd/4.0/deed.en" />
        <dc:publisher>
          <cc:Agent>
            <dc:title>m0dw3rks.com</dc:title>
          </cc:Agent>
        </dc:publisher>
      </cc:Work>
    </rdf:RDF>
  </metadata>
  <metadata
     id="metadata6">
    <rdf:RDF>
      <cc:Work
         rdf:about="">
        <dc:creator>
          <cc:Agent>
            <dc:title>Jess Tipton</dc:title>
          </cc:Agent>
        </dc:creator>
        <cc:license
           rdf:resource="https://creativecommons.org/licenses/by-nc-nd/4.0/deed.en" />
        <dc:publisher>
          <cc:Agent>
            <dc:title>m0dw3rks.com</dc:title>
          </cc:Agent>
        </dc:publisher>
      </cc:Work>
    </rdf:RDF>
  </metadata>
  <metadata
     id="metadata6">
    <rdf:RDF>
      <cc:Work
         rdf:about="">
        <dc:creator>
          <cc:Agent>
            <dc:title>Jess Tipton</dc:title>
          </cc:Agent>
        </dc:creator>
        <cc:license
           rdf:resource="https://creativecommons.org/licenses/by-nc-nd/4.0/deed.en" />
        <dc:publisher>
          <cc:Agent>
            <dc:title>m0dw3rks.com</dc:title>
          </cc:Agent>
        </dc:publisher>
      </cc:Work>
    </rdf:RDF>
  </metadata>
  <metadata
     id="metadata6">
    <rdf:RDF>
      <cc:Work
         rdf:about="">
        <dc:creator>
          <cc:Agent>
            <dc:title>Jess Tipton</dc:title>
          </cc:Agent>
        </dc:creator>
        <cc:license
           rdf:resource="https://creativecommons.org/licenses/by-nc-nd/4.0/deed.en" />
        <dc:publisher>
          <cc:Agent>
            <dc:title>m0dw3rks.com</dc:title>
          </cc:Agent>
        </dc:publisher>
      </cc:Work>
    </rdf:RDF>
  </metadata>
  <metadata
     id="metadata6">
    <rdf:RDF>
      <cc:Work
         rdf:about="">
        <dc:creator>
          <cc:Agent>
            <dc:title>Jess Tipton</dc:title>
          </cc:Agent>
        </dc:creator>
        <cc:license
           rdf:resource="https://creativecommons.org/licenses/by-nc-nd/4.0/deed.en" />
        <dc:publisher>
          <cc:Agent>
            <dc:title>m0dw3rks.com</dc:title>
          </cc:Agent>
        </dc:publisher>
      </cc:Work>
    </rdf:RDF>
  </metadata>
  <metadata
     id="metadata6">
    <rdf:RDF>
      <cc:Work
         rdf:about="">
        <dc:creator>
          <cc:Agent>
            <dc:title>Jess Tipton</dc:title>
          </cc:Agent>
        </dc:creator>
        <cc:license
           rdf:resource="https://creativecommons.org/licenses/by-nc-nd/4.0/deed.en" />
        <dc:publisher>
          <cc:Agent>
            <dc:title>m0dw3rks.com</dc:title>
          </cc:Agent>
        </dc:publisher>
      </cc:Work>
    </rdf:RDF>
  </metadata>
  <metadata
     id="metadata6">
    <rdf:RDF>
      <cc:Work
         rdf:about="">
        <dc:creator>
          <cc:Agent>
            <dc:title>Jess Tipton</dc:title>
          </cc:Agent>
        </dc:creator>
        <cc:license
           rdf:resource="https://creativecommons.org/licenses/by-nc-nd/4.0/deed.en" />
        <dc:publisher>
          <cc:Agent>
            <dc:title>m0dw3rks.com</dc:title>
          </cc:Agent>
        </dc:publisher>
      </cc:Work>
    </rdf:RDF>
  </metadata>
  <metadata
     id="metadata6">
    <rdf:RDF>
      <cc:Work
         rdf:about="">
        <dc:creator>
          <cc:Agent>
            <dc:title>Jess Tipton</dc:title>
          </cc:Agent>
        </dc:creator>
        <cc:license
           rdf:resource="https://creativecommons.org/licenses/by-nc-nd/4.0/deed.en" />
        <dc:publisher>
          <cc:Agent>
            <dc:title>m0dw3rks.com</dc:title>
          </cc:Agent>
        </dc:publisher>
      </cc:Work>
    </rdf:RDF>
  </metadata>
  <metadata
     id="metadata6">
    <rdf:RDF>
      <cc:Work
         rdf:about="">
        <dc:creator>
          <cc:Agent>
            <dc:title>Jess Tipton</dc:title>
          </cc:Agent>
        </dc:creator>
        <cc:license
           rdf:resource="https://creativecommons.org/licenses/by-nc-nd/4.0/deed.en" />
        <dc:publisher>
          <cc:Agent>
            <dc:title>m0dw3rks.com</dc:title>
          </cc:Agent>
        </dc:publisher>
      </cc:Work>
    </rdf:RDF>
  </metadata>
</svg>
