<?xml version="1.0" encoding="UTF-8" standalone="no"?>
<!-- Created with Inkscape (http://www.inkscape.org/) -->

<svg
   width="512"
   height="512"
   viewBox="0 0 135.46666 135.46667"
   version="1.1"
   id="svg5"
   inkscape:version="1.2.1 (9c6d41e410, 2022-07-14, custom)"
   sodipodi:docname="kaidan.svg"
   xmlns:inkscape="http://www.inkscape.org/namespaces/inkscape"
   xmlns:sodipodi="http://sodipodi.sourceforge.net/DTD/sodipodi-0.dtd"
   xmlns:xlink="http://www.w3.org/1999/xlink"
   xmlns="http://www.w3.org/2000/svg"
   xmlns:svg="http://www.w3.org/2000/svg">
  <sodipodi:namedview
     id="namedview7"
     pagecolor="#505050"
     bordercolor="#ffffff"
     borderopacity="1"
     inkscape:showpageshadow="0"
     inkscape:pageopacity="0"
     inkscape:pagecheckerboard="1"
     inkscape:deskcolor="#505050"
     inkscape:document-units="mm"
     showgrid="false"
     inkscape:zoom="1.1214272"
     inkscape:cx="243.88565"
     inkscape:cy="228.28053"
     inkscape:window-width="3252"
     inkscape:window-height="1076"
     inkscape:window-x="1864"
     inkscape:window-y="0"
     inkscape:window-maximized="0"
     inkscape:current-layer="layer1" />
  <defs
     id="defs2">
    <linearGradient
       inkscape:collect="always"
       id="linearGradient8858">
      <stop
         style="stop-color:#ffffff;stop-opacity:1;"
         offset="0"
         id="stop8854" />
      <stop
         style="stop-color:#ffffff;stop-opacity:0;"
         offset="1"
         id="stop8856" />
    </linearGradient>
    <linearGradient
       inkscape:collect="always"
       xlink:href="#linearGradient8858"
       id="linearGradient8860"
       x1="-64.71376"
       y1="28.816706"
       x2="-64.71376"
       y2="72.952194"
       gradientUnits="userSpaceOnUse"
       gradientTransform="translate(134.14088,-24.346253)" />
    <clipPath
       clipPathUnits="userSpaceOnUse"
       id="clipPath14927">
      <path
         style="color:#000000;fill:#008000;stroke-width:0.416999;stroke-linecap:round;stroke-linejoin:round;paint-order:stroke fill markers"
         d="m -156.10193,-47.713641 c -10.9346,0 -19.73781,8.803206 -19.73781,19.737814 v 44.247428 c 0,10.934606 8.80321,19.737812 19.73781,19.737812 h 60.52654 c 7.424836,0.866794 11.631761,15.482615 13.249839,19.218466 5.431848,12.54117 16.962271,17.176731 16.962271,17.176731 -8.37332,-12.921811 -13.953173,-35.30478 2.59984,-36.395197 h 2.652549 c 10.93461,0 19.737821,-8.803206 19.737821,-19.737812 v -44.247428 c 0,-10.934608 -8.803211,-19.737814 -19.737821,-19.737814 z"
         id="path14929" />
    </clipPath>
    <filter
       inkscape:collect="always"
       style="color-interpolation-filters:sRGB"
       id="filter14931"
       x="-0.016304017"
       y="-0.018380271"
       width="1.032608"
       height="1.0367605">
      <feGaussianBlur
         inkscape:collect="always"
         stdDeviation="0.92311178"
         id="feGaussianBlur14933" />
    </filter>
    <filter
       inkscape:collect="always"
       style="color-interpolation-filters:sRGB"
       id="filter17930"
       x="-0.0040760042"
       y="-0.0045950679"
       width="1.008152"
       height="1.0091901">
      <feGaussianBlur
         inkscape:collect="always"
         stdDeviation="0.23077795"
         id="feGaussianBlur17928" />
    </filter>
    <clipPath
       clipPathUnits="userSpaceOnUse"
       id="clipPath31901">
      <path
         id="path31903"
         style="fill:#008000;stroke:none;stroke-width:0.416999;stroke-linecap:round;stroke-linejoin:round;paint-order:stroke fill markers"
         d="m -133.54054,-5.6931758 c -10.9346,0 -19.73781,8.8032063 -19.73781,19.7378128 v 44.247429 c 0,10.934607 8.80321,19.737813 19.73781,19.737813 h 60.526541 c 7.424833,0.866791 11.631761,15.482613 13.249839,19.218466 5.431846,12.541165 16.962271,17.176725 16.962271,17.176725 -8.373322,-12.92181 -13.953175,-35.304776 2.599838,-36.39519 h 2.652551 c 10.93461,0 19.73782,-8.803207 19.73782,-19.737814 V 14.044637 c 0,-10.9346065 -8.80321,-19.7378128 -19.73782,-19.7378128 z" />
    </clipPath>
    <filter
       inkscape:collect="always"
       style="color-interpolation-filters:sRGB"
       id="filter33357"
       x="-0.081736202"
       y="-0.34946785"
       width="1.1634724"
       height="1.6989357">
      <feGaussianBlur
         inkscape:collect="always"
         stdDeviation="4.2037795"
         id="feGaussianBlur33359" />
    </filter>
    <filter
       inkscape:collect="always"
       style="color-interpolation-filters:sRGB"
       id="filter42752"
       x="-0.091465053"
       y="-0.54879028"
       width="1.1829301"
       height="2.0975806">
      <feGaussianBlur
         inkscape:collect="always"
         stdDeviation="4.3485246"
         id="feGaussianBlur42754" />
    </filter>
    <clipPath
       clipPathUnits="userSpaceOnUse"
       id="clipPath45016">
      <path
         id="path45018"
         style="fill:#008000;fill-opacity:1;stroke:none;stroke-width:0.416999;stroke-linecap:round;stroke-linejoin:round;paint-order:stroke fill markers"
         d="m -131.28053,-5.6013993 c -10.9346,0 -19.73781,8.8032066 -19.73781,19.7378123 v 44.247429 c 0,10.934607 8.80321,19.737814 19.73781,19.737814 h 60.526541 c 7.424833,0.86679 11.631761,15.482609 13.249842,19.21846 5.43184,12.541174 16.96227,17.176734 16.96227,17.176734 -8.373321,-12.92181 -13.95318,-35.30478 2.599841,-36.395194 h 2.652549 c 10.93461,0 19.73782,-8.803207 19.73782,-19.737814 V 14.136413 c 0,-10.9346057 -8.80321,-19.7378123 -19.73782,-19.7378123 z" />
    </clipPath>
    <filter
       inkscape:collect="always"
       style="color-interpolation-filters:sRGB"
       id="filter45020"
       x="-0.23104973"
       y="-1.481143"
       width="1.4620995"
       height="3.962286">
      <feGaussianBlur
         inkscape:collect="always"
         stdDeviation="12.996244"
         id="feGaussianBlur45022" />
    </filter>
  </defs>
  <g
     inkscape:label="Layer 1"
     inkscape:groupmode="layer"
     id="layer1">
    <path
       id="rect792"
       style="fill:#008000;stroke:none;stroke-width:0.416999;stroke-linecap:round;stroke-linejoin:round;paint-order:stroke fill markers;fill-opacity:1"
       d="M 19.737813,0 C 8.8032063,0 0,8.8032063 0,19.737813 v 44.247429 c 0,10.934607 8.8032063,19.737813 19.737813,19.737813 h 60.526538 c 7.424834,0.866792 11.63176,15.482613 13.249838,19.218465 5.431847,12.54117 16.962271,17.17673 16.962271,17.17673 -8.37332,-12.92181 -13.953174,-35.30478 2.59984,-36.395195 h 2.65255 c 10.93461,0 19.73782,-8.803206 19.73782,-19.737813 V 19.737813 C 135.46667,8.8032063 126.66346,0 115.72885,0 Z" />
    <path
       id="rect792-36-6"
       style="display:inline;mix-blend-mode:overlay;fill:#ffffff;stroke:none;stroke-width:0.416999;stroke-linecap:round;stroke-linejoin:round;paint-order:stroke fill markers;filter:url(#filter33357)"
       d="m -147.26229,63.498776 c 0.82469,5.914252 5.90861,11.053262 11.9055,11.633382 3.56741,0.40397 7.16286,0.063 10.74289,0.15856 17.44462,0.0432 34.891964,-0.064 52.334788,0.11359 4.506126,0.51249 8.243579,3.67076 10.707398,7.31584 2.110255,2.95041 3.59187,6.33773 4.951172,9.64844 0.162995,-4.51304 1.652057,-9.13642 4.915112,-12.37063 2.97411,-3.05698 7.24956,-4.51281 11.44752,-4.66468 2.50388,-0.16867 5.03045,0.11099 7.40671,-0.85088 4.67545,-1.63159 8.36847,-5.91307 9.02346,-10.857903 z"
       sodipodi:nodetypes="ccccccccccc"
       clip-path="url(#clipPath31901)"
       inkscape:label="clip-lower-glow"
       transform="translate(153.27835,5.6898065)" />
    <path
       style="color:#000000;display:inline;mix-blend-mode:normal;fill:#000000;stroke-linecap:round;stroke-linejoin:round;paint-order:stroke fill markers;filter:url(#filter14931)"
       d="m -156.10156,-47.921875 c -11.0465,0 -19.94727,8.898811 -19.94727,19.945313 v 44.248046 c 0,11.046502 8.90077,19.947266 19.94727,19.947266 h 60.50781 c 1.788979,0.210794 3.400446,1.250623 4.841797,2.777344 1.442997,1.528464 2.707342,3.538443 3.792969,5.642578 2.171252,4.20827 3.619147,8.773427 4.441406,10.671875 5.467163,12.622709 17.076172,17.287109 17.076172,17.287109 a 0.20852036,0.20852036 0 0 0 0.253906,-0.30664 c -4.168273,-6.43253 -7.646029,-15.241294 -8.015625,-22.53125 -0.184798,-3.644979 0.40729,-6.902142 2.044922,-9.302735 1.635643,-2.397677 4.312123,-3.965979 8.394531,-4.238281 h 0.002 2.650391 c 11.046504,0 19.947266,-8.900764 19.947266,-19.947266 v -44.248046 c 0,-11.046502 -8.900762,-19.945313 -19.947266,-19.945313 z m 0,0.416016 h 95.990232 c 10.822694,0 19.529297,8.706606 19.529297,19.529297 v 44.248046 c 0,10.822691 -8.706603,19.529297 -19.529297,19.529297 h -2.652344 a 0.20852036,0.20852036 0 0 0 -0.01367,0 c -4.1857,0.27573 -7.014598,1.913227 -8.724609,4.419922 -1.710012,2.506695 -2.304891,5.858262 -2.117188,9.560547 0.364759,7.194545 3.69716,15.70863 7.742188,22.140625 -1.564782,-0.688465 -11.287271,-5.301246 -16.257813,-16.777344 -0.795817,-1.8374 -2.260191,-6.446973 -4.453125,-10.697265 -1.096467,-2.125147 -2.376729,-4.165752 -3.861328,-5.738282 -1.484598,-1.572529 -3.180578,-2.68199 -5.101562,-2.90625 a 0.20852036,0.20852036 0 0 0 -0.02539,-0.002 h -60.525391 c -10.82269,0 -19.5293,-8.706606 -19.5293,-19.529297 v -44.248046 c 0,-10.822691 8.70661,-19.529297 19.5293,-19.529297 z"
       id="path14195"
       clip-path="url(#clipPath14927)"
       transform="translate(175.83974,47.713641)"
       sodipodi:insensitive="true" />
    <path
       style="color:#000000;display:inline;mix-blend-mode:normal;fill:#000000;stroke-linecap:round;stroke-linejoin:round;paint-order:stroke fill markers;filter:url(#filter17930)"
       d="m -156.10156,-47.921875 c -11.0465,0 -19.94727,8.898811 -19.94727,19.945313 v 44.248046 c 0,11.046502 8.90077,19.947266 19.94727,19.947266 h 60.50781 c 1.788979,0.210794 3.400446,1.250623 4.841797,2.777344 1.442997,1.528464 2.707342,3.538443 3.792969,5.642578 2.171252,4.20827 3.619147,8.773427 4.441406,10.671875 5.467163,12.622709 17.076172,17.287109 17.076172,17.287109 a 0.20852036,0.20852036 0 0 0 0.253906,-0.30664 c -4.168273,-6.43253 -7.646029,-15.241294 -8.015625,-22.53125 -0.184798,-3.644979 0.40729,-6.902142 2.044922,-9.302735 1.635643,-2.397677 4.312123,-3.965979 8.394531,-4.238281 h 0.002 2.650391 c 11.046504,0 19.947266,-8.900764 19.947266,-19.947266 v -44.248046 c 0,-11.046502 -8.900762,-19.945313 -19.947266,-19.945313 z m 0,0.416016 h 95.990232 c 10.822694,0 19.529297,8.706606 19.529297,19.529297 v 44.248046 c 0,10.822691 -8.706603,19.529297 -19.529297,19.529297 h -2.652344 a 0.20852036,0.20852036 0 0 0 -0.01367,0 c -4.1857,0.27573 -7.014598,1.913227 -8.724609,4.419922 -1.710012,2.506695 -2.304891,5.858262 -2.117188,9.560547 0.364759,7.194545 3.69716,15.70863 7.742188,22.140625 -1.564782,-0.688465 -11.287271,-5.301246 -16.257813,-16.777344 -0.795817,-1.8374 -2.260191,-6.446973 -4.453125,-10.697265 -1.096467,-2.125147 -2.376729,-4.165752 -3.861328,-5.738282 -1.484598,-1.572529 -3.180578,-2.68199 -5.101562,-2.90625 a 0.20852036,0.20852036 0 0 0 -0.02539,-0.002 h -60.525391 c -10.82269,0 -19.5293,-8.706606 -19.5293,-19.529297 v -44.248046 c 0,-10.822691 8.70661,-19.529297 19.5293,-19.529297 z"
       id="path17925"
       clip-path="url(#clipPath14927)"
       transform="translate(175.83974,47.713641)"
       sodipodi:insensitive="true" />
    <ellipse
       style="display:inline;opacity:0.8;mix-blend-mode:soft-light;fill:#000000;fill-opacity:1;stroke:none;stroke-width:0.416999;stroke-linecap:round;stroke-linejoin:round;paint-order:stroke fill markers;filter:url(#filter42752)"
       id="path42490"
       cx="67.707306"
       cy="42.789333"
       rx="57.05162"
       ry="9.508604"
       inkscape:label="center-darken-circle" />
    <rect
       style="display:inline;mix-blend-mode:normal;fill:#000000;fill-opacity:1;stroke:none;stroke-width:0.607125;stroke-linecap:round;stroke-linejoin:round;paint-order:stroke fill markers;filter:url(#filter45020)"
       id="rect44261-6"
       width="134.99686"
       height="21.058727"
       x="-150.80946"
       y="25.730291"
       ry="10.529364"
       clip-path="url(#clipPath45016)"
       transform="translate(150.99231,5.471346)"
       inkscape:label="center-darken" />
    <text
       xml:space="preserve"
       style="font-style:normal;font-weight:normal;font-size:57.4123px;line-height:1.25;font-family:sans-serif;mix-blend-mode:soft-light;fill:#000000;fill-opacity:1;stroke:none;stroke-width:1.43531"
       x="38.395649"
       y="58.625977"
       id="text875"><tspan
         sodipodi:role="line"
         id="tspan873"
         style="font-style:normal;font-variant:normal;font-weight:normal;font-stretch:normal;font-size:57.4123px;font-family:'13_Misa';-inkscape-font-specification:'13_Misa, Normal';font-variant-ligatures:normal;font-variant-caps:normal;font-variant-numeric:normal;font-variant-east-asian:normal;fill:#ffffff;stroke-width:1.43531"
         x="38.395649"
         y="58.625977">K</tspan></text>
    <path
       id="rect792-3"
       style="display:inline;fill:url(#linearGradient8860);fill-opacity:1;stroke:none;stroke-width:0.416999;stroke-linecap:round;stroke-linejoin:round;paint-order:stroke fill markers"
       d="m 114.48814,4.2446729 c -32.106577,0.009 -64.214576,-0.04004 -96.3202,0.08233 -7.137938,0.6002 -13.4472464,6.8262761 -13.8233601,14.0369151 -0.2643425,3.531088 -0.016493,7.074877 -0.1028619,10.611611 0,15.701611 35.103599,13.603645 64.209476,13.603645 32.514486,0 62.744786,3.11626 62.744786,-14.650945 -0.0919,-2.133533 0.10496,-9.59684 -0.34456,-11.697227 -0.98588,-4.298066 -3.99883,-8.1580481 -7.82226,-10.1914101 -2.62669,-1.412081 -5.58129,-1.888545 -8.54102,-1.794922 z"
       sodipodi:nodetypes="scccscccss"
       inkscape:label="top-glare" />
  </g>
</svg>
