<?xml version="1.0" encoding="UTF-8" standalone="no"?>
<!-- Created with Inkscape (http://www.inkscape.org/) -->

<svg
   width="512"
   height="512"
   viewBox="0 0 135.46666 135.46667"
   version="1.1"
   id="svg5"
   inkscape:version="1.3.2 (091e20ef0f, 2023-11-25, custom)"
   sodipodi:docname="lightdm-gtk-greeter-settings.svg"
   xmlns:inkscape="http://www.inkscape.org/namespaces/inkscape"
   xmlns:sodipodi="http://sodipodi.sourceforge.net/DTD/sodipodi-0.dtd"
   xmlns:xlink="http://www.w3.org/1999/xlink"
   xmlns="http://www.w3.org/2000/svg"
   xmlns:svg="http://www.w3.org/2000/svg">
  <sodipodi:namedview
     id="namedview7"
     pagecolor="#242424"
     bordercolor="#666666"
     borderopacity="1"
     inkscape:showpageshadow="0"
     inkscape:pageopacity="0"
     inkscape:pagecheckerboard="1"
     inkscape:deskcolor="#000000"
     inkscape:document-units="px"
     showgrid="false"
     inkscape:zoom="3.5414791"
     inkscape:cx="340.67686"
     inkscape:cy="140.33684"
     inkscape:window-width="3256"
     inkscape:window-height="1080"
     inkscape:window-x="1864"
     inkscape:window-y="0"
     inkscape:window-maximized="0"
     inkscape:current-layer="layer3" />
  <defs
     id="defs2">
    <linearGradient
       id="linearGradient26"
       inkscape:collect="always">
      <stop
         style="stop-color:#bababa;stop-opacity:1;"
         offset="0.39645851"
         id="stop18" />
      <stop
         style="stop-color:#707070;stop-opacity:1;"
         offset="0.39996621"
         id="stop19" />
      <stop
         style="stop-color:#707070;stop-opacity:1;"
         offset="0.5"
         id="stop20" />
      <stop
         style="stop-color:#d2d2d2;stop-opacity:1;"
         offset="0.50999999"
         id="stop21" />
      <stop
         style="stop-color:#7a7a7a;stop-opacity:1;"
         offset="0.60000002"
         id="stop22" />
      <stop
         style="stop-color:#ffffff;stop-opacity:1;"
         offset="1"
         id="stop26" />
    </linearGradient>
    <linearGradient
       id="linearGradient5"
       inkscape:collect="always">
      <stop
         style="stop-color:#000000;stop-opacity:1;"
         offset="0"
         id="stop5" />
      <stop
         style="stop-color:#000000;stop-opacity:0;"
         offset="1"
         id="stop6" />
    </linearGradient>
    <linearGradient
       id="linearGradient3"
       inkscape:collect="always">
      <stop
         style="stop-color:#ffffff;stop-opacity:0;"
         offset="0"
         id="stop4" />
      <stop
         style="stop-color:#000000;stop-opacity:1;"
         offset="1"
         id="stop3" />
    </linearGradient>
    <linearGradient
       id="linearGradient39"
       inkscape:collect="always">
      <stop
         style="stop-color:#4d4d4d;stop-opacity:1;"
         offset="0"
         id="stop39" />
      <stop
         style="stop-color:#666666;stop-opacity:1;"
         offset="0.5"
         id="stop41" />
      <stop
         style="stop-color:#2e2e2e;stop-opacity:1;"
         offset="1"
         id="stop40" />
    </linearGradient>
    <linearGradient
       id="linearGradient37"
       inkscape:collect="always">
      <stop
         style="stop-color:#000000;stop-opacity:0;"
         offset="0"
         id="stop38" />
      <stop
         style="stop-color:#000000;stop-opacity:1;"
         offset="1"
         id="stop37" />
    </linearGradient>
    <linearGradient
       id="linearGradient33"
       inkscape:collect="always">
      <stop
         style="stop-color:#808080;stop-opacity:1;"
         offset="0"
         id="stop33" />
      <stop
         style="stop-color:#474747;stop-opacity:1;"
         offset="1"
         id="stop34" />
    </linearGradient>
    <linearGradient
       id="linearGradient24"
       inkscape:collect="always">
      <stop
         style="stop-color:#ffffff;stop-opacity:0;"
         offset="0"
         id="stop25" />
      <stop
         style="stop-color:#ffffff;stop-opacity:1;"
         offset="1"
         id="stop24" />
    </linearGradient>
    <linearGradient
       id="linearGradient15"
       inkscape:collect="always">
      <stop
         style="stop-color:#000000;stop-opacity:1;"
         offset="0"
         id="stop15" />
      <stop
         style="stop-color:#000000;stop-opacity:0;"
         offset="1"
         id="stop16" />
    </linearGradient>
    <linearGradient
       id="linearGradient11"
       inkscape:collect="always">
      <stop
         style="stop-color:#f2f2f2;stop-opacity:1;"
         offset="0"
         id="stop11" />
      <stop
         style="stop-color:#000000;stop-opacity:1;"
         offset="1"
         id="stop12" />
    </linearGradient>
    <linearGradient
       id="linearGradient1"
       inkscape:collect="always">
      <stop
         style="stop-color:#1a1a1a;stop-opacity:1;"
         offset="0"
         id="stop1" />
      <stop
         style="stop-color:#1a1a1a;stop-opacity:0;"
         offset="1"
         id="stop2" />
    </linearGradient>
    <linearGradient
       inkscape:collect="always"
       xlink:href="#linearGradient1"
       id="linearGradient2"
       x1="-100.08714"
       y1="-22.278904"
       x2="-100.08714"
       y2="31.402481"
       gradientUnits="userSpaceOnUse"
       gradientTransform="translate(167.82047,36.194518)" />
    <linearGradient
       inkscape:collect="always"
       xlink:href="#linearGradient11"
       id="linearGradient12"
       x1="67.73333"
       y1="112.37701"
       x2="67.73333"
       y2="101.93929"
       gradientUnits="userSpaceOnUse" />
    <clipPath
       clipPathUnits="userSpaceOnUse"
       id="clipPath13">
      <path
         style="color:#000000;fill:url(#linearGradient14);stroke-width:0.999998;stroke-linecap:round;stroke-linejoin:round;stroke-dashoffset:149.514;-inkscape-stroke:none;paint-order:markers stroke fill"
         d="m 44.094733,101.93929 h 47.277191 c 2.891248,0 5.218859,2.32761 5.218859,5.21886 0,2.89125 -2.327611,5.21886 -5.218859,5.21886 H 44.094733 c -2.891245,0 -5.218856,-2.32761 -5.218856,-5.21886 0,-2.89125 2.327611,-5.21886 5.218856,-5.21886 z"
         id="path14" />
    </clipPath>
    <linearGradient
       inkscape:collect="always"
       xlink:href="#linearGradient11"
       id="linearGradient14"
       gradientUnits="userSpaceOnUse"
       x1="67.73333"
       y1="112.37701"
       x2="67.73333"
       y2="101.93929" />
    <filter
       inkscape:collect="always"
       style="color-interpolation-filters:sRGB"
       id="filter15"
       x="-0.010391732"
       y="-0.051254726"
       width="1.0207835"
       height="1.1025095">
      <feGaussianBlur
         inkscape:collect="always"
         stdDeviation="0.25677423"
         id="feGaussianBlur15" />
    </filter>
    <linearGradient
       inkscape:collect="always"
       xlink:href="#linearGradient15"
       id="linearGradient16"
       x1="67.733398"
       y1="101.14648"
       x2="67.733398"
       y2="113.16992"
       gradientUnits="userSpaceOnUse" />
    <linearGradient
       inkscape:collect="always"
       xlink:href="#linearGradient24"
       id="linearGradient25"
       x1="67.73333"
       y1="101.93929"
       x2="67.73333"
       y2="112.37701"
       gradientUnits="userSpaceOnUse" />
    <clipPath
       clipPathUnits="userSpaceOnUse"
       id="clipPath29">
      <path
         style="color:#000000;fill:#cccccc;stroke-width:0.999998;stroke-linecap:round;stroke-linejoin:round;stroke-dashoffset:149.514;-inkscape-stroke:none;paint-order:markers stroke fill"
         d="m 206.26333,28.637621 c -4.82752,0.01304 -9.41599,2.68586 -12.58941,7.333401 -0.34243,0.523298 -0.66509,1.067213 -0.96687,1.629875 -0.14257,0.248508 -0.28092,0.50092 -0.41496,0.757061 -0.34513,0.674552 -0.66017,1.373468 -0.94361,2.093412 l -0.001,0.0026 c -1.18861,2.969019 -1.8177,6.251794 -1.8371,9.586494 0.004,7.57808 3.14363,14.588797 8.25583,18.432468 v 3.311943 c -6.28364,0.50791 -12.04632,1.569585 -16.68942,3.074747 5.03207,7.478013 14.37194,12.550137 25.18554,12.550137 10.81368,0 20.15444,-5.072036 25.18709,-12.550137 -4.64278,-1.505324 -10.40528,-2.567178 -16.6889,-3.075263 v -3.311427 c 5.1122,-3.843671 8.25227,-10.854388 8.25583,-18.432468 -0.003,-3.316078 -0.60834,-6.586021 -1.7694,-9.551871 -0.31681,-0.810471 -0.67358,-1.594429 -1.06816,-2.347142 -0.39448,-0.752856 -0.82599,-1.472951 -1.29191,-2.155942 -3.17915,-4.664358 -7.78229,-7.343743 -12.62351,-7.34787 z"
         id="path30" />
    </clipPath>
    <filter
       inkscape:collect="always"
       style="color-interpolation-filters:sRGB"
       id="filter30"
       x="-0.045837088"
       y="-0.05037715"
       width="1.0916742"
       height="1.1007543">
      <feGaussianBlur
         inkscape:collect="always"
         stdDeviation="1.0227122"
         id="feGaussianBlur30" />
    </filter>
    <linearGradient
       inkscape:collect="always"
       xlink:href="#linearGradient33"
       id="linearGradient34"
       x1="67.734314"
       y1="7.2386498"
       x2="67.734085"
       y2="66.010788"
       gradientUnits="userSpaceOnUse" />
    <linearGradient
       inkscape:collect="always"
       xlink:href="#linearGradient37"
       id="linearGradient38"
       x1="67.733398"
       y1="83.630859"
       x2="67.733398"
       y2="120.24805"
       gradientUnits="userSpaceOnUse" />
    <linearGradient
       inkscape:collect="always"
       xlink:href="#linearGradient39"
       id="linearGradient40"
       x1="67.73333"
       y1="84.130783"
       x2="67.73333"
       y2="119.74786"
       gradientUnits="userSpaceOnUse" />
    <filter
       inkscape:collect="always"
       style="color-interpolation-filters:sRGB"
       id="filter61"
       x="-0.036415626"
       y="-0.041702134"
       width="1.0728313"
       height="1.0834043">
      <feGaussianBlur
         inkscape:collect="always"
         stdDeviation="0.93276176"
         id="feGaussianBlur61" />
    </filter>
    <filter
       inkscape:collect="always"
       style="color-interpolation-filters:sRGB"
       id="filter62"
       x="-0.070009513"
       y="-0.068252809"
       width="1.140019"
       height="1.1365056">
      <feGaussianBlur
         inkscape:collect="always"
         stdDeviation="0.43501752"
         id="feGaussianBlur62" />
    </filter>
    <linearGradient
       inkscape:collect="always"
       xlink:href="#linearGradient3"
       id="linearGradient4"
       x1="67.73333"
       y1="36.651279"
       x2="67.73333"
       y2="67.733337"
       gradientUnits="userSpaceOnUse"
       gradientTransform="translate(0,6.3500003)" />
    <linearGradient
       inkscape:collect="always"
       xlink:href="#linearGradient5"
       id="linearGradient6"
       x1="67.73333"
       y1="74.083336"
       x2="67.73333"
       y2="43.001278"
       gradientUnits="userSpaceOnUse" />
    <radialGradient
       inkscape:collect="always"
       xlink:href="#linearGradient26"
       id="radialGradient17"
       cx="67.452988"
       cy="52.154892"
       fx="67.452988"
       fy="52.154892"
       r="43.4175"
       gradientTransform="matrix(1,0,0,0.99533921,0,-2.3466693)"
       gradientUnits="userSpaceOnUse" />
  </defs>
  <g
     inkscape:label="Layer 1"
     inkscape:groupmode="layer"
     id="layer1">
    <path
       id="rect1"
       style="fill:#0000ff;stroke:none;stroke-width:1.05833;stroke-linecap:round;stroke-linejoin:round;stroke-dashoffset:149.514;paint-order:markers stroke fill"
       d="M 92.335374 -24.741189 L 92.335511 115.50419 L 111.09329 110.47805 L 111.09316 -29.767322 L 92.335374 -24.741189 z "
       transform="rotate(15)" />
    <path
       id="rect16"
       style="fill:#800080;stroke:none;stroke-width:1.05833;stroke-linecap:round;stroke-linejoin:round;stroke-dashoffset:149.514;paint-order:markers stroke fill"
       d="M 73.576593 -19.714789 L 73.576729 120.53059 L 92.335511 115.50419 L 92.335374 -24.741189 L 73.576593 -19.714789 z "
       transform="rotate(15)" />
    <path
       id="rect17"
       style="fill:#ff0000;stroke:none;stroke-width:1.05833;stroke-linecap:round;stroke-linejoin:round;stroke-dashoffset:149.514;paint-order:markers stroke fill"
       d="M 54.818809 -14.688656 L 54.818946 125.55672 L 73.576729 120.53059 L 73.576593 -19.714789 L 54.818809 -14.688656 z "
       transform="rotate(15)" />
    <path
       id="rect18"
       style="fill:#ffcc00;stroke:none;stroke-width:1.05833;stroke-linecap:round;stroke-linejoin:round;stroke-dashoffset:149.514;paint-order:markers stroke fill"
       d="M 17.302244 -4.6361224 L 17.3021 64.572318 L 35.061353 130.85075 L 36.060663 130.58299 L 36.060527 -9.6623891 L 17.302244 -4.6361224 z "
       transform="rotate(15)" />
    <path
       id="rect19"
       style="fill:#ff6600;stroke:none;stroke-width:1.05833;stroke-linecap:round;stroke-linejoin:round;stroke-dashoffset:149.514;paint-order:markers stroke fill"
       d="M 36.060527 -9.6623891 L 36.060663 130.58299 L 54.818946 125.55672 L 54.818809 -14.688656 L 36.060527 -9.6623891 z "
       transform="rotate(15)" />
    <path
       id="rect20"
       style="fill:#00ff00;stroke:none;stroke-width:1.05833;stroke-linecap:round;stroke-linejoin:round;stroke-dashoffset:149.514;paint-order:markers stroke fill"
       d="M 0 0 L 17.3021 64.572318 L 17.302244 -4.6361224 L 0 0 z "
       transform="rotate(15)" />
    <path
       id="rect21"
       style="fill:#ffffff;stroke:none;stroke-width:1.05833;stroke-linecap:round;stroke-linejoin:round;stroke-dashoffset:149.514;paint-order:markers stroke fill"
       d="M 111.09316 -29.767322 L 111.09329 110.47805 L 129.85158 105.45179 L 129.85144 -34.793588 L 111.09316 -29.767322 z "
       transform="rotate(15)" />
    <path
       id="rect22"
       style="fill:#808080;fill-opacity:1;stroke:none;stroke-width:1.05833;stroke-linecap:round;stroke-linejoin:round;stroke-dashoffset:149.514;paint-order:markers stroke fill"
       d="M 129.85144 -34.793588 L 129.85158 105.45179 L 148.60986 100.42552 L 148.61 31.21708 L 130.85075 -35.061353 L 129.85144 -34.793588 z "
       transform="rotate(15)" />
    <path
       id="rect23"
       style="fill:#000000;stroke:none;stroke-width:1.05833;stroke-linecap:round;stroke-linejoin:round;stroke-dashoffset:149.514;paint-order:markers stroke fill"
       d="M 148.61 31.21708 L 148.60986 100.42552 L 165.9121 95.789397 L 148.61 31.21708 z "
       transform="rotate(15)" />
    <path
       style="color:#000000;mix-blend-mode:hard-light;fill:url(#linearGradient40);stroke-linecap:round;stroke-linejoin:round;stroke-dashoffset:149.514;-inkscape-stroke:none;paint-order:markers stroke fill"
       d="m 38.116755,84.130692 h 59.233157 c 1.59496,0 2.878988,1.284029 2.878988,2.878988 v 29.85919 c 0,1.59496 -1.284028,2.87899 -2.878988,2.87899 H 38.116755 c -1.59496,0 -2.878989,-1.28403 -2.878989,-2.87899 V 87.00968 c 0,-1.594959 1.284029,-2.878988 2.878989,-2.878988 z"
       id="path37" />
    <g
       id="g33"
       transform="translate(-0.94281663,-0.52916664)">
      <path
         d="m 50.074164,92.727077 q 0,0.956011 -0.449583,1.581294 -0.583942,0.811317 -1.93786,0.811317 h -1.147213 v 2.335768 H 44.705 v -7.053811 h 2.919709 q 1.245398,0 1.891352,0.728636 0.558103,0.625282 0.558103,1.596796 z m -1.906854,0.02067 q 0,-0.39274 -0.232543,-0.625283 -0.227376,-0.237711 -0.780312,-0.237711 h -0.614947 v 1.751826 h 0.60978 q 0.594277,0 0.816485,-0.258382 0.201537,-0.232543 0.201537,-0.63045 z m 8.12351,4.707708 h -1.694982 v -0.532266 q -0.242879,0.30489 -0.490925,0.444416 -0.43408,0.242879 -0.987016,0.242879 -0.894,0 -1.591629,-0.614948 -0.831988,-0.733803 -0.831988,-1.943028 0,-1.229895 0.852658,-1.963698 0.676959,-0.583942 1.555456,-0.583942 0.511595,0 0.961178,0.217041 0.258382,0.124023 0.532266,0.408242 v -0.470254 h 1.694982 z m -1.643306,-2.397779 q 0,-0.454751 -0.320393,-0.769977 -0.320392,-0.320392 -0.775144,-0.320392 -0.506427,0 -0.831988,0.382404 -0.263549,0.310058 -0.263549,0.707965 0,0.397907 0.263549,0.707965 0.320393,0.382404 0.831988,0.382404 0.459919,0 0.775144,-0.315225 0.320393,-0.315225 0.320393,-0.775144 z m 6.702412,0.780312 q 0,0.764808 -0.547768,1.250565 -0.614948,0.547769 -1.731155,0.547769 -0.987017,0 -1.91719,-0.552936 l 0.614948,-1.19889 q 0.728635,0.480589 1.353918,0.480589 0.532266,0 0.532266,-0.366901 0,-0.191202 -0.186035,-0.294555 -0.118855,-0.06718 -0.537433,-0.160196 -0.470254,-0.103353 -0.614948,-0.160197 -0.516762,-0.201537 -0.697629,-0.63045 -0.09819,-0.232543 -0.09819,-0.558104 0,-0.63045 0.428913,-1.100704 0.552936,-0.604613 1.705317,-0.604613 0.800982,0 1.555455,0.310058 l -0.573606,1.095537 q -0.475422,-0.242879 -0.909502,-0.242879 -0.511595,0 -0.511595,0.351399 0,0.160196 0.206705,0.258381 0.09302,0.04651 0.547768,0.139526 0.666624,0.139526 0.981849,0.444416 0.397907,0.382405 0.397907,0.992185 z m 4.764553,0 q 0,0.764808 -0.547768,1.250565 -0.614948,0.547769 -1.731155,0.547769 -0.987017,0 -1.917189,-0.552936 l 0.614947,-1.19889 q 0.728635,0.480589 1.353918,0.480589 0.532266,0 0.532266,-0.366901 0,-0.191202 -0.186035,-0.294555 -0.118855,-0.06718 -0.537433,-0.160196 -0.470254,-0.103353 -0.614947,-0.160197 -0.516763,-0.201537 -0.69763,-0.63045 -0.09819,-0.232543 -0.09819,-0.558104 0,-0.63045 0.428913,-1.100704 0.552936,-0.604613 1.705317,-0.604613 0.800982,0 1.555456,0.310058 l -0.573607,1.095537 q -0.475422,-0.242879 -0.909502,-0.242879 -0.511595,0 -0.511595,0.351399 0,0.160196 0.206705,0.258381 0.09302,0.04651 0.547768,0.139526 0.666624,0.139526 0.981849,0.444416 0.397907,0.382405 0.397907,0.992185 z m 9.880502,-3.178091 -2.511466,4.795558 h -1.131711 l -1.198889,-2.630322 -1.147213,2.630322 h -1.142046 l -2.464958,-4.795558 h 1.891352 l 1.147213,2.52697 1.204057,-2.52697 h 1.064531 l 1.198889,2.599316 1.204057,-2.599316 z m 6.159813,2.397779 q 0,0.997352 -0.656288,1.710484 -0.795815,0.868162 -2.227248,0.868162 -1.4366,0 -2.232414,-0.868162 -0.656289,-0.713132 -0.656289,-1.751825 0,-0.935341 0.661456,-1.658808 0.800982,-0.873329 2.278924,-0.873329 1.359086,0 2.170403,0.873329 0.661456,0.713132 0.661456,1.700149 z m -1.762161,0 q 0,-0.465087 -0.330728,-0.785479 -0.32556,-0.325561 -0.790647,-0.325561 -0.527097,0 -0.857826,0.39274 -0.268716,0.315225 -0.268716,0.7183 0,0.408242 0.268716,0.723468 0.330729,0.392739 0.857826,0.392739 0.470254,0 0.795815,-0.320393 0.32556,-0.32556 0.32556,-0.795814 z m 6.325175,-0.831988 q -0.356566,-0.170532 -0.723468,-0.170532 -0.837155,0 -1.085202,0.682127 -0.09302,0.248046 -0.09302,0.666624 v 2.051548 h -1.694981 v -4.795558 h 1.694981 v 0.785479 q 0.268717,-0.418577 0.578774,-0.604612 0.418578,-0.248046 0.992185,-0.248046 0.134358,0 0.330728,0.0155 z m 6.159808,3.229767 h -1.694981 v -0.532266 q -0.242879,0.30489 -0.490925,0.444416 -0.43408,0.242879 -0.987017,0.242879 -0.893999,0 -1.591629,-0.614948 -0.831988,-0.733803 -0.831988,-1.943028 0,-1.229895 0.852659,-1.963698 0.676959,-0.583942 1.555456,-0.583942 0.511595,0 0.961178,0.217041 0.258381,0.124023 0.532266,0.408242 v -3.436472 h 1.694981 z m -1.643305,-2.397779 q 0,-0.454751 -0.320393,-0.769977 -0.320393,-0.320392 -0.775144,-0.320392 -0.506427,0 -0.831988,0.382404 -0.263549,0.310058 -0.263549,0.707965 0,0.397907 0.263549,0.707965 0.320393,0.382404 0.831988,0.382404 0.459919,0 0.775144,-0.315225 0.320393,-0.315225 0.320393,-0.775144 z"
         id="path23"
         style="font-size:10.5833px;line-height:1.25;font-family:Aharoni;-inkscape-font-specification:'Aharoni, Normal';fill:#000000;stroke-width:0.264583"
         aria-label="Password" />
      <path
         d="m 49.843837,92.49675 q 0,0.956011 -0.449583,1.581294 -0.583942,0.811317 -1.93786,0.811317 h -1.147213 v 2.335768 h -1.834508 v -7.053811 h 2.919709 q 1.245398,0 1.891352,0.728636 0.558103,0.625282 0.558103,1.596796 z m -1.906854,0.02067 q 0,-0.39274 -0.232543,-0.625283 -0.227376,-0.237711 -0.780312,-0.237711 h -0.614947 v 1.751826 h 0.60978 q 0.594277,0 0.816485,-0.258382 0.201537,-0.232543 0.201537,-0.63045 z m 8.12351,4.707708 h -1.694982 v -0.532266 q -0.242879,0.30489 -0.490925,0.444416 -0.43408,0.242879 -0.987016,0.242879 -0.894,0 -1.591629,-0.614948 -0.831988,-0.733803 -0.831988,-1.943028 0,-1.229895 0.852658,-1.963698 0.676959,-0.583942 1.555456,-0.583942 0.511595,0 0.961178,0.217041 0.258382,0.124023 0.532266,0.408242 V 92.42957 h 1.694982 z m -1.643306,-2.397779 q 0,-0.454751 -0.320393,-0.769977 -0.320392,-0.320392 -0.775144,-0.320392 -0.506427,0 -0.831988,0.382404 -0.263549,0.310058 -0.263549,0.707965 0,0.397907 0.263549,0.707965 0.320393,0.382404 0.831988,0.382404 0.459919,0 0.775144,-0.315225 0.320393,-0.315225 0.320393,-0.775144 z m 6.702412,0.780312 q 0,0.764808 -0.547768,1.250565 -0.614948,0.547769 -1.731155,0.547769 -0.987017,0 -1.91719,-0.552936 l 0.614948,-1.19889 q 0.728635,0.480589 1.353918,0.480589 0.532266,0 0.532266,-0.366901 0,-0.191202 -0.186035,-0.294555 -0.118855,-0.06718 -0.537433,-0.160196 -0.470254,-0.103353 -0.614948,-0.160197 -0.516762,-0.201537 -0.697629,-0.63045 -0.09819,-0.232543 -0.09819,-0.558104 0,-0.63045 0.428913,-1.100704 0.552936,-0.604613 1.705317,-0.604613 0.800982,0 1.555455,0.310058 l -0.573606,1.095537 q -0.475422,-0.242879 -0.909502,-0.242879 -0.511595,0 -0.511595,0.351399 0,0.160196 0.206705,0.258381 0.09302,0.04651 0.547768,0.139526 0.666624,0.139526 0.981849,0.444416 0.397907,0.382405 0.397907,0.992185 z m 4.764553,0 q 0,0.764808 -0.547768,1.250565 -0.614948,0.547769 -1.731155,0.547769 -0.987017,0 -1.917189,-0.552936 l 0.614947,-1.19889 q 0.728635,0.480589 1.353918,0.480589 0.532266,0 0.532266,-0.366901 0,-0.191202 -0.186035,-0.294555 -0.118855,-0.06718 -0.537433,-0.160196 -0.470254,-0.103353 -0.614947,-0.160197 -0.516763,-0.201537 -0.69763,-0.63045 -0.09819,-0.232543 -0.09819,-0.558104 0,-0.63045 0.428913,-1.100704 0.552936,-0.604613 1.705317,-0.604613 0.800982,0 1.555456,0.310058 l -0.573607,1.095537 q -0.475422,-0.242879 -0.909502,-0.242879 -0.511595,0 -0.511595,0.351399 0,0.160196 0.206705,0.258381 0.09302,0.04651 0.547768,0.139526 0.666624,0.139526 0.981849,0.444416 0.397907,0.382405 0.397907,0.992185 z m 9.880502,-3.178091 -2.511466,4.795558 h -1.131711 l -1.198889,-2.630322 -1.147213,2.630322 H 68.633329 L 66.168371,92.42957 h 1.891352 l 1.147213,2.52697 1.204057,-2.52697 h 1.064531 l 1.198889,2.599316 1.204057,-2.599316 z m 6.159813,2.397779 q 0,0.997352 -0.656288,1.710484 -0.795815,0.868162 -2.227248,0.868162 -1.4366,0 -2.232414,-0.868162 -0.656289,-0.713132 -0.656289,-1.751825 0,-0.935341 0.661456,-1.658808 0.800982,-0.873329 2.278924,-0.873329 1.359086,0 2.170403,0.873329 0.661456,0.713132 0.661456,1.700149 z m -1.762161,0 q 0,-0.465087 -0.330728,-0.785479 -0.32556,-0.325561 -0.790647,-0.325561 -0.527097,0 -0.857826,0.39274 -0.268716,0.315225 -0.268716,0.7183 0,0.408242 0.268716,0.723468 0.330729,0.392739 0.857826,0.392739 0.470254,0 0.795815,-0.320393 0.32556,-0.32556 0.32556,-0.795814 z m 6.325175,-0.831988 q -0.356566,-0.170532 -0.723468,-0.170532 -0.837155,0 -1.085202,0.682127 -0.09302,0.248046 -0.09302,0.666624 v 2.051548 H 82.89081 V 92.42957 h 1.694981 v 0.785479 q 0.268717,-0.418577 0.578774,-0.604612 0.418578,-0.248046 0.992185,-0.248046 0.134358,0 0.330728,0.0155 z m 6.159808,3.229767 h -1.694981 v -0.532266 q -0.242879,0.30489 -0.490925,0.444416 -0.43408,0.242879 -0.987017,0.242879 -0.893999,0 -1.591629,-0.614948 -0.831988,-0.733803 -0.831988,-1.943028 0,-1.229895 0.852659,-1.963698 0.676959,-0.583942 1.555456,-0.583942 0.511595,0 0.961178,0.217041 0.258381,0.124023 0.532266,0.408242 v -3.436472 h 1.694981 z m -1.643305,-2.397779 q 0,-0.454751 -0.320393,-0.769977 -0.320393,-0.320392 -0.775144,-0.320392 -0.506427,0 -0.831988,0.382404 -0.263549,0.310058 -0.263549,0.707965 0,0.397907 0.263549,0.707965 0.320393,0.382404 0.831988,0.382404 0.459919,0 0.775144,-0.315225 0.320393,-0.315225 0.320393,-0.775144 z"
         id="text10"
         style="font-size:10.5833px;line-height:1.25;font-family:Aharoni;-inkscape-font-specification:'Aharoni, Normal';fill:#f2f2f2;stroke-width:0.264583"
         aria-label="Password" />
    </g>
    <rect
       style="display:inline;opacity:1;mix-blend-mode:overlay;fill:url(#linearGradient12);stroke:url(#linearGradient25);stroke-width:1.05833;stroke-linecap:round;stroke-linejoin:round;stroke-dasharray:none;stroke-dashoffset:149.514;stroke-opacity:1;paint-order:markers stroke fill"
       id="rect11"
       width="57.714905"
       height="10.437714"
       x="38.875877"
       y="101.93929"
       ry="5.2188568" />
    <path
       style="color:#000000;display:inline;opacity:0.6;mix-blend-mode:multiply;fill:url(#linearGradient16);stroke-linecap:round;stroke-linejoin:round;stroke-dashoffset:149.514;-inkscape-stroke:none;paint-order:markers stroke fill;filter:url(#filter15)"
       d="m 44.095703,101.14648 c -3.317251,0 -6.013672,2.69447 -6.013672,6.01172 0,3.31725 2.696421,6.01172 6.013672,6.01172 h 47.275391 c 3.317251,0 6.013672,-2.69447 6.013672,-6.01172 0,-3.31725 -2.696421,-6.01172 -6.013672,-6.01172 z m 0,1.58594 h 47.275391 c 2.465236,0 4.425781,1.96055 4.425781,4.42578 0,2.46524 -1.960545,4.42578 -4.425781,4.42578 H 44.095703 c -2.465236,0 -4.425781,-1.96054 -4.425781,-4.42578 0,-2.46523 1.960545,-4.42578 4.425781,-4.42578 z"
       id="path12"
       clip-path="url(#clipPath13)"
       transform="translate(-6.8727051e-5,-5.0280762e-5)" />
    <path
       style="font-size:10.5833px;line-height:1.25;fill:#000000;stroke-width:0.264583"
       d="m 45.248915,105.00104 -0.211666,2.03199 2.031993,-0.5715 0.148167,0.97366 -1.947327,0.15875 1.259412,1.67217 -0.910164,0.49741 -0.89958,-1.85208 -0.814914,1.85208 -0.941914,-0.49741 1.238246,-1.67217 -1.92616,-0.15875 0.148166,-0.97366 2.010827,0.5715 -0.222249,-2.03199 z m 5.831404,0 -0.211666,2.03199 2.031994,-0.5715 0.148166,0.97366 -1.947327,0.15875 1.259412,1.67217 -0.910163,0.49741 -0.899581,-1.85208 -0.814914,1.85208 -0.941914,-0.49741 1.238246,-1.67217 -1.92616,-0.15875 0.148166,-0.97366 2.010827,0.5715 -0.222249,-2.03199 z m 5.831404,0 -0.211666,2.03199 2.031994,-0.5715 0.148166,0.97366 -1.947327,0.15875 1.259413,1.67217 -0.910164,0.49741 -0.899581,-1.85208 -0.814914,1.85208 -0.941913,-0.49741 1.238246,-1.67217 -1.926161,-0.15875 0.148166,-0.97366 2.010827,0.5715 -0.222249,-2.03199 z m 5.831405,0 -0.211666,2.03199 2.031994,-0.5715 0.148166,0.97366 -1.947327,0.15875 1.259412,1.67217 -0.910163,0.49741 -0.899581,-1.85208 -0.814914,1.85208 -0.941914,-0.49741 1.238246,-1.67217 -1.92616,-0.15875 0.148166,-0.97366 2.010827,0.5715 -0.222249,-2.03199 z m 5.831404,0 -0.211666,2.03199 2.031993,-0.5715 0.148166,0.97366 -1.947327,0.15875 1.259413,1.67217 -0.910164,0.49741 -0.89958,-1.85208 -0.814914,1.85208 -0.941914,-0.49741 1.238246,-1.67217 -1.92616,-0.15875 0.148166,-0.97366 2.010827,0.5715 -0.22225,-2.03199 z m 5.831403,0 -0.211666,2.03199 2.031994,-0.5715 0.148166,0.97366 -1.947327,0.15875 1.259413,1.67217 -0.910164,0.49741 -0.89958,-1.85208 -0.814915,1.85208 -0.941913,-0.49741 1.238246,-1.67217 -1.926161,-0.15875 0.148166,-0.97366 2.010827,0.5715 -0.222249,-2.03199 z"
       id="path24"
       aria-label="******" />
    <path
       style="font-size:10.5833px;line-height:1.25;fill:#ececec;stroke-width:0.264583"
       d="m 45.024785,104.77691 -0.211666,2.03199 2.031993,-0.5715 0.148167,0.97366 -1.947327,0.15875 1.259412,1.67217 -0.910164,0.49741 -0.89958,-1.85208 -0.814914,1.85208 -0.941914,-0.49741 1.238246,-1.67217 -1.92616,-0.15875 0.148166,-0.97366 2.010827,0.5715 -0.222249,-2.03199 z m 5.831404,0 -0.211666,2.03199 2.031994,-0.5715 0.148166,0.97366 -1.947327,0.15875 1.259412,1.67217 -0.910163,0.49741 -0.899581,-1.85208 -0.814914,1.85208 -0.941914,-0.49741 1.238246,-1.67217 -1.92616,-0.15875 0.148166,-0.97366 2.010827,0.5715 -0.222249,-2.03199 z m 5.831404,0 -0.211666,2.03199 2.031994,-0.5715 0.148166,0.97366 -1.947327,0.15875 1.259413,1.67217 -0.910164,0.49741 -0.899581,-1.85208 -0.814914,1.85208 -0.941913,-0.49741 1.238246,-1.67217 -1.926161,-0.15875 0.148166,-0.97366 2.010827,0.5715 -0.222249,-2.03199 z m 5.831405,0 -0.211666,2.03199 2.031994,-0.5715 0.148166,0.97366 -1.947327,0.15875 1.259412,1.67217 -0.910163,0.49741 -0.899581,-1.85208 -0.814914,1.85208 -0.941914,-0.49741 1.238246,-1.67217 -1.92616,-0.15875 0.148166,-0.97366 2.010827,0.5715 -0.222249,-2.03199 z m 5.831404,0 -0.211666,2.03199 2.031993,-0.5715 0.148166,0.97366 -1.947327,0.15875 1.259413,1.67217 -0.910164,0.49741 -0.89958,-1.85208 -0.814914,1.85208 -0.941914,-0.49741 1.238246,-1.67217 -1.92616,-0.15875 0.148166,-0.97366 2.010827,0.5715 -0.22225,-2.03199 z m 5.831403,0 -0.211666,2.03199 2.031994,-0.5715 0.148166,0.97366 -1.947327,0.15875 1.259413,1.67217 -0.910164,0.49741 -0.89958,-1.85208 -0.814915,1.85208 -0.941913,-0.49741 1.238246,-1.67217 -1.926161,-0.15875 0.148166,-0.97366 2.010827,0.5715 -0.222249,-2.03199 z"
       id="text16"
       aria-label="******" />
    <text
       xml:space="preserve"
       style="font-style:normal;font-variant:normal;font-weight:normal;font-stretch:normal;font-size:10.5833px;line-height:1.25;font-family:Aharoni;-inkscape-font-specification:'Aharoni, Normal';font-variant-ligatures:normal;font-variant-caps:normal;font-variant-numeric:normal;font-variant-east-asian:normal;display:none;fill:#f2f2f2;fill-opacity:1;stroke:none;stroke-width:0.264583"
       x="43.735703"
       y="98.81263"
       id="text23"
       sodipodi:insensitive="true"><tspan
         sodipodi:role="line"
         id="tspan23"
         style="font-style:normal;font-variant:normal;font-weight:normal;font-stretch:normal;font-size:10.5833px;font-family:Aharoni;-inkscape-font-specification:'Aharoni, Normal';font-variant-ligatures:normal;font-variant-caps:normal;font-variant-numeric:normal;font-variant-east-asian:normal;fill:#f2f2f2;stroke-width:0.264583"
         x="0"
         y="0">Password</tspan></text>
    <path
       id="path38"
       style="color:#000000;mix-blend-mode:multiply;fill:url(#linearGradient38);fill-opacity:1;stroke-linecap:round;stroke-linejoin:round;stroke-dashoffset:149.514;-inkscape-stroke:none;paint-order:markers stroke fill;opacity:0.2"
       d="M 38.116536 84.130781 C 36.521578 84.130781 35.237642 85.414718 35.237642 87.009675 L 35.237642 116.86883 C 35.237642 118.46379 36.521578 119.74773 38.116536 119.74773 L 97.350129 119.74773 C 98.945087 119.74773 100.22902 118.46379 100.22902 116.86883 L 100.22902 87.009675 C 100.22902 85.414718 98.945087 84.130781 97.350129 84.130781 L 38.116536 84.130781 z M 38.117053 84.631009 L 97.349612 84.631009 C 98.676219 84.631009 99.728278 85.683069 99.728278 87.009675 L 99.728278 116.86935 C 99.728278 118.19596 98.676218 119.24802 97.349612 119.24802 L 38.117053 119.24802 C 36.790447 119.24802 35.738387 118.19596 35.738387 116.86935 L 35.738387 87.009675 C 35.738387 85.683069 36.790447 84.631009 38.117053 84.631009 z " />
    <path
       id="path62"
       style="fill:#000000;fill-opacity:1;stroke:none;stroke-width:0.264583;filter:url(#filter62)"
       d="m 121.13525,114.8783 -0.85667,0.19564 -0.46596,2.01688 0.0821,0.36515 0.60821,1.21643 -1.40156,1.11733 -1.05032,-0.86349 -0.33761,-0.16128 -2.07025,0.006 -0.38106,0.79165 1.28628,1.62189 0.33647,0.16356 1.33029,0.28281 v 1.79255 l -1.33029,0.28282 -0.33647,0.16327 -1.28628,1.62218 0.38106,0.79164 2.07025,0.005 0.33761,-0.161 1.05032,-0.86376 1.40156,1.11761 -0.60821,1.21643 -0.0821,0.36487 0.46596,2.01687 0.85667,0.19564 1.29507,-1.61509 0.0846,-0.3643 -0.0204,-1.35982 1.74769,-0.39894 0.57159,1.23403 0.23425,0.29161 1.86752,0.8933 0.68715,-0.54802 -0.45517,-2.01943 -0.23226,-0.29332 -1.07588,-0.83196 0.77773,-1.6148 1.3212,0.32228 0.37424,-0.002 1.86241,-0.90324 v -0.87853 l -1.86241,-0.90324 -0.37424,-0.001 -1.3212,0.32227 -0.77773,-1.61508 1.07588,-0.83197 0.23226,-0.29331 0.45517,-2.01943 -0.68715,-0.54773 -1.86752,0.89301 -0.23425,0.2919 -0.57159,1.23374 -1.74769,-0.39866 0.0204,-1.35982 -0.0846,-0.36458 z m 1.29507,4.94067 a 2.7077685,2.7077685 0 0 1 2.70772,2.70771 2.7077685,2.7077685 0 0 1 -2.70772,2.708 2.7077685,2.7077685 0 0 1 -2.70771,-2.708 2.7077685,2.7077685 0 0 1 2.70771,-2.70771 z" />
    <path
       id="path61"
       style="fill:#f9f9f9;fill-opacity:1;stroke:#000000;stroke-width:0.264583"
       d="m 121.13525,114.8783 -0.85667,0.19564 -0.46596,2.01688 0.0821,0.36515 0.60821,1.21643 -1.40156,1.11733 -1.05032,-0.86349 -0.33761,-0.16128 -2.07025,0.006 -0.38106,0.79165 1.28628,1.62189 0.33647,0.16356 1.33029,0.28281 v 1.79255 l -1.33029,0.28282 -0.33647,0.16327 -1.28628,1.62218 0.38106,0.79164 2.07025,0.005 0.33761,-0.161 1.05032,-0.86376 1.40156,1.11761 -0.60821,1.21643 -0.0821,0.36487 0.46596,2.01687 0.85667,0.19564 1.29507,-1.61509 0.0846,-0.3643 -0.0204,-1.35982 1.74769,-0.39894 0.57159,1.23403 0.23425,0.29161 1.86752,0.8933 0.68715,-0.54802 -0.45517,-2.01943 -0.23226,-0.29332 -1.07588,-0.83196 0.77773,-1.6148 1.3212,0.32228 0.37424,-0.002 1.86241,-0.90324 v -0.87853 l -1.86241,-0.90324 -0.37424,-0.001 -1.3212,0.32227 -0.77773,-1.61508 1.07588,-0.83197 0.23226,-0.29331 0.45517,-2.01943 -0.68715,-0.54773 -1.86752,0.89301 -0.23425,0.2919 -0.57159,1.23374 -1.74769,-0.39866 0.0204,-1.35982 -0.0846,-0.36458 z m 1.29507,4.94067 a 2.7077685,2.7077685 0 0 1 2.70772,2.70771 2.7077685,2.7077685 0 0 1 -2.70772,2.708 2.7077685,2.7077685 0 0 1 -2.70771,-2.708 2.7077685,2.7077685 0 0 1 2.70771,-2.70771 z" />
  </g>
  <g
     inkscape:groupmode="layer"
     id="layer3"
     inkscape:label="profile-gear">
    <ellipse
       style="mix-blend-mode:multiply;fill:url(#linearGradient4);stroke-width:1.05833;stroke-linecap:round;stroke-linejoin:round;stroke-dashoffset:149.514;paint-order:markers stroke fill;stroke:url(#linearGradient6)"
       id="path1"
       cx="67.73333"
       cy="58.542313"
       rx="43.059258"
       ry="15.541028" />
    <path
       id="path4"
       style="display:none;fill:#7d7d7d;fill-opacity:1;stroke:#000000;stroke-width:0.264583"
       d="M 65.37585,-3.4881062e-7 60.93219,9.3208777 60.8645,11.481986 l 1.38648,6.465755 -8.7173,3.610633 -3.59151,-5.552116 -1.57614,-1.480013 -9.73273,-3.448885 -3.33417,3.333646 3.44889,9.733256 1.48001,1.575615 5.55263,3.591512 -3.61115,8.717814 -6.46575,-1.386479 -2.16059,0.0677 -9.32088,4.443656 v 4.714437 l 9.32088,4.44366 2.16059,0.0677 6.46575,-1.38648 3.61115,8.71781 -5.55263,3.59151 -1.48001,1.57562 -3.44889,9.73325 3.33417,3.33365 9.73273,-3.44888 1.57614,-1.48002 3.59151,-5.55211 8.7173,3.61063 -1.38648,6.46575 0.06769,2.16111 4.44366,9.32088 h 4.71496 l 4.44314,-9.32088 0.06821,-2.16111 -1.38648,-6.46575 8.7173,-3.61063 3.59151,5.55211 1.57613,1.48002 9.73274,3.44888 3.33365,-3.33365 -3.44889,-9.73325 -1.47949,-1.57562 -5.55264,-3.59151 3.61115,-8.71781 6.46576,1.38648 2.16059,-0.0677 9.32088,-4.44366 V 41.15408 l -9.32088,-4.443656 -2.16059,-0.0677 -6.46576,1.386479 -3.61115,-8.717814 5.55264,-3.591512 1.47949,-1.575615 3.44889,-9.733256 -3.33365,-3.333646 -9.73274,3.448885 -1.57613,1.480013 -3.59151,5.552116 -8.7173,-3.610633 1.38648,-6.465755 L 74.53395,9.3208777 70.09081,-3.4881062e-7 Z M 67.73333,29.821952 a 13.689485,13.689485 0 0 1 13.6896,13.689091 13.689485,13.689485 0 0 1 -13.6896,13.6896 13.689485,13.689485 0 0 1 -13.68961,-13.6896 13.689485,13.689485 0 0 1 13.68961,-13.689091 z" />
    <ellipse
       style="mix-blend-mode:multiply;fill:url(#linearGradient4);stroke-width:1.05833;stroke-linecap:round;stroke-linejoin:round;stroke-dashoffset:149.514;paint-order:markers stroke fill;stroke:url(#linearGradient6)"
       id="ellipse6"
       cx="67.73333"
       cy="58.542313"
       rx="43.059258"
       ry="15.541028" />
    <path
       id="path17"
       style="display:inline;mix-blend-mode:normal;fill:url(#radialGradient17);stroke:#000000;stroke-width:0.264583"
       d="m 65.15002,6.35 -4.44365,9.320881 -0.0677,2.161109 1.38648,6.465755 -8.7173,3.610633 -3.59151,-5.552116 -1.57613,-1.480013 -9.73274,-3.448885 -3.33416,3.333646 3.44888,9.733256 1.48001,1.575615 5.55264,3.591512 -3.61115,8.717814 -6.46576,-1.386479 -2.16059,0.0677 -8.86922,4.228166 v 5.145422 l 8.86922,4.228166 2.16059,0.0677 6.46576,-1.386479 3.61115,8.717814 -5.55264,3.591512 -1.48001,1.575615 -0.24339,0.68678 a 43.059258,15.541028 0 0 0 14.21928,3.151228 l 0.80977,-1.25212 4.40077,1.822628 a 43.059258,15.541028 0 0 0 9.79888,0.446484 43.059258,15.541028 0 0 0 9.69192,-0.402042 l 4.50773,-1.86707 0.83251,1.286744 a 43.059258,15.541028 0 0 0 14.20688,-3.154847 l -0.25424,-0.717785 -1.4795,-1.575615 -5.55263,-3.591512 3.61115,-8.717814 6.46575,1.386479 2.16059,-0.0677 9.32088,-4.443656 v -4.714441 l -9.32088,-4.443657 -2.16059,-0.0677 -6.46575,1.386479 -3.61115,-8.717814 5.55263,-3.591512 1.4795,-1.575615 3.44888,-9.733256 -3.33365,-3.333646 -9.73273,3.448885 -1.57614,1.480013 -3.59151,5.552116 L 72.98986,24.297745 74.37633,17.83199 74.30812,15.670881 69.86498,6.35 Z M 67.5075,36.171956 A 13.689485,13.689485 0 0 1 81.19711,49.861043 13.689485,13.689485 0 0 1 67.5075,63.550646 13.689485,13.689485 0 0 1 53.8179,49.861043 13.689485,13.689485 0 0 1 67.5075,36.171956 Z" />
  </g>
  <g
     inkscape:groupmode="layer"
     id="layer2"
     inkscape:label="profile"
     style="display:none">
    <path
       style="color:#000000;display:inline;fill:url(#linearGradient2);stroke-linecap:round;stroke-linejoin:round;stroke-dashoffset:149.514;-inkscape-stroke:none;paint-order:markers stroke fill;filter:url(#filter61)"
       d="M 98.470526,40.756308 A 30.737194,26.840693 0 0 1 67.733332,67.597 30.737194,26.840693 0 0 1 36.996138,40.756308 30.737194,26.840693 0 0 1 67.733332,13.915615 30.737194,26.840693 0 0 1 98.470526,40.756308 Z"
       id="path3" />
    <path
       id="path2"
       style="color:#000000;display:inline;mix-blend-mode:multiply;fill:#adadad;fill-opacity:1;stroke-linecap:round;stroke-linejoin:round;stroke-dashoffset:149.514;-inkscape-stroke:none;paint-order:markers stroke fill"
       d="m 55.14392,14.57172 c -11.551705,4.303345 -19.735746,14.351061 -19.735746,26.184965 0,0.576067 0.02533,1.14644 0.06356,1.71359 0.01119,0.165522 0.02849,0.32932 0.04289,0.494027 0.03549,0.407366 0.07961,0.812224 0.134358,1.214396 0.02438,0.178601 0.04939,0.356812 0.07751,0.534334 0.06987,0.442268 0.151761,0.880919 0.24443,1.316199 0.02237,0.104798 0.0404,0.210851 0.06408,0.315226 0.128282,0.567077 0.274348,1.128058 0.440284,1.682068 0.0027,0.009 0.0061,0.01784 0.0088,0.02687 0.1608,0.534705 0.342709,1.061295 0.537434,1.582849 0.03367,0.09002 0.06921,0.179108 0.10387,0.268718 0.180839,0.468361 0.37499,0.93071 0.582393,1.387512 0.0295,0.06488 0.05783,0.130181 0.08785,0.19482 0.496068,1.069412 1.061663,2.106037 1.696021,3.10472 5.546274,8.731621 16.165676,14.592391 28.240653,14.592391 12.075255,0 22.695941,-5.860953 28.24272,-14.592908 4.1e-4,-6.45e-4 6.24e-4,-0.0014 0.001,-0.0021 0.631866,-0.994892 1.195693,-2.027232 1.690336,-3.092318 0.03418,-0.07351 0.06624,-0.147869 0.09974,-0.221691 0.202229,-0.446196 0.391545,-0.89774 0.568441,-1.354956 0.03813,-0.09838 0.07727,-0.196204 0.114205,-0.295073 0.190371,-0.51053 0.367671,-1.026129 0.525549,-1.549259 0.0057,-0.01879 0.01296,-0.03701 0.0186,-0.05581 0.165191,-0.551971 0.310918,-1.110929 0.438733,-1.675867 0.02363,-0.104191 0.04174,-0.210096 0.06408,-0.314709 0.09287,-0.436128 0.174965,-0.87564 0.244947,-1.318783 0.02795,-0.176484 0.05275,-0.353684 0.077,-0.531233 0.05484,-0.402675 0.09882,-0.808065 0.134358,-1.215947 0.01438,-0.16456 0.03171,-0.328136 0.04289,-0.49351 0.03823,-0.56715 0.06356,-1.137523 0.06356,-1.71359 0,-11.8214 -8.168812,-21.859574 -19.701747,-26.170495 a 16.753206,21.402637 0 0 1 2.360063,4.503084 c 8.51587,4.431995 14.165543,12.517681 14.165543,21.667411 0,0.525392 -0.02412,1.045906 -0.06098,1.563729 -0.0096,0.135901 -0.02354,0.270833 -0.03566,0.406176 -0.03639,0.404918 -0.08325,0.807597 -0.141593,1.207162 -0.01752,0.120439 -0.03323,0.24129 -0.05271,0.361218 -0.169678,1.040931 -0.411158,2.062713 -0.72347,3.060278 -0.02169,0.06945 -0.04586,0.138001 -0.06821,0.207223 -0.149153,0.460692 -0.31122,0.916378 -0.489376,1.366325 -0.01723,0.04362 -0.03314,0.08775 -0.05064,0.131258 -0.409998,1.017213 -0.892196,2.005893 -1.442806,2.960543 -0.004,0.007 -0.0078,0.01418 -0.01188,0.02119 -0.27775,0.480448 -0.572367,0.952692 -0.883667,1.415417 -6.94e-4,0.001 -0.0014,0.0021 -0.0021,0.0031 -5.032663,7.478107 -14.373401,12.550138 -25.187093,12.550138 -10.813615,0 -20.153467,-5.072118 -25.185543,-12.550138 -0.312032,-0.463718 -0.607383,-0.936998 -0.885734,-1.418518 -0.004,-0.007 -0.0078,-0.01418 -0.01188,-0.02119 -0.55057,-0.954648 -1.032287,-1.943332 -1.442289,-2.960543 -0.01764,-0.04387 -0.03379,-0.08832 -0.05116,-0.132292 -0.177196,-0.447581 -0.338803,-0.900875 -0.487309,-1.35909 -0.02336,-0.07227 -0.04817,-0.144006 -0.0708,-0.216524 -0.311049,-0.993959 -0.551934,-2.011895 -0.721403,-3.04891 -0.02044,-0.125575 -0.037,-0.252136 -0.05529,-0.378271 -0.05739,-0.394127 -0.103486,-0.791292 -0.139527,-1.190625 -0.01264,-0.140664 -0.02673,-0.280929 -0.03669,-0.422197 -0.03647,-0.51513 -0.06098,-1.032842 -0.06098,-1.55546 0,-9.174252 5.680246,-17.277831 14.233756,-21.702034 A 16.753206,21.402637 0 0 1 55.14392,14.57172 Z" />
    <path
       id="path9"
       style="display:inline;opacity:1;fill:url(#linearGradient34);fill-opacity:1;stroke:none;stroke-width:3.175;stroke-linecap:round;stroke-linejoin:round;stroke-dasharray:none;stroke-dashoffset:149.514;paint-order:markers stroke fill"
       d="m 67.734313,7.2386498 c -4.827521,0.013049 -9.415997,2.6858616 -12.589412,7.3334022 -0.342434,0.523299 -0.66509,1.067212 -0.966866,1.629875 -0.14257,0.248508 -0.280923,0.50092 -0.414962,0.75706 -0.345136,0.674552 -0.660175,1.373469 -0.943612,2.093412 l -10e-4,0.0026 c -1.188608,2.969019 -1.817698,6.251793 -1.837097,9.586494 0.0036,7.57808 3.143624,14.588796 8.255826,18.432467 v 3.311942 c -6.283643,0.50791 -12.046315,1.569586 -16.68942,3.074748 5.032071,7.478013 14.371938,12.550138 25.185543,12.550138 10.813681,0 20.154434,-5.072038 25.187092,-12.550138 C 88.277623,51.955327 82.515123,50.893472 76.231502,50.385386 V 47.07396 C 81.343704,43.230289 84.483775,36.219573 84.487328,28.641493 84.484728,25.325415 83.878987,22.05547 82.717927,19.089622 82.401118,18.27915 82.04435,17.495191 81.649776,16.742478 81.25529,15.989624 80.823785,15.269529 80.357865,14.586538 77.178711,9.9221803 72.575572,7.2427943 67.734346,7.2386658 Z"
       sodipodi:nodetypes="cccccsccccscccccccc" />
    <path
       id="path28"
       clip-path="url(#clipPath29)"
       style="color:#000000;display:inline;opacity:0.4;fill:#000000;stroke-linecap:round;stroke-linejoin:round;stroke-dashoffset:149.514;-inkscape-stroke:none;paint-order:markers stroke fill;filter:url(#filter30)"
       transform="translate(-138.52902,-21.398973)"
       d="m 206.25822,27.049791 c -5.41075,0.01462 -10.47882,3.02338 -13.89424,8.02535 -0.006,0.0091 -0.0118,0.0182 -0.0176,0.02739 -0.35998,0.550112 -0.69906,1.120779 -1.01596,1.70894 -0.15287,0.266452 -0.30199,0.536142 -0.44545,0.810286 -0.002,0.0046 -0.004,0.0093 -0.006,0.01395 -0.36832,0.719857 -0.7047,1.463145 -1.00614,2.228288 -5.3e-4,0.0013 -0.001,0.0028 -0.002,0.0041 -2.2e-4,5.57e-4 2.2e-4,0.0015 0,0.0021 -0.001,0.0038 -0.003,0.0076 -0.004,0.01137 -1.2624,3.159846 -1.92513,6.628863 -1.94562,10.150801 -1e-5,0.0033 -1e-5,0.0065 0,0.0098 0.004,7.677151 3.07877,14.773779 8.25583,19.068086 v 1.281059 c -5.7924,0.556485 -11.17509,1.525664 -15.59182,2.957442 -1.00272,0.326317 -1.41459,1.521452 -0.82579,2.396236 l 4.22869,0.02739 c 4.0661,-1.107432 8.71746,-1.98506 13.90664,-2.404505 0.82472,-0.06714 1.45959,-0.756435 1.45883,-1.583882 v -3.310393 c 3.4e-4,-0.499218 -0.23414,-0.969523 -0.63304,-1.26969 -4.61785,-3.472461 -7.61596,-10.017828 -7.62213,-17.153971 v -0.0062 -0.0036 c 0.0195,-3.137732 0.61315,-6.225634 1.72238,-8.99635 0.001,-0.004 0.003,-0.0079 0.004,-0.01188 l 0.004,-0.0078 0.002,-0.0036 c 0.26357,-0.668343 0.55581,-1.315818 0.87488,-1.939416 0.12232,-0.233321 0.24911,-0.463841 0.37879,-0.689881 0.007,-0.0135 0.0147,-0.02711 0.0217,-0.04082 0.27748,-0.517354 0.57381,-1.01474 0.88676,-1.493966 2.92944,-4.284074 7.03062,-6.61735 11.26908,-6.631119 h 5.2e-4 c 0.001,0 0.003,-2e-6 0.004,0 h 0.002 c 4.25426,0.0058 8.37128,2.347485 11.3068,6.654374 0.43032,0.630815 0.83059,1.298409 1.19734,1.998327 0.36683,0.69978 0.70026,1.431634 0.99632,2.189014 1.08499,2.771538 1.6574,5.851079 1.65985,8.974646 -0.004,7.13922 -3.00101,13.688486 -7.62124,17.162259 -0.39948,0.299843 -0.63456,0.7702 -0.63459,1.26969 v 3.310393 c 1.3e-4,0.827586 0.63596,1.516258 1.4609,1.582332 5.18822,0.419514 9.83711,1.296737 13.90251,2.403988 l 4.22971,-0.02537 c 0.58739,-0.874512 0.17578,-2.068115 -0.82579,-2.394686 -4.41687,-1.432077 -9.7988,-2.402379 -15.59181,-2.958992 v -1.278992 c 5.17825,-4.294121 8.25223,-11.392549 8.25583,-19.07067 v -5.17e-4 -5.17e-4 -5.17e-4 c -0.003,-3.507933 -0.64228,-6.96942 -1.87896,-10.129097 v -0.0021 c -0.3374,-0.862875 -0.71846,-1.6986 -1.1405,-2.503723 -0.42223,-0.805787 -0.88548,-1.579423 -1.38699,-2.314587 -3.42145,-5.019842 -8.50743,-8.036226 -13.93352,-8.040853 l 0.69143,0.160197 c -0.21716,-0.10573 -0.45558,-0.160519 -0.69711,-0.160197 z"
       sodipodi:nodetypes="ccccccccccsccccccccccsccccccccccsssscccccccccccccsccscccccccc" />
  </g>
</svg>
