<?xml version="1.0" encoding="UTF-8" standalone="no"?>
<!-- Created with Inkscape (http://www.inkscape.org/) -->

<svg
   width="512"
   height="512"
   viewBox="0 0 135.46666 135.46667"
   version="1.1"
   id="svg5"
   inkscape:version="1.3.2 (091e20ef0f, 2023-11-25, custom)"
   sodipodi:docname="lmstudio.svg"
   xmlns:inkscape="http://www.inkscape.org/namespaces/inkscape"
   xmlns:sodipodi="http://sodipodi.sourceforge.net/DTD/sodipodi-0.dtd"
   xmlns:xlink="http://www.w3.org/1999/xlink"
   xmlns="http://www.w3.org/2000/svg"
   xmlns:svg="http://www.w3.org/2000/svg">
  <sodipodi:namedview
     id="namedview7"
     pagecolor="#242424"
     bordercolor="#666666"
     borderopacity="1"
     inkscape:showpageshadow="0"
     inkscape:pageopacity="0"
     inkscape:pagecheckerboard="1"
     inkscape:deskcolor="#000000"
     inkscape:document-units="px"
     showgrid="false"
     inkscape:zoom="0.92187498"
     inkscape:cx="264.1356"
     inkscape:cy="241.89831"
     inkscape:window-width="3252"
     inkscape:window-height="1076"
     inkscape:window-x="1864"
     inkscape:window-y="0"
     inkscape:window-maximized="1"
     inkscape:current-layer="layer2" />
  <defs
     id="defs2">
    <linearGradient
       id="linearGradient69"
       inkscape:collect="always">
      <stop
         style="stop-color:#000000;stop-opacity:1;"
         offset="0"
         id="stop70" />
      <stop
         style="stop-color:#22002b;stop-opacity:0;"
         offset="1"
         id="stop69" />
    </linearGradient>
    <linearGradient
       id="linearGradient26"
       inkscape:collect="always">
      <stop
         style="stop-color:#c6afe9;stop-opacity:0;"
         offset="0"
         id="stop27" />
      <stop
         style="stop-color:#c6afe9;stop-opacity:1;"
         offset="1"
         id="stop26" />
    </linearGradient>
    <linearGradient
       id="linearGradient24"
       inkscape:collect="always">
      <stop
         style="stop-color:#c6afe9;stop-opacity:0;"
         offset="0"
         id="stop25" />
      <stop
         style="stop-color:#c6afe9;stop-opacity:1;"
         offset="1"
         id="stop24" />
    </linearGradient>
    <linearGradient
       id="linearGradient22"
       inkscape:collect="always">
      <stop
         style="stop-color:#c6afe9;stop-opacity:0;"
         offset="0"
         id="stop23" />
      <stop
         style="stop-color:#c6afe9;stop-opacity:1;"
         offset="1"
         id="stop22" />
    </linearGradient>
    <linearGradient
       id="linearGradient20"
       inkscape:collect="always">
      <stop
         style="stop-color:#c6afe9;stop-opacity:0;"
         offset="0"
         id="stop21" />
      <stop
         style="stop-color:#c6afe9;stop-opacity:1;"
         offset="1"
         id="stop20" />
    </linearGradient>
    <linearGradient
       id="linearGradient18"
       inkscape:collect="always">
      <stop
         style="stop-color:#c6afe9;stop-opacity:0;"
         offset="0"
         id="stop19" />
      <stop
         style="stop-color:#c6afe9;stop-opacity:1;"
         offset="1"
         id="stop18" />
    </linearGradient>
    <linearGradient
       id="linearGradient16"
       inkscape:collect="always">
      <stop
         style="stop-color:#c6afe9;stop-opacity:0;"
         offset="0"
         id="stop17" />
      <stop
         style="stop-color:#c6afe9;stop-opacity:1;"
         offset="1"
         id="stop16" />
    </linearGradient>
    <linearGradient
       id="linearGradient7"
       inkscape:collect="always">
      <stop
         style="stop-color:#6200ff;stop-opacity:1;"
         offset="0"
         id="stop7" />
      <stop
         style="stop-color:#460080;stop-opacity:1;"
         offset="1"
         id="stop8" />
    </linearGradient>
    <linearGradient
       inkscape:collect="always"
       xlink:href="#linearGradient7"
       id="linearGradient8"
       x1="0"
       y1="67.73333"
       x2="135.46666"
       y2="67.73333"
       gradientUnits="userSpaceOnUse" />
    <linearGradient
       inkscape:collect="always"
       xlink:href="#linearGradient16"
       id="linearGradient17"
       x1="74.377188"
       y1="18.785481"
       x2="98.886795"
       y2="18.785481"
       gradientUnits="userSpaceOnUse" />
    <linearGradient
       inkscape:collect="always"
       xlink:href="#linearGradient18"
       id="linearGradient19"
       x1="101.81531"
       y1="38.364651"
       x2="126.32492"
       y2="38.364651"
       gradientUnits="userSpaceOnUse" />
    <linearGradient
       inkscape:collect="always"
       xlink:href="#linearGradient20"
       id="linearGradient21"
       x1="85.940312"
       y1="57.943818"
       x2="110.44992"
       y2="57.943818"
       gradientUnits="userSpaceOnUse" />
    <linearGradient
       inkscape:collect="always"
       xlink:href="#linearGradient22"
       id="linearGradient23"
       x1="74.377188"
       y1="77.522985"
       x2="98.886795"
       y2="77.522985"
       gradientUnits="userSpaceOnUse" />
    <linearGradient
       inkscape:collect="always"
       xlink:href="#linearGradient24"
       id="linearGradient25"
       x1="85.940312"
       y1="97.102153"
       x2="110.44992"
       y2="97.102153"
       gradientUnits="userSpaceOnUse" />
    <linearGradient
       inkscape:collect="always"
       xlink:href="#linearGradient26"
       id="linearGradient27"
       x1="101.81531"
       y1="116.68132"
       x2="126.32492"
       y2="116.68132"
       gradientUnits="userSpaceOnUse" />
    <filter
       inkscape:collect="always"
       style="color-interpolation-filters:sRGB"
       id="filter28"
       x="-0.069118882"
       y="-0.069121116"
       width="1.1382378"
       height="1.1382422">
      <feGaussianBlur
         inkscape:collect="always"
         stdDeviation="3.6348087"
         id="feGaussianBlur28" />
    </filter>
    <clipPath
       clipPathUnits="userSpaceOnUse"
       id="clipPath28">
      <rect
         style="fill:url(#linearGradient29);fill-opacity:1;stroke:none;stroke-width:5.82081;stroke-linecap:round;stroke-linejoin:round;stroke-dasharray:none;stroke-opacity:1;paint-order:markers stroke fill"
         id="rect29"
         width="135.46666"
         height="135.46666"
         x="0"
         y="0"
         ry="26.843813" />
    </clipPath>
    <linearGradient
       inkscape:collect="always"
       xlink:href="#linearGradient7"
       id="linearGradient29"
       gradientUnits="userSpaceOnUse"
       x1="0"
       y1="67.73333"
       x2="135.46666"
       y2="67.73333" />
    <filter
       inkscape:collect="always"
       style="color-interpolation-filters:sRGB"
       id="filter35"
       x="-0.018208135"
       y="-0.016441898"
       width="1.0364163"
       height="1.0328838">
      <feGaussianBlur
         inkscape:collect="always"
         stdDeviation="0.74332014"
         id="feGaussianBlur35" />
    </filter>
    <filter
       inkscape:collect="always"
       style="color-interpolation-filters:sRGB"
       id="filter40"
       x="-0.10409232"
       y="-0.049836786"
       width="1.2081846"
       height="1.0996736">
      <feGaussianBlur
         inkscape:collect="always"
         stdDeviation="2.2530667"
         id="feGaussianBlur40" />
    </filter>
    <radialGradient
       inkscape:collect="always"
       xlink:href="#linearGradient69"
       id="radialGradient70"
       cx="199.23799"
       cy="46.302151"
       fx="199.23799"
       fy="46.302151"
       r="26.458332"
       gradientUnits="userSpaceOnUse"
       gradientTransform="translate(-16.250415,70.102413)" />
  </defs>
  <g
     inkscape:label="Layer 1"
     inkscape:groupmode="layer"
     id="layer1"
     style="display:none">
    <path
       id="path1"
       style="fill:#b3b3b3;stroke:none;stroke-width:0.264583"
       d="M 66.185504,8.4645775 63.439162,6.5681768 58.431831,9.6253474 56.95318,11.311463 55.57935,13.963915 49.986148,11.72775 50.819447,8.8609216 50.910628,6.6181968 49.389388,0.95184654 46.092481,0.43307137 42.906785,5.3608553 42.305138,7.5229367 42.21976,10.506586 36.209009,10.919738 35.716991,7.9748421 34.823814,5.9158315 30.995815,1.4707568 l -3.194421,0.9636786 -0.732248,5.8215852 0.395139,2.2078504 1.218664,2.726358 -5.236299,2.980962 -1.722667,-2.440881 -1.695563,-1.467846 -5.378607,-2.3446307 -2.460746,2.2548587 1.866929,5.562489 1.313308,1.818121 2.281448,1.92885 -3.424823,4.955496 -2.610939,-1.450574 -2.1638408,-0.587135 -5.8632488,0.222076 -1.2395961,3.099348 4.0945228,4.200851 1.9745047,1.06816 2.8908032,0.746812 -0.935451,5.951865 -2.9809031,-0.173913 -2.205125,0.40985 -5.186680757189,2.744088 0.229452317189,3.329577 5.51220474,2.009305 2.2409663,0.105711 2.9297165,-0.581343 1.73901,5.767883 -2.760931,1.136357 -1.8097433,1.327143 -3.4819442,4.721815 1.6509881,2.900111 5.8374084,-0.581191 2.065052,-0.877206 2.387902,-1.794547 4.070527,4.442201 -1.995837,2.222412 -1.054919,1.979572 -1.087741,5.764532 2.746248,1.898643 5.007322,-3.05716 1.479824,-1.687187 1.371592,-2.652553 5.595439,2.236263 -0.83447,2.867902 -0.09001,2.241653 1.521238,5.666349 3.295836,0.517601 3.185696,-4.927779 0.601551,-2.159841 0.08548,-2.985893 6.010751,-0.413147 0.49309,2.946062 0.890934,2.058915 3.829071,4.446242 3.19559,-0.964754 0.732246,-5.821584 -0.397383,-2.207949 -1.217491,-2.727427 5.236204,-2.978718 1.721592,2.439703 1.697811,1.467934 5.377543,2.34347 2.460745,-2.254859 -1.865865,-5.561326 -1.315553,-1.818211 -2.280375,-1.927672 3.424917,-4.957739 2.609768,1.45164 2.166083,0.587234 5.86325,-0.222074 1.238426,-3.098274 -4.095599,-4.202013 -1.972258,-1.068064 -2.891878,-0.747977 0.935448,-5.951872 2.980811,0.176157 2.205216,-0.412091 5.186684,-2.744089 -0.228384,-3.328404 -5.512201,-2.009306 -2.242139,-0.104624 -2.928548,0.580266 -1.741244,-5.767978 2.763167,-1.13626 1.80857,-1.326069 3.481952,-4.721828 -1.650897,-2.902345 -5.838579,0.58227 -2.063974,0.878366 -2.386736,1.793481 -4.07053,-4.442202 1.994675,-2.221344 1.05384,-1.980734 z M 47.314023,45.007712 c 3.029004,3.305579 2.804798,8.440775 -0.500782,11.46978 -3.305579,3.029003 -8.440773,2.804795 -11.469776,-0.500782 -3.029005,-3.30558 -2.804799,-8.440774 0.500777,-11.46978 3.305579,-3.029006 8.440775,-2.804798 11.469781,0.500782 z"
       sodipodi:nodetypes="cccccccccccccccccccccccccccccccccccccccccccccccccccccccccccccccccccccccccccccccccccccccccccccccccccccccccccccccccsssss" />
    <path
       id="path2"
       style="fill:#b3b3b3;stroke:none;stroke-width:0.264583"
       d="m 107.91697,55.3359 -3.18949,-0.982791 -3.85626,4.421415 -0.903178,2.052713 -0.512634,2.942809 -6.006763,-0.450762 -0.06734,-2.98472 -0.587428,-2.166343 -3.154742,-4.946652 -3.300314,0.496637 -1.556441,5.657667 0.07635,2.242931 0.815772,2.871234 -5.608318,2.201498 -1.354794,-2.660646 -1.470994,-1.695129 -4.98749,-3.088242 -2.75679,1.879659 1.052227,5.772336 1.040765,1.986843 1.982093,2.233715 -4.097557,4.417579 -2.37692,-1.809892 -2.05848,-0.890044 -5.834716,-0.618734 -1.668805,2.890456 3.453199,4.743644 1.799241,1.339056 2.755871,1.15353 -1.776163,5.756006 -2.926296,-0.598311 -2.240247,0.09071 -5.525101,1.974911 -0.25023,3.328655 5.168239,2.775172 2.204319,0.424978 2.98158,-0.157034 0.897608,5.957686 -2.895239,0.73049 -1.979821,1.05399 -4.12146,4.17674 1.220056,3.10649 5.861298,0.25875 2.169027,-0.57307 2.61931,-1.43542 3.392962,4.97801 -2.291446,1.91399 -1.326895,1.80992 -1.900927,5.55032 2.446661,2.26942 5.39247,-2.30963 1.705706,-1.45758 1.737744,-2.42956 5.217933,3.01258 -1.235181,2.71971 -0.410821,2.20517 0.696015,5.82483 3.190077,0.98496 3.856258,-4.42142 0.903998,-2.05408 0.51047,-2.94223 6.008924,0.45018 0.06655,2.98611 0.58823,2.16495 3.154742,4.94666 3.298936,-0.49743 1.55641,-5.65766 -0.0758,-2.24079 -0.81634,-2.87339 5.6083,-2.2015 1.35617,2.66145 1.46882,1.6957 4.98888,3.08902 2.75757,-1.88102 -1.05223,-5.77233 -1.04293,-1.98626 -1.98131,-2.23509 4.09814,-4.41543 2.37555,1.80911 2.06066,0.88944 5.83333,0.61796 1.66882,-2.89047 -3.45183,-4.74285 -1.80142,-1.33846 -2.7545,-1.15275 1.77558,-5.75815 2.92551,0.59968 2.24241,-0.0912 5.52509,-1.974906 0.24946,-3.327275 -5.16962,-2.775967 -2.20214,-0.425561 -2.98296,0.156247 -0.8976,-5.957692 2.89581,-0.728352 1.97923,-1.056135 4.12151,-4.176711 -1.21868,-3.105689 -5.86129,-0.258751 -2.16983,0.57444 -2.61853,1.43403 -3.39511,-4.977412 2.2936,-1.914569 1.32609,-1.808551 1.90093,-5.550326 -2.44723,-2.271582 -5.39328,2.31102 -1.7043,1.458363 -1.73696,2.428182 -5.21793,-3.012572 1.23439,-2.718339 0.40945,-2.205962 z m -0.72399,31.954464 c 3.88283,2.241758 5.21316,7.206695 2.97142,11.089516 -2.24174,3.88279 -7.20669,5.21314 -11.089476,2.97142 -3.882835,-2.241742 -5.213197,-7.206687 -2.971446,-11.089512 2.241753,-3.882825 7.206682,-5.21318 11.089502,-2.971424 z"
       sodipodi:nodetypes="cccccccccccccccccccccccccccccccccccccccccccccccccccccccccccccccccccccccccccccccccccccccccccccccccccccccccccccccccsssss" />
    <path
       style="color:#000000;fill:#999999;stroke-linecap:round;stroke-linejoin:round;-inkscape-stroke:none;paint-order:markers stroke fill"
       d="m 41.328125,16.185547 c -13.948313,0 -25.318359,11.370046 -25.318359,25.318359 0,13.948314 11.370046,25.316406 25.318359,25.316406 13.948313,0 25.318359,-11.368092 25.318359,-25.316406 0,-13.948313 -11.370046,-25.318359 -25.318359,-25.318359 z m 0,5.820312 c 10.802507,0 19.498047,8.695541 19.498047,19.498047 C 60.826172,52.306413 52.130632,61 41.328125,61 30.525618,61 21.832031,52.306413 21.832031,41.503906 c 0,-10.802506 8.693587,-19.498047 19.496094,-19.498047 z"
       id="path3" />
    <path
       style="color:#000000;fill:#999999;stroke-linecap:round;stroke-linejoin:round;-inkscape-stroke:none;paint-order:markers stroke fill"
       d="m 94.146484,69.001953 c -13.948313,0 -25.318359,11.370046 -25.318359,25.318359 0,13.948318 11.370046,25.318358 25.318359,25.318358 13.948316,0 25.318356,-11.37004 25.318356,-25.318358 0,-13.948313 -11.37004,-25.318359 -25.318356,-25.318359 z m 0,5.820313 c 10.802506,0 19.496096,8.69554 19.496096,19.498046 0,10.802508 -8.69359,19.498048 -19.496096,19.498048 -10.802506,0 -19.498047,-8.69554 -19.498047,-19.498048 0,-10.802506 8.695541,-19.498046 19.498047,-19.498046 z"
       id="circle3" />
    <path
       id="path4"
       style="fill:#ff0000;fill-opacity:1;stroke:none;stroke-width:5.82082;stroke-linecap:round;stroke-linejoin:round;stroke-dasharray:none;stroke-opacity:1;paint-order:markers stroke fill"
       d="m 109.98387,31.256365 c -4.54565,0.992135 -16.502375,6.551673 -15.80912,19.620642 3.841442,-8.358913 8.61445,-11.186095 12.56321,-9.850435 -0.4591,3.954437 1.26418,7.846492 4.50059,10.164674 4.92684,3.50731 11.7641,2.356343 15.27112,-2.570706 3.50696,-4.926838 2.56662,-11.613663 -2.57101,-15.270691 -5.13764,-3.657028 -9.40916,-3.085624 -13.95479,-2.093484 z"
       sodipodi:nodetypes="zcccczz" />
    <path
       id="path5"
       style="fill:#ff0000;fill-opacity:1;stroke:none;stroke-width:5.82082;stroke-linecap:round;stroke-linejoin:round;stroke-dasharray:none;stroke-opacity:1;paint-order:markers stroke fill"
       d="m 108.7603,21.023156 c -1.19708,4.496029 -7.29266,16.188575 -20.316797,14.903885 8.524382,-3.458759 11.564927,-8.098768 10.40955,-12.10399 -3.971178,0.279455 -7.781155,-1.618402 -9.950317,-4.956523 C 85.62226,13.785833 87.081837,7.0077441 92.162727,3.7275673 97.243404,0.44744084 103.88076,1.6897909 107.30124,6.9878422 c 3.42049,5.2980608 2.65614,9.5393048 1.45906,14.0353138 z"
       sodipodi:nodetypes="zcccczz" />
    <path
       id="path6"
       style="fill:#ff0000;fill-opacity:1;stroke:none;stroke-width:5.82082;stroke-linecap:round;stroke-linejoin:round;stroke-dasharray:none;stroke-opacity:1;paint-order:markers stroke fill"
       d="m 21.393481,104.53812 c 4.54565,-0.99213 16.502371,-6.55167 15.809111,-19.620639 -3.841437,8.358913 -8.614444,11.186095 -12.563201,9.850435 0.4591,-3.954437 -1.26418,-7.846492 -4.500587,-10.164674 -4.92684,-3.50731 -11.7641001,-2.356343 -15.2711201,2.570706 -3.50696,4.926838 -2.56662,11.613663 2.57101,15.270692 5.1376401,3.65703 9.4091601,3.08562 13.9547871,2.09348 z"
       sodipodi:nodetypes="zcccczz" />
    <path
       id="path7"
       style="fill:#ff0000;fill-opacity:1;stroke:none;stroke-width:5.82082;stroke-linecap:round;stroke-linejoin:round;stroke-dasharray:none;stroke-opacity:1;paint-order:markers stroke fill"
       d="m 22.617051,114.77133 c 1.19708,-4.49603 7.292657,-16.188573 20.316788,-14.903883 -8.524374,3.458763 -11.564921,8.098773 -10.409544,12.103993 3.97118,-0.27946 7.781147,1.6184 9.950304,4.95652 3.28048,5.0807 1.8209,11.85878 -3.259987,15.13896 -5.080667,3.28013 -11.718024,2.03778 -15.138501,-3.26027 -3.420487,-5.29806 -2.65614,-9.53931 -1.45906,-14.03532 z"
       sodipodi:nodetypes="zcccczz" />
  </g>
  <g
     inkscape:groupmode="layer"
     id="layer2"
     inkscape:label="Layer 2"
     style="display:inline">
    <rect
       style="fill:url(#linearGradient8);stroke:none;stroke-width:5.82083;stroke-linecap:round;stroke-linejoin:round;stroke-dasharray:none;stroke-opacity:1;paint-order:markers stroke fill"
       id="rect7"
       width="135.46666"
       height="135.46666"
       x="0"
       y="0"
       ry="26.843813" />
    <g
       id="g73"
       transform="matrix(1.2374677,0.33157847,-0.33157847,1.2374677,-197.26664,-15.782468)"
       style="display:none;opacity:0.1;stroke-width:0.780567">
      <path
         id="path69"
         style="fill:#22002b;fill-opacity:1;stroke:none;stroke-width:4.54354;stroke-linecap:round;stroke-linejoin:round;stroke-dasharray:none;stroke-opacity:1;paint-order:markers stroke fill"
         d="m 231.66763,23.127717 c -4.21858,2.433683 -17.82867,12.464928 -22.60771,11.526827 1.93977,7.628298 -13.38942,8.942031 -27.14841,9.231001 12.57054,7.719286 28.35384,7.955917 41.15032,0.617286 12.70335,-7.377987 20.10342,-20.851636 20.07057,-34.9551303 z"
         sodipodi:nodetypes="cccccc" />
      <path
         id="path73"
         style="fill:#22002b;fill-opacity:1;stroke:none;stroke-width:4.54354;stroke-linecap:round;stroke-linejoin:round;stroke-dasharray:none;stroke-opacity:1;paint-order:markers stroke fill"
         d="m 201.68072,-4.2645028 c 4.21858,-2.433683 17.82867,-12.4649282 22.60771,-11.5268272 -1.93977,-7.628298 13.38942,-8.942031 27.14841,-9.231001 -12.57054,-7.719286 -28.35384,-7.955917 -41.15032,-0.617286 -12.70335,7.377987 -20.10342,20.8516362 -20.07057,34.9551302 z"
         sodipodi:nodetypes="cccccc" />
      <circle
         style="fill:#22002b;fill-opacity:1;stroke:none;stroke-width:4.54354;stroke-linecap:round;stroke-linejoin:round;stroke-dasharray:none;stroke-opacity:1;paint-order:markers stroke fill"
         id="path68"
         cx="182.98758"
         cy="116.40456"
         r="26.458332"
         transform="rotate(-30)" />
      <circle
         style="fill:url(#radialGradient70);fill-opacity:1;stroke:none;stroke-width:4.54354;stroke-linecap:round;stroke-linejoin:round;stroke-dasharray:none;stroke-opacity:1;paint-order:markers stroke fill"
         id="circle69"
         cx="182.98758"
         cy="116.40456"
         r="26.458332"
         transform="rotate(-30)" />
    </g>
    <path
       id="path66"
       style="display:inline;opacity:0.8;fill:#2f005a;fill-opacity:1;stroke-width:5.82083;stroke-linecap:round;stroke-linejoin:round;paint-order:markers stroke fill;filter:url(#filter28)"
       d="m 96.253646,0.00932693 c -23.92352,-0.0016 -47.847307,-0.04094 -71.770632,0.0653 C 19.30502,-0.14247211 14.148651,1.6105719 9.9665313,4.6245639 c -2.83175,2.022927 -5.3229,4.8172257 -6.99763,7.9498801 -1.81042,3.335044 -2.80631003,7.025105 -2.93170003,10.841496 -0.072,10.878438 -0.0147,21.759037 -0.029,32.638311 0.0209,17.35595 -0.0499,34.713868 0.0978,52.068469 0.58183,7.21869 4.70040003,14.15178 10.84493973,18.08388 -0.70462,-5.36776 -0.21374,-10.7903 -0.35947,-16.18321 0.0132,-24.076196 -0.0551,-48.153619 0.0961,-72.228962 0.72668,-11.186273 8.504968,-21.574005 19.06865,-25.356182 4.536195,-1.707922 9.449602,-2.042842 14.253672,-1.848867 26.576583,0.01299 53.154833,-0.04663 79.730317,0.08316 0.82684,0.05331 1.65141,0.141138 2.47047,0.266476 C 123.05444,6.0551199 117.92303,2.3494919 112.32591,0.83354593 108.67185,-0.22806311 104.73672,0.06086293 100.92904,6.7292719e-4 99.370566,-0.00252707 97.812106,0.00657293 96.253646,0.00937293 Z"
       clip-path="url(#clipPath28)"
       transform="rotate(180,67.733332,67.733333)" />
    <path
       id="rect27"
       style="display:inline;opacity:0.8;fill:#5f83b6;fill-opacity:1;stroke-width:5.82083;stroke-linecap:round;stroke-linejoin:round;paint-order:markers stroke fill;filter:url(#filter28)"
       d="m 96.253646,0.00932693 c -23.92352,-0.0016 -47.847307,-0.04094 -71.770632,0.0653 C 19.30502,-0.14247211 14.148651,1.6105719 9.9665313,4.6245639 c -2.83175,2.022927 -5.3229,4.8172257 -6.99763,7.9498801 -1.81042,3.335044 -2.80631003,7.025105 -2.93170003,10.841496 -0.072,10.878438 -0.0147,21.759037 -0.029,32.638311 0.0209,17.35595 -0.0499,34.713868 0.0978,52.068469 0.58183,7.21869 4.70040003,14.15178 10.84493973,18.08388 -0.70462,-5.36776 -0.21374,-10.7903 -0.35947,-16.18321 0.0132,-24.076196 -0.0551,-48.153619 0.0961,-72.228962 0.72668,-11.186273 8.504968,-21.574005 19.06865,-25.356182 4.536195,-1.707922 9.449602,-2.042842 14.253672,-1.848867 26.576583,0.01299 53.154833,-0.04663 79.730317,0.08316 0.82684,0.05331 1.65141,0.141138 2.47047,0.266476 C 123.05444,6.0551199 117.92303,2.3494919 112.32591,0.83354593 108.67185,-0.22806311 104.73672,0.06086293 100.92904,6.7292719e-4 99.370566,-0.00252707 97.812106,0.00657293 96.253646,0.00937293 Z"
       clip-path="url(#clipPath28)" />
    <g
       id="g1"
       transform="matrix(0.92101438,0,0,0.92101438,5.3500441,4.8627484)"
       style="stroke-width:1.08576">
      <path
         id="path35"
         style="display:inline;opacity:1;fill:#6500ff;fill-opacity:1;stroke:none;stroke-width:6.32002;stroke-linecap:round;stroke-linejoin:round;stroke-dasharray:none;stroke-opacity:1;paint-order:markers stroke fill;filter:url(#filter40)"
         d="m 74.377175,13.482705 c 2.93766,0 5.30252,2.364855 5.30252,5.302518 0,2.937662 -2.36486,5.303036 -5.30252,5.303036 h 19.2071 c 2.93767,0 5.30252,-2.365374 5.30252,-5.303036 0,-2.937663 -2.36485,-5.302518 -5.30252,-5.302518 z M 101.8153,33.061871 c 2.93766,0 5.30252,2.364856 5.30252,5.302519 0,2.937662 -2.36486,5.303035 -5.30252,5.303035 h 19.2071 c 2.93766,0 5.30251,-2.365373 5.30251,-5.303035 0,-2.937663 -2.36485,-5.302519 -5.30251,-5.302519 z M 85.940295,52.641038 c 2.93766,0 5.30252,2.364855 5.30252,5.302518 0,2.937662 -2.36486,5.303036 -5.30252,5.303036 H 105.1474 c 2.93766,0 5.30251,-2.365374 5.30251,-5.303036 0,-2.937663 -2.36485,-5.302518 -5.30251,-5.302518 z m -11.56312,19.579166 c 2.93766,0 5.30252,2.364856 5.30252,5.302519 0,2.937662 -2.36486,5.303035 -5.30252,5.303035 h 19.2071 c 2.93767,0 5.30252,-2.365373 5.30252,-5.303035 0,-2.937663 -2.36485,-5.302519 -5.30252,-5.302519 z m 11.56312,19.579166 c 2.93766,0 5.30252,2.364856 5.30252,5.302519 0,2.937671 -2.36486,5.303041 -5.30252,5.303041 H 105.1474 c 2.93766,0 5.30251,-2.36537 5.30251,-5.303041 0,-2.937663 -2.36485,-5.302519 -5.30251,-5.302519 z m 15.875005,19.57917 c 2.93766,0 5.30252,2.36485 5.30252,5.30252 0,2.93766 -2.36486,5.30303 -5.30252,5.30303 h 19.2071 c 2.93766,0 5.30251,-2.36537 5.30251,-5.30303 0,-2.93767 -2.36485,-5.30252 -5.30251,-5.30252 z" />
      <path
         id="rect30"
         style="display:inline;opacity:0.4;fill:#000000;fill-opacity:1;stroke:none;stroke-width:6.32002;stroke-linecap:round;stroke-linejoin:round;stroke-dasharray:none;stroke-opacity:1;paint-order:markers stroke fill;filter:url(#filter35)"
         d="m 14.444596,14.540712 c -2.937665,0 -5.3030352,2.36537 -5.3030352,5.303035 0,2.937666 2.3653702,5.302519 5.3030352,5.302519 h 59.932259 c 2.937665,0 5.303035,-2.364853 5.303035,-5.302519 0,-2.937665 -2.36537,-5.303035 -5.303035,-5.303035 z m 27.438118,19.579166 c -2.937665,0 -5.303035,2.36537 -5.303035,5.303036 0,2.937665 2.36537,5.302519 5.303035,5.302519 h 59.932256 c 2.93767,0 5.30304,-2.364854 5.30304,-5.302519 0,-2.937666 -2.36537,-5.303036 -5.30304,-5.303036 z M 26.007715,53.699045 c -2.937666,0 -5.303036,2.36537 -5.303036,5.303035 0,2.937666 2.36537,5.302519 5.303036,5.302519 h 59.932258 c 2.937665,0 5.303035,-2.364853 5.303035,-5.302519 0,-2.937665 -2.36537,-5.303035 -5.303035,-5.303035 z M 14.444596,73.278211 c -2.937665,0 -5.3030352,2.36537 -5.3030352,5.303036 0,2.937665 2.3653702,5.302518 5.3030352,5.302518 h 59.932259 c 2.937665,0 5.303035,-2.364853 5.303035,-5.302518 0,-2.937666 -2.36537,-5.303036 -5.303035,-5.303036 z m 11.563119,19.579167 c -2.937666,0 -5.303036,2.36537 -5.303036,5.303024 0,2.937658 2.36537,5.302508 5.303036,5.302508 h 59.932258 c 2.937665,0 5.303035,-2.36485 5.303035,-5.302508 0,-2.937654 -2.36537,-5.303024 -5.303035,-5.303024 z M 57.54429,112.43652 c -2.937665,0 -5.302518,2.36537 -5.302518,5.30304 0,2.93766 2.364853,5.30252 5.302518,5.30252 h 44.27068 c 2.93767,0 5.30304,-2.36486 5.30304,-5.30252 0,-2.93767 -2.36537,-5.30304 -5.30304,-5.30304 z" />
      <rect
         style="display:inline;fill:#d5e5ff;fill-opacity:1;stroke:none;stroke-width:6.32002;stroke-linecap:round;stroke-linejoin:round;stroke-dasharray:none;stroke-opacity:1;paint-order:markers stroke fill"
         id="rect8"
         width="70.537956"
         height="10.605301"
         x="9.1417465"
         y="13.482573"
         ry="5.3026505" />
      <path
         id="rect9"
         style="display:inline;opacity:0.5;fill:url(#linearGradient17);stroke:none;stroke-width:6.32002;stroke-linecap:round;stroke-linejoin:round;stroke-dasharray:none;stroke-opacity:1;paint-order:markers stroke fill"
         d="m 74.377188,13.482704 c 2.937657,0 5.302507,2.364853 5.302507,5.302519 0,2.937665 -2.36485,5.303035 -5.302507,5.303035 h 19.207087 c 2.93767,0 5.30252,-2.36537 5.30252,-5.303035 0,-2.937666 -2.36485,-5.302519 -5.30252,-5.302519 z" />
      <rect
         style="display:inline;fill:#d5e5ff;fill-opacity:1;stroke:none;stroke-width:6.32002;stroke-linecap:round;stroke-linejoin:round;stroke-dasharray:none;stroke-opacity:1;paint-order:markers stroke fill"
         id="rect10"
         width="70.537956"
         height="10.605301"
         x="36.579872"
         y="33.061745"
         ry="5.3026505" />
      <path
         id="path10"
         style="display:inline;opacity:0.5;fill:url(#linearGradient19);stroke:none;stroke-width:6.32002;stroke-linecap:round;stroke-linejoin:round;stroke-dasharray:none;stroke-opacity:1;paint-order:markers stroke fill"
         d="m 101.81531,33.061874 c 2.93766,0 5.30251,2.364853 5.30251,5.302519 0,2.937665 -2.36485,5.303035 -5.30251,5.303035 h 19.20709 c 2.93767,0 5.30252,-2.36537 5.30252,-5.303035 0,-2.937666 -2.36485,-5.302519 -5.30252,-5.302519 z" />
      <rect
         style="display:inline;fill:#d5e5ff;fill-opacity:1;stroke:none;stroke-width:6.32002;stroke-linecap:round;stroke-linejoin:round;stroke-dasharray:none;stroke-opacity:1;paint-order:markers stroke fill"
         id="rect11"
         width="70.537956"
         height="10.605301"
         x="20.70487"
         y="52.640911"
         ry="5.3026505" />
      <path
         id="path11"
         style="display:inline;opacity:0.5;fill:url(#linearGradient21);stroke:none;stroke-width:6.32002;stroke-linecap:round;stroke-linejoin:round;stroke-dasharray:none;stroke-opacity:1;paint-order:markers stroke fill"
         d="m 85.940312,52.641041 c 2.937657,0 5.302507,2.364853 5.302507,5.302519 0,2.937665 -2.36485,5.303035 -5.302507,5.303035 H 105.1474 c 2.93767,0 5.30252,-2.36537 5.30252,-5.303035 0,-2.937666 -2.36485,-5.302519 -5.30252,-5.302519 z" />
      <rect
         style="display:inline;fill:#d5e5ff;fill-opacity:1;stroke:none;stroke-width:6.32002;stroke-linecap:round;stroke-linejoin:round;stroke-dasharray:none;stroke-opacity:1;paint-order:markers stroke fill"
         id="rect12"
         width="70.537956"
         height="10.605301"
         x="9.1417465"
         y="72.220078"
         ry="5.3026505" />
      <path
         id="path12"
         style="display:inline;opacity:0.5;fill:url(#linearGradient23);stroke:none;stroke-width:6.32002;stroke-linecap:round;stroke-linejoin:round;stroke-dasharray:none;stroke-opacity:1;paint-order:markers stroke fill"
         d="m 74.377188,72.220208 c 2.937657,0 5.302507,2.364853 5.302507,5.302519 0,2.937665 -2.36485,5.303035 -5.302507,5.303035 h 19.207087 c 2.93767,0 5.30252,-2.36537 5.30252,-5.303035 0,-2.937666 -2.36485,-5.302519 -5.30252,-5.302519 z" />
      <rect
         style="display:inline;fill:#d5e5ff;fill-opacity:1;stroke:none;stroke-width:6.32002;stroke-linecap:round;stroke-linejoin:round;stroke-dasharray:none;stroke-opacity:1;paint-order:markers stroke fill"
         id="rect13"
         width="70.537956"
         height="10.605301"
         x="20.70487"
         y="91.799248"
         ry="5.3026505" />
      <path
         id="path13"
         style="display:inline;opacity:0.5;fill:url(#linearGradient25);stroke:none;stroke-width:6.32002;stroke-linecap:round;stroke-linejoin:round;stroke-dasharray:none;stroke-opacity:1;paint-order:markers stroke fill"
         d="m 85.940312,91.799375 c 2.937657,0 5.302507,2.364853 5.302507,5.302519 0,2.937666 -2.36485,5.303036 -5.302507,5.303036 H 105.1474 c 2.93767,0 5.30252,-2.36537 5.30252,-5.303036 0,-2.937666 -2.36485,-5.302519 -5.30252,-5.302519 z" />
      <rect
         style="display:inline;fill:#d5e5ff;fill-opacity:1;stroke:none;stroke-width:6.32002;stroke-linecap:round;stroke-linejoin:round;stroke-dasharray:none;stroke-opacity:1;paint-order:markers stroke fill"
         id="rect14"
         width="54.876247"
         height="10.605301"
         x="52.241577"
         y="111.37841"
         ry="5.3026505" />
      <path
         id="path14"
         style="display:inline;opacity:0.5;fill:url(#linearGradient27);stroke:none;stroke-width:6.32002;stroke-linecap:round;stroke-linejoin:round;stroke-dasharray:none;stroke-opacity:1;paint-order:markers stroke fill"
         d="m 101.81531,111.37854 c 2.93766,0 5.30251,2.36485 5.30251,5.30252 0,2.93766 -2.36485,5.30303 -5.30251,5.30303 h 19.20709 c 2.93767,0 5.30252,-2.36537 5.30252,-5.30303 0,-2.93767 -2.36485,-5.30252 -5.30252,-5.30252 z" />
      <path
         id="path61"
         style="display:inline;fill:#80ffb3;fill-opacity:1;stroke:none;stroke-width:6.32002;stroke-linecap:round;stroke-linejoin:round;stroke-dasharray:none;stroke-opacity:1;paint-order:markers stroke fill"
         d="m 14.444267,13.482573 c -2.93765,0 -5.3025205,2.364861 -5.3025205,5.302519 0,1.740508 0.84201,3.265622 2.1295905,4.231266 -0.66418,-0.885614 -1.07125,-1.975784 -1.07125,-3.172933 0,-2.937656 2.36485,-5.302519 5.30252,-5.302519 h 58.874437 c 2.756266,0 4.982149,2.089872 5.249809,4.773352 0.01761,-0.176604 0.05323,-0.347774 0.05323,-0.529166 0,-2.278683 -1.425911,-4.206881 -3.435449,-4.959904 -0.01493,-0.0057 -0.02997,-0.01099 -0.04496,-0.01654 -0.160359,-0.05843 -0.324179,-0.108905 -0.491443,-0.151929 -0.04135,-0.01081 -0.08227,-0.02222 -0.124023,-0.03204 -0.147657,-0.03418 -0.297925,-0.06053 -0.450102,-0.08216 -0.05154,-0.0074 -0.101955,-0.01784 -0.153996,-0.02377 -0.198135,-0.02227 -0.398792,-0.03617 -0.603064,-0.03617 z m 27.43812,19.579166 c -2.93765,0 -5.30252,2.364862 -5.30252,5.302518 0,1.74051 0.84201,3.265623 2.12959,4.231267 -0.66418,-0.885615 -1.07126,-1.975785 -1.07126,-3.172933 0,-2.937656 2.36488,-5.302519 5.30252,-5.302519 h 58.874443 c 2.75626,0 4.98215,2.089873 5.24981,4.773352 0.0176,-0.176603 0.0532,-0.347773 0.0532,-0.529167 0,-2.278681 -1.42592,-4.20688 -3.43545,-4.959903 -0.0149,-0.0057 -0.03,-0.01099 -0.045,-0.01654 -0.16036,-0.05843 -0.32418,-0.108906 -0.49144,-0.151929 -0.0413,-0.01081 -0.0823,-0.02222 -0.12403,-0.03204 -0.14765,-0.03418 -0.29792,-0.06053 -0.4501,-0.08217 -0.0515,-0.0074 -0.10195,-0.01784 -0.15399,-0.02377 -0.19814,-0.02227 -0.3988,-0.03617 -0.60307,-0.03617 z m -15.875,19.579167 c -2.93765,0 -5.30252,2.36486 -5.30252,5.302518 0,1.74051 0.84201,3.265622 2.12959,4.231267 -0.66418,-0.885616 -1.07125,-1.975787 -1.07125,-3.172933 0,-2.937657 2.36487,-5.302519 5.30251,-5.302519 h 58.874446 c 2.756254,0 4.98215,2.089872 5.249808,4.773352 0.01761,-0.176604 0.05323,-0.347773 0.05323,-0.529167 0,-2.278682 -1.425915,-4.206879 -3.435449,-4.959904 -0.01493,-0.0057 -0.02997,-0.01099 -0.04496,-0.01654 -0.160357,-0.05843 -0.32418,-0.108905 -0.491442,-0.151929 -0.04135,-0.01081 -0.08227,-0.02222 -0.124024,-0.03204 -0.147656,-0.03418 -0.297925,-0.06053 -0.450102,-0.08217 -0.05154,-0.0074 -0.101955,-0.01783 -0.153995,-0.02377 -0.198134,-0.02227 -0.398795,-0.03617 -0.603064,-0.03617 z m -11.56312,19.579166 c -2.93765,0 -5.3025205,2.364863 -5.3025205,5.302519 0,1.740508 0.84201,3.265621 2.1295905,4.231266 -0.66418,-0.885614 -1.07125,-1.975785 -1.07125,-3.172933 0,-2.937656 2.36485,-5.302519 5.30252,-5.302519 h 58.874437 c 2.756266,0 4.982149,2.089873 5.249809,4.773352 0.01761,-0.176602 0.05323,-0.347772 0.05323,-0.529166 0,-2.278682 -1.425911,-4.206881 -3.435449,-4.959904 -0.01493,-0.0057 -0.02997,-0.01099 -0.04496,-0.01654 -0.160359,-0.05843 -0.324179,-0.108905 -0.491443,-0.151928 -0.04135,-0.01081 -0.08227,-0.02222 -0.124023,-0.03204 -0.147657,-0.03418 -0.297925,-0.06053 -0.450102,-0.08216 -0.05154,-0.0074 -0.101955,-0.01784 -0.153996,-0.02377 -0.198135,-0.02227 -0.398792,-0.03617 -0.603064,-0.03617 z m 11.56312,19.579167 c -2.93765,0 -5.30252,2.364862 -5.30252,5.302518 0,1.740509 0.84201,3.265623 2.12959,4.231263 -0.66418,-0.88561 -1.07125,-1.975783 -1.07125,-3.172929 0,-2.937658 2.36487,-5.302519 5.30251,-5.302519 h 58.874446 c 2.756254,0 4.98215,2.089872 5.249808,4.773352 0.01761,-0.176605 0.05323,-0.347773 0.05323,-0.529167 0,-2.278682 -1.425915,-4.206879 -3.435449,-4.959904 -0.01493,-0.0057 -0.02997,-0.01099 -0.04496,-0.01654 -0.160357,-0.05843 -0.32418,-0.108906 -0.491442,-0.151929 -0.04135,-0.01081 -0.08227,-0.02222 -0.124024,-0.03204 -0.147656,-0.03418 -0.297925,-0.06053 -0.450102,-0.08217 -0.05154,-0.0074 -0.101955,-0.01783 -0.153995,-0.02377 -0.198134,-0.02227 -0.398795,-0.03617 -0.603064,-0.03617 z M 57.54448,111.3784 c -2.937656,0 -5.303035,2.36487 -5.303035,5.30252 0,1.74003 0.841962,3.26455 2.129069,4.23024 -0.663878,-0.88546 -1.070736,-1.97516 -1.070736,-3.1719 0,-2.93766 2.365378,-5.30252 5.303036,-5.30252 h 43.212346 c 2.75626,0 4.98215,2.08987 5.24981,4.77335 0.0176,-0.17661 0.0532,-0.34777 0.0532,-0.52917 0,-2.27868 -1.42592,-4.20688 -3.43545,-4.9599 -0.0149,-0.006 -0.03,-0.011 -0.045,-0.0165 -0.16036,-0.0584 -0.32418,-0.10891 -0.49144,-0.15193 -0.0413,-0.0108 -0.0823,-0.0222 -0.12403,-0.032 -0.14765,-0.0342 -0.29792,-0.0605 -0.4501,-0.0822 -0.0515,-0.007 -0.10195,-0.0178 -0.15399,-0.0238 -0.19814,-0.0223 -0.3988,-0.0362 -0.60307,-0.0362 z" />
    </g>
  </g>
</svg>
