<?xml version="1.0" encoding="UTF-8" standalone="no"?>
<!-- Created with Inkscape (http://www.inkscape.org/) -->

<svg
   width="512"
   height="512"
   viewBox="0 0 135.46666 135.46667"
   version="1.1"
   id="svg5"
   inkscape:version="1.4.2 (ebf0e940d0, 2025-05-08)"
   sodipodi:docname="maps.svg"
   xmlns:inkscape="http://www.inkscape.org/namespaces/inkscape"
   xmlns:sodipodi="http://sodipodi.sourceforge.net/DTD/sodipodi-0.dtd"
   xmlns="http://www.w3.org/2000/svg"
   xmlns:svg="http://www.w3.org/2000/svg">
  <sodipodi:namedview
     id="namedview7"
     pagecolor="#242424"
     bordercolor="#666666"
     borderopacity="1"
     inkscape:showpageshadow="0"
     inkscape:pageopacity="0"
     inkscape:pagecheckerboard="1"
     inkscape:deskcolor="#000000"
     inkscape:document-units="px"
     showgrid="false"
     inkscape:zoom="0.921875"
     inkscape:cx="451.79661"
     inkscape:cy="212.0678"
     inkscape:window-width="3256"
     inkscape:window-height="1080"
     inkscape:window-x="1864"
     inkscape:window-y="0"
     inkscape:window-maximized="0"
     inkscape:current-layer="layer1" />
  <defs
     id="defs2" />
  <g
     inkscape:label="Layer 1"
     inkscape:groupmode="layer"
     id="layer1">
    <rect
       style="fill:#f4eed7;stroke:none;stroke-width:2.11667;stroke-linecap:round;stroke-linejoin:round;stroke-miterlimit:12;paint-order:markers stroke fill;fill-opacity:1"
       id="rect1"
       width="135.46666"
       height="135.46666"
       x="0"
       y="0" />
    <path
       style="baseline-shift:baseline;display:inline;overflow:visible;opacity:1;vector-effect:none;fill:#b2cadf;enable-background:accumulate;stop-color:#000000;stop-opacity:1"
       d="M 0.52734375,-0.04492187 C -2.623855,5.0517134 -0.21701561,14.767421 5.2381907,16.887344 c 4.9477793,2.092198 13.3488753,-3.476639 17.5904953,0 1.89549,4.168916 -2.181226,9.397624 1.317798,13.22202 1.237465,3.020868 8.343112,-0.244021 12.398294,0.536075 5.412588,-0.01164 10.396878,2.358373 15.732707,2.986559 5.583733,1.415026 11.64001,2.293063 16.247246,6.015569 7.950356,5.121676 16.798472,9.148658 26.328796,9.938402 7.719723,2.359392 15.979723,0.04677 23.736043,2.355252 5.6411,1.107863 12.92486,11.388166 16.87709,15.792109 4.6385,3.243652 4.98091,-15.660791 3.10655,-15.792109 -6.48445,-3.493182 -22.14846,-2.004765 -29.4795,-2.237351 C 103.65698,49.971751 98.21676,49.481605 92.984038,48.196282 82.723438,47.335085 73.796043,41.720109 65.283069,36.421635 57.282219,32.868164 48.41736,32.131163 40.038082,29.852705 34.976002,28.139401 29.292864,31.594932 25.01057,29.531101 21.466467,25.249243 26.950625,18.645897 22.495667,14.80081 16.638235,13.288645 9.6147058,16.411129 4.69817,11.875963 0.76185508,9.1632172 0.73892307,4.22066 0.52734375,-0.04492187 Z M 0.08398437,6.1230469 -0.03471975,6.2256548 Z M 54.789062,33.558594 54.675558,33.720811 Z m 6.791016,1.722656 -0.109308,0.205483 z m 11.462891,6.414062 -0.03931,0.07835 z m -0.05469,0.357418 0.03832,0.110601 z m 0.890625,0.21875 -0.108331,0.128374 z"
       id="path2"
       sodipodi:nodetypes="ccccccccccccccccccccccccccccccccccccc" />
    <path
       style="fill:none;stroke:#d89fbf;stroke-width:3.33375;stroke-linecap:round;stroke-linejoin:round;stroke-dasharray:6.6675, 6.6675;stroke-dashoffset:0;stroke-opacity:1"
       d="m 53.552801,103.21417 c 6.382865,20.04305 31.611005,19.57411 48.676639,17.17128 8.1751,-1.18299 16.19474,-3.58548 23.57698,-7.31034"
       id="path7" />
    <path
       style="baseline-shift:baseline;display:inline;overflow:visible;fill:#fdef30;enable-background:accumulate;stop-color:#000000;stop-opacity:1;opacity:1;stroke:#fd3030;stroke-opacity:1;stroke-width:1.58749998;stroke-dasharray:none"
       d="m 47.363281,-4.8691406 -5.228515,0.8085937 c 0.813854,5.2717167 3.818431,9.0115384 6.894531,11.3828125 3.070227,2.3667467 6.178715,3.4926114 7.953125,3.9531254 0.0019,5.02e-4 0.004,-5.02e-4 0.0059,0 3.733364,0.988232 7.683315,0.978076 10.650391,1.710937 2.968582,0.733233 4.619076,1.548539 5.4375,4.849609 L 78.212891,16.5625 C 76.928711,11.382829 72.799715,8.8108036 68.908203,7.8496094 65.016692,6.8884151 61.02962,6.8753929 58.337891,6.1621094 l -0.0078,-0.00195 -0.0078,-0.00195 c -1.11276,-0.2880268 -3.752425,-1.2465756 -6.0625,-3.0273437 -2.310075,-1.7807681 -4.31904,-4.2596173 -4.896485,-8 z"
       id="path10" />
    <path
       style="display:inline;fill:none;stroke:#fdef30;stroke-width:5.2916666;stroke-linecap:butt;stroke-linejoin:miter;stroke-dasharray:none;stroke-opacity:1"
       d="M 75.644657,17.199548 C 73.542053,8.7188061 64.086551,10.42184 57.659785,8.7188061 54.774358,7.9719421 46.140371,4.5473393 44.749072,-4.4647601"
       id="path8"
       sodipodi:nodetypes="ccc" />
    <path
       style="fill:none;stroke:#e4b5b5;stroke-width:3.33374996;stroke-linecap:butt;stroke-linejoin:miter;stroke-opacity:1;stroke-dasharray:none"
       d="M 0,101.88701 C 22.3664,102.37096 51.393491,112.1493 67.733332,94.711862 84.073173,77.274428 45.945692,45.569496 60.558191,26.404518 75.170691,7.2395404 135.46666,14.063275 135.46666,14.063275"
       id="path1"
       sodipodi:nodetypes="czzc" />
    <path
       style="fill:none;stroke:#e4b5b5;stroke-width:3.33375;stroke-linecap:butt;stroke-linejoin:miter;stroke-dasharray:none;stroke-opacity:1"
       d="m 59.956779,49.868994 c 0,0 -22.295312,6.720353 -32.419168,7.43962 C 17.413755,58.027881 0,54.997725 0,54.997725"
       id="path3"
       sodipodi:nodetypes="czc" />
    <path
       style="fill:none;stroke:#e4b5b5;stroke-width:3.33375;stroke-linecap:butt;stroke-linejoin:round;stroke-dasharray:none;stroke-opacity:1"
       d="m 70.850928,76.706491 35.554962,-8.598918 29.06077,67.359087"
       id="path4"
       sodipodi:nodetypes="ccc" />
    <g
       id="g6"
       transform="translate(116.81006,7.6962299)">
      <path
         id="path5"
         style="fill:#ff0000;stroke:#000000;stroke-width:1.05833;stroke-linecap:round;stroke-linejoin:round;stroke-miterlimit:12;stroke-dasharray:none;stroke-opacity:1;paint-order:markers stroke fill"
         d="m -67.377283,30.738395 c 0,7.789746 -9.538351,16.750416 -9.538351,16.750416 0,0 -9.538351,-8.96067 -9.538351,-16.750416 0,-7.789746 3.911708,-11.45875 9.538351,-11.45875 5.626643,0 9.538351,3.669004 9.538351,11.45875 z"
         sodipodi:nodetypes="scszs" />
      <circle
         style="fill:#ffffff;fill-opacity:1;stroke:none;stroke-width:3.33375;stroke-linecap:round;stroke-linejoin:round;stroke-miterlimit:12;stroke-dasharray:none;stroke-opacity:1;paint-order:markers stroke fill"
         id="path6"
         cx="-76.915634"
         cy="28.708569"
         r="4.8099208" />
    </g>
  </g>
</svg>
