<?xml version="1.0" encoding="UTF-8" standalone="no"?>
<!-- Created with Inkscape (http://www.inkscape.org/) -->

<svg
   width="512"
   height="512"
   viewBox="0 0 135.46666 135.46667"
   version="1.1"
   id="svg5"
   inkscape:version="1.4 (e7c3feb100, 2024-10-09)"
   xml:space="preserve"
   sodipodi:docname="materialx.svg"
   xmlns:inkscape="http://www.inkscape.org/namespaces/inkscape"
   xmlns:sodipodi="http://sodipodi.sourceforge.net/DTD/sodipodi-0.dtd"
   xmlns:xlink="http://www.w3.org/1999/xlink"
   xmlns="http://www.w3.org/2000/svg"
   xmlns:svg="http://www.w3.org/2000/svg"><sodipodi:namedview
     id="namedview7"
     pagecolor="#242424"
     bordercolor="#666666"
     borderopacity="1"
     inkscape:showpageshadow="0"
     inkscape:pageopacity="0"
     inkscape:pagecheckerboard="1"
     inkscape:deskcolor="#000000"
     inkscape:document-units="px"
     showgrid="false"
     inkscape:zoom="1.26201"
     inkscape:cx="286.84401"
     inkscape:cy="268.22292"
     inkscape:window-width="3256"
     inkscape:window-height="1080"
     inkscape:window-x="1864"
     inkscape:window-y="0"
     inkscape:window-maximized="0"
     inkscape:current-layer="layer1" /><defs
     id="defs2"><linearGradient
       id="linearGradient33"
       inkscape:collect="always"><stop
         style="stop-color:#bd295b;stop-opacity:1;"
         offset="0"
         id="stop32" /><stop
         style="stop-color:#bd295b;stop-opacity:0;"
         offset="1"
         id="stop33" /></linearGradient><linearGradient
       id="linearGradient30"
       inkscape:collect="always"><stop
         style="stop-color:#bd295b;stop-opacity:1;"
         offset="0"
         id="stop30" /><stop
         style="stop-color:#bd295b;stop-opacity:0;"
         offset="1"
         id="stop31" /></linearGradient><linearGradient
       inkscape:collect="always"
       xlink:href="#linearGradient30"
       id="linearGradient31"
       x1="260.896"
       y1="154.31131"
       x2="270.96933"
       y2="136.8638"
       gradientUnits="userSpaceOnUse" /><linearGradient
       inkscape:collect="always"
       xlink:href="#linearGradient33"
       id="linearGradient32"
       gradientUnits="userSpaceOnUse"
       x1="260.84262"
       y1="154.40379"
       x2="270.99384"
       y2="136.82137"
       gradientTransform="matrix(-1,0,0,1,584.8661,0)" /></defs><g
     inkscape:label="Layer 1"
     inkscape:groupmode="layer"
     id="layer1"><path
       id="path3"
       style="fill:#1898af;fill-opacity:0.996078;stroke-width:0.529167;stroke-linecap:round;stroke-linejoin:round;stroke-miterlimit:1;paint-order:fill markers stroke"
       d="M 113.52603,16.882689 135.46667,29.55003 V 82.426752 L 113.52603,95.094097 Z"
       sodipodi:nodetypes="ccccc" /><path
       id="path16"
       style="display:none;fill:#1898af;fill-opacity:0.996078;stroke-width:0.529167;stroke-linecap:round;stroke-linejoin:round;stroke-miterlimit:1;paint-order:fill markers stroke"
       d="M 21.940639,16.882689 V 42.21737 l 91.585391,52.876539 v -25.33412 z m 91.585391,78.21122 c -119.4930461,-102.0658222 -119.4930461,-102.0658222 0,0 z"
       sodipodi:nodetypes="ccccccc" /><path
       id="path17"
       style="fill:#1898af;fill-opacity:0.996078;stroke-width:0.529167;stroke-linecap:round;stroke-linejoin:round;stroke-miterlimit:1;paint-order:fill markers stroke"
       d="M 21.940639,16.882689 7.7172403e-8,29.55003 V 82.426752 L 21.940639,95.094097 Z"
       sodipodi:nodetypes="ccccc" /><path
       id="path18"
       style="display:none;fill:#1898af;fill-opacity:0.996078;stroke-width:0.529167;stroke-linecap:round;stroke-linejoin:round;stroke-miterlimit:1;paint-order:fill markers stroke"
       d="M 113.52603,16.882689 V 42.21737 L 21.940639,95.093909 v -25.33412 z m -91.585391,78.21122 c 119.493051,-102.0658222 119.493051,-102.0658222 0,0 z"
       sodipodi:nodetypes="ccccccc" /><path
       style="display:none;fill:#bd295b;fill-opacity:1;stroke-width:0.529167;stroke-linecap:round;stroke-linejoin:round;stroke-miterlimit:1;paint-order:fill markers stroke"
       d="M 67.732856,68.655853 45.792784,55.988507 21.940442,69.760002 v 25.334119 z"
       id="path22" /><path
       style="display:none;fill:#bd295b;fill-opacity:1;stroke-width:0.529167;stroke-linecap:round;stroke-linejoin:round;stroke-miterlimit:1;paint-order:fill markers stroke"
       d="M 89.673485,55.988507 67.732856,68.655853 113.52584,95.094121 V 69.760002 Z"
       id="path21" /><g
       id="g33"
       transform="matrix(1.0890222,0,0,1.0890222,-250.73351,-119.22136)"
       style="display:inline;stroke-width:0.918255"><path
         id="path28"
         style="opacity:1;fill:url(#linearGradient31);fill-opacity:1;stroke-width:0.48591;stroke-linecap:round;stroke-linejoin:round;stroke-miterlimit:1;paint-order:fill markers stroke"
         d="m 250.38368,124.97842 v 23.26369 l 21.90254,12.64523 20.14657,11.63184 20.14709,-11.63184 21.90254,-12.64523 V 124.97842 L 292.43331,149.256 h -5.2e-4 z" /><path
         id="path31"
         style="opacity:1;fill:url(#linearGradient32);fill-opacity:1;stroke-width:0.48591;stroke-linecap:round;stroke-linejoin:round;stroke-miterlimit:1;paint-order:fill markers stroke"
         d="m 334.48242,124.97842 v 23.26369 l -21.90254,12.64523 -20.14657,11.63184 -20.14709,-11.63184 -21.90254,-12.64523 v -23.26369 l 42.04911,24.27758 h 5.2e-4 z" /></g><g
       id="g35"
       transform="matrix(1.010007,0,0,1.010007,0.59489699,-1.0585086)"
       style="stroke-width:0.990092"><path
         d="M 0.45884564,123.34644 V 105.77718 H 3.3477491 l 4.4571652,11.34339 c 0.102196,0.25154 0.2240373,0.56206 0.3655351,0.93152 0.1414968,0.36946 0.2869253,0.75464 0.4362836,1.15556 0.1493582,0.40091 0.290855,0.78216 0.4244914,1.14377 0.1336375,0.35373 0.2397601,0.64459 0.3183688,0.87255 H 8.8661445 c 0.078603,-0.22796 0.1808017,-0.51882 0.3065777,-0.87255 0.1336365,-0.36161 0.2751332,-0.74286 0.4244915,-1.14377 0.1493582,-0.40092 0.2947853,-0.7861 0.4362833,-1.15556 0.141497,-0.36946 0.259412,-0.67998 0.353743,-0.93152 l 4.386417,-11.34339 h 2.900696 v 17.56926 h -2.087086 v -10.18781 -1.21452 c 0.0078,-0.43236 0.01572,-0.8765 0.02358,-1.33243 0.01571,-0.45594 0.02752,-0.9158 0.03536,-1.3796 0.01571,-0.46379 0.02753,-0.9158 0.03537,-1.35601 h 0.294787 c -0.196524,0.55026 -0.389118,1.0848 -0.57778,1.60363 -0.188664,0.51882 -0.369466,1.0062 -0.542407,1.46214 -0.16508,0.45595 -0.318369,0.87257 -0.459867,1.2499 -0.141496,0.36947 -0.267271,0.69176 -0.377325,0.96689 L 9.9391441,123.34644 H 8.1940192 L 4.0905965,113.15863 c -0.1100534,-0.27513 -0.2397592,-0.59742 -0.3891176,-0.96689 -0.1414973,-0.37733 -0.2987166,-0.79395 -0.4716578,-1.2499 -0.172941,-0.45594 -0.3576736,-0.94332 -0.5541977,-1.46214 -0.196524,-0.51883 -0.4009091,-1.05337 -0.6131551,-1.60363 h 0.4009092 c 0.015722,0.44021 0.027513,0.89222 0.035374,1.35601 0.00787,0.4638 0.015722,0.92366 0.023582,1.3796 0.015722,0.45593 0.023582,0.90007 0.023582,1.33243 0.00787,0.43235 0.011791,0.8372 0.011791,1.21452 v 10.18781 z m 19.19646936,0 6.485293,-17.56926 h 2.405454 l 6.414546,17.56926 h -2.263957 l -3.690722,-10.58871 c -0.24369,-0.69963 -0.518823,-1.49751 -0.825401,-2.39366 -0.298717,-0.90402 -0.679973,-2.08708 -1.14377,-3.54924 h 0.613155 c -0.463796,1.46216 -0.848984,2.64522 -1.155561,3.54924 -0.298716,0.89615 -0.57385,1.69403 -0.825402,2.39366 l -3.796843,10.58871 z m 3.34877,-4.92882 v -1.88663 h 8.607753 v 1.88663 z m 10.423636,-10.75379 v -1.88665 H 46.98788 v 1.88665 h -5.707058 v 15.68261 h -2.12246 v -15.68261 z m 15.894865,15.68261 v -17.56926 h 11.425908 v 1.88665 h -9.303449 v 5.74243 h 8.619545 v 1.88662 h -8.619545 v 6.16694 h 9.303449 v 1.88662 z m 13.996442,0 v -17.56926 h 6.520667 c 1.226312,0 2.283611,0.21619 3.1719,0.64854 0.896149,0.43235 1.583984,1.04944 2.063502,1.85127 0.48738,0.79395 0.731069,1.73726 0.731069,2.82993 0,1.09267 -0.259411,2.03992 -0.778234,2.84174 -0.510963,0.80183 -1.226312,1.41891 -2.146044,1.85127 -0.919732,0.43235 -1.988824,0.64852 -3.207273,0.64852 h -5.176444 v -1.88663 h 5.294359 c 0.809679,0 1.505376,-0.13756 2.087087,-0.4127 0.589571,-0.283 1.041576,-0.68391 1.356014,-1.20273 0.31444,-0.51883 0.471658,-1.13199 0.471658,-1.83947 0,-0.71535 -0.161149,-1.32849 -0.483449,-1.83947 -0.314438,-0.51096 -0.766443,-0.90399 -1.356016,-1.17913 -0.58171,-0.283 -1.281338,-0.42449 -2.098875,-0.42449 h -4.327461 v 15.68261 z m 10.223181,0 -4.244919,-7.90027 h 2.405453 l 4.31567,7.90027 z m 7.169197,-17.56926 v 17.56926 h -2.12246 v -17.56926 z m 1.980965,17.56926 6.485294,-17.56926 h 2.405454 l 6.414549,17.56926 h -2.263961 l -3.690721,-10.58871 c -0.243689,-0.69963 -0.518823,-1.49751 -0.8254,-2.39366 -0.298717,-0.90402 -0.679974,-2.08708 -1.14377,-3.54924 h 0.613153 c -0.463796,1.46216 -0.848982,2.64522 -1.15556,3.54924 -0.298717,0.89615 -0.573851,1.69403 -0.825401,2.39366 l -3.796845,10.58871 z m 3.348771,-4.92882 v -1.88663 h 8.607752 v 1.88663 z m 13.937484,4.92882 v -17.56926 h 2.122454 v 15.68264 h 8.46626 v 1.88662 z"
         id="text33"
         style="font-size:22.5981px;line-height:1.25;font-family:'Adwaita Sans';-inkscape-font-specification:'Adwaita Sans, Normal';font-variant-ligatures:none;text-align:center;text-orientation:upright;text-anchor:middle;fill:#1898af;fill-opacity:0.996078;stroke:#1898af;stroke-width:1.04785;stroke-dasharray:none;stroke-opacity:0.996078;paint-order:markers stroke fill"
         aria-label="MATERIAL X"
         sodipodi:nodetypes="ccccssccccsscccccccccccscccccccssccsccsccccccccccccccccccccccccccccccccccccccccccccsccscssccscssccscccccccccccccccccccccccccccccccccccccc" /><path
         d="m 117.48891,123.34644 6.83905,-9.7751 v 1.56825 l -6.46172,-9.36241 h 2.45263 l 2.59411,3.79685 q 0.38912,0.566 0.76644,1.13198 0.37733,0.566 0.75466,1.13198 0.37732,0.566 0.74286,1.13197 h -0.34195 q 0.37732,-0.56597 0.75465,-1.13197 0.37733,-0.56598 0.76644,-1.13198 0.38911,-0.56598 0.77823,-1.13198 l 2.6413,-3.79685 h 2.39365 l -6.46171,9.27988 v -1.56827 l 6.78008,9.85765 h -2.44082 l -3.12474,-4.52791 q -0.36554,-0.54241 -0.73107,-1.07302 -0.36554,-0.53062 -0.71927,-1.06124 -0.35375,-0.5424 -0.7075,-1.07301 h 0.47167 q -0.35376,0.53061 -0.71928,1.07301 -0.36554,0.53062 -0.73108,1.06124 -0.36553,0.53061 -0.74287,1.07302 l -3.14829,4.52791 z"
         id="text34"
         style="font-size:22.5981px;line-height:1.25;font-family:'Adwaita Sans';-inkscape-font-specification:'Adwaita Sans, Normal';font-variant-ligatures:none;text-align:center;text-orientation:upright;text-anchor:middle;fill:#bd295b;stroke:#bd295b;stroke-width:1.04785;stroke-dasharray:none;stroke-opacity:1;paint-order:markers stroke fill"
         aria-label="X" /></g><path
       id="path42"
       style="fill:#ffffff;fill-opacity:1;stroke-width:0.529167;stroke-linecap:round;stroke-linejoin:round;stroke-miterlimit:1;paint-order:fill markers stroke"
       d="M 21.940902,82.426653 V 69.75921 l 45.79256,-26.439213 h 5.1e-4 L 113.52654,69.75921 V 82.426653 L 67.733972,55.987441 h -5.1e-4 z" /><g
       id="g38"
       style="display:inline;opacity:1"><path
         id="path35"
         style="fill:#1898af;fill-opacity:0.996078;stroke-width:0.529167;stroke-linecap:round;stroke-linejoin:round;stroke-miterlimit:1;paint-order:fill markers stroke"
         d="m 21.939641,16.87376 v 12.667444 l 45.79256,26.439212 h 5.1e-4 L 113.52527,29.541204 V 16.87376 L 67.732711,43.312973 h -5.1e-4 z" /><path
         id="path38"
         style="fill:#bd295b;fill-opacity:1;stroke-width:0.529167;stroke-linecap:round;stroke-linejoin:round;stroke-miterlimit:1;paint-order:fill markers stroke"
         d="m 21.940775,29.540546 v 12.667443 l 45.79256,26.439213 h 5.1e-4 L 113.52641,42.207989 V 29.540546 L 67.733845,55.979758 h -5.1e-4 z" /></g><path
       id="path41"
       style="fill:#bd295b;fill-opacity:1;stroke-width:0.529167;stroke-linecap:round;stroke-linejoin:round;stroke-miterlimit:1;paint-order:fill markers stroke"
       d="M 21.940392,95.094097 V 82.426654 l 45.79256,-26.439213 h 5.1e-4 L 113.52603,82.426654 V 95.094097 L 67.733462,68.654885 h -5.1e-4 z" /></g></svg>
