<?xml version="1.0" encoding="UTF-8" standalone="no"?>
<!-- Created with Inkscape (http://www.inkscape.org/) -->

<svg
   width="512"
   height="512"
   viewBox="0 0 135.46666 135.46667"
   version="1.1"
   id="svg5"
   inkscape:version="1.3.2 (091e20ef0f, 2023-11-25, custom)"
   sodipodi:docname="mercury.svg"
   xmlns:inkscape="http://www.inkscape.org/namespaces/inkscape"
   xmlns:sodipodi="http://sodipodi.sourceforge.net/DTD/sodipodi-0.dtd"
   xmlns:xlink="http://www.w3.org/1999/xlink"
   xmlns="http://www.w3.org/2000/svg"
   xmlns:svg="http://www.w3.org/2000/svg">
  <sodipodi:namedview
     id="namedview7"
     pagecolor="#242424"
     bordercolor="#666666"
     borderopacity="1"
     inkscape:showpageshadow="0"
     inkscape:pageopacity="0"
     inkscape:pagecheckerboard="1"
     inkscape:deskcolor="#000000"
     inkscape:document-units="px"
     showgrid="false"
     inkscape:zoom="0.92187498"
     inkscape:cx="230.50848"
     inkscape:cy="158.37288"
     inkscape:window-width="3256"
     inkscape:window-height="1080"
     inkscape:window-x="1864"
     inkscape:window-y="0"
     inkscape:window-maximized="0"
     inkscape:current-layer="layer2" />
  <defs
     id="defs2">
    <linearGradient
       id="linearGradient20"
       inkscape:collect="always">
      <stop
         style="stop-color:#ffffff;stop-opacity:1;"
         offset="0"
         id="stop20" />
      <stop
         style="stop-color:#ffffff;stop-opacity:0;"
         offset="1"
         id="stop23" />
    </linearGradient>
    <linearGradient
       id="linearGradient15"
       inkscape:collect="always">
      <stop
         style="stop-color:#ff00bb;stop-opacity:1;"
         offset="0"
         id="stop15" />
      <stop
         style="stop-color:#00d1ff;stop-opacity:1;"
         offset="1"
         id="stop16" />
    </linearGradient>
    <linearGradient
       id="linearGradient10"
       inkscape:collect="always">
      <stop
         style="stop-color:#ff80b2;stop-opacity:0;"
         offset="0.94999999"
         id="stop10" />
      <stop
         style="stop-color:#370047;stop-opacity:1;"
         offset="1"
         id="stop7" />
    </linearGradient>
    <linearGradient
       id="linearGradient5"
       inkscape:collect="always">
      <stop
         style="stop-color:#c600ff;stop-opacity:0.99997795;"
         offset="0"
         id="stop6" />
      <stop
         style="stop-color:#ff80b2;stop-opacity:1;"
         offset="1"
         id="stop5" />
    </linearGradient>
    <linearGradient
       id="linearGradient21"
       inkscape:collect="always">
      <stop
         style="stop-color:#6600ff;stop-opacity:1;"
         offset="0"
         id="stop22" />
      <stop
         style="stop-color:#7137c8;stop-opacity:1;"
         offset="1"
         id="stop21" />
    </linearGradient>
    <inkscape:path-effect
       effect="fillet_chamfer"
       id="path-effect2"
       is_visible="true"
       lpeversion="1"
       nodesatellites_param="F,0,0,1,0,6,0,1 @ F,0,0,1,0,6,0,1 @ F,0,0,1,0,6,0,1 @ F,0,0,1,0,6,0,1 @ F,0,0,1,0,6,0,1 @ F,0,0,1,0,6,0,1"
       radius="6"
       unit="px"
       method="auto"
       mode="F"
       chamfer_steps="1"
       flexible="false"
       use_knot_distance="true"
       apply_no_radius="true"
       apply_with_radius="true"
       only_selected="false"
       hide_knots="false" />
    <filter
       inkscape:label="Flex Metal"
       inkscape:menu="Materials"
       inkscape:menu-tooltip="Bright, polished uneven metal casting, colorizable"
       height="1.1771654"
       y="-0.088582679"
       width="1.1771654"
       x="-0.088582682"
       style="color-interpolation-filters:sRGB;"
       id="filter6">
      <feGaussianBlur
         stdDeviation="5"
         result="result8"
         id="feGaussianBlur3" />
      <feTurbulence
         seed="25"
         result="result7"
         type="turbulence"
         numOctaves="2"
         baseFrequency="0.03"
         id="feTurbulence3" />
      <feComposite
         in2="result8"
         result="result6"
         operator="in"
         in="result8"
         id="feComposite3" />
      <feDisplacementMap
         in="result7"
         in2="result6"
         xChannelSelector="A"
         yChannelSelector="A"
         scale="120"
         result="result4"
         id="feDisplacementMap3" />
      <feComposite
         in2="result4"
         result="result2"
         operator="arithmetic"
         in="SourceGraphic"
         k1="2"
         k3="2.5"
         k2="0.25"
         id="feComposite4" />
      <feComposite
         result="fbSourceGraphic"
         in="result2"
         operator="in"
         in2="SourceGraphic"
         id="feComposite5" />
      <feBlend
         mode="screen"
         in2="fbSourceGraphic"
         result="result91"
         id="feBlend5" />
      <feBlend
         mode="multiply"
         in2="result91"
         id="feBlend6" />
    </filter>
    <filter
       inkscape:label="Gold Paste"
       x="-0.035905512"
       y="-0.035905512"
       height="1.071811"
       width="1.071811"
       inkscape:menu="Materials"
       inkscape:menu-tooltip="Fat pasted cast metal, with golden highlights"
       style="color-interpolation-filters:sRGB;"
       id="filter10">
      <feGaussianBlur
         in="SourceAlpha"
         stdDeviation="0.50666659"
         result="result91"
         id="feGaussianBlur6" />
      <feComposite
         result="fbSourceGraphic"
         operator="in"
         in="SourceGraphic"
         in2="result91"
         id="feComposite6" />
      <feGaussianBlur
         result="result1"
         in="fbSourceGraphic"
         stdDeviation="0.01"
         id="feGaussianBlur7" />
      <feTurbulence
         result="result0"
         numOctaves="4"
         baseFrequency="0.04"
         type="fractalNoise"
         seed="20"
         id="feTurbulence7" />
      <feDisplacementMap
         result="result2"
         scale="30"
         yChannelSelector="G"
         xChannelSelector="R"
         in="result1"
         in2="result0"
         id="feDisplacementMap7" />
      <feColorMatrix
         type="saturate"
         values="1"
         result="result3"
         id="feColorMatrix7" />
      <feGaussianBlur
         result="result4"
         in="fbSourceGraphic"
         stdDeviation="0.01"
         id="feGaussianBlur8" />
      <feComposite
         operator="atop"
         result="fbSourceGraphic"
         in="result4"
         in2="result3"
         id="feComposite8" />
      <feGaussianBlur
         result="result0"
         in="fbSourceGraphic"
         stdDeviation="1.5"
         id="feGaussianBlur9" />
      <feTurbulence
         baseFrequency="0.02"
         seed="20"
         numOctaves="8"
         result="result1"
         type="fractalNoise"
         id="feTurbulence9" />
      <feComposite
         result="result2"
         operator="out"
         in2="result1"
         in="result0"
         id="feComposite9" />
      <feSpecularLighting
         lighting-color="rgb(255,255,255)"
         surfaceScale="2.5"
         result="result4"
         specularConstant="2"
         specularExponent="30"
         in="result2"
         id="feSpecularLighting9">
        <feDistantLight
           elevation="62"
           azimuth="225"
           id="feDistantLight9" />
      </feSpecularLighting>
      <feComposite
         in2="result2"
         in="result4"
         operator="atop"
         result="result92"
         id="feComposite10" />
      <feBlend
         mode="multiply"
         in2="result92"
         id="feBlend10" />
    </filter>
    <clipPath
       clipPathUnits="userSpaceOnUse"
       id="clipPath11">
      <path
         id="path11"
         style="opacity:1;fill:#cccccc;stroke-width:1.05833;stroke-linecap:round;stroke-linejoin:round;paint-order:markers stroke fill"
         d="M 188.75168,7.0258403 A 31.824184,31.824184 0 0 0 156.9275,38.850025 31.824184,31.824184 0 0 0 188.75168,70.674208 31.824184,31.824184 0 0 0 220.57586,38.850025 31.824184,31.824184 0 0 0 217.59236,25.405502 V 11.186448 c 0,-0.65213 -0.52496,-1.177091 -1.1771,-1.177091 H 202.19597 A 31.824184,31.824184 0 0 0 188.75168,7.0258403 Z" />
    </clipPath>
    <radialGradient
       inkscape:collect="always"
       xlink:href="#linearGradient21"
       id="radialGradient22"
       cx="67.73333"
       cy="67.73333"
       fx="67.73333"
       fy="67.73333"
       r="52.916664"
       gradientUnits="userSpaceOnUse"
       gradientTransform="matrix(0.97000003,0,0,0.97000003,2.0320037,2.0320037)" />
    <filter
       inkscape:collect="always"
       style="color-interpolation-filters:sRGB"
       id="filter4"
       x="-0.030681803"
       y="-0.030758291"
       width="1.0613636"
       height="1.0615166">
      <feGaussianBlur
         inkscape:collect="always"
         stdDeviation="0.94937273"
         id="feGaussianBlur4" />
    </filter>
    <radialGradient
       inkscape:collect="always"
       xlink:href="#linearGradient5"
       id="radialGradient6"
       cx="67.73333"
       cy="67.73333"
       fx="67.73333"
       fy="67.73333"
       r="52.916664"
       gradientUnits="userSpaceOnUse"
       gradientTransform="translate(1.3934143e-5)" />
    <radialGradient
       inkscape:collect="always"
       xlink:href="#linearGradient5"
       id="radialGradient4"
       gradientUnits="userSpaceOnUse"
       cx="67.73333"
       cy="67.73333"
       fx="67.73333"
       fy="67.73333"
       r="52.916664" />
    <filter
       inkscape:collect="always"
       style="color-interpolation-filters:sRGB"
       id="filter5"
       x="-0.03072"
       y="-0.03072"
       width="1.06144"
       height="1.06144">
      <feGaussianBlur
         inkscape:collect="always"
         stdDeviation="1.3546666"
         id="feGaussianBlur5" />
    </filter>
    <radialGradient
       inkscape:collect="always"
       xlink:href="#linearGradient10"
       id="radialGradient7"
       gradientUnits="userSpaceOnUse"
       cx="67.73333"
       cy="67.73333"
       fx="67.73333"
       fy="67.73333"
       r="52.916664"
       gradientTransform="translate(-1.300293e-5)" />
    <filter
       inkscape:collect="always"
       style="color-interpolation-filters:sRGB"
       id="filter11"
       x="-0.06912"
       y="-0.06912"
       width="1.13824"
       height="1.13824">
      <feGaussianBlur
         inkscape:collect="always"
         stdDeviation="3.0479999"
         id="feGaussianBlur10" />
    </filter>
    <filter
       inkscape:collect="always"
       style="color-interpolation-filters:sRGB"
       id="filter12"
       x="-0.0076799999"
       y="-0.0076799999"
       width="1.01536"
       height="1.01536">
      <feGaussianBlur
         inkscape:collect="always"
         stdDeviation="0.33866665"
         id="feGaussianBlur11" />
    </filter>
    <filter
       inkscape:collect="always"
       style="color-interpolation-filters:sRGB"
       id="filter13"
       x="-0.108"
       y="-0.108"
       width="1.216"
       height="1.216">
      <feGaussianBlur
         inkscape:collect="always"
         stdDeviation="4.7624998"
         id="feGaussianBlur12" />
    </filter>
    <filter
       inkscape:collect="always"
       style="color-interpolation-filters:sRGB"
       id="filter14"
       x="-0.15552"
       y="-0.15552"
       width="1.31104"
       height="1.31104">
      <feGaussianBlur
         inkscape:collect="always"
         stdDeviation="6.8579997"
         id="feGaussianBlur13" />
    </filter>
    <linearGradient
       inkscape:collect="always"
       xlink:href="#linearGradient15"
       id="linearGradient16"
       x1="131.23334"
       y1="4.2333341"
       x2="4.2333302"
       y2="131.23334"
       gradientUnits="userSpaceOnUse" />
    <radialGradient
       inkscape:collect="always"
       xlink:href="#linearGradient10"
       id="radialGradient16"
       gradientUnits="userSpaceOnUse"
       gradientTransform="translate(193.53408,-8.817593)"
       cx="67.73333"
       cy="67.73333"
       fx="67.73333"
       fy="67.73333"
       r="52.916664" />
    <clipPath
       clipPathUnits="userSpaceOnUse"
       id="clipPath17">
      <circle
         style="display:inline;opacity:1;mix-blend-mode:normal;fill:#0000ff;fill-opacity:1;stroke-width:1.05833;stroke-linecap:round;stroke-linejoin:round;paint-order:markers stroke fill"
         id="circle18"
         cx="261.26743"
         cy="58.915737"
         r="52.916664" />
    </clipPath>
    <filter
       inkscape:collect="always"
       style="color-interpolation-filters:sRGB"
       id="filter18"
       x="-0.00432"
       y="-0.00432"
       width="1.00864"
       height="1.00864">
      <feGaussianBlur
         inkscape:collect="always"
         stdDeviation="0.19049999"
         id="feGaussianBlur18" />
    </filter>
    <linearGradient
       inkscape:collect="always"
       xlink:href="#linearGradient20"
       id="linearGradient23"
       x1="175.23634"
       y1="-4.6803432"
       x2="231.25905"
       y2="61.30291"
       gradientUnits="userSpaceOnUse"
       gradientTransform="translate(-158.11677,21.832284)" />
    <linearGradient
       inkscape:collect="always"
       xlink:href="#linearGradient34"
       id="linearGradient35"
       x1="-3.0079641e-14"
       y1="135.46666"
       x2="135.46666"
       y2="0"
       gradientUnits="userSpaceOnUse" />
    <linearGradient
       id="linearGradient34"
       inkscape:collect="always">
      <stop
         style="stop-color:#000000;stop-opacity:1;"
         offset="0"
         id="stop34" />
      <stop
         style="stop-color:#7a7a7a;stop-opacity:1;"
         offset="1"
         id="stop35" />
    </linearGradient>
    <filter
       inkscape:collect="always"
       style="color-interpolation-filters:sRGB"
       id="filter5-7"
       x="-0.03072"
       y="-0.03072"
       width="1.06144"
       height="1.06144">
      <feGaussianBlur
         inkscape:collect="always"
         stdDeviation="1.3546666"
         id="feGaussianBlur5-5" />
    </filter>
    <filter
       inkscape:collect="always"
       style="color-interpolation-filters:sRGB"
       id="filter11-3"
       x="-0.06912"
       y="-0.06912"
       width="1.13824"
       height="1.13824">
      <feGaussianBlur
         inkscape:collect="always"
         stdDeviation="3.0479999"
         id="feGaussianBlur10-5" />
    </filter>
    <filter
       inkscape:collect="always"
       style="color-interpolation-filters:sRGB"
       id="filter13-6"
       x="-0.108"
       y="-0.108"
       width="1.216"
       height="1.216">
      <feGaussianBlur
         inkscape:collect="always"
         stdDeviation="4.7624998"
         id="feGaussianBlur12-2" />
    </filter>
    <filter
       inkscape:collect="always"
       style="color-interpolation-filters:sRGB"
       id="filter14-9"
       x="-0.15552"
       y="-0.15552"
       width="1.31104"
       height="1.31104">
      <feGaussianBlur
         inkscape:collect="always"
         stdDeviation="6.8579997"
         id="feGaussianBlur13-1" />
    </filter>
    <radialGradient
       inkscape:collect="always"
       xlink:href="#linearGradient28"
       id="radialGradient4-2"
       gradientUnits="userSpaceOnUse"
       cx="67.73333"
       cy="67.73333"
       fx="67.73333"
       fy="67.73333"
       r="52.916664" />
    <linearGradient
       id="linearGradient28"
       inkscape:collect="always">
      <stop
         style="stop-color:#000000;stop-opacity:1;"
         offset="0"
         id="stop27" />
      <stop
         style="stop-color:#7f7f7f;stop-opacity:1;"
         offset="1"
         id="stop28" />
    </linearGradient>
    <radialGradient
       inkscape:collect="always"
       xlink:href="#linearGradient30"
       id="radialGradient7-7"
       gradientUnits="userSpaceOnUse"
       cx="67.73333"
       cy="67.73333"
       fx="67.73333"
       fy="67.73333"
       r="52.916664"
       gradientTransform="translate(-1.300293e-5)" />
    <linearGradient
       id="linearGradient30"
       inkscape:collect="always">
      <stop
         style="stop-color:#bfbfbf;stop-opacity:0;"
         offset="0.94999999"
         id="stop29" />
      <stop
         style="stop-color:#000000;stop-opacity:1;"
         offset="1"
         id="stop30" />
    </linearGradient>
    <radialGradient
       inkscape:collect="always"
       xlink:href="#linearGradient10-9"
       id="radialGradient16-0"
       gradientUnits="userSpaceOnUse"
       gradientTransform="translate(193.53408,-8.817593)"
       cx="67.73333"
       cy="67.73333"
       fx="67.73333"
       fy="67.73333"
       r="52.916664" />
    <linearGradient
       id="linearGradient10-9"
       inkscape:collect="always">
      <stop
         style="stop-color:#bfbfbf;stop-opacity:0;"
         offset="0.92891592"
         id="stop10-3" />
      <stop
         style="stop-color:#000000;stop-opacity:1;"
         offset="1"
         id="stop7-6" />
    </linearGradient>
    <clipPath
       clipPathUnits="userSpaceOnUse"
       id="clipPath17-0">
      <circle
         style="display:inline;opacity:1;mix-blend-mode:normal;fill:#0000ff;fill-opacity:1;stroke-width:1.05833;stroke-linecap:round;stroke-linejoin:round;paint-order:markers stroke fill"
         id="circle18-6"
         cx="261.26743"
         cy="58.915737"
         r="52.916664" />
    </clipPath>
    <filter
       inkscape:collect="always"
       style="color-interpolation-filters:sRGB"
       id="filter18-2"
       x="-0.00432"
       y="-0.00432"
       width="1.00864"
       height="1.00864">
      <feGaussianBlur
         inkscape:collect="always"
         stdDeviation="0.19049999"
         id="feGaussianBlur18-6" />
    </filter>
    <linearGradient
       inkscape:collect="always"
       xlink:href="#linearGradient20"
       id="linearGradient38"
       gradientUnits="userSpaceOnUse"
       gradientTransform="rotate(75,132.56553,-46.213703)"
       x1="175.23634"
       y1="-4.6803432"
       x2="231.25905"
       y2="61.30291" />
    <linearGradient
       inkscape:collect="always"
       xlink:href="#linearGradient36"
       id="linearGradient37"
       x1="157.50594"
       y1="104.32513"
       x2="292.9726"
       y2="-31.141535"
       gradientUnits="userSpaceOnUse" />
    <linearGradient
       id="linearGradient36"
       inkscape:collect="always">
      <stop
         style="stop-color:#000000;stop-opacity:1;"
         offset="0"
         id="stop36" />
      <stop
         style="stop-color:#ffffff;stop-opacity:1;"
         offset="1"
         id="stop37" />
    </linearGradient>
    <clipPath
       clipPathUnits="userSpaceOnUse"
       id="clipPath32">
      <path
         style="color:#000000;fill:#7a7a7a;stroke-width:0.999998;stroke-linecap:round;stroke-linejoin:round;-inkscape-stroke:none;paint-order:markers stroke fill"
         d="m 225.23967,-31.141987 a 67.73333,67.73333 0 0 0 -67.73334,67.73333 67.73333,67.73333 0 0 0 67.73334,67.733327 67.73333,67.73333 0 0 0 67.73332,-67.733327 67.73333,67.73333 0 0 0 -6.35,-28.6147887 V -22.286714 c 0,-1.387968 -1.11731,-2.505274 -2.50526,-2.505274 h -30.26379 a 67.73333,67.73333 0 0 0 -28.61427,-6.349999 z"
         id="path33" />
    </clipPath>
    <filter
       inkscape:collect="always"
       style="color-interpolation-filters:sRGB"
       id="filter33"
       x="-0.017279878"
       y="-0.017280122"
       width="1.0345598"
       height="1.0345602">
      <feGaussianBlur
         inkscape:collect="always"
         stdDeviation="0.99821954"
         id="feGaussianBlur33" />
    </filter>
    <linearGradient
       inkscape:collect="always"
       xlink:href="#linearGradient20"
       id="linearGradient39"
       gradientUnits="userSpaceOnUse"
       gradientTransform="translate(-158.11677,21.832284)"
       x1="175.23634"
       y1="-4.6803432"
       x2="231.25905"
       y2="61.30291" />
  </defs>
  <g
     inkscape:label="color"
     inkscape:groupmode="layer"
     id="layer1"
     style="display:none">
    <path
       id="path1"
       style="display:inline;opacity:1;fill:#55ddff;fill-opacity:1;stroke-width:1.05833;stroke-linecap:round;stroke-linejoin:round;paint-order:markers stroke fill"
       d="M 67.733332,0 A 67.73333,67.73333 0 0 0 0,67.733332 67.73333,67.73333 0 0 0 67.733332,135.46666 67.73333,67.73333 0 0 0 135.46666,67.733332 67.73333,67.73333 0 0 0 129.11667,39.118542 V 8.8552733 c 0,-1.3879678 -1.11731,-2.5052734 -2.50528,-2.5052734 H 96.347606 A 67.73333,67.73333 0 0 0 67.733332,0 Z" />
    <g
       id="g14"
       style="display:inline">
      <circle
         style="display:inline;opacity:1;mix-blend-mode:normal;fill:#ffffff;stroke-width:1.03758;stroke-linecap:round;stroke-linejoin:round;paint-order:markers stroke fill;filter:url(#filter12)"
         id="circle5"
         cx="67.73333"
         cy="67.73333"
         r="52.916664"
         transform="matrix(1.02,0,0,1.02,-1.3546639,-1.3546639)" />
      <circle
         style="display:inline;opacity:1;mix-blend-mode:normal;fill:#ffffff;stroke-width:1.03758;stroke-linecap:round;stroke-linejoin:round;paint-order:markers stroke fill;filter:url(#filter5)"
         id="circle6"
         cx="67.73333"
         cy="67.73333"
         r="52.916664"
         transform="matrix(1.02,0,0,1.02,-1.3546639,-1.3546639)" />
      <circle
         style="display:inline;opacity:1;mix-blend-mode:normal;fill:#ffffff;fill-opacity:1;stroke-width:1.03758;stroke-linecap:round;stroke-linejoin:round;paint-order:markers stroke fill;filter:url(#filter11)"
         id="circle10"
         cx="67.73333"
         cy="67.73333"
         r="52.916664"
         transform="matrix(1.02,0,0,1.02,-1.3546639,-1.3546639)" />
      <circle
         style="display:inline;opacity:1;mix-blend-mode:normal;fill:#ffffff;fill-opacity:1;stroke-width:1.03758;stroke-linecap:round;stroke-linejoin:round;paint-order:markers stroke fill;filter:url(#filter13)"
         id="circle12"
         cx="67.73333"
         cy="67.73333"
         r="52.916664"
         transform="matrix(1.02,0,0,1.02,-1.3546639,-1.3546639)" />
      <circle
         style="display:inline;opacity:1;mix-blend-mode:normal;fill:#ffffff;fill-opacity:1;stroke-width:1.03758;stroke-linecap:round;stroke-linejoin:round;paint-order:markers stroke fill;filter:url(#filter14)"
         id="circle13"
         cx="67.73333"
         cy="67.73333"
         r="52.916664"
         transform="matrix(1.02,0,0,1.02,-1.3546639,-1.3546639)" />
    </g>
    <g
       id="g1"
       style="display:none">
      <circle
         style="opacity:1;fill:url(#radialGradient22);stroke-width:1.05833;stroke-linecap:round;stroke-linejoin:round;paint-order:markers stroke fill"
         id="path21"
         cx="67.73333"
         cy="67.73333"
         r="51.329166" />
      <path
         id="circle3"
         style="opacity:1;mix-blend-mode:color-burn;fill:#ffaaaa;stroke-width:1.05833;stroke-linecap:round;stroke-linejoin:round;paint-order:markers stroke fill"
         d="m 68.251766,19.584551 c -3.14063,0.03501 -6.32144,0.388649 -9.36894,1.00769 -9.65833,1.957387 -18.79692,6.985142 -25.63719,14.157792 -7.96087,8.257549 -12.86542,19.426784 -13.5723,30.892171 -0.37883,6.070683 0.38808,12.356218 2.24999,18.145662 2.74225,8.618974 8.00042,16.460754 14.86627,22.331964 -4.27222,-4.97833 -7.58949,-10.801033 -9.5746,-17.040297 -1.86191,-5.789444 -2.62883,-12.074979 -2.25,-18.145662 0.70688,-11.465388 5.61144,-22.634622 13.5723,-30.892171 6.84027,-7.17265 15.97887,-12.200405 25.6372,-14.157792 3.04749,-0.619042 6.22831,-0.972681 9.36893,-1.007691 7.38716,-0.111531 14.70788,1.510732 21.3925,4.640544 4.01522,1.859411 7.755824,4.285914 11.111974,7.161837 -4.51503,-5.24042 -10.119864,-9.543556 -16.403644,-12.453504 -6.68461,-3.129812 -14.00534,-4.752074 -21.39249,-4.640543 z"
         inkscape:transform-center-x="4.9197989"
         inkscape:transform-center-y="-4.8838339" />
      <path
         id="path4"
         style="opacity:0.4;mix-blend-mode:overlay;fill:#ffffff;stroke-width:1.05833;stroke-linecap:round;stroke-linejoin:round;paint-order:markers stroke fill;filter:url(#filter4)"
         inkscape:transform-center-x="-4.9197969"
         inkscape:transform-center-y="4.8838344"
         d="m 107.68945,41.832031 c 4.89168,11.545501 5.2948,24.941023 0.94328,36.716307 -4.06758,11.287966 -12.326183,21.00372 -22.847394,26.783632 -11.563832,6.45477 -25.727956,8.09576 -38.433375,4.31399 -2.319902,-0.67237 -4.588708,-1.51978 -6.787508,-2.51901 3.745002,2.41851 7.87873,4.32894 12.11743,5.61999 4.814374,1.46663 9.926502,2.2023 14.973816,2.06398 7.840238,-0.16033 15.768137,-2.27753 22.636877,-6.18131 8.41324,-4.71536 15.322464,-11.977044 19.547514,-20.625972 4.42619,-8.871559 5.96664,-19.128306 4.37675,-28.912192 -1.01056,-6.471424 -3.42144,-12.809644 -7.002,-18.341446 0.15821,0.360677 0.31641,0.721354 0.47461,1.082031 z" />
    </g>
    <g
       id="g3"
       transform="translate(330.735,-8.3118716)"
       style="display:none;opacity:0.4">
      <circle
         style="opacity:1;fill:#333333;stroke-width:1.05833;stroke-linecap:round;stroke-linejoin:round;paint-order:markers stroke fill"
         id="circle1"
         cx="-132.19818"
         cy="239.74234"
         r="52.916664"
         transform="rotate(45)" />
      <ellipse
         style="opacity:1;fill:#4d4d4d;stroke-width:1.05833;stroke-linecap:round;stroke-linejoin:round;paint-order:markers stroke fill"
         id="circle2"
         cx="-132.19818"
         cy="239.74234"
         rx="39.6875"
         ry="52.916664"
         transform="rotate(45)" />
      <ellipse
         style="opacity:1;fill:#666666;stroke-width:1.05833;stroke-linecap:round;stroke-linejoin:round;paint-order:markers stroke fill"
         id="ellipse2"
         cx="-132.19818"
         cy="239.74234"
         rx="26.458334"
         ry="52.916664"
         transform="rotate(45)" />
      <ellipse
         style="opacity:1;fill:#999999;stroke-width:1.05833;stroke-linecap:round;stroke-linejoin:round;paint-order:markers stroke fill"
         id="ellipse3"
         cx="-132.19818"
         cy="239.74234"
         rx="13.229166"
         ry="52.916664"
         transform="rotate(45)" />
    </g>
    <circle
       style="display:inline;opacity:1;mix-blend-mode:normal;fill:url(#radialGradient4);stroke-width:1.05833;stroke-linecap:round;stroke-linejoin:round;paint-order:markers stroke fill"
       id="circle14"
       cx="67.733337"
       cy="67.73333"
       r="52.916664" />
    <circle
       style="display:inline;mix-blend-mode:screen;fill:url(#radialGradient6);stroke-width:1.05833;stroke-linecap:round;stroke-linejoin:round;paint-order:markers stroke fill"
       id="path5"
       cx="67.733337"
       cy="67.73333"
       r="52.916664" />
    <circle
       style="display:inline;opacity:1;mix-blend-mode:color;fill:url(#radialGradient4);stroke-width:1.05833;stroke-linecap:round;stroke-linejoin:round;paint-order:markers stroke fill"
       id="circle4"
       cx="67.733337"
       cy="67.73333"
       r="52.916664" />
    <circle
       style="display:inline;opacity:0.8;mix-blend-mode:multiply;fill:url(#radialGradient7);stroke-width:1.05833;stroke-linecap:round;stroke-linejoin:round;paint-order:markers stroke fill"
       id="circle7"
       cx="67.73333"
       cy="67.73333"
       r="52.916664" />
    <path
       id="path14"
       style="display:none;opacity:1;mix-blend-mode:normal;fill:url(#linearGradient16);stroke-width:1.05833;stroke-linecap:round;stroke-linejoin:round;paint-order:markers stroke fill"
       d="M 67.733331,4.233334 A 63.499999,63.499999 0 0 0 4.2333304,67.733333 63.499999,63.499999 0 0 0 67.733331,131.23333 63.499999,63.499999 0 0 0 131.23333,67.733333 63.499999,63.499999 0 0 0 125.28021,40.907064 V 12.535153 c 0,-1.30122 -1.04747,-2.348694 -2.3487,-2.348694 H 94.559601 A 63.499999,63.499999 0 0 0 67.733331,4.233334 Z m 0,5.2916659 a 58.208332,58.208332 0 0 1 24.59075,5.4570321 h 26.007709 c 1.1928,0 2.15284,0.960572 2.15284,2.153356 V 43.142586 A 58.208332,58.208332 0 0 1 125.94167,67.733333 58.208332,58.208332 0 0 1 67.733331,125.94166 58.208332,58.208332 0 0 1 9.5250004,67.733333 58.208332,58.208332 0 0 1 67.733331,9.5249999 Z" />
    <circle
       style="display:inline;opacity:1;mix-blend-mode:multiply;fill:url(#radialGradient16);stroke-width:1.05833;stroke-linecap:round;stroke-linejoin:round;paint-order:markers stroke fill;filter:url(#filter18)"
       id="circle16"
       cx="261.26743"
       cy="58.915737"
       r="52.916664"
       clip-path="url(#clipPath17)"
       transform="translate(-193.53409,8.8175953)" />
    <path
       id="circle20"
       style="display:inline;opacity:1;fill:url(#linearGradient23);stroke-width:1.05833;stroke-linecap:round;stroke-linejoin:round;paint-order:markers stroke fill"
       d="m 23.867086,92.570663 c -6.43271,-11.141787 -8.61497,-24.737571 -5.02207,-38.146463 3.5929,-13.408891 12.28069,-24.092053 23.42248,-30.524767 11.14178,-6.432714 24.73757,-8.61498 38.14646,-5.022079 C 93.822846,22.470255 104.506,31.158045 110.9387,42.299833 92.212016,39.355385 85.202836,58.207266 65.769266,56.167191 49.165696,54.4242 61.447456,84.188249 23.867086,92.570663 Z"
       sodipodi:nodetypes="cssscsc"
       inkscape:transform-center-x="3.7041847"
       inkscape:transform-center-y="-12.872031" />
  </g>
  <g
     inkscape:label="B&amp;W"
     inkscape:groupmode="layer"
     id="g27"
     style="display:inline">
    <path
       id="path2"
       style="display:inline;opacity:1;fill:#7a7a7a;fill-opacity:1;stroke-width:1.05833;stroke-linecap:round;stroke-linejoin:round;paint-order:markers stroke fill"
       d="M 67.733332,0 A 67.73333,67.73333 0 0 0 0,67.733332 67.73333,67.73333 0 0 0 67.733332,135.46666 67.73333,67.73333 0 0 0 135.46666,67.733332 67.73333,67.73333 0 0 0 129.11667,39.118542 V 8.8552733 c 0,-1.3879678 -1.11731,-2.5052734 -2.50528,-2.5052734 H 96.347606 A 67.73333,67.73333 0 0 0 67.733332,0 Z" />
    <path
       id="path34"
       style="display:inline;opacity:1;fill:url(#linearGradient35);stroke-width:1.05833;stroke-linecap:round;stroke-linejoin:round;paint-order:markers stroke fill"
       d="M 67.733332,0 A 67.73333,67.73333 0 0 0 0,67.733332 67.73333,67.73333 0 0 0 67.733332,135.46666 67.73333,67.73333 0 0 0 135.46666,67.733332 67.73333,67.73333 0 0 0 129.11667,39.118542 V 8.8552733 c 0,-1.3879678 -1.11731,-2.5052734 -2.50528,-2.5052734 H 96.347606 A 67.73333,67.73333 0 0 0 67.733332,0 Z" />
    <g
       id="g17"
       style="display:inline;mix-blend-mode:normal;opacity:0.68">
      <circle
         style="display:inline;opacity:1;mix-blend-mode:normal;fill:#ffffff;stroke-width:1.03758;stroke-linecap:round;stroke-linejoin:round;paint-order:markers stroke fill;filter:url(#filter5-7)"
         id="circle9"
         cx="67.73333"
         cy="67.73333"
         r="52.916664"
         transform="matrix(1.02,0,0,1.02,-1.3546639,-1.3546639)" />
      <circle
         style="display:inline;opacity:1;mix-blend-mode:normal;fill:#ffffff;fill-opacity:1;stroke-width:1.03758;stroke-linecap:round;stroke-linejoin:round;paint-order:markers stroke fill;filter:url(#filter11-3)"
         id="circle11"
         cx="67.73333"
         cy="67.73333"
         r="52.916664"
         transform="matrix(1.02,0,0,1.02,-1.3546639,-1.3546639)" />
      <circle
         style="display:inline;opacity:1;mix-blend-mode:normal;fill:#ffffff;fill-opacity:1;stroke-width:1.03758;stroke-linecap:round;stroke-linejoin:round;paint-order:markers stroke fill;filter:url(#filter13-6)"
         id="circle15"
         cx="67.73333"
         cy="67.73333"
         r="52.916664"
         transform="matrix(1.02,0,0,1.02,-1.3546639,-1.3546639)" />
      <circle
         style="display:inline;opacity:1;mix-blend-mode:normal;fill:#ffffff;fill-opacity:1;stroke-width:1.03758;stroke-linecap:round;stroke-linejoin:round;paint-order:markers stroke fill;filter:url(#filter14-9)"
         id="circle17"
         cx="67.73333"
         cy="67.73333"
         r="52.916664"
         transform="matrix(1.02,0,0,1.02,-1.3546639,-1.3546639)" />
    </g>
    <circle
       style="display:inline;opacity:1;mix-blend-mode:normal;fill:url(#radialGradient4-2);stroke-width:1.05833;stroke-linecap:round;stroke-linejoin:round;paint-order:markers stroke fill"
       id="circle23"
       cx="67.733337"
       cy="67.73333"
       r="52.916664" />
    <circle
       style="display:inline;opacity:0.8;mix-blend-mode:multiply;fill:url(#radialGradient7-7);stroke-width:1.05833;stroke-linecap:round;stroke-linejoin:round;paint-order:markers stroke fill"
       id="circle26"
       cx="67.73333"
       cy="67.73333"
       r="52.916664" />
    <circle
       style="display:inline;opacity:1;mix-blend-mode:multiply;fill:url(#radialGradient16-0);stroke-width:1.05833;stroke-linecap:round;stroke-linejoin:round;paint-order:markers stroke fill;filter:url(#filter18-2)"
       id="circle27"
       cx="261.26743"
       cy="58.915737"
       r="52.916664"
       clip-path="url(#clipPath17-0)"
       transform="translate(-193.53409,8.8175953)" />
    <path
       id="path27"
       style="display:none;opacity:1;fill:url(#linearGradient39);stroke-width:1.05833;stroke-linecap:round;stroke-linejoin:round;paint-order:markers stroke fill"
       d="m 23.867086,92.570663 c -6.43271,-11.141787 -8.61497,-24.737571 -5.02207,-38.146463 3.5929,-13.408891 12.28069,-24.092053 23.42248,-30.524767 11.14178,-6.432714 24.73757,-8.61498 38.14646,-5.022079 13.40889,3.592901 24.092044,12.280691 30.524744,23.422479 -18.726684,-2.944448 -37.077479,3.08559 -46.390041,16.835864 -9.361778,13.82294 -3.101203,25.052552 -40.681573,33.434966 z"
       sodipodi:nodetypes="cssscsc"
       inkscape:transform-center-x="3.7041847"
       inkscape:transform-center-y="-12.872031"
       sodipodi:insensitive="true" />
    <path
       id="path37"
       style="display:inline;opacity:1;fill:url(#linearGradient38);stroke-width:1.05833;stroke-linecap:round;stroke-linejoin:round;paint-order:markers stroke fill"
       d="m 38.468774,26.603491 c 8.279569,-5.999926 18.460169,-9.537305 29.466968,-9.537306 13.881905,-1e-6 26.449613,5.626754 35.546848,14.723987 9.09723,9.097225 14.72398,21.664937 14.72398,35.546842 0,11.006803 -3.53738,21.187404 -9.53732,29.466968 -2.5899,3.573898 -5.50857,2.492905 -6.556,-1.796042 C 98.360595,79.641802 88.668455,67.093245 75.213759,62.431939 60.62517,57.377802 46.33929,56.223256 36.270672,38.783899 34.06187,34.95814 33.471253,30.225027 38.468774,26.603491 Z"
       sodipodi:nodetypes="cssscscsc"
       inkscape:transform-center-x="-8.6864563"
       inkscape:transform-center-y="-9.7241707" />
    <path
       style="color:#000000;mix-blend-mode:normal;fill:url(#linearGradient37);stroke-linecap:round;stroke-linejoin:round;-inkscape-stroke:none;paint-order:markers stroke fill;filter:url(#filter33)"
       d="m 225.24023,-32.728516 c -38.266,-5e-6 -69.32226,31.0543125 -69.32226,69.320313 0,38.265998 31.05627,69.320323 69.32226,69.320313 38.26599,-1e-5 69.32031,-31.054323 69.32032,-69.320313 -0.003,-9.986069 -2.18155,-19.846794 -6.34961,-28.9179689 V -22.287109 c 0,-2.239921 -1.85383,-4.091797 -4.09375,-4.091797 h -29.96094 c -9.07102,-4.168005 -18.93011,-6.346739 -28.91602,-6.34961 z m -0.002,3.173829 h 0.002 c 9.65486,0.0031 19.19364,2.119649 27.94336,6.201171 a 1.5876587,1.5876587 0 0 0 0.66993,0.148438 h 30.26367 c 0.53602,0 0.91797,0.381956 0.91797,0.917969 V 7.9765625 a 1.5876587,1.5876587 0 0 0 0.14843,0.671875 c 4.08187,8.7504735 6.19848,18.2876655 6.20118,27.9433595 -10e-6,36.550095 -29.59444,66.144523 -66.14454,66.144533 -36.5501,0 -66.14648,-29.594431 -66.14648,-66.144533 0,-36.5494471 29.59533,-66.145425 66.14453,-66.146484 z"
       id="path31"
       clip-path="url(#clipPath32)"
       transform="translate(-157.50593,31.141535)" />
  </g>
  <g
     inkscape:groupmode="layer"
     id="layer2"
     inkscape:label="B&amp;W-Tint"
     style="display:inline;mix-blend-mode:soft-light;opacity:0.42">
    <path
       id="path39"
       style="display:inline;opacity:1;fill:#55ddff;fill-opacity:1;stroke-width:1.05833;stroke-linecap:round;stroke-linejoin:round;paint-order:markers stroke fill"
       d="M 67.733332,0 A 67.73333,67.73333 0 0 0 0,67.733332 67.73333,67.73333 0 0 0 67.733332,135.46666 67.73333,67.73333 0 0 0 135.46666,67.733332 67.73333,67.73333 0 0 0 129.11667,39.118542 V 8.8552733 c 0,-1.3879678 -1.11731,-2.5052734 -2.50528,-2.5052734 H 96.347606 A 67.73333,67.73333 0 0 0 67.733332,0 Z" />
    <circle
       style="display:inline;opacity:0.68;mix-blend-mode:normal;fill:url(#radialGradient4);stroke-width:1.05833;stroke-linecap:round;stroke-linejoin:round;paint-order:markers stroke fill"
       id="circle39"
       cx="67.733337"
       cy="67.73333"
       r="52.916664" />
  </g>
</svg>
