<?xml version="1.0" encoding="UTF-8" standalone="no"?>
<!-- Created with Inkscape (http://www.inkscape.org/) -->

<svg
   width="512"
   height="512"
   viewBox="0 0 135.46666 135.46667"
   version="1.1"
   id="svg5"
   inkscape:version="1.4 (e7c3feb100, 2024-10-09)"
   sodipodi:docname="ms-excel.svg"
   xmlns:inkscape="http://www.inkscape.org/namespaces/inkscape"
   xmlns:sodipodi="http://sodipodi.sourceforge.net/DTD/sodipodi-0.dtd"
   xmlns:xlink="http://www.w3.org/1999/xlink"
   xmlns="http://www.w3.org/2000/svg"
   xmlns:svg="http://www.w3.org/2000/svg">
  <sodipodi:namedview
     id="namedview7"
     pagecolor="#242424"
     bordercolor="#666666"
     borderopacity="1"
     inkscape:showpageshadow="0"
     inkscape:pageopacity="0"
     inkscape:pagecheckerboard="1"
     inkscape:deskcolor="#000000"
     inkscape:document-units="px"
     showgrid="false"
     inkscape:zoom="0.92187498"
     inkscape:cx="388.33899"
     inkscape:cy="210.98306"
     inkscape:window-width="3256"
     inkscape:window-height="1080"
     inkscape:window-x="1864"
     inkscape:window-y="0"
     inkscape:window-maximized="0"
     inkscape:current-layer="layer1" />
  <defs
     id="defs2">
    <linearGradient
       id="linearGradient5"
       inkscape:collect="always">
      <stop
         style="stop-color:#000000;stop-opacity:1;"
         offset="0"
         id="stop5" />
      <stop
         style="stop-color:#ffffff;stop-opacity:0;"
         offset="1"
         id="stop6" />
    </linearGradient>
    <linearGradient
       inkscape:collect="always"
       xlink:href="#linearGradient5"
       id="linearGradient6"
       x1="-197.45988"
       y1="121.55812"
       x2="-61.993225"
       y2="53.824791"
       gradientUnits="userSpaceOnUse"
       gradientTransform="translate(197.45989,13.908543)" />
  </defs>
  <g
     inkscape:label="Layer 1"
     inkscape:groupmode="layer"
     id="layer1">
    <rect
       style="display:inline;opacity:1;fill:#008000;fill-opacity:1;stroke:none;stroke-width:8.46667;stroke-linecap:round;stroke-linejoin:round;stroke-miterlimit:1;paint-order:fill markers stroke"
       id="rect3"
       width="135.46666"
       height="135.46666"
       x="0"
       y="0"
       ry="12.582506" />
    <path
       id="rect4"
       style="display:inline;opacity:0.2;mix-blend-mode:soft-light;fill:#000000;fill-opacity:1;stroke-width:8.46668;stroke-linecap:round;stroke-linejoin:round;stroke-miterlimit:1;paint-order:fill markers stroke"
       d="M 16.933333,0 0,19.352307 V 38.704614 L 33.866666,0 Z M 50.799999,0 0,58.056921 V 77.409744 L 67.733332,0 Z M 84.666666,0 0,96.762051 V 116.11436 L 101.6,0 Z M 118.53333,0 3.4432006,131.5315 c 2.2904921,2.42088 5.5283007,3.93516 9.1394934,3.93516 h 4.350639 L 132.02346,3.9351603 C 129.73297,1.5142859 126.49516,0 122.88397,0 Z M 135.46666,19.352307 33.866666,135.46666 H 50.799999 L 135.46666,38.704614 Z m 0,38.704614 -67.733328,77.409739 H 84.666666 L 135.46666,77.409744 Z m 0,38.70513 L 101.6,135.46666 h 16.93333 l 16.93333,-19.3523 z" />
    <rect
       style="display:inline;opacity:1;mix-blend-mode:soft-light;fill:url(#linearGradient6);stroke:none;stroke-width:8.46667;stroke-linecap:round;stroke-linejoin:round;stroke-miterlimit:1;paint-order:fill markers stroke"
       id="rect5"
       width="135.46666"
       height="135.46666"
       x="2.7270507e-06"
       y="2.7270507e-06"
       ry="12.582506" />
    <text
       xml:space="preserve"
       style="font-size:111.152px;line-height:1.25;font-family:Aharoni;-inkscape-font-specification:'Aharoni, Normal';font-variant-ligatures:none;text-align:center;text-orientation:upright;text-anchor:middle;display:none;fill:#ffffff;stroke:#000000;stroke-width:2.11667;stroke-dasharray:none;stroke-opacity:1;paint-order:markers stroke fill"
       x="67.73333"
       y="104.77496"
       id="text3"
       sodipodi:insensitive="true"><tspan
         sodipodi:role="line"
         id="tspan3"
         style="fill:#ffffff;stroke:#000000;stroke-width:2.11667;stroke-dasharray:none;stroke-opacity:1;paint-order:markers stroke fill"
         x="0"
         y="0">X</tspan></text>
    <text
       xml:space="preserve"
       style="font-size:24.6128px;line-height:1.25;font-family:Aharoni;-inkscape-font-specification:'Aharoni, Normal';font-variant-ligatures:none;text-align:center;text-orientation:upright;text-anchor:middle;display:none;fill:#ffffff;stroke:#000000;stroke-width:2.11667;stroke-dasharray:none;stroke-opacity:1;paint-order:markers stroke fill"
       x="22.603559"
       y="129.74236"
       id="text1"
       sodipodi:insensitive="true"><tspan
         sodipodi:role="line"
         style="fill:#ffffff;stroke:#000000;stroke-width:2.11667;stroke-dasharray:none;stroke-opacity:1;paint-order:markers stroke fill"
         x="0"
         y="0"
         id="tspan2">MS</tspan></text>
    <path
       d="M 107.21726,104.77496 H 83.988224 L 68.140381,80.677557 51.532709,104.77496 H 28.249404 L 57.23142,65.263901 33.513927,30.691721 H 57.23142 L 68.248927,49.904518 79.754896,30.691721 h 23.663224 l -24.151685,34.57218 z"
       id="text2"
       style="font-size:111.152px;line-height:1.25;font-family:Aharoni;-inkscape-font-specification:'Aharoni, Normal';font-variant-ligatures:none;text-align:center;text-orientation:upright;text-anchor:middle;fill:#ffffff;stroke:#000000;stroke-width:2.11667;paint-order:markers stroke fill"
       aria-label="X" />
    <path
       d="m 25.85442,129.74236 h -4.266379 l -1.213815,-9.44613 -3.96593,9.44613 h -1.694533 l -3.78566,-9.44613 -1.3940848,9.44613 H 5.2916751 l 2.7881688,-16.40453 h 4.2062891 l 3.328977,8.74908 3.521265,-8.74908 h 4.242343 z m 14.073041,-5.43213 q 0,4.15822 -3.653462,5.42011 -1.273905,0.44466 -2.740097,0.44466 -3.0766,0 -5.708536,-1.86278 l 1.826732,-3.43714 q 1.922875,1.73059 3.761624,1.73059 0.82924,0 1.406102,-0.38458 0.673007,-0.43265 0.673007,-1.22583 0,-0.72108 -0.745114,-1.2018 -0.552827,-0.36054 -1.862786,-0.7331 -1.586371,-0.4687 -1.994982,-0.64897 -0.648971,-0.27641 -1.105654,-0.64897 -1.309958,-1.08161 -1.309958,-3.26888 0,-2.28342 1.35803,-3.78566 1.586372,-1.76665 4.230325,-1.76665 2.655972,0 5.203781,1.334 l -1.706552,3.31696 q -1.394084,-1.08162 -2.812204,-1.08162 -0.685025,0 -1.225833,0.34852 -0.612917,0.3966 -0.612917,1.05758 0,0.64897 0.805204,1.11767 0.360539,0.21633 2.163235,0.74512 2.259378,0.66099 3.220815,1.8748 0.82924,1.03355 0.82924,2.65597 z"
       id="text4"
       style="font-size:24.6128px;line-height:1.25;font-family:Aharoni;-inkscape-font-specification:'Aharoni, Normal';font-variant-ligatures:none;text-align:center;text-orientation:upright;text-anchor:middle;fill:#ffffff;stroke:#000000;stroke-width:2.11667;paint-order:markers stroke fill"
       aria-label="MS" />
  </g>
</svg>
