<?xml version="1.0" encoding="UTF-8" standalone="no"?>
<!-- Created with Inkscape (http://www.inkscape.org/) -->

<svg
   width="512"
   height="512"
   viewBox="0 0 135.46666 135.46667"
   version="1.1"
   id="svg5"
   inkscape:version="1.4.1 (93de688d07, 2025-03-30)"
   sodipodi:docname="mugshot.svg"
   xmlns:inkscape="http://www.inkscape.org/namespaces/inkscape"
   xmlns:sodipodi="http://sodipodi.sourceforge.net/DTD/sodipodi-0.dtd"
   xmlns:xlink="http://www.w3.org/1999/xlink"
   xmlns="http://www.w3.org/2000/svg"
   xmlns:svg="http://www.w3.org/2000/svg"
   xmlns:rdf="http://www.w3.org/1999/02/22-rdf-syntax-ns#"
   xmlns:cc="http://creativecommons.org/ns#"
   xmlns:dc="http://purl.org/dc/elements/1.1/">
  <sodipodi:namedview
     id="namedview7"
     pagecolor="#242424"
     bordercolor="#666666"
     borderopacity="1"
     inkscape:showpageshadow="0"
     inkscape:pageopacity="0"
     inkscape:pagecheckerboard="1"
     inkscape:deskcolor="#000000"
     inkscape:document-units="px"
     showgrid="false"
     inkscape:zoom="5.2149125"
     inkscape:cx="123.492"
     inkscape:cy="442.2893"
     inkscape:window-width="3233"
     inkscape:window-height="1080"
     inkscape:window-x="1887"
     inkscape:window-y="0"
     inkscape:window-maximized="1"
     inkscape:current-layer="layer1" />
  <defs
     id="defs2">
    <linearGradient
       id="linearGradient18"
       inkscape:collect="always">
      <stop
         style="stop-color:#ffcc00;stop-opacity:1;"
         offset="0"
         id="stop18" />
      <stop
         style="stop-color:#ffe26f;stop-opacity:1;"
         offset="0.18000001"
         id="stop23" />
      <stop
         style="stop-color:#ffcc00;stop-opacity:1;"
         offset="0.5"
         id="stop20" />
      <stop
         style="stop-color:#ff8b00;stop-opacity:1;"
         offset="0.82666665"
         id="stop19" />
      <stop
         style="stop-color:#af5f00;stop-opacity:1;"
         offset="1"
         id="stop24" />
    </linearGradient>
    <linearGradient
       id="linearGradient16"
       inkscape:collect="always">
      <stop
         style="stop-color:#ffffff;stop-opacity:0;"
         offset="0.58333331"
         id="stop17" />
      <stop
         style="stop-color:#ffffff;stop-opacity:1;"
         offset="1"
         id="stop16" />
    </linearGradient>
    <linearGradient
       id="linearGradient27"
       inkscape:collect="always">
      <stop
         style="stop-color:#00ff4a;stop-opacity:0;"
         offset="0.70666665"
         id="stop28" />
      <stop
         style="stop-color:#f000ff;stop-opacity:1;"
         offset="1"
         id="stop27" />
    </linearGradient>
    <linearGradient
       id="linearGradient21"
       inkscape:collect="always">
      <stop
         style="stop-color:#009cff;stop-opacity:1;"
         offset="0"
         id="stop22" />
      <stop
         style="stop-color:#0000ff;stop-opacity:1;"
         offset="1"
         id="stop21" />
    </linearGradient>
    <linearGradient
       id="linearGradient6"
       inkscape:collect="always">
      <stop
         style="stop-color:#616161;stop-opacity:1;"
         offset="0"
         id="stop6" />
      <stop
         style="stop-color:#000000;stop-opacity:1;"
         offset="0.62"
         id="stop1" />
      <stop
         style="stop-color:#474747;stop-opacity:1;"
         offset="1"
         id="stop7" />
    </linearGradient>
    <filter
       inkscape:collect="always"
       style="color-interpolation-filters:sRGB"
       id="filter6"
       x="-0.073756129"
       y="-0.065032229"
       width="1.1475123"
       height="1.1300645">
      <feGaussianBlur
         inkscape:collect="always"
         stdDeviation="1.3326205"
         id="feGaussianBlur6" />
    </filter>
    <linearGradient
       inkscape:collect="always"
       xlink:href="#linearGradient6"
       id="linearGradient8"
       gradientUnits="userSpaceOnUse"
       x1="173.00945"
       y1="109.58955"
       x2="173.0096"
       y2="44.850349"
       gradientTransform="translate(-105.27611,15.017829)" />
    <radialGradient
       inkscape:collect="always"
       xlink:href="#linearGradient21"
       id="radialGradient22"
       cx="67.733332"
       cy="67.733332"
       fx="67.733332"
       fy="67.733332"
       r="67.73333"
       gradientUnits="userSpaceOnUse" />
    <filter
       inkscape:collect="always"
       style="color-interpolation-filters:sRGB"
       id="filter22"
       x="-0.058942812"
       y="-0.083545059"
       width="1.1178856"
       height="1.1670901">
      <feGaussianBlur
         inkscape:collect="always"
         stdDeviation="2.2536002"
         id="feGaussianBlur22" />
    </filter>
    <filter
       inkscape:collect="always"
       style="color-interpolation-filters:sRGB"
       id="filter24"
       x="-0.069119998"
       y="-0.069119998"
       width="1.13824"
       height="1.13824">
      <feGaussianBlur
         inkscape:collect="always"
         stdDeviation="3.5715936"
         id="feGaussianBlur24" />
    </filter>
    <radialGradient
       inkscape:collect="always"
       xlink:href="#linearGradient27"
       id="radialGradient28"
       cx="205.49603"
       cy="92.237778"
       fx="205.49603"
       fy="92.237778"
       r="81.007784"
       gradientTransform="matrix(1,0,0,1.0102832,-137.76286,-25.452951)"
       gradientUnits="userSpaceOnUse" />
    <filter
       inkscape:collect="always"
       style="color-interpolation-filters:sRGB"
       id="filter3"
       x="-0.046275255"
       y="-0.136512"
       width="1.0925505"
       height="1.273024">
      <feGaussianBlur
         inkscape:collect="always"
         stdDeviation="2.6119809"
         id="feGaussianBlur3" />
    </filter>
    <radialGradient
       inkscape:collect="always"
       xlink:href="#linearGradient16"
       id="radialGradient17"
       cx="317.80975"
       cy="106.34247"
       fx="317.80975"
       fy="106.34247"
       r="87.822968"
       gradientUnits="userSpaceOnUse"
       gradientTransform="translate(-250.07654,-38.609016)" />
    <linearGradient
       inkscape:collect="always"
       xlink:href="#linearGradient18"
       id="linearGradient19"
       x1="5.7265664"
       y1="111.93219"
       x2="27.998289"
       y2="111.93219"
       gradientUnits="userSpaceOnUse" />
  </defs>
  <g
     inkscape:label="Layer 1"
     inkscape:groupmode="layer"
     id="layer1">
    <rect
       style="fill:url(#radialGradient22);stroke-width:6.00001;stroke-linecap:round;stroke-miterlimit:12;paint-order:markers stroke fill"
       id="rect2"
       width="135.46666"
       height="135.46666"
       x="2.7270507e-06"
       y="1.7733764e-06"
       ry="16.072317" />
    <path
       id="path26"
       style="display:inline;opacity:0.4;fill:url(#radialGradient28);stroke:none;stroke-width:2.11667;stroke-linecap:round;stroke-miterlimit:12;stroke-dasharray:none;stroke-opacity:1;paint-order:markers stroke fill"
       d="M 24.000087,-5.0000009e-7 40.935997,36.807571 5.8818075,14.139187 33.308557,45.610134 -2.5000001e-6,35.727017 v 2.29495 L 28.470097,56.204836 -2.5000001e-6,56.123704 v 3.819405 L 26.812827,67.733331 -2.5000001e-6,75.523551 v 3.81941 L 28.470097,79.261831 -2.5000001e-6,97.444695 v 2.29496 L 33.308557,89.856531 5.8818075,121.32748 40.935997,98.659095 24.000087,135.46667 h 0.44803 l 26.28625,-30.5108 -4.47569,30.5108 h 3.30884 l 12.34188,-27.22934 3.83646,27.22934 h 3.97495 l 3.83594,-27.22934 12.34188,27.22934 h 3.30884 l -4.47517,-30.5108 26.286253,30.5108 h 0.44803 L 94.530147,98.659095 129.58434,121.32748 102.15759,89.856531 l 33.30908,9.883124 v -2.29496 l -28.47062,-18.182864 28.47062,0.08113 v -3.81889 l -26.81284,-7.79074 26.81284,-7.790738 v -3.818889 l -28.47062,0.08113 28.47062,-18.182869 v -2.29495 L 102.15759,45.610134 129.58434,14.139187 94.530147,36.807571 111.46658,-5.0000009e-7 h -0.44803 L 84.732297,30.510798 89.207467,-5.0000009e-7 h -3.30884 L 73.556747,27.229344 69.720807,-5.0000009e-7 h -3.97495 L 61.909397,27.229344 49.567517,-5.0000009e-7 h -3.30884 L 50.734367,30.510798 24.448117,-5.000001e-7 Z" />
    <path
       id="path16"
       style="display:inline;opacity:0.1;fill:url(#radialGradient17);stroke-width:2.11667;stroke-linecap:round;stroke-miterlimit:12;paint-order:markers stroke fill"
       d="M 18.146692,-1.0000001e-6 39.215172,34.343122 5.6332525,5.633247 34.342602,39.215176 2.4999999e-6,18.147211 v 0.7953 L 30.292722,44.789512 2.4999999e-6,32.225421 v 2.075843 L 27.164232,50.929189 2.4999999e-6,44.393671 v 2.73265 L 25.035162,57.482277 2.4999999e-6,55.49997 v 3.048909 L 23.957192,64.288064 2.4999999e-6,66.161854 v 3.14296 L 23.957192,71.178594 2.4999999e-6,76.918304 v 3.04839 L 25.035162,77.984384 2.4999999e-6,88.340346 v 2.73265 L 27.164232,84.537474 2.4999999e-6,101.16592 v 2.07584 L 30.292722,90.677156 2.4999999e-6,116.52416 v 0.7953 L 34.342602,96.251486 5.6332525,129.83342 39.215172,101.12406 18.147212,135.46667 h 0.7953 l 25.847,-30.29272 -12.56461,30.29272 h 2.07585 l 16.62844,-27.16423 -6.53552,27.16423 h 2.73265 l 10.35596,-25.03516 -1.98231,25.03516 h 3.04839 l 5.7397,-23.95719 1.87379,23.95719 h 3.14296 l 1.87379,-23.95719 5.73918,23.95719 h 3.04891 l -1.98231,-25.03516 10.35596,25.03516 h 2.73265 l -6.53552,-27.16423 16.627928,27.16423 h 2.07584 l -12.564088,-30.29272 25.846998,30.29272 h 0.7953 l -21.067958,-34.34261 33.581918,28.70936 -28.70987,-33.581934 34.34312,21.068484 v -0.7953 l -30.29272,-25.847514 30.29272,12.564604 v -2.07532 l -27.16475,-16.628966 27.16475,6.535522 v -2.73265 l -25.03516,-10.355962 25.03516,1.98231 v -3.04839 l -23.95719,-5.73971 23.95719,-1.87378 v -3.14296 l -23.95719,-1.87379 23.95719,-5.739185 V 55.49997 l -25.03516,1.982307 25.03516,-10.355956 v -2.73265 l -27.16475,6.535518 27.16475,-16.628442 V 32.224905 L 105.17394,44.789512 135.46666,18.941995 V 18.146694 L 101.12354,39.215176 129.83341,5.633247 96.251492,34.343122 117.31997,-1.0000001e-6 h -0.7953 L 90.677152,30.292723 103.24176,-1.0000001e-6 h -2.07585 L 84.537472,27.164749 91.072992,-1.0000001e-6 h -2.73265 L 77.984382,25.035163 79.966692,-1.0000001e-6 h -3.04891 L 71.178602,23.957192 69.304812,-1.0000001e-6 h -3.14296 L 64.288062,23.957192 58.548362,-1.0000001e-6 h -3.04839 L 57.482282,25.035163 47.126322,-1.0000001e-6 h -2.73265 L 50.929192,27.164749 34.300232,-1.0000001e-6 h -2.07533 L 44.789512,30.292723 18.941992,-1.0000001e-6 Z" />
    <path
       style="baseline-shift:baseline;display:inline;overflow:visible;vector-effect:none;fill:#00ffff;stroke-linecap:round;stroke-miterlimit:12;paint-order:markers stroke fill;enable-background:accumulate;stop-color:#000000;filter:url(#filter24);opacity:0.6"
       d="m 19.177734,5.7265625 c -7.39971,0 -13.4511715,6.0514615 -13.4511715,13.4511715 v 97.111326 c 0,7.39971 6.0514615,13.45117 13.4511715,13.45117 h 97.111326 c 7.39971,0 13.45117,-6.05146 13.45117,-13.45117 V 19.177734 c 0,-7.39971 -6.05146,-13.4511715 -13.45117,-13.4511715 z m 0,6.0000005 h 97.111326 c 4.17949,0 7.45117,3.271683 7.45117,7.451171 v 97.111326 c 0,4.17949 -3.27168,7.45117 -7.45117,7.45117 H 19.177734 c -4.179488,0 -7.451171,-3.27168 -7.451171,-7.45117 V 19.177734 c 0,-4.179488 3.271683,-7.451171 7.451171,-7.451171 z"
       id="path23" />
    <path
       id="path22"
       style="fill:#ffffff;stroke-width:6.00001;stroke-linecap:round;stroke-miterlimit:12;paint-order:markers stroke fill;filter:url(#filter22)"
       d="m 63.370291,59.86818 c -4.047511,0 -5.651315,1.715179 -6.247681,5.718514 l -1.058333,7.104475 c -17.165442,1.333324 -27.484689,7.453978 -28.919682,10.059851 -1.434993,2.605873 -5.291667,41.85636 -5.291667,41.85636 h 91.760812 c 0,0 -4.00019,-37.958963 -5.29167,-41.85636 C 107.03058,78.853623 96.567828,74.024493 79.402387,72.691169 L 78.344054,65.586694 C 77.747688,61.583359 76.143883,59.86818 72.096373,59.86818 Z"
       sodipodi:nodetypes="ssczcczcsss" />
    <path
       id="rect5"
       style="fill:url(#linearGradient8);stroke-width:6.00001;stroke-linecap:round;stroke-miterlimit:12;paint-order:markers stroke fill"
       d="m 63.370291,59.86818 c -4.047511,0 -5.651315,1.715179 -6.247681,5.718514 l -1.058333,7.104475 c -17.165442,1.333324 -27.484689,7.453978 -28.919682,10.059851 -1.434993,2.605873 -5.291667,41.85636 -5.291667,41.85636 h 91.760812 c 0,0 -4.00019,-37.958963 -5.29167,-41.85636 C 107.03058,78.853623 96.567828,74.024493 79.402387,72.691169 L 78.344054,65.586694 C 77.747688,61.583359 76.143883,59.86818 72.096373,59.86818 Z"
       sodipodi:nodetypes="ssczcczcsss" />
    <rect
       style="fill:#ffffff;stroke-width:6.00004;stroke-linecap:round;stroke-miterlimit:12;paint-order:markers stroke fill;filter:url(#filter3)"
       id="rect3"
       width="135.46666"
       height="45.920902"
       x="0"
       y="89.545753" />
    <path
       id="rect9"
       style="fill:#ffffff;stroke:#000000;stroke-width:2.11667;stroke-linecap:round;stroke-miterlimit:12;stroke-dasharray:none;stroke-opacity:1;paint-order:markers stroke fill"
       d="M 117.41712 3.319694 L 117.41712 5.1464558 L 133.35 5.1464558 L 133.35 3.319694 L 117.41712 3.319694 z M 125.4125 8.6113606 L 125.4125 10.438122 L 133.35 10.438122 L 133.35 8.6113606 L 125.4125 8.6113606 z M 125.4125 13.903027 L 125.4125 15.729789 L 133.35 15.729789 L 133.35 13.903027 L 125.4125 13.903027 z M 125.4125 19.194694 L 125.4125 21.021456 L 133.35 21.021456 L 133.35 19.194694 L 125.4125 19.194694 z M 125.4125 24.48636 L 125.4125 26.313122 L 133.35 26.313122 L 133.35 24.48636 L 125.4125 24.48636 z M 125.4125 29.778027 L 125.4125 31.604789 L 133.35 31.604789 L 133.35 29.778027 L 125.4125 29.778027 z M 117.41712 35.069694 L 117.41712 36.896455 L 133.35 36.896455 L 133.35 35.069694 L 117.41712 35.069694 z M 125.4125 40.36136 L 125.4125 42.188122 L 133.35 42.188122 L 133.35 40.36136 L 125.4125 40.36136 z M 125.4125 45.653027 L 125.4125 47.479789 L 133.35 47.479789 L 133.35 45.653027 L 125.4125 45.653027 z M 125.4125 50.944693 L 125.4125 52.771455 L 133.35 52.771455 L 133.35 50.944693 L 125.4125 50.944693 z M 125.4125 56.23636 L 125.4125 58.063122 L 133.35 58.063122 L 133.35 56.23636 L 125.4125 56.23636 z M 125.4125 61.528027 L 125.4125 63.354788 L 133.35 63.354788 L 133.35 61.528027 L 125.4125 61.528027 z M 117.41712 66.819693 L 117.41712 68.646455 L 133.35 68.646455 L 133.35 66.819693 L 117.41712 66.819693 z M 125.4125 72.11136 L 125.4125 73.938122 L 133.35 73.938122 L 133.35 72.11136 L 125.4125 72.11136 z M 125.4125 77.403026 L 125.4125 79.229788 L 133.35 79.229788 L 133.35 77.403026 L 125.4125 77.403026 z M 125.4125 82.694693 L 125.4125 84.521455 L 133.35 84.521455 L 133.35 82.694693 L 125.4125 82.694693 z M 125.4125 87.98636 L 125.4125 89.813121 L 133.35 89.813121 L 133.35 87.98636 L 125.4125 87.98636 z M 125.4125 93.278026 L 125.4125 95.104788 L 133.35 95.104788 L 133.35 93.278026 L 125.4125 93.278026 z M 117.41712 98.569693 L 117.41712 100.39645 L 133.35 100.39645 L 133.35 98.569693 L 117.41712 98.569693 z M 125.4125 103.86136 L 125.4125 105.68812 L 133.35 105.68812 L 133.35 103.86136 L 125.4125 103.86136 z M 125.4125 109.15303 L 125.4125 110.97979 L 133.35 110.97979 L 133.35 109.15303 L 125.4125 109.15303 z M 125.4125 114.44469 L 125.4125 116.27145 L 133.35 116.27145 L 133.35 114.44469 L 125.4125 114.44469 z M 125.4125 119.73636 L 125.4125 121.56312 L 133.35 121.56312 L 133.35 119.73636 L 125.4125 119.73636 z M 125.4125 125.02803 L 125.4125 126.85479 L 133.35 126.85479 L 133.35 125.02803 L 125.4125 125.02803 z " />
    <rect
       style="fill:#000000;stroke-width:6.00004;stroke-linecap:round;stroke-miterlimit:12;paint-order:markers stroke fill"
       id="rect1"
       width="135.46666"
       height="47.068924"
       x="0"
       y="88.397728" />
    <text
       xml:space="preserve"
       style="font-size:11.9912px;line-height:1.25;font-family:'Adwaita Sans';-inkscape-font-specification:'Adwaita Sans, Normal';text-orientation:upright;fill:#ffffff;stroke-width:0.264583"
       x="67.786026"
       y="108.74945"
       id="text2"><tspan
         sodipodi:role="line"
         id="tspan2"
         style="text-align:center;text-anchor:middle;fill:#ffffff;stroke-width:0.264583"
         x="67.786026"
         y="108.74945">7982443</tspan><tspan
         sodipodi:role="line"
         style="text-align:center;text-anchor:middle;fill:#ffffff;stroke-width:0.264583"
         x="67.786026"
         y="123.73845"
         id="tspan3">*nix City P.D.</tspan></text>
    <path
       id="path6"
       style="display:inline;fill:#ffffff;stroke-width:6.00001;stroke-linecap:round;stroke-miterlimit:12;paint-order:markers stroke fill;filter:url(#filter6);opacity:0.6"
       d="m 71.764975,18.576125 c -1.92435,-0.09567 -4.05404,0.105066 -6.40943,0.676962 -0.26474,0.04554 -0.52869,0.09774 -0.79168,0.156579 -15.05205,-1.831681 -20.34241,19.674457 -17.9679,22.941752 0.44624,0.614018 1.11834,0.76486 1.94355,0.560689 -4e-5,0.02842 -4e-5,0.05685 0,0.08527 -1.5e-4,9.581512 4.64661,18.243272 11.81737,22.028113 1.33722,1.653962 3.38429,2.707845 5.68647,2.707845 h 4.05867 c 2.30219,0 4.34925,-1.053879 5.68647,-2.707845 9.29835,-4.907817 12.343196,-16.187794 11.73367,-24.247615 0.82401,-0.397563 1.93067,-1.143183 1.89168,-2.300118 -0.13617,-4.040838 -4.17845,-19.231968 -17.64885,-19.901628 z"
       sodipodi:nodetypes="sccscccssccsss" />
    <path
       id="path3"
       style="display:inline;fill:#000000;stroke-width:6.00001;stroke-linecap:round;stroke-miterlimit:12;paint-order:markers stroke fill"
       d="m 71.764983,18.576125 c -1.92435,-0.09567 -4.05404,0.105066 -6.40943,0.676962 -0.264738,0.04554 -0.528687,0.09774 -0.79168,0.156579 -15.05205,-1.831681 -20.34241,19.674457 -17.9679,22.941752 0.44624,0.614018 1.11834,0.76486 1.94355,0.560689 -4.1e-5,0.02842 -4.1e-5,0.05685 0,0.08527 -1.45e-4,9.581512 6.763275,18.772439 13.934036,22.55728 1.920909,2.5257 2.718338,2.178678 5.599139,2.178678 2.956023,0.183665 3.556556,0.133632 5.599139,-2.178678 7.170761,-3.784841 13.934181,-12.975768 13.934036,-22.55728 4.8e-5,-0.741025 -0.02789,-1.481653 -0.08372,-2.219502 0.82401,-0.397563 1.930673,-1.143183 1.891683,-2.300118 -0.13617,-4.040838 -4.178453,-19.231968 -17.648853,-19.901628 z"
       sodipodi:nodetypes="sccscccccccsss"
       sodipodi:insensitive="true" />
    <g
       id="g15"
       transform="translate(177.65634,-13.15047)"
       style="opacity:0.4">
      <path
         id="rect4"
         style="opacity:1;fill:#ffffff;stroke-width:2.11667;stroke-linecap:round;stroke-miterlimit:12;paint-order:markers stroke fill"
         d="m -174.78158,104.38691 c -0.008,0.0331 -0.0114,0.0673 -0.0114,0.10283 0,0.25121 0.202,0.45372 0.45321,0.45372 h 128.833474 c 0.25121,0 0.453203,-0.20251 0.453203,-0.45372 0,-0.0355 -0.0043,-0.0697 -0.01189,-0.10283 -0.0464,0.20126 -0.225603,0.35036 -0.441317,0.35036 h -128.83344 c -0.21572,0 -0.39544,-0.1491 -0.44184,-0.35036 z m 0,5.29167 c -0.008,0.0331 -0.0114,0.0673 -0.0114,0.10283 0,0.25121 0.202,0.45372 0.45321,0.45372 h 128.833474 c 0.25121,0 0.453203,-0.20251 0.453203,-0.45372 0,-0.0355 -0.0043,-0.0697 -0.01189,-0.10283 -0.0464,0.20125 -0.225603,0.35036 -0.441317,0.35036 h -128.83344 c -0.21572,0 -0.39544,-0.14911 -0.44184,-0.35036 z m 0,5.29166 c -0.008,0.0331 -0.0114,0.0673 -0.0114,0.10284 0,0.2512 0.202,0.45372 0.45321,0.45372 h 128.833474 c 0.25121,0 0.453203,-0.20252 0.453203,-0.45372 0,-0.0355 -0.0043,-0.0697 -0.01189,-0.10284 -0.0464,0.20125 -0.225604,0.35037 -0.441317,0.35037 h -128.83344 c -0.21572,0 -0.39544,-0.14912 -0.44184,-0.35037 z m 0,5.29167 c -0.008,0.0331 -0.0114,0.0673 -0.0114,0.10283 0,0.25121 0.202,0.45372 0.45321,0.45372 h 128.833474 c 0.25121,0 0.453203,-0.20251 0.453203,-0.45372 0,-0.0355 -0.0043,-0.0697 -0.01189,-0.10283 -0.0464,0.20126 -0.225603,0.35036 -0.441317,0.35036 h -128.83344 c -0.21572,0 -0.39544,-0.1491 -0.44184,-0.35036 z m 0,5.29167 c -0.008,0.0331 -0.0114,0.0673 -0.0114,0.10283 0,0.25121 0.202,0.45372 0.45321,0.45372 h 128.833474 c 0.25121,0 0.453203,-0.20251 0.453203,-0.45372 0,-0.0355 -0.0043,-0.0697 -0.01189,-0.10283 -0.0464,0.20125 -0.225603,0.35036 -0.441317,0.35036 h -128.83344 c -0.21572,0 -0.39544,-0.14911 -0.44184,-0.35036 z m 0,5.29166 c -0.008,0.0331 -0.0114,0.0673 -0.0114,0.10284 0,0.25121 0.202,0.45372 0.45321,0.45372 h 128.833474 c 0.25121,0 0.453203,-0.20251 0.453203,-0.45372 0,-0.0355 -0.0043,-0.0697 -0.01189,-0.10284 -0.0464,0.20126 -0.225604,0.35037 -0.441317,0.35037 h -128.83344 c -0.21572,0 -0.39544,-0.14911 -0.44184,-0.35037 z m 0,5.29167 c -0.008,0.0331 -0.0114,0.0673 -0.0114,0.10283 0,0.25121 0.202,0.45372 0.45321,0.45372 h 128.833474 c 0.25121,0 0.453203,-0.20251 0.453203,-0.45372 0,-0.0355 -0.0043,-0.0697 -0.01189,-0.10283 -0.0464,0.20126 -0.225603,0.35036 -0.441317,0.35036 h -128.83344 c -0.21572,0 -0.39544,-0.1491 -0.44184,-0.35036 z m 0,5.29166 c -0.008,0.0331 -0.0114,0.0673 -0.0114,0.10284 0,0.25121 0.202,0.45372 0.45321,0.45372 h 128.833474 c 0.25121,0 0.453203,-0.20251 0.453203,-0.45372 0,-0.0355 -0.0043,-0.0697 -0.01189,-0.10284 -0.0464,0.20126 -0.225603,0.35037 -0.441317,0.35037 h -128.83344 c -0.21572,0 -0.39544,-0.14911 -0.44184,-0.35037 z m 0,5.29167 c -0.008,0.0331 -0.0114,0.0673 -0.0114,0.10284 0,0.25121 0.202,0.45372 0.45321,0.45372 h 128.833474 c 0.25121,0 0.453203,-0.20251 0.453203,-0.45372 0,-0.0355 -0.0043,-0.0697 -0.01189,-0.10284 -0.0464,0.20126 -0.225603,0.35037 -0.441317,0.35037 h -128.83344 c -0.21572,0 -0.39544,-0.14911 -0.44184,-0.35037 z" />
      <path
         id="path15"
         style="opacity:0.323771;fill:#ffffff;fill-opacity:1;stroke-width:2.11667;stroke-linecap:round;stroke-miterlimit:12;paint-order:markers stroke fill"
         d="m -174.33975,104.03655 c -0.25121,0 -0.4532,0.20199 -0.4532,0.4532 0,0.25121 0.20199,0.45372 0.4532,0.45372 h 128.833484 c 0.251209,0 0.4532,-0.20251 0.4532,-0.45372 0,-0.25121 -0.20199,-0.4532 -0.4532,-0.4532 z m 0,5.29167 c -0.25121,0 -0.4532,0.20199 -0.4532,0.4532 0,0.25121 0.20199,0.45372 0.4532,0.45372 h 128.833484 c 0.251209,0 0.4532,-0.20251 0.4532,-0.45372 0,-0.25121 -0.20199,-0.4532 -0.4532,-0.4532 z m 0,5.29166 c -0.25121,0 -0.4532,0.202 -0.4532,0.45321 0,0.2512 0.20199,0.45371 0.4532,0.45371 h 128.833484 c 0.251209,0 0.4532,-0.20251 0.4532,-0.45371 0,-0.25121 -0.20199,-0.45321 -0.4532,-0.45321 z m 0,5.29167 c -0.25121,0 -0.4532,0.20199 -0.4532,0.4532 0,0.25121 0.20199,0.45372 0.4532,0.45372 h 128.833484 c 0.251209,0 0.4532,-0.20251 0.4532,-0.45372 0,-0.25121 -0.20199,-0.4532 -0.4532,-0.4532 z m 0,5.29167 c -0.25121,0 -0.4532,0.20199 -0.4532,0.4532 0,0.25121 0.20199,0.45372 0.4532,0.45372 h 128.833484 c 0.251209,0 0.4532,-0.20251 0.4532,-0.45372 0,-0.25121 -0.20199,-0.4532 -0.4532,-0.4532 z m 0,5.29166 c -0.25121,0 -0.4532,0.202 -0.4532,0.4532 0,0.25121 0.20199,0.45372 0.4532,0.45372 h 128.833484 c 0.251209,0 0.4532,-0.20251 0.4532,-0.45372 0,-0.2512 -0.20199,-0.4532 -0.4532,-0.4532 z m 0,5.29167 c -0.25121,0 -0.4532,0.20199 -0.4532,0.4532 0,0.25121 0.20199,0.45372 0.4532,0.45372 h 128.833484 c 0.251209,0 0.4532,-0.20251 0.4532,-0.45372 0,-0.25121 -0.20199,-0.4532 -0.4532,-0.4532 z m 0,5.29167 c -0.25121,0 -0.4532,0.20199 -0.4532,0.4532 0,0.25121 0.20199,0.45372 0.4532,0.45372 h 128.833484 c 0.251209,0 0.4532,-0.20251 0.4532,-0.45372 0,-0.25121 -0.20199,-0.4532 -0.4532,-0.4532 z m 0,5.29166 c -0.25121,0 -0.4532,0.20199 -0.4532,0.4532 0,0.25121 0.20199,0.45372 0.4532,0.45372 h 128.833484 c 0.251209,0 0.4532,-0.20251 0.4532,-0.45372 0,-0.25121 -0.20199,-0.4532 -0.4532,-0.4532 z" />
    </g>
    <path
       id="rect18"
       style="fill:url(#linearGradient19);stroke-width:2.11667;stroke-linecap:round;stroke-miterlimit:12;paint-order:markers stroke fill"
       d="m 6.4483777,97.769371 c 0,0 3.2126522,2.946969 5.2070233,2.946969 1.994379,0 5.207023,-2.946969 5.207023,-2.946969 0,0 3.212652,2.946969 5.207031,2.946969 1.994371,0 5.207023,-2.946969 5.207023,-2.946969 0,0 2.682408,12.483589 1.058333,16.791109 -1.624076,4.30753 -11.472387,11.53453 -11.472387,11.53453 0,0 -9.8483041,-7.227 -11.4723796,-11.53453 -1.6240755,-4.30752 1.0583333,-16.791109 1.0583333,-16.791109 z"
       sodipodi:nodetypes="cscsczczc" />
    <path
       sodipodi:type="star"
       style="fill:#552200;fill-opacity:1;stroke-width:2.66053;stroke-linecap:round;stroke-miterlimit:12;paint-order:markers stroke fill;opacity:0.48"
       id="path18"
       inkscape:flatsided="false"
       sodipodi:sides="5"
       sodipodi:cx="193.20235"
       sodipodi:cy="70.62439"
       sodipodi:r1="10.786795"
       sodipodi:r2="5.3933978"
       sodipodi:arg1="-1.5707963"
       sodipodi:arg2="-0.9424778"
       inkscape:rounded="0"
       inkscape:randomized="0"
       d="m 193.20235,59.837595 3.17016,6.423444 7.08869,1.030048 -5.12943,4.999954 1.2109,7.060049 -6.34032,-3.333303 -6.34032,3.333303 1.21089,-7.060049 -5.12942,-4.999954 7.08869,-1.030048 z"
       inkscape:transform-center-y="-1.0300473"
       transform="matrix(0.79558117,0,0,0.79558117,-136.84572,55.744755)" />
    <path
       id="path25"
       style="fill:#ffffff;fill-opacity:1;stroke-width:2.11667;stroke-linecap:round;stroke-miterlimit:12;paint-order:markers stroke fill;opacity:0.2"
       inkscape:transform-center-y="-1.0300473"
       d="m 9.1729757,109.2115 -0.47232,0.0687 4.0033723,3.90209 0.07751,-0.4532 z m 15.3789103,0 -3.608565,3.51762 0.07751,0.4532 4.003372,-3.90209 z m -7.689459,6.48229 -4.944393,2.59984 -0.09974,0.58136 5.044135,-2.65203 5.044144,2.65203 -0.09974,-0.58136 z" />
    <path
       id="path24"
       style="fill:#000000;fill-opacity:1;stroke-width:2.11667;stroke-linecap:round;stroke-miterlimit:12;paint-order:markers stroke fill;opacity:0.2"
       inkscape:transform-center-y="-1.0300473"
       d="m 16.862175,103.35042 -2.521809,5.11028 -5.6394542,0.81907 0.472321,0.46044 5.1671332,-0.75034 2.521809,-5.11028 2.522327,5.11028 5.167124,0.75034 0.472321,-0.46044 -5.639445,-0.81907 z m -4.158407,10.36061 -0.885729,5.16351 0.09973,-0.0527 0.864025,-5.03484 z m 8.317324,0 -0.07803,0.076 0.864033,5.03484 0.09973,0.0527 z" />
  </g>
  <metadata
     id="metadata26">
    <rdf:RDF>
      <cc:Work
         rdf:about="">
        <dc:description>I hate icons like these. They feel like a socioeconomic gender/race trap...

Also this icon is some roughed in garbage...</dc:description>
      </cc:Work>
    </rdf:RDF>
  </metadata>
</svg>
