<?xml version="1.0" encoding="UTF-8" standalone="no"?>
<!-- Created with Inkscape (http://www.inkscape.org/) -->

<svg
   width="512"
   height="512"
   viewBox="0 0 135.46666 135.46667"
   version="1.1"
   id="svg5"
   inkscape:version="1.3.2 (091e20ef0f, 2023-11-25, custom)"
   sodipodi:docname="obconf.svg"
   xmlns:inkscape="http://www.inkscape.org/namespaces/inkscape"
   xmlns:sodipodi="http://sodipodi.sourceforge.net/DTD/sodipodi-0.dtd"
   xmlns:xlink="http://www.w3.org/1999/xlink"
   xmlns="http://www.w3.org/2000/svg"
   xmlns:svg="http://www.w3.org/2000/svg">
  <sodipodi:namedview
     id="namedview7"
     pagecolor="#242424"
     bordercolor="#666666"
     borderopacity="1"
     inkscape:showpageshadow="0"
     inkscape:pageopacity="0"
     inkscape:pagecheckerboard="1"
     inkscape:deskcolor="#000000"
     inkscape:document-units="px"
     showgrid="false"
     inkscape:zoom="5.2149125"
     inkscape:cx="466.83429"
     inkscape:cy="69.032798"
     inkscape:window-width="3256"
     inkscape:window-height="1080"
     inkscape:window-x="1864"
     inkscape:window-y="0"
     inkscape:window-maximized="0"
     inkscape:current-layer="layer1" />
  <defs
     id="defs2">
    <linearGradient
       id="linearGradient37"
       inkscape:collect="always">
      <stop
         style="stop-color:#000000;stop-opacity:1;"
         offset="0"
         id="stop37" />
      <stop
         style="stop-color:#000000;stop-opacity:0;"
         offset="1"
         id="stop38" />
    </linearGradient>
    <linearGradient
       id="linearGradient13"
       inkscape:collect="always">
      <stop
         style="stop-color:#474747;stop-opacity:1;"
         offset="0"
         id="stop13" />
      <stop
         style="stop-color:#666666;stop-opacity:1;"
         offset="1"
         id="stop14" />
    </linearGradient>
    <clipPath
       clipPathUnits="userSpaceOnUse"
       id="clipPath12">
      <path
         style="color:#000000;fill:#666666;stroke-width:0.999998;stroke-linecap:round;stroke-linejoin:round;stroke-dashoffset:149.514;-inkscape-stroke:none;paint-order:markers stroke fill"
         d="M 4.7407991,12.762254 H 130.72586 V 131.99712 H 4.7407991 Z"
         id="path13" />
    </clipPath>
    <filter
       inkscape:collect="always"
       style="color-interpolation-filters:sRGB"
       id="filter13"
       x="-0.0042052041"
       y="-0.0044412391"
       width="1.0084104"
       height="1.0088825">
      <feGaussianBlur
         inkscape:collect="always"
         stdDeviation="0.2226041"
         id="feGaussianBlur13" />
    </filter>
    <linearGradient
       inkscape:collect="always"
       xlink:href="#linearGradient13"
       id="linearGradient14"
       x1="67.733398"
       y1="13.291016"
       x2="69.769737"
       y2="131.46875"
       gradientUnits="userSpaceOnUse" />
    <filter
       inkscape:collect="always"
       style="color-interpolation-filters:sRGB"
       id="filter15"
       x="-0.019213391"
       y="-0.076586476"
       width="1.0384268"
       height="1.153173">
      <feGaussianBlur
         inkscape:collect="always"
         stdDeviation="0.22893349"
         id="feGaussianBlur15" />
    </filter>
    <clipPath
       clipPathUnits="userSpaceOnUse"
       id="clipPath29">
      <path
         id="path30"
         style="display:inline;fill:#93a7ac;stroke:none;stroke-width:0.264583"
         d="m 222.16065,-9.3542664 -6.73189,9.55962297 -0.62838,2.71146293 0.108,7.2667395 -10.92905,1.927015 -2.38383,-6.8652145 -1.51826,-2.3331908 -9.59528,-6.6807291 -4.8922,2.82463296 0.98805,11.64993544 1.26142,2.481502 4.75372,5.496822 -7.13342,8.50129 -6.23889,-3.726904 -2.66289,-0.81132 -11.64477,1.050065 -1.93218,5.308204 8.24549,8.289933 2.5616,1.089856 7.17476,1.154967 v 11.09803 l -7.17476,1.154969 -2.5616,1.089856 -8.24549,8.289933 1.93218,5.308203 11.64477,1.050065 2.66289,-0.811318 6.23889,-3.726905 7.13342,8.50129 -4.75372,5.496817 -1.26142,2.481511 -0.98805,11.649929 4.8922,2.824631 9.59528,-6.680721 1.51826,-2.333199 2.38383,-6.86521 10.92905,1.927019 -0.108,7.26673 0.62838,2.711469 6.73189,9.559621 5.56297,-0.980819 3.05614,-11.285611 -0.33641,-2.763139 -2.58744,-6.79132 9.6113,-5.549016 4.58783,5.636345 2.22467,1.673291 11.30164,2.995678 3.6313,-4.32739 -4.91339,-10.609683 -2.03347,-1.900142 -6.34742,-3.539318 3.79564,-10.428822 7.13755,1.368393 2.77915,-0.148312 10.58385,-4.969205 v -5.649267 l -10.58385,-4.969206 -2.77915,-0.148312 -7.13755,1.368393 -3.79564,-10.428822 6.34742,-3.539319 2.03347,-1.900142 4.91339,-10.609688 -3.6313,-4.3273853 -11.30164,2.9956833 -2.22467,1.673283 -4.58783,5.636348 -9.6113,-5.549015 2.58744,-6.7913163 0.33641,-2.763139 -3.05614,-11.2856162 z m -6.73189,38.7764434 a 15.667513,15.667513 0 0 1 15.66726,15.667262 15.667513,15.667513 0 0 1 -15.66726,15.66726 15.667513,15.667513 0 0 1 -15.66778,-15.66726 15.667513,15.667513 0 0 1 15.66778,-15.667262 z" />
    </clipPath>
    <filter
       inkscape:collect="always"
       style="color-interpolation-filters:sRGB"
       id="filter30"
       x="-0.081499686"
       y="-0.080743834"
       width="1.1629994"
       height="1.1614877">
      <feGaussianBlur
         inkscape:collect="always"
         stdDeviation="3.3367734"
         id="feGaussianBlur30" />
    </filter>
    <clipPath
       clipPathUnits="userSpaceOnUse"
       id="clipPath33">
      <path
         id="path34"
         style="display:inline;fill:#93a7ac;stroke:none;stroke-width:0.264583"
         d="m 201.97153,7.1908796 -6.73189,9.5596234 -0.62839,2.711463 0.10801,7.266739 -10.92905,1.927014 -2.38384,-6.865213 -1.51825,-2.333191 -9.59528,-6.680729 -4.89221,2.824633 0.98806,11.649935 1.26142,2.481501 4.75371,5.496822 -7.13341,8.50129 -6.2389,-3.726903 -2.66288,-0.811321 -11.64477,1.050066 -1.93218,5.308203 8.24549,8.289932 2.5616,1.089856 7.17475,1.15497 V 67.1836 l -7.17475,1.154967 -2.5616,1.089858 -8.24549,8.289933 1.93218,5.308203 11.64477,1.050065 2.66288,-0.811321 6.2389,-3.726905 7.13341,8.50129 -4.75371,5.49682 -1.26142,2.481508 -0.98806,11.649932 4.89221,2.82463 9.59528,-6.68072 1.51825,-2.3332 2.38384,-6.865212 10.92905,1.927022 -0.10801,7.26673 0.62839,2.71147 6.73189,9.55962 5.56296,-0.98082 3.05615,-11.28561 -0.33642,-2.76314 -2.58743,-6.791321 9.61129,-5.549014 4.58784,5.636345 2.22467,1.673288 11.30164,2.995681 3.6313,-4.32739 -4.91339,-10.609683 -2.03347,-1.900142 -6.34742,-3.539321 3.79564,-10.428819 7.13755,1.368391 2.77915,-0.14831 10.58385,-4.969205 v -5.64927 l -10.58385,-4.969206 -2.77915,-0.148309 -7.13755,1.368391 -3.79564,-10.428822 6.34742,-3.539318 2.03347,-1.900143 4.91339,-10.609688 -3.6313,-4.327384 -11.30164,2.995683 -2.22467,1.673283 -4.58784,5.636348 -9.61129,-5.549014 2.58743,-6.791317 0.33642,-2.763139 -3.05615,-11.2856165 z m -6.73189,38.7764444 a 15.667513,15.667513 0 0 1 15.66726,15.667262 15.667513,15.667513 0 0 1 -15.66726,15.66726 15.667513,15.667513 0 0 1 -15.66778,-15.66726 15.667513,15.667513 0 0 1 15.66778,-15.667262 z" />
    </clipPath>
    <filter
       inkscape:collect="always"
       style="color-interpolation-filters:sRGB"
       id="filter34"
       x="-0.085073246"
       y="-0.077517841"
       width="1.1701465"
       height="1.1550357">
      <feGaussianBlur
         inkscape:collect="always"
         stdDeviation="3.4678603"
         id="feGaussianBlur34" />
    </filter>
    <filter
       inkscape:collect="always"
       style="color-interpolation-filters:sRGB"
       id="filter35"
       x="-0.06964032"
       y="-0.068607396"
       width="1.1392806"
       height="1.1372148">
      <feGaussianBlur
         inkscape:collect="always"
         stdDeviation="2.8800919"
         id="feGaussianBlur35" />
    </filter>
    <linearGradient
       inkscape:collect="always"
       xlink:href="#linearGradient37"
       id="linearGradient38"
       x1="11.78481"
       y1="2.8047385"
       x2="17.741552"
       y2="2.8047385"
       gradientUnits="userSpaceOnUse" />
  </defs>
  <g
     inkscape:label="Layer 1"
     inkscape:groupmode="layer"
     id="layer1">
    <path
       id="rect1"
       style="opacity:1;fill:#979797;stroke-width:0.529167;stroke-linecap:round;stroke-linejoin:round;stroke-dashoffset:149.514;paint-order:markers stroke fill;fill-opacity:1"
       d="M 3.4695556 0 C 1.5474527 3.1332929e-16 4.2948894e-17 1.5474527 0 3.4695556 L 0 79.033935 L 0 131.99711 L 0 135.46666 L 3.4695556 135.46666 L 131.99711 135.46666 L 135.46666 135.46666 L 135.46666 131.99711 L 135.46666 79.033935 L 135.46666 3.4695556 C 135.46666 1.5474527 133.91921 4.2948894e-17 131.99711 0 L 3.4695556 0 z " />
    <rect
       style="opacity:1;fill:url(#linearGradient14);fill-opacity:1;stroke-width:0.529168;stroke-linecap:round;stroke-linejoin:round;stroke-dashoffset:149.514;paint-order:markers stroke fill"
       id="rect2"
       width="125.98506"
       height="119.23486"
       x="4.740799"
       y="12.762254" />
    <g
       id="g15"
       style="display:inline;fill:#000000;filter:url(#filter15)"
       transform="translate(0,1.0075974)">
      <rect
         style="opacity:1;fill:#000000;fill-opacity:1;stroke-width:0.529165;stroke-linecap:round;stroke-linejoin:round;stroke-dashoffset:149.514;paint-order:markers stroke fill"
         id="rect14"
         width="7.1741219"
         height="1.4910684"
         x="102.12912"
         y="8.2285366" />
      <path
         id="path14"
         style="opacity:1;fill:#000000;fill-opacity:1;stroke-width:0.529165;stroke-linecap:round;stroke-linejoin:round;stroke-dashoffset:149.514;paint-order:markers stroke fill"
         d="M 112.84043,2.5454885 V 4.0366037 8.228728 9.719605 h 7.17411 V 8.228728 4.0366037 2.5454885 h -1.49111 -4.19189 z m 1.49111,1.4911152 h 4.19189 V 8.228728 h -4.19189 z" />
      <path
         id="path15"
         style="opacity:1;fill:#000000;fill-opacity:1;stroke-width:0.529165;stroke-linecap:round;stroke-linejoin:round;stroke-dashoffset:149.514;paint-order:markers stroke fill"
         d="m 124.78616,2.5454889 -1.23442,1.2344214 2.35264,2.3526375 -2.35264,2.3523982 1.23442,1.234657 2.35264,-2.3526357 2.35263,2.3526377 1.23443,-1.234656 -2.35265,-2.3523998 2.35265,-2.3526389 -1.23443,-1.2344226 -2.35263,2.352639 z" />
    </g>
    <g
       id="g9"
       transform="translate(0,0.47843075)"
       style="display:inline">
      <rect
         style="opacity:1;fill:#ffffff;fill-opacity:1;stroke-width:0.529165;stroke-linecap:round;stroke-linejoin:round;stroke-dashoffset:149.514;paint-order:markers stroke fill"
         id="rect3"
         width="7.1741219"
         height="1.4910684"
         x="102.12912"
         y="8.2285366" />
      <path
         id="rect4"
         style="opacity:1;fill:#ffffff;fill-opacity:1;stroke-width:0.529165;stroke-linecap:round;stroke-linejoin:round;stroke-dashoffset:149.514;paint-order:markers stroke fill"
         d="M 112.84043,2.5454885 V 4.0366037 8.228728 9.719605 h 7.17411 V 8.228728 4.0366037 2.5454885 h -1.49111 -4.19189 z m 1.49111,1.4911152 h 4.19189 V 8.228728 h -4.19189 z" />
      <path
         id="rect8"
         style="opacity:1;fill:#ffffff;fill-opacity:1;stroke-width:0.529165;stroke-linecap:round;stroke-linejoin:round;stroke-dashoffset:149.514;paint-order:markers stroke fill"
         d="m 124.78616,2.5454889 -1.23442,1.2344214 2.35264,2.3526375 -2.35264,2.3523982 1.23442,1.234657 2.35264,-2.3526357 2.35263,2.3526377 1.23443,-1.234656 -2.35265,-2.3523998 2.35265,-2.3526389 -1.23443,-1.2344226 -2.35263,2.352639 z" />
    </g>
    <path
       style="color:#000000;display:inline;fill:#000000;stroke-linecap:round;stroke-linejoin:round;stroke-dashoffset:149.514;-inkscape-stroke:none;paint-order:markers stroke fill;filter:url(#filter13)"
       d="M 4.7402344,12.232422 A 0.52921956,0.52921956 0 0 0 4.2109375,12.761719 V 131.99805 a 0.52921956,0.52921956 0 0 0 0.5292969,0.52734 H 130.72656 a 0.52921956,0.52921956 0 0 0 0.5293,-0.52734 V 12.761719 a 0.52921956,0.52921956 0 0 0 -0.5293,-0.529297 z m 0.5292968,1.058594 H 130.19727 V 131.46875 H 5.2695312 Z"
       id="path11"
       clip-path="url(#clipPath12)" />
    <path
       id="path18"
       style="display:inline;fill:#374548;stroke:none;stroke-width:0.264583"
       d="m 76.471302,20.168796 -6.731888,9.559623 -0.628386,2.711463 0.108004,7.266739 -10.929049,1.927015 -2.383833,-6.865214 -1.518254,-2.333191 -9.59528,-6.680729 -4.892208,2.824633 0.988054,11.649935 1.261422,2.481502 4.753714,5.496822 -7.133414,8.50129 -6.238896,-3.726904 -2.662886,-0.81132 -11.644767,1.050065 -1.932182,5.308203 8.245491,8.289933 2.561601,1.089856 7.174756,1.154969 v 11.09803 l -7.174756,1.154968 -2.561601,1.089856 -8.245491,8.289933 1.932182,5.308203 11.644767,1.050066 2.662886,-0.81132 6.238896,-3.726905 7.133414,8.501293 -4.753714,5.49683 -1.261422,2.48151 -0.988054,11.64993 4.892208,2.82463 9.59528,-6.68072 1.518254,-2.3332 2.383833,-6.86521 10.929049,1.92702 -0.108004,7.26673 0.628386,2.71147 6.731888,9.55962 5.562968,-0.98082 3.056144,-11.28561 -0.336413,-2.76314 -2.587439,-6.79132 9.611299,-5.54902 4.587834,5.63635 2.22467,1.67329 11.301655,2.99568 3.6313,-4.32739 -4.91339,-10.609698 -2.03347,-1.900143 -6.34744,-3.539319 3.79566,-10.42882 7.13755,1.368392 2.77915,-0.148312 10.58385,-4.969205 v -5.649268 l -10.58385,-4.969206 -2.77915,-0.148311 -7.13755,1.368392 -3.79566,-10.428821 6.34744,-3.539319 2.03347,-1.900142 4.91339,-10.609688 -3.6313,-4.327385 -11.301655,2.995683 -2.22467,1.673283 -4.587834,5.636348 -9.611299,-5.549015 2.587439,-6.791316 0.336413,-2.763139 L 82.03427,21.149615 Z M 69.739414,58.94524 A 15.667513,15.667513 0 0 1 85.406674,74.612501 15.667513,15.667513 0 0 1 69.739414,90.279761 15.667513,15.667513 0 0 1 54.071636,74.612501 15.667513,15.667513 0 0 1 69.739414,58.94524 Z" />
    <path
       id="path16"
       style="display:inline;fill:#93a7ac;stroke:none;stroke-width:0.264583"
       d="m 73.2963,17.522961 -6.731888,9.559623 -0.628386,2.711463 0.108004,7.266739 -10.929049,1.927015 -2.383833,-6.865214 -1.518254,-2.333191 -9.59528,-6.680729 -4.892208,2.824633 0.988054,11.649935 1.261422,2.481502 4.753714,5.496822 -7.133414,8.50129 -6.238896,-3.726904 -2.662886,-0.81132 -11.644767,1.050065 -1.932182,5.308203 8.245491,8.289933 2.561601,1.089856 7.174756,1.154969 v 11.09803 l -7.174756,1.154968 -2.561601,1.089856 -8.245491,8.289933 1.932182,5.308203 11.644767,1.050066 2.662886,-0.81132 6.238896,-3.726905 7.133414,8.50129 -4.753714,5.496818 -1.261422,2.48151 -0.988054,11.64993 4.892208,2.82463 9.59528,-6.68072 1.518254,-2.3332 2.383833,-6.86521 10.929049,1.92702 -0.108004,7.26673 0.628386,2.71147 6.731888,9.55962 5.562968,-0.98082 3.056144,-11.28561 -0.336413,-2.76314 -2.587439,-6.79132 9.611299,-5.549015 4.587834,5.636345 2.22467,1.67329 11.301637,2.99568 3.6313,-4.32739 -4.91339,-10.609683 -2.03347,-1.900143 -6.347417,-3.539319 3.795637,-10.42882 7.13755,1.368392 2.77915,-0.148312 10.58385,-4.969205 v -5.649268 l -10.58385,-4.969206 -2.77915,-0.148311 -7.13755,1.368392 -3.795637,-10.428821 6.347417,-3.539319 2.03347,-1.900142 4.91339,-10.609688 -3.6313,-4.327385 -11.301637,2.995683 -2.22467,1.673283 -4.587834,5.636348 -9.611299,-5.549015 2.587439,-6.791316 0.336413,-2.763139 -3.056144,-11.285616 z m -6.731888,38.776444 a 15.667513,15.667513 0 0 1 15.66726,15.667261 15.667513,15.667513 0 0 1 -15.66726,15.66726 15.667513,15.667513 0 0 1 -15.667778,-15.66726 15.667513,15.667513 0 0 1 15.667778,-15.667261 z" />
    <path
       id="path17"
       style="fill:#ffffff;stroke:none;stroke-width:0.264583;opacity:0.2"
       d="m 73.296296,17.522961 -6.73189,9.559623 -0.62838,2.711462 0.108,7.26674 -10.60349,1.869654 0.20361,0.586527 10.92905,-1.927014 -0.10801,-7.26674 0.62839,-2.711461 6.73189,-9.559624 5.15782,0.909505 -0.12402,-0.45837 z m -31.67869,5.585705 -4.8922,2.824634 0.98805,11.649935 1.26142,2.481502 4.75372,5.496822 -7.13342,8.501291 -6.23889,-3.726905 -2.66289,-0.81132 -11.64477,1.050065 -1.93218,5.308203 8.24549,8.289933 0.0052,0.0021 -7.72149,-7.762833 1.93218,-5.308204 11.64477,-1.050065 2.66288,0.811321 6.2389,3.726904 7.13341,-8.50129 -4.75371,-5.496822 -1.26142,-2.481502 -0.98806,-11.649935 4.89221,-2.824634 9.25732,6.445601 -0.19121,-0.294039 z m 65.099394,11.478369 -11.301644,2.995683 -2.22467,1.673283 -4.58783,5.636348 -9.01237,-5.203299 -0.06976,0.183968 9.6113,5.549016 4.58783,-5.63635 2.22467,-1.673282 11.232394,-2.97708 z M 77.872246,61.187479 a 15.667513,15.667513 0 0 1 4.35942,10.779187 15.667513,15.667513 0 0 1 -15.66726,15.66726 15.667513,15.667513 0 0 1 -10.77919,-4.359424 15.667513,15.667513 0 0 0 11.30836,4.888591 15.667513,15.667513 0 0 0 15.66726,-15.66726 15.667513,15.667513 0 0 0 -4.88859,-11.308354 z m 30.114964,2.837036 -6.82284,1.307413 0.21445,0.590145 7.13755,-1.368392 2.77916,0.148312 10.05468,4.720642 v -0.280603 l -10.58385,-4.969206 z m -75.888914,2.837037 v 10.654129 l -7.17476,1.154968 -2.5616,1.089857 -8.24549,8.289932 1.93218,5.308204 0.34779,0.03152 -1.7508,-4.810559 8.24549,-8.289932 2.5616,-1.089857 7.17476,-1.154969 v -11.09803 z m 65.55569,22.442041 -0.0708,0.194819 6.347424,3.539319 1.53272,1.431953 -0.0284,-0.06098 -2.03347,-1.900142 z m -60.52964,1.096057 -0.05685,0.0341 6.6611,7.938018 -4.75372,5.496302 -1.26142,2.48151 -0.98805,11.64993 0.54725,0.31574 0.96997,-11.43599 1.26142,-2.48202 4.75371,-5.496306 z m 52.00768,9.169981 -0.06718,0.03876 4.12584,5.067909 0.2527,0.19017 z m -23.09472,7.737509 -0.10128,6.83162 0.62838,2.71147 6.73189,9.55962 0.13901,-0.0243 -6.34173,-9.00565 -0.62839,-2.71146 0.10801,-7.26674 z" />
    <path
       id="rect18"
       style="opacity:1;fill:#53676c;stroke-width:1.05833;stroke-linecap:round;stroke-linejoin:round;stroke-dashoffset:149.514;paint-order:markers stroke fill"
       d="m 121.35021,69.142032 3.17502,2.645835 v 5.649268 L 121.35021,74.7913 Z"
       sodipodi:nodetypes="ccccc" />
    <path
       id="path19"
       style="opacity:1;fill:#53676c;stroke-width:1.05833;stroke-linecap:round;stroke-linejoin:round;stroke-dashoffset:149.514;paint-order:markers stroke fill"
       d="m 106.717,34.587035 3.17502,2.646352 3.6313,4.327385 -3.17502,-2.645835 z"
       sodipodi:nodetypes="ccccc" />
    <path
       id="path20"
       style="opacity:1;fill:#53676c;stroke-width:1.05833;stroke-linecap:round;stroke-linejoin:round;stroke-dashoffset:149.514;paint-order:markers stroke fill"
       d="m 78.859266,18.503263 3.175004,2.646352 3.056144,11.285616 -3.175002,-2.645835 z"
       sodipodi:nodetypes="ccccc" />
    <path
       id="path21"
       style="opacity:1;fill:#53676c;stroke-width:1.05833;stroke-linecap:round;stroke-linejoin:round;stroke-dashoffset:149.514;paint-order:markers stroke fill"
       d="m 110.3483,105.01839 3.16594,2.65667 -3.62222,4.31657 -3.17502,-2.64585 z"
       sodipodi:nodetypes="ccccc" />
    <path
       id="path22"
       style="opacity:1;fill:#53676c;stroke-width:1.05833;stroke-linecap:round;stroke-linejoin:round;stroke-dashoffset:149.514;paint-order:markers stroke fill"
       d="m 78.859268,125.42955 3.175002,2.64585 -5.562968,0.98082 -3.175002,-2.64585 z"
       sodipodi:nodetypes="ccccc" />
    <path
       id="path23"
       style="opacity:1;fill:#53676c;stroke-width:1.05833;stroke-linecap:round;stroke-linejoin:round;stroke-dashoffset:149.514;paint-order:markers stroke fill"
       d="m 41.617614,120.82466 3.175002,2.64585 -4.892208,-2.82463 -3.175002,-2.64585 z"
       sodipodi:nodetypes="ccccc" />
    <path
       id="path24"
       style="opacity:1;fill:#53676c;stroke-width:1.05833;stroke-linecap:round;stroke-linejoin:round;stroke-dashoffset:149.514;paint-order:markers stroke fill"
       d="m 27.6934,94.408707 3.175002,2.645835 -11.644767,-1.050066 -3.175009,-2.645834 z"
       sodipodi:nodetypes="ccccc" />
    <path
       id="path25"
       style="opacity:1;fill:#53676c;stroke-width:1.05833;stroke-linecap:round;stroke-linejoin:round;stroke-dashoffset:149.514;paint-order:markers stroke fill"
       d="m 51.730718,30.585166 2.657178,1.850065 -3.17498,-2.645803 z"
       sodipodi:nodetypes="cccc" />
    <path
       id="path26"
       style="opacity:1;fill:#53676c;stroke-width:1.05833;stroke-linecap:round;stroke-linejoin:round;stroke-dashoffset:149.514;paint-order:markers stroke fill"
       d="m 24.923543,65.262682 0.613401,1.555979 -3.17489,-2.645787 z"
       sodipodi:nodetypes="cccc" />
    <path
       id="path35"
       style="display:inline;fill:#ffffff;stroke:none;stroke-width:0.264583;filter:url(#filter35);opacity:0.4"
       d="m 69.663876,28.673887 c -0.41684,1.589293 -0.35615,3.154854 -0.29108,4.845331 0.0906,2.217708 0.0398,4.437791 0.0997,6.656622 -5.70509,1.005137 -11.41007,2.010863 -17.11523,3.015625 -1.38696,-3.438853 -2.18651,-7.121514 -3.92309,-10.411058 -1.09295,-1.202831 -2.62342,-1.865337 -3.87419,-2.880734 -1.13984,-0.79271 -2.27968,-1.58542 -3.41952,-2.37813 -0.33645,0.230402 -1.03502,0.276992 -0.79951,0.839745 0.2916,2.877938 0.32475,5.802631 0.88599,8.639952 1.18361,2.193136 3.14286,3.818144 4.66169,5.766418 0.78762,0.929226 1.59299,1.843047 2.38855,2.765604 -3.72349,4.441695 -7.44966,8.88114 -11.17383,13.322266 -3.27271,-1.753535 -6.21854,-4.007695 -9.63696,-5.440279 -1.59022,-0.269064 -3.17382,0.259615 -4.76728,0.266244 -1.42189,0.127673 -2.84379,0.255346 -4.26568,0.383019 -0.0927,0.38835 -0.6435,0.886899 -0.0711,1.156322 2.07178,2.01374 3.97684,4.230319 6.22623,6.041547 2.33504,0.928336 4.99476,0.92148 7.48982,1.461246 1.13591,0.182821 2.27209,0.363872 3.4078,0.547916 0,5.796875 0,11.593751 0,17.390626 -3.40307,0.68735 -6.8599,0.934799 -10.15815,1.79244 -1.72072,0.358412 -2.56413,2.098097 -3.84203,3.132005 -1.1269,1.133909 -2.25379,2.267817 -3.38068,3.401727 0.15216,0.43118 0.12858,1.11685 0.78537,0.93808 2.86576,0.21325 5.71198,0.68049 8.55759,0.61639 2.53286,-0.86195 4.60496,-2.63515 6.95739,-3.859685 0.89276,-0.532957 1.78504,-1.066728 2.67816,-1.599083 3.72214,4.432938 7.44376,8.866308 11.16407,13.300778 -2.24521,2.930259 -5.03403,5.436609 -7.01496,8.564989 -0.57003,1.543 -0.28966,3.23341 -0.57773,4.83169 -0.11689,1.38991 -0.23378,2.77982 -0.35067,4.16973 0.36523,0.16897 0.75858,0.77771 1.12569,0.27531 2.3419,-1.68673 4.85161,-3.18106 7.02296,-5.0828 1.38044,-2.25372 1.81848,-4.91235 2.82168,-7.33155 0.35373,-1.01742 0.70644,-2.0352 1.06092,-3.05237 5.70642,1.00625 11.41264,2.01367 17.11914,3.01953 0.11984,3.70378 -0.37344,7.43377 0.11768,11.11759 0.64218,1.55936 1.89377,2.75482 2.76042,4.18489 0.76654,1.08668 1.53309,2.17335 2.29963,3.26002 0.52084,-0.0374 1.1397,0.001 1.08964,-0.70539 0.69892,-2.74403 1.63974,-5.45148 2.06989,-8.24905 -0.4097,-2.60207 -1.75869,-4.9172 -2.55279,-7.40509 -0.38197,-1.00253 -0.76353,-2.00523 -1.1458,-3.00765 5.0103,-2.89826 10.02187,-5.794389 15.03515,-8.687499 2.53432,2.74461 4.50613,5.993469 7.32422,8.474609 1.48613,0.73214 3.18049,0.8394 4.735224,1.38057 1.28943,0.34189 2.57886,0.68379 3.8683,1.02568 0.30028,-0.34511 0.88623,-0.6673 0.41905,-1.14537 -1.24602,-2.57742 -2.27065,-5.288279 -3.75735,-7.733699 -2.007944,-1.75782 -4.571554,-2.66535 -6.804924,-4.083 -0.91444,-0.51014 -1.82959,-1.01902 -2.7435,-1.53012 1.98151,-5.438007 3.95922,-10.877407 5.94336,-16.314454 3.700554,0.472996 7.345694,1.696827 11.046874,1.78125 1.68925,-0.410924 3.1267,-1.460382 4.73898,-2.079013 1.13519,-0.533558 2.27037,-1.067116 3.40556,-1.600674 -0.032,-0.4037 0.29227,-1.04989 -0.3265,-1.115933 -2.64939,-1.187511 -5.19337,-2.619725 -7.91996,-3.542907 -2.65858,-0.04972 -5.28824,0.892177 -7.95348,1.263311 -0.99324,0.191808 -1.986644,0.382772 -2.979754,0.575216 -1.98079,-5.447149 -3.96114,-10.894458 -5.94141,-16.341797 3.14278,-1.961796 6.63042,-3.383619 9.565004,-5.663886 1.02121,-1.307178 1.41016,-2.967275 2.20756,-4.404952 0.57191,-1.235518 1.14382,-2.471035 1.71572,-3.706552 -0.28378,-0.284698 -0.44824,-0.986353 -0.96204,-0.638766 -2.79446,0.787249 -5.645974,1.333325 -8.355444,2.377551 -2.01981,1.60024 -3.30681,3.893205 -5.03351,5.773832 -0.72028,0.883785 -1.44017,1.76789 -2.16073,2.651445 -5.01776,-2.896985 -10.03426,-5.796159 -15.05078,-8.695312 1.15124,-3.520835 2.91682,-6.89167 3.68755,-10.484746 -0.0549,-1.621364 -0.82253,-3.104279 -1.11994,-4.684193 -0.36563,-1.348635 -0.73127,-2.69727 -1.0969,-4.045905 -0.40194,-0.03283 -0.97698,-0.476875 -1.14647,0.127728 -1.58985,2.255601 -3.1797,4.511202 -4.76955,6.766803 z m -3.41211,23.933594 c 8.25058,-0.0646 16.22464,5.736686 18.50457,13.701867 2.14492,6.898239 0.0864,14.963907 -5.30613,19.824562 -4.95797,4.642271 -12.45755,6.466281 -18.9428,4.325411 -6.47822,-1.99013 -11.77127,-7.574526 -13.14538,-14.247841 -1.4959,-6.623726 0.70451,-14.030887 5.85602,-18.527449 3.52493,-3.212035 8.2601,-5.077208 13.03372,-5.07655 z" />
    <path
       id="path27"
       style="display:inline;opacity:0.4;mix-blend-mode:normal;fill:#5599ff;stroke:none;stroke-width:0.264583;filter:url(#filter30)"
       d="m 195.85006,-0.03152262 c -3.235,3.31813522 -6.33478,6.78997072 -9.30124,10.39316362 l 0.0289,0.344165 1.26142,2.481503 1.03559,1.197859 c 3.6258,-3.883345 7.46456,-7.566153 11.45977,-11.0773596 L 200.07719,2.9119669 Z M 230.57145,2.1430216 C 223.72901,9.8215121 218.27627,19.365237 213.77351,29.640051 a 15.667513,15.667513 0 0 1 1.6552,-0.218075 15.667513,15.667513 0 0 1 5.2e-4,0 c 3.19755,-6.583353 7.71807,-12.922043 13.03796,-18.560107 l 1.97611,-5.1867633 0.33641,-2.7631388 z M 177.15818,22.830131 c -2.80709,4.037343 -5.46967,8.172328 -8.00107,12.384773 l 2.06913,2.080493 0.632,0.268718 c 2.55324,-4.700344 5.49991,-9.105819 8.69043,-13.312366 l -1.32809,-0.793233 z m 83.82124,15.098303 c -14.93849,9.270709 -28.55299,19.12784 -29.82816,37.880891 l 6.3159,-3.646289 3.31504,4.07262 c 1.98158,-4.668569 3.85686,-9.300173 5.61878,-13.874605 l -0.48266,-0.269235 3.79563,-10.42882 0.72089,0.138493 c 0.45483,-1.205474 0.92778,-2.45776 1.37718,-3.641639 4.46558,-1.685596 9.9381,-4.172191 15.60628,-7.208345 z m -56.72109,18.119824 c -3.088,10.133503 -5.69422,20.04603 -8.14524,28.710392 -2.68671,3.328366 -5.37819,5.885342 -8.02638,7.805725 l 2.3952,1.382861 9.59528,-6.680729 1.51825,-2.333191 2.38384,-6.865214 4.73098,0.834058 c 3.25725,-5.590701 5.09955,-11.854432 4.70927,-18.410246 a 15.667513,15.667513 0 0 1 -9.1612,-4.443656 z m 24.73027,37.832315 c -1.33564,1.633978 -2.90225,3.398965 -4.65243,5.268929 l 3.38739,-0.597379 z"
       clip-path="url(#clipPath29)"
       transform="translate(-148.86435,26.877226)" />
    <path
       id="path31"
       style="display:inline;opacity:0.4;fill:#162d50;stroke:none;stroke-width:0.264583;filter:url(#filter34)"
       d="m 200.90091,8.7110961 -5.28029,7.4982499 c 0.36358,0.7976 0.15347,1.633219 -0.8351,2.500623 l -0.17415,0.751892 0.10801,7.26674 -10.92905,1.927014 -0.49041,-1.412834 c -8.38229,14.695858 27.4138,13.16284 36.78483,23.989233 17.496,4.577865 2.73984,7.214953 -9.53275,13.099976 a 15.667513,15.667513 0 0 1 -12.23698,12.565124 c -0.0134,0.560374 0.0209,1.134628 0.12558,1.728577 4.90939,5.826423 11.40025,8.656315 18.51101,10.271207 l 0.3266,-0.188619 0.24856,0.305925 c 6.44992,1.400323 13.37296,1.868489 20.09748,2.650484 l -2.86287,-6.182052 c -9.15029,-0.836983 -18.27346,-1.954314 -26.14466,-6.833691 -4.56659,-12.093975 28.58694,-13.763622 32.00683,-24.2533 l -1.18184,-0.555004 -2.77916,-0.148312 -7.13754,1.368392 -3.46801,-9.5281 C 212.99822,41.974404 200.96744,34.764745 189.69281,30.3413 197.6289,24.976245 218.59366,16.936068 200.90091,8.7110961 Z m -54.72689,31.4006669 -1.45004,0.130741 -1.93218,5.308203 5.01313,5.040003 c 2.29064,0.682706 4.95743,1.069367 8.16591,1.004073 12.39718,1.363721 13.15279,4.638841 4.80281,10.028328 v 5.560384 l -3.68608,0.593246 c -1.83162,6.87526 1.05056,10.640405 5.84202,13.15992 l 2.34094,-1.398364 3.0179,3.596679 c 7.95503,2.594957 17.7741,3.997308 22.25704,8.996867 -1.29593,0.870288 -2.81687,1.854996 -4.40025,2.896464 l 8.57416,1.512052 -0.0351,2.369881 c 0.93427,-0.366355 1.83288,-0.696122 2.68097,-0.984436 C 208.0895,71.994096 153.3566,87.764435 166.3258,65.339163 184.851,61.825547 180.728,47.72744 163.98796,47.101 c -8.70584,1.020261 -14.67172,-1.99438 -17.8139,-6.989237 z m 36.69699,57.149483 c -5.00024,3.414594 -10.36882,7.491974 -14.22394,12.280904 l 1.64589,0.95033 9.59528,-6.68073 1.51826,-2.33319 z m 25.42687,15.017684 c -2.50536,0.65111 -4.92958,1.47135 -7.26623,2.46445 l 0.94,1.3348 5.56297,-0.98081 z"
       clip-path="url(#clipPath33)"
       transform="translate(-128.67523,10.33208)" />
    <path
       id="rect35"
       style="opacity:1;fill:#453327;fill-opacity:1;stroke:none;stroke-width:6.0325;stroke-linecap:round;stroke-linejoin:round;stroke-dasharray:none;stroke-dashoffset:149.514;stroke-opacity:1;paint-order:markers stroke fill"
       d="M 11.78481 0 L 11.78481 5.2539428 C 11.78481 7.9676457 13.969516 10.152352 16.683219 10.152352 L 77.508446 10.152352 C 80.222145 10.152352 82.406855 7.9676457 82.406855 5.2539428 L 82.406855 0 L 11.78481 0 z " />
    <text
       xml:space="preserve"
       style="font-style:normal;font-weight:normal;font-size:10.5833px;line-height:1.25;font-family:sans-serif;fill:#000000;fill-opacity:1;stroke:none;stroke-width:0.264583"
       x="32.750633"
       y="8.4947748"
       id="text35"><tspan
         sodipodi:role="line"
         id="tspan35"
         style="font-style:normal;font-variant:normal;font-weight:normal;font-stretch:normal;font-size:10.5833px;font-family:DS-Digital;-inkscape-font-specification:'DS-Digital, Normal';font-variant-ligatures:normal;font-variant-caps:normal;font-variant-numeric:normal;font-variant-east-asian:normal;fill:#ffffff;stroke-width:0.264583"
         x="32.750633"
         y="8.4947748">SYSWIN</tspan></text>
    <path
       id="path36"
       style="opacity:1;fill:url(#linearGradient38);fill-opacity:1;stroke:none;stroke-width:6.0325;stroke-linecap:round;stroke-linejoin:round;stroke-dasharray:none;stroke-dashoffset:149.514;stroke-opacity:1;paint-order:markers stroke fill"
       d="M 11.78481 0 L 11.78481 5.2539428 C 11.78481 7.967643 13.969519 10.152352 16.683219 10.152352 L 17.741553 10.152352 C 15.027851 10.152352 12.843144 7.967643 12.843144 5.2539428 L 12.843144 0 L 11.78481 0 z " />
  </g>
</svg>
