<?xml version="1.0" encoding="UTF-8" standalone="no"?>
<svg
   version="1.0"
   width="512"
   height="512"
   id="svg2"
   sodipodi:version="0.32"
   inkscape:version="1.2.1 (9c6d41e410, 2022-07-14, custom)"
   sodipodi:docname="org.inkscape.Inkscape.svg"
   inkscape:output_extension="org.inkscape.output.svg.inkscape"
   inkscape:export-xdpi="45"
   inkscape:export-ydpi="45"
   xmlns:inkscape="http://www.inkscape.org/namespaces/inkscape"
   xmlns:sodipodi="http://sodipodi.sourceforge.net/DTD/sodipodi-0.dtd"
   xmlns:xlink="http://www.w3.org/1999/xlink"
   xmlns="http://www.w3.org/2000/svg"
   xmlns:svg="http://www.w3.org/2000/svg"
   xmlns:rdf="http://www.w3.org/1999/02/22-rdf-syntax-ns#"
   xmlns:cc="http://creativecommons.org/ns#"
   xmlns:dc="http://purl.org/dc/elements/1.1/">
  <title
     id="title7387">Inkscape Logo</title>
  <sodipodi:namedview
     bordercohor="#666666"
     inkscape:window-height="1076"
     inkscape:window-width="3252"
     inkscape:pageshadow="2"
     inkscape:pageopacity="0"
     guidetolerance="10.0"
     gridtolerance="10.0"
     objecttolerance="10.0"
     borderopacity="1.0"
     bordercolor="#666666"
     pagecolor="#000000"
     id="base"
     inkscape:zoom="1.4142136"
     inkscape:cx="-35.001786"
     inkscape:cy="253.85134"
     inkscape:window-x="1864"
     inkscape:window-y="0"
     inkscape:current-layer="svg2"
     showgrid="false"
     inkscape:window-maximized="0"
     inkscape:showpageshadow="0"
     inkscape:pagecheckerboard="1"
     inkscape:deskcolor="#000000" />
  <defs
     id="defs4">
    <linearGradient
       inkscape:collect="always"
       id="linearGradient14435">
      <stop
         style="stop-color:#000000;stop-opacity:1;"
         offset="0"
         id="stop14431" />
      <stop
         style="stop-color:#000000;stop-opacity:0;"
         offset="1"
         id="stop14433" />
    </linearGradient>
    <linearGradient
       inkscape:collect="always"
       id="linearGradient12620">
      <stop
         style="stop-color:#000000;stop-opacity:1;"
         offset="0"
         id="stop12616" />
      <stop
         style="stop-color:#000000;stop-opacity:0;"
         offset="1"
         id="stop12618" />
    </linearGradient>
    <linearGradient
       gradientUnits="userSpaceOnUse"
       id="linearGradient16516">
      <stop
         id="stop16512"
         offset="0"
         style="stop-color:#ffbc00;stop-opacity:1;" />
      <stop
         id="stop16514"
         offset="1"
         style="stop-color:#070900;stop-opacity:0.2880435;" />
    </linearGradient>
    <linearGradient
       inkscape:collect="always"
       id="linearGradient13033">
      <stop
         style="stop-color:#ff1c1c;stop-opacity:1;"
         offset="0"
         id="stop13029" />
      <stop
         style="stop-color:#ffffff;stop-opacity:0;"
         offset="1"
         id="stop13031" />
    </linearGradient>
    <linearGradient
       inkscape:collect="always"
       id="linearGradient7928">
      <stop
         style="stop-color:#ff0000;stop-opacity:1;"
         offset="0"
         id="stop7924" />
      <stop
         style="stop-color:#ffffff;stop-opacity:0;"
         offset="1"
         id="stop7926" />
    </linearGradient>
    <linearGradient
       inkscape:collect="always"
       id="linearGradient4106">
      <stop
         style="stop-color:#ff9ee1;stop-opacity:1;"
         offset="0"
         id="stop4102" />
      <stop
         style="stop-color:#ffffff;stop-opacity:0;"
         offset="1"
         id="stop4104" />
    </linearGradient>
    <linearGradient
       inkscape:collect="always"
       id="linearGradient2660">
      <stop
         style="stop-color:#000000;stop-opacity:1;"
         offset="0"
         id="stop2656" />
      <stop
         style="stop-color:#303030;stop-opacity:1;"
         offset="1"
         id="stop2658" />
    </linearGradient>
    <clipPath
       clipPathUnits="userSpaceOnUse"
       id="clipoutline1">
      <path
         id="outline1"
         d="M 54.1,12.5 12.9,54.7 C -2.7,70.3 23,69 32.3,74.9 36.6,77.7 18.5,81.3 22.2,85 c 3.6,3.7 21.7,7.1 25.3,10.7 3.6,3.7 -7.3,7.6 -3.7,11.3 3.5,3.7 11.9,0.2 13.4,8.6 1.1,6.2 15.4,3.1 21.8,-2.2 4,-3.4 -6.9,-3.4 -3.3,-7.1 9,-9.1 17,-4.1 20.3,-12.5 1.8,-4.5 -13.6,-7.7 -9.5,-10.6 9.8,-6.9 45.8,-10.4 29.2,-27 L 73,12.5 c -5.3,-5 -14,-5 -18.9,0 z m -9.9,64.7 c 0.9,0 30.8,4 19.3,7.1 -4.4,1.2 -24.6,-7.1 -19.3,-7.1 z m 57.2,16.6 c 0,2.1 16.3,3.3 15.4,-0.5 -1.3,-6.4 -13.6,-5.9 -15.4,0.5 z m -69.5,11.1 c 3.7,3.2 9.3,-0.7 11.1,-5.2 -3.6,-4.7 -16.9,0.3 -11.1,5.2 z m 67.5,-6.7 c -4.6,4.2 0.8,8.6 5.3,5.7 1.2,-0.8 -0.1,-4.7 -5.3,-5.7 z" />
    </clipPath>
    <linearGradient
       inkscape:collect="always"
       xlink:href="#linearGradient5785"
       id="linearGradient9175"
       gradientUnits="userSpaceOnUse"
       x1="82.118591"
       y1="20"
       x2="60"
       y2="40" />
    <linearGradient
       gradientUnits="userSpaceOnUse"
       id="linearGradient5785">
      <stop
         id="stop5787"
         offset="0"
         style="stop-color:#00e000;stop-opacity:1;" />
      <stop
         id="stop5789"
         offset="1"
         style="stop-color:#07092d;stop-opacity:0.28804347" />
    </linearGradient>
    <clipPath
       clipPathUnits="userSpaceOnUse"
       id="clipPath9086">
      <use
         id="use9088"
         xlink:href="#outline1"
         class="low-specularity"
         style="fill:#ffffff;fill-opacity:1"
         x="0"
         y="0"
         width="400"
         height="300"
         transform="translate(1.009546e-6)" />
    </clipPath>
    <filter
       color-interpolation-filters="sRGB"
       inkscape:collect="always"
       id="filter8490"
       x="-0.051767563"
       y="-0.052586698"
       width="1.1035351"
       height="1.1051734">
      <feGaussianBlur
         inkscape:collect="always"
         stdDeviation="2.4163949"
         id="feGaussianBlur8492" />
    </filter>
    <linearGradient
       gradientUnits="userSpaceOnUse"
       y2="60"
       x2="58"
       y1="35"
       x1="33"
       xlink:href="#WhiteTransparent-4"
       id="shinySpecular-4"
       gradientTransform="matrix(4.5902195,0,0,4.5887836,-37.907677,-38.59307)" />
    <linearGradient
       gradientUnits="userSpaceOnUse"
       id="WhiteTransparent-4">
      <stop
         id="stop7606-4"
         offset="0"
         style="stop-color:white;stop-opacity:1" />
      <stop
         id="stop7608-7"
         offset="1"
         style="stop-color:white;stop-opacity:0" />
    </linearGradient>
    <linearGradient
       gradientUnits="userSpaceOnUse"
       y2="50"
       x2="90"
       y1="20"
       x1="60"
       xlink:href="#WhiteTransparent-4"
       id="IcecapTip-6"
       gradientTransform="matrix(4.5484466,0,0,4.5470237,-35.607665,-38.08812)" />
    <radialGradient
       inkscape:collect="always"
       xlink:href="#linearGradient8568"
       id="radialGradient9177"
       gradientUnits="userSpaceOnUse"
       gradientTransform="matrix(3.7823769,0,0,2.5309797,-271.34169,-153.10545)"
       cx="116.3104"
       cy="250.8974"
       fx="116.3104"
       fy="250.8974"
       r="30.599581" />
    <linearGradient
       inkscape:collect="always"
       id="linearGradient8568">
      <stop
         style="stop-color:#ffffff;stop-opacity:1;"
         offset="0"
         id="stop8570" />
      <stop
         style="stop-color:#ffffff;stop-opacity:0;"
         offset="1"
         id="stop8572" />
    </linearGradient>
    <radialGradient
       inkscape:collect="always"
       xlink:href="#linearGradient4106"
       id="radialGradient8574"
       cx="132.44431"
       cy="251.994"
       fx="132.44431"
       fy="251.994"
       r="30.599581"
       gradientTransform="matrix(2.003253,0,0,1.340898,-132.8752,-95.16607)"
       gradientUnits="userSpaceOnUse" />
    <filter
       color-interpolation-filters="sRGB"
       inkscape:collect="always"
       id="filter8732"
       x="-0.078079168"
       width="1.1561583"
       y="-0.1142207"
       height="1.2284414">
      <feGaussianBlur
         inkscape:collect="always"
         stdDeviation="1.9579068"
         id="feGaussianBlur8734" />
    </filter>
    <radialGradient
       inkscape:collect="always"
       xlink:href="#linearGradient8738"
       id="radialGradient8744"
       cx="210.25"
       cy="168.5"
       fx="210.25"
       fy="168.5"
       r="34.25"
       gradientTransform="matrix(2.4090775,0,0,1.0195824,-89.45607,134.11158)"
       gradientUnits="userSpaceOnUse" />
    <linearGradient
       inkscape:collect="always"
       id="linearGradient8738">
      <stop
         style="stop-color:#ffffff;stop-opacity:1;"
         offset="0"
         id="stop8740" />
      <stop
         style="stop-color:#ffffff;stop-opacity:0;"
         offset="1"
         id="stop8742" />
    </linearGradient>
    <radialGradient
       inkscape:collect="always"
       xlink:href="#linearGradient8738"
       id="radialGradient8768"
       gradientUnits="userSpaceOnUse"
       gradientTransform="matrix(1,0,0,0.4233577,0,97.16423)"
       cx="217.5"
       cy="182.08189"
       fx="217.5"
       fy="182.08189"
       r="34.25" />
    <filter
       color-interpolation-filters="sRGB"
       inkscape:collect="always"
       id="filter8764"
       x="-0.07426214"
       width="1.1485243"
       y="-0.1754123"
       height="1.3508246">
      <feGaussianBlur
         inkscape:collect="always"
         stdDeviation="2.1195652"
         id="feGaussianBlur8766" />
    </filter>
    <linearGradient
       inkscape:collect="always"
       xlink:href="#linearGradient8866"
       id="linearGradient8912"
       x1="231.625"
       y1="195.1875"
       x2="231.75"
       y2="201.5"
       gradientUnits="userSpaceOnUse"
       gradientTransform="matrix(2.4090775,0,0,2.4083238,-92.467414,-104.10589)" />
    <linearGradient
       inkscape:collect="always"
       id="linearGradient8866">
      <stop
         style="stop-color:#ffffff;stop-opacity:1;"
         offset="0"
         id="stop8868" />
      <stop
         style="stop-color:#ffffff;stop-opacity:0;"
         offset="1"
         id="stop8870" />
    </linearGradient>
    <linearGradient
       inkscape:collect="always"
       xlink:href="#linearGradient8866"
       id="linearGradient8910"
       x1="231.3765"
       y1="195.62131"
       x2="231.3765"
       y2="200.0714"
       gradientUnits="userSpaceOnUse" />
    <filter
       color-interpolation-filters="sRGB"
       inkscape:collect="always"
       id="filter8906"
       x="-0.096121542"
       width="1.1922431"
       y="-0.31690436"
       height="1.6338087">
      <feGaussianBlur
         inkscape:collect="always"
         stdDeviation="0.56515877"
         id="feGaussianBlur8908" />
    </filter>
    <radialGradient
       inkscape:collect="always"
       xlink:href="#linearGradient8916"
       id="radialGradient8922"
       cx="228.2188"
       cy="204.83231"
       fx="228.2188"
       fy="204.83231"
       r="14.09375"
       gradientTransform="matrix(1,0,0,0.1477455,0,174.5692)"
       gradientUnits="userSpaceOnUse" />
    <linearGradient
       inkscape:collect="always"
       id="linearGradient8916">
      <stop
         style="stop-color:#ff78b4;stop-opacity:1;"
         offset="0.42605039"
         id="stop8918" />
      <stop
         style="stop-color:#ffffff;stop-opacity:0;"
         offset="1"
         id="stop8920" />
    </linearGradient>
    <filter
       color-interpolation-filters="sRGB"
       inkscape:collect="always"
       id="filter8980"
       x="-0.077696319"
       width="1.1553926"
       y="-0.47286011"
       height="1.9457202">
      <feGaussianBlur
         inkscape:collect="always"
         stdDeviation="0.82052366"
         id="feGaussianBlur8982" />
    </filter>
    <linearGradient
       inkscape:collect="always"
       xlink:href="#linearGradient8866"
       id="linearGradient8990"
       gradientUnits="userSpaceOnUse"
       x1="231.625"
       y1="195.1875"
       x2="231.75"
       y2="201.5"
       gradientTransform="matrix(1.0415524,0,0,2.4084779,-54.508646,85.462059)" />
    <linearGradient
       inkscape:collect="always"
       xlink:href="#linearGradient8866"
       id="linearGradient8992"
       gradientUnits="userSpaceOnUse"
       x1="231.3765"
       y1="195.62131"
       x2="231.3765"
       y2="200.0714" />
    <radialGradient
       inkscape:collect="always"
       xlink:href="#linearGradient7928"
       id="radialGradient8994"
       gradientUnits="userSpaceOnUse"
       gradientTransform="matrix(1,0,0,0.1477455,0,174.5692)"
       cx="228.2188"
       cy="204.83231"
       fx="228.2188"
       fy="204.83231"
       r="14.09375" />
    <radialGradient
       inkscape:collect="always"
       xlink:href="#linearGradient8998"
       id="radialGradient9004"
       cx="89.875"
       cy="187.8694"
       fx="89.875"
       fy="187.8694"
       r="22.75"
       gradientTransform="matrix(2.4090775,0,0,0.98039105,-89.45607,178.89646)"
       gradientUnits="userSpaceOnUse" />
    <linearGradient
       inkscape:collect="always"
       id="linearGradient8998">
      <stop
         style="stop-color:#ffffff;stop-opacity:0.33004926"
         offset="0"
         id="stop9000" />
      <stop
         style="stop-color:#ffffff;stop-opacity:0;"
         offset="1"
         id="stop9002" />
    </linearGradient>
    <linearGradient
       inkscape:collect="always"
       xlink:href="#linearGradient8866"
       id="linearGradient9023"
       gradientUnits="userSpaceOnUse"
       x1="231.625"
       y1="195.1875"
       x2="231.75"
       y2="201.5" />
    <linearGradient
       inkscape:collect="always"
       xlink:href="#linearGradient8866"
       id="linearGradient9025"
       gradientUnits="userSpaceOnUse"
       x1="231.3765"
       y1="195.62131"
       x2="231.3765"
       y2="200.0714" />
    <radialGradient
       inkscape:collect="always"
       xlink:href="#linearGradient9040"
       id="radialGradient9046"
       cx="90.28125"
       cy="230.8363"
       fx="90.28125"
       fy="230.8363"
       r="10.46875"
       gradientTransform="matrix(1.185075,-0.3283582,0.1228557,0.4433973,-45.06831,152.9216)"
       gradientUnits="userSpaceOnUse" />
    <linearGradient
       inkscape:collect="always"
       id="linearGradient9040">
      <stop
         style="stop-color:#ffff00;stop-opacity:1;"
         offset="0"
         id="stop9042" />
      <stop
         style="stop-color:#ffffff;stop-opacity:0;"
         offset="1"
         id="stop9044" />
    </linearGradient>
    <filter
       color-interpolation-filters="sRGB"
       inkscape:collect="always"
       id="filter9068"
       x="-0.076179281"
       width="1.1523586"
       y="-0.16557006"
       height="1.3311401">
      <feGaussianBlur
         inkscape:collect="always"
         stdDeviation="0.66458488"
         id="feGaussianBlur9070" />
    </filter>
    <radialGradient
       inkscape:collect="always"
       xlink:href="#linearGradient9286"
       id="radialGradient11553"
       gradientUnits="userSpaceOnUse"
       gradientTransform="matrix(7.833121,0,0,7.7071006,-260.8097,-100.86395)"
       cx="68.39994"
       cy="21.22575"
       fx="68.39994"
       fy="21.22575"
       r="54.783401" />
    <linearGradient
       inkscape:collect="always"
       id="linearGradient9286">
      <stop
         style="stop-color:#ffffff;stop-opacity:1;"
         offset="0"
         id="stop9288" />
      <stop
         style="stop-color:#ffffff;stop-opacity:0;"
         offset="1"
         id="stop9290" />
    </linearGradient>
    <filter
       color-interpolation-filters="sRGB"
       inkscape:collect="always"
       id="filter9298"
       x="-0.0062011838"
       y="-0.0062777806"
       width="1.0123119"
       height="1.0125853">
      <feGaussianBlur
         inkscape:collect="always"
         stdDeviation="0.32610678"
         id="feGaussianBlur9300" />
    </filter>
    <linearGradient
       inkscape:collect="always"
       xlink:href="#linearGradient5899-3"
       id="linearGradient5905"
       x1="97.320824"
       y1="212.72293"
       x2="126.95817"
       y2="153.43015"
       gradientUnits="userSpaceOnUse" />
    <linearGradient
       inkscape:collect="always"
       id="linearGradient5899-3">
      <stop
         style="stop-color:#7937a2;stop-opacity:1;"
         offset="0"
         id="stop5901-1" />
      <stop
         style="stop-color:#ffffff;stop-opacity:0;"
         offset="1"
         id="stop5903-7" />
    </linearGradient>
    <filter
       color-interpolation-filters="sRGB"
       inkscape:collect="always"
       id="filter5983-5"
       x="-0.082592671"
       width="1.1651853"
       y="-0.089277687"
       height="1.1785554">
      <feGaussianBlur
         inkscape:collect="always"
         stdDeviation="3.6868363"
         id="feGaussianBlur5985-9" />
    </filter>
    <linearGradient
       inkscape:collect="always"
       xlink:href="#linearGradient5793-6"
       id="linearGradient5801"
       x1="57.225201"
       y1="76.246338"
       x2="53.63158"
       y2="84.480324"
       gradientUnits="userSpaceOnUse"
       gradientTransform="matrix(4.0265465,0,0,4.0252868,-12.58971,5.1153331)" />
    <linearGradient
       inkscape:collect="always"
       id="linearGradient5793-6">
      <stop
         style="stop-color:#eeeeec;stop-opacity:1;"
         offset="0"
         id="stop5795-2" />
      <stop
         style="stop-color:#eeeeec;stop-opacity:0;"
         offset="1"
         id="stop5797-1" />
    </linearGradient>
    <radialGradient
       inkscape:collect="always"
       xlink:href="#linearGradient5805"
       id="radialGradient5811"
       cx="181.22729"
       cy="214.55119"
       fx="181.22729"
       fy="214.55119"
       r="22.4664"
       gradientTransform="matrix(1.351523,0,0,1.717571,-63.70565,-153.9557)"
       gradientUnits="userSpaceOnUse" />
    <linearGradient
       inkscape:collect="always"
       id="linearGradient5805">
      <stop
         style="stop-color:#ffffff;stop-opacity:1;"
         offset="0"
         id="stop5807" />
      <stop
         style="stop-color:#ffffff;stop-opacity:0;"
         offset="1"
         id="stop5809" />
    </linearGradient>
    <filter
       color-interpolation-filters="sRGB"
       inkscape:collect="always"
       id="filter5845"
       x="-0.067752077"
       y="-0.053323477"
       width="1.1355042"
       height="1.106647">
      <feGaussianBlur
         inkscape:collect="always"
         stdDeviation="1.2409356"
         id="feGaussianBlur5847" />
    </filter>
    <linearGradient
       inkscape:collect="always"
       xlink:href="#WhiteTransparent-4"
       id="linearGradient5822"
       gradientUnits="userSpaceOnUse"
       gradientTransform="matrix(2.2414349,0,0,2.2407337,-63.43044,-81.059201)"
       x1="73.712097"
       y1="180.47569"
       x2="82.754066"
       y2="187.6597" />
    <linearGradient
       inkscape:collect="always"
       id="linearGradient10981-3">
      <stop
         style="stop-color:#00396c;stop-opacity:1;"
         offset="0"
         id="stop10983-2" />
      <stop
         style="stop-color:#729fcf;stop-opacity:0;"
         offset="1"
         id="stop10985-3" />
    </linearGradient>
    <filter
       color-interpolation-filters="sRGB"
       inkscape:collect="always"
       id="filter10997-7"
       x="-0.05936747"
       y="-0.040286151"
       width="1.1187349"
       height="1.0805723">
      <feGaussianBlur
         inkscape:collect="always"
         stdDeviation="2.7696726"
         id="feGaussianBlur10999-0" />
    </filter>
    <linearGradient
       y2="144.5"
       x2="153.7005"
       y1="217.5"
       x1="180.8129"
       gradientTransform="translate(-130.1657,-83.35279)"
       gradientUnits="userSpaceOnUse"
       id="linearGradient1030"
       xlink:href="#linearGradient10981-3"
       inkscape:collect="always" />
    <radialGradient
       inkscape:collect="always"
       xlink:href="#linearGradient2660"
       id="radialGradient2662"
       cx="254.95543"
       cy="253.66242"
       fx="254.95543"
       fy="253.66242"
       r="254.77367"
       gradientTransform="matrix(1,0,0,0.9841152,0,4.0293766)"
       gradientUnits="userSpaceOnUse" />
    <clipPath
       clipPathUnits="userSpaceOnUse"
       id="clipPath9086-3">
      <use
         id="use9088-5"
         xlink:href="#outline1"
         class="low-specularity"
         style="fill:#ffffff;fill-opacity:1"
         x="0"
         y="0"
         width="400"
         height="300"
         transform="translate(1.009546e-6)" />
    </clipPath>
    <linearGradient
       inkscape:collect="always"
       xlink:href="#linearGradient13033"
       id="linearGradient13035"
       x1="-536.77368"
       y1="107"
       x2="-355.33737"
       y2="-17.544571"
       gradientUnits="userSpaceOnUse"
       gradientTransform="translate(557.52647,140.23989)" />
    <filter
       inkscape:collect="always"
       style="color-interpolation-filters:sRGB"
       id="filter15567"
       x="-0.15213689"
       y="-0.13670229"
       width="1.3042738"
       height="1.2734046">
      <feGaussianBlur
         inkscape:collect="always"
         stdDeviation="11.773944"
         id="feGaussianBlur15569" />
    </filter>
    <linearGradient
       inkscape:collect="always"
       xlink:href="#linearGradient16516"
       id="linearGradient9175-2"
       gradientUnits="userSpaceOnUse"
       x1="63.998428"
       y1="8.75"
       x2="70.034988"
       y2="40.069839" />
    <clipPath
       clipPathUnits="userSpaceOnUse"
       id="clipPath9086-9">
      <use
         id="use9088-3"
         xlink:href="#outline1"
         class="low-specularity"
         style="fill:#ffffff;fill-opacity:1"
         x="0"
         y="0"
         width="400"
         height="300"
         transform="translate(1.009546e-6)" />
    </clipPath>
    <filter
       color-interpolation-filters="sRGB"
       inkscape:collect="always"
       id="filter8490-6"
       x="-0.051767563"
       y="-0.052586698"
       width="1.1035351"
       height="1.1051734">
      <feGaussianBlur
         inkscape:collect="always"
         stdDeviation="2.4163949"
         id="feGaussianBlur8492-0" />
    </filter>
    <filter
       inkscape:collect="always"
       style="color-interpolation-filters:sRGB"
       id="filter5168"
       x="-0.024346761"
       y="-0.024733891"
       width="1.0486935"
       height="1.0494678">
      <feGaussianBlur
         inkscape:collect="always"
         stdDeviation="4.8859412"
         id="feGaussianBlur5170" />
    </filter>
    <clipPath
       clipPathUnits="userSpaceOnUse"
       id="clipPath7403">
      <path
         inkscape:connector-curvature="0"
         sodipodi:nodetypes="ccccccccccccccccccccccc"
         style="display:inline;fill:#00ff00;fill-opacity:1;stroke-width:4.54774"
         d="m -370.86268,33.0115 -187.39601,191.8844 c -70.95577,70.93357 45.93932,65.02243 88.23987,91.84987 19.55832,12.73167 -62.76857,29.10096 -45.93931,45.92494 16.37441,16.82399 98.70129,32.28387 115.0757,48.65316 16.37441,16.82398 -33.20366,34.55738 -16.82925,51.38136 15.91956,16.82399 54.12651,0.90941 60.94918,39.10441 5.00329,28.19155 70.04607,14.09577 99.15613,-10.00345 18.19378,-15.45988 -31.38429,-15.45988 -15.00988,-32.28387 40.93602,-41.37792 77.32359,-18.6428 92.33347,-56.8378 8.1872,-20.4616 -61.85888,-35.01208 -43.21025,-48.19845 44.57478,-31.37446 208.318864,-47.28905 132.814654,-122.76964 L -284.89705,33.0115 c -24.10677,-22.73511 -63.67825,-22.73511 -85.96563,0 z m 215.14151,369.67302 c 0,9.54875 74.139684,15.00518 70.046084,-2.27351 -5.91298,-29.10095 -61.858884,-26.82744 -70.046084,2.27351 z m -316.11703,50.47197 c 16.82925,14.55047 42.30055,-3.18292 50.48776,-23.64453 -16.37441,-21.37101 -76.86875,1.36411 -50.48776,23.64453 z m 307.02014,-30.46506 c -20.92286,19.0975 3.63875,39.1044 24.10676,25.91803 5.45814,-3.63762 -0.45484,-21.37101 -24.10676,-25.91803 z"
         id="path7405"
         clip-path="none" />
    </clipPath>
    <filter
       inkscape:collect="always"
       style="color-interpolation-filters:sRGB"
       id="filter8875"
       x="-0.023591091"
       y="-0.023964047"
       width="1.0471751"
       height="1.0479313">
      <feGaussianBlur
         inkscape:collect="always"
         stdDeviation="4.5386827"
         id="feGaussianBlur8877" />
    </filter>
    <linearGradient
       inkscape:collect="always"
       xlink:href="#linearGradient12620"
       id="linearGradient12622"
       x1="-325.84195"
       y1="515.09802"
       x2="-339.07043"
       y2="225.77025"
       gradientUnits="userSpaceOnUse" />
    <linearGradient
       inkscape:collect="always"
       xlink:href="#linearGradient14435"
       id="linearGradient14437"
       x1="-283.09192"
       y1="515.09802"
       x2="-296.12445"
       y2="-182.4557"
       gradientUnits="userSpaceOnUse" />
  </defs>
  <style
     type="text/css"
     id="style26">
	.specularity {opacity:0.5;}
	.low-specularity {opacity:0.25;}
	.full-specularity {opacity:1;}
	.black {fill:#000000;}
	.white {fill:#ffffff;}
	.outline-big {stroke-width:16;stroke:none;opacity:0.1;fill:none;}
	.outline-small {stroke-width:8;stroke:none;opacity:0.2;fill:none;}
	.stroke-highlight {fill:none;stroke:none;opacity:0.2;}
       	.base-shadow 	{fill:black;opacity:75;}
	</style>
  <!-- Copyright License -->
  <metadata
     id="metadata49">
    <rdf:RDF>
      <cc:Work
         rdf:about="etiquette-icon">
        <dc:format>image/svg+xml</dc:format>
        <dc:type
           rdf:resource="http://purl.org/dc/dcmitype/StillImage" />
        <dc:creator>
          <cc:Agent>
            <dc:title>Andy Fitzsimon</dc:title>
          </cc:Agent>
        </dc:creator>
        <dc:rights>
          <cc:Agent>
            <dc:title>Andrew Michael Fitzsimon</dc:title>
          </cc:Agent>
        </dc:rights>
        <dc:publisher>
          <cc:Agent>
            <dc:title>Fitzsimon IT Consulting Pty Ltd</dc:title>
          </cc:Agent>
        </dc:publisher>
        <dc:identifier>http://andy.fitzsimon.com.au</dc:identifier>
        <dc:date>2006</dc:date>
        <cc:license
           rdf:resource="http://creativecommons.org/licenses/by-sa/4.0/" />
        <dc:title>Inkscape Logo</dc:title>
      </cc:Work>
      <cc:License
         rdf:about="http://creativecommons.org/licenses/by-sa/4.0/">
        <cc:permits
           rdf:resource="http://creativecommons.org/ns#Reproduction" />
        <cc:permits
           rdf:resource="http://creativecommons.org/ns#Distribution" />
        <cc:requires
           rdf:resource="http://creativecommons.org/ns#Notice" />
        <cc:requires
           rdf:resource="http://creativecommons.org/ns#Attribution" />
        <cc:permits
           rdf:resource="http://creativecommons.org/ns#DerivativeWorks" />
        <cc:requires
           rdf:resource="http://creativecommons.org/ns#ShareAlike" />
      </cc:License>
    </rdf:RDF>
  </metadata>
  <path
     inkscape:connector-curvature="0"
     sodipodi:nodetypes="ccccccccccccccccccccccc"
     style="display:inline;fill:#303030;fill-opacity:1;stroke-width:4.54774"
     d="M 209.93297,19.987115 22.536965,211.87152 c -70.955767,70.93357 45.939311,65.02243 88.239865,91.84987 19.55832,12.73167 -62.768564,29.10096 -45.939311,45.92494 16.374407,16.82399 98.701291,32.28387 115.075701,48.65316 16.37441,16.82398 -33.20366,34.55738 -16.82925,51.38136 15.91956,16.82399 54.12651,0.90941 60.94918,39.10441 5.00329,28.19155 70.04608,14.09577 99.15614,-10.00345 18.19378,-15.45988 -31.38429,-15.45988 -15.00988,-32.28387 40.93602,-41.37792 77.32359,-18.6428 92.33347,-56.8378 8.1872,-20.4616 -61.85888,-35.01208 -43.21025,-48.19845 44.57478,-31.37446 208.31886,-47.28905 132.81465,-122.76964 L 295.89861,19.987115 c -24.10677,-22.7351183 -63.67826,-22.7351183 -85.96564,0 z M 425.07449,389.66014 c 0,9.54875 74.13968,15.00518 70.04608,-2.27351 -5.91298,-29.10095 -61.85888,-26.82744 -70.04608,2.27351 z m -316.11704,50.47197 c 16.82925,14.55047 42.30055,-3.18292 50.48776,-23.64453 -16.37441,-21.37101 -76.86875,1.36411 -50.48776,23.64453 z M 415.9776,409.66705 c -20.92286,19.0975 3.63875,39.1044 24.10676,25.91803 5.45814,-3.63762 -0.45484,-21.37101 -24.10676,-25.91803 z"
     id="use7631" />
  <path
     inkscape:connector-curvature="0"
     sodipodi:nodetypes="ccccccccccccccccccccccc"
     style="display:inline;fill:none;stroke-width:4.54774"
     d="M 209.93297,19.987115 22.536965,211.87152 c -70.955767,70.93357 45.939311,65.02243 88.239865,91.84987 19.55832,12.73167 -62.768564,29.10096 -45.939311,45.92494 16.374407,16.82399 98.701291,32.28387 115.075701,48.65316 16.37441,16.82398 -33.20366,34.55738 -16.82925,51.38136 15.91956,16.82399 54.12651,0.90941 60.94918,39.10441 5.00329,28.19155 70.04608,14.09577 99.15614,-10.00345 18.19378,-15.45988 -31.38429,-15.45988 -15.00988,-32.28387 40.93602,-41.37792 77.32359,-18.6428 92.33347,-56.8378 8.1872,-20.4616 -61.85888,-35.01208 -43.21025,-48.19845 44.57478,-31.37446 208.31886,-47.28905 132.81465,-122.76964 L 295.89861,19.987115 c -24.10677,-22.7351183 -63.67826,-22.7351183 -85.96564,0 z M 425.07449,389.66014 c 0,9.54875 74.13968,15.00518 70.04608,-2.27351 -5.91298,-29.10095 -61.85888,-26.82744 -70.04608,2.27351 z m -316.11704,50.47197 c 16.82925,14.55047 42.30055,-3.18292 50.48776,-23.64453 -16.37441,-21.37101 -76.86875,1.36411 -50.48776,23.64453 z M 415.9776,409.66705 c -20.92286,19.0975 3.63875,39.1044 24.10676,25.91803 5.45814,-3.63762 -0.45484,-21.37101 -24.10676,-25.91803 z"
     id="use7639" />
  <path
     inkscape:connector-curvature="0"
     sodipodi:nodetypes="ccccccccccccccccccccccc"
     style="display:inline;fill:url(#radialGradient2662);fill-opacity:1;stroke-width:4.54774"
     d="M 209.93297,19.987115 22.536965,211.87152 c -70.955767,70.93357 45.939311,65.02243 88.239865,91.84987 19.55832,12.73167 -62.768564,29.10096 -45.939311,45.92494 16.374407,16.82399 98.701291,32.28387 115.075701,48.65316 16.37441,16.82398 -33.20366,34.55738 -16.82925,51.38136 15.91956,16.82399 54.12651,0.90941 60.94918,39.10441 5.00329,28.19155 70.04608,14.09577 99.15614,-10.00345 18.19378,-15.45988 -31.38429,-15.45988 -15.00988,-32.28387 40.93602,-41.37792 77.32359,-18.6428 92.33347,-56.8378 8.1872,-20.4616 -61.85888,-35.01208 -43.21025,-48.19845 44.57478,-31.37446 208.31886,-47.28905 132.81465,-122.76964 L 295.89861,19.987115 c -24.10677,-22.7351183 -63.67826,-22.7351183 -85.96564,0 z M 425.07449,389.66014 c 0,9.54875 74.13968,15.00518 70.04608,-2.27351 -5.91298,-29.10095 -61.85888,-26.82744 -70.04608,2.27351 z m -316.11704,50.47197 c 16.82925,14.55047 42.30055,-3.18292 50.48776,-23.64453 -16.37441,-21.37101 -76.86875,1.36411 -50.48776,23.64453 z M 415.9776,409.66705 c -20.92286,19.0975 3.63875,39.1044 24.10676,25.91803 5.45814,-3.63762 -0.45484,-21.37101 -24.10676,-25.91803 z"
     id="path2652"
     inkscape:label="back-grad" />
  <path
     inkscape:connector-curvature="0"
     sodipodi:nodetypes="cssssssssss"
     id="path5783"
     d="m 153.72404,320.24091 c 10.15181,7.45358 30.1869,2.95798 42.21922,8.37453 28.88046,13.0009 64.38299,27.48867 57.84974,1.8395 0,0 -7.34924,6.10229 -7.34924,6.10229 0,0 -0.14328,-11.6292 -0.14328,-11.6292 0,0 -17.06568,4.16639 -17.06568,4.16639 0,0 -13.21856,-10.60711 -19.27868,-14.10482 -1.26579,-0.73057 -7.76739,5.87844 -7.76739,5.87844 0,0 -1.16881,-7.0197 -1.16881,-7.0197 -8.44815,-0.89867 -16.81179,-1.29503 -24.17568,-1.23597 -17.65224,0.14141 -29.56062,2.89982 -23.12007,7.62854 z"
     style="display:none;opacity:0.50245;fill:url(#linearGradient5801);fill-opacity:1;fill-rule:evenodd;stroke:none;stroke-width:4.54774" />
  <path
     style="color:#000000;display:inline;mix-blend-mode:normal;fill:url(#linearGradient14437);stroke:url(#linearGradient12622);stroke-width:0.936877;filter:url(#filter8875);fill-opacity:1"
     d="m -328.39812,29.63892 c -15.2312,0.002 -30.25328,5.54047 -41.13474,16.640546 l -0.002,0.0019 v 0.0019 L -545.10209,226.05549 c -16.80098,16.80067 -23.00323,29.44162 -21.27735,39.78616 0.86326,5.17426 3.76766,9.52423 7.89758,13.11445 4.1299,3.59021 9.49483,6.50601 15.62497,9.07415 12.2603,5.13631 27.63887,8.87395 42.401,12.91683 14.75338,4.04048 28.88534,8.41424 38.38815,14.43559 0.95514,0.62254 1.46357,1.18228 1.67796,1.55353 0.21477,0.37188 0.22615,0.53168 0.15919,0.86002 -0.13391,0.65668 -1.15142,2.09462 -3.18208,3.64321 -4.06133,3.09717 -11.46648,6.66175 -18.98822,10.31479 -7.52174,3.65304 -15.17541,7.40438 -20.23983,11.51883 -2.5322,2.05722 -4.51188,4.21835 -5.27908,6.87103 -0.76667,2.65086 0.12754,5.64051 2.46296,7.9781 4.34682,4.45632 12.17199,8.24755 21.88486,12.09522 9.72413,3.85214 21.31093,7.62701 32.87119,11.38159 11.56026,3.75458 23.09401,7.48852 32.62966,11.21324 9.52892,3.7221 17.09298,7.5713 20.41915,10.89119 1.65402,1.70432 2.32816,3.20749 2.49773,4.68988 0.17009,1.48686 -0.18778,3.06862 -1.04667,4.83259 -1.71778,3.52796 -5.46566,7.52307 -9.35412,11.57007 -3.88847,4.047 -7.91621,8.14603 -10.11351,12.65881 -1.09866,2.2564 -1.73525,4.68189 -1.44924,7.18212 0.28588,2.49906 1.5188,4.9568 3.68713,7.18577 9.4e-4,9.4e-4 8.1e-4,0.003 0.002,0.004 8.27399,8.72049 21.4952,8.75903 32.78702,11.39987 5.6507,1.32154 10.82271,3.20943 14.92599,6.75759 4.10328,3.54817 7.28502,8.78687 8.81798,17.36883 1.31733,7.41263 6.83846,12.23658 14.11904,14.51061 7.28194,2.27444 16.44664,2.34869 26.26548,0.90759 19.63766,-2.88218 41.88796,-11.8685 55.9674,-23.52439 l 0.011,-0.009 0.011,-0.009 c 2.31257,-1.96507 3.76809,-3.82181 4.33306,-5.86828 0.56497,-2.04648 -0.0368,-4.14372 -1.17475,-5.65603 -2.2758,-3.02461 -6.19976,-4.75921 -9.97811,-6.6478 -3.77835,-1.88858 -7.41047,-3.88525 -8.82896,-5.67981 -0.70925,-0.89729 -0.92686,-1.55059 -0.78867,-2.46846 0.13808,-0.91708 0.79097,-2.28308 2.51786,-4.05858 0.002,-0.002 0.002,-0.002 0.004,-0.004 18.81171,-19.00838 36.2724,-23.16689 51.38,-27.16943 7.55559,-2.00173 14.55319,-3.93696 20.67899,-7.80059 6.12312,-3.86194 11.24793,-9.69684 14.89671,-18.97541 1.16957,-2.92305 0.922,-5.96905 -0.29644,-8.61853 -1.21844,-2.64949 -3.29536,-4.98616 -5.83169,-7.18761 -5.07267,-4.4029 -12.09597,-8.30408 -18.73387,-11.98177 -6.63791,-3.67768 -12.91811,-7.18427 -16.11722,-10.15011 -1.59954,-1.48292 -2.26838,-2.73638 -2.31656,-3.45108 -0.0482,-0.7141 0.21447,-1.50858 2.06222,-2.81612 l 0.004,-0.002 c 10.00802,-7.04312 27.35405,-13.52887 46.47603,-20.15566 19.1239,-6.62745 40.05626,-13.46486 57.59963,-21.66893 17.54336,-8.20407 31.873964,-17.70691 37.354304,-30.42105 2.74017,-6.35707 3.10298,-13.5063 0.46111,-21.16938 -2.64015,-7.65814 -8.18616,-15.85257 -17.167534,-24.83456 l -0.0165,-0.0165 -181.97183,-186.174968 -0.0311,-0.0311 C -297.72557,35.17122 -313.16675,29.63652 -328.39794,29.63842 Z m 0.0329,4.31476 c 14.16414,0.002 28.54574,5.11106 39.41286,15.350507 l 181.92427,186.127403 0.009,0.009 c 8.692884,8.69017 13.821394,16.42354 16.166614,23.22613 2.34521,6.8026 2.00278,12.65081 -0.34401,18.09526 -4.69358,10.8889 -18.061684,20.21004 -35.248164,28.2472 -17.18647,8.03718 -38.01492,14.85732 -57.18974,21.50242 -19.1748,6.6451 -36.66256,13.04607 -47.53551,20.69912 l -0.002,0.002 -0.002,0.002 c -2.51599,1.77904 -4.02567,4.11343 -3.85912,6.58375 0.16654,2.47032 1.6965,4.45726 3.67248,6.28915 3.95194,3.66379 10.3243,7.08131 16.94978,10.75213 6.62548,3.6708 13.47695,7.54236 18.00559,11.47308 2.26433,1.96536 3.91993,3.93582 4.75392,5.74935 0.834,1.81352 0.96028,3.38584 0.21227,5.25528 l -0.004,0.007 -0.002,0.006 c -3.38212,8.60633 -7.78986,13.52415 -13.2096,16.94246 -5.41974,3.41831 -11.97806,5.29258 -19.49692,7.28458 -15.03772,3.98401 -33.79547,8.55791 -53.33061,28.30393 l -0.006,0.006 -0.007,0.007 c -2.10498,2.16278 -3.35525,4.24329 -3.6798,6.39895 -0.32456,2.15565 0.43615,4.20012 1.65783,5.74568 2.44334,3.09113 6.48171,4.95693 10.26721,6.84909 3.78551,1.89216 7.31956,3.85645 8.47947,5.39802 0.57995,0.77078 0.68948,1.17416 0.4721,1.96159 -0.21683,0.78543 -1.03717,2.09383 -2.97532,3.74384 -13.19396,10.9188 -35.04273,19.82216 -53.85943,22.58385 -9.41042,1.38116 -18.06274,1.21468 -24.37709,-0.75756 -6.31436,-1.97222 -10.16719,-5.40213 -11.19494,-11.19311 v -0.002 c -1.66304,-9.31002 -5.353,-15.62792 -10.22514,-19.84093 -4.87215,-4.21301 -10.77975,-6.29111 -16.74118,-7.68531 -11.92286,-2.78843 -24.04433,-3.18013 -30.68637,-10.19952 l -0.009,-0.011 -0.011,-0.011 c -1.66498,-1.7107 -2.33679,-3.21582 -2.50688,-4.70268 -0.17008,-1.48686 0.18595,-3.06863 1.04485,-4.8326 1.71778,-3.52796 5.46749,-7.5249 9.35595,-11.5719 3.88847,-4.04699 7.9162,-8.14419 10.11351,-12.65698 1.09865,-2.25639 1.73341,-4.68188 1.4474,-7.18211 -0.28601,-2.50024 -1.51691,-4.96147 -3.68712,-7.19126 l -0.011,-0.011 -0.011,-0.009 c -4.34786,-4.34651 -12.17011,-8.05686 -21.89034,-11.85369 -9.72024,-3.79683 -21.30461,-7.54375 -32.86205,-11.29742 -11.55745,-3.75366 -23.08876,-7.51417 -32.62051,-11.29009 -9.53174,-3.77592 -17.0907,-7.70196 -20.41732,-11.11992 l -0.011,-0.011 -0.009,-0.011 c -1.60269,-1.60219 -1.74657,-2.53639 -1.38518,-3.78593 0.36138,-1.24953 1.67672,-2.96499 3.87193,-4.74843 4.39041,-3.56686 11.91696,-7.34962 19.4164,-10.99183 7.49945,-3.6422 14.95488,-7.13381 19.70918,-10.75944 2.37714,-1.81282 4.25694,-3.65451 4.77221,-6.1812 0.25763,-1.26334 0.0321,-2.66992 -0.6441,-3.84083 -0.6762,-1.17089 -1.71271,-2.13011 -3.04485,-2.99727 l -0.011,-0.006 -0.011,-0.007 c -10.31149,-6.53995 -24.72137,-10.89433 -39.56216,-14.95875 -14.84081,-4.06441 -30.11655,-7.80955 -41.8795,-12.73749 -5.88147,-2.46397 -10.87044,-5.22628 -14.47585,-8.36053 -3.6054,-3.13426 -5.81745,-6.55377 -6.49225,-10.59842 -1.34962,-8.08928 3.68343,-19.67404 20.10624,-36.09171 l 0.009,-0.009 175.57491,-179.780054 c 9.9989,-10.198666 23.9517,-15.308496 38.12283,-15.306586 z m 195.44862,336.51441 c -15.40872,0.5561 -31.41096,8.22927 -35.58484,23.0651 l -0.0787,0.28179 v 0.29461 c 0,1.24831 0.62218,2.32775 1.37787,3.10889 0.75569,0.78114 1.68125,1.37997 2.76123,1.93048 2.15996,1.10101 4.97799,1.98834 8.30563,2.75391 6.65527,1.53112 15.31419,2.5079 23.88853,2.69717 8.57434,0.18929 17.01776,-0.38983 23.35421,-2.14823 3.16822,-0.87919 5.84011,-2.02685 7.78047,-3.78959 1.932864,-1.75592 2.989514,-4.44121 2.362314,-7.14368 -1.525314,-7.4441 -6.330384,-12.97075 -12.558164,-16.40815 -6.2386,-3.44337 -13.90419,-4.92035 -21.60856,-4.6423 z m 0.15371,4.25803 c 7.0505,-0.25445 14.00943,1.14206 19.39628,4.1153 5.38684,2.97326 9.20053,7.39446 10.45385,13.56276 l 0.006,0.033 0.009,0.033 c 0.31603,1.33391 0.0445,2.01812 -1.0796,3.03936 -1.12414,1.02123 -3.2488,2.05987 -6.0531,2.83807 -5.60859,1.55642 -13.81156,2.17617 -22.12273,1.9927 -8.31118,-0.18347 -16.77811,-1.15166 -23.02667,-2.58922 -3.12429,-0.71878 -5.70122,-1.57129 -7.32484,-2.39892 -0.81181,-0.41382 -1.37414,-0.8274 -1.63405,-1.09607 -0.0915,-0.0946 -0.0385,-0.0158 -0.0641,-0.0512 3.73104,-12.1124 17.53199,-18.97668 31.44026,-19.47863 z m -305.42182,34.44851 c -5.72858,0.33464 -11.51462,1.70895 -16.6204,3.84267 -6.80773,2.84496 -12.50496,6.99669 -14.94428,12.42093 -1.21968,2.71213 -1.52876,5.78709 -0.59104,8.81982 0.93659,3.02908 3.03994,5.96063 6.34404,8.75394 8.60844,7.43607 19.6935,6.59657 29.08893,1.47851 9.39844,-5.11971 17.53437,-14.36041 21.57377,-24.45578 l 0.45015,-1.12535 -0.73743,-0.96249 c -4.33126,-5.65293 -11.40423,-8.23037 -18.88208,-8.75029 -1.86948,-0.12997 -3.77212,-0.13349 -5.68166,-0.0219 z m 262.5652,1.38519 -0.79049,0.71913 c -5.19061,4.73777 -7.77656,9.75984 -8.12448,14.4978 -0.34793,4.73797 1.60066,9.04284 4.8509,12.10987 6.50048,6.13405 18.12383,7.69211 28.45031,1.03934 l 0.0128,-0.009 0.0146,-0.009 c 2.0908,-1.39342 2.86857,-3.96034 2.68803,-6.55264 -0.18053,-2.5923 -1.24419,-5.4337 -3.18025,-8.24891 -3.87213,-5.63042 -11.32163,-11.12429 -22.87297,-13.34501 z m -262.31268,2.87468 c 1.73924,-0.10437 3.46176,-0.1035 5.13453,0.0128 6.17608,0.4294 11.47263,2.47772 14.89121,6.20498 -3.8052,8.62277 -11.02453,16.73014 -19.03945,21.09619 -8.39261,4.57178 -17.11732,5.22384 -24.27463,-0.96432 l -0.009,-0.009 -0.009,-0.007 c -2.86793,-2.42214 -4.39841,-4.71925 -5.03205,-6.76857 -0.63365,-2.0493 -0.44968,-3.90608 0.40804,-5.81339 1.71547,-3.81462 6.51157,-7.64957 12.7009,-10.23611 4.64201,-1.9399 10.01204,-3.202 15.22974,-3.51512 z m 263.61735,1.80971 c 9.91858,2.16609 16.06463,6.85317 19.10717,11.27729 1.57953,2.29678 2.32673,4.51551 2.43917,6.12995 0.11209,1.60945 -0.33337,2.39378 -0.79781,2.70633 -8.84272,5.68309 -18.29898,4.04741 -23.1932,-0.5709 -2.44928,-2.31122 -3.77742,-5.27463 -3.52609,-8.69723 0.23485,-3.19805 1.99228,-6.93673 5.97076,-10.84544 z"
     id="path5932"
     clip-path="url(#clipPath7403)"
     transform="translate(581.84025,-12.686798)"
     inkscape:label="edge-dark" />
  <use
     inkscape:label="yellow-cast"
     id="use7641-6"
     xlink:href="#outline1"
     class="low-specularity"
     style="display:inline;opacity:0.43526372;fill:url(#linearGradient9175-2);filter:url(#filter8490-6)"
     x="0"
     y="0"
     width="400"
     height="300"
     transform="matrix(4.5054374,0,0,4.504028,-33.385488,-34.10366)"
     clip-path="url(#clipPath9086-9)" />
  <use
     inkscape:label="green-cast"
     id="use7641"
     xlink:href="#outline1"
     class="low-specularity"
     style="display:inline;opacity:0.20049631;fill:url(#linearGradient9175);filter:url(#filter8490)"
     x="0"
     y="0"
     width="400"
     height="300"
     transform="matrix(4.5054374,0,0,4.504028,-33.385488,-34.10366)"
     clip-path="url(#clipPath9086)" />
  <path
     inkscape:connector-curvature="0"
     d="m 285.05783,32.390747 74.13968,75.480573 c 6.82267,6.82054 6.82267,20.91631 2.72907,25.00863 l -36.84242,-30.01036 -7.27752,44.10613 -30.47459,-16.36928 -49.57807,31.37446 -16.3744,-65.931821 -26.38099,57.292481 -65.95248,-0.45471 c -12.73565,0 -10.91627,-13.18636 2.27422,-26.37273 25.92615,-28.646231 76.41391,-77.299385 92.33347,-94.123373 16.37441,-16.823987 45.02962,-16.369285 61.40403,0 z"
     style="display:inline;fill:#ffffff;fill-opacity:1;stroke-width:4.54774;opacity:0.4"
     class="full-specularity"
     id="icecap-7" />
  <path
     inkscape:connector-curvature="0"
     id="path7643"
     d="m 39.208023,222.50869 c -50.951449,50.47664 82.589517,39.109 106.114077,74.74876 23.52457,35.63977 66.03784,-10.97082 66.03784,-10.97082 0,0 -32.20255,-10.59905 -31.7064,-58.51119 0.49615,-47.91214 109.26238,-192.030205 109.26238,-192.030205 -21.57401,-22.026192 -49.11531,-20.190649 -68.85329,0 z"
     style="display:inline;opacity:0.1;fill:url(#shinySpecular-4);stroke:none;stroke-width:4.54774"
     class="specularity"
     inkscape:label="left-glare"
     sodipodi:nodetypes="czczccc" />
  <path
     inkscape:connector-curvature="0"
     style="display:inline;opacity:0.216749;fill:url(#radialGradient9177);fill-opacity:1;fill-rule:evenodd;stroke:none;stroke-width:2.4087"
     d="m 182.76969,390.20255 c 0,0 8.04752,12.28414 7.22723,18.06243 -1.60975,11.34007 -26.04068,16.99891 -20.62773,27.09364 5.34792,9.97311 24.62415,4.32053 40.80375,14.75098 16.11071,10.3859 11.77919,31.55266 23.48851,36.87746 22.83613,10.38469 82.81204,-17.91191 79.80069,-17.30983 -3.01135,0.60208 -59.19127,12.27138 -71.83893,2.036 -14.42074,-11.67001 -18.5552,-19.82099 -29.19176,-26.72132 -9.96755,-6.46634 -23.96959,-9.10442 -27.22859,-14.39864 -3.259,-5.29398 6.52667,-12.12495 7.20314,-22.32829 0.40617,-6.12774 -9.63631,-18.06243 -9.63631,-18.06243 z"
     id="path8566"
     sodipodi:nodetypes="csszsszszsc" />
  <path
     inkscape:connector-curvature="0"
     sodipodi:nodetypes="csszscssc"
     transform="matrix(2.4090775,0,0,2.4083238,-89.45607,-99.891345)"
     id="path8718"
     d="m 113,203.5 c 0,0 3.3405,5.1007 3,7.5 -0.6682,4.7087 -10.8094,7.0584 -8.5625,11.25 2.2199,4.1411 10.2214,1.794 16.9375,6.125 6.6875,4.3125 4.8895,13.1015 9.75,15.3125 9.4792,4.312 34.375,-7.4375 33.125,-7.1875 -41.3396,0.1574 -33.6249,-10.4946 -49.5625,-17.5 -2.303,-1.0123 -0.9683,-3.7633 -0.6875,-8 0.1686,-2.5444 -4,-7.5 -4,-7.5 z"
     style="display:inline;opacity:0.275862;fill:url(#radialGradient8574);fill-opacity:1;fill-rule:evenodd;stroke:none;filter:url(#filter8732)"
     inkscape:label="pink-cast" />
  <path
     id="use7639-1"
     style="display:inline;opacity:0.33387958;mix-blend-mode:normal;fill:url(#linearGradient13035);fill-opacity:1;stroke-width:4.54774;filter:url(#filter15567)"
     d="m 48.838968,211.03091 c -1.98772,2.03285 -3.95778,4.06826 -5.79386,6.10369 -4.90896,5.44681 -9.49666,11.33231 -12.50497,18.06428 -1.4789,3.51616 -2.48573,7.5944 -1.11876,11.30535 1.58069,4.09887 5.21191,6.91825 8.82438,9.17427 6.80793,4.21103 14.42753,6.85135 21.9988,9.32253 19.46209,6.1965 39.783252,10.18738 58.953862,17.53563 50.24365,17.16001 49.4192,-28.8151 49.4192,-28.8151 0,0 48.09436,-23.26511 45.81627,-45.15974 -1.82096,-17.06796 -61.95114,-53.34221 -58.64209,-70.19246 3.9149,-20.21759 11.5036,-39.56783 20.93158,-57.82011 0.28764,-0.55184 0.7799,-1.387376 0.021,-0.488265 C 134.10923,123.71762 91.474078,167.37425 48.838928,211.03089 Z"
     inkscape:label="red-cast"
     sodipodi:nodetypes="cccccccccccccc" />
  <path
     inkscape:connector-curvature="0"
     style="opacity:0.453202;fill:url(#radialGradient8744);fill-opacity:1;fill-rule:evenodd;stroke:none;stroke-width:2.4087"
     d="m 352.00738,337.82151 c 89.38569,-32.8847 118.10165,-37.40272 147.556,-66.83099 -34.11423,28.78838 -106.23671,44.23079 -165.02181,69.84139 z"
     id="path8736"
     sodipodi:nodetypes="cccc" />
  <path
     inkscape:connector-curvature="0"
     sodipodi:nodetypes="cccc"
     transform="matrix(2.4090775,0,0,2.4083238,-89.45607,-104.10589)"
     id="path8746"
     d="m 183.25,181.75 c 61.1037,-21.6546 50.7736,-21.5306 61.25,-27.75 -19.4277,7.4367 -55.7345,8.2298 -68.5,29 z"
     style="display:inline;opacity:0.512315;fill:url(#radialGradient8768);fill-opacity:1;fill-rule:evenodd;stroke:none;filter:url(#filter8764)" />
  <ellipse
     style="display:inline;overflow:visible;visibility:visible;opacity:0.285714;fill:url(#linearGradient8912);fill-opacity:1;fill-rule:nonzero;stroke:none;stroke-width:2.4087;marker:none;enable-background:accumulate"
     id="path8864"
     cx="461.46985"
     cy="375.30106"
     rx="19.122053"
     ry="5.8702893" />
  <ellipse
     transform="matrix(3.2437183,0,0,5.1871582,-284.38266,-650.49426)"
     id="path8874"
     style="display:inline;overflow:visible;visibility:visible;opacity:0.620689;fill:url(#linearGradient8910);fill-opacity:1;fill-rule:nonzero;stroke:none;stroke-width:1;marker:none;filter:url(#filter8906);enable-background:accumulate"
     cx="229.9375"
     cy="199.0625"
     rx="7.9375"
     ry="2.4375" />
  <path
     inkscape:connector-curvature="0"
     style="display:inline;fill:url(#radialGradient8922);fill-opacity:1;fill-rule:evenodd;stroke:none;filter:url(#filter8980)"
     d="m 214.125,203.75 c 3.7695,3.4842 24.7558,5.2722 28.1875,-1 -6.7366,4.7839 -21.7168,3.1026 -28.1875,1 z"
     id="path8914"
     transform="matrix(2.4090775,0,0,2.4083238,-89.45607,-101.5943)"
     sodipodi:nodetypes="ccc"
     inkscape:label="smol-pink-cast" />
  <ellipse
     transform="matrix(0.89196424,-0.45210596,0.45233107,0.8918501,0,0)"
     id="path8984"
     style="display:inline;overflow:visible;visibility:visible;opacity:0.285714;fill:url(#linearGradient8990);fill-opacity:1;fill-rule:nonzero;stroke:none;stroke-width:1.58384;marker:none;enable-background:accumulate"
     cx="184.98331"
     cy="564.89972"
     rx="6.7788844"
     ry="7.4231267" />
  <ellipse
     style="display:inline;overflow:visible;visibility:visible;opacity:0.620689;fill:url(#linearGradient8992);fill-opacity:1;fill-rule:nonzero;stroke:none;stroke-width:1;marker:none;filter:url(#filter8906);enable-background:accumulate"
     id="path8986"
     transform="matrix(1.2508951,-0.63403562,2.3464635,4.6264648,-333.3949,-351.96233)"
     cx="229.9375"
     cy="199.0625"
     rx="7.055552"
     ry="2.140048" />
  <path
     inkscape:connector-curvature="0"
     sodipodi:nodetypes="ccc"
     transform="matrix(0.9290275,-0.47089205,1.0894294,2.1480013,-7.6651706,102.5145)"
     id="path8988"
     d="m 217.0575,201.9403 c 3.7695,3.4842 26.9713,8.9112 25.255,0.8097 -3.3174,5.3233 -18.7842,1.2929 -25.255,-0.8097 z"
     style="display:inline;fill:url(#radialGradient8994);fill-opacity:1;fill-rule:evenodd;stroke:none;filter:url(#filter8980);opacity:0.56040641"
     inkscape:label="smol-red-cast" />
  <path
     inkscape:connector-curvature="0"
     style="display:inline;fill:url(#radialGradient9004);fill-opacity:1;fill-rule:evenodd;stroke:none;stroke-width:2.4087"
     d="m 74.963469,348.05688 c 0,-1.4946 93.583511,28.51094 109.613031,44.55399 -13.18055,-12.85683 -79.88432,-42.42527 -90.039276,-42.74775 -10.15496,-0.32247 -18.369216,-1.20416 -19.573755,-1.80624 z"
     id="path8996"
     sodipodi:nodetypes="cczc" />
  <g
     id="g9018"
     transform="matrix(3.9981519,-0.87755693,1.0635819,3.1644079,-128.05996,130.14131)"
     style="display:inline">
    <ellipse
       style="display:inline;overflow:visible;visibility:visible;opacity:0.285714;fill:url(#linearGradient9023);fill-opacity:1;fill-rule:nonzero;stroke:none;stroke-width:1;marker:none;enable-background:accumulate"
       id="path9006"
       transform="matrix(0.5296484,0,0,0.5296484,-84.4165,-4.727724)"
       cx="229.9375"
       cy="199.0625"
       rx="7.9375"
       ry="2.4375" />
    <ellipse
       transform="matrix(0.7131486,0,0,1.140781,-126.6101,-124.8917)"
       id="path9008"
       style="display:inline;overflow:visible;visibility:visible;opacity:0.620689;fill:url(#linearGradient9025);fill-opacity:1;fill-rule:nonzero;stroke:none;stroke-width:1;marker:none;filter:url(#filter8906);enable-background:accumulate"
       cx="229.9375"
       cy="199.0625"
       rx="7.9375"
       ry="2.4375" />
  </g>
  <path
     inkscape:connector-curvature="0"
     style="display:inline;opacity:0.37482386;fill:url(#radialGradient9046);fill-opacity:1;fill-rule:evenodd;stroke:none;filter:url(#filter9068)"
     d="m 80.5,220.0625 c 0,0 2.10339,5.6508 7.875,5.9375 5.83887,0.2901 12.5032,-7.007 13.0625,-9.625 -1,2.25 -6.59033,9.0333 -13.8125,8.9375 -4.09986,-0.054 -7.125,-5.25 -7.125,-5.25 z"
     id="path9038"
     transform="matrix(2.4090775,0,0,2.4083238,-89.004363,-102.45018)"
     sodipodi:nodetypes="czczc"
     inkscape:label="smol-yellow-cast" />
  <path
     inkscape:label="top_inner_highlight"
     d="m 252.23438,9.5585938 c -14.0891,0 -27.79133,5.0938832 -37.5625,15.0566402 l -0.006,0.0059 c -6.5e-4,6.6e-4 -0.001,0.0013 -0.002,0.002 L 27.275391,216.5 a 6.62458,6.62458 0 0 1 -0.05469,0.0547 c -17.128348,17.12299 -21.3018206,28.4028 -20.2460936,34.73047 0.5278635,3.16383 2.1793408,5.86619 5.4921876,8.74609 3.312847,2.8799 8.255403,5.6717 14.279297,8.19531 12.047786,5.04722 28.24884,9.05187 44.169922,13.41211 15.921081,4.36025 31.574894,8.98348 43.408204,16.48828 a 6.62458,6.62458 0 0 1 0.0664,0.043 c 1.80354,1.17403 3.45166,2.60238 4.64454,4.66797 1.19287,2.06559 1.65326,4.84147 1.18359,7.14453 -0.93934,4.60613 -3.82768,6.98273 -6.71875,9.1875 -5.78213,4.40955 -13.793402,8.06084 -21.775391,11.9375 -7.981988,3.87666 -15.882753,7.94907 -19.880859,11.19727 -1.605743,1.30456 -2.234759,2.23545 -2.466797,2.58398 0.07754,0.0618 0.01548,-0.0548 0.144531,0.0742 a 6.62458,6.62458 0 0 1 0.0625,0.0644 c 2.512254,2.58124 10.301718,6.90693 20.279297,10.85938 9.977579,3.95244 22.225249,7.95149 34.558599,11.95703 12.33334,4.00554 24.75273,8.01639 35.3164,12.14258 10.56367,4.12619 19.1717,7.943 24.85938,13.6289 a 6.62458,6.62458 0 0 1 0.0625,0.0645 c 2.83228,2.91005 4.71703,6.51148 5.14062,10.21484 0.42359,3.70337 -0.53758,7.15324 -1.95508,10.06445 -2.83499,5.82243 -7.41975,10.30124 -11.57031,14.6211 -4.15056,4.31985 -7.86689,8.47988 -9.21094,11.24023 -0.67202,1.38018 -0.76826,2.20732 -0.70507,2.75977 0.0632,0.55244 0.20938,1.18647 1.4707,2.48242 a 6.62458,6.62458 0 0 1 0.0644,0.0664 c 5.42476,5.73295 17.22329,6.51617 30.58399,9.64062 6.68035,1.56223 13.73916,3.97284 19.7246,9.14844 5.98545,5.17559 10.44371,13.02247 12.35157,23.70312 a 6.62458,6.62458 0 0 1 0,0.006 c 0.80272,4.52305 3.21097,6.75817 8.96289,8.55469 5.75192,1.79652 14.46429,2.06932 24.0918,0.65625 19.23649,-2.82341 42.13139,-12.2315 55.31445,-23.12695 0.8136,-0.69935 0.6327,-0.57404 0.88086,-0.90235 -1.16966,-0.80071 -3.34538,-2.20642 -6.39844,-3.73242 -4.04786,-2.02322 -8.77338,-3.87883 -12.42773,-8.50195 -1.82718,-2.31156 -3.19492,-5.91387 -2.65821,-9.47852 0.53671,-3.56464 2.48386,-6.51518 5.11328,-9.21679 a 6.62458,6.62458 0 0 1 0.0371,-0.0391 c 21.58473,-21.81773 42.9263,-27.12482 58.90235,-31.35742 7.98802,-2.1163 14.53942,-4.05602 19.60351,-7.25 5.06409,-3.19397 9.03562,-7.50152 12.37305,-15.99414 a 6.62458,6.62458 0 0 1 0.0137,-0.0391 c 0.36799,-0.91969 0.35903,-1.09355 -0.13867,-2.17578 -0.4977,-1.08224 -1.83344,-2.81315 -3.97266,-4.66992 -4.27842,-3.71355 -11.41725,-7.81535 -18.47656,-11.72657 -7.05931,-3.91121 -13.95257,-7.46852 -18.93945,-12.09179 -2.49344,-2.31164 -5.00603,-5.18212 -5.30469,-9.61133 -0.29866,-4.42922 2.5837,-8.49273 5.94727,-10.8711 a 6.62458,6.62458 0 0 1 0.0117,-0.008 c 12.48909,-8.79058 31.29964,-15.53565 51.81836,-22.64648 20.51872,-7.11083 42.64495,-14.37493 60.625,-22.78321 17.98005,-8.40828 31.26416,-18.17262 35.47071,-27.93164 2.10327,-4.87951 2.45035,-9.79143 0.25,-16.17382 -2.20036,-6.3824 -7.24714,-14.16401 -16.22071,-23.13477 a 6.62458,6.62458 0 0 1 -0.0527,-0.0527 L 291.30469,24.763672 C 280.57265,14.666478 266.30675,9.5585937 252.23438,9.5585938 Z M 461.18945,373.31641 c -12.03766,0.43443 -23.50082,5.75673 -28.18359,14.35742 1.3512,0.53131 2.74761,1.0995 5.07422,1.63476 6.25442,1.4389 15.09664,2.46244 23.69922,2.65235 8.60257,0.18991 17.11007,-0.51369 22.35351,-1.96875 2.29118,-0.63581 3.70949,-1.41159 4.32031,-1.83594 -1.17204,-4.9424 -4.12398,-8.39213 -8.82031,-10.98437 -4.8801,-2.69369 -11.58547,-4.10297 -18.44336,-3.85547 z m -325.63281,41.31054 c -9.25645,0.54775 -19.31753,4.66503 -23.7168,8.93164 -2.19963,2.13331 -2.85238,3.82716 -2.82812,5.15039 0.0243,1.32324 0.63169,3.33379 4.21875,6.36329 a 6.62458,6.62458 0 0 1 0.0586,0.0488 c 6.15676,5.3231 13.05312,4.82237 20.98438,0.50196 6.72804,-3.66499 13.07726,-10.45773 17.00976,-17.70313 -3.71606,-2.44628 -9.3006,-3.67322 -15.72656,-3.29297 z m 282.46289,2.47071 c -2.38122,2.82527 -3.24132,5.22244 -3.37305,7.01562 -0.16971,2.31029 0.61378,4.10753 2.41016,5.80274 3.40179,3.21019 10.67609,4.94117 18.17774,0.7832 -0.13661,-0.83739 -0.57501,-2.27834 -1.74415,-3.97852 -2.3297,-3.38788 -7.28596,-7.34318 -15.4707,-9.62304 z"
     inkscape:href="#use7639"
     id="87235"
     style="display:none;fill:none;stroke:url(#radialGradient11553);stroke-width:4.56406;stroke-miterlimit:4;stroke-dasharray:none;stroke-opacity:1;filter:url(#filter9298)"
     xlink:href="#use7639"
     inkscape:original="M 252.23438 2.9355469 C 236.54223 2.9355469 221.07728 8.618769 209.93359 19.986328 L 22.537109 211.87109 C -48.418658 282.80466 68.47679 276.89326 110.77734 303.7207 C 130.33566 316.45237 48.008638 332.8225 64.837891 349.64648 C 81.212298 366.47047 163.53965 381.92954 179.91406 398.29883 C 196.28847 415.12281 146.70957 432.85766 163.08398 449.68164 C 179.00354 466.50563 217.21053 450.59016 224.0332 488.78516 C 229.03649 516.97671 294.07939 502.88047 323.18945 478.78125 C 341.38323 463.32137 291.80528 463.32204 308.17969 446.49805 C 349.11571 405.12013 385.50379 427.85516 400.51367 389.66016 C 408.70087 369.19856 338.6541 354.64731 357.30273 341.46094 C 401.87751 310.08648 565.6214 294.172 490.11719 218.69141 L 295.89844 19.986328 C 283.84505 8.618769 267.92652 2.9355469 252.23438 2.9355469 z M 460.95117 366.69727 C 445.20217 367.26564 429.16782 375.10968 425.07422 389.66016 C 425.07422 399.20891 499.21469 404.66541 495.12109 387.38672 C 492.1646 372.83624 476.70017 366.12889 460.95117 366.69727 z M 135.16602 408.01367 C 113.74567 409.2812 90.820101 424.81502 108.95703 440.13281 C 125.78628 454.68328 151.2581 436.94989 159.44531 416.48828 C 154.32831 409.80984 144.90253 407.43752 135.16602 408.01367 z M 415.97852 409.66797 C 395.05566 428.76547 419.61597 448.77231 440.08398 435.58594 C 445.54212 431.94832 439.63044 414.21499 415.97852 409.66797 z "
     inkscape:radius="-6.6239176"
     sodipodi:type="inkscape:offset" />
  <path
     inkscape:connector-curvature="0"
     sodipodi:nodetypes="ssssssscs"
     transform="matrix(2.2210369,0,0,2.2203421,-62.566295,-71.882097)"
     id="path5897"
     d="M 103.48801,151.19646 C 107.38991,178.47813 73.90798,179.7371 76.25,184.5 c 2.2436,4.5627 40.6114,6.4013 46.5,20 2.5679,5.9301 -5.8924,10.4033 -3.75,16.5 1.6497,4.6948 14.412,16.4908 22.486,22.0678 6.333,4.3744 14.651,-3.5224 11.264,-10.0678 -5.3959,-10.4276 18.4427,-23.1991 29.25,-29 6.3052,-3.3844 -13,-20 -13,-20 0,0 -68.97055,-56.98539 -65.51199,-32.80354 z"
     style="display:inline;opacity:0.325123;fill:url(#linearGradient5905);fill-opacity:1;fill-rule:evenodd;stroke:none;filter:url(#filter5983-5)"
     inkscape:label="purple-cast" />
  <path
     inkscape:connector-curvature="0"
     sodipodi:nodetypes="csssssc"
     transform="matrix(2.2210369,0,0,2.2203421,-62.566295,-71.882097)"
     id="path5803"
     d="m 182.75,187.25 c -1.7598,6.4783 21.6278,15.2799 19.875,19.75 -3.859,9.8416 -24.976,3.1375 -41.125,23.75 -2.3132,2.9525 3.25,13.5 2.5,12.25 -0.75,-1.25 -6.4649,-9.9629 -5,-14.25 4.5942,-13.4452 49.0128,-18.4575 40.875,-24.875 -4.6799,-3.6906 -21.5055,-13.8872 -17.125,-16.625 z"
     style="display:inline;opacity:0.477833;fill:url(#radialGradient5811);fill-opacity:1;fill-rule:evenodd;stroke:none;filter:url(#filter5845)" />
  <ellipse
     id="path6041"
     style="display:inline;overflow:visible;visibility:visible;opacity:0.586207;fill:#ffffff;fill-opacity:1;fill-rule:nonzero;stroke:none;stroke-width:2.22069;marker:none;enable-background:accumulate"
     cx="454.51886"
     cy="373.43527"
     rx="5.6914072"
     ry="2.3591135" />
  <ellipse
     style="display:inline;overflow:visible;visibility:visible;opacity:0.586207;fill:#ffffff;fill-opacity:1;fill-rule:nonzero;stroke:none;stroke-width:1.76841;marker:none;enable-background:accumulate"
     id="path6043"
     cx="418.56583"
     cy="417.00949"
     rx="3.609185"
     ry="2.3591135" />
  <ellipse
     style="display:inline;overflow:visible;visibility:visible;opacity:0.586207;fill:#ffffff;fill-opacity:1;fill-rule:nonzero;stroke:none;stroke-width:2.3522;marker:none;enable-background:accumulate"
     id="path6045"
     cx="127.88764"
     cy="414.92795"
     rx="6.3854814"
     ry="2.3591135" />
  <path
     inkscape:connector-curvature="0"
     sodipodi:nodetypes="ccc"
     id="path5049"
     d="m 130.66391,311.1269 c -32.534992,20.11654 -83.118448,27.43779 -27.76294,40.79881 -6.593932,-14.67825 14.27566,-13.05914 27.76294,-40.79881 z"
     style="display:inline;overflow:visible;visibility:visible;opacity:0.251231;fill:url(#linearGradient5822);fill-opacity:1;fill-rule:nonzero;stroke:none;stroke-width:9.31326;marker:none;enable-background:accumulate" />
  <path
     inkscape:connector-curvature="0"
     style="color:#000000;display:inline;overflow:visible;visibility:visible;opacity:0.363158;fill:url(#linearGradient1030);fill-opacity:1;fill-rule:nonzero;stroke:none;stroke-width:2;marker:none;filter:url(#filter10997-7);enable-background:accumulate"
     d="m 8.83428,171.6472 c 0,0 22.59178,-2.1279 27.81802,-8.6464 3.05755,-3.8136 -12.15146,-8.2638 -8.86827,-12 12.35008,-14.0541 22.73076,-13.4673 37.05025,-19.3536 14.31949,-5.8862 9.03544,-8.769 4.40381,-11.3535 -7.9325,-4.4264 -25.58722,-9.1424 -19.74696,-19.6465 5.87688,-10.56993 57.34317,-25.24999 57.34317,-25.24999 15.5962,-5.32843 13.6391,-14.96447 6,-23 L 66.83428,6.647214 c 0,0 2.28296,43.388646 -7,61.999996 -11.4715,22.99914 -72.54408,48.66179 -47,51.49999 9,1 13.32065,4.0705 17,11 7.57631,14.2688 -21,40.5 -21,40.5 z"
     id="path10207"
     sodipodi:nodetypes="csszsscccsssc"
     transform="matrix(2.2210369,0,0,2.2203421,226.53661,113.18964)"
     inkscape:label="blue-cast" />
</svg>
