<?xml version="1.0" encoding="UTF-8" standalone="no"?>
<!-- Created with Inkscape (http://www.inkscape.org/) -->

<svg
   width="512"
   height="512"
   viewBox="0 0 135.46666 135.46667"
   version="1.1"
   id="svg5"
   inkscape:version="1.4 (e7c3feb100, 2024-10-09)"
   sodipodi:docname="org.contourterminal.Contour.svg"
   xmlns:inkscape="http://www.inkscape.org/namespaces/inkscape"
   xmlns:sodipodi="http://sodipodi.sourceforge.net/DTD/sodipodi-0.dtd"
   xmlns="http://www.w3.org/2000/svg"
   xmlns:svg="http://www.w3.org/2000/svg">
  <sodipodi:namedview
     id="namedview7"
     pagecolor="#242424"
     bordercolor="#666666"
     borderopacity="1"
     inkscape:showpageshadow="0"
     inkscape:pageopacity="0"
     inkscape:pagecheckerboard="1"
     inkscape:deskcolor="#000000"
     inkscape:document-units="px"
     showgrid="false"
     inkscape:zoom="1.84375"
     inkscape:cx="125.01695"
     inkscape:cy="202.30508"
     inkscape:window-width="3256"
     inkscape:window-height="1080"
     inkscape:window-x="1864"
     inkscape:window-y="0"
     inkscape:window-maximized="0"
     inkscape:current-layer="layer1" />
  <defs
     id="defs2">
    <filter
       inkscape:collect="always"
       style="color-interpolation-filters:sRGB"
       id="filter5"
       x="-0.039544842"
       y="-0.043167916"
       width="1.0790799"
       height="1.0864002">
      <feGaussianBlur
         inkscape:collect="always"
         stdDeviation="0.87635189"
         id="feGaussianBlur5" />
    </filter>
    <filter
       inkscape:collect="always"
       style="color-interpolation-filters:sRGB"
       id="filter6"
       x="-0.02881616"
       y="-0.70054878"
       width="1.0576323"
       height="2.4016335">
      <feGaussianBlur
         inkscape:collect="always"
         stdDeviation="0.48865966"
         id="feGaussianBlur6" />
    </filter>
    <filter
       inkscape:collect="always"
       style="color-interpolation-filters:sRGB"
       id="filter7"
       x="-0.03596743"
       y="-0.036250175"
       width="1.0719509"
       height="1.0724395">
      <feGaussianBlur
         inkscape:collect="always"
         stdDeviation="1.2732518"
         id="feGaussianBlur7" />
    </filter>
    <filter
       inkscape:collect="always"
       style="color-interpolation-filters:sRGB"
       id="filter24"
       x="-0.022664801"
       y="-0.024442269"
       width="1.0453296"
       height="1.0488845">
      <feGaussianBlur
         inkscape:collect="always"
         stdDeviation="0.94809079"
         id="feGaussianBlur24" />
    </filter>
    <filter
       inkscape:collect="always"
       style="color-interpolation-filters:sRGB"
       id="filter32"
       x="-0.0043199382"
       y="-0.0043200639"
       width="1.0086399"
       height="1.0086401">
      <feGaussianBlur
         inkscape:collect="always"
         stdDeviation="0.23984786"
         id="feGaussianBlur32" />
    </filter>
    <filter
       inkscape:collect="always"
       style="color-interpolation-filters:sRGB"
       id="filter40"
       x="-0.017075265"
       y="-0.15290699"
       width="1.0341505"
       height="1.305814">
      <feGaussianBlur
         inkscape:collect="always"
         stdDeviation="0.71074736"
         id="feGaussianBlur40" />
    </filter>
    <filter
       inkscape:collect="always"
       style="color-interpolation-filters:sRGB"
       id="filter41"
       x="-0.03138785"
       y="-0.031083565"
       width="1.0625984"
       height="1.0623476">
      <feGaussianBlur
         inkscape:collect="always"
         stdDeviation="0.92408876"
         id="feGaussianBlur41" />
    </filter>
    <filter
       inkscape:collect="always"
       style="color-interpolation-filters:sRGB"
       id="filter42"
       x="-0.017114431"
       y="-0.13778825"
       width="1.0342289"
       height="1.2755765">
      <feGaussianBlur
         inkscape:collect="always"
         stdDeviation="0.54950553"
         id="feGaussianBlur42" />
    </filter>
    <filter
       inkscape:collect="always"
       style="color-interpolation-filters:sRGB"
       id="filter48"
       x="-0.036055601"
       y="-0.026759987"
       width="1.0721112"
       height="1.05352">
      <feGaussianBlur
         inkscape:collect="always"
         stdDeviation="0.8680274"
         id="feGaussianBlur48" />
    </filter>
    <filter
       inkscape:collect="always"
       style="color-interpolation-filters:sRGB"
       id="filter49"
       x="-0.057920279"
       y="-0.15460424"
       width="1.1158406"
       height="1.3092085">
      <feGaussianBlur
         inkscape:collect="always"
         stdDeviation="0.76496791"
         id="feGaussianBlur49" />
    </filter>
    <filter
       inkscape:collect="always"
       style="color-interpolation-filters:sRGB"
       id="filter50"
       x="-0.021096874"
       y="-0.24752829"
       width="1.0421937"
       height="1.4950566">
      <feGaussianBlur
         inkscape:collect="always"
         stdDeviation="0.49913479"
         id="feGaussianBlur50" />
    </filter>
    <filter
       inkscape:collect="always"
       style="color-interpolation-filters:sRGB"
       id="filter51"
       x="-0.015387035"
       y="-0.28120613"
       width="1.0307741"
       height="1.5624123">
      <feGaussianBlur
         inkscape:collect="always"
         stdDeviation="0.51255142"
         id="feGaussianBlur51" />
    </filter>
    <filter
       inkscape:collect="always"
       style="color-interpolation-filters:sRGB"
       id="filter52"
       x="-0.046785258"
       y="-0.076563779"
       width="1.0935705"
       height="1.1531276">
      <feGaussianBlur
         inkscape:collect="always"
         stdDeviation="1.6793781"
         id="feGaussianBlur52" />
    </filter>
  </defs>
  <g
     inkscape:label="Layer 1"
     inkscape:groupmode="layer"
     id="layer1">
    <path
       style="display:inline;fill:none;stroke:#f9ff00;stroke-width:6.35;stroke-linecap:round;stroke-linejoin:round;stroke-dasharray:none;stroke-opacity:1"
       d="M 5.6824219,5.4794784 C 29.704887,5.1649038 52.012208,3.6744285 75.958783,4.4025013 87.148617,7.673592 117.35103,0.52865746 129.20444,6.0652471 c 4.40365,17.5347789 0.6591,42.4074649 -0.20193,61.7417309 3.66423,15.564803 0.39608,29.780253 1.3351,45.349342 3.24225,12.08122 0.89084,20.75201 -11.42731,17.39259 -12.85675,1.40316 -27.901643,0.19546 -40.875152,-0.96719 -16.117702,-0.71263 -32.076942,-3.43481 -48.180653,-0.29585 -9.633289,-0.80218 -31.4116772,7.76067 -24.5057777,-8.20839 C 9.9427815,104.22451 1.178786,93.519363 5.0886079,72.257361 8.9984298,50.995359 1.9040993,9.8942003 5.6824219,5.4794784 Z"
       id="path1"
       sodipodi:nodetypes="ccscccccczc" />
    <path
       style="display:inline;fill:none;stroke:#a500ff;stroke-width:6.35;stroke-linecap:round;stroke-linejoin:round;stroke-dasharray:none;stroke-opacity:1"
       d="M 21.309082,18.503919 C 22.619474,43.549096 19.879207,79.777391 21.687685,101.40171 52.06371,85.445959 83.889531,72.356768 112.5396,52.973147 92.648831,39.856227 81.830402,42.166819 69.431487,34.527674 57.032572,26.888529 36.880898,25.915606 21.309082,18.503919 Z"
       id="path2"
       sodipodi:nodetypes="ccczc" />
    <path
       style="display:inline;fill:none;stroke:#a500ff;stroke-width:6.35;stroke-linecap:round;stroke-linejoin:round;stroke-dasharray:none;stroke-opacity:1"
       d="m 20.142604,115.01026 c 25.352718,3.88665 50.596739,-2.43177 75.777973,-4.38706 5.948463,0.0718 11.985153,0.63255 17.779063,1.95173"
       id="path3" />
    <path
       id="path8"
       style="fill:#7900ff;fill-opacity:1;stroke-linecap:round;filter:url(#filter24)"
       d="m 17.466063,13.561448 0.002,0.03049 c 0.0638,0.02123 0.12667,0.03856 0.19068,0.06098 z m 2.919707,1.38958 c 2.2065,1.326325 4.451787,3.35967 6.548437,6.212024 1.11184,1.512579 2.222657,3.022987 3.368787,4.509802 4.358747,1.394047 8.776627,2.555727 13.074124,3.640088 0.6115,-0.429463 1.28328,-0.824824 1.802477,-1.25057 1.23066,-1.009136 2.64362,-1.775581 4.01216,-2.587956 0.57676,-0.34237 1.161787,-0.672969 1.749237,-0.999938 C 41.112228,21.901087 30.797394,19.906907 22.27868,15.852265 Z m 52.73319,18.44952 c -2.595747,2.023515 -3.612097,2.824755 -5.659597,4.095874 5.047397,3.093797 9.828274,4.652733 14.729841,6.090067 1.69577,-1.395197 5.182767,-1.852414 6.994397,-2.159558 0.0527,-0.0067 0.13322,-0.01628 0.1881,-0.02325 0.0345,-0.773861 0.0889,-1.418624 0.16743,-1.907378 -0.003,-0.122976 -10e-4,-0.242987 -0.002,-0.364318 -0.27998,-0.08538 -0.57114,-0.179468 -0.84698,-0.262 C 82.807564,37.109907 77.988737,35.929027 73.11953,33.400552 Z m 16.420171,6.095751 c 0.0128,0.604719 0.052,1.227826 0.12454,1.871204 0.51109,-0.06505 1.06536,-0.131408 1.6583,-0.206189 -0.22888,-0.712553 -0.42984,-1.250856 -0.61133,-1.667082 -0.37098,-0.116753 -0.73539,-0.228384 -1.09916,-0.339514 -0.0251,0.107723 -0.0512,0.209295 -0.0723,0.341581 z m 0.12454,1.871204 c -0.09,0.01145 -0.20678,0.02535 -0.29197,0.03617 -0.0531,1.190159 -0.0583,2.700047 -0.045,4.337719 0.4624,0.149366 0.91153,0.283635 1.38287,0.443901 -0.53474,-1.700837 -0.87611,-3.311421 -1.04594,-4.817794 z M 18.060853,41.078632 c -0.0613,6.520975 -0.19736,13.244754 -0.33125,19.938317 1.012327,0.310178 2.116417,0.727321 3.262847,1.195793 0.31879,-0.08691 0.63832,-0.147522 0.9586,-0.187069 0.47093,-0.449436 1.10807,-0.428869 2.164727,-0.103353 0.0885,-5.778689 0.17426,-11.629015 0.22221,-17.401521 -2.015497,-0.470523 -4.161377,-1.577164 -6.277134,-3.442167 z m 3.890197,20.947041 c -0.12178,0.11623 -0.23562,0.265635 -0.34675,0.443384 0.82621,0.344168 1.65869,0.699284 2.489257,1.051616 0.007,-0.490133 0.0126,-0.96882 0.0202,-1.460376 C 23.39003,61.959519 22.66879,61.937048 21.9511,62.025677 Z m 87.33366,-14.338659 c -2.31987,1.664491 -4.39475,2.921028 -6.20066,3.873665 0.99478,0.53378 2.00852,1.096952 3.05563,1.711524 -3.01514,1.956216 -6.07353,3.83715 -9.153972,5.679756 0.52079,2.766608 8.720872,-3.681815 8.079102,-1.468127 -0.34961,1.205883 -2.26301,1.101268 -3.44838,1.515153 -2.316565,0.808866 -4.762042,1.161244 -7.201622,1.455725 -1.73667,1.017974 -3.470007,2.041792 -5.223457,3.031339 -0.23762,1.438993 -0.65146,1.880556 -1.33945,0.738973 -4.893517,2.73713 -9.836174,5.391922 -14.826481,7.973157 1.46325,1.419759 2.30708,3.491802 2.23553,6.021854 13.180091,-6.765789 26.19925,-13.969712 38.66379,-22.402766 l 3.93567,-2.661853 -3.96668,-2.617411 c -1.59234,-1.050066 -3.11624,-1.977335 -4.60902,-2.850989 z M 17.482593,80.367189 c -0.0156,7.880388 0.12381,15.277262 0.64544,21.514461 l 0.400487,4.77336 4.24005,-2.22622 c 8.752734,-4.597601 17.655578,-8.96608 26.588025,-13.328406 -0.81856,-0.139373 -1.63037,-0.365196 -2.43706,-0.560172 -0.002,0.0088 -0.005,0.01753 -0.007,0.02635 0.013,0.01397 0.003,0.027 -0.0109,0.03979 -0.085,0.317317 -0.16459,0.637116 -0.262,0.948263 -7.117314,2.127648 -2.964567,1.324447 -7.133414,1.672766 -0.0107,8.91e-4 -0.16497,0.02942 -0.23409,0.04134 v 5.17e-4 c -0.3765,0.202905 -0.77794,0.358382 -1.17977,0.504879 -2.8695,1.046165 -5.193117,1.428943 -8.276497,0.648022 -0.27035,-0.06847 -0.53248,-0.161252 -0.790647,-0.265617 -1.57692,0.798252 -3.15801,1.583429 -4.73098,2.393136 -0.0871,-1.654821 -0.13039,-3.464155 -0.18293,-5.240507 C 22.71686,90.250847 22.20833,89.66651 21.0562,88.474182 c 0.004,0.0087 0.006,0.01509 0.0103,0.02377 0.0396,0.08709 -0.26009,-0.280366 -0.19327,-0.211873 0.0796,0.08155 0.10967,0.112277 0.18294,0.188102 -2.994887,-6.589125 -2.730777,-8.631237 -3.003947,-6.015654 -0.16419,-0.582666 -0.36249,-1.298821 -0.56948,-2.091345 z m 33.696629,2.791561 c -0.977977,0.480487 -1.955497,0.961818 -2.934187,1.442289 -0.47499,1.903078 -0.79053,3.885387 -1.28157,5.780526 1.90309,-0.820938 3.444787,-2.813798 3.869007,-4.706689 0.13456,-0.600419 0.26023,-1.537679 0.34675,-2.516126 z m -5.795507,7.447091 c -0.0602,0.05581 -0.26245,0.167974 -0.18035,0.167431 0.2817,-0.0019 0.55962,-0.03943 0.83406,-0.09663 -0.21913,-0.02975 -0.44014,-0.06829 -0.65371,-0.0708 z" />
    <path
       style="fill:none;stroke:#b400ff;stroke-width:6.35;stroke-linecap:round;stroke-linejoin:round;stroke-dasharray:none;stroke-opacity:1"
       d="m 21.309082,18.467871 c -1.017888,8.451934 -1.463355,16.946639 0.243255,25.320905 1.202517,17.972121 -1.30568,35.897466 -1.972236,53.810022 1.442366,8.601862 11.784935,-4.763269 18.01296,-4.547102 C 53.539486,88.059745 66.319165,76.52762 81.712168,70.281306 90.37415,65.377268 98.953109,60.365721 107.9309,56.066267 117.56188,51.128133 102.48461,49.8426 98.45317,46.966039 89.105743,45.455788 79.669593,43.221757 71.973016,36.763042 62.83452,29.599702 49.679461,29.176322 39.296,24.450267 33.390786,22.127874 27.032609,21.24462 21.309082,18.467871 Z"
       id="path44"
       sodipodi:nodetypes="cccccccccc" />
    <path
       style="fill:none;stroke:#efff00;stroke-width:3.175;stroke-linecap:round;stroke-linejoin:round;stroke-dasharray:none;stroke-opacity:1;filter:url(#filter5)"
       d="M 20.294364,16.235491 C 19.246981,44.628202 21.1657,73.466922 20.762083,101.67358 31.873016,102.91374 46.918168,83.83631 59.455427,83.085319 77.820823,76.220505 99.472663,66.902983 113.32877,53.128793 96.371738,42.835489 76.563602,39.6538 60.221195,30.176375 48.176112,25.701706 32.481008,20.35981 20.294364,16.235491 Z"
       id="path4"
       sodipodi:nodetypes="cccccc" />
    <path
       id="path11"
       style="fill:#ffb200;fill-opacity:1;stroke-linecap:round;stroke-linejoin:round;filter:url(#filter6)"
       d="m 90.744211,109.49761 c 0.27304,1.14844 0.45094,2.20787 0.53123,3.17552 6.94227,0.10333 14.433649,0.65426 22.950019,1.92908 a 1.5875,1.5875 0 0 0 1.80454,-1.33584 1.5875,1.5875 0 0 0 -1.33583,-1.80454 C 105.802,110.13076 97.982171,109.5799 90.744211,109.49761 Z m -42.35349,2.94917 c -8.82242,0.7382 -18.34026,1.22541 -29.6633,0.82528 a 1.5875,1.5875 0 0 0 -1.6428,1.52962 1.5875,1.5875 0 0 0 1.52962,1.64228 c 10.62618,0.37551 19.69027,-0.0225 28.04325,-0.67283 0.30558,-1.15111 0.87976,-2.28046 1.73323,-3.32435 z" />
    <path
       id="path9"
       style="fill:#7000ff;fill-opacity:1;stroke-linecap:round;stroke-linejoin:round;filter:url(#filter40)"
       d="m 87.110315,108.38784 c -6.91702,0.74622 -13.79291,1.68155 -20.63078,2.52646 0.45659,0.43373 0.91285,0.89462 1.36684,1.39371 0.45405,0.49915 0.89048,1.0151 1.36219,1.49759 0.29496,0.30169 0.61676,0.57603 0.93535,0.85266 0.12262,0.10646 0.53649,0.35909 0.38705,0.29559 -1.5994,-0.67999 -3.50831,-3.36722 -4.74958,-2.15078 -1.52211,1.49166 -2.71473,3.23855 -3.75791,5.10099 2.2297,-0.25713 4.45012,-0.53323 6.66936,-0.81494 4.15741,-4.72936 6.83067,-7.26387 3.35484,-0.8785 -0.0859,0.15779 -0.16663,0.31943 -0.25012,0.47904 5.82015,-0.75264 11.61444,-1.52039 17.36173,-2.12804 -0.96484,-2.19184 -1.64275,-4.26825 -2.04897,-6.17378 z m 20.695385,0.0191 c 0.48775,0.85158 0.9356,1.72921 1.30948,2.63653 0.21058,0.51105 0.28945,1.06695 0.43408,1.60042 0.27046,0.99761 0.4361,1.83808 0.51883,2.55385 0.9812,0.17722 1.9577,0.36742 2.92231,0.58705 a 3.175,3.175 0 0 0 3.8008,-2.39056 3.175,3.175 0 0 0 -2.39262,-3.8008 c -2.17853,-0.49601 -4.38146,-0.88415 -6.59288,-1.18649 z m -16.324595,2.24069 c -1.39158,-0.0152 -2.07447,1.01432 -1.55236,3.83026 2.03415,-0.20988 4.06416,-0.4 6.08904,-0.55862 0.95598,0.0128 1.91286,0.0594 2.86959,0.0992 -2.89979,-1.74909 -5.69048,-3.35209 -7.40627,-3.37085 z m -71.80078,1.37976 a 3.175,3.175 0 0 0 -2.68046,2.6169 3.175,3.175 0 0 0 2.16835,3.44113 c -0.2573,-1.77603 0.013,-3.72618 0.46198,-5.87768 0.0128,-0.0612 0.0345,-0.11991 0.0501,-0.18035 z m 28.63184,0.71365 c -0.83645,0.057 -1.67407,0.125 -2.5094,0.17105 0.0588,2.14835 -0.14352,4.32766 -0.6041,6.44147 1.34076,-0.0643 2.67764,-0.15905 4.01474,-0.25115 -0.95357,-2.32278 -1.20488,-4.4893 -0.90124,-6.36137 z m -18.15444,0.22945 c -0.44136,2.05466 -0.52064,4.33694 -0.45579,6.34741 2.8773,0.17436 5.74576,0.23805 8.60671,0.22376 -0.049,-0.21192 -0.0889,-0.41023 -0.14004,-0.62528 -0.25464,0.28043 -0.40734,0.19354 -0.11317,-0.46199 -0.42436,-1.75791 -0.89201,-3.58108 -1.28468,-5.30097 -2.20772,-0.008 -4.41274,-0.0558 -6.61303,-0.18293 z m 7.89771,5.4839 c 0.0369,0.15288 0.0771,0.31036 0.11317,0.46199 0.27111,-0.29859 0.64065,-1.00371 0.69246,-1.86397 -0.18179,0.27697 -0.35976,0.55647 -0.52245,0.84491 -0.1266,0.22446 -0.21306,0.4008 -0.28318,0.55707 z" />
    <path
       style="fill:none;stroke:#ffef00;stroke-width:3.175;stroke-linecap:round;stroke-linejoin:round;stroke-dasharray:none;stroke-opacity:1;filter:url(#filter6)"
       d="m 18.670815,114.8661 c 39.016,1.37876 57.089644,-7.61947 95.789415,-1.82649"
       id="path5"
       sodipodi:nodetypes="cc" />
    <path
       id="path12"
       style="fill:#5e00ff;fill-opacity:1;filter:url(#filter7)"
       d="m 115.49931,2.6959594 v 5.167e-4 C 111.65881,2.6152051 107.76103,2.891142 103.9486,3.2158243 96.323751,3.8651887 89.009814,4.7005207 83.376207,3.6493895 l -0.32401,-0.060461 -0.32246,0.073897 C 65.659626,7.5654501 48.099688,4.6881029 30.375337,3.8845174 29.524547,4.7491257 28.54473,5.6029431 27.42152,6.4337158 26.95902,6.7757944 26.91161,6.8125895 26.57919,7.0595173 45.149258,7.602734 64.137379,11.06881 83.137977,6.8073364 c 6.318047,1.0999593 13.657864,0.2047678 21.080373,-0.4273641 3.77658,-0.3216305 7.563,-0.5720822 11.20655,-0.4945435 h 5.2e-4 c 3.64352,0.0776 7.14411,0.4828829 10.3451,1.469161 1.01687,0.3133169 1.77152,0.939486 2.44378,1.9859248 0.67226,1.0464384 1.20156,2.5120694 1.56063,4.2540034 0.0478,0.231733 0.0697,0.501894 0.11162,0.742591 0.33422,-0.04017 0.66716,-0.0759 0.98702,-0.07596 0.87374,-1.76e-4 1.67204,0.194239 2.32027,0.727604 -0.0937,-0.686552 -0.17572,-1.383273 -0.31006,-2.035019 -0.40986,-1.988374 -1.01949,-3.8070524 -1.99781,-5.329906 -0.97832,-1.5228538 -2.3851,-2.751156 -4.18166,-3.3047078 -3.58267,-1.1038822 -7.36451,-1.5418855 -11.205,-1.6231567 z M 2.1181612,10.934216 c -0.072,1.991968 -0.0723,3.953194 -0.0196,5.892147 1.3428871,-0.651293 2.4636071,-1.290308 3.2199571,-1.912545 -0.009,-0.930578 -0.0138,-1.862351 0.006,-2.800346 -0.67211,-0.408431 -1.73109,-0.801721 -3.2065201,-1.179256 z m 3.7873701,15.568558 c -0.70548,0.432878 -1.56258,0.944845 -2.62568,1.569414 -0.14984,0.08803 -0.3072801,0.155915 -0.4635401,0.227376 0.4031401,4.805681 0.8246901,9.60782 0.8743701,14.580505 -0.8456901,5.618431 -1.1584601,11.25213 -1.1885601,16.878556 1.0725301,-0.575352 2.1477001,-1.145716 3.2256401,-1.711006 0.0692,-5.004271 0.37333,-9.976381 1.12551,-14.896249 l 0.0191,-0.127124 -0.002,-0.128674 c -0.0542,-5.698861 -0.54443,-11.077247 -0.9648,-16.392798 z M 132.66261,33.258951 c -0.007,0.0045 -0.0137,0.0074 -0.0207,0.01189 0.007,-9.91e-4 0.0131,-0.0016 0.0196,-0.0026 4e-4,-0.0031 7.6e-4,-0.0062 0.001,-0.0093 z M 2.9770212,75.794856 c 0.5846701,11.513363 1.3603301,22.903759 0.1648501,33.965884 -1.1454168,4.22999 -1.9059668,9.32438 -1.7735268,13.72061 0.0674,2.23605 0.35121,4.2862 1.0237067,6.00997 0.67251,1.72377 1.8673901,3.24878 3.6834901,3.73052 5.4401567,1.44307 10.5161247,0.96936 15.7385717,0.0646 -0.20246,-1.05049 -0.17655,-2.1454 0.0868,-3.23546 -5.278927,0.94625 -10.006374,1.42985 -15.0109617,0.10232 -0.57365,-0.15217 -1.07719,-0.63085 -1.53892,-1.81436 -0.46173,-1.18351 -0.74818,-2.94313 -0.80874,-4.95318 -0.1211,-4.02008 0.61201,-9.04518 1.70739,-13.01368 l 0.0331,-0.12506 0.0155,-0.12712 c 1.0850496,-10.02248 0.63266,-20.134434 0.11007,-30.209523 -0.44215,0.322935 -0.93047,0.660799 -1.54668,1.041796 -0.27109,0.167618 -1.057,0.708334 -0.81338,0.502812 0.59373,-0.500885 1.4833,-1.055699 2.35851,-1.567863 -0.0646,-1.245345 -0.12294,-2.491786 -0.18707,-3.735689 -0.89973,-0.167994 -2.00722,-0.276813 -3.2427001,-0.356567 z M 126.93892,85.478502 c -0.30906,-0.0028 -0.66611,0.09784 -1.07848,0.316777 0.29216,5.068465 0.85167,10.149156 1.78904,15.242991 l 0.0103,0.0465 0.0114,0.0491 c 1.1079,4.46465 1.80656,10.88985 1.92805,16.50391 0.0607,2.80702 -0.0216,5.42021 -0.24805,7.46879 -0.22645,2.04857 -0.74218,3.59628 -0.91622,3.84163 -0.0739,0.10423 -0.88733,0.64543 -2.36523,0.93741 -1.17776,0.23269 -2.77132,0.34429 -4.51807,0.38912 -1.04155,1.15993 -2.41043,2.22882 -4.1119,3.13779 0.94986,0.0375 1.90462,0.0772 2.79621,0.0786 2.44559,0.003 4.63441,-0.13187 6.44922,-0.49041 1.81481,-0.35854 3.36377,-0.84095 4.33979,-2.21692 0.95697,-1.34912 1.23126,-3.07276 1.48053,-5.32784 0.24928,-2.25509 0.33014,-4.97716 0.26717,-7.88685 -0.0807,-3.72757 -0.41853,-7.71263 -0.9493,-11.39569 -6.45142,2.6964 -0.24855,-20.652159 -4.88446,-20.694859 z M 74.390713,126.58607 c -0.0233,3e-5 -0.0465,10e-4 -0.0698,10e-4 0.6086,0.874 1.32912,1.92838 2.191597,3.21324 1.24975,0.007 2.49859,0.0205 3.7455,0.0465 -1.41477,-1.10716 -2.77915,-2.2062 -3.84524,-3.23546 -0.673957,-0.004 -1.348297,-0.0263 -2.022097,-0.0253 z m -1.18649,0.0134 c -2.388687,0.0121 -4.776317,0.0489 -7.161317,0.0971 0.0554,1.06615 -0.12318,2.14944 -0.535367,3.19981 3.147027,-0.065 6.290694,-0.11675 9.424224,-0.11576 -0.64091,-1.15416 -1.21671,-2.2165 -1.72754,-3.1812 z" />
    <path
       id="path7"
       style="fill:#ffc800;fill-opacity:1;stroke-linecap:round;stroke-linejoin:round;filter:url(#filter32)"
       d="m 73.868778,1.3983642 c -0.54008,0.3491352 -1.081837,0.6954255 -1.620577,1.0464477 -1.09465,0.7132391 -2.1908,1.4239733 -3.283,2.1409546 -0.72334,0.4748369 -1.19115,0.7453825 -1.527557,0.9301757 -0.18021,0.6840569 -0.37928,1.4273043 -0.82527,1.6210897 -0.0305,0.1605427 -0.061,0.3210813 -0.0915,0.4816243 3.125827,0.02645 6.265867,0.077095 9.435084,0.1731161 6.905917,1.756749 16.685531,0.6358844 26.718762,-0.023254 1.99348,-0.130963 3.96187,-0.209349 5.91747,-0.2821533 7.4874,-10.5753441 -32.100922,9.449326 -19.953808,-4.4017985 0.272487,-0.3107159 0.534347,-0.631859 0.798917,-0.9503296 C 84.045272,2.3315099 79.431185,2.28707 76.983278,1.5714806 a 3.1753175,3.1753175 0 0 0 -0.79271,-0.127124 c -0.78055,-0.023732 -1.54488,-0.02681 -2.32182,-0.045992 z m -7.256404,5.7386677 c 0.0822,-0.4328717 0.16434,-0.865757 0.2465,-1.2986287 -0.31194,0.1962595 -0.36543,0.3595645 -0.84439,1.2696899 0.24573,0.1187487 0.43344,0.1003934 0.59789,0.028939 z m 0.2465,-1.2986287 c 0.12931,-0.081356 0.30216,-0.1705099 0.57877,-0.322461 0.10353,-0.39297 0.20694,-0.7596345 0.348817,-0.9694498 0.071,-0.1049569 0.32274,0.012003 0.36484,-0.107487 0.14181,-0.4021639 -0.752457,-0.9489804 -0.834057,-1.0164754 -0.15284,0.8052708 -0.30553,1.6106021 -0.45837,2.4158732 z M 48.276553,1.4118 C 34.186972,1.7111805 20.264848,2.3305049 5.7742737,2.5202595 a 3.1753175,3.1753175 0 0 0 -2.3688496,1.109493 c -1.423097,1.6627983 -1.492437,3.1593693 -1.693437,4.9805745 -0.201,1.821205 -0.24461,3.966616 -0.20722,6.4394 0.0269,1.780775 0.13438,3.888345 0.23306,5.965527 2.204497,-0.307764 4.1804766,-0.633125 6.3143366,-1.044381 -0.0775,-1.727824 -0.17535,-3.558983 -0.1974,-5.017264 -0.0353,-2.333492 0.0185,-4.291593 0.16795,-5.6461674 0.0249,-0.226043 0.0732,-0.308915 0.11317,-0.4981604 C 21.864908,8.5874204 35.038542,8.0359262 48.261563,7.7602497 48.114633,7.073022 48.003273,6.3780055 47.975283,5.6694212 c -0.056,-1.4176947 0.0619,-2.8482345 0.30127,-4.2576212 z m 83.174217,2.5858887 c -1.45061,1.6741844 -3.53995,3.1995501 -6.3345,4.3728596 0.50825,0.125121 1.0105,0.2528886 1.4609,0.3999756 0.36581,1.7081621 0.6475,3.5063001 0.87695,5.3583291 1.38677,-3.448556 3.22089,-5.9133461 5.21156,-7.5034178 -0.0854,-0.370913 -0.15505,-0.7531293 -0.24701,-1.1193115 a 3.1753175,3.1753175 0 0 0 -0.9679,-1.508435 z M 9.1275477,39.61877 c -1.934564,0.346279 -3.967744,0.662273 -6.3215706,0.968416 0.504757,10.164591 0.725047,20.635973 -0.28887,28.537793 0.19198,-0.124449 0.38679,-0.245431 0.57309,-0.376722 3.1699266,-1.832313 3.9864366,-2.34407 6.2099506,-3.496944 0.5849866,-7.932604 0.2895066,-16.965186 -0.1726,-25.632543 z M 134.22114,40.78769 c -2.23659,1.228653 -4.53377,1.488165 -6.54327,0.918807 -0.45062,7.670791 -1.10122,15.398767 -1.50998,22.592936 0.90782,-0.364059 1.85169,-0.554827 2.79776,-0.56534 1.21079,-0.01345 2.42291,0.266955 3.56361,0.834058 0.4432,-7.418848 1.20345,-15.561249 1.69188,-23.780461 z M 7.3855437,69.629857 c -1.05097,-0.0059 -2.34101,0.410421 -3.3579396,0.344165 -0.60987,-0.03974 -1.145027,-0.05413 -1.629867,-0.05116 -0.0952,0.666871 -0.18224,1.351271 -0.29714,1.976106 -0.18797,1.022191 -0.31978,1.999669 -0.45424,2.979147 1.632627,1.500861 3.7876866,3.19346 5.8585566,4.876705 0.14555,-2.115068 0.40504,-4.332434 0.84181,-6.707601 0.171317,-0.931689 0.307577,-1.912389 0.440277,-2.898015 -0.347047,-0.385137 -0.838087,-0.516199 -1.401457,-0.519347 z M 1.0898071,86.646389 c 0.19865,4.533061 0.80772,8.592374 1.37976,12.365657 0.0827,0.545587 0.14525,1.049604 0.22479,1.583354 1.5377166,2.14243 2.9369066,4.84311 4.0410966,8.10804 0.13388,0.39589 0.27505,0.78936 0.40204,1.18752 0.46191,1.4482 0.67479,2.31391 1.09037,3.36414 0.437427,0.41226 0.677147,1.3885 1.063494,1.90789 0.10988,0.14771 -0.30109,-0.23273 -0.383437,-0.39739 -0.29027,-0.5804 -0.501997,-1.06053 -0.680057,-1.5105 -0.16036,-0.15114 -0.34536,-0.23173 -0.57671,-0.1788 -1.40441,0.32126 -2.77796,0.74382 -4.1330796,1.2268 -0.1664,1.84049 -0.482837,3.73479 -0.999937,5.72523 2.3822366,-0.30291 4.7001266,-0.58558 6.6869206,-0.77515 1.5519563,-7.8258 0.5508866,-14.55433 -0.455777,-21.194567 -0.447487,-2.951784 -0.887947,-5.912177 -1.150317,-9.032524 -1.76758,0.35353 -3.7005996,1.058374 -4.7227066,-0.173633 -0.65062,-0.784234 -1.23388,-1.508055 -1.78645,-2.206067 z m 7.1576966,36.287191 c -2.41269,1.16974 -4.7963896,2.4352 -7.24761656,3.47782 0.003,1.76826 0.52190996,3.52747 1.61229996,4.8271 2.3165566,2.76108 5.7090666,3.04424 8.9456969,3.01945 5.359667,-0.0411 11.734444,-1.30123 15.874991,-1.56476 1.36987,-2.33125 3.624657,-4.66514 6.917927,-6.72621 0.19463,-0.12181 0.46941,-0.29102 0.68212,-0.42478 -1.74576,0.21099 -3.49625,0.46503 -5.254457,0.79789 -5.878777,-0.3617 -13.300044,1.53032 -18.269671,1.56838 -2.5488733,0.0195 -3.9076903,-0.60007 -4.0333403,-0.74983 -0.0628,-0.0749 -0.16983,-0.13443 -0.14417,-0.84801 0.0237,-0.65842 0.28015,-1.81854 0.91622,-3.37705 z m 119.7099363,3.01273 c -0.0572,0.14305 -0.10701,0.30577 -0.17156,0.42788 -0.50929,0.96335 -1.01957,1.41451 -2.15388,1.73013 -1.1343,0.31562 -3.03178,0.33778 -5.7521,-0.40411 a 3.1753175,3.1753175 0 0 0 -1.17977,-0.092 c -0.23193,0.0253 -0.47845,0.0353 -0.7121,0.0589 -1.17519,2.56854 -3.64527,5.03892 -7.61918,6.81199 2.90274,-0.0847 5.77364,-0.23912 8.55607,-0.52917 3.12793,0.7668 5.93688,0.95991 8.40982,0.27182 2.66975,-0.74285 4.85377,-2.58473 6.06682,-4.87929 0.35,-0.66207 0.61897,-1.35713 0.84904,-2.06809 -2.15171,0.51162 -4.3878,0.0573 -6.29316,-1.32809 z m -55.657559,0.33177 c 0.37824,2.11657 -0.16399,4.33509 -1.64796,6.25439 2.445857,0.1704 4.901537,0.32768 7.378357,0.43719 1.539567,0.13787 3.185147,0.264 4.778517,0.39894 -0.88068,-1.94259 -0.87727,-4.19644 0.0708,-6.36705 -1.47391,-0.12509 -2.99542,-0.23959 -4.42764,-0.36794 a 3.1753175,3.1753175 0 0 0 -0.14263,-0.008 c -1.996717,-0.0883 -3.999837,-0.2096 -6.009444,-0.34778 z" />
    <path
       style="fill:none;stroke:#a500ff;stroke-width:3.175;stroke-linecap:butt;stroke-linejoin:miter;stroke-dasharray:none;stroke-opacity:1;filter:url(#filter7)"
       d="M 4.8706473,6.69714 C 31.043159,1.5267848 57.799147,10.987025 84.008225,4.9950228 c 12.02581,2.243801 29.585835,-3.5536179 43.153445,0.6267965 5.62687,1.7337374 6.03991,11.3599887 5.73834,20.2162177 -3.04645,24.790182 -7.369,49.678616 -2.76504,74.697403 2.31002,9.30898 2.78089,25.9269 0.51888,29.11585 -2.0999,2.9604 -14.71211,2.25617 -25.50649,0.65474 -19.700063,-3.78516 -39.840061,-1.8484 -59.778329,-1.82999 -16.214446,-0.0525 -26.225096,6.10973 -37.9620442,2.99636 C 2.6274927,130.20458 3.3683886,117.97417 5.6427981,109.73404 8.0230968,87.747477 2.8105482,64.909593 6.2066811,42.696248 6.0886178,30.273704 3.7376641,19.135796 4.8706473,6.69714 Z"
       id="path6"
       sodipodi:nodetypes="ccsccsccsccc" />
    <path
       style="display:none;fill:#efff00;stroke-linecap:round;stroke-linejoin:round;filter:url(#filter5)"
       d="m 191.85937,10.712891 a 1.5876587,1.5876587 0 0 0 -2.0957,1.445312 c -1.05147,28.503659 0.86917,57.3554 0.4668,85.474609 a 1.5876587,1.5876587 0 0 0 1.41015,1.59961 c 6.52583,0.728388 13.17236,-4.108493 19.9004,-8.824219 6.72803,-4.715726 13.55888,-9.426072 19.06445,-9.755859 a 1.5876587,1.5876587 0 0 0 0.46094,-0.09766 c 18.42338,-6.886487 40.24882,-16.213574 54.4375,-30.318359 a 1.5876587,1.5876587 0 0 0 -0.29688,-2.482422 C 267.90526,37.251342 248.06649,34.060657 232.07227,24.785156 a 1.5876587,1.5876587 0 0 0 -0.24219,-0.115234 c -12.08045,-4.48781 -27.78184,-9.831958 -39.97071,-13.957031 z m 1.04493,3.728515 c 11.85705,4.016628 26.36863,8.953982 37.74804,13.179688 16.03003,9.242978 34.85007,12.607724 51.00391,21.802734 -13.57547,12.651849 -34.07276,21.566915 -51.70117,28.15625 l 0.46094,-0.09766 c -7.0317,0.421203 -13.99068,5.625475 -20.69727,10.326172 -6.07945,4.261128 -11.86124,7.830091 -16.31836,8.113281 0.2971,-27.01215 -1.35101,-54.474827 -0.49609,-81.480469 z"
       id="path10" />
    <path
       style="display:inline;fill:none;stroke:#ffef00;stroke-width:3.4925;stroke-linecap:butt;stroke-linejoin:miter;stroke-dasharray:none;stroke-opacity:1;filter:url(#filter41)"
       d="M 5.4531074,5.7401129 C 21.976093,9.9740805 38.812119,5.8951016 55.442992,6.046621 76.260774,8.5571197 97.325776,9.3398989 118.07046,5.5254515 136.31487,1.6159949 129.06471,25.245779 130.0357,35.472673 c -1.60799,13.060924 0.35429,25.98328 0.949,39.031959 -2.10195,15.448694 -4.70108,31.400428 -0.38822,46.782498 -1.03685,14.4657 -17.97169,8.86351 -27.33399,8.74917 -12.539439,1.34015 -24.472283,-5.57384 -36.918699,-2.12464 -11.813806,2.75994 -23.882588,-1.81974 -35.642108,2.13744 -9.608721,2.52048 -27.1188345,5.30555 -26.5638314,-8.84319 C 3.8872949,102.84325 9.1877941,84.44801 4.6811066,66.20286 1.6009608,48.595611 7.9013898,30.763954 4.1274595,13.147981 3.9502167,10.640233 4.0346447,7.9339319 5.4531074,5.7401129 Z"
       id="path40"
       sodipodi:nodetypes="ccccccccccccc" />
    <path
       id="path41"
       style="fill:#7700ff;stroke-linecap:round;stroke-linejoin:round;filter:url(#filter42)"
       d="m 91.48072,108.07816 c -3.314836,0.58034 -6.630341,1.33193 -9.94823,2.03966 0.941533,0.15759 1.730373,0.437 2.368848,0.79686 3.079391,-0.61055 6.17999,-1.02675 9.346716,-0.82786 2.19186,2.36406 12.702876,2.75468 11.076326,0.39481 -4.404314,0.5111 -8.876993,-0.48995 -12.84366,-2.40347 z m -15.509648,3.15898 c -0.16675,0.0734 -0.423247,0.14778 -0.554488,0.21807 -0.266078,0.14253 -0.533648,0.27231 -0.798917,0.40618 -0.172848,0.38056 -0.389157,0.794 -0.623218,1.2206 0.869131,-0.16668 1.737104,-0.34619 2.603459,-0.53951 -0.0022,-0.0141 -0.0028,-0.0282 -0.0052,-0.0424 -0.09549,-0.55934 -0.320743,-0.96727 -0.621668,-1.26297 z m -25.070304,2.26859 c -1.565997,0.42008 -5.26277,0.0865 -6.83553,0.46266 -6.000261,1.1003 -12.26605,-0.43959 -16.629187,1.52378 2.423863,0.53079 3.517786,2.02633 5.995442,2.13916 4.435329,0.20199 10.284957,-1.34257 14.659628,-1.69422 2.006754,-0.8894 4.036297,-1.51983 6.083866,-1.96009 -0.294808,-0.0654 -0.6039,-0.1309 -0.77773,-0.15606 -0.01905,-0.003 0.06728,0.0305 0.04806,0.0315 -0.129722,0.008 -0.259754,-0.008 -0.38964,-0.0119 -0.823191,0.0238 -0.945924,-0.0818 -2.042253,-0.30748 -0.04184,-0.009 -0.07257,-0.0185 -0.112655,-0.0274 z"
       sodipodi:nodetypes="cccccccscccccccccscccccccc" />
    <path
       id="path45"
       style="fill:#b500ff;stroke-linecap:round;stroke-linejoin:round;filter:url(#filter48)"
       d="M 24.187671 16.861503 C 26.13137 20.323183 33.179419 18.88116 36.19934 22.869405 C 42.648897 25.916645 49.864117 26.990956 56.30819 30.082401 C 58.380011 32.868642 63.153933 30.294505 57.939098 29.073677 C 49.667295 24.812787 39.89103 24.211609 32.189766 18.702734 C 29.882972 16.903882 26.924296 17.137503 24.187671 16.861503 z M 30.607434 18.216976 C 30.779655 20.202801 28.436545 18.252356 30.607434 18.216976 z M 38.582141 23.037353 C 38.800094 23.500208 37.798632 23.490503 38.582141 23.037353 z M 38.599711 24.128759 L 38.955244 24.177852 L 38.599711 24.128759 z M 57.845564 29.351696 C 58.2806 29.455078 57.360182 29.348096 57.845564 29.351696 z M 20.8163 39.115441 C 16.468523 45.868899 19.973778 53.992938 19.768819 61.366279 C 20.536792 69.522528 22.529791 78.011839 20.062858 86.033507 C 21.037712 87.534032 18.914403 92.11418 21.320145 88.865376 C 23.411093 80.806858 23.009009 72.440517 21.650875 64.301501 C 21.33983 56.184612 19.213347 48.071209 21.207491 40.116414 L 20.8163 39.115441 z M 75.339586 71.675727 C 66.308917 78.039829 56.228675 82.699511 46.647798 88.148107 C 43.870706 90.407688 32.98255 91.252359 35.072794 94.71153 C 41.660921 91.337835 49.077205 89.673174 55.209549 85.342593 C 61.666124 80.838137 69.776272 78.673632 75.403665 73.06634 C 72.824218 73.16397 78.694965 71.907321 75.339586 71.675727 z M 19.947103 86.919758 L 19.902144 87.003991 L 19.947103 86.919758 z M 19.873205 87.074271 L 19.832898 87.449441 L 19.873205 87.074271 z " />
    <path
       style="opacity:0.6;fill:#cb00ff;stroke-linecap:round;stroke-linejoin:round;filter:url(#filter49)"
       d="m 66.286807,35.015613 c 0.414009,0.953989 5.307367,1.414129 6.078427,1.787109 0.771061,0.37298 1.485324,0.692819 1.900391,1.195313 0.01856,0.02175 0.0388,0.04199 0.06055,0.06055 3.139698,2.765628 9.849017,5.907216 9.849017,5.907216 3.850691,0.734541 9.24143,0.582466 13.178327,1.200171 0.296796,0.04711 0.575321,-0.156076 0.62109,-0.453081 0.04598,-0.295462 -0.155827,-0.572407 -0.451172,-0.619141 -3.882717,-0.609204 -7.741682,-1.51742 -11.623046,-2.257813 -4.193453,0.107791 -7.748005,-1.977001 -10.857422,-4.591831 l 0.05859,0.0625 c -0.640433,-0.775331 -2.874896,-3.383514 -3.608173,-3.738217 -0.105203,-0.875311 -5.354869,0.578174 -5.206579,1.447224 z"
       id="path48"
       sodipodi:nodetypes="cscccccccccsc" />
    <path
       style="fill:#b700ff;stroke-linecap:round;stroke-linejoin:round;filter:url(#filter50)"
       d="M 68.662109,1.2382812 C 58.691554,2.6017257 48.82921,5.1519272 38.691157,4.168239 35.511111,3.6064649 28.48578,6.39675 35.80185,5.9148037 46.503866,6.7066604 56.939524,4.3800977 67.44496,3.1200361 74.548815,1.3173684 84.12326,8.857981 89.370197,4.9252191 82.601697,4.0253757 75.637609,1.8931072 68.662109,1.2382812 Z"
       id="path49" />
    <path
       style="fill:#fff500;stroke-linecap:round;stroke-linejoin:round;filter:url(#filter51)"
       d="m 34.703125,2.796875 c -0.594232,0 -0.753442,0.1270763 -0.494141,0.1054688 -0.26957,0.022464 -0.402041,0.027723 -0.464843,0.029297 -0.0616,-0.023111 -0.0532,-0.025344 -0.134766,-0.044922 -0.181227,-0.043499 -0.372379,-0.066622 -0.662109,-0.085937 -0.353668,-0.023576 -0.703805,-0.023517 -1.048829,-0.00195 -0.509117,0.03182 -0.816119,0.100372 -0.951171,0.1445313 -0.135053,0.044159 -0.0055,0.026783 -0.398438,0.0625 C 30.507636,3.0096041 30.369714,3 30.136719,3 h -0.609375 c -0.0017,0 -0.155109,-0.030857 -0.453125,0.011719 -0.607009,0.086715 -0.974785,0.3243064 -1.337891,0.5058593 A 1.0583333,1.0583333 0 0 0 27.261719,4.9375 1.0583333,1.0583333 0 0 0 28.681641,5.4121094 c 0.492926,-0.2464631 0.421999,-0.2662009 0.691406,-0.3046875 -0.09711,0.013874 -0.04696,0.00977 0.154297,0.00977 h 0.609375 c 0.105242,0 0.307861,0.022971 0.603515,-0.00391 0.480602,-0.043691 0.795941,-0.1355454 0.865235,-0.1582031 0.06929,-0.022658 -0.01445,-0.015577 0.423828,-0.042969 0.262618,-0.016414 0.523527,-0.01692 0.777344,0 0.225146,0.01501 0.317554,0.033401 0.308593,0.03125 -0.009,-0.00215 -0.146852,-0.051947 0.0078,0.00977 0.154665,0.061713 0.415929,0.1005734 0.58789,0.099609 0.171962,-9.64e-4 0.359454,-0.014818 0.673829,-0.041016 0.537257,-0.04477 0.633669,-0.097656 0.318359,-0.097656 -0.286393,0 -0.202566,0.034006 0.275391,0.09375 0.488582,0.061073 0.784204,-6.37e-5 0.873046,0.00586 0.03162,0.00211 0.471276,0.037768 0.884766,0.078125 0.41349,0.040357 0.941407,0.1143975 0.890625,0.1035156 -0.06708,-0.014375 0.143328,0.1379414 0.681641,0.2148437 0.501901,0.071699 0.809964,0.0047 0.90625,0.00977 0.333515,0.017554 0.684741,0.056551 1.054687,0.097656 0.124911,0.01388 0.381799,0.088102 0.78125,0.1054688 0.63392,0.027562 1.175096,-0.020273 1.621094,0 -0.04384,-0.00199 0.151846,0.07898 0.603516,0.1015625 0.543318,0.027165 1.036308,0.00195 1.474609,0.00195 h 1.724609 6.291016 c 0.865191,0 1.701706,-0.022391 2.507812,0 1.079722,0.029992 1.173162,0.162248 2.486329,0.390625 0.379523,0.066004 0.648638,0.069793 0.794921,0.097656 0.326597,0.062209 0.771584,0.2304824 1.373047,0.3125 0.520717,0.071007 0.864265,0.00335 1.011719,0.00977 0.4459,0.019387 0.904166,0.056714 1.375,0.097656 0.220771,0.019198 0.538258,0.089137 0.962891,0.1054688 0.70398,0.027074 1.258902,-0.048223 1.654297,-0.00586 -6.34e-4,-6.79e-5 0.370709,0.2813062 1.189453,0.3105469 0.797755,0.028491 1.421263,-0.1579183 1.880859,-0.2089844 1.310003,-0.1455558 0.724609,-0.095703 2.216797,-0.095703 0.290461,0 0.448865,-0.011275 0.476562,-0.00781 0.240091,0.030011 0.550728,0.1136607 0.939454,0.1914062 0.07128,0.014255 0.284792,0.098504 0.65625,0.1191406 1.128075,0.062671 1.640954,0.088305 1.902343,0.091797 0.06535,8.73e-4 0.06897,0.01219 0.242188,-0.00977 0.02165,-0.00274 0.04708,-0.00755 0.08594,-0.015625 0.02744,-0.00571 0.08363,-0.023278 0.126953,-0.037109 0.352627,0.031656 0.699883,0.074219 1.150391,0.074219 0.587582,0 0.750457,-0.1015625 0.507813,-0.1015625 0.561665,0 1.189296,0.072585 1.884765,0.1015625 0.479593,0.019983 0.822898,-0.013036 1.113281,-0.042969 0.290384,-0.029933 0.545894,-0.058594 1.060547,-0.058594 0.290108,0 0.666579,0.058966 1.13086,0.097656 a 1.0584391,1.0584391 0 0 0 0.08789,0.00391 c 0.687556,0 1.408661,0.024367 2.164063,0 0.46359,-0.014954 0.808723,-0.089737 1.042969,-0.1035157 0.773668,-0.045509 1.587853,-0.050069 2.4375,-0.1015625 0.420706,-0.025497 0.716635,-0.090952 0.898437,-0.099609 0.338382,-0.016114 0.72852,0 1.167969,0 h 2.029297 0.507812 c 0.09892,0 0.305296,0.02689 0.613281,-0.00391 0.405831,-0.040582 0.553927,-0.1049645 0.462891,-0.099609 0.322471,-0.018968 0.708932,0.00195 1.15625,0.00195 0.247039,0 0.377421,-0.00733 0.390625,-0.00586 0.492411,0.054712 0.676384,0.1017073 0.941406,0.1503906 0.265022,0.048683 0.604923,0.080415 1.056641,0.056641 0.455281,-0.023963 0.960749,-0.034775 1.507812,-0.109375 0.455181,-0.06207 0.742998,-0.1841754 0.888672,-0.2148437 -0.110572,0.02328 -0.003,9.872e-4 0.03516,-0.00586 0.0382,-0.00685 0.09114,-0.017646 0.15625,-0.029297 0.130215,-0.023302 0.304749,-0.05445 0.488281,-0.087891 0.367063,-0.066881 0.732023,-0.1322593 0.966793,-0.1875 0.41786,-0.098319 0.83217,-0.202132 1.24414,-0.3105469 0.4055,-0.1067102 0.57404,-0.1759121 0.51954,-0.171875 0.57067,-0.042272 1.22257,0.00391 1.95117,0.00391 0.40789,0 0.5574,-0.00567 0.45508,-0.03125 0.28409,0.071025 0.43055,0.1249546 0.45703,0.1367187 0.0225,0.00999 -0.0934,-0.070412 -0.18555,-0.1660156 0.089,0.1106997 0.28494,0.2971594 0.46094,0.3691406 0.38017,0.1554884 0.46755,0.095703 0.63867,0.095703 a 1.0583333,1.0583333 0 0 0 1.05859,-1.0566407 1.0583333,1.0583333 0 0 0 -0.91992,-1.03125 C 106.10559,4.101275 106.05122,4.0305721 105.98242,4 c -0.21196,-0.09419 -0.45198,-0.1696377 -0.80469,-0.2578125 -0.56172,-0.14043 -0.90114,-0.03125 -0.96679,-0.03125 -0.62436,0 -1.32884,-0.055721 -2.10742,0.00195 -0.54565,0.040417 -0.82963,0.2177044 -0.90039,0.2363282 -0.39723,0.1045343 -0.79475,0.2035443 -1.19141,0.2968749 -0.07175,0.016882 -0.501359,0.1004272 -0.861329,0.1660157 -0.179985,0.032794 -0.353076,0.062791 -0.482422,0.085937 -0.06467,0.011573 -0.118745,0.022224 -0.158203,0.029297 -0.03946,0.00707 0.02103,-0.00741 -0.09766,0.017578 -0.400197,0.084252 -0.638782,0.1761514 -0.736328,0.1894531 -0.39371,0.053688 -0.841099,0.067807 -1.333984,0.09375 -0.341909,0.017995 -0.379938,0.00815 -0.5625,-0.025391 -0.182562,-0.033536 -0.51323,-0.1078067 -1.089844,-0.171875 -0.322969,-0.035887 -0.5338,-0.00586 -0.625,-0.00586 -0.364456,0 -0.79139,-0.0287 -1.279297,0 -0.435373,0.025611 -0.613384,0.1117289 -0.550781,0.1054687 -0.02858,0.00286 -0.163023,-0.00586 -0.402344,-0.00586 h -0.507812 -2.029297 c -0.372326,0 -0.795103,-0.020547 -1.267578,0.00195 -0.430084,0.02048 -0.736985,0.090002 -0.927735,0.1015625 -0.772335,0.046808 -1.585107,0.051652 -2.433593,0.1015625 -0.444439,0.026143 -0.770415,0.094598 -0.986329,0.1015625 -0.652076,0.021034 -1.33849,-0.00117 -2.05664,-0.00195 -0.340713,-0.031107 -0.75293,-0.1015625 -1.257813,-0.1015625 -0.600927,0 -0.990799,0.040775 -1.277343,0.070312 -0.286545,0.029537 -0.449664,0.048158 -0.808594,0.033203 -0.590501,-0.024604 -1.247236,-0.1035156 -1.972656,-0.1035156 -0.587582,0 -0.750457,0.1015625 -0.507813,0.1015625 -0.401244,0 -0.889133,-0.071916 -1.470703,-0.099609 -0.307416,-0.014639 -0.49674,-0.021483 -0.628906,-0.023437 -0.06608,-9.774e-4 -0.07827,-0.00919 -0.230469,0.00781 -0.03805,0.00425 -0.07864,3.136e-4 -0.216797,0.044922 -0.0065,0.00211 -0.01538,0.00595 -0.02539,0.00977 -0.288239,-0.013886 -0.312683,-0.010969 -0.818359,-0.039063 0.02705,0.0015 -0.09241,-0.028638 -0.359375,-0.082031 C 71.761078,4.790106 71.40344,4.6883692 70.958984,4.6328125 70.583927,4.5859287 70.334177,4.625 70.21875,4.625 68.768528,4.625 69.071621,4.5875282 67.767578,4.7324219 67.07631,4.8092294 66.556719,4.9425248 66.197266,4.9296875 66.2452,4.9313994 65.923799,4.7130972 65.15625,4.6308594 64.40818,4.550709 63.804559,4.6421214 63.359375,4.625 63.171883,4.6177887 62.885595,4.5612139 62.496094,4.5273437 62.021016,4.4860323 61.53394,4.4437316 61.03125,4.421875 60.570449,4.4018386 60.297377,4.4428953 60.214844,4.4316406 59.922047,4.3917139 59.511168,4.2414311 58.951172,4.1347656 58.561695,4.0605792 58.2789,4.0586944 58.121094,4.03125 56.935424,3.8250464 56.592465,3.6443869 55.332031,3.609375 c -0.884438,-0.024567 -1.740397,0 -2.566406,0 H 46.474609 44.75 c -0.508765,0 -0.966575,0.02208 -1.369141,0.00195 0.0407,0.00203 -0.158376,-0.08089 -0.613281,-0.1015625 -0.635248,-0.028875 -1.177574,0.019454 -1.625,0 -0.07844,-0.00341 -0.290121,-0.05871 -0.640625,-0.097656 -0.37268,-0.041409 -0.763134,-0.083749 -1.175781,-0.1054688 -0.444153,-0.023375 -0.684907,0.0146 -0.71875,0.00977 C 38.722197,3.3328028 38.55574,3.2290212 38.070312,3.125 37.71861,3.0496349 37.373618,3.0283218 36.943359,2.9863281 36.5131,2.9443344 36.140577,2.9122365 35.992187,2.9023438 c -0.451141,-0.030077 -0.703531,0.011912 -0.751953,0.00586 0.201193,0.025149 0.0282,-0.1113281 -0.537109,-0.1113281 z"
       id="path50" />
    <path
       style="fill:#7000ff;stroke-linecap:round;stroke-linejoin:round;filter:url(#filter52)"
       d="m 21.023437,46.130859 c -3.49042,9.035727 0.521892,18.731234 0.991246,27.966734 3.467157,7.770876 -5.653607,20.305715 2.247595,24.675751 C 35.192475,97.4189 44.069393,89.745267 53.646752,84.872189 65.048881,78.176263 76.192544,70.672816 89.079266,67.099804 93.808353,64.331219 106.59937,59.618677 105.71494,56.204085 97.230745,61.253378 88.56889,66.049609 79.128093,69.131768 66.949163,73.435197 57.033433,82.00338 45.538766,87.704755 38.312131,90.74099 31.525702,98.332557 23.226024,96.165969 22.333608,87.690064 25.606443,78.0209 22.897963,69.060891 21.504387,61.49509 21.445209,53.787828 21.023437,46.130859 Z m 0.002,0.986328 c -0.466559,1.532057 -1.327727,-1.250853 0,0 z m 0.396484,0.5625 -0.419802,0.09251 z m 1.044922,39.613282 0.0175,0.0067 z m -0.677735,1.216797 0.07181,0.0915 z m 0.205079,0.216796 0.219984,0.105392 z m 11.652343,7.441407 -0.321868,0.04498 z"
       id="path51" />
  </g>
</svg>
