<?xml version="1.0" encoding="UTF-8" standalone="no"?>
<!-- Created with Inkscape (http://www.inkscape.org/) -->

<svg
   width="512"
   height="512"
   viewBox="0 0 135.46666 135.46667"
   version="1.1"
   id="svg5"
   inkscape:version="1.3.2 (091e20ef0f, 2023-11-25, custom)"
   sodipodi:docname="org.gnome.Totem.svg"
   xmlns:inkscape="http://www.inkscape.org/namespaces/inkscape"
   xmlns:sodipodi="http://sodipodi.sourceforge.net/DTD/sodipodi-0.dtd"
   xmlns="http://www.w3.org/2000/svg"
   xmlns:svg="http://www.w3.org/2000/svg">
  <sodipodi:namedview
     id="namedview7"
     pagecolor="#292929"
     bordercolor="#666666"
     borderopacity="1"
     inkscape:showpageshadow="0"
     inkscape:pageopacity="0"
     inkscape:pagecheckerboard="1"
     inkscape:deskcolor="#1a1a1a"
     inkscape:document-units="px"
     showgrid="false"
     inkscape:zoom="2.6074563"
     inkscape:cx="325.02942"
     inkscape:cy="221.67198"
     inkscape:window-width="3256"
     inkscape:window-height="1080"
     inkscape:window-x="1864"
     inkscape:window-y="0"
     inkscape:window-maximized="0"
     inkscape:current-layer="layer1" />
  <defs
     id="defs2">
    <inkscape:path-effect
       effect="fillet_chamfer"
       id="path-effect36"
       is_visible="true"
       lpeversion="1"
       nodesatellites_param="F,0,0,1,0,20,0,1 @ F,0,0,1,0,20,0,1 @ F,0,0,1,0,20,0,1"
       radius="20"
       unit="px"
       method="auto"
       mode="F"
       chamfer_steps="1"
       flexible="false"
       use_knot_distance="true"
       apply_no_radius="true"
       apply_with_radius="true"
       only_selected="false"
       hide_knots="false" />
    <inkscape:path-effect
       effect="fillet_chamfer"
       id="path-effect31"
       is_visible="true"
       lpeversion="1"
       nodesatellites_param="F,0,0,1,0,20,0,1 @ F,0,0,1,0,20,0,1 @ F,0,0,1,0,20,0,1"
       radius="20"
       unit="px"
       method="auto"
       mode="F"
       chamfer_steps="1"
       flexible="false"
       use_knot_distance="true"
       apply_no_radius="true"
       apply_with_radius="true"
       only_selected="false"
       hide_knots="false" />
    <inkscape:path-effect
       effect="fillet_chamfer"
       id="path-effect23"
       is_visible="true"
       lpeversion="1"
       nodesatellites_param="F,0,0,1,0,20,0,1 @ F,0,0,1,0,20,0,1 @ F,0,0,1,0,20,0,1"
       radius="20"
       unit="px"
       method="auto"
       mode="F"
       chamfer_steps="1"
       flexible="false"
       use_knot_distance="true"
       apply_no_radius="true"
       apply_with_radius="true"
       only_selected="false"
       hide_knots="false" />
  </defs>
  <g
     inkscape:label="Layer 1"
     inkscape:groupmode="layer"
     id="layer1">
    <rect
       style="display:inline;opacity:1;fill:#ff0000;fill-opacity:1;stroke:none;stroke-width:0.529166;stroke-dasharray:none;stroke-opacity:1;paint-order:markers stroke fill"
       id="rect51"
       width="26.458334"
       height="129.11877"
       x="10.469917"
       y="3.1737747"
       ry="13.229167" />
    <rect
       style="display:inline;opacity:1;fill:#ff6600;fill-opacity:1;stroke:none;stroke-width:0.529166;stroke-dasharray:none;stroke-opacity:1;paint-order:markers stroke fill"
       id="rect52"
       width="26.458334"
       height="129.11877"
       x="-15.937021"
       y="15.333893"
       ry="13.229167"
       transform="rotate(-60)" />
    <rect
       style="opacity:1;fill:#00ffff;fill-opacity:1;stroke:none;stroke-width:0.529166;stroke-dasharray:none;stroke-opacity:1;paint-order:markers stroke fill"
       id="rect53"
       width="26.458334"
       height="129.11877"
       x="101.3606"
       y="-52.474758"
       ry="13.229167"
       transform="matrix(0.5,0.8660254,0.8660254,-0.5,0,0)" />
    <path
       id="path41"
       style="color:#000000;display:inline;fill:#0000ff;stroke-width:1.32291665;paint-order:markers stroke fill;stroke:#0000ff;stroke-opacity:1;stroke-dasharray:none"
       d="M 22.86217,3.2132405 A 13.950403,13.950403 0 0 0 9.954431,17.124536 V 118.34265 a 13.950403,13.950403 0 0 0 20.925338,12.08143 L 118.53695,79.814765 a 13.950403,13.950403 0 0 0 0,-24.162865 L 30.879769,5.043103 A 13.950403,13.950403 0 0 0 22.86217,3.2132405 Z m 0.822689,0.4640544 c 2.307804,-0.037778 4.687944,0.5295397 6.930326,1.824178 L 118.2734,56.111303 c 8.96952,5.178555 8.96952,18.06602 0,23.244576 L 30.615185,129.96571 c -8.969523,5.17855 -20.132621,-1.26647 -20.132621,-11.62358 V 17.125053 c 0,-7.7678334 6.278882,-13.3344419 13.202295,-13.4477581 z" />
    <path
       id="path36"
       style="display:none;opacity:1;mix-blend-mode:soft-light;fill:#ffffff;fill-opacity:1;stroke-width:1.05833;paint-order:markers stroke fill"
       d="m 23.698972,3.1737747 c -0.94534,0 -1.86676,0.09588 -2.75746,0.275952 -0.0164,0.0035 -0.03269,0.0072 -0.04909,0.01085 -0.33996,0.07004 -0.67188,0.161305 -1.00201,0.255799 -0.23755,0.07106 -0.47445,0.143513 -0.70796,0.227376 -0.0948,0.03284 -0.1888,0.068 -0.28267,0.102836 -2.83449,1.088593 -5.33096,3.119251 -6.97426,5.9655273 -3.2091204,5.558374 -2.1052104,12.370678 2.2655,16.657381 -3.93377,-4.304227 -4.8144504,-10.796747 -1.73633,-16.128214 1.6433,-2.8462767 4.13977,-4.8769343 6.97425,-5.9655273 0.09387,-0.03484 0.18787,-0.07 0.28267,-0.102836 0.23351,-0.08386 0.47042,-0.156317 0.70797,-0.227377 0.33013,-0.09449 0.66205,-0.185758 1.00201,-0.255798 0.0164,-0.0036 0.03269,-0.0074 0.04909,-0.01085 0.8907,-0.180072 1.81211,-0.275952 2.75745,-0.275952 3.6721,0 6.99035,1.434876 9.45111,3.7651445 -2.50198,-2.6420795 -6.03759,-4.2943115 -9.98027,-4.2943115 z M 111.40472,54.036303 c -2.21468,0.05982 -4.44989,0.659175 -6.51071,1.848983 l -20.522778,11.848889 0.72295,0.417545 20.328998,-11.737268 c 2.06081,-1.189808 4.29602,-1.789162 6.51071,-1.848982 3.55484,-0.09602 7.04825,1.211351 9.69967,3.678328 -2.7044,-2.807772 -6.42979,-4.310113 -10.22884,-4.207495 z M 37.444382,94.890656 16.957262,106.71939 c -6.59458,3.80738 -8.8391104,12.18206 -5.03174,18.77663 0.66007,1.14327 1.47117,2.13656 2.37402,3.00706 -0.68921,-0.74166 -1.31596,-1.56183 -1.84485,-2.47789 -3.8073704,-6.59457 -1.56285,-14.96925 5.03174,-18.77663 l 19.95795,-11.523329 z" />
    <path
       id="path40"
       style="display:none;opacity:1;mix-blend-mode:soft-light;fill:#000000;fill-opacity:1;stroke-width:1.05833;paint-order:markers stroke fill"
       d="m 33.149772,6.939612 c 2.32982,2.460674 3.76463,5.778379 3.76463,9.450069 V 40.086943 L 16.427282,28.258724 c -1.03621,-0.598256 -1.95144,-1.319593 -2.76624,-2.118734 0.93198,1.019746 2.03229,1.91864 3.2954,2.647901 l 20.48713,11.828218 V 16.918848 c 0,-3.942324 -1.65214,-7.477294 -4.2938,-9.979236 z M 121.10358,57.71429 c 0.76404,0.793249 1.46047,1.673468 2.03708,2.672188 0.94849,1.642829 1.5209,3.396369 1.7446,5.161959 9e-4,0.01479 0.004,0.02914 0.005,0.04393 0.0437,0.354619 0.0648,0.709784 0.0806,1.064535 0.007,0.182374 0.0132,0.364891 0.0124,0.54777 6e-4,0.182667 -0.006,0.36457 -0.0124,0.546737 -0.0158,0.354751 -0.0369,0.709914 -0.0806,1.064534 -9e-4,0.01478 -0.004,0.02966 -0.005,0.04444 -0.2237,1.765589 -0.79611,3.518612 -1.7446,5.161442 -3.80738,6.594583 -12.18205,8.838603 -18.77663,5.031217 L 84.564205,67.622212 84.370419,67.733834 104.8932,79.582206 c 6.59458,3.807386 14.96924,1.563366 18.77663,-5.031218 0.94849,-1.642829 1.5209,-3.395852 1.7446,-5.161442 0.001,-0.01478 0.004,-0.02966 0.005,-0.04444 0.0437,-0.35462 0.0648,-0.709783 0.0806,-1.064535 0.006,-0.182167 0.013,-0.36407 0.0124,-0.546736 8.2e-4,-0.182879 -0.005,-0.365397 -0.0124,-0.547771 -0.0158,-0.35475 -0.0369,-0.709915 -0.0806,-1.064534 -0.001,-0.01478 -0.004,-0.02913 -0.005,-0.04392 -0.2237,-1.76559 -0.79611,-3.51913 -1.7446,-5.161959 -0.70781,-1.225958 -1.58357,-2.287032 -2.56625,-3.201355 z m -83.660008,37.176025 -0.52917,0.305408 V 118.0181 c 0,7.61477 -6.13064,13.74542 -13.74541,13.74542 -2.29733,0 -4.45461,-0.56556 -6.35414,-1.55391 -0.15169,-0.0813 -0.30386,-0.16147 -0.45268,-0.24857 -0.15046,-0.0857 -0.29657,-0.17813 -0.44339,-0.26923 -0.76799,-0.4895 -1.48098,-1.07394 -2.14922,-1.71824 0.80758,0.86903 1.70419,1.62648 2.67839,2.2474 0.14682,0.0911 0.29292,0.18358 0.44338,0.26924 0.14882,0.0871 0.301,0.16731 0.45269,0.24856 1.89953,0.98836 4.0568,1.55391 6.35413,1.55391 7.61477,0 13.74542,-6.13064 13.74542,-13.74541 z" />
    <path
       style="fill:none;stroke:#0000ff;stroke-width:1.85208331;stroke-linecap:round;stroke-linejoin:round;stroke-opacity:1;stroke-dasharray:none"
       d="m 37.444235,40.616372 46.927007,27.117519 -46.927036,27.156804 2.9e-5,-54.274323"
       id="path44" />
    <path
       id="rect27"
       style="opacity:1;fill:#ffd900;fill-opacity:1;stroke-width:4.23333328;paint-order:markers stroke fill;stroke:#000000;stroke-opacity:1;stroke-dasharray:none"
       d="M 37.444207,94.890694 16.957021,106.71913 c -6.594598,3.80739 -8.8388279,12.18195 -5.031434,18.77654 1.148615,1.98945 2.717615,3.57467 4.523229,4.72551 0.146814,0.0911 0.292805,0.18342 0.443267,0.26908 0.148819,0.0871 0.300948,0.16724 0.452642,0.24849 1.899523,0.98837 4.057032,1.55393 6.354359,1.55393 7.614789,0 13.745123,-6.13032 13.745123,-13.74511 z" />
    <path
       id="rect31"
       style="opacity:1;fill:#892ca0;fill-opacity:1;stroke-width:4.23333328;paint-order:markers stroke fill;stroke-dasharray:none;stroke:#000000;stroke-opacity:1"
       d="m 23.699084,3.1737747 c -0.945345,0 -1.866939,0.095878 -2.75764,0.2759513 -0.01643,0.0035 -0.03286,0.00701 -0.04929,0.010632 -0.339958,0.070036 -0.671907,0.1614788 -1.002043,0.2559735 -0.237545,0.071063 -0.474473,0.1433906 -0.707983,0.2272536 -0.09484,0.032837 -0.188312,0.068175 -0.282185,0.1030182 -2.834491,1.0885949 -5.331028,3.1191321 -6.974329,5.9654137 -3.8073938,6.594597 -1.563164,14.968523 5.031434,18.775916 l 20.487186,11.82844 V 16.918889 c 0,-7.6147852 -6.130334,-13.7451143 -13.745122,-13.7451143 z" />
    <path
       id="rect33"
       style="opacity:1;fill:#00ff00;fill-opacity:1;stroke-width:4.23333328;paint-order:markers stroke fill;stroke:#000000;stroke-opacity:1;stroke-dasharray:none"
       d="m 111.40446,54.036225 c -2.2147,0.05982 -4.44963,0.658812 -6.51045,1.848622 L 84.371243,67.73389 104.89401,79.582306 c 6.5946,3.807394 14.96915,1.563172 18.77654,-5.031425 0.94849,-1.642832 1.52066,-3.395691 1.74436,-5.161284 10e-4,-0.01478 0.004,-0.02955 0.005,-0.04433 0.0437,-0.35462 0.0648,-0.70972 0.0806,-1.064472 0.006,-0.182167 0.0127,-0.364239 0.0121,-0.546907 8.2e-4,-0.182879 -0.005,-0.365159 -0.0121,-0.547533 -0.0158,-0.354752 -0.0369,-0.709853 -0.0806,-1.064472 -0.001,-0.01478 -0.004,-0.02955 -0.005,-0.04433 -0.2237,-1.765594 -0.79587,-3.519078 -1.74436,-5.161909 -2.61758,-4.533786 -7.39373,-7.011033 -12.26609,-6.879424 z" />
  </g>
</svg>
