<?xml version="1.0" encoding="UTF-8" standalone="no"?>
<!-- Created with Inkscape (http://www.inkscape.org/) -->

<svg
   width="512"
   height="512"
   viewBox="0 0 135.46666 135.46667"
   version="1.1"
   id="svg5"
   inkscape:version="1.2.1 (9c6d41e410, 2022-07-14, custom)"
   sodipodi:docname="org.xfce.mousepad.svg"
   xmlns:inkscape="http://www.inkscape.org/namespaces/inkscape"
   xmlns:sodipodi="http://sodipodi.sourceforge.net/DTD/sodipodi-0.dtd"
   xmlns:xlink="http://www.w3.org/1999/xlink"
   xmlns="http://www.w3.org/2000/svg"
   xmlns:svg="http://www.w3.org/2000/svg">
  <sodipodi:namedview
     id="namedview7"
     pagecolor="#505050"
     bordercolor="#ffffff"
     borderopacity="1"
     inkscape:showpageshadow="0"
     inkscape:pageopacity="0"
     inkscape:pagecheckerboard="1"
     inkscape:deskcolor="#505050"
     inkscape:document-units="mm"
     showgrid="false"
     inkscape:zoom="1.4142136"
     inkscape:cx="132.93607"
     inkscape:cy="225.56706"
     inkscape:window-width="3252"
     inkscape:window-height="1076"
     inkscape:window-x="1864"
     inkscape:window-y="0"
     inkscape:window-maximized="0"
     inkscape:current-layer="layer1" />
  <defs
     id="defs2">
    <linearGradient
       inkscape:collect="always"
       id="linearGradient72313">
      <stop
         style="stop-color:#5f5f5f;stop-opacity:1;"
         offset="0"
         id="stop72309" />
      <stop
         style="stop-color:#cbcbcb;stop-opacity:1;"
         offset="1"
         id="stop72311" />
    </linearGradient>
    <linearGradient
       inkscape:collect="always"
       id="linearGradient62676">
      <stop
         style="stop-color:#ffffff;stop-opacity:0;"
         offset="0"
         id="stop62674" />
      <stop
         style="stop-color:#ffffff;stop-opacity:1;"
         offset="1"
         id="stop62672" />
    </linearGradient>
    <linearGradient
       inkscape:collect="always"
       id="linearGradient62589">
      <stop
         style="stop-color:#ffffff;stop-opacity:0;"
         offset="0"
         id="stop62587" />
      <stop
         style="stop-color:#ffffff;stop-opacity:1;"
         offset="1"
         id="stop62585" />
    </linearGradient>
    <linearGradient
       inkscape:collect="always"
       id="linearGradient62583">
      <stop
         style="stop-color:#000000;stop-opacity:1;"
         offset="0"
         id="stop62579" />
      <stop
         style="stop-color:#919191;stop-opacity:1;"
         offset="1"
         id="stop62581" />
    </linearGradient>
    <linearGradient
       inkscape:collect="always"
       id="linearGradient47986">
      <stop
         style="stop-color:#8c8c8c;stop-opacity:1;"
         offset="0"
         id="stop47982" />
      <stop
         style="stop-color:#5d5d5d;stop-opacity:1;"
         offset="1"
         id="stop47984" />
    </linearGradient>
    <linearGradient
       inkscape:collect="always"
       id="linearGradient13435">
      <stop
         style="stop-color:#292929;stop-opacity:1;"
         offset="0"
         id="stop13433" />
      <stop
         style="stop-color:#1f1f1f;stop-opacity:1;"
         offset="1"
         id="stop13431" />
    </linearGradient>
    <clipPath
       clipPathUnits="userSpaceOnUse"
       id="clipPath8211">
      <rect
         style="font-variation-settings:'wght' 400;fill:#000000;fill-opacity:1;stroke-width:2.56065;stroke-linecap:round;stroke-linejoin:round;paint-order:stroke fill markers"
         id="rect8213"
         width="135.46666"
         height="135.46666"
         x="166.47066"
         y="-14.361695"
         ry="12.0545" />
    </clipPath>
    <clipPath
       clipPathUnits="userSpaceOnUse"
       id="clipPath8211-7">
      <rect
         style="font-variation-settings:'wght' 400;fill:#000000;fill-opacity:1;stroke-width:2.56065;stroke-linecap:round;stroke-linejoin:round;paint-order:stroke fill markers"
         id="rect8213-7"
         width="135.46666"
         height="135.46666"
         x="166.47066"
         y="-14.361695"
         ry="12.0545" />
    </clipPath>
    <clipPath
       clipPathUnits="userSpaceOnUse"
       id="clipPath13392">
      <path
         style="color:#000000;fill:#000000;stroke-width:4;stroke-linecap:round;stroke-linejoin:round;paint-order:stroke fill markers"
         d="m -129.05445,-21.018303 h 111.357662 c 6.678193,0 12.0544997,5.376307 12.0544997,12.0544996 V 102.39386 c 0,6.67819 -5.3763067,12.0545 -12.0544997,12.0545 H -129.05445 c -6.67819,0 -12.0545,-5.37631 -12.0545,-12.0545 V -8.9638034 c 0,-6.6781926 5.37631,-12.0544996 12.0545,-12.0544996 z"
         id="path13394" />
    </clipPath>
    <clipPath
       clipPathUnits="userSpaceOnUse"
       id="clipPath8211-4">
      <rect
         style="font-variation-settings:'wght' 400;fill:#000000;fill-opacity:1;stroke-width:2.56065;stroke-linecap:round;stroke-linejoin:round;paint-order:stroke fill markers"
         id="rect8213-8"
         width="135.46666"
         height="135.46666"
         x="166.47066"
         y="-14.361695"
         ry="12.0545" />
    </clipPath>
    <clipPath
       clipPathUnits="userSpaceOnUse"
       id="clipPath52412">
      <rect
         style="font-variation-settings:'wght' 400;display:inline;fill:url(#radialGradient52416);fill-opacity:1;stroke-width:2.56065;stroke-linecap:round;stroke-linejoin:round;paint-order:stroke fill markers"
         id="rect52414"
         width="135.46666"
         height="135.46666"
         x="-161.44014"
         y="-62.493698"
         ry="12.0545" />
    </clipPath>
    <radialGradient
       inkscape:collect="always"
       xlink:href="#linearGradient13435"
       id="radialGradient52416"
       gradientUnits="userSpaceOnUse"
       gradientTransform="translate(-161.44015,-62.493702)"
       cx="67.73333"
       cy="67.73333"
       fx="67.73333"
       fy="67.73333"
       r="67.73333" />
    <linearGradient
       inkscape:collect="always"
       xlink:href="#linearGradient47986"
       id="linearGradient47988"
       x1="-245.6035"
       y1="50.014868"
       x2="-164.50657"
       y2="50.014868"
       gradientUnits="userSpaceOnUse"
       gradientTransform="matrix(0.97420395,2.5028145e-4,0.24411146,0.94312406,257.27141,23.555207)" />
    <linearGradient
       inkscape:collect="always"
       xlink:href="#linearGradient62583"
       id="linearGradient58059"
       x1="-12.914199"
       y1="4.5790482"
       x2="-9.2425146"
       y2="7.127758"
       gradientUnits="userSpaceOnUse"
       gradientTransform="matrix(0.97420398,0,0,1.3389705,38.391784,3.5512697)" />
    <linearGradient
       inkscape:collect="always"
       xlink:href="#linearGradient62583"
       id="linearGradient59970"
       gradientUnits="userSpaceOnUse"
       gradientTransform="matrix(0.97420398,0,0,1.3389705,43.454858,3.5512698)"
       x1="-12.914199"
       y1="4.5790482"
       x2="-9.2425146"
       y2="7.127758" />
    <linearGradient
       inkscape:collect="always"
       xlink:href="#linearGradient62589"
       id="linearGradient62591"
       x1="13.119585"
       y1="4.5676818"
       x2="17.729155"
       y2="4.5676818"
       gradientUnits="userSpaceOnUse"
       gradientTransform="matrix(0.97420398,0,0,0.97420398,12.572723,6.9389501)" />
    <linearGradient
       inkscape:collect="always"
       xlink:href="#linearGradient62676"
       id="linearGradient62678"
       x1="18.785665"
       y1="4.5676818"
       x2="22.45735"
       y2="4.5676818"
       gradientUnits="userSpaceOnUse"
       gradientTransform="matrix(0.97420398,0,0,0.97420398,12.572723,6.9389501)" />
    <linearGradient
       inkscape:collect="always"
       xlink:href="#linearGradient62583"
       id="linearGradient69342"
       gradientUnits="userSpaceOnUse"
       gradientTransform="matrix(0.97420398,0,0,1.3389705,48.662385,3.5839898)"
       x1="-12.914199"
       y1="4.5790482"
       x2="-9.2425146"
       y2="7.127758" />
    <linearGradient
       inkscape:collect="always"
       xlink:href="#linearGradient62676"
       id="linearGradient69344"
       gradientUnits="userSpaceOnUse"
       x1="18.785665"
       y1="4.5676818"
       x2="22.45735"
       y2="4.5676818"
       gradientTransform="matrix(0.97420398,0,0,0.97420398,17.78025,6.9716701)" />
    <linearGradient
       inkscape:collect="always"
       xlink:href="#linearGradient62583"
       id="linearGradient69375"
       gradientUnits="userSpaceOnUse"
       gradientTransform="matrix(0.97420398,0,0,1.3389705,53.757586,3.5447231)"
       x1="-12.914199"
       y1="4.5790482"
       x2="-9.2425146"
       y2="7.127758" />
    <linearGradient
       inkscape:collect="always"
       xlink:href="#linearGradient62676"
       id="linearGradient69377"
       gradientUnits="userSpaceOnUse"
       x1="18.785665"
       y1="4.5676818"
       x2="22.45735"
       y2="4.5676818"
       gradientTransform="matrix(0.97420398,0,0,0.97420398,22.875451,6.9324034)" />
    <linearGradient
       inkscape:collect="always"
       xlink:href="#linearGradient62583"
       id="linearGradient69408"
       gradientUnits="userSpaceOnUse"
       gradientTransform="matrix(0.97420398,0,0,1.3389705,58.972709,3.5839896)"
       x1="-12.914199"
       y1="4.5790482"
       x2="-9.2425146"
       y2="7.127758" />
    <linearGradient
       inkscape:collect="always"
       xlink:href="#linearGradient62676"
       id="linearGradient69410"
       gradientUnits="userSpaceOnUse"
       x1="18.785665"
       y1="4.5676818"
       x2="22.45735"
       y2="4.5676818"
       gradientTransform="matrix(0.97420398,0,0,0.97420398,28.090575,6.9716699)" />
    <linearGradient
       inkscape:collect="always"
       xlink:href="#linearGradient62583"
       id="linearGradient69441"
       gradientUnits="userSpaceOnUse"
       gradientTransform="matrix(0.97420398,0,0,1.3389705,64.067912,3.5447235)"
       x1="-12.914199"
       y1="4.5790482"
       x2="-9.2425146"
       y2="7.127758" />
    <linearGradient
       inkscape:collect="always"
       xlink:href="#linearGradient62676"
       id="linearGradient69443"
       gradientUnits="userSpaceOnUse"
       x1="18.785665"
       y1="4.5676818"
       x2="22.45735"
       y2="4.5676818"
       gradientTransform="matrix(0.97420398,0,0,0.97420398,33.185777,6.9324037)" />
    <linearGradient
       inkscape:collect="always"
       xlink:href="#linearGradient62583"
       id="linearGradient69474"
       gradientUnits="userSpaceOnUse"
       gradientTransform="matrix(0.97420398,0,0,1.3389705,69.283037,3.5839896)"
       x1="-12.914199"
       y1="4.5790482"
       x2="-9.2425146"
       y2="7.127758" />
    <linearGradient
       inkscape:collect="always"
       xlink:href="#linearGradient62676"
       id="linearGradient69476"
       gradientUnits="userSpaceOnUse"
       x1="18.785665"
       y1="4.5676818"
       x2="22.45735"
       y2="4.5676818"
       gradientTransform="matrix(0.97420398,0,0,0.97420398,38.400903,6.9716698)" />
    <linearGradient
       inkscape:collect="always"
       xlink:href="#linearGradient62583"
       id="linearGradient69507"
       gradientUnits="userSpaceOnUse"
       gradientTransform="matrix(0.97420398,0,0,1.3389705,74.438199,3.5839895)"
       x1="-12.914199"
       y1="4.5790482"
       x2="-9.2425146"
       y2="7.127758" />
    <linearGradient
       inkscape:collect="always"
       xlink:href="#linearGradient62676"
       id="linearGradient69509"
       gradientUnits="userSpaceOnUse"
       x1="18.785665"
       y1="4.5676818"
       x2="22.45735"
       y2="4.5676818"
       gradientTransform="matrix(0.97420398,0,0,0.97420398,43.556065,6.9716697)" />
    <linearGradient
       inkscape:collect="always"
       xlink:href="#linearGradient62583"
       id="linearGradient69540"
       gradientUnits="userSpaceOnUse"
       gradientTransform="matrix(0.97420398,0,0,1.3389705,79.541001,3.55127)"
       x1="-12.914199"
       y1="4.5790482"
       x2="-9.2425146"
       y2="7.127758" />
    <linearGradient
       inkscape:collect="always"
       xlink:href="#linearGradient62676"
       id="linearGradient69542"
       gradientUnits="userSpaceOnUse"
       x1="18.785665"
       y1="4.5676818"
       x2="22.45735"
       y2="4.5676818"
       gradientTransform="matrix(0.97420398,0,0,0.97420398,48.658866,6.9389501)" />
    <linearGradient
       inkscape:collect="always"
       xlink:href="#linearGradient62583"
       id="linearGradient69573"
       gradientUnits="userSpaceOnUse"
       gradientTransform="matrix(0.97420398,0,0,1.3389705,84.643803,3.5512698)"
       x1="-12.914199"
       y1="4.5790482"
       x2="-9.2425146"
       y2="7.127758" />
    <linearGradient
       inkscape:collect="always"
       xlink:href="#linearGradient62676"
       id="linearGradient69575"
       gradientUnits="userSpaceOnUse"
       x1="18.785665"
       y1="4.5676818"
       x2="22.45735"
       y2="4.5676818"
       gradientTransform="matrix(0.97420398,0,0,0.97420398,53.761669,6.9389501)" />
    <linearGradient
       inkscape:collect="always"
       xlink:href="#linearGradient62583"
       id="linearGradient69606"
       gradientUnits="userSpaceOnUse"
       gradientTransform="matrix(0.97420398,0,0,1.3389705,89.892609,3.5799661)"
       x1="-12.914199"
       y1="4.5790482"
       x2="-9.2425146"
       y2="7.127758" />
    <linearGradient
       inkscape:collect="always"
       xlink:href="#linearGradient62676"
       id="linearGradient69608"
       gradientUnits="userSpaceOnUse"
       x1="18.785665"
       y1="4.5676818"
       x2="22.45735"
       y2="4.5676818"
       gradientTransform="matrix(0.97420398,0,0,0.97420398,59.010474,6.9676463)" />
    <linearGradient
       inkscape:collect="always"
       xlink:href="#linearGradient72313"
       id="linearGradient72128"
       x1="20.50074"
       y1="6.2354007"
       x2="28.798338"
       y2="6.2354007"
       gradientUnits="userSpaceOnUse"
       gradientTransform="translate(0.52916663)" />
    <linearGradient
       inkscape:collect="always"
       xlink:href="#linearGradient72313"
       id="linearGradient72138"
       x1="25.372471"
       y1="6.3748174"
       x2="33.660107"
       y2="6.3748174"
       gradientUnits="userSpaceOnUse"
       gradientTransform="translate(0.52916663)" />
    <linearGradient
       inkscape:collect="always"
       xlink:href="#linearGradient72313"
       id="linearGradient72146"
       x1="30.527634"
       y1="6.3747845"
       x2="38.815269"
       y2="6.3747845"
       gradientUnits="userSpaceOnUse"
       gradientTransform="translate(0.52916663)" />
    <linearGradient
       inkscape:collect="always"
       xlink:href="#linearGradient72313"
       id="linearGradient72154"
       x1="35.682796"
       y1="6.3747845"
       x2="43.970432"
       y2="6.3747845"
       gradientUnits="userSpaceOnUse"
       gradientTransform="translate(0.52916663)" />
    <linearGradient
       inkscape:collect="always"
       xlink:href="#linearGradient72313"
       id="linearGradient72162"
       x1="40.837959"
       y1="6.3747845"
       x2="49.125595"
       y2="6.3747845"
       gradientUnits="userSpaceOnUse"
       gradientTransform="translate(0.52916663)" />
    <linearGradient
       inkscape:collect="always"
       xlink:href="#linearGradient72313"
       id="linearGradient72170"
       x1="45.993122"
       y1="6.3747845"
       x2="54.280758"
       y2="6.3747845"
       gradientUnits="userSpaceOnUse"
       gradientTransform="translate(0.52916663)" />
    <linearGradient
       inkscape:collect="always"
       xlink:href="#linearGradient72313"
       id="linearGradient72178"
       x1="51.148285"
       y1="6.3747845"
       x2="59.435921"
       y2="6.3747845"
       gradientUnits="userSpaceOnUse"
       gradientTransform="translate(0.52916663)" />
    <linearGradient
       inkscape:collect="always"
       xlink:href="#linearGradient72313"
       id="linearGradient72283"
       x1="56.303448"
       y1="6.3747845"
       x2="64.591087"
       y2="6.3747845"
       gradientUnits="userSpaceOnUse"
       gradientTransform="translate(0.52916663)" />
    <linearGradient
       inkscape:collect="always"
       xlink:href="#linearGradient72313"
       id="linearGradient72291"
       x1="61.458611"
       y1="6.3747845"
       x2="69.746246"
       y2="6.3747845"
       gradientUnits="userSpaceOnUse"
       gradientTransform="translate(0.52916663)" />
    <linearGradient
       inkscape:collect="always"
       xlink:href="#linearGradient72313"
       id="linearGradient72299"
       x1="66.613777"
       y1="6.3748174"
       x2="74.901413"
       y2="6.3748174"
       gradientUnits="userSpaceOnUse"
       gradientTransform="translate(0.52916663)" />
    <linearGradient
       inkscape:collect="always"
       xlink:href="#linearGradient72313"
       id="linearGradient72307"
       x1="71.768936"
       y1="6.3748174"
       x2="80.056572"
       y2="6.3748174"
       gradientUnits="userSpaceOnUse"
       gradientTransform="translate(0.52916663)" />
    <linearGradient
       x1="118.25153"
       y1="254.24648"
       x2="291.87143"
       y2="254.24648"
       id="linearGradient4386"
       xlink:href="#linearGradient4380"
       gradientUnits="userSpaceOnUse" />
    <linearGradient
       id="linearGradient4380">
      <stop
         id="stop4382"
         style="stop-color:#000000"
         offset="0" />
      <stop
         id="stop4384"
         style="stop-color:#000000;stop-opacity:0"
         offset="1" />
    </linearGradient>
    <filter
       color-interpolation-filters="sRGB"
       id="filter4266"
       x="-0.018997794"
       y="-0.03666286"
       width="1.0379964"
       height="1.0733307">
      <feGaussianBlur
         id="feGaussianBlur4268"
         stdDeviation="1.308628" />
    </filter>
    <linearGradient
       x1="174.28104"
       y1="164.16707"
       x2="236.40213"
       y2="253.70575"
       id="linearGradient4162"
       xlink:href="#linearGradient3694"
       gradientUnits="userSpaceOnUse"
       gradientTransform="matrix(0.99284699,0,0,0.99284699,-230.26382,-191.15484)" />
    <linearGradient
       id="linearGradient3694">
      <stop
         id="stop3702"
         style="stop-color:#b7b7b7"
         offset="0" />
      <stop
         id="stop3698"
         style="stop-color:#000000"
         offset="1" />
    </linearGradient>
  </defs>
  <g
     inkscape:label="Layer 1"
     inkscape:groupmode="layer"
     id="layer1">
    <rect
       style="font-variation-settings:'wght' 400;fill:#666666;fill-opacity:1;stroke:none;stroke-width:0.378729;stroke-linecap:round;stroke-linejoin:round;stroke-dasharray:none;stroke-opacity:1;paint-order:stroke fill markers"
       id="rect38053"
       width="81.791946"
       height="127.45695"
       x="12.323755"
       y="6.9386954"
       ry="11.341756" />
    <rect
       style="font-variation-settings:'wght' 400;fill:#ffffff;fill-opacity:1;stroke:#a2a2a2;stroke-width:0.745743;stroke-linecap:round;stroke-linejoin:round;stroke-dasharray:none;stroke-opacity:1;paint-order:stroke fill markers"
       id="rect38053-8"
       width="79.463608"
       height="126.14906"
       x="12.743413"
       y="7.5926452"
       ry="11.225371" />
    <rect
       style="font-variation-settings:'wght' 400;fill:#ffffff;fill-opacity:1;stroke:#bababa;stroke-width:0.743429;stroke-linecap:round;stroke-linejoin:round;stroke-dasharray:none;stroke-opacity:1;paint-order:stroke fill markers"
       id="rect38053-8-7"
       width="78.968033"
       height="126.15365"
       x="13.238987"
       y="7.5903411"
       ry="11.225782" />
    <rect
       style="font-variation-settings:'wght' 400;fill:#ffffff;fill-opacity:1;stroke:#d1d1d1;stroke-width:0.743454;stroke-linecap:round;stroke-linejoin:round;stroke-dasharray:none;stroke-opacity:1;paint-order:stroke fill markers"
       id="rect38053-8-7-9"
       width="78.97036"
       height="126.15829"
       x="13.734547"
       y="7.5880194"
       ry="11.226194" />
    <rect
       style="font-variation-settings:'wght' 400;fill:#ffffff;fill-opacity:1;stroke:#e3e3e3;stroke-width:0.738751;stroke-linecap:round;stroke-linejoin:round;stroke-dasharray:none;stroke-opacity:1;paint-order:stroke fill markers"
       id="rect38053-8-7-9-2"
       width="77.974594"
       height="126.15829"
       x="14.232426"
       y="7.5880194"
       ry="11.226194" />
    <rect
       style="font-variation-settings:'wght' 400;fill:#ffffff;fill-opacity:1;stroke:#e3e3e3;stroke-width:0.738751;stroke-linecap:round;stroke-linejoin:round;stroke-dasharray:none;stroke-opacity:1;paint-order:stroke fill markers"
       id="rect38053-8-7-9-2-0"
       width="77.974594"
       height="126.15829"
       x="14.730307"
       y="7.5880194"
       ry="11.226194" />
    <rect
       style="font-variation-settings:'wght' 400;fill:#0000ff;fill-opacity:1;stroke:none;stroke-width:0.378293;stroke-linecap:round;stroke-linejoin:round;stroke-dasharray:none;stroke-opacity:1;paint-order:stroke fill markers"
       id="rect38053-2"
       width="79.004951"
       height="131.65018"
       x="11.924775"
       y="7.15345"
       ry="11.71489"
       transform="matrix(0.99999997,2.5690867e-4,0.25057531,0.96809711,0,0)" />
    <path
       id="rect38053-2-2"
       style="font-variation-settings:'wght' 400;mix-blend-mode:screen;fill:url(#linearGradient47988);fill-opacity:1;stroke:none;stroke-width:0.372198;stroke-linecap:round;stroke-linejoin:round;stroke-dasharray:none;stroke-opacity:1;paint-order:stroke fill markers"
       d="m 78.773267,9.0125475 c -18.067694,0.00175 -36.136869,-0.048096 -54.203628,0.027891 -3.11074,0.1727069 -6.084069,2.7500385 -6.162746,5.9642385 -0.13405,2.740387 1.013494,5.311812 1.569569,7.949149 8.692491,33.488968 17.319681,66.996285 26.049581,100.474664 1.259324,3.65303 4.391663,6.6105 7.86507,8.02364 2.199276,0.89213 4.60327,0.99264 6.944623,0.8957 18.039092,-0.0334 36.080463,0.0564 54.118104,-0.0518 3.02872,-0.20899 5.91197,-2.6784 6.0548,-5.80809 0.20204,-2.77282 -0.97781,-5.378 -1.54126,-8.04287 C 110.76047,84.909745 102.13535,51.351821 93.373204,17.831768 91.624761,13.040796 86.84895,9.4039505 81.821464,9.0505541 80.833816,8.9757352 79.799532,8.987377 78.773267,9.0125017 Z" />
    <path
       d="m 40.230214,90.187697 c 14.845036,0.476922 27.563529,-1.071797 27.859545,-1.166511 -0.09342,-0.0748 22.73469,6.28699 23.921846,5.52663 2.230038,-3.1754 -12.535918,-7.65099 -11.614436,-9.4387 0.311566,-0.93594 16.818377,3.51232 16.759187,2.29756 -0.29007,-2.10302 -10.370049,-6.51601 -12.277496,-7.82417 -1.700695,-1.20618 -3.073519,-3.148713 -1.334186,-4.367448 C 85.284924,73.996299 106.49612,67.156543 102.21376,61.86427 94.526454,52.248088 63.781955,51.620474 62.800064,50.811068 62.33858,50.430876 55.799131,37.060249 48.449874,39.530187 c -4.580455,1.429377 5.023791,9.951684 6.046117,11.053202 0.941891,1.014083 -1.871767,0.900484 -2.660345,0.455381 -1.761113,-0.994866 -10.967621,-9.885959 -14.505568,-8.300259 -4.822462,2.453404 5.769881,10.12176 4.66143,10.370142 -1.779184,0.921329 -0.276438,3.175714 -1.036646,5.009124 -0.440845,1.153887 -4.259255,1.255688 -9.286261,0.90922 z m 45.392778,-44.59273 c -0.411506,0.15359 2.048614,7.548741 3.239067,7.886258 1.15311,0.460342 -2.151128,-7.456227 -3.197116,-7.865556 -0.01915,-0.0096 -0.02877,-0.02564 -0.04193,-0.02156 z m 8.106848,1.01425 c -1.154255,-0.01438 -3.078814,6.8624 -1.225593,7.596473 1.153161,0.460341 1.858685,-7.31548 1.326296,-7.57577 -0.03542,-0.01438 -0.06352,-0.02156 -0.100688,-0.02156 z m -24.509877,8.383045 c 1.44678,0 3.179593,0.929788 3.885494,2.090586 0.705914,1.160797 0.116467,2.111288 -1.33025,2.111288 -1.446781,0 -3.19218,-0.950491 -3.898094,-2.111288 -0.705926,-1.160798 -0.103942,-2.090586 1.34285,-2.090586 z m -5.106742,1.262633 c 3.17159,3.385326 5.544319,4.454711 10.691536,4.346743 -4.027658,4.287486 -12.507003,-3.0492 -10.691536,-4.346743 z m 19.427696,8.859104 c 0.398595,-0.02396 0.742409,0.02156 0.998647,0.144725 3.019996,0.667654 -8.67417,4.180501 -9.067966,3.68441 -0.346958,-0.34195 5.279087,-3.664065 8.069319,-3.829302 z m 3.063048,2.235479 c 0.138246,-0.0096 0.290617,0.02396 0.419612,0.06205 3.517784,1.727455 -4.431636,5.557572 -4.39779,5.423125 -1.042786,-0.352708 1.903432,-5.367871 3.978156,-5.485208 z"
       id="path14"
       style="mix-blend-mode:normal;fill:#0000ff;fill-rule:evenodd;stroke:none;stroke-width:0.211575"
       sodipodi:nodetypes="cccccccccccccccccccccccccccsssssccccccccccccc" />
    <ellipse
       style="font-variation-settings:'wght' 400;fill:url(#linearGradient69606);fill-opacity:1;stroke:url(#linearGradient69608);stroke-width:0.13444;stroke-linecap:round;stroke-linejoin:round;stroke-dasharray:none;stroke-opacity:1;paint-order:stroke fill markers"
       id="path57636-6-97"
       cx="79.100037"
       cy="11.4175"
       rx="1.7884848"
       ry="1.7063236" />
    <text
       xml:space="preserve"
       style="font-style:normal;font-weight:normal;font-size:14.082px;line-height:1.25;font-family:sans-serif;fill:#1a1a1a;fill-opacity:1;stroke:none;stroke-width:0.352053"
       x="37.060493"
       y="22.609772"
       id="text40605"
       transform="matrix(0.70710677,0,0.36620921,1.4142136,0,0)"><tspan
         sodipodi:role="line"
         id="tspan40603"
         style="fill:#1a1a1a;stroke-width:0.352053"
         x="37.060493"
         y="22.609772">MousePad</tspan></text>
    <ellipse
       style="font-variation-settings:'wght' 400;fill:url(#linearGradient58059);fill-opacity:1;stroke:url(#linearGradient62591);stroke-width:0.13444;stroke-linecap:round;stroke-linejoin:round;stroke-dasharray:none;stroke-opacity:1;paint-order:stroke fill markers"
       id="path57636"
       cx="27.599205"
       cy="11.388803"
       rx="1.7884848"
       ry="1.7063236" />
    <ellipse
       style="font-variation-settings:'wght' 400;fill:url(#linearGradient59970);fill-opacity:1;stroke:url(#linearGradient62678);stroke-width:0.13444;stroke-linecap:round;stroke-linejoin:round;stroke-dasharray:none;stroke-opacity:1;paint-order:stroke fill markers"
       id="path57636-6"
       cx="32.662277"
       cy="11.388803"
       rx="1.7884848"
       ry="1.7063236" />
    <ellipse
       style="font-variation-settings:'wght' 400;fill:url(#linearGradient69342);fill-opacity:1;stroke:url(#linearGradient69344);stroke-width:0.13444;stroke-linecap:round;stroke-linejoin:round;stroke-dasharray:none;stroke-opacity:1;paint-order:stroke fill markers"
       id="path57636-6-3"
       cx="37.869804"
       cy="11.421523"
       rx="1.7884848"
       ry="1.7063236" />
    <ellipse
       style="font-variation-settings:'wght' 400;fill:url(#linearGradient69375);fill-opacity:1;stroke:url(#linearGradient69377);stroke-width:0.13444;stroke-linecap:round;stroke-linejoin:round;stroke-dasharray:none;stroke-opacity:1;paint-order:stroke fill markers"
       id="path57636-6-0"
       cx="42.965008"
       cy="11.382257"
       rx="1.7884848"
       ry="1.7063236" />
    <ellipse
       style="font-variation-settings:'wght' 400;fill:url(#linearGradient69408);fill-opacity:1;stroke:url(#linearGradient69410);stroke-width:0.13444;stroke-linecap:round;stroke-linejoin:round;stroke-dasharray:none;stroke-opacity:1;paint-order:stroke fill markers"
       id="path57636-6-6"
       cx="48.18013"
       cy="11.421523"
       rx="1.7884848"
       ry="1.7063236" />
    <ellipse
       style="font-variation-settings:'wght' 400;fill:url(#linearGradient69441);fill-opacity:1;stroke:url(#linearGradient69443);stroke-width:0.13444;stroke-linecap:round;stroke-linejoin:round;stroke-dasharray:none;stroke-opacity:1;paint-order:stroke fill markers"
       id="path57636-6-04"
       cx="53.275333"
       cy="11.382257"
       rx="1.7884848"
       ry="1.7063236" />
    <ellipse
       style="font-variation-settings:'wght' 400;fill:url(#linearGradient69474);fill-opacity:1;stroke:url(#linearGradient69476);stroke-width:0.13444;stroke-linecap:round;stroke-linejoin:round;stroke-dasharray:none;stroke-opacity:1;paint-order:stroke fill markers"
       id="path57636-6-2"
       cx="58.490459"
       cy="11.421523"
       rx="1.7884848"
       ry="1.7063236" />
    <ellipse
       style="font-variation-settings:'wght' 400;fill:url(#linearGradient69507);fill-opacity:1;stroke:url(#linearGradient69509);stroke-width:0.13444;stroke-linecap:round;stroke-linejoin:round;stroke-dasharray:none;stroke-opacity:1;paint-order:stroke fill markers"
       id="path57636-6-1"
       cx="63.645615"
       cy="11.421523"
       rx="1.7884848"
       ry="1.7063236" />
    <ellipse
       style="font-variation-settings:'wght' 400;fill:url(#linearGradient69540);fill-opacity:1;stroke:url(#linearGradient69542);stroke-width:0.13444;stroke-linecap:round;stroke-linejoin:round;stroke-dasharray:none;stroke-opacity:1;paint-order:stroke fill markers"
       id="path57636-6-9"
       cx="68.748421"
       cy="11.388803"
       rx="1.7884848"
       ry="1.7063236" />
    <ellipse
       style="font-variation-settings:'wght' 400;fill:url(#linearGradient69573);fill-opacity:1;stroke:url(#linearGradient69575);stroke-width:0.13444;stroke-linecap:round;stroke-linejoin:round;stroke-dasharray:none;stroke-opacity:1;paint-order:stroke fill markers"
       id="path57636-6-17"
       cx="73.851219"
       cy="11.388803"
       rx="1.7884848"
       ry="1.7063236" />
    <path
       id="path57172"
       style="color:#000000;display:inline;fill:url(#linearGradient72307);fill-opacity:1;stroke-width:0.695201;stroke-linecap:round;stroke-linejoin:round;paint-order:stroke fill markers"
       d="m 76.434318,1.0709251 c -1.228138,0 -2.26941,0.7807236 -2.992411,1.9372135 -0.651047,1.0413944 -1.067318,2.4154914 -1.143802,3.9413836 3.49e-4,-2.37e-5 6.89e-4,2.1e-5 9.74e-4,0 0.0029,-1.764e-4 0.0059,-1.68e-5 0.0091,0 0.143622,7.702e-4 0.287351,0.00778 0.430437,0.020137 0.03778,0.00326 0.07556,0.00709 0.113273,0.011076 0.0196,0.00207 0.03922,0.00606 0.0589,0.00705 0.0028,1.422e-4 0.0057,3.968e-4 0.0086,5.034e-4 0.07208,-1.473098 0.477231,-2.7941812 1.079866,-3.7581338 0.666416,-1.0659787 1.543064,-1.6613317 2.43511,-1.6613317 0.892045,0 1.770707,0.595353 2.437123,1.6613317 0.666416,1.0659767 1.091444,2.5687727 1.091444,4.2308582 0,1.5072268 -0.349629,2.883036 -0.911718,3.921246 0.0025,0.0021 0.0052,0.0043 0.0076,0.0065 0.02098,0.01387 0.02912,0.01908 0.04129,0.0287 0.0036,0.0013 0.0073,0.0023 0.01108,0.004 0.10525,0.04773 0.204926,0.106333 0.303571,0.166133 0.05066,0.03071 0.101794,0.06058 0.15254,0.09112 0.63862,-1.129659 1.018446,-2.6034573 1.018446,-4.2177688 0,-1.7292855 -0.435401,-3.2963824 -1.1584,-4.4528725 -0.723076,-1.1564238 -1.764852,-1.9371475 -2.99299,-1.9371475 z"
       sodipodi:nodetypes="sscccssscssssccccscssss" />
    <path
       id="path57170"
       style="color:#000000;display:inline;fill:url(#linearGradient72299);fill-opacity:1;stroke-width:0.695201;stroke-linecap:round;stroke-linejoin:round;paint-order:stroke fill markers"
       d="m 71.279155,1.0709251 c -1.228138,0 -2.26941,0.7807236 -2.992411,1.9372135 -0.651047,1.0413944 -1.067318,2.4154914 -1.143802,3.9413836 3.49e-4,-2.37e-5 6.89e-4,2.1e-5 9.74e-4,0 0.0029,-1.764e-4 0.0059,-1.68e-5 0.0091,0 0.143622,7.702e-4 0.287351,0.00778 0.430437,0.020137 0.03778,0.00326 0.07556,0.00709 0.113272,0.011076 0.0196,0.00207 0.03922,0.00606 0.0589,0.00705 0.0028,1.422e-4 0.0057,3.968e-4 0.0086,5.034e-4 0.07208,-1.473098 0.477231,-2.7941812 1.079866,-3.7581338 0.666416,-1.0659787 1.543064,-1.6613317 2.43511,-1.6613317 0.892045,0 1.770707,0.595353 2.437123,1.6613317 0.666416,1.0659767 1.091444,2.5687727 1.091444,4.2308582 0,1.5072268 -0.349629,2.883036 -0.911718,3.921246 0.0025,0.0021 0.0052,0.0043 0.0076,0.0065 0.02098,0.01387 0.02912,0.01908 0.04129,0.0287 0.0036,0.0013 0.0073,0.0023 0.01108,0.004 0.10525,0.04773 0.204926,0.106333 0.303571,0.166133 0.05066,0.03071 0.101794,0.06058 0.15254,0.09112 0.63862,-1.129659 1.018446,-2.6034573 1.018446,-4.2177688 0,-1.7292855 -0.435401,-3.2963824 -1.1584,-4.4528725 C 73.549102,1.8516469 72.507326,1.0709232 71.279188,1.0709232 Z"
       sodipodi:nodetypes="sscccssscssssccccscssss" />
    <path
       id="path57168"
       style="color:#000000;display:inline;fill:url(#linearGradient72291);fill-opacity:1;stroke-width:0.695201;stroke-linecap:round;stroke-linejoin:round;paint-order:stroke fill markers"
       d="m 66.123992,1.0709251 c -1.228138,0 -2.26941,0.7807236 -2.992411,1.9372135 -0.651047,1.0413944 -1.067318,2.4154914 -1.143802,3.9413836 3.49e-4,-2.37e-5 6.89e-4,2.1e-5 9.74e-4,0 0.0029,-1.764e-4 0.0059,-1.68e-5 0.0091,0 0.143622,7.702e-4 0.287351,0.00778 0.430437,0.020137 0.03778,0.00326 0.07556,0.00709 0.113272,0.011076 0.0196,0.00207 0.03922,0.00606 0.0589,0.00705 0.0028,1.422e-4 0.0057,3.968e-4 0.0086,5.034e-4 0.07208,-1.473098 0.477231,-2.7941812 1.079866,-3.7581338 0.666416,-1.0659787 1.543064,-1.6613317 2.435109,-1.6613317 0.892046,0 1.770708,0.595353 2.437124,1.6613317 0.666416,1.0659767 1.091444,2.5687727 1.091444,4.2308582 0,1.5072268 -0.349629,2.883036 -0.911718,3.921246 0.0025,0.0021 0.0052,0.0043 0.0076,0.0065 0.02098,0.01387 0.02912,0.01908 0.04129,0.0287 0.0036,0.0013 0.0073,0.0023 0.01108,0.004 0.10525,0.04773 0.204926,0.106333 0.303571,0.166133 0.05066,0.03071 0.101794,0.06058 0.15254,0.09112 0.63862,-1.129659 1.018446,-2.6034573 1.018446,-4.2177688 0,-1.7292855 -0.435401,-3.2963824 -1.158401,-4.4528725 -0.723,-1.1564898 -1.764776,-1.9372135 -2.992914,-1.9372135 z"
       sodipodi:nodetypes="sscccssscssssccccscssss" />
    <path
       id="path57166"
       style="color:#000000;display:inline;fill:url(#linearGradient72283);fill-opacity:1;stroke-width:0.695201;stroke-linecap:round;stroke-linejoin:round;paint-order:stroke fill markers"
       d="m 60.968829,1.0709251 c -1.228138,0 -2.26941,0.7807236 -2.992411,1.9372135 C 57.325371,4.049533 56.9091,5.42363 56.832616,6.9495222 c 3.49e-4,-2.37e-5 6.89e-4,2.1e-5 9.74e-4,0 0.0029,-1.764e-4 0.0059,-1.68e-5 0.0091,0 0.143622,7.702e-4 0.287351,0.00778 0.430437,0.020137 0.03778,0.00326 0.07556,0.00709 0.113272,0.011076 0.0196,0.00207 0.03922,0.00606 0.0589,0.00705 0.0028,1.422e-4 0.0057,3.968e-4 0.0086,5.034e-4 0.07208,-1.473098 0.477231,-2.7941812 1.079866,-3.7581338 0.666416,-1.0659787 1.543064,-1.6613317 2.435109,-1.6613317 0.892046,0 1.770708,0.595353 2.437124,1.6613317 0.666416,1.0659767 1.091444,2.5687727 1.091444,4.2308582 0,1.5072268 -0.349629,2.883036 -0.911718,3.921246 0.0025,0.0021 0.0052,0.0043 0.0076,0.0065 0.02098,0.01387 0.02912,0.01908 0.04129,0.0287 0.0036,0.0013 0.0073,0.0023 0.01108,0.004 0.10525,0.04773 0.204926,0.106333 0.303571,0.166133 0.05066,0.03071 0.101794,0.06058 0.15254,0.09112 0.638619,-1.129659 1.018446,-2.6034573 1.018446,-4.2177688 0,-1.7292855 -0.435401,-3.2963824 -1.158401,-4.4528725 -0.723,-1.1564898 -1.764776,-1.9372135 -2.992914,-1.9372135 z"
       sodipodi:nodetypes="sscccssscssssccccscssss" />
    <path
       id="path57164"
       style="color:#000000;display:inline;fill:url(#linearGradient72178);fill-opacity:1;stroke-width:0.695201;stroke-linecap:round;stroke-linejoin:round;paint-order:stroke fill markers"
       d="m 55.813666,1.0709251 c -1.228138,0 -2.26941,0.7807236 -2.992411,1.9372135 -0.651047,1.0413944 -1.067318,2.4154914 -1.143802,3.9413836 3.49e-4,-2.37e-5 6.89e-4,2.1e-5 9.74e-4,0 0.0029,-1.764e-4 0.0059,-1.68e-5 0.0091,0 0.143622,7.702e-4 0.28735,0.00778 0.430437,0.020137 0.03778,0.00326 0.07556,0.00709 0.113272,0.011076 0.0196,0.00207 0.03922,0.00606 0.0589,0.00705 0.0028,1.422e-4 0.0057,3.968e-4 0.0086,5.034e-4 0.07208,-1.473098 0.477231,-2.7941812 1.079866,-3.7581338 0.666416,-1.0659787 1.543064,-1.6613317 2.435109,-1.6613317 0.892046,0 1.770708,0.595353 2.437124,1.6613317 0.666416,1.0659767 1.091444,2.5687727 1.091444,4.2308582 0,1.5072268 -0.349629,2.883036 -0.911718,3.921246 0.0025,0.0021 0.0052,0.0043 0.0076,0.0065 0.02098,0.01387 0.02912,0.01908 0.04129,0.0287 0.0036,0.0013 0.0073,0.0023 0.01108,0.004 0.10525,0.04773 0.204926,0.106333 0.303571,0.166133 0.05066,0.03071 0.101794,0.06058 0.15254,0.09112 0.638619,-1.129659 1.018446,-2.6034573 1.018446,-4.2177688 0,-1.7292855 -0.435401,-3.2963824 -1.158401,-4.4528725 -0.723,-1.1564898 -1.764776,-1.9372135 -2.992914,-1.9372135 z"
       sodipodi:nodetypes="sscccssscssssccccscssss" />
    <path
       id="path57162"
       style="color:#000000;display:inline;fill:url(#linearGradient72170);fill-opacity:1;stroke-width:0.695201;stroke-linecap:round;stroke-linejoin:round;paint-order:stroke fill markers"
       d="m 50.658503,1.0709251 c -1.228138,0 -2.26941,0.7807236 -2.992411,1.9372135 -0.651047,1.0413944 -1.067318,2.4154914 -1.143802,3.9413836 3.49e-4,-2.37e-5 6.89e-4,2.1e-5 9.74e-4,0 0.0029,-1.764e-4 0.0059,-1.68e-5 0.0091,0 0.143622,7.702e-4 0.28735,0.00778 0.430437,0.020137 0.03778,0.00326 0.07556,0.00709 0.113272,0.011076 0.0196,0.00207 0.03922,0.00606 0.0589,0.00705 0.0028,1.422e-4 0.0057,3.968e-4 0.0086,5.034e-4 0.07208,-1.473098 0.477231,-2.7941812 1.079866,-3.7581338 0.666416,-1.0659787 1.543064,-1.6613317 2.435109,-1.6613317 0.892046,0 1.770708,0.595353 2.437124,1.6613317 0.666415,1.0659767 1.091444,2.5687727 1.091444,4.2308582 0,1.5072268 -0.349629,2.883036 -0.911718,3.921246 0.0025,0.0021 0.0052,0.0043 0.0076,0.0065 0.02099,0.01387 0.02912,0.01908 0.04129,0.0287 0.0036,0.0013 0.0073,0.0023 0.01108,0.004 0.10525,0.04773 0.204926,0.106333 0.303571,0.166133 0.05066,0.03071 0.101794,0.06058 0.152539,0.09112 0.63862,-1.129659 1.018447,-2.6034573 1.018447,-4.2177688 0,-1.7292855 -0.435401,-3.2963824 -1.158401,-4.4528725 -0.723,-1.1564898 -1.764776,-1.9372135 -2.992914,-1.9372135 z"
       sodipodi:nodetypes="sscccssscssssccccscssss" />
    <path
       id="path57160"
       style="color:#000000;display:inline;fill:url(#linearGradient72162);fill-opacity:1;stroke-width:0.695201;stroke-linecap:round;stroke-linejoin:round;paint-order:stroke fill markers"
       d="m 45.50334,1.0709251 c -1.228138,0 -2.26941,0.7807236 -2.992411,1.9372135 -0.651047,1.0413944 -1.067318,2.4154914 -1.143802,3.9413836 3.49e-4,-2.37e-5 6.89e-4,2.1e-5 9.74e-4,0 0.0029,-1.764e-4 0.0059,-1.68e-5 0.0091,0 0.143622,7.702e-4 0.28735,0.00778 0.430437,0.020137 0.03778,0.00326 0.07556,0.00709 0.113272,0.011076 0.0196,0.00207 0.03922,0.00606 0.0589,0.00705 0.0028,1.422e-4 0.0057,3.968e-4 0.0086,5.034e-4 0.07208,-1.473098 0.477231,-2.7941812 1.079866,-3.7581338 0.666416,-1.0659787 1.543064,-1.6613317 2.435109,-1.6613317 0.892046,0 1.770708,0.595353 2.437124,1.6613317 0.666415,1.0659767 1.091444,2.5687727 1.091444,4.2308582 0,1.5072268 -0.349629,2.883036 -0.911718,3.921246 0.0025,0.0021 0.0052,0.0043 0.0076,0.0065 0.02099,0.01387 0.02912,0.01908 0.04129,0.0287 0.0036,0.0013 0.0073,0.0023 0.01108,0.004 0.10525,0.04773 0.204926,0.106333 0.303571,0.166133 0.05066,0.03071 0.101794,0.06058 0.152539,0.09112 0.63862,-1.129659 1.018447,-2.6034573 1.018447,-4.2177688 0,-1.7292855 -0.435401,-3.2963824 -1.158401,-4.4528725 -0.723,-1.1564898 -1.764776,-1.9372135 -2.992914,-1.9372135 z"
       sodipodi:nodetypes="sscccssscssssccccscssss" />
    <path
       id="path57158"
       style="color:#000000;display:inline;fill:url(#linearGradient72154);fill-opacity:1;stroke-width:0.695201;stroke-linecap:round;stroke-linejoin:round;paint-order:stroke fill markers"
       d="m 40.348177,1.0709251 c -1.228138,0 -2.26941,0.7807236 -2.992411,1.9372135 -0.651047,1.0413944 -1.067318,2.4154914 -1.143802,3.9413836 3.49e-4,-2.37e-5 6.89e-4,2.1e-5 9.74e-4,0 0.0029,-1.764e-4 0.0059,-1.68e-5 0.0091,0 0.143622,7.702e-4 0.28735,0.00778 0.430437,0.020137 0.03778,0.00326 0.07556,0.00709 0.113272,0.011076 0.0196,0.00207 0.03922,0.00606 0.0589,0.00705 0.0028,1.422e-4 0.0057,3.968e-4 0.0086,5.034e-4 0.07208,-1.473098 0.477231,-2.7941812 1.079866,-3.7581338 0.666416,-1.0659787 1.543064,-1.6613317 2.435109,-1.6613317 0.892046,0 1.770708,0.595353 2.437123,1.6613317 0.666416,1.0659767 1.091445,2.5687727 1.091445,4.2308582 0,1.5072268 -0.349629,2.883036 -0.911719,3.921246 0.0025,0.0021 0.0052,0.0043 0.0076,0.0065 0.02098,0.01387 0.02912,0.01908 0.04129,0.0287 0.0036,0.0013 0.0073,0.0023 0.01108,0.004 0.10525,0.04773 0.204925,0.106333 0.30357,0.166133 0.05066,0.03071 0.101795,0.06058 0.15254,0.09112 0.63862,-1.129659 1.018447,-2.6034573 1.018447,-4.2177688 0,-1.7292855 -0.435401,-3.2963824 -1.158401,-4.4528725 -0.723,-1.1564898 -1.764776,-1.9372135 -2.992914,-1.9372135 z"
       sodipodi:nodetypes="sscccssscssssccccscssss" />
    <path
       id="path57156"
       style="color:#000000;display:inline;fill:url(#linearGradient72146);fill-opacity:1;stroke-width:0.695201;stroke-linecap:round;stroke-linejoin:round;paint-order:stroke fill markers"
       d="m 35.193014,1.0709251 c -1.228138,0 -2.26941,0.7807236 -2.992411,1.9372135 -0.651047,1.0413944 -1.067318,2.4154914 -1.143802,3.9413836 3.48e-4,-2.37e-5 6.88e-4,2.1e-5 9.74e-4,0 0.0029,-1.764e-4 0.0059,-1.68e-5 0.0091,0 0.143622,7.702e-4 0.28735,0.00778 0.430436,0.020137 0.03778,0.00326 0.07556,0.00709 0.113273,0.011076 0.0196,0.00207 0.03922,0.00606 0.0589,0.00705 0.0028,1.422e-4 0.0057,3.968e-4 0.0086,5.034e-4 0.07208,-1.473098 0.477232,-2.7941812 1.079867,-3.7581338 0.666416,-1.0659787 1.543064,-1.6613317 2.435109,-1.6613317 0.892046,0 1.770707,0.595353 2.437123,1.6613317 0.666416,1.0659767 1.091445,2.5687727 1.091445,4.2308582 0,1.5072268 -0.349629,2.883036 -0.911719,3.921246 0.0025,0.0021 0.0052,0.0043 0.0076,0.0065 0.02098,0.01387 0.02912,0.01908 0.04129,0.0287 0.0036,0.0013 0.0073,0.0023 0.01108,0.004 0.10525,0.04773 0.204925,0.106333 0.30357,0.166133 0.05066,0.03071 0.101795,0.06058 0.15254,0.09112 0.63862,-1.129659 1.018447,-2.6034573 1.018447,-4.2177688 0,-1.7292855 -0.435401,-3.2963824 -1.158401,-4.4528725 -0.723,-1.1564898 -1.764776,-1.9372135 -2.992914,-1.9372135 z"
       sodipodi:nodetypes="sscccssscssssccccscssss" />
    <path
       id="path50083-3"
       style="color:#000000;display:inline;fill:url(#linearGradient72138);fill-opacity:1;stroke-width:0.695201;stroke-linecap:round;stroke-linejoin:round;paint-order:stroke fill markers"
       d="m 30.037851,1.0709251 c -1.228138,0 -2.269411,0.7807236 -2.992411,1.9372135 -0.651047,1.0413944 -1.067319,2.4154914 -1.143802,3.9413836 3.48e-4,-2.37e-5 6.88e-4,2.1e-5 9.74e-4,0 0.0029,-1.764e-4 0.0059,-1.68e-5 0.0091,0 0.143622,7.702e-4 0.28735,0.00778 0.430436,0.020137 0.03778,0.00326 0.07556,0.00709 0.113273,0.011076 0.0196,0.00207 0.03922,0.00606 0.0589,0.00705 0.0028,1.422e-4 0.0057,3.968e-4 0.0086,5.034e-4 0.07208,-1.473098 0.477232,-2.7941812 1.079867,-3.7581338 0.666415,-1.0659787 1.543064,-1.6613317 2.435109,-1.6613317 0.892046,0 1.770707,0.595353 2.437123,1.6613317 0.666416,1.0659767 1.091445,2.5687727 1.091445,4.2308582 0,1.5072268 -0.349629,2.883036 -0.911719,3.921246 0.0025,0.0021 0.0052,0.0043 0.0076,0.0065 0.02099,0.01387 0.02912,0.01908 0.04129,0.0287 0.0036,0.0013 0.0073,0.0023 0.01108,0.004 0.10525,0.04773 0.204925,0.106333 0.30357,0.166133 0.05066,0.03071 0.101795,0.06058 0.15254,0.09112 0.63862,-1.129659 1.018447,-2.6034573 1.018447,-4.2177688 0,-1.7292855 -0.435401,-3.2963824 -1.158401,-4.4528725 -0.723075,-1.1564238 -1.76485,-1.9371475 -2.992988,-1.9371475 z"
       sodipodi:nodetypes="sscccssscssssccccscssss" />
    <path
       id="path54077"
       style="color:#000000;display:inline;fill:url(#linearGradient72128);fill-opacity:1;stroke-width:0.695201;stroke-linecap:round;stroke-linejoin:round;paint-order:stroke fill markers"
       d="m 25.176694,1.0709251 c -1.228139,0 -2.269914,0.7807236 -2.992915,1.9372135 -0.691978,1.1068668 -1.118488,2.5900362 -1.153871,4.2313615 0.237174,-0.077001 0.457063,-0.1145351 0.627278,-0.1490167 0.05795,-1.5140829 0.46739,-2.8741934 1.083893,-3.8603309 0.666416,-1.0659777 1.543568,-1.6613316 2.435614,-1.6613316 0.892045,0 1.770203,0.5953539 2.436619,1.6613316 0.666416,1.0659776 1.091948,2.5687727 1.091948,4.2308582 0,1.2985042 -0.259895,2.4995187 -0.691215,3.4711763 0.21741,0.231582 0.312801,0.338202 0.444029,0.46769 0.548358,-1.088614 0.86943,-2.4541787 0.86943,-3.9388663 0,-1.7292854 -0.435401,-3.2963824 -1.158401,-4.4528724 -0.723002,-1.1564899 -1.764274,-1.9372135 -2.99241,-1.9372135 z"
       sodipodi:nodetypes="ssccssssccssss" />
    <path
       id="path50083-3-7"
       style="color:#000000;display:inline;opacity:0.388045;fill:#ffffff;fill-opacity:1;stroke-width:0.695201;stroke-linecap:round;stroke-linejoin:round;paint-order:stroke fill markers"
       d="m 29.004084,7.1821786 c 0,1.5072268 -0.197619,2.8830364 -0.759709,3.9212454 0.05077,0.148115 0.150109,0.222564 0.213699,0.296453 0.63459,-1.260011 0.866437,-2.6034567 0.866437,-4.2177682 0,-1.7292855 -0.615945,-3.3998812 -1.339643,-4.4528725 -0.314321,-0.457342 -1.329005,-1.6258845 -2.659736,-1.6518936 2.318177,0.5191182 3.636179,3.3416313 3.678952,6.1048359 z"
       sodipodi:nodetypes="cccsscc" />
    <path
       id="path50083-3-7-3"
       style="color:#000000;display:inline;opacity:0.388045;fill:#ffffff;fill-opacity:1;stroke-width:0.695201;stroke-linecap:round;stroke-linejoin:round;paint-order:stroke fill markers"
       d="m 33.865664,7.461014 c 0,1.507227 -0.346447,2.883036 -0.908537,3.921245 0.05077,0.148115 0.150109,0.222564 0.213699,0.296453 0.63459,-1.260011 1.015265,-2.603456 1.015265,-4.2177678 0,-1.7292855 -0.434044,-3.3998812 -1.157742,-4.4528725 -0.314321,-0.457342 -1.107837,-1.7233065 -2.692809,-1.920611 2.282207,0.5775566 3.487351,3.6103487 3.530124,6.3735533 z"
       sodipodi:nodetypes="cccsscc" />
    <path
       id="path50083-3-7-3-6"
       style="color:#000000;display:inline;opacity:0.388045;fill:#ffffff;fill-opacity:1;stroke-width:0.695201;stroke-linecap:round;stroke-linejoin:round;paint-order:stroke fill markers"
       d="m 39.020827,7.461014 c 0,1.507227 -0.346447,2.883036 -0.908537,3.921245 0.05077,0.148115 0.150109,0.222564 0.213699,0.296453 0.63459,-1.260011 1.015265,-2.603456 1.015265,-4.217768 0,-1.7292857 -0.434044,-3.3998814 -1.157742,-4.4528727 -0.314321,-0.457342 -1.107837,-1.7233065 -2.692809,-1.920611 2.282207,0.5775566 3.487351,3.6103487 3.530124,6.3735537 z"
       sodipodi:nodetypes="cccsscc" />
    <path
       id="path50083-3-7-3-6-5"
       style="color:#000000;display:inline;opacity:0.388045;fill:#ffffff;fill-opacity:1;stroke-width:0.695201;stroke-linecap:round;stroke-linejoin:round;paint-order:stroke fill markers"
       d="m 44.175989,7.461014 c 0,1.507227 -0.346447,2.883036 -0.908537,3.921245 0.05077,0.148115 0.150109,0.222564 0.213699,0.296453 0.63459,-1.260011 1.015265,-2.603456 1.015265,-4.217768 0,-1.7292856 -0.434044,-3.3998813 -1.157742,-4.4528726 -0.314321,-0.457342 -1.107837,-1.7233065 -2.692809,-1.920611 2.282207,0.5775566 3.487351,3.6103487 3.530124,6.3735536 z"
       sodipodi:nodetypes="cccsscc" />
    <path
       id="path50083-3-7-3-6-6"
       style="color:#000000;display:inline;opacity:0.388045;fill:#ffffff;fill-opacity:1;stroke-width:0.695201;stroke-linecap:round;stroke-linejoin:round;paint-order:stroke fill markers"
       d="m 49.331153,7.461014 c 0,1.507227 -0.346447,2.883036 -0.908537,3.921245 0.05077,0.148115 0.150109,0.222564 0.213699,0.296453 0.63459,-1.260011 1.015265,-2.603456 1.015265,-4.217768 0,-1.729285 -0.434044,-3.399881 -1.157742,-4.4528723 -0.314321,-0.457342 -1.107837,-1.7233065 -2.692809,-1.920611 2.282207,0.5775566 3.487351,3.6103487 3.530124,6.3735533 z"
       sodipodi:nodetypes="cccsscc" />
    <path
       id="path50083-3-7-3-6-3"
       style="color:#000000;display:inline;opacity:0.388045;fill:#ffffff;fill-opacity:1;stroke-width:0.695201;stroke-linecap:round;stroke-linejoin:round;paint-order:stroke fill markers"
       d="m 54.486316,7.461013 c 0,1.507228 -0.346447,2.883037 -0.908537,3.921246 0.05077,0.148115 0.150109,0.222564 0.213699,0.296453 0.63459,-1.260012 1.015265,-2.603456 1.015265,-4.217769 0,-1.7292852 -0.434044,-3.3998809 -1.157742,-4.4528722 -0.314321,-0.457342 -1.107837,-1.7233065 -2.692809,-1.920611 2.282207,0.5775566 3.487351,3.6103487 3.530124,6.3735532 z"
       sodipodi:nodetypes="cccsscc" />
    <path
       id="path50083-3-7-3-6-9"
       style="color:#000000;display:inline;opacity:0.388045;fill:#ffffff;fill-opacity:1;stroke-width:0.695201;stroke-linecap:round;stroke-linejoin:round;paint-order:stroke fill markers"
       d="m 59.64148,7.4610143 c 0,1.507227 -0.346447,2.8830357 -0.908537,3.9212447 0.05077,0.148115 0.150109,0.222564 0.213699,0.296453 0.63459,-1.260011 1.015265,-2.6034557 1.015265,-4.2177677 0,-1.729285 -0.434044,-3.399881 -1.157742,-4.4528723 -0.314321,-0.457342 -1.107837,-1.7233065 -2.692809,-1.920611 2.282207,0.5775566 3.487351,3.6103487 3.530124,6.3735533 z"
       sodipodi:nodetypes="cccsscc" />
    <path
       id="path50083-3-7-3-6-4"
       style="color:#000000;display:inline;opacity:0.388045;fill:#ffffff;fill-opacity:1;stroke-width:0.695201;stroke-linecap:round;stroke-linejoin:round;paint-order:stroke fill markers"
       d="m 64.796643,7.461014 c 0,1.507227 -0.346447,2.883036 -0.908537,3.921245 0.05077,0.148115 0.150109,0.222564 0.213699,0.296453 0.63459,-1.260011 1.015265,-2.603456 1.015265,-4.217768 0,-1.7292857 -0.434044,-3.3998814 -1.157742,-4.4528727 -0.314321,-0.457342 -1.107837,-1.7233065 -2.692809,-1.920611 2.282207,0.5775566 3.487351,3.6103487 3.530124,6.3735537 z"
       sodipodi:nodetypes="cccsscc" />
    <path
       id="path50083-3-7-3-6-8"
       style="color:#000000;display:inline;opacity:0.388045;fill:#ffffff;fill-opacity:1;stroke-width:0.695201;stroke-linecap:round;stroke-linejoin:round;paint-order:stroke fill markers"
       d="m 69.951806,7.461014 c 0,1.507227 -0.346447,2.883036 -0.908537,3.921245 0.05077,0.148115 0.150109,0.222564 0.213699,0.296453 0.63459,-1.260011 1.015265,-2.603456 1.015265,-4.217768 0,-1.7292855 -0.434044,-3.3998812 -1.157742,-4.4528725 -0.314321,-0.457342 -1.107837,-1.7233065 -2.692809,-1.920611 2.282207,0.5775566 3.487351,3.6103487 3.530124,6.3735535 z"
       sodipodi:nodetypes="cccsscc" />
    <path
       id="path50083-3-7-3-6-1"
       style="color:#000000;display:inline;opacity:0.388045;fill:#ffffff;fill-opacity:1;stroke-width:0.695201;stroke-linecap:round;stroke-linejoin:round;paint-order:stroke fill markers"
       d="m 75.11015,7.461014 c 0,1.507227 -0.346447,2.883036 -0.908537,3.921245 0.05077,0.148115 0.150109,0.222564 0.213699,0.296453 0.63459,-1.260011 1.015265,-2.603456 1.015265,-4.217768 0,-1.729286 -0.434044,-3.3998817 -1.157742,-4.452873 -0.314321,-0.457342 -1.107837,-1.7233065 -2.692809,-1.920611 2.282207,0.5775566 3.487351,3.6103487 3.530124,6.373554 z"
       sodipodi:nodetypes="cccsscc" />
    <path
       id="path50083-3-7-3-6-1-2"
       style="color:#000000;display:inline;opacity:0.388045;fill:#ffffff;fill-opacity:1;stroke-width:0.695201;stroke-linecap:round;stroke-linejoin:round;paint-order:stroke fill markers"
       d="m 80.262133,7.461014 c 0,1.507227 -0.346447,2.883036 -0.908537,3.921245 0.05077,0.148115 0.150109,0.222564 0.213699,0.296453 0.63459,-1.260011 1.015265,-2.603456 1.015265,-4.217768 0,-1.7292858 -0.434044,-3.3998815 -1.157742,-4.4528728 -0.314321,-0.457342 -1.107837,-1.7233065 -2.692809,-1.920611 2.282207,0.5775566 3.487351,3.6103487 3.530124,6.3735538 z"
       sodipodi:nodetypes="cccsscc" />
  </g>
</svg>
