<?xml version="1.0" encoding="UTF-8" standalone="no"?>
<!-- Created with Inkscape (http://www.inkscape.org/) -->

<svg
   width="512"
   height="512"
   viewBox="0 0 135.46666 135.46667"
   version="1.1"
   id="svg5"
   inkscape:version="1.2.1 (9c6d41e410, 2022-07-14, custom)"
   sodipodi:docname="org.xfce.taskmanager.svg"
   xmlns:inkscape="http://www.inkscape.org/namespaces/inkscape"
   xmlns:sodipodi="http://sodipodi.sourceforge.net/DTD/sodipodi-0.dtd"
   xmlns:xlink="http://www.w3.org/1999/xlink"
   xmlns="http://www.w3.org/2000/svg"
   xmlns:svg="http://www.w3.org/2000/svg">
  <sodipodi:namedview
     id="namedview7"
     pagecolor="#505050"
     bordercolor="#ffffff"
     borderopacity="1"
     inkscape:showpageshadow="0"
     inkscape:pageopacity="0"
     inkscape:pagecheckerboard="1"
     inkscape:deskcolor="#505050"
     inkscape:document-units="mm"
     showgrid="false"
     inkscape:zoom="2.2428543"
     inkscape:cx="116.81543"
     inkscape:cy="155.15943"
     inkscape:window-width="3252"
     inkscape:window-height="1076"
     inkscape:window-x="1864"
     inkscape:window-y="0"
     inkscape:window-maximized="0"
     inkscape:current-layer="layer1" />
  <defs
     id="defs2">
    <linearGradient
       inkscape:collect="always"
       id="linearGradient21531">
      <stop
         style="stop-color:#d2d2ff;stop-opacity:0;"
         offset="0"
         id="stop21535" />
      <stop
         style="stop-color:#cacaff;stop-opacity:0;"
         offset="0.67429227"
         id="stop21537" />
      <stop
         style="stop-color:#8282ff;stop-opacity:1;"
         offset="0.83364272"
         id="stop21527" />
      <stop
         style="stop-color:#d2d2ff;stop-opacity:0;"
         offset="1"
         id="stop21529" />
    </linearGradient>
    <linearGradient
       inkscape:collect="always"
       id="linearGradient14748">
      <stop
         style="stop-color:#1f1f1f;stop-opacity:1;"
         offset="0"
         id="stop14746" />
      <stop
         style="stop-color:#1c1c30;stop-opacity:1;"
         offset="1"
         id="stop14744" />
    </linearGradient>
    <linearGradient
       inkscape:collect="always"
       id="linearGradient80992">
      <stop
         style="stop-color:#000000;stop-opacity:0;"
         offset="0"
         id="stop80982" />
      <stop
         style="stop-color:#000000;stop-opacity:1;"
         offset="0.05"
         id="stop80984" />
      <stop
         style="stop-color:#000000;stop-opacity:1;"
         offset="0.5"
         id="stop80986" />
      <stop
         style="stop-color:#000000;stop-opacity:1;"
         offset="0.94999999"
         id="stop80988" />
      <stop
         style="stop-color:#000000;stop-opacity:0;"
         offset="1"
         id="stop80990" />
    </linearGradient>
    <linearGradient
       inkscape:collect="always"
       id="linearGradient54213">
      <stop
         style="stop-color:#1c80ff;stop-opacity:0;"
         offset="0"
         id="stop54209" />
      <stop
         style="stop-color:#78b4ff;stop-opacity:1;"
         offset="0.05"
         id="stop54272" />
      <stop
         style="stop-color:#1c80ff;stop-opacity:1;"
         offset="0.5"
         id="stop54217" />
      <stop
         style="stop-color:#1c80ff;stop-opacity:1;"
         offset="0.94999999"
         id="stop54274" />
      <stop
         style="stop-color:#1c80ff;stop-opacity:0;"
         offset="1"
         id="stop54211" />
    </linearGradient>
    <linearGradient
       inkscape:collect="always"
       id="linearGradient39721">
      <stop
         style="stop-color:#ffffff;stop-opacity:1;"
         offset="0"
         id="stop39717" />
      <stop
         style="stop-color:#ffffff;stop-opacity:0;"
         offset="1"
         id="stop39719" />
    </linearGradient>
    <linearGradient
       inkscape:collect="always"
       id="linearGradient17451">
      <stop
         style="stop-color:#ffffff;stop-opacity:1;"
         offset="0"
         id="stop17447" />
      <stop
         style="stop-color:#ffffff;stop-opacity:0;"
         offset="1"
         id="stop17449" />
    </linearGradient>
    <linearGradient
       inkscape:collect="always"
       id="linearGradient13435">
      <stop
         style="stop-color:#292929;stop-opacity:1;"
         offset="0"
         id="stop13433" />
      <stop
         style="stop-color:#1f1f1f;stop-opacity:1;"
         offset="1"
         id="stop13431" />
    </linearGradient>
    <clipPath
       clipPathUnits="userSpaceOnUse"
       id="clipPath8211">
      <rect
         style="font-variation-settings:'wght' 400;fill:#000000;fill-opacity:1;stroke-width:2.56065;stroke-linecap:round;stroke-linejoin:round;paint-order:stroke fill markers"
         id="rect8213"
         width="135.46666"
         height="135.46666"
         x="166.47066"
         y="-14.361695"
         ry="12.0545" />
    </clipPath>
    <clipPath
       clipPathUnits="userSpaceOnUse"
       id="clipPath8211-7">
      <rect
         style="font-variation-settings:'wght' 400;fill:#000000;fill-opacity:1;stroke-width:2.56065;stroke-linecap:round;stroke-linejoin:round;paint-order:stroke fill markers"
         id="rect8213-7"
         width="135.46666"
         height="135.46666"
         x="166.47066"
         y="-14.361695"
         ry="12.0545" />
    </clipPath>
    <clipPath
       clipPathUnits="userSpaceOnUse"
       id="clipPath13392">
      <path
         style="color:#000000;fill:#000000;stroke-width:4;stroke-linecap:round;stroke-linejoin:round;paint-order:stroke fill markers"
         d="m -129.05445,-21.018303 h 111.357662 c 6.678193,0 12.0544997,5.376307 12.0544997,12.0544996 V 102.39386 c 0,6.67819 -5.3763067,12.0545 -12.0544997,12.0545 H -129.05445 c -6.67819,0 -12.0545,-5.37631 -12.0545,-12.0545 V -8.9638034 c 0,-6.6781926 5.37631,-12.0544996 12.0545,-12.0544996 z"
         id="path13394" />
    </clipPath>
    <filter
       inkscape:collect="always"
       style="color-interpolation-filters:sRGB"
       id="filter13396"
       x="-0.0019200002"
       y="-0.0019200001"
       width="1.00384"
       height="1.00384">
      <feGaussianBlur
         inkscape:collect="always"
         stdDeviation="0.11157344"
         id="feGaussianBlur13398" />
    </filter>
    <radialGradient
       inkscape:collect="always"
       xlink:href="#linearGradient14748"
       id="radialGradient13437"
       cx="67.73333"
       cy="67.73333"
       fx="67.73333"
       fy="67.73333"
       r="67.73333"
       gradientUnits="userSpaceOnUse" />
    <filter
       inkscape:collect="always"
       style="color-interpolation-filters:sRGB"
       id="filter14188"
       x="-0.030720001"
       y="-0.030719999"
       width="1.06144"
       height="1.06144">
      <feGaussianBlur
         inkscape:collect="always"
         stdDeviation="1.785175"
         id="feGaussianBlur14186" />
    </filter>
    <linearGradient
       inkscape:collect="always"
       xlink:href="#linearGradient17451"
       id="linearGradient17453"
       x1="-111.81674"
       y1="-27.279909"
       x2="-23.93096"
       y2="58.226379"
       gradientUnits="userSpaceOnUse"
       gradientTransform="matrix(0.95655444,0,0,0.95655444,113.45002,32.121787)" />
    <filter
       inkscape:collect="always"
       style="color-interpolation-filters:sRGB"
       id="filter26756"
       x="-0.01728"
       y="-0.017279999"
       width="1.03456"
       height="1.03456">
      <feGaussianBlur
         inkscape:collect="always"
         stdDeviation="1.0041609"
         id="feGaussianBlur26754" />
    </filter>
    <radialGradient
       inkscape:collect="always"
       xlink:href="#linearGradient39721"
       id="radialGradient39723"
       cx="-88.373024"
       cy="114.37265"
       fx="-88.373024"
       fy="114.37265"
       r="67.733336"
       gradientUnits="userSpaceOnUse"
       gradientTransform="translate(156.10636,-46.639315)" />
    <clipPath
       clipPathUnits="userSpaceOnUse"
       id="clipPath8211-4">
      <rect
         style="font-variation-settings:'wght' 400;fill:#000000;fill-opacity:1;stroke-width:2.56065;stroke-linecap:round;stroke-linejoin:round;paint-order:stroke fill markers"
         id="rect8213-8"
         width="135.46666"
         height="135.46666"
         x="166.47066"
         y="-14.361695"
         ry="12.0545" />
    </clipPath>
    <clipPath
       clipPathUnits="userSpaceOnUse"
       id="clipPath52412">
      <rect
         style="font-variation-settings:'wght' 400;display:inline;fill:url(#radialGradient52416);fill-opacity:1;stroke-width:2.56065;stroke-linecap:round;stroke-linejoin:round;paint-order:stroke fill markers"
         id="rect52414"
         width="135.46666"
         height="135.46666"
         x="-161.44014"
         y="-62.493698"
         ry="12.0545" />
    </clipPath>
    <radialGradient
       inkscape:collect="always"
       xlink:href="#linearGradient13435"
       id="radialGradient52416"
       gradientUnits="userSpaceOnUse"
       gradientTransform="translate(-161.44015,-62.493702)"
       cx="67.73333"
       cy="67.73333"
       fx="67.73333"
       fy="67.73333"
       r="67.73333" />
    <linearGradient
       inkscape:collect="always"
       xlink:href="#linearGradient54213"
       id="linearGradient54215"
       x1="0.0374795"
       y1="63.863319"
       x2="135.44943"
       y2="63.863319"
       gradientUnits="userSpaceOnUse" />
    <linearGradient
       inkscape:collect="always"
       xlink:href="#linearGradient80992"
       id="linearGradient80979"
       gradientUnits="userSpaceOnUse"
       x1="0.0374795"
       y1="63.863319"
       x2="135.44943"
       y2="63.863319"
       gradientTransform="translate(-0.01012167,-0.08443151)" />
    <filter
       inkscape:collect="always"
       style="color-interpolation-filters:sRGB"
       id="filter83247"
       x="-0.02996473"
       y="-0.040854451"
       width="1.0599295"
       height="1.0817155">
      <feGaussianBlur
         inkscape:collect="always"
         stdDeviation="0.83235543"
         id="feGaussianBlur83249" />
    </filter>
    <radialGradient
       inkscape:collect="always"
       xlink:href="#linearGradient21531"
       id="radialGradient21533"
       cx="-115.30069"
       cy="47.800903"
       fx="-115.30069"
       fy="47.800903"
       r="43.741501"
       gradientUnits="userSpaceOnUse"
       gradientTransform="matrix(1.5484913,0,0,1.5484913,246.27545,-6.2859458)" />
    <filter
       inkscape:collect="always"
       style="color-interpolation-filters:sRGB"
       id="filter34699"
       x="-0.006594289"
       y="-0.0089934399"
       width="1.0131886"
       height="1.0179875">
      <feGaussianBlur
         inkscape:collect="always"
         stdDeviation="0.28323207"
         id="feGaussianBlur34701" />
    </filter>
    <filter
       inkscape:collect="always"
       style="color-interpolation-filters:sRGB"
       id="filter34933"
       x="-0.0076800001"
       y="-0.0076799998"
       width="1.01536"
       height="1.01536">
      <feGaussianBlur
         inkscape:collect="always"
         stdDeviation="0.44629374"
         id="feGaussianBlur34931" />
    </filter>
  </defs>
  <g
     inkscape:label="Layer 1"
     inkscape:groupmode="layer"
     id="layer1">
    <rect
       style="font-variation-settings:'wght' 400;display:inline;opacity:1;fill:url(#radialGradient13437);fill-opacity:1;stroke-width:2.56065;stroke-linecap:round;stroke-linejoin:round;paint-order:stroke fill markers"
       id="rect4163"
       width="135.46666"
       height="135.46666"
       x="1.4210855e-14"
       y="0"
       ry="12.0545" />
    <path
       id="rect36837"
       style="font-variation-settings:'wght' 400;display:inline;opacity:0.6;mix-blend-mode:overlay;fill:#000000;fill-opacity:1;stroke:none;stroke-width:0.223462;stroke-linecap:round;stroke-linejoin:round;stroke-dasharray:none;stroke-opacity:1;paint-order:stroke fill markers"
       d="m -159.77721,-62.493704 v 1.685685 h -1.66295 v 0.264583 h 1.66295 v 10.304798 h -1.66295 v 0.264583 h 1.66295 v 10.281543 h -1.66295 v 0.264584 h 1.66295 v 10.304797 h -1.66295 v 0.264583 h 1.66295 v 10.259322 h -1.66295 v 0.264584 h 1.66295 v 10.3047967 h -1.66295 v 0.264583 h 1.66295 v 10.281543 h -1.66295 v 0.264584 h 1.66295 V 13.085661 h -1.66295 v 0.264583 h 1.66295 V 23.58683 h -1.66295 v 0.264583 h 1.66295 v 10.304798 h -1.66295 v 0.264583 h 1.66295 v 10.281542 h -1.66295 v 0.26458 h 1.66295 v 10.3048 h -1.66295 v 0.26458 h 1.66295 v 10.23607 h -1.66295 v 0.26459 h 1.66295 v 6.93601 h 0.26458 v -6.93601 h 10.30481 v 6.93601 h 0.26458 v -6.93601 h 10.28155 v 6.93601 h 0.26458 v -6.93601 h 10.30481 v 6.93601 h 0.26458 v -6.93601 h 10.25933 v 6.93601 h 0.26458 v -6.93601 h 10.3048 v 6.93601 h 0.26459 v -6.93601 h 10.281545 v 6.93601 h 0.264583 v -6.93601 h 10.304797 v 6.93601 h 0.264584 v -6.93601 h 10.236584 v 6.93601 h 0.264584 v -6.93601 h 10.304797 v 6.93601 h 0.264583 v -6.93601 h 10.281538 v 6.93601 h 0.26459 v -6.93601 h 10.304784 v 6.93601 h 0.26459 v -6.93601 h 10.236053 v 6.93601 h 0.26459 v -6.93601 h 6.958747 v -0.26459 h -6.958747 v -10.23607 h 6.958747 v -0.26458 h -6.958747 v -10.3048 h 6.958747 v -0.26458 h -6.958747 V 34.420794 h 6.958747 v -0.264583 h -6.958747 V 23.851413 h 6.958747 V 23.58683 h -6.958747 V 13.350244 h 6.958747 v -0.264583 h -6.958747 V 2.7808647 h 6.958747 v -0.264584 h -6.958747 v -10.281543 h 6.958747 v -0.264583 h -6.958747 V -18.334642 h 6.958747 v -0.264584 h -6.958747 v -10.259322 h 6.958747 v -0.264583 h -6.958747 v -10.304797 h 6.958747 v -0.264584 h -6.958747 v -10.281543 h 6.958747 v -0.264583 h -6.958747 v -10.304798 h 6.958747 v -0.264583 h -6.958747 v -1.685685 h -0.26459 v 1.685685 h -10.236053 v -1.685685 h -0.26459 v 1.685685 h -10.304784 v -1.685685 h -0.26459 v 1.685685 h -10.281538 v -1.685685 h -0.264583 v 1.685685 h -10.304797 v -1.685685 h -0.264584 v 1.685685 h -10.236584 v -1.685685 h -0.264584 v 1.685685 h -10.304797 v -1.685685 h -0.264583 v 1.685685 h -10.281545 v -1.685685 h -0.26459 v 1.685685 h -10.3048 v -1.685685 h -0.26458 v 1.685685 h -10.25933 v -1.685685 h -0.26458 v 1.685685 h -10.30481 v -1.685685 h -0.26458 v 1.685685 h -10.28155 v -1.685685 h -0.26458 v 1.685685 h -10.30481 v -1.685685 z m 0.26458,1.950268 h 10.30481 v 10.304798 h -10.30481 z m 10.56939,0 h 10.28155 v 10.304798 h -10.28155 z m 10.54613,0 h 10.30481 v 10.304798 h -10.30481 z m 10.56939,0 h 10.25933 v 10.304798 h -10.25933 z m 10.52391,0 h 10.3048 v 10.304798 h -10.3048 z m 10.56939,0 h 10.281545 v 10.304798 h -10.281545 z m 10.546128,0 h 10.304797 v 10.304798 h -10.304797 z m 10.569381,0 h 10.236584 v 10.304798 h -10.236584 z m 10.501168,0 h 10.304797 v 10.304798 h -10.304797 z m 10.56938,0 h 10.281538 v 10.304798 h -10.281538 z m 10.546128,0 h 10.304784 v 10.304798 h -10.304784 z m 10.569374,0 h 10.236053 v 10.304798 h -10.236053 z m -116.079769,10.569381 h 10.30481 v 10.281543 h -10.30481 z m 10.56939,0 h 10.28155 v 10.281543 h -10.28155 z m 10.54613,0 h 10.30481 v 10.281543 h -10.30481 z m 10.56939,0 h 10.25933 v 10.281543 h -10.25933 z m 10.52391,0 h 10.3048 v 10.281543 h -10.3048 z m 10.56939,0 h 10.281545 v 10.281543 h -10.281545 z m 10.546128,0 h 10.304797 v 10.281543 h -10.304797 z m 10.569381,0 h 10.236584 v 10.281543 h -10.236584 z m 10.501168,0 h 10.304797 v 10.281543 h -10.304797 z m 10.56938,0 h 10.281538 v 10.281543 h -10.281538 z m 10.546128,0 h 10.304784 v 10.281543 h -10.304784 z m 10.569374,0 h 10.236053 v 10.281543 h -10.236053 z m -116.079769,10.546127 h 10.30481 v 10.304797 h -10.30481 z m 10.56939,0 h 10.28155 v 10.304797 h -10.28155 z m 10.54613,0 h 10.30481 v 10.304797 h -10.30481 z m 10.56939,0 h 10.25933 v 10.304797 h -10.25933 z m 10.52391,0 h 10.3048 v 10.304797 h -10.3048 z m 10.56939,0 h 10.281545 v 10.304797 h -10.281545 z m 10.546128,0 h 10.304797 v 10.304797 h -10.304797 z m 10.569381,0 h 10.236584 v 10.304797 h -10.236584 z m 10.501168,0 h 10.304797 v 10.304797 h -10.304797 z m 10.56938,0 h 10.281538 v 10.304797 h -10.281538 z m 10.546128,0 h 10.304784 v 10.304797 h -10.304784 z m 10.569374,0 h 10.236053 v 10.304797 h -10.236053 z m -116.079769,10.56938 h 10.30481 v 10.259322 h -10.30481 z m 10.56939,0 h 10.28155 v 10.259322 h -10.28155 z m 10.54613,0 h 10.30481 v 10.259322 h -10.30481 z m 10.56939,0 h 10.25933 v 10.259322 h -10.25933 z m 10.52391,0 h 10.3048 v 10.259322 h -10.3048 z m 10.56939,0 h 10.281545 v 10.259322 h -10.281545 z m 10.546128,0 h 10.304797 v 10.259322 h -10.304797 z m 10.569381,0 h 10.236584 v 10.259322 h -10.236584 z m 10.501168,0 h 10.304797 v 10.259322 h -10.304797 z m 10.56938,0 h 10.281538 v 10.259322 h -10.281538 z m 10.546128,0 h 10.304784 v 10.259322 h -10.304784 z m 10.569374,0 h 10.236053 v 10.259322 h -10.236053 z m -116.079769,10.523906 h 10.30481 v 10.3047967 h -10.30481 z m 10.56939,0 h 10.28155 v 10.3047967 h -10.28155 z m 10.54613,0 h 10.30481 v 10.3047967 h -10.30481 z m 10.56939,0 h 10.25933 v 10.3047967 h -10.25933 z m 10.52391,0 h 10.3048 v 10.3047967 h -10.3048 z m 10.56939,0 h 10.281545 v 10.3047967 h -10.281545 z m 10.546128,0 h 10.304797 v 10.3047967 h -10.304797 z m 10.569381,0 h 10.236584 v 10.3047967 h -10.236584 z m 10.501168,0 h 10.304797 v 10.3047967 h -10.304797 z m 10.56938,0 h 10.281538 v 10.3047967 h -10.281538 z m 10.546128,0 h 10.304784 v 10.3047967 h -10.304784 z m 10.569374,0 h 10.236053 V -8.0298453 H -43.432861 Z M -159.51263,-7.7652623 h 10.30481 v 10.281543 h -10.30481 z m 10.56939,0 h 10.28155 v 10.281543 h -10.28155 z m 10.54613,0 h 10.30481 v 10.281543 h -10.30481 z m 10.56939,0 h 10.25933 v 10.281543 h -10.25933 z m 10.52391,0 h 10.3048 v 10.281543 h -10.3048 z m 10.56939,0 h 10.281545 v 10.281543 h -10.281545 z m 10.546128,0 h 10.304797 v 10.281543 h -10.304797 z m 10.569381,0 h 10.236584 v 10.281543 h -10.236584 z m 10.501168,0 h 10.304797 v 10.281543 h -10.304797 z m 10.56938,0 h 10.281538 v 10.281543 h -10.281538 z m 10.546128,0 h 10.304784 v 10.281543 h -10.304784 z m 10.569374,0 h 10.236053 V 2.5162807 H -43.432861 Z M -159.51263,2.7808647 h 10.30481 V 13.085661 h -10.30481 z m 10.56939,0 h 10.28155 V 13.085661 h -10.28155 z m 10.54613,0 h 10.30481 V 13.085661 h -10.30481 z m 10.56939,0 h 10.25933 V 13.085661 h -10.25933 z m 10.52391,0 h 10.3048 V 13.085661 h -10.3048 z m 10.56939,0 h 10.281545 V 13.085661 h -10.281545 z m 10.546128,0 h 10.304797 V 13.085661 h -10.304797 z m 10.569381,0 h 10.236584 V 13.085661 h -10.236584 z m 10.501168,0 h 10.304797 V 13.085661 h -10.304797 z m 10.56938,0 h 10.281538 V 13.085661 h -10.281538 z m 10.546128,0 h 10.304784 V 13.085661 h -10.304784 z m 10.569374,0 h 10.236053 V 13.085661 H -43.432861 Z M -159.51263,13.350244 h 10.30481 V 23.58683 h -10.30481 z m 10.56939,0 h 10.28155 V 23.58683 h -10.28155 z m 10.54613,0 h 10.30481 V 23.58683 h -10.30481 z m 10.56939,0 h 10.25933 V 23.58683 h -10.25933 z m 10.52391,0 h 10.3048 V 23.58683 h -10.3048 z m 10.56939,0 h 10.281545 V 23.58683 h -10.281545 z m 10.546128,0 h 10.304797 V 23.58683 h -10.304797 z m 10.569381,0 h 10.236584 V 23.58683 h -10.236584 z m 10.501168,0 h 10.304797 V 23.58683 h -10.304797 z m 10.56938,0 h 10.281538 V 23.58683 h -10.281538 z m 10.546128,0 h 10.304784 V 23.58683 h -10.304784 z m 10.569374,0 h 10.236053 V 23.58683 H -43.432861 Z M -159.51263,23.851413 h 10.30481 v 10.304798 h -10.30481 z m 10.56939,0 h 10.28155 v 10.304798 h -10.28155 z m 10.54613,0 h 10.30481 v 10.304798 h -10.30481 z m 10.56939,0 h 10.25933 v 10.304798 h -10.25933 z m 10.52391,0 h 10.3048 v 10.304798 h -10.3048 z m 10.56939,0 h 10.281545 v 10.304798 h -10.281545 z m 10.546128,0 h 10.304797 v 10.304798 h -10.304797 z m 10.569381,0 h 10.236584 v 10.304798 h -10.236584 z m 10.501168,0 h 10.304797 v 10.304798 h -10.304797 z m 10.56938,0 h 10.281538 v 10.304798 h -10.281538 z m 10.546128,0 h 10.304784 v 10.304798 h -10.304784 z m 10.569374,0 h 10.236053 V 34.156211 H -43.432861 Z M -159.51263,34.420794 h 10.30481 v 10.281542 h -10.30481 z m 10.56939,0 h 10.28155 v 10.281542 h -10.28155 z m 10.54613,0 h 10.30481 v 10.281542 h -10.30481 z m 10.56939,0 h 10.25933 v 10.281542 h -10.25933 z m 10.52391,0 h 10.3048 v 10.281542 h -10.3048 z m 10.56939,0 h 10.281545 v 10.281542 h -10.281545 z m 10.546128,0 h 10.304797 v 10.281542 h -10.304797 z m 10.569381,0 h 10.236584 v 10.281542 h -10.236584 z m 10.501168,0 h 10.304797 v 10.281542 h -10.304797 z m 10.56938,0 h 10.281538 v 10.281542 h -10.281538 z m 10.546128,0 h 10.304784 v 10.281542 h -10.304784 z m 10.569374,0 h 10.236053 V 44.702336 H -43.432861 Z M -159.51263,44.966916 h 10.30481 v 10.3048 h -10.30481 z m 10.56939,0 h 10.28155 v 10.3048 h -10.28155 z m 10.54613,0 h 10.30481 v 10.3048 h -10.30481 z m 10.56939,0 h 10.25933 v 10.3048 h -10.25933 z m 10.52391,0 h 10.3048 v 10.3048 h -10.3048 z m 10.56939,0 h 10.281545 v 10.3048 h -10.281545 z m 10.546128,0 h 10.304797 v 10.3048 h -10.304797 z m 10.569381,0 h 10.236584 v 10.3048 h -10.236584 z m 10.501168,0 h 10.304797 v 10.3048 h -10.304797 z m 10.56938,0 h 10.281538 v 10.3048 h -10.281538 z m 10.546128,0 h 10.304784 v 10.3048 h -10.304784 z m 10.569374,0 h 10.236053 v 10.3048 h -10.236053 z m -116.079769,10.56938 h 10.30481 v 10.23607 h -10.30481 z m 10.56939,0 h 10.28155 v 10.23607 h -10.28155 z m 10.54613,0 h 10.30481 v 10.23607 h -10.30481 z m 10.56939,0 h 10.25933 v 10.23607 h -10.25933 z m 10.52391,0 h 10.3048 v 10.23607 h -10.3048 z m 10.56939,0 h 10.281545 v 10.23607 h -10.281545 z m 10.546128,0 h 10.304797 v 10.23607 h -10.304797 z m 10.569381,0 h 10.236584 v 10.23607 h -10.236584 z m 10.501168,0 h 10.304797 v 10.23607 h -10.304797 z m 10.56938,0 h 10.281538 v 10.23607 h -10.281538 z m 10.546128,0 h 10.304784 v 10.23607 h -10.304784 z m 10.569374,0 h 10.236053 v 10.23607 h -10.236053 z"
       inkscape:label="course-grid"
       clip-path="url(#clipPath52412)"
       transform="translate(161.44014,62.493702)" />
    <path
       id="rect36837-0"
       style="font-variation-settings:'wght' 400;display:inline;opacity:0.4;mix-blend-mode:normal;fill:url(#radialGradient39723);fill-opacity:1;stroke:none;stroke-width:0.223462;stroke-linecap:round;stroke-linejoin:round;stroke-dasharray:none;stroke-opacity:1;paint-order:stroke fill markers"
       d="M 1.6629468,1.8333333e-6 V 1.6856868 H -3.1666667e-6 v 0.264584 H 1.6629468 V 12.255068 H -3.1666667e-6 v 0.264583 H 1.6629468 V 22.801194 H -3.1666667e-6 v 0.264584 H 1.6629468 V 33.370575 H -3.1666667e-6 v 0.264583 H 1.6629468 V 43.89448 H -3.1666667e-6 v 0.264584 H 1.6629468 V 54.463865 H -3.1666667e-6 v 0.26458 H 1.6629468 v 10.28154 H -3.1666667e-6 v 0.26458 H 1.6629468 v 10.3048 H -3.1666667e-6 v 0.26458 H 1.6629468 v 10.23659 H -3.1666667e-6 v 0.26458 H 1.6629468 v 10.3048 H -3.1666667e-6 v 0.26458 H 1.6629468 V 107.19603 H -3.1666667e-6 v 0.26458 H 1.6629468 v 10.3048 H -3.1666667e-6 v 0.26458 H 1.6629468 v 10.23607 H -3.1666667e-6 v 0.26459 H 1.6629468 v 6.93601 h 0.26458 v -6.93601 H 12.232327 v 6.93601 h 0.26458 v -6.93601 h 10.28155 v 6.93601 h 0.26458 v -6.93601 h 10.3048 v 6.93601 h 0.26458 v -6.93601 h 10.25932 v 6.93601 h 0.26459 v -6.93601 h 10.30479 v 6.93601 h 0.26459 v -6.93601 h 10.281541 v 6.93601 h 0.264583 v -6.93601 h 10.304797 v 6.93601 h 0.264584 v -6.93601 h 10.236584 v 6.93601 h 0.264584 v -6.93601 h 10.304797 v 6.93601 h 0.264583 v -6.93601 h 10.28154 v 6.93601 h 0.26459 v -6.93601 h 10.30479 v 6.93601 h 0.26459 v -6.93601 h 10.23606 v 6.93601 h 0.26459 v -6.93601 h 6.95875 v -0.26459 h -6.95875 v -10.23607 h 6.95875 v -0.26458 h -6.95875 v -10.3048 h 6.95875 v -0.26458 h -6.95875 V 96.914495 h 6.95875 v -0.26458 h -6.95875 v -10.3048 h 6.95875 v -0.26458 h -6.95875 v -10.23659 h 6.95875 v -0.26458 h -6.95875 v -10.3048 h 6.95875 v -0.26458 h -6.95875 v -10.28154 h 6.95875 v -0.26458 h -6.95875 V 44.159064 h 6.95875 V 43.89448 h -6.95875 V 33.635158 h 6.95875 v -0.264583 h -6.95875 V 23.065778 h 6.95875 v -0.264584 h -6.95875 V 12.519651 h 6.95875 v -0.264583 h -6.95875 V 1.9502708 h 6.95875 v -0.264584 h -6.95875 V 1.8333333e-6 h -0.26459 V 1.6856868 H 118.00727 V 1.8333333e-6 h -0.26459 V 1.6856868 H 107.43789 V 1.8333333e-6 H 107.1733 V 1.6856868 H 96.89176 V 1.8333333e-6 H 96.627177 V 1.6856868 H 86.32238 V 1.8333333e-6 H 86.057796 V 1.6856868 H 75.821212 V 1.8333333e-6 H 75.556628 V 1.6856868 H 65.251831 V 1.8333333e-6 H 64.987248 V 1.6856868 H 54.705707 V 1.8333333e-6 h -0.26459 V 1.6856868 H 44.136327 V 1.8333333e-6 h -0.26459 V 1.6856868 H 33.612417 V 1.8333333e-6 h -0.26458 V 1.6856868 h -10.3048 V 1.8333333e-6 h -0.26458 V 1.6856868 H 12.496907 V 1.8333333e-6 h -0.26458 V 1.6856868 H 1.9275268 V 1.8333333e-6 Z M 1.9275268,1.9502708 H 12.232327 V 12.255068 H 1.9275268 Z m 10.5693802,0 h 10.28155 V 12.255068 h -10.28155 z m 10.54613,0 h 10.3048 V 12.255068 h -10.3048 z m 10.56938,0 h 10.25932 V 12.255068 h -10.25932 z m 10.52391,0 h 10.30479 V 12.255068 h -10.30479 z m 10.56938,0 H 64.987248 V 12.255068 H 54.705707 Z m 10.546124,0 H 75.556628 V 12.255068 H 65.251831 Z m 10.569381,0 H 86.057796 V 12.255068 H 75.821212 Z m 10.501168,0 H 96.627177 V 12.255068 H 86.32238 Z m 10.56938,0 H 107.1733 V 12.255068 H 96.89176 Z m 10.54613,0 h 10.30479 V 12.255068 h -10.30479 z m 10.56938,0 h 10.23606 V 12.255068 H 118.00727 Z M 1.9275268,12.519651 H 12.232327 V 22.801194 H 1.9275268 Z m 10.5693802,0 h 10.28155 v 10.281543 h -10.28155 z m 10.54613,0 h 10.3048 v 10.281543 h -10.3048 z m 10.56938,0 h 10.25932 v 10.281543 h -10.25932 z m 10.52391,0 h 10.30479 v 10.281543 h -10.30479 z m 10.56938,0 H 64.987248 V 22.801194 H 54.705707 Z m 10.546124,0 H 75.556628 V 22.801194 H 65.251831 Z m 10.569381,0 H 86.057796 V 22.801194 H 75.821212 Z m 10.501168,0 H 96.627177 V 22.801194 H 86.32238 Z m 10.56938,0 H 107.1733 V 22.801194 H 96.89176 Z m 10.54613,0 h 10.30479 v 10.281543 h -10.30479 z m 10.56938,0 h 10.23606 V 22.801194 H 118.00727 Z M 1.9275268,23.065778 H 12.232327 V 33.370575 H 1.9275268 Z m 10.5693802,0 h 10.28155 v 10.304797 h -10.28155 z m 10.54613,0 h 10.3048 v 10.304797 h -10.3048 z m 10.56938,0 h 10.25932 v 10.304797 h -10.25932 z m 10.52391,0 h 10.30479 v 10.304797 h -10.30479 z m 10.56938,0 H 64.987248 V 33.370575 H 54.705707 Z m 10.546124,0 H 75.556628 V 33.370575 H 65.251831 Z m 10.569381,0 H 86.057796 V 33.370575 H 75.821212 Z m 10.501168,0 H 96.627177 V 33.370575 H 86.32238 Z m 10.56938,0 H 107.1733 V 33.370575 H 96.89176 Z m 10.54613,0 h 10.30479 v 10.304797 h -10.30479 z m 10.56938,0 h 10.23606 V 33.370575 H 118.00727 Z M 1.9275268,33.635158 H 12.232327 V 43.89448 H 1.9275268 Z m 10.5693802,0 h 10.28155 V 43.89448 h -10.28155 z m 10.54613,0 h 10.3048 V 43.89448 h -10.3048 z m 10.56938,0 h 10.25932 V 43.89448 h -10.25932 z m 10.52391,0 h 10.30479 V 43.89448 h -10.30479 z m 10.56938,0 H 64.987248 V 43.89448 H 54.705707 Z m 10.546124,0 H 75.556628 V 43.89448 H 65.251831 Z m 10.569381,0 H 86.057796 V 43.89448 H 75.821212 Z m 10.501168,0 H 96.627177 V 43.89448 H 86.32238 Z m 10.56938,0 H 107.1733 V 43.89448 H 96.89176 Z m 10.54613,0 h 10.30479 V 43.89448 h -10.30479 z m 10.56938,0 h 10.23606 V 43.89448 H 118.00727 Z M 1.9275268,44.159064 H 12.232327 V 54.463865 H 1.9275268 Z m 10.5693802,0 h 10.28155 v 10.304801 h -10.28155 z m 10.54613,0 h 10.3048 v 10.304801 h -10.3048 z m 10.56938,0 h 10.25932 v 10.304801 h -10.25932 z m 10.52391,0 h 10.30479 v 10.304801 h -10.30479 z m 10.56938,0 H 64.987248 V 54.463865 H 54.705707 Z m 10.546124,0 H 75.556628 V 54.463865 H 65.251831 Z m 10.569381,0 H 86.057796 V 54.463865 H 75.821212 Z m 10.501168,0 H 96.627177 V 54.463865 H 86.32238 Z m 10.56938,0 H 107.1733 V 54.463865 H 96.89176 Z m 10.54613,0 h 10.30479 v 10.304801 h -10.30479 z m 10.56938,0 h 10.23606 V 54.463865 H 118.00727 Z M 1.9275268,54.728445 H 12.232327 v 10.28154 H 1.9275268 Z m 10.5693802,0 h 10.28155 v 10.28154 h -10.28155 z m 10.54613,0 h 10.3048 v 10.28154 h -10.3048 z m 10.56938,0 h 10.25932 v 10.28154 h -10.25932 z m 10.52391,0 h 10.30479 v 10.28154 h -10.30479 z m 10.56938,0 h 10.281541 v 10.28154 H 54.705707 Z m 10.546124,0 h 10.304797 v 10.28154 H 65.251831 Z m 10.569381,0 h 10.236584 v 10.28154 H 75.821212 Z m 10.501168,0 h 10.304797 v 10.28154 H 86.32238 Z m 10.56938,0 h 10.28154 v 10.28154 H 96.89176 Z m 10.54613,0 h 10.30479 v 10.28154 h -10.30479 z m 10.56938,0 h 10.23606 v 10.28154 H 118.00727 Z M 1.9275268,65.274565 H 12.232327 v 10.3048 H 1.9275268 Z m 10.5693802,0 h 10.28155 v 10.3048 h -10.28155 z m 10.54613,0 h 10.3048 v 10.3048 h -10.3048 z m 10.56938,0 h 10.25932 v 10.3048 h -10.25932 z m 10.52391,0 h 10.30479 v 10.3048 h -10.30479 z m 10.56938,0 h 10.281541 v 10.3048 H 54.705707 Z m 10.546124,0 h 10.304797 v 10.3048 H 65.251831 Z m 10.569381,0 h 10.236584 v 10.3048 H 75.821212 Z m 10.501168,0 h 10.304797 v 10.3048 H 86.32238 Z m 10.56938,0 h 10.28154 v 10.3048 H 96.89176 Z m 10.54613,0 h 10.30479 v 10.3048 h -10.30479 z m 10.56938,0 h 10.23606 v 10.3048 H 118.00727 Z M 1.9275268,75.843945 H 12.232327 v 10.23659 H 1.9275268 Z m 10.5693802,0 h 10.28155 v 10.23659 h -10.28155 z m 10.54613,0 h 10.3048 v 10.23659 h -10.3048 z m 10.56938,0 h 10.25932 v 10.23659 h -10.25932 z m 10.52391,0 h 10.30479 v 10.23659 h -10.30479 z m 10.56938,0 h 10.281541 v 10.23659 H 54.705707 Z m 10.546124,0 h 10.304797 v 10.23659 H 65.251831 Z m 10.569381,0 h 10.236584 v 10.23659 H 75.821212 Z m 10.501168,0 h 10.304797 v 10.23659 H 86.32238 Z m 10.56938,0 h 10.28154 v 10.23659 H 96.89176 Z m 10.54613,0 h 10.30479 v 10.23659 h -10.30479 z m 10.56938,0 h 10.23606 v 10.23659 H 118.00727 Z M 1.9275268,86.345115 H 12.232327 v 10.3048 H 1.9275268 Z m 10.5693802,0 h 10.28155 v 10.3048 h -10.28155 z m 10.54613,0 h 10.3048 v 10.3048 h -10.3048 z m 10.56938,0 h 10.25932 v 10.3048 h -10.25932 z m 10.52391,0 h 10.30479 v 10.3048 h -10.30479 z m 10.56938,0 h 10.281541 v 10.3048 H 54.705707 Z m 10.546124,0 h 10.304797 v 10.3048 H 65.251831 Z m 10.569381,0 h 10.236584 v 10.3048 H 75.821212 Z m 10.501168,0 h 10.304797 v 10.3048 H 86.32238 Z m 10.56938,0 h 10.28154 v 10.3048 H 96.89176 Z m 10.54613,0 h 10.30479 v 10.3048 h -10.30479 z m 10.56938,0 h 10.23606 v 10.3048 H 118.00727 Z M 1.9275268,96.914495 H 12.232327 V 107.19603 H 1.9275268 Z m 10.5693802,0 h 10.28155 v 10.281535 h -10.28155 z m 10.54613,0 h 10.3048 v 10.281535 h -10.3048 z m 10.56938,0 h 10.25932 v 10.281535 h -10.25932 z m 10.52391,0 h 10.30479 v 10.281535 h -10.30479 z m 10.56938,0 H 64.987248 V 107.19603 H 54.705707 Z m 10.546124,0 H 75.556628 V 107.19603 H 65.251831 Z m 10.569381,0 H 86.057796 V 107.19603 H 75.821212 Z m 10.501168,0 H 96.627177 V 107.19603 H 86.32238 Z m 10.56938,0 H 107.1733 V 107.19603 H 96.89176 Z m 10.54613,0 h 10.30479 v 10.281535 h -10.30479 z m 10.56938,0 h 10.23606 V 107.19603 H 118.00727 Z M 1.9275268,107.46061 H 12.232327 v 10.3048 H 1.9275268 Z m 10.5693802,0 h 10.28155 v 10.3048 h -10.28155 z m 10.54613,0 h 10.3048 v 10.3048 h -10.3048 z m 10.56938,0 h 10.25932 v 10.3048 h -10.25932 z m 10.52391,0 h 10.30479 v 10.3048 h -10.30479 z m 10.56938,0 h 10.281541 v 10.3048 H 54.705707 Z m 10.546124,0 h 10.304797 v 10.3048 H 65.251831 Z m 10.569381,0 h 10.236584 v 10.3048 H 75.821212 Z m 10.501168,0 h 10.304797 v 10.3048 H 86.32238 Z m 10.56938,0 h 10.28154 v 10.3048 H 96.89176 Z m 10.54613,0 h 10.30479 v 10.3048 h -10.30479 z m 10.56938,0 h 10.23606 v 10.3048 H 118.00727 Z M 1.9275268,118.02999 H 12.232327 v 10.23607 H 1.9275268 Z m 10.5693802,0 h 10.28155 v 10.23607 h -10.28155 z m 10.54613,0 h 10.3048 v 10.23607 h -10.3048 z m 10.56938,0 h 10.25932 v 10.23607 h -10.25932 z m 10.52391,0 h 10.30479 v 10.23607 h -10.30479 z m 10.56938,0 h 10.281541 v 10.23607 H 54.705707 Z m 10.546124,0 h 10.304797 v 10.23607 H 65.251831 Z m 10.569381,0 h 10.236584 v 10.23607 H 75.821212 Z m 10.501168,0 h 10.304797 v 10.23607 H 86.32238 Z m 10.56938,0 h 10.28154 v 10.23607 H 96.89176 Z m 10.54613,0 h 10.30479 v 10.23607 h -10.30479 z m 10.56938,0 h 10.23606 v 10.23607 h -10.23606 z"
       inkscape:label="course-grid-globe" />
    <path
       id="rect22750"
       style="font-variation-settings:'wght' 400;display:none;opacity:0.28;mix-blend-mode:overlay;fill:#0000ff;stroke-width:0.661024;stroke-linecap:round;stroke-linejoin:round;paint-order:stroke fill markers"
       d="M 28.415837,0 67.733333,57.468844 107.05083,0 Z M 0,28.415837 V 107.05083 L 57.468844,67.733333 Z m 135.46667,0 -57.468847,39.317496 57.468847,39.317497 z M 67.733333,77.997823 28.415837,135.46667 h 78.634993 z"
       inkscape:label="X" />
    <circle
       style="font-variation-settings:'wght' 400;display:inline;opacity:0.28;mix-blend-mode:overlay;fill:url(#radialGradient21533);fill-opacity:1;stroke:none;stroke-width:0.929097;stroke-linecap:round;stroke-linejoin:round;stroke-opacity:1;paint-order:stroke fill markers"
       id="path19498"
       cx="67.73333"
       cy="67.73333"
       r="67.73333"
       inkscape:label="ring" />
    <path
       id="rect4163-6"
       style="font-variation-settings:'wght' 400;display:inline;opacity:0.4;fill:url(#linearGradient17453);stroke-width:2.4494;stroke-linecap:round;stroke-linejoin:round;paint-order:stroke fill markers"
       d="M 118.69799,5.2934259 C 83.705383,5.2922781 48.711869,5.2843387 13.719841,5.3258053 12.297119,5.4287525 10.980049,5.9057451 9.7516702,6.6778137 8.2696612,7.6187444 6.9191691,9.1283718 6.222501,10.827241 c -0.9003187,2.150566 -0.6434551,4.492462 -0.6870453,6.77508 0.024679,12.229483 0.00191,24.459965 0.010713,36.689856 9.566e-4,21.761738 0.00287,43.523473 0.00383,65.285193 71.1759683,0 79.8656063,-77.804949 124.3539413,-106.67635 0.1266,-0.374975 -0.18406,-0.962498 -0.26155,-1.399334 -1.13585,-3.4754686 -4.51416,-6.1497706 -8.21186,-6.188183 -0.90984,-0.052228 -1.82176,-0.024488 -2.73247,-0.020078 z"
       sodipodi:nodetypes="scccccccccss"
       inkscape:label="glare" />
    <g
       inkscape:groupmode="layer"
       id="layer2"
       inkscape:label="CPU-HB"
       style="display:inline">
      <path
         style="display:inline;mix-blend-mode:normal;fill:none;stroke:url(#linearGradient80979);stroke-width:4;stroke-linecap:round;stroke-linejoin:round;stroke-dasharray:none;stroke-opacity:1;filter:url(#filter83247)"
         d="m 1.0273583,65.040398 13.9636797,-0.03519 9.383406,-31.764535 7.900807,79.436997 6.312787,-47.797585 h 10.811229 l 5.00848,-18.323946 5.27358,34.408236 5.273061,-16.08429 h 13.315469 l 4.356319,-50.000306 6.190321,76.63124 5.273069,-26.630934 h 13.050884 l 5.53765,-26.101765 5.00899,26.101765 h 16.75222"
         id="path28017-2"
         sodipodi:nodetypes="ccccccccccccccccc" />
      <path
         style="display:inline;fill:none;stroke:url(#linearGradient54215);stroke-width:2;stroke-linecap:round;stroke-linejoin:round;stroke-dasharray:none;stroke-opacity:1"
         d="M 1.0374795,65.124827 15.00116,65.089636 24.384566,33.325101 32.285373,112.76211 38.59816,64.964513 h 10.811229 l 5.00848,-18.323946 5.27358,34.408236 5.273061,-16.08429 h 13.315469 l 4.356319,-50.000306 6.190321,76.63124 5.273069,-26.630934 h 13.050882 l 5.53765,-26.101765 5.00899,26.101765 h 16.75222"
         id="path28017"
         sodipodi:nodetypes="ccccccccccccccccc" />
      <path
         style="display:inline;fill:none;stroke:#ffffff;stroke-width:0.4;stroke-linecap:round;stroke-linejoin:round;stroke-dasharray:none;stroke-opacity:1;filter:url(#filter34699)"
         d="M 1.0374795,65.124827 15.00116,65.089636 24.384566,33.325101 32.285373,112.76211 38.59816,64.964513 h 10.811229 l 5.00848,-18.323946 5.27358,34.408236 5.273061,-16.08429 h 13.315469 l 4.356319,-50.000306 6.190321,76.63124 5.273069,-26.630934 h 13.050882 l 5.53765,-26.101765 5.00899,26.101765 h 16.75222"
         id="path34555"
         sodipodi:nodetypes="ccccccccccccccccc" />
    </g>
    <path
       style="color:#000000;display:inline;mix-blend-mode:normal;fill:#000000;stroke-linecap:round;stroke-linejoin:round;paint-order:stroke fill markers;filter:url(#filter13396)"
       d="m -129.05469,-23.017578 c -7.75159,0 -14.05468,6.303097 -14.05468,14.0546874 V 102.39453 c 0,7.75159 6.30309,14.05469 14.05468,14.05469 h 111.357424 c 7.751591,0 14.0546879,-6.3031 14.0546879,-14.05469 V -8.9628906 c 0,-7.7515904 -6.3030969,-14.0546874 -14.0546879,-14.0546874 z m 0,4 h 111.357424 c 5.604782,0 10.0546879,4.449906 10.0546879,10.0546874 V 102.39453 c 0,5.60478 -4.4499059,10.05469 -10.0546879,10.05469 H -129.05469 c -5.60478,0 -10.05468,-4.44991 -10.05468,-10.05469 V -8.9628906 c 0,-5.6047814 4.4499,-10.0546874 10.05468,-10.0546874 z"
       id="path34928"
       clip-path="url(#clipPath13392)"
       transform="translate(141.10895,21.018305)"
       inkscape:label="edge-curve"
       sodipodi:insensitive="true" />
    <path
       style="color:#000000;display:inline;mix-blend-mode:normal;fill:#000000;stroke-linecap:round;stroke-linejoin:round;paint-order:stroke fill markers;filter:url(#filter34933)"
       d="m -129.05469,-23.017578 c -7.75159,0 -14.05468,6.303097 -14.05468,14.0546874 V 102.39453 c 0,7.75159 6.30309,14.05469 14.05468,14.05469 h 111.357424 c 7.751591,0 14.0546879,-6.3031 14.0546879,-14.05469 V -8.9628906 c 0,-7.7515904 -6.3030969,-14.0546874 -14.0546879,-14.0546874 z m 0,4 h 111.357424 c 5.604782,0 10.0546879,4.449906 10.0546879,10.0546874 V 102.39453 c 0,5.60478 -4.4499059,10.05469 -10.0546879,10.05469 H -129.05469 c -5.60478,0 -10.05468,-4.44991 -10.05468,-10.05469 V -8.9628906 c 0,-5.6047814 4.4499,-10.0546874 10.05468,-10.0546874 z"
       id="path9754"
       clip-path="url(#clipPath13392)"
       transform="translate(141.10895,21.018305)"
       inkscape:label="edge-curve"
       sodipodi:insensitive="true" />
    <path
       style="color:#000000;display:inline;mix-blend-mode:normal;fill:#000000;stroke-linecap:round;stroke-linejoin:round;paint-order:stroke fill markers;filter:url(#filter26756)"
       d="m -129.05469,-23.017578 c -7.75159,0 -14.05468,6.303097 -14.05468,14.0546874 V 102.39453 c 0,7.75159 6.30309,14.05469 14.05468,14.05469 h 111.357424 c 7.751591,0 14.0546879,-6.3031 14.0546879,-14.05469 V -8.9628906 c 0,-7.7515904 -6.3030969,-14.0546874 -14.0546879,-14.0546874 z m 0,4 h 111.357424 c 5.604782,0 10.0546879,4.449906 10.0546879,10.0546874 V 102.39453 c 0,5.60478 -4.4499059,10.05469 -10.0546879,10.05469 H -129.05469 c -5.60478,0 -10.05468,-4.44991 -10.05468,-10.05469 V -8.9628906 c 0,-5.6047814 4.4499,-10.0546874 10.05468,-10.0546874 z"
       id="path26751"
       clip-path="url(#clipPath13392)"
       transform="translate(141.10895,21.018305)"
       inkscape:label="edge-curve"
       sodipodi:insensitive="true" />
    <path
       style="color:#000000;display:inline;mix-blend-mode:normal;fill:#000000;stroke-linecap:round;stroke-linejoin:round;paint-order:stroke fill markers;filter:url(#filter14188)"
       d="m -129.05469,-23.017578 c -7.75159,0 -14.05468,6.303097 -14.05468,14.0546874 V 102.39453 c 0,7.75159 6.30309,14.05469 14.05468,14.05469 h 111.357424 c 7.751591,0 14.0546879,-6.3031 14.0546879,-14.05469 V -8.9628906 c 0,-7.7515904 -6.3030969,-14.0546874 -14.0546879,-14.0546874 z m 0,4 h 111.357424 c 5.604782,0 10.0546879,4.449906 10.0546879,10.0546874 V 102.39453 c 0,5.60478 -4.4499059,10.05469 -10.0546879,10.05469 H -129.05469 c -5.60478,0 -10.05468,-4.44991 -10.05468,-10.05469 V -8.9628906 c 0,-5.6047814 4.4499,-10.0546874 10.05468,-10.0546874 z"
       id="path14184"
       clip-path="url(#clipPath13392)"
       transform="translate(141.10895,21.018305)"
       inkscape:label="edge-curve"
       sodipodi:insensitive="true" />
  </g>
</svg>
