<?xml version="1.0" encoding="UTF-8" standalone="no"?>
<!-- Created with Inkscape (http://www.inkscape.org/) -->

<svg
   width="512"
   height="512"
   viewBox="0 0 135.46666 135.46667"
   version="1.1"
   id="svg5"
   inkscape:version="1.4 (e7c3feb100, 2024-10-09)"
   sodipodi:docname="org.xfce.session.svg"
   xmlns:inkscape="http://www.inkscape.org/namespaces/inkscape"
   xmlns:sodipodi="http://sodipodi.sourceforge.net/DTD/sodipodi-0.dtd"
   xmlns:xlink="http://www.w3.org/1999/xlink"
   xmlns="http://www.w3.org/2000/svg"
   xmlns:svg="http://www.w3.org/2000/svg">
  <sodipodi:namedview
     id="namedview7"
     pagecolor="#242424"
     bordercolor="#666666"
     borderopacity="1"
     inkscape:showpageshadow="0"
     inkscape:pageopacity="0"
     inkscape:pagecheckerboard="1"
     inkscape:deskcolor="#000000"
     inkscape:document-units="px"
     showgrid="false"
     inkscape:zoom="1.3037281"
     inkscape:cx="310.6476"
     inkscape:cy="270.37846"
     inkscape:window-width="3256"
     inkscape:window-height="1080"
     inkscape:window-x="1864"
     inkscape:window-y="0"
     inkscape:window-maximized="0"
     inkscape:current-layer="layer3" />
  <defs
     id="defs2">
    <linearGradient
       id="linearGradient1"
       inkscape:collect="always">
      <stop
         style="stop-color:#ffffff;stop-opacity:0.47999999;"
         offset="0"
         id="stop2" />
      <stop
         style="stop-color:#ffffff;stop-opacity:1;"
         offset="1"
         id="stop1" />
    </linearGradient>
    <linearGradient
       id="linearGradient63"
       inkscape:collect="always">
      <stop
         style="stop-color:#6f6f6f;stop-opacity:1;"
         offset="0"
         id="stop64" />
      <stop
         style="stop-color:#5e5e5e;stop-opacity:1;"
         offset="1"
         id="stop63" />
    </linearGradient>
    <linearGradient
       id="linearGradient61"
       inkscape:collect="always">
      <stop
         style="stop-color:#ffffff;stop-opacity:1;"
         offset="0"
         id="stop61" />
      <stop
         style="stop-color:#ffffff;stop-opacity:0;"
         offset="1"
         id="stop62" />
    </linearGradient>
    <linearGradient
       id="linearGradient59"
       inkscape:collect="always">
      <stop
         style="stop-color:#ffffff;stop-opacity:1;"
         offset="0.77000004"
         id="stop58" />
      <stop
         style="stop-color:#666666;stop-opacity:1;"
         offset="1"
         id="stop59" />
    </linearGradient>
    <linearGradient
       id="linearGradient27"
       inkscape:collect="always">
      <stop
         style="stop-color:#ffffff;stop-opacity:1;"
         offset="0"
         id="stop27" />
      <stop
         style="stop-color:#cccccc;stop-opacity:1;"
         offset="1"
         id="stop28" />
    </linearGradient>
    <linearGradient
       id="linearGradient13"
       inkscape:collect="always">
      <stop
         style="stop-color:#333333;stop-opacity:1;"
         offset="0"
         id="stop13" />
      <stop
         style="stop-color:#cccccc;stop-opacity:1;"
         offset="1"
         id="stop14" />
    </linearGradient>
    <linearGradient
       id="linearGradient8"
       inkscape:collect="always">
      <stop
         style="stop-color:#ffffff;stop-opacity:1;"
         offset="0.86999995"
         id="stop8" />
      <stop
         style="stop-color:#474747;stop-opacity:1;"
         offset="1"
         id="stop9" />
    </linearGradient>
    <clipPath
       clipPathUnits="userSpaceOnUse"
       id="clipPath6">
      <path
         style="fill:#b3b3b3;stroke-width:0.999998;stroke-linecap:round;stroke-linejoin:round;stroke-miterlimit:12;paint-order:markers stroke fill"
         d="m -90.355361,6.0794442 c -37.357949,0 -67.732429,30.3744738 -67.732429,67.7324228 0,37.357943 30.37448,67.734373 67.732429,67.734373 37.357947,0 67.734377,-30.37643 67.734377,-67.734373 0,-37.357949 -30.37643,-67.7324228 -67.734377,-67.7324228 z m 0,8.4667968 c 32.782216,0 59.267576,26.48341 59.267576,59.265626 0,32.782213 -26.48536,59.267573 -59.267576,59.267573 -32.782219,0 -59.265629,-26.48536 -59.265629,-59.267573 0,-32.782216 26.48341,-59.265626 59.265629,-59.265626 z"
         id="path6" />
    </clipPath>
    <radialGradient
       inkscape:collect="always"
       xlink:href="#linearGradient59"
       id="radialGradient9"
       cx="-27.65011"
       cy="61.132208"
       fx="-27.65011"
       fy="61.132208"
       r="67.7334"
       gradientUnits="userSpaceOnUse"
       gradientTransform="translate(95.383442,6.6011255)" />
    <linearGradient
       inkscape:collect="always"
       xlink:href="#linearGradient13"
       id="linearGradient14"
       x1="-123.12695"
       y1="153.90625"
       x2="-123.12695"
       y2="26.90625"
       gradientUnits="userSpaceOnUse"
       gradientTransform="translate(190.85834,-22.672799)" />
    <linearGradient
       inkscape:collect="always"
       xlink:href="#linearGradient27"
       id="linearGradient28"
       x1="-96.644547"
       y1="80.955536"
       x2="-96.644547"
       y2="101.63938"
       gradientUnits="userSpaceOnUse"
       gradientTransform="translate(164.37788,1.0583357)" />
    <linearGradient
       inkscape:collect="always"
       xlink:href="#linearGradient27"
       id="linearGradient30"
       x1="-96.308334"
       y1="46.527283"
       x2="-96.308334"
       y2="67.211128"
       gradientUnits="userSpaceOnUse"
       gradientTransform="translate(164.04166,1.0583333)" />
    <clipPath
       clipPathUnits="userSpaceOnUse"
       id="clipPath57">
      <path
         style="display:inline;fill:url(#radialGradient58);stroke:none;stroke-width:0.999998;stroke-linecap:round;stroke-linejoin:round;stroke-miterlimit:12;stroke-opacity:1;paint-order:markers stroke fill"
         d="m -151.82697,-10.332203 c -37.35795,0 -67.73242,30.374475 -67.73242,67.732424 0,37.357944 30.37447,67.734369 67.73242,67.734369 37.35795,0 67.734379,-30.376425 67.734379,-67.734369 0,-37.357949 -30.376429,-67.732424 -67.734379,-67.732424 z m 0,8.466796 c 32.78222,0 59.26758,26.483412 59.26758,59.265628 0,32.782213 -26.48536,59.267569 -59.26758,59.267569 -32.78221,0 -59.26562,-26.485356 -59.26562,-59.267569 0,-32.782216 26.48341,-59.2656279 59.26562,-59.265628 z"
         id="path58" />
    </clipPath>
    <radialGradient
       inkscape:collect="always"
       xlink:href="#linearGradient8"
       id="radialGradient58"
       gradientUnits="userSpaceOnUse"
       gradientTransform="translate(-124.17588,-3.7310099)"
       cx="-27.65011"
       cy="61.132208"
       fx="-27.65011"
       fy="61.132208"
       r="67.7334" />
    <filter
       inkscape:collect="always"
       style="color-interpolation-filters:sRGB"
       id="filter58"
       x="-0.01704375"
       y="-0.017522891"
       width="1.0340875"
       height="1.0350458">
      <feGaussianBlur
         inkscape:collect="always"
         stdDeviation="0.96202499"
         id="feGaussianBlur58" />
    </filter>
    <linearGradient
       inkscape:collect="always"
       xlink:href="#linearGradient61"
       id="linearGradient62"
       x1="67.293312"
       y1="13.731427"
       x2="67.293312"
       y2="98.272781"
       gradientUnits="userSpaceOnUse" />
    <filter
       inkscape:collect="always"
       style="color-interpolation-filters:sRGB"
       id="filter62"
       x="-0.023846918"
       y="-0.043159209"
       width="1.0476938"
       height="1.0863184">
      <feGaussianBlur
         inkscape:collect="always"
         stdDeviation="1.0573553"
         id="feGaussianBlur62" />
    </filter>
    <linearGradient
       inkscape:collect="always"
       xlink:href="#linearGradient63"
       id="linearGradient64"
       x1="67.73333"
       y1="7.96666"
       x2="67.73333"
       y2="127.5"
       gradientUnits="userSpaceOnUse" />
    <filter
       inkscape:collect="always"
       style="color-interpolation-filters:sRGB"
       id="filter64"
       x="-0.094079999"
       y="-0.094079999"
       width="1.18816"
       height="1.18816">
      <feGaussianBlur
         inkscape:collect="always"
         stdDeviation="5.1858335"
         id="feGaussianBlur64" />
    </filter>
    <filter
       inkscape:collect="always"
       style="color-interpolation-filters:sRGB"
       id="filter65"
       x="-0.069120001"
       y="-0.069120001"
       width="1.13824"
       height="1.13824">
      <feGaussianBlur
         inkscape:collect="always"
         stdDeviation="3.9014437"
         id="feGaussianBlur65" />
    </filter>
    <linearGradient
       inkscape:collect="always"
       xlink:href="#linearGradient1"
       id="linearGradient2"
       x1="-151.82599"
       y1="124.43687"
       x2="-151.82599"
       y2="-11.029922"
       gradientUnits="userSpaceOnUse" />
  </defs>
  <g
     inkscape:label="base"
     inkscape:groupmode="layer"
     id="layer1"
     style="display:inline">
    <rect
       style="display:none;opacity:1;fill:#1a1a1a;stroke:none;stroke-width:8.46667;stroke-linecap:round;stroke-linejoin:round;stroke-miterlimit:12;paint-order:markers stroke fill"
       id="rect4"
       width="135.46666"
       height="135.46666"
       x="0"
       y="0"
       ry="6.0566597" />
    <rect
       style="display:none;opacity:1;mix-blend-mode:normal;fill:#0f0f0f;fill-opacity:1;stroke:none;stroke-width:9.62122;stroke-linecap:round;stroke-linejoin:round;stroke-miterlimit:12;paint-order:markers stroke fill;filter:url(#filter64)"
       id="rect64"
       width="132.29167"
       height="132.29167"
       x="1.5874966"
       y="1.5874966"
       ry="4.7800312"
       transform="matrix(0.87999996,0,0,0.87999996,8.1280026,8.1280026)" />
    <path
       style="display:none;fill:#000000;stroke:none;stroke-linecap:round;stroke-linejoin:round;stroke-miterlimit:12;stroke-opacity:1;paint-order:markers stroke fill;filter:url(#filter65)"
       d="m 67.732351,-6.39e-5 c -37.357945,0 -67.732415,30.3744749 -67.732415,67.7324229 0,37.357941 30.37447,67.734371 67.732415,67.734371 37.357949,0 67.734379,-30.37643 67.734379,-67.734371 0,-37.357948 -30.37643,-67.7324229 -67.734379,-67.7324229 z m 0,8.4667958 c 32.782219,0 59.267579,26.4834121 59.267579,59.2656271 0,32.782211 -26.48536,59.267571 -59.267579,59.267571 -32.782205,0 -59.265615,-26.48536 -59.265615,-59.267571 0,-32.782215 26.48341,-59.2656271 59.265615,-59.2656271 z"
       id="path65"
       inkscape:label="shad" />
    <path
       style="display:inline;fill:url(#radialGradient9);stroke:none;stroke-linecap:round;stroke-linejoin:round;stroke-miterlimit:12;stroke-opacity:1;paint-order:markers stroke fill"
       d="m 67.732352,-6.755e-5 c -37.35795,0 -67.7324195,30.37447455 -67.7324195,67.73242255 0,37.357945 30.3744695,67.734375 67.7324195,67.734375 37.357948,0 67.734378,-30.37643 67.734378,-67.734375 0,-37.357948 -30.37643,-67.73242255 -67.734378,-67.73242255 z m 0,8.46679605 c 32.782218,0 59.267578,26.4834115 59.267578,59.2656265 0,32.782215 -26.48536,59.267575 -59.267578,59.267575 -32.78221,0 -59.2656195,-26.48536 -59.2656195,-59.267575 0,-32.782215 26.4834095,-59.2656265 59.2656195,-59.2656265 z"
       id="path7" />
    <path
       id="path64"
       style="display:inline;opacity:0.22;mix-blend-mode:normal;fill:#000000;fill-opacity:1;stroke:none;stroke-linecap:round;stroke-linejoin:round;stroke-miterlimit:12;stroke-opacity:1;paint-order:markers stroke fill;filter:url(#filter58)"
       d="m -151.82698,121.4303 c -32.78221,0 -59.26563,-26.483423 -59.26563,-59.26564 0,-0.798753 0.0288,-1.590266 0.0599,-2.38125 1.24742,31.672307 27.22223,56.88439 59.20569,56.88439 31.98346,0 57.960241,-25.212083 59.207751,-56.88439 0.0312,0.790984 0.06,1.582497 0.06,2.38125 0,32.782217 -26.485481,59.26564 -59.267701,59.26564 z m -67.67184,-61.64689 c -0.0275,-0.792015 -0.0605,-1.582624 -0.0605,-2.38125 0,-37.357944 30.37435,-67.734363 67.7323,-67.734363 37.35795,0 67.734361,30.376419 67.734361,67.734363 0,0.798626 -0.0329,1.589236 -0.0605,2.38125 -1.26052,-36.256714 -31.114581,-65.3531133 -67.673901,-65.3531133 -36.55933,0 -66.41139,29.0963993 -67.67184,65.3531143 z"
       clip-path="url(#clipPath57)"
       transform="rotate(180,-42.046329,62.567231)"
       inkscape:label="ll" />
    <path
       id="path55"
       style="display:inline;opacity:0.6;mix-blend-mode:normal;fill:url(#linearGradient2);fill-opacity:1;stroke:none;stroke-linecap:round;stroke-linejoin:round;stroke-miterlimit:12;stroke-opacity:1;paint-order:markers stroke fill;filter:url(#filter58)"
       d="m -151.82698,121.4303 c -32.78221,0 -59.26563,-26.483423 -59.26563,-59.26564 0,-0.798753 0.0288,-1.590266 0.0599,-2.38125 1.24742,31.672307 27.22223,56.88439 59.20569,56.88439 31.98346,0 57.960241,-25.212083 59.207751,-56.88439 0.0312,0.790984 0.06,1.582497 0.06,2.38125 0,32.782217 -26.485481,59.26564 -59.267701,59.26564 z m -67.67184,-61.64689 c -0.0275,-0.792015 -0.0605,-1.582624 -0.0605,-2.38125 0,-37.357944 30.37435,-67.734363 67.7323,-67.734363 37.35795,0 67.734361,30.376419 67.734361,67.734363 0,0.798626 -0.0329,1.589236 -0.0605,2.38125 -1.26052,-36.256714 -31.114581,-65.3531133 -67.673901,-65.3531133 -36.55933,0 -66.41139,29.0963993 -67.67184,65.3531143 z"
       clip-path="url(#clipPath57)"
       transform="translate(219.55932,10.332203)"
       inkscape:label="hl" />
    <path
       sodipodi:type="spiral"
       style="display:inline;opacity:0.14;fill:none;fill-rule:evenodd;stroke:#000000;stroke-width:0.264583"
       id="path5"
       sodipodi:cx="-90.119705"
       sodipodi:cy="74.047523"
       sodipodi:expansion="1"
       sodipodi:revolution="80"
       sodipodi:radius="75.165291"
       sodipodi:argument="-251.58922"
       sodipodi:t0="0"
       d="m -90.119705,74.047523 c 0.136509,-0.03658 0.116656,0.165966 0.0608,0.226888 -0.151378,0.165095 -0.411513,0.0555 -0.514571,-0.105296 -0.184347,-0.287622 -0.0114,-0.658285 0.271387,-0.802254 0.414997,-0.21128 0.90909,0.03212 1.089937,0.437479 0.241041,0.540284 -0.07527,1.161416 -0.60357,1.377621 -0.664817,0.272071 -1.414489,-0.118205 -1.665304,-0.769662 -0.30377,-0.789003 0.161016,-1.667987 0.935754,-1.952987 0.913001,-0.335863 1.92175,0.203746 2.24067,1.101845 0.368205,1.036889 -0.246424,2.175691 -1.267936,2.528353 -1.160707,0.400717 -2.429757,-0.289065 -2.816037,-1.434028 -0.433348,-1.284475 0.331678,-2.683913 1.600119,-3.10372 1.40821,-0.466066 2.938137,0.374272 3.391404,1.766211 0.498849,1.531919 -0.416851,3.192413 -1.932303,3.679087 -1.655609,0.531684 -3.44673,-0.459417 -3.96677,-2.098394 -0.564558,-1.779285 0.501974,-3.701081 2.264486,-4.254454 1.902949,-0.597465 3.955458,0.544524 4.542136,2.430578 0.630398,2.026603 -0.587067,4.209857 -2.596668,4.829819 -2.150251,0.663353 -4.464276,-0.629605 -5.117504,-2.76276 -0.696324,-2.273891 0.672139,-4.718709 2.928852,-5.405186 2.397527,-0.729312 4.973156,0.714669 5.69287,3.094943 0.762312,2.521158 -0.757196,5.227613 -3.261035,5.980553 -2.644785,0.795324 -5.482081,-0.79972 -6.268236,-3.427126 -0.828345,-2.768409 0.842242,-5.736557 3.593218,-6.55592 2.89203,-0.861374 5.991041,0.884763 6.843603,3.75931 0.894411,3.015649 -0.927281,6.245531 -3.925401,7.131286 -3.139266,0.927454 -6.500027,-0.969798 -7.41897,-4.091493 -0.960503,-3.26288 1.012313,-6.754528 4.257584,-7.706652 3.386494,-0.993558 7.009034,1.054826 7.994336,4.423675 1.026616,3.510105 -1.09734,7.263544 -4.589767,8.282019 -3.633715,1.059679 -7.518057,-1.139851 -8.569702,-4.755858 -1.092745,-3.757325 1.182362,-7.772575 4.92195,-8.857386 3.880932,-1.125814 8.027094,1.224873 9.145069,5.088042 1.158886,4.004539 -1.267383,8.281617 -5.254134,9.432752 -4.128145,1.191962 -8.536142,-1.309892 -9.720435,-5.420225 -1.225039,-4.251751 1.3524,-8.79067 5.586316,-10.008119 4.375356,-1.258119 9.0452,1.394908 10.295802,5.752408 1.291202,4.49896 -1.437415,9.299732 -5.918499,10.583486 -4.622563,1.324285 -9.554265,-1.479922 -10.871169,-6.084591 -1.357373,-4.746166 1.522429,-9.8088 6.250683,-11.158852 4.869768,-1.390458 10.063337,1.564934 11.446535,6.416774 1.423547,4.99337 -1.60744,10.317874 -6.582866,11.734218 -5.116971,1.456637 -10.572414,-1.649945 -12.021901,-6.748957 -1.489724,-5.240572 1.69245,-10.826955 6.915048,-12.309585 5.364173,-1.522821 11.081497,1.734955 12.597269,7.08114 1.555915,5.487773 -1.777459,11.33604 -7.247232,12.884952 -5.611373,1.58901 -11.590583,-1.819963 -13.172639,-7.413324 -1.6221,-5.734972 1.862471,-11.845127 7.579419,-13.460318 5.858572,-1.655202 12.099674,1.904971 13.748001,7.745507 1.688301,5.982171 -1.947474,12.35422 -7.911598,14.035684 -6.105769,1.721399 -12.608767,-1.989977 -14.323372,-8.077689 -1.75449,-6.229368 2.032485,-12.863315 8.243785,-14.611051 6.352967,-1.787598 13.117864,2.074983 14.898735,8.409872 1.820698,6.476565 -2.117486,13.372413 -8.575964,15.186418 -6.600163,1.8538 -13.626966,-2.159989 -15.474106,-8.742056 -1.8869,-6.72376 2.2025,-13.881513 8.908152,-15.761784 6.847358,-1.920004 14.136065,2.244994 16.049468,9.074239 1.953106,6.970955 -2.287496,14.390616 -9.240331,16.337151 -7.094552,1.98621 -14.645169,-2.329998 -16.624829,-9.406422 -2.01932,-7.21815 2.37249,-14.899721 9.572509,-16.912517 7.341746,-2.052419 15.154273,2.415001 17.2002,9.738604 2.085524,7.465344 -2.457503,15.408827 -9.904696,17.487884 -7.58894,2.118629 -15.663383,-2.500004 -17.775563,-10.070788 -2.15174,-7.712536 2.5425,-15.917935 10.236875,-18.06325 7.836133,-2.184841 16.172489,2.585007 18.350934,10.402971 2.217947,7.959729 -2.627509,16.427044 -10.569063,18.638617 -8.083325,2.251053 -16.681596,-2.67001 -18.926296,-10.735154 -2.28416,-8.206922 2.71251,-16.936155 10.901242,-19.213984 8.330517,-2.317268 17.19071,2.755013 19.501666,11.067337 2.350376,8.454114 -2.797513,17.445267 -11.233428,19.789351 -8.57771,2.383483 -17.69982,-2.840015 -20.07703,-11.399521 -2.4166,-8.701305 2.88251,-17.95438 11.565608,-20.364716 8.824901,-2.4497 18.208937,2.925016 20.6524,11.731703 2.482809,8.948496 -2.967517,18.463494 -11.897795,20.940083 -9.072092,2.515918 -18.718053,-3.010017 -21.227763,-12.063886 -2.54903,-9.195688 3.05251,-18.972609 12.229975,-21.51545 9.319282,-2.582136 19.227166,3.095019 21.803133,12.396069 2.615246,9.442878 -3.137519,19.481725 -12.562161,22.090817 -9.566474,2.648356 -19.736287,-3.18002 -22.378497,-12.728253 -2.68147,-9.690068 3.22252,-19.990841 12.894341,-22.666183 9.813664,-2.714576 20.2454,3.265021 22.953866,13.060436 2.747687,9.937259 -3.30752,20.499959 -13.226527,23.241549 -10.060854,2.780797 -20.75452,-3.350021 -23.52923,-13.392618 -2.81391,-10.184449 3.39252,-21.009077 13.558708,-23.816916 10.308043,-2.847019 21.263636,3.435021 24.104599,13.724801 2.88013,10.431639 -3.477522,21.518196 -13.890893,24.392283 -10.555234,2.913241 -21.772754,-3.520022 -24.679964,-14.056985 -2.94635,-10.678828 3.56252,-22.027314 14.223074,-24.967649 10.802423,-2.979464 22.281875,3.605022 25.255333,14.389168 3.012575,10.926018 -3.647522,22.536434 -14.55526,25.543016 -11.049612,3.045687 -22.790997,-3.690022 -25.830697,-14.721351 -3.0788,-11.173207 3.73252,-23.045555 14.887441,-26.118382 11.296801,-3.111911 23.300115,3.775021 26.406065,15.053534 3.145023,11.420396 -3.817522,23.554675 -15.219625,26.693748 -11.543991,3.178136 -23.809241,-3.860021 -26.981431,-15.385717 -3.21125,-11.667585 3.90252,-24.063797 15.551807,-27.269115 11.79118,-3.24436 24.318358,3.945021 27.556799,15.7179 3.277473,11.914774 -3.987521,24.572919 -15.883992,27.844482 -12.038368,3.310585 -24.827484,-4.030021 -28.132164,-16.050083 -3.3437,-12.161963 4.07252,-25.082041 16.216174,-28.419849 12.285557,-3.376811 25.336602,4.115021 28.707531,16.382267 3.409924,12.409151 -4.15752,25.591163 -16.548357,28.995214 -12.532746,3.443039 -25.845728,-4.200019 -29.282898,-16.714449 -3.47615,-12.65634 4.24252,-26.100286 16.88054,-29.570581 12.779934,-3.509264 26.354848,4.285019 29.858265,17.046632 3.542377,12.903528 -4.327519,26.609409 -17.212724,30.145948 -13.027122,3.575489 -26.863971,-4.370018 -30.433631,-17.378815 -3.6086,-13.150717 4.41252,-27.118533 17.544907,-30.721315 13.27431,-3.641717 27.373094,4.455017 31.008998,17.710999 3.67483,13.397904 -4.497517,27.627656 -17.87709,31.296681 -13.521499,3.707949 -27.882215,-4.540017 -31.584365,-18.043182 -3.74106,-13.645093 4.58252,-28.13678 18.209273,-31.872048 13.768687,-3.774171 28.391343,4.625016 32.159731,18.375365 3.807286,13.892281 -4.667515,28.645905 -18.541456,32.447414 -14.015875,3.8404 -28.900468,-4.710014 -32.735098,-18.707547 -3.87351,-14.139469 4.75251,-29.15503 18.87364,-33.022781 14.263063,-3.906628 29.409592,4.795013 33.310464,19.039731 3.939742,14.386657 -4.837513,29.664154 -19.205822,33.598147 -14.510251,3.97286 -29.918722,-4.880012 -33.885832,-19.371914 -4.00597,-14.633845 4.92251,-30.173279 19.538006,-34.173514 14.757439,-4.039084 30.427842,4.965011 34.461198,19.704097 4.072198,14.881033 -5.007511,30.682405 -19.870189,34.748881 -15.004626,4.10531 -30.936965,-5.05001 -35.036565,-20.03628 -4.13843,-15.128221 5.09251,-31.19153 20.202373,-35.324247 15.251814,-4.171543 31.446093,5.135008 35.61193,20.368463 4.204657,15.375408 -5.177508,31.700655 -20.534555,35.899614 -15.499001,4.23777 -31.955218,-5.220008 -36.187298,-20.700647 -4.27088,-15.622595 5.26251,-32.209782 20.866739,-36.47498 15.74619,-4.304001 32.464345,5.305005 36.762664,21.032829 4.337115,15.869783 -5.347505,32.718908 -21.198921,37.050348 -15.993377,4.37023 -32.973472,-5.390005 -37.338032,-21.365013 -4.40334,-16.116971 5.43251,-33.228034 21.531106,-37.625714 16.240564,-4.43646 33.482597,5.475003 37.913396,21.697196 4.469575,16.364158 -5.517501,33.73716 -21.863287,38.201081 -16.487751,4.50269 -33.991725,-5.560003 -38.488765,-22.02938 -4.5358,-16.611345 5.6025,-34.246287 22.195472,-38.776446 16.734939,-4.56892 34.50085,5.644999 39.06413,22.361561 4.602035,16.858533 -5.687499,34.755415 -22.527653,39.351815 -16.982126,4.63515 -35.009979,-5.73 -39.639499,-22.693747 -4.66826,-17.105719 5.7725,-35.26454 22.859839,-39.927179 17.229314,-4.70138 35.519104,5.814996 40.214863,23.025928 4.734495,17.352907 -5.857496,35.773668 -23.19202,40.502548 -17.4765,4.76761 -36.028232,-5.9 -40.790232,-23.358113 -4.80072,-17.600094 5.9425,-36.282794 23.524205,-41.077913 17.723689,-4.83384 36.537358,5.984993 41.365596,23.690294 4.866956,17.847282 -6.027492,36.791922 -23.856385,41.653282 -17.970875,4.90007 -37.046486,-6.06999 -41.940966,-24.02248 -4.93318,-18.094468 6.11249,-37.301048 24.188572,-42.228645 18.218062,-4.966302 37.555612,6.154989 42.516329,24.35466 4.999418,18.341656 -6.197489,37.810175 -24.520752,42.804015 -18.465249,5.03253 -38.064739,-6.23999 -43.091699,-24.686846 -5.06564,-18.588843 6.28249,-38.319304 24.852939,-43.379379 18.712436,-5.098764 38.573867,6.324986 43.667061,25.019026 5.13188,18.83603 -6.367484,38.828429 -25.185117,43.954749 -18.959624,5.16499 -39.082993,-6.40999 -44.242433,-25.351213 -5.19811,-19.083217 6.45249,-39.337559 25.517305,-44.530111 19.206811,-5.231227 39.592123,6.494982 44.817795,25.683392 5.264342,19.330404 -6.537481,39.846682 -25.849484,45.105482 -19.453996,5.29745 -40.101246,-6.57998 -45.393166,-26.015579 -5.33057,-19.577591 6.62248,-40.355815 26.181672,-45.680845 19.701184,-5.363689 40.610378,6.664978 45.968528,26.347758 5.396804,19.824778 -6.707477,40.864946 -26.51385,46.256216 -19.94837,5.42992 -41.11951,-6.74998 -46.54389,-26.679946 -5.46304,-20.071964 6.79247,-41.374071 26.84603,-46.831578 20.195556,-5.496152 41.628633,6.834975 47.119259,27.012125 5.529268,20.319152 -6.877473,41.883199 -27.178216,47.406949 -20.442743,5.56238 -42.137763,-6.91998 -47.694623,-27.344312 -5.5955,-20.566339 6.96247,-42.392328 27.51039,-47.982311 20.689937,-5.628616 42.646896,7.00497 48.269999,27.67649 5.661731,20.813526 -7.047469,42.901453 -27.842582,48.557683 -20.937117,5.69484 -43.156017,-7.08997 -48.845357,-28.008679 -5.72797,-21.060712 7.13246,-43.410584 28.17476,-49.133044 21.184307,-5.761079 43.66515,7.174966 49.420729,28.340857 5.794195,21.307899 -7.217466,43.919716 -28.506949,49.708406 -21.43149,5.82732 -44.17428,-7.25996 -49.99609,-28.673035 -5.86043,-21.555086 7.30246,-44.428841 28.83913,-50.283778 21.678677,-5.893542 44.683403,7.344963 50.571458,29.005224 5.926659,21.802272 -7.387461,44.937969 -29.171314,50.859139 -21.925864,5.95978 -45.192534,-7.42996 -51.146824,-29.337402 -5.99289,-22.049459 7.47246,-45.447098 29.50349,-51.43451 22.173057,-6.026007 45.701667,7.514958 51.722198,29.669589 6.059123,22.296646 -7.557457,45.956223 -29.835681,52.009873 -22.420237,6.09224 -46.210787,-7.59995 -52.297557,-30.001768 -6.12536,-22.543833 7.64245,-46.465356 30.16786,-52.585244 22.667427,-6.158471 46.719921,7.684954 52.872927,30.333956 6.191588,22.791019 -7.727452,46.974486 -30.500046,53.160606 -22.914611,6.22471 -47.229051,-7.76995 -53.448291,-30.666135 -6.25782,-23.038206 7.81245,-47.483614 30.83223,-53.735976 23.161797,-6.290937 47.738176,7.854949 54.023657,30.998321 6.324053,23.285393 -7.897448,47.99274 -31.164413,54.31134 -23.408984,6.35717 -48.247304,-7.93994 -54.599024,-31.330501 -6.39029,-23.53258 7.98244,-48.501872 31.49659,-54.88671 23.656176,-6.423401 48.75644,8.024945 55.174397,31.662688 6.456517,23.779765 -8.067444,49.011003 -31.828779,55.462073 -23.903358,6.48964 -49.265568,-8.10994 -55.749758,-31.994868 -6.52275,-24.026952 8.15244,-49.52013 32.16096,-56.037443 24.150546,-6.555866 49.774695,8.194941 56.325126,32.327054 6.588983,24.274139 -8.237439,50.029257 -32.493145,56.612807 -24.397731,6.6221 -50.283821,-8.27994 -56.900491,-32.659234 -6.65522,-24.521326 8.32244,-50.538389 32.82533,-57.188176 24.644916,-6.688332 50.79295,8.364936 57.475856,32.99142 6.721448,24.768512 -8.407435,51.04752 -33.157511,57.76354 -24.892105,6.75457 -51.302085,-8.44993 -58.051225,-33.323601 -6.78768,-25.015699 8.49243,-51.556647 33.48969,-58.338909 25.139295,-6.820797 51.811216,8.534932 58.626596,33.655786 6.853913,25.262885 -8.577431,52.065774 -33.821878,58.914274 -25.386478,6.88703 -52.320338,-8.61993 -59.201958,-33.987967 -6.92015,-25.510072 8.66243,-52.574907 34.15406,-59.489643 25.633665,-6.953262 52.829471,8.704927 59.777325,34.320153 6.986379,25.757258 -8.747426,53.084037 -34.486244,60.065007 -25.880851,7.0195 -53.338601,-8.78992 -60.352691,-34.652334 -7.05261,-26.004445 8.83242,-53.593165 34.81843,-60.640375 26.128034,-7.085729 53.847726,8.874922 60.928055,34.984518 7.118845,26.251631 -8.917421,54.102291 -35.15061,61.215741 -26.375225,7.15196 -54.356855,-8.95992 -61.503425,-35.3167 -7.18508,-26.498818 9.00242,-54.611425 35.48279,-61.791109 26.622414,-7.218194 54.865992,9.044918 62.078794,35.648885 7.251312,26.746004 -9.087416,55.120554 -35.814976,62.366474 -26.869598,7.28443 -55.375118,-9.12991 -62.654158,-35.981067 -7.31754,-26.99319 9.17241,-55.629684 36.14716,-62.941841 27.116783,-7.350661 55.884248,9.214913 63.229524,36.31325 7.383777,27.240377 -9.257412,56.138818 -36.479342,63.517208 -27.363972,7.41689 -56.393382,-9.29991 -63.804892,-36.645434 -7.45001,-27.487563 9.34241,-56.647943 36.81153,-64.092574 27.611152,-7.483127 56.902504,9.384908 64.380254,36.977617 7.516243,27.73475 -9.427408,57.157071 -37.143709,64.667941 -27.858345,7.54936 -57.411635,-9.46991 -64.955625,-37.3098 -7.58248,-27.981936 9.51241,-57.666203 37.47589,-65.243308 28.105532,-7.615593 57.92077,9.554904 65.530993,37.641983 7.64871,28.229123 -9.597402,58.175335 -37.808074,65.818675 -28.352719,7.68183 -58.429899,-9.6399 -66.106359,-37.974167 -7.71494,-28.476308 9.6824,-58.684462 38.14026,-66.39404 28.599901,-7.74806 58.939026,9.724899 66.681723,38.306349 7.781176,28.723495 -9.767398,59.193588 -38.472441,66.969408 -28.847092,7.81429 -59.448152,-9.8099 -67.257092,-38.638533 -7.84741,-28.970682 9.8524,-59.702722 38.80463,-67.544774 29.09427,-7.880526 59.957283,9.894894 67.832453,38.970715 7.913643,29.217868 -9.937393,60.211852 -39.136807,68.120142 -29.341466,7.94676 -60.466416,-9.97989 -68.407826,-39.3029 -7.97987,-29.465054 10.02239,-60.720982 39.46899,-68.695507 29.58865,-8.012993 60.975549,10.06489 68.983192,39.635082 8.04611,29.712241 -10.107388,61.230115 -39.801173,69.270875 -29.835829,8.07922 -61.484679,-10.14989 -69.558559,-39.967266 -8.11234,-29.959427 10.19239,-61.739242 40.13336,-69.84624 30.083019,-8.14546 61.993806,10.234884 70.133922,40.299447 8.178577,30.206614 -10.277383,62.248369 -40.465539,70.421609 -30.330203,8.21169 -62.502933,-10.31988 -70.709293,-40.631633 -8.24481,-30.453799 10.36238,-62.757502 40.79773,-70.996973 30.577388,-8.2779267 63.012062,10.40488 71.284651,40.963814 8.311044,30.700986 -10.447378,63.266632 -41.129905,71.572342 -30.824576,8.34416 -63.521196,-10.48988 -71.860026,-41.295999 -8.37727,-30.948172 10.53238,-63.775763 41.46209,-72.147706 31.071767,-8.4103944 64.030329,10.574874 72.435391,41.628179 8.443511,31.195359 -10.617373,64.284896 -41.794271,72.723076 -31.31895,8.47662 -64.53946,-10.65988 -73.01076,-41.960366 -8.50974,-31.442545 10.70237,-64.794023 42.12646,-73.298439 31.566136,-8.5428612 65.048586,10.74487 73.586121,42.292546 8.575978,31.689731 -10.787369,65.303149 -42.458638,73.873809 -31.813323,8.60909 -65.557723,-10.82987 -74.161493,-42.624732 -8.64221,-31.936918 10.87237,-65.812284 42.79082,-74.449173 32.060515,-8.675328 66.066853,10.914865 74.73686,42.956912 8.708446,32.184104 -10.957363,66.321413 -43.123003,75.024543 -32.307697,8.74156 -66.575977,-10.99987 -75.312227,-43.289099 -8.77467,-32.43129 11.04237,-66.830544 43.45519,-75.599905 32.554884,-8.8077959 67.08511,11.08486 75.88759,43.621278 8.840912,32.678476 -11.127359,67.339676 -43.78737,76.175276 -32.80207,8.87403 -67.59424,-11.16986 -76.46296,-43.953465 -8.90714,-32.925663 11.21236,-67.848805 44.11956,-76.750639 33.049253,-8.9402629 68.103367,11.254855 77.03832,44.285645 8.973379,33.172848 -11.297354,68.357939 -44.451736,77.326009 -33.296444,9.00649 -68.612504,-11.33986 -77.613684,-44.617832 -9.03962,-33.420035 11.38235,-68.867065 44.78391,-77.901372 33.543632,-9.07273 69.121634,11.42485 78.189059,44.950011 9.105848,33.667221 -11.467349,69.376193 -45.116102,78.476743 -33.790817,9.13896 -69.630757,-11.50985 -78.764417,-45.282198 -9.17209,-33.914408 11.55234,-69.885326 45.44828,-79.052105 34.038001,-9.2051981 70.139892,11.594845 79.339789,45.614377 9.238315,34.161593 -11.637344,70.394456 -45.780468,79.627466 -34.285191,9.27144 -70.649021,-11.67984 -79.915151,-45.946555 -9.30455,-34.40878 11.72234,-70.903586 46.11265,-80.202838 34.53237,-9.3376654 71.158149,11.76484 80.490518,46.278743 9.370783,34.655966 -11.807338,71.41272 -46.444834,80.7782 -34.779564,9.4039 -71.667284,-11.84983 -81.065884,-46.610921 -9.43702,-34.903153 11.89233,-71.921848 46.77701,-81.3535714 35.026749,-9.47013324 72.176416,11.9348354 81.641258,46.9431094 9.50325,35.150338 -11.977334,72.430973 -47.1092,81.928933 -35.273928,9.53637 -72.685548,-12.01983 -82.216618,-47.275288 -9.56949,-35.397525 12.06233,-72.940108 47.44138,-82.504304 35.521118,-9.60260099 73.194674,12.10483 82.791988,47.607475 9.635718,35.644711 -12.147329,73.449237 -47.773567,83.079667 -35.768301,9.66884 -73.703801,-12.18982 -83.367351,-47.939654 -9.70195,-35.891897 12.23232,-73.95837 48.10575,-83.6550376 36.015487,-9.7350688 74.212931,12.2748246 83.942717,48.2718416 9.768186,36.139083 -12.317323,74.4675 -48.437933,84.2304 -36.262674,9.80131 -74.722064,-12.35982 -84.518084,-48.604021 -9.83442,-36.386269 12.40232,-74.97663 48.77011,-84.8057702 36.509866,-9.8675367 75.231199,12.4448192 85.093457,48.9362072 9.900654,36.633456 -12.487318,75.485764 -49.102299,85.381134 -36.757048,9.93377 -75.740328,-12.52981 -85.668818,-49.268387 -9.96689,-36.880642 12.57231,-75.994892 49.43448,-85.9565039 37.004235,-10.0000045 76.249457,12.6148149 86.244187,49.6005739 10.033121,37.127828 -12.657314,76.504017 -49.766666,86.531867 -37.251421,10.06624 -76.758591,-12.69981 -86.819551,-49.932754 -10.09936,-37.375014 12.74231,-77.013153 50.09885,-87.1072365 37.498604,-10.1324725 77.267714,12.7848095 87.394916,50.2649395 10.16559,37.622201 -12.827308,77.522281 -50.431031,87.682601 -37.745795,10.19871 -77.776845,-12.8698 -87.970285,-50.597121 -10.23182,-37.869386 12.9123,-78.031413 50.76321,-88.2579691 37.992982,-10.2649405 78.285982,12.9548041 88.545656,50.9293061 10.2980573,38.116572 -12.997303,78.540544 -51.095398,88.833334 -38.240168,10.33118 -78.795108,-13.0398 -89.121018,-51.261487 -10.36429,-38.363759 13.0823,-79.049675 51.42758,-89.4087027 38.487351,-10.3974086 79.30424,13.1247987 89.696385,51.5936717 10.430526,38.610945 -13.167298,79.558808 -51.759763,89.984068 -38.734542,10.46364 -79.813372,-13.2098 -90.271752,-51.925854 -10.49676,-38.858131 13.25229,-80.067936 52.09195,-90.5594354 38.98172,-10.5298766 80.322498,13.2947944 90.847115,52.2580384 10.5629937,39.105317 -13.337293,80.577071 -52.42413,91.134801 -39.228905,10.59611 -80.831635,-13.37979 -91.422485,-52.59022 -10.62923,-39.352503 13.42229,-81.086198 52.75631,-91.710169 39.476099,-10.6623448 81.340766,13.464789 91.997855,52.922404"
       clip-path="url(#clipPath6)"
       transform="translate(158.08779,-6.079442)" />
  </g>
  <g
     inkscape:groupmode="layer"
     id="layer3"
     inkscape:label="button"
     style="display:inline">
    <path
       id="path10"
       style="display:inline;fill:#cc0000;fill-opacity:1;stroke-linecap:round;stroke-linejoin:round;stroke-miterlimit:12;paint-order:markers stroke fill;stroke:url(#linearGradient64);stroke-opacity:1;stroke-width:1.58749998;stroke-dasharray:none"
       d="m 67.7323,8.4666705 c -32.78221,0 -59.2656394,26.4834175 -59.2656394,59.2656325 0,32.782207 26.4834294,59.267687 59.2656394,59.267687 C 100.51452,126.99999 127,100.51451 127,67.732303 127,34.950088 100.51452,8.4666705 67.7323,8.4666705 Z" />
    <path
       id="path12"
       style="display:inline;mix-blend-mode:hard-light;fill:url(#linearGradient14);stroke-linecap:round;stroke-linejoin:round;stroke-miterlimit:12;paint-order:markers stroke fill"
       d="m 67.732081,8.4667969 c -32.78221,0 -59.2656302,26.4834161 -59.2656302,59.2656321 0,32.782211 26.4834202,59.267691 59.2656302,59.267691 32.782219,0 59.267699,-26.48548 59.267699,-59.267691 0,-32.782216 -26.48548,-59.2656321 -59.267699,-59.2656321 z m -5.17e-4,4.2333331 c 30.502254,0 55.034886,24.531254 55.034886,55.033333 0,30.502071 -24.53281,55.033327 -55.034886,55.033327 -30.502083,0 -55.031263,-24.531076 -55.031263,-55.033327 0,-30.502256 24.52901,-55.033333 55.031263,-55.033333 z" />
    <path
       id="path60"
       style="display:inline;fill:url(#linearGradient62);fill-opacity:1;stroke-width:0.999997;stroke-linecap:round;stroke-linejoin:round;stroke-miterlimit:12;paint-order:markers stroke fill;filter:url(#filter62);opacity:0.26"
       d="m 67.762044,13.731427 c -29.690387,0 -53.675875,23.985484 -53.675875,53.675874 0,1.728468 0.08933,3.4354 0.2483,5.121605 A 278.23543,101.06786 0 0 1 120.50045,57.41184 C 115.82729,32.516651 94.034045,13.731427 67.762044,13.731427 Z" />
  </g>
  <g
     inkscape:groupmode="layer"
     id="layer2"
     inkscape:label="det"
     style="display:inline">
    <path
       style="font-size:27.5426px;line-height:1.25;font-family:'Adwaita Sans';-inkscape-font-specification:'Adwaita Sans, @opsz=32';font-variation-settings:'opsz' 32;text-align:center;text-orientation:upright;text-anchor:middle;display:inline;fill:url(#linearGradient30);stroke-width:0.264584"
       d="M 20.421384,67.946701 V 47.908383 h 13.03163 v 2.151766 h -10.61089 v 6.549436 h 9.83088 v 2.151766 h -9.83088 v 7.033584 h 10.61089 v 2.151766 z m 15.96341,0 V 47.908383 h 2.78385 l 8.2574,13.045079 q 0.26897,0.416905 0.67243,1.10278 0.4169,0.685875 0.8876,1.492788 0.4707,0.793463 0.90105,1.573478 l -0.22862,0.484148 q -0.0269,-0.712773 -0.0673,-1.667619 -0.0269,-0.954846 -0.0403,-1.815552 -0.0134,-0.860706 -0.0134,-1.277611 V 47.908383 h 2.42074 v 20.038318 h -2.81075 l -7.3429,-11.592638 q -0.29587,-0.470699 -0.80691,-1.291059 -0.4976,-0.820361 -1.17002,-1.936589 -0.67243,-1.116229 -1.46589,-2.447634 l 0.28242,-0.64553 q 0.0672,1.560031 0.0941,2.797296 0.0403,1.223817 0.0538,2.11142 0.0134,0.874155 0.0134,1.385199 v 11.619535 z m 27.93261,0.322765 q -2.66281,0 -4.73388,-1.317957 -2.05763,-1.331405 -3.2411,-3.658002 -1.18347,-2.340045 -1.18347,-5.352517 0,-3.039369 1.17002,-5.365965 1.18347,-2.340046 3.25455,-3.658002 2.07107,-1.331405 4.73388,-1.331405 1.600376,0 2.999023,0.497596 1.398648,0.497596 2.501428,1.412096 1.10278,0.901052 1.842449,2.151766 0.73967,1.237265 0.995192,2.743501 h -2.447634 q -0.228625,-1.00864 -0.766566,-1.842449 -0.524493,-0.83381 -1.304508,-1.438994 -0.780015,-0.605184 -1.74831,-0.927949 -0.968294,-0.336213 -2.071074,-0.336213 -2.00383,0 -3.52352,1.035537 -1.51968,1.022089 -2.36694,2.85109 -0.84726,1.815552 -0.84726,4.209391 0,2.380391 0.84726,4.195943 0.84726,1.815553 2.36694,2.85109 1.51969,1.022089 3.52352,1.022089 1.681067,0 3.052817,-0.753118 1.371751,-0.753118 2.192112,-2.097972 0.82036,-1.344853 0.82036,-3.12006 l 0.780015,0.04034 h -6.024943 v -2.151765 h 7.638768 v 2.165214 q 0,2.340045 -1.129677,4.195943 -1.116229,1.842449 -3.025921,2.918332 -1.909692,1.062435 -4.303531,1.062435 z M 78.47871,47.908383 V 67.946701 H 76.057973 V 47.908383 Z m 3.980768,20.038318 V 47.908383 h 2.783847 l 8.257401,13.045079 q 0.26897,0.416905 0.672426,1.10278 0.416905,0.685875 0.887604,1.492788 0.470698,0.793463 0.901052,1.573478 l -0.228626,0.484148 q -0.0269,-0.712773 -0.06724,-1.667619 -0.0269,-0.954846 -0.04035,-1.815552 -0.01345,-0.860706 -0.01345,-1.277611 V 47.908383 h 2.420736 v 20.038318 h -2.810744 l -7.3429,-11.592638 q -0.295868,-0.470699 -0.806912,-1.291059 -0.497596,-0.820361 -1.170023,-1.936589 -0.672427,-1.116229 -1.46589,-2.447634 l 0.282419,-0.64553 q 0.06724,1.560031 0.09414,2.797296 0.04035,1.223817 0.05379,2.11142 0.01345,0.874155 0.01345,1.385199 v 11.619535 z m 19.554172,0 V 47.908383 h 13.03163 v 2.151766 h -10.6109 v 6.549436 h 9.83088 v 2.151766 h -9.83088 v 7.033584 h 10.6109 v 2.151766 z"
       id="path26" />
    <path
       style="font-size:27.5426px;line-height:1.25;font-family:'Adwaita Sans';-inkscape-font-specification:'Adwaita Sans, @opsz=32';font-variation-settings:'opsz' 32;text-align:center;text-orientation:upright;text-anchor:middle;display:inline;fill:url(#linearGradient28);stroke-width:0.264584"
       d="m 34.992877,102.69772 q -2.31315,0 -4.00767,-0.82036 -1.69451,-0.83381 -2.62246,-2.353496 -0.92795,-1.519685 -0.92795,-3.604208 h 2.47453 q 0,1.425545 0.59173,2.461082 0.60519,1.022089 1.74831,1.573479 1.14313,0.537943 2.74351,0.537943 1.46589,0 2.54177,-0.43036 1.08933,-0.430348 1.69451,-1.223811 0.60519,-0.793464 0.60519,-1.869347 0,-0.833809 -0.39001,-1.452442 -0.39001,-0.618632 -1.26416,-1.075882 -0.86071,-0.470699 -2.31315,-0.820361 l -2.24591,-0.55139 q -3.06626,-0.753118 -4.42456,-2.01728 -1.35831,-1.264163 -1.35831,-3.30834 0,-1.734861 0.84726,-3.012472 0.86071,-1.291059 2.42074,-2.003832 1.56003,-0.712772 3.64455,-0.712772 2.08452,0 3.61766,0.766566 1.54658,0.753118 2.40729,2.151766 0.8607,1.398648 0.9145,3.321788 h -2.39384 q -0.10759,-1.882795 -1.34486,-2.945229 -1.23726,-1.075883 -3.28144,-1.075883 -1.29106,0 -2.2997,0.430353 -0.99519,0.430353 -1.57348,1.19692 -0.56484,0.766566 -0.56484,1.761758 0,0.780015 0.40346,1.358302 0.40346,0.578287 1.27761,1.022089 0.8876,0.443802 2.34005,0.806912 l 2.2728,0.564838 q 1.46589,0.363111 2.54177,0.874155 1.07588,0.511045 1.77521,1.183471 0.71277,0.672427 1.06243,1.533133 0.34966,0.847258 0.34966,1.896244 0,1.734861 -0.9145,3.052817 -0.90105,1.317959 -2.54177,2.057629 -1.62727,0.72622 -3.80593,0.72622 z m 8.58016,-18.209319 v -2.151765 h 15.46582 v 2.151765 h -6.5091 v 17.886559 h -2.42073 V 84.488401 Z m 13.71751,17.886559 7.396691,-20.038324 h 2.743501 l 7.316003,20.038324 H 72.164624 L 67.955232,90.298169 q -0.416905,-1.19692 -0.941397,-2.730053 -0.511045,-1.546582 -1.304508,-4.048009 h 0.699323 q -0.793463,2.501427 -1.317956,4.048009 -0.511044,1.533133 -0.941397,2.730053 l -4.33043,12.076791 z m 3.81938,-5.621494 V 94.6017 h 9.817431 v 2.151766 z m 15.896171,5.621494 V 82.336636 h 7.437041 q 2.097971,0 3.617656,0.739669 1.533133,0.73967 2.353493,2.11142 0.83381,1.358302 0.83381,3.227649 0,1.869346 -0.887604,3.241097 -0.874155,1.37175 -2.447633,2.11142 -1.573479,0.739669 -3.658002,0.739669 h -5.903907 v -2.151765 h 6.038392 q 1.3852,0 2.380391,-0.470699 1.00864,-0.484147 1.546582,-1.371751 0.537941,-0.887603 0.537941,-2.097971 0,-1.223817 -0.55139,-2.097972 -0.537941,-0.874155 -1.546581,-1.344853 -0.995192,-0.484148 -2.39384,-0.484148 h -4.935612 v 17.886559 z m 11.659881,0 -4.841473,-9.010525 h 2.743501 l 4.922164,9.010525 z m 3.90007,-17.886559 v -2.151765 h 15.465821 v 2.151765 h -6.5091 V 102.37496 H 99.102037 V 84.488401 Z"
       id="path27" />
    <path
       id="path54"
       style="font-size:27.5426px;line-height:1.25;font-family:'Adwaita Sans';-inkscape-font-specification:'Adwaita Sans, @opsz=32';font-variation-settings:'opsz' 32;text-align:center;text-orientation:upright;text-anchor:middle;display:inline;fill:#000000;fill-opacity:1;stroke-width:0.264584"
       d="m 34.741548,82.014115 c -1.389682,0 -2.604201,0.237438 -3.644222,0.712618 -1.04002,0.47519 -1.847236,1.143302 -2.42104,2.004012 -0.534214,0.80556 -0.806644,1.752088 -0.835608,2.830318 0.0036,0.0292 0.0066,0.0588 0.0078,0.0894 0.04702,-1.0252 0.314784,-1.931581 0.827857,-2.705261 0.573804,-0.86071 1.38102,-1.528305 2.42104,-2.003495 1.040021,-0.47518 2.25454,-0.713135 3.644222,-0.713135 1.389682,0 2.595779,0.255829 3.617867,0.766879 1.031055,0.50208 1.833284,1.219366 2.407089,2.151806 0.492063,0.7996 0.774278,1.735854 0.870747,2.792594 h 0.01757 c -0.07448,-1.14657 -0.36305,-2.154008 -0.888317,-3.007568 -0.573805,-0.93243 -1.376034,-1.649726 -2.407089,-2.151806 -1.022088,-0.51105 -2.228185,-0.766362 -3.617867,-0.766362 z m 8.822201,0.322461 v 0.214974 h 15.466239 v -0.214974 z m 21.114473,0 -7.281209,19.724384 h 0.07958 L 64.67822,82.55155 h 2.743502 l 7.122562,19.50941 h 0.07855 l -7.20111,-19.724384 z m 12.318628,0 v 0.214974 h 7.437272 c 1.398648,0 2.604227,0.24637 3.61735,0.73949 1.022089,0.49311 1.806954,1.196999 2.353862,2.111499 0.514033,0.83737 0.779347,1.827172 0.818037,2.955892 0.0012,-0.0349 0.0034,-0.0693 0.0062,-0.103353 -0.02357,-1.1765 -0.293027,-2.202153 -0.824239,-3.067513 -0.546908,-0.9145 -1.331773,-1.617862 -2.353862,-2.110982 -1.013123,-0.49311 -2.218702,-0.740007 -3.61735,-0.740007 z m 15.56029,0 v 0.214974 h 15.46572 v -0.214974 z m -62.323843,5.359879 c -0.0034,0.0469 -0.01034,0.0924 -0.01034,0.14056 0,0.52001 0.134622,0.972537 0.403593,1.358057 0.268971,0.38552 0.694672,0.72628 1.277442,1.02216 0.591735,0.29587 1.371614,0.565106 2.339908,0.807186 l 2.273247,0.564823 c 0.97726,0.24207 1.824191,0.533149 2.541447,0.873849 0.717255,0.34069 1.308869,0.7351 1.775085,1.18339 0.475182,0.44828 0.829359,0.95943 1.062467,1.53324 0.206036,0.49924 0.305768,1.060187 0.329696,1.664497 0.0019,-0.0405 0.0046,-0.0807 0.0083,-0.120406 -0.01493,-0.64259 -0.120893,-1.233085 -0.337964,-1.759065 -0.233108,-0.57381 -0.587285,-1.08496 -1.062467,-1.53324 -0.466216,-0.44829 -1.05783,-0.8427 -1.775085,-1.18339 -0.717256,-0.3407 -1.564187,-0.631779 -2.541447,-0.873849 l -2.273275,-0.564823 c -0.968294,-0.24208 -1.748173,-0.511316 -2.339908,-0.807186 -0.58277,-0.29587 -1.008471,-0.63664 -1.277442,-1.02216 -0.255254,-0.36586 -0.38024,-0.796663 -0.393257,-1.283643 z m 58.605724,0.827857 c -0.01593,0.75976 -0.189834,1.424866 -0.531751,1.989026 -0.358627,0.59173 -0.874248,1.049239 -1.546675,1.372009 -0.663461,0.3138 -1.456751,0.470256 -2.380217,0.470256 h -4.962487 v 0.214974 h 4.962487 c 0.923466,0 1.716756,-0.156973 2.380217,-0.470773 0.672427,-0.32276 1.188048,-0.779752 1.546675,-1.371492 0.358628,-0.59175 0.537952,-1.291153 0.537952,-2.098063 0,-0.0366 -0.0038,-0.0708 -0.0062,-0.105937 z m -1.767334,5.778459 c -0.03312,0.011 -0.06565,0.02319 -0.09922,0.03359 l 4.219898,7.725119 h 0.117305 z m -24.397477,0.299206 -0.077,0.214457 h 6.848678 l -0.07493,-0.214457 z m -35.230407,1.317749 c 0.0054,0.0709 0.0081,0.143424 0.0124,0.214974 h 2.443779 c 0,0.95036 0.197721,1.770472 0.592211,2.460832 0.403457,0.68139 0.98613,1.205947 1.748214,1.573548 0.762084,0.35862 1.676585,0.53795 2.743502,0.53795 0.97726,0 1.824192,-0.14355 2.541447,-0.43046 0.726221,-0.286904 1.291014,-0.694732 1.69447,-1.223702 0.403456,-0.52898 0.605648,-1.151886 0.605648,-1.869136 0,-0.0285 -0.0055,-0.0539 -0.0098,-0.0801 -0.02445,0.65938 -0.218514,1.239551 -0.595829,1.734261 -0.403456,0.52897 -0.968249,0.936798 -1.69447,1.223697 -0.717255,0.28691 -1.564187,0.43047 -2.541447,0.43047 -1.066917,0 -1.981418,-0.17934 -2.743502,-0.537956 -0.762084,-0.3676 -1.344757,-0.892157 -1.748214,-1.573547 -0.39449,-0.69036 -0.592211,-1.510472 -0.592211,-2.460832 z" />
    <path
       id="path44"
       style="font-size:27.5426px;line-height:1.25;font-family:'Adwaita Sans';-inkscape-font-specification:'Adwaita Sans, @opsz=32';font-variation-settings:'opsz' 32;text-align:center;text-orientation:upright;text-anchor:middle;display:inline;fill:#000000;fill-opacity:1;stroke-width:0.264584"
       d="m 64.31752,47.585726 c -1.775206,0 -3.353361,0.443585 -4.734078,1.331185 -1.380716,0.87864 -2.4656,2.098144 -3.254581,3.658174 -0.758979,1.50923 -1.141734,3.247788 -1.162203,5.206918 0.0026,0.0354 0.005,0.071 0.0057,0.107487 0.03365,-1.91419 0.411749,-3.618441 1.156519,-5.099431 0.788981,-1.56003 1.873865,-2.779534 3.254581,-3.658174 1.380717,-0.8876 2.958872,-1.331185 4.734078,-1.331185 1.066918,0 2.066352,0.165914 2.998784,0.497644 0.932431,0.33173 1.766469,0.80214 2.501656,1.4118 0.735186,0.6007 1.349152,1.317997 1.842265,2.151807 0.404523,0.67666 0.694287,1.417005 0.881599,2.214335 h 0.04599 C 72.404896,53.196336 72.100745,52.383827 71.660239,51.646977 71.167126,50.813167 70.55316,50.09587 69.817974,49.49517 69.082787,48.8855 68.248749,48.4151 67.316318,48.08337 66.383886,47.75164 65.384452,47.585726 64.317534,47.585726 Z m -43.896028,0.322461 v 0.214974 h 13.031763 v -0.214974 z m 15.963367,0 v 0.214974 h 2.783809 l 8.257377,13.045198 c 0.179314,0.27793 0.40334,0.645525 0.672311,1.102775 0.277936,0.45725 0.574001,0.954992 0.887801,1.492932 0.220858,0.37231 0.426535,0.739566 0.634069,1.107426 -0.0032,-0.0785 -0.0064,-0.157113 -0.0093,-0.230993 -0.204713,-0.36259 -0.407116,-0.724506 -0.624768,-1.091406 -0.3138,-0.53794 -0.609865,-1.035683 -0.887801,-1.492933 -0.268971,-0.45725 -0.492997,-0.824845 -0.672311,-1.102775 L 39.168668,47.908187 Z m 13.152685,0 v 0.214974 h 2.420524 v -0.214974 z m 26.520345,0 v 0.214974 h 2.421041 v -0.214974 z m 6.401676,0 v 0.214974 h 2.78381 l 8.257377,13.045198 c 0.179313,0.27793 0.403339,0.645525 0.67231,1.102775 0.277936,0.45725 0.574002,0.954992 0.887801,1.492932 0.220859,0.37231 0.426535,0.739566 0.63407,1.107426 -0.0032,-0.0785 -0.0064,-0.157113 -0.0093,-0.230993 C 95.48092,64.277909 95.278518,63.915993 95.060865,63.549093 94.747066,63.011153 94.451,62.51341 94.173064,62.05616 93.904093,61.59891 93.680067,61.231315 93.500754,60.953385 L 85.243375,47.908187 Z m 13.152686,0 v 0.214974 h 2.420524 v -0.214974 z m 6.401159,0 v 0.214974 h 13.03176 v -0.214974 z m -63.329467,3.523816 c 0.01929,0.54732 0.04392,1.137598 0.05426,1.613338 0.0269,0.81589 0.04478,1.519759 0.05374,2.111499 0.009,0.58277 0.01344,1.044755 0.01344,1.385445 v -0.214974 c 0,-0.34069 -0.0045,-0.802675 -0.01344,-1.385445 -0.009,-0.59174 -0.02685,-1.295619 -0.05374,-2.111499 -0.0089,-0.40854 -0.03103,-0.924125 -0.04651,-1.385445 -0.0025,-0.004 -0.0051,-0.008 -0.0078,-0.01292 z m 46.074707,0 c 0.01929,0.54732 0.04392,1.137598 0.05426,1.613338 0.0269,0.81589 0.04478,1.519759 0.05374,2.111499 0.009,0.58277 0.01344,1.044755 0.01344,1.385445 v -0.214974 c 0,-0.34069 -0.0045,-0.802675 -0.01344,-1.385445 -0.009,-0.59174 -0.02685,-1.295619 -0.05374,-2.111499 -0.0089,-0.40854 -0.03103,-0.924125 -0.04651,-1.385445 -0.0025,-0.004 -0.0051,-0.008 -0.0078,-0.01292 z m -61.916634,5.177462 v 0.214973 h 9.830925 v -0.214973 z m 81.592434,0 v 0.214973 h 9.83093 V 56.609465 Z M 65.137625,57.92773 v 0.214974 h 7.63881 V 57.92773 Z m -7.553027,0.121957 c -0.0022,0.0352 -0.0052,0.0699 -0.0052,0.106453 0,1.58693 0.282655,2.98524 0.847494,4.19561 0.564838,1.21037 1.353657,2.160628 2.36678,2.850988 1.013123,0.68139 2.187929,1.02216 3.523816,1.02216 1.120712,0 2.138027,-0.250845 3.052527,-0.752925 0.914501,-0.50208 1.645207,-1.201494 2.192114,-2.098064 0.540423,-0.88594 0.81163,-1.913318 0.818038,-3.079398 h -0.01292 c -0.03756,1.07598 -0.298781,2.034364 -0.805119,2.864424 -0.546907,0.89657 -1.277613,1.595984 -2.192114,2.098064 -0.9145,0.50208 -1.931815,0.752925 -3.052527,0.752925 -1.335887,0 -2.510693,-0.340243 -3.523816,-1.021643 -1.013123,-0.69036 -1.801942,-1.641135 -2.36678,-2.851505 -0.55157,-1.18194 -0.829369,-2.546079 -0.842326,-4.087089 z M 22.842016,65.79495 v 0.214974 H 33.453255 V 65.79495 Z m 81.592434,0 v 0.214974 h 10.61072 V 65.79495 Z" />
  </g>
</svg>
