<?xml version="1.0" encoding="UTF-8" standalone="no"?>
<!-- Created with Inkscape (http://www.inkscape.org/) -->

<svg
   width="512"
   height="512"
   viewBox="0 0 135.46666 135.46667"
   version="1.1"
   id="svg5"
   inkscape:version="1.2.1 (9c6d41e410, 2022-07-14, custom)"
   sodipodi:docname="org.gnome.baobab.svg"
   xmlns:inkscape="http://www.inkscape.org/namespaces/inkscape"
   xmlns:sodipodi="http://sodipodi.sourceforge.net/DTD/sodipodi-0.dtd"
   xmlns="http://www.w3.org/2000/svg"
   xmlns:svg="http://www.w3.org/2000/svg">
  <sodipodi:namedview
     id="namedview7"
     pagecolor="#505050"
     bordercolor="#ffffff"
     borderopacity="1"
     inkscape:showpageshadow="0"
     inkscape:pageopacity="0"
     inkscape:pagecheckerboard="1"
     inkscape:deskcolor="#505050"
     inkscape:document-units="px"
     showgrid="false"
     inkscape:zoom="0.79296875"
     inkscape:cx="-79.448276"
     inkscape:cy="211.86207"
     inkscape:window-width="3252"
     inkscape:window-height="1076"
     inkscape:window-x="1864"
     inkscape:window-y="0"
     inkscape:window-maximized="0"
     inkscape:current-layer="layer1" />
  <defs
     id="defs2" />
  <g
     inkscape:label="Layer 1"
     inkscape:groupmode="layer"
     id="layer1">
    <circle
       style="fill:#ffffff;stroke:none;stroke-width:46.9607;stroke-linecap:round;stroke-linejoin:round;stroke-dasharray:none;stroke-opacity:1;paint-order:stroke fill markers"
       id="path40915-1"
       cx="67.73333"
       cy="67.73333"
       r="67.73333" />
    <path
       id="path2014-5"
       style="color:#000000;display:inline;fill:#0000ff;stroke-linecap:round;stroke-linejoin:round;paint-order:stroke fill markers"
       d="m 67.732302,135.13646 v -28.97653 c -21.39345,-5.5e-4 -38.4266,-17.03197 -38.4266,-38.425561 0,-21.393938 17.0337,-38.427631 38.42763,-38.427631 15.01496,0 27.8716,8.396328 34.209278,20.795633 l 25.8129,-12.92686 C 116.56006,15.358427 93.806972,0.329697 67.733332,0.329697 c -37.05374,0 -67.40467,30.350931 -67.40467,67.404672 0,37.053401 30.35037,67.401521 67.40364,67.402091 z" />
    <path
       id="path2014"
       style="color:#000000;display:inline;fill:#ff1300;stroke-linecap:round;stroke-linejoin:round;paint-order:stroke fill markers"
       d="M 67.733332,0.3302124 V 29.306738 c 21.393447,5.52e-4 38.426598,17.03197 38.426598,38.425561 0,21.393938 -17.033696,38.427631 -38.427631,38.427631 -15.01496,0 -27.871602,-8.396328 -34.209281,-20.795633 L 7.7101236,98.291157 C 18.905571,120.10824 41.658664,135.13697 67.732299,135.13697 c 37.053741,0 67.404671,-30.35093 67.404671,-67.404671 0,-37.053396 -30.35037,-67.40152084 -67.403638,-67.4020866 z" />
    <path
       id="path2016-3"
       style="color:#000000;display:inline;fill:#008000;stroke-width:28.9761;stroke-linecap:round;stroke-linejoin:round;paint-order:stroke fill markers"
       d="M 115.19966,44.405422 A 52.9146,52.914597 0.51560392 0 0 68.209499,14.820876 52.9146,52.914597 0.51560392 0 0 43.950596,20.502704 l 23.375783,47.315335 c 0.05573,0.112806 0.191169,0.158722 0.303975,0.102992 L 97.489621,53.169377 Z"
       inkscape:transform-center-x="-11.841799"
       inkscape:transform-center-y="-26.351295" />
    <circle
       style="display:inline;fill:#00ffff;stroke:none;stroke-width:44.0115;stroke-linecap:round;stroke-linejoin:round;stroke-dasharray:none;stroke-opacity:1;paint-order:stroke fill markers"
       id="path5257-5"
       cx="67.73333"
       cy="67.73333"
       r="44.04335" />
    <path
       id="path2016"
       style="color:#000000;display:inline;fill:#ff6600;stroke-width:28.9761;stroke-linecap:round;stroke-linejoin:round;paint-order:stroke fill markers"
       d="M 43.979227,20.478853 A 52.914597,52.9146 0 0 0 14.818734,67.733332 52.914597,52.9146 0 0 0 67.733332,120.64793 52.914597,52.9146 0 0 0 120.64793,67.733332 52.914597,52.9146 0 0 0 115.14232,44.235025 L 68.264566,67.960709 c -0.112262,0.05682 -0.248073,0.01201 -0.304891,-0.100252 z" />
    <path
       id="path2016-6"
       style="color:#000000;display:inline;opacity:1;fill:#000080;stroke-width:28.9761;stroke-linecap:round;stroke-linejoin:round;paint-order:stroke fill markers"
       d="M 115.14232,44.235025 68.264566,67.960709 c -0.11226,0.0568 -0.248071,0.01201 -0.304891,-0.100252 l -0.226343,-0.447002 v 0.09302 c 0,0.125822 -0.101037,0.226859 -0.226859,0.226859 H 14.818734 A 52.914597,52.9146 0 0 0 67.733332,120.64793 52.914597,52.9146 0 0 0 120.64793,67.733332 52.914597,52.9146 0 0 0 115.14232,44.235025 Z" />
    <path
       id="rect2798-6-7-3-2-0"
       style="display:inline;fill:#00ff00;stroke:none;stroke-width:28.9761;stroke-linecap:round;stroke-linejoin:round;stroke-dasharray:none;stroke-opacity:1;paint-order:stroke fill markers"
       inkscape:transform-center-x="-45.492547"
       inkscape:transform-center-y="14.977839"
       d="M 115.15155,44.238208 98.132941,52.826315 68.264485,67.94322 c -0.03211,0.01624 -0.06567,0.02231 -0.09922,0.02274 -0.06369,0.06756 -0.08312,0.168915 -0.03876,0.256834 l 23.541717,46.651926 a 52.914597,52.9146 0 0 0 28.979628,-47.15887 52.914597,52.9146 0 0 0 -5.4963,-23.477638 z" />
    <path
       id="path5257"
       style="display:inline;opacity:1;fill:#ffcc00;stroke:none;stroke-width:33.5555;stroke-linecap:round;stroke-linejoin:round;stroke-dasharray:none;stroke-opacity:1;paint-order:stroke fill markers"
       d="M 67.733332,34.15347 A 33.579819,33.579819 0 0 0 41.025919,47.411576 l 26.813867,20.470585 c 0.100009,0.07635 0.118725,0.218318 0.04237,0.318326 L 47.691662,94.647968 A 33.579819,33.579819 0 0 0 67.733332,101.31319 33.579819,33.579819 0 0 0 101.31319,67.733332 33.579819,33.579819 0 0 0 67.733332,34.15347 Z"
       inkscape:transform-center-x="-3.4362249" />
    <path
       id="path12695-9"
       style="display:inline;fill:#800080;stroke:none;stroke-width:33.5555;stroke-linecap:round;stroke-linejoin:round;stroke-dasharray:none;stroke-opacity:1;paint-order:stroke fill markers"
       inkscape:transform-center-x="1.9250038"
       inkscape:transform-center-y="0.0032069221"
       d="m 66.866202,34.170526 a 33.579819,33.579819 0 0 0 -0.603582,0.03617 33.579819,33.579819 0 0 1 0.910022,-0.03307 33.579819,33.579819 0 0 0 -0.30644,-0.0031 z m -1.96939,0.118856 a 33.579819,33.579819 0 0 0 -1.188558,0.127124 33.579819,33.579819 0 0 1 1.188558,-0.127124 z m -2.274279,0.270784 a 33.579819,33.579819 0 0 0 -0.504879,0.06666 33.579819,33.579819 0 0 0 -0.838708,0.174666 33.579819,33.579819 0 0 1 1.343587,-0.241329 z m -2.355412,0.452169 a 33.579819,33.579819 0 0 0 -1.420585,0.360185 33.579819,33.579819 0 0 1 1.420585,-0.360185 z m -2.304253,0.614949 a 33.579819,33.579819 0 0 0 -1.478978,0.488343 33.579819,33.579819 0 0 1 1.478978,-0.488343 z m -2.249475,0.774113 a 33.579819,33.579819 0 0 0 -1.52032,0.624768 33.579819,33.579819 0 0 1 1.52032,-0.624768 z m -2.179194,0.927076 a 33.579819,33.579819 0 0 0 -1.551327,0.769978 33.579819,33.579819 0 0 1 1.551327,-0.769978 z m -2.092895,1.069185 a 33.579819,33.579819 0 0 0 -1.585954,0.93276 33.579819,33.579819 0 0 1 1.585954,-0.93276 z m -1.976105,1.188041 a 33.579819,33.579819 0 0 0 -1.644859,1.131197 33.579819,33.579819 0 0 1 1.644859,-1.131197 z M 47.62707,40.864691 A 33.579819,33.579819 0 0 0 34.62631,73.349529 33.579819,33.579819 0 0 0 60.626272,100.54425 33.579819,33.579819 0 0 1 47.691659,94.647969 l 20.1905,-26.44748 c 0.07635,-0.10001 0.05764,-0.24193 -0.04237,-0.31833 L 41.025919,47.411578 a 33.579819,33.579819 0 0 1 6.601151,-6.546887 z m 12.999202,59.679559 a 33.579819,33.579819 0 0 0 1.74253,0.31523 33.579819,33.579819 0 0 1 -1.74253,-0.31523 z m 15.071432,-0.19172 a 33.579819,33.579819 0 0 1 -0.04703,0.0114 33.579819,33.579819 0 0 0 0.04703,-0.0114 z m -2.30477,0.47853 a 33.579819,33.579819 0 0 1 -0.102319,0.0171 33.579819,33.579819 0 0 0 0.05839,-0.008 33.579819,33.579819 0 0 0 0.04393,-0.009 z m -10.312548,0.14934 a 33.579819,33.579819 0 0 0 1.399914,0.15141 33.579819,33.579819 0 0 1 -1.399914,-0.15141 z m 7.816576,0.1819 a 33.579819,33.579819 0 0 1 -0.09043,0.008 33.579819,33.579819 0 0 0 0.09043,-0.008 z m -5.334558,0.0713 a 33.579819,33.579819 0 0 0 1.186492,0.0434 33.579819,33.579819 0 0 1 -1.186492,-0.0434 z m 2.834453,0.0713 a 33.579819,33.579819 0 0 1 -0.107486,0.002 33.579819,33.579819 0 0 0 0.107486,-0.002 z" />
    <path
       id="rect36717"
       style="opacity:1;mix-blend-mode:difference;fill:#ffffff;stroke-width:29.4061;stroke-linecap:round;stroke-linejoin:round;paint-order:stroke fill markers"
       inkscape:transform-center-x="33.866666"
       inkscape:transform-center-y="-33.866666"
       d="M 77.685696 0.73948974 L 67.70336 67.439294 L 43.024763 4.6694824 A 67.73333 67.73333 0 0 0 4.6694824 43.02528 L 67.515258 67.733332 C 67.593988 67.764285 67.688121 67.699007 67.724031 67.619128 C 67.751185 67.654862 67.790875 67.680036 67.834618 67.692508 C 67.800194 67.768489 67.805408 67.871169 67.872859 67.913166 L 125.15153 103.57456 A 67.73333 67.73333 0 0 0 135.46666 67.733332 A 67.73333 67.73333 0 0 0 133.08283 49.941137 L 68.158113 67.543163 L 123.65498 29.524296 A 67.73333 67.73333 0 0 0 77.685696 0.73948974 z M 67.605692 67.764855 C 67.57529 67.760622 67.545075 67.764995 67.519392 67.780875 L 10.124446 103.2707 A 67.73333 67.73333 0 0 0 54.672631 134.14892 L 67.773123 67.956575 C 67.790709 67.867711 67.696895 67.777556 67.605692 67.764855 z " />
    <path
       id="rect36717-6"
       style="display:none;fill:#ffffff;stroke-width:29.4061;stroke-linecap:round;stroke-linejoin:round;paint-order:stroke fill markers"
       inkscape:transform-center-x="33.866666"
       inkscape:transform-center-y="-33.866666"
       d="m 173.22665,8.4841104 h 40.83898 c 0.12078,0 0.17382,0.1056059 0.21801,0.2180066 l 26.45833,67.297316 c 0.0442,0.112401 -0.10561,0.262198 -0.21801,0.218007 L 173.22665,49.759107 c -0.1124,-0.04419 -0.21801,-0.09723 -0.21801,-0.218007 V 8.702117 c 0,-0.1207757 0.0972,-0.2180066 0.21801,-0.2180066 z"
       sodipodi:nodetypes="sssssssss"
       inkscape:label="chaos"
       sodipodi:insensitive="true" />
    <path
       style="opacity:1;mix-blend-mode:difference;fill:#ff6600;stroke:none;stroke-width:50.6916;stroke-linecap:round;stroke-linejoin:round;stroke-dasharray:none;stroke-opacity:1;paint-order:stroke fill markers"
       id="path48678"
       sodipodi:type="arc"
       sodipodi:cx="67.73333"
       sodipodi:cy="67.73333"
       sodipodi:rx="16.933332"
       sodipodi:ry="16.933332"
       sodipodi:start="0.55415174"
       sodipodi:end="3.5160804"
       sodipodi:arc-type="slice"
       d="M 82.13254,76.644025 A 16.933332,16.933332 0 0 1 60.150335,82.873869 16.933332,16.933332 0 0 1 51.97356,61.539187 l 15.75977,6.194143 z" />
  </g>
</svg>
