<?xml version="1.0" encoding="UTF-8" standalone="no"?>
<!-- Created with Inkscape (http://www.inkscape.org/) -->

<svg
   width="512"
   height="512"
   viewBox="0 0 135.46666 135.46666"
   version="1.1"
   id="svg5"
   sodipodi:docname="org.xfce.terminalemulator.svg"
   inkscape:version="1.3 (0e150ed6c4, 2023-07-21)"
   inkscape:export-filename="../../../home/shed/Documents/03M/OEM Tools/Cursors/png_icons/sakura.png"
   inkscape:export-xdpi="105.664"
   inkscape:export-ydpi="105.664"
   xmlns:inkscape="http://www.inkscape.org/namespaces/inkscape"
   xmlns:sodipodi="http://sodipodi.sourceforge.net/DTD/sodipodi-0.dtd"
   xmlns:xlink="http://www.w3.org/1999/xlink"
   xmlns="http://www.w3.org/2000/svg"
   xmlns:svg="http://www.w3.org/2000/svg">
  <sodipodi:namedview
     id="namedview7"
     pagecolor="#505050"
     bordercolor="#ffffff"
     borderopacity="1"
     inkscape:showpageshadow="0"
     inkscape:pageopacity="0"
     inkscape:pagecheckerboard="1"
     inkscape:deskcolor="#505050"
     inkscape:document-units="mm"
     showgrid="false"
     inkscape:zoom="8.0000002"
     inkscape:cx="44.749999"
     inkscape:cy="58.499999"
     inkscape:window-width="3256"
     inkscape:window-height="1080"
     inkscape:window-x="1864"
     inkscape:window-y="0"
     inkscape:window-maximized="0"
     inkscape:current-layer="layer1" />
  <defs
     id="defs2">
    <linearGradient
       inkscape:collect="always"
       id="linearGradient89386">
      <stop
         style="stop-color:#080808;stop-opacity:1;"
         offset="0.67655766"
         id="stop89382" />
      <stop
         style="stop-color:#080808;stop-opacity:0;"
         offset="1"
         id="stop89384" />
    </linearGradient>
    <linearGradient
       inkscape:collect="always"
       id="linearGradient78737">
      <stop
         style="stop-color:#ffffff;stop-opacity:1;"
         offset="0"
         id="stop78733" />
      <stop
         style="stop-color:#080808;stop-opacity:0;"
         offset="0.48393327"
         id="stop78735" />
    </linearGradient>
    <linearGradient
       inkscape:collect="always"
       id="linearGradient48040">
      <stop
         style="stop-color:#ffffff;stop-opacity:1;"
         offset="0"
         id="stop48036" />
      <stop
         style="stop-color:#080808;stop-opacity:0;"
         offset="1"
         id="stop48038" />
    </linearGradient>
    <linearGradient
       inkscape:collect="always"
       id="linearGradient47308">
      <stop
         style="stop-color:#ffffff;stop-opacity:1;"
         offset="0"
         id="stop47304" />
      <stop
         style="stop-color:#ffffff;stop-opacity:0;"
         offset="1"
         id="stop47306" />
    </linearGradient>
    <linearGradient
       inkscape:collect="always"
       id="linearGradient46538">
      <stop
         style="stop-color:#ffffff;stop-opacity:1;"
         offset="0"
         id="stop46534" />
      <stop
         style="stop-color:#ffffff;stop-opacity:0;"
         offset="0.5"
         id="stop46536" />
    </linearGradient>
    <linearGradient
       inkscape:collect="always"
       id="linearGradient45042">
      <stop
         style="stop-color:#ffffff;stop-opacity:1;"
         offset="0"
         id="stop45038" />
      <stop
         style="stop-color:#080808;stop-opacity:0;"
         offset="1"
         id="stop45040" />
    </linearGradient>
    <linearGradient
       inkscape:collect="always"
       id="linearGradient11452">
      <stop
         style="stop-color:#4d4d4d;stop-opacity:1;"
         offset="0"
         id="stop11448" />
      <stop
         style="stop-color:#000000;stop-opacity:0;"
         offset="0.50774521"
         id="stop11450" />
    </linearGradient>
    <rect
       x="-15.087993"
       y="-159.23229"
       width="568.35329"
       height="130.31937"
       id="rect11003" />
    <rect
       x="-3929.9673"
       y="-670.27679"
       width="1152.5586"
       height="459.63739"
       id="rect9364" />
    <linearGradient
       inkscape:collect="always"
       id="linearGradient1306">
      <stop
         style="stop-color:#ffffff;stop-opacity:1;"
         offset="0"
         id="stop1302" />
      <stop
         style="stop-color:#000000;stop-opacity:0;"
         offset="1"
         id="stop1304" />
    </linearGradient>
    <linearGradient
       inkscape:collect="always"
       xlink:href="#linearGradient1306"
       id="linearGradient21352"
       gradientUnits="userSpaceOnUse"
       gradientTransform="matrix(-0.04381181,0,0,-0.05005685,-23.918148,2.8862692)"
       x1="-739.17969"
       y1="-249.15102"
       x2="-739.17969"
       y2="51.981754" />
    <filter
       inkscape:collect="always"
       style="color-interpolation-filters:sRGB"
       id="filter21355"
       x="-0.045424641"
       y="-0.098587331"
       width="1.0908493"
       height="1.1971747">
      <feGaussianBlur
         inkscape:collect="always"
         stdDeviation="0.292504"
         id="feGaussianBlur21357" />
    </filter>
    <linearGradient
       inkscape:collect="always"
       xlink:href="#linearGradient11452"
       id="linearGradient11454"
       x1="100.67797"
       y1="-10.30703"
       x2="100.67797"
       y2="22.262539"
       gradientUnits="userSpaceOnUse"
       gradientTransform="matrix(0.97816499,0,0,0.95633016,-30.746338,11.279232)" />
    <linearGradient
       inkscape:collect="always"
       xlink:href="#linearGradient45042"
       id="linearGradient45044"
       x1="-313.02358"
       y1="68.596482"
       x2="-171.99962"
       y2="68.596482"
       gradientUnits="userSpaceOnUse"
       gradientTransform="translate(-170.42736,173.03497)" />
    <linearGradient
       inkscape:collect="always"
       xlink:href="#linearGradient48040"
       id="linearGradient45805"
       gradientUnits="userSpaceOnUse"
       gradientTransform="matrix(-1,0,0,1,-655.45056,173.03497)"
       x1="-313.02358"
       y1="68.596482"
       x2="-171.99962"
       y2="68.596482" />
    <linearGradient
       inkscape:collect="always"
       xlink:href="#linearGradient46538"
       id="linearGradient46540"
       x1="-318.76474"
       y1="-52.945763"
       x2="-318.76474"
       y2="69.182014"
       gradientUnits="userSpaceOnUse"
       gradientTransform="translate(-94.17423,233.51332)" />
    <linearGradient
       inkscape:collect="always"
       xlink:href="#linearGradient47308"
       id="linearGradient46575"
       gradientUnits="userSpaceOnUse"
       x1="-318.76474"
       y1="-52.945763"
       x2="-318.76474"
       y2="69.182014"
       gradientTransform="matrix(1,0,0,-1,-94.174216,249.74957)" />
    <linearGradient
       inkscape:collect="always"
       xlink:href="#linearGradient78737"
       id="linearGradient78739"
       x1="-32.56303"
       y1="2.567162"
       x2="-32.56303"
       y2="117.61716"
       gradientUnits="userSpaceOnUse"
       gradientTransform="matrix(-1,0,0,1,35.173916,14.404505)" />
    <radialGradient
       inkscape:collect="always"
       xlink:href="#linearGradient89386"
       id="radialGradient89388"
       cx="-84.003185"
       cy="70.789198"
       fx="-84.003185"
       fy="70.789198"
       r="66.915985"
       gradientTransform="matrix(1,0,0,0.85966009,151.73651,14.284328)"
       gradientUnits="userSpaceOnUse" />
    <filter
       inkscape:collect="always"
       style="color-interpolation-filters:sRGB"
       id="filter1828"
       x="-0.026103221"
       y="-0.29786571"
       width="1.0522064"
       height="1.5957314">
      <feGaussianBlur
         inkscape:collect="always"
         stdDeviation="0.55027479"
         id="feGaussianBlur1830" />
    </filter>
    <rect
       x="-15.087993"
       y="-159.23228"
       width="568.35327"
       height="130.31937"
       id="rect11003-3" />
    <rect
       x="-3929.9673"
       y="-670.27679"
       width="1152.5586"
       height="459.63739"
       id="rect3" />
    <filter
       inkscape:collect="always"
       style="color-interpolation-filters:sRGB"
       id="filter3"
       x="-0.051162621"
       y="-0.58377649"
       width="1.1023252"
       height="2.167553">
      <feGaussianBlur
         inkscape:collect="always"
         stdDeviation="1.0785465"
         id="feGaussianBlur3" />
    </filter>
    <rect
       x="-15.087993"
       y="-159.23229"
       width="568.35329"
       height="130.31937"
       id="rect4" />
    <rect
       x="-15.087993"
       y="-159.23228"
       width="568.35327"
       height="130.31937"
       id="rect5" />
  </defs>
  <g
     inkscape:label="Layer 1"
     inkscape:groupmode="layer"
     id="layer1"
     style="display:inline">
    <rect
       style="display:inline;opacity:1;fill:#1e59c4;fill-opacity:1;stroke-width:0.536922;stroke-linecap:round;stroke-linejoin:bevel;paint-order:markers fill stroke"
       id="rect8688"
       width="135.46666"
       height="32.569569"
       x="0"
       y="0"
       ry="5.8870873" />
    <rect
       style="display:inline;fill:#1e59c4;fill-opacity:1;stroke:#948450;stroke-width:2.927;stroke-linecap:round;stroke-dasharray:none;stroke-opacity:1;paint-order:fill markers stroke"
       id="rect739"
       width="132.54013"
       height="119.05011"
       x="1.4632696"
       y="15.03677"
       inkscape:export-filename="sakura.svg"
       inkscape:export-xdpi="105.664"
       inkscape:export-ydpi="105.664" />
    <path
       id="rect739-9"
       style="display:inline;fill:#080808;stroke-width:2.83535;stroke-linecap:round;paint-order:fill markers stroke"
       d="M 8.5643302,17.036829 H 126.84787 c 2.88366,0 5.20516,2.31056 5.20516,5.18062 0,0 2.56905,34.87545 2.56905,52.34438 0,17.46894 -2.56905,52.344391 -2.56905,52.344391 -0.1407,2.86666 -2.3215,5.18061 -5.20516,5.18061 H 8.5643302 c -2.8836687,0 -5.2051687,-2.31054 -5.2051687,-5.18061 0,0 -2.56904998,-34.875451 -2.56904998,-52.344391 0,-17.46893 2.56904998,-52.34438 2.56904998,-52.34438 0.1407,-2.86665 2.3215,-5.18062 5.2051687,-5.18062 z"
       sodipodi:nodetypes="ssszsssszss"
       inkscape:label="screen"
       sodipodi:insensitive="true" />
    <text
       xml:space="preserve"
       style="font-style:normal;font-weight:normal;font-size:5.22231px;line-height:1.25;font-family:sans-serif;display:none;mix-blend-mode:normal;fill:#000000;fill-opacity:1;stroke:none;stroke-width:0.130558;filter:url(#filter1828)"
       x="10.392991"
       y="124.38135"
       id="text1824"
       inkscape:label="glow"
       sodipodi:insensitive="true"><tspan
         sodipodi:role="line"
         id="tspan1822"
         x="0"
         y="0"
         style="fill:#66ff00;stroke-width:0.130558">user:08@machine ~$</tspan></text>
    <text
       xml:space="preserve"
       style="font-style:normal;font-weight:normal;font-size:5.22231px;line-height:1.25;font-family:sans-serif;display:none;fill:#000000;fill-opacity:1;stroke:none;stroke-width:0.130558"
       x="10.392991"
       y="124.38135"
       id="text9733"
       sodipodi:insensitive="true"><tspan
         sodipodi:role="line"
         id="tspan9731"
         x="0"
         y="0"
         style="fill:#66ff00;stroke-width:0.130558">user:08@machine ~$</tspan></text>
    <text
       xml:space="preserve"
       transform="scale(0.26458333)"
       id="text9362"
       style="font-style:normal;font-weight:normal;font-size:40px;line-height:1.25;font-family:sans-serif;white-space:pre;shape-inside:url(#rect9364);display:none;fill:#000000;fill-opacity:1;stroke:none"
       sodipodi:insensitive="true" />
    <path
       style="font-size:5.22231px;line-height:1.25;display:inline;fill:#66ff00;stroke-width:0.130558;filter:url(#filter3)"
       d="m 13.176482,121.58219 v 2.79916 h -0.376006 l -0.06789,-0.37079 h -0.02089 q -0.13578,0.21934 -0.376007,0.32379 -0.240226,0.0992 -0.511786,0.0992 -0.506564,0 -0.762457,-0.24023 -0.255893,-0.24544 -0.255893,-0.77812 v -1.83303 h 0.464785 v 1.8017 q 0,0.66845 0.621455,0.66845 0.464786,0 0.642344,-0.26111 0.182781,-0.26112 0.182781,-0.75202 v -1.45702 z m 2.710379,2.02626 q 0,0.40734 -0.302894,0.61623 -0.302894,0.20889 -0.81468,0.20889 -0.292449,0 -0.506564,-0.047 -0.208893,-0.047 -0.370784,-0.13056 v -0.41778 q 0.167114,0.0836 0.402118,0.15667 0.240226,0.0679 0.485675,0.0679 0.349894,0 0.506564,-0.10967 0.156669,-0.11489 0.156669,-0.3029 0,-0.10444 -0.05744,-0.188 -0.05745,-0.0836 -0.208893,-0.16711 -0.146225,-0.0836 -0.423007,-0.18801 -0.27156,-0.10444 -0.464786,-0.20889 -0.193225,-0.10444 -0.297671,-0.25067 -0.104446,-0.14622 -0.104446,-0.37601 0,-0.35511 0.287227,-0.54834 0.292449,-0.19322 0.762457,-0.19322 0.255893,0 0.47523,0.0522 0.224559,0.047 0.417785,0.13578 l -0.156669,0.36556 q -0.177559,-0.0731 -0.370784,-0.12533 -0.193226,-0.0522 -0.396896,-0.0522 -0.282005,0 -0.433452,0.094 -0.146224,0.0888 -0.146224,0.24545 0,0.11489 0.06789,0.19845 0.06789,0.0783 0.224559,0.15667 0.161892,0.0731 0.428229,0.17756 0.266338,0.0992 0.454341,0.20367 0.188004,0.10444 0.287227,0.25589 0.09922,0.14623 0.09922,0.37079 z m 1.759919,-2.07848 q 0.36034,0 0.616233,0.15667 0.261115,0.15666 0.396895,0.44389 0.141003,0.28201 0.141003,0.66324 v 0.27678 h -1.916588 q 0.01045,0.47523 0.240226,0.7259 0.235004,0.24545 0.652789,0.24545 0.266338,0 0.470008,-0.047 0.208892,-0.0522 0.428229,-0.14623 v 0.40212 q -0.214114,0.094 -0.423007,0.13578 -0.208892,0.047 -0.496119,0.047 -0.396896,0 -0.705012,-0.16189 -0.302894,-0.16189 -0.47523,-0.48045 -0.167114,-0.32379 -0.167114,-0.78857 0,-0.45957 0.151447,-0.78857 0.156669,-0.32901 0.433452,-0.50657 0.282004,-0.17755 0.652788,-0.17755 z m -0.0052,0.376 q -0.329006,0 -0.522231,0.21412 -0.188003,0.20889 -0.224559,0.5849 h 1.42569 q -0.0052,-0.35512 -0.167114,-0.57446 -0.161891,-0.22456 -0.511786,-0.22456 z m 3.17516,-0.376 q 0.07833,0 0.167114,0.0104 0.094,0.005 0.161892,0.0209 l -0.05745,0.42301 q -0.06789,-0.0157 -0.151447,-0.0261 -0.07833,-0.0105 -0.151447,-0.0105 -0.214115,0 -0.402118,0.12011 -0.188003,0.1149 -0.302894,0.32901 -0.109669,0.20889 -0.109669,0.4909 v 1.49358 h -0.459563 v -2.79916 h 0.376006 l 0.05222,0.51179 h 0.02089 q 0.13578,-0.22979 0.349894,-0.3969 0.214115,-0.16711 0.506564,-0.16711 z m 0.783347,0.33422 q 0,-0.19844 0.094,-0.27678 0.094,-0.0783 0.224559,-0.0783 0.13578,0 0.229782,0.0783 0.09922,0.0783 0.09922,0.27678 0,0.18801 -0.09922,0.27156 -0.094,0.0836 -0.229782,0.0836 -0.130557,0 -0.224559,-0.0836 -0.094,-0.0836 -0.094,-0.27156 z m 0,2.23515 q 0,-0.19322 0.094,-0.27156 0.094,-0.0783 0.224559,-0.0783 0.13578,0 0.229782,0.0783 0.09922,0.0783 0.09922,0.27156 0,0.18801 -0.09922,0.27156 -0.094,0.0836 -0.229782,0.0836 -0.130557,0 -0.224559,-0.0836 -0.094,-0.0836 -0.094,-0.27156 z m 3.754839,-1.58758 q 0,0.60057 -0.125335,1.03402 -0.125335,0.42823 -0.396896,0.65801 -0.27156,0.22978 -0.720678,0.22978 -0.6319,0 -0.934794,-0.50656 -0.297672,-0.51179 -0.297672,-1.41525 0,-0.60579 0.120114,-1.03402 0.125335,-0.42823 0.396895,-0.65279 0.27156,-0.22978 0.715457,-0.22978 0.626677,0 0.934793,0.50657 0.308116,0.50134 0.308116,1.41002 z m -2.015811,0 q 0,0.76768 0.172336,1.14891 0.177558,0.38123 0.600566,0.38123 0.417784,0 0.595343,-0.37601 0.182781,-0.38123 0.182781,-1.15413 0,-0.76246 -0.182781,-1.14369 -0.177559,-0.38122 -0.595343,-0.38122 -0.423008,0 -0.600566,0.38122 -0.172336,0.38123 -0.172336,1.14369 z m 3.760065,-1.91136 q 0.490897,0 0.804236,0.22978 0.313339,0.22978 0.313339,0.66323 0,0.22456 -0.09922,0.39167 -0.094,0.16712 -0.255894,0.29768 -0.161891,0.12533 -0.355117,0.22455 0.229782,0.10967 0.417785,0.25068 0.188003,0.13578 0.297672,0.31856 0.114891,0.18278 0.114891,0.43867 0,0.47001 -0.334228,0.74679 -0.329006,0.27156 -0.887793,0.27156 -0.600566,0 -0.924349,-0.26111 -0.323783,-0.26634 -0.323783,-0.74157 0,-0.2559 0.104446,-0.4439 0.109669,-0.188 0.287227,-0.32378 0.177559,-0.13578 0.381229,-0.22978 -0.27156,-0.15667 -0.464786,-0.37601 -0.188003,-0.22456 -0.188003,-0.56923 0,-0.28723 0.146225,-0.48045 0.146224,-0.19845 0.396895,-0.3029 0.250671,-0.10444 0.569232,-0.10444 z m -0.0052,0.37078 q -0.287227,0 -0.47523,0.141 -0.182781,0.13578 -0.182781,0.3969 0,0.19322 0.08878,0.32378 0.094,0.13056 0.250671,0.22456 0.156669,0.0888 0.344672,0.17234 0.271561,-0.11489 0.454341,-0.27679 0.188004,-0.16189 0.188004,-0.44389 0,-0.26112 -0.182781,-0.3969 -0.182781,-0.141 -0.485675,-0.141 z m -0.778124,2.46493 q 0,0.27156 0.193225,0.45434 0.193226,0.17756 0.595343,0.17756 0.381229,0 0.579677,-0.17756 0.20367,-0.18278 0.20367,-0.47001 0,-0.27156 -0.214115,-0.44912 -0.214114,-0.18278 -0.569232,-0.31856 l -0.08356,-0.0313 q -0.344673,0.14622 -0.527454,0.33945 -0.177558,0.188 -0.177558,0.47523 z m 6.674115,-0.91913 q 0,0.24023 -0.05745,0.47001 -0.05222,0.22978 -0.167114,0.41779 -0.114891,0.18278 -0.282005,0.29767 -0.167114,0.10967 -0.396896,0.10967 -0.240226,0 -0.381228,-0.13578 -0.13578,-0.14101 -0.167114,-0.31857 h -0.02611 q -0.094,0.19323 -0.276782,0.32379 -0.182781,0.13056 -0.459563,0.13056 -0.396896,0 -0.616233,-0.26634 -0.214115,-0.26634 -0.214115,-0.70501 0,-0.34468 0.13578,-0.60579 0.13578,-0.26634 0.381229,-0.41779 0.250671,-0.15144 0.590121,-0.15144 0.229782,0 0.449119,0.0418 0.224559,0.0366 0.349894,0.0836 l -0.05222,1.06013 q -0.0052,0.094 -0.0052,0.13578 0,0.0366 0,0.0522 0,0.27156 0.094,0.36034 0.09922,0.0888 0.229781,0.0888 0.161892,0 0.27156,-0.13056 0.114891,-0.13578 0.172337,-0.35511 0.06267,-0.22456 0.06267,-0.4909 0,-0.48567 -0.198447,-0.8199 -0.193226,-0.33945 -0.537898,-0.51701 -0.339451,-0.17756 -0.772902,-0.17756 -0.595344,0 -1.007906,0.24545 -0.40734,0.24545 -0.621455,0.6789 -0.208892,0.42823 -0.208892,0.98179 0,0.77291 0.40734,1.18547 0.40734,0.41256 1.17502,0.41256 0.31856,0 0.605788,-0.0731 0.292449,-0.0679 0.517008,-0.15145 v 0.35512 q -0.224559,0.094 -0.506564,0.15145 -0.276782,0.0627 -0.616232,0.0627 -0.616233,0 -1.054907,-0.22978 -0.438674,-0.22978 -0.673678,-0.65801 -0.229782,-0.43345 -0.229782,-1.03924 0,-0.48567 0.151447,-0.89824 0.151447,-0.41778 0.438674,-0.72068 0.287227,-0.30811 0.694568,-0.47523 0.412562,-0.17233 0.929571,-0.17233 0.54312,0 0.966127,0.22456 0.423007,0.22456 0.663233,0.64234 0.245449,0.41779 0.245449,0.99746 z m -2.637267,0.33423 q 0,0.33423 0.130558,0.48568 0.13578,0.15144 0.36034,0.15144 0.292449,0 0.417784,-0.21933 0.130558,-0.21934 0.151447,-0.56924 l 0.03133,-0.65278 q -0.06789,-0.0209 -0.172336,-0.0366 -0.104446,-0.0157 -0.214115,-0.0157 -0.255893,0 -0.412562,0.12534 -0.156669,0.12533 -0.22456,0.32378 -0.06789,0.19323 -0.06789,0.40734 z m 6.454776,-1.32124 q 0.47523,0 0.710234,0.24544 0.235004,0.24023 0.235004,0.78335 v 1.82259 h -0.454341 v -1.8017 q 0,-0.66323 -0.569232,-0.66323 -0.40734,0 -0.584899,0.235 -0.172336,0.23501 -0.172336,0.68412 v 1.54581 h -0.454341 v -1.8017 q 0,-0.66323 -0.574454,-0.66323 -0.423007,0 -0.584899,0.26111 -0.161891,0.26112 -0.161891,0.75202 v 1.4518 h -0.459564 v -2.79916 h 0.370784 l 0.06789,0.38123 h 0.02611 q 0.130558,-0.21934 0.349895,-0.32379 0.224559,-0.10966 0.47523,-0.10966 0.658011,0 0.856459,0.47 h 0.02611 q 0.141003,-0.24022 0.381229,-0.35511 0.245448,-0.11489 0.517009,-0.11489 z m 2.872269,0.005 q 0.511786,0 0.757234,0.22456 0.245449,0.22456 0.245449,0.71545 v 1.90615 H 40.34816 l -0.08878,-0.3969 h -0.02089 q -0.182781,0.22978 -0.386451,0.33945 -0.198448,0.10967 -0.553565,0.10967 -0.381229,0 -0.6319,-0.19845 -0.250671,-0.20367 -0.250671,-0.6319 0,-0.41778 0.329006,-0.64234 0.329006,-0.22978 1.013128,-0.25067 l 0.47523,-0.0157 v -0.16711 q 0,-0.3499 -0.151447,-0.48568 -0.151447,-0.13578 -0.428229,-0.13578 -0.219337,0 -0.417785,0.0679 -0.198448,0.0627 -0.370784,0.14623 l -0.141002,-0.34468 q 0.182781,-0.0992 0.433451,-0.16711 0.250671,-0.0731 0.522232,-0.0731 z m 0.13578,1.49358 q -0.522231,0.0209 -0.725902,0.16711 -0.198447,0.14623 -0.198447,0.41257 0,0.235 0.141002,0.34467 0.146225,0.10967 0.370784,0.10967 0.355117,0 0.590121,-0.19323 0.235004,-0.19845 0.235004,-0.60579 v -0.25067 z m 2.856607,1.4048 q -0.370784,0 -0.663233,-0.15145 -0.287227,-0.15144 -0.454341,-0.47 -0.161892,-0.31857 -0.161892,-0.81468 0,-0.51701 0.172336,-0.8408 0.172337,-0.32378 0.464786,-0.47523 0.297672,-0.15144 0.673678,-0.15144 0.214115,0 0.412563,0.047 0.198447,0.0418 0.323783,0.10444 l -0.141003,0.38123 q -0.125335,-0.047 -0.292449,-0.0888 -0.167114,-0.0418 -0.313339,-0.0418 -0.825125,0 -0.825125,1.06013 0,0.50657 0.198448,0.77813 0.20367,0.26634 0.600566,0.26634 0.229781,0 0.402118,-0.047 0.177558,-0.047 0.323783,-0.11489 v 0.40734 q -0.141002,0.0731 -0.313339,0.10967 -0.167114,0.0418 -0.40734,0.0418 z m 1.843475,-2.8566 q 0,0.20889 -0.02611,0.39167 h 0.03133 q 0.13578,-0.21411 0.365562,-0.32378 0.235004,-0.10967 0.506564,-0.10967 0.511786,0 0.76768,0.24545 0.255893,0.24022 0.255893,0.77812 v 1.82259 h -0.454341 v -1.79125 q 0,-0.67368 -0.626677,-0.67368 -0.470008,0 -0.647567,0.26634 -0.172336,0.26111 -0.172336,0.75201 v 1.44658 h -0.459563 v -3.96896 h 0.459563 z m 3.002827,-1.04446 q 0.104446,0 0.182781,0.0731 0.08356,0.0679 0.08356,0.21933 0,0.14623 -0.08356,0.21934 -0.07834,0.0731 -0.182781,0.0731 -0.114891,0 -0.193225,-0.0731 -0.07834,-0.0731 -0.07834,-0.21934 0,-0.15144 0.07834,-0.21933 0.07833,-0.0731 0.193225,-0.0731 z m 0.224559,1.04968 v 2.79916 H 47.28339 v -2.79916 z m 2.235144,-0.0522 q 0.501342,0 0.757235,0.24544 0.255893,0.24023 0.255893,0.78335 v 1.82259 h -0.454341 v -1.79125 q 0,-0.67368 -0.626677,-0.67368 -0.464785,0 -0.642344,0.26111 -0.177559,0.26112 -0.177559,0.75202 v 1.4518 h -0.459563 v -2.79916 h 0.370784 l 0.06789,0.38123 h 0.02611 q 0.13578,-0.21934 0.376006,-0.32379 0.240226,-0.10966 0.506564,-0.10966 z m 2.961053,0 q 0.360339,0 0.616232,0.15667 0.261116,0.15666 0.396896,0.44389 0.141002,0.28201 0.141002,0.66324 v 0.27678 h -1.916588 q 0.01044,0.47523 0.240227,0.7259 0.235004,0.24545 0.652788,0.24545 0.266338,0 0.470008,-0.047 0.208893,-0.0522 0.42823,-0.14623 v 0.40212 q -0.214115,0.094 -0.423007,0.13578 -0.208893,0.047 -0.49612,0.047 -0.396895,0 -0.705012,-0.16189 -0.302894,-0.16189 -0.47523,-0.48045 -0.167114,-0.32379 -0.167114,-0.78857 0,-0.45957 0.151447,-0.78857 0.156669,-0.32901 0.433452,-0.50657 0.282005,-0.17755 0.652789,-0.17755 z m -0.0052,0.376 q -0.329005,0 -0.522231,0.21412 -0.188003,0.20889 -0.224559,0.5849 h 1.425691 q -0.0052,-0.35512 -0.167114,-0.57446 -0.161892,-0.22456 -0.511787,-0.22456 z m 4.18829,0.80946 q -0.188003,-0.0836 -0.313338,-0.10967 -0.120114,-0.0313 -0.235004,-0.0313 -0.146225,0 -0.308117,0.0888 -0.161891,0.0888 -0.287227,0.21933 v -0.40734 q 0.250671,-0.27678 0.626678,-0.27678 0.151447,0 0.297671,0.0313 0.151447,0.0313 0.391673,0.13578 0.188004,0.0836 0.308117,0.11489 0.125335,0.0261 0.235004,0.0261 0.151447,0 0.313338,-0.0888 0.161892,-0.0888 0.287227,-0.21934 v 0.40212 q -0.255893,0.282 -0.626677,0.282 -0.146225,0 -0.302894,-0.0313 -0.151447,-0.0366 -0.386451,-0.13578 z m 2.903607,1.41002 q -0.287227,-0.005 -0.558787,-0.047 -0.271561,-0.047 -0.438674,-0.12533 v -0.4439 q 0.177558,0.0836 0.454341,0.14623 0.276782,0.0627 0.54312,0.0679 v -1.05491 q -0.517009,-0.141 -0.757235,-0.35512 -0.240226,-0.21411 -0.240226,-0.5849 0,-0.38645 0.266337,-0.60578 0.271561,-0.21934 0.731124,-0.24545 v -0.45957 h 0.334228 v 0.45435 q 0.276782,0.005 0.501341,0.0627 0.229782,0.0522 0.417785,0.13056 l -0.141002,0.38645 q -0.167114,-0.0679 -0.370784,-0.11489 -0.198448,-0.0522 -0.40734,-0.0679 v 1.04969 q 0.344672,0.0992 0.574454,0.21411 0.229781,0.10967 0.344672,0.27678 0.120113,0.16189 0.120113,0.42301 0,0.36556 -0.27156,0.59534 -0.27156,0.22456 -0.767679,0.27679 v 0.57967 h -0.334228 z m 0,-2.84615 q -0.282005,0.0209 -0.417785,0.13055 -0.130558,0.10967 -0.130558,0.28201 0,0.20889 0.114891,0.32378 0.120113,0.10967 0.433452,0.188 z m 0.334228,2.41793 q 0.308116,-0.0313 0.449118,-0.14101 0.141003,-0.11489 0.141003,-0.29245 0,-0.19844 -0.125336,-0.29767 -0.125335,-0.10444 -0.464785,-0.188 z"
       id="text1"
       inkscape:label="glow"
       aria-label="user:08@machine ~$" />
    <path
       style="font-size:5.22231px;line-height:1.25;display:inline;fill:#66ff00;stroke-width:0.130558"
       d="m 13.176482,121.58219 v 2.79916 h -0.376006 l -0.06789,-0.37079 h -0.02089 q -0.13578,0.21934 -0.376007,0.32379 -0.240226,0.0992 -0.511786,0.0992 -0.506564,0 -0.762457,-0.24023 -0.255893,-0.24544 -0.255893,-0.77812 v -1.83303 h 0.464785 v 1.8017 q 0,0.66845 0.621455,0.66845 0.464786,0 0.642344,-0.26111 0.182781,-0.26112 0.182781,-0.75202 v -1.45702 z m 2.710379,2.02626 q 0,0.40734 -0.302894,0.61623 -0.302894,0.20889 -0.81468,0.20889 -0.292449,0 -0.506564,-0.047 -0.208893,-0.047 -0.370784,-0.13056 v -0.41778 q 0.167114,0.0836 0.402118,0.15667 0.240226,0.0679 0.485675,0.0679 0.349894,0 0.506564,-0.10967 0.156669,-0.11489 0.156669,-0.3029 0,-0.10444 -0.05744,-0.188 -0.05745,-0.0836 -0.208893,-0.16711 -0.146225,-0.0836 -0.423007,-0.18801 -0.27156,-0.10444 -0.464786,-0.20889 -0.193225,-0.10444 -0.297671,-0.25067 -0.104446,-0.14622 -0.104446,-0.37601 0,-0.35511 0.287227,-0.54834 0.292449,-0.19322 0.762457,-0.19322 0.255893,0 0.47523,0.0522 0.224559,0.047 0.417785,0.13578 l -0.156669,0.36556 q -0.177559,-0.0731 -0.370784,-0.12533 -0.193226,-0.0522 -0.396896,-0.0522 -0.282005,0 -0.433452,0.094 -0.146224,0.0888 -0.146224,0.24545 0,0.11489 0.06789,0.19845 0.06789,0.0783 0.224559,0.15667 0.161892,0.0731 0.428229,0.17756 0.266338,0.0992 0.454341,0.20367 0.188004,0.10444 0.287227,0.25589 0.09922,0.14623 0.09922,0.37079 z m 1.759919,-2.07848 q 0.36034,0 0.616233,0.15667 0.261115,0.15666 0.396895,0.44389 0.141003,0.28201 0.141003,0.66324 v 0.27678 h -1.916588 q 0.01045,0.47523 0.240226,0.7259 0.235004,0.24545 0.652789,0.24545 0.266338,0 0.470008,-0.047 0.208892,-0.0522 0.428229,-0.14623 v 0.40212 q -0.214114,0.094 -0.423007,0.13578 -0.208892,0.047 -0.496119,0.047 -0.396896,0 -0.705012,-0.16189 -0.302894,-0.16189 -0.47523,-0.48045 -0.167114,-0.32379 -0.167114,-0.78857 0,-0.45957 0.151447,-0.78857 0.156669,-0.32901 0.433452,-0.50657 0.282004,-0.17755 0.652788,-0.17755 z m -0.0052,0.376 q -0.329006,0 -0.522231,0.21412 -0.188003,0.20889 -0.224559,0.5849 h 1.42569 q -0.0052,-0.35512 -0.167114,-0.57446 -0.161891,-0.22456 -0.511786,-0.22456 z m 3.17516,-0.376 q 0.07833,0 0.167114,0.0104 0.094,0.005 0.161892,0.0209 l -0.05745,0.42301 q -0.06789,-0.0157 -0.151447,-0.0261 -0.07833,-0.0105 -0.151447,-0.0105 -0.214115,0 -0.402118,0.12011 -0.188003,0.1149 -0.302894,0.32901 -0.109669,0.20889 -0.109669,0.4909 v 1.49358 h -0.459563 v -2.79916 h 0.376006 l 0.05222,0.51179 h 0.02089 q 0.13578,-0.22979 0.349894,-0.3969 0.214115,-0.16711 0.506564,-0.16711 z m 0.783347,0.33422 q 0,-0.19844 0.094,-0.27678 0.094,-0.0783 0.224559,-0.0783 0.13578,0 0.229782,0.0783 0.09922,0.0783 0.09922,0.27678 0,0.18801 -0.09922,0.27156 -0.094,0.0836 -0.229782,0.0836 -0.130557,0 -0.224559,-0.0836 -0.094,-0.0836 -0.094,-0.27156 z m 0,2.23515 q 0,-0.19322 0.094,-0.27156 0.094,-0.0783 0.224559,-0.0783 0.13578,0 0.229782,0.0783 0.09922,0.0783 0.09922,0.27156 0,0.18801 -0.09922,0.27156 -0.094,0.0836 -0.229782,0.0836 -0.130557,0 -0.224559,-0.0836 -0.094,-0.0836 -0.094,-0.27156 z m 3.754839,-1.58758 q 0,0.60057 -0.125335,1.03402 -0.125335,0.42823 -0.396896,0.65801 -0.27156,0.22978 -0.720678,0.22978 -0.6319,0 -0.934794,-0.50656 -0.297672,-0.51179 -0.297672,-1.41525 0,-0.60579 0.120114,-1.03402 0.125335,-0.42823 0.396895,-0.65279 0.27156,-0.22978 0.715457,-0.22978 0.626677,0 0.934793,0.50657 0.308116,0.50134 0.308116,1.41002 z m -2.015811,0 q 0,0.76768 0.172336,1.14891 0.177558,0.38123 0.600566,0.38123 0.417784,0 0.595343,-0.37601 0.182781,-0.38123 0.182781,-1.15413 0,-0.76246 -0.182781,-1.14369 -0.177559,-0.38122 -0.595343,-0.38122 -0.423008,0 -0.600566,0.38122 -0.172336,0.38123 -0.172336,1.14369 z m 3.760065,-1.91136 q 0.490897,0 0.804236,0.22978 0.313339,0.22978 0.313339,0.66323 0,0.22456 -0.09922,0.39167 -0.094,0.16712 -0.255894,0.29768 -0.161891,0.12533 -0.355117,0.22455 0.229782,0.10967 0.417785,0.25068 0.188003,0.13578 0.297672,0.31856 0.114891,0.18278 0.114891,0.43867 0,0.47001 -0.334228,0.74679 -0.329006,0.27156 -0.887793,0.27156 -0.600566,0 -0.924349,-0.26111 -0.323783,-0.26634 -0.323783,-0.74157 0,-0.2559 0.104446,-0.4439 0.109669,-0.188 0.287227,-0.32378 0.177559,-0.13578 0.381229,-0.22978 -0.27156,-0.15667 -0.464786,-0.37601 -0.188003,-0.22456 -0.188003,-0.56923 0,-0.28723 0.146225,-0.48045 0.146224,-0.19845 0.396895,-0.3029 0.250671,-0.10444 0.569232,-0.10444 z m -0.0052,0.37078 q -0.287227,0 -0.47523,0.141 -0.182781,0.13578 -0.182781,0.3969 0,0.19322 0.08878,0.32378 0.094,0.13056 0.250671,0.22456 0.156669,0.0888 0.344672,0.17234 0.271561,-0.11489 0.454341,-0.27679 0.188004,-0.16189 0.188004,-0.44389 0,-0.26112 -0.182781,-0.3969 -0.182781,-0.141 -0.485675,-0.141 z m -0.778124,2.46493 q 0,0.27156 0.193225,0.45434 0.193226,0.17756 0.595343,0.17756 0.381229,0 0.579677,-0.17756 0.20367,-0.18278 0.20367,-0.47001 0,-0.27156 -0.214115,-0.44912 -0.214114,-0.18278 -0.569232,-0.31856 l -0.08356,-0.0313 q -0.344673,0.14622 -0.527454,0.33945 -0.177558,0.188 -0.177558,0.47523 z m 6.674115,-0.91913 q 0,0.24023 -0.05745,0.47001 -0.05222,0.22978 -0.167114,0.41779 -0.114891,0.18278 -0.282005,0.29767 -0.167114,0.10967 -0.396896,0.10967 -0.240226,0 -0.381228,-0.13578 -0.13578,-0.14101 -0.167114,-0.31857 h -0.02611 q -0.094,0.19323 -0.276782,0.32379 -0.182781,0.13056 -0.459563,0.13056 -0.396896,0 -0.616233,-0.26634 -0.214115,-0.26634 -0.214115,-0.70501 0,-0.34468 0.13578,-0.60579 0.13578,-0.26634 0.381229,-0.41779 0.250671,-0.15144 0.590121,-0.15144 0.229782,0 0.449119,0.0418 0.224559,0.0366 0.349894,0.0836 l -0.05222,1.06013 q -0.0052,0.094 -0.0052,0.13578 0,0.0366 0,0.0522 0,0.27156 0.094,0.36034 0.09922,0.0888 0.229781,0.0888 0.161892,0 0.27156,-0.13056 0.114891,-0.13578 0.172337,-0.35511 0.06267,-0.22456 0.06267,-0.4909 0,-0.48567 -0.198447,-0.8199 -0.193226,-0.33945 -0.537898,-0.51701 -0.339451,-0.17756 -0.772902,-0.17756 -0.595344,0 -1.007906,0.24545 -0.40734,0.24545 -0.621455,0.6789 -0.208892,0.42823 -0.208892,0.98179 0,0.77291 0.40734,1.18547 0.40734,0.41256 1.17502,0.41256 0.31856,0 0.605788,-0.0731 0.292449,-0.0679 0.517008,-0.15145 v 0.35512 q -0.224559,0.094 -0.506564,0.15145 -0.276782,0.0627 -0.616232,0.0627 -0.616233,0 -1.054907,-0.22978 -0.438674,-0.22978 -0.673678,-0.65801 -0.229782,-0.43345 -0.229782,-1.03924 0,-0.48567 0.151447,-0.89824 0.151447,-0.41778 0.438674,-0.72068 0.287227,-0.30811 0.694568,-0.47523 0.412562,-0.17233 0.929571,-0.17233 0.54312,0 0.966127,0.22456 0.423007,0.22456 0.663233,0.64234 0.245449,0.41779 0.245449,0.99746 z m -2.637267,0.33423 q 0,0.33423 0.130558,0.48568 0.13578,0.15144 0.36034,0.15144 0.292449,0 0.417784,-0.21933 0.130558,-0.21934 0.151447,-0.56924 l 0.03133,-0.65278 q -0.06789,-0.0209 -0.172336,-0.0366 -0.104446,-0.0157 -0.214115,-0.0157 -0.255893,0 -0.412562,0.12534 -0.156669,0.12533 -0.22456,0.32378 -0.06789,0.19323 -0.06789,0.40734 z m 6.454776,-1.32124 q 0.47523,0 0.710234,0.24544 0.235004,0.24023 0.235004,0.78335 v 1.82259 h -0.454341 v -1.8017 q 0,-0.66323 -0.569232,-0.66323 -0.40734,0 -0.584899,0.235 -0.172336,0.23501 -0.172336,0.68412 v 1.54581 h -0.454341 v -1.8017 q 0,-0.66323 -0.574454,-0.66323 -0.423007,0 -0.584899,0.26111 -0.161891,0.26112 -0.161891,0.75202 v 1.4518 h -0.459564 v -2.79916 h 0.370784 l 0.06789,0.38123 h 0.02611 q 0.130558,-0.21934 0.349895,-0.32379 0.224559,-0.10966 0.47523,-0.10966 0.658011,0 0.856459,0.47 h 0.02611 q 0.141003,-0.24022 0.381229,-0.35511 0.245448,-0.11489 0.517009,-0.11489 z m 2.872269,0.005 q 0.511786,0 0.757234,0.22456 0.245449,0.22456 0.245449,0.71545 v 1.90615 H 40.34816 l -0.08878,-0.3969 h -0.02089 q -0.182781,0.22978 -0.386451,0.33945 -0.198448,0.10967 -0.553565,0.10967 -0.381229,0 -0.6319,-0.19845 -0.250671,-0.20367 -0.250671,-0.6319 0,-0.41778 0.329006,-0.64234 0.329006,-0.22978 1.013128,-0.25067 l 0.47523,-0.0157 v -0.16711 q 0,-0.3499 -0.151447,-0.48568 -0.151447,-0.13578 -0.428229,-0.13578 -0.219337,0 -0.417785,0.0679 -0.198448,0.0627 -0.370784,0.14623 l -0.141002,-0.34468 q 0.182781,-0.0992 0.433451,-0.16711 0.250671,-0.0731 0.522232,-0.0731 z m 0.13578,1.49358 q -0.522231,0.0209 -0.725902,0.16711 -0.198447,0.14623 -0.198447,0.41257 0,0.235 0.141002,0.34467 0.146225,0.10967 0.370784,0.10967 0.355117,0 0.590121,-0.19323 0.235004,-0.19845 0.235004,-0.60579 v -0.25067 z m 2.856607,1.4048 q -0.370784,0 -0.663233,-0.15145 -0.287227,-0.15144 -0.454341,-0.47 -0.161892,-0.31857 -0.161892,-0.81468 0,-0.51701 0.172336,-0.8408 0.172337,-0.32378 0.464786,-0.47523 0.297672,-0.15144 0.673678,-0.15144 0.214115,0 0.412563,0.047 0.198447,0.0418 0.323783,0.10444 l -0.141003,0.38123 q -0.125335,-0.047 -0.292449,-0.0888 -0.167114,-0.0418 -0.313339,-0.0418 -0.825125,0 -0.825125,1.06013 0,0.50657 0.198448,0.77813 0.20367,0.26634 0.600566,0.26634 0.229781,0 0.402118,-0.047 0.177558,-0.047 0.323783,-0.11489 v 0.40734 q -0.141002,0.0731 -0.313339,0.10967 -0.167114,0.0418 -0.40734,0.0418 z m 1.843475,-2.8566 q 0,0.20889 -0.02611,0.39167 h 0.03133 q 0.13578,-0.21411 0.365562,-0.32378 0.235004,-0.10967 0.506564,-0.10967 0.511786,0 0.76768,0.24545 0.255893,0.24022 0.255893,0.77812 v 1.82259 h -0.454341 v -1.79125 q 0,-0.67368 -0.626677,-0.67368 -0.470008,0 -0.647567,0.26634 -0.172336,0.26111 -0.172336,0.75201 v 1.44658 h -0.459563 v -3.96896 h 0.459563 z m 3.002827,-1.04446 q 0.104446,0 0.182781,0.0731 0.08356,0.0679 0.08356,0.21933 0,0.14623 -0.08356,0.21934 -0.07834,0.0731 -0.182781,0.0731 -0.114891,0 -0.193225,-0.0731 -0.07834,-0.0731 -0.07834,-0.21934 0,-0.15144 0.07834,-0.21933 0.07833,-0.0731 0.193225,-0.0731 z m 0.224559,1.04968 v 2.79916 H 47.28339 v -2.79916 z m 2.235144,-0.0522 q 0.501342,0 0.757235,0.24544 0.255893,0.24023 0.255893,0.78335 v 1.82259 h -0.454341 v -1.79125 q 0,-0.67368 -0.626677,-0.67368 -0.464785,0 -0.642344,0.26111 -0.177559,0.26112 -0.177559,0.75202 v 1.4518 h -0.459563 v -2.79916 h 0.370784 l 0.06789,0.38123 h 0.02611 q 0.13578,-0.21934 0.376006,-0.32379 0.240226,-0.10966 0.506564,-0.10966 z m 2.961053,0 q 0.360339,0 0.616232,0.15667 0.261116,0.15666 0.396896,0.44389 0.141002,0.28201 0.141002,0.66324 v 0.27678 h -1.916588 q 0.01044,0.47523 0.240227,0.7259 0.235004,0.24545 0.652788,0.24545 0.266338,0 0.470008,-0.047 0.208893,-0.0522 0.42823,-0.14623 v 0.40212 q -0.214115,0.094 -0.423007,0.13578 -0.208893,0.047 -0.49612,0.047 -0.396895,0 -0.705012,-0.16189 -0.302894,-0.16189 -0.47523,-0.48045 -0.167114,-0.32379 -0.167114,-0.78857 0,-0.45957 0.151447,-0.78857 0.156669,-0.32901 0.433452,-0.50657 0.282005,-0.17755 0.652789,-0.17755 z m -0.0052,0.376 q -0.329005,0 -0.522231,0.21412 -0.188003,0.20889 -0.224559,0.5849 h 1.425691 q -0.0052,-0.35512 -0.167114,-0.57446 -0.161892,-0.22456 -0.511787,-0.22456 z m 4.18829,0.80946 q -0.188003,-0.0836 -0.313338,-0.10967 -0.120114,-0.0313 -0.235004,-0.0313 -0.146225,0 -0.308117,0.0888 -0.161891,0.0888 -0.287227,0.21933 v -0.40734 q 0.250671,-0.27678 0.626678,-0.27678 0.151447,0 0.297671,0.0313 0.151447,0.0313 0.391673,0.13578 0.188004,0.0836 0.308117,0.11489 0.125335,0.0261 0.235004,0.0261 0.151447,0 0.313338,-0.0888 0.161892,-0.0888 0.287227,-0.21934 v 0.40212 q -0.255893,0.282 -0.626677,0.282 -0.146225,0 -0.302894,-0.0313 -0.151447,-0.0366 -0.386451,-0.13578 z m 2.903607,1.41002 q -0.287227,-0.005 -0.558787,-0.047 -0.271561,-0.047 -0.438674,-0.12533 v -0.4439 q 0.177558,0.0836 0.454341,0.14623 0.276782,0.0627 0.54312,0.0679 v -1.05491 q -0.517009,-0.141 -0.757235,-0.35512 -0.240226,-0.21411 -0.240226,-0.5849 0,-0.38645 0.266337,-0.60578 0.271561,-0.21934 0.731124,-0.24545 v -0.45957 h 0.334228 v 0.45435 q 0.276782,0.005 0.501341,0.0627 0.229782,0.0522 0.417785,0.13056 l -0.141002,0.38645 q -0.167114,-0.0679 -0.370784,-0.11489 -0.198448,-0.0522 -0.40734,-0.0679 v 1.04969 q 0.344672,0.0992 0.574454,0.21411 0.229781,0.10967 0.344672,0.27678 0.120113,0.16189 0.120113,0.42301 0,0.36556 -0.27156,0.59534 -0.27156,0.22456 -0.767679,0.27679 v 0.57967 h -0.334228 z m 0,-2.84615 q -0.282005,0.0209 -0.417785,0.13055 -0.130558,0.10967 -0.130558,0.28201 0,0.20889 0.114891,0.32378 0.120113,0.10967 0.433452,0.188 z m 0.334228,2.41793 q 0.308116,-0.0313 0.449118,-0.14101 0.141003,-0.11489 0.141003,-0.29245 0,-0.19844 -0.125336,-0.29767 -0.125335,-0.10444 -0.464785,-0.188 z"
       id="text2"
       aria-label="user:08@machine ~$" />
    <text
       xml:space="preserve"
       transform="matrix(0.26458333,0,0,0.26458333,7.0322231,45.662397)"
       id="text11001"
       style="font-style:normal;font-weight:normal;font-size:40px;line-height:1.25;font-family:sans-serif;white-space:pre;shape-inside:url(#rect11003);display:none;mix-blend-mode:normal;fill:#083464;fill-opacity:1;stroke:none"
       sodipodi:insensitive="true"><tspan
         x="-15.087891"
         y="-122.83741"
         id="tspan1">XFTerminal</tspan></text>
    <text
       xml:space="preserve"
       id="text11001-6"
       style="font-style:normal;font-weight:normal;font-size:40px;line-height:1.25;font-family:sans-serif;white-space:pre;shape-inside:url(#rect11003-3);display:none;fill:#ffffff;fill-opacity:1;stroke:none"
       transform="matrix(0.26458333,0,0,0.26458333,7.2193121,45.849485)"
       sodipodi:insensitive="true"><tspan
         x="-15.087891"
         y="-122.83741"
         id="tspan2">XFTerminal</tspan></text>
    <path
       d="m 8.1921094,-122.83741 h -4.08 l -7.56,-12.4 -7.6800004,12.4 h -3.8 l 9.4800004,-14.88 -8.8800004,-13.68 h 4 l 7.0000004,11.2 7.04,-11.2 h 3.8 l -8.84,13.6 z m 7.6400176,0 h -3.6 v -28.56 h 15.96 v 3.16 h -12.36 v 10.12 h 11.6 v 3.16 h -11.6 z m 26.199964,0 h -3.6 v -25.4 h -8.92 v -3.16 h 21.4 v 3.16 h -8.88 z m 18.200003,-21.84 q 2.76,0 4.72,1.2 2,1.2 3.04,3.4 1.08,2.16 1.08,5.08 v 2.12 h -14.68 q 0.08,3.64 1.84,5.56 1.8,1.88 5,1.88 2.04,0 3.6,-0.36 1.6,-0.4 3.28,-1.12 v 3.08 q -1.64,0.72 -3.24,1.04 -1.6,0.36 -3.8,0.36 -3.04,0 -5.4,-1.24 -2.32,-1.24 -3.64,-3.68 -1.28,-2.48 -1.28,-6.04 0,-3.52 1.16,-6.04 1.2,-2.52 3.32,-3.88 2.16,-1.36 5,-1.36 z m -0.04,2.88 q -2.52,0 -4,1.64 -1.44,1.6 -1.72,4.48 h 10.92 q -0.04,-2.72 -1.28,-4.4 -1.24,-1.72 -3.92,-1.72 z m 24.319967,-2.88 q 0.6,0 1.28,0.08 0.72,0.04 1.24,0.16 l -0.44,3.24 q -0.52,-0.12 -1.16,-0.2 -0.6,-0.08 -1.16,-0.08 -1.64,0 -3.08,0.92 -1.44,0.88 -2.32,2.52 -0.84,1.6 -0.84,3.76 v 11.44 h -3.52 v -21.44 h 2.88 l 0.4,3.92 h 0.16 q 1.04,-1.76 2.68,-3.04 1.64,-1.28 3.88,-1.28 z m 30.039999,0 q 3.64,0 5.44,1.88 1.8,1.84 1.8,6 v 13.96 h -3.48 v -13.8 q 0,-5.08 -4.36,-5.08 -3.12,0 -4.48,1.8 -1.32,1.8 -1.32,5.24 v 11.84 h -3.48 v -13.8 q 0,-5.08 -4.4,-5.08 -3.239995,0 -4.479995,2 -1.24,2 -1.24,5.76 v 11.12 h -3.52 v -21.44 h 2.84 l 0.52,2.92 h 0.2 q 1,-1.68 2.68,-2.48 1.72,-0.84 3.639995,-0.84 5.04,0 6.56,3.6 h 0.2 q 1.08,-1.84 2.92,-2.72 1.88,-0.88 3.96,-0.88 z m 15.67998,-7.64 q 0.8,0 1.4,0.56 0.64,0.52 0.64,1.68 0,1.12 -0.64,1.68 -0.6,0.56 -1.4,0.56 -0.88,0 -1.48,-0.56 -0.6,-0.56 -0.6,-1.68 0,-1.16 0.6,-1.68 0.6,-0.56 1.48,-0.56 z m 1.72,8.04 v 21.44 h -3.52 v -21.44 z m 17.11998,-0.4 q 3.84,0 5.8,1.88 1.96,1.84 1.96,6 v 13.96 h -3.48 v -13.72 q 0,-5.16 -4.8,-5.16 -3.56,0 -4.92,2 -1.36,2 -1.36,5.76 v 11.12 h -3.52 v -21.44 h 2.84 l 0.52,2.92 h 0.2 q 1.04,-1.68 2.88,-2.48 1.84,-0.84 3.88,-0.84 z m 22.52,0.04 q 3.92,0 5.8,1.72 1.88,1.72 1.88,5.48 v 14.6 h -2.56 l -0.68,-3.04 h -0.16 q -1.4,1.76 -2.96,2.6 -1.52,0.84 -4.24,0.84 -2.92,0 -4.84,-1.52 -1.92,-1.56 -1.92,-4.84 0,-3.2 2.52,-4.92 2.52,-1.76 7.76,-1.92 l 3.64,-0.12 v -1.28 q 0,-2.68 -1.16,-3.72 -1.16,-1.04 -3.28,-1.04 -1.68,0 -3.2,0.52 -1.52,0.48 -2.84,1.12 l -1.08,-2.64 q 1.4,-0.76 3.32,-1.28 1.92,-0.56 4,-0.56 z m 1.04,11.44 q -4,0.16 -5.56,1.28 -1.52,1.12 -1.52,3.16 0,1.8 1.08,2.64 1.12,0.84 2.84,0.84 2.72,0 4.52,-1.48 1.8,-1.52 1.8,-4.64 v -1.92 z m 16.80003,10.36 h -3.52 v -30.4 h 3.52 z"
       id="text3"
       style="font-size:40px;line-height:1.25;white-space:pre;fill:#083464"
       transform="matrix(0.26458333,0,0,0.26458333,7.0322231,45.662397)"
       aria-label="XFTerminal" />
    <path
       d="m 8.1921094,-122.83741 h -4.08 l -7.56,-12.4 -7.6800004,12.4 h -3.8 l 9.4800004,-14.88 -8.8800004,-13.68 h 4 l 7.0000004,11.2 7.04,-11.2 h 3.8 l -8.84,13.6 z m 7.6400176,0 h -3.6 v -28.56 h 15.96 v 3.16 h -12.36 v 10.12 h 11.6 v 3.16 h -11.6 z m 26.199964,0 h -3.6 v -25.4 h -8.92 v -3.16 h 21.4 v 3.16 h -8.88 z m 18.200003,-21.84 q 2.76,0 4.72,1.2 2,1.2 3.04,3.4 1.08,2.16 1.08,5.08 v 2.12 h -14.68 q 0.08,3.64 1.84,5.56 1.8,1.88 5,1.88 2.04,0 3.6,-0.36 1.6,-0.4 3.28,-1.12 v 3.08 q -1.64,0.72 -3.24,1.04 -1.6,0.36 -3.8,0.36 -3.04,0 -5.4,-1.24 -2.32,-1.24 -3.64,-3.68 -1.28,-2.48 -1.28,-6.04 0,-3.52 1.16,-6.04 1.2,-2.52 3.32,-3.88 2.16,-1.36 5,-1.36 z m -0.04,2.88 q -2.52,0 -4,1.64 -1.44,1.6 -1.72,4.48 h 10.92 q -0.04,-2.72 -1.28,-4.4 -1.24,-1.72 -3.92,-1.72 z m 24.319967,-2.88 q 0.6,0 1.28,0.08 0.72,0.04 1.24,0.16 l -0.44,3.24 q -0.52,-0.12 -1.16,-0.2 -0.6,-0.08 -1.16,-0.08 -1.64,0 -3.08,0.92 -1.44,0.88 -2.32,2.52 -0.84,1.6 -0.84,3.76 v 11.44 h -3.52 v -21.44 h 2.88 l 0.4,3.92 h 0.16 q 1.04,-1.76 2.68,-3.04 1.64,-1.28 3.88,-1.28 z m 30.039999,0 q 3.64,0 5.44,1.88 1.8,1.84 1.8,6 v 13.96 h -3.48 v -13.8 q 0,-5.08 -4.36,-5.08 -3.12,0 -4.48,1.8 -1.32,1.8 -1.32,5.24 v 11.84 h -3.48 v -13.8 q 0,-5.08 -4.4,-5.08 -3.239995,0 -4.479995,2 -1.24,2 -1.24,5.76 v 11.12 h -3.52 v -21.44 h 2.84 l 0.52,2.92 h 0.2 q 1,-1.68 2.68,-2.48 1.72,-0.84 3.639995,-0.84 5.04,0 6.56,3.6 h 0.2 q 1.08,-1.84 2.92,-2.72 1.88,-0.88 3.96,-0.88 z m 15.67998,-7.64 q 0.8,0 1.4,0.56 0.64,0.52 0.64,1.68 0,1.12 -0.64,1.68 -0.6,0.56 -1.4,0.56 -0.88,0 -1.48,-0.56 -0.6,-0.56 -0.6,-1.68 0,-1.16 0.6,-1.68 0.6,-0.56 1.48,-0.56 z m 1.72,8.04 v 21.44 h -3.52 v -21.44 z m 17.11998,-0.4 q 3.84,0 5.8,1.88 1.96,1.84 1.96,6 v 13.96 h -3.48 v -13.72 q 0,-5.16 -4.8,-5.16 -3.56,0 -4.92,2 -1.36,2 -1.36,5.76 v 11.12 h -3.52 v -21.44 h 2.84 l 0.52,2.92 h 0.2 q 1.04,-1.68 2.88,-2.48 1.84,-0.84 3.88,-0.84 z m 22.52,0.04 q 3.92,0 5.8,1.72 1.88,1.72 1.88,5.48 v 14.6 h -2.56 l -0.68,-3.04 h -0.16 q -1.4,1.76 -2.96,2.6 -1.52,0.84 -4.24,0.84 -2.92,0 -4.84,-1.52 -1.92,-1.56 -1.92,-4.84 0,-3.2 2.52,-4.92 2.52,-1.76 7.76,-1.92 l 3.64,-0.12 v -1.28 q 0,-2.68 -1.16,-3.72 -1.16,-1.04 -3.28,-1.04 -1.68,0 -3.2,0.52 -1.52,0.48 -2.84,1.12 l -1.08,-2.64 q 1.4,-0.76 3.32,-1.28 1.92,-0.56 4,-0.56 z m 1.04,11.44 q -4,0.16 -5.56,1.28 -1.52,1.12 -1.52,3.16 0,1.8 1.08,2.64 1.12,0.84 2.84,0.84 2.72,0 4.52,-1.48 1.8,-1.52 1.8,-4.64 v -1.92 z m 16.80003,10.36 h -3.52 v -30.4 h 3.52 z"
       id="text4"
       style="font-size:40px;line-height:1.25;white-space:pre;fill:#ffffff"
       transform="matrix(0.26458333,0,0,0.26458333,7.2193121,45.849485)"
       aria-label="XFTerminal" />
  </g>
  <g
     id="g33869"
     style="display:inline;opacity:0.338758;stroke:none;stroke-opacity:1"
     transform="matrix(0.94900178,0,0,0.94204611,14.92857,-4.3633608)"
     inkscape:label="scren-glow"
     sodipodi:insensitive="true">
    <g
       id="g56758"
       transform="translate(468.55269,-157.85085)"
       style="display:inline">
      <path
         id="rect739-9-6-0"
         style="display:inline;opacity:0.2;fill:url(#linearGradient46540);fill-opacity:1;stroke:none;stroke-width:2.99873;stroke-linecap:round;stroke-opacity:1;paint-order:fill markers stroke"
         d="m -475.25895,180.56756 h 124.63997 c 3.03863,0 5.48489,2.4527 5.48489,5.49932 0,0 2.7071,37.02096 2.7071,55.56457 0,18.54361 -2.7071,55.56458 -2.7071,55.56458 -0.14826,3.043 -2.44626,5.49931 -5.48489,5.49931 h -124.63997 c -3.03863,0 -5.48489,-2.45269 -5.48489,-5.49931 0,0 -2.70711,-37.02097 -2.70711,-55.56458 0,-18.54361 2.70711,-55.56457 2.70711,-55.56457 0.14826,-3.043 2.44626,-5.49932 5.48489,-5.49932 z"
         sodipodi:nodetypes="ssszsssszss" />
      <path
         id="rect739-9-6-0-8"
         style="display:inline;opacity:0.2;fill:url(#linearGradient46575);fill-opacity:1;stroke:none;stroke-width:2.99873;stroke-linecap:round;stroke-opacity:1;paint-order:fill markers stroke"
         d="m -475.25894,302.69534 h 124.63997 c 3.03863,0 5.48489,-2.4527 5.48489,-5.49932 0,0 2.7071,-37.02096 2.7071,-55.56457 0,-18.54361 -2.7071,-55.56458 -2.7071,-55.56458 -0.14826,-3.043 -2.44626,-5.49931 -5.48489,-5.49931 h -124.63997 c -3.03863,0 -5.48489,2.45269 -5.48489,5.49931 0,0 -2.70711,37.02097 -2.70711,55.56458 0,18.54361 2.70711,55.56457 2.70711,55.56457 0.14826,3.04299 2.44626,5.49932 5.48489,5.49932 z"
         sodipodi:nodetypes="ssszsssszss" />
      <path
         id="rect739-9-6-1"
         style="display:inline;opacity:0.2;fill:url(#linearGradient45044);fill-opacity:1;stroke:none;stroke-width:2.99873;stroke-linecap:round;stroke-opacity:1;paint-order:fill markers stroke"
         d="m -475.25894,180.56756 h 124.63997 c 3.03863,0 5.48489,2.4527 5.48489,5.49932 0,0 2.7071,37.02096 2.7071,55.56457 0,18.54361 -2.7071,55.56458 -2.7071,55.56458 -0.14826,3.043 -2.44626,5.49931 -5.48489,5.49931 h -124.63997 c -3.03863,0 -5.48489,-2.45269 -5.48489,-5.49931 0,0 -2.70711,-37.02097 -2.70711,-55.56458 0,-18.54361 2.70711,-55.56457 2.70711,-55.56457 0.14826,-3.04299 2.44626,-5.49932 5.48489,-5.49932 z"
         sodipodi:nodetypes="ssszsssszss" />
      <path
         id="rect739-9-6-1-8"
         style="display:inline;opacity:0.2;fill:url(#linearGradient45805);fill-opacity:1;stroke:none;stroke-width:2.99873;stroke-linecap:round;stroke-opacity:1;paint-order:fill markers stroke"
         d="m -350.61898,180.56756 h -124.63997 c -3.03863,0 -5.48489,2.4527 -5.48489,5.49932 0,0 -2.7071,37.02096 -2.7071,55.56457 0,18.54361 2.7071,55.56458 2.7071,55.56458 0.14826,3.043 2.44626,5.49931 5.48489,5.49931 h 124.63997 c 3.03863,0 5.48489,-2.45269 5.48489,-5.49931 0,0 2.70711,-37.02097 2.70711,-55.56458 0,-18.54361 -2.70711,-55.56457 -2.70711,-55.56457 -0.14826,-3.043 -2.44626,-5.49932 -5.48489,-5.49932 z"
         sodipodi:nodetypes="ssszsssszss" />
    </g>
    <path
       id="rect739-9-7"
       style="display:inline;fill:url(#radialGradient89388);fill-opacity:1;stroke:none;stroke-width:2.83535;stroke-linecap:round;paint-order:fill markers stroke"
       d="M 8.5915639,17.613975 H 126.8751 c 2.88366,0 5.20516,2.31056 5.20516,5.18062 0,0 2.56905,34.87545 2.56905,52.34438 0,17.46894 -2.56905,52.344395 -2.56905,52.344395 -0.1407,2.86666 -2.3215,5.18061 -5.20516,5.18061 H 8.5915639 c -2.88367,0 -5.20517,-2.31054 -5.20517,-5.18061 0,0 -2.56904999,-34.875455 -2.56904999,-52.344395 0,-17.46893 2.56904999,-52.34438 2.56904999,-52.34438 0.1407,-2.86665 2.3215,-5.18062 5.20517,-5.18062 z"
       sodipodi:nodetypes="ssszsssszss"
       inkscape:label="dark center"
       transform="matrix(1.0537388,0,0,1.0615192,-15.730813,4.6317911)" />
  </g>
  <g
     inkscape:groupmode="layer"
     id="layer2"
     inkscape:label="low-glow"
     style="display:inline;opacity:0.31834"
     sodipodi:insensitive="true">
    <path
       id="rect1208-4"
       style="display:inline;opacity:0.369063;mix-blend-mode:normal;fill:url(#linearGradient21352);stroke-width:0.51513;stroke-linecap:round;paint-order:fill markers stroke;filter:url(#filter21355)"
       d="M 16.193855,15.357987 H 0.73947559 V 8.7108042 c 0,0 2.42627801,0.6082086 3.80653101,0.6162146 1.380253,0.008 2.6379394,-0.07301 3.9206644,-0.6162146 1.282725,-0.543206 2.444425,-0.466028 3.774943,-0.47336 1.330518,-0.0073 3.952241,1.0025267 3.952241,1.0025267 z"
       sodipodi:nodetypes="ccczzzcc"
       transform="matrix(8.0000002,0,0,8.0000002,9.2800003e-6,6.7357724)" />
  </g>
  <g
     id="g29621"
     transform="matrix(1.0291555,0,0,1.0285396,-154.46139,-2.2746938)"
     style="display:inline;opacity:1;mix-blend-mode:normal"
     inkscape:label="scanlines"
     sodipodi:insensitive="true">
    <path
       id="rect10958-47-7"
       style="fill:#000000;fill-opacity:1;stroke:none;stroke-width:0.466467;stroke-linecap:round;stroke-linejoin:bevel;stroke-opacity:1;paint-order:markers fill stroke"
       d="m 151.50553,17.065625 c -0.0584,0 -0.10542,0.04752 -0.10542,0.105937 0,0.05842 0.047,0.10542 0.10542,0.10542 h 128.78904 c 0.0584,0 0.10542,-0.047 0.10542,-0.10542 0,-0.05842 -0.047,-0.105937 -0.10542,-0.105937 z m 0,0.75706 c -0.0584,0 -0.10542,0.047 -0.10542,0.10542 0,0.05842 0.047,0.105936 0.10542,0.105936 h 128.78904 c 0.0584,0 0.10542,-0.04751 0.10542,-0.105936 0,-0.05842 -0.047,-0.10542 -0.10542,-0.10542 z m 0,0.757059 c -0.0584,0 -0.10542,0.047 -0.10542,0.10542 0,0.05842 0.047,0.10542 0.10542,0.10542 h 128.78904 c 0.0584,0 0.10542,-0.047 0.10542,-0.10542 0,-0.05842 -0.047,-0.10542 -0.10542,-0.10542 z m 0,0.75706 c -0.0584,0 -0.10542,0.047 -0.10542,0.10542 0,0.05842 0.047,0.10542 0.10542,0.10542 h 128.78904 c 0.0584,0 0.10542,-0.047 0.10542,-0.10542 0,-0.05842 -0.047,-0.10542 -0.10542,-0.10542 z m 0,0.75706 c -0.0584,0 -0.10542,0.047 -0.10542,0.10542 0,0.05842 0.047,0.10542 0.10542,0.10542 h 128.78904 c 0.0584,0 0.10542,-0.047 0.10542,-0.10542 0,-0.05842 -0.047,-0.10542 -0.10542,-0.10542 z m 0,0.75706 c -0.0584,0 -0.10542,0.047 -0.10542,0.10542 0,0.05842 0.047,0.10542 0.10542,0.10542 h 128.78904 c 0.0584,0 0.10542,-0.047 0.10542,-0.10542 0,-0.05842 -0.047,-0.10542 -0.10542,-0.10542 z m 0,0.757059 c -0.0584,0 -0.10542,0.047 -0.10542,0.10542 0,0.05842 0.047,0.10542 0.10542,0.10542 h 128.78904 c 0.0584,0 0.10542,-0.047 0.10542,-0.10542 0,-0.05842 -0.047,-0.10542 -0.10542,-0.10542 z m 0,0.75706 c -0.0584,0 -0.10542,0.047 -0.10542,0.10542 0,0.05842 0.047,0.10542 0.10542,0.10542 h 128.78904 c 0.0584,0 0.10542,-0.047 0.10542,-0.10542 0,-0.05842 -0.047,-0.10542 -0.10542,-0.10542 z m 0,0.75706 c -0.0584,0 -0.10542,0.047 -0.10542,0.10542 0,0.05842 0.047,0.10542 0.10542,0.10542 h 128.78904 c 0.0584,0 0.10542,-0.047 0.10542,-0.10542 0,-0.05842 -0.047,-0.10542 -0.10542,-0.10542 z m 0,0.75706 c -0.0584,0 -0.10542,0.047 -0.10542,0.10542 0,0.05842 0.047,0.105419 0.10542,0.105419 h 128.78904 c 0.0584,0 0.10542,-0.047 0.10542,-0.105419 0,-0.05842 -0.047,-0.10542 -0.10542,-0.10542 z m 0,0.757059 c -0.0584,0 -0.10542,0.047 -0.10542,0.10542 0,0.05842 0.047,0.10542 0.10542,0.10542 h 128.78904 c 0.0584,0 0.10542,-0.047 0.10542,-0.10542 0,-0.05842 -0.047,-0.10542 -0.10542,-0.10542 z m 0,0.75706 c -0.0584,0 -0.10542,0.047 -0.10542,0.10542 0,0.05842 0.047,0.10542 0.10542,0.10542 h 128.78904 c 0.0584,0 0.10542,-0.047 0.10542,-0.10542 0,-0.05842 -0.047,-0.10542 -0.10542,-0.10542 z m 0,0.75706 c -0.0584,0 -0.10542,0.047 -0.10542,0.10542 0,0.05842 0.047,0.10542 0.10542,0.10542 h 128.78904 c 0.0584,0 0.10542,-0.047 0.10542,-0.10542 0,-0.05842 -0.047,-0.10542 -0.10542,-0.10542 z m 0,0.756543 c -0.0584,0 -0.10542,0.04751 -0.10542,0.105936 0,0.05842 0.047,0.10542 0.10542,0.10542 h 128.78904 c 0.0584,0 0.10542,-0.047 0.10542,-0.10542 0,-0.05842 -0.047,-0.105936 -0.10542,-0.105936 z m 0,0.757059 c -0.0584,0 -0.10542,0.047 -0.10542,0.10542 0,0.05842 0.047,0.105937 0.10542,0.105937 h 128.78904 c 0.0584,0 0.10542,-0.04752 0.10542,-0.105937 0,-0.05842 -0.047,-0.10542 -0.10542,-0.10542 z m 0,0.75706 c -0.0584,0 -0.10542,0.047 -0.10542,0.10542 0,0.05842 0.047,0.10542 0.10542,0.10542 h 128.78904 c 0.0584,0 0.10542,-0.047 0.10542,-0.10542 0,-0.05842 -0.047,-0.10542 -0.10542,-0.10542 z m 0,0.75706 c -0.0584,0 -0.10542,0.047 -0.10542,0.10542 0,0.05842 0.047,0.10542 0.10542,0.10542 h 128.78904 c 0.0584,0 0.10542,-0.047 0.10542,-0.10542 0,-0.05842 -0.047,-0.10542 -0.10542,-0.10542 z m 0,0.75706 c -0.0584,0 -0.10542,0.047 -0.10542,0.10542 0,0.05842 0.047,0.10542 0.10542,0.10542 h 128.78904 c 0.0584,0 0.10542,-0.047 0.10542,-0.10542 0,-0.05842 -0.047,-0.10542 -0.10542,-0.10542 z m 0,0.757059 c -0.0584,0 -0.10542,0.047 -0.10542,0.10542 0,0.05842 0.047,0.10542 0.10542,0.10542 h 128.78904 c 0.0584,0 0.10542,-0.047 0.10542,-0.10542 0,-0.05842 -0.047,-0.10542 -0.10542,-0.10542 z m 0,0.75706 c -0.0584,0 -0.10542,0.047 -0.10542,0.10542 0,0.05842 0.047,0.10542 0.10542,0.10542 h 128.78904 c 0.0584,0 0.10542,-0.047 0.10542,-0.10542 0,-0.05842 -0.047,-0.10542 -0.10542,-0.10542 z m 0,0.75706 c -0.0584,0 -0.10542,0.047 -0.10542,0.10542 0,0.05842 0.047,0.10542 0.10542,0.10542 h 128.78904 c 0.0584,0 0.10542,-0.047 0.10542,-0.10542 0,-0.05842 -0.047,-0.10542 -0.10542,-0.10542 z m 0,0.75706 c -0.0584,0 -0.10542,0.047 -0.10542,0.10542 0,0.05842 0.047,0.105419 0.10542,0.105419 h 128.78904 c 0.0584,0 0.10542,-0.047 0.10542,-0.105419 0,-0.05842 -0.047,-0.10542 -0.10542,-0.10542 z m 0,0.757059 c -0.0584,0 -0.10542,0.047 -0.10542,0.10542 0,0.05842 0.047,0.10542 0.10542,0.10542 h 128.78904 c 0.0584,0 0.10542,-0.047 0.10542,-0.10542 0,-0.05842 -0.047,-0.10542 -0.10542,-0.10542 z m 0,0.75706 c -0.0584,0 -0.10542,0.047 -0.10542,0.10542 0,0.05842 0.047,0.10542 0.10542,0.10542 h 128.78904 c 0.0584,0 0.10542,-0.047 0.10542,-0.10542 0,-0.05842 -0.047,-0.10542 -0.10542,-0.10542 z m 0,0.75706 c -0.0584,0 -0.10542,0.047 -0.10542,0.10542 0,0.05842 0.047,0.10542 0.10542,0.10542 h 128.78904 c 0.0584,0 0.10542,-0.047 0.10542,-0.10542 0,-0.05842 -0.047,-0.10542 -0.10542,-0.10542 z m 0,0.756543 c -0.0584,0 -0.10542,0.04751 -0.10542,0.105936 0,0.05842 0.047,0.10542 0.10542,0.10542 h 128.78904 c 0.0584,0 0.10542,-0.047 0.10542,-0.10542 0,-0.05842 -0.047,-0.105936 -0.10542,-0.105936 z m 0,0.75706 c -0.0584,0 -0.10542,0.047 -0.10542,0.105419 0,0.05842 0.047,0.105937 0.10542,0.105937 h 128.78904 c 0.0584,0 0.10542,-0.04752 0.10542,-0.105937 0,-0.05842 -0.047,-0.105419 -0.10542,-0.105419 z m 0,0.757059 c -0.0584,0 -0.10542,0.047 -0.10542,0.10542 0,0.05842 0.047,0.10542 0.10542,0.10542 h 128.78904 c 0.0584,0 0.10542,-0.047 0.10542,-0.10542 0,-0.05842 -0.047,-0.10542 -0.10542,-0.10542 z m 0,0.75706 c -0.0584,0 -0.10542,0.047 -0.10542,0.10542 0,0.05842 0.047,0.10542 0.10542,0.10542 h 128.78904 c 0.0584,0 0.10542,-0.047 0.10542,-0.10542 0,-0.05842 -0.047,-0.10542 -0.10542,-0.10542 z m 0,0.75706 c -0.0584,0 -0.10542,0.047 -0.10542,0.10542 0,0.05842 0.047,0.10542 0.10542,0.10542 h 128.78904 c 0.0584,0 0.10542,-0.047 0.10542,-0.10542 0,-0.05842 -0.047,-0.10542 -0.10542,-0.10542 z m 0,0.757059 c -0.0584,0 -0.10542,0.047 -0.10542,0.10542 0,0.05842 0.047,0.10542 0.10542,0.10542 h 128.78904 c 0.0584,0 0.10542,-0.047 0.10542,-0.10542 0,-0.05842 -0.047,-0.10542 -0.10542,-0.10542 z m 0,0.75706 c -0.0584,0 -0.10542,0.047 -0.10542,0.10542 0,0.05842 0.047,0.10542 0.10542,0.10542 h 128.78904 c 0.0584,0 0.10542,-0.047 0.10542,-0.10542 0,-0.05842 -0.047,-0.10542 -0.10542,-0.10542 z m 0,0.75706 c -0.0584,0 -0.10542,0.047 -0.10542,0.10542 0,0.05842 0.047,0.10542 0.10542,0.10542 h 128.78904 c 0.0584,0 0.10542,-0.047 0.10542,-0.10542 0,-0.05842 -0.047,-0.10542 -0.10542,-0.10542 z m 0,0.75706 c -0.0584,0 -0.10542,0.047 -0.10542,0.10542 0,0.05842 0.047,0.10542 0.10542,0.10542 h 128.78904 c 0.0584,0 0.10542,-0.047 0.10542,-0.10542 0,-0.05842 -0.047,-0.10542 -0.10542,-0.10542 z m 0,0.757059 c -0.0584,0 -0.10542,0.047 -0.10542,0.10542 0,0.05842 0.047,0.10542 0.10542,0.10542 h 128.78904 c 0.0584,0 0.10542,-0.047 0.10542,-0.10542 0,-0.05842 -0.047,-0.10542 -0.10542,-0.10542 z m 0,0.75706 c -0.0584,0 -0.10542,0.047 -0.10542,0.10542 0,0.05842 0.047,0.10542 0.10542,0.10542 h 128.78904 c 0.0584,0 0.10542,-0.047 0.10542,-0.10542 0,-0.05842 -0.047,-0.10542 -0.10542,-0.10542 z m 0,0.75706 c -0.0584,0 -0.10542,0.047 -0.10542,0.10542 0,0.05842 0.047,0.10542 0.10542,0.10542 h 128.78904 c 0.0584,0 0.10542,-0.047 0.10542,-0.10542 0,-0.05842 -0.047,-0.10542 -0.10542,-0.10542 z m 0,0.75706 c -0.0584,0 -0.10542,0.047 -0.10542,0.10542 0,0.05842 0.047,0.105419 0.10542,0.105419 h 128.78904 c 0.0584,0 0.10542,-0.047 0.10542,-0.105419 0,-0.05842 -0.047,-0.10542 -0.10542,-0.10542 z m 0,0.756543 c -0.0584,0 -0.10542,0.04751 -0.10542,0.105936 0,0.05842 0.047,0.10542 0.10542,0.10542 h 128.78904 c 0.0584,0 0.10542,-0.047 0.10542,-0.10542 0,-0.05842 -0.047,-0.105936 -0.10542,-0.105936 z m 0,0.757059 c -0.0584,0 -0.10542,0.047 -0.10542,0.10542 0,0.05842 0.047,0.10542 0.10542,0.10542 h 128.78904 c 0.0584,0 0.10542,-0.047 0.10542,-0.10542 0,-0.05842 -0.047,-0.10542 -0.10542,-0.10542 z m 0,0.75706 c -0.0584,0 -0.10542,0.047 -0.10542,0.10542 0,0.05842 0.047,0.10542 0.10542,0.10542 h 128.78904 c 0.0584,0 0.10542,-0.047 0.10542,-0.10542 0,-0.05842 -0.047,-0.10542 -0.10542,-0.10542 z m 0,0.75706 c -0.0584,0 -0.10542,0.047 -0.10542,0.10542 0,0.05842 0.047,0.10542 0.10542,0.10542 h 128.78904 c 0.0584,0 0.10542,-0.047 0.10542,-0.10542 0,-0.05842 -0.047,-0.10542 -0.10542,-0.10542 z m 0,0.757059 c -0.0584,0 -0.10542,0.047 -0.10542,0.10542 0,0.05842 0.047,0.10542 0.10542,0.10542 h 128.78904 c 0.0584,0 0.10542,-0.047 0.10542,-0.10542 0,-0.05842 -0.047,-0.10542 -0.10542,-0.10542 z m 0,0.75706 c -0.0584,0 -0.10542,0.047 -0.10542,0.10542 0,0.05842 0.047,0.10542 0.10542,0.10542 h 128.78904 c 0.0584,0 0.10542,-0.047 0.10542,-0.10542 0,-0.05842 -0.047,-0.10542 -0.10542,-0.10542 z m 0,0.75706 c -0.0584,0 -0.10542,0.047 -0.10542,0.10542 0,0.05842 0.047,0.10542 0.10542,0.10542 h 128.78904 c 0.0584,0 0.10542,-0.047 0.10542,-0.10542 0,-0.05842 -0.047,-0.10542 -0.10542,-0.10542 z m 0,0.75706 c -0.0584,0 -0.10542,0.047 -0.10542,0.10542 0,0.05842 0.047,0.10542 0.10542,0.10542 h 128.78904 c 0.0584,0 0.10542,-0.047 0.10542,-0.10542 0,-0.05842 -0.047,-0.10542 -0.10542,-0.10542 z m 0,0.757059 c -0.0584,0 -0.10542,0.047 -0.10542,0.10542 0,0.05842 0.047,0.10542 0.10542,0.10542 h 128.78904 c 0.0584,0 0.10542,-0.047 0.10542,-0.10542 0,-0.05842 -0.047,-0.10542 -0.10542,-0.10542 z m 0,0.75706 c -0.0584,0 -0.10542,0.047 -0.10542,0.10542 0,0.05842 0.047,0.10542 0.10542,0.10542 h 128.78904 c 0.0584,0 0.10542,-0.047 0.10542,-0.10542 0,-0.05842 -0.047,-0.10542 -0.10542,-0.10542 z m 0,0.75706 c -0.0584,0 -0.10542,0.047 -0.10542,0.10542 0,0.05842 0.047,0.10542 0.10542,0.10542 h 128.78904 c 0.0584,0 0.10542,-0.047 0.10542,-0.10542 0,-0.05842 -0.047,-0.10542 -0.10542,-0.10542 z m 0,0.75706 c -0.0584,0 -0.10542,0.047 -0.10542,0.10542 0,0.05842 0.047,0.105419 0.10542,0.105419 h 128.78904 c 0.0584,0 0.10542,-0.047 0.10542,-0.105419 0,-0.05842 -0.047,-0.10542 -0.10542,-0.10542 z m 0,0.756543 c -0.0584,0 -0.10542,0.04751 -0.10542,0.105936 0,0.05842 0.047,0.10542 0.10542,0.10542 h 128.78904 c 0.0584,0 0.10542,-0.047 0.10542,-0.10542 0,-0.05842 -0.047,-0.105936 -0.10542,-0.105936 z m 0,0.757059 c -0.0584,0 -0.10542,0.047 -0.10542,0.10542 0,0.05842 0.047,0.105937 0.10542,0.105937 h 128.78904 c 0.0584,0 0.10542,-0.04751 0.10542,-0.105937 0,-0.05842 -0.047,-0.10542 -0.10542,-0.10542 z m 0,0.75706 c -0.0584,0 -0.10542,0.047 -0.10542,0.10542 0,0.05842 0.047,0.10542 0.10542,0.10542 h 128.78904 c 0.0584,0 0.10542,-0.047 0.10542,-0.10542 0,-0.05842 -0.047,-0.10542 -0.10542,-0.10542 z m 0,0.75706 c -0.0584,0 -0.10542,0.047 -0.10542,0.10542 0,0.05842 0.047,0.10542 0.10542,0.10542 h 128.78904 c 0.0584,0 0.10542,-0.047 0.10542,-0.10542 0,-0.05842 -0.047,-0.10542 -0.10542,-0.10542 z m 0,0.75706 c -0.0584,0 -0.10542,0.047 -0.10542,0.105419 0,0.05842 0.047,0.10542 0.10542,0.10542 h 128.78904 c 0.0584,0 0.10542,-0.047 0.10542,-0.10542 0,-0.05842 -0.047,-0.105419 -0.10542,-0.105419 z m 0,0.757059 c -0.0584,0 -0.10542,0.047 -0.10542,0.10542 0,0.05842 0.047,0.10542 0.10542,0.10542 h 128.78904 c 0.0584,0 0.10542,-0.047 0.10542,-0.10542 0,-0.05842 -0.047,-0.10542 -0.10542,-0.10542 z m 0,0.75706 c -0.0584,0 -0.10542,0.047 -0.10542,0.10542 0,0.05842 0.047,0.10542 0.10542,0.10542 h 128.78904 c 0.0584,0 0.10542,-0.047 0.10542,-0.10542 0,-0.05842 -0.047,-0.10542 -0.10542,-0.10542 z m 0,0.75706 c -0.0584,0 -0.10542,0.047 -0.10542,0.10542 0,0.05842 0.047,0.10542 0.10542,0.10542 h 128.78904 c 0.0584,0 0.10542,-0.047 0.10542,-0.10542 0,-0.05842 -0.047,-0.10542 -0.10542,-0.10542 z m 0,0.757059 c -0.0584,0 -0.10542,0.047 -0.10542,0.10542 0,0.05842 0.047,0.10542 0.10542,0.10542 h 128.78904 c 0.0584,0 0.10542,-0.047 0.10542,-0.10542 0,-0.05842 -0.047,-0.10542 -0.10542,-0.10542 z m 0,0.75706 c -0.0584,0 -0.10542,0.047 -0.10542,0.10542 0,0.05842 0.047,0.10542 0.10542,0.10542 h 128.78904 c 0.0584,0 0.10542,-0.047 0.10542,-0.10542 0,-0.05842 -0.047,-0.10542 -0.10542,-0.10542 z m 0,0.75706 c -0.0584,0 -0.10542,0.047 -0.10542,0.10542 0,0.05842 0.047,0.10542 0.10542,0.10542 h 128.78904 c 0.0584,0 0.10542,-0.047 0.10542,-0.10542 0,-0.05842 -0.047,-0.10542 -0.10542,-0.10542 z m 0,0.75706 c -0.0584,0 -0.10542,0.047 -0.10542,0.10542 0,0.05842 0.047,0.10542 0.10542,0.10542 h 128.78904 c 0.0584,0 0.10542,-0.047 0.10542,-0.10542 0,-0.05842 -0.047,-0.10542 -0.10542,-0.10542 z m 0,0.757059 c -0.0584,0 -0.10542,0.047 -0.10542,0.10542 0,0.05842 0.047,0.10542 0.10542,0.10542 h 128.78904 c 0.0584,0 0.10542,-0.047 0.10542,-0.10542 0,-0.05842 -0.047,-0.10542 -0.10542,-0.10542 z m 0,0.756543 c -0.0584,0 -0.10542,0.047 -0.10542,0.10542 0,0.05842 0.047,0.105937 0.10542,0.105937 h 128.78904 c 0.0584,0 0.10542,-0.04752 0.10542,-0.105937 0,-0.05842 -0.047,-0.10542 -0.10542,-0.10542 z m 0,0.75706 c -0.0584,0 -0.10542,0.047 -0.10542,0.10542 0,0.05842 0.047,0.10542 0.10542,0.10542 h 128.78904 c 0.0584,0 0.10542,-0.047 0.10542,-0.10542 0,-0.05842 -0.047,-0.10542 -0.10542,-0.10542 z m 0,0.75706 c -0.0584,0 -0.10542,0.047 -0.10542,0.10542 0,0.05842 0.047,0.10542 0.10542,0.10542 h 128.78904 c 0.0584,0 0.10542,-0.047 0.10542,-0.10542 0,-0.05842 -0.047,-0.10542 -0.10542,-0.10542 z m 0,0.75706 c -0.0584,0 -0.10542,0.047 -0.10542,0.105419 0,0.05842 0.047,0.10542 0.10542,0.10542 h 128.78904 c 0.0584,0 0.10542,-0.047 0.10542,-0.10542 0,-0.05842 -0.047,-0.105419 -0.10542,-0.105419 z m 0,0.757059 c -0.0584,0 -0.10542,0.047 -0.10542,0.10542 0,0.05842 0.047,0.10542 0.10542,0.10542 h 128.78904 c 0.0584,0 0.10542,-0.047 0.10542,-0.10542 0,-0.05842 -0.047,-0.10542 -0.10542,-0.10542 z m 0,0.75706 c -0.0584,0 -0.10542,0.047 -0.10542,0.10542 0,0.05842 0.047,0.10542 0.10542,0.10542 h 128.78904 c 0.0584,0 0.10542,-0.047 0.10542,-0.10542 0,-0.05842 -0.047,-0.10542 -0.10542,-0.10542 z m 0,0.75706 c -0.0584,0 -0.10542,0.047 -0.10542,0.10542 0,0.05842 0.047,0.10542 0.10542,0.10542 h 128.78904 c 0.0584,0 0.10542,-0.047 0.10542,-0.10542 0,-0.05842 -0.047,-0.10542 -0.10542,-0.10542 z m 0,0.757059 c -0.0584,0 -0.10542,0.047 -0.10542,0.10542 0,0.05842 0.047,0.10542 0.10542,0.10542 h 128.78904 c 0.0584,0 0.10542,-0.047 0.10542,-0.10542 0,-0.05842 -0.047,-0.10542 -0.10542,-0.10542 z m 0,0.75706 c -0.0584,0 -0.10542,0.047 -0.10542,0.10542 0,0.05842 0.047,0.10542 0.10542,0.10542 h 128.78904 c 0.0584,0 0.10542,-0.047 0.10542,-0.10542 0,-0.05842 -0.047,-0.10542 -0.10542,-0.10542 z m 0,0.75706 c -0.0584,0 -0.10542,0.047 -0.10542,0.10542 0,0.05842 0.047,0.10542 0.10542,0.10542 h 128.78904 c 0.0584,0 0.10542,-0.047 0.10542,-0.10542 0,-0.05842 -0.047,-0.10542 -0.10542,-0.10542 z m 0,0.75706 c -0.0584,0 -0.10542,0.047 -0.10542,0.10542 0,0.05842 0.047,0.10542 0.10542,0.10542 h 128.78904 c 0.0584,0 0.10542,-0.047 0.10542,-0.10542 0,-0.05842 -0.047,-0.10542 -0.10542,-0.10542 z m 0,0.757059 c -0.0584,0 -0.10542,0.047 -0.10542,0.10542 0,0.05842 0.047,0.10542 0.10542,0.10542 h 128.78904 c 0.0584,0 0.10542,-0.047 0.10542,-0.10542 0,-0.05842 -0.047,-0.10542 -0.10542,-0.10542 z m 0,0.756543 c -0.0584,0 -0.10542,0.04752 -0.10542,0.105937 0,0.05842 0.047,0.10542 0.10542,0.10542 h 128.78904 c 0.0584,0 0.10542,-0.047 0.10542,-0.10542 0,-0.05842 -0.047,-0.105937 -0.10542,-0.105937 z m 0,0.75706 c -0.0584,0 -0.10542,0.047 -0.10542,0.10542 0,0.05842 0.047,0.105937 0.10542,0.105937 h 128.78904 c 0.0584,0 0.10542,-0.04752 0.10542,-0.105937 0,-0.05842 -0.047,-0.10542 -0.10542,-0.10542 z m 0,0.75706 c -0.0584,0 -0.10542,0.047 -0.10542,0.10542 0,0.05842 0.047,0.10542 0.10542,0.10542 h 128.78904 c 0.0584,0 0.10542,-0.047 0.10542,-0.10542 0,-0.05842 -0.047,-0.10542 -0.10542,-0.10542 z m 0,0.75706 c -0.0584,0 -0.10542,0.047 -0.10542,0.10542 0,0.05842 0.047,0.105419 0.10542,0.105419 h 128.78904 c 0.0584,0 0.10542,-0.047 0.10542,-0.105419 0,-0.05842 -0.047,-0.10542 -0.10542,-0.10542 z m 0,0.757059 c -0.0584,0 -0.10542,0.047 -0.10542,0.10542 0,0.05842 0.047,0.10542 0.10542,0.10542 h 128.78904 c 0.0584,0 0.10542,-0.047 0.10542,-0.10542 0,-0.05842 -0.047,-0.10542 -0.10542,-0.10542 z m 0,0.75706 c -0.0584,0 -0.10542,0.047 -0.10542,0.10542 0,0.05842 0.047,0.10542 0.10542,0.10542 h 128.78904 c 0.0584,0 0.10542,-0.047 0.10542,-0.10542 0,-0.05842 -0.047,-0.10542 -0.10542,-0.10542 z m 0,0.75706 c -0.0584,0 -0.10542,0.047 -0.10542,0.10542 0,0.05842 0.047,0.10542 0.10542,0.10542 h 128.78904 c 0.0584,0 0.10542,-0.047 0.10542,-0.10542 0,-0.05842 -0.047,-0.10542 -0.10542,-0.10542 z m 0,0.75706 c -0.0584,0 -0.10542,0.047 -0.10542,0.105419 0,0.05842 0.047,0.10542 0.10542,0.10542 h 128.78904 c 0.0584,0 0.10542,-0.047 0.10542,-0.10542 0,-0.05842 -0.047,-0.105419 -0.10542,-0.105419 z m 0,0.757059 c -0.0584,0 -0.10542,0.047 -0.10542,0.10542 0,0.05842 0.047,0.10542 0.10542,0.10542 h 128.78904 c 0.0584,0 0.10542,-0.047 0.10542,-0.10542 0,-0.05842 -0.047,-0.10542 -0.10542,-0.10542 z m 0,0.75706 c -0.0584,0 -0.10542,0.047 -0.10542,0.10542 0,0.05842 0.047,0.10542 0.10542,0.10542 h 128.78904 c 0.0584,0 0.10542,-0.047 0.10542,-0.10542 0,-0.05842 -0.047,-0.10542 -0.10542,-0.10542 z m 0,0.75706 c -0.0584,0 -0.10542,0.047 -0.10542,0.10542 0,0.05842 0.047,0.10542 0.10542,0.10542 h 128.78904 c 0.0584,0 0.10542,-0.047 0.10542,-0.10542 0,-0.05842 -0.047,-0.10542 -0.10542,-0.10542 z m 0,0.757059 c -0.0584,0 -0.10542,0.047 -0.10542,0.10542 0,0.05842 0.047,0.10542 0.10542,0.10542 h 128.78904 c 0.0584,0 0.10542,-0.047 0.10542,-0.10542 0,-0.05842 -0.047,-0.10542 -0.10542,-0.10542 z m 0,0.756543 c -0.0584,0 -0.10542,0.04752 -0.10542,0.105937 0,0.05842 0.047,0.10542 0.10542,0.10542 h 128.78904 c 0.0584,0 0.10542,-0.047 0.10542,-0.10542 0,-0.05842 -0.047,-0.105937 -0.10542,-0.105937 z m 0,0.75706 c -0.0584,0 -0.10542,0.047 -0.10542,0.10542 0,0.05842 0.047,0.105937 0.10542,0.105937 h 128.78904 c 0.0584,0 0.10542,-0.04752 0.10542,-0.105937 0,-0.05842 -0.047,-0.10542 -0.10542,-0.10542 z m 0,0.75706 c -0.0584,0 -0.10542,0.047 -0.10542,0.10542 0,0.05842 0.047,0.10542 0.10542,0.10542 h 128.78904 c 0.0584,0 0.10542,-0.047 0.10542,-0.10542 0,-0.05842 -0.047,-0.10542 -0.10542,-0.10542 z m 0,0.75706 c -0.0584,0 -0.10542,0.047 -0.10542,0.10542 0,0.05842 0.047,0.105419 0.10542,0.105419 h 128.78904 c 0.0584,0 0.10542,-0.047 0.10542,-0.105419 0,-0.05842 -0.047,-0.10542 -0.10542,-0.10542 z m 0,0.757059 c -0.0584,0 -0.10542,0.047 -0.10542,0.10542 0,0.05842 0.047,0.10542 0.10542,0.10542 h 128.78904 c 0.0584,0 0.10542,-0.047 0.10542,-0.10542 0,-0.05842 -0.047,-0.10542 -0.10542,-0.10542 z m 0,0.75706 c -0.0584,0 -0.10542,0.047 -0.10542,0.10542 0,0.05842 0.047,0.10542 0.10542,0.10542 h 128.78904 c 0.0584,0 0.10542,-0.047 0.10542,-0.10542 0,-0.05842 -0.047,-0.10542 -0.10542,-0.10542 z m 0,0.75706 c -0.0584,0 -0.10542,0.047 -0.10542,0.10542 0,0.05842 0.047,0.10542 0.10542,0.10542 h 128.78904 c 0.0584,0 0.10542,-0.047 0.10542,-0.10542 0,-0.05842 -0.047,-0.10542 -0.10542,-0.10542 z m 0,0.75706 c -0.0584,0 -0.10542,0.047 -0.10542,0.105419 0,0.05842 0.047,0.10542 0.10542,0.10542 h 128.78904 c 0.0584,0 0.10542,-0.047 0.10542,-0.10542 0,-0.05842 -0.047,-0.105419 -0.10542,-0.105419 z m 0,0.757059 c -0.0584,0 -0.10542,0.047 -0.10542,0.10542 0,0.05842 0.047,0.10542 0.10542,0.10542 h 128.78904 c 0.0584,0 0.10542,-0.047 0.10542,-0.10542 0,-0.05842 -0.047,-0.10542 -0.10542,-0.10542 z m 0,0.75706 c -0.0584,0 -0.10542,0.047 -0.10542,0.10542 0,0.05842 0.047,0.10542 0.10542,0.10542 h 128.78904 c 0.0584,0 0.10542,-0.047 0.10542,-0.10542 0,-0.05842 -0.047,-0.10542 -0.10542,-0.10542 z m 0,0.75706 c -0.0584,0 -0.10542,0.047 -0.10542,0.10542 0,0.05842 0.047,0.10542 0.10542,0.10542 h 128.78904 c 0.0584,0 0.10542,-0.047 0.10542,-0.10542 0,-0.05842 -0.047,-0.10542 -0.10542,-0.10542 z m 0,0.757059 c -0.0584,0 -0.10542,0.047 -0.10542,0.10542 0,0.05842 0.047,0.10542 0.10542,0.10542 h 128.78904 c 0.0584,0 0.10542,-0.047 0.10542,-0.10542 0,-0.05842 -0.047,-0.10542 -0.10542,-0.10542 z m 0,0.75706 c -0.0584,0 -0.10542,0.047 -0.10542,0.10542 0,0.05842 0.047,0.10542 0.10542,0.10542 h 128.78904 c 0.0584,0 0.10542,-0.047 0.10542,-0.10542 0,-0.05842 -0.047,-0.10542 -0.10542,-0.10542 z m 0,0.756543 c -0.0584,0 -0.10542,0.04751 -0.10542,0.105937 0,0.05842 0.047,0.10542 0.10542,0.10542 h 128.78904 c 0.0584,0 0.10542,-0.047 0.10542,-0.10542 0,-0.05842 -0.047,-0.105937 -0.10542,-0.105937 z m 0,0.75706 c -0.0584,0 -0.10542,0.047 -0.10542,0.10542 0,0.05842 0.047,0.105937 0.10542,0.105937 h 128.78904 c 0.0584,0 0.10542,-0.04752 0.10542,-0.105937 0,-0.05842 -0.047,-0.10542 -0.10542,-0.10542 z m 0,0.75706 c -0.0584,0 -0.10542,0.047 -0.10542,0.10542 0,0.05842 0.047,0.10542 0.10542,0.10542 h 128.78904 c 0.0584,0 0.10542,-0.047 0.10542,-0.10542 0,-0.05842 -0.047,-0.10542 -0.10542,-0.10542 z m 0,0.757059 c -0.0584,0 -0.10542,0.047 -0.10542,0.10542 0,0.05842 0.047,0.10542 0.10542,0.10542 h 128.78904 c 0.0584,0 0.10542,-0.047 0.10542,-0.10542 0,-0.05842 -0.047,-0.10542 -0.10542,-0.10542 z m 0,0.75706 c -0.0584,0 -0.10542,0.047 -0.10542,0.10542 0,0.05842 0.047,0.10542 0.10542,0.10542 h 128.78904 c 0.0584,0 0.10542,-0.047 0.10542,-0.10542 0,-0.05842 -0.047,-0.10542 -0.10542,-0.10542 z m 0,0.75706 c -0.0584,0 -0.10542,0.047 -0.10542,0.10542 0,0.05842 0.047,0.10542 0.10542,0.10542 h 128.78904 c 0.0584,0 0.10542,-0.047 0.10542,-0.10542 0,-0.05842 -0.047,-0.10542 -0.10542,-0.10542 z m 0,0.75706 c -0.0584,0 -0.10542,0.047 -0.10542,0.10542 0,0.05842 0.047,0.105419 0.10542,0.105419 h 128.78904 c 0.0584,0 0.10542,-0.047 0.10542,-0.105419 0,-0.05842 -0.047,-0.10542 -0.10542,-0.10542 z m 0,0.757059 c -0.0584,0 -0.10542,0.047 -0.10542,0.10542 0,0.05842 0.047,0.10542 0.10542,0.10542 h 128.78904 c 0.0584,0 0.10542,-0.047 0.10542,-0.10542 0,-0.05842 -0.047,-0.10542 -0.10542,-0.10542 z m 0,0.75706 c -0.0584,0 -0.10542,0.047 -0.10542,0.10542 0,0.05842 0.047,0.10542 0.10542,0.10542 h 128.78904 c 0.0584,0 0.10542,-0.047 0.10542,-0.10542 0,-0.05842 -0.047,-0.10542 -0.10542,-0.10542 z m 0,0.75706 c -0.0584,0 -0.10542,0.047 -0.10542,0.10542 0,0.05842 0.047,0.10542 0.10542,0.10542 h 128.78904 c 0.0584,0 0.10542,-0.047 0.10542,-0.10542 0,-0.05842 -0.047,-0.10542 -0.10542,-0.10542 z m 0,0.757058 c -0.0584,0 -0.10542,0.047 -0.10542,0.10542 0,0.0584 0.047,0.10542 0.10542,0.10542 h 128.78904 c 0.0584,0 0.10542,-0.047 0.10542,-0.10542 0,-0.0584 -0.047,-0.10542 -0.10542,-0.10542 z m 0,0.75706 c -0.0584,0 -0.10542,0.047 -0.10542,0.10542 0,0.0584 0.047,0.10542 0.10542,0.10542 h 128.78904 c 0.0584,0 0.10542,-0.047 0.10542,-0.10542 0,-0.0584 -0.047,-0.10542 -0.10542,-0.10542 z m 0,0.75654 c -0.0584,0 -0.10542,0.0475 -0.10542,0.10594 0,0.0584 0.047,0.10542 0.10542,0.10542 h 128.78904 c 0.0584,0 0.10542,-0.047 0.10542,-0.10542 0,-0.0584 -0.047,-0.10594 -0.10542,-0.10594 z m 0,0.75706 c -0.0584,0 -0.10542,0.047 -0.10542,0.10542 0,0.0584 0.047,0.10594 0.10542,0.10594 h 128.78904 c 0.0584,0 0.10542,-0.0475 0.10542,-0.10594 0,-0.0584 -0.047,-0.10542 -0.10542,-0.10542 z m 0,0.75706 c -0.0584,0 -0.10542,0.047 -0.10542,0.10542 0,0.0584 0.047,0.10542 0.10542,0.10542 h 128.78904 c 0.0584,0 0.10542,-0.047 0.10542,-0.10542 0,-0.0584 -0.047,-0.10542 -0.10542,-0.10542 z m 0,0.75706 c -0.0584,0 -0.10542,0.047 -0.10542,0.10542 0,0.0584 0.047,0.10542 0.10542,0.10542 h 128.78904 c 0.0584,0 0.10542,-0.047 0.10542,-0.10542 0,-0.0584 -0.047,-0.10542 -0.10542,-0.10542 z m 0,0.75706 c -0.0584,0 -0.10542,0.047 -0.10542,0.10542 0,0.0584 0.047,0.10542 0.10542,0.10542 h 128.78904 c 0.0584,0 0.10542,-0.047 0.10542,-0.10542 0,-0.0584 -0.047,-0.10542 -0.10542,-0.10542 z m 0,0.75706 c -0.0584,0 -0.10542,0.047 -0.10542,0.10542 0,0.0584 0.047,0.10542 0.10542,0.10542 h 128.78904 c 0.0584,0 0.10542,-0.047 0.10542,-0.10542 0,-0.0584 -0.047,-0.10542 -0.10542,-0.10542 z m 0,0.75706 c -0.0584,0 -0.10542,0.047 -0.10542,0.10542 0,0.0584 0.047,0.10542 0.10542,0.10542 h 128.78904 c 0.0584,0 0.10542,-0.047 0.10542,-0.10542 0,-0.0584 -0.047,-0.10542 -0.10542,-0.10542 z m 0,0.75706 c -0.0584,0 -0.10542,0.047 -0.10542,0.10542 0,0.0584 0.047,0.10542 0.10542,0.10542 h 128.78904 c 0.0584,0 0.10542,-0.047 0.10542,-0.10542 0,-0.0584 -0.047,-0.10542 -0.10542,-0.10542 z m 0,0.75706 c -0.0584,0 -0.10542,0.047 -0.10542,0.10542 0,0.0584 0.047,0.10542 0.10542,0.10542 h 128.78904 c 0.0584,0 0.10542,-0.047 0.10542,-0.10542 0,-0.0584 -0.047,-0.10542 -0.10542,-0.10542 z m 0,0.75706 c -0.0584,0 -0.10542,0.047 -0.10542,0.10542 0,0.0584 0.047,0.10542 0.10542,0.10542 h 128.78904 c 0.0584,0 0.10542,-0.047 0.10542,-0.10542 0,-0.0584 -0.047,-0.10542 -0.10542,-0.10542 z m 0,0.75706 c -0.0584,0 -0.10542,0.047 -0.10542,0.10542 0,0.0584 0.047,0.10542 0.10542,0.10542 h 128.78904 c 0.0584,0 0.10542,-0.047 0.10542,-0.10542 0,-0.0584 -0.047,-0.10542 -0.10542,-0.10542 z m 0,0.75706 c -0.0584,0 -0.10542,0.047 -0.10542,0.10542 0,0.0584 0.047,0.10542 0.10542,0.10542 h 128.78904 c 0.0584,0 0.10542,-0.047 0.10542,-0.10542 0,-0.0584 -0.047,-0.10542 -0.10542,-0.10542 z m 0,0.75706 c -0.0584,0 -0.10542,0.047 -0.10542,0.10542 0,0.0584 0.047,0.10542 0.10542,0.10542 h 128.78904 c 0.0584,0 0.10542,-0.047 0.10542,-0.10542 0,-0.0584 -0.047,-0.10542 -0.10542,-0.10542 z m 0,0.75654 c -0.0584,0 -0.10542,0.0475 -0.10542,0.10594 0,0.0584 0.047,0.10542 0.10542,0.10542 h 128.78904 c 0.0584,0 0.10542,-0.047 0.10542,-0.10542 0,-0.0584 -0.047,-0.10594 -0.10542,-0.10594 z m 0,0.75706 c -0.0584,0 -0.10542,0.047 -0.10542,0.10542 0,0.0584 0.047,0.10594 0.10542,0.10594 h 128.78904 c 0.0584,0 0.10542,-0.0475 0.10542,-0.10594 0,-0.0584 -0.047,-0.10542 -0.10542,-0.10542 z m 0,0.75706 c -0.0584,0 -0.10542,0.047 -0.10542,0.10542 0,0.0584 0.047,0.10542 0.10542,0.10542 h 128.78904 c 0.0584,0 0.10542,-0.047 0.10542,-0.10542 0,-0.0584 -0.047,-0.10542 -0.10542,-0.10542 z m 0,0.75706 c -0.0584,0 -0.10542,0.047 -0.10542,0.10542 0,0.0584 0.047,0.10542 0.10542,0.10542 h 128.78904 c 0.0584,0 0.10542,-0.047 0.10542,-0.10542 0,-0.0584 -0.047,-0.10542 -0.10542,-0.10542 z m 0,0.75706 c -0.0584,0 -0.10542,0.047 -0.10542,0.10542 0,0.0584 0.047,0.10542 0.10542,0.10542 h 128.78904 c 0.0584,0 0.10542,-0.047 0.10542,-0.10542 0,-0.0584 -0.047,-0.10542 -0.10542,-0.10542 z m 0,0.75706 c -0.0584,0 -0.10542,0.047 -0.10542,0.10542 0,0.0584 0.047,0.10542 0.10542,0.10542 h 128.78904 c 0.0584,0 0.10542,-0.047 0.10542,-0.10542 0,-0.0584 -0.047,-0.10542 -0.10542,-0.10542 z m 0,0.75706 c -0.0584,0 -0.10542,0.047 -0.10542,0.10542 0,0.0584 0.047,0.10542 0.10542,0.10542 h 128.78904 c 0.0584,0 0.10542,-0.047 0.10542,-0.10542 0,-0.0584 -0.047,-0.10542 -0.10542,-0.10542 z m 0,0.75706 c -0.0584,0 -0.10542,0.047 -0.10542,0.10542 0,0.0584 0.047,0.10542 0.10542,0.10542 h 128.78904 c 0.0584,0 0.10542,-0.047 0.10542,-0.10542 0,-0.0584 -0.047,-0.10542 -0.10542,-0.10542 z m 0,0.75706 c -0.0584,0 -0.10542,0.047 -0.10542,0.10542 0,0.0584 0.047,0.10542 0.10542,0.10542 h 128.78904 c 0.0584,0 0.10542,-0.047 0.10542,-0.10542 0,-0.0584 -0.047,-0.10542 -0.10542,-0.10542 z m 0,0.75706 c -0.0584,0 -0.10542,0.047 -0.10542,0.10542 0,0.0584 0.047,0.10542 0.10542,0.10542 h 128.78904 c 0.0584,0 0.10542,-0.047 0.10542,-0.10542 0,-0.0584 -0.047,-0.10542 -0.10542,-0.10542 z m 0,0.75706 c -0.0584,0 -0.10542,0.047 -0.10542,0.10542 0,0.0584 0.047,0.10542 0.10542,0.10542 h 128.78904 c 0.0584,0 0.10542,-0.047 0.10542,-0.10542 0,-0.0584 -0.047,-0.10542 -0.10542,-0.10542 z m 0,0.75706 c -0.0584,0 -0.10542,0.047 -0.10542,0.10542 0,0.0584 0.047,0.10542 0.10542,0.10542 h 128.78904 c 0.0584,0 0.10542,-0.047 0.10542,-0.10542 0,-0.0584 -0.047,-0.10542 -0.10542,-0.10542 z m 0,0.75654 c -0.0584,0 -0.10542,0.0475 -0.10542,0.10594 0,0.0584 0.047,0.10542 0.10542,0.10542 h 128.78904 c 0.0584,0 0.10542,-0.047 0.10542,-0.10542 0,-0.0584 -0.047,-0.10594 -0.10542,-0.10594 z m 0,0.75706 c -0.0584,0 -0.10542,0.047 -0.10542,0.10542 0,0.0584 0.047,0.10594 0.10542,0.10594 h 128.78904 c 0.0584,0 0.10542,-0.0475 0.10542,-0.10594 0,-0.0584 -0.047,-0.10542 -0.10542,-0.10542 z m 0,0.75706 c -0.0584,0 -0.10542,0.047 -0.10542,0.10542 0,0.0584 0.047,0.10542 0.10542,0.10542 h 128.78904 c 0.0584,0 0.10542,-0.047 0.10542,-0.10542 0,-0.0584 -0.047,-0.10542 -0.10542,-0.10542 z m 0,0.75706 c -0.0584,0 -0.10542,0.047 -0.10542,0.10542 0,0.0584 0.047,0.10542 0.10542,0.10542 h 128.78904 c 0.0584,0 0.10542,-0.047 0.10542,-0.10542 0,-0.0584 -0.047,-0.10542 -0.10542,-0.10542 z m 0,0.75706 c -0.0584,0 -0.10542,0.047 -0.10542,0.10542 0,0.0584 0.047,0.10542 0.10542,0.10542 h 128.78904 c 0.0584,0 0.10542,-0.047 0.10542,-0.10542 0,-0.0584 -0.047,-0.10542 -0.10542,-0.10542 z m 0,0.75706 c -0.0584,0 -0.10542,0.047 -0.10542,0.10542 0,0.0584 0.047,0.10542 0.10542,0.10542 h 128.78904 c 0.0584,0 0.10542,-0.047 0.10542,-0.10542 0,-0.0584 -0.047,-0.10542 -0.10542,-0.10542 z m 0,0.75706 c -0.0584,0 -0.10542,0.047 -0.10542,0.10542 0,0.0584 0.047,0.10542 0.10542,0.10542 h 128.78904 c 0.0584,0 0.10542,-0.047 0.10542,-0.10542 0,-0.0584 -0.047,-0.10542 -0.10542,-0.10542 z m 0,0.75706 c -0.0584,0 -0.10542,0.047 -0.10542,0.10542 0,0.0584 0.047,0.10542 0.10542,0.10542 h 128.78904 c 0.0584,0 0.10542,-0.047 0.10542,-0.10542 0,-0.0584 -0.047,-0.10542 -0.10542,-0.10542 z m 0,0.75706 c -0.0584,0 -0.10542,0.047 -0.10542,0.10542 0,0.0584 0.047,0.10542 0.10542,0.10542 h 128.78904 c 0.0584,0 0.10542,-0.047 0.10542,-0.10542 0,-0.0584 -0.047,-0.10542 -0.10542,-0.10542 z m 0,0.75706 c -0.0584,0 -0.10542,0.047 -0.10542,0.10542 0,0.0584 0.047,0.10542 0.10542,0.10542 h 128.78904 c 0.0584,0 0.10542,-0.047 0.10542,-0.10542 0,-0.0584 -0.047,-0.10542 -0.10542,-0.10542 z m 0,0.75706 c -0.0584,0 -0.10542,0.047 -0.10542,0.10542 0,0.0584 0.047,0.10542 0.10542,0.10542 h 128.78904 c 0.0584,0 0.10542,-0.047 0.10542,-0.10542 0,-0.0584 -0.047,-0.10542 -0.10542,-0.10542 z m 0,0.75706 c -0.0584,0 -0.10542,0.047 -0.10542,0.10542 0,0.0584 0.047,0.10542 0.10542,0.10542 h 128.78904 c 0.0584,0 0.10542,-0.047 0.10542,-0.10542 0,-0.0584 -0.047,-0.10542 -0.10542,-0.10542 z m 0,0.75706 c -0.0584,0 -0.10542,0.047 -0.10542,0.10542 0,0.0584 0.047,0.10542 0.10542,0.10542 h 128.78904 c 0.0584,0 0.10542,-0.047 0.10542,-0.10542 0,-0.0584 -0.047,-0.10542 -0.10542,-0.10542 z m 0,0.75654 c -0.0584,0 -0.10542,0.047 -0.10542,0.10542 0,0.0584 0.047,0.10594 0.10542,0.10594 h 128.78904 c 0.0584,0 0.10542,-0.0475 0.10542,-0.10594 0,-0.0584 -0.047,-0.10542 -0.10542,-0.10542 z m 0,0.75706 c -0.0584,0 -0.10542,0.047 -0.10542,0.10542 0,0.0584 0.047,0.10542 0.10542,0.10542 h 128.78904 c 0.0584,0 0.10542,-0.047 0.10542,-0.10542 0,-0.0584 -0.047,-0.10542 -0.10542,-0.10542 z m 0,0.75706 c -0.0584,0 -0.10542,0.047 -0.10542,0.10542 0,0.0584 0.047,0.10542 0.10542,0.10542 h 128.78904 c 0.0584,0 0.10542,-0.047 0.10542,-0.10542 0,-0.0584 -0.047,-0.10542 -0.10542,-0.10542 z" />
  </g>
  <path
     id="rect739-9-4"
     style="display:inline;opacity:0.543136;fill:url(#linearGradient78739);fill-opacity:1;stroke-width:2.83535;stroke-linecap:round;paint-order:fill markers stroke"
     inkscape:label="glare"
     d="m 8.6583962,20.665922 c 0.0727,-0.0019 0.14548,9.59e-4 0.21756,0.0088 39.4101108,-1.24e-4 78.8203898,0.01079 118.2304938,0.03307 1.17544,0.263336 1.45356,1.675154 1.35237,2.703194 0.82948,12.791047 1.72903,25.580723 2.16524,38.390422 C 113.75607,57.388724 84.394556,52.363385 67.736971,61.7642 50.322279,71.592294 21.710416,57.384849 4.8426062,61.80347 c 0.42221,-11.940863 1.22747,-23.862737 1.9942,-35.78748 0.13699,-1.554326 0.17368,-3.15114 0.51521,-4.665865 0.2886,-0.423419 0.79737,-0.67083 1.30638,-0.684196 z M 127.09973,128.27227 c -0.79823,0.1923 -1.74601,-0.007 -2.54557,0.0445 -38.712994,-0.008 -77.426181,-0.0164 -116.1391538,-0.0248 -0.0258,-0.005 -0.0489,-0.0136 -0.0739,-0.0196 z"
     sodipodi:nodetypes="sccccscccssccccc"
     sodipodi:insensitive="true" />
  <path
     id="rect739-2"
     style="display:inline;fill:#1e59c4;fill-opacity:1;stroke:#1e59c4;stroke-width:2.927;stroke-linecap:round;stroke-opacity:1;paint-order:fill markers stroke"
     d="m 1.463201,15.036775 v 38.812619 c 0.76078,-15.71754 1.92288,-31.632178 1.92288,-31.632178 0.1407,-2.86665 2.32171,-5.18056 5.20537,-5.18056 H 126.87518 c 2.88367,0 5.20485,2.3105 5.20485,5.18056 0,0 1.16263,15.914638 1.9234,31.632178 V 15.036775 Z M 134.00343,53.849394 v 41.424865 c 0.3651,-7.542775 0.64596,-15.047665 0.64596,-20.712435 0,-5.66473 -0.28087,-13.16973 -0.64596,-20.71243 z m 0,41.424865 c -0.76077,15.717471 -1.9234,31.631661 -1.9234,31.631661 -0.14069,2.86666 -2.32118,5.18056 -5.20485,5.18056 H 8.591451 c -2.88366,0 -5.20537,-2.31049 -5.20537,-5.18056 0,0 -1.1621,-15.91419 -1.92288,-31.631661 V 134.08688 H 134.00343 Z m -132.540229,0 V 53.849394 c -0.36509,7.5427 -0.64595001,15.0477 -0.64595001,20.71243 0,5.66477 0.28086001,13.16966 0.64595001,20.712435 z"
     inkscape:label="cover-frame" />
  <rect
     style="display:inline;opacity:0.514927;mix-blend-mode:multiply;fill:url(#linearGradient11454);fill-opacity:1;stroke-width:0.519304;stroke-linecap:round;stroke-linejoin:bevel;paint-order:markers fill stroke"
     id="rect8688-3"
     width="132.50876"
     height="31.147261"
     x="1.4789541"
     y="1.422308"
     ry="4.9247365"
     sodipodi:insensitive="true"
     inkscape:label="header-grad" />
</svg>
