<?xml version="1.0" encoding="UTF-8" standalone="no"?>
<!-- Created with Inkscape (http://www.inkscape.org/) -->

<svg
   width="512"
   height="512"
   viewBox="0 0 135.46666 135.46666"
   version="1.1"
   id="svg5"
   sodipodi:docname="org.gnome.Terminal.Preferences.svg"
   inkscape:version="1.3.2 (091e20ef0f, 2023-11-25, custom)"
   inkscape:export-filename="../../../home/shed/Documents/03M/OEM Tools/Cursors/png_icons/sakura.png"
   inkscape:export-xdpi="105.664"
   inkscape:export-ydpi="105.664"
   xmlns:inkscape="http://www.inkscape.org/namespaces/inkscape"
   xmlns:sodipodi="http://sodipodi.sourceforge.net/DTD/sodipodi-0.dtd"
   xmlns:xlink="http://www.w3.org/1999/xlink"
   xmlns="http://www.w3.org/2000/svg"
   xmlns:svg="http://www.w3.org/2000/svg"
   xmlns:rdf="http://www.w3.org/1999/02/22-rdf-syntax-ns#"
   xmlns:cc="http://creativecommons.org/ns#"
   xmlns:dc="http://purl.org/dc/elements/1.1/">&gt;
  <sodipodi:namedview
   id="namedview7"
   pagecolor="#505050"
   bordercolor="#ffffff"
   borderopacity="1"
   inkscape:showpageshadow="0"
   inkscape:pageopacity="0"
   inkscape:pagecheckerboard="1"
   inkscape:deskcolor="#505050"
   inkscape:document-units="mm"
   showgrid="false"
   inkscape:zoom="1"
   inkscape:cx="295.5"
   inkscape:cy="338"
   inkscape:window-width="3256"
   inkscape:window-height="1080"
   inkscape:window-x="1864"
   inkscape:window-y="0"
   inkscape:window-maximized="0"
   inkscape:current-layer="layer1" />
<defs
   id="defs2">
  <linearGradient
     inkscape:collect="always"
     id="linearGradient11452">
    <stop
       style="stop-color:#4d4d4d;stop-opacity:1;"
       offset="0"
       id="stop11448" />
    <stop
       style="stop-color:#000000;stop-opacity:0;"
       offset="0.50774521"
       id="stop11450" />
  </linearGradient>
  <rect
     x="-15.087993"
     y="-159.23229"
     width="568.35329"
     height="130.31937"
     id="rect11003" />
  <rect
     x="-3929.9673"
     y="-670.27679"
     width="1152.5586"
     height="459.63739"
     id="rect9364" />
  <linearGradient
     inkscape:collect="always"
     xlink:href="#linearGradient11452"
     id="linearGradient11454"
     x1="100.67797"
     y1="-10.30703"
     x2="100.67797"
     y2="22.262539"
     gradientUnits="userSpaceOnUse"
     gradientTransform="matrix(0.97816499,0,0,0.95633016,-30.746338,11.279232)" />
  <filter
     inkscape:collect="always"
     style="color-interpolation-filters:sRGB"
     id="filter1828"
     x="-0.026103221"
     y="-0.29786571"
     width="1.0522064"
     height="1.5957314">
    <feGaussianBlur
       inkscape:collect="always"
       stdDeviation="0.55027479"
       id="feGaussianBlur1830" />
  </filter>
  <rect
     x="-15.087993"
     y="-159.23228"
     width="568.35327"
     height="130.31937"
     id="rect11003-3" />
  <rect
     x="-3929.9673"
     y="-670.27679"
     width="1152.5586"
     height="459.63739"
     id="rect3" />
  <filter
     inkscape:collect="always"
     style="color-interpolation-filters:sRGB"
     id="filter3"
     x="-0.051162621"
     y="-0.58377649"
     width="1.1023252"
     height="2.167553">
    <feGaussianBlur
       inkscape:collect="always"
       stdDeviation="1.0785465"
       id="feGaussianBlur3" />
  </filter>
  <rect
     x="-15.087993"
     y="-159.23229"
     width="568.35329"
     height="130.31937"
     id="rect4" />
  <rect
     x="-15.087993"
     y="-159.23228"
     width="568.35327"
     height="130.31937"
     id="rect5" />
  <rect
     x="-15.087993"
     y="-159.23229"
     width="568.35329"
     height="130.31937"
     id="rect18" />
  <rect
     x="-15.087993"
     y="-159.23228"
     width="568.35327"
     height="130.31937"
     id="rect19" />
  <filter
     inkscape:collect="always"
     style="color-interpolation-filters:sRGB"
     id="filter5"
     x="-0.039436307"
     y="-0.038852677"
     width="1.0788726"
     height="1.0777054">
    <feGaussianBlur
       inkscape:collect="always"
       stdDeviation="0.76488045"
       id="feGaussianBlur5" />
  </filter>
  <filter
     inkscape:collect="always"
     style="color-interpolation-filters:sRGB"
     id="filter6"
     x="-0.024544614"
     y="-0.0245258"
     width="1.0490892"
     height="1.0490516">
    <feGaussianBlur
       inkscape:collect="always"
       stdDeviation="0.76488045"
       id="feGaussianBlur6" />
  </filter>
</defs>
<g
   inkscape:label="Layer 1"
   inkscape:groupmode="layer"
   id="layer1"
   style="display:inline">
  <rect
     style="display:inline;opacity:1;fill:#ffffff;fill-opacity:1;stroke-width:0.536922;stroke-linecap:round;stroke-linejoin:bevel;paint-order:markers fill stroke"
     id="rect8688"
     width="135.46666"
     height="135.46666"
     x="0"
     y="0"
     ry="5.3054209" />
  <text
     xml:space="preserve"
     style="font-style:normal;font-weight:normal;font-size:5.22231px;line-height:1.25;font-family:sans-serif;display:none;mix-blend-mode:normal;fill:#000000;fill-opacity:1;stroke:none;stroke-width:0.130558;filter:url(#filter1828)"
     x="10.392991"
     y="124.38135"
     id="text1824"
     inkscape:label="glow"
     sodipodi:insensitive="true"><tspan
       sodipodi:role="line"
       id="tspan1822"
       x="0"
       y="0"
       style="fill:#66ff00;stroke-width:0.130558">user:08@machine ~$</tspan></text>
  <text
     xml:space="preserve"
     style="font-style:normal;font-weight:normal;font-size:5.22231px;line-height:1.25;font-family:sans-serif;display:none;fill:#000000;fill-opacity:1;stroke:none;stroke-width:0.130558"
     x="10.392991"
     y="124.38135"
     id="text9733"
     sodipodi:insensitive="true"><tspan
       sodipodi:role="line"
       id="tspan9731"
       x="0"
       y="0"
       style="fill:#66ff00;stroke-width:0.130558">user:08@machine ~$</tspan></text>
  <text
     xml:space="preserve"
     transform="scale(0.26458333)"
     id="text9362"
     style="font-style:normal;font-weight:normal;font-size:40px;line-height:1.25;font-family:sans-serif;white-space:pre;shape-inside:url(#rect9364);display:none;fill:#000000;fill-opacity:1;stroke:none"
     sodipodi:insensitive="true" />
  <rect
     style="opacity:1;fill:#000000;fill-opacity:1;stroke:none;stroke-width:2.11667;stroke-linecap:round;stroke-linejoin:round;stroke-dashoffset:149.514;paint-order:markers stroke fill"
     id="rect2"
     width="128.7263"
     height="118.99712"
     x="3.3701818"
     y="13.526435"
     ry="3.4695034" />
  <path
     style="font-size:5.22231px;line-height:1.25;display:inline;fill:#66ff00;stroke-width:0.130558;filter:url(#filter3)"
     d="m 13.176482,121.58219 v 2.79916 h -0.376006 l -0.06789,-0.37079 h -0.02089 q -0.13578,0.21934 -0.376007,0.32379 -0.240226,0.0992 -0.511786,0.0992 -0.506564,0 -0.762457,-0.24023 -0.255893,-0.24544 -0.255893,-0.77812 v -1.83303 h 0.464785 v 1.8017 q 0,0.66845 0.621455,0.66845 0.464786,0 0.642344,-0.26111 0.182781,-0.26112 0.182781,-0.75202 v -1.45702 z m 2.710379,2.02626 q 0,0.40734 -0.302894,0.61623 -0.302894,0.20889 -0.81468,0.20889 -0.292449,0 -0.506564,-0.047 -0.208893,-0.047 -0.370784,-0.13056 v -0.41778 q 0.167114,0.0836 0.402118,0.15667 0.240226,0.0679 0.485675,0.0679 0.349894,0 0.506564,-0.10967 0.156669,-0.11489 0.156669,-0.3029 0,-0.10444 -0.05744,-0.188 -0.05745,-0.0836 -0.208893,-0.16711 -0.146225,-0.0836 -0.423007,-0.18801 -0.27156,-0.10444 -0.464786,-0.20889 -0.193225,-0.10444 -0.297671,-0.25067 -0.104446,-0.14622 -0.104446,-0.37601 0,-0.35511 0.287227,-0.54834 0.292449,-0.19322 0.762457,-0.19322 0.255893,0 0.47523,0.0522 0.224559,0.047 0.417785,0.13578 l -0.156669,0.36556 q -0.177559,-0.0731 -0.370784,-0.12533 -0.193226,-0.0522 -0.396896,-0.0522 -0.282005,0 -0.433452,0.094 -0.146224,0.0888 -0.146224,0.24545 0,0.11489 0.06789,0.19845 0.06789,0.0783 0.224559,0.15667 0.161892,0.0731 0.428229,0.17756 0.266338,0.0992 0.454341,0.20367 0.188004,0.10444 0.287227,0.25589 0.09922,0.14623 0.09922,0.37079 z m 1.759919,-2.07848 q 0.36034,0 0.616233,0.15667 0.261115,0.15666 0.396895,0.44389 0.141003,0.28201 0.141003,0.66324 v 0.27678 h -1.916588 q 0.01045,0.47523 0.240226,0.7259 0.235004,0.24545 0.652789,0.24545 0.266338,0 0.470008,-0.047 0.208892,-0.0522 0.428229,-0.14623 v 0.40212 q -0.214114,0.094 -0.423007,0.13578 -0.208892,0.047 -0.496119,0.047 -0.396896,0 -0.705012,-0.16189 -0.302894,-0.16189 -0.47523,-0.48045 -0.167114,-0.32379 -0.167114,-0.78857 0,-0.45957 0.151447,-0.78857 0.156669,-0.32901 0.433452,-0.50657 0.282004,-0.17755 0.652788,-0.17755 z m -0.0052,0.376 q -0.329006,0 -0.522231,0.21412 -0.188003,0.20889 -0.224559,0.5849 h 1.42569 q -0.0052,-0.35512 -0.167114,-0.57446 -0.161891,-0.22456 -0.511786,-0.22456 z m 3.17516,-0.376 q 0.07833,0 0.167114,0.0104 0.094,0.005 0.161892,0.0209 l -0.05745,0.42301 q -0.06789,-0.0157 -0.151447,-0.0261 -0.07833,-0.0105 -0.151447,-0.0105 -0.214115,0 -0.402118,0.12011 -0.188003,0.1149 -0.302894,0.32901 -0.109669,0.20889 -0.109669,0.4909 v 1.49358 h -0.459563 v -2.79916 h 0.376006 l 0.05222,0.51179 h 0.02089 q 0.13578,-0.22979 0.349894,-0.3969 0.214115,-0.16711 0.506564,-0.16711 z m 0.783347,0.33422 q 0,-0.19844 0.094,-0.27678 0.094,-0.0783 0.224559,-0.0783 0.13578,0 0.229782,0.0783 0.09922,0.0783 0.09922,0.27678 0,0.18801 -0.09922,0.27156 -0.094,0.0836 -0.229782,0.0836 -0.130557,0 -0.224559,-0.0836 -0.094,-0.0836 -0.094,-0.27156 z m 0,2.23515 q 0,-0.19322 0.094,-0.27156 0.094,-0.0783 0.224559,-0.0783 0.13578,0 0.229782,0.0783 0.09922,0.0783 0.09922,0.27156 0,0.18801 -0.09922,0.27156 -0.094,0.0836 -0.229782,0.0836 -0.130557,0 -0.224559,-0.0836 -0.094,-0.0836 -0.094,-0.27156 z m 3.754839,-1.58758 q 0,0.60057 -0.125335,1.03402 -0.125335,0.42823 -0.396896,0.65801 -0.27156,0.22978 -0.720678,0.22978 -0.6319,0 -0.934794,-0.50656 -0.297672,-0.51179 -0.297672,-1.41525 0,-0.60579 0.120114,-1.03402 0.125335,-0.42823 0.396895,-0.65279 0.27156,-0.22978 0.715457,-0.22978 0.626677,0 0.934793,0.50657 0.308116,0.50134 0.308116,1.41002 z m -2.015811,0 q 0,0.76768 0.172336,1.14891 0.177558,0.38123 0.600566,0.38123 0.417784,0 0.595343,-0.37601 0.182781,-0.38123 0.182781,-1.15413 0,-0.76246 -0.182781,-1.14369 -0.177559,-0.38122 -0.595343,-0.38122 -0.423008,0 -0.600566,0.38122 -0.172336,0.38123 -0.172336,1.14369 z m 3.760065,-1.91136 q 0.490897,0 0.804236,0.22978 0.313339,0.22978 0.313339,0.66323 0,0.22456 -0.09922,0.39167 -0.094,0.16712 -0.255894,0.29768 -0.161891,0.12533 -0.355117,0.22455 0.229782,0.10967 0.417785,0.25068 0.188003,0.13578 0.297672,0.31856 0.114891,0.18278 0.114891,0.43867 0,0.47001 -0.334228,0.74679 -0.329006,0.27156 -0.887793,0.27156 -0.600566,0 -0.924349,-0.26111 -0.323783,-0.26634 -0.323783,-0.74157 0,-0.2559 0.104446,-0.4439 0.109669,-0.188 0.287227,-0.32378 0.177559,-0.13578 0.381229,-0.22978 -0.27156,-0.15667 -0.464786,-0.37601 -0.188003,-0.22456 -0.188003,-0.56923 0,-0.28723 0.146225,-0.48045 0.146224,-0.19845 0.396895,-0.3029 0.250671,-0.10444 0.569232,-0.10444 z m -0.0052,0.37078 q -0.287227,0 -0.47523,0.141 -0.182781,0.13578 -0.182781,0.3969 0,0.19322 0.08878,0.32378 0.094,0.13056 0.250671,0.22456 0.156669,0.0888 0.344672,0.17234 0.271561,-0.11489 0.454341,-0.27679 0.188004,-0.16189 0.188004,-0.44389 0,-0.26112 -0.182781,-0.3969 -0.182781,-0.141 -0.485675,-0.141 z m -0.778124,2.46493 q 0,0.27156 0.193225,0.45434 0.193226,0.17756 0.595343,0.17756 0.381229,0 0.579677,-0.17756 0.20367,-0.18278 0.20367,-0.47001 0,-0.27156 -0.214115,-0.44912 -0.214114,-0.18278 -0.569232,-0.31856 l -0.08356,-0.0313 q -0.344673,0.14622 -0.527454,0.33945 -0.177558,0.188 -0.177558,0.47523 z m 6.674115,-0.91913 q 0,0.24023 -0.05745,0.47001 -0.05222,0.22978 -0.167114,0.41779 -0.114891,0.18278 -0.282005,0.29767 -0.167114,0.10967 -0.396896,0.10967 -0.240226,0 -0.381228,-0.13578 -0.13578,-0.14101 -0.167114,-0.31857 h -0.02611 q -0.094,0.19323 -0.276782,0.32379 -0.182781,0.13056 -0.459563,0.13056 -0.396896,0 -0.616233,-0.26634 -0.214115,-0.26634 -0.214115,-0.70501 0,-0.34468 0.13578,-0.60579 0.13578,-0.26634 0.381229,-0.41779 0.250671,-0.15144 0.590121,-0.15144 0.229782,0 0.449119,0.0418 0.224559,0.0366 0.349894,0.0836 l -0.05222,1.06013 q -0.0052,0.094 -0.0052,0.13578 0,0.0366 0,0.0522 0,0.27156 0.094,0.36034 0.09922,0.0888 0.229781,0.0888 0.161892,0 0.27156,-0.13056 0.114891,-0.13578 0.172337,-0.35511 0.06267,-0.22456 0.06267,-0.4909 0,-0.48567 -0.198447,-0.8199 -0.193226,-0.33945 -0.537898,-0.51701 -0.339451,-0.17756 -0.772902,-0.17756 -0.595344,0 -1.007906,0.24545 -0.40734,0.24545 -0.621455,0.6789 -0.208892,0.42823 -0.208892,0.98179 0,0.77291 0.40734,1.18547 0.40734,0.41256 1.17502,0.41256 0.31856,0 0.605788,-0.0731 0.292449,-0.0679 0.517008,-0.15145 v 0.35512 q -0.224559,0.094 -0.506564,0.15145 -0.276782,0.0627 -0.616232,0.0627 -0.616233,0 -1.054907,-0.22978 -0.438674,-0.22978 -0.673678,-0.65801 -0.229782,-0.43345 -0.229782,-1.03924 0,-0.48567 0.151447,-0.89824 0.151447,-0.41778 0.438674,-0.72068 0.287227,-0.30811 0.694568,-0.47523 0.412562,-0.17233 0.929571,-0.17233 0.54312,0 0.966127,0.22456 0.423007,0.22456 0.663233,0.64234 0.245449,0.41779 0.245449,0.99746 z m -2.637267,0.33423 q 0,0.33423 0.130558,0.48568 0.13578,0.15144 0.36034,0.15144 0.292449,0 0.417784,-0.21933 0.130558,-0.21934 0.151447,-0.56924 l 0.03133,-0.65278 q -0.06789,-0.0209 -0.172336,-0.0366 -0.104446,-0.0157 -0.214115,-0.0157 -0.255893,0 -0.412562,0.12534 -0.156669,0.12533 -0.22456,0.32378 -0.06789,0.19323 -0.06789,0.40734 z m 6.454776,-1.32124 q 0.47523,0 0.710234,0.24544 0.235004,0.24023 0.235004,0.78335 v 1.82259 h -0.454341 v -1.8017 q 0,-0.66323 -0.569232,-0.66323 -0.40734,0 -0.584899,0.235 -0.172336,0.23501 -0.172336,0.68412 v 1.54581 h -0.454341 v -1.8017 q 0,-0.66323 -0.574454,-0.66323 -0.423007,0 -0.584899,0.26111 -0.161891,0.26112 -0.161891,0.75202 v 1.4518 h -0.459564 v -2.79916 h 0.370784 l 0.06789,0.38123 h 0.02611 q 0.130558,-0.21934 0.349895,-0.32379 0.224559,-0.10966 0.47523,-0.10966 0.658011,0 0.856459,0.47 h 0.02611 q 0.141003,-0.24022 0.381229,-0.35511 0.245448,-0.11489 0.517009,-0.11489 z m 2.872269,0.005 q 0.511786,0 0.757234,0.22456 0.245449,0.22456 0.245449,0.71545 v 1.90615 H 40.34816 l -0.08878,-0.3969 h -0.02089 q -0.182781,0.22978 -0.386451,0.33945 -0.198448,0.10967 -0.553565,0.10967 -0.381229,0 -0.6319,-0.19845 -0.250671,-0.20367 -0.250671,-0.6319 0,-0.41778 0.329006,-0.64234 0.329006,-0.22978 1.013128,-0.25067 l 0.47523,-0.0157 v -0.16711 q 0,-0.3499 -0.151447,-0.48568 -0.151447,-0.13578 -0.428229,-0.13578 -0.219337,0 -0.417785,0.0679 -0.198448,0.0627 -0.370784,0.14623 l -0.141002,-0.34468 q 0.182781,-0.0992 0.433451,-0.16711 0.250671,-0.0731 0.522232,-0.0731 z m 0.13578,1.49358 q -0.522231,0.0209 -0.725902,0.16711 -0.198447,0.14623 -0.198447,0.41257 0,0.235 0.141002,0.34467 0.146225,0.10967 0.370784,0.10967 0.355117,0 0.590121,-0.19323 0.235004,-0.19845 0.235004,-0.60579 v -0.25067 z m 2.856607,1.4048 q -0.370784,0 -0.663233,-0.15145 -0.287227,-0.15144 -0.454341,-0.47 -0.161892,-0.31857 -0.161892,-0.81468 0,-0.51701 0.172336,-0.8408 0.172337,-0.32378 0.464786,-0.47523 0.297672,-0.15144 0.673678,-0.15144 0.214115,0 0.412563,0.047 0.198447,0.0418 0.323783,0.10444 l -0.141003,0.38123 q -0.125335,-0.047 -0.292449,-0.0888 -0.167114,-0.0418 -0.313339,-0.0418 -0.825125,0 -0.825125,1.06013 0,0.50657 0.198448,0.77813 0.20367,0.26634 0.600566,0.26634 0.229781,0 0.402118,-0.047 0.177558,-0.047 0.323783,-0.11489 v 0.40734 q -0.141002,0.0731 -0.313339,0.10967 -0.167114,0.0418 -0.40734,0.0418 z m 1.843475,-2.8566 q 0,0.20889 -0.02611,0.39167 h 0.03133 q 0.13578,-0.21411 0.365562,-0.32378 0.235004,-0.10967 0.506564,-0.10967 0.511786,0 0.76768,0.24545 0.255893,0.24022 0.255893,0.77812 v 1.82259 h -0.454341 v -1.79125 q 0,-0.67368 -0.626677,-0.67368 -0.470008,0 -0.647567,0.26634 -0.172336,0.26111 -0.172336,0.75201 v 1.44658 h -0.459563 v -3.96896 h 0.459563 z m 3.002827,-1.04446 q 0.104446,0 0.182781,0.0731 0.08356,0.0679 0.08356,0.21933 0,0.14623 -0.08356,0.21934 -0.07834,0.0731 -0.182781,0.0731 -0.114891,0 -0.193225,-0.0731 -0.07834,-0.0731 -0.07834,-0.21934 0,-0.15144 0.07834,-0.21933 0.07833,-0.0731 0.193225,-0.0731 z m 0.224559,1.04968 v 2.79916 H 47.28339 v -2.79916 z m 2.235144,-0.0522 q 0.501342,0 0.757235,0.24544 0.255893,0.24023 0.255893,0.78335 v 1.82259 h -0.454341 v -1.79125 q 0,-0.67368 -0.626677,-0.67368 -0.464785,0 -0.642344,0.26111 -0.177559,0.26112 -0.177559,0.75202 v 1.4518 h -0.459563 v -2.79916 h 0.370784 l 0.06789,0.38123 h 0.02611 q 0.13578,-0.21934 0.376006,-0.32379 0.240226,-0.10966 0.506564,-0.10966 z m 2.961053,0 q 0.360339,0 0.616232,0.15667 0.261116,0.15666 0.396896,0.44389 0.141002,0.28201 0.141002,0.66324 v 0.27678 h -1.916588 q 0.01044,0.47523 0.240227,0.7259 0.235004,0.24545 0.652788,0.24545 0.266338,0 0.470008,-0.047 0.208893,-0.0522 0.42823,-0.14623 v 0.40212 q -0.214115,0.094 -0.423007,0.13578 -0.208893,0.047 -0.49612,0.047 -0.396895,0 -0.705012,-0.16189 -0.302894,-0.16189 -0.47523,-0.48045 -0.167114,-0.32379 -0.167114,-0.78857 0,-0.45957 0.151447,-0.78857 0.156669,-0.32901 0.433452,-0.50657 0.282005,-0.17755 0.652789,-0.17755 z m -0.0052,0.376 q -0.329005,0 -0.522231,0.21412 -0.188003,0.20889 -0.224559,0.5849 h 1.425691 q -0.0052,-0.35512 -0.167114,-0.57446 -0.161892,-0.22456 -0.511787,-0.22456 z m 4.18829,0.80946 q -0.188003,-0.0836 -0.313338,-0.10967 -0.120114,-0.0313 -0.235004,-0.0313 -0.146225,0 -0.308117,0.0888 -0.161891,0.0888 -0.287227,0.21933 v -0.40734 q 0.250671,-0.27678 0.626678,-0.27678 0.151447,0 0.297671,0.0313 0.151447,0.0313 0.391673,0.13578 0.188004,0.0836 0.308117,0.11489 0.125335,0.0261 0.235004,0.0261 0.151447,0 0.313338,-0.0888 0.161892,-0.0888 0.287227,-0.21934 v 0.40212 q -0.255893,0.282 -0.626677,0.282 -0.146225,0 -0.302894,-0.0313 -0.151447,-0.0366 -0.386451,-0.13578 z m 2.903607,1.41002 q -0.287227,-0.005 -0.558787,-0.047 -0.271561,-0.047 -0.438674,-0.12533 v -0.4439 q 0.177558,0.0836 0.454341,0.14623 0.276782,0.0627 0.54312,0.0679 v -1.05491 q -0.517009,-0.141 -0.757235,-0.35512 -0.240226,-0.21411 -0.240226,-0.5849 0,-0.38645 0.266337,-0.60578 0.271561,-0.21934 0.731124,-0.24545 v -0.45957 h 0.334228 v 0.45435 q 0.276782,0.005 0.501341,0.0627 0.229782,0.0522 0.417785,0.13056 l -0.141002,0.38645 q -0.167114,-0.0679 -0.370784,-0.11489 -0.198448,-0.0522 -0.40734,-0.0679 v 1.04969 q 0.344672,0.0992 0.574454,0.21411 0.229781,0.10967 0.344672,0.27678 0.120113,0.16189 0.120113,0.42301 0,0.36556 -0.27156,0.59534 -0.27156,0.22456 -0.767679,0.27679 v 0.57967 h -0.334228 z m 0,-2.84615 q -0.282005,0.0209 -0.417785,0.13055 -0.130558,0.10967 -0.130558,0.28201 0,0.20889 0.114891,0.32378 0.120113,0.10967 0.433452,0.188 z m 0.334228,2.41793 q 0.308116,-0.0313 0.449118,-0.14101 0.141003,-0.11489 0.141003,-0.29245 0,-0.19844 -0.125336,-0.29767 -0.125335,-0.10444 -0.464785,-0.188 z"
     id="text1"
     inkscape:label="glow"
     aria-label="user:08@machine ~$" />
  <path
     style="font-size:5.22231px;line-height:1.25;display:inline;fill:#66ff00;stroke-width:0.130558"
     d="m 13.176482,121.58219 v 2.79916 h -0.376006 l -0.06789,-0.37079 h -0.02089 q -0.13578,0.21934 -0.376007,0.32379 -0.240226,0.0992 -0.511786,0.0992 -0.506564,0 -0.762457,-0.24023 -0.255893,-0.24544 -0.255893,-0.77812 v -1.83303 h 0.464785 v 1.8017 q 0,0.66845 0.621455,0.66845 0.464786,0 0.642344,-0.26111 0.182781,-0.26112 0.182781,-0.75202 v -1.45702 z m 2.710379,2.02626 q 0,0.40734 -0.302894,0.61623 -0.302894,0.20889 -0.81468,0.20889 -0.292449,0 -0.506564,-0.047 -0.208893,-0.047 -0.370784,-0.13056 v -0.41778 q 0.167114,0.0836 0.402118,0.15667 0.240226,0.0679 0.485675,0.0679 0.349894,0 0.506564,-0.10967 0.156669,-0.11489 0.156669,-0.3029 0,-0.10444 -0.05744,-0.188 -0.05745,-0.0836 -0.208893,-0.16711 -0.146225,-0.0836 -0.423007,-0.18801 -0.27156,-0.10444 -0.464786,-0.20889 -0.193225,-0.10444 -0.297671,-0.25067 -0.104446,-0.14622 -0.104446,-0.37601 0,-0.35511 0.287227,-0.54834 0.292449,-0.19322 0.762457,-0.19322 0.255893,0 0.47523,0.0522 0.224559,0.047 0.417785,0.13578 l -0.156669,0.36556 q -0.177559,-0.0731 -0.370784,-0.12533 -0.193226,-0.0522 -0.396896,-0.0522 -0.282005,0 -0.433452,0.094 -0.146224,0.0888 -0.146224,0.24545 0,0.11489 0.06789,0.19845 0.06789,0.0783 0.224559,0.15667 0.161892,0.0731 0.428229,0.17756 0.266338,0.0992 0.454341,0.20367 0.188004,0.10444 0.287227,0.25589 0.09922,0.14623 0.09922,0.37079 z m 1.759919,-2.07848 q 0.36034,0 0.616233,0.15667 0.261115,0.15666 0.396895,0.44389 0.141003,0.28201 0.141003,0.66324 v 0.27678 h -1.916588 q 0.01045,0.47523 0.240226,0.7259 0.235004,0.24545 0.652789,0.24545 0.266338,0 0.470008,-0.047 0.208892,-0.0522 0.428229,-0.14623 v 0.40212 q -0.214114,0.094 -0.423007,0.13578 -0.208892,0.047 -0.496119,0.047 -0.396896,0 -0.705012,-0.16189 -0.302894,-0.16189 -0.47523,-0.48045 -0.167114,-0.32379 -0.167114,-0.78857 0,-0.45957 0.151447,-0.78857 0.156669,-0.32901 0.433452,-0.50657 0.282004,-0.17755 0.652788,-0.17755 z m -0.0052,0.376 q -0.329006,0 -0.522231,0.21412 -0.188003,0.20889 -0.224559,0.5849 h 1.42569 q -0.0052,-0.35512 -0.167114,-0.57446 -0.161891,-0.22456 -0.511786,-0.22456 z m 3.17516,-0.376 q 0.07833,0 0.167114,0.0104 0.094,0.005 0.161892,0.0209 l -0.05745,0.42301 q -0.06789,-0.0157 -0.151447,-0.0261 -0.07833,-0.0105 -0.151447,-0.0105 -0.214115,0 -0.402118,0.12011 -0.188003,0.1149 -0.302894,0.32901 -0.109669,0.20889 -0.109669,0.4909 v 1.49358 h -0.459563 v -2.79916 h 0.376006 l 0.05222,0.51179 h 0.02089 q 0.13578,-0.22979 0.349894,-0.3969 0.214115,-0.16711 0.506564,-0.16711 z m 0.783347,0.33422 q 0,-0.19844 0.094,-0.27678 0.094,-0.0783 0.224559,-0.0783 0.13578,0 0.229782,0.0783 0.09922,0.0783 0.09922,0.27678 0,0.18801 -0.09922,0.27156 -0.094,0.0836 -0.229782,0.0836 -0.130557,0 -0.224559,-0.0836 -0.094,-0.0836 -0.094,-0.27156 z m 0,2.23515 q 0,-0.19322 0.094,-0.27156 0.094,-0.0783 0.224559,-0.0783 0.13578,0 0.229782,0.0783 0.09922,0.0783 0.09922,0.27156 0,0.18801 -0.09922,0.27156 -0.094,0.0836 -0.229782,0.0836 -0.130557,0 -0.224559,-0.0836 -0.094,-0.0836 -0.094,-0.27156 z m 3.754839,-1.58758 q 0,0.60057 -0.125335,1.03402 -0.125335,0.42823 -0.396896,0.65801 -0.27156,0.22978 -0.720678,0.22978 -0.6319,0 -0.934794,-0.50656 -0.297672,-0.51179 -0.297672,-1.41525 0,-0.60579 0.120114,-1.03402 0.125335,-0.42823 0.396895,-0.65279 0.27156,-0.22978 0.715457,-0.22978 0.626677,0 0.934793,0.50657 0.308116,0.50134 0.308116,1.41002 z m -2.015811,0 q 0,0.76768 0.172336,1.14891 0.177558,0.38123 0.600566,0.38123 0.417784,0 0.595343,-0.37601 0.182781,-0.38123 0.182781,-1.15413 0,-0.76246 -0.182781,-1.14369 -0.177559,-0.38122 -0.595343,-0.38122 -0.423008,0 -0.600566,0.38122 -0.172336,0.38123 -0.172336,1.14369 z m 3.760065,-1.91136 q 0.490897,0 0.804236,0.22978 0.313339,0.22978 0.313339,0.66323 0,0.22456 -0.09922,0.39167 -0.094,0.16712 -0.255894,0.29768 -0.161891,0.12533 -0.355117,0.22455 0.229782,0.10967 0.417785,0.25068 0.188003,0.13578 0.297672,0.31856 0.114891,0.18278 0.114891,0.43867 0,0.47001 -0.334228,0.74679 -0.329006,0.27156 -0.887793,0.27156 -0.600566,0 -0.924349,-0.26111 -0.323783,-0.26634 -0.323783,-0.74157 0,-0.2559 0.104446,-0.4439 0.109669,-0.188 0.287227,-0.32378 0.177559,-0.13578 0.381229,-0.22978 -0.27156,-0.15667 -0.464786,-0.37601 -0.188003,-0.22456 -0.188003,-0.56923 0,-0.28723 0.146225,-0.48045 0.146224,-0.19845 0.396895,-0.3029 0.250671,-0.10444 0.569232,-0.10444 z m -0.0052,0.37078 q -0.287227,0 -0.47523,0.141 -0.182781,0.13578 -0.182781,0.3969 0,0.19322 0.08878,0.32378 0.094,0.13056 0.250671,0.22456 0.156669,0.0888 0.344672,0.17234 0.271561,-0.11489 0.454341,-0.27679 0.188004,-0.16189 0.188004,-0.44389 0,-0.26112 -0.182781,-0.3969 -0.182781,-0.141 -0.485675,-0.141 z m -0.778124,2.46493 q 0,0.27156 0.193225,0.45434 0.193226,0.17756 0.595343,0.17756 0.381229,0 0.579677,-0.17756 0.20367,-0.18278 0.20367,-0.47001 0,-0.27156 -0.214115,-0.44912 -0.214114,-0.18278 -0.569232,-0.31856 l -0.08356,-0.0313 q -0.344673,0.14622 -0.527454,0.33945 -0.177558,0.188 -0.177558,0.47523 z m 6.674115,-0.91913 q 0,0.24023 -0.05745,0.47001 -0.05222,0.22978 -0.167114,0.41779 -0.114891,0.18278 -0.282005,0.29767 -0.167114,0.10967 -0.396896,0.10967 -0.240226,0 -0.381228,-0.13578 -0.13578,-0.14101 -0.167114,-0.31857 h -0.02611 q -0.094,0.19323 -0.276782,0.32379 -0.182781,0.13056 -0.459563,0.13056 -0.396896,0 -0.616233,-0.26634 -0.214115,-0.26634 -0.214115,-0.70501 0,-0.34468 0.13578,-0.60579 0.13578,-0.26634 0.381229,-0.41779 0.250671,-0.15144 0.590121,-0.15144 0.229782,0 0.449119,0.0418 0.224559,0.0366 0.349894,0.0836 l -0.05222,1.06013 q -0.0052,0.094 -0.0052,0.13578 0,0.0366 0,0.0522 0,0.27156 0.094,0.36034 0.09922,0.0888 0.229781,0.0888 0.161892,0 0.27156,-0.13056 0.114891,-0.13578 0.172337,-0.35511 0.06267,-0.22456 0.06267,-0.4909 0,-0.48567 -0.198447,-0.8199 -0.193226,-0.33945 -0.537898,-0.51701 -0.339451,-0.17756 -0.772902,-0.17756 -0.595344,0 -1.007906,0.24545 -0.40734,0.24545 -0.621455,0.6789 -0.208892,0.42823 -0.208892,0.98179 0,0.77291 0.40734,1.18547 0.40734,0.41256 1.17502,0.41256 0.31856,0 0.605788,-0.0731 0.292449,-0.0679 0.517008,-0.15145 v 0.35512 q -0.224559,0.094 -0.506564,0.15145 -0.276782,0.0627 -0.616232,0.0627 -0.616233,0 -1.054907,-0.22978 -0.438674,-0.22978 -0.673678,-0.65801 -0.229782,-0.43345 -0.229782,-1.03924 0,-0.48567 0.151447,-0.89824 0.151447,-0.41778 0.438674,-0.72068 0.287227,-0.30811 0.694568,-0.47523 0.412562,-0.17233 0.929571,-0.17233 0.54312,0 0.966127,0.22456 0.423007,0.22456 0.663233,0.64234 0.245449,0.41779 0.245449,0.99746 z m -2.637267,0.33423 q 0,0.33423 0.130558,0.48568 0.13578,0.15144 0.36034,0.15144 0.292449,0 0.417784,-0.21933 0.130558,-0.21934 0.151447,-0.56924 l 0.03133,-0.65278 q -0.06789,-0.0209 -0.172336,-0.0366 -0.104446,-0.0157 -0.214115,-0.0157 -0.255893,0 -0.412562,0.12534 -0.156669,0.12533 -0.22456,0.32378 -0.06789,0.19323 -0.06789,0.40734 z m 6.454776,-1.32124 q 0.47523,0 0.710234,0.24544 0.235004,0.24023 0.235004,0.78335 v 1.82259 h -0.454341 v -1.8017 q 0,-0.66323 -0.569232,-0.66323 -0.40734,0 -0.584899,0.235 -0.172336,0.23501 -0.172336,0.68412 v 1.54581 h -0.454341 v -1.8017 q 0,-0.66323 -0.574454,-0.66323 -0.423007,0 -0.584899,0.26111 -0.161891,0.26112 -0.161891,0.75202 v 1.4518 h -0.459564 v -2.79916 h 0.370784 l 0.06789,0.38123 h 0.02611 q 0.130558,-0.21934 0.349895,-0.32379 0.224559,-0.10966 0.47523,-0.10966 0.658011,0 0.856459,0.47 h 0.02611 q 0.141003,-0.24022 0.381229,-0.35511 0.245448,-0.11489 0.517009,-0.11489 z m 2.872269,0.005 q 0.511786,0 0.757234,0.22456 0.245449,0.22456 0.245449,0.71545 v 1.90615 H 40.34816 l -0.08878,-0.3969 h -0.02089 q -0.182781,0.22978 -0.386451,0.33945 -0.198448,0.10967 -0.553565,0.10967 -0.381229,0 -0.6319,-0.19845 -0.250671,-0.20367 -0.250671,-0.6319 0,-0.41778 0.329006,-0.64234 0.329006,-0.22978 1.013128,-0.25067 l 0.47523,-0.0157 v -0.16711 q 0,-0.3499 -0.151447,-0.48568 -0.151447,-0.13578 -0.428229,-0.13578 -0.219337,0 -0.417785,0.0679 -0.198448,0.0627 -0.370784,0.14623 l -0.141002,-0.34468 q 0.182781,-0.0992 0.433451,-0.16711 0.250671,-0.0731 0.522232,-0.0731 z m 0.13578,1.49358 q -0.522231,0.0209 -0.725902,0.16711 -0.198447,0.14623 -0.198447,0.41257 0,0.235 0.141002,0.34467 0.146225,0.10967 0.370784,0.10967 0.355117,0 0.590121,-0.19323 0.235004,-0.19845 0.235004,-0.60579 v -0.25067 z m 2.856607,1.4048 q -0.370784,0 -0.663233,-0.15145 -0.287227,-0.15144 -0.454341,-0.47 -0.161892,-0.31857 -0.161892,-0.81468 0,-0.51701 0.172336,-0.8408 0.172337,-0.32378 0.464786,-0.47523 0.297672,-0.15144 0.673678,-0.15144 0.214115,0 0.412563,0.047 0.198447,0.0418 0.323783,0.10444 l -0.141003,0.38123 q -0.125335,-0.047 -0.292449,-0.0888 -0.167114,-0.0418 -0.313339,-0.0418 -0.825125,0 -0.825125,1.06013 0,0.50657 0.198448,0.77813 0.20367,0.26634 0.600566,0.26634 0.229781,0 0.402118,-0.047 0.177558,-0.047 0.323783,-0.11489 v 0.40734 q -0.141002,0.0731 -0.313339,0.10967 -0.167114,0.0418 -0.40734,0.0418 z m 1.843475,-2.8566 q 0,0.20889 -0.02611,0.39167 h 0.03133 q 0.13578,-0.21411 0.365562,-0.32378 0.235004,-0.10967 0.506564,-0.10967 0.511786,0 0.76768,0.24545 0.255893,0.24022 0.255893,0.77812 v 1.82259 h -0.454341 v -1.79125 q 0,-0.67368 -0.626677,-0.67368 -0.470008,0 -0.647567,0.26634 -0.172336,0.26111 -0.172336,0.75201 v 1.44658 h -0.459563 v -3.96896 h 0.459563 z m 3.002827,-1.04446 q 0.104446,0 0.182781,0.0731 0.08356,0.0679 0.08356,0.21933 0,0.14623 -0.08356,0.21934 -0.07834,0.0731 -0.182781,0.0731 -0.114891,0 -0.193225,-0.0731 -0.07834,-0.0731 -0.07834,-0.21934 0,-0.15144 0.07834,-0.21933 0.07833,-0.0731 0.193225,-0.0731 z m 0.224559,1.04968 v 2.79916 H 47.28339 v -2.79916 z m 2.235144,-0.0522 q 0.501342,0 0.757235,0.24544 0.255893,0.24023 0.255893,0.78335 v 1.82259 h -0.454341 v -1.79125 q 0,-0.67368 -0.626677,-0.67368 -0.464785,0 -0.642344,0.26111 -0.177559,0.26112 -0.177559,0.75202 v 1.4518 h -0.459563 v -2.79916 h 0.370784 l 0.06789,0.38123 h 0.02611 q 0.13578,-0.21934 0.376006,-0.32379 0.240226,-0.10966 0.506564,-0.10966 z m 2.961053,0 q 0.360339,0 0.616232,0.15667 0.261116,0.15666 0.396896,0.44389 0.141002,0.28201 0.141002,0.66324 v 0.27678 h -1.916588 q 0.01044,0.47523 0.240227,0.7259 0.235004,0.24545 0.652788,0.24545 0.266338,0 0.470008,-0.047 0.208893,-0.0522 0.42823,-0.14623 v 0.40212 q -0.214115,0.094 -0.423007,0.13578 -0.208893,0.047 -0.49612,0.047 -0.396895,0 -0.705012,-0.16189 -0.302894,-0.16189 -0.47523,-0.48045 -0.167114,-0.32379 -0.167114,-0.78857 0,-0.45957 0.151447,-0.78857 0.156669,-0.32901 0.433452,-0.50657 0.282005,-0.17755 0.652789,-0.17755 z m -0.0052,0.376 q -0.329005,0 -0.522231,0.21412 -0.188003,0.20889 -0.224559,0.5849 h 1.425691 q -0.0052,-0.35512 -0.167114,-0.57446 -0.161892,-0.22456 -0.511787,-0.22456 z m 4.18829,0.80946 q -0.188003,-0.0836 -0.313338,-0.10967 -0.120114,-0.0313 -0.235004,-0.0313 -0.146225,0 -0.308117,0.0888 -0.161891,0.0888 -0.287227,0.21933 v -0.40734 q 0.250671,-0.27678 0.626678,-0.27678 0.151447,0 0.297671,0.0313 0.151447,0.0313 0.391673,0.13578 0.188004,0.0836 0.308117,0.11489 0.125335,0.0261 0.235004,0.0261 0.151447,0 0.313338,-0.0888 0.161892,-0.0888 0.287227,-0.21934 v 0.40212 q -0.255893,0.282 -0.626677,0.282 -0.146225,0 -0.302894,-0.0313 -0.151447,-0.0366 -0.386451,-0.13578 z m 2.903607,1.41002 q -0.287227,-0.005 -0.558787,-0.047 -0.271561,-0.047 -0.438674,-0.12533 v -0.4439 q 0.177558,0.0836 0.454341,0.14623 0.276782,0.0627 0.54312,0.0679 v -1.05491 q -0.517009,-0.141 -0.757235,-0.35512 -0.240226,-0.21411 -0.240226,-0.5849 0,-0.38645 0.266337,-0.60578 0.271561,-0.21934 0.731124,-0.24545 v -0.45957 h 0.334228 v 0.45435 q 0.276782,0.005 0.501341,0.0627 0.229782,0.0522 0.417785,0.13056 l -0.141002,0.38645 q -0.167114,-0.0679 -0.370784,-0.11489 -0.198448,-0.0522 -0.40734,-0.0679 v 1.04969 q 0.344672,0.0992 0.574454,0.21411 0.229781,0.10967 0.344672,0.27678 0.120113,0.16189 0.120113,0.42301 0,0.36556 -0.27156,0.59534 -0.27156,0.22456 -0.767679,0.27679 v 0.57967 h -0.334228 z m 0,-2.84615 q -0.282005,0.0209 -0.417785,0.13055 -0.130558,0.10967 -0.130558,0.28201 0,0.20889 0.114891,0.32378 0.120113,0.10967 0.433452,0.188 z m 0.334228,2.41793 q 0.308116,-0.0313 0.449118,-0.14101 0.141003,-0.11489 0.141003,-0.29245 0,-0.19844 -0.125336,-0.29767 -0.125335,-0.10444 -0.464785,-0.188 z"
     id="text2"
     aria-label="user:08@machine ~$" />
  <text
     xml:space="preserve"
     transform="matrix(0.26458333,0,0,0.26458333,7.0322231,45.662397)"
     id="text11001"
     style="font-style:normal;font-weight:normal;font-size:40px;line-height:1.25;font-family:sans-serif;white-space:pre;shape-inside:url(#rect11003);display:none;mix-blend-mode:normal;fill:#083464;fill-opacity:1;stroke:none"
     sodipodi:insensitive="true"><tspan
       x="-15.087891"
       y="-122.83741"
       id="tspan1">XFTerminal</tspan></text>
  <text
     xml:space="preserve"
     id="text11001-6"
     style="font-style:normal;font-weight:normal;font-size:40px;line-height:1.25;font-family:sans-serif;white-space:pre;shape-inside:url(#rect11003-3);display:none;fill:#ffffff;fill-opacity:1;stroke:none"
     transform="matrix(0.26458333,0,0,0.26458333,7.2193121,45.849485)"
     sodipodi:insensitive="true"><tspan
       x="-15.087891"
       y="-122.83741"
       id="tspan2">XFTerminal</tspan></text>
  <rect
     style="display:inline;opacity:0.2;mix-blend-mode:multiply;fill:url(#linearGradient11454);fill-opacity:1;stroke-width:0.519304;stroke-linecap:round;stroke-linejoin:bevel;paint-order:markers fill stroke"
     id="rect8688-3"
     width="132.50876"
     height="31.147261"
     x="1.4789541"
     y="1.422308"
     ry="4.9247365"
     inkscape:label="header-grad" />
  <path
     d="M 7.5347244,7.2421706 H 10.148808 V 10.946336 Q 9.5349743,11.14742 8.9105577,11.24267 8.286141,11.33792 7.492391,11.33792 q -1.1747499,0 -1.9790833,-0.465667 Q 4.7089744,10.396003 4.285641,9.5281703 3.872891,8.6497539 3.872891,7.4538373 3.872891,6.268504 4.3385576,5.4006707 4.8042244,4.5328373 5.6720577,4.0565873 6.5504744,3.569754 7.7887244,3.569754 q 0.635,0 1.1959166,0.1164167 0.5715,0.1164166 1.058333,0.3280833 l -0.359833,0.8255 Q 9.2809744,4.6598373 8.7729744,4.5328373 q -0.4974167,-0.127 -1.0371667,-0.127 -1.3546666,0 -2.1166666,0.8149167 -0.7514167,0.8149166 -0.7514167,2.2330833 0,0.8995833 0.28575,1.5980833 0.2963333,0.6879157 0.92075,1.0794994 0.6244167,0.381 1.6404166,0.381 0.4974167,0 0.8466667,-0.05292 0.34925,-0.05292 0.635,-0.127 V 8.0888373 H 7.5347244 Z M 14.562064,5.4535873 q 1.016,0 1.534584,0.4974167 0.518583,0.4868333 0.518583,1.5875 v 3.693582 h -0.92075 V 7.602004 q 0,-1.36525 -1.27,-1.36525 -0.941917,0 -1.30175,0.5291666 -0.359833,0.5291667 -0.359833,1.524 V 11.232086 H 11.831564 V 5.5594207 h 0.751417 l 0.137583,0.7725833 h 0.05292 q 0.275167,-0.4445 0.762,-0.6561667 0.486833,-0.22225 1.026583,-0.22225 z m 8.741834,2.9315833 q 0,1.4075827 -0.719667,2.1801654 -0.709083,0.772584 -1.926166,0.772584 -0.751417,0 -1.344084,-0.338667 -0.582083,-0.34925 -0.92075,-1.0054167 -0.338666,-0.6667497 -0.338666,-1.6086657 0,-1.4075833 0.709083,-2.1695833 0.709083,-0.762 1.926167,-0.762 0.772583,0 1.354666,0.34925 0.592667,0.3386667 0.92075,0.9948333 0.338667,0.6455834 0.338667,1.5875 z m -4.28625,0 q 0,1.005416 0.391583,1.5980827 0.402167,0.5820827 1.27,0.5820827 0.85725,0 1.259417,-0.5820827 0.402167,-0.5926667 0.402167,-1.5980827 0,-1.0054166 -0.402167,-1.5769166 -0.402167,-0.5715 -1.27,-0.5715 -0.867833,0 -1.259417,0.5715 -0.391583,0.5715 -0.391583,1.5769166 z M 30.997976,5.4535873 q 0.963084,0 1.439334,0.4974167 0.47625,0.4868333 0.47625,1.5875 v 3.693582 H 31.99281 V 7.5808373 q 0,-1.3440833 -1.153584,-1.3440833 -0.8255,0 -1.185333,0.47625 -0.34925,0.47625 -0.34925,1.3864166 v 3.1326654 h -0.92075 V 7.5808373 q 0,-1.3440833 -1.164167,-1.3440833 -0.85725,0 -1.185333,0.5291666 -0.328083,0.5291667 -0.328083,1.524 V 11.232086 H 24.774976 V 5.5594207 h 0.751417 l 0.137583,0.7725833 h 0.05292 q 0.264583,-0.4445 0.709083,-0.6561667 0.455084,-0.22225 0.963084,-0.22225 1.3335,0 1.735666,0.9525 h 0.05292 q 0.28575,-0.4868333 0.772583,-0.7196666 0.497417,-0.2328334 1.04775,-0.2328334 z m 5.863162,0 q 0.73025,0 1.248834,0.3175 0.529166,0.3175 0.804333,0.8995833 0.28575,0.5715 0.28575,1.3440834 v 0.5609169 h -3.884083 q 0.02117,0.9630824 0.486833,1.4710821 0.47625,0.497417 1.322917,0.497417 0.53975,0 0.9525,-0.09525 0.423333,-0.105834 0.867833,-0.296334 v 0.814917 q -0.433917,0.1905 -0.85725,0.275167 -0.423333,0.09525 -1.005417,0.09525 -0.804333,0 -1.42875,-0.328084 -0.613833,-0.328083 -0.963083,-0.973666 -0.338667,-0.6561664 -0.338667,-1.5980831 0,-0.9313329 0.306917,-1.5980829 0.3175,-0.66675 0.878417,-1.0265834 0.5715,-0.3598333 1.322916,-0.3598333 z m -0.01058,0.762 q -0.66675,0 -1.058333,0.4339167 -0.381,0.4233333 -0.455084,1.1853333 h 2.88925 Q 38.215805,7.1151706 37.887722,6.6706706 37.559638,6.2155873 36.850555,6.2155873 Z m 9.059325,5.0164987 h -0.9525 V 4.5116707 H 42.597297 V 3.6755873 h 5.662083 v 0.8360834 h -2.3495 z m 4.815419,-5.7784987 q 0.73025,0 1.248834,0.3175 0.529166,0.3175 0.804333,0.8995833 0.28575,0.5715 0.28575,1.3440834 v 0.5609169 h -3.884083 q 0.02117,0.9630824 0.486833,1.4710821 0.47625,0.497417 1.322917,0.497417 0.53975,0 0.9525,-0.09525 0.423333,-0.105834 0.867833,-0.296334 v 0.814917 q -0.433917,0.1905 -0.85725,0.275167 -0.423333,0.09525 -1.005417,0.09525 -0.804333,0 -1.42875,-0.328084 -0.613833,-0.328083 -0.963083,-0.973666 -0.338667,-0.6561664 -0.338667,-1.5980831 0,-0.9313329 0.306917,-1.5980829 0.3175,-0.66675 0.878417,-1.0265834 0.5715,-0.3598333 1.322916,-0.3598333 z m -0.01058,0.762 q -0.66675,0 -1.058333,0.4339167 -0.381,0.4233333 -0.455084,1.1853333 h 2.88925 Q 52.079966,7.1151706 51.751883,6.6706706 51.423799,6.2155873 50.714716,6.2155873 Z m 6.434656,-0.762 q 0.15875,0 0.338667,0.021167 0.1905,0.010583 0.328083,0.042333 l -0.116417,0.85725 q -0.137583,-0.03175 -0.306916,-0.052917 -0.15875,-0.021167 -0.306917,-0.021167 -0.433917,0 -0.814917,0.2434166 -0.381,0.2328334 -0.613833,0.66675 -0.22225,0.4233334 -0.22225,0.9948334 V 11.232086 H 54.503539 V 5.5594207 h 0.762 l 0.105833,1.0371666 h 0.04233 Q 55.688869,6.1309206 56.122786,5.792254 56.556702,5.4535873 57.149369,5.4535873 Z m 7.948086,0 q 0.963083,0 1.439333,0.4974167 0.47625,0.4868333 0.47625,1.5875 v 3.693582 h -0.92075 V 7.5808373 q 0,-1.3440833 -1.153583,-1.3440833 -0.8255,0 -1.185333,0.47625 -0.34925,0.47625 -0.34925,1.3864166 v 3.1326654 h -0.92075 V 7.5808373 q 0,-1.3440833 -1.164167,-1.3440833 -0.85725,0 -1.185333,0.5291666 -0.328084,0.5291667 -0.328084,1.524 V 11.232086 H 58.874458 V 5.5594207 h 0.751417 l 0.137583,0.7725833 h 0.05292 q 0.264583,-0.4445 0.709083,-0.6561667 0.455083,-0.22225 0.963083,-0.22225 1.3335,0 1.735667,0.9525 h 0.05292 q 0.28575,-0.4868333 0.772583,-0.7196666 0.497417,-0.2328334 1.04775,-0.2328334 z m 4.148661,-2.0214166 q 0.211667,0 0.370417,0.1481666 0.169333,0.1375834 0.169333,0.4445 0,0.2963334 -0.169333,0.4445 -0.15875,0.1481667 -0.370417,0.1481667 -0.232833,0 -0.391583,-0.1481667 -0.15875,-0.1481666 -0.15875,-0.4445 0,-0.3069166 0.15875,-0.4445 0.15875,-0.1481666 0.391583,-0.1481666 z m 0.455084,2.12725 v 5.6726653 h -0.93134 V 5.5594207 Z m 4.529658,-0.1058334 q 1.016,0 1.534584,0.4974167 0.518583,0.4868333 0.518583,1.5875 v 3.693582 h -0.92075 V 7.602004 q 0,-1.36525 -1.27,-1.36525 -0.941917,0 -1.30175,0.5291666 -0.359833,0.5291667 -0.359833,1.524 v 2.9421654 h -0.93134 V 5.5594207 h 0.751417 l 0.137583,0.7725833 h 0.05292 q 0.275167,-0.4445 0.762,-0.6561667 0.486833,-0.22225 1.026583,-0.22225 z m 5.958417,0.010583 q 1.037167,0 1.534583,0.4550833 0.497417,0.4550833 0.497417,1.4499166 V 11.232086 H 81.54395 l -0.179916,-0.804333 h -0.04233 q -0.370416,0.465667 -0.783166,0.687917 -0.402167,0.22225 -1.121833,0.22225 -0.772584,0 -1.280584,-0.402167 -0.508,-0.41275 -0.508,-1.2805827 0,-0.8466664 0.66675,-1.3017501 0.66675,-0.4656666 2.053167,-0.508 l 0.963083,-0.03175 V 7.475004 q 0,-0.7090834 -0.306916,-0.98425 -0.306917,-0.2751667 -0.867834,-0.2751667 -0.4445,0 -0.846666,0.1375833 -0.402167,0.127 -0.751417,0.2963334 l -0.28575,-0.6985 q 0.370417,-0.2010834 0.878417,-0.3386667 0.508,-0.1481666 1.058333,-0.1481666 z m 0.275167,3.0268336 q -1.058334,0.04233 -1.471084,0.338667 -0.402166,0.2963327 -0.402166,0.8360824 0,0.4762497 0.28575,0.6984997 0.296333,0.22225 0.751416,0.22225 0.719667,0 1.195917,-0.391583 0.47625,-0.4021667 0.47625,-1.2276664 V 8.4592539 Z m 4.44501,2.7410821 H 83.978122 V 3.188754 h 0.931333 z"
     id="text19"
     style="font-size:40px;line-height:1.25;white-space:pre;display:inline;fill:#000000;fill-opacity:1;stroke-width:0.264583"
     aria-label="Gnome Terminal" />
</g>
<g
   id="g20"
   transform="translate(-139.40506,-7.9503765)"
   style="display:inline">
  <path
     id="path19"
     style="fill:#b3b3b3;fill-opacity:1;stroke:none;stroke-width:0.264583"
     d="m 253.43749,59.652798 -2.472,-1.9047 -4.62898,2.54139 -1.64668,1.64126 -1.2552,2.07701 -4.88834,-2.4262 0.89239,-2.25471 0.31149,-2.30356 -0.77839,-5.223835 -3.01311,-0.814831 -3.30435,4.119706 -0.89176,2.14619 -0.3658,2.3977 -5.44484,-0.36804 -0.0379,-2.42676 -0.59302,-2.24753 -2.71884,-4.528174 -3.09447,0.399968 -1.47729,5.071036 -0.003,2.32436 0.5818,2.35639 -5.17306,1.74282 -0.96396,-2.22682 -1.40769,-1.85 -4.24505,-3.1424 -2.70503,1.55373 0.57516,5.24968 0.8874,2.14845 1.43815,1.95458 -4.11251,3.5891 -1.74059,-1.68852 -2.01071,-1.16954 -5.12374,-1.27972 -1.90471,2.47126 2.54029,4.63081 1.64274,1.64448 2.07629,1.25592 -2.42548,4.88908 -2.25581,-0.89348 -2.30318,-0.31186 -5.22348,0.77948 -0.81446,3.01275 4.11896,3.30435 2.14693,0.8925 2.39806,0.36543 -0.36877,5.44484 -2.42603,0.0379 -2.24789,0.59264 -4.5278,2.7192 0.39959,3.09484 5.07031,1.476562 2.32654,0.004 2.35457,-0.582172 1.74246,5.172702 -2.22682,0.96395 -1.84891,1.40806 -3.14311,4.24505 1.55372,2.70575 5.2504,-0.57589 2.14809,-0.88703 1.95531,-1.43814 3.5891,4.1125 -1.68962,1.74021 -1.16954,2.01072 -1.27936,5.12412 2.47127,1.90469 4.63044,-2.54066 1.64447,-1.64273 1.25556,-2.07665 4.88908,2.42547 -0.89275,2.25581 -0.31223,2.30356 0.77839,5.2231 3.01312,0.81483 3.30507,-4.11897 0.89177,-2.14692 0.36543,-2.39807 5.44483,0.36877 0.0383,2.42641 0.59374,2.24753 2.7174,4.52742 3.09519,-0.39922 1.47692,-5.07068 0.003,-2.32619 -0.58181,-2.35419 5.17234,-1.74282 0.96359,2.22645 1.40805,1.84964 4.24505,3.14239 2.70576,-1.55299 -0.57516,-5.25114 -0.88813,-2.14772 -1.43742,-1.95458 4.11215,-3.58947 1.74131,1.68999 2.00962,1.16844 5.12411,1.28009 1.90507,-2.47163 -2.54102,-4.63081 -1.64201,-1.64447 -2.07629,-1.25519 2.42547,-4.88908 2.25471,0.89312 2.30466,0.31114 5.22273,-0.77876 0.81447,-3.01202 -4.11861,-3.305442 -2.14764,-0.89177 -2.39771,-0.36507 0.36914,-5.4452 2.42639,-0.0383 2.24716,-0.59265 4.52818,-2.71884 -0.39997,-3.09447 -5.07067,-1.47766 -2.32472,-0.002 -2.35566,0.58108 -1.74318,-5.1727 2.22682,-0.96323 1.85,-1.40842 3.14239,-4.24431 -1.55335,-2.70613 -5.25006,0.57552 -2.14881,0.88777 -1.95421,1.43778 -3.58948,-4.11214 1.68964,-1.74168 1.1688,-2.00926 z m -10.68229,16.21424 c 0.4053,0.40716 0.7999,0.82528 1.08699,1.15646 1.97706,2.28063 3.42702,4.86311 4.3558,7.58711 0.28288,0.82967 -0.16051,1.86445 -0.92682,2.29044 l -2.66321,1.48 c -0.76631,0.42599 -1.50294,0.0685 -1.73427,-0.77681 -0.61981,-2.26501 -1.71763,-4.4294 -3.29679,-6.33645 -0.55898,-0.67505 -1.56451,-1.68522 -2.23698,-2.24727 -1.89968,-1.58777 -4.0589,-2.69533 -6.32089,-3.32548 -0.84428,-0.23521 -1.19834,-0.97348 -0.76885,-1.73782 l 1.49222,-2.65639 c 0.4295,-0.76434 1.4663,-1.20298 2.29467,-0.91629 2.7196,0.94122 5.29522,2.4028 7.56667,4.39021 0.32986,0.28861 0.74616,0.68512 1.15146,1.09229 z m -11.21599,10.88608 c 1.89009,1.80269 2.7601,4.55719 2.03037,7.25583 -1.06146,3.92531 -5.1045,6.246672 -9.02982,5.18525 -3.92529,-1.06147 -6.24666,-5.10377 -5.18525,-9.02908 1.06148,-3.92528 5.10415,-6.24703 9.02945,-5.18562 1.22665,0.3317 2.29613,0.95423 3.15525,1.77362 z m 8.5369,17.410852 c 0.0654,0.0738 0.12624,0.15828 0.18213,0.25255 l 1.57175,2.65062 c 0.44714,0.75416 0.3078,1.87022 -0.35603,2.44267 -5.47652,4.72252 -12.67783,6.42974 -19.40473,5.13257 -0.86073,-0.16596 -1.53607,-1.06461 -1.52186,-1.94125 l 0.0498,-3.04849 c 0.0142,-0.87663 0.69202,-1.33447 1.53945,-1.11096 5.15397,1.35936 10.81171,0.24884 16.31793,-4.40702 0.5037,-0.50139 1.1647,-0.48735 1.62162,0.0293 z M 214.44478,78.417678 c 0.50684,0.46704 0.48509,1.1621 -0.0511,1.71036 -3.5958,3.67667 -6.1385,9.65132 -4.41186,16.2067 0.22323,0.84755 -0.23767,1.52271 -1.11436,1.53289 l -3.04796,0.0358 c -0.87669,0.0102 -1.77194,-0.66891 -1.93388,-1.53039 -1.26556,-6.7323 0.47432,-13.92528 5.22158,-19.37951 0.5755,-0.66121 1.69219,-0.79541 2.44428,-0.34482 l 2.64339,1.5839 c 0.094,0.0563 0.17747,0.11839 0.24988,0.18511 z" />
  <path
     id="path3"
     style="fill:#e6e6e6;fill-opacity:1;stroke:none;stroke-width:0.264583"
     d="m 176.43781,30.929458 -3.48429,4.947693 -0.32628,1.403222 0.057,3.759867 -5.65725,0.997776 -1.23376,-3.552396 -0.78553,-1.208416 -4.96513,-3.457367 -2.53243,1.461818 0.51154,6.02941 0.65252,1.284438 2.45958,2.844447 -3.69174,4.401298 -3.22933,-1.929031 -1.37786,-0.421285 -6.02625,0.544817 -1.00093,2.746258 4.26823,4.290431 1.32564,0.5654 3.71393,0.59708 v 5.74434 l -3.71393,0.59708 -1.32564,0.56382 -4.26823,4.29043 1.00093,2.74784 6.02625,0.54323 1.37786,-0.4197 3.22933,-1.92903 3.69174,4.39971 -2.45958,2.84604 -0.65252,1.28285 -0.51154,6.03099 2.53243,1.46183 4.96513,-3.45737 0.78553,-1.20842 1.23376,-3.55239 5.65725,0.99618 -0.057,3.76146 0.32628,1.40322 3.48429,4.94769 2.87927,-0.5068 1.58219,-5.84094 -0.17592,-1.43015 -1.33827,-3.51597 4.9746,-2.87137 2.37407,2.9173 1.15141,0.86474 5.84886,1.5521 1.87994,-2.24104 -2.54353,-5.49093 -1.05165,-0.98352 -3.28471,-1.83083 1.96385,-5.39749 3.69337,0.70794 1.43965,-0.0776 5.47667,-2.57204 v -2.92364 l -5.47667,-2.57204 -1.43965,-0.076 -3.69337,0.70795 -1.96385,-5.397488 3.28471,-1.83242 1.05165,-0.983522 2.54353,-5.490929 -1.87994,-2.239447 -5.84886,1.550509 -1.15141,0.866322 -2.37407,2.917303 -4.9746,-2.872959 1.33827,-3.514384 0.17592,-1.430143 -1.58219,-5.840942 z m -3.48429,20.067939 a 8.1088988,8.1088988 0 0 1 8.10889,8.108901 8.1088988,8.1088988 0 0 1 -8.10889,8.1089 8.1088988,8.1088988 0 0 1 -8.10892,-8.1089 8.1088988,8.1088988 0 0 1 8.10892,-8.108901 z" />
  <path
     id="path4"
     style="fill:#cccccc;fill-opacity:1;stroke:none;stroke-width:0.264583;filter:url(#filter6)"
     d="m 82.074219,48.998047 c -0.453193,1.462224 -0.502809,3.069039 0.09961,4.496094 0.415274,1.29132 0.125346,2.945938 -1.167969,3.623047 -1.442982,0.86464 -3.148243,1.092479 -4.684444,1.744217 -1.370204,0.464033 -2.739976,0.929345 -4.110477,1.392501 -1.053439,-2.054597 -1.475049,-4.574826 -3.346405,-6.099962 -0.56045,-0.514333 -0.904992,-0.625623 -0.614533,0.262072 0.186706,1.271355 0.737822,2.479512 1.65569,3.386568 0.925514,1.06325 1.339122,2.817256 0.290021,3.945718 -1.202388,1.472924 -2.831708,2.506267 -4.18056,3.833218 -0.88769,0.777711 -1.777248,1.553294 -2.663589,2.332542 -1.753598,-1.446132 -3.068391,-3.581612 -5.323193,-4.306988 -0.498454,-0.136945 -1.314946,-0.435147 -0.684766,0.272379 0.675122,1.203721 1.716516,2.18709 3.002334,2.702892 1.296763,0.651634 2.289511,2.22405 1.653871,3.665279 -0.617923,1.816088 -1.692485,3.430317 -2.452652,5.186467 -0.489829,0.991947 -0.977962,1.984731 -1.469031,2.976065 -2.196147,-0.716353 -4.284587,-2.186528 -6.686781,-1.949987 -0.345541,0.0762 -1.226064,0.07053 -0.546203,0.404462 1.138059,0.888717 2.534377,1.501211 4.000562,1.438103 1.562132,0.111438 3.07086,1.441467 2.923051,3.09277 -0.0148,1.911806 -0.277486,3.813326 -0.343959,5.724738 -0.06475,0.996379 -0.12979,1.99274 -0.194326,2.989133 -2.271853,0.171995 -4.716391,-0.354981 -6.833356,0.705091 -0.315118,0.211663 -1.212625,0.569971 -0.431217,0.630919 1.355392,0.385939 2.833629,0.420323 4.139573,-0.162182 1.364045,-0.44464 3.152468,-0.101164 3.783203,1.324219 0.830402,1.611807 1.163465,3.41857 1.839324,5.09468 0.39762,1.177538 0.79872,2.353908 1.193879,3.532278 -2.070007,1.07533 -4.618322,1.49882 -6.150391,3.40234 -0.40903,0.50785 -0.590504,0.84933 0.239927,0.57364 1.313568,-0.17394 2.557652,-0.73882 3.491562,-1.68582 1.036706,-0.88701 2.708626,-1.30474 3.83386,-0.33444 1.388348,1.04706 2.295503,2.57616 3.52045,3.79192 0.914198,1.04498 1.827505,2.09073 2.742326,3.13517 -1.531115,1.77824 -3.744903,3.17442 -4.39421,5.55145 -0.122069,0.42816 -0.291788,1.0063 0.279236,0.47983 1.221823,-0.68147 2.246025,-1.72088 2.764823,-3.0326 0.641335,-1.27227 2.163195,-2.27843 3.594709,-1.68456 1.792828,0.56662 3.358393,1.65346 5.084176,2.38365 1.051239,0.51869 2.102378,1.03758 3.153688,1.55613 -0.706881,2.20594 -2.208722,4.29535 -1.943479,6.70622 0.06596,0.47661 0.103216,1.20192 0.480489,0.41188 0.847038,-1.08167 1.37373,-2.40423 1.365142,-3.78691 0.09549,-1.4173 1.079163,-2.93916 2.626438,-2.97078 1.852934,-0.16915 3.696393,0.22989 5.54919,0.2509 1.20845,0.0788 2.416887,0.15772 3.625345,0.23635 0.195158,2.33991 -0.416397,4.89389 0.818165,7.03257 0.227686,0.42509 0.515106,0.90593 0.552764,0.12602 0.392822,-1.40255 0.299043,-2.90701 -0.247882,-4.25429 -0.377258,-1.28467 -0.01023,-2.89772 1.28125,-3.51563 1.471082,-0.82511 3.168754,-1.08673 4.718567,-1.72565 1.333396,-0.45212 2.666779,-0.90427 4.000179,-1.35638 1.06216,2.05001 1.47486,4.57821 3.35031,6.09996 0.53229,0.47845 0.91865,0.65991 0.61787,-0.22826 -0.17979,-1.30262 -0.7512,-2.53217 -1.68875,-3.45867 -0.92987,-1.08154 -1.29124,-2.85441 -0.21852,-3.97322 1.19255,-1.40123 2.75008,-2.42318 4.06466,-3.7019 0.91839,-0.80396 1.83725,-1.60738 2.75529,-2.41174 1.66892,1.44929 2.91809,3.34202 4.97071,4.21289 0.42282,0.16977 0.87231,0.24883 1.3164,0.33985 -0.71362,-1.3417 -1.73916,-2.5965 -3.19732,-3.15261 -1.28331,-0.62825 -2.35406,-2.1089 -1.80268,-3.572 0.5496,-1.7927 1.64287,-3.348393 2.36612,-5.069282 0.53228,-1.079759 1.06431,-2.159644 1.59677,-3.239314 2.20803,0.705149 4.29517,2.205451 6.71014,1.941621 0.64366,-0.04 1.11141,-0.182351 0.29078,-0.56427 -1.13608,-0.87095 -2.54325,-1.338631 -3.97291,-1.301969 -1.65754,-0.17487 -3.02067,-1.803985 -2.71712,-3.482701 0.18449,-2.765543 0.3617,-5.531252 0.54067,-8.297759 2.30542,-0.191166 4.80234,0.395063 6.93115,-0.757032 0.44931,-0.248102 1.04465,-0.569648 0.18847,-0.61286 -1.30724,-0.357447 -2.72384,-0.358492 -3.97876,0.189437 -1.37693,0.470036 -3.20443,0.11202 -3.81201,-1.351617 -0.86452,-1.728864 -1.23683,-3.647627 -1.95179,-5.437465 -0.35616,-1.050518 -0.71228,-2.101047 -1.06846,-3.151557 2.0449,-1.064336 4.55946,-1.479892 6.0918,-3.337891 0.42803,-0.515267 0.70069,-0.940017 -0.2027,-0.635348 -1.30985,0.174148 -2.54503,0.751548 -3.47607,1.691862 -1.08512,0.939517 -2.87458,1.292137 -3.9885,0.200508 -1.42377,-1.205652 -2.45208,-2.790282 -3.75427,-4.116721 -0.7827,-0.893745 -1.56505,-1.787792 -2.348,-2.681316 1.5061,-1.760933 3.67756,-3.127238 4.37019,-5.450474 0.10242,-0.4076 0.35572,-1.140249 -0.23966,-0.605141 -1.30897,0.733345 -2.34471,1.894833 -2.91377,3.281178 -0.71308,1.254786 -2.36782,2.088686 -3.73736,1.368537 -2.07731,-0.836841 -4.012007,-1.981236 -6.049263,-2.908967 -0.636215,-0.313666 -1.272499,-0.627192 -1.908647,-0.940993 0.704713,-2.168142 2.087556,-4.147995 1.974609,-6.513672 -0.0792,-0.670192 -0.147331,-1.424915 -0.621434,-0.459736 -0.796011,1.050821 -1.272268,2.328903 -1.248339,3.652125 -0.09961,1.482298 -1.208418,2.975987 -2.790383,3.002924 -1.543601,0.08479 -3.073323,-0.232956 -4.616843,-0.24411 -1.468868,-0.09566 -2.937704,-0.191821 -4.406595,-0.28714 -0.18422,-2.280854 0.388167,-4.742339 -0.714622,-6.859714 -0.139347,-0.14267 -0.454911,-0.972817 -0.545143,-0.702786 z M 87.0625,60.222656 c 4.390442,0.07177 8.934126,0.980025 12.617206,3.469492 1.871874,1.684375 1.931504,4.577878 0.995324,6.762772 -0.35455,1.911252 -1.483257,4.016131 -3.558512,4.409993 -2.082106,0.519187 -3.843862,-1.026815 -5.719389,-1.610542 -3.838428,-1.25931 -8.13828,-0.674597 -11.636978,1.288208 -2.240295,1.254571 -5.201387,-0.324686 -5.957305,-2.647258 -0.423174,-1.926121 -1.347171,-3.909201 -0.769234,-5.912453 0.58842,-2.133605 2.648865,-3.385284 4.640645,-4.005773 2.998618,-1.146982 6.175747,-1.746463 9.388243,-1.754439 z m 0.173828,15.623047 c 5.66769,-0.03929 10.766815,5.269194 10.367211,10.95029 -0.155334,5.121636 -4.507281,9.840016 -9.681664,10.106351 -4.852937,0.417011 -9.845689,-2.905814 -11.019364,-7.694423 -1.292801,-4.590467 0.893042,-10.009842 5.239346,-12.12157 1.560733,-0.8269 3.328775,-1.252512 5.094471,-1.240648 z m -18.265625,6.242188 c 2.610789,-0.08316 4.633404,2.627335 4.316406,5.113281 0.259458,4.622197 3.025473,9.226389 7.216797,11.398437 2.294463,1.544931 2.327794,5.366211 0.08984,6.976561 -1.3969,1.56458 -3.077355,3.36512 -5.357422,3.29492 -2.526913,0.004 -4.40574,-1.94122 -6.157041,-3.50391 -4.87538,-4.64037 -8.02377,-11.206992 -8.100771,-17.978508 0.263297,-2.672113 2.830483,-4.556053 5.376028,-4.789029 0.859325,-0.223103 1.723911,-0.469368 2.616159,-0.511752 z m 35.847657,0.0039 c 1.76813,0.165001 3.55274,0.527997 5.2025,1.209659 1.91277,0.669736 3.0676,2.641438 3.15453,4.605035 0.0827,1.594095 -0.39684,3.145821 -0.69522,4.697102 -1.61062,6.523638 -5.78943,12.481523 -11.6122,15.896133 -2.405829,1.03759 -5.235952,-0.21108 -6.698667,-2.23812 -1.420442,-1.24912 -2.766076,-3.11189 -2.238696,-5.10516 0.393974,-1.975298 2.360499,-2.91401 3.823207,-4.014314 3.389214,-2.754137 4.940466,-7.182031 5.181736,-11.433148 0.25823,-1.906475 1.9481,-3.521864 3.88281,-3.617187 z"
     transform="rotate(45.1315,149.8682,256.94952)" />
  <path
     id="path5"
     style="fill:#cccccc;fill-opacity:1;stroke:none;stroke-width:0.264583;filter:url(#filter5)"
     d="m 176.81519,35.707166 c -0.69393,0.814141 -1.33759,1.792245 -1.1723,2.915588 0.007,1.493073 0.40069,3.24843 -0.61448,4.511044 -1.22432,1.339104 -3.20362,1.156057 -4.82716,1.558467 -1.77974,0.314804 -3.55939,0.630093 -5.33919,0.944588 -1.02987,-1.932854 -1.27931,-4.184481 -2.39453,-6.076172 -0.533,-0.439199 -1.09913,-0.835381 -1.67578,-1.214843 0.0105,1.205433 0.1396,2.546811 1.12308,3.382245 1.02199,1.152718 2.52484,2.374661 2.27731,4.092364 -0.30598,1.65208 -1.78274,2.678277 -2.71164,3.975714 -1.14698,1.366747 -2.29325,2.734101 -3.4407,4.100458 -1.97354,-0.854444 -3.71775,-2.327468 -5.6504,-3.123047 -0.71846,0.0027 -1.43622,0.05243 -2.14843,0.146484 0.77537,0.909202 1.75722,1.878544 3.05641,1.868951 1.55222,0.21239 3.53702,0.238296 4.41038,1.785341 0.76365,1.4798 0.29259,3.19052 0.42188,4.77813 0,1.73932 0,3.47865 0,5.21797 -2.08939,0.74273 -4.35299,0.53449 -6.41992,1.33398 -0.51635,0.44906 -0.99512,0.93837 -1.46875,1.43164 1.16462,0.19995 2.53264,0.29786 3.52124,-0.5249 1.30606,-0.7786 2.74319,-2.04298 4.37719,-1.5376 1.66764,0.59693 2.45184,2.33337 3.62432,3.53216 1.10731,1.31519 2.21198,2.63261 3.321,3.94636 -1.19048,1.83082 -2.97608,3.19566 -4.07422,5.08984 -0.13522,0.68038 -0.17165,1.37555 -0.2168,2.06641 1.04214,-0.60284 2.11759,-1.3906 2.35809,-2.6512 0.49292,-1.467 0.83024,-3.4283 2.48761,-4.04997 1.60124,-0.52435 3.22812,0.2487 4.82808,0.39867 1.71941,0.30271 3.4389,0.60494 5.15825,0.90797 0.30861,2.17025 -0.22224,4.37219 0.17383,6.5332 0.33958,0.60121 0.75779,1.15272 1.16211,1.71094 0.4004,-1.10965 0.73855,-2.44455 0.0937,-3.55939 -0.55455,-1.41596 -1.47418,-3.02761 -0.77926,-4.55389 0.81801,-1.51984 2.63214,-1.94996 3.95849,-2.88657 1.54133,-0.88847 3.08142,-1.77909 4.62354,-2.66617 1.59977,1.4704 2.63878,3.44252 4.27735,4.8711 0.66557,0.23117 1.34569,0.41664 2.0293,0.58593 -0.40454,-1.13524 -0.99353,-2.32677 -2.19581,-2.78559 -1.33099,-0.71797 -3.10326,-1.34858 -3.52685,-2.97417 -0.32279,-1.53204 0.5847,-2.92048 0.99657,-4.30002 0.66968,-1.83273 1.33461,-3.6672 2.00734,-5.49881 2.15818,0.13931 4.21914,0.92644 6.38281,1.00391 0.6763,-0.2333 1.32121,-0.54874 1.96093,-0.86719 -1.01362,-0.54749 -2.15935,-1.13792 -3.33405,-0.74242 -1.40118,0.23832 -2.91192,0.83401 -4.30852,0.31078 -1.65555,-0.84017 -1.85547,-2.88923 -2.51403,-4.41576 -0.6421,-1.765185 -1.28717,-3.529302 -1.92738,-5.295179 1.70951,-1.356624 3.94133,-2.031248 5.55274,-3.410156 0.3375,-0.605173 0.63331,-1.232241 0.91015,-1.867187 -1.19054,0.202535 -2.46164,0.592453 -3.13023,1.685797 -0.94936,1.199571 -1.89678,2.879649 -3.61196,2.954828 -1.69268,-0.0036 -2.97662,-1.285594 -4.42219,-1.985511 -1.5417,-0.891959 -3.08223,-1.785935 -4.62468,-2.676599 0.50022,-2.118369 1.66184,-4.01634 2.09375,-6.152343 -0.12958,-0.683943 -0.3179,-1.354318 -0.50781,-2.023438 -0.0501,0.06575 -0.10026,0.13151 -0.15039,0.197266 z m -4.05469,12.134765 c 5.97583,-0.169894 11.47596,5.245793 11.31414,11.239057 0.0783,5.42885 -4.2824,10.60087 -9.72234,11.21211 -5.07406,0.74009 -10.49778,-2.38914 -12.14982,-7.29473 -1.70998,-4.62825 -0.0348,-10.347361 4.12501,-13.094969 1.87828,-1.304385 4.14731,-2.027024 6.43301,-2.061468 z" />
</g>
<metadata
   id="metadata1">
  <rdf:RDF>
    <cc:Work
       rdf:about="">
      <dc:creator>
        <cc:Agent>
          <dc:title>Jess Tipton</dc:title>
        </cc:Agent>
      </dc:creator>
      <dc:publisher>
        <cc:Agent>
          <dc:title>m0dw3rks.com</dc:title>
        </cc:Agent>
      </dc:publisher>
      <cc:license
         rdf:resource="https://creativecommons.org/licenses/by-nc-nd/4.0/deed.en" />
    </cc:Work>
  </rdf:RDF>
</metadata>
<metadata
   id="metadata6">
  <rdf:RDF>
    <cc:Work
       rdf:about="">
      <dc:creator>
        <cc:Agent>
          <dc:title>Jess Tipton</dc:title>
        </cc:Agent>
      </dc:creator>
      <cc:license
         rdf:resource="https://creativecommons.org/licenses/by-nc-nd/4.0/deed.en" />
      <dc:publisher>
        <cc:Agent>
          <dc:title>m0dw3rks.com</dc:title>
        </cc:Agent>
      </dc:publisher>
    </cc:Work>
  </rdf:RDF>
</metadata>
<metadata
   id="metadata2">
  <rdf:RDF>
    <cc:Work
       rdf:about="">
      <dc:creator>
        <cc:Agent>
          <dc:title>Jess Tipton</dc:title>
        </cc:Agent>
      </dc:creator>
      <cc:license
         rdf:resource="https://creativecommons.org/licenses/by-nc-nd/4.0/deed.en" />
      <dc:publisher>
        <cc:Agent>
          <dc:title>m0dw3rks.com</dc:title>
        </cc:Agent>
      </dc:publisher>
    </cc:Work>
  </rdf:RDF>
</metadata>
<metadata
   id="metadata3">
  <rdf:RDF>
    <cc:Work
       rdf:about="">
      <dc:creator>
        <cc:Agent>
          <dc:title>Jess Tipton</dc:title>
        </cc:Agent>
      </dc:creator>
      <cc:license
         rdf:resource="https://creativecommons.org/licenses/by-nc-nd/4.0/deed.en" />
      <dc:publisher>
        <cc:Agent>
          <dc:title>m0dw3rks.com</dc:title>
        </cc:Agent>
      </dc:publisher>
    </cc:Work>
  </rdf:RDF>
</metadata>
<metadata
   id="metadata4">
  <rdf:RDF>
    <cc:Work
       rdf:about="">
      <dc:creator>
        <cc:Agent>
          <dc:title>Jess Tipton</dc:title>
        </cc:Agent>
      </dc:creator>
      <cc:license
         rdf:resource="https://creativecommons.org/licenses/by-nc-nd/4.0/deed.en" />
      <dc:publisher>
        <cc:Agent>
          <dc:title>m0dw3rks.com</dc:title>
        </cc:Agent>
      </dc:publisher>
    </cc:Work>
  </rdf:RDF>
</metadata>
<metadata
   id="metadata5">
  <rdf:RDF>
    <cc:Work
       rdf:about="">
      <dc:creator>
        <cc:Agent>
          <dc:title>Jess Tipton</dc:title>
        </cc:Agent>
      </dc:creator>
      <cc:license
         rdf:resource="https://creativecommons.org/licenses/by-nc-nd/4.0/deed.en" />
      <dc:publisher>
        <cc:Agent>
          <dc:title>m0dw3rks.com</dc:title>
        </cc:Agent>
      </dc:publisher>
    </cc:Work>
  </rdf:RDF>
</metadata>
<metadata
   id="metadata7">
  <rdf:RDF>
    <cc:Work
       rdf:about="">
      <dc:creator>
        <cc:Agent>
          <dc:title>Jess Tipton</dc:title>
        </cc:Agent>
      </dc:creator>
      <cc:license
         rdf:resource="https://creativecommons.org/licenses/by-nc-nd/4.0/deed.en" />
      <dc:publisher>
        <cc:Agent>
          <dc:title>m0dw3rks.com</dc:title>
        </cc:Agent>
      </dc:publisher>
    </cc:Work>
  </rdf:RDF>
</metadata>
<metadata
   id="metadata8">
  <rdf:RDF>
    <cc:Work
       rdf:about="">
      <dc:creator>
        <cc:Agent>
          <dc:title>Jess Tipton</dc:title>
        </cc:Agent>
      </dc:creator>
      <cc:license
         rdf:resource="https://creativecommons.org/licenses/by-nc-nd/4.0/deed.en" />
      <dc:publisher>
        <cc:Agent>
          <dc:title>m0dw3rks.com</dc:title>
        </cc:Agent>
      </dc:publisher>
    </cc:Work>
  </rdf:RDF>
</metadata>
<metadata
   id="metadata9">
  <rdf:RDF>
    <cc:Work
       rdf:about="">
      <dc:creator>
        <cc:Agent>
          <dc:title>Jess Tipton</dc:title>
        </cc:Agent>
      </dc:creator>
      <cc:license
         rdf:resource="https://creativecommons.org/licenses/by-nc-nd/4.0/deed.en" />
      <dc:publisher>
        <cc:Agent>
          <dc:title>m0dw3rks.com</dc:title>
        </cc:Agent>
      </dc:publisher>
    </cc:Work>
  </rdf:RDF>
</metadata>
<metadata
   id="metadata10">
  <rdf:RDF>
    <cc:Work
       rdf:about="">
      <dc:creator>
        <cc:Agent>
          <dc:title>Jess Tipton</dc:title>
        </cc:Agent>
      </dc:creator>
      <cc:license
         rdf:resource="https://creativecommons.org/licenses/by-nc-nd/4.0/deed.en" />
      <dc:publisher>
        <cc:Agent>
          <dc:title>m0dw3rks.com</dc:title>
        </cc:Agent>
      </dc:publisher>
    </cc:Work>
  </rdf:RDF>
</metadata>
<metadata
   id="metadata11">
  <rdf:RDF>
    <cc:Work
       rdf:about="">
      <dc:creator>
        <cc:Agent>
          <dc:title>Jess Tipton</dc:title>
        </cc:Agent>
      </dc:creator>
      <cc:license
         rdf:resource="https://creativecommons.org/licenses/by-nc-nd/4.0/deed.en" />
      <dc:publisher>
        <cc:Agent>
          <dc:title>m0dw3rks.com</dc:title>
        </cc:Agent>
      </dc:publisher>
    </cc:Work>
  </rdf:RDF>
</metadata>
<metadata
   id="metadata12">
  <rdf:RDF>
    <cc:Work
       rdf:about="">
      <dc:creator>
        <cc:Agent>
          <dc:title>Jess Tipton</dc:title>
        </cc:Agent>
      </dc:creator>
      <cc:license
         rdf:resource="https://creativecommons.org/licenses/by-nc-nd/4.0/deed.en" />
      <dc:publisher>
        <cc:Agent>
          <dc:title>m0dw3rks.com</dc:title>
        </cc:Agent>
      </dc:publisher>
    </cc:Work>
  </rdf:RDF>
</metadata>
<metadata
   id="metadata13">
  <rdf:RDF>
    <cc:Work
       rdf:about="">
      <dc:creator>
        <cc:Agent>
          <dc:title>Jess Tipton</dc:title>
        </cc:Agent>
      </dc:creator>
      <cc:license
         rdf:resource="https://creativecommons.org/licenses/by-nc-nd/4.0/deed.en" />
      <dc:publisher>
        <cc:Agent>
          <dc:title>m0dw3rks.com</dc:title>
        </cc:Agent>
      </dc:publisher>
    </cc:Work>
  </rdf:RDF>
</metadata>
<metadata
   id="metadata14">
  <rdf:RDF>
    <cc:Work
       rdf:about="">
      <dc:creator>
        <cc:Agent>
          <dc:title>Jess Tipton</dc:title>
        </cc:Agent>
      </dc:creator>
      <cc:license
         rdf:resource="https://creativecommons.org/licenses/by-nc-nd/4.0/deed.en" />
      <dc:publisher>
        <cc:Agent>
          <dc:title>m0dw3rks.com</dc:title>
        </cc:Agent>
      </dc:publisher>
    </cc:Work>
  </rdf:RDF>
</metadata>
<metadata
   id="metadata15">
  <rdf:RDF>
    <cc:Work
       rdf:about="">
      <dc:creator>
        <cc:Agent>
          <dc:title>Jess Tipton</dc:title>
        </cc:Agent>
      </dc:creator>
      <cc:license
         rdf:resource="https://creativecommons.org/licenses/by-nc-nd/4.0/deed.en" />
      <dc:publisher>
        <cc:Agent>
          <dc:title>m0dw3rks.com</dc:title>
        </cc:Agent>
      </dc:publisher>
    </cc:Work>
  </rdf:RDF>
</metadata>
<metadata
   id="metadata16">
  <rdf:RDF>
    <cc:Work
       rdf:about="">
      <dc:creator>
        <cc:Agent>
          <dc:title>Jess Tipton</dc:title>
        </cc:Agent>
      </dc:creator>
      <cc:license
         rdf:resource="https://creativecommons.org/licenses/by-nc-nd/4.0/deed.en" />
      <dc:publisher>
        <cc:Agent>
          <dc:title>m0dw3rks.com</dc:title>
        </cc:Agent>
      </dc:publisher>
    </cc:Work>
  </rdf:RDF>
</metadata>
<metadata
   id="metadata17">
  <rdf:RDF>
    <cc:Work
       rdf:about="">
      <dc:creator>
        <cc:Agent>
          <dc:title>Jess Tipton</dc:title>
        </cc:Agent>
      </dc:creator>
      <cc:license
         rdf:resource="https://creativecommons.org/licenses/by-nc-nd/4.0/deed.en" />
      <dc:publisher>
        <cc:Agent>
          <dc:title>m0dw3rks.com</dc:title>
        </cc:Agent>
      </dc:publisher>
    </cc:Work>
  </rdf:RDF>
</metadata>
<metadata
   id="metadata18">
  <rdf:RDF>
    <cc:Work
       rdf:about="">
      <dc:creator>
        <cc:Agent>
          <dc:title>Jess Tipton</dc:title>
        </cc:Agent>
      </dc:creator>
      <cc:license
         rdf:resource="https://creativecommons.org/licenses/by-nc-nd/4.0/deed.en" />
      <dc:publisher>
        <cc:Agent>
          <dc:title>m0dw3rks.com</dc:title>
        </cc:Agent>
      </dc:publisher>
    </cc:Work>
  </rdf:RDF>
</metadata>
</svg>
