<?xml version="1.0" encoding="UTF-8" standalone="no"?>
<!-- Created with Inkscape (http://www.inkscape.org/) -->

<svg
   width="512"
   height="512"
   viewBox="0 0 135.46666 135.46667"
   version="1.1"
   id="svg5"
   inkscape:version="1.4 (e7c3feb100, 2024-10-09)"
   sodipodi:docname="pcmanfm-qt.svg"
   xml:space="preserve"
   xmlns:inkscape="http://www.inkscape.org/namespaces/inkscape"
   xmlns:sodipodi="http://sodipodi.sourceforge.net/DTD/sodipodi-0.dtd"
   xmlns:xlink="http://www.w3.org/1999/xlink"
   xmlns="http://www.w3.org/2000/svg"
   xmlns:svg="http://www.w3.org/2000/svg"
   xmlns:rdf="http://www.w3.org/1999/02/22-rdf-syntax-ns#"
   xmlns:cc="http://creativecommons.org/ns#"
   xmlns:dc="http://purl.org/dc/elements/1.1/">&gt;<sodipodi:namedview
   id="namedview7"
   pagecolor="#505050"
   bordercolor="#ffffff"
   borderopacity="1"
   inkscape:showpageshadow="0"
   inkscape:pageopacity="0"
   inkscape:pagecheckerboard="1"
   inkscape:deskcolor="#505050"
   inkscape:document-units="mm"
   showgrid="false"
   inkscape:zoom="4.4857088"
   inkscape:cx="107.3409"
   inkscape:cy="120.38231"
   inkscape:window-width="3256"
   inkscape:window-height="1080"
   inkscape:window-x="1864"
   inkscape:window-y="0"
   inkscape:window-maximized="0"
   inkscape:current-layer="svg5" /><defs
   id="defs2"><linearGradient
     id="linearGradient28"
     inkscape:collect="always"><stop
       style="stop-color:#27df86;stop-opacity:1;"
       offset="0"
       id="stop28" /><stop
       style="stop-color:#19a963;stop-opacity:1;"
       offset="1"
       id="stop29" /></linearGradient><linearGradient
     id="linearGradient23"
     inkscape:collect="always"><stop
       style="stop-color:#ffffff;stop-opacity:0;"
       offset="0"
       id="stop24" /><stop
       style="stop-color:#000000;stop-opacity:1;"
       offset="1"
       id="stop23" /></linearGradient><linearGradient
     inkscape:collect="always"
     id="linearGradient2"><stop
       style="stop-color:#9f9961;stop-opacity:1;"
       offset="0"
       id="stop1" /><stop
       style="stop-color:#7a7548;stop-opacity:1;"
       offset="1"
       id="stop2" /></linearGradient><linearGradient
     inkscape:collect="always"
     id="linearGradient2960"><stop
       style="stop-color:#493154;stop-opacity:1;"
       offset="0"
       id="stop2956" /><stop
       style="stop-color:#26192e;stop-opacity:1;"
       offset="1"
       id="stop2958" /></linearGradient><linearGradient
     inkscape:collect="always"
     xlink:href="#linearGradient60690"
     id="linearGradient60692"
     x1="-3691.3494"
     y1="-1057.787"
     x2="-3691.3494"
     y2="-802.59698"
     gradientUnits="userSpaceOnUse"
     gradientTransform="matrix(0.18032028,0,0,0.18032028,733.35853,211.38391)" /><linearGradient
     inkscape:collect="always"
     id="linearGradient60690"><stop
       style="stop-color:#9f9961;stop-opacity:1;"
       offset="0"
       id="stop60686" /><stop
       style="stop-color:#000000;stop-opacity:1;"
       offset="0.6930005"
       id="stop60688" /></linearGradient><clipPath
     clipPathUnits="userSpaceOnUse"
     id="clipPath11672"><path
       id="path11674"
       style="fill:#31213b;fill-opacity:1;stroke:none;stroke-width:0.699095;stroke-linecap:round;stroke-linejoin:round;paint-order:stroke markers fill"
       d="m -344.60471,-53.506317 c -1.80369,0 -3.25575,1.356072 -3.25575,3.040504 l 5.64443,77.155998 h 122.26775 l 5.64444,-77.155998 c 0,-1.684432 -1.45207,-3.040504 -3.25575,-3.040504 z"
       sodipodi:nodetypes="sccccss" /></clipPath><linearGradient
     inkscape:collect="always"
     xlink:href="#linearGradient2"
     id="linearGradient2962"
     x1="-3691.3496"
     y1="-986.60083"
     x2="-3691.3491"
     y2="-535.49536"
     gradientUnits="userSpaceOnUse"
     gradientTransform="matrix(0.18032028,0,0,0.18032028,733.35853,211.38391)" /><clipPath
     clipPathUnits="userSpaceOnUse"
     id="clipPath17519"><path
       id="path17521"
       style="display:inline;opacity:1;fill:url(#linearGradient17523);fill-opacity:1;stroke:none;stroke-width:7.44141;stroke-linecap:round;stroke-linejoin:round;stroke-dasharray:none;stroke-opacity:1;paint-order:stroke markers fill"
       d="m 4.21078,33.962726 c -1.8036801,0 -3.25575127,1.356072 -3.25575127,3.040505 L 6.5994732,114.15923 H 128.86721 l 5.64444,-77.155999 c 0,-1.684433 -1.45207,-3.040505 -3.25575,-3.040505 z"
       sodipodi:nodetypes="sccccss"
       inkscape:label="mask" /></clipPath><linearGradient
     inkscape:collect="always"
     xlink:href="#linearGradient2960"
     id="linearGradient17523"
     gradientUnits="userSpaceOnUse"
     gradientTransform="matrix(0.17777778,0,0,0.17777778,723.97326,209.35843)"
     x1="-3691.3496"
     y1="-986.60083"
     x2="-3691.3491"
     y2="-535.49536" /><clipPath
     clipPathUnits="userSpaceOnUse"
     id="clipPath17525"><path
       id="path17527"
       style="display:inline;opacity:1;fill:url(#linearGradient17529);fill-opacity:1;stroke:none;stroke-width:7.44141;stroke-linecap:round;stroke-linejoin:round;stroke-dasharray:none;stroke-opacity:1;paint-order:stroke markers fill"
       d="M 84.926958,14.35616 C 84.195729,12.707352 82.367413,11.929727 80.827614,12.612612 L 12.584901,49.052156 62.153376,160.82141 134.97271,134.70143 c 1.5398,-0.68288 2.19075,-2.56004 1.45952,-4.20884 z"
       sodipodi:nodetypes="sccccss"
       inkscape:label="mask" /></clipPath><linearGradient
     inkscape:collect="always"
     xlink:href="#linearGradient2960"
     id="linearGradient17529"
     gradientUnits="userSpaceOnUse"
     gradientTransform="matrix(0.07207276,0.16251294,-0.16251294,0.07207276,216.38994,743.42349)"
     x1="-3691.3496"
     y1="-986.60083"
     x2="-3691.3491"
     y2="-535.49536" /><clipPath
     clipPathUnits="userSpaceOnUse"
     id="clipPath24809"><path
       id="path24811"
       style="display:inline;opacity:1;fill:url(#linearGradient24813);fill-opacity:1;stroke:#ffffff;stroke-width:1.32292;stroke-linecap:round;stroke-linejoin:round;stroke-dasharray:none;stroke-opacity:1;paint-order:stroke markers fill"
       d="m 4.21078,33.962726 c -1.8036801,0 -3.25575127,1.356072 -3.25575127,3.040505 L 6.5994732,114.15923 H 128.86721 l 5.64444,-77.155999 c 0,-1.684433 -1.45207,-3.040505 -3.25575,-3.040505 z"
       sodipodi:nodetypes="sccccss"
       inkscape:label="mask" /></clipPath><linearGradient
     inkscape:collect="always"
     xlink:href="#linearGradient2960"
     id="linearGradient24813"
     gradientUnits="userSpaceOnUse"
     x1="-3691.3496"
     y1="-986.60083"
     x2="-3691.3491"
     y2="-535.49536"
     gradientTransform="matrix(0.17777778,0,0,0.17777778,723.97326,209.35843)" /><linearGradient
     inkscape:collect="always"
     xlink:href="#linearGradient23"
     id="linearGradient24"
     x1="4.1707687"
     y1="-48.380947"
     x2="4.1707687"
     y2="-57.056152"
     gradientUnits="userSpaceOnUse"
     gradientTransform="matrix(0.66477951,0,0,0.10306645,64.960694,111.96528)" /><linearGradient
     inkscape:collect="always"
     xlink:href="#linearGradient23"
     id="linearGradient25"
     gradientUnits="userSpaceOnUse"
     gradientTransform="matrix(0.66256361,0,0,0.10306645,64.96994,114.08196)"
     x1="4.1707687"
     y1="-48.380947"
     x2="4.1707687"
     y2="-57.056152" /><linearGradient
     inkscape:collect="always"
     xlink:href="#linearGradient23"
     id="linearGradient26"
     gradientUnits="userSpaceOnUse"
     gradientTransform="matrix(0.66034771,0,0,0.10306645,64.979185,116.19864)"
     x1="4.1707687"
     y1="-48.380947"
     x2="4.1707687"
     y2="-57.056152" /><linearGradient
     inkscape:collect="always"
     xlink:href="#linearGradient28"
     id="linearGradient29"
     x1="18.303534"
     y1="33.47961"
     x2="18.303534"
     y2="114.82297"
     gradientUnits="userSpaceOnUse" /></defs><path
   id="rect933-3-0-3"
   style="display:inline;fill:url(#linearGradient60692);fill-opacity:1;stroke:none;stroke-width:1.32292;stroke-linecap:round;stroke-linejoin:round;stroke-dasharray:none;stroke-opacity:1;paint-order:stroke markers fill"
   d="m 9.332196,20.643462 c -1.9976962,0 -3.6059908,1.608295 -3.6059908,3.605991 v 7.077794 4.728757 75.161266 c 0,1.99768 1.6082946,3.60597 3.6059908,3.60597 H 126.13462 c 1.99768,0 3.60596,-1.60829 3.60596,-3.60597 V 31.327247 c 0,-1.997703 -1.60828,-3.60598 -3.60596,-3.60598 H 37.545846 c 0,0 -0.476586,0.01443 -0.714627,-0.223705 -0.237987,-0.238023 -0.223723,-0.857495 -0.223723,-0.857495 v -2.390614 c 0,-1.997696 -1.608277,-3.605991 -3.605955,-3.605991 z"
   sodipodi:nodetypes="ssccssssssczcsss"
   inkscape:label="folder-back" /><path
   id="path18"
   style="display:none;fill:#27df86;fill-opacity:1;stroke:none;stroke-width:1.32292;stroke-linecap:round;stroke-linejoin:round;stroke-dasharray:none;stroke-opacity:1;paint-order:stroke markers fill"
   inkscape:label="tab-color"
   d="m 9.3322469,20.643701 c -1.997697,0 -3.6059814,1.608285 -3.6059814,3.605982 V 114.82322 H 36.607585 V 24.249683 c 0,-1.997697 -1.608304,-3.605982 -3.605982,-3.605982 z"
   sodipodi:nodetypes="ssccsss" /><rect
   style="display:inline;fill:#ececec;stroke:none;stroke-width:6.35;stroke-linecap:round;stroke-linejoin:round;paint-order:fill markers stroke"
   id="rect2"
   width="81.343468"
   height="116.91018"
   x="31.363106"
   y="-126.1829"
   rx="0"
   ry="0"
   transform="rotate(90)" /><path
   id="rect64793"
   style="fill:url(#linearGradient2962);fill-opacity:1;stroke:none;stroke-width:1.32292;stroke-linecap:round;stroke-linejoin:round;stroke-dasharray:none;stroke-opacity:1;paint-order:stroke markers fill"
   d="m 3.3023219,33.479774 c -1.8294754,0 -3.3023134537001,1.375465 -3.3023134537001,3.083989 L 5.7251773,114.82322 H 129.74153 l 5.72517,-78.259457 c 0,-1.708524 -1.47284,-3.083989 -3.30231,-3.083989 z"
   sodipodi:nodetypes="sccccss" /><text
   xml:space="preserve"
   style="font-style:normal;font-weight:normal;font-size:5.85742px;line-height:1.25;font-family:sans-serif;display:none;fill:#554400;fill-opacity:1;stroke:none;stroke-width:0.264583"
   x="7.2824359"
   y="27.000906"
   id="text2"
   sodipodi:insensitive="true"><tspan
     sodipodi:role="line"
     id="tspan2"
     style="fill:#554400;stroke-width:0.264583"
     x="7.2824359"
     y="27.000906">PCManFM</tspan></text><path
   d="m 8.957658,22.289541 q 0.8200388,0 1.194914,0.322158 0.374875,0.322158 0.374875,0.9079 0,0.345588 -0.158151,0.650174 -0.152293,0.298728 -0.5213102,0.486166 -0.36316,0.187437 -0.9899039,0.187437 H 8.3777734 v 1.628363 H 7.8506056 V 22.289541 Z M 8.910799,22.740562 H 8.3777734 v 1.651793 h 0.4217343 q 0.5974568,0 0.8903278,-0.193295 0.292871,-0.193295 0.292871,-0.656031 0,-0.404162 -0.2577265,-0.603314 -0.2577265,-0.199153 -0.814181,-0.199153 z m 4.275914,-0.04686 q -0.673604,0 -1.060193,0.451021 -0.38659,0.451022 -0.38659,1.235916 0,0.779037 0.357302,1.235916 0.363161,0.451021 1.083623,0.451021 0.275299,0 0.521311,-0.04686 0.246011,-0.04686 0.480308,-0.117149 v 0.456879 q -0.234297,0.08786 -0.486166,0.128863 -0.246012,0.041 -0.591599,0.041 -0.638459,0 -1.066051,-0.263584 -0.427591,-0.263584 -0.644316,-0.749749 -0.210867,-0.486166 -0.210867,-1.142197 0,-0.632602 0.228439,-1.11291 0.234297,-0.486166 0.685318,-0.755607 0.451022,-0.275299 1.095338,-0.275299 0.661888,0 1.153912,0.246012 l -0.210867,0.445163 q -0.193295,-0.08786 -0.433449,-0.15815 -0.234297,-0.07029 -0.515453,-0.07029 z m 3.754605,3.778036 -1.376493,-3.666745 h -0.02343 q 0.01757,0.18158 0.02929,0.492023 0.01172,0.304586 0.01172,0.638459 v 2.536263 H 15.096239 V 22.28954 h 0.779037 l 1.288632,3.426591 h 0.02343 L 18.4994,22.28954 h 0.77318 v 4.182198 h -0.521311 v -2.571407 q 0,-0.304586 0.01171,-0.603315 0.01757,-0.298728 0.02929,-0.486165 h -0.02343 l -1.394066,3.660887 z m 4.586358,-3.192294 q 0.574027,0 0.849326,0.251869 0.275298,0.251869 0.275298,0.802467 v 2.137958 h -0.374875 l -0.09958,-0.445164 h -0.02343 q -0.20501,0.257727 -0.433449,0.380732 -0.222582,0.123006 -0.620887,0.123006 -0.427592,0 -0.708748,-0.222582 -0.281156,-0.228439 -0.281156,-0.708748 0,-0.468593 0.369018,-0.720462 0.369017,-0.257727 1.136339,-0.281156 l 0.533025,-0.01757 v -0.187437 q 0,-0.392447 -0.169865,-0.54474 -0.169865,-0.152293 -0.480308,-0.152293 -0.246012,0 -0.468594,0.07615 -0.222582,0.07029 -0.415877,0.164008 l -0.15815,-0.38659 q 0.20501,-0.111291 0.486166,-0.187437 0.281156,-0.082 0.585742,-0.082 z m 0.152293,1.675222 q -0.585742,0.02343 -0.814182,0.187438 -0.222582,0.164007 -0.222582,0.462736 0,0.263584 0.158151,0.38659 0.164007,0.123005 0.415876,0.123005 0.398305,0 0.661889,-0.216724 0.263584,-0.222582 0.263584,-0.679461 v -0.281156 z m 3.455882,-1.681079 q 0.562313,0 0.849326,0.275298 0.287014,0.269442 0.287014,0.878613 v 2.04424 h -0.509596 v -2.009095 q 0,-0.755607 -0.70289,-0.755607 -0.521311,0 -0.720463,0.292871 -0.199152,0.292871 -0.199152,0.843468 v 1.628363 h -0.515453 v -3.139577 h 0.415877 l 0.07615,0.427592 h 0.02929 q 0.152293,-0.246012 0.421735,-0.36316 0.269441,-0.123006 0.568169,-0.123006 z m 2.706129,3.198151 H 27.314812 V 22.28954 h 2.337111 v 0.462736 H 27.84198 v 1.481928 h 1.698652 V 24.69694 H 27.84198 Z m 4.357915,0 -1.376494,-3.666745 h -0.02343 q 0.01757,0.18158 0.02929,0.492023 0.01171,0.304586 0.01171,0.638459 v 2.536263 H 30.354806 V 22.28954 h 0.779036 l 1.288633,3.426591 h 0.02343 l 1.312063,-3.426591 h 0.773179 v 4.182198 h -0.52131 v -2.571407 q 0,-0.304586 0.01171,-0.603315 0.01757,-0.298728 0.02929,-0.486165 h -0.02343 l -1.394066,3.660887 z"
   id="text3"
   style="font-size:5.85742px;line-height:1.25;mix-blend-mode:soft-light;fill:#534b2b;fill-opacity:1;stroke-width:0.264583"
   inkscape:label="text-path"
   aria-label="PCManFM" />  <metadata
   id="metadata1">
    <rdf:RDF>
      <cc:Work
   rdf:about="">
        <dc:creator>
          <cc:Agent>
            <dc:title>Jess Tipton</dc:title>
          </cc:Agent>
        </dc:creator>
        <dc:publisher>
          <cc:Agent>
            <dc:title>m0dw3rks.com</dc:title>
          </cc:Agent>
        </dc:publisher>
        <cc:license
   rdf:resource="https://creativecommons.org/licenses/by-nc-nd/4.0/deed.en" />
      </cc:Work>
    </rdf:RDF>
  </metadata>
  <metadata
   id="metadata6">
    <rdf:RDF>
      <cc:Work
   rdf:about="">
        <dc:creator>
          <cc:Agent>
            <dc:title>Jess Tipton</dc:title>
          </cc:Agent>
        </dc:creator>
        <cc:license
   rdf:resource="https://creativecommons.org/licenses/by-nc-nd/4.0/deed.en" />
        <dc:publisher>
          <cc:Agent>
            <dc:title>m0dw3rks.com</dc:title>
          </cc:Agent>
        </dc:publisher>
      </cc:Work>
    </rdf:RDF>
  </metadata>
  <metadata
   id="metadata2">
    <rdf:RDF>
      <cc:Work
   rdf:about="">
        <dc:creator>
          <cc:Agent>
            <dc:title>Jess Tipton</dc:title>
          </cc:Agent>
        </dc:creator>
        <cc:license
   rdf:resource="https://creativecommons.org/licenses/by-nc-nd/4.0/deed.en" />
        <dc:publisher>
          <cc:Agent>
            <dc:title>m0dw3rks.com</dc:title>
          </cc:Agent>
        </dc:publisher>
      </cc:Work>
    </rdf:RDF>
  </metadata>
  <metadata
   id="metadata3">
    <rdf:RDF>
      <cc:Work
   rdf:about="">
        <dc:creator>
          <cc:Agent>
            <dc:title>Jess Tipton</dc:title>
          </cc:Agent>
        </dc:creator>
        <cc:license
   rdf:resource="https://creativecommons.org/licenses/by-nc-nd/4.0/deed.en" />
        <dc:publisher>
          <cc:Agent>
            <dc:title>m0dw3rks.com</dc:title>
          </cc:Agent>
        </dc:publisher>
      </cc:Work>
    </rdf:RDF>
  </metadata>
  <metadata
   id="metadata4">
    <rdf:RDF>
      <cc:Work
   rdf:about="">
        <dc:creator>
          <cc:Agent>
            <dc:title>Jess Tipton</dc:title>
          </cc:Agent>
        </dc:creator>
        <cc:license
   rdf:resource="https://creativecommons.org/licenses/by-nc-nd/4.0/deed.en" />
        <dc:publisher>
          <cc:Agent>
            <dc:title>m0dw3rks.com</dc:title>
          </cc:Agent>
        </dc:publisher>
      </cc:Work>
    </rdf:RDF>
  </metadata>
  <metadata
   id="metadata5">
    <rdf:RDF>
      <cc:Work
   rdf:about="">
        <dc:creator>
          <cc:Agent>
            <dc:title>Jess Tipton</dc:title>
          </cc:Agent>
        </dc:creator>
        <cc:license
   rdf:resource="https://creativecommons.org/licenses/by-nc-nd/4.0/deed.en" />
        <dc:publisher>
          <cc:Agent>
            <dc:title>m0dw3rks.com</dc:title>
          </cc:Agent>
        </dc:publisher>
      </cc:Work>
    </rdf:RDF>
  </metadata>
  <metadata
   id="metadata7">
    <rdf:RDF>
      <cc:Work
   rdf:about="">
        <dc:creator>
          <cc:Agent>
            <dc:title>Jess Tipton</dc:title>
          </cc:Agent>
        </dc:creator>
        <cc:license
   rdf:resource="https://creativecommons.org/licenses/by-nc-nd/4.0/deed.en" />
        <dc:publisher>
          <cc:Agent>
            <dc:title>m0dw3rks.com</dc:title>
          </cc:Agent>
        </dc:publisher>
      </cc:Work>
    </rdf:RDF>
  </metadata>
  <metadata
   id="metadata8">
    <rdf:RDF>
      <cc:Work
   rdf:about="">
        <dc:creator>
          <cc:Agent>
            <dc:title>Jess Tipton</dc:title>
          </cc:Agent>
        </dc:creator>
        <cc:license
   rdf:resource="https://creativecommons.org/licenses/by-nc-nd/4.0/deed.en" />
        <dc:publisher>
          <cc:Agent>
            <dc:title>m0dw3rks.com</dc:title>
          </cc:Agent>
        </dc:publisher>
      </cc:Work>
    </rdf:RDF>
  </metadata>
  <metadata
   id="metadata9">
    <rdf:RDF>
      <cc:Work
   rdf:about="">
        <dc:creator>
          <cc:Agent>
            <dc:title>Jess Tipton</dc:title>
          </cc:Agent>
        </dc:creator>
        <cc:license
   rdf:resource="https://creativecommons.org/licenses/by-nc-nd/4.0/deed.en" />
        <dc:publisher>
          <cc:Agent>
            <dc:title>m0dw3rks.com</dc:title>
          </cc:Agent>
        </dc:publisher>
      </cc:Work>
    </rdf:RDF>
  </metadata>
  <metadata
   id="metadata10">
    <rdf:RDF>
      <cc:Work
   rdf:about="">
        <dc:creator>
          <cc:Agent>
            <dc:title>Jess Tipton</dc:title>
          </cc:Agent>
        </dc:creator>
        <cc:license
   rdf:resource="https://creativecommons.org/licenses/by-nc-nd/4.0/deed.en" />
        <dc:publisher>
          <cc:Agent>
            <dc:title>m0dw3rks.com</dc:title>
          </cc:Agent>
        </dc:publisher>
      </cc:Work>
    </rdf:RDF>
  </metadata>
  <metadata
   id="metadata11">
    <rdf:RDF>
      <cc:Work
   rdf:about="">
        <dc:creator>
          <cc:Agent>
            <dc:title>Jess Tipton</dc:title>
          </cc:Agent>
        </dc:creator>
        <cc:license
   rdf:resource="https://creativecommons.org/licenses/by-nc-nd/4.0/deed.en" />
        <dc:publisher>
          <cc:Agent>
            <dc:title>m0dw3rks.com</dc:title>
          </cc:Agent>
        </dc:publisher>
      </cc:Work>
    </rdf:RDF>
  </metadata>
  <metadata
   id="metadata12">
    <rdf:RDF>
      <cc:Work
   rdf:about="">
        <dc:creator>
          <cc:Agent>
            <dc:title>Jess Tipton</dc:title>
          </cc:Agent>
        </dc:creator>
        <cc:license
   rdf:resource="https://creativecommons.org/licenses/by-nc-nd/4.0/deed.en" />
        <dc:publisher>
          <cc:Agent>
            <dc:title>m0dw3rks.com</dc:title>
          </cc:Agent>
        </dc:publisher>
      </cc:Work>
    </rdf:RDF>
  </metadata>
  <metadata
   id="metadata13">
    <rdf:RDF>
      <cc:Work
   rdf:about="">
        <dc:creator>
          <cc:Agent>
            <dc:title>Jess Tipton</dc:title>
          </cc:Agent>
        </dc:creator>
        <cc:license
   rdf:resource="https://creativecommons.org/licenses/by-nc-nd/4.0/deed.en" />
        <dc:publisher>
          <cc:Agent>
            <dc:title>m0dw3rks.com</dc:title>
          </cc:Agent>
        </dc:publisher>
      </cc:Work>
    </rdf:RDF>
  </metadata>
  <metadata
   id="metadata14">
    <rdf:RDF>
      <cc:Work
   rdf:about="">
        <dc:creator>
          <cc:Agent>
            <dc:title>Jess Tipton</dc:title>
          </cc:Agent>
        </dc:creator>
        <cc:license
   rdf:resource="https://creativecommons.org/licenses/by-nc-nd/4.0/deed.en" />
        <dc:publisher>
          <cc:Agent>
            <dc:title>m0dw3rks.com</dc:title>
          </cc:Agent>
        </dc:publisher>
      </cc:Work>
    </rdf:RDF>
  </metadata>
  <metadata
   id="metadata15">
    <rdf:RDF>
      <cc:Work
   rdf:about="">
        <dc:creator>
          <cc:Agent>
            <dc:title>Jess Tipton</dc:title>
          </cc:Agent>
        </dc:creator>
        <cc:license
   rdf:resource="https://creativecommons.org/licenses/by-nc-nd/4.0/deed.en" />
        <dc:publisher>
          <cc:Agent>
            <dc:title>m0dw3rks.com</dc:title>
          </cc:Agent>
        </dc:publisher>
      </cc:Work>
    </rdf:RDF>
  </metadata>
  <metadata
   id="metadata16">
    <rdf:RDF>
      <cc:Work
   rdf:about="">
        <dc:creator>
          <cc:Agent>
            <dc:title>Jess Tipton</dc:title>
          </cc:Agent>
        </dc:creator>
        <cc:license
   rdf:resource="https://creativecommons.org/licenses/by-nc-nd/4.0/deed.en" />
        <dc:publisher>
          <cc:Agent>
            <dc:title>m0dw3rks.com</dc:title>
          </cc:Agent>
        </dc:publisher>
      </cc:Work>
    </rdf:RDF>
  </metadata>
  <metadata
   id="metadata17">
    <rdf:RDF>
      <cc:Work
   rdf:about="">
        <dc:creator>
          <cc:Agent>
            <dc:title>Jess Tipton</dc:title>
          </cc:Agent>
        </dc:creator>
        <cc:license
   rdf:resource="https://creativecommons.org/licenses/by-nc-nd/4.0/deed.en" />
        <dc:publisher>
          <cc:Agent>
            <dc:title>m0dw3rks.com</dc:title>
          </cc:Agent>
        </dc:publisher>
      </cc:Work>
    </rdf:RDF>
  </metadata>
  <metadata
   id="metadata18">
    <rdf:RDF>
      <cc:Work
   rdf:about="">
        <dc:creator>
          <cc:Agent>
            <dc:title>Jess Tipton</dc:title>
          </cc:Agent>
        </dc:creator>
        <cc:license
   rdf:resource="https://creativecommons.org/licenses/by-nc-nd/4.0/deed.en" />
        <dc:publisher>
          <cc:Agent>
            <dc:title>m0dw3rks.com</dc:title>
          </cc:Agent>
        </dc:publisher>
      </cc:Work>
    </rdf:RDF>
  </metadata>
<path
   id="path19"
   style="font-size:5.85742px;line-height:1.25;fill:#000000;fill-opacity:1;stroke-width:0.264583;opacity:0.6"
   inkscape:label="text-path"
   d="m 13.192915,22.230967 c -0.429544,0 -0.794859,0.0919 -1.09554,0.275436 -0.300681,0.179627 -0.529032,0.431398 -0.68523,0.755509 -0.152292,0.320205 -0.228409,0.691376 -0.228409,1.11311 0,0.01086 9.46e-4,0.02073 10e-4,0.03152 0.0033,-0.410118 0.07848,-0.772656 0.227376,-1.085722 0.156198,-0.32411 0.384549,-0.575882 0.68523,-0.755509 0.300681,-0.183533 0.665996,-0.274919 1.09554,-0.274919 0.431265,0 0.807587,0.0795 1.130681,0.236161 l 0.02325,-0.04961 c -0.328016,-0.164008 -0.712676,-0.24598 -1.153935,-0.24598 z m -5.3423094,0.05891 v 0.05891 h 1.1074259 c 0.5466926,0 0.9448424,0.107172 1.1947595,0.321944 0.244543,0.210154 0.367329,0.505781 0.372587,0.884183 2.81e-4,-0.01183 0.0021,-0.02323 0.0021,-0.03514 0,-0.390494 -0.124738,-0.693182 -0.374654,-0.907954 C 9.9028739,22.397051 9.5047241,22.289878 8.9580315,22.289878 Z m 7.2460694,0 v 0.05891 h 0.778764 l 1.28881,3.426664 h 0.02325 l 1.312065,-3.426664 h 0.77308 v -0.05891 h -0.77308 l -1.312065,3.426665 h -0.02325 l -1.28881,-3.426665 z m 12.218376,0 v 0.05891 h 2.337325 v -0.05891 z m 3.040124,0 v 0.05891 h 0.778764 l 1.28881,3.426664 h 0.02325 l 1.312064,-3.426664 h 0.77308 v -0.05891 h -0.77308 l -1.312064,3.426665 h -0.02325 l -1.28881,-3.426665 z m -14.813566,0.574126 c 0.01171,0.121053 0.02164,0.284997 0.02946,0.491959 0.0078,0.203058 0.01137,0.416139 0.01137,0.638721 v -0.05891 c 0,-0.222582 -0.0036,-0.435664 -0.01137,-0.638721 -0.0069,-0.182176 -0.01594,-0.317436 -0.02584,-0.433048 z m 15.2585,0 c 0.01171,0.121053 0.02164,0.284997 0.02946,0.491959 0.0078,0.203058 0.01137,0.416139 0.01137,0.638721 v -0.05891 c 0,-0.222582 -0.0036,-0.435664 -0.01137,-0.638721 -0.0069,-0.182176 -0.01594,-0.317436 -0.02584,-0.433048 z m -12.011153,0.0062 c -0.0073,0.11771 -0.01554,0.251849 -0.02584,0.426847 -0.0078,0.199153 -0.01189,0.400523 -0.01189,0.603581 v 0.05891 c 0,-0.203057 0.0041,-0.404428 0.01189,-0.603581 0.01171,-0.199152 0.02164,-0.3608 0.02946,-0.485758 z m 15.2585,0 c -0.0073,0.11771 -0.01554,0.251849 -0.02584,0.426847 -0.0078,0.199153 -0.01137,0.400523 -0.01137,0.603581 v 0.05891 c 0,-0.203057 0.0036,-0.404428 0.01137,-0.603581 0.01171,-0.199152 0.02164,-0.3608 0.02946,-0.485758 z m -8.9116,0.403593 c -0.199152,0 -0.388297,0.04099 -0.567924,0.12299 -0.179628,0.0781 -0.320151,0.199277 -0.42168,0.363285 h -0.02946 l -0.07596,-0.427881 h -0.415995 v 0.05891 h 0.415995 l 0.07596,0.427881 h 0.02946 c 0.101529,-0.164008 0.242052,-0.285187 0.42168,-0.363285 0.179627,-0.082 0.368772,-0.12299 0.567924,-0.12299 0.374875,0 0.658218,0.0919 0.84956,0.275435 0.191343,0.179628 0.286804,0.472386 0.286804,0.8785 v -0.05891 c 0,-0.406114 -0.09546,-0.698871 -0.286804,-0.878499 -0.191342,-0.183532 -0.474685,-0.275435 -0.84956,-0.275436 z m -3.608049,0.0057 c -0.203057,0 -0.398057,0.0275 -0.585494,0.08217 -0.187437,0.05076 -0.349602,0.113391 -0.486275,0.187585 l 0.02015,0.04961 c 0.132695,-0.06984 0.287138,-0.129809 0.466121,-0.178283 0.187437,-0.05467 0.382437,-0.08217 0.585494,-0.08217 0.382685,0 0.666028,0.08427 0.849561,0.252181 0.183532,0.167913 0.274918,0.43547 0.274918,0.802535 v -0.05891 c 0,-0.367065 -0.09139,-0.634622 -0.274918,-0.802535 -0.183533,-0.167913 -0.466876,-0.252181 -0.849561,-0.252181 z M 9.9801909,23.573004 c -0.00657,0.291693 -0.101464,0.501948 -0.289904,0.626319 -0.1952479,0.128863 -0.4920807,0.193269 -0.8903853,0.193269 H 8.3782219 v 0.05891 h 0.4216797 c 0.3983046,0 0.6951374,-0.06441 0.8903853,-0.19327 0.195247,-0.128864 0.292488,-0.347284 0.292488,-0.655774 0,-0.01046 -0.00232,-0.0192 -0.00258,-0.02946 z M 27.84215,24.234463 v 0.05891 h 1.698605 v -0.05891 z m -16.099792,0.176733 c -9.5e-5,0.0099 -0.0021,0.01841 -0.0021,0.02842 0,0.519358 0.118883,0.931514 0.357084,1.2361 0.242107,0.300681 0.603347,0.451135 1.083655,0.451135 0.183532,0 0.357407,-0.01579 0.521415,-0.04703 0.164007,-0.03124 0.323876,-0.07045 0.480074,-0.117306 v -0.05891 c -0.156198,0.04686 -0.316067,0.08607 -0.480074,0.117306 -0.164008,0.03124 -0.337883,0.04702 -0.521415,0.04702 -0.480308,0 -0.841548,-0.150454 -1.083655,-0.451135 -0.233285,-0.2983 -0.350202,-0.701313 -0.355017,-1.205611 z m 10.4066,0.168982 -0.533301,0.01757 c -0.511548,0.01562 -0.890353,0.109302 -1.136365,0.28112 -0.246012,0.167912 -0.36897,0.407974 -0.36897,0.720369 0,0.01199 0.0023,0.02184 0.0026,0.03359 0.0069,-0.299412 0.127429,-0.531951 0.366386,-0.695048 0.246012,-0.171818 0.624817,-0.265501 1.136365,-0.28112 l 0.533301,-0.01757 z m -0.0062,0.638204 c 0,0.304586 -0.08783,0.531157 -0.26355,0.679545 -0.175723,0.144483 -0.396439,0.216524 -0.661975,0.216524 -0.167913,0 -0.306141,-0.04099 -0.415479,-0.12299 -0.09846,-0.07658 -0.149031,-0.19568 -0.155546,-0.353983 -3.26e-4,0.0091 -0.0026,0.01702 -0.0026,0.02636 0,0.175722 0.0527,0.304535 0.15813,0.386539 0.109338,0.082 0.247566,0.123507 0.415479,0.123507 0.265536,0 0.486252,-0.07256 0.661975,-0.217041 0.175722,-0.148388 0.26355,-0.374959 0.26355,-0.679545 z" /><path
   id="path20"
   style="font-size:5.85742px;line-height:1.25;opacity:0.6;mix-blend-mode:normal;fill:#ffffff;fill-opacity:1;stroke-width:0.264583"
   inkscape:label="text-path"
   d="m 14.323078,22.467506 -0.187586,0.395842 c -0.128863,-0.05857 -0.273462,-0.11127 -0.433565,-0.15813 -0.156198,-0.04686 -0.327776,-0.07028 -0.515214,-0.07028 -0.449069,0 -0.802674,0.150454 -1.0604,0.451135 -0.257727,0.300681 -0.38654,0.712321 -0.38654,1.235584 0,0.0109 0.002,0.0202 0.0021,0.03101 0.0048,-0.509074 0.131677,-0.912749 0.384473,-1.207678 0.257726,-0.30068 0.611331,-0.451135 1.0604,-0.451135 0.187438,0 0.359016,0.02342 0.515214,0.07028 0.160103,0.04686 0.304702,0.09956 0.433565,0.15813 l 0.21084,-0.444934 c -0.0074,-0.0037 -0.01575,-0.0062 -0.02325,-0.0098 z m -5.9453732,0.214457 v 0.05891 h 0.5333008 c 0.3709696,0 0.6420861,0.06619 0.8139038,0.198955 0.1650282,0.127521 0.2487604,0.320001 0.2552815,0.573608 2.223e-4,-0.01021 0.00258,-0.01853 0.00258,-0.02894 0,-0.269441 -0.086048,-0.470812 -0.2578654,-0.60358 C 9.5530917,22.748149 9.2819752,22.681963 8.9110056,22.681963 Z m 19.4644442,0.01137 v 0.05943 h 1.809709 v -0.05943 z m -12.300541,0.05271 c 0.0014,0.01461 0.0023,0.04357 0.0036,0.05943 h 0.01964 l 1.37666,3.666443 h 0.433048 l 1.39423,-3.660759 h 0.01964 c 10e-4,-0.01623 0.0027,-0.04377 0.0036,-0.05891 h -0.02325 l -1.39423,3.660759 h -0.433048 l -1.37666,-3.66696 z m 15.2585,0 c 0.0014,0.01461 0.0023,0.04357 0.0036,0.05943 h 0.01964 l 1.37666,3.666443 h 0.433048 l 1.394231,-3.660759 h 0.01964 c 0.001,-0.01623 0.0027,-0.04377 0.0036,-0.05891 h -0.02325 l -1.394231,3.660759 h -0.433048 l -1.37666,-3.66696 z m -20.274731,0.749825 c -0.0052,0.217187 -0.05606,0.422354 -0.156063,0.61495 -0.101528,0.199152 -0.275403,0.361316 -0.5214147,0.486275 -0.2421067,0.124958 -0.5717744,0.187585 -0.9896037,0.187585 H 8.3777048 v 0.05891 h 0.4805908 c 0.4178293,0 0.747497,-0.06263 0.9896037,-0.187586 0.2460117,-0.124959 0.4198867,-0.286606 0.5214147,-0.485758 0.105434,-0.203058 0.15813,-0.420215 0.15813,-0.650607 0,-0.0084 -0.002,-0.01544 -0.0021,-0.02377 z m 9.950297,0.04392 c -0.0063,0.0033 -0.014,0.006 -0.02015,0.0093 l 0.15813,0.38654 c 0.128863,-0.06248 0.267607,-0.116955 0.415995,-0.163815 0.148388,-0.05077 0.304698,-0.07648 0.468706,-0.07648 0.206962,0 0.36683,0.05092 0.480074,0.152446 0.113243,0.101528 0.170015,0.283038 0.170015,0.544669 v -0.05891 c 0,-0.261631 -0.05677,-0.443141 -0.170015,-0.544669 -0.113244,-0.101529 -0.273112,-0.152446 -0.480074,-0.152446 -0.164008,0 -0.320318,0.02571 -0.468706,0.07648 -0.148388,0.04686 -0.287132,0.101336 -0.415995,0.163814 z m 4.584216,0.108521 c -0.34754,0 -0.588118,0.09776 -0.720886,0.293005 -0.132768,0.195247 -0.198954,0.476295 -0.198954,0.843359 v 0.05891 c 0,-0.367065 0.06619,-0.648113 0.198954,-0.84336 0.132768,-0.195247 0.373346,-0.293005 0.720886,-0.293005 0.468594,0 0.7028,0.251771 0.7028,0.755509 v -0.05891 c 0,-0.503738 -0.234206,-0.755509 -0.7028,-0.755509 z m -13.875122,0.698669 c -7.9e-5,0.0096 -0.0015,0.0183 -0.0015,0.02791 0,0.437354 0.07078,0.818456 0.211356,1.142566 0.144484,0.32411 0.358828,0.573586 0.643889,0.749308 0.285061,0.175723 0.640445,0.26355 1.066085,0.26355 0.230391,0 0.427687,-0.01349 0.591695,-0.04082 0.167912,-0.02734 0.330077,-0.0701 0.486275,-0.128674 v -0.05891 c -0.156198,0.05857 -0.318363,0.101339 -0.486275,0.128675 -0.164008,0.02733 -0.361304,0.04082 -0.591695,0.04082 -0.42564,0 -0.781024,-0.08783 -1.066085,-0.26355 -0.285061,-0.175722 -0.499405,-0.425715 -0.643889,-0.749825 -0.137142,-0.31619 -0.206454,-0.687077 -0.209806,-1.111043 z m 16.657381,0.291455 v 0.05891 h 1.698605 v -0.05891 z m -5.699393,0.239779 -0.463021,0.01757 c -0.390495,0.01562 -0.661611,0.07825 -0.813904,0.187585 -0.148388,0.109338 -0.222725,0.263352 -0.222725,0.462504 0,0.01181 0.0021,0.02168 0.0026,0.03307 0.0066,-0.185854 0.07868,-0.332434 0.220142,-0.436666 0.152293,-0.109338 0.423409,-0.171965 0.813904,-0.187585 l 0.463021,-0.01757 z m -2.029851,0.695565 c -2.02e-4,0.0088 -0.0026,0.01636 -0.0026,0.02532 0,0.320206 0.09368,0.556708 0.281119,0.709001 0.187438,0.148388 0.423423,0.222208 0.708484,0.222208 0.265537,0 0.472763,-0.04099 0.621151,-0.12299 0.152293,-0.082 0.296892,-0.20852 0.433565,-0.380338 h 0.02325 l 0.09973,0.444934 h 0.374654 v -0.05891 h -0.374654 l -0.09973,-0.444934 h -0.02325 c -0.136673,0.171818 -0.281272,0.298335 -0.433565,0.380338 -0.148388,0.082 -0.355614,0.12299 -0.621151,0.12299 -0.285061,0 -0.521046,-0.07382 -0.708484,-0.222209 -0.18042,-0.146591 -0.271781,-0.373243 -0.278536,-0.67541 z M 7.8506052,26.413002 v 0.05891 h 0.5270996 v -0.05891 z m 7.2455518,0 v 0.05891 h 0.486276 v -0.05891 z m 3.655074,0 v 0.05891 h 0.521416 v -0.05891 z m 4.873605,0 v 0.05891 h 0.515214 v -0.05891 z m 2.137854,0 v 0.05891 h 0.509529 v -0.05891 z m 1.551843,0 v 0.05891 h 0.527616 v -0.05891 z m 3.040125,0 v 0.05891 h 0.486275 v -0.05891 z m 3.655074,0 v 0.05891 h 0.521415 v -0.05891 z" /><path
   id="rect28"
   style="opacity:1;fill:url(#linearGradient29);stroke-width:1.5875;stroke-linecap:round;stroke-linejoin:round;stroke-miterlimit:1;paint-order:markers stroke fill"
   d="M 3.302124 33.47961 C 1.4726486 33.47961 -3.1332961e-16 34.855136 0 36.56366 L 5.7262655 114.82297 L 36.607068 114.82297 L 30.880802 36.56366 L 30.654976 33.47961 L 3.302124 33.47961 z " /><rect
   style="opacity:0.4;mix-blend-mode:soft-light;fill:url(#linearGradient24);stroke:none;stroke-width:1.5875;stroke-linecap:round;stroke-linejoin:round;stroke-miterlimit:1;paint-order:markers stroke fill"
   id="rect23"
   width="120"
   height="0.8941226"
   x="7.7333331"
   y="106.0847"
   ry="0.4470613"
   rx="0" /><rect
   style="opacity:0.4;mix-blend-mode:soft-light;fill:url(#linearGradient25);stroke:none;stroke-width:1.5875;stroke-linecap:round;stroke-linejoin:round;stroke-miterlimit:1;paint-order:markers stroke fill"
   id="rect24"
   width="119.6"
   height="0.8941226"
   x="7.9333339"
   y="108.20138"
   ry="0.4470613"
   rx="0" /><rect
   style="opacity:0.4;mix-blend-mode:soft-light;fill:url(#linearGradient26);stroke:none;stroke-width:1.5875;stroke-linecap:round;stroke-linejoin:round;stroke-miterlimit:1;paint-order:markers stroke fill"
   id="rect25"
   width="119.2"
   height="0.8941226"
   x="8.1333351"
   y="110.31805"
   ry="0.4470613"
   rx="0" /></svg>
