<?xml version="1.0" encoding="UTF-8" standalone="no"?>
<!-- Created with Inkscape (http://www.inkscape.org/) -->

<svg
   width="512"
   height="512"
   viewBox="0 0 135.46666 135.46667"
   version="1.1"
   id="svg5"
   inkscape:version="1.3 (0e150ed6c4, 2023-07-21)"
   sodipodi:docname="pcmanfm.svg"
   xml:space="preserve"
   xmlns:inkscape="http://www.inkscape.org/namespaces/inkscape"
   xmlns:sodipodi="http://sodipodi.sourceforge.net/DTD/sodipodi-0.dtd"
   xmlns:xlink="http://www.w3.org/1999/xlink"
   xmlns="http://www.w3.org/2000/svg"
   xmlns:svg="http://www.w3.org/2000/svg"><sodipodi:namedview
     id="namedview7"
     pagecolor="#505050"
     bordercolor="#ffffff"
     borderopacity="1"
     inkscape:showpageshadow="0"
     inkscape:pageopacity="0"
     inkscape:pagecheckerboard="1"
     inkscape:deskcolor="#505050"
     inkscape:document-units="mm"
     showgrid="false"
     inkscape:zoom="1.1214272"
     inkscape:cx="245.6691"
     inkscape:cy="263.94938"
     inkscape:window-width="3256"
     inkscape:window-height="1080"
     inkscape:window-x="1864"
     inkscape:window-y="0"
     inkscape:window-maximized="0"
     inkscape:current-layer="svg5" /><defs
     id="defs2"><linearGradient
       inkscape:collect="always"
       id="linearGradient2"><stop
         style="stop-color:#9f9961;stop-opacity:1;"
         offset="0"
         id="stop1" /><stop
         style="stop-color:#7a7548;stop-opacity:1;"
         offset="1"
         id="stop2" /></linearGradient><linearGradient
       inkscape:collect="always"
       id="linearGradient2960"><stop
         style="stop-color:#493154;stop-opacity:1;"
         offset="0"
         id="stop2956" /><stop
         style="stop-color:#26192e;stop-opacity:1;"
         offset="1"
         id="stop2958" /></linearGradient><linearGradient
       inkscape:collect="always"
       xlink:href="#linearGradient60690"
       id="linearGradient60692"
       x1="-3691.3494"
       y1="-1057.787"
       x2="-3691.3494"
       y2="-802.59698"
       gradientUnits="userSpaceOnUse"
       gradientTransform="matrix(0.18032028,0,0,0.18032028,733.35853,211.38391)" /><linearGradient
       inkscape:collect="always"
       id="linearGradient60690"><stop
         style="stop-color:#9f9961;stop-opacity:1;"
         offset="0"
         id="stop60686" /><stop
         style="stop-color:#000000;stop-opacity:1;"
         offset="0.6930005"
         id="stop60688" /></linearGradient><clipPath
       clipPathUnits="userSpaceOnUse"
       id="clipPath11672"><path
         id="path11674"
         style="fill:#31213b;fill-opacity:1;stroke:none;stroke-width:0.699095;stroke-linecap:round;stroke-linejoin:round;paint-order:stroke markers fill"
         d="m -344.60471,-53.506317 c -1.80369,0 -3.25575,1.356072 -3.25575,3.040504 l 5.64443,77.155998 h 122.26775 l 5.64444,-77.155998 c 0,-1.684432 -1.45207,-3.040504 -3.25575,-3.040504 z"
         sodipodi:nodetypes="sccccss" /></clipPath><linearGradient
       inkscape:collect="always"
       xlink:href="#linearGradient2"
       id="linearGradient2962"
       x1="-3691.3496"
       y1="-986.60083"
       x2="-3691.3491"
       y2="-535.49536"
       gradientUnits="userSpaceOnUse"
       gradientTransform="matrix(0.18032028,0,0,0.18032028,733.35853,211.38391)" /><clipPath
       clipPathUnits="userSpaceOnUse"
       id="clipPath17519"><path
         id="path17521"
         style="display:inline;opacity:1;fill:url(#linearGradient17523);fill-opacity:1;stroke:none;stroke-width:7.44141;stroke-linecap:round;stroke-linejoin:round;stroke-dasharray:none;stroke-opacity:1;paint-order:stroke markers fill"
         d="m 4.21078,33.962726 c -1.8036801,0 -3.25575127,1.356072 -3.25575127,3.040505 L 6.5994732,114.15923 H 128.86721 l 5.64444,-77.155999 c 0,-1.684433 -1.45207,-3.040505 -3.25575,-3.040505 z"
         sodipodi:nodetypes="sccccss"
         inkscape:label="mask" /></clipPath><linearGradient
       inkscape:collect="always"
       xlink:href="#linearGradient2960"
       id="linearGradient17523"
       gradientUnits="userSpaceOnUse"
       gradientTransform="matrix(0.17777778,0,0,0.17777778,723.97326,209.35843)"
       x1="-3691.3496"
       y1="-986.60083"
       x2="-3691.3491"
       y2="-535.49536" /><clipPath
       clipPathUnits="userSpaceOnUse"
       id="clipPath17525"><path
         id="path17527"
         style="display:inline;opacity:1;fill:url(#linearGradient17529);fill-opacity:1;stroke:none;stroke-width:7.44141;stroke-linecap:round;stroke-linejoin:round;stroke-dasharray:none;stroke-opacity:1;paint-order:stroke markers fill"
         d="M 84.926958,14.35616 C 84.195729,12.707352 82.367413,11.929727 80.827614,12.612612 L 12.584901,49.052156 62.153376,160.82141 134.97271,134.70143 c 1.5398,-0.68288 2.19075,-2.56004 1.45952,-4.20884 z"
         sodipodi:nodetypes="sccccss"
         inkscape:label="mask" /></clipPath><linearGradient
       inkscape:collect="always"
       xlink:href="#linearGradient2960"
       id="linearGradient17529"
       gradientUnits="userSpaceOnUse"
       gradientTransform="matrix(0.07207276,0.16251294,-0.16251294,0.07207276,216.38994,743.42349)"
       x1="-3691.3496"
       y1="-986.60083"
       x2="-3691.3491"
       y2="-535.49536" /><clipPath
       clipPathUnits="userSpaceOnUse"
       id="clipPath24809"><path
         id="path24811"
         style="display:inline;opacity:1;fill:url(#linearGradient24813);fill-opacity:1;stroke:#ffffff;stroke-width:1.32292;stroke-linecap:round;stroke-linejoin:round;stroke-dasharray:none;stroke-opacity:1;paint-order:stroke markers fill"
         d="m 4.21078,33.962726 c -1.8036801,0 -3.25575127,1.356072 -3.25575127,3.040505 L 6.5994732,114.15923 H 128.86721 l 5.64444,-77.155999 c 0,-1.684433 -1.45207,-3.040505 -3.25575,-3.040505 z"
         sodipodi:nodetypes="sccccss"
         inkscape:label="mask" /></clipPath><linearGradient
       inkscape:collect="always"
       xlink:href="#linearGradient2960"
       id="linearGradient24813"
       gradientUnits="userSpaceOnUse"
       x1="-3691.3496"
       y1="-986.60083"
       x2="-3691.3491"
       y2="-535.49536"
       gradientTransform="matrix(0.17777778,0,0,0.17777778,723.97326,209.35843)" /></defs><path
     id="rect933-3-0-3"
     style="display:inline;fill:url(#linearGradient60692);fill-opacity:1;stroke:none;stroke-width:1.32292;stroke-linecap:round;stroke-linejoin:round;stroke-dasharray:none;stroke-opacity:1;paint-order:stroke markers fill"
     d="m 9.332196,20.643462 c -1.9976962,0 -3.6059908,1.608295 -3.6059908,3.605991 v 7.077794 4.728757 75.161266 c 0,1.99768 1.6082946,3.60597 3.6059908,3.60597 H 126.13462 c 1.99768,0 3.60596,-1.60829 3.60596,-3.60597 V 31.327247 c 0,-1.997703 -1.60828,-3.60598 -3.60596,-3.60598 H 37.545846 c 0,0 -0.476586,0.01443 -0.714627,-0.223705 -0.237987,-0.238023 -0.223723,-0.857495 -0.223723,-0.857495 v -2.390614 c 0,-1.997696 -1.608277,-3.605991 -3.605955,-3.605991 z"
     sodipodi:nodetypes="ssccssssssczcsss"
     inkscape:label="folder-back" /><rect
     style="fill:#ececec;stroke:none;stroke-width:6.35;stroke-linecap:round;stroke-linejoin:round;paint-order:fill markers stroke"
     id="rect2"
     width="81.343468"
     height="116.91018"
     x="31.363106"
     y="-126.1829"
     rx="0"
     ry="0"
     transform="rotate(90)" /><path
     id="rect64793"
     style="fill:url(#linearGradient2962);fill-opacity:1;stroke:none;stroke-width:1.32292;stroke-linecap:round;stroke-linejoin:round;stroke-dasharray:none;stroke-opacity:1;paint-order:stroke markers fill"
     d="m 3.3023219,33.479774 c -1.8294754,0 -3.3023134537001,1.375465 -3.3023134537001,3.083989 L 5.7251773,114.82322 H 129.74153 l 5.72517,-78.259457 c 0,-1.708524 -1.47284,-3.083989 -3.30231,-3.083989 z"
     sodipodi:nodetypes="sccccss" /><text
     xml:space="preserve"
     style="font-style:normal;font-weight:normal;font-size:5.85742px;line-height:1.25;font-family:sans-serif;display:none;fill:#554400;fill-opacity:1;stroke:none;stroke-width:0.264583"
     x="7.2824359"
     y="27.000906"
     id="text2"
     sodipodi:insensitive="true"><tspan
       sodipodi:role="line"
       id="tspan2"
       style="fill:#554400;stroke-width:0.264583"
       x="0"
       y="0">PCManFM</tspan></text><path
     d="m 8.957658,22.818708 q 0.8200388,0 1.194914,0.322158 0.374875,0.322158 0.374875,0.9079 0,0.345588 -0.158151,0.650174 -0.152293,0.298728 -0.5213102,0.486166 -0.36316,0.187437 -0.9899039,0.187437 H 8.3777734 v 1.628363 H 7.8506056 v -4.182198 z m -0.046859,0.451021 H 8.3777734 v 1.651793 h 0.4217343 q 0.5974568,0 0.8903278,-0.193295 0.292871,-0.193295 0.292871,-0.656031 0,-0.404162 -0.2577265,-0.603314 -0.2577265,-0.199153 -0.8141814,-0.199153 z m 4.2759144,-0.04686 q -0.673604,0 -1.060193,0.451021 -0.38659,0.451022 -0.38659,1.235916 0,0.779037 0.357302,1.235916 0.363161,0.451021 1.083623,0.451021 0.275299,0 0.521311,-0.04686 0.246011,-0.04686 0.480308,-0.117149 v 0.456879 q -0.234297,0.08786 -0.486166,0.128863 -0.246012,0.041 -0.591599,0.041 -0.638459,0 -1.066051,-0.263584 -0.427591,-0.263584 -0.644316,-0.749749 -0.210867,-0.486166 -0.210867,-1.142197 0,-0.632602 0.228439,-1.11291 0.234297,-0.486166 0.685318,-0.755607 0.451022,-0.275299 1.095338,-0.275299 0.661888,0 1.153912,0.246012 l -0.210867,0.445163 q -0.193295,-0.08786 -0.433449,-0.15815 -0.234297,-0.07029 -0.515453,-0.07029 z m 3.754605,3.778036 -1.376493,-3.666745 h -0.02343 q 0.01757,0.18158 0.02929,0.492023 0.01172,0.304586 0.01172,0.638459 v 2.536263 h -0.486166 v -4.182198 h 0.779037 l 1.288632,3.426591 h 0.02343 l 1.312062,-3.426591 h 0.77318 v 4.182198 h -0.521311 v -2.571407 q 0,-0.304586 0.01171,-0.603315 0.01757,-0.298728 0.02929,-0.486165 h -0.02343 l -1.394066,3.660887 z m 4.586358,-3.192294 q 0.574027,0 0.849326,0.251869 0.275298,0.251869 0.275298,0.802467 v 2.137958 h -0.374875 l -0.09958,-0.445164 h -0.02343 q -0.20501,0.257727 -0.433449,0.380732 -0.222582,0.123006 -0.620887,0.123006 -0.427592,0 -0.708748,-0.222582 -0.281156,-0.228439 -0.281156,-0.708748 0,-0.468593 0.369018,-0.720462 0.369017,-0.257727 1.136339,-0.281156 l 0.533025,-0.01757 v -0.187437 q 0,-0.392447 -0.169865,-0.54474 -0.169865,-0.152293 -0.480308,-0.152293 -0.246012,0 -0.468594,0.07615 -0.222582,0.07029 -0.415877,0.164008 l -0.15815,-0.38659 q 0.20501,-0.111291 0.486166,-0.187437 0.281156,-0.082 0.585742,-0.082 z m 0.152293,1.675222 q -0.585742,0.02343 -0.814182,0.187438 -0.222582,0.164007 -0.222582,0.462736 0,0.263584 0.158151,0.38659 0.164007,0.123005 0.415876,0.123005 0.398305,0 0.661889,-0.216724 0.263584,-0.222582 0.263584,-0.679461 v -0.281156 z m 3.455882,-1.681079 q 0.562313,0 0.849326,0.275298 0.287014,0.269442 0.287014,0.878613 v 2.04424 h -0.509596 v -2.009095 q 0,-0.755607 -0.70289,-0.755607 -0.521311,0 -0.720463,0.292871 -0.199152,0.292871 -0.199152,0.843468 v 1.628363 h -0.515453 v -3.139577 h 0.415877 l 0.07615,0.427592 h 0.02929 q 0.152293,-0.246012 0.421735,-0.36316 0.269441,-0.123006 0.568169,-0.123006 z m 2.706129,3.198151 h -0.527168 v -4.182198 h 2.337111 v 0.462736 H 27.84198 v 1.481928 h 1.698652 v 0.462736 H 27.84198 Z m 4.357915,0 -1.376494,-3.666745 h -0.02343 q 0.01757,0.18158 0.02929,0.492023 0.01171,0.304586 0.01171,0.638459 v 2.536263 h -0.486165 v -4.182198 h 0.779036 l 1.288633,3.426591 h 0.02343 l 1.312063,-3.426591 h 0.773179 v 4.182198 h -0.52131 v -2.571407 q 0,-0.304586 0.01171,-0.603315 0.01757,-0.298728 0.02929,-0.486165 h -0.02343 l -1.394066,3.660887 z"
     id="text3"
     style="font-size:5.85742px;line-height:1.25;fill:#554400;stroke-width:0.264583"
     inkscape:label="text-path"
     aria-label="PCManFM" /></svg>
