<?xml version="1.0" encoding="UTF-8" standalone="no"?>
<!-- Created with Inkscape (http://www.inkscape.org/) -->

<svg
   width="512"
   height="512"
   viewBox="0 0 135.46666 135.46667"
   version="1.1"
   id="svg5"
   inkscape:version="1.2.1 (9c6d41e410, 2022-07-14, custom)"
   sodipodi:docname="picom.svg"
   xmlns:inkscape="http://www.inkscape.org/namespaces/inkscape"
   xmlns:sodipodi="http://sodipodi.sourceforge.net/DTD/sodipodi-0.dtd"
   xmlns:xlink="http://www.w3.org/1999/xlink"
   xmlns="http://www.w3.org/2000/svg"
   xmlns:svg="http://www.w3.org/2000/svg">
  <sodipodi:namedview
     id="namedview7"
     pagecolor="#505050"
     bordercolor="#ffffff"
     borderopacity="1"
     inkscape:showpageshadow="0"
     inkscape:pageopacity="0"
     inkscape:pagecheckerboard="1"
     inkscape:deskcolor="#505050"
     inkscape:document-units="mm"
     showgrid="false"
     inkscape:zoom="1.5859376"
     inkscape:cx="469.75366"
     inkscape:cy="198.62068"
     inkscape:window-width="3252"
     inkscape:window-height="1076"
     inkscape:window-x="1864"
     inkscape:window-y="0"
     inkscape:window-maximized="0"
     inkscape:current-layer="layer1" />
  <defs
     id="defs2">
    <linearGradient
       inkscape:collect="always"
       id="linearGradient8319">
      <stop
         style="stop-color:#ffffff;stop-opacity:1;"
         offset="0"
         id="stop8315" />
      <stop
         style="stop-color:#1e59c4;stop-opacity:0;"
         offset="0.08441917"
         id="stop8317" />
    </linearGradient>
    <linearGradient
       inkscape:collect="always"
       id="linearGradient7162">
      <stop
         style="stop-color:#000000;stop-opacity:1;"
         offset="0"
         id="stop7158" />
      <stop
         style="stop-color:#000000;stop-opacity:0;"
         offset="1"
         id="stop7160" />
    </linearGradient>
    <linearGradient
       inkscape:collect="always"
       id="linearGradient4336">
      <stop
         style="stop-color:#ffffff;stop-opacity:1;"
         offset="0"
         id="stop4332" />
      <stop
         style="stop-color:#ffffff;stop-opacity:0;"
         offset="1"
         id="stop4334" />
    </linearGradient>
    <linearGradient
       inkscape:collect="always"
       xlink:href="#linearGradient4336"
       id="linearGradient4338"
       x1="129.96124"
       y1="2.4884081"
       x2="129.96124"
       y2="69.777977"
       gradientUnits="userSpaceOnUse"
       gradientTransform="matrix(0.96808134,0,0,0.96808134,-58.079728,14.914224)" />
    <linearGradient
       inkscape:collect="always"
       xlink:href="#linearGradient7162"
       id="linearGradient7164"
       x1="2.3554118"
       y1="7.9811683"
       x2="64.849772"
       y2="7.9811683"
       gradientUnits="userSpaceOnUse" />
    <linearGradient
       inkscape:collect="always"
       xlink:href="#linearGradient8319"
       id="linearGradient8321"
       x1="-69.257401"
       y1="-39.026356"
       x2="-69.257401"
       y2="94.735291"
       gradientUnits="userSpaceOnUse"
       gradientTransform="translate(136.99428,39.554591)" />
  </defs>
  <g
     inkscape:label="Layer 1"
     inkscape:groupmode="layer"
     id="layer1">
    <path
       id="rect3071"
       style="display:none;fill:#ffffff;stroke-width:14.9569;stroke-linecap:round;stroke-linejoin:round;paint-order:fill markers stroke"
       d="M 44.898916,1.1855031 78.950793,47.056337 47.252952,58.265465 Z"
       sodipodi:nodetypes="cccc"
       inkscape:transform-center-y="-29.708462"
       inkscape:transform-center-x="4.7927734" />
    <path
       id="path3896"
       style="display:none;fill:#ffffff;stroke-width:14.9569;stroke-linecap:round;stroke-linejoin:round;paint-order:fill markers stroke"
       d="M 106.60148,9.3514289 89.480237,63.853968 61.789479,44.78515 Z"
       sodipodi:nodetypes="cccc"
       inkscape:transform-center-y="-24.04198"
       inkscape:transform-center-x="-13.557107" />
    <path
       id="path3898"
       style="display:none;fill:#ffffff;stroke-width:14.9569;stroke-linecap:round;stroke-linejoin:round;paint-order:fill markers stroke"
       d="M 135.46667,55.400112 84.045087,80.289548 78.950793,47.056337 Z"
       sodipodi:nodetypes="cccc"
       inkscape:transform-center-y="-1.7374511"
       inkscape:transform-center-x="-32.518881" />
    <path
       id="path3900"
       style="display:none;fill:#ffffff;stroke-width:14.9569;stroke-linecap:round;stroke-linejoin:round;paint-order:fill markers stroke"
       d="M 126.9389,100.28002 71.301459,87.313202 88.230107,58.264641 Z"
       sodipodi:nodetypes="cccc"
       inkscape:transform-center-y="11.115668"
       inkscape:transform-center-x="-25.85432" />
    <path
       id="path3902"
       style="display:none;fill:#ffffff;stroke-width:14.9569;stroke-linecap:round;stroke-linejoin:round;paint-order:fill markers stroke"
       d="M 69.24667,134.28116 51.240737,80.06446 84.85401,79.325954 Z"
       sodipodi:nodetypes="cccc"
       inkscape:transform-center-y="33.800021"
       inkscape:transform-center-x="-0.25187707" />
    <path
       id="path3904"
       style="display:none;fill:#ffffff;stroke-width:14.9569;stroke-linecap:round;stroke-linejoin:round;paint-order:fill markers stroke"
       d="M 21.795937,116.60918 45.938464,64.832709 70.879954,87.378662 Z"
       sodipodi:nodetypes="cccc"
       inkscape:transform-center-y="20.548751"
       inkscape:transform-center-x="17.635608" />
    <path
       id="path3906"
       style="display:none;fill:#ffffff;stroke-width:14.9569;stroke-linecap:round;stroke-linejoin:round;paint-order:fill markers stroke"
       d="M -2.7579379e-8,76.053732 51.461736,51.247393 56.502332,84.488782 Z"
       sodipodi:nodetypes="cccc"
       inkscape:transform-center-y="1.7191394"
       inkscape:transform-center-x="32.538211" />
    <path
       id="path3908"
       style="display:none;fill:#ffffff;stroke-width:14.9569;stroke-linecap:round;stroke-linejoin:round;paint-order:fill markers stroke"
       d="M 3.4537932,42.085244 60.497571,45.195139 48.869558,76.741725 Z"
       sodipodi:nodetypes="cccc"
       inkscape:transform-center-y="-5.2470313"
       inkscape:transform-center-x="29.469396" />
    <path
       id="rect3071-6"
       style="fill:#ffffff;stroke-width:0.6;stroke-linecap:round;stroke-linejoin:round;paint-order:fill markers stroke;stroke:#000000;stroke-opacity:1;stroke-dasharray:none"
       inkscape:transform-center-x="4.7927734"
       inkscape:transform-center-y="-29.708462"
       d="m 44.987223,1.5809892 c -0.39303,0.7148397 0.15013,1.5342227 0.0231,2.3054992 0.44708,11.7887556 1.09211,23.5747276 1.27575,35.3702826 -0.66794,3.386945 -4.49486,5.458657 -7.75977,4.757812 -11.57417,-0.615184 -23.14668,-1.26687 -34.7265609,-1.767578 0.12044,0.520479 0.80987,0.616507 1.13765,1.012384 5.8581509,4.507033 11.8411109,8.857883 17.5555509,13.550979 2.31814,2.449804 1.60552,6.692008 -0.91943,8.726033 -1.45129,1.157997 -3.32009,1.561134 -4.90775,2.487297 -5.43793,2.64839 -10.9311509,5.188696 -16.262511,8.049479 0.48003,0.269856 1.1312101,0.147835 1.6778601,0.308412 9.1075409,1.370851 18.2270209,2.671998 27.3143009,4.17054 1.31388,0.239011 2.74939,0.417306 3.7185,1.440551 2.31455,2.142743 2.63836,6.010722 0.81749,8.561799 -3.98979,8.583378 -8.00054,17.156581 -11.89338,25.784331 0.56559,0.1 0.91473,-0.55418 1.43298,-0.71319 9.18241,-5.43864 18.27189,-11.04177 27.57807,-16.271963 2.69174,-1.2085 5.90522,0.32995 7.38037,2.715843 0.90622,1.5323 1.08817,3.35276 1.76183,4.98462 2.98742,8.95998 5.92975,17.9353 9.05183,26.84914 0.45851,-0.29052 0.25672,-0.96603 0.51358,-1.40235 3.65928,-12.75839 7.13697,-25.57064 10.98251,-38.273436 1.47578,-2.916162 5.34974,-3.908371 8.27149,-2.75586 12.517947,2.896928 25.031367,5.813713 37.564447,8.644536 0.002,-0.533073 -0.68055,-0.750313 -0.926,-1.197113 -6.59387,-7.237585 -13.36882,-14.314978 -19.80744,-21.690786 -1.77414,-2.378797 -0.92018,-5.879508 1.15134,-7.792987 1.40056,-1.331133 3.36486,-1.735179 5.00671,-2.678028 7.69726,-3.735905 15.42796,-7.455827 23.06367,-11.283669 -0.33665,-0.444051 -1.00119,-0.133558 -1.47121,-0.338818 -11.18432,-1.659977 -22.38625,-3.222451 -33.54051,-5.069385 -2.969197,-0.797704 -4.554827,-4.19611 -4.037947,-7.08636 0.22065,-1.449836 0.96253,-2.742294 1.30026,-4.163866 3.041637,-9.699638 6.091797,-19.396445 9.059957,-29.1189145 -0.53276,-0.05136 -0.80412,0.6194025 -1.26617,0.8320955 -9.690947,7.642343 -19.307777,15.376822 -29.110787,22.874936 -1.97895,1.66018 -4.99305,1.255108 -6.97329,-0.188513 -1.5582,-0.997377 -2.29642,-2.751958 -3.45124,-4.125871 -6.83136,-9.192987 -13.6508,-18.395027 -20.5657,-27.5254599 z m 24.36328,49.4863278 c 3.15392,0.431552 5.35536,2.953922 8.00822,4.450373 2.15719,1.405041 3.78135,3.775221 3.83607,6.403643 0.30476,2.58367 1.28692,5.446785 0.11079,8.003406 -0.84601,1.938342 -2.0972,3.661721 -3.08992,5.523316 -1.09461,1.856593 -2.6799,3.722739 -4.94799,4.020026 -2.25323,0.392653 -4.55223,0.06648 -6.81932,0.302541 -2.32129,0.0989 -4.80297,-0.493197 -6.44558,-2.233526 -1.67629,-1.441078 -3.42426,-2.873915 -4.70427,-4.690716 -1.26049,-2.332885 -1.38234,-5.057882 -1.57398,-7.642837 0.15419,-2.995755 1.46829,-5.763497 2.63721,-8.470918 1.18269,-2.060215 3.46973,-3.119388 5.6822,-3.684014 2.38363,-0.813997 4.73785,-1.961336 7.30657,-1.981294 z" />
    <path
       id="path864-6"
       style="fill:#ffcc00;fill-opacity:1;stroke-width:0.6;stroke-linecap:round;stroke-linejoin:round;paint-order:fill markers stroke;stroke-dasharray:none;stroke:#000000;stroke-opacity:1"
       d="m 50.818286,44.666514 c 0.04492,2.772105 -2.997854,4.82613 -5.596211,4.234062 -9.526649,-0.517384 -19.053287,-1.034767 -28.579926,-1.55215 5.281022,4.042202 10.611199,8.023696 15.799707,12.183107 1.969033,2.320447 0.467154,6.329929 -2.420671,7.034719 -5.371749,2.590874 -10.743486,5.181752 -16.115224,7.772624 8.503724,1.283829 17.024125,2.479232 25.502752,3.913455 2.583759,1.003425 3.410456,4.609579 1.849011,6.800625 -3.342349,7.168723 -6.684709,14.337458 -10.027058,21.506174 7.958224,-4.71466 15.86244,-9.525357 23.903107,-14.096561 2.58445,-0.823448 5.410232,1.320214 5.74551,3.916839 2.681347,8.077402 5.362684,16.154812 8.044031,24.232202 3.072982,-10.76402 6.071403,-21.551507 9.282689,-32.273882 1.12455,-2.108284 3.962067,-2.69962 6.070881,-1.854761 10.168984,2.368086 20.337976,4.736187 30.506956,7.104265 -5.67941,-6.182683 -11.41778,-12.315368 -16.993923,-18.590179 -1.502748,-2.592549 0.214353,-6.186434 2.999133,-7.017752 6.92388,-3.350269 13.84778,-6.700538 20.77166,-10.050808 -9.61914,-1.436896 -19.25392,-2.790567 -28.849625,-4.36977 -2.467994,-0.946146 -3.370349,-4.234972 -2.173018,-6.483407 2.698311,-8.587433 5.396619,-17.174868 8.094936,-25.762302 C 90.241962,27.929072 81.912314,34.627001 73.423701,41.114379 71.168245,42.189626 68.411605,40.823627 67.308404,38.722541 61.40005,30.766712 55.49171,22.810883 49.583355,14.855052 c 0.411641,9.937153 0.82329,19.874308 1.234931,29.811462 z" />
    <path
       id="path864-6-2"
       style="fill:#ff6600;fill-opacity:1;stroke-width:0.6;stroke-linecap:round;stroke-linejoin:round;paint-order:fill markers stroke;stroke:#000000;stroke-opacity:1;stroke-dasharray:none"
       d="m 55.41621,44.904845 c 0.156264,4.383285 -3.496701,8.29337 -7.720365,9.011058 -1.96556,0.322153 -3.949494,-0.117871 -5.92225,-0.154589 -3.495931,-0.207343 -7.003484,-0.386867 -10.506464,-0.57664 1.80358,1.423009 3.684387,2.797573 5.215088,4.5188 2.961486,4.291985 1.060583,10.954557 -3.658871,13.119844 -1.161245,0.53422 -2.32507,1.062137 -3.481562,1.60632 4.031055,0.637141 8.095434,1.157466 12.065419,2.105428 4.779121,2.050249 6.718101,8.628627 3.981947,13.007264 -1.250274,2.610997 -2.46005,5.241049 -3.684444,7.864221 4.033102,-2.378014 8.041957,-4.80973 12.208546,-6.948203 4.916647,-1.491798 10.549811,2.159136 11.426406,7.170547 1.061451,3.274109 2.166867,6.536735 3.245237,9.806425 1.828707,-6.337887 3.570014,-12.705926 5.645416,-18.968476 2.165487,-3.864792 7.311336,-5.478955 11.397697,-3.964341 5.230947,1.217968 10.461894,2.435945 15.69283,3.653913 -2.623162,-2.898089 -5.358748,-5.716974 -7.719487,-8.834365 -2.470911,-4.74988 0.179619,-11.247711 5.171592,-13.075548 2.452215,-1.176131 4.905075,-2.349797 7.351935,-3.536871 -5.08772,-0.770452 -10.190382,-1.476181 -15.233128,-2.505488 -4.649808,-1.878569 -6.812358,-7.980187 -4.61913,-12.435862 1.169911,-3.724029 2.339815,-7.448058 3.509728,-11.172087 -4.809713,3.776756 -9.565386,7.631915 -14.554587,11.170394 -4.200085,1.882824 -9.516374,-0.131287 -11.759029,-4.064431 -2.889993,-3.890275 -5.779993,-7.780548 -8.66999,-11.670813 0.205826,4.957831 0.411651,9.915661 0.617466,14.8735 z" />
    <path
       id="path864-6-2-3"
       style="fill:#ff0000;fill-opacity:1;stroke:#000000;stroke-width:0.6;stroke-linecap:round;stroke-linejoin:round;stroke-dasharray:none;stroke-opacity:1;paint-order:fill markers stroke"
       d="m 60.90651,46.857422 c -0.953868,7.231143 -8.076962,13.141336 -15.39475,12.427728 -0.800347,-0.02974 -1.657386,-0.131281 -2.409938,-0.111322 0.791377,3.336768 0.306223,6.926976 -1.210937,9.990234 3.142679,0.77389 6.03452,2.671891 7.755711,5.445147 1.783361,2.650641 2.671167,5.876411 2.560695,9.064619 3.093822,-1.220448 6.619511,-1.031561 9.658594,0.261311 2.509256,1.019543 4.740624,2.722942 6.370703,4.887127 0.922613,-2.9738 1.891224,-6.165392 4.34375,-8.263672 4.141673,-3.78637 10.432857,-4.891018 15.665046,-2.936685 0.187791,-0.162186 -0.259955,-0.901595 -0.251988,-1.281868 -0.972618,-4.446068 0.387729,-9.241684 3.26077,-12.724807 -2.852067,-0.625385 -5.579743,-2.081354 -7.373047,-4.43164 -2.381854,-2.898161 -3.6168,-6.701829 -3.419922,-10.445313 -2.241437,1.659547 -4.860889,3.030362 -7.717646,3.019769 -4.418193,0.176876 -8.846335,-1.729304 -11.829229,-4.978753 z" />
    <path
       id="rect792"
       style="display:none;opacity:1;fill:#1e59c4;stroke:none;stroke-width:0.734114;stroke-linecap:round;stroke-linejoin:round;paint-order:stroke fill markers"
       d="M 4.0752035,0 C 1.8176778,0 0,1.8176778 0,4.0752035 V 4.637443 9.8288574 12.720154 135.46667 H 135.46667 V 12.720154 9.8288574 4.637443 4.0752035 C 135.46667,1.8176778 133.64899,0 131.39146,0 Z M 2.3554118,14.85439 H 133.11125 V 133.33243 H 2.3554118 Z" />
    <path
       id="rect792-5"
       style="display:none;mix-blend-mode:overlay;fill:url(#linearGradient8321);fill-opacity:1;stroke:none;stroke-width:0.734114;stroke-linecap:round;stroke-linejoin:round;paint-order:stroke fill markers"
       d="m 131.12854,1.6024527 c -42.451175,-0.004 -84.902347,0.0031 -127.3535165,0.02148 -1.5498004,0.145285 -2.4539971,1.8586461 -2.1738281,3.2917971 0,2.902734 -10e-8,5.8054692 -10e-8,8.7082042 1.1949225,-0.659161 2.6074291,-0.224171 3.9015626,-0.34375 42.5406251,0 85.0812501,0 127.6218721,0 0.74535,0.359068 0.86719,0.227519 0.75568,-0.603125 -0.0163,-3.0146992 0.0302,-6.0326162 -0.0252,-9.0453142 -0.21927,-1.2299461 -1.48398,-2.1755701 -2.72656,-2.0292961 z" />
    <rect
       style="display:none;opacity:0.12;fill:#000000;fill-opacity:1;stroke:none;stroke-width:0.921689;stroke-linecap:round;stroke-linejoin:round;paint-order:stroke fill markers"
       id="rect2574"
       width="130.75583"
       height="118.47803"
       x="2.3554118"
       y="14.85439" />
    <path
       id="rect2574-7"
       style="display:none;opacity:0.2;fill:url(#linearGradient4338);fill-opacity:1;stroke-width:0.89227;stroke-linecap:round;stroke-linejoin:round;paint-order:stroke fill markers"
       d="m 4.4421061,17.322974 v 53.223624 c 9.7779599,0.0069 17.0602589,-0.5249 22.7443479,-1.293978 3.330672,-8.173612 5.095869,-17.546955 5.104598,-27.105839 -0.0057,-8.666427 -1.455433,-17.195518 -4.21938,-24.823807 z m 40.1422519,0 c 7.231742,7.32236 0.739252,17.434902 0.746208,28.006559 -0.01287,7.666167 -2.175613,15.157113 -6.216158,21.530469 6.629385,-1.79819 10.335693,-3.504985 16.945736,-3.141927 3.716803,-7.154293 6.265913,-15.356953 7.422286,-23.883814 1.021032,-7.62934 0.900175,-15.315157 -0.353984,-22.511287 z m 35.810218,0 c 5.264619,7.947114 -3.116238,17.730141 -4.413684,27.404528 -1.052222,7.719821 -4.280557,14.961115 -9.266101,20.784262 0.341241,0.08419 0.664948,0.158788 1.018542,0.249597 26.074436,6.69637 42.313367,20.748073 63.291227,4.785237 V 17.322974 Z"
       sodipodi:nodetypes="ccccccccccccccccsccc" />
    <text
       xml:space="preserve"
       style="font-style:normal;font-weight:normal;font-size:10.5833px;line-height:1.25;font-family:sans-serif;display:none;fill:#000000;fill-opacity:1;stroke:#ffffff;stroke-width:0.265;stroke-linecap:round;stroke-linejoin:round;stroke-dasharray:none;stroke-opacity:1;paint-order:stroke fill markers"
       x="3.8264973"
       y="10.732826"
       id="text7083"><tspan
         sodipodi:role="line"
         id="tspan7081"
         style="stroke:#ffffff;stroke-width:0.265;stroke-linecap:round;stroke-linejoin:round;stroke-dasharray:none;stroke-opacity:1;paint-order:stroke fill markers"
         x="3.8264973"
         y="10.732826">Oooh Shiney</tspan></text>
  </g>
</svg>
