<?xml version="1.0" encoding="UTF-8" standalone="no"?>
<!-- Created with Inkscape (http://www.inkscape.org/) -->

<svg
   width="512"
   height="512"
   viewBox="0 0 135.46666 135.46667"
   version="1.1"
   id="svg5"
   inkscape:version="1.4 (e7c3feb100, 2024-10-09)"
   sodipodi:docname="picom.svg"
   xmlns:inkscape="http://www.inkscape.org/namespaces/inkscape"
   xmlns:sodipodi="http://sodipodi.sourceforge.net/DTD/sodipodi-0.dtd"
   xmlns:xlink="http://www.w3.org/1999/xlink"
   xmlns="http://www.w3.org/2000/svg"
   xmlns:svg="http://www.w3.org/2000/svg"
   xmlns:rdf="http://www.w3.org/1999/02/22-rdf-syntax-ns#"
   xmlns:cc="http://creativecommons.org/ns#"
   xmlns:dc="http://purl.org/dc/elements/1.1/">&gt;
  <sodipodi:namedview
   id="namedview7"
   pagecolor="#505050"
   bordercolor="#ffffff"
   borderopacity="1"
   inkscape:showpageshadow="0"
   inkscape:pageopacity="0"
   inkscape:pagecheckerboard="1"
   inkscape:deskcolor="#505050"
   inkscape:document-units="mm"
   showgrid="false"
   inkscape:zoom="1.1214272"
   inkscape:cx="184.14035"
   inkscape:cy="251.91113"
   inkscape:window-width="3256"
   inkscape:window-height="1080"
   inkscape:window-x="1864"
   inkscape:window-y="0"
   inkscape:window-maximized="0"
   inkscape:current-layer="layer1" />
<defs
   id="defs2">
  <linearGradient
     id="linearGradient34"
     inkscape:collect="always">
    <stop
       style="stop-color:#ff0000;stop-opacity:0;"
       offset="0"
       id="stop36" />
    <stop
       style="stop-color:#ff0000;stop-opacity:1;"
       offset="1"
       id="stop35" />
  </linearGradient>
  <linearGradient
     id="linearGradient32"
     inkscape:collect="always">
    <stop
       style="stop-color:#ff6600;stop-opacity:0;"
       offset="0"
       id="stop34" />
    <stop
       style="stop-color:#ff6600;stop-opacity:1;"
       offset="1"
       id="stop33" />
  </linearGradient>
  <linearGradient
     id="linearGradient30"
     inkscape:collect="always">
    <stop
       style="stop-color:#ffcc00;stop-opacity:0;"
       offset="0"
       id="stop32" />
    <stop
       style="stop-color:#ffcc00;stop-opacity:1;"
       offset="1"
       id="stop31" />
  </linearGradient>
  <linearGradient
     id="linearGradient29"
     inkscape:collect="always">
    <stop
       style="stop-color:#ffffff;stop-opacity:0;"
       offset="0"
       id="stop30" />
    <stop
       style="stop-color:#ffffff;stop-opacity:1;"
       offset="1"
       id="stop29" />
  </linearGradient>
  <linearGradient
     inkscape:collect="always"
     id="linearGradient7162">
    <stop
       style="stop-color:#000000;stop-opacity:1;"
       offset="0"
       id="stop7158" />
    <stop
       style="stop-color:#000000;stop-opacity:0;"
       offset="1"
       id="stop7160" />
  </linearGradient>
  <linearGradient
     inkscape:collect="always"
     xlink:href="#linearGradient7162"
     id="linearGradient7164"
     x1="2.3554118"
     y1="7.9811683"
     x2="64.849772"
     y2="7.9811683"
     gradientUnits="userSpaceOnUse" />
  <radialGradient
     inkscape:collect="always"
     xlink:href="#linearGradient29"
     id="radialGradient30"
     cx="67.733335"
     cy="67.733336"
     fx="67.733335"
     fy="67.733336"
     r="66.486525"
     gradientTransform="matrix(1,0,0,0.98276913,0,1.1671045)"
     gradientUnits="userSpaceOnUse" />
  <radialGradient
     inkscape:collect="always"
     xlink:href="#linearGradient30"
     id="radialGradient32"
     cx="67.733339"
     cy="67.733328"
     fx="67.733339"
     fy="67.733328"
     r="53.152991"
     gradientTransform="matrix(1,0,0,0.9823677,0,1.1942944)"
     gradientUnits="userSpaceOnUse" />
  <radialGradient
     inkscape:collect="always"
     xlink:href="#linearGradient32"
     id="radialGradient34"
     cx="67.733341"
     cy="67.73333"
     fx="67.733341"
     fy="67.73333"
     r="37.910558"
     gradientTransform="matrix(1,0,0,0.98203855,0,1.2165886)"
     gradientUnits="userSpaceOnUse" />
  <radialGradient
     inkscape:collect="always"
     xlink:href="#linearGradient34"
     id="radialGradient36"
     cx="66.58707"
     cy="67.799936"
     fx="66.58707"
     fy="67.799936"
     r="24.372412"
     gradientTransform="matrix(1,0,0,0.85170532,0,10.054369)"
     gradientUnits="userSpaceOnUse" />
</defs>
<g
   inkscape:label="Layer 1"
   inkscape:groupmode="layer"
   id="layer1">
  <path
     id="path27"
     style="display:inline;opacity:0.8;fill:#000000;fill-opacity:1;stroke:#000000;stroke-width:2;stroke-linecap:round;stroke-linejoin:round;stroke-dasharray:none;stroke-opacity:1;paint-order:fill markers stroke"
     inkscape:transform-center-x="4.7327264"
     inkscape:transform-center-y="-29.336255"
     d="M 45.291292 2.3926188 L 45.272172 2.409672 C 44.884066 3.1155557 45.420349 3.9249222 45.29491 4.6865356 C 45.500741 10.113966 45.748594 15.540756 45.973421 20.968229 L 59.201038 20.968229 C 54.585065 14.760974 49.961531 8.5592022 45.291292 2.3926188 z M 105.88966 10.423136 C 105.36357 10.372416 105.09587 11.034765 104.63961 11.244792 C 100.53964 14.478052 96.452533 17.727079 92.35922 20.968229 L 102.60872 20.968229 C 103.70098 17.452793 104.81478 13.944001 105.88966 10.423136 z M 4.6007528 42.566394 C 4.7196839 43.080352 5.4005251 43.1749 5.7241984 43.565816 C 8.1253862 45.413197 10.548187 47.23372 12.964067 49.063155 C 13.139237 48.112755 13.29247 47.19636 13.394531 46.359444 C 13.531879 45.233166 13.625124 44.116546 13.709757 43.007711 C 10.673499 42.858821 7.6378717 42.697718 4.6007528 42.566394 z M 130.88503 55.01628 C 130.6718 55.863161 130.45212 56.719769 130.21634 57.601652 C 131.54956 56.941812 132.89162 56.292879 134.21971 55.627096 C 133.88728 55.188609 133.23122 55.495437 132.76709 55.292749 C 132.13992 55.199664 131.51231 55.108813 130.88503 55.01628 z M 6.5112305 73.264262 C 4.7452539 74.143512 2.9857825 75.035441 1.2469523 75.96849 C 1.7209682 76.234965 2.3638974 76.114815 2.9036987 76.273381 C 3.7941923 76.407416 4.6852046 76.538864 5.575887 76.671806 C 5.8842445 75.541386 6.1804367 74.429509 6.5112305 73.264262 z M 121.61066 94.938908 C 121.54966 96.242761 121.51315 97.497369 121.50473 98.712838 C 122.94995 99.041528 124.39209 99.383653 125.8378 99.710193 C 125.8398 99.183798 125.16601 98.969555 124.92364 98.528353 C 123.82721 97.324888 122.71479 96.135564 121.61066 94.938908 z M 23.174296 114.49844 C 22.988089 114.90972 22.796185 115.31836 22.610506 115.72989 C 23.16901 115.82859 23.51365 115.18256 24.025407 115.02554 C 24.320083 114.851 24.613031 114.6733 24.907524 114.49844 L 23.174296 114.49844 z M 62.928459 114.49844 C 64.991716 120.70248 67.062972 126.90354 69.224198 133.07405 C 69.676963 132.78717 69.477502 132.12051 69.731144 131.68964 C 71.372979 125.96524 72.97779 120.22967 74.59648 114.49844 L 62.928459 114.49844 z " />
  <g
     id="g27"
     style="display:inline">
    <path
       id="rect18"
       style="fill:#6b6b6b;fill-opacity:1;stroke-width:1.32292;stroke-linecap:round;stroke-linejoin:round;stroke-miterlimit:12;stroke-dasharray:3.96875, 3.96875;paint-order:markers stroke fill"
       d="m 17.412374,20.968229 c -2.22585,0 -4.017843,1.791997 -4.017843,4.017843 0,0 1.3197,10.551608 0,21.373372 -1.3197,10.821764 -9.2636331,31.926014 -10.5833331,42.747778 -1.3197,10.821764 0,21.373368 0,21.373368 0,2.22584 1.7920026,4.01785 4.0178426,4.01785 H 118.05429 c 2.22585,0 4.01785,-1.79201 4.01785,-4.01785 0,0 -1.3197,-10.551604 0,-21.373368 1.31969,-10.821764 9.26363,-31.926014 10.58333,-42.747778 1.3197,-10.821764 0,-21.373372 0,-21.373372 0,-2.225846 -1.79199,-4.017843 -4.01784,-4.017843 z m 1.135848,5.820833 H 127.01292 c 2.01177,0 3.6313,1.619538 3.6313,3.631303 0,0 1.19278,9.536748 0,19.317684 -1.19277,9.780935 -8.9017,28.85495 -10.09447,38.635885 -1.19277,9.780934 0,19.318196 0,19.318196 0,2.01176 -1.61954,3.63131 -3.63131,3.63131 H 8.4537476 c -2.01176,0 -3.6313029,-1.61955 -3.6313029,-3.63131 0,0 -1.19277,-9.537262 0,-19.318196 1.19277,-9.780935 8.9017043,-28.85495 10.0944743,-38.635885 1.19278,-9.780936 0,-19.317684 0,-19.317684 0,-2.011765 1.619533,-3.631303 3.631303,-3.631303 z" />
    <text
       xml:space="preserve"
       style="font-size:4.05272px;line-height:1.25;font-family:'Adwaita Sans';-inkscape-font-specification:'Adwaita Sans, @opsz=32';font-variation-settings:'opsz' 32;text-orientation:upright;fill:#000000;stroke-width:0.264583"
       x="16.918552"
       y="25.219372"
       id="text21"><tspan
         sodipodi:role="line"
         id="tspan21"
         style="fill:#000000;stroke-width:0.264583"
         x="16.918552"
         y="25.219372">Wibbley Wobbly</tspan></text>
    <text
       xml:space="preserve"
       style="font-size:4.05272px;line-height:1.25;font-family:'Adwaita Sans';-inkscape-font-specification:'Adwaita Sans, @opsz=32';font-variation-settings:'opsz' 32;text-orientation:upright;stroke-width:0.264583"
       x="16.918552"
       y="25.135956"
       id="text20"><tspan
         sodipodi:role="line"
         id="tspan20"
         style="fill:#e6e6e6;stroke-width:0.264583"
         x="16.918552"
         y="25.135956">Wibbley Wobbly</tspan></text>
    <g
       id="g26"
       transform="translate(148.89288,-0.15900341)">
      <circle
         style="fill:#00d400;stroke-width:1.32292;stroke-linecap:round;stroke-linejoin:round;stroke-miterlimit:12;stroke-dasharray:3.96875, 3.96875;paint-order:markers stroke fill"
         id="path19"
         cx="-36.800823"
         cy="24.061926"
         r="1.9169675" />
      <circle
         style="fill:#0000d4;stroke-width:1.32292;stroke-linecap:round;stroke-linejoin:round;stroke-miterlimit:12;stroke-dasharray:3.96875, 3.96875;paint-order:markers stroke fill"
         id="circle19"
         cx="-29.921659"
         cy="24.061926"
         r="1.9169675" />
      <circle
         style="fill:#d40000;stroke-width:1.32292;stroke-linecap:round;stroke-linejoin:round;stroke-miterlimit:12;stroke-dasharray:3.96875, 3.96875;paint-order:markers stroke fill"
         id="circle20"
         cx="-23.0425"
         cy="24.061926"
         r="1.9169675" />
    </g>
    <g
       id="g25"
       transform="translate(148.60112,-0.49234704)">
      <path
         id="circle21"
         style="fill:#80ff80;stroke-width:1.32292;stroke-linecap:round;stroke-linejoin:round;stroke-miterlimit:12;stroke-dasharray:3.96875, 3.96875;paint-order:markers stroke fill"
         d="m -36.799821,22.680786 c -0.144305,-8.1e-5 -0.289663,0.0225 -0.430465,0.06925 -1.120039,0.319352 -1.251511,2.003894 -0.244946,2.508374 -0.358221,-0.702631 -0.07809,-1.736222 0.774113,-1.979208 0.374054,-0.124192 0.780143,-0.07593 1.112077,0.107487 -0.239643,-0.444355 -0.718737,-0.705624 -1.210779,-0.7059 z" />
      <path
         id="circle22"
         style="fill:#8080ff;stroke-width:1.32292;stroke-linecap:round;stroke-linejoin:round;stroke-miterlimit:12;stroke-dasharray:3.96875, 3.96875;paint-order:markers stroke fill"
         d="m -29.920138,22.680786 c -0.144617,-1.78e-4 -0.290343,0.02232 -0.431498,0.06925 -1.117853,0.318589 -1.249375,2.007214 -0.242879,2.509407 -0.357831,-0.702691 -0.07831,-1.737888 0.772046,-1.980241 0.373851,-0.12429 0.779824,-0.07612 1.11156,0.10697 -0.239769,-0.443275 -0.717814,-0.704778 -1.209229,-0.705383 z" />
      <path
         id="circle23"
         style="fill:#ff8080;stroke-width:1.32292;stroke-linecap:round;stroke-linejoin:round;stroke-miterlimit:12;stroke-dasharray:3.96875, 3.96875;paint-order:markers stroke fill"
         d="m -23.040971,22.680786 c -0.144658,-2.27e-4 -0.290103,0.0222 -0.431498,0.06925 -1.118083,0.318654 -1.25005,2.008116 -0.242879,2.509924 -0.358187,-0.7027 -0.0785,-1.738352 0.772046,-1.980758 0.375399,-0.124915 0.781841,-0.07588 1.114143,0.108521 -0.24122,-0.443437 -0.719685,-0.706161 -1.211812,-0.706934 z" />
    </g>
    <path
       id="path26"
       style="display:inline;opacity:0.4;fill:#1a1a1a;stroke-width:1.32292;stroke-linecap:round;stroke-linejoin:round;stroke-miterlimit:12;stroke-dasharray:3.96875, 3.96875;paint-order:markers stroke fill"
       d="M 18.54818,26.788893 H 127.0131 c 2.01177,0 3.63135,1.61958 3.63135,3.631345 0,0 1.19278,9.537025 0,19.317961 -1.19277,9.780935 -8.90183,28.854984 -10.0946,38.635919 -1.19277,9.780934 0,19.317952 0,19.317952 0,2.01176 -1.61958,3.63134 -3.63135,3.63134 H 8.45356 c -2.01176,0 -3.63134,-1.61958 -3.63134,-3.63134 0,0 -1.19277,-9.537018 0,-19.317952 1.19277,-9.780935 8.90183,-28.854984 10.0946,-38.635919 1.19278,-9.780936 0,-19.317961 0,-19.317961 0,-2.011765 1.61959,-3.631345 3.63136,-3.631345 z"
       sodipodi:nodetypes="ssszzsssszzss" />
  </g>
  <path
     id="rect3071-6"
     style="display:inline;opacity:0.8;fill:url(#radialGradient30);stroke:none;stroke-width:0.6;stroke-linecap:round;stroke-linejoin:round;stroke-dasharray:none;stroke-opacity:1;paint-order:fill markers stroke"
     inkscape:transform-center-x="4.7327264"
     inkscape:transform-center-y="-29.336255"
     d="m 45.272203,2.4097889 c -0.388106,0.7058837 0.148249,1.515001 0.02281,2.2766144 0.441479,11.6410587 1.078428,23.2793687 1.259767,34.9271407 -0.659571,3.344511 -4.438545,5.390267 -7.66255,4.698203 -11.429162,-0.607476 -22.856683,-1.250998 -34.2914841,-1.745433 0.1189311,0.513958 0.7997235,0.608784 1.1233968,0.9997 5.7847563,4.450566 11.6927573,8.746906 17.3356033,13.381204 2.289096,2.419111 1.585405,6.608166 -0.907911,8.616707 -1.433107,1.14349 -3.278494,1.541575 -4.846262,2.456135 -5.3698,2.615209 -10.7941983,5.123689 -16.0587637,7.94863 0.4740159,0.266475 1.1170375,0.145982 1.6568388,0.304548 8.9934349,1.353676 17.9986599,2.638521 26.9720889,4.118289 1.297419,0.236016 2.714945,0.412078 3.671913,1.422502 2.285551,2.115898 2.605304,5.935416 0.807247,8.454531 -3.939803,8.475841 -7.900303,16.94163 -11.744371,25.46129 0.558504,0.0987 0.903269,-0.54724 1.415026,-0.70426 9.067367,-5.3705 18.042968,-10.90343 27.232554,-16.068093 2.658016,-1.193359 5.831236,0.325815 7.287904,2.681813 0.894866,1.51311 1.074537,3.31076 1.739756,4.92218 2.949992,8.84772 5.855458,17.71059 8.938423,26.51275 0.452765,-0.28688 0.253504,-0.95392 0.507146,-1.38479 3.613434,-12.59854 7.047553,-25.25027 10.844914,-37.793913 1.45729,-2.879625 5.282715,-3.859403 8.16786,-2.721332 12.361121,2.860634 24.717761,5.740876 37.093821,8.536232 0.002,-0.526395 -0.67203,-0.740913 -0.9144,-1.182115 -6.51126,-7.146908 -13.20133,-14.13563 -19.55928,-21.41903 -1.75191,-2.348994 -0.90865,-5.805845 1.13691,-7.695351 1.38302,-1.314455 3.3227,-1.713439 4.94399,-2.644475 7.60082,-3.6891 15.23467,-7.362416 22.77471,-11.142301 -0.33243,-0.438487 -0.98865,-0.131885 -1.45278,-0.334573 -11.04419,-1.63918 -22.10578,-3.182078 -33.120294,-5.005872 -2.931996,-0.78771 -4.497761,-4.143538 -3.987357,-6.997578 0.217886,-1.431671 0.950471,-2.707937 1.28397,-4.111698 3.003529,-9.578115 6.015481,-19.153433 8.946451,-28.754093 -0.52609,-0.05072 -0.79405,0.611642 -1.25031,0.821669 -9.569533,7.546596 -19.065876,15.184171 -28.746068,22.588344 -1.954156,1.63938 -4.930494,1.239384 -6.885925,-0.186151 C 67.46887,32.662332 66.739899,30.929733 65.599548,29.573034 58.853776,20.495223 52.119773,11.408472 45.291508,2.3924311 Z"
     sodipodi:nodetypes="cccccccccccccccccccccccccccccccccccccccc" />
  <path
     id="path864-6"
     style="display:inline;opacity:0.6;fill:url(#radialGradient32);fill-opacity:1;stroke:none;stroke-width:0.6;stroke-linecap:round;stroke-linejoin:round;stroke-dasharray:none;stroke-opacity:1;paint-order:fill markers stroke"
     d="m 51.030211,44.95551 c 0.04436,2.737374 -2.960295,4.765665 -5.526099,4.181015 -9.407292,-0.510902 -18.814574,-1.021803 -28.221857,-1.532704 5.214858,3.991559 10.478255,7.923171 15.601757,12.03047 1.944364,2.291375 0.461302,6.250623 -2.390343,6.946583 -5.304448,2.558413 -10.608884,5.116831 -15.913322,7.675244 8.397184,1.267744 16.810836,2.44817 25.183237,3.864424 2.551388,0.990853 3.367728,4.551827 1.825845,6.715422 -3.300474,7.078909 -6.600958,14.157829 -9.901432,21.236736 7.858518,-4.65559 15.663705,-9.406022 23.603634,-13.919955 2.552069,-0.813132 5.342448,1.303673 5.673526,3.867766 2.647753,7.976199 5.295497,15.952409 7.943249,23.928599 3.034482,-10.62916 5.995337,-21.281489 9.166391,-31.869528 1.11046,-2.08187 3.912427,-2.665797 5.994821,-1.831523 10.04158,2.338417 20.083172,4.676849 30.124742,7.015258 -5.60825,-6.105222 -11.27473,-12.161073 -16.781009,-18.357269 -1.483921,-2.560068 0.211666,-6.108926 2.961559,-6.929829 6.83713,-3.308295 13.67429,-6.616589 20.51142,-9.924884 -9.49862,-1.418894 -19.01269,-2.755606 -28.488181,-4.315024 -2.437073,-0.934291 -3.328123,-4.181913 -2.145792,-6.402178 2.664504,-8.479844 5.329006,-16.95969 7.993516,-25.439535 -8.285912,6.533168 -16.511201,13.147181 -24.893463,19.55328 -2.227198,1.061776 -4.949301,-0.287109 -6.038681,-2.361871 -5.83433,-7.856153 -11.668646,-15.712306 -17.502977,-23.568461 0.406483,9.812653 0.812975,19.62531 1.219459,29.437964 z" />
  <path
     id="path864-6-2"
     style="display:inline;opacity:0.4;fill:url(#radialGradient34);fill-opacity:1;stroke:none;stroke-width:0.6;stroke-linecap:round;stroke-linejoin:round;stroke-dasharray:none;stroke-opacity:1;paint-order:fill markers stroke"
     d="m 55.570529,45.190855 c 0.154306,4.328369 -3.452893,8.189465 -7.62364,8.898162 -1.940934,0.318117 -3.900012,-0.116395 -5.848052,-0.152653 -3.452131,-0.204745 -6.91574,-0.38202 -10.374832,-0.569415 1.780984,1.40518 3.638227,2.762523 5.14975,4.462185 2.924383,4.238213 1.047295,10.817311 -3.61303,12.955471 -1.146696,0.527526 -2.29594,1.048829 -3.437942,1.586194 3.98055,0.629159 7.994008,1.142965 11.914255,2.07905 4.719244,2.024562 6.633932,8.520523 3.932058,12.8443 -1.234609,2.578286 -2.429229,5.175387 -3.638283,7.765693 3.982573,-2.34822 7.941202,-4.74947 12.055589,-6.861151 4.855049,-1.473108 10.417636,2.132086 11.28325,7.08071 1.048151,3.233089 2.139718,6.454839 3.204578,9.683559 1.805795,-6.258477 3.525287,-12.546733 5.574686,-18.730821 2.138357,-3.816373 7.219735,-5.410312 11.2549,-3.914674 5.16541,1.202708 10.33082,2.405426 15.496224,3.608134 -2.590302,-2.861779 -5.291615,-5.645347 -7.622777,-8.723682 -2.439954,-4.690371 0.177369,-11.106792 5.106799,-12.911729 2.421488,-1.161395 4.843628,-2.320357 7.259838,-3.492559 C 100.61991,60.03683 95.581177,59.339943 90.60161,58.323532 86.010057,56.468498 83.874601,50.443326 86.040352,46.043475 87.195605,42.366103 88.350851,38.68873 89.506107,35.011358 84.756653,38.740797 80.060563,42.547656 75.13387,46.041803 70.986406,47.901037 65.736723,45.91216 63.522166,42.028294 60.66838,38.186759 57.814588,34.345226 54.960799,30.5037 c 0.203247,4.895716 0.406493,9.791431 0.60973,14.687155 z" />
  <path
     id="path864-6-2-3"
     style="display:inline;opacity:0.2;fill:url(#radialGradient36);fill-opacity:1;stroke:none;stroke-width:0.6;stroke-linecap:round;stroke-linejoin:round;stroke-dasharray:none;stroke-opacity:1;paint-order:fill markers stroke"
     d="m 60.992043,47.118969 c -0.941918,7.140546 -7.975769,12.976692 -15.201875,12.272026 -0.79032,-0.02936 -1.636621,-0.129637 -2.379744,-0.109928 0.781461,3.294963 0.302386,6.84019 -1.195766,9.86507 3.103305,0.764194 5.958916,2.638415 7.658542,5.376926 1.761019,2.617433 2.637702,5.802788 2.528613,8.951052 3.05506,-1.205158 6.536578,-1.018637 9.537585,0.258037 2.477819,1.00677 4.68123,2.688827 6.290887,4.825897 0.911053,-2.936542 1.867529,-6.088147 4.289328,-8.160138 4.089784,-3.738932 10.302147,-4.829741 15.468784,-2.899893 0.185439,-0.160153 -0.256697,-0.890299 -0.248831,-1.265808 -0.960432,-4.390364 0.382871,-9.125898 3.219917,-12.565382 -2.816334,-0.617549 -5.509836,-2.055277 -7.280672,-4.376118 -2.352013,-2.86185 -3.571487,-6.617864 -3.377075,-10.314447 -2.213355,1.638756 -4.799989,2.992396 -7.620955,2.981935 -4.362839,0.17466 -8.735502,-1.707638 -11.681024,-4.916376 z"
     inkscape:label="path864-6-2-3" />
</g>
<metadata
   id="metadata1">
  <rdf:RDF>
    <cc:Work
       rdf:about="">
      <dc:creator>
        <cc:Agent>
          <dc:title>Jess Tipton</dc:title>
        </cc:Agent>
      </dc:creator>
      <dc:publisher>
        <cc:Agent>
          <dc:title>m0dw3rks.com</dc:title>
        </cc:Agent>
      </dc:publisher>
      <cc:license
         rdf:resource="https://creativecommons.org/licenses/by-nc-nd/4.0/deed.en" />
    </cc:Work>
  </rdf:RDF>
</metadata>
<metadata
   id="metadata6">
  <rdf:RDF>
    <cc:Work
       rdf:about="">
      <dc:creator>
        <cc:Agent>
          <dc:title>Jess Tipton</dc:title>
        </cc:Agent>
      </dc:creator>
      <cc:license
         rdf:resource="https://creativecommons.org/licenses/by-nc-nd/4.0/deed.en" />
      <dc:publisher>
        <cc:Agent>
          <dc:title>m0dw3rks.com</dc:title>
        </cc:Agent>
      </dc:publisher>
    </cc:Work>
  </rdf:RDF>
</metadata>
<metadata
   id="metadata2">
  <rdf:RDF>
    <cc:Work
       rdf:about="">
      <dc:creator>
        <cc:Agent>
          <dc:title>Jess Tipton</dc:title>
        </cc:Agent>
      </dc:creator>
      <cc:license
         rdf:resource="https://creativecommons.org/licenses/by-nc-nd/4.0/deed.en" />
      <dc:publisher>
        <cc:Agent>
          <dc:title>m0dw3rks.com</dc:title>
        </cc:Agent>
      </dc:publisher>
    </cc:Work>
  </rdf:RDF>
</metadata>
<metadata
   id="metadata3">
  <rdf:RDF>
    <cc:Work
       rdf:about="">
      <dc:creator>
        <cc:Agent>
          <dc:title>Jess Tipton</dc:title>
        </cc:Agent>
      </dc:creator>
      <cc:license
         rdf:resource="https://creativecommons.org/licenses/by-nc-nd/4.0/deed.en" />
      <dc:publisher>
        <cc:Agent>
          <dc:title>m0dw3rks.com</dc:title>
        </cc:Agent>
      </dc:publisher>
    </cc:Work>
  </rdf:RDF>
</metadata>
<metadata
   id="metadata4">
  <rdf:RDF>
    <cc:Work
       rdf:about="">
      <dc:creator>
        <cc:Agent>
          <dc:title>Jess Tipton</dc:title>
        </cc:Agent>
      </dc:creator>
      <cc:license
         rdf:resource="https://creativecommons.org/licenses/by-nc-nd/4.0/deed.en" />
      <dc:publisher>
        <cc:Agent>
          <dc:title>m0dw3rks.com</dc:title>
        </cc:Agent>
      </dc:publisher>
    </cc:Work>
  </rdf:RDF>
</metadata>
<metadata
   id="metadata5">
  <rdf:RDF>
    <cc:Work
       rdf:about="">
      <dc:creator>
        <cc:Agent>
          <dc:title>Jess Tipton</dc:title>
        </cc:Agent>
      </dc:creator>
      <cc:license
         rdf:resource="https://creativecommons.org/licenses/by-nc-nd/4.0/deed.en" />
      <dc:publisher>
        <cc:Agent>
          <dc:title>m0dw3rks.com</dc:title>
        </cc:Agent>
      </dc:publisher>
    </cc:Work>
  </rdf:RDF>
</metadata>
<metadata
   id="metadata7">
  <rdf:RDF>
    <cc:Work
       rdf:about="">
      <dc:creator>
        <cc:Agent>
          <dc:title>Jess Tipton</dc:title>
        </cc:Agent>
      </dc:creator>
      <cc:license
         rdf:resource="https://creativecommons.org/licenses/by-nc-nd/4.0/deed.en" />
      <dc:publisher>
        <cc:Agent>
          <dc:title>m0dw3rks.com</dc:title>
        </cc:Agent>
      </dc:publisher>
    </cc:Work>
  </rdf:RDF>
</metadata>
<metadata
   id="metadata8">
  <rdf:RDF>
    <cc:Work
       rdf:about="">
      <dc:creator>
        <cc:Agent>
          <dc:title>Jess Tipton</dc:title>
        </cc:Agent>
      </dc:creator>
      <cc:license
         rdf:resource="https://creativecommons.org/licenses/by-nc-nd/4.0/deed.en" />
      <dc:publisher>
        <cc:Agent>
          <dc:title>m0dw3rks.com</dc:title>
        </cc:Agent>
      </dc:publisher>
    </cc:Work>
  </rdf:RDF>
</metadata>
<metadata
   id="metadata9">
  <rdf:RDF>
    <cc:Work
       rdf:about="">
      <dc:creator>
        <cc:Agent>
          <dc:title>Jess Tipton</dc:title>
        </cc:Agent>
      </dc:creator>
      <cc:license
         rdf:resource="https://creativecommons.org/licenses/by-nc-nd/4.0/deed.en" />
      <dc:publisher>
        <cc:Agent>
          <dc:title>m0dw3rks.com</dc:title>
        </cc:Agent>
      </dc:publisher>
    </cc:Work>
  </rdf:RDF>
</metadata>
<metadata
   id="metadata10">
  <rdf:RDF>
    <cc:Work
       rdf:about="">
      <dc:creator>
        <cc:Agent>
          <dc:title>Jess Tipton</dc:title>
        </cc:Agent>
      </dc:creator>
      <cc:license
         rdf:resource="https://creativecommons.org/licenses/by-nc-nd/4.0/deed.en" />
      <dc:publisher>
        <cc:Agent>
          <dc:title>m0dw3rks.com</dc:title>
        </cc:Agent>
      </dc:publisher>
    </cc:Work>
  </rdf:RDF>
</metadata>
<metadata
   id="metadata11">
  <rdf:RDF>
    <cc:Work
       rdf:about="">
      <dc:creator>
        <cc:Agent>
          <dc:title>Jess Tipton</dc:title>
        </cc:Agent>
      </dc:creator>
      <cc:license
         rdf:resource="https://creativecommons.org/licenses/by-nc-nd/4.0/deed.en" />
      <dc:publisher>
        <cc:Agent>
          <dc:title>m0dw3rks.com</dc:title>
        </cc:Agent>
      </dc:publisher>
    </cc:Work>
  </rdf:RDF>
</metadata>
<metadata
   id="metadata12">
  <rdf:RDF>
    <cc:Work
       rdf:about="">
      <dc:creator>
        <cc:Agent>
          <dc:title>Jess Tipton</dc:title>
        </cc:Agent>
      </dc:creator>
      <cc:license
         rdf:resource="https://creativecommons.org/licenses/by-nc-nd/4.0/deed.en" />
      <dc:publisher>
        <cc:Agent>
          <dc:title>m0dw3rks.com</dc:title>
        </cc:Agent>
      </dc:publisher>
    </cc:Work>
  </rdf:RDF>
</metadata>
<metadata
   id="metadata13">
  <rdf:RDF>
    <cc:Work
       rdf:about="">
      <dc:creator>
        <cc:Agent>
          <dc:title>Jess Tipton</dc:title>
        </cc:Agent>
      </dc:creator>
      <cc:license
         rdf:resource="https://creativecommons.org/licenses/by-nc-nd/4.0/deed.en" />
      <dc:publisher>
        <cc:Agent>
          <dc:title>m0dw3rks.com</dc:title>
        </cc:Agent>
      </dc:publisher>
    </cc:Work>
  </rdf:RDF>
</metadata>
<metadata
   id="metadata14">
  <rdf:RDF>
    <cc:Work
       rdf:about="">
      <dc:creator>
        <cc:Agent>
          <dc:title>Jess Tipton</dc:title>
        </cc:Agent>
      </dc:creator>
      <cc:license
         rdf:resource="https://creativecommons.org/licenses/by-nc-nd/4.0/deed.en" />
      <dc:publisher>
        <cc:Agent>
          <dc:title>m0dw3rks.com</dc:title>
        </cc:Agent>
      </dc:publisher>
    </cc:Work>
  </rdf:RDF>
</metadata>
<metadata
   id="metadata15">
  <rdf:RDF>
    <cc:Work
       rdf:about="">
      <dc:creator>
        <cc:Agent>
          <dc:title>Jess Tipton</dc:title>
        </cc:Agent>
      </dc:creator>
      <cc:license
         rdf:resource="https://creativecommons.org/licenses/by-nc-nd/4.0/deed.en" />
      <dc:publisher>
        <cc:Agent>
          <dc:title>m0dw3rks.com</dc:title>
        </cc:Agent>
      </dc:publisher>
    </cc:Work>
  </rdf:RDF>
</metadata>
<metadata
   id="metadata16">
  <rdf:RDF>
    <cc:Work
       rdf:about="">
      <dc:creator>
        <cc:Agent>
          <dc:title>Jess Tipton</dc:title>
        </cc:Agent>
      </dc:creator>
      <cc:license
         rdf:resource="https://creativecommons.org/licenses/by-nc-nd/4.0/deed.en" />
      <dc:publisher>
        <cc:Agent>
          <dc:title>m0dw3rks.com</dc:title>
        </cc:Agent>
      </dc:publisher>
    </cc:Work>
  </rdf:RDF>
</metadata>
<metadata
   id="metadata17">
  <rdf:RDF>
    <cc:Work
       rdf:about="">
      <dc:creator>
        <cc:Agent>
          <dc:title>Jess Tipton</dc:title>
        </cc:Agent>
      </dc:creator>
      <cc:license
         rdf:resource="https://creativecommons.org/licenses/by-nc-nd/4.0/deed.en" />
      <dc:publisher>
        <cc:Agent>
          <dc:title>m0dw3rks.com</dc:title>
        </cc:Agent>
      </dc:publisher>
    </cc:Work>
  </rdf:RDF>
</metadata>
<metadata
   id="metadata18">
  <rdf:RDF>
    <cc:Work
       rdf:about="">
      <dc:creator>
        <cc:Agent>
          <dc:title>Jess Tipton</dc:title>
        </cc:Agent>
      </dc:creator>
      <cc:license
         rdf:resource="https://creativecommons.org/licenses/by-nc-nd/4.0/deed.en" />
      <dc:publisher>
        <cc:Agent>
          <dc:title>m0dw3rks.com</dc:title>
        </cc:Agent>
      </dc:publisher>
    </cc:Work>
  </rdf:RDF>
</metadata>
</svg>
