<?xml version="1.0" encoding="UTF-8" standalone="no"?>
<!-- Created with Inkscape (http://www.inkscape.org/) -->

<svg
   width="512"
   height="512"
   viewBox="0 0 135.46666 135.46667"
   version="1.1"
   id="svg5"
   inkscape:version="1.3.2 (091e20ef0f, 2023-11-25, custom)"
   sodipodi:docname="qmmp.svg"
   xmlns:inkscape="http://www.inkscape.org/namespaces/inkscape"
   xmlns:sodipodi="http://sodipodi.sourceforge.net/DTD/sodipodi-0.dtd"
   xmlns:xlink="http://www.w3.org/1999/xlink"
   xmlns="http://www.w3.org/2000/svg"
   xmlns:svg="http://www.w3.org/2000/svg"
   xmlns:rdf="http://www.w3.org/1999/02/22-rdf-syntax-ns#"
   xmlns:cc="http://creativecommons.org/ns#"
   xmlns:dc="http://purl.org/dc/elements/1.1/">&gt;
  <sodipodi:namedview
   id="namedview7"
   pagecolor="#505050"
   bordercolor="#ffffff"
   borderopacity="1"
   inkscape:showpageshadow="0"
   inkscape:pageopacity="0"
   inkscape:pagecheckerboard="1"
   inkscape:deskcolor="#505050"
   inkscape:document-units="mm"
   showgrid="false"
   inkscape:zoom="1.4142136"
   inkscape:cx="226.62771"
   inkscape:cy="164.04876"
   inkscape:window-width="3256"
   inkscape:window-height="1080"
   inkscape:window-x="1864"
   inkscape:window-y="0"
   inkscape:window-maximized="0"
   inkscape:current-layer="g23" />
<defs
   id="defs2">
  <linearGradient
     id="linearGradient14"
     inkscape:collect="always">
    <stop
       style="stop-color:#3d2847;stop-opacity:1;"
       offset="0.39944169"
       id="stop14" />
    <stop
       style="stop-color:#ff0000;stop-opacity:0.5;"
       offset="1"
       id="stop13" />
  </linearGradient>
  <linearGradient
     id="linearGradient11"
     inkscape:collect="always">
    <stop
       style="stop-color:#ff6600;stop-opacity:1;"
       offset="0"
       id="stop11" />
    <stop
       style="stop-color:#00bbff;stop-opacity:1;"
       offset="0.50216362"
       id="stop10" />
    <stop
       style="stop-color:#3d2847;stop-opacity:1;"
       offset="1"
       id="stop9" />
  </linearGradient>
  <linearGradient
     id="linearGradient113"
     inkscape:collect="always">
    <stop
       style="stop-color:#757575;stop-opacity:1;"
       offset="0"
       id="stop113" />
    <stop
       style="stop-color:#d7c471;stop-opacity:0;"
       offset="1"
       id="stop114" />
  </linearGradient>
  <linearGradient
     id="linearGradient58"
     inkscape:collect="always">
    <stop
       style="stop-color:#a34740;stop-opacity:1;"
       offset="0"
       id="stop58" />
    <stop
       style="stop-color:#896c5a;stop-opacity:1;"
       offset="0.40000001"
       id="stop61" />
    <stop
       style="stop-color:#adad9c;stop-opacity:1;"
       offset="0.5"
       id="stop60" />
    <stop
       style="stop-color:#896c5a;stop-opacity:1;"
       offset="0.60000002"
       id="stop62" />
    <stop
       style="stop-color:#a34740;stop-opacity:1;"
       offset="0.99678218"
       id="stop59" />
  </linearGradient>
  <linearGradient
     id="linearGradient40"
     inkscape:collect="always">
    <stop
       style="stop-color:#ff0000;stop-opacity:0.5;"
       offset="0"
       id="stop41" />
    <stop
       style="stop-color:#3d2847;stop-opacity:1;"
       offset="0.4978053"
       id="stop40" />
  </linearGradient>
  <linearGradient
     id="linearGradient38"
     inkscape:collect="always">
    <stop
       style="stop-color:#3d2847;stop-opacity:1;"
       offset="0"
       id="stop38" />
    <stop
       style="stop-color:#00bbff;stop-opacity:1;"
       offset="0.49783638"
       id="stop37" />
    <stop
       style="stop-color:#ff6600;stop-opacity:1;"
       offset="1"
       id="stop8" />
  </linearGradient>
  <linearGradient
     id="linearGradient31"
     inkscape:collect="always">
    <stop
       style="stop-color:#ffffff;stop-opacity:1;"
       offset="0"
       id="stop31" />
    <stop
       style="stop-color:#919191;stop-opacity:1;"
       offset="1"
       id="stop30" />
  </linearGradient>
  <linearGradient
     id="linearGradient29"
     inkscape:collect="always">
    <stop
       style="stop-color:#919191;stop-opacity:1;"
       offset="0"
       id="stop29" />
    <stop
       style="stop-color:#ffffff;stop-opacity:1;"
       offset="1"
       id="stop28" />
  </linearGradient>
  <linearGradient
     id="linearGradient26"
     inkscape:collect="always">
    <stop
       style="stop-color:#ffffff;stop-opacity:1;"
       offset="0"
       id="stop26" />
    <stop
       style="stop-color:#919191;stop-opacity:1;"
       offset="1"
       id="stop25" />
  </linearGradient>
  <linearGradient
     id="linearGradient23"
     inkscape:collect="always">
    <stop
       style="stop-color:#919191;stop-opacity:1;"
       offset="0"
       id="stop23" />
    <stop
       style="stop-color:#ffffff;stop-opacity:1;"
       offset="1"
       id="stop24" />
  </linearGradient>
  <linearGradient
     inkscape:collect="always"
     id="linearGradient2980">
    <stop
       style="stop-color:#bc00ff;stop-opacity:1;"
       offset="0"
       id="stop2976" />
    <stop
       style="stop-color:#ffff00;stop-opacity:1;"
       offset="0.5"
       id="stop2984" />
    <stop
       style="stop-color:#0000ff;stop-opacity:1;"
       offset="1"
       id="stop2978" />
  </linearGradient>
  <linearGradient
     inkscape:collect="always"
     id="linearGradient2964">
    <stop
       style="stop-color:#9600ff;stop-opacity:1;"
       offset="0"
       id="stop2960" />
    <stop
       style="stop-color:#ffff00;stop-opacity:0.99998879;"
       offset="0.30000001"
       id="stop2968" />
    <stop
       style="stop-color:#ff5800;stop-opacity:0.99998879;"
       offset="0.69999999"
       id="stop2970" />
    <stop
       style="stop-color:#00ff00;stop-opacity:0.99998879;"
       offset="1"
       id="stop2962" />
  </linearGradient>
  <linearGradient
     inkscape:collect="always"
     id="linearGradient2952">
    <stop
       style="stop-color:#0000ff;stop-opacity:1;"
       offset="0"
       id="stop2948" />
    <stop
       style="stop-color:#ffff00;stop-opacity:1;"
       offset="0.5"
       id="stop2954" />
    <stop
       style="stop-color:#ff0000;stop-opacity:1;"
       offset="1"
       id="stop2950" />
  </linearGradient>
  <linearGradient
     inkscape:collect="always"
     id="linearGradient4127">
    <stop
       style="stop-color:#580094;stop-opacity:1;"
       offset="0"
       id="stop4125" />
    <stop
       style="stop-color:#ffff00;stop-opacity:1;"
       offset="0.19999999"
       id="stop4123" />
    <stop
       style="stop-color:#00ff08;stop-opacity:1;"
       offset="0.5"
       id="stop4121" />
    <stop
       style="stop-color:#ff0000;stop-opacity:1;"
       offset="0.8"
       id="stop4119" />
    <stop
       style="stop-color:#00a2ff;stop-opacity:1;"
       offset="1"
       id="stop4117" />
  </linearGradient>
  <linearGradient
     inkscape:collect="always"
     id="linearGradient3837">
    <stop
       style="stop-color:#00a2ff;stop-opacity:1;"
       offset="0"
       id="stop3833" />
    <stop
       style="stop-color:#ff0000;stop-opacity:1;"
       offset="0.2"
       id="stop3839" />
    <stop
       style="stop-color:#00ff08;stop-opacity:1;"
       offset="0.5"
       id="stop3841" />
    <stop
       style="stop-color:#ffff00;stop-opacity:1;"
       offset="0.80000001"
       id="stop3843" />
    <stop
       style="stop-color:#580094;stop-opacity:1;"
       offset="1"
       id="stop3845" />
  </linearGradient>
  <linearGradient
     inkscape:collect="always"
     id="linearGradient25360">
    <stop
       style="stop-color:#ffffff;stop-opacity:1;"
       offset="0"
       id="stop25356" />
    <stop
       style="stop-color:#ffffff;stop-opacity:0;"
       offset="0.5"
       id="stop25366" />
    <stop
       style="stop-color:#ffffff;stop-opacity:1;"
       offset="1"
       id="stop25358" />
  </linearGradient>
  <linearGradient
     inkscape:collect="always"
     id="linearGradient25311">
    <stop
       style="stop-color:#ffffff;stop-opacity:0;"
       offset="0"
       id="stop25309" />
    <stop
       style="stop-color:#ffffff;stop-opacity:1;"
       offset="1"
       id="stop25307" />
  </linearGradient>
  <linearGradient
     inkscape:collect="always"
     id="linearGradient25303">
    <stop
       style="stop-color:#ffffff;stop-opacity:1;"
       offset="0"
       id="stop25299" />
    <stop
       style="stop-color:#ffffff;stop-opacity:0;"
       offset="1"
       id="stop25301" />
  </linearGradient>
  <linearGradient
     inkscape:collect="always"
     id="linearGradient24528">
    <stop
       style="stop-color:#ffffff;stop-opacity:0;"
       offset="0"
       id="stop24526" />
    <stop
       style="stop-color:#ffffff;stop-opacity:1;"
       offset="1"
       id="stop24524" />
  </linearGradient>
  <linearGradient
     inkscape:collect="always"
     id="linearGradient23780">
    <stop
       style="stop-color:#ffffff;stop-opacity:1;"
       offset="0"
       id="stop23776" />
    <stop
       style="stop-color:#ffffff;stop-opacity:0;"
       offset="1"
       id="stop23778" />
  </linearGradient>
  <linearGradient
     inkscape:collect="always"
     id="linearGradient13435">
    <stop
       style="stop-color:#292929;stop-opacity:1;"
       offset="0"
       id="stop13433" />
    <stop
       style="stop-color:#1f1f1f;stop-opacity:1;"
       offset="1"
       id="stop13431" />
  </linearGradient>
  <clipPath
     clipPathUnits="userSpaceOnUse"
     id="clipPath8211">
    <rect
       style="font-variation-settings:'wght' 400;fill:#000000;fill-opacity:1;stroke-width:2.56065;stroke-linecap:round;stroke-linejoin:round;paint-order:stroke fill markers"
       id="rect8213"
       width="135.46666"
       height="135.46666"
       x="166.47066"
       y="-14.361695"
       ry="12.0545" />
  </clipPath>
  <clipPath
     clipPathUnits="userSpaceOnUse"
     id="clipPath8211-7">
    <rect
       style="font-variation-settings:'wght' 400;fill:#000000;fill-opacity:1;stroke-width:2.56065;stroke-linecap:round;stroke-linejoin:round;paint-order:stroke fill markers"
       id="rect8213-7"
       width="135.46666"
       height="135.46666"
       x="166.47066"
       y="-14.361695"
       ry="12.0545" />
  </clipPath>
  <clipPath
     clipPathUnits="userSpaceOnUse"
     id="clipPath13392">
    <path
       style="color:#000000;fill:#000000;stroke-width:4;stroke-linecap:round;stroke-linejoin:round;paint-order:stroke fill markers"
       d="m -129.05445,-21.018303 h 111.357662 c 6.678193,0 12.0544997,5.376307 12.0544997,12.0544996 V 102.39386 c 0,6.67819 -5.3763067,12.0545 -12.0544997,12.0545 H -129.05445 c -6.67819,0 -12.0545,-5.37631 -12.0545,-12.0545 V -8.9638034 c 0,-6.6781926 5.37631,-12.0544996 12.0545,-12.0544996 z"
       id="path13394" />
  </clipPath>
  <clipPath
     clipPathUnits="userSpaceOnUse"
     id="clipPath8211-4">
    <rect
       style="font-variation-settings:'wght' 400;fill:#000000;fill-opacity:1;stroke-width:2.56065;stroke-linecap:round;stroke-linejoin:round;paint-order:stroke fill markers"
       id="rect8213-8"
       width="135.46666"
       height="135.46666"
       x="166.47066"
       y="-14.361695"
       ry="12.0545" />
  </clipPath>
  <clipPath
     clipPathUnits="userSpaceOnUse"
     id="clipPath52412">
    <rect
       style="font-variation-settings:'wght' 400;display:inline;fill:url(#radialGradient52416);fill-opacity:1;stroke-width:2.56065;stroke-linecap:round;stroke-linejoin:round;paint-order:stroke fill markers"
       id="rect52414"
       width="135.46666"
       height="135.46666"
       x="-161.44014"
       y="-62.493698"
       ry="12.0545" />
  </clipPath>
  <radialGradient
     inkscape:collect="always"
     xlink:href="#linearGradient13435"
     id="radialGradient52416"
     gradientUnits="userSpaceOnUse"
     gradientTransform="translate(-161.44015,-62.493702)"
     cx="67.73333"
     cy="67.73333"
     fx="67.73333"
     fy="67.73333"
     r="67.73333" />
  <linearGradient
     inkscape:collect="always"
     xlink:href="#linearGradient23780"
     id="linearGradient23782"
     x1="-146.27749"
     y1="132.07942"
     x2="-2.5333245"
     y2="132.07942"
     gradientUnits="userSpaceOnUse" />
  <linearGradient
     inkscape:collect="always"
     xlink:href="#linearGradient25303"
     id="linearGradient25305"
     x1="-162.04016"
     y1="26.563983"
     x2="-4.5790487"
     y2="26.563983"
     gradientUnits="userSpaceOnUse"
     gradientTransform="matrix(0.42118313,0,0,0.42118313,68.246992,39.09519)" />
  <linearGradient
     inkscape:collect="always"
     xlink:href="#linearGradient25311"
     id="linearGradient25313"
     x1="2.13992"
     y1="26.561925"
     x2="159.60103"
     y2="26.561925"
     gradientUnits="userSpaceOnUse"
     gradientTransform="matrix(0.42118313,0,0,0.42118313,68.246992,39.09519)" />
  <linearGradient
     inkscape:collect="always"
     xlink:href="#linearGradient25360"
     id="linearGradient25364"
     x1="-41.086823"
     y1="58.434147"
     x2="38.645111"
     y2="58.434147"
     gradientUnits="userSpaceOnUse"
     gradientTransform="matrix(0.42118313,0,0,0.42118313,68.246992,39.09519)" />
  <linearGradient
     inkscape:collect="always"
     xlink:href="#linearGradient24528"
     id="linearGradient26175"
     gradientUnits="userSpaceOnUse"
     x1="2.0985567"
     y1="132.07759"
     x2="141.83832"
     y2="132.07759"
     gradientTransform="matrix(-0.42118313,0,0,0.42118313,67.219672,39.096061)" />
  <linearGradient
     inkscape:collect="always"
     xlink:href="#linearGradient24528"
     id="linearGradient2927"
     gradientUnits="userSpaceOnUse"
     gradientTransform="matrix(0.42118313,0,0,0.42118313,68.24699,39.095191)"
     x1="2.0985567"
     y1="132.07759"
     x2="141.83832"
     y2="132.07759" />
  <radialGradient
     inkscape:collect="always"
     xlink:href="#linearGradient3837"
     id="radialGradient3831"
     cx="209.81459"
     cy="97.102074"
     fx="209.81459"
     fy="97.102074"
     r="67.734756"
     gradientTransform="matrix(1,0,0,0.66066887,-142.08125,6.2268355)"
     gradientUnits="userSpaceOnUse"
     spreadMethod="reflect" />
  <radialGradient
     inkscape:collect="always"
     xlink:href="#linearGradient4127"
     id="radialGradient3831-6"
     cx="209.81459"
     cy="97.102074"
     fx="209.81459"
     fy="97.102074"
     r="67.734756"
     gradientTransform="matrix(1,0,0,0.66066887,-142.08125,6.226828)"
     gradientUnits="userSpaceOnUse"
     spreadMethod="reflect" />
  <radialGradient
     inkscape:collect="always"
     xlink:href="#linearGradient2952"
     id="radialGradient2946"
     cx="33.15839"
     cy="50.283493"
     fx="33.15839"
     fy="50.283493"
     r="33.159985"
     gradientTransform="matrix(1,0,0,0.68930182,0,15.62299)"
     gradientUnits="userSpaceOnUse" />
  <radialGradient
     inkscape:collect="always"
     xlink:href="#linearGradient2952"
     id="radialGradient2958"
     cx="102.30828"
     cy="50.282619"
     fx="102.30828"
     fy="50.282619"
     r="33.159985"
     gradientTransform="matrix(1,0,0,0.68930154,0,15.622733)"
     gradientUnits="userSpaceOnUse" />
  <radialGradient
     inkscape:collect="always"
     xlink:href="#linearGradient2964"
     id="radialGradient2966"
     cx="96.339695"
     cy="88.122203"
     fx="96.339695"
     fy="88.122203"
     r="27.208828"
     gradientTransform="matrix(1,0,0,0.9921547,0,0.69134536)"
     gradientUnits="userSpaceOnUse" />
  <radialGradient
     inkscape:collect="always"
     xlink:href="#linearGradient2964"
     id="radialGradient2972"
     cx="39.126965"
     cy="88.123077"
     fx="39.126965"
     fy="88.123077"
     r="27.20883"
     gradientTransform="matrix(1,0,0,0.99215464,0,0.6913576)"
     gradientUnits="userSpaceOnUse" />
  <radialGradient
     inkscape:collect="always"
     xlink:href="#linearGradient2980"
     id="radialGradient2982"
     cx="67.732788"
     cy="63.706665"
     fx="67.732788"
     fy="63.706665"
     r="16.790873"
     gradientTransform="matrix(1,0,0,2.2684064,0,-80.805942)"
     gradientUnits="userSpaceOnUse" />
  <linearGradient
     inkscape:collect="always"
     xlink:href="#linearGradient23"
     id="linearGradient24"
     x1="69.14829"
     y1="50.282621"
     x2="135.46826"
     y2="50.282621"
     gradientUnits="userSpaceOnUse"
     gradientTransform="matrix(0.99607032,0,0,0.99607032,0.2661689,-2.3639105)" />
  <linearGradient
     inkscape:collect="always"
     xlink:href="#linearGradient26"
     id="linearGradient27"
     x1="-0.0015918355"
     y1="50.283493"
     x2="66.318375"
     y2="50.283493"
     gradientUnits="userSpaceOnUse"
     gradientTransform="matrix(0.99607032,0,0,0.99607032,0.2661689,-2.3639105)" />
  <linearGradient
     inkscape:collect="always"
     xlink:href="#linearGradient29"
     id="linearGradient28"
     x1="123.54852"
     y1="115.11757"
     x2="69.148232"
     y2="61.137886"
     gradientUnits="userSpaceOnUse"
     gradientTransform="matrix(0.99607032,0,0,0.99607032,0.2661689,-2.3639105)" />
  <linearGradient
     inkscape:collect="always"
     xlink:href="#linearGradient31"
     id="linearGradient30"
     x1="66.318428"
     y1="61.138386"
     x2="11.918137"
     y2="115.11844"
     gradientUnits="userSpaceOnUse"
     gradientTransform="matrix(0.99607032,0,0,0.99607032,0.2661689,-2.3639105)" />
  <linearGradient
     inkscape:collect="always"
     xlink:href="#linearGradient11"
     id="linearGradient35"
     x1="0.26458332"
     y1="24.960049"
     x2="66.097023"
     y2="70.182091"
     gradientUnits="userSpaceOnUse" />
  <linearGradient
     inkscape:collect="always"
     xlink:href="#linearGradient38"
     id="linearGradient37"
     x1="69.369637"
     y1="70.181221"
     x2="135.20209"
     y2="24.959187"
     gradientUnits="userSpaceOnUse" />
  <linearGradient
     inkscape:collect="always"
     xlink:href="#linearGradient40"
     id="linearGradient41"
     x1="68.860221"
     y1="85.412051"
     x2="123.59397"
     y2="85.412051"
     gradientUnits="userSpaceOnUse" />
  <linearGradient
     inkscape:collect="always"
     xlink:href="#linearGradient14"
     id="linearGradient43"
     x1="11.872683"
     y1="85.412918"
     x2="66.606438"
     y2="85.412918"
     gradientUnits="userSpaceOnUse" />
  <radialGradient
     inkscape:collect="always"
     xlink:href="#linearGradient2952"
     id="radialGradient54"
     gradientUnits="userSpaceOnUse"
     gradientTransform="matrix(1,0,0,0.68930182,0,15.62299)"
     cx="33.15839"
     cy="50.283493"
     fx="33.15839"
     fy="50.283493"
     r="33.159985" />
  <radialGradient
     inkscape:collect="always"
     xlink:href="#linearGradient2952"
     id="radialGradient55"
     gradientUnits="userSpaceOnUse"
     gradientTransform="matrix(1,0,0,0.68930154,0,15.622733)"
     cx="102.30828"
     cy="50.282619"
     fx="102.30828"
     fy="50.282619"
     r="33.159985" />
  <radialGradient
     inkscape:collect="always"
     xlink:href="#linearGradient2964"
     id="radialGradient56"
     gradientUnits="userSpaceOnUse"
     gradientTransform="matrix(1,0,0,0.99215464,0,0.6913576)"
     cx="39.126965"
     cy="88.123077"
     fx="39.126965"
     fy="88.123077"
     r="27.20883" />
  <radialGradient
     inkscape:collect="always"
     xlink:href="#linearGradient2964"
     id="radialGradient57"
     gradientUnits="userSpaceOnUse"
     gradientTransform="matrix(1,0,0,0.9921547,0,0.69134536)"
     cx="96.339695"
     cy="88.122203"
     fx="96.339695"
     fy="88.122203"
     r="27.208828" />
  <radialGradient
     inkscape:collect="always"
     xlink:href="#linearGradient2980"
     id="radialGradient58"
     gradientUnits="userSpaceOnUse"
     gradientTransform="matrix(1,0,0,2.2684064,0,-80.805942)"
     cx="67.732788"
     cy="63.706665"
     fx="67.732788"
     fy="63.706665"
     r="16.790873" />
  <linearGradient
     inkscape:collect="always"
     xlink:href="#linearGradient58"
     id="linearGradient59"
     x1="50.742768"
     y1="61.092405"
     x2="84.722809"
     y2="61.092405"
     gradientUnits="userSpaceOnUse" />
  <filter
     inkscape:collect="always"
     style="color-interpolation-filters:sRGB"
     id="filter64"
     x="-0.47659554"
     y="-0.030924284"
     width="1.9531911"
     height="1.0618486">
    <feGaussianBlur
       inkscape:collect="always"
       stdDeviation="0.6583929"
       id="feGaussianBlur64" />
  </filter>
  <clipPath
     clipPathUnits="userSpaceOnUse"
     id="clipPath97">
    <path
       style="color:#000000;opacity:0.6;fill:#ccff00;stroke-width:0.999998;stroke-linecap:round;stroke-linejoin:round;-inkscape-stroke:none;paint-order:stroke fill markers"
       d="m -42.997374,-19.345589 c -7.806703,0.131545 -16.840779,2.466209 -23.110219,7.428487 -12.716616,10.0651985 -18.058508,23.558437 -26.947191,26.134322 0,0 -0.214302,11.157351 0.862478,18.300691 1.07678,7.143353 8.960938,14.771584 14.455966,20.522263 5.495025,5.750669 11.716536,14.955676 26.95081,14.955676 15.234285,0 15.15401,-19.39377 3.783232,-35.917187 -1.955607,-2.841787 -3.860916,-4.750054 -5.974831,-6.048211 13.315566,-1.270581 14.624145,-10.607025 17.736386,-22.9298661 1.145479,-5.3906336 8.09294,-8.758328 8.24394,-15.0213049 0.117975,-4.893521 -7.152976,-7.573954 -16.000571,-7.42487 z m -102.933766,5.29e-4 c -8.8476,-0.149085 -16.11855,2.531865 -16.00058,7.425386 0.151,6.2629797 7.09846,9.6301543 8.24394,15.0207888 3.11221,12.3226902 4.42077,21.6596182 17.73587,22.9303832 -2.11373,1.298153 -4.01884,3.206632 -5.97431,6.048213 -11.37078,16.523414 -11.45104,35.917184 3.78323,35.917184 15.23428,0 21.45579,-9.205005 26.95081,-14.955676 5.49504,-5.750679 13.379188,-13.37891 14.455965,-20.52226 1.076778,-7.143343 0.862481,-18.300693 0.862481,-18.300693 -8.888686,-2.575895 -14.230056,-16.0690988 -26.946676,-26.134323 -6.26944,-4.962278 -15.30403,-7.297458 -23.11073,-7.429003 z"
       id="path98" />
  </clipPath>
  <clipPath
     clipPathUnits="userSpaceOnUse"
     id="clipPath112">
    <path
       id="path113"
       style="font-variation-settings:'wght' 400;display:inline;fill:#000000;fill-opacity:1;stroke:none;stroke-width:0.264583;stroke-linecap:round;stroke-linejoin:round;stroke-dasharray:none;stroke-opacity:1;paint-order:markers stroke fill"
       d="m 178.55153,36.732165 c -1.18937,0.731393 -1.96482,2.449915 -1.9657,4.356325 7.9e-4,1.797256 0.69106,3.437895 1.78034,4.23187 -0.78816,3.989589 -1.26792,11.029953 -1.26826,18.61117 -1e-5,12.09294 1.19852,21.896311 2.67701,21.896507 1.47857,7.93e-4 2.67724,-9.802876 2.67722,-21.896507 -6e-5,-7.57977 -0.4794,-14.620137 -1.26718,-18.612035 1.08868,-0.794287 1.7784,-2.434421 1.77926,-4.231005 -1e-4,-1.90681 -0.77517,-3.6263 -1.96461,-4.358497 l -0.28336,-0.151535 c -0.30489,-0.139557 -0.6222,-0.21059 -0.94133,-0.210725 -0.31896,5.29e-4 -0.63605,0.07212 -0.94069,0.212027 z"
       sodipodi:nodetypes="ccccccccccccc" />
  </clipPath>
  <linearGradient
     inkscape:collect="always"
     xlink:href="#linearGradient113"
     id="linearGradient114"
     x1="179.77492"
     y1="85.828033"
     x2="179.77544"
     y2="34.528027"
     gradientUnits="userSpaceOnUse" />
</defs>
<g
   inkscape:label="Layer 1"
   inkscape:groupmode="layer"
   id="layer1"
   style="display:none"
   sodipodi:insensitive="true">
  <path
     id="rect10547-2"
     style="font-variation-settings:'wght' 400;display:none;fill:url(#linearGradient23782);fill-opacity:1;stroke:none;stroke-width:4;stroke-linecap:round;stroke-linejoin:round;stroke-opacity:1;paint-order:stroke fill markers"
     d="m -127.43889,211.82748 c -21.13279,1.58805 -24.59986,-88.13899 2.50392,-127.524763 13.26656,-19.278265 42.409573,-16.572011 68.276736,-16.569023 22.753911,0.0026 47.1860362,-3.135711 52.0791853,-15.422684 0,0 0.5105907,26.595079 -2.0560526,43.622194 -2.5666426,17.027116 -8.3137737,43.521456 -34.4574657,48.917876 -26.143692,5.39643 -65.213533,65.38835 -86.346323,66.9764 z"
     sodipodi:nodetypes="zssczzz"
     sodipodi:insensitive="true" />
  <path
     id="rect10547-0"
     style="font-variation-settings:'wght' 400;display:none;fill:url(#radialGradient3831);fill-opacity:1;stroke-width:1.68474;stroke-linecap:round;stroke-linejoin:round;paint-order:stroke fill markers"
     d="m 51.516238,25.628924 a 0.87128589,0.4661868 15.752755 0 0 -0.56483,0.270785 0.87128589,0.4661868 15.752755 0 0 0.7121,0.685229 0.87128589,0.4661868 15.752755 0 0 0.81184,-0.03152 c 4.62294,2.651811 7.03106,6.927615 8.83874,11.665954 1.79885,4.715229 2.99398,9.877517 5.19038,14.297319 a 3.2018467,4.7394108 0 0 0 -1.97353,4.373376 3.2018467,4.7394108 0 0 0 1.78749,4.24832 C 57.394678,58.552329 52.031568,45.006161 39.264788,34.901229 25.837228,24.273283 -0.22295217,25.649936 -2.166937e-6,34.897629 0.15158783,41.185317 7.1264878,44.565944 8.2764978,49.977846 11.399478,62.343242 12.708108,71.71679 26.057838,72.999696 c -2.11391,1.303105 -4.0169,3.227295 -5.97379,6.070945 -11.4156402,16.58861 -11.4961702,36.058799 3.79821,36.058799 15.29438,0 21.54055,-9.24123 27.05727,-15.0146 5.06731,-5.303069 12.15394,-12.196509 14.11335,-18.842259 a 2.6876167,21.982727 0 0 0 2.67994,20.533639 2.6876167,21.982727 0 0 0 2.68149,-20.532089 c 1.96034,6.64506 9.04607,13.53719 14.11283,18.839669 5.5167,5.77338 11.76289,15.01461 27.057262,15.01461 15.29439,0 15.21386,-19.470199 3.79822,-36.058799 -1.95659,-2.84322 -3.85924,-4.76734 -5.97276,-6.070432 13.34878,-1.283286 14.6574,-10.657288 17.78031,-23.022367 1.15,-5.4119 8.12491,-8.792013 8.2765,-15.0797 0.22295,-9.247673 -25.83722,-10.624843 -39.264792,0.0031 -12.76679,10.104908 -18.12989,23.651628 -27.05365,26.237675 a 3.2018467,4.7394108 0 0 0 1.78646,-4.247803 3.2018467,4.7394108 0 0 0 -1.97249,-4.37596 c 2.1957,-4.419308 3.39028,-9.580293 5.18883,-14.294735 1.80767,-4.738339 4.21633,-9.014143 8.83925,-11.665954 a 0.4661868,0.87128589 74.247245 0 0 0.81184,0.03152 0.4661868,0.87128589 74.247245 0 0 0.7121,-0.685229 0.4661868,0.87128589 74.247245 0 0 -0.56534,-0.270785 0.4661868,0.87128589 74.247245 0 0 -0.39997,0.05891 0.4661868,0.87128589 74.247245 0 0 -0.71986,0.587045 c -4.70748,2.701584 -7.16031,7.062601 -8.97878,11.829252 -1.80828,4.739925 -3.00406,9.888356 -5.17229,14.258044 a 3.2018467,4.7394108 0 0 0 -0.94516,-0.211356 3.2018467,4.7394108 0 0 0 -0.94465,0.212907 c -2.16863,-4.369961 -3.36436,-9.519217 -5.17281,-14.259595 -1.81847,-4.766651 -4.2713,-9.127667 -8.97878,-11.829252 a 0.87128589,0.4661868 15.752755 0 0 -0.71985,-0.587045 0.87128589,0.4661868 15.752755 0 0 -0.40049,-0.05891 z" />
  <path
     id="rect10547-0-9"
     style="font-variation-settings:'wght' 400;display:none;opacity:0.5;fill:url(#radialGradient3831-6);fill-opacity:1;stroke-width:1.68474;stroke-linecap:round;stroke-linejoin:round;paint-order:stroke fill markers"
     d="m 51.516241,25.628918 a 0.87128589,0.4661868 15.752755 0 0 -0.56483,0.270785 0.87128589,0.4661868 15.752755 0 0 0.7121,0.685229 0.87128589,0.4661868 15.752755 0 0 0.81184,-0.03152 c 4.62294,2.651811 7.03106,6.927615 8.83874,11.665954 1.79885,4.715229 2.99398,9.877517 5.190378,14.297319 a 3.2018467,4.7394108 0 0 0 -1.973528,4.373376 3.2018467,4.7394108 0 0 0 1.787488,4.24832 C 57.394681,58.552323 52.031571,45.006155 39.264791,34.901223 25.837231,24.273277 -0.22294917,25.64993 8.330628e-7,34.897623 0.15159083,41.185311 7.1264908,44.565938 8.2765008,49.97784 11.399481,62.343236 12.708111,71.716784 26.057841,72.99969 c -2.11391,1.303105 -4.0169,3.227295 -5.97379,6.070945 -11.4156402,16.58861 -11.4961702,36.058805 3.79821,36.058805 15.29438,0 21.54055,-9.24122 27.05727,-15.01461 5.06731,-5.303065 12.15394,-12.196505 14.113348,-18.842255 a 2.6876167,21.982727 0 0 0 2.67994,20.533645 2.6876167,21.982727 0 0 0 2.68149,-20.532095 c 1.96034,6.64506 9.04607,13.53719 14.11283,18.839665 5.5167,5.7734 11.76289,15.01462 27.057261,15.01462 15.29439,0 15.21386,-19.470205 3.79822,-36.058805 -1.95659,-2.84322 -3.85924,-4.76734 -5.97276,-6.070432 13.34878,-1.283286 14.6574,-10.657288 17.78031,-23.022367 1.15,-5.4119 8.12491,-8.792013 8.2765,-15.0797 0.22295,-9.247673 -25.83722,-10.624843 -39.264791,0.0031 -12.76679,10.104908 -18.12989,23.651628 -27.05365,26.237675 a 3.2018467,4.7394108 0 0 0 1.78646,-4.247803 3.2018467,4.7394108 0 0 0 -1.97249,-4.37596 c 2.1957,-4.419308 3.39028,-9.580293 5.18883,-14.294735 1.80767,-4.738339 4.21633,-9.014143 8.83925,-11.665954 a 0.4661868,0.87128589 74.247245 0 0 0.81184,0.03152 0.4661868,0.87128589 74.247245 0 0 0.7121,-0.685229 0.4661868,0.87128589 74.247245 0 0 -0.56534,-0.270785 0.4661868,0.87128589 74.247245 0 0 -0.39997,0.05891 0.4661868,0.87128589 74.247245 0 0 -0.71986,0.587045 c -4.70748,2.701584 -7.16031,7.062601 -8.97878,11.829252 -1.80828,4.739925 -3.00406,9.888356 -5.17229,14.258044 a 3.2018467,4.7394108 0 0 0 -0.94516,-0.211356 3.2018467,4.7394108 0 0 0 -0.94465,0.212907 c -2.168628,-4.369961 -3.364358,-9.519217 -5.172808,-14.259595 -1.81847,-4.766651 -4.2713,-9.127667 -8.97878,-11.829252 a 0.87128589,0.4661868 15.752755 0 0 -0.71985,-0.587045 0.87128589,0.4661868 15.752755 0 0 -0.40049,-0.05891 z" />
</g>
<g
   inkscape:groupmode="layer"
   id="g2218"
   inkscape:label="pieces"
   style="display:none;opacity:0.28"
   sodipodi:insensitive="true">
  <path
     id="path2208"
     style="font-variation-settings:'wght' 400;display:inline;fill:url(#radialGradient2946);fill-opacity:1;stroke-width:1.68474;stroke-linecap:round;stroke-linejoin:round;paint-order:stroke fill markers"
     d="M -1.7043033e-4,34.886853 C -0.22312372,25.639169 25.837447,24.262197 39.265022,34.890137 52.031825,44.99508 57.394613,58.541647 66.318374,61.127707 65.217233,72.079827 37.478234,73.006977 30.226763,73.132237 12.938803,73.473127 11.697845,63.514617 8.2762676,49.966975 7.126265,44.555068 0.15141759,41.174542 -1.7043033e-4,34.886848 Z"
     sodipodi:nodetypes="sscccss" />
  <path
     id="path2210"
     style="font-variation-settings:'wght' 400;display:inline;fill:url(#radialGradient2958);fill-opacity:1;stroke-width:1.68474;stroke-linecap:round;stroke-linejoin:round;paint-order:stroke fill markers"
     d="m 135.46684,34.885985 c 0.22295,-9.247683 -25.83762,-10.624655 -39.265203,0.0033 -12.766798,10.104918 -18.129588,23.651492 -27.053347,26.237542 1.101141,10.95212 28.840142,11.87927 36.09161,12.00453 17.28797,0.34089 18.52892,-9.61762 21.9505,-23.16526 1.15,-5.411906 8.12485,-8.792432 8.27644,-15.080125 z"
     sodipodi:nodetypes="sscccss" />
  <path
     id="path2212"
     style="font-variation-settings:'wght' 400;display:inline;fill:url(#radialGradient2972);fill-opacity:1;stroke-width:1.68474;stroke-linecap:round;stroke-linejoin:round;paint-order:stroke fill markers"
     d="m 23.882157,115.11844 c -15.2943933,0 -15.2138016,-19.470223 -3.798147,-36.058843 5.587656,-8.11968 10.730167,-8.76286 21.624977,-8.7616 9.583565,8.5e-4 22.548474,-3.99522 24.609387,-9.17029 0,0 0.215052,11.2014 -0.865974,18.37293 -1.081026,7.17154 -8.996193,14.83002 -14.512905,20.603393 -5.516711,5.77336 -11.762944,15.01441 -27.057338,15.01441 z"
     sodipodi:nodetypes="zssczzz" />
  <path
     id="path2214"
     style="font-variation-settings:'wght' 400;display:inline;fill:url(#radialGradient2966);fill-opacity:1;stroke-width:1.68474;stroke-linecap:round;stroke-linejoin:round;paint-order:stroke fill markers"
     d="m 111.5845,115.11757 c 15.2944,0 15.2138,-19.470221 3.79815,-36.058843 -5.58765,-8.11968 -10.73017,-8.76286 -21.624976,-8.7616 -9.583565,8.5e-4 -22.548474,-3.99522 -24.609384,-9.17029 0,0 -0.21506,11.2014 0.86597,18.37293 1.08103,7.17154 8.996194,14.830022 14.512906,20.603393 5.516711,5.77336 11.762944,15.01441 27.057334,15.01441 z"
     sodipodi:nodetypes="zssczzz" />
  <path
     id="path2216"
     style="font-variation-settings:'wght' 400;display:inline;fill:url(#radialGradient2982);fill-opacity:1;stroke:none;stroke-width:1.68474;stroke-linecap:round;stroke-linejoin:round;stroke-opacity:1;paint-order:stroke fill markers"
     d="m 51.516486,25.618153 a 0.87128589,0.4661868 15.752755 0 0 -0.565026,0.270542 0.87128589,0.4661868 15.752755 0 0 0.711941,0.685388 0.87128589,0.4661868 15.752755 0 0 0.811844,-0.03156 c 4.622935,2.651814 7.03141,6.92739 8.839083,11.665734 1.798854,4.715233 2.99374,9.877565 5.190139,14.297371 a 3.2018467,4.7394108 0 0 0 -1.973455,4.373509 3.2018467,4.7394108 0 0 0 1.787362,4.24857 2.6876167,21.982727 0 0 0 -1.273267,18.68459 2.6876167,21.982727 0 0 0 2.687572,21.982893 2.6876167,21.982727 0 0 0 2.68779,-21.982893 2.6876167,21.982727 0 0 0 -1.272179,-18.68546 3.2018467,4.7394108 0 0 0 1.786274,-4.2477 3.2018467,4.7394108 0 0 0 -1.972367,-4.37569 c 2.195698,-4.419312 3.390498,-9.580744 5.189052,-14.29519 1.807671,-4.738344 4.216147,-9.01392 8.839083,-11.665734 a 0.4661868,0.87128589 74.247245 0 0 0.811843,0.03156 0.4661868,0.87128589 74.247245 0 0 0.711941,-0.685388 0.4661868,0.87128589 74.247245 0 0 -0.565026,-0.270542 0.4661868,0.87128589 74.247245 0 0 -0.400045,0.05855 0.4661868,0.87128589 74.247245 0 0 -0.719994,0.587227 c -4.707487,2.701587 -7.160344,7.062535 -8.978815,11.829191 -1.808277,4.73993 -3.004279,9.888497 -5.17251,14.25819 a 3.2018467,4.7394108 0 0 0 -0.945047,-0.211557 3.2018467,4.7394108 0 0 0 -0.944393,0.212864 C 64.619662,47.982653 63.42379,42.833502 61.61534,38.093119 59.796868,33.326463 57.344012,28.965516 52.636526,26.263928 a 0.87128589,0.4661868 15.752755 0 0 -0.719995,-0.587226 0.87128589,0.4661868 15.752755 0 0 -0.400045,-0.05855 z" />
</g>
<g
   inkscape:groupmode="layer"
   id="layer2"
   inkscape:label="pieces white-grad"
   style="display:none;opacity:0.48;mix-blend-mode:normal"
   sodipodi:insensitive="true">
  <path
     id="rect10547"
     style="font-variation-settings:'wght' 400;display:inline;fill:url(#linearGradient25305);fill-opacity:1;stroke-width:1.68474;stroke-linecap:round;stroke-linejoin:round;paint-order:stroke fill markers"
     d="M -1.7043033e-4,34.886853 C -0.22312372,25.639169 25.837447,24.262197 39.265022,34.890137 52.031825,44.99508 57.394613,58.541647 66.318374,61.127707 65.217233,72.079827 37.478234,73.006977 30.226763,73.132237 12.938803,73.473127 11.697845,63.514617 8.2762676,49.966975 7.126265,44.555068 0.15141759,41.174542 -1.7043033e-4,34.886848 Z"
     sodipodi:nodetypes="sscccss" />
  <path
     id="rect10547-1"
     style="font-variation-settings:'wght' 400;display:inline;fill:url(#linearGradient25313);fill-opacity:1;stroke-width:1.68474;stroke-linecap:round;stroke-linejoin:round;paint-order:stroke fill markers"
     d="m 135.46684,34.885985 c 0.22295,-9.247683 -25.83762,-10.624655 -39.265203,0.0033 -12.766798,10.104918 -18.129588,23.651492 -27.053347,26.237542 1.101141,10.95212 28.840142,11.87927 36.09161,12.00453 17.28797,0.34089 18.52892,-9.61762 21.9505,-23.16526 1.15,-5.411906 8.12485,-8.792432 8.27644,-15.080125 z"
     sodipodi:nodetypes="sscccss" />
  <path
     id="rect10547-2-8-2"
     style="font-variation-settings:'wght' 400;display:inline;fill:url(#linearGradient26175);fill-opacity:1;stroke-width:1.68474;stroke-linecap:round;stroke-linejoin:round;paint-order:stroke fill markers"
     d="m 23.882157,115.11844 c -15.2943933,0 -15.2138016,-19.470223 -3.798147,-36.058843 5.587656,-8.11968 10.730167,-8.76286 21.624977,-8.7616 9.583565,8.5e-4 22.548474,-3.99522 24.609387,-9.17029 0,0 0.215052,11.2014 -0.865974,18.37293 -1.081026,7.17154 -8.996193,14.83002 -14.512905,20.603393 -5.516711,5.77336 -11.762944,15.01441 -27.057338,15.01441 z"
     sodipodi:nodetypes="zssczzz" />
  <path
     id="rect10547-2-8-2-7"
     style="font-variation-settings:'wght' 400;display:inline;fill:url(#linearGradient2927);fill-opacity:1;stroke-width:1.68474;stroke-linecap:round;stroke-linejoin:round;paint-order:stroke fill markers"
     d="m 111.5845,115.11757 c 15.2944,0 15.2138,-19.470221 3.79815,-36.058843 -5.58765,-8.11968 -10.73017,-8.76286 -21.624976,-8.7616 -9.583565,8.5e-4 -22.548474,-3.99522 -24.609384,-9.17029 0,0 -0.21506,11.2014 0.86597,18.37293 1.08103,7.17154 8.996194,14.830022 14.512906,20.603393 5.516711,5.77336 11.762944,15.01441 27.057334,15.01441 z"
     sodipodi:nodetypes="zssczzz" />
  <path
     id="path14005"
     style="font-variation-settings:'wght' 400;display:inline;fill:url(#linearGradient25364);fill-opacity:1;stroke:none;stroke-width:1.68474;stroke-linecap:round;stroke-linejoin:round;stroke-opacity:1;paint-order:stroke fill markers"
     d="m 51.516486,25.618153 a 0.87128589,0.4661868 15.752755 0 0 -0.565026,0.270542 0.87128589,0.4661868 15.752755 0 0 0.711941,0.685388 0.87128589,0.4661868 15.752755 0 0 0.811844,-0.03156 c 4.622935,2.651814 7.03141,6.92739 8.839083,11.665734 1.798854,4.715233 2.99374,9.877565 5.190139,14.297371 a 3.2018467,4.7394108 0 0 0 -1.973455,4.373509 3.2018467,4.7394108 0 0 0 1.787362,4.24857 2.6876167,21.982727 0 0 0 -1.273267,18.68459 2.6876167,21.982727 0 0 0 2.687572,21.982893 2.6876167,21.982727 0 0 0 2.68779,-21.982893 2.6876167,21.982727 0 0 0 -1.272179,-18.68546 3.2018467,4.7394108 0 0 0 1.786274,-4.2477 3.2018467,4.7394108 0 0 0 -1.972367,-4.37569 c 2.195698,-4.419312 3.390498,-9.580744 5.189052,-14.29519 1.807671,-4.738344 4.216147,-9.01392 8.839083,-11.665734 a 0.4661868,0.87128589 74.247245 0 0 0.811843,0.03156 0.4661868,0.87128589 74.247245 0 0 0.711941,-0.685388 0.4661868,0.87128589 74.247245 0 0 -0.565026,-0.270542 0.4661868,0.87128589 74.247245 0 0 -0.400045,0.05855 0.4661868,0.87128589 74.247245 0 0 -0.719994,0.587227 c -4.707487,2.701587 -7.160344,7.062535 -8.978815,11.829191 -1.808277,4.73993 -3.004279,9.888497 -5.17251,14.25819 a 3.2018467,4.7394108 0 0 0 -0.945047,-0.211557 3.2018467,4.7394108 0 0 0 -0.944393,0.212864 C 64.619662,47.982653 63.42379,42.833502 61.61534,38.093119 59.796868,33.326463 57.344012,28.965516 52.636526,26.263928 a 0.87128589,0.4661868 15.752755 0 0 -0.719995,-0.587226 0.87128589,0.4661868 15.752755 0 0 -0.400045,-0.05855 z" />
</g>
<g
   inkscape:groupmode="layer"
   id="g53"
   inkscape:label="simple-pieces"
   style="display:inline;opacity:0.12">
  <g
     id="g54"
     transform="matrix(0.99607032,0,0,0.99607032,0.2661689,-2.3584321)"
     style="stroke-width:1.00395">
    <path
       id="path49"
       style="font-variation-settings:'wght' 400;display:inline;fill:url(#radialGradient54);fill-opacity:1;stroke-width:1.69139;stroke-linecap:round;stroke-linejoin:round;paint-order:stroke fill markers"
       d="M -1.7043033e-4,34.886853 C -0.22312372,25.639169 25.837447,24.262197 39.265022,34.890137 52.031825,44.99508 57.394613,58.541647 66.318374,61.127707 65.217233,72.079827 37.478234,73.006977 30.226763,73.132237 12.938803,73.473127 11.697845,63.514617 8.2762676,49.966975 7.126265,44.555068 0.15141759,41.174542 -1.7043033e-4,34.886848 Z"
       sodipodi:nodetypes="sscccss" />
    <path
       id="path50"
       style="font-variation-settings:'wght' 400;display:inline;fill:url(#radialGradient55);fill-opacity:1;stroke-width:1.69139;stroke-linecap:round;stroke-linejoin:round;paint-order:stroke fill markers"
       d="m 135.46684,34.885985 c 0.22295,-9.247683 -25.83762,-10.624655 -39.265203,0.0033 -12.766798,10.104918 -18.129588,23.651492 -27.053347,26.237542 1.101141,10.95212 28.840142,11.87927 36.09161,12.00453 17.28797,0.34089 18.52892,-9.61762 21.9505,-23.16526 1.15,-5.411906 8.12485,-8.792432 8.27644,-15.080125 z"
       sodipodi:nodetypes="sscccss" />
    <path
       id="path51"
       style="font-variation-settings:'wght' 400;display:inline;fill:url(#radialGradient56);fill-opacity:1;stroke-width:1.69139;stroke-linecap:round;stroke-linejoin:round;paint-order:stroke fill markers"
       d="m 23.882157,115.11844 c -15.2943933,0 -15.2138016,-19.470223 -3.798147,-36.058843 5.587656,-8.11968 10.730167,-8.76286 21.624977,-8.7616 9.583565,8.5e-4 22.548474,-3.99522 24.609387,-9.17029 0,0 0.215052,11.2014 -0.865974,18.37293 -1.081026,7.17154 -8.996193,14.83002 -14.512905,20.603393 -5.516711,5.77336 -11.762944,15.01441 -27.057338,15.01441 z"
       sodipodi:nodetypes="zssczzz" />
    <path
       id="path52"
       style="font-variation-settings:'wght' 400;display:inline;fill:url(#radialGradient57);fill-opacity:1;stroke-width:1.69139;stroke-linecap:round;stroke-linejoin:round;paint-order:stroke fill markers"
       d="m 111.5845,115.11757 c 15.2944,0 15.2138,-19.470221 3.79815,-36.058843 -5.58765,-8.11968 -10.73017,-8.76286 -21.624976,-8.7616 -9.583565,8.5e-4 -22.548474,-3.99522 -24.609384,-9.17029 0,0 -0.21506,11.2014 0.86597,18.37293 1.08103,7.17154 8.996194,14.830022 14.512906,20.603393 5.516711,5.77336 11.762944,15.01441 27.057334,15.01441 z"
       sodipodi:nodetypes="zssczzz" />
    <path
       id="path53"
       style="font-variation-settings:'wght' 400;display:inline;fill:url(#radialGradient58);fill-opacity:1;stroke:none;stroke-width:1.69139;stroke-linecap:round;stroke-linejoin:round;stroke-opacity:1;paint-order:stroke fill markers"
       d="m 51.516486,25.618153 a 0.87128589,0.4661868 15.752755 0 0 -0.565026,0.270542 0.87128589,0.4661868 15.752755 0 0 0.711941,0.685388 0.87128589,0.4661868 15.752755 0 0 0.811844,-0.03156 c 4.622935,2.651814 7.03141,6.92739 8.839083,11.665734 1.798854,4.715233 2.99374,9.877565 5.190139,14.297371 a 3.2018467,4.7394108 0 0 0 -1.973455,4.373509 3.2018467,4.7394108 0 0 0 1.787362,4.24857 2.6876167,21.982727 0 0 0 -1.273267,18.68459 2.6876167,21.982727 0 0 0 2.687572,21.982893 2.6876167,21.982727 0 0 0 2.68779,-21.982893 2.6876167,21.982727 0 0 0 -1.272179,-18.68546 3.2018467,4.7394108 0 0 0 1.786274,-4.2477 3.2018467,4.7394108 0 0 0 -1.972367,-4.37569 c 2.195698,-4.419312 3.390498,-9.580744 5.189052,-14.29519 1.807671,-4.738344 4.216147,-9.01392 8.839083,-11.665734 a 0.4661868,0.87128589 74.247245 0 0 0.811843,0.03156 0.4661868,0.87128589 74.247245 0 0 0.711941,-0.685388 0.4661868,0.87128589 74.247245 0 0 -0.565026,-0.270542 0.4661868,0.87128589 74.247245 0 0 -0.400045,0.05855 0.4661868,0.87128589 74.247245 0 0 -0.719994,0.587227 c -4.707487,2.701587 -7.160344,7.062535 -8.978815,11.829191 -1.808277,4.73993 -3.004279,9.888497 -5.17251,14.25819 a 3.2018467,4.7394108 0 0 0 -0.945047,-0.211557 3.2018467,4.7394108 0 0 0 -0.944393,0.212864 C 64.619662,47.982653 63.42379,42.833502 61.61534,38.093119 59.796868,33.326463 57.344012,28.965516 52.636526,26.263928 a 0.87128589,0.4661868 15.752755 0 0 -0.719995,-0.587226 0.87128589,0.4661868 15.752755 0 0 -0.400045,-0.05855 z" />
  </g>
</g>
<g
   inkscape:groupmode="layer"
   id="g23"
   inkscape:label="simple"
   style="display:inline;opacity:1">
  <path
     id="path18"
     style="font-variation-settings:'wght' 400;display:inline;opacity:0.22;fill:#919191;fill-opacity:1;stroke-width:1.68474;stroke-linecap:round;stroke-linejoin:round;paint-order:stroke fill markers"
     d="m 51.579965,23.1643 a 0.86786202,0.46435484 15.752755 0 0 -0.562611,0.269721 0.86786202,0.46435484 15.752755 0 0 0.709302,0.682536 0.86786202,0.46435484 15.752755 0 0 0.80865,-0.0314 c 4.604773,2.64139 7.00343,6.900392 8.804006,11.620111 1.791781,4.696699 2.982215,9.838701 5.169984,14.241135 a 3.1892645,4.7207864 0 0 0 -1.965775,4.35619 3.1892645,4.7207864 0 0 0 1.780466,4.231625 C 57.435304,55.958327 52.093269,42.465391 39.376659,32.400168 26.001865,21.813986 0.04409286,23.185229 0.26616674,32.396582 0.41716104,38.659561 7.3646519,42.026904 8.5101427,47.417539 11.620851,59.734343 12.924338,69.071055 26.221608,70.34892 24.116005,71.646904 22.220493,73.563533 20.271293,76.396008 8.9005126,92.91943 8.8202991,112.31311 24.054577,112.31311 c 15.234278,0 21.455903,-9.20492 26.950944,-14.9556 C 56.052918,92.075281 63.1117,85.20893 65.06341,78.589295 a 2.6770552,21.896342 0 0 0 2.669409,20.452949 2.6770552,21.896342 0 0 0 2.670952,-20.451405 c 1.952637,6.618947 9.010522,13.483993 14.057371,18.765635 5.495021,5.750696 11.716666,14.955606 26.950938,14.955606 15.23429,0 15.15407,-19.393686 3.78329,-35.917098 -1.9489,-2.832047 -3.84407,-4.748606 -5.94929,-6.046577 13.29633,-1.278243 14.5998,-10.615408 17.71044,-22.931896 1.14548,-5.390633 8.09298,-8.757464 8.24398,-15.020442 0.22207,-9.211333 -25.73569,-10.583091 -39.110496,0.0031 C 83.373384,42.464354 78.031359,55.95784 69.142666,58.533724 a 3.1892645,4.7207864 0 0 0 1.77944,-4.23111 3.1892645,4.7207864 0 0 0 -1.964738,-4.358764 c 2.187071,-4.401942 3.376957,-9.542646 5.168439,-14.238561 1.800567,-4.719719 4.199761,-8.978721 8.804515,-11.620111 a 0.46435484,0.86786202 74.247245 0 0 0.808649,0.0314 0.46435484,0.86786202 74.247245 0 0 0.709302,-0.682536 0.46435484,0.86786202 74.247245 0 0 -0.563118,-0.269721 0.46435484,0.86786202 74.247245 0 0 -0.398399,0.05868 0.46435484,0.86786202 74.247245 0 0 -0.717031,0.584739 c -4.688981,2.690967 -7.132172,7.034847 -8.943496,11.782766 -1.801174,4.721299 -2.992255,9.849498 -5.151965,14.202015 A 3.1892645,4.7207864 0 0 0 67.732819,49.581989 3.1892645,4.7207864 0 0 0 66.791881,49.79406 C 64.631773,45.441271 63.440742,40.31225 61.639398,35.5905 59.828074,30.842581 57.384883,26.498702 52.695902,23.807734 a 0.86786202,0.46435484 15.752755 0 0 -0.717021,-0.584739 0.86786202,0.46435484 15.752755 0 0 -0.398916,-0.05868 z" />
  <path
     id="path19"
     style="font-variation-settings:'wght' 400;display:inline;opacity:0.2;fill:url(#linearGradient27);fill-opacity:1;stroke:#ffffff;stroke-width:0.529167;stroke-linecap:round;stroke-linejoin:round;stroke-dasharray:none;stroke-opacity:1;paint-order:stroke fill markers"
     d="M 0.26599914,32.385848 C 0.04392198,23.174505 26.002083,21.802944 39.376892,32.389119 52.093525,42.454353 57.435239,55.947687 66.323933,58.523584 65.227119,69.432666 37.597125,70.356172 30.37415,70.48094 13.154127,70.820491 11.918045,60.901114 8.5099134,47.40671 7.36443,42.01607 0.41699147,38.648829 0.26599914,32.385843 Z"
     sodipodi:nodetypes="sscccss" />
  <path
     id="path20"
     style="font-variation-settings:'wght' 400;display:inline;opacity:0.2;fill:url(#linearGradient24);fill-opacity:1;stroke:#ffffff;stroke-width:0.529167;stroke-linecap:round;stroke-linejoin:round;stroke-dasharray:none;stroke-opacity:1;paint-order:stroke fill markers"
     d="M 135.20067,32.384984 C 135.42274,23.173641 109.46458,21.80208 96.089764,32.388271 83.373136,42.45348 78.03142,55.94682 69.142728,58.522708 c 1.096814,10.909081 28.72681,11.832588 35.949782,11.957356 17.22003,0.33955 18.45611,-9.579826 21.86424,-23.074228 1.14548,-5.390639 8.09292,-8.757881 8.24392,-15.020865 z"
     sodipodi:nodetypes="sscccss" />
  <path
     id="path21"
     style="font-variation-settings:'wght' 400;display:inline;opacity:0.2;fill:url(#linearGradient30);fill-opacity:1;stroke:#ffffff;stroke-width:0.529167;stroke-linecap:round;stroke-linejoin:round;stroke-dasharray:none;stroke-opacity:1;paint-order:stroke fill markers"
     d="m 24.054477,112.30215 c -15.2342916,0 -15.1540166,-19.39371 -3.783222,-35.917142 5.565698,-8.087773 10.688001,-8.728425 21.539998,-8.72717 9.545905,8.47e-4 22.459866,-3.97952 24.51268,-9.134254 0,0 0.214207,11.157382 -0.862571,18.30073 -1.076778,7.143359 -8.960841,14.771743 -14.455874,20.522429 -5.495032,5.750677 -11.716719,14.955407 -26.951011,14.955407 z"
     sodipodi:nodetypes="zssczzz" />
  <path
     id="path33"
     style="font-variation-settings:'wght' 400;display:inline;opacity:0.6;fill:url(#linearGradient43);stroke:none;stroke-width:0.529167;stroke-linecap:round;stroke-linejoin:round;stroke-dasharray:none;stroke-opacity:1;paint-order:stroke fill markers"
     d="m 24.054477,112.30215 c -15.2342916,0 -15.1540166,-19.39371 -3.783222,-35.917142 5.565698,-8.087773 10.688001,-8.728425 21.539998,-8.72717 9.545905,8.47e-4 22.459866,-3.97952 24.51268,-9.134254 0,0 0.214207,11.157382 -0.862571,18.30073 -1.076778,7.143359 -8.960841,14.771743 -14.455874,20.522429 -5.495032,5.750677 -11.716719,14.955407 -26.951011,14.955407 z"
     sodipodi:nodetypes="zssczzz" />
  <path
     id="path22"
     style="font-variation-settings:'wght' 400;display:inline;opacity:0.2;fill:url(#linearGradient28);fill-opacity:1;stroke:#ffffff;stroke-width:0.529167;stroke-linecap:round;stroke-linejoin:round;stroke-dasharray:none;stroke-opacity:1;paint-order:stroke fill markers"
     d="m 111.41218,112.30128 c 15.2343,0 15.15401,-19.393705 3.78322,-35.917139 -5.56569,-8.087772 -10.688,-8.728425 -21.539995,-8.72717 -9.545904,8.47e-4 -22.459865,-3.97952 -24.512677,-9.134253 0,0 -0.214215,11.157382 0.862567,18.30073 1.076782,7.143358 8.960842,14.771745 14.455875,20.522428 5.495032,5.750674 11.71672,14.955404 26.95101,14.955404 z"
     sodipodi:nodetypes="zssczzz" />
  <path
     id="path79"
     style="font-variation-settings:'wght' 400;display:inline;opacity:1;fill:#000000;fill-opacity:1;stroke:none;stroke-width:0.529167;stroke-linecap:round;stroke-linejoin:round;stroke-dasharray:none;stroke-opacity:1;paint-order:stroke fill markers"
     d="m 66.33557,58.348372 c -0.891181,2.237807 -3.83239,4.25275 -7.653279,5.818249 -4.056859,3.663673 -8.286041,7.097912 -13.557829,8.806181 -2.719121,0.785173 -5.798554,1.070022 -8.305953,-0.465605 -3.150987,-1.251018 -6.596911,-2.315563 -10.05365,-2.655135 -0.90837,0.507273 -1.774101,1.132822 -2.618961,1.876888 3.694558,-0.377915 7.387174,-0.314193 10.780737,1.370976 1.824481,1.156601 5.566882,3.928657 2.970878,5.931421 -3.06795,3.307088 -7.995,2.427077 -11.839587,1.290361 -2.3968,-0.62578 -4.867343,-1.43142 -7.357691,-1.661915 -0.379562,0.620083 -0.745598,1.241692 -1.093473,1.86552 3.859166,-0.286293 7.780019,0.03701 11.166243,1.966805 2.207952,1.162318 4.759679,5.673021 0.820105,5.991365 -5.725335,2.362177 -11.309996,5.206242 -17.219104,7.082255 -0.09441,0.751577 -0.165008,1.492233 -0.197404,2.213302 1.013197,-0.326422 2.00475,-0.728126 2.956409,-1.243335 4.955372,-2.238476 9.822361,-6.093041 15.564942,-5.347477 3.337727,-0.08412 4.266999,2.985747 3.323311,5.725232 -1.744502,6.37379 -8.401048,9.52993 -11.354863,15.15515 0.451435,0.0381 0.917435,0.0584 1.399398,0.0584 0.211977,0 0.415742,-0.008 0.624252,-0.0119 0.267993,-0.39415 0.548185,-0.783 0.842842,-1.15962 3.728816,-4.94852 9.270167,-9.0089 10.515121,-15.424902 0.980249,-2.898929 4.815032,-4.600188 5.492688,-0.556555 0.993675,2.211328 1.753943,5.567707 4.636409,5.867857 -3.140391,-2.307816 -3.334831,-7.092065 -0.81132,-9.920839 2.435645,-3.361239 7.821916,-4.702962 10.982792,-1.561145 0.347307,0.364313 0.731328,0.669822 1.137915,0.933276 0.295418,-0.333765 0.587668,-0.66773 0.877466,-1.00614 -9.2311,-3.06184 3.422595,-12.982178 4.987809,-16.742647 1.07381,-1.995747 2.201508,-4.206671 2.918168,-6.491594 0.123674,-4.260039 0.06563,-7.704439 0.06563,-7.704439 z m -0.706417,2.104781 c -1.279367,8.325898 -5.56439,15.990639 -11.598775,21.84001 -0.714505,0.692599 0.206474,3.033896 -0.555004,3.673678 -0.69173,0.581179 -3.061708,-0.53458 -3.788916,0 -2.313401,1.70061 -4.798389,3.158105 -7.404716,4.326351 -1.882492,0.852141 -4.365458,0.848942 -6.693132,1.936316 -1.05985,0.495109 1.52e-4,-2.869525 -2.631881,-3.175 1.232084,-0.780543 -1.7451,-6.047449 -0.441316,-6.142261 2.411558,-0.17537 5.765726,-1.86004 7.821228,-2.590539 2.241705,-1.702889 -2.504433,-4.259371 0.304891,-4.809526 8.130096,-1.592132 19.541058,-9.41984 24.987621,-15.059029 z m -23.11125,37.122799 c -0.04256,0.344581 -0.03419,0.276772 0,0 z m 0.302824,0.890384 0.151928,0.09199 z m 3.388423,1.585434 -0.0036,5.2e-4 z" />
  <path
     id="path34"
     style="font-variation-settings:'wght' 400;display:inline;opacity:0.6;fill:url(#linearGradient41);fill-opacity:1;stroke:none;stroke-width:0.529167;stroke-linecap:round;stroke-linejoin:round;stroke-dasharray:none;stroke-opacity:1;paint-order:stroke fill markers"
     d="m 111.41218,112.30128 c 15.2343,0 15.15401,-19.393705 3.78322,-35.917139 -5.56569,-8.087772 -10.688,-8.728425 -21.539995,-8.72717 -9.545904,8.47e-4 -22.459865,-3.97952 -24.512677,-9.134253 0,0 -0.214215,11.157382 0.862567,18.30073 1.076782,7.143358 8.960842,14.771745 14.455875,20.522428 5.495032,5.750674 11.71672,14.955404 26.95101,14.955404 z"
     sodipodi:nodetypes="zssczzz" />
  <path
     id="path87"
     style="font-variation-settings:'wght' 400;display:inline;opacity:1;fill:#000000;fill-opacity:1;stroke:none;stroke-width:0.529167;stroke-linecap:round;stroke-linejoin:round;stroke-dasharray:none;stroke-opacity:1;paint-order:stroke fill markers"
     d="m 69.139203,58.348372 c 0.891181,2.237807 3.83239,4.25275 7.653279,5.818249 4.056859,3.663673 8.286041,7.097912 13.557829,8.806181 2.719121,0.785173 5.798558,1.070022 8.305962,-0.465605 3.150977,-1.251018 6.596907,-2.315563 10.053647,-2.655135 0.90837,0.507273 1.7741,1.132822 2.61896,1.876888 -3.69456,-0.377915 -7.38718,-0.314193 -10.78074,1.370976 -1.824477,1.156601 -5.566881,3.928657 -2.970877,5.931421 3.067947,3.307088 7.994997,2.427077 11.839587,1.290361 2.3968,-0.62578 4.86734,-1.43142 7.35769,-1.661915 0.37956,0.620083 0.7456,1.241692 1.09347,1.86552 -3.85916,-0.286293 -7.78002,0.03701 -11.16624,1.966805 -2.20795,1.162318 -4.75968,5.673021 -0.82011,5.991365 5.72534,2.362177 11.31,5.206242 17.21911,7.082255 0.0944,0.751572 0.16501,1.492232 0.1974,2.213303 -1.01319,-0.32642 -2.00475,-0.728131 -2.95641,-1.243341 -4.95537,-2.238471 -9.82236,-6.093036 -15.56494,-5.347472 -3.33773,-0.08412 -4.267,2.985747 -3.32331,5.725232 1.7445,6.37379 8.40105,9.52993 11.35486,15.15515 -0.45143,0.0381 -0.91743,0.0584 -1.39939,0.0584 -0.21198,0 -0.41575,-0.008 -0.62426,-0.0119 -0.26799,-0.39415 -0.54818,-0.783 -0.84284,-1.15962 -3.72881,-4.94852 -9.27017,-9.0089 -10.515117,-15.424902 -0.98025,-2.898929 -4.815036,-4.600188 -5.492692,-0.556555 -0.993675,2.211328 -1.753943,5.567707 -4.636409,5.867857 3.140391,-2.307819 3.334831,-7.092065 0.81132,-9.920839 -2.435645,-3.361239 -7.821916,-4.702962 -10.982792,-1.561145 -0.347307,0.364313 -0.731328,0.669822 -1.137915,0.933276 -0.295418,-0.333765 -0.587668,-0.66773 -0.877466,-1.00614 9.2311,-3.06184 -3.422595,-12.982178 -4.987809,-16.742647 -1.07381,-1.995747 -2.201508,-4.206671 -2.918168,-6.491594 -0.123674,-4.260039 -0.06563,-7.704439 -0.06563,-7.704439 z m 0.706417,2.104781 c 1.279367,8.325898 5.56439,15.990639 11.598775,21.84001 0.714505,0.692599 -0.206474,3.033896 0.555004,3.673678 0.69173,0.581179 3.061708,-0.53458 3.788916,0 2.313401,1.70061 4.798389,3.158105 7.404716,4.326351 1.882488,0.852141 4.365462,0.848942 6.693132,1.936316 1.059847,0.495109 -1.5e-4,-2.869525 2.631887,-3.175 -1.23209,-0.780543 1.7451,-6.047449 0.44131,-6.142261 -2.41156,-0.17537 -5.765721,-1.86004 -7.821231,-2.590539 -2.241702,-1.702889 2.504444,-4.259371 -0.304888,-4.809526 C 86.703145,73.92005 75.292183,66.092342 69.84562,60.453153 Z m 23.11125,37.122798 c 0.04256,0.34458 0.03419,0.27677 0,0 z m -0.302824,0.89039 -0.151928,0.092 z m -3.388423,1.585429 0.0036,5.2e-4 z" />
  <path
     id="path31"
     style="font-variation-settings:'wght' 400;display:inline;opacity:0.6;fill:url(#linearGradient35);stroke:none;stroke-width:0.529167;stroke-linecap:round;stroke-linejoin:round;stroke-dasharray:none;stroke-opacity:1;paint-order:stroke fill markers"
     d="M 0.26599914,32.385848 C 0.04392198,23.174505 26.002083,21.802944 39.376892,32.389119 52.093525,42.454353 57.435239,55.947687 66.323933,58.523584 65.227119,69.432666 37.597125,70.356172 30.37415,70.48094 13.154127,70.820491 11.918045,60.901114 8.5099134,47.40671 7.36443,42.01607 0.41699147,38.648829 0.26599914,32.385843 Z"
     sodipodi:nodetypes="sscccss" />
  <path
     id="path32"
     style="font-variation-settings:'wght' 400;display:inline;opacity:0.6;fill:url(#linearGradient37);fill-opacity:1;stroke:none;stroke-width:0.529167;stroke-linecap:round;stroke-linejoin:round;stroke-dasharray:none;stroke-opacity:1;paint-order:stroke fill markers"
     d="M 135.20067,32.384984 C 135.42274,23.173641 109.46458,21.80208 96.089764,32.388271 83.373136,42.45348 78.03142,55.94682 69.142728,58.522708 c 1.096814,10.909081 28.72681,11.832588 35.949782,11.957356 17.22003,0.33955 18.45611,-9.579826 21.86424,-23.074228 1.14548,-5.390639 8.09292,-8.757881 8.24392,-15.020865 z"
     sodipodi:nodetypes="sscccss" />
  <path
     id="path107"
     style="color:#000000;opacity:1;fill:#000000;stroke-linecap:round;stroke-linejoin:round;-inkscape-stroke:none;paint-order:stroke fill markers"
     d="m 119.19983,24.960471 c -7.8067,0.131545 -16.84079,2.466731 -23.110222,7.429004 -12.716602,10.065189 -18.058516,23.55844 -26.947189,26.134322 1.09682,10.909059 28.726784,11.832642 35.949741,11.95741 17.22,0.33955 18.45617,-9.579668 21.8643,-23.074044 1.14548,-5.390627 8.09294,-8.758333 8.24394,-15.021305 0.11797,-4.893516 -7.15299,-7.574471 -16.00057,-7.425387 z m -102.933771,0.001 c -8.8475898,-0.149084 -16.11803976,2.53187 -16.00005976,7.425386 0.15099,6.262974 7.09845996,9.630159 8.24393996,15.020789 3.4081298,13.494376 4.6437898,23.414111 21.8637798,23.07456 7.22297,-0.124766 34.85347,-1.048349 35.95026,-11.957409 -8.88867,-2.575893 -14.23058,-16.069625 -26.94719,-26.134839 -6.26942,-4.962273 -15.30404,-7.296942 -23.11073,-7.428487 z m 113.101101,4.572847 c 1.15814,0.502957 1.94498,1.086361 2.34973,1.558562 0.40476,0.4722 0.49565,0.746085 0.48421,1.220597 -0.0491,2.036114 -1.23404,3.787008 -3.06235,6.00015 -1.8283,2.213143 -4.31435,4.693544 -5.117,8.470801 l 0.0253,-0.111621 c -1.72571,6.832892 -2.96164,12.397417 -5.30097,15.738574 -2.33934,3.341159 -5.56267,5.22837 -13.59556,5.069975 h -0.006 c -3.54971,-0.06132 -12.137191,-0.336851 -19.728509,-1.874821 -3.795658,-0.768984 -7.33357,-1.878798 -9.728092,-3.238562 -1.34402,-0.763231 -2.17063,-1.516267 -2.73678,-2.285132 4.06642,-2.162125 6.191181,-6.925128 9.496578,-10.981758 4.079705,-5.006917 8.438063,-10.663601 14.445113,-15.41818 5.52888,-4.376123 15.10962,-7.188541 20.7869,-7.284208 5.67728,-0.09567 9.37116,2.129712 11.68743,3.135623 z m -90.792908,4.150685 c 6.00704,4.754578 10.36541,10.410624 14.44512,15.417663 3.30554,4.05691 5.429877,8.82015 9.496577,10.982275 -0.56623,0.76837 -1.39354,1.520808 -2.73679,2.283582 -2.39456,1.359768 -5.93236,2.46906 -9.72808,3.238045 -7.59146,1.537972 -16.1788,1.815572 -19.72852,1.876888 -0.0028,-4e-6 -0.0055,-4e-6 -0.0083,0 -8.03287,0.158395 -11.25425,-1.730764 -13.59349,-5.072042 -2.33925,-3.341276 -3.57732,-8.905638 -5.30304,-15.738574 l 0.02739,0.111621 c -0.80266,-3.777278 -3.2886998,-6.257789 -5.1169998,-8.470801 -1.82831,-2.213011 -3.01378,-3.961972 -3.06286,-5.998083 -0.0114,-0.474564 0.08006,-0.750478 0.48473,-1.222664 0.40472,-0.472187 1.19115,-1.055617 2.34921,-1.558562 2.31612,-1.005889 6.0085898,-3.229218 11.6860448,-3.133552 5.677455,0.09567 15.260288,2.908197 20.789008,7.284204 z"
     sodipodi:nodetypes="sccccssscccccsssssccsccsscsscscscssccscccccscc" />
  <path
     id="path65"
     style="font-variation-settings:'wght' 400;display:inline;opacity:1;fill:#000000;fill-opacity:1;stroke:none;stroke-width:0.529167;stroke-linecap:round;stroke-linejoin:round;stroke-dasharray:none;stroke-opacity:1;paint-order:stroke fill markers"
     d="m 25.855134,26.183955 c -3.019832,3.375663 -8.03868,1.866286 -11.896431,1.162719 -3.558068,-0.587042 -7.3878978,-0.735069 -10.8039912,0.379305 -0.3245459,0.2102 -0.6232632,0.432195 -0.8981364,0.665076 0.1238265,0.623348 5.3123212,-0.374941 6.6543742,-0.03979 4.4007774,-0.166591 8.9734314,-0.205438 13.1216794,1.483631 0.12768,4.369554 -5.136311,4.567374 -8.229472,3.74034 C 10.139506,32.830408 6.4686932,32.191998 2.79246,31.672509 2.2300897,31.5127 1.1006964,31.575339 0.30889054,31.731419 c -0.0255146,0.216562 -0.0483417,0.433841 -0.0428914,0.659908 3.5896e-4,0.01489 0.003698,0.02855 0.004134,0.04341 0.15838871,0.03349 0.2644086,0.06828 0.48265788,0.100252 3.35987898,1.113196 6.93224528,1.173274 10.46085998,1.257804 1.926324,-0.358026 4.165845,1.904494 7.579899,1.482081 1.056882,0.457321 -2.497725,2.857155 -3.657141,3.532084 -3.714626,2.497566 -8.1340623,1.05411 -12.2013221,0.04547 0.279564,0.369452 0.5651906,0.735987 0.8598958,1.096574 0.8456585,0.145661 1.6902234,0.296308 2.5300781,0.45837 1.9011426,0.12477 4.2479602,2.075815 1.1477336,2.720247 -0.2998898,0.254824 -0.4992685,0.456541 -0.6547404,0.63407 0.1570267,0.228679 0.3064493,0.459824 0.4490682,0.692981 1.1604063,-0.178311 3.3219978,-1.105452 3.9093218,-1.747697 2.264703,-1.414593 4.019755,-3.066841 6.309692,-4.44469 0.792907,-0.47709 1.661948,-1.552602 2.622062,-1.711007 2.741721,0.383731 4.372878,3.594711 5.632215,5.590874 -2.972527,2.212075 -7.350855,1.182514 -10.615373,3.026688 -1.041884,1.189757 -4.662101,3.186727 -6.0079016,4.68912 0.068226,0.276974 0.1387242,0.557145 0.206189,0.83044 3.5684156,-1.511364 7.4113676,-5.346857 11.1936316,-6.124691 3.614577,-1.053349 8.441223,-1.349012 11.217403,1.551327 2.663447,3.339728 -0.06908,7.619889 -3.505212,8.958109 -3.675798,1.84046 -7.802772,2.225755 -11.14609,4.748548 -1.390118,0.678899 -2.802214,1.313049 -4.229716,1.911511 0.172836,0.349187 0.354973,0.687469 0.543119,1.01906 3.0796,-1.616226 6.070362,-3.560773 9.212358,-4.773352 3.040587,-0.881534 6.464878,-1.270328 8.814966,-3.664894 2.162082,-1.304484 2.631924,-5.307528 3.797701,-6.127274 3.309425,2.122189 7.760189,3.297235 9.620601,7.059518 1.066413,3.370374 -2.155249,5.999649 -4.651396,7.620723 -2.634833,1.836834 -5.866377,4.20459 -6.373771,7.520988 0.418135,-0.01644 0.866728,-0.03954 1.321883,-0.0615 0.919887,-3.87275 4.484121,-6.447206 8.035686,-7.762833 2.670043,-2.081696 1.499047,-6.078517 3.453019,-8.513693 3.210678,0.349231 6.364401,2.505881 9.728605,3.284038 3.129663,0.953069 6.329665,2.266011 9.599414,2.732133 0.133803,-0.369432 0.233602,-0.752044 0.298173,-1.148251 -0.05794,-0.02069 -0.143364,-0.03738 -0.188102,-0.05994 -5.883825,-1.253156 -12.614564,-5.818917 -18.402494,-8.039303 -4.184143,-1.605136 -7.7622,-0.711502 -10.710975,-2.530595 -2.943149,-1.815622 -4.215,-5.79372 -6.30039,-7.182508 -2.894222,-1.927437 -6.262315,-1.286941 -8.074443,-4.56923 -2.20813,-3.776751 2.612731,-7.376466 4.328418,-10.083105 -0.349806,-0.09247 -0.699152,-0.185609 -1.050582,-0.269234 z" />
  <path
     id="path74"
     style="font-variation-settings:'wght' 400;display:inline;opacity:1;fill:#000000;fill-opacity:1;stroke:none;stroke-width:0.529167;stroke-linecap:round;stroke-linejoin:round;stroke-dasharray:none;stroke-opacity:1;paint-order:stroke fill markers"
     d="m 109.61214,26.183955 c 3.01983,3.375663 8.03868,1.866286 11.89643,1.162719 3.55807,-0.587042 7.3879,-0.735069 10.80399,0.379305 0.32455,0.2102 0.62327,0.432195 0.89814,0.665076 -0.12383,0.623348 -5.31232,-0.374941 -6.65438,-0.03979 -4.40077,-0.166591 -8.97343,-0.205438 -13.12167,1.483631 -0.12768,4.369554 5.13631,4.567374 8.22947,3.74034 3.66365,-0.744828 7.33446,-1.383238 11.01069,-1.902727 0.56237,-0.159809 1.69177,-0.09717 2.48357,0.05891 0.0255,0.216562 0.0483,0.433841 0.0429,0.659908 -3.6e-4,0.01489 -0.004,0.02855 -0.004,0.04341 -0.15839,0.03349 -0.26441,0.06828 -0.48265,0.100252 -3.35988,1.113196 -6.93225,1.173274 -10.46086,1.257804 -1.92633,-0.358026 -4.16585,1.904494 -7.5799,1.482081 -1.05689,0.457321 2.49772,2.857155 3.65714,3.532084 3.71462,2.497566 8.13406,1.05411 12.20132,0.04547 -0.27956,0.369452 -0.56519,0.735987 -0.8599,1.096574 -0.84565,0.145661 -1.69022,0.296308 -2.53007,0.45837 -1.90115,0.12477 -4.24796,2.075815 -1.14774,2.720247 0.29989,0.254824 0.49927,0.456541 0.65474,0.63407 -0.15702,0.228679 -0.30645,0.459824 -0.44907,0.692981 -1.1604,-0.178311 -3.32199,-1.105452 -3.90932,-1.747697 -2.2647,-1.414593 -4.01975,-3.066841 -6.30969,-4.44469 -0.79291,-0.47709 -1.66195,-1.552602 -2.62206,-1.711007 -2.74172,0.383731 -4.37288,3.594711 -5.63222,5.590874 2.97253,2.212075 7.35086,1.182514 10.61538,3.026688 1.04188,1.189757 4.6621,3.186727 6.0079,4.68912 -0.0682,0.276974 -0.13873,0.557145 -0.20619,0.83044 -3.56842,-1.511364 -7.41137,-5.346857 -11.19363,-6.124691 -3.61458,-1.053349 -8.44123,-1.349012 -11.21741,1.551327 -2.66344,3.339728 0.0691,7.619889 3.50522,8.958109 3.67579,1.84046 7.80277,2.225755 11.14609,4.748548 1.39011,0.678899 2.80221,1.313049 4.22971,1.911511 -0.17283,0.349187 -0.35497,0.687469 -0.54312,1.01906 -3.0796,-1.616226 -6.07036,-3.560773 -9.21235,-4.773352 -3.04059,-0.881534 -6.46488,-1.270328 -8.81497,-3.664894 -2.16208,-1.304484 -2.63192,-5.307528 -3.7977,-6.127274 -3.309427,2.122189 -7.760191,3.297235 -9.620603,7.059518 -1.066413,3.370374 2.155249,5.999649 4.651396,7.620723 2.634833,1.836834 5.866377,4.20459 6.373767,7.520988 -0.41813,-0.01644 -0.86672,-0.03954 -1.32188,-0.0615 -0.919886,-3.87275 -4.48412,-6.447206 -8.035685,-7.762833 -2.670043,-2.081696 -1.499047,-6.078517 -3.453019,-8.513693 -3.210678,0.349231 -6.364401,2.505881 -9.728605,3.284038 -3.129663,0.953069 -6.329665,2.266011 -9.599414,2.732133 -0.133803,-0.369432 -0.233602,-0.752044 -0.298173,-1.148251 0.05794,-0.02069 0.143364,-0.03738 0.188102,-0.05994 5.883793,-1.253156 12.614532,-5.818917 18.402462,-8.039303 4.184143,-1.605136 7.7622,-0.711502 10.710975,-2.530595 2.943147,-1.815622 4.214997,-5.79372 6.300387,-7.182508 2.89423,-1.927437 6.26232,-1.286941 8.07445,-4.56923 2.20813,-3.776751 -2.61273,-7.376466 -4.32842,-10.083105 0.3498,-0.09247 0.69915,-0.185609 1.05058,-0.269234 z" />
  <path
     id="path104"
     style="color:#000000;display:inline;opacity:1;fill:#000000;stroke-linecap:round;stroke-linejoin:round;-inkscape-stroke:none;paint-order:stroke fill markers"
     d="m 69.142666,58.522487 c 0,0 -0.2143,11.157358 0.86248,18.300692 1.07678,7.143344 8.960944,14.771589 14.455965,20.522262 5.495022,5.750659 11.71655,14.955679 26.950809,14.955679 15.23427,0 15.154,-19.393789 3.78323,-35.917191 -5.56568,-8.087755 -10.68779,-8.728371 -21.539768,-8.727116 -9.545884,8.47e-4 -22.459908,-3.979603 -24.512716,-9.134326 z m -2.818949,0.001 c -2.05281,5.154727 -14.966829,9.135177 -24.512716,9.13433 -10.851975,-0.0012 -15.974088,0.639358 -21.53977,8.727116 -11.3707798,16.523398 -11.4510198,35.917187 3.78323,35.917187 15.234262,0 21.455791,-9.20501 26.950811,-14.955676 5.495023,-5.750674 13.379189,-13.378918 14.455965,-20.522261 1.076776,-7.143334 0.86248,-18.300692 0.86248,-18.300692 z m -3.073714,6.977872 c -0.08974,3.525627 -0.278618,7.707657 -0.756026,10.874789 -0.801982,5.320354 -8.088331,13.069708 -13.658082,18.898588 -5.818329,6.089014 -10.755125,14.027564 -24.780914,14.027564 -3.17204,0 -5.07446,-0.90353 -6.43372,-2.34559 -1.35926,-1.44206 -2.24359,-3.6579 -2.44171,-6.61717 -0.39623,-5.918537 2.18633,-14.441071 7.56285,-22.253936 2.560164,-3.720296 4.604511,-5.31702 7.310662,-6.267834 2.706151,-0.950813 6.390525,-1.160757 11.757422,-1.160136 5.190036,4.61e-4 11.031135,-1.041117 16.058968,-2.80293 1.938011,-0.679102 3.730562,-1.461148 5.38055,-2.353345 z m 8.966894,0 c 1.649784,0.891997 3.443376,1.674355 5.381067,2.353345 5.027834,1.761813 10.868415,2.803391 16.058452,2.80293 5.366895,-6.21e-4 9.051784,0.209322 11.757934,1.160136 2.70616,0.950814 4.74999,2.547539 7.31015,6.267834 5.37652,7.812868 7.95908,16.335399 7.56285,22.253936 -0.19812,2.95927 -1.08245,5.17305 -2.44171,6.6151 -1.35926,1.44206 -3.26115,2.3456 -6.4332,2.3456 -14.025788,0 -18.963104,-7.93856 -24.781435,-14.027571 C 81.061255,89.443823 73.772842,81.696534 72.970856,76.376178 72.493528,73.20959 72.306666,69.026643 72.216897,65.501389 Z" />
  <path
     id="path112"
     style="font-variation-settings:'wght' 400;display:inline;opacity:1;fill:#000000;fill-opacity:1;stroke:#ffffff;stroke-width:0.264583;stroke-linecap:round;stroke-linejoin:round;stroke-dasharray:none;stroke-opacity:1;paint-order:markers stroke fill"
     d="m 51.580212,23.153571 a 0.86786202,0.46435484 15.752755 0 0 -0.562806,0.269479 0.86786202,0.46435484 15.752755 0 0 0.709143,0.682695 0.86786202,0.46435484 15.752755 0 0 0.808654,-0.03144 c 4.604768,2.641393 7.003779,6.900167 8.804348,11.619891 1.791785,4.696704 2.981976,9.83875 5.169744,14.241187 a 3.1892645,4.7207864 0 0 0 -1.9657,4.356323 3.1892645,4.7207864 0 0 0 1.780338,4.231874 2.6770552,21.896342 0 0 0 -1.268264,18.611166 2.6770552,21.896342 0 0 0 2.677011,21.896507 2.6770552,21.896342 0 0 0 2.677228,-21.896507 2.6770552,21.896342 0 0 0 -1.26718,-18.612032 3.1892645,4.7207864 0 0 0 1.779255,-4.231008 3.1892645,4.7207864 0 0 0 -1.964616,-4.358495 c 2.187069,-4.401946 3.377174,-9.543095 5.16866,-14.239015 1.800568,-4.719724 4.199579,-8.978498 8.804348,-11.619891 a 0.46435484,0.86786202 74.247245 0 0 0.808653,0.03144 0.46435484,0.86786202 74.247245 0 0 0.709143,-0.682695 0.46435484,0.86786202 74.247245 0 0 -0.562805,-0.269479 0.46435484,0.86786202 74.247245 0 0 -0.398473,0.05832 0.46435484,0.86786202 74.247245 0 0 -0.717165,0.58492 c -4.688988,2.69097 -7.132206,7.034781 -8.943531,11.782706 -1.801171,4.721303 -2.992473,9.849638 -5.152184,14.20216 A 3.1892645,4.7207864 0 0 0 67.73268,49.570951 3.1892645,4.7207864 0 0 0 66.791998,49.782978 C 64.631896,45.430186 63.440724,40.30127 61.63938,35.579515 59.828054,30.83159 57.384837,26.48778 52.69585,23.796809 A 0.86786202,0.46435484 15.752755 0 0 51.978685,23.21189 0.86786202,0.46435484 15.752755 0 0 51.580212,23.15357 Z" />
  <path
     id="path23"
     style="font-variation-settings:'wght' 400;display:none;fill:url(#linearGradient59);fill-opacity:1;stroke:#ffffff;stroke-width:0.264583;stroke-linecap:round;stroke-linejoin:round;stroke-dasharray:none;stroke-opacity:1;paint-order:markers stroke fill"
     d="m 51.580212,23.153571 a 0.86786202,0.46435484 15.752755 0 0 -0.562806,0.269479 0.86786202,0.46435484 15.752755 0 0 0.709143,0.682695 0.86786202,0.46435484 15.752755 0 0 0.808654,-0.03144 c 4.604768,2.641393 7.003779,6.900167 8.804348,11.619891 1.791785,4.696704 2.981976,9.83875 5.169744,14.241187 a 3.1892645,4.7207864 0 0 0 -1.9657,4.356323 3.1892645,4.7207864 0 0 0 1.780338,4.231874 2.6770552,21.896342 0 0 0 -1.268264,18.611166 2.6770552,21.896342 0 0 0 2.677011,21.896507 2.6770552,21.896342 0 0 0 2.677228,-21.896507 2.6770552,21.896342 0 0 0 -1.26718,-18.612032 3.1892645,4.7207864 0 0 0 1.779255,-4.231008 3.1892645,4.7207864 0 0 0 -1.964616,-4.358495 c 2.187069,-4.401946 3.377174,-9.543095 5.16866,-14.239015 1.800568,-4.719724 4.199579,-8.978498 8.804348,-11.619891 a 0.46435484,0.86786202 74.247245 0 0 0.808653,0.03144 0.46435484,0.86786202 74.247245 0 0 0.709143,-0.682695 0.46435484,0.86786202 74.247245 0 0 -0.562805,-0.269479 0.46435484,0.86786202 74.247245 0 0 -0.398473,0.05832 0.46435484,0.86786202 74.247245 0 0 -0.717165,0.58492 c -4.688988,2.69097 -7.132206,7.034781 -8.943531,11.782706 -1.801171,4.721303 -2.992473,9.849638 -5.152184,14.20216 A 3.1892645,4.7207864 0 0 0 67.73268,49.570951 3.1892645,4.7207864 0 0 0 66.791998,49.782978 C 64.631896,45.430186 63.440724,40.30127 61.63938,35.579515 59.828054,30.83159 57.384837,26.48778 52.69585,23.796809 A 0.86786202,0.46435484 15.752755 0 0 51.978685,23.21189 0.86786202,0.46435484 15.752755 0 0 51.580212,23.15357 Z"
     sodipodi:insensitive="true" />
  <ellipse
     style="display:inline;opacity:0.4;mix-blend-mode:normal;fill:url(#linearGradient114);fill-opacity:1;stroke:none;stroke-width:0.264583;stroke-linecap:round;stroke-linejoin:round;stroke-dasharray:none;stroke-opacity:1;paint-order:markers stroke fill;filter:url(#filter64)"
     id="path62"
     cx="179.77502"
     cy="61.097885"
     rx="1.65774"
     ry="25.548578"
     clip-path="url(#clipPath112)"
     transform="translate(-112.04224,13.194589)" />
  <path
     id="path88"
     style="opacity:0.4;fill:#ffeeaa;stroke-width:1.6;stroke-linecap:round;stroke-linejoin:round;paint-order:markers stroke fill"
     d="m 25.027806,104.26827 c -3.423238,3.42324 -4.750327,2.40783 -6.195134,0.96303 -1.444807,-1.44481 -2.460215,-2.7719 0.963023,-6.195136 3.423237,-3.423238 7.369568,-5.027072 8.814375,-3.582265 1.444807,1.444808 -0.159027,5.391141 -3.582264,8.814371 z"
     sodipodi:nodetypes="sssss" />
  <path
     id="path89"
     style="opacity:0.4;fill:#ffeeaa;stroke-width:1.6;stroke-linecap:round;stroke-linejoin:round;paint-order:markers stroke fill"
     d="m 110.50208,104.26827 c 3.42323,3.42324 4.75033,2.40783 6.19513,0.96303 1.44481,-1.44481 2.46022,-2.7719 -0.96302,-6.195136 -3.42324,-3.423238 -7.36957,-5.027072 -8.81438,-3.582265 -1.44481,1.444808 0.15903,5.391141 3.58227,8.814371 z"
     sodipodi:nodetypes="sssss" />
  <path
     id="path75"
     style="opacity:0.4;fill:#55ff99;stroke-width:1.05833;stroke-linecap:round;stroke-linejoin:round;paint-order:markers stroke fill;fill-opacity:1"
     d="m 37.651878,35.384945 c 10e-7,-2.644166 -5.59499,-4.87706 -8.38211,-4.87706 -2.78712,0 -5.046527,1.085188 -5.046527,3.729355 0,2.644167 2.259407,4.787688 5.046527,4.787687 2.787119,0 8.38211,-0.995815 8.38211,-3.639982 z"
     sodipodi:nodetypes="sssss" />
  <path
     id="path76"
     style="opacity:0.4;fill:#55ff99;stroke-width:1.05833;stroke-linecap:round;stroke-linejoin:round;paint-order:markers stroke fill;fill-opacity:1"
     d="m 97.777411,35.384945 c -10e-7,-2.644166 5.594979,-4.87706 8.382099,-4.87706 2.78712,0 5.04653,1.085188 5.04653,3.729355 0,2.644167 -2.25941,4.787688 -5.04653,4.787687 -2.78712,0 -8.382099,-0.995815 -8.382099,-3.639982 z"
     sodipodi:nodetypes="sssss" />
  <path
     id="path77"
     style="opacity:0.4;fill:#55ff99;stroke-width:1.05833;stroke-linecap:round;stroke-linejoin:round;paint-order:markers stroke fill;fill-opacity:1"
     d="m 98.826127,43.428707 c 0,1.957582 -1.828978,3.544515 -4.085137,3.544515 -2.256159,0 -6.365281,0.706285 -6.365281,-1.251297 0,-0.910479 2.222411,-4.513197 2.872669,-5.140944 0.747833,-0.721946 2.285801,-0.696789 3.492612,-0.696789 2.256159,0 4.085137,1.586933 4.085137,3.544515 z"
     sodipodi:nodetypes="ssssss" />
  <path
     id="path78"
     style="opacity:0.4;fill:#55ff99;stroke-width:1.05833;stroke-linecap:round;stroke-linejoin:round;paint-order:markers stroke fill;fill-opacity:1"
     d="m 36.610917,43.428707 c 0,1.957582 1.828978,3.544515 4.085137,3.544515 2.256159,0 6.365281,0.706285 6.365281,-1.251297 0,-0.910479 -2.222411,-4.513197 -2.872669,-5.140944 -0.747833,-0.721946 -2.285801,-0.696789 -3.492612,-0.696789 -2.256159,0 -4.085137,1.586933 -4.085137,3.544515 z"
     sodipodi:nodetypes="ssssss" />
  <path
     id="path108"
     style="opacity:0.4;fill:#55ff99;stroke-width:5.99998;stroke-linecap:round;stroke-linejoin:round;paint-order:markers stroke fill"
     d="m 33.246411,63.212073 c -2.94176,1.698426 -6.120111,1.700745 -7.099046,0.0052 -0.978935,-1.695565 1.336454,-3.192577 4.278215,-4.891003 2.94176,-1.698427 5.531955,-7.127112 6.51089,-5.431547 0.978935,1.695565 -0.748298,8.618944 -3.690059,10.31737 z"
     sodipodi:nodetypes="sssss" />
  <path
     id="path109"
     style="opacity:0.4;fill:#55ff99;stroke-width:5.99998;stroke-linecap:round;stroke-linejoin:round;paint-order:markers stroke fill"
     d="m 102.3806,63.212073 c 2.94177,1.698426 6.12012,1.700745 7.09906,0.0052 0.97894,-1.695565 -1.33646,-3.192577 -4.27822,-4.891003 -2.94177,-1.698427 -5.531973,-7.127112 -6.510908,-5.431547 -0.978935,1.695565 0.748298,8.618944 3.690068,10.31737 z"
     sodipodi:nodetypes="sssss" />
  <path
     id="path110"
     style="opacity:0.4;fill:#55ff99;stroke-width:6.00001;stroke-linecap:round;stroke-linejoin:round;paint-order:markers stroke fill"
     d="m 110.44251,51.505245 c 0.47324,1.766169 2.15098,2.851177 3.7473,2.423442 0.76195,-0.204161 3.42104,1.07637 3.79457,0.404964 0.40908,-0.735252 -1.51365,-3.45422 -1.761,-4.377385 -0.47324,-1.766168 -2.15099,-2.851175 -3.74732,-2.423437 -0.77636,0.208022 -3.08585,-0.141999 -3.45748,0.548181 -0.3925,0.728989 1.18083,2.517001 1.42393,3.424235 z"
     sodipodi:nodetypes="sssssss" />
  <path
     id="path111"
     style="opacity:0.4;fill:#55ff99;stroke-width:6.00001;stroke-linecap:round;stroke-linejoin:round;paint-order:markers stroke fill"
     d="m 26.064079,52.027816 c -0.534071,1.993183 -2.42746,3.21765 -4.228967,2.734938 -0.859877,-0.230404 -3.860751,1.214719 -4.282296,0.457015 -0.461653,-0.829757 1.708201,-3.898206 1.987356,-4.940029 0.534072,-1.993181 2.427461,-3.217648 4.228983,-2.734931 0.876138,0.23476 3.482472,-0.160251 3.901877,0.618641 0.442963,0.822689 -1.332614,2.840521 -1.606953,3.864366 z"
     sodipodi:nodetypes="sssssss" />
  <path
     id="path1"
     style="opacity:0.4;fill:#ffeeaa;stroke-width:6.00001;stroke-linecap:round;stroke-linejoin:round;paint-order:markers stroke fill"
     d="m 28.498309,86.02816 c 0,0 -1.565088,2.80393 -3.495722,2.80393 -0.965318,0 -3.575888,1.622918 -4.208489,1.115507 -1.363091,-1.093339 -0.494836,-5.583427 0.86832,-6.676818 0.632601,-0.507411 2.374851,-0.04655 3.340169,-0.04655 1.930634,0 3.495722,2.803929 3.495722,2.803929 z"
     sodipodi:nodetypes="cssssc" />
  <path
     id="path2"
     style="opacity:0.4;fill:#ffeeaa;stroke-width:6.00001;stroke-linecap:round;stroke-linejoin:round;paint-order:markers stroke fill"
     d="m 106.96835,86.02816 c 0,0 1.56509,2.80393 3.49572,2.80393 0.96532,0 3.57589,1.622918 4.20849,1.115507 1.36309,-1.093339 0.49484,-5.583427 -0.86832,-6.676818 -0.6326,-0.507411 -2.37485,-0.04655 -3.34017,-0.04655 -1.93063,0 -3.49572,2.803929 -3.49572,2.803929 z"
     sodipodi:nodetypes="cssssc" />
  <path
     id="rect2"
     style="opacity:0.4;fill:#ffeeaa;stroke-width:6.00001;stroke-linecap:round;stroke-linejoin:round;paint-order:markers stroke fill"
     d="m 99.744813,75.871422 c 0.466677,-0.692729 1.111197,-0.19238 1.842497,-0.839476 0.42751,-0.378289 0.39546,-1.257382 0.80793,-1.430559 1.11806,-0.469415 3.77166,-0.328049 3.77166,-0.328049 0,0 -0.43554,1.858948 0.0394,2.798034 0.47487,0.939101 2.80202,2.123388 2.80202,2.123388 l -3.61148,0.605474 -2.73627,0.839981 c 0,0 -2.49871,0.156937 -3.042337,-0.784647 -0.54363,-0.941586 -0.34006,-2.291417 0.12662,-2.984146 z"
     sodipodi:nodetypes="zssczccczz" />
  <path
     id="path3"
     style="opacity:0.4;fill:#ffeeaa;stroke-width:6.00001;stroke-linecap:round;stroke-linejoin:round;paint-order:markers stroke fill"
     d="m 35.721845,75.871422 c -0.46668,-0.692729 -1.1112,-0.19238 -1.8425,-0.839476 -0.42751,-0.378289 -0.39546,-1.257382 -0.80793,-1.430559 -1.11806,-0.469415 -3.771661,-0.328049 -3.771661,-0.328049 0,0 0.43554,1.858948 -0.0394,2.798034 -0.47487,0.939101 -2.80202,2.123388 -2.80202,2.123388 l 3.61148,0.605474 2.736271,0.839981 c 0,0 2.49871,0.156937 3.04234,-0.784647 0.54363,-0.941586 0.34006,-2.291417 -0.12662,-2.984146 z"
     sodipodi:nodetypes="zssczccczz" />
  <path
     id="path4"
     style="opacity:0.4;fill:#ffeeaa;fill-opacity:1;stroke-width:6.00001;stroke-linecap:round;stroke-linejoin:round;paint-order:markers stroke fill"
     d="m 47.121113,90.91987 c -1.778789,1.778824 -2.64001,3.80151 -1.923567,4.517735 0.358112,0.358222 1.042841,0.322028 1.860393,-0.02607 0.817552,-0.348099 1.251618,-1.524414 2.141031,-2.413809 0.889395,-0.889412 2.065709,-1.323478 2.413808,-2.14103 0.348099,-0.817553 0.384293,-1.502281 0.02607,-1.860393 -0.716226,-0.716444 -2.738911,0.144778 -4.517735,1.923567 z"
     sodipodi:nodetypes="ccscscc" />
  <path
     id="path5"
     style="opacity:0.4;fill:#ffeeaa;fill-opacity:1;stroke-width:6.00001;stroke-linecap:round;stroke-linejoin:round;paint-order:markers stroke fill"
     d="m 88.344452,90.91987 c 1.778789,1.778824 2.64001,3.80151 1.923567,4.517735 -0.358112,0.358222 -1.042841,0.322028 -1.860393,-0.02607 -0.817552,-0.348099 -1.251618,-1.524414 -2.141031,-2.413809 -0.889395,-0.889412 -2.065709,-1.323478 -2.413808,-2.14103 -0.348099,-0.817553 -0.384293,-1.502281 -0.02607,-1.860393 0.716226,-0.716444 2.738911,0.144778 4.517735,1.923567 z"
     sodipodi:nodetypes="ccscscc" />
  <path
     id="rect5"
     style="opacity:0.4;fill:#ffeeaa;stroke-width:6;stroke-linecap:round;stroke-linejoin:round;paint-order:markers stroke fill"
     d="m 38.959311,96.315282 c 0.935908,-0.124767 1.194624,2.026319 1.338705,2.681013 0.184545,0.803669 1.010494,1.103825 0.536022,1.787635 -0.474472,0.6838 -1.152595,1.04295 -2.0534,1.07205 -0.900806,0.029 -2.796352,2.30862 -3.304121,1.22329 -0.507769,-1.08534 1.679214,-3.687776 2.14409,-4.440322 0.515916,-0.571723 0.811809,-2.181542 1.338704,-2.323666 z"
     sodipodi:nodetypes="zzzzzzz" />
  <path
     id="path6"
     style="opacity:0.4;fill:#ffeeaa;stroke-width:6;stroke-linecap:round;stroke-linejoin:round;paint-order:markers stroke fill"
     d="m 96.157806,96.315282 c -0.935908,-0.124767 -1.194624,2.026319 -1.338705,2.681013 -0.184545,0.803669 -1.010494,1.103825 -0.536022,1.787635 0.474472,0.6838 1.152595,1.04295 2.0534,1.07205 0.900806,0.029 2.796352,2.30862 3.304124,1.22329 0.507767,-1.08534 -1.679217,-3.687776 -2.144093,-4.440322 -0.515916,-0.571723 -0.811809,-2.181542 -1.338704,-2.323666 z"
     sodipodi:nodetypes="zzzzzzz" />
  <path
     id="path7"
     style="display:none;opacity:0.4;fill:#55ff99;fill-opacity:1;stroke-width:6;stroke-linecap:round;stroke-linejoin:round;paint-order:markers stroke fill"
     d="m 48.988152,57.566637 c 0.935908,-0.124767 2.641107,1.442777 2.785188,2.097471 0.184545,0.803669 5.467524,0.898439 4.993052,1.582249 -0.474472,0.6838 -5.754669,2.274446 -6.655474,2.303546 -0.900806,0.029 -4.097791,1.866052 -4.60556,0.780722 -0.507769,-1.08534 2.066351,-2.331722 2.531227,-3.084268 0.515916,-0.571723 0.424672,-3.537596 0.951567,-3.67972 z"
     sodipodi:nodetypes="zzzzzzz" />
  <path
     id="path8"
     style="display:none;opacity:0.4;fill:#55ff99;fill-opacity:1;stroke-width:6;stroke-linecap:round;stroke-linejoin:round;paint-order:markers stroke fill"
     d="m 86.585235,57.566637 c -0.935908,-0.124767 -2.641107,1.442777 -2.785188,2.097471 -0.184545,0.803669 -5.467524,0.898439 -4.993052,1.582249 0.474472,0.6838 5.754669,2.274446 6.655474,2.303546 0.900806,0.029 4.097791,1.866052 4.60556,0.780722 0.507769,-1.08534 -2.066351,-2.331722 -2.531227,-3.084268 -0.515916,-0.571723 -0.424672,-3.537596 -0.951567,-3.67972 z"
     sodipodi:nodetypes="zzzzzzz" />
</g>
<metadata
   id="metadata1">
  <rdf:RDF>
    <cc:Work
       rdf:about="">
      <dc:creator>
        <cc:Agent>
          <dc:title>Jess Tipton</dc:title>
        </cc:Agent>
      </dc:creator>
      <dc:publisher>
        <cc:Agent>
          <dc:title>m0dw3rks.com</dc:title>
        </cc:Agent>
      </dc:publisher>
      <cc:license
         rdf:resource="https://creativecommons.org/licenses/by-nc-nd/4.0/deed.en" />
    </cc:Work>
  </rdf:RDF>
</metadata>
<metadata
   id="metadata6">
  <rdf:RDF>
    <cc:Work
       rdf:about="">
      <dc:creator>
        <cc:Agent>
          <dc:title>Jess Tipton</dc:title>
        </cc:Agent>
      </dc:creator>
      <cc:license
         rdf:resource="https://creativecommons.org/licenses/by-nc-nd/4.0/deed.en" />
      <dc:publisher>
        <cc:Agent>
          <dc:title>m0dw3rks.com</dc:title>
        </cc:Agent>
      </dc:publisher>
    </cc:Work>
  </rdf:RDF>
</metadata>
<metadata
   id="metadata2">
  <rdf:RDF>
    <cc:Work
       rdf:about="">
      <dc:creator>
        <cc:Agent>
          <dc:title>Jess Tipton</dc:title>
        </cc:Agent>
      </dc:creator>
      <cc:license
         rdf:resource="https://creativecommons.org/licenses/by-nc-nd/4.0/deed.en" />
      <dc:publisher>
        <cc:Agent>
          <dc:title>m0dw3rks.com</dc:title>
        </cc:Agent>
      </dc:publisher>
    </cc:Work>
  </rdf:RDF>
</metadata>
<metadata
   id="metadata3">
  <rdf:RDF>
    <cc:Work
       rdf:about="">
      <dc:creator>
        <cc:Agent>
          <dc:title>Jess Tipton</dc:title>
        </cc:Agent>
      </dc:creator>
      <cc:license
         rdf:resource="https://creativecommons.org/licenses/by-nc-nd/4.0/deed.en" />
      <dc:publisher>
        <cc:Agent>
          <dc:title>m0dw3rks.com</dc:title>
        </cc:Agent>
      </dc:publisher>
    </cc:Work>
  </rdf:RDF>
</metadata>
<metadata
   id="metadata4">
  <rdf:RDF>
    <cc:Work
       rdf:about="">
      <dc:creator>
        <cc:Agent>
          <dc:title>Jess Tipton</dc:title>
        </cc:Agent>
      </dc:creator>
      <cc:license
         rdf:resource="https://creativecommons.org/licenses/by-nc-nd/4.0/deed.en" />
      <dc:publisher>
        <cc:Agent>
          <dc:title>m0dw3rks.com</dc:title>
        </cc:Agent>
      </dc:publisher>
    </cc:Work>
  </rdf:RDF>
</metadata>
<metadata
   id="metadata5">
  <rdf:RDF>
    <cc:Work
       rdf:about="">
      <dc:creator>
        <cc:Agent>
          <dc:title>Jess Tipton</dc:title>
        </cc:Agent>
      </dc:creator>
      <cc:license
         rdf:resource="https://creativecommons.org/licenses/by-nc-nd/4.0/deed.en" />
      <dc:publisher>
        <cc:Agent>
          <dc:title>m0dw3rks.com</dc:title>
        </cc:Agent>
      </dc:publisher>
    </cc:Work>
  </rdf:RDF>
</metadata>
<metadata
   id="metadata7">
  <rdf:RDF>
    <cc:Work
       rdf:about="">
      <dc:creator>
        <cc:Agent>
          <dc:title>Jess Tipton</dc:title>
        </cc:Agent>
      </dc:creator>
      <cc:license
         rdf:resource="https://creativecommons.org/licenses/by-nc-nd/4.0/deed.en" />
      <dc:publisher>
        <cc:Agent>
          <dc:title>m0dw3rks.com</dc:title>
        </cc:Agent>
      </dc:publisher>
    </cc:Work>
  </rdf:RDF>
</metadata>
<metadata
   id="metadata8">
  <rdf:RDF>
    <cc:Work
       rdf:about="">
      <dc:creator>
        <cc:Agent>
          <dc:title>Jess Tipton</dc:title>
        </cc:Agent>
      </dc:creator>
      <cc:license
         rdf:resource="https://creativecommons.org/licenses/by-nc-nd/4.0/deed.en" />
      <dc:publisher>
        <cc:Agent>
          <dc:title>m0dw3rks.com</dc:title>
        </cc:Agent>
      </dc:publisher>
    </cc:Work>
  </rdf:RDF>
</metadata>
<metadata
   id="metadata9">
  <rdf:RDF>
    <cc:Work
       rdf:about="">
      <dc:creator>
        <cc:Agent>
          <dc:title>Jess Tipton</dc:title>
        </cc:Agent>
      </dc:creator>
      <cc:license
         rdf:resource="https://creativecommons.org/licenses/by-nc-nd/4.0/deed.en" />
      <dc:publisher>
        <cc:Agent>
          <dc:title>m0dw3rks.com</dc:title>
        </cc:Agent>
      </dc:publisher>
    </cc:Work>
  </rdf:RDF>
</metadata>
<metadata
   id="metadata10">
  <rdf:RDF>
    <cc:Work
       rdf:about="">
      <dc:creator>
        <cc:Agent>
          <dc:title>Jess Tipton</dc:title>
        </cc:Agent>
      </dc:creator>
      <cc:license
         rdf:resource="https://creativecommons.org/licenses/by-nc-nd/4.0/deed.en" />
      <dc:publisher>
        <cc:Agent>
          <dc:title>m0dw3rks.com</dc:title>
        </cc:Agent>
      </dc:publisher>
    </cc:Work>
  </rdf:RDF>
</metadata>
<metadata
   id="metadata11">
  <rdf:RDF>
    <cc:Work
       rdf:about="">
      <dc:creator>
        <cc:Agent>
          <dc:title>Jess Tipton</dc:title>
        </cc:Agent>
      </dc:creator>
      <cc:license
         rdf:resource="https://creativecommons.org/licenses/by-nc-nd/4.0/deed.en" />
      <dc:publisher>
        <cc:Agent>
          <dc:title>m0dw3rks.com</dc:title>
        </cc:Agent>
      </dc:publisher>
    </cc:Work>
  </rdf:RDF>
</metadata>
<metadata
   id="metadata12">
  <rdf:RDF>
    <cc:Work
       rdf:about="">
      <dc:creator>
        <cc:Agent>
          <dc:title>Jess Tipton</dc:title>
        </cc:Agent>
      </dc:creator>
      <cc:license
         rdf:resource="https://creativecommons.org/licenses/by-nc-nd/4.0/deed.en" />
      <dc:publisher>
        <cc:Agent>
          <dc:title>m0dw3rks.com</dc:title>
        </cc:Agent>
      </dc:publisher>
    </cc:Work>
  </rdf:RDF>
</metadata>
<metadata
   id="metadata13">
  <rdf:RDF>
    <cc:Work
       rdf:about="">
      <dc:creator>
        <cc:Agent>
          <dc:title>Jess Tipton</dc:title>
        </cc:Agent>
      </dc:creator>
      <cc:license
         rdf:resource="https://creativecommons.org/licenses/by-nc-nd/4.0/deed.en" />
      <dc:publisher>
        <cc:Agent>
          <dc:title>m0dw3rks.com</dc:title>
        </cc:Agent>
      </dc:publisher>
    </cc:Work>
  </rdf:RDF>
</metadata>
<metadata
   id="metadata14">
  <rdf:RDF>
    <cc:Work
       rdf:about="">
      <dc:creator>
        <cc:Agent>
          <dc:title>Jess Tipton</dc:title>
        </cc:Agent>
      </dc:creator>
      <cc:license
         rdf:resource="https://creativecommons.org/licenses/by-nc-nd/4.0/deed.en" />
      <dc:publisher>
        <cc:Agent>
          <dc:title>m0dw3rks.com</dc:title>
        </cc:Agent>
      </dc:publisher>
    </cc:Work>
  </rdf:RDF>
</metadata>
<metadata
   id="metadata15">
  <rdf:RDF>
    <cc:Work
       rdf:about="">
      <dc:creator>
        <cc:Agent>
          <dc:title>Jess Tipton</dc:title>
        </cc:Agent>
      </dc:creator>
      <cc:license
         rdf:resource="https://creativecommons.org/licenses/by-nc-nd/4.0/deed.en" />
      <dc:publisher>
        <cc:Agent>
          <dc:title>m0dw3rks.com</dc:title>
        </cc:Agent>
      </dc:publisher>
    </cc:Work>
  </rdf:RDF>
</metadata>
<metadata
   id="metadata16">
  <rdf:RDF>
    <cc:Work
       rdf:about="">
      <dc:creator>
        <cc:Agent>
          <dc:title>Jess Tipton</dc:title>
        </cc:Agent>
      </dc:creator>
      <cc:license
         rdf:resource="https://creativecommons.org/licenses/by-nc-nd/4.0/deed.en" />
      <dc:publisher>
        <cc:Agent>
          <dc:title>m0dw3rks.com</dc:title>
        </cc:Agent>
      </dc:publisher>
    </cc:Work>
  </rdf:RDF>
</metadata>
<metadata
   id="metadata17">
  <rdf:RDF>
    <cc:Work
       rdf:about="">
      <dc:creator>
        <cc:Agent>
          <dc:title>Jess Tipton</dc:title>
        </cc:Agent>
      </dc:creator>
      <cc:license
         rdf:resource="https://creativecommons.org/licenses/by-nc-nd/4.0/deed.en" />
      <dc:publisher>
        <cc:Agent>
          <dc:title>m0dw3rks.com</dc:title>
        </cc:Agent>
      </dc:publisher>
    </cc:Work>
  </rdf:RDF>
</metadata>
<metadata
   id="metadata18">
  <rdf:RDF>
    <cc:Work
       rdf:about="">
      <dc:creator>
        <cc:Agent>
          <dc:title>Jess Tipton</dc:title>
        </cc:Agent>
      </dc:creator>
      <cc:license
         rdf:resource="https://creativecommons.org/licenses/by-nc-nd/4.0/deed.en" />
      <dc:publisher>
        <cc:Agent>
          <dc:title>m0dw3rks.com</dc:title>
        </cc:Agent>
      </dc:publisher>
    </cc:Work>
  </rdf:RDF>
</metadata>
</svg>
