<?xml version="1.0" encoding="UTF-8" standalone="no"?>
<!-- Created with Inkscape (http://www.inkscape.org/) -->

<svg
   width="512"
   height="512"
   viewBox="0 0 135.46666 135.46667"
   version="1.1"
   id="svg5"
   inkscape:version="1.3.2 (091e20ef0f, 2023-11-25, custom)"
   sodipodi:docname="qtfm.svg"
   xmlns:inkscape="http://www.inkscape.org/namespaces/inkscape"
   xmlns:sodipodi="http://sodipodi.sourceforge.net/DTD/sodipodi-0.dtd"
   xmlns="http://www.w3.org/2000/svg"
   xmlns:svg="http://www.w3.org/2000/svg">
  <sodipodi:namedview
     id="namedview7"
     pagecolor="#292929"
     bordercolor="#666666"
     borderopacity="1"
     inkscape:showpageshadow="0"
     inkscape:pageopacity="0"
     inkscape:pagecheckerboard="1"
     inkscape:deskcolor="#1a1a1a"
     inkscape:document-units="px"
     showgrid="false"
     inkscape:zoom="0.921875"
     inkscape:cx="583.05085"
     inkscape:cy="272.27119"
     inkscape:window-width="3256"
     inkscape:window-height="1080"
     inkscape:window-x="1864"
     inkscape:window-y="0"
     inkscape:window-maximized="0"
     inkscape:current-layer="layer1" />
  <defs
     id="defs2">
    <inkscape:path-effect
       effect="fillet_chamfer"
       id="path-effect12"
       is_visible="true"
       lpeversion="1"
       nodesatellites_param="F,0,0,1,0,2.2278676,0,1 @ F,0,0,1,0,2.0634574,0,1 @ F,0,0,1,0,2.1503185,0,1 @ F,0,0,1,0,0,0,1 @ F,0,0,1,0,0,0,1 @ F,0,0,1,0,0,0,1 @ F,0,0,1,0,0,0,1 @ F,0,0,1,0,0,0,1"
       radius="0"
       unit="px"
       method="auto"
       mode="F"
       chamfer_steps="1"
       flexible="false"
       use_knot_distance="true"
       apply_no_radius="true"
       apply_with_radius="true"
       only_selected="false"
       hide_knots="false" />
    <inkscape:path-effect
       effect="fillet_chamfer"
       id="path-effect10"
       is_visible="true"
       lpeversion="1"
       nodesatellites_param="F,0,0,1,0,2.2278676,0,1 @ F,0,0,1,0,2.0634574,0,1 @ F,0,0,1,0,2.1503185,0,1 @ F,0,0,1,0,0,0,1 @ F,0,0,1,0,0,0,1 @ F,0,0,1,0,0,0,1 @ F,0,0,1,0,0,0,1 @ F,0,0,1,0,0,0,1"
       radius="0"
       unit="px"
       method="auto"
       mode="F"
       chamfer_steps="1"
       flexible="false"
       use_knot_distance="true"
       apply_no_radius="true"
       apply_with_radius="true"
       only_selected="false"
       hide_knots="false" />
    <inkscape:path-effect
       effect="fillet_chamfer"
       id="path-effect8"
       is_visible="true"
       lpeversion="1"
       nodesatellites_param="F,0,0,1,0,2.2278676,0,1 @ F,0,0,1,0,2.0634574,0,1 @ F,0,0,1,0,2.1503185,0,1 @ F,0,0,1,0,0,0,1 @ F,0,0,1,0,0,0,1 @ F,0,0,1,0,0,0,1 @ F,0,0,1,0,0,0,1 @ F,0,0,1,0,0,0,1"
       radius="0"
       unit="px"
       method="auto"
       mode="F"
       chamfer_steps="1"
       flexible="false"
       use_knot_distance="true"
       apply_no_radius="true"
       apply_with_radius="true"
       only_selected="false"
       hide_knots="false" />
    <inkscape:path-effect
       effect="fillet_chamfer"
       id="path-effect5"
       is_visible="true"
       lpeversion="1"
       nodesatellites_param="F,0,0,1,0,2.2278676,0,1 @ F,0,0,1,0,2.0634574,0,1 @ F,0,0,1,0,2.1503185,0,1 @ F,0,0,1,0,0,0,1 @ F,0,0,1,0,0,0,1 @ F,0,0,1,0,0,0,1 @ F,0,0,1,0,0,0,1 @ F,0,0,1,0,0,0,1"
       radius="0"
       unit="px"
       method="auto"
       mode="F"
       chamfer_steps="1"
       flexible="false"
       use_knot_distance="true"
       apply_no_radius="true"
       apply_with_radius="true"
       only_selected="false"
       hide_knots="false" />
    <inkscape:path-effect
       effect="fillet_chamfer"
       id="path-effect3"
       is_visible="true"
       lpeversion="1"
       nodesatellites_param="F,0,0,1,0,2.2278676,0,1 @ F,0,0,1,0,2.0634574,0,1 @ F,0,0,1,0,2.1503185,0,1 @ F,0,0,1,0,0,0,1 @ F,0,0,1,0,0,0,1 @ F,0,0,1,0,0,0,1 @ F,0,0,1,0,0,0,1 @ F,0,0,1,0,0,0,1"
       radius="0"
       unit="px"
       method="auto"
       mode="F"
       chamfer_steps="1"
       flexible="false"
       use_knot_distance="true"
       apply_no_radius="true"
       apply_with_radius="true"
       only_selected="false"
       hide_knots="false" />
  </defs>
  <g
     inkscape:label="Layer 1"
     inkscape:groupmode="layer"
     id="layer1">
    <path
       id="path3"
       style="display:none;fill:#c83737;stroke-width:1.79705;stroke-linecap:round;stroke-linejoin:round;paint-order:markers stroke fill"
       d="M 67.733332,0 C 61.500774,0 56.483373,5.0174009 56.483373,11.249959 V 56.483373 H 11.249959 C 5.0174009,56.483373 0,61.500774 0,67.733332 c 0,6.232559 5.0174009,11.24996 11.249959,11.24996 h 45.233414 v 45.233418 c 0,6.23255 5.017401,11.24995 11.249959,11.24995 6.232559,0 11.24996,-5.0174 11.24996,-11.24995 V 78.983292 h 45.233418 c 6.23255,0 11.24995,-5.017401 11.24995,-11.24996 0,-6.232558 -5.0174,-11.249959 -11.24995,-11.249959 H 78.983292 V 11.249959 C 78.983292,5.0174009 73.965891,0 67.733332,0 Z"
       sodipodi:insensitive="true" />
    <path
       id="rect3"
       style="display:none;fill:#c83737;stroke-width:1.4623;stroke-linecap:round;stroke-linejoin:round;paint-order:markers stroke fill"
       d="m 176.72499,26.509792 h 22.59524 a 2.2010939,2.2010939 43.151446 0 1 2.19652,2.059163 l 0.20698,3.203327 a 2.2937488,2.2937488 43.151446 0 0 2.28898,2.145843 h 16.8492 23.1824 23.1824 v 63.392433 h -92.72959 l 0,-68.572898 a 2.2278676,2.2278676 135 0 1 2.22787,-2.227868 z"
       sodipodi:nodetypes="ccccccccc"
       inkscape:path-effect="#path-effect3"
       inkscape:original-d="m 174.49712,26.509792 h 26.88657 l 0.4787,7.408333 h 18.99952 23.1824 23.1824 v 63.392433 h -92.72959 z"
       transform="matrix(1.2289234,0,0,1.2289234,-39.946482,-22.276668)"
       sodipodi:insensitive="true" />
    <path
       id="rect5"
       style="display:none;fill:#c83737;stroke-width:1.79705;stroke-linecap:round;stroke-linejoin:round;paint-order:markers stroke fill"
       d="M 20.275248,0 C 9.0428699,0 0,9.0428699 0,20.275248 V 66.576814 C 0,64.012106 2.0649825,61.947122 4.6296915,61.947122 H 10.754382 V 26.966829 A 2.7378786,2.7378786 0 0 1 13.4922,24.229012 h 27.767813 a 2.7049758,2.7049758 0 0 1 2.699577,2.530595 l 0.254248,3.93671 a 2.8188416,2.8188416 0 0 0 2.813265,2.637048 H 61.947122 V 4.6296915 C 61.947122,2.0649825 64.012106,0 66.576814,0 Z m 48.614603,0 c 2.564708,0 4.629692,2.0649825 4.629692,4.6296915 V 33.333365 h 22.703006 28.489731 v 28.613757 h 6.12469 c 2.56472,0 4.62969,2.064984 4.62969,4.629692 V 20.275248 C 135.46666,9.0428699 126.4238,0 115.19142,0 Z M 0,68.889851 v 46.301569 c 0,11.23238 9.0428699,20.27524 20.275248,20.27524 h 46.301566 c -2.564708,0 -4.629692,-2.06497 -4.629692,-4.62969 V 111.23765 H 10.754382 V 73.519543 H 4.6296915 C 2.0649825,73.519543 0,71.454559 0,68.889851 Z m 135.46666,0 c 0,2.564708 -2.06497,4.629692 -4.62969,4.629692 h -6.12469 V 111.23765 H 73.519543 v 19.59932 c 0,2.56472 -2.064984,4.62969 -4.629692,4.62969 h 46.301569 c 11.23238,0 20.27524,-9.04286 20.27524,-20.27524 z" />
    <path
       id="rect10"
       style="fill:#bcd35f;stroke-width:1.79705;stroke-linecap:round;stroke-linejoin:round;paint-order:markers stroke fill"
       d="M 14.264245 0 C 6.3618841 0 -1.2533172e-15 6.3618841 0 14.264245 L 0 121.20242 C 0 129.10478 6.3618841 135.46666 14.264245 135.46666 L 121.20242 135.46666 C 129.10478 135.46666 135.46666 129.10478 135.46666 121.20242 L 135.46666 14.264245 C 135.46666 6.3618841 129.10478 -1.2533172e-15 121.20242 0 L 14.264245 0 z M 51.800972 7.255371 L 65.672993 7.255371 L 65.672993 24.595398 L 62.204988 24.595398 L 62.204988 28.063403 L 58.736983 28.063403 L 58.736983 24.595398 L 51.800972 24.595398 L 51.800972 7.255371 z M 69.140998 7.255371 L 79.545014 7.255371 L 79.545014 10.723376 L 76.077009 10.723376 L 76.077009 24.595398 L 72.609004 24.595398 L 72.609004 10.723376 L 69.140998 10.723376 L 69.140998 7.255371 z M 83.01302 7.255371 L 96.885041 7.255371 L 96.885041 10.723376 L 86.481025 10.723376 L 86.481025 14.191382 L 93.417036 14.191382 L 93.417036 17.659387 L 86.481025 17.659387 L 86.481025 24.595398 L 83.01302 24.595398 L 83.01302 7.255371 z M 100.35305 7.255371 L 124.62857 7.255371 L 124.62857 24.595398 L 121.16056 24.595398 L 121.16056 10.723376 L 114.22455 10.723376 L 114.22455 24.595398 L 110.75655 24.595398 L 110.75655 10.723376 L 103.82054 10.723376 L 103.82054 24.595398 L 100.35305 24.595398 L 100.35305 7.255371 z M 55.268977 10.723376 L 55.268977 21.127392 L 62.204988 21.127392 L 62.204988 10.723376 L 55.268977 10.723376 z M 13.4922 24.229012 L 41.260013 24.229012 A 2.7049758 2.7049758 0 0 1 43.95959 26.759607 L 44.213838 30.696317 A 2.8188416 2.8188416 0 0 0 47.027103 33.333365 L 67.733332 33.333365 L 96.222549 33.333365 L 124.71228 33.333365 L 124.71228 111.23765 L 10.754382 111.23765 L 10.754382 26.966829 A 2.7378786 2.7378786 0 0 1 13.4922 24.229012 z " />
    <text
       xml:space="preserve"
       style="font-style:normal;font-variant:normal;font-weight:normal;font-stretch:normal;font-size:27.7438px;line-height:1.25;font-family:hooge05_55caps;-inkscape-font-specification:'hooge05_55caps, Normal';font-variant-ligatures:normal;font-variant-caps:normal;font-variant-numeric:normal;font-variant-east-asian:normal;display:none;fill:#000000;fill-opacity:1;stroke:none;stroke-width:0.264582"
       x="204.45474"
       y="66.528114"
       id="text13"
       sodipodi:insensitive="true"><tspan
         sodipodi:role="line"
         id="tspan13"
         style="font-style:normal;font-variant:normal;font-weight:normal;font-stretch:normal;font-size:27.7438px;font-family:hooge05_55caps;-inkscape-font-specification:'hooge05_55caps, Normal';font-variant-ligatures:normal;font-variant-caps:normal;font-variant-numeric:normal;font-variant-east-asian:normal;stroke-width:0.264582"
         x="204.45474"
         y="66.528114">QtFM</tspan></text>
  </g>
</svg>
