<?xml version="1.0" encoding="UTF-8" standalone="no"?>
<!-- Created with Inkscape (http://www.inkscape.org/) -->

<svg
   width="512"
   height="512"
   viewBox="0 0 135.46666 135.46667"
   version="1.1"
   id="svg5"
   inkscape:version="1.4 (e7c3feb100, 2024-10-09)"
   sodipodi:docname="qvidcap.svg"
   xmlns:inkscape="http://www.inkscape.org/namespaces/inkscape"
   xmlns:sodipodi="http://sodipodi.sourceforge.net/DTD/sodipodi-0.dtd"
   xmlns:xlink="http://www.w3.org/1999/xlink"
   xmlns="http://www.w3.org/2000/svg"
   xmlns:svg="http://www.w3.org/2000/svg"
   xmlns:rdf="http://www.w3.org/1999/02/22-rdf-syntax-ns#"
   xmlns:cc="http://creativecommons.org/ns#"
   xmlns:dc="http://purl.org/dc/elements/1.1/">&gt;
  <sodipodi:namedview
   id="namedview7"
   pagecolor="#505050"
   bordercolor="#ffffff"
   borderopacity="1"
   inkscape:showpageshadow="0"
   inkscape:pageopacity="0"
   inkscape:pagecheckerboard="1"
   inkscape:deskcolor="#505050"
   inkscape:document-units="px"
   showgrid="false"
   inkscape:zoom="1.5859376"
   inkscape:cx="292.57142"
   inkscape:cy="357.8325"
   inkscape:window-width="3256"
   inkscape:window-height="1080"
   inkscape:window-x="1864"
   inkscape:window-y="0"
   inkscape:window-maximized="0"
   inkscape:current-layer="layer1" />
<defs
   id="defs2">
  <linearGradient
     inkscape:collect="always"
     id="linearGradient49895">
    <stop
       style="stop-color:#ffffff;stop-opacity:1;"
       offset="0"
       id="stop49891" />
    <stop
       style="stop-color:#1a1a1a;stop-opacity:0;"
       offset="1"
       id="stop49893" />
  </linearGradient>
  <linearGradient
     inkscape:collect="always"
     id="linearGradient45917">
    <stop
       style="stop-color:#000000;stop-opacity:1;"
       offset="0"
       id="stop45913" />
    <stop
       style="stop-color:#000000;stop-opacity:0;"
       offset="1"
       id="stop45915" />
  </linearGradient>
  <linearGradient
     inkscape:collect="always"
     id="linearGradient43600">
    <stop
       style="stop-color:#000000;stop-opacity:1;"
       offset="0"
       id="stop43596" />
    <stop
       style="stop-color:#000000;stop-opacity:0;"
       offset="1"
       id="stop43598" />
  </linearGradient>
  <linearGradient
     inkscape:collect="always"
     id="linearGradient29040">
    <stop
       style="stop-color:#000000;stop-opacity:1;"
       offset="0"
       id="stop29036" />
    <stop
       style="stop-color:#000000;stop-opacity:0;"
       offset="1"
       id="stop29038" />
  </linearGradient>
  <linearGradient
     inkscape:collect="always"
     id="linearGradient12859">
    <stop
       style="stop-color:#020202;stop-opacity:1;"
       offset="0"
       id="stop12855" />
    <stop
       style="stop-color:#939393;stop-opacity:1;"
       offset="1"
       id="stop12857" />
  </linearGradient>
  <linearGradient
     inkscape:collect="always"
     id="linearGradient8106">
    <stop
       style="stop-color:#000000;stop-opacity:1;"
       offset="0"
       id="stop8102" />
    <stop
       style="stop-color:#ffffff;stop-opacity:1;"
       offset="1"
       id="stop8104" />
  </linearGradient>
  <linearGradient
     inkscape:collect="always"
     id="linearGradient6570">
    <stop
       style="stop-color:#f2f2f2;stop-opacity:1;"
       offset="0"
       id="stop6566" />
    <stop
       style="stop-color:#3d3d3d;stop-opacity:1;"
       offset="1"
       id="stop6568" />
  </linearGradient>
  <radialGradient
     inkscape:collect="always"
     xlink:href="#linearGradient6570"
     id="radialGradient6572"
     cx="11.139616"
     cy="-15.449535"
     fx="11.139616"
     fy="-15.449535"
     r="3.7041667"
     gradientUnits="userSpaceOnUse"
     gradientTransform="matrix(0,-0.96494832,0.96494832,0,28.292824,34.049672)" />
  <linearGradient
     inkscape:collect="always"
     xlink:href="#linearGradient8106"
     id="linearGradient8108"
     x1="11.256661"
     y1="22.93025"
     x2="11.256661"
     y2="15.521917"
     gradientUnits="userSpaceOnUse"
     gradientTransform="matrix(0.96494832,0,0,0.96494832,2.52273,4.7483337)" />
  <radialGradient
     inkscape:collect="always"
     xlink:href="#linearGradient6570"
     id="radialGradient6572-6"
     cx="11.139616"
     cy="-15.449535"
     fx="11.139616"
     fy="-15.449535"
     r="3.7041667"
     gradientUnits="userSpaceOnUse"
     gradientTransform="matrix(0,-0.96494832,0.96494832,0,28.292824,52.601062)" />
  <linearGradient
     inkscape:collect="always"
     xlink:href="#linearGradient8106"
     id="linearGradient9042"
     gradientUnits="userSpaceOnUse"
     x1="11.256661"
     y1="22.93025"
     x2="11.256661"
     y2="15.521917"
     gradientTransform="matrix(0.96494832,0,0,0.96494832,2.5227296,23.299724)" />
  <radialGradient
     inkscape:collect="always"
     xlink:href="#linearGradient6570"
     id="radialGradient6572-2"
     cx="11.139616"
     cy="-15.449535"
     fx="11.139616"
     fy="-15.449535"
     r="3.7041667"
     gradientUnits="userSpaceOnUse"
     gradientTransform="matrix(0,-0.96494832,0.96494832,0,46.164469,52.60106)" />
  <linearGradient
     inkscape:collect="always"
     xlink:href="#linearGradient8106"
     id="linearGradient9074"
     gradientUnits="userSpaceOnUse"
     x1="11.256661"
     y1="22.93025"
     x2="11.256661"
     y2="15.521917"
     gradientTransform="matrix(0.96494832,0,0,0.96494832,20.394376,23.299722)" />
  <filter
     inkscape:collect="always"
     style="color-interpolation-filters:sRGB"
     id="filter11317"
     x="-0.030717186"
     y="-0.030722814"
     width="1.0614344"
     height="1.0614456">
    <feGaussianBlur
       inkscape:collect="always"
       stdDeviation="0.38500363"
       id="feGaussianBlur11319" />
  </filter>
  <linearGradient
     inkscape:collect="always"
     xlink:href="#linearGradient12859"
     id="linearGradient12861"
     x1="18.546303"
     y1="46.089077"
     x2="17.578976"
     y2="12.548282"
     gradientUnits="userSpaceOnUse"
     gradientTransform="matrix(0.96494832,0,0,0.96494832,2.52273,4.7483337)" />
  <filter
     inkscape:collect="always"
     style="color-interpolation-filters:sRGB"
     id="filter15856"
     x="-0.011999999"
     y="-0.012"
     width="1.024"
     height="1.024">
    <feGaussianBlur
       inkscape:collect="always"
       stdDeviation="0.16770508"
       id="feGaussianBlur15858" />
  </filter>
  <linearGradient
     inkscape:collect="always"
     xlink:href="#linearGradient29040"
     id="linearGradient29042"
     x1="-123.12119"
     y1="117.53318"
     x2="-123.12119"
     y2="119.17988"
     gradientUnits="userSpaceOnUse"
     gradientTransform="matrix(1,0,0,0.90654823,191.00308,-54.032489)" />
  <linearGradient
     inkscape:collect="always"
     xlink:href="#linearGradient43600"
     id="linearGradient43602"
     x1="-14.541992"
     y1="-11.744141"
     x2="-14.541992"
     y2="-30.164062"
     gradientUnits="userSpaceOnUse"
     gradientTransform="translate(82.42387,63.731166)" />
  <linearGradient
     inkscape:collect="always"
     xlink:href="#linearGradient45917"
     id="linearGradient45919"
     x1="-58.223633"
     y1="28.5516"
     x2="-58.223633"
     y2="-3.4863281"
     gradientUnits="userSpaceOnUse"
     gradientTransform="translate(125.75282,4.05185)" />
  <linearGradient
     inkscape:collect="always"
     xlink:href="#linearGradient49895"
     id="linearGradient49897"
     x1="-80.689491"
     y1="139.3423"
     x2="-80.689491"
     y2="39.012726"
     gradientUnits="userSpaceOnUse"
     gradientTransform="translate(148.57139,-4.9245051)" />
  <filter
     inkscape:collect="always"
     style="color-interpolation-filters:sRGB"
     id="filter28"
     x="-0.015825481"
     y="-0.027344767"
     width="1.031651"
     height="1.0546895">
    <feGaussianBlur
       inkscape:collect="always"
       stdDeviation="0.68815891"
       id="feGaussianBlur28" />
  </filter>
  <filter
     inkscape:collect="always"
     style="color-interpolation-filters:sRGB"
     id="filter29"
     x="-0.0038450125"
     y="-0.0049288815"
     width="1.00769"
     height="1.0098578">
    <feGaussianBlur
       inkscape:collect="always"
       stdDeviation="0.20604691"
       id="feGaussianBlur29" />
  </filter>
</defs>
<g
   inkscape:label="Layer 1"
   inkscape:groupmode="layer"
   id="layer1">
  <rect
     style="display:inline;fill:#00559c;fill-opacity:1;stroke-width:1.3276;stroke-linecap:round;stroke-linejoin:round;paint-order:stroke fill markers"
     id="rect792"
     width="130.71832"
     height="102.42732"
     x="2.5227325"
     y="33.039345"
     ry="8.6510534" />
  <path
     id="rect792-5"
     style="display:inline;opacity:0.4;mix-blend-mode:luminosity;fill:url(#linearGradient49897);fill-opacity:1;stroke:none;stroke-width:1.3276;stroke-linecap:round;stroke-linejoin:round;paint-order:stroke fill markers;filter:url(#filter29)"
     d="m 121.35264,34.112604 c -36.90342,-0.02314 -73.807792,-0.01117 -110.711182,0.0074 -3.7604896,0.177164 -7.0746696,3.574765 -7.0362496,7.364617 -0.0659,3.043881 0.005,6.090504 -0.0242,9.135808 0.003,25.610744 -0.0132,51.222271 0.0227,76.832521 0.2356,3.73168 3.6233,6.99454 7.3925296,6.93698 3.09807,0.0632 6.19885,-0.005 9.29824,0.0236 34.975842,-0.003 69.952475,0.0137 104.927822,-0.0227 3.71932,-0.23493 6.97473,-3.60059 6.9364,-7.35723 0.0659,-3.04388 -0.006,-6.0905 0.0242,-9.1358 -0.003,-25.6114 0.0133,-51.223579 -0.0228,-76.834477 -0.23572,-3.716911 -3.59371,-6.968498 -7.34744,-6.936818 -1.15206,-0.06792 -2.30702,-0.02756 -3.46005,-0.01387 z" />
  <g
     id="g13333"
     transform="matrix(0.96494832,0,0,0.96494832,2.52273,4.7483315)"
     style="display:inline">
    <rect
       style="fill:#000000;stroke-width:1.37477;stroke-linecap:round;stroke-linejoin:round;paint-order:stroke fill markers"
       id="rect2354"
       width="135.46666"
       height="20.185192"
       x="2.7270507e-06"
       y="29.318678"
       ry="0" />
    <g
       id="g11818"
       transform="translate(5.4783385,49.50387)">
      <path
         id="rect5008"
         style="fill:#ffffff;stroke-width:1.0872;stroke-linecap:round;stroke-linejoin:round;paint-order:stroke fill markers"
         d="M 8.044501,-20.185191 H 25.313858 L 14.730525,1e-6 H -2.538832 Z"
         sodipodi:nodetypes="ccccc" />
      <path
         id="rect5008-7"
         style="fill:#ffffff;stroke-width:1.0872;stroke-linecap:round;stroke-linejoin:round;paint-order:stroke fill markers"
         d="M 42.583216,-20.185191 H 59.852574 L 49.269241,1e-6 H 31.999883 Z"
         sodipodi:nodetypes="ccccc" />
      <path
         id="rect5008-3"
         style="fill:#ffffff;stroke-width:1.06728;stroke-linecap:round;stroke-linejoin:round;paint-order:stroke fill markers"
         d="M 77.121932,-20.185191 H 93.764228 L 83.180895,1e-6 H 66.538599 Z"
         sodipodi:nodetypes="ccccc" />
      <path
         id="rect5008-7-2"
         style="fill:#ffffff;stroke-width:1.06728;stroke-linecap:round;stroke-linejoin:round;paint-order:stroke fill markers"
         d="m 110.40653,-20.185191 h 16.64229 L 116.46549,1e-6 H 99.823198 Z"
         sodipodi:nodetypes="ccccc" />
    </g>
  </g>
  <path
     id="rect2354-6"
     style="display:inline;opacity:0.3;fill:url(#linearGradient43602);fill-opacity:1;stroke-width:1.32658;stroke-linecap:round;stroke-linejoin:round;paint-order:stroke fill markers"
     d="m 3.0527756,51.987025 c 43.2194014,0 86.4388024,0 129.6582044,0 0,-6.139974 0,-12.279948 0,-18.419921 -43.219402,-10e-7 -86.438803,0 -129.6582044,0 0,6.139973 0,12.279947 0,18.419921 z" />
  <path
     id="rect2354-1"
     style="display:inline;opacity:0.12;mix-blend-mode:normal;fill:#ffffff;stroke-width:1.32658;stroke-linecap:round;stroke-linejoin:round;paint-order:stroke fill markers"
     d="m 2.5225756,33.039345 v 19.47788 H 133.24121 v -19.47788 z m 0.5302,0.529683 H 132.71101 V 51.987025 H 3.0527756 Z" />
  <rect
     style="fill:url(#linearGradient29042);fill-opacity:1;stroke-width:0.367255;stroke-linecap:round;stroke-linejoin:round;paint-order:stroke fill markers;opacity:0.6"
     id="rect2354-7"
     width="130.71832"
     height="1.4928142"
     x="2.5227327"
     y="52.517006"
     ry="0" />
  <g
     id="g18226"
     transform="matrix(0.95869353,-0.10969034,0.10969034,0.95869353,205.96347,-42.730449)"
     inkscape:transform-center-x="-54.143674"
     inkscape:transform-center-y="-6.7162898">
    <path
       id="rect2354-1-2"
       style="fill:#000000;stroke-width:1.37477;stroke-linecap:round;stroke-linejoin:round;paint-order:stroke fill markers"
       d="M -217.31593,-35.206636 V -45.29956 c 0,-5.591293 4.50163,-10.092407 10.09292,-10.092407 h 57.64041 57.640926 10.092407 v 10.092407 10.092924 H -91.941674 -207.22301 Z"
       transform="scale(1,-1)" />
    <g
       id="g11818-2-6"
       transform="matrix(1,0,0,-1,-211.83745,35.206824)">
      <path
         id="rect5008-70-1"
         style="fill:#ffffff;stroke-width:1.0872;stroke-linecap:round;stroke-linejoin:round;paint-order:stroke fill markers"
         d="M 8.044501,-20.185191 H 25.313858 L 14.730525,1e-6 H -2.538832 Z"
         sodipodi:nodetypes="ccccc" />
      <path
         id="rect5008-7-9-8"
         style="fill:#ffffff;stroke-width:1.0872;stroke-linecap:round;stroke-linejoin:round;paint-order:stroke fill markers"
         d="M 42.583216,-20.185191 H 59.852574 L 49.269241,1e-6 H 31.999883 Z"
         sodipodi:nodetypes="ccccc" />
      <path
         id="rect5008-3-3-7"
         style="fill:#ffffff;stroke-width:1.06728;stroke-linecap:round;stroke-linejoin:round;paint-order:stroke fill markers"
         d="M 77.121932,-20.185191 H 93.764228 L 83.180895,1e-6 H 66.538599 Z"
         sodipodi:nodetypes="ccccc" />
      <path
         id="rect5008-7-2-6-9"
         style="fill:#ffffff;stroke-width:1.06728;stroke-linecap:round;stroke-linejoin:round;paint-order:stroke fill markers"
         d="m 110.40653,-20.185191 h 16.64229 L 116.46549,1e-6 H 99.823198 Z"
         sodipodi:nodetypes="ccccc" />
    </g>
  </g>
  <path
     id="rect2354-1-2-5"
     style="fill:url(#linearGradient45919);fill-opacity:1;stroke-width:1.32658;stroke-linecap:round;stroke-linejoin:round;paint-order:stroke fill markers;opacity:0.3"
     d="M 121.74306,1.6123969 C 81.853081,6.1761932 41.963112,10.74004 2.073131,15.303803 c 0.41705,3.363438 0.70354,6.746644 1.20313,10.097656 0.79432,3.909755 4.39776,7.006394 8.38325,7.197292 2.15868,0.05652 4.29199,-0.412198 6.43838,-0.58857 38.295811,-4.381034 76.59158,-8.762468 114.887349,-13.143878 -0.69791,-6.10026 -1.39583,-12.2005207 -2.09375,-18.3007811 -3.04948,0.3489583 -6.09896,0.6979166 -9.14843,1.046875 z" />
  <path
     id="rect2354-1-2-3"
     style="fill:#ffffff;stroke-width:1.32658;stroke-linecap:round;stroke-linejoin:round;paint-order:stroke fill markers;opacity:0.1"
     d="M 131.35661,2.4838218e-4 121.68123,1.1071584 11.16188,13.75238 l -9.6758997,1.106911 1.10691,9.676411 c 0.6133101,5.360332 5.4224801,9.181779 10.7828007,8.568469 l 55.25968,-6.322611 55.260199,-6.322611 9.67537,-1.107426 -1.10691,-9.6753796 z M 130.89152,0.56558938 c 0.69792,6.10025402 1.39601,12.20043562 2.09393,18.30069162 -38.295736,4.381405 -76.591779,8.76287 -114.887559,13.1439 -2.14767,0.17567 -4.28209,0.647381 -6.441991,0.587561 C 7.6715904,32.407026 4.0688404,29.311418 3.2765704,25.401799 2.7767303,22.050745 2.4891103,18.667666 2.0714803,15.304225 41.961421,10.740465 81.851239,6.1763454 121.74118,1.6125534 c 3.05012,-0.348958 6.10021,-0.69800602 9.15034,-1.04696402 z" />
  <path
     style="color:#000000;mix-blend-mode:normal;fill:#000000;stroke-linecap:round;stroke-linejoin:round;paint-order:stroke fill markers;filter:url(#filter15856);opacity:0.40956318"
     d="m 11.252789,12.548171 c -4.1300962,0 -7.4765622,3.346473 -7.4765622,7.476563 v 18.115234 0.472656 c 0,4.13009 3.346527,7.476559 7.4765622,7.476563 h 0.47461 18.113281 c 4.130022,-4e-6 7.476558,-3.346477 7.476563,-7.476563 v -0.472656 c 0,-2.390271 -1.117941,-4.522451 -2.861329,-5.888672 l 0.06055,0.05469 -16.955078,-16.955079 0.05469,0.06055 C 16.25004,13.667031 14.118465,12.548173 11.727404,12.548173 Z m 0,1.376953 h 0.47461 c 1.963142,0 3.689691,0.912091 4.804687,2.335938 a 0.68798382,0.68798382 0 0 0 0.05664,0.0625 L 33.543805,33.27864 a 0.68798382,0.68798382 0 0 0 0.0625,0.05664 c 1.423056,1.11519 2.335938,2.842211 2.335938,4.804687 v 0.472656 c -4e-6,3.391635 -2.709866,6.10156 -6.101563,6.101563 h -18.113281 -0.47461 c -3.3917142,-3e-6 -6.1015622,-2.709922 -6.1015622,-6.101563 V 38.139968 20.024734 c 0,-3.391641 2.709915,-6.09961 6.1015622,-6.09961 z"
     id="path13672"
     transform="matrix(0.95263617,0,0,0.95263617,2.7757038,5.1093071)" />
  <path
     id="rect4308"
     style="fill:#1a1a1a;stroke:url(#linearGradient12861);stroke-width:0.52916666;stroke-linecap:round;stroke-linejoin:round;paint-order:stroke fill markers;stroke-dasharray:none"
     d="m 13.381279,17.52058 c -3.6290508,0 -6.5507753,2.921732 -6.550776,6.550776 v 17.479209 0.457263 c 7e-7,3.629045 2.9217252,6.550277 6.550779,6.55028 h 0.457264 l 17.478706,-3e-6 c 3.629039,-3e-6 6.550776,-2.921235 6.55078,-6.550275 l -10e-7,-0.457263 c 0,-2.100091 -0.979491,-3.961828 -2.50722,-5.159046 L 18.998582,20.029292 C 17.801548,18.500682 15.939336,17.52058 13.838543,17.52058 Z" />
  <path
     id="rect4308-9"
     style="mix-blend-mode:normal;fill:#000000;stroke-width:1.37583;stroke-linecap:round;stroke-linejoin:round;paint-order:stroke fill markers;filter:url(#filter11317);opacity:0.6"
     d="m 10.956274,14.305866 c -3.0918444,0.07239 -5.7347764,3.038785 -5.4254394,6.124217 -0.0028,6.297272 -0.05315,12.598157 0.03011,18.893177 0.28465,2.92822 3.150405,5.296821 6.0859554,5.009609 6.297212,0.0022 12.598273,0.05435 18.893088,-0.03102 2.868301,-0.276308 5.167688,-3.017147 5.042444,-5.88151 0.0547,-1.943282 -0.880524,-3.864672 -2.449266,-5.013663 -5.938019,-5.934431 -11.885287,-11.86416 -17.788218,-17.82933 -1.223823,-0.984577 -2.834259,-1.40817 -4.388672,-1.271485 z"
     transform="matrix(0.96494832,0,0,0.96494832,2.52273,4.7483315)" />
  <circle
     style="fill:url(#radialGradient6572);fill-opacity:1;stroke:url(#linearGradient8108);stroke-width:0.255309;stroke-linecap:round;stroke-linejoin:round;stroke-dasharray:none;paint-order:stroke fill markers"
     id="path5089"
     cx="13.384827"
     cy="23.30051"
     r="3.5743294" />
  <circle
     style="fill:url(#radialGradient6572-6);fill-opacity:1;stroke:url(#linearGradient9042);stroke-width:0.255309;stroke-linecap:round;stroke-linejoin:round;stroke-dasharray:none;paint-order:stroke fill markers"
     id="path5089-6"
     cx="13.384827"
     cy="41.851898"
     r="3.5743294" />
  <circle
     style="fill:url(#radialGradient6572-2);fill-opacity:1;stroke:url(#linearGradient9074);stroke-width:0.255309;stroke-linecap:round;stroke-linejoin:round;stroke-dasharray:none;paint-order:stroke fill markers"
     id="path5089-0"
     cx="31.256472"
     cy="41.851898"
     r="3.5743294" />
  <path
     id="text18"
     style="font-style:normal;font-weight:normal;font-size:7.15265px;line-height:1.25;font-family:sans-serif;fill:#000000;fill-opacity:1;stroke:#000000;stroke-width:0.52916666;stroke-opacity:1;stroke-dasharray:none;paint-order:fill markers stroke;filter:url(#filter28)"
     d="M 18.199406 58.856355 C 17.665341 58.856355 17.221602 58.966186 16.868738 59.185534 C 16.520642 59.404882 16.261121 59.709712 16.089457 60.100724 C 15.917793 60.491735 15.831592 60.949755 15.831592 61.474283 C 15.831592 62.003579 15.917793 62.466015 16.089457 62.861795 C 16.261121 63.257575 16.520642 63.564872 16.868738 63.78422 C 17.221602 64.003568 17.662875 64.113398 18.192171 64.113398 C 18.707162 64.113398 19.13857 64.003568 19.486666 63.78422 C 19.834761 63.564872 20.097266 63.260042 20.273698 62.86903 C 20.454898 62.47325 20.545516 62.010814 20.545516 61.481518 C 20.545516 60.952222 20.454898 60.491735 20.273698 60.100724 C 20.097266 59.704944 19.834761 59.400113 19.486666 59.185534 C 19.13857 58.966186 18.709628 58.856355 18.199406 58.856355 z M 7.3127318 58.934903 L 7.3127318 64.042085 L 7.9566202 64.042085 L 7.9566202 62.053576 L 8.5431477 62.053576 C 9.05337 62.053576 9.4562166 61.977239 9.7518594 61.824649 C 10.052271 61.672059 10.264534 61.474077 10.388513 61.230887 C 10.517261 60.982929 10.581783 60.718475 10.581783 60.437137 C 10.581783 59.960294 10.429109 59.590425 10.12393 59.328161 C 9.81875 59.065897 9.332168 58.934903 8.6645873 58.934903 L 7.3127318 58.934903 z M 11.640116 58.934903 L 11.640116 64.042085 L 12.284005 64.042085 L 12.284005 61.932136 L 13.299963 61.932136 L 14.537097 64.042085 L 15.287956 64.042085 L 13.886491 61.753336 C 14.058154 61.691346 14.220176 61.607611 14.372766 61.502705 C 14.530124 61.393031 14.658652 61.247757 14.758789 61.066556 C 14.858926 60.885356 14.909167 60.658812 14.909167 60.387011 C 14.909167 59.900631 14.756494 59.538161 14.451314 59.299739 C 14.150903 59.056549 13.683534 58.934903 13.049333 58.934903 L 11.640116 58.934903 z M 21.675679 58.934903 L 21.675679 64.042085 L 23.098848 64.042085 C 23.938092 64.042085 24.591629 63.824889 25.058935 63.390962 C 25.53101 62.952266 25.766902 62.301713 25.766902 61.438626 C 25.766902 60.890257 25.66447 60.432236 25.459428 60.065067 C 25.254385 59.693129 24.963319 59.411928 24.586613 59.221191 C 24.209906 59.030453 23.764217 58.934903 23.249227 58.934903 L 21.675679 58.934903 z M 18.199406 59.421178 C 18.776386 59.421178 19.198446 59.60488 19.465478 59.972049 C 19.732511 60.33445 19.865971 60.837779 19.865971 61.481518 C 19.865971 62.125256 19.732511 62.633001 19.465478 63.004939 C 19.198446 63.372108 18.77392 63.55581 18.192171 63.55581 C 17.615191 63.55581 17.190664 63.372108 16.918864 63.004939 C 16.647063 62.633001 16.511137 62.125256 16.511137 61.481518 C 16.511137 60.837779 16.647063 60.33445 16.918864 59.972049 C 17.195433 59.60488 17.622425 59.421178 18.199406 59.421178 z M 7.9566202 59.485774 L 8.6077432 59.485774 C 9.0607444 59.485774 9.3921867 59.566527 9.6019978 59.728653 C 9.8118088 59.89078 9.9167072 60.136537 9.9167072 60.465559 C 9.9167072 60.842265 9.797528 61.109186 9.5591063 61.266544 C 9.3206847 61.423902 8.9582144 61.502705 8.4718342 61.502705 L 7.9566202 61.502705 L 7.9566202 59.485774 z M 22.319051 59.485774 L 23.156209 59.485774 C 23.771337 59.485774 24.245588 59.64533 24.579378 59.964815 C 24.917937 60.279531 25.087357 60.777928 25.087357 61.459814 C 25.087357 62.814049 24.395911 63.491214 23.013065 63.491214 L 22.319051 63.491214 L 22.319051 59.485774 z M 12.284005 59.493009 L 13.013676 59.493009 C 13.433298 59.493009 13.743061 59.564413 13.943335 59.707466 C 14.143609 59.84575 14.244092 60.081643 14.244092 60.415433 C 14.244092 60.734918 14.148542 60.978209 13.957804 61.145104 C 13.767067 61.307231 13.464186 61.3885 13.049333 61.3885 L 12.284005 61.3885 L 12.284005 59.493009 z M 26.868127 63.176505 C 26.748916 63.176505 26.646484 63.212465 26.560652 63.283992 C 26.474821 63.355518 26.431978 63.479113 26.431978 63.655545 C 26.431978 63.827209 26.474821 63.951321 26.560652 64.027616 C 26.646484 64.103911 26.748916 64.142337 26.868127 64.142337 C 26.992106 64.142337 27.097005 64.103911 27.182837 64.027616 C 27.273437 63.951321 27.318746 63.827209 27.318746 63.655545 C 27.318746 63.479113 27.273437 63.355518 27.182837 63.283992 C 27.097005 63.212465 26.992106 63.176505 26.868127 63.176505 z M 7.8263956 65.729837 C 7.5419946 65.729837 7.3127318 65.958583 7.3127318 66.242984 C 7.3127318 66.527385 7.5419946 66.756131 7.8263956 66.756131 L 127.64027 66.756131 C 127.92467 66.756131 128.15393 66.527385 128.15393 66.242984 C 128.15393 65.958583 127.92467 65.729837 127.64027 65.729837 L 7.8263956 65.729837 z M 9.0082356 68.343631 C 8.6887505 68.343631 8.4050833 68.396339 8.1571247 68.501244 C 7.9139346 68.60615 7.7228344 68.756357 7.5845499 68.951863 C 7.4462653 69.1426 7.3773274 69.37356 7.3773274 69.64536 C 7.3773274 70.04114 7.4871583 70.353886 7.7065063 70.582771 C 7.9306226 70.811656 8.2595987 71.004705 8.6935261 71.162064 C 9.0034743 71.271738 9.244299 71.376636 9.4159626 71.476773 C 9.5923946 71.572142 9.7165064 71.67704 9.7880329 71.791483 C 9.8595594 71.905925 9.8950031 72.046267 9.8950031 72.213162 C 9.8950031 72.465889 9.7975035 72.666338 9.6019978 72.814159 C 9.4112604 72.961981 9.1251269 73.035851 8.7436522 73.035851 C 8.4718515 73.035851 8.2068809 73.004823 7.9493855 72.942834 C 7.6966585 72.880844 7.4843954 72.811906 7.3127318 72.735611 L 7.3127318 73.350561 C 7.4748586 73.426856 7.6777733 73.486445 7.9209634 73.529361 C 8.1641535 73.572277 8.4286074 73.593957 8.7147134 73.593957 C 9.2726201 73.593957 9.7163597 73.467379 10.045382 73.214652 C 10.374403 72.961925 10.538891 72.609319 10.538891 72.156318 C 10.538891 71.889286 10.484234 71.667158 10.37456 71.490726 C 10.269655 71.314294 10.112049 71.164087 9.9022378 71.040107 C 9.6971952 70.91136 9.4445559 70.79218 9.1441446 70.682506 C 8.8675755 70.577601 8.6479136 70.480101 8.4857868 70.389501 C 8.3236601 70.298901 8.2069471 70.196469 8.1354206 70.082026 C 8.0638941 69.967584 8.0284504 69.824259 8.0284504 69.652595 C 8.0284504 69.428479 8.1092029 69.24971 8.2713297 69.116194 C 8.4334564 68.977909 8.6742811 68.908971 8.9937662 68.908971 C 9.2178825 68.908971 9.4326119 68.935067 9.6376545 68.987519 C 9.8474656 69.039972 10.040515 69.104494 10.216947 69.180789 L 10.417452 68.629919 C 10.226715 68.544087 10.014451 68.475149 9.7807982 68.422696 C 9.547145 68.370243 9.2895731 68.343631 9.0082356 68.343631 z M 13.764534 68.343631 C 13.240007 68.343631 12.794318 68.455928 12.427148 68.680045 C 12.059979 68.899393 11.781244 69.206689 11.590507 69.602469 C 11.404538 69.993481 11.311454 70.446568 11.311454 70.961559 C 11.311454 71.495624 11.397139 71.960526 11.568803 72.356306 C 11.745235 72.752086 12.007739 73.057433 12.355835 73.272012 C 12.70393 73.486592 13.137805 73.593957 13.657564 73.593957 C 13.938902 73.593957 14.179726 73.57721 14.380001 73.54383 C 14.585043 73.510451 14.782509 73.457744 14.973246 73.386217 L 14.973246 72.828629 C 14.782509 72.88585 14.586993 72.933625 14.386719 72.971772 C 14.186444 73.00992 13.974698 73.028616 13.750582 73.028616 C 13.164064 73.028616 12.722791 72.845432 12.427148 72.478262 C 12.136274 72.106325 11.990999 71.602996 11.990999 70.968794 C 11.990999 70.329824 12.148088 69.827011 12.462805 69.459842 C 12.777522 69.092673 13.20893 68.908971 13.7573 68.908971 C 13.986184 68.908971 14.195981 68.937533 14.386719 68.994754 C 14.582224 69.051975 14.759044 69.116498 14.916402 69.188024 L 15.173751 68.644388 C 14.773202 68.444114 14.303367 68.343631 13.764534 68.343631 z M 73.624962 68.343631 L 71.629219 73.472 L 72.280342 73.472 L 72.888573 71.891735 L 74.912739 71.891735 L 75.527689 73.472 L 76.192764 73.472 L 74.204255 68.343631 L 73.624962 68.343631 z M 68.224775 68.365335 L 68.224775 68.930159 L 69.820027 68.930159 L 69.820027 73.472 L 70.463398 73.472 L 70.463398 68.930159 L 72.051415 68.930159 L 72.051415 68.365335 L 68.224775 68.365335 z M 76.894014 68.365335 L 76.894014 73.472 L 77.537385 73.472 L 77.537385 71.490726 L 78.059834 71.033389 L 79.869542 73.472 L 80.627636 73.472 L 78.524405 70.589489 L 80.548571 68.365335 L 79.797712 68.365335 L 78.417435 69.910461 L 77.974051 70.396736 C 77.82623 70.558863 77.680438 70.720884 77.537385 70.883011 L 77.537385 68.365335 L 76.894014 68.365335 z M 81.321133 68.365335 L 81.321133 73.472 L 84.175223 73.472 L 84.175223 72.907177 L 81.965022 72.907177 L 81.965022 71.083516 L 84.046548 71.083516 L 84.046548 70.52541 L 81.965022 70.52541 L 81.965022 68.930159 L 84.175223 68.930159 L 84.175223 68.365335 L 81.321133 68.365335 z M 16.089457 68.415461 L 16.089457 73.522126 L 18.94303 73.522126 L 18.94303 72.957303 L 16.732829 72.957303 L 16.732829 71.133125 L 18.814355 71.133125 L 18.814355 70.575536 L 16.732829 70.575536 L 16.732829 68.980285 L 18.94303 68.980285 L 18.94303 68.415461 L 16.089457 68.415461 z M 20.065958 68.415461 L 20.065958 73.522126 L 20.659721 73.522126 L 20.659721 70.668554 C 20.659721 70.40629 20.652839 70.151184 20.638533 69.903226 C 20.624228 69.655267 20.611897 69.447937 20.60236 69.281042 L 20.631299 69.281042 L 23.363432 73.522126 L 24.114807 73.522126 L 24.114807 68.415461 L 23.51381 68.415461 L 23.51381 71.297973 C 23.51381 71.450563 23.516276 71.617517 23.521045 71.798717 C 23.530581 71.979918 23.537464 72.146872 23.542232 72.299462 L 23.563936 72.642594 L 23.534997 72.642594 L 20.810099 68.415461 L 20.065958 68.415461 z M 25.502319 68.415461 L 25.502319 73.522126 L 28.355892 73.522126 L 28.355892 72.957303 L 26.145691 72.957303 L 26.145691 71.133125 L 28.227217 71.133125 L 28.227217 70.575536 L 26.145691 70.575536 L 26.145691 68.980285 L 28.355892 68.980285 L 28.355892 68.415461 L 25.502319 68.415461 z M 73.904015 69.009224 C 73.923089 69.066445 73.946718 69.149664 73.975329 69.259338 C 74.008708 69.364243 74.042202 69.466675 74.075581 69.566812 C 74.10896 69.666949 74.133106 69.736404 74.147411 69.774552 L 74.719469 71.31916 L 73.103031 71.31916 L 73.682323 69.774552 C 73.710934 69.693488 73.746894 69.583657 73.78981 69.445373 C 73.832726 69.30232 73.870636 69.157045 73.904015 69.009224 z M 85.5555 69.53839 C 85.436289 69.53839 85.333857 69.573834 85.248025 69.64536 C 85.162194 69.716887 85.119351 69.843465 85.119351 70.024665 C 85.119351 70.196329 85.162194 70.320441 85.248025 70.396736 C 85.333857 70.473031 85.436289 70.510941 85.5555 70.510941 C 85.67948 70.510941 85.784378 70.473031 85.87021 70.396736 C 85.96081 70.320441 86.006119 70.196329 86.006119 70.024665 C 86.006119 69.843465 85.96081 69.716887 85.87021 69.64536 C 85.784378 69.573834 85.67948 69.53839 85.5555 69.53839 z M 29.736686 69.588516 C 29.617475 69.588516 29.515043 69.62396 29.429211 69.695487 C 29.343379 69.767013 29.30002 69.893591 29.30002 70.074792 C 29.30002 70.246455 29.343379 70.370567 29.429211 70.446862 C 29.515043 70.523157 29.617475 70.561067 29.736686 70.561067 C 29.860665 70.561067 29.965564 70.523157 30.051395 70.446862 C 30.141996 70.370567 30.187304 70.246455 30.187304 70.074792 C 30.187304 69.893591 30.141996 69.767013 30.051395 69.695487 C 29.965564 69.62396 29.860665 69.588516 29.736686 69.588516 z M 85.5555 72.606937 C 85.436289 72.606937 85.333857 72.64238 85.248025 72.713907 C 85.162194 72.785433 85.119351 72.909545 85.119351 73.085977 C 85.119351 73.257641 85.162194 73.381753 85.248025 73.458048 C 85.333857 73.534343 85.436289 73.572253 85.5555 73.572253 C 85.67948 73.572253 85.784378 73.534343 85.87021 73.458048 C 85.96081 73.381753 86.006119 73.257641 86.006119 73.085977 C 86.006119 72.909545 85.96081 72.785433 85.87021 72.713907 C 85.784378 72.64238 85.67948 72.606937 85.5555 72.606937 z M 29.736686 72.657063 C 29.617475 72.657063 29.515043 72.692507 29.429211 72.764033 C 29.343379 72.83556 29.30002 72.959671 29.30002 73.136103 C 29.30002 73.307767 29.343379 73.431879 29.429211 73.508174 C 29.515043 73.584469 29.617475 73.622379 29.736686 73.622379 C 29.860665 73.622379 29.965564 73.584469 30.051395 73.508174 C 30.141996 73.431879 30.187304 73.307767 30.187304 73.136103 C 30.187304 72.959671 30.141996 72.83556 30.051395 72.764033 C 29.965564 72.692507 29.860665 72.657063 29.736686 72.657063 z M 34.106962 87.881456 C 33.572897 87.881456 33.129158 87.990771 32.776294 88.210119 C 32.428198 88.429466 32.168677 88.734813 31.997013 89.125825 C 31.825349 89.516836 31.739148 89.974857 31.739148 90.499384 C 31.739148 91.028681 31.825349 91.491117 31.997013 91.886897 C 32.168677 92.282677 32.428198 92.589973 32.776294 92.809321 C 33.129158 93.028669 33.570431 93.1385 34.099727 93.1385 C 34.614718 93.1385 35.046126 93.028669 35.394222 92.809321 C 35.742317 92.589973 36.004822 92.285143 36.181254 91.894131 C 36.362454 91.498351 36.453072 91.035398 36.453072 90.506102 C 36.453072 89.976806 36.362454 89.516836 36.181254 89.125825 C 36.004822 88.730045 35.742317 88.424698 35.394222 88.210119 C 35.046126 87.990771 34.617184 87.881456 34.106962 87.881456 z M 25.838216 87.888691 C 25.313688 87.888691 24.867999 88.000472 24.50083 88.224588 C 24.13366 88.443936 23.854926 88.751749 23.664188 89.147529 C 23.478219 89.538541 23.385136 89.991112 23.385136 90.506102 C 23.385136 91.040167 23.470821 91.505586 23.642484 91.901366 C 23.818916 92.297146 24.081421 92.601976 24.429516 92.816556 C 24.777612 93.031135 25.211486 93.1385 25.731246 93.1385 C 26.012583 93.1385 26.253408 93.121753 26.453682 93.088374 C 26.658725 93.054995 26.85619 93.002804 27.046928 92.931277 L 27.046928 92.373172 C 26.85619 92.430393 26.660674 92.478168 26.4604 92.516316 C 26.260126 92.554463 26.04838 92.573676 25.824263 92.573676 C 25.237746 92.573676 24.796473 92.389975 24.50083 92.022806 C 24.209955 91.650868 24.064681 91.147539 24.064681 90.513337 C 24.064681 89.874367 24.22177 89.371555 24.536487 89.004385 C 24.851203 88.637216 25.282611 88.453515 25.830981 88.453515 C 26.059866 88.453515 26.269663 88.482076 26.4604 88.539297 C 26.655906 88.596519 26.832725 88.661041 26.990083 88.732567 L 27.247432 88.188931 C 26.846884 87.988657 26.377049 87.888691 25.838216 87.888691 z M 7.5705972 87.960005 L 7.5705972 93.067186 L 8.9937662 93.067186 C 9.8330104 93.067186 10.486547 92.849991 10.953853 92.416063 C 11.425928 91.977367 11.66182 91.326297 11.66182 90.463211 C 11.66182 89.914841 11.559388 89.457338 11.354346 89.090168 C 11.149303 88.71823 10.858237 88.437029 10.481531 88.246292 C 10.104824 88.055555 9.6591354 87.960005 9.1441446 87.960005 L 7.5705972 87.960005 z M 12.384257 87.960005 L 12.384257 88.332075 L 12.985254 88.475219 L 12.985254 92.559207 L 12.384257 92.695116 L 12.384257 93.067186 L 14.229622 93.067186 L 14.229622 92.695116 L 13.628625 92.559207 L 13.628625 88.475219 L 14.229622 88.332075 L 14.229622 87.960005 L 12.384257 87.960005 z M 15.216642 87.960005 L 15.216642 93.067186 L 15.86053 93.067186 L 15.86053 90.956721 L 16.875972 90.956721 L 18.113623 93.067186 L 18.864481 93.067186 L 17.4625 90.77792 C 17.634163 90.715931 17.796185 90.632712 17.948775 90.527807 C 18.106133 90.418133 18.235178 90.272858 18.335315 90.091657 C 18.435452 89.910457 18.485176 89.683913 18.485176 89.412112 C 18.485176 88.925732 18.33302 88.563262 18.02784 88.32484 C 17.727429 88.08165 17.26006 87.960005 16.625858 87.960005 L 15.216642 87.960005 z M 19.665466 87.960005 L 19.665466 93.067186 L 22.519555 93.067186 L 22.519555 92.501846 L 20.309354 92.501846 L 20.309354 90.678185 L 22.390881 90.678185 L 22.390881 90.120079 L 20.309354 90.120079 L 20.309354 88.524828 L 22.519555 88.524828 L 22.519555 87.960005 L 19.665466 87.960005 z M 27.540437 87.960005 L 27.540437 88.524828 L 29.135689 88.524828 L 29.135689 93.067186 L 29.779577 93.067186 L 29.779577 88.524828 L 31.367594 88.524828 L 31.367594 87.960005 L 27.540437 87.960005 z M 37.583235 87.960005 L 37.583235 93.067186 L 38.226607 93.067186 L 38.226607 90.956721 L 39.242565 90.956721 L 40.479699 93.067186 L 41.231075 93.067186 L 39.829093 90.77792 C 40.000757 90.715931 40.162778 90.632712 40.315368 90.527807 C 40.472726 90.418133 40.601254 90.272858 40.701391 90.091657 C 40.801528 89.910457 40.85177 89.683913 40.85177 89.412112 C 40.85177 88.925732 40.699096 88.563262 40.393916 88.32484 C 40.093505 88.08165 39.626136 87.960005 38.991935 87.960005 L 37.583235 87.960005 z M 34.106962 88.44628 C 34.683942 88.44628 35.106002 88.629981 35.373034 88.997151 C 35.640066 89.359552 35.773527 89.862364 35.773527 90.506102 C 35.773527 91.149841 35.640066 91.658103 35.373034 92.03004 C 35.106002 92.39721 34.681476 92.580394 34.099727 92.580394 C 33.522747 92.580394 33.09822 92.39721 32.82642 92.03004 C 32.554619 91.658103 32.418693 91.149841 32.418693 90.506102 C 32.418693 89.862364 32.554619 89.359552 32.82642 88.997151 C 33.102989 88.629981 33.529981 88.44628 34.106962 88.44628 z M 8.2139688 88.510875 L 9.051127 88.510875 C 9.6662549 88.510875 10.140506 88.670431 10.474296 88.989916 C 10.812855 89.304632 10.982275 89.803029 10.982275 90.484915 C 10.982275 91.83915 10.290829 92.516316 8.9079833 92.516316 L 8.2139688 92.516316 L 8.2139688 88.510875 z M 15.86053 88.51811 L 16.590202 88.51811 C 17.009824 88.51811 17.319586 88.589514 17.519861 88.732567 C 17.720135 88.870852 17.820101 89.106744 17.820101 89.440534 C 17.820101 89.760019 17.725067 90.00331 17.53433 90.170206 C 17.343593 90.332332 17.040712 90.413602 16.625858 90.413602 L 15.86053 90.413602 L 15.86053 88.51811 z M 38.226607 88.51811 L 38.956278 88.51811 C 39.3759 88.51811 39.685663 88.589514 39.885937 88.732567 C 40.086211 88.870852 40.186694 89.106744 40.186694 89.440534 C 40.186694 89.760019 40.091144 90.00331 39.900406 90.170206 C 39.709669 90.332332 39.406788 90.413602 38.991935 90.413602 L 38.226607 90.413602 L 38.226607 88.51811 z M 42.289408 89.13306 C 42.170197 89.13306 42.067765 89.16902 41.981933 89.240547 C 41.896101 89.312073 41.853259 89.438134 41.853259 89.619335 C 41.853259 89.790998 41.896101 89.91511 41.981933 89.991405 C 42.067765 90.0677 42.170197 90.10561 42.289408 90.10561 C 42.413387 90.10561 42.518286 90.0677 42.604117 89.991405 C 42.694718 89.91511 42.740026 89.790998 42.740026 89.619335 C 42.740026 89.438134 42.694718 89.312073 42.604117 89.240547 C 42.518286 89.16902 42.413387 89.13306 42.289408 89.13306 z M 42.289408 92.201606 C 42.170197 92.201606 42.067765 92.23705 41.981933 92.308576 C 41.896101 92.380103 41.853259 92.504215 41.853259 92.680647 C 41.853259 92.85231 41.896101 92.976422 41.981933 93.052717 C 42.067765 93.129012 42.170197 93.166922 42.289408 93.166922 C 42.413387 93.166922 42.518286 93.129012 42.604117 93.052717 C 42.694718 92.976422 42.740026 92.85231 42.740026 92.680647 C 42.740026 92.504215 42.694718 92.380103 42.604117 92.308576 C 42.518286 92.23705 42.413387 92.201606 42.289408 92.201606 z M 8.066691 94.654686 C 7.78229 94.654686 7.5530273 94.883432 7.5530273 95.167833 C 7.5530273 95.452234 7.78229 95.68098 8.066691 95.68098 L 127.88056 95.68098 C 128.16497 95.68098 128.39371 95.452234 128.39371 95.167833 C 128.39371 94.883432 128.16497 94.654686 127.88056 94.654686 L 8.066691 94.654686 z M 88.281432 97.26848 L 86.285688 102.39737 L 86.936811 102.39737 L 87.544526 100.81658 L 89.568692 100.81658 L 90.183641 102.39737 L 90.849234 102.39737 L 88.860725 97.26848 L 88.281432 97.26848 z M 68.86918 97.290184 L 68.86918 102.39737 L 69.462426 102.39737 L 69.462426 99.299881 C 69.462426 99.02808 69.45801 98.768559 69.448473 98.5206 C 69.438936 98.267873 69.427122 98.067425 69.412817 97.919603 L 69.441239 97.919603 L 71.122273 102.39737 L 71.65144 102.39737 L 73.353661 97.926838 L 73.382083 97.926838 C 73.372546 98.079428 73.360732 98.27741 73.346427 98.5206 C 73.33689 98.76379 73.332474 99.009031 73.332474 99.256989 L 73.332474 102.39737 L 73.968611 102.39737 L 73.968611 97.290184 L 73.024482 97.290184 L 71.422513 101.47443 L 71.394091 101.47443 L 69.820027 97.290184 L 68.86918 97.290184 z M 75.35664 97.290184 L 75.35664 102.39737 L 78.210212 102.39737 L 78.210212 101.83203 L 76.000011 101.83203 L 76.000011 100.00836 L 78.081538 100.00836 L 78.081538 99.450259 L 76.000011 99.450259 L 76.000011 97.855008 L 78.210212 97.855008 L 78.210212 97.290184 L 75.35664 97.290184 z M 79.333141 97.290184 L 79.333141 102.39737 L 80.756827 102.39737 C 81.596071 102.39737 82.249091 102.18017 82.716397 101.74624 C 83.188472 101.30755 83.424364 100.65648 83.424364 99.793391 C 83.424364 99.245021 83.321932 98.787517 83.116889 98.420348 C 82.911847 98.04841 82.621298 97.767209 82.244591 97.576472 C 81.867885 97.385734 81.421679 97.290184 80.906688 97.290184 L 79.333141 97.290184 z M 84.146801 97.290184 L 84.146801 97.662255 L 84.747798 97.805398 L 84.747798 101.88939 L 84.146801 102.0253 L 84.146801 102.39737 L 85.992166 102.39737 L 85.992166 102.0253 L 85.391686 101.88939 L 85.391686 97.805398 L 85.992166 97.662255 L 85.992166 97.290184 L 84.146801 97.290184 z M 79.977029 97.841055 L 80.813671 97.841055 C 81.428799 97.841055 81.903566 98.000611 82.237357 98.320096 C 82.575915 98.634812 82.745336 99.133209 82.745336 99.815095 C 82.745336 101.16933 82.05389 101.8465 80.671044 101.8465 L 79.977029 101.8465 L 79.977029 97.841055 z M 88.559968 97.934073 C 88.579042 97.991294 88.603188 98.074513 88.631798 98.184187 C 88.665177 98.289092 88.698671 98.391524 88.732051 98.491661 C 88.76543 98.591798 88.789059 98.661253 88.803364 98.699401 L 89.375422 100.24401 L 87.758983 100.24401 L 88.338276 98.699401 C 88.366887 98.618337 88.402847 98.508506 88.445763 98.370222 C 88.488679 98.227169 88.526589 98.081894 88.559968 97.934073 z M 91.807315 98.463239 C 91.688104 98.463239 91.585672 98.4992 91.49984 98.570726 C 91.414008 98.642253 91.371166 98.768314 91.371166 98.949515 C 91.371166 99.121178 91.414008 99.24529 91.49984 99.321585 C 91.585672 99.39788 91.688104 99.43579 91.807315 99.43579 C 91.931294 99.43579 92.036193 99.39788 92.122024 99.321585 C 92.212625 99.24529 92.257933 99.121178 92.257933 98.949515 C 92.257933 98.768314 92.212625 98.642253 92.122024 98.570726 C 92.036193 98.4992 91.931294 98.463239 91.807315 98.463239 z M 91.807315 101.53179 C 91.688104 101.53179 91.585672 101.56723 91.49984 101.63876 C 91.414008 101.71028 91.371166 101.83439 91.371166 102.01083 C 91.371166 102.18249 91.414008 102.3066 91.49984 102.3829 C 91.585672 102.45919 91.688104 102.4971 91.807315 102.4971 C 91.931294 102.4971 92.036193 102.45919 92.122024 102.3829 C 92.212625 102.3066 92.257933 102.18249 92.257933 102.01083 C 92.257933 101.83439 92.212625 101.71028 92.122024 101.63876 C 92.036193 101.56723 91.931294 101.53179 91.807315 101.53179 z M 9.7663288 105.77029 C 9.2418012 105.77029 8.7961121 105.88207 8.4289428 106.10618 C 8.0617734 106.32553 7.7825219 106.63334 7.5917846 107.02912 C 7.4058157 107.42014 7.3127318 107.87322 7.3127318 108.38821 C 7.3127318 108.92228 7.3989336 109.38718 7.5705972 109.78296 C 7.7470293 110.17874 8.0090169 110.48357 8.3571125 110.69815 C 8.7052082 110.91273 9.1390826 111.0201 9.6588418 111.0201 C 9.9401794 111.0201 10.181004 111.00335 10.381278 110.96997 C 10.586321 110.93659 10.784303 110.8844 10.975041 110.81287 L 10.975041 110.25477 C 10.784303 110.31199 10.588787 110.35976 10.388513 110.39791 C 10.188239 110.43606 9.9759758 110.45527 9.7518594 110.45527 C 9.1653421 110.45527 8.7245856 110.27157 8.4289428 109.9044 C 8.1380683 109.53246 7.9922769 109.02913 7.9922769 108.39493 C 7.9922769 107.75596 8.1498829 107.25315 8.4645995 106.88598 C 8.7793161 106.51881 9.2107243 106.33511 9.7590941 106.33511 C 9.9879789 106.33511 10.197776 106.36367 10.388513 106.42089 C 10.584019 106.47811 10.760321 106.54264 10.91768 106.61416 L 11.175545 106.07053 C 10.774997 105.87025 10.305162 105.77029 9.7663288 105.77029 z M 13.392981 105.82041 L 11.397237 110.94878 L 12.047843 110.94878 L 12.656075 109.368 L 14.680241 109.368 L 15.29519 110.94878 L 15.960783 110.94878 L 13.972274 105.82041 L 13.392981 105.82041 z M 16.661515 105.8416 L 16.661515 110.94878 L 17.255277 110.94878 L 17.255277 107.8513 C 17.255277 107.5795 17.250345 107.31997 17.240808 107.07202 C 17.231271 106.81929 17.219456 106.61884 17.205151 106.47102 L 17.233573 106.47102 L 18.914608 110.94878 L 19.443774 110.94878 L 21.145996 106.47825 L 21.174935 106.47825 C 21.165398 106.63084 21.153583 106.82883 21.139278 107.07202 C 21.129741 107.31521 21.124808 107.56045 21.124808 107.80841 L 21.124808 110.94878 L 21.761462 110.94878 L 21.761462 105.8416 L 20.817334 105.8416 L 19.214848 110.02584 L 19.186426 110.02584 L 17.612878 105.8416 L 16.661515 105.8416 z M 13.671517 106.48549 C 13.69059 106.54271 13.714736 106.62593 13.743347 106.7356 C 13.776726 106.84051 13.81022 106.94294 13.843599 107.04308 C 13.876978 107.14321 13.900607 107.21267 13.914913 107.25082 L 14.486971 108.79594 L 12.870532 108.79594 L 13.449825 107.25082 C 13.478435 107.16975 13.514396 107.05992 13.557312 106.92164 C 13.600228 106.77858 13.638138 106.63331 13.671517 106.48549 z M 23.406323 107.01466 C 23.287112 107.01466 23.18468 107.05062 23.098848 107.12214 C 23.013016 107.19367 22.970174 107.31973 22.970174 107.50093 C 22.970174 107.67259 23.013016 107.79671 23.098848 107.873 C 23.18468 107.9493 23.287112 107.98721 23.406323 107.98721 C 23.530302 107.98721 23.635201 107.9493 23.721032 107.873 C 23.811633 107.79671 23.856941 107.67259 23.856941 107.50093 C 23.856941 107.31973 23.811633 107.19367 23.721032 107.12214 C 23.635201 107.05062 23.530302 107.01466 23.406323 107.01466 z M 23.406323 110.0832 C 23.287112 110.0832 23.18468 110.11916 23.098848 110.19069 C 23.013016 110.26222 22.970174 110.38581 22.970174 110.56224 C 22.970174 110.73391 23.013016 110.85802 23.098848 110.93431 C 23.18468 111.01061 23.287112 111.04852 23.406323 111.04852 C 23.530302 111.04852 23.635201 111.01061 23.721032 110.93431 C 23.811633 110.85802 23.856941 110.73391 23.856941 110.56224 C 23.856941 110.38581 23.811633 110.26222 23.721032 110.19069 C 23.635201 110.11916 23.530302 110.0832 23.406323 110.0832 z M 7.8263956 112.6107 C 7.5419946 112.6107 7.3127318 112.83944 7.3127318 113.12384 C 7.3127318 113.40824 7.5419946 113.63699 7.8263956 113.63699 L 127.64027 113.63699 C 127.92467 113.63699 128.15393 113.40824 128.15393 113.12384 C 128.15393 112.83944 127.92467 112.6107 127.64027 112.6107 L 7.8263956 112.6107 z M 13.950569 123.70201 L 11.954826 128.83038 L 12.605949 128.83038 L 13.213664 127.2496 L 15.238346 127.2496 L 15.853296 128.83038 L 16.518371 128.83038 L 14.529862 123.70201 L 13.950569 123.70201 z M 7.5705972 123.7232 L 7.5705972 128.83038 L 8.9937662 128.83038 C 9.8330104 128.83038 10.486547 128.61318 10.953853 128.17925 C 11.425928 127.74056 11.66182 127.09001 11.66182 126.22692 C 11.66182 125.67855 11.559388 125.22053 11.354346 124.85336 C 11.149303 124.48142 10.858237 124.20022 10.481531 124.00948 C 10.104824 123.81875 9.6591354 123.7232 9.1441446 123.7232 L 7.5705972 123.7232 z M 16.096175 123.7232 L 16.096175 124.28854 L 17.691426 124.28854 L 17.691426 128.83038 L 18.335315 128.83038 L 18.335315 124.28854 L 19.923331 124.28854 L 19.923331 123.7232 L 16.096175 123.7232 z M 20.695377 123.7232 L 20.695377 128.83038 L 23.549467 128.83038 L 23.549467 128.26504 L 21.339266 128.26504 L 21.339266 126.44138 L 23.420792 126.44138 L 23.420792 125.88327 L 21.339266 125.88327 L 21.339266 124.28854 L 23.549467 124.28854 L 23.549467 123.7232 L 20.695377 123.7232 z M 8.2139688 124.27407 L 9.051127 124.27407 C 9.6662549 124.27407 10.140506 124.43362 10.474296 124.75311 C 10.812855 125.06782 10.982275 125.56622 10.982275 126.24811 C 10.982275 127.60234 10.290829 128.27951 8.9079833 128.27951 L 8.2139688 128.27951 L 8.2139688 124.27407 z M 14.229622 124.36708 C 14.248696 124.42431 14.272325 124.50752 14.300936 124.6172 C 14.334315 124.7221 14.367809 124.82454 14.401188 124.92467 C 14.434567 125.02481 14.458713 125.09426 14.473018 125.13241 L 15.045076 126.67754 L 13.428638 126.67754 L 14.00793 125.13241 C 14.036541 125.05135 14.071985 124.94152 14.114901 124.80323 C 14.157816 124.66018 14.196243 124.51491 14.229622 124.36708 z M 24.929744 124.89625 C 24.810533 124.89625 24.708101 124.93221 24.622269 125.00374 C 24.536438 125.07526 24.493595 125.20133 24.493595 125.38253 C 24.493595 125.55419 24.536438 125.6783 24.622269 125.7546 C 24.708101 125.83089 24.810533 125.86932 24.929744 125.86932 C 25.053723 125.86932 25.158622 125.83089 25.244454 125.7546 C 25.335054 125.6783 25.380363 125.55419 25.380363 125.38253 C 25.380363 125.20133 25.335054 125.07526 25.244454 125.00374 C 25.158622 124.93221 25.053723 124.89625 24.929744 124.89625 z M 24.929744 127.9648 C 24.810533 127.9648 24.708101 128.00076 24.622269 128.07228 C 24.536438 128.14381 24.493595 128.26741 24.493595 128.44384 C 24.493595 128.6155 24.536438 128.73961 24.622269 128.81591 C 24.708101 128.8922 24.810533 128.93063 24.929744 128.93063 C 25.053723 128.93063 25.158622 128.8922 25.244454 128.81591 C 25.335054 128.73961 25.380363 128.6155 25.380363 128.44384 C 25.380363 128.26741 25.335054 128.14381 25.244454 128.07228 C 25.158622 128.00076 25.053723 127.9648 24.929744 127.9648 z "
     inkscape:label="text-shadow" />
  <text
     xml:space="preserve"
     style="font-style:normal;font-weight:normal;font-size:7.15265px;line-height:1.25;font-family:sans-serif;fill:#ffffff;fill-opacity:1;stroke:none;stroke-width:0.178817"
     x="6.6191716"
     y="64.041946"
     id="text20917"><tspan
       sodipodi:role="line"
       id="tspan20915"
       style="fill:#ffffff;stroke-width:0.178817"
       x="6.6191716"
       y="64.041946">PROD.</tspan></text>
  <text
     xml:space="preserve"
     style="font-style:normal;font-weight:normal;font-size:7.15265px;line-height:1.25;font-family:sans-serif;fill:#ffffff;fill-opacity:1;stroke:none;stroke-width:0.178817"
     x="6.9481936"
     y="73.522324"
     id="text20917-0"><tspan
       sodipodi:role="line"
       id="tspan20915-2"
       style="fill:#ffffff;stroke-width:0.178817"
       x="6.9481936"
       y="73.522324">SCENE:</tspan></text>
  <text
     xml:space="preserve"
     style="font-style:normal;font-weight:normal;font-size:7.15265px;line-height:1.25;font-family:sans-serif;fill:#ffffff;fill-opacity:1;stroke:none;stroke-width:0.178817"
     x="6.876667"
     y="93.067009"
     id="text20917-0-9"><tspan
       sodipodi:role="line"
       id="tspan20915-2-2"
       style="fill:#ffffff;stroke-width:0.178817"
       x="6.876667"
       y="93.067009">DIRECTOR:</tspan><tspan
       sodipodi:role="line"
       style="fill:#ffffff;stroke-width:0.178817"
       x="6.876667"
       y="102.00782"
       id="tspan24138" /><tspan
       sodipodi:role="line"
       style="fill:#ffffff;stroke-width:0.178817"
       x="6.876667"
       y="110.94863"
       id="tspan24132">CAM:</tspan><tspan
       sodipodi:role="line"
       style="fill:#ffffff;stroke-width:0.178817"
       x="6.876667"
       y="119.88944"
       id="tspan24136" /><tspan
       sodipodi:role="line"
       style="fill:#ffffff;stroke-width:0.178817"
       x="6.876667"
       y="128.83026"
       id="tspan24134">DATE:</tspan></text>
  <text
     xml:space="preserve"
     style="font-style:normal;font-weight:normal;font-size:7.15265px;line-height:1.25;font-family:sans-serif;fill:#ffffff;fill-opacity:1;stroke:none;stroke-width:0.178817"
     x="68.153275"
     y="73.472252"
     id="text20917-0-3"><tspan
       sodipodi:role="line"
       id="tspan20915-2-7"
       style="fill:#ffffff;stroke-width:0.178817"
       x="68.153275"
       y="73.472252">TAKE:</tspan></text>
  <text
     xml:space="preserve"
     style="font-style:normal;font-weight:normal;font-size:7.15265px;line-height:1.25;font-family:sans-serif;fill:#ffffff;fill-opacity:1;stroke:none;stroke-width:0.178817"
     x="68.175163"
     y="102.39716"
     id="text20917-0-3-4"><tspan
       sodipodi:role="line"
       id="tspan20915-2-7-7"
       style="fill:#ffffff;stroke-width:0.178817"
       x="68.175163"
       y="102.39716">MEDIA:</tspan></text>
  <rect
     style="fill:#ffffff;stroke:none;stroke-width:0.194894;stroke-linecap:round;stroke-linejoin:round;stroke-dasharray:none;stroke-opacity:1;paint-order:stroke fill markers"
     id="rect21021"
     width="120.84071"
     height="1.0267183"
     x="7.3129759"
     y="65.729584"
     ry="0.51335913" />
  <rect
     style="fill:#ffffff;stroke:none;stroke-width:0.194894;stroke-linecap:round;stroke-linejoin:round;stroke-dasharray:none;stroke-opacity:1;paint-order:stroke fill markers"
     id="rect21021-2"
     width="120.84071"
     height="1.0267183"
     x="7.553175"
     y="94.65451"
     ry="0.51335913" />
  <rect
     style="fill:#ffffff;stroke:none;stroke-width:0.194894;stroke-linecap:round;stroke-linejoin:round;stroke-dasharray:none;stroke-opacity:1;paint-order:stroke fill markers"
     id="rect21021-2-8"
     width="120.84071"
     height="1.0267183"
     x="7.3129787"
     y="112.61047"
     ry="0.51335913" />
</g>
<metadata
   id="metadata1">
  <rdf:RDF>
    <cc:Work
       rdf:about="">
      <dc:creator>
        <cc:Agent>
          <dc:title>Jess Tipton</dc:title>
        </cc:Agent>
      </dc:creator>
      <dc:publisher>
        <cc:Agent>
          <dc:title>m0dw3rks.com</dc:title>
        </cc:Agent>
      </dc:publisher>
      <cc:license
         rdf:resource="https://creativecommons.org/licenses/by-nc-nd/4.0/deed.en" />
    </cc:Work>
  </rdf:RDF>
</metadata>
<metadata
   id="metadata6">
  <rdf:RDF>
    <cc:Work
       rdf:about="">
      <dc:creator>
        <cc:Agent>
          <dc:title>Jess Tipton</dc:title>
        </cc:Agent>
      </dc:creator>
      <cc:license
         rdf:resource="https://creativecommons.org/licenses/by-nc-nd/4.0/deed.en" />
      <dc:publisher>
        <cc:Agent>
          <dc:title>m0dw3rks.com</dc:title>
        </cc:Agent>
      </dc:publisher>
    </cc:Work>
  </rdf:RDF>
</metadata>
<metadata
   id="metadata2">
  <rdf:RDF>
    <cc:Work
       rdf:about="">
      <dc:creator>
        <cc:Agent>
          <dc:title>Jess Tipton</dc:title>
        </cc:Agent>
      </dc:creator>
      <cc:license
         rdf:resource="https://creativecommons.org/licenses/by-nc-nd/4.0/deed.en" />
      <dc:publisher>
        <cc:Agent>
          <dc:title>m0dw3rks.com</dc:title>
        </cc:Agent>
      </dc:publisher>
    </cc:Work>
  </rdf:RDF>
</metadata>
<metadata
   id="metadata3">
  <rdf:RDF>
    <cc:Work
       rdf:about="">
      <dc:creator>
        <cc:Agent>
          <dc:title>Jess Tipton</dc:title>
        </cc:Agent>
      </dc:creator>
      <cc:license
         rdf:resource="https://creativecommons.org/licenses/by-nc-nd/4.0/deed.en" />
      <dc:publisher>
        <cc:Agent>
          <dc:title>m0dw3rks.com</dc:title>
        </cc:Agent>
      </dc:publisher>
    </cc:Work>
  </rdf:RDF>
</metadata>
<metadata
   id="metadata4">
  <rdf:RDF>
    <cc:Work
       rdf:about="">
      <dc:creator>
        <cc:Agent>
          <dc:title>Jess Tipton</dc:title>
        </cc:Agent>
      </dc:creator>
      <cc:license
         rdf:resource="https://creativecommons.org/licenses/by-nc-nd/4.0/deed.en" />
      <dc:publisher>
        <cc:Agent>
          <dc:title>m0dw3rks.com</dc:title>
        </cc:Agent>
      </dc:publisher>
    </cc:Work>
  </rdf:RDF>
</metadata>
<metadata
   id="metadata5">
  <rdf:RDF>
    <cc:Work
       rdf:about="">
      <dc:creator>
        <cc:Agent>
          <dc:title>Jess Tipton</dc:title>
        </cc:Agent>
      </dc:creator>
      <cc:license
         rdf:resource="https://creativecommons.org/licenses/by-nc-nd/4.0/deed.en" />
      <dc:publisher>
        <cc:Agent>
          <dc:title>m0dw3rks.com</dc:title>
        </cc:Agent>
      </dc:publisher>
    </cc:Work>
  </rdf:RDF>
</metadata>
<metadata
   id="metadata7">
  <rdf:RDF>
    <cc:Work
       rdf:about="">
      <dc:creator>
        <cc:Agent>
          <dc:title>Jess Tipton</dc:title>
        </cc:Agent>
      </dc:creator>
      <cc:license
         rdf:resource="https://creativecommons.org/licenses/by-nc-nd/4.0/deed.en" />
      <dc:publisher>
        <cc:Agent>
          <dc:title>m0dw3rks.com</dc:title>
        </cc:Agent>
      </dc:publisher>
    </cc:Work>
  </rdf:RDF>
</metadata>
<metadata
   id="metadata8">
  <rdf:RDF>
    <cc:Work
       rdf:about="">
      <dc:creator>
        <cc:Agent>
          <dc:title>Jess Tipton</dc:title>
        </cc:Agent>
      </dc:creator>
      <cc:license
         rdf:resource="https://creativecommons.org/licenses/by-nc-nd/4.0/deed.en" />
      <dc:publisher>
        <cc:Agent>
          <dc:title>m0dw3rks.com</dc:title>
        </cc:Agent>
      </dc:publisher>
    </cc:Work>
  </rdf:RDF>
</metadata>
<metadata
   id="metadata9">
  <rdf:RDF>
    <cc:Work
       rdf:about="">
      <dc:creator>
        <cc:Agent>
          <dc:title>Jess Tipton</dc:title>
        </cc:Agent>
      </dc:creator>
      <cc:license
         rdf:resource="https://creativecommons.org/licenses/by-nc-nd/4.0/deed.en" />
      <dc:publisher>
        <cc:Agent>
          <dc:title>m0dw3rks.com</dc:title>
        </cc:Agent>
      </dc:publisher>
    </cc:Work>
  </rdf:RDF>
</metadata>
<metadata
   id="metadata10">
  <rdf:RDF>
    <cc:Work
       rdf:about="">
      <dc:creator>
        <cc:Agent>
          <dc:title>Jess Tipton</dc:title>
        </cc:Agent>
      </dc:creator>
      <cc:license
         rdf:resource="https://creativecommons.org/licenses/by-nc-nd/4.0/deed.en" />
      <dc:publisher>
        <cc:Agent>
          <dc:title>m0dw3rks.com</dc:title>
        </cc:Agent>
      </dc:publisher>
    </cc:Work>
  </rdf:RDF>
</metadata>
<metadata
   id="metadata11">
  <rdf:RDF>
    <cc:Work
       rdf:about="">
      <dc:creator>
        <cc:Agent>
          <dc:title>Jess Tipton</dc:title>
        </cc:Agent>
      </dc:creator>
      <cc:license
         rdf:resource="https://creativecommons.org/licenses/by-nc-nd/4.0/deed.en" />
      <dc:publisher>
        <cc:Agent>
          <dc:title>m0dw3rks.com</dc:title>
        </cc:Agent>
      </dc:publisher>
    </cc:Work>
  </rdf:RDF>
</metadata>
<metadata
   id="metadata12">
  <rdf:RDF>
    <cc:Work
       rdf:about="">
      <dc:creator>
        <cc:Agent>
          <dc:title>Jess Tipton</dc:title>
        </cc:Agent>
      </dc:creator>
      <cc:license
         rdf:resource="https://creativecommons.org/licenses/by-nc-nd/4.0/deed.en" />
      <dc:publisher>
        <cc:Agent>
          <dc:title>m0dw3rks.com</dc:title>
        </cc:Agent>
      </dc:publisher>
    </cc:Work>
  </rdf:RDF>
</metadata>
<metadata
   id="metadata13">
  <rdf:RDF>
    <cc:Work
       rdf:about="">
      <dc:creator>
        <cc:Agent>
          <dc:title>Jess Tipton</dc:title>
        </cc:Agent>
      </dc:creator>
      <cc:license
         rdf:resource="https://creativecommons.org/licenses/by-nc-nd/4.0/deed.en" />
      <dc:publisher>
        <cc:Agent>
          <dc:title>m0dw3rks.com</dc:title>
        </cc:Agent>
      </dc:publisher>
    </cc:Work>
  </rdf:RDF>
</metadata>
<metadata
   id="metadata14">
  <rdf:RDF>
    <cc:Work
       rdf:about="">
      <dc:creator>
        <cc:Agent>
          <dc:title>Jess Tipton</dc:title>
        </cc:Agent>
      </dc:creator>
      <cc:license
         rdf:resource="https://creativecommons.org/licenses/by-nc-nd/4.0/deed.en" />
      <dc:publisher>
        <cc:Agent>
          <dc:title>m0dw3rks.com</dc:title>
        </cc:Agent>
      </dc:publisher>
    </cc:Work>
  </rdf:RDF>
</metadata>
<metadata
   id="metadata15">
  <rdf:RDF>
    <cc:Work
       rdf:about="">
      <dc:creator>
        <cc:Agent>
          <dc:title>Jess Tipton</dc:title>
        </cc:Agent>
      </dc:creator>
      <cc:license
         rdf:resource="https://creativecommons.org/licenses/by-nc-nd/4.0/deed.en" />
      <dc:publisher>
        <cc:Agent>
          <dc:title>m0dw3rks.com</dc:title>
        </cc:Agent>
      </dc:publisher>
    </cc:Work>
  </rdf:RDF>
</metadata>
<metadata
   id="metadata16">
  <rdf:RDF>
    <cc:Work
       rdf:about="">
      <dc:creator>
        <cc:Agent>
          <dc:title>Jess Tipton</dc:title>
        </cc:Agent>
      </dc:creator>
      <cc:license
         rdf:resource="https://creativecommons.org/licenses/by-nc-nd/4.0/deed.en" />
      <dc:publisher>
        <cc:Agent>
          <dc:title>m0dw3rks.com</dc:title>
        </cc:Agent>
      </dc:publisher>
    </cc:Work>
  </rdf:RDF>
</metadata>
<metadata
   id="metadata17">
  <rdf:RDF>
    <cc:Work
       rdf:about="">
      <dc:creator>
        <cc:Agent>
          <dc:title>Jess Tipton</dc:title>
        </cc:Agent>
      </dc:creator>
      <cc:license
         rdf:resource="https://creativecommons.org/licenses/by-nc-nd/4.0/deed.en" />
      <dc:publisher>
        <cc:Agent>
          <dc:title>m0dw3rks.com</dc:title>
        </cc:Agent>
      </dc:publisher>
    </cc:Work>
  </rdf:RDF>
</metadata>
<metadata
   id="metadata18">
  <rdf:RDF>
    <cc:Work
       rdf:about="">
      <dc:creator>
        <cc:Agent>
          <dc:title>Jess Tipton</dc:title>
        </cc:Agent>
      </dc:creator>
      <cc:license
         rdf:resource="https://creativecommons.org/licenses/by-nc-nd/4.0/deed.en" />
      <dc:publisher>
        <cc:Agent>
          <dc:title>m0dw3rks.com</dc:title>
        </cc:Agent>
      </dc:publisher>
    </cc:Work>
  </rdf:RDF>
</metadata>
</svg>
