<?xml version="1.0" encoding="UTF-8" standalone="no"?>
<!-- Created with Inkscape (http://www.inkscape.org/) -->

<svg
   width="512"
   height="512"
   viewBox="0 0 135.46666 135.46667"
   version="1.1"
   id="svg5"
   inkscape:version="1.4 (e7c3feb100, 2024-10-09)"
   sodipodi:docname="remmina.svg"
   xmlns:inkscape="http://www.inkscape.org/namespaces/inkscape"
   xmlns:sodipodi="http://sodipodi.sourceforge.net/DTD/sodipodi-0.dtd"
   xmlns:xlink="http://www.w3.org/1999/xlink"
   xmlns="http://www.w3.org/2000/svg"
   xmlns:svg="http://www.w3.org/2000/svg">
  <sodipodi:namedview
     id="namedview7"
     pagecolor="#242424"
     bordercolor="#666666"
     borderopacity="1"
     inkscape:showpageshadow="0"
     inkscape:pageopacity="0"
     inkscape:pagecheckerboard="1"
     inkscape:deskcolor="#000000"
     inkscape:document-units="px"
     showgrid="false"
     inkscape:zoom="2.6074562"
     inkscape:cx="328.86458"
     inkscape:cy="342.09587"
     inkscape:window-width="3256"
     inkscape:window-height="1080"
     inkscape:window-x="1864"
     inkscape:window-y="0"
     inkscape:window-maximized="0"
     inkscape:current-layer="layer1" />
  <defs
     id="defs2">
    <linearGradient
       id="linearGradient26"
       inkscape:collect="always">
      <stop
         style="stop-color:#000000;stop-opacity:1;"
         offset="0"
         id="stop26" />
      <stop
         style="stop-color:#000000;stop-opacity:0;"
         offset="1"
         id="stop27" />
    </linearGradient>
    <inkscape:path-effect
       effect="fillet_chamfer"
       id="path-effect3"
       is_visible="true"
       lpeversion="1"
       nodesatellites_param="F,0,0,1,0,2.9104165,0,1 @ F,0,0,1,0,2.9104165,0,1 @ F,0,0,1,0,2.9104165,0,1 @ F,0,0,1,0,2.9104165,0,1 @ F,0,0,1,0,2.9104165,0,1 @ F,0,0,1,0,2.9104165,0,1 | F,0,0,1,0,2.9104165,0,1 @ F,0,0,1,0,2.9104165,0,1 @ F,0,0,1,0,2.9104165,0,1 @ F,0,0,1,0,2.9104165,0,1 @ F,0,0,1,0,2.9104165,0,1 @ F,0,0,1,0,2.9104165,0,1 | F,0,0,1,0,2.9104165,0,1 @ F,0,0,1,0,2.9104165,0,1 @ F,0,0,1,0,2.9104165,0,1 @ F,0,0,1,0,2.9104165,0,1 @ F,0,0,1,0,2.9104165,0,1 @ F,0,0,1,0,2.9104165,0,1"
       radius="11"
       unit="px"
       method="auto"
       mode="F"
       chamfer_steps="1"
       flexible="false"
       use_knot_distance="true"
       apply_no_radius="true"
       apply_with_radius="true"
       only_selected="false"
       hide_knots="false" />
    <inkscape:path-effect
       effect="fillet_chamfer"
       id="path-effect4"
       is_visible="true"
       lpeversion="1"
       nodesatellites_param="F,0,0,1,0,2.9104165,0,1 @ F,0,0,1,0,2.9104165,0,1 @ F,0,0,1,0,2.9104165,0,1 @ F,0,0,1,0,2.9104165,0,1 @ F,0,0,1,0,2.9104165,0,1 @ F,0,0,1,0,2.9104165,0,1 | F,0,0,1,0,2.9104165,0,1 @ F,0,0,1,0,2.9104165,0,1 @ F,0,0,1,0,2.9104165,0,1 @ F,0,0,1,0,2.9104165,0,1 @ F,0,0,1,0,2.9104165,0,1 @ F,0,0,1,0,2.9104165,0,1 | F,0,0,1,0,2.9104165,0,1 @ F,0,0,1,0,2.9104165,0,1 @ F,0,0,1,0,2.9104165,0,1 @ F,0,0,1,0,2.9104165,0,1 @ F,0,0,1,0,2.9104165,0,1 @ F,0,0,1,0,2.9104165,0,1"
       radius="11"
       unit="px"
       method="auto"
       mode="F"
       chamfer_steps="1"
       flexible="false"
       use_knot_distance="true"
       apply_no_radius="true"
       apply_with_radius="true"
       only_selected="false"
       hide_knots="false" />
    <inkscape:path-effect
       effect="fillet_chamfer"
       id="path-effect2"
       is_visible="true"
       lpeversion="1"
       nodesatellites_param="F,0,0,1,0,2.9104165,0,1 @ F,0,0,1,0,2.9104165,0,1 @ F,0,0,1,0,2.9104165,0,1 @ F,0,0,1,0,2.9104165,0,1 @ F,0,0,1,0,2.9104165,0,1 @ F,0,0,1,0,2.9104165,0,1 | F,0,0,1,0,2.9104165,0,1 @ F,0,0,1,0,2.9104165,0,1 @ F,0,0,1,0,2.9104165,0,1 @ F,0,0,1,0,2.9104165,0,1 @ F,0,0,1,0,2.9104165,0,1 @ F,0,0,1,0,2.9104165,0,1 | F,0,0,1,0,2.9104165,0,1 @ F,0,0,1,0,2.9104165,0,1 @ F,0,0,1,0,2.9104165,0,1 @ F,0,0,1,0,2.9104165,0,1 @ F,0,0,1,0,2.9104165,0,1 @ F,0,0,1,0,2.9104165,0,1"
       radius="11"
       unit="px"
       method="auto"
       mode="F"
       chamfer_steps="1"
       flexible="false"
       use_knot_distance="true"
       apply_no_radius="true"
       apply_with_radius="true"
       only_selected="false"
       hide_knots="false" />
    <inkscape:path-effect
       effect="fillet_chamfer"
       id="path-effect12"
       is_visible="true"
       lpeversion="1"
       nodesatellites_param="F,0,0,1,0,2.9104165,0,1 @ F,0,0,1,0,2.9104165,0,1 @ F,0,0,1,0,2.9104165,0,1 @ F,0,0,1,0,2.9104165,0,1 @ F,0,0,1,0,2.9104165,0,1 @ F,0,0,1,0,2.9104165,0,1 | F,0,0,1,0,2.9104165,0,1 @ F,0,0,1,0,2.9104165,0,1 @ F,0,0,1,0,2.9104165,0,1 @ F,0,0,1,0,2.9104165,0,1 @ F,0,0,1,0,2.9104165,0,1 @ F,0,0,1,0,2.9104165,0,1 | F,0,0,1,0,2.9104165,0,1 @ F,0,0,1,0,2.9104165,0,1 @ F,0,0,1,0,2.9104165,0,1 @ F,0,0,1,0,2.9104165,0,1 @ F,0,0,1,0,2.9104165,0,1 @ F,0,0,1,0,2.9104165,0,1"
       radius="11"
       unit="px"
       method="auto"
       mode="F"
       chamfer_steps="1"
       flexible="false"
       use_knot_distance="true"
       apply_no_radius="true"
       apply_with_radius="true"
       only_selected="false"
       hide_knots="false" />
    <linearGradient
       id="linearGradient7"
       inkscape:collect="always">
      <stop
         style="stop-color:#333333;stop-opacity:1;"
         offset="0"
         id="stop8" />
      <stop
         style="stop-color:#474747;stop-opacity:1;"
         offset="1"
         id="stop7" />
    </linearGradient>
    <linearGradient
       inkscape:collect="always"
       xlink:href="#linearGradient7"
       id="linearGradient8"
       x1="67.73333"
       y1="0"
       x2="67.73333"
       y2="135.46666"
       gradientUnits="userSpaceOnUse" />
    <filter
       inkscape:collect="always"
       style="color-interpolation-filters:sRGB"
       id="filter3"
       x="-0.051921608"
       y="-0.10335519"
       width="1.1038432"
       height="1.2067104">
      <feGaussianBlur
         inkscape:collect="always"
         stdDeviation="2.6994124"
         id="feGaussianBlur3" />
    </filter>
    <filter
       inkscape:collect="always"
       style="color-interpolation-filters:sRGB"
       id="filter13"
       x="-0.067748259"
       y="-0.070548437"
       width="1.1354965"
       height="1.1410969">
      <feGaussianBlur
         inkscape:collect="always"
         stdDeviation="3.3598693"
         id="feGaussianBlur13" />
    </filter>
    <linearGradient
       inkscape:collect="always"
       xlink:href="#linearGradient26"
       id="linearGradient27"
       x1="9.2847751"
       y1="17.183819"
       x2="20.345263"
       y2="17.183819"
       gradientUnits="userSpaceOnUse"
       gradientTransform="rotate(-135,14.815019,17.183819)" />
    <filter
       inkscape:collect="always"
       style="color-interpolation-filters:sRGB"
       id="filter27"
       x="-0.069061839"
       y="-0.06917826"
       width="1.1381237"
       height="1.1383565">
      <feGaussianBlur
         inkscape:collect="always"
         stdDeviation="0.3173993"
         id="feGaussianBlur27" />
    </filter>
    <linearGradient
       inkscape:collect="always"
       xlink:href="#linearGradient26"
       id="linearGradient28"
       gradientUnits="userSpaceOnUse"
       gradientTransform="rotate(-135,34.168307,26.463357)"
       x1="9.2847751"
       y1="17.183819"
       x2="20.345263"
       y2="17.183819" />
    <linearGradient
       inkscape:collect="always"
       xlink:href="#linearGradient26"
       id="linearGradient29"
       gradientUnits="userSpaceOnUse"
       gradientTransform="rotate(-135,72.603717,7.001466)"
       x1="9.2847751"
       y1="17.183819"
       x2="20.345263"
       y2="17.183819" />
    <linearGradient
       inkscape:collect="always"
       xlink:href="#linearGradient26"
       id="linearGradient30"
       gradientUnits="userSpaceOnUse"
       gradientTransform="rotate(-135,66.245649,29.069458)"
       x1="9.2847751"
       y1="17.183819"
       x2="20.345263"
       y2="17.183819" />
    <linearGradient
       inkscape:collect="always"
       xlink:href="#linearGradient26"
       id="linearGradient31"
       gradientUnits="userSpaceOnUse"
       gradientTransform="rotate(-135,56.472756,42.893334)"
       x1="9.2847751"
       y1="17.183819"
       x2="20.345263"
       y2="17.183819" />
    <linearGradient
       inkscape:collect="always"
       xlink:href="#linearGradient26"
       id="linearGradient32"
       gradientUnits="userSpaceOnUse"
       gradientTransform="rotate(-135,62.221519,56.772054)"
       x1="9.2847751"
       y1="17.183819"
       x2="20.345263"
       y2="17.183819" />
  </defs>
  <g
     inkscape:label="Layer 1"
     inkscape:groupmode="layer"
     id="layer1">
    <path
       id="path1"
       style="fill:#000000;stroke-width:1;stroke-linecap:round;stroke-linejoin:round;stroke-miterlimit:1;paint-order:markers stroke fill;fill-opacity:1;filter:url(#filter3)"
       d="m 64.822161,38.53927 c -24.514257,0.939543 -46.01706,13.699279 -58.9957259,32.7265 -0.9057038,1.327796 -0.4881469,3.126102 0.8748852,3.978046 l 0.1186259,0.07415 c 1.3630321,0.851944 3.1541506,0.434017 4.0634298,-0.891311 11.898729,-17.343104 31.520747,-28.959237 53.938905,-29.888306 1.605885,-0.06655 4.213287,-0.06655 5.819172,10e-7 22.418458,0.929093 42.041357,12.545649 53.941027,29.889084 0.90931,1.325302 2.70051,1.74328 4.0636,0.891425 l 0.11916,-0.07447 c 1.36309,-0.851855 1.78067,-2.650077 0.87495,-3.977859 C 116.66073,52.238826 95.156307,39.478816 70.641572,38.539269 c -1.6061,-0.06155 -4.21331,-0.06155 -5.819411,1e-6 z m 8.33e-4,23.996604 c -15.947036,0.90189 -29.94325,9.17172 -38.650519,21.447951 -0.929792,1.310898 -0.51038,3.111017 0.85273,3.962839 l 0.1498,0.09361 c 1.36311,0.851822 3.151773,0.431147 4.089933,-0.873702 7.618935,-10.59686 19.713943,-17.745649 33.558477,-18.62932 1.603842,-0.102371 4.213062,-0.102371 5.816905,10e-7 13.845095,0.883717 25.940432,8.033125 33.55929,18.630721 0.93812,1.304883 2.72669,1.725497 4.08973,0.873571 l 0.1515,-0.09469 c 1.36304,-0.851926 1.78236,-2.652101 0.85251,-3.962961 -8.70808,-12.276272 -22.70542,-20.546131 -38.652611,-21.44802 -1.604601,-0.09075 -4.213144,-0.09075 -5.817745,10e-7 z m 0.0041,24.044417 c -7.384206,0.79895 -13.876483,4.60737 -18.250686,10.160205 -0.994184,1.262067 -0.570828,3.068462 0.792225,3.920374 l 0.114162,0.0713 c 1.363053,0.85191 3.144835,0.42028 4.175144,-0.811796 3.253664,-3.890853 7.889166,-6.579586 13.17261,-7.307438 1.591074,-0.219188 4.21165,-0.219181 5.802748,-7e-6 5.283896,0.727859 9.920622,3.416696 13.175214,7.307695 1.030445,1.231936 2.812398,1.663496 4.175485,0.811646 l 0.113309,-0.0708 c 1.363087,-0.851852 1.786369,-2.65814 0.792104,-3.920145 -4.37503,-5.553156 -10.868135,-9.36203 -18.252698,-10.161055 -1.597277,-0.172829 -4.212339,-0.17283 -5.809617,-9e-6 z"
       inkscape:path-effect="#path-effect3"
       inkscape:original-d="m 67.731867,38.483603 c -26.75866,0 -50.249094,14.080342 -63.4985346,35.217631 l 5.0546017,3.15931 C 21.460395,57.408294 43.063518,44.478171 67.731867,44.478171 c 24.668566,0 46.272633,12.930565 58.446123,32.383104 l 5.05534,-3.159309 C 117.98311,52.5642 94.490885,38.483603 67.731867,38.483603 Z m 0,23.970227 c -18.187941,0 -34.162853,9.577914 -43.17479,23.950475 l 5.086056,3.178329 c 7.936325,-12.687218 21.992156,-21.137895 38.088734,-21.137895 16.097161,0 30.153298,8.45137 38.089463,21.139356 l 5.08752,-3.17979 C 101.89605,72.031744 85.919805,62.45383 67.731867,62.45383 Z m 0,23.970224 c -9.616352,0 -18.056625,5.087607 -22.831296,12.694294 l 5.050214,3.156392 c 3.698826,-5.922466 10.255245,-9.859774 17.781082,-9.859774 7.525835,0 14.084098,3.937308 17.784006,9.859774 l 5.049483,-3.155659 C 85.789641,91.512214 77.348354,86.424054 67.731867,86.424054 Z" />
    <rect
       style="display:none;opacity:1;fill:url(#linearGradient8);stroke:none;stroke-width:12.7;stroke-linecap:round;stroke-linejoin:round;stroke-miterlimit:1;paint-order:markers stroke fill"
       id="rect1"
       width="135.46666"
       height="135.46666"
       x="0"
       y="0"
       ry="16.235491" />
    <path
       id="path6"
       style="display:inline;fill:#ffffff;stroke:#000000;stroke-width:2.11667;stroke-linecap:round;stroke-linejoin:round;stroke-miterlimit:1;stroke-dasharray:none;stroke-opacity:1;paint-order:markers stroke fill"
       d="m 64.822161,38.53927 c -24.514257,0.939543 -46.01706,13.699279 -58.9957259,32.7265 -0.9057038,1.327796 -0.4881469,3.126102 0.8748852,3.978046 l 0.1186259,0.07415 c 1.3630321,0.851944 3.1541506,0.434017 4.0634298,-0.891311 11.898729,-17.343104 31.520747,-28.959237 53.938905,-29.888306 1.605885,-0.06655 4.213287,-0.06655 5.819172,10e-7 22.418458,0.929093 42.041357,12.545649 53.941027,29.889084 0.90931,1.325302 2.70051,1.74328 4.0636,0.891425 l 0.11916,-0.07447 c 1.36309,-0.851855 1.78067,-2.650077 0.87495,-3.977859 C 116.66073,52.238826 95.156307,39.478816 70.641572,38.539269 c -1.6061,-0.06155 -4.21331,-0.06155 -5.819411,1e-6 z m 8.33e-4,23.996604 c -15.947036,0.90189 -29.94325,9.17172 -38.650519,21.447951 -0.929792,1.310898 -0.51038,3.111017 0.85273,3.962839 l 0.1498,0.09361 c 1.36311,0.851822 3.151773,0.431147 4.089933,-0.873702 7.618935,-10.59686 19.713943,-17.745649 33.558477,-18.62932 1.603842,-0.102371 4.213062,-0.102371 5.816905,10e-7 13.845095,0.883717 25.940432,8.033125 33.55929,18.630721 0.93812,1.304883 2.72669,1.725497 4.08973,0.873571 l 0.1515,-0.09469 c 1.36304,-0.851926 1.78236,-2.652101 0.85251,-3.962961 -8.70808,-12.276272 -22.70542,-20.546131 -38.652611,-21.44802 -1.604601,-0.09075 -4.213144,-0.09075 -5.817745,10e-7 z m 0.0041,24.044417 c -7.384206,0.79895 -13.876483,4.60737 -18.250686,10.160205 -0.994184,1.262067 -0.570828,3.068462 0.792225,3.920374 l 0.114162,0.0713 c 1.363053,0.85191 3.144835,0.42028 4.175144,-0.811796 3.253664,-3.890853 7.889166,-6.579586 13.17261,-7.307438 1.591074,-0.219188 4.21165,-0.219181 5.802748,-7e-6 5.283896,0.727859 9.920622,3.416696 13.175214,7.307695 1.030445,1.231936 2.812398,1.663496 4.175485,0.811646 l 0.113309,-0.0708 c 1.363087,-0.851852 1.786369,-2.65814 0.792104,-3.920145 -4.37503,-5.553156 -10.868135,-9.36203 -18.252698,-10.161055 -1.597277,-0.172829 -4.212339,-0.17283 -5.809617,-9e-6 z"
       inkscape:path-effect="#path-effect12"
       inkscape:original-d="m 67.731867,38.483603 c -26.75866,0 -50.249094,14.080342 -63.4985346,35.217631 l 5.0546017,3.15931 C 21.460395,57.408294 43.063518,44.478171 67.731867,44.478171 c 24.668566,0 46.272633,12.930565 58.446123,32.383104 l 5.05534,-3.159309 C 117.98311,52.5642 94.490885,38.483603 67.731867,38.483603 Z m 0,23.970227 c -18.187941,0 -34.162853,9.577914 -43.17479,23.950475 l 5.086056,3.178329 c 7.936325,-12.687218 21.992156,-21.137895 38.088734,-21.137895 16.097161,0 30.153298,8.45137 38.089463,21.139356 l 5.08752,-3.17979 C 101.89605,72.031744 85.919805,62.45383 67.731867,62.45383 Z m 0,23.970224 c -9.616352,0 -18.056625,5.087607 -22.831296,12.694294 l 5.050214,3.156392 c 3.698826,-5.922466 10.255245,-9.859774 17.781082,-9.859774 7.525835,0 14.084098,3.937308 17.784006,9.859774 l 5.049483,-3.155659 C 85.789641,91.512214 77.348354,86.424054 67.731867,86.424054 Z" />
    <path
       id="circle3"
       style="opacity:1;fill:#000000;fill-opacity:1;stroke:none;stroke-width:4.23333;stroke-linecap:round;stroke-linejoin:round;stroke-miterlimit:1;stroke-dasharray:none;stroke-opacity:1;paint-order:markers stroke fill;filter:url(#filter13)"
       d="M 14.816666 10.583333 A 6.5956683 6.5956683 0 0 0 8.2212035 17.178796 A 6.5956683 6.5956683 0 0 0 14.816666 23.774776 A 6.5956683 6.5956683 0 0 0 21.412129 17.178796 A 6.5956683 6.5956683 0 0 0 14.816666 10.583333 z M 120.65 34.069755 A 6.5956683 6.5956683 0 0 0 114.05454 40.665218 A 6.5956683 6.5956683 0 0 0 120.65 47.261197 A 6.5956683 6.5956683 0 0 0 127.24546 40.665218 A 6.5956683 6.5956683 0 0 0 120.65 34.069755 z M 41.274999 40.11538 A 6.5956683 6.5956683 0 0 0 34.679537 46.710843 A 6.5956683 6.5956683 0 0 0 41.274999 53.306306 A 6.5956683 6.5956683 0 0 0 47.870462 46.710843 A 6.5956683 6.5956683 0 0 0 41.274999 40.11538 z M 94.191666 67.246024 A 6.5956683 6.5956683 0 0 0 87.596203 73.842003 A 6.5956683 6.5956683 0 0 0 94.191666 80.437466 A 6.5956683 6.5956683 0 0 0 100.78713 73.842003 A 6.5956683 6.5956683 0 0 0 94.191666 67.246024 z M 67.733332 83.934411 A 6.5956683 6.5956683 0 0 0 61.13787 90.53039 A 6.5956683 6.5956683 0 0 0 67.733332 97.125853 A 6.5956683 6.5956683 0 0 0 74.328795 90.53039 A 6.5956683 6.5956683 0 0 0 67.733332 83.934411 z M 67.733332 111.69189 A 6.5956683 6.5956683 0 0 0 61.13787 118.28787 A 6.5956683 6.5956683 0 0 0 67.733332 124.88333 A 6.5956683 6.5956683 0 0 0 74.328795 118.28787 A 6.5956683 6.5956683 0 0 0 67.733332 111.69189 z " />
    <circle
       style="opacity:1;fill:#ffff00;fill-opacity:1;stroke:none;stroke-width:4.23333;stroke-linecap:round;stroke-linejoin:round;stroke-miterlimit:1;stroke-dasharray:none;stroke-opacity:1;paint-order:markers stroke fill"
       id="path7"
       cx="67.73333"
       cy="118.28767"
       r="6.5956683" />
    <circle
       style="opacity:1;fill:#00ff00;fill-opacity:1;stroke:none;stroke-width:4.23333;stroke-linecap:round;stroke-linejoin:round;stroke-miterlimit:1;stroke-dasharray:none;stroke-opacity:1;paint-order:markers stroke fill"
       id="circle8"
       cx="67.733315"
       cy="90.53022"
       r="6.5956683" />
    <circle
       style="opacity:1;fill:#ff0000;fill-opacity:1;stroke:none;stroke-width:4.23333;stroke-linecap:round;stroke-linejoin:round;stroke-miterlimit:1;stroke-dasharray:none;stroke-opacity:1;paint-order:markers stroke fill"
       id="circle9"
       cx="94.191643"
       cy="73.841866"
       r="6.5956683" />
    <circle
       style="opacity:1;fill:#ff00ff;fill-opacity:1;stroke:none;stroke-width:4.23333;stroke-linecap:round;stroke-linejoin:round;stroke-miterlimit:1;stroke-dasharray:none;stroke-opacity:1;paint-order:markers stroke fill"
       id="circle10"
       cx="41.274986"
       cy="46.710865"
       r="6.5956683" />
    <circle
       style="opacity:1;fill:#ff6600;fill-opacity:1;stroke:none;stroke-width:4.23333;stroke-linecap:round;stroke-linejoin:round;stroke-miterlimit:1;stroke-dasharray:none;stroke-opacity:1;paint-order:markers stroke fill"
       id="circle11"
       cx="120.64997"
       cy="40.665279"
       r="6.5956683" />
    <circle
       style="opacity:1;fill:#0000ff;fill-opacity:1;stroke:none;stroke-width:4.23333;stroke-linecap:round;stroke-linejoin:round;stroke-miterlimit:1;stroke-dasharray:none;stroke-opacity:1;paint-order:markers stroke fill"
       id="circle12"
       cx="14.816461"
       cy="17.178797"
       r="6.5956683" />
    <path
       id="path31"
       style="opacity:0.2;mix-blend-mode:multiply;fill:url(#linearGradient32);stroke:none;stroke-width:4.23333;stroke-linecap:round;stroke-linejoin:round;stroke-miterlimit:1;stroke-dasharray:none;stroke-opacity:1;paint-order:markers stroke fill;filter:url(#filter27)"
       d="m 64.15519,122.4953 c 2.21275,1.9686 5.97969,1.65943 7.82721,-0.66422 1.934388,-2.22646 1.619648,-5.9813 -0.72262,-7.8016 -2.10947,-1.78716 -5.5417,-1.64786 -7.44743,0.37684 -1.95113,1.89728 -2.14751,5.24528 -0.38775,7.33353 0.222,0.27292 0.47034,0.519 0.73059,0.75545 z" />
    <path
       id="circle13"
       style="opacity:0.6;fill:#ffffff;stroke-width:4.23333;stroke-linecap:round;stroke-linejoin:round;stroke-miterlimit:1;paint-order:markers stroke fill"
       d="m 67.733124,111.692 a 6.5956683,6.5956683 0 0 0 -6.595463,6.59598 6.5956683,6.5956683 0 0 0 2.845304,5.41052 6.5956683,6.5956683 0 0 1 -1.577164,-4.27364 6.5956683,6.5956683 0 0 1 6.595979,-6.59546 6.5956683,6.5956683 0 0 1 3.750159,1.18494 6.5956683,6.5956683 0 0 0 -5.018815,-2.32234 z" />
    <path
       id="path29"
       style="opacity:0.2;mix-blend-mode:multiply;fill:url(#linearGradient30);stroke:none;stroke-width:4.23333;stroke-linecap:round;stroke-linejoin:round;stroke-miterlimit:1;stroke-dasharray:none;stroke-opacity:1;paint-order:markers stroke fill;filter:url(#filter27)"
       d="m 90.613502,78.049498 c 2.21275,1.968603 5.97969,1.659427 7.82721,-0.664218 1.934388,-2.226458 1.619648,-5.9813 -0.72262,-7.801602 -2.10947,-1.787157 -5.5417,-1.64786 -7.44743,0.376844 -1.95113,1.897273 -2.14751,5.245279 -0.38775,7.333531 0.222,0.272913 0.47034,0.518997 0.73059,0.755445 z" />
    <path
       id="path13"
       style="opacity:0.4;fill:#ffffff;stroke-width:4.23333;stroke-linecap:round;stroke-linejoin:round;stroke-miterlimit:1;paint-order:markers stroke fill"
       d="m 94.191437,67.246197 a 6.5956683,6.5956683 0 0 0 -6.595463,6.595979 6.5956683,6.5956683 0 0 0 2.845304,5.410523 6.5956683,6.5956683 0 0 1 -1.577164,-4.273641 6.5956683,6.5956683 0 0 1 6.595979,-6.595463 6.5956683,6.5956683 0 0 1 3.750159,1.18494 6.5956683,6.5956683 0 0 0 -5.018815,-2.322338 z" />
    <path
       id="path28"
       style="opacity:0.2;mix-blend-mode:multiply;fill:url(#linearGradient29);stroke:none;stroke-width:4.23333;stroke-linecap:round;stroke-linejoin:round;stroke-miterlimit:1;stroke-dasharray:none;stroke-opacity:1;paint-order:markers stroke fill;filter:url(#filter27)"
       d="m 117.07183,44.872912 c 2.21275,1.968603 5.97969,1.659427 7.82721,-0.664218 1.93439,-2.226458 1.61965,-5.9813 -0.72262,-7.801602 -2.10947,-1.787157 -5.5417,-1.64786 -7.44743,0.376844 -1.95113,1.897273 -2.14751,5.245279 -0.38775,7.333531 0.222,0.272913 0.47034,0.518997 0.73059,0.755445 z" />
    <path
       id="path14"
       style="opacity:0.2;fill:#ffffff;stroke-width:4.23333;stroke-linecap:round;stroke-linejoin:round;stroke-miterlimit:1;paint-order:markers stroke fill"
       d="m 120.64977,34.069611 a 6.5956683,6.5956683 0 0 0 -6.59547,6.595979 6.5956683,6.5956683 0 0 0 2.84531,5.410523 6.5956683,6.5956683 0 0 1 -1.57717,-4.273641 6.5956683,6.5956683 0 0 1 6.59598,-6.595463 6.5956683,6.5956683 0 0 1 3.75016,1.18494 6.5956683,6.5956683 0 0 0 -5.01881,-2.322338 z" />
    <path
       id="path27"
       style="opacity:0.2;mix-blend-mode:multiply;fill:url(#linearGradient28);stroke:none;stroke-width:4.23333;stroke-linecap:round;stroke-linejoin:round;stroke-miterlimit:1;stroke-dasharray:none;stroke-opacity:1;paint-order:markers stroke fill;filter:url(#filter27)"
       d="m 37.696844,50.918498 c 2.212749,1.968603 5.979688,1.659427 7.82721,-0.664218 1.934389,-2.226458 1.619648,-5.9813 -0.722619,-7.801602 -2.109473,-1.787157 -5.541696,-1.64786 -7.447429,0.376844 -1.951126,1.897273 -2.14751,5.245279 -0.387747,7.333531 0.222001,0.272913 0.470334,0.518997 0.730584,0.755446 z" />
    <path
       id="path15"
       style="opacity:0.4;fill:#ffffff;stroke-width:4.23333;stroke-linecap:round;stroke-linejoin:round;stroke-miterlimit:1;paint-order:markers stroke fill"
       d="m 41.274781,40.115197 a 6.5956683,6.5956683 0 0 0 -6.595463,6.595979 6.5956683,6.5956683 0 0 0 2.845304,5.410523 6.5956683,6.5956683 0 0 1 -1.577164,-4.273641 6.5956683,6.5956683 0 0 1 6.595979,-6.595463 6.5956683,6.5956683 0 0 1 3.750159,1.18494 6.5956683,6.5956683 0 0 0 -5.018815,-2.322338 z" />
    <path
       id="circle26"
       style="opacity:0.2;mix-blend-mode:multiply;fill:url(#linearGradient27);stroke:none;stroke-width:4.23333;stroke-linecap:round;stroke-linejoin:round;stroke-miterlimit:1;stroke-dasharray:none;stroke-opacity:1;paint-order:markers stroke fill;filter:url(#filter27)"
       d="m 11.22034,21.392493 c 2.212749,1.968603 5.979688,1.659427 7.82721,-0.664218 1.934389,-2.226458 1.619648,-5.9813 -0.722619,-7.801602 -2.109473,-1.787157 -5.541696,-1.64786 -7.447429,0.376844 -1.9511265,1.897273 -2.1475106,5.245279 -0.387747,7.333531 0.222001,0.272913 0.470334,0.518997 0.730584,0.755446 z" />
    <path
       id="path16"
       style="opacity:0.2;fill:#ffffff;stroke-width:4.23333;stroke-linecap:round;stroke-linejoin:round;stroke-miterlimit:1;paint-order:markers stroke fill"
       d="m 14.816452,10.583333 a 6.5956683,6.5956683 0 0 0 -6.5954632,6.595979 6.5956683,6.5956683 0 0 0 2.8453042,5.410523 6.5956683,6.5956683 0 0 1 -1.5771642,-4.273641 6.5956683,6.5956683 0 0 1 6.5959792,-6.595463 6.5956683,6.5956683 0 0 1 3.750159,1.18494 6.5956683,6.5956683 0 0 0 -5.018815,-2.322338 z" />
    <path
       id="path30"
       style="opacity:0.2;mix-blend-mode:multiply;fill:url(#linearGradient31);stroke:none;stroke-width:4.23333;stroke-linecap:round;stroke-linejoin:round;stroke-miterlimit:1;stroke-dasharray:none;stroke-opacity:1;paint-order:markers stroke fill;filter:url(#filter27)"
       d="m 64.155174,94.737853 c 2.21275,1.968603 5.97969,1.659427 7.82721,-0.664218 1.934388,-2.226458 1.619648,-5.9813 -0.72262,-7.801602 -2.10947,-1.787157 -5.5417,-1.64786 -7.44743,0.376844 -1.95113,1.897273 -2.14751,5.245279 -0.38775,7.333531 0.222,0.272913 0.47034,0.518997 0.73059,0.755445 z" />
    <path
       id="path17"
       style="opacity:0.6;fill:#ffffff;stroke-width:4.23333;stroke-linecap:round;stroke-linejoin:round;stroke-miterlimit:1;paint-order:markers stroke fill"
       d="m 67.733109,83.934552 a 6.5956683,6.5956683 0 0 0 -6.595463,6.595979 6.5956683,6.5956683 0 0 0 2.845304,5.410523 6.5956683,6.5956683 0 0 1 -1.577164,-4.273641 6.5956683,6.5956683 0 0 1 6.595979,-6.595463 6.5956683,6.5956683 0 0 1 3.750159,1.18494 6.5956683,6.5956683 0 0 0 -5.018815,-2.322338 z" />
  </g>
</svg>
