<?xml version="1.0" encoding="UTF-8" standalone="no"?>
<!-- Created with Inkscape (http://www.inkscape.org/) -->

<svg
   width="512"
   height="512"
   viewBox="0 0 135.46666 135.46667"
   version="1.1"
   id="svg5"
   inkscape:version="1.3.2 (091e20ef0f, 2023-11-25, custom)"
   sodipodi:docname="m0dRSS.svg"
   inkscape:export-filename="../../../../../../../www/www-fsrv/m0dw3rks/newtab/gfx/RSS.jpg"
   inkscape:export-xdpi="96"
   inkscape:export-ydpi="96"
   xmlns:inkscape="http://www.inkscape.org/namespaces/inkscape"
   xmlns:sodipodi="http://sodipodi.sourceforge.net/DTD/sodipodi-0.dtd"
   xmlns:xlink="http://www.w3.org/1999/xlink"
   xmlns="http://www.w3.org/2000/svg"
   xmlns:svg="http://www.w3.org/2000/svg"
   xmlns:rdf="http://www.w3.org/1999/02/22-rdf-syntax-ns#"
   xmlns:cc="http://creativecommons.org/ns#"
   xmlns:dc="http://purl.org/dc/elements/1.1/">&gt;
  <sodipodi:namedview
   id="namedview7"
   pagecolor="#505050"
   bordercolor="#ffffff"
   borderopacity="1"
   inkscape:showpageshadow="0"
   inkscape:pageopacity="0"
   inkscape:pagecheckerboard="1"
   inkscape:deskcolor="#505050"
   inkscape:document-units="px"
   showgrid="false"
   inkscape:zoom="1.1214272"
   inkscape:cx="350.00043"
   inkscape:cy="222.93021"
   inkscape:window-width="3256"
   inkscape:window-height="1080"
   inkscape:window-x="1864"
   inkscape:window-y="0"
   inkscape:window-maximized="0"
   inkscape:current-layer="svg5" />
<defs
   id="defs2">
  <linearGradient
     inkscape:collect="always"
     id="linearGradient63538">
    <stop
       style="stop-color:#ffffff;stop-opacity:0;"
       offset="0"
       id="stop63534" />
    <stop
       style="stop-color:#000000;stop-opacity:1;"
       offset="0.5"
       id="stop63542" />
    <stop
       style="stop-color:#ffffff;stop-opacity:0;"
       offset="1"
       id="stop63536" />
  </linearGradient>
  <linearGradient
     inkscape:collect="always"
     id="linearGradient44041">
    <stop
       style="stop-color:#000000;stop-opacity:1;"
       offset="0"
       id="stop44037" />
    <stop
       style="stop-color:#ffffff;stop-opacity:0;"
       offset="1"
       id="stop44039" />
  </linearGradient>
  <linearGradient
     inkscape:collect="always"
     id="linearGradient34646">
    <stop
       style="stop-color:#ffbc00;stop-opacity:0;"
       offset="0"
       id="stop34644" />
    <stop
       style="stop-color:#000000;stop-opacity:1;"
       offset="0.49923909"
       id="stop34648" />
    <stop
       style="stop-color:#ff7a00;stop-opacity:0;"
       offset="1"
       id="stop34642" />
  </linearGradient>
  <linearGradient
     inkscape:collect="always"
     id="linearGradient1323">
    <stop
       style="stop-color:#ff7a00;stop-opacity:1;"
       offset="0"
       id="stop1319" />
    <stop
       style="stop-color:#ffbc00;stop-opacity:1;"
       offset="1"
       id="stop1321" />
  </linearGradient>
  <linearGradient
     inkscape:collect="always"
     xlink:href="#linearGradient1323"
     id="linearGradient1325"
     x1="52.861881"
     y1="0"
     x2="86.0242"
     y2="135.46666"
     gradientUnits="userSpaceOnUse" />
  <linearGradient
     inkscape:collect="always"
     xlink:href="#linearGradient1323"
     id="linearGradient1536"
     gradientUnits="userSpaceOnUse"
     x1="52.861881"
     y1="0"
     x2="86.0242"
     y2="135.46666"
     gradientTransform="matrix(0.90092788,0,0,0.90092788,-128.75619,-128.75618)" />
  <linearGradient
     inkscape:collect="always"
     xlink:href="#linearGradient34646"
     id="linearGradient34639"
     gradientUnits="userSpaceOnUse"
     x1="9.4238283e-07"
     y1="-4.8339842e-07"
     x2="135.46666"
     y2="135.46666" />
  <linearGradient
     inkscape:collect="always"
     xlink:href="#linearGradient44041"
     id="linearGradient44043"
     x1="-156.01942"
     y1="93.430214"
     x2="-105.46661"
     y2="93.430214"
     gradientUnits="userSpaceOnUse"
     gradientTransform="translate(171.89442,-26.518795)" />
  <filter
     inkscape:collect="always"
     style="color-interpolation-filters:sRGB"
     id="filter44807"
     x="-0.023265727"
     y="-0.023266541"
     width="1.0465315"
     height="1.0465331">
    <feGaussianBlur
       inkscape:collect="always"
       stdDeviation="0.98054939"
       id="feGaussianBlur44809" />
  </filter>
  <clipPath
     clipPathUnits="userSpaceOnUse"
     id="clipPath55347">
    <rect
       style="fill:#c87137;fill-opacity:1;stroke:none;stroke-width:4.76419;stroke-linecap:round;stroke-linejoin:round;stroke-opacity:0.217824;paint-order:stroke fill markers"
       id="rect55349"
       width="122.04568"
       height="122.04568"
       x="-128.75616"
       y="-128.75616"
       ry="8.1730995"
       transform="scale(-1)" />
  </clipPath>
  <filter
     inkscape:collect="always"
     style="color-interpolation-filters:sRGB"
     id="filter55351"
     x="-0.069340803"
     y="-0.068900597"
     width="1.1386816"
     height="1.1378012">
    <feGaussianBlur
       inkscape:collect="always"
       stdDeviation="7.7257572"
       id="feGaussianBlur55353" />
  </filter>
  <clipPath
     clipPathUnits="userSpaceOnUse"
     id="clipPath58304">
    <rect
       style="fill:#ffcc00;fill-opacity:1;stroke:none;stroke-width:4.76419;stroke-linecap:round;stroke-linejoin:round;stroke-opacity:0.217824;paint-order:stroke fill markers"
       id="rect58306"
       width="122.04568"
       height="122.04568"
       x="-128.75616"
       y="-128.75616"
       ry="8.1730995"
       transform="scale(-1)" />
  </clipPath>
  <filter
     inkscape:collect="always"
     style="color-interpolation-filters:sRGB"
     id="filter59034"
     x="-0.14255653"
     y="-0.13508455"
     width="1.2851131"
     height="1.2701691">
    <feGaussianBlur
       inkscape:collect="always"
       stdDeviation="13.46371"
       id="feGaussianBlur59036" />
  </filter>
  <linearGradient
     inkscape:collect="always"
     xlink:href="#linearGradient63538"
     id="linearGradient63640"
     gradientUnits="userSpaceOnUse"
     gradientTransform="translate(-76.075285,149.03354)"
     x1="259.25876"
     y1="94.2149"
     x2="285.95862"
     y2="94.2149" />
  <clipPath
     clipPathUnits="userSpaceOnUse"
     id="clipPath65096">
    <rect
       style="display:inline;opacity:0.4;mix-blend-mode:hard-light;fill:url(#linearGradient65100);fill-opacity:1;stroke:none;stroke-width:5.28809;stroke-linecap:round;stroke-linejoin:round;stroke-opacity:0.217824;paint-order:stroke fill markers"
       id="rect65098"
       width="135.46666"
       height="135.46666"
       x="243.2394"
       y="-34.700821"
       ry="11.68965"
       transform="rotate(45)" />
  </clipPath>
  <linearGradient
     inkscape:collect="always"
     xlink:href="#linearGradient34646"
     id="linearGradient65100"
     gradientUnits="userSpaceOnUse"
     gradientTransform="translate(243.2394,-34.700821)"
     x1="9.4238283e-07"
     y1="-4.8339842e-07"
     x2="135.46666"
     y2="135.46666" />
  <linearGradient
     inkscape:collect="always"
     xlink:href="#linearGradient63538"
     id="linearGradient65885"
     gradientUnits="userSpaceOnUse"
     gradientTransform="translate(-221.88278,-55.757573)"
     x1="259.25876"
     y1="94.2149"
     x2="285.95862"
     y2="94.2149" />
  <clipPath
     clipPathUnits="userSpaceOnUse"
     id="clipPath66615">
    <rect
       style="display:inline;opacity:0.4;mix-blend-mode:hard-light;fill:url(#linearGradient66619);fill-opacity:1;stroke:none;stroke-width:5.28809;stroke-linecap:round;stroke-linejoin:round;stroke-opacity:0.217824;paint-order:stroke fill markers"
       id="rect66617"
       width="135.46666"
       height="135.46666"
       x="-130.79541"
       y="-76.408546"
       ry="11.68965"
       transform="matrix(-0.70710678,-0.70710678,-0.70710678,0.70710678,0,0)" />
  </clipPath>
  <linearGradient
     inkscape:collect="always"
     xlink:href="#linearGradient34646"
     id="linearGradient66619"
     gradientUnits="userSpaceOnUse"
     gradientTransform="translate(-130.79541,-76.408546)"
     x1="9.4238283e-07"
     y1="-4.8339842e-07"
     x2="135.46666"
     y2="135.46666" />
</defs>
<g
   inkscape:label="Layer 1"
   inkscape:groupmode="layer"
   id="layer1"
   style="display:inline">
  <rect
     style="fill:url(#linearGradient1325);fill-opacity:1;stroke:none;stroke-width:5.28809;stroke-linecap:round;stroke-linejoin:round;stroke-opacity:0.217824;paint-order:stroke fill markers"
     id="rect792"
     width="135.46666"
     height="135.46666"
     x="0"
     y="0"
     ry="11.68965"
     inkscape:export-filename="../../../../../../../www/www-fsrv/m0dw3rks/newtab/gfx/RSS.jpg"
     inkscape:export-xdpi="96"
     inkscape:export-ydpi="96" />
  <rect
     style="display:inline;opacity:0.4;mix-blend-mode:hard-light;fill:url(#linearGradient34639);fill-opacity:1;stroke:none;stroke-width:5.28809;stroke-linecap:round;stroke-linejoin:round;stroke-opacity:0.217824;paint-order:stroke fill markers"
     id="rect792-9"
     width="135.46666"
     height="135.46666"
     x="0"
     y="1.4210855e-14"
     ry="11.68965" />
  <rect
     style="opacity:0.2;mix-blend-mode:hard-light;fill:url(#linearGradient63640);fill-opacity:1;stroke:none;stroke-width:7.40833;stroke-linecap:round;stroke-linejoin:round;stroke-dasharray:none;stroke-opacity:1;paint-order:stroke fill markers"
     id="rect63169-2"
     width="26.699863"
     height="203.60281"
     x="183.18349"
     y="141.44704"
     ry="0"
     transform="rotate(-45,-79.732096,310.96633)"
     clip-path="url(#clipPath65096)" />
  <rect
     style="opacity:0.2;mix-blend-mode:hard-light;fill:url(#linearGradient65885);fill-opacity:1;stroke:none;stroke-width:7.40833;stroke-linecap:round;stroke-linejoin:round;stroke-dasharray:none;stroke-opacity:1;paint-order:stroke fill markers"
     id="rect63169-5-6"
     width="26.699863"
     height="203.60281"
     x="37.37598"
     y="-63.344086"
     ry="0"
     transform="matrix(-0.70710678,-0.70710678,-0.70710678,0.70710678,130.79541,76.408549)"
     clip-path="url(#clipPath66615)" />
  <rect
     style="fill:url(#linearGradient1536);fill-opacity:1;stroke:none;stroke-width:4.76419;stroke-linecap:round;stroke-linejoin:round;stroke-opacity:0.217824;paint-order:stroke fill markers"
     id="rect792-7"
     width="122.04568"
     height="122.04568"
     x="-128.75616"
     y="-128.75616"
     ry="8.1730995"
     transform="scale(-1)" />
  <path
     id="rect49401"
     style="display:inline;opacity:0.402061;mix-blend-mode:darken;fill:#000000;stroke-width:7.40833;stroke-linecap:round;stroke-linejoin:round;paint-order:stroke fill markers;filter:url(#filter59034)"
     inkscape:transform-center-x="-47.611737"
     inkscape:transform-center-y="-62.11678"
     d="M 119.48625,-56.500427 67.733332,67.733332 162.95698,-27.370939 Z M 67.733332,67.733332 137.68979,182.70461 176.25177,147.33312 Z m 0,0 -112.1916,74.332928 36.8308267,37.17086 z m 0,0 -84.63876,-104.635989 -33.510099,40.1903116 z"
     clip-path="url(#clipPath58304)"
     inkscape:label="black" />
  <path
     id="path53850"
     style="display:inline;opacity:1;mix-blend-mode:soft-light;fill:#ffffff;stroke-width:7.40833;stroke-linecap:round;stroke-linejoin:round;paint-order:stroke fill markers;filter:url(#filter55351)"
     inkscape:transform-center-x="-67.242802"
     inkscape:transform-center-y="-28.002555"
     d="M 67.716279,-66.848632 16.388664,-56.669408 67.733332,67.733332 Z M 67.733332,67.733332 202.21918,62.635453 190.10881,11.727966 Z m 0,0 -47.761425,125.822298 51.598401,8.70541 z m 0,0 -132.915399,-21.114989 1.993677,52.289314 z"
     clip-path="url(#clipPath55347)"
     inkscape:label="white" />
  <path
     id="path55355"
     style="display:none;opacity:1;fill:#ffffff;stroke-width:7.40833;stroke-linecap:round;stroke-linejoin:round;paint-order:stroke fill markers"
     d="M 41.56956,-64.281151 H 93.897105 L 67.73333,67.73333 Z"
     sodipodi:nodetypes="cccc"
     inkscape:transform-center-x="-2.5000001e-06"
     inkscape:transform-center-y="-66.007243" />
</g>
<g
   inkscape:groupmode="layer"
   id="layer2"
   inkscape:label="Layer 2"
   style="display:inline">
  <circle
     style="display:inline;fill:#ececec;stroke:none;stroke-width:5.32138;stroke-linecap:round;stroke-linejoin:round;stroke-opacity:0.217824;paint-order:stroke fill markers"
     id="path1981"
     cx="26.722916"
     cy="108.74376"
     r="10.847917" />
  <path
     id="path6770"
     style="color:#000000;fill:#ececec;stroke-width:1.52265;stroke-linecap:round;stroke-linejoin:round;paint-order:stroke fill markers"
     d="m 26.722916,66.442455 c -3.748372,0 -7.382979,0.498268 -10.847916,1.421102 v 11.797729 c 3.373403,-1.249894 7.026504,-1.935799 10.847916,-1.935799 17.199117,0 31.020845,13.819123 31.020845,31.018263 0,3.82141 -0.685677,7.47451 -1.935799,10.84792 h 11.795146 c 0.922835,-3.46494 1.421102,-7.09955 1.421102,-10.84792 0,-23.295459 -19.005849,-42.301295 -42.301294,-42.301295 z" />
  <path
     id="path6776"
     style="color:#000000;fill:#ececec;stroke-width:1.66802;stroke-linecap:round;stroke-linejoin:round;paint-order:stroke fill markers"
     d="m 26.721366,40.337072 c -3.691018,0 -7.311869,0.303621 -10.846366,0.869715 v 12.539286 c 3.508837,-0.684186 7.132812,-1.052132 10.846366,-1.052132 31.028108,0 56.051358,25.020134 56.051358,56.048259 0,3.71464 -0.367992,7.33959 -1.052649,10.84947 h 12.539287 c 0.566468,-3.53552 0.870231,-7.15739 0.870231,-10.84947 0,-37.706468 -30.701755,-68.405128 -68.408227,-68.405128 z"
     sodipodi:nodetypes="sccssccss" />
  <path
     id="path6782"
     style="color:#000000;fill:#ececec;stroke-width:1.74248;stroke-linecap:round;stroke-linejoin:round;paint-order:stroke fill markers"
     d="m 26.722916,14.231173 c -3.668728,0 -7.286985,0.217637 -10.847916,0.626318 v 12.998173 c 3.548761,-0.469301 7.168711,-0.715719 10.847916,-0.715719 45.144112,0 81.603804,36.459658 81.603804,81.603805 0,3.67907 -0.24645,7.29924 -0.71572,10.84792 h 12.99817 c 0.40868,-3.56094 0.62632,-7.17919 0.62632,-10.84792 0,-52.120583 -42.392009,-94.512577 -94.512574,-94.512577 z"
     sodipodi:nodetypes="sccssccss" />
  <path
     id="path1981-9"
     style="display:inline;opacity:0.4;mix-blend-mode:normal;fill:url(#linearGradient44043);fill-opacity:1;stroke:none;stroke-width:5.32138;stroke-linecap:round;stroke-linejoin:round;stroke-opacity:0.217824;paint-order:stroke fill markers;filter:url(#filter44807)"
     d="m 26.827303,16.363342 c -0.575932,-7.65e-4 -1.151813,0.0035 -1.727543,0.01344 -2.25291,0.08272 -4.458303,0.100074 -6.685897,0.418062 -0.726155,0.590535 -0.334557,1.675636 -0.420646,2.484086 0.02248,1.88588 -0.05517,3.780602 0.04806,5.660637 0.577635,0.824131 1.723695,0.29558 2.547648,0.326595 20.615878,-1.568696 41.76559,4.800285 57.960802,17.685225 15.281636,12.04609 26.261533,29.531159 30.112893,48.634757 1.71439,8.280243 2.18681,16.816226 1.38027,25.234116 0.33386,0.95858 1.56161,0.60912 2.33836,0.65267 1.96359,-0.0212 3.93716,0.0563 5.89422,-0.047 0.79829,-0.55035 0.46625,-1.70498 0.6196,-2.52853 C 120.014,98.851264 116.74723,82.419434 109.60933,67.937971 100.82719,50.127302 86.077908,35.217846 68.309008,26.254211 63.246448,23.689922 57.887847,21.589937 52.437109,20.009631 44.116415,17.594723 35.466276,16.374819 26.827303,16.363342 Z m -0.104387,1.101742 c 6.666494,0.01527 13.331782,0.740571 19.838066,2.197798 8.026752,1.789878 15.934877,4.711249 23.17998,8.618079 15.726154,8.44774 28.907069,21.554161 37.363098,37.305733 8.37674,15.443188 12.08175,33.404971 10.56317,50.884746 h -6.57996 c 0.74729,-8.17297 0.29322,-16.45286 -1.32188,-24.49876 C 105.91708,72.225718 94.558808,54.136446 78.693904,41.813468 61.97135,28.698384 40.138299,22.399854 18.99729,24.379907 v -6.574276 c 2.139488,-0.192156 4.242367,-0.267466 6.392374,-0.334346 0.44439,-0.0053 0.888813,-0.0072 1.333252,-0.0062 z m 0.558106,25.002091 c -0.612563,-0.0076 -1.225272,-0.007 -1.837614,0.0016 -2.345501,0.116741 -4.724971,0.167349 -7.0528,0.583944 -0.695274,0.606651 -0.309953,1.667748 -0.397391,2.473751 0.02698,1.714354 -0.06326,3.441256 0.05374,5.147489 0.635678,0.841599 1.795188,0.205366 2.657719,0.221692 16.048113,-1.706464 32.756966,3.575378 44.753857,14.408939 11.238851,10.010748 18.421544,24.512202 19.287195,39.56399 0.267711,3.93928 0.09708,7.90909 -0.411862,11.81685 0.03523,0.74138 0.847524,0.87885 1.440223,0.78393 2.08073,-0.008 4.174935,0.0576 6.247163,-0.0475 0.789995,-0.54331 0.510056,-1.68568 0.680062,-2.50941 C 93.99935,101.58093 91.045347,87.829568 84.411384,76.133853 80.638858,69.497692 75.696119,63.497649 69.881005,58.501855 65.136749,54.426154 59.712851,50.94098 54.01479,48.355187 45.655018,44.514716 36.46946,42.581544 27.281022,42.467175 Z m -0.279053,1.11001 c 1.637568,0.0046 3.26485,0.07037 4.895308,0.205155 7.817583,0.622539 15.485768,2.700603 22.547461,6.017204 12.443288,5.819402 22.860735,15.739751 29.472103,27.784867 6.508123,11.782806 9.112204,25.601119 7.510135,38.887029 H 85.3798 c 0.47641,-3.61757 0.609942,-7.27953 0.413412,-10.92285 C 85.090723,90.196568 77.937432,75.32856 66.589733,65.00275 53.960846,53.331784 36.016823,47.789266 18.99729,50.082731 v -6.04666 c 1.674868,-0.201884 3.358384,-0.322269 5.043103,-0.402559 0.993099,-0.03985 1.979037,-0.05913 2.961576,-0.05633 z M 26.373584,68.56894 c -0.310499,9.89e-4 -0.620682,0.0053 -0.930176,0.01292 -2.416353,0.162914 -4.802062,0.27435 -7.127214,0.963248 -0.646649,0.795145 -0.185446,1.904098 -0.322977,2.83652 0.05764,1.266141 -0.12506,2.584125 0.104386,3.817338 0.698374,0.730201 1.716967,0.0084 2.541447,-0.03256 10.324762,-1.935868 21.524525,1.308435 29.072644,8.652702 7.920366,7.564339 11.704691,19.225602 9.576676,29.988352 -0.08275,0.71651 -0.372584,1.43709 -0.348816,2.14561 0.528195,0.89969 1.716674,0.4109 2.554366,0.51728 1.373014,-0.022 2.768622,0.0839 4.127397,-0.0718 0.787217,-0.63241 0.566395,-1.79535 0.829406,-2.67632 C 68.279498,102.97486 64.520428,90.483217 56.432214,81.754699 53.061557,78.049848 49.102181,75.067625 44.652571,72.812609 41.040728,70.992317 36.88617,69.623431 32.840889,69.031444 30.737836,68.71713 28.547076,68.562023 26.373584,68.56894 Z m 0.256315,1.108977 c 5.991794,0.0024 12.043617,1.392242 17.351912,4.053499 6.992413,3.481132 12.906864,9.087649 16.7566,15.883785 4.631165,8.067531 6.12141,17.877679 4.278291,26.856239 h -4.921663 c -0.1586,-0.29375 0.175488,-0.99382 0.199988,-1.45727 C 62.306665,104.67127 59.074486,93.522278 51.985973,85.752904 43.925702,76.693742 30.764728,72.703037 18.99729,75.471361 v -5.021398 c 2.095998,-0.43189 4.278868,-0.66166 6.435266,-0.75396 0.398679,-0.01219 0.797893,-0.01825 1.197343,-0.01809 z m 0.04702,30.347503 c -0.174226,-8.6e-4 -0.348445,0.004 -0.522448,0.0134 -3.620599,0.1545 -6.817769,2.93872 -7.841899,6.35569 -0.348261,1.13316 -0.43377,2.56747 -0.173633,3.81785 0.480282,3.04108 2.897,5.8578 5.901966,6.84041 3.970121,1.3475 8.683718,-0.69991 10.507885,-4.45192 1.488728,-2.9295 1.032359,-6.77102 -1.080037,-9.35757 -1.574192,-2.00021 -4.178444,-3.20496 -6.791834,-3.21789 z m -0.102836,1.10019 c 1.763538,-0.0199 3.516996,0.61313 4.894275,1.70842 2.999967,2.22532 3.705271,6.76801 1.764233,9.90069 -1.598638,2.78825 -5.076281,4.23685 -8.191748,3.53105 -3.383106,-0.64322 -5.963486,-3.85768 -6.013586,-7.27501 -0.24351,-4.05536 3.354758,-7.77852 7.376294,-7.86102 0.05689,-0.002 0.113642,-0.003 0.170532,-0.004 z" />
  <path
     id="path1981-1"
     style="display:inline;mix-blend-mode:overlay;fill:#000000;stroke:none;stroke-width:5.32138;stroke-linecap:round;stroke-linejoin:round;stroke-opacity:0.217824;paint-order:stroke fill markers"
     d="m 26.72292,14.231172 c -3.66873,0 -7.28699,0.217638 -10.84792,0.626319 v 12.998173 c 0.17593,-0.02327 0.35289,-0.04346 0.52917,-0.06563 V 15.386657 c 3.56093,-0.408679 7.17919,-0.626318 10.84792,-0.626318 25.92498,0 49.44044,10.491076 66.53185,27.447937 C 76.65043,24.94069 52.91654,14.231172 26.72292,14.231172 Z m -0.0016,26.1059 c -3.69102,0 -7.31187,0.303621 -10.84637,0.869715 v 12.539286 c 0.17564,-0.03425 0.35296,-0.06398 0.52917,-0.09663 v -11.91349 c 3.5345,-0.566089 7.15535,-0.869714 10.84637,-0.869714 18.71897,0 35.70911,7.56838 48.07613,19.801375 C 62.91742,48.124024 45.70873,40.337072 26.72132,40.337072 Z m 57.98509,10.934733 c 14.6077,14.737369 23.62026,35.030343 23.62026,57.471935 0,3.67907 -0.24646,7.29924 -0.71571,10.84792 h 0.59479 c 0.42495,-3.37947 0.65009,-6.82207 0.65009,-10.31875 0,-22.711522 -9.23025,-43.22229 -24.14943,-58.001105 z m -57.98354,15.17065 c -3.74838,0 -7.38298,0.49827 -10.84792,1.421102 v 11.797731 c 0.17461,-0.06469 0.35309,-0.12128 0.52917,-0.182936 V 68.392724 c 3.46494,-0.922829 7.09954,-1.421102 10.84792,-1.421102 11.51161,0 21.97387,4.643294 29.61473,12.149646 C 49.1835,71.304396 38.50268,66.442455 26.72287,66.442455 Z m 39.92728,2.914034 c 9.9754,10.111574 16.12253,24.009859 16.12253,39.385701 0,3.71464 -0.36799,7.33959 -1.05265,10.84947 h 0.6258 c 0.62015,-3.34506 0.95601,-6.79162 0.95601,-10.3203 0,-15.645872 -6.36493,-29.761862 -16.65169,-39.914871 z M 48.93702,87.052048 c 5.45245,5.58309 8.8067,13.225502 8.8067,21.691702 0,3.82141 -0.6857,7.47451 -1.9358,10.84792 h 0.7121 c 1.12971,-3.226 1.75286,-6.69511 1.75286,-10.31875 0,-8.73703 -3.57143,-16.596772 -9.33586,-22.220872 z m -22.21415,10.84378 a 10.847917,10.847917 0 0 0 -10.84792,10.847912 10.847917,10.847917 0 0 0 3.46439,7.91631 10.847917,10.847917 0 0 1 -2.93522,-7.38714 10.847917,10.847917 0 0 1 10.84792,-10.847912 10.847917,10.847917 0 0 1 7.39903,2.919712 10.847917,10.847917 0 0 0 -7.9282,-3.448882 z" />
  <path
     id="path1981-1-9"
     style="display:inline;mix-blend-mode:overlay;fill:#ffffff;stroke:none;stroke-width:5.32138;stroke-linecap:round;stroke-linejoin:round;stroke-opacity:0.217824;paint-order:stroke fill markers"
     d="m 26.193718,26.610787 c -3.49682,0 -6.939233,0.22511 -10.31875,0.65009 v 0.594788 c 3.548756,-0.469298 7.16871,-0.715718 10.847917,-0.715718 22.437156,0 42.727016,9.008878 57.463675,23.611478 C 69.408411,35.837565 48.900641,26.610787 26.193718,26.610787 Z M 93.25836,41.682735 c 16.95689,17.09141 27.44793,40.60684 27.44793,66.531845 0,3.66873 -0.21764,7.28698 -0.62632,10.84792 H 107.6766 c -0.0222,0.17626 -0.0424,0.35325 -0.0656,0.52917 h 12.99817 c 0.40868,-3.56094 0.62632,-7.1792 0.62632,-10.84792 0,-26.193645 -10.70949,-49.927505 -27.9771,-67.061015 z m -67.066709,10.48204 c -3.527674,0 -6.97311,0.33576 -10.3172,0.9555 v 0.6258 c 3.508837,-0.68419 7.13281,-1.05213 10.846366,-1.05213 15.379044,0 29.281104,6.14889 39.393974,16.12718 -10.15424,-10.28968 -24.27407,-16.65635 -39.92314,-16.65635 z m 48.60582,7.97316 c 12.233729,12.36625 19.802409,29.35615 19.802409,48.075095 0,3.69208 -0.30377,7.31395 -0.87023,10.84947 H 81.816161 c -0.0327,0.17619 -0.0624,0.35354 -0.0966,0.52917 H 94.25884 c 0.56646,-3.53552 0.87023,-7.1574 0.87023,-10.84947 0,-18.987435 -7.78717,-36.195845 -20.331569,-48.604265 z m -48.603753,17.05839 c -3.62365,0 -7.092765,0.62332 -10.31875,1.75287 v 0.7121 c 3.373397,-1.24989 7.0265,-1.9358 10.847917,-1.9358 8.464176,0 16.106246,3.35149 21.689636,8.80101 -5.62448,-5.7613 -13.48391,-9.33018 -22.218803,-9.33018 z m 30.148033,1.3994 c 7.50872,7.6412 12.15326,18.105175 12.15326,29.618855 0,3.74837 -0.49827,7.38298 -1.4211,10.84792 h -11.08305 c -0.0617,0.17606 -0.11823,0.35458 -0.18293,0.52917 h 11.79515 c 0.92282,-3.46494 1.4211,-7.09956 1.4211,-10.84792 0,-11.78174 -4.86333,-22.464495 -12.68243,-30.148025 z m -22.21983,22.219825 a 10.847917,10.847917 0 0 1 2.91971,7.39903 10.847917,10.847917 0 0 1 -10.847913,10.84792 10.847917,10.847917 0 0 1 -7.385079,-2.93419 10.847917,10.847917 0 0 0 7.914246,3.46336 10.847917,10.847917 0 0 0 10.847916,-10.84792 10.847917,10.847917 0 0 0 -3.44888,-7.9282 z" />
</g>
<metadata
   id="metadata1">
  <rdf:RDF>
    <cc:Work
       rdf:about="">
      <dc:creator>
        <cc:Agent>
          <dc:title>Jess Tipton</dc:title>
        </cc:Agent>
      </dc:creator>
      <dc:publisher>
        <cc:Agent>
          <dc:title>m0dw3rks.com</dc:title>
        </cc:Agent>
      </dc:publisher>
      <cc:license
         rdf:resource="https://creativecommons.org/licenses/by-nc-nd/4.0/deed.en" />
    </cc:Work>
  </rdf:RDF>
</metadata>
  <metadata
     id="metadata6">
    <rdf:RDF>
      <cc:Work
         rdf:about="">
        <dc:creator>
          <cc:Agent>
            <dc:title>Jess Tipton</dc:title>
          </cc:Agent>
        </dc:creator>
        <cc:license
           rdf:resource="https://creativecommons.org/licenses/by-nc-nd/4.0/deed.en" />
        <dc:publisher>
          <cc:Agent>
            <dc:title>m0dw3rks.com</dc:title>
          </cc:Agent>
        </dc:publisher>
      </cc:Work>
    </rdf:RDF>
  </metadata>
  <metadata
     id="metadata6">
    <rdf:RDF>
      <cc:Work
         rdf:about="">
        <dc:creator>
          <cc:Agent>
            <dc:title>Jess Tipton</dc:title>
          </cc:Agent>
        </dc:creator>
        <cc:license
           rdf:resource="https://creativecommons.org/licenses/by-nc-nd/4.0/deed.en" />
        <dc:publisher>
          <cc:Agent>
            <dc:title>m0dw3rks.com</dc:title>
          </cc:Agent>
        </dc:publisher>
      </cc:Work>
    </rdf:RDF>
  </metadata>
  <metadata
     id="metadata6">
    <rdf:RDF>
      <cc:Work
         rdf:about="">
        <dc:creator>
          <cc:Agent>
            <dc:title>Jess Tipton</dc:title>
          </cc:Agent>
        </dc:creator>
        <cc:license
           rdf:resource="https://creativecommons.org/licenses/by-nc-nd/4.0/deed.en" />
        <dc:publisher>
          <cc:Agent>
            <dc:title>m0dw3rks.com</dc:title>
          </cc:Agent>
        </dc:publisher>
      </cc:Work>
    </rdf:RDF>
  </metadata>
  <metadata
     id="metadata6">
    <rdf:RDF>
      <cc:Work
         rdf:about="">
        <dc:creator>
          <cc:Agent>
            <dc:title>Jess Tipton</dc:title>
          </cc:Agent>
        </dc:creator>
        <cc:license
           rdf:resource="https://creativecommons.org/licenses/by-nc-nd/4.0/deed.en" />
        <dc:publisher>
          <cc:Agent>
            <dc:title>m0dw3rks.com</dc:title>
          </cc:Agent>
        </dc:publisher>
      </cc:Work>
    </rdf:RDF>
  </metadata>
  <metadata
     id="metadata6">
    <rdf:RDF>
      <cc:Work
         rdf:about="">
        <dc:creator>
          <cc:Agent>
            <dc:title>Jess Tipton</dc:title>
          </cc:Agent>
        </dc:creator>
        <cc:license
           rdf:resource="https://creativecommons.org/licenses/by-nc-nd/4.0/deed.en" />
        <dc:publisher>
          <cc:Agent>
            <dc:title>m0dw3rks.com</dc:title>
          </cc:Agent>
        </dc:publisher>
      </cc:Work>
    </rdf:RDF>
  </metadata>
  <metadata
     id="metadata6">
    <rdf:RDF>
      <cc:Work
         rdf:about="">
        <dc:creator>
          <cc:Agent>
            <dc:title>Jess Tipton</dc:title>
          </cc:Agent>
        </dc:creator>
        <cc:license
           rdf:resource="https://creativecommons.org/licenses/by-nc-nd/4.0/deed.en" />
        <dc:publisher>
          <cc:Agent>
            <dc:title>m0dw3rks.com</dc:title>
          </cc:Agent>
        </dc:publisher>
      </cc:Work>
    </rdf:RDF>
  </metadata>
  <metadata
     id="metadata6">
    <rdf:RDF>
      <cc:Work
         rdf:about="">
        <dc:creator>
          <cc:Agent>
            <dc:title>Jess Tipton</dc:title>
          </cc:Agent>
        </dc:creator>
        <cc:license
           rdf:resource="https://creativecommons.org/licenses/by-nc-nd/4.0/deed.en" />
        <dc:publisher>
          <cc:Agent>
            <dc:title>m0dw3rks.com</dc:title>
          </cc:Agent>
        </dc:publisher>
      </cc:Work>
    </rdf:RDF>
  </metadata>
  <metadata
     id="metadata6">
    <rdf:RDF>
      <cc:Work
         rdf:about="">
        <dc:creator>
          <cc:Agent>
            <dc:title>Jess Tipton</dc:title>
          </cc:Agent>
        </dc:creator>
        <cc:license
           rdf:resource="https://creativecommons.org/licenses/by-nc-nd/4.0/deed.en" />
        <dc:publisher>
          <cc:Agent>
            <dc:title>m0dw3rks.com</dc:title>
          </cc:Agent>
        </dc:publisher>
      </cc:Work>
    </rdf:RDF>
  </metadata>
  <metadata
     id="metadata6">
    <rdf:RDF>
      <cc:Work
         rdf:about="">
        <dc:creator>
          <cc:Agent>
            <dc:title>Jess Tipton</dc:title>
          </cc:Agent>
        </dc:creator>
        <cc:license
           rdf:resource="https://creativecommons.org/licenses/by-nc-nd/4.0/deed.en" />
        <dc:publisher>
          <cc:Agent>
            <dc:title>m0dw3rks.com</dc:title>
          </cc:Agent>
        </dc:publisher>
      </cc:Work>
    </rdf:RDF>
  </metadata>
  <metadata
     id="metadata6">
    <rdf:RDF>
      <cc:Work
         rdf:about="">
        <dc:creator>
          <cc:Agent>
            <dc:title>Jess Tipton</dc:title>
          </cc:Agent>
        </dc:creator>
        <cc:license
           rdf:resource="https://creativecommons.org/licenses/by-nc-nd/4.0/deed.en" />
        <dc:publisher>
          <cc:Agent>
            <dc:title>m0dw3rks.com</dc:title>
          </cc:Agent>
        </dc:publisher>
      </cc:Work>
    </rdf:RDF>
  </metadata>
  <metadata
     id="metadata6">
    <rdf:RDF>
      <cc:Work
         rdf:about="">
        <dc:creator>
          <cc:Agent>
            <dc:title>Jess Tipton</dc:title>
          </cc:Agent>
        </dc:creator>
        <cc:license
           rdf:resource="https://creativecommons.org/licenses/by-nc-nd/4.0/deed.en" />
        <dc:publisher>
          <cc:Agent>
            <dc:title>m0dw3rks.com</dc:title>
          </cc:Agent>
        </dc:publisher>
      </cc:Work>
    </rdf:RDF>
  </metadata>
  <metadata
     id="metadata6">
    <rdf:RDF>
      <cc:Work
         rdf:about="">
        <dc:creator>
          <cc:Agent>
            <dc:title>Jess Tipton</dc:title>
          </cc:Agent>
        </dc:creator>
        <cc:license
           rdf:resource="https://creativecommons.org/licenses/by-nc-nd/4.0/deed.en" />
        <dc:publisher>
          <cc:Agent>
            <dc:title>m0dw3rks.com</dc:title>
          </cc:Agent>
        </dc:publisher>
      </cc:Work>
    </rdf:RDF>
  </metadata>
  <metadata
     id="metadata6">
    <rdf:RDF>
      <cc:Work
         rdf:about="">
        <dc:creator>
          <cc:Agent>
            <dc:title>Jess Tipton</dc:title>
          </cc:Agent>
        </dc:creator>
        <cc:license
           rdf:resource="https://creativecommons.org/licenses/by-nc-nd/4.0/deed.en" />
        <dc:publisher>
          <cc:Agent>
            <dc:title>m0dw3rks.com</dc:title>
          </cc:Agent>
        </dc:publisher>
      </cc:Work>
    </rdf:RDF>
  </metadata>
  <metadata
     id="metadata6">
    <rdf:RDF>
      <cc:Work
         rdf:about="">
        <dc:creator>
          <cc:Agent>
            <dc:title>Jess Tipton</dc:title>
          </cc:Agent>
        </dc:creator>
        <cc:license
           rdf:resource="https://creativecommons.org/licenses/by-nc-nd/4.0/deed.en" />
        <dc:publisher>
          <cc:Agent>
            <dc:title>m0dw3rks.com</dc:title>
          </cc:Agent>
        </dc:publisher>
      </cc:Work>
    </rdf:RDF>
  </metadata>
  <metadata
     id="metadata6">
    <rdf:RDF>
      <cc:Work
         rdf:about="">
        <dc:creator>
          <cc:Agent>
            <dc:title>Jess Tipton</dc:title>
          </cc:Agent>
        </dc:creator>
        <cc:license
           rdf:resource="https://creativecommons.org/licenses/by-nc-nd/4.0/deed.en" />
        <dc:publisher>
          <cc:Agent>
            <dc:title>m0dw3rks.com</dc:title>
          </cc:Agent>
        </dc:publisher>
      </cc:Work>
    </rdf:RDF>
  </metadata>
  <metadata
     id="metadata6">
    <rdf:RDF>
      <cc:Work
         rdf:about="">
        <dc:creator>
          <cc:Agent>
            <dc:title>Jess Tipton</dc:title>
          </cc:Agent>
        </dc:creator>
        <cc:license
           rdf:resource="https://creativecommons.org/licenses/by-nc-nd/4.0/deed.en" />
        <dc:publisher>
          <cc:Agent>
            <dc:title>m0dw3rks.com</dc:title>
          </cc:Agent>
        </dc:publisher>
      </cc:Work>
    </rdf:RDF>
  </metadata>
  <metadata
     id="metadata6">
    <rdf:RDF>
      <cc:Work
         rdf:about="">
        <dc:creator>
          <cc:Agent>
            <dc:title>Jess Tipton</dc:title>
          </cc:Agent>
        </dc:creator>
        <cc:license
           rdf:resource="https://creativecommons.org/licenses/by-nc-nd/4.0/deed.en" />
        <dc:publisher>
          <cc:Agent>
            <dc:title>m0dw3rks.com</dc:title>
          </cc:Agent>
        </dc:publisher>
      </cc:Work>
    </rdf:RDF>
  </metadata>
  <metadata
     id="metadata6">
    <rdf:RDF>
      <cc:Work
         rdf:about="">
        <dc:creator>
          <cc:Agent>
            <dc:title>Jess Tipton</dc:title>
          </cc:Agent>
        </dc:creator>
        <cc:license
           rdf:resource="https://creativecommons.org/licenses/by-nc-nd/4.0/deed.en" />
        <dc:publisher>
          <cc:Agent>
            <dc:title>m0dw3rks.com</dc:title>
          </cc:Agent>
        </dc:publisher>
      </cc:Work>
    </rdf:RDF>
  </metadata>
  <metadata
     id="metadata6">
    <rdf:RDF>
      <cc:Work
         rdf:about="">
        <dc:creator>
          <cc:Agent>
            <dc:title>Jess Tipton</dc:title>
          </cc:Agent>
        </dc:creator>
        <cc:license
           rdf:resource="https://creativecommons.org/licenses/by-nc-nd/4.0/deed.en" />
        <dc:publisher>
          <cc:Agent>
            <dc:title>m0dw3rks.com</dc:title>
          </cc:Agent>
        </dc:publisher>
      </cc:Work>
    </rdf:RDF>
  </metadata>
  <metadata
     id="metadata6">
    <rdf:RDF>
      <cc:Work
         rdf:about="">
        <dc:creator>
          <cc:Agent>
            <dc:title>Jess Tipton</dc:title>
          </cc:Agent>
        </dc:creator>
        <cc:license
           rdf:resource="https://creativecommons.org/licenses/by-nc-nd/4.0/deed.en" />
        <dc:publisher>
          <cc:Agent>
            <dc:title>m0dw3rks.com</dc:title>
          </cc:Agent>
        </dc:publisher>
      </cc:Work>
    </rdf:RDF>
  </metadata>
  <metadata
     id="metadata6">
    <rdf:RDF>
      <cc:Work
         rdf:about="">
        <dc:creator>
          <cc:Agent>
            <dc:title>Jess Tipton</dc:title>
          </cc:Agent>
        </dc:creator>
        <cc:license
           rdf:resource="https://creativecommons.org/licenses/by-nc-nd/4.0/deed.en" />
        <dc:publisher>
          <cc:Agent>
            <dc:title>m0dw3rks.com</dc:title>
          </cc:Agent>
        </dc:publisher>
      </cc:Work>
    </rdf:RDF>
  </metadata>
  <metadata
     id="metadata6">
    <rdf:RDF>
      <cc:Work
         rdf:about="">
        <dc:creator>
          <cc:Agent>
            <dc:title>Jess Tipton</dc:title>
          </cc:Agent>
        </dc:creator>
        <cc:license
           rdf:resource="https://creativecommons.org/licenses/by-nc-nd/4.0/deed.en" />
        <dc:publisher>
          <cc:Agent>
            <dc:title>m0dw3rks.com</dc:title>
          </cc:Agent>
        </dc:publisher>
      </cc:Work>
    </rdf:RDF>
  </metadata>
  <metadata
     id="metadata6">
    <rdf:RDF>
      <cc:Work
         rdf:about="">
        <dc:creator>
          <cc:Agent>
            <dc:title>Jess Tipton</dc:title>
          </cc:Agent>
        </dc:creator>
        <cc:license
           rdf:resource="https://creativecommons.org/licenses/by-nc-nd/4.0/deed.en" />
        <dc:publisher>
          <cc:Agent>
            <dc:title>m0dw3rks.com</dc:title>
          </cc:Agent>
        </dc:publisher>
      </cc:Work>
    </rdf:RDF>
  </metadata>
  <metadata
     id="metadata6">
    <rdf:RDF>
      <cc:Work
         rdf:about="">
        <dc:creator>
          <cc:Agent>
            <dc:title>Jess Tipton</dc:title>
          </cc:Agent>
        </dc:creator>
        <cc:license
           rdf:resource="https://creativecommons.org/licenses/by-nc-nd/4.0/deed.en" />
        <dc:publisher>
          <cc:Agent>
            <dc:title>m0dw3rks.com</dc:title>
          </cc:Agent>
        </dc:publisher>
      </cc:Work>
    </rdf:RDF>
  </metadata>
  <metadata
     id="metadata6">
    <rdf:RDF>
      <cc:Work
         rdf:about="">
        <dc:creator>
          <cc:Agent>
            <dc:title>Jess Tipton</dc:title>
          </cc:Agent>
        </dc:creator>
        <cc:license
           rdf:resource="https://creativecommons.org/licenses/by-nc-nd/4.0/deed.en" />
        <dc:publisher>
          <cc:Agent>
            <dc:title>m0dw3rks.com</dc:title>
          </cc:Agent>
        </dc:publisher>
      </cc:Work>
    </rdf:RDF>
  </metadata>
  <metadata
     id="metadata6">
    <rdf:RDF>
      <cc:Work
         rdf:about="">
        <dc:creator>
          <cc:Agent>
            <dc:title>Jess Tipton</dc:title>
          </cc:Agent>
        </dc:creator>
        <cc:license
           rdf:resource="https://creativecommons.org/licenses/by-nc-nd/4.0/deed.en" />
        <dc:publisher>
          <cc:Agent>
            <dc:title>m0dw3rks.com</dc:title>
          </cc:Agent>
        </dc:publisher>
      </cc:Work>
    </rdf:RDF>
  </metadata>
  <metadata
     id="metadata6">
    <rdf:RDF>
      <cc:Work
         rdf:about="">
        <dc:creator>
          <cc:Agent>
            <dc:title>Jess Tipton</dc:title>
          </cc:Agent>
        </dc:creator>
        <cc:license
           rdf:resource="https://creativecommons.org/licenses/by-nc-nd/4.0/deed.en" />
        <dc:publisher>
          <cc:Agent>
            <dc:title>m0dw3rks.com</dc:title>
          </cc:Agent>
        </dc:publisher>
      </cc:Work>
    </rdf:RDF>
  </metadata>
  <metadata
     id="metadata6">
    <rdf:RDF>
      <cc:Work
         rdf:about="">
        <dc:creator>
          <cc:Agent>
            <dc:title>Jess Tipton</dc:title>
          </cc:Agent>
        </dc:creator>
        <cc:license
           rdf:resource="https://creativecommons.org/licenses/by-nc-nd/4.0/deed.en" />
        <dc:publisher>
          <cc:Agent>
            <dc:title>m0dw3rks.com</dc:title>
          </cc:Agent>
        </dc:publisher>
      </cc:Work>
    </rdf:RDF>
  </metadata>
  <metadata
     id="metadata6">
    <rdf:RDF>
      <cc:Work
         rdf:about="">
        <dc:creator>
          <cc:Agent>
            <dc:title>Jess Tipton</dc:title>
          </cc:Agent>
        </dc:creator>
        <cc:license
           rdf:resource="https://creativecommons.org/licenses/by-nc-nd/4.0/deed.en" />
        <dc:publisher>
          <cc:Agent>
            <dc:title>m0dw3rks.com</dc:title>
          </cc:Agent>
        </dc:publisher>
      </cc:Work>
    </rdf:RDF>
  </metadata>
  <metadata
     id="metadata6">
    <rdf:RDF>
      <cc:Work
         rdf:about="">
        <dc:creator>
          <cc:Agent>
            <dc:title>Jess Tipton</dc:title>
          </cc:Agent>
        </dc:creator>
        <cc:license
           rdf:resource="https://creativecommons.org/licenses/by-nc-nd/4.0/deed.en" />
        <dc:publisher>
          <cc:Agent>
            <dc:title>m0dw3rks.com</dc:title>
          </cc:Agent>
        </dc:publisher>
      </cc:Work>
    </rdf:RDF>
  </metadata>
  <metadata
     id="metadata6">
    <rdf:RDF>
      <cc:Work
         rdf:about="">
        <dc:creator>
          <cc:Agent>
            <dc:title>Jess Tipton</dc:title>
          </cc:Agent>
        </dc:creator>
        <cc:license
           rdf:resource="https://creativecommons.org/licenses/by-nc-nd/4.0/deed.en" />
        <dc:publisher>
          <cc:Agent>
            <dc:title>m0dw3rks.com</dc:title>
          </cc:Agent>
        </dc:publisher>
      </cc:Work>
    </rdf:RDF>
  </metadata>
  <metadata
     id="metadata6">
    <rdf:RDF>
      <cc:Work
         rdf:about="">
        <dc:creator>
          <cc:Agent>
            <dc:title>Jess Tipton</dc:title>
          </cc:Agent>
        </dc:creator>
        <cc:license
           rdf:resource="https://creativecommons.org/licenses/by-nc-nd/4.0/deed.en" />
        <dc:publisher>
          <cc:Agent>
            <dc:title>m0dw3rks.com</dc:title>
          </cc:Agent>
        </dc:publisher>
      </cc:Work>
    </rdf:RDF>
  </metadata>
  <metadata
     id="metadata6">
    <rdf:RDF>
      <cc:Work
         rdf:about="">
        <dc:creator>
          <cc:Agent>
            <dc:title>Jess Tipton</dc:title>
          </cc:Agent>
        </dc:creator>
        <cc:license
           rdf:resource="https://creativecommons.org/licenses/by-nc-nd/4.0/deed.en" />
        <dc:publisher>
          <cc:Agent>
            <dc:title>m0dw3rks.com</dc:title>
          </cc:Agent>
        </dc:publisher>
      </cc:Work>
    </rdf:RDF>
  </metadata>
  <metadata
     id="metadata6">
    <rdf:RDF>
      <cc:Work
         rdf:about="">
        <dc:creator>
          <cc:Agent>
            <dc:title>Jess Tipton</dc:title>
          </cc:Agent>
        </dc:creator>
        <cc:license
           rdf:resource="https://creativecommons.org/licenses/by-nc-nd/4.0/deed.en" />
        <dc:publisher>
          <cc:Agent>
            <dc:title>m0dw3rks.com</dc:title>
          </cc:Agent>
        </dc:publisher>
      </cc:Work>
    </rdf:RDF>
  </metadata>
  <metadata
     id="metadata6">
    <rdf:RDF>
      <cc:Work
         rdf:about="">
        <dc:creator>
          <cc:Agent>
            <dc:title>Jess Tipton</dc:title>
          </cc:Agent>
        </dc:creator>
        <cc:license
           rdf:resource="https://creativecommons.org/licenses/by-nc-nd/4.0/deed.en" />
        <dc:publisher>
          <cc:Agent>
            <dc:title>m0dw3rks.com</dc:title>
          </cc:Agent>
        </dc:publisher>
      </cc:Work>
    </rdf:RDF>
  </metadata>
  <metadata
     id="metadata6">
    <rdf:RDF>
      <cc:Work
         rdf:about="">
        <dc:creator>
          <cc:Agent>
            <dc:title>Jess Tipton</dc:title>
          </cc:Agent>
        </dc:creator>
        <cc:license
           rdf:resource="https://creativecommons.org/licenses/by-nc-nd/4.0/deed.en" />
        <dc:publisher>
          <cc:Agent>
            <dc:title>m0dw3rks.com</dc:title>
          </cc:Agent>
        </dc:publisher>
      </cc:Work>
    </rdf:RDF>
  </metadata>
  <metadata
     id="metadata6">
    <rdf:RDF>
      <cc:Work
         rdf:about="">
        <dc:creator>
          <cc:Agent>
            <dc:title>Jess Tipton</dc:title>
          </cc:Agent>
        </dc:creator>
        <cc:license
           rdf:resource="https://creativecommons.org/licenses/by-nc-nd/4.0/deed.en" />
        <dc:publisher>
          <cc:Agent>
            <dc:title>m0dw3rks.com</dc:title>
          </cc:Agent>
        </dc:publisher>
      </cc:Work>
    </rdf:RDF>
  </metadata>
  <metadata
     id="metadata6">
    <rdf:RDF>
      <cc:Work
         rdf:about="">
        <dc:creator>
          <cc:Agent>
            <dc:title>Jess Tipton</dc:title>
          </cc:Agent>
        </dc:creator>
        <cc:license
           rdf:resource="https://creativecommons.org/licenses/by-nc-nd/4.0/deed.en" />
        <dc:publisher>
          <cc:Agent>
            <dc:title>m0dw3rks.com</dc:title>
          </cc:Agent>
        </dc:publisher>
      </cc:Work>
    </rdf:RDF>
  </metadata>
  <metadata
     id="metadata6">
    <rdf:RDF>
      <cc:Work
         rdf:about="">
        <dc:creator>
          <cc:Agent>
            <dc:title>Jess Tipton</dc:title>
          </cc:Agent>
        </dc:creator>
        <cc:license
           rdf:resource="https://creativecommons.org/licenses/by-nc-nd/4.0/deed.en" />
        <dc:publisher>
          <cc:Agent>
            <dc:title>m0dw3rks.com</dc:title>
          </cc:Agent>
        </dc:publisher>
      </cc:Work>
    </rdf:RDF>
  </metadata>
  <metadata
     id="metadata6">
    <rdf:RDF>
      <cc:Work
         rdf:about="">
        <dc:creator>
          <cc:Agent>
            <dc:title>Jess Tipton</dc:title>
          </cc:Agent>
        </dc:creator>
        <cc:license
           rdf:resource="https://creativecommons.org/licenses/by-nc-nd/4.0/deed.en" />
        <dc:publisher>
          <cc:Agent>
            <dc:title>m0dw3rks.com</dc:title>
          </cc:Agent>
        </dc:publisher>
      </cc:Work>
    </rdf:RDF>
  </metadata>
  <metadata
     id="metadata6">
    <rdf:RDF>
      <cc:Work
         rdf:about="">
        <dc:creator>
          <cc:Agent>
            <dc:title>Jess Tipton</dc:title>
          </cc:Agent>
        </dc:creator>
        <cc:license
           rdf:resource="https://creativecommons.org/licenses/by-nc-nd/4.0/deed.en" />
        <dc:publisher>
          <cc:Agent>
            <dc:title>m0dw3rks.com</dc:title>
          </cc:Agent>
        </dc:publisher>
      </cc:Work>
    </rdf:RDF>
  </metadata>
  <metadata
     id="metadata6">
    <rdf:RDF>
      <cc:Work
         rdf:about="">
        <dc:creator>
          <cc:Agent>
            <dc:title>Jess Tipton</dc:title>
          </cc:Agent>
        </dc:creator>
        <cc:license
           rdf:resource="https://creativecommons.org/licenses/by-nc-nd/4.0/deed.en" />
        <dc:publisher>
          <cc:Agent>
            <dc:title>m0dw3rks.com</dc:title>
          </cc:Agent>
        </dc:publisher>
      </cc:Work>
    </rdf:RDF>
  </metadata>
  <metadata
     id="metadata6">
    <rdf:RDF>
      <cc:Work
         rdf:about="">
        <dc:creator>
          <cc:Agent>
            <dc:title>Jess Tipton</dc:title>
          </cc:Agent>
        </dc:creator>
        <cc:license
           rdf:resource="https://creativecommons.org/licenses/by-nc-nd/4.0/deed.en" />
        <dc:publisher>
          <cc:Agent>
            <dc:title>m0dw3rks.com</dc:title>
          </cc:Agent>
        </dc:publisher>
      </cc:Work>
    </rdf:RDF>
  </metadata>
  <metadata
     id="metadata6">
    <rdf:RDF>
      <cc:Work
         rdf:about="">
        <dc:creator>
          <cc:Agent>
            <dc:title>Jess Tipton</dc:title>
          </cc:Agent>
        </dc:creator>
        <cc:license
           rdf:resource="https://creativecommons.org/licenses/by-nc-nd/4.0/deed.en" />
        <dc:publisher>
          <cc:Agent>
            <dc:title>m0dw3rks.com</dc:title>
          </cc:Agent>
        </dc:publisher>
      </cc:Work>
    </rdf:RDF>
  </metadata>
  <metadata
     id="metadata6">
    <rdf:RDF>
      <cc:Work
         rdf:about="">
        <dc:creator>
          <cc:Agent>
            <dc:title>Jess Tipton</dc:title>
          </cc:Agent>
        </dc:creator>
        <cc:license
           rdf:resource="https://creativecommons.org/licenses/by-nc-nd/4.0/deed.en" />
        <dc:publisher>
          <cc:Agent>
            <dc:title>m0dw3rks.com</dc:title>
          </cc:Agent>
        </dc:publisher>
      </cc:Work>
    </rdf:RDF>
  </metadata>
  <metadata
     id="metadata6">
    <rdf:RDF>
      <cc:Work
         rdf:about="">
        <dc:creator>
          <cc:Agent>
            <dc:title>Jess Tipton</dc:title>
          </cc:Agent>
        </dc:creator>
        <cc:license
           rdf:resource="https://creativecommons.org/licenses/by-nc-nd/4.0/deed.en" />
        <dc:publisher>
          <cc:Agent>
            <dc:title>m0dw3rks.com</dc:title>
          </cc:Agent>
        </dc:publisher>
      </cc:Work>
    </rdf:RDF>
  </metadata>
  <metadata
     id="metadata6">
    <rdf:RDF>
      <cc:Work
         rdf:about="">
        <dc:creator>
          <cc:Agent>
            <dc:title>Jess Tipton</dc:title>
          </cc:Agent>
        </dc:creator>
        <cc:license
           rdf:resource="https://creativecommons.org/licenses/by-nc-nd/4.0/deed.en" />
        <dc:publisher>
          <cc:Agent>
            <dc:title>m0dw3rks.com</dc:title>
          </cc:Agent>
        </dc:publisher>
      </cc:Work>
    </rdf:RDF>
  </metadata>
  <metadata
     id="metadata6">
    <rdf:RDF>
      <cc:Work
         rdf:about="">
        <dc:creator>
          <cc:Agent>
            <dc:title>Jess Tipton</dc:title>
          </cc:Agent>
        </dc:creator>
        <cc:license
           rdf:resource="https://creativecommons.org/licenses/by-nc-nd/4.0/deed.en" />
        <dc:publisher>
          <cc:Agent>
            <dc:title>m0dw3rks.com</dc:title>
          </cc:Agent>
        </dc:publisher>
      </cc:Work>
    </rdf:RDF>
  </metadata>
  <metadata
     id="metadata6">
    <rdf:RDF>
      <cc:Work
         rdf:about="">
        <dc:creator>
          <cc:Agent>
            <dc:title>Jess Tipton</dc:title>
          </cc:Agent>
        </dc:creator>
        <cc:license
           rdf:resource="https://creativecommons.org/licenses/by-nc-nd/4.0/deed.en" />
        <dc:publisher>
          <cc:Agent>
            <dc:title>m0dw3rks.com</dc:title>
          </cc:Agent>
        </dc:publisher>
      </cc:Work>
    </rdf:RDF>
  </metadata>
  <metadata
     id="metadata6">
    <rdf:RDF>
      <cc:Work
         rdf:about="">
        <dc:creator>
          <cc:Agent>
            <dc:title>Jess Tipton</dc:title>
          </cc:Agent>
        </dc:creator>
        <cc:license
           rdf:resource="https://creativecommons.org/licenses/by-nc-nd/4.0/deed.en" />
        <dc:publisher>
          <cc:Agent>
            <dc:title>m0dw3rks.com</dc:title>
          </cc:Agent>
        </dc:publisher>
      </cc:Work>
    </rdf:RDF>
  </metadata>
  <metadata
     id="metadata6">
    <rdf:RDF>
      <cc:Work
         rdf:about="">
        <dc:creator>
          <cc:Agent>
            <dc:title>Jess Tipton</dc:title>
          </cc:Agent>
        </dc:creator>
        <cc:license
           rdf:resource="https://creativecommons.org/licenses/by-nc-nd/4.0/deed.en" />
        <dc:publisher>
          <cc:Agent>
            <dc:title>m0dw3rks.com</dc:title>
          </cc:Agent>
        </dc:publisher>
      </cc:Work>
    </rdf:RDF>
  </metadata>
</svg>
