<?xml version="1.0" encoding="UTF-8" standalone="no"?>
<!-- Created with Inkscape (http://www.inkscape.org/) -->

<svg
   width="512"
   height="512"
   viewBox="0 0 135.46666 135.46667"
   version="1.1"
   id="svg5"
   inkscape:version="1.4 (e7c3feb100, 2024-10-09)"
   sodipodi:docname="simplescreenrecorder.svg"
   xmlns:inkscape="http://www.inkscape.org/namespaces/inkscape"
   xmlns:sodipodi="http://sodipodi.sourceforge.net/DTD/sodipodi-0.dtd"
   xmlns:xlink="http://www.w3.org/1999/xlink"
   xmlns="http://www.w3.org/2000/svg"
   xmlns:svg="http://www.w3.org/2000/svg">
  <sodipodi:namedview
     id="namedview7"
     pagecolor="#242424"
     bordercolor="#666666"
     borderopacity="1"
     inkscape:showpageshadow="0"
     inkscape:pageopacity="0"
     inkscape:pagecheckerboard="1"
     inkscape:deskcolor="#000000"
     inkscape:document-units="px"
     showgrid="false"
     inkscape:zoom="0.921875"
     inkscape:cx="180.0678"
     inkscape:cy="369.35593"
     inkscape:window-width="3256"
     inkscape:window-height="1080"
     inkscape:window-x="1864"
     inkscape:window-y="0"
     inkscape:window-maximized="0"
     inkscape:current-layer="layer1" />
  <defs
     id="defs2">
    <linearGradient
       id="linearGradient47"
       inkscape:collect="always">
      <stop
         style="stop-color:#000000;stop-opacity:0;"
         offset="0"
         id="stop47" />
      <stop
         style="stop-color:#ffffff;stop-opacity:0.5;"
         offset="1"
         id="stop48" />
    </linearGradient>
    <linearGradient
       id="linearGradient42"
       inkscape:collect="always">
      <stop
         style="stop-color:#f9f9f9;stop-opacity:1;"
         offset="0"
         id="stop42" />
      <stop
         style="stop-color:#f9f9f9;stop-opacity:0;"
         offset="0.49963704"
         id="stop43" />
    </linearGradient>
    <linearGradient
       id="linearGradient36"
       inkscape:collect="always">
      <stop
         style="stop-color:#ffffff;stop-opacity:1;"
         offset="0.91006511"
         id="stop36" />
      <stop
         style="stop-color:#ffffff;stop-opacity:0;"
         offset="1"
         id="stop37" />
    </linearGradient>
    <linearGradient
       id="linearGradient29"
       inkscape:collect="always">
      <stop
         style="stop-color:#ffffff;stop-opacity:1;"
         offset="0"
         id="stop30" />
      <stop
         style="stop-color:#000000;stop-opacity:1;"
         offset="1"
         id="stop31" />
    </linearGradient>
    <linearGradient
       id="linearGradient28"
       inkscape:collect="always">
      <stop
         style="stop-color:#ffffff;stop-opacity:1;"
         offset="0"
         id="stop29" />
      <stop
         style="stop-color:#000000;stop-opacity:1;"
         offset="1"
         id="stop28" />
    </linearGradient>
    <linearGradient
       id="linearGradient25"
       inkscape:collect="always">
      <stop
         style="stop-color:#ffffff;stop-opacity:0;"
         offset="0.88241696"
         id="stop26" />
      <stop
         style="stop-color:#ffffff;stop-opacity:1;"
         offset="1"
         id="stop25" />
    </linearGradient>
    <linearGradient
       id="linearGradient23"
       inkscape:collect="always">
      <stop
         style="stop-color:#0f0f0f;stop-opacity:1;"
         offset="0"
         id="stop23" />
      <stop
         style="stop-color:#000000;stop-opacity:1;"
         offset="1"
         id="stop22" />
    </linearGradient>
    <linearGradient
       id="linearGradient12"
       inkscape:collect="always">
      <stop
         style="stop-color:#ffffff;stop-opacity:1;"
         offset="0"
         id="stop11" />
      <stop
         style="stop-color:#ffffff;stop-opacity:0;"
         offset="1"
         id="stop12" />
    </linearGradient>
    <linearGradient
       id="linearGradient10"
       inkscape:collect="always">
      <stop
         style="stop-color:#666666;stop-opacity:1;"
         offset="0.49168295"
         id="stop10" />
      <stop
         style="stop-color:#000000;stop-opacity:1;"
         offset="1"
         id="stop9" />
    </linearGradient>
    <linearGradient
       id="linearGradient4"
       inkscape:collect="always">
      <stop
         style="stop-color:#141414;stop-opacity:1;"
         offset="0"
         id="stop5" />
      <stop
         style="stop-color:#ffffff;stop-opacity:1;"
         offset="1"
         id="stop6" />
    </linearGradient>
    <linearGradient
       id="linearGradient3"
       inkscape:collect="always">
      <stop
         style="stop-color:#000000;stop-opacity:1;"
         offset="0"
         id="stop3" />
      <stop
         style="stop-color:#0f0f0f;stop-opacity:1;"
         offset="1"
         id="stop4" />
    </linearGradient>
    <radialGradient
       inkscape:collect="always"
       xlink:href="#linearGradient23"
       id="radialGradient4"
       cx="269.2113"
       cy="85.527679"
       fx="269.2113"
       fy="85.527679"
       r="60.271183"
       gradientUnits="userSpaceOnUse"
       gradientTransform="matrix(-0.7759666,0,0,0.7759666,276.63231,1.3667119)" />
    <linearGradient
       inkscape:collect="always"
       xlink:href="#linearGradient4"
       id="linearGradient6"
       x1="18.646398"
       y1="67.73333"
       x2="116.82026"
       y2="67.73333"
       gradientUnits="userSpaceOnUse"
       gradientTransform="matrix(-1,0,0,1,135.46666,0)" />
    <radialGradient
       inkscape:collect="always"
       xlink:href="#linearGradient10"
       id="radialGradient9"
       cx="242.80762"
       cy="57.114258"
       fx="242.80762"
       fy="57.114258"
       r="49.616211"
       gradientUnits="userSpaceOnUse"
       gradientTransform="translate(-175.07429,10.619071)" />
    <linearGradient
       inkscape:collect="always"
       xlink:href="#linearGradient12"
       id="linearGradient11"
       x1="-186.55367"
       y1="7.4621429"
       x2="-186.55367"
       y2="63.4907"
       gradientUnits="userSpaceOnUse"
       gradientTransform="matrix(-0.87752265,0,0,0.87752265,-95.971728,19.626937)" />
    <filter
       inkscape:collect="always"
       style="color-interpolation-filters:sRGB"
       id="filter17"
       x="-0.55296005"
       y="-0.55296002"
       width="2.1059201"
       height="2.1059201">
      <feGaussianBlur
         inkscape:collect="always"
         stdDeviation="10.305931"
         id="feGaussianBlur17" />
    </filter>
    <clipPath
       clipPathUnits="userSpaceOnUse"
       id="clipPath20">
      <path
         style="fill:url(#radialGradient21);stroke-width:0.999998;stroke-linecap:round;stroke-linejoin:round;stroke-miterlimit:1;paint-order:fill markers stroke"
         d="M 193.29827,44.772975 A 47.499431,47.499431 0 0 0 240.7977,92.272406 47.499431,47.499431 0 0 0 288.29713,44.772975 47.499431,47.499431 0 0 0 240.7977,-2.726457 47.499431,47.499431 0 0 0 193.29827,44.772975 Z"
         id="path21" />
    </clipPath>
    <radialGradient
       inkscape:collect="always"
       xlink:href="#linearGradient3"
       id="radialGradient21"
       gradientUnits="userSpaceOnUse"
       gradientTransform="matrix(-0.78809521,0,0,0.78809521,452.96184,-22.630978)"
       cx="269.2113"
       cy="85.527679"
       fx="269.2113"
       fy="85.527679"
       r="60.271183" />
    <radialGradient
       inkscape:collect="always"
       xlink:href="#linearGradient25"
       id="radialGradient26"
       cx="213.19239"
       cy="68.696288"
       fx="213.19239"
       fy="68.696288"
       r="32.536135"
       gradientUnits="userSpaceOnUse"
       gradientTransform="matrix(0.98461021,0,0,0.98461021,-142.17806,0.09426838)" />
    <radialGradient
       inkscape:collect="always"
       xlink:href="#linearGradient28"
       id="radialGradient29"
       cx="225.36891"
       cy="42.922581"
       fx="225.36891"
       fy="42.922581"
       r="41.29903"
       gradientUnits="userSpaceOnUse"
       gradientTransform="matrix(1.3309734,0,0,1.3309734,-232.2267,10.604538)" />
    <linearGradient
       inkscape:collect="always"
       xlink:href="#linearGradient29"
       id="linearGradient31"
       x1="260.31412"
       y1="13.229141"
       x2="260.31412"
       y2="151.8708"
       gradientUnits="userSpaceOnUse"
       gradientTransform="matrix(0.98461021,0,0,0.98461021,-188.57482,-13.546236)" />
    <radialGradient
       inkscape:collect="always"
       xlink:href="#linearGradient36"
       id="radialGradient37"
       cx="252.94167"
       cy="67.73333"
       fx="252.94167"
       fy="67.73333"
       r="60.271255"
       gradientUnits="userSpaceOnUse"
       gradientTransform="matrix(1.0114221,0,0,1.0114221,-188.09745,-0.77365134)" />
    <linearGradient
       inkscape:collect="always"
       xlink:href="#linearGradient42"
       id="linearGradient43"
       x1="-271.94464"
       y1="-48.204041"
       x2="-271.94464"
       y2="88.320969"
       gradientUnits="userSpaceOnUse"
       gradientTransform="matrix(1.0077519,0,0,1.0077519,341.78606,47.34177)" />
    <linearGradient
       inkscape:collect="always"
       xlink:href="#linearGradient47"
       id="linearGradient48"
       x1="67.698929"
       y1="2.9129155"
       x2="67.73307"
       y2="132.55627"
       gradientUnits="userSpaceOnUse"
       gradientTransform="translate(1.0499999e-6)" />
  </defs>
  <g
     inkscape:label="Layer 1"
     inkscape:groupmode="layer"
     id="layer1">
    <g
       id="g45"
       transform="matrix(0.98461021,0,0,0.98461021,1.0422515,1.042835)"
       style="display:inline;stroke-width:1.01563"
       inkscape:label="knurling">
      <path
         id="path42"
         style="fill:#000000;fill-opacity:1;stroke:none;stroke-width:0.268719;stroke-linecap:round;stroke-linejoin:round;stroke-miterlimit:1;stroke-dasharray:none;stroke-opacity:1;paint-order:fill markers stroke"
         d="m 67.733325,-1.0583311 a 68.791661,68.791661 0 0 0 -0.643147,0.045833 L 66.331935,23.135096 64.070228,-0.79637905 a 68.791661,68.791661 0 0 0 -1.291505,0.092693 L 63.534356,23.311112 59.765545,-0.48808658 a 68.791661,68.791661 0 0 0 -1.286829,0.091655 L 60.753444,23.662111 55.50356,0.17276991 A 68.791661,68.791661 0 0 0 54.239134,0.44773703 L 57.999611,24.187568 51.290009,1.0893263 A 68.791661,68.791661 0 0 0 50.02662,1.3642924 L 55.284838,24.884359 47.114993,2.1897138 A 68.791661,68.791661 0 0 0 45.9042,2.6417419 L 52.619012,25.750921 43.075904,3.6963019 A 68.791661,68.791661 0 0 0 41.863024,4.148851 L 50.012562,26.782567 39.030032,5.2273662 a 68.791661,68.791661 0 0 0 -1.131635,0.617633 L 47.476403,27.976172 35.245601,7.2937827 a 68.791661,68.791661 0 0 0 -1.136845,0.620758 L 45.019938,29.326528 31.454388,9.3638441 A 68.791661,68.791661 0 0 0 30.341507,10.012202 L 42.653031,30.828431 27.915758,11.828129 a 68.791661,68.791661 0 0 0 -1.036856,0.775947 L 40.385075,32.476147 24.46201,14.413752 a 68.791661,68.791661 0 0 0 -1.034255,0.773865 L 38.225443,34.262909 21.196259,17.232682 a 68.791661,68.791661 0 0 0 -0.914998,0.914473 L 36.181943,36.181948 18.147669,20.281271 a 68.791661,68.791661 0 0 0 -0.914988,0.914993 L 34.262902,38.22545 15.187609,23.428286 a 68.791661,68.791661 0 0 0 -0.773862,1.033728 L 32.476137,40.385085 12.604066,26.878909 a 68.791661,68.791661 0 0 0 -0.775939,1.036854 L 30.828947,42.653039 10.012199,30.340989 A 68.791661,68.791661 0 0 0 9.3638413,31.453876 L 29.32652,45.019418 7.9145328,34.108762 a 68.791661,68.791661 0 0 0 -0.620755,1.136842 L 27.976162,47.475892 5.8455174,37.898407 a 68.791661,68.791661 0 0 0 -0.618155,1.131634 L 26.783085,50.012564 4.1488461,41.863031 A 68.791661,68.791661 0 0 0 3.696819,43.075383 L 25.750915,52.618498 2.641733,45.904207 A 68.791661,68.791661 0 0 0 2.1897059,47.114998 L 24.884873,55.284841 1.3642865,50.026623 A 68.791661,68.791661 0 0 0 1.0893214,51.290012 L 24.187559,57.999616 0.44773618,54.239134 A 68.791661,68.791661 0 0 0 0.172761,55.503564 l 23.489346,5.249364 -24.0580204,-2.274725 a 68.791661,68.791661 0 0 0 -0.0922093,1.287345 L 23.311077,63.534362 -0.70372114,62.778724 a 68.791661,68.791661 0 0 0 -0.0927132,1.291511 L 23.135033,66.331939 -1.0125568,67.090181 a 68.791661,68.791661 0 0 0 -0.045853,0.643151 68.791661,68.791661 0 0 0 0.045853,0.643152 L 23.135033,69.134725 -0.79643431,71.39643 a 68.791661,68.791661 0 0 0 0.0927132,1.29151 L 23.311077,71.932302 -0.4881227,75.701117 a 68.791661,68.791661 0 0 0 0.0922093,1.287343 L 23.662107,74.713736 0.172761,79.9631 a 68.791661,68.791661 0 0 0 0.27497518,1.26443 L 24.187559,77.467049 1.0893214,84.176651 A 68.791661,68.791661 0 0 0 1.3642865,85.44004 L 24.884873,80.181823 2.1897059,88.351667 A 68.791661,68.791661 0 0 0 2.641733,89.562458 L 25.750915,82.848166 3.696819,92.391281 a 68.791661,68.791661 0 0 0 0.4520271,1.212353 L 26.783085,85.454101 5.2273624,96.436624 a 68.791661,68.791661 0 0 0 0.618155,1.131634 L 27.976162,87.990773 7.2937778,100.22106 a 68.791661,68.791661 0 0 0 0.620755,1.13684 L 29.32652,90.447246 9.3643552,104.01279 a 68.791661,68.791661 0 0 0 0.6478438,1.11237 L 30.828947,92.813625 11.828127,107.5509 a 68.791661,68.791661 0 0 0 0.775939,1.03634 l 19.872071,-13.50566 -18.06239,15.92307 a 68.791661,68.791661 0 0 0 0.773862,1.03373 L 34.262902,97.241215 17.232681,114.2704 a 68.791661,68.791661 0 0 0 0.914988,0.91499 L 36.181943,99.284717 20.281785,117.31951 a 68.791661,68.791661 0 0 0 0.914474,0.91447 l 17.029184,-17.03023 -14.797164,19.0753 a 68.791661,68.791661 0 0 0 1.033731,0.77386 l 15.923065,-18.06239 -13.505649,19.87207 a 68.791661,68.791661 0 0 0 1.036332,0.77595 l 14.737273,-19.00031 -12.311524,20.81623 a 68.791661,68.791661 0 0 0 1.112881,0.64836 l 13.56555,-19.96268 -10.911182,21.41198 a 68.791661,68.791661 0 0 0 1.136845,0.62076 l 12.230802,-20.68239 -9.578006,22.13117 a 68.791661,68.791661 0 0 0 1.131635,0.61764 l 10.98253,-21.5552 -8.149538,22.63371 a 68.791661,68.791661 0 0 0 1.21288,0.45255 l 9.543108,-22.05462 -6.714812,23.10918 a 68.791661,68.791661 0 0 0 1.210793,0.45203 l 8.169845,-22.69464 -5.258218,23.52006 a 68.791661,68.791661 0 0 0 1.263389,0.27497 l 6.709602,-23.09824 -3.760477,23.73983 a 68.791661,68.791661 0 0 0 1.264426,0.27496 l 5.249884,-23.48934 -2.274728,24.05855 a 68.791661,68.791661 0 0 0 1.286829,0.0916 l 3.768811,-23.7992 -0.755633,24.0148 a 68.791661,68.791661 0 0 0 1.291505,0.0927 l 2.261707,-23.93147 0.758243,24.14759 a 68.791661,68.791661 0 0 0 0.643147,0.0458 68.791661,68.791661 0 0 0 0.643671,-0.0458 l 0.758243,-24.14759 2.261184,23.93147 a 68.791661,68.791661 0 0 0 1.291514,-0.0927 l -0.755118,-24.0148 3.76881,23.7992 a 68.791661,68.791661 0 0 0 1.286829,-0.0916 l -2.274728,-24.05855 5.249884,23.48934 a 68.791661,68.791661 0 0 0 1.264436,-0.27496 l -3.761011,-23.73983 6.710127,23.09824 a 68.791661,68.791661 0 0 0 1.263388,-0.27497 l -5.258218,-23.52006 8.169331,22.69464 a 68.791661,68.791661 0 0 0 1.210784,-0.45151 l -6.714288,-23.1097 9.543118,22.05462 a 68.791661,68.791661 0 0 0 1.21287,-0.45255 l -8.149529,-22.63371 10.981997,21.55572 a 68.791661,68.791661 0 0 0 1.132158,-0.61816 l -9.578006,-22.13117 12.230799,20.68239 a 68.791661,68.791661 0 0 0 1.13632,-0.62076 l -10.910653,-21.41198 13.565553,19.96268 a 68.791661,68.791661 0 0 0 1.11288,-0.64836 l -12.311526,-20.81623 14.737276,19.00031 a 68.791661,68.791661 0 0 0 1.03633,-0.77595 l -13.506175,-19.87207 15.923075,18.06239 a 68.791661,68.791661 0 0 0 1.03425,-0.77386 l -14.797168,-19.0753 17.029178,17.03023 a 68.791661,68.791661 0 0 0 0.91448,-0.91447 L 99.284717,99.284717 117.31951,115.18539 a 68.791661,68.791661 0 0 0 0.91499,-0.91499 L 101.20375,97.241215 120.27956,112.0389 a 68.791661,68.791661 0 0 0 0.77387,-1.03373 l -18.06292,-15.92359 19.87207,13.50618 a 68.791661,68.791661 0 0 0 0.77595,-1.03686 l -19.0003,-14.737275 20.81623,12.311535 a 68.791661,68.791661 0 0 0 0.64836,-1.11237 L 106.14013,90.447246 127.55264,101.3579 a 68.791661,68.791661 0 0 0 0.62024,-1.13632 l -20.68239,-12.230807 22.13117,9.577485 a 68.791661,68.791661 0 0 0 0.61815,-1.131634 l -21.55572,-10.982523 22.63424,8.149533 a 68.791661,68.791661 0 0 0 0.45203,-1.212873 l -22.0541,-9.542595 23.10918,6.714292 a 68.791661,68.791661 0 0 0 0.4515,-1.210791 l -22.69464,-8.169844 23.52006,5.258217 a 68.791661,68.791661 0 0 0 0.27498,-1.263389 l -23.09825,-6.709602 23.73983,3.760481 a 68.791661,68.791661 0 0 0 0.27549,-1.26443 l -23.48986,-5.249364 24.05854,2.275245 a 68.791661,68.791661 0 0 0 0.0922,-1.287864 l -23.7992,-3.768815 24.0148,0.755638 a 68.791661,68.791661 0 0 0 0.0922,-1.29151 l -23.93095,-2.261705 24.14708,-0.758241 a 68.791661,68.791661 0 0 0 0.0459,-0.643152 68.791661,68.791661 0 0 0 -0.0156,-0.64263 l -24.17728,-0.758763 24.08771,-2.276286 a 68.791661,68.791661 0 0 0 -0.0942,-1.281616 l -24.16947,0.760325 23.88513,-3.782354 a 68.791661,68.791661 0 0 0 -0.15728,-1.275888 l -24.07937,2.276808 23.6013,-5.274361 a 68.791661,68.791661 0 0 0 -0.22497,-1.265471 l -23.90179,3.78652 23.23677,-6.749703 a 68.791661,68.791661 0 0 0 -0.33173,-1.241517 l -23.60183,5.276445 22.75818,-8.192758 a 68.791661,68.791661 0 0 0 -0.40308,-1.220685 l -23.22114,6.747099 22.19262,-9.602482 a 68.791661,68.791661 0 0 0 -0.46244,-1.199334 l -22.76235,8.195882 21.55156,-10.98044 A 68.791661,68.791661 0 0 0 129.69269,37.86768 L 107.4907,47.475891 128.31994,35.158634 A 68.791661,68.791661 0 0 0 127.68617,34.04054 L 106.14034,45.019417 126.1426,31.426794 a 68.791661,68.791661 0 0 0 -0.68741,-1.085806 l -20.81675,12.31205 19.10863,-14.82112 a 68.791661,68.791661 0 0 0 -0.74003,-1.050915 l -20.0164,13.604081 18.14885,-15.999104 a 68.791661,68.791661 0 0 0 -0.82543,-0.984776 l -19.11018,14.824245 17.10574,-17.104698 a 68.791661,68.791661 0 0 0 -0.88635,-0.931136 L 99.284848,36.181947 115.27718,18.043521 A 68.791661,68.791661 0 0 0 114.34656,17.15717 L 97.241863,34.262908 112.0661,15.152725 a 68.791661,68.791661 0 0 0 -0.98529,-0.825421 L 95.081706,32.476146 108.68578,12.459822 a 68.791661,68.791661 0 0 0 -1.05091,-0.739494 L 92.814275,30.82843 105.1258,10.011681 A 68.791661,68.791661 0 0 0 104.04,9.3242647 L 90.447368,29.326527 101.42625,7.7807012 A 68.791661,68.791661 0 0 0 100.30816,7.147445 L 87.990902,27.976171 97.599111,5.7746944 A 68.791661,68.791661 0 0 0 96.434664,5.2310103 L 85.454753,26.782566 93.650114,4.0202195 A 68.791661,68.791661 0 0 0 92.451292,3.5577763 L 82.848294,25.75092 89.595394,2.5292546 A 68.791661,68.791661 0 0 0 88.375228,2.1256581 L 80.182467,24.884358 85.458915,1.2830515 A 68.791661,68.791661 0 0 0 84.217395,0.95132073 L 77.46717,24.187567 81.253697,0.28577618 A 68.791661,68.791661 0 0 0 79.988747,0.06132464 L 74.713861,23.66211 76.990665,-0.41674278 a 68.791661,68.791661 0 0 0 -1.27536,-0.15727279 L 71.93295,23.311111 72.693278,-0.8588768 A 68.791661,68.791661 0 0 0 71.41166,-0.9531318 L 69.13537,23.135095 68.376089,-1.0427038 a 68.791661,68.791661 0 0 0 -0.642633,-0.01562 z" />
      <path
         id="path41"
         style="opacity:0.4;fill:url(#linearGradient43);stroke:none;stroke-width:0.268719;stroke-linecap:round;stroke-linejoin:round;stroke-miterlimit:1;stroke-dasharray:none;stroke-opacity:1;paint-order:fill markers stroke"
         d="m 67.733335,-1.059135 a 68.791661,68.791661 0 0 0 -0.643147,0.045833 L 66.331945,23.134292 64.070238,-0.79718296 a 68.791661,68.791661 0 0 0 -1.291505,0.092693 l 0.01663,0.532227 a 68.791661,68.791661 0 0 1 1.274846,-0.091655 L 66.331915,23.667556 67.090158,-0.48003742 a 68.791661,68.791661 0 0 1 0.643147,-0.0458326 68.791661,68.791661 0 0 1 0.642633,0.0156202 l 0.759281,24.17779882 2.27629,-24.0882258 a 68.791661,68.791661 0 0 1 1.26495,0.093217 l 0.01663,-0.53222806 a 68.791661,68.791661 0 0 0 -1.281619,-0.094255 L 69.135179,23.134284 68.375898,-1.0435149 a 68.791661,68.791661 0 0 0 -0.642633,-0.01562 z m 7.981849,0.48431549 -3.761525,23.75285151 -0.02086,0.665544 3.782354,-23.88512646 a 68.791661,68.791661 0 0 1 1.225376,0.15102371 l 0.04999,-0.52701998 a 68.791661,68.791661 0 0 0 -1.275361,-0.15727278 z m -15.949629,0.085931 a 68.791661,68.791661 0 0 0 -1.286829,0.091655 l 0.04998,0.529623 a 68.791661,68.791661 0 0 1 1.236834,-0.088007 L 63.534356,23.843582 63.513495,23.178038 Z M 79.988626,0.06052372 74.801233,23.270211 74.713761,24.194578 79.988646,0.59379277 a 68.791661,68.791661 0 0 1 1.182668,0.20987038 l 0.08233,-0.51868789 A 68.791661,68.791661 0 0 0 79.988697,0.06052372 Z M 55.503571,0.17196798 A 68.791661,68.791661 0 0 0 54.239144,0.4469351 l 0.08173,0.51556266 A 68.791661,68.791661 0 0 1 55.50354,0.70523703 L 60.753424,24.194578 60.665951,23.270211 Z M 84.217274,0.95051958 77.65297,23.547261 77.46705,24.720035 84.217274,1.4837886 A 68.791661,68.791661 0 0 1 85.346309,1.785314 L 85.458794,1.2822503 A 68.791661,68.791661 0 0 0 84.217274,0.95051958 Z M 51.290019,1.0885241 A 68.791661,68.791661 0 0 0 50.02663,1.3634902 l 0.113524,0.5082718 a 68.791661,68.791661 0 0 1 1.149865,-0.2499699 l 6.709602,23.0982429 -0.18591,-1.172774 z m 37.085088,1.0363328 -7.878211,21.8848471 -0.31455,1.407122 8.192761,-22.7587011 a 68.791661,68.791661 0 0 1 1.079041,0.356728 L 89.595273,2.5284534 A 68.791661,68.791661 0 0 0 88.375107,2.1248569 Z M 47.115003,2.1889096 A 68.791661,68.791661 0 0 0 45.90421,2.6409377 l 0.139573,0.4811914 a 68.791661,68.791661 0 0 1 1.07122,-0.3999515 l 8.169845,22.6946464 -0.31455,-1.407122 z M 92.451171,3.5569731 83.319992,24.660144 82.848173,26.283385 92.451171,4.0902411 a 68.791661,68.791661 0 0 1 1.030084,0.3973475 L 93.649993,4.0194163 A 68.791661,68.791661 0 0 0 92.451171,3.5569731 Z M 43.075914,3.6954976 a 68.791661,68.791661 0 0 0 -1.21288,0.4525492 l 0.169252,0.4702553 a 68.791661,68.791661 0 0 1 1.043628,-0.3895354 l 9.543108,22.0546183 -0.47182,-1.623241 z M 39.030042,5.226562 a 68.791661,68.791661 0 0 0 -1.131635,0.617633 l 0.186444,0.4311979 A 68.791661,68.791661 0 0 1 39.030042,5.7598311 L 50.012572,27.31503 49.357957,25.497022 Z M 96.434543,5.2301899 86.109238,25.497005 85.454632,27.315013 96.434543,5.763459 a 68.791661,68.791661 0 0 1 0.972279,0.4541111 L 97.59899,5.7738741 A 68.791661,68.791661 0 0 0 96.434543,5.2301899 Z M 100.30804,7.1466246 88.851613,26.520318 87.990781,28.508619 100.30804,7.6798937 a 68.791661,68.791661 0 0 1 0.90718,0.5139998 l 0.21091,-0.4140127 A 68.791661,68.791661 0 0 0 100.30804,7.1466246 Z M 35.245611,7.2929613 a 68.791661,68.791661 0 0 0 -1.136845,0.620758 L 34.32124,8.3308561 A 68.791661,68.791661 0 0 1 35.245611,7.8262293 L 47.476413,28.508619 46.615582,26.519797 Z M 104.03987,9.3234443 91.533583,27.727464 90.447247,29.858976 104.03987,9.856712 a 68.791661,68.791661 0 0 1 0.85615,0.542123 l 0.22966,-0.387974 a 68.791661,68.791661 0 0 0 -1.08581,-0.6874167 z m -72.585472,0.039574 a 68.791661,68.791661 0 0 0 -1.112881,0.6483587 l 0.234343,0.396828 a 68.791661,68.791661 0 0 1 0.878538,-0.511917 l 13.56555,19.962684 -1.086327,-2.132033 z m 76.180352,2.3564847 -13.492631,17.39581 -1.327965,2.24556 14.820596,-19.1081 a 68.791661,68.791661 0 0 1 0.80563,0.567118 l 0.24528,-0.360893 a 68.791661,68.791661 0 0 0 -1.05091,-0.739495 z m -79.718982,0.107801 a 68.791661,68.791661 0 0 0 -1.036856,0.775946 l 0.240077,0.353603 a 68.791661,68.791661 0 0 1 0.796779,-0.596281 l 14.737273,19.000301 -1.327965,-2.24556 z M 111.08068,14.32648 96.664209,30.680226 95.081585,33.008591 111.08068,14.859748 a 68.791661,68.791661 0 0 1 0.73482,0.615551 l 0.25048,-0.323399 a 68.791661,68.791661 0 0 0 -0.9853,-0.82542 z m -86.618659,0.08644 a 68.791661,68.791661 0 0 0 -1.034256,0.773865 l 0.261955,0.33746 a 68.791661,68.791661 0 0 1 0.772301,-0.578051 l 15.923064,18.062395 -1.582614,-2.328365 z m 89.884419,2.743418 -15.259615,15.26065 -1.845083,2.378358 17.104698,-17.105739 a 68.791661,68.791661 0 0 1 0.67492,0.643151 l 0.25569,-0.290069 a 68.791661,68.791661 0 0 0 -0.93061,-0.886351 z m -93.15017,0.07551 a 68.791661,68.791661 0 0 0 -0.914999,0.914472 l 0.249973,0.2833 A 68.791661,68.791661 0 0 1 21.19627,17.765122 L 38.225453,34.79535 36.38037,32.416992 Z m 96.22688,2.956933 -16.02671,14.13058 -2.111713,2.395022 18.138423,-15.992333 a 68.791661,68.791661 0 0 1 0.62648,0.657733 l 0.25987,-0.259859 a 68.791661,68.791661 0 0 0 -0.88635,-0.931137 z m -99.275471,0.09166 a 68.791661,68.791661 0 0 0 -0.914988,0.914993 l 0.266631,0.266634 a 68.791661,68.791661 0 0 1 0.648357,-0.648358 l 18.034274,15.900677 -2.111724,-2.395022 z m 102.166261,3.119934 -16.73183,12.979156 -2.37835,2.378358 19.11018,-14.824245 a 68.791661,68.791661 0 0 1 0.56816,0.678043 l 0.25727,-0.226536 a 68.791661,68.791661 0 0 0 -0.82543,-0.984776 z m -105.126321,0.02708 a 68.791661,68.791661 0 0 0 -0.773862,1.033729 l 0.2406,0.211953 a 68.791661,68.791661 0 0 1 0.533262,-0.712414 l 19.075293,14.797166 -2.378355,-2.378358 z m 107.819221,3.352718 -17.37497,11.808986 -2.64135,2.328365 20.01632,-13.604082 a 68.791661,68.791661 0 0 1 0.49734,0.706165 l 0.24269,-0.188519 a 68.791661,68.791661 0 0 0 -0.74003,-1.050915 z m -110.402764,0.0979 a 68.791661,68.791661 0 0 0 -0.775939,1.036854 l 0.252573,0.195809 a 68.791661,68.791661 0 0 1 0.523366,-0.699394 l 19.872071,13.506177 -2.641338,-2.328365 z m -2.591867,3.462081 A 68.791661,68.791661 0 0 0 9.3638513,31.45304 l 0.2223706,0.151023 a 68.791661,68.791661 0 0 1 0.4259871,-0.73064 l 20.816748,12.312052 -2.895483,-2.246081 z m 115.442781,0 -17.92127,10.599758 -2.89548,2.24556 20.81675,-12.312049 a 68.791661,68.791661 0 0 1 0.45151,0.712934 l 0.2359,-0.160397 a 68.791661,68.791661 0 0 0 -0.68741,-1.085806 z m 2.23098,3.699552 -18.40871,9.380634 -3.13712,2.131512 21.54583,-10.978877 a 68.791661,68.791661 0 0 1 0.40724,0.718662 l 0.22653,-0.133838 a 68.791661,68.791661 0 0 0 -0.63377,-1.118093 z M 7.9145429,34.107933 a 68.791661,68.791661 0 0 0 -0.620755,1.136842 l 0.2202844,0.130193 A 68.791661,68.791661 0 0 1 7.9145429,34.641202 L 29.32653,45.551859 26.189418,43.419826 Z m 121.7779471,3.75892 -18.83938,8.153178 -3.36261,1.988302 22.20199,-9.608211 a 68.791661,68.791661 0 0 1 0.34215,0.733765 l 0.20102,-0.102592 a 68.791661,68.791661 0 0 0 -0.54317,-1.164442 z M 5.8455275,37.897579 a 68.791661,68.791661 0 0 0 -0.6181551,1.131634 l 0.2280946,0.116132 a 68.791661,68.791661 0 0 1 0.3900605,-0.714497 l 22.1306445,9.577485 -3.36313,-1.988821 z m 125.6009225,3.918276 -19.19351,6.911141 -3.56884,1.818009 22.76235,-8.195881 a 68.791661,68.791661 0 0 1 0.28643,0.742097 l 0.17601,-0.07603 a 68.791661,68.791661 0 0 0 -0.46244,-1.199334 z M 4.1488562,41.862201 a 68.791661,68.791661 0 0 0 -0.4520271,1.212353 l 0.1713279,0.07395 a 68.791661,68.791661 0 0 1 0.2806992,-0.753035 l 22.6342388,8.149534 -3.568319,-1.818009 z m 128.7885538,4.008369 -19.46899,5.657127 -3.75215,1.62324 23.22114,-6.747099 a 68.791661,68.791661 0 0 1 0.2458,0.744181 l 0.15728,-0.05677 a 68.791661,68.791661 0 0 0 -0.40308,-1.220685 z M 2.6417431,45.903382 A 68.791661,68.791661 0 0 0 2.189716,47.114173 l 0.1755,0.06302 a 68.791661,68.791661 0 0 1 0.2765271,-0.740536 l 23.1091819,6.714291 -3.751104,-1.623241 z m 131.5423969,4.10419 -19.69293,4.402592 -3.9089,1.407121 23.60183,-5.276444 a 68.791661,68.791661 0 0 1 0.19946,0.746784 l 0.13226,-0.03854 a 68.791661,68.791661 0 0 0 -0.33172,-1.241516 z M 1.3642966,50.025802 a 68.791661,68.791661 0 0 0 -0.2749651,1.263389 l 0.1093612,0.03177 A 68.791661,68.791661 0 0 1 1.3642966,50.559073 L 24.884883,55.817291 20.975985,54.41017 Z m 133.8165934,4.186472 -19.86374,3.147014 -4.03805,1.172775 23.90179,-3.786521 a 68.791661,68.791661 0 0 1 0.13384,0.752514 l 0.0911,-0.02031 a 68.791661,68.791661 0 0 0 -0.22497,-1.265472 z M 0.44774626,54.238315 a 68.791661,68.791661 0 0 0 -0.27497518,1.264429 l 0.11040929,0.02448 A 68.791661,68.791661 0 0 1 0.44774626,54.771585 L 24.187569,58.532067 20.150042,57.359292 Z m 135.43618374,4.236986 -19.94289,1.885709 -4.13648,0.924368 24.07937,-2.276808 a 68.791661,68.791661 0 0 1 0.0927,0.753033 l 0.0646,-0.01042 a 68.791661,68.791661 0 0 0 -0.15728,-1.275887 z m -136.27983332,0.0021 a 68.791661,68.791661 0 0 0 -0.0922093,1.287345 l 0.0374884,0.0057 a 68.791661,68.791661 0 0 1 0.0547209,-0.759804 L 23.662117,61.285427 19.526163,60.361059 Z m 136.72145332,4.295833 -19.96738,0.62805 -4.20209,0.665544 24.16947,-0.760324 a 68.791661,68.791661 0 0 1 0.0552,0.751992 l 0.0391,-0.0036 a 68.791661,68.791661 0 0 0 -0.0943,-1.281615 z m -137.02923083,0.0047 a 68.791661,68.791661 0 0 0 -0.0927132,1.291511 l 0.0379922,0.0036 a 68.791661,68.791661 0 0 1 0.0547209,-0.761886 L 23.311117,64.066876 19.1085,63.401332 Z M 18.899673,66.463999 -1.0124963,67.089444 a 68.791661,68.791661 0 0 0 -0.045853,0.643151 68.791661,68.791661 0 0 0 0.018744,0.266634 68.791661,68.791661 0 0 1 0.027108,-0.376516 L 23.135093,66.864471 Z m 97.668897,0 -4.23647,0.400472 24.17728,0.758762 a 68.791661,68.791661 0 0 1 0.006,0.244763 68.791661,68.791661 0 0 0 0.01,-0.135401 68.791661,68.791661 0 0 0 -0.0156,-0.64263 z M 18.899673,69.53446 -0.79637385,71.395693 a 68.791661,68.791661 0 0 0 0.0379923,0.529623 L 23.135073,69.667256 Z m 97.667847,0 -4.23542,0.132796 23.89294,2.25806 a 68.791661,68.791661 0 0 0 0.038,-0.529623 z m -93.256403,2.930374 -4.202617,0.132275 -19.59658239,3.10327 a 68.791661,68.791661 0 0 0 0.0374884,0.52754 z m 88.844963,0 23.7617,3.763085 a 68.791661,68.791661 0 0 0 0.0375,-0.52754 l -19.59659,-3.10327 z m -88.493963,2.781433 -4.135954,0.391099 -19.35339192,4.324997 a 68.791661,68.791661 0 0 0 0.11040929,0.508793 z m 88.142443,0 23.37894,5.224368 a 68.791661,68.791661 0 0 0 0.11092,-0.508272 L 115.94156,75.637366 Z M 24.187569,77.99958 20.150042,78.639086 1.0893315,84.175915 a 68.791661,68.791661 0 0 0 0.1093612,0.501501 z m 87.091531,0 22.98888,6.677836 a 68.791661,68.791661 0 0 0 0.10937,-0.501501 L 115.31663,78.639078 Z M 24.884883,80.714355 20.975985,81.588207 2.189716,88.35093 a 68.791661,68.791661 0 0 0 0.1755,0.470255 z m 85.697427,0 22.51914,8.10683 a 68.791661,68.791661 0 0 0 0.1755,-0.470255 l -18.78574,-6.762731 z m -84.831385,2.666344 -3.751104,1.089972 -18.3029919,7.919873 a 68.791661,68.791661 0 0 0 0.1713279,0.45932 z m 83.965345,0 21.88277,9.468644 a 68.791661,68.791661 0 0 0 0.17133,-0.459319 L 113.4679,84.470671 Z m -82.933175,2.605934 -3.568319,1.28474 -17.9874036,9.164515 a 68.791661,68.791661 0 0 0 0.2280946,0.417137 z m 81.901005,0 21.32763,10.866392 a 68.791661,68.791661 0 0 0 0.22809,-0.417137 l -17.9874,-9.164515 z m -80.707928,2.536672 -3.36313,1.455553 -17.3192541,10.241522 a 68.791661,68.791661 0 0 0 0.2202844,0.40308 z m 79.514328,0 20.4621,12.100675 a 68.791661,68.791661 0 0 0 0.22029,-0.40308 L 110.85259,89.978269 Z M 29.32653,90.979778 26.189932,92.578022 9.3643653,104.01211 a 68.791661,68.791661 0 0 0 0.2223705,0.38224 z m 76.81361,0 19.73979,13.414052 a 68.791661,68.791661 0 0 0 0.2229,-0.38172 L 109.27726,92.577955 Z m -75.311183,2.36638 -2.895483,1.712292 -16.105337,12.49177 a 68.791661,68.791661 0 0 0 0.252573,0.33746 z m 73.809283,0 18.74773,14.541522 a 68.791661,68.791661 0 0 0 0.25257,-0.33752 L 107.53321,95.058383 Z m -72.162093,2.267954 -2.640824,1.794574 -15.421566,13.595284 a 68.791661,68.791661 0 0 0 0.2406,0.32131 z m 70.514373,0 17.82233,15.711698 a 68.791661,68.791661 0 0 0 0.24059,-0.32132 L 105.63187,97.409139 Z m -68.727608,2.159634 -2.378355,1.845089 -14.651866,14.650885 a 68.791661,68.791661 0 0 0 0.266631,0.26663 z m 66.940848,0 16.76411,16.762604 a 68.791661,68.791661 0 0 0 0.26664,-0.26669 L 103.58264,99.618767 Z m -65.021807,2.043502 -2.111199,1.861812 -13.788959,15.63977 a 68.791661,68.791661 0 0 0 0.249973,0.24997 z m 63.102774,0 15.650703,17.751552 a 68.791661,68.791661 0 0 0 0.24997,-0.24997 l -13.78896,-15.63984 z m -61.059274,1.919092 -1.845083,1.84509 -12.952081,16.69694 a 68.791661,68.791661 0 0 0 0.261945,0.19581 z m 59.016289,0 14.535218,18.73784 a 68.791661,68.791661 0 0 0 0.26195,-0.19581 L 99.086825,103.58136 Z m -56.856657,1.78677 -1.5821,1.79457 -11.923549,17.54423 a 68.791661,68.791661 0 0 0 0.240077,0.17966 z m 54.6965,0 13.266095,19.51846 a 68.791661,68.791661 0 0 0 0.24008,-0.17966 L 96.664209,105.31813 Z m -52.428544,1.64771 -1.327965,1.7123 -10.983559,18.57066 a 68.791661,68.791661 0 0 0 0.234343,0.13644 z m 50.161113,0 12.077176,20.4194 a 68.791661,68.791661 0 0 0 0.23435,-0.13644 L 94.142119,106.88305 Z m -47.794206,1.5019 -1.086327,1.59877 -9.824855,19.27995 a 68.791661,68.791661 0 0 0 0.212474,0.11613 z m 45.427299,0 10.698183,20.99485 a 68.791661,68.791661 0 0 0 0.21247,-0.11613 l -9.824317,-19.28002 z m -42.970834,1.35036 -0.860831,1.45555 -8.717175,20.14235 a 68.791661,68.791661 0 0 0 0.186444,0.10208 z m 40.514368,0 9.391572,21.69998 a 68.791661,68.791661 0 0 0 0.186435,-0.10208 l -8.717175,-20.14235 z m -37.978209,1.19361 -0.654615,1.28474 -7.494923,20.8157 a 68.791661,68.791661 0 0 0 0.169252,0.063 z m 35.44206,0 7.980277,22.16346 a 68.791661,68.791661 0 0 0 0.169252,-0.063 l -7.494923,-20.81518 z m -32.83561,1.03164 -0.47182,1.08997 -6.242992,21.48594 a 68.791661,68.791661 0 0 0 0.139573,0.0521 z m 30.229151,0 6.574724,22.62851 a 68.791661,68.791661 0 0 0 0.139564,-0.0521 l -6.242469,-21.48646 z m -27.563325,0.86656 -0.31455,0.87386 -4.943668,22.11294 a 68.791661,68.791661 0 0 0 0.113524,0.025 z m 24.897498,0 5.144695,23.0118 a 68.791661,68.791661 0 0 0 0.113523,-0.025 l -4.943668,-22.11295 z m -22.182725,0.69679 -0.18591,0.63951 -3.574567,22.56706 a 68.791661,68.791661 0 0 0 0.08173,0.0177 z m 19.467429,0 3.679241,23.22427 a 68.791661,68.791661 0 0 0 0.08173,-0.0177 L 77.65293,112.45119 Z m -16.713596,0.52546 -0.08747,0.3911 -2.187235,23.13418 a 68.791661,68.791661 0 0 0 0.04998,0.004 z m 13.960286,0 2.224734,23.52892 a 68.791661,68.791661 0 0 0 0.04998,-0.004 l -2.187235,-23.13417 z m -11.179374,0.351 -0.02086,0.13228 -0.734802,23.34925 a 68.791661,68.791661 0 0 0 0.01663,0.001 z m 8.398463,0 0.73845,23.48257 a 68.791661,68.791661 0 0 0 0.01663,-0.001 l -0.734288,-23.34925 z" />
    </g>
    <circle
       style="display:inline;fill:#1a1a1a;stroke-width:3.175;stroke-linecap:round;stroke-linejoin:round;stroke-miterlimit:1;paint-order:markers stroke fill"
       id="path1"
       cx="67.73333"
       cy="67.73333"
       r="66.690926" />
    <circle
       style="display:inline;fill:#1a1a1a;stroke:#000000;stroke-width:3.175;stroke-linecap:round;stroke-linejoin:round;stroke-miterlimit:1;stroke-opacity:1;paint-order:markers stroke fill"
       id="circle2"
       cx="67.73333"
       cy="67.73333"
       r="59.34362" />
    <circle
       style="display:inline;opacity:0.6;fill:url(#radialGradient29);stroke:none;stroke-width:3.17501;stroke-linecap:round;stroke-linejoin:round;stroke-miterlimit:1;stroke-dasharray:none;stroke-opacity:1;paint-order:fill markers stroke"
       id="path28"
       cx="67.73333"
       cy="67.73333"
       r="54.967918" />
    <path
       style="display:inline;fill:url(#radialGradient4);stroke-width:1;stroke-linecap:round;stroke-linejoin:round;stroke-miterlimit:1;paint-order:fill markers stroke"
       d="M 20.964907,67.733332 A 46.768426,46.768426 0 0 0 67.733332,114.50176 46.768426,46.768426 0 0 0 114.50176,67.733332 46.768426,46.768426 0 0 0 67.733332,20.964907 46.768426,46.768426 0 0 0 20.964907,67.733332 Z"
       id="path18" />
    <path
       style="display:inline;opacity:0.1;fill:url(#radialGradient26);stroke-width:1;stroke-linecap:round;stroke-linejoin:round;stroke-miterlimit:1;paint-order:fill markers stroke"
       d="m 67.732374,35.697927 c -17.674304,0 -32.03445,14.362069 -32.03445,32.03637 0,17.674301 14.360146,32.034441 32.03445,32.034441 17.674295,0 32.036374,-14.36014 32.036374,-32.034441 0,-17.674301 -14.362079,-32.03637 -32.036374,-32.03637 z m 0,3.126906 c 15.984812,0 28.909456,12.924653 28.909456,28.909464 0,15.984811 -12.924644,28.909464 -28.909456,28.909464 -15.984812,0 -28.909465,-12.924653 -28.909465,-28.909464 0,-15.984811 12.924653,-28.909463 28.909465,-28.909464 z"
       id="path25"
       inkscape:label="light-ring" />
    <circle
       style="display:inline;fill:#000000;stroke:none;stroke-width:4.23333;stroke-linecap:round;stroke-linejoin:round;stroke-miterlimit:1;stroke-dasharray:none;stroke-opacity:1;paint-order:fill markers stroke"
       id="path22"
       cx="67.73333"
       cy="67.73333"
       r="7.8929048"
       inkscape:label="dead-center" />
    <path
       id="circle10"
       style="display:inline;opacity:0.4;fill:url(#linearGradient11);stroke-width:4.23333;stroke-linecap:round;stroke-linejoin:round;stroke-miterlimit:1;paint-order:fill markers stroke"
       d="m 26.051504,67.856966 c 35.76326,23.524757 30.726183,-17.527377 83.363656,0 0,-23.020237 -18.661586,-41.681826 -41.681822,-41.681827 -23.020237,-4e-6 -41.681834,18.661586 -41.681834,41.681827 z"
       sodipodi:nodetypes="ccsc"
       inkscape:label="top-glare" />
    <g
       id="g17"
       transform="matrix(0.98461022,0,0,0.98461022,-169.35854,23.649404)"
       style="display:inline;opacity:0.4;mix-blend-mode:normal;stroke-width:1.01563;filter:url(#filter17)"
       inkscape:label="color-fade-gy"
       clip-path="url(#clipPath20)">
      <path
         id="rect12"
         style="display:inline;opacity:1;mix-blend-mode:normal;fill:#55ff99;stroke-width:4.2995;stroke-linecap:round;stroke-linejoin:round;stroke-miterlimit:1;paint-order:fill markers stroke;filter:url(#filter17)"
         inkscape:transform-center-x="33.866669"
         inkscape:transform-center-y="-33.866669"
         d="M 225.15008,0.04237467 A 47.499432,47.499432 0 0 0 196.0671,29.125354 l 44.7306,15.647623 z"
         clip-path="none" />
      <path
         id="path13"
         style="display:inline;opacity:1;mix-blend-mode:normal;fill:#d38d5f;stroke-width:4.2995;stroke-linecap:round;stroke-linejoin:round;stroke-miterlimit:1;paint-order:fill markers stroke;filter:url(#filter17)"
         inkscape:transform-center-x="-33.866671"
         inkscape:transform-center-y="33.866667"
         d="M 240.7977,44.772977 256.44533,89.50358 A 47.499432,47.499432 0 0 0 285.5283,60.420601 Z"
         clip-path="none" />
    </g>
    <g
       id="g27"
       transform="matrix(0,0.98461022,-0.98461022,0,111.81727,-169.35854)"
       style="display:inline;opacity:0.2;mix-blend-mode:normal;stroke-width:1.01563;filter:url(#filter17)"
       inkscape:label="color-fade-rb"
       clip-path="url(#clipPath20)">
      <path
         id="path26"
         style="display:inline;opacity:1;fill:#041887;fill-opacity:1;stroke-width:4.2995;stroke-linecap:round;stroke-linejoin:round;stroke-miterlimit:1;paint-order:fill markers stroke"
         inkscape:transform-center-x="33.866669"
         inkscape:transform-center-y="-33.866669"
         d="M 225.15008,0.04237467 A 47.499432,47.499432 0 0 0 196.0671,29.125354 l 44.7306,15.647623 z"
         clip-path="none" />
      <path
         id="path27"
         style="display:inline;opacity:1;fill:#a41004;fill-opacity:1;stroke-width:4.2995;stroke-linecap:round;stroke-linejoin:round;stroke-miterlimit:1;paint-order:fill markers stroke"
         inkscape:transform-center-x="-33.866671"
         inkscape:transform-center-y="33.866667"
         d="M 240.7977,44.772977 256.44533,89.50358 A 47.499432,47.499432 0 0 0 285.5283,60.420601 Z"
         clip-path="none" />
    </g>
    <g
       id="g19"
       inkscape:label="ring"
       style="display:inline;stroke-width:1.01563"
       transform="matrix(0,-0.98461021,0.98461021,0,1.0424052,134.42433)">
      <path
         style="fill:url(#linearGradient6);stroke-width:1.01563;stroke-linecap:round;stroke-linejoin:round;stroke-miterlimit:1;paint-order:fill markers stroke"
         d="m 67.732422,18.117187 c 27.377142,0 49.617188,22.238093 49.617188,49.615235 0,27.377142 -22.240046,49.617188 -49.617188,49.617188 -27.377142,0 -49.615235,-22.240046 -49.615235,-49.617188 10e-7,-27.377142 22.238093,-49.615235 49.615235,-49.615235 z m 0,4.232422 c -25.089281,0 -45.382813,20.293532 -45.382813,45.382813 0,25.089281 20.293532,45.382808 45.382813,45.382808 25.089281,0 45.382808,-20.293527 45.382808,-45.382808 0,-25.089281 -20.293527,-45.382813 -45.382808,-45.382813 z"
         id="path19" />
      <path
         style="display:inline;opacity:0.86;mix-blend-mode:multiply;fill:url(#radialGradient9);stroke:none;stroke-width:1.01563;stroke-linecap:round;stroke-linejoin:round;stroke-miterlimit:1;paint-order:fill markers stroke"
         d="m 67.73235,18.117118 c 27.37714,0 49.61719,22.238092 49.61719,49.615234 0,27.377143 -22.24005,49.617188 -49.61719,49.617188 -27.37714,0 -49.61523,-22.240045 -49.61523,-49.617188 0,-27.377142 22.23809,-49.615234 49.61523,-49.615234 z m 0,4.232422 c -25.08928,0 -45.38281,20.293531 -45.38281,45.382812 0,25.089281 20.29353,45.382808 45.38281,45.382808 25.08928,0 45.38281,-20.293527 45.38281,-45.382808 0,-25.089281 -20.29353,-45.382812 -45.38281,-45.382812 z"
         id="path8" />
    </g>
    <path
       id="path29"
       style="display:inline;opacity:0.328081;fill:none;fill-opacity:1;stroke-width:3.175;stroke-linecap:round;stroke-linejoin:round;stroke-miterlimit:1;paint-order:fill markers stroke"
       d="M 67.733339,123.45604 A 55.722707,55.722707 0 0 1 12.010624,67.733341 55.722707,55.722707 0 0 1 67.733339,12.010628 55.722707,55.722707 0 0 1 123.45605,67.733341 55.722707,55.722707 0 0 1 67.733339,123.45604 Z" />
    <path
       id="path31"
       style="display:inline;opacity:0.2;fill:url(#linearGradient31);stroke-width:1;stroke-linecap:round;stroke-linejoin:round;stroke-miterlimit:1;paint-order:markers stroke fill"
       d="M 67.733334,1.0424047 A 66.690928,66.690928 0 0 0 1.0424067,67.733335 66.690928,66.690928 0 0 0 67.733334,134.42426 66.690928,66.690928 0 0 0 134.42426,67.733335 66.690928,66.690928 0 0 0 67.733334,1.0424047 Z m 0,1.5630687 c 35.987636,0 65.126846,29.1412426 65.126846,65.1288806 0,35.987636 -29.13921,65.126326 -65.126846,65.126326 -35.987631,0 -65.1283706,-29.13869 -65.1283706,-65.126326 0,-35.987638 29.1407396,-65.1288806 65.1283706,-65.1288806 z" />
    <g
       id="g39"
       transform="matrix(0.89271257,0,0,0.89271257,-176.80213,14.423166)"
       style="display:inline;opacity:0.22;stroke-width:1.12018">
      <circle
         style="fill:none;stroke:#000000;stroke-width:0.296382;stroke-linecap:round;stroke-linejoin:round;stroke-miterlimit:1;stroke-dasharray:none;stroke-opacity:1;paint-order:fill markers stroke"
         id="circle37"
         cx="273.92407"
         cy="59.717056"
         r="65.352081" />
      <circle
         style="fill:none;stroke:#000000;stroke-width:0.296382;stroke-linecap:round;stroke-linejoin:round;stroke-miterlimit:1;stroke-dasharray:none;stroke-opacity:1;paint-order:fill markers stroke"
         id="circle38"
         cx="273.92407"
         cy="59.717056"
         r="62.737995" />
      <circle
         style="fill:none;stroke:#000000;stroke-width:0.296382;stroke-linecap:round;stroke-linejoin:round;stroke-miterlimit:1;stroke-dasharray:none;stroke-opacity:1;paint-order:fill markers stroke"
         id="circle39"
         cx="273.92407"
         cy="59.717056"
         r="64.045036" />
    </g>
    <path
       id="circle33"
       style="display:inline;opacity:0.382815;fill:url(#radialGradient37);stroke-width:1;stroke-linecap:round;stroke-linejoin:round;stroke-miterlimit:1;paint-order:markers stroke fill"
       d="M 67.733331,6.7736578 A 60.959606,60.959606 0 0 0 6.7736579,67.733336 60.959606,60.959606 0 0 0 67.733331,128.69301 60.959606,60.959606 0 0 0 128.69301,67.733336 60.959606,60.959606 0 0 0 67.733331,6.7736578 Z m -9.8e-4,1.4232218 c 32.900589,0 59.537519,26.6364304 59.537519,59.5369794 0,32.900551 -26.63693,59.537491 -59.537519,59.537491 -32.900559,0 -59.5364603,-26.63694 -59.5364603,-59.537491 0,-32.900549 26.6359013,-59.5369794 59.5364603,-59.5369794 z" />
    <circle
       style="opacity:1;fill:none;fill-opacity:1;stroke:none;stroke-width:0.264583;stroke-linecap:round;stroke-linejoin:round;stroke-miterlimit:1;stroke-dasharray:none;stroke-opacity:1;paint-order:fill markers stroke"
       id="path45"
       cx="67.73333"
       cy="-67.73333"
       r="55.727863"
       transform="rotate(90)" />
    <text
       xml:space="preserve"
       style="font-size:4.23333px;line-height:1.25;font-family:Angelica;-inkscape-font-specification:'Angelica, Normal';font-variant-ligatures:none;text-align:center;text-anchor:middle;fill:#e6e6e6;stroke-width:0.264583"
       id="text45"
       transform="translate(-0.05351215)"><textPath
         xlink:href="#path45"
         startOffset="50%"
         id="textPath45"><tspan
           id="tspan45"
           style="fill:#e6e6e6;stroke-width:0.264583">SIMPLE SCREEN RECORDER</tspan></textPath></text>
    <path
       id="path46"
       style="opacity:0.4;fill:#000000;fill-opacity:1;stroke:url(#linearGradient48);stroke-width:0.105833;stroke-linecap:round;stroke-linejoin:round;stroke-miterlimit:1;stroke-dasharray:none;stroke-opacity:0.28;paint-order:markers stroke fill"
       d="m 67.733079,2.9103852 a 64.822609,64.822609 0 0 0 -0.03415,0.00253 l -0.06982,3.1066473 a 61.721076,61.721076 0 0 1 0.103973,-0.00759 61.721076,61.721076 0 0 1 0.103975,0.00253 l -0.06981,-3.10313 a 64.822609,64.822609 0 0 0 -0.03415,-9.72e-4 z m 2.873085,0.070819 -0.20845,3.0960992 a 61.721076,61.721076 0 0 1 0.207948,0.00506 l 0.06932,-3.0996159 a 64.822609,64.822609 0 0 0 -0.06882,-0.00146 z m -5.737629,0.1341106 a 64.822609,64.822609 0 0 0 -0.07484,0.00554 l 0.06932,3.0966018 a 61.721076,61.721076 0 0 1 0.213471,-0.015571 z m 8.639844,0.064793 -0.347581,3.0835422 a 61.721076,61.721076 0 0 1 0.207947,0.015065 l 0.208449,-3.0935886 a 64.822609,64.822609 0 0 0 -0.06882,-0.00506 z M 61.973851,3.3222542 a 64.822609,64.822609 0 0 0 -0.07534,0.00554 l 0.207948,3.0865563 a 61.721076,61.721076 0 0 1 0.213974,-0.015065 z M 76.39804,3.5075983 75.912829,6.5720536 a 61.721076,61.721076 0 0 1 0.206943,0.025621 l 0.34708,-3.0815331 a 64.822609,64.822609 0 0 0 -0.06882,-0.00856 z m -17.326404,0.022599 a 64.822609,64.822609 0 0 0 -0.07032,0.00506 l 0.346578,3.07651 a 61.721076,61.721076 0 0 1 0.20945,-0.015069 z m 20.198985,0.4334742 -0.622334,3.0388387 a 61.721076,61.721076 0 0 1 0.205436,0.035662 l 0.485209,-3.0624463 a 64.822609,64.822609 0 0 0 -0.06831,-0.012053 z M 56.217136,4.0686497 a 64.822609,64.822609 0 0 0 -0.07232,0.015571 l 0.484707,3.0609397 a 61.721076,61.721076 0 0 1 0.20845,-0.045712 z m 25.901957,0.478177 -0.757952,3.0076972 a 61.721076,61.721076 0 0 1 0.203427,0.045712 l 0.622333,-3.038337 a 64.822609,64.822609 0 0 0 -0.06781,-0.015066 z M 53.381723,4.685458 a 64.822609,64.822609 0 0 0 -0.07383,0.016077 l 0.620827,3.0313038 a 61.721076,61.721076 0 0 1 0.209453,-0.045702 z m 31.557714,0.5705992 -0.892064,2.9705274 a 61.721076,61.721076 0 0 1 0.200916,0.055251 L 85.00624,5.2746412 a 64.822609,64.822609 0 0 0 -0.06681,-0.018585 z m -34.399152,0.047715 a 64.822609,64.822609 0 0 0 -0.06982,0.015065 l 0.756446,3.0016697 a 61.721076,61.721076 0 0 1 0.205936,-0.044704 z m 37.185339,0.786582 -1.024163,2.9268288 a 61.721076,61.721076 0 0 1 0.197901,0.065297 l 0.892062,-2.9705273 a 64.822609,64.822609 0 0 0 -0.06581,-0.021597 z m -39.956962,0.08087 a 64.822609,64.822609 0 0 0 -0.06882,0.025611 l 0.89156,2.9690209 a 61.721076,61.721076 0 0 1 0.199408,-0.073836 z m 42.702967,0.8759892 -1.154255,2.8781069 a 61.721076,61.721076 0 0 1 0.194384,0.074841 l 1.024667,-2.9278342 a 64.822609,64.822609 0 0 0 -0.06479,-0.025116 z M 45.049781,7.1853415 a 64.822609,64.822609 0 0 0 -0.07132,0.026623 l 1.022155,2.9202995 a 61.721076,61.721076 0 0 1 0.200914,-0.07484 z m 48.12315,0.9402821 -1.282338,2.8233574 a 61.721076,61.721076 0 0 1 0.190366,0.08438 L 93.23622,8.1537471 a 64.822609,64.822609 0 0 0 -0.06329,-0.028128 z m -50.845548,0.074841 a 64.822609,64.822609 0 0 0 -0.06831,0.025616 L 43.41132,11.09816 a 61.721076,61.721076 0 0 1 0.198404,-0.07434 z m 53.496119,1.1226125 -1.40741,2.7625819 a 61.721076,61.721076 0 0 1 0.185848,0.09393 l 1.283344,-2.825368 a 64.822609,64.822609 0 0 0 -0.06178,-0.031142 z m -56.149201,0.062787 a 64.822609,64.822609 0 0 0 -0.06329,0.034658 l 1.282844,2.8238589 a 61.721076,61.721076 0 0 1 0.185344,-0.100959 z m 58.744017,1.2516999 -1.529966,2.69678 a 61.721076,61.721076 0 0 1 0.180822,0.102467 l 1.408917,-2.765594 a 64.822609,64.822609 0 0 0 -0.05977,-0.03365 z m -61.29162,0.139134 a 64.822609,64.822609 0 0 0 -0.06681,0.03667 l 1.404897,2.757557 a 61.721076,61.721076 0 0 1 0.18886,-0.102968 z m 63.823142,1.294393 -1.651516,2.627968 a 61.721076,61.721076 0 0 1 0.180827,0.103472 l 1.530469,-2.697284 a 64.822609,64.822609 0 0 0 -0.0598,-0.03415 z m -66.37225,0.09744 a 64.822609,64.822609 0 0 0 -0.06479,0.03566 l 1.526953,2.690753 a 61.721076,61.721076 0 0 1 0.186851,-0.101965 z m 68.83245,1.453618 -1.76704,2.550617 a 61.721076,61.721076 0 0 1 0.1758,0.111507 l 1.64952,-2.625456 a 64.822609,64.822609 0 0 0 -0.0583,-0.03666 z m -71.330827,0.03365 a 64.822609,64.822609 0 0 0 -0.05675,0.04269 l 1.651521,2.62847 a 61.721076,61.721076 0 0 1 0.168265,-0.126072 z m 73.719717,1.624901 -1.87957,2.46824 a 61.721076,61.721076 0 0 1 0.17077,0.120549 l 1.76555,-2.548606 a 64.822609,64.822609 0 0 0 -0.0567,-0.04018 z m -76.044304,0.115526 a 64.822609,64.822609 0 0 0 -0.06027,0.04521 l 1.76303,2.544588 a 61.721076,61.721076 0 0 1 0.17128,-0.128587 z m 78.357344,1.648004 -1.98807,2.381346 a 61.721076,61.721076 0 0 1 0.16425,0.12758 l 1.87806,-2.466231 a 64.822609,64.822609 0 0 0 -0.0542,-0.04269 z m -80.681426,0.09141 a 64.822609,64.822609 0 0 0 -0.05978,0.04521 l 1.874039,2.461219 a 61.721076,61.721076 0 0 1 0.171278,-0.128082 z m -2.310522,1.771079 a 64.822609,64.822609 0 0 0 -0.04873,0.04873 l 1.990565,2.384359 a 61.721076,61.721076 0 0 1 0.147171,-0.147171 z m 85.224098,0.0016 -2.09252,2.289426 a 61.721076,61.721076 0 0 1 0.15822,0.136622 l 1.98704,-2.38034 a 64.822609,64.822609 0 0 0 -0.0527,-0.04572 z m 2.14678,1.961935 -2.193,2.192986 a 61.721076,61.721076 0 0 1 0.1512,0.143656 l 2.09202,-2.288925 a 64.822609,64.822609 0 0 0 -0.0503,-0.04772 z m -89.425234,0.0909 a 64.822609,64.822609 0 0 0 -0.05274,0.05274 l 2.089516,2.28591 a 61.721076,61.721076 0 0 1 0.150686,-0.151188 z m 91.482594,1.963944 -2.28892,2.092028 a 61.721076,61.721076 0 0 1 0.14416,0.151187 l 2.19299,-2.192987 a 64.822609,64.822609 0 0 0 -0.0482,-0.05023 z m -93.534438,0.0879 a 64.822609,64.822609 0 0 0 -0.05324,0.05324 l 2.18746,2.187461 a 61.721076,61.721076 0 0 1 0.151694,-0.15119 z m 95.498888,2.056864 -2.38034,1.987051 a 61.721076,61.721076 0 0 1 0.13613,0.157717 l 2.28942,-2.09253 a 64.822609,64.822609 0 0 0 -0.0452,-0.05223 z m -97.557262,0.0015 a 64.822609,64.822609 0 0 0 -0.04922,0.04923 l 2.28591,2.089514 a 61.721076,61.721076 0 0 1 0.147672,-0.147672 z m 99.424272,2.228147 -2.46723,1.878555 a 61.721076,61.721076 0 0 1 0.12858,0.164247 l 2.38135,-1.988052 a 64.822609,64.822609 0 0 0 -0.0426,-0.05475 z m -101.199356,0.07178 a 64.822609,64.822609 0 0 0 -0.0447,0.05977 l 2.378331,1.98554 a 61.721076,61.721076 0 0 1 0.128083,-0.170777 z m 102.965396,2.239195 -2.54861,1.766044 a 61.721076,61.721076 0 0 1 0.11955,0.169773 l 2.46874,-1.879559 a 64.822609,64.822609 0 0 0 -0.0397,-0.05626 z m -104.704315,0.08388 a 64.822609,64.822609 0 0 0 -0.04521,0.06027 l 2.461711,1.874035 a 61.721076,61.721076 0 0 1 0.128083,-0.171279 z m 106.365885,2.303492 -2.62546,1.64951 a 61.721076,61.721076 0 0 1 0.11151,0.175802 L 121.844,32.05612 a 64.822609,64.822609 0 0 0 -0.0367,-0.05826 z m -108.108821,0.02512 a 64.822609,64.822609 0 0 0 -0.04269,0.05676 l 2.544587,1.763027 a 61.721076,61.721076 0 0 1 0.126075,-0.168266 z m 109.662391,2.434085 -2.69677,1.53047 a 61.721076,61.721076 0 0 1 0.10296,0.180322 l 2.62796,-1.651019 a 64.822609,64.822609 0 0 0 -0.0341,-0.05978 z m -111.157199,0.05626 a 64.822609,64.822609 0 0 0 -0.03516,0.06479 l 2.624451,1.649009 a 61.721076,61.721076 0 0 1 0.101965,-0.186851 z m 112.591229,2.47477 -2.7656,1.408917 a 61.721076,61.721076 0 0 1 0.10247,0.180823 l 2.69679,-1.529968 a 64.822609,64.822609 0 0 0 -0.0336,-0.05978 z m -113.981561,0.07231 a 64.822609,64.822609 0 0 0 -0.03667,0.0663 l 2.691258,1.526954 a 61.721076,61.721076 0 0 1 0.102469,-0.188356 z m 115.298561,2.52048 -2.82537,1.283343 a 61.721076,61.721076 0 0 1 0.0939,0.185847 l 2.76258,-1.407409 a 64.822609,64.822609 0 0 0 -0.0311,-0.06178 z M 9.4205261,39.611018 a 64.822609,64.822609 0 0 0 -0.034658,0.06379 l 2.7570559,1.404897 a 61.721076,61.721076 0 0 1 0.101462,-0.185846 z m 117.8918739,2.618926 -2.87962,1.155261 a 61.721076,61.721076 0 0 1 0.0844,0.190368 l 2.82335,-1.28234 a 64.822609,64.822609 0 0 0 -0.0281,-0.06329 z M 8.2260885,42.259078 a 64.822609,64.822609 0 0 0 -0.025622,0.06831 l 2.8233615,1.282338 a 61.721076,61.721076 0 0 1 0.07434,-0.198404 z m 120.1682415,2.670662 -2.92834,1.024666 a 61.721076,61.721076 0 0 1 0.0749,0.194385 l 2.8781,-1.154256 a 64.822609,64.822609 0 0 0 -0.0246,-0.0648 z M 7.2119734,44.978462 a 64.822609,64.822609 0 0 0 -0.026628,0.07132 l 2.8720816,1.151746 a 61.721076,61.721076 0 0 1 0.07484,-0.200916 z M 129.3542,47.67474 l -2.97054,0.892062 a 61.721076,61.721076 0 0 1 0.0654,0.197902 l 2.92732,-1.024164 a 64.822609,64.822609 0 0 0 -0.0221,-0.06581 z M 6.19684,47.700357 a 64.822609,64.822609 0 0 0 -0.02561,0.06831 l 2.9208004,1.022155 a 61.721076,61.721076 0 0 1 0.073836,-0.198906 z m 123.99467,2.759567 -3.0072,0.757951 a 61.721076,61.721076 0 0 1 0.0552,0.200916 l 2.97053,-0.892063 a 64.822609,64.822609 0 0 0 -0.0185,-0.06681 z M 5.3188446,50.470974 a 64.822609,64.822609 0 0 0 -0.015564,0.06982 l 2.9720286,0.892564 a 61.721076,61.721076 0 0 1 0.04521,-0.205937 z m 125.5854054,2.808289 -3.03834,0.622335 a 61.721076,61.721076 0 0 1 0.0457,0.203426 l 3.00769,-0.757951 a 64.822609,64.822609 0 0 0 -0.0151,-0.06781 z M 4.7015348,53.307893 a 64.822609,64.822609 0 0 0 -0.016068,0.07383 l 3.0016614,0.756445 a 61.721076,61.721076 0 0 1 0.045712,-0.209454 z m 126.7893852,2.819842 -3.06295,0.48521 a 61.721076,61.721076 0 0 1 0.0357,0.205435 l 3.03885,-0.622333 a 64.822609,64.822609 0 0 0 -0.0116,-0.06832 z M 4.0842249,56.145314 a 64.822609,64.822609 0 0 0 -0.015577,0.07232 l 3.0308039,0.620325 a 61.721076,61.721076 0 0 1 0.04521,-0.207947 z m 127.8657851,2.854501 -3.08153,0.34708 a 61.721076,61.721076 0 0 1 0.0257,0.206941 l 3.06446,-0.485209 a 64.822609,64.822609 0 0 0 -0.009,-0.06882 z m -128.4147899,0.0021 a 64.822609,64.822609 0 0 0 -0.00502,0.07032 l 3.0664588,0.485713 a 61.721076,61.721076 0 0 1 0.015074,-0.209455 z m 128.7457999,2.887147 -3.09359,0.208449 a 61.721076,61.721076 0 0 1 0.0151,0.207948 l 3.08354,-0.347584 a 64.822609,64.822609 0 0 0 -0.005,-0.06882 z m -128.953242,0.0095 a 64.822609,64.822609 0 0 0 -0.00552,0.07534 l 3.077007,0.346578 a 61.721076,61.721076 0 0 1 0.015071,-0.213975 z m 129.155662,2.892637 -3.09962,0.06932 a 61.721076,61.721076 0 0 1 0.005,0.207948 l 3.09611,-0.208451 a 64.822609,64.822609 0 0 0 -0.002,-0.06882 z m -129.362601,0.003 a 64.822609,64.822609 0 0 0 -0.00553,0.07484 l 3.0865618,0.207947 a 61.721076,61.721076 0 0 1 0.015564,-0.213471 z m 2.8986946,2.83491 -3.1066397,0.06982 a 64.822609,64.822609 0 0 0 -0.00252,0.03415 64.822609,64.822609 0 0 0 0.00252,0.03415 l 3.1066397,0.06982 a 61.721076,61.721076 0 0 1 -0.00754,-0.103974 61.721076,61.721076 0 0 1 0.00754,-0.103973 z m 123.4321064,0 a 61.721076,61.721076 0 0 1 0.003,0.103973 61.721076,61.721076 0 0 1 -0.008,0.103974 l 3.10665,-0.06982 a 64.822609,64.822609 0 0 0 0.003,-0.03415 64.822609,64.822609 0 0 0 -9.7e-4,-0.03415 z M 6.2018689,70.389683 3.1153071,70.59763 a 64.822609,64.822609 0 0 0 0.00553,0.07484 l 3.0965943,-0.06932 a 61.721076,61.721076 0 0 1 -0.015564,-0.213472 z m 123.0624111,0 a 61.721076,61.721076 0 0 1 -0.0156,0.213472 l 3.09661,0.06932 a 64.822609,64.822609 0 0 0 0.006,-0.07484 z M 6.3992658,73.145735 3.3222588,73.492313 a 64.822609,64.822609 0 0 0 0.00552,0.07534 l 3.0865593,-0.207945 a 61.721076,61.721076 0 0 1 -0.015074,-0.213973 z m 122.6676242,0 a 61.721076,61.721076 0 0 1 -0.0151,0.213973 l 3.08656,0.207947 a 64.822609,64.822609 0 0 0 0.006,-0.07534 z M 6.5966625,75.908817 3.5302038,76.394529 a 64.822609,64.822609 0 0 0 0.00502,0.07032 l 3.0765144,-0.34658 a 61.721076,61.721076 0 0 1 -0.015077,-0.20945 z m 122.2728275,0 a 61.721076,61.721076 0 0 1 -0.0151,0.209454 l 3.0765,0.346578 a 64.822609,64.822609 0 0 0 0.005,-0.07032 z M 7.0994518,78.628202 4.0686479,79.249028 a 64.822609,64.822609 0 0 0 0.015577,0.07232 l 3.0609396,-0.484705 a 61.721076,61.721076 0 0 1 -0.045712,-0.20845 z m 121.2672482,0 a 61.721076,61.721076 0 0 1 -0.0452,0.20845 l 3.06043,0.484705 a 64.822609,64.822609 0 0 0 0.0156,-0.07232 z M 7.6871289,81.327995 4.6854674,82.084441 a 64.822609,64.822609 0 0 0 0.016068,0.07384 l 3.0313068,-0.620828 a 61.721076,61.721076 0 0 1 -0.045712,-0.209455 z m 120.0923911,0 a 61.721076,61.721076 0 0 1 -0.0457,0.209958 l 3.03081,0.620325 a 64.822609,64.822609 0 0 0 0.0161,-0.07384 z M 8.2758118,84.033316 5.303783,84.925881 a 64.822609,64.822609 0 0 0 0.015062,0.06982 L 8.320519,84.239256 A 61.721076,61.721076 0 0 1 8.275812,84.033314 Z m 118.9150282,5.03e-4 a 61.721076,61.721076 0 0 1 -0.0447,0.205435 l 3.00117,0.756445 a 64.822609,64.822609 0 0 0 0.0151,-0.06982 z M 9.0920308,86.675349 6.1712304,87.697502 a 64.822609,64.822609 0 0 0 0.02561,0.06882 l 2.9690259,-0.89156 A 61.721076,61.721076 0 0 1 9.0920303,86.675356 Z M 126.37462,86.67585 a 61.721076,61.721076 0 0 1 -0.0744,0.198905 l 2.96902,0.891561 a 64.822609,64.822609 0 0 0 0.0257,-0.06882 z M 10.057427,89.264639 7.1853454,90.416886 a 64.822609,64.822609 0 0 0 0.026628,0.07132 l 2.9207966,-1.02215 a 61.721076,61.721076 0 0 1 -0.07534,-0.201417 z m 115.351303,5.02e-4 a 61.721076,61.721076 0 0 1 -0.0749,0.200915 l 2.92031,1.022155 a 64.822609,64.822609 0 0 0 0.0267,-0.07132 z M 11.023828,91.856442 8.2004663,93.138781 a 64.822609,64.822609 0 0 0 0.025622,0.06831 L 11.098166,92.05484 a 61.721076,61.721076 0 0 1 -0.07434,-0.198403 z m 113.418502,0 a 61.721076,61.721076 0 0 1 -0.0739,0.198907 l 2.87157,1.151743 a 64.822609,64.822609 0 0 0 0.0257,-0.06831 z M 12.143427,94.386966 9.3858682,95.791863 a 64.822609,64.822609 0 0 0 0.034658,0.06379 l 2.8243628,-1.282844 a 61.721076,61.721076 0 0 1 -0.101462,-0.185846 z m 111.179303,0 a 61.721076,61.721076 0 0 1 -0.10147,0.185846 l 2.82437,1.282842 a 64.822609,64.822609 0 0 0 0.0347,-0.06379 z m -109.854771,2.425547 -2.691257,1.526953 a 64.822609,64.822609 0 0 0 0.03617,0.06681 l 2.758059,-1.4054 a 61.721076,61.721076 0 0 1 -0.102972,-0.188357 z m 108.530231,0 a 61.721076,61.721076 0 0 1 -0.10296,0.188356 l 2.75805,1.405401 a 64.822609,64.822609 0 0 0 0.0362,-0.06681 z m -107.205198,2.427047 -2.624451,1.64901 a 64.822609,64.822609 0 0 0 0.03516,0.0649 l 2.691257,-1.526945 a 61.721076,61.721076 0 0 1 -0.101966,-0.186853 z m 105.880168,0 a 61.721076,61.721076 0 0 1 -0.10197,0.186853 l 2.69127,1.526957 a 64.822609,64.822609 0 0 0 0.0352,-0.0649 z m -104.472255,2.38436 -2.545091,1.76304 a 64.822609,64.822609 0 0 0 0.04269,0.0567 l 2.628469,-1.65152 A 61.721076,61.721076 0 0 1 16.2009,101.62387 Z m 103.064355,0 a 61.721076,61.721076 0 0 1 -0.12608,0.16827 l 2.62847,1.65152 a 64.822609,64.822609 0 0 0 0.0426,-0.0567 z m -101.407813,2.21308 -2.46171,1.87453 a 64.822609,64.822609 0 0 0 0.04571,0.0603 l 2.544588,-1.76301 a 61.721076,61.721076 0 0 1 -0.128581,-0.17179 z m 99.751253,0 a 61.721076,61.721076 0 0 1 -0.12857,0.17179 l 2.54459,1.76301 a 64.822609,64.822609 0 0 0 0.0457,-0.0603 z m -98.094708,2.21308 -2.378331,1.98554 a 64.822609,64.822609 0 0 0 0.0447,0.0598 l 2.461711,-1.87453 a 61.721076,61.721076 0 0 1 -0.128083,-0.17078 z m 96.438168,0 a 61.721076,61.721076 0 0 1 -0.12809,0.17078 l 2.46172,1.87454 a 64.822609,64.822609 0 0 0 0.0447,-0.0598 z m -94.760026,2.20604 -2.28591,2.08952 a 64.822609,64.822609 0 0 0 0.04922,0.0492 l 2.384358,-1.99057 a 61.721076,61.721076 0 0 1 -0.147672,-0.14818 z m 93.081886,5.1e-4 a 61.721076,61.721076 0 0 1 -0.14768,0.14768 l 2.38436,1.99056 a 64.822609,64.822609 0 0 0 0.0492,-0.0492 z m -91.125476,1.95641 -2.187463,2.18745 a 64.822609,64.822609 0 0 0 0.05274,0.0528 l 2.285909,-2.08952 a 61.721076,61.721076 0 0 1 -0.151187,-0.15068 z m 89.169066,0 a 61.721076,61.721076 0 0 1 -0.15119,0.15119 l 2.28591,2.08901 a 64.822609,64.822609 0 0 0 0.0528,-0.0528 z m -87.215168,1.95339 -2.089517,2.28591 a 64.822609,64.822609 0 0 0 0.05324,0.0532 l 2.187461,-2.18744 a 61.721076,61.721076 0 0 1 -0.151183,-0.1517 z m 85.261268,5.1e-4 a 61.721076,61.721076 0 0 1 -0.15119,0.15119 l 2.18746,2.18745 a 64.822609,64.822609 0 0 0 0.0527,-0.0527 z m -83.301846,1.95941 -1.990565,2.38437 a 64.822609,64.822609 0 0 0 0.04923,0.0492 l 2.089012,-2.28592 a 61.721076,61.721076 0 0 1 -0.147672,-0.14768 z m 81.342426,0 a 61.721076,61.721076 0 0 1 -0.14768,0.14768 l 2.08902,2.28592 a 64.822609,64.822609 0 0 0 0.0492,-0.0492 z m -79.159484,1.69774 -1.874034,2.46121 a 64.822609,64.822609 0 0 0 0.05978,0.0452 l 1.98554,-2.37833 a 61.721076,61.721076 0 0 1 -0.171278,-0.12809 z m 76.976044,5e-4 a 61.721076,61.721076 0 0 1 -0.17128,0.12759 l 1.98553,2.37833 a 64.822609,64.822609 0 0 0 0.0598,-0.0447 z m -74.763468,1.65555 -1.76303,2.54459 a 64.822609,64.822609 0 0 0 0.06027,0.0452 l 1.874036,-2.46122 a 61.721076,61.721076 0 0 1 -0.17128,-0.12857 z m 72.551398,0 a 61.721076,61.721076 0 0 1 -0.17129,0.12857 l 1.87403,2.46122 a 64.822609,64.822609 0 0 0 0.0603,-0.0452 z m -70.334302,1.65955 -1.651522,2.62797 a 64.822609,64.822609 0 0 0 0.05675,0.0426 l 1.763029,-2.54459 a 61.721076,61.721076 0 0 1 -0.168265,-0.12608 z m 68.117192,0 a 61.721076,61.721076 0 0 1 -0.16826,0.12607 l 1.76303,2.54459 a 64.822609,64.822609 0 0 0 0.0567,-0.0426 z m -65.751419,1.43152 -1.526953,2.69126 a 64.822609,64.822609 0 0 0 0.06479,0.0352 l 1.64901,-2.62446 a 61.721076,61.721076 0 0 1 -0.186852,-0.10196 z m 63.385656,0 a 61.721076,61.721076 0 0 1 -0.186854,0.10196 l 1.649007,2.62446 a 64.822609,64.822609 0 0 0 0.0649,-0.0352 z m -60.960612,1.32453 -1.4054,2.75755 a 64.822609,64.822609 0 0 0 0.06681,0.0362 l 1.526954,-2.69126 a 61.721076,61.721076 0 0 1 -0.188357,-0.10247 z m 58.535568,0 a 61.721076,61.721076 0 0 1 -0.188357,0.10247 l 1.526954,2.69126 a 64.822609,64.822609 0 0 0 0.06681,-0.0362 z m -56.107008,1.32605 -1.282844,2.82435 a 64.822609,64.822609 0 0 0 0.06379,0.0347 l 1.404896,-2.75756 a 61.721076,61.721076 0 0 1 -0.185845,-0.10145 z m 53.678448,0 a 61.721076,61.721076 0 0 1 -0.185844,0.10145 l 1.404896,2.75756 a 64.822609,64.822609 0 0 0 0.06379,-0.0347 z m -51.160984,1.14672 -1.152247,2.87208 a 64.822609,64.822609 0 0 0 0.06831,0.0251 l 1.28234,-2.82335 a 61.721076,61.721076 0 0 1 -0.198404,-0.0739 z m 48.643521,0 a 61.721076,61.721076 0 0 1 -0.198404,0.0739 l 1.28234,2.82335 a 64.822609,64.822609 0 0 0 0.06831,-0.0251 z m -46.054229,0.96539 -1.022155,2.9208 a 64.822609,64.822609 0 0 0 0.07132,0.0267 l 1.152247,-2.87257 a 61.721076,61.721076 0 0 1 -0.201417,-0.0749 z m 43.464937,0 a 61.721076,61.721076 0 0 1 -0.201417,0.0749 l 1.152247,2.87257 a 64.822609,64.822609 0 0 0 0.07132,-0.0267 z m -40.873636,0.9664 -0.892063,2.96952 a 64.822609,64.822609 0 0 0 0.06882,0.0257 l 1.022155,-2.92081 a 61.721076,61.721076 0 0 1 -0.198905,-0.0744 z m 38.282335,0 a 61.721076,61.721076 0 0 1 -0.198905,0.0744 l 1.022155,2.92081 a 64.822609,64.822609 0 0 0 0.06882,-0.0257 z m -35.647335,0.84535 -0.756446,3.00217 a 64.822609,64.822609 0 0 0 0.06982,0.0151 l 0.892563,-2.97253 a 61.721076,61.721076 0 0 1 -0.205936,-0.0447 z m 33.011834,0 a 61.721076,61.721076 0 0 1 -0.205939,0.0452 l 0.892566,2.97253 a 64.822609,64.822609 0 0 0 0.06982,-0.0156 z m -30.310032,0.58768 -0.620827,3.0318 a 64.822609,64.822609 0 0 0 0.07383,0.0161 l 0.756446,-3.00217 a 61.721076,61.721076 0 0 1 -0.209456,-0.0457 z m 27.608731,0 a 61.721076,61.721076 0 0 1 -0.209456,0.0457 l 0.756447,3.00218 a 64.822609,64.822609 0 0 0 0.07383,-0.0161 z m -24.908433,0.58767 -0.484706,3.06145 a 64.822609,64.822609 0 0 0 0.07283,0.0156 l 0.620828,-3.03131 a 61.721076,61.721076 0 0 1 -0.208953,-0.0457 z m 22.207633,0 a 61.721076,61.721076 0 0 1 -0.20845,0.0457 l 0.620828,3.03132 a 64.822609,64.822609 0 0 0 0.07232,-0.0161 z m -19.488752,0.53344 -0.346578,3.07702 a 64.822609,64.822609 0 0 0 0.07032,0.005 l 0.485713,-3.06698 a 61.721076,61.721076 0 0 1 -0.209455,-0.0151 z m 16.770371,0 a 61.721076,61.721076 0 0 1 -0.209453,0.0151 l 0.485712,3.06698 a 64.822609,64.822609 0 0 0 0.07033,-0.005 z m -14.011807,0.1974 -0.207948,3.08706 a 64.822609,64.822609 0 0 0 0.07534,0.005 l 0.34658,-3.07702 a 61.721076,61.721076 0 0 1 -0.213974,-0.0151 z m 11.253245,0 a 61.721076,61.721076 0 0 1 -0.213974,0.0151 l 0.346579,3.07701 a 64.822609,64.822609 0 0 0 0.07535,-0.005 z m -8.496693,0.19689 -0.06932,3.0971 a 64.822609,64.822609 0 0 0 0.07484,0.005 l 0.207945,-3.08656 a 61.721076,61.721076 0 0 1 -0.213471,-0.0156 z m 5.739637,0 a 61.721076,61.721076 0 0 1 -0.212968,0.0156 l 0.207946,3.08656 a 64.822609,64.822609 0 0 0 0.07434,-0.005 z m -2.973541,0.1979 0.06982,3.10665 a 64.822609,64.822609 0 0 0 0.03415,0.003 64.822609,64.822609 0 0 0 0.03415,-0.003 l 0.06982,-3.10665 a 61.721076,61.721076 0 0 1 -0.103974,0.008 61.721076,61.721076 0 0 1 -0.103973,-0.008 z" />
    <path
       id="path2"
       style="display:inline;fill:#ffffff;stroke:#000000;stroke-width:3.175;stroke-linecap:round;stroke-linejoin:round;stroke-miterlimit:1;stroke-opacity:1;paint-order:fill markers stroke"
       inkscape:transform-center-y="-2.409839"
       d="m 82.321969,82.321952 39.605761,10.612339 -10.87254,10.872519 21.28497,21.28498 -3.62419,3.62418 -3.62417,3.62419 -21.28497,-21.28499 -10.872536,10.87255 z"
       sodipodi:nodetypes="ccccccccc"
       inkscape:transform-center-x="2.4098401"
       inkscape:label="cursor" />
  </g>
</svg>
