<?xml version="1.0" encoding="UTF-8" standalone="no"?>
<!-- Created with Inkscape (http://www.inkscape.org/) -->

<svg
   width="512"
   height="512"
   viewBox="0 0 135.46666 135.46667"
   version="1.1"
   id="svg5"
   inkscape:version="1.4 (e7c3feb100, 2024-10-09)"
   sodipodi:docname="simplescreenrecorder.svg"
   xmlns:inkscape="http://www.inkscape.org/namespaces/inkscape"
   xmlns:sodipodi="http://sodipodi.sourceforge.net/DTD/sodipodi-0.dtd"
   xmlns:xlink="http://www.w3.org/1999/xlink"
   xmlns="http://www.w3.org/2000/svg"
   xmlns:svg="http://www.w3.org/2000/svg">
  <sodipodi:namedview
     id="namedview7"
     pagecolor="#242424"
     bordercolor="#666666"
     borderopacity="1"
     inkscape:showpageshadow="0"
     inkscape:pageopacity="0"
     inkscape:pagecheckerboard="1"
     inkscape:deskcolor="#000000"
     inkscape:document-units="px"
     showgrid="false"
     inkscape:zoom="2.6074563"
     inkscape:cx="363.57273"
     inkscape:cy="267.11858"
     inkscape:window-width="3256"
     inkscape:window-height="1080"
     inkscape:window-x="1864"
     inkscape:window-y="0"
     inkscape:window-maximized="0"
     inkscape:current-layer="layer1" />
  <defs
     id="defs2">
    <linearGradient
       id="linearGradient8"
       inkscape:collect="always">
      <stop
         style="stop-color:#000000;stop-opacity:1;"
         offset="0"
         id="stop13" />
      <stop
         style="stop-color:#ffffff;stop-opacity:0;"
         offset="1"
         id="stop14" />
    </linearGradient>
    <linearGradient
       id="linearGradient5"
       inkscape:collect="always">
      <stop
         style="stop-color:#ffffff;stop-opacity:0;"
         offset="0.90119463"
         id="stop8" />
      <stop
         style="stop-color:#ffffff;stop-opacity:1;"
         offset="1"
         id="stop7" />
    </linearGradient>
    <linearGradient
       id="linearGradient47"
       inkscape:collect="always">
      <stop
         style="stop-color:#000000;stop-opacity:0;"
         offset="0"
         id="stop47" />
      <stop
         style="stop-color:#ffffff;stop-opacity:0.5;"
         offset="1"
         id="stop48" />
    </linearGradient>
    <linearGradient
       id="linearGradient36"
       inkscape:collect="always">
      <stop
         style="stop-color:#ffffff;stop-opacity:1;"
         offset="0.91006511"
         id="stop36" />
      <stop
         style="stop-color:#ffffff;stop-opacity:0;"
         offset="1"
         id="stop37" />
    </linearGradient>
    <linearGradient
       id="linearGradient29"
       inkscape:collect="always">
      <stop
         style="stop-color:#ffffff;stop-opacity:1;"
         offset="0"
         id="stop30" />
      <stop
         style="stop-color:#000000;stop-opacity:1;"
         offset="1"
         id="stop31" />
    </linearGradient>
    <linearGradient
       id="linearGradient28"
       inkscape:collect="always">
      <stop
         style="stop-color:#ffffff;stop-opacity:1;"
         offset="0"
         id="stop29" />
      <stop
         style="stop-color:#000000;stop-opacity:1;"
         offset="1"
         id="stop28" />
    </linearGradient>
    <linearGradient
       id="linearGradient25"
       inkscape:collect="always">
      <stop
         style="stop-color:#ffffff;stop-opacity:0;"
         offset="0.88241696"
         id="stop26" />
      <stop
         style="stop-color:#ffffff;stop-opacity:1;"
         offset="1"
         id="stop25" />
    </linearGradient>
    <linearGradient
       id="linearGradient23"
       inkscape:collect="always">
      <stop
         style="stop-color:#0f0f0f;stop-opacity:1;"
         offset="0"
         id="stop23" />
      <stop
         style="stop-color:#000000;stop-opacity:1;"
         offset="1"
         id="stop22" />
    </linearGradient>
    <linearGradient
       id="linearGradient12"
       inkscape:collect="always">
      <stop
         style="stop-color:#ffffff;stop-opacity:1;"
         offset="0"
         id="stop11" />
      <stop
         style="stop-color:#ffffff;stop-opacity:0;"
         offset="1"
         id="stop12" />
    </linearGradient>
    <linearGradient
       id="linearGradient10"
       inkscape:collect="always">
      <stop
         style="stop-color:#666666;stop-opacity:1;"
         offset="0.49168295"
         id="stop10" />
      <stop
         style="stop-color:#000000;stop-opacity:1;"
         offset="1"
         id="stop9" />
    </linearGradient>
    <linearGradient
       id="linearGradient4"
       inkscape:collect="always">
      <stop
         style="stop-color:#141414;stop-opacity:1;"
         offset="0"
         id="stop5" />
      <stop
         style="stop-color:#ffffff;stop-opacity:1;"
         offset="1"
         id="stop6" />
    </linearGradient>
    <linearGradient
       id="linearGradient3"
       inkscape:collect="always">
      <stop
         style="stop-color:#000000;stop-opacity:1;"
         offset="0"
         id="stop3" />
      <stop
         style="stop-color:#0f0f0f;stop-opacity:1;"
         offset="1"
         id="stop4" />
    </linearGradient>
    <radialGradient
       inkscape:collect="always"
       xlink:href="#linearGradient23"
       id="radialGradient4"
       cx="269.2113"
       cy="85.527679"
       fx="269.2113"
       fy="85.527679"
       r="60.271183"
       gradientUnits="userSpaceOnUse"
       gradientTransform="matrix(-0.7759666,0,0,0.7759666,276.63231,1.3667119)" />
    <linearGradient
       inkscape:collect="always"
       xlink:href="#linearGradient4"
       id="linearGradient6"
       x1="18.646398"
       y1="67.73333"
       x2="116.82026"
       y2="67.73333"
       gradientUnits="userSpaceOnUse"
       gradientTransform="matrix(-1,0,0,1,135.46666,0)" />
    <radialGradient
       inkscape:collect="always"
       xlink:href="#linearGradient10"
       id="radialGradient9"
       cx="242.80762"
       cy="57.114258"
       fx="242.80762"
       fy="57.114258"
       r="49.616211"
       gradientUnits="userSpaceOnUse"
       gradientTransform="translate(-175.07429,10.619071)" />
    <linearGradient
       inkscape:collect="always"
       xlink:href="#linearGradient12"
       id="linearGradient11"
       x1="-186.55367"
       y1="7.4621429"
       x2="-186.55367"
       y2="63.4907"
       gradientUnits="userSpaceOnUse"
       gradientTransform="matrix(-0.87752265,0,0,0.87752265,-95.971728,19.626937)" />
    <filter
       inkscape:collect="always"
       style="color-interpolation-filters:sRGB"
       id="filter17"
       x="-0.55296005"
       y="-0.55296002"
       width="2.1059201"
       height="2.1059201">
      <feGaussianBlur
         inkscape:collect="always"
         stdDeviation="10.305931"
         id="feGaussianBlur17" />
    </filter>
    <clipPath
       clipPathUnits="userSpaceOnUse"
       id="clipPath20">
      <path
         style="fill:url(#radialGradient21);stroke-width:0.999998;stroke-linecap:round;stroke-linejoin:round;stroke-miterlimit:1;paint-order:fill markers stroke"
         d="M 193.29827,44.772975 A 47.499431,47.499431 0 0 0 240.7977,92.272406 47.499431,47.499431 0 0 0 288.29713,44.772975 47.499431,47.499431 0 0 0 240.7977,-2.726457 47.499431,47.499431 0 0 0 193.29827,44.772975 Z"
         id="path21" />
    </clipPath>
    <radialGradient
       inkscape:collect="always"
       xlink:href="#linearGradient3"
       id="radialGradient21"
       gradientUnits="userSpaceOnUse"
       gradientTransform="matrix(-0.78809521,0,0,0.78809521,452.96184,-22.630978)"
       cx="269.2113"
       cy="85.527679"
       fx="269.2113"
       fy="85.527679"
       r="60.271183" />
    <radialGradient
       inkscape:collect="always"
       xlink:href="#linearGradient25"
       id="radialGradient26"
       cx="213.19239"
       cy="68.696288"
       fx="213.19239"
       fy="68.696288"
       r="32.536135"
       gradientUnits="userSpaceOnUse"
       gradientTransform="matrix(0.98461021,0,0,0.98461021,-142.17806,0.09426838)" />
    <radialGradient
       inkscape:collect="always"
       xlink:href="#linearGradient28"
       id="radialGradient29"
       cx="225.36891"
       cy="42.922581"
       fx="225.36891"
       fy="42.922581"
       r="41.29903"
       gradientUnits="userSpaceOnUse"
       gradientTransform="matrix(1.3309734,0,0,1.3309734,-232.2267,10.604538)" />
    <linearGradient
       inkscape:collect="always"
       xlink:href="#linearGradient29"
       id="linearGradient31"
       x1="260.31412"
       y1="13.229141"
       x2="260.31412"
       y2="151.8708"
       gradientUnits="userSpaceOnUse"
       gradientTransform="matrix(0.98461021,0,0,0.98461021,-188.57482,-13.546236)" />
    <radialGradient
       inkscape:collect="always"
       xlink:href="#linearGradient36"
       id="radialGradient37"
       cx="252.94167"
       cy="67.73333"
       fx="252.94167"
       fy="67.73333"
       r="60.271255"
       gradientUnits="userSpaceOnUse"
       gradientTransform="matrix(1.0114221,0,0,1.0114221,-188.09745,-0.77365134)" />
    <linearGradient
       inkscape:collect="always"
       xlink:href="#linearGradient47"
       id="linearGradient48"
       x1="67.698929"
       y1="2.9129155"
       x2="67.73307"
       y2="132.55627"
       gradientUnits="userSpaceOnUse"
       gradientTransform="translate(1.0499999e-6)" />
    <radialGradient
       inkscape:collect="always"
       xlink:href="#linearGradient5"
       id="radialGradient8"
       cx="-99.967011"
       cy="58.126167"
       fx="-99.967011"
       fy="58.126167"
       r="67.733349"
       gradientTransform="matrix(1,0,0,0.99683752,167.70034,9.5767997)"
       gradientUnits="userSpaceOnUse" />
    <linearGradient
       inkscape:collect="always"
       xlink:href="#linearGradient8"
       id="linearGradient14"
       x1="67.790443"
       y1="8.9821529"
       x2="67.790443"
       y2="18.398022"
       gradientUnits="userSpaceOnUse" />
  </defs>
  <g
     inkscape:label="Layer 1"
     inkscape:groupmode="layer"
     id="layer1">
    <g
       id="g8"
       inkscape:label="knurling">
      <path
         id="path42"
         style="fill:#000000;fill-opacity:1;stroke:none;stroke-width:0.264583;stroke-linecap:round;stroke-linejoin:round;stroke-miterlimit:1;stroke-dasharray:none;stroke-opacity:1;paint-order:fill markers stroke"
         d="M 67.733334,-2.0000009e-7 A 67.73333,67.73333 0 0 0 65.976848,0.1255735 l -0.18396,5.85649 -0.54829,-5.8042968 a 67.73333,67.73333 0 0 0 -3.5078,0.2511475 l 0.18242,5.7965453 -0.9095,-5.7448689 a 67.73333,67.73333 0 0 0 -3.4985,0.33538 l 0.55759,5.8957641 -1.28261,-5.7381509 a 67.73333,67.73333 0 0 0 -3.43648,0.7477579 l 0.90589,5.7179972 -1.61593,-5.5634846 a 67.73333,67.73333 0 0 0 -3.43544,0.7472412 l 1.29242,5.7810424 -2.01486,-5.5975911 a 67.73333,67.73333 0 0 0 -3.29386,1.2283488 l 1.61799,5.569169 -2.2996,-5.314921 a 67.73333,67.73333 0 0 0 -3.29489,1.2288656 l 1.98541,5.5143918 -2.67787,-5.2560097 a 67.73333,67.73333 0 0 0 -3.14865,1.5595947 l 2.31511,5.349027 -2.95641,-4.9991775 a 67.73333,67.73333 0 0 0 -3.08612,1.6856852 l 2.64118,5.1831463 -3.28403,-4.8322634 a 67.73333,67.73333 0 0 0 -2.98535,1.8526004 l 2.99206,5.059122 -3.58169,-4.617806 a 67.73333,67.73333 0 0 0 -2.81533,2.107882 l 3.25665,4.791439 -3.83956,-4.35529 a 67.73333,67.73333 0 0 0 -2.79621,2.130103 l 3.64577,4.699454 -4.17236,-4.172872 a 67.73333,67.73333 0 0 0 -2.48667,2.48667 l 3.82923,4.342888 -4.34289,-3.829224 a 67.73333,67.73333 0 0 0 -2.48667,2.48667 l 4.17236,4.172355 -4.69946,-3.645256 a 67.73333,67.73333 0 0 0 -2.12958,2.795695 l 4.35529,3.839559 -4.79144,-3.256648 a 67.73333,67.73333 0 0 0 -2.10737,2.814815 l 4.61832,3.58221 -5.05964,-2.992582 a 67.73333,67.73333 0 0 0 -1.8526,2.985347 l 4.83175,3.283521 -5.18263,-2.640666 a 67.73333,67.73333 0 0 0 -1.68568,3.086117 l 4.99866,2.955892 -5.34851,-2.314588 a 67.73333,67.73333 0 0 0 -1.5596,3.149162 l 5.25601,2.677873 -5.51439,-1.985409 a 67.73333,67.73333 0 0 0 -1.22887,3.293856 l 5.31441,2.299601 -5.56865,-1.617989 a 67.73333,67.73333 0 0 0 -1.22887,3.294372 l 5.59811,2.015381 -5.78156,-1.292427 a 67.73333,67.73333 0 0 0 -0.74724,3.435449 l 5.56348,1.615922 -5.71799,-0.905888 a 67.73333,67.73333 0 0 0 -0.74776,3.436483 l 5.73815,1.282092 -5.89577,-0.557589 a 67.73333,67.73333 0 0 0 -0.33538,3.499012 l 5.74487,0.909505 -5.79654,-0.182418 a 67.73333,67.73333 0 0 0 -0.25115,3.507796 l 5.8043,0.548287 -5.85649,0.183968 A 67.73333,67.73333 0 0 0 -2.0000001e-6,67.733332 67.73333,67.73333 0 0 0 0.125578,69.489814 l 5.85649,0.183968 -5.8043,0.548287 a 67.73333,67.73333 0 0 0 0.25115,3.507279 l 5.79654,-0.182417 -5.74487,0.910022 a 67.73333,67.73333 0 0 0 0.3359,3.499011 l 5.89525,-0.557589 -5.73764,1.282092 a 67.73333,67.73333 0 0 0 0.74725,3.435966 l 5.71799,-0.905888 -5.56348,1.615922 a 67.73333,67.73333 0 0 0 0.74724,3.43545 l 5.78156,-1.292428 -5.59811,2.015381 a 67.73333,67.73333 0 0 0 1.22887,3.294372 l 5.56865,-1.617989 -5.31441,2.299602 a 67.73333,67.73333 0 0 0 1.22887,3.294372 l 5.51439,-1.985408 -5.25601,2.677872 a 67.73333,67.73333 0 0 0 1.5596,3.148645 l 5.34851,-2.314587 -4.99866,2.955892 a 67.73333,67.73333 0 0 0 1.68516,3.086629 l 5.18315,-2.641178 -4.83226,3.283518 a 67.73333,67.73333 0 0 0 1.85311,2.98587 l 5.05964,-2.99259 -4.61832,3.58221 a 67.73333,67.73333 0 0 0 2.10685,2.8143 l 4.79196,-3.25665 -4.35529,3.83956 a 67.73333,67.73333 0 0 0 2.12958,2.79622 l 4.69946,-3.64526 -4.17236,4.17236 a 67.73333,67.73333 0 0 0 2.48667,2.48615 l 4.34289,-3.82922 -3.82923,4.3434 a 67.73333,67.73333 0 0 0 2.48667,2.48616 l 4.17236,-4.17236 -3.64526,4.69946 a 67.73333,67.73333 0 0 0 2.7957,2.1301 l 3.83956,-4.35529 -3.25665,4.79144 a 67.73333,67.73333 0 0 0 2.81533,2.10736 l 3.58169,-4.6178 -2.99206,5.05912 a 67.73333,67.73333 0 0 0 2.98535,1.85312 l 3.28403,-4.83227 -2.64118,5.18315 a 67.73333,67.73333 0 0 0 3.08663,1.68517 l 2.9559,-4.99866 -2.31511,5.34902 a 67.73333,67.73333 0 0 0 3.14865,1.55908 l 2.67787,-5.25549 -1.98541,5.51387 a 67.73333,67.73333 0 0 0 3.29489,1.22887 l 2.2996,-5.31441 -1.61799,5.56866 a 67.73333,67.73333 0 0 0 3.29386,1.22835 l 2.01486,-5.59708 -1.29242,5.78053 a 67.73333,67.73333 0 0 0 3.43544,0.74776 l 1.61593,-5.56349 -0.90589,5.718 a 67.73333,67.73333 0 0 0 3.43648,0.74776 l 1.28261,-5.73816 -0.55759,5.89577 a 67.73333,67.73333 0 0 0 3.49798,0.33538 l 0.91002,-5.74539 -0.18242,5.79707 a 67.73333,67.73333 0 0 0 3.5078,0.25114 l 0.54829,-5.80429 0.18396,5.85649 a 67.73333,67.73333 0 0 0 1.756486,0.12557 67.73333,67.73333 0 0 0 1.756999,-0.12557 l 0.183968,-5.85649 0.548287,5.80378 a 67.73333,67.73333 0 0 0 3.507796,-0.25063 l -0.182417,-5.79707 0.910022,5.74487 a 67.73333,67.73333 0 0 0 3.497977,-0.33538 l -0.557588,-5.89525 1.282092,5.73764 a 67.73333,67.73333 0 0 0 3.435966,-0.74724 l -0.905888,-5.718 1.615922,5.56349 a 67.73333,67.73333 0 0 0 3.435966,-0.74776 l -1.292428,-5.78053 2.014864,5.59708 a 67.73333,67.73333 0 0 0 3.294373,-1.22835 l -1.617989,-5.56866 2.299601,5.31441 a 67.73333,67.73333 0 0 0 3.294889,-1.22887 l -1.985408,-5.51387 2.677356,5.25549 a 67.73333,67.73333 0 0 0 3.149161,-1.55959 l -2.315104,-5.34851 2.955892,4.99866 a 67.73333,67.73333 0 0 0 3.086637,-1.68517 l -2.641186,-5.18315 3.283516,4.83227 a 67.73333,67.73333 0 0 0 2.98587,-1.85312 l -2.99207,-5.05912 3.5817,4.6178 a 67.73333,67.73333 0 0 0 2.81429,-2.10736 l -3.25664,-4.79144 3.83955,4.35529 a 67.73333,67.73333 0 0 0 2.79673,-2.13062 l -3.64525,-4.69894 4.17184,4.17236 a 67.73333,67.73333 0 0 0 2.48615,-2.48616 l -3.82922,-4.3434 4.3434,3.82922 a 67.73333,67.73333 0 0 0 2.48667,-2.48615 l -4.17287,-4.17236 4.69945,3.64578 a 67.73333,67.73333 0 0 0 2.13011,-2.79622 l -4.35581,-3.84008 4.79195,3.25717 a 67.73333,67.73333 0 0 0 2.10737,-2.81533 l -4.61781,-3.5817 5.05913,2.99207 a 67.73333,67.73333 0 0 0 1.85311,-2.98535 l -4.83226,-3.283518 5.18315,2.641178 a 67.73333,67.73333 0 0 0 1.68516,-3.086629 l -4.99866,-2.955892 5.34851,2.314587 a 67.73333,67.73333 0 0 0 1.5596,-3.148645 l -5.25549,-2.677872 5.51387,1.985408 a 67.73333,67.73333 0 0 0 1.22887,-3.294372 l -5.31389,-2.299602 5.56813,1.617989 a 67.73333,67.73333 0 0 0 1.22887,-3.294889 l -5.59759,-2.014864 5.78104,1.292428 a 67.73333,67.73333 0 0 0 0.74724,-3.43545 l -5.56348,-1.615922 5.71799,0.905888 a 67.73333,67.73333 0 0 0 0.74725,-3.435966 l -5.73764,-1.282092 5.89525,0.557589 a 67.73333,67.73333 0 0 0 0.3359,-3.499528 l -5.74436,-0.909505 5.79603,0.182417 a 67.73333,67.73333 0 0 0 0.25115,-3.507279 l -5.80378,-0.548287 5.85597,-0.183968 a 67.73333,67.73333 0 0 0 0.12558,-1.756482 67.73333,67.73333 0 0 0 -0.0429,-1.753898 l -5.93814,-0.186552 5.91953,-0.559656 a 67.73333,67.73333 0 0 0 -0.21756,-3.501078 l -5.94589,0.187069 5.88595,-0.932243 a 67.73333,67.73333 0 0 0 -0.4439,-3.479374 l -5.92884,0.560689 5.80068,-1.296562 a 67.73333,67.73333 0 0 0 -0.65836,-3.445784 l -5.86992,0.929659 5.70663,-1.65778 a 67.73333,67.73333 0 0 0 -0.87179,-3.397725 l -5.79964,1.296561 5.60069,-2.015897 a 67.73333,67.73333 0 0 0 -1.08055,-3.337781 l -5.71903,1.661914 5.46116,-2.363163 a 67.73333,67.73333 0 0 0 -1.29346,-3.260266 l -5.59707,2.015381 5.29425,-2.69751 a 67.73333,67.73333 0 0 0 -1.49397,-3.174483 l -5.4529,2.359546 5.117,-3.026172 a 67.73333,67.73333 0 0 0 -1.68775,-3.075265 l -5.2989,2.700094 4.93045,-3.350183 a 67.73333,67.73333 0 0 0 -1.88206,-2.958993 l -5.12785,3.03289 4.6979,-3.643705 A 67.73333,67.73333 0 0 0 121.467,26.525512 l -4.91597,3.340881 4.45709,-3.928959 a 67.73333,67.73333 0 0 0 -2.23552,-2.703711 l -4.69584,3.642672 4.20801,-4.208012 a 67.73333,67.73333 0 0 0 -2.39882,-2.559017 l -4.46588,3.937228 3.93723,-4.465878 a 67.73333,67.73333 0 0 0 -2.55902,-2.398303 l -4.20698,4.207495 3.64164,-4.694803 a 67.73333,67.73333 0 0 0 -2.70371,-2.23604 l -3.92896,4.456576 3.34088,-4.915462 a 67.73333,67.73333 0 0 0 -2.83703,-2.063957 l -3.64371,4.697904 3.03289,-5.128369 A 67.73333,67.73333 0 0 0 102.53328,9.6242184 L 99.183094,14.554667 101.88319,9.2557655 A 67.73333,67.73333 0 0 0 98.80844,7.5680132 L 95.782268,12.685013 98.141814,7.2326332 A 67.73333,67.73333 0 0 0 94.967848,5.7381508 l -2.69751,5.2942502 2.014864,-5.5965574 A 67.73333,67.73333 0 0 0 91.025453,4.1418658 l -2.36368,5.4621988 1.661914,-5.7200642 A 67.73333,67.73333 0 0 0 86.986423,2.8034462 l -2.015898,5.6006917 1.296562,-5.799646 A 67.73333,67.73333 0 0 0 82.868328,1.7327105 L 81.210548,7.4393389 82.140724,1.569413 A 67.73333,67.73333 0 0 0 78.694939,0.9105385 L 77.398378,6.7117347 77.959067,0.782381 A 67.73333,67.73333 0 0 0 74.480209,0.3395139 l -0.932242,5.8859456 0.187068,-5.946407 A 67.73333,67.73333 0 0 0 70.233957,0.0614947 L 69.674301,5.9820635 69.487749,0.0428912 A 67.73333,67.73333 0 0 0 67.733334,-2.0000009e-7 Z" />
      <path
         id="path3"
         style="fill:url(#radialGradient8);fill-opacity:1;stroke:none;stroke-width:0.264583;stroke-linecap:round;stroke-linejoin:round;stroke-miterlimit:1;stroke-dasharray:none;stroke-opacity:1;paint-order:fill markers stroke;opacity:0.6"
         d="m 67.733316,0 a 67.73333,67.73333 0 0 0 -1.756483,0.125574 l -0.18397,5.85649 -0.54828,-5.804297 a 67.73333,67.73333 0 0 0 -3.5078,0.251148 l 0.004,0.12299 a 67.73333,67.73333 0 0 1 3.50367,-0.250631 l 0.54828,5.804297 0.18397,-5.85649 a 67.73333,67.73333 0 0 1 1.756483,-0.125574 67.73333,67.73333 0 0 1 1.754415,0.04289 l 0.186552,5.939173 0.559656,-5.920569 a 67.73333,67.73333 0 0 1 3.496944,0.217558 l 0.0041,-0.123507 A 67.73333,67.73333 0 0 0 70.233775,0.061494 L 69.674119,5.982063 69.487567,0.042891 A 67.73333,67.73333 0 0 0 67.733152,10e-7 Z m 6.746875,0.339515 -0.927592,5.855456 -0.0047,0.153996 0.932243,-5.885946 a 67.73333,67.73333 0 0 1 3.467489,0.441317 l 0.01137,-0.121956 A 67.73333,67.73333 0 0 0 74.480143,0.339515 Z M 61.009693,0.480591 a 67.73333,67.73333 0 0 0 -3.49849,0.33538 l 0.0114,0.122473 a 67.73333,67.73333 0 0 1 3.48712,-0.334346 l 0.90951,5.744869 -0.005,-0.153996 z m 17.685228,0.429948 -1.276408,5.710763 -0.02015,0.21394 1.296562,-5.801196 a 67.73333,67.73333 0 0 1 3.426664,0.655257 l 0.01912,-0.119889 A 67.73333,67.73333 0 0 0 78.694925,0.910539 Z m -21.908738,0.06305 a 67.73333,67.73333 0 0 0 -3.43649,0.747758 l 0.0191,0.119373 a 67.73333,67.73333 0 0 1 3.41736,-0.743624 l 1.28261,5.738151 -0.0202,-0.21394 z m 26.082127,0.759127 -1.614889,5.558317 -0.04289,0.271818 1.65778,-5.706628 a 67.73333,67.73333 0 0 1 3.372403,0.865063 l 0.02636,-0.116788 A 67.73333,67.73333 0 0 0 82.868316,1.732716 Z M 52.639663,1.87586 a 67.73333,67.73333 0 0 0 -3.43545,0.747241 l 0.0264,0.117822 a 67.73333,67.73333 0 0 1 3.40909,-0.741556 l 1.61592,5.563484 -0.0429,-0.271818 z m 34.346741,0.927592 -1.943033,5.39812 -0.07286,0.326078 2.015897,-5.600692 a 67.73333,67.73333 0 0 1 3.304708,1.069703 l 0.03256,-0.112655 A 67.73333,67.73333 0 0 0 86.986412,2.803452 Z m -38.504621,0.0031 a 67.73333,67.73333 0 0 0 -3.29386,1.228349 l 0.0326,0.111621 a 67.73333,67.73333 0 0 1 3.2613,-1.216463 l 2.01486,5.597591 -0.0729,-0.326078 z m 42.543651,1.335319 -2.254642,5.210018 -0.109038,0.3756879 2.36368,-5.4621989 a 67.73333,67.73333 0 0 1 3.220992,1.278475 l 0.03876,-0.108004 A 67.73333,67.73333 0 0 0 91.025436,4.141871 Z M 44.506313,4.289149 a 67.73333,67.73333 0 0 0 -3.29489,1.228866 l 0.0393,0.109037 a 67.73333,67.73333 0 0 1 3.25562,-1.214396 l 2.2996,5.3149209 -0.10904,-0.3756879 z m 50.461516,1.449007 -2.546098,4.996595 -0.151411,0.421163 2.697509,-5.294251 a 67.73333,67.73333 0 0 1 3.129525,1.473812 l 0.04444,-0.102836 A 67.73333,67.73333 0 0 0 94.967827,5.738156 Z m -54.448876,0.03824 a 67.73333,67.73333 0 0 0 -3.14864,1.559595 l 0.0439,0.101802 a 67.73333,67.73333 0 0 1 3.10472,-1.53789 l 2.67788,5.25601 -0.15141,-0.421163 z m 58.289469,1.791622 -2.826701,4.78007 -0.199471,0.460437 3.026172,-5.117001 a 67.73333,67.73333 0 0 1 3.025658,1.660881 l 0.0491,-0.09664 A 67.73333,67.73333 0 0 0 98.80843,7.568013 Z M 36.729013,7.68584 a 67.73333,67.73333 0 0 0 -3.08612,1.685685 l 0.0491,0.09664 a 67.73333,67.73333 0 0 1 3.03703,-1.658813 l 2.9564,4.999178 -0.19947,-0.460437 z m 65.804247,1.938383 -3.09852,4.559928 -0.251664,0.494027 3.350184,-4.9304483 a 67.73333,67.73333 0 0 1 2.9068,1.8479493 l 0.0532,-0.08992 A 67.73333,67.73333 0 0 0 102.53323,9.62422 Z M 33.000033,9.722408 a 67.73333,67.73333 0 0 0 -2.98534,1.8526 l 0.0532,0.09043 a 67.73333,67.73333 0 0 1 2.93212,-1.8195272 l 3.28404,4.8322632 -0.25166,-0.49351 z m 73.104067,2.213819 -3.33623,4.301546 -0.30747,0.519865 3.6437,-4.697905 a 67.73333,67.73333 0 0 1 2.78071,2.023132 l 0.0563,-0.08268 a 67.73333,67.73333 0 0 0 -2.83701,-2.063956 z m -76.679037,0.0801 a 67.73333,67.73333 0 0 0 -2.81533,2.107881 l 0.0558,0.08165 a 67.73333,67.73333 0 0 1 2.75952,-2.066023 l 3.58169,4.617805 -0.30747,-0.519864 z m 80.104147,2.442745 -3.56257,4.041096 -0.36638,0.538986 3.92895,-4.456576 a 67.73333,67.73333 0 0 1 2.64532,2.18798 l 0.0584,-0.07545 a 67.73333,67.73333 0 0 0 -2.70372,-2.236038 z m -83.502387,0.101285 a 67.73333,67.73333 0 0 0 -2.79622,2.130103 l 0.0605,0.07751 a 67.73333,67.73333 0 0 1 2.73575,-2.084111 l 3.83955,4.35529 -0.36638,-0.539502 z m 86.771437,2.622062 -3.77961,3.780132 -0.42736,0.55087 4.20697,-4.207495 a 67.73333,67.73333 0 0 1 2.49959,2.342493 l 0.0594,-0.0677 a 67.73333,67.73333 0 0 0 -2.55902,-2.398304 z m -90.094237,0.03462 a 67.73333,67.73333 0 0 0 -2.48667,2.486667 l 0.0579,0.06563 a 67.73333,67.73333 0 0 1 2.42879,-2.428792 l 4.17236,4.172872 -0.42737,-0.550871 z m 93.181907,2.892331 -3.97702,3.506246 -0.48885,0.554488 4.46587,-3.937228 a 67.73333,67.73333 0 0 1 2.33888,2.495455 l 0.0599,-0.05994 a 67.73333,67.73333 0 0 0 -2.39882,-2.559016 z m -96.182237,0.108003 a 67.73333,67.73333 0 0 0 -2.48667,2.48667 l 0.062,0.06201 a 67.73333,67.73333 0 0 1 2.42466,-2.425175 l 4.34289,3.829224 -0.48938,-0.555005 z m -3.01377,3.01377 a 67.73333,67.73333 0 0 0 -2.12959,2.795695 l 0.0563,0.04961 a 67.73333,67.73333 0 0 1 2.07326,-2.721798 l 4.69945,3.645256 -0.55035,-0.550354 z m 102.082657,0.0026 -4.14497,3.215307 -0.55087,0.550871 4.69584,-3.642671 a 67.73333,67.73333 0 0 1 2.17661,2.632397 l 0.0589,-0.05219 a 67.73333,67.73333 0 0 0 -2.23552,-2.703711 z m 2.69441,3.291789 -4.30413,2.925402 -0.61185,0.538986 4.91598,-3.340882 a 67.73333,67.73333 0 0 1 2.00607,2.758488 l 0.0574,-0.04444 a 67.73333,67.73333 0 0 0 -2.06344,-2.837552 z m -107.342807,0.08423 a 67.73333,67.73333 0 0 0 -2.10736,2.814815 l 0.0584,0.04547 a 67.73333,67.73333 0 0 1 2.04897,-2.736784 l 4.79144,3.256649 -0.61185,-0.539502 z m 109.836187,3.364135 -4.45709,2.636015 -0.67076,0.520381 5.12785,-3.032889 a 67.73333,67.73333 0 0 1 1.82728,2.872693 l 0.0548,-0.03721 a 67.73333,67.73333 0 0 0 -1.88206,-2.958993 z m -112.384867,0.04031 a 67.73333,67.73333 0 0 0 -1.8525995,2.985347 l 0.0537,0.03669 a 67.73333,67.73333 0 0 1 1.7988595,-2.898531 l 5.05964,2.992582 -0.67076,-0.519864 z m 114.635377,3.568774 -4.57233,2.329574 -0.72657,0.494026 5.2989,-2.700093 a 67.73333,67.73333 0 0 1 1.63659,2.982247 l 0.0512,-0.03049 a 67.73333,67.73333 0 0 0 -1.68775,-3.075264 z M 9.3720235,33.642412 a 67.73333,67.73333 0 0 0 -1.68569,3.086116 l 0.0512,0.02997 a 67.73333,67.73333 0 0 1 1.63453,-2.992582 l 5.1826295,2.640665 -0.72606,-0.49351 z m 118.8625065,3.682462 -4.67465,2.022616 -0.77825,0.460437 5.4529,-2.359546 a 67.73333,67.73333 0 0 1 1.44694,3.074748 l 0.047,-0.02377 A 67.73333,67.73333 0 0 0 128.2345,37.324875 Z M 7.3364835,37.369834 a 67.73333,67.73333 0 0 0 -1.55959,3.149162 l 0.0491,0.0248 a 67.73333,67.73333 0 0 1 1.5105,-3.050459 l 5.3485095,2.314587 -0.77876,-0.460437 z m 122.6948365,3.811654 -4.77077,1.717724 -0.8263,0.421163 5.59707,-2.015381 a 67.73333,67.73333 0 0 1 1.2516,3.154846 l 0.0419,-0.01809 a 67.73333,67.73333 0 0 0 -1.29346,-3.260266 z M 5.5185135,41.211458 a 67.73333,67.73333 0 0 0 -1.22887,3.293856 l 0.0398,0.01705 a 67.73333,67.73333 0 0 1 1.18908,-3.187402 l 5.5143895,1.985408 -0.82631,-0.421163 z m 126.0641365,3.931543 -4.84984,1.409216 -0.86919,0.376204 5.71903,-1.661914 a 67.73333,67.73333 0 0 1 1.04489,3.227194 l 0.0357,-0.01292 a 67.73333,67.73333 0 0 0 -1.08055,-3.33778 z M 4.0353935,45.186921 a 67.73333,67.73333 0 0 0 -1.22886,3.294372 l 0.0408,0.01447 a 67.73333,67.73333 0 0 1 1.18804,-3.185336 l 5.56866,1.617989 -0.86869,-0.375687 z m 128.8267665,4.013191 -4.89428,1.09399 -0.90537,0.326079 5.79965,-1.296562 a 67.73333,67.73333 0 0 1 0.84232,3.283004 l 0.0295,-0.0088 a 67.73333,67.73333 0 0 0 -0.87178,-3.397726 z m -130.2390765,0.0041 a 67.73333,67.73333 0 0 0 -0.74724,3.435449 l 0.0253,0.0072 a 67.73333,67.73333 0 0 1 0.72192,-3.319177 l 5.78156,1.292428 -0.90486,-0.325562 z m 131.2741465,4.121712 -4.93509,0.781864 -0.93483,0.271301 5.86992,-0.929659 a 67.73333,67.73333 0 0 1 0.63562,3.327446 l 0.0227,-0.0052 a 67.73333,67.73333 0 0 0 -0.65836,-3.445784 z M 1.7213235,53.349677 a 67.73333,67.73333 0 0 0 -0.74775,3.436483 l 0.0258,0.0057 a 67.73333,67.73333 0 0 1 0.72192,-3.31866 l 5.718,0.905887 -0.93534,-0.271818 z m 132.9624265,4.157886 -4.97127,0.470255 -0.95757,0.213941 5.92884,-0.56069 a 67.73333,67.73333 0 0 1 0.4284,3.358452 l 0.0155,-0.0026 a 67.73333,67.73333 0 0 0 -0.4439,-3.479374 z m -133.8677965,0.0031 a 67.73333,67.73333 0 0 0 -0.33538,3.499011 l 0.0119,0.0021 a 67.73333,67.73333 0 0 1 0.32349,-3.377571 l 5.89577,0.557589 -0.9586,-0.213941 z m 134.3716465,4.221448 -4.97283,0.156579 -0.97307,0.153996 5.9459,-0.187068 a 67.73333,67.73333 0 0 1 0.2098,3.378088 l 0.008,-5.17e-4 a 67.73333,67.73333 0 0 0 -0.21755,-3.501078 z m -134.7586965,0.0047 a 67.73333,67.73333 0 0 0 -0.25115,3.507796 l 0.009,0.001 a 67.73333,67.73333 0 0 1 0.24237,-3.385323 l 5.79654,0.182418 -0.97358,-0.153996 z m 4.57181,4.087089 -4.87516,0.152962 a 67.73333,67.73333 0 0 0 -0.12557,1.756482 67.73333,67.73333 0 0 0 0.005,0.0615 67.73333,67.73333 0 0 1 0.12092,-1.69447 l 5.85649,-0.183968 z m 125.4652065,0 -0.9803,0.0925 5.93814,0.186551 a 67.73333,67.73333 0 0 1 0.0408,1.661914 67.73333,67.73333 0 0 0 0.002,-0.03152 67.73333,67.73333 0 0 0 -0.0429,-1.753898 z m -125.4652065,3.942395 -4.82296,0.455786 a 67.73333,67.73333 0 0 0 0.009,0.122473 l 5.79551,-0.547253 z m 125.4657265,0 -0.98134,0.03101 5.795,0.547253 a 67.73333,67.73333 0 0 0 0.009,-0.122473 z m -124.2409965,3.904154 -0.97307,0.03049 -4.7718,0.756026 a 67.73333,67.73333 0 0 0 0.0119,0.12144 z m 123.0162565,0 5.73247,0.907438 a 67.73333,67.73333 0 0 0 0.0119,-0.121439 l -4.77077,-0.75551 z m -122.5299765,3.851445 -0.9586,0.09043 -4.77904,1.068152 a 67.73333,67.73333 0 0 0 0.0258,0.117822 z m 122.0431865,0 5.7118,1.276407 a 67.73333,67.73333 0 0 0 0.0258,-0.117822 l -4.77904,-1.068152 z m -121.3155865,3.81217 -0.93534,0.148311 -4.62814,1.344104 a 67.73333,67.73333 0 0 0 0.0253,0.116272 z m 120.5879865,0 5.53816,1.608687 a 67.73333,67.73333 0 0 0 0.0253,-0.116272 l -4.62814,-1.344104 z m -119.6226665,3.758944 -0.90486,0.202054 -4.69325,1.68982 a 67.73333,67.73333 0 0 0 0.0408,0.109037 z m 118.6578665,0 5.55677,2.000394 a 67.73333,67.73333 0 0 0 0.0408,-0.109037 l -4.69222,-1.688786 z m -117.4584565,3.691764 -0.86869,0.252181 -4.44572,1.923913 a 67.73333,67.73333 0 0 0 0.0398,0.106454 z m 116.2590465,0 5.2741,2.282548 a 67.73333,67.73333 0 0 0 0.0398,-0.106454 l -4.44521,-1.923913 z m -114.830197,3.608565 -0.82631,0.297656 -4.4296995,2.25671 a 67.73333,67.73333 0 0 0 0.0491,0.0987 z m 113.401347,0 5.2064,2.653068 a 67.73333,67.73333 0 0 0 0.0491,-0.0987 l -4.42919,-2.25671 z m -111.749257,3.51193 -0.77876,0.336931 -4.2198995,2.495455 a 67.73333,67.73333 0 0 0 0.0512,0.09353 z m 110.096637,0 4.94751,2.92592 a 67.73333,67.73333 0 0 0 0.0512,-0.09353 l -4.2199,-2.495455 z m -108.226977,3.401343 -0.72657,0.37052 -4.1056995,2.78949 a 67.73333,67.73333 0 0 0 0.0538,0.0868 z m 106.357327,0 4.77852,3.24683 a 67.73333,67.73333 0 0 0 0.0537,-0.0868 l -4.10569,-2.789494 z m -104.276837,3.2768 -0.67076,0.39636 -3.94756,3.06234 a 67.73333,67.73333 0 0 0 0.0584,0.078 z m 102.196857,0 4.55942,3.53622 a 67.73333,67.73333 0 0 0 0.0584,-0.078 l -3.94756,-3.06183 z m -99.916377,3.13986 -0.61133,0.41548 -3.74396,3.30058 a 67.73333,67.73333 0 0 0 0.0563,0.0739 z m 97.634867,0 4.29948,3.79047 a 67.73333,67.73333 0 0 0 0.0563,-0.0739 l -3.74396,-3.30058 z m -95.161117,2.99052 -0.55035,0.42684 -3.622,3.62201 a 67.73333,67.73333 0 0 0 0.062,0.0615 z m 92.687367,0 4.11086,4.11034 a 67.73333,67.73333 0 0 0 0.062,-0.0615 l -3.62148,-3.62148 z m -90.030157,2.82929 -0.48886,0.43098 -3.34037,3.78891 a 67.73333,67.73333 0 0 0 0.0579,0.0579 z m 87.372957,0 3.77134,4.27777 a 67.73333,67.73333 0 0 0 0.0579,-0.0579 l -3.34036,-3.78892 z m -84.543157,2.6572 -0.42685,0.42685 -3.21841,4.1491 a 67.73333,67.73333 0 0 0 0.0605,0.046 z m 81.714387,0 3.58479,4.62142 a 67.73333,67.73333 0 0 0 0.0605,-0.046 l -3.21789,-4.14807 z m -78.724397,2.47427 -0.36638,0.41599 -2.89026,4.25194 a 67.73333,67.73333 0 0 0 0.0558,0.0418 z m 75.733367,0 3.20084,4.70978 a 67.73333,67.73333 0 0 0 0.0558,-0.0418 l -2.89027,-4.25194 z m -72.592987,2.28099 -0.30747,0.39636 -2.68459,4.53926 a 67.73333,67.73333 0 0 0 0.0532,0.0331 z m 69.453647,0 2.93883,4.96869 a 67.73333,67.73333 0 0 0 0.0532,-0.0331 l -2.68459,-4.53926 z m -66.176327,2.07998 -0.25166,0.37 -2.38952,4.68964 a 67.73333,67.73333 0 0 0 0.0491,0.0269 z m 62.899003,0 2.592094,5.08651 a 67.73333,67.73333 0 0 0 0.0491,-0.0269 l -2.389522,-4.68912 z m -59.497663,1.86965 -0.19947,0.33745 -2.11563,4.88807 a 67.73333,67.73333 0 0 0 0.0439,0.0217 z m 56.09632,0 2.271179,5.24671 a 67.73333,67.73333 0 0 0 0.04393,-0.0217 l -2.115633,-4.88756 z m -52.5849,1.65261 -0.15141,0.29766 -1.834,5.09271 a 67.73333,67.73333 0 0 0 0.0393,0.0145 z m 49.073487,0 1.946134,5.40484 a 67.73333,67.73333 0 0 0 0.03927,-0.0145 l -1.83348,-5.09271 z m -45.464407,1.42834 -0.10904,0.25218 -1.50895,5.19297 a 67.73333,67.73333 0 0 0 0.0326,0.0119 z m 41.855325,0 1.585432,5.45703 a 67.73333,67.73333 0 0 0 0.03256,-0.0119 l -1.508952,-5.19297 z m -38.164595,1.19993 -0.0729,0.20257 -1.21957,5.45445 a 67.73333,67.73333 0 0 0 0.0264,0.006 z m 34.473347,0 1.266073,5.6627 a 67.73333,67.73333 0 0 0 0.02635,-0.006 l -1.219564,-5.45445 z m -30.714407,0.9648 -0.0429,0.14831 -0.863,5.44618 a 67.73333,67.73333 0 0 0 0.0191,0.004 z m 26.954947,0 0.886767,5.59862 a 67.73333,67.73333 0 0 0 0.01912,-0.004 l -0.862996,-5.44618 z m -23.141737,0.7276 -0.0202,0.0904 -0.53743,5.68183 a 67.73333,67.73333 0 0 0 0.0114,0.001 z m 19.329566,0 0.54622,5.77277 a 67.73333,67.73333 0 0 0 0.01137,-0.001 l -0.537435,-5.68131 z m -15.479156,0.48576 -0.005,0.0305 -0.17777,5.64306 a 67.73333,67.73333 0 0 0 0.004,5.2e-4 z m 11.628745,0 0.178284,5.67407 a 67.73333,67.73333 0 0 0 0.0041,-5.2e-4 l -0.177767,-5.64306 z" />
    </g>
    <circle
       style="display:inline;fill:#1a1a1a;stroke-width:3.175;stroke-linecap:round;stroke-linejoin:round;stroke-miterlimit:1;paint-order:markers stroke fill"
       id="path1"
       cx="67.73333"
       cy="67.73333"
       r="66.690926" />
    <circle
       style="display:inline;fill:#1a1a1a;stroke:#000000;stroke-width:3.175;stroke-linecap:round;stroke-linejoin:round;stroke-miterlimit:1;stroke-opacity:1;paint-order:markers stroke fill"
       id="circle2"
       cx="67.73333"
       cy="67.73333"
       r="59.34362" />
    <circle
       style="display:inline;opacity:0.6;fill:url(#radialGradient29);stroke:none;stroke-width:3.17501;stroke-linecap:round;stroke-linejoin:round;stroke-miterlimit:1;stroke-dasharray:none;stroke-opacity:1;paint-order:fill markers stroke"
       id="path28"
       cx="67.73333"
       cy="67.73333"
       r="54.967918" />
    <path
       style="display:inline;fill:url(#radialGradient4);stroke-width:1;stroke-linecap:round;stroke-linejoin:round;stroke-miterlimit:1;paint-order:fill markers stroke"
       d="M 20.964907,67.733332 A 46.768426,46.768426 0 0 0 67.733332,114.50176 46.768426,46.768426 0 0 0 114.50176,67.733332 46.768426,46.768426 0 0 0 67.733332,20.964907 46.768426,46.768426 0 0 0 20.964907,67.733332 Z"
       id="path18" />
    <path
       style="display:inline;opacity:0.1;fill:url(#radialGradient26);stroke-width:1;stroke-linecap:round;stroke-linejoin:round;stroke-miterlimit:1;paint-order:fill markers stroke"
       d="m 67.732374,35.697927 c -17.674304,0 -32.03445,14.362069 -32.03445,32.03637 0,17.674301 14.360146,32.034441 32.03445,32.034441 17.674295,0 32.036374,-14.36014 32.036374,-32.034441 0,-17.674301 -14.362079,-32.03637 -32.036374,-32.03637 z m 0,3.126906 c 15.984812,0 28.909456,12.924653 28.909456,28.909464 0,15.984811 -12.924644,28.909464 -28.909456,28.909464 -15.984812,0 -28.909465,-12.924653 -28.909465,-28.909464 0,-15.984811 12.924653,-28.909463 28.909465,-28.909464 z"
       id="path25"
       inkscape:label="light-ring" />
    <g
       id="g17"
       transform="matrix(0.98461022,0,0,0.98461022,-169.35854,23.649404)"
       style="display:inline;opacity:0.4;mix-blend-mode:normal;stroke-width:1.01563;filter:url(#filter17)"
       inkscape:label="color-fade-gy"
       clip-path="url(#clipPath20)">
      <path
         id="rect12"
         style="display:inline;opacity:1;mix-blend-mode:normal;fill:#55ff99;stroke-width:4.2995;stroke-linecap:round;stroke-linejoin:round;stroke-miterlimit:1;paint-order:fill markers stroke;filter:url(#filter17)"
         inkscape:transform-center-x="33.866669"
         inkscape:transform-center-y="-33.866669"
         d="M 225.15008,0.04237467 A 47.499432,47.499432 0 0 0 196.0671,29.125354 l 44.7306,15.647623 z"
         clip-path="none" />
      <path
         id="path13"
         style="display:inline;opacity:1;mix-blend-mode:normal;fill:#d38d5f;stroke-width:4.2995;stroke-linecap:round;stroke-linejoin:round;stroke-miterlimit:1;paint-order:fill markers stroke;filter:url(#filter17)"
         inkscape:transform-center-x="-33.866671"
         inkscape:transform-center-y="33.866667"
         d="M 240.7977,44.772977 256.44533,89.50358 A 47.499432,47.499432 0 0 0 285.5283,60.420601 Z"
         clip-path="none" />
    </g>
    <g
       id="g27"
       transform="matrix(0,0.98461022,-0.98461022,0,111.81727,-169.35854)"
       style="display:inline;opacity:0.2;mix-blend-mode:normal;stroke-width:1.01563;filter:url(#filter17)"
       inkscape:label="color-fade-rb"
       clip-path="url(#clipPath20)">
      <path
         id="path26"
         style="display:inline;opacity:1;fill:#041887;fill-opacity:1;stroke-width:4.2995;stroke-linecap:round;stroke-linejoin:round;stroke-miterlimit:1;paint-order:fill markers stroke"
         inkscape:transform-center-x="33.866669"
         inkscape:transform-center-y="-33.866669"
         d="M 225.15008,0.04237467 A 47.499432,47.499432 0 0 0 196.0671,29.125354 l 44.7306,15.647623 z"
         clip-path="none" />
      <path
         id="path27"
         style="display:inline;opacity:1;fill:#a41004;fill-opacity:1;stroke-width:4.2995;stroke-linecap:round;stroke-linejoin:round;stroke-miterlimit:1;paint-order:fill markers stroke"
         inkscape:transform-center-x="-33.866671"
         inkscape:transform-center-y="33.866667"
         d="M 240.7977,44.772977 256.44533,89.50358 A 47.499432,47.499432 0 0 0 285.5283,60.420601 Z"
         clip-path="none" />
    </g>
    <circle
       style="display:inline;fill:#000000;stroke:none;stroke-width:4.23333;stroke-linecap:round;stroke-linejoin:round;stroke-miterlimit:1;stroke-dasharray:none;stroke-opacity:1;paint-order:fill markers stroke"
       id="path22"
       cx="67.73333"
       cy="67.73333"
       r="7.8929048"
       inkscape:label="dead-center" />
    <g
       id="g19"
       inkscape:label="ring"
       style="display:inline;stroke-width:1.01563"
       transform="matrix(0,-0.98461021,0.98461021,0,1.0424052,134.42433)">
      <path
         style="fill:url(#linearGradient6);stroke-width:1.01563;stroke-linecap:round;stroke-linejoin:round;stroke-miterlimit:1;paint-order:fill markers stroke"
         d="m 67.732422,18.117187 c 27.377142,0 49.617188,22.238093 49.617188,49.615235 0,27.377142 -22.240046,49.617188 -49.617188,49.617188 -27.377142,0 -49.615235,-22.240046 -49.615235,-49.617188 10e-7,-27.377142 22.238093,-49.615235 49.615235,-49.615235 z m 0,4.232422 c -25.089281,0 -45.382813,20.293532 -45.382813,45.382813 0,25.089281 20.293532,45.382808 45.382813,45.382808 25.089281,0 45.382808,-20.293527 45.382808,-45.382808 0,-25.089281 -20.293527,-45.382813 -45.382808,-45.382813 z"
         id="path19" />
      <path
         style="display:inline;opacity:0.86;mix-blend-mode:multiply;fill:url(#radialGradient9);stroke:none;stroke-width:1.01563;stroke-linecap:round;stroke-linejoin:round;stroke-miterlimit:1;paint-order:fill markers stroke"
         d="m 67.73235,18.117118 c 27.37714,0 49.61719,22.238092 49.61719,49.615234 0,27.377143 -22.24005,49.617188 -49.61719,49.617188 -27.37714,0 -49.61523,-22.240045 -49.61523,-49.617188 0,-27.377142 22.23809,-49.615234 49.61523,-49.615234 z m 0,4.232422 c -25.08928,0 -45.38281,20.293531 -45.38281,45.382812 0,25.089281 20.29353,45.382808 45.38281,45.382808 25.08928,0 45.38281,-20.293527 45.38281,-45.382808 0,-25.089281 -20.29353,-45.382812 -45.38281,-45.382812 z"
         id="path8" />
    </g>
    <path
       id="path29"
       style="display:inline;opacity:0.328081;fill:none;fill-opacity:1;stroke-width:3.175;stroke-linecap:round;stroke-linejoin:round;stroke-miterlimit:1;paint-order:fill markers stroke"
       d="M 67.733339,123.45604 A 55.722707,55.722707 0 0 1 12.010624,67.733341 55.722707,55.722707 0 0 1 67.733339,12.010628 55.722707,55.722707 0 0 1 123.45605,67.733341 55.722707,55.722707 0 0 1 67.733339,123.45604 Z" />
    <path
       id="path31"
       style="display:inline;opacity:0.2;fill:url(#linearGradient31);stroke-width:1;stroke-linecap:round;stroke-linejoin:round;stroke-miterlimit:1;paint-order:markers stroke fill"
       d="M 67.733334,1.0424047 A 66.690928,66.690928 0 0 0 1.0424067,67.733335 66.690928,66.690928 0 0 0 67.733334,134.42426 66.690928,66.690928 0 0 0 134.42426,67.733335 66.690928,66.690928 0 0 0 67.733334,1.0424047 Z m 0,1.5630687 c 35.987636,0 65.126846,29.1412426 65.126846,65.1288806 0,35.987636 -29.13921,65.126326 -65.126846,65.126326 -35.987631,0 -65.1283706,-29.13869 -65.1283706,-65.126326 0,-35.987638 29.1407396,-65.1288806 65.1283706,-65.1288806 z" />
    <g
       id="g39"
       transform="matrix(0.89271257,0,0,0.89271257,-176.80213,14.423166)"
       style="display:inline;opacity:0.22;stroke-width:1.12018">
      <circle
         style="fill:none;stroke:#000000;stroke-width:0.296382;stroke-linecap:round;stroke-linejoin:round;stroke-miterlimit:1;stroke-dasharray:none;stroke-opacity:1;paint-order:fill markers stroke"
         id="circle37"
         cx="273.92407"
         cy="59.717056"
         r="65.352081" />
      <circle
         style="fill:none;stroke:#000000;stroke-width:0.296382;stroke-linecap:round;stroke-linejoin:round;stroke-miterlimit:1;stroke-dasharray:none;stroke-opacity:1;paint-order:fill markers stroke"
         id="circle38"
         cx="273.92407"
         cy="59.717056"
         r="62.737995" />
      <circle
         style="fill:none;stroke:#000000;stroke-width:0.296382;stroke-linecap:round;stroke-linejoin:round;stroke-miterlimit:1;stroke-dasharray:none;stroke-opacity:1;paint-order:fill markers stroke"
         id="circle39"
         cx="273.92407"
         cy="59.717056"
         r="64.045036" />
    </g>
    <path
       id="circle33"
       style="display:inline;opacity:0.382815;fill:url(#radialGradient37);stroke-width:1;stroke-linecap:round;stroke-linejoin:round;stroke-miterlimit:1;paint-order:markers stroke fill"
       d="M 67.733331,6.7736578 A 60.959606,60.959606 0 0 0 6.7736579,67.733336 60.959606,60.959606 0 0 0 67.733331,128.69301 60.959606,60.959606 0 0 0 128.69301,67.733336 60.959606,60.959606 0 0 0 67.733331,6.7736578 Z m -9.8e-4,1.4232218 c 32.900589,0 59.537519,26.6364304 59.537519,59.5369794 0,32.900551 -26.63693,59.537491 -59.537519,59.537491 -32.900559,0 -59.5364603,-26.63694 -59.5364603,-59.537491 0,-32.900549 26.6359013,-59.5369794 59.5364603,-59.5369794 z" />
    <path
       id="path46"
       style="display:inline;opacity:0.4;fill:#000000;fill-opacity:1;stroke:url(#linearGradient48);stroke-width:0.105833;stroke-linecap:round;stroke-linejoin:round;stroke-miterlimit:1;stroke-dasharray:none;stroke-opacity:0.28;paint-order:markers stroke fill"
       d="m 67.733079,2.9103852 a 64.822609,64.822609 0 0 0 -0.03415,0.00253 l -0.06982,3.1066473 a 61.721076,61.721076 0 0 1 0.103973,-0.00759 61.721076,61.721076 0 0 1 0.103975,0.00253 l -0.06981,-3.10313 a 64.822609,64.822609 0 0 0 -0.03415,-9.72e-4 z m 2.873085,0.070819 -0.20845,3.0960992 a 61.721076,61.721076 0 0 1 0.207948,0.00506 l 0.06932,-3.0996159 a 64.822609,64.822609 0 0 0 -0.06882,-0.00146 z m -5.737629,0.1341106 a 64.822609,64.822609 0 0 0 -0.07484,0.00554 l 0.06932,3.0966018 a 61.721076,61.721076 0 0 1 0.213471,-0.015571 z m 8.639844,0.064793 -0.347581,3.0835422 a 61.721076,61.721076 0 0 1 0.207947,0.015065 l 0.208449,-3.0935886 a 64.822609,64.822609 0 0 0 -0.06882,-0.00506 z M 61.973851,3.3222542 a 64.822609,64.822609 0 0 0 -0.07534,0.00554 l 0.207948,3.0865563 a 61.721076,61.721076 0 0 1 0.213974,-0.015065 z M 76.39804,3.5075983 75.912829,6.5720536 a 61.721076,61.721076 0 0 1 0.206943,0.025621 l 0.34708,-3.0815331 a 64.822609,64.822609 0 0 0 -0.06882,-0.00856 z m -17.326404,0.022599 a 64.822609,64.822609 0 0 0 -0.07032,0.00506 l 0.346578,3.07651 a 61.721076,61.721076 0 0 1 0.20945,-0.015069 z m 20.198985,0.4334742 -0.622334,3.0388387 a 61.721076,61.721076 0 0 1 0.205436,0.035662 l 0.485209,-3.0624463 a 64.822609,64.822609 0 0 0 -0.06831,-0.012053 z M 56.217136,4.0686497 a 64.822609,64.822609 0 0 0 -0.07232,0.015571 l 0.484707,3.0609397 a 61.721076,61.721076 0 0 1 0.20845,-0.045712 z m 25.901957,0.478177 -0.757952,3.0076972 a 61.721076,61.721076 0 0 1 0.203427,0.045712 l 0.622333,-3.038337 a 64.822609,64.822609 0 0 0 -0.06781,-0.015066 z M 53.381723,4.685458 a 64.822609,64.822609 0 0 0 -0.07383,0.016077 l 0.620827,3.0313038 a 61.721076,61.721076 0 0 1 0.209453,-0.045702 z m 31.557714,0.5705992 -0.892064,2.9705274 a 61.721076,61.721076 0 0 1 0.200916,0.055251 L 85.00624,5.2746412 a 64.822609,64.822609 0 0 0 -0.06681,-0.018585 z m -34.399152,0.047715 a 64.822609,64.822609 0 0 0 -0.06982,0.015065 l 0.756446,3.0016697 a 61.721076,61.721076 0 0 1 0.205936,-0.044704 z m 37.185339,0.786582 -1.024163,2.9268288 a 61.721076,61.721076 0 0 1 0.197901,0.065297 l 0.892062,-2.9705273 a 64.822609,64.822609 0 0 0 -0.06581,-0.021597 z m -39.956962,0.08087 a 64.822609,64.822609 0 0 0 -0.06882,0.025611 l 0.89156,2.9690209 a 61.721076,61.721076 0 0 1 0.199408,-0.073836 z m 42.702967,0.8759892 -1.154255,2.8781069 a 61.721076,61.721076 0 0 1 0.194384,0.074841 L 90.536425,7.072328 A 64.822609,64.822609 0 0 0 90.471635,7.047212 Z M 45.049781,7.1853415 a 64.822609,64.822609 0 0 0 -0.07132,0.026623 l 1.022155,2.9202995 a 61.721076,61.721076 0 0 1 0.200914,-0.07484 z m 48.12315,0.9402821 -1.282338,2.8233574 a 61.721076,61.721076 0 0 1 0.190366,0.08438 L 93.23622,8.1537471 a 64.822609,64.822609 0 0 0 -0.06329,-0.028128 z m -50.845548,0.074841 a 64.822609,64.822609 0 0 0 -0.06831,0.025616 L 43.41132,11.09816 a 61.721076,61.721076 0 0 1 0.198404,-0.07434 z m 53.496119,1.1226125 -1.40741,2.7625819 a 61.721076,61.721076 0 0 1 0.185848,0.09393 l 1.283344,-2.825368 a 64.822609,64.822609 0 0 0 -0.06178,-0.031142 z m -56.149201,0.062787 a 64.822609,64.822609 0 0 0 -0.06329,0.034658 l 1.282844,2.8238589 a 61.721076,61.721076 0 0 1 0.185344,-0.100959 z m 58.744017,1.2516999 -1.529966,2.69678 a 61.721076,61.721076 0 0 1 0.180822,0.102467 l 1.408917,-2.765594 a 64.822609,64.822609 0 0 0 -0.05977,-0.03365 z m -61.29162,0.139134 a 64.822609,64.822609 0 0 0 -0.06681,0.03667 l 1.404897,2.757557 a 61.721076,61.721076 0 0 1 0.18886,-0.102968 z m 63.823142,1.294393 -1.651516,2.627968 a 61.721076,61.721076 0 0 1 0.180827,0.103472 l 1.530469,-2.697284 a 64.822609,64.822609 0 0 0 -0.0598,-0.03415 z m -66.37225,0.09744 a 64.822609,64.822609 0 0 0 -0.06479,0.03566 l 1.526953,2.690753 a 61.721076,61.721076 0 0 1 0.186851,-0.101965 z m 68.83245,1.453618 -1.76704,2.550617 a 61.721076,61.721076 0 0 1 0.1758,0.111507 l 1.64952,-2.625456 a 64.822609,64.822609 0 0 0 -0.0583,-0.03666 z m -71.330827,0.03365 a 64.822609,64.822609 0 0 0 -0.05675,0.04269 l 1.651521,2.62847 a 61.721076,61.721076 0 0 1 0.168265,-0.126072 z m 73.719717,1.624901 -1.87957,2.46824 a 61.721076,61.721076 0 0 1 0.17077,0.120549 l 1.76555,-2.548606 a 64.822609,64.822609 0 0 0 -0.0567,-0.04018 z m -76.044304,0.115526 a 64.822609,64.822609 0 0 0 -0.06027,0.04521 l 1.76303,2.544588 a 61.721076,61.721076 0 0 1 0.17128,-0.128587 z m 78.357344,1.648004 -1.98807,2.381346 a 61.721076,61.721076 0 0 1 0.16425,0.12758 l 1.87806,-2.466231 a 64.822609,64.822609 0 0 0 -0.0542,-0.04269 z m -80.681426,0.09141 a 64.822609,64.822609 0 0 0 -0.05978,0.04521 l 1.874039,2.461219 a 61.721076,61.721076 0 0 1 0.171278,-0.128082 z m -2.310522,1.771079 a 64.822609,64.822609 0 0 0 -0.04873,0.04873 l 1.990565,2.384359 a 61.721076,61.721076 0 0 1 0.147171,-0.147171 z m 85.224098,0.0016 -2.09252,2.289426 a 61.721076,61.721076 0 0 1 0.15822,0.136622 l 1.98704,-2.38034 a 64.822609,64.822609 0 0 0 -0.0527,-0.04572 z m 2.14678,1.961935 -2.193,2.192986 a 61.721076,61.721076 0 0 1 0.1512,0.143656 l 2.09202,-2.288925 a 64.822609,64.822609 0 0 0 -0.0503,-0.04772 z m -89.425234,0.0909 a 64.822609,64.822609 0 0 0 -0.05274,0.05274 l 2.089516,2.28591 a 61.721076,61.721076 0 0 1 0.150686,-0.151188 z m 91.482594,1.963944 -2.28892,2.092028 a 61.721076,61.721076 0 0 1 0.14416,0.151187 l 2.19299,-2.192987 a 64.822609,64.822609 0 0 0 -0.0482,-0.05023 z m -93.534438,0.0879 a 64.822609,64.822609 0 0 0 -0.05324,0.05324 l 2.18746,2.187461 a 61.721076,61.721076 0 0 1 0.151694,-0.15119 z m 95.498888,2.056864 -2.38034,1.987051 a 61.721076,61.721076 0 0 1 0.13613,0.157717 l 2.28942,-2.09253 a 64.822609,64.822609 0 0 0 -0.0452,-0.05223 z m -97.557262,0.0015 a 64.822609,64.822609 0 0 0 -0.04922,0.04923 l 2.28591,2.089514 a 61.721076,61.721076 0 0 1 0.147672,-0.147672 z m 99.424272,2.228147 -2.46723,1.878555 a 61.721076,61.721076 0 0 1 0.12858,0.164247 l 2.38135,-1.988052 a 64.822609,64.822609 0 0 0 -0.0426,-0.05475 z m -101.199356,0.07178 a 64.822609,64.822609 0 0 0 -0.0447,0.05977 l 2.378331,1.98554 a 61.721076,61.721076 0 0 1 0.128083,-0.170777 z m 102.965396,2.239195 -2.54861,1.766044 a 61.721076,61.721076 0 0 1 0.11955,0.169773 l 2.46874,-1.879559 a 64.822609,64.822609 0 0 0 -0.0397,-0.05626 z m -104.704315,0.08388 a 64.822609,64.822609 0 0 0 -0.04521,0.06027 l 2.461711,1.874035 a 61.721076,61.721076 0 0 1 0.128083,-0.171279 z m 106.365885,2.303492 -2.62546,1.64951 a 61.721076,61.721076 0 0 1 0.11151,0.175802 L 121.844,32.05612 a 64.822609,64.822609 0 0 0 -0.0367,-0.05826 z m -108.108821,0.02512 a 64.822609,64.822609 0 0 0 -0.04269,0.05676 l 2.544587,1.763027 a 61.721076,61.721076 0 0 1 0.126075,-0.168266 z m 109.662391,2.434085 -2.69677,1.53047 a 61.721076,61.721076 0 0 1 0.10296,0.180322 l 2.62796,-1.651019 a 64.822609,64.822609 0 0 0 -0.0341,-0.05978 z m -111.157199,0.05626 a 64.822609,64.822609 0 0 0 -0.03516,0.06479 l 2.624451,1.649009 a 61.721076,61.721076 0 0 1 0.101965,-0.186851 z m 112.591229,2.47477 -2.7656,1.408917 a 61.721076,61.721076 0 0 1 0.10247,0.180823 l 2.69679,-1.529968 a 64.822609,64.822609 0 0 0 -0.0336,-0.05978 z m -113.981561,0.07231 a 64.822609,64.822609 0 0 0 -0.03667,0.0663 l 2.691258,1.526954 a 61.721076,61.721076 0 0 1 0.102469,-0.188356 z m 115.298561,2.52048 -2.82537,1.283343 a 61.721076,61.721076 0 0 1 0.0939,0.185847 l 2.76258,-1.407409 a 64.822609,64.822609 0 0 0 -0.0311,-0.06178 z M 9.4205261,39.611018 a 64.822609,64.822609 0 0 0 -0.034658,0.06379 l 2.7570559,1.404897 a 61.721076,61.721076 0 0 1 0.101462,-0.185846 z m 117.8918739,2.618926 -2.87962,1.155261 a 61.721076,61.721076 0 0 1 0.0844,0.190368 l 2.82335,-1.28234 a 64.822609,64.822609 0 0 0 -0.0281,-0.06329 z M 8.2260885,42.259078 a 64.822609,64.822609 0 0 0 -0.025622,0.06831 l 2.8233615,1.282338 a 61.721076,61.721076 0 0 1 0.07434,-0.198404 z m 120.1682415,2.670662 -2.92834,1.024666 a 61.721076,61.721076 0 0 1 0.0749,0.194385 l 2.8781,-1.154256 a 64.822609,64.822609 0 0 0 -0.0246,-0.0648 z M 7.2119734,44.978462 a 64.822609,64.822609 0 0 0 -0.026628,0.07132 l 2.8720816,1.151746 a 61.721076,61.721076 0 0 1 0.07484,-0.200916 z M 129.3542,47.67474 l -2.97054,0.892062 a 61.721076,61.721076 0 0 1 0.0654,0.197902 l 2.92732,-1.024164 a 64.822609,64.822609 0 0 0 -0.0221,-0.06581 z M 6.19684,47.700357 a 64.822609,64.822609 0 0 0 -0.02561,0.06831 l 2.9208004,1.022155 a 61.721076,61.721076 0 0 1 0.073836,-0.198906 z m 123.99467,2.759567 -3.0072,0.757951 a 61.721076,61.721076 0 0 1 0.0552,0.200916 l 2.97053,-0.892063 a 64.822609,64.822609 0 0 0 -0.0185,-0.06681 z M 5.3188446,50.470974 a 64.822609,64.822609 0 0 0 -0.015564,0.06982 l 2.9720286,0.892564 a 61.721076,61.721076 0 0 1 0.04521,-0.205937 z m 125.5854054,2.808289 -3.03834,0.622335 a 61.721076,61.721076 0 0 1 0.0457,0.203426 l 3.00769,-0.757951 a 64.822609,64.822609 0 0 0 -0.0151,-0.06781 z M 4.7015348,53.307893 a 64.822609,64.822609 0 0 0 -0.016068,0.07383 l 3.0016614,0.756445 a 61.721076,61.721076 0 0 1 0.045712,-0.209454 z m 126.7893852,2.819842 -3.06295,0.48521 a 61.721076,61.721076 0 0 1 0.0357,0.205435 l 3.03885,-0.622333 a 64.822609,64.822609 0 0 0 -0.0116,-0.06832 z M 4.0842249,56.145314 a 64.822609,64.822609 0 0 0 -0.015577,0.07232 l 3.0308039,0.620325 a 61.721076,61.721076 0 0 1 0.04521,-0.207947 z m 127.8657851,2.854501 -3.08153,0.34708 a 61.721076,61.721076 0 0 1 0.0257,0.206941 l 3.06446,-0.485209 a 64.822609,64.822609 0 0 0 -0.009,-0.06882 z m -128.4147899,0.0021 a 64.822609,64.822609 0 0 0 -0.00502,0.07032 l 3.0664588,0.485713 a 61.721076,61.721076 0 0 1 0.015074,-0.209455 z m 128.7457999,2.887147 -3.09359,0.208449 a 61.721076,61.721076 0 0 1 0.0151,0.207948 l 3.08354,-0.347584 a 64.822609,64.822609 0 0 0 -0.005,-0.06882 z m -128.953242,0.0095 a 64.822609,64.822609 0 0 0 -0.00552,0.07534 l 3.077007,0.346578 a 61.721076,61.721076 0 0 1 0.015071,-0.213975 z m 129.155662,2.892637 -3.09962,0.06932 a 61.721076,61.721076 0 0 1 0.005,0.207948 l 3.09611,-0.208451 a 64.822609,64.822609 0 0 0 -0.002,-0.06882 z m -129.362601,0.003 a 64.822609,64.822609 0 0 0 -0.00553,0.07484 l 3.0865618,0.207947 a 61.721076,61.721076 0 0 1 0.015564,-0.213471 z m 2.8986946,2.83491 -3.1066397,0.06982 a 64.822609,64.822609 0 0 0 -0.00252,0.03415 64.822609,64.822609 0 0 0 0.00252,0.03415 l 3.1066397,0.06982 a 61.721076,61.721076 0 0 1 -0.00754,-0.103974 61.721076,61.721076 0 0 1 0.00754,-0.103973 z m 123.4321064,0 a 61.721076,61.721076 0 0 1 0.003,0.103973 61.721076,61.721076 0 0 1 -0.008,0.103974 l 3.10665,-0.06982 a 64.822609,64.822609 0 0 0 0.003,-0.03415 64.822609,64.822609 0 0 0 -9.7e-4,-0.03415 z M 6.2018689,70.389683 3.1153071,70.59763 a 64.822609,64.822609 0 0 0 0.00553,0.07484 l 3.0965943,-0.06932 a 61.721076,61.721076 0 0 1 -0.015564,-0.213472 z m 123.0624111,0 a 61.721076,61.721076 0 0 1 -0.0156,0.213472 l 3.09661,0.06932 a 64.822609,64.822609 0 0 0 0.006,-0.07484 z M 6.3992658,73.145735 3.3222588,73.492313 a 64.822609,64.822609 0 0 0 0.00552,0.07534 l 3.0865593,-0.207945 a 61.721076,61.721076 0 0 1 -0.015074,-0.213973 z m 122.6676242,0 a 61.721076,61.721076 0 0 1 -0.0151,0.213973 l 3.08656,0.207947 a 64.822609,64.822609 0 0 0 0.006,-0.07534 z M 6.5966625,75.908817 3.5302038,76.394529 a 64.822609,64.822609 0 0 0 0.00502,0.07032 l 3.0765144,-0.34658 a 61.721076,61.721076 0 0 1 -0.015077,-0.20945 z m 122.2728275,0 a 61.721076,61.721076 0 0 1 -0.0151,0.209454 l 3.0765,0.346578 a 64.822609,64.822609 0 0 0 0.005,-0.07032 z M 7.0994518,78.628202 4.0686479,79.249028 a 64.822609,64.822609 0 0 0 0.015577,0.07232 l 3.0609396,-0.484705 a 61.721076,61.721076 0 0 1 -0.045712,-0.20845 z m 121.2672482,0 a 61.721076,61.721076 0 0 1 -0.0452,0.20845 l 3.06043,0.484705 a 64.822609,64.822609 0 0 0 0.0156,-0.07232 z M 7.6871289,81.327995 4.6854674,82.084441 a 64.822609,64.822609 0 0 0 0.016068,0.07384 l 3.0313068,-0.620828 a 61.721076,61.721076 0 0 1 -0.045712,-0.209455 z m 120.0923911,0 a 61.721076,61.721076 0 0 1 -0.0457,0.209958 l 3.03081,0.620325 a 64.822609,64.822609 0 0 0 0.0161,-0.07384 z M 8.2758118,84.033316 5.303783,84.925881 a 64.822609,64.822609 0 0 0 0.015062,0.06982 L 8.320519,84.239256 A 61.721076,61.721076 0 0 1 8.275812,84.033314 Z m 118.9150282,5.03e-4 a 61.721076,61.721076 0 0 1 -0.0447,0.205435 l 3.00117,0.756445 a 64.822609,64.822609 0 0 0 0.0151,-0.06982 z M 9.0920308,86.675349 6.1712304,87.697502 a 64.822609,64.822609 0 0 0 0.02561,0.06882 l 2.9690259,-0.89156 A 61.721076,61.721076 0 0 1 9.0920303,86.675356 Z M 126.37462,86.67585 a 61.721076,61.721076 0 0 1 -0.0744,0.198905 l 2.96902,0.891561 a 64.822609,64.822609 0 0 0 0.0257,-0.06882 z M 10.057427,89.264639 7.1853454,90.416886 a 64.822609,64.822609 0 0 0 0.026628,0.07132 l 2.9207966,-1.02215 a 61.721076,61.721076 0 0 1 -0.07534,-0.201417 z m 115.351303,5.02e-4 a 61.721076,61.721076 0 0 1 -0.0749,0.200915 l 2.92031,1.022155 a 64.822609,64.822609 0 0 0 0.0267,-0.07132 z M 11.023828,91.856442 8.2004663,93.138781 a 64.822609,64.822609 0 0 0 0.025622,0.06831 L 11.098166,92.05484 a 61.721076,61.721076 0 0 1 -0.07434,-0.198403 z m 113.418502,0 a 61.721076,61.721076 0 0 1 -0.0739,0.198907 l 2.87157,1.151743 a 64.822609,64.822609 0 0 0 0.0257,-0.06831 z M 12.143427,94.386966 9.3858682,95.791863 a 64.822609,64.822609 0 0 0 0.034658,0.06379 l 2.8243628,-1.282844 a 61.721076,61.721076 0 0 1 -0.101462,-0.185846 z m 111.179303,0 a 61.721076,61.721076 0 0 1 -0.10147,0.185846 l 2.82437,1.282842 a 64.822609,64.822609 0 0 0 0.0347,-0.06379 z m -109.854771,2.425547 -2.691257,1.526953 a 64.822609,64.822609 0 0 0 0.03617,0.06681 l 2.758059,-1.4054 a 61.721076,61.721076 0 0 1 -0.102972,-0.188357 z m 108.530231,0 a 61.721076,61.721076 0 0 1 -0.10296,0.188356 l 2.75805,1.405401 a 64.822609,64.822609 0 0 0 0.0362,-0.06681 z m -107.205198,2.427047 -2.624451,1.64901 a 64.822609,64.822609 0 0 0 0.03516,0.0649 l 2.691257,-1.526945 a 61.721076,61.721076 0 0 1 -0.101966,-0.186853 z m 105.880168,0 a 61.721076,61.721076 0 0 1 -0.10197,0.186853 l 2.69127,1.526957 a 64.822609,64.822609 0 0 0 0.0352,-0.0649 z m -104.472255,2.38436 -2.545091,1.76304 a 64.822609,64.822609 0 0 0 0.04269,0.0567 l 2.628469,-1.65152 A 61.721076,61.721076 0 0 1 16.2009,101.62387 Z m 103.064355,0 a 61.721076,61.721076 0 0 1 -0.12608,0.16827 l 2.62847,1.65152 a 64.822609,64.822609 0 0 0 0.0426,-0.0567 z m -101.407813,2.21308 -2.46171,1.87453 a 64.822609,64.822609 0 0 0 0.04571,0.0603 l 2.544588,-1.76301 a 61.721076,61.721076 0 0 1 -0.128581,-0.17179 z m 99.751253,0 a 61.721076,61.721076 0 0 1 -0.12857,0.17179 l 2.54459,1.76301 a 64.822609,64.822609 0 0 0 0.0457,-0.0603 z m -98.094708,2.21308 -2.378331,1.98554 a 64.822609,64.822609 0 0 0 0.0447,0.0598 l 2.461711,-1.87453 a 61.721076,61.721076 0 0 1 -0.128083,-0.17078 z m 96.438168,0 a 61.721076,61.721076 0 0 1 -0.12809,0.17078 l 2.46172,1.87454 a 64.822609,64.822609 0 0 0 0.0447,-0.0598 z m -94.760026,2.20604 -2.28591,2.08952 a 64.822609,64.822609 0 0 0 0.04922,0.0492 l 2.384358,-1.99057 a 61.721076,61.721076 0 0 1 -0.147672,-0.14818 z m 93.081886,5.1e-4 a 61.721076,61.721076 0 0 1 -0.14768,0.14768 l 2.38436,1.99056 a 64.822609,64.822609 0 0 0 0.0492,-0.0492 z m -91.125476,1.95641 -2.187463,2.18745 a 64.822609,64.822609 0 0 0 0.05274,0.0528 l 2.285909,-2.08952 a 61.721076,61.721076 0 0 1 -0.151187,-0.15068 z m 89.169066,0 a 61.721076,61.721076 0 0 1 -0.15119,0.15119 l 2.28591,2.08901 a 64.822609,64.822609 0 0 0 0.0528,-0.0528 z m -87.215168,1.95339 -2.089517,2.28591 a 64.822609,64.822609 0 0 0 0.05324,0.0532 l 2.187461,-2.18744 a 61.721076,61.721076 0 0 1 -0.151183,-0.1517 z m 85.261268,5.1e-4 a 61.721076,61.721076 0 0 1 -0.15119,0.15119 l 2.18746,2.18745 a 64.822609,64.822609 0 0 0 0.0527,-0.0527 z m -83.301846,1.95941 -1.990565,2.38437 a 64.822609,64.822609 0 0 0 0.04923,0.0492 l 2.089012,-2.28592 a 61.721076,61.721076 0 0 1 -0.147672,-0.14768 z m 81.342426,0 a 61.721076,61.721076 0 0 1 -0.14768,0.14768 l 2.08902,2.28592 a 64.822609,64.822609 0 0 0 0.0492,-0.0492 z m -79.159484,1.69774 -1.874034,2.46121 a 64.822609,64.822609 0 0 0 0.05978,0.0452 l 1.98554,-2.37833 a 61.721076,61.721076 0 0 1 -0.171278,-0.12809 z m 76.976044,5e-4 a 61.721076,61.721076 0 0 1 -0.17128,0.12759 l 1.98553,2.37833 a 64.822609,64.822609 0 0 0 0.0598,-0.0447 z m -74.763468,1.65555 -1.76303,2.54459 a 64.822609,64.822609 0 0 0 0.06027,0.0452 l 1.874036,-2.46122 a 61.721076,61.721076 0 0 1 -0.17128,-0.12857 z m 72.551398,0 a 61.721076,61.721076 0 0 1 -0.17129,0.12857 l 1.87403,2.46122 a 64.822609,64.822609 0 0 0 0.0603,-0.0452 z m -70.334302,1.65955 -1.651522,2.62797 a 64.822609,64.822609 0 0 0 0.05675,0.0426 l 1.763029,-2.54459 a 61.721076,61.721076 0 0 1 -0.168265,-0.12608 z m 68.117192,0 a 61.721076,61.721076 0 0 1 -0.16826,0.12607 l 1.76303,2.54459 a 64.822609,64.822609 0 0 0 0.0567,-0.0426 z m -65.751419,1.43152 -1.526953,2.69126 a 64.822609,64.822609 0 0 0 0.06479,0.0352 l 1.64901,-2.62446 a 61.721076,61.721076 0 0 1 -0.186852,-0.10196 z m 63.385656,0 a 61.721076,61.721076 0 0 1 -0.186854,0.10196 l 1.649007,2.62446 a 64.822609,64.822609 0 0 0 0.0649,-0.0352 z m -60.960612,1.32453 -1.4054,2.75755 a 64.822609,64.822609 0 0 0 0.06681,0.0362 l 1.526954,-2.69126 a 61.721076,61.721076 0 0 1 -0.188357,-0.10247 z m 58.535568,0 a 61.721076,61.721076 0 0 1 -0.188357,0.10247 l 1.526954,2.69126 a 64.822609,64.822609 0 0 0 0.06681,-0.0362 z m -56.107008,1.32605 -1.282844,2.82435 a 64.822609,64.822609 0 0 0 0.06379,0.0347 l 1.404896,-2.75756 a 61.721076,61.721076 0 0 1 -0.185845,-0.10145 z m 53.678448,0 a 61.721076,61.721076 0 0 1 -0.185844,0.10145 l 1.404896,2.75756 a 64.822609,64.822609 0 0 0 0.06379,-0.0347 z m -51.160984,1.14672 -1.152247,2.87208 a 64.822609,64.822609 0 0 0 0.06831,0.0251 l 1.28234,-2.82335 a 61.721076,61.721076 0 0 1 -0.198404,-0.0739 z m 48.643521,0 a 61.721076,61.721076 0 0 1 -0.198404,0.0739 l 1.28234,2.82335 a 64.822609,64.822609 0 0 0 0.06831,-0.0251 z m -46.054229,0.96539 -1.022155,2.9208 a 64.822609,64.822609 0 0 0 0.07132,0.0267 l 1.152247,-2.87257 a 61.721076,61.721076 0 0 1 -0.201417,-0.0749 z m 43.464937,0 a 61.721076,61.721076 0 0 1 -0.201417,0.0749 l 1.152247,2.87257 a 64.822609,64.822609 0 0 0 0.07132,-0.0267 z m -40.873636,0.9664 -0.892063,2.96952 a 64.822609,64.822609 0 0 0 0.06882,0.0257 l 1.022155,-2.92081 a 61.721076,61.721076 0 0 1 -0.198905,-0.0744 z m 38.282335,0 a 61.721076,61.721076 0 0 1 -0.198905,0.0744 l 1.022155,2.92081 a 64.822609,64.822609 0 0 0 0.06882,-0.0257 z m -35.647335,0.84535 -0.756446,3.00217 a 64.822609,64.822609 0 0 0 0.06982,0.0151 l 0.892563,-2.97253 a 61.721076,61.721076 0 0 1 -0.205936,-0.0447 z m 33.011834,0 a 61.721076,61.721076 0 0 1 -0.205939,0.0452 l 0.892566,2.97253 a 64.822609,64.822609 0 0 0 0.06982,-0.0156 z m -30.310032,0.58768 -0.620827,3.0318 a 64.822609,64.822609 0 0 0 0.07383,0.0161 l 0.756446,-3.00217 a 61.721076,61.721076 0 0 1 -0.209456,-0.0457 z m 27.608731,0 a 61.721076,61.721076 0 0 1 -0.209456,0.0457 l 0.756447,3.00218 a 64.822609,64.822609 0 0 0 0.07383,-0.0161 z m -24.908433,0.58767 -0.484706,3.06145 a 64.822609,64.822609 0 0 0 0.07283,0.0156 l 0.620828,-3.03131 a 61.721076,61.721076 0 0 1 -0.208953,-0.0457 z m 22.207633,0 a 61.721076,61.721076 0 0 1 -0.20845,0.0457 l 0.620828,3.03132 a 64.822609,64.822609 0 0 0 0.07232,-0.0161 z m -19.488752,0.53344 -0.346578,3.07702 a 64.822609,64.822609 0 0 0 0.07032,0.005 l 0.485713,-3.06698 a 61.721076,61.721076 0 0 1 -0.209455,-0.0151 z m 16.770371,0 a 61.721076,61.721076 0 0 1 -0.209453,0.0151 l 0.485712,3.06698 a 64.822609,64.822609 0 0 0 0.07033,-0.005 z m -14.011807,0.1974 -0.207948,3.08706 a 64.822609,64.822609 0 0 0 0.07534,0.005 l 0.34658,-3.07702 a 61.721076,61.721076 0 0 1 -0.213974,-0.0151 z m 11.253245,0 a 61.721076,61.721076 0 0 1 -0.213974,0.0151 l 0.346579,3.07701 a 64.822609,64.822609 0 0 0 0.07535,-0.005 z m -8.496693,0.19689 -0.06932,3.0971 a 64.822609,64.822609 0 0 0 0.07484,0.005 l 0.207945,-3.08656 a 61.721076,61.721076 0 0 1 -0.213471,-0.0156 z m 5.739637,0 a 61.721076,61.721076 0 0 1 -0.212968,0.0156 l 0.207946,3.08656 a 64.822609,64.822609 0 0 0 0.07434,-0.005 z m -2.973541,0.1979 0.06982,3.10665 a 64.822609,64.822609 0 0 0 0.03415,0.003 64.822609,64.822609 0 0 0 0.03415,-0.003 l 0.06982,-3.10665 a 61.721076,61.721076 0 0 1 -0.103974,0.008 61.721076,61.721076 0 0 1 -0.103973,-0.008 z" />
    <path
       id="circle10"
       style="display:inline;opacity:0.4;fill:url(#linearGradient11);stroke-width:4.23333;stroke-linecap:round;stroke-linejoin:round;stroke-miterlimit:1;paint-order:fill markers stroke"
       d="m 26.051504,67.856966 c 35.76326,23.524757 30.726183,-17.527377 83.363656,0 0,-23.020237 -18.661586,-41.681826 -41.681822,-41.681827 -23.020237,-4e-6 -41.681834,18.661586 -41.681834,41.681827 z"
       sodipodi:nodetypes="ccsc"
       inkscape:label="top-glare" />
    <path
       id="path2"
       style="display:inline;fill:#ffffff;stroke:#000000;stroke-width:3.175;stroke-linecap:round;stroke-linejoin:round;stroke-miterlimit:1;stroke-opacity:1;paint-order:fill markers stroke"
       inkscape:transform-center-y="-2.409839"
       d="m 82.321969,82.321952 39.605761,10.612339 -10.87254,10.872519 21.28497,21.28498 -3.62419,3.62418 -3.62417,3.62419 -21.28497,-21.28499 -10.872536,10.87255 z"
       sodipodi:nodetypes="ccccccccc"
       inkscape:transform-center-x="2.4098401"
       inkscape:label="cursor" />
    <circle
       style="display:inline;opacity:1;fill:none;fill-opacity:1;stroke:none;stroke-width:0.264583;stroke-linecap:round;stroke-linejoin:round;stroke-miterlimit:1;stroke-dasharray:none;stroke-opacity:1;paint-order:fill markers stroke"
       id="path45"
       cx="67.73333"
       cy="-67.73333"
       r="55.727863"
       transform="rotate(90)" />
    <text
       xml:space="preserve"
       style="font-size:4.23333px;line-height:1.25;font-family:Angelica;-inkscape-font-specification:'Angelica, Normal';font-variant-ligatures:none;text-align:center;text-anchor:middle;display:inline;fill:#b3b3b3;stroke-width:0.26458333;stroke:none;stroke-opacity:1;stroke-dasharray:none;paint-order:markers stroke fill"
       id="text45"
       transform="translate(-0.05351215)"><textPath
         xlink:href="#path45"
         startOffset="50%"
         id="textPath45"
         style="stroke:none;fill:#b3b3b3"><tspan
           id="tspan45"
           style="fill:#b3b3b3;stroke-width:0.26458333;stroke:none;stroke-opacity:1;stroke-dasharray:none;paint-order:markers stroke fill">SIMPLE SCREEN RECORDER</tspan></textPath></text>
  </g>
</svg>
