<?xml version="1.0" encoding="UTF-8" standalone="no"?>
<!-- Created with Inkscape (http://www.inkscape.org/) -->

<svg
   width="512"
   height="512"
   viewBox="0 0 135.46666 135.46667"
   version="1.1"
   id="svg5"
   inkscape:version="1.3 (0e150ed6c4, 2023-07-21)"
   sodipodi:docname="soundconverter.svg"
   xmlns:inkscape="http://www.inkscape.org/namespaces/inkscape"
   xmlns:sodipodi="http://sodipodi.sourceforge.net/DTD/sodipodi-0.dtd"
   xmlns:xlink="http://www.w3.org/1999/xlink"
   xmlns="http://www.w3.org/2000/svg"
   xmlns:svg="http://www.w3.org/2000/svg">
  <sodipodi:namedview
     id="namedview7"
     pagecolor="#292929"
     bordercolor="#666666"
     borderopacity="1"
     inkscape:showpageshadow="0"
     inkscape:pageopacity="0"
     inkscape:pagecheckerboard="1"
     inkscape:deskcolor="#1a1a1a"
     inkscape:document-units="px"
     showgrid="false"
     inkscape:zoom="0.70710678"
     inkscape:cx="108.18734"
     inkscape:cy="60.811183"
     inkscape:window-width="3256"
     inkscape:window-height="1080"
     inkscape:window-x="1864"
     inkscape:window-y="0"
     inkscape:window-maximized="0"
     inkscape:current-layer="layer1"
     showguides="false" />
  <defs
     id="defs2">
    <linearGradient
       id="linearGradient298"
       inkscape:collect="always">
      <stop
         style="stop-color:#aa00d4;stop-opacity:1;"
         offset="0"
         id="stop298" />
      <stop
         style="stop-color:#aa00d4;stop-opacity:0;"
         offset="1"
         id="stop299" />
    </linearGradient>
    <linearGradient
       id="linearGradient296"
       inkscape:collect="always">
      <stop
         style="stop-color:#0000ff;stop-opacity:1;"
         offset="0"
         id="stop296" />
      <stop
         style="stop-color:#0000ff;stop-opacity:0;"
         offset="1"
         id="stop297" />
    </linearGradient>
    <linearGradient
       id="linearGradient294"
       inkscape:collect="always">
      <stop
         style="stop-color:#ff6600;stop-opacity:1;"
         offset="0"
         id="stop294" />
      <stop
         style="stop-color:#ff6600;stop-opacity:0;"
         offset="1"
         id="stop295" />
    </linearGradient>
    <linearGradient
       id="linearGradient292"
       inkscape:collect="always">
      <stop
         style="stop-color:#00ff00;stop-opacity:1;"
         offset="0"
         id="stop292" />
      <stop
         style="stop-color:#00ff00;stop-opacity:0;"
         offset="1"
         id="stop293" />
    </linearGradient>
    <linearGradient
       id="linearGradient291"
       inkscape:collect="always">
      <stop
         style="stop-color:#000000;stop-opacity:0;"
         offset="0"
         id="stop291" />
      <stop
         style="stop-color:#000000;stop-opacity:1;"
         offset="1"
         id="stop290" />
    </linearGradient>
    <linearGradient
       id="linearGradient28"
       inkscape:collect="always">
      <stop
         style="stop-color:#000000;stop-opacity:1;"
         offset="0.39686397"
         id="stop28" />
      <stop
         style="stop-color:#000000;stop-opacity:0;"
         offset="1"
         id="stop29" />
    </linearGradient>
    <linearGradient
       id="linearGradient21"
       inkscape:collect="always">
      <stop
         style="stop-color:#ffffff;stop-opacity:1;"
         offset="0"
         id="stop21" />
      <stop
         style="stop-color:#ffffff;stop-opacity:0;"
         offset="1"
         id="stop22" />
    </linearGradient>
    <clipPath
       clipPathUnits="userSpaceOnUse"
       id="clipPath16">
      <path
         id="path16"
         style="color:#000000;fill:#00ff00;stroke-width:0.999998;stroke-linecap:round;stroke-linejoin:round;-inkscape-stroke:none;paint-order:stroke fill markers"
         inkscape:transform-center-x="14.337659"
         inkscape:transform-center-y="-51.454902"
         d="m 67.733332,0 v 7.1013753 h -5.29e-4 -5.29e-4 c -18.680607,0 -35.613792,7.5927647 -47.876663,19.8556367 l 5.598625,5.598623 C 36.263725,21.746171 51.204989,15.068331 67.732298,15.068331 h 5.29e-4 5.05e-4 v 7.101375 l 9.59993,-5.542297 9.599933,-5.542298 -9.599933,-5.5428136 z m 40.774258,19.856152 -5.59863,5.598625 c 10.80946,10.809464 17.48731,25.750731 17.48731,42.27804 v 5.29e-4 5.29e-4 h -7.10138 l 5.5423,9.599932 5.5423,9.59993 5.54281,-9.59993 5.5423,-9.599932 h -7.10138 v -5.43e-4 -5.29e-4 c 0,-18.680609 -7.59276,-35.613792 -19.85563,-47.876664 z M 11.084595,48.531404 5.5417804,58.131336 -5.1676564e-4,67.731266 H 7.1008586 v 5.29e-4 5.29e-4 c 0,18.68061 7.5927674,35.613796 19.8556344,47.876666 l 5.598626,-5.59862 C 21.745659,99.200866 15.067814,84.259607 15.067814,67.732298 v -5.29e-4 -5.29e-4 h 7.101375 l -5.542297,-9.599904 z m 56.648737,19.069637 a 0.13229166,0.13229166 0 0 0 -0.132291,0.132291 0.13229166,0.13229166 0 0 0 0.132291,0.132292 0.13229166,0.13229166 0 0 0 0.132292,-0.132292 0.13229166,0.13229166 0 0 0 -0.132292,-0.132291 z M 110.00982,102.91 c -10.809468,10.80946 -25.750729,17.4873 -42.278038,17.4873 h -5.29e-4 -5.29e-4 v -7.10137 l -9.599933,5.54229 -9.59993,5.5423 9.59993,5.54281 9.599933,5.5423 v -7.10137 h 5.29e-4 5.29e-4 c 18.68061,0 35.613798,-7.59277 47.876668,-19.85564 z" />
    </clipPath>
    <radialGradient
       inkscape:collect="always"
       xlink:href="#linearGradient21"
       id="radialGradient22"
       cx="67.732042"
       cy="67.732815"
       fx="67.732042"
       fy="67.732815"
       r="67.732558"
       gradientTransform="matrix(1,0,0,1.0000038,0,-2.5661881e-4)"
       gradientUnits="userSpaceOnUse" />
    <radialGradient
       inkscape:collect="always"
       xlink:href="#linearGradient28"
       id="radialGradient29"
       cx="67.732042"
       cy="67.732815"
       fx="67.732042"
       fy="67.732815"
       r="67.732558"
       gradientTransform="matrix(1,0,0,1.0000038,0,-2.5661881e-4)"
       gradientUnits="userSpaceOnUse" />
    <radialGradient
       inkscape:collect="always"
       xlink:href="#linearGradient12717"
       id="radialGradient8874"
       cx="67.73333"
       cy="67.73333"
       fx="67.73333"
       fy="67.73333"
       r="56.342476"
       gradientUnits="userSpaceOnUse"
       gradientTransform="translate(3.5603841e-6)" />
    <linearGradient
       inkscape:collect="always"
       id="linearGradient12717">
      <stop
         style="stop-color:#000000;stop-opacity:1;"
         offset="0"
         id="stop12711" />
      <stop
         style="stop-color:#505050;stop-opacity:1;"
         offset="0.9847787"
         id="stop12713" />
      <stop
         style="stop-color:#000000;stop-opacity:1;"
         offset="1"
         id="stop12715" />
    </linearGradient>
    <linearGradient
       inkscape:collect="always"
       xlink:href="#linearGradient8872"
       id="linearGradient13445"
       x1="385.466"
       y1="146.14571"
       x2="320.07919"
       y2="50.416058"
       gradientUnits="userSpaceOnUse"
       gradientTransform="translate(-285.04328,-30.547546)" />
    <linearGradient
       inkscape:collect="always"
       id="linearGradient8872">
      <stop
         style="stop-color:#ffffff;stop-opacity:0;"
         offset="0"
         id="stop8868" />
      <stop
         style="stop-color:#000000;stop-opacity:1;"
         offset="1"
         id="stop8870" />
    </linearGradient>
    <linearGradient
       inkscape:collect="always"
       xlink:href="#linearGradient49668"
       id="linearGradient49670"
       x1="15.762308"
       y1="1.3666567"
       x2="84.49926"
       y2="94.528419"
       gradientUnits="userSpaceOnUse" />
    <linearGradient
       inkscape:collect="always"
       id="linearGradient49668">
      <stop
         style="stop-color:#000000;stop-opacity:1;"
         offset="0.20803213"
         id="stop49664" />
      <stop
         style="stop-color:#000000;stop-opacity:0;"
         offset="0.64711589"
         id="stop49666" />
    </linearGradient>
    <filter
       inkscape:collect="always"
       style="color-interpolation-filters:sRGB"
       id="filter1770"
       x="-0.036447778"
       y="-0.041660051"
       width="1.0728956"
       height="1.0833201">
      <feGaussianBlur
         inkscape:collect="always"
         stdDeviation="1.2691277"
         id="feGaussianBlur1772" />
    </filter>
    <filter
       inkscape:collect="always"
       style="color-interpolation-filters:sRGB"
       id="filter20474"
       x="-0.10842325"
       y="-0.10842325"
       width="1.2168465"
       height="1.2168465">
      <feGaussianBlur
         inkscape:collect="always"
         stdDeviation="5.0110385"
         id="feGaussianBlur20476" />
    </filter>
    <filter
       inkscape:collect="always"
       style="color-interpolation-filters:sRGB"
       id="filter4460"
       x="-0.1145772"
       y="-0.1145772"
       width="1.2291544"
       height="1.2291544">
      <feGaussianBlur
         inkscape:collect="always"
         stdDeviation="1.7663985"
         id="feGaussianBlur4462" />
    </filter>
    <filter
       inkscape:collect="always"
       style="color-interpolation-filters:sRGB"
       id="filter11915"
       x="-0.67153702"
       y="-0.67153702"
       width="2.343074"
       height="2.343074">
      <feGaussianBlur
         inkscape:collect="always"
         stdDeviation="13.43074"
         id="feGaussianBlur11917" />
    </filter>
    <radialGradient
       inkscape:collect="always"
       xlink:href="#linearGradient11153"
       id="radialGradient11155"
       cx="192.78928"
       cy="100.10703"
       fx="192.78928"
       fy="100.10703"
       r="17.509501"
       gradientUnits="userSpaceOnUse"
       gradientTransform="translate(-125.05618,-32.373695)" />
    <linearGradient
       inkscape:collect="always"
       id="linearGradient11153">
      <stop
         style="stop-color:#8c8c8c;stop-opacity:1;"
         offset="0"
         id="stop11149" />
      <stop
         style="stop-color:#1c1c1c;stop-opacity:1;"
         offset="1"
         id="stop11151" />
    </linearGradient>
    <radialGradient
       inkscape:collect="always"
       xlink:href="#linearGradient23044"
       id="radialGradient23046"
       cx="61.893379"
       cy="59.150139"
       fx="61.893379"
       fy="59.150139"
       r="11.645284"
       gradientTransform="matrix(1.0000001,-0.76651893,0.46631755,0.60835757,-25.995252,73.253985)"
       gradientUnits="userSpaceOnUse" />
    <linearGradient
       inkscape:collect="always"
       id="linearGradient23044">
      <stop
         style="stop-color:#ffffff;stop-opacity:0.46000001;"
         offset="0"
         id="stop23040" />
      <stop
         style="stop-color:#ffffff;stop-opacity:0;"
         offset="0.74446362"
         id="stop23042" />
    </linearGradient>
    <filter
       inkscape:collect="always"
       style="color-interpolation-filters:sRGB"
       id="filter44116"
       x="-0.034680509"
       y="-0.034679489"
       width="1.069361"
       height="1.069359">
      <feGaussianBlur
         inkscape:collect="always"
         stdDeviation="1.8192293"
         id="feGaussianBlur44118" />
    </filter>
    <filter
       inkscape:collect="always"
       style="color-interpolation-filters:sRGB"
       id="filter20523"
       x="-0.0092002398"
       y="-0.0092002398"
       width="1.0184005"
       height="1.0184005">
      <feGaussianBlur
         inkscape:collect="always"
         stdDeviation="0.36034271"
         id="feGaussianBlur20525" />
    </filter>
    <clipPath
       clipPathUnits="userSpaceOnUse"
       id="clipPath273">
      <circle
         style="fill:#000000;fill-opacity:1;stroke:none;stroke-width:8.46667;stroke-linecap:round;stroke-linejoin:round;stroke-dasharray:none;stroke-opacity:1;paint-order:stroke fill markers"
         id="circle273"
         cx="67.73333"
         cy="67.73333"
         r="67.73333" />
    </clipPath>
    <filter
       inkscape:collect="always"
       style="color-interpolation-filters:sRGB"
       id="filter273"
       x="-0.094080004"
       y="-0.094080004"
       width="1.18816"
       height="1.18816">
      <feGaussianBlur
         inkscape:collect="always"
         stdDeviation="5.310293"
         id="feGaussianBlur273" />
    </filter>
    <radialGradient
       inkscape:collect="always"
       xlink:href="#linearGradient291"
       id="radialGradient292"
       cx="-111.36549"
       cy="46.999996"
       fx="-111.36549"
       fy="46.999996"
       r="67.73333"
       gradientUnits="userSpaceOnUse"
       gradientTransform="translate(179.09882,20.733339)" />
    <filter
       inkscape:collect="always"
       style="color-interpolation-filters:sRGB"
       id="filter292"
       x="-0.030719883"
       y="-0.030720116"
       width="1.0614398"
       height="1.0614402">
      <feGaussianBlur
         inkscape:collect="always"
         stdDeviation="1.6662442"
         id="feGaussianBlur292" />
    </filter>
    <linearGradient
       inkscape:collect="always"
       xlink:href="#linearGradient292"
       id="linearGradient293"
       x1="0"
       y1="0"
       x2="64.165588"
       y2="64.165588"
       gradientUnits="userSpaceOnUse" />
    <linearGradient
       inkscape:collect="always"
       xlink:href="#linearGradient294"
       id="linearGradient295"
       x1="135.46666"
       y1="3.1557618e-06"
       x2="71.301071"
       y2="64.165588"
       gradientUnits="userSpaceOnUse" />
    <linearGradient
       inkscape:collect="always"
       xlink:href="#linearGradient296"
       id="linearGradient297"
       x1="135.46666"
       y1="135.46666"
       x2="71.301071"
       y2="71.301071"
       gradientUnits="userSpaceOnUse" />
    <linearGradient
       inkscape:collect="always"
       xlink:href="#linearGradient298"
       id="linearGradient299"
       x1="3.2641601e-06"
       y1="135.46666"
       x2="64.165588"
       y2="71.301071"
       gradientUnits="userSpaceOnUse" />
  </defs>
  <g
     inkscape:label="Layer 1"
     inkscape:groupmode="layer"
     id="layer1">
    <g
       inkscape:groupmode="layer"
       id="g2675"
       inkscape:label="color"
       transform="translate(-222.68253,-15.496144)"
       style="display:inline">
      <circle
         style="fill:#838383;fill-opacity:1;stroke:none;stroke-width:3.556;stroke-linecap:square;stroke-linejoin:round"
         id="circle2669"
         cx="290.41586"
         cy="83.229477"
         r="67.73333"
         inkscape:export-filename="audio-x-vorbis+ogg.png"
         inkscape:export-xdpi="3.0000002"
         inkscape:export-ydpi="3.0000002" />
      <path
         id="path2671"
         style="display:inline;opacity:1;fill:#8d8d8d;fill-opacity:1;stroke:none;stroke-width:3.556;stroke-linecap:square;stroke-linejoin:round"
         d="m 294.12003,143.27596 a 56.342476,56.342476 0 0 0 56.34229,-56.342305 56.342476,56.342476 0 0 0 -18.40559,-41.640878 56.342476,56.342476 0 0 1 14.70143,37.936708 56.342476,56.342476 0 0 1 -56.3423,56.342305 56.342476,56.342476 0 0 1 -37.9367,-14.70143 56.342476,56.342476 0 0 0 41.64087,18.4056 z m -49.71118,-10.33529 a 67.73333,67.73333 0 0 1 -18.02216,-46.007015 67.73333,67.73333 0 0 1 67.73334,-67.733338 67.73333,67.73333 0 0 1 46.00442,18.02474 67.73333,67.73333 0 0 0 -49.70859,-21.72891 67.73333,67.73333 0 0 0 -67.73333,67.733338 67.73333,67.73333 0 0 0 21.72632,49.711185 z"
         inkscape:label="highlight-master" />
    </g>
    <g
       id="g272"
       style="display:inline;mix-blend-mode:overlay;filter:url(#filter273)"
       clip-path="url(#clipPath273)"
       inkscape:label="color-wheel">
      <path
         id="path265"
         style="fill:#ffffff;stroke-width:8.46667;stroke-linecap:round;stroke-linejoin:round;paint-order:stroke fill markers"
         d="m 94.098201,130.14384 c -8.103508,3.42749 -17.012848,5.32282 -26.364868,5.32282 -9.35202,0 -18.26137,-1.89533 -26.36487,-5.32282 l 26.36487,-62.410506 z"
         sodipodi:nodetypes="csccc"
         inkscape:transform-center-y="33.866667" />
      <path
         id="path266"
         style="fill:#ff0000;stroke-width:8.46667;stroke-linecap:round;stroke-linejoin:round;paint-order:stroke fill markers"
         d="M 42.245216,130.507 C 34.091569,127.20056 26.451513,122.2409 19.838637,115.62803 13.22576,109.01515 8.2660988,101.37509 4.9596604,93.221448 L 67.733331,67.733334 Z"
         sodipodi:nodetypes="csccc"
         inkscape:transform-center-y="31.386837"
         inkscape:transform-center-x="31.386837" />
      <path
         id="path267"
         style="fill:#ff6600;stroke-width:8.46667;stroke-linecap:round;stroke-linejoin:round;paint-order:stroke fill markers"
         d="M 5.3228253,94.098199 C 1.8953323,85.994694 6.1572635e-6,77.085349 1.9146228e-6,67.733334 4.0359432e-6,58.381312 1.8953322,49.471963 5.3228227,41.368463 l 62.4105063,26.36487 z"
         sodipodi:nodetypes="csccc"
         inkscape:transform-center-x="33.866667" />
      <path
         id="path268"
         style="fill:#ffff00;stroke-width:8.46667;stroke-linecap:round;stroke-linejoin:round;paint-order:stroke fill markers"
         d="M 4.9596623,42.245216 C 8.2661021,34.091569 13.225762,26.451513 19.838633,19.838637 26.451512,13.22576 34.091573,8.2660983 42.245214,4.9596603 L 67.733328,67.733331 Z"
         sodipodi:nodetypes="csccc"
         inkscape:transform-center-x="31.386837"
         inkscape:transform-center-y="-31.386837" />
      <path
         id="path269"
         style="fill:#00ff00;stroke-width:8.46667;stroke-linecap:round;stroke-linejoin:round;paint-order:stroke fill markers"
         d="M 41.368463,5.3228254 C 49.471969,1.8953323 58.381313,6.0365528e-6 67.733329,2.5010189e-6 77.08535,3.9152325e-6 85.9947,1.8953324 94.098199,5.3228225 L 67.733329,67.733329 Z"
         sodipodi:nodetypes="csccc"
         inkscape:transform-center-y="-33.866667" />
      <path
         id="path270"
         style="fill:#00ffff;stroke-width:8.46667;stroke-linecap:round;stroke-linejoin:round;paint-order:stroke fill markers"
         d="m 93.221446,4.9596625 c 8.153644,3.3064404 15.793704,8.2660995 22.406584,14.8789715 6.61287,6.612878 11.57253,14.25294 14.87897,22.40658 L 67.733331,67.733328 Z"
         sodipodi:nodetypes="csccc"
         inkscape:transform-center-y="-31.386837"
         inkscape:transform-center-x="-31.386836" />
      <path
         id="path271"
         style="fill:#0000ff;stroke-width:8.46667;stroke-linecap:round;stroke-linejoin:round;paint-order:stroke fill markers"
         d="m 130.14384,41.368464 c 3.42749,8.103503 5.32282,17.01285 5.32282,26.364869 0,9.352016 -1.89533,18.261365 -5.32282,26.364865 L 67.733333,67.733329 Z"
         sodipodi:nodetypes="csccc"
         inkscape:transform-center-x="-33.866667" />
      <path
         id="path272"
         style="fill:#ff00ff;stroke-width:8.46667;stroke-linecap:round;stroke-linejoin:round;paint-order:stroke fill markers"
         d="m 130.507,93.221449 c -3.30644,8.153641 -8.2661,15.793701 -14.87897,22.406581 -6.61288,6.61287 -14.25294,11.57253 -22.406581,14.87897 L 67.733334,67.733331 Z"
         sodipodi:nodetypes="csccc"
         inkscape:transform-center-x="-31.386837"
         inkscape:transform-center-y="31.386836" />
    </g>
    <g
       inkscape:groupmode="layer"
       id="layer3"
       inkscape:label="Base"
       style="display:inline">
      <circle
         style="display:inline;fill:url(#radialGradient8874);fill-opacity:1;stroke:none;stroke-width:2.95798;stroke-linecap:square;stroke-linejoin:round"
         id="path788-2"
         cx="67.73333"
         cy="67.73333"
         r="56.342476"
         inkscape:export-filename="audio-x-vorbis+ogg.png"
         inkscape:export-xdpi="3.0000002"
         inkscape:export-ydpi="3.0000002"
         inkscape:label="cone-base" />
      <circle
         style="display:inline;opacity:1;mix-blend-mode:normal;fill:url(#linearGradient13445);fill-opacity:1;stroke:none;stroke-width:2.95798;stroke-linecap:square;stroke-linejoin:round"
         id="path788-2-2"
         cx="67.73333"
         cy="67.73333"
         r="56.342476"
         inkscape:export-filename="audio-x-vorbis+ogg.png"
         inkscape:export-xdpi="3.0000002"
         inkscape:export-ydpi="3.0000002"
         inkscape:label="shadow-grad" />
      <path
         id="path788-2-2-61"
         style="display:inline;opacity:0.28;mix-blend-mode:normal;fill:url(#linearGradient49670);fill-opacity:1;stroke:none;stroke-width:2.95798;stroke-linecap:square;stroke-linejoin:round;filter:url(#filter1770)"
         inkscape:label="cone-shadow"
         d="M 67.73333,11.390854 A 56.342476,56.342476 0 0 0 11.39103,67.733151 56.342476,56.342476 0 0 0 13.95108,84.50422 33.599133,67.198265 49.960422 0 0 63.42713,60.274692 33.599133,67.198265 49.960422 0 0 94.96009,18.411614 56.342476,56.342476 0 0 0 67.73333,11.390854 Z" />
      <path
         sodipodi:type="star"
         style="display:inline;opacity:1;mix-blend-mode:normal;fill:#000000;fill-opacity:1;stroke-width:3.556;stroke-linecap:square;stroke-linejoin:round;filter:url(#filter20474)"
         id="path3284"
         inkscape:flatsided="false"
         sodipodi:sides="12"
         sodipodi:cx="195.50226"
         sodipodi:cy="20.229614"
         sodipodi:r1="57.417301"
         sodipodi:r2="8.6125937"
         sodipodi:arg1="0.78539816"
         sodipodi:arg2="1.0471975"
         inkscape:rounded="0"
         inkscape:randomized="0"
         d="M 236.10242,60.829777 199.80856,27.688339 210.36295,75.690468 195.50226,28.842208 180.64157,75.690468 191.19596,27.688339 154.9021,60.829777 188.04353,24.535911 140.0414,35.090306 186.88966,20.229615 140.0414,5.3689234 188.04353,15.923318 154.9021,-20.370549 l 36.29386,33.141439 -10.55439,-48.00213 14.86069,46.848261 14.86069,-46.848261 -10.5544,48.002129 36.29387,-33.141438 -33.14144,36.293866 48.00213,-10.554394 -46.84826,14.860691 46.84826,14.860691 -48.00213,-10.554394 z"
         inkscape:transform-center-x="2.4630204e-06"
         transform="translate(-127.76892,47.50372)"
         inkscape:label="star" />
      <circle
         style="display:inline;opacity:1;mix-blend-mode:normal;fill:#000000;fill-opacity:1;stroke:none;stroke-width:0.971252;stroke-linecap:square;stroke-linejoin:round;filter:url(#filter4460)"
         id="circle3722"
         cx="67.73333"
         cy="67.73333"
         inkscape:export-filename="audio-x-vorbis+ogg.png"
         inkscape:export-xdpi="3.0000002"
         inkscape:export-ydpi="3.0000002"
         r="18.5"
         inkscape:label="shadow-sm" />
      <circle
         style="display:inline;opacity:0.621118;mix-blend-mode:normal;fill:#000000;fill-opacity:1;stroke:none;stroke-width:1.26;stroke-linecap:square;stroke-linejoin:round;filter:url(#filter11915)"
         id="path788-2-0-6"
         cx="67.73333"
         cy="67.73333"
         inkscape:export-filename="audio-x-vorbis+ogg.png"
         inkscape:export-xdpi="3.0000002"
         inkscape:export-ydpi="3.0000002"
         r="24"
         inkscape:label="shadow-lrg" />
      <circle
         style="display:inline;opacity:1;fill:url(#radialGradient11155);fill-opacity:1;stroke:none;stroke-width:2.57143;stroke-linecap:square;stroke-linejoin:round"
         id="path11147"
         cx="67.733101"
         cy="67.733337"
         r="17.509501"
         inkscape:label="cone-center" />
      <path
         id="path11147-5"
         style="display:inline;opacity:0.463526;fill:url(#radialGradient23046);fill-opacity:1;stroke:none;stroke-width:2.57143;stroke-linecap:square;stroke-linejoin:round"
         d="M 69.320834,52.869643 A 17.509501,17.509501 0 0 0 51.835597,69.718744 17.509501,17.509501 0 0 0 57.640927,70.7223 17.509501,17.509501 0 0 0 75.126165,53.860797 17.509501,17.509501 0 0 0 69.320834,52.869643 Z"
         inkscape:label="top-highlight" />
      <path
         id="path788-4"
         style="display:inline;opacity:0.8;mix-blend-mode:multiply;fill:#000000;stroke:none;stroke-width:3.556;stroke-linecap:square;stroke-linejoin:round;filter:url(#filter44116)"
         d="m 67.358994,4.7864974 c -13.66315,0.07922 -27.38659,4.7644523 -38.20172,13.2055076 -10.74886,8.33503 -18.6883,20.179643 -22.1952198,33.317037 -2.47653,9.204493 -2.85125,18.860791 -1.0666,28.225757 2.75968,14.698763 11.0371498,28.392691 22.8542798,37.637011 10.49627,8.26999 23.66618,13.10094 36.96119,13.4768 12.18163,0.40911 24.51052,-2.80023 34.899466,-9.23512 6.81952,-4.16351 12.86296,-9.67214 17.66103,-16.13943 2.77762,-3.74799 5.08,-7.724033 6.98601,-11.991468 3.62988,-8.153129 5.48861,-17.06262 5.42237,-25.946483 C 130.6279,53.844517 126.02878,40.353296 117.81212,29.591186 110.70825,20.226753 100.91218,12.953546 89.909774,8.8255597 82.742304,6.1218217 75.048714,4.7067324 67.358994,4.7864974 Z m 0.44141,1.8457033 c 17.55832,0.02611 35.003856,7.9615703 46.339266,21.4124013 10.44337,12.173222 15.85367,28.576258 14.46386,44.577058 -1.16769,14.768406 -7.8834,29.05463 -18.65697,39.2472 -10.339646,9.91755 -24.249366,16.05853 -38.569816,16.84011 -14.10553,0.8644 -28.48238,-3.32362 -39.83329,-11.76402 -11.20791,-8.22008 -19.50999,-20.353873 -22.9321498,-33.840532 -3.53409,-13.511796 -2.28692,-28.242166 3.6304898,-40.907384 5.95238,-12.9693 16.56783,-23.771187 29.54858,-29.744162 8.10721,-3.8045343 17.05385,-5.8100613 26.01003,-5.8206713 z"
         inkscape:label="ring-blur" />
      <path
         id="path13239"
         style="color:#000000;display:inline;opacity:0.048;fill:#000000;stroke-width:1.06215;stroke-linecap:square;stroke-linejoin:round;-inkscape-stroke:none;filter:url(#filter20523)"
         d="m 67.733331,20.733334 c -25.954176,0 -46.999997,21.045822 -46.999997,46.999997 0,25.954184 21.045821,46.999999 46.999997,46.999999 25.954179,0 46.999999,-21.045815 46.999999,-46.999999 0,-25.954175 -21.04582,-46.999997 -46.999999,-46.999997 z m 0,0.531315 c 25.667166,0 46.468679,20.801518 46.468679,46.468682 0,25.667171 -20.801513,46.468679 -46.468679,46.468679 -25.667164,0 -46.468682,-20.801508 -46.468682,-46.468679 0,-25.667164 20.801518,-46.468682 46.468682,-46.468682 z m 0,10.090052 c -20.088116,0 -36.37863,16.290515 -36.37863,36.37863 0,20.088117 16.290514,36.378629 36.37863,36.378629 20.088117,0 36.378629,-16.290512 36.378629,-36.378629 0,-20.088115 -16.290512,-36.37863 -36.378629,-36.37863 z m 0,0.531314 c 19.801104,1e-6 35.847309,16.046214 35.847309,35.847316 0,19.801104 -16.046205,35.847309 -35.847309,35.847309 -19.801103,0 -35.847316,-16.046205 -35.847316,-35.847309 0,-19.801102 16.046213,-35.847315 35.847316,-35.847316 z m 0,10.090051 c -14.222054,0 -25.757265,11.535211 -25.757265,25.757265 0,14.222054 11.535211,25.757266 25.757265,25.757266 14.222055,0 25.757266,-11.535212 25.757266,-25.757266 0,-14.222054 -11.535211,-25.757265 -25.757266,-25.757265 z m 0,0.531316 c 13.935042,0 25.225951,11.290907 25.225951,25.225949 0,13.935041 -11.290909,25.225951 -25.225951,25.225951 -13.935042,0 -25.225949,-11.29091 -25.225949,-25.225951 0,-13.935042 11.290907,-25.225949 25.225949,-25.225949 z"
         inkscape:label="cone-rings" />
    </g>
    <g
       id="g280"
       style="display:none;mix-blend-mode:overlay;filter:url(#filter273)"
       clip-path="url(#clipPath273)"
       inkscape:label="color-wheel"
       transform="rotate(180,67.733331,67.733331)">
      <path
         id="path273"
         style="fill:#ffffff;stroke-width:8.46667;stroke-linecap:round;stroke-linejoin:round;paint-order:stroke fill markers"
         d="m 94.098201,130.14384 c -8.103508,3.42749 -17.012848,5.32282 -26.364868,5.32282 -9.35202,0 -18.26137,-1.89533 -26.36487,-5.32282 l 26.36487,-62.410506 z"
         sodipodi:nodetypes="csccc"
         inkscape:transform-center-y="33.866667" />
      <path
         id="path274"
         style="fill:#ff0000;stroke-width:8.46667;stroke-linecap:round;stroke-linejoin:round;paint-order:stroke fill markers"
         d="M 42.245216,130.507 C 34.091569,127.20056 26.451513,122.2409 19.838637,115.62803 13.22576,109.01515 8.2660988,101.37509 4.9596604,93.221448 L 67.733331,67.733334 Z"
         sodipodi:nodetypes="csccc"
         inkscape:transform-center-y="31.386837"
         inkscape:transform-center-x="31.386837" />
      <path
         id="path275"
         style="fill:#ff6600;stroke-width:8.46667;stroke-linecap:round;stroke-linejoin:round;paint-order:stroke fill markers"
         d="M 5.3228253,94.098199 C 1.8953323,85.994694 6.1572635e-6,77.085349 1.9146228e-6,67.733334 4.0359432e-6,58.381312 1.8953322,49.471963 5.3228227,41.368463 l 62.4105063,26.36487 z"
         sodipodi:nodetypes="csccc"
         inkscape:transform-center-x="33.866667" />
      <path
         id="path276"
         style="fill:#ffff00;stroke-width:8.46667;stroke-linecap:round;stroke-linejoin:round;paint-order:stroke fill markers"
         d="M 4.9596623,42.245216 C 8.2661021,34.091569 13.225762,26.451513 19.838633,19.838637 26.451512,13.22576 34.091573,8.2660983 42.245214,4.9596603 L 67.733328,67.733331 Z"
         sodipodi:nodetypes="csccc"
         inkscape:transform-center-x="31.386837"
         inkscape:transform-center-y="-31.386837" />
      <path
         id="path277"
         style="fill:#00ff00;stroke-width:8.46667;stroke-linecap:round;stroke-linejoin:round;paint-order:stroke fill markers"
         d="M 41.368463,5.3228254 C 49.471969,1.8953323 58.381313,6.0365528e-6 67.733329,2.5010189e-6 77.08535,3.9152325e-6 85.9947,1.8953324 94.098199,5.3228225 L 67.733329,67.733329 Z"
         sodipodi:nodetypes="csccc"
         inkscape:transform-center-y="-33.866667" />
      <path
         id="path278"
         style="fill:#00ffff;stroke-width:8.46667;stroke-linecap:round;stroke-linejoin:round;paint-order:stroke fill markers"
         d="m 93.221446,4.9596625 c 8.153644,3.3064404 15.793704,8.2660995 22.406584,14.8789715 6.61287,6.612878 11.57253,14.25294 14.87897,22.40658 L 67.733331,67.733328 Z"
         sodipodi:nodetypes="csccc"
         inkscape:transform-center-y="-31.386837"
         inkscape:transform-center-x="-31.386836" />
      <path
         id="path279"
         style="fill:#0000ff;stroke-width:8.46667;stroke-linecap:round;stroke-linejoin:round;paint-order:stroke fill markers"
         d="m 130.14384,41.368464 c 3.42749,8.103503 5.32282,17.01285 5.32282,26.364869 0,9.352016 -1.89533,18.261365 -5.32282,26.364865 L 67.733333,67.733329 Z"
         sodipodi:nodetypes="csccc"
         inkscape:transform-center-x="-33.866667" />
      <path
         id="path280"
         style="fill:#ff00ff;stroke-width:8.46667;stroke-linecap:round;stroke-linejoin:round;paint-order:stroke fill markers"
         d="m 130.507,93.221449 c -3.30644,8.153641 -8.2661,15.793701 -14.87897,22.406581 -6.61288,6.61287 -14.25294,11.57253 -22.406581,14.87897 L 67.733334,67.733331 Z"
         sodipodi:nodetypes="csccc"
         inkscape:transform-center-x="-31.386837"
         inkscape:transform-center-y="31.386836" />
    </g>
    <path
       style="color:#000000;display:none;fill:#000000;stroke-width:0.999998;stroke-linecap:round;stroke-linejoin:round;-inkscape-stroke:none;paint-order:stroke fill markers"
       d="M 67.732412,-3.1749493e-8 C 30.371044,-3.1749493e-8 -1.3497352e-4,30.371179 -1.3497352e-4,67.732546 c 0,37.361364 30.37117897352,67.734384 67.73254697352,67.734384 37.361368,0 67.734388,-30.37302 67.734388,-67.734384 C 135.4668,30.371179 105.09378,-3.1749499e-8 67.732412,-3.1749493e-8 Z M 67.732412,7.967021 c 33.054748,0 59.765518,26.710779 59.765518,59.765525 0,33.054744 -26.71077,59.765524 -59.765518,59.765524 -33.054747,0 -59.7655259,-26.71078 -59.7655259,-59.765524 0,-33.054746 26.7107789,-59.765525 59.7655259,-59.765525 z"
       id="path4"
       sodipodi:insensitive="true" />
    <circle
       style="display:none;fill:#ff6600;fill-opacity:1;stroke:none;stroke-width:8.46668;stroke-linecap:round;stroke-linejoin:round;stroke-dasharray:none;stroke-opacity:1;paint-order:stroke fill markers"
       id="path5"
       cx="67.73333"
       cy="67.73333"
       r="0.13229166"
       sodipodi:insensitive="true" />
    <g
       id="g273"
       style="display:none">
      <path
         id="path2"
         style="color:#000000;display:inline;fill:#441650;stroke-width:0.999998;stroke-linecap:round;stroke-linejoin:round;-inkscape-stroke:none;paint-order:stroke fill markers"
         d="m 67.733332,0 v 7.1013752 h -5.16e-4 -5.17e-4 c -18.680628,0 -35.61378,7.5927518 -47.876664,19.8556348 l 5.598625,5.598625 C 36.263735,21.74616 51.204974,15.068331 67.732299,15.068331 h 5.17e-4 5.16e-4 v 7.101375 l 9.599931,-5.542297 9.599931,-5.542298 -9.599931,-5.5428137 z"
         inkscape:transform-center-x="14.337659"
         inkscape:transform-center-y="-51.454902" />
      <path
         id="path6"
         style="color:#000000;display:inline;fill:#000055;stroke-width:0.999998;stroke-linecap:round;stroke-linejoin:round;-inkscape-stroke:none;paint-order:stroke fill markers"
         d="m 135.46479,67.733977 h -7.10137 v -5.16e-4 -5.17e-4 c 0,-18.680628 -7.59276,-35.61378 -19.85564,-47.876664 l -5.59862,5.598625 c 10.80947,10.809475 17.4873,25.750714 17.4873,42.278039 v 5.17e-4 5.16e-4 h -7.10138 l 5.5423,9.599931 5.5423,9.599931 5.54281,-9.599931 z"
         inkscape:transform-center-x="-51.454904"
         inkscape:transform-center-y="-14.337659" />
      <path
         id="path7"
         style="color:#000000;display:inline;fill:#005500;stroke-width:0.999998;stroke-linecap:round;stroke-linejoin:round;-inkscape-stroke:none;paint-order:stroke fill markers"
         d="m 67.730814,135.46544 v -7.10137 h 5.16e-4 5.17e-4 c 18.680628,0 35.613783,-7.59276 47.876663,-19.85564 l -5.59862,-5.59862 c -10.809479,10.80947 -25.750718,17.4873 -42.278043,17.4873 h -5.17e-4 -5.16e-4 v -7.10138 l -9.599931,5.5423 -9.599931,5.5423 9.599931,5.54281 z"
         inkscape:transform-center-x="-14.337659"
         inkscape:transform-center-y="51.454909" />
      <path
         id="path8"
         style="color:#000000;display:inline;fill:#554400;stroke-width:0.999998;stroke-linecap:round;stroke-linejoin:round;-inkscape-stroke:none;paint-order:stroke fill markers"
         d="M -6.4957163e-4,67.731459 H 7.1007204 v 5.16e-4 5.17e-4 c 0,18.680628 7.5927596,35.613788 19.8556396,47.876668 l 5.59862,-5.59862 C 21.74551,99.201056 15.06768,84.259817 15.06768,67.732492 v -5.17e-4 -5.16e-4 h 7.10138 l -5.5423,-9.599931 -5.5423,-9.599931 -5.5428096,9.599931 z"
         inkscape:transform-center-x="51.454909"
         inkscape:transform-center-y="14.337661" />
    </g>
    <path
       id="path25"
       style="color:#000000;display:none;fill:url(#radialGradient29);stroke-width:0.999998;stroke-linecap:round;stroke-linejoin:round;-inkscape-stroke:none;paint-order:stroke fill markers"
       inkscape:transform-center-x="14.337659"
       inkscape:transform-center-y="-51.454902"
       d="m 67.733332,0 v 7.1013752 h -5.16e-4 -5.17e-4 c -18.680609,0 -35.613792,7.5927648 -47.876664,19.8556358 l 5.598625,5.598624 C 36.263724,21.746171 51.20499,15.068331 67.732299,15.068331 h 5.17e-4 5.16e-4 v 7.101375 l 9.599931,-5.542297 9.599931,-5.542298 -9.599931,-5.5428137 z m 40.774258,19.856152 -5.59863,5.598625 c 10.80946,10.809464 17.48731,25.75073 17.48731,42.278039 v 5.16e-4 5.17e-4 h -7.10138 l 5.5423,9.599931 5.5423,9.599931 5.54281,-9.599931 5.5423,-9.599931 h -7.10138 v -5.17e-4 -5.16e-4 c 0,-18.68061 -7.59276,-35.613792 -19.85563,-47.876664 z M 11.084595,48.531404 5.5417805,58.131335 -5.1676432e-4,67.731265 H 7.1008585 v 5.17e-4 5.17e-4 c 0,18.680609 7.5927675,35.613791 19.8556355,47.876661 l 5.598624,-5.59862 C 21.745659,99.200865 15.067814,84.259607 15.067814,67.732299 v -5.17e-4 -5.17e-4 h 7.101375 l -5.542297,-9.59993 z M 110.00982,102.91 c -10.809467,10.80946 -25.750729,17.4873 -42.278038,17.4873 h -5.17e-4 -5.16e-4 v -7.10137 l -9.599931,5.54229 -9.599931,5.5423 9.599931,5.54281 9.599931,5.5423 v -7.10137 h 5.16e-4 5.17e-4 c 18.68061,0 35.613798,-7.59277 47.876668,-19.85564 z"
       inkscape:label="dark-grad" />
    <g
       id="g29"
       style="display:none;mix-blend-mode:overlay">
      <path
         id="path17"
         style="color:#000000;display:inline;fill:#ffcc00;stroke-width:0.999998;stroke-linecap:round;stroke-linejoin:round;-inkscape-stroke:none;paint-order:stroke fill markers"
         d="M -6.4957163e-4,67.731459 H 7.1007204 v 5.16e-4 5.17e-4 c 0,18.680628 7.5927596,35.613788 19.8556396,47.876668 l 2.79931,-2.79931 C 5.464851,93.741277 11.08446,48.531597 11.08446,48.531597 l -5.5428096,9.599931 z"
         inkscape:transform-center-x="51.454909"
         inkscape:transform-center-y="14.337661"
         sodipodi:nodetypes="cccsccccc" />
      <path
         id="path22"
         style="color:#000000;display:inline;fill:#ab37c8;stroke-width:0.999998;stroke-linecap:round;stroke-linejoin:round;-inkscape-stroke:none;paint-order:stroke fill markers"
         d="m 67.733332,-2.7e-6 v 7.10137 h -5.16e-4 -5.17e-4 c -18.680628,0 -35.613788,7.5927597 -47.876668,19.8556397 l 2.79931,2.79931 C 41.723514,5.4654979 86.93319,11.085107 86.93319,11.085107 L 77.333263,5.5422973 Z"
         inkscape:transform-center-x="14.337661"
         inkscape:transform-center-y="-51.454909"
         sodipodi:nodetypes="cccsccccc" />
      <path
         id="path23"
         style="color:#000000;display:inline;fill:#0000ff;stroke-width:0.999998;stroke-linecap:round;stroke-linejoin:round;-inkscape-stroke:none;paint-order:stroke fill markers"
         d="m 135.46479,67.733977 h -7.10137 v -5.16e-4 -5.17e-4 c 0,-18.680628 -7.59276,-35.613788 -19.85564,-47.876668 l -2.79931,2.79931 c 24.29082,19.068573 18.67121,64.278249 18.67121,64.278249 l 5.54281,-9.599927 z"
         inkscape:transform-center-x="-51.454911"
         inkscape:transform-center-y="-14.337661"
         sodipodi:nodetypes="cccsccccc" />
      <path
         id="path24"
         style="color:#000000;display:inline;fill:#00ff00;stroke-width:0.999998;stroke-linecap:round;stroke-linejoin:round;-inkscape-stroke:none;paint-order:stroke fill markers"
         d="m 67.730814,135.46544 v -7.10137 h 5.16e-4 5.17e-4 c 18.680628,0 35.613783,-7.59276 47.876663,-19.85564 l -2.79931,-2.79931 c -19.068568,24.29082 -64.278244,18.67121 -64.278244,18.67121 l 9.599927,5.54281 z"
         inkscape:transform-center-x="-14.337661"
         inkscape:transform-center-y="51.454916"
         sodipodi:nodetypes="cccsccccc" />
    </g>
    <path
       id="path18"
       style="color:#000000;display:none;fill:url(#radialGradient22);stroke-width:0.999998;stroke-linecap:round;stroke-linejoin:round;-inkscape-stroke:none;paint-order:stroke fill markers"
       inkscape:transform-center-x="14.337659"
       inkscape:transform-center-y="-51.454902"
       d="m 67.733332,0 v 7.1013752 h -5.16e-4 -5.17e-4 c -18.68059,0 -35.613804,7.5927768 -47.876664,19.8556358 l 2.229838,2.229838 A 59.79583,59.79583 0 0 1 67.733332,7.9374999 59.79583,59.79583 0 0 1 86.89392,11.107849 l 0.03927,-0.02274 -9.599931,-5.5428137 z m 40.774258,19.856152 -2.20349,2.203483 a 59.79583,59.79583 0 0 1 21.22507,45.673697 59.79583,59.79583 0 0 1 -3.24115,19.042249 l 0.0915,0.15813 5.54281,-9.599931 5.5423,-9.599931 h -7.10138 v -5.17e-4 -5.16e-4 c 0,-18.680592 -7.59277,-35.613804 -19.85563,-47.876664 z M 11.084595,48.531404 5.5417805,58.131335 -5.1676432e-4,67.731265 H 7.1008585 v 5.17e-4 5.17e-4 c 0,18.68059 7.5927795,35.613801 19.8556355,47.876661 l 2.228804,-2.2288 A 59.79583,59.79583 0 0 1 7.9374999,67.733332 59.79583,59.79583 0 0 1 11.178129,48.693151 Z M 113.38067,106.28085 a 59.79583,59.79583 0 0 1 -45.647338,21.24832 59.79583,59.79583 0 0 1 -19.042248,-3.24115 l -0.160197,0.0925 9.599931,5.54281 9.599931,5.5423 v -7.10137 h 5.16e-4 5.17e-4 c 18.680592,0 35.613808,-7.59278 47.876668,-19.85564 z" />
    <path
       id="rect280-0"
       style="fill:url(#linearGradient293);stroke-width:8.46668;stroke-linecap:round;stroke-linejoin:round;paint-order:stroke fill markers"
       inkscape:transform-center-x="30.441685"
       inkscape:transform-center-y="-30.441872"
       d="M 0 0 L 0 12.958382 L 0 32.082796 A 76.729172 76.729172 0 0 1 7.5499267 20.508309 L 51.20721 64.165592 L 37.292297 37.292297 L 64.165592 51.20721 L 20.508309 7.5499267 A 76.729172 76.729172 0 0 1 32.082796 0 L 12.958382 0 L 0 0 z " />
    <path
       id="rect280-0-6"
       style="fill:url(#linearGradient295);stroke-width:8.46668;stroke-linecap:round;stroke-linejoin:round;paint-order:stroke fill markers"
       inkscape:transform-center-x="-30.441685"
       inkscape:transform-center-y="-30.441872"
       d="M 103.38387 0 A 76.729172 76.729172 0 0 1 114.95836 7.5499267 L 71.301073 51.20721 L 98.174368 37.292297 L 84.259455 64.165592 L 127.91674 20.508309 A 76.729172 76.729172 0 0 1 135.46666 32.082796 L 135.46666 12.958382 L 135.46666 0 L 122.50828 0 L 103.38387 0 z " />
    <path
       id="path281"
       style="fill:url(#linearGradient297);stroke-width:8.46668;stroke-linecap:round;stroke-linejoin:round;paint-order:stroke fill markers"
       inkscape:transform-center-x="-30.441685"
       inkscape:transform-center-y="30.441872"
       d="M 84.259455 71.301073 L 98.174368 98.174368 L 71.301073 84.259455 L 114.95836 127.91674 A 76.729172 76.729172 0 0 1 103.38387 135.46666 L 122.50828 135.46666 L 135.46666 135.46666 L 135.46666 122.50828 L 135.46666 103.38387 A 76.729172 76.729172 0 0 1 127.91674 114.95836 L 84.259455 71.301073 z " />
    <path
       id="path282"
       style="display:inline;fill:url(#linearGradient299);stroke-width:8.46668;stroke-linecap:round;stroke-linejoin:round;paint-order:stroke fill markers"
       inkscape:transform-center-x="30.441685"
       inkscape:transform-center-y="30.441872"
       d="M 51.20721,71.301073 7.5499267,114.95836 A 76.729172,76.729172 0 0 1 0,103.38387 v 19.12441 12.95838 H 12.958382 32.082796 A 76.729172,76.729172 0 0 1 20.508309,127.91674 L 64.165592,84.259455 37.292297,98.174368 Z" />
    <path
       id="path285"
       style="display:inline;opacity:0.4;mix-blend-mode:multiply;fill:url(#radialGradient292);stroke-width:8.46668;stroke-linecap:round;stroke-linejoin:round;paint-order:stroke fill markers;filter:url(#filter292)"
       inkscape:transform-center-x="30.441685"
       inkscape:transform-center-y="-30.441872"
       d="m 2.6464844,12.958984 c 0.00391,3.241522 -0.00782,6.529968 0.00586,9.742188 1.0699209,-1.484062 2.0867275,-3.054671 3.424388,-4.306041 1.5791019,-0.966929 3.5456745,0.05901 4.5232766,1.413861 10.130075,10.130076 20.260151,20.260151 30.390226,30.390227 -2.064913,-4.031597 -4.230187,-8.031975 -6.179687,-12.123047 -0.498795,-2.329718 2.677787,-4.233541 4.517578,-2.748047 3.591222,1.931507 7.248603,3.764524 10.865234,5.658203 C 39.621421,30.410069 29.036573,19.846523 18.490234,9.2460938 c -1.159382,-1.6034863 -0.07932,-3.8680097 1.55461,-4.6596094 0.877015,-0.663586 1.765837,-1.311147 2.668047,-1.94 -6.688802,0 -13.3776045,0 -20.0664066,0 0,3.4375 0,6.875 0,10.3124996 z M 113.56641,3.21875 c 1.24002,0.9140782 2.59419,1.7598854 3.5656,2.9676612 0.8684,1.5752332 -0.15561,3.4469055 -1.4703,4.4096898 -10.13138,10.131378 -20.262754,20.262756 -30.394132,30.394133 4.031597,-2.064913 8.031975,-4.230187 12.123047,-6.179687 2.329718,-0.498795 4.233545,2.677787 2.748045,4.517578 -1.931505,3.591222 -3.764522,7.248603 -5.658201,10.865234 10.576261,-10.571938 21.139801,-21.156786 31.740231,-31.703125 1.60349,-1.159382 3.86801,-0.07932 4.65961,1.55461 0.66359,0.877015 1.31115,1.765837 1.94,2.668047 0,-6.688802 0,-13.3776045 0,-20.0664066 -6.6901,0 -13.38021,0 -20.07031,0 0.27214,0.1907552 0.54427,0.3815104 0.81641,0.5722656 z m -13.03907,93.734375 c 0.85797,2.05023 -1.518116,4.217015 -3.52734,3.623045 -1.216284,-0.52838 -2.324793,-1.30229 -3.534794,-1.861271 -2.738239,-1.396688 -5.458542,-2.82761 -8.191768,-4.23443 10.571938,10.576261 21.156782,21.139801 31.703122,31.740231 1.15917,1.60313 0.0796,3.86867 -1.55461,4.65961 -0.87701,0.66359 -1.76583,1.31115 -2.66804,1.94 6.6888,0 13.3776,0 20.0664,0 -0.004,-6.67903 0.008,-13.40495 -0.006,-20.05469 -1.06992,1.48407 -2.08672,3.05468 -3.42438,4.30605 -1.57911,0.96692 -3.54568,-0.059 -4.52328,-1.41387 C 114.73657,105.52773 104.6065,95.397654 94.476422,85.267578 96.49335,89.16276 98.510277,93.057943 100.5272,96.953125 Z M 9.4257812,116.83398 c -1.5250769,1.33553 -3.964936,0.35213 -4.7753906,-1.32617 -0.6847368,-0.90576 -1.3549724,-1.82218 -2.0039062,-2.7539 0,6.6888 0,13.3776 0,20.0664 6.6790335,-0.004 13.4049516,0.008 20.0546876,-0.006 -1.484062,-1.06992 -3.054671,-2.08672 -4.306041,-3.42438 -0.966929,-1.57911 0.05901,-3.54568 1.413861,-4.52328 10.130076,-10.13008 20.260151,-20.26015 30.390227,-30.390228 -4.031597,2.064914 -8.031975,4.230188 -12.123047,6.179688 -2.329718,0.49879 -4.233541,-2.677787 -2.748047,-4.517578 1.931507,-3.591222 3.764524,-7.248603 5.658203,-10.865234 C 30.466146,95.79362 19.945964,106.3138 9.4257812,116.83398 Z" />
  </g>
</svg>
