<?xml version="1.0" encoding="UTF-8" standalone="no"?>
<!-- Created with Inkscape (http://www.inkscape.org/) -->

<svg
   width="512"
   height="512"
   viewBox="0 0 135.46666 135.46667"
   version="1.1"
   id="svg5"
   inkscape:version="1.4 (e7c3feb100, 2024-10-09)"
   sodipodi:docname="synergy.svg"
   xmlns:inkscape="http://www.inkscape.org/namespaces/inkscape"
   xmlns:sodipodi="http://sodipodi.sourceforge.net/DTD/sodipodi-0.dtd"
   xmlns:xlink="http://www.w3.org/1999/xlink"
   xmlns="http://www.w3.org/2000/svg"
   xmlns:svg="http://www.w3.org/2000/svg">
  <sodipodi:namedview
     id="namedview7"
     pagecolor="#242424"
     bordercolor="#666666"
     borderopacity="1"
     inkscape:showpageshadow="0"
     inkscape:pageopacity="0"
     inkscape:pagecheckerboard="1"
     inkscape:deskcolor="#000000"
     inkscape:document-units="px"
     showgrid="false"
     inkscape:zoom="1.3037281"
     inkscape:cx="263.8587"
     inkscape:cy="296.07401"
     inkscape:window-width="3256"
     inkscape:window-height="1080"
     inkscape:window-x="1864"
     inkscape:window-y="0"
     inkscape:window-maximized="0"
     inkscape:current-layer="layer1" />
  <defs
     id="defs2">
    <linearGradient
       id="linearGradient9"
       inkscape:collect="always">
      <stop
         style="stop-color:#000000;stop-opacity:1;"
         offset="0"
         id="stop9" />
      <stop
         style="stop-color:#000000;stop-opacity:0;"
         offset="1"
         id="stop10" />
    </linearGradient>
    <radialGradient
       inkscape:collect="always"
       xlink:href="#linearGradient9"
       id="radialGradient10"
       cx="183.00532"
       cy="61.382815"
       fx="183.00532"
       fy="61.382815"
       r="21.13566"
       gradientTransform="matrix(1,0,0,1.8026651,-115.27199,-42.919327)"
       gradientUnits="userSpaceOnUse" />
  </defs>
  <g
     inkscape:label="Layer 1"
     inkscape:groupmode="layer"
     id="layer1">
    <path
       id="path12"
       style="fill:#00ff00;stroke-width:1;stroke-linecap:round;stroke-linejoin:round;stroke-miterlimit:1;paint-order:markers stroke fill"
       d="m 50.86973,130.66581 -9.757785,-13.26442 15.083369,-6.6078 c 23.898567,6.40314 48.194536,-7.62299 54.598126,-31.521555 l 19.87243,5.324799 C 121.38428,119.23618 85.50904,139.94738 50.869704,130.66579 Z"
       sodipodi:nodetypes="ccccccc"
       inkscape:transform-center-x="-18.59095"
       inkscape:transform-center-y="39.264053" />
    <path
       id="path11"
       style="fill:#0000ff;fill-opacity:1;stroke-width:1;stroke-linecap:round;stroke-linejoin:round;stroke-miterlimit:1;paint-order:markers stroke fill"
       d="m 130.6659,84.596848 -13.26441,9.757779 -6.60781,-15.083367 c 6.40313,-23.898567 -7.623,-48.194529 -31.521564,-54.598127 L 84.596913,4.8007113 C 119.23626,14.082292 139.94746,49.957533 130.66588,84.596872 Z"
       sodipodi:nodetypes="ccccccc"
       inkscape:transform-center-x="-39.264055"
       inkscape:transform-center-y="-18.59095" />
    <path
       id="path10"
       style="fill:#00ffcc;fill-opacity:1;stroke-width:1;stroke-linecap:round;stroke-linejoin:round;stroke-miterlimit:1;paint-order:markers stroke fill"
       d="M 84.596927,4.8006873 94.354708,18.065096 79.27134,24.672901 C 55.372773,18.269766 31.076812,32.295902 24.673213,56.194458 L 4.8007895,50.869658 C 14.082372,16.230322 49.957611,-4.4808875 84.596948,4.8006951 Z"
       sodipodi:nodetypes="ccccccc"
       inkscape:transform-center-x="18.59095"
       inkscape:transform-center-y="-39.264057" />
    <path
       id="path13"
       style="fill:#00ccff;fill-opacity:1;stroke-width:1;stroke-linecap:round;stroke-linejoin:round;stroke-miterlimit:1;paint-order:markers stroke fill"
       d="m 4.800765,50.869657 13.264413,-9.757788 6.607802,15.083365 c -6.403132,23.898567 7.623,48.194536 31.521559,54.598126 l -5.324803,19.87242 C 16.230403,121.3842 -4.4808098,85.508963 4.8007727,50.869628 Z"
       sodipodi:nodetypes="ccccccc"
       inkscape:transform-center-x="39.264057"
       inkscape:transform-center-y="18.590951" />
    <path
       id="path14"
       style="fill:#00ff00;fill-opacity:1;stroke-width:1;stroke-linecap:round;stroke-linejoin:round;stroke-miterlimit:1;paint-order:markers stroke fill"
       d="m 50.86973,130.66581 -9.757785,-13.26442 15.083369,-6.6078 c 11.949284,3.20157 23.997915,1.29582 33.859678,-4.39765 9.861771,-5.69346 24.680868,9.3582 10.221948,17.70572 -14.458924,8.34752 -32.087568,11.20492 -49.407236,6.56413 l 1.3e-5,1e-5 z"
       sodipodi:nodetypes="cccssccc"
       inkscape:transform-center-x="-6.1206251"
       inkscape:transform-center-y="52.508805" />
    <path
       id="path26"
       style="fill:#00ccff;fill-opacity:1;stroke-width:1.02399;stroke-linecap:round;stroke-linejoin:round;stroke-miterlimit:1;paint-order:markers stroke fill"
       d="m 111.18792,77.796462 c -0.81383,-0.217264 -1.64982,0.265872 -1.86788,1.079497 -3.09623,11.555302 -10.504736,20.69996 -20.028078,26.198041 -9.523331,5.49807 -21.14699,7.34147 -32.702336,4.24547 -0.334137,-0.0898 -0.688846,-0.0633 -1.005976,0.075 l -15.082651,6.60912 c -0.895655,0.39214 -1.19676,1.51353 -0.617996,2.30157 l 9.757703,13.26345 c 0.205137,0.27946 0.499301,0.48078 0.834081,0.5708 1.107482,0.29674 2.217435,0.5624 3.326916,0.7998 1.109318,0.23737 2.219444,0.44647 3.328907,0.62545 1.109376,0.17895 2.217761,0.32904 3.325426,0.45057 1.107568,0.12152 2.213349,0.21462 3.317475,0.27969 1.104022,0.0651 2.205784,0.10115 3.304566,0.11078 1.099051,0.01 2.19442,-0.008 3.285685,-0.0527 1.09137,-0.0448 2.180328,-0.11582 3.263325,-0.2141 1.082833,-0.0982 2.159062,-0.22292 3.231043,-0.37358 1.072019,-0.15067 2.139923,-0.32746 3.199743,-0.52957 1.059801,-0.20211 2.112468,-0.43107 3.158012,-0.68357 1.045524,-0.25247 2.082965,-0.52969 3.1128,-0.8316 1.029807,-0.3019 2.052501,-0.62789 3.06462,-0.97815 1.011984,-0.35021 2.01448,-0.72302 3.007488,-1.12073 0.993094,-0.39775 1.974768,-0.81988 2.946386,-1.2638 0.971859,-0.44406 1.932796,-0.91153 2.881805,-1.40091 0.948883,-0.48932 1.886006,-0.99966 2.810776,-1.53356 14.79348,-8.54067 26.3519,-22.71116 31.10024,-40.432193 0.21852,-0.814482 -0.26489,-1.651834 -1.07951,-1.86987 l -2.33787,2.534557 c -4.76751,16.223996 -15.49872,29.209216 -29.207522,37.123666 -0.88258,0.50954 -1.778782,0.99715 -2.685079,1.4645 -0.906191,0.46729 -1.822898,0.91292 -2.750661,1.33683 -0.928022,0.42401 -1.866667,0.82765 -2.814243,1.20717 -0.947642,0.37954 -1.904572,0.73614 -2.870874,1.07054 -0.966177,0.33437 -1.940815,0.64486 -2.923536,0.93296 -0.982721,0.2881 -1.974354,0.55336 -2.972217,0.79434 -0.997824,0.24095 -2.002435,0.45847 -3.013448,0.65127 -1.011003,0.19281 -2.028352,0.36147 -3.051209,0.50523 -1.022885,0.14376 -2.050318,0.26298 -3.083,0.35669 -1.032536,0.0937 -2.07139,0.1619 -3.112801,0.20466 -1.041516,0.0428 -2.086088,0.0598 -3.13367,0.0507 -1.047851,-0.01 -2.0975,-0.0448 -3.150562,-0.10681 -1.052974,-0.0621 -2.108882,-0.15085 -3.165462,-0.26677 -1.056503,-0.11592 -2.114967,-0.25947 -3.173412,-0.43021 -1.058358,-0.17073 -2.11615,-0.36859 -3.174903,-0.59513 -0.890165,-0.19048 -1.780666,-0.4112 -2.670178,-0.64184 l -8.296675,-11.28082 12.932595,-5.66624 c 12.144945,3.08365 24.37887,1.1437 34.412251,-4.64884 9.782746,-5.64778 17.374886,-14.979211 20.906926,-26.616796 z"
       sodipodi:nodetypes="ccsccccccssssscsssssssssccccssssssssscsccssscccccc" />
    <path
       id="path24"
       style="fill:#00ff00;stroke-width:1;stroke-linecap:round;stroke-linejoin:round;stroke-miterlimit:1;paint-order:markers stroke fill"
       d="M 84.991861,3.3260871 C 84.178025,3.1088282 83.342049,3.5919629 83.123982,4.405584 l 2.532566,2.3373369 C 118.43552,16.375184 137.90912,50.523331 129.29743,83.709105 L 118.0355,91.994851 112.36727,79.05629 C 118.45447,55.071844 104.6713,30.895457 81.1016,23.740648 l -3.302576,0.537014 c -0.21771,0.813395 0.264441,1.649443 1.077509,1.868379 23.110607,6.192467 36.635537,29.619244 30.443507,52.729916 -0.0892,0.334515 -0.0621,0.689425 0.077,1.006472 l 6.60714,15.084638 c 0.39291,0.895282 1.51452,1.195411 2.30206,0.616004 l 13.26494,-9.758194 -0.17088,-0.176356 c 0.15687,-0.0094 0.31137,-0.04286 0.45802,-0.09936 0.0871,-0.200819 0.12995,-0.418021 0.12569,-0.636868 l 0.15599,0.079 C 141.63666,49.549275 120.43393,12.822755 84.991861,3.3260871 Z"
       sodipodi:nodetypes="ccccccccccccccccccc" />
    <path
       id="path22"
       style="fill:#0000ff;stroke-width:1;stroke-linecap:round;stroke-linejoin:round;stroke-miterlimit:1;paint-order:markers stroke fill"
       d="m 67.57038,1.0587964 c -0.822556,0.00317 -1.643554,0.021466 -2.462024,0.055142 C 36.734836,2.2814371 11.042712,21.677047 3.3266665,50.473719 c -0.2175762,0.813995 0.265623,1.650317 1.0794882,1.868378 L 6.7453889,49.809015 C 14.583321,23.137173 38.634822,5.2486066 65.223013,4.1596643 71.310578,3.9103433 77.527037,4.5642876 83.709581,6.1686316 L 91.995326,17.432061 79.056771,23.098797 C 55.073043,17.012723 30.896426,30.795445 23.741725,54.364477 l 0.537235,3.30254 c 0.814029,0.218629 1.651167,-0.263996 1.869869,-1.078006 6.192464,-23.110598 29.61726,-36.635037 52.727925,-30.443002 0.335136,0.0897 0.690825,0.06254 1.008456,-0.077 l 15.08266,-6.60714 c 0.895828,-0.392304 1.196731,-1.5141 0.617486,-2.302066 L 85.827663,3.8948613 85.70744,4.0468752 C 85.596119,3.781457 85.412017,3.5529256 85.176387,3.3876521 c -0.07661,0.014247 -0.152004,0.034348 -0.225536,0.060112 l 0.04125,-0.1217102 C 79.177389,1.7680073 73.328538,1.0367119 67.57061,1.0587627 Z"
       sodipodi:nodetypes="cccccsccccccccccccccccc" />
    <path
       id="path20"
       style="fill:#00ffcc;fill-opacity:1;stroke-width:1.02399;stroke-linecap:round;stroke-linejoin:round;stroke-miterlimit:1;paint-order:markers stroke fill"
       d="m 17.782381,39.611685 c -0.225007,0.04246 -0.437574,0.134983 -0.621966,0.270744 l -13.2629536,9.757697 0.385,0.195234 c -0.3896048,0.08011 -0.732547,0.309155 -0.9557949,0.638359 -9.4966553,35.442008 11.7060725,72.169021 47.1481205,81.665701 0.814481,0.21852 1.651831,-0.26489 1.869869,-1.07951 l -2.533018,-2.3385 C 17.031607,119.09052 -2.4425761,84.942739 6.1692203,51.756397 L 17.432652,43.47065 23.099388,56.405238 c -6.088545,23.985592 7.696377,48.164702 31.26765,55.319112 l 3.302557,-0.53627 c 0.217229,-0.81399 -0.266172,-1.65003 -1.079989,-1.86788 -23.110588,-6.19321 -36.635011,-29.620482 -30.442988,-52.731155 0.08988,-0.334286 0.06344,-0.68919 -0.07498,-1.00647 L 19.462513,40.498432 c -0.185939,-0.424635 -0.554779,-0.741754 -1.002496,-0.861908 -0.221152,-0.05898 -0.452735,-0.06748 -0.677607,-0.02485 z"
       sodipodi:nodetypes="scccccccccccccccccss" />
    <path
       id="path36"
       style="fill:#00ccff;fill-opacity:1;stroke-width:1.02399;stroke-linecap:round;stroke-linejoin:round;stroke-miterlimit:1;paint-order:markers stroke fill"
       d="m 89.291962,105.074 c -9.523331,5.49807 -21.14699,7.34147 -32.702336,4.24547 -0.334137,-0.0898 -0.688846,-0.0633 -1.005976,0.075 l -15.082651,6.60912 c -0.895655,0.39214 -1.19676,1.51353 -0.617996,2.30157 l 9.757703,13.26345 c 0.205137,0.27946 0.499301,0.48078 0.834081,0.5708 1.107482,0.29674 2.217435,0.5624 3.326916,0.7998 1.109318,0.23737 2.219444,0.44647 3.328907,0.62545 1.109376,0.17895 2.217761,0.32904 3.325426,0.45057 1.107568,0.12152 2.213349,0.21462 3.317475,0.27969 1.104022,0.0651 2.205784,0.10115 3.304566,0.11078 1.099051,0.01 2.19442,-0.008 3.285685,-0.0527 1.09137,-0.0448 2.180328,-0.11582 3.263325,-0.2141 1.082833,-0.0982 2.159062,-0.22292 3.231043,-0.37358 1.072019,-0.15067 2.139923,-0.32746 3.199743,-0.52957 1.059801,-0.20211 2.112468,-0.43107 3.158012,-0.68357 1.045524,-0.25247 2.082965,-0.52969 3.1128,-0.8316 1.029807,-0.3019 2.052501,-0.62789 3.06462,-0.97815 1.011984,-0.35021 2.01448,-0.72302 3.007488,-1.12073 0.993094,-0.39775 1.974768,-0.81988 2.946386,-1.2638 0.971859,-0.44406 1.932796,-0.91153 2.881805,-1.40091 0.948883,-0.48932 1.886006,-0.99966 2.810776,-1.53356 5.9082,-5.73333 12.18414,-10.55829 -1.524662,-2.64384 -0.88258,0.50954 -1.778782,0.99715 -2.685079,1.4645 -0.906191,0.46729 -1.822898,0.91292 -2.750661,1.33683 -0.928022,0.42401 -1.866667,0.82765 -2.814243,1.20717 -0.947642,0.37954 -1.904572,0.73614 -2.870874,1.07054 -0.966177,0.33437 -1.940815,0.64486 -2.923536,0.93296 -0.982721,0.2881 -1.974354,0.55336 -2.972217,0.79434 -0.997824,0.24095 -2.002435,0.45847 -3.013448,0.65127 -1.011003,0.19281 -2.028352,0.36147 -3.051209,0.50523 -1.022885,0.14376 -2.050318,0.26298 -3.083,0.35669 -1.032536,0.0937 -2.07139,0.1619 -3.112801,0.20466 -1.041516,0.0428 -2.086088,0.0598 -3.13367,0.0507 -1.047851,-0.01 -2.0975,-0.0448 -3.150562,-0.10681 -1.052974,-0.0621 -2.108882,-0.15085 -3.165462,-0.26677 -1.056503,-0.11592 -2.114967,-0.25947 -3.173412,-0.43021 -1.058358,-0.17073 -2.11615,-0.36859 -3.174903,-0.59513 -0.890165,-0.19048 -1.780666,-0.4112 -2.670178,-0.64184 l -8.296675,-11.28082 12.932595,-5.66624 c 12.144945,3.08365 24.37887,1.1437 34.412251,-4.64884 9.782746,-5.64778 7.99729,-8.141951 -1.526052,-2.64387 z"
       sodipodi:nodetypes="sccccccssssscssssssssscssssssssscsccsssccccs" />
    <path
       id="path54"
       style="display:none;stroke:#ffffff;stroke-width:3.175;stroke-linecap:round;stroke-linejoin:round;stroke-miterlimit:1;stroke-dasharray:none;stroke-opacity:1;paint-order:markers stroke fill"
       d="m 67.732299,11.857674 c -16.755435,0 -30.542838,13.767414 -30.542838,30.544905 0,9.706218 3.721625,17.711444 8.94519,23.007381 5.223564,5.295938 11.334695,8.221321 16.599504,10.818461 5.264809,2.59714 9.708745,4.901875 12.273669,7.30498 2.564925,2.403105 3.830257,4.334909 3.830257,9.531202 0,6.224997 -4.826987,11.070127 -11.105782,11.070127 -6.278517,0 -11.102773,-4.845568 -11.103198,-11.070127 a 8.4675129,8.4675129 0 0 0 -8.467183,-8.465117 h -2.505791 a 8.4675129,8.4675129 0 0 0 -8.466666,8.466667 c 8.95e-4,16.776777 13.788026,30.543357 30.542838,30.543357 16.755433,0 30.544905,-13.76741 30.544905,-30.544907 0,-9.706204 -3.721613,-17.712011 -8.94519,-23.007898 C 84.108437,64.760817 77.997291,61.835337 72.73251,59.238244 67.467729,56.641151 63.023741,54.336892 60.458841,51.93378 c -2.5649,-2.403113 -3.82974,-4.334679 -3.82974,-9.531201 0,-6.224993 4.823702,-11.068575 11.103198,-11.068575 6.279495,0 11.105782,4.843582 11.105782,11.068575 a 8.4675129,8.4675129 0 0 0 8.466666,8.466667 h 2.505791 a 8.4675129,8.4675129 0 0 0 8.466666,-8.466667 c 0,-16.777499 -13.789472,-30.544905 -30.544905,-30.544905 z" />
    <path
       id="path8"
       style="opacity:1;fill:url(#radialGradient10);stroke-linecap:round;stroke-linejoin:round;stroke-miterlimit:1;paint-order:markers stroke fill"
       d="m 67.732302,29.632815 c -11.58957,0 -21.13463,9.532211 -21.13463,21.136694 a 6.3506349,6.3506349 0 0 0 6.34948,6.349483 h 1.68001 a 6.3506349,6.3506349 0 0 0 6.34948,-6.349483 c 0,-3.802065 2.91591,-6.734472 6.75566,-6.734472 3.83974,0 6.75773,2.932407 6.75773,6.734472 0,3.316952 -0.73905,4.378378 -2.34922,5.886979 -1.61016,1.508601 -4.52629,3.037421 -8.05687,4.779037 -3.53057,1.741616 -7.69436,3.722743 -11.29853,7.37681 -3.60418,3.654067 -6.18774,9.233836 -6.18774,15.884819 0,11.604486 9.54506,21.136696 21.13463,21.136696 11.58913,0 21.13607,-9.53064 21.13669,-21.134629 a 6.3506349,6.3506349 0 0 0 -6.34948,-6.349483 h -1.67948 a 6.3506349,6.3506349 0 0 0 -6.35,6.349483 c -2.6e-4,3.801789 -2.91869,6.732405 -6.75773,6.732405 -3.83922,0 -6.75566,-2.932401 -6.75566,-6.734472 0,-3.316795 0.73954,-4.377865 2.34973,-5.886463 1.61018,-1.508598 4.52576,-3.037904 8.05635,-4.779553 3.5306,-1.741649 7.69489,-3.72271 11.29905,-7.37681 3.60417,-3.6541 6.18722,-9.233826 6.18722,-15.884819 0,-11.604477 -9.54712,-21.136694 -21.13669,-21.136694 z" />
    <path
       id="path53"
       style="display:inline;fill:#00ccff;fill-opacity:1;stroke:#00ccff;stroke-width:12.7;stroke-linecap:round;stroke-linejoin:round;stroke-miterlimit:1;stroke-dasharray:none;stroke-opacity:1;paint-order:markers stroke fill"
       d="m 67.733294,35.983346 c -8.148999,0 -14.785543,6.622957 -14.785543,14.78555 0,20.974356 27.892331,14.564149 27.892331,33.928883 0,7.228758 -5.851344,13.083773 -13.10679,13.083773 -7.255134,0 -13.106297,-5.854534 -13.10679,-13.08287 h -1.678751 c 4.35e-4,8.162176 6.636855,14.78465 14.785541,14.78465 8.148997,0 14.785553,-6.622956 14.785553,-14.785553 0,-20.97432 -27.892273,-14.563694 -27.892273,-33.928897 0,-7.228754 5.851345,-13.082875 13.106789,-13.082875 7.255446,0 13.106791,5.854121 13.106791,13.082875 h 1.678761 c 0,-8.162593 -6.636556,-14.78555 -14.785552,-14.78555 z"
       sodipodi:nodetypes="ssssccssssccss" />
    <path
       id="path6"
       style="fill:#ffffff;stroke-linecap:round;stroke-linejoin:round;stroke-miterlimit:1;paint-order:markers stroke fill"
       d="m 67.73203,29.633591 c -11.58957,0 -21.13462,9.530669 -21.13462,21.135144 0,6.650993 2.58356,12.232268 6.18773,15.886368 3.60416,3.6541 7.76795,5.635679 11.29854,7.377328 3.5306,1.741649 6.44669,3.268371 8.05687,4.776969 1.61019,1.508598 2.34973,2.572251 2.34973,5.889046 0,3.802067 -2.91904,6.732406 -6.75825,6.732406 -3.83905,0 -6.7554,-2.930617 -6.75566,-6.732406 a 6.3506349,6.3506349 0 0 0 -6.34948,-6.35 h -1.68 a 6.3506349,6.3506349 0 0 0 -6.34948,6.35 c 6.1e-4,11.603991 9.54548,21.134624 21.13462,21.134624 11.58956,0 21.13721,-9.530136 21.13721,-21.134624 0,-6.650983 -2.58356,-12.232819 -6.18773,-15.886885 -3.60417,-3.654067 -7.77003,-5.635195 -11.3006,-7.376811 -3.53057,-1.741617 -6.44463,-3.268885 -8.0548,-4.777486 -1.61016,-1.508601 -2.34974,-2.571577 -2.34974,-5.888529 0,-3.802068 2.91592,-6.732406 6.75567,-6.732406 3.83974,0 6.75825,2.930344 6.75825,6.732406 a 6.3506349,6.3506349 0 0 0 6.34947,6.349483 h 1.67948 a 6.3506349,6.3506349 0 0 0 6.35001,-6.349483 c 0,-11.604486 -9.54765,-21.135144 -21.13722,-21.135144 z" />
    <path
       id="path2"
       style="display:none;opacity:0.2;fill:#00ccff;stroke-linecap:round;stroke-linejoin:round;stroke-miterlimit:1;paint-order:markers stroke fill"
       d="m 79.76955,33.444211 c 2.3938,3.423688 3.80804,7.57358 3.80804,12.032857 a 6.3506349,6.3506349 0 0 1 -6.35,6.349483 H 75.5481 a 6.3506349,6.3506349 0 0 1 -0.91312,-0.144694 6.3506349,6.3506349 0 0 0 6.20479,5.436361 h 1.67948 a 6.3506349,6.3506349 0 0 0 6.35,-6.349483 c 0,-7.140686 -3.61821,-13.491698 -9.0997,-17.324524 z m -17.32917,5.300452 c -3.83975,0 -6.75566,2.930337 -6.75566,6.732405 0,3.316952 0.73956,4.379929 2.34972,5.88853 0.79281,0.742797 1.90438,1.490288 3.24735,2.265494 -0.20425,-0.742189 -0.30541,-1.649265 -0.30541,-2.862357 0,-3.802068 2.91591,-6.732406 6.75566,-6.732406 0.46275,0 0.9111,0.04457 1.34359,0.126091 -0.58664,-3.141678 -3.25208,-5.417757 -6.63525,-5.417757 z M 50.65092,64.07645 c 0.65704,0.938902 1.37072,1.804569 2.13423,2.578653 3.60416,3.6541 7.76795,5.635679 11.29854,7.377328 1.79265,0.884318 3.42422,1.712731 4.80952,2.511991 -0.35419,-1.287589 -1.0229,-2.069717 -2.04432,-3.026688 -1.61018,-1.508598 -4.52627,-3.035321 -8.05687,-4.77697 -2.53508,-1.250563 -5.39468,-2.636005 -8.1411,-4.664314 z m 28.87369,2.022615 c 2.44434,3.493281 4.05298,8.065971 4.05298,13.307715 0,11.604488 -9.54765,21.13463 -21.13721,21.13463 -4.45739,0 -8.60909,-1.41414 -12.03493,-3.80959 3.83502,5.48521 10.19124,9.10125 17.32659,9.10125 11.58956,0 21.13721,-9.530136 21.13721,-21.134624 0,-6.650983 -2.58356,-12.232819 -6.18773,-15.886885 C 81.66548,67.78146 80.6031,66.89538 79.52461,66.099065 Z M 55.54002,78.49314 a 6.3506349,6.3506349 0 0 1 0.1447,0.91364 c 2.3e-4,3.344522 2.25798,6.012863 5.41465,6.606832 -0.0792,-0.42411 -0.12296,-0.862936 -0.12299,-1.315166 A 6.3506349,6.3506349 0 0 0 55.54002,78.49314 Z" />
    <path
       id="path4"
       style="display:none;opacity:0.2;fill:#00ffcc;fill-opacity:1;stroke-linecap:round;stroke-linejoin:round;stroke-miterlimit:1;paint-order:markers stroke fill"
       d="m 67.73204,29.633591 c -11.58957,0 -21.13463,9.530669 -21.13463,21.135144 0,6.650993 2.58356,12.232269 6.18773,15.886369 1.01594,1.03001 2.07825,1.915665 3.1564,2.711979 -2.44411,-3.493075 -4.05247,-8.065223 -4.05247,-13.306681 0,-11.604475 9.54506,-21.135144 21.13463,-21.135144 4.45818,0 8.61138,1.414005 12.03803,3.810104 -3.83567,-5.485707 -10.19379,-9.101771 -17.32969,-9.101771 z m 6.63525,19.820496 c 0.0791,0.423836 0.12299,0.862723 0.12299,1.314648 a 6.3506349,6.3506349 0 0 0 5.43636,6.20479 6.3506349,6.3506349 0 0 1 -0.14469,-0.913123 c 0,-3.343871 -2.25844,-6.011445 -5.41466,-6.606315 z m -7.79384,9.468673 c 0.35423,1.287155 1.02304,2.069312 2.04432,3.026171 1.61017,1.508601 4.52423,3.03587 8.0548,4.777487 2.53531,1.250654 5.39644,2.635843 8.14369,4.664314 -0.65718,-0.939218 -1.37105,-1.804894 -2.13475,-2.57917 C 79.07734,65.157495 74.91148,63.176367 71.38091,61.434751 69.5887,60.550663 67.95802,59.721976 66.57345,58.92276 Z M 52.94689,78.348447 a 6.3506349,6.3506349 0 0 0 -6.34948,6.35 c 3.7e-4,7.140894 3.6184,13.492353 9.0997,17.325043 -2.39376,-3.423793 -3.8078,-7.573884 -3.80804,-12.033376 a 6.3506349,6.3506349 0 0 1 6.34949,-6.35 h 1.68 a 6.3506349,6.3506349 0 0 1 0.91312,0.144694 6.3506349,6.3506349 0 0 0 -6.20479,-5.436361 z m 21.23798,3.487642 c 0.20417,0.742205 0.30541,1.649555 0.30541,2.862358 0,3.802067 -2.91903,6.732405 -6.75824,6.732405 -0.46194,0 -0.90926,-0.04482 -1.34101,-0.12609 0.58644,3.141517 3.25012,5.417757 6.63267,5.417757 3.83921,0 6.75825,-2.930338 6.75825,-6.732405 0,-3.316795 -0.73954,-4.380449 -2.34973,-5.889047 -0.79261,-0.742608 -1.90433,-1.490112 -3.24735,-2.264978 z" />
    <path
       id="path7"
       style="fill:#ffffff;stroke:#000000;stroke-width:1.5875;stroke-linecap:round;stroke-linejoin:round;stroke-miterlimit:1;stroke-dasharray:none;stroke-opacity:1;paint-order:markers stroke fill"
       d="m 67.73203,29.633591 c -11.58957,0 -21.13462,9.530669 -21.13462,21.135144 0,6.650993 2.58356,12.232268 6.18773,15.886368 3.60416,3.6541 7.76795,5.635679 11.29854,7.377328 3.5306,1.741649 6.44669,3.268371 8.05687,4.776969 1.61019,1.508598 2.34973,2.572251 2.34973,5.889046 0,3.802067 -2.91904,6.732406 -6.75825,6.732406 -3.83905,0 -6.7554,-2.930617 -6.75566,-6.732406 a 6.3506349,6.3506349 0 0 0 -6.34948,-6.35 h -1.68 a 6.3506349,6.3506349 0 0 0 -6.34948,6.35 c 6.1e-4,11.603991 9.54548,21.134624 21.13462,21.134624 11.58956,0 21.13721,-9.530136 21.13721,-21.134624 0,-6.650983 -2.58356,-12.232819 -6.18773,-15.886885 -3.60417,-3.654067 -7.77003,-5.635195 -11.3006,-7.376811 -3.53057,-1.741617 -6.44463,-3.268885 -8.0548,-4.777486 -1.61016,-1.508601 -2.34974,-2.571577 -2.34974,-5.888529 0,-3.802068 2.91592,-6.732406 6.75567,-6.732406 3.83974,0 6.75825,2.930344 6.75825,6.732406 a 6.3506349,6.3506349 0 0 0 6.34947,6.349483 h 1.67948 a 6.3506349,6.3506349 0 0 0 6.35001,-6.349483 c 0,-11.604486 -9.54765,-21.135144 -21.13722,-21.135144 z" />
  </g>
</svg>
