<?xml version="1.0" encoding="UTF-8" standalone="no"?>
<!-- Created with Inkscape (http://www.inkscape.org/) -->

<svg
   width="512"
   height="512"
   viewBox="0 0 135.46666 135.46667"
   version="1.1"
   id="svg5"
   inkscape:version="1.3.2 (091e20ef0f, 2023-11-25, custom)"
   sodipodi:docname="system-software-update.svg"
   xmlns:inkscape="http://www.inkscape.org/namespaces/inkscape"
   xmlns:sodipodi="http://sodipodi.sourceforge.net/DTD/sodipodi-0.dtd"
   xmlns="http://www.w3.org/2000/svg"
   xmlns:svg="http://www.w3.org/2000/svg">
  <sodipodi:namedview
     id="namedview7"
     pagecolor="#292929"
     bordercolor="#666666"
     borderopacity="1"
     inkscape:showpageshadow="0"
     inkscape:pageopacity="0"
     inkscape:pagecheckerboard="1"
     inkscape:deskcolor="#1a1a1a"
     inkscape:document-units="px"
     showgrid="false"
     inkscape:zoom="1"
     inkscape:cx="457.5"
     inkscape:cy="276"
     inkscape:window-width="3256"
     inkscape:window-height="1080"
     inkscape:window-x="1864"
     inkscape:window-y="0"
     inkscape:window-maximized="0"
     inkscape:current-layer="layer1" />
  <defs
     id="defs2">
    <clipPath
       clipPathUnits="userSpaceOnUse"
       id="clipPath109">
      <path
         id="path110"
         style="display:inline;opacity:1;fill:#e9afaf;fill-opacity:1;stroke:none;stroke-width:2.11667;stroke-dasharray:none;paint-order:markers stroke fill"
         d="m 274.63202,117.82617 -2.79135,-7.11339 -2.10585,-2.73581 -3.71107,-2.95761 5.95905,-8.910828 4.14959,2.297684 3.33433,0.901459 7.63813,-0.154567 1.39586,-3.347135 -5.30426,-5.513999 -2.9949,-1.722532 -4.557,-1.309254 2.08722,-10.509853 4.7112,0.537514 3.43302,-0.444701 7.00265,-3.062843 v -3.630692 l -7.00265,-3.062848 -3.43302,-0.444701 -4.7112,0.537514 -2.08722,-10.509848 4.557,-1.309259 2.9949,-1.722532 5.30426,-5.513996 -1.39586,-3.347133 -7.63813,-0.154567 -3.33433,0.901457 -4.14959,2.297684 -5.95905,-8.910828 3.71107,-2.957608 2.10585,-2.735807 2.79135,-7.113389 -2.56881,-2.568814 -7.11338,2.791348 -2.73582,2.105844 -2.95761,3.711077 -8.91083,-5.959064 2.29768,-4.149569 0.90146,-3.334343 -0.15456,-7.638116 -3.34714,-1.3958567 -5.51399,5.3042577 -1.72254,2.99488 -1.30925,4.556998 -10.50985,-2.087207 0.53751,-4.711198 -0.44507,-3.433371 -3.06248,-7.0023055 -3.63068,4.2e-6 -3.06286,7.0026663 -0.44469,3.433002 0.53751,4.7112 -10.50985,2.087205 -1.30925,-4.556992 -1.72254,-2.994882 -5.514,-5.3042551 -3.34713,1.3958561 -0.15458,7.638113 0.90147,3.334344 2.29769,4.14957 -8.91083,5.959069 -2.95761,-3.711083 -2.73582,-2.105847 -7.11338,-2.791344 -2.56881,2.568812 2.79135,7.113392 2.10584,2.735805 3.71108,2.957613 -5.95906,8.910823 -4.14958,-2.297679 -3.33435,-0.901467 -7.6381,0.154572 -1.39586,3.347133 5.30426,5.513996 2.99488,1.722538 4.55699,1.309253 -2.0872,10.509848 -4.7112,-0.537514 -3.43337,0.445066 -7.00231,3.062489 V 73.7803 l 7.00231,3.062486 3.43337,0.445069 4.7112,-0.537517 2.0872,10.509853 -4.55699,1.309251 -2.99489,1.722535 -5.30425,5.513996 1.39586,3.347135 7.63811,0.154562 3.33434,-0.901457 4.14994,-2.297318 5.9587,8.910465 -3.71108,2.95761 -2.10584,2.73581 -2.79135,7.11339 2.56881,2.56881 7.11339,-2.79135 2.73581,-2.10584 2.35249,-2.94519 0.60512,-0.76589 8.91082,5.95906 -2.29768,4.14958 -0.90147,3.33434 0.15458,7.63811 3.34713,1.39586 5.51399,-5.30425 1.72255,-2.99489 1.30925,-4.55699 10.50984,2.08721 -0.53751,4.71119 0.44471,3.43301 3.06284,7.00266 3.63069,10e-6 3.06285,-7.00268 0.4447,-3.433 -0.53751,-4.7112 10.50985,-2.0872 1.30925,4.55699 1.72254,2.99488 5.51399,5.30426 3.34714,-1.39586 0.15456,-7.63811 -0.90146,-3.33435 -2.29768,-4.14956 8.91083,-5.95907 2.95761,3.71108 2.73582,2.10584 7.11338,2.79135 z M 235.31599,81.078953 c -5.02425,5.024252 -13.20374,5.024249 -18.22799,0 -5.02425,-5.024255 -5.02425,-13.203735 0,-18.227993 5.02425,-5.024249 13.20374,-5.024249 18.22799,6e-6 5.02425,5.024249 5.02425,13.203737 0,18.227987 z" />
    </clipPath>
    <clipPath
       clipPathUnits="userSpaceOnUse"
       id="clipPath110">
      <path
         id="path111"
         style="display:inline;opacity:1;fill:#e9afaf;fill-opacity:1;stroke:none;stroke-width:2.11667;stroke-dasharray:none;paint-order:markers stroke fill"
         d="m 274.63202,117.82617 -2.79135,-7.11339 -2.10585,-2.73581 -3.71107,-2.95761 5.95905,-8.910828 4.14959,2.297684 3.33433,0.901459 7.63813,-0.154567 1.39586,-3.347135 -5.30426,-5.513999 -2.9949,-1.722532 -4.557,-1.309254 2.08722,-10.509853 4.7112,0.537514 3.43302,-0.444701 7.00265,-3.062843 v -3.630692 l -7.00265,-3.062848 -3.43302,-0.444701 -4.7112,0.537514 -2.08722,-10.509848 4.557,-1.309259 2.9949,-1.722532 5.30426,-5.513996 -1.39586,-3.347133 -7.63813,-0.154567 -3.33433,0.901457 -4.14959,2.297684 -5.95905,-8.910828 3.71107,-2.957608 2.10585,-2.735807 2.79135,-7.113389 -2.56881,-2.568814 -7.11338,2.791348 -2.73582,2.105844 -2.95761,3.711077 -8.91083,-5.959064 2.29768,-4.149569 0.90146,-3.334343 -0.15456,-7.638116 -3.34714,-1.3958567 -5.51399,5.3042577 -1.72254,2.99488 -1.30925,4.556998 -10.50985,-2.087207 0.53751,-4.711198 -0.44507,-3.433371 -3.06248,-7.0023055 -3.63068,4.2e-6 -3.06286,7.0026663 -0.44469,3.433002 0.53751,4.7112 -10.50985,2.087205 -1.30925,-4.556992 -1.72254,-2.994882 -5.514,-5.3042551 -3.34713,1.3958561 -0.15458,7.638113 0.90147,3.334344 2.29769,4.14957 -8.91083,5.959069 -2.95761,-3.711083 -2.73582,-2.105847 -7.11338,-2.791344 -2.56881,2.568812 2.79135,7.113392 2.10584,2.735805 3.71108,2.957613 -5.95906,8.910823 -4.14958,-2.297679 -3.33435,-0.901467 -7.6381,0.154572 -1.39586,3.347133 5.30426,5.513996 2.99488,1.722538 4.55699,1.309253 -2.0872,10.509848 -4.7112,-0.537514 -3.43337,0.445066 -7.00231,3.062489 V 73.7803 l 7.00231,3.062486 3.43337,0.445069 4.7112,-0.537517 2.0872,10.509853 -4.55699,1.309251 -2.99489,1.722535 -5.30425,5.513996 1.39586,3.347135 7.63811,0.154562 3.33434,-0.901457 4.14994,-2.297318 5.9587,8.910465 -3.71108,2.95761 -2.10584,2.73581 -2.79135,7.11339 2.56881,2.56881 7.11339,-2.79135 2.73581,-2.10584 2.35249,-2.94519 0.60512,-0.76589 8.91082,5.95906 -2.29768,4.14958 -0.90147,3.33434 0.15458,7.63811 3.34713,1.39586 5.51399,-5.30425 1.72255,-2.99489 1.30925,-4.55699 10.50984,2.08721 -0.53751,4.71119 0.44471,3.43301 3.06284,7.00266 3.63069,10e-6 3.06285,-7.00268 0.4447,-3.433 -0.53751,-4.7112 10.50985,-2.0872 1.30925,4.55699 1.72254,2.99488 5.51399,5.30426 3.34714,-1.39586 0.15456,-7.63811 -0.90146,-3.33435 -2.29768,-4.14956 8.91083,-5.95907 2.95761,3.71108 2.73582,2.10584 7.11338,2.79135 z M 235.31599,81.078953 c -5.02425,5.024252 -13.20374,5.024249 -18.22799,0 -5.02425,-5.024255 -5.02425,-13.203735 0,-18.227993 5.02425,-5.024249 13.20374,-5.024249 18.22799,6e-6 5.02425,5.024249 5.02425,13.203737 0,18.227987 z" />
    </clipPath>
    <clipPath
       clipPathUnits="userSpaceOnUse"
       id="clipPath111">
      <path
         id="path112"
         style="display:inline;opacity:1;fill:#e9afaf;fill-opacity:1;stroke:none;stroke-width:2.11667;stroke-dasharray:none;paint-order:markers stroke fill"
         d="m 274.63202,117.82617 -2.79135,-7.11339 -2.10585,-2.73581 -3.71107,-2.95761 5.95905,-8.910828 4.14959,2.297684 3.33433,0.901459 7.63813,-0.154567 1.39586,-3.347135 -5.30426,-5.513999 -2.9949,-1.722532 -4.557,-1.309254 2.08722,-10.509853 4.7112,0.537514 3.43302,-0.444701 7.00265,-3.062843 v -3.630692 l -7.00265,-3.062848 -3.43302,-0.444701 -4.7112,0.537514 -2.08722,-10.509848 4.557,-1.309259 2.9949,-1.722532 5.30426,-5.513996 -1.39586,-3.347133 -7.63813,-0.154567 -3.33433,0.901457 -4.14959,2.297684 -5.95905,-8.910828 3.71107,-2.957608 2.10585,-2.735807 2.79135,-7.113389 -2.56881,-2.568814 -7.11338,2.791348 -2.73582,2.105844 -2.95761,3.711077 -8.91083,-5.959064 2.29768,-4.149569 0.90146,-3.334343 -0.15456,-7.638116 -3.34714,-1.3958567 -5.51399,5.3042577 -1.72254,2.99488 -1.30925,4.556998 -10.50985,-2.087207 0.53751,-4.711198 -0.44507,-3.433371 -3.06248,-7.0023055 -3.63068,4.2e-6 -3.06286,7.0026663 -0.44469,3.433002 0.53751,4.7112 -10.50985,2.087205 -1.30925,-4.556992 -1.72254,-2.994882 -5.514,-5.3042551 -3.34713,1.3958561 -0.15458,7.638113 0.90147,3.334344 2.29769,4.14957 -8.91083,5.959069 -2.95761,-3.711083 -2.73582,-2.105847 -7.11338,-2.791344 -2.56881,2.568812 2.79135,7.113392 2.10584,2.735805 3.71108,2.957613 -5.95906,8.910823 -4.14958,-2.297679 -3.33435,-0.901467 -7.6381,0.154572 -1.39586,3.347133 5.30426,5.513996 2.99488,1.722538 4.55699,1.309253 -2.0872,10.509848 -4.7112,-0.537514 -3.43337,0.445066 -7.00231,3.062489 V 73.7803 l 7.00231,3.062486 3.43337,0.445069 4.7112,-0.537517 2.0872,10.509853 -4.55699,1.309251 -2.99489,1.722535 -5.30425,5.513996 1.39586,3.347135 7.63811,0.154562 3.33434,-0.901457 4.14994,-2.297318 5.9587,8.910465 -3.71108,2.95761 -2.10584,2.73581 -2.79135,7.11339 2.56881,2.56881 7.11339,-2.79135 2.73581,-2.10584 2.35249,-2.94519 0.60512,-0.76589 8.91082,5.95906 -2.29768,4.14958 -0.90147,3.33434 0.15458,7.63811 3.34713,1.39586 5.51399,-5.30425 1.72255,-2.99489 1.30925,-4.55699 10.50984,2.08721 -0.53751,4.71119 0.44471,3.43301 3.06284,7.00266 3.63069,10e-6 3.06285,-7.00268 0.4447,-3.433 -0.53751,-4.7112 10.50985,-2.0872 1.30925,4.55699 1.72254,2.99488 5.51399,5.30426 3.34714,-1.39586 0.15456,-7.63811 -0.90146,-3.33435 -2.29768,-4.14956 8.91083,-5.95907 2.95761,3.71108 2.73582,2.10584 7.11338,2.79135 z M 235.31599,81.078953 c -5.02425,5.024252 -13.20374,5.024249 -18.22799,0 -5.02425,-5.024255 -5.02425,-13.203735 0,-18.227993 5.02425,-5.024249 13.20374,-5.024249 18.22799,6e-6 5.02425,5.024249 5.02425,13.203737 0,18.227987 z" />
    </clipPath>
    <clipPath
       clipPathUnits="userSpaceOnUse"
       id="clipPath112">
      <path
         id="path113"
         style="display:inline;opacity:1;fill:#e9afaf;fill-opacity:1;stroke:none;stroke-width:2.11667;stroke-dasharray:none;paint-order:markers stroke fill"
         d="m 274.63202,117.82617 -2.79135,-7.11339 -2.10585,-2.73581 -3.71107,-2.95761 5.95905,-8.910828 4.14959,2.297684 3.33433,0.901459 7.63813,-0.154567 1.39586,-3.347135 -5.30426,-5.513999 -2.9949,-1.722532 -4.557,-1.309254 2.08722,-10.509853 4.7112,0.537514 3.43302,-0.444701 7.00265,-3.062843 v -3.630692 l -7.00265,-3.062848 -3.43302,-0.444701 -4.7112,0.537514 -2.08722,-10.509848 4.557,-1.309259 2.9949,-1.722532 5.30426,-5.513996 -1.39586,-3.347133 -7.63813,-0.154567 -3.33433,0.901457 -4.14959,2.297684 -5.95905,-8.910828 3.71107,-2.957608 2.10585,-2.735807 2.79135,-7.113389 -2.56881,-2.568814 -7.11338,2.791348 -2.73582,2.105844 -2.95761,3.711077 -8.91083,-5.959064 2.29768,-4.149569 0.90146,-3.334343 -0.15456,-7.638116 -3.34714,-1.3958567 -5.51399,5.3042577 -1.72254,2.99488 -1.30925,4.556998 -10.50985,-2.087207 0.53751,-4.711198 -0.44507,-3.433371 -3.06248,-7.0023055 -3.63068,4.2e-6 -3.06286,7.0026663 -0.44469,3.433002 0.53751,4.7112 -10.50985,2.087205 -1.30925,-4.556992 -1.72254,-2.994882 -5.514,-5.3042551 -3.34713,1.3958561 -0.15458,7.638113 0.90147,3.334344 2.29769,4.14957 -8.91083,5.959069 -2.95761,-3.711083 -2.73582,-2.105847 -7.11338,-2.791344 -2.56881,2.568812 2.79135,7.113392 2.10584,2.735805 3.71108,2.957613 -5.95906,8.910823 -4.14958,-2.297679 -3.33435,-0.901467 -7.6381,0.154572 -1.39586,3.347133 5.30426,5.513996 2.99488,1.722538 4.55699,1.309253 -2.0872,10.509848 -4.7112,-0.537514 -3.43337,0.445066 -7.00231,3.062489 V 73.7803 l 7.00231,3.062486 3.43337,0.445069 4.7112,-0.537517 2.0872,10.509853 -4.55699,1.309251 -2.99489,1.722535 -5.30425,5.513996 1.39586,3.347135 7.63811,0.154562 3.33434,-0.901457 4.14994,-2.297318 5.9587,8.910465 -3.71108,2.95761 -2.10584,2.73581 -2.79135,7.11339 2.56881,2.56881 7.11339,-2.79135 2.73581,-2.10584 2.35249,-2.94519 0.60512,-0.76589 8.91082,5.95906 -2.29768,4.14958 -0.90147,3.33434 0.15458,7.63811 3.34713,1.39586 5.51399,-5.30425 1.72255,-2.99489 1.30925,-4.55699 10.50984,2.08721 -0.53751,4.71119 0.44471,3.43301 3.06284,7.00266 3.63069,10e-6 3.06285,-7.00268 0.4447,-3.433 -0.53751,-4.7112 10.50985,-2.0872 1.30925,4.55699 1.72254,2.99488 5.51399,5.30426 3.34714,-1.39586 0.15456,-7.63811 -0.90146,-3.33435 -2.29768,-4.14956 8.91083,-5.95907 2.95761,3.71108 2.73582,2.10584 7.11338,2.79135 z M 235.31599,81.078953 c -5.02425,5.024252 -13.20374,5.024249 -18.22799,0 -5.02425,-5.024255 -5.02425,-13.203735 0,-18.227993 5.02425,-5.024249 13.20374,-5.024249 18.22799,6e-6 5.02425,5.024249 5.02425,13.203737 0,18.227987 z" />
    </clipPath>
    <clipPath
       clipPathUnits="userSpaceOnUse"
       id="clipPath113">
      <path
         id="path114"
         style="display:inline;opacity:1;fill:#e9afaf;fill-opacity:1;stroke:none;stroke-width:2.11667;stroke-dasharray:none;paint-order:markers stroke fill"
         d="m 274.63202,117.82617 -2.79135,-7.11339 -2.10585,-2.73581 -3.71107,-2.95761 5.95905,-8.910828 4.14959,2.297684 3.33433,0.901459 7.63813,-0.154567 1.39586,-3.347135 -5.30426,-5.513999 -2.9949,-1.722532 -4.557,-1.309254 2.08722,-10.509853 4.7112,0.537514 3.43302,-0.444701 7.00265,-3.062843 v -3.630692 l -7.00265,-3.062848 -3.43302,-0.444701 -4.7112,0.537514 -2.08722,-10.509848 4.557,-1.309259 2.9949,-1.722532 5.30426,-5.513996 -1.39586,-3.347133 -7.63813,-0.154567 -3.33433,0.901457 -4.14959,2.297684 -5.95905,-8.910828 3.71107,-2.957608 2.10585,-2.735807 2.79135,-7.113389 -2.56881,-2.568814 -7.11338,2.791348 -2.73582,2.105844 -2.95761,3.711077 -8.91083,-5.959064 2.29768,-4.149569 0.90146,-3.334343 -0.15456,-7.638116 -3.34714,-1.3958567 -5.51399,5.3042577 -1.72254,2.99488 -1.30925,4.556998 -10.50985,-2.087207 0.53751,-4.711198 -0.44507,-3.433371 -3.06248,-7.0023055 -3.63068,4.2e-6 -3.06286,7.0026663 -0.44469,3.433002 0.53751,4.7112 -10.50985,2.087205 -1.30925,-4.556992 -1.72254,-2.994882 -5.514,-5.3042551 -3.34713,1.3958561 -0.15458,7.638113 0.90147,3.334344 2.29769,4.14957 -8.91083,5.959069 -2.95761,-3.711083 -2.73582,-2.105847 -7.11338,-2.791344 -2.56881,2.568812 2.79135,7.113392 2.10584,2.735805 3.71108,2.957613 -5.95906,8.910823 -4.14958,-2.297679 -3.33435,-0.901467 -7.6381,0.154572 -1.39586,3.347133 5.30426,5.513996 2.99488,1.722538 4.55699,1.309253 -2.0872,10.509848 -4.7112,-0.537514 -3.43337,0.445066 -7.00231,3.062489 V 73.7803 l 7.00231,3.062486 3.43337,0.445069 4.7112,-0.537517 2.0872,10.509853 -4.55699,1.309251 -2.99489,1.722535 -5.30425,5.513996 1.39586,3.347135 7.63811,0.154562 3.33434,-0.901457 4.14994,-2.297318 5.9587,8.910465 -3.71108,2.95761 -2.10584,2.73581 -2.79135,7.11339 2.56881,2.56881 7.11339,-2.79135 2.73581,-2.10584 2.35249,-2.94519 0.60512,-0.76589 8.91082,5.95906 -2.29768,4.14958 -0.90147,3.33434 0.15458,7.63811 3.34713,1.39586 5.51399,-5.30425 1.72255,-2.99489 1.30925,-4.55699 10.50984,2.08721 -0.53751,4.71119 0.44471,3.43301 3.06284,7.00266 3.63069,10e-6 3.06285,-7.00268 0.4447,-3.433 -0.53751,-4.7112 10.50985,-2.0872 1.30925,4.55699 1.72254,2.99488 5.51399,5.30426 3.34714,-1.39586 0.15456,-7.63811 -0.90146,-3.33435 -2.29768,-4.14956 8.91083,-5.95907 2.95761,3.71108 2.73582,2.10584 7.11338,2.79135 z M 235.31599,81.078953 c -5.02425,5.024252 -13.20374,5.024249 -18.22799,0 -5.02425,-5.024255 -5.02425,-13.203735 0,-18.227993 5.02425,-5.024249 13.20374,-5.024249 18.22799,6e-6 5.02425,5.024249 5.02425,13.203737 0,18.227987 z" />
    </clipPath>
    <clipPath
       clipPathUnits="userSpaceOnUse"
       id="clipPath114">
      <path
         id="path115"
         style="display:inline;opacity:1;fill:#e9afaf;fill-opacity:1;stroke:none;stroke-width:2.11667;stroke-dasharray:none;paint-order:markers stroke fill"
         d="m 274.63202,117.82617 -2.79135,-7.11339 -2.10585,-2.73581 -3.71107,-2.95761 5.95905,-8.910828 4.14959,2.297684 3.33433,0.901459 7.63813,-0.154567 1.39586,-3.347135 -5.30426,-5.513999 -2.9949,-1.722532 -4.557,-1.309254 2.08722,-10.509853 4.7112,0.537514 3.43302,-0.444701 7.00265,-3.062843 v -3.630692 l -7.00265,-3.062848 -3.43302,-0.444701 -4.7112,0.537514 -2.08722,-10.509848 4.557,-1.309259 2.9949,-1.722532 5.30426,-5.513996 -1.39586,-3.347133 -7.63813,-0.154567 -3.33433,0.901457 -4.14959,2.297684 -5.95905,-8.910828 3.71107,-2.957608 2.10585,-2.735807 2.79135,-7.113389 -2.56881,-2.568814 -7.11338,2.791348 -2.73582,2.105844 -2.95761,3.711077 -8.91083,-5.959064 2.29768,-4.149569 0.90146,-3.334343 -0.15456,-7.638116 -3.34714,-1.3958567 -5.51399,5.3042577 -1.72254,2.99488 -1.30925,4.556998 -10.50985,-2.087207 0.53751,-4.711198 -0.44507,-3.433371 -3.06248,-7.0023055 -3.63068,4.2e-6 -3.06286,7.0026663 -0.44469,3.433002 0.53751,4.7112 -10.50985,2.087205 -1.30925,-4.556992 -1.72254,-2.994882 -5.514,-5.3042551 -3.34713,1.3958561 -0.15458,7.638113 0.90147,3.334344 2.29769,4.14957 -8.91083,5.959069 -2.95761,-3.711083 -2.73582,-2.105847 -7.11338,-2.791344 -2.56881,2.568812 2.79135,7.113392 2.10584,2.735805 3.71108,2.957613 -5.95906,8.910823 -4.14958,-2.297679 -3.33435,-0.901467 -7.6381,0.154572 -1.39586,3.347133 5.30426,5.513996 2.99488,1.722538 4.55699,1.309253 -2.0872,10.509848 -4.7112,-0.537514 -3.43337,0.445066 -7.00231,3.062489 V 73.7803 l 7.00231,3.062486 3.43337,0.445069 4.7112,-0.537517 2.0872,10.509853 -4.55699,1.309251 -2.99489,1.722535 -5.30425,5.513996 1.39586,3.347135 7.63811,0.154562 3.33434,-0.901457 4.14994,-2.297318 5.9587,8.910465 -3.71108,2.95761 -2.10584,2.73581 -2.79135,7.11339 2.56881,2.56881 7.11339,-2.79135 2.73581,-2.10584 2.35249,-2.94519 0.60512,-0.76589 8.91082,5.95906 -2.29768,4.14958 -0.90147,3.33434 0.15458,7.63811 3.34713,1.39586 5.51399,-5.30425 1.72255,-2.99489 1.30925,-4.55699 10.50984,2.08721 -0.53751,4.71119 0.44471,3.43301 3.06284,7.00266 3.63069,10e-6 3.06285,-7.00268 0.4447,-3.433 -0.53751,-4.7112 10.50985,-2.0872 1.30925,4.55699 1.72254,2.99488 5.51399,5.30426 3.34714,-1.39586 0.15456,-7.63811 -0.90146,-3.33435 -2.29768,-4.14956 8.91083,-5.95907 2.95761,3.71108 2.73582,2.10584 7.11338,2.79135 z M 235.31599,81.078953 c -5.02425,5.024252 -13.20374,5.024249 -18.22799,0 -5.02425,-5.024255 -5.02425,-13.203735 0,-18.227993 5.02425,-5.024249 13.20374,-5.024249 18.22799,6e-6 5.02425,5.024249 5.02425,13.203737 0,18.227987 z" />
    </clipPath>
    <clipPath
       clipPathUnits="userSpaceOnUse"
       id="clipPath115">
      <path
         id="path116"
         style="display:inline;opacity:1;fill:#e9afaf;fill-opacity:1;stroke:none;stroke-width:2.11667;stroke-dasharray:none;paint-order:markers stroke fill"
         d="m 274.63202,117.82617 -2.79135,-7.11339 -2.10585,-2.73581 -3.71107,-2.95761 5.95905,-8.910828 4.14959,2.297684 3.33433,0.901459 7.63813,-0.154567 1.39586,-3.347135 -5.30426,-5.513999 -2.9949,-1.722532 -4.557,-1.309254 2.08722,-10.509853 4.7112,0.537514 3.43302,-0.444701 7.00265,-3.062843 v -3.630692 l -7.00265,-3.062848 -3.43302,-0.444701 -4.7112,0.537514 -2.08722,-10.509848 4.557,-1.309259 2.9949,-1.722532 5.30426,-5.513996 -1.39586,-3.347133 -7.63813,-0.154567 -3.33433,0.901457 -4.14959,2.297684 -5.95905,-8.910828 3.71107,-2.957608 2.10585,-2.735807 2.79135,-7.113389 -2.56881,-2.568814 -7.11338,2.791348 -2.73582,2.105844 -2.95761,3.711077 -8.91083,-5.959064 2.29768,-4.149569 0.90146,-3.334343 -0.15456,-7.638116 -3.34714,-1.3958567 -5.51399,5.3042577 -1.72254,2.99488 -1.30925,4.556998 -10.50985,-2.087207 0.53751,-4.711198 -0.44507,-3.433371 -3.06248,-7.0023055 -3.63068,4.2e-6 -3.06286,7.0026663 -0.44469,3.433002 0.53751,4.7112 -10.50985,2.087205 -1.30925,-4.556992 -1.72254,-2.994882 -5.514,-5.3042551 -3.34713,1.3958561 -0.15458,7.638113 0.90147,3.334344 2.29769,4.14957 -8.91083,5.959069 -2.95761,-3.711083 -2.73582,-2.105847 -7.11338,-2.791344 -2.56881,2.568812 2.79135,7.113392 2.10584,2.735805 3.71108,2.957613 -5.95906,8.910823 -4.14958,-2.297679 -3.33435,-0.901467 -7.6381,0.154572 -1.39586,3.347133 5.30426,5.513996 2.99488,1.722538 4.55699,1.309253 -2.0872,10.509848 -4.7112,-0.537514 -3.43337,0.445066 -7.00231,3.062489 V 73.7803 l 7.00231,3.062486 3.43337,0.445069 4.7112,-0.537517 2.0872,10.509853 -4.55699,1.309251 -2.99489,1.722535 -5.30425,5.513996 1.39586,3.347135 7.63811,0.154562 3.33434,-0.901457 4.14994,-2.297318 5.9587,8.910465 -3.71108,2.95761 -2.10584,2.73581 -2.79135,7.11339 2.56881,2.56881 7.11339,-2.79135 2.73581,-2.10584 2.35249,-2.94519 0.60512,-0.76589 8.91082,5.95906 -2.29768,4.14958 -0.90147,3.33434 0.15458,7.63811 3.34713,1.39586 5.51399,-5.30425 1.72255,-2.99489 1.30925,-4.55699 10.50984,2.08721 -0.53751,4.71119 0.44471,3.43301 3.06284,7.00266 3.63069,10e-6 3.06285,-7.00268 0.4447,-3.433 -0.53751,-4.7112 10.50985,-2.0872 1.30925,4.55699 1.72254,2.99488 5.51399,5.30426 3.34714,-1.39586 0.15456,-7.63811 -0.90146,-3.33435 -2.29768,-4.14956 8.91083,-5.95907 2.95761,3.71108 2.73582,2.10584 7.11338,2.79135 z M 235.31599,81.078953 c -5.02425,5.024252 -13.20374,5.024249 -18.22799,0 -5.02425,-5.024255 -5.02425,-13.203735 0,-18.227993 5.02425,-5.024249 13.20374,-5.024249 18.22799,6e-6 5.02425,5.024249 5.02425,13.203737 0,18.227987 z" />
    </clipPath>
    <clipPath
       clipPathUnits="userSpaceOnUse"
       id="clipPath116">
      <path
         id="path117"
         style="display:inline;opacity:1;fill:#e9afaf;fill-opacity:1;stroke:none;stroke-width:2.11667;stroke-dasharray:none;paint-order:markers stroke fill"
         d="m 274.63202,117.82617 -2.79135,-7.11339 -2.10585,-2.73581 -3.71107,-2.95761 5.95905,-8.910828 4.14959,2.297684 3.33433,0.901459 7.63813,-0.154567 1.39586,-3.347135 -5.30426,-5.513999 -2.9949,-1.722532 -4.557,-1.309254 2.08722,-10.509853 4.7112,0.537514 3.43302,-0.444701 7.00265,-3.062843 v -3.630692 l -7.00265,-3.062848 -3.43302,-0.444701 -4.7112,0.537514 -2.08722,-10.509848 4.557,-1.309259 2.9949,-1.722532 5.30426,-5.513996 -1.39586,-3.347133 -7.63813,-0.154567 -3.33433,0.901457 -4.14959,2.297684 -5.95905,-8.910828 3.71107,-2.957608 2.10585,-2.735807 2.79135,-7.113389 -2.56881,-2.568814 -7.11338,2.791348 -2.73582,2.105844 -2.95761,3.711077 -8.91083,-5.959064 2.29768,-4.149569 0.90146,-3.334343 -0.15456,-7.638116 -3.34714,-1.3958567 -5.51399,5.3042577 -1.72254,2.99488 -1.30925,4.556998 -10.50985,-2.087207 0.53751,-4.711198 -0.44507,-3.433371 -3.06248,-7.0023055 -3.63068,4.2e-6 -3.06286,7.0026663 -0.44469,3.433002 0.53751,4.7112 -10.50985,2.087205 -1.30925,-4.556992 -1.72254,-2.994882 -5.514,-5.3042551 -3.34713,1.3958561 -0.15458,7.638113 0.90147,3.334344 2.29769,4.14957 -8.91083,5.959069 -2.95761,-3.711083 -2.73582,-2.105847 -7.11338,-2.791344 -2.56881,2.568812 2.79135,7.113392 2.10584,2.735805 3.71108,2.957613 -5.95906,8.910823 -4.14958,-2.297679 -3.33435,-0.901467 -7.6381,0.154572 -1.39586,3.347133 5.30426,5.513996 2.99488,1.722538 4.55699,1.309253 -2.0872,10.509848 -4.7112,-0.537514 -3.43337,0.445066 -7.00231,3.062489 V 73.7803 l 7.00231,3.062486 3.43337,0.445069 4.7112,-0.537517 2.0872,10.509853 -4.55699,1.309251 -2.99489,1.722535 -5.30425,5.513996 1.39586,3.347135 7.63811,0.154562 3.33434,-0.901457 4.14994,-2.297318 5.9587,8.910465 -3.71108,2.95761 -2.10584,2.73581 -2.79135,7.11339 2.56881,2.56881 7.11339,-2.79135 2.73581,-2.10584 2.35249,-2.94519 0.60512,-0.76589 8.91082,5.95906 -2.29768,4.14958 -0.90147,3.33434 0.15458,7.63811 3.34713,1.39586 5.51399,-5.30425 1.72255,-2.99489 1.30925,-4.55699 10.50984,2.08721 -0.53751,4.71119 0.44471,3.43301 3.06284,7.00266 3.63069,10e-6 3.06285,-7.00268 0.4447,-3.433 -0.53751,-4.7112 10.50985,-2.0872 1.30925,4.55699 1.72254,2.99488 5.51399,5.30426 3.34714,-1.39586 0.15456,-7.63811 -0.90146,-3.33435 -2.29768,-4.14956 8.91083,-5.95907 2.95761,3.71108 2.73582,2.10584 7.11338,2.79135 z M 235.31599,81.078953 c -5.02425,5.024252 -13.20374,5.024249 -18.22799,0 -5.02425,-5.024255 -5.02425,-13.203735 0,-18.227993 5.02425,-5.024249 13.20374,-5.024249 18.22799,6e-6 5.02425,5.024249 5.02425,13.203737 0,18.227987 z" />
    </clipPath>
    <filter
       inkscape:collect="always"
       style="color-interpolation-filters:sRGB"
       id="filter126"
       x="-0.13829949"
       y="-0.086394484"
       width="1.276599"
       height="1.172789">
      <feGaussianBlur
         inkscape:collect="always"
         stdDeviation="2.6546899"
         id="feGaussianBlur126" />
    </filter>
    <filter
       inkscape:collect="always"
       style="color-interpolation-filters:sRGB"
       id="filter127"
       x="-0.13830588"
       y="-0.08638533"
       width="1.2766118"
       height="1.1727707">
      <feGaussianBlur
         inkscape:collect="always"
         stdDeviation="2.6546898"
         id="feGaussianBlur127" />
    </filter>
    <filter
       inkscape:collect="always"
       style="color-interpolation-filters:sRGB"
       id="filter134"
       x="-0.15614893"
       y="-0.10129763"
       width="1.3122979"
       height="1.2025953">
      <feGaussianBlur
         inkscape:collect="always"
         stdDeviation="3.46735"
         id="feGaussianBlur134" />
    </filter>
    <filter
       inkscape:collect="always"
       style="color-interpolation-filters:sRGB"
       id="filter135"
       x="-0.15614894"
       y="-0.10129763"
       width="1.3122979"
       height="1.2025953">
      <feGaussianBlur
         inkscape:collect="always"
         stdDeviation="3.46735"
         id="feGaussianBlur135" />
    </filter>
    <filter
       style="color-interpolation-filters:sRGB;"
       inkscape:label="Noise Fill"
       id="filter138"
       x="0"
       y="0"
       width="1"
       height="1">
      <feTurbulence
         type="fractalNoise"
         baseFrequency="2 2"
         numOctaves="4"
         seed="2"
         result="turbulence"
         id="feTurbulence137" />
      <feComposite
         in="SourceGraphic"
         in2="turbulence"
         operator="in"
         result="composite1"
         id="feComposite137" />
      <feColorMatrix
         values="1 0 0 0 0 0 1 0 0 0 0 0 1 0 0 0 0 0 4 -1"
         result="color"
         id="feColorMatrix137" />
      <feFlood
         flood-opacity="1"
         flood-color="rgb(255,255,255)"
         result="flood"
         id="feFlood137" />
      <feMerge
         result="merge"
         id="feMerge138">
        <feMergeNode
           in="flood"
           id="feMergeNode137" />
        <feMergeNode
           in="color"
           id="feMergeNode138" />
      </feMerge>
      <feComposite
         in2="SourceGraphic"
         operator="in"
         result="fbSourceGraphic"
         id="feComposite138" />
      <feColorMatrix
         result="fbSourceGraphicAlpha"
         in="fbSourceGraphic"
         values="0 0 0 -1 0 0 0 0 -1 0 0 0 0 -1 0 0 0 0 1 0"
         id="feColorMatrix140" />
      <feTurbulence
         id="feTurbulence140"
         type="fractalNoise"
         baseFrequency="2 2"
         numOctaves="4"
         seed="2"
         result="turbulence"
         in="fbSourceGraphic" />
      <feComposite
         id="feComposite140"
         in="fbSourceGraphic"
         in2="turbulence"
         operator="in"
         result="composite1" />
      <feColorMatrix
         id="feColorMatrix141"
         values="1 0 0 0 0 0 1 0 0 0 0 0 1 0 0 0 0 0 4 -1 "
         result="color" />
      <feFlood
         id="feFlood141"
         flood-opacity="1"
         flood-color="rgb(255,255,255)"
         result="flood" />
      <feMerge
         id="feMerge141"
         result="merge">
        <feMergeNode
           id="feMergeNode141"
           in="flood" />
        <feMergeNode
           id="feMergeNode142"
           in="color" />
      </feMerge>
      <feComposite
         id="feComposite142"
         in2="fbSourceGraphic"
         operator="in"
         result="composite2" />
    </filter>
    <clipPath
       clipPathUnits="userSpaceOnUse"
       id="clipPath143">
      <path
         style="color:#000000;display:inline;opacity:0.2;mix-blend-mode:normal;fill:#000000;stroke-width:1;-inkscape-stroke:none;paint-order:markers stroke fill"
         d="m -155.62523,16.710295 c -31.1131,0 -56.52703,25.41188 -56.52703,56.524974 0,31.113081 25.41393,56.527031 56.52703,56.527031 31.11309,0 56.527019,-25.41395 56.527019,-56.527031 0,-31.113094 -25.413929,-56.524974 -56.527019,-56.524974 z m 0,17.793607 c 21.49687,0 38.73342,17.234497 38.73342,38.731367 0,21.496851 -17.23655,38.733411 -38.73342,38.733411 -21.49687,0 -38.73341,-17.23656 -38.73341,-38.733411 0,-21.49687 17.23654,-38.731367 38.73341,-38.731367 z"
         id="path144" />
    </clipPath>
    <clipPath
       clipPathUnits="userSpaceOnUse"
       id="clipPath151">
      <path
         style="color:#000000;fill:#800000;stroke-width:0.999998;-inkscape-stroke:none;paint-order:markers stroke fill"
         d="m 444.77905,18.848462 c -27.08354,0 -49.25914,22.115448 -49.36545,49.175293 h -18.36788 l 28.28044,48.983055 28.28044,-48.983055 h -18.35857 c 0.10343,-16.337563 13.16702,-29.340328 29.53102,-29.340328 z m 39.45289,0.19327 -28.27993,48.983055 h 18.36269 c 0,16.42918 -13.10595,29.534633 -29.53515,29.534633 v 19.83496 c 27.14871,0 49.37014,-22.220901 49.37014,-49.369593 h 18.36322 z"
         id="path152" />
    </clipPath>
    <filter
       inkscape:collect="always"
       style="color-interpolation-filters:sRGB"
       id="filter153"
       x="-0.033719255"
       y="-0.045905921"
       width="1.0674385"
       height="1.0918118">
      <feGaussianBlur
         inkscape:collect="always"
         stdDeviation="1.954777"
         id="feGaussianBlur153" />
    </filter>
    <filter
       inkscape:menu="Overlays"
       inkscape:label="Poster Turbulent"
       style="color-interpolation-filters:sRGB;"
       inkscape:menu-tooltip="Basic noise fill texture; adjust color in Flood"
       id="filter5"
       x="-0.036354557"
       y="-0.036354557"
       width="1.0727091"
       height="1.0727091">
      <feColorMatrix
         result="result6"
         values="2 -1 0 0 0 0 2 -1 0 0 -1 0 2 0 0 0 0 0 1 0 "
         id="feColorMatrix1" />
      <feTurbulence
         type="fractalNoise"
         baseFrequency="0.05"
         numOctaves="3"
         id="feTurbulence1" />
      <feColorMatrix
         values="1 0 0 0 0 0 1 0 0 0 0 0 1 0 0 0 0 0 3 -1 "
         result="result0"
         id="feColorMatrix2" />
      <feFlood
         result="result1"
         flood-color="rgb(146,144,165)"
         flood-opacity="1"
         id="feFlood2" />
      <feBlend
         result="result2"
         in="result1"
         mode="multiply"
         in2="result6"
         id="feBlend2" />
      <feComposite
         result="result3"
         operator="out"
         in2="result0"
         id="feComposite2" />
      <feComposite
         k3="0.5"
         k1="1.5"
         result="fbSourceGraphic"
         operator="atop"
         in2="result6"
         id="feComposite3" />
      <feGaussianBlur
         in="fbSourceGraphic"
         stdDeviation="2"
         result="result3"
         id="feGaussianBlur3" />
      <feGaussianBlur
         result="result4"
         in="fbSourceGraphic"
         stdDeviation="0.01"
         id="feGaussianBlur4" />
      <feBlend
         mode="darken"
         in2="result3"
         id="feBlend4" />
      <feColorMatrix
         type="hueRotate"
         values="0"
         id="feColorMatrix4" />
      <feComponentTransfer
         result="result1"
         id="feComponentTransfer4">
        <feFuncR
           type="discrete"
           tableValues="0 0.2 0.4 0.6 0.8 1 1"
           id="feFuncR4" />
        <feFuncG
           type="discrete"
           tableValues="0 0.2 0.4 0.6 0.8 1 1"
           id="feFuncG4" />
        <feFuncB
           type="discrete"
           tableValues="0 0.2 0.4 0.6 0.8 1 1"
           id="feFuncB4" />
      </feComponentTransfer>
      <feColorMatrix
         values="1"
         type="saturate"
         id="feColorMatrix5" />
      <feGaussianBlur
         result="result5"
         stdDeviation="0.01"
         id="feGaussianBlur5" />
      <feComposite
         operator="in"
         result="result2"
         in2="SourceGraphic"
         id="feComposite5" />
    </filter>
    <filter
       inkscape:label="Metallized Paint"
       inkscape:menu="Materials"
       inkscape:menu-tooltip="Metallized effect with a soft lighting, slightly translucent at the edges"
       style="color-interpolation-filters:sRGB;"
       id="filter21"
       x="-0.20696901"
       y="-0.20696902"
       width="1.413938"
       height="1.413938">
      <feGaussianBlur
         stdDeviation="1"
         result="result1"
         id="feGaussianBlur16" />
      <feComposite
         in="result1"
         in2="result1"
         result="result4"
         operator="in"
         id="feComposite16" />
      <feBlend
         in="result1"
         mode="screen"
         result="result5"
         in2="result4"
         id="feBlend16" />
      <feGaussianBlur
         stdDeviation="8"
         result="result6"
         in="result5"
         id="feGaussianBlur17" />
      <feComposite
         operator="atop"
         in="result6"
         in2="result5"
         result="result8"
         id="feComposite17" />
      <feComposite
         operator="in"
         result="fbSourceGraphic"
         in="result6"
         in2="result8"
         id="feComposite18" />
      <feGaussianBlur
         result="result0"
         in="fbSourceGraphic"
         stdDeviation="2.5"
         id="feGaussianBlur18" />
      <feSpecularLighting
         specularExponent="45"
         specularConstant="1.5"
         surfaceScale="1"
         lighting-color="rgb(255,255,255)"
         result="result1"
         in="result0"
         id="feSpecularLighting18">
        <fePointLight
           z="21000"
           y="-9000"
           x="-6000"
           id="fePointLight18" />
      </feSpecularLighting>
      <feComposite
         operator="in"
         result="result2"
         in="result1"
         in2="fbSourceGraphic"
         id="feComposite19" />
      <feComposite
         k3="1"
         k2="1"
         operator="arithmetic"
         result="result4"
         in="fbSourceGraphic"
         in2="result2"
         id="feComposite20" />
      <feComposite
         operator="in"
         in="result9"
         in2="result4"
         result="result91"
         id="feComposite21" />
      <feBlend
         mode="multiply"
         in2="result91"
         id="feBlend21" />
    </filter>
    <filter
       inkscape:label="Eroded Metal"
       inkscape:menu="Materials"
       inkscape:menu-tooltip="Eroded metal texture with ridges, grooves, holes and bumps"
       style="color-interpolation-filters:sRGB;"
       id="filter25"
       x="-0.10784323"
       y="-0.10784324"
       width="1.2156865"
       height="1.2156865">
      <feGaussianBlur
         result="result0"
         in="SourceGraphic"
         stdDeviation="2.9921877"
         id="feGaussianBlur21" />
      <feTurbulence
         type="turbulence"
         baseFrequency="0.057"
         seed="4"
         numOctaves="4"
         result="result1"
         id="feTurbulence21" />
      <feDisplacementMap
         xChannelSelector="R"
         in2="result1"
         result="result91"
         id="feDisplacementMap21" />
      <feComposite
         result="result2"
         operator="out"
         in="result0"
         in2="result91"
         id="feComposite22" />
      <feComposite
         k1="0.1"
         k3="1.2"
         in2="result2"
         in="SourceAlpha"
         operator="arithmetic"
         result="result5"
         id="feComposite23" />
      <feBlend
         result="fbSourceGraphic"
         mode="multiply"
         in2="result5"
         id="feBlend23" />
      <feGaussianBlur
         stdDeviation="3"
         in="fbSourceGraphic"
         result="result0"
         id="feGaussianBlur23" />
      <feSpecularLighting
         in="result0"
         result="result1"
         lighting-color="rgb(206,64,16)"
         surfaceScale="3"
         specularConstant="0.4"
         specularExponent="15"
         id="feSpecularLighting23">
        <fePointLight
           x="-5000"
           y="-10000"
           z="20000"
           id="fePointLight23" />
      </feSpecularLighting>
      <feComposite
         in2="fbSourceGraphic"
         in="result1"
         result="result2"
         operator="in"
         id="feComposite24" />
      <feComposite
         k1="-1"
         in="fbSourceGraphic"
         result="result4"
         operator="arithmetic"
         k2="2.5"
         k3="3.5"
         in2="result2"
         id="feComposite25" />
      <feBlend
         mode="multiply"
         in2="result4"
         id="feBlend25" />
    </filter>
    <clipPath
       clipPathUnits="userSpaceOnUse"
       id="clipPath25">
      <path
         id="path25"
         style="display:inline;opacity:1;mix-blend-mode:normal;fill:#999999;fill-opacity:1;stroke:none;stroke-width:2.11667;stroke-dasharray:none;paint-order:markers stroke fill"
         d="m -115.85044,110.91684 -2.79135,-7.11339 -2.10584,-2.73581 -3.71108,-2.957607 5.95906,-8.910826 4.14957,2.297684 3.33435,0.901457 7.63811,-0.154567 1.39586,-3.347133 -5.30426,-5.513995 -2.99488,-1.722536 -4.557,-1.309253 2.08721,-10.509854 4.7112,0.537517 3.43301,-0.444703 7.00267,-3.062843 v -3.630695 l -7.00267,-3.062846 -3.43301,-0.444701 -4.7112,0.537515 -2.08721,-10.509851 4.557,-1.309254 2.99488,-1.722535 5.30426,-5.513996 -1.39586,-3.347132 -7.63811,-0.154567 -3.33435,0.901456 -4.14957,2.297684 -5.95906,-8.910828 3.71108,-2.957607 2.10584,-2.735808 2.79135,-7.113389 -2.56881,-2.568814 -7.11339,2.791348 -2.73581,2.105844 -2.95761,3.711078 -8.91083,-5.959065 2.29768,-4.149569 0.90146,-3.334343 -0.15456,-7.6381156 -3.34714,-1.3958567 -5.51399,5.3042576 -1.72254,2.9948797 -1.30925,4.556998 -10.50985,-2.087207 0.53751,-4.7111977 -0.44507,-3.4333709 -3.06248,-7.0023058 -3.63068,4.3e-6 -3.06285,7.0026653 -0.4447,3.4330031 0.53751,4.7111997 -10.50985,2.087205 -1.30925,-4.556992 -1.72254,-2.9948817 -5.514,-5.3042552 -3.34713,1.3958551 -0.15458,7.6381138 0.90147,3.334344 2.29769,4.14957 -8.91083,5.959069 -2.95761,-3.711083 -2.73582,-2.105847 -7.11338,-2.791344 -2.56881,2.568812 2.79135,7.113393 2.10584,2.735805 3.71108,2.957613 -5.95906,8.910822 -4.14958,-2.297679 -3.33435,-0.901467 -7.6381,0.154573 -1.39586,3.347132 5.30426,5.513993 2.99488,1.722541 4.55699,1.309251 -2.0872,10.509851 -4.7112,-0.537515 -3.43337,0.445066 -7.00231,3.062486 v 3.630684 l 7.00231,3.062486 3.43337,0.445066 4.7112,-0.537514 2.0872,10.509851 -4.55699,1.30925 -2.99488,1.722539 -5.30426,5.513995 1.39586,3.347133 7.63811,0.154564 3.33434,-0.901454 4.14994,-2.297324 5.9587,8.910466 -3.71108,2.957607 -2.10584,2.73581 -2.79135,7.11339 2.56881,2.56881 7.11339,-2.79135 2.73581,-2.10584 2.35249,-2.94519 0.60512,-0.76589 8.91083,5.95906 -2.29769,4.14958 -0.90146,3.33434 0.15457,7.63811 3.34713,1.39586 5.51399,-5.30425 1.72255,-2.99489 1.30925,-4.55699 10.50984,2.08721 -0.53751,4.71119 0.44471,3.43301 3.06284,7.00266 3.63069,1e-5 3.06285,-7.00268 0.4447,-3.433 -0.53751,-4.7112 10.50985,-2.0872 1.30925,4.55699 1.72254,2.99488 5.51399,5.30426 3.34714,-1.39586 0.15456,-7.63811 -0.90146,-3.33435 -2.29768,-4.14956 8.91083,-5.95907 2.95761,3.71108 2.73581,2.10584 7.11339,2.79135 z m -39.31603,-36.747215 c -5.02425,5.024255 -13.20374,5.024255 -18.22799,3e-6 -5.02425,-5.024255 -5.02425,-13.203735 0,-18.22799 5.02425,-5.024252 13.20374,-5.024252 18.22799,0 5.02425,5.02425 5.02425,13.203741 0,18.227987 z" />
    </clipPath>
  </defs>
  <g
     inkscape:label="Layer 1"
     inkscape:groupmode="layer"
     id="layer1">
    <path
       id="path71"
       style="display:inline;opacity:1;fill:#999999;fill-opacity:1;stroke:none;stroke-width:2.11667;stroke-dasharray:none;paint-order:markers stroke fill"
       d="m 116.16335,113.59454 -2.79135,-7.11339 -2.10584,-2.73581 -3.71108,-2.95761 5.95906,-8.910827 4.14957,2.297684 3.33435,0.901459 7.63811,-0.154567 1.39586,-3.347135 -5.30426,-5.513997 -2.99488,-1.722532 -4.557,-1.309256 2.08721,-10.509851 4.7112,0.537514 3.43301,-0.444701 7.00267,-3.062845 v -3.630692 l -7.00267,-3.062846 -3.43301,-0.444701 -4.7112,0.537514 -2.08721,-10.50985 4.557,-1.309256 2.99488,-1.722533 5.30426,-5.513996 -1.39586,-3.347135 -7.63811,-0.154567 -3.33435,0.901459 -4.14957,2.297684 -5.95906,-8.910828 3.71108,-2.95761 2.10584,-2.735807 2.79135,-7.113388 -2.56881,-2.568814 -7.11339,2.791348 -2.73581,2.105843 -2.95761,3.711079 -8.91083,-5.959065 2.297684,-4.149569 0.90146,-3.334343 -0.154568,-7.6381158 -3.347135,-1.3958569 -5.513996,5.3042577 -1.722532,2.99488 -1.309257,4.556998 -10.509849,-2.087207 0.537515,-4.711198 -0.445068,-3.4333707 -3.062482,-7.002306 -3.630686,4.3e-6 -3.062851,7.0026658 -0.444699,3.4330026 0.537512,4.7112 -10.509851,2.087205 -1.30925,-4.556992 -1.722539,-2.994882 -5.513997,-5.3042553 -3.347131,1.3958557 -0.154576,7.6381136 0.901466,3.334344 2.297688,4.14957 -8.910829,5.959068 -2.957612,-3.711083 -2.735814,-2.105846 -7.113383,-2.791344 -2.568812,2.568812 2.79135,7.113392 2.10584,2.735805 3.711082,2.957614 -5.959063,8.910823 -4.149577,-2.297681 -3.334346,-0.901465 -7.638107,0.15457 -1.3958585,3.347134 5.3042575,5.513995 2.994882,1.722539 4.556991,1.309252 -2.087204,10.50985 -4.711198,-0.537515 -3.433371,0.445067 -7.0023017,3.062487 v 3.630682 l 7.0023017,3.062487 3.433371,0.445067 4.711198,-0.537515 2.087205,10.509851 -4.556992,1.309251 -2.994883,1.722537 -5.3042572,5.513996 1.3958585,3.347134 7.6381147,0.154563 3.334339,-0.901457 4.149938,-2.29732 5.958702,8.910464 -3.711084,2.95761 -2.105837,2.73581 -2.791351,7.11339 2.56881,2.56881 7.11339,-2.79135 2.735807,-2.10584 2.352494,-2.94519 0.605119,-0.76589 8.910827,5.95906 -2.297684,4.14958 -0.901466,3.33434 0.154573,7.63811 3.347132,1.39586 5.513994,-5.30425 1.722543,-2.99489 1.309251,-4.55699 10.509845,2.08721 -0.53751,4.71119 0.444703,3.43301 3.062847,7.00266 3.63069,1e-5 3.062847,-7.00268 0.444701,-3.433 -0.537516,-4.7112 10.509851,-2.0872 1.309257,4.55699 1.722532,2.99488 5.513996,5.30426 3.347136,-1.39586 0.154567,-7.63811 -0.90146,-3.33435 -2.297685,-4.14956 8.910831,-5.95907 2.95761,3.71108 2.73581,2.10584 7.11339,2.79135 z M 76.847321,76.847324 c -5.024252,5.024254 -13.203738,5.024251 -18.227988,2e-6 -5.024257,-5.024255 -5.024256,-13.203737 0,-18.227993 5.02425,-5.024249 13.203735,-5.024249 18.227988,4e-6 5.024252,5.024249 5.024252,13.203737 0,18.227987 z" />
    <path
       id="path135"
       style="display:inline;opacity:0.2;mix-blend-mode:multiply;fill:#999999;fill-opacity:1;stroke:none;stroke-width:2.11667;stroke-dasharray:none;paint-order:markers stroke fill;filter:url(#filter138)"
       d="m 116.16335,113.59454 -2.79135,-7.11339 -2.10584,-2.73581 -3.71108,-2.95761 5.95906,-8.910827 4.14957,2.297684 3.33435,0.901459 7.63811,-0.154567 1.39586,-3.347135 -5.30426,-5.513997 -2.99488,-1.722532 -4.557,-1.309256 2.08721,-10.509851 4.7112,0.537514 3.43301,-0.444701 7.00267,-3.062845 v -3.630692 l -7.00267,-3.062846 -3.43301,-0.444701 -4.7112,0.537514 -2.08721,-10.50985 4.557,-1.309256 2.99488,-1.722533 5.30426,-5.513996 -1.39586,-3.347135 -7.63811,-0.154567 -3.33435,0.901459 -4.14957,2.297684 -5.95906,-8.910828 3.71108,-2.95761 2.10584,-2.735807 2.79135,-7.113388 -2.56881,-2.568814 -7.11339,2.791348 -2.73581,2.105843 -2.95761,3.711079 -8.91083,-5.959065 2.297684,-4.149569 0.90146,-3.334343 -0.154568,-7.6381158 -3.347135,-1.3958569 -5.513996,5.3042577 -1.722532,2.99488 -1.309257,4.556998 -10.509849,-2.087207 0.537515,-4.711198 -0.445068,-3.4333707 -3.062482,-7.002306 -3.630686,4.3e-6 -3.062851,7.0026658 -0.444699,3.4330026 0.537512,4.7112 -10.509851,2.087205 -1.30925,-4.556992 -1.722539,-2.994882 -5.513997,-5.3042553 -3.347131,1.3958557 -0.154576,7.6381136 0.901466,3.334344 2.297688,4.14957 -8.910829,5.959068 -2.957612,-3.711083 -2.735814,-2.105846 -7.113383,-2.791344 -2.568812,2.568812 2.79135,7.113392 2.10584,2.735805 3.711082,2.957614 -5.959063,8.910823 -4.149577,-2.297681 -3.334346,-0.901465 -7.638107,0.15457 -1.3958585,3.347134 5.3042575,5.513995 2.994882,1.722539 4.556991,1.309252 -2.087204,10.50985 -4.711198,-0.537515 -3.433371,0.445067 -7.0023017,3.062487 v 3.630682 l 7.0023017,3.062487 3.433371,0.445067 4.711198,-0.537515 2.087205,10.509851 -4.556992,1.309251 -2.994883,1.722537 -5.3042572,5.513996 1.3958585,3.347134 7.6381147,0.154563 3.334339,-0.901457 4.149938,-2.29732 5.958702,8.910464 -3.711084,2.95761 -2.105837,2.73581 -2.791351,7.11339 2.56881,2.56881 7.11339,-2.79135 2.735807,-2.10584 2.352494,-2.94519 0.605119,-0.76589 8.910827,5.95906 -2.297684,4.14958 -0.901466,3.33434 0.154573,7.63811 3.347132,1.39586 5.513994,-5.30425 1.722543,-2.99489 1.309251,-4.55699 10.509845,2.08721 -0.53751,4.71119 0.444703,3.43301 3.062847,7.00266 3.63069,1e-5 3.062847,-7.00268 0.444701,-3.433 -0.537516,-4.7112 10.509851,-2.0872 1.309257,4.55699 1.722532,2.99488 5.513996,5.30426 3.347136,-1.39586 0.154567,-7.63811 -0.90146,-3.33435 -2.297685,-4.14956 8.910831,-5.95907 2.95761,3.71108 2.73581,2.10584 7.11339,2.79135 z M 76.847321,76.847324 c -5.024252,5.024254 -13.203738,5.024251 -18.227988,2e-6 -5.024257,-5.024255 -5.024256,-13.203737 0,-18.227993 5.02425,-5.024249 13.203735,-5.024249 18.227988,4e-6 5.024252,5.024249 5.024252,13.203737 0,18.227987 z" />
    <path
       id="path12"
       style="display:inline;opacity:1;mix-blend-mode:soft-light;fill:#999999;fill-opacity:1;stroke:none;stroke-width:2.11667;stroke-dasharray:none;paint-order:markers stroke fill;filter:url(#filter25)"
       d="m -115.85044,110.91684 -2.79135,-7.11339 -2.10584,-2.73581 -3.71108,-2.957607 5.95906,-8.910827 4.14957,2.297684 3.33435,0.901459 7.63811,-0.154567 1.39586,-3.347135 -5.30426,-5.513997 -2.99488,-1.722532 -4.557,-1.309256 2.08721,-10.509851 4.7112,0.537514 3.43301,-0.444701 7.00267,-3.062845 v -3.630692 l -7.00267,-3.062846 -3.43301,-0.444701 -4.7112,0.537514 -2.08721,-10.50985 4.557,-1.309256 2.99488,-1.722533 5.30426,-5.513996 -1.39586,-3.347135 -7.63811,-0.154567 -3.33435,0.901459 -4.14957,2.297684 -5.95906,-8.910828 3.71108,-2.95761 2.10584,-2.735807 2.79135,-7.113388 -2.56881,-2.568814 -7.11339,2.791348 -2.73581,2.105843 -2.95761,3.711079 -8.91083,-5.959065 2.29768,-4.149569 0.90146,-3.334343 -0.15456,-7.6381155 -3.34714,-1.3958569 -5.51399,5.3042577 -1.72254,2.9948797 -1.30925,4.556998 -10.50985,-2.087207 0.53751,-4.7111977 -0.44507,-3.4333707 -3.06248,-7.002306 -3.63068,4.3e-6 -3.06285,7.0026658 -0.4447,3.4330026 0.53751,4.7111997 -10.50985,2.087205 -1.30925,-4.556992 -1.72254,-2.9948817 -5.514,-5.3042553 -3.34713,1.3958557 -0.15458,7.6381133 0.90147,3.334344 2.29769,4.14957 -8.91083,5.959068 -2.95761,-3.711083 -2.73582,-2.105846 -7.11338,-2.791344 -2.56881,2.568812 2.79135,7.113392 2.10584,2.735805 3.71108,2.957614 -5.95906,8.910823 -4.14958,-2.297681 -3.33435,-0.901465 -7.6381,0.15457 -1.39586,3.347134 5.30426,5.513995 2.99488,1.722539 4.55699,1.309252 -2.0872,10.50985 -4.7112,-0.537515 -3.43337,0.445067 -7.00231,3.062487 v 3.630682 l 7.00231,3.062487 3.43337,0.445067 4.7112,-0.537515 2.0872,10.509851 -4.55699,1.309251 -2.99488,1.722537 -5.30426,5.513996 1.39586,3.347134 7.63811,0.154563 3.33434,-0.901457 4.14994,-2.29732 5.9587,8.910464 -3.71108,2.957607 -2.10584,2.73581 -2.79135,7.11339 2.56881,2.56881 7.11339,-2.79135 2.73581,-2.10584 2.35249,-2.94519 0.60512,-0.76589 8.91083,5.95906 -2.29769,4.14958 -0.90146,3.33434 0.15457,7.63811 3.34713,1.39586 5.51399,-5.30425 1.72255,-2.99489 1.30925,-4.55699 10.50984,2.08721 -0.53751,4.71119 0.44471,3.43301 3.06284,7.00266 3.63069,1e-5 3.06285,-7.00268 0.4447,-3.433 -0.53751,-4.7112 10.50985,-2.0872 1.30925,4.55699 1.72254,2.99488 5.51399,5.30426 3.34714,-1.39586 0.15456,-7.63811 -0.90146,-3.33435 -2.29768,-4.14956 8.91083,-5.95907 2.95761,3.71108 2.73581,2.10584 7.11339,2.79135 z m -39.31603,-36.747213 c -5.02425,5.024254 -13.20374,5.024251 -18.22799,2e-6 -5.02425,-5.024255 -5.02425,-13.203737 0,-18.227993 5.02425,-5.024249 13.20374,-5.024249 18.22799,4e-6 5.02425,5.024249 5.02425,13.203737 0,18.227987 z"
       clip-path="url(#clipPath25)"
       transform="translate(232.01379,2.6776987)" />
    <g
       id="g128"
       transform="translate(-111.90443,-70.201667)"
       style="display:none;opacity:0.4;mix-blend-mode:normal"
       sodipodi:insensitive="true">
      <path
         id="path127"
         style="display:inline;opacity:1;fill:#222f18;fill-opacity:1;stroke:none;stroke-width:2.11667;stroke-dasharray:none;paint-order:markers stroke fill"
         d="m 297.39192,50.42726 -1.81539,5.17e-4 v 53.711963 a 12.964583,12.964583 0 0 1 12.96458,12.96459 12.964583,12.964583 0 0 1 -12.96458,12.96458 v 53.71197 h 1.81539 l 3.06286,-7.00268 0.44493,-3.43286 -0.53795,-4.71134 10.50996,-2.08721 1.30948,4.55682 1.72237,2.99517 5.51388,5.30407 3.34708,-1.39578 0.15503,-7.6383 -0.90175,-3.33416 -2.29754,-4.14962 8.91057,-5.95932 2.95796,3.7114 2.73575,2.10581 7.11326,2.79105 2.56883,-2.56832 -2.79156,-7.11378 -2.10581,-2.73575 -3.71089,-2.95744 5.95881,-8.91108 4.14962,2.29805 3.33468,0.90123 7.63778,-0.15451 1.39578,-3.34708 -5.30407,-5.51388 -2.99465,-1.72289 -4.55734,-1.30896 2.08721,-10.50996 4.71134,0.53744 3.43286,-0.44442 7.00268,-3.06286 v -3.63079 l -7.00268,-3.06286 -3.43286,-0.44493 -4.71134,0.53743 -2.08721,-10.50943 4.55734,-1.30948 2.99465,-1.72238 5.30407,-5.513876 -1.39578,-3.347599 -7.63778,-0.154512 -3.33468,0.901753 -4.14962,2.297534 -5.95881,-8.910567 3.71089,-2.957959 2.10581,-2.73575 2.79156,-7.113261 -2.56883,-2.568835 -7.11326,2.791044 -2.73575,2.106331 -2.95796,3.710885 -8.91057,-5.959326 2.29754,-4.149618 0.90175,-3.334163 -0.15503,-7.638293 -3.34708,-1.395781 -5.51388,5.304586 -1.72237,2.994649 -1.30948,4.556828 -10.50996,-2.087211 0.53795,-4.710824 -0.44545,-3.433382 z" />
      <path
         id="path128"
         style="display:inline;opacity:1;fill:#2f2218;fill-opacity:1;stroke:none;stroke-width:2.11667;stroke-dasharray:none;paint-order:markers stroke fill"
         d="m 293.76114,50.42726 1.81539,5.17e-4 v 53.711963 a 12.964583,12.964583 0 0 0 -12.96458,12.96459 12.964583,12.964583 0 0 0 12.96458,12.96458 v 53.71197 h -1.81539 l -3.06286,-7.00268 -0.44493,-3.43286 0.53795,-4.71134 -10.50996,-2.08721 -1.30948,4.55682 -1.72237,2.99517 -5.51388,5.30407 -3.34708,-1.39578 -0.15503,-7.6383 0.90175,-3.33416 2.29754,-4.14962 -8.91057,-5.95932 -2.95796,3.7114 -2.73575,2.10581 -7.11326,2.79105 -2.56883,-2.56832 2.79156,-7.11378 2.10581,-2.73575 3.71089,-2.95744 -5.95881,-8.91108 -4.14962,2.29805 -3.33468,0.90123 -7.63778,-0.15451 -1.39578,-3.34708 5.30407,-5.51388 2.99465,-1.72289 4.55734,-1.30896 -2.08721,-10.50996 -4.71134,0.53744 -3.43286,-0.44442 -7.00268,-3.06286 v -3.63079 l 7.00268,-3.06286 3.43286,-0.44493 4.71134,0.53743 2.08721,-10.50943 -4.55734,-1.30948 -2.99465,-1.72238 -5.30407,-5.513876 1.39578,-3.347599 7.63778,-0.154512 3.33468,0.901753 4.14962,2.297534 5.95881,-8.910567 -3.71089,-2.957959 -2.10581,-2.73575 -2.79156,-7.113261 2.56883,-2.568835 7.11326,2.791044 2.73575,2.106331 2.95796,3.710885 8.91057,-5.959326 -2.29754,-4.149618 -0.90175,-3.334163 0.15503,-7.638293 3.34708,-1.395781 5.51388,5.304586 1.72237,2.994649 1.30948,4.556828 10.50996,-2.087211 -0.53795,-4.710824 0.44545,-3.433382 z" />
    </g>
    <circle
       style="display:none;opacity:1;fill:#00ff00;fill-opacity:1;stroke:none;stroke-width:23.2832;stroke-dasharray:none;stroke-opacity:1;paint-order:markers stroke fill"
       id="circle128"
       cx="183.6721"
       cy="46.902657"
       r="12.964583"
       sodipodi:insensitive="true" />
    <path
       style="color:#000000;display:inline;opacity:1;mix-blend-mode:normal;fill:#575757;stroke-width:0.999999;-inkscape-stroke:none;paint-order:markers stroke fill;fill-opacity:1"
       d="m 67.733337,29.525836 c -21.030209,0 -38.208193,17.176598 -38.208193,38.206801 0,21.030201 17.177984,38.208193 38.208193,38.208193 21.030201,0 38.208183,-17.177992 38.208183,-38.208193 0,-21.030203 -17.177982,-38.206801 -38.208183,-38.206801 z m 0,12.027194 c 14.530326,0 26.180988,11.649275 26.180988,26.179607 0,14.530327 -11.650662,26.180993 -26.180988,26.180993 -14.530333,0 -26.180996,-11.650666 -26.180996,-26.180993 0,-14.530332 11.650663,-26.179607 26.180996,-26.179607 z"
       id="path49" />
    <path
       sodipodi:type="spiral"
       style="display:inline;opacity:0.4;mix-blend-mode:normal;fill:none;fill-rule:evenodd;stroke:#000000;stroke-width:0.391437"
       id="path142"
       sodipodi:cx="-156.03432"
       sodipodi:cy="73.645378"
       sodipodi:expansion="1"
       sodipodi:revolution="60"
       sodipodi:radius="65.716827"
       sodipodi:argument="-250.54201"
       sodipodi:t0="0"
       d="m -156.03432,73.645378 c 0.1165,0.116495 -0.0996,0.214504 -0.19362,0.193619 -0.2549,-0.0566 -0.29588,-0.3831 -0.19361,-0.580862 0.18292,-0.353749 0.65793,-0.395188 0.9681,-0.193613 0.45518,0.295819 0.49744,0.9365 0.19361,1.355342 -0.40496,0.55825 -1.21639,0.600947 -1.74258,0.193608 -0.66217,-0.512595 -0.70511,-1.496906 -0.19361,-2.129822 0.61949,-0.766546 1.77778,-0.809634 2.51706,-0.193603 0.87122,0.725971 0.9144,2.058875 0.1936,2.904302 -0.83219,0.976078 -2.34012,1.019326 -3.29154,0.193598 -1.08107,-0.938244 -1.12436,-2.621466 -0.19359,-3.678782 1.04417,-1.186149 2.90288,-1.229475 4.06602,-0.193593 1.2913,1.150024 1.33465,3.184369 0.19359,4.453262 -1.25581,1.3965 -3.46589,1.439869 -4.8405,0.193588 -1.50175,-1.361543 -1.54513,-3.747451 -0.19359,-5.227743 1.46724,-1.607015 4.02904,-1.650409 5.61498,-0.193582 1.71232,1.572906 1.75572,4.310646 0.19358,6.002223 -1.67855,1.817633 -4.59227,1.861044 -6.38946,0.193577 -1.92297,-1.78417 -1.96639,-4.873918 -0.19357,-6.776703 1.88977,-2.028323 5.15557,-2.071744 7.16394,-0.193572 2.13369,1.995364 2.17711,5.437242 0.19357,7.551183 -2.10095,2.239061 -5.71892,2.282489 -7.93843,0.193567 -2.34444,-2.206511 -2.38787,-6.000605 -0.19356,-8.325664 2.31207,-2.449835 6.2823,-2.493268 8.7129,-0.193562 2.55524,2.417623 2.59867,6.563998 0.19356,9.100145 -2.52316,2.660637 -6.8457,2.704073 -9.48738,0.193556 -2.76605,-2.628706 -2.80948,-7.127412 -0.19355,-9.874624 2.73424,-2.871461 7.40912,-2.914899 10.26186,-0.193552 2.97688,2.83977 3.02032,7.690844 0.19355,10.649105 -2.9453,3.082301 -7.97257,3.125739 -11.03635,0.193546 -3.18772,-3.050816 -3.23116,-8.25429 -0.19354,-11.423584 3.15633,-3.293154 8.53602,-3.336593 11.81082,-0.193542 3.39859,3.26185 3.44203,8.817749 0.19354,12.198065 -3.36736,3.504018 -9.09948,3.547457 -12.5853,0.193536 -3.60945,-3.472871 -3.65289,-9.381216 -0.19354,-12.972545 3.57838,-3.71489 9.66296,-3.758329 13.35979,-0.193531 3.82033,3.683885 3.86377,9.944692 0.19353,13.747026 -3.78939,3.925771 -10.22643,3.969208 -14.13427,0.193525 -4.03121,-3.89489 -4.07465,-10.508173 -0.19352,-14.521505 4.00039,-4.136658 10.78992,-4.180095 14.90875,-0.193521 4.2421,4.10589 4.28553,11.071662 0.19351,15.295986 -4.21138,4.34755 -11.3534,4.390985 -15.68322,0.193516 -4.453,-4.316884 -4.49643,-11.635155 -0.19352,-16.070467 4.42238,-4.558446 11.91691,-4.60188 16.45771,-0.19351 4.6639,4.527873 4.70733,12.198651 0.19351,16.844947 -4.63337,4.769347 -12.4804,4.812779 -17.23219,0.193505 -4.8748,-4.738858 -4.91823,-12.762152 -0.1935,-17.619427 4.84435,-4.980251 13.0439,-5.023682 18.00667,-0.1935 5.0857,4.949839 5.12913,13.325656 0.19349,18.393907 -5.05532,5.191158 -13.6074,5.234588 -18.78114,0.193495 -5.29662,-5.160818 -5.34004,-13.889163 -0.1935,-19.168388 5.26631,-5.402068 14.17092,-5.445495 19.55563,-0.193489 5.50753,5.371793 5.55095,14.452672 0.19349,19.942867 -5.47728,5.612981 -14.73443,5.656407 -20.33011,0.193485 -5.71844,-5.582767 -5.76186,-15.016183 -0.19348,-20.717348 5.68825,-5.823895 15.29794,-5.867319 21.10459,-0.193479 5.92935,5.793737 5.97277,15.579696 0.19347,21.491828 -5.89922,6.034811 -15.86145,6.078233 -21.87906,0.193474 -6.14027,-6.004707 -6.18369,-16.143212 -0.19348,-22.266308 6.11019,-6.245729 16.42497,-6.289149 22.65355,-0.193469 6.35119,6.215674 6.39461,16.706728 0.19347,23.040788 -6.32116,6.456649 -16.98849,6.500067 -23.42803,0.193464 -6.56211,-6.42664 -6.60553,-17.270247 -0.19346,-23.815269 6.53212,-6.667569 17.55201,-6.710985 24.20251,-0.193458 6.77303,6.637604 6.81644,17.833766 0.19345,24.589749 -6.74308,6.878491 -18.11552,6.921905 -24.97698,0.193453 -6.98396,-6.848567 -7.02737,-18.397287 -0.19346,-25.364229 6.95405,-7.089415 18.67905,-7.132826 25.75147,-0.193448 7.19488,7.059529 7.23829,18.960808 0.19345,26.138709 -7.16501,7.300339 -19.24257,7.343748 -26.52595,0.193443 -7.4058,-7.27049 -7.44921,-19.524331 -0.19344,-26.91319 7.37597,-7.511263 19.80609,-7.554671 27.30043,-0.193437 7.61673,7.48145 7.66013,20.087855 0.19343,27.687669 -7.58693,7.72219 -20.36961,7.765596 -28.07491,0.193433 -7.82765,-7.692409 -7.87105,-20.65138 -0.19343,-28.46215 7.79789,-7.933117 20.93315,-7.97652 28.84939,-0.193427 8.03858,7.903367 8.08199,21.214905 0.19343,29.23663 -8.00885,8.144044 -21.49667,8.187445 -29.62387,0.193422 -8.24951,-8.114325 -8.29291,-21.778431 -0.19342,-30.01111 8.2198,-8.354973 22.06019,-8.398372 30.39835,-0.193417 8.46044,8.325281 8.50383,22.341958 0.19341,30.78559 -8.43076,8.565902 -22.62372,8.609298 -31.17283,0.193412 -8.67136,-8.536238 -8.71476,-22.905485 -0.19341,-31.560071 8.64172,-8.776831 23.18725,-8.820225 31.94732,-0.193407 8.88229,8.747194 8.92568,23.469014 0.1934,32.334552 -8.85267,8.987761 -23.75078,9.031153 -32.72179,0.193401 -9.09323,-8.958148 -9.13662,-24.032542 -0.1934,-33.109031 9.06362,-9.198692 24.31431,-9.242081 33.49627,-0.193397 9.30416,9.169103 9.34755,24.596071 0.19339,33.883512 -9.27458,9.409623 -24.87783,9.453013 -34.27075,0.193391 -9.51509,-9.380056 -9.55847,-25.1596 -0.19339,-34.657992 9.48554,-9.620553 25.44137,-9.663939 35.04524,-0.193386 9.72602,9.591011 9.7694,25.72313 0.19338,35.432473 -9.69649,9.831487 -26.0049,9.874867 -35.81971,0.19338 -9.93695,-9.801963 -9.98034,-26.28666 -0.19338,-36.206952 9.90744,-10.042418 26.56842,-10.085799 36.59419,-0.193376 10.14789,10.012916 10.19127,26.850191 0.19337,36.981433 -10.11839,10.253352 -27.13195,10.296732 -37.36867,0.19337 -10.35882,-10.223868 -10.40219,-27.413722 -0.19337,-37.755912 10.32935,-10.464284 27.69549,-10.50766 38.14316,-0.193366 10.56975,10.43482 10.61312,27.977254 0.19336,38.530393 -10.5403,10.675217 -28.25902,10.718587 -38.91763,0.193361 -10.78069,-10.645772 -10.82406,-28.540786 -0.19336,-39.304874 10.75125,-10.88615 28.82255,-10.929522 39.69211,-0.193355 10.99162,10.856723 11.03499,29.104317 0.19335,40.079354 -10.96219,11.097081 -29.38608,11.140451 -40.46659,0.19335 -11.20255,-11.067675 -11.24592,-29.66785 -0.19335,-40.853834 11.17315,-11.308018 29.94962,-11.351385 41.24108,-0.193345 11.41348,11.278625 11.45685,30.231382 0.19334,41.628314 -11.3841,11.518956 -30.51315,11.562316 -42.01555,0.19334 -11.62442,-11.489576 -11.66779,-30.794915 -0.19334,-42.402795 11.59505,-11.729886 31.07668,-11.773249 42.79003,-0.193334 11.83536,11.700526 11.87872,31.358447 0.19333,43.177275 -11.806,11.94082 -31.64021,11.98418 -43.56451,0.193329 -12.04629,-11.911476 -12.08965,-31.921981 -0.19333,-43.951755 12.01695,-12.151757 32.20375,-12.195114 44.339,-0.193324 12.25722,12.122425 12.30058,32.485514 0.19332,44.726235 -12.2279,12.362695 -32.76728,12.406045 -45.11348,0.193319 -12.46815,-12.333375 -12.51151,-33.049048 -0.19331,-45.500715 12.43885,-12.573628 33.33081,-12.616981 45.88795,-0.193314 12.6791,12.544324 12.72245,33.612581 0.19331,46.275195 -12.64979,12.78456 -33.89434,12.82791 -46.66243,0.193309 -12.89003,-12.755274 -12.93338,-34.176116 -0.19331,-47.049676 12.86075,-12.995498 34.45789,-13.038847 47.43692,-0.193303 13.10097,12.966223 13.14431,34.739649 0.1933,47.824156 -13.0717,13.206434 -35.02142,13.249784 -48.2114,0.193298 -13.3119,-13.177172 -13.35524,-35.303184 -0.19329,-48.598636 13.28264,-13.417371 35.58495,-13.460715 48.98587,-0.193293 13.52284,13.38812 13.56619,35.866718 0.1933,49.373116 -13.4936,13.628309 -36.14849,13.671649 -49.76036,0.193288 -13.73378,-13.599069 -13.77712,-36.430253 -0.19329,-50.147597 13.70455,-13.839243 36.71202,-13.882582 50.53484,-0.193282 13.94471,13.810017 13.98805,36.993788 0.19328,50.922077 -13.91549,14.050183 -37.27556,14.093513 -51.30932,0.193277 -14.15564,-14.020965 -14.19898,-37.557323 -0.19327,-51.696557 14.12644,-14.261116 37.83909,-14.304451 52.0838,-0.193272 14.36658,14.231913 14.40991,38.120857 0.19327,52.471037 -14.33739,14.472048 -38.40263,14.515388 -52.85828,0.193268 -14.57752,-14.442862 -14.62085,-38.684394 -0.19327,-53.245519 14.54834,-14.682989 38.96616,-14.726319 53.63276,-0.193261 14.78846,14.653809 14.83179,39.247928 0.19326,54.02 -14.75928,14.89392 -39.5297,14.93725 -54.40724,0.19325 -14.99939,-14.864753 -15.04272,-39.81146 -0.19325,-54.794474 14.97023,-15.104864 40.09323,-15.148189 55.18172,-0.193252 15.21033,15.075705 15.25365,40.375 0.19325,55.568956 -15.18118,15.3158 -40.65677,15.35913 -55.9562,0.19325 -15.42127,-15.286653 -15.46459,-40.938536 -0.19325,-56.343439 15.39213,-15.526739 41.22031,-15.570059 56.73068,-0.193242 15.63221,15.4976 15.67553,41.502071 0.19324,57.117921 -15.60307,15.73767 -41.78384,15.78099 -57.50516,0.19323 -15.84314,-15.708542 -15.88646,-42.065602 -0.19323,-57.892395 15.81402,-15.948613 42.34737,-15.991929 58.27964,-0.193231 16.05408,15.919494 16.09739,42.629143 0.19323,58.666876 -16.02497,16.15955 -42.91091,16.20287 -59.05412,0.19323 -16.26502,-16.130442 -16.30834,-43.192679 -0.19323,-59.44136 16.23592,-16.370489 43.47445,-16.4138 59.8286,-0.193221 16.47596,16.341388 16.51927,43.756215 0.19322,60.215841 -16.44686,16.58143 -44.03798,16.62473 -60.60308,0.19321 -16.68689,-16.552331 -16.7302,-44.319746 -0.19321,-60.990316 16.65781,-16.792363 44.60152,-16.83567 61.37756,-0.19321 16.89783,16.763282 16.94114,44.883287 0.19321,61.764796 -16.86876,17.00331 -45.16506,17.04661 -62.15204,0.19321 -17.10878,-16.974229 -17.15208,-45.446824 -0.19321,-62.539281 17.0797,-17.21424 45.72859,-17.257542 62.92652,-0.1932 17.31971,17.185176 17.36301,46.01036 0.1932,63.313761 -17.29065,17.42518 -46.29213,17.46848 -63.701,0.19319 -17.53065,-17.396117 -17.57395,-46.573891 -0.19319,-64.088236 17.50159,-17.636116 46.85566,-17.679414 64.47548,-0.19319 17.74158,17.607069 17.78488,47.137433 0.19319,64.862726 -17.71255,17.84705 -47.41921,17.89034 -65.24997,0.19318 -17.95252,-17.818015 -17.99581,-47.70097 -0.19318,-65.637202 17.92349,-18.057992 47.98274,-18.101285 66.02444,-0.193179 18.16347,18.028962 18.20676,48.264506 0.19318,66.411681 -18.13443,18.26893 -48.54627,18.31222 -66.79892,0.19317 -18.3744,-18.239903 -18.41769,-48.828038 -0.19317,-67.186157 18.34538,-18.479869 49.10981,-18.523157 67.5734,-0.193169 18.58534,18.450854 18.62862,49.391579 0.19317,67.960646 -18.55633,18.6908 -49.67335,18.73409 -68.34789,0.19316 -18.79627,-18.661801 -18.83956,-49.955117 -0.19316,-68.735123 18.76728,-18.901745 50.23689,-18.945029 69.12237,-0.193158 19.00721,18.872746 19.05049,50.518653 0.19315,69.509601 -18.97822,19.11269 -50.80042,19.15597 -69.89684,0.19315 -19.21816,-19.083688 -19.26144,-51.082185 -0.19315,-70.284078 19.18916,-19.323623 51.36396,-19.366901 70.67132,-0.193148 19.42909,19.294639 19.47237,51.645727 0.19315,71.058566 -19.40012,19.53456 -51.9275,19.57783 -71.44581,0.19314 -19.64003,-19.505585 -19.6833,-52.209264 -0.19314,-71.833043 19.61106,-19.745501 52.49104,-19.788774 72.22029,-0.193138 19.850965,19.716531 19.894238,52.772801 0.19313,72.607521 -19.822,19.95644 -53.05457,19.99971 -72.99476,0.19314 -20.06191,-19.927482 -20.10518,-53.336344 -0.19313,-73.382009 20.03295,-20.167377 53.6181,-20.210647 73.76924,-0.193127 20.272848,20.138422 20.316116,53.899876 0.19313,74.156486 -20.2439,20.37831 -54.18165,20.42158 -74.54373,0.19312 -20.48378,-20.349368 -20.52705,-54.463413 -0.19312,-74.930964 20.45484,-20.589256 54.74518,-20.63252 75.31821,-0.193117 20.694721,20.560314 20.737985,55.02695 0.19311,75.705441 -20.66579,20.8002 -55.30872,20.84346 -76.09268,0.19312 -20.90567,-20.771265 -20.94893,-55.590493 -0.19311,-76.47993 20.87673,-21.011133 55.87225,-21.054393 76.86716,-0.193106 21.116605,20.982205 21.159863,56.154025 0.19311,77.254406 -21.08768,21.22207 -56.4358,21.26533 -77.64165,0.1931 -21.32754,-21.193151 -21.3708,-56.717562 -0.1931,-78.028885 21.29863,-21.433011 56.99933,-21.476266 78.41613,-0.193097 21.538478,21.404097 21.581732,57.281101 0.19309,78.803362 -21.50957,21.64395 -57.56287,21.68721 -79.1906,0.1931 -21.74942,-21.615047 -21.79268,-57.844642 -0.19309,-79.57785 21.72051,-21.85489 58.1264,-21.89814 79.96508,-0.193087 21.960362,21.825988 22.003611,58.408176 0.19309,80.352327 -21.93146,22.06583 -58.68995,22.10908 -80.73957,0.19308 -22.1713,-22.036933 -22.21454,-58.971712 -0.19308,-81.126806 22.14241,-22.276767 59.25348,-22.320013 81.51405,-0.193076 22.382235,22.247879 22.42548,59.535251 0.19307,81.901282 -22.35335,22.48771 -59.81702,22.53095 -82.28853,0.19308 -22.59317,-22.458829 -22.63641,-60.098792 -0.19306,-82.675771 22.56429,-22.698646 60.38055,-22.741887 83.063,-0.193066 22.804119,22.66977 22.847359,60.662326 0.19307,83.450247 -22.77525,22.90959 -60.9441,22.95282 -83.83749,0.19306 -23.01506,-22.880715 -23.05829,-61.225863 -0.19306,-84.224727 22.98619,-23.1205239 61.50763,-23.1637603 84.61197,-0.193055 23.225993,23.091661 23.269228,61.789401 0.19305,84.999212 -23.19713,23.33146 -62.07117,23.37469 -85.38645,0.19305 -23.43693,-23.30261 -23.48016,-62.352943 -0.19304,-85.773692 23.40808,-23.542403 62.6347,-23.5856346 86.16092,-0.193045 23.647877,23.513551 23.691108,62.916477 0.19305,86.548167 -23.61903,23.75334 -63.19825,23.79657 -86.93541,0.19304 -23.85881,-23.724496 -23.90204,-63.480014 -0.19304,-87.322648 23.82997,-23.9642811 63.76179,-24.007508 87.70989,-0.193034 24.069751,23.935442 24.112977,64.043552 0.19303,88.097132 -24.04091,24.17522 -64.32532,24.21844 -88.48437,0.19303 -24.28069,-24.146391 -24.32391,-64.607094 -0.19302,-88.871613 24.25186,-24.3861603 64.88886,-24.4293825 89.25885,-0.193024 24.491625,24.357332 24.534847,65.170628 0.19302,89.646087 -24.46281,24.5971 -65.4524,24.64032 -90.03333,0.19302 -24.70257,-24.568276 -24.74579,-65.734165 -0.19302,-90.420568 24.67375,-24.8080397 66.01594,-24.8512572 90.80781,-0.193014 24.91351,24.779222 24.956726,66.297704 0.19301,91.195052 -24.88469,25.01898 -66.57947,25.06219 -91.58229,0.19301 -25.12445,-24.990172 -25.16766,-66.861246 -0.193,-91.969534 25.09564,-25.2299181 67.14301,-25.2731309 92.35677,-0.193003 25.335384,25.201112 25.378596,67.42478 0.193,92.744007"
       transform="matrix(0.67592778,0,0,0.67592778,172.92475,18.230885)"
       clip-path="url(#clipPath143)" />
    <path
       id="path72"
       style="color:#000000;display:inline;opacity:0.68;mix-blend-mode:normal;fill:#ffffff;stroke-width:0.999999;-inkscape-stroke:none;paint-order:markers stroke fill"
       d="m 67.733332,41.34993 c -14.530318,0 -26.18083,11.64948 -26.18083,26.179797 0,0.03398 0.0025,0.06733 0.0026,0.101286 0.05457,-14.482619 11.682071,-26.077994 26.178246,-26.077994 14.496169,0 26.123672,11.595375 26.178247,26.077994 1.28e-4,-0.03395 0.0026,-0.0673 0.0026,-0.101286 0,-14.530317 -11.650519,-26.179797 -26.180831,-26.179797 z M 29.527913,67.631013 c -9e-5,0.03411 -0.0026,0.06767 -0.0026,0.101803 0,21.03018 17.177816,38.208004 38.208003,38.208004 21.03018,0 38.208004,-17.177824 38.208004,-38.208004 0,-0.03413 -0.002,-0.06769 -0.003,-0.101803 -0.0554,20.983764 -17.209194,38.106717 -38.205414,38.106717 -20.996227,0 -38.150064,-17.122953 -38.205419,-38.106717 z" />
    <path
       id="path73"
       style="color:#000000;display:inline;opacity:0.68;mix-blend-mode:normal;fill:#000000;fill-opacity:1;stroke-width:0.999999;-inkscape-stroke:none;paint-order:markers stroke fill"
       d="m 67.733332,94.116726 c -14.530318,0 -26.18083,-11.64948 -26.18083,-26.179797 0,-0.03398 0.0025,-0.06733 0.0026,-0.101286 0.05457,14.482619 11.682071,26.077993 26.178246,26.077993 14.496169,0 26.123672,-11.595374 26.178247,-26.077993 1.28e-4,0.03395 0.0026,0.0673 0.0026,0.101286 0,14.530317 -11.650519,26.179797 -26.180831,26.179797 z M 29.527913,67.835643 c -9e-5,-0.03411 -0.0026,-0.06767 -0.0026,-0.101803 0,-21.03018 17.177816,-38.208004 38.208003,-38.208004 21.03018,0 38.208004,17.177824 38.208004,38.208004 0,0.03413 -0.002,0.06769 -0.003,0.101803 -0.0549,-20.983764 -17.208768,-38.106717 -38.204988,-38.106717 -20.996227,0 -38.150064,17.122953 -38.205419,38.106717 z" />
    <path
       id="path83"
       style="display:inline;opacity:0.4;fill:#000000;fill-opacity:1;stroke:none;stroke-width:2.11667;stroke-dasharray:none;paint-order:markers stroke fill"
       d="m 62.445022,11.223922 -0.0346,0.268718 0.47336,4.150136 0.0641,-0.01292 z m 10.57661,0 -0.50281,4.405935 0.0641,0.01292 0.47336,-4.150136 z m -32.62023,2.71043 -0.0109,0.534334 0.90124,3.334165 2.06602,3.730521 0.23203,-0.155029 -2.29805,-4.149618 z m 54.66385,0 -0.8909,3.29489 -2.29754,4.149101 0.23203,0.155029 2.06551,-3.730521 0.90175,-3.334165 z m -75.60004,7.77627 -0.16174,0.161748 2.79104,7.11326 2.10581,2.735751 3.46129,2.757971 0.25012,-0.374137 -3.71141,-2.957959 -2.10581,-2.735751 z m 96.536238,0 -2.6293,6.700883 -2.10581,2.735751 -3.7114,2.957959 0.25011,0.374137 3.46129,-2.757971 2.10581,-2.735751 2.79105,-7.11326 z M 5.6014629,43.492238 l -0.16692,0.399976 5.3040691,5.514392 2.99517,1.722375 4.44882,1.277959 0.10801,-0.542603 -4.55683,-1.309481 -2.99517,-1.722375 z m 124.2637371,0 -5.13767,5.340243 -2.99465,1.722375 -4.55683,1.309481 0.10801,0.542603 4.44882,-1.277959 2.99465,-1.722375 5.30459,-5.514392 z M 67.733072,54.27711 c -3.30093,-2e-6 -6.60154,1.256123 -9.11366,3.768245 -2.58498,2.584984 -3.82978,6.004994 -3.75481,9.400976 0.0708,-3.204554 1.31555,-6.38758 3.75481,-8.826851 5.02425,-5.024245 13.20358,-5.024255 18.22783,0 2.43927,2.439267 3.68407,5.622299 3.75481,8.826851 0.075,-3.395979 -1.16983,-6.815997 -3.75481,-9.400976 -2.51212,-2.512127 -5.81324,-3.768244 -9.11417,-3.768245 z M 1.0565229,68.97492 v 0.573609 l 7.00267,3.062862 3.4333791,0.444934 4.71083,-0.537435 1.9792,9.966833 0.10801,-0.03101 -2.08721,-10.509953 -4.71083,0.537435 -3.4333791,-0.444934 z m 133.3536171,0 -7.00267,3.062862 -3.43338,0.444418 -4.71083,-0.537435 -2.08721,10.509953 0.10801,0.03101 1.9792,-9.966833 4.71083,0.537435 3.43338,-0.444934 7.00267,-3.062862 z m -20.89588,22.327841 -5.95932,8.911059 0.25063,0.19946 5.70869,-8.536399 4.14962,2.29753 3.33416,0.90176 7.6383,-0.15451 1.39578,-3.34709 -0.16692,-0.17363 -1.22886,2.94659 -7.6383,0.15451 -3.33416,-0.90123 z m -91.561338,5.1e-4 -4.15014,2.29754 -3.33416,0.90123 -7.6382891,-0.15451 -1.22887,-2.94659 -0.16692,0.17363 1.39579,3.34709 7.6382891,0.15451 3.33416,-0.90176 4.15014,-2.29701 5.70817,8.535879 0.25064,-0.19946 z m 12.72583,15.677599 -0.60513,0.76636 -2.35231,2.94504 -2.73575,2.10581 -7.11326,2.79105 -2.40709,-2.40657 -0.16174,0.41186 2.56883,2.56883 7.11326,-2.79104 2.73575,-2.10582 2.35231,-2.94555 0.60513,-0.76585 8.67906,5.8043 0.23203,-0.4191 z m 66.109158,0 -8.911098,5.95932 0.23203,0.4191 8.679068,-5.8043 2.95744,3.7114 2.73575,2.10582 7.11326,2.79104 2.56884,-2.56883 -0.16175,-0.41186 -2.40709,2.40657 -7.11326,-2.79105 -2.73575,-2.10581 z m -48.350028,9.62112 -1.30897,4.55682 -1.72289,2.99517 -5.51387,5.30407 -3.34709,-1.39578 -0.14366,-7.10396 -0.0109,0.0398 0.15451,7.63829 3.34709,1.39578 5.51387,-5.30458 1.72289,-2.99465 1.30897,-4.55683 10.44587,2.07429 0.0641,-0.5612 z m 30.59089,0 -10.50995,2.08721 0.0641,0.5612 10.44587,-2.07429 1.30897,4.55683 1.72237,2.99465 5.5144,5.30458 3.34708,-1.39578 0.15451,-7.63829 -0.0109,-0.0398 -0.14366,7.10396 -3.34708,1.39578 -5.5144,-5.30407 -1.72237,-2.99517 z m -20.58375,7.06726 -0.0346,0.3049 0.44494,3.43338 3.06286,7.00267 h 3.63027 l 3.06286,-7.00267 0.44494,-3.43338 -0.0346,-0.3049 -0.41031,3.16415 -3.06286,7.00268 h -3.63027 l -3.06286,-7.00268 z" />
    <path
       id="path91"
       style="display:inline;opacity:0.4;fill:#ffffff;fill-opacity:1;stroke:none;stroke-width:2.11667;stroke-dasharray:none;paint-order:markers stroke fill"
       d="m 65.917944,1.0583328 -3.06286,7.0026731 -0.44494,3.4328671 0.03463,0.305407 0.41031,-3.1641491 3.06286,-7.002673 h 3.63079 l 3.06234,7.002157 0.41031,3.1646651 0.03462,-0.305407 -0.44493,-3.4333831 -3.06234,-7.0021571 z m -22.02553,4.3780271 -3.34708,1.395781 -0.15503,7.6382941 0.01085,0.04031 0.14418,-7.1044771 3.34708,-1.39578 5.51388,5.3040691 1.72237,2.995167 1.30948,4.556827 10.50995,-2.087211 -0.06407,-0.561206 -10.44588,2.074292 -1.30948,-4.556828 -1.72237,-2.995167 z m 47.68184,0 -5.51387,5.3040691 -1.72289,2.995167 -1.30897,4.556828 -10.44587,-2.074292 -0.06408,0.561206 10.50995,2.087211 1.30897,-4.556827 1.72289,-2.995167 5.51387,-5.3040691 3.34709,1.39578 0.14366,7.1039601 0.01085,-0.03979 -0.15451,-7.6382941 z m -69.7022,13.8684051 -2.56884,2.568836 0.16175,0.412378 2.40709,-2.407088 7.11326,2.79156 2.73575,2.105815 2.95796,3.710885 8.91057,-5.95881 -0.23203,-0.419096 -8.67854,5.804297 -2.95796,-3.711401 -2.73575,-2.105815 z m 91.722566,0 -7.11378,2.791561 -2.73575,2.105815 -2.95745,3.711401 -8.679046,-5.804297 -0.23203,0.419096 8.911076,5.95881 2.95745,-3.710885 2.73575,-2.105815 7.11378,-2.79156 2.40708,2.407088 0.16175,-0.412378 z m -85.933776,15.75046 -5.70818,8.53643 -4.14961,-2.298051 -3.33468,-0.901237 -7.6377803,0.154512 -1.3963,3.347083 0.16692,0.173633 1.22938,-2.94659 7.6377803,-0.154513 3.33468,0.901237 4.14961,2.297534 5.95881,-8.910567 z m 80.144976,0 -0.25063,0.199471 5.95881,8.910567 4.14962,-2.297534 3.33416,-0.901237 7.63829,0.154513 1.22887,2.94659 0.16691,-0.173633 -1.39578,-3.347083 -7.63829,-0.154512 -3.33416,0.901237 -4.14962,2.298051 z m -89.622946,17.927588 -1.97921,9.966833 -4.71134,-0.537435 -3.4333803,0.444934 -7.00216,3.062346 v 0.574125 l 7.00216,-3.062346 3.4333803,-0.444934 4.71134,0.537435 2.08721,-10.509952 z m 99.100926,0 -0.10801,0.03101 2.08721,10.509952 4.71134,-0.537435 3.43287,0.444418 7.00267,3.062862 v -0.574125 l -7.00267,-3.062863 -3.43287,-0.444417 -4.71134,0.537435 z M 54.864354,68.022205 c -0.07497,3.395982 1.16983,6.815992 3.75481,9.400976 5.02424,5.024241 13.20358,5.024251 18.22783,0 2.58498,-2.584979 3.82978,-6.004997 3.75481,-9.400976 -0.07084,3.204418 -1.31565,6.387685 -3.75481,8.826851 -5.02425,5.024253 -13.20359,5.024243 -18.22783,0 -2.43917,-2.439171 -3.68397,-5.622431 -3.75481,-8.826851 z m -36.68148,15.038875 -4.44934,1.278475 -2.99465,1.722375 -5.3045903,5.513871 0.16692,0.4005 5.1376703,-5.340246 2.99465,-1.722375 4.55734,-1.309481 z m 99.100926,0 -0.10801,0.543119 4.55683,1.309481 2.99517,1.722375 5.13715,5.340246 0.16691,-0.4005 -5.30406,-5.513871 -2.99517,-1.722375 z m -89.622956,17.92759 -3.46025,2.75849 -2.10582,2.73575 -2.79156,7.11326 0.16175,0.16175 2.62981,-6.70088 2.10582,-2.73575 3.71088,-2.95796 z m 80.144976,0 -0.25063,0.37466 3.71089,2.95796 2.10581,2.73575 2.62981,6.70088 0.16175,-0.16175 -2.79156,-7.11326 -2.10581,-2.73575 z m -64.448256,12.94599 -2.06551,3.73052 -0.90175,3.33468 0.01085,0.53381 0.8909,-3.29437 2.29754,-4.14962 z m 48.75103,0 -0.23203,0.15502 2.29805,4.14962 0.89039,3.29489 0.01085,-0.53433 -0.90124,-3.33468 z m -29.22457,5.89111 -0.47388,4.15013 0.03463,0.26872 0.50332,-4.40593 z m 9.69863,0 -0.06408,0.0129 0.50281,4.40593 0.03462,-0.26872 z" />
    <path
       id="path107"
       style="display:inline;opacity:0.4;fill:#ffffff;fill-opacity:1;stroke:none;stroke-width:2.11667;stroke-dasharray:none;paint-order:markers stroke fill"
       d="m 65.917944,1.0583328 -3.06286,7.0026731 -0.44494,3.4328671 0.03463,0.305407 0.41031,-3.1641491 3.06286,-7.002673 h 3.63079 l 3.06234,7.002157 0.41031,3.1646651 0.03462,-0.305407 -0.44493,-3.4333831 -3.06234,-7.0021571 z m -22.02553,4.3780271 -3.34708,1.395781 -0.15503,7.6382941 0.01085,0.04031 0.14418,-7.1044771 3.34708,-1.39578 5.51388,5.3040691 1.72237,2.995167 1.30948,4.556827 10.50995,-2.087211 -0.06407,-0.561206 -10.44588,2.074292 -1.30948,-4.556828 -1.72237,-2.995167 z m 47.68184,0 -5.51387,5.3040691 -1.72289,2.995167 -1.30897,4.556828 -10.44587,-2.074292 -0.06408,0.561206 10.50995,2.087211 1.30897,-4.556827 1.72289,-2.995167 5.51387,-5.3040691 3.34709,1.39578 0.14366,7.1039601 0.01085,-0.03979 -0.15451,-7.6382941 z m -69.7022,13.8684051 -2.56884,2.568836 0.16175,0.412378 2.40709,-2.407088 7.11326,2.79156 2.73575,2.105815 2.95796,3.710885 8.91057,-5.95881 -0.23203,-0.419096 -8.67854,5.804297 -2.95796,-3.711401 -2.73575,-2.105815 z m 91.722566,0 -7.11378,2.791561 -2.73575,2.105815 -2.95745,3.711401 -8.679046,-5.804297 -0.23203,0.419096 8.911076,5.95881 2.95745,-3.710885 2.73575,-2.105815 7.11378,-2.79156 2.40708,2.407088 0.16175,-0.412378 z m -85.933776,15.75046 -5.70818,8.53643 -4.14961,-2.298051 -3.33468,-0.901237 -7.6377803,0.154512 -1.3963,3.347083 0.16692,0.173633 1.22938,-2.94659 7.6377803,-0.154513 3.33468,0.901237 4.14961,2.297534 5.95881,-8.910567 z m 80.144976,0 -0.25063,0.199471 5.95881,8.910567 4.14962,-2.297534 3.33416,-0.901237 7.63829,0.154513 1.22887,2.94659 0.16691,-0.173633 -1.39578,-3.347083 -7.63829,-0.154512 -3.33416,0.901237 -4.14962,2.298051 z m -89.622946,17.927588 -1.97921,9.966833 -4.71134,-0.537435 -3.4333803,0.444934 -7.00216,3.062346 v 0.574125 l 7.00216,-3.062346 3.4333803,-0.444934 4.71134,0.537435 2.08721,-10.509952 z m 99.100926,0 -0.10801,0.03101 2.08721,10.509952 4.71134,-0.537435 3.43287,0.444418 7.00267,3.062862 v -0.574125 l -7.00267,-3.062863 -3.43287,-0.444417 -4.71134,0.537435 z M 54.864354,68.022205 c -0.07497,3.395982 1.16983,6.815992 3.75481,9.400976 5.02424,5.024241 13.20358,5.024251 18.22783,0 2.58498,-2.584979 3.82978,-6.004997 3.75481,-9.400976 -0.07084,3.204418 -1.31565,6.387685 -3.75481,8.826851 -5.02425,5.024253 -13.20359,5.024243 -18.22783,0 -2.43917,-2.439171 -3.68397,-5.622431 -3.75481,-8.826851 z m -36.68148,15.038875 -4.44934,1.278475 -2.99465,1.722375 -5.3045903,5.513871 0.16692,0.4005 5.1376703,-5.340246 2.99465,-1.722375 4.55734,-1.309481 z m 99.100926,0 -0.10801,0.543119 4.55683,1.309481 2.99517,1.722375 5.13715,5.340246 0.16691,-0.4005 -5.30406,-5.513871 -2.99517,-1.722375 z m -89.622956,17.92759 -3.46025,2.75849 -2.10582,2.73575 -2.79156,7.11326 0.16175,0.16175 2.62981,-6.70088 2.10582,-2.73575 3.71088,-2.95796 z m 80.144976,0 -0.25063,0.37466 3.71089,2.95796 2.10581,2.73575 2.62981,6.70088 0.16175,-0.16175 -2.79156,-7.11326 -2.10581,-2.73575 z m -64.448256,12.94599 -2.06551,3.73052 -0.90175,3.33468 0.01085,0.53381 0.8909,-3.29437 2.29754,-4.14962 z m 48.75103,0 -0.23203,0.15502 2.29805,4.14962 0.89039,3.29489 0.01085,-0.53433 -0.90124,-3.33468 z m -29.22457,5.89111 -0.47388,4.15013 0.03463,0.26872 0.50332,-4.40593 z m 9.69863,0 -0.06408,0.0129 0.50281,4.40593 0.03462,-0.26872 z" />
    <path
       id="path119"
       style="fill:#800000;fill-opacity:1;stroke:none;stroke-width:2.90393214;stroke-dasharray:none;stroke-opacity:1;paint-order:markers stroke fill"
       inkscape:transform-center-x="-5.9908918e-06"
       inkscape:transform-center-y="8.1637894"
       d="M 277.19173 129.29848 C 240.0348 129.29848 209.61201 98.957528 209.46616 61.833104 L 184.26661 61.833104 L 223.06558 -5.3685363 L 261.86385 61.833104 L 236.67776 61.833104 C 236.81968 84.247222 254.74136 102.08617 277.19173 102.08617 L 277.19244 102.08617 L 277.19244 129.29848 L 277.19173 129.29848 z "
       transform="matrix(0.72889673,0,0,-0.72889673,-134.31133,112.80328)" />
    <path
       id="path120"
       style="fill:#008000;fill-opacity:1;stroke:none;stroke-width:2.90393214;stroke-dasharray:none;stroke-opacity:1;paint-order:markers stroke fill"
       inkscape:transform-center-y="-8.1637935"
       d="M 223.06493 -5.3685273 L 184.26667 61.833113 L 209.45913 61.833113 C 209.45913 84.372926 191.4786 102.35275 168.93879 102.35275 L 168.93808 102.35275 L 168.93808 129.56506 L 168.93879 129.56506 C 206.18511 129.56506 236.67144 99.079432 236.67144 61.833113 L 261.86391 61.833113 L 223.06493 -5.3685273 z "
       transform="matrix(0.72889673,0,0,0.72889673,-55.40508,22.664412)" />
    <path
       id="path124"
       style="fill:#ff0000;fill-opacity:1;stroke:none;stroke-width:0.529167;stroke-dasharray:none;stroke-opacity:1;paint-order:markers stroke fill;filter:url(#filter134)"
       inkscape:transform-center-x="31.922817"
       inkscape:transform-center-y="-2.6785876"
       d="m 61.644531,24.083984 c -9.330273,1.320526 -18.159343,5.697544 -24.881036,12.378679 -4.074445,4.02223 -7.356332,8.900465 -9.573196,14.093822 -2.380258,5.511014 -3.563608,11.510708 -3.558002,17.509594 2.79e-4,1.638709 -0.59557,3.435017 -2.119641,4.2565 -1.867777,1.138122 -4.124895,0.626441 -6.184139,0.710737 -2.054818,-0.002 -4.109636,-0.004 -6.1644545,-0.006 6.3723955,11.034505 12.7447915,22.06901 19.1171875,33.103514 6.372396,-11.035155 12.744792,-22.070311 19.117188,-33.105467 -4.767579,0 -9.535157,0 -14.302735,0 -1.040901,-9.244695 1.159096,-19.014981 6.891202,-26.444327 5.402956,-7.099139 13.632217,-12.001708 22.470126,-13.274423 -0.02483,-3.108658 -0.01264,-6.217449 -0.01953,-9.326172 -0.264323,0.0345 -0.528646,0.06901 -0.792969,0.103515 z" />
    <path
       id="path126"
       style="fill:#00ff00;fill-opacity:1;stroke:none;stroke-width:0.529167;stroke-dasharray:none;stroke-opacity:1;paint-order:markers stroke fill;filter:url(#filter135)"
       inkscape:transform-center-x="-31.922816"
       inkscape:transform-center-y="2.6785901"
       d="m 73.822194,111.38446 c 9.330273,-1.32052 18.159343,-5.69754 24.881036,-12.378677 4.07445,-4.02223 7.35633,-8.900465 9.5732,-14.093822 2.38025,-5.511014 3.5636,-11.510708 3.558,-17.509594 -2.8e-4,-1.638709 0.59557,-3.435017 2.11964,-4.2565 1.86778,-1.138122 4.12489,-0.626441 6.18414,-0.710737 2.05482,0.002 4.10963,0.004 6.16445,0.006 -6.37239,-11.034505 -12.74479,-22.06901 -19.11718,-33.103514 -6.3724,11.035155 -12.744797,22.070311 -19.117193,33.105467 4.767579,0 9.535157,0 14.302733,0 1.0409,9.244695 -1.15909,19.014981 -6.8912,26.444327 -5.402956,7.099139 -13.632217,12.00171 -22.470126,13.27442 0.02483,3.10866 0.01264,6.21745 0.01953,9.32618 0.264323,-0.0345 0.528646,-0.069 0.792969,-0.10352 z" />
    <g
       id="g130"
       transform="translate(-148.64957,15.233333)"
       style="display:inline;opacity:0.4;mix-blend-mode:normal">
      <path
         id="path129"
         style="fill:#ffffff;fill-opacity:1;stroke:none;stroke-width:0.529167;stroke-dasharray:none;stroke-opacity:1;paint-order:markers stroke fill;filter:url(#filter127)"
         inkscape:transform-center-x="31.922817"
         inkscape:transform-center-y="-2.6785876"
         d="m 207.66992,12.013672 c -4.22537,0.920605 -8.2941,2.533881 -11.97461,4.667969 -7.4288,4.289536 -13.47481,10.924031 -16.99887,18.750475 -2.44509,5.376139 -3.72729,11.187881 -3.76748,17.039723 0.0233,2.018052 -0.45395,4.137487 -1.88351,5.636798 -1.50912,1.734017 -3.86872,2.405369 -6.10319,2.370446 -1.51819,0.04532 -3.03545,-0.0729 -4.55359,-0.05135 4.84701,8.39323 9.69401,16.786459 14.54102,25.179688 4.84505,-8.388672 9.6901,-16.777344 14.53515,-25.166016 -4.02213,0 -8.04427,0 -12.0664,0 -1.59026,-9.937074 0.21845,-20.59066 5.9133,-28.990634 5.33367,-7.903403 13.80776,-13.623564 23.14334,-15.577725 -0.003,-1.339844 -0.005,-2.679688 -0.008,-4.019531 -0.25912,0.05338 -0.51823,0.10677 -0.77735,0.160156 z" />
      <path
         id="path130"
         style="fill:#ffffff;fill-opacity:1;stroke:none;stroke-width:0.529167;stroke-dasharray:none;stroke-opacity:1;paint-order:markers stroke fill;filter:url(#filter126)"
         inkscape:transform-center-x="-31.922816"
         inkscape:transform-center-y="2.6785901"
         d="m 241.29883,44.566406 c 4.02278,0 8.04557,0 12.06836,0 1.58791,9.947513 -0.22845,20.609878 -5.92815,29.018492 -5.34065,7.886884 -13.80574,13.594925 -23.13045,15.551821 0.003,1.336588 0.005,2.673177 0.008,4.009765 7.4196,-1.436763 14.63931,-5.141861 20.20268,-10.326798 7.62108,-7.050116 12.45919,-17.039186 13.18599,-27.40367 0.16709,-1.800158 0.022,-3.858443 0.45312,-5.720704 0.80125,-2.865708 3.55448,-5.036759 6.53852,-5.096846 1.88901,-0.190805 3.78721,0.0094 5.68023,-0.01448 -4.84765,-8.394531 -9.69531,-16.789062 -14.54297,-25.183593 -4.84505,8.388671 -9.6901,16.777343 -14.53515,25.166015 z" />
    </g>
    <path
       style="color:#000000;display:none;fill:#008000;stroke-width:0.728926;stroke-dasharray:none;paint-order:markers stroke fill"
       d="M 274.03236,-3.2550984 245.75192,45.727958 h 18.3627 c 0,16.429196 -13.10544,29.534632 -29.53463,29.534632 h -7.3e-4 v 19.834964 h 7.3e-4 c 27.14873,0 49.3696,-22.220876 49.3696,-49.369596 h 18.3627 z"
       id="path146"
       sodipodi:insensitive="true" />
    <path
       style="color:#000000;display:none;fill:#800000;stroke-width:0.728926;stroke-dasharray:none;paint-order:markers stroke fill"
       d="m 234.57844,-3.4483672 c -27.08356,0 -49.25864,22.1154192 -49.36494,49.1752902 H 166.84562 L 195.12607,94.709979 223.406,45.726923 h -18.35805 c 0.10344,-16.337577 13.1665,-29.340326 29.53049,-29.340326 h 5.2e-4 V -3.4483672 Z"
       id="path148"
       sodipodi:insensitive="true" />
    <path
       id="path150"
       clip-path="url(#clipPath151)"
       style="color:#000000;fill:#000000;-inkscape-stroke:none;paint-order:markers stroke fill;filter:url(#filter153)"
       d="m 484.23245,16.925582 -0.91777,1.585949 -29.19563,50.572623 h 19.02157 c -0.65781,15.25814 -12.92484,27.222627 -28.36157,27.222628 h -1.05834 v 0.195337 1.999878 18.798853 0.95705 0.19533 h 1.05834 c 27.36887,0 49.8006,-22.130908 50.37522,-49.369076 h 19.19159 z m -39.4534,0.670243 c -27.36888,0 -49.80009,22.130911 -50.37471,49.369079 h -19.19159 l 30.11341,52.158056 0.91777,-1.58595 29.19564,-50.572106 h -19.02158 c 0.65781,-15.25814 12.92432,-27.222626 28.36106,-27.222627 h 1.05885 V 39.54694 37.547062 18.748209 17.791162 17.595825 Z m -1.05834,2.337325 v 17.604093 c -16.48258,0.564202 -29.53514,13.857052 -29.53514,30.485994 v 0.703833 l -0.002,0.355017 h 0.002 17.58755 l -7.99124,13.842566 -18.45572,31.966007 -26.44748,-45.808573 h 17.58807 0.002 l 0.004,-1.054716 c 0.10256,-26.12927 21.22541,-47.525545 47.24776,-48.094221 z m 40.51174,1.225248 18.45572,31.966007 7.99125,13.842566 h -17.58756 -0.002 l -0.004,1.054716 C 492.9831,94.150858 471.86011,115.54708 445.8379,116.11591 V 98.511815 c 16.48258,-0.564201 29.53515,-13.857568 29.53515,-30.486511 v -0.703316 l 0.002,-0.355017 h -0.002 -17.58756 l 7.99124,-13.842566 z"
       transform="translate(-377.04597,-0.2909385)" />
  </g>
</svg>
