<?xml version="1.0" encoding="UTF-8" standalone="no"?>
<!-- Created with Inkscape (http://www.inkscape.org/) -->

<svg
   width="512"
   height="512"
   viewBox="0 0 135.46665 135.46665"
   version="1.1"
   id="svg5"
   inkscape:version="1.3.2 (091e20ef0f, 2023-11-25, custom)"
   sodipodi:docname="tageditor.svg"
   xmlns:inkscape="http://www.inkscape.org/namespaces/inkscape"
   xmlns:sodipodi="http://sodipodi.sourceforge.net/DTD/sodipodi-0.dtd"
   xmlns:xlink="http://www.w3.org/1999/xlink"
   xmlns="http://www.w3.org/2000/svg"
   xmlns:svg="http://www.w3.org/2000/svg"
   xmlns:rdf="http://www.w3.org/1999/02/22-rdf-syntax-ns#"
   xmlns:cc="http://creativecommons.org/ns#"
   xmlns:dc="http://purl.org/dc/elements/1.1/">&gt;
  <sodipodi:namedview
   id="namedview7"
   pagecolor="#505050"
   bordercolor="#ffffff"
   borderopacity="1"
   inkscape:showpageshadow="0"
   inkscape:pageopacity="0"
   inkscape:pagecheckerboard="1"
   inkscape:deskcolor="#505050"
   inkscape:document-units="mm"
   showgrid="false"
   inkscape:zoom="1.4467453"
   inkscape:cx="359.77307"
   inkscape:cy="212.89165"
   inkscape:window-width="1920"
   inkscape:window-height="1080"
   inkscape:window-x="1864"
   inkscape:window-y="0"
   inkscape:window-maximized="0"
   inkscape:current-layer="svg5"
   showguides="false" />
<defs
   id="defs2">
  <linearGradient
     id="linearGradient57"
     inkscape:collect="always">
    <stop
       style="stop-color:#e9ddaf;stop-opacity:1;"
       offset="0"
       id="stop57" />
    <stop
       style="stop-color:#d2c698;stop-opacity:1;"
       offset="1"
       id="stop58" />
  </linearGradient>
  <rect
     x="-444.11853"
     y="592.83876"
     width="466.7191"
     height="433.56582"
     id="rect1259" />
  <rect
     x="-444.11853"
     y="592.83876"
     width="466.7191"
     height="433.56582"
     id="rect22076" />
  <radialGradient
     inkscape:collect="always"
     xlink:href="#linearGradient12717"
     id="radialGradient8874"
     cx="67.73333"
     cy="67.73333"
     fx="67.73333"
     fy="67.73333"
     r="56.342476"
     gradientUnits="userSpaceOnUse"
     gradientTransform="translate(3.5603841e-6)" />
  <linearGradient
     inkscape:collect="always"
     id="linearGradient12717">
    <stop
       style="stop-color:#000000;stop-opacity:1;"
       offset="0"
       id="stop12711" />
    <stop
       style="stop-color:#505050;stop-opacity:1;"
       offset="0.9847787"
       id="stop12713" />
    <stop
       style="stop-color:#000000;stop-opacity:1;"
       offset="1"
       id="stop12715" />
  </linearGradient>
  <linearGradient
     inkscape:collect="always"
     xlink:href="#linearGradient8872"
     id="linearGradient13445"
     x1="385.466"
     y1="146.14571"
     x2="320.07919"
     y2="50.416058"
     gradientUnits="userSpaceOnUse"
     gradientTransform="translate(-285.04328,-30.547546)" />
  <linearGradient
     inkscape:collect="always"
     id="linearGradient8872">
    <stop
       style="stop-color:#ffffff;stop-opacity:0;"
       offset="0"
       id="stop8868" />
    <stop
       style="stop-color:#000000;stop-opacity:1;"
       offset="1"
       id="stop8870" />
  </linearGradient>
  <linearGradient
     inkscape:collect="always"
     xlink:href="#linearGradient49668"
     id="linearGradient49670"
     x1="15.762308"
     y1="1.3666567"
     x2="84.49926"
     y2="94.528419"
     gradientUnits="userSpaceOnUse" />
  <linearGradient
     inkscape:collect="always"
     id="linearGradient49668">
    <stop
       style="stop-color:#000000;stop-opacity:1;"
       offset="0.20803213"
       id="stop49664" />
    <stop
       style="stop-color:#000000;stop-opacity:0;"
       offset="0.64711589"
       id="stop49666" />
  </linearGradient>
  <filter
     inkscape:collect="always"
     style="color-interpolation-filters:sRGB"
     id="filter1770"
     x="-0.036447778"
     y="-0.041660051"
     width="1.0728956"
     height="1.0833201">
    <feGaussianBlur
       inkscape:collect="always"
       stdDeviation="1.2691277"
       id="feGaussianBlur1772" />
  </filter>
  <filter
     inkscape:collect="always"
     style="color-interpolation-filters:sRGB"
     id="filter20474"
     x="-0.10842325"
     y="-0.10842325"
     width="1.2168465"
     height="1.2168465">
    <feGaussianBlur
       inkscape:collect="always"
       stdDeviation="5.0110385"
       id="feGaussianBlur20476" />
  </filter>
  <filter
     inkscape:collect="always"
     style="color-interpolation-filters:sRGB"
     id="filter4460"
     x="-0.1145772"
     y="-0.1145772"
     width="1.2291544"
     height="1.2291544">
    <feGaussianBlur
       inkscape:collect="always"
       stdDeviation="1.7663985"
       id="feGaussianBlur4462" />
  </filter>
  <filter
     inkscape:collect="always"
     style="color-interpolation-filters:sRGB"
     id="filter11915"
     x="-0.67153702"
     y="-0.67153702"
     width="2.343074"
     height="2.343074">
    <feGaussianBlur
       inkscape:collect="always"
       stdDeviation="13.43074"
       id="feGaussianBlur11917" />
  </filter>
  <radialGradient
     inkscape:collect="always"
     xlink:href="#linearGradient11153"
     id="radialGradient11155"
     cx="192.78928"
     cy="100.10703"
     fx="192.78928"
     fy="100.10703"
     r="17.509501"
     gradientUnits="userSpaceOnUse"
     gradientTransform="translate(-125.05618,-32.373695)" />
  <linearGradient
     inkscape:collect="always"
     id="linearGradient11153">
    <stop
       style="stop-color:#8c8c8c;stop-opacity:1;"
       offset="0"
       id="stop11149" />
    <stop
       style="stop-color:#1c1c1c;stop-opacity:1;"
       offset="1"
       id="stop11151" />
  </linearGradient>
  <radialGradient
     inkscape:collect="always"
     xlink:href="#linearGradient23044"
     id="radialGradient23046"
     cx="61.893379"
     cy="59.150139"
     fx="61.893379"
     fy="59.150139"
     r="11.645284"
     gradientTransform="matrix(1.0000001,-0.76651893,0.46631755,0.60835757,-25.995252,73.253985)"
     gradientUnits="userSpaceOnUse" />
  <linearGradient
     inkscape:collect="always"
     id="linearGradient23044">
    <stop
       style="stop-color:#ffffff;stop-opacity:0.46000001;"
       offset="0"
       id="stop23040" />
    <stop
       style="stop-color:#ffffff;stop-opacity:0;"
       offset="0.74446362"
       id="stop23042" />
  </linearGradient>
  <filter
     inkscape:collect="always"
     style="color-interpolation-filters:sRGB"
     id="filter44116"
     x="-0.034680509"
     y="-0.034679489"
     width="1.069361"
     height="1.069359">
    <feGaussianBlur
       inkscape:collect="always"
       stdDeviation="1.8192293"
       id="feGaussianBlur44118" />
  </filter>
  <filter
     inkscape:collect="always"
     style="color-interpolation-filters:sRGB"
     id="filter20523"
     x="-0.0092002398"
     y="-0.0092002398"
     width="1.0184005"
     height="1.0184005">
    <feGaussianBlur
       inkscape:collect="always"
       stdDeviation="0.36034271"
       id="feGaussianBlur20525" />
  </filter>
  <filter
     inkscape:collect="always"
     style="color-interpolation-filters:sRGB"
     id="filter29"
     x="-0.0054644988"
     y="-0.012917016"
     width="1.010929"
     height="1.025834">
    <feGaussianBlur
       inkscape:collect="always"
       stdDeviation="0.11621823"
       id="feGaussianBlur29" />
  </filter>
  <clipPath
     clipPathUnits="userSpaceOnUse"
     id="clipPath39">
    <circle
       style="display:inline;fill:#3a3a3a;fill-opacity:1;stroke:none;stroke-width:3.556;stroke-linecap:square;stroke-linejoin:round"
       id="circle40"
       cx="290.41586"
       cy="83.229477"
       r="67.73333"
       inkscape:export-filename="audio-x-vorbis+ogg.png"
       inkscape:export-xdpi="3.0000002"
       inkscape:export-ydpi="3.0000002" />
  </clipPath>
  <filter
     inkscape:collect="always"
     style="color-interpolation-filters:sRGB"
     id="filter40"
     x="-0.019660802"
     y="-0.019660799"
     width="1.0393216"
     height="1.0393216">
    <feGaussianBlur
       inkscape:collect="always"
       stdDeviation="1.0467721"
       id="feGaussianBlur40" />
  </filter>
  <clipPath
     clipPathUnits="userSpaceOnUse"
     id="clipPath41">
    <circle
       style="display:inline;fill:#3a3a3a;fill-opacity:1;stroke:none;stroke-width:3.556;stroke-linecap:square;stroke-linejoin:round"
       id="circle42"
       cx="290.41586"
       cy="83.229477"
       r="67.73333"
       inkscape:export-filename="audio-x-vorbis+ogg.png"
       inkscape:export-xdpi="3.0000002"
       inkscape:export-ydpi="3.0000002" />
  </clipPath>
  <filter
     inkscape:collect="always"
     style="color-interpolation-filters:sRGB"
     id="filter42"
     x="-0.069120005"
     y="-0.069119993"
     width="1.13824"
     height="1.13824">
    <feGaussianBlur
       inkscape:collect="always"
       stdDeviation="3.6800583"
       id="feGaussianBlur42" />
  </filter>
  <filter
     inkscape:collect="always"
     style="color-interpolation-filters:sRGB"
     id="filter43"
     x="-0.0052594926"
     y="-0.031834355"
     width="1.010519"
     height="1.0636687">
    <feGaussianBlur
       inkscape:collect="always"
       stdDeviation="0.12996137"
       id="feGaussianBlur43" />
  </filter>
  <clipPath
     clipPathUnits="userSpaceOnUse"
     id="clipPath55">
    <path
       id="path56"
       style="display:inline;fill:#e9ddaf;stroke:none;stroke-width:0.105833;stroke-linecap:round;stroke-linejoin:round;stroke-opacity:1;paint-order:fill markers stroke"
       d="m -156.23881,41.366713 1.40874,19.658081 60.682832,60.682836 36.499189,-36.499195 -60.682831,-60.682831 -19.65859,-1.408225 -9.12467,9.124672 z m 14.39137,-3.857954 c 2.10514,-2.105112 5.51822,-2.105112 7.62335,0 2.10512,2.105134 2.10512,5.518217 1e-5,7.62335 -2.10514,2.105112 -5.51822,2.105112 -7.62335,0 -2.10512,-2.105133 -2.10512,-5.518216 -1e-5,-7.62335 z"
       sodipodi:nodetypes="ccccccccccccc" />
  </clipPath>
  <filter
     inkscape:collect="always"
     style="color-interpolation-filters:sRGB"
     id="filter56"
     x="-0.026647616"
     y="-0.036261632"
     width="1.0532952"
     height="1.0725233">
    <feGaussianBlur
       inkscape:collect="always"
       stdDeviation="0.6251939"
       id="feGaussianBlur56" />
  </filter>
  <linearGradient
     inkscape:collect="always"
     xlink:href="#linearGradient57"
     id="linearGradient58"
     x1="37.69067"
     y1="10.803505"
     x2="104.1022"
     y2="82.873779"
     gradientUnits="userSpaceOnUse" />
  <linearGradient
     inkscape:collect="always"
     xlink:href="#linearGradient57"
     id="linearGradient60"
     x1="25.30719"
     y1="32.642952"
     x2="82.529106"
     y2="130.64612"
     gradientUnits="userSpaceOnUse" />
</defs>
<g
   inkscape:groupmode="layer"
   id="g6039"
   inkscape:label="misc-formats"
   transform="translate(-222.68253,-15.496144)"
   style="display:none"
   sodipodi:insensitive="true">
  <circle
     style="display:inline;fill:#3a3a3a;fill-opacity:1;stroke:none;stroke-width:3.556;stroke-linecap:square;stroke-linejoin:round"
     id="circle6035"
     cx="290.41586"
     cy="83.229477"
     r="67.73333"
     inkscape:export-filename="audio-x-vorbis+ogg.png"
     inkscape:export-xdpi="3.0000002"
     inkscape:export-ydpi="3.0000002" />
  <path
     id="path37"
     style="display:inline;opacity:0.8;mix-blend-mode:normal;fill:#000000;fill-opacity:1;stroke:none;stroke-width:3.556;stroke-linecap:square;stroke-linejoin:round;filter:url(#filter40)"
     d="m 286.7117,23.183001 a 56.342476,56.342476 0 0 0 -56.34229,56.342306 56.342476,56.342476 0 0 0 18.40559,41.640873 56.342476,56.342476 0 0 1 -14.70143,-37.936703 56.342476,56.342476 0 0 1 56.3423,-56.342306 56.342476,56.342476 0 0 1 37.9367,14.70143 56.342476,56.342476 0 0 0 -41.64087,-18.4056 z m 49.71118,10.33529 A 67.73333,67.73333 0 0 1 354.44504,79.525307 67.73333,67.73333 0 0 1 286.7117,147.25864 67.73333,67.73333 0 0 1 240.70728,129.2339 67.73333,67.73333 0 0 0 290.41587,150.96281 67.73333,67.73333 0 0 0 358.1492,83.229477 67.73333,67.73333 0 0 0 336.42288,33.518291 Z"
     inkscape:label="lowlight-master"
     clip-path="url(#clipPath39)" />
  <path
     id="path6037"
     style="display:inline;opacity:0.221934;mix-blend-mode:normal;fill:#ffffff;fill-opacity:1;stroke:none;stroke-width:3.556;stroke-linecap:square;stroke-linejoin:round;filter:url(#filter42)"
     d="m 294.12003,143.27596 a 56.342476,56.342476 0 0 0 56.34229,-56.342305 56.342476,56.342476 0 0 0 -18.40559,-41.640878 56.342476,56.342476 0 0 1 14.70143,37.936708 56.342476,56.342476 0 0 1 -56.3423,56.342305 56.342476,56.342476 0 0 1 -37.9367,-14.70143 56.342476,56.342476 0 0 0 41.64087,18.4056 z m -49.71118,-10.33529 a 67.73333,67.73333 0 0 1 -18.02216,-46.007015 67.73333,67.73333 0 0 1 67.73334,-67.733338 67.73333,67.73333 0 0 1 46.00442,18.02474 67.73333,67.73333 0 0 0 -49.70859,-21.72891 67.73333,67.73333 0 0 0 -67.73333,67.733338 67.73333,67.73333 0 0 0 21.72632,49.711185 z"
     inkscape:label="highlight-master"
     clip-path="url(#clipPath41)" />
</g>
<g
   id="g60"
   style="display:inline">
  <path
     id="path45"
     style="display:inline;fill:url(#linearGradient60);stroke:#ab9349;stroke-width:0.105833;stroke-linecap:round;stroke-linejoin:round;stroke-opacity:1;paint-order:fill markers stroke"
     d="M 3.1472223,50.305209 4.5559561,69.96329 65.238793,130.64612 101.73798,94.146933 41.055147,33.464101 21.396561,32.055875 12.271886,41.180547 Z M 17.538594,46.447255 c 2.105134,-2.105112 5.518217,-2.105112 7.623351,0 2.105111,2.105134 2.105112,5.518217 0,7.62335 -2.105134,2.105112 -5.518217,2.105113 -7.623349,0 -2.105114,-2.105133 -2.105114,-5.518216 -2e-6,-7.62335 z"
     sodipodi:nodetypes="ccccccccccccc" />
  <path
     id="path46"
     style="opacity:0.4;fill:#05053a;fill-opacity:1;stroke-width:0.0751899;stroke-linecap:round;stroke-linejoin:round;paint-order:fill markers stroke;filter:url(#filter29)"
     d="m 198.37962,43.339474 v 0.426847 h 51.04288 v -0.426847 z m 0,10.583333 v 0.426847 h 51.04288 v -0.426847 z m 0,10.583333 v 0.426848 H 249.4225 V 64.50614 Z"
     transform="matrix(0.99528281,0.99528281,-0.99528281,0.99528281,-117.40771,-189.32658)" />
  <path
     style="color:#000000;fill:#c5534e;stroke:#6f5250;stroke-width:0.2;stroke-linecap:round;stroke-linejoin:round;stroke-dasharray:none;stroke-opacity:1;paint-order:markers stroke fill"
     d="m 24.278585,43.17713 c -2.777471,-1.117183 -6.099588,-0.557412 -8.333865,1.676865 -2.979036,2.979036 -2.977658,7.889975 0.0013,10.8689 2.978925,2.978923 7.889863,2.97777 10.868899,-0.0013 2.979035,-2.979035 2.979328,-7.88902 4.24e-4,-10.867923 -0.744725,-0.744725 -1.610902,-1.30418 -2.536725,-1.676574 z m -0.226812,0.556909 c 0.853563,0.343246 1.651744,0.857471 2.338181,1.543902 2.74574,2.74574 2.745565,7.274174 -2.83e-4,10.020022 -2.745849,2.745849 -7.274303,2.745434 -10.02002,-2.84e-4 -2.745718,-2.745717 -2.745567,-7.274172 2.82e-4,-10.020021 2.059387,-2.059386 5.121154,-2.573359 7.68184,-1.543619 z m -0.740856,1.802732 c -1.852117,-0.749966 -4.056463,-0.37574 -5.556584,1.124287 -2.00048,2.000086 -1.999745,5.252928 4.08e-4,7.253198 2.000195,2.000591 5.251957,2.001943 7.252222,0.0013 2.000217,-2.000341 2,-5.253187 -4.07e-4,-7.253198 -0.500022,-0.499992 -1.078266,-0.875581 -1.695639,-1.12557 z m -0.227523,0.554242 c 0.54499,0.221328 1.055112,0.55289 1.497807,0.995567 1.771075,1.770725 1.77246,4.632559 0.0015,6.403605 -1.77098,1.771328 -4.634409,1.771789 -6.405297,5.5e-4 -1.770852,-1.770954 -1.770026,-4.633502 0.0011,-6.404321 1.328163,-1.328079 3.269854,-1.65939 4.904822,-0.995401 z"
     id="path47" />
  <path
     style="color:#000000;fill:#c55b4e;stroke-linecap:round;stroke-linejoin:round;-inkscape-stroke:none;paint-order:fill markers stroke"
     d="m 26.602306,45.065954 c -2.862324,-2.862324 -7.58183,-2.862667 -10.444276,-2.22e-4 -2.862445,2.862445 -2.862544,7.582394 -2.2e-4,10.444718 2.862325,2.862324 7.582273,2.862226 10.444718,-2.21e-4 2.862444,-2.862444 2.862103,-7.581951 -2.22e-4,-10.444275 z m -1.80805,1.808051 a 4.8280401,4.828245 45 0 1 3.01e-4,6.828254 4.8280401,4.828245 45 0 1 -6.828698,1.43e-4 4.8280401,4.828245 45 0 1 5.8e-4,-6.828262 4.8280401,4.828245 45 0 1 6.827817,-1.35e-4 z"
     id="path48" />
</g>
<g
   inkscape:groupmode="layer"
   id="layer3"
   inkscape:label="Base"
   style="display:none"
   sodipodi:insensitive="true">
  <circle
     style="display:inline;fill:url(#radialGradient8874);fill-opacity:1;stroke:none;stroke-width:2.95798;stroke-linecap:square;stroke-linejoin:round"
     id="path788-2"
     cx="67.73333"
     cy="67.73333"
     r="56.342476"
     inkscape:export-filename="audio-x-vorbis+ogg.png"
     inkscape:export-xdpi="3.0000002"
     inkscape:export-ydpi="3.0000002"
     inkscape:label="cone-base" />
  <circle
     style="display:inline;opacity:1;mix-blend-mode:normal;fill:url(#linearGradient13445);fill-opacity:1;stroke:none;stroke-width:2.95798;stroke-linecap:square;stroke-linejoin:round"
     id="path788-2-2"
     cx="67.73333"
     cy="67.73333"
     r="56.342476"
     inkscape:export-filename="audio-x-vorbis+ogg.png"
     inkscape:export-xdpi="3.0000002"
     inkscape:export-ydpi="3.0000002"
     inkscape:label="shadow-grad" />
  <path
     id="path788-2-2-61"
     style="display:inline;opacity:0.28;mix-blend-mode:normal;fill:url(#linearGradient49670);fill-opacity:1;stroke:none;stroke-width:2.95798;stroke-linecap:square;stroke-linejoin:round;filter:url(#filter1770)"
     inkscape:label="cone-shadow"
     d="M 67.73333,11.390854 A 56.342476,56.342476 0 0 0 11.39103,67.733151 56.342476,56.342476 0 0 0 13.95108,84.50422 33.599133,67.198265 49.960422 0 0 63.42713,60.274692 33.599133,67.198265 49.960422 0 0 94.96009,18.411614 56.342476,56.342476 0 0 0 67.73333,11.390854 Z" />
  <path
     sodipodi:type="star"
     style="display:inline;opacity:1;mix-blend-mode:normal;fill:#000000;fill-opacity:1;stroke-width:3.556;stroke-linecap:square;stroke-linejoin:round;filter:url(#filter20474)"
     id="path3284"
     inkscape:flatsided="false"
     sodipodi:sides="12"
     sodipodi:cx="195.50226"
     sodipodi:cy="20.229614"
     sodipodi:r1="57.417301"
     sodipodi:r2="8.6125937"
     sodipodi:arg1="0.78539816"
     sodipodi:arg2="1.0471975"
     inkscape:rounded="0"
     inkscape:randomized="0"
     d="M 236.10242,60.829777 199.80856,27.688339 210.36295,75.690468 195.50226,28.842208 180.64157,75.690468 191.19596,27.688339 154.9021,60.829777 188.04353,24.535911 140.0414,35.090306 186.88966,20.229615 140.0414,5.3689234 188.04353,15.923318 154.9021,-20.370549 l 36.29386,33.141439 -10.55439,-48.00213 14.86069,46.848261 14.86069,-46.848261 -10.5544,48.002129 36.29387,-33.141438 -33.14144,36.293866 48.00213,-10.554394 -46.84826,14.860691 46.84826,14.860691 -48.00213,-10.554394 z"
     inkscape:transform-center-x="2.4630204e-06"
     transform="translate(-127.76892,47.50372)"
     inkscape:label="star" />
  <circle
     style="display:inline;opacity:1;mix-blend-mode:normal;fill:#000000;fill-opacity:1;stroke:none;stroke-width:0.971252;stroke-linecap:square;stroke-linejoin:round;filter:url(#filter4460)"
     id="circle3722"
     cx="67.73333"
     cy="67.73333"
     inkscape:export-filename="audio-x-vorbis+ogg.png"
     inkscape:export-xdpi="3.0000002"
     inkscape:export-ydpi="3.0000002"
     r="18.5"
     inkscape:label="shadow-sm" />
  <circle
     style="display:inline;opacity:0.621118;mix-blend-mode:normal;fill:#000000;fill-opacity:1;stroke:none;stroke-width:1.26;stroke-linecap:square;stroke-linejoin:round;filter:url(#filter11915)"
     id="path788-2-0-6"
     cx="67.73333"
     cy="67.73333"
     inkscape:export-filename="audio-x-vorbis+ogg.png"
     inkscape:export-xdpi="3.0000002"
     inkscape:export-ydpi="3.0000002"
     r="24"
     inkscape:label="shadow-lrg" />
  <circle
     style="display:inline;opacity:0.48;fill:url(#radialGradient11155);fill-opacity:1;stroke:none;stroke-width:2.57143;stroke-linecap:square;stroke-linejoin:round"
     id="path11147"
     cx="67.733101"
     cy="67.733337"
     r="17.509501"
     inkscape:label="cone-center" />
  <path
     id="path11147-5"
     style="display:inline;opacity:0.24;fill:url(#radialGradient23046);fill-opacity:1;stroke:none;stroke-width:2.57143;stroke-linecap:square;stroke-linejoin:round"
     d="M 69.320834,52.869643 A 17.509501,17.509501 0 0 0 51.835597,69.718744 17.509501,17.509501 0 0 0 57.640927,70.7223 17.509501,17.509501 0 0 0 75.126165,53.860797 17.509501,17.509501 0 0 0 69.320834,52.869643 Z"
     inkscape:label="top-highlight" />
  <path
     id="path788-4"
     style="display:inline;opacity:0.8;mix-blend-mode:multiply;fill:#000000;stroke:none;stroke-width:3.556;stroke-linecap:square;stroke-linejoin:round;filter:url(#filter44116)"
     d="m 67.358994,4.7864974 c -13.66315,0.07922 -27.38659,4.7644523 -38.20172,13.2055076 -10.74886,8.33503 -18.6883,20.179643 -22.1952198,33.317037 -2.47653,9.204493 -2.85125,18.860791 -1.0666,28.225757 2.75968,14.698763 11.0371498,28.392691 22.8542798,37.637011 10.49627,8.26999 23.66618,13.10094 36.96119,13.4768 12.18163,0.40911 24.51052,-2.80023 34.899466,-9.23512 6.81952,-4.16351 12.86296,-9.67214 17.66103,-16.13943 2.77762,-3.74799 5.08,-7.724033 6.98601,-11.991468 3.62988,-8.153129 5.48861,-17.06262 5.42237,-25.946483 C 130.6279,53.844517 126.02878,40.353296 117.81212,29.591186 110.70825,20.226753 100.91218,12.953546 89.909774,8.8255597 82.742304,6.1218217 75.048714,4.7067324 67.358994,4.7864974 Z m 0.44141,1.8457033 c 17.55832,0.02611 35.003856,7.9615703 46.339266,21.4124013 10.44337,12.173222 15.85367,28.576258 14.46386,44.577058 -1.16769,14.768406 -7.8834,29.05463 -18.65697,39.2472 -10.339646,9.91755 -24.249366,16.05853 -38.569816,16.84011 -14.10553,0.8644 -28.48238,-3.32362 -39.83329,-11.76402 -11.20791,-8.22008 -19.50999,-20.353873 -22.9321498,-33.840532 -3.53409,-13.511796 -2.28692,-28.242166 3.6304898,-40.907384 5.95238,-12.9693 16.56783,-23.771187 29.54858,-29.744162 8.10721,-3.8045343 17.05385,-5.8100613 26.01003,-5.8206713 z"
     inkscape:label="ring-blur" />
  <path
     id="path13239"
     style="color:#000000;display:inline;opacity:0.048;fill:#000000;stroke-width:1.06215;stroke-linecap:square;stroke-linejoin:round;-inkscape-stroke:none;filter:url(#filter20523)"
     d="m 67.733331,20.733334 c -25.954176,0 -46.999997,21.045822 -46.999997,46.999997 0,25.954184 21.045821,46.999999 46.999997,46.999999 25.954179,0 46.999999,-21.045815 46.999999,-46.999999 0,-25.954175 -21.04582,-46.999997 -46.999999,-46.999997 z m 0,0.531315 c 25.667166,0 46.468679,20.801518 46.468679,46.468682 0,25.667171 -20.801513,46.468679 -46.468679,46.468679 -25.667164,0 -46.468682,-20.801508 -46.468682,-46.468679 0,-25.667164 20.801518,-46.468682 46.468682,-46.468682 z m 0,10.090052 c -20.088116,0 -36.37863,16.290515 -36.37863,36.37863 0,20.088117 16.290514,36.378629 36.37863,36.378629 20.088117,0 36.378629,-16.290512 36.378629,-36.378629 0,-20.088115 -16.290512,-36.37863 -36.378629,-36.37863 z m 0,0.531314 c 19.801104,1e-6 35.847309,16.046214 35.847309,35.847316 0,19.801104 -16.046205,35.847309 -35.847309,35.847309 -19.801103,0 -35.847316,-16.046205 -35.847316,-35.847309 0,-19.801102 16.046213,-35.847315 35.847316,-35.847316 z m 0,10.090051 c -14.222054,0 -25.757265,11.535211 -25.757265,25.757265 0,14.222054 11.535211,25.757266 25.757265,25.757266 14.222055,0 25.757266,-11.535212 25.757266,-25.757266 0,-14.222054 -11.535211,-25.757265 -25.757266,-25.757265 z m 0,0.531316 c 13.935042,0 25.225951,11.290907 25.225951,25.225949 0,13.935041 -11.290909,25.225951 -25.225951,25.225951 -13.935042,0 -25.225949,-11.29091 -25.225949,-25.225951 0,-13.935042 11.290907,-25.225949 25.225949,-25.225949 z"
     inkscape:label="cone-rings" />
</g>
<path
   id="rect18"
   style="display:none;opacity:1;fill:#e9ddaf;stroke-width:0.105833;stroke-linecap:round;stroke-linejoin:round;paint-order:fill markers stroke"
   d="m 151.51995,30.147446 -9.16792,10.583333 v 57.795439 h 36.67218 V 40.730779 l -9.16843,-10.583333 h -9.16792 z m 9.16791,5.291667 a 3.8297575,3.8297575 0 0 1 3.82974,3.82974 3.8297575,3.8297575 0 0 1 -3.82974,3.829741 3.8297575,3.8297575 0 0 1 -3.82974,-3.829741 3.8297575,3.8297575 0 0 1 3.82974,-3.82974 z"
   transform="translate(-222.68253,-15.496144)"
   inkscape:label="tag-base"
   sodipodi:insensitive="true" />
<metadata
   id="metadata1">
  <rdf:RDF>
    <cc:Work
       rdf:about="">
      <dc:creator>
        <cc:Agent>
          <dc:title>Jess Tipton</dc:title>
        </cc:Agent>
      </dc:creator>
      <dc:publisher>
        <cc:Agent>
          <dc:title>m0dw3rks.com</dc:title>
        </cc:Agent>
      </dc:publisher>
      <cc:license
         rdf:resource="https://creativecommons.org/licenses/by-nc-nd/4.0/deed.en" />
    </cc:Work>
  </rdf:RDF>
</metadata>
<metadata
   id="metadata6">
  <rdf:RDF>
    <cc:Work
       rdf:about="">
      <dc:creator>
        <cc:Agent>
          <dc:title>Jess Tipton</dc:title>
        </cc:Agent>
      </dc:creator>
      <cc:license
         rdf:resource="https://creativecommons.org/licenses/by-nc-nd/4.0/deed.en" />
      <dc:publisher>
        <cc:Agent>
          <dc:title>m0dw3rks.com</dc:title>
        </cc:Agent>
      </dc:publisher>
    </cc:Work>
  </rdf:RDF>
</metadata>
<metadata
   id="metadata2">
  <rdf:RDF>
    <cc:Work
       rdf:about="">
      <dc:creator>
        <cc:Agent>
          <dc:title>Jess Tipton</dc:title>
        </cc:Agent>
      </dc:creator>
      <cc:license
         rdf:resource="https://creativecommons.org/licenses/by-nc-nd/4.0/deed.en" />
      <dc:publisher>
        <cc:Agent>
          <dc:title>m0dw3rks.com</dc:title>
        </cc:Agent>
      </dc:publisher>
    </cc:Work>
  </rdf:RDF>
</metadata>
<metadata
   id="metadata3">
  <rdf:RDF>
    <cc:Work
       rdf:about="">
      <dc:creator>
        <cc:Agent>
          <dc:title>Jess Tipton</dc:title>
        </cc:Agent>
      </dc:creator>
      <cc:license
         rdf:resource="https://creativecommons.org/licenses/by-nc-nd/4.0/deed.en" />
      <dc:publisher>
        <cc:Agent>
          <dc:title>m0dw3rks.com</dc:title>
        </cc:Agent>
      </dc:publisher>
    </cc:Work>
  </rdf:RDF>
</metadata>
<metadata
   id="metadata4">
  <rdf:RDF>
    <cc:Work
       rdf:about="">
      <dc:creator>
        <cc:Agent>
          <dc:title>Jess Tipton</dc:title>
        </cc:Agent>
      </dc:creator>
      <cc:license
         rdf:resource="https://creativecommons.org/licenses/by-nc-nd/4.0/deed.en" />
      <dc:publisher>
        <cc:Agent>
          <dc:title>m0dw3rks.com</dc:title>
        </cc:Agent>
      </dc:publisher>
    </cc:Work>
  </rdf:RDF>
</metadata>
<metadata
   id="metadata5">
  <rdf:RDF>
    <cc:Work
       rdf:about="">
      <dc:creator>
        <cc:Agent>
          <dc:title>Jess Tipton</dc:title>
        </cc:Agent>
      </dc:creator>
      <cc:license
         rdf:resource="https://creativecommons.org/licenses/by-nc-nd/4.0/deed.en" />
      <dc:publisher>
        <cc:Agent>
          <dc:title>m0dw3rks.com</dc:title>
        </cc:Agent>
      </dc:publisher>
    </cc:Work>
  </rdf:RDF>
</metadata>
<metadata
   id="metadata7">
  <rdf:RDF>
    <cc:Work
       rdf:about="">
      <dc:creator>
        <cc:Agent>
          <dc:title>Jess Tipton</dc:title>
        </cc:Agent>
      </dc:creator>
      <cc:license
         rdf:resource="https://creativecommons.org/licenses/by-nc-nd/4.0/deed.en" />
      <dc:publisher>
        <cc:Agent>
          <dc:title>m0dw3rks.com</dc:title>
        </cc:Agent>
      </dc:publisher>
    </cc:Work>
  </rdf:RDF>
</metadata>
<metadata
   id="metadata8">
  <rdf:RDF>
    <cc:Work
       rdf:about="">
      <dc:creator>
        <cc:Agent>
          <dc:title>Jess Tipton</dc:title>
        </cc:Agent>
      </dc:creator>
      <cc:license
         rdf:resource="https://creativecommons.org/licenses/by-nc-nd/4.0/deed.en" />
      <dc:publisher>
        <cc:Agent>
          <dc:title>m0dw3rks.com</dc:title>
        </cc:Agent>
      </dc:publisher>
    </cc:Work>
  </rdf:RDF>
</metadata>
<metadata
   id="metadata9">
  <rdf:RDF>
    <cc:Work
       rdf:about="">
      <dc:creator>
        <cc:Agent>
          <dc:title>Jess Tipton</dc:title>
        </cc:Agent>
      </dc:creator>
      <cc:license
         rdf:resource="https://creativecommons.org/licenses/by-nc-nd/4.0/deed.en" />
      <dc:publisher>
        <cc:Agent>
          <dc:title>m0dw3rks.com</dc:title>
        </cc:Agent>
      </dc:publisher>
    </cc:Work>
  </rdf:RDF>
</metadata>
<metadata
   id="metadata10">
  <rdf:RDF>
    <cc:Work
       rdf:about="">
      <dc:creator>
        <cc:Agent>
          <dc:title>Jess Tipton</dc:title>
        </cc:Agent>
      </dc:creator>
      <cc:license
         rdf:resource="https://creativecommons.org/licenses/by-nc-nd/4.0/deed.en" />
      <dc:publisher>
        <cc:Agent>
          <dc:title>m0dw3rks.com</dc:title>
        </cc:Agent>
      </dc:publisher>
    </cc:Work>
  </rdf:RDF>
</metadata>
<metadata
   id="metadata11">
  <rdf:RDF>
    <cc:Work
       rdf:about="">
      <dc:creator>
        <cc:Agent>
          <dc:title>Jess Tipton</dc:title>
        </cc:Agent>
      </dc:creator>
      <cc:license
         rdf:resource="https://creativecommons.org/licenses/by-nc-nd/4.0/deed.en" />
      <dc:publisher>
        <cc:Agent>
          <dc:title>m0dw3rks.com</dc:title>
        </cc:Agent>
      </dc:publisher>
    </cc:Work>
  </rdf:RDF>
</metadata>
<metadata
   id="metadata12">
  <rdf:RDF>
    <cc:Work
       rdf:about="">
      <dc:creator>
        <cc:Agent>
          <dc:title>Jess Tipton</dc:title>
        </cc:Agent>
      </dc:creator>
      <cc:license
         rdf:resource="https://creativecommons.org/licenses/by-nc-nd/4.0/deed.en" />
      <dc:publisher>
        <cc:Agent>
          <dc:title>m0dw3rks.com</dc:title>
        </cc:Agent>
      </dc:publisher>
    </cc:Work>
  </rdf:RDF>
</metadata>
<metadata
   id="metadata13">
  <rdf:RDF>
    <cc:Work
       rdf:about="">
      <dc:creator>
        <cc:Agent>
          <dc:title>Jess Tipton</dc:title>
        </cc:Agent>
      </dc:creator>
      <cc:license
         rdf:resource="https://creativecommons.org/licenses/by-nc-nd/4.0/deed.en" />
      <dc:publisher>
        <cc:Agent>
          <dc:title>m0dw3rks.com</dc:title>
        </cc:Agent>
      </dc:publisher>
    </cc:Work>
  </rdf:RDF>
</metadata>
<metadata
   id="metadata14">
  <rdf:RDF>
    <cc:Work
       rdf:about="">
      <dc:creator>
        <cc:Agent>
          <dc:title>Jess Tipton</dc:title>
        </cc:Agent>
      </dc:creator>
      <cc:license
         rdf:resource="https://creativecommons.org/licenses/by-nc-nd/4.0/deed.en" />
      <dc:publisher>
        <cc:Agent>
          <dc:title>m0dw3rks.com</dc:title>
        </cc:Agent>
      </dc:publisher>
    </cc:Work>
  </rdf:RDF>
</metadata>
<metadata
   id="metadata15">
  <rdf:RDF>
    <cc:Work
       rdf:about="">
      <dc:creator>
        <cc:Agent>
          <dc:title>Jess Tipton</dc:title>
        </cc:Agent>
      </dc:creator>
      <cc:license
         rdf:resource="https://creativecommons.org/licenses/by-nc-nd/4.0/deed.en" />
      <dc:publisher>
        <cc:Agent>
          <dc:title>m0dw3rks.com</dc:title>
        </cc:Agent>
      </dc:publisher>
    </cc:Work>
  </rdf:RDF>
</metadata>
<metadata
   id="metadata16">
  <rdf:RDF>
    <cc:Work
       rdf:about="">
      <dc:creator>
        <cc:Agent>
          <dc:title>Jess Tipton</dc:title>
        </cc:Agent>
      </dc:creator>
      <cc:license
         rdf:resource="https://creativecommons.org/licenses/by-nc-nd/4.0/deed.en" />
      <dc:publisher>
        <cc:Agent>
          <dc:title>m0dw3rks.com</dc:title>
        </cc:Agent>
      </dc:publisher>
    </cc:Work>
  </rdf:RDF>
</metadata>
<metadata
   id="metadata17">
  <rdf:RDF>
    <cc:Work
       rdf:about="">
      <dc:creator>
        <cc:Agent>
          <dc:title>Jess Tipton</dc:title>
        </cc:Agent>
      </dc:creator>
      <cc:license
         rdf:resource="https://creativecommons.org/licenses/by-nc-nd/4.0/deed.en" />
      <dc:publisher>
        <cc:Agent>
          <dc:title>m0dw3rks.com</dc:title>
        </cc:Agent>
      </dc:publisher>
    </cc:Work>
  </rdf:RDF>
</metadata>
<metadata
   id="metadata18">
  <rdf:RDF>
    <cc:Work
       rdf:about="">
      <dc:creator>
        <cc:Agent>
          <dc:title>Jess Tipton</dc:title>
        </cc:Agent>
      </dc:creator>
      <cc:license
         rdf:resource="https://creativecommons.org/licenses/by-nc-nd/4.0/deed.en" />
      <dc:publisher>
        <cc:Agent>
          <dc:title>m0dw3rks.com</dc:title>
        </cc:Agent>
      </dc:publisher>
    </cc:Work>
  </rdf:RDF>
</metadata>
<g
   id="g32"
   transform="translate(-148.99047,16.588155)"
   style="display:none">
  <path
     id="path30"
     style="display:inline;fill:#e9ddaf;stroke-width:0.105833;stroke-linecap:round;stroke-linejoin:round;paint-order:fill markers stroke"
     d="m 180.94692,59.820609 10.58333,9.16792 h 60.97044 v -36.67218 h -60.97044 l -10.58333,9.16843 v 9.16792 z m 5.29167,-9.16791 c 1e-5,-2.1151 1.71464,-3.82973 3.82974,-3.82974 2.1151,1e-5 3.82973,1.71464 3.82974,3.82974 -1e-5,2.1151 -1.71464,3.82973 -3.82974,3.82974 -2.1151,-10e-6 -3.82973,-1.71464 -3.82974,-3.82974 z"
     sodipodi:nodetypes="ccccccccccccc" />
  <path
     id="path31"
     style="opacity:0.4;fill:#05053a;fill-opacity:1;stroke-width:0.105833;stroke-linecap:round;stroke-linejoin:round;paint-order:fill markers stroke;filter:url(#filter29)"
     d="m 198.37962,43.339474 v 0.426847 h 51.04288 v -0.426847 z m 0,10.583333 v 0.426847 h 51.04288 v -0.426847 z m 0,10.583333 v 0.426848 H 249.4225 V 64.50614 Z" />
  <path
     id="path32"
     style="color:#000000;opacity:1;fill:#c55b4e;stroke:#c5534e;stroke-width:0.6;stroke-linecap:round;stroke-linejoin:round;stroke-dasharray:none;stroke-opacity:1;paint-order:fill markers stroke"
     d="m 190.098,45.40544 c -2.87589,0 -5.247,2.370766 -5.247,5.246777 0,2.876012 2.37111,5.247221 5.247,5.247221 2.87589,0 5.247,-2.371209 5.247,-5.247221 0,-2.876011 -2.37111,-5.246777 -5.247,-5.246777 z m 0,1.81662 a 3.4301204,3.430266 0 0 1 3.43046,3.430157 3.4301204,3.430266 0 0 1 -3.43046,3.430604 3.4301204,3.430266 0 0 1 -3.43002,-3.430604 3.4301204,3.430266 0 0 1 3.43002,-3.430157 z" />
</g>
<g
   id="g58">
  <path
     id="path55"
     style="display:inline;fill:#000000;stroke:none;stroke-width:0.105833;stroke-linecap:round;stroke-linejoin:round;stroke-opacity:1;paint-order:fill markers stroke;filter:url(#filter56);opacity:0.2"
     d="m -130.67936,23.640934 -0.12506,0.467155 -3.33985,12.464356 11.04894,16.320451 45.258737,12.126908 -35.589037,-35.589042 c -1.00159,2.495871 -3.70995,3.920512 -6.37274,3.207039 -2.87565,-0.770549 -4.58218,-3.726012 -3.81166,-6.601664 0.18269,-0.681798 0.49582,-1.291768 0.89401,-1.824695 z"
     clip-path="url(#clipPath55)"
     transform="translate(159.45146,9.0020176)" />
  <path
     id="path33"
     style="display:inline;fill:url(#linearGradient58);stroke:#ab9349;stroke-width:0.105833;stroke-linecap:round;stroke-linejoin:round;stroke-opacity:1;paint-order:fill markers stroke"
     d="M 25.265699,44.342295 36.314736,60.662326 119.20903,82.873781 132.56866,33.014962 49.674368,10.803505 31.94542,19.413239 28.605557,31.877774 Z M 35.800013,33.805523 c 0.770543,-2.875647 3.72636,-4.582189 6.602015,-3.811675 2.875647,0.770543 4.582189,3.72636 3.811675,6.602014 -0.770543,2.875648 -3.72636,4.58219 -6.602014,3.811675 -2.875648,-0.770542 -4.58219,-3.726359 -3.811676,-6.602014 z"
     sodipodi:nodetypes="ccccccccccccc" />
  <path
     id="path34"
     style="opacity:0.4;fill:#05053a;fill-opacity:1;stroke-width:0.0751899;stroke-linecap:round;stroke-linejoin:round;paint-order:fill markers stroke;filter:url(#filter29)"
     d="m 198.37962,43.339474 v 0.426847 h 51.04288 v -0.426847 z m 0,10.583333 v 0.426847 h 51.04288 v -0.426847 z m 0,10.583333 v 0.426848 H 249.4225 V 64.50614 Z"
     transform="matrix(1.3595816,0.36429879,-0.36429879,1.3595816,-198.95383,-102.90745)" />
  <path
     style="color:#000000;fill:#c5534e;stroke:#6f5250;stroke-width:0.2;stroke-linecap:round;stroke-linejoin:round;stroke-dasharray:none;stroke-opacity:1;paint-order:markers stroke fill"
     d="m 40.001953,27.603516 c -2.963951,0.421227 -5.561104,2.567061 -6.378906,5.61914 -1.090403,4.069439 1.36626,8.321748 5.435547,9.41211 4.069287,1.090361 8.321707,-1.366107 9.412109,-5.435547 1.090402,-4.069438 -1.364336,-8.321756 -5.433594,-9.41211 -1.017314,-0.272588 -2.047172,-0.324002 -3.035156,-0.183593 z m 0.08203,0.595703 c 0.91083,-0.129521 1.859188,-0.08328 2.796875,0.167968 3.750751,1.005011 6.014816,4.926837 5.009766,8.677735 -1.00505,3.7509 -4.927014,6.014768 -8.677734,5.009765 -3.75072,-1.005002 -6.014817,-4.926835 -5.009766,-8.677734 0.753788,-2.813174 3.14837,-4.789172 5.880859,-5.177734 z m 0.259766,1.93164 c -1.978963,0.276569 -3.70087,1.702831 -4.25,3.751953 -0.732423,2.732365 0.894634,5.549042 3.626953,6.28125 2.732515,0.732465 5.549299,-0.892245 6.28125,-3.625 C 46.73402,33.806607 45.107409,30.989669 42.375,30.257812 41.691972,30.074817 41.003404,30.03867 40.343749,30.130859 Z m 0.08008,0.59375 c 0.582639,-0.08082 1.190199,-0.04874 1.794922,0.113282 2.419159,0.647955 3.851276,3.125684 3.203125,5.544921 -0.648049,2.419505 -3.127621,3.851619 -5.546875,3.203125 -2.419079,-0.648265 -3.849638,-3.127717 -3.201172,-5.546875 0.486184,-1.814232 2.002082,-3.072001 3.75,-3.314453 z"
     id="path44" />
  <path
     style="color:#000000;fill:#c55b4e;stroke-linecap:round;stroke-linejoin:round;-inkscape-stroke:none;paint-order:fill markers stroke"
     d="m 42.958767,28.077425 c -3.910007,-1.047683 -7.997391,1.311773 -9.045119,5.221946 -1.047728,3.910173 1.312161,7.997818 5.222168,9.045501 3.910008,1.047683 7.997554,-1.312376 9.045281,-5.22255 1.047727,-3.910172 -1.312322,-7.997214 -5.22233,-9.044897 z m -0.661792,2.469843 a 4.8280401,4.828245 15 0 1 3.414388,5.913291 4.8280401,4.828245 15 0 1 -5.913755,3.414473 4.8280401,4.828245 15 0 1 -3.413628,-5.913738 4.8280401,4.828245 15 0 1 5.912995,-3.414026 z"
     id="path43" />
  <text
     xml:space="preserve"
     style="font-style:normal;font-weight:normal;font-size:10.5833px;line-height:1.25;font-family:sans-serif;fill:#00152f;fill-opacity:1;stroke:none;stroke-width:0.264583;filter:url(#filter43)"
     x="60.688557"
     y="12.753141"
     id="text42"
     transform="rotate(15)"><tspan
       sodipodi:role="line"
       id="tspan42"
       x="60.688557"
       y="12.753141"
       style="font-style:normal;font-variant:normal;font-weight:normal;font-stretch:normal;font-size:10.5833px;font-family:'1952 RHEINMETALL';-inkscape-font-specification:'1952 RHEINMETALL, Normal';font-variant-ligatures:normal;font-variant-caps:normal;font-variant-numeric:normal;font-variant-east-asian:normal;fill:#00152f;fill-opacity:1;stroke-width:0.264583">Tag Editor</tspan></text>
</g>
</svg>
