<?xml version="1.0" encoding="UTF-8" standalone="no"?>
<!-- Created with Inkscape (http://www.inkscape.org/) -->

<svg
   width="512"
   height="512"
   viewBox="0 0 135.46666 135.46667"
   version="1.1"
   id="svg5"
   inkscape:version="1.4.1 (93de688d07, 2025-03-30)"
   sodipodi:docname="textadept.svg"
   xmlns:inkscape="http://www.inkscape.org/namespaces/inkscape"
   xmlns:sodipodi="http://sodipodi.sourceforge.net/DTD/sodipodi-0.dtd"
   xmlns:xlink="http://www.w3.org/1999/xlink"
   xmlns="http://www.w3.org/2000/svg"
   xmlns:svg="http://www.w3.org/2000/svg">
  <sodipodi:namedview
     id="namedview7"
     pagecolor="#242424"
     bordercolor="#666666"
     borderopacity="1"
     inkscape:showpageshadow="0"
     inkscape:pageopacity="0"
     inkscape:pagecheckerboard="1"
     inkscape:deskcolor="#000000"
     inkscape:document-units="px"
     showgrid="false"
     inkscape:zoom="1.3037281"
     inkscape:cx="392.3364"
     inkscape:cy="237.39612"
     inkscape:window-width="3256"
     inkscape:window-height="1080"
     inkscape:window-x="1864"
     inkscape:window-y="0"
     inkscape:window-maximized="0"
     inkscape:current-layer="layer1" />
  <defs
     id="defs2">
    <linearGradient
       id="linearGradient15"
       inkscape:collect="always">
      <stop
         style="stop-color:#ff0000;stop-opacity:1;"
         offset="0"
         id="stop15" />
      <stop
         style="stop-color:#ff0000;stop-opacity:0;"
         offset="1"
         id="stop16" />
    </linearGradient>
    <linearGradient
       id="linearGradient12"
       inkscape:collect="always">
      <stop
         style="stop-color:#ffff00;stop-opacity:1;"
         offset="0"
         id="stop11" />
      <stop
         style="stop-color:#fff200;stop-opacity:0;"
         offset="1"
         id="stop12" />
    </linearGradient>
    <linearGradient
       id="linearGradient9"
       inkscape:collect="always">
      <stop
         style="stop-color:#ff6600;stop-opacity:1;"
         offset="0"
         id="stop9" />
      <stop
         style="stop-color:#ff6600;stop-opacity:0;"
         offset="1"
         id="stop10" />
    </linearGradient>
    <inkscape:path-effect
       effect="powerstroke"
       message=""
       id="path-effect6"
       is_visible="true"
       lpeversion="1.3"
       scale_width="1"
       interpolator_type="CubicBezierJohan"
       interpolator_beta="0.2"
       start_linecap_type="zerowidth"
       end_linecap_type="zerowidth"
       offset_points="0,4.4838473"
       linejoin_type="extrp_arc"
       miter_limit="4"
       not_jump="false"
       sort_points="true" />
    <inkscape:path-effect
       effect="powerstroke"
       message=""
       id="path-effect5"
       is_visible="true"
       lpeversion="1.3"
       scale_width="1"
       interpolator_type="CubicBezierJohan"
       interpolator_beta="0.2"
       start_linecap_type="zerowidth"
       end_linecap_type="zerowidth"
       offset_points="0,4.4838473"
       linejoin_type="extrp_arc"
       miter_limit="4"
       not_jump="false"
       sort_points="true" />
    <linearGradient
       inkscape:collect="always"
       xlink:href="#linearGradient9"
       id="linearGradient10"
       x1="218.16693"
       y1="91.95623"
       x2="186.38968"
       y2="70.158127"
       gradientUnits="userSpaceOnUse"
       gradientTransform="translate(-126.35119,-8.3222228)" />
    <filter
       inkscape:collect="always"
       style="color-interpolation-filters:sRGB"
       id="filter10"
       x="-0.072261248"
       y="-0.04855174"
       width="1.1445225"
       height="1.0971035">
      <feGaussianBlur
         inkscape:collect="always"
         stdDeviation="2.5079037"
         id="feGaussianBlur10" />
    </filter>
    <linearGradient
       inkscape:collect="always"
       xlink:href="#linearGradient12"
       id="linearGradient11"
       gradientUnits="userSpaceOnUse"
       gradientTransform="translate(-126.35119,-8.3222228)"
       x1="218.16693"
       y1="91.95623"
       x2="186.38968"
       y2="70.158127" />
    <filter
       inkscape:collect="always"
       style="color-interpolation-filters:sRGB"
       id="filter14"
       x="-0.14681998"
       y="-0.069216407"
       width="1.29364"
       height="1.1384328">
      <feGaussianBlur
         inkscape:collect="always"
         stdDeviation="1.4398813"
         id="feGaussianBlur14" />
    </filter>
    <radialGradient
       inkscape:collect="always"
       xlink:href="#linearGradient15"
       id="radialGradient16"
       cx="143.77931"
       cy="3.2160196"
       fx="143.77931"
       fy="3.2160196"
       r="8.4666662"
       gradientUnits="userSpaceOnUse"
       gradientTransform="translate(-111.61901,10.147182)" />
  </defs>
  <g
     inkscape:label="Layer 1"
     inkscape:groupmode="layer"
     id="layer1">
    <ellipse
       style="opacity:1;fill:#ffcc00;stroke:#000000;stroke-width:3.175;stroke-linecap:round;stroke-linejoin:round;stroke-miterlimit:12;stroke-dasharray:none;stroke-opacity:1;paint-order:markers stroke fill"
       id="path1"
       cx="95.789398"
       cy="1.7729986e-06"
       rx="30.422598"
       ry="72.612427"
       transform="rotate(45)" />
    <circle
       style="opacity:1;fill:#aa0000;stroke:none;stroke-width:3.175;stroke-linecap:round;stroke-linejoin:round;stroke-miterlimit:12;stroke-dasharray:none;stroke-opacity:1;paint-order:markers stroke fill"
       id="path2"
       cx="29.576017"
       cy="10.397981"
       r="8.4666662" />
    <path
       id="ellipse8"
       style="opacity:0.2;fill:url(#linearGradient10);stroke:none;stroke-width:3.175;stroke-linecap:round;stroke-linejoin:round;stroke-miterlimit:12;stroke-dasharray:none;stroke-opacity:1;paint-order:markers stroke fill;filter:url(#filter10)"
       d="m 98.342034,5.8779442 c 0.151933,0.572052 0.282836,1.146585 0.395329,1.7182412 0.689215,3.5195606 0.801405,7.2563936 0.595842,10.8691006 -0.401069,6.293946 -1.640566,12.470006 -3.318697,18.502746 -3.52415,12.355799 -8.90486,24.13058 -15.35617,35.221623 -6.46073,10.961885 -14.08721,21.292369 -23.10039,30.296395 -5.53261,5.44004 -11.65234,10.45663 -18.61282,13.89683 -3.78757,1.79458 -7.9943,3.20835 -12.23078,2.81585 0.51352,1.9473 1.25302,3.8204 2.34869,5.53558 1.68401,2.6002 4.41768,4.57252 7.53236,4.9661 4.47267,0.62937 8.9363,-0.8405 12.93306,-2.7342 6.96048,-3.4402 13.08021,-8.45678 18.61282,-13.89682 9.01318,-9.00397 16.63967,-19.334516 23.1004,-30.296402 6.451311,-11.091043 11.832072,-22.865824 15.356222,-35.221623 1.67813,-6.03274 2.9176,-12.2088 3.31866,-18.502746 0.20556,-3.612707 0.0934,-7.34954 -0.59583,-10.869104 -0.78939,-4.011514 -2.48814,-8.167665 -5.96295,-10.5719606 -1.48391,-1.0177342 -3.23428,-1.5470622 -5.015746,-1.7296102 z"
       transform="rotate(15,67.733331,67.733333)" />
    <path
       id="path10"
       style="display:inline;opacity:0.4;fill:url(#linearGradient11);stroke:none;stroke-width:3.175;stroke-linecap:round;stroke-linejoin:round;stroke-miterlimit:12;stroke-dasharray:none;stroke-opacity:1;paint-order:markers stroke fill;filter:url(#filter10)"
       d="m 98.342034,5.8779442 c 0.151933,0.572052 0.282836,1.146585 0.395329,1.7182412 0.689215,3.5195606 0.801405,7.2563936 0.595842,10.8691006 -0.401069,6.293946 -1.640566,12.470006 -3.318697,18.502746 -3.52415,12.355799 -8.90486,24.13058 -15.35617,35.221623 -6.46073,10.961885 -14.08721,21.292369 -23.10039,30.296395 -5.53261,5.44004 -11.65234,10.45663 -18.61282,13.89683 -3.78757,1.79458 -7.9943,3.20835 -12.23078,2.81585 0.51352,1.9473 1.25302,3.8204 2.34869,5.53558 1.68401,2.6002 4.41768,4.57252 7.53236,4.9661 4.47267,0.62937 8.9363,-0.8405 12.93306,-2.7342 6.96048,-3.4402 13.08021,-8.45678 18.61282,-13.89682 9.01318,-9.00397 16.63967,-19.334516 23.1004,-30.296402 6.451311,-11.091043 11.832072,-22.865824 15.356222,-35.221623 1.67813,-6.03274 2.9176,-12.2088 3.31866,-18.502746 0.20556,-3.612707 0.0934,-7.34954 -0.59583,-10.869104 -0.78939,-4.011514 -2.48814,-8.167665 -5.96295,-10.5719606 -1.48391,-1.0177342 -3.23428,-1.5470622 -5.015746,-1.7296102 z"
       transform="rotate(-165,68.344553,67.945762)" />
    <path
       id="path12"
       style="baseline-shift:baseline;display:inline;overflow:visible;opacity:1;mix-blend-mode:normal;vector-effect:none;fill:#ffff00;fill-opacity:1;filter:url(#filter14);enable-background:accumulate;stop-color:#000000;stop-opacity:1"
       d="m 61.333983,44.357712 v 8.00778 h -5.36918 v 6.35 h 5.36918 v 25.341606 c 0,0 -0.01203,1.202267 0.24391,2.644799 0.25598,1.442533 0.65441,3.33584 2.32803,5.009514 1.82722,1.827214 3.83739,2.095536 5.42189,2.339908 1.58449,0.244371 2.91403,0.232544 2.91403,0.232544 h 7.26002 v -6.35155 h -7.29102 l -0.01034,0.0021 c 0,0 -0.87091,7.57e-4 -1.90428,-0.158646 -0.92435,-0.142559 -1.84202,-0.599696 -1.91254,-0.581877 -2.5e-4,8.5e-5 -8.1e-4,4.17e-4 -0.001,5.17e-4 -0.07252,-0.145772 -0.42144,-0.86095 -0.55294,-1.60197 -0.14777,-0.832764 -0.14676,-1.488281 -0.14676,-1.488281 v -0.01189 -25.376745 h 11.81891 v -6.35 h -11.81891 v -8.007263 z" />
    <g
       id="g8"
       transform="matrix(0.56169742,0,0,0.56169742,-40.76122,42.262086)"
       style="display:inline;stroke-width:11.305;stroke-dasharray:none">
      <path
         style="fill:none;stroke:#000000;stroke-width:11.305;stroke-linecap:butt;stroke-linejoin:miter;stroke-dasharray:none;stroke-opacity:1"
         d="M 187.41469,3.7310734 V 74.451059 c 0,0 -0.0487,6.615223 2.92387,9.587783 2.97256,2.97256 10.80756,2.92387 10.80756,2.92387 h 12.96009"
         id="path7"
         sodipodi:nodetypes="cczcc" />
      <path
         style="fill:none;stroke:#000000;stroke-width:11.305;stroke-linecap:butt;stroke-linejoin:miter;stroke-dasharray:none;stroke-opacity:1"
         d="m 172.20339,23.642091 h 41.90282"
         id="path8" />
    </g>
    <path
       id="path3"
       style="baseline-shift:baseline;display:inline;overflow:visible;fill:#aa0000;stroke:none;stroke-width:1.5875;stroke-linecap:round;stroke-linejoin:round;stroke-miterlimit:12;stroke-dasharray:none;stroke-opacity:0.5;paint-order:markers stroke fill;enable-background:accumulate;stop-color:#000000"
       d="m 15.266251,15.266251 c -2.451126,2.219744 -2.374494,6.075988 -1.191658,10.395231 1.182837,4.319243 3.671388,9.501948 7.245036,15.34635 7.147294,11.688803 18.659059,25.976442 32.910652,40.228035 14.251594,14.251595 28.539234,25.763353 40.228035,32.910653 5.844404,3.57365 11.028134,6.06375 15.347384,7.24659 4.31924,1.18284 8.05746,1.14664 10.39575,-1.19166 2.3383,-2.33829 2.46645,-6.10275 1.19166,-10.39575 -0.85905,-2.89295 -4.33674,-4.72578 -3.06183,0.83871 0.88899,3.88009 0.70453,6.23096 -0.37569,7.31118 -1.08022,1.08022 -3.47191,1.42709 -7.31118,0.37569 -3.83927,-1.05139 -8.84295,-3.41545 -14.530381,-6.89312 C 84.739171,104.48283 70.581462,93.095332 56.476139,78.99001 42.370816,64.884687 30.983317,50.726975 24.02799,39.352119 20.550328,33.66469 18.187816,28.662559 17.136422,24.823291 c -1.051394,-3.839268 -0.678946,-6.206035 0.374137,-7.312732 2.097675,-2.204472 -0.815963,-3.53782 -2.244308,-2.244308 z"
       sodipodi:nodetypes="sssssssssssssssss" />
    <path
       id="circle14"
       style="opacity:1;fill:#ff0000;stroke:none;stroke-width:3.175;stroke-linecap:round;stroke-linejoin:round;stroke-miterlimit:12;stroke-dasharray:none;stroke-opacity:1;paint-order:markers stroke fill"
       d="m 29.575968,1.9313145 a 8.4666662,8.4666662 0 0 0 -8.46667,8.4666665 8.4666662,8.4666662 0 0 0 2.76211,6.233728 8.4666662,8.4666662 0 0 1 -2.23294,-5.704561 8.4666662,8.4666662 0 0 1 8.46667,-8.4666669 8.4666662,8.4666662 0 0 1 5.71644,2.2210531 8.4666662,8.4666662 0 0 0 -6.24561,-2.7502197 z M 16.514228,14.761022 c -0.44123,0.02245 -0.89089,0.182018 -1.24798,0.505396 -2.45112,2.219743 -2.37449,6.075988 -1.19166,10.395231 1.18284,4.319243 3.67139,9.501948 7.24504,15.34635 7.14729,11.688803 18.65906,25.976442 32.91065,40.228035 0.0884,0.08845 0.17716,0.176859 0.26562,0.2651 -14.12985,-14.163894 -25.54397,-28.347375 -32.64711,-39.963969 -3.57365,-5.844402 -6.06219,-11.027107 -7.24503,-15.34635 -1.18283,-4.319243 -1.25946,-8.175487 1.19166,-10.395231 0.35709,-0.323378 0.80675,-0.482941 1.24798,-0.505395 0.38907,-0.0198 0.77144,0.06673 1.07746,0.240812 -0.2674,-0.514449 -0.92675,-0.804576 -1.60663,-0.769979 z m 40.22752,64.494254 c 0.0878,0.08804 0.17552,0.17603 0.26355,0.264066 14.10532,14.105322 28.26303,25.492808 39.63789,32.448148 5.687432,3.47767 10.691112,5.84172 14.530382,6.89311 3.83927,1.0514 6.23096,0.70454 7.31118,-0.37568 1.08022,-1.08022 1.26468,-3.43109 0.37569,-7.31118 -0.84318,-3.68019 0.39253,-4.12458 1.57458,-3.16674 -1.2863,-1.54735 -3.07544,-1.60349 -2.10375,2.63757 0.88899,3.88009 0.70454,6.23096 -0.37568,7.31118 -1.08022,1.08022 -3.47191,1.42709 -7.31118,0.37569 -3.83927,-1.05139 -8.84295,-3.41545 -14.530382,-6.89312 -11.30353,-6.91171 -25.35487,-18.20012 -39.37228,-32.183044 z" />
    <circle
       style="opacity:1;fill:url(#radialGradient16);stroke:none;stroke-width:3.175;stroke-linecap:round;stroke-linejoin:round;stroke-miterlimit:12;stroke-dasharray:none;stroke-opacity:1;paint-order:markers stroke fill"
       id="circle15"
       cx="29.576017"
       cy="10.397981"
       r="8.4666662" />
  </g>
</svg>
