<?xml version="1.0" encoding="UTF-8" standalone="no"?>
<!-- Created with Inkscape (http://www.inkscape.org/) -->

<svg
   width="512"
   height="512"
   viewBox="0 0 135.46666 135.46667"
   version="1.1"
   id="svg5"
   inkscape:version="1.3.2 (091e20ef0f, 2023-11-25, custom)"
   sodipodi:docname="timeshift.svg"
   xmlns:inkscape="http://www.inkscape.org/namespaces/inkscape"
   xmlns:sodipodi="http://sodipodi.sourceforge.net/DTD/sodipodi-0.dtd"
   xmlns:xlink="http://www.w3.org/1999/xlink"
   xmlns="http://www.w3.org/2000/svg"
   xmlns:svg="http://www.w3.org/2000/svg">
  <sodipodi:namedview
     id="namedview7"
     pagecolor="#292929"
     bordercolor="#666666"
     borderopacity="1"
     inkscape:showpageshadow="0"
     inkscape:pageopacity="0"
     inkscape:pagecheckerboard="1"
     inkscape:deskcolor="#1a1a1a"
     inkscape:document-units="px"
     showgrid="false"
     inkscape:zoom="0.65186406"
     inkscape:cx="833.76279"
     inkscape:cy="633.56768"
     inkscape:window-width="3256"
     inkscape:window-height="1080"
     inkscape:window-x="1864"
     inkscape:window-y="0"
     inkscape:window-maximized="1"
     inkscape:current-layer="layer1"
     showguides="true">
    <sodipodi:guide
       position="224.76696,137.09022"
       orientation="0,1"
       id="guide7"
       inkscape:locked="false" />
  </sodipodi:namedview>
  <defs
     id="defs2">
    <linearGradient
       id="linearGradient2"
       inkscape:collect="always">
      <stop
         style="stop-color:#ffffff;stop-opacity:1;"
         offset="0"
         id="stop3" />
      <stop
         style="stop-color:#ffffff;stop-opacity:0;"
         offset="1"
         id="stop4" />
    </linearGradient>
    <linearGradient
       id="linearGradient1"
       inkscape:collect="always">
      <stop
         style="stop-color:#000000;stop-opacity:0;"
         offset="0.77598763"
         id="stop2" />
      <stop
         style="stop-color:#000000;stop-opacity:1;"
         offset="0.92000002"
         id="stop1" />
    </linearGradient>
    <linearGradient
       id="linearGradient34"
       inkscape:collect="always">
      <stop
         style="stop-color:#f7c900;stop-opacity:1;"
         offset="0"
         id="stop34" />
      <stop
         style="stop-color:#f79900;stop-opacity:0;"
         offset="1"
         id="stop35" />
    </linearGradient>
    <linearGradient
       id="linearGradient32"
       inkscape:collect="always">
      <stop
         style="stop-color:#ff4300;stop-opacity:1;"
         offset="0"
         id="stop32" />
      <stop
         style="stop-color:#000000;stop-opacity:0;"
         offset="1"
         id="stop33" />
    </linearGradient>
    <linearGradient
       id="linearGradient24"
       inkscape:collect="always">
      <stop
         style="stop-color:#ff0000;stop-opacity:0;"
         offset="0.60000002"
         id="stop26" />
      <stop
         style="stop-color:#ff0000;stop-opacity:1;"
         offset="1"
         id="stop25" />
    </linearGradient>
    <linearGradient
       id="linearGradient22"
       inkscape:collect="always">
      <stop
         style="stop-color:#0000ff;stop-opacity:0;"
         offset="0.60000002"
         id="stop24" />
      <stop
         style="stop-color:#0000ff;stop-opacity:1;"
         offset="1"
         id="stop23" />
    </linearGradient>
    <linearGradient
       id="linearGradient21"
       inkscape:collect="always">
      <stop
         style="stop-color:#ff0000;stop-opacity:0;"
         offset="0.60000002"
         id="stop22" />
      <stop
         style="stop-color:#ff0000;stop-opacity:1;"
         offset="1"
         id="stop21" />
    </linearGradient>
    <inkscape:path-effect
       effect="fillet_chamfer"
       id="path-effect8"
       is_visible="true"
       lpeversion="1"
       nodesatellites_param="F,0,0,1,0,2,0,1 @ F,0,0,1,0,2,0,1 @ F,0,0,1,0,2,0,1 @ F,0,0,1,0,2,0,1 @ F,0,0,1,0,2,0,1 @ F,0,0,1,0,2,0,1 @ F,0,0,1,0,2,0,1 @ F,0,0,1,0,2,0,1"
       radius="2"
       unit="px"
       method="auto"
       mode="F"
       chamfer_steps="1"
       flexible="false"
       use_knot_distance="true"
       apply_no_radius="true"
       apply_with_radius="true"
       only_selected="false"
       hide_knots="false" />
    <radialGradient
       inkscape:collect="always"
       xlink:href="#linearGradient21"
       id="radialGradient22"
       cx="67.730583"
       cy="68.098587"
       fx="67.730583"
       fy="68.098587"
       r="46.143304"
       gradientTransform="matrix(1.2757208,0,0,1.2656683,-18.674735,-18.457527)"
       gradientUnits="userSpaceOnUse" />
    <radialGradient
       inkscape:collect="always"
       xlink:href="#linearGradient22"
       id="radialGradient24"
       cx="67.733955"
       cy="67.367592"
       fx="67.733955"
       fy="67.367592"
       r="46.143385"
       gradientTransform="matrix(1.2756454,0,0,1.2756455,-18.670552,-18.203845)"
       gradientUnits="userSpaceOnUse" />
    <radialGradient
       inkscape:collect="always"
       xlink:href="#linearGradient24"
       id="radialGradient26"
       cx="67.733955"
       cy="72.376114"
       fx="67.733955"
       fy="72.376114"
       r="23.618336"
       gradientTransform="matrix(2.4926089,0,0,2.4922415,-101.10031,-112.64544)"
       gradientUnits="userSpaceOnUse" />
    <clipPath
       clipPathUnits="userSpaceOnUse"
       id="clipPath28">
      <path
         style="color:#000000;fill:#ffcc00;stroke-width:0.999998;stroke-linecap:round;stroke-linejoin:round;-inkscape-stroke:none;paint-order:markers stroke fill"
         d="m -155.70929,13.607978 c -10.89598,0.04249 -21.53275,3.119737 -30.75252,8.82993 l 46.12339,53.858439 -43.75221,-13.795925 c 7.48957,23.899677 29.80644,41.240928 56.17616,41.240928 10.89582,-0.0425 21.53514,-3.11564 30.755214,-8.825001 L -138.68669,41.052972 -99.533116,54.848894 C -107.02267,30.949243 -129.33961,13.607978 -155.70929,13.607978 Z"
         id="path29" />
    </clipPath>
    <filter
       inkscape:collect="always"
       style="color-interpolation-filters:sRGB"
       id="filter29"
       x="-0.039057802"
       y="-0.038703807"
       width="1.0781156"
       height="1.0774076">
      <feGaussianBlur
         inkscape:collect="always"
         stdDeviation="1.479142"
         id="feGaussianBlur29" />
    </filter>
    <filter
       inkscape:collect="always"
       style="color-interpolation-filters:sRGB"
       id="filter30"
       x="-0.017656644"
       y="-0.017493905"
       width="1.0353133"
       height="1.0349878">
      <feGaussianBlur
         inkscape:collect="always"
         stdDeviation="0.64596936"
         id="feGaussianBlur30" />
    </filter>
    <radialGradient
       inkscape:collect="always"
       xlink:href="#linearGradient32"
       id="radialGradient33"
       cx="-13.180859"
       cy="86.799103"
       fx="-13.180859"
       fy="86.799103"
       r="5.5183692"
       gradientUnits="userSpaceOnUse"
       gradientTransform="translate(80.914188,-19.066414)" />
    <filter
       inkscape:collect="always"
       style="color-interpolation-filters:sRGB"
       id="filter33"
       x="-0.23938157"
       y="-0.27819913"
       width="1.4787631"
       height="1.5563983">
      <feGaussianBlur
         inkscape:collect="always"
         stdDeviation="0.50399206"
         id="feGaussianBlur33" />
    </filter>
    <linearGradient
       inkscape:collect="always"
       xlink:href="#linearGradient34"
       id="linearGradient35"
       x1="64.565445"
       y1="64.571823"
       x2="67.730583"
       y2="67.73333"
       gradientUnits="userSpaceOnUse" />
    <filter
       inkscape:collect="always"
       style="color-interpolation-filters:sRGB"
       id="filter35"
       x="-0.25719115"
       y="-0.29889667"
       width="1.5143823"
       height="1.5977933">
      <feGaussianBlur
         inkscape:collect="always"
         stdDeviation="0.54148824"
         id="feGaussianBlur35" />
    </filter>
    <radialGradient
       inkscape:collect="always"
       xlink:href="#linearGradient1"
       id="radialGradient2"
       cx="67.733334"
       cy="67.733334"
       fx="67.733334"
       fy="67.733334"
       r="66.271406"
       gradientTransform="matrix(1,0,0,0.99998446,-3.25e-5,0.00105147)"
       gradientUnits="userSpaceOnUse" />
    <radialGradient
       inkscape:collect="always"
       xlink:href="#linearGradient2"
       id="radialGradient4"
       cx="237.59592"
       cy="67.733331"
       fx="237.59592"
       fy="67.733331"
       r="58.862625"
       gradientTransform="translate(-169.86258,3.1373027e-5)"
       gradientUnits="userSpaceOnUse" />
  </defs>
  <g
     inkscape:label="Layer 1"
     inkscape:groupmode="layer"
     id="layer1">
    <path
       style="color:#000000;fill:#ffffff;stroke-linecap:round;stroke-linejoin:round;-inkscape-stroke:none;paint-order:markers stroke fill"
       d="m 67.730412,0.66985843 c -36.94929,0 -67.0625395,30.11327657 -67.0625395,67.06250057 0,36.949231 30.1130695,67.064451 67.0625395,67.064451 36.949468,0 67.068378,-30.11501 67.068378,-67.064451 0,-36.949442 -30.1191,-67.06250057 -67.068378,-67.06250057 z m 0,1.58593757 c 36.087068,0 65.480488,29.389456 65.480488,65.476563 0,36.087111 -29.39329,65.476561 -65.480488,65.476561 -36.0872,0 -65.4746495,-29.38955 -65.4746495,-65.476561 0,-36.087005 29.3875795,-65.476563 65.4746495,-65.476563 z"
       id="path9"
       sodipodi:nodetypes="ssssssssss" />
    <path
       style="color:#000000;fill:url(#radialGradient2);stroke-linecap:round;stroke-linejoin:round;-inkscape-stroke:none;paint-order:markers stroke fill"
       d="m 67.731277,1.4629562 c -36.51819,0 -66.2693795,29.7511888 -66.2693795,66.2693398 0,36.518154 29.7510295,66.271414 66.2693795,66.271414 36.518353,0 66.273493,-29.7531 66.273493,-66.271414 0,-36.518311 -29.7553,-66.2693398 -66.273493,-66.2693398 z m 0,14.8145998 c 28.51135,0 51.457343,22.943608 51.457343,51.45474 0,28.511131 -22.946173,51.457324 -51.457343,51.457324 -28.51116,0 -51.45477,-22.946016 -51.45477,-51.457324 0,-28.51131 22.94343,-51.45474 51.45477,-51.45474 z"
       id="path10" />
    <path
       style="color:#000000;display:none;opacity:0.5;fill:url(#radialGradient4);stroke-linecap:round;stroke-linejoin:round;-inkscape-stroke:none;paint-order:markers stroke fill"
       d="M 67.733337,126.59593 A 58.862598,58.862598 0 0 1 8.8707075,67.733332 58.862598,58.862598 0 0 1 67.733337,8.8707332 58.862598,58.862598 0 0 1 126.59596,67.733332 58.862598,58.862598 0 0 1 67.733337,126.59593 Z"
       id="path6" />
    <path
       id="circle1"
       style="fill:url(#radialGradient22);stroke:none;stroke-width:0.0529167;stroke-linecap:round;stroke-linejoin:round;paint-order:markers stroke fill"
       d="M 120.41586,93.731974 C 134.069,66.137745 124.11601,32.317196 97.076783,16.706088 80.577212,7.2409679 60.520694,6.3324552 43.232963,14.267181 c 12.160584,-1.196979 24.392288,1.420242 34.998252,7.488576 22.836855,13.184861 33.493225,39.361227 28.029525,63.803748 z"
       sodipodi:nodetypes="cccccc" />
    <path
       id="path2"
       style="fill:url(#radialGradient24);stroke:none;stroke-width:0.0529167;stroke-linecap:round;stroke-linejoin:round;paint-order:markers stroke fill"
       d="M -3.0085526e-6,33.045086 15.050814,41.734679 c -13.6531404,27.594218 -3.700106,61.414801 23.33914,77.025911 16.499596,9.46515 36.556163,10.37368 53.843912,2.43897 C 80.073268,122.39652 67.84155,119.77929 57.235539,113.71093 34.398666,100.52605 23.742251,74.349678 29.205939,49.907145 l 17.977879,10.379533 -9.9e-5,-54.4830695 z" />
    <path
       id="path21"
       style="fill:url(#radialGradient26);stroke:none;stroke-width:0.0529167;stroke-linecap:round;stroke-linejoin:round;paint-order:markers stroke fill"
       d="m 135.46667,102.42156 -15.05081,-8.689586 -14.15512,-8.172469 -17.977827,-10.379498 4e-5,54.483053 z"
       sodipodi:nodetypes="cccccc" />
    <path
       id="path30"
       style="fill:#000000;stroke:#ffffff;stroke-width:0.0529167;stroke-linecap:round;stroke-linejoin:round;paint-order:markers stroke fill;filter:url(#filter30);opacity:0.4"
       d="m 53.834571,23.724981 c -10.895981,0.04249 -21.532745,3.119737 -30.752515,8.82993 L 69.205443,86.413349 25.453234,72.617426 c 7.489566,23.899675 29.806441,41.240934 56.176163,41.240934 10.895816,-0.0425 21.535143,-3.11564 30.755213,-8.825 L 70.857169,51.169976 110.01075,64.965898 C 102.5212,41.066246 80.20425,23.724981 53.834571,23.724981 Z"
       sodipodi:nodetypes="ccccccccc" />
    <path
       id="circle2"
       style="fill:#ffcc00;stroke:#ffffff;stroke-width:0.0529167;stroke-linecap:round;stroke-linejoin:round;paint-order:markers stroke fill"
       d="m 53.834571,22.666647 c -10.895981,0.04249 -21.532745,3.119737 -30.752515,8.82993 L 69.205443,85.355015 25.453234,71.559092 c 7.489566,23.899675 29.806441,41.240928 56.176163,41.240928 10.895816,-0.0425 21.535143,-3.11564 30.755213,-8.825 L 70.857169,50.111642 110.01075,63.907564 C 102.5212,40.007912 80.20425,22.666647 53.834571,22.666647 Z"
       sodipodi:nodetypes="ccccccccc" />
    <path
       style="color:#000000;fill:#ff5200;stroke-linecap:round;stroke-linejoin:round;-inkscape-stroke:none;paint-order:markers stroke fill;filter:url(#filter29)"
       d="m -155.71289,12.814453 c -11.0434,0.04307 -21.82245,3.162354 -31.16602,8.949219 a 0.79382936,0.79382936 0 0 0 -0.18554,1.191406 l 44.31836,51.75 -41.10547,-12.960937 a 0.79382936,0.79382936 0 0 0 -0.9961,0.99414 c 7.59135,24.224449 30.21591,41.796879 56.9336,41.796879 a 0.79382936,0.79382936 0 0 0 0.002,0 c 11.04304,-0.0431 21.82588,-3.15724 31.169923,-8.943363 a 0.79382936,0.79382936 0 0 0 0.210937,-1.160156 l -39.89062,-51.740235 36.624995,12.90625 a 0.79382936,0.79382936 0 0 0 1.021484,-0.986328 C -106.36672,30.3869 -128.99134,12.814453 -155.70898,12.814453 a 0.79382936,0.79382936 0 0 0 -0.004,0 z m 0.004,1.587891 h 0.002 c 25.42173,8.49e-4 46.91348,16.380083 54.7832,39.115234 l -37.5,-13.212891 a 0.79382936,0.79382936 0 0 0 -0.89062,1.232422 l 40.953122,53.119141 c -8.917122,5.334809 -19.103962,8.24955 -29.552732,8.29102 -25.44935,0 -46.96514,-16.412422 -54.81446,-39.185551 l 42.15235,13.291015 a 0.79382936,0.79382936 0 0 0 0.83984,-1.273437 L -185.2147,22.675781 c 8.90737,-5.319946 19.07299,-8.2324 29.50586,-8.273437 z"
       id="path27"
       clip-path="url(#clipPath28)"
       transform="translate(209.54386,9.0585269)" />
    <rect
       style="fill:#0000ff;stroke:#ffffff;stroke-width:0.529167;stroke-linecap:round;stroke-linejoin:round;stroke-dasharray:none;stroke-opacity:1;paint-order:markers stroke fill"
       id="rect10"
       width="3.497086"
       height="8.5547953"
       x="65.985413"
       y="9.3305807"
       inkscape:transform-center-x="-0.00071152871"
       inkscape:transform-center-y="-62.281441" />
    <rect
       style="fill:#ff0000;stroke:#ffffff;stroke-width:0.529167;stroke-linecap:round;stroke-linejoin:round;stroke-dasharray:none;stroke-opacity:1;paint-order:markers stroke fill"
       id="rect11"
       width="3.497086"
       height="8.5547953"
       x="-69.481262"
       y="-126.13481"
       inkscape:transform-center-x="0.00071135342"
       inkscape:transform-center-y="62.28144"
       transform="scale(-1)" />
    <rect
       style="fill:#0000ff;stroke:#ffffff;stroke-width:0.529167;stroke-linecap:round;stroke-linejoin:round;stroke-dasharray:none;stroke-opacity:1;paint-order:markers stroke fill"
       id="rect12"
       width="3.497086"
       height="8.5547953"
       x="65.984779"
       y="-126.13546"
       inkscape:transform-center-x="-62.281441"
       inkscape:transform-center-y="0.00071128413"
       transform="rotate(90)" />
    <rect
       style="fill:#ff0000;stroke:#ffffff;stroke-width:0.529167;stroke-linecap:round;stroke-linejoin:round;stroke-dasharray:none;stroke-opacity:1;paint-order:markers stroke fill"
       id="rect13"
       width="3.497086"
       height="8.5547953"
       x="-69.480621"
       y="9.3312216"
       inkscape:transform-center-x="62.28144"
       inkscape:transform-center-y="-0.00071193787"
       transform="rotate(-90)" />
    <rect
       style="fill:#0000ff;stroke:#ffffff;stroke-width:0.529167;stroke-linecap:round;stroke-linejoin:round;stroke-dasharray:none;stroke-opacity:1;paint-order:markers stroke fill"
       id="rect14"
       width="3.497086"
       height="8.5547953"
       x="23.043644"
       y="-150.92725"
       inkscape:transform-center-x="-53.936948"
       inkscape:transform-center-y="31.141334"
       transform="rotate(120)" />
    <rect
       style="fill:#ff0000;stroke:#ffffff;stroke-width:0.529167;stroke-linecap:round;stroke-linejoin:round;stroke-dasharray:none;stroke-opacity:1;paint-order:markers stroke fill"
       id="rect15"
       width="3.497086"
       height="8.5547953"
       x="-26.539492"
       y="34.123024"
       inkscape:transform-center-x="53.936954"
       inkscape:transform-center-y="-31.141336"
       transform="rotate(-60)" />
    <rect
       style="fill:#0000ff;stroke:#ffffff;stroke-width:0.529167;stroke-linecap:round;stroke-linejoin:round;stroke-dasharray:none;stroke-opacity:1;paint-order:markers stroke fill"
       id="rect16"
       width="3.497086"
       height="8.5547953"
       x="-26.540367"
       y="-150.92702"
       inkscape:transform-center-x="-31.140101"
       inkscape:transform-center-y="53.93766"
       transform="rotate(150)" />
    <rect
       style="fill:#ff0000;stroke:#ffffff;stroke-width:0.529167;stroke-linecap:round;stroke-linejoin:round;stroke-dasharray:none;stroke-opacity:1;paint-order:markers stroke fill"
       id="rect17"
       width="3.497086"
       height="8.5547953"
       x="23.044518"
       y="34.122791"
       inkscape:transform-center-x="31.140104"
       inkscape:transform-center-y="-53.937666"
       transform="rotate(-30)" />
    <rect
       style="fill:#ff0000;stroke:#ffffff;stroke-width:0.529167;stroke-linecap:round;stroke-linejoin:round;stroke-dasharray:none;stroke-opacity:1;paint-order:markers stroke fill"
       id="rect18"
       width="3.497086"
       height="8.5547953"
       x="90.776985"
       y="-33.609669"
       inkscape:transform-center-x="53.936948"
       inkscape:transform-center-y="31.141334"
       transform="matrix(0.50000001,0.8660254,0.8660254,-0.50000001,0,0)" />
    <rect
       style="fill:#0000ff;stroke:#ffffff;stroke-width:0.529167;stroke-linecap:round;stroke-linejoin:round;stroke-dasharray:none;stroke-opacity:1;paint-order:markers stroke fill"
       id="rect19"
       width="3.497086"
       height="8.5547953"
       x="-94.272835"
       y="-83.194557"
       inkscape:transform-center-x="-53.936952"
       inkscape:transform-center-y="-31.141335"
       transform="matrix(-0.50000001,-0.8660254,-0.8660254,0.50000001,0,0)" />
    <rect
       style="fill:#ff0000;stroke:#ffffff;stroke-width:0.529167;stroke-linecap:round;stroke-linejoin:round;stroke-dasharray:none;stroke-opacity:1;paint-order:markers stroke fill"
       id="rect20"
       width="3.497086"
       height="8.5547953"
       x="90.777214"
       y="-83.19368"
       inkscape:transform-center-x="31.140102"
       inkscape:transform-center-y="53.937663"
       transform="matrix(0.8660254,0.50000001,0.50000001,-0.8660254,0,0)" />
    <rect
       style="fill:#0000ff;stroke:#ffffff;stroke-width:0.529167;stroke-linecap:round;stroke-linejoin:round;stroke-dasharray:none;stroke-opacity:1;paint-order:markers stroke fill"
       id="rect21"
       width="3.497086"
       height="8.5547953"
       x="-94.273064"
       y="-33.61055"
       inkscape:transform-center-x="-31.140104"
       inkscape:transform-center-y="-53.937664"
       transform="matrix(-0.8660254,-0.50000001,-0.50000001,0.8660254,0,0)" />
    <g
       id="g8"
       transform="matrix(0,-0.8690345,0.8690345,0,40.887582,239.54474)"
       style="display:inline;stroke-width:1.1507">
      <path
         id="rect4"
         style="opacity:1;stroke-width:0.0608914;stroke-linecap:round;stroke-linejoin:round;paint-order:markers stroke fill"
         d="m 195.85095,-12.999521 h 3.70711 v 57.010114 c 0,0 -0.91571,2.116666 -1.85355,2.116667 -0.93784,10e-7 -1.85356,-2.116667 -1.85356,-2.116667 z"
         sodipodi:nodetypes="ccczcc" />
      <path
         id="path5"
         style="opacity:1;stroke-width:0.0608914;stroke-linecap:round;stroke-linejoin:round;paint-order:markers stroke fill"
         inkscape:transform-center-y="-2.8145576"
         d="m 197.70451,-24.043147 c 0,0 1.57514,5.576328 3.18179,8.443672 1.60665,2.867345 4.45145,8.4436726 4.45145,8.4436726 0,0 -4.33463,-1.6931687 -7.63324,-1.6931688 -3.29861,-1e-7 -7.63324,1.6931683 -7.63324,1.6931683 0,0 2.8448,-5.5763271 4.45145,-8.4436721 1.60665,-2.867344 3.18179,-8.443672 3.18179,-8.443672 z"
         sodipodi:nodetypes="czczczc"
         inkscape:transform-center-x="2.1470064e-06" />
    </g>
    <g
       id="g7"
       transform="matrix(0.8690345,0,0,0.8690345,-81.694419,43.757463)"
       style="display:inline;stroke-width:1.1507">
      <path
         id="rect5"
         style="opacity:1;stroke-width:0.0608914;stroke-linecap:round;stroke-linejoin:round;paint-order:markers stroke fill"
         d="m 166.80235,-1.7469528 2.57261,0.5291667 2.57261,-2.6458333 2.57262,2.6458333 2.57261,-0.5291667 c 0.56294,0 0.76873,0.7410398 0.28642,1.03132451 l -1.86451,1.12215508 C 174.45139,1.0464892 173.80113,2.1968018 173.80113,3.4378513 V 34.633522 c 0,1.104569 0.005,2.899064 -0.12993,3.994734 -0.0804,0.650795 -0.21047,1.357627 -0.421,1.949306 -0.34701,0.97524 -2.25833,0.97515 -2.60533,-2.13e-4 -0.21052,-0.591704 -0.34059,-1.29854 -0.42096,-1.949319 -0.13529,-1.095547 -0.12989,-2.889939 -0.12989,-3.994508 V 3.4378513 c 0,-1.2410495 -0.65026,-2.3913621 -1.71358,-3.03132451 l -1.86451,-1.12215508 c -0.48231,-0.29028471 -0.27652,-1.03132451 0.28642,-1.03132451 z"
         sodipodi:nodetypes="ccccccczcccssssssc" />
      <path
         id="circle6"
         style="opacity:1;fill:#000000;stroke:none;stroke-width:0.0608914;stroke-linecap:round;stroke-linejoin:round;paint-order:markers stroke fill"
         d="m 171.94759,-20.9687 c 0,0 -1.39729,5.690492 -3.03598,8.638414 -1.63868,2.947923 -5.84215,7.4474228 -5.84215,7.4474228 l 7.3e-4,-3.813e-4 a 4.4755778,4.4755778 0 0 0 -1.09723,2.9353689 4.4755778,4.4755778 0 0 0 4.47546,4.4754657 4.4755778,4.4755778 0 0 0 4.47547,-4.4754657 4.4755778,4.4755778 0 0 0 -4.03375,-4.4537424 c 1.66059,-0.231268 3.56336,0.7584247 5.05743,0.7584247 1.49406,0 3.39684,-0.9896927 5.05743,-0.7584247 a 4.4755778,4.4755778 0 0 0 -4.03375,4.4537424 4.4755778,4.4755778 0 0 0 4.47547,4.4754657 4.4755778,4.4755778 0 0 0 4.47547,-4.4754657 4.4755778,4.4755778 0 0 0 -1.09725,-2.9353689 l 7.4e-4,3.813e-4 c 0,0 -4.20348,-4.4994998 -5.84215,-7.4474228 -1.63869,-2.947922 -3.03599,-8.638414 -3.03599,-8.638414 z" />
    </g>
    <g
       id="g9"
       transform="matrix(-0.61450019,0.61450019,-0.61450019,-0.61450019,225.07244,13.42491)"
       inkscape:transform-center-x="-11.634469"
       inkscape:transform-center-y="11.633455"
       style="display:inline;stroke-width:1.1507">
      <rect
         style="opacity:1;fill:#000000;stroke:none;stroke-width:0.0608914;stroke-linecap:round;stroke-linejoin:round;paint-order:markers stroke fill"
         id="rect8"
         width="2.1343765"
         height="78.027267"
         x="171.14268"
         y="30.330421" />
      <circle
         style="opacity:1;fill:#000000;stroke:none;stroke-width:0.0608914;stroke-linecap:round;stroke-linejoin:round;paint-order:markers stroke fill"
         id="path8"
         cx="172.20987"
         cy="47.566715"
         r="3.7041667" />
      <rect
         style="opacity:1;fill:#ffffff;stroke:#000000;stroke-width:0.60891329;stroke-linecap:round;stroke-linejoin:round;paint-order:markers stroke fill;fill-opacity:1;stroke-opacity:1;stroke-dasharray:none"
         id="rect9"
         width="2.1343842"
         height="3.9290881"
         x="171.14268"
         y="26.401329" />
    </g>
    <circle
       style="display:inline;fill:#7e2000;stroke:none;stroke-width:0.0529167;stroke-linecap:round;stroke-linejoin:round;paint-order:markers stroke fill;fill-opacity:1"
       id="path4"
       cx="67.73333"
       cy="67.732689"
       r="5.5183692" />
    <circle
       style="display:inline;fill:url(#radialGradient33);stroke:none;stroke-width:0.0529167;stroke-linecap:round;stroke-linejoin:round;paint-order:markers stroke fill"
       id="circle31"
       cx="67.73333"
       cy="67.732689"
       r="5.5183692" />
    <path
       id="path33"
       style="opacity:0.4;fill:url(#linearGradient35);stroke-width:1.5875;stroke-linecap:round;stroke-linejoin:round;paint-order:markers stroke fill;filter:url(#filter33);fill-opacity:1"
       d="m 68.686355,65.110776 c 0.722675,1.251709 -1.029111,0.560903 -2.28082,1.283577 -1.25171,0.722674 -1.529347,2.585166 -2.25202,1.33346 -0.722675,-1.251709 -0.293808,-2.852264 0.957901,-3.574939 1.25171,-0.722675 2.852264,-0.293808 3.574939,0.957902 z"
       sodipodi:nodetypes="sssss" />
    <path
       id="path34"
       style="opacity:0.2;fill:#2b1100;stroke-width:1.5875;stroke-linecap:round;stroke-linejoin:round;paint-order:markers stroke fill;filter:url(#filter35)"
       d="m 69.215522,65.639943 c 0.722675,1.251709 -1.029111,0.560903 -2.28082,1.283577 -1.25171,0.722674 -1.529347,2.585166 -2.25202,1.33346 -0.722675,-1.251709 -0.293808,-2.852264 0.957901,-3.574939 1.25171,-0.722675 2.852264,-0.293808 3.574939,0.957902 z"
       sodipodi:nodetypes="sssss"
       transform="rotate(165,67.707433,68.231766)" />
  </g>
</svg>
