<?xml version="1.0" encoding="UTF-8" standalone="no"?>
<!-- Created with Inkscape (http://www.inkscape.org/) -->

<svg
   width="512"
   height="512"
   viewBox="0 0 135.46666 135.46667"
   version="1.1"
   id="svg5"
   inkscape:version="1.3.2 (091e20ef0f, 2023-11-25, custom)"
   sodipodi:docname="tor-private.svg"
   xmlns:inkscape="http://www.inkscape.org/namespaces/inkscape"
   xmlns:sodipodi="http://sodipodi.sourceforge.net/DTD/sodipodi-0.dtd"
   xmlns:xlink="http://www.w3.org/1999/xlink"
   xmlns="http://www.w3.org/2000/svg"
   xmlns:svg="http://www.w3.org/2000/svg"
   xmlns:rdf="http://www.w3.org/1999/02/22-rdf-syntax-ns#"
   xmlns:cc="http://creativecommons.org/ns#"
   xmlns:dc="http://purl.org/dc/elements/1.1/">&gt;
  <sodipodi:namedview
   id="namedview7"
   pagecolor="#292929"
   bordercolor="#666666"
   borderopacity="1"
   inkscape:showpageshadow="0"
   inkscape:pageopacity="0"
   inkscape:pagecheckerboard="1"
   inkscape:deskcolor="#1a1a1a"
   inkscape:document-units="px"
   showgrid="false"
   inkscape:zoom="14.164233"
   inkscape:cx="441.56998"
   inkscape:cy="267.85778"
   inkscape:window-width="3256"
   inkscape:window-height="1080"
   inkscape:window-x="1864"
   inkscape:window-y="0"
   inkscape:window-maximized="0"
   inkscape:current-layer="layer1" />
<defs
   id="defs2">
  <linearGradient
     id="linearGradient29"
     inkscape:collect="always">
    <stop
       style="stop-color:#000000;stop-opacity:1;"
       offset="0"
       id="stop30" />
    <stop
       style="stop-color:#820000;stop-opacity:1;"
       offset="1"
       id="stop29" />
  </linearGradient>
  <linearGradient
     id="linearGradient26"
     inkscape:collect="always">
    <stop
       style="stop-color:#000000;stop-opacity:1;"
       offset="0"
       id="stop27" />
    <stop
       style="stop-color:#820000;stop-opacity:1;"
       offset="1"
       id="stop26" />
  </linearGradient>
  <linearGradient
     id="linearGradient38"
     inkscape:collect="always">
    <stop
       style="stop-color:#000000;stop-opacity:1;"
       offset="0"
       id="stop38" />
    <stop
       style="stop-color:#414141;stop-opacity:0;"
       offset="1"
       id="stop39" />
  </linearGradient>
  <linearGradient
     id="linearGradient34"
     inkscape:collect="always">
    <stop
       style="stop-color:#e5e5e5;stop-opacity:1;"
       offset="0"
       id="stop34" />
    <stop
       style="stop-color:#e5e5e5;stop-opacity:0;"
       offset="1"
       id="stop35" />
  </linearGradient>
  <linearGradient
     id="linearGradient20"
     inkscape:collect="always">
    <stop
       style="stop-color:#6e0000;stop-opacity:1;"
       offset="0"
       id="stop20" />
    <stop
       style="stop-color:#6e0000;stop-opacity:0;"
       offset="1"
       id="stop21" />
  </linearGradient>
  <linearGradient
     id="linearGradient17"
     inkscape:collect="always">
    <stop
       style="stop-color:#e5e5e5;stop-opacity:1;"
       offset="0"
       id="stop17" />
    <stop
       style="stop-color:#e5e5e5;stop-opacity:0;"
       offset="1"
       id="stop18" />
  </linearGradient>
  <linearGradient
     id="linearGradient9"
     inkscape:collect="always">
    <stop
       style="stop-color:#414141;stop-opacity:1;"
       offset="0"
       id="stop8" />
    <stop
       style="stop-color:#151515;stop-opacity:1;"
       offset="1"
       id="stop9" />
  </linearGradient>
  <linearGradient
     inkscape:collect="always"
     xlink:href="#linearGradient17"
     id="linearGradient18"
     x1="30.939001"
     y1="17.169325"
     x2="54.485195"
     y2="40.715519"
     gradientUnits="userSpaceOnUse"
     gradientTransform="matrix(0.99218742,0,0,0.99218742,2.6458364,0.52917281)" />
  <radialGradient
     inkscape:collect="always"
     xlink:href="#linearGradient20"
     id="radialGradient21"
     cx="248.84186"
     cy="83.419968"
     fx="248.84186"
     fy="83.419968"
     r="57.158725"
     gradientTransform="matrix(0.99218742,0,0,1.2855613,-179.16443,-32.08603)"
     gradientUnits="userSpaceOnUse" />
  <radialGradient
     inkscape:collect="always"
     xlink:href="#linearGradient34"
     id="radialGradient35"
     cx="184.24065"
     cy="62.504448"
     fx="184.24065"
     fy="62.504448"
     r="29.06376"
     gradientTransform="matrix(0.90308754,0.41093641,-0.49179165,1.0807777,-85.69308,-103.73163)"
     gradientUnits="userSpaceOnUse" />
  <clipPath
     clipPathUnits="userSpaceOnUse"
     id="clipPath39">
    <path
       id="path39"
       style="color:#000000;display:inline;fill:#711169;stroke-width:0.999998;stroke-linecap:round;stroke-linejoin:round;-inkscape-stroke:none;paint-order:markers stroke fill"
       d="m 241.96662,28.953272 c -3.44235,0 -6.03378,0.89713 -8.00984,2.439127 -1.97606,1.541995 -3.30869,3.610909 -4.65605,5.869408 -2.69472,4.517001 -5.45023,9.932596 -12.7832,14.948959 -13.12729,8.980167 -33.15611,25.268515 -33.15611,49.396464 0,34.88891 23.57976,63.45143 58.6052,63.45143 35.02546,0 58.6078,-28.56252 58.6078,-63.45143 0,-24.127949 -20.03089,-40.416297 -33.1582,-49.396464 -7.33296,-5.016363 -10.08692,-10.431958 -12.78164,-14.948959 -1.34737,-2.258499 -2.67999,-4.327413 -4.65604,-5.869408 -1.97607,-1.541997 -4.56957,-2.439127 -8.01192,-2.439127 z" />
  </clipPath>
  <filter
     inkscape:collect="always"
     style="color-interpolation-filters:sRGB"
     id="filter39"
     x="-0.11029893"
     y="-0.1016828"
     width="1.2205979"
     height="1.2033656">
    <feGaussianBlur
       inkscape:collect="always"
       stdDeviation="2.6861762"
       id="feGaussianBlur39" />
  </filter>
  <linearGradient
     inkscape:collect="always"
     xlink:href="#linearGradient38"
     id="linearGradient1"
     gradientUnits="userSpaceOnUse"
     x1="241.96791"
     y1="165.05865"
     x2="241.96791"
     y2="95.617477" />
  <clipPath
     clipPathUnits="userSpaceOnUse"
     id="clipPath14">
    <path
       style="color:#000000;fill:url(#linearGradient15);stroke-width:0.999998;stroke-linecap:round;stroke-linejoin:round;-inkscape-stroke:none;paint-order:markers stroke fill"
       d="m 211.36874,2.2029222 c -12.93575,0 -9.51792,12.7203248 -24.85362,23.2112118 -13.13486,8.985353 -32.81977,25.105619 -32.81977,48.636149 0,34.551397 23.12198,62.560977 57.67339,62.560977 0,-32.81079 0,-105.614127 0,-134.4083378 z"
       id="path15" />
  </clipPath>
  <linearGradient
     inkscape:collect="always"
     xlink:href="#linearGradient9"
     id="linearGradient15"
     gradientUnits="userSpaceOnUse"
     gradientTransform="matrix(0.92363625,0,0,0.92363625,335.46452,28.229263)"
     x1="-165.57649"
     y1="-28.178127"
     x2="-165.57649"
     y2="117.34272" />
  <filter
     inkscape:collect="always"
     style="color-interpolation-filters:sRGB"
     id="filter22"
     x="-0.074527873"
     y="-0.064443842"
     width="1.1490557"
     height="1.1288877">
    <feGaussianBlur
       inkscape:collect="always"
       stdDeviation="3.7194188"
       id="feGaussianBlur22" />
  </filter>
  <linearGradient
     inkscape:collect="always"
     xlink:href="#linearGradient9"
     id="linearGradient24"
     x1="10.5346"
     y1="67.733337"
     x2="71.402214"
     y2="67.733337"
     gradientUnits="userSpaceOnUse" />
  <filter
     inkscape:collect="always"
     style="color-interpolation-filters:sRGB"
     id="filter26"
     x="-0.28192346"
     y="-0.27124278"
     width="1.5638469"
     height="1.5424856">
    <feGaussianBlur
       inkscape:collect="always"
       stdDeviation="5.0224499"
       id="feGaussianBlur26" />
  </filter>
  <linearGradient
     inkscape:collect="always"
     xlink:href="#linearGradient26"
     id="linearGradient27"
     x1="11.738255"
     y1="72.299141"
     x2="126.59599"
     y2="72.299141"
     gradientUnits="userSpaceOnUse" />
  <linearGradient
     inkscape:collect="always"
     xlink:href="#linearGradient29"
     id="linearGradient30"
     x1="10.5346"
     y1="67.733335"
     x2="126.85453"
     y2="67.733335"
     gradientUnits="userSpaceOnUse" />
  <clipPath
     clipPathUnits="userSpaceOnUse"
     id="clipPath30">
    <path
       style="color:#000000;fill:#e5e5e5;stroke-width:1;stroke-linecap:round;stroke-linejoin:round;-inkscape-stroke:none;paint-order:markers stroke fill"
       d="m 68.694566,1.6492413 c -12.720151,0 -9.359286,12.5083227 -24.439383,22.8243557 -12.915956,8.8356 -32.272788,24.687199 -32.272788,47.825547 0,33.975536 22.736631,61.518276 56.712171,61.518276 33.975534,0 56.712164,-27.54274 56.712164,-61.518276 0,-23.138348 -19.35683,-38.989947 -32.272791,-47.825547 C 78.053863,14.157564 81.414708,1.6492413 68.694566,1.6492413 Z"
       id="path30" />
  </clipPath>
</defs>
<g
   inkscape:label="Layer 1"
   inkscape:groupmode="layer"
   id="layer1">
  <path
     id="path3"
     style="display:inline;fill:#e5e5e5;fill-opacity:1;stroke:url(#linearGradient30);stroke-width:2.89559;stroke-linecap:round;stroke-linejoin:round;paint-order:markers stroke fill;opacity:0.5"
     d="m 68.694566,1.6492409 c -12.720153,0 -9.359292,12.5083191 -24.439385,22.8243571 -12.915952,8.835597 -32.272786,24.687194 -32.272786,47.825545 0,33.975537 22.736631,61.518287 56.712171,61.518287 33.975534,0 56.712164,-27.54275 56.712164,-61.518287 0,-23.138351 -19.35683,-38.989948 -32.272788,-47.825545 C 78.053858,14.15756 81.414709,1.6492409 68.694566,1.6492409 Z" />
  <path
     id="path5"
     style="display:inline;opacity:0.4;fill:#e5e5e5;fill-opacity:1;stroke:#820000;stroke-width:2.89559;stroke-linecap:round;stroke-linejoin:round;stroke-opacity:1;paint-order:markers stroke fill"
     d="m 68.694566,4.996748 c -9.911976,0 -7.293078,12.191513 -19.043999,22.246269 -10.064552,8.611813 -25.14806,24.061926 -25.14806,46.614238 0,33.115025 17.717157,59.960175 44.192059,59.960175 26.474911,0 44.192064,-26.84515 44.192064,-59.960175 0,-22.552312 -15.083505,-38.002425 -25.148066,-46.614238 C 75.987652,17.188261 78.606542,4.996748 68.694566,4.996748 Z" />
  <path
     id="path6"
     style="display:inline;fill:#e5e5e5;fill-opacity:1;stroke:#820000;stroke-width:2.89559;stroke-linecap:round;stroke-linejoin:round;stroke-opacity:1;paint-order:markers stroke fill;opacity:0.3"
     d="m 68.694557,8.2248702 c -7.002132,0 -5.152059,11.8860048 -13.453286,21.6887998 -7.109922,8.396007 -17.765393,23.458955 -17.765393,45.446127 0,32.285183 12.515961,58.457633 31.218679,58.457633 18.702727,0 31.218693,-26.17245 31.218693,-58.457633 0,-21.987172 -10.655468,-37.05012 -17.765399,-45.446127 C 73.846634,20.110875 75.696696,8.2248702 68.694557,8.2248702 Z" />
  <path
     id="path7"
     style="display:inline;fill:#e5e5e5;fill-opacity:1;stroke:#820000;stroke-width:2.89558;stroke-linecap:round;stroke-linejoin:round;stroke-opacity:1;paint-order:markers stroke fill;opacity:0.3"
     d="m 68.69443,11.87883 c -4.264562,0 -3.137796,11.540195 -8.193554,21.057789 -4.33021,8.151737 -10.819792,22.776447 -10.819792,44.123929 0,31.345892 7.622697,56.756882 19.013346,56.756882 11.390658,0 19.013354,-25.41099 19.013354,-56.756882 0,-21.347482 -6.489574,-35.972192 -10.819791,-44.123929 C 71.832243,23.419025 72.959,11.87883 68.69443,11.87883 Z" />
  <path
     id="path8"
     style="display:inline;opacity:0.2;fill:#e6e5e5;fill-opacity:1;stroke:#820000;stroke-width:2.89558;stroke-linecap:round;stroke-linejoin:round;stroke-opacity:1;paint-order:markers stroke fill"
     d="m 68.694439,20.038353 c -2.147867,0 -1.580369,10.767983 -4.126718,19.648708 -2.180935,7.606262 -5.449445,21.25236 -5.449445,41.171374 0,29.248385 3.839204,52.958995 9.576163,52.958995 5.736958,0 9.576153,-23.71061 9.576153,-52.958995 0,-19.919014 -3.26851,-33.565112 -5.449428,-41.171374 -2.546356,-8.880725 -1.97886,-19.648708 -4.126725,-19.648708 z" />
  <path
     id="path18"
     style="display:inline;opacity:0.8;fill:url(#radialGradient21);stroke:none;stroke-width:2.89559;stroke-linecap:round;stroke-linejoin:round;stroke-opacity:1;paint-order:markers stroke fill"
     d="m 67.733323,1.6492411 c 0,19.4438079 0,112.5578689 0,132.1681889 33.975547,0 56.712177,-27.54275 56.712177,-61.518286 0,-23.138351 -19.35683,-38.989948 -32.272795,-47.825545 C 77.092617,14.157561 80.453473,1.6492411 67.733323,1.6492411 Z"
     sodipodi:nodetypes="ccssc" />
  <path
     id="path37"
     clip-path="url(#clipPath39)"
     style="color:#000000;display:inline;opacity:0.6;mix-blend-mode:darken;fill:#6e0000;fill-opacity:1;stroke-width:1.00787;stroke-linecap:round;stroke-linejoin:round;-inkscape-stroke:none;paint-order:markers stroke fill;filter:url(#filter26)"
     d="m 289.70312,114.82617 c -9.12854,8.17841 -18.32408,16.56153 -29.27734,22.25781 -3.49349,1.80269 -7.16305,3.30198 -10.99414,4.21094 0,5.25391 0,10.50781 0,15.76172 8.13815,-1.12147 15.92445,-4.28247 22.45508,-9.19922 6.17945,-4.70569 11.1635,-10.93447 14.66759,-17.82223 2.7943,-5.46532 4.63256,-11.38589 5.63319,-17.418 -0.82812,0.73633 -1.65625,1.47265 -2.48438,2.20898 z"
     transform="matrix(0.99218741,0,0,0.99218741,-172.34419,-28.831632)" />
  <path
     id="path23"
     style="display:inline;fill:url(#linearGradient24);stroke:none;stroke-width:2.89559;stroke-linecap:round;stroke-linejoin:round;stroke-opacity:1;paint-order:markers stroke fill"
     d="m 68.694566,1.6492409 c -12.720153,0 -9.359292,12.5083191 -24.439385,22.8243571 -12.915952,8.835597 -32.272786,24.687194 -32.272786,47.825545 0,33.975537 22.736631,61.518287 56.712171,61.518287 2.831321,-34.030655 0,-128.820682 0,-132.1681891 z"
     sodipodi:nodetypes="csscc" />
  <path
     style="color:#000000;display:inline;mix-blend-mode:normal;fill:url(#linearGradient27);stroke:none;stroke-width:0.97951;stroke-linecap:round;stroke-linejoin:round;-inkscape-stroke:none;paint-order:markers stroke fill;filter:url(#filter22)"
     d="m 68.695312,-1.5253906 c -3.700388,0 -6.752797,1.01981793 -9.017578,2.7871093 -2.26478,1.7672915 -3.684571,4.0244129 -5.044922,6.3046875 C 51.912112,12.126956 49.418648,17.095199 42.462891,21.853516 29.306475,30.85361 8.8066406,47.389764 8.8066406,72.298828 c 0,35.391992 24.1972624,64.693362 59.8886714,64.693362 35.691408,0 59.886718,-29.30137 59.886718,-64.693362 0,-24.909064 -20.49983,-41.445218 -33.656249,-50.445312 C 87.970028,17.095199 85.47656,12.126955 82.755859,7.5664062 81.395509,5.2861316 79.97767,3.0290101 77.712891,1.2617187 75.448111,-0.50557263 72.395699,-1.5253906 68.695312,-1.5253906 Z m 0,6.3496093 c 2.659679,0 3.955525,0.5429675 5.109375,1.4433594 1.153851,0.900392 2.223585,2.4164289 3.498047,4.5527349 2.548925,4.27261 5.914747,10.715726 14.039063,16.273437 12.675463,8.671082 30.890623,23.837486 30.890623,45.205078 0,32.559022 -21.27751,58.343752 -53.537108,58.343752 -32.259602,0 -53.537109,-25.78473 -53.537109,-58.343752 0,-21.367591 18.213209,-36.533996 30.888672,-45.205078 8.12432,-5.557711 11.490138,-12.000827 14.039062,-16.273437 1.274463,-2.136306 2.344197,-3.6523429 3.498047,-4.5527349 1.153851,-0.9003919 2.451647,-1.4433594 5.111328,-1.4433594 z"
     id="path20"
     clip-path="url(#clipPath30)"
     transform="matrix(1.0209186,0,0,1.0209186,-2.39799,-1.4169488)" />
  <path
     id="path17"
     style="display:inline;opacity:0.4;fill:url(#linearGradient18);fill-opacity:1;stroke:none;stroke-width:2.89559;stroke-linecap:round;stroke-linejoin:round;stroke-opacity:1;paint-order:markers stroke fill"
     d="M 66.132614,3.5900021 C 57.67692,4.8647802 60.023465,16.207655 48.1221,24.349171 37.194096,31.824828 17.516087,44.821518 17.516087,64.398547 c 0,5.403191 0.902343,7.854304 0.909203,7.838867 0,-13.113765 12.242103,-38.578724 35.585139,-38.578724 0,0 -0.75499,-5.789478 1.808841,-10.584809 z"
     sodipodi:nodetypes="csscccc" />
  <path
     id="path34"
     style="display:inline;mix-blend-mode:overlay;fill:url(#radialGradient35);stroke:none;stroke-width:2.89559;stroke-linecap:round;stroke-linejoin:round;stroke-opacity:1;paint-order:markers stroke fill"
     d="m 69.108811,1.2623856 c -12.935752,0 -9.517925,12.7203274 -24.85363,23.2112124 -13.134854,8.985353 -32.819761,25.105623 -32.819761,48.636149 0,34.551383 23.121973,62.560963 57.673391,62.560963 0,-32.81077 0,-105.61411 0,-134.4083244 z"
     sodipodi:nodetypes="csscc" />
  <path
     id="path1"
     style="color:#000000;display:inline;mix-blend-mode:overlay;fill:url(#linearGradient1);stroke-width:1.00787;stroke-linecap:round;stroke-linejoin:round;-inkscape-stroke:none;paint-order:markers stroke fill;filter:url(#filter39)"
     d="m 241.96662,118.7866 c 0.001,8.27168 0,37.40361 0,46.27206 17.51273,0 32.16467,-7.14063 42.43844,-18.64237 5.13689,-5.75087 9.17922,-12.59203 11.93734,-20.17602 18.12995,-48.846761 -28.63987,-10.30486 -54.37578,-7.45367 z"
     sodipodi:nodetypes="ccssc"
     clip-path="url(#clipPath39)"
     transform="matrix(-0.99218742,0,0,0.99218742,306.54812,-29.951696)" />
</g>
<metadata
   id="metadata1">
  <rdf:RDF>
    <cc:Work
       rdf:about="">
      <dc:creator>
        <cc:Agent>
          <dc:title>Jess Tipton</dc:title>
        </cc:Agent>
      </dc:creator>
      <dc:publisher>
        <cc:Agent>
          <dc:title>m0dw3rks.com</dc:title>
        </cc:Agent>
      </dc:publisher>
      <cc:license
         rdf:resource="https://creativecommons.org/licenses/by-nc-nd/4.0/deed.en" />
    </cc:Work>
  </rdf:RDF>
</metadata>
<metadata
   id="metadata6">
  <rdf:RDF>
    <cc:Work
       rdf:about="">
      <dc:creator>
        <cc:Agent>
          <dc:title>Jess Tipton</dc:title>
        </cc:Agent>
      </dc:creator>
      <cc:license
         rdf:resource="https://creativecommons.org/licenses/by-nc-nd/4.0/deed.en" />
      <dc:publisher>
        <cc:Agent>
          <dc:title>m0dw3rks.com</dc:title>
        </cc:Agent>
      </dc:publisher>
    </cc:Work>
  </rdf:RDF>
</metadata>
<metadata
   id="metadata2">
  <rdf:RDF>
    <cc:Work
       rdf:about="">
      <dc:creator>
        <cc:Agent>
          <dc:title>Jess Tipton</dc:title>
        </cc:Agent>
      </dc:creator>
      <cc:license
         rdf:resource="https://creativecommons.org/licenses/by-nc-nd/4.0/deed.en" />
      <dc:publisher>
        <cc:Agent>
          <dc:title>m0dw3rks.com</dc:title>
        </cc:Agent>
      </dc:publisher>
    </cc:Work>
  </rdf:RDF>
</metadata>
<metadata
   id="metadata3">
  <rdf:RDF>
    <cc:Work
       rdf:about="">
      <dc:creator>
        <cc:Agent>
          <dc:title>Jess Tipton</dc:title>
        </cc:Agent>
      </dc:creator>
      <cc:license
         rdf:resource="https://creativecommons.org/licenses/by-nc-nd/4.0/deed.en" />
      <dc:publisher>
        <cc:Agent>
          <dc:title>m0dw3rks.com</dc:title>
        </cc:Agent>
      </dc:publisher>
    </cc:Work>
  </rdf:RDF>
</metadata>
<metadata
   id="metadata4">
  <rdf:RDF>
    <cc:Work
       rdf:about="">
      <dc:creator>
        <cc:Agent>
          <dc:title>Jess Tipton</dc:title>
        </cc:Agent>
      </dc:creator>
      <cc:license
         rdf:resource="https://creativecommons.org/licenses/by-nc-nd/4.0/deed.en" />
      <dc:publisher>
        <cc:Agent>
          <dc:title>m0dw3rks.com</dc:title>
        </cc:Agent>
      </dc:publisher>
    </cc:Work>
  </rdf:RDF>
</metadata>
<metadata
   id="metadata5">
  <rdf:RDF>
    <cc:Work
       rdf:about="">
      <dc:creator>
        <cc:Agent>
          <dc:title>Jess Tipton</dc:title>
        </cc:Agent>
      </dc:creator>
      <cc:license
         rdf:resource="https://creativecommons.org/licenses/by-nc-nd/4.0/deed.en" />
      <dc:publisher>
        <cc:Agent>
          <dc:title>m0dw3rks.com</dc:title>
        </cc:Agent>
      </dc:publisher>
    </cc:Work>
  </rdf:RDF>
</metadata>
<metadata
   id="metadata7">
  <rdf:RDF>
    <cc:Work
       rdf:about="">
      <dc:creator>
        <cc:Agent>
          <dc:title>Jess Tipton</dc:title>
        </cc:Agent>
      </dc:creator>
      <cc:license
         rdf:resource="https://creativecommons.org/licenses/by-nc-nd/4.0/deed.en" />
      <dc:publisher>
        <cc:Agent>
          <dc:title>m0dw3rks.com</dc:title>
        </cc:Agent>
      </dc:publisher>
    </cc:Work>
  </rdf:RDF>
</metadata>
<metadata
   id="metadata8">
  <rdf:RDF>
    <cc:Work
       rdf:about="">
      <dc:creator>
        <cc:Agent>
          <dc:title>Jess Tipton</dc:title>
        </cc:Agent>
      </dc:creator>
      <cc:license
         rdf:resource="https://creativecommons.org/licenses/by-nc-nd/4.0/deed.en" />
      <dc:publisher>
        <cc:Agent>
          <dc:title>m0dw3rks.com</dc:title>
        </cc:Agent>
      </dc:publisher>
    </cc:Work>
  </rdf:RDF>
</metadata>
<metadata
   id="metadata9">
  <rdf:RDF>
    <cc:Work
       rdf:about="">
      <dc:creator>
        <cc:Agent>
          <dc:title>Jess Tipton</dc:title>
        </cc:Agent>
      </dc:creator>
      <cc:license
         rdf:resource="https://creativecommons.org/licenses/by-nc-nd/4.0/deed.en" />
      <dc:publisher>
        <cc:Agent>
          <dc:title>m0dw3rks.com</dc:title>
        </cc:Agent>
      </dc:publisher>
    </cc:Work>
  </rdf:RDF>
</metadata>
<metadata
   id="metadata10">
  <rdf:RDF>
    <cc:Work
       rdf:about="">
      <dc:creator>
        <cc:Agent>
          <dc:title>Jess Tipton</dc:title>
        </cc:Agent>
      </dc:creator>
      <cc:license
         rdf:resource="https://creativecommons.org/licenses/by-nc-nd/4.0/deed.en" />
      <dc:publisher>
        <cc:Agent>
          <dc:title>m0dw3rks.com</dc:title>
        </cc:Agent>
      </dc:publisher>
    </cc:Work>
  </rdf:RDF>
</metadata>
<metadata
   id="metadata11">
  <rdf:RDF>
    <cc:Work
       rdf:about="">
      <dc:creator>
        <cc:Agent>
          <dc:title>Jess Tipton</dc:title>
        </cc:Agent>
      </dc:creator>
      <cc:license
         rdf:resource="https://creativecommons.org/licenses/by-nc-nd/4.0/deed.en" />
      <dc:publisher>
        <cc:Agent>
          <dc:title>m0dw3rks.com</dc:title>
        </cc:Agent>
      </dc:publisher>
    </cc:Work>
  </rdf:RDF>
</metadata>
<metadata
   id="metadata12">
  <rdf:RDF>
    <cc:Work
       rdf:about="">
      <dc:creator>
        <cc:Agent>
          <dc:title>Jess Tipton</dc:title>
        </cc:Agent>
      </dc:creator>
      <cc:license
         rdf:resource="https://creativecommons.org/licenses/by-nc-nd/4.0/deed.en" />
      <dc:publisher>
        <cc:Agent>
          <dc:title>m0dw3rks.com</dc:title>
        </cc:Agent>
      </dc:publisher>
    </cc:Work>
  </rdf:RDF>
</metadata>
<metadata
   id="metadata13">
  <rdf:RDF>
    <cc:Work
       rdf:about="">
      <dc:creator>
        <cc:Agent>
          <dc:title>Jess Tipton</dc:title>
        </cc:Agent>
      </dc:creator>
      <cc:license
         rdf:resource="https://creativecommons.org/licenses/by-nc-nd/4.0/deed.en" />
      <dc:publisher>
        <cc:Agent>
          <dc:title>m0dw3rks.com</dc:title>
        </cc:Agent>
      </dc:publisher>
    </cc:Work>
  </rdf:RDF>
</metadata>
<metadata
   id="metadata14">
  <rdf:RDF>
    <cc:Work
       rdf:about="">
      <dc:creator>
        <cc:Agent>
          <dc:title>Jess Tipton</dc:title>
        </cc:Agent>
      </dc:creator>
      <cc:license
         rdf:resource="https://creativecommons.org/licenses/by-nc-nd/4.0/deed.en" />
      <dc:publisher>
        <cc:Agent>
          <dc:title>m0dw3rks.com</dc:title>
        </cc:Agent>
      </dc:publisher>
    </cc:Work>
  </rdf:RDF>
</metadata>
<metadata
   id="metadata15">
  <rdf:RDF>
    <cc:Work
       rdf:about="">
      <dc:creator>
        <cc:Agent>
          <dc:title>Jess Tipton</dc:title>
        </cc:Agent>
      </dc:creator>
      <cc:license
         rdf:resource="https://creativecommons.org/licenses/by-nc-nd/4.0/deed.en" />
      <dc:publisher>
        <cc:Agent>
          <dc:title>m0dw3rks.com</dc:title>
        </cc:Agent>
      </dc:publisher>
    </cc:Work>
  </rdf:RDF>
</metadata>
<metadata
   id="metadata16">
  <rdf:RDF>
    <cc:Work
       rdf:about="">
      <dc:creator>
        <cc:Agent>
          <dc:title>Jess Tipton</dc:title>
        </cc:Agent>
      </dc:creator>
      <cc:license
         rdf:resource="https://creativecommons.org/licenses/by-nc-nd/4.0/deed.en" />
      <dc:publisher>
        <cc:Agent>
          <dc:title>m0dw3rks.com</dc:title>
        </cc:Agent>
      </dc:publisher>
    </cc:Work>
  </rdf:RDF>
</metadata>
<metadata
   id="metadata17">
  <rdf:RDF>
    <cc:Work
       rdf:about="">
      <dc:creator>
        <cc:Agent>
          <dc:title>Jess Tipton</dc:title>
        </cc:Agent>
      </dc:creator>
      <cc:license
         rdf:resource="https://creativecommons.org/licenses/by-nc-nd/4.0/deed.en" />
      <dc:publisher>
        <cc:Agent>
          <dc:title>m0dw3rks.com</dc:title>
        </cc:Agent>
      </dc:publisher>
    </cc:Work>
  </rdf:RDF>
</metadata>
<metadata
   id="metadata18">
  <rdf:RDF>
    <cc:Work
       rdf:about="">
      <dc:creator>
        <cc:Agent>
          <dc:title>Jess Tipton</dc:title>
        </cc:Agent>
      </dc:creator>
      <cc:license
         rdf:resource="https://creativecommons.org/licenses/by-nc-nd/4.0/deed.en" />
      <dc:publisher>
        <cc:Agent>
          <dc:title>m0dw3rks.com</dc:title>
        </cc:Agent>
      </dc:publisher>
    </cc:Work>
  </rdf:RDF>
</metadata>
</svg>
