<?xml version="1.0" encoding="UTF-8" standalone="no"?>
<!-- Created with Inkscape (http://www.inkscape.org/) -->

<svg
   width="512"
   height="512"
   viewBox="0 0 135.46666 135.46667"
   version="1.1"
   id="svg5"
   inkscape:version="1.3 (0e150ed6c4, 2023-07-21)"
   sodipodi:docname="tor.svg"
   xmlns:inkscape="http://www.inkscape.org/namespaces/inkscape"
   xmlns:sodipodi="http://sodipodi.sourceforge.net/DTD/sodipodi-0.dtd"
   xmlns:xlink="http://www.w3.org/1999/xlink"
   xmlns="http://www.w3.org/2000/svg"
   xmlns:svg="http://www.w3.org/2000/svg">
  <sodipodi:namedview
     id="namedview7"
     pagecolor="#292929"
     bordercolor="#666666"
     borderopacity="1"
     inkscape:showpageshadow="0"
     inkscape:pageopacity="0"
     inkscape:pagecheckerboard="1"
     inkscape:deskcolor="#1a1a1a"
     inkscape:document-units="px"
     showgrid="false"
     inkscape:zoom="1.7705291"
     inkscape:cx="176.78332"
     inkscape:cy="109.57177"
     inkscape:window-width="3256"
     inkscape:window-height="1080"
     inkscape:window-x="1864"
     inkscape:window-y="0"
     inkscape:window-maximized="0"
     inkscape:current-layer="layer1" />
  <defs
     id="defs2">
    <linearGradient
       id="linearGradient38"
       inkscape:collect="always">
      <stop
         style="stop-color:#000000;stop-opacity:1;"
         offset="0"
         id="stop38" />
      <stop
         style="stop-color:#711169;stop-opacity:0;"
         offset="1"
         id="stop39" />
    </linearGradient>
    <linearGradient
       id="linearGradient34"
       inkscape:collect="always">
      <stop
         style="stop-color:#f4d7ee;stop-opacity:1;"
         offset="0"
         id="stop34" />
      <stop
         style="stop-color:#f4d7ee;stop-opacity:0;"
         offset="1"
         id="stop35" />
    </linearGradient>
    <linearGradient
       id="linearGradient20"
       inkscape:collect="always">
      <stop
         style="stop-color:#6d0029;stop-opacity:1;"
         offset="0"
         id="stop20" />
      <stop
         style="stop-color:#6d0029;stop-opacity:0;"
         offset="1"
         id="stop21" />
    </linearGradient>
    <linearGradient
       id="linearGradient17"
       inkscape:collect="always">
      <stop
         style="stop-color:#f4d7ee;stop-opacity:1;"
         offset="0"
         id="stop17" />
      <stop
         style="stop-color:#f4d7ee;stop-opacity:0;"
         offset="1"
         id="stop18" />
    </linearGradient>
    <linearGradient
       id="linearGradient9"
       inkscape:collect="always">
      <stop
         style="stop-color:#711148;stop-opacity:1;"
         offset="0"
         id="stop8" />
      <stop
         style="stop-color:#290017;stop-opacity:1;"
         offset="1"
         id="stop9" />
    </linearGradient>
    <linearGradient
       inkscape:collect="always"
       xlink:href="#linearGradient9"
       id="linearGradient12"
       x1="-165.57649"
       y1="-28.178127"
       x2="-165.57649"
       y2="117.34272"
       gradientUnits="userSpaceOnUse"
       gradientTransform="matrix(0.92363626,0,0,0.92363626,191.82909,26.555506)" />
    <linearGradient
       inkscape:collect="always"
       xlink:href="#linearGradient17"
       id="linearGradient18"
       x1="18.313812"
       y1="4.5441365"
       x2="66.674995"
       y2="52.905319"
       gradientUnits="userSpaceOnUse"
       gradientTransform="matrix(0.99218742,0,0,0.99218742,0.5291696,0.52917281)" />
    <radialGradient
       inkscape:collect="always"
       xlink:href="#linearGradient20"
       id="radialGradient21"
       cx="248.84186"
       cy="83.419968"
       fx="248.84186"
       fy="83.419968"
       r="57.158725"
       gradientTransform="matrix(0.99218742,0,0,1.2855613,-179.16443,-32.08603)"
       gradientUnits="userSpaceOnUse" />
    <radialGradient
       inkscape:collect="always"
       xlink:href="#linearGradient34"
       id="radialGradient35"
       cx="184.24065"
       cy="62.504448"
       fx="184.24065"
       fy="62.504448"
       r="29.06376"
       gradientTransform="matrix(0.90308754,0.41093641,-0.49179165,1.0807777,-86.738994,-104.72637)"
       gradientUnits="userSpaceOnUse" />
    <linearGradient
       inkscape:collect="always"
       xlink:href="#linearGradient38"
       id="linearGradient39"
       x1="241.96791"
       y1="165.05865"
       x2="241.96791"
       y2="95.617477"
       gradientUnits="userSpaceOnUse" />
    <clipPath
       clipPathUnits="userSpaceOnUse"
       id="clipPath39">
      <path
         id="path39"
         style="color:#000000;display:inline;fill:#711169;stroke-width:0.999998;stroke-linecap:round;stroke-linejoin:round;-inkscape-stroke:none;paint-order:markers stroke fill"
         d="m 241.96662,28.953272 c -3.44235,0 -6.03378,0.89713 -8.00984,2.439127 -1.97606,1.541995 -3.30869,3.610909 -4.65605,5.869408 -2.69472,4.517001 -5.45023,9.932596 -12.7832,14.948959 -13.12729,8.980167 -33.15611,25.268515 -33.15611,49.396464 0,34.88891 23.57976,63.45143 58.6052,63.45143 35.02546,0 58.6078,-28.56252 58.6078,-63.45143 0,-24.127949 -20.03089,-40.416297 -33.1582,-49.396464 -7.33296,-5.016363 -10.08692,-10.431958 -12.78164,-14.948959 -1.34737,-2.258499 -2.67999,-4.327413 -4.65604,-5.869408 -1.97607,-1.541997 -4.56957,-2.439127 -8.01192,-2.439127 z" />
    </clipPath>
    <filter
       inkscape:collect="always"
       style="color-interpolation-filters:sRGB"
       id="filter39"
       x="-0.11029893"
       y="-0.1016828"
       width="1.2205979"
       height="1.2033656">
      <feGaussianBlur
         inkscape:collect="always"
         stdDeviation="2.6861763"
         id="feGaussianBlur39" />
    </filter>
    <linearGradient
       inkscape:collect="always"
       xlink:href="#linearGradient38"
       id="linearGradient1"
       gradientUnits="userSpaceOnUse"
       x1="241.96791"
       y1="165.05865"
       x2="241.96791"
       y2="95.617477" />
  </defs>
  <g
     inkscape:label="Layer 1"
     inkscape:groupmode="layer"
     id="layer1">
    <path
       id="path3"
       style="display:inline;fill:#f4d7ee;stroke:#711169;stroke-width:2.89559;stroke-linecap:round;stroke-linejoin:round;stroke-opacity:1;paint-order:markers stroke fill"
       d="m 68.694566,1.6492409 c -12.720153,0 -9.359292,12.5083191 -24.439385,22.8243571 -12.915952,8.835597 -32.272786,24.687194 -32.272786,47.825545 0,33.975537 22.736631,61.518287 56.712171,61.518287 33.975534,0 56.712164,-27.54275 56.712164,-61.518287 0,-23.138351 -19.35683,-38.989948 -32.272788,-47.825545 C 78.053858,14.15756 81.414709,1.6492409 68.694566,1.6492409 Z" />
    <path
       id="path5"
       style="fill:#f4d7ee;stroke:#711169;stroke-width:2.89559;stroke-linecap:round;stroke-linejoin:round;stroke-opacity:1;paint-order:markers stroke fill"
       d="m 68.694566,4.996748 c -9.911976,0 -7.293078,12.191513 -19.043999,22.246269 -10.064552,8.611813 -25.14806,24.061926 -25.14806,46.614238 0,33.115025 17.717157,59.960175 44.192059,59.960175 26.474911,0 44.192064,-26.84515 44.192064,-59.960175 0,-22.552312 -15.083505,-38.002425 -25.148066,-46.614238 C 75.987652,17.188261 78.606542,4.996748 68.694566,4.996748 Z" />
    <path
       id="path6"
       style="fill:#f4d7ee;stroke:#711169;stroke-width:2.89559;stroke-linecap:round;stroke-linejoin:round;stroke-opacity:1;paint-order:markers stroke fill"
       d="m 68.694557,8.2248702 c -7.002132,0 -5.152059,11.8860048 -13.453286,21.6887998 -7.109922,8.396007 -17.765393,23.458955 -17.765393,45.446127 0,32.285183 12.515961,58.457633 31.218679,58.457633 18.702727,0 31.218693,-26.17245 31.218693,-58.457633 0,-21.987172 -10.655468,-37.05012 -17.765399,-45.446127 C 73.846634,20.110875 75.696696,8.2248702 68.694557,8.2248702 Z" />
    <path
       id="path7"
       style="fill:#f4d7ee;stroke:#711169;stroke-width:2.89558;stroke-linecap:round;stroke-linejoin:round;stroke-opacity:1;paint-order:markers stroke fill"
       d="m 68.69443,11.87883 c -4.264562,0 -3.137796,11.540195 -8.193554,21.057789 -4.33021,8.151737 -10.819792,22.776447 -10.819792,44.123929 0,31.345892 7.622697,56.756882 19.013346,56.756882 11.390658,0 19.013354,-25.41099 19.013354,-56.756882 0,-21.347482 -6.489574,-35.972192 -10.819791,-44.123929 C 71.832243,23.419025 72.959,11.87883 68.69443,11.87883 Z" />
    <path
       id="path8"
       style="fill:#f4d7ee;stroke:#711169;stroke-width:2.89558;stroke-linecap:round;stroke-linejoin:round;stroke-opacity:1;paint-order:markers stroke fill"
       d="m 68.694439,20.038353 c -2.147867,0 -1.580369,10.767983 -4.126718,19.648708 -2.180935,7.606262 -5.449445,21.25236 -5.449445,41.171374 0,29.248385 3.839204,52.958995 9.576163,52.958995 5.736958,0 9.576153,-23.71061 9.576153,-52.958995 0,-19.919014 -3.26851,-33.565112 -5.449428,-41.171374 -2.546356,-8.880725 -1.97886,-19.648708 -4.126725,-19.648708 z" />
    <path
       id="path10"
       style="fill:url(#linearGradient12);stroke:none;stroke-width:2.89559;stroke-linecap:round;stroke-linejoin:round;stroke-opacity:1;paint-order:markers stroke fill"
       d="m 67.733328,0.52916639 c -12.935752,0 -9.517926,12.72032461 -24.853627,23.21121161 -13.134855,8.985352 -32.819764,25.10562 -32.819764,48.636148 0,34.551394 23.12198,62.560974 57.673391,62.560974 0,-32.81079 0,-105.614123 0,-134.40833361 z"
       sodipodi:nodetypes="csscc" />
    <path
       id="path17"
       style="opacity:0.4;fill:url(#linearGradient18);fill-opacity:1;stroke:none;stroke-width:2.89559;stroke-linecap:round;stroke-linejoin:round;stroke-opacity:1;paint-order:markers stroke fill"
       d="M 64.688414,5.1775021 C 56.23272,6.4522802 57.906797,16.207655 46.005432,24.349171 35.077428,31.824828 18.699903,45.236653 18.699903,64.813682 c 0,28.74621 4.447628,-31.154992 33.193858,-31.154992 0,0 -0.75499,-5.789478 1.808841,-10.584809 z"
       sodipodi:nodetypes="cssccc" />
    <path
       id="path18"
       style="display:inline;opacity:0.8;fill:url(#radialGradient21);stroke:none;stroke-width:2.89559;stroke-linecap:round;stroke-linejoin:round;stroke-opacity:1;paint-order:markers stroke fill"
       d="m 67.733323,1.6492411 c 0,19.4438079 0,112.5578689 0,132.1681889 33.975547,0 56.712177,-27.54275 56.712177,-61.518286 0,-23.138351 -19.35683,-38.989948 -32.272795,-47.825545 C 77.092617,14.157561 80.453473,1.6492411 67.733323,1.6492411 Z"
       sodipodi:nodetypes="ccssc" />
    <path
       id="path37"
       style="color:#000000;mix-blend-mode:overlay;fill:url(#linearGradient39);stroke-width:1.00787;stroke-linecap:round;stroke-linejoin:round;-inkscape-stroke:none;paint-order:markers stroke fill;filter:url(#filter39)"
       d="m 241.96662,134.7866 c 0.001,8.27168 0,21.40361 0,30.27206 17.51273,0 32.16467,-7.14063 42.43844,-18.64237 10.27377,-11.50175 16.16935,-27.36461 16.16935,-44.80906 0,-15.187362 -32.26128,33.17937 -58.60779,33.17937 z"
       sodipodi:nodetypes="ccssc"
       clip-path="url(#clipPath39)"
       transform="matrix(0.99218742,0,0,0.99218742,-172.34419,-28.831632)" />
    <path
       id="path34"
       style="display:inline;mix-blend-mode:overlay;fill:url(#radialGradient35);stroke:none;stroke-width:2.89559;stroke-linecap:round;stroke-linejoin:round;stroke-opacity:1;paint-order:markers stroke fill"
       d="m 68.062906,0.26765116 c -12.935752,0 -9.517925,12.72032784 -24.85363,23.21121284 -13.134854,8.985352 -32.819759,25.105622 -32.819759,48.636148 0,34.551388 23.121971,62.560968 57.673389,62.560968 0,-32.81078 0,-105.614115 0,-134.40832884 z"
       sodipodi:nodetypes="csscc"
       sodipodi:insensitive="true" />
    <path
       id="path1"
       style="color:#000000;mix-blend-mode:overlay;fill:url(#linearGradient1);stroke-width:1.00787;stroke-linecap:round;stroke-linejoin:round;-inkscape-stroke:none;paint-order:markers stroke fill;filter:url(#filter39)"
       d="m 241.96662,118.7866 c 0.001,8.27168 0,37.40361 0,46.27206 17.51273,0 32.16467,-7.14063 42.43844,-18.64237 5.13689,-5.75087 9.17922,-12.59203 11.93734,-20.17602 18.12995,-48.846761 -28.63987,-10.30486 -54.37578,-7.45367 z"
       sodipodi:nodetypes="ccssc"
       clip-path="url(#clipPath39)"
       transform="matrix(-0.99218742,0,0,0.99218742,306.54812,-29.951696)" />
  </g>
</svg>
