<?xml version="1.0" encoding="UTF-8" standalone="no"?>
<!-- Created with Inkscape (http://www.inkscape.org/) -->

<svg
   width="512"
   height="512"
   viewBox="0 0 135.46666 135.46667"
   version="1.1"
   id="svg5"
   inkscape:version="1.3.2 (091e20ef0f, 2023-11-25, custom)"
   sodipodi:docname="vscodium.svg"
   xmlns:inkscape="http://www.inkscape.org/namespaces/inkscape"
   xmlns:sodipodi="http://sodipodi.sourceforge.net/DTD/sodipodi-0.dtd"
   xmlns:xlink="http://www.w3.org/1999/xlink"
   xmlns="http://www.w3.org/2000/svg"
   xmlns:svg="http://www.w3.org/2000/svg"
   xmlns:rdf="http://www.w3.org/1999/02/22-rdf-syntax-ns#"
   xmlns:cc="http://creativecommons.org/ns#"
   xmlns:dc="http://purl.org/dc/elements/1.1/">>
  <sodipodi:namedview
     id="namedview7"
     pagecolor="#292929"
     bordercolor="#666666"
     borderopacity="1"
     inkscape:showpageshadow="0"
     inkscape:pageopacity="0"
     inkscape:pagecheckerboard="1"
     inkscape:deskcolor="#1a1a1a"
     inkscape:document-units="px"
     showgrid="false"
     inkscape:zoom="1"
     inkscape:cx="185.5"
     inkscape:cy="235"
     inkscape:window-width="3256"
     inkscape:window-height="1080"
     inkscape:window-x="1864"
     inkscape:window-y="0"
     inkscape:window-maximized="0"
     inkscape:current-layer="layer1"
     showguides="true" />
  <defs
     id="defs2">
    <linearGradient
       id="linearGradient89"
       inkscape:collect="always">
      <stop
         style="stop-color:#ff0000;stop-opacity:1;"
         offset="0"
         id="stop89" />
      <stop
         style="stop-color:#f000ff;stop-opacity:1;"
         offset="0.16"
         id="stop91" />
      <stop
         style="stop-color:#1900f2;stop-opacity:1;"
         offset="0.31999999"
         id="stop92" />
      <stop
         style="stop-color:#00ffd0;stop-opacity:1;"
         offset="0.49000001"
         id="stop93" />
      <stop
         style="stop-color:#4aff00;stop-opacity:1;"
         offset="0.66000003"
         id="stop94" />
      <stop
         style="stop-color:#fffe00;stop-opacity:1;"
         offset="0.82999998"
         id="stop95" />
      <stop
         style="stop-color:#ff8b00;stop-opacity:1;"
         offset="1"
         id="stop96" />
    </linearGradient>
    <linearGradient
       id="linearGradient48"
       inkscape:collect="always">
      <stop
         style="stop-color:#ff7b00;stop-opacity:1;"
         offset="0"
         id="stop47" />
      <stop
         style="stop-color:#ffffff;stop-opacity:0;"
         offset="1"
         id="stop48" />
    </linearGradient>
    <linearGradient
       id="linearGradient46"
       inkscape:collect="always">
      <stop
         style="stop-color:#ffffff;stop-opacity:0;"
         offset="0"
         id="stop45" />
      <stop
         style="stop-color:#31ff00;stop-opacity:1;"
         offset="0.60961312"
         id="stop46" />
    </linearGradient>
    <linearGradient
       id="linearGradient44"
       inkscape:collect="always">
      <stop
         style="stop-color:#ffffff;stop-opacity:0;"
         offset="0"
         id="stop43" />
      <stop
         style="stop-color:#00ecff;stop-opacity:1;"
         offset="0.68465483"
         id="stop44" />
    </linearGradient>
    <linearGradient
       id="linearGradient42"
       inkscape:collect="always">
      <stop
         style="stop-color:#ffff00;stop-opacity:1;"
         offset="0"
         id="stop41" />
      <stop
         style="stop-color:#ffffff;stop-opacity:0;"
         offset="1"
         id="stop42" />
    </linearGradient>
    <linearGradient
       id="linearGradient40"
       inkscape:collect="always">
      <stop
         style="stop-color:#ffffff;stop-opacity:0;"
         offset="0"
         id="stop39" />
      <stop
         style="stop-color:#c600ff;stop-opacity:1;"
         offset="1"
         id="stop40" />
    </linearGradient>
    <linearGradient
       id="linearGradient38"
       inkscape:collect="always">
      <stop
         style="stop-color:#ffffff;stop-opacity:0;"
         offset="0"
         id="stop37" />
      <stop
         style="stop-color:#000bff;stop-opacity:1;"
         offset="1"
         id="stop38" />
    </linearGradient>
    <linearGradient
       id="linearGradient36"
       inkscape:collect="always">
      <stop
         style="stop-color:#ffffff;stop-opacity:0;"
         offset="0"
         id="stop35" />
      <stop
         style="stop-color:#ff0002;stop-opacity:1;"
         offset="1"
         id="stop36" />
    </linearGradient>
    <linearGradient
       id="linearGradient28"
       inkscape:collect="always">
      <stop
         style="stop-color:#30ff00;stop-opacity:1;"
         offset="0"
         id="stop28" />
      <stop
         style="stop-color:#070ed8;stop-opacity:1;"
         offset="0.17"
         id="stop30" />
      <stop
         style="stop-color:#f7ff00;stop-opacity:1;"
         offset="0.34"
         id="stop31" />
      <stop
         style="stop-color:#d000ff;stop-opacity:1;"
         offset="0.50999999"
         id="stop32" />
      <stop
         style="stop-color:#00fffe;stop-opacity:1;"
         offset="0.68000001"
         id="stop33" />
      <stop
         style="stop-color:#ff8800;stop-opacity:1;"
         offset="0.85000002"
         id="stop34" />
      <stop
         style="stop-color:#ff0034;stop-opacity:1;"
         offset="1"
         id="stop29" />
    </linearGradient>
    <linearGradient
       id="linearGradient14"
       inkscape:collect="always">
      <stop
         style="stop-color:#c8ab37;stop-opacity:0;"
         offset="0"
         id="stop14" />
      <stop
         style="stop-color:#ff00b2;stop-opacity:1;"
         offset="1"
         id="stop15" />
    </linearGradient>
    <linearGradient
       id="linearGradient12"
       inkscape:collect="always">
      <stop
         style="stop-color:#c8ab37;stop-opacity:1;"
         offset="0"
         id="stop12" />
      <stop
         style="stop-color:#ff0002;stop-opacity:1;"
         offset="1"
         id="stop13" />
    </linearGradient>
    <linearGradient
       id="linearGradient9"
       inkscape:collect="always">
      <stop
         style="stop-color:#c8ab37;stop-opacity:0;"
         offset="0"
         id="stop9" />
      <stop
         style="stop-color:#000bff;stop-opacity:1;"
         offset="1"
         id="stop10" />
    </linearGradient>
    <linearGradient
       id="linearGradient7"
       inkscape:collect="always">
      <stop
         style="stop-color:#ffff00;stop-opacity:1;"
         offset="0"
         id="stop7" />
      <stop
         style="stop-color:#c8ab37;stop-opacity:0;"
         offset="1"
         id="stop8" />
    </linearGradient>
    <linearGradient
       id="linearGradient5"
       inkscape:collect="always">
      <stop
         style="stop-color:#c8ab37;stop-opacity:0;"
         offset="0"
         id="stop5" />
      <stop
         style="stop-color:#00ecff;stop-opacity:1;"
         offset="1"
         id="stop6" />
    </linearGradient>
    <linearGradient
       id="linearGradient3"
       inkscape:collect="always">
      <stop
         style="stop-color:#c8ab37;stop-opacity:0;"
         offset="0"
         id="stop3" />
      <stop
         style="stop-color:#31ff00;stop-opacity:1;"
         offset="0.65790808"
         id="stop4" />
    </linearGradient>
    <linearGradient
       id="linearGradient1"
       inkscape:collect="always">
      <stop
         style="stop-color:#d400ff;stop-opacity:1;"
         offset="0.32253134"
         id="stop1" />
      <stop
         style="stop-color:#c8ab37;stop-opacity:0;"
         offset="1"
         id="stop2" />
    </linearGradient>
    <linearGradient
       inkscape:collect="always"
       xlink:href="#linearGradient1"
       id="linearGradient2"
       x1="131.62141"
       y1="54.452103"
       x2="184.32474"
       y2="122.7855"
       gradientUnits="userSpaceOnUse"
       gradientTransform="translate(-130.28431,2.995793)" />
    <linearGradient
       inkscape:collect="always"
       xlink:href="#linearGradient3"
       id="linearGradient4"
       x1="176.15207"
       y1="87.167198"
       x2="176.15207"
       y2="6.7737184"
       gradientUnits="userSpaceOnUse"
       gradientTransform="translate(-141.10539,10.285437)" />
    <linearGradient
       inkscape:collect="always"
       xlink:href="#linearGradient5"
       id="linearGradient6"
       x1="189.01434"
       y1="69.498703"
       x2="212.40633"
       y2="57.46907"
       gradientUnits="userSpaceOnUse"
       gradientTransform="translate(-138.94136,-2.995792)" />
    <linearGradient
       inkscape:collect="always"
       xlink:href="#linearGradient7"
       id="linearGradient8"
       x1="213.78893"
       y1="-7.1609564"
       x2="210.52509"
       y2="122.18543"
       gradientUnits="userSpaceOnUse"
       gradientTransform="translate(-145.40002,10.285481)" />
    <linearGradient
       inkscape:collect="always"
       xlink:href="#linearGradient9"
       id="linearGradient10"
       x1="-115.01215"
       y1="37.590351"
       x2="-79.95945"
       y2="15.056234"
       gradientUnits="userSpaceOnUse"
       gradientTransform="translate(197.1334)" />
    <linearGradient
       inkscape:collect="always"
       xlink:href="#linearGradient12"
       id="linearGradient13"
       x1="-197.27275"
       y1="54.09996"
       x2="-170.8829"
       y2="3.0001762"
       gradientUnits="userSpaceOnUse"
       gradientTransform="translate(286.89911,42.648865)" />
    <linearGradient
       inkscape:collect="always"
       xlink:href="#linearGradient14"
       id="linearGradient15"
       x1="124.47609"
       y1="88.315681"
       x2="168.97929"
       y2="88.315681"
       gradientUnits="userSpaceOnUse"
       gradientTransform="translate(-34.84973,0.286827)" />
    <linearGradient
       inkscape:collect="always"
       xlink:href="#linearGradient36"
       id="linearGradient21"
       gradientUnits="userSpaceOnUse"
       gradientTransform="translate(286.89911,42.648824)"
       x1="-197.27275"
       y1="54.09996"
       x2="-170.8829"
       y2="3.0001762" />
    <linearGradient
       inkscape:collect="always"
       xlink:href="#linearGradient44"
       id="linearGradient22"
       gradientUnits="userSpaceOnUse"
       gradientTransform="translate(-138.94136,-2.995833)"
       x1="180.44347"
       y1="71.162277"
       x2="212.40633"
       y2="57.46907" />
    <linearGradient
       inkscape:collect="always"
       xlink:href="#linearGradient40"
       id="linearGradient23"
       gradientUnits="userSpaceOnUse"
       gradientTransform="translate(-34.84973,0.286786)"
       x1="120.18653"
       y1="100.63728"
       x2="168.97929"
       y2="88.315681" />
    <linearGradient
       inkscape:collect="always"
       xlink:href="#linearGradient38"
       id="linearGradient24"
       gradientUnits="userSpaceOnUse"
       gradientTransform="translate(197.1334,-4.1e-5)"
       x1="-115.01215"
       y1="37.590351"
       x2="-79.95945"
       y2="15.056234" />
    <linearGradient
       inkscape:collect="always"
       xlink:href="#linearGradient46"
       id="linearGradient25"
       gradientUnits="userSpaceOnUse"
       gradientTransform="translate(-141.10539,10.285396)"
       x1="176.89905"
       y1="92.024185"
       x2="167.78659"
       y2="6.8357491" />
    <linearGradient
       inkscape:collect="always"
       xlink:href="#linearGradient48"
       id="linearGradient26"
       gradientUnits="userSpaceOnUse"
       gradientTransform="translate(-130.28431,2.9957517)"
       x1="131.62141"
       y1="54.452103"
       x2="184.32474"
       y2="122.7855" />
    <linearGradient
       inkscape:collect="always"
       xlink:href="#linearGradient42"
       id="linearGradient27"
       gradientUnits="userSpaceOnUse"
       gradientTransform="translate(-145.40002,10.28544)"
       x1="213.78893"
       y1="-7.1609564"
       x2="210.52509"
       y2="122.18543" />
    <radialGradient
       inkscape:collect="always"
       xlink:href="#linearGradient28"
       id="radialGradient29"
       cx="67.73333"
       cy="67.73333"
       fx="67.73333"
       fy="67.73333"
       r="66.39624"
       gradientTransform="matrix(1,0,0,0.97501814,0,1.6921046)"
       gradientUnits="userSpaceOnUse" />
    <clipPath
       clipPathUnits="userSpaceOnUse"
       id="clipPath52">
      <path
         style="color:#000000;fill:#ffffff;stroke-width:0.999998;-inkscape-stroke:none"
         d="m -89.646576,-3.7341913 c -3.791318,2.4334759 -4.883563,7.4730816 -2.440125,11.2511095 13.422338,20.8024698 16.592838,36.4922828 15.218396,50.2399718 -5.557499,26.330071 -17.635273,31.675117 -28.189225,31.675117 -10.30494,0 -7.54612,-16.971301 0.19913,-21.937868 4.62462,-2.888314 10.547317,-4.767371 15.092245,-4.767371 4.5051,0 8.156977,-3.641926 8.156977,-8.137065 0,-4.495128 -3.651877,-8.137051 -8.156977,-8.137051 -5.308515,0 -10.517425,1.118748 -15.377755,3.017782 0.99265,-4.69101 1.36116,-9.757167 0.0766,-15.145359 -1.94878,-8.180216 -7.56272,-15.991933 -17.30661,-23.564618 -1.70642,-1.3312778 -3.87099,-1.9255346 -6.01897,-1.6599387 -2.14797,0.2656329 -4.10006,1.3711177 -5.42803,3.0742197 -2.76547,3.54896 -2.12473,8.661606 1.43088,11.420443 7.93787,6.168353 10.56058,10.736533 11.45696,14.494648 0.8964,3.761444 0.17265,7.791791 -1.62675,13.332701 -2.30069,7.469756 -4.97321,14.136113 -6.14513,20.526909 -0.57431,3.147261 -0.62412,6.573398 -0.77356,9.30897 -5.71685,-5.577414 -7.95446,-12.937617 -7.95446,-23.694075 0,-4.495141 -3.65189,-8.137067 -8.15699,-8.137067 -4.49846,0.0033 -8.14703,3.645252 -8.14703,8.137067 0,14.690529 4.29262,28.670604 15.79938,37.99618 10.41784,9.929816 36.90394,6.261336 36.90394,22.200146 0,4.49845 6.580029,6.68958 11.085132,6.68958 4.617969,0 10.431111,-3.09083 10.431111,-6.68958 0,-18.086796 19.049552,-29.078953 50.409268,-29.032471 4.505099,0.0066 8.156979,-3.631962 8.163629,-8.127098 0.01,-4.495154 -3.63529,-8.143708 -8.140388,-8.150346 -2.14466,-0.0033 -4.23286,0.07027 -6.29452,0.192606 3.505809,-8.25327 5.059519,-17.3365 4.74081,-27.146779 -0.14944,-4.491815 -3.917472,-8.014224 -8.419251,-7.868158 -4.5051,0.146058 -8.03415,3.910835 -7.888071,8.405974 0.42499,12.848 -0.0565,24.31823 -9.621054,30.363747 -2.718985,1.719728 -5.882846,3.210338 -8.880713,3.210338 2.327246,-6.334353 4.086789,-13.023935 4.807212,-20.231423 0.458113,-4.601379 0.507926,-10.065922 -0.01624,-14.312066 -0.813337,-6.576716 -1.796066,-14.036511 0.697148,-19.653772 2.244256,-4.840413 7.263937,-6.868864 14.640737,-6.868864 4.498451,-0.0033 8.14701,-3.645251 8.14701,-8.133739 0.003,-4.4951398 -3.645228,-8.1437027 -8.14701,-8.1470267 -10.958976,0 -19.265344,5.7732909 -23.976277,12.7450687 -2.460038,-5.2620247 -5.457904,-10.6867307 -9.08323,-16.2973544 -1.168559,-1.8159809 -3.011144,-3.0908201 -5.125921,-3.548971 -1.045718,-0.225733 -2.124726,-0.2456839 -3.180461,-0.05647 -1.055757,0.1892181 -2.061652,0.5843431 -2.961341,1.1619111 z"
         id="path52" />
    </clipPath>
    <filter
       inkscape:collect="always"
       style="color-interpolation-filters:sRGB"
       id="filter52"
       x="-0.017065916"
       y="-0.017499524"
       width="1.0341318"
       height="1.034999">
      <feGaussianBlur
         inkscape:collect="always"
         stdDeviation="0.95177905"
         id="feGaussianBlur52" />
    </filter>
    <filter
       inkscape:collect="always"
       style="color-interpolation-filters:sRGB"
       id="filter24"
       x="-0.36396834"
       y="-0.53131071"
       width="1.7279367"
       height="2.0626214">
      <feGaussianBlur
         inkscape:collect="always"
         stdDeviation="4.7524089"
         id="feGaussianBlur24" />
    </filter>
    <filter
       inkscape:collect="always"
       style="color-interpolation-filters:sRGB"
       id="filter28"
       x="-0.51177522"
       y="-0.18940063"
       width="2.0235504"
       height="1.3788013">
      <feGaussianBlur
         inkscape:collect="always"
         stdDeviation="4.1005688"
         id="feGaussianBlur28" />
    </filter>
    <filter
       inkscape:collect="always"
       style="color-interpolation-filters:sRGB"
       id="filter29"
       x="-0.30848414"
       y="-0.25049232"
       width="1.6169683"
       height="1.5009846">
      <feGaussianBlur
         inkscape:collect="always"
         stdDeviation="4.6345147"
         id="feGaussianBlur29" />
    </filter>
    <filter
       inkscape:collect="always"
       style="color-interpolation-filters:sRGB"
       id="filter30"
       x="-0.13872766"
       y="-0.12351484"
       width="1.2774553"
       height="1.2470297">
      <feGaussianBlur
         inkscape:collect="always"
         stdDeviation="3.2430833"
         id="feGaussianBlur30" />
    </filter>
    <filter
       inkscape:collect="always"
       style="color-interpolation-filters:sRGB"
       id="filter56"
       x="-0.21546081"
       y="-0.17314665"
       width="1.4309216"
       height="1.3462933">
      <feGaussianBlur
         inkscape:collect="always"
         stdDeviation="3.5830244"
         id="feGaussianBlur56" />
    </filter>
    <filter
       inkscape:collect="always"
       style="color-interpolation-filters:sRGB"
       id="filter57"
       x="-0.23577317"
       y="-0.070041971"
       width="1.4715463"
       height="1.1400839">
      <feGaussianBlur
         inkscape:collect="always"
         stdDeviation="3.1165326"
         id="feGaussianBlur57" />
    </filter>
    <filter
       inkscape:collect="always"
       style="color-interpolation-filters:sRGB"
       id="filter58"
       x="-0.32034955"
       y="-2.071282"
       width="1.6406991"
       height="5.1425641">
      <feGaussianBlur
         inkscape:collect="always"
         stdDeviation="3.3112116"
         id="feGaussianBlur58" />
    </filter>
    <clipPath
       clipPathUnits="userSpaceOnUse"
       id="clipPath68">
      <path
         style="display:inline;fill:#ab7363;fill-opacity:1;stroke-width:0.264583"
         d="M 65.427563,4.2864352 C 61.636245,6.7199115 60.544,11.759517 62.987438,15.537545 c 13.422339,20.80247 16.592838,36.49228 15.218394,50.239969 -5.557496,26.330074 -17.63527,31.675117 -28.189222,31.675117 -10.304943,0 -7.546122,-16.971298 0.199131,-21.937866 4.624618,-2.888313 10.547316,-4.767373 15.092243,-4.767373 4.5051,0 8.156977,-3.641924 8.156977,-8.137062 0,-4.495128 -3.651877,-8.137054 -8.156977,-8.137054 -5.308515,0 -10.517425,1.118748 -15.377752,3.017782 0.992645,-4.691007 1.361154,-9.757164 0.07655,-15.145356 -1.948783,-8.180218 -7.56272,-15.991933 -17.30661,-23.564618 -1.706427,-1.331278 -3.870994,-1.925535 -6.018974,-1.659939 -2.147967,0.265633 -4.100064,1.371118 -5.428031,3.07422 -2.765473,3.54896 -2.124727,8.661606 1.430883,11.420443 7.93787,6.168353 10.560577,10.736532 11.456953,14.494648 0.896406,3.761443 0.172657,7.791791 -1.626748,13.3327 -2.300684,7.469754 -4.973206,14.136111 -6.145129,20.526909 -0.574305,3.147261 -0.624118,6.573399 -0.773562,9.308971 -5.716851,-5.577417 -7.954458,-12.93762 -7.954458,-23.694078 0,-4.495138 -3.651888,-8.137064 -8.1569909,-8.137064 -4.4984611,0.0033 -8.1470242,3.645252 -8.1470242,8.137064 0,14.690529 4.2926205,28.670607 15.7993771,37.996182 10.417836,9.92982 36.903943,6.26134 36.903943,22.20015 0,4.49845 6.580028,6.68958 11.085131,6.68958 4.617969,0 10.43111,-3.09083 10.43111,-6.68958 0,-18.0868 19.049553,-29.078959 50.409268,-29.032474 4.5051,0.0066 8.15698,-3.631962 8.16363,-8.127098 0.01,-4.495154 -3.63529,-8.143711 -8.14039,-8.150349 -2.14466,-0.0033 -4.23286,0.07027 -6.29452,0.192606 3.50581,-8.253267 5.05952,-17.3365 4.74081,-27.146776 -0.14944,-4.491816 -3.91747,-8.014224 -8.41925,-7.868158 -4.5051,0.146058 -8.03415,3.910835 -7.88807,8.405974 0.42499,12.847997 -0.0565,24.318229 -9.621054,30.363747 -2.718985,1.719725 -5.882846,3.210335 -8.880713,3.210335 2.327246,-6.33435 4.086789,-13.023932 4.807212,-20.23142 0.458113,-4.601379 0.507926,-10.065925 -0.01624,-14.312067 -0.813337,-6.576718 -1.796066,-14.03651 0.697148,-19.653773 2.244256,-4.840412 7.263937,-6.868861 14.640737,-6.868861 4.49845,-0.0033 8.14701,-3.645252 8.14701,-8.13374 0.003,-4.49514 -3.64522,-8.143703 -8.14701,-8.147027 -10.958976,0 -19.265344,5.773291 -23.976277,12.745069 C 83.318905,17.765253 80.321038,12.340547 76.695712,6.7299231 75.527153,4.9139427 73.684568,3.6391029 71.569791,3.180952 70.524073,2.9552193 69.445065,2.9352681 68.38933,3.1244807 67.333574,3.3136982 66.327678,3.7088236 65.427989,4.286391 Z"
         id="path69"
         inkscape:label="rainbow-swirl" />
    </clipPath>
    <filter
       inkscape:collect="always"
       style="color-interpolation-filters:sRGB"
       id="filter69"
       x="-0.19902726"
       y="-0.18545206"
       width="1.3980545"
       height="1.3709041">
      <feGaussianBlur
         inkscape:collect="always"
         stdDeviation="5.2802371"
         id="feGaussianBlur69" />
    </filter>
    <clipPath
       clipPathUnits="userSpaceOnUse"
       id="clipPath69">
      <path
         style="display:inline;fill:#ab7363;fill-opacity:1;stroke-width:0.264583"
         d="M 65.427563,4.2864352 C 61.636245,6.7199115 60.544,11.759517 62.987438,15.537545 c 13.422339,20.80247 16.592838,36.49228 15.218394,50.239969 -5.557496,26.330074 -17.63527,31.675117 -28.189222,31.675117 -10.304943,0 -7.546122,-16.971298 0.199131,-21.937866 4.624618,-2.888313 10.547316,-4.767373 15.092243,-4.767373 4.5051,0 8.156977,-3.641924 8.156977,-8.137062 0,-4.495128 -3.651877,-8.137054 -8.156977,-8.137054 -5.308515,0 -10.517425,1.118748 -15.377752,3.017782 0.992645,-4.691007 1.361154,-9.757164 0.07655,-15.145356 -1.948783,-8.180218 -7.56272,-15.991933 -17.30661,-23.564618 -1.706427,-1.331278 -3.870994,-1.925535 -6.018974,-1.659939 -2.147967,0.265633 -4.100064,1.371118 -5.428031,3.07422 -2.765473,3.54896 -2.124727,8.661606 1.430883,11.420443 7.93787,6.168353 10.560577,10.736532 11.456953,14.494648 0.896406,3.761443 0.172657,7.791791 -1.626748,13.3327 -2.300684,7.469754 -4.973206,14.136111 -6.145129,20.526909 -0.574305,3.147261 -0.624118,6.573399 -0.773562,9.308971 -5.716851,-5.577417 -7.954458,-12.93762 -7.954458,-23.694078 0,-4.495138 -3.651888,-8.137064 -8.1569909,-8.137064 -4.4984611,0.0033 -8.1470242,3.645252 -8.1470242,8.137064 0,14.690529 4.2926205,28.670607 15.7993771,37.996182 10.417836,9.92982 36.903943,6.26134 36.903943,22.20015 0,4.49845 6.580028,6.68958 11.085131,6.68958 4.617969,0 10.43111,-3.09083 10.43111,-6.68958 0,-18.0868 19.049553,-29.078959 50.409268,-29.032474 4.5051,0.0066 8.15698,-3.631962 8.16363,-8.127098 0.01,-4.495154 -3.63529,-8.143711 -8.14039,-8.150349 -2.14466,-0.0033 -4.23286,0.07027 -6.29452,0.192606 3.50581,-8.253267 5.05952,-17.3365 4.74081,-27.146776 -0.14944,-4.491816 -3.91747,-8.014224 -8.41925,-7.868158 -4.5051,0.146058 -8.03415,3.910835 -7.88807,8.405974 0.42499,12.847997 -0.0565,24.318229 -9.621054,30.363747 -2.718985,1.719725 -5.882846,3.210335 -8.880713,3.210335 2.327246,-6.33435 4.086789,-13.023932 4.807212,-20.23142 0.458113,-4.601379 0.507926,-10.065925 -0.01624,-14.312067 -0.813337,-6.576718 -1.796066,-14.03651 0.697148,-19.653773 2.244256,-4.840412 7.263937,-6.868861 14.640737,-6.868861 4.49845,-0.0033 8.14701,-3.645252 8.14701,-8.13374 0.003,-4.49514 -3.64522,-8.143703 -8.14701,-8.147027 -10.958976,0 -19.265344,5.773291 -23.976277,12.745069 C 83.318905,17.765253 80.321038,12.340547 76.695712,6.7299231 75.527153,4.9139427 73.684568,3.6391029 71.569791,3.180952 70.524073,2.9552193 69.445065,2.9352681 68.38933,3.1244807 67.333574,3.3136982 66.327678,3.7088236 65.427989,4.286391 Z"
         id="path70"
         inkscape:label="rainbow-swirl" />
    </clipPath>
    <filter
       inkscape:collect="always"
       style="color-interpolation-filters:sRGB"
       id="filter70"
       x="-0.35765366"
       y="-0.13122213"
       width="1.7153073"
       height="1.2624443">
      <feGaussianBlur
         inkscape:collect="always"
         stdDeviation="4.6642458"
         id="feGaussianBlur70" />
    </filter>
    <clipPath
       clipPathUnits="userSpaceOnUse"
       id="clipPath70">
      <path
         style="display:inline;fill:#ab7363;fill-opacity:1;stroke-width:0.264583"
         d="M 65.427563,4.2864352 C 61.636245,6.7199115 60.544,11.759517 62.987438,15.537545 c 13.422339,20.80247 16.592838,36.49228 15.218394,50.239969 -5.557496,26.330074 -17.63527,31.675117 -28.189222,31.675117 -10.304943,0 -7.546122,-16.971298 0.199131,-21.937866 4.624618,-2.888313 10.547316,-4.767373 15.092243,-4.767373 4.5051,0 8.156977,-3.641924 8.156977,-8.137062 0,-4.495128 -3.651877,-8.137054 -8.156977,-8.137054 -5.308515,0 -10.517425,1.118748 -15.377752,3.017782 0.992645,-4.691007 1.361154,-9.757164 0.07655,-15.145356 -1.948783,-8.180218 -7.56272,-15.991933 -17.30661,-23.564618 -1.706427,-1.331278 -3.870994,-1.925535 -6.018974,-1.659939 -2.147967,0.265633 -4.100064,1.371118 -5.428031,3.07422 -2.765473,3.54896 -2.124727,8.661606 1.430883,11.420443 7.93787,6.168353 10.560577,10.736532 11.456953,14.494648 0.896406,3.761443 0.172657,7.791791 -1.626748,13.3327 -2.300684,7.469754 -4.973206,14.136111 -6.145129,20.526909 -0.574305,3.147261 -0.624118,6.573399 -0.773562,9.308971 -5.716851,-5.577417 -7.954458,-12.93762 -7.954458,-23.694078 0,-4.495138 -3.651888,-8.137064 -8.1569909,-8.137064 -4.4984611,0.0033 -8.1470242,3.645252 -8.1470242,8.137064 0,14.690529 4.2926205,28.670607 15.7993771,37.996182 10.417836,9.92982 36.903943,6.26134 36.903943,22.20015 0,4.49845 6.580028,6.68958 11.085131,6.68958 4.617969,0 10.43111,-3.09083 10.43111,-6.68958 0,-18.0868 19.049553,-29.078959 50.409268,-29.032474 4.5051,0.0066 8.15698,-3.631962 8.16363,-8.127098 0.01,-4.495154 -3.63529,-8.143711 -8.14039,-8.150349 -2.14466,-0.0033 -4.23286,0.07027 -6.29452,0.192606 3.50581,-8.253267 5.05952,-17.3365 4.74081,-27.146776 -0.14944,-4.491816 -3.91747,-8.014224 -8.41925,-7.868158 -4.5051,0.146058 -8.03415,3.910835 -7.88807,8.405974 0.42499,12.847997 -0.0565,24.318229 -9.621054,30.363747 -2.718985,1.719725 -5.882846,3.210335 -8.880713,3.210335 2.327246,-6.33435 4.086789,-13.023932 4.807212,-20.23142 0.458113,-4.601379 0.507926,-10.065925 -0.01624,-14.312067 -0.813337,-6.576718 -1.796066,-14.03651 0.697148,-19.653773 2.244256,-4.840412 7.263937,-6.868861 14.640737,-6.868861 4.49845,-0.0033 8.14701,-3.645252 8.14701,-8.13374 0.003,-4.49514 -3.64522,-8.143703 -8.14701,-8.147027 -10.958976,0 -19.265344,5.773291 -23.976277,12.745069 C 83.318905,17.765253 80.321038,12.340547 76.695712,6.7299231 75.527153,4.9139427 73.684568,3.6391029 71.569791,3.180952 70.524073,2.9552193 69.445065,2.9352681 68.38933,3.1244807 67.333574,3.3136982 66.327678,3.7088236 65.427989,4.286391 Z"
         id="path71"
         inkscape:label="rainbow-swirl" />
    </clipPath>
    <filter
       inkscape:collect="always"
       style="color-interpolation-filters:sRGB"
       id="filter71"
       x="-0.17427793"
       y="-0.21373433"
       width="1.3485559"
       height="1.4274687">
      <feGaussianBlur
         inkscape:collect="always"
         stdDeviation="2.630636"
         id="feGaussianBlur71" />
    </filter>
    <clipPath
       clipPathUnits="userSpaceOnUse"
       id="clipPath71">
      <path
         style="display:inline;fill:#ab7363;fill-opacity:1;stroke-width:0.264583"
         d="M 65.427563,4.2864352 C 61.636245,6.7199115 60.544,11.759517 62.987438,15.537545 c 13.422339,20.80247 16.592838,36.49228 15.218394,50.239969 -5.557496,26.330074 -17.63527,31.675117 -28.189222,31.675117 -10.304943,0 -7.546122,-16.971298 0.199131,-21.937866 4.624618,-2.888313 10.547316,-4.767373 15.092243,-4.767373 4.5051,0 8.156977,-3.641924 8.156977,-8.137062 0,-4.495128 -3.651877,-8.137054 -8.156977,-8.137054 -5.308515,0 -10.517425,1.118748 -15.377752,3.017782 0.992645,-4.691007 1.361154,-9.757164 0.07655,-15.145356 -1.948783,-8.180218 -7.56272,-15.991933 -17.30661,-23.564618 -1.706427,-1.331278 -3.870994,-1.925535 -6.018974,-1.659939 -2.147967,0.265633 -4.100064,1.371118 -5.428031,3.07422 -2.765473,3.54896 -2.124727,8.661606 1.430883,11.420443 7.93787,6.168353 10.560577,10.736532 11.456953,14.494648 0.896406,3.761443 0.172657,7.791791 -1.626748,13.3327 -2.300684,7.469754 -4.973206,14.136111 -6.145129,20.526909 -0.574305,3.147261 -0.624118,6.573399 -0.773562,9.308971 -5.716851,-5.577417 -7.954458,-12.93762 -7.954458,-23.694078 0,-4.495138 -3.651888,-8.137064 -8.1569909,-8.137064 -4.4984611,0.0033 -8.1470242,3.645252 -8.1470242,8.137064 0,14.690529 4.2926205,28.670607 15.7993771,37.996182 10.417836,9.92982 36.903943,6.26134 36.903943,22.20015 0,4.49845 6.580028,6.68958 11.085131,6.68958 4.617969,0 10.43111,-3.09083 10.43111,-6.68958 0,-18.0868 19.049553,-29.078959 50.409268,-29.032474 4.5051,0.0066 8.15698,-3.631962 8.16363,-8.127098 0.01,-4.495154 -3.63529,-8.143711 -8.14039,-8.150349 -2.14466,-0.0033 -4.23286,0.07027 -6.29452,0.192606 3.50581,-8.253267 5.05952,-17.3365 4.74081,-27.146776 -0.14944,-4.491816 -3.91747,-8.014224 -8.41925,-7.868158 -4.5051,0.146058 -8.03415,3.910835 -7.88807,8.405974 0.42499,12.847997 -0.0565,24.318229 -9.621054,30.363747 -2.718985,1.719725 -5.882846,3.210335 -8.880713,3.210335 2.327246,-6.33435 4.086789,-13.023932 4.807212,-20.23142 0.458113,-4.601379 0.507926,-10.065925 -0.01624,-14.312067 -0.813337,-6.576718 -1.796066,-14.03651 0.697148,-19.653773 2.244256,-4.840412 7.263937,-6.868861 14.640737,-6.868861 4.49845,-0.0033 8.14701,-3.645252 8.14701,-8.13374 0.003,-4.49514 -3.64522,-8.143703 -8.14701,-8.147027 -10.958976,0 -19.265344,5.773291 -23.976277,12.745069 C 83.318905,17.765253 80.321038,12.340547 76.695712,6.7299231 75.527153,4.9139427 73.684568,3.6391029 71.569791,3.180952 70.524073,2.9552193 69.445065,2.9352681 68.38933,3.1244807 67.333574,3.3136982 66.327678,3.7088236 65.427989,4.286391 Z"
         id="path72"
         inkscape:label="rainbow-swirl" />
    </clipPath>
    <filter
       inkscape:collect="always"
       style="color-interpolation-filters:sRGB"
       id="filter72"
       x="-0.13624107"
       y="-0.32501973"
       width="1.2724821"
       height="1.6500395">
      <feGaussianBlur
         inkscape:collect="always"
         stdDeviation="2.7698247"
         id="feGaussianBlur72" />
    </filter>
    <clipPath
       clipPathUnits="userSpaceOnUse"
       id="clipPath72">
      <path
         style="display:inline;fill:#ab7363;fill-opacity:1;stroke-width:0.264583"
         d="M 65.427563,4.2864352 C 61.636245,6.7199115 60.544,11.759517 62.987438,15.537545 c 13.422339,20.80247 16.592838,36.49228 15.218394,50.239969 -5.557496,26.330074 -17.63527,31.675117 -28.189222,31.675117 -10.304943,0 -7.546122,-16.971298 0.199131,-21.937866 4.624618,-2.888313 10.547316,-4.767373 15.092243,-4.767373 4.5051,0 8.156977,-3.641924 8.156977,-8.137062 0,-4.495128 -3.651877,-8.137054 -8.156977,-8.137054 -5.308515,0 -10.517425,1.118748 -15.377752,3.017782 0.992645,-4.691007 1.361154,-9.757164 0.07655,-15.145356 -1.948783,-8.180218 -7.56272,-15.991933 -17.30661,-23.564618 -1.706427,-1.331278 -3.870994,-1.925535 -6.018974,-1.659939 -2.147967,0.265633 -4.100064,1.371118 -5.428031,3.07422 -2.765473,3.54896 -2.124727,8.661606 1.430883,11.420443 7.93787,6.168353 10.560577,10.736532 11.456953,14.494648 0.896406,3.761443 0.172657,7.791791 -1.626748,13.3327 -2.300684,7.469754 -4.973206,14.136111 -6.145129,20.526909 -0.574305,3.147261 -0.624118,6.573399 -0.773562,9.308971 -5.716851,-5.577417 -7.954458,-12.93762 -7.954458,-23.694078 0,-4.495138 -3.651888,-8.137064 -8.1569909,-8.137064 -4.4984611,0.0033 -8.1470242,3.645252 -8.1470242,8.137064 0,14.690529 4.2926205,28.670607 15.7993771,37.996182 10.417836,9.92982 36.903943,6.26134 36.903943,22.20015 0,4.49845 6.580028,6.68958 11.085131,6.68958 4.617969,0 10.43111,-3.09083 10.43111,-6.68958 0,-18.0868 19.049553,-29.078959 50.409268,-29.032474 4.5051,0.0066 8.15698,-3.631962 8.16363,-8.127098 0.01,-4.495154 -3.63529,-8.143711 -8.14039,-8.150349 -2.14466,-0.0033 -4.23286,0.07027 -6.29452,0.192606 3.50581,-8.253267 5.05952,-17.3365 4.74081,-27.146776 -0.14944,-4.491816 -3.91747,-8.014224 -8.41925,-7.868158 -4.5051,0.146058 -8.03415,3.910835 -7.88807,8.405974 0.42499,12.847997 -0.0565,24.318229 -9.621054,30.363747 -2.718985,1.719725 -5.882846,3.210335 -8.880713,3.210335 2.327246,-6.33435 4.086789,-13.023932 4.807212,-20.23142 0.458113,-4.601379 0.507926,-10.065925 -0.01624,-14.312067 -0.813337,-6.576718 -1.796066,-14.03651 0.697148,-19.653773 2.244256,-4.840412 7.263937,-6.868861 14.640737,-6.868861 4.49845,-0.0033 8.14701,-3.645252 8.14701,-8.13374 0.003,-4.49514 -3.64522,-8.143703 -8.14701,-8.147027 -10.958976,0 -19.265344,5.773291 -23.976277,12.745069 C 83.318905,17.765253 80.321038,12.340547 76.695712,6.7299231 75.527153,4.9139427 73.684568,3.6391029 71.569791,3.180952 70.524073,2.9552193 69.445065,2.9352681 68.38933,3.1244807 67.333574,3.3136982 66.327678,3.7088236 65.427989,4.286391 Z"
         id="path73"
         inkscape:label="rainbow-swirl" />
    </clipPath>
    <filter
       inkscape:collect="always"
       style="color-interpolation-filters:sRGB"
       id="filter73"
       x="-0.15916916"
       y="-0.24189394"
       width="1.3183383"
       height="1.4837879">
      <feGaussianBlur
         inkscape:collect="always"
         stdDeviation="2.1207536"
         id="feGaussianBlur73" />
    </filter>
    <clipPath
       clipPathUnits="userSpaceOnUse"
       id="clipPath73">
      <path
         style="display:inline;fill:#ab7363;fill-opacity:1;stroke-width:0.264583"
         d="M 65.427563,4.2864352 C 61.636245,6.7199115 60.544,11.759517 62.987438,15.537545 c 13.422339,20.80247 16.592838,36.49228 15.218394,50.239969 -5.557496,26.330074 -17.63527,31.675117 -28.189222,31.675117 -10.304943,0 -7.546122,-16.971298 0.199131,-21.937866 4.624618,-2.888313 10.547316,-4.767373 15.092243,-4.767373 4.5051,0 8.156977,-3.641924 8.156977,-8.137062 0,-4.495128 -3.651877,-8.137054 -8.156977,-8.137054 -5.308515,0 -10.517425,1.118748 -15.377752,3.017782 0.992645,-4.691007 1.361154,-9.757164 0.07655,-15.145356 -1.948783,-8.180218 -7.56272,-15.991933 -17.30661,-23.564618 -1.706427,-1.331278 -3.870994,-1.925535 -6.018974,-1.659939 -2.147967,0.265633 -4.100064,1.371118 -5.428031,3.07422 -2.765473,3.54896 -2.124727,8.661606 1.430883,11.420443 7.93787,6.168353 10.560577,10.736532 11.456953,14.494648 0.896406,3.761443 0.172657,7.791791 -1.626748,13.3327 -2.300684,7.469754 -4.973206,14.136111 -6.145129,20.526909 -0.574305,3.147261 -0.624118,6.573399 -0.773562,9.308971 -5.716851,-5.577417 -7.954458,-12.93762 -7.954458,-23.694078 0,-4.495138 -3.651888,-8.137064 -8.1569909,-8.137064 -4.4984611,0.0033 -8.1470242,3.645252 -8.1470242,8.137064 0,14.690529 4.2926205,28.670607 15.7993771,37.996182 10.417836,9.92982 36.903943,6.26134 36.903943,22.20015 0,4.49845 6.580028,6.68958 11.085131,6.68958 4.617969,0 10.43111,-3.09083 10.43111,-6.68958 0,-18.0868 19.049553,-29.078959 50.409268,-29.032474 4.5051,0.0066 8.15698,-3.631962 8.16363,-8.127098 0.01,-4.495154 -3.63529,-8.143711 -8.14039,-8.150349 -2.14466,-0.0033 -4.23286,0.07027 -6.29452,0.192606 3.50581,-8.253267 5.05952,-17.3365 4.74081,-27.146776 -0.14944,-4.491816 -3.91747,-8.014224 -8.41925,-7.868158 -4.5051,0.146058 -8.03415,3.910835 -7.88807,8.405974 0.42499,12.847997 -0.0565,24.318229 -9.621054,30.363747 -2.718985,1.719725 -5.882846,3.210335 -8.880713,3.210335 2.327246,-6.33435 4.086789,-13.023932 4.807212,-20.23142 0.458113,-4.601379 0.507926,-10.065925 -0.01624,-14.312067 -0.813337,-6.576718 -1.796066,-14.03651 0.697148,-19.653773 2.244256,-4.840412 7.263937,-6.868861 14.640737,-6.868861 4.49845,-0.0033 8.14701,-3.645252 8.14701,-8.13374 0.003,-4.49514 -3.64522,-8.143703 -8.14701,-8.147027 -10.958976,0 -19.265344,5.773291 -23.976277,12.745069 C 83.318905,17.765253 80.321038,12.340547 76.695712,6.7299231 75.527153,4.9139427 73.684568,3.6391029 71.569791,3.180952 70.524073,2.9552193 69.445065,2.9352681 68.38933,3.1244807 67.333574,3.3136982 66.327678,3.7088236 65.427989,4.286391 Z"
         id="path74"
         inkscape:label="rainbow-swirl" />
    </clipPath>
    <filter
       inkscape:collect="always"
       style="color-interpolation-filters:sRGB"
       id="filter74"
       x="-0.23126821"
       y="-0.16413131"
       width="1.4625364"
       height="1.3282626">
      <feGaussianBlur
         inkscape:collect="always"
         stdDeviation="3.4384734"
         id="feGaussianBlur74" />
    </filter>
    <clipPath
       clipPathUnits="userSpaceOnUse"
       id="clipPath74">
      <path
         style="display:inline;fill:#ab7363;fill-opacity:1;stroke-width:0.264583"
         d="M 65.427563,4.2864352 C 61.636245,6.7199115 60.544,11.759517 62.987438,15.537545 c 13.422339,20.80247 16.592838,36.49228 15.218394,50.239969 -5.557496,26.330074 -17.63527,31.675117 -28.189222,31.675117 -10.304943,0 -7.546122,-16.971298 0.199131,-21.937866 4.624618,-2.888313 10.547316,-4.767373 15.092243,-4.767373 4.5051,0 8.156977,-3.641924 8.156977,-8.137062 0,-4.495128 -3.651877,-8.137054 -8.156977,-8.137054 -5.308515,0 -10.517425,1.118748 -15.377752,3.017782 0.992645,-4.691007 1.361154,-9.757164 0.07655,-15.145356 -1.948783,-8.180218 -7.56272,-15.991933 -17.30661,-23.564618 -1.706427,-1.331278 -3.870994,-1.925535 -6.018974,-1.659939 -2.147967,0.265633 -4.100064,1.371118 -5.428031,3.07422 -2.765473,3.54896 -2.124727,8.661606 1.430883,11.420443 7.93787,6.168353 10.560577,10.736532 11.456953,14.494648 0.896406,3.761443 0.172657,7.791791 -1.626748,13.3327 -2.300684,7.469754 -4.973206,14.136111 -6.145129,20.526909 -0.574305,3.147261 -0.624118,6.573399 -0.773562,9.308971 -5.716851,-5.577417 -7.954458,-12.93762 -7.954458,-23.694078 0,-4.495138 -3.651888,-8.137064 -8.1569909,-8.137064 -4.4984611,0.0033 -8.1470242,3.645252 -8.1470242,8.137064 0,14.690529 4.2926205,28.670607 15.7993771,37.996182 10.417836,9.92982 36.903943,6.26134 36.903943,22.20015 0,4.49845 6.580028,6.68958 11.085131,6.68958 4.617969,0 10.43111,-3.09083 10.43111,-6.68958 0,-18.0868 19.049553,-29.078959 50.409268,-29.032474 4.5051,0.0066 8.15698,-3.631962 8.16363,-8.127098 0.01,-4.495154 -3.63529,-8.143711 -8.14039,-8.150349 -2.14466,-0.0033 -4.23286,0.07027 -6.29452,0.192606 3.50581,-8.253267 5.05952,-17.3365 4.74081,-27.146776 -0.14944,-4.491816 -3.91747,-8.014224 -8.41925,-7.868158 -4.5051,0.146058 -8.03415,3.910835 -7.88807,8.405974 0.42499,12.847997 -0.0565,24.318229 -9.621054,30.363747 -2.718985,1.719725 -5.882846,3.210335 -8.880713,3.210335 2.327246,-6.33435 4.086789,-13.023932 4.807212,-20.23142 0.458113,-4.601379 0.507926,-10.065925 -0.01624,-14.312067 -0.813337,-6.576718 -1.796066,-14.03651 0.697148,-19.653773 2.244256,-4.840412 7.263937,-6.868861 14.640737,-6.868861 4.49845,-0.0033 8.14701,-3.645252 8.14701,-8.13374 0.003,-4.49514 -3.64522,-8.143703 -8.14701,-8.147027 -10.958976,0 -19.265344,5.773291 -23.976277,12.745069 C 83.318905,17.765253 80.321038,12.340547 76.695712,6.7299231 75.527153,4.9139427 73.684568,3.6391029 71.569791,3.180952 70.524073,2.9552193 69.445065,2.9352681 68.38933,3.1244807 67.333574,3.3136982 66.327678,3.7088236 65.427989,4.286391 Z"
         id="path75"
         inkscape:label="rainbow-swirl" />
    </clipPath>
    <radialGradient
       inkscape:collect="always"
       xlink:href="#linearGradient89"
       id="radialGradient90"
       cx="67.73333"
       cy="67.733331"
       fx="67.73333"
       fy="67.733331"
       r="66.39624"
       gradientTransform="matrix(1,0,0,0.97501814,0,1.6921046)"
       gradientUnits="userSpaceOnUse" />
    <clipPath
       clipPathUnits="userSpaceOnUse"
       id="clipPath38">
      <path
         style="display:inline;mix-blend-mode:normal;fill:#000000;fill-opacity:1;stroke-width:0.264583"
         d="M 65.44366,4.2721921 C 61.65234,6.7056679 60.560089,11.745274 63.00353,15.5233 76.425871,36.325773 79.596368,52.015583 78.221929,65.763271 72.66443,92.09334 60.586659,97.438391 50.0327,97.438391 c -10.304939,0 -7.546121,-16.971306 0.199141,-21.937871 4.62461,-2.888316 10.54731,-4.767373 15.092238,-4.767373 4.5051,0 8.15698,-3.641924 8.15698,-8.137065 0,-4.495123 -3.65188,-8.137049 -8.15698,-8.137049 -5.308518,0 -10.517428,1.118746 -15.37775,3.01778 0.99264,-4.69101 1.361152,-9.757167 0.0765,-15.145353 -1.948791,-8.180219 -7.56272,-15.991935 -17.30661,-23.564619 -1.70643,-1.331278 -3.870997,-1.925537 -6.018977,-1.659941 -2.147972,0.265634 -4.100062,1.371119 -5.428032,3.074221 -2.76547,3.548959 -2.12473,8.661605 1.43088,11.420439 7.937872,6.168353 10.560578,10.736535 11.456957,14.49465 0.896401,3.761441 0.172654,7.791789 -1.626748,13.332701 -2.300687,7.469754 -4.973211,14.136111 -6.145129,20.526909 -0.57431,3.147261 -0.62412,6.573398 -0.77356,9.308971 -5.71685,-5.577414 -7.95446,-12.93762 -7.95446,-23.694078 0,-4.495138 -3.65189,-8.137064 -8.1569901,-8.137064 -4.49846,0.0033 -8.1470299,3.645251 -8.1470299,8.137064 0,14.690529 4.2926303,28.670607 15.79938,37.996187 10.417841,9.92982 36.903942,6.26134 36.903942,22.20015 0,4.49845 6.580026,6.68958 11.085126,6.68958 4.617969,0 10.431121,-3.09083 10.431121,-6.68958 0,-18.0868 19.04955,-29.078959 50.409271,-29.032479 4.5051,0.007 8.15698,-3.63196 8.16363,-8.127101 0.01,-4.495151 -3.6353,-8.143708 -8.1404,-8.150346 -2.14465,-0.0033 -4.23285,0.07027 -6.29451,0.192608 3.50581,-8.253272 5.05952,-17.3365 4.7408,-27.146778 -0.14943,-4.491816 -3.91746,-8.014227 -8.41925,-7.868158 -4.50509,0.146058 -8.03415,3.910832 -7.88806,8.405973 0.42499,12.847998 -0.0565,24.318227 -9.621065,30.363747 -2.71898,1.719729 -5.882841,3.210336 -8.880713,3.210336 2.327251,-6.334353 4.086791,-13.023935 4.807212,-20.23142 0.458118,-4.60138 0.507931,-10.065925 -0.01624,-14.312067 -0.813332,-6.576718 -1.796063,-14.036511 0.697148,-19.653773 2.244259,-4.84041 7.263958,-6.868861 14.640758,-6.868861 4.49843,-0.0033 8.147,-3.645252 8.147,-8.133738 0.003,-4.495141 -3.64522,-8.143703 -8.147,-8.147027 -10.958991,0 -19.265365,5.773291 -23.976295,12.745067 C 83.334952,17.75101 80.337072,12.326304 76.711759,6.71568 75.543189,4.8996991 73.700599,3.6248599 71.58583,3.166709 70.540112,2.940976 69.461099,2.9210251 68.405372,3.110239 67.349613,3.299457 66.343712,3.6945821 65.444023,4.27215 Z"
         id="path38"
         inkscape:label="shape" />
    </clipPath>
    <clipPath
       clipPathUnits="userSpaceOnUse"
       id="clipPath39">
      <path
         style="display:inline;fill:#ab7363;fill-opacity:1;stroke-width:0.264583"
         d="M 65.427563,4.2864352 C 61.636245,6.7199115 60.544,11.759517 62.987438,15.537545 c 13.422339,20.80247 16.592838,36.49228 15.218394,50.239969 -5.557496,26.330074 -17.63527,31.675117 -28.189222,31.675117 -10.304943,0 -7.546122,-16.971298 0.199131,-21.937866 4.624618,-2.888313 10.547316,-4.767373 15.092243,-4.767373 4.5051,0 8.156977,-3.641924 8.156977,-8.137062 0,-4.495128 -3.651877,-8.137054 -8.156977,-8.137054 -5.308515,0 -10.517425,1.118748 -15.377752,3.017782 0.992645,-4.691007 1.361154,-9.757164 0.07655,-15.145356 -1.948783,-8.180218 -7.56272,-15.991933 -17.30661,-23.564618 -1.706427,-1.331278 -3.870994,-1.925535 -6.018974,-1.659939 -2.147966,0.265633 -4.100063,1.371118 -5.42803,3.07422 -2.765473,3.54896 -2.124727,8.661606 1.430883,11.420443 7.937869,6.168353 10.560578,10.736532 11.456952,14.494648 0.896406,3.761443 0.172659,7.791791 -1.626748,13.3327 -2.300682,7.469754 -4.973206,14.136111 -6.145128,20.526909 -0.574305,3.147261 -0.624118,6.573399 -0.773562,9.308971 -5.716851,-5.577417 -7.954458,-12.93762 -7.954458,-23.694078 0,-4.495138 -3.651888,-8.137064 -8.1569909,-8.137064 -4.4984611,0.0033 -8.1470242,3.645252 -8.1470242,8.137064 0,14.690529 4.2926206,28.670607 15.7993771,37.996182 10.417835,9.92982 36.903944,6.26134 36.903944,22.20015 0,4.49845 6.580026,6.68958 11.085129,6.68958 4.617971,0 10.43111,-3.09083 10.43111,-6.68958 0,-18.0868 19.049553,-29.078959 50.409268,-29.032474 4.5051,0.0066 8.15698,-3.631962 8.16363,-8.127098 0.01,-4.495154 -3.63529,-8.143711 -8.14039,-8.150349 -2.14466,-0.0033 -4.23286,0.07027 -6.29452,0.192606 3.50581,-8.253267 5.05952,-17.3365 4.74081,-27.146776 -0.14944,-4.491816 -3.91747,-8.014224 -8.41925,-7.868158 -4.5051,0.146058 -8.03415,3.910835 -7.88807,8.405974 0.42499,12.847997 -0.0565,24.318229 -9.621054,30.363747 -2.718985,1.719725 -5.882846,3.210335 -8.880713,3.210335 2.327246,-6.33435 4.086789,-13.023932 4.807212,-20.23142 0.458113,-4.601379 0.507926,-10.065925 -0.01624,-14.312067 -0.813337,-6.576718 -1.796066,-14.03651 0.697148,-19.653773 2.244256,-4.840412 7.263937,-6.868861 14.640737,-6.868861 4.49845,-0.0033 8.14701,-3.645252 8.14701,-8.13374 0.003,-4.49514 -3.64522,-8.143703 -8.14701,-8.147027 -10.958976,0 -19.265344,5.773291 -23.976277,12.745069 C 83.318905,17.765253 80.321038,12.340547 76.695712,6.7299231 75.527153,4.9139427 73.684568,3.6391029 71.569791,3.180952 70.524073,2.9552193 69.445065,2.9352681 68.38933,3.1244807 67.333574,3.3136982 66.327678,3.7088236 65.427989,4.286391 Z"
         id="path39"
         inkscape:label="rainbow-swirl" />
    </clipPath>
    <filter
       inkscape:collect="always"
       style="color-interpolation-filters:sRGB"
       id="filter39"
       x="-0.4009947"
       y="-0.12621692"
       width="1.8019894"
       height="1.2524338">
      <feGaussianBlur
         inkscape:collect="always"
         stdDeviation="6.8091437"
         id="feGaussianBlur39" />
    </filter>
  </defs>
  <g
     inkscape:label="Layer 1"
     inkscape:groupmode="layer"
     id="layer1">
    <path
       style="display:none;fill:#c8ab37;stroke-width:0.264584"
       d="m 65.427563,4.2864352 c -3.791317,2.4334762 -4.883564,7.4730818 -2.440126,11.2511098 13.42234,20.80247 16.592839,36.492281 15.218396,50.23997 -5.557497,26.330072 -17.635272,31.675117 -28.189223,31.675117 -10.304944,0 -7.546122,-16.9713 0.199131,-21.937867 4.624618,-2.888314 10.547315,-4.767372 15.092243,-4.767372 4.505101,0 8.156977,-3.641925 8.156977,-8.137064 0,-4.495127 -3.651876,-8.137052 -8.156977,-8.137052 -5.308514,0 -10.517426,1.118748 -15.377752,3.017782 0.992644,-4.691009 1.361154,-9.757166 0.07655,-15.145357 -1.948785,-8.180217 -7.562721,-15.991933 -17.306611,-23.564618 -1.706428,-1.331278 -3.870995,-1.925535 -6.018974,-1.659939 -2.147967,0.265633 -4.100064,1.371118 -5.428031,3.07422 -2.765473,3.54896 -2.124727,8.661606 1.430883,11.420442 7.937871,6.168353 10.560576,10.736533 11.456954,14.494648 0.896404,3.761443 0.172655,7.791791 -1.626749,13.332701 -2.300684,7.469755 -4.973205,14.136112 -6.145129,20.52691 -0.574305,3.14726 -0.624118,6.573398 -0.773562,9.308969 -5.716851,-5.577415 -7.954458,-12.937618 -7.954458,-23.694076 0,-4.49514 -3.651888,-8.137065 -8.1569908,-8.137065 -4.4984613,0.0033 -8.1470243,3.645251 -8.1470243,8.137065 0,14.690529 4.2926205,28.670605 15.7993771,37.996181 10.417835,9.92982 36.903943,6.26134 36.903943,22.20015 0,4.49845 6.580029,6.68958 11.08513,6.68958 4.617969,0 10.431112,-3.09083 10.431112,-6.68958 0,-18.0868 19.049553,-29.078958 50.409268,-29.032475 4.5051,0.0066 8.15698,-3.631961 8.16363,-8.127098 0.01,-4.495153 -3.63529,-8.143709 -8.14039,-8.150347 -2.14466,-0.0033 -4.23286,0.07027 -6.29452,0.192606 3.50581,-8.253269 5.05952,-17.3365 4.74081,-27.146778 -0.14944,-4.491814 -3.91747,-8.014224 -8.41925,-7.868157 -4.5051,0.146058 -8.03415,3.910834 -7.88807,8.405973 0.42499,12.847999 -0.0565,24.318229 -9.621056,30.363747 -2.718983,1.719727 -5.882844,3.210337 -8.880712,3.210337 2.327247,-6.334352 4.086789,-13.023934 4.807212,-20.231421 0.458113,-4.601379 0.507927,-10.065924 -0.01624,-14.312067 -0.813337,-6.576717 -1.796067,-14.03651 0.697147,-19.653772 2.244257,-4.840412 7.263939,-6.868863 14.640739,-6.868863 4.49845,-0.0033 8.14701,-3.645251 8.14701,-8.133739 0.003,-4.49514 -3.64523,-8.143703 -8.14701,-8.147027 -10.958976,0 -19.265345,5.773291 -23.976279,12.745069 C 83.318905,17.765253 80.321038,12.340547 76.695713,6.7299231 75.527152,4.9139427 73.684569,3.6391029 71.569791,3.180952 70.524073,2.9552192 69.445064,2.9352681 68.38933,3.1244807 67.333573,3.3136982 66.327679,3.7088236 65.427989,4.286391 Z"
       id="path4" />
    <path
       style="display:none;fill:url(#linearGradient8);stroke-width:0.264584"
       d="m 65.427153,4.2864791 c -3.79132,2.4334762 -4.88357,7.4730819 -2.44013,11.2511099 17.040846,25.798845 16.052067,44.175156 15.2184,50.23997 -0.833667,6.064814 -1.164492,5.231335 -2.075769,7.999417 -0.911278,2.768083 0.174732,-0.14059 -3.438897,8.555746 -1.375998,3.311391 -8.271476,12.977226 -11.499242,20.487238 -5.248954,12.21269 -7.151572,22.96137 -7.151572,22.96137 0,4.49845 6.58003,6.68958 11.08513,6.68958 4.61797,0 10.43112,-3.09083 10.43112,-6.68958 0,0 -0.999119,-0.29361 0.985899,-6.7995 0.936679,-3.06996 1.121885,-8.83248 3.993477,-15.53249 3.213899,-7.49868 9.090334,-15.820198 9.090334,-15.820198 2.32724,-6.334352 4.08679,-13.023934 4.80721,-20.231421 0.45811,-4.601379 0.50793,-10.065924 -0.0162,-14.312067 -0.444713,-3.595977 -1.123302,-8.831976 -0.805317,-13.114449 0,0 -8.3332,0.359365 -11.490352,-2.380854 -3.157152,-2.740219 3.657279,-14.563029 3.657279,-14.563029 0,0 -5.45791,-10.686731 -9.08323,-16.297355 -1.16856,-1.8159804 -3.01115,-3.0908202 -5.12592,-3.5489711 -1.04572,-0.2257328 -2.12473,-0.2456839 -3.18047,-0.056471 -1.05575,0.1892175 -2.06165,0.5843429 -2.96134,1.1619103 z"
       id="path6"
       sodipodi:nodetypes="cczzsscscsscccczcccscc" />
    <path
       style="display:none;opacity:0.501019;fill:url(#linearGradient2);stroke-width:0.264584"
       d="m 50.016665,97.452632 c 0,0 -10.929391,1.999744 -15.25748,0.355162 -4.328089,-1.644581 -9.16362,-8.528759 -9.16362,-8.528759 -5.71685,-5.577415 -7.95446,-12.937618 -7.95446,-23.694076 0,-4.49514 -3.65189,-8.137065 -8.15699,-8.137065 -4.49846,0.0033 -8.14702,3.645251 -8.14702,8.137065 0,14.690529 4.29262,28.670605 15.79937,37.996181 10.41784,9.92982 36.90395,6.26134 36.90395,22.20015 0,0 12.226005,-11.61553 10.863195,-17.99522 C 63.540799,101.40638 50.016665,97.452632 50.016665,97.452632 Z"
       id="path1"
       sodipodi:nodetypes="czcscscczc" />
    <path
       style="display:none;opacity:0.493021;fill:url(#linearGradient4);stroke-width:0.264584"
       d="m 50.016652,97.452632 c -11.504224,-0.35824 -5.853578,-18.523837 0.19913,-21.937867 -0.0076,-2.250211 -6.450554,-4.177593 -6.500057,-7.166058 -0.08268,-4.991475 6.214557,-10.857648 6.214557,-10.857648 0,0 1.36115,-9.757166 0.0765,-15.145357 -1.94879,-8.180217 -7.56273,-15.991933 -17.30662,-23.564618 -1.70642,-1.331278 -3.87099,-1.925535 -6.01897,-1.659939 -2.14797,0.265633 -4.10006,1.371118 -5.42803,3.07422 -2.76547,3.54896 -2.12473,8.661606 1.43088,11.420442 7.93787,6.168353 10.56058,10.736533 11.45696,14.494648 0.8964,3.761443 0.17265,7.791791 -1.62675,13.332701 -2.30069,7.469755 -4.97321,14.136112 -6.14513,20.52691 -0.57431,3.14726 -0.77356,9.308969 -0.77356,9.308969 0,0 4.163947,11.098495 9.163623,12.797395 4.999676,1.6989 15.257467,-4.623798 15.257467,-4.623798 z"
       id="path2"
       sodipodi:nodetypes="ccscccccccccczc" />
    <path
       style="display:none;fill:url(#linearGradient10);stroke-width:0.264584"
       d="m 93.623164,39.820726 c 1.13787,-11.179732 7.702636,-13.263249 16.132056,-13.257751 4.49845,-0.0033 8.14701,-3.645251 8.14701,-8.133739 0.003,-4.49514 -3.64523,-8.143703 -8.14701,-8.147027 -10.958976,0 -19.265344,5.773291 -23.976284,12.745069 0,0 -5.711937,12.233358 -3.657692,14.563073 2.054245,2.329714 11.50192,2.230375 11.50192,2.230375 z"
       id="path8"
       sodipodi:nodetypes="ccccczc" />
    <path
       style="display:none;fill:url(#linearGradient15);stroke-width:0.264584"
       d="m 125.96592,96.748815 c 4.5051,0.0066 8.15698,-3.631961 8.16363,-8.127098 0.01,-4.495153 -3.63529,-8.143709 -8.14039,-8.150347 -2.14466,-0.0033 -4.23286,0.07027 -6.29452,0.192606 -10.59384,1.258283 -9.88032,-4.806211 -21.18757,3.754785 -2.71898,1.719727 -5.88284,3.210337 -8.88071,3.210337 0,0 -6.459551,7.284902 -3.525082,11.276715 2.93447,3.991817 13.130056,1.001336 17.911322,0 1.91311,-0.400662 3.20069,-0.655127 5.63842,-1.042251 2.43774,-0.387124 5.63133,-0.667027 5.63133,-0.667027 0,0 3.71999,-0.277743 5.50109,-0.351146 1.7811,-0.0734 5.18248,-0.09657 5.18248,-0.09657 z"
       id="path10"
       sodipodi:nodetypes="cccccczszczc" />
    <path
       style="display:none;fill:url(#linearGradient6);stroke-width:0.264584"
       d="m 50.215744,75.514765 c 4.62462,-2.888314 10.54731,-4.767372 15.09224,-4.767372 4.5051,0 8.15698,-3.641925 8.15698,-8.137064 0,-4.495127 -3.65188,-8.137052 -8.15698,-8.137052 -5.30851,0 -10.51743,1.118748 -15.37775,3.017782 0,0 -8.84805,6.529995 -8.428138,10.675426 0.419911,4.145431 8.713648,7.34828 8.713648,7.34828 z"
       id="path5"
       sodipodi:nodetypes="csssczc" />
    <path
       style="display:none;fill:url(#linearGradient13);stroke-width:0.264584"
       d="m 119.69464,80.663977 c 3.50581,-8.253269 5.05952,-17.3365 4.74081,-27.146779 -0.14944,-4.491813 -3.91747,-8.014223 -8.41925,-7.868156 -4.5051,0.146058 -8.03415,3.910834 -7.88807,8.405972 0.42499,12.848 -0.0565,24.31823 -9.621064,30.363748 -2.71898,1.719727 -5.88284,3.210337 -8.88071,3.210337 0,0 -4.289556,8.830414 6.596764,8.268722 10.88632,-0.561692 5.10672,-13.651829 23.47152,-15.233844 z"
       id="path11"
       sodipodi:nodetypes="cccccczc" />
    <path
       style="display:none;opacity:0.5;fill:url(#radialGradient29);stroke-width:0.264584"
       d="m 65.427563,4.2864352 c -3.791317,2.4334762 -4.883564,7.4730818 -2.440126,11.2511098 13.42234,20.80247 16.592839,36.492281 15.218396,50.23997 -5.557497,26.330072 -17.635272,31.675117 -28.189223,31.675117 -10.304944,0 -7.546122,-16.9713 0.199131,-21.937867 4.624618,-2.888314 10.547315,-4.767372 15.092243,-4.767372 4.505101,0 8.156977,-3.641925 8.156977,-8.137064 0,-4.495127 -3.651876,-8.137052 -8.156977,-8.137052 -5.308514,0 -10.517426,1.118748 -15.377752,3.017782 0.992644,-4.691009 1.361154,-9.757166 0.07655,-15.145357 -1.948785,-8.180217 -7.562721,-15.991933 -17.306611,-23.564618 -1.706428,-1.331278 -3.870995,-1.925535 -6.018974,-1.659939 -2.147967,0.265633 -4.100064,1.371118 -5.428031,3.07422 -2.765473,3.54896 -2.124727,8.661606 1.430883,11.420442 7.937871,6.168353 10.560576,10.736533 11.456954,14.494648 0.896404,3.761443 0.172655,7.791791 -1.626749,13.332701 -2.300684,7.469755 -4.973205,14.136112 -6.145129,20.52691 -0.574305,3.14726 -0.624118,6.573398 -0.773562,9.308969 -5.716851,-5.577415 -7.954458,-12.937618 -7.954458,-23.694076 0,-4.49514 -3.651888,-8.137065 -8.1569908,-8.137065 -4.4984613,0.0033 -8.1470243,3.645251 -8.1470243,8.137065 0,14.690529 4.2926205,28.670605 15.7993771,37.996181 10.417835,9.92982 36.903943,6.26134 36.903943,22.20015 0,4.49845 6.580029,6.68958 11.08513,6.68958 4.617969,0 10.431112,-3.09083 10.431112,-6.68958 0,-18.0868 19.049553,-29.078958 50.409268,-29.032475 4.5051,0.0066 8.15698,-3.631961 8.16363,-8.127098 0.01,-4.495153 -3.63529,-8.143709 -8.14039,-8.150347 -2.14466,-0.0033 -4.23286,0.07027 -6.29452,0.192606 3.50581,-8.253269 5.05952,-17.3365 4.74081,-27.146778 -0.14944,-4.491814 -3.91747,-8.014224 -8.41925,-7.868157 -4.5051,0.146058 -8.03415,3.910834 -7.88807,8.405973 0.42499,12.847999 -0.0565,24.318229 -9.621056,30.363747 -2.718983,1.719727 -5.882844,3.210337 -8.880712,3.210337 2.327247,-6.334352 4.086789,-13.023934 4.807212,-20.231421 0.458113,-4.601379 0.507927,-10.065924 -0.01624,-14.312067 -0.813337,-6.576717 -1.796067,-14.03651 0.697147,-19.653772 2.244257,-4.840412 7.263939,-6.868863 14.640739,-6.868863 4.49845,-0.0033 8.14701,-3.645251 8.14701,-8.133739 0.003,-4.49514 -3.64523,-8.143703 -8.14701,-8.147027 -10.958976,0 -19.265345,5.773291 -23.976279,12.745069 C 83.318905,17.765253 80.321038,12.340547 76.695713,6.7299231 75.527152,4.9139427 73.684569,3.6391029 71.569791,3.180952 70.524073,2.9552192 69.445064,2.9352681 68.38933,3.1244807 67.333573,3.3136982 66.327679,3.7088236 65.427989,4.286391 Z"
       id="path27"
       inkscape:label="rainbow-swirl" />
    <path
       style="display:none;opacity:0.5;mix-blend-mode:soft-light;fill:url(#radialGradient90);stroke-width:0.264584"
       d="m 65.427563,4.2864352 c -3.791317,2.4334762 -4.883564,7.4730818 -2.440126,11.2511098 13.42234,20.80247 16.592839,36.492281 15.218396,50.23997 -5.557497,26.330072 -17.635272,31.675117 -28.189223,31.675117 -10.304944,0 -7.546122,-16.9713 0.199131,-21.937867 4.624618,-2.888314 10.547315,-4.767372 15.092243,-4.767372 4.505101,0 8.156977,-3.641925 8.156977,-8.137064 0,-4.495127 -3.651876,-8.137052 -8.156977,-8.137052 -5.308514,0 -10.517426,1.118748 -15.377752,3.017782 0.992644,-4.691009 1.361154,-9.757166 0.07655,-15.145357 -1.948785,-8.180217 -7.562721,-15.991933 -17.306611,-23.564618 -1.706428,-1.331278 -3.870995,-1.925535 -6.018974,-1.659939 -2.147967,0.265633 -4.100064,1.371118 -5.428031,3.07422 -2.765473,3.54896 -2.124727,8.661606 1.430883,11.420442 7.937871,6.168353 10.560576,10.736533 11.456954,14.494648 0.896404,3.761443 0.172655,7.791791 -1.626749,13.332701 -2.300684,7.469755 -4.973205,14.136112 -6.145129,20.52691 -0.574305,3.14726 -0.624118,6.573398 -0.773562,9.308969 -5.716851,-5.577415 -7.954458,-12.937618 -7.954458,-23.694076 0,-4.49514 -3.651888,-8.137065 -8.1569908,-8.137065 -4.4984613,0.0033 -8.1470243,3.645251 -8.1470243,8.137065 0,14.690529 4.2926205,28.670605 15.7993771,37.996181 10.417835,9.92982 36.903943,6.26134 36.903943,22.20015 0,4.49845 6.580029,6.68958 11.08513,6.68958 4.617969,0 10.431112,-3.09083 10.431112,-6.68958 0,-18.0868 19.049553,-29.078958 50.409268,-29.032475 4.5051,0.0066 8.15698,-3.631961 8.16363,-8.127098 0.01,-4.495153 -3.63529,-8.143709 -8.14039,-8.150347 -2.14466,-0.0033 -4.23286,0.07027 -6.29452,0.192606 3.50581,-8.253269 5.05952,-17.3365 4.74081,-27.146778 -0.14944,-4.491814 -3.91747,-8.014224 -8.41925,-7.868157 -4.5051,0.146058 -8.03415,3.910834 -7.88807,8.405973 0.42499,12.847999 -0.0565,24.318229 -9.621056,30.363747 -2.718983,1.719727 -5.882844,3.210337 -8.880712,3.210337 2.327247,-6.334352 4.086789,-13.023934 4.807212,-20.231421 0.458113,-4.601379 0.507927,-10.065924 -0.01624,-14.312067 -0.813337,-6.576717 -1.796067,-14.03651 0.697147,-19.653772 2.244257,-4.840412 7.263939,-6.868863 14.640739,-6.868863 4.49845,-0.0033 8.14701,-3.645251 8.14701,-8.133739 0.003,-4.49514 -3.64523,-8.143703 -8.14701,-8.147027 -10.958976,0 -19.265345,5.773291 -23.976279,12.745069 C 83.318905,17.765253 80.321038,12.340547 76.695713,6.7299231 75.527152,4.9139427 73.684569,3.6391029 71.569791,3.180952 70.524073,2.9552192 69.445064,2.9352681 68.38933,3.1244807 67.333573,3.3136982 66.327679,3.7088236 65.427989,4.286391 Z"
       id="path89"
       inkscape:label="rainbow-swirl" />
    <path
       style="display:inline;opacity:0.4;fill:#ffffff;fill-opacity:1;stroke-width:0.264584"
       d="m 65.427563,4.2864352 c -3.791317,2.4334762 -4.883564,7.4730818 -2.440126,11.2511098 13.42234,20.80247 16.592839,36.492281 15.218396,50.23997 -5.557497,26.330072 -17.635272,31.675117 -28.189223,31.675117 -10.304944,0 -7.546122,-16.9713 0.199131,-21.937867 4.624618,-2.888314 10.547315,-4.767372 15.092243,-4.767372 4.505101,0 8.156977,-3.641925 8.156977,-8.137064 0,-4.495127 -3.651876,-8.137052 -8.156977,-8.137052 -5.308514,0 -10.517426,1.118748 -15.377752,3.017782 0.992644,-4.691009 1.361154,-9.757166 0.07655,-15.145357 -1.948785,-8.180217 -7.562721,-15.991933 -17.306611,-23.564618 -1.706428,-1.331278 -3.870995,-1.925535 -6.018974,-1.659939 -2.147967,0.265633 -4.100064,1.371118 -5.428031,3.07422 -2.765473,3.54896 -2.124727,8.661606 1.430883,11.420442 7.937871,6.168353 10.560576,10.736533 11.456954,14.494648 0.896404,3.761443 0.172655,7.791791 -1.626749,13.332701 -2.300684,7.469755 -4.973205,14.136112 -6.145129,20.52691 -0.574305,3.14726 -0.624118,6.573398 -0.773562,9.308969 -5.716851,-5.577415 -7.954458,-12.937618 -7.954458,-23.694076 0,-4.49514 -3.651888,-8.137065 -8.1569908,-8.137065 -4.4984613,0.0033 -8.1470243,3.645251 -8.1470243,8.137065 0,14.690529 4.2926205,28.670605 15.7993771,37.996181 10.417835,9.92982 36.903943,6.26134 36.903943,22.20015 0,4.49845 6.580029,6.68958 11.08513,6.68958 4.617969,0 10.431112,-3.09083 10.431112,-6.68958 0,-18.0868 19.049553,-29.078958 50.409268,-29.032475 4.5051,0.0066 8.15698,-3.631961 8.16363,-8.127098 0.01,-4.495153 -3.63529,-8.143709 -8.14039,-8.150347 -2.14466,-0.0033 -4.23286,0.07027 -6.29452,0.192606 3.50581,-8.253269 5.05952,-17.3365 4.74081,-27.146778 -0.14944,-4.491814 -3.91747,-8.014224 -8.41925,-7.868157 -4.5051,0.146058 -8.03415,3.910834 -7.88807,8.405973 0.42499,12.847999 -0.0565,24.318229 -9.621056,30.363747 -2.718983,1.719727 -5.882844,3.210337 -8.880712,3.210337 2.327247,-6.334352 4.086789,-13.023934 4.807212,-20.231421 0.458113,-4.601379 0.507927,-10.065924 -0.01624,-14.312067 -0.813337,-6.576717 -1.796067,-14.03651 0.697147,-19.653772 2.244257,-4.840412 7.263939,-6.868863 14.640739,-6.868863 4.49845,-0.0033 8.14701,-3.645251 8.14701,-8.133739 0.003,-4.49514 -3.64523,-8.143703 -8.14701,-8.147027 -10.958976,0 -19.265345,5.773291 -23.976279,12.745069 C 83.318905,17.765253 80.321038,12.340547 76.695713,6.7299231 75.527152,4.9139427 73.684569,3.6391029 71.569791,3.180952 70.524073,2.9552192 69.445064,2.9352681 68.38933,3.1244807 67.333573,3.3136982 66.327679,3.7088236 65.427989,4.286391 Z"
       id="path48"
       inkscape:label="white" />
    <path
       style="display:inline;opacity:0.8;mix-blend-mode:normal;fill:url(#linearGradient27);stroke-width:0.264584;filter:url(#filter39)"
       d="m 65.427154,4.2864378 c -3.79132,2.4334762 -4.88357,7.4730822 -2.44013,11.2511102 17.040846,25.798845 16.052067,44.175156 15.2184,50.23997 -0.833667,6.064814 -1.164492,5.231335 -2.075769,7.999417 -0.911278,2.768083 0.174732,-0.14059 -3.438897,8.555746 -1.375998,3.311391 -8.271476,12.977226 -11.499242,20.487239 -5.248954,12.21269 -7.151572,22.96137 -7.151572,22.96137 0,4.49845 6.58003,6.68958 11.08513,6.68958 4.61797,0 10.43112,-3.09083 10.43112,-6.68958 0,0 -0.999119,-0.29361 0.985899,-6.7995 0.936679,-3.06996 1.121885,-8.83248 3.993477,-15.53249 3.213899,-7.498681 9.090334,-15.820199 9.090334,-15.820199 2.32724,-6.334352 4.08679,-13.023934 4.80721,-20.231421 0.45811,-4.601379 0.50793,-10.065924 -0.0162,-14.312067 -0.444713,-3.595977 -1.123302,-8.831976 -0.805317,-13.114449 0,0 -8.3332,0.359365 -11.490352,-2.380854 -3.157152,-2.740219 3.657279,-14.563029 3.657279,-14.563029 0,0 -5.45791,-10.686731 -9.08323,-16.2973553 -1.16856,-1.8159804 -3.01115,-3.0908202 -5.12592,-3.5489711 -1.04572,-0.2257328 -2.12473,-0.2456839 -3.18047,-0.056471 -1.05575,0.1892175 -2.06165,0.5843429 -2.96134,1.1619103 z"
       id="path15"
       sodipodi:nodetypes="cczzsscscsscccczcccscc"
       clip-path="url(#clipPath39)"
       inkscape:label="Yellow" />
    <path
       style="display:inline;opacity:0.8;mix-blend-mode:normal;fill:url(#linearGradient26);stroke-width:0.264584;filter:url(#filter69)"
       d="m 50.016666,97.452591 c 0,0 -9.894935,6.501579 -14.223013,4.856989 -1.947411,-0.73998 -4.62511,-2.792492 -6.521674,-5.552257 -2.31852,-3.373767 -3.676409,-7.478329 -3.676409,-7.478329 -5.71685,-5.577415 -7.95446,-12.937618 -7.95446,-23.694076 0,-4.49514 -3.65189,-8.137065 -8.15699,-8.137065 -4.49846,0.0033 -8.14702,3.645251 -8.14702,8.137065 0,14.690529 4.29262,28.670605 15.79937,37.996182 10.41784,9.92982 36.903946,6.26134 36.903946,22.20015 0,0 12.226005,-11.61553 10.863195,-17.99522 C 63.5408,101.40634 50.016666,97.452591 50.016666,97.452591 Z"
       id="path16"
       sodipodi:nodetypes="csscscscczc"
       clip-path="url(#clipPath68)"
       inkscape:label="Orange" />
    <path
       style="display:inline;opacity:0.8;mix-blend-mode:normal;fill:url(#linearGradient25);stroke-width:0.264584;filter:url(#filter70)"
       d="m 50.016653,97.452591 c -11.024446,-0.3433 -6.780083,-17.710086 0.19913,-21.937867 -0.0076,-2.250211 -8.664183,-4.359815 -8.713683,-7.34828 -0.0827,-4.991475 8.428183,-10.675426 8.428183,-10.675426 0,0 0.806171,-3.436045 0.897775,-7.637213 0.05686,-2.607639 -0.316934,-5.392792 -0.821275,-7.508144 C 48.05799,34.165444 42.44405,26.353728 32.70016,18.781043 c -1.70642,-1.331278 -3.87099,-1.925535 -6.01897,-1.659939 -2.14797,0.265633 -4.10006,1.371118 -5.42803,3.07422 -2.76547,3.54896 -2.12473,8.661606 1.43088,11.420442 7.93787,6.168353 10.56058,10.736533 11.45696,14.494648 0.8964,3.761443 0.17265,7.791791 -1.62675,13.332701 -2.30069,7.469755 -4.97321,14.136112 -6.14513,20.52691 -0.57431,3.14726 -0.77356,9.308969 -0.77356,9.308969 0,0 4.16395,11.098496 9.16363,12.797396 4.99967,1.6989 15.257463,-4.623799 15.257463,-4.623799 z"
       id="path17"
       sodipodi:nodetypes="ccscsccccccccczc"
       clip-path="url(#clipPath69)"
       inkscape:label="Green" />
    <path
       style="display:inline;opacity:0.8;mix-blend-mode:normal;fill:url(#linearGradient24);stroke-width:0.264584;filter:url(#filter71)"
       d="m 93.623165,39.820685 c 1.13787,-11.179732 7.702635,-13.263249 16.132055,-13.257751 4.49845,-0.0033 8.14701,-3.645251 8.14701,-8.133739 0.003,-4.49514 -3.64523,-8.143703 -8.14701,-8.147027 -10.958975,0 -19.265343,5.773291 -23.976283,12.745069 0,0 -5.711937,12.233358 -3.657692,14.563073 2.054245,2.329714 11.50192,2.230375 11.50192,2.230375 z"
       id="path18"
       sodipodi:nodetypes="ccccczc"
       clip-path="url(#clipPath70)"
       inkscape:label="Blue" />
    <path
       style="display:inline;opacity:0.8;mix-blend-mode:normal;fill:url(#linearGradient23);stroke-width:0.264584;filter:url(#filter72)"
       d="m 125.96592,96.748774 c 4.5051,0.0066 8.15698,-3.631961 8.16363,-8.127098 0.01,-4.495153 -3.63529,-8.143709 -8.14039,-8.150347 -2.14466,-0.0033 -4.23286,0.07027 -6.29452,0.192606 -16.41493,-0.566712 -14.71121,15.259549 -23.471519,15.233845 -8.760306,-0.0257 -3.59889,-8.268723 -6.59676,-8.268723 0,0 -6.459551,7.284902 -3.525082,11.276715 2.93447,3.991818 13.130056,1.001336 17.911321,0 1.91311,-0.400662 3.20069,-0.655127 5.63842,-1.042251 2.43774,-0.387124 5.63133,-0.667027 5.63133,-0.667027 0,0 3.71999,-0.277743 5.50109,-0.351146 1.7811,-0.0734 5.18248,-0.09657 5.18248,-0.09657 z"
       id="path19"
       sodipodi:nodetypes="cccczczszczcc"
       clip-path="url(#clipPath71)"
       inkscape:label="Purple" />
    <path
       style="display:inline;opacity:0.8;mix-blend-mode:normal;fill:url(#linearGradient22);stroke-width:0.264584;filter:url(#filter73)"
       d="m 50.215745,75.514724 c 4.62462,-2.888314 10.54731,-4.767372 15.09224,-4.767372 4.5051,0 8.15698,-3.641925 8.15698,-8.137064 0,-4.495127 -3.65188,-8.137052 -8.15698,-8.137052 -5.30851,0 -10.51743,1.118748 -15.37775,3.017782 0,0 -8.848055,6.529995 -8.428135,10.675426 0.41991,4.145431 8.713645,7.34828 8.713645,7.34828 z"
       id="path20"
       sodipodi:nodetypes="csssczc"
       clip-path="url(#clipPath72)"
       inkscape:label="Teal" />
    <path
       style="display:inline;opacity:0.8;mix-blend-mode:normal;fill:url(#linearGradient21);stroke-width:0.264584;filter:url(#filter74)"
       d="m 119.69464,80.663936 c 3.50581,-8.253269 5.05952,-17.3365 4.74081,-27.146779 -0.14944,-4.491813 -3.91747,-8.014223 -8.41925,-7.868156 -4.5051,0.146058 -8.03415,3.910834 -7.88807,8.405972 0.42499,12.848 -0.0565,24.31823 -9.621063,30.363748 -2.71898,1.719727 -5.88284,3.210337 -8.88071,3.210337 0,0 -4.289556,8.830414 6.596764,8.268722 10.886319,-0.561692 5.106719,-13.651829 23.471519,-15.233844 z"
       id="path21"
       sodipodi:nodetypes="cccccczc"
       clip-path="url(#clipPath73)"
       inkscape:label="Red" />
    <path
       style="color:#000000;display:none;mix-blend-mode:overlay;fill:#000000;-inkscape-stroke:none;filter:url(#filter52)"
       d="m -86.777344,-5.4179687 c -1.053226,0.1887645 -2.044178,0.6069288 -2.955078,1.1601562 l -0.08984,0.00781 0.0078,0.023437 c -7.22e-4,4.488e-4 -0.0012,0.0015 -0.002,0.00195 l -0.0059,-0.025391 -0.109375,0.070312 c -4.031922,2.5879099 -5.198633,7.9657814 -2.599609,11.984375 13.3659,20.7149975 16.492419,36.2456425 15.138672,49.8652345 -2.764515,13.081943 -7.132393,20.882806 -12.054688,25.408203 -4.925285,4.528146 -10.421736,5.824219 -15.609378,5.824219 -2.43098,0 -3.97879,-0.951966 -4.96094,-2.484375 -0.98214,-1.532409 -1.36047,-3.700341 -1.18164,-6.052735 0.35749,-4.702377 2.95796,-10.069136 6.62109,-12.421875 l 0.004,-0.002 c 7.4e-4,-4.77e-4 0.001,-0.0015 0.002,-0.002 4.53911,-2.83335 10.409461,-4.683594 14.806649,-4.683594 4.790282,0 8.685547,-3.884282 8.685547,-8.666015 0,-4.781722 -3.895265,-8.666016 -8.685547,-8.666016 -5.095456,0 -10.070459,1.077322 -14.757819,2.814453 0.87591,-4.515289 1.20365,-9.36346 -0.0293,-14.535156 -1.98428,-8.329196 -7.69075,-16.240883 -17.4961,-23.861328 v 0.002 c -1.81731,-1.4177936 -4.12185,-2.0502833 -6.4082,-1.7675781 -2.28669,0.2827877 -4.36693,1.4595971 -5.78125,3.2734371 -2.94128,3.774575 -2.25801,9.229999 1.52344,12.164063 7.8825,6.125328 10.40279,10.57356 11.26757,14.199219 0.86175,3.616039 0.17376,7.538021 -1.61523,13.046875 l -0.002,0.0039 -0.002,0.0039 c -2.29282,7.444218 -4.97231,14.118975 -6.1582,20.585938 -0.50246,2.753519 -0.55803,5.553371 -0.67187,8.046875 -4.94121,-5.345134 -7.00782,-12.240496 -7.00782,-22.335938 0,-4.781735 -3.89526,-8.666016 -8.68554,-8.666016 -4.78386,0.0035 -8.67579,3.887656 -8.67578,8.666016 0,14.779671 4.32991,28.931016 15.96289,38.378906 0.002,0.0022 0.005,0.0037 0.008,0.0059 5.39562,5.136597 14.69254,6.664347 22.56836,8.966797 3.93959,1.15171 7.51756,2.48942 10.0664,4.46679 2.54885,1.97737 4.09766,4.53881 4.09766,8.37696 0,2.50723 1.840064,4.34734 4.144535,5.50586 2.304471,1.15851 5.130412,1.71289 7.46875,1.71289 2.42704,0 5.103066,-0.79532 7.220703,-2.07032 2.117638,-1.27499 3.740235,-3.06414 3.740235,-5.14843 0,-8.85762 4.616948,-15.92327 13.179687,-20.857422 8.562739,-4.934153 21.081363,-7.667681 36.699219,-7.644532 4.790435,0.007 8.686286,-3.874942 8.693359,-8.65625 0.01064,-4.781863 -3.877591,-8.672629 -8.667968,-8.679687 -1.888217,-0.0029 -3.718381,0.07345 -5.53711,0.169922 3.32038,-8.131286 4.823086,-17.02902 4.511719,-26.613281 -0.158963,-4.778064 -4.177908,-8.534226 -8.964844,-8.378907 -4.790491,0.155311 -8.555768,4.16993 -8.40039,8.951172 v 0.002 c 0.212104,6.412194 0.190278,12.4507 -1.050782,17.589844 -1.241059,5.139145 -3.66632,9.364452 -8.324218,12.308594 -2.443867,1.545719 -5.220244,2.743471 -7.833985,2.964844 2.186142,-6.115258 3.876867,-12.548735 4.570313,-19.486329 0.461829,-4.638709 0.513851,-10.124715 -0.01758,-14.429687 -0.81326,-6.576089 -1.746226,-13.95473 0.65039,-19.365234 l 0.002,-0.002 c 1.070736,-2.307815 2.773344,-3.920504 5.132813,-4.988281 2.360356,-1.068178 5.38745,-1.572265 9.027344,-1.572265 4.783844,-0.0035 8.675781,-3.888817 8.675781,-8.664063 0.0032,-4.7816381 -3.888301,-8.6722462 -8.675781,-8.6757811 -10.785953,0 -18.994931,5.5426938 -23.865235,12.3320311 -2.406452,-5.0625134 -5.27519,-10.2628116 -8.75,-15.6406249 v -0.00195 c -1.244592,-1.9334342 -3.208314,-3.2917059 -5.458984,-3.7792969 -1.112819,-0.2402175 -2.261048,-0.2619453 -3.384766,-0.060547 z M -86.591797,-4.375 c 0.9871,-0.176913 1.996596,-0.1581225 2.97461,0.052734 1.978414,0.4286089 3.700401,1.6204756 4.792968,3.3183594 h 0.002 c 3.613109,5.591717 6.597601,10.9953703 9.046875,16.2343756 l 0.396485,0.845703 0.521484,-0.773438 c 4.625248,-6.8449695 12.765944,-12.5117188 23.539063,-12.5117188 4.216071,0.00311 7.619996,3.4085554 7.617187,7.6171878 0,4.201721 -3.404141,7.602378 -7.617187,7.605469 -3.7369,0 -6.908147,0.509867 -9.462891,1.666015 -2.554744,1.156149 -4.484612,2.978564 -5.658203,5.509766 l -0.002,0.0039 -0.002,0.0039 c -2.584603,5.823163 -1.551228,13.360039 -0.738282,19.933593 0.516674,4.187071 0.468004,9.62996 0.01367,14.19336 -0.715164,7.154875 -2.461914,13.799376 -4.777343,20.101562 l -0.259766,0.710938 h 0.757812 c 3.172723,0 6.403462,-1.546374 9.16211,-3.291016 4.906647,-3.10137 7.504488,-7.635739 8.789062,-12.955078 1.284575,-5.319339 1.29101,-11.437254 1.078125,-17.873047 -0.136782,-4.209027 3.157254,-7.72257 7.376953,-7.859375 4.216616,-0.136814 7.733131,3.149913 7.873047,7.355469 0.316553,9.74389 -1.226039,18.745424 -4.699218,26.921875 l -0.333985,0.787109 0.853516,-0.05078 c 2.053089,-0.121827 4.129691,-0.194687 6.261719,-0.191406 4.219811,0.0062 7.62069,3.410707 7.611328,7.61914 -0.0062,4.208957 -3.413058,7.605792 -7.632813,7.59961 -15.741828,-0.02333 -28.426567,2.715115 -37.228515,7.787109 -8.801949,5.071994 -13.710938,12.544274 -13.710938,21.773444 0,1.51444 -1.28314,3.07208 -3.226562,4.24218 -1.943423,1.17011 -4.484857,1.91992 -6.675782,1.91993 -2.166758,-1e-5 -4.882326,-0.53991 -6.99414,-1.60157 -2.111815,-1.06166 -3.560552,-2.56933 -3.560552,-4.56054 0,-4.13126 -1.763,-7.08501 -4.50586,-9.21289 -2.74285,-2.12789 -6.43577,-3.4837 -10.41992,-4.64844 -7.9683,-2.32948 -17.11934,-3.932784 -22.14258,-8.720708 l -0.0156,-0.01563 -0.0156,-0.01367 c -11.35578,-9.203219 -15.60351,-22.996552 -15.60351,-37.583984 0,-4.205259 3.40413,-7.604331 7.61719,-7.607422 4.21991,0 7.62695,3.398886 7.62695,7.607422 0,10.829834 2.28123,18.380554 8.11523,24.072266 l 0.83399,0.814453 0.0644,-1.164063 c 0.1504,-2.753202 0.20252,-6.156334 0.76563,-9.242187 1.15753,-6.312363 3.81897,-12.966987 6.12695,-20.458985 l 0.002,-0.0078 c 1.80775,-5.568519 2.56728,-9.706543 1.63672,-13.611328 -0.92797,-3.890564 -3.65326,-8.577697 -11.64648,-14.789063 h -0.002 c -3.32977,-2.583604 -3.92754,-7.354396 -1.33789,-10.677734 1.24162,-1.592361 3.06693,-2.6265227 5.07618,-2.8750004 2.0096,-0.2484863 4.03338,0.3079752 5.6289,1.5527344 9.68242,7.52491 15.2039,15.23831 17.11719,23.269532 1.26191,5.293194 0.90209,10.2726 -0.0801,14.914062 l -0.20312,0.958984 0.91406,-0.357421 c 4.80657,-1.87803 9.951384,-2.980469 15.185546,-2.980469 4.219911,0 7.626953,3.398898 7.626953,7.607422 0,4.208536 -3.407042,7.607422 -7.626953,7.607422 -4.690776,0 -10.663726,1.906439 -15.373046,4.847656 l -0.002,0.002 -0.004,0.002 c -4.07914,2.615711 -6.72756,8.213834 -7.10938,13.236328 -0.19091,2.511247 0.18891,4.898214 1.34571,6.703125 1.15679,1.804912 3.13008,2.972656 5.85156,2.972656 5.366303,0 11.184718,-1.37663 16.326172,-6.103515 5.141455,-4.726885 9.587611,-12.758454 12.38086,-25.992188 l 0.0059,-0.02734 0.002,-0.0293 c 1.38642,-13.867484 -1.833318,-29.705721 -15.300781,-50.5781257 -2.286805,-3.5358422 -1.269434,-8.2354194 2.277344,-10.515625 0.0016,-0.00104 0.0023,-0.00287 0.0039,-0.00391 h 0.002 c 0.841126,-0.5399723 1.780286,-0.9089902 2.767578,-1.0859375 z m -3.220703,0.1542969 0.332031,0.9726562 -0.11914,0.041016 -0.216797,-1.0117187 z"
       id="path51"
       clip-path="url(#clipPath52)"
       transform="translate(155.0741,8.0214673)"
       inkscape:label="edge"
       sodipodi:insensitive="true" />
    <path
       style="color:#000000;display:none;mix-blend-mode:overlay;fill:#000000;-inkscape-stroke:none;filter:url(#filter52)"
       d="m -86.777344,-5.4179687 c -1.053226,0.1887645 -2.044178,0.6069288 -2.955078,1.1601562 l -0.08984,0.00781 0.0078,0.023437 c -7.22e-4,4.488e-4 -0.0012,0.0015 -0.002,0.00195 l -0.0059,-0.025391 -0.109375,0.070312 c -4.031922,2.5879099 -5.198633,7.9657814 -2.599609,11.984375 13.3659,20.7149975 16.492419,36.2456425 15.138672,49.8652345 -2.764515,13.081943 -7.132393,20.882806 -12.054688,25.408203 -4.925285,4.528146 -10.421736,5.824219 -15.609378,5.824219 -2.43098,0 -3.97879,-0.951966 -4.96094,-2.484375 -0.98214,-1.532409 -1.36047,-3.700341 -1.18164,-6.052735 0.35749,-4.702377 2.95796,-10.069136 6.62109,-12.421875 l 0.004,-0.002 c 7.4e-4,-4.77e-4 0.001,-0.0015 0.002,-0.002 4.53911,-2.83335 10.409461,-4.683594 14.806649,-4.683594 4.790282,0 8.685547,-3.884282 8.685547,-8.666015 0,-4.781722 -3.895265,-8.666016 -8.685547,-8.666016 -5.095456,0 -10.070459,1.077322 -14.757819,2.814453 0.87591,-4.515289 1.20365,-9.36346 -0.0293,-14.535156 -1.98428,-8.329196 -7.69075,-16.240883 -17.4961,-23.861328 v 0.002 c -1.81731,-1.4177936 -4.12185,-2.0502833 -6.4082,-1.7675781 -2.28669,0.2827877 -4.36693,1.4595971 -5.78125,3.2734371 -2.94128,3.774575 -2.25801,9.229999 1.52344,12.164063 7.8825,6.125328 10.40279,10.57356 11.26757,14.199219 0.86175,3.616039 0.17376,7.538021 -1.61523,13.046875 l -0.002,0.0039 -0.002,0.0039 c -2.29282,7.444218 -4.97231,14.118975 -6.1582,20.585938 -0.50246,2.753519 -0.55803,5.553371 -0.67187,8.046875 -4.94121,-5.345134 -7.00782,-12.240496 -7.00782,-22.335938 0,-4.781735 -3.89526,-8.666016 -8.68554,-8.666016 -4.78386,0.0035 -8.67579,3.887656 -8.67578,8.666016 0,14.779671 4.32991,28.931016 15.96289,38.378906 0.002,0.0022 0.005,0.0037 0.008,0.0059 5.39562,5.136597 14.69254,6.664347 22.56836,8.966797 3.93959,1.15171 7.51756,2.48942 10.0664,4.46679 2.54885,1.97737 4.09766,4.53881 4.09766,8.37696 0,2.50723 1.840064,4.34734 4.144535,5.50586 2.304471,1.15851 5.130412,1.71289 7.46875,1.71289 2.42704,0 5.103066,-0.79532 7.220703,-2.07032 2.117638,-1.27499 3.740235,-3.06414 3.740235,-5.14843 0,-8.85762 4.616948,-15.92327 13.179687,-20.857422 8.562739,-4.934153 21.081363,-7.667681 36.699219,-7.644532 4.790435,0.007 8.686286,-3.874942 8.693359,-8.65625 0.01064,-4.781863 -3.877591,-8.672629 -8.667968,-8.679687 -1.888217,-0.0029 -3.718381,0.07345 -5.53711,0.169922 3.32038,-8.131286 4.823086,-17.02902 4.511719,-26.613281 -0.158963,-4.778064 -4.177908,-8.534226 -8.964844,-8.378907 -4.790491,0.155311 -8.555768,4.16993 -8.40039,8.951172 v 0.002 c 0.212104,6.412194 0.190278,12.4507 -1.050782,17.589844 -1.241059,5.139145 -3.66632,9.364452 -8.324218,12.308594 -2.443867,1.545719 -5.220244,2.743471 -7.833985,2.964844 2.186142,-6.115258 3.876867,-12.548735 4.570313,-19.486329 0.461829,-4.638709 0.513851,-10.124715 -0.01758,-14.429687 -0.81326,-6.576089 -1.746226,-13.95473 0.65039,-19.365234 l 0.002,-0.002 c 1.070736,-2.307815 2.773344,-3.920504 5.132813,-4.988281 2.360356,-1.068178 5.38745,-1.572265 9.027344,-1.572265 4.783844,-0.0035 8.675781,-3.888817 8.675781,-8.664063 0.0032,-4.7816381 -3.888301,-8.6722462 -8.675781,-8.6757811 -10.785953,0 -18.994931,5.5426938 -23.865235,12.3320311 -2.406452,-5.0625134 -5.27519,-10.2628116 -8.75,-15.6406249 v -0.00195 c -1.244592,-1.9334342 -3.208314,-3.2917059 -5.458984,-3.7792969 -1.112819,-0.2402175 -2.261048,-0.2619453 -3.384766,-0.060547 z M -86.591797,-4.375 c 0.9871,-0.176913 1.996596,-0.1581225 2.97461,0.052734 1.978414,0.4286089 3.700401,1.6204756 4.792968,3.3183594 h 0.002 c 3.613109,5.591717 6.597601,10.9953703 9.046875,16.2343756 l 0.396485,0.845703 0.521484,-0.773438 c 4.625248,-6.8449695 12.765944,-12.5117188 23.539063,-12.5117188 4.216071,0.00311 7.619996,3.4085554 7.617187,7.6171878 0,4.201721 -3.404141,7.602378 -7.617187,7.605469 -3.7369,0 -6.908147,0.509867 -9.462891,1.666015 -2.554744,1.156149 -4.484612,2.978564 -5.658203,5.509766 l -0.002,0.0039 -0.002,0.0039 c -2.584603,5.823163 -1.551228,13.360039 -0.738282,19.933593 0.516674,4.187071 0.468004,9.62996 0.01367,14.19336 -0.715164,7.154875 -2.461914,13.799376 -4.777343,20.101562 l -0.259766,0.710938 h 0.757812 c 3.172723,0 6.403462,-1.546374 9.16211,-3.291016 4.906647,-3.10137 7.504488,-7.635739 8.789062,-12.955078 1.284575,-5.319339 1.29101,-11.437254 1.078125,-17.873047 -0.136782,-4.209027 3.157254,-7.72257 7.376953,-7.859375 4.216616,-0.136814 7.733131,3.149913 7.873047,7.355469 0.316553,9.74389 -1.226039,18.745424 -4.699218,26.921875 l -0.333985,0.787109 0.853516,-0.05078 c 2.053089,-0.121827 4.129691,-0.194687 6.261719,-0.191406 4.219811,0.0062 7.62069,3.410707 7.611328,7.61914 -0.0062,4.208957 -3.413058,7.605792 -7.632813,7.59961 -15.741828,-0.02333 -28.426567,2.715115 -37.228515,7.787109 -8.801949,5.071994 -13.710938,12.544274 -13.710938,21.773444 0,1.51444 -1.28314,3.07208 -3.226562,4.24218 -1.943423,1.17011 -4.484857,1.91992 -6.675782,1.91993 -2.166758,-1e-5 -4.882326,-0.53991 -6.99414,-1.60157 -2.111815,-1.06166 -3.560552,-2.56933 -3.560552,-4.56054 0,-4.13126 -1.763,-7.08501 -4.50586,-9.21289 -2.74285,-2.12789 -6.43577,-3.4837 -10.41992,-4.64844 -7.9683,-2.32948 -17.11934,-3.932784 -22.14258,-8.720708 l -0.0156,-0.01563 -0.0156,-0.01367 c -11.35578,-9.203219 -15.60351,-22.996552 -15.60351,-37.583984 0,-4.205259 3.40413,-7.604331 7.61719,-7.607422 4.21991,0 7.62695,3.398886 7.62695,7.607422 0,10.829834 2.28123,18.380554 8.11523,24.072266 l 0.83399,0.814453 0.0644,-1.164063 c 0.1504,-2.753202 0.20252,-6.156334 0.76563,-9.242187 1.15753,-6.312363 3.81897,-12.966987 6.12695,-20.458985 l 0.002,-0.0078 c 1.80775,-5.568519 2.56728,-9.706543 1.63672,-13.611328 -0.92797,-3.890564 -3.65326,-8.577697 -11.64648,-14.789063 h -0.002 c -3.32977,-2.583604 -3.92754,-7.354396 -1.33789,-10.677734 1.24162,-1.592361 3.06693,-2.6265227 5.07618,-2.8750004 2.0096,-0.2484863 4.03338,0.3079752 5.6289,1.5527344 9.68242,7.52491 15.2039,15.23831 17.11719,23.269532 1.26191,5.293194 0.90209,10.2726 -0.0801,14.914062 l -0.20312,0.958984 0.91406,-0.357421 c 4.80657,-1.87803 9.951384,-2.980469 15.185546,-2.980469 4.219911,0 7.626953,3.398898 7.626953,7.607422 0,4.208536 -3.407042,7.607422 -7.626953,7.607422 -4.690776,0 -10.663726,1.906439 -15.373046,4.847656 l -0.002,0.002 -0.004,0.002 c -4.07914,2.615711 -6.72756,8.213834 -7.10938,13.236328 -0.19091,2.511247 0.18891,4.898214 1.34571,6.703125 1.15679,1.804912 3.13008,2.972656 5.85156,2.972656 5.366303,0 11.184718,-1.37663 16.326172,-6.103515 5.141455,-4.726885 9.587611,-12.758454 12.38086,-25.992188 l 0.0059,-0.02734 0.002,-0.0293 c 1.38642,-13.867484 -1.833318,-29.705721 -15.300781,-50.5781257 -2.286805,-3.5358422 -1.269434,-8.2354194 2.277344,-10.515625 0.0016,-0.00104 0.0023,-0.00287 0.0039,-0.00391 h 0.002 c 0.841126,-0.5399723 1.780286,-0.9089902 2.767578,-1.0859375 z m -3.220703,0.1542969 0.332031,0.9726562 -0.11914,0.041016 -0.216797,-1.0117187 z"
       id="path53"
       clip-path="url(#clipPath52)"
       transform="translate(155.0741,8.0214673)"
       inkscape:label="edge"
       sodipodi:insensitive="true" />
    <g
       id="g38"
       clip-path="url(#clipPath38)"
       style="display:none">
      <path
         style="color:#000000;display:inline;mix-blend-mode:normal;fill:#ffff00;fill-opacity:1;-inkscape-stroke:none;filter:url(#filter30)"
         d="M 8.55791,67.450299 8.52671,67.34483 c 2.27949,9.0941 4.45618,18.420016 8.47461,27.09375 l 0.0234,0.04883 0.0273,0.04883 c 4.327,7.24937 12.61689,11.84899 21.05664,11.66601 l -0.10742,-0.004 c 5.04805,0.40495 10.03375,0.42618 14.60547,1.96484 l 0.0527,0.0176 0.0547,0.0117 c 2.04577,0.45304 2.7928,1.53151 3.78125,3.07226 0.98846,1.54076 2.11439,3.53327 4.59961,4.78907 l -0.18945,-0.12305 c 1.49035,1.21034 1.7423,2.16933 1.58203,3.46484 -0.16027,1.29551 -0.94127,2.92557 -1.86328,4.7793 l 0.004,-0.006 c -0.571,1.13116 -0.57557,2.31897 -0.17968,3.25781 0.39588,0.93884 1.06999,1.64227 1.74609,2.31446 l 1.49188,-1.49999 c -0.62733,-0.6237 -1.09713,-1.18155 -1.28907,-1.63672 -0.19193,-0.45518 -0.2285,-0.79375 0.11915,-1.48242 l 0.002,-0.002 v -0.004 c 0.91982,-1.84933 1.84065,-3.60452 2.07031,-5.46094 0.22966,-1.85643 -0.43839,-3.81506 -2.34961,-5.36719 l -0.0879,-0.0723 -0.10156,-0.0508 c -1.92325,-0.97182 -2.73605,-2.42898 -3.77149,-4.04296 -1.03065,-1.60654 -2.3899,-3.37679 -5.07226,-3.98438 -4.97691,-1.65792 -10.12426,-1.65487 -15.03516,-2.04883 l -0.0547,-0.004 h -0.0527 C 30.44132,104.2498 22.81255,100.02003 18.8917,93.477127 15.01459,85.083765 12.8578,75.921213 10.5792,66.830642 l -0.0137,-0.05469 -0.0195,-0.05078 z"
         id="path7"
         clip-path="none"
         sodipodi:nodetypes="ccccccccccsccsccsccscccscccscccccsccc" />
      <path
         style="color:#000000;display:inline;mix-blend-mode:normal;fill:#ff0000;fill-opacity:1;-inkscape-stroke:none;filter:url(#filter29)"
         d="M 68.492412,61.248091 C 58.26534,62.800009 53.45992,60.989243 44.93739,67.742074 37.45818,71.933369 32.11443,79.701197 32.45104,88.489032 c 1.06513,5.237839 -1.35044,16.142378 5.54021,17.162958 -4.3951,-8.367189 -4.90216,-19.292708 -0.72081,-27.789547 4.6966,-6.552501 12.10808,-11.117313 19.64578,-13.61275 4.65767,-2.483624 10.641746,2.338694 11.576192,-3.001602 z m -35.895442,34.24127 0.0194,0.28048 z m 2.00977,4.560549 c 0.59244,-0.276749 0.34314,0.87626 0,0 z m -0.97852,0.83398 0.0291,0.34431 z m 1.26758,1.18164 -0.15203,0.0294 z m 0.60742,0.24414 -0.15267,0.0333 z m 0.58789,0.20899 0.16799,0.10714 z m 0.33594,0.49219 0.0437,0.37896 z m 0.58789,1.53711 c -0.0858,1.69801 -2.19515,-0.0197 0,0 z"
         id="path9"
         clip-path="none"
         sodipodi:nodetypes="ccccccccccccccccccccccccccccc" />
      <path
         style="color:#000000;display:inline;mix-blend-mode:normal;fill:#0000ff;fill-opacity:1;-inkscape-stroke:none;filter:url(#filter28)"
         d="m 25.70242,22.989178 c 2.76327,7.228192 1.59127,-2.136447 5.29161,4.708213 9.4121,9.830106 15.37707,25.077067 9.05642,38.13563 -2.05826,3.113401 -4.84495,14.415415 0.24826,6.150178 2.82131,-8.3476 6.57418,-17.2526 3.45823,-26.11534 C 38.67637,29.039386 40.50012,30.338754 25.70242,22.989178 Z m 14.09573,17.697449 -0.0274,0.113079 z m 0.51171,30.650391 -0.0562,0.074 z m -0.52148,0.539062 c 0.31757,0.348171 -0.51998,0.472487 0,0 z m -1.87695,0.04883 -0.0173,0.137573 z m 0.42383,0.06445 -0.007,0.0454 z m 1.12304,0.861329 -0.18904,0.0905 z m -0.92578,0.234375 0.14796,0.02759 z m -0.8125,0.74414 c 0.79446,-0.387859 0.27962,0.509325 0,0 z m -0.26953,0.587891 c 1.40798,-0.804637 0.28727,1.368939 0,0 z"
         id="path12"
         clip-path="none"
         sodipodi:nodetypes="cccccccccccccccccccccccccccccc" />
      <path
         style="color:#000000;display:inline;mix-blend-mode:normal;fill:#00ff00;fill-opacity:1;stroke:none;stroke-opacity:1;-inkscape-stroke:none;filter:url(#filter57)"
         d="m 68.328288,7.545424 c 3.82659,10.671256 1.651672,2.744732 5.625104,13.43994 9.149223,15.111842 18.454194,32.697073 13.21693,50.875443 -1.890214,11.808002 -8.845897,21.813104 -15.765771,31.110963 -3.855454,3.52752 -17.494931,15.54051 -5.560031,8.46821 C 75.822162,102.7165 83.220483,90.646951 87.886865,78.312567 92.090482,64.486423 91.520855,49.46104 84.775153,36.505276 76.939088,21.653291 80.797299,21.801866 69.763578,9.036155 Z m 21.16517,56.137344 c 1.097673,0.04355 -0.900634,0.238736 0,0 z m 0.408203,1.873047 -0.221349,0.08999 z m -0.548828,4.052734 -0.187374,0.242973 z m -1.515625,5.558594 -0.18505,0.02355 z m -26.687498,36.841797 0.23137,0.0343 z m -1.29492,0.40039 -0.28818,0.23313 z m 0.49804,0.4629 c 1.57164,1.20182 -1.9946,1.71338 0,0 z m -1.42383,0.86523 c -0.4415,0.48926 0.78095,0.3384 0,0 z m 0.89649,0.39453 0.0332,0.20195 z"
         id="path13"
         clip-path="none"
         sodipodi:nodetypes="ccccccccccccccccccccccccccccccccc" />
      <path
         style="color:#000000;display:inline;mix-blend-mode:normal;fill:#b300ff;-inkscape-stroke:none;filter:url(#filter56)"
         d="m 114.80776,49.314787 c -0.98687,16.472232 5.52462,23.358916 -7.74565,36.38631 -5.7399,9.347694 -19.851107,11.025234 -26.513112,11.897374 10.196407,4.569609 20.581292,-3.09787 27.688292,-9.934228 8.81174,-9.057016 11.69294,-22.345332 9.57159,-34.523045 -2.60318,1.601906 1.59971,0.284182 -3.00112,-3.826411 z m -36.14829,44.658954 -0.09552,0.0328 z m 38.57813,-23.324223 0.13875,0.237633 z m -0.83594,0.646484 c 2.58276,0.523876 -2.2072,1.210923 0,0 z M 79.5501,94.754991 c 1.205489,1.1038 -1.822333,0.85991 0,0 z m 0.23047,0.0918 -0.0085,0.14436 z m 0.60742,0.41211 0.05104,0.12504 z m 0.38086,0.19922 0.04752,0.11613 z m -0.38867,0.10742 0.04152,0.39693 z m 0.21093,0.38477 -0.02518,0.15024 z m 0.34571,0.1543 -0.0194,0.12677 z m 0.87109,0.082 c 1.337409,2.08845 -2.049841,0.65053 0,0 z m 1.04297,0.61914 0.05847,0.10359 z m 9.554688,0.53906 0.06974,0.14409 z m -11.601568,0.59571 0.304551,0.0728 z m 0.31446,0.0625 0.17205,0.0366 z"
         id="path14"
         clip-path="none"
         sodipodi:nodetypes="cccccccccccccccccccccccccccccccccccccccccccccccc" />
      <path
         style="color:#000000;display:inline;mix-blend-mode:normal;fill:#ff8000;-inkscape-stroke:none;filter:url(#filter58)"
         d="m 130.23108,87.172565 c -4.59756,2.785066 -6.34717,1.470766 -11.53206,0.68915 -5.73444,-1.120951 -1.74238,1.224026 -7.39568,0.876096 -3.01238,-1.17679 -9.00792,1.1411 -3.04178,2.1811 7.19664,0.62837 4.76996,-2.28189 11.97837,-0.71938 4.48558,0.0398 8.76127,2.36057 10.28342,-2.327366 -0.0974,-0.2332 -0.19485,-0.4664 -0.29227,-0.6996 z m -17.1927,1.795316 c -0.18098,0.72446 -0.44859,-0.0289 0,0 z"
         id="path22"
         clip-path="none"
         sodipodi:nodetypes="ccccccccc" />
      <path
         style="color:#000000;display:inline;mix-blend-mode:normal;fill:#ffa8a8;-inkscape-stroke:none;filter:url(#filter24)"
         d="m 114.56543,15.985851 c -7.55393,-0.608895 -10.61767,2.867757 -17.591653,4.938136 -6.624412,1.87476 -10.386002,8.067583 -13.105367,13.907268 0.3752,7.480473 3.872323,-3.668737 5.64289,-5.710838 4.538627,-7.104671 13.91013,-7.29536 20.8297,-10.807228 h 4.8647 z m -15.382519,4.345307 0.329673,0.07596 z m 0.919919,1.353516 -0.0432,0.115226 z m -5.027341,0.246094 c 1.645611,0.460367 0.238549,2.944413 0,0 z"
         id="path23"
         clip-path="none"
         sodipodi:nodetypes="ccccccccccccccc" />
    </g>
  </g>
  <metadata
     id="metadata1">
    <rdf:RDF>
      <cc:Work
         rdf:about="">
        <dc:creator>
          <cc:Agent>
            <dc:title>Jess Tipton</dc:title>
          </cc:Agent>
        </dc:creator>
        <dc:publisher>
          <cc:Agent>
            <dc:title>m0dw3rks.com</dc:title>
          </cc:Agent>
        </dc:publisher>
        <cc:license
           rdf:resource="https://creativecommons.org/licenses/by-nc-nd/4.0/deed.en" />
      </cc:Work>
    </rdf:RDF>
  </metadata>
  <metadata
     id="metadata6">
    <rdf:RDF>
      <cc:Work
         rdf:about="">
        <dc:creator>
          <cc:Agent>
            <dc:title>Jess Tipton</dc:title>
          </cc:Agent>
        </dc:creator>
        <cc:license
           rdf:resource="https://creativecommons.org/licenses/by-nc-nd/4.0/deed.en" />
        <dc:publisher>
          <cc:Agent>
            <dc:title>m0dw3rks.com</dc:title>
          </cc:Agent>
        </dc:publisher>
      </cc:Work>
    </rdf:RDF>
  </metadata>
  <metadata
     id="metadata6">
    <rdf:RDF>
      <cc:Work
         rdf:about="">
        <dc:creator>
          <cc:Agent>
            <dc:title>Jess Tipton</dc:title>
          </cc:Agent>
        </dc:creator>
        <cc:license
           rdf:resource="https://creativecommons.org/licenses/by-nc-nd/4.0/deed.en" />
        <dc:publisher>
          <cc:Agent>
            <dc:title>m0dw3rks.com</dc:title>
          </cc:Agent>
        </dc:publisher>
      </cc:Work>
    </rdf:RDF>
  </metadata>
  <metadata
     id="metadata6">
    <rdf:RDF>
      <cc:Work
         rdf:about="">
        <dc:creator>
          <cc:Agent>
            <dc:title>Jess Tipton</dc:title>
          </cc:Agent>
        </dc:creator>
        <cc:license
           rdf:resource="https://creativecommons.org/licenses/by-nc-nd/4.0/deed.en" />
        <dc:publisher>
          <cc:Agent>
            <dc:title>m0dw3rks.com</dc:title>
          </cc:Agent>
        </dc:publisher>
      </cc:Work>
    </rdf:RDF>
  </metadata>
  <metadata
     id="metadata6">
    <rdf:RDF>
      <cc:Work
         rdf:about="">
        <dc:creator>
          <cc:Agent>
            <dc:title>Jess Tipton</dc:title>
          </cc:Agent>
        </dc:creator>
        <cc:license
           rdf:resource="https://creativecommons.org/licenses/by-nc-nd/4.0/deed.en" />
        <dc:publisher>
          <cc:Agent>
            <dc:title>m0dw3rks.com</dc:title>
          </cc:Agent>
        </dc:publisher>
      </cc:Work>
    </rdf:RDF>
  </metadata>
  <metadata
     id="metadata6">
    <rdf:RDF>
      <cc:Work
         rdf:about="">
        <dc:creator>
          <cc:Agent>
            <dc:title>Jess Tipton</dc:title>
          </cc:Agent>
        </dc:creator>
        <cc:license
           rdf:resource="https://creativecommons.org/licenses/by-nc-nd/4.0/deed.en" />
        <dc:publisher>
          <cc:Agent>
            <dc:title>m0dw3rks.com</dc:title>
          </cc:Agent>
        </dc:publisher>
      </cc:Work>
    </rdf:RDF>
  </metadata>
  <metadata
     id="metadata6">
    <rdf:RDF>
      <cc:Work
         rdf:about="">
        <dc:creator>
          <cc:Agent>
            <dc:title>Jess Tipton</dc:title>
          </cc:Agent>
        </dc:creator>
        <cc:license
           rdf:resource="https://creativecommons.org/licenses/by-nc-nd/4.0/deed.en" />
        <dc:publisher>
          <cc:Agent>
            <dc:title>m0dw3rks.com</dc:title>
          </cc:Agent>
        </dc:publisher>
      </cc:Work>
    </rdf:RDF>
  </metadata>
  <metadata
     id="metadata6">
    <rdf:RDF>
      <cc:Work
         rdf:about="">
        <dc:creator>
          <cc:Agent>
            <dc:title>Jess Tipton</dc:title>
          </cc:Agent>
        </dc:creator>
        <cc:license
           rdf:resource="https://creativecommons.org/licenses/by-nc-nd/4.0/deed.en" />
        <dc:publisher>
          <cc:Agent>
            <dc:title>m0dw3rks.com</dc:title>
          </cc:Agent>
        </dc:publisher>
      </cc:Work>
    </rdf:RDF>
  </metadata>
  <metadata
     id="metadata6">
    <rdf:RDF>
      <cc:Work
         rdf:about="">
        <dc:creator>
          <cc:Agent>
            <dc:title>Jess Tipton</dc:title>
          </cc:Agent>
        </dc:creator>
        <cc:license
           rdf:resource="https://creativecommons.org/licenses/by-nc-nd/4.0/deed.en" />
        <dc:publisher>
          <cc:Agent>
            <dc:title>m0dw3rks.com</dc:title>
          </cc:Agent>
        </dc:publisher>
      </cc:Work>
    </rdf:RDF>
  </metadata>
  <metadata
     id="metadata6">
    <rdf:RDF>
      <cc:Work
         rdf:about="">
        <dc:creator>
          <cc:Agent>
            <dc:title>Jess Tipton</dc:title>
          </cc:Agent>
        </dc:creator>
        <cc:license
           rdf:resource="https://creativecommons.org/licenses/by-nc-nd/4.0/deed.en" />
        <dc:publisher>
          <cc:Agent>
            <dc:title>m0dw3rks.com</dc:title>
          </cc:Agent>
        </dc:publisher>
      </cc:Work>
    </rdf:RDF>
  </metadata>
  <metadata
     id="metadata6">
    <rdf:RDF>
      <cc:Work
         rdf:about="">
        <dc:creator>
          <cc:Agent>
            <dc:title>Jess Tipton</dc:title>
          </cc:Agent>
        </dc:creator>
        <cc:license
           rdf:resource="https://creativecommons.org/licenses/by-nc-nd/4.0/deed.en" />
        <dc:publisher>
          <cc:Agent>
            <dc:title>m0dw3rks.com</dc:title>
          </cc:Agent>
        </dc:publisher>
      </cc:Work>
    </rdf:RDF>
  </metadata>
  <metadata
     id="metadata6">
    <rdf:RDF>
      <cc:Work
         rdf:about="">
        <dc:creator>
          <cc:Agent>
            <dc:title>Jess Tipton</dc:title>
          </cc:Agent>
        </dc:creator>
        <cc:license
           rdf:resource="https://creativecommons.org/licenses/by-nc-nd/4.0/deed.en" />
        <dc:publisher>
          <cc:Agent>
            <dc:title>m0dw3rks.com</dc:title>
          </cc:Agent>
        </dc:publisher>
      </cc:Work>
    </rdf:RDF>
  </metadata>
  <metadata
     id="metadata6">
    <rdf:RDF>
      <cc:Work
         rdf:about="">
        <dc:creator>
          <cc:Agent>
            <dc:title>Jess Tipton</dc:title>
          </cc:Agent>
        </dc:creator>
        <cc:license
           rdf:resource="https://creativecommons.org/licenses/by-nc-nd/4.0/deed.en" />
        <dc:publisher>
          <cc:Agent>
            <dc:title>m0dw3rks.com</dc:title>
          </cc:Agent>
        </dc:publisher>
      </cc:Work>
    </rdf:RDF>
  </metadata>
  <metadata
     id="metadata6">
    <rdf:RDF>
      <cc:Work
         rdf:about="">
        <dc:creator>
          <cc:Agent>
            <dc:title>Jess Tipton</dc:title>
          </cc:Agent>
        </dc:creator>
        <cc:license
           rdf:resource="https://creativecommons.org/licenses/by-nc-nd/4.0/deed.en" />
        <dc:publisher>
          <cc:Agent>
            <dc:title>m0dw3rks.com</dc:title>
          </cc:Agent>
        </dc:publisher>
      </cc:Work>
    </rdf:RDF>
  </metadata>
  <metadata
     id="metadata6">
    <rdf:RDF>
      <cc:Work
         rdf:about="">
        <dc:creator>
          <cc:Agent>
            <dc:title>Jess Tipton</dc:title>
          </cc:Agent>
        </dc:creator>
        <cc:license
           rdf:resource="https://creativecommons.org/licenses/by-nc-nd/4.0/deed.en" />
        <dc:publisher>
          <cc:Agent>
            <dc:title>m0dw3rks.com</dc:title>
          </cc:Agent>
        </dc:publisher>
      </cc:Work>
    </rdf:RDF>
  </metadata>
  <metadata
     id="metadata6">
    <rdf:RDF>
      <cc:Work
         rdf:about="">
        <dc:creator>
          <cc:Agent>
            <dc:title>Jess Tipton</dc:title>
          </cc:Agent>
        </dc:creator>
        <cc:license
           rdf:resource="https://creativecommons.org/licenses/by-nc-nd/4.0/deed.en" />
        <dc:publisher>
          <cc:Agent>
            <dc:title>m0dw3rks.com</dc:title>
          </cc:Agent>
        </dc:publisher>
      </cc:Work>
    </rdf:RDF>
  </metadata>
  <metadata
     id="metadata6">
    <rdf:RDF>
      <cc:Work
         rdf:about="">
        <dc:creator>
          <cc:Agent>
            <dc:title>Jess Tipton</dc:title>
          </cc:Agent>
        </dc:creator>
        <cc:license
           rdf:resource="https://creativecommons.org/licenses/by-nc-nd/4.0/deed.en" />
        <dc:publisher>
          <cc:Agent>
            <dc:title>m0dw3rks.com</dc:title>
          </cc:Agent>
        </dc:publisher>
      </cc:Work>
    </rdf:RDF>
  </metadata>
  <metadata
     id="metadata6">
    <rdf:RDF>
      <cc:Work
         rdf:about="">
        <dc:creator>
          <cc:Agent>
            <dc:title>Jess Tipton</dc:title>
          </cc:Agent>
        </dc:creator>
        <cc:license
           rdf:resource="https://creativecommons.org/licenses/by-nc-nd/4.0/deed.en" />
        <dc:publisher>
          <cc:Agent>
            <dc:title>m0dw3rks.com</dc:title>
          </cc:Agent>
        </dc:publisher>
      </cc:Work>
    </rdf:RDF>
  </metadata>
</svg>
