<?xml version="1.0" encoding="UTF-8" standalone="no"?>
<!-- Created with Inkscape (http://www.inkscape.org/) -->

<svg
   width="512"
   height="512"
   viewBox="0 0 135.46666 135.46667"
   version="1.1"
   id="svg5"
   inkscape:version="1.2.2 (b0a8486541, 2022-12-01)"
   sodipodi:docname="waterfox-light.svg"
   xmlns:inkscape="http://www.inkscape.org/namespaces/inkscape"
   xmlns:sodipodi="http://sodipodi.sourceforge.net/DTD/sodipodi-0.dtd"
   xmlns:xlink="http://www.w3.org/1999/xlink"
   xmlns="http://www.w3.org/2000/svg"
   xmlns:svg="http://www.w3.org/2000/svg">
  <sodipodi:namedview
     id="namedview7"
     pagecolor="#505050"
     bordercolor="#ffffff"
     borderopacity="1"
     inkscape:showpageshadow="0"
     inkscape:pageopacity="0"
     inkscape:pagecheckerboard="1"
     inkscape:deskcolor="#505050"
     inkscape:document-units="mm"
     showgrid="false"
     showguides="true"
     inkscape:zoom="1.0230034"
     inkscape:cx="482.40309"
     inkscape:cy="233.62581"
     inkscape:window-width="3256"
     inkscape:window-height="1080"
     inkscape:window-x="1864"
     inkscape:window-y="0"
     inkscape:window-maximized="1"
     inkscape:current-layer="layer1" />
  <defs
     id="defs2">
    <linearGradient
       inkscape:collect="always"
       id="linearGradient2530">
      <stop
         style="stop-color:#a5b6ff;stop-opacity:1;"
         offset="0"
         id="stop2526" />
      <stop
         style="stop-color:#b5d0ff;stop-opacity:1;"
         offset="1"
         id="stop2528" />
    </linearGradient>
    <linearGradient
       inkscape:collect="always"
       id="linearGradient2837">
      <stop
         style="stop-color:#2600ff;stop-opacity:0;"
         offset="0"
         id="stop2833" />
      <stop
         style="stop-color:#000000;stop-opacity:1;"
         offset="1"
         id="stop2835" />
    </linearGradient>
    <linearGradient
       inkscape:collect="always"
       id="linearGradient1150">
      <stop
         style="stop-color:#5576ff;stop-opacity:1;"
         offset="0"
         id="stop1146" />
      <stop
         style="stop-color:#86d7ff;stop-opacity:1;"
         offset="1"
         id="stop1148" />
    </linearGradient>
    <linearGradient
       inkscape:collect="always"
       id="linearGradient2826">
      <stop
         style="stop-color:#3823b0;stop-opacity:1;"
         offset="0"
         id="stop2822" />
      <stop
         style="stop-color:#0c005d;stop-opacity:1;"
         offset="1"
         id="stop2824" />
    </linearGradient>
    <linearGradient
       inkscape:collect="always"
       id="linearGradient22781">
      <stop
         style="stop-color:#ff6600;stop-opacity:1;"
         offset="0"
         id="stop22777" />
      <stop
         style="stop-color:#ffc200;stop-opacity:1;"
         offset="1"
         id="stop22779" />
    </linearGradient>
    <linearGradient
       inkscape:collect="always"
       xlink:href="#linearGradient2530"
       id="linearGradient22783"
       x1="23.206393"
       y1="67.733331"
       x2="112.26027"
       y2="67.733331"
       gradientUnits="userSpaceOnUse"
       gradientTransform="matrix(-1.5042739,0,0,1.5042739,169.62354,-34.155834)" />
    <clipPath
       clipPathUnits="userSpaceOnUse"
       id="clipPath2083">
      <path
         fill="currentColor"
         class="ColorScheme-Text"
         d="m -59.735424,124.0297 c -18.180812,-1.71213 -34.175573,-14.71578 -38.946923,-31.663595 -0.56651,-2.012534 -1.438883,-7.760158 -1.582353,-10.426983 -0.0231,-0.422405 -0.15777,-0.358666 -0.43103,0.204052 -0.70745,1.453605 -0.0652,-4.68889 0.833463,-7.962358 0.460902,-1.680588 0.768871,-3.122869 0.68431,-3.205144 -0.0841,-0.08204 -0.459438,0.372761 -0.832833,1.011 -0.63824,1.09094 -0.66285,1.099142 -0.41168,0.138845 0.682004,-2.607926 3.221345,-8.001148 4.975385,-10.566897 1.24724,-1.82426 1.93639,-3.278619 1.93639,-4.086201 0,-3.519676 2.13837,-9.128668 4.538059,-11.903369 l 1.218631,-1.409004 0.28861,2.022422 c 0.189328,1.326544 0.826508,2.796135 1.85224,4.271341 l 1.563618,2.248942 4.625372,0.246335 c 2.543948,0.134631 4.93776,0.378018 5.319578,0.539366 0.465942,0.197742 1.33895,-0.185118 2.65521,-1.16246 2.47564,-1.837515 5.959671,-2.866146 8.469204,-2.500177 l 1.855814,0.270737 -2.030627,1.560886 c -2.109049,1.621261 -4.705929,5.102862 -4.705929,6.309331 0,1.034986 1.240078,2.679845 2.480238,3.289541 0.601631,0.295769 2.274642,0.663273 3.717727,0.816837 1.443085,0.153567 3.207985,0.476888 3.921932,0.719016 1.122701,0.380547 1.2628,0.585229 1.036455,1.513557 -0.490353,2.011905 -1.76031,3.116704 -5.934067,5.162497 l -4.171085,2.044509 -0.0799,2.613205 c -0.0989,3.197736 -0.51875,3.721225 -2.04892,2.550687 -1.45487,-1.112817 -2.34624,-1.099984 -3.416099,0.05046 -2.48562,2.670805 -0.9521,6.097122 4.23735,9.467126 1.930069,1.253336 4.812789,1.415314 8.073996,0.45312 1.135324,-0.334897 3.066933,-0.610894 4.292592,-0.613421 3.478633,-0.0067 6.812055,2.005386 6.812055,4.112125 0,1.225566 -0.704083,1.67322 -2.081326,1.322962 -0.589857,-0.149355 -2.2952,0.452702 -4.937033,1.744959 -3.705635,1.812472 -4.332851,1.987912 -7.661796,2.142619 -1.994228,0.09256 -4.368678,-0.03159 -5.276707,-0.274733 -0.908132,-0.243805 -1.72012,-0.375917 -1.804691,-0.293666 -0.453329,0.440918 4.59726,4.594693 6.808348,5.599261 11.143546,5.06286 24.783934,-0.792234 28.405005,-12.192934 1.023832,-3.223321 1.125017,-8.497435 0.218565,-11.402497 -0.344361,-1.103982 -0.628137,-2.15175 -0.630661,-2.328333 -0.01561,-1.087993 5.037751,3.238209 7.01453,6.005319 1.756944,2.459469 1.501767,1.373241 -0.397801,-1.692994 -1.565934,-2.527615 -3.654605,-4.584285 -9.330698,-9.187368 -8.47907,-6.876193 -11.331162,-13.880203 -9.117899,-22.391288 1.182026,-4.545341 5.058857,-11.876318 6.27725,-11.869965 0.161981,7.94e-4 0.656545,0.8587 1.099773,1.906513 0.56819,1.343163 2.055873,3.09123 5.04472,5.927524 2.331397,2.21238 4.353968,4.022505 4.494599,4.022505 0.140943,0 0.533265,-0.965983 0.872577,-2.146728 l 0.616993,-2.146723 0.663064,2.082376 c 0.959461,3.012935 2.056715,4.931542 4.538885,7.935746 3.3489,4.053261 6.21961,8.335288 7.61362,11.356636 1.45907,3.162652 2.8918,7.935934 2.8918,9.635091 0,0.836192 0.16829,1.113449 0.58439,0.958411 1.32906,-0.496036 1.47127,5.472615 0.26589,11.153679 -0.55009,2.592589 -1.47127,5.153457 -2.79503,7.769143 -1.49274,2.949808 -1.99782,4.433613 -2.07018,6.081551 -0.13673,3.093436 -2.50979,7.626156 -5.24795,10.020206 -1.15573,1.01037 -3.565169,2.67469 -5.354536,3.69846 -1.78934,1.02384 -4.390556,2.93733 -5.780399,4.25235 -3.916543,3.70563 -8.364757,5.40801 -16.237921,6.21441 -4.35397,0.44597 -4.566479,0.44555 -9.481741,-0.0178 z"
         id="path2085"
         style="color:#ececec;display:inline;fill:url(#linearGradient2087);fill-opacity:1;stroke-width:5.56583"
         inkscape:label="fox" />
    </clipPath>
    <linearGradient
       inkscape:collect="always"
       xlink:href="#linearGradient22781"
       id="linearGradient2087"
       gradientUnits="userSpaceOnUse"
       gradientTransform="translate(-124.20394,12.120672)"
       x1="23.206393"
       y1="67.733331"
       x2="112.26027"
       y2="67.733331" />
    <filter
       inkscape:collect="always"
       style="color-interpolation-filters:sRGB"
       id="filter2089"
       x="-0.047999837"
       y="-0.048000165"
       width="1.0959997"
       height="1.0960003">
      <feGaussianBlur
         inkscape:collect="always"
         stdDeviation="1.7810697"
         id="feGaussianBlur2091" />
    </filter>
    <radialGradient
       inkscape:collect="always"
       xlink:href="#linearGradient2826"
       id="radialGradient2828"
       cx="67.73333"
       cy="67.73333"
       fx="67.73333"
       fy="67.73333"
       r="50"
       gradientUnits="userSpaceOnUse" />
    <radialGradient
       inkscape:collect="always"
       xlink:href="#linearGradient2837"
       id="radialGradient2828-3"
       cx="67.73333"
       cy="67.73333"
       fx="67.73333"
       fy="67.73333"
       r="50"
       gradientUnits="userSpaceOnUse"
       gradientTransform="translate(1.917806e-6)" />
    <filter
       inkscape:collect="always"
       style="color-interpolation-filters:sRGB"
       id="filter6509"
       x="-0.018919924"
       y="-0.025175631"
       width="1.0378398"
       height="1.0503513">
      <feGaussianBlur
         inkscape:collect="always"
         stdDeviation="1.045706"
         id="feGaussianBlur6511" />
    </filter>
    <linearGradient
       inkscape:collect="always"
       xlink:href="#linearGradient1150"
       id="linearGradient6546"
       gradientUnits="userSpaceOnUse"
       gradientTransform="matrix(1.5042739,0,0,1.5042739,-546.18651,-5.9863975)"
       x1="23.206393"
       y1="67.733331"
       x2="112.26027"
       y2="67.733331" />
    <linearGradient
       inkscape:collect="always"
       xlink:href="#linearGradient1150"
       id="linearGradient9480"
       gradientUnits="userSpaceOnUse"
       gradientTransform="matrix(1.5042739,0,0,1.5042739,-34.148284,-34.152967)"
       x1="23.206393"
       y1="67.733331"
       x2="112.26027"
       y2="67.733331" />
  </defs>
  <g
     inkscape:label="Layer 1"
     inkscape:groupmode="layer"
     id="layer1"
     style="display:inline">
    <circle
       style="display:inline;opacity:1;fill:url(#radialGradient2828);fill-opacity:1;stroke:none;stroke-width:0.609272;stroke-linecap:round;stroke-linejoin:round;paint-order:stroke fill markers"
       id="path2040"
       cx="67.73333"
       cy="67.73333"
       r="50" />
    <path
       style="color:#000000;fill:#008000;stroke-linecap:round;stroke-linejoin:round;-inkscape-stroke:none;paint-order:stroke fill markers"
       d="M 56.374933,87.917366 C 36.059847,71.058187 43.789803,57.083516 53.571747,49.966071 c -4.304646,1.338272 -12.078483,-4.955283 -4.957296,-8.403706 3.335452,-1.225555 -3.613906,1.251653 -4.00996,-1.186137 -4.344096,2.118516 -2.332612,-2.315781 6.519916,-8.241839 5.021389,-2.584606 2.998538,-7.942163 -0.06143,-9.651558 1.238292,-4.566986 13.410966,-4.588644 11.023947,-1.474983 -4.946042,-0.5251 -4.410695,1.225572 -1.706892,5.192655 -2.252465,4.766635 1.384248,5.245362 7.567584,1.545803 4.711314,-1.310893 4.54731,9.920097 -2.685238,10.670486 -4.470394,2.734809 -3.310626,-0.650649 -3.196367,5.004765 3.958876,3.546134 3.031884,0.550515 2.73058,6.563719 13.142622,-3.321113 12.358667,14.253149 12.374024,16.384552 0.01536,2.131404 -20.795682,21.547538 -20.795682,21.547538 z"
       id="path4004-3"
       sodipodi:nodetypes="cccccccccccczc" />
    <path
       style="color:#000000;fill:#cccccc;stroke-linecap:round;stroke-linejoin:round;-inkscape-stroke:none;paint-order:stroke fill markers"
       d="m 71.647285,81.501752 c 4.44919,-6.522361 -3.54828,-14.690743 1.26698,-20.972973 3.58152,-3.619068 5.89722,6.442606 4.61257,-0.285186 -2.59244,-6.688327 4.00607,-12.853419 8.94654,-6.299305 -1.51612,-4.245264 4.4487,-12.274101 8.19028,-5.302485 1.36321,3.281595 1.88944,3.939345 4.30865,3.442254 -2.29734,-4.252235 -1.07352,-9.92497 5.215545,-1.326549 2.7912,4.909558 8.05999,2.665652 9.64067,-0.462752 4.61452,1.047294 5.14238,13.208534 1.93215,10.953065 0.31896,-4.963601 -3.04518,-2.523061 -6.89639,0.343371 -4.85619,-2.052283 -9.889975,-4.911576 -5.93647,1.112565 1.50568,4.652721 -3.378455,9.635836 -4.428965,2.440758 -2.91836,-4.352797 -3.29152,-15.313963 -8.93729,-14.964611 -3.37843,4.102923 3.37997,15.03129 -2.64056,14.980311 -9.07174,-2.541276 -6.48305,10.880778 -10.21574,3.381407 -0.94067,-4.285061 -3.50758,-5.844503 -2.7237,-0.25144 0.55482,3.34916 4.14118,15.427431 -2.33427,13.21157 z"
       id="path4004-6"
       sodipodi:nodetypes="ccccccccccccccccc" />
    <path
       style="color:#000000;fill:#e6e6e6;stroke-linecap:round;stroke-linejoin:round;-inkscape-stroke:none;paint-order:stroke fill markers"
       d="m 47.583271,22.686478 c 4.944655,6.155222 15.087421,0.882047 19.695775,7.317587 2.419706,4.479953 -7.880316,3.766281 -1.069932,4.495816 7.153338,-0.533112 11.130503,7.574343 3.422024,10.392861 4.502765,-0.214616 10.447435,7.829156 2.688545,9.379168 -3.536316,0.34885 -12.54911,-0.6115 -12.77781,1.847642 4.736851,-0.959963 18.037971,3.134561 7.981127,6.648148 -5.509472,1.241071 -4.896565,6.9349 -2.363799,9.35782 -2.345281,4.109791 -14.133474,1.074504 -11.041155,-1.340099 4.65577,1.750106 7.704249,-0.03866 6.08309,-4.557526 3.377095,-4.048412 3.173971,-10.17194 -3.740161,-8.143366 -4.889532,0.08601 -8.234997,-6.037237 -1.04572,-4.94768 5.013838,-1.524803 15.608893,1.309118 16.918225,-4.193827 -2.94172,-4.426517 -15.36422,-1.142207 -13.562804,-6.887144 3.530549,0.444333 12.895203,-0.604261 4.169385,-0.918448 -5.367644,-0.791998 -3.074304,-6.664474 1.501491,-4.532142 -4.069214,0.233425 -16.083787,-4.090844 -5.9319,-5.307063 4.373306,0.347506 6.612471,-1.654258 1.033452,-2.532531 -3.36562,-0.44419 -15.964801,-0.529293 -11.959833,-6.079216 z m 21.013672,8.558594 c -0.71739,0.246646 0.495671,0.462446 0,0 z m -1.630859,1.048828 0.193222,0.08574 z m 0.970703,0.232422 -0.135832,0.02395 z m -10.478516,9.558594 0.160253,0.0183 z m 8.339844,17.384765 c -0.810747,1.075294 1.50367,0.801504 0,0 z M 53.182881,70.493119 c -2.65951,-0.439608 0.809918,0.960014 0,0 z"
       id="path4004" />
    <path
       style="color:#000000;fill:#e6e6e6;stroke-linecap:round;stroke-linejoin:round;-inkscape-stroke:none;paint-order:stroke fill markers"
       d="m 97.578125,49.666016 c -5.766415,0.486807 -1.232633,7.3107 -2.385466,7.609233 -7.162239,1.886621 -0.636962,2.868202 2.45193,4.330449 7.050831,7.223751 -11.893556,2.774017 -6.786519,8.854345 3.207072,-2.083949 8.307622,3.022117 2.749705,2.117785 -6.507691,-4.558044 -8.958317,6.312048 -1.399358,6.289852 1.270332,3.378025 -4.043764,8.028647 -0.158431,10.766164 -3.425909,1.933923 -6.895197,8.886554 -0.01558,7.079297 8.485454,2.032666 -4.303473,7.611629 -2.269364,9.260389 4.415714,-1.93106 11.087628,-11.066002 1.514558,-9.555039 -6.304022,-3.665725 7.24601,-5.395194 1.052899,-10.358479 -0.192184,-4.249543 5.175696,-8.60144 -2.716201,-9.485935 -5.993362,-6.737285 11.313752,0.779559 7.718461,-6.333501 -4.19239,0.323473 -8.20344,-2.939181 -1.831716,-2.53941 9.497517,-1.213287 3.386177,-7.478026 -1.142898,-9.005782 8.110635,0.824541 -1.589059,-5.429122 1.999173,-6.888253 2.137508,0.03343 4.672932,0.273915 1.218804,-2.141115 z m -2.228516,28.99414 -0.248417,0.03676 z m -5.05664,7.994141 0.05511,0.05843 z"
       id="path4732" />
    <circle
       style="display:inline;fill:url(#radialGradient2828-3);fill-opacity:1;stroke:none;stroke-width:0.609272;stroke-linecap:round;stroke-linejoin:round;paint-order:stroke fill markers"
       id="path2040-5"
       cx="67.73333"
       cy="67.73333"
       r="50" />
    <path
       fill="currentColor"
       class="ColorScheme-Text"
       d="m 72.645239,134.18598 c 27.348918,-2.57552 51.409421,-22.13655 58.586841,-47.630704 0.85218,-3.027403 2.16447,-11.673402 2.38029,-15.68504 0.0348,-0.635411 0.23732,-0.539531 0.64838,0.306953 1.0642,2.186617 0.0981,-7.053378 -1.25374,-11.977567 -0.69333,-2.528064 -1.1566,-4.697653 -1.02939,-4.821414 0.12658,-0.123411 0.69111,0.560734 1.2528,1.520821 0.96008,1.641071 0.9971,1.65341 0.61927,0.208858 -1.0259,-3.923033 -4.84577,-12.035916 -7.48433,-15.895505 -1.87619,-2.744186 -2.91286,-4.931944 -2.91286,-6.146766 0,-5.294557 -3.2167,-13.732019 -6.82648,-17.905926 l -1.83315,-2.119531 -0.43416,3.042277 c -0.2848,1.995484 -1.2433,4.206152 -2.78628,6.425267 l -2.35211,3.383024 -6.95782,0.370555 c -3.826798,0.202522 -7.427748,0.568646 -8.002098,0.811356 -0.700913,0.297459 -2.014152,-0.278469 -3.994163,-1.74866 -3.724051,-2.764122 -8.964976,-4.311465 -12.740008,-3.760949 l -2.791653,0.40726 3.054623,2.348004 c 3.172587,2.43882 7.079005,7.676103 7.079005,9.490961 0,1.5569 -1.865424,4.031219 -3.730956,4.94837 -0.90502,0.444918 -3.421687,0.997745 -5.592484,1.228748 -2.170795,0.231004 -4.825687,0.717368 -5.899656,1.081594 -1.688854,0.57245 -1.8996,0.880345 -1.559114,2.276808 0.737624,3.026454 2.64799,4.688376 8.926463,7.765809 l 6.274455,3.075501 0.120252,3.930973 c 0.148727,4.810272 0.780339,5.597743 3.082141,3.836932 2.188517,-1.67398 3.529379,-1.654676 5.138745,0.0759 3.739046,4.017621 1.432215,9.17174 -6.374135,14.241147 -2.903362,1.885364 -7.239754,2.129022 -12.145501,0.681618 -1.70784,-0.503778 -4.613507,-0.918952 -6.457236,-0.922752 -5.232815,-0.01009 -10.247194,3.016648 -10.247194,6.185761 0,1.843588 1.059133,2.516984 3.130883,1.9901 0.887309,-0.224672 3.45261,0.680984 7.426651,2.624894 5.574288,2.726457 6.517796,2.990365 11.525439,3.223087 2.999865,0.139236 6.571681,-0.04751 7.937608,-0.413274 1.366079,-0.36675 2.587543,-0.56548 2.714761,-0.441753 0.681934,0.663261 -6.915539,6.911675 -10.241628,8.422817 -16.762942,7.615926 -37.281821,-1.191728 -42.728907,-18.34151 -1.540118,-4.848757 -1.692338,-12.782471 -0.328777,-17.152477 0.518004,-1.660692 0.944884,-3.236823 0.94868,-3.502451 0.02343,-1.636638 -7.578161,4.871156 -10.551771,9.033644 -2.64293,3.699717 -2.25907,2.065733 0.5984,-2.546728 2.35559,-3.802223 5.49753,-6.896017 14.035926,-13.820312 C 53.626097,41.948024 57.916424,31.412076 54.58707,18.609071 52.808978,11.771636 46.977163,0.74383991 45.144367,0.75339505 c -0.243666,0.001254 -0.987623,1.29171845 -1.654359,2.86791775 -0.854716,2.020485 -3.092599,4.6500581 -7.588638,8.9166192 -3.507065,3.328026 -6.549565,6.05095 -6.761115,6.05095 -0.21201,0 -0.80217,-1.453105 -1.31259,-3.229266 l -0.92813,-3.22926 -0.99743,3.132461 c -1.44329,4.53228 -3.09386,7.418392 -6.82773,11.937539 -5.03766,6.097212 -9.3559896,12.538555 -11.4529696,17.083489 -2.19483,4.757495 -4.35005,11.937819 -4.35005,14.493816 0,1.257859 -0.25316,1.674932 -0.87908,1.441711 -1.99927996,-0.746171 -2.21319996,8.232314 -0.39997,16.778192 0.82748,3.899963 2.21318,7.752207 4.20449,11.686915 2.24549,4.437322 3.00527,6.66937 3.11411,9.148328 0.20569,4.653363 3.7754096,11.471813 7.8943596,15.073123 1.73852,1.51987 5.36299,4.02346 8.05468,5.56349 2.69166,1.54014 6.60461,4.41855 8.6953,6.3967 5.891556,5.57428 12.582894,8.13513 24.426289,9.34818 6.549562,0.67085 6.869234,0.67023 14.263133,-0.0268 z"
       id="path2024"
       style="color:#ececec;display:inline;fill:url(#linearGradient22783);fill-opacity:1;stroke:#000000;stroke-width:1.50427;stroke-linecap:round;stroke-linejoin:round;stroke-dasharray:none;stroke-opacity:1;paint-order:stroke fill markers"
       inkscape:label="fox" />
    <path
       id="path2024-7"
       style="color:#ececec;display:inline;opacity:1;mix-blend-mode:color-burn;fill:#000000;fill-opacity:1;stroke-width:5.56583;filter:url(#filter2089)"
       class="ColorScheme-Text"
       inkscape:label="fox"
       d="m -41.453823,35.32744 c -1.218391,-0.0064 -5.095111,7.324742 -6.277137,11.870077 -2.21326,8.511078 0.638727,15.515211 9.11779,22.391398 5.676087,4.603077 7.764764,6.659424 9.330697,9.187036 1.899564,3.066234 2.154853,4.152387 0.397908,1.69292 -1.976776,-2.767105 -7.030169,-7.093309 -7.014559,-6.005318 0.0025,0.176582 0.286094,1.224559 0.630453,2.32854 0.906452,2.905058 0.805757,8.179088 -0.218075,11.402405 -3.621066,11.400693 -17.261451,17.255902 -28.404984,12.193052 -2.211091,-1.004564 -7.261701,-5.158222 -6.80837,-5.59914 0.08457,-0.08225 0.896411,0.04972 1.804541,0.293522 0.90803,0.243144 3.282454,0.367479 5.27668,0.274919 3.328941,-0.154707 3.955918,-0.330549 7.661548,-2.143022 2.641831,-1.292256 4.347308,-1.893951 4.937167,-1.744596 1.37724,0.350258 2.081526,-0.09735 2.081526,-1.322917 0,-2.106736 -3.333359,-4.11911 -6.811987,-4.11241 -1.225659,0.0025 -3.157437,0.278502 -4.292761,0.613399 -3.261203,0.962193 -6.143853,0.800135 -8.073926,-0.453202 -5.189442,-3.37 -6.72308,-6.796321 -4.237468,-9.467123 1.069861,-1.150441 1.961465,-1.162941 3.416329,-0.05013 1.530174,1.170538 1.949584,0.646985 2.048454,-2.550748 l 0.0801,-2.613278 4.171321,-2.044319 c 4.173752,-2.045791 5.443653,-3.151091 5.934005,-5.162993 0.226346,-0.928329 0.08607,-1.132537 -1.036629,-1.513085 -0.713945,-0.242127 -2.478641,-0.565772 -3.921725,-0.719336 -1.443084,-0.153564 -3.11597,-0.520719 -3.717602,-0.816488 -1.240153,-0.609696 -2.480469,-2.254739 -2.480469,-3.289722 0,-1.206468 2.596609,-4.687916 4.705656,-6.309175 l 2.030884,-1.561145 -1.855701,-0.270785 c -2.509535,-0.365968 -5.993606,0.662595 -8.46925,2.500106 -1.316256,0.977342 -2.189188,1.360461 -2.655136,1.16272 -0.381811,-0.161347 -2.775622,-0.404871 -5.319571,-0.539502 l -4.625558,-0.246497 -1.563729,-2.248958 c -1.025728,-1.475206 -1.662756,-2.944515 -1.852083,-4.271057 l -0.288871,-2.022616 -1.218531,1.409216 c -2.399681,2.774697 -4.537707,8.383477 -4.537707,11.90315 0,0.80758 -0.689599,2.262314 -1.936833,4.086572 -1.75404,2.565746 -4.292894,7.958876 -4.974884,10.566797 -0.25117,0.960298 -0.2269,0.951928 0.41134,-0.13901 0.373389,-0.638238 0.748873,-1.092831 0.833023,-1.010791 0.08456,0.08227 -0.223294,1.524386 -0.684196,3.204973 -0.898657,3.273462 -1.540987,9.415906 -0.833537,7.962304 0.27326,-0.562719 0.40778,-0.626525 0.43098,-0.204122 0.14347,2.666825 1.015821,8.414739 1.58233,10.427271 4.771345,16.947798 20.766184,29.951058 38.946976,31.663188 v 10e-4 c 4.915257,0.46335 5.128144,0.46406 9.482109,0.0181 7.873156,-0.8064 12.321229,-2.50899 16.237768,-6.21461 1.389841,-1.31502 3.991188,-3.22862 5.780526,-4.25246 1.789364,-1.02376 4.198466,-2.68811 5.354195,-3.69848 2.738157,-2.39405 5.111529,-6.92663 5.248259,-10.02006 0.07236,-1.647938 0.577419,-3.131475 2.070158,-6.081281 1.323758,-2.615683 2.245088,-5.176965 2.795178,-7.769551 1.205379,-5.681059 1.062925,-11.649358 -0.266134,-11.153325 -0.416099,0.155038 -0.58446,-0.122408 -0.58446,-0.958597 0,-1.699156 -1.432745,-6.472422 -2.891813,-9.635071 -1.394009,-3.021345 -4.264593,-7.303158 -7.613489,-11.356413 -2.482168,-3.004202 -3.579281,-4.923018 -4.538741,-7.93595 l -0.663009,-2.08256 -0.617016,2.147156 c -0.339312,1.180742 -0.731874,2.146639 -0.872815,2.146639 -0.140632,0 -2.162905,-1.810116 -4.4943,-4.022494 -2.988845,-2.83629 -4.476978,-4.584641 -5.04517,-5.927803 -0.443227,-1.047813 -0.937691,-1.90551 -1.099674,-1.906344 z m -0.379305,2.121835 c 0.152972,-0.0031 0.260546,0.592327 0.42323,0.728637 1.621977,2.520194 3.860485,4.572576 6.03529,6.608899 1.206629,1.034887 2.293653,2.218106 3.583244,3.149679 0.797912,0.71528 2.044237,0.24706 2.460315,-0.657324 0.447007,1.022907 0.970789,2.012998 1.577681,2.950207 1.958591,2.788149 4.240628,5.385379 6.151046,8.147823 2.081442,2.890341 3.840133,6.046568 4.981091,9.482109 0.533626,1.692565 1.135247,3.398405 1.335319,5.166609 -0.01272,1.081812 0.26932,2.51988 1.470195,2.848922 0.26179,0.405097 0.155485,1.111796 0.222725,1.639177 0.09209,3.818721 -0.562333,7.662191 -1.768884,11.233939 -1.066467,3.244094 -3.235236,6.089052 -3.775997,9.506397 -0.09788,2.107161 -0.736356,4.159731 -1.776636,5.990841 -1.29648,2.60866 -3.628507,4.61235 -5.997049,6.11022 -2.836481,1.73538 -5.686222,3.48993 -8.152474,5.74022 -2.697513,2.68959 -6.299716,4.26713 -9.987505,5.04569 -3.307756,0.64676 -6.6007,1.06524 -9.985437,1.11724 -2.907987,-0.0624 -5.751417,-0.37587 -8.599475,-0.90227 -7.550322,-1.43722 -14.659671,-4.93465 -20.475236,-9.89603 -5.765254,-4.94463 -10.242285,-11.29855 -12.608532,-18.513598 -0.853149,-2.720942 -1.320049,-5.619138 -1.664498,-8.4677 -0.18041,-1.198479 -0.217756,-2.41262 -0.401526,-3.605981 -0.01528,-0.520148 -0.696774,-0.780969 -0.550354,-1.284676 0.23414,-2.271946 0.69617,-4.45351 1.26814,-6.668327 0.187819,-1.133779 0.887685,-2.466295 0.08527,-3.509864 0.496669,-1.213836 1.037565,-2.410264 1.629874,-3.580143 0.969079,-2.273409 2.578721,-4.185056 3.66696,-6.392891 0.777529,-1.36264 0.70255,-2.955048 0.95033,-4.456576 0.522949,-2.686935 1.54137,-5.298587 3.012219,-7.611421 0.792289,2.368694 2.390727,4.334122 3.787366,6.364986 3.182066,0.20764 6.351695,0.252947 9.518282,0.640787 1.137528,0.323436 2.399005,0.293338 3.442683,-0.32246 1.999458,-1.417024 4.156892,-2.797621 6.642489,-3.11919 -0.506019,0.477 -0.983084,0.985429 -1.431954,1.516703 -1.020469,1.295682 -2.100713,2.632817 -2.591573,4.231267 -0.447679,1.979051 0.931286,3.855285 2.438094,4.984708 2.507038,1.677147 5.691784,1.236437 8.472351,2.091862 0.05586,0.380012 -0.407048,0.872312 -0.693497,1.197343 -2.750868,2.231342 -6.172872,3.368342 -9.253699,5.050338 -0.07548,1.501976 -0.06113,3.008166 -0.172083,4.508252 -0.717099,-0.4424 -1.536454,-0.812289 -2.398303,-0.75551 -2.466968,0.349214 -4.21557,2.889321 -4.16357,5.300969 0.13652,2.855455 2.264787,5.099498 4.419885,6.741707 1.642928,1.433706 3.705718,2.415572 5.905066,2.513542 2.327458,0.247395 4.554242,-0.573262 6.805269,-0.995805 1.403099,-0.231628 2.944374,-0.313444 4.418852,0.103353 1.116369,0.373828 2.418992,0.885443 2.954342,2.009696 -0.902989,-0.232452 -1.820312,0.147969 -2.684591,0.381372 -2.934297,0.937981 -5.466362,3.005885 -8.600509,3.31556 -1.994238,0.189746 -4.023221,0.246245 -6.013069,-0.01137 -1.009039,-0.0752 -1.985305,-0.550298 -2.998784,-0.441834 -1.151548,0.168743 -1.824736,1.57405 -1.185457,2.564701 0.963619,1.520526 2.48727,2.574185 3.854028,3.708301 3.916707,3.223549 9.123414,4.602589 14.139189,4.305679 7.891712,-0.39632 15.529382,-5.135849 18.99884,-12.297956 2.007892,-4.182351 2.44401,-9.023145 1.681552,-13.567647 1.550697,1.399505 2.892257,3.010541 4.153751,4.670516 0.659108,1.29784 2.914067,0.988831 3.125391,-0.473356 0.0175,-1.160411 -0.668099,-2.21065 -1.223181,-3.194637 -2.034539,-3.592315 -5.157558,-6.371953 -8.327657,-8.94054 -3.808712,-3.062087 -7.694289,-6.382062 -9.753927,-10.927498 -1.915058,-3.964449 -1.730984,-8.622776 -0.382406,-12.729973 1.012929,-2.839754 2.215506,-5.557297 3.835942,-8.101831 0.06491,-0.17315 0.120575,-0.240799 0.171566,-0.241845 z"
       clip-path="url(#clipPath2083)"
       transform="matrix(-1.5042739,0,0,1.5042739,-17.213565,-52.388397)" />
  </g>
  <g
     inkscape:groupmode="layer"
     id="layer2"
     inkscape:label="Layer 2"
     style="display:none">
    <path
       id="path3936"
       clip-path="none"
       style="color:#000000;opacity:0.434084;mix-blend-mode:overlay;fill:#ffffff;-inkscape-stroke:none;filter:url(#filter6509)"
       d="m 104.96775,25.740548 c -3.62729,-0.209573 -7.386192,1.150918 -10.844813,5.022432 l -0.07028,0.07596 -0.04858,0.09198 c -1.577778,2.915195 -3.197126,4.357954 -4.822444,4.991943 -1.625309,0.63399 -3.35835,0.493828 -5.277198,-0.06821 -0.89394,-0.261842 -1.816017,-0.624569 -2.758488,-1.026294 0.255522,0.759804 0.547145,1.513684 0.876949,2.261878 0.461483,0.165738 0.923549,0.32256 1.385446,0.457853 2.122677,0.621746 4.309411,0.839146 6.415629,0.01757 2.081638,-0.81199 3.982959,-2.605567 5.672522,-5.687508 4.228817,-4.696398 8.327797,-5.132922 12.486067,-3.761528 4.17706,1.377593 8.32555,4.776466 11.87886,7.911662 l 0.16795,0.146761 0.21652,0.05064 c 1.09655,0.25517 2.12452,0.327812 3.1104,0.296106 -0.39577,-0.593583 -0.81346,-1.197893 -1.23816,-1.805575 -0.4276,-0.04204 -0.86081,-0.09602 -1.31568,-0.195337 -3.54022,-3.11579 -7.70182,-6.576444 -12.26747,-8.082194 -1.16396,-0.383873 -2.35813,-0.628291 -3.56723,-0.698148 z m -82.447678,9.049577 c -0.31778,0.007 -0.63524,0.03936 -0.949812,0.09405 -2.516568,0.437553 -4.973715,2.142673 -7.437273,3.790983 -2.153385,1.440781 -4.2898205,2.795037 -6.1980708,3.412195 -0.3846026,0.650146 -0.7773485,1.352627 -1.1746053,2.091345 0.2354565,-0.02614 0.4712118,-0.04991 0.7043497,-0.09767 2.6395084,-0.540677 5.1847514,-2.290767 7.6486284,-3.939294 2.463888,-1.648527 4.854886,-3.188478 6.759794,-3.519682 0.95245,-0.165602 1.75037,-0.06915 2.533179,0.394808 0.782809,0.463959 1.58495,1.347301 2.339909,2.898531 l 0.01344,0.02739 0.01395,0.02532 c 1.480838,2.587889 3.249786,4.236807 5.192964,5.089612 1.943178,0.852804 4.01515,0.889572 6.019788,0.433565 3.867126,-0.87968 7.5503,-3.530724 10.550777,-6.027022 3.810892,0.936291 7.695985,1.72047 11.324373,1.51567 -2.155122,-0.235184 -4.628097,-0.779279 -5.523693,-1.219564 -0.557575,-0.274119 -1.108743,-0.696147 -1.616439,-1.182357 -1.381426,-0.262808 -2.775662,-0.563492 -4.178557,-0.912606 l -0.437182,-0.107487 -0.344165,0.288871 c -2.973187,2.504855 -6.698531,5.134952 -10.165788,5.92367 -1.733628,0.39436 -3.375698,0.347201 -4.918046,-0.329696 -1.542358,-0.676897 -3.030701,-2.00406 -4.37286,-4.349605 -0.848589,-1.725919 -1.839648,-2.907402 -2.998266,-3.594096 -0.878122,-0.520445 -1.833052,-0.727965 -2.786394,-0.706933 z M 129.29237,47.769694 c -4.42893,0.954228 -8.84769,2.042002 -13.14184,3.663342 l -0.0315,0.01137 -0.0331,0.01395 c -3.24315,1.458272 -6.43124,3.836358 -9.60148,5.320088 -1.67828,0.785466 -3.29276,1.313701 -4.91081,1.395264 0.76999,0.690296 1.47999,1.346995 2.10788,1.957503 1.29594,-0.282027 2.55828,-0.738347 3.76204,-1.301729 3.45697,-1.617923 6.65659,-3.98445 9.54102,-5.287533 4.20823,-1.585869 8.61359,-2.648481 13.08706,-3.60133 -0.24833,-0.729975 -0.50877,-1.454163 -0.77928,-2.170927 z M 98.870968,59.373637 c -0.121744,0.01891 -0.186678,0.100813 -0.184485,0.254248 0.0011,0.07487 0.04197,0.272476 0.102836,0.528133 0.699422,0.160543 1.394561,0.24139 2.085141,0.255798 -0.941063,-0.67926 -1.679237,-1.088559 -2.003492,-1.038179 z m -46.884477,1.373559 c -0.615152,0.394311 -1.220904,0.803709 -1.812809,1.226799 -0.436185,0.311782 -0.858881,0.608055 -1.286744,0.913123 0.03428,0.02569 0.06452,0.04322 0.09922,0.06976 2.011945,1.539078 2.747608,1.129742 3.000334,-2.209685 z M 35.8066,61.929036 c -1.367877,-0.03383 -2.744361,0.521859 -4.027144,1.296562 -3.066947,1.852203 -5.827965,5.067433 -7.671884,7.433655 C 17.759991,65.05834 9.7977579,63.038341 1.6727661,62.83234 c -0.1377318,0.751032 -0.2618009,1.497779 -0.3736206,2.247409 8.2247425,0.1367 16.1537015,2.152275 22.1852095,7.95662 l 0.923974,0.888834 0.767395,-1.02371 c 1.679649,-2.238257 4.921299,-6.015404 7.773686,-7.738029 1.426189,-0.861312 2.637544,-1.140262 3.476274,-0.84956 0.838729,0.2907 1.733869,1.226187 2.357478,3.765661 l 0.197404,0.802535 0.82424,0.05684 c 0.888749,0.0616 1.725658,-0.026 2.539379,-0.175183 -0.230598,-0.802344 -0.291433,-1.586679 -0.190686,-2.348693 -0.513022,0.109125 -1.031588,0.188408 -1.563728,0.197404 -0.7543,-2.289128 -1.856065,-3.896773 -3.422014,-4.439523 C 36.717465,62.01688 36.262559,61.940312 35.8066,61.929036 Z m 94.55288,12.420431 c -4.67714,0.149747 -9.28632,1.613422 -13.81672,3.677295 -7.40505,3.373447 -14.72932,8.283301 -22.206916,11.786877 l -0.138493,0.0646 -0.117305,0.09922 c -0.08526,0.07273 -0.17054,0.133299 -0.255799,0.204638 -2.778582,3.291729 -6.244585,5.950828 -10.104809,7.850684 3.935929,-1.06577 7.848107,-2.980032 11.696443,-6.230628 7.651459,-3.600386 14.944489,-8.468533 22.066349,-11.71298 5.45886,-2.486841 10.74394,-4.008314 16.06414,-3.410127 0.14879,-0.722235 0.28092,-1.444764 0.40101,-2.165243 -1.19999,-0.144196 -2.39653,-0.202475 -3.5879,-0.164331 z M 20.564119,93.478015 c -4.431616,-0.01453 -8.937381,0.440268 -13.4544754,1.014409 0.3285391,0.745419 0.6712188,1.483879 1.0288777,2.215368 9.9171877,-1.22004 19.5212947,-1.700591 28.1874267,1.703255 l 0.384989,0.152446 0.392741,-0.134359 C 42.698868,96.5281 48.268194,96.483973 53.846326,97.003898 52.749462,96.263629 51.596351,95.405203 50.50131,94.527563 46.007069,94.357872 41.43332,94.686414 36.786902,96.196712 31.565232,94.208925 26.120659,93.496233 20.564119,93.478015 Z M 122.44317,103.79625 c -5.35731,0.10617 -10.70325,1.13339 -15.72049,2.69906 -4.81355,0.46037 -8.573243,2.90252 -12.015799,5.10718 -3.491631,2.23608 -6.657639,4.1697 -10.413835,4.27364 -4.157096,-0.51046 -8.878216,-2.55121 -13.761951,-3.71863 -4.923405,-1.17691 -10.281981,-1.33148 -14.993916,2.45514 l -0.115239,0.0935 -0.09767,0.11317 c -6.057507,7.10427 -16.038415,7.94135 -25.29148,7.20989 1.726357,1.20637 3.51514,2.32845 5.349544,3.37809 8.049607,-0.0356 16.401728,-1.78648 22.13715,-8.32817 3.800597,-3.05426 7.750855,-2.92535 12.27522,-1.84382 4.524366,1.08153 9.347652,3.23643 14.238408,3.80856 l 0.10542,0.014 0.107487,-0.002 c 4.844985,-0.0877 8.629722,-2.52101 12.167732,-4.78679 3.53799,-2.26577 6.849779,-4.37805 10.875309,-4.67775 l 0.18138,-0.0139 0.17415,-0.0548 c 4.96438,-1.55105 10.20621,-2.52825 15.38459,-2.57762 0.59868,-1.02519 1.13369,-2.08223 1.58492,-3.13676 -0.72346,-0.0202 -1.44711,-0.0262 -2.17093,-0.0119 z"
       transform="matrix(-1,0,0,1,135.46779,0)" />
  </g>
</svg>
