<?xml version="1.0" encoding="UTF-8" standalone="no"?>
<!-- Created with Inkscape (http://www.inkscape.org/) -->

<svg
   width="512"
   height="512"
   viewBox="0 0 135.46666 135.46667"
   version="1.1"
   id="svg5"
   inkscape:version="1.4.1 (93de688d07, 2025-03-30)"
   sodipodi:docname="xfce4-dict.svg"
   xmlns:inkscape="http://www.inkscape.org/namespaces/inkscape"
   xmlns:sodipodi="http://sodipodi.sourceforge.net/DTD/sodipodi-0.dtd"
   xmlns:xlink="http://www.w3.org/1999/xlink"
   xmlns="http://www.w3.org/2000/svg"
   xmlns:svg="http://www.w3.org/2000/svg">
  <sodipodi:namedview
     id="namedview7"
     pagecolor="#242424"
     bordercolor="#666666"
     borderopacity="1"
     inkscape:showpageshadow="0"
     inkscape:pageopacity="0"
     inkscape:pagecheckerboard="1"
     inkscape:deskcolor="#000000"
     inkscape:document-units="px"
     showgrid="false"
     inkscape:zoom="1.84375"
     inkscape:cx="328.40678"
     inkscape:cy="154.30508"
     inkscape:window-width="3256"
     inkscape:window-height="1080"
     inkscape:window-x="1864"
     inkscape:window-y="0"
     inkscape:window-maximized="0"
     inkscape:current-layer="svg5" />
  <defs
     id="defs2">
    <linearGradient
       id="linearGradient814"
       inkscape:collect="always">
      <stop
         style="stop-color:#a34100;stop-opacity:1;"
         offset="0"
         id="stop815" />
      <stop
         style="stop-color:#9c775f;stop-opacity:1;"
         offset="1"
         id="stop814" />
    </linearGradient>
    <linearGradient
       id="linearGradient812"
       inkscape:collect="always">
      <stop
         style="stop-color:#0a0400;stop-opacity:1;"
         offset="0"
         id="stop813" />
      <stop
         style="stop-color:#2b1100;stop-opacity:1;"
         offset="1"
         id="stop812" />
    </linearGradient>
    <linearGradient
       inkscape:collect="always"
       xlink:href="#linearGradient812"
       id="linearGradient813"
       x1="26.670393"
       y1="35.192486"
       x2="39.05912"
       y2="37.17783"
       gradientUnits="userSpaceOnUse" />
    <linearGradient
       inkscape:collect="always"
       xlink:href="#linearGradient814"
       id="linearGradient815"
       x1="36.866734"
       y1="115.77212"
       x2="35.291576"
       y2="123.0728"
       gradientUnits="userSpaceOnUse" />
    <filter
       inkscape:label="Lizard Skin"
       inkscape:menu="Materials"
       inkscape:menu-tooltip="Stylized reptile skin texture"
       style="color-interpolation-filters:sRGB;"
       id="filter818"
       x="-0.088552825"
       y="-0.062750429"
       width="1.1981897"
       height="1.1404414">
      <feGaussianBlur
         stdDeviation="0.5"
         in="SourceGraphic"
         result="result0"
         id="feGaussianBlur815" />
      <feTurbulence
         result="result1"
         numOctaves="1"
         seed="488"
         baseFrequency="0.095"
         type="turbulence"
         id="feTurbulence815" />
      <feComposite
         in="result0"
         in2="result1"
         operator="in"
         result="result2"
         id="feComposite815" />
      <feComposite
         operator="arithmetic"
         in="result4"
         in2="result2"
         k3="1"
         k1="3"
         result="result91"
         id="feComposite816" />
      <feBlend
         mode="multiply"
         result="fbSourceGraphic"
         in2="result91"
         id="feBlend816" />
      <feColorMatrix
         result="fbSourceGraphicAlpha"
         in="fbSourceGraphic"
         values="0 0 0 0 0 0 0 1 0 0 0 0 1 0 0 0 0 0 5 0"
         id="feColorMatrix816" />
      <feGaussianBlur
         result="result0"
         in="fbSourceGraphicAlpha"
         stdDeviation="3"
         id="feGaussianBlur816" />
      <feOffset
         result="result3"
         in="result0"
         dy="2"
         dx="2"
         id="feOffset816" />
      <feSpecularLighting
         specularExponent="30"
         specularConstant="1.1"
         surfaceScale="2"
         lighting-color="rgb(111,236,253)"
         result="result1"
         in="result0"
         id="feSpecularLighting816">
        <fePointLight
           z="20000"
           y="-10000"
           x="-5000"
           id="fePointLight816" />
      </feSpecularLighting>
      <feComposite
         k2="-1"
         operator="in"
         result="result2"
         in="result1"
         in2="fbSourceGraphicAlpha"
         id="feComposite817" />
      <feComposite
         k3="1"
         k2="3"
         operator="arithmetic"
         result="result4"
         in="fbSourceGraphic"
         in2="result2"
         id="feComposite818" />
      <feBlend
         mode="multiply"
         in2="result4"
         id="feBlend818" />
    </filter>
    <filter
       style="color-interpolation-filters:sRGB;"
       inkscape:label="Noise Fill"
       id="filter831"
       x="0"
       y="0"
       width="1"
       height="1">
      <feTurbulence
         type="fractalNoise"
         baseFrequency="2 2"
         numOctaves="1"
         seed="9"
         result="turbulence"
         id="feTurbulence830" />
      <feComposite
         in="SourceGraphic"
         in2="turbulence"
         operator="in"
         result="composite1"
         id="feComposite830" />
      <feColorMatrix
         values="1 0 0 0 0 0 1 0 0 0 0 0 1 0 0 0 0 0 3.4 -1 "
         result="color"
         id="feColorMatrix830" />
      <feFlood
         flood-opacity="1"
         flood-color="rgb(34,18,7)"
         result="flood"
         id="feFlood830" />
      <feMerge
         result="merge"
         id="feMerge831">
        <feMergeNode
           in="flood"
           id="feMergeNode830" />
        <feMergeNode
           in="color"
           id="feMergeNode831" />
      </feMerge>
      <feComposite
         in2="SourceGraphic"
         operator="in"
         result="composite2"
         id="feComposite831" />
    </filter>
  </defs>
  <g
     inkscape:label="Layer 1"
     inkscape:groupmode="layer"
     id="layer1" />
  <path
     inkscape:label="Face:10"
     style="fill:#2b1100;fill-opacity:1;stroke:#000000;stroke-width:0.529166;stroke-linejoin:round;stroke-opacity:1"
     d="m 109.03187,16.783114 1.04653,-0.0012 -18.059348,118.225976 -1.04083,9e-4 z"
     id="path778" />
  <path
     inkscape:label="Face:20"
     style="fill:#2b1100;fill-opacity:1;stroke:#000000;stroke-width:0.529166;stroke-linejoin:round;stroke-opacity:1"
     d="m 107.49854,17.638767 h 1.42709 1.82085 1.87337 1.87337 1.82085 1.42709 L 100.09658,133.18643 h -1.427085 -1.820851 -1.873373 -1.873373 -1.820851 -1.427089 z"
     id="path779" />
  <path
     inkscape:label="Face:1"
     style="fill:#2b1100;fill-opacity:1;stroke:#000000;stroke-width:0.529166;stroke-linejoin:round;stroke-opacity:1"
     d="m 110.0724,16.781914 -1.04053,0.0012 -76.805285,-15.637951 2.050266,0.2046844 z"
     id="path780" />
  <path
     inkscape:label="Face:9"
     style="fill:#2b1100;fill-opacity:1;stroke:#000000;stroke-width:0.529166;stroke-linejoin:round;stroke-opacity:1"
     d="m 103.31301,135.00879 -1.05734,-9e-4 18.05335,-118.225976 1.05764,0.0012 z"
     id="path781" />
  <path
     inkscape:label="Face:24"
     style="fill:#2b1100;fill-opacity:1;stroke:#000000;stroke-width:0.529166;stroke-linejoin:round;stroke-opacity:1"
     d="M 34.072377,2.6886997 34.021656,2.3879756 108.92563,17.638767 h -1.42709 z"
     id="path782" />
  <path
     inkscape:label="Face:2"
     style="fill:#140800;fill-opacity:1;stroke:#000000;stroke-width:0.529166;stroke-linejoin:round;stroke-opacity:1"
     d="M 90.978222,135.00879 14.172938,119.37083 32.226585,1.145163 109.03187,16.783114 Z"
     id="path783" />
  <path
     inkscape:label="Face:12"
     style="fill:#2b1100;fill-opacity:1;stroke:#000000;stroke-width:0.529166;stroke-linejoin:round;stroke-opacity:1"
     d="m 90.978222,135.00879 1.04083,-9e-4 -75.795668,-15.43237 -2.050446,-0.20469 z"
     id="path788" />
  <path
     inkscape:label="Face:22"
     style="fill:#ffffff;fill-opacity:1;stroke:none;stroke-width:0.529166;stroke-linejoin:round;stroke-opacity:1"
     d="m 16.377047,117.93564 0.05072,0.30073 73.42619,14.95006 h 1.427089 z"
     id="path790" />
  <path
     inkscape:label="Face:34"
     style="fill:#ffffff;fill-opacity:1;stroke:none;stroke-width:0.529166;stroke-linejoin:round;stroke-opacity:1"
     d="m 17.350048,117.76277 -0.973001,0.17287 74.904,15.25079 h 1.820851 z"
     id="path792" />
  <path
     inkscape:label="Face:16"
     style="fill:#2b1100;fill-opacity:1;stroke:#000000;stroke-width:0.529166;stroke-linejoin:round;stroke-opacity:1"
     d="M 120.31502,16.781914 44.519447,1.3498474 44.561404,1.145163 121.36666,16.783114 Z"
     id="path794" />
  <path
     inkscape:label="Face:14"
     style="fill:#2b1100;fill-opacity:1;stroke:#000000;stroke-width:0.529166;stroke-linejoin:round;stroke-opacity:1"
     d="M 44.519447,1.3498474 120.31502,16.781914 102.26138,135.00789 26.466009,119.57552 Z"
     id="path797" />
  <path
     inkscape:label="Face:31"
     style="fill:#2b1100;fill-opacity:1;stroke:#000000;stroke-width:0.529166;stroke-linejoin:round;stroke-opacity:1"
     d="M 44.314972,2.6886997 26.670393,118.23637 100.09658,133.18643 117.74116,17.638767 Z"
     id="path798" />
  <path
     inkscape:label="Face:4"
     style="fill:none;fill-opacity:1;stroke:#000000;stroke-width:0.529166;stroke-linejoin:round;stroke-opacity:1"
     d="M 14.172938,119.37083 14.100008,118.93746 32.153445,0.71178417 32.226585,1.145163 Z"
     id="path802" />
  <path
     inkscape:label="Face:17"
     style="fill:#2b1100;fill-opacity:1;stroke:#000000;stroke-width:0.529166;stroke-linejoin:round;stroke-opacity:1"
     d="m 26.508026,119.37083 -0.04202,0.20469 75.795374,15.43237 1.05163,9e-4 z"
     id="path803" />
  <path
     inkscape:label="Face:5"
     style="fill:none;fill-opacity:1;stroke:#000000;stroke-width:0.529166;stroke-linejoin:round;stroke-opacity:1"
     d="M 14.100008,118.93746 15.198161,118.74268 33.251748,0.51670369 32.153445,0.71178417 Z"
     id="path805" />
  <path
     inkscape:label="Face:6"
     style="fill:none;fill-opacity:1;stroke:#000000;stroke-width:0.529166;stroke-linejoin:round;stroke-opacity:1"
     d="m 15.198161,118.74268 1.765928,-0.0591 18.053588,-118.22567057 -1.765929,0.0588243 z"
     id="path806" />
  <path
     inkscape:label="Face:7"
     style="fill:none;fill-opacity:1;stroke:#000000;stroke-width:0.529166;stroke-linejoin:round;stroke-opacity:1"
     d="m 16.964089,118.68355 2.345768,0.0591 L 37.363354,0.51670369 35.017677,0.45787943 Z"
     id="path809" />
  <path
     inkscape:label="Face:18"
     style="fill:none;fill-opacity:1;stroke:#000000;stroke-width:0.529166;stroke-linejoin:round;stroke-opacity:1"
     d="m 14.100008,118.93746 0.07293,0.43337 2.050446,0.20469 -0.05072,-0.30103 0.972701,-0.17257 1.609264,-0.0537 2.137482,0.0537 2.669001,0.17257 2.904898,0.30103 0.04202,-0.20469 -4.184926,-0.43337 -3.013243,-0.19478 -2.345768,-0.0591 -1.765928,0.0591 z"
     id="path810" />
  <path
     inkscape:label="Face:8"
     style="fill:none;fill-opacity:1;stroke:#000000;stroke-width:0.529166;stroke-linejoin:round;stroke-opacity:1"
     d="M 19.309857,118.74268 22.3231,118.93746 40.376658,0.71178417 37.363354,0.51670369 Z"
     id="path811" />
  <path
     inkscape:label="Face:0"
     style="display:inline;fill:#2b1100;fill-opacity:1;stroke:none;stroke-width:0.529166;stroke-linejoin:round;stroke-opacity:1;filter:url(#filter831)"
     d="M 26.508026,119.37083 103.31301,135.00879 121.36666,16.783114 44.561404,1.145163 Z"
     id="path799" />
  <path
     inkscape:label="Face:3"
     style="fill:none;fill-opacity:1;stroke:#000000;stroke-width:0.529166;stroke-linejoin:round;stroke-opacity:1"
     d="m 22.3231,118.93746 4.184926,0.43337 L 44.561404,1.145163 40.376658,0.71178417 Z"
     id="path812" />
  <path
     d="m 32.352556,116.79729 -0.02008,0.0986 q -0.141244,-0.0288 -0.239497,0.004 -0.09825,0.0327 -0.206419,0.15503 -0.07229,0.0824 -0.258508,0.41086 l -1.600428,2.70772 -0.106599,-0.0217 -0.353039,-2.47819 -1.288586,2.14395 -0.09594,-0.0195 -0.463012,-3.21944 q -0.05156,-0.3602 -0.07105,-0.42801 -0.03268,-0.11212 -0.116188,-0.17908 -0.0803,-0.0691 -0.237533,-0.1011 l 0.02008,-0.0986 1.337818,0.27239 -0.02008,0.0986 -0.06396,-0.013 q -0.141244,-0.0288 -0.228886,0.02 -0.08764,0.0488 -0.10609,0.13937 -0.01899,0.0933 0.0299,0.45294 l 0.298626,2.17292 0.950685,-1.60215 -0.04474,-0.32551 -0.0359,-0.25988 q -0.02883,-0.14464 -0.0775,-0.26002 -0.02434,-0.0577 -0.06792,-0.10264 -0.05686,-0.0615 -0.119141,-0.0964 -0.04738,-0.0263 -0.156643,-0.0486 l 0.02008,-0.0986 1.407107,0.28649 -0.02008,0.0986 -0.09594,-0.0195 q -0.149239,-0.0304 -0.231551,0.0195 -0.08231,0.0498 -0.104559,0.15912 -0.02767,0.13591 0.02334,0.49878 l 0.292993,2.10516 1.09289,-1.85074 q 0.184542,-0.30658 0.210587,-0.4345 0.01248,-0.0613 -0.01664,-0.12274 -0.02646,-0.0609 -0.08075,-0.0942 -0.09367,-0.0579 -0.256236,-0.091 l 0.02008,-0.0986 z m 2.626245,0.63742 0.02008,-0.0986 1.279188,0.26045 -0.02008,0.0986 -0.135914,-0.0277 q -0.213198,-0.0434 -0.364146,0.11181 -0.07278,0.0712 -0.1341,0.37236 l -0.298433,1.46574 q -0.110691,0.54365 -0.281269,0.82255 -0.167371,0.27677 -0.528454,0.42806 -0.357876,0.14917 -0.901531,0.0385 -0.591624,-0.12046 -0.856316,-0.38806 -0.264691,-0.2676 -0.322072,-0.64009 -0.03699,-0.25455 0.09595,-0.90747 l 0.287581,-1.41244 q 0.06783,-0.33312 -0.0043,-0.45604 -0.06945,-0.12239 -0.274651,-0.16417 l -0.135913,-0.0277 0.02008,-0.0986 1.561676,0.31796 -0.02008,0.0986 -0.138578,-0.0282 q -0.223858,-0.0456 -0.348556,0.0761 -0.08616,0.0824 -0.148015,0.38618 l -0.320679,1.57501 q -0.04287,0.21053 -0.0609,0.48995 -0.01537,0.27997 0.05497,0.45249 0.07034,0.17252 0.239478,0.30965 0.171802,0.13767 0.448959,0.19411 0.354442,0.0722 0.665735,-0.0254 0.311294,-0.0976 0.461397,-0.31683 0.153311,-0.22135 0.270514,-0.79698 l 0.29789,-1.46307 q 0.06891,-0.33846 0.01165,-0.43893 -0.08006,-0.13842 -0.285262,-0.1802 z m 4.310447,4.53845 -0.964722,-0.19642 -0.879212,-1.93865 q -0.136999,-0.0223 -0.222278,-0.0397 -0.03464,-0.007 -0.07462,-0.0152 -0.03943,-0.0108 -0.08153,-0.0222 l -0.213787,1.05 q -0.06945,0.34112 -0.01165,0.43893 0.07739,0.13787 0.279932,0.17911 l 0.141244,0.0288 -0.02008,0.0986 -1.54835,-0.31525 0.02008,-0.0986 0.135914,0.0277 q 0.229188,0.0467 0.358178,-0.0825 0.07278,-0.0712 0.135727,-0.38036 l 0.475322,-2.33451 q 0.06945,-0.34112 0.01166,-0.43893 -0.08006,-0.13842 -0.285262,-0.1802 l -0.135914,-0.0277 0.02008,-0.0986 1.316498,0.26805 q 0.575635,0.1172 0.830099,0.25783 0.257672,0.1385 0.400763,0.40355 0.1463,0.26292 0.08281,0.57473 -0.06783,0.33312 -0.336273,0.5338 -0.265783,0.20123 -0.742113,0.20971 l 0.53512,1.18861 q 0.183129,0.40919 0.343137,0.56389 0.160009,0.1547 0.44931,0.24691 z m -2.188176,-2.38001 q 0.05063,0.0103 0.0874,0.0206 0.03731,0.008 0.06129,0.0125 0.517005,0.10526 0.823752,-0.0654 0.309411,-0.17014 0.37995,-0.51659 0.06891,-0.33845 -0.101422,-0.59239 -0.167124,-0.25606 -0.516236,-0.32714 -0.154569,-0.0315 -0.428711,-0.0346 z m 2.233482,2.38924 0.02008,-0.0986 0.135914,0.0277 q 0.229188,0.0467 0.35497,-0.0804 0.07654,-0.076 0.138935,-0.38248 l 0.475322,-2.33452 q 0.06891,-0.33845 0.01165,-0.43892 -0.08006,-0.13842 -0.285262,-0.1802 l -0.135914,-0.0277 0.02008,-0.0986 1.471067,0.29952 q 0.810152,0.16495 1.193779,0.43456 0.386291,0.27016 0.554769,0.75131 0.171143,0.4817 0.05665,1.04401 -0.153558,0.75418 -0.715028,1.1672 -0.629373,0.46025 -1.682038,0.24592 z m 1.084521,-0.0512 q 0.323258,0.14353 0.552446,0.19019 0.618275,0.12588 1.11446,-0.22549 0.496186,-0.35137 0.647573,-1.0949 0.152472,-0.74886 -0.167367,-1.2636 -0.319839,-0.51475 -0.959433,-0.64497 -0.239848,-0.0488 -0.562056,-0.0339 z m 6.018708,-2.35212 -0.254482,1.24988 -0.0986,-0.0201 q 0.02528,-0.36954 -0.05656,-0.60824 -0.07918,-0.23816 -0.282866,-0.41008 -0.203685,-0.17191 -0.448863,-0.22183 -0.277157,-0.0564 -0.493102,0.0772 -0.215403,0.13099 -0.259354,0.34686 -0.03364,0.16523 0.05328,0.32447 0.124533,0.23352 0.677647,0.69306 0.450999,0.37493 0.605039,0.55894 0.157248,0.18189 0.215699,0.39918 0.06112,0.21782 0.01716,0.43369 -0.08356,0.4104 -0.46413,0.64377 -0.377361,0.23124 -0.878376,0.12923 -0.157234,-0.032 -0.290929,-0.0842 -0.0799,-0.0301 -0.324248,-0.16594 -0.241139,-0.13791 -0.310429,-0.15202 -0.06662,-0.0136 -0.114738,0.0183 -0.04545,0.0324 -0.08961,0.15384 l -0.0986,-0.0201 0.252312,-1.23921 0.0986,0.0201 q -0.0099,0.4032 0.06772,0.62161 0.07819,0.21576 0.291994,0.39251 0.216468,0.1773 0.504286,0.2359 0.333121,0.0678 0.560812,-0.069 0.230355,-0.13628 0.279189,-0.37612 0.02713,-0.13325 -0.01982,-0.28436 -0.04428,-0.15056 -0.174975,-0.29929 -0.08766,-0.10111 -0.498729,-0.45403 -0.410531,-0.35558 -0.576268,-0.5503 -0.163072,-0.19418 -0.226359,-0.40135 -0.06329,-0.20717 -0.01771,-0.43102 0.07922,-0.38909 0.434671,-0.60814 0.355993,-0.22172 0.817034,-0.12785 0.287817,0.0586 0.581521,0.2655 0.135674,0.097 0.196968,0.10949 0.06929,0.0141 0.120068,-0.0172 0.05399,-0.0334 0.106138,-0.15324 z"
     id="text812"
     style="font-size:5.56985px;line-height:1.25;font-family:'Times New Roman';-inkscape-font-specification:'Times New Roman, Normal';font-variant-ligatures:none;text-orientation:upright;fill:url(#linearGradient815);stroke-width:0.0794077;opacity:0.4"
     transform="matrix(3.3319582,0,0,3.3319582,-44.489946,-362.85965)"
     aria-label="WURDS" />
  <path
     id="rect812"
     style="fill:url(#linearGradient813);stroke-width:1.05833;stroke-linecap:round;stroke-linejoin:round;stroke-miterlimit:12;paint-order:markers stroke fill"
     d="m 32.153445,0.71178417 1.098303,-0.19508048 1.765929,-0.0587943 2.345677,0.0587943 3.013304,0.19508048 4.184746,0.43337879 -18.053378,118.225667 -4.184926,-0.43337 -3.013243,-0.19478 -2.345768,-0.0591 -1.765924,0.0591 -1.098157,0.19478 z"
     sodipodi:nodetypes="ccccccccccccc" />
  <path
     id="path813"
     style="font-size:5.56985px;line-height:1.25;font-family:'Times New Roman';-inkscape-font-specification:'Times New Roman, Normal';font-variant-ligatures:none;text-orientation:upright;fill:#000000;fill-opacity:1;stroke-width:0.264583;opacity:0.74590164"
     d="m 46.525337,22.888212 -0.06718,0.328146 c 0.02072,0.0042 0.04138,0.0089 0.0615,0.01344 l 0.0057,-0.02791 4.39611,0.895036 0.06098,-0.301274 z m 5.718,1.16427 -0.06667,0.328146 c 0.02078,0.0042 0.04122,0.0086 0.06098,0.01292 l 0.0057,-0.02739 4.62762,0.942062 0.06098,-0.301274 z m -2.67012,0.977202 c -0.01821,0.249356 0.0192,0.717658 0.11265,1.405082 l 0.99529,7.240385 3.16776,-5.338176 -0.03514,-0.254765 -3.13262,5.278748 -0.99529,-7.239868 c -0.06297,-0.463203 -0.10038,-0.827103 -0.11265,-1.091406 z m 10.13788,0.543119 -0.06666,0.328662 c 0.02051,0.0042 0.04095,0.0086 0.06097,0.01292 l 0.0057,-0.02739 3.53518,0.719336 0.06098,-0.301274 z m 3.83594,0.780831 -0.06666,0.328662 0.06098,0.0124 0.0057,-0.02739 5.14232,1.046964 0.0615,-0.301273 z m -8.15092,0.08992 c -0.01446,0.321298 0.02111,0.787232 0.10697,1.397847 l 0.97668,7.014559 3.64112,-6.167065 c 0.40992,-0.681008 0.64392,-1.163308 0.70177,-1.447457 0.01892,-0.09292 0.01635,-0.185993 -0.0078,-0.279053 -0.06903,0.288014 -0.30045,0.758988 -0.69402,1.412834 l -3.64112,6.166548 -0.97668,-7.014042 c -0.06111,-0.4346 -0.09668,-0.796132 -0.10697,-1.084171 z m 9.57099,1.650028 c -0.01212,0.214842 -0.04671,0.463975 -0.10439,0.747241 l -0.95808,4.706173 c -0.25141,1.23473 -0.36634,2.149099 -0.34416,2.742468 0.01858,-0.58429 0.13352,-1.39374 0.34416,-2.428275 l 0.95808,-4.706173 c 0.08838,-0.434003 0.12296,-0.788054 0.10439,-1.061434 z m 7.1577,0.0067 -0.06666,0.328146 0.06098,0.0124 0.0057,-0.02687 4.20129,0.855245 0.06098,-0.301274 z m 4.7687,0.970484 -0.06718,0.328662 0.0615,0.0124 0.0057,-0.02687 4.3863,0.892969 c 1.27866,0.260337 2.20048,0.546997 2.76572,0.859379 0.57237,0.307651 1.01747,0.755864 1.33532,1.344621 0.20085,0.360968 0.31306,0.742696 0.3359,1.14515 0.0287,-0.519102 -0.0835,-1.005749 -0.3359,-1.459343 -0.31785,-0.588757 -0.76295,-1.036969 -1.33532,-1.344621 -0.56524,-0.312382 -1.48706,-0.598525 -2.76572,-0.858862 z m -3.3507,0.684712 c -0.01371,0.226474 -0.0541,0.502706 -0.1204,0.828373 l -0.99219,4.874638 c -0.26034,1.27865 -0.5612,2.163966 -0.90176,2.655652 -0.33342,0.486977 -0.84589,0.83895 -1.53737,1.05575 -0.69148,0.216798 -1.43063,0.244611 -2.21795,0.08423 -0.61565,-0.12537 -1.11441,-0.340665 -1.49603,-0.646472 -0.37571,-0.304607 -0.64164,-0.648758 -0.79789,-1.031978 -0.1141,-0.279886 -0.17761,-0.623227 -0.19017,-1.030428 -0.01567,0.547231 0.04784,0.995492 0.19017,1.34462 0.15625,0.38322 0.42218,0.726855 0.79789,1.031462 0.38162,0.305807 0.88038,0.521619 1.49603,0.646989 0.78732,0.160379 1.52647,0.132049 2.21795,-0.08475 0.69148,-0.2168 1.20395,-0.568773 1.53737,-1.05575 0.34056,-0.491686 0.64142,-1.376485 0.90176,-2.655135 l 0.99219,-4.875155 c 0.10089,-0.495539 0.14127,-0.876173 0.1204,-1.142049 z m 4.76922,0.967383 c -0.01383,0.226711 -0.05415,0.504037 -0.12092,0.831991 l -1.58389,7.778336 c -0.13982,0.686739 -0.2905,1.10895 -0.45216,1.267106 -0.28653,0.286993 -0.68464,0.378654 -1.19373,0.274919 l -0.45269,-0.09198 -0.06666,0.328662 0.06098,0.0124 0.0057,-0.02739 0.45269,0.0925 c 0.50909,0.103734 0.9072,0.01207 1.19373,-0.274919 0.16166,-0.158157 0.31234,-0.580884 0.45216,-1.267623 l 1.58389,-7.778336 c 0.10166,-0.49931 0.14198,-0.881038 0.12092,-1.145667 z m 10.71097,0.817521 -0.06718,0.328662 0.0615,0.0124 0.0057,-0.02687 4.90151,0.997872 c 1.7996,0.366405 3.12539,0.849087 3.97754,1.447973 0.85807,0.600108 1.47422,1.434425 1.84846,2.503207 0.21088,0.593556 0.323883,1.214796 0.339523,1.863452 0.0182,-0.762828 -0.09485,-1.488471 -0.339523,-2.177128 -0.37424,-1.068781 -0.99039,-1.903098 -1.84846,-2.503206 -0.85215,-0.598886 -2.17794,-1.081569 -3.97754,-1.447974 z m 1.41749,1.655713 c -0.01372,0.226468 -0.05358,0.502717 -0.11989,0.828373 l -1.58388,7.778337 c -0.1386,0.680785 -0.293,1.105521 -0.46302,1.274341 -0.2794,0.282328 -0.67378,0.371936 -1.18288,0.2682 l -0.45268,-0.0925 -0.06667,0.328663 0.06098,0.0124 0.0057,-0.02739 0.45268,0.0925 c 0.5091,0.103736 0.90348,0.01464 1.18288,-0.267684 0.17002,-0.168819 0.32442,-0.594072 0.46302,-1.274857 l 1.58388,-7.778337 c 0.10089,-0.495527 0.14076,-0.876178 0.11989,-1.142049 z m -6.74326,0.127641 c -0.0085,0.151654 -0.02888,0.307497 -0.06149,0.467672 -0.15669,0.769571 -0.57878,1.343409 -1.26608,1.721342 -0.68138,0.379088 -1.59662,0.451889 -2.74505,0.218074 -0.05327,-0.01 -0.12124,-0.02409 -0.20412,-0.04186 -0.0663,-0.01857 -0.14285,-0.03724 -0.22944,-0.05581 l -0.0615,0.301273 c 0.11247,0.02288 0.20927,0.04585 0.29094,0.06873 0.08288,0.01777 0.15085,0.03134 0.20412,0.04134 1.14843,0.233815 2.06367,0.16153 2.74505,-0.217558 0.6873,-0.377932 1.10939,-0.95177 1.26608,-1.721342 0.05557,-0.27292 0.07596,-0.533683 0.06149,-0.781864 z m 22.119583,1.410766 c -0.72433,-0.02494 -1.38303,0.147384 -1.97611,0.516765 -0.78956,0.486577 -1.27251,1.161945 -1.44849,2.026233 -0.0534,0.262187 -0.0733,0.519126 -0.0594,0.771012 0.008,-0.150618 0.028,-0.303156 0.0594,-0.457336 0.17598,-0.864288 0.65893,-1.539656 1.44849,-2.026233 0.79077,-0.492508 1.69821,-0.634328 2.72232,-0.425814 0.63933,0.130169 1.28494,0.425112 1.93735,0.8847 0.30137,0.215467 0.52014,0.337092 0.65629,0.364836 0.15391,0.03132 0.28718,0.01217 0.39997,-0.05736 0.11994,-0.07419 0.23815,-0.244362 0.35399,-0.510563 l 0.26665,0.05426 0.0615,-0.301273 -0.32814,-0.06718 c -0.11584,0.266202 -0.23405,0.436372 -0.35399,0.510564 -0.11279,0.06953 -0.24606,0.08868 -0.39997,0.05736 -0.13615,-0.02774 -0.35492,-0.149369 -0.65629,-0.364835 -0.65241,-0.459588 -1.29802,-0.754532 -1.93735,-0.884701 -0.25603,-0.05213 -0.50477,-0.08212 -0.74621,-0.09043 z m -23.613543,2.135802 c -0.04608,0.0017 -0.09253,0.0028 -0.13953,0.0036 l 1.78335,3.960481 c 0.40679,0.908936 0.78766,1.53532 1.14309,1.878956 0.34428,0.33286 0.82336,0.600431 1.43712,0.803051 l 0.05994,-0.294555 c -0.64263,-0.204827 -1.14164,-0.479053 -1.49706,-0.822689 -0.35543,-0.343636 -0.7363,-0.969503 -1.14309,-1.878438 z m 21.702553,0.544153 c -0.0334,0.315918 0.0335,0.626798 0.2005,0.93276 0.27663,0.518719 1.02911,1.288124 2.25774,2.308903 1.00181,0.832834 1.67373,1.453676 2.0159,1.862418 0.3493,0.404034 0.58898,0.847484 0.71882,1.330152 0.0642,0.228855 0.10221,0.457343 0.11421,0.685229 0.0175,-0.331975 -0.0205,-0.664865 -0.11421,-0.998905 -0.12984,-0.482668 -0.36952,-0.926118 -0.71882,-1.330152 -0.34217,-0.408742 -1.01409,-1.029584 -2.0159,-1.862418 -1.22863,-1.020779 -1.98111,-1.790701 -2.25774,-2.30942 -0.1114,-0.204088 -0.17825,-0.410049 -0.2005,-0.618567 z m -5.847193,0.858863 c -0.01057,0.435717 -0.06478,0.892688 -0.16227,1.371492 -0.33627,1.651607 -1.05531,2.867856 -2.15749,3.648356 -1.10218,0.7805 -2.34009,1.030993 -3.71347,0.751375 -0.49517,-0.100813 -1.08893,-0.303325 -1.7818,-0.607714 -1.4e-4,-6.3e-5 -3.7e-4,6.3e-5 -5.2e-4,0 l -0.05839,0.287837 c 0.71805,0.318824 1.33162,0.529907 1.84071,0.633553 1.37338,0.279618 2.61129,0.02913 3.71347,-0.751375 1.10218,-0.7805 1.82122,-1.996232 2.15749,-3.647839 0.12119,-0.595187 0.1754,-1.157077 0.16227,-1.685685 z m 11.022063,0.999938 c -0.003,0.12855 -0.009,0.261312 -0.0181,0.397909 l 0.0155,0.0031 c 0.004,-0.138168 0.005,-0.271884 0.003,-0.40101 z m -30.898373,1.55081 c -0.01813,0.297193 0.0093,0.507198 0.08217,0.630453 0.1719,0.306251 0.48284,0.505256 0.93276,0.596862 l 0.40927,0.08372 0.06098,-0.30179 -0.47025,-0.0956 c -0.44992,-0.09161 -0.76086,-0.290612 -0.93276,-0.596863 -0.04381,-0.07413 -0.07126,-0.179732 -0.08217,-0.316777 z m 23.247683,1.768884 -0.84078,4.128947 0.0615,0.0124 0.77928,-3.827157 0.32504,0.06615 c -1.5e-4,-0.101437 9.8e-4,-0.205828 0.004,-0.313159 z m 0.32608,0.517798 c -0.0114,0.829401 0.0649,1.4741 0.22841,1.934249 0.17368,0.479269 0.49763,0.915315 0.97255,1.307931 0.48084,0.393837 1.04119,0.655829 1.68051,0.785998 0.73997,0.150604 1.36285,0.07391 1.86862,-0.22996 0.51169,-0.302719 0.82171,-0.720395 0.93018,-1.253153 0.0322,-0.158288 0.0407,-0.322327 0.0258,-0.49196 -0.005,0.0601 -0.0139,0.119736 -0.0258,0.178284 -0.10847,0.532758 -0.41849,0.950434 -0.93018,1.253153 -0.50577,0.303875 -1.12865,0.380564 -1.86862,0.22996 -0.63932,-0.130168 -1.19967,-0.392161 -1.68051,-0.785998 -0.47492,-0.392616 -0.79887,-0.828662 -0.97255,-1.307931 -0.1423,-0.400368 -0.21853,-0.940665 -0.22841,-1.620573 z" />
  <path
     id="path831"
     style="font-size:5.56985px;line-height:1.25;font-family:'Times New Roman';-inkscape-font-specification:'Times New Roman, Normal';font-variant-ligatures:none;text-orientation:upright;opacity:0.05327869;fill:#ffcc00;stroke-width:0.264583"
     d="m 48.115065,23.93385 c 0.66915,3.745754 1.100596,7.539821 1.678994,11.303934 1.027236,-1.910378 -0.301243,-4.306322 -0.277353,-6.423948 -0.02166,-1.577583 -0.868431,-3.318764 -0.217243,-4.82141 -0.185557,0.0913 -1.566654,-0.566933 -1.184408,-0.05864 z m 5.642201,0.976163 c 0.985857,3.747321 1.153188,7.708419 1.83518,11.5512 1.023957,-1.930337 -0.298077,-4.333412 -0.284949,-6.468397 -0.03805,-1.56632 -0.863131,-3.316698 -0.151071,-4.802985 -0.456889,-0.0893 -0.96934,-0.204915 -1.399163,-0.279884 z m 7.575001,1.646454 c 0.133445,0.685184 0.389965,-0.572897 0,0 z m 4.106378,0.839487 c 0.240868,3.383404 -2.076253,6.791864 -1.002193,10.126021 1.403741,1.734917 1.055775,1.252983 0.368492,-0.471505 -0.0083,-3.136139 0.795595,-6.303699 1.69446,-9.283569 0.729706,-0.362317 -1.335645,-0.540677 -1.060759,-0.370947 z m 8.596712,1.783131 c 0.17846,0.979896 0.392458,-0.807067 0,0 z m 4.770165,0.969633 c -0.290447,3.519081 -1.192418,7.064618 -2.049934,10.496968 -0.06611,1.211833 1.569046,0.28355 1.028222,-1.054232 0.627558,-3.141703 1.277323,-6.266147 1.906763,-9.410183 -0.122349,0.106956 -1.145717,-0.460443 -0.885051,-0.03332 z m 4.900321,1.334083 c 1.222279,1.435741 0.112054,3.914151 -0.982664,4.503341 2.793343,0.01999 3.311626,-4.160349 0.670293,-4.887283 l 0.21028,0.25856 z m 7.223582,1.125835 c -0.223508,3.431684 -1.231462,6.848374 -1.926288,10.230178 -0.388513,2.120292 1.594742,-0.879137 1.19517,-2.143515 0.54962,-2.679894 1.082313,-5.363387 1.642202,-8.041115 -0.114519,0.107622 -1.192405,-0.468407 -0.911084,-0.04565 z m 6.175838,1.665979 c 2.790648,2.901869 1.425442,8.572596 -2.088981,10.034925 4.879629,-0.489464 6.346638,-8.352652 1.763595,-10.340765 l 0.242767,0.228239 z m 6.566297,1.763606 c -2.15949,2.167272 0.61506,4.559052 2.30918,5.893967 1.53329,0.965169 2.89838,3.295374 1.25055,4.785225 2.49669,-1.27414 1.26526,-4.484749 -0.74024,-5.570434 -1.40693,-1.218131 -4.27373,-3.179721 -2.58521,-5.284452 z m -22.406113,0.331863 c -0.745109,0.70281 1.329994,3.192749 1.629191,4.557785 0.817626,2.266765 2.07431,1.796726 0.485819,-0.164932 -0.738688,-1.393191 -1.248385,-3.234831 -2.11501,-4.39272 z M 108.91679,36.572 c 0.61839,1.796059 0.95005,-0.416128 0,0 z m -7.575,9.10431 c 1.63989,0.723501 -0.46457,-1.690569 0,0 z" />
</svg>
