<?xml version="1.0" encoding="UTF-8" standalone="no"?>
<svg
   inkscape:version="1.3.2 (091e20ef0f, 2023-11-25, custom)"
   shape-rendering="crispEdges"
   id="svg8"
   version="1.1"
   viewBox="0 0 135.46667 135.46667"
   height="512"
   width="512"
   sodipodi:docname="xterm.svg"
   xml:space="preserve"
   xmlns:inkscape="http://www.inkscape.org/namespaces/inkscape"
   xmlns:sodipodi="http://sodipodi.sourceforge.net/DTD/sodipodi-0.dtd"
   xmlns:xlink="http://www.w3.org/1999/xlink"
   xmlns="http://www.w3.org/2000/svg"
   xmlns:svg="http://www.w3.org/2000/svg"
   xmlns:rdf="http://www.w3.org/1999/02/22-rdf-syntax-ns#"
   xmlns:cc="http://creativecommons.org/ns#"
   xmlns:dc="http://purl.org/dc/elements/1.1/">
   xmlns:rdf=&quot;http://www.w3.org/1999/02/22-rdf-syntax-ns#&quot;
   xmlns:cc=&quot;http://creativecommons.org/ns#&quot;
   xmlns:dc=&quot;http://purl.org/dc/elements/1.1/&quot;&gt;<defs
   id="defs2"><linearGradient
     id="linearGradient55090"><stop
       style="stop-color:#ff8d00;stop-opacity:1;"
       offset="0"
       id="stop18557" /><stop
       style="stop-color:#ff0000;stop-opacity:1;"
       offset="1"
       id="stop18555" /></linearGradient><linearGradient
     id="linearGradient55090-1"><stop
       style="stop-color:#ffffff;stop-opacity:1;"
       offset="0"
       id="stop55086" /><stop
       style="stop-color:#ffffff;stop-opacity:0;"
       offset="1"
       id="stop55088" /></linearGradient><linearGradient
     inkscape:collect="always"
     id="linearGradient51250"><stop
       style="stop-color:#ffffff;stop-opacity:0.80789673;"
       offset="0"
       id="stop51246" /><stop
       style="stop-color:#ffffff;stop-opacity:0;"
       offset="1"
       id="stop51248" /></linearGradient><rect
     x="-11597.953"
     y="-4257.6465"
     width="1975.8679"
     height="200.96553"
     id="rect48518" /><rect
     x="-8208.5273"
     y="-3087.5469"
     width="1540.277"
     height="399.28311"
     id="rect18280" /><rect
     x="-7623.7734"
     y="-3087.5469"
     width="297.08713"
     height="113.41004"
     id="rect14949" /><rect
     x="-11253.933"
     y="-3026.1035"
     width="426.8663"
     height="121.26578"
     id="rect14939" /><rect
     x="-11645.953"
     y="-4293.9199"
     width="1103.9999"
     height="201.59987"
     id="rect190181" /><linearGradient
     inkscape:collect="always"
     id="linearGradient68000"><stop
       style="stop-color:#ffffff;stop-opacity:0.80000001;"
       offset="0"
       id="stop67996" /><stop
       style="stop-color:#ffffff;stop-opacity:0;"
       offset="1"
       id="stop67998" /></linearGradient><rect
     x="-10061.453"
     y="-913.69592"
     width="857.42816"
     height="1147.7347"
     id="rect17444" /><rect
     x="-10061.453"
     y="-913.69592"
     width="1679.356"
     height="53.843174"
     id="rect17444-3" /><rect
     x="-10061.453"
     y="-913.69592"
     width="857.42816"
     height="1147.7347"
     id="rect17444-3-5" /><rect
     x="-10061.453"
     y="-913.69592"
     width="857.42816"
     height="1147.7347"
     id="rect17444-3-5-2" /><rect
     x="-10061.453"
     y="-913.69592"
     width="857.42816"
     height="1147.7347"
     id="rect17444-3-5-2-8" /><rect
     x="-10061.453"
     y="-913.69592"
     width="857.42816"
     height="1147.7347"
     id="rect17444-3-5-2-8-7" /><rect
     x="-10061.453"
     y="-913.69592"
     width="1456.625"
     height="97.241226"
     id="rect17444-3-5-2-8-7-6" /><rect
     x="-10061.453"
     y="-913.69592"
     width="1240.1765"
     height="403.35107"
     id="rect17444-3-5-2-8-7-6-2" /><rect
     x="-10061.453"
     y="-913.69592"
     width="857.42816"
     height="1147.7347"
     id="rect17444-3-5-2-8-7-6-3" /><rect
     x="-10061.453"
     y="-913.69592"
     width="857.42816"
     height="1147.7347"
     id="rect17444-3-5-2-8-7-6-3-6" /><rect
     x="-10061.453"
     y="-913.69592"
     width="857.42816"
     height="1147.7347"
     id="rect17444-3-5-2-8-7-6-3-6-5" /><rect
     x="-10061.453"
     y="-913.69592"
     width="857.42816"
     height="1147.7347"
     id="rect17444-2" /><rect
     x="-10061.453"
     y="-913.69592"
     width="1738.8013"
     height="1124.929"
     id="rect154594" /><rect
     x="-10061.453"
     y="-913.69592"
     width="857.42816"
     height="1147.7347"
     id="rect155326" /><linearGradient
     inkscape:collect="always"
     xlink:href="#linearGradient68000"
     id="linearGradient174872"
     gradientUnits="userSpaceOnUse"
     gradientTransform="matrix(-1.0341184,0,0,-1.0124864,153.04777,241.68964)"
     x1="56.146076"
     y1="-32.117043"
     x2="56.146076"
     y2="176.90474" /><filter
     inkscape:collect="always"
     style="color-interpolation-filters:sRGB"
     id="filter174875"
     x="-0.044699525"
     y="-0.12621465"
     width="1.089399"
     height="1.2524293"><feGaussianBlur
       inkscape:collect="always"
       stdDeviation="10.407539"
       id="feGaussianBlur174877" /></filter><rect
     x="-10061.453"
     y="-913.69592"
     width="857.42816"
     height="1147.7347"
     id="rect6830" /><rect
     x="-10061.453"
     y="-913.69592"
     width="857.42816"
     height="1147.7347"
     id="rect6830-3" /><rect
     x="-10061.453"
     y="-913.69592"
     width="1738.8013"
     height="1124.929"
     id="rect3302" /><rect
     x="-10061.453"
     y="-913.69592"
     width="1738.8013"
     height="1124.929"
     id="rect3459" /><rect
     x="-10061.453"
     y="-913.69592"
     width="1738.8013"
     height="1124.929"
     id="rect3569" /><rect
     x="-10061.453"
     y="-913.69592"
     width="1738.8013"
     height="1124.929"
     id="rect4444" /><rect
     x="-10061.453"
     y="-913.69592"
     width="1738.8013"
     height="1124.929"
     id="rect4450" /><rect
     x="-10061.453"
     y="-913.69592"
     width="1738.8013"
     height="1124.929"
     id="rect4456" /><rect
     x="-10061.453"
     y="-913.69592"
     width="1738.8013"
     height="1124.929"
     id="rect4576" /><rect
     x="-10061.453"
     y="-913.69592"
     width="1738.8013"
     height="1124.929"
     id="rect4582" /><rect
     x="-10061.453"
     y="-913.69592"
     width="1738.8013"
     height="1124.929"
     id="rect4771" /><rect
     x="-10061.453"
     y="-913.69592"
     width="1738.8013"
     height="1124.929"
     id="rect4900" /><rect
     x="-10061.453"
     y="-913.69592"
     width="1738.8013"
     height="1124.929"
     id="rect5759" /><rect
     x="-10061.453"
     y="-913.69592"
     width="1738.8013"
     height="1124.929"
     id="rect5767" /><rect
     x="-10061.453"
     y="-913.69592"
     width="1738.8013"
     height="1124.929"
     id="rect5773" /><linearGradient
     inkscape:collect="always"
     xlink:href="#linearGradient51250"
     id="linearGradient51252"
     x1="-3475.2085"
     y1="-1073.3302"
     x2="-3475.2085"
     y2="-769.85699"
     gradientUnits="userSpaceOnUse"
     gradientTransform="matrix(0.21642513,0,0,0.21526041,819.85579,248.81591)" /><linearGradient
     inkscape:collect="always"
     xlink:href="#linearGradient55090"
     id="linearGradient55092"
     x1="-3343.6719"
     y1="-1297.8143"
     x2="-3343.6719"
     y2="-688.21436"
     gradientUnits="userSpaceOnUse"
     gradientTransform="matrix(0.21661002,0,0,0.21661002,792.00616,282.87239)" /><rect
     x="-10061.453"
     y="-913.69592"
     width="857.42816"
     height="1147.7347"
     id="rect102083" /><rect
     x="-8208.5273"
     y="-3087.5469"
     width="1540.277"
     height="399.28311"
     id="rect104432" /><rect
     x="-8208.5273"
     y="-3087.5469"
     width="1540.277"
     height="399.28311"
     id="rect104432-2" /><rect
     x="-11597.953"
     y="-4257.6465"
     width="1975.8679"
     height="200.96553"
     id="rect20" /><linearGradient
     inkscape:collect="always"
     xlink:href="#linearGradient68000"
     id="linearGradient5"
     gradientUnits="userSpaceOnUse"
     gradientTransform="matrix(-1.0341184,0,0,-1.0124864,153.04777,241.68964)"
     x1="56.146076"
     y1="-32.117043"
     x2="56.146076"
     y2="176.90474" /><linearGradient
     inkscape:collect="always"
     xlink:href="#linearGradient51250"
     id="linearGradient6"
     gradientUnits="userSpaceOnUse"
     gradientTransform="matrix(0.21642513,0,0,0.21526041,1015.9211,233.49522)"
     x1="-3475.2085"
     y1="-1073.3302"
     x2="-3475.2085"
     y2="-769.85699" /><filter
     inkscape:collect="always"
     style="color-interpolation-filters:sRGB"
     id="filter2"
     x="-0.0019199858"
     y="-0.001920014"
     width="1.00384"
     height="1.00384"><feGaussianBlur
       inkscape:collect="always"
       stdDeviation="0.10606015"
       id="feGaussianBlur2" /></filter><filter
     inkscape:collect="always"
     style="color-interpolation-filters:sRGB"
     id="filter5"
     x="-0.0076799436"
     y="-0.0076800565"
     width="1.0153599"
     height="1.0153601"><feGaussianBlur
       inkscape:collect="always"
       stdDeviation="0.42424062"
       id="feGaussianBlur5" /></filter><rect
     x="-10061.453"
     y="-913.69592"
     width="857.42816"
     height="1147.7347"
     id="rect8" /><rect
     x="-11597.953"
     y="-4257.6465"
     width="1975.8679"
     height="200.96553"
     id="rect9" /></defs><sodipodi:namedview
   units="in"
   showborder="true"
   showguides="false"
   showgrid="false"
   inkscape:document-rotation="0"
   inkscape:current-layer="layer2"
   inkscape:document-units="px"
   inkscape:cy="129.26796"
   inkscape:cx="200.53106"
   inkscape:zoom="0.90509668"
   inkscape:pageshadow="2"
   inkscape:pageopacity="0"
   borderopacity="1.0"
   bordercolor="#666666"
   pagecolor="#1e1e1e"
   id="base"
   inkscape:showpageshadow="0"
   inkscape:pagecheckerboard="1"
   inkscape:deskcolor="#1e1e1e"
   inkscape:window-width="3256"
   inkscape:window-height="1080"
   inkscape:window-x="1864"
   inkscape:window-y="0"
   inkscape:window-maximized="1" /><metadata
   id="metadata5"><rdf:RDF><cc:Work
       rdf:about=""><dc:format>image/svg+xml</dc:format><dc:type
         rdf:resource="http://purl.org/dc/dcmitype/StillImage" /></cc:Work></rdf:RDF></metadata><g
   inkscape:groupmode="layer"
   id="layer2"
   inkscape:label="default-term"
   style="display:inline"><rect
     style="display:inline;fill:#801b00;fill-opacity:1;stroke:none;stroke-width:0.00223149;stroke-linecap:round;stroke-linejoin:round;paint-order:stroke fill markers"
     id="rect30139-5-3"
     width="135.46667"
     height="135.46667"
     x="-8.8817842e-16"
     y="8.8817842e-16"
     inkscape:label="GENERIC"
     inkscape:export-filename="../03M/OEM Tools/Cursors/png_icons/terminal.png"
     inkscape:export-xdpi="2.6700001"
     inkscape:export-ydpi="2.6700001"
     ry="5.5652142" /><path
     style="color:#000000;display:inline;fill:#ff8d00;stroke-linecap:round;stroke-linejoin:round;-inkscape-stroke:none;paint-order:stroke fill markers;filter:url(#filter2)"
     d="m 5.4921875,1.4882812 c -2.2372494,10e-8 -4.046875,1.8096257 -4.046875,4.046875 V 130.01562 c 0,2.23726 1.8096255,4.04688 4.046875,4.04688 H 129.97461 c 2.23725,0 4.04687,-1.80962 4.04687,-4.04688 V 5.5351562 c 0,-2.2372494 -1.80962,-4.046875 -4.04687,-4.046875 z m 0,0.5292969 H 129.97461 c 1.95324,0 3.51758,1.564334 3.51758,3.5175781 V 130.01562 c 0,1.95325 -1.56434,3.51758 -3.51758,3.51758 H 5.4921875 c -1.9532442,0 -3.5175781,-1.56433 -3.5175781,-3.51758 V 5.5351562 c 0,-1.9532442 1.5643338,-3.5175781 3.5175781,-3.5175781 z"
     id="path1" /><path
     style="display:inline;color:#000000;fill:#ff8d00;stroke-linecap:round;stroke-linejoin:round;-inkscape-stroke:none;paint-order:stroke fill markers;filter:url(#filter5)"
     d="m 5.4921875,1.4882812 c -2.2372494,10e-8 -4.046875,1.8096257 -4.046875,4.046875 V 130.01562 c 0,2.23726 1.8096255,4.04688 4.046875,4.04688 H 129.97461 c 2.23725,0 4.04687,-1.80962 4.04687,-4.04688 V 5.5351562 c 0,-2.2372494 -1.80962,-4.046875 -4.04687,-4.046875 z m 0,0.5292969 H 129.97461 c 1.95324,0 3.51758,1.564334 3.51758,3.5175781 V 130.01562 c 0,1.95325 -1.56434,3.51758 -3.51758,3.51758 H 5.4921875 c -1.9532442,0 -3.5175781,-1.56433 -3.5175781,-3.51758 V 5.5351562 c 0,-1.9532442 1.5643338,-3.5175781 3.5175781,-3.5175781 z"
     id="path5" /><path
     style="color:#000000;display:inline;fill:url(#linearGradient55092);stroke-linecap:round;stroke-linejoin:round;-inkscape-stroke:none;paint-order:stroke fill markers"
     d="M 5.4926487,1.7527663 H 129.97403 c 2.09525,0 3.78204,1.6867888 3.78204,3.7820377 V 130.01618 c 0,2.09525 -1.68679,3.78204 -3.78204,3.78204 H 5.4926487 c -2.0952489,0 -3.7820377,-1.68679 -3.7820377,-3.78204 V 5.534804 c 0,-2.0952489 1.6867888,-3.7820377 3.7820377,-3.7820377 z"
     id="path2" /><rect
     style="display:inline;mix-blend-mode:normal;fill:#000000;fill-opacity:1;stroke:none;stroke-width:0.842308;stroke-linecap:round;stroke-miterlimit:4;stroke-dasharray:none;stroke-opacity:1;paint-order:markers stroke fill"
     id="rect155691"
     width="129.82222"
     height="116.69665"
     x="2.8222158"
     y="15.947815"
     inkscape:export-filename="/home/shed/Documents/03M/OEM Tools/Cursors/03icons/tv-term.png"
     inkscape:export-xdpi="10.778109"
     inkscape:export-ydpi="10.778109"
     inkscape:label="TERMINAL"
     ry="2.8518891" /><path
     id="rect155691-7"
     style="display:none;opacity:0.2;fill:url(#linearGradient51252);stroke-width:0.818121;stroke-linecap:round;paint-order:markers stroke fill"
     inkscape:label="top-glare"
     d="M 6.5820769,17.770411 H 128.88461 c 1.14485,0 2.06651,0.916712 2.06651,2.055399 V 70.662376 C 116.94373,78.526467 94.593952,90.270767 67.733325,74.296141 40.872698,58.321514 4.7182085,77.336203 4.5155665,70.662376 V 19.82581 c 0,-1.138687 0.9216654,-2.055399 2.0665104,-2.055399 z"
     sodipodi:nodetypes="sssczcss" /><path
     id="path158598-2"
     style="display:none;opacity:0.143849;mix-blend-mode:normal;fill:url(#linearGradient174872);fill-opacity:1;stroke:none;stroke-width:2.6396;stroke-linecap:round;stroke-miterlimit:4;stroke-dasharray:none;stroke-opacity:1;paint-order:markers stroke fill;filter:url(#filter174875)"
     d="m 385.39227,270.57059 h -558.8 V 85.30186 c 0,0 152.0803,-28.42419 279.4001,0 127.3198,28.42418 279.3999,0 279.3999,0 z"
     sodipodi:nodetypes="ccczcc"
     inkscape:export-filename="/home/shed/Documents/03M/OEM Tools/Cursors/03icons/tv-term.png"
     inkscape:export-xdpi="10.778109"
     inkscape:export-ydpi="10.778109"
     inkscape:label="bottom-glare-generic"
     transform="matrix(0.22222224,0,0,0.22222224,44.179439,69.749709)" /><text
     xml:space="preserve"
     transform="matrix(0.15526475,0,0,0.15526475,1568.278,264.23489)"
     id="text6828"
     style="font-style:normal;font-weight:normal;font-size:41.5714px;line-height:1.25;font-family:sans-serif;white-space:pre;shape-inside:url(#rect6830);display:none;mix-blend-mode:normal;fill:#f9f9f9;fill-opacity:1;stroke:none;stroke-width:3.98088;stroke-linecap:round;stroke-dasharray:none;stroke-opacity:1;paint-order:stroke markers fill"
     inkscape:label="PS1"
     sodipodi:insensitive="true"><tspan
       x="-10061.453"
       y="-875.87053"
       id="tspan6">xuser[13]<tspan
   style="fill:#ff0000"
   id="tspan5">@</tspan>localtoast:~$</tspan></text><text
     xml:space="preserve"
     transform="matrix(0.12067641,0,0,0.12067641,1402.5835,510.91821)"
     id="text48516"
     style="font-style:normal;font-weight:normal;font-size:162.667px;line-height:1.25;font-family:sans-serif;white-space:pre;shape-inside:url(#rect48518);display:none;fill:#ffffff;fill-opacity:1;stroke:#000000;stroke-width:4.385;stroke-linecap:round;stroke-dasharray:none;stroke-opacity:1;paint-order:markers stroke fill"
     inkscape:label="title"
     sodipodi:insensitive="true"><tspan
       x="-11597.953"
       y="-4107.1795"
       id="tspan8"><tspan
         style="font-family:'3270Medium NF';-inkscape-font-specification:'3270Medium NF, Normal'"
         id="tspan7">XTerm</tspan></tspan></text><path
     d="m 14.81666,127.45619 c 0,0 40.522066,-51.706828 40.522066,-51.706828 0,0 -40.522066,-54.613271 -40.522066,-54.613271 h 26.207779 c 0,0 32.455507,44.192321 32.455507,44.192321 L 24.078814,127.45619 Z M 61.74022,83.623667 111.1273,21.136091 c 0,0 9.52269,0 9.52269,0 L 80.115827,72.408952 c 0,0 40.534163,55.047238 40.534163,55.047238 H 94.441991 Z"
     id="path2830"
     style="display:inline;opacity:0.1;fill:#e6e6e6;stroke-width:0.264583"
     inkscape:label="X11-logo" /><g
     id="g6"
     transform="translate(-196.0653,15.793248)"
     style="display:inline"><path
       id="path3"
       style="display:inline;opacity:0.2;fill:url(#linearGradient6);stroke-width:0.818121;stroke-linecap:round;paint-order:markers stroke fill"
       inkscape:label="TERMINAL"
       d="m 202.64758,2.4499797 c -1.14484,0 -2.06654,0.9164859 -2.06654,2.0551718 V 55.341843 c 0.12969,4.271068 21.66664,-5.121031 41.97935,-6.831625 L 210.88171,5.8151491 h 26.20822 l 32.45538,44.1926529 -2.28203,2.869592 c 0.59668,0.393591 1.1765,0.81285 1.73323,1.266073 L 307.19263,5.8151491 h 9.52241 l -40.53396,51.2733569 5.85442,7.950937 c 16.04732,7.902717 33.51575,-3.260887 44.98072,-9.6976 V 4.5051515 c 0,-1.1386859 -0.92169,-2.0551718 -2.06654,-2.0551718 z" /><path
       id="path4"
       style="display:inline;opacity:0.143849;mix-blend-mode:normal;fill:url(#linearGradient5);fill-opacity:1;stroke:none;stroke-width:2.6396;stroke-linecap:round;stroke-miterlimit:4;stroke-dasharray:none;stroke-opacity:1;paint-order:markers stroke fill;filter:url(#filter174875)"
       inkscape:label="bottom-glare-generic"
       d="M -15.226737,72.705833 C -101.52543,71.866155 -173.40777,85.302738 -173.40777,85.302738 V 270.57049 H 385.39297 V 85.302738 c 0,0 -73.15553,13.634064 -160.44601,12.536443 L 344.11643,259.67813 H 226.18177 L 94.261922,82.856376 C 81.274856,80.329845 68.091917,78.400574 54.892234,76.891624 L -90.452374,259.67813 H -132.13355 L 13.687775,73.610429 C 3.9358272,73.136934 -5.7465713,72.798074 -15.226737,72.705833 Z"
       transform="matrix(0.22222224,0,0,0.22222224,240.24472,54.429021)" /></g><g
     id="text6"
     style="font-size:41.5714px;line-height:1.25;white-space:pre;fill:#f9f9f9;stroke-width:3.98088;stroke-linecap:round;paint-order:stroke markers fill"
     inkscape:label="PS1"
     transform="matrix(0.15526475,0,0,0.15526475,1568.278,264.23489)"
     aria-label="xuser[13]@localtoast:~$"><path
       d="m -10052.64,-887.26109 -7.691,-10.89171 h 4.157 l 5.737,8.39742 5.696,-8.39742 h 4.115 l -7.691,10.89171 8.107,11.39056 h -4.157 l -6.07,-8.89628 -6.152,8.89628 h -4.116 z m 35.336,-10.89171 v 22.28227 h -2.993 l -0.541,-2.95157 h -0.166 q -1.081,1.746 -2.993,2.57743 -1.913,0.78986 -4.074,0.78986 -4.033,0 -6.07,-1.91229 -2.037,-1.95385 -2.037,-6.19414 v -14.59156 h 3.7 v 14.34214 q 0,5.32113 4.947,5.32113 3.7,0 5.113,-2.07857 1.455,-2.07857 1.455,-5.98628 v -11.59842 z m 21.5752,16.12971 q 0,3.24256 -2.4111,4.90542 -2.4111,1.66286 -6.4851,1.66286 -2.328,0 -4.032,-0.37415 -1.663,-0.37414 -2.952,-1.03928 v -3.32571 q 1.33,0.66514 3.201,1.24714 1.912,0.54043 3.866,0.54043 2.785,0 4.033,-0.873 1.2467,-0.91457 1.2467,-2.41114 0,-0.83143 -0.4573,-1.49657 -0.4574,-0.66515 -1.6624,-1.33029 -1.164,-0.66514 -3.368,-1.49657 -2.161,-0.83143 -3.7,-1.66286 -1.538,-0.83142 -2.369,-1.99542 -0.832,-1.164 -0.832,-2.99314 0,-2.82686 2.287,-4.365 2.328,-1.53814 6.069,-1.53814 2.037,0 3.7832,0.41571 1.7876,0.37414 3.3257,1.08086 l -1.2471,2.91 q -1.4134,-0.582 -2.9518,-0.99772 -1.538,-0.41571 -3.159,-0.41571 -2.245,0 -3.451,0.74828 -1.164,0.70672 -1.164,1.95386 0,0.91457 0.541,1.57971 0.54,0.62357 1.787,1.24715 1.289,0.58199 3.409,1.41342 2.12,0.78986 3.6169,1.62129 1.4966,0.83143 2.2865,2.037 0.7898,1.164 0.7898,2.95157 z m 14.0096,-16.54542 q 2.8684,0 4.9054,1.24714 2.0786,1.24714 3.1595,3.53357 1.1224,2.24485 1.1224,5.27957 v 2.20328 h -15.2567 q 0.083,3.783 1.9123,5.77843 1.8707,1.95385 5.1964,1.95385 2.1201,0 3.7414,-0.37414 1.6629,-0.41572 3.4089,-1.164 v 3.201 q -1.7045,0.74828 -3.3673,1.08085 -1.6629,0.37415 -3.9493,0.37415 -3.1594,0 -5.6121,-1.28872 -2.4112,-1.28871 -3.783,-3.82457 -1.3303,-2.57742 -1.3303,-6.27728 0,-3.65828 1.2056,-6.27728 1.2471,-2.619 3.4504,-4.03242 2.2448,-1.41343 5.1964,-1.41343 z m -0.042,2.99314 q -2.619,0 -4.1571,1.70443 -1.4966,1.66285 -1.7876,4.65599 h 11.349 q -0.042,-2.82685 -1.3303,-4.57285 -1.2887,-1.78757 -4.074,-1.78757 z m 25.2754,-2.99314 q 0.6236,0 1.3303,0.0831 0.7483,0.0416 1.2887,0.16629 l -0.4573,3.36728 q -0.5404,-0.12471 -1.2056,-0.20786 -0.6235,-0.0831 -1.2055,-0.0831 -1.7045,0 -3.201,0.95614 -1.4966,0.91457 -2.4112,2.619 -0.873,1.66286 -0.873,3.90771 v 11.88942 h -3.6583 v -22.28227 h 2.9932 l 0.4157,4.074 h 0.1663 q 1.0808,-1.82914 2.7853,-3.15943 1.7044,-1.33028 4.0324,-1.33028 z m 15.8803,29.26626 h -9.312 v -36.25026 h 9.312 v 2.99314 h -5.7369 v 30.26398 h 5.7369 z m 15.7971,-6.56828 h -3.5751 v -20.74413 q 0,-1.78757 0.042,-2.86842 0.042,-1.08086 0.1247,-2.24486 -0.6652,0.66514 -1.2056,1.12243 -0.5404,0.45729 -1.3718,1.164 l -3.1595,2.57743 -1.9123,-2.45272 8.0233,-6.23571 h 3.0347 z m 29.5157,-22.73955 q 0,2.99314 -1.6628,4.78071 -1.6629,1.746 -4.4897,2.328 v 0.16628 q 3.5751,0.41572 5.3211,2.24486 1.746,1.82914 1.746,4.78071 0,2.57743 -1.2056,4.61442 -1.2055,1.99543 -3.7414,3.11786 -2.4943,1.12243 -6.4435,1.12243 -2.328,0 -4.3235,-0.37415 -1.9954,-0.33257 -3.8245,-1.24714 v -3.40885 q 1.8707,0.91457 4.0324,1.455 2.1617,0.49885 4.1571,0.49885 3.9909,0 5.7369,-1.53814 1.7875,-1.57971 1.7875,-4.32342 0,-2.78529 -2.2032,-3.99086 -2.1618,-1.24714 -6.111,-1.24714 h -2.8685 v -3.11786 h 2.91 q 3.6583,0 5.529,-1.53814 1.9123,-1.53814 1.9123,-4.07399 0,-2.16172 -1.455,-3.32572 -1.455,-1.20557 -3.9493,-1.20557 -2.4111,0 -4.1155,0.70672 -1.7045,0.70671 -3.3673,1.78757 l -1.8292,-2.49429 q 1.5798,-1.24714 3.9078,-2.16171 2.3695,-0.91457 5.3627,-0.91457 4.656,0 6.9008,2.07857 2.2864,2.07857 2.2864,5.27957 z m 4.3235,26.31469 h 5.7369 v -30.26398 h -5.7369 v -2.99314 h 9.312 v 36.25026 h -9.312 z"
       id="path9" /><path
       style="fill:#ff0000"
       d="m -9843.3695,-890.71152 q 0,1.91229 -0.4573,3.74143 -0.4157,1.82914 -1.3303,3.32571 -0.9146,1.455 -2.2449,2.36957 -1.3302,0.873 -3.1594,0.873 -1.9123,0 -3.0347,-1.08086 -1.0809,-1.12242 -1.3303,-2.53585 h -0.2078 q -0.7483,1.53814 -2.2033,2.57742 -1.455,1.03929 -3.6583,1.03929 -3.1594,0 -4.9054,-2.12014 -1.7045,-2.12014 -1.7045,-5.61214 0,-2.74371 1.0809,-4.82228 1.0808,-2.12014 3.0347,-3.32571 1.9954,-1.20558 4.6976,-1.20558 1.8291,0 3.5751,0.33258 1.7876,0.291 2.7853,0.66514 l -0.4157,8.43899 q -0.042,0.74829 -0.042,1.08086 0,0.291 0,0.41571 0,2.16172 0.7483,2.86843 0.7899,0.70671 1.8291,0.70671 1.2888,0 2.1618,-1.03928 0.9145,-1.08086 1.3718,-2.82686 0.4989,-1.78757 0.4989,-3.90771 0,-3.86614 -1.5797,-6.52671 -1.5382,-2.70214 -4.2819,-4.11557 -2.7021,-1.41342 -6.1526,-1.41342 -4.7391,0 -8.0233,1.95385 -3.2425,1.95386 -4.9469,5.40428 -1.6629,3.40886 -1.6629,7.81543 0,6.15256 3.2426,9.4367 3.2425,3.28414 9.3535,3.28414 2.5359,0 4.8223,-0.58199 2.328,-0.54043 4.1156,-1.20558 v 2.82686 q -1.7876,0.74828 -4.0324,1.20557 -2.2033,0.49886 -4.9055,0.49886 -4.9054,0 -8.3974,-1.82914 -3.492,-1.82915 -5.3627,-5.238 -1.8291,-3.45043 -1.8291,-8.27271 0,-3.86614 1.2055,-7.15028 1.2056,-3.32571 3.492,-5.73685 2.2865,-2.45272 5.529,-3.783 3.2842,-1.37186 7.3997,-1.37186 4.3235,0 7.6907,1.78757 3.3673,1.78757 5.2796,5.11329 1.9539,3.32571 1.9539,7.94013 z m -20.9936,2.66057 q 0,2.66057 1.0393,3.86614 1.0808,1.20557 2.8684,1.20557 2.328,0 3.3257,-1.746 1.0393,-1.74599 1.2056,-4.53128 l 0.2494,-5.19642 q -0.5404,-0.16629 -1.3718,-0.291 -0.8315,-0.12472 -1.7045,-0.12472 -2.037,0 -3.2841,0.99772 -1.2471,0.99771 -1.7876,2.57742 -0.5404,1.53814 -0.5404,3.24257 z"
       id="path10" /><path
       d="m -9833.7665,-875.87053 h -3.6583 v -31.59426 h 3.6583 z m 26.4394,-11.1827 q 0,5.52899 -2.8269,8.5637 -2.7853,3.03472 -7.566,3.03472 -2.9516,0 -5.2796,-1.33029 -2.2864,-1.37185 -3.6167,-3.94928 -1.3303,-2.619 -1.3303,-6.31885 0,-5.529 2.7853,-8.52214 2.7853,-2.99314 7.566,-2.99314 3.0347,0 5.3212,1.37185 2.328,1.33029 3.6167,3.90772 1.3303,2.53585 1.3303,6.23571 z m -16.8365,0 q 0,3.94928 1.5382,6.27728 1.5797,2.28642 4.9885,2.28642 3.3673,0 4.947,-2.28642 1.5798,-2.328 1.5798,-6.27728 0,-3.94929 -1.5798,-6.19414 -1.5797,-2.24486 -4.9885,-2.24486 -3.4089,0 -4.947,2.24486 -1.5382,2.24485 -1.5382,6.19414 z m 31.5527,11.59842 q -2.9516,0 -5.2796,-1.20557 -2.2864,-1.20557 -3.6167,-3.74143 -1.2887,-2.53586 -1.2887,-6.48514 0,-4.11557 1.3719,-6.69299 1.3718,-2.57743 3.6998,-3.783 2.3696,-1.20557 5.3627,-1.20557 1.7045,0 3.2842,0.37414 1.5797,0.33257 2.5774,0.83143 l -1.1224,3.03471 q -0.9977,-0.37414 -2.328,-0.70671 -1.3303,-0.33257 -2.4943,-0.33257 -6.5683,0 -6.5683,8.43899 0,4.03243 1.5797,6.19414 1.6213,2.12014 4.7807,2.12014 1.8292,0 3.201,-0.37414 1.4135,-0.37415 2.5775,-0.91457 v 3.24257 q -1.1225,0.582 -2.4943,0.873 -1.3303,0.33257 -3.2426,0.33257 z m 19.4554,-23.07213 q 4.074,0 6.0279,1.78757 1.9538,1.78757 1.9538,5.69528 v 15.17356 h -2.6605 l -0.7068,-3.15942 h -0.1662 q -1.455,1.82914 -3.0763,2.70214 -1.5797,0.873 -4.4066,0.873 -3.0347,0 -5.0301,-1.57972 -1.9955,-1.62128 -1.9955,-5.03014 0,-3.32571 2.619,-5.11328 2.619,-1.82914 8.0649,-1.99543 l 3.783,-0.12471 v -1.33028 q 0,-2.78529 -1.2056,-3.86614 -1.2056,-1.08086 -3.4088,-1.08086 -1.746,0 -3.3258,0.54043 -1.5797,0.49885 -2.9515,1.164 l -1.1225,-2.74372 q 1.455,-0.78985 3.4505,-1.33028 1.9954,-0.582 4.1571,-0.582 z m 1.0809,11.88942 q -4.1572,0.16629 -5.7785,1.33028 -1.5797,1.164 -1.5797,3.28415 0,1.87071 1.1225,2.74371 1.164,0.873 2.9515,0.873 2.8269,0 4.6976,-1.53814 1.8707,-1.57972 1.8707,-4.82229 v -1.99542 z m 17.46,10.76699 h -3.6583 v -31.59426 h 3.6583 z m 14.5084,-2.57742 q 0.8314,0 1.7044,-0.12472 0.873,-0.16628 1.4134,-0.33257 v 2.78528 q -0.5819,0.291 -1.6628,0.45729 -1.0809,0.20786 -2.0786,0.20786 -1.746,0 -3.2425,-0.582 -1.455,-0.62357 -2.3696,-2.12014 -0.9146,-1.49657 -0.9146,-4.19872 v -12.97027 h -3.1594 v -1.746 l 3.201,-1.455 1.455,-4.73914 h 2.1617 v 5.11328 h 6.4436 v 2.82686 h -6.4436 v 12.88713 q 0,2.037 0.9561,3.03471 0.9978,0.95615 2.5359,0.95615 z m 26.9382,-8.60528 q 0,5.52899 -2.8268,8.5637 -2.7853,3.03472 -7.566,3.03472 -2.9516,0 -5.2796,-1.33029 -2.2864,-1.37185 -3.6167,-3.94928 -1.3303,-2.619 -1.3303,-6.31885 0,-5.529 2.7853,-8.52214 2.7853,-2.99314 7.566,-2.99314 3.0347,0 5.3212,1.37185 2.328,1.33029 3.6167,3.90772 1.3302,2.53585 1.3302,6.23571 z m -16.8364,0 q 0,3.94928 1.5382,6.27728 1.5797,2.28642 4.9885,2.28642 3.3673,0 4.947,-2.28642 1.5798,-2.328 1.5798,-6.27728 0,-3.94929 -1.5798,-6.19414 -1.5797,-2.24486 -4.9885,-2.24486 -3.4089,0 -4.947,2.24486 -1.5382,2.24485 -1.5382,6.19414 z m 31.0539,-11.47371 q 4.074,0 6.0278,1.78757 1.9539,1.78757 1.9539,5.69528 v 15.17356 h -2.6606 l -0.7067,-3.15942 h -0.1663 q -1.455,1.82914 -3.0763,2.70214 -1.5797,0.873 -4.4065,0.873 -3.0348,0 -5.0302,-1.57972 -1.9954,-1.62128 -1.9954,-5.03014 0,-3.32571 2.619,-5.11328 2.619,-1.82914 8.0648,-1.99543 l 3.783,-0.12471 v -1.33028 q 0,-2.78529 -1.2055,-3.86614 -1.2056,-1.08086 -3.4089,-1.08086 -1.746,0 -3.3257,0.54043 -1.5797,0.49885 -2.9516,1.164 l -1.1224,-2.74372 q 1.455,-0.78985 3.4504,-1.33028 1.9955,-0.582 4.1572,-0.582 z m 1.0808,11.88942 q -4.1571,0.16629 -5.7784,1.33028 -1.5797,1.164 -1.5797,3.28415 0,1.87071 1.1224,2.74371 1.164,0.873 2.9516,0.873 2.8268,0 4.6976,-1.53814 1.8707,-1.57972 1.8707,-4.82229 v -1.99542 z m 28.3102,4.61443 q 0,3.24256 -2.4112,4.90542 -2.4111,1.66286 -6.4851,1.66286 -2.328,0 -4.0324,-0.37415 -1.6629,-0.37414 -2.9516,-1.03928 v -3.32571 q 1.3303,0.66514 3.201,1.24714 1.9123,0.54043 3.8661,0.54043 2.7853,0 4.0324,-0.873 1.2472,-0.91457 1.2472,-2.41114 0,-0.83143 -0.4573,-1.49657 -0.4573,-0.66515 -1.6629,-1.33029 -1.164,-0.66514 -3.3672,-1.49657 -2.1618,-0.83143 -3.6999,-1.66286 -1.5381,-0.83142 -2.3696,-1.99542 -0.8314,-1.164 -0.8314,-2.99314 0,-2.82686 2.2864,-4.365 2.328,-1.53814 6.0695,-1.53814 2.037,0 3.783,0.41571 1.7875,0.37414 3.3257,1.08086 l -1.2472,2.91 q -1.4134,-0.582 -2.9515,-0.99772 -1.5382,-0.41571 -3.1595,-0.41571 -2.2448,0 -3.4504,0.74828 -1.164,0.70672 -1.164,1.95386 0,0.91457 0.5404,1.57971 0.5405,0.62357 1.7876,1.24715 1.2887,0.58199 3.4089,1.41342 2.1201,0.78986 3.6167,1.62129 1.4965,0.83143 2.2864,2.037 0.7899,1.164 0.7899,2.95157 z m 12.8455,3.57514 q 0.8315,0 1.7045,-0.12472 0.873,-0.16628 1.4134,-0.33257 v 2.78528 q -0.582,0.291 -1.6629,0.45729 -1.0808,0.20786 -2.0785,0.20786 -1.746,0 -3.2426,-0.582 -1.455,-0.62357 -2.3696,-2.12014 -0.9145,-1.49657 -0.9145,-4.19872 v -12.97027 h -3.1595 v -1.746 l 3.201,-1.455 1.455,-4.73914 h 2.1617 v 5.11328 h 6.4436 v 2.82686 h -6.4436 v 12.88713 q 0,2.037 0.9562,3.03471 0.9977,0.95615 2.5358,0.95615 z m 7.0256,-17.45999 q 0,-1.57972 0.7483,-2.20329 0.7483,-0.62357 1.7875,-0.62357 1.0809,0 1.8292,0.62357 0.7898,0.62357 0.7898,2.20329 0,1.49657 -0.7898,2.16171 -0.7483,0.66514 -1.8292,0.66514 -1.0392,0 -1.7875,-0.66514 -0.7483,-0.66514 -0.7483,-2.16171 z m 0,17.79256 q 0,-1.53814 0.7483,-2.16172 0.7483,-0.62357 1.7875,-0.62357 1.0809,0 1.8292,0.62357 0.7898,0.62358 0.7898,2.16172 0,1.49657 -0.7898,2.16171 -0.7483,0.66514 -1.8292,0.66514 -1.0392,0 -1.7875,-0.66514 -0.7483,-0.66514 -0.7483,-2.16171 z m 19.3307,-11.01642 q -1.4966,-0.66515 -2.4943,-0.873 -0.9561,-0.24943 -1.8707,-0.24943 -1.164,0 -2.4527,0.70671 -1.2887,0.70672 -2.2864,1.746 v -3.24257 q 1.9954,-2.20328 4.9885,-2.20328 1.2056,0 2.3696,0.24943 1.2056,0.24942 3.1179,1.08085 1.4965,0.66514 2.4527,0.91457 0.9977,0.20786 1.8707,0.20786 1.2056,0 2.4943,-0.70671 1.2887,-0.70672 2.2864,-1.746 v 3.201 q -2.037,2.24485 -4.9886,2.24485 -1.164,0 -2.4111,-0.24943 -1.2056,-0.291 -3.0763,-1.08085 z m 23.1137,11.22427 q -2.2864,-0.0416 -4.4481,-0.37414 -2.1618,-0.37414 -3.492,-0.99771 v -3.53357 q 1.4134,0.66514 3.6167,1.164 2.2033,0.49885 4.3234,0.54043 v -8.39743 q -4.1156,-1.12242 -6.0279,-2.82685 -1.9122,-1.70443 -1.9122,-4.656 0,-3.07628 2.1201,-4.82228 2.1617,-1.746 5.82,-1.95386 v -3.65828 h 2.6606 v 3.61671 q 2.2033,0.0416 3.9908,0.49886 1.8292,0.41571 3.3257,1.03928 l -1.1224,3.07629 q -1.3303,-0.54043 -2.9516,-0.91457 -1.5797,-0.41572 -3.2425,-0.54043 v 8.35585 q 2.7437,0.78986 4.5728,1.70443 1.8292,0.873 2.7437,2.20328 0.9562,1.28871 0.9562,3.36728 0,2.91 -2.1617,4.73914 -2.1617,1.78757 -6.111,2.20329 v 4.61442 h -2.6606 z m 0,-22.65641 q -2.2449,0.16629 -3.3257,1.03929 -1.0393,0.873 -1.0393,2.24485 0,1.66286 0.9146,2.57743 0.9561,0.873 3.4504,1.49657 z m 2.6606,19.24756 q 2.4527,-0.24943 3.5751,-1.12243 1.1224,-0.91457 1.1224,-2.328 0,-1.57971 -0.9977,-2.36957 -0.9977,-0.83142 -3.6998,-1.49657 z"
       id="path11" /></g><path
     style="font-size:162.667px;line-height:1.25;font-family:'3270Medium NF';-inkscape-font-specification:'3270Medium NF, Normal';white-space:pre;fill:#ffffff;stroke:#000000;stroke-width:4.385;stroke-linecap:round;paint-order:markers stroke fill"
     d="m -11554.684,-4152.8889 24.888,25.0507 v 12.5253 h 9.76 v -14.4773 c 0,-1.3014 -0.488,-2.44 -1.464,-3.416 l -26.189,-26.6774 26.189,-26.5147 c 0.976,-0.976 1.464,-2.1147 1.464,-3.416 v -14.4774 h -9.76 v 12.5254 l -24.725,25.0507 -24.888,-25.0507 v -12.5254 h -9.76 v 14.4774 c 0,1.3013 0.488,2.44 1.464,3.416 l 26.189,26.6774 -26.189,26.5147 c -0.976,0.976 -1.464,2.1146 -1.464,3.416 v 14.4773 h 9.76 v -12.5253 z m 52.704,-51.4028 v 9.76 h 29.606 v 79.3815 h 9.922 v -79.3815 h 29.768 v -9.76 z m 97.275,59.5361 h 49.451 v -24.7254 c 0,-0.8133 -0.326,-2.1146 -1.464,-3.2533 l -9.598,-10.0854 c -0.488,-0.488 -1.789,-1.7893 -3.416,-1.7893 h -29.442 c -0.814,0 -2.44,0.6507 -3.579,1.7893 l -9.923,10.2481 c -0.488,0.488 -1.626,1.6266 -1.626,3.2533 v 39.3654 c 0,0.8134 0.162,2.2774 1.301,3.416 l 10.085,9.76 c 0.488,0.488 1.79,1.3014 3.254,1.3014 h 44.733 v -9.1094 h -42.781 l -6.995,-7.32 z m 0.163,-10.0853 v -12.5254 l 7.157,-7.32 h 25.701 l 6.995,7.1573 v 12.6881 z m 95.16,-3.2534 16.755,-16.592 h 7.808 l 7.32,6.9947 v 2.928 h 9.76 v -4.88 c 0,-1.464 -0.488,-2.6027 -1.464,-3.5787 l -10.248,-9.9227 c -0.814,-0.976 -1.952,-1.464 -3.416,-1.464 h -11.875 c -1.302,0 -2.44,0.6507 -3.416,1.6267 l -11.224,11.3867 v -3.0907 c 0,-5.2054 -6.995,-9.9227 -9.76,-9.9227 h -7.971 v 9.9227 h 2.928 c 1.627,0 2.603,0.488 3.741,1.464 0.976,1.1387 1.302,2.1147 1.302,3.5787 l 0.162,54.4934 9.598,-0.1627 z m 108.824,-9.76 6.669,-6.832 h 6.344 l 6.67,6.6693 v 52.8668 h 9.76 v -54.8188 c 0,-1.3013 -0.488,-2.44 -1.464,-3.416 l -9.598,-9.5973 c -0.976,-0.976 -2.114,-1.464 -3.416,-1.464 h -10.41 c -1.302,0 -2.44,0.488 -3.416,1.464 l -6.182,6.1813 -5.856,-6.344 c -0.976,-0.976 -2.114,-1.464 -3.578,-1.464 h -10.086 c -1.301,0 -2.44,0.488 -3.416,1.464 l -1.464,1.464 v -2.7653 h -9.923 v 69.2961 h 9.761 v -52.5414 l 7.157,-6.9947 h 5.856 l 6.669,6.832 v 52.7041 h 9.923 z"
     id="text8"
     inkscape:label="title"
     transform="matrix(0.12067641,0,0,0.12067641,1402.5835,510.91821)"
     aria-label="XTerm" /></g>  <metadata
   id="metadata1">
    <rdf:RDF>
      <cc:Work
   rdf:about="">
        <dc:creator>
          <cc:Agent>
            <dc:title>Jess Tipton</dc:title>
          </cc:Agent>
        </dc:creator>
        <dc:publisher>
          <cc:Agent>
            <dc:title>m0dw3rks.com</dc:title>
          </cc:Agent>
        </dc:publisher>
        <cc:license
   rdf:resource="https://creativecommons.org/licenses/by-nc-nd/4.0/deed.en" />
      </cc:Work>
    </rdf:RDF>
  </metadata>
  <metadata
   id="metadata6">
    <rdf:RDF>
      <cc:Work
   rdf:about="">
        <dc:creator>
          <cc:Agent>
            <dc:title>Jess Tipton</dc:title>
          </cc:Agent>
        </dc:creator>
        <cc:license
   rdf:resource="https://creativecommons.org/licenses/by-nc-nd/4.0/deed.en" />
        <dc:publisher>
          <cc:Agent>
            <dc:title>m0dw3rks.com</dc:title>
          </cc:Agent>
        </dc:publisher>
      </cc:Work>
    </rdf:RDF>
  </metadata>
  <metadata
   id="metadata2">
    <rdf:RDF>
      <cc:Work
   rdf:about="">
        <dc:creator>
          <cc:Agent>
            <dc:title>Jess Tipton</dc:title>
          </cc:Agent>
        </dc:creator>
        <cc:license
   rdf:resource="https://creativecommons.org/licenses/by-nc-nd/4.0/deed.en" />
        <dc:publisher>
          <cc:Agent>
            <dc:title>m0dw3rks.com</dc:title>
          </cc:Agent>
        </dc:publisher>
      </cc:Work>
    </rdf:RDF>
  </metadata>
  <metadata
   id="metadata3">
    <rdf:RDF>
      <cc:Work
   rdf:about="">
        <dc:creator>
          <cc:Agent>
            <dc:title>Jess Tipton</dc:title>
          </cc:Agent>
        </dc:creator>
        <cc:license
   rdf:resource="https://creativecommons.org/licenses/by-nc-nd/4.0/deed.en" />
        <dc:publisher>
          <cc:Agent>
            <dc:title>m0dw3rks.com</dc:title>
          </cc:Agent>
        </dc:publisher>
      </cc:Work>
    </rdf:RDF>
  </metadata>
  <metadata
   id="metadata4">
    <rdf:RDF>
      <cc:Work
   rdf:about="">
        <dc:creator>
          <cc:Agent>
            <dc:title>Jess Tipton</dc:title>
          </cc:Agent>
        </dc:creator>
        <cc:license
   rdf:resource="https://creativecommons.org/licenses/by-nc-nd/4.0/deed.en" />
        <dc:publisher>
          <cc:Agent>
            <dc:title>m0dw3rks.com</dc:title>
          </cc:Agent>
        </dc:publisher>
      </cc:Work>
    </rdf:RDF>
  </metadata>
  <metadata
   id="metadata7">
    <rdf:RDF>
      <cc:Work
   rdf:about="">
        <dc:creator>
          <cc:Agent>
            <dc:title>Jess Tipton</dc:title>
          </cc:Agent>
        </dc:creator>
        <cc:license
   rdf:resource="https://creativecommons.org/licenses/by-nc-nd/4.0/deed.en" />
        <dc:publisher>
          <cc:Agent>
            <dc:title>m0dw3rks.com</dc:title>
          </cc:Agent>
        </dc:publisher>
      </cc:Work>
    </rdf:RDF>
  </metadata>
  <metadata
   id="metadata8">
    <rdf:RDF>
      <cc:Work
   rdf:about="">
        <dc:creator>
          <cc:Agent>
            <dc:title>Jess Tipton</dc:title>
          </cc:Agent>
        </dc:creator>
        <cc:license
   rdf:resource="https://creativecommons.org/licenses/by-nc-nd/4.0/deed.en" />
        <dc:publisher>
          <cc:Agent>
            <dc:title>m0dw3rks.com</dc:title>
          </cc:Agent>
        </dc:publisher>
      </cc:Work>
    </rdf:RDF>
  </metadata>
  <metadata
   id="metadata9">
    <rdf:RDF>
      <cc:Work
   rdf:about="">
        <dc:creator>
          <cc:Agent>
            <dc:title>Jess Tipton</dc:title>
          </cc:Agent>
        </dc:creator>
        <cc:license
   rdf:resource="https://creativecommons.org/licenses/by-nc-nd/4.0/deed.en" />
        <dc:publisher>
          <cc:Agent>
            <dc:title>m0dw3rks.com</dc:title>
          </cc:Agent>
        </dc:publisher>
      </cc:Work>
    </rdf:RDF>
  </metadata>
  <metadata
   id="metadata10">
    <rdf:RDF>
      <cc:Work
   rdf:about="">
        <dc:creator>
          <cc:Agent>
            <dc:title>Jess Tipton</dc:title>
          </cc:Agent>
        </dc:creator>
        <cc:license
   rdf:resource="https://creativecommons.org/licenses/by-nc-nd/4.0/deed.en" />
        <dc:publisher>
          <cc:Agent>
            <dc:title>m0dw3rks.com</dc:title>
          </cc:Agent>
        </dc:publisher>
      </cc:Work>
    </rdf:RDF>
  </metadata>
  <metadata
   id="metadata11">
    <rdf:RDF>
      <cc:Work
   rdf:about="">
        <dc:creator>
          <cc:Agent>
            <dc:title>Jess Tipton</dc:title>
          </cc:Agent>
        </dc:creator>
        <cc:license
   rdf:resource="https://creativecommons.org/licenses/by-nc-nd/4.0/deed.en" />
        <dc:publisher>
          <cc:Agent>
            <dc:title>m0dw3rks.com</dc:title>
          </cc:Agent>
        </dc:publisher>
      </cc:Work>
    </rdf:RDF>
  </metadata>
  <metadata
   id="metadata12">
    <rdf:RDF>
      <cc:Work
   rdf:about="">
        <dc:creator>
          <cc:Agent>
            <dc:title>Jess Tipton</dc:title>
          </cc:Agent>
        </dc:creator>
        <cc:license
   rdf:resource="https://creativecommons.org/licenses/by-nc-nd/4.0/deed.en" />
        <dc:publisher>
          <cc:Agent>
            <dc:title>m0dw3rks.com</dc:title>
          </cc:Agent>
        </dc:publisher>
      </cc:Work>
    </rdf:RDF>
  </metadata>
  <metadata
   id="metadata13">
    <rdf:RDF>
      <cc:Work
   rdf:about="">
        <dc:creator>
          <cc:Agent>
            <dc:title>Jess Tipton</dc:title>
          </cc:Agent>
        </dc:creator>
        <cc:license
   rdf:resource="https://creativecommons.org/licenses/by-nc-nd/4.0/deed.en" />
        <dc:publisher>
          <cc:Agent>
            <dc:title>m0dw3rks.com</dc:title>
          </cc:Agent>
        </dc:publisher>
      </cc:Work>
    </rdf:RDF>
  </metadata>
  <metadata
   id="metadata14">
    <rdf:RDF>
      <cc:Work
   rdf:about="">
        <dc:creator>
          <cc:Agent>
            <dc:title>Jess Tipton</dc:title>
          </cc:Agent>
        </dc:creator>
        <cc:license
   rdf:resource="https://creativecommons.org/licenses/by-nc-nd/4.0/deed.en" />
        <dc:publisher>
          <cc:Agent>
            <dc:title>m0dw3rks.com</dc:title>
          </cc:Agent>
        </dc:publisher>
      </cc:Work>
    </rdf:RDF>
  </metadata>
  <metadata
   id="metadata15">
    <rdf:RDF>
      <cc:Work
   rdf:about="">
        <dc:creator>
          <cc:Agent>
            <dc:title>Jess Tipton</dc:title>
          </cc:Agent>
        </dc:creator>
        <cc:license
   rdf:resource="https://creativecommons.org/licenses/by-nc-nd/4.0/deed.en" />
        <dc:publisher>
          <cc:Agent>
            <dc:title>m0dw3rks.com</dc:title>
          </cc:Agent>
        </dc:publisher>
      </cc:Work>
    </rdf:RDF>
  </metadata>
  <metadata
   id="metadata16">
    <rdf:RDF>
      <cc:Work
   rdf:about="">
        <dc:creator>
          <cc:Agent>
            <dc:title>Jess Tipton</dc:title>
          </cc:Agent>
        </dc:creator>
        <cc:license
   rdf:resource="https://creativecommons.org/licenses/by-nc-nd/4.0/deed.en" />
        <dc:publisher>
          <cc:Agent>
            <dc:title>m0dw3rks.com</dc:title>
          </cc:Agent>
        </dc:publisher>
      </cc:Work>
    </rdf:RDF>
  </metadata>
  <metadata
   id="metadata17">
    <rdf:RDF>
      <cc:Work
   rdf:about="">
        <dc:creator>
          <cc:Agent>
            <dc:title>Jess Tipton</dc:title>
          </cc:Agent>
        </dc:creator>
        <cc:license
   rdf:resource="https://creativecommons.org/licenses/by-nc-nd/4.0/deed.en" />
        <dc:publisher>
          <cc:Agent>
            <dc:title>m0dw3rks.com</dc:title>
          </cc:Agent>
        </dc:publisher>
      </cc:Work>
    </rdf:RDF>
  </metadata>
  <metadata
   id="metadata18">
    <rdf:RDF>
      <cc:Work
   rdf:about="">
        <dc:creator>
          <cc:Agent>
            <dc:title>Jess Tipton</dc:title>
          </cc:Agent>
        </dc:creator>
        <cc:license
   rdf:resource="https://creativecommons.org/licenses/by-nc-nd/4.0/deed.en" />
        <dc:publisher>
          <cc:Agent>
            <dc:title>m0dw3rks.com</dc:title>
          </cc:Agent>
        </dc:publisher>
      </cc:Work>
    </rdf:RDF>
  </metadata>
  <metadata
   id="metadata19">
    <rdf:RDF>
      <cc:Work
   rdf:about="">
        <dc:creator>
          <cc:Agent>
            <dc:title>Jess Tipton</dc:title>
          </cc:Agent>
        </dc:creator>
        <cc:license
   rdf:resource="https://creativecommons.org/licenses/by-nc-nd/4.0/deed.en" />
        <dc:publisher>
          <cc:Agent>
            <dc:title>m0dw3rks.com</dc:title>
          </cc:Agent>
        </dc:publisher>
      </cc:Work>
    </rdf:RDF>
  </metadata>
  <metadata
   id="metadata20">
    <rdf:RDF>
      <cc:Work
   rdf:about="">
        <dc:creator>
          <cc:Agent>
            <dc:title>Jess Tipton</dc:title>
          </cc:Agent>
        </dc:creator>
        <cc:license
   rdf:resource="https://creativecommons.org/licenses/by-nc-nd/4.0/deed.en" />
        <dc:publisher>
          <cc:Agent>
            <dc:title>m0dw3rks.com</dc:title>
          </cc:Agent>
        </dc:publisher>
      </cc:Work>
    </rdf:RDF>
  </metadata>
</svg>
