<?xml version="1.0" encoding="UTF-8" standalone="no"?>
<!-- Created with Inkscape (http://www.inkscape.org/) -->

<svg
   width="512"
   height="512"
   viewBox="0 0 135.46666 135.46667"
   version="1.1"
   id="svg5"
   inkscape:version="1.2.1 (9c6d41e410, 2022-07-14, custom)"
   sodipodi:docname="org.zealdocs.Zeal.svg"
   xmlns:inkscape="http://www.inkscape.org/namespaces/inkscape"
   xmlns:sodipodi="http://sodipodi.sourceforge.net/DTD/sodipodi-0.dtd"
   xmlns:xlink="http://www.w3.org/1999/xlink"
   xmlns="http://www.w3.org/2000/svg"
   xmlns:svg="http://www.w3.org/2000/svg">
  <sodipodi:namedview
     id="namedview7"
     pagecolor="#505050"
     bordercolor="#ffffff"
     borderopacity="1"
     inkscape:showpageshadow="0"
     inkscape:pageopacity="0"
     inkscape:pagecheckerboard="1"
     inkscape:deskcolor="#505050"
     inkscape:document-units="mm"
     showgrid="false"
     inkscape:zoom="1.4142136"
     inkscape:cx="514.77374"
     inkscape:cy="344.361"
     inkscape:window-width="3252"
     inkscape:window-height="1076"
     inkscape:window-x="1864"
     inkscape:window-y="0"
     inkscape:window-maximized="0"
     inkscape:current-layer="layer1"
     showguides="false">
    <sodipodi:guide
       position="22.869262,69.06387"
       orientation="1,0"
       id="guide3164"
       inkscape:locked="false" />
    <sodipodi:guide
       position="24.759501,69.569611"
       orientation="1,0"
       id="guide3166"
       inkscape:locked="false" />
  </sodipodi:namedview>
  <defs
     id="defs2">
    <linearGradient
       inkscape:collect="always"
       id="linearGradient14656">
      <stop
         style="stop-color:#614a3b;stop-opacity:1;"
         offset="0"
         id="stop15460" />
      <stop
         style="stop-color:#b07575;stop-opacity:1;"
         offset="0.08"
         id="stop19392" />
      <stop
         style="stop-color:#000000;stop-opacity:1;"
         offset="0.09"
         id="stop14652" />
      <stop
         style="stop-color:#291200;stop-opacity:0;"
         offset="1"
         id="stop14654" />
    </linearGradient>
    <linearGradient
       inkscape:collect="always"
       id="linearGradient12602">
      <stop
         style="stop-color:#782121;stop-opacity:1;"
         offset="0"
         id="stop12598" />
      <stop
         style="stop-color:#581f1f;stop-opacity:1;"
         offset="0.25422543"
         id="stop12604" />
      <stop
         style="stop-color:#512121;stop-opacity:1;"
         offset="0.64838058"
         id="stop12730" />
      <stop
         style="stop-color:#782121;stop-opacity:1;"
         offset="1"
         id="stop12600" />
    </linearGradient>
    <linearGradient
       inkscape:collect="always"
       id="linearGradient30546">
      <stop
         style="stop-color:#4f2f11;stop-opacity:1;"
         offset="0"
         id="stop30542" />
      <stop
         style="stop-color:#782121;stop-opacity:0;"
         offset="1"
         id="stop30544" />
    </linearGradient>
    <linearGradient
       inkscape:collect="always"
       id="linearGradient28112">
      <stop
         style="stop-color:#4f2b11;stop-opacity:1;"
         offset="0"
         id="stop28106" />
      <stop
         style="stop-color:#782121;stop-opacity:0;"
         offset="1"
         id="stop28110" />
    </linearGradient>
    <linearGradient
       inkscape:collect="always"
       id="linearGradient23549">
      <stop
         style="stop-color:#555555;stop-opacity:1;"
         offset="0"
         id="stop23545" />
      <stop
         style="stop-color:#ffffff;stop-opacity:1;"
         offset="1"
         id="stop23547" />
    </linearGradient>
    <linearGradient
       inkscape:collect="always"
       id="linearGradient21090">
      <stop
         style="stop-color:#ff7b00;stop-opacity:1;"
         offset="0"
         id="stop21086" />
      <stop
         style="stop-color:#593009;stop-opacity:1;"
         offset="0.17417492"
         id="stop21370" />
      <stop
         style="stop-color:#ffb500;stop-opacity:1;"
         offset="0.3885183"
         id="stop21372" />
      <stop
         style="stop-color:#452c00;stop-opacity:1;"
         offset="0.58925712"
         id="stop22271" />
      <stop
         style="stop-color:#ffb500;stop-opacity:1;"
         offset="0.80912489"
         id="stop22273" />
      <stop
         style="stop-color:#ff7b00;stop-opacity:1;"
         offset="1"
         id="stop21088" />
    </linearGradient>
    <linearGradient
       inkscape:collect="always"
       id="linearGradient9943">
      <stop
         style="stop-color:#ffffff;stop-opacity:0;"
         offset="0"
         id="stop10156" />
      <stop
         style="stop-color:#818181;stop-opacity:1;"
         offset="0.04"
         id="stop9939" />
      <stop
         style="stop-color:#000000;stop-opacity:1;"
         offset="0.46000001"
         id="stop9947" />
      <stop
         style="stop-color:#000000;stop-opacity:1;"
         offset="0.54000002"
         id="stop13830" />
      <stop
         style="stop-color:#cccccc;stop-opacity:1;"
         offset="0.95999998"
         id="stop9941" />
      <stop
         style="stop-color:#ffffff;stop-opacity:0;"
         offset="1"
         id="stop10158" />
    </linearGradient>
    <linearGradient
       inkscape:collect="always"
       id="linearGradient1236">
      <stop
         style="stop-color:#4f1111;stop-opacity:1;"
         offset="0"
         id="stop1232" />
      <stop
         style="stop-color:#782121;stop-opacity:1;"
         offset="0.01142998"
         id="stop3007" />
      <stop
         style="stop-color:#782121;stop-opacity:1;"
         offset="1"
         id="stop1234" />
    </linearGradient>
    <linearGradient
       inkscape:collect="always"
       xlink:href="#linearGradient1236"
       id="linearGradient1238"
       x1="20.689106"
       y1="67.73333"
       x2="122.4899"
       y2="67.73333"
       gradientUnits="userSpaceOnUse"
       gradientTransform="translate(-3.8561709)" />
    <linearGradient
       inkscape:collect="always"
       xlink:href="#linearGradient9943"
       id="linearGradient9945"
       x1="9.1688786"
       y1="61.676082"
       x2="10.284362"
       y2="61.676082"
       gradientUnits="userSpaceOnUse"
       gradientTransform="matrix(1.664161,0,0,15.18027,4.966591,-868.5262)" />
    <linearGradient
       inkscape:collect="always"
       xlink:href="#linearGradient21090"
       id="linearGradient21092"
       x1="58.022179"
       y1="23.465506"
       x2="78.089287"
       y2="111.8681"
       gradientUnits="userSpaceOnUse"
       gradientTransform="matrix(0.84970689,0,0,0.84970689,12.457258,10.179888)" />
    <radialGradient
       inkscape:collect="always"
       xlink:href="#linearGradient21090"
       id="radialGradient22360"
       cx="150.48145"
       cy="48.547783"
       fx="150.48145"
       fy="48.547783"
       r="39.661243"
       gradientTransform="matrix(0.84970689,0,0,0.95700609,-52.329586,21.272846)"
       gradientUnits="userSpaceOnUse" />
    <linearGradient
       inkscape:collect="always"
       xlink:href="#linearGradient23549"
       id="linearGradient23559"
       gradientUnits="userSpaceOnUse"
       x1="-47.547806"
       y1="-27.345388"
       x2="-50.615517"
       y2="65.049164"
       gradientTransform="matrix(0.84970689,0,0,0.84970689,116.12939,51.908119)" />
    <linearGradient
       inkscape:collect="always"
       xlink:href="#linearGradient28112"
       id="linearGradient28103"
       gradientUnits="userSpaceOnUse"
       gradientTransform="translate(-3.8565662,-1.1011667e-4)"
       x1="117.19732"
       y1="5.2930117"
       x2="34.521355"
       y2="78.841576" />
    <filter
       inkscape:collect="always"
       style="color-interpolation-filters:sRGB"
       id="filter28124"
       x="-0.0565891"
       y="-0.04133352"
       width="1.1131782"
       height="1.082667">
      <feGaussianBlur
         inkscape:collect="always"
         stdDeviation="2.1507355"
         id="feGaussianBlur28126" />
    </filter>
    <filter
       inkscape:collect="always"
       style="color-interpolation-filters:sRGB"
       id="filter28124-4"
       x="-0.056589098"
       y="-0.04133352"
       width="1.1131782"
       height="1.082667">
      <feGaussianBlur
         inkscape:collect="always"
         stdDeviation="2.1507355"
         id="feGaussianBlur28126-9" />
    </filter>
    <linearGradient
       inkscape:collect="always"
       xlink:href="#linearGradient30546"
       id="linearGradient30539"
       gradientUnits="userSpaceOnUse"
       gradientTransform="translate(-143.54992,-37.769759)"
       x1="117.19732"
       y1="5.2930117"
       x2="34.521355"
       y2="78.841576" />
    <filter
       inkscape:collect="always"
       style="color-interpolation-filters:sRGB"
       id="filter34562"
       x="-0.015871983"
       y="-0.013380264"
       width="1.031744"
       height="1.0267605">
      <feGaussianBlur
         inkscape:collect="always"
         stdDeviation="0.4672857"
         id="feGaussianBlur34564" />
    </filter>
    <linearGradient
       inkscape:collect="always"
       xlink:href="#linearGradient12602"
       id="linearGradient12593"
       gradientUnits="userSpaceOnUse"
       gradientTransform="matrix(0.85032651,0,0,1,14.477318,0)"
       x1="20.689108"
       y1="5.7336428e-07"
       x2="122.48991"
       y2="135.46666" />
    <linearGradient
       inkscape:collect="always"
       xlink:href="#linearGradient14656"
       id="linearGradient14658"
       x1="-20.334305"
       y1="67.667763"
       x2="-11.508601"
       y2="67.667763"
       gradientUnits="userSpaceOnUse"
       gradientTransform="matrix(0.03956099,0,0,1,32.87426,0)" />
  </defs>
  <g
     inkscape:label="Layer 1"
     inkscape:groupmode="layer"
     id="layer1">
    <rect
       style="fill:url(#linearGradient1238);fill-opacity:1;stroke-width:3.36301;stroke-linecap:round;stroke-linejoin:round;paint-order:fill markers stroke"
       id="rect792"
       width="101.8008"
       height="135.46666"
       x="16.832935"
       y="0"
       sodipodi:insensitive="true" />
    <rect
       style="display:inline;opacity:0.28;mix-blend-mode:multiply;fill:url(#linearGradient12593);fill-opacity:1;stroke-width:3.10114;stroke-linecap:round;stroke-linejoin:round;paint-order:fill markers stroke"
       id="rect792-3"
       width="86.563919"
       height="135.46666"
       x="32.069817"
       y="0"
       sodipodi:insensitive="true" />
    <path
       id="rect792-8"
       style="display:inline;opacity:0.68;mix-blend-mode:normal;fill:url(#linearGradient28103);fill-opacity:1;stroke-width:3.36301;stroke-linecap:round;stroke-linejoin:round;paint-order:fill markers stroke;filter:url(#filter28124)"
       d="m 22.125914,130.17376 c 30.40494,0 60.809891,0 91.214836,0 0,-41.626952 0,-83.253905 0,-124.8808582 -30.404945,0 -60.809896,0 -91.214836,0 0,41.6269532 0,83.2539062 0,124.8808582 z"
       inkscape:label="cover-texture"
       transform="matrix(0.84631968,0,0,1,18.211505,0)"
       sodipodi:insensitive="true" />
    <path
       id="rect792-8-2"
       style="display:inline;opacity:0.6;mix-blend-mode:normal;fill:url(#linearGradient30539);fill-opacity:1;stroke-width:3.36301;stroke-linecap:round;stroke-linejoin:round;paint-order:fill markers stroke;filter:url(#filter28124-4)"
       d="m -117.56744,92.404111 c 30.404944,0 60.809895,0 91.21484,0 0,-41.626952 0,-83.253905 0,-124.880858 -30.404945,0 -60.809896,0 -91.21484,0 0,41.626953 0,83.253906 0,124.880858 z"
       inkscape:label="cover-texture"
       transform="matrix(-0.84061616,0,0,-1,15.044779,97.82815)"
       sodipodi:insensitive="true" />
    <rect
       style="display:inline;opacity:0.4;mix-blend-mode:normal;fill:url(#linearGradient9945);fill-opacity:1;stroke-width:16.903;stroke-linecap:round;stroke-linejoin:round;paint-order:fill markers stroke"
       id="rect9574"
       width="1.8563434"
       height="135.46666"
       x="20.225082"
       y="3.5603841e-06"
       inkscape:label="bind-divit"
       sodipodi:insensitive="true" />
    <rect
       style="display:inline;opacity:0.458897;mix-blend-mode:color-burn;fill:#291200;fill-opacity:1;stroke:none;stroke-width:0.288656;stroke-linecap:round;stroke-linejoin:round;paint-order:fill markers stroke"
       id="rect1056"
       width="15.23688"
       height="135.46666"
       x="16.832935"
       y="0"
       inkscape:label="binding-color"
       sodipodi:insensitive="true" />
    <rect
       style="display:inline;opacity:1;mix-blend-mode:color;fill:#291200;fill-opacity:1;stroke:none;stroke-width:0.288656;stroke-linecap:round;stroke-linejoin:round;paint-order:fill markers stroke"
       id="rect1056-3"
       width="15.23688"
       height="135.46666"
       x="16.832935"
       y="0"
       inkscape:label="binding-color"
       sodipodi:insensitive="true" />
    <rect
       style="display:inline;opacity:0.4;mix-blend-mode:overlay;fill:url(#linearGradient9945);fill-opacity:1;stroke-width:16.903;stroke-linecap:round;stroke-linejoin:round;paint-order:fill markers stroke"
       id="rect6374"
       width="1.8563434"
       height="135.46666"
       x="20.225082"
       y="3.5603841e-06"
       inkscape:label="bind-divit"
       sodipodi:insensitive="true" />
    <text
       xml:space="preserve"
       style="font-style:normal;font-weight:normal;font-size:103.847px;line-height:1.25;font-family:sans-serif;display:none;fill:url(#linearGradient21092);fill-opacity:1;stroke:none;stroke-width:2.59619;stroke-opacity:1"
       x="37.369682"
       y="104.13171"
       id="text17258"><tspan
         sodipodi:role="line"
         id="tspan17256"
         style="font-style:normal;font-variant:normal;font-weight:normal;font-stretch:normal;font-size:103.847px;font-family:'Adobe Caslon Pro';-inkscape-font-specification:'Adobe Caslon Pro, Normal';font-variant-ligatures:normal;font-variant-caps:normal;font-variant-numeric:normal;font-variant-east-asian:normal;fill:url(#linearGradient21092);fill-opacity:1;stroke:none;stroke-width:2.59619;stroke-opacity:1"
         x="37.369682"
         y="104.13171">Z</tspan></text>
    <text
       xml:space="preserve"
       style="font-style:normal;font-weight:normal;font-size:103.847px;line-height:1.25;font-family:sans-serif;display:none;opacity:0.269705;mix-blend-mode:overlay;fill:url(#radialGradient22360);fill-opacity:1;stroke:none;stroke-width:2.59619;stroke-opacity:1"
       x="37.369682"
       y="104.13171"
       id="text17258-4"><tspan
         sodipodi:role="line"
         id="tspan17256-7"
         style="font-style:normal;font-variant:normal;font-weight:normal;font-stretch:normal;font-size:103.847px;font-family:'Adobe Caslon Pro';-inkscape-font-specification:'Adobe Caslon Pro, Normal';font-variant-ligatures:normal;font-variant-caps:normal;font-variant-numeric:normal;font-variant-east-asian:normal;fill:url(#radialGradient22360);fill-opacity:1;stroke:none;stroke-width:2.59619;stroke-opacity:1"
         x="37.369682"
         y="104.13171">Z</tspan></text>
    <path
       d="m 65.719913,104.13171 c 9.865465,0 26.377138,0.41538 32.088723,1.14231 1.350011,0.2077 2.180787,0.41539 2.596174,0.41539 0.51924,0 1.14232,-0.41539 1.35001,-1.14232 0.83078,-2.80386 6.02313,-15.369352 7.37314,-17.965527 0.20769,-0.415388 0.10385,-0.726929 -0.20769,-0.934623 l -1.45386,-0.830776 c -0.41539,-0.207694 -0.62308,-0.103847 -0.93463,0.207694 -1.35001,1.765399 -10.696237,12.980875 -14.538576,15.369352 H 55.43906 c 1.973093,-3.219253 47.66577,-65.6313 49.63887,-67.915934 1.14231,-1.350011 0.93462,-2.492328 -0.72693,-2.492328 -3.63465,0 -7.269293,0.103847 -11.007785,0.311541 -3.738492,0.103847 -7.476984,0.311541 -11.215476,0.311541 -8.619301,0 -23.261728,0 -28.142537,-0.623082 -0.830776,-0.103847 -1.661552,-0.207694 -2.07694,-0.207694 -0.519235,0 -0.934623,0.207694 -1.246164,1.142317 l -6.542361,18.69246 c -0.207694,0.623082 -0.103847,0.726929 0.207694,0.934623 l 1.350011,0.623082 c 0.311541,0.207694 0.623082,0.311541 0.934623,-0.103847 1.973093,-3.219257 10.488547,-13.707804 12.669334,-15.473203 1.453858,-1.142317 2.700022,-1.661552 4.15388,-1.661552 h 28.142537 c -0.726929,1.246164 -43.719587,61.062036 -49.119631,67.396706 -0.519235,0.51923 -0.623082,1.35001 -0.623082,1.97309 0,0.83078 1.142317,0.83078 1.973093,0.83078 z"
       style="font-size:103.847px;line-height:1.25;font-family:'Adobe Caslon Pro';-inkscape-font-specification:'Adobe Caslon Pro, Normal';display:inline;fill:url(#linearGradient21092);stroke-width:2.59619"
       id="path5579" />
    <path
       d="m 65.719913,104.13171 c 9.865465,0 26.377138,0.41538 32.088723,1.14231 1.350011,0.2077 2.180787,0.41539 2.596174,0.41539 0.51924,0 1.14232,-0.41539 1.35001,-1.14232 0.83078,-2.80386 6.02313,-15.369352 7.37314,-17.965527 0.20769,-0.415388 0.10385,-0.726929 -0.20769,-0.934623 l -1.45386,-0.830776 c -0.41539,-0.207694 -0.62308,-0.103847 -0.93463,0.207694 -1.35001,1.765399 -10.696237,12.980875 -14.538576,15.369352 H 55.43906 c 1.973093,-3.219253 47.66577,-65.6313 49.63887,-67.915934 1.14231,-1.350011 0.93462,-2.492328 -0.72693,-2.492328 -3.63465,0 -7.269293,0.103847 -11.007785,0.311541 -3.738492,0.103847 -7.476984,0.311541 -11.215476,0.311541 -8.619301,0 -23.261728,0 -28.142537,-0.623082 -0.830776,-0.103847 -1.661552,-0.207694 -2.07694,-0.207694 -0.519235,0 -0.934623,0.207694 -1.246164,1.142317 l -6.542361,18.69246 c -0.207694,0.623082 -0.103847,0.726929 0.207694,0.934623 l 1.350011,0.623082 c 0.311541,0.207694 0.623082,0.311541 0.934623,-0.103847 1.973093,-3.219257 10.488547,-13.707804 12.669334,-15.473203 1.453858,-1.142317 2.700022,-1.661552 4.15388,-1.661552 h 28.142537 c -0.726929,1.246164 -43.719587,61.062036 -49.119631,67.396706 -0.519235,0.51923 -0.623082,1.35001 -0.623082,1.97309 0,0.83078 1.142317,0.83078 1.973093,0.83078 z"
       style="font-size:103.847px;line-height:1.25;font-family:'Adobe Caslon Pro';-inkscape-font-specification:'Adobe Caslon Pro, Normal';display:inline;opacity:0.269705;mix-blend-mode:overlay;fill:url(#radialGradient22360);stroke-width:2.59619"
       id="path4116" />
    <path
       d="m -59.098586,61.688244 c 11.610425,0 31.042609,0.48886 37.764434,1.344365 1.588795,0.24443 2.566515,0.48886 3.055375,0.48886 0.611075,0 1.344365,-0.48886 1.588795,-1.344365 0.97772,-3.299805 7.0884698,-18.08782 8.6772647,-21.143195 0.24443,-0.48886 0.122215,-0.855504 -0.2444299,-1.099934 l -1.71101,-0.97772 c -0.4888598,-0.24443 -0.7332898,-0.122215 -1.0999348,0.24443 -1.588795,2.077654 -12.588145,15.276874 -17.1101,18.087819 H -71.19787 c 2.322085,-3.788665 56.096683,-77.239878 58.418768,-79.928608 1.344365,-1.588795 1.099935,-2.93316 -0.855505,-2.93316 -4.277525,0 -8.55505,0.122215 -12.95479,0.366645 -4.39974,0.122215 -8.799479,0.366645 -13.199219,0.366645 -10.143845,0 -27.376159,0 -33.120264,-0.73329 -0.97772,-0.122215 -1.95544,-0.24443 -2.4443,-0.24443 -0.611075,0 -1.099935,0.24443 -1.46658,1.344365 l -7.699545,21.9986998 c -0.24443,0.73329 -0.122215,0.855505 0.24443,1.099935 l 1.588795,0.73328993 c 0.366645,0.24443 0.73329,0.36664499 1.099935,-0.12221499 2.322085,-3.78866484 12.343715,-16.13237974 14.91023,-18.21003474 1.711009,-1.344365 3.177589,-1.95544 4.888599,-1.95544 h 33.120264 c -0.855505,1.46658 -51.452513,71.862418 -57.807693,79.317533 -0.611075,0.611075 -0.73329,1.588795 -0.73329,2.322085 0,0.97772 1.344365,0.97772 2.322085,0.97772 z"
       style="font-size:122.215px;line-height:1.25;font-family:'Adobe Caslon Pro';-inkscape-font-specification:'Adobe Caslon Pro, Normal';display:inline;opacity:0.224;fill:#ffcc00;stroke-width:3.05539"
       id="path18086"
       transform="matrix(0.84970689,0,0,0.84970689,115.93637,51.714755)" />
    <path
       id="path18086-2"
       style="font-size:122.215px;line-height:1.25;font-family:'Adobe Caslon Pro';-inkscape-font-specification:'Adobe Caslon Pro, Normal';display:inline;opacity:0.204371;fill:#ffffff;fill-opacity:1;stroke-width:3.05539;filter:url(#filter34562)"
       d="m 40.241827,-11.628412 c -0.624761,1.7930519 -1.256372,3.5837244 -1.875,5.3789067 3.311171,-4.3373737 6.806958,-8.5432517 10.544327,-12.5192917 0.958493,-0.944809 2.117601,-1.814952 3.254501,-2.427975 -2.794359,-0.113403 -5.586184,-0.296871 -8.367187,-0.595703 z m 58.580072,-9.919922 c -1.583586,0.04661 -3.167287,0.09031 -4.749994,0.162109 C 81.36127,-3.2359083 68.838165,15.384928 55.83321,33.326171 49.055803,42.632017 41.728804,51.213534 34.696905,60.328619 c 2.679688,5.94e-4 5.359376,0.006 8.039063,0.002 C 50.220316,49.239113 57.274638,35.575968 65.101852,24.728045 77.130675,8.2438741 90.16127,-5.2623124 102.39025,-21.599069 c -1.1896,-0.0043 -2.37892,0.03515 -3.568351,0.05078 z m 5.365231,69.78125 c -3.71872,4.294633 -7.530437,8.569497 -11.977574,12.131333 -0.496645,0.35706 -1.05006,0.654444 -1.64937,0.792495 2.934937,0.140878 5.865189,0.405377 8.76757,0.867187 1.282994,-3.821086 2.886304,-7.525148 4.379414,-11.26665 0.54012,-1.303223 1.08608,-2.603426 1.64793,-3.897412 -0.38933,0.457682 -0.77865,0.915364 -1.16797,1.373047 z"
       sodipodi:nodetypes="cccccccccccccccccccccc"
       transform="matrix(0.84970689,0,0,0.84970689,14.764574,49.582528)" />
    <path
       style="color:#000000;font-size:122.215px;-inkscape-font-specification:'Adobe Caslon Pro, Normal';display:inline;opacity:1;mix-blend-mode:overlay;fill:url(#linearGradient23559);stroke:none;stroke-width:0.386617"
       d="m 52.100998,29.77757 c -0.285391,0 -0.575447,0.06261 -0.823153,0.263873 -0.247698,0.201258 -0.443182,0.523 -0.605748,1.010687 v -0.0033 l -6.54208,18.693538 v 0.0017 c -0.107921,0.323766 -0.152939,0.540154 -0.09293,0.740175 0.05999,0.20002 0.216829,0.309958 0.376726,0.416555 l 0.01164,0.0083 1.337626,0.615705 c 0.16814,0.112095 0.354005,0.214086 0.574215,0.214086 0.220201,0 0.443377,-0.124825 0.622342,-0.363448 l 0.0051,-0.0066 0.0051,-0.0083 c 0.970671,-1.583736 3.596223,-5.019413 6.241692,-8.261409 1.32273,-1.620997 2.65219,-3.1952 3.785512,-4.474237 1.133322,-1.279037 2.078646,-2.267365 2.598907,-2.688526 1.433114,-1.125592 2.625635,-1.618094 4.032789,-1.618094 H 91.40519 c -0.0995,0.147379 -0.166775,0.247701 -0.404939,0.587492 -0.355705,0.50749 -0.857616,1.217614 -1.485328,2.101034 -1.255423,1.766839 -3.014661,4.230231 -5.123134,7.171061 -4.216953,5.881632 -9.828341,13.672182 -15.585156,21.622688 -5.756816,7.950507 -11.658996,16.061358 -16.459755,22.578637 -4.800751,6.51728 -8.50826,11.450379 -9.842988,13.016123 l 0.01164,-0.01 c -0.583026,0.58302 -0.680428,1.46477 -0.680428,2.10933 0,0.25199 0.09642,0.46901 0.250596,0.61902 0.154179,0.15002 0.353231,0.23659 0.567578,0.29375 0.428694,0.11431 0.932197,0.11119 1.347584,0.11119 h 21.913142 c 9.858329,0 26.380991,0.41816 32.058173,1.14013 1.342645,0.20657 2.145635,0.41656 2.625465,0.41656 0.6217,0 1.30402,-0.47461 1.53511,-1.27954 l 0.002,-0.002 c 0.81402,-2.74623 6.03293,-15.380771 7.3586,-17.930146 v -0.0017 l 0.002,-0.0017 c 0.11825,-0.236511 0.15698,-0.467408 0.10455,-0.67711 -0.0524,-0.209703 -0.19375,-0.381421 -0.37838,-0.504514 l -0.005,-0.0033 -1.46541,-0.836431 -0.005,-0.0033 c -0.23075,-0.115373 -0.444,-0.158625 -0.64226,-0.104553 -0.19827,0.05407 -0.35111,0.185148 -0.51448,0.348512 l -0.01,0.01 -0.007,0.01 c -0.66423,0.868616 -3.3442,4.120672 -6.32633,7.439914 -2.967925,3.303436 -6.256531,6.677724 -8.126974,7.853158 H 56.002793 c 0.315445,-0.487464 1.076944,-1.582886 2.404738,-3.441985 1.441643,-2.018504 3.396528,-4.730055 5.692371,-7.899618 4.591688,-6.339125 10.549799,-14.51299 16.50788,-22.658297 5.958081,-8.145307 11.916151,-16.26168 16.507877,-22.484041 2.295858,-3.11118 4.250661,-5.749562 5.692371,-7.680554 1.4417,-1.930992 2.3839,-3.171531 2.60886,-3.432019 h 0.002 c 0.59226,-0.699938 0.86983,-1.370954 0.7269,-1.926777 -0.0715,-0.277911 -0.26001,-0.512687 -0.53438,-0.662173 -0.27438,-0.149488 -0.62958,-0.222385 -1.06712,-0.222385 -3.63832,0 -7.276124,0.104121 -11.017967,0.312002 -3.740396,0.103992 -7.47584,0.310342 -11.205509,0.310342 -8.619287,0 -23.285703,-0.0037 -28.118326,-0.620684 -0.830775,-0.103847 -1.653427,-0.209108 -2.101036,-0.209108 z m 0,0.386682 c 0.383167,0 1.222134,0.101942 2.052909,0.205789 4.928971,0.62923 19.547167,0.624004 28.166454,0.624004 3.745644,0 7.485535,-0.206595 11.220445,-0.310343 h 0.0033 0.0033 c 3.735114,-0.207506 7.365444,-0.312001 10.996394,-0.312001 0.39324,0 0.68672,0.06903 0.8829,0.175915 0.19618,0.106885 0.29983,0.241797 0.34519,0.418216 0.0907,0.352836 -0.0988,0.929853 -0.64889,1.579924 -0.26886,0.311466 -1.18376,1.52094 -2.62547,3.451934 -1.44248,1.932029 -3.397917,4.569037 -5.694022,7.680553 -4.592195,6.223033 -10.549509,14.340038 -16.50785,22.485701 -5.958341,8.145662 -11.917273,16.320034 -16.509539,22.659956 -2.296133,3.169962 -4.249834,5.881522 -5.692376,7.90128 -1.442539,2.019753 -2.36634,3.33514 -2.627115,3.76062 l -0.179237,0.29375 h 36.953951 l 0.04647,-0.0282 c 1.976698,-1.228771 5.257413,-4.627437 8.246468,-7.954392 2.98153,-3.318579 5.634,-6.536963 6.32799,-7.443234 0.002,-0.0013 0.002,-3.87e-4 0.003,-0.0017 0.14619,-0.14567 0.25199,-0.22367 0.33855,-0.247278 0.0873,-0.02382 0.18379,-0.01432 0.36844,0.078 l 1.43388,0.818175 c 0.1269,0.0846 0.19194,0.173653 0.2174,0.275491 0.0255,0.101837 0.0131,0.232699 -0.0763,0.411577 -1.3749,2.644598 -6.53684,15.135121 -7.38515,17.998191 v 0.002 c -0.18498,0.64744 -0.74889,1.00238 -1.16503,1.00238 -0.35095,0 -1.208353,-0.2044 -2.565711,-0.41323 l -0.0034,-0.002 h -0.0017 c -5.748712,-0.73165 -22.242071,-1.14345 -32.112945,-1.14345 h -21.91318 c -0.415388,0 -0.897851,-0.004 -1.248007,-0.0979 -0.175074,-0.0467 -0.312327,-0.11386 -0.3983,-0.19749 -0.08597,-0.0836 -0.132767,-0.17848 -0.132767,-0.34188 0,-0.6016 0.110479,-1.38171 0.565922,-1.83716 l 0.0068,-0.005 0.0051,-0.007 c 1.365292,-1.60159 5.056096,-6.518952 9.857925,-13.037693 4.80183,-6.518741 10.70587,-14.629258 16.463071,-22.580297 5.757201,-7.951038 11.36779,-15.742138 15.585152,-21.624376 2.108681,-2.941119 3.868828,-5.405118 5.124794,-7.172721 0.627984,-0.883802 1.13042,-1.593973 1.486987,-2.102693 0.356569,-0.508719 0.555569,-0.794506 0.620685,-0.906132 L 92.106764,33.93111 H 63.628445 c -1.499882,0 -2.799755,0.544846 -4.273431,1.702733 h -0.0017 v 0.0017 c -0.570137,0.461538 -1.507049,1.446994 -2.645376,2.731676 -1.138327,1.284682 -2.470106,2.863298 -3.795462,4.487514 -2.646157,3.242838 -5.255378,6.649136 -6.261618,8.287961 -0.132571,0.176765 -0.222326,0.209108 -0.313661,0.209108 -0.09134,0 -0.216726,-0.05376 -0.360122,-0.149362 l -0.01164,-0.0083 -1.342605,-0.620684 c -0.143567,-0.09625 -0.198288,-0.142603 -0.215749,-0.20081 -0.01784,-0.0596 -0.01011,-0.206858 0.08962,-0.506173 l 6.542081,-18.691892 v -0.0017 c 0.148979,-0.446934 0.315249,-0.695206 0.482939,-0.831451 0.167681,-0.136245 0.345346,-0.177576 0.579194,-0.177576 z"
       id="path23557"
       inkscape:label="bevel" />
    <rect
       style="display:inline;opacity:0.6;fill:url(#linearGradient14658);fill-opacity:1;stroke:none;stroke-width:0.0904994;stroke-linecap:round;stroke-linejoin:round;paint-order:fill markers stroke"
       id="rect14287"
       width="0.34915355"
       height="135.33553"
       x="32.069817"
       y="0"
       sodipodi:insensitive="true" />
  </g>
</svg>
