<?xml version="1.0" encoding="UTF-8" standalone="no"?>
<svg
   inkscape:version="1.2.1 (9c6d41e410, 2022-07-14, custom)"
   shape-rendering="crispEdges"
   id="svg8"
   version="1.1"
   viewBox="0 0 135.46667 135.46667"
   height="512"
   width="512"
   sodipodi:docname="folder-music.svg"
   xml:space="preserve"
   xmlns:inkscape="http://www.inkscape.org/namespaces/inkscape"
   xmlns:sodipodi="http://sodipodi.sourceforge.net/DTD/sodipodi-0.dtd"
   xmlns:xlink="http://www.w3.org/1999/xlink"
   xmlns="http://www.w3.org/2000/svg"
   xmlns:svg="http://www.w3.org/2000/svg"
   xmlns:rdf="http://www.w3.org/1999/02/22-rdf-syntax-ns#"
   xmlns:cc="http://creativecommons.org/ns#"
   xmlns:dc="http://purl.org/dc/elements/1.1/"><defs
     id="defs2"><linearGradient
       inkscape:collect="always"
       id="linearGradient37645"><stop
         style="stop-color:#5d502f;stop-opacity:1;"
         offset="0"
         id="stop37641" /><stop
         style="stop-color:#5d502f;stop-opacity:0;"
         offset="1"
         id="stop37643" /></linearGradient><linearGradient
       inkscape:collect="always"
       id="linearGradient34595"><stop
         style="stop-color:#efc766;stop-opacity:0;"
         offset="0"
         id="stop34597" /><stop
         style="stop-color:#b38f39;stop-opacity:1;"
         offset="0.24709447"
         id="stop34591" /><stop
         style="stop-color:#876e33;stop-opacity:0;"
         offset="0.54672146"
         id="stop34601" /><stop
         style="stop-color:#5d502f;stop-opacity:0.43725404;"
         offset="0.8344813"
         id="stop34593" /><stop
         style="stop-color:#967d41;stop-opacity:0;"
         offset="1"
         id="stop34599" /></linearGradient><linearGradient
       inkscape:collect="always"
       id="linearGradient25383"><stop
         style="stop-color:#967d41;stop-opacity:1;"
         offset="0"
         id="stop25379" /><stop
         style="stop-color:#000000;stop-opacity:1;"
         offset="1"
         id="stop25381" /></linearGradient><linearGradient
       inkscape:collect="always"
       id="linearGradient23068"><stop
         style="stop-color:#2b2200;stop-opacity:1;"
         offset="0"
         id="stop23064" /><stop
         style="stop-color:#ccb76c;stop-opacity:1;"
         offset="1"
         id="stop23066" /></linearGradient><linearGradient
       inkscape:collect="always"
       id="linearGradient15578"><stop
         style="stop-color:#efc766;stop-opacity:1;"
         offset="0"
         id="stop15574" /><stop
         style="stop-color:#967d41;stop-opacity:1;"
         offset="1"
         id="stop15576" /></linearGradient><linearGradient
       id="linearGradient55090"><stop
         style="stop-color:#ffffff;stop-opacity:1;"
         offset="0"
         id="stop18555" /><stop
         style="stop-color:#ffffff;stop-opacity:0;"
         offset="1"
         id="stop18557" /></linearGradient><linearGradient
       inkscape:collect="always"
       id="linearGradient60690"><stop
         style="stop-color:#918a6f;stop-opacity:1;"
         offset="0"
         id="stop60686" /><stop
         style="stop-color:#000000;stop-opacity:1;"
         offset="1"
         id="stop60688" /></linearGradient><linearGradient
       id="linearGradient55090-1"><stop
         style="stop-color:#ffffff;stop-opacity:1;"
         offset="0"
         id="stop55086" /><stop
         style="stop-color:#ffffff;stop-opacity:0;"
         offset="1"
         id="stop55088" /></linearGradient><rect
       x="-11597.953"
       y="-4257.6465"
       width="1975.8679"
       height="200.96553"
       id="rect48518" /><rect
       x="-8208.5273"
       y="-3087.5469"
       width="1540.277"
       height="399.28311"
       id="rect18280" /><rect
       x="-7623.7734"
       y="-3087.5469"
       width="297.08713"
       height="113.41004"
       id="rect14949" /><rect
       x="-11253.933"
       y="-3026.1035"
       width="426.8663"
       height="121.26578"
       id="rect14939" /><rect
       x="-11645.953"
       y="-4293.9199"
       width="1103.9999"
       height="201.59987"
       id="rect190181" /><rect
       x="-10061.453"
       y="-913.69592"
       width="857.42816"
       height="1147.7347"
       id="rect17444" /><rect
       x="-10061.453"
       y="-913.69592"
       width="1679.356"
       height="53.843174"
       id="rect17444-3" /><rect
       x="-10061.453"
       y="-913.69592"
       width="857.42816"
       height="1147.7347"
       id="rect17444-3-5" /><rect
       x="-10061.453"
       y="-913.69592"
       width="857.42816"
       height="1147.7347"
       id="rect17444-3-5-2" /><rect
       x="-10061.453"
       y="-913.69592"
       width="857.42816"
       height="1147.7347"
       id="rect17444-3-5-2-8" /><rect
       x="-10061.453"
       y="-913.69592"
       width="857.42816"
       height="1147.7347"
       id="rect17444-3-5-2-8-7" /><rect
       x="-10061.453"
       y="-913.69592"
       width="1456.625"
       height="97.241226"
       id="rect17444-3-5-2-8-7-6" /><rect
       x="-10061.453"
       y="-913.69592"
       width="1240.1765"
       height="403.35107"
       id="rect17444-3-5-2-8-7-6-2" /><rect
       x="-10061.453"
       y="-913.69592"
       width="857.42816"
       height="1147.7347"
       id="rect17444-3-5-2-8-7-6-3" /><rect
       x="-10061.453"
       y="-913.69592"
       width="857.42816"
       height="1147.7347"
       id="rect17444-3-5-2-8-7-6-3-6" /><rect
       x="-10061.453"
       y="-913.69592"
       width="857.42816"
       height="1147.7347"
       id="rect17444-3-5-2-8-7-6-3-6-5" /><rect
       x="-10061.453"
       y="-913.69592"
       width="857.42816"
       height="1147.7347"
       id="rect17444-2" /><rect
       x="-10061.453"
       y="-913.69592"
       width="1738.8013"
       height="1124.929"
       id="rect154594" /><rect
       x="-10061.453"
       y="-913.69592"
       width="857.42816"
       height="1147.7347"
       id="rect155326" /><rect
       x="-10061.453"
       y="-913.69592"
       width="857.42816"
       height="1147.7347"
       id="rect6830" /><rect
       x="-10061.453"
       y="-913.69592"
       width="857.42816"
       height="1147.7347"
       id="rect6830-3" /><rect
       x="-10061.453"
       y="-913.69592"
       width="1738.8013"
       height="1124.929"
       id="rect3302" /><rect
       x="-10061.453"
       y="-913.69592"
       width="1738.8013"
       height="1124.929"
       id="rect3459" /><rect
       x="-10061.453"
       y="-913.69592"
       width="1738.8013"
       height="1124.929"
       id="rect3569" /><rect
       x="-10061.453"
       y="-913.69592"
       width="1738.8013"
       height="1124.929"
       id="rect4444" /><rect
       x="-10061.453"
       y="-913.69592"
       width="1738.8013"
       height="1124.929"
       id="rect4450" /><rect
       x="-10061.453"
       y="-913.69592"
       width="1738.8013"
       height="1124.929"
       id="rect4456" /><rect
       x="-10061.453"
       y="-913.69592"
       width="1738.8013"
       height="1124.929"
       id="rect4576" /><rect
       x="-10061.453"
       y="-913.69592"
       width="1738.8013"
       height="1124.929"
       id="rect4582" /><rect
       x="-10061.453"
       y="-913.69592"
       width="1738.8013"
       height="1124.929"
       id="rect4771" /><rect
       x="-10061.453"
       y="-913.69592"
       width="1738.8013"
       height="1124.929"
       id="rect4900" /><rect
       x="-10061.453"
       y="-913.69592"
       width="1738.8013"
       height="1124.929"
       id="rect5759" /><rect
       x="-10061.453"
       y="-913.69592"
       width="1738.8013"
       height="1124.929"
       id="rect5767" /><rect
       x="-10061.453"
       y="-913.69592"
       width="1738.8013"
       height="1124.929"
       id="rect5773" /><linearGradient
       inkscape:collect="always"
       xlink:href="#linearGradient60690"
       id="linearGradient60692"
       x1="-3691.3494"
       y1="-1057.787"
       x2="-3691.3494"
       y2="-802.59698"
       gradientUnits="userSpaceOnUse" /><rect
       x="-10061.453"
       y="-913.69592"
       width="857.42816"
       height="1147.7347"
       id="rect102083" /><rect
       x="-8208.5273"
       y="-3087.5469"
       width="1540.277"
       height="399.28311"
       id="rect104432" /><rect
       x="-8208.5273"
       y="-3087.5469"
       width="1540.277"
       height="399.28311"
       id="rect104432-2" /><linearGradient
       inkscape:collect="always"
       xlink:href="#linearGradient15578"
       id="linearGradient15580"
       x1="58.677681"
       y1="24.254333"
       x2="78.686584"
       y2="112.26602"
       gradientUnits="userSpaceOnUse"
       gradientTransform="matrix(-1,0,0,1.0470766,135.46667,-0.0719903)" /><linearGradient
       inkscape:collect="always"
       xlink:href="#linearGradient23068"
       id="linearGradient23070"
       x1="5.9958091"
       y1="108.59796"
       x2="5.9958091"
       y2="108.77409"
       gradientUnits="userSpaceOnUse"
       gradientTransform="matrix(1.00832,0,0,3.0624761,-0.5635375,-226.9898)" /><linearGradient
       inkscape:collect="always"
       xlink:href="#linearGradient23068"
       id="linearGradient23070-1"
       x1="5.9958091"
       y1="108.59796"
       x2="5.9958091"
       y2="108.77409"
       gradientUnits="userSpaceOnUse"
       gradientTransform="matrix(1.00832,0,0,3.0624761,-0.56353746,-230.17741)" /><linearGradient
       inkscape:collect="always"
       xlink:href="#linearGradient23068"
       id="linearGradient23070-9"
       x1="5.9958091"
       y1="108.59796"
       x2="5.9958091"
       y2="108.77409"
       gradientUnits="userSpaceOnUse"
       gradientTransform="matrix(1.00832,0,0,3.0624761,-0.56353749,-233.36503)" /><linearGradient
       inkscape:collect="always"
       xlink:href="#linearGradient25383"
       id="linearGradient25385"
       x1="88.29512"
       y1="23.725166"
       x2="88.29512"
       y2="45.65929"
       gradientUnits="userSpaceOnUse"
       gradientTransform="matrix(-1,0,0,1,135.5581,1.069822)" /><linearGradient
       inkscape:collect="always"
       xlink:href="#linearGradient34595"
       id="linearGradient34588"
       gradientUnits="userSpaceOnUse"
       gradientTransform="matrix(-1,0,0,1,135.46669,0.4150104)"
       x1="58.677681"
       y1="24.254333"
       x2="58.677681"
       y2="115.14974" /><filter
       inkscape:collect="always"
       style="color-interpolation-filters:sRGB"
       id="filter35337"
       x="-0.025642782"
       y="-0.040800923"
       width="1.0512856"
       height="1.0816018"><feGaussianBlur
         inkscape:collect="always"
         stdDeviation="1.3569096"
         id="feGaussianBlur35339" /></filter><linearGradient
       inkscape:collect="always"
       xlink:href="#linearGradient37645"
       id="linearGradient37647"
       x1="-50.550457"
       y1="30.470161"
       x2="-108.77288"
       y2="104.99023"
       gradientUnits="userSpaceOnUse"
       gradientTransform="translate(168.17376,1.0736665)" /><filter
       inkscape:collect="always"
       style="color-interpolation-filters:sRGB"
       id="filter39114"
       x="-0.051620749"
       y="-0.084304645"
       width="1.1032415"
       height="1.1686093"><feGaussianBlur
         inkscape:collect="always"
         stdDeviation="2.6177113"
         id="feGaussianBlur39116" /></filter><filter
       inkscape:collect="always"
       style="color-interpolation-filters:sRGB"
       id="filter32324"
       x="-0.035646705"
       y="-0.012099226"
       width="1.0712934"
       height="1.0241985"><feGaussianBlur
         inkscape:collect="always"
         stdDeviation="0.4021289"
         id="feGaussianBlur32326" /></filter></defs><sodipodi:namedview
     units="in"
     showborder="true"
     showguides="false"
     showgrid="false"
     inkscape:document-rotation="0"
     inkscape:current-layer="layer1"
     inkscape:document-units="px"
     inkscape:cy="220.61731"
     inkscape:cx="-35.708891"
     inkscape:zoom="1.4142136"
     inkscape:pageshadow="2"
     inkscape:pageopacity="0"
     borderopacity="1.0"
     bordercolor="#666666"
     pagecolor="#1e1e1e"
     id="base"
     inkscape:showpageshadow="0"
     inkscape:pagecheckerboard="1"
     inkscape:deskcolor="#1e1e1e"
     inkscape:window-width="3256"
     inkscape:window-height="1080"
     inkscape:window-x="1864"
     inkscape:window-y="0"
     inkscape:window-maximized="0" /><metadata
     id="metadata5"><rdf:RDF><cc:Work
         rdf:about=""><dc:format>image/svg+xml</dc:format><dc:type
           rdf:resource="http://purl.org/dc/dcmitype/StillImage" /></cc:Work></rdf:RDF></metadata><g
     inkscape:groupmode="layer"
     id="layer3"
     inkscape:label="Folder"
     style="display:none"><g
       id="g75685"
       transform="matrix(0.17777778,0,0,0.17777778,723.97323,209.35846)"><path
         id="rect933-3-0-3"
         style="display:inline;fill:url(#linearGradient60692);fill-opacity:1;stroke:none;stroke-width:16.3468;stroke-linecap:round;stroke-linejoin:round;paint-order:stroke markers fill"
         d="m -4015.2241,-1057.787 c -11.0786,0 -19.9977,8.9191 -19.9977,19.9977 v 39.25124 26.22421 416.82091 c 0,11.07854 8.9191,19.99758 19.9977,19.99758 h 647.7498 c 11.0785,0 19.9975,-8.91904 19.9975,-19.99758 v -443.04512 c 0,-11.07864 -8.919,-19.99764 -19.9975,-19.99764 H -3858.76 c 0,0 -2.643,0.08 -3.9631,-1.2406 -1.3198,-1.32 -1.2407,-4.7554 -1.2407,-4.7554 v -13.2576 c 0,-11.0786 -8.919,-19.9977 -19.9975,-19.9977 z"
         sodipodi:nodetypes="ssccssssssczcsss"
         inkscape:label="folder-back" /><path
         id="rect64793"
         style="opacity:1;fill:#aca793;fill-opacity:1;stroke:none;stroke-width:3.93242;stroke-linecap:round;stroke-linejoin:round;paint-order:stroke markers fill"
         d="m -4048.6639,-986.60082 c -10.1457,0 -18.3136,7.6279 -18.3136,17.10284 l 31.75,434.0025 h 687.756 l 31.75,-434.0025 c 0,-9.47494 -8.1679,-17.10284 -18.3136,-17.10284 z"
         sodipodi:nodetypes="sccccss" /></g></g><g
     inkscape:groupmode="layer"
     id="layer1"
     inkscape:label="Folder Natural Flush"><path
       id="rect7367"
       style="display:inline;fill:url(#linearGradient25385);fill-opacity:1;stroke:none;stroke-width:3.13776;stroke-linecap:round;stroke-linejoin:bevel;paint-order:markers fill stroke"
       d="m 57.274454,17.710496 c 4.268028,0 4.935461,4.929419 6.756177,7.604187 h 3.891752 64.390547 c 1.74711,0 3.14582,1.406203 3.15382,3.153296 l 0.0914,19.963811 v 45.32695 19.5771 H 0.09142727 V 93.75874 48.43179 L 2.7272321e-5,28.467979 C -8.5272768e-4,28.276049 0.01962727,28.089064 0.05222727,27.906773 0.01832727,27.664344 2.7272321e-5,27.416755 2.7272321e-5,27.1647 v -4.182174 c 0,-2.920696 2.351330027679,-5.27203 5.272030027679,-5.27203 z"
       sodipodi:nodetypes="cccssccccccscsssc"
       inkscape:label="rear" /><path
       id="rect891"
       style="display:inline;fill:url(#linearGradient15580);fill-opacity:1;stroke:none;stroke-width:2.39678;stroke-linecap:round;stroke-linejoin:bevel;paint-order:markers fill stroke"
       d="m 132.31286,25.324156 c 1.74711,0 3.15381,1.472381 3.15381,3.301743 V 48.134424 95.595215 117.75617 H 0 V 95.595215 48.134424 29.734054 h 58.758689 c 3.349207,0 5.27048,-2.398115 5.27048,-4.409898 z"
       sodipodi:nodetypes="sscccccccccs"
       inkscape:label="front" /><path
       id="rect891-9"
       style="display:inline;opacity:0.2;fill:url(#linearGradient37647);fill-opacity:1;stroke:none;stroke-width:2.34228;stroke-linecap:round;stroke-linejoin:bevel;paint-order:markers fill stroke;filter:url(#filter39114)"
       d="m 68.236266,31.550229 c -2.915571,3.340423 -7.596041,4.655722 -11.91094,4.210938 -16.481511,0 -32.963021,0 -49.4445305,0 0,23.434245 0,46.86849 0,70.302733 40.5683605,0 81.1367205,0 121.7050745,0 -0.006,-24.8405 -0.007,-49.681014 -0.0527,-74.521483 -20.09896,0.0026 -40.197912,0.0052 -60.29687,0.0078 z"
       inkscape:label="color-texture-angle" /><path
       id="rect891-1"
       style="display:inline;opacity:0.2;fill:url(#linearGradient34588);fill-opacity:1;stroke:none;stroke-width:2.34228;stroke-linecap:round;stroke-linejoin:bevel;paint-order:markers fill stroke;filter:url(#filter35337)"
       d="m 66.941346,28.902763 c -2.06578,3.165148 -6.07733,4.59124 -9.74063,4.212891 -17.65546,0 -35.31093,0 -52.9663995,0 0,25.198567 0,50.397131 0,75.595706 42.3326795,0 84.6653575,0 126.9980435,0 -0.006,-26.605475 -0.0117,-53.210941 -0.0176,-79.816409 -21.42448,0.0026 -42.848958,0.0052 -64.273434,0.0078 z"
       inkscape:label="color-texture" /><path
       id="rect11726-5-3"
       style="display:inline;opacity:0.288;fill:#000000;stroke:none;stroke-width:0.547923;stroke-linecap:round;stroke-linejoin:bevel;paint-order:markers fill stroke"
       d="m 22.483381,18.935398 c -0.117871,0 -0.212907,0.09504 -0.212907,0.212907 v 5.646684 H 1.8810201 c -0.117871,0 -0.212907,0.09504 -0.212907,0.212907 0,0.117871 0.09504,0.21239 0.212907,0.21239 H 61.330092 c 0.11787,0 0.21239,-0.09452 0.21239,-0.21239 0,-0.117871 -0.0945,-0.212907 -0.21239,-0.212907 H 22.696288 v -5.646684 c 0,-0.117871 -0.09504,-0.212907 -0.212907,-0.212907 z"
       sodipodi:nodetypes="sscsssssscss"
       inkscape:label="note-lines" /><path
       id="rect39533"
       style="display:inline;opacity:0.04;mix-blend-mode:multiply;fill:#efc766;stroke-width:0.758777;stroke-linecap:round;stroke-linejoin:bevel;paint-order:markers fill stroke;filter:url(#filter32324)"
       d="m 17.414062,31.457031 c -0.986222,0.01875 -1.97262,0.02254 -2.958984,0.02734 -0.839921,2.020498 -1.510882,4.111457 -2.464844,6.083984 -0.519911,0.181326 -1.117333,0.07125 -1.560546,-0.248047 -0.7145328,0.356447 -1.1212852,1.16484 -1.1250005,1.945313 -0.6193637,4.956742 -0.5820188,10.012895 0.3072541,14.934924 0.6490544,3.470662 1.6215624,6.868053 2.4703744,10.292423 0.759185,2.992691 1.495432,5.99443 2.043642,9.03407 0.121817,0.743771 0.265605,1.489965 0.276112,2.245495 -0.0071,0.587742 -0.112643,1.177328 -0.337617,1.721604 -0.174573,0.23167 -0.604143,0.09577 -0.625,-0.189453 -1.122093,-2.8365 -2.554934,-5.553238 -3.435547,-8.482418 C 9.3522337,66.523992 9.0218654,64.153281 8.6007179,61.806281 8.5660704,61.590535 8.5281374,61.375348 8.4902344,61.160156 8.385278,61.056825 8.2892253,61.243592 8.296875,61.337891 c -0.071772,0.547087 -0.0859,1.099931 -0.1579044,1.647085 -0.4355462,4.593198 -0.9181659,9.192225 -0.9279227,13.811101 0.00974,4.152048 0.5123956,8.285354 1.1859835,12.376815 0.01439,0.180386 0.06545,0.441065 0.2817798,0.465853 0.2674464,-0.03151 0.3387456,-0.334846 0.4715281,-0.52322 0.3907647,-0.643796 0.8032816,-1.338323 1.4934207,-1.698882 0.70577,-0.313673 1.588604,0.102912 1.883962,0.795899 0.298177,0.615485 0.52167,1.263531 0.773059,1.898786 0.148354,0.39243 0.286435,0.788597 0.427735,1.183594 0.224655,0.265615 0.716866,0.104874 0.769531,-0.230469 1.272878,-2.808039 2.545352,-5.624021 3.525391,-8.550781 0.06234,-0.179998 0.372326,-0.109389 0.345205,0.08293 0.348428,2.452737 0.778457,4.903397 0.851521,7.384898 0.01829,0.740885 0.02966,1.487251 -0.100671,2.219869 -0.08257,0.54557 -0.203887,1.084146 -0.312852,1.624805 -1.626159,1.260164 -3.153829,2.656207 -4.488282,4.224609 -0.672292,1.37702 -0.866153,2.917877 -1.053138,4.420957 -0.318322,2.87772 -0.29943,5.78321 -0.105065,8.66888 0.04911,0.13787 0.293206,0.0805 0.277344,-0.0644 0.110728,-0.27023 0.212935,-0.57557 0.46875,-0.74414 0.388037,0.01 0.809695,0.13695 1.169922,-0.0684 1.157397,-1.10764 1.867404,-2.56633 2.776143,-3.8646 1.047497,-1.57399 2.074265,-3.19212 2.683217,-4.9944 0.985533,-2.553366 1.992982,-5.098659 2.959901,-7.658975 0.393627,-1.272393 0.34891,-2.639386 0.08983,-3.93358 -0.538096,-3.352187 -1.517006,-6.627295 -1.853224,-10.012744 -0.163251,-1.650729 -0.152295,-3.327084 0.150685,-4.961666 0.07583,-0.394458 0.149991,-0.794137 0.281828,-1.173178 0.332839,-0.536969 1.271822,-0.496124 1.530211,0.09053 0.525832,1.147603 0.640202,2.419647 0.921224,3.637063 0.975458,5.030676 1.686289,10.110636 2.760233,15.122512 0.08169,0.34045 0.185617,0.675312 0.303472,1.004901 0.220522,0.208422 0.617718,0.01304 0.642578,-0.273437 0.655087,-1.738896 1.212557,-3.518046 1.988281,-5.208985 0.124061,-0.216115 0.436751,-0.223048 0.607161,-0.05964 0.17866,0.165948 0.260385,0.406091 0.408744,0.596508 0.763532,1.175176 1.321124,2.524147 1.376662,3.938458 0.09193,1.294806 0.03143,2.62728 -0.404286,3.860608 -0.27809,0.711636 -0.78506,1.326948 -1.426609,1.74096 -0.7657,0.562053 -1.590671,1.110971 -2.08511,1.946545 -0.929129,1.47153 -2.016633,2.83869 -3.201816,4.11146 -1.010615,1.15404 -1.911355,2.44198 -2.399064,3.90909 -0.175193,0.47614 -0.326332,0.96058 -0.485057,1.44234 0.184049,0.4787 0.760218,0.70787 1.241384,0.5952 0.462416,-0.0137 0.925122,-0.01 1.387522,0.002 1.292493,-1.19691 2.341513,-2.62812 3.632813,-3.82617 0.501534,-0.33852 1.136858,-0.27917 1.708834,-0.22829 0.682218,0.0621 1.407858,0.18356 2.058744,-0.0998 0.609219,-0.33227 0.922421,-1.00646 1.083984,-1.65235 0.397751,-1.66289 0.461946,-3.38253 0.470885,-5.085402 -0.01173,-2.614378 -0.196817,-5.223476 -0.336136,-7.833061 -0.120659,-1.986688 -0.227735,-3.974565 -0.388655,-5.958489 -0.118766,-1.288593 -0.284642,-2.583625 -0.672166,-3.822325 -0.50622,-1.542089 -1.370224,-2.931262 -2.239359,-4.290283 -0.181078,-0.249482 -0.306839,-0.569803 -0.592381,-0.719423 -0.183784,-0.07881 -0.388882,-0.0348 -0.567483,0.03118 -0.262194,0.01639 -0.400701,-0.2699 -0.450365,-0.487439 -0.09021,-0.40983 -0.117306,-0.830224 -0.188119,-1.243552 -0.454151,-3.269804 -0.870655,-6.55882 -1.745205,-9.749405 -0.622318,-2.38346 -1.183575,-4.815617 -1.173828,-7.292884 -0.0032,-1.836776 0.211487,-3.702453 0.891742,-5.42023 0.347636,-0.768174 0.93504,-1.387096 1.405133,-2.077902 0.110098,-0.07228 0.252507,0.104122 0.164062,0.199219 -0.279688,1.933511 -0.601263,3.890614 -0.406119,5.848903 0.215507,1.669251 0.771275,3.276556 1.45937,4.806032 0.539271,1.064376 1.261597,2.062594 1.516565,3.24792 0.618677,2.511208 1.191218,5.033417 1.77784,7.552223 0.07499,-4.906979 -0.06347,-9.821854 -0.557865,-14.7062 -0.255789,-4.290272 0.114254,-8.581286 0.350017,-12.863366 0.151873,-2.912504 0.183527,-5.853321 -0.295531,-8.739255 -0.138535,-0.743074 -0.371121,-1.475958 -0.758339,-2.128679 -0.255814,-0.255278 -0.710286,-0.10746 -0.858027,0.195305 -0.566304,0.677117 -0.879083,1.513865 -1.254237,2.301812 -0.869587,1.992348 -1.582801,4.051497 -2.51965,6.014653 -0.406842,0.841671 -0.917986,1.626846 -1.426878,2.40884 -0.656537,1.156993 -0.860908,2.489314 -1.165914,3.765852 -0.58827,2.587579 -1.368576,5.131655 -2.342979,7.600085 -0.09165,0.224435 -0.169054,0.459939 -0.276449,0.674774 -0.106461,0.08904 -0.295406,-0.04952 -0.237898,-0.178118 -0.524399,-4.330297 -0.243411,-8.772698 0.955741,-12.972663 1.066806,-3.593257 2.13518,-7.186139 3.202463,-10.77929 0.04103,-0.502094 -0.508328,-0.917078 -0.984376,-0.796875 -0.519937,0.02433 -1.040467,0.03055 -1.560546,0.05078 -0.794161,0.913829 -1.176638,2.085967 -1.552668,3.214843 -1.947766,5.867098 -3.906125,11.731015 -5.829234,17.606077 -0.2974,1.29981 -0.422522,2.679426 -0.07056,3.98132 0.399371,1.039741 1.193231,1.875754 2.082636,2.521419 0.872123,0.759383 1.58226,1.779226 1.748727,2.943919 0.15529,1.085847 -0.05046,2.261311 -0.734375,3.140625 -0.622831,0.664009 -1.861766,0.506923 -2.308594,-0.283203 -0.684307,-0.963877 -1.02839,-2.10833 -1.445677,-3.200797 -1.079302,-3.122542 -1.682033,-6.397691 -1.925799,-9.688488 -0.132052,-2.416838 0.139122,-4.851686 0.772621,-7.186781 0.794864,-3.186411 1.874938,-6.290707 2.813914,-9.435424 0.379485,-1.226639 0.758971,-2.453278 1.138457,-3.679917 0.02109,-0.161807 -0.09806,-0.377797 -0.285157,-0.34375 z"
       transform="matrix(-4.5643723,0,0,-1,161.7749,142.27509)"
       inkscape:label="texture"
       sodipodi:nodetypes="ccccccccccccccccccccccccccccccccccccccccccccccccccccccccccccccccccccccccccccccccccccccccccccccccccccccccccccccccc" /><g
       id="g44506"
       inkscape:label="creases"
       style="display:inline;opacity:0.28"
       transform="matrix(1,0,0,0.92931738,0,17.037915)"><rect
         style="display:inline;opacity:1;fill:url(#linearGradient23070);fill-opacity:1;stroke:none;stroke-width:0.924079;stroke-linecap:round;stroke-linejoin:bevel;paint-order:markers fill stroke"
         id="rect11726"
         width="134.35803"
         height="0.53936577"
         x="0.5543189"
         y="105.58887"
         ry="0.26968288"
         inkscape:label="crease3" /><rect
         style="fill:url(#linearGradient23070-1);fill-opacity:1;stroke:none;stroke-width:0.924079;stroke-linecap:round;stroke-linejoin:bevel;paint-order:markers fill stroke"
         id="rect11726-0"
         width="134.35803"
         height="0.53936577"
         x="0.5543189"
         y="102.40125"
         ry="0.26968288"
         inkscape:label="crease2" /><rect
         style="fill:url(#linearGradient23070-9);fill-opacity:1;stroke:none;stroke-width:0.924079;stroke-linecap:round;stroke-linejoin:bevel;paint-order:markers fill stroke"
         id="rect11726-06"
         width="134.35803"
         height="0.53936577"
         x="0.5543189"
         y="99.213669"
         ry="0.26968288"
         inkscape:label="crease1" /></g><g
       id="g27531"
       style="opacity:0.4;mix-blend-mode:normal"
       transform="matrix(1.3948533,0,0,1.3948533,-44.018925,-19.469856)"><path
         style="color:#000000;mix-blend-mode:normal;fill:#8c753b;fill-opacity:1;stroke-width:0.456142;stroke-linecap:round;stroke-linejoin:round;paint-order:stroke fill markers"
         d="m 110.87438,35.908194 c -0.34699,0.01453 -0.65771,0.251434 -0.75137,0.605648 L 99.802191,75.548153 a 10.05138,8.4615917 0 0 0 -9.402529,-5.472018 10.05138,8.4615917 0 0 0 -10.051066,8.461499 10.05138,8.4615917 0 0 0 10.051066,8.4615 10.05138,8.4615917 0 0 0 9.728608,-6.356202 c 0.0157,-0.03658 0.0298,-0.07402 0.0403,-0.113688 l 0.0393,-0.147794 a 10.05138,8.4615917 0 0 0 0.0212,-0.0801 L 110.6398,40.928559 c 0.3656,1.43077 1.29282,2.741976 1.94252,3.418912 1.19972,1.250028 2.40347,2.504002 4.04833,4.217831 1.64487,1.713832 4.69778,4.43652 5.82083,6.065263 1.12306,1.628743 1.48312,3.130042 1.48312,3.130042 2.19835,-2.335048 0.0484,-5.747479 -1.15135,-6.997506 -1.19972,-1.250023 -2.40347,-2.503997 -4.04834,-4.217831 -1.64486,-1.713827 -4.69777,-4.436519 -5.82083,-6.065263 -0.83244,-1.20727 -1.24441,-2.341167 -1.4025,-2.848922 l 0.18552,-0.700732 c 0.11528,-0.435955 -0.14282,-0.880014 -0.57877,-0.995288 -0.0817,-0.02161 -0.16384,-0.03023 -0.24392,-0.02687 z"
         id="path8205" /><path
         id="path12633"
         style="color:#000000;display:inline;fill:#000000;stroke-linecap:round;stroke-linejoin:round;paint-order:stroke fill markers"
         d="m 110.87438,35.908195 c -0.34699,0.01453 -0.65771,0.251434 -0.75137,0.605648 L 99.825441,75.460821 a 10.05138,8.4615917 0 0 1 0.0703,0.133842 L 110.21656,36.560351 c 0.0937,-0.354213 0.40439,-0.591117 0.75138,-0.605647 0.0801,-0.0034 0.16217,0.0053 0.24391,0.02687 0.0383,0.01011 0.0731,0.02587 0.10852,0.04082 -0.0625,-0.03653 -0.12853,-0.06789 -0.20206,-0.08733 -0.0817,-0.02161 -0.16383,-0.03023 -0.24391,-0.02687 z m -0.14107,5.066874 -0.0388,0.147278 c 0.39604,1.354364 1.26757,2.578951 1.88774,3.225126 1.19972,1.250025 2.40347,2.504005 4.04833,4.217831 1.64486,1.713828 4.69778,4.436523 5.82083,6.065263 1.12306,1.62874 1.48311,3.130041 1.48311,3.130041 0.0215,-0.02287 0.0398,-0.04668 0.0605,-0.06976 -0.076,-0.282977 -0.45258,-1.567176 -1.45004,-3.01377 -1.12305,-1.628744 -4.17596,-4.351435 -5.82083,-6.065266 -1.64485,-1.713827 -2.8486,-2.967803 -4.04833,-4.21783 -0.64969,-0.676935 -1.57692,-1.988144 -1.94251,-3.418913 z M 90.399663,70.076136 a 10.05138,8.4615917 0 0 0 -10.051067,8.461499 10.05138,8.4615917 0 0 0 4.770769,7.195427 10.05138,8.4615917 0 0 1 -4.677234,-7.148918 10.05138,8.4615917 0 0 1 10.051066,-8.461499 10.05138,8.4615917 0 0 1 5.189864,1.219047 10.05138,8.4615917 0 0 0 -5.283398,-1.265556 z" /><path
         id="path8203"
         style="color:#000000;display:inline;fill:#ffffff;stroke-linecap:round;stroke-linejoin:round;paint-order:stroke fill markers"
         d="m 111.60485,36.298351 c 0.073,0.163697 0.0961,0.350966 0.0465,0.538468 l -0.18552,0.700733 c 0.10043,0.322565 0.30461,0.898677 0.65267,1.584916 -0.31923,-0.644408 -0.51038,-1.18374 -0.60616,-1.491382 l 0.18552,-0.700732 c 0.0592,-0.224046 0.0184,-0.449403 -0.093,-0.632003 z m -1.01079,4.536674 -10.41074,39.372791 a 10.05138,8.4615917 0 0 1 -0.0212,0.0801 l -0.0393,0.147794 c -0.0105,0.03967 -0.0246,0.07711 -0.0403,0.113689 a 10.05138,8.4615917 0 0 1 -9.728601,6.356201 10.05138,8.4615917 0 0 1 -9.053712,-4.787305 10.05138,8.4615917 0 0 0 9.10022,4.880839 10.05138,8.4615917 0 0 0 9.728603,-6.356201 c 0.0157,-0.03658 0.0298,-0.07402 0.0403,-0.113688 l 0.0393,-0.147795 a 10.05138,8.4615917 0 0 0 0.0212,-0.0801 l 10.40092,-39.335584 c -0.0122,-0.0436 -0.0255,-0.0869 -0.0367,-0.130741 z m 0.51935,1.365808 c 0.43735,0.905678 1.01996,1.678064 1.46967,2.146639 1.19973,1.250025 2.40348,2.504005 4.04834,4.217831 1.64486,1.713828 4.69778,4.436523 5.82083,6.065263 0.27539,0.399396 0.50444,0.790639 0.69401,1.154451 -0.19872,-0.390505 -0.44071,-0.813177 -0.74052,-1.247986 -1.12305,-1.628741 -4.17597,-4.351432 -5.82083,-6.065263 -1.64486,-1.713827 -2.84861,-2.967804 -4.04834,-4.21783 -0.43406,-0.452267 -0.99159,-1.188098 -1.42316,-2.053105 z m 13.10462,10.639144 c 0.71924,1.500507 1.03479,3.36019 -0.31419,4.810043 0.009,0.03233 0.0315,0.110587 0.0315,0.110587 1.39607,-1.482879 1.03687,-3.398498 0.28267,-4.92063 z" /></g><path
       id="rect2553"
       style="display:none;fill:#ff6600;stroke-width:0.417041;stroke-linecap:round;stroke-linejoin:round;paint-order:stroke fill markers"
       d="m -133.5082,-3.4228712 c -2.50619,0 -5.02008,0 -8.45617,0 -3.43608,0 -9.3357,0.4593374 -12.16034,0 -2.82464,-0.4593374 -4.752,-1.5875 -4.752,-1.5875 0.23498,4.63303656 5.94998,5.80725816 8.45617,5.80725816 2.5062,0 5.02009,0 8.45617,0 3.43609,0 9.3357,-0.45933744 12.16034,0 2.82464,0.45933744 4.752,1.58750004 4.752,1.58750004 -0.23498,-4.6330366 -5.94997,-5.8072582 -8.45617,-5.8072582 z"
       sodipodi:nodetypes="zzzczzzcz" /></g></svg>
