<?xml version="1.0" encoding="UTF-8" standalone="no"?>
<!-- Created with Inkscape (http://www.inkscape.org/) -->

<svg
   version="1.0"
   width="512"
   height="512"
   id="svg2424"
   sodipodi:docname="start-here-archlinux.svg"
   inkscape:version="1.4 (e7c3feb100, 2024-10-09)"
   inkscape:export-filename="../../Pictures/bg/terminal/bridge.png"
   inkscape:export-xdpi="480"
   inkscape:export-ydpi="480"
   xmlns:inkscape="http://www.inkscape.org/namespaces/inkscape"
   xmlns:sodipodi="http://sodipodi.sourceforge.net/DTD/sodipodi-0.dtd"
   xmlns="http://www.w3.org/2000/svg"
   xmlns:svg="http://www.w3.org/2000/svg"
   xmlns:rdf="http://www.w3.org/1999/02/22-rdf-syntax-ns#"
   xmlns:cc="http://creativecommons.org/ns#"
   xmlns:dc="http://purl.org/dc/elements/1.1/">
  <sodipodi:namedview
     id="namedview1"
     pagecolor="#000000"
     bordercolor="#000000"
     borderopacity="1"
     inkscape:showpageshadow="0"
     inkscape:pageopacity="0"
     inkscape:pagecheckerboard="1"
     inkscape:deskcolor="#000000"
     inkscape:zoom="0.82112775"
     inkscape:cx="248.43881"
     inkscape:cy="165.01695"
     inkscape:window-width="3256"
     inkscape:window-height="1080"
     inkscape:window-x="1864"
     inkscape:window-y="0"
     inkscape:window-maximized="0"
     inkscape:current-layer="svg2424"
     showgrid="false" />
  <metadata
     id="metadata3206">
    <rdf:RDF>
      <cc:Work
         rdf:about="">
        <dc:format>image/svg+xml</dc:format>
        <dc:type
           rdf:resource="http://purl.org/dc/dcmitype/StillImage" />
        <dc:description>I haven't done anything to alter the logo and I am not the owner or creator of the design.</dc:description>
      </cc:Work>
    </rdf:RDF>
  </metadata>
  <defs
     id="defs2426" />
  <path
     d="M 255.95186,-5.85e-6 C 233.16349,55.885903 219.41866,92.424316 194.0468,146.64658 c 15.55613,16.48234 34.65052,35.67579 65.65975,57.36473 C 226.36859,190.30167 203.62802,176.53045 186.63359,162.23549 154.16247,229.98255 103.28954,326.50432 0.05199745,512.00001 81.193244,465.14086 144.0925,436.27367 202.71157,425.24439 c -2.51711,-10.81368 -3.9482,-22.52075 -3.851,-34.75155 l 0.0963,-2.58791 c 1.28753,-52.00415 28.33009,-91.96226 60.36463,-89.25113 32.03453,2.71109 56.93465,47.07478 55.64714,99.07893 -0.24224,9.76617 -1.34552,19.19346 -3.27335,27.91214 57.98264,11.33739 120.20932,40.14297 200.25271,86.35514 -15.78302,-29.05208 -29.87069,-55.23896 -43.32392,-80.19351 -21.19103,-16.42073 -43.29429,-37.80155 -88.38077,-60.93851 30.98986,8.04092 53.1782,17.34504 70.47356,27.72737 C 313.93412,143.93547 302.85768,110.07736 255.95186,-5.85e-6 Z"
     id="path2518"
     style="display:inline;opacity:1;fill:#1793d0;fill-opacity:1;fill-rule:evenodd;stroke:none;stroke-width:1" />
  <g
     transform="matrix(0.8746356,0,0,0.8746356,-26.046795,-109.83508)"
     id="text2638"
     style="font-style:normal;font-weight:normal;font-size:8.2513px;font-family:'DejaVu Sans Mono';display:inline;fill:#1793d1;fill-opacity:1;stroke:none" />
</svg>
