<?xml version="1.0" encoding="UTF-8" standalone="no"?>
<!-- Created with Inkscape (http://www.inkscape.org/) -->

<svg
   width="512"
   height="512"
   viewBox="0 0 135.46666 135.46667"
   version="1.1"
   id="svg5"
   inkscape:version="1.4 (e7c3feb100, 2024-10-09)"
   xml:space="preserve"
   sodipodi:docname="start-here-cinnamon.svg"
   xmlns:inkscape="http://www.inkscape.org/namespaces/inkscape"
   xmlns:sodipodi="http://sodipodi.sourceforge.net/DTD/sodipodi-0.dtd"
   xmlns="http://www.w3.org/2000/svg"
   xmlns:svg="http://www.w3.org/2000/svg"
   xmlns:rdf="http://www.w3.org/1999/02/22-rdf-syntax-ns#"
   xmlns:cc="http://creativecommons.org/ns#"
   xmlns:dc="http://purl.org/dc/elements/1.1/"><sodipodi:namedview
     id="namedview7"
     pagecolor="#242424"
     bordercolor="#666666"
     borderopacity="1"
     inkscape:showpageshadow="0"
     inkscape:pageopacity="0"
     inkscape:pagecheckerboard="1"
     inkscape:deskcolor="#000000"
     inkscape:document-units="px"
     showgrid="false"
     inkscape:zoom="0.921875"
     inkscape:cx="295.05085"
     inkscape:cy="81.898305"
     inkscape:window-width="3256"
     inkscape:window-height="1080"
     inkscape:window-x="1864"
     inkscape:window-y="0"
     inkscape:window-maximized="0"
     inkscape:current-layer="layer1" /><defs
     id="defs2" /><g
     inkscape:label="Layer 1"
     inkscape:groupmode="layer"
     id="layer1"><path
       id="XMLID_9_"
       d="M 67.733327,-3.2389722e-6 C 30.326847,-3.2389722e-6 -5.2500002e-6,30.32685 -5.2500002e-6,67.733331 -5.2500002e-6,105.14569 30.326847,135.46667 67.733327,135.46667 c 37.412353,0 67.733343,-30.32098 67.733343,-67.733339 C 135.46667,30.32685 105.14568,-3.2389722e-6 67.733327,-3.2389722e-6 Z m 0,11.5496302389722 c 31.033633,0 56.183703,25.150044 56.183703,56.183704 0,4.773108 -0.65113,9.379127 -1.77152,13.804344 L 95.4226,51.835328 61.256837,90.70606 77.74153,57.725176 69.50491,43.000543 20.936634,98.81612 c -5.925133,-8.903593 -9.386965,-19.587721 -9.386965,-31.082789 0,-31.03366 25.150044,-56.183704 56.183703,-56.183704 z"
       style="fill:#dc682e;stroke-width:0.264583" /></g><metadata
     id="metadata1"><rdf:RDF><cc:Work
         rdf:about=""><dc:description>I haven't done anything to alter the logo and I am not the owner or creator of the design.</dc:description></cc:Work></rdf:RDF></metadata></svg>
