<?xml version="1.0" encoding="UTF-8" standalone="no"?>
<!-- Created with Inkscape (http://www.inkscape.org/) -->

<svg
   width="512"
   height="512"
   viewBox="0 0 135.46666 135.46667"
   version="1.1"
   id="svg5"
   inkscape:version="1.4 (e7c3feb100, 2024-10-09)"
   xml:space="preserve"
   sodipodi:docname="start-here-almalinux.svg"
   xmlns:inkscape="http://www.inkscape.org/namespaces/inkscape"
   xmlns:sodipodi="http://sodipodi.sourceforge.net/DTD/sodipodi-0.dtd"
   xmlns="http://www.w3.org/2000/svg"
   xmlns:svg="http://www.w3.org/2000/svg"
   xmlns:rdf="http://www.w3.org/1999/02/22-rdf-syntax-ns#"
   xmlns:cc="http://creativecommons.org/ns#"
   xmlns:dc="http://purl.org/dc/elements/1.1/"><sodipodi:namedview
     id="namedview7"
     pagecolor="#242424"
     bordercolor="#666666"
     borderopacity="1"
     inkscape:showpageshadow="0"
     inkscape:pageopacity="0"
     inkscape:pagecheckerboard="1"
     inkscape:deskcolor="#000000"
     inkscape:document-units="px"
     showgrid="false"
     inkscape:zoom="0.921875"
     inkscape:cx="75.932203"
     inkscape:cy="354.16949"
     inkscape:window-width="3256"
     inkscape:window-height="1080"
     inkscape:window-x="1864"
     inkscape:window-y="0"
     inkscape:window-maximized="0"
     inkscape:current-layer="layer1" /><defs
     id="defs2" /><g
     inkscape:label="Layer 1"
     inkscape:groupmode="layer"
     id="layer1"><g
       id="g1"
       transform="matrix(8.3895554,0,0,8.3895554,-219.96055,-502.73896)"
       style="stroke-width:0.119196"><path
         id="path22"
         d="m 41.065161,69.0207 c 0.687917,-0.05292 1.243542,0.396875 1.296459,1.084792 0.05292,0.714375 -0.449792,1.296458 -1.137709,1.349374 -0.661458,0.05292 -1.243541,-0.449791 -1.296458,-1.111249 -0.05292,-0.714375 0.423333,-1.243542 1.137708,-1.322917 z"
         class="st1"
         style="stroke-width:0.0315372" /><path
         id="path24"
         d="m 32.704328,74.656325 c 0,-0.687917 0.529167,-1.217084 1.164167,-1.217084 0.635,0 1.243541,0.582084 1.243541,1.243542 0,0.635 -0.529166,1.190625 -1.137708,1.217083 -0.767292,0 -1.27,-0.47625 -1.27,-1.243541 z"
         class="st2"
         style="stroke-width:0.0315372" /><path
         id="path26"
         d="m 34.58287,66.930492 c -0.105834,0.05292 -0.15875,-0.02646 -0.185209,-0.105834 -0.978958,-1.825625 -0.687916,-4.1275 1.031875,-5.503333 0.449792,-0.370417 1.296459,-0.449792 1.666875,-0.07937 0.15875,0.132292 0.185209,0.291042 0.211667,0.47625 0.05292,0.396875 0.132292,0.79375 0.396875,1.11125 0.291042,0.343958 0.661458,0.47625 1.084792,0.449792 0.370416,0 0.740833,-0.05292 0.978958,0.370416 0.132292,0.238125 0.07937,1.164167 -0.132292,1.349375 -0.105833,0.07937 -0.185208,0.02646 -0.264583,0 -0.608542,-0.238125 -1.243542,-0.238125 -1.878542,-0.132291 -0.211666,0.02646 -0.3175,-0.02646 -0.3175,-0.264584 -0.02646,-0.396875 -0.105833,-0.767291 -0.3175,-1.11125 -0.396875,-0.714375 -1.137708,-0.740833 -1.613958,-0.07937 -0.396875,0.529167 -0.502708,1.164167 -0.608542,1.799167 -0.105833,0.555625 -0.07938,1.137708 -0.05292,1.719792 0,0 -0.02646,0 0,0 z"
         class="st3"
         style="stroke-width:0.0315372" /><path
         id="path28"
         d="m 35.244328,67.327367 c -0.05292,-0.07937 -0.02646,-0.15875 0.05292,-0.211667 1.508125,-1.375833 3.757083,-1.640417 5.503333,-0.291042 0.449792,0.370417 0.740833,1.137709 0.502708,1.5875 -0.105833,0.185209 -0.238125,0.264584 -0.396875,0.3175 -0.370416,0.15875 -0.714375,0.3175 -0.9525,0.661459 -0.238125,0.343958 -0.291041,0.740833 -0.185208,1.164166 0.07937,0.343959 0.211667,0.714375 -0.132292,1.031875 -0.185208,0.185208 -1.084791,0.343958 -1.322916,0.185208 -0.105834,-0.07937 -0.07938,-0.15875 -0.05292,-0.264583 0.07937,-0.661458 -0.07938,-1.27 -0.3175,-1.852083 -0.07937,-0.211667 -0.05292,-0.3175 0.15875,-0.370417 0.370417,-0.105833 0.714375,-0.291041 0.978958,-0.555625 0.582084,-0.555625 0.449792,-1.27 -0.3175,-1.5875 -0.608541,-0.264583 -1.243541,-0.211666 -1.852083,-0.15875 -0.582083,0.02646 -1.137708,0.185209 -1.666875,0.343959 z"
         class="st1"
         style="stroke-width:0.0315372" /><path
         id="path30"
         d="m 34.90037,68.015283 c 0.07937,-0.07937 0.132291,-0.05292 0.211666,0 1.74625,1.058334 2.645834,3.148542 1.852084,5.185833 -0.211667,0.529167 -0.899584,1.058334 -1.402292,0.926042 -0.211667,-0.05292 -0.3175,-0.15875 -0.423333,-0.291042 -0.238125,-0.3175 -0.502709,-0.608541 -0.899584,-0.740833 -0.423333,-0.132292 -0.79375,-0.05292 -1.164166,0.15875 -0.3175,0.185208 -0.635,0.423333 -1.031875,0.185208 -0.238125,-0.132291 -0.635,-0.9525 -0.555625,-1.217083 0.05292,-0.105833 0.15875,-0.105833 0.264583,-0.105833 0.661458,-0.105834 1.190625,-0.423334 1.693333,-0.846667 0.15875,-0.132292 0.291042,-0.132292 0.423334,0.05292 0.211666,0.3175 0.47625,0.582083 0.820208,0.767291 0.687917,0.396875 1.349375,0.05292 1.42875,-0.740833 0.07937,-0.661458 -0.15875,-1.243541 -0.370417,-1.825625 -0.238125,-0.529166 -0.529166,-1.031875 -0.846666,-1.508125 z"
         class="st2"
         style="stroke-width:0.0315372" /><path
         id="path32"
         d="m 34.053703,68.174033 c -0.105833,0.529167 -0.343958,1.031875 -0.661458,1.481667 -0.9525,1.42875 -2.328334,2.010833 -4.021667,1.852083 -0.608541,-0.05292 -1.11125,-0.555625 -1.164166,-1.058333 -0.02646,-0.211667 0.02646,-0.370417 0.15875,-0.529167 0.185208,-0.238125 0.343958,-0.449791 0.423333,-0.740833 0.15875,-0.582083 -0.05292,-1.058333 -0.47625,-1.481667 -0.582083,-0.582083 -0.502708,-1.11125 0.185208,-1.534583 0.07937,-0.05292 0.185209,-0.105833 0.291042,-0.15875 0.15875,-0.07937 0.291042,-0.07937 0.343958,0.105833 0.238125,0.608542 0.714375,1.058334 1.243542,1.42875 0.185208,0.15875 0.185208,0.264584 0.02646,0.449792 -0.3175,0.343958 -0.502708,0.767292 -0.529167,1.243542 -0.05292,0.582083 0.291042,0.9525 0.873125,0.9525 0.370417,0 0.714375,-0.132292 1.031875,-0.291042 0.820209,-0.423333 1.455209,-1.031875 2.06375,-1.666875 0.07937,-0.02646 0.105834,-0.07937 0.211667,-0.05292 z"
         class="st4"
         style="stroke-width:0.0315372" /><path
         id="path34"
         d="m 29.714536,62.617783 c 0.05292,0 0.185209,0.02646 0.3175,0.05292 0.978959,0.185208 1.5875,-0.15875 1.905,-1.084792 0.211667,-0.608541 0.661459,-0.79375 1.243542,-0.47625 0.02646,0 0.02646,0.02646 0.05292,0.02646 0.608541,0.343958 0.608541,0.396875 0.238125,0.926041 -0.3175,0.423334 -0.47625,0.899584 -0.555625,1.402292 -0.05292,0.291042 -0.15875,0.343958 -0.423334,0.238125 -0.423333,-0.15875 -0.873125,-0.15875 -1.322916,0 -0.502709,0.15875 -0.714375,0.608542 -0.555625,1.11125 0.211666,0.661458 0.79375,0.9525 1.296458,1.296458 0.502708,0.343959 1.084792,0.529167 1.640417,0.767292 0.07937,0.02646 0.211666,0.02646 0.185208,0.15875 -0.02646,0.07937 -0.132292,0.07937 -0.238125,0.07937 -1.190625,0.05292 -2.328333,-0.132292 -3.254375,-0.926042 -0.873125,-0.714375 -1.508125,-1.5875 -1.402291,-2.804583 0.07938,-0.396875 0.370416,-0.687917 0.873124,-0.767292 z"
         class="st5"
         style="stroke-width:0.0315372" /><path
         id="path36"
         d="m 27.544953,70.052575 c -0.635,0.07937 -1.27,-0.449792 -1.322916,-1.11125 -0.05292,-0.635 0.47625,-1.27 1.084791,-1.322917 0.687917,-0.07937 1.322917,0.396875 1.375834,1.031875 0.02646,0.608542 -0.370417,1.349375 -1.137709,1.402292 z"
         class="st4"
         style="stroke-width:0.0315372" /><path
         id="path38"
         d="m 38.657453,60.633408 c 0.661458,-0.05292 1.296458,0.47625 1.349375,1.137709 0.05292,0.635 -0.47625,1.243541 -1.11125,1.296458 -0.687917,0.05292 -1.296458,-0.449792 -1.349375,-1.11125 -0.05292,-0.661458 0.423333,-1.27 1.11125,-1.322917 z"
         class="st3"
         style="stroke-width:0.0315372" /><path
         id="path40"
         d="m 31.751828,61.136117 c 0.07937,0.687916 -0.396875,1.27 -1.11125,1.375833 -0.608542,0.07937 -1.243541,-0.423333 -1.322916,-1.005417 -0.07937,-0.767291 0.343958,-1.322916 1.058333,-1.402291 0.661458,-0.07937 1.296458,0.423333 1.375833,1.031875 z"
         class="st5"
         style="stroke-width:0.0315372" /></g></g><style
     id="style2"
     type="text/css">
    .st0{fill:#fff}.st1{fill:#86da2f}.st2{fill:#24c2ff}.st3{fill:#ffcb12}.st4{fill:#0069da}.st5{fill:#ff4649}
  </style><metadata
     id="metadata1"><rdf:RDF><cc:Work
         rdf:about=""><dc:description>I haven't done anything to alter the logo and I am not the owner or creator of the design.</dc:description></cc:Work></rdf:RDF></metadata></svg>
