<?xml version="1.0" encoding="UTF-8" standalone="no"?>
<!-- Created with Inkscape (http://www.inkscape.org/) -->

<svg
   width="512"
   height="512"
   viewBox="0 0 135.46666 135.46667"
   version="1.1"
   id="svg5"
   inkscape:version="1.4 (e7c3feb100, 2024-10-09)"
   xml:space="preserve"
   sodipodi:docname="start-here-endeavouros.svg"
   xmlns:inkscape="http://www.inkscape.org/namespaces/inkscape"
   xmlns:sodipodi="http://sodipodi.sourceforge.net/DTD/sodipodi-0.dtd"
   xmlns="http://www.w3.org/2000/svg"
   xmlns:svg="http://www.w3.org/2000/svg"
   xmlns:rdf="http://www.w3.org/1999/02/22-rdf-syntax-ns#"
   xmlns:cc="http://creativecommons.org/ns#"
   xmlns:dc="http://purl.org/dc/elements/1.1/"><sodipodi:namedview
     id="namedview7"
     pagecolor="#242424"
     bordercolor="#666666"
     borderopacity="1"
     inkscape:showpageshadow="0"
     inkscape:pageopacity="0"
     inkscape:pagecheckerboard="1"
     inkscape:deskcolor="#000000"
     inkscape:document-units="px"
     showgrid="false"
     inkscape:zoom="1.3037281"
     inkscape:cx="232.41042"
     inkscape:cy="324.07063"
     inkscape:window-width="3233"
     inkscape:window-height="1080"
     inkscape:window-x="1887"
     inkscape:window-y="0"
     inkscape:window-maximized="0"
     inkscape:current-layer="layer1" /><defs
     id="defs2" /><g
     inkscape:label="Layer 1"
     inkscape:groupmode="layer"
     id="layer1"><g
       id="g1"
       transform="matrix(2.8087815,0,0,2.8087815,-121.02848,-106.35375)"
       style="stroke-width:0.356026"><path
         d="m 71.306955,41.525783 c 4.386211,6.319173 22.84285,30.763107 10.269685,35.857634 -5.873876,2.753005 -32.632642,-1.616532 -32.248729,-0.902319 -1.919567,3.213471 -3.445623,5.799924 -3.445623,5.799924 0,0 20.635347,0.947386 36.567755,-1.244241 22.746867,-3.115499 -4.683744,-32.820512 -11.13349,-39.482586 z"
         style="fill:#7f7fff;stroke-width:0.201964"
         inkscape:connector-curvature="0"
         id="path1" /><path
         d="m 71.306955,41.525783 c -1.458871,0.204761 -28.217637,33.800229 -28.217637,33.800229 0,0 1.929165,0.558439 6.315376,1.205052 1.42048,-1.126675 21.403174,-35.465748 21.979044,-34.975889 -0.01027,-0.01381 -0.02687,-0.01891 -0.0501,-0.01568 z"
         style="fill:#ff7f7f;stroke-width:0.201964"
         inkscape:connector-curvature="0"
         id="path2" /><path
         d="m 71.306955,41.525783 c -0.921392,-0.152836 -21.979044,34.975889 -21.979044,34.975889 0,0 19.099694,2.057405 26.969919,1.920245 22.171001,-0.382089 0.168922,-29.979333 -4.952483,-36.935322 -0.0067,-0.0069 -0.01449,-0.01058 -0.0238,-0.01215 z"
         style="fill:#7f3fbf;stroke-width:0.201964"
         inkscape:connector-curvature="0"
         id="path3" /></g></g><metadata
     id="metadata1"><rdf:RDF><cc:Work
         rdf:about=""><dc:description>I haven't done anything to alter the logo and I am not the owner or creator of the design.</dc:description></cc:Work></rdf:RDF></metadata></svg>
