<?xml version="1.0" encoding="UTF-8" standalone="no"?>
<!-- Created with Inkscape (http://www.inkscape.org/) -->

<svg
   width="512"
   height="512"
   viewBox="0 0 135.46666 135.46667"
   version="1.1"
   id="svg5"
   inkscape:version="1.4 (e7c3feb100, 2024-10-09)"
   xml:space="preserve"
   sodipodi:docname="start-here-voidlinux.svg"
   xmlns:inkscape="http://www.inkscape.org/namespaces/inkscape"
   xmlns:sodipodi="http://sodipodi.sourceforge.net/DTD/sodipodi-0.dtd"
   xmlns="http://www.w3.org/2000/svg"
   xmlns:svg="http://www.w3.org/2000/svg"
   xmlns:rdf="http://www.w3.org/1999/02/22-rdf-syntax-ns#"
   xmlns:cc="http://creativecommons.org/ns#"
   xmlns:dc="http://purl.org/dc/elements/1.1/"><sodipodi:namedview
     id="namedview7"
     pagecolor="#242424"
     bordercolor="#666666"
     borderopacity="1"
     inkscape:showpageshadow="0"
     inkscape:pageopacity="0"
     inkscape:pagecheckerboard="1"
     inkscape:deskcolor="#000000"
     inkscape:document-units="px"
     showgrid="false"
     inkscape:zoom="0.921875"
     inkscape:cx="218.0339"
     inkscape:cy="124.20339"
     inkscape:window-width="3256"
     inkscape:window-height="1080"
     inkscape:window-x="1864"
     inkscape:window-y="0"
     inkscape:window-maximized="0"
     inkscape:current-layer="layer1" /><defs
     id="defs2" /><g
     inkscape:label="Layer 1"
     inkscape:groupmode="layer"
     id="layer1"><path
       d="M 67.750901,12.76105 C 56.241955,12.78549 45.030927,16.421485 35.698342,23.156438 l 12.486211,12.486211 c 5.891079,-3.603666 12.660478,-5.516161 19.566348,-5.527904 20.776189,-4.2e-5 37.618629,16.842396 37.618589,37.618588 -0.0166,6.903409 -1.93257,13.669136 -5.537986,19.556266 l 12.509876,12.509878 c 6.73281,-9.337984 10.36417,-20.554043 10.38181,-32.066144 0,-30.360351 -24.611941,-54.972283 -54.972289,-54.972283 z"
       fill="#abc2ab"
       id="path1"
       style="stroke-width:0.264583" /><path
       d="M 99.803458,112.31023 87.317244,99.824018 c -5.89108,3.603662 -12.660479,5.516162 -19.566343,5.527902 -20.776193,4e-5 -37.618631,-16.842398 -37.61859,-37.618587 0.01663,-6.903411 1.932558,-13.669139 5.537984,-19.556267 L 23.160414,35.66719 c -6.732821,9.337977 -10.364158,20.554041 -10.381797,32.066143 0,30.360348 24.611931,54.972287 54.972284,54.972287 11.508945,-0.0245 22.719969,-3.66044 32.052557,-10.39539 z"
       fill="#478061"
       id="path2"
       style="stroke-width:0.264583" /><circle
       fill="#abc2ab"
       cx="67.742111"
       cy="67.733337"
       r="17.501381"
       id="circle2"
       style="stroke-width:0.264583" /><path
       id="path3"
       style="stroke-width:2.11666664;stroke:#ffffff;stroke-opacity:1;stroke-dasharray:none;paint-order:markers stroke fill"
       d="M 2.0861775 56.699898 C 1.7222182 56.699898 1.4543984 56.774827 1.2831258 56.92469 C 1.1332586 57.053148 1.0583333 57.224262 1.0583333 57.438354 L 1.0583333 57.631107 C 1.0583333 57.695333 1.0795931 57.749001 1.1224121 57.791821 L 11.977047 77.959065 C 12.084095 78.173156 12.22332 78.333638 12.394592 78.440689 C 12.565865 78.547732 12.801279 78.601403 13.101009 78.601403 L 15.220776 78.601403 C 15.713188 78.601403 16.258941 78.387247 16.858402 77.959065 L 46.017862 57.759264 C 46.360407 57.480943 46.531526 57.24553 46.531526 57.052848 C 46.531526 56.817346 46.392307 56.699898 46.113981 56.699898 L 44.026769 56.699898 C 43.34167 56.699898 42.688586 56.914052 42.067716 57.342236 L 23.345345 70.219486 L 16.665649 57.342236 C 16.451557 56.914052 15.991359 56.699898 15.284855 56.699898 L 2.0861775 56.699898 z M 55.749568 56.699898 C 54.315152 56.699898 52.912789 56.902905 51.54259 57.309679 C 50.172401 57.695048 48.866224 58.230688 47.624483 58.915783 C 46.404151 59.600878 45.26961 60.414451 44.220556 61.356461 C 43.192911 62.298467 42.293775 63.325677 41.523046 64.43896 C 40.773718 65.552245 40.184929 66.719191 39.756746 67.939521 C 39.328562 69.159846 39.114408 70.401731 39.114408 71.664875 C 39.114408 72.649707 39.264268 73.57009 39.563993 74.426464 C 39.863719 75.261421 40.302657 75.989439 40.880708 76.61031 C 41.458759 77.231182 42.175622 77.723783 43.031998 78.087739 C 43.888366 78.430287 44.873575 78.601403 45.986857 78.601403 L 61.72233 78.601403 C 63.113937 78.601403 64.495039 78.408512 65.865229 78.023144 C 67.235424 77.616369 68.541605 77.070614 69.783337 76.385517 C 71.025074 75.679012 72.170249 74.854807 73.219302 73.9128 C 74.268355 72.94938 75.178116 71.911024 75.948852 70.797745 C 76.719582 69.684466 77.318999 68.517513 77.747191 67.297183 C 78.196786 66.055447 78.421569 64.802941 78.421569 63.53979 C 78.421569 62.554965 78.271718 61.645203 77.971984 60.810241 C 77.672259 59.975279 77.23332 59.257891 76.655268 58.658434 C 76.077216 58.037564 75.349715 57.556111 74.471939 57.213561 C 73.615559 56.871016 72.619738 56.699898 71.485041 56.699898 L 55.749568 56.699898 z M 85.927054 56.699898 C 85.370409 56.699898 84.963377 56.97783 84.706456 57.534472 L 75.682718 77.734272 C 75.618498 77.926956 75.586083 78.087445 75.586083 78.215897 C 75.586083 78.472807 75.778979 78.601403 76.164342 78.601403 L 87.243769 78.601403 C 87.800414 78.601403 88.206934 78.312324 88.46385 77.734272 L 97.455549 57.534472 C 97.541166 57.384605 97.584223 57.245384 97.584223 57.116926 C 97.584223 56.83861 97.3807 56.699898 96.973925 56.699898 L 85.927054 56.699898 z M 101.71627 56.699898 C 101.15963 56.699898 100.75311 56.97783 100.49619 57.534472 L 91.471935 77.734272 C 91.407725 77.926956 91.375817 78.087445 91.375817 78.215897 C 91.375817 78.472807 91.568191 78.601403 91.953559 78.601403 L 117.77317 78.601403 C 119.12195 78.601403 120.47064 78.408512 121.81944 78.023144 C 123.16821 77.637781 124.45313 77.113286 125.67346 76.449596 C 126.9152 75.764504 128.06038 74.950926 129.10943 74.008918 C 130.17989 73.066911 131.10081 72.039698 131.87154 70.926419 C 132.66369 69.813134 133.28436 68.635555 133.73395 67.393818 C 134.18355 66.130674 134.40833 64.84576 134.40833 63.53979 C 134.40833 62.554965 134.25848 61.645203 133.95875 60.810241 C 133.65902 59.975279 133.22007 59.257891 132.64203 58.658434 C 132.06397 58.037564 131.34659 57.556111 130.49022 57.213561 C 129.63385 56.871016 128.64917 56.699898 127.53588 56.699898 L 101.71627 56.699898 z M 59.410326 60.456774 L 63.778018 60.456774 C 64.634387 60.456774 65.276329 60.57474 65.704516 60.810241 C 66.154116 61.045742 66.378893 61.474046 66.378893 62.094917 C 66.378893 62.84424 66.026035 63.968158 65.319526 65.466804 L 63.778018 68.967366 C 63.285605 70.059238 62.803635 70.97963 62.332629 71.728954 C 61.861628 72.478277 61.369019 73.0777 60.855199 73.527294 C 60.341379 73.976889 59.806258 74.309003 59.249613 74.523099 C 58.692974 74.71578 58.082924 74.81197 57.419234 74.81197 L 53.019502 74.81197 C 52.334412 74.81197 51.809919 74.683374 51.445955 74.426464 C 51.082 74.148147 50.900252 73.698574 50.900252 73.077709 C 50.900252 72.157108 51.306784 70.787154 52.120332 68.967366 L 53.66184 65.466804 C 54.090027 64.50339 54.507707 63.700442 54.914477 63.058166 C 55.342664 62.415886 55.781598 61.902027 56.231192 61.516658 C 56.680786 61.131294 57.162239 60.86399 57.676065 60.714123 C 58.211302 60.542854 58.78946 60.456774 59.410326 60.456774 z M 111.89653 60.456774 L 118.41551 60.456774 C 119.22906 60.456774 119.85025 60.57474 120.27844 60.810241 C 120.70662 61.045742 120.92027 61.474046 120.92027 62.094917 C 120.92027 62.801421 120.57803 63.925339 119.89294 65.466804 L 118.35143 68.967366 C 117.85903 70.059238 117.36641 70.97963 116.874 71.728954 C 116.403 72.45687 115.91092 73.056288 115.39709 73.527294 C 114.90468 73.976894 114.38018 74.309003 113.82354 74.523099 C 113.2669 74.71578 112.66697 74.81197 112.02469 74.81197 L 105.53774 74.81197 L 111.89653 60.456774 z " /></g><metadata
     id="metadata1"><rdf:RDF><cc:Work
         rdf:about=""><dc:description>I haven't done anything to alter the logo and I am not the owner or creator of the design.</dc:description></cc:Work></rdf:RDF></metadata></svg>
