<?xml version="1.0" encoding="UTF-8" standalone="no"?>
<!-- Created with Inkscape (http://www.inkscape.org/) -->

<svg
   width="512"
   height="512"
   viewBox="0 0 135.46666 135.46667"
   version="1.1"
   id="svg5"
   inkscape:version="1.4 (e7c3feb100, 2024-10-09)"
   xml:space="preserve"
   sodipodi:docname="start-here-mageia.svg"
   xmlns:inkscape="http://www.inkscape.org/namespaces/inkscape"
   xmlns:sodipodi="http://sodipodi.sourceforge.net/DTD/sodipodi-0.dtd"
   xmlns="http://www.w3.org/2000/svg"
   xmlns:svg="http://www.w3.org/2000/svg"
   xmlns:rdf="http://www.w3.org/1999/02/22-rdf-syntax-ns#"
   xmlns:cc="http://creativecommons.org/ns#"
   xmlns:dc="http://purl.org/dc/elements/1.1/"><sodipodi:namedview
     id="namedview7"
     pagecolor="#242424"
     bordercolor="#666666"
     borderopacity="1"
     inkscape:showpageshadow="0"
     inkscape:pageopacity="0"
     inkscape:pagecheckerboard="1"
     inkscape:deskcolor="#000000"
     inkscape:document-units="px"
     showgrid="false"
     inkscape:zoom="1.3037281"
     inkscape:cx="120.04036"
     inkscape:cy="225.12362"
     inkscape:window-width="3256"
     inkscape:window-height="1080"
     inkscape:window-x="1864"
     inkscape:window-y="0"
     inkscape:window-maximized="0"
     inkscape:current-layer="layer1" /><defs
     id="defs2" /><g
     inkscape:label="Layer 1"
     inkscape:groupmode="layer"
     id="layer1"><path
       style="fill:#ffffff"
       d="m 63.76561,0.01631137 c -3.16822,0.2375245 -5.636536,2.89580283 -5.638672,6.07226563 -0.02641,3.3703884 2.72277,6.140625 6.09375,6.140625 3.370185,0 6.114937,-2.7693628 6.089844,-6.1386719 -0.0015,-3.527149 -3.027027,-6.33770373 -6.544922,-6.07421873 z m 0.158203,2.11132813 c 2.322694,-0.1739662 4.274122,1.6375979 4.273438,3.9667969 v 0.00391 0.00586 c 0.01885,2.2219552 -1.754529,4.0097656 -3.976563,4.0097656 -2.222034,0 -3.995414,-1.7878104 -3.976562,-4.0097656 v -0.00586 -0.00391 C 60.2435,4.0034446 61.838673,2.2839645 63.923813,2.1276395 Z m 12.117188,7.4570313 c -3.562437,0.2670786 -6.334053,3.2543892 -6.335938,6.8261722 -2e-6,6.65e-4 3e-6,0.0013 0,0.002 0,0.0013 0,0.0026 0,0.0039 -0.01207,3.777436 3.069469,6.871094 6.847657,6.871094 3.778187,0 6.859724,-3.093658 6.847656,-6.871094 v -0.0019 C 83.40056,12.446859 79.998063,9.288072 76.041001,9.5846708 Z m 0.158203,2.1113282 c 2.760988,-0.206948 5.08491,1.950017 5.083984,4.71875 v 0.0039 0.0019 c 0.01069,2.633195 -2.097253,4.75 -4.730468,4.75 -2.633216,0 -4.741158,-2.116805 -4.730469,-4.75 v -0.0019 -0.0039 c -8.35e-4,-2.486287 1.897624,-4.532873 4.376953,-4.71875 z m -10.265625,7.960937 c -3.826903,0.286737 -6.803411,3.494401 -6.802734,7.332032 -0.0013,4.048456 3.303109,7.353515 7.351562,7.353515 4.048453,0 7.352813,-3.305059 7.351563,-7.353515 7.56e-4,-4.261308 -3.651,-7.650496 -7.900391,-7.332032 z m 0.158203,2.109375 c 3.052777,-0.228786 5.625543,2.161319 5.625,5.222657 8.97e-4,2.904294 -2.330082,5.236328 -5.234375,5.236328 -2.904293,0 -5.235272,-2.332034 -5.234375,-5.236328 -4.84e-4,-2.749581 2.101855,-5.017216 4.84375,-5.222657 z m 12.480469,10.195313 c -4.460523,0.0036 -8.106724,3.651939 -8.09961,8.117187 0.004,4.454325 3.648181,8.095703 8.105469,8.095703 h 0.0078 c 4.459877,-0.0044 8.099609,-3.653961 8.099609,-8.117187 -0.0044,-4.454989 -3.651143,-8.095703 -8.113281,-8.095703 z m 0,2.115234 h 0.002 c 3.315627,0.0011 5.990901,2.676418 5.994141,5.982422 -0.0011,3.317374 -2.671558,5.993732 -5.982422,5.998047 h -0.0078 c -3.310489,0 -5.986103,-2.67398 -5.988281,-5.980469 v -0.002 c -0.0053,-3.316291 2.670277,-5.994263 5.982422,-5.998047 z m -20.402344,2.416016 c -4.737071,0.005 -8.608616,3.878351 -8.601562,8.623047 0.005,4.731182 3.875881,8.595703 8.609375,8.595703 h 0.0078 c 4.737081,-0.005 8.601563,-3.878294 8.601563,-8.621094 v -0.002 c -0.0057,-4.731064 -3.876236,-8.595703 -8.615235,-8.595703 z m 0.0078,17.21875 h -0.431641 v 0.002 z m -0.0059,-15.103516 c 3.593023,0 6.495649,2.901731 6.5,6.484375 -0.0011,3.594224 -2.894028,6.492553 -6.478515,6.501953 h -0.01563 c -3.585963,0 -6.490327,-2.899896 -6.494141,-6.482422 -0.0053,-3.596714 2.89834,-6.500089 6.488281,-6.503906 z M 41.781182,56.436233 c -1.919897,0.03478 -3.9037,0.714313 -5.40625,2.291016 l -0.03711,0.03906 -0.0332,0.04297 C 29.72471,67.337967 24.28509,77.073423 24.28509,88.903029 c 0,25.474391 19.363956,46.564451 43.447266,46.564451 24.082577,0 43.449214,-21.08992 43.449214,-46.564451 0,-11.832269 -5.45944,-21.281922 -12.402339,-30.101562 l -0.0293,-0.03906 -0.03516,-0.03516 c -1.484014,-1.557275 -3.373786,-2.256743 -5.212891,-2.28125 -1.839104,-0.02451 -3.632366,0.582011 -5.142578,1.546875 l 0.08398,-0.04883 c -7.901554,4.088572 -11.862277,5.629454 -20.705079,5.589843 -8.565099,-0.03839 -12.800279,-1.362274 -20.673828,-5.654296 l 0.04492,0.02539 c -1.527216,-0.933294 -3.408254,-1.503531 -5.328125,-1.46875 z m 0.03711,2.117188 c 1.464453,-0.02653 3.002142,0.433821 4.1875,1.158203 l 0.02148,0.01367 0.02344,0.01172 c 8.0021,4.362098 12.885542,5.872701 21.677735,5.91211 9.103824,0.04078 13.714153,-1.698498 21.6875,-5.824219 l 0.04297,-0.02344 0.03906,-0.02539 c 1.202348,-0.768172 2.629237,-1.230845 3.976563,-1.212891 1.339005,0.01784 2.593356,0.472002 3.685546,1.607422 6.800004,8.649015 11.904294,17.57405 11.904294,28.732422 0,24.403682 -18.486341,44.449222 -41.332028,44.449222 -22.846452,0 -41.330078,-20.04564 -41.330078,-44.449222 0,-11.152771 5.105531,-20.392083 11.53125,-28.734375 1.07486,-1.114474 2.430669,-1.58889 3.884766,-1.615234 z m 0.664062,6.52539 -0.546875,0.769532 c -4.53291,6.382546 -9.546875,14.395755 -9.546875,23.054687 0,20.98916 16.131126,37.83789 35.34375,37.83789 19.211785,0 34.722656,-16.87032 34.722656,-37.83789 0,-8.616862 -4.374897,-16.638714 -8.923828,-23.052734 l -0.546875,-0.771485 -0.828125,0.457032 c -8.131682,4.493812 -15.219587,6.724609 -24.423775,6.724609 -9.196127,0 -16.294905,-2.231086 -24.421875,-6.724609 z m 0.681641,2.742188 c 7.98246,4.287434 15.365169,6.55664 24.568359,6.55664 9.207032,0 16.579181,-2.268938 24.560547,-6.552734 4.236162,6.118033 8.044919,13.48535 8.044919,21.078125 0,19.92754 -14.633229,35.7207 -32.605466,35.7207 -17.973144,0 -33.226562,-15.81452 -33.226562,-35.7207 0,-7.534811 4.347057,-14.923963 8.658203,-21.082031 z"
       id="path12" /><g
       id="g1"
       transform="matrix(2.3560679,0,0,2.3560679,107.62935,-85.305509)"
       style="stroke-width:0.424436"><g
         fill="#2397d4"
         transform="matrix(0.26458333,0,0,0.26458333,-68.053504,-99.435997)"
         id="g6"
         style="stroke-width:0.424436"><path
           d="m 177.891,597.128 h -0.01 c -6.6729,0 -12.1071,-5.42671 -12.1142,-12.095 -0.01,-6.69051 5.42514,-12.1253 12.1041,-12.1324 6.68298,0 12.1162,5.42671 12.1243,12.095 0,6.69052 -5.42512,12.1263 -12.1041,12.1334 z"
           id="path2"
           style="stroke-width:0.424436" /><path
           d="m 210.608,588.245 c -6.23094,0 -11.3025,-5.06615 -11.3066,-11.2917 -0.01,-6.24198 5.06123,-11.3164 11.2963,-11.3215 6.23916,0 11.3107,5.0651 11.3168,11.2906 0,6.24197 -5.06224,11.3164 -11.2963,11.3225 h -0.01 z"
           id="path3"
           style="stroke-width:0.424436" /><path
           d="m -10,-15.7008 a 7,7 0 1 1 -14,0 7,7 0 1 1 14,0 z"
           transform="matrix(1.44217,0,0,1.44217,215.72,578.6)"
           id="path4"
           style="stroke-width:0.424436" /><path
           d="m 94,-16.5223 a 11.5,11.5 0 1 1 -23,0 11.5,11.5 0 1 1 23,0 z"
           transform="matrix(0.80761,0,0,0.80761,140.73,552.34)"
           id="path5"
           style="stroke-width:0.424436" /><path
           d="m 11,-37.5223 a 10.5,10.5 0 1 1 -21,0 10.5,10.5 0 1 1 21,0 z"
           transform="matrix(0.76916,0,0,0.76916,187.19,551.3)"
           id="path6"
           style="stroke-width:0.424436" /></g><path
         d="m -29.917522,61.441516 c -2.765001,3.583913 -5.007451,7.614973 -5.007451,12.498361 0,10.585 8.032327,19.314583 17.991667,19.314583 9.959022,0 17.991666,-8.72953 17.991666,-19.314583 0,-4.884341 -2.2460187,-8.787342 -5.1673653,-12.498361 -1.0954385,-1.149517 -2.6769483,-0.978599 -3.8282562,-0.243036 -3.3689395,1.743221 -5.1874475,2.439707 -8.9960445,2.422647 -3.68353,-0.01651 -5.618877,-0.618072 -8.987975,-2.454632 -1.151314,-0.703578 -2.900786,-0.874501 -3.996241,0.275016 z m 2.40088,2.973361 c 3.49205,1.930807 6.606407,2.910417 10.583333,2.910417 3.980286,0 7.0894838,-0.979623 10.5833332,-2.910417 1.9064551,2.688114 3.7041666,6.021361 3.7041666,9.525 0,8.678677 -6.3963814,15.610416 -14.2874998,15.610416 -7.891489,0 -14.552083,-6.931686 -14.552083,-15.610416 0,-3.499009 2.058138,-6.83477 3.96875,-9.525 z"
         fill="#262f45"
         id="path13"
         style="stroke-width:0.112299" /></g></g><metadata
     id="metadata12"><rdf:RDF><cc:Work
         rdf:about=""><dc:description>I haven't done anything to alter the logo and I am not the owner or creator of the design.</dc:description></cc:Work></rdf:RDF></metadata></svg>
