<?xml version="1.0" encoding="UTF-8" standalone="no"?>
<!-- Created with Inkscape (http://www.inkscape.org/) -->

<svg
   width="512"
   height="512"
   viewBox="0 0 135.46666 135.46667"
   version="1.1"
   id="svg5"
   inkscape:version="1.4 (e7c3feb100, 2024-10-09)"
   xml:space="preserve"
   sodipodi:docname="start-here-opensuse.svg"
   xmlns:inkscape="http://www.inkscape.org/namespaces/inkscape"
   xmlns:sodipodi="http://sodipodi.sourceforge.net/DTD/sodipodi-0.dtd"
   xmlns="http://www.w3.org/2000/svg"
   xmlns:svg="http://www.w3.org/2000/svg"
   xmlns:rdf="http://www.w3.org/1999/02/22-rdf-syntax-ns#"
   xmlns:cc="http://creativecommons.org/ns#"
   xmlns:dc="http://purl.org/dc/elements/1.1/"><sodipodi:namedview
     id="namedview7"
     pagecolor="#242424"
     bordercolor="#666666"
     borderopacity="1"
     inkscape:showpageshadow="0"
     inkscape:pageopacity="0"
     inkscape:pagecheckerboard="1"
     inkscape:deskcolor="#000000"
     inkscape:document-units="px"
     showgrid="false"
     inkscape:zoom="1.3037281"
     inkscape:cx="330.5904"
     inkscape:cy="245.83346"
     inkscape:window-width="3256"
     inkscape:window-height="1080"
     inkscape:window-x="1864"
     inkscape:window-y="0"
     inkscape:window-maximized="0"
     inkscape:current-layer="g10" /><defs
     id="defs2" /><g
     inkscape:label="Layer 1"
     inkscape:groupmode="layer"
     id="layer1"><g
       transform="matrix(0.26458333,0,0,0.26458333,-39.39241,-68.659653)"
       fill="#73ba25"
       id="g10"><path
         id="Geeko"
         d="m 607.77698,432.45289 c -5.65648,-0.20372 -11.01932,1.79468 -15.11772,5.63855 -4.09857,3.84388 -6.51641,9.05092 -6.68724,14.68947 -0.39238,11.65154 8.73046,21.45374 20.35535,21.88251 5.65341,0.17083 11.04324,-1.82747 15.16573,-5.67134 4.11651,-3.86181 6.48327,-9.07194 6.66315,-14.68947 0.39238,-11.64847 -8.72739,-21.43667 -20.37927,-21.85006 z m 3.45149,23.0817 c -5.17715,0 -9.3596,-2.80117 -9.3596,-6.23472 0,-3.46636 4.18245,-6.25266 9.3596,-6.25266 5.17699,0 9.37139,2.7863 9.37139,6.25266 0,3.43338 -4.19731,6.23472 -9.37139,6.23472 z m 49.1938,25.16062 c 0.15153,-0.11821 0.50429,-0.42886 0.45832,-0.71606 -1.16964,-7.30904 -12.05878,-42.75546 -20.30068,-51.27956 -2.27093,-2.32184 -4.08952,-4.61087 -7.77162,-6.76496 -29.81557,-17.37447 -100.55194,-27.85963 -103.86592,-28.33965 0,0 -0.33264,-0.0693 -0.5632,0.1558 -0.17903,0.17487 -0.21285,0.51231 -0.21285,0.51231 0,0 -0.27264,14.6565 -0.31449,16.29521 -7.22345,-2.42672 -59.74045,-19.39019 -108.97012,-21.09843 -41.74931,-1.46804 -102.55058,-6.86677 -183.12298,42.67176 l -2.38179,1.483 c -37.90578,23.64371 -64.07596,52.8016 -77.75552,86.67422 -4.29041,10.65974 -10.06066,34.71137 -4.34131,57.3438 2.46276,9.89274 7.0557,19.83434 13.2484,28.73083 13.99729,20.10595 37.48554,33.44728 62.77599,35.70044 35.70898,3.19372 62.74866,-12.84389 72.36603,-42.87503 6.61224,-20.72091 0,-51.12411 -25.34853,-66.6349 -20.61841,-12.62523 -42.78962,-9.75505 -55.65093,-1.24633 -11.15701,7.39718 -17.47526,18.8931 -17.36423,31.51868 0.2576,22.39498 19.54906,34.29797 33.41995,34.33385 4.02955,0 8.07722,-0.70108 12.64009,-2.18706 1.62385,-0.49434 3.1517,-1.10852 4.83551,-2.15118 l 0.52733,-0.30859 0.33259,-0.2217 -0.11103,0.0659 c 3.16075,-2.15409 5.06321,-5.65648 5.06321,-9.41341 0,-1.02462 -0.14349,-2.06423 -0.43748,-3.10984 -1.63871,-5.67135 -7.24121,-9.10183 -13.04751,-8.04426 l -0.78493,0.18575 -1.06065,0.32358 -1.53997,0.53028 c -3.19372,0.78496 -5.58457,0.85387 -6.09687,0.87185 -1.62385,-0.10488 -9.60815,-2.49573 -9.60815,-11.24105 v -0.11992 c 0,-3.21165 1.28835,-5.46465 1.9983,-6.69611 2.48377,-3.89478 9.2846,-7.71765 18.47287,-6.91785 12.05895,1.04261 20.75337,7.22635 26.51183,18.8931 5.3449,10.84559 3.94569,24.18692 -3.60421,33.95974 -7.49898,9.68314 -20.84903,13.79965 -38.60273,11.88814 -17.90403,-1.98036 -33.0373,-12.28359 -41.51528,-28.32086 -8.29605,-15.67803 -8.74839,-34.26552 -1.1715,-48.54467 18.12268,-34.21427 52.35574,-33.85725 71.12585,-30.61331 27.77593,4.81757 59.37489,30.43907 70.58263,60.02573 1.80953,4.71576 2.73232,8.45475 3.53827,11.8731 l 1.21029,5.10814 31.3803,15.32151 c 0.67404,0.32911 0.90188,0.44035 1.17151,0.23974 0.32356,-0.24074 0.13837,-0.90479 0.13837,-0.90479 -0.19474,-0.70106 -0.65016,-1.3482 -1.37513,-10.1295 -0.59635,-7.79263 -1.80971,-29.12714 8.931,-39.69942 4.17049,-4.13154 10.52496,-7.81962 15.54325,-9.00001 20.56717,-5.02427 44.68576,-1.55792 67.4873,24.83605 11.80426,13.63173 17.55897,19.848 20.4476,22.63243 0,0 0.65757,0.62092 1.00666,0.90779 0.38147,0.31346 0.62997,0.57719 1.18637,0.88681 0.95296,0.53027 39.21087,18.14318 39.21087,18.14318 0,0 0.45326,0.22518 0.78784,-0.18874 0.33075,-0.40917 0.0171,-0.8179 0.0171,-0.8179 -0.2547,-0.29063 -24.25525,-31.30857 -19.98295,-56.84841 3.36454,-20.34339 19.55418,-18.50021 41.95087,-15.97167 7.31023,0.85384 15.6331,1.80953 24.25013,2.00137 24.05881,0.15288 49.97276,-4.29024 65.94477,-11.27693 10.33312,-4.49095 16.92743,-7.48105 21.05914,-11.23797 1.486,-1.23137 2.25607,-3.22977 3.05894,-5.38078 l 0.56321,-1.42011 c 0.66809,-1.7436 1.65084,-5.41682 2.08234,-7.43014 0.17373,-0.88682 0.37718,-1.75505 -0.35651,-2.32184 -0.67074,-0.51823 -2.21114,0.41044 -2.21114,0.41044 -7.01368,4.22139 -24.54566,12.21474 -40.93789,12.55622 -20.35194,0.41046 -61.58877,-20.60304 -65.86107,-22.82204 -2.85942,-6.80852 -5.71542,-13.61875 -8.61601,-20.41001 29.50125,19.43802 53.97004,30.18112 72.70085,31.83811 20.85245,1.85754 37.10803,-9.51898 44.16304,-14.25233 0.92355,-0.61401 1.84473,-1.3014 2.6915,-1.96208 z m -83.68993,-27.96213 c 0.29946,-8.0803 3.68194,-15.57929 9.59021,-21.07964 5.91102,-5.51863 13.62268,-8.37087 21.70828,-8.1131 16.67273,0.59621 29.77456,14.67136 29.2023,31.32564 -0.31448,8.0803 -3.69696,15.57929 -9.59021,21.06256 -5.91101,5.5516 -13.60474,8.40384 -21.72706,8.13121 -16.6548,-0.61418 -29.74211,-14.6565 -29.18352,-31.32565 z"
         clip-rule="evenodd"
         fill-rule="evenodd"
         style="stroke-width:1" /></g></g><metadata
     id="metadata1"><rdf:RDF><cc:Work
         rdf:about=""><dc:description>I haven't done anything to alter the logo and I am not the owner or creator of the design.</dc:description></cc:Work></rdf:RDF></metadata></svg>
