<?xml version="1.0" encoding="UTF-8" standalone="no"?>
<!-- Created with Inkscape (http://www.inkscape.org/) -->

<svg
   width="512"
   height="512"
   viewBox="0 0 135.46666 135.46667"
   version="1.1"
   id="svg5"
   inkscape:version="1.4 (e7c3feb100, 2024-10-09)"
   xml:space="preserve"
   sodipodi:docname="start-here-fedora.svg"
   xmlns:inkscape="http://www.inkscape.org/namespaces/inkscape"
   xmlns:sodipodi="http://sodipodi.sourceforge.net/DTD/sodipodi-0.dtd"
   xmlns="http://www.w3.org/2000/svg"
   xmlns:svg="http://www.w3.org/2000/svg"
   xmlns:rdf="http://www.w3.org/1999/02/22-rdf-syntax-ns#"
   xmlns:cc="http://creativecommons.org/ns#"
   xmlns:dc="http://purl.org/dc/elements/1.1/"><sodipodi:namedview
     id="namedview7"
     pagecolor="#242424"
     bordercolor="#666666"
     borderopacity="1"
     inkscape:showpageshadow="0"
     inkscape:pageopacity="0"
     inkscape:pagecheckerboard="1"
     inkscape:deskcolor="#000000"
     inkscape:document-units="px"
     showgrid="false"
     inkscape:zoom="0.921875"
     inkscape:cx="462.1017"
     inkscape:cy="407.32203"
     inkscape:window-width="3256"
     inkscape:window-height="1080"
     inkscape:window-x="1864"
     inkscape:window-y="0"
     inkscape:window-maximized="0"
     inkscape:current-layer="layer1" /><defs
     id="defs2" /><g
     inkscape:label="Layer 1"
     inkscape:groupmode="layer"
     id="layer1"><g
       id="g3"
       transform="matrix(1.9230167,0,0,1.9230167,-61.5014,-63.027793)"
       style="stroke-width:0.520016"><path
         d="m 102.42702,67.999537 c 0,-19.453449 -15.770101,-35.224058 -35.223405,-35.224058 -19.444557,0 -35.208508,15.757366 -35.222304,35.199219 v 27.257653 c 0.01046,4.414395 3.590714,7.987999 8.007885,7.987999 h 27.228707 c 19.446808,-0.008 35.209117,-15.772538 35.209117,-35.220813"
         id="voice"
         style="color:#000000;font-style:normal;font-variant:normal;font-weight:normal;font-stretch:normal;font-size:medium;line-height:normal;font-family:sans-serif;font-variant-ligatures:normal;font-variant-position:normal;font-variant-caps:normal;font-variant-numeric:normal;font-variant-alternates:normal;font-variant-east-asian:normal;font-feature-settings:normal;font-variation-settings:normal;text-indent:0;text-align:start;text-decoration-line:none;text-decoration-style:solid;text-decoration-color:#000000;letter-spacing:normal;word-spacing:normal;text-transform:none;writing-mode:lr-tb;direction:ltr;text-orientation:mixed;dominant-baseline:auto;baseline-shift:baseline;text-anchor:start;white-space:normal;shape-padding:0;shape-margin:0;inline-size:0;clip-rule:nonzero;display:inline;overflow:visible;visibility:visible;isolation:auto;mix-blend-mode:normal;color-interpolation:sRGB;color-interpolation-filters:linearRGB;solid-color:#000000;solid-opacity:1;vector-effect:none;fill:#294172;fill-opacity:1;fill-rule:nonzero;stroke:none;stroke-width:0.137587;stroke-linecap:butt;stroke-linejoin:miter;stroke-miterlimit:4;stroke-dasharray:none;stroke-dashoffset:0;stroke-opacity:1;-inkscape-stroke:none;color-rendering:auto;image-rendering:auto;shape-rendering:auto;text-rendering:auto;enable-background:accumulate;stop-color:#000000" /><path
         id="in"
         style="display:inline;fill:#3c6eb4;stroke-width:0.137587"
         d="m 77.545653,41.115319 c -9.078521,0 -16.523539,7.444504 -16.523539,16.523023 v 8.770007 h -8.733317 c -9.078526,0 -16.523539,7.444498 -16.523539,16.523022 0,9.078518 7.445016,16.523539 16.523539,16.523539 9.07852,0 16.523023,-7.445021 16.523023,-16.523539 v -8.770007 h 8.733833 c 9.078526,0 16.523023,-7.444499 16.523023,-16.523022 0,-9.078519 -7.444502,-16.523023 -16.523023,-16.523023 z m 0,7.728211 c 4.896932,0 8.794295,3.897887 8.794295,8.794812 0,4.896932 -3.897366,8.794811 -8.794295,8.794811 H 68.81182 v -0.0248 h -0.06098 v -8.770007 c 0,-4.896925 3.897882,-8.794812 8.794812,-8.794812 z M 52.288797,74.137076 h 8.733317 v 0.02429 h 0.06098 v 8.770007 c 0,4.896924 -3.897366,8.794812 -8.794296,8.794812 -4.896933,0 -8.794812,-3.897888 -8.794812,-8.794812 0,-4.896932 3.897882,-8.794295 8.794812,-8.794295 z" /><path
         id="free"
         style="color:#000000;font-style:normal;font-variant:normal;font-weight:normal;font-stretch:normal;font-size:medium;line-height:normal;font-family:sans-serif;font-variant-ligatures:normal;font-variant-position:normal;font-variant-caps:normal;font-variant-numeric:normal;font-variant-alternates:normal;font-variant-east-asian:normal;font-feature-settings:normal;font-variation-settings:normal;text-indent:0;text-align:start;text-decoration-line:none;text-decoration-style:solid;text-decoration-color:#000000;letter-spacing:normal;word-spacing:normal;text-transform:none;writing-mode:lr-tb;direction:ltr;text-orientation:mixed;dominant-baseline:auto;baseline-shift:baseline;text-anchor:start;white-space:normal;shape-padding:0;shape-margin:0;inline-size:0;clip-rule:nonzero;display:inline;overflow:visible;visibility:visible;isolation:auto;mix-blend-mode:normal;color-interpolation:sRGB;color-interpolation-filters:linearRGB;solid-color:#000000;solid-opacity:1;vector-effect:none;fill:#ffffff;fill-opacity:1;fill-rule:nonzero;stroke:none;stroke-width:0.137587;stroke-linecap:butt;stroke-linejoin:miter;stroke-miterlimit:4;stroke-dasharray:none;stroke-dashoffset:0;stroke-opacity:1;-inkscape-stroke:none;color-rendering:auto;image-rendering:auto;shape-rendering:auto;text-rendering:auto;enable-background:accumulate;stop-color:#000000"
         d="m 77.545137,41.125138 c -9.129512,0 -16.531291,7.401586 -16.531291,16.530774 v 8.762255 h -6.923091 c -2.15881,0 -3.903705,1.69653 -3.902605,3.851445 0,2.141599 1.726032,3.845243 3.86178,3.845243 l 5.73195,10e-4 c 0.680519,0 1.232483,0.550515 1.232483,1.229899 v 7.581966 c -0.0084,4.813194 -3.912369,8.711613 -8.725566,8.711613 -1.630429,0 -2.034158,-0.213424 -3.147094,-0.213424 -2.338369,0 -3.902604,1.567705 -3.902604,3.72277 6.35e-4,1.782916 1.528193,3.31569 3.397725,3.804936 1.282134,0.335145 2.266895,0.491443 3.651973,0.491443 9.129511,0 16.531291,-7.402102 16.531291,-16.531291 v -8.761739 h 6.923608 c 2.158809,0 3.903188,-1.696529 3.902088,-3.851444 0,-2.141598 -1.725514,-3.845244 -3.861263,-3.845244 l -5.732467,-0.001 c -0.680519,0 -1.232483,-0.550515 -1.232483,-1.229899 v -7.581966 c 0.0084,-4.813194 3.912369,-8.71213 8.725566,-8.71213 1.630428,0 2.034676,0.213941 3.147611,0.213941 2.338369,0 3.902604,-1.567705 3.902604,-3.722771 -6.35e-4,-1.782916 -1.528709,-3.315688 -3.398242,-3.804935 -1.282133,-0.335145 -2.266896,-0.491443 -3.651973,-0.491443 z" /></g></g><metadata
     id="metadata3"><rdf:RDF><cc:Work
         rdf:about=""><dc:description>I haven't done anything to alter the logo and I am not the owner or creator of the design.</dc:description></cc:Work></rdf:RDF></metadata></svg>
