<?xml version="1.0" encoding="UTF-8" standalone="no"?>
<!-- Created with Inkscape (http://www.inkscape.org/) -->

<svg
   width="512"
   height="512"
   viewBox="0 0 135.46666 135.46667"
   version="1.1"
   id="svg5"
   inkscape:version="1.4 (e7c3feb100, 2024-10-09)"
   xml:space="preserve"
   sodipodi:docname="start-here-solus.svg"
   xmlns:inkscape="http://www.inkscape.org/namespaces/inkscape"
   xmlns:sodipodi="http://sodipodi.sourceforge.net/DTD/sodipodi-0.dtd"
   xmlns="http://www.w3.org/2000/svg"
   xmlns:svg="http://www.w3.org/2000/svg"
   xmlns:rdf="http://www.w3.org/1999/02/22-rdf-syntax-ns#"
   xmlns:cc="http://creativecommons.org/ns#"
   xmlns:dc="http://purl.org/dc/elements/1.1/"><sodipodi:namedview
     id="namedview7"
     pagecolor="#242424"
     bordercolor="#666666"
     borderopacity="1"
     inkscape:showpageshadow="0"
     inkscape:pageopacity="0"
     inkscape:pagecheckerboard="1"
     inkscape:deskcolor="#000000"
     inkscape:document-units="px"
     showgrid="false"
     inkscape:zoom="1.375"
     inkscape:cx="217.45455"
     inkscape:cy="240.36364"
     inkscape:window-width="3256"
     inkscape:window-height="1080"
     inkscape:window-x="1864"
     inkscape:window-y="0"
     inkscape:window-maximized="0"
     inkscape:current-layer="layer1" /><defs
     id="defs2" /><g
     inkscape:label="Layer 1"
     inkscape:groupmode="layer"
     id="layer1"><circle
       style="fill:#4c5263;fill-opacity:1;stroke:none;stroke-width:2.98616;stroke-miterlimit:4;stroke-dasharray:none;stroke-opacity:1"
       id="circle4804-0"
       cx="65.680809"
       cy="69.753838"
       r="65.680801"
       inkscape:export-xdpi="90"
       inkscape:export-ydpi="90" /><path
       style="color:#000000;font-style:normal;font-variant:normal;font-weight:normal;font-stretch:normal;font-size:medium;line-height:normal;font-family:sans-serif;text-indent:0;text-align:start;text-decoration:none;text-decoration-line:none;text-decoration-style:solid;text-decoration-color:#000000;letter-spacing:normal;word-spacing:normal;text-transform:none;writing-mode:lr-tb;direction:ltr;baseline-shift:baseline;text-anchor:start;white-space:normal;clip-rule:nonzero;display:inline;overflow:visible;visibility:visible;isolation:auto;mix-blend-mode:normal;color-interpolation:sRGB;color-interpolation-filters:linearRGB;solid-color:#000000;solid-opacity:1;fill:#4c5263;fill-opacity:1;fill-rule:evenodd;stroke:none;stroke-width:4.29815;stroke-linecap:butt;stroke-linejoin:miter;stroke-miterlimit:4;stroke-dasharray:none;stroke-dashoffset:0;stroke-opacity:1;color-rendering:auto;image-rendering:auto;shape-rendering:auto;text-rendering:auto;enable-background:accumulate"
       d="M 42.076775,-0.03203399 C 32.193066,32.252956 17.582627,62.977257 1.026261,92.3316 L -1.5874459e-6,94.384125 1.582054,95.19944 c 1.388872,0.644811 3.217282,1.078417 5.6925453,1.573465 2.4752735,0.495049 5.5201227,0.988455 8.9417127,1.477254 6.843202,0.977597 15.18684,1.933131 23.281332,2.774121 16.188995,1.68197 31.385194,2.90841 31.385194,2.90841 l 2.585699,0.20846 -0.198428,-2.58771 c 0,0 -4.009557,-52.164834 -4.758492,-60.735902 L 68.47149,40.354519 68.246995,39.945615 C 63.501813,32.367815 45.06986,0.86046554 42.076775,-0.03203399 Z M 44.12929,9.2043294 C 51.136632,21.531652 57.190298,28.521024 64.654542,42.044733 65.399311,50.663399 68.331621,95.162853 68.647915,99.27442 66.433692,99.09347 54.744263,98.153146 39.954649,96.616565 31.891909,95.778867 23.58731,94.827861 16.843698,93.864487 13.471902,93.382811 10.488915,92.896198 8.144521,92.42732 6.9878102,92.195979 6.9623999,91.523398 6.157574,91.305337 18.249647,69.940059 37.457383,36.433416 44.12929,9.2043294 Z"
       id="path4806-5"
       inkscape:connector-curvature="0"
       sodipodi:nodetypes="ccccsssccccccccccssscc" /><path
       style="color:#000000;font-style:normal;font-variant:normal;font-weight:normal;font-stretch:normal;font-size:medium;line-height:normal;font-family:sans-serif;text-indent:0;text-align:start;text-decoration:none;text-decoration-line:none;text-decoration-style:solid;text-decoration-color:#000000;letter-spacing:normal;word-spacing:normal;text-transform:none;writing-mode:lr-tb;direction:ltr;baseline-shift:baseline;text-anchor:start;white-space:normal;clip-rule:nonzero;display:inline;overflow:visible;visibility:visible;isolation:auto;mix-blend-mode:normal;color-interpolation:sRGB;color-interpolation-filters:linearRGB;solid-color:#000000;solid-opacity:1;fill:#ffffff;fill-opacity:1;fill-rule:evenodd;stroke:none;stroke-width:4.29815;stroke-linecap:butt;stroke-linejoin:miter;stroke-miterlimit:4;stroke-dasharray:none;stroke-dashoffset:0;stroke-opacity:1;color-rendering:auto;image-rendering:auto;shape-rendering:auto;text-rendering:auto;enable-background:accumulate"
       d="m 129.9685,83.249997 c -9.59115,12.938985 -27.30801,19.854123 -48.414389,22.920763 -22.020783,3.1995 -47.555192,2.24885 -70.338899,0.30267 1.091245,1.6301 2.288996,3.21051 3.521702,4.73644 21.932874,1.73888 46.09752,2.44958 67.454599,-0.65344 17.812147,-2.58801 33.907327,-7.83873 44.949397,-17.596798 1.20485,-3.137377 2.1956,-6.612528 2.82759,-9.709635 z"
       id="path4808-8"
       inkscape:connector-curvature="0"
       sodipodi:nodetypes="csccscc" /><path
       style="color:#000000;font-style:normal;font-variant:normal;font-weight:normal;font-stretch:normal;font-size:medium;line-height:normal;font-family:sans-serif;text-indent:0;text-align:start;text-decoration:none;text-decoration-line:none;text-decoration-style:solid;text-decoration-color:#000000;letter-spacing:normal;word-spacing:normal;text-transform:none;writing-mode:lr-tb;direction:ltr;baseline-shift:baseline;text-anchor:start;white-space:normal;clip-rule:nonzero;display:inline;overflow:visible;visibility:visible;isolation:auto;mix-blend-mode:normal;color-interpolation:sRGB;color-interpolation-filters:linearRGB;solid-color:#000000;solid-opacity:1;fill:#4c5263;fill-opacity:1;fill-rule:evenodd;stroke:none;stroke-width:4.29815;stroke-linecap:butt;stroke-linejoin:miter;stroke-miterlimit:4;stroke-dasharray:none;stroke-dashoffset:0;stroke-opacity:1;color-rendering:auto;image-rendering:auto;shape-rendering:auto;text-rendering:auto;enable-background:accumulate"
       d="m 76.969693,48.202308 -1.055757,4.617689 c 10.312492,6.897953 20.140209,12.920513 26.522474,19.324607 6.38226,6.404105 9.37302,12.706363 6.94732,21.531472 l -1.13049,4.119079 4.01885,-1.447184 c 12.55682,-4.518018 18.52322,-13.27287 22.16831,-20.436573 l 1.02626,-2.052525 -2.05252,-2.052525 C 127.2944,65.361696 117.84174,61.090104 106.8742,57.201656 95.90664,53.313219 83.961631,49.888324 76.969693,48.202308 Z m 12.249573,8.159506 c 5.104015,1.402717 10.664326,3.063774 16.173664,5.017059 9.99643,3.544147 19.46064,8.101276 24.80869,13.026721 -3.05798,5.639221 -7.72162,12.143345 -15.76676,16.18568 0.86257,-8.437798 -2.85539,-15.548874 -8.85953,-21.573559 -4.43191,-4.447073 -10.219465,-8.543687 -16.356064,-12.655901 z"
       id="path4810-6"
       inkscape:connector-curvature="0"
       sodipodi:nodetypes="ccsccccccsccsccsc" /><circle
       inkscape:export-ydpi="90"
       inkscape:export-xdpi="90"
       r="65.757835"
       cy="69.676788"
       cx="65.757851"
       id="circle4812-0"
       style="fill:#500000;fill-opacity:0;stroke:none;stroke-width:2.98616;stroke-miterlimit:4;stroke-dasharray:none;stroke-opacity:1" /><path
       style="fill:#5294e2;fill-opacity:1;stroke:none;stroke-width:2.98616;stroke-miterlimit:4;stroke-dasharray:none;stroke-opacity:1"
       d="m 82.187459,110.55438 c -22.318892,3.14935 -45.053113,2.36854 -67.450545,0.65549 14.41315,18.38086 39.463101,27.64365 62.601988,23.17917 22.331617,-3.83846 41.905748,-20.19241 49.790778,-41.410032 -13.26125,9.406742 -28.928871,15.116062 -44.942221,17.575372 z"
       id="path4814-1"
       inkscape:connector-curvature="0"
       sodipodi:nodetypes="ccccc" /><path
       inkscape:export-ydpi="90"
       inkscape:export-xdpi="90"
       sodipodi:nodetypes="cccc"
       inkscape:connector-curvature="0"
       id="path4816-6"
       d="m 69.785855,44.097258 c 9.891653,20.376875 9.900602,40.536439 4.105051,55.41818 8.160614,0.04936 21.477305,0.964452 35.919194,-6.157575 C 97.940046,66.254647 69.785845,44.097258 69.785855,44.097258 Z"
       style="fill:#ffffff;fill-opacity:1;fill-rule:evenodd;stroke:none;stroke-width:0.995386px;stroke-linecap:butt;stroke-linejoin:miter;stroke-opacity:1" /><path
       style="fill:#ffffff;fill-opacity:1;fill-rule:evenodd;stroke:none;stroke-width:4.29815;stroke-linecap:butt;stroke-linejoin:miter;stroke-miterlimit:4;stroke-dasharray:none;stroke-opacity:1"
       d="M 44.12929,9.2043294 C 37.457095,36.433242 18.249462,69.940356 6.157574,91.305337 l 10.688135,2.561162 c 6.743602,0.963363 15.048201,1.91437 23.110951,2.752067 14.788578,1.536469 26.587221,2.715798 28.802933,2.896872 C 68.443093,95.401264 65.399465,50.665482 64.654542,42.044733 57.190298,28.521024 51.136632,21.531652 44.12929,9.2043294 Z"
       id="path4819-6"
       inkscape:connector-curvature="0"
       sodipodi:nodetypes="cccsccc" /><path
       style="fill:#ffffff;fill-opacity:1;fill-rule:evenodd;stroke:none;stroke-width:4.29815;stroke-linecap:butt;stroke-linejoin:miter;stroke-miterlimit:4;stroke-dasharray:none;stroke-opacity:1"
       d="m 89.284845,56.412409 c 6.138384,4.113281 11.987175,7.86696 16.420205,12.315151 6.0037,6.024264 9.07195,14.140739 8.2101,22.577777 8.04419,-4.041884 13.36219,-10.781422 16.4202,-16.420201 -5.34829,-4.925055 -14.63455,-9.797503 -24.6303,-13.341414 -5.51164,-1.954096 -11.314487,-3.728238 -16.420205,-5.131313 z"
       id="path4821-7"
       inkscape:connector-curvature="0"
       sodipodi:nodetypes="csccsc" /></g><metadata
     id="metadata1"><rdf:RDF><cc:Work
         rdf:about=""><dc:description>I haven't done anything to alter the logo and I am not the owner or creator of the design.</dc:description></cc:Work></rdf:RDF></metadata></svg>
