<?xml version="1.0" encoding="UTF-8" standalone="no"?>
<!-- Created with Inkscape (http://www.inkscape.org/) -->

<svg
   width="512"
   height="512"
   viewBox="0 0 135.46666 135.46667"
   version="1.1"
   id="svg5"
   inkscape:version="1.4 (e7c3feb100, 2024-10-09)"
   sodipodi:docname="start-here-slackware.svg"
   xmlns:inkscape="http://www.inkscape.org/namespaces/inkscape"
   xmlns:sodipodi="http://sodipodi.sourceforge.net/DTD/sodipodi-0.dtd"
   xmlns="http://www.w3.org/2000/svg"
   xmlns:svg="http://www.w3.org/2000/svg"
   xmlns:rdf="http://www.w3.org/1999/02/22-rdf-syntax-ns#"
   xmlns:cc="http://creativecommons.org/ns#"
   xmlns:dc="http://purl.org/dc/elements/1.1/">
  <sodipodi:namedview
     id="namedview7"
     pagecolor="#242424"
     bordercolor="#666666"
     borderopacity="1"
     inkscape:showpageshadow="0"
     inkscape:pageopacity="0"
     inkscape:pagecheckerboard="1"
     inkscape:deskcolor="#000000"
     inkscape:document-units="px"
     showgrid="false"
     inkscape:zoom="0.921875"
     inkscape:cx="363.38983"
     inkscape:cy="295.59322"
     inkscape:window-width="3256"
     inkscape:window-height="1080"
     inkscape:window-x="1864"
     inkscape:window-y="0"
     inkscape:window-maximized="0"
     inkscape:current-layer="layer1" />
  <defs
     id="defs2" />
  <g
     inkscape:label="Layer 1"
     inkscape:groupmode="layer"
     id="layer1">
    <path
       style="font-style:normal;font-variant:normal;font-weight:normal;font-stretch:normal;font-size:59.9548px;font-family:'Courier 10 Pitch';-inkscape-font-specification:'Courier 10 Pitch';fill:#4962ae;fill-opacity:1;stroke:none;stroke-width:0.472953px;stroke-linecap:butt;stroke-linejoin:miter;stroke-opacity:1"
       d="m 28.18297,93.359179 c 0,6.746241 2.82909,10.228191 7.834336,10.228191 2.393846,0 5.875755,-1.74098 10.881031,-5.005278 11.969128,3.046668 22.632559,4.787628 32.207828,4.787628 26.549705,0 41.565535,-13.274843 41.565535,-31.554977 0,-20.891545 -14.58059,-29.161126 -42.653624,-29.814005 -20.891547,-0.435229 -33.07831,-1.523338 -33.07831,-12.839613 0,-8.487186 8.051973,-15.668671 22.197277,-15.668671 11.098638,0 18.93301,2.611454 26.984949,9.792947 6.311008,5.658119 8.487218,11.098638 13.274858,11.098638 5.22291,0 7.18148,-3.699585 7.18148,-10.663434 V 11.316238 c 0,-7.181449 -2.39381,-10.66339668 -7.18148,-10.66339668 -5.65812,0 -7.834336,4.13478908 -10.881044,4.13478908 C 93.469147,4.7876304 84.981917,-3.2787696e-8 69.530896,-3.2787696e-8 43.19883,-3.2787696e-8 28.618206,12.186762 28.618206,29.814005 c 0,18.932976 15.451111,29.378771 44.394592,29.378771 3.046703,0 5.005278,0 6.093367,0 16.103914,0 23.938285,3.046697 23.938285,13.927699 0,9.575309 -9.57534,16.539158 -25.026374,16.539158 -14.362942,0 -26.549705,-5.222883 -32.207825,-12.621975 -4.134789,-5.44052 -3.481945,-11.316275 -10.010553,-11.316275 -5.658116,0 -7.616728,3.046695 -7.616728,8.704822 v 18.932974"
       id="sFromSlackware" />
    <path
       id="cornerLine"
       d="m 0,46.412247 v 73.284363 15.77005 h 15.677289 l 119.789371,0 v -15.77005 l -119.789371,0 V 46.412247 Z"
       style="fill:#4962ae;stroke-width:0.472953;fill-opacity:1"
       sodipodi:nodetypes="ccccccccc" />
  </g>
  <metadata
     id="metadata1">
    <rdf:RDF>
      <cc:Work
         rdf:about="">
        <dc:description>I have altered the logo  as little as possible and I am not the owner or creator of the design.</dc:description>
      </cc:Work>
    </rdf:RDF>
  </metadata>
</svg>
