<?xml version="1.0" encoding="UTF-8" standalone="no"?>
<!-- Created with Inkscape (http://www.inkscape.org/) -->

<svg
   width="512"
   height="512"
   viewBox="0 0 135.46666 135.46667"
   version="1.1"
   id="svg5"
   inkscape:version="1.4 (e7c3feb100, 2024-10-09)"
   xml:space="preserve"
   sodipodi:docname="start-here-pop_os.svg"
   xmlns:inkscape="http://www.inkscape.org/namespaces/inkscape"
   xmlns:sodipodi="http://sodipodi.sourceforge.net/DTD/sodipodi-0.dtd"
   xmlns="http://www.w3.org/2000/svg"
   xmlns:svg="http://www.w3.org/2000/svg"
   xmlns:rdf="http://www.w3.org/1999/02/22-rdf-syntax-ns#"
   xmlns:cc="http://creativecommons.org/ns#"
   xmlns:dc="http://purl.org/dc/elements/1.1/"><sodipodi:namedview
     id="namedview7"
     pagecolor="#242424"
     bordercolor="#666666"
     borderopacity="1"
     inkscape:showpageshadow="0"
     inkscape:pageopacity="0"
     inkscape:pagecheckerboard="1"
     inkscape:deskcolor="#000000"
     inkscape:document-units="px"
     showgrid="false"
     inkscape:zoom="1.3037281"
     inkscape:cx="237.77964"
     inkscape:cy="280.34986"
     inkscape:window-width="3256"
     inkscape:window-height="1080"
     inkscape:window-x="1864"
     inkscape:window-y="0"
     inkscape:window-maximized="0"
     inkscape:current-layer="layer1" /><defs
     id="defs2">
	
	
	

		
		
	
		
		
	</defs><g
     inkscape:label="Layer 1"
     inkscape:groupmode="layer"
     id="layer1"><g
       id="g1"
       transform="matrix(2.5599999,0,0,2.5599999,-104.30932,-106.34133)"
       style="stroke-width:0.390625"><circle
         id="circle4"
         class="st0"
         cx="67.204163"
         cy="67.997917"
         r="26.458334"
         style="stroke-width:0.0218505" /><path
         id="rect6"
         class="st1"
         d="m 55.289526,82.09411 h 23.829281 c 1.141121,0 2.06968,0.928559 2.06968,2.06968 v 0.167812 c 0,1.14112 -0.928559,2.069679 -2.06968,2.069679 H 55.289526 c -1.141121,0 -2.069679,-0.928559 -2.069679,-2.069679 V 84.16379 c 0,-1.146714 0.922965,-2.06968 2.069679,-2.06968 z"
         style="stroke-width:0.0218505" /><path
         id="path10"
         inkscape:connector-curvature="0"
         class="st1"
         d="m 70.728215,61.453254 c -1.342494,2.852801 -3.579986,5.14623 -6.712473,6.264976 l 2.684989,6.99216 c 0.503436,1.286557 0.950934,2.629052 0.559373,3.859672 -0.391561,1.23062 -2.181554,1.622181 -3.468111,0.279686 -2.461241,-2.629052 -10.739958,-19.186487 -11.355268,-20.417107 -0.61531,-1.23062 -1.286558,-2.237491 -1.286558,-3.468111 0.05594,-1.845931 2.908739,-3.747798 4.307171,-4.698732 1.398432,-0.950934 4.139359,-2.237491 6.544662,-2.293428 2.405303,-0.05594 3.412174,0.503435 4.810606,1.398432 2.125616,1.398432 3.635923,3.579986 4.195296,6.097163 0.559372,2.517178 0.391561,4.474983 -0.279687,5.873415 m -6.320912,-3.020614 c -0.503436,-1.734055 -1.566244,-3.412174 -2.964676,-4.530919 -0.279687,-0.223749 -0.61531,-0.503436 -1.006871,-0.61531 -2.573115,-0.839059 -1.45437,3.468111 -1.062809,4.586857 0.391561,1.118745 1.45437,3.468111 2.629053,4.642794 0.279686,0.279686 0.559372,0.503435 0.894996,0.559373 0.335624,0.05594 1.006871,-0.279687 1.286558,-0.727185 0.279686,-0.447498 0.335623,-0.783122 0.335623,-1.23062 0.128656,-0.894997 0.0895,-1.806774 -0.111874,-2.68499 z"
         style="stroke-width:0.0218505" /><path
         id="path12"
         inkscape:connector-curvature="0"
         class="st1"
         d="m 75.706633,78.625999 c -0.111874,0.503436 -0.391561,0.950934 -0.839059,1.23062 -0.447498,0.279687 -1.510307,0.279687 -2.125617,-0.223749 -0.61531,-0.503435 -0.727184,-1.342495 -0.559372,-2.013742 0.167811,-0.671247 0.727184,-1.398432 1.510306,-1.622181 1.622181,-0.503436 2.349366,1.286557 2.013742,2.629052 z"
         style="stroke-width:0.0218505" /><path
         id="path14"
         inkscape:connector-curvature="0"
         class="st1"
         d="m 74.699762,73.535707 c -1.006871,-0.391561 -0.671247,-5.76154 0.279687,-12.306202 0.279686,-1.789993 0.727184,-2.684989 1.23062,-3.132488 0.503435,-0.447498 2.013742,-0.671247 2.908738,-0.503435 1.029246,0.15103 1.985774,0.620904 2.740927,1.342495 0.671247,0.61531 0.727185,1.286557 0.503436,2.125616 -0.22375,0.839059 -1.006872,2.629052 -1.622182,3.91561 l -1.566243,2.964676 c -3.020614,5.369979 -3.635924,5.929351 -4.474983,5.593728 z"
         style="stroke-width:0.0218505" /></g></g><style
     type="text/css"
     id="style1">
	.st0{fill:#48B9C7;}
	.st1{fill:#FFFFFF;}
</style><metadata
     id="metadata1"><rdf:RDF><cc:Work
         rdf:about=""><dc:description>I haven't done anything to alter the logo and I am not the owner or creator of the design.</dc:description></cc:Work></rdf:RDF></metadata></svg>
