/* XPM */
static char *adobe_flash_png_ico_1[] = {
/* columns rows colors chars-per-pixel */
"24 24 200 2 ",
"   c None",
".  c #5A0005",
"X  c #5B0005",
"o  c #5C0006",
"O  c #5D0106",
"+  c #5F0207",
"@  c #610308",
"#  c #640309",
"$  c #63040A",
"%  c #64040A",
"&  c #65040A",
"*  c #66040A",
"=  c #67060C",
"-  c #68070D",
";  c #69080E",
":  c #6A090F",
">  c #6B0A10",
",  c #6C0B11",
"<  c #6D0C12",
"1  c #6E0D13",
"2  c #6F0E14",
"3  c #711016",
"4  c #721117",
"5  c #731218",
"6  c #75141A",
"7  c #76151B",
"8  c #77161C",
"9  c #78171D",
"0  c #79181E",
"q  c #7A191F",
"w  c #7B1A20",
"e  c #7C1B21",
"r  c #7B1C22",
"t  c #7D1C22",
"y  c #7E1D23",
"u  c #7F1D23",
"i  c #7E1E24",
"p  c #7F1E24",
"a  c #7E1F24",
"s  c #801E24",
"d  c #801F25",
"f  c #812026",
"g  c #822127",
"h  c #832127",
"j  c #832228",
"k  c #842329",
"l  c #852329",
"z  c #83262B",
"x  c #85242A",
"c  c #86242A",
"v  c #86252B",
"b  c #87262C",
"n  c #86272D",
"m  c #88262C",
"M  c #88272D",
"N  c #89272D",
"B  c #89282E",
"V  c #8A282E",
"C  c #8A292F",
"Z  c #8B292F",
"A  c #8B2A30",
"S  c #8C2B31",
"D  c #8D2B32",
"F  c #8D2C32",
"G  c #8E2D33",
"H  c #8F2E34",
"J  c #902F35",
"K  c #89353A",
"L  c #8B363C",
"P  c #8D383E",
"I  c #8E3A3F",
"U  c #913036",
"Y  c #923137",
"T  c #933238",
"R  c #943339",
"E  c #95343A",
"W  c #96353B",
"Q  c #97353B",
"!  c #96363C",
"~  c #97363C",
"^  c #98363C",
"/  c #98373D",
"(  c #99373D",
")  c #90393E",
"_  c #99383E",
"`  c #9A393F",
"'  c #903A40",
"]  c #903C41",
"[  c #923D43",
"{  c #943C41",
"}  c #953C41",
"|  c #963C41",
" . c #953E43",
".. c #933E44",
"X. c #9C3A40",
"o. c #9C3B41",
"O. c #983C42",
"+. c #993C42",
"@. c #9A3C42",
"#. c #9B3C42",
"$. c #9C3C42",
"%. c #9D3C42",
"&. c #9E3C42",
"*. c #9E3D43",
"=. c #983E44",
"-. c #9F3E44",
";. c #A03F45",
":. c #A13F45",
">. c #974045",
",. c #984147",
"<. c #9F4147",
"1. c #9E4348",
"2. c #A14046",
"3. c #A04147",
"4. c #A24147",
"5. c #A34147",
"6. c #A34248",
"7. c #A44349",
"8. c #A54349",
"9. c #A3454A",
"0. c #A5444A",
"q. c #A6454B",
"w. c #A7454B",
"e. c #A7464C",
"r. c #A8474D",
"t. c #A6484E",
"y. c #A6494E",
"u. c #A9484E",
"i. c #AA494F",
"p. c #A14B50",
"a. c #A04F54",
"s. c #A94B51",
"d. c #AB4A50",
"f. c #AD4A50",
"g. c #AC4B51",
"h. c #AC4D53",
"j. c #AE4D53",
"k. c #AF4E54",
"l. c #B04E54",
"z. c #B04F55",
"x. c #B14F55",
"c. c #A55157",
"v. c #AE5055",
"b. c #AF5157",
"n. c #A3565B",
"m. c #AE555A",
"M. c #A1585C",
"N. c #B15056",
"B. c #B25157",
"V. c #B05258",
"C. c #B2555B",
"Z. c #B1575D",
"A. c #B1595E",
"S. c #B9595F",
"D. c #B75F65",
"F. c #BB5C62",
"G. c #B06267",
"H. c #B56267",
"J. c #B3666A",
"K. c #B4676C",
"L. c #B86368",
"P. c #B8656A",
"I. c #BB676C",
"U. c #BC6E73",
"Y. c #BC7579",
"T. c #C0787D",
"R. c #C07D81",
"E. c #C37F83",
"W. c #C28689",
"Q. c #C38689",
"!. c #C68B8E",
"~. c #C18E91",
"^. c #C98E91",
"/. c #C98F92",
"(. c #C49194",
"). c #C69396",
"_. c #C29497",
"`. c #C59497",
"'. c #CC9094",
"]. c #CE9396",
"[. c #CE9397",
"{. c #C89598",
"}. c #CA979A",
"|. c #CB989B",
" X c #CB999C",
".X c #D09498",
"XX c #D09598",
"oX c #C99EA1",
"OX c #CC9FA2",
"+X c #CAA1A3",
"@X c #CCA0A2",
"#X c #CBA2A4",
"$X c #CEA1A4",
"%X c #CFA1A4",
"&X c #CDA3A6",
"*X c #CEA4A7",
"=X c #CFA5A8",
"-X c #CFA6A8",
";X c #D1A4A7",
":X c #D3A7AA",
/* pixels */
"  r y y i s s s i i s s s s s s s s s s i i r   ",
"i n )  .>.,.=.! M.n.W W W W W W W W W R U G c i ",
"f ' _.@XOX&XQ.y.`./.e.e.e.e.e.e.e.q.q.8.;.^ D f ",
"f ..-XE.L.I.D.b.}.[.k.k.k.k.k.k.k.k.k.f.e.*.G l ",
"l ..-XU.f.l.l.V. X.XB.B.B.B.B.B.B.B.B.k.i.-.G c ",
"c [ -XY.m.A.C.b.|..XB.B.B.B.B.B.B.B.l.h.i.*.G n ",
"m [ *X:X&X;XT.h.}.[.h.h.h.h.h.h.h.h.h.f.q.o.A m ",
"m I &XE.H.P.Z.s.}.[.i.i.i.i.s.s.s.s.s.r.6._ V V ",
"V I #XK.4.q.e.y.)./.q.q.q.q.q.e.r.r.e.q.;.! n A ",
"V L +XJ.;.8.8.9.).!.;.-.-.;.4.6.8.q.8.4.*.R c D ",
"D K oXG.*.4.4.<.~.Q._ ! ! _ o.*.;.4.4.-._ U j G ",
"G z a.1.o.*.*.*.c.p.U G G U W _ o.*.*.o.! H s G ",
"H y V R _ _ _ ! U D m c c m G T ! _ _ _ R D y H ",
"J e V U W ! W U G c s e e s c G U W ! W U V e J ",
"U q n G U T J D c i 9 6 6 9 i c D J T U G n q U ",
"T 9 l A G G A c i 9 4 2 2 4 9 i c A G G A l 9 T ",
"R 6 f m A V c s q 5 1 > > 1 5 q s c V A m f 6 R ",
"W 5 i c n c f w 6 2 > ; ; > 2 6 w f c n c i 5 W ",
"W 4 w f j f e 8 4 1 ; - - ; 1 4 8 e f j f w 4 W ",
"^ 1 8 e y w 8 5 1 > ; - - ; > 1 5 8 w y e 8 1 ^ ",
"^ > 4 8 8 6 4 1 > ; - = = - ; > 1 4 6 8 8 5 > ^ ",
"*.= , 2 2 1 > ; = & & # # & & = ; > 1 2 2 , = *.",
"S.y & & & $ @ + + + . . . . + + + @ $ & & & y S.",
"  F.4.O.O.O.O. . . . . . . . . . .O.O.O.O.4.F.  "
};
