/* XPM */
static char *adobe_illustrator_png_ico_5[] = {
/* columns rows colors chars-per-pixel */
"72 72 169 2 ",
"   c None",
".  c #1E1A01",
"X  c #221E00",
"o  c #262100",
"O  c #2B2500",
"+  c #2E2800",
"@  c #332D00",
"#  c #342F08",
"$  c #373000",
"%  c #3C3400",
"&  c #373108",
"*  c #3B350B",
"=  c #443B00",
"-  c #483F00",
";  c #4C4200",
":  c #504600",
">  c #544A00",
",  c #594E00",
"<  c #554C0C",
"1  c #5D5100",
"2  c #5E540A",
"3  c #5C551B",
"4  c #625601",
"5  c #665A04",
"6  c #695D06",
"7  c #61560C",
"8  c #63580D",
"9  c #6B5F09",
"0  c #665B13",
"q  c #695F15",
"w  c #695F18",
"e  c #6D610B",
"r  c #71650F",
"t  c #6D631B",
"y  c #726611",
"u  c #756913",
"i  c #796D16",
"p  c #766B1B",
"a  c #7A6E18",
"s  c #7D711B",
"d  c #675F29",
"f  c #6D6422",
"g  c #716721",
"h  c #736A25",
"j  c #746B2A",
"k  c #786E2A",
"l  c #7D7224",
"z  c #7D742E",
"x  c #746B32",
"c  c #7A7130",
"v  c #7A7239",
"b  c #7D7642",
"n  c #7B754D",
"m  c #81751F",
"M  c #827622",
"N  c #857923",
"B  c #8A7D27",
"V  c #81762D",
"C  c #867B2B",
"Z  c #8B7F28",
"A  c #857B33",
"S  c #867D39",
"D  c #847C45",
"F  c #887F40",
"G  c #857E4B",
"H  c #8E822B",
"J  c #91852E",
"K  c #8C8132",
"L  c #8D833A",
"P  c #938730",
"I  c #968A33",
"U  c #9A8D36",
"Y  c #92873A",
"T  c #94893A",
"R  c #9A8F3B",
"E  c #9E923B",
"W  c #A1953E",
"Q  c #8E8441",
"!  c #8B834D",
"~  c #908642",
"^  c #958B44",
"/  c #908748",
"(  c #958C4D",
")  c #988F4F",
"_  c #9E9343",
"`  c #878155",
"'  c #8C8551",
"]  c #8F8854",
"[  c #8B855A",
"{  c #938B53",
"}  c #968E58",
"|  c #9B9252",
" . c #9B935B",
".. c #A19543",
"X. c #A59A46",
"o. c #A89C47",
"O. c #A29749",
"+. c #A79B49",
"@. c #A99E4A",
"#. c #A39A5C",
"$. c #ADA14B",
"%. c #8F8960",
"&. c #938D64",
"*. c #979165",
"=. c #9B9463",
"-. c #9A956D",
";. c #9F996F",
":. c #979372",
">. c #999470",
",. c #9E9977",
"<. c #9F9A79",
"1. c #A49D64",
"2. c #A69E69",
"3. c #A49E73",
"4. c #A29D7B",
"5. c #A9A169",
"6. c #ABA474",
"7. c #AFA874",
"8. c #A7A179",
"9. c #ABA579",
"0. c #AFA87A",
"q. c #B1A974",
"w. c #B3AC7D",
"e. c #B7B07F",
"r. c #AAA583",
"t. c #B4AE81",
"y. c #B2AE8C",
"u. c #B7B082",
"i. c #BAB384",
"p. c #B4B08E",
"a. c #BAB489",
"s. c #B7B292",
"d. c #BAB591",
"f. c #BCB793",
"g. c #BAB696",
"h. c #B9B594",
"j. c #BDB893",
"k. c #BEBA99",
"l. c #C0BA8F",
"z. c #C5BF97",
"x. c #C2BC95",
"c. c #C4BF9B",
"v. c #C3BE9E",
"b. c #C3BE9C",
"n. c #C6C19F",
"m. c #C6C19E",
"M. c #C8C39D",
"N. c #C6C2A1",
"B. c #C6C2A0",
"V. c #C8C3A0",
"C. c #C9C4A2",
"Z. c #CAC5A3",
"A. c #CAC5A2",
"S. c #C9C4A1",
"D. c #CBC6A5",
"F. c #CAC5A4",
"G. c #CCC7A5",
"H. c #CCC7A4",
"J. c #CAC5A3",
"K. c #CDC8A5",
"L. c #CDC8A6",
"P. c #CDC8A7",
"I. c #CEC9A7",
"U. c #CDC8A7",
"Y. c #CEC9A8",
"T. c #CFCBAB",
"R. c #CFCAA9",
"E. c #CEC9A9",
"W. c #D0CCAD",
/* pixels */
"          = = = % % % % % % % % % % % % % % % % % % % % % % % % % % % % % % % % % % % % % % % % % % % % % % % % % % % % % % % % = = =           ",
"        = = = = - - - - - = - - - - - - - - - - - - - - - - - - - - - - - - - - - - - - - - - - - - - - - - - - - - - - - - - - - = = =         ",
"    = = - ; ; : > > > > > > > > > > > > > > > > > > > > > > > > > > > > > > > > > > > > > > > > > > > > > > > > > > > > > > > > : : ; - = =     ",
"    - - : > > > , , , 1 1 1 1 1 1 1 1 1 1 1 1 1 1 1 1 1 1 1 1 1 1 1 1 1 1 1 1 1 1 1 1 1 1 1 1 1 1 1 1 1 1 1 1 1 1 1 1 1 1 , , , > > > : - -     ",
"  - - : > > , 1 1 4 4 4 4 5 5 5 5 5 5 5 5 5 5 5 5 5 5 5 5 5 5 5 5 5 5 5 5 5 5 5 5 5 5 5 5 5 5 5 5 5 5 5 5 5 5 5 5 5 5 4 4 4 4 1 1 , > > : - -   ",
"; - ; > > , 1 4 4 5 5 6 6 9 t t t t t u e e e e e e e e e e e 9 t j h e e e e e e e e e e e e e e e e e e e e e 9 9 9 6 6 5 5 4 4 1 , > > ; - ; ",
"; ; ; > , 1 4 5 5 6 9 e e t :.y.y.y.y. .r r r r r r r r r r r j ,.h.h.| y r r r r r r r r r r r r r r r r r r r r r e e e 9 6 5 5 4 1 , > ; ; ; ",
"; ; ; > , 1 4 5 9 e e r r x h.Z.Z.Z.D.a.s u u u u u u u u u u %.Z.Z.Z.x.M u u u u u u u u u u u u u u u u u u u u u y y r e e 9 5 5 1 , > ; ; ; ",
"; ; ; > , 4 5 6 e r y u u ` B.Z.Z.Z.Z.n.L i i i i i i i i i p ;.D.Z.Z.V.C i i i i i i i i i i i i i i i i i i i i i u u u y r e 6 5 4 , > ; ; ; ",
"; ; ; > 1 4 5 9 e y u u p ,.G.G.c.V.D.K.1.i s s s s s s s s i ( Z.R.W.w.s s s s s s s s s s s s s s s s s s s s i i i i u u y e 9 5 4 1 > ; ; ; ",
": ; ; > 1 4 6 e r u u i c s.G.R.2.h.K.K.i.M s s s s s s s s s M | 7.#.C s s s s s s s s s s s s s s s s s s s s s s s i i u u r e 6 4 1 > ; ; : ",
"> ; ; > 1 4 6 e y u i i G B.G.K.~ 9.K.K.M.L s m m m m m m m m m s s s m m m m m m m m m m m m m m m m m m m m s s s s s i i u y e 6 5 1 > ; ; > ",
"> : ; > 1 5 6 e y u i p -.K.K.z.C =.K.G.K.#.s m m m m m m m m m m m m m m m m m m m m m m m m m m m m m m m m m m s s s i i u y e 6 5 1 > ; : > ",
"> : ; > 1 5 6 e y u i k y.K.R.e.m ! V.K.R.w.M m m m m m m m m z F F D Q M m m m m m m m m m m m m m m m m m m m m s s s i i u y e 6 5 1 > ; : > ",
", > ; > 1 5 6 e y u i D v.G.R.#.s A f.K.K.M.K m m m m m m m m ' v.n.B.u.M m m m m m m m m m m m m m m m m m m m m s s s i i u y e 6 5 1 > ; > , ",
", > ; > 1 4 6 e y u p &.D.D.G.Y s l 9.K.K.K.| s m m m m m m s ' D.K.R.i.M m m m m m m m m m m m m m m m m m m m m s s s i i u y e 6 4 1 > ; > , ",
"1 > ; > 1 4 6 e y u h r.G.K.l.M s s } D.G.R.q.m m m m m m m s ' D.G.R.i.M m m m m m m m m m m m m m m m m m m s s s s s i i u y e 6 4 1 > ; > 1 ",
"1 > ; > , 4 6 e r u v k.Z.R.5.s s s S b.K.K.x.C s s s s s s s ' D.G.R.i.M s s s s s s s s s s s s s s s s s s s s s s i i u u r e 6 4 , > ; > 1 ",
"1 > ; > , 4 5 e r y [ Z.Z.K.^ s s s l t.K.D.Z.^ s s s s s s s ' Z.D.K.i.m s s s s s s s s s s s s s s s s s s s s s s i i u u r e 5 4 , > ; > 1 ",
"4 > - : , 4 5 9 e t 4.Z.D.x.N s s s i =.D.D.K.5.s s s s s s s ' V.D.K.i.s s s s s s s s s s s s s s s s s s s s s s i i i u y e 9 5 4 , : ; > 4 ",
"4 , - : , 4 5 9 e j s.Z.R.7.i i s s i F b.D.G.a.M s s s s s i ! V.Z.K.u.s s s s s s s s s s s s s s s s s s s s i i i i u u y e 9 5 4 , : - , 4 ",
"5 , - ; > 1 5 6 e G n.V.D.( u i i i i l y.D.Z.n.L i i i i i i ! B.Z.G.u.s i i i i i i i i i i i i i i i i s i i i i i u u u r e 6 5 1 > ; - , 5 ",
"5 , - ; > 1 5 6 q >.V.V.n.3.&.*.*.*.*.*.p.D.Z.D.#.i i i i i i ! B.Z.D.u.i i i i i i i i i i i i i i i i i i i i i i i u u y r e 6 5 1 > ; - , 5 ",
"5 , - ; > 1 4 5 f y.V.B.V.Z.Z.D.D.D.D.D.Z.Z.Z.D.w.s i i i i u ! B.Z.D.t.i u u i i i i i i i i i i i i i i i i i i u u u u y e e 6 4 1 > ; - , 5 ",
"6 1 - ; > 1 4 5 b b.n.B.D.D.D.D.G.G.G.G.D.Z.Z.Z.c.C u u u u u G B.V.D.t.u u u u u u u u u i i i i i i i i i i i u u u u y r e 9 5 4 1 > ; - 1 6 ",
"6 1 - ; > , 4 7 &.n.n.D.t.1.2.2.5.5.5.5.5.x.Z.Z.Z.) u u u u y G B.V.Z.w.u u u u u u u u u u u u u u u u u u u u u u u y y e e 9 5 4 , > ; - 1 6 ",
"9 2 = ; > , 4 q r.n.n.B.A r y u u u u u u 3.Z.V.D.7.u u u u r G b.B.Z.w.u y y y y y u u u u u u u u u u u u u u u u y y r e e 6 5 4 , > ; = 2 9 ",
"e 2 = ; > , 1 x h.b.B.a.u y y u u u u u y ! B.V.V.j.l r y y r G v.n.B.w.y r r r r r y y y y y u u u u u u u u u u y y r r e 9 6 5 1 , > ; = 2 e ",
"e 2 = ; : , 1 ` v.v.D.1.e r y y y u u u y z h.V.B.n.Q r r r e D v.n.B.w.e e e e e r r r r y y y y y u u u u u y y y r r e e 9 5 4 1 , : ; = 2 e ",
"e 2 = ; : > 2 <.v.v.B.L e r r y y y y y y u 8.V.n.V.1.e e e e D v.n.B.0.e 9 e e e e e e e r r r r y y y y y y y y r r e e e 6 5 4 1 > : ; = 2 r ",
"r 2 = - ; > d y.b.b.j.p e e r r r r r r r e ] B.n.B.a.p e e 9 D b.v.n.0.9 6 6 9 9 9 e e e e e r r r r r r r r r r r e e e 9 6 5 4 1 > ; - = 2 r ",
"y 2 = - ; > n k.b.B.6.e e e e r r r r r r e c g.n.n.b.A 6 9 6 b b.b.b.7.6 5 5 5 6 6 9 9 e e e e e e e r r r r r r e e e e 9 5 5 4 , > ; - = 7 y ",
"u 7 % - ; < :.v.v.F./ 6 e e e e e e e e e e u r.V.B.V. .6 6 5 b v.v.B.0.5 4 5 5 5 5 6 6 9 9 e e e e e e e e e e e e e e 9 6 5 4 1 , > ; - % 7 u ",
"u 7 % - ; 3 -.6.6.6.p 6 9 e e e e e e e e e e { w.0.0. .6 5 4 v 6.6.9.{ 4 1 4 4 4 5 5 5 6 6 9 9 e e e e e e e e e e e 9 9 6 5 4 1 , > ; - % 7 u ",
"u 7 % - ; > , 1 5 5 5 6 9 9 e e e e e e e e 9 9 9 9 9 5 5 4 4 4 4 1 1 1 1 1 1 1 1 4 4 5 5 5 6 6 9 9 e e e e e e e e 9 9 6 5 5 4 1 , > ; - % 7 u ",
"i 8 % - ; : > 1 4 4 5 5 6 9 9 9 e e 9 9 9 9 9 6 5 5 5 4 4 4 1 1 , , , > , , , , 1 1 4 4 4 5 5 5 6 9 9 9 9 9 e e 9 9 9 6 5 5 4 4 1 > : ; - % 8 i ",
"i 8 % = ; : > , 1 4 5 5 6 6 9 9 9 9 9 9 9 6 6 5 5 5 4 4 1 1 , , > > > > > > > > , , 1 1 4 4 5 5 5 6 6 9 9 9 9 9 9 9 6 6 5 5 4 1 , > : ; = % 8 i ",
"i 0 % = ; ; > , 1 4 5 5 5 6 6 6 9 6 6 6 6 5 5 5 5 4 4 1 1 , > > > > : : : : > > > > , 1 1 4 4 5 5 5 5 6 6 6 6 9 6 6 6 5 5 5 4 1 , > ; ; = % 0 i ",
"s 0 % = - ; > , 1 4 4 5 5 5 6 6 6 6 6 5 5 5 5 4 4 1 1 , > > > : ; ; ; ; ; ; ; ; : > > , , 1 1 4 4 5 5 5 5 6 6 6 6 6 5 5 5 4 4 1 , > ; - = % 0 s ",
"s 0 % = - ; > > 1 1 4 4 5 5 5 5 5 5 5 5 5 5 4 4 1 1 , , > > : ; ; ; ; - - ; ; ; ; : > > , , 1 1 4 4 5 5 5 5 5 5 5 5 5 5 4 4 1 1 > > ; - = % 0 s ",
"m 0 % = - ; > > , 1 4 4 5 5 5 5 5 5 5 5 4 4 4 1 1 , > > > ; ; ; - - - - - - - - ; ; ; > > > , 1 1 4 4 4 5 5 5 5 5 5 5 5 4 4 1 , > > ; - = % 0 s ",
"m q % % - ; : > , 1 1 4 4 5 5 5 5 5 4 4 4 4 1 1 , > > > ; ; ; - - = = = = = = - - ; ; ; > > > , 1 1 4 4 4 4 5 5 5 5 5 4 4 1 1 , > : ; - % % q m ",
"M q % % = ; : > , 1 1 4 4 4 4 4 4 4 4 4 1 1 1 , > > : ; ; ; - - = = % % % % = = - - - ; ; > > > , 1 1 1 4 4 4 4 4 4 4 4 4 1 1 , > : ; - % % q M ",
"M q $ % = ; ; > > , 1 1 4 4 4 4 4 4 4 1 1 1 , > > : ; ; - - = = % % % % % % % % = = - - ; ; : > > , 1 1 1 4 4 4 4 4 4 4 1 1 , > > ; ; = % % q M ",
"M q $ % = - ; > > , 1 1 1 1 4 4 4 1 1 1 1 , > > > ; ; ; - = = % % % % % % % % % % = = - ; ; ; : > > , 1 1 1 1 4 4 4 1 1 1 1 , > > ; - = % $ q M ",
"N w @ % = - ; : > , , 1 1 1 1 1 1 1 1 , , > > > ; ; ; - = = % % % % $ $ $ $ % % % % % = - ; ; ; > > > , , 1 1 1 1 1 1 1 1 , , > : ; - = % @ t N ",
"B t @ % = - ; : > > , , 1 1 1 1 1 1 , , > > > ; ; ; - = = % % % % @ @ @ @ @ @ % % % % % = - ; ; ; > > > , , 1 1 1 1 1 1 , , > > : ; - = % @ t B ",
"B t @ % = - ; ; > > , , , 1 1 , , , , > > > : ; ; - - = % % % $ @ @ @ @ @ @ @ @ $ % % % = - - ; ; : > > > , , , , 1 1 , , , > > ; ; - = % @ t B ",
"Z t @ % % = - ; : > > , , , , , , , > > > : ; ; - - = % % % $ @ @ @ @ @ @ @ @ @ @ $ % % % = - - ; ; : > > > , , , , , , , > > : ; - = % % @ t Z ",
"H t @ % % = - ; : > > > , , , , > > > > : ; ; - - = % % % % @ @ @ @ @ @ @ @ @ @ @ @ % % % % = - - ; ; : > > > > , , , , > > > : ; - = % % @ t H ",
"H t @ % % = - ; ; > > > > > > > > > > : ; ; - - = = % % % @ @ @ @ @ + + + + @ @ @ @ @ % % % = = - - ; ; : > > > > > > > > > > ; ; - = % % @ t H ",
"J t @ $ % = - ; ; : > > > > > > > > : ; ; ; - = = % % % $ @ @ @ @ + + + + + + @ @ @ @ @ % % % = = - ; ; ; : > > > > > > > > : ; ; - = % $ @ t J ",
"J t @ @ % = - ; ; ; : > > > > > : ; ; ; ; - - = % % % % @ @ @ @ + + + + + + + + @ @ @ @ % % % % = - - ; ; ; : > > > > > > : ; ; ; - = % @ @ t J ",
"P t @ @ % = - - ; ; ; : > > : : ; ; ; ; - - = = % % % $ @ @ @ @ + + + O O + + + @ @ @ @ $ % % % = = - - ; ; ; ; : : > > : ; ; ; - - = % @ @ t P ",
"P g + @ % % = - ; ; ; ; : : ; ; ; ; ; - - = = % % % % @ @ @ @ + + + O O O O + + + @ @ @ @ % % % % = = - - ; ; ; ; ; : : ; ; ; ; - = % % @ @ g P ",
"P g + @ % % = - - ; ; ; ; ; ; ; ; ; - - - = % % % % $ @ @ @ @ + + + O O O O + + + @ @ @ @ $ % % % % = - - - ; ; ; ; ; ; ; ; ; - - = % % @ + g P ",
"I g + @ $ % = = - - ; ; ; ; ; ; ; - - - = % % % % $ @ @ @ @ @ + + + O O O O + + + @ @ @ @ @ $ % % % = = - - - ; ; ; ; ; ; ; - - = = % % @ + g I ",
"U g O @ $ % % = - - - ; ; ; - - - - = = = % % % $ @ @ @ @ @ + + + O O O O O + + + + @ @ @ @ @ $ % % % % = = - - ; ; ; ; - - - = = % % $ @ O g U ",
"U h O + @ % % = = - - - - - - - - = = = % % % % $ @ @ @ @ + + + O O O O O O + + + + + @ @ @ @ $ % % % % = = = - - - - - - - - = = % % @ @ O h U ",
"R h O + @ % % % = = - - - - - = = = % % % % $ $ @ @ @ @ @ + + + O O O O O O + + + + + @ @ @ @ @ $ % % % % % = = - - - - - - = = % % % @ + O h U ",
"E j O + @ $ % % % = = = = = = = = % % % % % $ @ @ @ @ @ + + + O O O O O O O O O O + + + @ @ @ @ @ $ % % % % % = = = = = = = = % % % $ @ + O j E ",
"E j O O @ @ % % % % % = % = % % % % % % % $ @ @ @ @ @ + + O O O O O O O O O O O O O O + + @ @ @ @ @ $ $ % % % % % % = = % % % % % % @ @ O O j E ",
"W k O O + @ @ % % % % % % % % % % % % $ @ @ @ @ @ + + + O O O O O O O O O O O O O O O O + + + @ @ @ @ @ $ % % % % % % % % % % % % @ @ + O O k W ",
"W k o O O @ @ @ $ % % % % % % $ $ $ @ @ @ @ @ + + + O O O O O O O O O O O O O O O O O O O O + + + @ @ @ @ @ $ $ $ % % % % % % $ @ @ @ + O o k W ",
"..V O o O + @ @ @ @ @ @ $ @ @ @ @ @ @ @ @ + + O O O O O O O O O o o o o o o o o O O O O O O O O O + + @ @ @ @ @ @ @ @ $ @ @ @ @ @ @ + O O O V ..",
"_ T & o O O + + @ @ @ @ @ @ @ @ @ @ + + O O O O O O O o o o o o o o o o o o o o o o o o o O O O O O O O + + @ @ @ @ @ @ @ @ @ @ + + O O o & T _ ",
"_ ..3 o o O O O O O + + + + + O O O O O O O o o o o o o o o o o o o o o o o o o o o o o o o o o o o O O O O O O O + + + + + + O O O O o o 3 .._ ",
"  X.Y * X o o o O O O O O O O O O o o o o o o o o o o X X X X X X X X X X X X X X X X X X o o o o o o o o o o O O O O O O O O O o o o o * Y X.  ",
"    X.A * X X o o o o o o o o o o o o X X X X X X X X X X X X . . . . . . . . . . X X X X X X X X X X X X o o o o o o o o o o o o X X * A X.    ",
"    ..o.T 3 # o X X X X X X X X X X X X X X . . . . . . . . . . . . . . . . . . . . . . . . . . . . X X X X X X X X X X X X X X o # 3 T o...    ",
"        +.o.R A c c c c c c c c c c c c c c c c c c c c c c c c c c c c c c c c c c c c c c c c c c c c c c c c c c c c c c c c A R o.+.        ",
"          O.+.@.$.$.$.$.$.$.$.$.$.$.$.$.$.$.$.$.$.$.$.$.$.$.$.$.$.$.$.$.$.$.$.$.$.$.$.$.$.$.$.$.$.$.$.$.$.$.$.$.$.$.$.$.$.$.$.$.@.+.O.          "
};
