/* XPM */
static char *adobe_dreamweaver_png_ico_4[] = {
/* columns rows colors chars-per-pixel */
"64 64 174 2 ",
"   c None",
".  c #032500",
"X  c #042C00",
"o  c #053400",
"O  c #063C00",
"+  c #0C3B06",
"@  c #074200",
"#  c #084600",
"$  c #074A00",
"%  c #084C00",
"&  c #095300",
"*  c #0B5C01",
"=  c #1A5213",
"-  c #0D6302",
";  c #106606",
":  c #126807",
">  c #14670A",
",  c #18670E",
"<  c #156B0A",
"1  c #196E0E",
"2  c #1A700F",
"3  c #1D6B13",
"4  c #1D7312",
"5  c #216D17",
"6  c #246E1B",
"7  c #286F1F",
"8  c #217616",
"9  c #227817",
"0  c #237119",
"q  c #29771F",
"w  c #257B1A",
"e  c #297E1E",
"r  c #276620",
"t  c #296621",
"y  c #2C7124",
"u  c #2C7D22",
"i  c #307F26",
"p  c #35722D",
"a  c #337E29",
"s  c #467D3F",
"d  c #2A801F",
"f  c #2D8322",
"g  c #308625",
"h  c #318826",
"j  c #348529",
"k  c #38872E",
"l  c #358C2A",
"z  c #388F2D",
"x  c #39912E",
"c  c #3B8332",
"v  c #3D8D32",
"b  c #3C9331",
"n  c #408E36",
"m  c #42833A",
"M  c #448C3A",
"N  c #419436",
"B  c #429937",
"V  c #45943B",
"C  c #48933E",
"Z  c #469C3B",
"A  c #49A03E",
"S  c #4A8542",
"D  c #4A8C42",
"F  c #4F8B48",
"G  c #4A9441",
"H  c #4D9B43",
"J  c #509E47",
"K  c #54934D",
"L  c #549E4B",
"P  c #578E50",
"I  c #5C9356",
"U  c #5C9B54",
"Y  c #5F9259",
"T  c #63935D",
"R  c #649C5D",
"E  c #4DA542",
"W  c #51A047",
"Q  c #51A946",
"!  c #54A34B",
"~  c #58A34E",
"^  c #55AB4A",
"/  c #58AF4D",
"(  c #59B14E",
")  c #5CA253",
"_  c #5DB352",
"`  c #60A457",
"'  c #63A55B",
"]  c #61B557",
"[  c #62B857",
"{  c #65BB5A",
"}  c #679B61",
"|  c #6F9C6A",
" . c #709B6A",
".. c #69A461",
"X. c #6BAB63",
"o. c #73A46C",
"O. c #71AD69",
"+. c #74B16D",
"@. c #76A270",
"#. c #7BA476",
"$. c #77AD70",
"%. c #7BAA75",
"&. c #7FA57A",
"*. c #7EA978",
"=. c #7BB374",
"-. c #7FB678",
";. c #68C05D",
":. c #82A77D",
">. c #83A97E",
",. c #81B17B",
"<. c #83B97C",
"1. c #84A780",
"2. c #86AB81",
"3. c #89AE84",
"4. c #87B182",
"5. c #8AB285",
"6. c #8CBE85",
"7. c #8EB489",
"8. c #8EBC88",
"9. c #93B58E",
"0. c #92BD8C",
"q. c #95B791",
"w. c #96BD92",
"e. c #98BD94",
"r. c #9EBF9A",
"t. c #94C18E",
"y. c #96C291",
"u. c #9AC595",
"i. c #9FC39B",
"p. c #9DC698",
"a. c #9EC399",
"s. c #9DC998",
"d. c #A1C59D",
"f. c #A3CB9D",
"g. c #A3CC9E",
"h. c #A3CA9E",
"j. c #A4C6A0",
"k. c #A7C9A2",
"l. c #A6CCA1",
"z. c #A7CAA2",
"x. c #A8CDA3",
"c. c #A9CAA5",
"v. c #ABCDA7",
"b. c #AACCA6",
"n. c #ABCEA7",
"m. c #AACDA5",
"M. c #ACCFA7",
"N. c #ACCDA7",
"B. c #AACCA5",
"V. c #ADCFA9",
"C. c #ADCEA9",
"Z. c #AECFA9",
"A. c #ADCFA9",
"S. c #ABD1A7",
"D. c #ACD1A7",
"F. c #ACD1A7",
"G. c #AED0AA",
"H. c #AFD1AB",
"J. c #AED2AA",
"K. c #AED1AA",
"L. c #B0D3AB",
"P. c #B0D1AC",
"I. c #B1D3AC",
"U. c #B1D4AD",
"Y. c #B2D5AE",
"T. c #B3D5AF",
"R. c #B2D4AE",
"E. c #B3D6AF",
"W. c #B2D4AD",
"Q. c #B1D3AD",
"!. c #B3D5B0",
"~. c #B5D6B1",
"^. c #B4D5B0",
"/. c #B7D8B3",
/* pixels */
"          & & & & & & & & & & & & & & & & & & & & & & & & & & & & & & & & & & & & & & & & & & & & & & & & & & & & & &           ",
"      & & * * * * * * * * * * * * * * * * * * * * * * * * * * * * * * * * * * * * * * * * * * * * * * * * * * * * * * & &       ",
"    * * - ; : : : < < < < < < < < < < < < < < < < < < < < < < < < < < < < < < < < < < < < < < < < < < < < < < : : : ; - * *     ",
"  * * ; : < < 1 1 2 4 4 4 4 4 4 4 4 4 4 4 4 4 4 4 4 4 4 4 4 4 4 4 4 4 4 4 4 4 4 4 4 4 4 4 4 4 4 4 4 4 4 4 4 2 1 1 1 < : ; * *   ",
"  * - : < 1 1 4 0 q q q q q w w w w w w w w w w w w w w w w w w w w w w w w w w w w w w w w w w w w w w 9 9 8 4 4 4 1 < : - *   ",
"* - - : 3 s T  .#.>.2.3.3.>.@.R D j f f f f f f f f f f f f f f f f f f f f f f f f f f f f f f f f f d e e w w 9 4 4 1 < - - * ",
"- - - < 5 >.B.b.b.C.C.G.G.G.G.C.k.0...v g h h h h h h h h h h h h h h h h h h h h h h h h h h g g g g f f f f e w 9 4 2 < ; - - ",
"- - - < 5 2.b.b.C.N.x.l.x.N.L.I.G.I.G.y.L l l l l l l l l l l l l l l l l l l l l l l l l l l l l l l h h g f f e w 8 4 < - - - ",
"- - - < 0 2.b.N.p.L G C H L X.6.b.I.L.E.l.` z z z z z z z z z z z z z z z z z z z z z z z z z z z z z l l h h f f e 9 4 < - - - ",
"; - - < 0 2.b.C.t.l l l z z x b ) u.E.I.E.f.J x b b b b b b b b b b b b b b b b b b b b b b b b x x x x z l h g f e 9 4 < - - ; ",
": - - < 0 2.b.C.t.z z x x b b b x H u.E.E.E.6.b b b b b b b b b b b b b b b b b b b b b b b b b b b b x x z l h f e 9 4 < - - : ",
": - - < 0 2.b.C.t.z z x b b b b b b ) l.E.E.S.~ b b b b b b b b b b b b b b b b b b b b b b b b v v b b x z l h f e w 4 < - - : ",
"< ; - < 0 2.b.C.t.z z x b b b b b b b ,.E.E.E.=.b N @.4.4.,.Z b b b b b D :.4.4.H b b b b b M #.4.5.O.b x z l h f e w 4 < - ; < ",
"1 ; - < 0 2.b.C.t.z z x b b b b b b b U C.E.E.t.N b ,.~.E.G.! b b b b b T I.E.E.X.b b b b b K B.E./.X.x x z l h f e 9 4 < - ; 1 ",
"1 ; - < 0 2.b.C.t.z z x x b b b b b b G i.E.E.g.Z x R G.E.E.X.x b b b v &.E.E.!.<.b b b b b } I.E.F.H x x z l h f e 9 4 < - ; 1 ",
"2 ; - < 0 2.b.C.t.z l z x x b b b b b n 0.E.E.b.H x G d.E.T.<.x b b b M e.E.E.E.s.V b b b v &.E.~.t.b x z l l g f e 9 4 < - ; 2 ",
"4 > - : 5 2.b.C.t.z l z z x x x x x x v 5.E.I.F.J x v 7.E.E.y.b x x x K B.I.d.I.G.~ x x x M q.E.~.+.z z z l h g f e 9 4 < - > 4 ",
"4 > - : 5 2.b.C.t.k l l z z x x x x x v 4.E.L.F.J z z o.I.I.l.H z x z | I.x.o.G.E.O.z x x F j.E.G.J l z l l h f f w 8 2 : - > 4 ",
"4 > - : 5 2.b.C.0.l h l l z z z z z z v 5.E.I.b.H l l K B.L.G.) l z v 3.E.u.K k.E.6.x z l T C.E.u.b l l l h g f d w 8 1 : - > 4 ",
"8 > * : 3 2.b.b.0.l h l l l l z z z l v 9.I.I.g.V l l v w.I.I.+.l l D d.~.<.n e.I.f.V l k #.I.T.=.l l l l h f f e w 4 1 : * > 8 ",
"9 > * ; 3 >.B.b.0.j g h l l l l l l l M r.G.I.y.z l l l %.L.I.6.z h Y N.I.' l >.I.G.) h c 9.I.I.) h l l h g f f e 9 4 1 ; * > 9 ",
"w > * ; 3 >.B.b.0.g f h h h l l l l h P B.G.I.-.h h h h U b.G.p.b j #.L.l.V h } G.I.=.h D d.I.f.b h h h h g f d e 9 4 1 ; * > w ",
"w > * - 3 >.B.b.0.g f g h h h h h h j #.G.G.I.) h h h g M i.G.b.H c 9.I.8.l h D j.I.t.l I b.I.<.h h h h g f f e w 8 4 < - * > w ",
"e , * - 3 >.z.B.0.g f f g g h h h h S r.G.G.p.v f g g f j 4.C.C.` S d.I.X.f f k 9.G.f.V  .G.I.` f h g g f f f e w 8 4 < - * , e ",
"e , * - 3 >.k.B.8.f f f f g g g f c 1.C.C.I...f f f f f f } b.C.$.T b.b.C f f f o.C.N.U >.G.k.N f g g g f f d e w 4 2 < - * , e ",
"d , * - 3 :.k.B.8.f f f f f f f m &.b.N.I.8.l f f f f f d D d.C.7.&.C.0.g f f f K z.G.#.9.I.6.g f f f f f f e w 9 4 1 : - * , d ",
"f 3 & - 3 :.k.B.8.i u u u a m T 9.b.b.I.u.n f f f d e e e a 7.b.d.r.C.X.w e d d c e.C.i.j.I.' f f f f f f d e w 8 4 1 : - & 3 f ",
"f 3 & - , :.k.k.d.>.#.#.>.7.r.B.C.C.I.0.n d f d e e e w w w o.B.k.z.B.C w e e e u *.C.b.b.b.C f f f f f d e e w 8 4 1 : - & 3 f ",
"f 3 & - , :.k.k.k.b.b.b.C.C.C.G.C.p...j d e e e e w w 9 9 4 F j.k.B.0.u 9 w w e w I B.b.C.0.g f f f f d e e w 9 4 4 < ; - & 3 f ",
"g 3 & * , #.i.d.k.k.B.B.k.d.y.-.U k e e e e e w w 9 9 8 4 4 a 7.u.i...4 8 9 9 w w m e.d.f...e f f d d e e w w 9 4 2 < ; * & 3 g ",
"h 3 & * ; 0 a c M M G C n v g e e e e e e w w w 9 8 4 4 4 4 4 q u u 8 4 4 4 8 9 9 e j k k f e e e e e e e w 9 8 4 1 < - * & 3 h ",
"l 3 & * - : 1 2 4 8 9 w w w e e e e e w w w 9 8 4 4 4 2 1 1 < < < < 1 1 2 4 4 4 8 9 9 w w w e e e e e e w w 9 4 4 1 < - * & 3 l ",
"l 3 & * - : 1 4 4 8 9 w w w e e w w w w 9 9 8 4 4 4 1 1 < < : : : : < < 1 1 4 4 4 8 9 9 w w w w e e w w w 9 8 4 4 1 : - * & 3 l ",
"z 3 % * - : < 2 4 8 9 9 w w w w w w 9 9 8 8 4 4 2 1 < < : ; - - - - ; : < < 1 2 4 4 8 8 9 9 w w w w w w 9 9 8 4 2 < : - * % 3 z ",
"x 5 % * - ; < 1 4 4 8 9 9 w w w 9 9 9 8 4 4 4 2 1 < : ; - - - - - - - - ; : < 1 2 4 4 4 8 9 9 9 w w w 9 9 8 4 4 1 < ; - * % 5 x ",
"x 5 % * - ; < 1 4 4 4 8 9 9 9 9 9 8 8 4 4 4 1 1 < : ; - - * * * * * * - - ; : < 1 1 4 4 4 8 8 9 9 9 9 9 8 4 4 4 1 < ; - * % 5 x ",
"b 5 % & - - : 1 2 4 4 8 8 8 8 8 8 4 4 4 4 1 1 < : - - - * * * * * * * * - - - : < 1 1 4 4 4 4 8 8 8 8 8 8 4 4 2 1 : - - & % 5 b ",
"b 5 $ & * - : < 1 4 4 4 4 4 8 4 4 4 4 4 1 1 < : - - * * * & & & & & & * * * - - : < 1 1 4 4 4 4 4 8 4 4 4 4 4 1 < : - * & $ 5 b ",
"b 5 $ & * - ; < 1 2 4 4 4 4 4 4 4 4 2 1 < < ; - - * * * & & & % % & & & * * * - - ; < < 1 2 4 4 4 4 4 4 4 4 2 1 < ; - * & $ 5 b ",
"B 6 $ & * - ; < 1 1 4 4 4 4 4 4 4 2 1 < < : - - * * & & & % % % % % % & & & * * - - : < < 1 2 4 4 4 4 4 4 4 1 1 < ; - * & $ 6 B ",
"B 6 @ & * - - : < 1 2 2 4 4 4 2 1 1 < < : - - * * & & & % % % % % % % % & & & * * - - : < < 1 1 2 4 4 4 2 2 1 < : - - * & @ 6 B ",
"Z 6 @ & * - - : < 1 1 1 2 1 2 1 1 < < : ; - - * & & % % % # @ @ @ @ # % % % & & * - - ; : < < 1 1 2 1 2 1 1 1 < : - - * & @ 6 Z ",
"Z 6 @ % * * - ; : < 1 1 1 1 1 1 < < : ; - - * * & & % % # @ @ @ @ @ @ # % % & & * * - - ; : < < 1 1 1 1 1 1 < : : - * * % @ 6 Z ",
"A 0 @ % & * - ; : < < 1 1 < < < < : ; - - * * & & % % # @ @ @ @ @ @ @ @ # % % & & * * - - ; : < < < < 1 1 < < : ; - * & % @ 6 Z ",
"A 7 @ % & * - - ; : < < < < < : : ; - - * * & & % % # @ @ @ O O O O @ @ @ # % % & & * * - - ; : : < < < < < : ; - - * & % @ 7 A ",
"E 7 @ % & * - - ; ; : < < : : : ; - - * * & & % % % @ @ @ O O O O O O @ @ @ % % % & & * * - - ; : : : < < : ; ; - - * & % @ 7 E ",
"E y @ % & * * - - ; : : : : ; ; - - - * * & & % % # @ @ O O O O O O O O @ @ # % % & & * * - - - ; ; : : : : ; - - * * & % @ y E ",
"E y O % & * * - - - ; ; ; ; - - - - * * & & % % # @ @ @ O O O O O O O O @ @ @ # % % & & * * - - - - ; ; ; ; - - - * * & % O y E ",
"E y O % % & * * - - - - - - - - - * * & & & % % # @ @ O O O O O O O O O O @ @ # % % & & & * * - - - - - - - - - * * & % % O y E ",
"Q y O # % & * * - - - - - - - - * * * & & % % # @ @ @ O O O O O O O O O O @ @ @ # % % & & * * * - - - - - - - - * * & % # O y Q ",
"Q y O @ % & & * * - - - - - * * * * & & % % % # @ @ @ O O O O O O O O O O @ @ @ # % % % & & * * * * - - - - - * * & & % @ O y Q ",
"^ y O @ % & & * * * * - * * * * * & & % % % # @ @ @ O O O O O O O O O O O O @ @ @ # % % % & & * * * * * - * * * * & & % @ O y ^ ",
"^ y O @ % % & & * * * * * * * & & & % % % # @ @ @ O O O O O O O O O O O O O O @ @ @ # % % % & & & * * * * * * * & & % % @ O y ^ ",
"/ y o O # % % & & & * * * & & & & % % % # @ @ @ @ O O O O O O O O O O O O O O @ @ @ @ # % % % & & & & * * * * & & % % # @ o y / ",
"( y o O @ % % & & & & & & & & & % % % # @ @ @ O O O O O O O O O O O O O O O O O O @ @ @ # % % % & & & & & & & & & % % @ O o y ( ",
"_ p o O @ # % % % & & & & % % % % % @ @ @ @ O O O O O O O O O O o o O O O O O O O O @ @ @ @ % % % % % & & & & % % % # @ O o p _ ",
"_ p o O O @ @ % % % % % % % % # # @ @ @ O O O O O O O O O o o o o o o O O O O O O O O O @ @ @ # # % % % % % % % % @ @ O O o p _ ",
"_ c o o O O @ @ @ # # # # @ @ @ @ @ O O O O O O o o o o o o o o o o o o o o o o O O O O O O @ @ @ @ @ # # # # @ @ @ O O o o c _ ",
"_ H + o O O O O O @ @ @ @ O O O O O O O o o o o o o o o o o o o o o o o o o o o o o o o O O O O O O O @ @ @ @ O O O O O o + H _ ",
"  _ r o o o o O O O O O O O O O o o o o o o o o o o o X X X X X X X X X X o o o o o o o o o o o O O O O O O O O O o o o o r _   ",
"  ] ! = X o o o o o o o o o o o o o o X X X X X X X X X X X X X X X X X X X X X X X X X X o o o o o o o o o o o o o o X = ! ]   ",
"    [ ^ t + X X X X X X X X X X X X X X . . . . . . . . . . . . . . . . . . . . . . . . X X X X X X X X X X X X X X + t ^ [     ",
"      [ [ W c p p p p p p p p p p p p p p p p p p p p p p p p p p p p p p p p p p p p p p p p p p p p p p p p p p c W [ [       ",
"          [ { { ;.;.;.;.;.;.;.;.;.;.;.;.;.;.;.;.;.;.;.;.;.;.;.;.;.;.;.;.;.;.;.;.;.;.;.;.;.;.;.;.;.;.{ ;.;.;.;.;.{ { [           "
};
