/* XPM */
static char *adobe_lightroom_png_xpm_xpm[] = {
/* columns rows colors chars-per-pixel */
"128 128 58 1 ",
"  c None",
". c #171716",
"X c #181817",
"o c #1D1D1C",
"O c #20201F",
"+ c #252524",
"@ c #282827",
"# c #2C2C2B",
"$ c #30302F",
"% c #343433",
"& c #383837",
"* c #3C3C3B",
"= c #40403F",
"- c #444443",
"; c #484847",
": c #4C4C4B",
"> c #50504F",
", c #545453",
"< c #585857",
"1 c #5C5C5B",
"2 c #60605F",
"3 c #646463",
"4 c #686867",
"5 c #6C6C6B",
"6 c #70706F",
"7 c #747473",
"8 c #787877",
"9 c #7C7C7B",
"0 c #80807F",
"q c #848483",
"w c #888887",
"e c #8C8C8B",
"r c #90908F",
"t c #949493",
"y c #959594",
"u c #989897",
"i c #9B9B9B",
"p c #A3A3A2",
"a c #AAAAAA",
"s c #ACACAB",
"d c #ACACAC",
"f c #B0B0AF",
"g c gray70",
"h c #B4B4B3",
"j c gray71",
"k c #B8B8B7",
"l c #BBBBBB",
"z c #BCBCBB",
"x c gray74",
"c c #C0C0BF",
"v c #C0C0C0",
"b c #C4C4C3",
"n c #C6C6C6",
"m c #C8C8C7",
"M c #C8C8C8",
"N c #CDCDCD",
"B c #D0D0CF",
"V c #D1D1D0",
/* pixels */
"           &&&%%%%%%%%%%%%%%%%%%%%%%%%%%%%%%%%%%%%%%%%%%%%%%%%%%%%%%%%%%%%%%%%%%%%%%%%%%%%%%%%%%%%%%%%%%%%%%%%%%%%&&&           ",
"         &&%%%%%%%%%%%%%%%%%%%%%%%%%%%%%%&%%%%%%%%%%%%%%%%%%%%%%%&%%%%%%%%%%%%%%%%%%%%%%%&%%%%%%%%%%%%%%%%%%%%%%%%%%%&&*        ",
"       &&&&&&&&&&&&&&&&&&&&&&&&&&&&&&&&&&&&&&&&&&&&&&&&&&&&&&&&&&&&&&&&&&&&&&&&&&&&&&&&&&&&&&&&&&&&&&&&&&&&&&&&&&&&&&&&&&       ",
"     *&&&&&********=****===============================-========-===*==========-=========================************&&&&&*     ",
"    *&&&&*------------------------------------------------------------------------------------------------------------*&&&&*    ",
"   *&&&*----------;;;;;;;;;;;;;;;;;;;;;;;;;;;;;;;;;;;;;;;;;;;;;;;;;;;;;;;;;;;;;;;;;;;;;;;;;;;;;;;;;;;;;;;;;;;-----------*&&&*   ",
"   *&&*------;;;;;;;::::::::::::::::::::::::::::::::::::::::::::::::::::::::::::::::::::::::::::::::::::::::;;;;;;;------*&&*   ",
"  ****-----;;;;:::::::>>>,,,,,,,,,,,,,,,,,,,,,,,,,,,,,,,,,,,,,,,,,,,,,,,,,,,,,,,,,,,,,,,,,,,,,,,,,,,,,,>,,:::::::;;;;-----****  ",
"  ***-----;;:::>:>,,,,,,,,,,<<<<<<<<<<<<<<<<<<<<<<<<<<<<<<<<<<<<<<<<<<<<<<<<<<<<<<<<<<<<<<<<<<<<<<<<<,,,<,,,,,>>:::;;;;----***  ",
" ****----;;::>>,,,,,<<<<<<<<11111111111111<1111111<<111111111111111111<<111<11111111111111<111111111<<<<<<<<<,,,>::::;;;---**** ",
" ***=---;;:::,344444521111111111111111111111111111111111111111111111111111111111111111111111111111111111111<<<<,,,,:::;;---=*** ",
"=***=---;;::>1pjghjjl7111111111111111211111122211111112221111111111211111111112111112111111111111111111111111<<<<,,,:::;----***=",
"****----;::>,1axxxxxn8112233333333333333333333333333333333333333333333333333333333333333333333333222332211111111<<,,>::;;--=***=",
"****=--;;::,,1axxxxxn82333333333333333333333333333333333333333333333333333333333333333333333333333333333332111111<<,,>:;;--=****",
"****---;;:>,,1axxxxcn833333333333333333333333333333333333333333333333433333344333333433333333333333333333333211111<<,,:;;--=****",
"=***---;::,,<1sxxxcvn833333344444444444444444444444444444444444444444444444444444444444444444444444433333333331111<<,,::;--=****",
"--***--;::,,<2axxcvvn9334444444444444444444444444444444444444444444444444444444444444444444444444444444333333331111<<,::;---*-==",
"--=**--;:>,<<3sxxvvvn9344444455544445555444455554454445444555544554444555544445444445555444455554454444444433332111<<,>:;---*=--",
"---**--;:>,<<3dvcvvvn93444455555555555555555555555555555555555555555555555555555555555555555555555555444444333331111<,::;--**---",
"---**--;:>,<13dvcvvvm94444555555555555555555555555555555555555555555555555555555555555555555555555555544444333332111<,::;--**---",
"---**--;:>,<13dcvvvvM04555555555555555555555555555555555555555555555555555555555555555555555555555555555544433333111<,,:;--**---",
"---**--;:>,<13dcvvvvM04555555555555555555555555555555555555555555555555555555555555555555555555555555555554433333111<,,:;--**---",
"---**--;:>,<13dvvvvvM04555555556656655666566556655556666656665555655556665555666656655666566555565555555554443333111<,,:;--**---",
"---**--;:,,<13dvvvvvM04555555566656656666566555555555656556444578665556666556666656656666566555566555555544443333111<,,:;--**---",
"---**--;:,,<13dvvvvbM0455555556666555666666555599999q6555439igjxt555556666665565665556665555556566555555544443333111<,,:;--**-;-",
"---**--;:,,<13dvvvvbM0455555566666555566665555qvvvvnl75547pvnnnNi555556666665555665555665555666666655555544443333111<<,:;--**-;-",
";;-**--;:,,<13dvvvvvM04555555555655566666666559vnnnnx7538jMnnnnNi556556666665565655566666666666655555555544443333111<,,:;--**-;;",
";;-**--;:>,<13dvvvvvM04555555555555566666665558vnnnnc848lnnnnnnNi556556655655566555566666556566655555555544443333111<,>:;--**-;;",
";;;**--;:>,<13dcvvvbM94555555555556655555555558xnnnnv84dnnnnnnnNi566566655556666556655555666666655555555554433333111<,>:;--**;;;",
";:;**--;:>,<13dcvvvbM94445555555555555555555558xnnnnv7ennnnnMMMNi555555555555555555555555555555555555555544433332111<,>:;--**;;;",
";;;**=-;:>,<<3dxvvvvm04545555555555555555555558xnnnnxqgnnnBNvjjle555555555555555555555555555555555555554544433332111<,:;;-=**;;;",
"::;**--;::,<<3sxcvvvm94454555555555555555555558xnnnnblvnMVsq7556555555555555555555555555555555555555554444443333211<<,:;;--**;::",
"::;**=-;::,<<3dvcvvvn94444455555555555555555558znnnnnnnMNe555555555555555555555555555555555555555555544444433333111<<,::;-=**;::",
"::;**=--;:,<<3dvcvvvn94444445555555555555555557lnnnnnnnVe4555555555555555555555555555555555555555555444444333332111<<,:;--=**;::",
":::**=--;:,,<2dccvvvn93444445544555444445544447lnbbbbbVp44444454554444444455455554444455555544445555444444333332111<<,:;---**:::",
":::***--;:,,<2dcccvvn93444444544455544445444447lnbbbbnM844444444444444444445445544444444555444444454444443333332111<<,:;--=**:::",
">>:***--;:>,<2dcccvvn93444444444444444444444447lnvvvvMg444444444444444444444444444444444444444444444444444333331111<,>:;--***:>>",
",,:***--;:>,<1dxcxvvn83444444444444444444444447lnvvvvNy44444444444444444444444444444444444444444444444444333332111<<,>:;--***:,,",
",,:***--;:,,<2svxxcvn83333444444444444444444437lnvvvbNq44444444444444444444444444444444444444444444444333333332111<<,>:;--***:,,",
",,>***--;:>,,1sxxxcvn83333444444444444444443337lbvvvnm833344444444433344344444444444444444444444444433333333331111<<,::;--***:,,",
",,>***=-;::,,1axxxcvn83333333444444444444444447lbbvvbb733344443333333344333344444444444444444444444334333333211111<,,:;;--***>,,",
",,>*&*=-;;:,,1axxxcvn83333333344444433444444337lnvvvvv73333333333333333333333333444433444444334444333333333331111<<,>:;;--***>,,",
"<<,****-;;:,,1axxxxcn83333333444334433333333336lvvvvvv73333333333333333333333333334433333333333343333333333321111<<,,:;--=***,,,",
"<<,*&**--;:,,1axxxxxn83333333333333333333333335kvvvvvv73333333333333333333333333333333333333333333333333333321111<,,>:;--=*&*,<<",
"<<,*&*=--;:>,1axxxxxn82333333333333333333333335jvvvvvv63333333333333333333333333333333333333333333333333333211111<<,::;--=*&&,<<",
"<<,*&**--;::,1axxxxxn82333333333333333333333335jvvvvvv63333333333333333333333333333333333333333333333333333211111<,,>:;--**&&,<<",
"<<,&&**--;::,1axxxxxn81333333333333333333333335jvvvvvv5232333333332222333333333333333333333333333333333333211111<<<,::;--**&&,<<",
"11,&&**--;;:>1axxxxxn81333333333333333333333335jvvccvv512122211111112222233333333333333333333333333333333211111<<<,,:;;--**&&,11",
"11,&&**---;:>1axxxxxn81233333333333333333333335jvcccvc5122221111111111233222333333333333333333333333333321111111<<,,:;;--**&&<11",
"11<&&**--;;::1axxxxxn81222333333333333333333335jvxxxvx511111111111111111111112222123333333333333333333221111111<<,,>:;;--**&*<11",
"11<&&**---;::1axxxxxn81122333333333333333333315jvcxxvx411111111111111111111111122212333333333333333333321111111<<,,>:;---**&&<11",
"11<&&***--;::1axzxxxb81111223333322223332222115jccxxxx41111111111111111111111111121111333322223323333321111111<<<,,:;;--=**&&<11",
"11<&&***--;::1axlxxxv71111111222111122211111114jxxxxcx41111111111111111111111111111122221111333311332211111111<<<,,::;--=**&&<11",
"11<&&**=--;;:1axlzxxlq3333333333333333343111114jxxxxxx41<<<<11<<<<<<<<1111111111111111221111333311222211111111<<,,>:;;--=**&&<11",
"111&&&**--;;:1azlzxxxjdddfffggggggdggggk8111114jxxxxxx3<<<<<<<<<<<<<<<<<1111111111111111111111111111111111111<<<,,>:;;--**&&&111",
"121&%&**--;;:1alllxxxxxxxccccvvvvvvvvcvM9111114hxxxxxx3<<<<,,<<<,,,,,<<<<1<1<1111111111111111111111111111111<<<<,,::;;--**&%&111",
"221&%&**---;:1alllzzxxxxxxxxxxxxxxxxxxxn9111114gxxxxxx3<<,,,,,,,,,,,,,<<<<<<<<<1111111111111111111111111111<<<<,,,::;---**&%&122",
"231&%&**---;;1allllxzzxxxxxxxxxxxxxxxxxn8111114gxxzlxx3,,,,,,,,,,,,,,,,,,<<<<<<<1111111111111111111111111111<<,,,>::;---**&%&133",
"331&%&**---;;1axxxxxxxxxxxcccvxxvvvcccxn8<111<4jxxxxxx3,,,,,>>>>,,>>,>,,,,,<<<<<<11111111111111111111111111<<<<,,>::;---**&%&133",
"331&%&**=--;;1alllllllllllzzzxllxxzzzzzl7<<<<<5gllllld1>>>::::::::::::>>>,,,,,<<<<<<1111111111111111111111<<<,,,,>:;;--=**&%&133",
"331&%&**---;;>11112333333333333333333333111<<<13321111,>>::::::::::::::::>>,,,,<<<<<<11111111111111111111<<<<<,,,:::---***&%&133",
"331&%&**---;;:::>,,,<<<<<11111111111111<1<<<<<<,,,,,,>>:::::;;;;;;;;:::::::>,,,,,,<<<<<<11111111111111111<<<<,,,,::;;--***&%&133",
"331&%&**=---;:::>,,<<<<<<1111111111111<<<<<<,,,,,,,>>::::;;;;;;;;;;;;;;:::::>,,,,,,,<<<<<<<<<<11111111<<<<<<,,,,:::;---**&&%&133",
"331&%&***---;;::>,,,<<<<<1111111<<111<<<<<<<,,,,,>::::::;;;;;---;;;;;;;;;:::::>,,,,<,<<<<<<<<<11111111<<<<<,,,,>::;;---***&%&133",
"332&%&&**---;;::,,,,<<<<<<<<1<<1<<<<<<<<<,,,,,,,>:::::;;;;------------;;;;;:::>>,,,,,<<<<<<<<<<<<<11<<<<<<<,,,,>::;;---**&&%%133",
"342&%&&**---;;::,,,,,<<<<<<<<1<<<<<<<<<<,,,,,,,>:::::;;;----------------;;;;:::>>,,,,,<<<<<<<<<<<<1<<<<<<<,,,,,>::;;---**&&%%243",
"443&$%&**=--;;:::>,,,,,<<<<<<<<<<<<<<<<<,,,,,,>:::;;;;;-------------------;;;:::::>,,,,,,,<<<<<<<<<<<<<<<<,,,,>:::;;--=**&%%%343",
"443%#%&**=---;;:::,,,,,<,<<<<<<<<<<,<<,,,,,>,>::;;;;---------======---------;;:::::>,,,,,,,,<<<<<<<<<<<<,<,,,,:::;;---=**&%$%344",
"443%#%&***--;;;:::,,,,,<<<<<<<<<<<,,<,,,,,,>::::;;;-------==********==-------;;;::::>,,,,,,,<<<<<<<<<<<<,,,,,,:::;;---***&%$%344",
"443%#%&***---;;:::,,,,,,,<<,<<<<<<,,,,,,,>>::::;;;------=**************=------;;;:::>>>,,,,,,,,<<<,<,,,,,,,,,>:::;;---***&%$%344",
"453%#%&***---;;::::>,,,,,<,,,,,,<,,,,,,,>::::;;;;------=****************=------;;;;::>>>>,,,,,,,<<,<,<<,,,,>>::::;;---***&%#%354",
"553%#%&***---;;;:::>,,,,,,,,,,,,,,,,,,,>:::::;;;-----=*********&**********=-----;;;;:::>:>,,,,,,,,,,,,,,,,,>::::;;----**&&%#%355",
"553%#%&&**=---;;;:::>,,,,,,,,,,,,,,,,>::::::;;------=********&&&&&&********=------;;::::::,,,,,,,,,,,,,,,,,,>::;;;---=**&&%#%355",
"553%#%&&***---;;::::>>,,,,,,,,,,,,,,:::::::;;------=*******&&&&&&&&&&&******=------;;::::::>,,,,,,,,,,,,,,>,>::;;;---=**&&%#%355",
"553%#%%&***----;::::::>,>,>,,,,>,,,::::::;;;------=******&&&&&&&&&&&&&&&*****==-----;;;::::::>,,,,,,>>,,,>,>:::;;;---***&%%#%355",
"563%#%%&***----;;:::::,,>>>,,,>>,,>>::::;;;;-----=****&&&&&&%%%%%%%%%&&&&******-----;;;:::::::>>,,,,>>>,,>>:::;;;;---***&%%#%365",
"664%#%%&***----;;:::::>,,,,,,,>>>>:::::;;;------******&&&%%%%%%%%%%%%%%&&&******------;;;:::::::>>,,>>>>>:::::;;;----***&%$#%466",
"774%#$%&***=----;;;:::>>>>>:>>:::::::;;;;------******&&&%%%%%%%$%%$%%%%%&&&&****------;;;;::::::::,,>::>::::::;;----=***&%$#%477",
"774%#$%&&**=----;;;::::::>::::::::::;;;;;-----=*****&&%%%%%$%$$$$##$%%%%%&&&*****=------;;;::::::>::>>>:::::::;;----=**&&%$@%477",
"774%##%&&***----;;;;:::::::::::::::;;;;;-----=*****&&%%%%$##########%%%%%%&&&&****=------;;;:::::::::::::::::;;;----***&&%##%477",
"774%##%&&***----;;;::::::::::::::;:;;;;-----*****&&&&%%%%%$$##########$%%%%&&&&****=------;;;;;:::::::::::::;;;-----***&&%##%477",
"784%@#%%&***=---;;;;::::::::::::;:;;;------=****&&&%&%%%$$#############$%%%%%&&*****=------;;;;;:::::::::::;;;;;---=***&%%#@%477",
"885%@#%%&***=-----;;;;;;:::;::::;;;;;-----=*****&&%%%%%$######@@@@#####$#$%%%%&&*****=------;;;;;:::::::;;;;;;;----=***&%%#@%588",
"885%@#%%&****-----;;;;:;::;;:;:;;;;------=*****&&&%%%%$#######@@@@@#######$%%%&&&*****=-----;;;;;;;:::::;;;;;;;---=****&%%#@%588",
"885%@#%%&&***=----;;;;;;::;;;;;;;;------=*****&&&%%%%#####@@@@@@@@@@#######%%%%&&&*****=-----;;;;;;;;;::;;;;;;-----***&&%%#@%588",
"885%@#$%&&***=----;;;;;;;;;;;;;;-------=*****&&&%%%%$####@@@@@@@@@@@@######$%%%%&&&*****=-----;;;;;;;;;;;;;;;-----=***&%%$#@%588",
"885%@#$%%&***=-----;-;;;;;;;;;;--------******&&&%%%$$#####@@@@@@@@@@@@@@####$%%%&&&&*****------;;;;;;;;;;;;;------=***&&%$#@%588",
"885%@##%&&&***-------;;;;;;;;;--------=*****&&&%%$$#####@@@@@@@@@@@@@@@@@####$%%%&&&*****=-------;;;;;;;;;;;------****&&%##@%588",
"886%@##%%&&***=-------;;;;;--;-------=*****&&&%%%%######@@@@@@@@@@@@@@@@#####$%%%%&&&*****=----------;;;;;-------=****&%%##@%688",
"886$@##%%&&***=---------;;----------=*****&&&&%%$######@@@@@@@@@@@@@@@@@@#####%%%%%&&&*****=----------;;---------=***&&%%##@%688",
"897$@##%%&&****--------------------=******&&&%%$######@@@@@@@@@@@@@@@@@@@@@####$$%%%&&&*****=--------------------****&&%%##@%798",
"997$@@#%%%&****=------------------=******&&%%%%$####@@@@@@@@@@@@@@@@@@@@@@@@#####%%%&&&&*****=------------------=****&&%%##@$799",
"997$@@#$%&&&***=-----------------=******&&&%%%%$###@@@@@@@@@@@@@@@@@@@@@@@@#@###$%%%%&&&******=-----------------=****&&%$#@@$799",
"997$@@#$%%&&****=---------------=******&&&%%%%$####@@@@@@@@@@@@@@@@@@@@@@@@@@####$%%%%&&&******==--------------=****&&%%$#@@$799",
"998$@@##%%&&******-------------=******&&&%%%%%$####@@@@@@@@@@@++++@@@@@@@@@@######%%%%&&&*******=-------------=*****&&%%##@@$799",
"907#@@##%%&&*******=----------=******&&&&%%%%%$####@@@@@@@@@@+@@++@@@@@@@@@@@@####$%%%%&&&*******=-----------=*****&&&%$##@@$709",
"0q8#@@##%%&&******=--------=-=******&&&&%%%%$####@@@@@@@@@@@@@@@+++@@@@@@@@@@@@###$%%%%%&&&&******=-=--------=******&&%$##@@#8q0",
"qq8#@@@#$%%&&******===--===*********&&&&%%%$######@@@@@@@@@@@@@@+++@@@@@@@@@@@@###$%%%%%&&&&*********==---===******&&%%##@@@#8qq",
"qq8#@@@#$%%&&&******=====*=*********&&&%%%%#######@@@@@@@@@@@@++@@+@@@@@@@@@@@@#####$%%%%&&&&********======*******&&&%%##@@@#8qq",
"qq8#@@@##%%&&&&********************&&&&%%%%$####@@@@@@@@@@@@++++@@@@@@@@@@@@@@@@####$%%%%&&&&********************&&&%%%##@@@#8qq",
"qq8#+@@##%%%&&&*******************&&&%%%%%%$####@@@@@@@@@@@@@+++@@+@@@@@@@@@@@@#####$%%%%%&&&&&******************&&&&%%$#@@+#8qq",
"qq8#+@@##$%%&&&******************&&&%%%%%%$###@@@@@@@@@@@@@@@@++++@@@@@@@@@@@@@@@@####$%%%%%&&&******************&&&%%$##@@@#8qq",
"qq8#@@@@#$$%%&&&***************&&&&%%%%%$#####@@@@@@@@@@@++++@@+++++@@@@@@@@@@@@@@#####$%%%%%&&&&***************&&&&%%$#@@@@#8qq",
"qq8#+@@@##$%%&&&***************&&&%%%%%$$######@@@@@@@@@@+++@@++++++@@+@@@@@@@@@@@#####$$%%%%%&&&***************&&&%%%$#@@@+#8qq",
"qq8#+@@@##%%%%&&&&&********&&&&&&&%%%%%$#####@@@@@@@@@@@@@@+++@@++++@@@@@@@@@@@@@@@#####$%%%%%&&&&&&***********&&&%%%###@@@+#8wq",
"qq8#++@@###%%%&&&&&*&&&*&*&&&&&&%%%%%%$#####@@@@@@@@@@@@@@@+++@@@+++@@@@@@@@@@@@@@@@######$%%%%%%&&&&&&&****&&&&&&%%$###@@@+#9ww",
"ww9#+@@@@##$$%%&&&&&&&&&&&&&&&&&%%%%$#$####@@@@@@@@@@@@@@@++++@++@++++++@@@@@@@@@@@@@######$$%%%%%&&&&&&&&&&&&&&%%%%$##@@@@+#9ww",
"ww9#+@@@@##$%%%%&&&&&&&&&&&&%%%%%%%$######@@@@@@@@@@@@@@@@+++++++++++++@@@@@@@@@@@@@########$$%%%%&&&&&&&&&&&&%%%%%%###@@@@+#9ww",
"ww9#++@@@@##$%%%%%&&&&&&&&&&%%%%%$$#$####@@@@@@@@@@@@@++@+++@++++++@+++@@@@@@@@@@@@@@@@#####$%%%%%%%%&%&&&&&&%%%%%%$##@@@@++#9ww",
"ww9#++@@@@###$$%%%%%%%%%%%%%%%%%#######@@@@@@@@@@@@@+++@++++++++++++++++@+++@@@@@@@@@@@#@####$%%$%%%%%%%%%%%%%%%%%$##@@@@@++#9ew",
"ee9#O+@@@@@###$$%%%%%%%%%%%%%%$%######@@@@@@@@@@@@++++@++++++++++++++++++@+@++@@@@@@@@@@@########$%%%%%%%%%%%%%%%%###@@@@@++#9ew",
"ee0#++@@@@@####$##$$$%%%$$%$%#$#######@@@@@@@@@@@@@++++++++++++++++++++++++++++@@@@@@@@@@@#########$$%$$$%%%%$$$%####@@@@++O#9ee",
"ee0#O++@@@@@@#####%%%$$$$$#########@@@@@@@@@@@@++++++++++++++++++++++++++++++++++@@@@@@@@@@@@@########%%$$$%%$#######@@@@++O#9ee",
"eeq#O+++@@@@@@##################@#@@@@@@@@@@@+++++++++++++++++++++++++++++++++++++@@@@@@@@@@@@@@###################@@@@@+++o#qew",
"wrq&o++++@@@@@@@@############@#@@@@@@@@@@@@@+++++++++++++++++OOOOOO+O+++++++++++++++++@@@@@@@@@@@@@############@#@@@@@@@+++o&qew",
"wee-oO+++@@@@@@@@@##@@@@@@@@@@@@@@@@@@@@@@++++++++++OOOO++++oooooooooOOO++++++++++++++++@@@@@@@@@@@@@@@#@@@@@@@@@@@@@@@++++o-eew",
"qrt1oo++++++@@@@@@@@@@@@@@@@@@@@@@@@@@++++++++++++++OoooOOOOOOooOO+OoOOOOOO+++O+++++++++++@@@@@@@@@@@@@@@@@@@@@@@@@@@@++++Oo1trq",
" et9@oo++++++@@@@@@@@@@@@@@@@@@@+@++++++++++++++OOO+oooooooooooooooooooooooOOOOO++++O+++++++++@@+@@@@@@@@@@@@@@@@@+++++++Oo@9te ",
" ett:ooOO++++++@@@@@@@@@@+++@@+++++++++OOOOOOOOOooOOooooooooooooooooooooooooooooOOooO+O+OO++++++++@@@@@@@@@@@@@@+++++++OOOo>tte ",
"  tt0$ooOOOO++++++++++@++++++++++O+OOOOooooooooooooooooooooooooooooooooooooooooooooooooOoooOO+++++++++++++++++++++++O+OOoo$qtt  ",
"  ett5@ooOOOO+++++++++++++++O+OOooooooooooooooooooooooooooooooooooooooooooooooooooooooooooooooOOoo++++++++++++++O++oOOOoo@5tte  ",
"   ttt3@oooooooOOOoOOOOOOOooooooooooooooooooooooooooooooooooooooooooooooooooooooooooooooooooooooooooooOOOOOOOOOOoOoooooo@3ttt   ",
"   wtyt5$oooooooooooooooooooooooooooooooooooooooooooXXooXXXXooooooooXXXXoXXoooooooooooooooooooooooooooooooooooooooooooo$5tytw   ",
"    etyyq,@oooooooooooooooooooooooooXXXXXXXXXXX..................................XXXXXXXXoooXXXoooooooooooooooooooooo@,qyyte    ",
"     wtyyyq3-%#@@@@@@@@@@@@@@@@@@@@@@@@@@@@@@@@@@@@@+++@++@@++@@@@+@+@++@@++@@@@@@@@@@@@@@@@@@@@@@@@@@@@@@@@@@@@@#&-3qyyytw     ",
"       tyyuiyewwqwwwwwwwqwwwwwwwwwwwwwwwwwwwqwwwwwqwwwwwwwwwqqwwwwqqwwwwwwqqwwwwwwqwwwwwwwwwwwwwwwwwwwwwqwwwwwwwwweyiuyyt       ",
"         tyuuiiiiiiiuuuiiiiiuiiiiiuuuiiiiiiiuuuuiuuiuiiiiiiiuuuiiuuiiiiiiiiiuuiiiuuiuiuiiiuuuiiiiiiuuiiiiiiiuuuiiiiuuyte        ",
"           ettyiiiiiuuiiiiuuuuiiiiuuuiiiiiiiuuuuiuiiiiuuiiiiuuuiuuuiiiiiiuuiuiiiiuiiiiuuiiuuuiiiiiuuuuiiiiiiuuiiiytte           "
};
