/* XPM */
static char *adobe_dreamweaver_png_ico_5[] = {
/* columns rows colors chars-per-pixel */
"72 72 173 2 ",
"   c None",
".  c #052701",
"X  c #052C00",
"o  c #063400",
"O  c #083702",
"+  c #063C00",
"@  c #074200",
"#  c #084600",
"$  c #084C00",
"%  c #11420B",
"&  c #14480E",
"*  c #095300",
"=  c #0A5B00",
"-  c #105E07",
";  c #0D6302",
":  c #116606",
">  c #126807",
",  c #136708",
"<  c #156B0A",
"1  c #196E0E",
"2  c #1A700F",
"3  c #1C6E11",
"4  c #1D7312",
"5  c #207616",
"6  c #227817",
"7  c #24751A",
"8  c #28771E",
"9  c #257B1A",
"0  c #287E1D",
"q  c #2C6B24",
"w  c #2E7325",
"e  c #2D7B22",
"r  c #317D27",
"t  c #36742E",
"y  c #337E2A",
"u  c #397631",
"i  c #3C7B34",
"p  c #417F39",
"a  c #2A801F",
"s  c #2D8322",
"d  c #308625",
"f  c #328927",
"g  c #34832B",
"h  c #38832F",
"j  c #358C2A",
"k  c #388F2D",
"l  c #3A912E",
"z  c #3C8532",
"x  c #3D8C33",
"c  c #3C9331",
"v  c #408F36",
"b  c #42813A",
"n  c #458A3C",
"m  c #419636",
"M  c #429A37",
"N  c #45943B",
"B  c #48973E",
"V  c #459C3B",
"C  c #49993E",
"Z  c #49A13E",
"A  c #4C8445",
"S  c #4B8B43",
"D  c #518B49",
"F  c #4C9443",
"G  c #4D9A43",
"H  c #509C46",
"J  c #54924D",
"K  c #539D4A",
"L  c #589B4F",
"P  c #578A51",
"I  c #5B8E55",
"U  c #5B9254",
"Y  c #5B9C52",
"T  c #5F9658",
"R  c #5F9858",
"E  c #638C5E",
"W  c #63945D",
"Q  c #639C5C",
"!  c #4DA442",
"~  c #50A745",
"^  c #52AA47",
"/  c #54A649",
"(  c #55AD4A",
")  c #59AB4F",
"_  c #59B14E",
"`  c #5CA453",
"'  c #5DAE53",
"]  c #5DB352",
"[  c #64A55C",
"{  c #65A95C",
"}  c #61B456",
"|  c #63B359",
" . c #65BA5A",
".. c #68BF5D",
"X. c #679661",
"o. c #6A9464",
"O. c #6A9C64",
"+. c #739B6E",
"@. c #769E71",
"#. c #7A9E76",
"$. c #69A761",
"%. c #6CAC64",
"&. c #6EA268",
"*. c #73A26D",
"=. c #72AD6B",
"-. c #76B26E",
";. c #7AA375",
":. c #76A870",
">. c #7FAB79",
",. c #7CB375",
"<. c #7FB579",
"1. c #68C05D",
"2. c #80A47B",
"3. c #82AD7D",
"4. c #82B57B",
"5. c #82BA7B",
"6. c #86A781",
"7. c #86A981",
"8. c #89AC85",
"9. c #8DAF88",
"0. c #86B481",
"q. c #89B484",
"w. c #8ABC84",
"e. c #8FB48A",
"r. c #8EBC88",
"t. c #92B48D",
"y. c #91BB8B",
"u. c #96B692",
"i. c #95BC91",
"p. c #99BB95",
"a. c #9DBE99",
"s. c #93C18D",
"d. c #96C291",
"f. c #9AC495",
"g. c #9CC897",
"h. c #9EC499",
"j. c #9FC999",
"k. c #A1C19C",
"l. c #A2C39D",
"z. c #A4CA9F",
"x. c #A4CD9F",
"c. c #A3C99E",
"v. c #A5C6A1",
"b. c #A6C9A1",
"n. c #A6C9A2",
"m. c #A8CDA3",
"M. c #A9CBA5",
"N. c #AACAA6",
"B. c #A9CBA6",
"V. c #A9CCA5",
"C. c #AACDA6",
"Z. c #ABCDA7",
"A. c #AACDA6",
"S. c #ACCEA7",
"D. c #AACCA6",
"F. c #ABCBA8",
"G. c #ADCFA9",
"H. c #ADCEA8",
"J. c #ADCEA9",
"K. c #ACD0A7",
"L. c #AED1AA",
"P. c #AED1AA",
"I. c #AED1AA",
"U. c #B0D3AB",
"Y. c #B1D3AC",
"T. c #B1D4AD",
"R. c #B1D5AD",
"E. c #B2D5AE",
"W. c #B3D5AE",
"Q. c #B1D3AD",
"!. c #B4D6B0",
"~. c #B5D5B0",
"^. c #B7D8B3",
/* pixels */
"          * * * * * * * * * * * * * * * * * * * * * * * * * * * * * * * * * * * * * * * * * * * * * * * * * * * * * * * * * * * * * *           ",
"        * * * = = = = = = = = = = = = = = = = = = = = = = = = = = = = = = = = = = = = = = = = = = = = = = = = = = = = = = = = = = * * *         ",
"    = * = ; ; : : : > > > > > > > > > > > > > > > > > > > > > > > > > > > > > > > > > > > > > > > > > > > > > > > > > > : : : : : : ; = * =     ",
"    = = : > < < < 1 1 1 1 2 2 2 2 4 4 4 4 4 4 4 4 4 4 4 4 4 4 4 4 4 4 4 4 4 4 4 4 4 4 4 4 4 4 4 4 4 4 4 4 4 4 2 2 2 2 1 1 1 1 < < < > : = =     ",
"  = = : > < 1 1 2 4 4 4 4 4 4 5 5 6 6 6 6 6 6 6 5 6 6 6 6 6 6 6 6 6 6 6 5 6 6 6 6 6 6 6 6 6 6 6 5 5 6 6 6 6 6 5 5 5 5 4 4 4 4 4 1 1 < > : = =   ",
"- = ; : < 1 3 7 w t i p p b b i y e 0 9 0 0 0 0 0 0 0 0 0 0 0 0 0 0 0 0 0 0 0 0 0 0 0 0 0 0 0 0 0 0 0 0 0 0 0 0 0 0 9 9 9 6 5 4 4 4 1 < > ; = - ",
"; ; ; > < w +.7.t.p.a.k.k.k.k.a.t.3.O.S g s s s s s s s s s s s s s s s s s s s s s s s s s s s s s s s s s s s s s s a 0 0 9 6 5 4 2 < > ; ; ; ",
"; ; ; > < i k.V.V.V.V.S.G.G.P.P.P.P.P.b.q.Y j f f f f f f f f f f f f f f f f f f f f f f f f f f f f f f f f f d d s s s s 0 9 6 5 4 1 > ; ; ; ",
"; ; ; > < i h.M.V.G.P.V.m.m.V.P.Y.Y.P.P.Y.V.<.m j j j j j j j j j j j j j j j j j j j j j j j j j j j j j j j j j j f f d s s 0 9 6 4 1 > ; ; ; ",
"; ; ; > 1 i k.V.V.b.` G B C G ` -.d.P.Y.P.Y.Y.r.B k k k k k k k k k k k k k k k k k k k k k k k k k k k k k k k k k j j f d s s 0 6 4 1 > ; ; ; ",
": ; ; > 1 i k.V.G.f.k f j j k k l m { j.T.Y.Y.T.w.c l l l l l l l l l l l l l l l l l l l l l l l l l l l l l l l l k k j f d s 0 9 4 1 > ; ; : ",
": ; ; > 1 i k.V.G.g.c j k l l c c c l H f.T.T.T.U.%.l c c c c c c c c c c c c c c c c c c c c c c c c c c c c c c l l k j j f s a 9 5 2 > ; ; : ",
"> : ; > 1 i k.V.G.g.c j l l c c c c c c L z.T.T.T.f.V c c c c c c c c c c c c c c c c c c c c c c c c c c c c c l c l l k j f s a 9 5 2 > ; : > ",
"< : ; > 1 i k.V.G.g.c k l l c c c c c c c =.Y.T.T.Y.{ c c S J J J G c c c c c c c n J J J m c c c c c c v D J J Y m l l k j f s a 9 5 2 > ; : < ",
"< : ; > 1 i k.V.G.g.c k l l c c c c c c c F l.T.T.!.5.c c *.M.M.F.r.c c c c c c c @.M.M.M.` c c c c c c D a.M.M.f.m l l k j f s a 9 5 2 > ; : < ",
"1 , ; > 1 i k.V.G.g.c j l l c c c c c c c c 0.T.T.T.d.m c Y G.T.T.x.C c c c c c n t.T.T.!.-.c c c c c c W P.T.^.5.l l l k j f s a 9 4 1 > ; , 1 ",
"1 > ; > 1 i k.V.G.g.c j k l l c c c c c c c &.Y.T.T.m.C c N h.T.T.P.` l c c c c D v.T.T.T.s.c c c c c x ;.T.T.!.` l l k j j f s 0 9 4 1 > ; > 1 ",
"2 < ; : < i k.V.G.g.c j k l l l c c c c c l R G.T.T.K.G l c 3.T.Y.T.=.l c c c l o.Y.T.T.T.m.G l c c c v t.T.T.m.V l l k j f d s 0 9 4 1 : ; < 2 ",
"4 < = : < i k.V.G.f.x j k k l l l l l l l l J M.Y.Y.P.H l l Q P.Y.T.w.l l l l x 7.T.P.z.Y.Y.{ l l l l S l.T.!.w.l l k k j f d s 0 6 4 1 : = < 4 ",
"4 < = : < i h.V.S.f.x f j k k k l l l l l l J M.Y.U.P.H k l F c.T.T.g.m l l l n a.T.f.>.Y.T.<.l l l k W G.U.!.{ j k k j j f s s 0 6 4 1 : = < 4 ",
"4 < = : < i h.M.V.f.k f j j k k k k k k k k J M.U.U.K.G k k x e.T.U.V.H k k k I M.!.5.Q P.Y.f.c k k j ;.Y.Y.V.G j k j j f d s a 9 6 4 < : = < 4 ",
"5 1 = ; < i h.M.V.f.j f f j j j k k k k k j U V.P.Y.m.B j k j *.Y.P.Y.{ j j j @.Y.!.%.F b.Y.V.H j k z e.Y.T.s.k j j j f f d s 0 9 5 4 < ; = 1 5 ",
"6 1 = ; > i a.M.V.f.j d f j j j j j j j j j X.G.P.Y.j.c j j j J M.P.Y.<.j j z t.Y.P.H x p.U.Y.%.j j S k.P.!.%.j j j j f d s s 0 9 5 4 < ; = 1 6 ",
"6 3 = ; > u a.M.V.f.j s f f f j j j j j j g ;.U.P.Y.r.j j j f x p.P.P.s.k f S l.Y.f.x j 3.Y.Y.w.j f I V.P.P.G f j f f f d s s 0 9 4 2 < ; = 3 6 ",
"9 3 = ; > u a.b.V.f.j s d f f f j j j j f z t.P.P.E.%.f f f f g >.P.P.c.m d W G.Y.<.f f Q G.P.g.c g +.P.Y.f.k f f f f d s s a 0 6 4 1 > ; = 3 9 ",
"9 3 = ; > u a.b.M.f.g s s d f f f f f f f P b.P.P.P.G f f f d s T V.G.S.K d 2.G.Y.Y s f S l.P.V.H g 8.P.Y.,.f f f f d s s s 0 9 6 4 1 > ; = 3 9 ",
"0 3 = ; : u a.b.M.f.g s s s d d f f f f z 6.P.G.Y.r.f d d d s s n h.G.G.$.i u.P.c.x s s g e.P.P.%.z p.P.Y.K d f d d s s s a 0 9 5 4 1 > ; = 3 0 ",
"0 3 = ; ; u a.b.M.f.g s s s s d d d f g o.M.G.G.Y.L s s s s s s g q.G.G.<.A v.Y.4.s s s s &.G.P.4.D v.P.g.x d d d s s s s 0 0 9 5 4 1 : ; = 3 0 ",
"a 4 * ; ; t a.b.M.f.g a s s s s s s y E k.G.V.Y.4.s s s s s s s 0 O.V.V.y.o.M.U.Y a s s s D b.G.d.o.V.Y.4.s d s s s s s s 0 9 6 4 4 < : ; * 3 0 ",
"s 4 * = ; t a.b.M.d.d 0 a a s s y A #.v.G.V.Y.d.j s s s s a 0 0 9 S l.V.h.e.V.z.x 0 a s s h i.G.l.9.V.Y.Y s s s s s s s a 0 9 6 4 2 < : = * 4 s ",
"s 5 * = ; t a.b.b.h.T D D D I o.6.a.G.V.G.Y.s.x a s a a 0 0 0 0 9 y t.M.b.b.G.q.0 0 0 0 a e ;.G.V.V.G.b.x s s s s s s a 0 0 9 5 4 1 < ; = * 5 s ",
"s 5 * = ; t a.b.b.b.b.v.v.v.M.V.G.V.G.Y.G.,.j a a 0 0 0 0 9 9 9 6 7 *.M.b.b.G.Q 6 9 9 0 0 0 U M.V.V.G.w.s s s s s s a 0 0 9 6 5 4 1 < ; = * 5 s ",
"d 7 * = ; t a.b.b.M.M.V.V.V.G.G.Y.P.z.4.F s a 0 0 0 0 9 9 9 6 6 5 4 D v.M.M.b.z 5 6 9 9 9 9 z h.G.G.Y.[ a s s s a a 0 0 0 9 6 4 4 1 > ; = * 7 d ",
"f 7 * = ; w >.r.i.f.h.g.g.f.d.w.=.L x a 0 0 0 0 0 9 9 9 6 5 5 4 4 4 y >.4.0.&.6 4 5 5 6 9 9 e :.w.w.0.x 0 a a a 0 0 0 0 9 9 5 4 4 1 > ; = * 6 f ",
"f 7 * = ; > 1 5 8 e g g g g s 0 0 0 0 0 0 0 0 9 9 9 6 6 5 4 4 4 4 2 1 4 4 4 4 4 4 4 4 5 6 6 9 0 0 0 0 0 0 0 0 0 0 0 0 9 9 6 5 4 2 < : ; = * 7 f ",
"j 7 * = ; : < 1 4 4 5 6 9 9 9 0 0 0 0 0 0 9 9 9 6 6 5 4 4 4 4 1 1 1 < < < < 1 1 1 4 4 4 4 5 6 6 9 9 9 0 0 0 0 0 0 0 9 9 6 6 4 4 1 < : ; = * 7 j ",
"j 8 $ = ; : < 1 4 4 5 6 9 9 9 9 0 0 9 9 9 9 9 6 6 5 4 4 4 2 1 < < < > > > > < < < 1 2 4 4 4 5 6 6 9 9 9 9 9 0 0 9 9 9 9 6 5 4 4 1 < : ; = $ 8 j ",
"k 8 $ * = ; > 1 4 4 5 5 6 9 9 9 9 9 9 9 9 6 6 5 5 4 4 4 1 1 < > > : : : : : : > > < 1 1 4 4 4 5 5 6 6 9 9 9 9 9 9 9 9 6 5 5 4 4 1 > ; = * $ 8 k ",
"l 8 $ * = ; > < 2 4 4 5 6 6 9 9 9 9 9 6 6 6 5 4 4 4 2 1 < < > : ; ; ; ; ; ; ; ; : > < < 1 2 4 4 4 5 6 6 6 9 9 9 9 9 6 6 5 4 4 2 < > ; = * $ 8 l ",
"l 8 $ * = ; > < 1 4 4 4 5 6 6 6 6 6 6 6 5 5 4 4 4 2 1 < > : ; ; ; ; ; = = ; ; ; ; ; : > < 1 2 4 4 4 5 5 6 6 6 6 6 6 6 5 4 4 4 1 < > ; = * $ 8 l ",
"c 8 $ * = ; : < 1 2 4 4 5 5 6 5 6 6 5 5 4 4 4 4 2 1 < > : ; ; ; = = = = = = = = ; ; ; : > < 1 2 4 4 4 4 5 5 6 6 5 6 5 5 4 4 2 1 < : ; = * $ 8 c ",
"c e $ * = ; : < 1 1 4 4 4 5 5 5 5 5 4 4 4 4 4 1 1 < > : ; ; ; = = = * * * * = = = ; ; ; : > < 1 1 4 4 4 4 4 5 5 5 5 5 4 4 4 1 1 < : ; = * $ e c ",
"c e $ * = ; ; > < 1 4 4 4 4 4 4 4 4 4 4 4 4 1 1 < > : ; ; = = = * * * * * * * * = = = ; ; : > < 1 1 4 4 4 4 4 4 4 4 4 4 4 4 1 < > ; ; = * $ e c ",
"m e $ * = ; ; > < 1 2 4 4 4 4 4 4 4 4 4 2 1 1 < > : ; ; = = = * * * $ $ $ $ * * * = = = ; ; : > < 1 1 2 4 4 4 4 4 4 4 4 4 2 1 < > ; ; = * $ e m ",
"M e $ * = = ; : < 1 1 2 4 4 4 4 4 4 4 2 1 1 < > : ; ; = = = * * $ $ $ $ $ $ $ $ * * = = = ; ; : > < 1 1 2 4 4 4 4 4 4 4 2 1 1 < : ; = = * $ e M ",
"M e # $ * = ; : > < 1 1 2 2 4 4 4 2 1 1 1 < > : ; ; = = = * * $ $ $ $ $ $ $ $ $ $ * * = = = ; ; : > < 1 1 1 2 4 4 4 2 2 1 1 < > : ; = * $ # e M ",
"V e # $ * = ; ; > < 1 1 1 1 2 2 2 1 1 < < > : ; ; ; = = * * $ $ $ # # # # # # $ $ $ * * = = ; ; ; : > < < 1 1 2 2 2 1 1 1 1 < > ; ; = * $ # e V ",
"V r # $ * = ; ; : < < 1 1 1 1 1 1 1 < < > : ; ; ; = = * * $ $ $ # # @ # @ @ # # $ $ $ * * = = ; ; ; : > < < 1 1 1 1 1 1 1 < < : ; ; = * $ # r V ",
"V r # $ * = ; ; : > < < 1 1 1 1 1 < < > : ; ; ; = = * * $ $ $ # # @ @ @ @ @ @ # # $ $ $ * * = = ; ; ; : > < < 1 1 1 1 1 < < > : ; ; = * $ # r V ",
"Z y @ $ * = = ; ; > > < < < < < < < > : ; ; ; = = * * $ $ $ # # @ @ @ + + @ @ @ # # $ $ $ * * = = ; ; ; : > < < < < < < < > > ; ; = = * $ @ y Z ",
"Z y @ $ * * = ; ; : > > < < < < < > : : ; ; = = = * * $ $ # # @ @ + + + + + + @ @ # # $ $ * * = = = ; ; : : > < < < < < > > : ; ; = * * $ @ y Z ",
"! y @ $ * * = ; ; : : > > < > > > : : ; ; ; = = * * $ $ $ # @ @ + + + + + + + + @ @ # $ $ $ * * = = ; ; ; : : > > > > > > : : ; ; = * $ $ @ y ! ",
"! g @ # $ * = = ; ; : : > > > : : : ; ; ; = = * * $ $ $ # # @ @ + + + + + + + + @ @ # # $ $ $ * * = = ; ; ; : : : > > > : : ; ; = = * $ # @ g ! ",
"! g + # $ * = = ; ; ; : : : : : ; ; ; ; = = * * * $ $ # # @ @ + + + + + + + + + + @ @ # # $ $ * * * = = ; ; ; ; : : : : : ; ; ; = = * $ # + g ! ",
"~ g + # $ * = = ; ; ; ; ; ; ; ; ; ; ; = = = * * $ $ $ # # @ @ + + + + + + + + + + @ @ # # $ $ $ * * = = = ; ; ; ; ; ; ; ; ; ; ; = = * $ # + g ~ ",
"^ g + @ $ * * = = ; ; ; ; ; ; ; ; ; = = = * * * $ $ $ # @ @ + + + + + + + + + + + + @ @ # $ $ $ * * * = = = ; ; ; ; ; ; ; ; ; = = * * $ @ + g ^ ",
"^ h + @ $ $ * = = = ; ; ; ; ; ; ; = = = * * * $ $ $ # # @ @ + + + + + + + + + + + + @ @ # # $ $ $ * * * = = = ; ; ; ; ; ; ; = = = * $ $ @ + h ^ ",
"( z + @ # $ * * = = = ; ; ; ; = = = = * * * $ $ $ # # @ @ + + + + + + + + + + + + + + @ @ # # $ $ $ * * * = = = = ; ; ; ; = = = * * $ $ @ + z ( ",
"( z + + # $ * * = = = = = = = = = = * * * $ $ $ # # @ @ @ + + + + + + + + + + + + + + + @ @ # # $ $ $ * * * = = = = = = = = = = * * $ # @ + z ( ",
"( z + + # $ $ * * = = = = = = = * * * * $ $ $ $ # # @ @ + + + + + + + + + + + + + + + + @ @ # # $ $ $ $ * * * * = = = = = = = * * $ $ # + + z ( ",
"_ z + + @ # $ $ * * * * = = * * * * * $ $ $ $ # # @ @ + + + + + + + + + + + + + + + + + + @ @ # # $ $ $ $ * * * * * = = * * * * $ $ # @ + + z _ ",
"_ z o + @ # $ $ $ * * * * * * * * $ $ $ $ # # @ @ @ + + + + + + + + + + + + + + + + + + + + @ @ @ # # $ $ $ $ * * * * * * * * $ $ $ # @ + o z _ ",
"] z o + + @ # $ $ $ $ * * * $ $ $ $ $ $ # # @ @ @ + + + + + + + + + o + o o + + + + + + + + + @ @ @ # # $ $ $ $ $ $ * * * $ $ $ $ # @ + + o z ] ",
"] x o o + @ @ # $ $ $ $ $ $ $ $ $ $ # # @ @ @ + + + + + + + o + + o o o o o o + + + + + + + + + + @ @ @ # # $ $ $ $ $ $ $ $ $ $ # @ @ + + o x ] ",
"] N O o + + + @ # # # # # # # # # @ @ @ + + + + + + + + o o o o o o o o o o o o o o o o + + + + + + + + @ @ @ # # # # # $ # # # @ + + + o O N ] ",
"] / % o o + + + @ @ @ @ @ @ @ @ @ + + + + + + + o o o o o o o o o o o o o o o o o o o o o o o o + + + + + + + @ @ @ @ @ @ @ @ @ + + + o o % / ] ",
"' ] q o o o + + + + + + + + + + + + + + o o o o o o o o o o o o X X o o o o o o o o o o o o o o o o o o + + + + + + + + + + + + + + o o o q ] ' ",
"  } / & o o o o o o o + o o o o o o o o o o o o o o X X X X X X X X X X X X X X X X X X X X o X o o o o o o o o o o o o + o o o o o o o & / }   ",
"     .G & X X o o o o o o o o o o o X X X X X X X X X X X X X X X X X X X X X X X X X X X X X X X X X X X X o o o o o o o o o o o X X & G  .    ",
"    }  ./ q % o X X X X X X X X X X X X X X X X X X X X . . . . . . . . . . . . . . . . X X . X X X X X X X X X X X X X X X X X o % q /  .}     ",
"         . .) F n n n n n n n n n n n n n n n n n n n n n n n n n n n n n n n n n n n n n n n n n n n n n n n n n n n n n n n n F )  . .        ",
"          |  .....1.1.1.1.1.1.1.1.1.1.1.1.1.1.1.1.1.1.1.1.1.1.1.......1.1.1...1.1.1.1.1.1.1.1.1.1.1.1.1.1.1.1.1.1.1.1.1.1.1.1..... .|           "
};
