/* XPM */
static char *apport_png_ico_2[] = {
/* columns rows colors chars-per-pixel */
"32 32 131 2 ",
"   c None",
".  c #000001",
"X  c #050608",
"o  c #07080A",
"O  c #0A0B0D",
"+  c #121416",
"@  c #161818",
"#  c #1B1B1C",
"$  c #232324",
"%  c #292929",
"&  c #302F2E",
"*  c #353431",
"=  c #3A3836",
"-  c #3B3B3B",
";  c #44403D",
":  c #494740",
">  c gray31",
",  c #524E46",
"<  c #5C564C",
"1  c gray33",
"2  c #5E5B52",
"3  c gray37",
"4  c #645A51",
"5  c #6B6255",
"6  c #6C645E",
"7  c #71625F",
"8  c #766A5B",
"9  c #7D6A5E",
"0  c #6C6C6C",
"q  c #7D6E62",
"w  c #FF0100",
"e  c #FF0C00",
"r  c #FF1500",
"t  c #FF1D00",
"y  c #FF2300",
"u  c #FF2B00",
"i  c #FF3300",
"p  c #FF3E00",
"a  c #FF4300",
"s  c #FF4B00",
"d  c #FF5301",
"f  c #FF5C00",
"g  c #FF5417",
"h  c #FF6500",
"j  c #FF6B00",
"k  c #FF7300",
"l  c #FF7C00",
"z  c #FF7609",
"x  c #FF7E0A",
"c  c #FF7315",
"v  c #FF7D1C",
"b  c #FF6F22",
"n  c #FF682E",
"m  c #86765F",
"M  c #857461",
"N  c #8B7C64",
"B  c #AA7A6D",
"V  c #FF6D48",
"C  c #FF8401",
"Z  c #FF8C00",
"A  c #FF9400",
"S  c #FF9B01",
"D  c #FF990D",
"F  c #FF8711",
"G  c #FF9A17",
"H  c #FF981C",
"J  c #FFA401",
"K  c #FFAB00",
"L  c #FFA50D",
"P  c #FFB400",
"I  c #FFBB00",
"U  c #FFB511",
"Y  c #FF9A25",
"T  c #FF863B",
"R  c #FF9835",
"E  c #FF973D",
"W  c #FFA723",
"Q  c #FFAB27",
"!  c #FFA82B",
"~  c #FFA532",
"^  c #FFB434",
"/  c #FFB43D",
"(  c #FFC300",
")  c #FFCB00",
"_  c #FFD000",
"`  c #FFC32B",
"'  c #968467",
"]  c #9D8F6A",
"[  c #A68B6C",
"{  c #AD966F",
"}  c #B7976F",
"|  c #BD9371",
" . c #B1A176",
".. c #FF9C46",
"X. c #FA914F",
"o. c #FE9848",
"O. c #F38D5D",
"+. c #FF9B53",
"@. c #F79958",
"#. c #FFAB45",
"$. c #FFB94F",
"%. c #F2A058",
"&. c #FBBB50",
"*. c #D4896D",
"=. c #D79971",
"-. c #E79A68",
";. c #E99F68",
":. c #F59960",
">. c #F19A68",
",. c #D3A26E",
"<. c #DDB16B",
"1. c #D6B86F",
"2. c #C4A170",
"3. c #C9A371",
"4. c #E8A266",
"5. c #EBA866",
"6. c #F1AB60",
"7. c #E1B96B",
"8. c #F0BA60",
"9. c #FCC74F",
"0. c #FFD440",
"q. c #F8C358",
"w. c #FFDF76",
"e. c gray59",
"r. c #A09687",
"t. c #AC9D98",
"y. c #B6A586",
"u. c #A5A5A5",
"i. c gray75",
"p. c #BDBFC1",
"a. c #C5C5C5",
/* pixels */
"                                                                ",
"  w                                                             ",
"    w w                         u.0 e.i.                        ",
"    w w w w           )         3 . o @ 1                       ",
"      w w w w         ( I       - . . . -                       ",
"        w w w w e     P K K   p.# . . . 7                       ",
"        w w w e r t a A J S Q r.o . . X B                       ",
"          w e r y u i s k Z ~ M . . . @ *.g       ( ) _         ",
"            r y u i a s d h ..4 . . . - O.d C J K I (           ",
"            y u i a s d f h @.; . . . 9 T f l S J P I           ",
"              i p s d h j z 4.% . . O | v h j Z S K             ",
"                s d f j k F ,.+ . . & 5.x j h C A S             ",
"                d f j k l H } o . . 5 #.C k j k Z               ",
"                  h j l Z ! ' . . X { W Z l k j j d             ",
"                  h k C Z / 8 . . $ 7.L A C k j f s p i y r w   ",
"              l k h j C A &., . . < 9.J A Z l j f s a i y r e   ",
"          S Z l j f j C S 8.* . X ] ` J A Z l j f s a i y       ",
"      P K S Z l j h k C D <.# . @ 1.U J A C l j f s p i         ",
"      P K S Z l j h k l G 2.O . : q.J S Z C k h f s s           ",
"            Z C h f j l Y [ X . N ^ S A C l j h f l S           ",
"                s f h k R M . + 3.G Z C l k h h l A J           ",
"              p a d f j o.< . = 6.C l l k h h l Z S J P         ",
"              i p s d f X.6 + q E k k j h f f C A S K I (       ",
"            t u i p s d b :.=.-.c h h f f d s k   J P I ) _     ",
"          e r y u i a n >.;.+.v h f d d s a p                   ",
"          w e r t u V t.- % 8 %.x h a a p i i                   ",
"        w w w e r     - . . X [ Y     i i u y t                 ",
"        w w w       a.# . . . m $.      y t r r                 ",
"      w w             > . . @ y.          r e w                 ",
"                      a.0 2  .              w w                 ",
"                          w.0.                w                 ",
"                                                                "
};
