/* XPM */
static char *ardour_png_ico_1[] = {
/* columns rows colors chars-per-pixel */
"24 24 195 2 ",
"   c None",
".  c #5C0303",
"X  c #5B0B0B",
"o  c #5D0B0B",
"O  c #600000",
"+  c #600303",
"@  c #630303",
"#  c #650000",
"$  c #660000",
"%  c #680000",
"&  c #6B0000",
"*  c #6B0303",
"=  c #6D0000",
"-  c #6F0000",
";  c #6E0606",
":  c #610909",
">  c #680808",
",  c #6D0909",
"<  c #710000",
"1  c #720000",
"2  c #710303",
"3  c #730202",
"4  c #740101",
"5  c #760000",
"6  c #750505",
"7  c #780000",
"8  c #780101",
"9  c #7A0000",
"0  c #7D0000",
"q  c #7C0101",
"w  c #7F0000",
"e  c #7C0202",
"r  c #780505",
"t  c #7C0404",
"y  c #7E0505",
"u  c #7C0808",
"i  c #810000",
"p  c #830000",
"a  c #810202",
"s  c #810303",
"d  c #850000",
"f  c #840101",
"g  c #870000",
"h  c #860303",
"j  c #880000",
"k  c #890101",
"l  c #8A0000",
"z  c #8C0000",
"x  c #8E0000",
"c  c #8F0000",
"v  c #8E0202",
"b  c #8A0707",
"n  c #900101",
"m  c #920000",
"M  c #910202",
"N  c #940000",
"B  c #950000",
"V  c #960000",
"C  c #950303",
"Z  c #970505",
"A  c #980000",
"S  c #990000",
"D  c #9A0000",
"F  c #9B0000",
"G  c #9A0101",
"H  c #9D0000",
"J  c #9D0101",
"K  c #9E0000",
"L  c #9E0101",
"P  c #9F0202",
"I  c #9F0404",
"U  c #A00000",
"Y  c #A10000",
"T  c #A20000",
"R  c #A30000",
"E  c #A40000",
"W  c #A50000",
"Q  c #A60000",
"!  c #A70000",
"~  c #A30404",
"^  c #A90000",
"/  c #AA0000",
"(  c #AA0101",
")  c #AB0101",
"_  c #AC0000",
"`  c #AD0000",
"'  c #AD0101",
"]  c #AE0000",
"[  c #AB0707",
"{  c #A90D0D",
"}  c #B00000",
"|  c #B10000",
" . c #B30000",
".. c #B10202",
"X. c #B30202",
"o. c #B40000",
"O. c #B60000",
"+. c #B70000",
"@. c #B50202",
"#. c #B00404",
"$. c #B50707",
"%. c #BA0000",
"&. c #BB0000",
"*. c #B80202",
"=. c #BB0202",
"-. c #BD0000",
";. c #BE0000",
":. c #BF0101",
">. c #B00808",
",. c #B90909",
"<. c #BD0A0A",
"1. c #B71010",
"2. c #B81616",
"3. c #BC1515",
"4. c #BC1717",
"5. c #B41818",
"6. c #B91B1B",
"7. c #BC1B1B",
"8. c #C00000",
"9. c #C10000",
"0. c #C30000",
"q. c #C40000",
"w. c #C50000",
"e. c #C70000",
"r. c #C50202",
"t. c #C30707",
"y. c #C80000",
"u. c #C90000",
"i. c #CA0000",
"p. c #CB0000",
"a. c #C80303",
"s. c #CD0000",
"d. c #CF0000",
"f. c #CE0101",
"g. c #C10A0A",
"h. c #D10000",
"j. c #D30000",
"k. c #D30101",
"l. c #D60101",
"z. c #D70101",
"x. c #D50303",
"c. c #D20404",
"v. c #D90000",
"b. c #DB0101",
"n. c #D00808",
"m. c #DF0D0D",
"M. c #DC0E0E",
"N. c #C11717",
"B. c #CF1111",
"V. c #CD1414",
"C. c #C11919",
"Z. c #C01A1A",
"A. c #C51818",
"S. c #C41A1A",
"D. c #C51A1A",
"F. c #C01E1E",
"G. c #C41E1E",
"H. c #C71E1E",
"J. c #C81818",
"K. c #CB1818",
"L. c #C91B1B",
"P. c #C81C1C",
"I. c #CA1D1D",
"U. c #CC1C1C",
"Y. c #CF1C1C",
"T. c #CC1E1E",
"R. c #DA1212",
"E. c #DE1010",
"W. c #D71B1B",
"Q. c #D21C1C",
"!. c #D01E1E",
"~. c #D31F1F",
"^. c #D51C1C",
"/. c #D61F1F",
"(. c #D91818",
"). c #DB1F1F",
"_. c #DE1E1E",
"`. c #E10808",
"'. c #E30808",
"]. c #E10E0E",
"[. c #E31A1A",
"{. c #E01D1D",
"}. c #E21C1C",
"|. c #E51C1C",
" X c #E71C1C",
".X c #EA1919",
"XX c #E91A1A",
"oX c #E81D1D",
"OX c #D92020",
"+X c #EA2020",
"@X c #EC2020",
"#X c #ED2121",
"$X c #EF2020",
"%X c #EF2121",
"&X c #F52525",
/* pixels */
"                                                ",
"                      o X                       ",
"                      + .                       ",
"                    , # + :                     ",
"                    < % # +                     ",
"                  u 5 < = % >                   ",
"                  p 0 8 5 = %                   ",
"                b g p y r 5 < ;                 ",
"                M x k     0 8 <                 ",
"              Z A N x     p 0 8 6               ",
"              K K A         g p 0               ",
"            ~ E E K         k k p y             ",
"            ` ` ^ K         k x k g             ",
"          ..@.@...E E T K A N N M x g           ",
"          ;.;.&.@.@...` ^ E T K A N M           ",
"        a.w.8.8.;.&.@.@...` ^ E T A N N         ",
"        f.a.a.w.w.8.;.&.&.....` E T K A         ",
"      x.j.j.f.f.a.a.w.t.g.<.,.$.#.^ E T I       ",
"      b.b.x.x.j.c.n.B.V.K.K.A.N.3.1.>.[ {       ",
"    '.'.].M.E.M.R.(.W./.!.Y.Y.K.A.C.3.2.5.      ",
"    XXXXoX X X[.}.}._.).OX/.!.!.Y.I.A.C.7.6.    ",
"    #X#X#X#X+X                      I.G.G.F.    ",
"  &X                                            ",
"                                                "
};
