/* XPM */
static char *brave_grayed_png_ico_0[] = {
/* columns rows colors chars-per-pixel */
"16 16 101 2 ",
"   c None",
".  c #352012",
"X  c #352013",
"o  c #372214",
"O  c #3E231A",
"+  c #3B2618",
"@  c #3D2419",
"#  c #3D2719",
"$  c #3D281A",
"%  c #3F281B",
"&  c #3E2A1B",
"*  c #3F281C",
"=  c #43281F",
"-  c #422C1F",
";  c #432E20",
":  c #442E20",
">  c #483124",
",  c #4B3327",
"<  c #4D3929",
"1  c #52352C",
"2  c #533A2E",
"3  c #523C2D",
"4  c #593F34",
"5  c #574432",
"6  c #5A4233",
"7  c #5B4236",
"8  c #61473A",
"9  c #624B3C",
"0  c #684B41",
"q  c #684C41",
"w  c #6B5945",
"e  c #705747",
"r  c #705748",
"t  c #715649",
"y  c #77594E",
"u  c #795D50",
"i  c #7D6355",
"p  c #83685A",
"a  c #846959",
"s  c #846A59",
"d  c #86725E",
"f  c #86735E",
"g  c #8B6F61",
"h  c #8B7161",
"j  c #8D7163",
"k  c #8D7263",
"l  c #8C7763",
"z  c #927866",
"x  c #927968",
"c  c #957A6A",
"v  c #917E68",
"b  c #937D6A",
"n  c #967D6B",
"m  c #977D6D",
"M  c #98806E",
"N  c #99806F",
"B  c #9C816F",
"V  c #9E826F",
"C  c #9A8170",
"Z  c #9B8270",
"A  c #9C8371",
"S  c #9E8370",
"D  c #9F8370",
"F  c #9E8371",
"G  c #9D8372",
"H  c #9E8372",
"J  c #998570",
"K  c #9D8472",
"L  c #9E8472",
"P  c #9F8472",
"I  c #9E8473",
"U  c #9E8573",
"Y  c #9F8574",
"T  c #9F8674",
"R  c #9B8872",
"E  c #9C8973",
"W  c #A08572",
"Q  c #A08775",
"!  c #A28A76",
"~  c #A38B77",
"^  c #A28C77",
"/  c #A38C78",
"(  c #A38D78",
")  c #A38E78",
"_  c #A48F79",
"`  c #A58F79",
"'  c #A68F7A",
"]  c #A4917A",
"[  c #A7907B",
"{  c #A6917B",
"}  c #A5937B",
"|  c #A6937C",
" . c #A7957D",
".. c #AA967F",
"X. c #AB967F",
"o. c #AA977F",
"O. c #AC9A81",
"+. c #AD9982",
"@. c #B09D85",
"#. c #B2A087",
"$. c #B3A188",
/* pixels */
"          V D D D D V           ",
"        D U U U U U U D         ",
"    D U U U U U U U U U U D     ",
"    D m Y Y U D D U Y Y m D     ",
"  U k g C N Q C C Q N C g k U   ",
"W c y k h u n ~ ~ n u h k y c W ",
"V p q N ~ x x [ [ x x ~ N 0 p V ",
"z t 1 i ` [ ` +.+.` [ ` i 1 t z ",
"s 8 = 4 ( ^ ( $.$.( ^ ( 4 = 8 s ",
"t 2 O 7 [ v J [ [ J v [ 7 O 2 e ",
"6 > @ 9 o.[ l +.+.l [ o.9 @ > 6 ",
"  > % 3 | @.[ R R [ @.| 3 * >   ",
"    - ; v o.E f f E o.v ; -     ",
"    : % < f  .#.#. .f < % :     ",
"        + % 5 w w 5 % +         ",
"          @ o X X o @           "
};
