/* XPM */
static char *brave_browser_tor_png_ico_3[] = {
/* columns rows colors chars-per-pixel */
"48 48 187 2 ",
"   c None",
".  c #0F0019",
"X  c #11001D",
"o  c #150024",
"O  c #180426",
"+  c #1A012B",
"@  c #1E0033",
"#  c #200236",
"$  c #210833",
"%  c #23013B",
"&  c #26093B",
"*  c #290A3F",
"=  c #270041",
"-  c #290045",
";  c #2C0A43",
":  c #2D014C",
">  c #330A4F",
",  c #2F0150",
"<  c #320154",
"1  c #35015A",
"2  c #3C0B5E",
"3  c #350C52",
"4  c #3E145B",
"5  c #391255",
"6  c #3B0163",
"7  c #3F0169",
"8  c #40016C",
"9  c #420E66",
"0  c #441764",
"q  c #4C196F",
"w  c #4A176E",
"e  c #440173",
"r  c #470178",
"t  c #49017B",
"y  c #4E0A7D",
"u  c #491070",
"i  c #4F1C73",
"p  c #551D7C",
"a  c #501C74",
"s  c #4D0182",
"d  c #500486",
"f  c #540F84",
"g  c #54018A",
"h  c #5B178B",
"j  c #570193",
"k  c #580295",
"l  c #5E0E96",
"z  c #5C029B",
"x  c #5F1494",
"c  c #6A1E9F",
"v  c #5C2384",
"b  c #62258B",
"n  c #62288B",
"m  c #662693",
"M  c #662991",
"N  c #692B94",
"B  c #6B2A98",
"V  c #5F02A1",
"C  c #6102A4",
"Z  c #6602AD",
"A  c #6804AE",
"S  c #6A0BAC",
"D  c #6B1BA3",
"F  c #6D15AA",
"G  c #6C02B6",
"H  c #6E02B9",
"J  c #7002BD",
"K  c #7414B6",
"L  c #7427A9",
"P  c #7533A3",
"I  c #7A32AC",
"U  c #7E3BAD",
"Y  c #7E2BB9",
"T  c #7D33B0",
"R  c #7E40A9",
"E  c #7402C4",
"W  c #7702C8",
"Q  c #7A02CE",
"!  c #7C16C3",
"~  c #7F1BC4",
"^  c #7D02D2",
"/  c #823CB3",
"(  c #893EBE",
")  c #8639BC",
"_  c #8A45B9",
"`  c #821BCA",
"'  c #8902D7",
"]  c #8202DB",
"[  c #8A0FDF",
"{  c #861AD2",
"}  c #881DD3",
"|  c #8F1CDF",
" . c #8926CE",
".. c #8D35CB",
"X. c #8822D0",
"o. c #8E2BD4",
"O. c #922ED8",
"+. c #8F32D1",
"@. c #983FD6",
"#. c #9539D5",
"$. c #8903E6",
"%. c #8805E3",
"&. c #9103E7",
"*. c #9804EE",
"=. c #931CE6",
"-. c #9319E8",
";. c #8F03F0",
":. c #9A04F3",
">. c #9604FB",
",. c #9804FF",
"<. c #9C0DFF",
"1. c #9304F7",
"2. c #9E14FF",
"3. c #9A1DF0",
"4. c #A017FF",
"5. c #A21CFF",
"6. c #9521E7",
"7. c #9826E7",
"8. c #9721EA",
"9. c #9B25EE",
"0. c #9F2FED",
"q. c #9629E2",
"w. c #9E39E4",
"e. c #9E26F1",
"r. c #A23EE7",
"t. c #A63EEE",
"y. c #A524FE",
"u. c #A826FF",
"i. c #A729FE",
"p. c #A92CFF",
"a. c #A22BF5",
"s. c #AC34FF",
"d. c #AE39FF",
"f. c #AF3DFF",
"g. c #AF3DFF",
"h. c #A532F5",
"j. c #B03EFF",
"k. c #B03CFF",
"l. c #9043C6",
"z. c #934CC5",
"x. c #954AC9",
"c. c #984FCA",
"v. c #9B52CD",
"b. c #9D4AD7",
"n. c #9F48DC",
"m. c #9B46D5",
"M. c #9F54D3",
"N. c #A14BDD",
"B. c #A75ADD",
"V. c #A95CDE",
"C. c #A041E3",
"Z. c #AB4FEB",
"A. c #A44AE2",
"S. c #AB57E6",
"D. c #AB5CE2",
"F. c #AD55EA",
"G. c #A941F0",
"H. c #AE4DF1",
"J. c #B141FF",
"K. c #B344FF",
"L. c #B346FF",
"P. c #B144FE",
"I. c #B549FF",
"U. c #B64DFF",
"Y. c #B64CFF",
"T. c #B652FB",
"R. c #B852FF",
"E. c #B954FF",
"W. c #BB59FF",
"Q. c #BC5BFF",
"!. c #B258F2",
"~. c #B165E6",
"^. c #B363EA",
"/. c #BA72EC",
"(. c #B761F3",
"). c #BC67F7",
"_. c #BB6AF3",
"`. c #BE61FF",
"'. c #BE62FE",
"]. c #BE6AF8",
"[. c #C166FF",
"{. c #C26BFE",
"}. c #C37BF5",
"|. c #C573FE",
" X c #C876FF",
".X c #C97AFF",
"XX c #CC82FF",
/* pixels */
"                                          *.:.:.:.:.*.                                          ",
"                                  :.>.,.,.,.,.,.,.,.,.,.,.>.:.                                  ",
"                            :.>.,.,.,.,.,.,.,.,.,.,.,.,.,.,.,.,.>.:.                            ",
"                        :.>.,.,.,.,.,.,.,.,.,.,.,.,.,.,.,.,.,.,.,.,.>.:.                        ",
"                      >.,.,.,.,.,.,.,.,.,.,.,.,.,.,.,.,.,.,.,.,.,.,.,.,.>.                      ",
"                  :.,.,.,.,.,.,.,.,.,.,.,.,.,.,.,.,.,.,.,.,.,.,.,.,.,.,.,.,.:.                  ",
"                :.,.,.,.,.,.,.,.,.,.,.,.,.,.,.,.,.,.,.,.,.,.,.,.,.,.,.,.,.,.,.:.                ",
"              :.,.,.,.,.,.,.,.,.,.<.<.<.<.<.<.<.<.<.<.<.<.<.<.,.,.,.,.,.,.,.,.,.:.              ",
"            :.,.,.,.,.,.,.,.<.<.<.<.<.<.<.<.<.<.<.<.<.<.<.<.<.<.<.<.,.,.,.,.,.,.,.:.            ",
"          :.,.,.,.,.,.,.<.2.2.2.2.2.2.2.2.2.2.2.2.2.2.2.2.2.2.2.2.2.2.<.,.,.,.,.,.,.:.          ",
"          ,.,.,.,.,.$.%.4.2.4.5.5.5.5.5.5.5.5.5.5.5.5.5.5.5.5.5.5.4.2.4.[ $.,.,.,.,.,.          ",
"        >.,.,.,.,.] A -.4.2.4.5.5.5.5.y.u.i.i.i.i.i.i.u.y.5.5.5.5.4.2.4.-.A ] ,.,.,.,.>.        ",
"      :.,.,.,.>.] Z S 5.4.4.4.4.4.4.4.5.u.s.s.s.s.s.s.u.5.4.4.4.4.4.4.4.5.S Z ] >.,.,.,.:.      ",
"      >.,.,.>.] J k ! 5.5.5.5.5.5.5.5.5.y.i.j.J.J.j.i.y.5.5.5.5.5.5.5.5.5.! k J ] >.,.,.>.      ",
"    :.,.,.,.%.W Z d | 5.5.3.=.=.=.y.u.u.u.i.s.U.U.s.i.u.u.u.y.=.=.=.3.5.5.| d Z W %.,.,.,.:.    ",
"    >.,.,.$.Q E j y 6.` F f 9 2 3 D i.p.p.p.s.I.I.s.s.p.p.i.D 3 2 9 f F ` 6.y j E Q $.,.,.>.    ",
"    ,.,.;.^ W Z 1 x 8.} 6.~ l l f 0  .s.s.s.s.f.f.s.s.s.s. .9 f l l ~ 6.} 8.x 1 Z W ^ ;.,.,.    ",
"  :.,.>.] Q H t : ~ u.i.i.a.! K K F h O.f.f.j.j.j.j.f.f.O.h F K K ! a.i.i.u.~ : t H Q ] >.,.:.  ",
"  >.,.$.^ W j 6 2 7.i.i.i.p.9.{ { } ` D w.K.K.K.K.K.K.w.D ` } { { 9.p.i.i.i.7.2 6 j W ^ $.,.>.  ",
"  ,.1.] Q C s 1 u a.p.p.p.s.s.e.8.9.e.X.#.I.U.U.U.U.I.#.X.e.9.8.e.s.s.p.p.p.a.u 1 s C Q ] 1.,.  ",
"  ,.$.^ H j s , > q.p.s.s.s.f.f.s.s.s.0.C.R.R.E.E.R.R.C.0.s.s.s.f.f.s.s.s.p.q.> , s j G ^ $.,.  ",
":.>.] W C j e % + c p.s.s.f.f.J.K.I.U.P.H.W.W.Q.Q.W.W.H.P.U.I.K.J.f.f.s.s.p.c + % e j V W ] >.:.",
":.;.^ G z s , % + ; o.s.f.f.J.K.I.U.R.T.E.Q.`.`.`.`.Q.E.T.R.U.I.K.J.f.f.s.o.; + % , s z G ^ ;.:.",
":.$.W C k 6 : % + . p h.f.J.K.I.U.R.E.A.Q.[.[.{.{.[.[.Q.A.E.R.U.I.K.J.f.h.p . + % : 6 k C W $.:.",
"*.] G C t 1 : @ o . $ o.j.K.I.U.R.E.N.b.[.{.{.|.|.{.{.[.b.N.E.R.U.I.K.f.o.$ . o @ : 1 t C G ] *.",
"&.^ Z k 7 1 % + o X X L f.I.I.U.E.!.T !.{.|.|.|.|.|.{.{.!.T !.E.U.I.I.f.L X X o + % 1 7 k Z ^ &.",
"' W C s 7 , @ + o X X L f.I.U.R.E.) l.{.{.|..X.X.X.X|.{.{.l.) E.R.U.I.f.L X X o + @ , 7 s C E ' ",
"  H k r 6 = @ + o X O Y J.U.R.E.n.P (.{.|..X.X}.}..X.X|.{.(.P n.E.R.U.J.Y O X o + @ = 6 r k G   ",
"  Z g e < = # + o X & +.I.R.E.W.I ( S.S.V.v._ R R _ v.V.S.S.( I W.E.R.I.+.& X o + # = < e g Z   ",
"  z s 7 : = % + o X 5 w.U.E.E.Q.m.b M M.D.~./.}.}./.~.D.M.n b m.Q.E.E.U.w.5 X o + % = : 7 s z   ",
"  g t 1 : - % @ + X q t.E.W.W.Q.`.S.M D..X.XXXXXXXXX.X.XD.M S.`.Q.W.W.E.t.q X + @ % - : 1 t g   ",
"    8 < : : = # + X p G.W.Q.Q.Q.`.[.x.N z.|..XXXXX.X|.z.N x.[.`.Q.Q.Q.W.G.p X + # = : : < 8     ",
"    1 < < : - % + o 0 r.Q.Q.Q.`.'.[.{.U w M..X.X.X.XM.w U {.[.'.`.Q.Q.Q.r.0 o + % - : < < 1     ",
"    1 < < : : = @ o * ..W.`.`.`.[.{.{.]./ P |..X.X|.P / ].{.{.[.`.`.`.W...* o @ = : : < < 1     ",
"      < < < : - % + + L E.[.[.[.[.{.{.{.{.c.M.|.|.M.c.{.{.{.{.[.[.[.[.T.L + + % - : < < <       ",
"      1 < < , : = @ + m T.{.{.{.{.{.{.{.|.|.^.^.^.~.|.|.{.{.{.{.{.{.{.T.m + @ = : , < < 1       ",
"        1 < < : - % + p Z.{.{.{.{.{.{.|.|.^._ b b _ ^.|.|.{.{.{.{.{.{.H.p + % - : < < 1         ",
"          < < < : = @ 4 @.{.].).|.|.{.V.U v v n n p v U V.{.|.|.).].{.@.4 @ = : < < <           ",
"          1 < < , : % & m Z.).v.V.B._ / z.D._.{.{._.D.z._ _ B.V.v.).Z.b & % : , < < 1           ",
"            1 < < : - # * m Z.].V.V._.|. X X X|.|. X X X|._.V.V.].Z.m * # - : < < 1             ",
"              1 < < : - @ & v m.{..X.X.X.X.X.X.X.X.X.X.X.X.X.X{.m.v & @ - : < < 1               ",
"                1 < < : - % # 0 T F.{..X.X.X.X.X.X.X.X.X.X{.F.T 0 # % - : < < 1                 ",
"                  1 < < : : % @ ; i I N.(.{.|..X X|.{.(.N.T a ; @ % : : < < 1                   ",
"                      1 < < : - % @ * 4 p B I / / I B p 4 * @ % - : < < 1                       ",
"                        1 < < , : - % # @ # & & & & # @ # % - : , < < 1                         ",
"                            1 < < , : : - = % % % % = - : : , < < 1                             ",
"                                  1 < < < , : : : : , < < < 1                                   ",
"                                          1 1 1 1 1 1                                           "
};
