/* XPM */
static char *btrfs_assistant_png_ico_3[] = {
/* columns rows colors chars-per-pixel */
"48 48 173 2 ",
"   c None",
".  c #7B3D76",
"X  c #B0473F",
"o  c #AC6D34",
"O  c #BB6E3E",
"+  c #DA5918",
"@  c #DB5D17",
"#  c #FF5D00",
"$  c #DA721A",
"%  c #DD7217",
"&  c #FF6401",
"*  c #FF6B01",
"=  c #FF670D",
"-  c #FF6B0B",
";  c #FF7401",
":  c #FF7B01",
">  c #FF740F",
",  c #FF7A0E",
"<  c #EE7A1C",
"1  c #FF7613",
"2  c #FF7B13",
"3  c #F37A1A",
"4  c #CC5D28",
"5  c #DE6E26",
"6  c #DA6628",
"7  c #D96F2E",
"8  c #CC7825",
"9  c #D67B24",
"0  c #D9772B",
"q  c #D47B2C",
"w  c #DC7A29",
"e  c #DE7B23",
"r  c #C86B37",
"t  c #D17A31",
"y  c #DB7C3A",
"u  c #E27E22",
"i  c #963B57",
"p  c #92395B",
"a  c #9E4C4F",
"s  c #97435F",
"d  c #A04C4D",
"f  c #AB4644",
"g  c #A25E4E",
"h  c #AE5D4E",
"j  c #9C6956",
"k  c #BC7252",
"l  c #874C6C",
"z  c #934163",
"x  c #985967",
"c  c #8E577D",
"v  c #8E5A7D",
"b  c #90567B",
"n  c #8E6E7D",
"m  c #966075",
"M  c #94637B",
"N  c #9A697B",
"B  c #956A78",
"V  c #A26C6F",
"C  c #A3796D",
"Z  c #B17D64",
"A  c #A47277",
"S  c #A57876",
"D  c #A2707A",
"F  c #FF8503",
"G  c #FF8805",
"H  c #FF820C",
"J  c #FF8D0D",
"K  c #F69205",
"L  c #FF9506",
"P  c #FF9A03",
"I  c #F7900A",
"U  c #FF940B",
"Y  c #FE990F",
"T  c #FF8313",
"R  c #FF8C12",
"E  c #F48D17",
"W  c #F39416",
"Q  c #FF9213",
"!  c #FF9A13",
"~  c #F2951B",
"^  c #FFA602",
"/  c #FFAD05",
"(  c #FCA50B",
")  c #FEAB0A",
"_  c #FFB003",
"`  c #FFA512",
"'  c #FFA811",
"]  c #D18023",
"[  c #D1802F",
"{  c #DE8523",
"}  c #D0863B",
"|  c #DA8339",
" . c #D08939",
".. c #E18526",
"X. c #C88743",
"o. c #C38448",
"O. c #D48244",
"+. c #D38B41",
"@. c #301EBF",
"#. c #3924A6",
"$. c #3A21B8",
"%. c #3429B9",
"&. c #773D83",
"*. c #703D90",
"=. c #4C2EA8",
"-. c #4F36A4",
";. c #4D32AA",
":. c #563EA4",
">. c #6F4592",
",. c #755F99",
"<. c #5245BD",
"1. c #544DBF",
"2. c #5D53B4",
"3. c #6B4AA9",
"4. c #6658AA",
"5. c #7966A3",
"6. c #0F0BDD",
"7. c #160FD5",
"8. c #190FD4",
"9. c #1C11D0",
"0. c #1E13DD",
"q. c #2D1ECF",
"w. c #2717D5",
"e. c #2114DA",
"r. c #2118DD",
"t. c #3120D4",
"y. c #3C33D1",
"u. c #0102E3",
"i. c #0508E7",
"p. c #0000EC",
"a. c #0E0CED",
"s. c #140EEC",
"d. c #150FE5",
"f. c #1711E3",
"g. c #1C16E3",
"h. c #1C18E4",
"j. c #1A16EC",
"k. c #161FE9",
"l. c #1D1AEA",
"z. c #0305F5",
"x. c #0D0DF1",
"c. c #0305FA",
"v. c #0609FC",
"b. c #0A0EFA",
"n. c #0F15F7",
"m. c #0D13FB",
"M. c #1315F3",
"N. c #1819F0",
"B. c #141CFD",
"V. c #151EF6",
"C. c #211CE7",
"Z. c #211EEA",
"A. c #1721F4",
"S. c #1A24F7",
"D. c #1F2BF6",
"F. c #1722FA",
"G. c #1924FA",
"H. c #2B2EE4",
"J. c #2E36E6",
"K. c #2839EE",
"L. c #2838F8",
"P. c #293BF4",
"I. c #4735CA",
"U. c #4E47CB",
"Y. c #5040C0",
"T. c #5B52C0",
"R. c #955F81",
"E. c #8D6587",
"W. c #8C6C8D",
"Q. c #836284",
"!. c #926482",
"~. c #966683",
"^. c #8E7081",
/* pixels */
"                                    P P                 P P                                     ",
"                                L T 2 R                 R 2 T L                                 ",
"                                R = # 1 U             U 1 # = R                                 ",
"                                J - & - R             R - & - J                                 ",
"                                U > & * T P         P T * & > U                                 ",
"                                U 2 * * , U         U , * * 2 U         L.m.m.M.b.b.i.          ",
"              P J L             P T ; ; ; R         R ; ; ; T P         v.#.g h g %.c.          ",
"            P T - 2 U             R ; ; : R P     P R : ; ; R           f.9 T - H  .M.          ",
"            J - # & 2 R           U H : : R Q Q Q Q R : : H U         1.r.6 & # - | l.          ",
"            L 2 & & * , R P       U R F F F F F F F F F F R U       P !.e.+ & & 2 } M.          ",
"              U 2 * * ; , R P U R R F F J R R R R R R J F F R R U P U R.e.@ * 2 L   m.          ",
"                R , ; ; ; T Q R F G R Q U U L P P L U Q Q R F F R R H x 0.4 3 E     m.          ",
"                  R , ; : : F F R Q U                     U Q R F F F r j.t.I.y.A.B.c.          ",
"                  P R T : F G Q U                             U R F F k j.$.7.p.p.z.c.          ",
"                    P R F F Q U                                 U Q G m 0.o         m.          ",
"                    U R F R U                                     U Q m r.8         m.          ",
"  L R J U U P       R F R U               U ! ! ! ! U   P Q ! U     U ~.e.w       o.N.l U R L   ",
"  T = - > 2 T R U U R G Q             U ! ' ) / / ) ' ! U ! ( !       M r.0 U U R y l.s - = T   ",
"P 2 # & & * ; ; H R F R U           U ` / ) ' ` ' ) / / ) ^ ^ Y       ,.r.$ J H : 7 l.i & # 2 P ",
"P R 1 - * * ; ; : F F Q           U ` / ' ! U W Z !.W.^.n n n E.1.P.K.J.x.>.v c b 3.s.X - 1 R P ",
"    U R T , ; : : F J Q           ! / ' U       m.c.c.d.r.x.c.e.a.z.z.z.0.r.r.r.r.w.&.3 R U     ",
"        P U R R R F R U         U ' / !       D.z.      { Q.g.O         9 e % w w u J P         ",
"              P Q F R L         ! ) ' U       S.p.      P S g.q         P R F Q P               ",
"                Q F R P         ! / ` L       S.p.      P A h.t         P R F Q                 ",
"                Q F R P         ! / ` L       S.p.      P A h.t         P R F Q                 ",
"              P Q F R L         ! ) ' U       S.p.      P S h.t         L J F Q P               ",
"        P U R R R F R U         U ' ) !       A.z.      +.5.r.q         ~ | t O.O.| E P         ",
"    U R T , ; : : F J U           ! / ' U       v.b.m.N.l.v.;.W         T.Z.l.l.l.C.*.< R U     ",
"P R 1 - * * ; ; : F F Q           U ` / ' ! Y U.w.x x j j :.q...P     W.M.. d a d . s.f - 1 R P ",
"P 2 # & & * ; ; H R F R U           U ` / / ` <.;.( _ / ) C g.[ ! ! ! N 0.$ J H : 5 C.p & # 2 P ",
"  T = - > 2 T R U U R G Q             U ! ( ( <.-.( ' ! U D g.] P L L m 0.0 U U R y C.z - = T   ",
"  L R J U U P       R F R U               U W Y.=.I U   P V g.q ! ! U N 0.9       X.l.l U R L   ",
"                    U R F R U                 H.8.        4.x.        2.a.          m.          ",
"                    P R F F Q U               A.p.          v.          c.          m.          ",
"                  P R T : F G Q U               c.V.G.F.F.B.c.A.S.S.S.F.c.n.S.S.S.G.c.          ",
"                  R , ; : F F F R Q U             p.6.@.=.9.p.p.p.p.p.x.c.z.p.p.p.z.c.          ",
"                R , ; ; ; T R R F F R Q Q U L P P K I R R K             z.          m.          ",
"              U 2 * * ; , R P U R R F F J R R R R R J J J Q             z.          m.          ",
"            L 2 & & * , R P       U R F F F F F F F F F F R P           z.          m.          ",
"            J - # & 2 Q           U H : : R Q Q Q Q R : : H U           z.          m.          ",
"            L T - 2 U             R ; ; : R P     P R : ; ; R           z.          m.          ",
"              P J L             P T ; ; ; R         R ; ; ; T P         c.k.      P.b.          ",
"                                U 2 * * , U         U , * * 2 U         u.z.z.z.z.z.u.          ",
"                                U > & * T P         P T * & > U                                 ",
"                                J - & - R             R - & - J                                 ",
"                                R = # 1 U             U 1 # = R                                 ",
"                                L T 2 R                 R 2 T L                                 ",
"                                    P P                 P P                                     "
};
