/* XPM */
static char *btrfs_assistant_png_ico_5[] = {
/* columns rows colors chars-per-pixel */
"72 72 189 2 ",
"   c None",
".  c #7A346E",
"X  c #7D3D6C",
"o  c #6D397E",
"O  c #743D7A",
"+  c #773A73",
"@  c #77456D",
"#  c #6B427B",
"$  c #744473",
"%  c #784479",
"&  c #775175",
"*  c #7A5479",
"=  c #BE7126",
"-  c #CD531D",
";  c #D15418",
":  c #E65D08",
">  c #FF5E01",
",  c #FF6400",
"<  c #FF6C01",
"1  c #FF650A",
"2  c #FF6D09",
"3  c #F26F04",
"4  c #FF7301",
"5  c #FF7B01",
"6  c #FF750D",
"7  c #FF7E0C",
"8  c #F77F00",
"9  c #FE7516",
"0  c #FF7A14",
"q  c #FF751B",
"w  c #FF7E1C",
"e  c #CB5322",
"r  c #D06C2E",
"t  c #C87327",
"y  c #D7702E",
"u  c #CD6D34",
"i  c #D46E32",
"p  c #CD7037",
"a  c #D57B3B",
"s  c #FF7C20",
"d  c #924E5A",
"f  c #84515F",
"g  c #925058",
"h  c #B15441",
"j  c #A95149",
"k  c #AC604E",
"l  c #824469",
"z  c #834769",
"x  c #924F69",
"c  c #844872",
"v  c #996461",
"b  c #C17553",
"n  c #CC7645",
"m  c #D08D18",
"M  c #FF8301",
"N  c #FE8B05",
"B  c #FF840B",
"V  c #FE8E0C",
"C  c #F48202",
"Z  c #FF9303",
"A  c #FF9B00",
"S  c #FF900B",
"D  c #F8980D",
"F  c #FF8212",
"G  c #FF8D13",
"H  c #FF831D",
"J  c #FF8C1B",
"K  c #FF9113",
"L  c #FF9A15",
"P  c #FF911C",
"I  c #FF9A1C",
"U  c #FEA101",
"Y  c #FFAC02",
"T  c #FEAF0C",
"R  c #FFB009",
"E  c #FFB007",
"W  c #FEA214",
"Q  c #FFAB15",
"!  c #FFA51B",
"~  c #FFA819",
"^  c #D2892C",
"/  c #D18F27",
"(  c #D4863B",
")  c #D28537",
"_  c #D49A38",
"`  c #FF8221",
"'  c #FF8C20",
"]  c #F78B24",
"[  c #FC9C20",
"{  c #FB9222",
"}  c #FAA524",
"|  c #BB8E4F",
" . c #AE8A5D",
".. c #B48D55",
"X. c #C88E40",
"o. c #D48841",
"O. c #D29B45",
"+. c #37259B",
"@. c #1F16BD",
"#. c #2F18B7",
"$. c #3A26A6",
"%. c #4A3096",
"&. c #55299D",
"*. c #673984",
"=. c #421BAC",
"-. c #442BA3",
";. c #4B31AC",
":. c #583FB6",
">. c #694181",
",. c #6C458A",
"<. c #6F488B",
"1. c #774783",
"2. c #694591",
"3. c #76569A",
"4. c #7A6693",
"5. c #5956BD",
"6. c #5C47B2",
"7. c #654DAF",
"8. c #6F54A4",
"9. c #6F54AA",
"0. c #6559AF",
"q. c #6D59AB",
"w. c #6550AF",
"e. c #7156A5",
"r. c #755DA3",
"t. c #644DB1",
"y. c #604EB9",
"u. c #6459B2",
"i. c #6F5AB3",
"p. c #6558B9",
"a. c #7267A9",
"s. c #0A08C8",
"d. c #0101D5",
"f. c #0001DB",
"g. c #1A0BDD",
"h. c #1B11DD",
"j. c #2615CE",
"k. c #2418D9",
"l. c #2A21D2",
"z. c #3E3BDE",
"x. c #0101EC",
"c. c #0606E6",
"v. c #150AE3",
"b. c #190EE4",
"n. c #131AEE",
"m. c #1D18E9",
"M. c #0000F7",
"N. c #0000F6",
"B. c #0000FF",
"V. c #0101FD",
"C. c #0101FF",
"Z. c #070AFF",
"A. c #0C0DF9",
"S. c #141CFB",
"D. c #181DF8",
"F. c #151CF3",
"G. c #1D22F2",
"H. c #1621FE",
"J. c #2424EC",
"K. c #2A29E7",
"L. c #2C3EED",
"P. c #2734EC",
"I. c #2023F0",
"U. c #2736F3",
"Y. c #2635F5",
"T. c #2B3CF2",
"R. c #2838F9",
"E. c #2F41EE",
"W. c #3145EC",
"Q. c #3649E9",
"!. c #2E41F0",
"~. c #2E40F9",
"^. c #3245F2",
"/. c #374EF1",
"(. c #3E57F0",
"). c #504CC5",
"_. c #5252C5",
"`. c #4F56D8",
"'. c #4649D1",
"]. c #676FC2",
"[. c #425CED",
"{. c #4A6DF6",
"}. c #805D9B",
"|. c #98758F",
" X c #826894",
".X c #837199",
"XX c #946D89",
"oX c #826CA3",
"OX c #9C8A85",
/* pixels */
"                                                                                                                                                ",
"                                                  A Z S V Z                         Z V S Z A                                                   ",
"                                                Z G w 9 q G A                     A G q 9 w G Z                                                 ",
"                                                S s > > > H Z                     Z H > > > s S                                                 ",
"                                                Z w > , , 9 G                     G 9 , , > w Z                                                 ",
"                                                Z H , , , 2 H Z                 Z H < , , , H Z                                                 ",
"                                                A H < , , , H S                 S w , , , < H A                                                 ",
"                                                A J 2 < < < 6 J A             A J 6 < < < 2 J A               (.T.U.U.U.U.U.P.                  ",
"                                                A G 6 < < < 4 H Z             Z H 4 < < < 6 G A             ~.C.B.B.B.B.B.B.B.N.                ",
"                      A Z Z                       G 0 < 4 4 4 F V             V F 4 4 4 < 0 G             [.Z.M.  @ g d f +.c.C.x.              ",
"                    A G ` H V A                   V H 4 4 4 4 F G             G F 4 4 4 4 H S             E.B.@.A Z H H V A   S.M.              ",
"                  A G q > 1 H G A                 Z H 5 4 5 5 B J A         A J B 5 5 4 5 H Z             T.B.$ V H 1 > q V X.D.M.              ",
"                  Z ` > > , , w J Z               A G F 5 5 5 5 J V S S S S V ' 5 5 5 5 F G A             Q.B.% 0 , , > > H ) G.M.              ",
"                  Z H 1 , , , , 0 H Z U             S H 5 5 5 M B J G G G G J B M 5 5 5 H S             U q.B.. , , , , 1 H ) G.M.              ",
"                    V H , , , < < 6 ' V U         Z G J M M M M M M M M M M M M M M M M J G Z         U V q.B.. < , , , H Z | S.M.              ",
"                    A G w , < < < 4 6 ' Z     Z V J J M M M M N V G G K K G G V N M M M M J J V Z     Z ' 9.B.. < < , w G A   S.M.              ",
"                      A J 0 < < 4 4 4 7 J Z Z J J M M M N G P P P G K S S K K P P P G N M M B J J Z Z J B 8.B.. < < 0 G A     S.M.              ",
"                        Z H 6 4 4 4 5 5 F J P V M M V P P G Z Z A             A Z Z K P P V M M V J ' F 5 3.B.*.3 6 ] D       S.M.              ",
"                          Z ' 6 4 5 5 5 5 M M M N P P S Z                             Z S P P N M M M 5 5 k A.b.:.y.y.).T.T.Y.C.x.              ",
"                          U V ' 7 5 5 5 M M M V P G Z                                     Z V P V M M M 5 a K.B.B.B.B.B.B.B.B.B.                ",
"                            U Z J F 5 M M M G P Z U                                         U Z P G M M M XXZ.j.$ $.        c.C.x.              ",
"                                Z ' M M M K P Z                                                 Z P K M M e.B.#               S.M.              ",
"                                Z J M M G P Z                                                     Z P G M 8.B.$               S.M.              ",
"                              A J V M V P Z                                                         Z P V 8.B.% Z             S.M.              ",
"    Z S Z Z A A A             V J M N P Z                     A Z Z S K S S Z Z       Z V K V N       Z { q.B.1.V            .D.v.t Z Z S Z     ",
"  A G s w H H J G G V Z A   Z J B M P V U                 U Z K I ! ! Q Q ! ! I K Z U V } W [ G       U G i.B.% J Z   A Z V o.G.b.u H w s G A   ",
"  Z w > , , < 2 6 0 H H G S G J M V P Z                 A V I Q Y Y Y Y Y Y Y Y Q I V G W A W K         A e.B.X G G Z G H F n G.g.- , > > w Z   ",
"  S 9 > , , , < < < 4 5 F H J M M P V                 Z K ! Y Y Y R Q Q Q Q R Y Y Y ! ! U U W K           q.B.@ M J J F 5 4 i G.g.- , , > 9 S   ",
"  V q > , , , < < 4 4 4 5 5 M M N P Z               A K ~ Y Y T ! I K S S K [ } T Y Y Y U U W K           5.B.o C M 8 5 5 4 b D.g.; , , > q V   ",
"  Z G H 9 2 , < < 4 4 5 5 5 M M G G               U V ! Y Y Q I S A     OXa.w.p.p.u.u.u.0.0.u.w.'.T.T.T.T.P.B.b.6.t.t.7.7.t.z.C.=.: < 9 H G Z   ",
"    A Z G H w 6 4 4 4 5 5 5 M M P Z               Z I Y Y Q K Z       {.H.B.B.B.B.B.B.B.B.B.B.B.B.B.B.B.B.B.B.B.B.B.B.B.B.B.B.j.h w H G Z A     ",
"          Z S J H F F B 5 M M N P Z             A K Q Y T I Z         Y.B.x.    s.# c * l.B.;.z %.        s.$ c l l l l c c x p G S Z           ",
"              A Z V G J ' B M V P A             Z I Y Y ! S           D.M.          Z ! 4.B.<.N             A G N M B J G V V Z A               ",
"                      A V J M G K               Z ! Y R I A           S.M.          A I .XB.2.V               K G M J V A                       ",
"                        S G M G K               S ! Y Q K             D.M.            K oXB.2.V               K G M G S                         ",
"                        S G M K S               S Q Y Q S             D.M.            S oXB.2.V               S K M G S                         ",
"                        S G M K S               S Q Y Q S             D.M.            S oXB.2.V               S K M G S                         ",
"                        S G M G K               S ! Y Q K             D.M.            K oXB.2.V               K G M G S                         ",
"                      A V J M G K               Z ! Y T I A           D.M.          A I .XB.2.V               K G M J V A                       ",
"              A Z V G J J B M V P A             Z I Y Y ! S           S.M.          S } a.B.<.V             A K V M G { J G V Z A               ",
"          Z S J H F F B 5 M M N P Z             A K Q Y T I Z         n.B.F.L.L.L.5.q.p.G.N.v S             _ |.e.8.8.9.q.i.}.n G S Z           ",
"    A Z G H H 6 4 4 4 5 5 5 M M P Z               Z I Y Y Q P Z       Q.C.B.B.B.B.B.B.B.B.j.^ S             `.Z.B.B.B.B.B.B.B.k.j w H G Z A     ",
"  Z G H 9 2 , < < 4 4 5 5 5 M M G G               U V ! Y Y Q I S A _ T.M.-.$ O 1.& & & k.N.v S U         ].Z.g.O X X X X X &.B.#.: < 9 H G Z   ",
"  V q > , , , < < 4 4 4 5 5 M M N P Z               A K ~ Y Y T ! I o.I.v.t L ! T Y Y U 4.B.,.P S S S S S r.B.o 8 M 5 5 4 4 r m.g.- , , > q V   ",
"  S 9 > , , , < < < 4 5 F H J M M P V                 Z K ! Y Y Y E O.G.h./ R Y Y Y ! !  XB.>.D L I I L L r.B.+ M J H F 5 4 y J.v.- , , > 9 S   ",
"  Z w > > , < 2 6 0 H H G S G J M V P Z                 A V I Q Y Y _ G.h.m Y Y Q I V G oXB.>.A A Z Z N N 3.B.+ G G S G H F a J.v.e , > > w Z   ",
"  A G s w H H J G G S Z A   Z J M M P G U                 U Z K I ! O.G.h.^ ! I K Z U S oXB.,.D L L L L K r.B.1.J Z   A Z S ( J.v.u H w s G A   ",
"    Z S Z Z A A A             V J M N P Z                     A Z Z ( G.g.t Z Z       Z  XB.*.V K K K K K r.B.% N           ..G.v.= Z Z S Z     ",
"                              Z J V M V P Z                           D.c.              5.B.$.            _.B.-.              D.M.              ",
"                                Z P M M G P Z                         S.M.              W.C.f.            E.B.f.              D.M.              ",
"                                Z J M M M K P Z                       S.M.              /.B.f.            W.B.f.              S.M.              ",
"                            U Z J F 5 M M M G P Z U                   n.B.F.E.E.E.!.!.^.H.B.G.W.E.E.E.E.W.Y.B.Z.P.!.!.!.!.^.R.C.x.              ",
"                          U V ' 7 5 5 5 M M M V P V Z                   N.B.B.B.B.B.B.B.B.B.B.B.B.B.B.B.B.B.B.B.B.B.B.B.B.B.B.B.d.              ",
"                          Z ' 6 4 5 5 5 5 M M M N P P V Z                   f.d.@.%.# *.d.d.d.d.d.d.d.d.d.G.C.M.f.f.f.f.d.d.c.B.x.              ",
"                        Z H 6 4 4 4 5 5 F ' J V M M V P P G Z Z A           A A Z N V N                   W.B.f.              S.M.              ",
"                      A J 0 < < 4 4 4 7 J Z Z J J B M M N G P P P K K S S K K P P P P P Z                 E.B.d.              D.M.              ",
"                    A G w , < < < 4 6 ' Z     A V J J M M M M N V G G K K G G V N M M J V                 E.B.d.              D.M.              ",
"                    V H , , , < < 6 ' V U         Z G J M M M M M M M M M M M M M M M B J A               E.B.d.              D.M.              ",
"                  Z H 1 , , , , 0 H Z U             S H 5 5 5 M B J G G G G J B M 5 5 5 J S               E.C.d.              D.M.              ",
"                  Z ` > > , , w J Z               A G F 5 5 5 5 ' V S S S S V J 5 5 5 5 F G A             E.B.d.              D.M.              ",
"                  A G q > 1 H G A                 Z H 5 4 5 5 B J A         A J B 5 5 4 5 H Z             E.B.d.              S.M.              ",
"                    A G ` H V A                   S H 4 4 4 4 F G             G F 4 4 4 4 H V             L.C.f.              S.M.              ",
"                      A Z Z                       G 0 < 4 4 4 F V             V F 4 4 4 < 0 G               C.Z.L.W.W.W.W.Q.T.Z.x.              ",
"                                                A G 6 < < < 4 H Z             Z H 4 < < < 6 G A             f.B.C.C.C.C.C.C.B.M.                ",
"                                                A J 2 < < < 6 J A             A J 6 < < < 2 J A                 f.f.f.f.f.f.d.                  ",
"                                                A H < , , , w S                 S H , , , < H A                                                 ",
"                                                Z H , , , < H Z                 Z H 2 , , , H Z                                                 ",
"                                                Z w > , , 9 G                     G 9 , , > w Z                                                 ",
"                                                S s > > > H Z                     Z H > > > s S                                                 ",
"                                                Z G w 9 q G A                     A G q 9 w G Z                                                 ",
"                                                  A Z S V Z                         Z V S Z A                                                   ",
"                                                                                                                                                "
};
