/* XPM */
static char *calc_png_ico_0[] = {
/* columns rows colors chars-per-pixel */
"16 16 128 2 ",
"   c #2F1B26",
".  c #2F1C27",
"X  c #2F1E29",
"o  c #2F202B",
"O  c #30202B",
"+  c #30212C",
"@  c #34242C",
"#  c #36282F",
"$  c #382931",
"%  c #382934",
"&  c gray24",
"*  c #42363D",
"=  c #46363D",
"-  c #71393C",
";  c #4A4438",
":  c #48443C",
">  c #534934",
",  c #5B4E32",
"<  c #5F5237",
"1  c #3D3E40",
"2  c #3E4043",
"3  c #414241",
"4  c #464646",
"5  c #47484A",
"6  c #4B4B4B",
"7  c #4A4B4C",
"8  c #545153",
"9  c #585557",
"0  c #595A59",
"q  c #5E5F5E",
"w  c #6B5F47",
"e  c #7C5C4C",
"r  c #6F5252",
"t  c #725E55",
"y  c #75684E",
"u  c #7B6A49",
"i  c #62605C",
"p  c #6B605A",
"a  c #465168",
"s  c #5D5E60",
"d  c #495772",
"f  c #705D69",
"g  c #5E6C65",
"h  c #5C7363",
"j  c #5D7565",
"k  c #5D7866",
"l  c #5F706E",
"z  c #5D6471",
"x  c #5D6576",
"c  c #606060",
"v  c #676767",
"b  c #6C6060",
"n  c #616863",
"m  c #656B67",
"M  c #686768",
"N  c #6A6A6A",
"B  c gray43",
"V  c #706F6F",
"C  c #637A6A",
"Z  c gray45",
"A  c #777777",
"S  c gray47",
"D  c #7E7E7E",
"F  c #9B3837",
"G  c #945638",
"H  c #BC5A29",
"J  c #B66035",
"K  c #D95916",
"L  c #8C5D47",
"P  c #82604F",
"I  c #956A6A",
"U  c #807F7F",
"Y  c #50816B",
"T  c #52836C",
"R  c #548B72",
"E  c #548D74",
"W  c #559478",
"Q  c #62816C",
"!  c #5EAA77",
"~  c #5FAC78",
"^  c #62B77F",
"/  c #B38513",
"(  c #BD8B12",
")  c #B6811A",
"_  c #C48F05",
"`  c #D18F0D",
"'  c #D29704",
"]  c #CB911D",
"[  c #E69E0B",
"{  c #4F638F",
"}  c #5C6F97",
"|  c #536A9A",
" . c #536B9F",
".. c #5B72A1",
"X. c #5E74A0",
"o. c #5873AB",
"O. c #5974AC",
"+. c #5B78B5",
"@. c #5D7AB4",
"#. c #5E9D81",
"$. c #7C9385",
"%. c #64BA80",
"&. c #63BF82",
"*. c #6781B4",
"=. c #67C386",
"-. c #6386CB",
";. c #6587C9",
":. c #808080",
">. c gray52",
",. c #8B8B8B",
"<. c gray56",
"1. c #929292",
"2. c gray59",
"3. c gray60",
"4. c #9E9F9F",
"5. c #A29F9E",
"6. c #A4A4A4",
"7. c gray67",
"8. c gray68",
"9. c #B1B1B1",
"0. c gray73",
"q. c #BCBCBC",
"w. c #C1C1C1",
"e. c #C6C6C6",
"r. c #CBCBCB",
"t. c #CECECE",
"y. c LightGray",
"u. c gray83",
/* pixels */
"v A A Z Z Z Z Z Z Z Z Z Z A S v ",
"D t.u.u.u.y.y.y.e.e.e.r.t.r.r.D ",
"S q.w.w.q.q.q.0.4.3.3.6.7.9.8.S ",
"M :.S S S S S S Z V V Z Z S D M ",
"8 % + X   . X o X . . X O + % 8 ",
"9 * $ @ @ @ @ # @ @ @ # # $ = 9 ",
"v Z 0 q 0 0 q 3 & & & a d - F r ",
"Z 7.<.2.<.1.3.6 & & 2 @.-.f I b ",
"N 1.Z D A A D 4 & & 1 {  .l $.m ",
"A 7.<.2.<.,.2.6 & & 1 @.;.W &.k ",
"B 3.S >.S S :.4 & ; : | O.Y ! h ",
"B 4.D 1.>.>.<.5 > ` ) ..+.E %.j ",
"B 5.U 1.>.>.<.5 , ' ( X.+.R ^ k ",
"e H G >.D :.<.7 < _ / } o.T ~ j ",
"L K J 3.1.4.7.s w [ ] *.;.#.=.Q ",
"p P t N N N N c i u y z x g C n "
};
