/* XPM */
static char *chromium_png_ico_0[] = {
/* columns rows colors chars-per-pixel */
"16 16 151 2 ",
"   c None",
".  c #114065",
"X  c #114066",
"o  c #114166",
"O  c #124468",
"+  c #13456A",
"@  c #13466A",
"#  c #13476B",
"$  c #14476B",
"%  c #144A6D",
"&  c #154A6D",
"*  c #144A6E",
"=  c #154B6E",
"-  c #164E70",
";  c #164F71",
":  c #175072",
">  c #175173",
",  c #185173",
"<  c #185273",
"1  c #185274",
"2  c #1B5C7C",
"3  c #1C5E7D",
"4  c #234981",
"5  c #234882",
"6  c #234982",
"7  c #244982",
"8  c #254982",
"9  c #244983",
"0  c #254A82",
"q  c #264B83",
"w  c #244A84",
"e  c #254B85",
"r  c #264C86",
"t  c #284C85",
"y  c #284E85",
"u  c #294F86",
"i  c #2C4F87",
"p  c #2B5088",
"a  c #2C5189",
"s  c #2F5288",
"d  c #34568A",
"f  c #32568C",
"g  c #216785",
"h  c #206986",
"j  c #206A87",
"k  c #216A87",
"l  c #216B88",
"z  c #216E8A",
"x  c #22708B",
"c  c #22718C",
"v  c #2C7797",
"b  c #287F98",
"n  c #2B869E",
"m  c #35839C",
"M  c #2E8EA4",
"N  c #2E8FA5",
"B  c #3183A3",
"V  c #3283A3",
"C  c #3097AB",
"Z  c #3197AB",
"A  c #3597AB",
"S  c #2E94B7",
"D  c #2492B8",
"F  c #2593B8",
"G  c #2895B9",
"H  c #2996BA",
"J  c #2B97BB",
"K  c #2E99BC",
"L  c #2F9ABD",
"P  c #379BB1",
"I  c #339DB0",
"U  c #349DB0",
"Y  c #369CB1",
"T  c #319BBD",
"R  c #329BBD",
"E  c #339DBE",
"W  c #349DBE",
"Q  c #359DBE",
"!  c #468BAB",
"~  c #6E99B6",
"^  c #40A0B5",
"/  c #4CA6BA",
"(  c #5EA1BF",
")  c #39A1C1",
"_  c #44A4C3",
"`  c #42A8C6",
"'  c #43A8C6",
"]  c #43A9C6",
"[  c #48ACC9",
"{  c #52B4CD",
"}  c #54B4CE",
"|  c #56B6D0",
" . c #5AB9D1",
".. c #65ACC6",
"X. c #65ADC7",
"o. c #66AEC7",
"O. c #62B6CF",
"+. c #6EB4C9",
"@. c #6CB9C9",
"#. c #61BBD0",
"$. c #60BDD4",
"%. c #67C2D7",
"&. c #6DC6DA",
"*. c #6DC7DA",
"=. c #72C5D8",
"-. c #73C7D9",
";. c #7EC6D9",
":. c #7EC8DB",
">. c #7EC8DC",
",. c #7FC9DC",
"<. c #8CADC6",
"1. c #91B2CA",
"2. c #A0BFD3",
"3. c #80C9DC",
"4. c #81C9DC",
"5. c #81CADD",
"6. c #82CADC",
"7. c #83CADD",
"8. c #83CBDD",
"9. c #84CADD",
"0. c #84CBDD",
"q. c #85CBDD",
"w. c #87CBDC",
"e. c #87CBDD",
"r. c #85CBDE",
"t. c #84CCDE",
"y. c #89CCDD",
"u. c #88CCDE",
"i. c #89CCDE",
"p. c #89CDDF",
"a. c #91D0E1",
"s. c #92D1E1",
"d. c #92D2E2",
"f. c #95D0E0",
"g. c #98D3E3",
"h. c #99D4E3",
"j. c #9AD4E3",
"k. c #9DD6E4",
"l. c #9ED6E4",
"z. c #A6DAE4",
"x. c #A8DAE7",
"c. c #A9DAE7",
"v. c #AEDDE9",
"b. c #B1D4E1",
"n. c #B9DCE7",
"m. c #B1DEEA",
"M. c #B3DFEA",
"N. c #B8E2EC",
"B. c #B9E2ED",
"V. c #BDE3ED",
"C. c #BEE4ED",
/* pixels */
"          Q L H H L Q           ",
"      Q H F H H H H F H Q       ",
"    T F H ) ' [ [ ' ) H F T     ",
"    F L ' } $.%.%.$.{ ' L F E   ",
"  * S '  .*.-.o.o.r.s.;.O._     ",
"1 . v | *.o.u 8 i d 2.C.x.s.>.u.",
"* + g #.-.u w w p f s n.M.g.7.r.",
"$ * z / ( 5 w w w s u 1.B.l.r.7.",
"$ * x A ! 8 w w w r 5 <.B.l.r.7.",
"* + h M P 8 w w w w 8 b.M.j.7.r.",
", . 2 b I V 8 8 8 5 ~ V.x.s.>.u.",
"  + * h n Y Y V V ^ z.v.j.r.7.  ",
"  , . > h b M Z Z @.x.j.u.:.u.  ",
"    - . * 3 l c m f.s.r.:.r.    ",
"      , + . + - +.7.>.7.u.      ",
"          > +   t.7.u.          "
};
