/* XPM */
static char *cockos_reaper_png_ico_3[] = {
/* columns rows colors chars-per-pixel */
"48 48 160 2 ",
"   c None",
".  c #302315",
"X  c #312418",
"o  c #322518",
"O  c #322519",
"+  c #332619",
"@  c #32261A",
"#  c #33261A",
"$  c #33271B",
"%  c #34271B",
"&  c #34271C",
"*  c #34281C",
"=  c #35281C",
"-  c #35281D",
";  c #35291D",
":  c #36291D",
">  c #36291E",
",  c #372A1E",
"<  c #372A1F",
"1  c #382B1F",
"2  c #382B20",
"3  c #382C21",
"4  c #392C22",
"5  c #392D22",
"6  c #3A2D22",
"7  c #3A2E23",
"8  c #3D3126",
"9  c #3D3127",
"0  c #3C3029",
"q  c #433731",
"w  c #473C3C",
"e  c #574E55",
"r  c #C77277",
"t  c #CD7272",
"y  c #CC7273",
"u  c #CD7373",
"i  c #CE7671",
"p  c #CB7676",
"a  c #CC7474",
"s  c #CD7676",
"d  c #CC7C73",
"f  c #C5717B",
"g  c #C77F7F",
"h  c #C97A7A",
"j  c #C97B7B",
"k  c #D28C67",
"l  c #D2866C",
"z  c #CB9E76",
"x  c #D3AA64",
"c  c #D5A36E",
"v  c #CBB676",
"b  c #D1BE7E",
"n  c #96CA79",
"m  c #B8CC75",
"M  c #CFC36D",
"N  c #CDCC73",
"B  c #CACA77",
"V  c #C9CC77",
"C  c #CDCD76",
"Z  c #C7C77E",
"A  c #C9C57A",
"S  c #CACA78",
"D  c #CACA79",
"F  c #C9C97A",
"G  c #CDCD78",
"H  c #CCCC79",
"J  c #CCCC7A",
"K  c #C8C87C",
"L  c #706C96",
"P  c #7D5BB5",
"I  c #7C7AAD",
"U  c #7863BE",
"Y  c #796CC3",
"T  c #746EC9",
"R  c #7A70C7",
"E  c #7F7CC6",
"W  c #7574CB",
"Q  c #7271CC",
"!  c #7272CD",
"~  c #7474CC",
"^  c #7574CD",
"/  c #7A7AC9",
"(  c #7878CA",
")  c #7B7BCB",
"_  c #7C7CC8",
"`  c #7F7FC9",
"'  c #7A7ACC",
"]  c #8E509F",
"[  c #93559C",
"{  c #A45C8E",
"}  c #B76581",
"|  c #BC6F81",
" . c #AB6D91",
".. c #A2639A",
"X. c #B97F9A",
"o. c #8450A7",
"O. c #885CAA",
"+. c #8158B1",
"@. c #9C6EA1",
"#. c #9162AE",
"$. c #8772B7",
"%. c #8E76BF",
"&. c #9E7DB7",
"*. c #A277AF",
"=. c #C77F80",
"-. c #97BF97",
";. c #B088AB",
":. c #A684B3",
">. c #A38EBB",
",. c #A1BCA1",
"<. c #C58383",
"1. c #C28387",
"2. c #C38787",
"3. c #CD8080",
"4. c #CC8082",
"5. c #C68C81",
"6. c #C38988",
"7. c #CD8C8A",
"8. c #CD8F8F",
"9. c #CF9A8D",
"0. c #C6939B",
"q. c #CC9898",
"w. c #C99C9D",
"e. c #CA9D9C",
"r. c #D1AB8B",
"t. c #81C681",
"y. c #84C680",
"u. c #85C485",
"i. c #86C486",
"p. c #87C587",
"a. c #80C981",
"s. c #87CB83",
"d. c #8AC28A",
"f. c #89C789",
"g. c #8FC18F",
"h. c #8FC58F",
"j. c #8FC98F",
"k. c #9FCD83",
"l. c #95C795",
"z. c #96C996",
"x. c #98C398",
"c. c #B7C583",
"v. c #BCCD88",
"b. c #C4C681",
"n. c #CDCA8B",
"m. c #C9CC90",
"M. c #CCCC91",
"N. c #CBCB94",
"B. c #CBCB95",
"V. c #CBCB96",
"C. c #8686C3",
"Z. c #8787C3",
"A. c #8585C4",
"S. c #8686C5",
"D. c #8888C6",
"F. c #8986CE",
"G. c #988DC6",
"H. c #9292CD",
"J. c #9A9AC8",
"K. c #9D9AC8",
/* pixels */
"                                                                                                ",
"                                                                                                ",
"                            6.5.z v A F F B F F K Z b.c.                                        ",
"                      2.<.g h d k x M N C J J J J J V m n y.u.                                  ",
"                  1.=.h p s u i l c b n.M.N.N.N.N.N.m.v.k.s.a.t.u.                              ",
"              @. .| r u u s 3.7.9.r.                        z.j.f.u.d.                          ",
"            $.O.[ { } f 3.8.q.e.                                  l.h.g.                        ",
"        Z.E Y P o.] ..X.0.e.                                          x.-.                      ",
"      A.` W T U +.#.*.;.                                                  ,.                    ",
"o e Z./ ^ ! ! R %.&.:.                                                                          ",
"  0 L / ^ ! ^ F.G.>.                                                                            ",
"  . w I ` / ' H.K.                                                                              ",
"    o q   A.D.J.                                                                                ",
"      %                                                                                         ",
"        >                                                                                       ",
"        o >                                                                                     ",
"          o 2                                                                                   ",
"            o 2                                                                                 ",
"              o >                                                                               ",
"                o > 9                                 >                                         ",
"                    % 3                               o                                         ",
"                      o > 3                         >                                           ",
"                          o > > 3 3 3 3 3 3 3 3     >                                           ",
"                                              o % > & 3                                         ",
"                                                      o > 2                                     ",
"                                                            % 2                                 ",
"                                                                > 3                             ",
"                                                                  o 1                           ",
"                                                                    o >                         ",
"                                                                        > 9                     ",
"                                                                          > 9                   ",
"                                                                            >                   ",
"                                                                              >                 ",
"                                                                                1               ",
"                                                                                o 3             ",
"                                                                                  % 9           ",
"                                                                                    >           ",
"                                                                                    o 3         ",
"                                                                                      >         ",
"                                                                                        3       ",
"                                                                                        o 9     ",
"                                                                                          2     ",
"                                                                                          o 9   ",
"                                                                                            2   ",
"                                                                                            &   ",
"                                                                                            o 1 ",
"                                                                                                ",
"                                                                                                "
};
