/* XPM */
static char *cockos_reaper_png_ico_0[] = {
/* columns rows colors chars-per-pixel */
"16 16 19 1 ",
"  c None",
". c #534B5C",
"X c #564E61",
"o c #C2767F",
"O c #CB7C7C",
"+ c #CF9578",
"@ c #CAC67A",
"# c #CDC57F",
"$ c #C9C97D",
"% c #7574BE",
"& c #7D7BC8",
"* c #AA6D98",
"= c #8565B3",
"- c #857DC9",
"; c #C98A8E",
": c #88C788",
"> c #A1CA83",
", c #C9CB85",
"< c #CBCC85",
/* pixels */
"      @$        ",
"   oO+#<,>:     ",
" &=*;           ",
"X%-             ",
" .              ",
"                ",
"                ",
"                ",
"                ",
"                ",
"                ",
"                ",
"                ",
"                ",
"                ",
"                "
};
