/* XPM */
static char *com_github_artemanufrij_regextester_png_ico_4[] = {
/* columns rows colors chars-per-pixel */
"64 64 93 2 ",
"   c #0F0F0F",
".  c #151515",
"X  c #141C14",
"o  c #1B171B",
"O  c #1B1B1B",
"+  c #0F280F",
"@  c #0D370D",
"#  c #0C3D0C",
"$  c #122312",
"%  c #152C15",
"&  c #1B211B",
"*  c #1A2A1A",
"=  c #143314",
"-  c #1C391C",
";  c #211F21",
":  c #232323",
">  c #262C26",
",  c #292529",
"<  c #2C2C2C",
"1  c #233023",
"2  c #343434",
"3  c #383738",
"4  c #3B3B3B",
"5  c #0D420D",
"6  c #0D4C0D",
"7  c #045504",
"8  c #0E540E",
"9  c #0D5A0D",
"0  c #104310",
"q  c #076807",
"w  c #0C620C",
"e  c #057405",
"r  c #047B04",
"t  c #414141",
"y  c #4B4B4B",
"u  c #535353",
"i  c gray36",
"p  c #636363",
"a  c #6B6B6B",
"s  c #727272",
"d  c #7C7C7C",
"f  c #068506",
"g  c #038D03",
"h  c #039303",
"j  c #02A402",
"k  c #01B401",
"l  c #01BB01",
"z  c #01C301",
"x  c #00CE00",
"c  c #00D400",
"v  c #00DD00",
"b  c #00E300",
"n  c #00EC00",
"m  c #00F300",
"M  c #848484",
"N  c #898989",
"B  c #959595",
"V  c #9B9B9B",
"C  c #A2A2A2",
"Z  c gray66",
"A  c #ACACAC",
"S  c #AFAFAF",
"D  c #B1B1B1",
"F  c #B4B4B4",
"G  c #B7B7B7",
"H  c #BBBBBB",
"J  c gray74",
"K  c #C0C0C0",
"L  c gray76",
"P  c #C4C4C4",
"I  c gray78",
"U  c #C8C8C8",
"Y  c #CBCBCB",
"T  c #CDCDCD",
"R  c gray81",
"E  c #D2D2D2",
"W  c LightGray",
"Q  c #D7D7D7",
"!  c #D8D8D8",
"~  c gainsboro",
"^  c #DFDFDF",
"/  c #E1E1E1",
"(  c gray89",
")  c gray90",
"_  c #E7E7E7",
"`  c #E9E9E9",
"'  c gray92",
"]  c #ECECEC",
"[  c #EFEFEF",
"{  c gray94",
"}  c #F3F3F3",
"|  c gray96",
" . c #FAFAFA",
/* pixels */
"V N N N N N N N N N N N N N N N N N N N N N N N N N N N N N N N N N N N N N N N N N N N N N N N N N N N N N N N N N N N N N N V ",
"B t < < < < < < < < < < < < < < < < < < < < < < < < < < < < < < < < < < < < < < < < < < < < < < < < < < < < < < < < < < < < t B ",
"V y 4 4 4 4 4 4 4 4 4 4 4 4 4 4 4 4 4 4 4 4 4 4 4 4 4 4 4 4 4 4 4 4 4 4 4 4 4 4 4 4 4 4 4 4 4 4 4 4 4 4 4 4 4 4 4 4 4 4 4 4 y V ",
"C u t t t t t t t t t t t t t t t t t t t t t t t t t t t t t t t t t t t t t t t t t t t t t t t t t t t t t t t t t t t t u C ",
"Z u 4 4 4 4 4 4 4 4 4 4 4 4 4 4 4 4 4 4 4 4 4 4 4 4 4 4 4 4 4 4 4 4 4 4 4 4 4 4 4 4 4 4 4 4 4 4 4 4 4 4 4 4 4 4 4 4 4 4 4 4 u Z ",
"A y 4 4 4 4 4 4 4 4 4 4 4 4 4 4 4 4 4 4 4 4 4 4 4 4 4 4 4 4 4 4 4 4 4 4 4 4 4 4 4 4 4 4 4 4 4 4 4 4 4 4 4 4 4 4 4 4 4 4 4 4 y A ",
"D y 3 3 3 3 3 3 3 3 3 3 3 3 3 3 3 3 3 3 3 3 3 3 3 3 3 3 3 3 3 3 3 3 3 3 3 3 3 3 3 3 3 3 3 3 3 3 3 3 3 3 3 3 3 3 3 3 3 3 3 3 y D ",
"G y 2 3 3 3 2 < 1 - - > < 2 3 3 3 3 3 3 < < < < < < , < 3 3 3 3 3 3 3 3 2 2 3 2 3 3 3 3 2 2 3 3 2 2 3 3 3 3 3 3 3 3 3 3 3 2 y G ",
"J y < 2 2 < - f z c c z w , 2 2 2 2 2 < 4 H U U I J V u , 2 2 2 2 2 2 2 2 2 2 2 2 2 2 2 2 2 2 2 2 2 2 2 2 2 2 2 2 2 2 2 2 < y J ",
"L y < < < , e x f 9 w k n 8 < < < < < , y { A d M B Q ] i , < < < < < < < < < < < < < < < < < < < < < < < < < < < < < < < < y L ",
"I t , , , , * % : , , = b h : , , , , , t ] p O : : 4 / Z : , , , , , , , , , , , , , , 3 3 , : , , , , : < 4 3 , , , , , , t I ",
"T t , , , , , , , , , % v h ; , , , , , t ] p : , , , T A : : N C , , , : d Z , , : y H ~ Q V u D 3 : , N E Q Q L y : , , , t T ",
"E t : , , , : & O & % g b 6 ; , , , , : t ] a O : , p ) a O O Z U : , , O V Q , : 4 ! I i u B / ' 4 o d ) a y u M 4 : , , : t E ",
"Q t O : : : ; % j l c c 7 o : : : : : O t { ! L L E ~ s o & o Z I : : : o V E , o M ] t o O O A ] 4 o C T : . O o O : : : O t Q ",
"~ t O O O O O $ r h j x k # O O O O O o t { A d d N H I u o o Z I O O O . V E : o G I O O O . s ' 4 . i ' H i , o O O O O o 4 ~ ",
"/ 4 o o o o o o . . . @ c k X o o o o . t { p   . . : J E , . Z I O o o . V E & o L G . o o . p ' 3 . . y D ) T a O o o o o 4 / ",
"~ 4 o o o o o o o o o . h v + o o o o . t { p . o o . M { 4 . Z I O o o . C E : o H J o o o . a ' 3 o o . o t C { a . o o o 4 ~ ",
"T 4 o O O O . o O O O X k x $ O O O O o t ] p . o . o Z ) 2 . C Q : o o : T E : . N / 2 o o . B ] 4 o . . o . o I Z o O O O 4 T ",
"L 4 O : : & r q 5 @ 5 g m r O : : : : O t { B y u i V | B O o a  .M 3 4 B { T , O t ) Z 4 3 a ~ ' 4 o i i 3 2 i / M o : : O 4 L ",
"G 4 : : : & g v v c v c r & : : : : : : 4 Q ~ ~ ~ ! U d , : : , V / ~ Q V M G , : O p E ~ Q D B ) 4 o d ! ! Q ! V < : : : : 4 G ",
"Z 4 , , , , & = 0 6 0 % ; , , , , , , , : 2 3 3 3 2 , & , , , , : 4 y 4 : : < : , , : < t t : a ' 4 : : 3 y y 3 : , , , , , 4 Z ",
"V 4 , , , , , , , , , , , , , , , , , , , , , , , , , , , , , , , , , , , , , , , : : : : : O Z Q < , , , , , , , , , , , , 4 V ",
"N 4 , < < < < < < < < < < < < < < < < < < < < < < < < < < < < < < < < < < < < < , 4 B s u i B { M , < < < < < < < < < < < , 4 N ",
"d 4 < < < < < < < < < < < < < < < < < < < < < < < < < < < < < < < < < < < < < < < 2 V T Q Q U d < < < < < < < < < < < < < < 4 d ",
"s 4 2 2 2 2 2 2 2 2 2 2 2 2 2 2 2 2 2 2 2 2 2 2 2 2 2 2 2 2 2 2 2 2 2 2 2 2 2 2 2 < , 2 4 4 < , 2 2 2 2 2 2 2 2 2 2 2 2 2 2 4 a ",
"p 4 3 3 3 3 3 3 3 3 3 3 2 2 2 2 2 2 2 2 3 3 3 2 3 3 3 3 2 2 2 2 3 3 3 3 2 2 2 2 2 2 3 2 2 2 3 3 3 3 2 2 2 2 2 2 3 3 2 2 2 2 4 p ",
"u 4 3 3 3 3 3 3 3 3 3 3 3 3 3 3 3 3 3 3 3 3 3 3 3 3 3 3 3 3 3 3 3 3 3 3 3 3 3 3 3 3 3 3 3 3 3 3 3 3 3 3 3 3 3 3 3 3 3 3 3 3 4 u ",
"y 4 4 4 4 4 4 4 4 4 4 4 4 4 4 4 4 4 4 4 4 4 4 4 4 4 4 4 4 4 4 4 4 4 4 4 4 4 4 4 4 4 4 4 4 4 4 4 4 4 4 4 4 4 4 4 4 4 4 4 4 4 4 t ",
"4 4 4 4 4 4 4 4 4 4 4 4 4 4 4 4 4 4 4 4 4 4 4 4 4 4 4 4 4 4 4 4 4 4 4 4 4 4 4 4 4 4 4 4 4 4 4 4 4 4 4 4 4 4 4 4 4 4 4 4 4 4 4 4 ",
"< 4 t t t t t t t t t t t t t t t t t t t t t t t t t t t t t t t t t t t t t t t t t t t t t t t t t t t t t t t t t t t t 4 < ",
"O 2 4 4 4 4 3 3 4 4 4 4 3 3 4 4 4 4 3 3 4 4 4 4 3 3 4 4 4 4 3 3 4 4 4 3 3 3 4 4 4 4 4 4 4 4 4 3 3 3 4 4 4 4 3 3 4 4 4 4 4 4 2 O ",
". O : : : : & & : : : O O O : : : : : & : : : O O O : : : : : & : : : O O O : : : : : : : : : O O O : : : : : : : : : : : : O o ",
"V N N N N N N N N N N N N N N N N N N N N N N N N N N N N N N N N N N N N N N N N N N N N N N N N N N N N N N N N N N N N N N V ",
"B t 3 3 3 3 3 3 3 3 3 3 3 3 3 3 3 3 3 3 3 3 3 3 3 3 3 3 3 3 3 3 3 3 3 3 3 3 3 3 3 3 3 3 3 3 3 3 3 3 3 3 3 3 3 3 3 3 3 3 3 3 t B ",
"V y 3 4 3 4 3 4 4 3 4 4 4 4 3 4 4 4 4 4 4 3 4 4 4 4 3 4 3 4 3 4 4 4 4 4 3 3 4 4 4 4 4 4 4 4 3 4 4 4 3 3 4 3 4 4 4 4 3 4 4 3 y V ",
"C u t t t t t t t t t t t t t t t t t t t t t t t t t t t t t t t t t t t t t t t t t t t t t t t t t t t t t t t t t t t t u C ",
"Z u 4 4 4 4 4 4 4 4 4 4 4 4 4 4 4 4 4 4 4 4 4 4 4 4 4 4 4 4 4 4 4 4 4 4 4 4 4 4 4 4 4 4 4 4 4 4 4 4 4 4 4 4 4 4 4 4 4 4 4 4 u Z ",
"A y 4 4 4 4 4 4 4 4 4 4 4 4 4 4 4 4 4 4 4 4 4 4 4 4 4 4 4 4 4 4 4 4 4 4 4 4 4 4 4 4 4 4 4 4 4 4 4 4 4 4 4 4 4 4 4 4 4 4 4 4 y A ",
"D y 3 3 3 3 3 3 3 4 4 4 4 4 3 3 4 3 3 3 3 3 3 3 3 3 3 3 3 3 3 3 4 3 3 3 3 3 3 4 4 4 4 4 4 3 3 3 3 3 3 3 3 3 3 3 3 3 3 3 3 3 y D ",
"G y 2 3 3 3 3 3 < < < < < 2 3 2 < 2 4 2 < 2 3 3 3 2 3 3 2 3 3 2 < 2 4 2 < 2 3 2 < < < < < 3 3 3 3 3 3 3 2 2 3 3 3 2 3 3 2 2 y G ",
"J y 2 2 2 2 2 < t H L I V , < 2 N E ~ T d < 2 2 2 2 2 2 2 2 < 2 N T ~ T M 2 < , M I L J u < 2 2 2 2 2 2 2 2 2 2 2 2 2 2 2 2 y J ",
"L y < < < < < , u  .D N a , , C { B s C { M , < < < < < < < < Z ] V s V ] C , , p N Z  .a , < < < < , , < < < < < < < < < < y L ",
"I t , , , , , , u | p O : , u { M O : : V ) 4 , , , , , < , i | d O : : s { i , , O y | a , , , , : s a , , , , , , , , , , t I ",
"U t , , , , , : u | p : , : N ] 4 , , : y | s : , , , , , & N ' 4 , , , , Q Z : , , y | a : , , , : D Z O , , , , , , , , , t T ",
"E t : : , , , : u | p O , O A Q , : , : 2 / V O , , , : , O V / < : , , O H U , , : y | a O , : , O A C O , : , , , , : , : t E ",
"Q t O : : : : O u | p o : : L I : : : : , Q D O : : : : : o M { t o : O < ! E , : O y | a o & , , , D Z : , , O : : : : : O t Q ",
"~ t o O O O O o y | p o O O U J O O O O : T H o o . . . o o t ' G 4 , t Z | T : O o y | p . y T E E { ] E E U t o O O O O O t ~ ",
"/ 4 o o o o o . y | p . o O I L o o o o : E G . y d s d u o . p ! ) Q Q M I L o o . y | p . < a a a T U a s a , . o o o o o 4 / ",
"~ 4 o o o o o . y | p . o o D T O o o o , ~ Z . N / ~ / C o o . < u u 3 : Q C . o . y | p . o . . . A C   . . o o o o o o o 4 ~ ",
"E 4 o O O O O o y | p . O . B ) 2 o O o 4 { M . : < < < , o O O o . o . y { a . O o y | p . O O O o A C . O O O O O O O O o 4 E ",
"L 4 O : : : : o u | p o : o u | p . O . d | u o O O O O O : : O O O o : D ! 2 O & O y | a o : : & o C V o : : & & & : : : O 4 I ",
"G 4 : : : : : O u | p O : : , J ! i 3 p ) G , : : : : : : : O < 2 2 u D ] a O : : O y | a O : : : O 2 2 : : : : : : : : : : 4 G ",
"Z 4 , , , , , : u | p : , , : 4 L ] ) ] H 4 : , , , , , , , O B / ~ ' U p : , , , : y | a O , , , , : , , , , , , , , , , , 4 Z ",
"V 4 , , , , , , u | p O : , , : , y p y , : , , , , , , , , : 4 p p y < : , , , , O y | a : , , , , , , , , , , , , , , , , 4 V ",
"N 4 , , , , , , u  .B p y , , , , , , , , , , , < < < < , , , , , , , , , , , , y p M  .a : , , < < < < , , , , < < , < , , 4 N ",
"d 4 < < < < < , y ! ~ / Z , < < < < < < < < < < < < < < < < < < < < < < < < < , B ~ ~ ~ i , < < < < < < < < < < < < < < < < 4 d ",
"s 4 2 2 2 2 2 2 < 3 4 4 2 < 2 2 2 2 2 2 2 2 2 2 2 2 2 2 2 2 2 2 2 2 2 2 2 2 2 < 2 4 4 3 < 2 2 2 2 2 2 2 2 2 2 2 2 2 2 2 2 2 4 s ",
"p 4 2 3 3 3 3 3 2 2 2 2 2 3 3 3 3 3 3 3 3 3 3 3 2 2 2 2 3 3 3 3 3 3 2 3 3 3 3 3 2 2 2 2 3 3 3 3 3 2 3 3 3 3 3 3 2 2 2 2 3 2 4 p ",
"u 4 3 3 3 3 3 3 3 3 3 3 3 3 3 3 3 3 3 3 3 3 3 3 3 3 3 3 3 3 3 3 3 3 3 3 3 3 3 3 3 3 3 3 3 3 3 3 3 3 3 3 3 3 3 3 3 3 3 3 3 3 4 u ",
"y 4 4 4 4 4 4 4 4 4 4 4 4 4 4 4 4 4 4 4 4 4 4 4 4 4 4 4 4 4 4 4 4 4 4 4 4 4 4 4 4 4 4 4 4 4 4 4 4 4 4 4 4 4 4 4 4 4 4 4 4 4 4 y ",
"4 4 4 4 4 4 4 4 4 4 4 4 4 4 4 4 4 4 4 4 4 4 4 4 4 4 4 4 4 4 4 4 4 4 4 4 4 4 4 4 4 4 4 4 4 4 4 4 4 4 4 4 4 4 4 4 4 4 4 4 4 4 4 4 ",
"< 4 t t t t t t t 4 t t t t t t 4 4 t t t t t t 4 4 t t t t t t 4 4 t t t t t t t 4 t t t t t t 4 t t t t t t t 4 4 t t t t 4 < ",
"O 3 4 4 4 4 4 4 4 4 4 4 4 4 4 4 4 4 4 4 4 4 4 4 4 4 4 4 4 4 4 4 4 4 4 4 4 4 4 4 4 4 4 4 4 4 4 4 4 4 4 4 4 4 4 4 4 4 4 4 4 4 3 O ",
". o o o o o o o o o o o o o o o o o o o o o o o o o o o o o o o o o o o o o o o o o o o o o o o o o o o o o o o o o o o o o o . "
};
