/* XPM */
static char *cpu_g_png_ico_3[] = {
/* columns rows colors chars-per-pixel */
"48 48 217 2 ",
"   c None",
".  c #161517",
"X  c #181718",
"o  c #1A1A1A",
"O  c #171518",
"+  c #1F201E",
"@  c #20221F",
"#  c #26311F",
"$  c #242524",
"%  c #282828",
"&  c #2E342B",
"*  c #373B35",
"=  c #30362C",
"-  c #34472A",
";  c #3C582C",
":  c #3C4339",
">  c #3B4933",
",  c #3E5232",
"<  c #3F612D",
"1  c #405E2F",
"2  c #434B3D",
"3  c #44523C",
"4  c #445739",
"5  c #42682D",
"6  c #496937",
"7  c #497332",
"8  c #4C7834",
"9  c #537B3C",
"0  c #434840",
"q  c #484C46",
"w  c #4A4A4B",
"e  c #4B5546",
"r  c #4C5945",
"t  c #565B53",
"y  c #525A4C",
"u  c #4E6243",
"i  c #54634C",
"p  c #536C45",
"a  c #537442",
"s  c #5A7B47",
"d  c #5A6951",
"f  c #5F635D",
"g  c #627657",
"h  c #617D51",
"j  c #60655D",
"k  c #5A7B68",
"l  c #5A7A77",
"z  c #627B66",
"x  c #627575",
"c  c #6E6F6D",
"v  c #47893B",
"b  c #56813E",
"n  c #5A8D3C",
"m  c #548836",
"M  c #5C943C",
"N  c #5E9C3B",
"B  c #54973C",
"V  c #64963D",
"C  c #619C3D",
"Z  c #6C973A",
"A  c #7C9F39",
"S  c #769E38",
"D  c #5FA13B",
"F  c #76A42E",
"G  c #62A33D",
"H  c #6BA13C",
"J  c #6AA93C",
"K  c #7BA73D",
"L  c #73AC3D",
"P  c #77A73A",
"I  c #358B47",
"U  c #3C9041",
"Y  c #5A8443",
"T  c #5C8C43",
"R  c #5E8549",
"E  c #568A4C",
"W  c #5E9441",
"Q  c #5C9348",
"!  c #5B9846",
"~  c #588852",
"^  c #4E9B42",
"/  c #638C4B",
"(  c #629443",
")  c #639C43",
"_  c #699C4C",
"`  c #669948",
"'  c #638858",
"]  c #6D9C53",
"[  c #689A59",
"{  c #719F56",
"}  c #7B9F43",
"|  c #5AA248",
" . c #4CA557",
".. c #54A95F",
"X. c #65A342",
"o. c #6AA544",
"O. c #67A941",
"+. c #6AAC44",
"@. c #6BA44B",
"#. c #6DAA4A",
"$. c #65A54C",
"%. c #73AB45",
"&. c #72AC4C",
"*. c #77A747",
"=. c #6BB045",
"-. c #6EB149",
";. c #74B249",
":. c #6AA451",
">. c #72A653",
",. c #74AB54",
"<. c #7CAD53",
"1. c #75A15B",
"2. c #76AC59",
"3. c #79AA5B",
"4. c #74B451",
"5. c #7CB45A",
"6. c #598766",
"7. c #7F9374",
"8. c #749561",
"9. c #4DA761",
"0. c #7BA663",
"q. c #7EB660",
"w. c #9CB91F",
"e. c #A7BA19",
"r. c #83AC3B",
"t. c #80A430",
"y. c #96A53C",
"u. c #8BAF2D",
"i. c #A3A43C",
"p. c #AAA538",
"a. c #ACA737",
"s. c #BAA837",
"d. c #C1A936",
"f. c #D7B23F",
"g. c #D9B43F",
"h. c #AB8E57",
"j. c #8AA348",
"k. c #84AA53",
"l. c #98A854",
"z. c #8FAC40",
"x. c #ABA64B",
"c. c #A4A547",
"v. c #B8A846",
"b. c #ACA752",
"n. c #ACA856",
"m. c #899C7E",
"M. c #849779",
"N. c #82AC6A",
"B. c #83B663",
"V. c #87B66A",
"C. c #89AC75",
"Z. c #87AC75",
"A. c #8DB974",
"S. c #8DB279",
"D. c #89B570",
"F. c #90B47D",
"G. c #91BC7A",
"H. c #90BC77",
"J. c #9FA363",
"K. c #CFB146",
"L. c #CFB149",
"P. c #D3B245",
"I. c #D9B441",
"U. c #D1B249",
"Y. c #C9AD53",
"T. c #C88E6C",
"R. c #93C47A",
"E. c #626684",
"W. c #757598",
"Q. c #7E77A8",
"!. c #8476AD",
"~. c #8A7BB8",
"^. c #947FBF",
"/. c #79948D",
"(. c #868586",
"). c #9C9B9D",
"_. c #9EBA8E",
"`. c #97B687",
"'. c #9FAE98",
"]. c #9FBA90",
"[. c #9DB390",
"{. c #99AC8E",
"}. c #A1AE9A",
"|. c #A0BA92",
" X c #A2B19A",
".X c #A3B699",
"XX c #B4B283",
"oX c #ABB7A4",
"OX c #B1BEAA",
"+X c #BCBDBC",
"@X c #B6B5B7",
"#X c #A4A2A5",
"$X c #E7A79D",
"%X c #B3C697",
"&X c #B4C3AC",
"*X c #B1C3A6",
"=X c #B9C7B2",
"-X c #BBC9B3",
";X c #BEC2BC",
":X c #B6C1B0",
">X c #B8D7AC",
",X c #C1C5BF",
"<X c #9281C1",
"1X c #B298DA",
"2X c #A58ED0",
"3X c #C0BFC0",
"4X c #C5C5C5",
"5X c #C7C7C8",
"6X c #C8C7C9",
"7X c #CBCBCB",
"8X c #C7C8C7",
"9X c #D0CFD0",
"0X c #D3D2D4",
"qX c #DCDCDB",
"wX c #D8D8D8",
"eX c #D6D5CF",
"rX c #ECCCC8",
/* pixels */
"                                                                                                ",
"                                                                                                ",
"                                                                                                ",
"                                                                                                ",
"                                                                                                ",
"wX0X0X7X7X,X                                                                                    ",
"          4XOXoXB.$.$.$.+.=.=.=.-.V.&.5.B.-.B.<.=.-.-.-.+.+.+.+.+.+.+.+.+.+.+.X.( o.+.X.n M O.+.",
"          ;X.X[.5.$.[ [ #.+.4.=.R.rXh.>X$Xl.eXT.&.4.-.4.+.+.B.G.G.G.A.H.G.G.-.X.T ( X.6 t e 7 O.",
"          4X-X-X*X&X&X*X&XD.-.=.5.%Xj.R.XX<.%XJ.+.C C O.O.G ' M.M.M.7.7.M.M.) J J L n f 7X+X3 G ",
"          7XwX0X0X0X0X7X9XF.4.-.L r.O.) ) X.L r.#.4 3 #.q.8.@ o o o o o o o > D.<.K M t 7X@X4 G ",
"          8X7X7X7X7X4X4X7XS.+.%.O.( T ( ) T ( ) &.e 0 >.A.m.+ o o o o o o X : _.,.O.O.7 3 4 m O.",
"          4X7X7X4X4X4X4X4XS.L z.) q w u Y q w a &.e 0 >.A.m.@ o o o o o o X : |.,.#.+.O.G X.5.#.",
"          4X6X7X5X4X6X7X7XS.L ;.W w w r Y w w p &.e 0 >.A.m.@ o o o o o o X : |.,.) X.n 5 7 ) O.",
"          ;X X X X X X X X0.+.+.) u u a W u u Y #.4 3 @.A.m.+ o o o o o o X : _.2.( M 3 (.c ; G ",
"          4X=X-X=X=X&X&X=XD.#.+.O.O.@.l $.X.G O.X.m n O.A.m.+ o o o o o o o : _.,.L m c qX7X3 N ",
"          7X0X0X9X7X7X7X0XF.J K ,.&.<.[ 2.#.<.O.` & 6 O.A.m.+ o o o o o o o : ].<.K V 3 ).(.1 G ",
"          4X4X7X4X4X4X7X7XS.L r.v.c.v.y.v.c.v.K ` $ 6 O.A.m.o X o o o o o . : |.,.#.O.m 5 5 ) X.",
"          4X4X7X7X7X7X7X7XS.J K s.a.s.p.d.p.d.K ) 1 b #.#.T > : : : : : : : , @.X.#.#.G N G #.o.",
"          4X4X5X4X7X7X6X6XS.N o.v.i.v.i.v.i.v.K O.O.J &.O.G N.].|._._._.].|.@.#.*.P G 7 3 , m G ",
"          ;X X X'.}. X X X0.W ) <.*.k.%.<.%.k.o.#.X.W _ ] _ @.{ { >.<.,.<.k.X.X.o.%.n t @X#X, N ",
"          ,X=X-X&XOX*X&X&XD.W X.G G G #.>.>.>.,.#.W s 3 & e ` Y Y ( r.&.L o.....| 2.T f qX7X3 N ",
"          8X0X0X0X7X7X7X0XF.C X.6 8 X.u e e e e a M h * . 2 1.>.*.P P G H r.X.N F H C 1 j y 7 G ",
"          4X4X7X7X7X7X7X5XC.G @.= , ) # O X X O - ) ] p e p >.*.Z Z Y ) Z e.t.F e.F G M m m N C ",
"          4X7X7X7X7X7X7X4XC.S ` - 4 X.s g g g g R X._ R / >.>.` 9 s W W M ^ I I v X.C n V V V C ",
"          4X7X7X7X7X6X4X4XZ.A Z ( ` #.,.,.#.o.#.X.C 9 9 b b T Y Y >.) n X.| ^ B X.2.@.l.s.s.l.X.",
"          ;X X X X}.}.}.'.0.A V d d d d d Y S H C ( b n n n _ _ W N M ! ..9. .N C o.X.j.p.p.j.) ",
"          ,XOX*X*X&X&X&X&XN.H m + . . . . < A Z Y a a N G @.,.>.@.n C w.w.Z w.t.Y 3 T l.s.s.l.) ",
"          4X9X0X7X7X0X0X0XF.D M i i i i i Y S V a a Y ) / _ ,.,.@.n C F F ! F F a $ R *.y.y.} N ",
"          4X7X7X4X4X4X4X5XC.X.X.] [ @.[ [ X./ Q W ~ Q s * s o.o.8 ; M N U I v N a % Y n a a n N ",
"          4X4X7X7X7X4X+X4XZ.X.) W.^.x Q.~.l ~.Q.x <XW.R r R C N 8 5 M ) k Q N N M a W 7 $ $ 7 N ",
"          4X7X9X7X7X6X4X4XZ.6.~ !.1XE.<X2XE.2X^.E.1X!.W ] _ ) _ o.@.N :./.Z.N.N.N.0.) M R R M N ",
"          ;XoX X X}.}.}.}.0.6.! ' z W ' k Q k ' W z ~ X.oX`.N.:X>.o.) *XqXwXwX0X0X7XZ.M ~ ~ E M ",
"          ;X}.{.1.C ) ) ) N C N N N N N E ~ E N N N N N >.@.) 3.C @.) .X7X8X4X4X;X+XN.C T Y Y M ",
"          4XoX}.1.N N N N N N N N N N N N N N N N N N N N N N N N M N ` 1.1.1.1.1.] N M M M M M ",
"          ;X          C C C C C C C C C C C C C C C C C C C N                                   ",
"          4X          n.b.b.b.b.b.b.b.x.x.x.x.x.x.x.x.x.x.x.c.                                  ",
"          4X          Y.I.I.I.I.I.I.I.I.I.I.f.f.g.g.f.f.g.I.Y.                                  ",
"          4X          Y.U.U.L.U.U.U.K.K.U.U.K.K.U.U.K.K.U.U.v.                                  ",
"          4X                                                                                    ",
"          4X                                                                                    ",
"          4X                                                                                    ",
"          4X                                                                                    ",
"                                                                                                ",
"                                                                                                ",
"                                                                                                ",
"                                                                                                ",
"                                                                                                ",
"                                                                                                "
};
