/* XPM */
static char *deadbeef_png[] = {
/* columns rows colors chars-per-pixel */
"64 64 138 2 ",
"   c None",
".  c #87B40B",
"X  c #8AB50B",
"o  c #8EB90A",
"O  c #94BB0A",
"+  c #99BF09",
"@  c #9DC109",
"#  c #ADCD07",
"$  c #A3C509",
"%  c #A8C708",
"&  c #A6C908",
"*  c #ABCA08",
"=  c #B2CE07",
"-  c #AED007",
";  c #B4D207",
":  c #BBD406",
">  c #BCDB05",
",  c #C0D706",
"<  c #C2D806",
"1  c #C4DA05",
"2  c #C5DA05",
"3  c #C6DB05",
"4  c #C7DB05",
"5  c #C4D906",
"6  c #C0DD04",
"7  c #C0DC05",
"8  c #C1DD05",
"9  c #C2DD05",
"0  c #C1DE04",
"q  c #C1DE05",
"w  c #C0DF05",
"e  c #C2DE04",
"r  c #C3DF04",
"t  c #C2DE05",
"y  c #C2DF05",
"u  c #C3DF05",
"i  c #C0DD06",
"p  c #C2DF06",
"a  c #C7DC05",
"s  c #C4DF04",
"d  c #C5DF05",
"f  c #C3DC05",
"g  c #C8DC05",
"h  c #C9DD05",
"j  c #CADE05",
"k  c #CBDE05",
"l  c #CCDF05",
"z  c #CDDF05",
"x  c #CADE05",
"c  c #C5E003",
"v  c #C3E004",
"b  c #C3E104",
"n  c #C3E005",
"m  c #C4E004",
"M  c #C5E004",
"N  c #C4E005",
"B  c #C5E005",
"V  c #C4E105",
"C  c #C5E105",
"Z  c #C6E105",
"A  c #C4E205",
"S  c #C5E205",
"D  c #C6E205",
"F  c #C7E205",
"G  c #C4E005",
"H  c #C8E304",
"J  c #C9E305",
"K  c #CFE104",
"L  c #CEE005",
"P  c #CEE104",
"I  c #D0E104",
"U  c #D1E204",
"Y  c #D2E204",
"T  c #D2E304",
"R  c #D3E304",
"E  c #D4E404",
"W  c #D5E404",
"Q  c #D6E504",
"!  c #D7E504",
"~  c #D7E604",
"^  c #D4E404",
"/  c #DAE703",
"(  c #D8E604",
")  c #D9E704",
"_  c #D9E704",
"`  c #DAE803",
"'  c #DBE803",
"]  c #DCE803",
"[  c #DCE903",
"{  c #DDE903",
"}  c #DEEA03",
"|  c #DFEA03",
" . c #DFEB03",
".. c #DDE903",
"X. c #E0EB03",
"o. c #E1EC03",
"O. c #E2EC03",
"+. c #E2ED03",
"@. c #E3ED03",
"#. c #E4EE02",
"$. c #E5EE02",
"%. c #E5EF02",
"&. c #E4EE03",
"*. c #E6EF02",
"=. c #E3ED03",
"-. c #E7F002",
";. c #E7F002",
":. c #E8F002",
">. c #E9F102",
",. c #EAF102",
"<. c #EBF202",
"1. c #ECF302",
"2. c #EFF501",
"3. c #EDF402",
"4. c #EEF402",
"5. c #EFF502",
"6. c #ECF302",
"7. c #F0F501",
"8. c #F0F601",
"9. c #F1F601",
"0. c #F2F701",
"q. c #F3F801",
"w. c #F4F801",
"e. c #F5F901",
"r. c #F6F901",
"t. c #F6FA01",
"y. c #F7FA01",
"u. c #F8FA01",
"i. c #F8FB01",
"p. c #F9FB01",
"a. c #FAFC00",
"s. c #FBFC00",
"d. c #FBFD00",
"f. c #FCFD00",
"g. c #FDFE00",
"h. c #FEFE00",
"j. c #FEFF00",
"k. c yellow",
/* pixels */
"        H                                                                                                                       ",
"        N & w                                                                                                                   ",
"        w . X # w                                                                                                               ",
"        n X X X + > >                                                                                                           ",
"        n o O @ @ + $ w                                                                                                         ",
"        N O $ = ; # $ @ # N                                                                                                     ",
"        N @ # 2 K j : # $ @ ; w                                                                                                 ",
"        N @ ; U @.@.) j : % @ @ > >                                                                                             ",
"        N @ : ~ 1.0.2.&.~ 2 ; % @ & w                                                                                           ",
"        N @ : ) 2.i.i.w.1.X.U < = $ @ # w                                                                                       ",
"        N @ : ) 0.d.g.d.i.0.,.{ z : # @ @ : w                                                                                   ",
"        N @ : ) 0.d.g.g.g.g.i.0.&.) j : % @ @ > >                                                                               ",
"        N @ : ) 0.d.g.g.g.g.g.d.w.2.@.~ 2 = % @ % n                                                                             ",
"        N @ : ) 0.d.g.g.g.g.g.g.g.i.q.,.{ U , # $ @ ; d                                                                         ",
"        N @ : ) 0.d.g.g.g.g.g.g.g.g.d.w.0.-.` j : % @ @ > >                                                                     ",
"        N @ : ) 0.d.g.g.g.g.g.g.g.g.d.w.q.2.,.@.~ 2 ; % @ $ w >                                                                 ",
"        N @ : ) 0.d.g.g.g.g.g.g.d.i.q.2.,.&.&.&.&.{ U < = $ @ # N                                                               ",
"        N @ : ) 0.d.g.g.g.g.g.i.w.1.@.~ K z U ) @.&.@.` z : # $ @ ; w                                                           ",
"        N @ : ) 0.d.g.g.g.d.w.2.&.~ 2 : = # = : z ) @.&.X.~ j : % @ @ > >                                                       ",
"        N @ : ) 0.d.g.d.w.0.-.` j : % $ % ; $ $ = , K { @.&.{ U 2 ; % @ & n                                                     ",
"        N @ : ) 2.w.w.0.,.{ K : # $ @ > w   N - @ % = 2 U { &.@.{ U < = $ @ # N                                                 ",
"        N @ : ~ ,.0.,.@.U < = $ @ - N           n & @ % : j ~ X.&.@./ z : # @ @ ; w                                             ",
"        N @ ; U X.X.~ 2 ; % @ & d                 > w $ $ # : z / @.&.@.~ j : % @ @ > >                                         ",
"        N + # < z 2 : % @ $ > >                       w ; @ $ = < U { &.&.{ U 2 = % @ & N                                       ",
"        n O $ # = % @ @ ; w                               c # @ % ; 2 ~ X.&.@.{ K , = $ @ ; N                                   ",
"        n o O + + + # N                                       d & $ % : j ) @.&.@.) j : # $ @ ; w                               ",
"        n X . o @ w                                             > > $ $ # : K ` @.&.X.~ d : % @ @ w >                           ",
"        n X O > >                                                   N ; @ % = < U { &.&.{ U 2 = % @ % N                         ",
"        N ; >                                                           N # @ % : j ) @.,.-.{ U , # $ @ ; N                     ",
"        w                                                                 > w $ $ # , ~ &.2.2.,.{ j : % @ @ > >                 ",
"                                                                              w > $ % < ` 2.w.w.2.&.~ < = @ O @ >               ",
"                                                                                  H ; ; U ,.w.d.i.0.&.~ , % O X X & N           ",
"                                                                                  H ; ; U ,.w.d.i.0.&.~ , % O X X & N           ",
"                                                                              > > $ % < { 2.w.w.2.&.~ < = @ O @ >               ",
"                                                                            w $ $ # : ~ &.2.2.,.` j : % @ @ > >                 ",
"                                                                        n # @ & ; 2 ~ @.,.-.{ U , # $ @ - N                     ",
"                                                                    d ; @ % = < U { @.&.{ U 2 = % @ % n                         ",
"                                                                > > @ $ # : z ` @.&.X.~ d : % @ @ w >                           ",
"                                                              N & @ % : j ~ X.&.@.) j : # @ @ : >                               ",
"                                                          c # @ % ; 2 ~ { &.@.{ K , = $ @ # N                                   ",
"                                                      w ; @ $ = , U { @.@.{ U 2 = % @ & N                                       ",
"                                                  > w $ $ # : z ) @.&.X.~ j : % @ @ > >                                         ",
"                                                w & @ % : j ~ X.&.@.) z : # $ @ ; w                                             ",
"                                            w ; @ % = 2 U { @.@.{ U , = $ + # n                                                 ",
"                                        w > @ $ = , K ` @.&.{ ~ 2 ; % @ $ w                                                     ",
"                                    > w $ $ % : j ) @.&.X.~ j : % @ @ > >                                                       ",
"                                  N & @ % ; d ~ { &.@.` z : # $ @ ; n                                                           ",
"                              d ; @ % = < U { @.@.{ U < = $ @ # N                                                               ",
"                          > > @ $ # : K ` @.&.{ ~ 2 ; % @ $ n                                                                   ",
"                        w % $ % : j ) @.&.@.) j : % @ @ > >                                                                     ",
"                    N # @ & ; 2 ~ { &.@.` K : # $ @ ; d                                                                         ",
"                w ; @ $ = < U { @.&.{ U < = % @ % n                                                                             ",
"            > > $ $ # : z ` @.&.X.~ j : % @ @ > >                                                                               ",
"          w $ @ % : j ~ X.&.@.) z : # $ @ > w                                                                                   ",
"        N O + # < U { &.@.{ K , = $ @ ; N                                                                                       ",
"        n O % , ~ @.@.{ U 2 = % @ & w                                                                                           ",
"        N + # j ` { ~ j : % @ @ > >                                                                                             ",
"        N + # < z j : # $ @ ; w                                                                                                 ",
"        N O $ = ; # $ @ # N                                                                                                     ",
"        n o O @ @ + $ w                                                                                                         ",
"        n X X X + > >                                                                                                           ",
"        w . X # w                                                                                                               ",
"        N & w                                                                                                                   ",
"        J                                                                                                                       "
};
