/* XPM */
static char *deadbeef_png_ico_4[] = {
/* columns rows colors chars-per-pixel */
"64 64 147 2 ",
"   c None",
".  c #3A9B04",
"X  c #3DA200",
"o  c #419F04",
"O  c #44A401",
"+  c #4BA602",
"@  c #4DA901",
"#  c #54AB01",
"$  c #5CAD02",
"%  c #5DB101",
"&  c #62AE04",
"*  c #65B301",
"=  c #6BB403",
"-  c #6DB801",
";  c #74B405",
":  c #7BB606",
">  c #74BA01",
",  c #7BBB03",
"<  c #7DC000",
"1  c #82B707",
"2  c #83BC05",
"3  c #8BBD06",
"4  c #87B30B",
"5  c #8AB50B",
"6  c #8DBA08",
"7  c #92BF07",
"8  c #94BB0A",
"9  c #9ABF09",
"0  c #84C202",
"q  c #8BC303",
"w  c #8EC800",
"e  c #94C305",
"r  c #9BC506",
"t  c #94CA01",
"y  c #9BCD01",
"u  c #9DC109",
"i  c #9ED000",
"p  c #A0C606",
"a  c #A4CB05",
"s  c #ACCC07",
"d  c #A3C508",
"f  c #ABCA08",
"g  c #B1CE07",
"h  c #A3D101",
"j  c #A2D101",
"k  c #A1D101",
"l  c #A4D101",
"z  c #A4D201",
"x  c #A5D201",
"c  c #A6D201",
"v  c #A7D301",
"b  c #A5D002",
"n  c #A6D102",
"m  c #A6D202",
"M  c #A3D101",
"N  c #AAD103",
"B  c #A8D202",
"V  c #A8D302",
"C  c #A9D302",
"Z  c #AAD402",
"A  c #ABD402",
"S  c #ACD402",
"D  c #ADD402",
"F  c #ADD502",
"G  c #AED502",
"H  c #AFD502",
"J  c #AED005",
"K  c #AFD204",
"L  c #ABD303",
"P  c #B0D502",
"I  c #B1D503",
"U  c #B0D602",
"Y  c #B1D602",
"T  c #B2D602",
"R  c #B3D702",
"E  c #B2D603",
"W  c #B5D603",
"Q  c #B4D703",
"!  c #B5D703",
"~  c #B6D703",
"^  c #B0D105",
"/  c #B0D304",
"(  c #B3D006",
")  c #B5D305",
"_  c #B4D106",
"`  c #B4D007",
"'  c #B5D007",
"]  c #B6D107",
"[  c #B5D206",
"{  c #B6D306",
"}  c #B7D306",
"|  c #B7D405",
" . c #B7D505",
".. c #B7D604",
"X. c #B4D305",
"o. c #B8D703",
"O. c #B8D207",
"+. c #B9D307",
"@. c #B8D405",
"#. c #B8D505",
"$. c #B9D505",
"%. c #B9D704",
"&. c #B9D605",
"*. c #BAD704",
"=. c #BBD704",
"-. c #BAD605",
";. c #BAD705",
":. c #BBD406",
">. c #BCD506",
",. c #BED606",
"<. c #BFD706",
"1. c #BAD506",
"2. c #B7D803",
"3. c #B5D902",
"4. c #B8D803",
"5. c #B9D803",
"6. c #BAD803",
"7. c #BAD804",
"8. c #BBD804",
"9. c #BCD904",
"0. c #BCDA03",
"q. c #C1D706",
"w. c #C0D706",
"e. c #C1DA05",
"r. c #C2D806",
"t. c #C3D906",
"y. c #C5DA05",
"u. c #C6DB05",
"i. c #C7DB05",
"p. c #C4D906",
"a. c #C4DA06",
"s. c #C3DA05",
"d. c #C9DC05",
"f. c #CADD05",
"g. c #CBDE05",
"h. c #CCDE05",
"j. c #CCDF05",
"k. c #CDDF05",
"l. c #C9DD05",
"z. c #CEE005",
"x. c #CFE105",
"c. c #CFE005",
"v. c #D2E304",
"b. c #D4E404",
"n. c #D2E801",
"m. c #EAF202",
"M. c #E9F102",
/* pixels */
"        m.                                                                                                                      ",
"        v.O.t.                                                                                                                  ",
"        y.8 8 ' h.                                                                                                              ",
"        y.8 4 8 d ,.                                                                                                            ",
"        t.6 5 8 8 u s y.                                                                                                        ",
"        9.3 6 u d d 9 d ' f.                                                                                                    ",
"        o.2 3 p s s f d 9 d &.z.                                                                                                ",
"        E : 2 r ( ' ' s d u u f q.                                                                                              ",
"        D ; : r K ..&...( s d u u g y.                                                                                          ",
"        B * ; e B W 5.&.&.' g f d 9 d ' f.                                                                                      ",
"        j $ = q a E W 5.7.&.&.' g f u 9 d ,.z.                                                                                  ",
"        y # & 0 y D E W 2.5.7.&.&.' s d u u f t.                                                                                ",
"        y + # , y m D E E W 5.5.7.&...( s d u u g y.                                                                            ",
"        t O @ > t j m Z D E E W 5.7.&.&.' g f d 9 d O.h.                                                                        ",
"        y O @ > w y j m B Z D E W 2.5.7.&.&.' g f u 9 d ,.                                                                      ",
"        y O @ > w t y j j m B D D E W 5.5.&...' g s d u u s y.                                                                  ",
"        y + @ > w t y y i j j m Z D D E E ( K K s s s f d 9 u g f.                                                              ",
"        y @ # > w t y y y y i j m m m m a y r r r p f s s d u 9 d O.h.                                                          ",
"        i @ # > w y y y y y y y y y t q 0 , : : : 2 e p f s s d u 9 f ,.                                                        ",
"        i @ # , w y y y y y t t w 0 , - * $ = q q : : 2 e p s s f d u u s y.                                                    ",
"        y # # , t y i i y t w 0 > * # O @ > y     a 2 ; : 3 r a s s f d 9 d ' f.                                                ",
"        j # $ , t y i y t w , = # O X # 0           2.y 2 ; 2 e r f s s d u 9 d &.z.                                            ",
"        j # $ , t y t w 0 > % @ X @ , i                 E e : ; 2 e p f s s d u 9 f t.                                          ",
"        j # $ , q w w , = # O + - t                         B q : : 3 r a s s f d 9 u g y.                                      ",
"        j $ $ > 0 , > $ + + * t                                 a 2 : : 3 r f s s f d 9 d ' f.                                  ",
"        j # # * - * # + * w                                       2.r : ; 2 e p f s s d u 9 d ,.v.                              ",
"        j # O # # + $ 0 m                                             E e : : 2 e p s s s d u u s t.                            ",
"        a + . o # , y                                                     B q : : 3 r a s s f d 9 u g f.                        ",
"        a + o = t                                                             a 2 : 2 e p s g g f d 9 d O.h.                    ",
"        B ; 0 D                                                                 2.r : : 2 r s ( ' g f u 9 d ,.                  ",
"        n.5.                                                                        D e : 2 r s ..&.' s d 9 8 f q.              ",
"                                                                                        B 2 3 p X.&.&.' s u 8 5 8 g b.          ",
"                                                                                        a : 2 r K ..( s a u 8 5 8 g b.          ",
"                                                                                    y , & * 2 t a a p r 7 3 6 d q.              ",
"                                                                                i > @ O # - 2 q e q 2 : : e (                   ",
"                                                                              0 # X X # * > , , ; = & : r 0.                    ",
"                                                                          t * O X @ % * = * * # + $ 2 B                         ",
"                                                                      y > @ O @ % * = * % @ X O * t                             ",
"                                                                  Z 0 $ O @ $ = - - * # O X # < m                               ",
"                                                                t = + @ $ = > > = % @ O @ > y                                   ",
"                                                            y > # # $ = > > > * # O + = t                                       ",
"                                                        B 0 & # $ = > , > - $ + + * q                                           ",
"                                                    R t - $ $ = > , , > * # + $ 0 v                                             ",
"                                                  y , $ & = > , , , - $ # $ , j                                                 ",
"                                              B q = & = , 2 2 , > * $ $ > y                                                     ",
"                                          W e ; & = , 2 0 2 , - & $ ; t                                                         ",
"                                        a : = = : 2 q q 2 > = $ = q D                                                           ",
"                                    L q ; ; : 2 q q q : ; & = q B                                                               ",
"                                W r : ; : 2 q e q 2 : = = 2 a                                                                   ",
"                            0.a 2 : : 2 q e e q 2 ; = : y                                                                       ",
"                          K e : : 3 e e e e 2 : ; : r W                                                                         ",
"                      &.r 2 1 3 e r r e q 2 : : e E                                                                             ",
"                  t.a 3 2 3 e r r r e 3 : : q K                                                                                 ",
"              f.( e 3 3 e r p p r e 2 : 3 a e.                                                                                  ",
"            &.p 6 6 u p a a r e 3 1 3 p 9.                                                                                      ",
"        b.s 8 6 u p a f a r 7 3 3 r &.                                                                                          ",
"        f.8 6 u a f f p u 6 6 r ..                                                                                              ",
"        f.9 8 d f a p 8 6 u ( l.                                                                                                ",
"        f.9 8 u d u 8 u s y.                                                                                                    ",
"        f.8 6 8 8 9 f t.                                                                                                        ",
"        y.8 4 8 d ,.                                                                                                            ",
"        y.8 8 ' h.                                                                                                              ",
"        v.O.t.                                                                                                                  ",
"        m.                                                                                                                      "
};
