/* XPM */
static char *deadbeef_png_ico_1[] = {
/* columns rows colors chars-per-pixel */
"24 24 130 2 ",
"   c None",
".  c #56AE00",
"X  c #57AE01",
"o  c #59AB03",
"O  c #5EAE02",
"+  c #5DB100",
"@  c #5DB001",
"#  c #5FB101",
"$  c #5FB200",
"%  c #60B101",
"&  c #60B200",
"*  c #61B201",
"=  c #62B201",
"-  c #63B201",
";  c #63B301",
":  c #66B302",
">  c #67B401",
",  c #67B501",
"<  c #67B402",
"1  c #68B501",
"2  c #6BB601",
"3  c #69B402",
"4  c #6AB502",
"5  c #6BB502",
"6  c #6CB502",
"7  c #6CB602",
"8  c #70B702",
"9  c #70B603",
"0  c #71B603",
"q  c #73B703",
"w  c #72BB00",
"e  c #72B802",
"r  c #73B902",
"t  c #74BB01",
"y  c #75B803",
"u  c #76B803",
"i  c #78BC02",
"p  c #79BC02",
"a  c #7DBC03",
"s  c #7FBC03",
"d  c #7CBA04",
"f  c #7EBB04",
"g  c #7FBB04",
"h  c #7FC001",
"j  c #80BD03",
"k  c #81BB05",
"l  c #82BD04",
"z  c #83BD04",
"x  c #88BE05",
"c  c #8BBF05",
"v  c #8CBF05",
"b  c #8DBF05",
"n  c #8DBF06",
"m  c #97BE09",
"M  c #99BE0A",
"N  c #86C003",
"B  c #8EC105",
"V  c #8DC204",
"C  c #8FC204",
"Z  c #8CC800",
"A  c #90C205",
"S  c #91C305",
"D  c #91C006",
"F  c #92C006",
"G  c #92C106",
"H  c #92C206",
"J  c #94C106",
"K  c #96C206",
"L  c #93C404",
"P  c #98C306",
"I  c #99C306",
"U  c #99C704",
"Y  c #99C406",
"T  c #9CC705",
"R  c #9CC506",
"E  c #9CC407",
"W  c #9CC507",
"Q  c #9DC507",
"!  c #9FC507",
"~  c #9DC606",
"^  c #90C801",
"/  c #92CA00",
"(  c #95CB00",
")  c #9ACE00",
"_  c #9CCF00",
"`  c #9EC805",
"'  c #99C008",
"]  c #9BC109",
"[  c #9FC209",
"{  c #A1C607",
"}  c #A4C707",
"|  c #A5C707",
" . c #A1CD03",
".. c #A0CB04",
"X. c #A2C806",
"o. c #A5C807",
"O. c #A8C907",
"+. c #ABCA07",
"@. c #AACB07",
"#. c #ADCC07",
"$. c #A2C508",
"%. c #A6C708",
"&. c #A7C708",
"*. c #A8C808",
"=. c #A9C808",
"-. c #A9C908",
";. c #AAC908",
":. c #ACCA08",
">. c #ADCB08",
",. c #AECC08",
"<. c #AFCC08",
"1. c #B0CD07",
"2. c #B1CD07",
"3. c #B1CF06",
"4. c #B1CE07",
"5. c #B2CE07",
"6. c #B3CF07",
"7. c #A0D001",
"8. c #A3D002",
"9. c #A5D101",
"0. c #A6D201",
"q. c #AED502",
"w. c #B4D703",
"e. c #B6D703",
"r. c #B0D304",
"t. c #B4D106",
"y. c #B5D206",
"u. c #B6D405",
"i. c #B8D604",
"p. c #B8D704",
/* pixels */
"    6.                                          ",
"    m *.                                        ",
"    F @.*.,.                                    ",
"    l r.u.#.*.6.                                ",
"    7 8.w.p.y.@.*.                              ",
"    ; ( 0.q.w.p.6.*.:.                          ",
"    ; / _ 8.0. .U Q | %.,.                      ",
"    1 ( ) Z w < j B n Q %.*.6.                  ",
"    1 / h ; #         c F { %.*.                ",
"    O 1 : t             L c K | %.:.            ",
"    o w                     F n Q @.*.6.        ",
"                                F Q y.*.[ 6.    ",
"                                w N X.I ] 6.    ",
"                            < . # < 8 B         ",
"                        i ; # ; . #             ",
"                      8 1 1 ; ;                 ",
"                  s 8 t 8 7 i                   ",
"              B f f f t s                       ",
"          ` n c c k l                           ",
"        U F F n c                               ",
"    o.Q Q I K Q                                 ",
"    ] $.Q X.                                    ",
"    M %.                                        ",
"    6.                                          "
};
