/* XPM */
static char *decibel_png_ico_3[] = {
/* columns rows colors chars-per-pixel */
"48 48 220 2 ",
"   c None",
".  c #2F1E00",
"X  c #311F00",
"o  c #3C1F00",
"O  c #352200",
"+  c #3A2500",
"@  c #3E2800",
"#  c #422300",
"$  c #442B00",
"%  c #492F00",
"&  c #5B2E00",
"*  c #542E00",
"=  c #4D3100",
"-  c #533500",
";  c #573801",
":  c #5B3A01",
">  c #5B3200",
",  c #623E01",
"<  c #6E3900",
"1  c #723C00",
"2  c #654201",
"3  c #6B4501",
"4  c #6F4A07",
"5  c #704602",
"6  c #7A4200",
"7  c #744B01",
"8  c #7A4E02",
"9  c #764708",
"0  c #774809",
"q  c #7D4B0A",
"w  c #755102",
"e  c #7E5101",
"r  c #765A03",
"t  c #7C5511",
"y  c #7F6508",
"u  c #834E0A",
"i  c #894F0A",
"p  c #835401",
"a  c #895602",
"s  c #8B5A02",
"d  c #86500A",
"f  c #8B530B",
"g  c #875909",
"h  c #935000",
"j  c #935D02",
"k  c #94540B",
"l  c #9B540C",
"z  c #9D5B0A",
"x  c #885F18",
"c  c #A25C0B",
"v  c #A65809",
"b  c #B45F0D",
"n  c #886102",
"m  c #966102",
"M  c #9C6403",
"N  c #986809",
"B  c #96760F",
"V  c #986714",
"C  c #8A700C",
"Z  c #A26501",
"A  c #A46A03",
"S  c #AB6D03",
"D  c #A56309",
"F  c #AB640B",
"G  c #AD6C0A",
"H  c #A96808",
"J  c #B36C06",
"K  c #B2620D",
"L  c #B46C09",
"P  c #BC690C",
"I  c #AD7104",
"U  c #AE7208",
"Y  c #A87708",
"T  c #B37303",
"R  c #BA7502",
"E  c #B37B06",
"W  c #BD7A04",
"Q  c #B3740A",
"!  c #BC7C0A",
"~  c #BA760D",
"^  c #AE6810",
"/  c #A77317",
"(  c #BA7C14",
")  c #B26911",
"_  c #A97223",
"`  c #B47A22",
"'  c #CB6E0A",
"]  c #C36C0E",
"[  c #C57603",
"{  c #C27D03",
"}  c #CA7A09",
"|  c #D47E0A",
" . c #D57A04",
".. c #E57D02",
"X. c #EC7D01",
"o. c #F07F00",
"O. c #BB8606",
"+. c #BB8D05",
"@. c #BA8608",
"#. c #BB831B",
"$. c #BC8B18",
"%. c #BB8A26",
"&. c #BD8F34",
"*. c #C68104",
"=. c #CB8305",
"-. c #C58C04",
";. c #C3820B",
":. c #CB860B",
">. c #CE8808",
",. c #D28504",
"<. c #DD8403",
"1. c #D48B03",
"2. c #DC8E03",
"3. c #D38C0B",
"4. c #D8800C",
"5. c #CB9C03",
"6. c #C79705",
"7. c #DE9103",
"8. c #D59406",
"9. c #CE8A11",
"0. c #C78C1C",
"q. c #D18D13",
"w. c #C69C14",
"e. c #CA9916",
"r. c #DA9513",
"t. c #DD9916",
"y. c #D6921A",
"u. c #DE9B1B",
"i. c #D79319",
"p. c #E38302",
"a. c #EA8401",
"s. c #E48C02",
"d. c #EA8B02",
"f. c #E58A0A",
"g. c #F18301",
"h. c #F48A01",
"j. c #E39103",
"k. c #ED9303",
"l. c #E9970A",
"z. c #F99601",
"x. c #F39B02",
"c. c #F99900",
"v. c #F59301",
"b. c #E19E1C",
"n. c #CCA104",
"m. c #CDA10A",
"M. c #DAA200",
"N. c #D5AA04",
"B. c #D5A905",
"V. c #DDB402",
"C. c #DFB901",
"Z. c #D9AF1A",
"A. c #FDA200",
"S. c #F6A903",
"D. c #EAB501",
"F. c #E4BA01",
"G. c #E3B708",
"H. c #FFB203",
"J. c #F1BB01",
"K. c #E9AE0F",
"L. c #C1932F",
"P. c #D99927",
"I. c #C58F32",
"U. c #D19835",
"Y. c #C88F2C",
"T. c #E09E26",
"R. c #DCB527",
"E. c #D8A638",
"W. c #D6AF36",
"Q. c #E4A424",
"!. c #E5A42A",
"~. c #E7A82A",
"^. c #E9AC33",
"/. c #E5A93D",
"(. c #EAAF3B",
"). c #E7AA35",
"_. c #EBB23D",
"`. c #E9C400",
"'. c #F4C303",
"]. c #FFCB0C",
"[. c #F9CC02",
"{. c #F9D30A",
"}. c #FFCD1C",
"|. c #FFCC14",
" X c #F9DA1A",
".X c #E9C72B",
"XX c #F8DA27",
"oX c #FCE126",
"OX c #FFE339",
"+X c #C49A4C",
"@X c #C59E52",
"#X c #CAA140",
"$X c #D9B645",
"%X c #D6B356",
"&X c #E5AB43",
"*X c #E9AE43",
"=X c #ECB54B",
"-X c #EDB444",
";X c #EEB850",
":X c #D9BC7E",
">X c #E9C949",
",X c #EED145",
"<X c #F7DE4F",
"1X c #FFEA4C",
"2X c #FFE547",
"3X c #FDE555",
"4X c #FFE95B",
"5X c #FBE65B",
"6X c #F4DE64",
"7X c #FEEB63",
"8X c #F6E061",
"9X c #FFEF75",
"0X c #FEEE7A",
"qX c #F6E274",
"wX c #FFF07E",
"eX c #E5CD80",
"rX c #EEDB93",
"tX c #FFF083",
"yX c #FFF18E",
"uX c #FBEC90",
/* pixels */
"                                                                                                ",
"                    x t 4 2 ; =                                                                 ",
"                  V g 8 3 , ; = % $                                                             ",
"                / m p 7 3 , : = % $ @                                                           ",
"              ` N s p 7 3 , : - % $ @ $                                                         ",
"            %./ m s p 7 3 , : - % $ @ + :                                                       ",
"          I.#.A m s e 7 3 , : - % $ @ + % q                                                     ",
"          Y.Q A m s e 5 2 : - = % $ @ + O , k                                                   ",
"        U.0.T Z j a 8 5 2 : - = % $ @ + O % i k                                                 ",
"        U.;.I Z j p 8 3 2 : - = % $ @ + + O 5 k l l                                             ",
"        P.W S M j p 7 3 , : - % $ @ @ + + O ; M M z z z z c z c c c                             ",
"      E.0.R S M s p 7 2 : - = % $ @ + + O O $ N Y I H H D D D D D D D D D D                     ",
"      E.:.R S m s e 5 2 : - % $ @ + + O O O O n +.+.+.@.@.E E E E E T U G H D D                 ",
"      P.*.T A m a 8 3 , ; = % $ @ + O O O O O 2 @.6.m.n.n.n.5.5.5.6.6.-.O.! Q L G               ",
"      P.{ T A j p 7 3 : - = $ @ + O O O O O O - Y $.w.B.V.C.C.C.C.V.V.N.B.5.-.! Q Q             ",
"    &Xy.{ T Z j p 7 2 : - % $ + O O O O O O O % V %.%.w.B.F.`.`.`.F.V.N.B.5.6.-.@.~             ",
"    &Xy.{ T M s e 5 2 : = % @ + O O O O O O + $ V %.&.%.+.5.N.V.V.N.m.5.5.6.-.-.;.! ~           ",
"    &Xq.! U M s e 3 , - = $ + O O X X X O O + @ B W.#XL.$.$.e.w.m.Z.R.Z.G.G.N.e.0.#.( (         ",
"    &Xq.W S M s 8 3 : - % @ + O X X X X O O + @ B .X>X$XW.$XW.R..X,X8X<XXX XXX>X%X+X%.(         ",
"    &Xq.W S M s 8 3 : - : 6 1 * O . . . O O + @ C oX3X8X6XqXqX5X5X0XyX0X4X1X7XtXrX:X+X_         ",
"    /.9.! S M a 8 2 : s 1.2.[ v < + . X O O @ @ y oX1X7X9XtXtXwXwXyXyXyXwX9XtXyXuXeX@X_ V       ",
"    /.9.! S M g 7 2 s D.'.G.8.R h & X X O O @ $ r {.oXOX2X3X4X4X4X4X7X4X4X4X3X3X3X>XE.#.G       ",
"    /.9.! I M a 7 3 5.{.{.D.8.*.Z < o X O + @ $ w '.].].|.}.}.}.}.}.}.}.}.}.}.}.|.K.b.9.~ `     ",
"    /.9.! U M a 7 w F.[.'.D.M.-.S 6 # X O + $ % 5 S.H.H.H.H.H.H.H.H.H.H.H.H.H.H.H.S.l.4.P ) ^   ",
"    /.9.! I M a 8 w F.[.'.D.M.-.S 6 # X O @ $ % 5 x.A.A.A.A.A.A.A.A.A.A.A.A.A.A.A.x.f.} P F F   ",
"    /.q.! U M a e 5 5.[.'.D.M.*.Z < o O + @ % = 7 x.c.z.z.z.z.z.z.z.z.z.z.z.z.z.x.k.| ] K F     ",
"    *Xq.! U M s e 3 n D.J.V.8.R h & O + @ $ % = e k.v.h.h.h.h.h.h.h.h.h.h.h.h.h.d.4.] K v       ",
"    *Xi.;.Q A j p 7 2 m 1.2.[ v < # + + @ % = - p k.h.g.X.X.X.o.g.g.g.g.g.g.g.a...' b c c       ",
"    =Xy.;.Q A m p 7 2 : , 6 6 > # + @ @ $ % - - j k.a.X.X.X.X.X.X.X.a.a.a.a.d.p. .P v c         ",
"    =Xi.;.Q H m a 8 3 , - = % $ @ @ $ $ % = - : Z k.a.....a.a.a...a.a.d.d.d.s.<.' v l l         ",
"    ;XP.:.W S M s e 5 2 : - = % % $ % % = - : , I d.p...p.s.s.s.p.s.s.j.j.j.s.| K l l l         ",
"    ;XT.:.W U A j p 7 3 , : - = % % % = - ; : 3 W s.p.p.s.j.j.j.s.s.j.j.j.2.,.P c k k           ",
"    ;X!.3.{ T A m s e 5 2 , : - - - - - : : 2 7 =.<.<.<.2.7.7.7.2.2.2.2.,.} L z k f             ",
"      ).3.*.T S M j p 8 5 2 , : : : : : : 2 3 a ,.<. .,.,.,.,.,.>.=.} [ L D k i f f             ",
"      (.r.=.W U A m s p 8 5 2 2 , , , , 2 3 7 m =.[ R R J J J G H D c l f u u d f               ",
"      -Xu.:.{ T S M j s p 8 5 3 3 3 3 3 5 7 e A J D j f f d u u u u q q q u f f                 ",
"      -X!.3.{ W T A M j s p 8 8 7 7 7 7 8 e a j a q 0 0 0 0 0 q q u u d d f                     ",
"        ^.r.=.{ T S A M j s p p p e e p p s p 0 0 0 q u u d d d d d                             ",
"        _.u.>.{ W T S A M m j s s a s s s j 8 0 u u                                             ",
"        _.!.3.=.{ R T S A M m m j j j m m j q u                                                 ",
"          ^.t.,.*.W R T S S A Z M M M Z A j d                                                   ",
"          (.Q.3.>.{ W R T T S S S S S S A f                                                     ",
"            ^.b.3.=.{ { W R T T T T T T M                                                       ",
"              ~.t.1.=.*.{ { W W W W W S                                                         ",
"                Q.r.3.>.=.*.{ *.*.*.W                                                           ",
"                  Q.t.r.3.1.>.>.>.=.                                                            ",
"                    Q.b.u.r.3.3.                                                                ",
"                                                                                                "
};
