/* XPM */
static char *decibels_png_ico_0[] = {
/* columns rows colors chars-per-pixel */
"16 16 173 2 ",
"   c None",
".  c #23271C",
"X  c #151626",
"o  c #1C1A21",
"O  c #212525",
"+  c #2E3122",
"@  c #2F3229",
"#  c #2D312E",
"$  c #313526",
"%  c #333627",
"&  c #363A2B",
"*  c #3A3A2D",
"=  c #2C2F3F",
"-  c #332F30",
";  c #342F3E",
":  c #383936",
">  c #343738",
",  c #433F32",
"<  c #3D4038",
"1  c #3F4238",
"2  c #434738",
"3  c #544A39",
"4  c #272844",
"5  c #393C49",
"6  c #3A3D4B",
"7  c #311375",
"8  c #33157E",
"9  c #622457",
"0  c #3D404F",
"q  c #414442",
"w  c #434644",
"e  c #484843",
"r  c #4A434B",
"t  c #494D4C",
"y  c #4A4D4C",
"u  c #54584A",
"i  c #434555",
"p  c #535553",
"a  c #5A5C55",
"s  c #565858",
"d  c #605D50",
"f  c #6E6053",
"g  c #65685C",
"h  c #68685D",
"j  c #6F6B5E",
"k  c #4D5060",
"l  c #575A6B",
"z  c #5F6177",
"x  c #626465",
"c  c #616469",
"v  c #646768",
"b  c #726B64",
"n  c #6F7367",
"m  c #6E7169",
"M  c #646779",
"N  c #757872",
"B  c #7B7E75",
"V  c #76777A",
"C  c #BC0500",
"Z  c #C43B00",
"A  c #CE3F00",
"S  c #B56E00",
"D  c #BE7400",
"F  c #C14000",
"G  c #C34100",
"H  c #C04706",
"J  c #CA5206",
"K  c #CD5406",
"L  c #CF560D",
"P  c #D45100",
"I  c #D05506",
"U  c #D35506",
"Y  c #D65506",
"T  c #D95607",
"R  c #DC5807",
"E  c #CF5712",
"W  c #E05A07",
"Q  c #E55A07",
"!  c #E85B07",
"~  c #E95D07",
"^  c #CA6100",
"/  c #CC6100",
"(  c #D46B00",
")  c #E06600",
"_  c #E46601",
"`  c #ED6006",
"'  c #E4620B",
"]  c #F16106",
"[  c #F36207",
"{  c #F56B08",
"}  c #FF7700",
"|  c #16B100",
" . c #7F817C",
".. c #CEC101",
"X. c #0B0D80",
"o. c #0B0D81",
"O. c #0C0D81",
"+. c #0C0D82",
"@. c #0B0C84",
"#. c #07088D",
"$. c #0A0B88",
"%. c #0A0B91",
"&. c #0D0E97",
"*. c #000098",
"=. c #00009B",
"-. c #00009C",
";. c #00009E",
":. c #02039F",
">. c #05059F",
",. c #0C0C9A",
"<. c #0D0E9A",
"1. c #0C0D9D",
"2. c #341680",
"3. c #351682",
"4. c #361683",
"5. c #361785",
"6. c #371787",
"7. c #381789",
"8. c #39188B",
"9. c #3A188C",
"0. c #3A188E",
"q. c #3B1990",
"w. c #3C1993",
"e. c #3D1995",
"r. c #3E1997",
"t. c #3F1C9C",
"y. c #0606A0",
"u. c #0606A2",
"i. c #0000A4",
"p. c #0000A7",
"a. c #0102A6",
"s. c #0606A4",
"d. c #0606A6",
"f. c #0E0FA1",
"g. c #0E0FA3",
"h. c #0000A9",
"j. c #0000AA",
"k. c #0607A8",
"l. c #0707AB",
"z. c #0000AC",
"x. c #0000AF",
"c. c #0708AD",
"v. c #0F10AA",
"b. c #1010A7",
"n. c #1516A6",
"m. c #1718A3",
"M. c #1A1BA1",
"N. c #191BA2",
"B. c #1A1BA2",
"V. c #0000B2",
"C. c #0000B3",
"Z. c #0000B7",
"A. c #0808B0",
"S. c #0808B6",
"D. c #0000B9",
"F. c #0000BA",
"G. c #0000BD",
"H. c #0404BF",
"J. c #0202C1",
"K. c #0000C2",
"L. c #0000C3",
"P. c #0000C4",
"I. c #0000C5",
"U. c #0000C8",
"Y. c #0000C9",
"T. c #0000CC",
"R. c MediumBlue",
"E. c #0000D0",
"W. c #0101D0",
"Q. c #8C8E87",
"!. c #8B8D8D",
"~. c #918B85",
"^. c #9E9FA1",
/* pixels */
"    W.T.T.T.T.T.T.T.W.t.{ }     ",
"    Y.P.P.L.L.L.P.L.Y.e.[ '     ",
"    H.m.N.N.N.N.n.L.Y.e.[ E 9   ",
"    v.c m N !. .z S.P.w.` L     ",
"    b.v n B ^.Q.M A.G.q.~ _     ",
"    f.x g h ~.j l c.F.9.! D     ",
"    f.s u d f 3 k k.F.9.Q S |   ",
"    1.y 2 e r - i k.Z.8.W ^     ",
"    ,.w $ > 4 X 0 s.C.7.R )     ",
"    ,.y & : ; o 0 s.C.6.T ( ..  ",
"    &.q $ * b , 6 y.C.6.Y /     ",
"    %.# + < V a 6 y.x.4.I P     ",
"    #.O . @ p < = >.x.4.I A     ",
"    -.@.O.O.X.X.$.i.x.4.K Z C   ",
"    i.h.h.h.h.h.h.i.h.8 J G     ",
"    *.-.*.*.*.*.*.*.-.7 H G     "
};
