/* XPM */
static char *digikam_png_ico_5[] = {
/* columns rows colors chars-per-pixel */
"72 72 238 2 ",
"   c None",
".  c #060606",
"X  c #0B0B0B",
"o  c #0B0807",
"O  c #0D1113",
"+  c #131313",
"@  c #1C1C1C",
"#  c #181616",
"$  c #0D1B20",
"%  c #1D383F",
"&  c #242424",
"*  c #262E2F",
"=  c #2B2B2B",
"-  c #292727",
";  c #233135",
":  c #213338",
">  c #343434",
",  c #3B3B3B",
"<  c #0C3341",
"1  c #1A3B43",
"2  c #173F48",
"3  c #003C50",
"4  c #16434E",
"5  c #0E4B5C",
"6  c #0C475F",
"7  c #114C5B",
"8  c #144551",
"9  c #0C515F",
"0  c #2F4247",
"q  c #0B5366",
"w  c #0A5669",
"e  c #09596D",
"r  c #06576B",
"t  c #025B74",
"y  c #035975",
"u  c #0C4760",
"i  c #01647D",
"p  c #0C6378",
"a  c #1F667A",
"s  c #444444",
"d  c #4C4C4C",
"f  c #474748",
"g  c #535353",
"h  c #5C5C5C",
"j  c #5B6668",
"k  c #646464",
"l  c #6C6C6C",
"z  c #757575",
"x  c #7B7B7B",
"c  c #035C83",
"v  c #006681",
"b  c #016A84",
"n  c #0A6C84",
"m  c #006E8A",
"M  c #04658C",
"N  c #166E85",
"B  c #00718D",
"V  c #0C758E",
"C  c #197187",
"Z  c #026D93",
"A  c #0A6D94",
"S  c #007593",
"D  c #007996",
"F  c #007D9C",
"G  c #047399",
"H  c #177698",
"J  c #28788B",
"K  c #337C8E",
"L  c #267B95",
"P  c #0075A2",
"I  c #017CAA",
"U  c #0179A6",
"Y  c #027EB5",
"T  c #0F74A0",
"R  c #237BA1",
"E  c #0F829E",
"W  c #368396",
"Q  c #29859C",
"!  c #0083A3",
"~  c #0284AA",
"^  c #0089AA",
"/  c #0B8CB1",
"(  c #378AA1",
")  c #3A95AC",
"_  c #2F93AF",
"`  c #07A0AC",
"'  c #468899",
"]  c #598B96",
"[  c #5C818F",
"{  c #498EA3",
"}  c #4B99AE",
"|  c #5996A6",
" . c #499DB2",
".. c #5A9DB2",
"X. c #568FA6",
"o. c #699AA8",
"O. c #6197B2",
"+. c #48A4BB",
"@. c #5AA6BA",
"#. c #6AA7BA",
"$. c #76ABB8",
"%. c #75B1BF",
"&. c #6F909F",
"*. c #018AC7",
"=. c #0395C9",
"-. c #0398D7",
";. c #1598C8",
":. c #03A3D8",
">. c #05ACCB",
",. c #34A9D1",
"<. c #019DE3",
"1. c #009DE9",
"2. c #01A5E4",
"3. c #00ABE5",
"4. c #00ACEA",
"5. c #08A7EC",
"6. c #01B2E5",
"7. c #00B3EC",
"8. c #00BCEC",
"9. c #0AB7EB",
"0. c #04ACF8",
"q. c #00B5F2",
"w. c #00BBF4",
"e. c #02BDFC",
"r. c #0ABDFE",
"t. c #07B4FD",
"y. c #12B9F1",
"u. c #30B7EA",
"i. c #5CAAC3",
"p. c #5EB2C7",
"a. c #4DB5DA",
"s. c #4EACCA",
"d. c #6FB5C6",
"f. c #67B5C8",
"g. c #79B6C5",
"h. c #78BBD3",
"j. c #67B1D1",
"k. c #54BBE8",
"l. c #6ABEE5",
"z. c #4899C3",
"x. c #04C6ED",
"c. c #00C4F4",
"v. c #03C4FE",
"b. c #0AC3FF",
"n. c #02CBFE",
"m. c #04CBF6",
"M. c #02D4FC",
"N. c #0AD4FE",
"B. c #03DCFE",
"V. c #0ADBFF",
"C. c #03D2F6",
"Z. c #15CCF5",
"A. c #39D9FE",
"S. c #2FCBF7",
"D. c #03E2FE",
"F. c #0AE4FF",
"G. c #04EBFE",
"H. c #09EBFF",
"J. c #13E9FE",
"K. c #0CF2FF",
"L. c #29E4FE",
"P. c #3CE5FF",
"I. c #09C2CE",
"U. c #4DC6EE",
"Y. c #59C7ED",
"T. c #5ACBF6",
"R. c #5BD6F9",
"E. c #47D0F7",
"W. c #68C6E9",
"Q. c #69CAF3",
"!. c #77CCF1",
"~. c #64DCFD",
"^. c #6CDDFE",
"/. c #67D5F6",
"(. c #75DCFD",
"). c #79D8FB",
"_. c #75D1E6",
"`. c #55EBFE",
"'. c #68E7FD",
"]. c #76E4FE",
"[. c #79F5FF",
"{. c #66F1FF",
"}. c #62C1DE",
"|. c #838383",
" X c #8C8C8C",
".X c #949494",
"XX c #9D9C9C",
"oX c #89AEBA",
"OX c #A3A3A3",
"+X c #ACACAC",
"@X c #B2B2B2",
"#X c #BCBCBC",
"$X c #85BCCB",
"%X c #94BCC9",
"&X c #84BDD7",
"*X c #93C1CC",
"=X c #85C5D4",
"-X c #95C7D6",
";X c #99D0DD",
":X c #A1C2CB",
">X c #A5CBD7",
",X c #A8D1DC",
"<X c #BAD4DC",
"1X c #B4D3DB",
"2X c #B2CAD3",
"3X c #84CFF1",
"4X c #81DCFC",
"5X c #88DDFC",
"6X c #85D5F5",
"7X c #99DBF6",
"8X c #91DDFB",
"9X c #95D9F6",
"0X c #89CDE9",
"qX c #A8D6E4",
"wX c #BBDCE4",
"eX c #B4D9E6",
"rX c #A5DCF6",
"tX c #ACD8ED",
"yX c #85E6FF",
"uX c #96EAFD",
"iX c #87F4FF",
"pX c #94F2FF",
"aX c #A6E9FB",
"sX c #BBE8F8",
"dX c #B3E7F9",
"fX c #C3D6DC",
"gX c #C7DEE5",
"hX c #CBE4EB",
"jX c #C5E1E8",
"kX c #D4E9EE",
"lX c #D6E6EA",
"zX c #C3E9F7",
"xX c #DCEDF1",
"cX c #D4EAF0",
"vX c #E5F1F4",
"bX c #EEF6F8",
"nX c #EBF3F5",
"mX c #EBF1F3",
/* pixels */
"                                                            @X@X@X@X@X@X@X@X@X@X@X@X                                                            ",
"                                                    +X+X@X@X@X@X@X@X+X+X+X+X@X@X@X@X@X@X+X+X                                                    ",
"                                              +X+X+X+X+XXX Xz k d s , > > , s d k z  XXX+X+X+X+X+X                                              ",
"                                          OX+X+XOX Xk s & + o . . o o o o o o . . o + & s k  XOX+X+XOX                                          ",
"                                      OXOXOX.Xl > + o o o X + + + + + + + + + + + + X o o o + > l .XOXOXOX                                      ",
"                                  XXXXOX Xg @ o o X + + + @ @ @ @ @ @ @ @ @ @ @ @ @ @ + + + X o o @ g  XOXXXXX                                  ",
"                              XXXXXX Xg @ . o + + + @ @ @ & & - - - = = = = - - - & & @ @ @ + + + o . @ g  XXXXXXX                              ",
"                            .X.X.Xl - o o + + @ @ & & - = = = = = = = = = = = = = = = = - & & @ @ + + o o - l .X.X.X                            ",
"                          .X.X|.s X o + + @ @ & - = = = = ; % 4 5 q e r r r q 5 4 1 ; = = = = - & @ @ + + o X s |..X.X                          ",
"                         X Xz = o X + @ @ & - = = = ; 8 r i b n C J W ' ' W J C n b i r 8 : = = = - & @ @ + X . = z  X X                        ",
"                       X Xk @ o X + @ & - = = = 1 w v n K o.oX<XlXxXmXnXnXmXxXlX<XoXo.K n v w 1 = = = - & @ + X o @ k  X X                      ",
"                    |.|.h + o + + @ & = = = 1 t b J o.2XxXbXbXbXbXbXbXbXbXbXbXbXbXbXbXxX2Xo.J b t 1 = = = & @ + + o + h |.|.                    ",
"                  |.|.h + o + @ @ - = = ; q b J $.gXvXnXvXvXvXvXvXvXvXvXvXvXvXvXvXvXvXvXnXvXgXoXJ b q ; = = - @ # + o + h |.|.                  ",
"                x x h + o + @ @ - = = 2 i N o.fXxXxXxXxXxXxXxXxXxXxXxXxXxXxXxXxXxXxXxXxXxXxXxXxXfXo.N i 2 = = - @ @ + o + h x x                 ",
"              z z k @ o + @ @ - = = 5 b K :XlXkXkXlXkXkXkXkXcXcXkXkXlXlXlXlXkXkXcXkXkXkXkXkXlXkXkXlX:XK b 5 * = - @ @ + o @ k x z               ",
"            z z l & o + @ @ - = * q b ] <XhXhXhXhXhXhXhXhXjXgXgXjXhXhXhXhXhXhXjXgXgXhXhXhXhXhXhXhXhXhX<X] n q * = - @ @ + o & l z z             ",
"            l l > o X + @ - = * w n o.wXgXgXgXjXjXjXjXfXfXgXzXzXzXzXzXzXzXzXzXzXzXzXgXfXfXjXjXjXjXgXgXgXwXo.n w * = - @ + X o > l l             ",
"          l l d X X + @ & = = q n o.<XwXwXwXwXwXwX<X<X<XwXsXsXsXsXsXsXsXsXsXsXsXsXsXwX<XwX<X<XwXwXwXwXwXwX<Xo.n q = = - @ + X X d l l           ",
"          k h @ o + @ & = = 5 n | 1X1X1XeXeXeX1X2XeXdXeXeXdXdXdXdXdXdXdXdXdXdXdXdXtX2XtXdXdXeX2X1XeXeXeX1X1X1X| n 5 = = & @ + o @ h k           ",
"        k k , o + @ & = = 2 b ' >X,X,XqX,XqX>X>XtXrXrXtX>XaXaXaXaXaXaXaXaXaXaXaXaX>XtXrXrXrXrXtX>X>XqX,XqX,X,X>X' b 2 = = & @ + o , k k         ",
"        h g + o + @ - = ; i J *X>X>X>X>XqX:X>XrXrXrXrXrX>XaXaXaXaXaXaXaXaXaXaXaX,X>XrXrXrXrXrXrXrX>X:XqX>X,X>X>X*XJ i ; = - @ + o + g h         ",
"      h h > o + @ & = = q n $.-X-X-X-X;X%X;X7X7X7X7X7X7X%X7XuXuXuXuXuXpXuXuXuX;X-X7X7X7X7X7X7X7X7X7X;X%X;X-X-X-X-X$.n q = = & @ + o > h h       ",
"      g d + o + @ - = 1 b ' *X-X*X-X-X%X-X9X9X9X9X8X8X8X%X9XuXuXpXpXpXpXpXpXuX%X9X8X8X8X8X8X8X9X9X9X9X-X%X-X-X*X-X*X' b 1 = - @ + o + d g       ",
"    g g > o + @ & = = t C %.$X$X=X=X$X$X3X6X6X6X5X5X5X5X&X0XyXyXiXiXiXiXiXiX$X0X5X5XyXyX5X5X5X5X6X6X6X3X$X$X=X=X$X$Xg.C t = = & @ + o > g g     ",
"    d d @ o + @ - = 1 b { $X$X$X$X=XoX3X3X6X6X4X4X).).).&X=XyXyXiXiXiXiXiX=X&X4X4X4XyXyXyX4X4X).4X6X6X3X0XoXh.$X$X$X$X{ b 1 = - @ + o @ d d     ",
"    d , X X + & = = w N #.g.g.h.h.$.h.!.!.!.).).(.(.(.(._.h.].].[.[.[.[._.g.).).(.(.].].].].(.).).).!.!.!.h.$.h.h.g.g.#.N w = = & + X X , d     ",
"  s s = o + @ & = : v W %.d.d.d.d.#.W.Q.!.!./.^.^.^.(.(.!.d.].].].[.[.].%.!.(.(.(.(.].].].].(.^.(././.Q.Q.W.#.d.d.d.d.%.W i : = & @ + o = s s   ",
"  , , @ o + @ - = 8 n } #.#.f.f.o.j.Q.Q.Q././.~.^.^.^.^.Q.#.^.'.'.'._.o.&.W.^.^.^.^.^.^.'.^.^.~.~./.Q.W.j.j.O.o.f.f.#.#.} n 8 = - @ + o @ , ,   ",
"  , > X X + @ = = e N @.@.@.i.p.[ ..k.T.T.T.R.~.~.~.~.~./.#./.R.p.] j h h j [ i.Y.~.~.~./.W.}.j.i.@.....@.@.p.| p.i.@.@.@.N e = = @ + X X > ,   ",
"  > = o X @ & = ; i L ..@.@.@...@.i.X.a.T.T.R.E.E.A.A.S.S.R a 1 @ # + + + # # @ 1 C L L Q _ ,.s.a.Y.Y.T.Y.Y.Y.i...@.@.@...J i ; = & @ X o = >   ",
"> > & o + @ & = % b W }  .+.s.{ a.U.a.{ _ y.b.b.b.n.v.b.r.c o o X X X X X X X X X X y 9.r.b.b.b.b.b.S.S.U.U.U.a.{ s.+. .} W b % = & @ + o & > > ",
"= = @ o + @ - = 4 n ( }  .+.+.' u.u.y.4.G M 3.v.v.v.b.b.9.< X X X X X o o X X X X X < 9.b.b.n.n.n.v.e.w.q.y.u.u.' +.+.} } ( n 4 = - @ + o @ = = ",
"= = + o + @ - = 7 n ( ) ) ) _ H 2.3.7.q.w.=.v =.b.b.b.b./ O X X X o o o o o X X X X O / N.V.V.N.N.n.n.c.q.7.3.2.H _ ) ) ) ( n 7 = - @ + o + = = ",
"- - + o + @ - = q n ( _ _ E D Z 3.3.8.c.c.v.3.Z ~ r.b.r.u X X X X o o o o o o o X X X 9 N.V.V.V.B.M.n.c.w.7.3.2.Z D E _ _ ( n q = - @ + o + - - ",
"& & X o + @ = = e n Q E F F B P 3.6.8.m.C.M.n.e.~ A 5.-.$ X X X o o . . . o o o X X X $ >.H.F.F.D.B.M.m.c.8.6.3.P B F F E Q n e = = @ + o X & & ",
"@ @ o o + @ = = e n V D F F m I 3.9.S.R.A.V.D.B.b.-.A 6 X X X X o o . . . . o o X X X X e C.K.H.G.D.B.C.m.8.6.3.I m F F D V n e = = @ + o o @ @ ",
"@ @ o o + @ = = e v m D F F m I 3.y./.'.'.J.G.G.F.N.9.q X X X X o o . . . . o o X X X X u V I.K.G.G.D.C.m.x.6.3.I m F F D m v e = = @ + o o @ @ ",
"@ @ X o + @ = = e v m D F F S P 3.9.E.~.`.F.G.G.K.H.V.:.$ X X X o o . . . . o o X X X $ -.5.V ` G.G.D.C.m.x.6.3.P B F F D m v e = = @ + o X @ @ ",
"@ @ X o + @ - = q v m D D F D Z 2.6.x.Z.N.B.D.G.G.K.H.N.9 X X X X o o o o o o X X X X 6 t.t.0.I D x.D.C.m.8.6.3.Z D F D D m v q = - @ + o X @ @ ",
"@ @ X o + @ - = 7 v m S D F F v 2.3.8.c.C.C.B.D.J.F.F.F.` O X X X X o o o o o X X X O / r.r.t.t.=.b >.C.c.8.6.2.v F F D S m v 7 = - @ + o + @ @ ",
"& & + o + @ - = 4 b m B S F ! t :.3.6.w.c.m.M.L.`.L.V.V.x.< X X X X X o o X X X X X < 9.r.r.r.t.t.1.A _ S.S.3.-.y ! F D B m b 4 = - @ + o + & & ",
"& & + o + @ & = % b m m S F ! t =.2.4.8.w.v.n.L.`.L.N.N.x.p X X X X X X X X X X X X M r.b.b.b.r.e.t.u.i.#.W.u.=.t ! U D m m b % = & @ + o + & & ",
"  & @ o X @ & = ; i b m D F F m P 3.4.7.7.6.:.>./ ~ D V A A c < O X X X X X X O < y A r.b.v.v.v.e.r.T.Q.j.o.p.H m F F D m b i ; = & @ O o @ &   ",
"  - & o X + @ = = e i m D D F ! r I G M M v M P Y =.<.5.0.t.t.5./ u $ X X $ 5 / y.9.A r.v.v.v.v.e.r.T.Q.Q.l.O.7 ! F D D m i e = = @ + X o & -   ",
"  - - + o + @ - = 8 b m B S U ! r y I *.-.1.0.0.t.t.t.t.t.r.r.r.r.t.-.u q >.N.V.N.b.A 7.v.n.n.v.e.w.E.Q.Q.W.z.y ! ! S B m b 8 = - @ + o + - -   ",
"  - - @ o + @ & = : v b m D F F F c <.1.2.4.0.q.e.e.v.v.v.v.b.b.r.r.5.A 9.V.F.V.N.b.G 2.v.n.n.v.e.q.9.u.k.u.c F F F D m b v : = & @ + o @ - -   ",
"    - & o X + & = = w i B S S U ! y Y 1.2.4.q.q.e.c.v.n.n.v.b.b.r.t.A -.V.F.F.V.N.n.I =.v.v.v.c.w.q.4.2.2.Y t ! ! S S B i w = = @ + X o & -     ",
"    = = X o + @ - = 1 b b m D F F ! y -.2.4.4.q.w.c.v.n.n.v.b.b.r.I ~ N.H.J.L.P.A.Z./ ~ v.v.c.w.q.7.4.2.-.y ! F F D m b b 1 = - @ + o X = =     ",
"    = = @ o + @ & = = e i B B S ! F B M -.2.4.7.q.w.c.c.v.v.v.v.=.Z c.D.J.`.{.'.'.~.,.P e.w.w.q.7.4.2.<.M B F ! S B B i e = = & @ + o @ = =     ",
"      = - o X + @ - = 1 b b m F S F ^ i P 2.2.4.7.q.q.w.e.e.e.4.v 6.B.H.`.{.{.'.'.~.W.R q.q.q.7.4.2.2.P i ^ F S F m b b 1 = - @ + X o - =       ",
"      = = @ o + @ & = = q v B m D F F ^ y I 2.2.4.7.7.q.q.w.q.Z =.n.D.J.{.{.'.'.'.~.Q.{ 4.7.4.4.2.2.I y ^ F F D m m v q = = & @ + o @ = =       ",
"        = = o X + @ - = ; i i B B S F F ^ y P :.2.3.4.4.7.q.I G w.C.B.L.'.'.'.'.~././.} -.4.3.2.2.P y ^ F F S B B i i ; = - @ + X o = =         ",
"        = = @ o + @ & = = 2 b i m S S ! F ^ i M -.2.2.2.4.*.c 3.c.m.C.Z.'.'.~././././.( *.2.2.-.M i ^ F ! S S m v b 2 = = & @ + o @ = =         ",
"          > = X o + @ & = = 7 b b m S S F F ^ B y Y -.2.-.y =.7.8.x.x.x.E././././.Q.Q.H I <.Y y B ^ F F S D m b b 7 = = & @ + o X = >           ",
"          > > - o X + @ - = = q v b m S S F F F ! t c Y c I 4.3.6.8.8.8.x.U./.Q.Q.Y.u.I y c t ! ! F F S S m b b q = = & @ + X o - > >           ",
"            > > @ o X + @ - = * w b b m B D S ! F ! F t 3 G =.:.2.6.6.6.6.9.u.u.u.;.P y r F ! F ! S D B m b b w * = - @ + X o @ > >             ",
"            > > > + o + @ @ - = * q b v B m F S F ! F ! ! m t y v S P ~ ~ P S v t t m ! ! F ! F S F m B v b q * = - @ @ + o + > > >             ",
"              > > = X o + @ @ - = = 7 b i B m B D S F ! F F ! ! ! D B m m B D F ! ! F F ! F S D B m B i b 7 = = - @ @ + o X = > >               ",
"                > > = o o + @ @ - = = 2 i v b B m S D S D F F F F F F F F F F F F F F D S F S m B b v i 4 = = - @ @ + o o = > >                 ",
"                  > , - o o + @ @ - = = ; q b i b B m B D D S S D D F F F F D D S D D D B m B b i b q ; = = & @ @ + o o - , >                   ",
"                    , , = o o + + @ & = = = 1 e b i b m m m m B S D D D D D D S B m m m m b i b e 1 = = = & @ + + o o = , ,                     ",
"                      , , = X o X + @ & - = = = 1 w v b i b m m m m m m m m m m m m b i b v w 1 = = = - & @ + X o X = , ,                       ",
"                        , , > + o X + @ @ & - = = = ; 8 e i b b v v v v v v v v b b i e 8 : = = = - & @ @ + X o + > , ,                         ",
"                          , , , @ o o + + @ @ & - = = = = 0 0 4 7 q w r e w q 7 4 % ; = = = = - & @ @ + + o o @ , , ,                           ",
"                            , , , = + o X + + @ @ & & > d XX Xs - = g s > f > - = = > , g = & @ @ + + X o + = , , ,                             ",
"                              , , s , - X o X + + + - XX+X#X|.g k d z XXXXXX, k l z XX+X@Xd + + + X o X - , s , ,                               ",
"                                  s s s , & X o o X @ OXOX+X+X+XXX@XXXOXlXz k +X@X@X.XXXz h o o o X & , s s 0                                   ",
"                                      s s s , = + o . - g g l .X+X+XXX.X.XOXl OXOXl g > @ X o + = , s s s                                       ",
"                                          s s s s , = @ X o X z +Xl - = @ = @ @ + o o X @ = , s s s s                                           ",
"                                              s s s s s , , = > s & @ + + + @ @ - = , s s s s s s                                               ",
"                                                    s s s s s s s s s s s s s s s s s s s s                                                     ",
"                                                            s s s s s s s s s s s s                                                             "
};
