/* XPM */
static char *display_png_ico_2[] = {
/* columns rows colors chars-per-pixel */
"32 32 201 2 ",
"   c None",
".  c gray2",
"X  c #070707",
"o  c gray4",
"O  c gray5",
"+  c #111111",
"@  c gray8",
"#  c #161616",
"$  c #181818",
"%  c #191919",
"&  c #1B1B1B",
"*  c #1B1E1B",
"=  c #1B1B1C",
"-  c #1B1C1C",
";  c #1B1D1C",
":  c #1B1E1C",
">  c #1A1F1C",
",  c #1B1F1C",
"<  c #1D1D1D",
"1  c gray12",
"2  c #1A201F",
"3  c #1A211F",
"4  c #1C1E21",
"5  c #1C1F21",
"6  c #1D1E22",
"7  c #1D1F22",
"8  c #1B2120",
"9  c #1C2021",
"0  c #1C2121",
"q  c #1D2022",
"w  c #1E2123",
"e  c #1D2322",
"r  c #1D2323",
"t  c #1E2322",
"y  c #1E2223",
"u  c #1C2623",
"i  c #1D2024",
"p  c #1D2224",
"a  c #1E2126",
"s  c #1E2226",
"d  c #1E2326",
"f  c #1D2725",
"g  c #1E2426",
"h  c #1C2822",
"j  c #1C2922",
"k  c #1F2E27",
"l  c #1F2F27",
"z  c #1A3322",
"x  c #1B3422",
"c  c #1B3423",
"v  c #1A3F21",
"b  c #1E3826",
"n  c #1F3826",
"m  c #1E3E25",
"M  c #202020",
"N  c gray13",
"B  c #222222",
"V  c #252525",
"C  c #262727",
"Z  c #212429",
"A  c #212529",
"S  c #222529",
"D  c #212729",
"F  c #222629",
"G  c #222729",
"H  c #22252A",
"J  c #23262A",
"K  c #23262B",
"L  c #212928",
"P  c #222A29",
"I  c #23282A",
"U  c #25282D",
"Y  c #26292D",
"T  c #252A2D",
"R  c #27282E",
"E  c #26292E",
"W  c #27292E",
"Q  c #272A2E",
"!  c #272A2F",
"~  c #252E2C",
"^  c #282828",
"/  c #2A2B2B",
"(  c #282B2F",
")  c #203428",
"_  c #25342D",
"`  c #253A2C",
"'  c #282B30",
"]  c #292C30",
"[  c #292C31",
"{  c #292D31",
"}  c #2A2D30",
"|  c #2A2D31",
" . c #2A2F30",
".. c #2A2E31",
"X. c #2A2D32",
"o. c #2A2E32",
"O. c #2B2E32",
"+. c #2B2E33",
"@. c #2C2F33",
"#. c #2D2F33",
"$. c #2C2F34",
"%. c #2D2F34",
"&. c #2A3131",
"*. c #2B3131",
"=. c #2C3033",
"-. c #2C3133",
";. c #2C3233",
":. c #2C3433",
">. c #2C3034",
",. c #2D3034",
"<. c #2C3134",
"1. c #2D3134",
"2. c #2D3035",
"3. c #2D3135",
"4. c #2E3134",
"5. c #2E3135",
"6. c #2E3235",
"7. c #2F3235",
"8. c #2E3136",
"9. c #2F3136",
"0. c #2E3236",
"q. c #2F3236",
"w. c #2F3336",
"e. c #2F3237",
"r. c #2F3337",
"t. c #2D3435",
"y. c #2D3535",
"u. c #2D3735",
"i. c #2F3437",
"p. c #2E3736",
"a. c #313232",
"s. c gray20",
"d. c #303236",
"f. c #303337",
"g. c #313337",
"h. c #373737",
"j. c #303338",
"k. c #313339",
"l. c #303438",
"z. c #313438",
"x. c #313439",
"c. c #313539",
"v. c #323439",
"b. c #323539",
"n. c #303638",
"m. c #303739",
"M. c #313739",
"N. c #32353A",
"B. c #32363A",
"V. c #33363A",
"C. c #32363B",
"Z. c #33363B",
"A. c #34363B",
"S. c #34373B",
"D. c #35373B",
"F. c #34373C",
"G. c #31383A",
"H. c #35383B",
"J. c #34383C",
"K. c #35383C",
"L. c #36393D",
"P. c #373A3E",
"I. c #3A3A3A",
"U. c #18401F",
"Y. c #18451F",
"T. c #19471F",
"R. c #17501E",
"E. c #1A4421",
"W. c #1D4524",
"Q. c #204726",
"!. c #224E28",
"~. c #2A4032",
"^. c #2B4032",
"/. c #384F3F",
"(. c #346E39",
"). c #327B37",
"_. c #393C40",
"`. c #3A3C41",
"'. c #3B3C42",
"]. c #3A3D42",
"[. c #3C3E42",
"{. c #3B4142",
"}. c #3F4046",
"|. c #3F4146",
" X c #3F4246",
".X c #3F5445",
"XX c #3E5C44",
"oX c #3F5D45",
"OX c #3C7741",
"+X c #424549",
"@X c #414748",
"#X c #424649",
"$X c #434649",
"%X c #424848",
"&X c #424A48",
"*X c #424D48",
"=X c #3A843E",
"-X c #3A883E",
";X c #3A883F",
":X c #3A8B3E",
">X c #379E3A",
/* pixels */
"                                                                ",
"                                                                ",
"                                                                ",
"> 3 8 8 0 0 4 4 4 4 4 4 4 4 4 4 4 4 4 4 4 4 4 4 4 4 0 0 8 8 3 > ",
"3 z E.m L L J J J J J J J J J J J J J J J J J J J J L L m E.z 3 ",
"8 T.W.~.:.1.1.1.m.@.@.O.@.d.O.O.O.O.d.@.O.@.@.m.1.1.1.:.~.W.T.8 ",
"8 v ) m.m.1.%.1.m.O.O.O.O.1.O.O.O.O.1.O.O.O.O.m.1.%.1.m.G.) v 8 ",
"0 f L ;.1.m.j.1.m.O.O.O.O.1.' ( ( ' 1.' ' O.O.m.1.m.m.p.;.L f 0 ",
"0 s J 1.;.@.1.1.m.O.( ( ( %.E E E E %.( ( ( O.m.j.1.@.;.1.J s 0 ",
"4 s J 1.1.1.@.%.m.1.O.' ' 1.O.O.O.O.1.O.O.O.1.m.1.@.1.1.1.J s 4 ",
"4 s J 1.d.1.1.1.m.%.%.%.%.'.|.|.|.|.'.%.1.%.%.m.1.1.1.d.1.J s 4 ",
"4 s J %.O.O.O.@.m.O.E E _ /.XXXX.X$X'.O.( O.' 1.O.O.O.@.@.J s 4 ",
"4 s J 1.1.O.O.m.'.j.E E !.).;X>X=X$X'.1.m.K.F.K.O.O.1.1.1.J s 4 ",
"4 s J 1.@.O.O.1.m.d.E E ` (.;X;XOX$X'.O.1.m.m.A.O.O.1.1.1.J s 4 ",
"4 s J 1.1.1.@.@.d.O.O.O.O.{.*X&X&X$X[.O.O.O.O.d.@.@.1.1.1.J s 4 ",
"0 s J d.m.m.d.d.K.d.j.1.1.K.A.m.m.A.K.1.1.j.d.H.d.d.m.m.d.J s 0 ",
"0 s J 1.1.%.@.1.K.%.O.O.O.1.( E E ( 1.O.O.O.%.A.1.@.%.1.1.J s 0 ",
"0 f J ;.1.j.m.m.m.O.O.O.O.1.O.O.O.O.1.O.O.O.O.m.j.j.1.1.;.J f 0 ",
"0 x l p.m.m.1.@.j.O.O.O.O.1.O.O.O.O.1.O.O.O.O.m.@.1.1.m.p.l x 0 ",
"0 T.n p.*.O.O.O.d.O.O.O.O.1.O.O.O.O.1.O.O.O.O.d.O.O.O.*.p.n T.0 ",
"0 U.R.Q.~ E E E ( E E E E E E E E E E E E E E ( E E E ~ Q.R.U.0 ",
"0 u h h 0 s s s s s s s s s s s s s s s s s s s s s s 0 h h u 0 ",
"* > > > > > > = > > > > > = ^ h.s.C = > $ = > = = > > > > > > * ",
"                            $ ^ C $                             ",
"                            @     @                             ",
"                            $     $                             ",
"                            1     1                             ",
"                            1 B B 1                             ",
"                            1 I.I.1                             ",
"                            1 s.s.1                             ",
"                    $ $ 1 B B B B B B 1 $ $                     ",
"                . . o O + @ @ $ $ @ @ + O o . .                 "
};
