/* XPM */
static char *dolphin_png_ico_1[] = {
/* columns rows colors chars-per-pixel */
"24 24 98 2 ",
"   c None",
".  c #2D3064",
"X  c #2E3064",
"o  c #2E3164",
"O  c #2E3165",
"+  c #2F3165",
"@  c #2F3265",
"#  c #303366",
"$  c #343668",
"%  c #35386A",
"&  c #36386A",
"*  c #373E6E",
"=  c #373F6E",
"-  c #383A6B",
";  c #3A3B6C",
":  c #3A3B6D",
">  c #3A3C6D",
",  c #3D3E6F",
"<  c #3E3F6F",
"1  c #3D5465",
"2  c #3F4070",
"3  c #3F4171",
"4  c #3F4B77",
"5  c #414271",
"6  c #424372",
"7  c #424373",
"8  c #434473",
"9  c #464775",
"0  c #484977",
"q  c #494A77",
"w  c #4B4B79",
"e  c #465F73",
"r  c #465880",
"t  c #585983",
"y  c #4E6B80",
"u  c #4E6B82",
"i  c #4E6489",
"p  c #516F86",
"a  c #526F86",
"s  c #5E7587",
"d  c #547091",
"f  c #557091",
"g  c #557191",
"h  c #5B7B98",
"j  c #607789",
"k  c #607E9A",
"l  c #707195",
"z  c #6D889D",
"x  c #6E899D",
"c  c #6E899E",
"v  c #7A8D9D",
"b  c #7A8E9D",
"n  c #7C8F9E",
"m  c #7E919F",
"M  c #6A87A2",
"N  c #7482A0",
"B  c #7987A4",
"V  c #7A87A4",
"C  c #7B89A5",
"Z  c #7E8BA7",
"A  c #7F8CA8",
"S  c #7E91A0",
"D  c #808DA8",
"F  c #818EA9",
"G  c #8390AA",
"H  c #8490AA",
"J  c #8491AC",
"K  c #8692AC",
"L  c #8994AE",
"P  c #859EB2",
"I  c #879FB3",
"U  c #8B98B1",
"Y  c #8F99B2",
"T  c #939EB5",
"R  c #88A0B4",
"E  c #89A0B5",
"W  c #8BA2B6",
"Q  c #8FA5B8",
"!  c #90A6B9",
"~  c #98A2B9",
"^  c #9AA4BA",
"/  c #9CA5BB",
"(  c #93A8BB",
")  c #98ACBE",
"_  c #99ADBF",
"`  c #99AEBF",
"'  c #9AAEBF",
"]  c #A1AABE",
"[  c #9CAFC0",
"{  c #9BB0C0",
"}  c #9EB1C2",
"|  c #A5ACC0",
" . c #A1B4C4",
".. c #A4B6C6",
"X. c #A4B7C6",
"o. c #A9BBC9",
"O. c #AFBFCD",
"+. c #B3BACB",
/* pixels */
"                                                ",
"                                                ",
"                                                ",
"                                                ",
"  a a a a a u                                   ",
"  s b b b b n S S S S S S S S S S S S S S m j   ",
"h k M M M M M M M M M M M M M M M M M M M M k h ",
"g g g g g g g g g g g g g g g g g g g g g g g g ",
"i i i i i i i i i i i i i i i i i i i i i i i i ",
"r r r r r r r r r r r r r r r r r r r r r r r r ",
"4 4 4 4 4 4 4 4 4 4 4 4 4 4 4 4 4 4 4 4 4 4 4 4 ",
"= = = = = = = = = = = = = = = = = = = = = = = = ",
"O O O O O # & O O O O O O O O O O O O O O O O O ",
"$ : 2 9 w l t > 2 & : < - : q q 2 8 < 6 < 8 6 6 ",
"  H L ~ +.U V / ^ N C Y | ] J T Z A D D V J G   ",
"  [ '  ...E ! o.' E ( ..O.{ P } E E ' ! P ' Q   ",
"  c c c c c c c c c c c c c c c c c c c c c c   ",
"  u u u u u u u u u u u u u u u u u u u u u u   ",
"  e e e e e e e e e e e e e e e e e e e e e e   ",
"  1 1 1 1 1 1 1 1 1 1 1 1 1 1 1 1 1 1 1 1 1 1   ",
"                                                ",
"                                                ",
"                                                ",
"                                                "
};
