/* XPM */
static char *featherpad_png_ico_1[] = {
/* columns rows colors chars-per-pixel */
"24 24 243 2 ",
"   c None",
".  c #04357F",
"X  c #05357F",
"o  c #143D7E",
"O  c #1F417B",
"+  c #1C417E",
"@  c #1D427E",
"#  c #22437C",
"$  c #23447D",
"%  c #23457F",
"&  c #24467F",
"*  c #2B4679",
"=  c #2B487D",
"-  c #2E497C",
";  c #2D4A7D",
":  c #3F4F75",
">  c #344C7B",
",  c #384E7A",
"<  c #3A507C",
"1  c #4D4D61",
"2  c #4D4D62",
"3  c #4E4E62",
"4  c #4E4E63",
"5  c #4F4F63",
"6  c #4F5066",
"7  c #505063",
"8  c #505064",
"9  c #515164",
"0  c #515165",
"q  c #525264",
"w  c #525266",
"e  c #535367",
"r  c #555566",
"t  c #545467",
"y  c #565667",
"u  c #575767",
"i  c #545468",
"p  c #545469",
"a  c #555569",
"s  c #565569",
"d  c #575768",
"f  c #56566A",
"g  c #57566A",
"h  c #57576B",
"j  c #55576D",
"k  c #56576C",
"l  c #58576A",
"z  c #57586E",
"x  c #585869",
"c  c #59596A",
"v  c #58586C",
"b  c #59596D",
"n  c #595A6F",
"m  c #5A5A6E",
"M  c #5B5B6F",
"N  c #5C5B6F",
"B  c #5B5C6D",
"V  c #5B5C6F",
"C  c #5D5D6D",
"Z  c #5E5E6E",
"A  c #5F5F6E",
"S  c #4D5470",
"D  c #495576",
"F  c #4D5674",
"G  c #4C5776",
"H  c #4E5876",
"J  c #415279",
"K  c #43547B",
"L  c #4B597A",
"P  c #4D5979",
"I  c #4C597B",
"U  c #4E5A7A",
"Y  c #4E5A7B",
"T  c #48587D",
"R  c #4A597C",
"E  c #4A5A7F",
"W  c #4E5B7C",
"Q  c #505671",
"!  c #515771",
"~  c #555A73",
"^  c #5A5B70",
"/  c #5C5C70",
"(  c #5D5E73",
")  c #585D77",
"_  c #555C78",
"`  c #565E7A",
"'  c #565F7B",
"]  c #525D7C",
"[  c #515E7F",
"{  c #525E7F",
"}  c #565F7D",
"|  c #5F6177",
" . c #56607E",
".. c #5F637B",
"X. c #5E647F",
"o. c #60606F",
"O. c #616170",
"+. c #616171",
"@. c #646471",
"#. c #636475",
"$. c #676774",
"%. c #676777",
"&. c #696975",
"*. c #6B6B77",
"=. c #616379",
"-. c #626478",
";. c #636478",
":. c #62647A",
">. c #646478",
",. c #656579",
"<. c #666679",
"1. c #65657A",
"2. c #66667A",
"3. c #66667B",
"4. c #67677B",
"5. c #66677C",
"6. c #68677B",
"7. c #68687B",
"8. c #6A6A7A",
"9. c #6D6D78",
"0. c #6F6F7B",
"q. c #68687C",
"w. c #69697D",
"e. c #6A697C",
"r. c #6A697D",
"t. c #686A7C",
"y. c #6B6A7D",
"u. c #6A6A7E",
"i. c #6B6A7E",
"p. c #6B6B7F",
"a. c #70707B",
"s. c #71717B",
"d. c #71717C",
"f. c #72727C",
"g. c #73737D",
"h. c #72727E",
"j. c #75757E",
"k. c #003180",
"l. c #003280",
"z. c #003380",
"x. c #013380",
"c. c #033480",
"v. c #023581",
"b. c #204480",
"n. c #214580",
"m. c #204481",
"M. c #2C4A80",
"N. c #455880",
"B. c #475980",
"V. c #475A82",
"C. c #495B81",
"Z. c #515E81",
"A. c #586383",
"S. c #5A6481",
"D. c #5D6582",
"F. c #586384",
"G. c #606681",
"H. c #616881",
"J. c #6B6B80",
"K. c #6C6C80",
"L. c #6D6D81",
"P. c #6E6E80",
"I. c #6E6E82",
"U. c #6F6F83",
"Y. c #696D85",
"T. c #6F7086",
"R. c #707083",
"E. c #747480",
"W. c #777780",
"Q. c #777783",
"!. c #707084",
"~. c #717185",
"^. c #717186",
"/. c #727286",
"(. c #737387",
"). c #747487",
"_. c #787880",
"`. c #797981",
"'. c #7A7A80",
"]. c #7A7A82",
"[. c #7D7D83",
"{. c #797984",
"}. c #7A7A86",
"|. c #7E7E84",
" X c #7F7F85",
".X c #777789",
"XX c #78788A",
"oX c #79798A",
"OX c #7A7A8B",
"+X c #7C7C88",
"@X c #7E7E8A",
"#X c #7B7B8C",
"$X c #808085",
"%X c #808087",
"&X c #818187",
"*X c #828287",
"=X c #838389",
"-X c #848489",
";X c #80808C",
":X c #818191",
">X c #848492",
",X c #868694",
"<X c #888896",
"1X c #8B8B97",
"2X c #919196",
"3X c #93939F",
"4X c #9595A0",
"5X c #9999A0",
"6X c #9898A3",
"7X c #9C9CA6",
"8X c #9F9FA9",
"9X c #A1A1AA",
"0X c #ADADB4",
"qX c #B0B0B7",
"wX c #B4B4BA",
"eX c #B8B8BD",
"rX c #BCBCC1",
"tX c #C3C3C4",
"yX c #CACACD",
"uX c #CDCDD0",
"iX c #D1D1D3",
"pX c #D5D5D7",
"aX c #D9D9DA",
"sX c gray86",
"dX c gray87",
"fX c #DEDEDF",
"gX c #E1E1E1",
"hX c #E3E3E4",
"jX c #E6E6E7",
"kX c #E9E9E8",
"lX c #E9E9EA",
"zX c #EAEAEA",
"xX c gray92",
"cX c #ECECEC",
"vX c gray93",
"bX c gray96",
"nX c #F6F6F6",
"mX c gray97",
"MX c #F9F9F8",
"NX c gray98",
"BX c #FBFBFB",
"VX c #FEFEFE",
"CX c white",
/* pixels */
"                                                ",
"      2X%X-X=X%X%X%X|.|.[.[.'.'.                ",
"    tX1XU.t.8.%.#.+.A B x t t x '.              ",
"    sX3XT.A.G.X.{ ` ) U H ! S 1 @.              ",
"    xX0X/.F.V.C.V.T V.T L T D 1 x               ",
"    vXyX.XY.D.Z.{ } { ` ~ U G 6 0 '.            ",
"    vXhX:X/.U.J.t.,.J * ! v p 0 1 0.            ",
"    xXbX4X/./.U.t.,.$ k.O j p 0 1 +.            ",
"    xXCXqX/./.U.t.,.> X c.: p 0 1 x             ",
"    xXCXuXoX/.U.t.,.= X k.# j 0 0 0 Q.          ",
"    xXCXjX>X/.U.U.t.< k.k.@ z p 0 1 &.          ",
"    xXCXbX6X/./.U.t.U X k.n.G p 0 1 o.          ",
"    xXCXCXwX/./.U.t...o k.c., l 0 1 p           ",
"    xXCXCXiXoX/.U.t.8.; k.k.; v 0 0 7 j.        ",
"    xXCXCXxX,X/.U.U.t.U X k.& v p 0 1 &.        ",
"    xXCXCXMX7X/./.U.t.:.@ k.n.v p 0 1 A         ",
"    xXCXCXCXeX)./.U.t.6.K k.n.^ p 0 1 t         ",
"    xXCXCXCXpXoX/.U.t.t.=.$ M.B p p 0 7 g.      ",
"    xXCXCXCXvX1X/.U.U.t.,.` W N v p 0 1 %.      ",
"    xXCXCXCXMX8X/./.U.t.,.=. .( v p 0 1 A       ",
"    xXCXCXCXCXrX)./.U.t.,.:.S.( v p 0 1 t       ",
"    xXCXCXCXCXsX#X/.U.t.t.,.H.| v p p 0 1 s.    ",
"    dXMXCXCXCXbX9X).R.U.t.,.5.:.v v p 0 0 s.    ",
"      gXbXbXbXbXdX6X;X+X+X{.{.Q.Q.g.g.0.g.      "
};
