/* XPM */
static char *featherpad_png_ico_3[] = {
/* columns rows colors chars-per-pixel */
"48 48 148 2 ",
"   c None",
".  c #04357F",
"X  c #0D397E",
"o  c #123B7D",
"O  c #1D427D",
"+  c #29477B",
"@  c #2C487B",
"#  c #344D7C",
"$  c #3D5077",
"%  c #3D527B",
"&  c #4B4B5F",
"*  c #50505D",
"=  c #4E4E62",
"-  c #4E536B",
";  c #515165",
":  c #5A5A66",
">  c #555569",
",  c #58576B",
"<  c #57596F",
"1  c #5A5A6D",
"2  c #415075",
"3  c #4B5574",
"4  c #44567D",
"5  c #47597F",
"6  c #4C5A7C",
"7  c #525974",
"8  c #5C5D71",
"9  c #525D7B",
"0  c #595F79",
"q  c #5E6176",
"w  c #5C617B",
"e  c #64646E",
"r  c #636374",
"t  c #6A6A75",
"y  c #65667A",
"u  c #68677B",
"i  c #6A6A7D",
"p  c #707076",
"a  c #74747C",
"s  c #79797F",
"d  c #003380",
"f  c #063882",
"g  c #0C3B83",
"h  c #113D81",
"j  c #164184",
"k  c #1B4382",
"l  c #244782",
"z  c #324F81",
"x  c #3B5484",
"c  c #435781",
"v  c #455982",
"b  c #4B5C82",
"n  c #515E81",
"m  c #4E6186",
"M  c #566282",
"N  c #5D6581",
"B  c #576789",
"V  c #5B6B8D",
"C  c #606783",
"Z  c #646A84",
"A  c #6D6D82",
"S  c #636F8D",
"D  c #6B7189",
"F  c #727285",
"G  c #7C7C84",
"H  c #7E7E87",
"J  c #7B7B83",
"K  c #747488",
"L  c #757589",
"P  c #747489",
"I  c #767689",
"U  c #77778A",
"Y  c #747488",
"T  c #78788A",
"R  c #7C7C8A",
"E  c #7D7D8C",
"W  c #7E7E8C",
"Q  c #7B7B8B",
"!  c #818187",
"~  c #838389",
"^  c #86868B",
"/  c #83838C",
"(  c #8A8A89",
")  c #88888A",
"_  c #8A8A8D",
"`  c #8A8A8E",
"'  c #878792",
"]  c #868691",
"[  c #8C8C93",
"{  c #8F8F92",
"}  c #8D8D96",
"|  c #8B8B93",
" . c #8F8F98",
".. c gray57",
"X. c #919192",
"o. c #939395",
"O. c #959596",
"+. c #929294",
"@. c #979798",
"#. c #95959D",
"$. c #97979E",
"%. c #94949B",
"&. c #99999A",
"*. c #9B9B9C",
"=. c #9B9B9D",
"-. c #99999E",
";. c #9C9C9F",
":. c #9F9FA1",
">. c #9B9BA1",
",. c #A0A0A1",
"<. c #A2A2A3",
"1. c #A3A3A4",
"2. c #A2A2A4",
"3. c #A5A5A5",
"4. c #A5A5A6",
"5. c #A6A6A7",
"6. c #A2A2A6",
"7. c #A6A6AA",
"8. c #ABABAE",
"9. c #A9A9AD",
"0. c #AEAEB1",
"q. c #ADADB0",
"w. c #B2B2B5",
"e. c #BABABC",
"r. c #BFBFC0",
"t. c #C5C5C4",
"y. c #C4C4C5",
"u. c #C4C4C5",
"i. c #C7C7C8",
"p. c gray80",
"a. c #D0D0D0",
"s. c #D7D7D6",
"d. c #D0D0D0",
"f. c #DDDDDC",
"g. c #DBDBDB",
"h. c #E6E6E6",
"j. c #E5E5E5",
"k. c #E8E8E7",
"l. c #ECECEB",
"z. c gray94",
"x. c gray95",
"c. c gray97",
"v. c #F6F6F6",
"b. c #F8F8F8",
"n. c #F9F9F9",
"m. c #FCFCFB",
"M. c white",
"N. c #FFFFFF",
/* pixels */
"                                                                                                ",
"                                                                                                ",
"              ( ..O.<.-.-.<.@.1.o.3.o.1.@.:.-.&.:.O.1.&.3...                                    ",
"            3.[ R t H a J s p G t H t J t a p t a r a e a t J (                                 ",
"          t.-.I F e t e y e r r 1 r : r : 1 : : : ; : * : = = r `                               ",
"          s.} I F F A A A i i i y y r r 8 8 8 8 1 > > > > ; = = t                               ",
"        a.h.#.I I F b v A i i i y 9 r r r 8 8 c 6 > > > 3 ; = = ; ^                             ",
"        a.x.8.I I F M C C n N b v v v 0 6 0 6 5 6 6 6 7 v - = = = J                             ",
"        a.b.t.E I K C c v c n b c 6 c 5 v c v 6 4 7 5 4 4 3 ; = & t                             ",
"        a.b.f.' I K A c n x n c v 9 9 6 x 5 6 6 4 7 v 4 3 3 ; = = : [                           ",
"        a.b.x.#.I I F M Z b n v c v 6 9 5 6 6 7 6 7 5 v 5 4 ; = = ; ~                           ",
"        a.b.m.0.T I F Z A N M M w w w w w 9 0 8 8 1 7 7 7 7 ; = = = a                           ",
"        a.c.M.i.E I F F F A A i i u y y r 3 2 7 1 1 1 > > ; ; ; = & r                           ",
"        a.c.M.f.' I F F F A A i i i y y 7 X d o 2 1 1 > > ; ; ; = = : [                         ",
"        a.c.M.x.>.I I F F A A i i i y y # d d d X 3 1 > > > ; ; = = = !                         ",
"        a.c.M.M.w.T I F F A A A i i y y % d d d d O < 1 > > ; ; = = & a                         ",
"        a.c.M.M.p.E I F F F A A i i y y 0 O d d d d $ 1 > > ; ; ; = & r                         ",
"        a.c.M.M.j.| I F F F A A i i i y % + o d d d O < > > ; ; ; = = > `                       ",
"        a.c.M.M.x.:.I I F F A A i i i u 4 . o . d d f 3 : > > ; ; = = = H                       ",
"        a.c.M.M.M.w.T I F F A A A i i u 6 f d d d d d # 1 > > ; ; = = & p                       ",
"        a.c.M.M.M.p./ I F F F A A i i t w X d d d d d l 1 > > ; ; ; = = r O.                    ",
"        a.c.M.M.M.h.} I F F F A A i i i y O d d d d d % 1 > > > ; ; = = > `                     ",
"        a.c.M.M.M.c.1.I I F F A A i i i u # d d d d h 6 0 : > > ; ; = = = H                     ",
"        a.c.M.M.M.M.e.T I F F A A A i i t 6 . d d d k k z 1 > > ; ; = = & t                     ",
"        a.c.M.M.M.M.a./ I F F F A A i i t w o d d d d d l 8 > > ; ; ; = = 1 o.                  ",
"        a.c.M.M.M.M.k. .I I F F A A i i i y + d d d d d j 8 > > > ; ; = = ; `                   ",
"        a.c.M.M.M.M.c.1.I I F F A A A i i u 4 . d d d d g 0 , > > ; ; = = = J                   ",
"        a.c.M.M.M.M.M.e.T I F F A A A i i u w o d d d d f 6 : > > ; ; = = & t                   ",
"        a.c.M.M.M.M.M.s./ I F F F A A i i y y @ d d d d d v 1 > > ; ; ; = = 1 ..                ",
"        a.c.M.M.M.M.M.l.%.I I F F A A i i i y 6 . d d d d c 1 > > > ; ; = = ; ^                 ",
"        a.c.M.M.M.M.M.b.7.I I F F A A A i i y r O d d d d x 1 > > > ; ; = = = J                 ",
"        a.c.M.M.M.M.M.M.r.T I F F A A A i i y y 4 d d d d x 8 1 > > ; ; = = & t                 ",
"        a.c.M.M.M.M.M.M.s.' I F F F A A i i y y w o d d d x 8 1 > > ; ; ; = = 1 ..              ",
"        a.c.M.M.M.M.M.M.l.@.I I F F A A i i i y y % d d d x 1 1 > > > ; ; = = ; ^               ",
"        a.c.M.M.M.M.M.M.b.8.I I F F A A A i i y y w O d d v 8 1 1 > > ; ; = = = J               ",
"        a.c.M.M.M.M.M.M.M.y.E I F F A A A i i y y y 9 h g 9 8 1 1 > > ; ; ; = & t               ",
"        a.c.M.M.M.M.M.M.M.s.' I F F F A A i i y y y r 5 x q 8 1 1 > > ; ; ; = = : [             ",
"        a.c.M.M.M.M.M.M.M.l.#.I I F F A A i i i y y r w b 8 8 1 1 > > > ; ; = = ; ~             ",
"        a.c.M.M.M.M.M.M.M.b.0.T I F F A A A i i y y r r b q 8 8 1 1 > > ; ; = = = a             ",
"        a.c.M.M.M.M.M.M.M.M.t.E I F F F A A i i y y y r m w 8 8 1 1 > > ; ; ; = & r             ",
"        a.c.M.M.M.M.M.M.M.M.f.' I F F F A A i i i y y r M M 8 8 1 1 > > ; ; ; = = : [           ",
"        a.c.M.M.M.M.M.M.M.M.x.>.I I F F A A i i i y y r w B 8 8 1 1 > > > ; ; = = = !           ",
"        a.c.M.M.M.M.M.M.M.M.M.w.T I F F A A A i i y y r y V r 8 1 1 1 > > ; ; = = & a           ",
"        p.c.M.M.M.M.M.M.M.M.M.p.E I F F F A A i i y y y r S y 8 1 1 1 > > ; ; ; = & r           ",
"        y.x.M.M.M.M.M.M.M.M.M.l.#.I F F F A A i i i y y r D Z 8 8 1 1 > > ; ; ; = = 1 ..        ",
"          s.M.M.M.M.M.M.M.M.M.M.p.' I F F A A i i u y y r y y 8 8 1 1 > > ; ; ; = = t           ",
"            s.b.M.M.M.M.M.M.M.M.b.a.-./ T K K K F F F i i i t t t y y y r r r r 1 t `           ",
"              t.j.h.h.h.h.h.h.h.h.h.p.;.o.O.O.o.o.o.o.o.o.o.o.o.o.o.o.o.o.o.o...o.O.            "
};
