/* XPM */
static char *feh_png_ico_3[] = {
/* columns rows colors chars-per-pixel */
"48 48 222 2 ",
"   c None",
".  c #522F1B",
"X  c #54311C",
"o  c #58341E",
"O  c #593720",
"+  c #5D3B24",
"@  c #5A3A2C",
"#  c #5A3A32",
"$  c #633D25",
"%  c #673B2A",
"&  c #663930",
"*  c #6A3C33",
"=  c #6B3836",
"-  c #5B4E26",
";  c #654525",
":  c #6A4A26",
">  c #66432A",
",  c #6C452A",
"<  c #6D482B",
"1  c #694127",
"2  c #71472A",
"3  c #724A2D",
"4  c #754D30",
"5  c #784F32",
"6  c #7B5233",
"7  c #1D774A",
"8  c #715E6B",
"9  c #BC140C",
"0  c #BC3D24",
"q  c #BD1324",
"w  c #D10D08",
"e  c #FF0000",
"r  c #F60909",
"t  c #FF0118",
"y  c #E61A1A",
"u  c #E51B00",
"i  c #C93700",
"p  c #D82F04",
"a  c #FF0134",
"s  c #D92626",
"d  c #BD530C",
"f  c #A8520C",
"g  c #8D6F06",
"h  c #835635",
"j  c #D05808",
"k  c #D15807",
"l  c #C0520C",
"z  c #FF6600",
"x  c #FC6A00",
"c  c #F2690D",
"v  c #F46A07",
"b  c #E97300",
"n  c #E66B1A",
"m  c #CE5032",
"M  c #DB6B24",
"N  c #CB7134",
"B  c #C4723C",
"V  c #D47125",
"C  c #E36124",
"Z  c #9E3F61",
"A  c #AD2F62",
"S  c #FF0057",
"D  c #DF2042",
"F  c #FE0170",
"G  c #B74948",
"H  c #A5565B",
"J  c #B74754",
"K  c #B4744B",
"L  c #BB7444",
"P  c #AC7553",
"I  c #AF7B50",
"U  c #947B6C",
"Y  c #9B7C64",
"T  c #887E77",
"R  c #976B6F",
"E  c #92785F",
"W  c #C17141",
"Q  c #1DB30D",
"!  c #528B0C",
"~  c #758B00",
"^  c #5EA200",
"/  c #45BA00",
"(  c #74B609",
")  c #50BB34",
"_  c #12CB07",
"`  c #27D800",
"'  c #1BEA02",
"]  c #00FF00",
"[  c #0CF30C",
"{  c #0DF600",
"}  c #13EC12",
"|  c #19E61A",
" . c #15F006",
".. c #28E408",
"X. c #23DC23",
"o. c #29D728",
"O. c #38C739",
"+. c #00D42C",
"@. c #4AD200",
"#. c #26AD62",
"$. c #59A658",
"%. c #4FB24A",
"&. c #67956B",
"*. c #778D69",
"=. c #50A367",
"-. c #70965F",
";. c #21CD4B",
":. c #AA9606",
">. c #97A500",
",. c #80B300",
"<. c #BEB40D",
"1. c #B3AA16",
"2. c #B9B218",
"3. c #9C8F30",
"4. c #A98F33",
"5. c #9B9819",
"6. c #C58A00",
"7. c #C0B709",
"8. c #C3BD15",
"9. c #D48A2B",
"0. c #CFC909",
"q. c #CCC60C",
"w. c #D0CB08",
"e. c #CFC90C",
"r. c #E1CA1E",
"t. c #FEFE01",
"y. c #F3F30C",
"u. c #EAEA16",
"i. c #F0F110",
"p. c #D6D829",
"a. c #CCCD33",
"s. c #C3C33C",
"d. c #C4DE3B",
"f. c #B4B44B",
"g. c #BABA46",
"h. c #A5A55A",
"j. c #ABAA54",
"k. c #968669",
"l. c #93936D",
"z. c #9C9A63",
"x. c #898877",
"c. c #909171",
"v. c #9FA061",
"b. c #A0A160",
"n. c #D79B64",
"m. c #8BC174",
"M. c #311D8E",
"N. c #1C12AE",
"B. c #2F29A9",
"V. c #4A1DB5",
"C. c #5532AA",
"Z. c #433D94",
"A. c #076997",
"S. c #7F5E8E",
"D. c #75758B",
"F. c #7B7C84",
"G. c #6B6B94",
"H. c #63639C",
"J. c #6B7295",
"K. c #5C5CA3",
"L. c #5555AA",
"P. c #4444BB",
"I. c #5D6CA3",
"U. c #7479A3",
"Y. c #2E12D2",
"T. c #3636C9",
"R. c #2323DC",
"E. c #2C2CD3",
"W. c #1D1CE3",
"Q. c #1212ED",
"!. c #0001FF",
"~. c #0C0AF3",
"^. c #0D10EB",
"/. c #140EC5",
"(. c #0F6BC1",
"). c #B01794",
"_. c #BD13AD",
"`. c #B329A8",
"'. c #FF008D",
"]. c #C718BF",
"[. c #FF00B8",
"{. c #F10EA6",
"}. c #E020B8",
"|. c #98458E",
" X c #9A6699",
".X c #8A768A",
"XX c #B947B9",
"oX c #A958A9",
"OX c #A060A1",
"+X c #C641B3",
"@X c #D00CC6",
"#X c #D10BC8",
"$X c #CC10C2",
"%X c #F010C2",
"&X c #CC33CC",
"*X c #DD22DF",
"=X c #D32DD4",
"-X c #E718E7",
";X c #FF00FF",
":X c #F808F4",
">X c #F40CEE",
",X c #DD20E2",
"<X c #A447D5",
"1X c #7B8384",
"2X c #678699",
"3X c #6D9293",
"4X c #5B85A3",
"5X c #468AB9",
"6X c #5790AB",
"7X c #6184A0",
"8X c #45BABA",
"9X c #4DADAF",
"0X c #44989A",
"qX c #3C8DC4",
"wX c #2C91D2",
"eX c #348DCC",
"rX c #1595EA",
"tX c #0A98F5",
"yX c #2AD6D5",
"uX c #33C5CD",
"iX c #23E3DC",
"pX c #06F8F9",
/* pixels */
"              h h                                                             h h               ",
"            h , 2 6                                                         6 2 , h             ",
"              3 , 2 2                 4 2 2 , < < < 2 2 4                 2 2 , 3               ",
"                , X O $ > , < < , , > $ + o X o o X o + $ > , , < < , > $ O X ,                 ",
"                , O $ $ $ 1 , , % % $ $ $ & = = = & & & = & = * * * * & & % O ,                 ",
"              5 + + f k j j j j i w w w w A .X|.].@X@X`.8 |.|.].$X@X@X@X#X).+ + 5               ",
"              3 X + d z z z z U 7XJ.3X3XG 8X9XJ }.>X*X*XOX&XoX=X-X;X;X;X;X_.+ X 3               ",
"              2 X + d z z z z U rXtX8XiXyXyX3Xr t F %X:X>X*X-X;X;X;X;X;X;X_.+ X 2               ",
"              , . + d z z z z z N 2X4X6XpX9XR y e e t S [.:X;X;X;X;X;X;X;X_.+ X 2               ",
"              , . + l z z z z L 5XeXwXqXuXyXuX3XH y e y y a '.%X&X:X;X;X;X_.+ . ,               ",
"              2 X + g 6.b x z U tXtX4XU 6X9X8X8XR s r H G r e r D {.:X;X;X_.+ X 2               ",
"              3 X + Q { ' @.,.5.0XwX2X5XqXI.J y e e e r r e e e e e a F [._.+ X 3               ",
"              5 O + Q ] ] ] ] ] ' ;.$.4.R 2Xm e e e e e e e e e e e e e e q + O 5               ",
"              5 $ + Q ] ] ] ] ] ] [ $.-.*.#.=.0 e e e e e e e e e e e e e 9 + $ 5               ",
"                $ + Q ] ] ] ] ] ] ] [ ] ] ] ] ' ^ f u e e e e e e e e e e 9 + $                 ",
"              5 + + Q ] ] ] ] ] ] ] ] ] ] ] ] ] ] ] ` ^ f u e e e e e e e 9 + $ 5               ",
"              5 O + Q ] ] ] ] ] ] ] ] ] ] ] ] ] ] ] ] ] ] ` ~ i r e e e e 9 + O 5               ",
"              3 X + Q ] ] ] ] ] ] ] ] ] ] ] ] ] ] ] ] ] ] ] ] { / g u e e 9 + X 2               ",
"              2 X + Q ] ] ] ] ] ] ] ] ] ] ] ] ] ] ] ] ] ] ] ] ] ] ] ` ~ p 9 + X 2               ",
"              2 X + Q ] ] | %.O.} [ ] ] ] ] ] ] X.| ] X.[ o.| | ] ] ] ] ' ! + X 2               ",
"              2 X + Q ] ] O.-X-XXX X.X.X) ) =.&.O.O.[ o.[ &.O.| [ ] ] ] ] Q + X 2               ",
"              2 X + Q ] ] } XX;X&X X,X+XM V Y 3. .] ] ] ] [ o.X.} ] ] ] ] Q + X 2               ",
"              3 o + Q ] ] ]  X;X-X>X<X6XT P c x :...] ] ] ] ] ] ] ] ] ] ] Q + o 3               ",
"              6 , - _ ] ] X.-X-X%.U.U.5XrXqX2XT W 4.@.| } [ %.} | [ ] ] ] _ - , 6               ",
"              6 , - _ ] ] &.;X:X&.(.eX5XqXB N U B c b ( } [ X.} X.| [ ] ] _ - , 6               ",
"              3 o + 7 +.] o. X*Xn.l.K.P 1XM z z z z z v ( ] ] ] ] ] ] ] ] Q + o 3               ",
"              2 X + N.^.A.#.A.W.x.i.j.2X5X1XU T 2XP z v v ( ] [ } [ [ ] ] Q + X 2               ",
"              2 X + N.!.!.!.!.~.G.F.G.G.J.5XwXtXrXY M 7X2X2XO.O.$.O.| [ ] Q + X 2               ",
"              2 X + 8 E.!.!.!.!.!.!.!.!.!.V.N N N c c L K K B 5.| [ } [ ] Q + X 2               ",
"              2 X + <.H.!.!.!.!.!.!.!.!.!.!.V.C z z z z z z z x >.{ ] ] ] Q + X 2               ",
"              3 X + <.K.!.!.!.!.!.!.!.!.!.!.!.V.C z z z z z z z z :.' ] ] Q + X 3               ",
"              5 O + 7.c.!.!.!.!.!.!.!.!.!.!.!.!.Y.m z z z z z z z z 6.@.] Q + O 5               ",
"              5 $ + <.i.K.!.!.!.!.!.!.!.!.!.!.!.!.Y.G z z z z z z z z b >.! + $ 5               ",
"                $ + <.a.j.K.~.!.!.!.!.!.!.!.!.!.!.!.Q.Z v N P n v z z z z d + $                 ",
"              5 $ + <.J.R.G.x.T.Q.!.!.!.!.!.!.!.!.!.!.~.H I 2XT P c z z z d + $ 5               ",
"              5 O + 7.h.W.W.P.H.P.T.H.W.!.!.!.!.!.!.!.!.z.a.k.K K M z z z d + O 5               ",
"              3 X + 7.a.R.R.F.x.G.K.K.R.!.!.!.!.!.!.!.E.g.t.d.1XK M T K z d + X 3               ",
"              2 X + 2.G.G.W.T.W.T.P.G.G.P.E.W.T.E.T.K.a.t.t.t.r.9.Y T M z d + X 2               ",
"              , . + 1.G.x.E.!.!.g.y.i.u.s.g.s.z.l.h.a.j.t.j.G.f.p.m.k.c z d + . ,               ",
"              2 . + 1.1Xl.l.T.R.x.g.a.t.t.t.t.t.i.p.x.P.f.s.h.h.a.h.C.m x d + X ,               ",
"              2 X + <.b.D.D.L.D.a.g.p.t.t.t.t.t.t.t.t.p.D.K.L.F.g.H.1Xk.H f + X 2               ",
"              2 X + <.t.t.u.l.g.p.a.i.t.t.t.t.t.t.t.t.t.g.D.l.K.D.c.b.D.Q.M.+ X 2               ",
"              5 + + 5.w.0.q.q.0.8.8.q.0.0.0.0.w.w.0.0.0.0.2.4.4.E Z.B.B./.M.+ + 5               ",
"                , O ; ; ; : : : : : ; ; ; ; ; : : ; ; ; ; ; : : : > # # # @ O ,                 ",
"                , X O $ > , < < , , > $ + o X O O X o + $ > , , < < , , $ O X ,                 ",
"              3 , 2 2                 4 2 2 < < < < 2 2 4                 2 2 , 3               ",
"            h , 2 6                                                         6 2 , h             ",
"              h h                                                             h h               "
};
