/* XPM */
static char *firefox_png_ico_2[] = {
/* columns rows colors chars-per-pixel */
"32 32 170 2 ",
"   c None",
".  c #271002",
"X  c #241C04",
"o  c #26150A",
"O  c #28190E",
"+  c #351705",
"@  c #2C1D12",
"#  c #272E0E",
"$  c #2D3901",
"%  c #353E0F",
"&  c #262814",
"*  c #3A2A1F",
"=  c #2D3412",
"-  c #322B24",
";  c #342E29",
":  c #3B332E",
">  c #3F3732",
",  c #431D05",
"<  c #44331F",
"1  c #7B3100",
"2  c #70360F",
"3  c #76380F",
"4  c #7B3A0C",
"5  c #663A1D",
"6  c #753A13",
"7  c #793E12",
"8  c #4D3524",
"9  c #4F3B2D",
"0  c #5E3921",
"q  c #443B35",
"w  c #493F38",
"e  c #3E4D03",
"r  c #3F4C13",
"t  c #445110",
"y  c #7C4117",
"u  c #764318",
"i  c #697614",
"p  c #4C423B",
"a  c #534134",
"s  c #51463E",
"d  c #5B4739",
"f  c #744424",
"g  c #7F4721",
"h  c #794C2F",
"j  c #71532D",
"k  c #6A5938",
"l  c #7C5032",
"z  c #7C5A30",
"x  c #7D762E",
"c  c #71603D",
"v  c #524740",
"b  c #564A42",
"n  c #5A4E46",
"m  c #5D5047",
"M  c #5E5149",
"N  c #6B5547",
"B  c #62544B",
"V  c #66584F",
"C  c #6D5B4F",
"Z  c #795842",
"A  c #705A4C",
"S  c #695A51",
"D  c #766540",
"F  c #833400",
"G  c #8A3700",
"H  c #8C3901",
"J  c #833A0A",
"K  c #8B3F0B",
"L  c #823807",
"P  c #933B00",
"I  c #9C3E00",
"U  c #A23F00",
"Y  c #8F420B",
"T  c #9F4000",
"R  c #97430A",
"E  c #9F470C",
"W  c #964107",
"Q  c #88491F",
"!  c #A34100",
"~  c #AB4501",
"^  c #AD4806",
"/  c #A34B0B",
"(  c #AE4E0B",
")  c #B14700",
"_  c #B34A03",
"`  c #BB4D03",
"'  c #B34E0A",
"]  c #BA4F08",
"[  c #BD520B",
"{  c #B55009",
"}  c #A44F11",
"|  c #BA5511",
" . c #BC5C14",
".. c #B66116",
"X. c #BD6018",
"o. c #8C532C",
"O. c #985528",
"+. c #B66A23",
"@. c #B96A26",
"#. c #BE7E32",
"$. c #C14B00",
"%. c #C45104",
"&. c #C2560B",
"*. c #C3580B",
"=. c #C35A13",
"-. c #CC5D14",
";. c #C45F1C",
":. c #CD6017",
">. c #CF6118",
",. c #C6681D",
"<. c #D06116",
"1. c #D16319",
"2. c #CA6421",
"3. c #CF6A26",
"4. c #D46F2B",
"5. c #CB7428",
"6. c #D8732F",
"7. c #D57433",
"8. c #DA7632",
"9. c #D87939",
"0. c #DA7836",
"q. c #8C7B4F",
"w. c #957A4A",
"e. c #6A8500",
"r. c #708E00",
"t. c #7B9126",
"y. c #879526",
"u. c #90942C",
"i. c #86823C",
"p. c #8F8559",
"a. c #958859",
"s. c #9C905F",
"d. c #A8854C",
"f. c #BC8747",
"g. c #B89B5D",
"h. c #9E9260",
"j. c #A29563",
"k. c #AB9E68",
"l. c #AFA16A",
"z. c #B3A56D",
"x. c #BCA162",
"c. c #BAAC71",
"v. c #BFB175",
"b. c #CB8E46",
"n. c #C18F41",
"m. c #CC924B",
"M. c #C49547",
"N. c #CCAA52",
"B. c #D3A45D",
"V. c #D2B65D",
"C. c #D3A760",
"Z. c #D5AC64",
"A. c #CFB061",
"S. c #D4BD62",
"D. c #D8B56D",
"F. c #C2B376",
"G. c #CCBB7B",
"H. c #C5B678",
"J. c #D9B770",
"K. c #DABD76",
"L. c #D6C16A",
"P. c #D8C473",
"I. c #DBC17B",
"U. c #DCC97D",
"Y. c #D2C17F",
"T. c #DECC86",
"R. c #DECE88",
"E. c #D5C481",
"W. c #E0CF88",
"Q. c #E1D089",
/* pixels */
"  C A Z O.                                            O.Z A C   ",
"S S V V N o.                                        o.N V V S S ",
"V V B B M B l (                                 ( l B M B B V V ",
"B B M m n n n h _                             _ h n n n m M B B ",
"B M n n b b b b Q _ )                     ) _ Q b b b b n n M B ",
"M n b b s s v v d E ) ~                 ~ ) E d v v s s b b n M ",
"n n b s p p p p p f ~ ~ !             ! ~ ~ f p p p p p s b n n ",
"  b s p w w w w p a R ! ! T P P P P T ! ! R a p w w w w p s b   ",
"  v p w q q q q w w y ! T I P P P P I T ! y w w q q q w p p v   ",
"  p p w q : : : > 9 K I I I I I I I I I I K 9 > : : : q w p s   ",
"    p w q : ; ; 8 J I I I I T ! ! T I I I I J 8 ; ; : q w p     ",
"    p w q : - * L I I I I ! ! ! ! ! ! I I I I 4 * - : q w p     ",
"      w 5 3 2 L G H P G ! ~ ~ ^ ^ ~ ~ ! G P H G 4 2 3 0 w       ",
"      6 H I I ! I F F P ~ ~ _ ' ' ^ ~ ~ P F F I I I I H 5       ",
"      P P I I ! ! G P ( ' ) ' | | ' ) ' ( P G ! ! I I P P       ",
"      P P I ! ! I P @.J.C. .[  . .]  .Z.D.+.P I ! ! I P P       ",
"    G 1 F I ! ! I Y w.a.v.b.[ ;.;.&.m.c.p.w.K I ! ! I F 1 G     ",
"    F 1 G ! ! ~ 1 X t $ & z =.2.2.=.j & % e X 1 ~ ! ! G 1 F     ",
"    F F I ! ! ~ } i.y.e.$ + =.3.3.| . r t.r.x / ~ ! ! I F F     ",
"  P F P I U ! ~ { M.u.i # , -.4.4.-.+ = i y.n.' ~ ! U I P F P   ",
"  P P / / +.#...) `  .+.d.y <.8.6.-.u d.+. ._ ) ..#.+./ / P P   ",
"  W f.A.N.P.L.V.b. .` $.*.' 1.0.0.<.( *.$.` X.m.V.L.P.N.A.f.P   ",
"    T.P.L.U.S.P.T.I.B.,.$.%.1.9.9.>.%.$.,.B.I.R.P.S.U.L.P.T.    ",
"    T.P.U.T.L.T.T.R.R.K.5.%.:.7.7.-.%.5.K.R.R.T.T.L.T.U.P.T.    ",
"    T.T.T.T.U.T.T.T.T.T.g.3 6 g g 6 7 x.T.T.T.T.T.U.T.T.T.T.    ",
"    T.T.T.T.T.T.T.T.T.U.q.o O @ @ O O a.U.T.T.T.T.T.T.T.T.T.    ",
"    T.T.T.T.T.T.T.R.U.U.Y.k o o o o k E.U.T.T.T.T.T.T.T.T.T.    ",
"    T.T.          R.T.T.W.G.c < < D G.W.T.T.R.          T.T.    ",
"                      T.R.Q.W.l.z.W.Q.R.T.                      ",
"                      k.l.c.F.j.j.H.F.c.z.                      ",
"                          c.l.s.h.z.v.                          ",
"                            Q.Q.Q.Q.                            "
};
