/* XPM */
static char *gcolor3_png_ico_3[] = {
/* columns rows colors chars-per-pixel */
"48 48 233 2 ",
"   c None",
".  c #000000",
"X  c #0B0B0B",
"o  c #0B0B02",
"O  c #171704",
"+  c #0F0F12",
"@  c #141414",
"#  c #191919",
"$  c #323206",
"%  c #222222",
"&  c #2A2A2A",
"*  c #353535",
"=  c #474704",
"-  c #5D5D00",
";  c #737303",
":  c #741A49",
">  c #0B5963",
",  c #484848",
"<  c gray33",
"1  c #656565",
"2  c #777777",
"3  c #AC0909",
"4  c #A80708",
"5  c #B10B0B",
"6  c #BB0F0F",
"7  c #BD1010",
"8  c #B30935",
"9  c #B3380C",
"0  c #CC1515",
"q  c #C21111",
"w  c #D51717",
"e  c #DB1108",
"r  c #FF0100",
"t  c #FC0B0B",
"y  c #FC0604",
"u  c #FD1701",
"i  c #FF0016",
"p  c #E31919",
"a  c #EA1919",
"s  c #E71917",
"d  c #F41515",
"f  c #F91111",
"g  c #E50E05",
"h  c #FF2600",
"j  c #FF3700",
"k  c #F03117",
"l  c #FF0025",
"z  c #FF0038",
"x  c #D22230",
"c  c #AC4909",
"v  c #B44B0A",
"b  c #BB540F",
"n  c #B74E13",
"m  c #9B561D",
"M  c #CB5E15",
"N  c #C55C16",
"B  c #CA4C0E",
"V  c #FE4604",
"C  c #FF5800",
"Z  c #E24F14",
"A  c #CB651A",
"S  c #D86616",
"D  c #FF6600",
"F  c #FE6A02",
"G  c #FD6C0B",
"H  c #F46806",
"J  c #FC7804",
"K  c #E46A19",
"L  c #ED6C19",
"P  c #EF6E17",
"I  c #F56E14",
"U  c #F76E13",
"Y  c #EC6810",
"T  c #CC6C2D",
"R  c #E77428",
"E  c #F47723",
"W  c #A82263",
"Q  c #FF034A",
"!  c #FF0066",
"~  c #FF0079",
"^  c #A57555",
"/  c #E05946",
"(  c #0AAB0A",
")  c #0CB20C",
"_  c #0FBC0E",
"`  c #11BE11",
"'  c #25A11A",
"]  c #438406",
"[  c #14CC14",
"{  c #12C412",
"}  c #18DC18",
"|  c #17D617",
" . c #00FF00",
".. c #0BFD0B",
"X. c #00F40B",
"o. c #19E319",
"O. c #19ED19",
"+. c #19E717",
"@. c #14F614",
"#. c #16F916",
"$. c #00E914",
"%. c #00DB25",
"&. c #00C837",
"*. c #32FF32",
"=. c #20DE29",
"-. c #00A659",
";. c #00B847",
":. c #088F73",
">. c #3EA97F",
",. c #619A47",
"<. c #50FF50",
"1. c #71FE70",
"2. c #919100",
"3. c #ADAD09",
"4. c #A8A704",
"5. c #B2B20B",
"6. c #BBBB0A",
"7. c #B7B714",
"8. c #B1820B",
"9. c #FF8700",
"0. c #FF9800",
"q. c #FFAB00",
"w. c #FFBA00",
"e. c #EFA518",
"r. c #F48B3B",
"t. c #CF9B1D",
"y. c #D6D600",
"u. c #CCCC15",
"i. c #C3C313",
"p. c #D5D517",
"a. c #CFC60C",
"s. c #FFCA00",
"d. c #FFD903",
"f. c #FFE600",
"g. c #FFFF00",
"h. c #FDFD0B",
"j. c #FBF400",
"k. c #E3E319",
"l. c #EAEA19",
"z. c #E7E819",
"x. c #F5F515",
"c. c #F9F911",
"v. c #E9E900",
"b. c #F0CF34",
"n. c #F18E4E",
"m. c #D0946B",
"M. c #F2A973",
"N. c #F1A26E",
"B. c #E39754",
"V. c #F6D357",
"C. c #EECD67",
"Z. c #0909AC",
"A. c #0708A7",
"S. c #0B0BB1",
"D. c #0F0FBB",
"F. c #1010BD",
"G. c #1837BC",
"H. c #732E8F",
"J. c #4222A3",
"K. c #790CB3",
"L. c #00738D",
"P. c #0059A6",
"I. c #0047B8",
"U. c #1515CC",
"Y. c #1111C2",
"T. c #1717D5",
"R. c #0038C7",
"E. c #0025DB",
"W. c #1919EA",
"Q. c #1919E4",
"!. c #0000FF",
"~. c #0B0BFC",
"^. c #0605FA",
"/. c #1700FF",
"(. c #1515F4",
"). c #1111F9",
"_. c #0016E9",
"`. c #2900FF",
"'. c #3D00FF",
"]. c #2E18DA",
"[. c #5900FF",
"{. c #4E0CF8",
"}. c #6E00FF",
"|. c #0842C3",
" X c #A909AB",
".X c #B60DB6",
"XX c #B40DB6",
"oX c #FA088F",
"OX c #CC10AF",
"+X c #FF00A6",
"@X c #FF00B8",
"#X c #8707FE",
"$X c #9600FF",
"%X c #B700FF",
"&X c #A200FF",
"*X c #B816D2",
"=X c #CC14CC",
"-X c #C412C4",
";X c #DA18DA",
":X c #FF00C8",
">X c #FF00DB",
",X c #D300FF",
"<X c #C201FF",
"1X c #FD05E9",
"2X c #E319E3",
"3X c #ED18ED",
"4X c #E519EA",
"5X c #E600FF",
"6X c #FF00FF",
"7X c #FD0BFD",
"8X c #FA00FA",
"9X c #F614F6",
"0X c #F713F6",
"qX c #8D8D8D",
"wX c #ABABAB",
"eX c #A3A3A3",
"rX c #B1B1B1",
"tX c #BBBCBB",
"yX c #8CFF8C",
"uX c #B6F8B6",
"iX c #A8FFA8",
"pX c #CCCCCC",
"aX c #C2C2C3",
"sX c #D6D6D6",
"dX c #C4DAC4",
"fX c #D6FFD6",
"gX c #C2FFC2",
"hX c #E3E3E3",
"jX c #EAEAEA",
"kX c #F5F4F5",
"lX c #FEFFFE",
"zX c #F5FFF5",
"xX c #E9FFE9",
/* pixels */
"                                      4.3.3.5.5.5.5.3.3.4.                                      ",
"                                X = 5.i.u.u.u.p.p.u.u.u.i.6.5.3.                          , &   ",
"                          X X + @ $ i.k.k.l.l.l.l.l.l.k.k.p.p.u.6.5.4.                  < * #   ",
"                        X @ # # # # 7.x.x.c.c.c.c.c.c.x.x.x.l.k.p.u.6.8.                * % X   ",
"                    X X # # # # # + ; h.h.h.h.g.g.h.h.h.h.h.c.x.l.z.p.A b c           , & #     ",
"                  X @ # # # # X X . $ j.g.g.g.g.g.g.g.g.g.g.h.h.h.x.e.K S N v       & * %       ",
"                X @ # # # X X . . . O y.g.g.g.g.g.g.g.g.g.g.g.g.g.d.U I L S M v     , & %       ",
"              X # # # @ X . . . . . . 2.g.g.g.g.g.g.g.g.g.g.g.g.g.0.D G U L K M n ^     &       ",
"            X # # # @ X . . . . . . . - g.g.g.g.g.g.g.g.g.g.g.g.s.F D D G U P K T m.^           ",
"          X # # # @ o . . . . . . . . $ v.g.g.g.g.g.g.g.g.g.g.j.9.D D D D F U R m.B.m           ",
"        X @ # # @ o . . . . . . . . . o 6.g.g.g.g.g.g.g.g.g.g.w.D D D D D D F B.N.T m c         ",
"        X # # @ X . . . . . . . . . . . ; g.g.g.g.g.g.g.g.g.f.J D D D D D D E M.n.T A b         ",
"      1 & # # X . . . . . . . . . . . . = j.g.g.g.g.g.g.g.g.q.D D D D D D F N.n.T A K M v       ",
"    eXtXtX2 % . . . . . . . . . . . . . O y.g.g.g.g.g.g.g.f.J D D D D D D r.M.R N I L S b c     ",
"    wXpXjXkXaX< X . . . . . . . . . . . . 4.g.g.g.g.g.g.g.0.D D D D D D G N.n.A S G I K M v     ",
"    tXsXjXlXlXkXwX* . . . . . . . . . . . - g.g.g.g.g.g.d.F D D D D D D n.N.R M D D G L S b     ",
"  wXpXhXkXlXlXlXlXjXqX& . . . . . . . . . $ v.g.g.g.g.j.0.D D D D D D I M.r.A Y F D G I K M c   ",
"  rXsXjXkXlXlXlXlXlXlXsX2 # . . . . . . . o a.g.g.g.g.s.F D D D D D D B.V.t.S F F D F U L M 9   ",
"  tXsXkXlXlXlXlXlXlXlXlXlXpX1 X . . . . . . 2.g.g.g.j.9.D D D D D D L C.b.t.H F D C V V k w 6   ",
"wXaXhXkXlXlXlXlXlXlXlXlXlXlXkXtX, o . . . . = j.g.g.w.D D D D D D H / V.t.S C V h u r t d p q 4 ",
"wXaXhXkXlXlXlXlXlXlXlXlXlXlXlXlXkXeX* . . . O y.g.f.J D D D D D D Z / T n u y r r r r y d p 0 3 ",
"wXpXjXkXlXlXlXlXlXlXlXlXlXlXlXlXlXlXhXqX% . . 4.g.q.D D F D D C j x W : e r r r r r r y f a 0 3 ",
"rXpXjXkXlXlXlXlXlXlXlXlXlXlXlXlXlXlXlXlXsX1 + ; d.J D C V j u y y H.J.8 r r r r r r r y f a 0 5 ",
"rXsXjXkXlXlXlXlXlXlXlXlXlXlXlXlXlXlXlXlXlXlXaX,.J j h u r r r r f H.8 r r r r r r r r r f a w 5 ",
"rXsXjXkXlXlXlXlXlXlXlXlXlXlXlXlXlXlXlXzXfXiX1.>.OXz r r r r r r g m y r r r r r r r r r f a w 5 ",
"rXpXjXkXlXlXlXlXlXlXlXlXlXlXlXlXxXgXyX<.#. .$.|.$X1XoXl r r r r v ] g r r r r r r r r y f a 0 5 ",
"wXpXjXkXlXlXlXlXlXlXlXlXzXfXiX1.*... . . . .:.!.[.6X6X>X~ i r r B ] g r r r r r r r r y f a 0 3 ",
"wXpXhXkXlXlXlXlXlXxXuXyX<.#. . . . . . . .%.E.!.`.5X6X6X6X:X! i y e r r r r r r r r r y d p 0 3 ",
"wXaXhXkXlXzXfXiX<.*... . . . . . . . . . .L.!.!.!.%X6X6X6X6X8X@XQ r r r r r r r r r r t d p q 4 ",
"  tXdXuX1.*.#. . . . . . . . . . . . . .&._.!.!.!.}.6X6X6X6X6X6X8X+Xz r r r r r r r r t d w 6   ",
"  ,.=.O... . . . . . . . . . . . . . . .P.!.!.!.!.'.8X6X6X6X6X6X6X6X1XoXl r r r r r y f a w 5   ",
"  ( { o.@... . . . . . . . . . . . . .;.^.!.!.!.!./.,X6X6X6X6X6X6X6X6X6X>X! i r r r t d p 0 3   ",
"    _ } O... . . . . . . . . . . . .X.I.!.!.!.!.!.!.$X6X6X6X6X6X6X6X6X6X6X6X:XQ y r t a w 7     ",
"    ) [ o.@... . . . . . . . . . . .-.^.!.!.!.!.!.!.[.6X6X6X6X6X6X6X6X6X6X6X6X8X+XQ d s 0 5     ",
"    ( { } O... . . . . . . . . . .$.R.!.!.!.!.!.!.!.`.5X6X6X6X6X6X6X6X6X6X6X6X6X6X1XoXx q 4     ",
"      ) [ o.@... . . . . . . . . .:.!.!.!.!.!.!.!.!.^.%X6X6X6X6X6X6X6X6X6X6X6X6X7X9X4XOXW       ",
"        _ | O.@... . . . . . . .%.E.!.!.!.!.!.!.!.!.!.#X6X6X6X6X6X6X6X6X6X6X6X7X0X3X;X.X        ",
"        ( { } O.@... . . . . . .L.!.!.!.!.!.!.!.!.!.!.{.8X6X6X6X6X6X6X6X6X6X6X0X3X;X-X X        ",
"          ) [ o.O.@... . . . .&._.!.!.!.!.!.!.!.!.!.!./.,X6X6X6X6X6X6X6X6X6X0X3X2X=XXX          ",
"            ) [ o.O.@... . .X.P.!.!.!.!.!.!.!.!.!.!.!.!.&X6X6X6X6X6X6X6X7X0X3X2X=XXX            ",
"              ) [ o.O.@... .-.^.!.!.!.!.!.!.!.!.!.!.!.!.}.6X6X6X6X6X6X7X0X3X2X=XXX              ",
"                ) [ } O.@.O.|.!.!.!.!.!.!.!.!.!.!.!.!.!.`.5X6X6X6X7X7X9X3X;X=XXX                ",
"                  ) { | +.:.(.~.~.^.!.!.!.!.!.!.!.!.!.!./.<X6X7X7X9X3X4X;X-XXX                  ",
"                    ( _ &.G.W.W.(.).~.~.^.^.^.!.!.^.^.^.~.#X0X9X3X4X;X=X.X X                    ",
"                        > F.U.T.Q.W.(.(.(.).).).).).).(.(.{.4X2X;X=X.XXX                        ",
"                          A.S.F.U.T.T.Q.Q.W.W.W.W.W.W.Q.Q.].*X=X.XXX X                          ",
"                                Z.S.D.Y.U.U.U.T.T.U.U.U.Y.F.K. X                                ",
"                                      A.Z.Z.S.S.S.S.Z.Z.A.                                      "
};
