/* XPM */
static char *geeqie_png_ico_1[] = {
/* columns rows colors chars-per-pixel */
"24 24 155 2 ",
"   c None",
".  c #010001",
"X  c #0B0307",
"o  c #05000A",
"O  c #0A0B0B",
"+  c #140012",
"@  c #100D16",
"#  c #161615",
"$  c #151816",
"%  c #1D1518",
"&  c #171C18",
"*  c #1D1E1D",
"=  c #20141E",
"-  c #221A1C",
";  c #1D211F",
":  c #13211D",
">  c #2B042A",
",  c #2A1424",
"<  c #2A1D29",
"1  c #301520",
"2  c #1F2321",
"3  c #1C2926",
"4  c #152D29",
"5  c #1C2E2B",
"6  c #162422",
"7  c #15342D",
"8  c #183431",
"9  c #113B32",
"0  c #1F3A34",
"q  c #1D3D3B",
"w  c #222323",
"e  c #222B2A",
"r  c #2C2C2C",
"t  c #21322F",
"y  c #2F3331",
"u  c #203833",
"i  c #28363E",
"p  c #343334",
"a  c #343836",
"s  c #3B3D3C",
"d  c #4A012A",
"f  c #470033",
"g  c #4C0937",
"h  c #5B0F36",
"j  c #510D3A",
"k  c #530E33",
"l  c #5A133C",
"z  c #611736",
"x  c #472932",
"c  c #7E243E",
"v  c #540E43",
"b  c #561341",
"n  c #5B1641",
"m  c #671E44",
"M  c #641E4A",
"N  c #721E4A",
"B  c #630C52",
"V  c #5B294A",
"C  c #483944",
"Z  c #453D43",
"A  c #562B52",
"S  c #6A224B",
"D  c #6D2555",
"F  c #464646",
"G  c #4B4549",
"H  c #494949",
"J  c #504145",
"K  c #564552",
"L  c #574B54",
"P  c #5A4354",
"I  c #525252",
"U  c #5D505A",
"Y  c #5C5C5C",
"T  c #63515D",
"R  c #605B5F",
"E  c #6B4E64",
"W  c #665662",
"Q  c #6B5064",
"!  c #635F62",
"~  c #6D5E65",
"^  c #745D6E",
"/  c #7A5971",
"(  c #626363",
")  c #6D666B",
"_  c #676B69",
"`  c #6C6B6C",
"'  c #736E72",
"]  c #7B6D75",
"[  c #7C7279",
"{  c #A3083B",
"}  c #B7063C",
"|  c #F6003E",
" . c #FB003D",
".. c #82164A",
"X. c #B30643",
"o. c #AE0D52",
"O. c #9D2948",
"+. c #943750",
"@. c #A93454",
"#. c #841268",
"$. c #95116F",
"%. c #9F1369",
"&. c #900674",
"*. c #910A70",
"=. c #BE0164",
"-. c #A5047D",
";. c #B00977",
":. c #AF3371",
">. c #CE044E",
",. c #DA0543",
"<. c #C91143",
"1. c #D41B4E",
"2. c #DD0F5C",
"3. c #EF0643",
"4. c #EC004E",
"5. c #E40F4D",
"6. c #F50044",
"7. c #F90041",
"8. c #F2004B",
"9. c #E60053",
"0. c #EC0053",
"q. c #E3005B",
"w. c #D42057",
"e. c #CB0568",
"r. c #D00062",
"t. c #DD0063",
"y. c #D5006D",
"u. c #D8006B",
"i. c #D20A6A",
"p. c #CC1B68",
"a. c #D31F61",
"s. c #CE0074",
"d. c #C6007E",
"f. c #CA007A",
"g. c #D20070",
"h. c #CB2A62",
"j. c #8B4770",
"k. c #8B5E7B",
"l. c #A04660",
"z. c #AE4576",
"x. c #82626C",
"c. c #80697B",
"v. c #97617F",
"b. c #82717D",
"n. c #A60480",
"m. c #AC028D",
"M. c #BE0087",
"N. c #BC008B",
"B. c #AF009D",
"V. c #B50094",
"C. c #BA0093",
"Z. c #B20099",
"A. c #C30083",
"S. c #C1008C",
"D. c #8A6D80",
/* pixels */
"                | 6.6.8.8.4.4.9.                ",
"             . .7.6.6.8.8.4.0.9.q.q.            ",
"           . .7.6.5.w.h.h.a.2.q.q.q.t.          ",
"         . .6.1.l.x.] [ b.D.v.z.p.t.t.r.        ",
"       . .3.@.~ _ ` ` ` ' ' ] c.k.:.i...X       ",
"     . .3.+.Y ( _ _ ` ` ) ) ) ) ^ / j.T w .     ",
"   . .6.O.I Y Y Y ( ( ! ! ^ ^ ~ R W Q E G O .   ",
"   .7.<.J H I I I I I I I I U Q T I L P K e .   ",
"| 7.8.c s F H H F F H H H H F G K G F Z C p O . ",
"6.6.,.x p s s s s s p r e y s s s s s a r e O . ",
"6.6.} - r y p r p r w < k h m S S S S M b j g f ",
"8.6.{ # * w e w e # @ > =.y.g.s.s.f.f.d.A.A.N.N.",
"8.8.{ # * w w * w O o > =.g.s.s.f.f.d.A.A.N.N.N.",
"4.0.X.% * w e * w # . + d d l n l n n b v -.N.C.",
"4.0.>.1 & w w w * w # O O # 2 * ; w ; & , -.C.V.",
"9.9.q.z : 2 w e 2 * w w w w * * e w * $ v V.V.V.",
"  q.q.o.e 3 2 e u 3 * * * * w e w w & = &.C.V.Z.",
"  q.q.t.N 7 5 2 5 0 t w w e w w w * # B V.V.Z.Z.",
"    t.t.e.V 9 7 3 2 w w w w w * & # v m.Z.Z.B.B.",
"      u.u.e.D q 9 7 3 2 * * & $ = B m.Z.Z.B.B.B.",
"        y.g.s.%.A i 8 4 6 * , v &.V.Z.Z.  B.B.B.",
"          s.s.f.d.;.$.#.#.*.n.V.C.V.Z.    B.B.B.",
"            f.f.d.A.A.S.S.C.C.V.V.Z.      B.B.B.",
"                A.A.M.N.N.V.V.V.          B.B.B."
};
