/* XPM */
static char *geeqie_png_ico_0[] = {
/* columns rows colors chars-per-pixel */
"16 16 190 2 ",
"   c None",
".  c #000100",
"X  c #0A0A0C",
"o  c #0E0A0E",
"O  c #12040E",
"+  c #190A13",
"@  c #111111",
"#  c #171819",
"$  c gray10",
"%  c #181C19",
"&  c #191C1A",
"*  c #1C1E1C",
"=  c #1E1F1F",
"-  c #20001D",
";  c #2D171F",
":  c #20181B",
">  c #21191C",
",  c #1E201F",
"<  c #1F201F",
"1  c #20201F",
"2  c #2B0E28",
"3  c #271523",
"4  c #291625",
"5  c #271A21",
"6  c #281923",
"7  c #291D25",
"8  c #2B1E26",
"9  c #34142B",
"0  c #182320",
"q  c #1E2023",
"w  c #1A2A26",
"e  c #1C2A27",
"r  c #1D2B2B",
"t  c #1F2F2C",
"y  c #16322B",
"u  c #1F312E",
"i  c #202020",
"p  c #202121",
"a  c gray13",
"s  c #212221",
"d  c #212222",
"f  c #222222",
"g  c #222323",
"h  c #242224",
"j  c #202524",
"k  c #202625",
"l  c #212625",
"z  c #252626",
"x  c #2D2029",
"c  c #202A28",
"v  c #282828",
"b  c #2D2B2D",
"n  c #30252B",
"m  c #32252C",
"M  c #272D31",
"N  c #392A34",
"B  c #273239",
"V  c #253639",
"C  c #353535",
"Z  c #373838",
"A  c #393939",
"S  c gray23",
"D  c #5B1835",
"F  c #6E0236",
"G  c #41272F",
"H  c #403239",
"J  c #43353D",
"K  c #44363D",
"L  c #7C283F",
"P  c #4D0F40",
"I  c #4E0F40",
"U  c #512B4E",
"Y  c #473741",
"T  c #4B3D47",
"R  c #7E0868",
"E  c #424645",
"W  c #4A4549",
"Q  c #494949",
"!  c #494A49",
"~  c #4B494B",
"^  c gray29",
"/  c #4B4B4B",
"(  c #52434E",
")  c #5F474E",
"_  c #514A4F",
"`  c #554852",
"'  c #555857",
"]  c #5C5B5C",
"[  c gray36",
"{  c #60565E",
"}  c #6D565C",
"|  c #654F60",
" . c #625A60",
".. c #695964",
"X. c #6C5867",
"o. c #636766",
"O. c #686969",
"+. c #6A6A6B",
"@. c #6F696D",
"#. c #7E646C",
"$. c #70686F",
"%. c #736570",
"&. c #7B6D74",
"*. c #BA053D",
"=. c #FC003A",
"-. c #FC003B",
";. c #F8003F",
":. c #FB003E",
">. c #FC003E",
",. c #9C0055",
"<. c #911758",
"1. c #B80541",
"2. c #A10456",
"3. c #B00C56",
"4. c #920577",
"5. c #9C0171",
"6. c #940B72",
"7. c #960E71",
"8. c #AF0361",
"9. c #AB066B",
"0. c #AE0668",
"q. c #A8066F",
"w. c #B50662",
"e. c #B30968",
"r. c #B1096C",
"t. c #A41167",
"y. c #A00370",
"u. c #A70670",
"i. c #A50472",
"p. c #AE0970",
"a. c #AB0A77",
"s. c #A5037F",
"d. c #A3047E",
"f. c #923A69",
"g. c #CB044B",
"h. c #D60541",
"j. c #CF1143",
"k. c #C01F49",
"l. c #D6184A",
"z. c #DD115C",
"x. c #D61D58",
"c. c #D51D5D",
"v. c #EC004F",
"b. c #F30142",
"n. c #F60042",
"m. c #F70043",
"M. c #F40343",
"N. c #F40046",
"B. c #F0004A",
"V. c #F60048",
"C. c #F2004C",
"Z. c #E2114E",
"A. c #E70054",
"S. c #E70055",
"D. c #ED0051",
"F. c #E10158",
"G. c #E4035A",
"H. c #E2005D",
"J. c #E4005E",
"K. c #D40264",
"L. c #DD0062",
"P. c #DE0062",
"I. c #DB0066",
"U. c #D7006A",
"Y. c #D4006F",
"T. c #CC1769",
"R. c #C5027B",
"E. c #C5007F",
"W. c #CF0078",
"Q. c #D00073",
"!. c #9B475E",
"~. c #855372",
"^. c #A84675",
"/. c #8F637B",
"(. c #826D79",
"). c #BA0187",
"_. c #BD008F",
"`. c #AF009D",
"'. c #B40190",
"]. c #B40095",
"[. c #B40097",
"{. c #B90093",
"}. c #BE0090",
"|. c #B1009A",
" X c #B0009B",
".X c #B1009B",
"XX c #B50099",
"oX c #B60098",
"OX c #C30085",
"+X c #C1008A",
/* pixels */
"          :.M.N.B.v.S.          ",
"      -.>.M.Z.x.c.z.G.H.L.      ",
"    -.:.l.!.#.&.(./.^.T.K.F     ",
"  -.:.k.} o.+.+.@.$.%.~.f.n .   ",
"  >.j.) ' [ [ ]  .X...{ | ( @   ",
":.b.L E / / / / / / ` _ W T h . ",
"M.h.G Z A A C b m H K Y J N 6 O ",
"V.*.> z v v # 2 2.w.e.r.p.i.y.5.",
"C.1.: p p p X - ,.8.0.9.q.i.).}.",
"D.g.; , p p $ o + 5 8 x 8 9 s.{.",
"S.F.D 0 j c p 1 , , p p & I '.].",
"  J.3.M w t u j p p p * 3 4.oX|.",
"  L.I.<.V y e j p * & 3 R ].|.`.",
"    U.Y.t.U B r q 4 I 4.].|.`.`.",
"      Q.W.R.a.7.6.d.'.oX|.  `.`.",
"          E.OX+X_.{.].      `.`."
};
