/* XPM */
static char *gksu_png_ico_2[] = {
/* columns rows colors chars-per-pixel */
"32 32 134 2 ",
"   c None",
".  c #4C4C4C",
"X  c #545454",
"o  c #5B5B5B",
"O  c #6A6A6A",
"+  c #777777",
"@  c #7B7B7B",
"#  c #BA534F",
"$  c #BD5E5B",
"%  c #BD6562",
"&  c #C76662",
"*  c #C26965",
"=  c #C5716E",
"-  c #C47370",
";  c #C77976",
":  c #C47C7B",
">  c #858585",
",  c #8B8B8B",
"<  c #929292",
"1  c #9B9C9C",
"2  c #A2A2A2",
"3  c #ACACAC",
"4  c #B4B4B4",
"5  c #BCBCBC",
"6  c #C58382",
"7  c #CA8583",
"8  c #C38A8A",
"9  c #CD8D8B",
"0  c #D08E8B",
"q  c #D0908E",
"w  c #C69696",
"e  c #CA9E9E",
"r  c #D19C9B",
"t  c #CCA4A4",
"y  c #D7A3A1",
"u  c #DDA5A2",
"i  c #D8A8A6",
"p  c #D2ADAD",
"a  c #DBACAA",
"s  c #C5BDBD",
"d  c #D4B4B4",
"f  c #DBB3B2",
"g  c #D7B8B8",
"h  c #DCBCBB",
"j  c #E1ADAB",
"k  c #E2B1AF",
"l  c #E2B6B4",
"z  c #E2B8B6",
"x  c #E2BDBC",
"c  c #FABFBF",
"v  c #E3C0BE",
"b  c #C4C4C4",
"n  c #CCCCCC",
"m  c #DCC1C1",
"M  c #D6CDCD",
"N  c #CFD0D0",
"B  c #D4D4D4",
"V  c #DBD2D2",
"C  c #D7D8D8",
"Z  c #DCDCDC",
"A  c #E2C3C3",
"S  c #E9C6C4",
"D  c #E3CBCB",
"F  c #F5C6C6",
"G  c #FBC1C1",
"H  c #FACDCD",
"J  c #E6D3D3",
"K  c #EBD5D4",
"L  c #EBD8D7",
"P  c #E4DCDC",
"I  c #EBDDDD",
"U  c #DFE0E0",
"Y  c #E3E3E3",
"T  c #EDE3E3",
"R  c #EEE3E3",
"E  c #EDE1E1",
"W  c #EDE4E4",
"Q  c #EEE4E4",
"!  c #EFE6E6",
"~  c #ECE3E3",
"^  c #E8E9EA",
"/  c #E8EAEA",
"(  c #EAEAEA",
")  c #EAEBEB",
"_  c gray92",
"`  c #EBEBEC",
"'  c #ECECEC",
"]  c #EEEEEE",
"[  c #ECECEC",
"{  c #F1E5E4",
"}  c #F0E7E7",
"|  c #FAE0E0",
" . c #F2EDED",
".. c #F3EEEE",
"X. c #F3EFEF",
"o. c #F4EFEF",
"O. c #F1EAEA",
"+. c #F8EEEE",
"@. c #F9EFEF",
"#. c #EFF1F1",
"$. c gray94",
"%. c #F1F1F1",
"&. c gray95",
"*. c #F4F2F2",
"=. c #F5F2F2",
"-. c #F4F4F4",
";. c #F4F5F5",
":. c gray96",
">. c #F6F5F5",
",. c #F7F5F5",
"<. c #F4F6F6",
"1. c #F5F6F6",
"2. c #F5F6F7",
"3. c #F6F6F6",
"4. c #F7F6F6",
"5. c gray97",
"6. c #F6F4F4",
"7. c #F9F0F0",
"8. c #F9F1F1",
"9. c #FAF1F1",
"0. c #FAF2F2",
"q. c #F9F2F2",
"w. c #F7F8F8",
"e. c #F7F8F9",
"r. c #F8F9F9",
"t. c #F9FBFB",
"y. c gray98",
"u. c #FAFBFB",
"i. c #FAFBFC",
"p. c #F9FCFC",
"a. c #FAFCFC",
"s. c #FAFDFD",
"d. c #FAFEFE",
"f. c #F9F9F9",
/* pixels */
"                                                                ",
"                                                                ",
"                                                                ",
"                                                                ",
"                                                                ",
"                                                                ",
"  c H H H F F H H H H H H H H H H H H H H H H H H H H H H H c   ",
"G | p.p.I 8 E =.D r.p.p.r.=.p.p.-.-.p.-.X.p.p.p.p.o.-.p.p.p.| G ",
"G 0.{ a : 6 K r f K A L J h K K A m D r : A E h D 6 a x h K 0.v ",
"G +.i q & y ; - 0 $ # : 7 7 $ ; 7 7 7 7 7 - 7 % 7 9 = * = i 0.c ",
"G K v X.l I v f x z l z k x k l j u l j K z x a u l l K S K 0.c ",
"G E B N B n n B B B ^ i.Y ^ #.Y ^ Y U ` w.-.-.-.w.w.-.-.w.r.0.G ",
"G M B Z b @ + 5 Z B B -.4 5 B 5 5 5 4 n B 5 b b n n 5 5 Z r.0.G ",
"G M Z Z 1 + + , Z Z B -.B B B Z n B Z ^ B 5 Y B B n b B Y r.0.G ",
"G V Z Y 3 @ @ 2 Y Y B -.$.^ ^ ^ $.' ^ ^ Z B ^ $.$.' ^ ' ^ $.0.G ",
"G V Y ^ B , > n ^ Y B -.b 4 4 4 b 5 n 5 n b 5 5 5 5 4 4 4 ^ 0.G ",
"G V Y n 2 O O 2 n Y B -.n b B b Z B B B B U Y n n B n n n ^ 0.G ",
"G V 5 o . . . . o 3 Z -.E P L I Q Q E I Q E Q E I E E E L X.0.G ",
"G V 1 X . . . . X , B =.d e w t g d p t d d d t t p d t w J 0.G ",
"G V 2 1 X . . X 1 1 n =.h d d m h g p t p d p t p g m g p L 0.G ",
"G s 1 ^ + . . O Y 3 4 r.-.=.-.-.D d t t d d t t t O.-.-.=.-.0.G ",
"G M b ' < X X > ^ n n r.r.r.r.r.=.O.Q O.O.O.{ Q { 4.r.r.r.r.0.G ",
"G O.Y Y B n n B Z Y ' -.r.r.r.r.r.r.r.r.r.r.r.r.r.r.r.r.r.r.0.G ",
"G E B B B Z Z B M B B $.r.r.r.r.r.r.r.r.r.r.r.r.r.r.r.r.r.r.0.G ",
"G E Z C Z Y Z ^ B B ^ Z B Z Z Z Z Y B Y ^ ^ Y B Z Z Z ^ -.r.+.c ",
"F F P P E E E O.P P ! O.E E P E E Q P Q Q X.Q P E P P O.0.0.H F ",
"  F G G G G G G G G G G G G G G G G G G G G G G G G G G G c F   ",
"                                                                ",
"                                                                ",
"                                                                ",
"                                                                ",
"                                                                "
};
