/* XPM */
static char *googlechrome_png_ico_4[] = {
/* columns rows colors chars-per-pixel */
"64 64 142 2 ",
"   c None",
".  c #9D0000",
"X  c #A40000",
"o  c #AC0000",
"O  c #B40000",
"+  c #BC0000",
"@  c #C40000",
"#  c #CC0000",
"$  c #D30000",
"%  c #DC0000",
"&  c #DC0D01",
"*  c #E40000",
"=  c #E80000",
"-  c #E90F01",
";  c #E31101",
":  c #E52101",
">  c #E82702",
",  c #E73201",
"<  c #E83501",
"1  c #009D00",
"2  c #00A300",
"3  c #00AB00",
"4  c #00B400",
"5  c #00BC00",
"6  c #2EBC02",
"7  c #618702",
"8  c #00C400",
"9  c #00CB00",
"0  c #00D300",
"q  c #00DB00",
"w  c #0CDB01",
"e  c #00E300",
"r  c #01E800",
"t  c #4CE802",
"y  c #9D9D00",
"u  c #A3A300",
"i  c #ABAB00",
"p  c #B4B400",
"a  c #BCBC00",
"s  c #B0E802",
"d  c #C7C700",
"f  c #C5C500",
"g  c #C3C300",
"h  c #C9C900",
"j  c #C8C800",
"k  c #CACA00",
"l  c #CBCB00",
"z  c #CACA01",
"x  c #CCCC00",
"c  c #CECE00",
"v  c #CFCF00",
"b  c #CECE01",
"n  c #CBCB00",
"m  c #D0D000",
"M  c #D1D100",
"N  c #D2D200",
"B  c #D3D300",
"V  c #D4D400",
"C  c #D5D500",
"Z  c #D6D600",
"A  c #D7D700",
"S  c #D3D300",
"D  c #D8D800",
"F  c #D9D900",
"G  c #DADA00",
"H  c #DBDB00",
"J  c #DCDC00",
"K  c #DDDD00",
"L  c #DEDE00",
"P  c #DFDF00",
"I  c #DBDB00",
"U  c #DCE501",
"Y  c #DEE801",
"T  c #E0E000",
"R  c #E1E100",
"E  c #E2E200",
"W  c #E3E300",
"Q  c #E4E400",
"!  c #E5E500",
"~  c #E6E600",
"^  c #E7E700",
"/  c #E3E300",
"(  c #E5EA01",
")  c #E6EB01",
"_  c #E8E800",
"`  c #E8E801",
"'  c #E9E901",
"]  c #E8EC01",
"[  c #E9ED01",
"{  c #E8E801",
"}  c #0101C3",
"|  c #0000C4",
" . c #0101C4",
".. c #0000C5",
"X. c #0000C6",
"o. c #0000C7",
"O. c #0000C4",
"+. c #0000C8",
"@. c #0000C9",
"#. c #0000CA",
"$. c #0000CB",
"%. c MediumBlue",
"&. c #0000CE",
"*. c #0000CF",
"=. c #0000CB",
"-. c #0000D0",
";. c #0000D1",
":. c #0000D2",
">. c #0000D4",
",. c #0000D5",
"<. c #0000D6",
"1. c #0000D3",
"2. c #0000D8",
"3. c #0000D9",
"4. c #0000DA",
"5. c #0000DB",
"6. c #0000DD",
"7. c #0000DE",
"8. c #0000DF",
"9. c #0000DB",
"0. c #0000E0",
"q. c #0000E1",
"w. c #0000E2",
"e. c #0000E4",
"r. c #0000E5",
"t. c #0000E6",
"y. c #0000E7",
"u. c #0000E3",
"i. c #0000E8",
"p. c #0000EA",
"a. c #0000EC",
"s. c #0000ED",
"d. c #0000EE",
"f. c #0000EF",
"g. c #0000EC",
"h. c #0000F0",
"j. c #0000F1",
"k. c #0000F3",
"l. c #0000F4",
"z. c #0000F5",
"x. c #0000F4",
"c. c #0000FB",
/* pixels */
"                                                        . . . . . . . . .                                                       ",
"                                              . . . . . . X X X X X X . . . . . .                                               ",
"                                        . . . X X X X X X X X X X X X X X X X X X . . .                                         ",
"                                    . . . X X X X o o o o o o o o o o o o o o X X X X . . .                                     ",
"                                . . X X X X o o o o o O O O O O O O O O O o o o o o X X X X . .                                 ",
"                              . X X X o o o o O O O O O O O O + + O O O O O O O O o o o o X X X . .                             ",
"                          . . X X o o o O O O O O + + + + + + + + + + + + + + O O O O O o o o X X . .                           ",
"                        . X X X o o O O O O + + + + + @ @ @ @ @ @ @ @ @ @ + + + + + O O O O o o X X X .                         ",
"                      . X X o o o O O O + + + @ @ @ @ @ @ @ @ @ @ @ @ @ @ @ @ @ @ + + + O O O o o o X X .                       ",
"                    . X X o o O O O + + + @ @ @ @ @ # # # # # # # # # # # # @ @ @ @ @ + + + O O O o o X X . .                   ",
"                  . X X o o O O + + + @ @ @ @ # # # # # # # $ $ $ $ # # # # # # # @ @ @ @ + + + O O o o X X .                   ",
"                . X X o o O O + + + @ @ @ # # # # $ $ $ $ $ $ $ $ $ $ $ $ $ $ # # # # @ @ @ + + + O O o o X X .                 ",
"              . X X o o O O + + @ @ @ # # # # $ $ $ $ $ $ $ % % % % $ $ $ $ $ $ $ # # # # @ @ @ + + O O o o X X .               ",
"              X X o o O O + + @ @ @ # # # $ $ $ $ % % % % % % % % % % % % % % $ $ $ $ # # # @ @ @ + + O O o o X X .             ",
"                o o O O + + @ @ # # # $ $ $ $ % % % % % % * % % % % % % % % % % % $ $ $ $ # # # @ @ + + O O o o X . .           ",
"                o O O + + @ @ # # # $ $ $ % % % % % * * * * * * * * * * * * % % % % % $ $ $ # # # @ @ + + O O o X X .           ",
"        1 2       O + + @ @ # # # $ $ $ % % % % * * * * * * * * * * * * * * * * % % % % $ $ $ # # # @ @ + + O o o X X .         ",
"        1 2       + + + @ @ # # $ $ $ % % % * * * * * = = = = = = = - > < , : ; * %           $ # # @ @ + + O O o o X           ",
"      1 2 2 3       + @ @ # # $ $ $ % % % * * * * = =                       [ [ ( (                                             ",
"      1 2 3 3 4     @ @ # # $ $ $ % % % * * * = =                             _ _ ^ ^ W L L G Z Z B v h                         ",
"    1 2 2 3 4 4       @ # # $ $ % % % * * * =         } ......$.$.......}         _ ^ ^ W L L G Z B v h g g a a p p i u u       ",
"    1 2 3 3 4 5 5     # # $ $ % % % * * * =       } ..$.$.&.&.-.-.&.&.$.$...}       _ ^ ^ W L G G Z B v h g g a a p i i u y     ",
"    1 2 3 4 4 5 5     # $ $ $ % % * * * =       ..$.&.-.<.<.2.2.2.2.<.<.-.&.$...      _ ^ ^ W L G Z B B v g g a a p p i u y     ",
"  1 2 2 3 4 4 5 8 8     $ $ % % % * * =       ..$.&.<.2.2.8.8.0.0.8.8.2.2.<.&.$...      _ ^ W L L G Z B v h g g a p p i u u y   ",
"  1 2 3 3 4 5 5 8 8 9   $ $ % % * * *       ..$.-.<.2.8.0.r.r.r.r.r.r.0.8.2.<.-.$...      ^ ^ W L G Z B v h g g a a p i i u y   ",
"  1 2 3 3 4 5 5 8 9 9     % % % * * =     ..$.-.<.2.0.r.p.p.d.d.d.d.p.p.r.0.2.<.-.$...    _ ^ W L L G Z B v h g a a p i i u y   ",
"1 1 2 3 4 4 5 8 8 9 9 0   % % * * *       ..&.<.2.0.r.p.d.d.h.h.h.h.d.d.p.r.0.2.<.&...      ^ ^ W L G Z B v h g g a p p i u y y ",
"1 2 2 3 4 4 5 8 8 9 9 0     % * * =     ..$.-.2.8.r.p.d.h.h.z.z.z.z.h.h.d.p.r.8.2.-.$...    _ ^ W L G Z B v h g g a p p i u u y ",
"1 2 2 3 4 5 5 8 8 9 0 0 q   * * * =     ..&.<.8.0.p.d.h.z.z.c.c.c.c.z.z.h.d.p.0.8.<.&...    _ ^ W L G G Z B h g g a a p i u u y ",
"1 2 3 3 4 5 5 8 8 9 0 0 q     * * =     $.-.2.8.r.d.h.h.z.c.c.c.c.c.c.z.h.h.p.r.8.2.-.$.    _ ^ W L G G Z B v g g a a p i i u y ",
"1 2 3 3 4 5 5 8 9 9 0 0 q q   * *     } $.-.2.0.r.d.h.z.c.c.c.c.c.c.c.c.z.h.d.r.0.2.-.$.}     ^ W W L G Z B v h g a a p i i u y ",
"1 2 3 3 4 5 5 8 9 9 0 0 q q e   =     ..$.-.2.0.p.d.h.z.c.c.c.c.c.c.c.c.z.h.d.p.0.2.-.$...    ^ ^ W L G Z B v h g a a p i i u y ",
"1 2 3 3 4 5 5 8 9 9 0 0 q q e   =     ..$.-.2.0.p.d.h.z.c.c.c.c.c.c.c.c.z.h.d.p.0.2.-.$...    _ ^ W L G Z B v h g a a p i i u y ",
"1 2 2 3 4 5 5 8 9 9 0 0 q q e e &     } $.-.2.0.p.d.h.z.c.c.c.c.c.c.c.c.z.h.d.p.0.2.-.$...    ^ ^ W L G Z B v h g a a p i i u y ",
"1 2 3 3 4 5 5 8 8 9 0 0 q q e r 7     } $.-.2.0.r.d.h.z.c.c.c.c.c.c.c.c.z.h.d.r.0.2.-.$.}     ^ ^ W L G Z v h g g a a p i i u y ",
"1 2 2 3 4 5 5 8 8 9 0 0 q q q r w       ..&.<.8.r.p.d.h.z.c.c.c.c.c.c.z.h.d.p.r.8.<.&...    _ ^ W L L G B v h g g a a p i u u y ",
"1 2 2 3 4 4 5 8 8 9 9 0 0 q q e r 6     ..&.<.2.0.r.d.d.h.z.z.z.z.z.z.h.d.d.r.0.2.<.&...    _ ^ W L G Z B v h g g a p p i u u y ",
"1 1 2 3 4 4 5 8 8 9 9 0 0 q q e r e     } $.-.<.8.0.p.d.d.h.h.h.h.h.h.d.d.p.0.8.<.-.$.}     _ ^ W L G Z B v h g g a p p i u y y ",
"  1 2 3 4 4 5 5 8 9 9 0 0 q q e e r r     ..$.-.2.8.0.r.p.d.d.d.d.d.d.p.r.0.8.2.-.$...    _ ^ W W L G Z B v h g a a p p i u y   ",
"  1 2 3 3 4 5 5 8 8 9 0 0 q q q e r r     } ..&.-.2.8.0.r.r.p.p.p.p.r.r.0.8.2.-.&...}     _ ^ W L G G Z B v g g a a p i i u y   ",
"  1 2 2 3 4 4 5 8 8 9 9 0 0 q q e r r r     } ..&.-.<.2.8.0.0.0.0.0.0.8.2.<.-.&...}     _ ^ ^ W L G Z B v h g g a p p i u u y   ",
"  1 2 2 3 4 4 5 5 8 9 9 0 0 q q q e r r r     } ..&.-.<.<.2.2.8.8.2.2.<.<.-.&...}       ^ ^ W L G G Z B v h g a a p p i u u y   ",
"    1 2 3 3 4 5 5 8 8 9 9 0 0 q q q e r r       } ..$.&.-.-.<.<.<.<.-.-.&.$...}       Y ^ W L L G Z B v h g g a a p i i u y     ",
"    1 2 2 3 4 4 5 8 8 9 9 0 0 0 q q e e r r r       } ....$.$.&.&.$.$.....}         s ^ W W L G Z Z B v h g g a p p i u u y     ",
"    1 1 2 3 3 4 5 5 8 8 9 9 0 0 q q q e e r r r           } ........}           r t ^ W W L G G Z B v h g g a a p i i u y y     ",
"      1 2 3 3 4 4 5 5 8 9 9 9 0 0 q q q q e r r r r                         r r r U W W L G G Z B v h h g a a p p i i u y       ",
"      1 1 2 3 3 4 5 5 8 8 9 9 0 0 0 0 q q e e r r r r r                 r r r r   W W L G G Z B B v h g g a a p i i u y y       ",
"        1 2 2 3 4 4 5 5 8 8 9 9 0 0 0 q q q q e e r r r r r r r r r r r r r r   W L L G G Z B B v h g g a a p p i u u y         ",
"        1 1 2 3 3 4 4 5 5 8 8 9 9 0 0 0 q q q q q e e e r r r r r r r e e e     L L G G Z B B v h g g a a p p i i u y y         ",
"          1 2 2 3 3 4 4 5 5 8 8 9 9 9 0 0 0 q q q q q q e e e e e e e e q q   J G G Z Z B v v h g g a a p p i i u u y           ",
"            1 2 2 3 4 4 5 5 5 8 8 9 9 9 0 0 0 0 q q q q q q q q q q q q q   J D Z Z B B v v h g g a a a p p i u u y             ",
"            1 1 2 3 3 4 4 5 5 5 8 8 9 9 9 9 0 0 0 0 0 q q q q q q q q q     Z Z B B v v h h g g a a a p p i i u y y             ",
"              1 1 2 3 3 4 4 5 5 5 8 8 8 9 9 9 9 0 0 0 0 0 0 0 0 0 0 0 0   B B B v v h h g g g a a a p p i i u y y               ",
"                1 1 2 3 3 4 4 4 5 5 8 8 8 8 9 9 9 9 9 0 0 0 0 0 0 0 0     v v v h h g g g g a a p p p i i u y y                 ",
"                  1 1 2 3 3 3 4 4 5 5 5 8 8 8 8 9 9 9 9 9 9 9 9 9 9     h h h h g g g g a a a p p i i i u y y                   ",
"                    1 1 2 2 3 3 4 4 4 5 5 5 8 8 8 8 8 8 9 9 9 9 9       g g g g g g a a a p p p i i u u y y                     ",
"                      1 1 2 2 3 3 3 4 4 4 5 5 5 5 8 8 8 8 8 8 8 8     g g g g a a a a p p p i i i u u y y                       ",
"                        1 1 2 2 3 3 3 4 4 4 4 5 5 5 5 5 5 5 5 8     a a a a a a a p p p p i i i u u y y                         ",
"                            1 1 2 2 3 3 3 3 4 4 4 4 4 5 5 5 5       a a a p p p p p i i i i u u y y                             ",
"                              1 1 2 2 2 3 3 3 3 3 4 4 4 4 4 4     p p p p p p i i i i i u u u y y                               ",
"                                  1 1 2 2 2 2 3 3 3 3 3 3 4       i i i i i i i i u u u u y y                                   ",
"                                      1 1 1 2 2 2 2 2 3 3       i i i i i u u u u u y y y                                       ",
"                                            1 1 1 2 2 2         u u u u u u y y y y                                             ",
"                                                  1 1 1       y y y y y y y y                                                   "
};
