/* XPM */
static char *gparted_png_ico_1[] = {
/* columns rows colors chars-per-pixel */
"24 24 185 2 ",
"   c None",
".  c #010101",
"X  c #0C0D07",
"o  c #161600",
"O  c #161616",
"+  c #1E3A04",
"@  c #262600",
"#  c #243B01",
"$  c #333301",
"%  c #3B3B00",
"&  c #2A2B2A",
"*  c #4D0101",
"=  c #540000",
"-  c #5C0000",
";  c #520B0B",
":  c #640101",
">  c #6C0101",
",  c #650A0B",
"<  c #730303",
"1  c #780A0A",
"2  c #6C1A1A",
"3  c #752D2D",
"4  c #762121",
"5  c #623132",
"6  c #7B3636",
"7  c #024B01",
"8  c #024603",
"9  c #025300",
"0  c #005B00",
"q  c #0B5406",
"w  c #185C01",
"e  c #145914",
"r  c #2E4001",
"t  c #374401",
"y  c #046705",
"u  c #197519",
"i  c #286101",
"p  c #366504",
"a  c #237125",
"s  c #326B33",
"d  c #434300",
"f  c #4C4C00",
"g  c #414801",
"h  c #535301",
"j  c #5B5A00",
"k  c #4A4B3F",
"l  c #6C4032",
"z  c #75743D",
"x  c #540053",
"c  c #5C015B",
"v  c #5F095E",
"b  c #60005F",
"n  c #640063",
"m  c #6C006B",
"M  c #680067",
"N  c #70066F",
"B  c #740073",
"V  c #7A0079",
"C  c #7A0579",
"Z  c #671466",
"A  c #70236F",
"S  c #6C3E6C",
"D  c #783778",
"F  c #4F504F",
"G  c #474547",
"H  c #775351",
"J  c #447A41",
"K  c #577D57",
"L  c #606B49",
"P  c #70436F",
"I  c #7B577B",
"U  c #6B776B",
"Y  c #7F737F",
"T  c #6E7069",
"R  c #853737",
"E  c #9F6913",
"W  c #9E670A",
"Q  c #A36D01",
"!  c #AD7C01",
"~  c #A87500",
"^  c #9E6C25",
"/  c #894A4A",
"(  c #8B5252",
")  c #977070",
"_  c #837473",
"`  c #7D8A7C",
"'  c #B18300",
"]  c #B68A00",
"[  c #BC9708",
"{  c #AE8223",
"}  c #B38E2B",
"|  c #B89736",
" . c #BA9923",
".. c #C09B00",
"X. c #B19047",
"o. c #A0875C",
"O. c #808970",
"+. c #9B8773",
"@. c #AF9C7F",
"#. c #B09665",
"$. c #B7A576",
"%. c #C8AF49",
"&. c #C1AF6A",
"*. c #041F8B",
"=. c #05258F",
"-. c #012C92",
";. c #003496",
":. c #013C9A",
">. c #253C93",
",. c #00439D",
"<. c #0C409A",
"1. c #26499B",
"2. c #004BA2",
"3. c #0047A0",
"4. c #0052A5",
"5. c #0057A8",
"6. c #005CAA",
"7. c #0D59A8",
"8. c #1A59A5",
"9. c #3A5AA0",
"0. c #0063AE",
"q. c #0066B0",
"w. c #006CB3",
"e. c #0072B6",
"r. c #0578B9",
"t. c #1C79B7",
"y. c #3E6FAE",
"u. c #5E6182",
"i. c #616B9F",
"p. c #5578AD",
"a. c #810780",
"s. c #821682",
"d. c #8B328A",
"f. c #8E578E",
"g. c #964E95",
"h. c #887A88",
"j. c #917490",
"k. c #856A85",
"l. c #A073A0",
"z. c #7D8B9F",
"x. c #5A91BE",
"c. c #6F92B8",
"v. c #7B88AC",
"b. c #79AECC",
"n. c #898A89",
"m. c #80839E",
"M. c #9E9E9D",
"N. c #979695",
"B. c #A28585",
"V. c #A49999",
"C. c #9FA29F",
"Z. c #B3A98D",
"A. c #8288A3",
"S. c #AA8FAA",
"D. c #AA97A9",
"F. c #98A7B7",
"G. c #A3A5A5",
"H. c #AAAAAA",
"J. c #A6A7A9",
"K. c #B3ADA9",
"L. c #B1A6B1",
"P. c #B5B4B5",
"I. c #B8B9B7",
"U. c #BBBCBC",
"Y. c #B7B8B8",
"T. c #A9ACB4",
"R. c #C8BB8F",
"E. c #C3BB9F",
"W. c #C1BAAC",
"Q. c #C1BEBA",
"!. c #B3C2BE",
"~. c #C1C1BF",
"^. c #D2C9A6",
"/. c #ABB4C0",
"(. c #BFBFC0",
"). c #B7C6C5",
"_. c #C3C3C3",
"`. c #CECECE",
"'. c #CAC9C7",
"]. c #D1D0CB",
"[. c #D4D4D4",
"{. c #DBDBDB",
"}. c gray89",
"|. c #F3F3F3",
" X c #FEFEFE",
/* pixels */
"  [.[.          r.r.e.e.w.0.6.6.                ",
"[.{.{.      ^.b.r.e.w.q.0.6.5.4.c.'.            ",
"[.{.{.].  ..%.).t.q.0.6.5.4.2.8./._._.          ",
"  [.`.^.[ [ [ R.x.6.5.4.2.3.,.p._._.U.U.        ",
"  `.  &. .] ] | F.7.2.,.,.:.<.F.~.U.U.U.P.      ",
"  U.'.E.| ' ' ! $.y.:.:.;.-.9.U.U.U.U.L.g.a.    ",
"  U._.'.Z.} ! ~ { z.:.;.-.-.v.U.U.Y.S.d.V V V   ",
"  _.P._.H.W.X.Q Q o.1.=.*.>.T.I.P.l.s.V B B B   ",
"{.`.H.P.M.U.Q.#.W E u.=.*.i.I.L.g.C B B B m m M ",
" X X`.N.n.P.(.U.@.^ +.A.m.J.D.d.B B B m m M n n ",
" X X|.H.P.`.}.[._.K.M.C.C.M.f.B B m M M n n n c ",
" X X X`.{.[. X X|.Y.M.!.!.G.j.N M M n n b c c c ",
" X X X{.U._.}.{.[.H.G.).).G.h.S D D A Z v c x x ",
"[.`._.U.J.J.H.B./ ( N.J.J.N.k X & G T Y h.k.I P ",
"P.P.P.P.V.) R 1 > > / ` O.z h @ . . . O & F T n.",
"P.K.B./ R 4 2 > : : l u p j j h @ . . . . . . O ",
"  R 1 < < 6 4 : : , L y i j h h f $ X . . . .   ",
"  < > > : 3 3 : - 3 J y w h f f f f % o . . .   ",
"    : : : : , - - H a 0 w f f d d d d % o .     ",
"      : - - - = 2 U y 0 q g d d % % % $ $       ",
"        - = = = H K 0 9 9 t % % % $ $ $         ",
"          = * ; _ s 9 9 7 r % $ $ $ $           ",
"            * 5 ` e 7 7 7 # $ $ $ $             ",
"                U q 7 7 8 + $ $                 "
};
