/* XPM */
static char *hardinfo2_png_ico_2[] = {
/* columns rows colors chars-per-pixel */
"32 32 185 2 ",
"   c None",
".  c #1D1D1C",
"X  c #1F1F21",
"o  c #222224",
"O  c #29292F",
"+  c #24242B",
"@  c #2E2E37",
"#  c #323233",
"$  c #31313A",
"%  c #1E1E4E",
"&  c #2F2E4E",
"*  c #272747",
"=  c #323243",
"-  c #3A3A43",
";  c #33335C",
":  c #363556",
">  c #262559",
",  c #14147D",
"<  c #151476",
"1  c #131369",
"2  c #232369",
"3  c #2D2C6A",
"4  c #212064",
"5  c #3B3A63",
"6  c #36366B",
"7  c #222172",
"8  c #2D2B73",
"9  c #23237C",
"0  c #28267C",
"q  c #2A2A7C",
"w  c #302F76",
"e  c #2E347E",
"r  c #353573",
"t  c #393B71",
"y  c #333978",
"u  c #414141",
"i  c #46464F",
"p  c #4B4B4A",
"a  c #4D4D56",
"s  c #565656",
"d  c #49714F",
"f  c #406F56",
"g  c #457550",
"h  c #48486E",
"j  c #4B526C",
"k  c #494B76",
"l  c #504774",
"z  c #5F5F7A",
"x  c #6F5F6C",
"c  c #675975",
"v  c #6F606D",
"b  c #7F6C6C",
"n  c #706172",
"m  c #8F7959",
"M  c #927F59",
"N  c #826F6C",
"B  c #82726D",
"V  c #5F844D",
"C  c #5D8455",
"Z  c #66874C",
"A  c #988255",
"S  c #A68D4B",
"D  c #A88F4B",
"F  c #D7B442",
"G  c #D8B644",
"H  c #CEB158",
"J  c #0C0D8B",
"K  c #0B0D87",
"L  c #0F1F85",
"P  c #131284",
"I  c #1C1C84",
"U  c #13148C",
"Y  c #18168E",
"T  c #1C1C8C",
"R  c #181887",
"E  c #0C0D92",
"W  c #110F95",
"Q  c #151595",
"!  c #1D1C93",
"~  c #1C1B9C",
"^  c #171A93",
"/  c #211F83",
"(  c #211F99",
")  c #182588",
"_  c #242383",
"`  c #2E2D81",
"'  c #25258C",
"]  c #2C2B8B",
"[  c #282487",
"{  c #322F8D",
"}  c #353184",
"|  c #333289",
" . c #3A368E",
".. c #232294",
"X. c #2E2A97",
"o. c #25249C",
"O. c #29269B",
"+. c #2B2A9B",
"@. c #312D94",
"#. c #332E9C",
"$. c #3B3B97",
"%. c #34339B",
"&. c #3A3A9B",
"*. c #393595",
"=. c #1E1CA3",
"-. c #221EA3",
";. c #251FA9",
":. c #2423A3",
">. c #2A25A6",
",. c #2B2BA2",
"<. c #2422AB",
"1. c #2925A9",
"2. c #2E29AF",
"3. c #262AA0",
"4. c #302FA2",
"5. c #312FAA",
"6. c #3331A4",
"7. c #3935A3",
"8. c #3C3BA3",
"9. c #2A27B1",
"0. c #2B27B1",
"q. c #3C2CB2",
"w. c #312EB2",
"e. c #3633B2",
"r. c #3935B1",
"t. c #433E97",
"y. c #443B89",
"u. c #4A33B7",
"i. c #523EB8",
"p. c #432BB4",
"a. c #244A87",
"s. c #365686",
"d. c #474085",
"f. c #48489C",
"g. c #544B94",
"h. c #514791",
"j. c #54529A",
"k. c #564C83",
"l. c #6D6D82",
"z. c #67669A",
"x. c #6A699C",
"c. c #797884",
"v. c #4949A5",
"b. c #5744AF",
"n. c #5452AB",
"m. c #5A48BB",
"M. c #6F53AB",
"N. c #6147BE",
"B. c #6A5BB3",
"V. c #6665AB",
"C. c #6A6AAC",
"Z. c #6564A8",
"A. c #6E67B6",
"S. c #7360B6",
"D. c #7575B7",
"F. c #6A50C2",
"G. c #7156C5",
"H. c #7E7DC0",
"J. c #926DAB",
"K. c #807FBC",
"L. c #957DBA",
"P. c #85858E",
"I. c #8C8C91",
"U. c #929295",
"Y. c #9393AF",
"T. c #8B8ABA",
"R. c #8585B4",
"E. c #9D9DB4",
"W. c #9B9BBA",
"Q. c #A09FBD",
"!. c #ADADA9",
"~. c #A3A3BB",
"^. c #ABAABE",
"/. c #B7B7BE",
"(. c #B9B9BF",
"). c #A8A8C2",
"_. c #B4B4C4",
"`. c #BBBBC3",
"'. c #B4B4C8",
"]. c #C3C3C5",
"[. c #C6C6C9",
"{. c #CCCCCB",
"}. c #C8C8C7",
"|. c #D1D1CF",
" X c #D2D2D1",
/* pixels */
"                                                                ",
"                                                                ",
"                                                                ",
"      ].                                                        ",
"      `.~.B.<.1.<.9.0.S.b.S.m.M.2.2.0.<.w.e.e.e.r.2.o.O.-.0 _ -.",
"      `.).T.K.K.D.e.2.L.M.L.B.J.>.o.<.=.j.x.z.z.x.t.-.X.0 U.c.I ",
"      }. X|. X{._.r.1.*.O.O.O.*.{ & 7.j.+ X o # # = n.#.9 P.l.R ",
"      [.}.}.].].).7.#.r 5 ` 5 r | = 8.x.o . u p s a V.1.=.R ' 1.",
"      ].`././.`.Q.7.#.5 i w i 5 | = 8.x.o . # u p - V.O.! r w ~ ",
"      `.~.Q.W.W.T.5.;.( O.:.......7 6.x.o # a p o $ V.+.8 !.I., ",
"      [.{.{.}.{.'.7.t.h.g.g.h.*.0 > 5.x.$ s s p . $ C.@./ z k Y ",
"      ].].}.}.{._.6.c D S S S c / 2 1.$.= - - - $ & 8.:.=.P U :.",
"      ]././.`.`.~.+.y.N B b N k.=.=.:.=.v.V.Z.V.C.8.-.X.I j h U ",
"      `.~.W.W.W.T.X.~ =.:.4.4.,.o.` ; 5 ] [ { #. .s.a.3.8 !.U.< ",
"      [.{. X{.{._.,./ 4 _ = = = 7 } @ = &. .} ! k Z Z j U t r U ",
"      ].}.{.{.}.^.%.0 * _ ; : : 9 O.e | +.q q T e f f e ^ _ _ Q ",
"      ].`.`.`./.E.d.] | *.&.+.O.~ I 9 _ [ _ ..T a.a.) :.@.m M @.",
"      `.W.W.W.W.R.@.2 O O O 3 } _ 0 ^ ~ 6.O.Y j C V t 7 | A A X.",
"      ].{.{.}.{._.o.T r t r _ [ 9 _ _ ` ,...P t g d r * 0 l l ! ",
"      ].}.}.}.].^.+.;.m.q.m.q.i.q.i.8 3 Q , 1 Q ) L U 2 I % % J ",
"      ].`.].`.(.E.,.;.G.p.G.u.F.u.N.+.f.&.%.Q 8.H.D.D.C...I ) U ",
"      `.Y.Z.&.&.%.Q Q W W Q ^ Q E E O.v.8.%.Q C.{.[.].`.f.R I U ",
"      `.Y.f.J E E E E E E E E E E E E E J J J T $.$.$.*.U J J K ",
"              c n n n n n n v v v x v v c                       ",
"              H G G G G G F G G F G G G                         ",
"                                                                ",
"                                                                ",
"                                                                ",
"                                                                ",
"                                                                ",
"                                                                ",
"                                                                "
};
