/* XPM */
static char *hardinfo2_png_ico_5[] = {
/* columns rows colors chars-per-pixel */
"72 72 238 2 ",
"   c None",
".  c #171716",
"X  c #181816",
"o  c #1B1A1B",
"O  c #1B1B28",
"+  c #181839",
"@  c #242424",
"#  c #2B2B2C",
"$  c #23232C",
"%  c #2C2C33",
"&  c #272738",
"*  c #343435",
"=  c #3B3B3C",
"-  c #36363B",
";  c #32322F",
":  c #40403E",
">  c #191846",
",  c #17175A",
"<  c #2C2B49",
"1  c #36364A",
"2  c #29295A",
"3  c #37375C",
"4  c #302F47",
"5  c #151568",
"6  c #171778",
"7  c #201F6B",
"8  c #182C7B",
"9  c #343364",
"0  c #383868",
"q  c #24237C",
"w  c #282777",
"e  c #362D75",
"r  c #36357B",
"t  c #2C3369",
"y  c #201F4B",
"u  c #4F3E5C",
"i  c #443D7C",
"p  c #1D6357",
"a  c #2A744C",
"s  c #1A4674",
"d  c #384E73",
"f  c #3A6D6E",
"g  c #3A465E",
"h  c #454544",
"j  c #4D4D4B",
"k  c #444447",
"l  c #484853",
"z  c #565656",
"x  c #51514F",
"c  c #6E6459",
"v  c #554A6C",
"b  c #584979",
"n  c #4F466E",
"m  c #66546D",
"M  c #656564",
"N  c #686868",
"B  c #786664",
"V  c #767176",
"C  c #587248",
"Z  c #887137",
"A  c #B73E68",
"S  c #89746D",
"D  c #C54161",
"F  c #5A8D3A",
"G  c #278348",
"H  c #389764",
"J  c #3CA664",
"K  c #49934B",
"L  c #48A871",
"P  c #B79B3E",
"I  c #86B22E",
"U  c #BEA33C",
"Y  c #A8931E",
"T  c #C7A836",
"R  c #D3AF3D",
"E  c #D5B03E",
"W  c #C5BC0D",
"Q  c #D7D505",
"!  c #958A4D",
"~  c #A58B48",
"^  c #AF964D",
"/  c #BEA34F",
"(  c #BFA453",
")  c #BDA55A",
"_  c #988770",
"`  c #A89371",
"'  c #BAA56D",
"]  c #C4A94B",
"[  c #C2A74A",
"{  c #DEBA43",
"}  c #D1B14D",
"|  c #C0A45A",
" . c #C0A555",
".. c #D9B950",
"X. c #E0BC43",
"o. c #C0A661",
"O. c #95C639",
"+. c #0C0D8D",
"@. c #0C0D84",
"#. c #0F108D",
"$. c #14148D",
"%. c #1C1B8B",
"&. c #181885",
"*. c #0D0E92",
"=. c #130E97",
"-. c #0F1094",
";. c #121294",
":. c #1B1B93",
">. c #14149B",
",. c #18169D",
"<. c #1C1B9B",
"1. c #161894",
"2. c #201D8A",
"3. c #211F98",
"4. c #182589",
"5. c #1B2693",
"6. c #252484",
"7. c #2C2C83",
"8. c #24248C",
"9. c #2B288A",
"0. c #2D358B",
"q. c #393384",
"w. c #3A348A",
"e. c #393686",
"r. c #232293",
"t. c #24239C",
"y. c #2C2A9C",
"u. c #2A2896",
"i. c #34349C",
"p. c #393598",
"a. c #332F90",
"s. c #1715A1",
"d. c #1917A2",
"f. c #1C1AA4",
"g. c #1E1BAA",
"h. c #1917A8",
"j. c #1D0EA0",
"k. c #230DA9",
"l. c #211EA5",
"z. c #211EAC",
"x. c #2611A9",
"c. c #3819B7",
"v. c #2B16B2",
"b. c #2524A3",
"n. c #2A26A3",
"m. c #2C2BA4",
"M. c #2522AD",
"N. c #2C2AAC",
"B. c #2828A9",
"V. c #312EA9",
"C. c #3534A2",
"Z. c #3B3AA5",
"A. c #3D3BAB",
"S. c #3735A8",
"D. c #2926B2",
"F. c #3428B6",
"G. c #3835B5",
"H. c #2F30AA",
"J. c #443A85",
"K. c #403D95",
"L. c #693D9A",
"P. c #451CBC",
"I. c #413EAB",
"U. c #442FBB",
"Y. c #2B4C8B",
"T. c #3A7284",
"R. c #4D4A86",
"E. c #574B86",
"W. c #5A5984",
"Q. c #4C4A97",
"!. c #5D5D97",
"~. c #6E4C93",
"^. c #666697",
"/. c #767697",
"(. c #69698E",
"). c #4443AC",
"_. c #4D4CAC",
"`. c #4747A5",
"'. c #5A5AA7",
"]. c #4847B2",
"[. c #5A59B5",
"{. c #504EB0",
"}. c #605FA8",
"|. c #6767A7",
" X c #7675A5",
".X c #7B7BA6",
"XX c #7A79A9",
"oX c #6563B2",
"OX c #7877BB",
"+X c #716FB4",
"@X c #407D81",
"#X c #532FC6",
"$X c #6435CA",
"%X c #6E3ED0",
"&X c #754AD2",
"*X c #7D7BC1",
"=X c #2524C0",
"-X c #854690",
";X c #8C66D5",
":X c #8A8A88",
">X c #94949C",
",X c #8282A7",
"<X c #8B8ABA",
"1X c #8585B9",
"2X c #9593BD",
"3X c #9696B5",
"4X c #908FBD",
"5X c #B4B4BC",
"6X c #BDBDBE",
"7X c #B6B6B4",
"8X c #ACACB5",
"9X c #FFB8B2",
"0X c #C1C1BF",
"qX c #FEC2BC",
"wX c #8887C4",
"eX c #9B9AC3",
"rX c #9897C2",
"tX c #958FCF",
"yX c #A98ED3",
"uX c #AAA9C6",
"iX c #BCBCC3",
"pX c #B3B3CA",
"aX c #B4B4C3",
"sX c #B0A4CF",
"dX c #CDB0CA",
"fX c #CCB9E4",
"gX c #C4C4C4",
"hX c #C6C6C9",
"jX c #CBCBCB",
"kX c #C8C8C7",
"lX c #D1D1CF",
"zX c #CCCCD5",
"xX c #D3D3D2",
"cX c #DCDCDA",
"vX c #D9D9D7",
"bX c #DAD6E4",
"nX c #E5E5E6",
"mX c #EED7D9",
/* pixels */
"                                                                                                                                                ",
"                                                                                                                                                ",
"                                                                                                                                                ",
"                                                                                                                                                ",
"                                                                                                                                                ",
"                                                                                                                                                ",
"                                                                                                                                                ",
"vXvXvXxXjXjXjXjXgX                                                                                                                              ",
"              jXaX                                                                                                                              ",
"              hXiX3X3X3X{.z.M.M.M.M.M.M.M.M.M.M.M.M.F.M.M.M.N.M.M.D.N.M.M.M.M.M.M.M.M.M.M.M.z.z.z.z.z.z.z.z.z.z.z.z.z.b.y.y.b.z.z.z.z.l.z.z.z.z.",
"              hXkXgX7X7XOXz.B.m.m.m.B.z.z.M.M.z.D.wXdX~.D.wXdXL.D.tXsXL.z.G.G.z.I.N.z.z.z.z.V.B.N.M.N.M.V.M.N.B.N.z.g.t.7.7.y.g.g.2.> > 5 <.g.g.",
"              jXaX+X+X+XG.M.B.B.B.N.B.M.z.G.G.z.G.bXqXD ].nXqXA ].nX9XA M.G.N.z.G.B.z.z.z.V.eX[.rX[.rX{.rX[.rX[.rXN.g.l.9.9.r.g.2.& M V : > f.f.",
"              jXiXeXeXrX2X2XrXrX2X2XrXrXG.N.N.z.D.tXdX-XN.sXdX~.N.sXdXL.M.g.z.z.g.z.z.g.g.m.uXoXuX}.uX[.uXoXuXoXuXn.g.f.g.z.z.g.> N jXxX7X% &.g.",
"              hXjXcXcXvXlXxXvXxXjXjXlXjX).D.N.M.z.V.I.M.z.N.G.M.z.N.I.n.z.y.7 7 9.z.g.g.&.+ - & - & - & - & - & - > <.g.l.m b f.> :XcXcXvX= 6 g.",
"              hXhXvXvXxXlXvXvXxXjXjXjXgXI.F.I.z.b.B b g.u.9.9.9.t.M.B b g.Q.# @ R.M.).*X!.o o o o o o X . o o o . o ^.*XA.J.a.g., j jXnX>XO :.g.",
"              hXhXxXxXjXjXjXxXjXjXjXjXiXI.g.M.M.z.n.n.l.t.t.t.t.b.z.y.b.z.Q.# @ R.M.].tX(.o o o o o o @ = j x j * O /.wX).h.f.f.:.> * h O 5 f.g.",
"              hXhXjXjXhXgXgXgX6X6XgXgX5XA.g.E.C.z.r 3 3 3 r l.0 3 3 3 9.g.Q.# @ R.M.].wX(.o o o o o * z M M M N M # ^.wXA.f.N.B.f.<.6 5 %.n.b.f.",
"              hXhXjXjXkXhXgX0X0XgXgXhXiXA.g.E.i.z.0 h x h 9 t.1 h j h e g.Q.# @ R.M.].wX(.o o o o * M M h # x N M # ^.1XA.d.V.B.f.f.g.g.M.{.).f.",
"              hXhXjXjXjXjXhXhXjXjXjXjXiXI.g.E.i.g.3 j x j 9 t.1 j x h w g.Q.# @ R.M.].wX(.o o o o * = = o # z N h O /.wXI.d.g.f.f.<.6 6 $.l.l.d.",
"              hXhXgXgXgX0X0XgXgXgXgXgX5XZ.g.p.n.g.0 h j h 0 t.1 h j h r g.Q.# @ R.M.).wX(.o o o o o o @ = z M j @ o ^.1XA.u.r f.1.y * = O 5 d.d.",
"              jX5XXXXX X X X X X X X X Xm.B.N.z.g.7.0 9 9 7.f.r 9 9 0 u.g.w.& $ e.g.{.rX/.o o o o o * z M z = o o o /.rX).3.a.f., h 8XgX:XO $.s.",
"              jXaX2XrXrXrX2X2X2X2X2XrX<XS.B.V.z.g.g.g.g.N.D.B.f.f.f.f.f.f.d.:.:.<.f.).OXW.o o o # x M M h @ o o o o ^.OXA.s.f.d.> :XvXvXxX- 5 s.",
"              hXjXvXcXcXvXvXxXlXlXxXvXzXI.f.y.l.f.d.g.f.G.D.N.d.f.d.d.f.l.q , q l.s.{.eX/.o o = M M M j = = # o o o /.eX).J.c r.> V nXnXjX% 6 s.",
"              hXhXxXxXjXjXjXhXhXhXjXjXhXZ.f.E.i.S.{.l.I.).l.].A.b.{.C.f.B.0 X 4 m.s.A.OXW.o h M N M M M N M # o o o !.+XS.u.J.<.6 $ V >Xj > ,.s.",
"              hXgXjXjXjXhXhXgXgXhXjXjXgXA.f.E.p._ ) m ` ^ b ) _ m | S f.B.0 X 4 m.s.{.uX/.@ h h h h h h h = o o o o ,XuX].s.f.d.,.6 > + , 1.s.,.",
"              hXgXgXjXjXkXhXjXjXjXjXjXgXA.f.E.K.~ T B P P B T ^ B T ! 3.M.9 X 4 n.s.S.[.R.o . X . X . X . X . X . o R.[.m.s.A.n.,.,.,.,.s.n.A.d.",
"              hXgX6XjXjXjXjXjXxXxXjXjXgXZ.d.y.u.~ T B ^ U B T ^ B T ! <.d.2.5 &.g.n.d.s.&.> l 4 l 4 l 4 l 4 l 4 l > &.>.,.s.B.l.,.,.,.1.,.f.b.,.",
"              hXgXgXjXjXhXjXjXjXjXjXjXiXZ.<.<.t.~ T B P U B T ~ B T ! <.d.d.d.d.b.].l.s.s.m.pXoXpX[.pX[.pXoXpXoXpXb.,.n.n.w.u.s.,.6 > + > $.>.>.",
"              hXgXgXgX0X6X0X0X0X0XgXgX5XZ.r.8.<.V ` J._ _ J.` S R.` V <.B.n.s.s.s.f.s.s.s.n.1X_.1X_.1X).1X_.1X{.1Xl.,.S.C.R.a.,.6 % V :Xj + ;.,.",
"              jX5X.XXXXX X X XXXXXXXXX Xm.r.8.s.b.N.f.B.B.d.B.b.d.N.l.s.n.n.3.6.<.K.Q.Q.y.<.u.8.8.8.3.w.t.f.t.b w.>.,.,.,.,.b.<.> V jXxX6X% 6 ,.",
"              jXaX2XrX2X<X<X<X<X<X4X2X<Xm.r.8.,.,.s.s.s.s.d.s.s.s.,.,.d.,.,.9.9 R.% * * l i.6.7.w 7.3.b y.).t.v i Y.@XT.5.,.{.m.+ :XnXnXvX- 5 >.",
"              hXhXvXcXcXvXxXjXjXxXvXvXzXA.3.8.,.,.,.,.s.b.'.}.}.'.'.'.|.`.,.8.9 W.o o @ l Z.8.8.6.9.r.b u.f.,.,.T.L H J H 5.S.b., h gXcX:XO $.>.",
"              hXhXjXxXxXlXjXjXjXhXjXjXgXZ.,.<.b.2 + w g.6 % % % % % # # < 1.9.9 W.X . @ l `.S.I.K.b u.9.:.,.,.v O.F q C I C 1.>.;.> $ * O 5 >.>.",
"              hXgXhXjXjXjXjXjXjXjXhXkXiXZ.s.,.m.4 X 0 b.5 o o o o o o X O ;.r.7.w.% * - 3 C.C.Q.J.R.a.r 7.,.>.Z Q Y 2.Z Q Y %.>.,.1.6 6 $.,.;.>.",
"              hXgXhXhXjXjXjXjXjXjXjXhX5XC.,.,.m.4 X 0 b.6 @ @ @ @ @ @ @ & ;.b.).8.Q.Q.Q.i.l.m.u.< w < 6.5.%.%.7.K K d K K 0 ,.>.%.q :.$.6.%.;.>.",
"              hXhXjXxXxXjXjXjXjXjXkXhX5XC.q.i n.< O 9 f.t.!.^.^.^.^.^.^.Q.,.,.f.w 6.w 6.A.C.n.3.6 8.7.1.1.%.%.,.s a G a s ;.>.>.:.%.%.2.8.%.;.;.",
"              hXhXjXlXjXjXjXjXjXkXhXgX5XC.i v ,.$.&.$.>.,.d.d.d.<.d.d.f.<.,.,.6 2.6 8.6 %.6.q q 6.8.).<.%.q >.>.;.4.8 4.;.n._.b.t.B ~ ~ ~ S t.;.",
"              hXgXgXgXgXgXgX0X0X0X0X6X7Xi.i n <.`.{._._._._._.`.<.r.9.,.>.>.<.2 6.2 q 2 q %.q q q 6.<.%.q ,.0.T.f Y.;.>.;.<.m.<.C.` T T T ' C.*.",
"              jX5X.X.X.XXXXXXXXXXXXX.X Xt.i v $.1 k k k k k k 1 &.i v ,.,.:.:.2.:.$.1.$.1.y.`.i.:.:.;.1.;.Y.L H H H s ;.;.<.<.;.;.n B B B b 1.;.",
"              jX5X1X1X1X1X<X<X<X<X<X<X1Xy.8.9.&.O X X X X X X o 6 i v >.&.2 2 3 w >.>.>.b.A.b.S.m.$.q ,.6.! I g t F I e :.9 3 6.t._ P ^ P S u.*.",
"              hXhXxXvXxXxXvXvXvXvXvXcXzXZ.>.>.&.O o o o o o o O 6 i v 1.8.7.7.7.:.>.>.>.m.S.*.m.S.$.q >.e W Q l e W Q u u.# @ r m.` T T T ` i.*.",
"              hXhXjXlXjXjXkXjXjXjXjXlXhXp.>.>.:.R.W.W.W.W.W.m b :.q.n $.2 2 2 2 ;.8.e.e.r.A.).Z.<.;.&.;.;.f K f f K a %.a.# @ r ;.9.r r r 6.;.-.",
"              hXgXjXjXjXhXgXgXgXhXjXjXiXi.,.<.,.b.b.b.b.n.y.n.t.>.;.1.;.:.:.:.:.<.0 * - e.<.t.<.$.5 5 #.*.4.p G G p 4.;.a.# @ r ;.$.9.a.a.$.*.-.",
"              hXgXhXjXhXhXhXhXgX0X0XgX5Xi.t.n.,.s.F.c.=.,.c.c.,.>.v.c.k.;.z.F.x.<.g * * e.;.;.>.5 O O 6 -.*.$.8 8 $.;.-.8.- % r -.5 @ $ @ , *.*.",
"              hXgXhXjXjXjXjXjXjXgX6X6X5Xi.>.<.>.#XyX;Xc.F.tXyXP.v.;XsX$Xk.&XsX;Xk.7.0 0 8.;.;.-.$.6 6 $.*.<.D.D.1.*.*.*.;.8.9.$.*., o o o , *.*.",
"              hXhXjXxXxXxXxXjXjXhXgXgXiXi.b.N.>.$XbXfXP.P.fXbX$Xv.yXnX;Xk.;XnX;Xk.;.<.t.;.*.1.1.-.t.,.*.*.:.N.H.r.:.:.:.:.:.1.*.*.&.r r r &.+.+.",
"              hXhXkXjXkXkXgXgXgXgXgXgX5Xi.h.D.;.x.%X$Xj.j.$X%Xx.=.#X&Xc.=.c.&XP.=.;.!./.p.:.^./.t.C.<.*.1.OXpXpXpXpXpXpXpXpX2Xp.*.+.1.1.1.1.#.+.",
"              jX5X,X,X,X.X.X.X,X,X,X.X/.u.<.b.;.;.=.=.;.;.=.>.1.1.1.=.;.*.*.=.*.*.1.eXnX{.t.hXzXC.*.<.-.`.vXnXnXcXcXcXvXvXxXxX<X$.$.4.4.4.4.$.+.",
"              jX5X|.|.|.u.;.;.;.;.;.;.;.-.-.-.-.;.-.;.;.;.;.5.5.5.5.1.*.-.*.*.*.*.*.y.`.1.*.C.A.-.*.Z.1.Q.jXxXxXlXjXjXkXhXgXgXXX9.%.6 q q q 6 +.",
"              hXkXgX7X7X+X*.*.;.;.;.-.-.;.;.;.*.;.;.*.*.*.-.;.;.;.;.;.*.*.+.*.*.*.*.*.+.*.*.*.*.*.+.$.+.;.|.3X3X3X3X3X3X3X3XXXu.+.+.#.$.$.#.+.+.",
"              hXiX3X3X3X`.*.*.*.;.;.;.;.*.-.-.-.-.*.*.*.*.*.*.*.*.*.*.*.+.*.*.*.*.*.*.*.+.+.*.+.+.+.+.+.+.+.$.$.$.$.$.$.$.$.#.+.+.+.+.+.+.+.+.+.",
"              jX5X            @.+.*.*.*.*.*.*.*.*.*.*.*.*.*.*.*.*.*.*.*.*.*.+.*.*.+.+.*.+.+.@.                                                  ",
"              jXhX              w.w.w.w.w.w.w.w.w.w.w.w.w.e.e.e.e.q.q.q.q.q.q.q.q.q.q.q.q.q.                                                    ",
"              jXhX              ' o.| | | | | | | | ) ) ( (  . .( ( ( ( ( ( ( / / / / / / (                                                     ",
"              jXhX              ' } E E R R R R E E R R R R E E E R R R E E R R R R E E R [                                                     ",
"              jXhX              ' ..X.X.{ { { { X.X.{ { { { X.X.{ { { { X.X.{ { { { { X.X.]                                                     ",
"              jXhX                 .] ] ] ] ] ] ] ] [ [ [ [ ] ] ] [ [ [ ] ] ] [ [ [ ] ] ] ^                                                     ",
"              jXhX                                                                                                                              ",
"              jXhX                                                                                                                              ",
"              jXhX                                                                                                                              ",
"              jXhX                                                                                                                              ",
"              jXhX                                                                                                                              ",
"              jXhX                                                                                                                              ",
"              jX                                                                                                                                ",
"                                                                                                                                                ",
"                                                                                                                                                ",
"                                                                                                                                                ",
"                                                                                                                                                ",
"                                                                                                                                                ",
"                                                                                                                                                ",
"                                                                                                                                                ",
"                                                                                                                                                "
};
