/* XPM */
static char *hex_terminal_BC_png_ico_1[] = {
/* columns rows colors chars-per-pixel */
"24 24 42 1 ",
"  c gray9",
". c #1B1B1B",
"X c gray11",
"o c #1F2020",
"O c gray13",
"+ c #232323",
"@ c #272727",
"# c gray17",
"$ c #2D2D2D",
"% c #323232",
"& c #343434",
"* c #3A3A3A",
"= c #3C3C3C",
"- c gray26",
"; c gray27",
": c #484848",
"> c #4E4E4F",
", c #535353",
"< c gray33",
"1 c #5B5B5B",
"2 c gray36",
"3 c #666560",
"4 c #686762",
"5 c #696863",
"6 c #6D6B67",
"7 c #6F6E69",
"8 c #73726E",
"9 c #767571",
"0 c #787773",
"q c #7A7973",
"w c #7A7975",
"e c #7C7B77",
"r c #85837E",
"t c #848380",
"y c #858480",
"u c #918F86",
"i c #C8C8C7",
"p c #C9C8C8",
"a c #D8D7D3",
"s c #E6E4DE",
"d c #F1F0EC",
"f c white",
/* pixels */
"sdddddddddddddddddddddds",
"dffffffffffffffffffffffd",
"appppppiippppppiipippipa",
"y,<,,,<,,,,,,,,,,,,,,,,t",
"e>,,,,,,>,,,,,,>>,,,,,>e",
"w::::::::::::::;::::::;w",
"0-;;;;;--;;;;;;--;;;;;-0",
"9=======*======*======*9",
"8&&****&&******&&*&&&&&8",
"8%%%%%%$$%%%%%%$$%%%%%$8",
"7#######@######@@######7",
"6O@@@@@OO@@@O@@OO@@@@@O6",
"5.XXXXX..XXX... .XXX...5",
"3       #******#       3",
"4.......*>>>>>>*.......4",
"4.XXXXX.=>>>>>>*.......4",
"4XXXXXXX=,,,,,,=XXXXXXX4",
"4oOOOOOO-<,,,,<-OOOOOOo4",
"4O@@@@@@;<<<<<<;@@@@@@O4",
"4@#####@;111111;@#####@4",
"4@$$$$$#:211112:#$$$$$@4",
"5#$$$$$$>222222>$$$$$$#5",
"5@$$$$$#:211112:#$$$$$@5",
"u4444454qrrrrrrq4544444u"
};
