/* XPM */
static char *hex_terminal_BL_png_ico_4[] = {
/* columns rows colors chars-per-pixel */
"64 64 236 2 ",
"   c None",
".  c #070707",
"X  c #090909",
"o  c #0C0C0C",
"O  c gray5",
"+  c #0E0E0E",
"@  c #0F1010",
"#  c #101010",
"$  c #111111",
"%  c gray7",
"&  c #131313",
"*  c gray8",
"=  c #151515",
"-  c #161616",
";  c gray9",
":  c #171718",
">  c #181818",
",  c #191919",
"<  c #191A1A",
"1  c gray10",
"2  c #1A1B1B",
"3  c #1B1B1B",
"4  c #1B1B1C",
"5  c gray11",
"6  c #1C1C1D",
"7  c #1D1D1D",
"8  c #1D1E1E",
"9  c #1E1E1E",
"0  c gray12",
"q  c #1F1F20",
"w  c #202020",
"e  c #202021",
"r  c gray13",
"t  c #212222",
"y  c #222222",
"u  c #232323",
"i  c gray14",
"p  c #252525",
"a  c gray15",
"s  c #262627",
"d  c #272727",
"f  c #272728",
"g  c #282828",
"h  c #282829",
"j  c gray16",
"k  c #2A2A2A",
"l  c gray17",
"z  c #2C2C2C",
"x  c #2D2D2D",
"c  c gray18",
"v  c #2F2F2F",
"b  c gray19",
"n  c #313131",
"m  c #323232",
"M  c gray20",
"N  c #343434",
"B  c #353535",
"V  c gray21",
"C  c #373737",
"Z  c gray22",
"A  c #393939",
"S  c #39393A",
"D  c #3A3A3A",
"F  c gray23",
"G  c #3C3C3C",
"H  c #3C3D3D",
"J  c gray24",
"K  c #3E3E3E",
"L  c #3F3F3F",
"P  c gray25",
"I  c #414141",
"U  c gray26",
"Y  c #434343",
"T  c #444444",
"R  c gray27",
"E  c #464646",
"W  c gray28",
"Q  c #484848",
"!  c #494949",
"~  c gray29",
"^  c #4B4B4B",
"/  c #4B4B4C",
"(  c #4C4C4C",
")  c gray30",
"_  c #4D4D4E",
"`  c #4E4E4E",
"'  c gray31",
"]  c #52514D",
"[  c #505050",
"{  c #505051",
"}  c #515151",
"|  c #515252",
" . c gray32",
".. c #525253",
"X. c #535353",
"o. c #575652",
"O. c #535354",
"+. c #535454",
"@. c gray33",
"#. c #555555",
"$. c #565656",
"%. c gray34",
"&. c #585752",
"*. c #595753",
"=. c #595854",
"-. c #585855",
";. c #5A5854",
":. c #5A5954",
">. c #5A5955",
",. c #5B5955",
"<. c #5A5957",
"1. c #5B5A56",
"2. c #5A5A57",
"3. c #5C5A57",
"4. c #5C5B57",
"5. c #585858",
"6. c gray35",
"7. c #5A5A5A",
"8. c #5B5B5B",
"9. c #5C5B58",
"0. c #5D5C58",
"q. c #5D5C59",
"w. c #5E5D5A",
"e. c #5F5E5B",
"r. c gray36",
"t. c #5D5D5D",
"y. c #5F5E5C",
"u. c gray37",
"i. c #615F5A",
"p. c #605F5C",
"a. c #605F5D",
"s. c #62605B",
"d. c #60605D",
"f. c #61605E",
"g. c #61615E",
"h. c #62615F",
"j. c #636260",
"k. c #636361",
"l. c #646361",
"z. c #646462",
"x. c #656462",
"c. c #656563",
"v. c #666564",
"b. c #666664",
"n. c #676665",
"m. c #676765",
"M. c #676766",
"N. c #686766",
"B. c #686867",
"V. c #6B6A67",
"C. c #787672",
"Z. c #787773",
"A. c #797773",
"S. c #797874",
"D. c #7A7874",
"F. c #7A7975",
"G. c #7B7976",
"H. c #7B7A76",
"J. c #7B7A77",
"K. c #7C7A77",
"L. c #7C7B77",
"P. c #7E7C77",
"I. c #7C7B78",
"U. c #7C7C79",
"Y. c #7D7C79",
"T. c #7E7D78",
"R. c #7C7C7B",
"E. c #7E7D7A",
"W. c #878786",
"Q. c gray53",
"!. c gray54",
"~. c #8B8B8A",
"^. c #8B8B8B",
"/. c #8C8B8B",
"(. c #979796",
"). c #989796",
"_. c #A7A49A",
"`. c #B0ADA2",
"'. c #C6C2B6",
"]. c #C6C3B6",
"[. c #C7C3B6",
"{. c #C7C3B7",
"}. c #C7C4B7",
"|. c #C8C4B7",
" X c #C8C4B8",
".X c #C8C5B8",
"XX c #C9C5B8",
"oX c #C9C5B9",
"OX c #C9C6B9",
"+X c #CAC6B9",
"@X c #CAC6BA",
"#X c #CAC7BB",
"$X c #CBC7BB",
"%X c #CBC7BC",
"&X c #CBC8BC",
"*X c #CCC8BC",
"=X c #CCC8BD",
"-X c #CCC9BD",
";X c #CDC9BD",
":X c #CDC9BE",
">X c #CDCABE",
",X c #CDCABF",
"<X c #CECABF",
"1X c #CECBC0",
"2X c #CFCBC0",
"3X c #CFCBC1",
"4X c #CFCCC1",
"5X c #D0CCC2",
"6X c #D0CDC2",
"7X c #D0CDC3",
"8X c #D1CDC3",
"9X c #D1CEC3",
"0X c #D1CEC4",
"qX c #D2CFC4",
"wX c #D2CFC5",
"eX c #D3D0C6",
"rX c #D5D2C8",
"tX c #D5D2C9",
"yX c #D6D3C9",
"uX c #D6D3CA",
"iX c #D7D4CA",
"pX c #DDDDDB",
"aX c #DEDDDB",
"sX c #EAE9E4",
"dX c #F8F8F6",
"fX c #F9F8F7",
"gX c #F9F9F7",
"hX c #FAFAF9",
"jX c #FBFBFA",
"kX c #FCFBFA",
"lX c #FCFCFB",
"zX c #FDFCFC",
"xX c #FDFDFC",
"cX c #FEFDFC",
"vX c #FEFEFD",
"bX c #FEFEFE",
/* pixels */
"  ;XtXiXiXiXiXiXiXiXiXiXiXiXiXiXiXiXiXiXiXiXiXiXiXiXiXiXiXiXiXiXiXiXiXiXiXiXiXiXiXiXiXiXiXiXiXiXiXiXiXiXiXiXiXiXiXiXiXiXiXtX;X  ",
";XsXhXkXkXkXkXkXkXkXkXkXkXkXkXkXkXkXkXkXkXkXkXkXkXkXkXkXkXkXkXkXkXkXkXkXkXkXkXkXkXkXkXkXkXkXkXkXkXkXkXkXkXkXkXkXkXkXkXkXkXhXsX;X",
"tXhXbXbXbXbXbXbXbXbXbXbXbXbXbXbXbXbXbXbXbXbXbXbXbXbXbXbXbXbXbXbXbXbXbXbXbXbXbXbXbXbXbXbXbXbXbXbXbXbXbXbXbXbXbXbXbXbXbXbXbXbXhXtX",
"iXhXbXbXbXbXbXbXbXbXbXbXbXbXbXbXbXbXbXbXbXbXbXbXbXbXbXbXbXbXbXbXbXbXbXbXbXbXbXbXbXbXbXbXbXbXbXbXbXbXbXbXbXbXbXbXbXbXbXbXbXbXhXiX",
"tXdXlXlXlXlXlXlXlXlXlXlXlXlXlXlXlXlXlXlXlXlXlXlXlXlXlXlXlXlXlXlXlXlXlXlXlXlXlXlXlXlXlXlXlXlXlXlXlXlXlXlXlXlXlXlXlXlXlXlXlXlXdXtX",
"tXdXhXhXhXhXhXhXhXhXhXhXhXhXhXhXhXhXhXhXhXhXhXhXhXhXhXhXhXhXhXhXhXhXhXhXhXhXhXhXhXhXhXhXhXhXhXhXhXhXhXhXhXhXhXhXhXhXhXhXhXhXdXtX",
"tXdXbXbXbXbXbXbXbXbXbXbXbXbXbXbXbXbXlXbXbXbXbXbXbXbXbXbXbXbXbXbXbXbXbXbXbXbXbXbXbXbXlXbXbXbXbXbXbXbXbXbXbXbXbXbXbXbXbXbXbXbXdXtX",
"iXpX(.~././././././././././././././././.~.Q.~././././././././././././././././././.~.Q.~././././././././././././././././.~.).pXiX",
"tXR.z J J J J J J J J J J J J J J J J J J n D J J J J J J J J J J J J J J J J J J D n J J J J J J J J J J J J J J J J J J k R.tX",
"eXM.W 7.7.7.7.7.7.7.7.7.7.7.7.7.7.7.7.7.7.( $.7.7.7.7.7.7.7.7.7.7.7.7.7.7.7.7.7.7.$.( $.7.7.7.7.7.7.7.7.7.7.7.7.7.7.$.$.7.W M.eX",
"eXB.W $.$.$.$.$.$.$.$.$.$.$.$.$.$.$.$.$.$.~ } $.$.$.$.$.$.$.$.$.$.$.$.$.$.$.$.$.$.} ~ } $.$.$.$.$.$.$.$.$.$.$.$.$.$.} } $.W B.eX",
"wXN.W $.} } } } } } } } } } } } } } } } } ~ } } } } } } } } } } } } } } } } } } } } ~ } } } } } } } } } } } } } } } } } } P N.wX",
"wXM.P } } } } } } } } } } } } } } } } } } W ( } } } } } } } } } } } } } } } } } } ( W } } } } } ] ( } } } } } } } } } } } P M.wX",
"wXM.P ( ( ( ( ( ( ( ( ( ( ( ( ( ( ( ( ( ( P ~ ( ( ( ( ( ( ( ( ( ( ( ( ( ( ( ( ( ( ~ P ( ( ( ( ( ( ( ( ( ( ( ( ( ( ( ( ( ( J M.wX",
"wXM.J ( ( ~ ~ ~ ~ ~ ~ ~ ~ ~ ~ ~ ~ ~ ~ ~ ~ P ~ ~ ~ ~ ~ ~ ~ ~ ~ ~ ~ ~ ~ ~ ~ ~ ~ ~ ~ ~ P ~ ~ ~ ~ ~ ~ ~ ~ ~ ~ ~ ~ ~ ~ ~ ~ ~ ~ J M.wX",
"wXM.J ~ ~ ~ ~ ~ ~ ~ ~ ~ ~ ~ ~ ~ ~ ~ ~ ~ ~ J W ~ ~ ~ ~ ~ ~ ~ ~ ~ ~ ~ ~ ~ ~ ~ ~ ~ ~ W J ~ ~ ~ ~ ~ ~ ~ ~ ~ ~ ~ ~ ~ ~ ~ ~ ~ ~ J M.wX",
"wXM.D W W W W W W W W W W W W W W W W W W J W W W W W W W W W W W W W W W W W W W P D W W W W W W W W W W W W W W W W W W D M.wX",
"wXc.D W W W W W W W W W W W W W W W W W W D P W W W W W W W W W W W W W W W W W W P D P W W W W W W W P W W W W W W W W W D c.wX",
"9Xc.V P P P P P P P P P P P P P P P P P P V J P P P P P P P P P P P P P P P P P P J V P P P P P P P P P P P P P P P P P P V c.9X",
"9Xc.V P P P P P P P P P P P P P P P P P J V J P P P P P P J J J J J J J J J J J J J V J J J J J J J J J J J J J J J J J J V c.9X",
"9Xc.n J J J J J J J J J J J J J J J J J J n D J J J J J J J J J J J J J J J J J J D n J J J J J J J J J J J D J J J D J J n c.9X",
"9Xl.n D D D D D D D D D D D D D D D D D D z V D D D D D D D D D D D D D D D D D D V z D D D D D D D D D D D D D D D D D D n l.9X",
"9Xj.z D D D D D D D D D D D D D D D D D D z V D D D D D D D D D D D D D D D D D D V z D D D D D D D D D D V D D D D D D D z j.9X",
"9Xj.z V V V V V V V V V V V V V V V V V V k n V V V V V V V V V V V V V V V V V V n k V V V V V V V V V V V V V V V V V V z j.9X",
"4Xj.k V V n n n n n n n V V n n n n n n n d n n n n n n n n n n n n n n n n n V n n d n n n n n n n n n n n n n n n n n n k j.4X",
"4Xh.k n n n n n n n n n n n n n n n n n n d z n n n n n n n n n n n n n n n n n n z d n n n n n n n n n n n n n n n n n n k h.4X",
"4Xh.f z z z z z z z z z z z z z z z z z z u z z z z z z n n z z z z z z z z z z z k u z z z z z z z z z z z z z z z z z z d h.4X",
"3Xh.d z z z z z z z z z z z z z z z z z z u k z z z z z z z z z z z z k z z z z z k 0 z z z k k z z z z z z z z z z z k z d h.3X",
"3Xh.u k k k k k k k k k k k k k k k k k k 0 d k k k k k k k k k k k k k k k k k k d 0 k k k k k k k k k k k k k k k k k k u h.3X",
"3Xh.u k k k k d d d d d d d d d k k d d d > d k d d d d d d d d d d d d d d d d d d > d d d d d d d d d d d d d d d d d d u h.3X",
"3Xa.u d d d d d d d d d d d d d d d d d d > u d d d d d d d d d d d d d d d d d d u > d d d d d d d d d d d d d d d d d d 0 a.3X",
";Xa.0 u u u u u u u u u u u u u u u u u u = 0 u u u u u u u u u u u u u u u u u u 0 = u u u u u u u u u u u u u u u u u u 0 a.;X",
";Xy.0 u u u u u u u w 0 u u u u u u u u u & 0 0 u u u u u u u u 0 0 0 0 u 0 0 0 0 > & 0 u u u u u u u u u u 0 0 0 u u 0 u > y.;X",
";Xe.> 0 0 0 0 0 0 0 0 0 0 0 0 0 0 0 0 0 0 & > 0 0 0 0 0 0 0 0 0 > > > > 0 0 > > > = o 0 0 0 0 0 0 0 0 0 0 0 0 0 0 0 0 0 0 > e.;X",
";X<.@ = = = = = = = & & = = = = = & = = & X & & & & & & = = = = & & & & = = = = & & X & & & & = = = = = = = & & = = = = & & <.;X",
";XB.k z z z z z z z z z z z z z z z z z z & o o o o & & & & & & & & & o & & & & & o . & o & & & & & & & & & o o & & & & & o <.;X",
";XR.( ( ( ( ( ( ( ( ( ( ( ( ( ( ( ( ( ( ( 0 = > > > > > > > > > > > > > > > > > 0 > o > > > > > > > > > > > > > > > > > > > e.;X",
";XR.~ ( ( ( ( ( ( ( ( ( ( ( ( ( ( ( ( ( ( 0 = > > > > > > > > > > > > > > > > > > = o > > > > > > > > > > > > > > > > > > > e.;X",
";XR.~ ( ( ( ( ( ( ( ( ( ( ( ( ( ( ( ( ( ( u = > > > > > > > > > > > > > > > > > > = o > > > > > > > > > > > > > > > > > > > e.;X",
";XR.~ ( ( ( ( ( ( ( ( ( ( ( ( ( ( ( ( ( ( u = > > > > > > > > > > > > > > > > > > = o > > > > > > > > > > > > > > > > > > > e.;X",
";XI.( ( ( ( ( ( ( ( ( ( ( ( ( ( ( ( ( ( ( u = > > > > > > > > > > > > > > > > > > = o > > > > > > > > > > > > > > > > > > = e.;X",
";XR.( ( ( ( ( ( ( ( ( ( ( ( ( ( ( ( ( ( ( u > 0 > 0 0 0 0 > > 0 > > > > > > > > 0 > o > > > > > > > > > > > > > > > > > > : e.;X",
"&XI.( } ( ( } } } } } } } } } } } } } } ( u > 0 0 0 0 0 0 0 0 0 0 0 0 0 0 0 0 0 0 > o 0 0 0 0 0 > > 0 0 0 0 0 0 0 0 0 0 0 > e.&X",
"%XI.( } } } } } } } } } } } } } } } } } } u > 0 0 0 0 0 0 0 0 0 0 0 0 0 0 0 0 0 0 > & 0 0 0 0 0 0 0 0 0 0 0 0 0 0 0 0 0 0 > e.%X",
"$XK.( } } } } } } } } } } } } } } } } } } d > u 0 0 0 0 0 0 0 0 0 0 u u 0 0 0 0 0 0 & 0 0 0 0 0 0 0 0 0 0 0 0 0 0 0 u 0 0 > 9.$X",
"$XK.( } } } } } } } } } $.$.} } } } } } } d 0 u u u u u u u u u u u u u u u u u u 0 = u u u u u u u u u u u u u u u u u 0 > 9.$X",
"$XH.( } } } } } } } } } } } } } } } } } } d 0 u u u u u u u u u u u u u u u u u u 0 = u u u u u u u u u u u u u u u u u u > 3.$X",
"$XH.( } $.$.$.$.$.$.$.$.$.$.$.$.$.$.$.} $.k 0 d u u u u u u u u u u u u u u u u d u = u u u u u u u u u u u u u u u u u u > 9.$X",
"$XH.( } $.$.$.$.$.$.$.$.$.$.$.$.$.$.$.$.$.k u d d d d d d d d d d d d d d d d d d u = d d d d d d d d d d d d d d d d d u 4 <.$X",
"$XH.( $.$.$.$.$.$.$.$.$.$.$.$.$.$.$.$.$.$.k u d d d d d d d d d d d d d d d d d d u > d d d d d d d d d d d d d d d d d u 0 <.$X",
"$XH.( $.$.$.$.$.$.$.$.$.$.$.$.$.$.$.$.$.$.k u d d d d d d d d d d d d d d d d d d d > d d d d d d d d d d d d d d d d d u 4 <.$X",
"$XH.} $.$.7.7.7.7.5.5.5.7.7.7.7.7.7.7.7.$.z u k k k k k k k d d d k k k d d d d k d > d k k k k d d d d d d d k k k k d d 0 <.$X",
"$XH.} $.7.7.7.7.7.7.7.7.7.7.7.7.7.7.7.7.7.z d k k k k k k k k k k k k k k k k k k d 0 k k k k k k k k k k k k k k k k k d 0 3.$X",
"$XH.} $.7.7.7.7.7.7.7.7.7.7.7.7.7.7.7.7.7.z d k k k k k k k k k k k k k k k k k k d 0 k k k k k k k k k k k k k k k k k d 0 <.$X",
"$XH.} $.7.7.7.7.7.7.7.7.7.7.7.7.7.7.7.7.7.n d z k k k k z z k k k k k k k k k k z k 0 k z z k k k k k k k k k k k k k k d 0 <.|.",
"$XH.} 7.7.y.y.y.y.y.y.y.r.r.r.y.y.y.y.y.7.n k z z z z z z z z z z z z z z z z z z k u z z z z z z z z z z z z z z z z z d 0 <.$X",
"$XH.} 7.y.y.y.y.y.r.r.r.y.y.y.y.r.y.y.y.y.n k z z z z z z z z z z z z z z z z z z k u z z z z z z z z z z z z z z z z z k u <.$X",
"|.H.} 7.y.y.y.y.y.y.y.y.y.y.y.y.y.y.y.y.y.n k n z z z z z z z z z z z z z z z z n z d z z z z z z z z z z z z z z z n z k u <.|.",
"{.D.} 7.y.y.y.y.y.y.y.y.y.y.y.y.y.y.y.y.y.V z n n n n n b b n n n n n n b b n n n z d n b b b n n n n n b b n n n n n n k u <.}.",
"{.Z.} 7.y.y.y.y.y.y.y.y.y.y.y.y.y.y.y.y.y.V z n n n n n b n n n n n n n b n n n n z d n b b b n n n n n b n n n n n n n k u <.{.",
"{.Z.} 7.7.7.7.7.7.7.7.7.7.7.7.7.7.7.7.7.7.n k z z z z z z z z z z z z z z z z z z k u z z z z z z z z z z z z z z z z k k 0 <.{.",
"|.R.( } } O.O.O.O.O.O.O.O.O.O.O.O.O.O.+.} d 0 u u u u u u u u u u u u u u u u u u 0 = u u u u u u u u u u u u u u u u u 0 > s.|.",
"$X`.P.Z.Z.Z.Z.Z.Z.D.D.D.Z.Z.Z.Z.Z.D.D.D.Z.e.o.<.<.<.<.<.:.:.<.<.<.<.<.<.:.:.<.<.<.&.] <.<.<.<.:.<.<.<.<.:.:.<.<.<.<.<.<.&.i._.$X",
"  $X|.{.{.{.{.{.{.{.{.{.{.{.{.{.{.{.{.{.{.{.{.{.{.{.{.{.{.{.{.{.{.{.{.{.{.{.{.{.{.{.{.{.{.{.{.{.{.{.{.{.{.{.{.{.{.{.{.{.{.|.$X  "
};
