/* XPM */
static char *hex_terminal_TR_png_ico_2[] = {
/* columns rows colors chars-per-pixel */
"32 32 65 1 ",
"  c gray6",
". c #131313",
"X c #161616",
"o c #191919",
"O c #1E1E1E",
"+ c gray13",
"@ c gray14",
"# c #282827",
"$ c #282828",
"% c gray18",
"& c #323232",
"* c #373737",
"= c #393939",
"- c #3C3C3C",
"; c #414141",
": c gray27",
"> c gray29",
", c #4C4C4B",
"< c #4E4E4E",
"1 c #505050",
"2 c #555555",
"3 c #585858",
"4 c gray36",
"5 c #606060",
"6 c #656565",
"7 c gray42",
"8 c #6F6F6F",
"9 c #727272",
"0 c #777777",
"q c gray48",
"w c #817F77",
"e c #838079",
"r c #85827B",
"t c #84837C",
"y c #86847E",
"u c #88857D",
"i c #898781",
"p c #8B8983",
"a c #8D8B85",
"s c #8E8C86",
"d c #8F8E89",
"f c #908F8A",
"g c #92908B",
"h c #9B9994",
"j c #9C9A94",
"k c #9E9C97",
"l c #9F9D98",
"z c #A09E99",
"x c #A1A09A",
"c c #A3A29C",
"v c #A4A29D",
"b c #ACAAA5",
"n c #B0ADA2",
"m c #BCBCBB",
"M c #BDBDBC",
"N c #C2C2C1",
"B c #C4C4C3",
"V c #CACAC9",
"C c #CECECD",
"Z c #DDDAD2",
"A c #DAD9D4",
"S c #DDDCD7",
"D c #EAE9E4",
"F c #ECEAE6",
"G c #FEFEFE",
/* pixels */
"ZDFFFFFFFFFFFFFFFFFFFFFFFFFFFFDZ",
"DGGGGGGGGGGGGGGGGGGGGGGGGGGGGGGD",
"DGGGGGGGGGGGGGGGGGGGGGGGGGGGGGGD",
"ANMMMMMMMMmmMMMMMMMMmBVVVVVVVVCS",
"h><<<<<<<<><<<<<<<<<,5000000009b",
"g<22222222112222222217qqqqqqqq0v",
"g>1<<<<<<<><<<<<<<<<<5000000009v",
"f:>>>>>>>>:>>>>>>>>>>4999999998c",
"d;::::::::;;::::::::;3888888887x",
"d-;;;;;;;;--;;;;;;;;-2878777777x",
"s=--------*=--------=1767766666z",
"a*=*******&**********<656655555z",
"a&&&&&&&&&%%&&&&&&&&%>544444454l",
"p%%%%%%%%%$$%%%%%%%%$:444444443k",
"p$$$$$$$$$+@$$$$$$$$@;333333333j",
"i@@@@@@@@@O+@@@@@@@@+-222222222j",
"i+OOOOOOOOooOOOOOOOOo=111111111j",
"tXXXXXX..X ..........O$$$$$$$$$a",
"yOoooooooo.XooooooooX.oooooooooy",
"yOooooooooXXooooooooXXooooooooOy",
"yOooOOOOOOXoOOOoooooXXooooooooOy",
"tOOOOOOOOOooOOOOOOOOoXOOOOOOOO+t",
"t+++++++++oO++++++++Oo+++++++++y",
"t+++++++++O++++++++++O+++++++++t",
"t+@@@@@@@@O+@@@@@@@@+O@@@@@@@@+t",
"r@@@@@@@@@+@@@@@@@@@@+@@@@@$@@@r",
"r@$$$$$$$$@$$$$$$$$$@@$$$$$$$$@r",
"r@$%%%%%%%@$%%%%%%%%$@%%%%%%%$@r",
"r$%%%%%%&&$%%%%%&&%%%$%%&&%%%%$r",
"r$%&&&&&&&$%&&&&&&&&%$&&&&&&&%$e",
"u$$$$$$$$$@#$$$$$$$$#@$$$$$$$$$u",
"nueeeeeeeeweeeeeeeeeeweeeeeeeeyn"
};
