/* XPM */
static char *htop_png_ico_2[] = {
/* columns rows colors chars-per-pixel */
"32 32 146 2 ",
"   c None",
".  c #1C3813",
"X  c #1E4014",
"o  c #1F4014",
"O  c #204B12",
"+  c #224E14",
"@  c #255216",
"#  c #265317",
"$  c #285719",
"%  c #2A591A",
"&  c #2B5B1B",
"*  c #2C5C1C",
"=  c #2F5F1E",
"-  c #2F601F",
";  c #305C21",
":  c #316220",
">  c #326321",
",  c #336522",
"<  c #356724",
"1  c #366825",
"2  c #366925",
"3  c #386B27",
"4  c #396C28",
"5  c #3A6E29",
"6  c #3B6F2A",
"7  c #3D702B",
"8  c #3D712C",
"9  c #3E722D",
"0  c #40732E",
"q  c #40732F",
"w  c #41752F",
"e  c #437631",
"r  c #437731",
"t  c #437732",
"y  c #447633",
"u  c #457833",
"i  c #457934",
"p  c #467934",
"a  c #467A34",
"s  c #487C36",
"d  c #487A38",
"f  c #4A7A39",
"g  c #4A7D38",
"h  c #4A7E38",
"j  c #4B7E39",
"k  c #4B7F39",
"l  c #4D7D3C",
"z  c #4D7E3D",
"x  c #4C803A",
"c  c #4D813B",
"v  c #4E823C",
"b  c #4F833D",
"n  c #51853F",
"m  c #51863F",
"M  c #528142",
"N  c #528441",
"B  c #528541",
"V  c #538741",
"C  c #558943",
"Z  c #568845",
"A  c #578B45",
"S  c #588C46",
"D  c #598D47",
"F  c #5A884A",
"G  c #5B8E49",
"H  c #5B8F49",
"J  c #5D904B",
"K  c #5D914B",
"L  c #5F924D",
"P  c #5F934E",
"I  c #61944F",
"U  c #629051",
"Y  c #619250",
"T  c #629052",
"R  c #639253",
"E  c #619450",
"W  c #639551",
"Q  c #649652",
"!  c #659753",
"~  c #669854",
"^  c #679956",
"/  c #689A57",
"(  c #699B57",
")  c #6A9B58",
"_  c #6C9B5B",
"`  c #6B9C59",
"'  c #6C9D5B",
"]  c #6E9E5C",
"[  c #6E9F5C",
"{  c #6E9F5D",
"}  c #6FA05E",
"|  c #70A15F",
" . c #71A260",
".. c #73A163",
"X. c #73A362",
"o. c #73A463",
"O. c #74A463",
"+. c #76A565",
"@. c #76A666",
"#. c #77A666",
"$. c #78A868",
"%. c #79A869",
"&. c #7AA969",
"*. c #7BAA6B",
"=. c #7CAB6C",
"-. c #7EAC6E",
";. c #7FAD6F",
":. c #81AE71",
">. c #82AF72",
",. c #83AF73",
"<. c #84AF75",
"1. c #83B073",
"2. c #83B074",
"3. c #85B175",
"4. c #85B176",
"5. c #86B276",
"6. c #87B277",
"7. c #88B379",
"8. c #89B479",
"9. c #8BB67C",
"0. c #8CB67D",
"q. c #8CB77D",
"w. c #8EB87F",
"e. c #8FB980",
"r. c #8FB981",
"t. c #90B981",
"y. c #91BA83",
"u. c #93BC84",
"i. c #95BD86",
"p. c #96BC88",
"a. c #96BE88",
"s. c #9ABF8C",
"d. c #99C08C",
"f. c #9AC18C",
"g. c #9DC38F",
"h. c #9DC390",
"j. c #9EC391",
"k. c #9EC491",
"l. c #A0C593",
"z. c #A1C694",
"x. c #A3C797",
"c. c #A5C898",
"v. c #A8CA9C",
"b. c #ACCDA0",
"n. c #B0D0A4",
"m. c #B2D2A7",
/* pixels */
"                              f f                               ",
"                            j <.<.j                             ",
"                            B p.p.B                             ",
"                            B p.p.B                             ",
"                            B p.p.B                             ",
"                            B p.p.B                             ",
"                            B p.p.B                             ",
"                            B p.p.B                             ",
"                            B p.p.B                             ",
"                            B p.p.B                             ",
"                            B p.p.B                             ",
"                            B p.p.B                             ",
"                            B p.p.B                             ",
"                            Z s.s.Z                             ",
"                            Y j.k.Y                             ",
"                      . X ; z Y Y z ; X .                       ",
"  O # & - < 6 q y f z M F Y _  . ._ Y F M z f y q 6 < - & # O   ",
"  + # & : 2 7 r j n S I /  .&.1.1.&. ./ I S n j r 7 2 : & # +   ",
"    $ = : 3 9 u c B H W ` o.=.6.6.=.o.` W H B c u 9 3 : = $     ",
"      = , 6 q a c C K Q { #.-.8.8.-.#.{ Q K C v a q 6 , =       ",
"        2 6 w s v Z P ~ | &.:.q.q.:.&.| ~ P Z v s w 6 2         ",
"          9 r j n S W )  .=.6.e.y.6.=. .) W S n j r 9           ",
"            a j B H Q ' #.-.8.u.u.8.-.#.' Q H B j a             ",
"              v C K ~ } &.:.q.p.p.q.:.&.} ~ K C v               ",
"                S P /  .&.6.e.d.d.e.6.&. ./ P S                 ",
"                  W ` O.-.7.u.j.j.u.7.-.O.` W                   ",
"                    { #.:.9.p.x.x.p.9.:.#.{                     ",
"                      &.2.w.d.c.c.d.w.2.&.                      ",
"                        6.y.g.v.v.g.y.6.                        ",
"                          i.l.b.b.l.i.                          ",
"                            x.m.m.x.                            ",
"                              m.m.                              "
};
