/* XPM */
static char *io_github_celluloid_player_Celluloid_png_ico_3[] = {
/* columns rows colors chars-per-pixel */
"48 48 231 2 ",
"   c None",
".  c #130F0D",
"X  c #1C0F0B",
"o  c #1D1505",
"O  c #14140B",
"+  c #1B130C",
"@  c #1A1B0C",
"#  c #151B0A",
"$  c #1C1419",
"%  c #161918",
"&  c #0F0E0D",
"*  c #240F0B",
"=  c #231404",
"-  c #231C02",
";  c #2B1C03",
":  c #23120D",
">  c #29140B",
",  c #251A0C",
"<  c #2A1C0B",
"1  c #24151A",
"2  c #271C17",
"3  c #0E240D",
"4  c #0F290E",
"5  c #1F2901",
"6  c #14240C",
"7  c #1C240D",
"8  c #1B290C",
"9  c #182708",
"0  c #1F3001",
"q  c #172715",
"w  c #1A3616",
"e  c #242402",
"r  c #2B2401",
"t  c #252B04",
"y  c #2B2E01",
"u  c #23230B",
"i  c #2A230D",
"p  c #232A09",
"a  c #2C2B0C",
"s  c #322301",
"d  c #342907",
"f  c #243101",
"g  c #2C3202",
"h  c #2D320A",
"j  c #323401",
"k  c #353B0A",
"l  c #272713",
"z  c #382B10",
"x  c #283917",
"c  c #3B331D",
"v  c #383618",
"b  c #130E2B",
"n  c #1B0E2B",
"m  c #14112B",
"M  c #1C142B",
"N  c #1C1A2C",
"B  c #181929",
"V  c #171B33",
"C  c #23142C",
"Z  c #28152A",
"A  c #231628",
"S  c #251530",
"D  c #281A37",
"F  c #29142F",
"G  c #132335",
"H  c #1F2836",
"J  c #1A2839",
"K  c #242B28",
"L  c #3E3521",
"P  c #222C33",
"I  c #292D34",
"U  c #242B3B",
"Y  c #242538",
"T  c #36253B",
"R  c #293033",
"E  c #273036",
"W  c #31312C",
"Q  c #42351A",
"!  c #463A1E",
"~  c #463B28",
"^  c #443C35",
"/  c #3B420B",
"(  c #28491C",
")  c #3A4718",
"_  c #3D521E",
"`  c #264B22",
"'  c #394927",
"]  c #2A5727",
"[  c #335323",
"{  c #395925",
"}  c #2E602A",
"|  c #3B652A",
" . c #464A17",
".. c #4C5213",
"X. c #4C531C",
"o. c #48551E",
"O. c #505515",
"+. c #545A16",
"@. c #52551A",
"#. c #565A1A",
"$. c #595C1B",
"%. c #464C0E",
"&. c #49452D",
"*. c #54472B",
"=. c #475A24",
"-. c #54582B",
";. c #4B4637",
":. c #554C33",
">. c #5B5538",
",. c #665A3A",
"<. c #476327",
"1. c #536122",
"2. c #656132",
"3. c #2D1F48",
"4. c #2A2A42",
"5. c #3C2D43",
"6. c #372A4A",
"7. c #2D3345",
"8. c #333444",
"9. c #3D3346",
"0. c #3E3949",
"q. c #3A3848",
"w. c #392953",
"e. c #3B3558",
"r. c #2C365B",
"t. c #393867",
"y. c #363D6C",
"u. c #1D2F47",
"i. c #433C4C",
"p. c #493E4F",
"a. c #492B57",
"s. c #542F5C",
"d. c #4C355C",
"f. c #443659",
"g. c #4E2B53",
"h. c #5B2D64",
"j. c #4A3564",
"k. c #453566",
"l. c #553667",
"z. c #51346C",
"x. c #63336B",
"c. c #642F68",
"v. c #3B4D4F",
"b. c #364869",
"n. c #37446C",
"m. c #49434A",
"M. c #554E45",
"N. c #5A5747",
"B. c #4C4353",
"V. c #494357",
"C. c #514655",
"Z. c #534956",
"A. c #534659",
"S. c #554A5A",
"D. c #5A4D5C",
"F. c #5D515E",
"G. c #435A50",
"H. c #665E46",
"J. c #645A57",
"K. c #4D6256",
"L. c #54695B",
"P. c #5A6851",
"I. c #67664C",
"U. c #6A6656",
"Y. c #736B57",
"T. c #6D7354",
"R. c #64755E",
"E. c #6B755A",
"W. c #73735C",
"Q. c #76765F",
"!. c #73674C",
"~. c #424D65",
"^. c #5C4D62",
"/. c #554568",
"(. c #5B5669",
"). c #424A71",
"_. c #4B5374",
"`. c #575776",
"'. c #4B546C",
"]. c #645463",
"[. c #695666",
"{. c #6A5966",
"}. c #6E5B69",
"|. c #63576A",
" X c #735D6C",
".X c #665C74",
"XX c #675C77",
"oX c #624F62",
"OX c #4F7263",
"+X c #537363",
"@X c #5A7564",
"#X c #54756A",
"$X c #75626D",
"%X c #786867",
"&X c #687965",
"*X c #797863",
"=X c #6D6276",
"-X c #6D627B",
";X c #66607C",
":X c #7C6471",
">X c #72657C",
",X c #7A6A78",
"<X c #7E7778",
"1X c #6F606B",
"2X c #83796A",
"3X c #826675",
"4X c #836B76",
"5X c #846D78",
"6X c #897975",
"7X c #817178",
"8X c #847975",
"9X c #7D8268",
"0X c #7C8E7C",
"qX c #798679",
"wX c #708F7F",
"eX c #84846C",
"rX c #87856F",
"tX c #8B8573",
"yX c #8B8C75",
"uX c #848D7C",
"iX c #898B79",
"pX c #838575",
"aX c #84947E",
"sX c #8B927B",
"dX c #8D9177",
"fX c #6C9483",
"gX c #689786",
"hX c #749381",
"jX c #7B9380",
"kX c #779985",
"lX c #849781",
/* pixels */
"R       v.OX+X+XOXOXOX+X+X+X@X@X@X@X@X&XR.R.R.R.R.E.E.E.E.E.E.E.E.E.T.T.T.T.I.I.I.I.N.&.      v ",
"K.K.G.G.#XgXgXgXgXgXgXgXkXkXkXkXkXkXlXlXlXlXlXlXsXsXsXsXsXsXsXdXdXyXyXrXeX9X9X9X*X*X*XH.&.&.&.&.",
"OX#X#X#XwXgXgXgXfXfXhXhXhXjXjXjXaXaXaXaXaXaXsXsXsXsXyXyXyXyXyXrXeXeX9X9X*X*XQ.W.E.T.U.I.M.>.M.;.",
"v.      L.fXfXhXhXhXjXjX0XuXuXuXuXuXuXiXiXiXiXiXtXtXtXtXtXrX2X2X*X*X*XW.W.Y.U.U.U.I.I.;.      L ",
"v.      L.hXwXwX0X0X0XuXuXuXuXiXiXiXiXiXtXtXtXtXtXrX2X2X2X*X*XQ.W.Y.Y.U.U.U.I.I.H.N.N.&.      c ",
"K.@XL.@XqX0X0XqXqXqXpX8X8X8X8X8X6X6X6X6X6X6X8X8X2X%X%X%X%X%X%XU.U.U.J.J.J.J.J.N.N.N.>.:.~ ~ ~ ~ ",
"K.K.N.P.&X0X<X<X<X7X7X5X5X5X5X5X5X3X3X3X3X3X:X:X$X X X}.}.{.{.].].].J.F.F.D.D.D.S.M.:.&.L L L c ",
";.      I.pX<X<X7X7X5X5X5X3X3X3X3X3X:X:X:X X X X}.{.[.].].].J.F.D.D.D.D.S.Z.Z.Z.Z.C.;.c       l ",
"M.;.    T.8X7X7X4X4X4X4X4X3X3X:X:X X X X}.}.[.[.[.].].F.D.D.D.S.S.Z.Z.C.C.B.B.B.m.m.^ v u   u u ",
"I.*XW.W.eX8X,X4X4X4X4X:X:X:X X X X}.[.[.].].].^.D.D.D.S.S.Z.C.C.B.B.B.B.m.m.p.i.0.q.W v l l l u ",
">.:.    !.2X,X,X,X,X:X$X X X}.[.].].oX^.D.D.D.S.S.A.C.C.B.B.B.B.p.p.p.i.i.0.q.8.8.7.W l @   @ # ",
":.      !.2X:X:X$X$X}.}.{.[.].].^.D.D.S.A.A.A.A.S.C.B.p.p.p.p.i.i.0.q.8.8.7.7.U U U K 7       O ",
",.H.,.,.!.%X$X}.{.{.[.].].F.D.D.A.A.A.D.|..X=X=X=X.X|.D.B.i.q.q.8.8.7.4.U U J J J J q # O + + + ",
",.!.H.H.!.U.{.].].^.F.D.D.S.S.C.B.S.|.>X>X>X>X>X>X-X=X.X(.A.q.4.U U J J J J G G G G % @ + + : : ",
"*.      >.J.F.F.D.S.S.Z.C.B.B.B.^.=X>X>X>X>X>X-X-X=X.X`.`.'.~.7.J J J G G G V V N N $ :       > ",
"*.      *.N.S.Z.Z.B.B.B.B.p.p.^.=X-X-X>X>X-X-X;XXX`.`._.'.~.b.b.u.V V V B N N N A A 1 >       : ",
"*.>.:.:.>.M.B.B.B.B.p.p.i.i.A..XXXXXXXXXXXXXXX`.`._._.).b.b.b.r.r.Y M M M C C Z Z Z 1 : : : + + ",
"~ ~ ~ ! *.;.i.i.i.i.0.q.q.i.|..XXXXXA.6.f.`.`.`._.).n.n.y.t.t.e.e.e.D C Z Z Z Z Z Z 1 + + + + O ",
"Q       Q ;.i.0.q.9.9.9.5.A.|.|.|.`.6.D D Y e.).n.y.y.y.t.k.k.j.d.d.5.Z Z Z Z C M M $ O       O ",
"Q z z z Q ^ 9.9.9.5.5.5.5./././././.4.M m m m V r.y.z.z.z.l.l.l.s.s.g.F C M M M m m % O O O O O ",
"Q ! Q Q Q ~ 5.5.T T D D 6.d.d.j.j.k.D m m m b b M 3.j.x.x.x.c.h.s.s.a.D M m m m m m % O O O + + ",
"z d     z W T D F S S S 6.f.f.k.k.k.D b b b b n n n F g.c.x.h.h.a.a.w.3.b b b b m m $ +     + + ",
"d       ; 2 F S S C C S w.f.k.k.t.t.D b n n A 1 2 2 2 2 W ;.M.M.m.q.7.4.m b b n n n $ +       > ",
"d i ; = = 1 S C C C M N w.e.t.t.k.k.Y $ 2 l i i i u u u 7 8 [ <.{ ] ] ` q % % B M C 1 : > > > > ",
"; - = o o $ C C M M M N 6.e.i.m.M.>.v i i i u u u 7 7 8 6 4 ` } ] ] ] ( 4 6 8 8 7 u , > > > > > ",
"o       o $ M M M B B q ' &.-.-.2.2.v u u u 7 7 7 6 6 6 w ` } ] ] [ [ ( 8 8 8 p p p < >       ; ",
"o +     O % % q q 7 7 u  .-.-.>.,.>.v 7 7 8 8 6 6 3 4 ( } | | { { _ _ ) p p p p p p e ;     ; ; ",
"O O O O O @ 8 7 u u u i c -.-.-.-.-.x 6 6 6 6 3 4 w { | | <.=.=.o.o.X.k p p p t p p e ; ; ; ; ; ",
"O O O + + , u u i i i u l &.=.=.=.{ w 3 3 3 6 w [ <.<.<.<.=.X.X.@.X...h t t t t t t e ; ; ; ; ; ",
"+       : , i i u u u 7 7 x ' [ ] ] w 3 3 8 ( =.<.<.1.1.#.#.#.#.@.@./ t t t t t t t r ;       r ",
": : > > > , u u u 7 7 7 6 q ` ` ] ] ( 8 x { <.=.=.-.$.$.$.$.#.+.+...h t t t t t f f t r r r s s ",
"> : : : : , 7 7 7 6 6 3 3 3 w ` [ [ [ _ =.=.=.#.#.$.$.$.$.#.+.+.X.k t t f t f f g g y s s s s s ",
":       + @ 6 6 6 3 3 3 3 6 6 x ) _ o.o.X.@.@.#.#.#.$.#.+.+.+.+./ y t f g g g g g g y s       s ",
"X       O O 3 3 3 6 6 6 6 6 7 8 h  . .X.@.@.@.@.#.+.+.+.+.+.O./ g g g g g g g g g g d s       s ",
". . . O . O 6 6 6 6 6 7 7 7 u u u a k  .....X.O.+.+.+.+.O.%.k g g g g g g g j j j j d s s s r r ",
". & . . . O 6 6 7 7 7 7 u u u u u e t h k %. .......%./ j y g g g g j j j j j j j j y s s r r r ",
".       X + 7 7 7 u u u u e e e e e t t t t y g g g y y y g g g j j j j j j j j g g y r       e ",
". .   + X o u u u u u u e e e e e t t t t t t t y y y y y g j j j j j j j j g g g f t e     e e ",
"X X X : : , u u u e u u p e e t t t t t y y y y y y y g j j j j j j j j g g g f f f t e e e e e ",
"X X   : : , u e e e e p p e t t t t t t t y y y y g j j j j j g g g g g g f f f f f 5 e     e e ",
"*       = = e p e e e e t t t t t t t y y y y y g j j g y g g g g f f f f f f 0 0 0 5 e       e ",
"* : : = = = - p e e t t t t t t t y y y y y y y y y g y y t t f f t f 0 f 0 0 0 0 5 5 e e e e e ",
"= = = = = = = - - - e e e r r r r r r r s r r r r r r e e e e e 5 5 t 5 5 5 5 5 e e e e e e r r ",
"=       = = = = = - - ; ; ; ; ; ; ; ; ; ; ; ; ; - - - - e e - - o 5 e 5 e e e e e e e e       r ",
"o       = = = - , , < < < < < < i i i u u u u u u u u u u u u u u u u u u u u u e e e e       r ",
"o = = = = = , K I I I I I I I I P P P P P H H H P P P P P P P P P P P K P R R R K u e e e e e e ",
"= = = = = , P U U U U U U U P P P P P P H P H P P P P P P P P P P I I R R R R R R K e e e e e e ",
"=       = 2 Y U Y Y Y P P H H P H H P P P P P P P I I I I P I I I I I I I I I I I R l e       e "
};
