/* XPM */
static char *jockey_kde_png_ico_5[] = {
/* columns rows colors chars-per-pixel */
"72 72 183 2 ",
"   c None",
".  c #060606",
"X  c #0B0B0B",
"o  c #070808",
"O  c #151515",
"+  c #191817",
"@  c #1C1C1C",
"#  c #181716",
"$  c #221E1E",
"%  c #22201B",
"&  c #21301C",
"*  c #0D1D2D",
"=  c #111B24",
"-  c #2F1F29",
";  c #182229",
":  c #0C253D",
">  c #142534",
",  c #1B2D3C",
"<  c #1D2933",
"1  c #242424",
"2  c #2A2927",
"3  c #22252B",
"4  c #272929",
"5  c #2B2B2B",
"6  c #292825",
"7  c #322929",
"8  c #2C332D",
"9  c #32322F",
"0  c #39362A",
"q  c #222731",
"w  c #242B35",
"e  c #252D3C",
"r  c #282F3B",
"t  c #372F34",
"y  c #2F3031",
"u  c #2A313D",
"i  c #333333",
"p  c #3B3B3B",
"a  c #363A35",
"s  c #541E1E",
"d  c #7F1010",
"f  c #6D0F0F",
"g  c #491E3E",
"h  c #4A1B2E",
"j  c #462829",
"k  c #532525",
"l  c #483A39",
"z  c #4C3728",
"x  c #663334",
"c  c #683333",
"v  c #763636",
"b  c #6F2727",
"n  c #3E5018",
"m  c #214F23",
"M  c #224039",
"N  c #3B483E",
"B  c #1B6635",
"V  c #50411B",
"C  c #745F15",
"Z  c #6D481C",
"A  c #4C4421",
"S  c #5E5127",
"D  c #43433A",
"F  c #615320",
"G  c #77403C",
"H  c #3F1B41",
"J  c #28135F",
"K  c #063157",
"L  c #0C3456",
"P  c #0A385B",
"I  c #143D5C",
"U  c #293345",
"Y  c #2B3649",
"T  c #2E394D",
"R  c #313C4F",
"E  c #3D3D40",
"W  c #333E52",
"Q  c #3A1568",
"!  c #093962",
"~  c #24246B",
"^  c #5B244A",
"/  c #473D46",
"(  c #4E2F55",
")  c #473553",
"_  c #533858",
"`  c #394643",
"'  c #354156",
"]  c #364359",
"[  c #38465C",
"{  c #3C4B5A",
"}  c #374A55",
"|  c #1D644F",
" . c #134164",
".. c #134074",
"X. c #1A6373",
"o. c #434443",
"O. c #4B4C4B",
"+. c #4A464C",
"@. c #5B4949",
"#. c #4C4151",
"$. c #40515E",
"%. c #535352",
"&. c #5F5F5F",
"*. c #44564C",
"=. c #705050",
"-. c #406B41",
";. c #4A5D65",
":. c #455861",
">. c #525663",
",. c #7D5766",
"<. c #4D6267",
"1. c #4F6569",
"2. c #556C6D",
"3. c #556B6D",
"4. c #577070",
"5. c #5B7573",
"6. c gray40",
"7. c #6B6B6B",
"8. c #696565",
"9. c #617D77",
"0. c #747474",
"q. c #7C7C7C",
"w. c #797670",
"e. c #6E716B",
"r. c #9E0101",
"t. c #8B1A1A",
"y. c #AC0F0F",
"u. c #922F2F",
"i. c #A12931",
"p. c #B33232",
"a. c #A93030",
"s. c #9D410B",
"d. c #AC4508",
"f. c #85600D",
"g. c #9B7B10",
"h. c #967706",
"j. c #966028",
"k. c #8E2954",
"l. c #9B4141",
"z. c #844444",
"x. c #A04040",
"c. c #B15A5A",
"v. c #835268",
"b. c #AD5C7C",
"n. c #AD6D6D",
"m. c #25851C",
"M. c #378D25",
"N. c #608C41",
"B. c #7DBE49",
"V. c #4D9878",
"C. c #66837C",
"Z. c #679F7D",
"A. c #648167",
"S. c #4BAB72",
"D. c #80AD20",
"F. c #C39601",
"G. c #1C1C84",
"H. c #5B049D",
"J. c #62119C",
"K. c #660DAC",
"L. c #004E91",
"P. c #005196",
"I. c #1D668F",
"U. c #005AA4",
"Y. c #83049F",
"T. c #82129C",
"R. c #9107B1",
"E. c #8912A5",
"W. c #806681",
"Q. c #0082E3",
"!. c #838383",
"~. c #8A8A8A",
"^. c #949494",
"/. c gray61",
"(. c #B09A9A",
"). c #A3A3A3",
"_. c #AAAAAA",
"`. c #B4B4B4",
"'. c #BBBBBB",
"]. c #C5C5C5",
"[. c gray81",
"{. c #D3D3D3",
"}. c gray85",
/* pixels */
"                                                                                                                                                ",
"                                                                                                                                                ",
"                                                                                                                                                ",
"                                                                                                                                                ",
"                                                                                                                                                ",
"                                                                                                                                                ",
"                                                                                                                                                ",
"                                                                                                                                                ",
"                                                                                                                                                ",
"                                                                                                                                                ",
"                                                                                                                                                ",
"                                                                                                                                                ",
"                                                                                                                                                ",
"                                                                                                                                                ",
"                                                                                                                                                ",
"                                                                                                                                                ",
"                O O O O O O                                                                                         O O O O O O                 ",
"              O O @ @ @ @ O 1                                                                                     1 O @ @ @ @ O O               ",
"            O O @ @ @ @ @ O i 0.^.^.                                                                        /.~.q.i O @ @ @ @ @ O O             ",
"          O O @ @ @ @ @ @ @ o.%.&.0.!.!.0.7.7.7.7.7.7.7.7.7.7.7.7.7.7.7.7.7.7.7.7.7.7.7.7.7.7.7.7.7.7.0.!.!.0.&.%.o.@ @ @ @ @ @ @ O O           ",
"          O @ @ @ @ @ @ O 5 #.) O.O.O.O.o.p i i i i i i i i i i i i i i i i i i i i i i i i i i i i p o.O.O.O.O._ #.5 O @ @ @ @ @ @ O           ",
"        O O @ @ @ @ @ O @ / J.H.) O.p i i i @ @ @ @ @ @ @ @ @ @ @ @ @ @ @ @ @ @ @ @ @ @ @ @ @ @ @ @ 5 i i E O._ Y.T./ @ O @ @ @ @ @ O O         ",
"      O O = K P > @ @ O i +.K.K.) l s j i 5 @ w ' W W W W W W W W W W W W W W W W W W W W W W W w @ i i A F D ( R.E.+.i O @ @ > P K = O O       ",
"      O + * L.Q.U.: O 1 O.O.#.) ` k r.f 7 i @ u [ [ [ [ [ [ [ [ [ [ [ [ [ [ [ [ [ [ [ [ [ [ [ [ u @ 5 0 h.F.S E ) / O.o.1 O : U.Q.L.* + O       ",
"    O O @ @ ; L P * # p O.O.o.o.p j d f i 5 @ u ] ] ] ] ] ] ] ] ] ] ] ] ] ] ] ] ] ] ] ] ] ] ] ] u @ 5 9 C g.z p o.+.O.O.p O * P L ; @ @ O O     ",
"    O @ @ @ @ @ @ O 1 o.o.o.o.p i i i i i 5 @ u ] ' ' ' ' ' ' ' ' ' ' ' ' ' ' ' ' ' ' ' ' ' ' ' r @ 5 i i 9 i i p o.o.o.o.1 O @ @ @ @ @ @ O     ",
"    O @ @ @ @ @ @ O       p p i i i i i i 5 @ r ' ' ' ' ' ' ' W W ] ' W W W W W W W W W W W W ' r @ 5 i i i i i i p p       O @ @ @ @ @ @ O     ",
"  O O @ @ @ @ @ O O         i i i 5 5 5 i 5 @ r W W W W W ;.5.$.{ ;.:.{ [ $.{ { { $.{ W W W W W r @ 5 i 5 5 5 i i i         O O @ @ @ @ @ O O   ",
"  O @ @ @ @ @ @ O           i i 5 o.7.o.5 5 @ r W W W W T 1.5.4.4.3.5.2.4.C.5.5.1.C.;.T R R R W w @ 5 5 p 7.O.5 i i           O @ @ @ @ @ @ O   ",
"  O @ @ @ @ @ @ O           i 5 i ^.'._.i 5 @ w T T T T T <.9.3.;.;.1.2.<.9.2.<.{ C.<.T T T T T w @ 5 5 ~.`.`.p 5 i           O @ @ @ @ @ @ O   ",
"  O @ @ @ @ @ @ O           i 5 i ).{.`.i 5 @ w T T T T Y ' { ' W W R ' R { } ' R { W Y Y Y Y T w @ 5 5 ^.{.].p 5 i           O @ @ @ @ @ @ O   ",
"O O @ @ @ @ @ O O           i 5 5 o.0.o.5 5 @ w Y Y Y Y Y Y U Y Y Y Y Y Y U U U Y U U Y Y Y Y Y w @ 5 5 p 0.O.5 5 i           O O @ @ @ @ @ O O ",
"O O @ @ @ @ @ O             5 5 5 5 1 5 5 5 @ q U U U U U U U U U U U U U U U U U U U U U U U U w @ 5 5 5 1 5 5 5 i             O @ @ @ @ @ O O ",
"O @ @ @ @ @ @ O           i i 5 5 i p 5 5 5 @ q U U U U U U U U U U U U U U U U U U U U U U U U q @ 5 5 5 p p 5 5 5 p           O @ @ @ @ @ @ O ",
"O @ @ @ @ @ @ O p         i 5 5 p ^.`.6.5 5 @ ; e e e e e e e e e e e e e e e e e e r r e e e e 3 @ 5 1 %.)._.o.5 5 i         p O @ @ @ @ @ @ O ",
"O @ @ @ @ @ @ @ 5 i i i , < 5 1 %.`.{.^.1 5 @ @ @ = @ @ @ @ @ @ @ @ @ @ @ @ @ @ @ @ @ @ @ @ @ @ @ @ 5 1 0.'.}.6.1 5 < , i i i 5 O @ @ @ @ @ @ O ",
"O @ @ @ @ @ @ @ 5 5 5 , P.L 5 5 5 ~._.O.4 5 1 1 1 1 1 1 1 1 1 1 1 1 1 1 1 1 1 1 1 1 1 1 1 1 1 1 1 1 5 4 p /./.i 5 5 L P., 5 5 5 @ @ @ @ @ @ @ O ",
"O @ @ @ @ @ @ @ 5 5 5  .Q.I 2 5 5 1 5 1 5 5 5 5 i / x z 5 5 5 5 5 5 8 *.N 4 5 5 5 5 5 5 k x O.i 5 5 5 5 4 1 5 5 5 5 I Q. .2 5 5 @ @ @ @ @ @ @ O ",
"O @ @ @ @ @ @ @ 1 5 1 ! U.< 5 1 5 1 5 5 5 5 5 9 } W.i.d.f.% @ @ @ i Z.V.-.| w @ @ @ $ t.y.x.(.=.i 5 5 5 5 5 1 1 1 5 , U.! 2 5 5 @ @ @ @ @ @ @ O ",
"O @ @ @ @ @ @ O 1 1 1 > : 4 1 o.~.q.5 5 5 5 5 a B ` y 0 G H 1 1 1 k.,.8 8 >.v.1 1 ; b p.e.i @.n.l 5 5 5 5 1 7.^.%.1 1 : > 1 1 1 O @ @ @ @ @ @ O ",
"O @ @ @ @ @ @ O         1 1 1 !.`.[.O.1 1 5 5 O.A.8 1 a ~ G.1 1 1 ^ t i 4 j a.6 1 1 u.v o.5 i n.@.5 5 5 1 o._.].).1 5 $         O @ @ @ @ @ @ O ",
"O @ @ @ @ @ @ O           1 1 6.].'.i 1 1 1 5 N S.` i w.V.X.$ 1 1 m.N.8.8 Z s.1 1 1 b u.5 5 l n.l 4 1 1 1 i ).{.q.1 1           O @ @ @ @ @ @ O ",
"O O @ @ @ @ @ O             1 1 o.i 1 1 1 1 1 y 5.b.^ M.D.8 1 1 1 n B.I.Q j.V 1 1 1 7 a.l.z.c.=.y 1 1 1 1 1 i o.1 1             O @ @ @ @ @ O O ",
"O O @ @ @ @ @ O O           1 1 1 1 1 1 1 1 1 1 y h g m & 1 @ 1 1 $ M ..J - 1 1 @ 1 @ 7 c v z 5 1 1 1 1 1 1 1 @ 1 1           O O @ @ @ @ @ O O ",
"  O @ @ @ @ @ O O         X X X X X X X X X X X X X X                                     X o X X X X X X X X X X X X         O O @ @ @ @ @ O   ",
"  O @ @ @ @ @ @ O       . . . X X X . . . . . . .                                             . . . . . . . X X X . . .       O @ @ @ @ @ @ O   ",
"  O @ @ @ @ @ @ O     . . X X X O X X X X . . .                                                 . . . X X X X O X X X . .     O @ @ @ @ @ @ O   ",
"  O O @ @ @ @ @ O O     . X X O O O X X X .                                                         . X X X O O O X X .     O O @ @ @ @ @ O O   ",
"    O @ @ @ @ @ @ O     . X O O @ @ O X X .                                                         . X X O @ @ O O X .     O @ @ @ @ @ @ O     ",
"    O @ @ @ @ @ @ O O   . X O @ @ @ @ O X X                                                         X X O @ @ @ @ O X .   O O @ @ @ @ @ @ O     ",
"    O O @ @ @ @ @ @ O     X O @ @ @ @ O X X                                                         X X O @ @ @ O X X     O @ @ @ @ @ @ O O     ",
"      O @ @ @ @ @ @ @ O   X X X O O X X X X                                                         X X X X O O X X X   O @ @ @ @ @ @ @ O       ",
"      O @ @ @ @ @ @ @ O O     X X X X X                                                                 X X X X X     O O @ @ @ @ @ @ @ O       ",
"      O O @ @ @ @ @ @ @ O O                                                                                         O O @ @ @ @ @ @ @ @ O       ",
"        O @ @ @ @ @ @ @ O O                                                                                         O O @ @ @ @ @ @ @ O         ",
"        O O O O O O O O O O                                                                                         O O O O O O O O O O         ",
"          O O O O O                                                                                                         O O O O O           ",
"                                                                                                                                                ",
"                                                                                                                                                ",
"                                                                                                                                                ",
"                                                                                                                                                ",
"                                                                                                                                                ",
"                                                                                                                                                ",
"                                                                                                                                                ",
"                                                                                                                                                ",
"                                                                                                                                                ",
"                                                                                                                                                ",
"                                                                                                                                                ",
"                                                                                                                                                ",
"                                                                                                                                                ",
"                                                                                                                                                ",
"                                                                                                                                                "
};
