/* XPM */
static char *kcmpci_png_ico_1[] = {
/* columns rows colors chars-per-pixel */
"24 24 152 2 ",
"   c None",
".  c #060606",
"X  c #090909",
"o  c gray4",
"O  c gray5",
"+  c #101010",
"@  c #111111",
"#  c gray7",
"$  c #151515",
"%  c gray9",
"&  c #181818",
"*  c #191919",
"=  c #1A1918",
"-  c #1A1919",
";  c #1B1919",
":  c gray10",
">  c #1B1A1A",
",  c #1B1B1A",
"<  c #1B1B1B",
"1  c #1A1C1D",
"2  c gray11",
"3  c #1D1C1C",
"4  c #1C1D1C",
"5  c #1D1D1D",
"6  c #1E1E1E",
"7  c #1F1E1E",
"8  c #201E1E",
"9  c #1E201F",
"0  c #26221E",
"q  c #141B21",
"w  c #1A2225",
"e  c #1B2225",
"r  c #152633",
"t  c #222620",
"y  c #212325",
"u  c #222326",
"i  c #252324",
"p  c #252325",
"a  c #21262A",
"s  c #24272B",
"d  c #25272C",
"f  c #28272B",
"g  c #2C272F",
"h  c #2E272F",
"j  c #26292D",
"k  c #26292E",
"l  c gray16",
"z  c #282A29",
"x  c #2A2A2A",
"c  c gray17",
"v  c #292B2F",
"b  c #292C2F",
"n  c #362523",
"m  c #3E2727",
"M  c #212833",
"N  c #222833",
"B  c #232934",
"V  c #222A35",
"C  c #232A36",
"Z  c #242A35",
"A  c #272F36",
"S  c #282B31",
"D  c #282C31",
"F  c #282F35",
"G  c #3D2E34",
"H  c #2E3934",
"J  c #2C3338",
"K  c gray20",
"L  c #373737",
"P  c #3B3233",
"I  c #3B3334",
"U  c #3D3535",
"Y  c #303833",
"T  c #3D3A33",
"R  c #373E39",
"E  c #3F3F3F",
"W  c #462626",
"Q  c #402C23",
"!  c #4B2B2A",
"~  c #4F2B2B",
"^  c #4A2E2E",
"/  c #433D27",
"(  c #413333",
")  c #4E3A3A",
"_  c #513D37",
"`  c #673031",
"'  c #33472E",
"]  c #30493F",
"[  c #524B2A",
"{  c #10304A",
"}  c #183852",
"|  c #183952",
" . c #213240",
".. c #2F3643",
"X. c #2A3446",
"o. c #2A3447",
"O. c #2F3744",
"+. c #2D394A",
"@. c #2E394B",
"#. c #2E394C",
"$. c #2E394D",
"%. c #303846",
"&. c #313D4D",
"*. c #313D4E",
"=. c #323E4E",
"-. c #333F4F",
";. c #4A2F51",
":. c #502E55",
">. c #433051",
",. c #5C3955",
"<. c #334055",
"1. c #344055",
"2. c #374556",
"3. c #354258",
"4. c #364359",
"5. c #364459",
"6. c #374459",
"7. c #37455A",
"8. c #38465A",
"9. c #3A4858",
"0. c #424140",
"q. c #414142",
"w. c gray26",
"e. c #434343",
"r. c #444342",
"t. c #424345",
"y. c #434444",
"u. c gray28",
"i. c #494D43",
"p. c #474748",
"a. c #484848",
"s. c #494949",
"d. c #4C4C4C",
"f. c gray30",
"g. c #495046",
"h. c #505051",
"j. c #525251",
"k. c #535353",
"l. c #535554",
"z. c gray33",
"x. c #555555",
"c. c gray35",
"v. c #684A4A",
"b. c #485B63",
"n. c #4B5E65",
"m. c #4B5F66",
"M. c #605A65",
"N. c #635966",
"B. c #5F6061",
"V. c #5F6161",
"C. c #706F6F",
"Z. c #717070",
/* pixels */
"                                                ",
"                                                ",
"                                                ",
"                                                ",
"                                                ",
"      % 4                             4 %       ",
"    = = g M.V.d.s.s.s.s.s.s.s.s.d.V.M.g = =     ",
"  q { e >.:.! b O.%.%.%.%.%.%...v [ ,.;.e { q   ",
"  1 r a 0.I m D 1.6.8.6.4.6.4.<.S / T 0.a r 1   ",
"% 4 =     y.l.k $.9.m.b.m.b.2.$.k k.p.    = 4 % ",
"= 4 =     0.x.d o.@.=.=.=.=.@.o.s k.u.    = 4 = ",
"= 4 4   A d.c.u N C Z C C Z C N u x.k.A   4 4 = ",
"= 4 4  .} 0.0.l ( Q i R H i W ) l E r.}  .4 4 = ",
"= 4 =   F C.L Y g.t.f i._ n ` v.U K Z.J   = 4 = ",
"= 4 =   = l 4 9 P ' t ] G 0 ~ ^ 8 4 l =   = 4 = ",
"% 4 =   X O X .                 . X O X   = 4 % ",
"  = 4 % O = #                     # % O % 4 =   ",
"  = 4 = # #                         # # = 4 =   ",
"  % = =                                 = = %   ",
"                                                ",
"                                                ",
"                                                ",
"                                                ",
"                                                "
};
