/* XPM */
static char *leafpad_png_ico_4[] = {
/* columns rows colors chars-per-pixel */
"64 64 168 2 ",
"   c None",
".  c #44AA00",
"X  c #48AC06",
"o  c #4CAD0C",
"O  c #4FAE10",
"+  c #51AF13",
"@  c #53B015",
"#  c #56B11A",
"$  c #59B31E",
"%  c #589F2A",
"&  c #5D9B34",
"*  c #5F9B38",
"=  c #619B3B",
"-  c #5BA12D",
";  c #5DB423",
":  c #5EA231",
">  c #63B62C",
",  c #61A436",
"<  c #65A63A",
"1  c #69A83F",
"2  c #67B731",
"3  c #67B831",
"4  c #69B834",
"5  c #6EBA3B",
"6  c #71BB3F",
"7  c #619141",
"8  c #669F40",
"9  c #67A141",
"0  c #6CA547",
"q  c #6CAA43",
"w  c #6DA449",
"e  c #6FAC48",
"r  c #72AD4C",
"t  c #73BC43",
"y  c #76B04F",
"u  c #77BD49",
"i  c #7BBE4F",
"p  c #72A650",
"a  c #75AB52",
"s  c #78AA57",
"d  c #7BAD5B",
"f  c #77B151",
"g  c #79B254",
"h  c #7DBF51",
"j  c #7DB45A",
"k  c #7EC152",
"l  c #81B65E",
"z  c #80AF61",
"x  c #83B463",
"c  c #85B963",
"v  c #88BA67",
"b  c #8AB26F",
"n  c #8CBC6C",
"m  c #8CB670",
"M  c #8FBD71",
"N  c #90B577",
"B  c #90BD73",
"V  c #92B37C",
"C  c #95BE7A",
"Z  c #80C255",
"A  c #85C25C",
"S  c #88C55F",
"D  c #87C261",
"F  c #8BC464",
"G  c #8EC56A",
"H  c #91C66E",
"J  c #91C86C",
"K  c #94C474",
"L  c #96C874",
"P  c #96C379",
"I  c #99C57D",
"U  c #9BC97C",
"Y  c #8D9D82",
"T  c #8E9589",
"R  c #92968E",
"E  c #969C91",
"W  c #91A684",
"Q  c #93AA84",
"!  c #93A18A",
"~  c #96AE88",
"^  c #9CAF8F",
"/  c #96B581",
"(  c #99B686",
")  c #9ABB83",
"_  c #9DB68D",
"`  c #9DBA8A",
"'  c #98A191",
"]  c #9DAB93",
"[  c #A1BE8E",
"{  c #A3B796",
"}  c #A3BC93",
"|  c #B4B4B4",
" . c #BCBCBD",
".. c #9DC681",
"X. c #9FC983",
"o. c #9EC088",
"O. c #A0C786",
"+. c #A1C986",
"@. c #A2C28D",
"#. c #A4CB8B",
"$. c #A8CD8F",
"%. c #A6C293",
"&. c #A7CC90",
"*. c #ABCA96",
"=. c #ABCF94",
"-. c #ABCC96",
";. c #ACCD97",
":. c #AACE93",
">. c #ABC599",
",. c #ADD097",
"<. c #ADD096",
"1. c #AED097",
"2. c #ACD094",
"3. c #ADD096",
"4. c #AFD198",
"5. c #AFD199",
"6. c #AED098",
"7. c #AFD198",
"8. c #B0D29A",
"9. c #B1D29B",
"0. c #B0D39B",
"q. c #B1D29C",
"w. c #B2D39D",
"e. c #B3D39D",
"r. c #B3D39E",
"t. c #B3D49E",
"y. c #B4D49F",
"u. c #B2D39C",
"i. c #B9D7A6",
"p. c #BBD8A8",
"a. c #BEDAAC",
"s. c #B9C0B5",
"d. c #C0DBAE",
"f. c #C2D4B5",
"g. c #C5DBB6",
"h. c #C4DDB3",
"j. c #C8DFB8",
"k. c #CBE1BC",
"l. c #CDCDCD",
"z. c #CED2CC",
"x. c #D5D3D6",
"c. c #D6D6D6",
"v. c #DFDEDF",
"b. c #DEDEDE",
"n. c #CEE3C0",
"m. c #D2E5C6",
"M. c #D4E6C8",
"N. c #D8E7CD",
"B. c #D7E8CB",
"V. c #D8E9CE",
"C. c #DDEBD3",
"Z. c #E0EDD7",
"A. c #E4EFDC",
"S. c #E6F1DF",
"D. c #E7E7E7",
"F. c #EEEEEE",
"G. c #E7F1E1",
"H. c #EAF3E4",
"J. c #EFF5EB",
"K. c #EDF5E9",
"L. c #F0F7EC",
"P. c #F3F8EF",
"I. c #F4F4F4",
"U. c #F6FAF3",
"Y. c #F9FCF7",
"T. c white",
"R. c #FCFDFC",
"E. c #FFFFFF",
/* pixels */
"                                                                                                                                ",
"                                                                                                                                ",
"                                                                                                                                ",
"                    7 & & x 8 a a = x & d w 8 x & z 9 w d & x = p s * x : d r %                                                 ",
"                Q 0 l K N ` C ( ..N [ m ( C V o.m ` B V ) b ` n V C b ) v / m j e :                                             ",
"              s.j M r.t.^ E } R >.! ] _ E %.T { ~ E @.T } W ' ` T ` Y ] / T ` I P c <                                           ",
"             .f.y 5.r.r.*.} ;.[ -.@.@.&.` &.` @.@.` #.( @.o.( O./ o.) ) ..V ..I I I n <                                         ",
"            x.g.g r.r.r.9.9.5.5.1.1.1.-.=.=.=.$.#.#.#.+.#.#.+.+.+.X.+.+.......I I I I l -                                       ",
"            v.N.f 1.r.r.9.9.5.5.1.1.+.U -.=.=.$.#.&.L A S A X.+.+.+.+.L ......I I I I K <                                       ",
"            v.J.j +.y.r.9.9.5.5.1.1.+.F -.=.+.#.#.+.L G A F F +.+.+.+.J I ....I I I I P r                                       ",
"            v.R.I M y.r.r.9.5.5.5.1.=.A $.X.t G H i G t F U F L Z U S k L ......I I I I l -                                     ",
"            v.R.p.j r.r.r.9.9.5.5.1.1.F X.U D A X.U F F L A k +.+.F F L F ......I I I I n ,                                     ",
"            v.R.C.f ;.r.r.9.9.5.5.1.5.L L #.5 t L i h G L u G +.A Z F U G ......I I I I K 1                                     ",
"            v.R.U.l X.y.r.r.9.5.5.1.1.+.F =.A +.U F F G H G +.X.F L F L G I ....I I I I I r                                     ",
"            v.R.R...n y.r.r.9.5.5.5.1.=.i t F i A A t H H L U +.F k H F Z L ......I I I I l -                                   ",
"            v.R.R.d.j r.r.r.9.9.5.5.1.1.+.L #.U U +.U #.#.#.#.+.+.U #.X.+.+.......I I I I n ,                                   ",
"            v.R.R.Z.f -.r.r.9.9.5.5.1.1.;.;.=.=.=.$.$.#.#.#.#.+.+.+.+.+.X.X.......I I I I P q                                   ",
"            v.R.R.U.c ..y.r.r.9.5.5.1.1.;.=.=.=.=.$.#.#.#.+.#.+.+.+.+.+.+.X.........I I I I f                                   ",
"            v.R.R.R.+.n y.r.r.9.5.5.5.1.;.=.=.=.=.$.$.#.+.h X.#.+.+.+.+.+.X.X.......I I I I c -                                 ",
"            v.R.R.R.h.g r.r.r.9.9.5.5.1.1.=.=.=.=.$.$.#.#.2 F #.+.+.+.+.+.X.X.......I I I I M ,                                 ",
"            v.R.R.R.A.f =.r.r.9.9.5.5.1.1.;.=.=.=.=.$.#.&.5 4 #.+.+.+.+.+.X.X.......I I I I P q                                 ",
"            v.R.R.R.Y.c I y.r.r.9.5.5.5.1.;.;.=.=.=.=.#.=.i + U #.+.+.+.+.X.X.........I I I I g %                               ",
"            v.R.R.R.R.#.v y.r.r.9.5.5.5.1.;.;.=.=.=.=.$.=.F X F #.+.+.+.+.X.X.........I I I I c -                               ",
"            v.R.R.R.R.k.g 9.r.r.9.9.5.5.1.1.;.=.=.=.=.$.$.U o 5 #.+.+.+.+.+.X.........I I I I B <                               ",
"            v.R.R.R.R.G.g =.r.r.9.9.5.5.1.1.;.-.=.=.=.$.#.+.; $ +.+.+.+.+.+.X.........I I I I P e                               ",
"            v.R.R.R.R.R.n I y.r.r.9.5.1.5.1.;.;.=.=.=.$.#.#.6 X L #.+.+.+.+.X.X.........I I I I g -                             ",
"            v.R.R.R.R.R.-.c i.r.r.9.5.1.5.1.;.;.;.-.=.=.=.=.A . A #.#.+.+.X.+.+.X.......I I I I c :                             ",
"            v.R.R.R.R.R.n.g 9.r.r.9.9.5.5.1.1.+.F i t u A L L o 5 X.A 5 > ; > u G X.....I I I I K <                             ",
"            v.R.R.R.R.R.H.g #.r.r.9.9.5.5.;.A # . . . . . X $ X o # . . . . . . X 2 H ..I I I I P r                             ",
"            v.R.R.R.R.R.R.n P y.r.r.9.5.5.Z X . . . . . . . . . . . . . . . . . . . + A ..I I I I j -                           ",
"            v.R.R.R.R.R.R.5.c y.r.r.9.9.U O . . . . . . . . . . . . . . . . . . . . . o A ..I I I v :                           ",
"            v.R.R.R.R.R.R.m.f 5.r.r.9.r.h . . . . . . . . . . . . . . . . . . . . . . . @ H I I I K <                           ",
"            v.R.R.R.R.R.R.J.j #.r.r.9.5.4 . . . . . . . . . . . . . . . . . . . . . . . . 2 I I I P r                           ",
"            v.R.R.R.R.R.R.R.K K y.r.r.1.> . . . . . . . . . . . . . . . . . . . . . . . . X F ..I I j -                         ",
"            v.R.R.R.R.R.R.R.i.l r.r.r.5.2 . . . . . . . . . . . . . . . . . . . . . . . . . 4 ..I I n :                         ",
"            v.R.R.R.R.R.R.R.B.f 5.r.r.r.t . . . . . . . . . . . . . . . . . . . . . . . . . + L I I K 1                         ",
"            v.R.R.R.R.R.R.R.L.j +.y.r.r.A . . . . . . . . . . . . . . . . . . . . . . . . . . A ..I P r                         ",
"            v.R.R.R.R.R.R.R.R.P B y.r.r.U X . . . . . . . . . . . . . . . . . . . . . . . . . 6 ..I I l -                       ",
"            v.R.R.R.R.R.R.R.R.i.j r.r.r.2.; . . . . . . . . . . . . . . . . . . . . . . . . . > ..I I n ,                       ",
"            v.R.R.R.R.R.R.R.R.C.f 1.r.r.r.h . . . . . . . . . . . . . . . . . . . . . . . . . $ I I I K q                       ",
"            v.R.R.R.R.R.R.R.R.U.l +.y.r.r.X.o . . . . . . . . . . . . . . . . . . . . . . . . # I I I I y                       ",
"            v.R.R.R.R.R.R.R.R.R.I n y.r.r.9.5 . . . . . . . . . . . . . . . . . . . . . . . . @ I I I I c -                     ",
"            v.R.R.R.R.R.R.R.R.R.a.j r.r.r.r.U o . . . . . . . . . . . . . . . . . . . . . . . # I I I I n ,                     ",
"            v.R.R.R.R.R.R.R.R.R.C.f -.r.r.9.5.t . . . . . . . . . . . . . . . . . . . . . . . ; U I I I P q                     ",
"            v.R.R.R.R.R.R.R.R.R.U.c ..y.r.r.r.X.+ . . . . . . . . . . . . . . . . . . . . . . 3 X.I I I I f                     ",
"            v.R.R.R.R.R.R.R.R.R.R.X.n y.r.r.9.9.A . . . . . . . . . . . . . . . . . . . . . . t X.I I I I c -                   ",
"            v.R.R.R.R.R.R.R.R.R.R.h.g r.r.r.9.9.=.2 . . . . . . . . . . . . . . . . . . . . . F ..I I I I M ,                   ",
"            v.R.R.R.R.R.R.R.R.R.R.A.f =.r.r.9.9.9.U @ . . . . . . . . . . . . . . . . . . . @ L ..I I I I P e                   ",
"            v.R.R.R.R.R.R.R.R.R.R.Y.c ..i.r.r.9.5.9.G X . . . . . . . . . . . . . . . . . . 4 X.....I I I I g %                 ",
"            v.R.R.R.R.R.R.R.R.R.R.R.#.v i.r.r.9.5.5.5.k X . . . . . . . . . . . . . . . . . A X.....I I I I c -                 ",
"            v.R.R.R.R.R.R.R.R.R.R.R.k.g 9.r.r.9.9.5.5.2.t . . . . . . . . . . . . . . . . $ U ......I I I I B <                 ",
"            v.R.R.R.R.R.R.R.R.R.R.R.G.f #.r.r.9.9.5.5.5.=.t . . . . . . . . . . . . . . . k +.......I I I I P e                 ",
"            v.R.R.R.R.R.R.R.R.R.R.R.Y.v P y.r.r.9.5.5.5.1.$.t . . . . . . . . . . . . . $ U X.........I I I I g %               ",
"            v.R.R.R.R.R.R.R.R.R.R.R.R.=.c y.r.r.9.5.5.5.1.1.=.u X . . . . . . . . . . X A +.X.........I I I I c :               ",
"            v.R.R.R.R.R.R.R.R.R.R.R.R.k.f 9.r.r.9.9.5.1.1.1.;.=.A o . . . . . . . . . 4 +.+.X.........I I I I K <               ",
"            v.R.R.R.R.R.R.R.R.R.R.R.R.G.g #.r.r.9.9.5.5.1.1.;.=.-.H $ . . . . . . . # U +.+.X.........I I I I P e               ",
"            v.R.R.R.R.R.R.R.R.R.R.R.R.R.n P y.r.r.9.5.5.5.1.;.=.=.-.X.5 X . . . . o G +.+.+.X.X.........I I I I j -             ",
"            v.R.R.R.R.R.R.R.R.R.R.R.R.R.1.c y.r.r.9.5.5.5.1.;.=.=.=.=.$.F ; . . o F #.+.+.+.X.X.........I I I I v :             ",
"            b.R.R.R.R.R.R.R.R.R.R.R.R.R.M.f 1.r.r.9.9.5.5.1.1.;.=.=.=.=.=.+.Z > F #.+.+.+.+.+.X.........I I I I K <             ",
"            l.Y.R.R.R.R.R.R.R.R.R.R.R.R.Y.n n i.r.9.9.5.5.1.1.;.=.=.=.=.$.$.=.#.#.#.+.+.+.+.+.X.........I I I I K 1             ",
"            | D.R.R.R.R.R.R.R.R.R.R.R.R.R.B.f I r.r.9.5.5.5.1.;.=.=.=.=.$.$.#.#.#.#.+.+.+.+.+.X.X.........I I I M ,             ",
"               .F.R.R.R.R.R.R.R.R.R.R.R.R.R.k.g n =.9.9.9.5.5.1.1.;.-.=.=.$.$.#.#.#.#.#.+.+.+.+.+.X.........I K r -             ",
"                | v.I.R.R.R.R.R.R.R.R.R.R.R.R.C.K a j c c c c c c c c l c l l l l l l j j j j j j j j g g g f 1 -               ",
"                     .x.c.c.c.c.c.c.c.c.c.c.c.b.z./ = % % % % % % % % % % % % % % % % % % % % % % % % % % % %                   "
};
