/* XPM */
static char *libreoffice_math_png_ico_2[] = {
/* columns rows colors chars-per-pixel */
"32 32 232 2 ",
"   c None",
".  c #7C0000",
"X  c #7E0000",
"o  c #7F0000",
"O  c #800000",
"+  c #810000",
"@  c #830000",
"#  c #840000",
"$  c #860000",
"%  c #870000",
"&  c #870404",
"*  c #880000",
"=  c #890000",
"-  c #8B0000",
";  c #8D0000",
":  c #8E0000",
">  c #8F0000",
",  c #8C0909",
"<  c #8D0909",
"1  c #8C0B0B",
"2  c #8E0B0B",
"3  c #8C0D0D",
"4  c #900000",
"5  c #910000",
"6  c #900101",
"7  c #920000",
"8  c #930000",
"9  c #940000",
"0  c #950000",
"q  c #960000",
"w  c #970000",
"e  c #940202",
"r  c #970505",
"t  c #970606",
"y  c #980000",
"u  c #990000",
"i  c #9A0000",
"p  c #9B0000",
"a  c #9C0000",
"s  c #9D0000",
"d  c #9E0000",
"f  c #9F0000",
"g  c #9F0505",
"h  c #910B0B",
"j  c #930B0B",
"k  c #970909",
"l  c #960A0A",
"z  c #960B0B",
"x  c #980B0B",
"c  c #9B0B0B",
"v  c #9D0B0B",
"b  c #9E0C0C",
"n  c #951212",
"m  c #961515",
"M  c #961717",
"N  c #971717",
"B  c #9A1515",
"V  c #981717",
"C  c #981919",
"Z  c #9A1C1C",
"A  c #991F1F",
"S  c #A00000",
"D  c #A10000",
"F  c #A20000",
"G  c #A30000",
"H  c #A10202",
"J  c #A40000",
"K  c #A50000",
"L  c #A60000",
"P  c #A70000",
"I  c #A00505",
"U  c #A80000",
"Y  c #A90000",
"T  c #AA0000",
"R  c #AB0000",
"E  c #AC0000",
"W  c #AD0000",
"Q  c #AE0000",
"!  c #AF0000",
"~  c #AE0101",
"^  c #AF0101",
"/  c #AC0404",
"(  c #AC0505",
")  c #A00B0B",
"_  c #A20B0B",
"`  c #A50B0B",
"'  c #A70B0B",
"]  c #AA0B0B",
"[  c #AC0B0B",
"{  c #AD0B0B",
"}  c #AE0B0B",
"|  c #B00000",
" . c #B10000",
".. c #B00101",
"X. c #B10101",
"o. c #B20000",
"O. c #B30000",
"+. c #B20101",
"@. c #B30101",
"#. c #B40000",
"$. c #B50000",
"%. c #B40101",
"&. c #B50101",
"*. c #B60000",
"=. c #B70000",
"-. c #B60101",
";. c #B70101",
":. c #B80000",
">. c #B90000",
",. c #B80101",
"<. c #B90101",
"1. c #BA0000",
"2. c #BB0000",
"3. c #BA0101",
"4. c #BB0101",
"5. c #BC0000",
"6. c #BD0000",
"7. c #BC0101",
"8. c #BD0101",
"9. c #BE0101",
"0. c #BF0101",
"q. c #B00B0B",
"w. c #B00C0C",
"e. c #A11D1D",
"r. c #892B2B",
"t. c #932626",
"y. c #9E2D2D",
"u. c #9D2F2F",
"i. c #893A3A",
"p. c #9F3737",
"a. c brown",
"s. c #A33131",
"d. c #A43B3B",
"f. c #A13D3D",
"g. c #AA3E3E",
"h. c #C10101",
"j. c #C20101",
"k. c #C50101",
"l. c #C70202",
"z. c #9F5B5B",
"x. c #A34141",
"c. c #A64141",
"v. c #A54747",
"b. c #A94343",
"n. c #A94444",
"m. c #A24B4B",
"M. c #A44B4B",
"N. c #A84F4F",
"B. c #AC4D4D",
"V. c #A95454",
"C. c #AA5454",
"Z. c #AB5757",
"A. c #B05757",
"S. c #AE6060",
"D. c #AF6161",
"F. c #B26969",
"G. c #B76A6A",
"H. c #B76E6E",
"J. c #B76F6F",
"K. c #B27272",
"L. c #B47272",
"P. c #B67272",
"I. c #B77272",
"U. c #B77878",
"Y. c #BD7B7B",
"T. c #BB7E7E",
"R. c #BC7D7D",
"E. c #C85B5B",
"W. c #D27777",
"Q. c #D47F7F",
"!. c #AF8383",
"~. c #BD8282",
"^. c #BE8686",
"/. c #C38F8F",
"(. c #D38080",
"). c #D48080",
"_. c #D58080",
"`. c #D58181",
"'. c #D48383",
"]. c #C69292",
"[. c #C79898",
"{. c #CEA7A7",
"}. c #CFAAAA",
"|. c #CFABAB",
" X c #CBBCBC",
".X c #CEBFBF",
"XX c #D2B0B0",
"oX c #D3B0B0",
"OX c #D4B1B1",
"+X c #D4B3B3",
"@X c #D9BCBC",
"#X c #D9BFBF",
"$X c #DDC4C4",
"%X c #DDC6C6",
"&X c #E4C3C3",
"*X c #E5C3C3",
"=X c #E6C3C3",
"-X c #E7C3C3",
";X c #E8C3C3",
":X c #E9C3C3",
">X c #EBC2C2",
",X c #EAC3C3",
"<X c #EBC3C3",
"1X c #ECC5C5",
"2X c #E3CFCF",
"3X c #E4CECE",
"4X c #E7D6D6",
"5X c #E3D9D9",
"6X c #E8D8D8",
"7X c #EADDDD",
"8X c #EBDFDF",
"9X c #F0DCDC",
"0X c #EDE3E3",
"qX c #EEE5E5",
"wX c #F5E7E7",
"eX c #F2E9E9",
"rX c #F1EDED",
"tX c #F3ECEC",
"yX c #F3EDED",
"uX c #F5F0F0",
"iX c #F5F1F1",
"pX c #F7F4F4",
"aX c #F8F5F5",
"sX c #F8F6F6",
"dX c #F9F7F7",
"fX c #FCF7F7",
"gX c #FAF9F9",
"hX c #FCFBFB",
"jX c gray99",
"kX c #FDFCFC",
"lX c #FEFEFE",
"zX c white",
/* pixels */
"    k.h.0.0.:.:.:.:.:.=.=.=.=.=.@.@.@.@.W W W W q.>XzXzXzX(.L L ",
"  k.:.W T T T T T T T T T T T T T T T T T T T T } >XzXzXzX'.T L ",
"  :.T T T T D s s L T T T T L s s s L T T T T T } >XzXzXzX'.T L ",
"h.W T T T b G.T.R.s.D T T L B H.T.Y.a.L T T T T } >XzXzXzX'.T L ",
"0.W T T L y.yXzXzXOXl T L M {.zXzXdXd.L T T T T } >XzXzXzX'.T L ",
"0.W T T D C.zXzXzXdXC.p M }.zXzXzX6XC T T T T L ] >XzXzXzX'.T D ",
"0.W T T p ~.zXzXzXzX#Xr.}.zXzXzXzXOXr T T T L L ' >XzXzXzX'.T D ",
"0.T T T r oXzXzXzXzXgX5XzXzXzXzXzX^.p T T L D D ' >XzXzXzX'.T D ",
":.T T T B 4XzXzXzXzXzXzXzXzXzXzXzXC.D T L D D s _ >XzXzXzX'.T D ",
":.T T L p.iXzXdX.XhXzXzXyX XzXzXyXy.L L D D s p _ >XzXzXzX'.T D ",
":.T T D D.zXzX0Xi.#XzXeXz.!.zXzX2Xn L D D s p 0 v >XzXzXzX'.T s ",
":.T T p /.zXzX%X< v.3XN.& oXzXzX{.0 D D s p 0 7 c -XzXzXzX'.T s ",
"=.T T l #XzXzX[.p I e.s M 4XzXzXU.0 D s p 0 7 7 c -XzXzXzX'.T s ",
"=.T L Z 7XzXzXF.s T T L p.iXzXgXm.p s p 0 7 : : l -XzXzXzX'.T s ",
"=.T D x.dXzXpXf.L T T s D.zXzXqXt.p p 0 7 : = = j -XzXzXzX'.T s ",
"=.T s H.zXzX7XZ T T T s ].zXzX%X3 p 0 7 : = = $ j -XzXzXzX'.T p ",
"@.T L g.I.I.A.g T T T D B.I.K.M.7 0 7 : = $ $ @ < -XzXzXzX'.T p ",
"@.T T L s s D T T T T L s 0 7 7 0 7 : = = $ @ @ < -XzXzXzX'.T p ",
"@.T T T T T T T T T L D D s p 0 7 : = $ $ @ X X < -XzXzXzX'.T p ",
"@.T T T T T T T T L D D s p 0 7 : = $ $ @ X X @ n.wXzXzXzX'.T p ",
"@.T T T T T T T L D D s p 0 7 : = = $ @ X X X c.9XzXzXzXzX'.T p ",
"W T T T T T T L D D s p 0 7 : = $ $ @ X X X c.7XzXzXzXzXfXE.T 0 ",
"W T T T T T L D D s p 0 7 : = = $ @ X X X c.9XzXzXzXzXfXW.( L 7 ",
"W T T T T L L D s p 0 7 7 : = $ @ @ X @ c.9XzXzXzXzXfXW.( L 0   ",
"w.} } } } ] ' ' _ _ v c c l j j < < < b.9XzXzXzXzXfXW.( L 0     ",
"1X>X>X>X>X>X>X>X>X>X>X-X-X-X-X-X-X-X-XwXzXzXzXzXfXW.( L 0       ",
"zXzXzXzXzXzXzXzXzXzXzXzXzXzXzXzXzXzXzXzXzXzXzXfXW.( L 0         ",
"zXzXzXzXzXzXzXzXzXzXzXzXzXzXzXzXzXzXzXzXzXzXfXW.( L 0           ",
"zXzXzXzXzXzXzXzXzXzXzXzXzXzXzXzXzXzXzXzXzXfXW.( L 0             ",
"'.Q.'.'.'.'.'.'.'.'.'.'.'.'.'.Q.'.'.'.'.'.E.( L 0               ",
"L T T T T T T T T T T T T T T T T T T T L T L 0                 ",
"L L L L D D D D s s s s s p p p p p 0 0 0 0 7                   "
};
