/* XPM */
static char *libreoffice_math_png_ico_5[] = {
/* columns rows colors chars-per-pixel */
"72 72 144 2 ",
"   c None",
".  c #5E0000",
"X  c #5F1414",
"o  c #650000",
"O  c #740202",
"+  c #7E0000",
"@  c #740E0E",
"#  c #7E0B0B",
"$  c #7B1515",
"%  c #761E1E",
"&  c #7E1B1B",
"*  c #642424",
"=  c #703434",
"-  c #7D3131",
";  c #840000",
":  c #8B0000",
">  c #930000",
",  c #9B0000",
"<  c #920E0E",
"1  c #990D0D",
"2  c #801212",
"3  c #841B1B",
"4  c #8D1C1C",
"5  c #931C1C",
"6  c #A40000",
"7  c #AA0000",
"8  c #B40000",
"9  c #BB0101",
"0  c #862525",
"q  c #8D2222",
"w  c #8C2E2E",
"e  c #922222",
"r  c #932D2D",
"t  c #982D2D",
"y  c #873333",
"u  c #8C3434",
"i  c #8F3C3C",
"p  c #943E3E",
"a  c #A13B3B",
"s  c #BC3535",
"d  c #C40101",
"f  c #C80202",
"g  c #944444",
"h  c #974B4B",
"j  c #9A4A4A",
"k  c #855656",
"l  c #975555",
"z  c #9C5555",
"x  c #9E5A5A",
"c  c #A54343",
"v  c #A45555",
"b  c #AC5555",
"n  c #A05E5E",
"m  c #A95A5A",
"M  c #B75B5B",
"N  c #BB5B5B",
"B  c #8F6969",
"V  c #9A6767",
"C  c #8C7575",
"Z  c #A26363",
"A  c #A66A6A",
"S  c #A86C6C",
"D  c #AC7474",
"F  c #AE7A7A",
"G  c #B27D7D",
"H  c #C14444",
"J  c #C45C5C",
"K  c #C95C5C",
"L  c #CB6363",
"P  c #CC6D6D",
"I  c #B58585",
"U  c #B78A8A",
"Y  c #BD8D8D",
"T  c #AA9797",
"R  c #BD9292",
"E  c #BB9C9C",
"W  c #C19A9A",
"Q  c #D19898",
"!  c #C6A2A2",
"~  c #CAAAAA",
"^  c #D7A2A2",
"/  c #C1B1B1",
"(  c #CFB2B2",
")  c #D1B5B5",
"_  c #D5BCBC",
"`  c #D4C4C4",
"'  c #DAC4C4",
"]  c #DFCDCD",
"[  c #DECACA",
"{  c #E1D0D0",
"}  c #E6D3D3",
"|  c #E5D6D6",
" . c #E2D2D2",
".. c #E7D9D9",
"X. c #E7DADA",
"o. c #EADEDE",
"O. c #EBDEDE",
"+. c #E9DCDC",
"@. c #F4DEDE",
"#. c #ECE0E0",
"$. c #EFE2E2",
"%. c #EDE4E4",
"&. c #EEE6E6",
"*. c #EEE7E7",
"=. c #EDE3E3",
"-. c #ECEAEA",
";. c #F1EAEA",
":. c #F1EBEB",
">. c #F2EAEA",
",. c #F2EBEB",
"<. c #F3EBEB",
"1. c #F2ECEC",
"2. c #F3ECEC",
"3. c #F2EDED",
"4. c #F3EDED",
"5. c #F2EEEE",
"6. c #F3EEEE",
"7. c #F4EDED",
"8. c #F4EEEE",
"9. c #F4EFEF",
"0. c #F3EDED",
"q. c #F3F1F1",
"w. c #F5F0F0",
"e. c #F5F1F1",
"r. c #F6F1F1",
"t. c #F6F2F2",
"y. c #F5F4F4",
"u. c #F7F4F4",
"i. c #F8F5F5",
"p. c #FAF6F6",
"a. c #FAF7F7",
"s. c #F9F6F6",
"d. c #F9F8F8",
"f. c #FAF8F8",
"g. c #FBF9F9",
"h. c #FBFAFA",
"j. c #FCFBFB",
"k. c gray99",
"l. c #FDFCFC",
"z. c #FDFDFD",
"x. c #FEFEFE",
"c. c #FFFEFE",
"v. c white",
"b. c #FFFFFF",
/* pixels */
"              f f f f f f f f f d d d d d d 9 9 9 9 9 9 9 9 9 9 9 9 9 9 9 8 8 8 8 8 8 8 8 8 8 8 8 8 8 7 7 7 7 7 K v.v.v.v.v.v.v.v.v.L 6 6 6 6 6 ",
"          f f f d 9 9 9 9 9 9 9 9 9 9 9 9 9 8 8 8 8 8 8 8 8 8 8 8 8 8 8 8 8 8 8 8 8 8 8 8 8 7 7 7 7 7 7 7 7 7 7 K v.v.v.v.v.v.v.v.v.L 6 6 6 6 6 ",
"        f f 9 8 7 7 7 7 7 7 7 7 7 7 7 7 7 7 7 7 7 7 7 7 7 7 7 7 7 7 7 7 7 7 7 7 7 7 7 7 7 7 7 7 7 7 7 7 7 7 7 7 K v.v.v.v.v.v.v.v.v.L 7 7 7 6 6 ",
"      f f 8 7 7 7 7 7 7 7 7 7 7 7 7 7 7 7 7 7 7 7 7 7 7 7 7 7 7 7 7 7 7 7 7 7 7 7 7 7 7 7 7 7 7 7 7 7 7 7 7 7 7 K v.v.v.v.v.v.v.v.v.L 7 7 7 6 6 ",
"    f f 8 7 7 7 7 7 7 7 7 7 7 7 7 7 7 7 7 7 7 7 7 7 7 7 7 7 7 7 7 7 7 7 7 7 7 7 7 7 7 7 7 7 7 7 7 7 7 7 7 7 7 7 K v.v.v.v.v.v.v.v.v.L 7 7 7 6 6 ",
"  f f 8 7 7 7 7 7 7 7 7 7 7 6 6 6 6 6 6 6 7 7 7 7 7 7 7 7 7 7 7 7 7 6 6 6 6 6 6 6 7 7 7 7 7 7 7 7 7 7 7 7 7 7 7 K v.v.v.v.v.v.v.v.v.L 7 7 7 6 6 ",
"  f 9 7 7 7 7 7 7 7 7 7 6 , > > > > > > , 6 6 7 7 7 7 7 7 7 7 7 6 6 , > > > > > , 6 6 7 7 7 7 7 7 7 7 7 7 7 7 7 K v.v.v.v.v.v.v.v.v.L 7 7 7 6 6 ",
"f f 8 7 7 7 7 7 7 7 7 6 , < r w w w w w e > 6 6 7 7 7 7 7 7 7 6 , : q w w w w w t 1 6 7 7 7 7 7 7 7 7 7 7 7 7 7 K v.v.v.v.v.v.v.v.v.L 7 7 7 6 6 ",
"f f 7 7 7 7 7 7 7 7 7 6 : m <.2.2.2.2.8.} w > 6 7 7 7 7 7 7 6 , ; v o.2.2.2.2.2.#.a , 6 7 7 7 7 7 7 7 7 7 7 7 6 K v.v.v.v.v.v.v.v.v.L 7 7 7 6 6 ",
"f d 7 7 7 7 7 7 7 7 7 , ; Y v.v.v.v.v.v.v.R + , 6 7 7 7 7 6 > + x <.v.v.v.v.v.v.#.q > 6 7 7 7 7 7 7 7 7 7 7 7 6 K v.v.v.v.v.v.v.v.v.L 7 7 7 6 , ",
"f d 7 7 7 7 7 7 7 7 6 , # _ v.v.v.v.v.v.v.<.u : 6 7 7 7 6 > + x <.v.v.v.v.v.v.v._ # , 6 7 7 7 7 7 7 7 7 7 7 7 6 K v.v.v.v.v.v.v.v.v.L 7 7 7 6 , ",
"f d 7 7 7 7 7 7 7 7 6 > 3 o.v.v.v.v.v.v.v.v.! # , 6 7 6 > + n 2.v.v.v.v.v.v.v.v.R ; , 7 7 7 7 7 7 7 7 7 7 6 6 6 K v.v.v.v.v.v.v.v.v.L 7 7 7 6 , ",
"f d 7 7 7 7 7 7 7 7 6 : g i.v.v.v.v.v.v.v.v.t.g : , 6 > + Z 2.v.v.v.v.v.v.v.v.v.Z ; 6 7 7 7 7 7 7 7 7 6 6 6 6 6 K v.v.v.v.v.v.v.v.v.L 7 7 7 6 , ",
"f 9 7 7 7 7 7 7 7 7 6 ; S v.v.v.v.v.v.v.v.v.v.( # > > + Z 8.v.v.v.v.v.v.v.v.v.t.u : 6 7 7 7 7 7 7 7 6 6 6 6 6 6 K v.v.v.v.v.v.v.v.v.L 7 7 7 6 , ",
"f 9 7 7 7 7 7 7 7 7 , + W v.v.v.v.v.v.v.v.v.v.i.l O O Z t.v.v.v.v.v.v.v.v.v.v.| 3 > 6 7 7 7 7 7 7 6 6 6 6 6 6 6 K v.v.v.v.v.v.v.v.v.L 7 7 7 6 , ",
"d 9 7 7 7 7 7 7 7 6 , # ' v.v.v.v.v.v.v.v.v.v.v.` X V t.v.v.v.v.v.v.v.v.v.v.v.( # , 7 7 7 7 7 7 6 6 6 6 6 6 6 6 K v.v.v.v.v.v.v.v.v.L 7 7 7 6 , ",
"d 9 7 7 7 7 7 7 7 6 > 0 &.v.v.v.v.v.v.v.v.v.v.v.g./ 2.v.v.v.v.v.v.v.v.v.v.v.v.I ; , 7 7 7 7 7 6 6 6 6 6 6 6 6 6 K v.v.v.v.v.v.v.v.v.L 7 7 7 6 , ",
"d 9 7 7 7 7 7 7 7 6 : h g.v.v.v.v.v.v.v.v.v.v.v.v.v.v.v.v.v.v.v.v.v.v.v.v.v.v.z : 6 7 7 7 7 6 6 6 6 6 6 6 , , , K v.v.v.v.v.v.v.v.v.L 7 7 7 6 , ",
"d 9 7 7 7 7 7 7 7 6 ; F v.v.v.v.v.v.v.v.v.v.v.v.v.v.v.v.v.v.v.v.v.v.v.v.v.v.<.w > 6 7 7 7 6 6 6 6 6 6 6 , , , , J v.v.v.v.v.v.v.v.v.L 7 7 7 6 , ",
"d 9 7 7 7 7 7 7 7 , + ~ v.v.v.v.v.v.v.v.v.v.v.v.v.v.v.v.v.v.v.v.v.v.v.v.v.v.] 2 > 6 7 7 6 6 6 6 6 6 , , , , , , J v.v.v.v.v.v.v.v.v.L 7 7 7 6 , ",
"d 9 7 7 7 7 7 7 6 > 2 { v.v.v.v.v.v.q.g.v.v.v.v.v.v.v.v.v.v.-.g.v.v.v.v.v.v.! + , 6 7 6 6 6 6 6 6 , , , , , , , J v.v.v.v.v.v.v.v.v.L 7 7 7 6 , ",
"d 9 7 7 7 7 7 7 6 > u 2.v.v.v.v.v.v.T / v.v.v.v.v.v.v.v.v.` C y.v.v.v.v.v.v.D ; , 6 6 6 6 6 6 6 , , , , , , , , J v.v.v.v.v.v.v.v.v.L 7 7 7 6 , ",
"9 9 7 7 7 7 7 7 6 : x v.v.v.v.v.v.v.k = &.v.v.v.v.v.v.v._ * B v.v.v.v.v.v.g.j : 6 7 6 6 6 6 6 6 , , , , , , , , J v.v.v.v.v.v.v.v.v.L 6 7 7 6 , ",
"9 9 7 7 7 7 7 7 , ; I v.v.v.v.v.v.2.- o F v.v.v.v.v.v.~ % . E v.v.v.v.v.v.&.0 > 6 6 6 6 6 6 , , , , , , > > , , J v.v.v.v.v.v.v.v.v.L 7 7 7 6 > ",
"9 9 7 7 7 7 7 7 , # ) v.v.v.v.v.v.{ $ + $ ' v.v.v.v.! $ + @ ' v.v.v.v.v.v.' # > 6 6 6 6 6 , , , , , , > > > > > J v.v.v.v.v.v.v.v.v.L 7 7 7 6 > ",
"9 9 7 7 7 7 7 6 > 3 ..v.v.v.v.v.v.~ + > ; g 8.v.j.R # : : 0 &.v.v.v.v.v.v.W + , 6 6 6 6 , , , , , , > > > > > > N v.v.v.v.v.v.v.v.v.L 7 7 7 6 > ",
"9 9 7 7 7 7 7 6 : i t.v.v.v.v.v.v.F ; , , ; Y i.G # > , : h g.v.v.v.v.v.v.A ; , 6 6 6 , , , , , , > > > > > > > N v.v.v.v.v.v.v.v.v.L 7 7 7 6 > ",
"9 9 7 7 7 7 7 6 ; Z v.v.v.v.v.v.g.h : 6 6 > 5 b : > 6 , ; G v.v.v.v.v.v.y.i : , 6 6 , , , , , , > > > > > > > > N v.v.v.v.v.v.v.v.v.L 7 7 7 6 > ",
"9 9 7 7 7 7 7 , ; R v.v.v.v.v.v.&.0 > 6 7 6 , , , 6 6 , + ~ v.v.v.v.v.v.o.3 : , 6 , , , , , , > > > > > : > > > N v.v.v.v.v.v.v.v.v.L 7 7 7 6 > ",
"9 9 7 7 7 7 6 , # _ v.v.v.v.v.v.' # , 6 7 7 6 6 7 7 6 > 2 { v.v.v.v.v.v.) # > , , , , , , , > > > > > : : : > > N v.v.v.v.v.v.v.v.v.L 7 7 7 , > ",
"9 9 7 7 7 7 6 > 0 #.v.v.v.v.v.v.W + , 7 7 7 7 7 7 7 6 : u 2.v.v.v.v.v.v.U + > , , , , , , > > > > > : : : : : > N v.v.v.v.v.v.v.v.v.L 7 7 7 , > ",
"9 8 7 7 7 7 6 : g i.v.v.v.v.v.v.A ; 6 7 7 7 7 7 7 7 6 : x v.v.v.v.v.v.v.x ; , , , , , , > > > > > : : : : : : > N v.v.v.v.v.v.v.v.v.L 7 7 7 , > ",
"9 8 7 7 7 7 6 ; D v.v.v.v.v.v.i.p : 6 7 7 7 7 7 7 7 , ; U v.v.v.v.v.v.2.y ; , , , , , > > > > > : : : : : : : : N v.v.v.v.v.v.v.v.v.L 7 7 7 , > ",
"9 8 7 7 7 7 , + ! v.v.v.v.v.v.o.3 > 6 7 7 7 7 7 7 7 , # ) v.v.v.v.v.v.{ $ : , , , , > > > > > : : : : : : : : : N v.v.v.v.v.v.v.v.v.L 7 7 7 , > ",
"9 8 7 7 7 6 , 2 [ v.v.v.v.v.v._ # , 6 7 7 7 7 7 7 6 > 3 ..v.v.v.v.v.v.~ O : , , , > > > > > : : : : : ; ; ; : : N v.v.v.v.v.v.v.v.v.L 7 7 7 , > ",
"9 8 7 7 7 6 > r <.v.v.v.v.v.v.Y ; , 7 7 7 7 7 7 7 6 > p i.v.v.v.v.v.v.G + > , , > > > > > : : : : : ; ; ; ; : : N v.v.v.v.v.v.v.v.v.L 7 7 7 , > ",
"8 8 7 7 7 7 , c X.o.o.o.o.o.o.v > 6 7 7 7 7 7 7 7 6 > b o.o.o.o.o.o.X.j ; > > > > > > > : : : : : ; ; ; ; ; ; : N v.v.v.v.v.v.v.v.v.L 7 7 7 , > ",
"8 8 7 7 7 7 6 1 5 3 3 3 3 3 4 < , 6 7 7 7 7 7 7 7 6 , < 4 3 & & & & 3 : : > > > > > > : : : : : ; ; ; ; ; ; ; : N v.v.v.v.v.v.v.v.v.L 7 7 7 , > ",
"8 8 7 7 7 7 6 6 , > > > > > , 6 6 7 7 7 7 7 7 7 7 6 6 , > > : : : : : > > > > > > > : : : : : ; ; ; ; ; ; ; ; : N v.v.v.v.v.v.v.v.v.L 7 7 7 , : ",
"8 8 7 7 7 7 7 7 6 6 6 6 6 6 6 7 7 7 7 7 7 7 7 7 6 6 6 6 6 , , , , , , > > > > > > : : : : : ; ; ; ; ; + + ; ; ; N v.v.v.v.v.v.v.v.v.L 7 7 7 , : ",
"8 8 7 7 7 7 7 7 7 7 7 7 7 7 7 7 7 7 7 7 7 7 7 6 6 6 6 6 6 , , , , , , > > > > > : : : : : ; ; ; ; ; + + + + ; ; N v.v.v.v.v.v.v.v.v.L 7 7 7 , : ",
"8 8 7 7 7 7 7 7 7 7 7 7 7 7 7 7 7 7 7 7 7 7 6 6 6 6 6 6 , , , , , , > > > > > : : : : : ; ; ; ; ; + + + + + ; : N v.v.v.v.v.v.v.v.v.L 7 7 7 , : ",
"8 8 7 7 7 7 7 7 7 7 7 7 7 7 7 7 7 7 7 7 7 6 6 6 6 6 6 , , , , , > > > > > > : : : : : ; ; ; ; ; + + + + + ; ; : M v.v.v.v.v.v.v.v.v.L 7 7 7 , : ",
"8 8 7 7 7 7 7 7 7 7 7 7 7 7 7 7 7 7 7 7 6 6 6 6 6 6 , , , , , , > > > > > : : : : : ; ; ; ; ; + + + + + + ; ; < ^ v.v.v.v.v.v.v.v.v.L 7 7 7 , : ",
"8 8 7 7 7 7 7 7 7 7 7 7 7 7 7 7 7 7 7 6 6 6 6 6 6 , , , , , , > > > > > : : : : : ; ; ; ; ; + + + + + + ; ; < Q v.v.v.v.v.v.v.v.v.v.L 7 7 7 , : ",
"8 8 7 7 7 7 7 7 7 7 7 7 7 7 7 7 7 7 6 6 6 6 6 6 , , , , , , > > > > > : : : : : ; ; ; ; ; + + + + + + ; ; < Q v.v.v.v.v.v.v.v.v.v.v.L 7 7 7 , : ",
"8 8 7 7 7 7 7 7 7 7 7 7 7 7 7 7 7 6 6 6 6 6 6 , , , , , , > > > > > : : : : : ; ; ; ; ; + + + + + + ; ; < Q v.v.v.v.v.v.v.v.v.v.v.v.L 7 7 7 , : ",
"8 8 7 7 7 7 7 7 7 7 7 7 7 7 7 7 6 6 6 6 6 6 , , , , , , > > > > > : : : : : ; ; ; ; ; + + + + + + ; ; < Q v.v.v.v.v.v.v.v.v.v.v.v.v.L 7 7 7 , : ",
"8 7 7 7 7 7 7 7 7 7 7 7 7 7 7 6 6 6 6 6 6 , , , , , , > > > > > : : : : : ; ; ; ; ; + + + + + + ; ; < Q v.v.v.v.v.v.v.v.v.v.v.v.v.@.s 7 7 7 , : ",
"8 7 7 7 7 7 7 7 7 7 7 7 7 7 6 6 6 6 6 6 , , , , , , > > > > > : : : : : ; ; ; ; ; + + + + + + ; ; < Q v.v.v.v.v.v.v.v.v.v.v.v.v.@.H 7 7 7 7 , : ",
"7 7 7 7 7 7 7 7 7 7 7 7 7 6 6 6 6 6 6 , , , , , , > > > > > : : : : : ; ; ; ; ; + + + + + + ; ; < Q v.v.v.v.v.v.v.v.v.v.v.v.v.@.H 7 7 7 7 7 > : ",
"7 7 7 7 7 7 7 7 7 7 7 7 6 6 6 6 6 6 6 , , , , , > > > > > : : : : : ; ; ; ; ; + + + + + + ; ; < Q v.v.v.v.v.v.v.v.v.v.v.v.v.@.H 7 7 7 7 7 , : : ",
"7 7 7 7 7 7 7 7 7 7 7 7 6 6 6 6 6 6 , , , , , > > > > > > : : : : : ; ; ; ; ; + + + + + ; ; < Q v.v.v.v.v.v.v.v.v.v.v.v.v.@.H 7 7 7 7 7 , : :   ",
"7 7 7 7 7 7 7 7 7 7 7 6 6 6 6 6 6 , , , , , , > > > > > > : : : : : ; ; ; ; ; ; + + ; ; ; < Q v.v.v.v.v.v.v.v.v.v.v.v.v.@.H 7 7 7 7 7 > : :     ",
"7 7 7 7 7 7 7 7 7 7 7 6 6 6 6 6 6 , , , , , , , > > > > > > : : : : : : ; ; ; ; ; ; ; ; < Q v.v.v.v.v.v.v.v.v.v.v.v.v.@.H 7 7 7 7 7 , : :       ",
"7 7 7 7 7 7 7 7 6 6 6 6 6 6 6 6 6 , , , , , , , > > > > > > > > : : : : : : : ; ; : : < Q v.v.v.v.v.v.v.v.v.v.v.v.v.@.H 7 7 7 7 7 , : :         ",
"L K K K K K K K K K J J J J J J J J J J J J J J N N N N N N N M M M M M M M M M M M M ^ v.v.v.v.v.v.v.v.v.v.v.v.v.@.H 7 7 7 7 7 , : :           ",
"v.v.v.v.v.v.v.v.v.v.v.v.v.v.v.v.v.v.v.v.v.v.v.v.v.v.v.v.v.v.v.v.v.v.v.v.v.v.v.v.v.v.v.v.v.v.v.v.v.v.v.v.v.v.v.v.@.H 7 7 7 7 7 , : :             ",
"v.v.v.v.v.v.v.v.v.v.v.v.v.v.v.v.v.v.v.v.v.v.v.v.v.v.v.v.v.v.v.v.v.v.v.v.v.v.v.v.v.v.v.v.v.v.v.v.v.v.v.v.v.v.v.@.H 7 7 7 7 7 , : :               ",
"v.v.v.v.v.v.v.v.v.v.v.v.v.v.v.v.v.v.v.v.v.v.v.v.v.v.v.v.v.v.v.v.v.v.v.v.v.v.v.v.v.v.v.v.v.v.v.v.v.v.v.v.v.v.@.H 7 7 7 7 7 , : :                 ",
"v.v.v.v.v.v.v.v.v.v.v.v.v.v.v.v.v.v.v.v.v.v.v.v.v.v.v.v.v.v.v.v.v.v.v.v.v.v.v.v.v.v.v.v.v.v.v.v.v.v.v.v.v.@.H 7 7 7 7 7 , : ;                   ",
"v.v.v.v.v.v.v.v.v.v.v.v.v.v.v.v.v.v.v.v.v.v.v.v.v.v.v.v.v.v.v.v.v.v.v.v.v.v.v.v.v.v.v.v.v.v.v.v.v.v.v.v.@.H 7 7 7 7 7 , : :                     ",
"v.v.v.v.v.v.v.v.v.v.v.v.v.v.v.v.v.v.v.v.v.v.v.v.v.v.v.v.v.v.v.v.v.v.v.v.v.v.v.v.v.v.v.v.v.v.v.v.v.v.v.@.H 7 7 7 7 7 , : :                       ",
"v.v.v.v.v.v.v.v.v.v.v.v.v.v.v.v.v.v.v.v.v.v.v.v.v.v.v.v.v.v.v.v.v.v.v.v.v.v.v.v.v.v.v.v.v.v.v.v.v.v.@.H 7 7 7 7 7 > : :                         ",
"v.v.v.v.v.v.v.v.v.v.v.v.v.v.v.v.v.v.v.v.v.v.v.v.v.v.v.v.v.v.v.v.v.v.v.v.v.v.v.v.v.v.v.v.v.v.v.v.v.@.H 7 7 7 7 7 , : :                           ",
"v.v.v.v.v.v.v.v.v.v.v.v.v.v.v.v.v.v.v.v.v.v.v.v.v.v.v.v.v.v.v.v.v.v.v.v.v.v.v.v.v.v.v.v.v.v.v.v.@.H 7 7 7 7 7 , : :                             ",
"P L L L L L L L L L L L L L L L L L L L L L L L L L L L L L L L L L L L L L L L L L L L L L L L s 7 7 7 7 7 , : :                               ",
"6 6 7 7 7 7 7 7 7 7 7 7 7 7 7 7 7 7 7 7 7 7 7 7 7 7 7 7 7 7 7 7 7 7 7 6 7 7 7 7 7 7 7 7 7 7 7 7 7 7 7 7 7 , : :                                 ",
"6 6 7 7 7 7 7 7 7 7 7 7 7 7 7 7 7 7 7 7 7 7 7 7 7 7 7 7 7 7 7 7 7 7 7 7 7 7 7 7 7 7 7 7 7 7 7 7 7 7 7 7 , : ;                                   ",
"6 6 7 7 7 7 7 7 7 7 7 7 7 7 7 7 7 7 7 7 7 7 7 7 7 7 7 7 7 7 7 7 7 7 7 7 7 7 7 7 7 7 7 7 7 7 7 7 7 7 7 , : :                                     ",
"6 6 6 6 6 6 6 6 6 6 6 6 6 6 6 6 6 6 6 6 , , , , , , , , , , , , , , , , , , , , , , > > > > > > > > > : :                                       ",
"6 6 6 6 6 6 6 6 6 , , , , , , , , , , , , , , > > > > > > > > > > > > > > > : : : : : : : : : : : ; : :                                         "
};
