/* XPM */
static char *libreoffice_base_png_ico_3[] = {
/* columns rows colors chars-per-pixel */
"48 48 135 2 ",
"   c None",
".  c #36004E",
"X  c #3D004D",
"o  c #370050",
"O  c #3B0054",
"+  c #430055",
"@  c #43005C",
"#  c #49005C",
"$  c #460060",
"%  c #4B0063",
"&  c #4F0069",
"*  c #510166",
"=  c #520C63",
"-  c #54006C",
";  c #58036E",
":  c #590C6D",
">  c #5A126D",
",  c #570070",
"<  c #5B0074",
"1  c #5E0D73",
"2  c #5E0078",
"3  c #5E1571",
"4  c #600177",
"5  c #610877",
"6  c #63007D",
"7  c #621B75",
"8  c #5E256C",
"9  c #652276",
"0  c #612875",
"q  c #672578",
"w  c #682579",
"e  c #6E337D",
"r  c #6E387C",
"t  c #660080",
"y  c #6A0085",
"u  c #6E008A",
"i  c #71008D",
"p  c #781E8F",
"a  c #750092",
"s  c #780197",
"d  c #7C019C",
"f  c #743D82",
"g  c #7E2794",
"h  c #7E2894",
"j  c #7F00A0",
"k  c #774284",
"l  c #77448A",
"z  c #7A458C",
"x  c #7E4B8B",
"c  c #7E4591",
"v  c #8301A3",
"b  c #8702A9",
"n  c #8902AC",
"m  c #82568E",
"M  c #815C8A",
"N  c #824595",
"B  c #824F93",
"V  c #864599",
"C  c #8A459D",
"Z  c #825093",
"A  c #865A92",
"S  c #895B94",
"D  c #876190",
"F  c #8E6598",
"G  c #91669C",
"H  c #916A9A",
"J  c #8E44A1",
"K  c #8F49A1",
"L  c #9145A4",
"P  c #9249A4",
"I  c #9773A0",
"U  c #9C77A5",
"Y  c #9E7AA7",
"T  c #A57EAF",
"R  c #A381AC",
"E  c #A788AF",
"W  c #AD8DB5",
"Q  c #AA90B0",
"!  c #B297B9",
"~  c #B49ABA",
"^  c #B5A2BA",
"/  c #B8A7BD",
"(  c #B9A2BF",
")  c #BCA4C2",
"_  c #BDA7C3",
"`  c #BBA3C1",
"'  c #C1ADC7",
"]  c #C1AAC6",
"[  c #C3AFC9",
"{  c #C5B2CA",
"}  c #C6B2CB",
"|  c #C7B4CC",
" . c #C7B5CC",
".. c #C8B6CC",
"X. c #CDBED1",
"o. c #CFC0D3",
"O. c #D1C7D4",
"+. c #D1C3D5",
"@. c #D5CBD7",
"#. c #D5C5DA",
"$. c #D5C9D8",
"%. c #DACEDD",
"&. c #DBD0DE",
"*. c #DDD5DF",
"=. c #DCC4E2",
"-. c #DED5E1",
";. c #DFD7E1",
":. c #DFD8E1",
">. c #E3DBE5",
",. c #E6DFE8",
"<. c #E7E0E9",
"1. c #E8E1E9",
"2. c #EAE4EB",
"3. c #EDE8EE",
"4. c #EEE9EF",
"5. c #F0EDF1",
"6. c #F1EEF2",
"7. c #F3F0F4",
"8. c #F5F3F6",
"9. c #F6F4F7",
"0. c #F6F4F6",
"q. c #F8F6F8",
"w. c #F9F7F9",
"e. c #FAF7FB",
"r. c #FAF9FA",
"t. c #FAF8FB",
"y. c #FBF8FB",
"u. c #FCF9FC",
"i. c #FCFBFC",
"p. c gray99",
"a. c #FDFDFD",
"s. c #FEFEFE",
"d. c #FEFFFE",
"f. c white",
"g. c #FEFEFE",
/* pixels */
"        n n b b b v v v v d d d d d d d s s s s a a a i i i u u u u u y y L r.f.f.f.f.i.K 2 4 4 ",
"      n d a u u u u u u u y y y y y y y y y y y y y y y y y y y y t t t 6 L r.f.f.f.f.i.P 6 6 4 ",
"    b a t 6 6 t t t t t t t t t t t t t t t t t t t t t t t t t t t t t 6 J r.f.f.f.f.i.P 6 6 < ",
"  n a t t t t t t 6 6 6 6 6 6 6 6 6 6 6 t t t t t t t t t t t t t t t t 6 J r.f.f.f.f.i.P 6 6 < ",
"n j t t t t t 6 4 < ; ; ; ; ; ; ; ; ; ; < 6 6 t t t t t t t t t t t t t 6 J r.f.f.f.f.i.P 6 6 < ",
"n a 6 t t t t 6 1 W | { { { { { { { [ ! S 1 < 6 t t t t t t t t t t t 6 6 J r.f.f.f.f.i.P 6 6 < ",
"b i 6 t t t t 4 w 3.f.f.f.f.f.f.f.f.f.f.f.[ 7 4 t t t t t t t t t t 6 6 6 J r.f.f.f.f.i.P 6 6 < ",
"b i 6 t t t t < x r.f.f.f.f.f.f.f.f.f.f.f.f.R < 6 t t t t t t t t 6 6 6 4 J r.f.f.f.f.i.P 6 6 < ",
"b i 6 t t t 6 ; U f.f.f.f.f.f.f.f.f.f.f.f.f.{ ; 6 t t t t t t t 6 6 6 4 2 C y.f.f.f.f.i.P 6 6 < ",
"b u 6 t t t 6 ; _ f.f.f.f.^ A S H :.f.f.f.f._ ; 6 t t t t t t 6 6 6 4 2 < C y.f.f.f.f.i.P 6 6 ; ",
"v u 6 t t t 6 3 &.f.f.f.q.k * ; + / f.f.f.f.G < t t t t t t 6 6 6 4 2 < < C r.f.f.f.f.i.P 6 6 ; ",
"v u 6 t t t 2 e 5.f.f.f.1.9 < - m 5.f.f.f.%.7 4 t t t t t 6 6 6 4 2 < < < V y.f.f.f.f.i.P 6 6 ; ",
"v u 6 t t t < A f.f.f.f.X.= ; G 3.f.f.f.<.z < 6 t t t t 6 6 6 4 2 < < , , V r.f.f.f.f.i.P 6 6 ; ",
"v u 6 t t 6 ; E f.f.f.f.Q 8 ( r.f.f.f.O.r < 6 t t t t 6 6 6 4 2 < < , ; ; V r.f.f.f.f.i.P 6 6 - ",
"d u 6 t t 6 ; ..f.f.f.f.D F q.f.f.f.f.^ = < t t t t 6 6 6 4 2 < < , ; ; - V r.f.f.f.f.i.P 6 6 - ",
"d u t t t 4 7 >.f.f.f.7.r * F 5.f.f.f.f.W ; 6 t t 6 6 6 4 2 < < , ; - * * V r.f.f.f.f.i.P 6 6 * ",
"d u t t t < f 8.f.f.f.;.3 < - I i.f.f.f.9.z < t 6 6 6 4 2 < < , ; - * & & N r.f.f.f.f.i.P 6 6 * ",
"d u t t t < G f.f.f.f.' ; 6 4 > $.f.f.f.f.W ; 6 6 6 4 2 < < , ; - * & & & N r.f.f.f.f.i.P 6 6 * ",
"d u t t 6 ; ! f.f.f.f.Y ; 6 6 * / f.f.f.f.~ ; 6 6 4 2 < < , ; * * & % $ % N r.f.f.f.f.i.P 6 6 * ",
"d u t t 6 : +.f.f.f.f.M # ; * 0 *.f.f.f.f.U ; 6 4 2 < < , ; * & & $ $ $ $ c r.f.f.f.f.i.P 6 6 * ",
"d u t t 4 q 2.f.f.f.f.@.^ ( ( ;.f.f.f.f.9.k < 4 2 < < , ; * & & $ $ @ @ $ c r.f.f.f.f.i.P 6 6 % ",
"s y t t < x r.f.f.f.f.f.f.f.f.f.f.f.f.f.| : < 2 < < , ; * & & % $ @ @ @ @ c r.f.f.f.f.i.P 6 6 % ",
"s y t 6 ; U f.f.f.f.f.f.f.f.f.f.f.f.f.,.f ; 2 < < , ; * & & % $ @ @ @ @ @ z r.f.f.f.f.i.P 6 6 % ",
"s y t 6 ; ] f.f.f.f.f.f.f.f.f.f.f.r.o.f ; < < < , - - & & $ $ @ @ @ O O @ z r.f.f.f.f.i.P 6 4 % ",
"a y t 6 5 T ` ( ( ( ( ( ( ( ( ~ R x > ; < < < , - * & & % $ @ @ @ O O O O z r.f.f.f.f.i.P 6 4 # ",
"a y t t 6 < ; ; ; ; ; ; ; ; ; ; ; < < 2 < < , ; * & & $ $ @ @ @ O O o o O z y.f.f.f.f.i.P 6 6 # ",
"a y t t t 6 6 6 6 6 6 6 6 6 6 6 6 4 2 < < , ; * & & $ $ @ @ @ O O o . o O z r.f.f.f.f.i.P 6 6 # ",
"a y t t t t t t t t t t t 6 6 6 4 2 < < , ; - & & $ $ @ @ @ O O o . . . o z r.f.f.f.f.i.P 6 6 # ",
"i y t t t t t t t t t t 6 6 6 4 2 < < , ; * & & $ $ @ @ @ O O o . . . o O Z i.f.f.f.f.i.P 6 4 # ",
"i y t t t t t t t t t 6 6 6 4 2 < < , ; - * & $ $ @ @ @ O O o . . . . o 0 #.f.f.f.f.f.i.P 6 4 + ",
"i y t t t t t t t t 6 6 6 4 2 < < , ; * * & $ $ @ @ @ O O o . . . . o 0 #.f.f.f.f.f.f.i.P 6 4 + ",
"u y t t t t t t t 6 6 6 4 2 < < , ; * & & $ $ @ @ @ O O o . . . . o 0 #.f.f.f.f.f.f.f.i.P 6 4 + ",
"u y t t t t t t 6 6 6 4 2 < < , ; * & & $ $ @ @ @ O O o . . . . o 0 #.f.f.f.f.f.f.f.f.=.p 6 4 + ",
"u y t t t t t 6 6 6 4 2 < < , ; * & & $ $ @ @ @ O O o . . . . o 0 #.f.f.f.f.f.f.f.f.=.h 6 t < + ",
"u y t t t t 6 6 6 4 2 < < , ; - * & % $ @ @ @ O O o o . . . o 0 #.f.f.f.f.f.f.f.f.=.g 6 t 4 # X ",
"y t t t t 6 6 6 4 2 < < < ; ; * & & $ $ @ @ @ O O o o o o o 0 #.f.f.f.f.f.f.f.f.=.g 6 t 4 # X   ",
"y 6 6 6 6 6 6 4 2 < < < , ; - & & & % $ $ @ @ @ O O O o O 0 #.f.f.f.f.f.f.f.f.=.g 6 t 4 # X     ",
"P J J J J J J J C C C V V V V N N N N c c z z z z z z z B #.f.f.f.f.f.f.f.f.=.g 6 t 4 # X       ",
"y.r.r.r.r.r.r.r.r.r.r.r.r.r.q.r.r.r.r.r.r.r.r.r.r.r.r.e.y.f.f.f.f.f.f.f.f.=.g 6 t 4 # X         ",
"f.f.f.f.f.f.f.f.f.f.f.f.f.f.f.f.f.f.f.f.f.f.f.f.f.f.f.f.f.f.f.f.f.f.f.f.=.g 6 t 4 # X           ",
"f.f.f.f.f.f.f.f.f.f.f.f.f.f.f.f.f.f.f.f.f.f.f.f.f.f.f.f.f.f.f.f.f.f.f.=.g 6 t 4 # X             ",
"f.f.f.f.f.f.f.f.f.f.f.f.f.f.f.f.f.f.f.f.f.f.f.f.f.f.f.f.f.f.f.f.f.f.=.g 6 t 4 # X               ",
"f.f.f.f.f.f.f.f.f.f.f.f.f.f.f.f.f.f.f.f.f.f.f.f.f.f.f.f.f.f.f.f.f.=.g 6 t 4 # X                 ",
"i.i.i.i.i.i.i.i.i.i.i.i.i.i.i.i.i.i.i.i.i.i.i.i.i.i.i.i.i.i.i.i.=.h 6 t 4 # X                   ",
"P P P P P P P P P P P P P P P P P P P P P P P P P P P P P P P P p 6 t 4 # X                     ",
"2 6 6 6 6 6 6 6 6 6 6 6 6 6 6 6 6 6 6 6 6 6 6 6 6 6 6 6 6 6 6 t t t 4 # X                       ",
"4 6 6 6 6 6 6 6 6 6 6 6 4 4 4 4 4 4 4 4 4 4 4 4 4 4 2 2 < < < < < < # X                         ",
"4 < < < < < < < ; ; ; - - - * * * * % % % % # # # # # + + + + + + + X                           "
};
