/* XPM */
static char *libreoffice_startcenter_png_ico_6[] = {
/* columns rows colors chars-per-pixel */
"96 96 88 1 ",
"  c None",
". c #888888",
"X c #898989",
"o c gray54",
"O c #8B8B8B",
"+ c gray55",
"@ c #8D8D8D",
"# c #8E8E8E",
"$ c gray56",
"% c #909090",
"& c gray57",
"* c #929292",
"= c #939393",
"- c gray58",
"; c #959595",
": c gray59",
"> c #979797",
", c #989898",
"< c gray60",
"1 c #9A9A9A",
"2 c #9B9B9B",
"3 c gray61",
"4 c #9D9D9D",
"5 c gray62",
"6 c #9F9F9F",
"7 c #A0A0A0",
"8 c gray63",
"9 c #A2A2A2",
"0 c gray64",
"q c #A4A4A4",
"w c #A5A5A5",
"e c gray65",
"r c #A7A7A7",
"t c gray66",
"y c #A9A9A9",
"u c #AAAAAA",
"i c gray67",
"p c #ACACAC",
"a c gray68",
"s c #AEAEAE",
"d c #AFAFAF",
"f c gray69",
"g c #B1B1B1",
"h c #B2B2B2",
"j c gray70",
"k c #B4B4B4",
"l c gray71",
"z c #B6B6B6",
"x c #B7B7B7",
"c c gray72",
"v c #B9B9B9",
"b c gray73",
"n c #BBBBBB",
"m c #BCBCBC",
"M c gray74",
"N c gray",
"B c gray75",
"V c #C0C0C0",
"C c #C1C1C1",
"Z c gray76",
"A c #C3C3C3",
"S c gray77",
"D c #C5C5C5",
"F c #C6C6C6",
"G c gray78",
"H c #C8C8C8",
"J c gray79",
"K c #CACACA",
"L c #CBCBCB",
"P c gray80",
"I c #CDCDCD",
"U c #CECECE",
"Y c gray81",
"T c #D0D0D0",
"R c gray82",
"E c #D2D2D2",
"W c LightGray",
"Q c gray83",
"! c #D5D5D5",
"~ c gray84",
"^ c #D7D7D7",
"/ c #D8D8D8",
"( c gray85",
") c #DADADA",
"_ c gray86",
"` c #F9F9F9",
"' c #FBFBFB",
"] c white",
/* pixels */
"          UUUUUHHHHHHHHHHHFFFFFFFFFFFAAAAAAAAAAAAMMMMMMMMMMcccccccccckkkckk^]]]]]]]]]]]]/djddddd",
"        UUUUUHHHHHHHHHHHHFFFFFFFFFFFAAAAAAAAAAAAMMMMMMMMMccccccccccckkkkkkk^]]]]]]]]]]]]/ddddddd",
"      UUUHFAMccccccccccccccccccccccccckkkkkkkkkkkkkkkkkkkkkkkkkkkkkkkkkkkkj^]]]]]]]]]]]]/jjjjjdd",
"     UUUAckjjjjjjjjjkkkkjjjjjjjjjjjjjjjjjjjjjjjjjjjjjjjjjjjjkkkkjjjjjjjjjkj^]]]]]]]]]]]]/jjjjjdd",
"    UUHcjjjjjjjkjjjjjjjjjjjjjjjjjjjjjjjjjjjjjjjjjjjjjjjjjjjjkkkkjjjjjjjjjjj^]]]]]]]]]]]]/jjjjjdd",
"   UUHcjjjjjjjjkjjjjjjjjjjjjjjjjjjjjjjjjjjjjjjjjjjjjjjjjjjjjkkjjjjjjjjjjjjj^]]]]]]]]]]]]/jjjjjdd",
"  UUHcjjjjjjjjjjjjjjjjjjjjjjjjjjjjjjjjjjjjjjjjjjjjjjjjjjjjjjjjjjjjjjjjjjjjj^]]]]]]]]]]]]/jjjjjdd",
"  UUMjjjjjjjjjjjjjjjjjjjjjjjjjjjjjjjjjjjjjjjjjjjjjjjjjjjjjjjjjjjjjjjjjjjjjj^]]]]]]]]]]]]/jjjjjdu",
" UUFkjjjjjjjjjjjjjjjjjjjjjjjjjjjjjjjjjjjjjjjjjjjjjjjjjjjjjjjjjjjjjjjjjjjjjj^]]]]]]]]]]]]/jjjjjdu",
" UUMjjjjjjjjjjjjjjjjjjjjjjjjjjjjjjjjjjjjjjjjjjjjjjjjjjjjjjjjjjjjjjjjjjjjjjj^]]]]]]]]]]]]/jjjjjdu",
" UHkjjjjjjjjjjjjjjjjjjjjjjjjjjjjjjjjjjjjjjjjjjjjjjjjjjjjjjjjjjjjjjjjjjjjjjj^]]]]]]]]]]]]/jjjjjdu",
"UUFjjjjjjjjjjjjjjjjjjjjjjjjjjjjjjjjjjjjjjjjjjjjjjjjjjjjjjjjjjjjjjjjjjjjjjjj^]]]]]]]]]]]]/jjjjjuu",
"UUAjjjjjjjjjjjjjjjjjjjjjjjjjjjjjjjjjjjjjjjjjjjjjjjjjjjjjjjjjjjjjjjjjjjjjjjj^]]]]]]]]]]]]/jjjjjuu",
"UUAjjjjjjjjjjjjjjjjjjjjjjjjjjjjjjjjjjjjjjjjjjjjjjjjjjjjjjjjjjjjjjjjjjjjjjjj^]]]]]]]]]]]]/jjjjjuu",
"HHAjjjjjjjjjjjjjjjjjjjjjjjjjjjjjjjjjjjjjjjjjjjjjjjjjjjjjjjjjjjjjjjjjjjjjjdd^]]]]]]]]]]]]/jjjjjuu",
"HHAjjjjjjjjjjjjjjjjjjjjjjjjjjjjjjjjjjjjjjjjjjjjjjjjjjjjjjjjjjjjjjjjjjjdddjd^]]]]]]]]]]]]/jjjjjuu",
"HHAkkjjjjjjjjjjjjjjjjjjjjjjjjjjjjjjjjjjjjjjjjjjjjjjjjjjjjjjjjjjjjjjjjdjdddd^]]]]]]]]]]]]/jjjjjuu",
"HHAkkjjjjjjjjjjjjjjjjjjjjjjjjjjjjjjjjjjjjjjjjjjjjjjjjjjjjjjjjjjjjjjjddddddd^]]]]]]]]]]]]/jjjjjur",
"HHMjjjjjjjjjjjjjjjjjjjjjjjjjjjjjjjjjjjjjjjjjjjjjjjjjjjjjjjjjjjjjjjjjdddddddR]]]]]]]]]]]]/jjjjjur",
"HHMjjjjjjjjjjjjjjjjjjjjjjjjjjjjjjjjjjjjjjjjjjjjjjjjjjjjjjjjjjjjjjjjddddddddR]]]]]]]]]]]]/jjjjjur",
"HHMjjjjjjjjjjjjjjjjjjjjjjjjjjjjjjjjjjjjjjjjjjjjjjjjjjjjjjjjjjjjjjjddddudduuR]]]]]]]]]]]]/jjjjjur",
"HHMjjjjjjjjjjjjjjjjjjjjjjjjjjjjjjjjjjjjjjjjjjjjjjjjjjjjjjjjjjjjjddddduuuuuuR]]]]]]]]]]]]/jjjjjur",
"HHMjjjjjjjjjjjjjjjjjjjjjjjjjjjjjjjjjjjjjjjjjjjjjjjjjjjjjjjjjjjjjddddduuuuuuR]]]]]]]]]]]]/jjjjjur",
"HHMjjjjjjjjjjjjjjjjjjjjjjjjjjjjjjjjjjjjjjjjjjjjjjjjjjjjjjjjjjjjdddduuuuuuuuR]]]]]]]]]]]]/jjjjjrr",
"FHMjjjjjjjjjjjjjjjjjjjjjjjjjjjjjjjjjjjjjjjjjjjjjjjjjjjjjjjjjjddddduuuuuuuuuR]]]]]]]]]]]]/jjjjjrr",
"FHMjjjjjjjjjjjjjjjjjjjjjjjjjjjjjjjjjjjjjjjjjjjjjjjjjjjjjjjjjdddduuuuuurrruuR]]]]]]]]]]]]/jjjjjrr",
"FFMjjjjjjjjjjjjjjjjjjjjjjjjjjjjjjjjjjjjjjjjjjjjjjjjjjjjjjjjjddddduurrrrrrrrR]]]]]]]]]]]]/jjjjjrr",
"FFMjjjjjjjjjjjjjjjjjjjjjjjjjjjjjjjjjjjjjjjjjjjjjjjjjjjjjjjjddddduurrrrrrrrrR]]]]]]]]]]]]/jjjjjrr",
"FFMjjjjjjjjjjjjjjjjjjjjjjjjjjjjjjjjjjjjjjjjjjjjjjjjjjjjjjjddddduuurrr000rrrR]]]]]]]]]]]]/jjjjjr0",
"FFMjjjjjjjjjjjjjjjjjjjjjjjjjjjjjjjjjjjjjjjjjjjjjjjjjjjjjjddddduuurrr00000rrR]]]]]]]]]]]]/jjjjjr0",
"FFMjjjjjjjjjjjjjjjjjjjjjjjjjjjjjjjjjjjjjjjjjjjjjjjjjjjjjdddduuurrrrr000000rR]]]]]]]]]]]]/jjjjjr0",
"FFMjjjjjjjjjjjjjjjjjjjjjjjjjjjjjjjjjjjjjjjjjjjjjjjjjjjjddduuuurrrrr0000000rR]]]]]]]]]]]]/jjjjjr0",
"FFMjjjjjjjjjjjjjjjjjjjjjjjjjjjjjjjjjjjjjjjjjjjjjjjjjjjdddduuurrrrr000066000U]]]]]]]]]]]]/jjjjjr0",
"FFMjjjjjjjjjjjjjjjjjjjjjjjjjjjjjjjjjjjjjjjjjjjjjjjjjjdddduuurrrrr0000666600U]]]]]]]]]]]]/jjjjjr0",
"FFMjjjjjjjjjjjjjjjjjjjjjjjjjjjjjjjjjjjjjjjjjjjjjjjjjddduduuurrrr00066666600U]]]]]]]]]]]]/jjjjjr0",
"AFMjjjjjjjjjjjjjjjjjjjjjjjjjjjjjjjjjjjjjjjjjjjjjjjjddduuuurrrrr000666666600U]]]]]]]]]]]]/jjjjjr0",
"AFcjjjjjjjjjjjjjjjjjjjjjjjjjjjjjjjjjjjjjjjjjjjjjjjdddduuuurrrr0006666622660U]]]]]]]]]]]]/jjjjj00",
"AAcjjjjjjjjjjjjjjjjjjjjjjjjjjjjjjjjjjjjjjjjjjjjjdddddduuurrrr00066622222666U]]]]]]]]]]]]/jjjjj00",
"AAcjjjjjjjjjjjjjjjjjjjjjjjjjjjjjjjjjjjjjjjjjjjjjddduduuurrr0000666622222266U]]]]]]]]]]]]/jjjjj06",
"AAcjjjjjjjjjjjjjjjjjjjjjjjjjjjjjjjjjjjjjjjjjjjjddduuuuurrr00006666222222266U]]]]]]]]]]]]/jjjjj06",
"AAcjjjjjjjjjjjjjjjjjjjjjjjjjjjjjjjjjjjjjjjjjjjddddduurrrrr00066662222>>>266U]]]]]]]]]]]]/jjjjj06",
"AAcjjjjjjjjjjjjjjjjjjjjjjjjjjjjjjjjjjjjjjjjjjddddduurrrrr00066662222>>>>226U]]]]]]]]]]]]/jjjjj06",
"AAcjjjjjjjjjjjjjjjjjjjjjjjjjjjjjjjjjjjjjjjjjddduduurrrrr0006666222>>>>>>>26U]]]]]]]]]]]]/jjjjj06",
"AAcjjjjjjjjjjjjjjjjjjjjjjjjjjjjjjjjjjjjjjjjddduuuurrrrr0006662222>>>>==>>22U]]]]]]]]]]]]/jjjjj06",
"AAcjjjjjjjjjjjjjjjjjjjjjjjjjjjjjjjjjjjjjjddddduuuurrrr0006666222>>>>>==>>>2H]]]]]]]]]]]]/jjjjj06",
"AAcjjjjjjjjjjjjjjjjjjjjjjjjjjjjjjjjjjjjjdddddduuurrrr0006666222>>>>=====>>2H]]]]]]]]]]]]/jjjjj06",
"MAcjjjjjjjjjjjjjjjjjjjjjjjjjjjjjjjjjjjjjddduduuurrr00006666222>>>>>=====>>2H]]]]]]]]]]]]/jjjjj06",
"MAcjjjjjjjjjjjjjjjjjjjjjjjjjjjjjjjjjjjjddduduuurrr000066622222>>>>===$===>2H]]]]]]]]]]]]/jjjjj06",
"MMcjjjjjjjjjjjjjjjjjjjjjjjjjjjjjjjjjjdddddduurrrr00006666222>>>>>===$$$$=>2H]]]]]]]]]]]]/jjjjj66",
"MMcjjjjjjjjjjjjjjjjjjjjjjjjjjjjjjjjjjddddduurrrr00000666222>>>>>===$$$$$=>>H]]]]]]]]]]]]/jjjjj66",
"MMcjjjjjjjjjjjjjjjjjjjjjjjjjjjjjjjjjdddduuuurrr00000662222>>>>>===$$$$$$==>H]]]]]]]]]]]]/jjjjj62",
"MMcjjjjjjjjjjjjjjjjjjjjjjjjjjjjjjjjddduduuurrr00000662222>>>>>==$$$$OOO$$=>H]]]]]]]]]]]]/jjjjj62",
"MMcjjjjjjjjjjjjjjjjjjjjjjjjjjjjjjdddduduurrrrr00006622222>>>>==$$$$OOOOO$=>H]]]]]]]]]]]]/jjjjd62",
"MMcjjjjjjjjjjjjjjjjjjjjjjjjjjjjjdddddduurrrrr00006622222>>>>==$$$$OOOOOO$=>H]]]]]]]]]]]]/jjjjd62",
"MMcjjjjjjjjjjjjjjjjjjjjjjjjjjjjjdddduuuurrr000006622222>>>>==$$$$OOOOOOO$=>H]]]]]]]]]]]]/jjjjd62",
"MMcjjjjjjjjjjjjjjjjjjjjjjjjjjjjddduduuurrrr00006622222>>>>==$$$$$OOOO.OO$=>H]]]]]]]]]]]]/jjjjd62",
"MMkjjjjjjjjjjjjjjjjjjjjjjjjjjjddddduuurrr00006666222>>>>====$$$$OOOOOOOO$=>H]]]]]]]]]]]]/jjjjj62",
"cMkjjjjjjjjjjjjjjjjjjjjjjjjjjddddduurrrr00006662222>>>>>==$$$$$OOOOO.OO$=>2^]]]]]]]]]]]]/jjjjj62",
"cckjjjjjjjjjjjjjjjjjjjjjjjjddddduuuurrrr0000666222>>>>>==$$$$$OOO....OO$=2F`]]]]]]]]]]]]/jjjjj62",
"cckjjjjjjjjjjjjjjjjjjjjjjjddddduuurrrr000006662222>>>===$$$$OOOO....OO$=>A`]]]]]]]]]]]]]/jjjjj62",
"cckkjjjjjjjjjjjjjjjjjjjjjjdddduuuurrr000006622222>>>>===$$$$OOO.O..OO$=>A`]]]]]]]]]]]]]]/jjjjj62",
"cckkjjjjjjjjjjjjjjjjjjjjjddddduurrrrr00006662222>>>====$$$$OOO..OOOO$=>A`]]]]]]]]]]]]]]]/jjjjj2>",
"cckkjjjjjjjjjjjjjjjjjjjdddddduurrrrr00066622222>>>===$$$$OOOO....OO$=>A`]]]]]]]]]]]]]]]]/jjjjj2>",
"cckkjjjjjjjjjjjjjjjjjjdddddduurrrrr0000662222>>>>===$$$$OOOOO...OO$=>A`]]]]]]]]]]]]]]]]]/jjjjj2>",
"cckjjjjjjjjjjjjjjjjjjjddddduuurrr00000662222>>>>>===$$$$OOOOOO.OO$=>A`]]]]]]]]]]]]]]]]]`Hjjjjj2>",
"cckkjjjjjjjjjjjjjjjjjdddduuuurrr00000662222>>>>>==$$$$$OOOOOOOOO$=>A`]]]]]]]]]]]]]]]]]`Rkjjjjj2>",
"cckkjjjjjjjjjjjjjjjjddduuuuurrrr00066662222>>>===$$$$OOOO....OO$=>A`]]]]]]]]]]]]]]]]]`Rjjjjjjj2>",
"kckkjjjjjjjjjjjjjjjdddduuurrrr000066662222>>>===$$$$OOOO....OO$=>A`]]]]]]]]]]]]]]]]]`Rjjjjjjju>>",
"kckjjjjjjjjjjjjjjjddddduurrrr000006662222>>>>===$$$OOOOOO..OO$=>A`]]]]]]]]]]]]]]]]]`Rjjjjjjju>>>",
"kkkjjjjjjjjjjjjjdddddduuurrr000006662222>>>====$$$$OOOOOOOOO$=>A`]]]]]]]]]]]]]]]]]`Rjjjjjjju2>> ",
"kkkjjjjjjjjjjjjdddddduuurrrrr00006662222>>>=====$$$OOOOOOO$$=>A`]]]]]]]]]]]]]]]]]`Rjjjjjjju2>=  ",
"kkkjjjjjjjjjjjjdddddduuurrrrr00006662222>>>>>===$$$$$OOOO$$=>A`]]]]]]]]]]]]]]]]]`Rjjjjjjju>>>   ",
"kkkkjjjjjjjjjjjdddddduuuurrrr0000066662222>>>>>====$$$$$$==>A`]]]]]]]]]]]]]]]]]`Rjjjjjjju2>=    ",
"kkkkjjjjjjjjjjjjddddduuuuurrrrr00000666262222>>>>>=======>2A`]]]]]]]]]]]]]]]]]`Rjjjjjjju2>>     ",
"kkkjjjjjjjjjjjdddddduuuuuurrrrrr00000666666222222>>>>>>>>2F`]]]]]]]]]]]]]]]]]`Rjjjjjjju>>>      ",
"//^^^^^^^^^^^^^^^RRRRRRRRRRRUUUUUUUUUUUHUUUHHHHHHHHHHHHHH^`]]]]]]]]]]]]]]]]]`Rjjjjjjju2>>       ",
"]]]]]]]]]]]]]]]]]]]]]]]]]]]]]]]]]]]]]]]]]]]]]]]]]]]]]]]]]]]]]]]]]]]]]]]]]]]`Rjjjjjjju2>>        ",
"]]]]]]]]]]]]]]]]]]]]]]]]]]]]]]]]]]]]]]]]]]]]]]]]]]]]]]]]]]]]]]]]]]]]]]]]]]`Rjjjjjjju2>>         ",
"]]]]]]]]]]]]]]]]]]]]]]]]]]]]]]]]]]]]]]]]]]]]]]]]]]]]]]]]]]]]]]]]]]]]]]]]]`Rjjjjjjju2>>          ",
"]]]]]]]]]]]]]]]]]]]]]]]]]]]]]]]]]]]]]]]]]]]]]]]]]]]]]]]]]]]]]]]]]]]]]]]]`Rjjjjjjju2>>           ",
"]]]]]]]]]]]]]]]]]]]]]]]]]]]]]]]]]]]]]]]]]]]]]]]]]]]]]]]]]]]]]]]]]]]]]]]`Rjjjjjjju2>>            ",
"]]]]]]]]]]]]]]]]]]]]]]]]]]]]]]]]]]]]]]]]]]]]]]]]]]]]]]]]]]]]]]]]]]]]]]`Rjjjjjjju2>>             ",
"]]]]]]]]]]]]]]]]]]]]]]]]]]]]]]]]]]]]]]]]]]]]]]]]]]]]]]]]]]]]]]]]]]]]]`Rjjjjjjju>>>              ",
"]]]]]]]]]]]]]]]]]]]]]]]]]]]]]]]]]]]]]]]]]]]]]]]]]]]]]]]]]]]]]]]]]]]]`Rjjjjjjju2>=               ",
"]]]]]]]]]]]]]]]]]]]]]]]]]]]]]]]]]]]]]]]]]]]]]]]]]]]]]]]]]]]]]]]]]]]`Rjjjjjjju2>>                ",
"]]]]]]]]]]]]]]]]]]]]]]]]]]]]]]]]]]]]]]]]]]]]]]]]]]]]]]]]]]]]]]]]]]`Rjjjjjjju2>>                 ",
"]]]]]]]]]]]]]]]]]]]]]]]]]]]]]]]]]]]]]]]]]]]]]]]]]]]]]]]]]]]]]]]]]`Rjjjjjjju2>>                  ",
"]]]]]]]]]]]]]]]]]]]]]]]]]]]]]]]]]]]]]]]]]]]]]]]]]]]]]]]]]]]]]]]]`Rjjjjjjju2>>                   ",
"/^//////////////////////////////////////////////////////////////Hkjjjjjju2>>                    ",
"ddjjjjjjjjjjjjjjjjjjjjjjjjjjjjjjjjjjjjjjjjjjjjjjjjjjjjjjjjjjjjjjjjjjjjju2>>                     ",
"ddjjjjjjjjjjjjjjjjjjjjjjjjjjjjjjjjjjjjjjjjjjjjjjjjjjjjjjjjjjjjjjjjjjjju2>>                      ",
"ddjjjjjjjjjjjjjjjjjjjjjjjjjjjjjjjjjjjjjjjjjjjjjjjjjjjjjjjjjjjjjjjjjjju2>>                       ",
"ddjjjjjjjjjjjjjjjjjjjjjjjjjjjjjjjjjjjjjjjjjjjjjjjjjjjjjjjjjjjjjjjjjju2>>                        ",
"dddjjjjjjjjjjddjjjjjdddddddddddddddddddddddddddddddddddduduuuuuuuuur2>>                         ",
"dddddddduuuuuuuuuuuurrrrrrrrrrr0000000000666666662666222222222>>>>>>>>                          ",
"ddddddduuuuuuuuruurrrrrrrrrrr000000000066666666662222222222222>>>>>>>                           "
};
