/* XPM */
static char *libreoffice_impress_png[] = {
/* columns rows colors chars-per-pixel */
"64 64 107 2 ",
"   c None",
".  c #FF3600",
"X  c #FE3C00",
"o  c #BE530D",
"O  c #BD5712",
"+  c #BB5B1A",
"@  c #BB5F22",
"#  c #B9652D",
"$  c #B96731",
"%  c #B96F3E",
"&  c #C54F00",
"*  c #C35003",
"=  c #CB5100",
"-  c #D45500",
";  c #DA5700",
":  c #DE5900",
">  c #FF4400",
",  c #FF4C00",
"<  c #E25A00",
"1  c #EB5E00",
"2  c #FF5400",
"3  c #FF5C00",
"4  c #D4671F",
"5  c #EF6000",
"6  c #F56201",
"7  c #FF6500",
"8  c #FF6C00",
"9  c #F76408",
"0  c #F86D09",
"q  c #FF7300",
"w  c #FF7B00",
"e  c #F9740A",
"r  c #FC7C0C",
"t  c #B97142",
"y  c #B97649",
"u  c #B9794F",
"i  c #B97B52",
"p  c #BA7F58",
"a  c #FF8300",
"s  c #FF8901",
"d  c #FD830E",
"f  c #FE890F",
"g  c #FE8A11",
"h  c #FC8B1C",
"j  c #FD8D24",
"k  c #FB8A2D",
"l  c #BA8764",
"z  c #BB8968",
"x  c #BD9376",
"c  c #BE9478",
"v  c #BF997F",
"b  c #FFA467",
"n  c #FFA66A",
"m  c #C19D85",
"M  c #C2A28C",
"N  c #CFA78D",
"B  c #C7AC9A",
"V  c #C8AE9D",
"C  c #CFBCAF",
"Z  c #CEBAAC",
"A  c #FFBEA2",
"S  c #FFBFA2",
"D  c #D2C1B5",
"F  c #D5C5BB",
"G  c #D6C6BC",
"H  c #FFC0A2",
"J  c #FFC1A2",
"K  c #FFC2A2",
"L  c #FFC3A2",
"P  c #FFC4A2",
"I  c #FFC5A2",
"U  c #FFC6A2",
"Y  c #FFC7A2",
"T  c #FFC7A3",
"R  c #FFC9A5",
"E  c #FFC5AA",
"W  c #FFCAAA",
"Q  c #FFC9B2",
"!  c #FFCAB2",
"~  c #FFCBB5",
"^  c #FFCAB2",
"/  c #FDD2B5",
"(  c #D7C9C0",
")  c #D9CDC4",
"_  c #FFDAC9",
"`  c #FFDDCD",
"'  c #E0D7D1",
"]  c #E1D9D3",
"[  c #E3DAD4",
"{  c #E7E1DD",
"}  c #E8E1DD",
"|  c #E9E2DD",
" . c #ECE2DC",
".. c #EDE3DD",
"X. c #EBE6E2",
"o. c #EDE9E6",
"O. c #EFEBE9",
"+. c #F4F1EF",
"@. c #F7F5F4",
"#. c #F8F4F2",
"$. c #F8F6F5",
"%. c #FDFCFC",
"&. c #FDFDFD",
"*. c #FEFEFE",
"=. c #FFFEFE",
"-. c white",
";. c #FFFFFF",
/* pixels */
"            j g s s a a a a a a a a a a w w w w w w w w w w w w w w w w w q q q q q 8 8 8 8 8 8 8 8 R -.-.-.-.-.-.-.-.7 7 7 3 3 ",
"        j s s a w w w w w w w w w w w w w q q q q q q q q q q 8 8 8 8 8 8 8 8 8 8 8 8 8 8 8 8 8 8 8 P -.-.-.-.-.-.-.-.7 7 7 7 3 ",
"      f s w 8 7 7 7 7 7 7 7 7 7 7 7 7 7 7 7 7 7 7 7 7 7 7 7 7 7 7 7 7 7 7 7 7 7 7 7 7 7 7 7 7 7 7 7 P -.-.-.-.-.-.-.-.7 7 7 7 3 ",
"    g s 8 7 7 7 7 7 7 7 7 7 7 7 7 7 7 7 7 7 7 7 7 7 7 7 7 7 7 7 7 7 7 7 7 7 7 7 7 7 7 7 7 7 7 7 7 7 P -.-.-.-.-.-.-.-.7 7 7 7 3 ",
"  j s q 7 7 7 7 7 7 7 7 7 7 7 7 7 7 7 7 7 7 7 7 7 7 7 7 7 7 7 7 7 7 7 7 7 7 7 7 7 7 7 7 7 7 7 7 7 7 P -.-.-.-.-.-.-.-.7 7 7 7 3 ",
"  s w 7 7 7 7 7 7 7 7 7 7 6 6 6 7 7 7 7 7 7 7 7 7 7 7 7 7 7 7 7 7 7 7 7 7 7 7 7 7 7 7 7 7 7 7 7 7 7 P -.-.-.-.-.-.-.-.7 7 7 7 3 ",
"k s 8 7 7 7 7 7 7 7 7 6 - & & & & & - 6 7 7 7 7 7 7 7 7 7 7 7 7 7 7 7 7 7 7 7 7 7 7 7 7 7 7 7 7 7 7 P -.-.-.-.-.-.-.-.7 7 7 7 3 ",
"h a 7 7 7 7 7 7 7 7 7 -  .-.-.-.-.-.#.- 7 7 7 7 7 7 7 7 7 7 7 7 7 7 7 7 7 7 7 7 7 7 7 7 7 7 7 7 7 7 P -.-.-.-.-.-.-.-.7 7 7 7 3 ",
"g w 7 7 7 7 7 7 7 7 6 O -.-.-.-.-.-.G - 7 7 7 7 7 7 7 7 7 7 7 7 7 7 7 7 7 7 7 7 7 7 7 7 7 7 7 7 7 7 P -.-.-.-.-.-.-.-.7 7 7 7 3 ",
"f w 7 7 7 7 7 7 7 7 1 y -.-.-.-.-.-.m : 7 7 7 7 7 7 7 7 7 7 7 7 7 7 7 7 7 7 7 7 7 7 7 7 7 7 7 7 7 7 P -.-.-.-.-.-.-.-.7 7 7 7 3 ",
"f w 7 7 7 7 7 7 7 7 : v -.-.-.-.-.-.u 1 7 7 7 7 7 7 7 7 7 7 7 7 7 7 7 7 7 7 7 7 7 7 7 7 7 7 7 7 7 7 P -.-.-.-.-.-.-.-.7 7 7 7 3 ",
"f w 7 7 7 7 7 7 7 7 - D -.-.-.-.-.-.+ 6 7 7 7 7 7 7 7 7 7 7 7 7 7 7 7 7 7 7 7 7 7 7 7 7 7 7 7 7 7 7 P -.-.-.-.-.-.-.-.7 7 7 7 2 ",
"f w 7 7 7 7 7 7 7 6 & O.-.-.-.-.-.X.= 6 7 7 7 7 7 7 7 7 7 7 7 7 7 7 7 7 7 7 7 7 7 7 7 7 7 7 7 3 3 7 P -.-.-.-.-.-.-.-.7 7 7 7 2 ",
"f w 7 7 7 7 7 7 7 6 @ -.-.-.-.-.-.Z - 7 7 7 7 7 7 7 7 7 7 7 7 7 7 7 7 7 7 7 7 7 7 7 7 7 7 7 3 3 3 3 P -.-.-.-.-.-.-.-.7 7 7 7 2 ",
"f w 7 7 7 7 7 7 7 1 p -.-.-.-.-.-.x < 7 7 7 7 7 7 7 7 7 7 7 7 7 7 7 7 7 7 7 7 7 7 7 7 7 7 3 3 3 3 3 P -.-.-.-.-.-.-.-.7 7 7 7 2 ",
"d w 7 7 7 7 7 7 7 : M -.-.-.-.-.-.% 1 7 7 7 7 7 7 7 7 7 7 7 7 7 7 7 7 7 7 7 7 7 7 7 7 7 3 3 3 3 3 3 P -.-.-.-.-.-.-.-.7 7 7 7 2 ",
"d w 7 7 7 7 7 7 7 - ) -.-.-.-.-.-.o 6 7 7 7 7 7 7 7 7 7 7 7 7 7 7 7 7 7 7 7 7 7 7 7 3 3 3 3 3 3 3 3 P -.-.-.-.-.-.-.-.7 7 7 7 2 ",
"d w 7 7 7 7 7 7 7 * $.-.-.-.-.-.' = 6 7 7 7 7 7 7 7 7 7 7 7 7 7 7 7 7 7 7 7 7 7 7 3 3 3 3 3 3 2 2 3 P -.-.-.-.-.-.-.-.7 7 7 7 2 ",
"d w 7 7 7 7 7 7 5 $ -.-.-.-.-.-.B ; 7 7 7 7 7 7 7 7 7 7 7 7 7 7 7 7 7 7 7 7 7 7 7 3 3 3 3 2 2 2 2 3 P -.-.-.-.-.-.-.-.7 7 7 7 2 ",
"d w 7 7 7 7 7 7 < z -.-.-.-.-.-.l < 7 7 7 7 7 7 7 7 7 7 7 7 7 7 7 7 7 7 7 7 7 7 3 3 3 3 2 2 2 2 2 2 L -.-.-.-.-.-.-.-.7 7 7 7 2 ",
"d w 7 7 7 7 7 7 ; V -.-.-.-.-.-.# 6 7 7 7 7 7 7 7 7 7 7 7 7 7 7 7 7 7 7 7 7 7 3 3 3 3 2 2 2 2 2 2 2 L -.-.-.-.-.-.-.-.7 7 7 7 2 ",
"d w 7 7 7 7 7 6 = ] -.-.-.-.-.@.* 7 7 7 7 7 7 7 7 7 7 7 7 7 7 7 7 7 7 7 7 7 3 3 3 3 2 2 2 2 2 2 2 2 L -.-.-.-.-.-.-.-.7 7 7 7 2 ",
"r w 7 7 7 7 7 6 o -.-.-.-.-.-.( - 7 7 7 7 7 7 7 7 7 7 7 7 7 7 7 7 7 7 7 7 3 3 3 3 2 2 2 2 2 , , 2 2 L -.-.-.-.-.-.-.-.7 7 7 3 , ",
"r w 7 7 7 7 7 1 t -.-.-.-.-.-.M : 7 7 7 7 7 7 7 7 7 7 7 7 7 7 7 7 7 7 7 3 3 3 3 2 2 2 2 , , , , , 2 L -.-.-.-.-.-.-.-.7 7 7 3 , ",
"r w 7 7 7 7 7 < x -.-.-.-.-.-.i 1 7 7 7 7 7 7 7 7 7 7 7 7 7 7 7 7 7 7 3 3 3 3 2 2 2 2 , , , , , , 2 L -.-.-.-.-.-.-.-.7 7 7 3 , ",
"r q 7 7 7 7 7 - Z -.-.-.-.-.-.+ 6 7 7 7 7 7 7 7 7 7 7 7 7 7 7 7 7 7 3 3 3 3 2 2 2 2 , , , , , , , , L -.-.-.-.-.-.-.-.7 7 7 3 , ",
"r w 7 7 7 7 6 = X.-.-.-.-.-.o.= 6 7 7 7 7 7 7 7 7 7 7 7 7 7 7 7 7 3 3 3 3 2 2 2 2 , , , , , > > , , L -.-.-.-.-.-.-.-.7 7 7 3 , ",
"r w 7 7 7 7 6 + -.-.-.-.-.-.C - 7 7 7 7 7 7 7 7 7 7 7 7 7 7 7 7 3 3 3 3 2 2 2 2 , , , , , > > > , , L -.-.-.-.-.-.-.-.7 7 7 3 , ",
"r q 7 7 7 7 1 i -.-.-.-.-.-.c < 7 7 7 7 7 7 7 7 7 7 7 7 7 7 3 3 3 3 3 2 2 2 2 , , , , , > > > > > , L -.-.-.-.-.-.-.-.7 7 7 3 , ",
"r q 7 7 7 7 : m -.-.-.-.-.-.t 1 7 7 7 7 7 7 7 7 7 7 7 7 7 7 3 3 3 3 2 2 2 2 , , , , , > > > > > > , L -.-.-.-.-.-.-.-.7 7 7 3 , ",
"r q 7 7 7 7 - F -.-.-.-.-.-.o 6 7 7 7 7 7 7 7 7 7 7 7 7 3 3 3 3 3 2 2 2 2 , , , , , > > > > > > > , L -.-.-.-.-.-.-.-.7 7 7 3 , ",
"r q 7 7 7 6 = +.-.-.-.-.-.[ = 6 7 7 7 7 7 7 7 7 7 7 7 3 3 3 3 3 2 2 2 2 , , , , , > > > > X X X > , A -.-.-.-.-.-.-.-.7 7 7 3 , ",
"e q 7 7 7 6 4  .} { { { } N < 7 7 7 7 7 7 7 7 7 7 7 3 3 3 3 3 2 2 2 2 , , , , , > > > > X X X X > > A -.-.-.-.-.-.-.-.7 7 7 3 , ",
"e q 7 7 7 7 5 - = = = = - < 6 7 7 7 7 7 7 7 7 7 7 3 3 3 3 3 2 2 2 2 , , , , > > > > > X X X X X X > A -.-.-.-.-.-.-.-.7 7 7 3 > ",
"e q 7 7 7 7 7 7 7 7 7 7 7 7 7 7 7 7 7 7 7 7 7 7 7 3 3 3 3 2 2 2 2 , , , , , > > > > X X X X X X X > A -.-.-.-.-.-.-.-.7 7 7 3 > ",
"e 8 7 7 7 7 7 7 7 7 7 7 7 7 7 7 7 7 7 7 7 7 7 7 3 3 3 3 3 2 2 2 , , , , , > > > > X X X X X . X X > A -.-.-.-.-.-.-.-.7 7 7 3 > ",
"e 8 7 7 7 7 7 7 7 7 7 7 7 7 7 7 7 7 7 7 7 7 7 3 3 3 3 2 2 2 2 , , , , , > > > > X X X X . . . . X > A -.-.-.-.-.-.-.-.7 7 7 3 > ",
"e 8 7 7 7 7 7 7 7 7 7 7 7 7 7 7 7 7 7 7 7 7 3 3 3 3 2 2 2 2 , , , , , > > > > X X X X . . . . . X > A -.-.-.-.-.-.-.-.7 7 7 3 > ",
"e 8 7 7 7 7 7 7 7 7 7 7 7 7 7 7 7 7 7 7 7 3 3 3 3 2 2 2 2 , , , , , > > > > X X X X . . . . . X > , _ -.-.-.-.-.-.-.-.7 7 7 3 > ",
"e 8 7 7 7 7 7 7 7 7 7 7 7 7 7 7 7 7 7 7 3 3 3 3 2 2 2 2 , , , , , > > > > X X X X . . . . . X X , Q -.-.-.-.-.-.-.-.-.7 7 7 3 > ",
"e 8 7 7 7 7 7 7 7 7 7 7 7 7 7 7 7 7 7 3 3 3 3 2 2 2 2 , , , , , > > > > X X X X . . . . . X X > Q -.-.-.-.-.-.-.-.-.-.7 7 7 3 > ",
"e 8 7 7 7 7 7 7 7 7 7 7 7 7 7 7 7 7 3 3 3 3 2 2 2 2 , , , , , > > > > X X X X . . . . . X X > Q -.-.-.-.-.-.-.-.-.-.-.7 7 7 3 > ",
"e 8 7 7 7 7 7 7 7 7 7 7 7 7 7 7 3 3 3 3 3 2 2 2 2 , , , , , > > > > X X X X . . . . . X X , ~ -.-.-.-.-.-.-.-.-.-.-.-.7 7 7 3 > ",
"e 8 7 7 7 7 7 7 7 7 7 7 7 7 7 7 3 3 3 3 2 2 2 2 , , , , , > > > > X X X X . . . . . X X > Q -.-.-.-.-.-.-.-.-.-.-.-.n 7 7 7 3 X ",
"0 8 7 7 7 7 7 7 7 7 7 7 7 7 3 3 3 3 3 2 2 2 2 , , , , , > > > > X X X X . . . . . X X > Q -.-.-.-.-.-.-.-.-.-.-.-.n 7 7 7 7 3 X ",
"0 8 7 7 7 7 7 7 7 7 7 7 7 7 3 3 3 3 2 2 2 2 2 , , , , > > > > X X X X X . . . . X X > Q -.-.-.-.-.-.-.-.-.-.-.-.n 7 7 7 7 7 > X ",
"0 8 7 7 7 7 7 7 7 7 7 7 3 3 3 3 3 3 2 2 2 2 , , , , > > > > > X X X X . . . . X X > Q -.-.-.-.-.-.-.-.-.-.-.-.n 7 7 7 7 7 > X   ",
"0 8 7 7 7 7 7 7 7 7 7 7 3 3 3 3 3 2 2 2 2 2 , , , , > > > > > X X X X X . X X X , Q -.-.-.-.-.-.-.-.-.-.-.-.n 7 7 7 7 7 > X     ",
"0 8 7 7 7 7 7 7 7 7 7 7 3 3 3 3 3 2 2 2 2 2 2 , , , , , > > > > > X X X X X > , Q -.-.-.-.-.-.-.-.-.-.-.-.n 7 7 7 7 7 > X       ",
"0 8 7 7 7 7 7 7 7 7 7 7 7 3 3 3 3 3 3 2 2 2 2 2 2 2 , , , , , , > > > > > > , Q -.-.-.-.-.-.-.-.-.-.-.-.n 7 7 7 7 7 > X         ",
"/ W W W W W W W W W W W W W W W W W W W W W E E E E E E E E E E E E E E E E ` -.-.-.-.-.-.-.-.-.-.-.-.b 7 7 7 7 7 > X           ",
"-.-.-.-.-.-.-.-.-.-.-.-.-.-.-.-.-.-.-.-.-.-.-.-.-.-.-.-.-.-.-.-.-.-.-.-.-.-.-.-.-.-.-.-.-.-.-.-.-.-.n 7 7 7 7 7 > X             ",
"-.-.-.-.-.-.-.-.-.-.-.-.-.-.-.-.-.-.-.-.-.-.-.-.-.-.-.-.-.-.-.-.-.-.-.-.-.-.-.-.-.-.-.-.-.-.-.-.-.n 7 7 7 7 7 > X               ",
"-.-.-.-.-.-.-.-.-.-.-.-.-.-.-.-.-.-.-.-.-.-.-.-.-.-.-.-.-.-.-.-.-.-.-.-.-.-.-.-.-.-.-.-.-.-.-.-.n 7 7 7 7 7 > X                 ",
"-.-.-.-.-.-.-.-.-.-.-.-.-.-.-.-.-.-.-.-.-.-.-.-.-.-.-.-.-.-.-.-.-.-.-.-.-.-.-.-.-.-.-.-.-.-.-.n 7 7 7 7 7 > X                   ",
"-.-.-.-.-.-.-.-.-.-.-.-.-.-.-.-.-.-.-.-.-.-.-.-.-.-.-.-.-.-.-.-.-.-.-.-.-.-.-.-.-.-.-.-.-.-.n 7 7 7 7 7 > X                     ",
"-.-.-.-.-.-.-.-.-.-.-.-.-.-.-.-.-.-.-.-.-.-.-.-.-.-.-.-.-.-.-.-.-.-.-.-.-.-.-.-.-.-.-.-.-.n 7 7 7 7 7 > X                       ",
"-.-.-.-.-.-.-.-.-.-.-.-.-.-.-.-.-.-.-.-.-.-.-.-.-.-.-.-.-.-.-.-.-.-.-.-.-.-.-.-.-.-.-.-.n 7 7 7 7 7 > X                         ",
"-.-.-.-.-.-.-.-.-.-.-.-.-.-.-.-.-.-.-.-.-.-.-.-.-.-.-.-.-.-.-.-.-.-.-.-.-.-.-.-.-.-.-.n 7 7 7 7 7 > X                           ",
"9 7 7 7 7 7 7 7 7 7 7 7 7 7 7 7 7 7 7 7 7 7 7 7 7 7 7 7 7 7 7 7 7 7 7 7 7 7 7 7 7 7 7 7 7 7 7 7 > X                             ",
"9 7 7 7 7 7 7 7 7 7 7 7 7 7 7 7 7 7 7 7 7 7 7 7 7 7 7 7 7 7 7 7 7 7 7 7 7 7 7 7 7 7 7 7 7 7 7 > X                               ",
"9 7 7 7 7 7 7 7 7 7 7 7 7 7 7 7 7 7 7 7 7 7 7 7 7 7 7 7 7 7 7 7 7 7 7 7 7 7 7 7 7 7 7 7 7 7 > X                                 ",
"9 7 7 7 7 7 7 7 7 7 7 7 3 3 3 3 3 3 3 3 3 3 3 3 3 3 3 3 3 3 3 3 3 3 3 2 2 2 2 2 2 2 2 2 2 > X                                   ",
"9 3 3 3 3 3 3 3 3 3 3 2 2 2 2 2 2 2 2 2 2 2 , , , , , , , , , , , > > > > > > > > > > X X X                                     "
};
