/* XPM */
static char *libreoffice_calc_png_ico_3[] = {
/* columns rows colors chars-per-pixel */
"48 48 102 2 ",
"   c None",
".  c #004E00",
"X  c #005400",
"o  c #005C00",
"O  c #006300",
"+  c #006C00",
"@  c #096F09",
"#  c #007300",
"$  c #007C00",
"%  c #0B700B",
"&  c #0B780B",
"*  c #0F7910",
"=  c #127212",
"-  c #1B741B",
";  c #197B19",
":  c #237924",
">  c #287528",
",  c #29782A",
"<  c #327E33",
"1  c #008100",
"2  c #008B00",
"3  c #009300",
"4  c #019C01",
"5  c #1E8F1E",
"6  c #01A301",
"7  c #02AA02",
"8  c #279427",
"9  c #289428",
"0  c #3B833B",
"q  c #468746",
"w  c #458C45",
"e  c #4C8E4C",
"r  c #459445",
"t  c #459B45",
"y  c #4F934F",
"u  c #548E55",
"i  c #549354",
"p  c #5D965D",
"a  c #45A245",
"s  c #49A449",
"d  c #639A63",
"f  c #6CA06D",
"g  c #75A475",
"h  c #71A972",
"j  c #79A77A",
"k  c #7CA97C",
"l  c #82AC82",
"z  c #85AF85",
"x  c #89AF89",
"c  c #8FB28F",
"v  c #8EB88E",
"b  c #90B591",
"n  c #95B795",
"m  c #99BA99",
"M  c #A5C2A5",
"N  c #A6C3A6",
"B  c #A7C4A8",
"V  c #ABC7AB",
"C  c #ACC5AC",
"Z  c #B1CAB1",
"A  c #B2CAB2",
"S  c #B3CBB3",
"D  c #B4CCB4",
"F  c #B5CCB5",
"G  c #BAD1BA",
"H  c #BBD0BB",
"J  c #C2D5C2",
"K  c #C3D5C3",
"L  c #C5D7C6",
"P  c #C6D7C6",
"I  c #C5DAC5",
"U  c #C5DBC5",
"Y  c #C5DAC5",
"T  c #CBDACB",
"R  c #CEDDCE",
"E  c #D2DFD2",
"W  c #C2E1C2",
"Q  c #C4E2C4",
"!  c #D4E0D4",
"~  c #DBE6DB",
"^  c #E0E9E0",
"/  c #ECF1EC",
"(  c #EDF1ED",
")  c #EEF2EE",
"_  c #F0F4F0",
"`  c #F1F5F1",
"'  c #F2F5F2",
"]  c #F5F7F5",
"[  c #F6F8F6",
"{  c #F7F9F7",
"}  c #F7FBF7",
"|  c #F8FAF8",
" . c #F8FBF8",
".. c #F9FCF9",
"X. c #FAFCFA",
"o. c #FBFCFB",
"O. c #FBFDFB",
"+. c gray99",
"@. c #FDFDFD",
"#. c #FFFEFF",
"$. c white",
"%. c #FDFEFD",
/* pixels */
"        7 7 7 6 6 6 6 6 6 4 4 4 4 4 4 4 3 3 3 3 3 3 2 2 2 2 2 2 2 2 2 2 1 a | $.$.$.$.o.s $ $ $ ",
"      7 4 3 2 2 2 2 2 2 2 2 2 2 2 2 2 2 2 2 2 2 2 2 1 1 1 1 1 1 1 1 1 1 $ a | $.$.$.$.o.s $ $ $ ",
"    7 3 1 $ $ $ 1 1 1 1 1 1 1 1 1 $ 1 1 1 1 1 1 $ $ $ 1 1 1 1 1 1 1 1 1 $ a | $.$.$.$.o.s $ $ # ",
"  7 3 1 1 1 1 1 1 1 1 1 1 $ $ $ $ $ $ $ 1 1 1 1 $ $ 1 1 1 1 1 1 1 1 1 1 $ a | $.$.$.$.o.s $ $ # ",
"7 6 1 1 1 1 1 1 1 1 $ # # + @ @ @ @ @ # $ 1 1 1 1 1 1 1 1 1 1 1 1 1 1 1 $ a | $.$.$.$.o.s $ $ # ",
"7 3 $ 1 1 1 1 1 $ # = e z N A A A A F v & $ 1 1 1 1 1 1 1 1 1 1 1 1 1 $ $ a | $.$.$.$.o.s $ $ # ",
"7 2 $ 1 1 1 1 $ @ i L | $.$.$.$.$.$.$.V # $ 1 1 1 1 1 1 1 1 1 1 1 1 $ $ $ a | $.$.$.$.o.s $ $ # ",
"7 2 $ 1 1 1 $ @ l ] $.$.$.$.$.$.$.$.$.g # 1 1 1 1 1 1 1 1 1 1 1 1 $ $ $ $ a | $.$.$.$.o.s $ $ # ",
"6 2 $ 1 1 $ + k o.$.$.$.$.$.$.$.$.$.] q # 1 1 1 1 1 1 1 1 1 1 1 $ $ $ $ $ t | $.$.$.$.o.s $ $ # ",
"6 2 $ 1 1 # q ` $.$.$.$.! n g d d p i * $ 1 1 1 1 1 1 1 1 1 1 $ $ $ $ $ # t | $.$.$.$.o.s $ $ + ",
"6 2 $ 1 $ % F $.$.$.$.C - + # # # # # $ 1 1 1 1 1 1 1 1 1 1 $ $ $ $ $ # # t | $.$.$.$.o.s $ $ + ",
"6 2 $ 1 # 0 ` $.$.$.^ , # $ 1 1 1 1 1 1 1 1 1 1 1 1 1 1 1 $ $ $ $ $ # # # t | $.$.$.$.o.s $ $ + ",
"6 2 $ 1 # j $.$.$.$.m + $ 1 1 1 1 1 1 1 1 1 1 1 1 1 $ $ $ $ $ $ $ # # # # t | $.$.$.$.o.s $ $ + ",
"6 2 1 $ + B $.$.$.$.p # 1 1 1 1 1 1 1 1 1 1 1 1 1 1 1 $ $ $ $ $ # # # + + t | $.$.$.$.o.s $ $ + ",
"4 2 1 $ % J $.$.$.` 0 $ 1 1 $ 1 1 1 1 1 1 1 1 1 1 1 $ $ $ $ $ # # # + + + t | $.$.$.$.o.s $ $ + ",
"4 2 1 $ = R $.$.$.) < $ 1 1 1 $ 1 1 1 1 1 1 1 1 1 $ $ $ $ $ # # # + + + + r | $.$.$.$.o.s $ $ + ",
"4 2 1 $ = R $.$.$.{ q # 1 1 1 1 1 1 1 1 1 1 1 1 $ $ $ $ $ # # + + + + + + r | $.$.$.$.o.s $ $ + ",
"4 2 1 $ % J $.$.$.$.c + $ 1 1 1 1 1 1 1 1 1 1 $ $ $ $ $ # # + + + + O O O r | $.$.$.$.o.s $ $ O ",
"4 2 1 $ + N $.$.$.$.) u + # $ $ $ 1 1 1 $ 1 $ $ $ $ $ # # # + + + O O O O r | $.$.$.$.o.s $ $ O ",
"4 2 1 1 # f $.$.$.$.$.) x < = @ # $ 1 1 $ $ $ $ $ $ # # # + + + O O O O O r | $.$.$.$.o.s $ $ O ",
"4 2 1 1 $ : ~ $.$.$.$.$.$.) T A h # $ 1 $ $ $ $ $ # # # + + + O O O o o O r | $.$.$.$.o.s $ $ O ",
"3 2 1 1 $ # d { $.$.$.$.$.$.$.$.d # 1 $ $ $ $ $ # # # + + + O O O o o o o r | $.$.$.$.o.s $ $ O ",
"3 2 1 1 1 $ @ g ] $.$.$.$.$.$.L = $ $ $ $ $ $ # # # + + + O O O o o o o o w | $.$.$.$.o.s $ $ O ",
"3 2 $ 1 1 1 $ @ p E $.$.$.$.$.d # $ $ $ $ $ # # # + + + O O O o o o X X o w | $.$.$.$.o.s $ $ O ",
"3 2 1 $ $ $ $ $ # - i b H ~ H = $ $ $ $ $ # # # + + + O O O o o o X X X X w | $.$.$.$.o.s $ $ o ",
"3 2 $ $ $ $ 1 1 $ $ # + @ - ; $ $ $ $ $ # # # + + + O O O o o o X X X X X q | $.$.$.$.o.s $ $ o ",
"3 2 1 $ 1 1 1 1 1 1 1 1 $ $ $ $ $ $ $ # # # + + + O O O o o o X X X . X X q | $.$.$.$.o.s $ $ o ",
"3 2 $ $ 1 1 1 1 1 1 1 1 1 $ $ $ $ $ # # # + + + O O O o o o X X X . . . X q | $.$.$.$.o.s $ $ o ",
"2 2 1 1 1 1 1 1 1 1 1 1 $ $ $ $ $ # # + + + + O O O o o o X X X . . . X X i o.$.$.$.$.o.s $ $ o ",
"2 2 1 1 1 1 1 1 1 1 1 $ $ $ $ $ # # # + + + O O O o o o X X X . . . . X > U $.$.$.$.$.o.s $ $ o ",
"2 2 1 1 1 1 1 1 1 1 $ $ $ $ $ # # + + + + O O O o o o X X X . . . . X > U $.$.$.$.$.$.o.s $ $ o ",
"2 1 1 1 1 1 1 1 1 $ $ $ $ $ # # # + + + O O O o o o X X X . . . . X > U $.$.$.$.$.$.$.o.s $ $ o ",
"2 1 1 $ 1 1 1 1 $ $ $ $ $ # # + + + + O O O o o o X X X . . . . X > U $.$.$.$.$.$.$.$.W 5 $ $ X ",
"2 1 $ $ 1 1 1 $ $ $ $ $ # # # + + + O O O o o o X X X . . . . X > U $.$.$.$.$.$.$.$.Q 9 $ 1 # X ",
"2 1 $ 1 1 1 $ $ $ $ $ # # # + + + O O O o o o X X X X . . . X > U $.$.$.$.$.$.$.$.Q 8 $ 1 $ o . ",
"2 1 1 1 1 $ $ $ $ $ # # # + + + + O O O o o o X X X X . X X > U $.$.$.$.$.$.$.$.Q 8 $ 1 $ o .   ",
"1 $ $ $ $ $ $ $ $ # # # # + + + + O O O O o o o X X X X X > U $.$.$.$.$.$.$.$.Q 8 $ 1 $ o .     ",
"s a a a a a a a t t t t t t r r r r r r r w w w w q q q y U $.$.$.$.$.$.$.$.Q 8 $ 1 $ o .       ",
"o.| | | | | | | | | | | | | | | | | | | | | | | | | | { o.$.$.$.$.$.$.$.$.Q 8 $ 1 $ o .         ",
"$.$.$.$.$.$.$.$.$.$.$.$.$.$.$.$.$.$.$.$.$.$.$.$.$.$.$.$.$.$.$.$.$.$.$.$.Q 8 $ 1 $ o .           ",
"$.$.$.$.$.$.$.$.$.$.$.$.$.$.$.$.$.$.$.$.$.$.$.$.$.$.$.$.$.$.$.$.$.$.$.Q 8 $ 1 $ o .             ",
"$.$.$.$.$.$.$.$.$.$.$.$.$.$.$.$.$.$.$.$.$.$.$.$.$.$.$.$.$.$.$.$.$.$.Q 8 $ 1 $ o .               ",
"$.$.$.$.$.$.$.$.$.$.$.$.$.$.$.$.$.$.$.$.$.$.$.$.$.$.$.$.$.$.$.$.$.Q 8 $ 1 $ o .                 ",
"o.o.o.o.o.o.o.o.o.o.o.o.o.o.o.o.o.o.o.o.o.o.o.o.o.o.o.o.o.o.o.o.W 9 $ 1 $ o .                   ",
"s s s s s s s s s s s s s s s s s s s s s s s s s s s s s s s s 5 $ 1 $ o .                     ",
"$ $ $ $ $ $ $ $ $ $ $ $ $ $ $ $ $ $ $ $ $ $ $ $ $ $ $ $ $ $ $ $ 1 1 $ o .                       ",
"$ $ $ $ $ $ $ $ $ $ $ $ $ $ $ $ $ $ $ $ $ $ $ $ $ $ $ $ $ # # # # # o .                         ",
"# # # # # # # # + + + + + + + O O O O O O O o o o o o o o X X X X X .                           "
};
