/* XPM */
static char *libreoffice_calc_png[] = {
/* columns rows colors chars-per-pixel */
"64 64 117 2 ",
"   c None",
".  c #004E00",
"X  c #005400",
"o  c #005C00",
"O  c #0E5E0F",
"+  c #016401",
"@  c #006C00",
"#  c #076208",
"$  c #0E640E",
"%  c #007300",
"&  c #007C00",
"*  c #087C08",
"=  c #0F6210",
"-  c #116412",
";  c #1A681B",
":  c #236B24",
">  c #276E28",
",  c #2B6D2C",
"<  c #2E722F",
"1  c #2D7C2D",
"2  c #306D31",
"3  c #367437",
"4  c #3B763C",
"5  c #3B783C",
"6  c #3F7440",
"7  c #457D46",
"8  c #008000",
"9  c #008C00",
"0  c #098609",
"q  c #0A8C0A",
"w  c #009300",
"e  c #009B00",
"r  c #0B930B",
"t  c #0D9B0D",
"y  c #00A400",
"u  c #01AB01",
"i  c #0FA30F",
"p  c #0FA90F",
"a  c #13A713",
"s  c #11AA11",
"d  c #1CA61C",
"f  c #3D843D",
"g  c #24A724",
"h  c #2DA22D",
"j  c #478048",
"k  c #4C904D",
"l  c #508851",
"z  c #588359",
"x  c #578858",
"c  c #5D8A5E",
"v  c #5F8B60",
"b  c #648E65",
"n  c #6A936B",
"m  c #769F77",
"M  c #779A78",
"N  c #7E9D7F",
"B  c #67B367",
"V  c #6AB56A",
"C  c #84A384",
"Z  c #81AB81",
"A  c #8FAA8F",
"S  c #92AB92",
"D  c #9CB49C",
"F  c #A1B5A1",
"G  c #A3B8A3",
"H  c #AFBFAF",
"J  c #A2C9A2",
"K  c #A2CCA2",
"L  c #A2CDA2",
"P  c #A2CEA2",
"I  c #A2CFA2",
"U  c #AACEAA",
"Y  c #A2D0A2",
"T  c #A2D1A2",
"R  c #A3D1A3",
"E  c #A5D2A5",
"W  c #AAD3AA",
"Q  c #B0C1B0",
"!  c #B2C1B2",
"~  c #B6C4B6",
"^  c #B2D0B2",
"/  c #B2D1B2",
"(  c #B5D2B5",
")  c #B2D0B2",
"_  c #B5D8B5",
"`  c #C8D2C8",
"'  c #CAD4CA",
"]  c #CBD6CB",
"[  c #CCD5CC",
"{  c #CDD6CD",
"}  c #CED7CE",
"|  c #D2DAD2",
" . c #D2DBD2",
".. c #D5DDD5",
"X. c #C9E0C9",
"o. c #CDE2CD",
"O. c #DDE3DD",
"+. c #DDE4DD",
"@. c #DFE5DF",
"#. c #E1E7E1",
"$. c #E6EAE6",
"%. c #E9ECE9",
"&. c #E9EDE9",
"*. c #ECF1EC",
"=. c #EFF2EF",
"-. c #F1F3F1",
";. c #F4F6F4",
":. c #F6F7F6",
">. c #F7F8F7",
",. c #F9FAF9",
"<. c #FAFBFA",
"1. c #FBFCFB",
"2. c gray99",
"3. c #FDFDFD",
"4. c #FEFEFE",
"5. c white",
"6. c #FFFFFF",
/* pixels */
"            g s u u u u y y y y y y y y e e e e e e e e e w w w w w w w w w 9 9 9 9 9 9 9 9 8 8 8 8 E 5.5.5.5.5.5.5.5.& & & & % ",
"        g u u y e w w w w w w w w w w w w w 9 9 9 9 9 9 9 9 9 9 9 9 9 9 9 9 8 8 8 8 8 8 8 8 8 8 8 8 T 5.5.5.5.5.5.5.5.& & & & % ",
"      p u e 8 8 8 8 8 8 8 8 8 8 8 8 8 8 8 8 8 8 8 8 8 8 8 8 8 8 8 8 8 8 8 8 8 & 8 8 8 8 8 8 8 8 8 8 T 5.5.5.5.5.5.5.5.8 8 8 & % ",
"    s u 9 8 8 8 8 8 8 8 8 8 8 8 8 8 8 8 8 8 8 8 8 8 8 8 8 8 8 8 8 8 8 8 8 8 8 8 8 8 8 8 8 8 8 8 8 8 T 5.5.5.5.5.5.5.5.8 8 8 & % ",
"  g u 9 8 8 8 8 8 8 8 8 8 8 8 8 8 8 8 8 8 8 8 8 8 8 8 8 8 8 8 8 8 8 8 8 8 8 8 8 8 8 8 8 8 8 8 8 8 8 T 5.5.5.5.5.5.5.5.8 8 8 & % ",
"  u e 8 8 8 8 8 8 8 8 8 8 & & & & & & & & & & & & & & & 8 8 8 8 8 8 8 8 8 8 8 8 8 8 8 8 8 8 8 8 8 8 T 5.5.5.5.5.5.5.5.8 8 8 & % ",
"h u 8 8 8 8 8 8 8 8 8 8 & & % % + + o o o o o o o + @ & & 8 8 8 8 8 8 8 8 8 8 8 8 8 8 8 8 8 8 8 8 & T 5.5.5.5.5.5.5.5.8 8 8 & % ",
"d y 8 8 8 8 8 8 8 8 & & % @ - c G | $.<.5.5.5.5.5.5.Z % & 8 8 8 8 8 8 8 8 8 8 8 8 8 8 8 8 8 8 & & & T 5.5.5.5.5.5.5.5.8 8 8 & % ",
"a e 8 8 8 8 8 8 8 & & % $ C -.5.5.5.5.5.5.5.5.5.5.5.j % & 8 8 8 8 8 8 8 8 8 8 8 8 8 8 8 8 & & & & & T 5.5.5.5.5.5.5.5.8 8 8 & % ",
"p e 8 8 8 8 8 8 & & @ , ..5.5.5.5.5.5.5.5.5.5.5.5.5.= % & 8 8 8 8 8 8 8 8 8 8 8 8 8 8 8 & & & & & & T 5.5.5.5.5.5.5.5.8 & & & @ ",
"p e 8 8 8 8 8 & & @ 4 ;.5.5.5.5.5.5.5.5.5.5.5.5.5.| + & 8 8 8 8 8 8 8 8 8 8 8 8 8 8 8 & & & & & & & T 5.5.5.5.5.5.5.5.8 8 & & @ ",
"p e 8 8 8 8 8 & % , =.5.5.5.5.5.5.5.5.5.5.5.5.5.5.D @ & 8 8 8 8 8 8 8 8 8 8 8 8 8 8 & & & & & & & & L 5.5.5.5.5.5.5.5.8 8 8 & @ ",
"p e & & & 8 & & # ] 5.5.5.5.5.5.5.%.~ D C M M M m 1 % & 8 8 8 8 8 8 8 8 8 8 8 8 8 & & & & & & & & & L 5.5.5.5.5.5.5.5.8 8 8 & @ ",
"p e & & 8 8 & @ n 5.5.5.5.5.5.-.z o + + @ @ @ @ % % & & 8 8 8 8 8 8 8 8 8 8 8 8 & & & & & & & % % & L 5.5.5.5.5.5.5.5.8 8 8 & @ ",
"i e 8 8 8 & & + O.5.5.5.5.5.5.6 @ % & & & & & & & & & 8 8 8 8 8 8 8 8 8 8 8 8 8 8 & & & & & % % % % L 5.5.5.5.5.5.5.5.8 8 8 & @ ",
"i e 8 8 8 & % 7 5.5.5.5.5.5.F + & & & 8 8 8 8 8 8 8 8 8 8 8 8 8 8 8 8 8 8 8 8 8 & & & & & % % % % % L 5.5.5.5.5.5.5.5.8 8 8 & @ ",
"i w 8 8 8 & @ A 5.5.5.5.5.5.3 % & 8 8 8 8 8 8 8 8 8 8 8 8 8 8 8 8 8 8 8 8 & & & & & & & % % % % % % L 5.5.5.5.5.5.5.5.8 8 8 & @ ",
"i w 8 8 8 & + [ 5.5.5.5.5.%.o & & 8 8 8 8 8 8 8 8 8 8 8 8 8 8 8 8 8 8 8 & & & & & & & % % % % % % % L 5.5.5.5.5.5.5.5.& 8 8 & @ ",
"i w 8 8 & & o ;.5.5.5.5.5.! + & 8 8 8 8 8 8 8 8 8 8 8 8 8 8 8 8 8 8 8 & & & & & & & % % % % @ @ @ % L 5.5.5.5.5.5.5.5.8 8 8 & + ",
"t w 8 8 & & ; 5.5.5.5.5.5.S @ & 8 8 8 8 8 8 8 8 8 8 8 8 8 8 8 8 8 8 & & & & & & & % % % % @ @ @ @ % L 5.5.5.5.5.5.5.5.8 8 8 % + ",
"t w 8 8 & % > 5.5.5.5.5.5.N @ & 8 8 8 8 8 8 8 8 8 8 8 8 8 8 8 8 8 & & & & & & & % % % % @ @ @ @ @ @ L 5.5.5.5.5.5.5.5.8 8 8 % + ",
"t w 8 8 & % < 5.5.5.5.5.5.S + & 8 8 8 8 8 8 8 8 8 8 8 8 8 8 8 8 & & & & & & & % % % @ @ @ @ @ @ @ @ L 5.5.5.5.5.5.5.5.8 8 8 % + ",
"t w 8 8 & % : 5.5.5.5.5.5.` o & & 8 8 8 8 8 8 8 8 8 8 8 8 8 8 & & & & & & & % % % % @ @ @ @ @ + @ @ L 5.5.5.5.5.5.5.5.8 8 8 % + ",
"t w 8 8 & & - 5.5.5.5.5.5.5.2 @ & & 8 8 8 8 8 8 8 8 8 8 8 8 & & & & & & & % % % % @ @ @ @ + + + + @ J 5.5.5.5.5.5.5.5.8 8 8 % + ",
"t w 8 8 8 & o $.5.5.5.5.5.5.[ O @ & & & & 8 8 8 8 8 8 8 8 & 8 & & & & & % % % % @ @ @ @ + + + + + @ J 5.5.5.5.5.5.5.5.8 8 8 % + ",
"t w 8 8 8 & + ! 5.5.5.5.5.5.5.[ , + @ % & & & & 8 8 8 8 & & & & & & & % % % % @ @ @ @ + + + + + + @ J 5.5.5.5.5.5.5.5.8 8 8 % + ",
"t w 8 8 8 & % x 5.5.5.5.5.5.5.5.5.H c : o + % & & 8 8 & & & & & & & % % % @ @ @ @ @ + + + + + + + + J 5.5.5.5.5.5.5.5.8 8 8 % o ",
"t w 8 8 8 & & # @.5.5.5.5.5.5.5.5.5.5.5.<.=.k & & 8 & & & & & & & % % % @ @ @ @ @ + + + + o o o + + J 5.5.5.5.5.5.5.5.8 8 8 % o ",
"r w 8 8 8 8 & @ 7 5.5.5.5.5.5.5.5.5.5.5.5.@.# & & & & & & & & & % % % % @ @ @ @ + + + + o o o o o + J 5.5.5.5.5.5.5.5.8 8 8 % o ",
"r 9 8 8 8 8 & & @ v 5.5.5.5.5.5.5.5.5.5.5.b @ & & & & & & & & % % % % @ @ @ @ + + + + o o o o o o + J 5.5.5.5.5.5.5.5.8 8 8 % o ",
"r 9 8 8 8 8 8 & & + b 1.5.5.5.5.5.5.5.5.@.# & & & & & & & & % % % % @ @ @ @ + + + + o o o o o o o + J 5.5.5.5.5.5.5.5.8 8 8 % o ",
"r 9 8 8 8 8 8 8 & & @ 5 | 5.5.5.5.5.5.5.b @ & & & & & & & % % % % @ @ @ @ + + + + o o o o X X X o + J 5.5.5.5.5.5.5.5.8 8 8 % o ",
"r 9 8 8 8 8 8 8 8 & & % + 3 C ] >.5.5.#.# % & & & & & & % % % % @ @ @ @ + + + + o o o o X X X X o + J 5.5.5.5.5.5.5.5.8 8 8 % o ",
"r 9 8 8 8 8 8 8 8 8 & & & % @ + o : l f % & & & & & & % % % % @ @ @ @ + + + + o o o o X X X X X X o J 5.5.5.5.5.5.5.5.8 8 8 % o ",
"r 9 8 8 8 8 8 8 8 8 8 8 & & & & & % % % & & & & & & % % % % @ @ @ @ + + + + o o o o X X X X X X X o J 5.5.5.5.5.5.5.5.8 8 8 % o ",
"r 9 8 8 8 8 8 8 8 8 8 8 8 8 8 8 8 & & & & & & & & % % % % @ @ @ @ + + + + o o o o X X X X X . X X o J 5.5.5.5.5.5.5.5.8 8 8 % X ",
"r 9 8 8 8 8 8 8 8 8 8 8 8 8 8 8 8 & & & & & & & % % % % @ @ @ @ + + + + o o o o X X X X . . . . X o J 5.5.5.5.5.5.5.5.8 8 8 % X ",
"q 9 8 8 8 8 8 8 8 8 8 8 8 8 8 8 & & & & & & & % % % @ @ @ @ @ + + + + o o o o X X X X . . . . . X o J 5.5.5.5.5.5.5.5.8 8 8 % X ",
"q 9 8 8 8 8 8 8 8 8 8 8 8 8 8 & & & & & & & % % % % @ @ @ @ + + + + o o o o X X X X . . . . . X o # X.5.5.5.5.5.5.5.5.8 8 8 % X ",
"q 9 8 8 8 8 8 8 8 8 8 8 8 8 & & & & & & & % % % % @ @ @ @ + + + + o o o o X X X X . . . . . X X # ^ 5.5.5.5.5.5.5.5.5.8 8 8 % X ",
"q 9 8 8 8 8 8 8 8 8 8 8 8 & & & & & & & % % % % @ @ @ @ + + + + o o o o X X X X . . . . . X X o ^ 5.5.5.5.5.5.5.5.5.5.8 8 8 % X ",
"q 8 8 8 8 8 8 8 8 8 8 8 & & & & & & & % % % % @ @ @ @ + + + + o o o o X X X X . . . . . X X o ^ 5.5.5.5.5.5.5.5.5.5.5.& 8 8 % X ",
"q 8 8 8 8 8 8 8 8 8 8 & & & & & & & % % % @ @ @ @ @ + + + + o o o o X X X X . . . . . X X # ( 5.5.5.5.5.5.5.5.5.5.5.5.& 8 8 % X ",
"q 8 8 8 8 8 8 8 8 8 & & & & & & & % % % @ @ @ @ @ + + + + o o o o X X X X . . . . . X X # ^ 5.5.5.5.5.5.5.5.5.5.5.5.V & 8 8 % . ",
"q 8 8 8 8 8 8 8 8 & & & & & & & % % % % @ @ @ @ + + + + o o o o X X X X . . . . . X X # ^ 5.5.5.5.5.5.5.5.5.5.5.5.V 8 8 8 8 % . ",
"q 8 8 8 8 8 8 8 & & & & & & & % % % % @ @ @ @ + + + + o o o o X X X X X . . . . X X # ^ 5.5.5.5.5.5.5.5.5.5.5.5.V 8 8 8 8 & X . ",
"0 8 8 8 8 8 8 8 & & & & & & % % % % @ @ @ @ @ + + + + o o o o X X X X . . . . X X # ^ 5.5.5.5.5.5.5.5.5.5.5.5.V 8 8 8 8 & X .   ",
"0 8 8 8 8 8 8 & & & & & & % % % % % @ @ @ @ + + + + + o o o o X X X X X X X X X # ^ 5.5.5.5.5.5.5.5.5.5.5.5.V 8 8 8 8 & X .     ",
"0 8 8 8 8 8 8 & & & & & & % % % % % @ @ @ @ @ + + + + + o o o o o X X X X X o # ^ 5.5.5.5.5.5.5.5.5.5.5.5.V 8 8 8 8 & X .       ",
"0 8 8 8 8 8 & & & & & & & & % % % % % % @ @ @ @ @ @ @ + + + + + + o o o o o # ^ 5.5.5.5.5.5.5.5.5.5.5.5.V 8 8 8 8 & X .         ",
"_ W W W W W W W W W W W W W W W W W W W W W W W U U U U U U U U U U U U U U o.5.5.5.5.5.5.5.5.5.5.5.5.B 8 8 8 8 & X .           ",
"5.5.5.5.5.5.5.5.5.5.5.5.5.5.5.5.5.5.5.5.5.5.5.5.5.5.5.5.5.5.5.5.5.5.5.5.5.5.5.5.5.5.5.5.5.5.5.5.5.5.V 8 8 8 8 & X .             ",
"5.5.5.5.5.5.5.5.5.5.5.5.5.5.5.5.5.5.5.5.5.5.5.5.5.5.5.5.5.5.5.5.5.5.5.5.5.5.5.5.5.5.5.5.5.5.5.5.5.V 8 8 8 8 & X .               ",
"5.5.5.5.5.5.5.5.5.5.5.5.5.5.5.5.5.5.5.5.5.5.5.5.5.5.5.5.5.5.5.5.5.5.5.5.5.5.5.5.5.5.5.5.5.5.5.5.V 8 8 8 8 & X .                 ",
"5.5.5.5.5.5.5.5.5.5.5.5.5.5.5.5.5.5.5.5.5.5.5.5.5.5.5.5.5.5.5.5.5.5.5.5.5.5.5.5.5.5.5.5.5.5.5.V 8 8 8 8 & X .                   ",
"5.5.5.5.5.5.5.5.5.5.5.5.5.5.5.5.5.5.5.5.5.5.5.5.5.5.5.5.5.5.5.5.5.5.5.5.5.5.5.5.5.5.5.5.5.5.V 8 8 8 8 & X .                     ",
"5.5.5.5.5.5.5.5.5.5.5.5.5.5.5.5.5.5.5.5.5.5.5.5.5.5.5.5.5.5.5.5.5.5.5.5.5.5.5.5.5.5.5.5.5.V 8 8 8 8 & X .                       ",
"5.5.5.5.5.5.5.5.5.5.5.5.5.5.5.5.5.5.5.5.5.5.5.5.5.5.5.5.5.5.5.5.5.5.5.5.5.5.5.5.5.5.5.5.V 8 8 8 8 & X .                         ",
"5.5.5.5.5.5.5.5.5.5.5.5.5.5.5.5.5.5.5.5.5.5.5.5.5.5.5.5.5.5.5.5.5.5.5.5.5.5.5.5.5.5.5.V 8 8 8 8 & X .                           ",
"* & 8 8 8 8 8 8 8 8 8 8 8 8 8 8 8 8 8 8 8 8 8 8 8 8 8 8 8 8 8 8 8 8 8 8 8 8 8 8 8 8 8 8 8 8 8 & X .                             ",
"* & 8 8 8 8 8 8 8 8 8 8 8 8 8 8 8 8 8 8 8 8 8 8 8 8 8 8 8 8 8 8 8 8 8 8 8 8 8 8 8 8 8 8 8 8 & X .                               ",
"* & 8 8 8 8 8 8 8 8 8 8 8 8 8 8 8 8 8 8 8 8 8 8 8 8 8 8 8 8 8 8 8 8 8 8 8 8 8 8 8 8 8 8 8 & X .                                 ",
"* & & & & & & & & & & & % % % % % % % % % % % % % % % % @ % @ @ @ @ @ @ @ @ @ @ @ @ @ @ @ X .                                   ",
"* % % % % % % % % @ @ @ @ @ @ @ @ @ + + + + + + + + o o o o o o o o o X X X X X X X X . . .                                     "
};
