/* XPM */
static char *m0dcalendar_png_ico_4[] = {
/* columns rows colors chars-per-pixel */
"64 64 127 2 ",
"   c None",
".  c #070707",
"X  c #0D0A07",
"o  c #0D0C0C",
"O  c #1A0F05",
"+  c #110E0D",
"@  c #1B1006",
"#  c #14110E",
"$  c #141413",
"%  c #191613",
"&  c #1D1815",
"*  c #1D1D1D",
"=  c #26180A",
"-  c #2C1C0C",
";  c #331D0B",
":  c #3C1C0B",
">  c #231B16",
",  c #241E1A",
"<  c #281F1A",
"1  c #36210C",
"2  c #3C230C",
"3  c #26211E",
"4  c #28201A",
"5  c #332010",
"6  c #30261F",
"7  c #1F2020",
"8  c #252424",
"9  c #2A2522",
"0  c #2F2926",
"q  c #2C2C2B",
"w  c #312720",
"e  c #342923",
"r  c #382C24",
"t  c #36302C",
"y  c #3A342F",
"u  c #333333",
"i  c #3D3631",
"p  c #3A3A3A",
"a  c #431D0A",
"s  c #4C1E0A",
"d  c #541E09",
"f  c #581F08",
"g  c #43250B",
"h  c #4B240A",
"j  c #4C290A",
"k  c #5E2007",
"l  c #522509",
"z  c #5B2309",
"x  c #542C0A",
"c  c #5C2A08",
"v  c #5C330C",
"b  c #422912",
"n  c #5E3814",
"m  c #692307",
"M  c #6F2907",
"N  c #632208",
"B  c #622C09",
"V  c #6B2D08",
"C  c #63360B",
"Z  c #47382E",
"A  c #48392F",
"S  c #423B35",
"D  c #463E39",
"F  c #49403A",
"G  c #464646",
"H  c #4A4A4A",
"J  c #544A43",
"K  c #584D46",
"L  c #594F48",
"P  c #5A5048",
"I  c #555555",
"U  c #5A5A5A",
"Y  c #5B5B5B",
"T  c gray35",
"R  c #5B5B5B",
"E  c #61564F",
"W  c #635850",
"Q  c #685C54",
"!  c #6C6058",
"~  c #72655C",
"^  c #75685F",
"/  c #5F6060",
"(  c #626262",
")  c gray39",
"_  c #646464",
"`  c #676767",
"'  c #636363",
"]  c #676868",
"[  c #686868",
"{  c #686869",
"}  c DimGray",
"|  c #696A6A",
" . c #6A6A6A",
".. c #6A6A6B",
"X. c gray42",
"o. c #6F6F6F",
"O. c #6B6B6B",
"+. c #776960",
"@. c #7B6D63",
"#. c #7F7066",
"$. c #727272",
"%. c gray45",
"&. c #747474",
"*. c #737373",
"=. c #812506",
"-. c #822506",
";. c #AD2B03",
":. c #AE2B03",
">. c #B33302",
",. c #B43302",
"<. c #C03402",
"1. c #D03800",
"2. c #D13800",
"3. c #934D06",
"4. c #944D06",
"5. c #BD4D02",
"6. c #985C27",
"7. c #985D28",
"8. c #C04F01",
"9. c #D25600",
"0. c #D45700",
"q. c #C4680C",
"w. c #CB6C09",
"e. c #807167",
"r. c #817268",
"t. c #827369",
"y. c #827369",
/* pixels */
"                                                                                                                                ",
"                                                                                                                                ",
"- - - - - - - - - - - - - - - - - - - - - - - - - - - - - - - - - - - - - - - - - - - - - - - - - - - - - - - - - - - - - - - - ",
"- - - - - - 5 - - - - - - - - - - - - - - - - - - - - - - - - - - - - - - - - - - - - - - - - - - - - - - - - - - 5 - - - - - - ",
"- - - - - n 6.b - - - - - - - - - 2 2 - - - - - - - - 1 ; - - - - - - - - ; ; - 2 1 - 2 1 ; 2 ; - - - - - - - - b 7.n - - - - - ",
"- - - j 3.w.q.g - - - - - - - - j C v x ; g g x ; g 1 x x 2 - g 2 ; g ; - C j g v v j v 2 2 v v - - - - - - - - g q.w.4.j - - - ",
"- - c 5.0.9.8.g - - - - - - - - B 2 ; V B j l B l x c c B B c V V B c - - h j h l V V B l - h l - - - - - - - - g 8.9.0.5.c - - ",
"- - ; M >.1.<.a - - - - - - - - z s a N N : a d f a k N s z m N h k : - - a l - h N N s N s N ; - - - - - - - - a <.1.,.M ; - - ",
"- - - - : =.;.a - - - - - - - - ; d d : a d : d : d s : d s : d a a ; - - : : ; d a ; d s d k a - - - - - - - - a ;.=.: - - - - ",
"- - - - - - a ; - - - - - - - - - - - - - - - - - - - - - - - - - - - - - - - - - - - - - - - - - - - - - - - - ; a - - - - - - ",
"= = = = = = = = = = = = = = = = = = = = = = = = = = = = = = = = = = = = = = = = = = = = = = = = = = = = = = = = = = = = = = = = ",
"+ % % % % % % % # o % % % % % % % $ X % % % % % % % % X % % % % % % % % X % % % % % % % % X $ % % % % % % % o # % % % % % % % + ",
"p  . . . . . . .H q  . . . . . . .I 8 `  . . . . . .Y 8 (  . . . . . .( 8 Y  . . . . . .` 8 I  . . . . . . .q H  . . . . . . .p ",
"p  .` ` ` ` `  .G q ` ` ` ` ` `  .I 8 ` ` ` ` ` `  .Y 7 / ] ` ` ` ` ] / 7 Y  .` ` ` ` ` ` 8 I  .` ` ` ` ` ` q G  .` ` ` ` `  .p ",
"+ % % % % % % % # o % % % % % % % # X % % % % % % % $ X % % % % % % % % X $ % % % % % % % X # % % % % % % % o # % % % % % % % + ",
"@ @ @ @ @ @ @ @ @ @ O O O O O O O @ @ O O O O O O O @ @ @ O O O O O O @ @ @ O O O O O O O @ @ O O O O O O O @ @ O O O O O O O @ ",
"o % % % % % % % + $ q q q q q q q 8 + q q q q q q q 8 o 8 q q q q q q 8 o 8 q q q q q q q + 8 q q q q q q q $ , e 0 0 0 0 0 0 & ",
"< Z Z Z Z Z Z A 6 q $.$.$.$.$.$.*.Y 8 o.$.$.$.$.$.$.( 8  .$.$.$.$.$.$. .8 ( $.$.$.$.$.$.o.8 Y &.$.$.$.$.$.$.q K t.e.e.e.e.e.t.F ",
"< Z Z Z Z Z Z A 6 q $.$.$.$.$.$.&.Y 8 $.$.$.$.$.$.&.( 8  .&.$.$.$.$.&. .8 ( &.$.$.$.$.$.$.8 Y &.$.$.$.$.&.$.q L t.t.t.t.t.t.t.F ",
"< Z Z Z Z Z Z A 6 q $.$.$.$.$.$.&.Y 8 $.$.$.$.$.$.&.( 8  .$.$.$.$.$.$. .8 ( &.$.$.$.$.$.$.8 Y &.$.$.*.$.$.$.q L t.t.t.t.t.t.t.F ",
"< Z Z Z Z Z Z A 6 q $.$.$.$.&.$.&.Y 8 $.$.$.$.$.$.&.( 8  .$.$.$.$.$.$. .8 ( &.$.$.$.$.$.$.8 Y &.$.$.$.$.$.$.q L t.t.t.t.t.t.t.F ",
"< Z Z Z Z Z Z A 6 q $.$.$.$.*.$.&.Y 8 $.$.$.$.$.$.&.( 8  .$.$.$.$.$.$. .8 ( &.$.$.$.$.$.$.8 Y &.$.$.$.$.$.$.q L t.t.t.t.t.t.t.F ",
"< Z Z Z Z Z A A 6 q $.$.$.$.$.$.&.Y 8 $.$.$.$.$.$.&.( 8  .$.$.$.$.$.$. .8 ( &.$.$.$.$.$.$.8 Y &.$.$.$.$.$.$.q L t.t.t.t.t.t.t.F ",
"4 A A A A A A A 6 q &.&.&.&.&.&.&.Y q $.&.&.&.&.&.&.` 8 o.&.&.&.&.&.&.o.8 ` &.&.&.&.&.&.$.q Y &.&.&.&.&.&.&.q P t.t.t.t.t.t.t.F ",
"> r r r r r r r < 8 R R R R R R R H 8 Y R R R R R R I * I R R R R R R I * I R R R R R R Y 8 H R R R R R R R 8 F Q Q Q Q Q Q Q y ",
"$ 3 3 3 3 3 3 3 % o 8 8 8 8 8 8 8 * o 8 8 8 8 8 8 8 8 o 8 8 8 8 8 8 8 8 o 8 8 8 8 8 8 8 8 o * 8 8 8 8 8 8 8 + * 9 9 9 9 9 9 9 % ",
"D @.@.@.@.@.@.@.K q o.o.o.o.o.o.$.I 8 O.o.o.o.o.o.o.R 8 ` o.o.o.o.o.o.` 8 R o.o.o.o.o.o. .8 I $.o.o.o.o.o.o.q K @.@.@.@.@.@.@.D ",
"F t.t.t.t.t.t.t.L t &.&.$.$.$.$.&.Y 8 $.$.$.$.$.$.&.` 8  .&.$.$.$.$.&. .8 ` &.$.$.$.$.$.$.8 Y &.$.$.$.$.*.&.q L t.t.t.t.t.t.t.F ",
"F t.t.t.t.t.t.t.L q $.&.$.$.$.$.&.Y 8 $.$.$.$.$.$.&.( 8  .$.$.$.$.$.$. .8 ( &.$.$.$.*.*.$.8 Y &.$.$.*.$.$.$.q L t.t.t.t.t.t.t.F ",
"F t.t.t.t.t.t.t.L q *.&.$.$.$.$.&.Y 8 $.$.$.$.$.$.&.( 8  .$.$.$.$.$.$. .8 ( &.$.$.$.$.*.$.8 Y &.$.*.&.&.$.$.q L t.t.t.t.t.t.t.F ",
"F t.t.t.t.t.t.t.L q $.$.$.$.$.$.&.Y 8 $.$.$.$.$.$.&.( 8  .$.$.$.$.$.$. .8 ( &.$.$.$.$.$.$.8 Y &.$.$.*.*.$.$.q L t.t.t.t.t.t.t.F ",
"F t.t.t.t.t.t.t.L q $.$.$.$.$.$.&.Y 8 $.$.$.$.$.$.&.( 8  .$.$.$.$.$.$. .8 ( &.$.$.$.$.$.$.8 Y &.$.$.*.*.$.$.q L t.t.t.t.t.t.t.F ",
"F t.t.t.t.t.t.t.L q &.&.&.&.&.&.&.Y q $.&.&.&.&.&.&.' 8  .&.&.&.&.&.&. .8 ` &.&.&.&.&.&.$.8 Y &.&.&.&.&.&.&.q L t.t.t.t.t.t.t.F ",
"S ~ ~ ~ ~ ~ ~ ~ F q ` ` ` ` ` ` ` I 8 ( ` ` ` ` ` ` T * R ` ` ` ` ` ` R * Y ` ` ` ` ` ` ( 8 I ` ` ` ` ` ` ` q F ~ ~ ~ ~ ~ ~ ~ S ",
"% 9 9 9 9 9 9 9 & o 8 8 8 8 8 8 8 * o 8 8 8 8 8 8 8 * o 8 8 8 8 8 8 8 8 o * 8 8 8 8 8 8 8 o * 8 8 8 8 8 8 8 o & 9 9 9 9 9 9 9 % ",
"S ^ ^ ^ ^ ^ ^ +.J q  . . . . . . .I 8 `  . . . . . .Y 8 (  . . . . . .( 8 Y  . . . . . .` 8 I  . . . . . . .q J +.^ ^ ^ ^ ^ ^ S ",
"F t.t.t.t.t.t.t.L q &.&.&.&.&.&.&.Y 8 $.&.&.&.&.&.&.` 8  .&.&.&.&.&.&. .8 ` &.&.&.&.&.&.$.8 Y &.&.&.&.&.&.&.q L t.t.t.t.t.t.t.F ",
"F t.t.t.t.t.t.t.L q $.$.$.$.$.$.&.Y 8 $.$.$.$.$.$.&.( 8  .$.$.$.$.$.$. .8 ( &.$.$.$.$.$.$.8 Y $.$.$.$.$.*.*.q L t.t.t.t.t.t.t.F ",
"F t.t.t.t.t.t.t.L q $.$.$.$.$.$.&.Y 8 $.$.$.$.$.$.&.( 8  .$.$.$.$.$.$. .8 ( &.$.$.$.$.$.$.8 Y &.*.$.$.&.*.&.q L t.t.t.t.t.t.t.F ",
"F t.t.t.t.t.t.t.L q $.$.$.$.$.$.&.Y 8 $.$.$.$.$.$.&.( 8  .$.$.$.$.$.$. .8 ( &.$.$.$.$.$.$.8 Y &.$.$.$.$.$.*.q L t.t.t.t.t.t.t.F ",
"F t.t.t.t.t.t.t.L q $.$.$.$.$.$.&.Y 8 $.$.$.$.$.$.&.( 8  .$.$.$.$.$.$. .8 ( &.$.$.$.$.$.$.8 Y &.$.$.$.$.$.$.q L t.t.t.t.t.t.t.F ",
"F t.t.t.t.t.t.t.L q &.*.$.$.$.$.&.Y 8 $.&.$.$.$.$.&.` 8  .&.$.$.$.$.&. .8 ` &.$.$.$.$.&.$.8 Y &.$.$.$.$.$.$.q L t.t.t.t.t.t.t.F ",
"S @.@.@.@.@.@.@.J q o.o.o.o.o.o.o.I 8  .o.o.o.o. .o.R 8 ` o.o.o.O.o.o.` 8 R o.o.o.o.o.o. .8 I o.o.o.o.o.o.o.q J @.@.@.@.@.@.@.S ",
"% 9 9 9 9 9 9 9 & $ 8 8 8 8 8 8 8 * o 8 8 8 8 8 8 8 8 o 8 8 8 8 8 8 8 8 o 8 8 8 8 8 8 8 8 o * 8 8 8 8 8 8 8 o & 9 9 9 9 9 9 9 % ",
"i ! ! ! ! ! ! ! F 8 ( ( ( ( ( ( ( H 8 R ( ( ( ( ( ( I * Y ( ( ( ( ( ( Y * I ( ( ( ( ( ( R 8 H ( ( ( ( ( ( ( 8 F ! ! ! ! ! ! ! i ",
"F t.t.t.t.t.t.t.L q &.&.&.&.&.&.&.Y q $.&.&.&.&.&.&.` 8 o.&.&.&.&.&.&.o.8 ` &.&.&.&.&.&.$.q Y &.&.&.&.&.&.&.q P t.t.t.t.t.t.t.F ",
"F t.t.t.t.t.t.t.L q $.$.$.$.$.$.&.Y 8 $.$.$.$.$.$.&.( 8  .$.$.$.$.$.$. .8 ( &.$.$.$.$.$.$.8 Y &.$.$.$.*.$.$.q L t.t.t.t.t.t.t.F ",
"F t.t.t.t.t.t.t.L q $.$.$.$.$.$.&.Y 8 $.$.$.$.$.$.&.( 8  .$.$.$.$.$.$. .8 ( &.$.$.$.$.$.$.8 Y &.$.$.$.$.$.$.q L t.t.t.t.t.t.t.F ",
"F t.t.t.t.t.t.t.L q $.$.$.$.$.$.&.Y 8 $.$.$.$.$.$.&.( 8  .$.$.$.$.$.$. .8 ( &.$.$.$.$.$.$.8 Y &.$.$.$.$.$.$.q L t.t.t.t.t.t.t.F ",
"F t.t.t.t.t.t.t.L q $.$.$.$.$.$.&.Y 8 $.$.$.$.$.$.&.( 8  .$.$.$.$.$.$. .8 ( &.$.$.$.$.$.$.8 Y &.$.$.$.$.$.$.q L t.t.t.t.t.t.t.F ",
"F t.t.t.t.t.t.t.L q $.$.*.&.$.*.&.Y 8 $.$.$.$.$.$.&.( 8  .&.$.$.$.$.&. .8 ( &.$.$.$.$.$.$.8 Y &.$.$.$.$.$.$.q L t.t.t.t.t.t.t.F ",
"D #.#.#.#.#.#.t.K q $.$.$.$.$.$.$.Y 8 o.$.$.$.$.$.$.( 8  .$.$.$.$.$.$. .8 ( $.$.$.$.$.$.o.8 Y $.$.$.$.$.$.$.q K t.#.#.#.#.#.#.D ",
"% 0 0 0 0 0 0 0 , $ q q q q q q q 8 o q q q q q q q 8 o 8 q q q q q q 8 o 8 8 8 8 8 8 8 8 o * 8 8 8 8 8 8 8 # * 9 9 9 9 9 9 9 % ",
"t E E E E E E W S 8 I I I I I I Y G * I I I I I I Y H * I I I I I I I I $ 8 8 8 8 8 8 8 8 o * 8 8 8 8 8 8 8 $ , e e e e e e e & ",
"F t.t.t.t.t.t.t.P q &.&.&.&.&.&.&.Y q $.&.&.&.&.&.&.` 8 o.&.&.&.&.&.&.o.* q u u u u u u u $ 8 u u u u u u u $ w A A A A A A A 4 ",
"F t.t.t.t.t.t.t.L q $.$.$.$.$.$.&.Y 8 $.$.$.$.$.$.&.( 8  .$.$.$.$.$.$. .* q u u u u u u u $ 8 u u u u u u u $ w A Z Z Z Z Z Z < ",
"F t.t.t.t.t.t.t.L q $.$.$.$.$.$.&.Y 8 $.$.$.$.$.$.&.( 8  .$.$.$.$.$.$. .* q u u u u u u u $ q u u u u u u u $ w A Z Z Z Z Z Z < ",
"F t.t.t.t.t.t.t.L q $.$.$.$.$.$.&.Y 8 $.$.$.$.$.$.&.( 8  .$.$.$.$.$.$. .* q u u u u u u u $ 8 u u u u u u u $ w A Z Z Z Z Z Z < ",
"F t.t.t.t.t.t.t.L q $.$.$.$.$.$.&.Y 8 $.$.$.$.$.$.&.( 8  .$.$.$.$.$.$. .* q u u u u u u u $ q u u u u u u u $ w A Z Z Z Z Z Z < ",
"F t.t.t.t.t.t.t.L q $.$.$.$.$.$.&.Y 8 $.$.$.$.$.$.&.( 8  .$.$.$.$.$.$. .* q u u u u u u u $ q u u u u u u u $ w A Z Z Z Z Z Z < ",
"F t.t.t.t.t.t.t.L q &.&.&.&.&.&.&.Y 8 $.&.&.&.&.&.&.` 8  .&.&.&.&.&.&.o.* q u u u u u u u $ q u u u u u u u $ w A Z Z Z Z Z A 4 ",
"* t t t t t t t 3 $ u u u u u u u 8 $ q u u u u u u q o q u u u u u u q o $ $ $ $ $ $ $ $ . $ $ $ $ $ $ $ $ o # & & & & & & & + ",
"                                                                                                                                ",
"                                                                                                                                "
};
