/* XPM */
static char *midori_png_ico_2[] = {
/* columns rows colors chars-per-pixel */
"32 32 138 2 ",
"   c None",
".  c #2F2E2F",
"X  c #302F30",
"o  c #353435",
"O  c #3C3B3C",
"+  c #403F40",
"@  c gray26",
"#  c #444E43",
"$  c #4D4C4D",
"%  c #465345",
"&  c #485247",
"*  c #4D554C",
"=  c #4E5A4D",
"-  c #50554F",
";  c #535353",
":  c #545C53",
">  c #5D5D5D",
",  c #596B57",
"<  c #5C645B",
"1  c #5D6B5B",
"2  c #60645F",
"3  c #616C5F",
"4  c #62735F",
"5  c #636363",
"6  c #646C62",
"7  c #6B6B6B",
"8  c #647262",
"9  c #6F746D",
"0  c #6E7E6B",
"q  c #70756F",
"w  c #777A6E",
"e  c #737372",
"r  c #757B74",
"t  c #797C72",
"y  c #787778",
"u  c #7B7D7A",
"i  c #2A8727",
"p  c #278925",
"a  c #2C8929",
"s  c #30B02E",
"d  c #35B334",
"f  c #37B834",
"g  c #4F934B",
"h  c #63835D",
"j  c #648B5E",
"k  c #59AF55",
"l  c #6F806C",
"z  c #71816E",
"x  c #738A6C",
"c  c #6F9868",
"v  c #75926D",
"b  c #769F6F",
"n  c #748372",
"m  c #7A8877",
"M  c #7C837B",
"N  c #7D8A7B",
"B  c #7A9374",
"V  c #7B9C73",
"C  c #73A36C",
"Z  c #70AA69",
"A  c #73BC6D",
"S  c #7EB276",
"D  c #83847B",
"F  c #83AC7B",
"G  c #89A87F",
"H  c #87BD7F",
"J  c #807F80",
"K  c #848583",
"L  c #858A83",
"P  c #898B85",
"I  c #8C8D8A",
"U  c #869480",
"Y  c #8B9E83",
"T  c #8E928B",
"R  c #919287",
"E  c #92948D",
"W  c #96988C",
"Q  c #9A9B8E",
"!  c #949690",
"~  c #969992",
"^  c #9B9D95",
"/  c #8DA983",
"(  c #93AA8D",
")  c #8BB482",
"_  c #92B58B",
"`  c #9DA197",
"'  c #9BBF91",
"]  c #A1A296",
"[  c #A1A59B",
"{  c #A5A99E",
"}  c #A9AB9F",
"|  c #A8B39F",
" . c #ACAFA2",
".. c #B1AEA4",
"X. c #AEB2A5",
"o. c #B0B0A3",
"O. c #B0B1A4",
"+. c #B2B0A5",
"@. c #B0B2A5",
"#. c #B1B4A6",
"$. c #B0B5A7",
"%. c #B2B4A7",
"&. c #B3B4A7",
"*. c #B0B6A7",
"=. c #B1B3A6",
"-. c #B2B4A8",
";. c #B1B6A8",
":. c #B2B6A8",
">. c #B2B6A9",
",. c #B3B6A9",
"<. c #B3B7A9",
"1. c #B4B5A8",
"2. c #B4B7A9",
"3. c #B5B5AB",
"4. c #B4B7AA",
"5. c #B5B7AA",
"6. c #B3B6A9",
"7. c #B2B8A8",
"8. c #B5B8AA",
"9. c #B6B9AB",
"0. c #B7B8AC",
"q. c #B7B9AC",
"w. c #B6B9AB",
"e. c #B8B9AC",
"r. c #B9B9AD",
"t. c #B9B9AE",
"y. c #BABBAE",
"u. c #BCBBAE",
"i. c #BCBBAF",
"p. c #BBBCAE",
"a. c #BABAAE",
"s. c #BDBCB0",
"d. c #BDBDB0",
"f. c #BEBDB1",
"g. c #C0BDB2",
"h. c #C1BEB2",
"j. c #C4C0B5",
"k. c #C4C1B5",
/* pixels */
"                        e K K I I K J e                         ",
"                  e K E T L m n n m L T E K e                   ",
"              7 K T N 8 , 1 6 6 6 3 1 , 8 N T K 7               ",
"            y I N 4 6 r K I I D L I I K r 6 4 N I y             ",
"          u P z 8 u I E ! ~ ~ E P ~ ~ ! E I u 8 z P u           ",
"        u L 0 9 P E ~ ^ [ [ ` ` ` [ [ [ ^ ~ E P 9 0 L u         ",
"      e L 0 r I ! ^ [ {  .X.X.X.X.X.X. .{ [ ^ ! I r 0 L e       ",
"    > L z r I E ` {  .X.$.:.:.:.:.:.:.$.X. .{ ` E I r z L >     ",
"    u n r P ! ` [ { X.:.:.2.2.2.2.2.2.:.:.X.{ [ ` ! P r n u     ",
"  5 K z D T ^ { { W P [ 8.8.q.$.$.q.8.2.X.} W { { ^ T K z K 5   ",
"  e n M I ~ [  .X.} W t ^ y.y.X.{ y.q.@.@.W P X. .[ ~ I M n y   ",
"  7 l K E ^ { X.:.X.@.W w ] d.@.Q p.$.2.W t [ :.X.{ ^ E K 0 e   ",
". < n L ! [  .$.:.2.@.2.W D o.} W  . .W w ^ 8.:.$. .[ ! L n < X ",
"+ : m I ~ { X.:.2.8.q.$. .R  .u.u. .R D ] y.y.7.$.X.[ ~ I m : + ",
"; = M P ! ( _ 2.q.y.u.d.....j.@.@.j...@.h.' H A | X.{ ! P M = ; ",
"5 = M K B d k ) ) ) F b c ) / I u G ) F S f s Z :.X.{ T K M = 5 ",
"7 = M K x p g V V V V V v V B 9 > x V h j a i C :.X.{ T K u = 7 ",
"7 : q I ~ U Y 2.2.y.y.d... .h.Q R u.....u.Y v j | X.{ W P 9 : 7 ",
"5 5 < I ~ [ X.:.2.8.y.] D E  .u.u. .E  .$.y.2.X.X.X.[ ~ I < 5 5 ",
"; r * K ! [  .$.:.8.^ w W  . .W } X.D W 2.@.2.:.$. .[ ! K * r ; ",
"  M & e E ^ { X.:.[ t W 2.$.p.Q @.d.] w W @.X.:.X.{ ^ E e & M   ",
"  e 3 : I ~ [  .X.P W @.@.q.y.{ X.y.y.Q t W } X. .[ ~ I : 3 e   ",
"  $ M % e E ^ { { W } X.2.8.q.$.$.q.8.8.[ P W { { ^ E e % M $   ",
"    e 6 * L ! ` [ { X.:.:.2.2.2.2.2.2.:.:.X.{ [ ` ! L - 6 e     ",
"    @ K = 2 I E ` {  .X.$.:.:.:.:.:.:.$.X. .{ ` E I 2 = K @     ",
"      > M # 6 I ! ^ [ {  .X.X.X.X.X.X. .{ [ ^ ! I 6 # M >       ",
"        5 u # 6 I E ~ ^ [ [ { ` ` { [ [ ^ ~ E I 6 # u 5         ",
"          5 r # : u I E ! ~ ^ T T ^ ~ ! E I u : # r 5           ",
"            ; e : # < r K I T P K T I K r < # : e ;             ",
"              O > < * % = < 6 6 8 6 < = % * < < O               ",
"                  O $ ; * * = = = = * * ; $ O                   ",
"                        o o O O O O o o                         "
};
