/* XPM */
static char *minetest_png_ico_2[] = {
/* columns rows colors chars-per-pixel */
"32 32 89 1 ",
"  c None",
". c #372100",
"X c #3C2401",
"o c #3D2902",
"O c #3D2709",
"+ c #3F2B0A",
"@ c #422600",
"# c #442B01",
"$ c #4B2C01",
"% c #432C0A",
"& c #4B2F09",
"* c #512E00",
"= c #463006",
"- c #4C3102",
"; c #453E02",
": c #4A3801",
"> c #46320D",
", c #4B320C",
"< c #4E390D",
"1 c #543204",
"2 c #583507",
"3 c #54350A",
"4 c #593709",
"5 c #533B0D",
"6 c #5B3A0D",
"7 c #463314",
"8 c #4A3211",
"9 c #563D16",
"0 c #5B3A10",
"q c #5F3D10",
"w c #3F4202",
"e c #3D4402",
"r c #3C4703",
"t c #3D4604",
"y c #334F04",
"u c #364D05",
"i c #394803",
"p c #384B04",
"a c #345408",
"s c #38520A",
"d c #12790E",
"f c #107A0E",
"g c #117C0F",
"h c #197611",
"j c #137B10",
"k c #177A12",
"l c #127D11",
"z c #107E11",
"x c #137E12",
"c c #177C14",
"v c #1B7913",
"b c #197A12",
"n c #1B7B1B",
"m c #1C7B1C",
"M c #1D7C1D",
"N c #1E7D1E",
"B c #1F7C1F",
"V c #1E7E1E",
"C c #1F7F1F",
"Z c #217112",
"A c #2E721A",
"S c #237D1B",
"D c #424102",
"F c #444002",
"G c #4E470E",
"H c #56420F",
"J c #604016",
"K c #118012",
"L c #128113",
"P c #138014",
"I c #148114",
"U c #158115",
"Y c #148214",
"T c #158215",
"R c #168016",
"E c #158316",
"W c #168316",
"Q c #178217",
"! c #178317",
"~ c #178417",
"^ c #178418",
"/ c #188418",
"( c #1E881E",
") c #1F8820",
"_ c #228122",
"` c #238123",
"' c #258425",
"] c #288728",
"[ c #2C8C2C",
/* pixels */
"              ]`MMmnMMMM`'[     ",
"           (~E/ELEELEEEEEE^)    ",
"           SbbkdjdglllPEchZA    ",
"           G;FDwrripuyast;:H    ",
"           5----------13---     ",
"           5------------$$-     ",
"           5$$$$-$--$$==###     ",
"           <##########==###     ",
"           <##########%=###     ",
"           >####o#######oo#     ",
"           >ooooooooooooXXo     ",
"           >XXXXXXXXXXooXXo     ",
"           7XX..XXXXXXoo.o,     ",
"           5,,>%%+oooXo+,32     ",
"        31$$$$$$$&,,,5951*1     ",
"     J411***$$$$$$$13221**1     ",
"    q1122223321111221121$$1     ",
"    6******1111134111121$$&     ",
"    0************2****3&$$&     ",
"     $$$$$$$$$$$*1****1$##$     ",
"     $$$$$$$$$$$$1$$$$3$##$     ",
"     $$$$$$$$$$$$1$$$$3#@@$     ",
"     $$$#$$$$###$&$$$$,#@@#     ",
"     ############&$$$$&@X@,     ",
"     #@@@@@@@@@@#$####&XX8      ",
"     @@@@@@@@@@@@%@@@@%%        ",
"     @XXXXXXXXXX@#@@@@,         ",
"     XXXXXXXXXXXX#XXX%          ",
"     OXXXXXXXXXXX%XX%           ",
"       %+OXXX...X@X%            ",
"            %OXXX%              ",
"                7               "
};
