/* XPM */
static char *minetest_png_ico_5[] = {
/* columns rows colors chars-per-pixel */
"72 72 157 2 ",
"   c None",
".  c #351F00",
"X  c #362200",
"o  c #3C2400",
"O  c #3E2901",
"+  c #3C2708",
"@  c #3E2B0A",
"#  c #422600",
"$  c #442B00",
"%  c #4B2C00",
"&  c #432C0B",
"*  c #4A2E09",
"=  c #512E00",
"-  c #473004",
";  c #4D3100",
":  c #433D00",
">  c #4A3901",
",  c #45310D",
"<  c #4C360C",
"1  c #4F380B",
"2  c #543102",
"3  c #593606",
"4  c #54350C",
"5  c #59370A",
"6  c #533A0B",
"7  c #5B3A0D",
"8  c #442F11",
"9  c #453212",
"0  c #4B3313",
"q  c #4C3816",
"w  c #4B3618",
"e  c #4E3A1C",
"r  c #523611",
"t  c #553A14",
"y  c #5C3D12",
"u  c #543C1A",
"i  c #5B3F19",
"p  c #523E21",
"a  c #1D5D01",
"s  c #2E4E00",
"d  c #3C4401",
"f  c #354C02",
"g  c #3B4803",
"h  c #255501",
"j  c #2C5404",
"k  c #225B03",
"l  c #33570A",
"z  c #106F07",
"x  c #1D6C0C",
"c  c #0D7207",
"v  c #0A7608",
"b  c #077808",
"n  c #0D7D0D",
"m  c #15750E",
"M  c #1B720F",
"N  c #0F7D10",
"B  c #137E13",
"V  c #197619",
"C  c #1B791A",
"Z  c #216207",
"A  c #25620A",
"S  c #28660F",
"D  c #246D11",
"F  c #286B12",
"G  c #247315",
"H  c #237D23",
"J  c #3D7D2C",
"K  c #404201",
"L  c #474F10",
"P  c #574215",
"I  c #5C4115",
"U  c #55461B",
"Y  c #5D421C",
"T  c #614116",
"R  c #62441C",
"E  c #5C4322",
"W  c #554A22",
"Q  c #635323",
"!  c #6C522C",
"~  c #0E800E",
"^  c #128112",
"/  c #138013",
"(  c #138113",
")  c #128012",
"_  c #138213",
"`  c #138313",
"'  c #118111",
"]  c #138014",
"[  c #138114",
"{  c #148014",
"}  c #148114",
"|  c #148015",
" . c #158015",
".. c #158115",
"X. c #148214",
"o. c #148314",
"O. c #158215",
"+. c #158315",
"@. c #148016",
"#. c #168016",
"$. c #168116",
"%. c #168017",
"&. c #178017",
"*. c #178117",
"=. c #168216",
"-. c #168316",
";. c #168217",
":. c #178217",
">. c #158415",
",. c #168416",
"<. c #178417",
"1. c #178118",
"2. c #178318",
"3. c #188118",
"4. c #198019",
"5. c #188218",
"6. c #188318",
"7. c #198219",
"8. c #1A811A",
"9. c #18821A",
"0. c #19821A",
"q. c #1A821A",
"w. c #1A831A",
"e. c #1A831B",
"r. c #1B831B",
"t. c #188418",
"y. c #188518",
"u. c #198519",
"i. c #19841A",
"p. c #1A851A",
"a. c #1A861A",
"s. c #1B861B",
"d. c #1B871B",
"f. c #1F801C",
"g. c #1D841D",
"h. c #1D871D",
"j. c #1D851E",
"k. c #1D881D",
"l. c #1F891F",
"z. c #1E881E",
"x. c #268026",
"c. c #208820",
"v. c #218A21",
"b. c #268A26",
"n. c #298229",
"m. c #2B852B",
"M. c #2F872F",
"N. c #298D29",
"B. c #2E882E",
"V. c #2D8E2E",
"C. c #2E902E",
"Z. c #308930",
"A. c #358D35",
"S. c #358F35",
"D. c #339033",
"F. c #339433",
"G. c #3B923B",
/* pixels */
"                                                                                                                                                ",
"                                                          G.A.Z.M.n.H H C V V V V V V V V V C C C C C C C C H x.n.m.B.A.D.C.                    ",
"                                                  F.l.d.d.^ ~ ^ c.l.d.d.} ^ l.l.c.^ n n } d.l.,.c.d.,.h.d.} 6.} } N } d.d.d.                    ",
"                                                  N.^ n ^ d.} d.} } n ^ ^ n ^ ^ t.d.^ } } ,.} ~ ,.} d.} ^ ] } B 6.^ } } ^ c.                    ",
"                                                  b.} } } } ^ B d.6.6.^ } B } } } n n n b n n n n } } } h.6.6.} n 6.n 6.} h.                    ",
"                                                  V.d.] 2.] } } B } n b } } B b b B } B r.B 6.n n B B 6.B B } B 6.} B 6.6.f.                    ",
"                                                  J D x G M M m m m c m v b C b b B n b 6.B B 6.2.n N } B B 6.B z x A j f L                     ",
"                                                  Q ; > > > > : : : : K d d g f f f s j l j h k k a Z F S h f d : > ; ; 2 y                     ",
"                                                    2 ; 2 2 ; ; ; 2 2 2 2 2 2 2 2 2 2 2 ; ; ; ; 2 ; ; 6 6 ; ; ; 2 ; ; ; ; P                     ",
"                                                    ; ; ; ; ; ; ; ; ; ; ; ; ; ; ; ; ; ; ; ; ; ; ; ; ; 6 6 ; ; ; ; ; ; ; ; P                     ",
"                                                    ; ; ; ; ; ; ; ; ; ; ; ; ; ; ; ; ; ; ; ; ; ; ; ; ; 6 6 ; ; ; ; ; ; ; ; P                     ",
"                                                    ; ; ; ; ; ; ; ; ; ; ; ; ; ; - ; - - ; ; ; ; ; ; ; 6 6 - - - - - - - % P                     ",
"                                                    ; - - - - - - - - - - - ; ; - % - - - - ; ; - - % 6 6 - - - % % % - % P                     ",
"                                                    - - - - - - % % - % - - % % % % - - - - - % % % % 6 6 % - % % % % % % P                     ",
"                                                    - % % % % - % % % % - - % % % % % % % % % % % % % 1 1 $ $ $ $ $ $ $ $ U                     ",
"                                                    - $ $ $ $ - $ $ $ $ - $ % $ $ $ $ % $ $ $ $ $ $ $ 1 1 $ $ $ $ $ $ $ $ U                     ",
"                                                    - $ $ $ $ $ $ $ $ $ $ $ $ $ $ $ $ $ $ $ $ $ $ $ $ < 1 $ $ $ $ $ $ $ $ U                     ",
"                                                    - $ $ $ $ $ $ $ $ $ $ $ $ $ $ $ $ $ $ $ $ $ $ $ $ < < $ $ $ $ $ $ $ $ U                     ",
"                                                    - $ $ $ $ $ $ $ $ $ $ $ $ $ $ $ $ $ $ $ $ $ $ $ $ < - $ $ $ $ $ $ $ $ U                     ",
"                                                    $ $ $ $ $ $ $ $ $ $ $ $ $ $ $ $ $ $ $ $ $ $ $ $ $ < - $ $ $ $ $ $ $ $ W                     ",
"                                                    $ $ $ $ $ $ $ $ $ $ $ $ $ $ $ $ $ $ $ $ $ $ $ $ $ < - O $ $ $ $ $ $ $ W                     ",
"                                                    $ $ $ $ $ O $ $ $ $ $ $ $ $ $ $ $ $ O O $ $ $ $ O < - O O O O O O O $ W                     ",
"                                                    & O O O O O O O O O O O O O O O O O O O O O O O O , & O O O O O O O O                       ",
"                                                    & O O O O O O O O O O O O O O O O O O O O O O O O , & O O O O O O O O                       ",
"                                                    & O o o O o o o O O O O O o o O O O O O o o O o o , & O O O O O o o O                       ",
"                                                    & o O O o o o o O O O O o o O O o o o o O o O O o , @ o o o o o o o @                       ",
"                                                    @ o o o o o o o o o o o o o o o o o o o o o o o o 9 @ o o o o o o o +                       ",
"                                                    @ o o o o o o o o o o o o o o o o o o o o o o o o 9 + o o o X X X o 9                       ",
"                                                    @ X X o o o o o o o X X X o o o X o X X X X o o o 9 + X X X X o , u I                       ",
"                                                    q , @ @ + o X X X X X X X X X X X X X X X X X X X 9 + X X X , u y 2 3                       ",
"                                                Y 4 4 r t t u u u q q 0 9 , @ @ + + X X X X X X X X X 9 X X , u 7 2 2 2 3                       ",
"                                          Y 4 * % % % % % % % % % * ; 4 4 6 r u u u u u q q 9 , @ @ + 9 9 u 7 2 = = 2 = 3                       ",
"                                    R 7 2 % % % % % % % % % % % % % % % % % % % % % % % 2 4 4 4 t u E ! y 2 = = = = = = 3                       ",
"                              R 7 2 % % % % % % % % % % % % % % % % % % % % % % % % % % % % % = 5 y 5 T 2 = = = = = = = 3                       ",
"                        R 7 2 = % % % % % % % % % % = = % % = % % % % % = = = % = = % % % 2 7 y 5 2 2 T 2 = = = = = = = 3                       ",
"                    ! R y y 7 5 5 2 2 = = = = % = = = = = = = = % = = = = = = = = = = 2 7 y 7 2 2 2 2 T 2 = = = = = = % 3                       ",
"                    7 2 2 3 3 7 7 7 y y y y y 7 3 3 2 2 = = = = = = = = = = = = = 2 7 y 5 2 2 2 2 2 2 T = % = % % % % % 4                       ",
"                    7 2 2 2 2 2 2 2 2 2 2 2 3 3 5 7 y y y y y 7 7 3 3 2 2 = = 2 y y 3 2 2 2 2 2 2 2 2 T = % % % % % % % 4                       ",
"                    7 = = = = = = 2 2 2 2 = = = = = = 2 2 2 2 3 3 7 7 y y y T T 3 2 2 2 2 2 2 2 2 2 2 T % % % % % % % % t                       ",
"                    7 = = = = = = = = = = = = = = = = = = = = = = = = = 2 2 y 3 2 2 2 2 2 2 2 2 2 2 2 T % % % % % % % % t                       ",
"                    7 = = = = = = = = = = = = = = = = = = = = = = = = = = = 7 3 2 2 2 2 2 2 2 2 2 2 2 i % % % % % % % % t                       ",
"                    y = = = = = = = = = = = = = = = = = = = = = = = = = = = 7 3 = 2 2 2 = = = 2 = = 2 I % % % % % % % % t                       ",
"                    y % % = % % = % % % = % = = = = % = % % % = % = % % % % y 2 = = = = = = = = = = 2 I % % % % % % % % t                       ",
"                    y % % % % % % % % % % % % % % % % % % % % % % % % % % % y 2 = = = = = = = = = = = i $ % % % % % % % t                       ",
"                    i % % % % % % % % % % % % % % % % % % % % % % % % % % % y 2 = = = = = = = = = = = i % % % % $ $ $ $ t                       ",
"                    i % % % % % % % % % % % % % % % % % % % % % % % % % % % y 2 % % % % = = % = % % = i % # $ $ $ $ $ $ t                       ",
"                    i % % % % % % % % % % % % % % % % % % % % % % % % % % % t 2 % % % % % % % % % % = i # # # # $ $ $ $ u                       ",
"                    i % % % % % % % % % % % % % % % % % % % % % % % % % % % t 2 % % % % % % % % % % = t # # # # # # # # u                       ",
"                    Y % % % % % % % % % % % % % % % % % % % % % % % % % % % t 2 % % % % % % % % % % * t # # # # # # # # u                       ",
"                    Y % % % % % % % % % % $ % % % % % % % % % % % % % % % % r 2 % % % % % % % % % % * t # # # # # # # # u                       ",
"                    Y % $ $ % % % % % % $ $ $ $ $ $ % % % % % % % % $ % % $ r * % % % % % % % % % % * t # # # # # # # # u                       ",
"                    Y $ $ $ $ # $ % % % $ $ $ $ $ $ $ $ $ % % % # $ $ $ $ $ 4 * % % % % % % % % % % * t o # # # # # # # E                       ",
"                    E % # # # # $ $ $ $ # # # # # # $ $ $ $ # # # # # # $ $ r * $ % % % % % % % % % * r o o # # O O o &                         ",
"                    E $ # # # # $ # # # # # # # # # # # # $ # # # # # # # # r * $ $ $ $ % $ % $ % $ * r o o # O o o *                           ",
"                      $ # # # # # # # # # # # # # # # # # # # # # # # # # # r * # # # # $ $ $ $ $ $ * 0 o o o o o 0                             ",
"                      $ # # # # # # # # # # # # # # # # # # # # # # # # # # 0 * # # # # $ $ $ $ $ $ * 0 o o o O w                               ",
"                      $ # # # # # # # # # # # # # # # # # # # # # # # # # # 0 * # # # # # # # # # # * 0 o o O u                                 ",
"                      & # # # # # # # # # # # # O # # # # # # # # # # # # o 0 $ # # # # # # # # # # * 0 o + p                                   ",
"                      & O O # # # # o # # o # O o o O # # # o o # O O # O O 0 $ # # # # # # # # # # * 0 +                                       ",
"                      & O O o o o o o o O o O O o o O # # # o o # O O O O O 0 $ # # # # # # # # # # & p                                         ",
"                      # o o o o o o o o o o o o o o o o o o o o o o o o o o 0 $ # # # # # # # # # # r                                           ",
"                      # o o o o o o o o o o o o o o o o o o o o o o o o o o 0 # o o # # O O O O # t                                             ",
"                      # o o o o o o o o o o o o o o o o o o o o o o o o o o 0 # o o o o O O o # u                                               ",
"                      & o o o o o o o o o o o o o o o o o o o o o o o o o o 0 # o o o o o o & E                                                 ",
"                      & o o o o o o o o o o o o o o o o o o o o o o o o o o 8 # o o o o o &                                                     ",
"                        w 8 & + o o o o o o o o o o o o X o o o o o o o o X 8 + o o o o *                                                       ",
"                                p 0 * + + o X X . X X . X X X X o X o o . . 8 + o o o 0                                                         ",
"                                          p 0 & + o . . . . . . X X X X . . 8 + o o 0                                                           ",
"                                                    e 9 & + o . . . . . X X 8 + o e                                                             ",
"                                                              e 9 & + o X . 8 & p                                                               ",
"                                                                        e 9 p                                                                   ",
"                                                                                                                                                "
};
