/* XPM */
static char *mintdrivers_png_ico_2[] = {
/* columns rows colors chars-per-pixel */
"32 32 227 2 ",
"   c None",
".  c #040404",
"X  c gray2",
"o  c #060606",
"O  c gray3",
"+  c #090909",
"@  c gray4",
"#  c #0B0B0B",
"$  c #0C0C0C",
"%  c #0E0E0E",
"&  c #101010",
"*  c #131313",
"=  c gray8",
"-  c #151515",
";  c #171514",
":  c #161616",
">  c gray9",
",  c #151A1F",
"<  c #181818",
"1  c #191919",
"2  c #1A1919",
"3  c gray10",
"4  c #1B1B1B",
"5  c #1E1B1B",
"6  c #1B1B1C",
"7  c gray11",
"8  c #1D1D1C",
"9  c #1D1D1D",
"0  c #1D1D1E",
"q  c #1E1E1E",
"w  c #201F1F",
"e  c #21221F",
"r  c #24231D",
"t  c #23251E",
"y  c #151A20",
"u  c #181E22",
"i  c #181E23",
"p  c #1C1E20",
"a  c #1F2127",
"s  c #1F2227",
"d  c #152029",
"f  c #192229",
"g  c #19222A",
"h  c #112638",
"j  c #202020",
"k  c gray13",
"l  c #252523",
"z  c #242325",
"x  c #252325",
"c  c #252424",
"v  c #242525",
"b  c #262526",
"n  c #252626",
"m  c gray15",
"M  c #272727",
"N  c #282827",
"B  c #22272B",
"V  c #26222C",
"C  c #22272C",
"Z  c #272828",
"A  c #282828",
"S  c #292828",
"D  c #282929",
"F  c gray16",
"G  c #28292A",
"H  c #2A2A2A",
"J  c #2B2A2A",
"K  c #2B2B2A",
"L  c #2D2828",
"P  c #2E2D28",
"I  c #292B2D",
"U  c #2A2C2F",
"Y  c #2D2C2C",
"T  c gray18",
"R  c #362120",
"E  c #3F2323",
"W  c #392425",
"Q  c #38242C",
"!  c #38272F",
"~  c #302F2F",
"^  c #392A2E",
"/  c #382C2C",
"(  c #2E3724",
")  c #3B382C",
"_  c #202630",
"`  c #212630",
"'  c #202730",
"]  c #202731",
"[  c #222630",
"{  c #222731",
"}  c #232933",
"|  c #242934",
" . c #252B36",
".. c #222C34",
"X. c #232E36",
"o. c #252C36",
"O. c #292D31",
"+. c #272E39",
"@. c #282E3A",
"#. c #32263C",
"$. c #2D3035",
"%. c #2D3036",
"&. c #2B3830",
"*. c #29313D",
"=. c #2A313D",
"-. c #2A313E",
";. c #2A323E",
":. c #28343F",
">. c #323232",
",. c #353231",
"<. c #353531",
"1. c #343434",
"2. c #353434",
"3. c #353534",
"4. c gray21",
"5. c #373737",
"6. c #343738",
"7. c gray22",
"8. c #383839",
"9. c #3A3A3A",
"0. c #3B3A3A",
"q. c gray23",
"w. c #3C3A3B",
"e. c #393C3D",
"r. c gray24",
"t. c #3C3E3C",
"y. c #3F3F3F",
"u. c #611817",
"i. c #442B1F",
"p. c #402D21",
"a. c #482929",
"s. c #4F2A2A",
"d. c #4B2E3C",
"f. c #453031",
"g. c #4A3636",
"h. c #473F3D",
"j. c #583734",
"k. c #593934",
"l. c #6C3535",
"z. c #7A3131",
"x. c #2E4320",
"c. c #334037",
"v. c #34463C",
"b. c #735F18",
"n. c #48473D",
"m. c #4B443F",
"M. c #53423C",
"N. c #133048",
"B. c #143048",
"V. c #293540",
"C. c #293345",
"Z. c #293346",
"A. c #2A3446",
"S. c #2A3447",
"D. c #2D384B",
"F. c #2D384C",
"G. c #2F3A4C",
"H. c #2F3B4D",
"J. c #313C51",
"K. c #313D51",
"L. c #333F52",
"P. c #403F40",
"I. c #4D3A57",
"U. c #4D3A5E",
"Y. c #563D58",
"T. c #55385E",
"R. c #512572",
"E. c #642572",
"W. c #274348",
"Q. c #354254",
"!. c #344156",
"~. c #344157",
"^. c #354157",
"/. c #354257",
"(. c #364357",
"). c #3A4956",
"_. c #364258",
"`. c #364358",
"'. c #364359",
"]. c #374558",
"[. c #3C4B58",
"{. c #3D4D59",
"}. c #3F4F5A",
"|. c #084474",
" X c #0E4775",
".X c #414141",
"XX c #424241",
"oX c gray26",
"OX c #464645",
"+X c #424842",
"@X c gray29",
"#X c #4F4E4A",
"$X c #4B4B4C",
"%X c #4E4E4E",
"&X c #574646",
"*X c #594242",
"=X c #405246",
"-X c #51514E",
";X c #40505B",
":X c #5B5B5A",
">X c #5B5B5B",
",X c #624242",
"<X c #6B5050",
"1X c #48614B",
"2X c #446450",
"3X c #495D65",
"4X c #4A5E65",
"5X c #4B5F66",
"6X c #4D6268",
"7X c #50666A",
"8X c #606161",
"9X c gray38",
"0X c #656565",
"qX c gray40",
"wX c #676767",
"eX c DimGray",
"rX c gray44",
"tX c #707071",
"yX c #717171",
"uX c gray45",
"iX c #747475",
"pX c #747575",
"aX c gray49",
"sX c #818181",
"dX c gray51",
"fX c #848484",
"gX c #8D8D8D",
/* pixels */
"                                                                ",
"                                                                ",
"                                                                ",
"                                                                ",
"                                                                ",
"                                                                ",
"                                                                ",
"      - - -                                         - - -       ",
"      3 9 3 r.rXpX8X>X>X>X>X>X>X>X>X>X>X>X>X8XpXrXP.3 9 3       ",
"    y g 6 z R.I.h.2.U %.%.%.%.%.%.%.%.%.%.U 2.m.Y.E.z 6 g ,     ",
"  - h |.d q.U.d.u.L ;.'.'.'.'.'.'.'.'.'.'.;.P b.M.T.w.d |.h -   ",
"  3 9 u p r.r.,./ J ;././.]./././././././.;.J ) <.r.r.p u 9 3   ",
"- 3 9 3     >.r.%XJ @.K./.7X5X5X6X5X5XK.K.+.J $XXX>.    3 9 3 - ",
"- 9 9 3     Y >XgXY o.H.H.}.).[.;X[.}.H.D.| J fX0XY     3 9 9 - ",
"- 9 9 -     ~ 2.q.J | A.A.Z.Z.Z.Z.Z.Z.Z.A.} N q.2.~     - 9 9 - ",
"3 9 3 k q.:.I 0XaXM s ` ` ` ` ` ` ` ` ` ` s M rXrXI V.q.k 3 9 3 ",
"3 9 3 k O. X..XX%XJ J f.p.l M c.&.M M E g.J J @XOX.. XO.k 3 9 3 ",
"3 9 3 9 B B.6.eX>.J v.m.j.V Q -X+X^ R z.<X&XZ Y 0Xe.N.C 9 3 9 3 ",
"- 9 9 -     q.dX2.M =X#X2X..( 1Xk.i.W l.,X*XM >.dXXX    - 9 9 - ",
"- 9 9 -     - 3 - - 9 Q x.e t W.#.r w s.a.5 - - 3 -     - 9 9 - ",
"- 3 9 3   X O $ O X X                     X X O $ O X   3 9 3 - ",
"  3 9 3 - O & 3 & O                         O & 3 & O - 3 9 3   ",
"  - 9 9 3 $ & 3 & O                         O & 3 & $ 3 9 9 -   ",
"  - 9 9 9 -                                         - 9 9 9 -   ",
"    3 3 3 -                                         - 3 3 3     ",
"                                                                ",
"                                                                ",
"                                                                ",
"                                                                ",
"                                                                ",
"                                                                ",
"                                                                "
};
