/* XPM */
static char *multimedia_volume_control_png_ico_2[] = {
/* columns rows colors chars-per-pixel */
"32 32 180 2 ",
"   c #1C1C1C",
".  c #202020",
"X  c #2E2E2E",
"o  c #2F302E",
"O  c #31312E",
"+  c #363F2F",
"@  c #272D35",
"#  c #2F2D31",
"$  c #302F31",
"%  c #2B3037",
"&  c #343334",
"*  c #3A3333",
"=  c #373A37",
"-  c #34373C",
";  c #3D3C3C",
":  c #5B0505",
">  c #590709",
",  c #5A0709",
"<  c #4D1D1E",
"1  c #551A1A",
"2  c #6C1C1C",
"3  c #492A2A",
"4  c #5D2E2E",
"5  c #443A36",
"6  c #523333",
"7  c #6D2222",
"8  c #612D2D",
"9  c #612F30",
"0  c #6B3636",
"q  c #007F00",
"w  c #38452D",
"e  c #3E532D",
"r  c #364135",
"t  c #3D4737",
"y  c #374E37",
"u  c #3C4935",
"i  c #3E413C",
"p  c #395339",
"a  c #337C33",
"s  c #4C422D",
"d  c #574B2C",
"f  c #425C2B",
"g  c #4A4432",
"h  c #43423E",
"j  c #554933",
"k  c #405132",
"l  c #465C31",
"z  c #67552B",
"x  c #78572D",
"c  c #624930",
"v  c #615332",
"b  c #6F5631",
"n  c #6D5C32",
"m  c #735A31",
"M  c #476627",
"N  c #4D6B2C",
"B  c #4E7825",
"V  c #4D762A",
"C  c #537E24",
"Z  c #53742E",
"A  c #4B6431",
"S  c #7E6529",
"D  c #766837",
"F  c #7E703A",
"G  c #32007F",
"H  c #4C3A67",
"J  c #4D396B",
"K  c #4D2D7E",
"L  c #4E3870",
"P  c #52347E",
"I  c #3E4144",
"U  c #444444",
"Y  c #4A4343",
"T  c #444842",
"R  c #44464A",
"E  c #46484B",
"W  c #4B4B4B",
"Q  c #424952",
"!  c #4C4D51",
"~  c #504F50",
"^  c #4F5051",
"/  c #4E535A",
"(  c #555555",
")  c #56595C",
"_  c #5B5B5B",
"`  c #546054",
"'  c #7E775B",
"]  c #595F67",
"[  c #605176",
"{  c #5D636D",
"}  c #636363",
"|  c #60666F",
" . c #6B6B6B",
".. c #666D78",
"X. c #737373",
"o. c #7C7C7C",
"O. c #AB2D2F",
"+. c #BC3838",
"@. c #D73133",
"#. c #DE3638",
"$. c #E93E3E",
"%. c #8B6F29",
"&. c #8E7027",
"*. c #9A7C29",
"=. c #856D31",
"-. c #886F30",
";. c #837439",
":. c #887839",
">. c #957832",
",. c #997B31",
"<. c #A07D27",
"1. c #A27F28",
"2. c #EE4242",
"3. c #F14141",
"4. c #018301",
"5. c #118C11",
"6. c #288B28",
"7. c #578A1F",
"8. c #598C1F",
"9. c #5F921C",
"0. c #63961C",
"q. c #6DA817",
"w. c #72AD19",
"e. c #78B716",
"r. c #7DBD1C",
"t. c #598523",
"y. c #5A832B",
"u. c #659527",
"i. c #6DA623",
"p. c #70A721",
"a. c #71AA21",
"s. c #48A348",
"d. c #AA8700",
"f. c #AC8900",
"g. c #B18F08",
"h. c #B2910C",
"j. c #B29318",
"k. c #978332",
"l. c #A18A2D",
"z. c #B58C27",
"x. c #B88E27",
"c. c #B48E2F",
"v. c #AE8B30",
"b. c #C99B29",
"n. c #CB9D2A",
"m. c #CEA02D",
"M. c #F5BE2F",
"N. c #8BD509",
"B. c #8DD608",
"V. c #90D807",
"C. c #84C914",
"Z. c #8ED216",
"A. c #9CE605",
"S. c #9CE907",
"D. c #9DE50F",
"F. c #98E211",
"G. c #AAF501",
"H. c #A8F703",
"J. c #A9F309",
"K. c #B4FE00",
"L. c #B9FF00",
"P. c #FEC42F",
"I. c #FFC82F",
"U. c #FCC431",
"Y. c #FFCA31",
"T. c #9C8E55",
"R. c #330081",
"E. c #3A0887",
"W. c #400E8A",
"Q. c #46168F",
"!. c #4D2A81",
"~. c #7A6599",
"^. c #848484",
"/. c #8C8C8C",
"(. c #939393",
"). c #9C9D9D",
"_. c #9F9F9F",
"`. c #A1A1A1",
"'. c #A4A4A4",
"]. c #B8B8B8",
/* pixels */
"].'.`.`.).).).).).).).).).).`.`.`.).`.).).).).).).).).).).).`.].",
"`. .} W Y Y Y Y ; U Y Y Y U W ( ( W U W ( ( ( W W W W W W } ( ).",
").} W ; 8 7 7 7 5 4 7 7 7 6 U W W h   W ( _ W W W ( W W W ( W ).",
").) ( ; 1 : : , 3 1 : : : 3 U W W U   W ( _ ( ( W ; & & U U W (.",
").) ( ; 6 8 8 4 * 5 6 6 6 * U W W U   W ( ) ) W * ' T.D O ; W (.",
"(.) ( 5 +.3.2.$.0 4 2 2 2 6 U W W I   W ( } ) & D j.j.h.D X W (.",
"(.) ( 5 O.#.#.@.9 < , , , 3 U W / / R / ) } ( & ,.f.d.f.k.X W (.",
"(.) ( ; c x x x 5 j b b b 5 U ! | ......| } ) & ;.g.f.h.F X W /.",
"/.) ( h b.Y.U.M.n v.Y.U.U.-.U W Q Q Q Q ! } _ R * :.l.;.* ; W /.",
"/.) ( h *.n.b.b.d %.n.b.b.z U W % @ @ @ - } ) ( U & = & ; U W /.",
"/.) ( ; n -.-.=.g v -.-.-.g E ^ % @ @ @ - _ ( ( ) ) ( W W U W ^.",
"^.) ( h n.Y.Y.P.m c.Y.Y.P.-.E ( Q Q Q Q Q } ) ) ) ) ( W U U W ^.",
"^.) ( h &.x.z.z.d S x.z.z.z W ) ] { { { ] } _ ) ) W ; ; U U W ^.",
"^.) ( h D ,.,.>.g n ,.,.>.j W ) E I - R ! } _ ) ; r ` r X U W o.",
"^.) ( h m.Y.Y.P.m c.Y.Y.I.-.! _ ( W . ( _ } _ ; y 6.s.6.p & W o.",
"o.) ( h S 1.1.*.s m 1.1.<.d W ) _ W . ) _ } ( & a 4.q 4.a X U o.",
"o.( ( U y.a.a.i.k Z a.a.i.l W _ _ W . ( ) } ) & a 4.q 4.a X U o.",
"o.( ( U C.L.L.H.N w.L.L.K.t.! _ _ W   ( _  .) ; p 6.5.6.y & W X.",
"X.( ( h M 8.8.t.w M 8.8.7.e ( _ ) W . ) } } ( W $ r p + $ U W X.",
"X.) ( U u.r.r.r.l y.r.r.r.A W ) ) W . ) _ } ( W W ; & ; U U U X.",
"X.( ( U C.K.K.H.N w.K.K.H.t.W _ _ W   ( ) _ ~ W W W W W E U U  .",
"X.( ( i M C C B w f C C C w ~ _ _ W   ( ( _ W W W W U W W U U  .",
" .( ( U i.Z.Z.C.A u.Z.Z.Z.Z W ) ) W   ( ( _ W U = X & X ; W U  .",
" .( ( U e.H.H.S.N q.H.H.H.C W _ _ W   ~ ( ) W ; & L !.L $ ; U } ",
" .( ( U f V V V + e V V V u ( _ ) U   W W ) W X L E.R.E.J X U } ",
"} ( ( U a.D.D.F.N u.D.D.F.y.! ) ( U   U ( ) W & K R.G Q.~.o U } ",
"} ( ( U w.A.A.A.M 0.A.A.A.C W ( W ;   W ~ ( W O J W.R.Q.[ X U } ",
"} ( ( U f V V V r e V V V u U W W ;   W ( _ W U # H P J # ; U _ ",
"_ ( ) T r.J.J.S.N p.J.J.J.y.U W W U   W ( _ W W U O X o ; W U ) ",
"_ } ) i q.V.V.N.f 9.V.B.N.V R W W U   W ( _ W W W W U U W } U ) ",
") ( W W t t t t ; i t t t i W W W W ; W W ( W W W W U U W W U ( ",
") ( ( ) ( ( ( ( ( ( ( ( ( ( ( ( ( ( ( ( ( ( ( ( ( ( ( ( ( ( ( ) "
};
