/* XPM */
static char *net_nokyan_Resources_png_ico_2[] = {
/* columns rows colors chars-per-pixel */
"32 32 170 2 ",
"   c None",
".  c #1A0707",
"X  c #150C0C",
"o  c #151515",
"O  c #1F1515",
"+  c #1B1B1B",
"@  c #240F0F",
"#  c #340101",
"$  c #3B0202",
"%  c #3A0C0C",
"&  c #2E1616",
"*  c #2A1F1F",
"=  c #391717",
"-  c #002D00",
";  c #0F290F",
":  c #013201",
">  c #003C00",
",  c #0C340C",
"<  c #162F16",
"1  c #173217",
"2  c #1A361A",
"3  c #1D3B1D",
"4  c #143F14",
"5  c #06062E",
"6  c #19192C",
"7  c #030334",
"8  c #090934",
"9  c #00003C",
"0  c #0A0A3E",
"q  c #141433",
"w  c #1D1D3F",
"e  c #1F2020",
"r  c #242424",
"t  c #22222C",
"y  c #2B2B2B",
"u  c #3B2020",
"i  c #382C2C",
"p  c #342424",
"a  c #2F3C2F",
"s  c #212132",
"d  c #302F30",
"f  c #343434",
"g  c #3C3030",
"h  c #383837",
"j  c #3C3C3C",
"k  c #430101",
"l  c #4B0101",
"z  c #4E0B0B",
"x  c #530000",
"c  c #5C0000",
"v  c #530B0B",
"b  c #5E0B0B",
"n  c #5D1111",
"m  c #501D1D",
"M  c #630000",
"N  c #6B0101",
"B  c #650D0D",
"V  c #690A0A",
"C  c #730F0F",
"Z  c #432828",
"A  c #4A2D2D",
"S  c #552727",
"D  c #502A2A",
"F  c #5D2D2D",
"G  c #4A3636",
"H  c #493D3D",
"J  c #553232",
"K  c #5D3D3D",
"L  c #642C2C",
"P  c #603737",
"I  c #633D3D",
"U  c #6F3838",
"Y  c #743F3F",
"T  c #004400",
"R  c #024F02",
"E  c #0F440F",
"W  c #0A500A",
"Q  c #144314",
"!  c #154F15",
"~  c #1F4B1F",
"^  c #254425",
"/  c #2B4A2B",
"(  c #224B22",
")  c #215121",
"_  c #2D552D",
"`  c #2A5A2A",
"'  c #364E36",
"]  c #3E4A3E",
"[  c #375537",
"{  c #2C6B2C",
"}  c #326632",
"|  c #000046",
" . c #090946",
".. c #03034D",
"X. c #0F0F4D",
"o. c #111146",
"O. c #1F1F46",
"+. c #1A1A4D",
"@. c #010151",
"#. c #00005B",
"$. c #171751",
"%. c #1D1D5E",
"&. c #20204D",
"*. c #333345",
"=. c #393946",
"-. c #3D3D4B",
";. c #242455",
":. c #2E2E56",
">. c #24245F",
",. c #373754",
"<. c #3F3F5D",
"1. c #000065",
"2. c #000069",
"3. c #111167",
"4. c #1A1A65",
"5. c #000073",
"6. c #2F2F62",
"7. c #34346C",
"8. c #2F2F70",
"9. c #434343",
"0. c #4B4545",
"q. c #484847",
"w. c #484648",
"e. c #4C4C4C",
"r. c #5A4848",
"t. c #495749",
"y. c #51514F",
"u. c #424251",
"i. c #545454",
"p. c #5B5454",
"a. c #56565A",
"s. c #575959",
"d. c #5B5C5C",
"f. c #604040",
"g. c #6E4646",
"h. c #784242",
"j. c #6B5D5D",
"k. c #685858",
"l. c #735C5C",
"z. c #416641",
"x. c #496049",
"c. c #486B48",
"v. c #556355",
"b. c #5D6A5D",
"n. c #577057",
"m. c #494966",
"M. c #605F60",
"N. c #5E6161",
"B. c #636363",
"V. c #606C60",
"C. c #6B6A6B",
"Z. c #7D6060",
"A. c #746565",
"S. c #6A7B6A",
"D. c #627262",
"F. c #767676",
"G. c #727272",
"H. c #7E7676",
"J. c #7E7E7E",
"K. c #7D7D7D",
"L. c #7C7C7C",
"P. c #802525",
"I. c #883838",
"U. c #864E4E",
"Y. c #8E7474",
"T. c #718171",
"R. c #958686",
"E. c #959595",
"W. c #A59797",
"Q. c #A0A0A0",
/* pixels */
"          j e.d.G.E.                                            ",
"      y y f h 9.9.i.B.J.                                        ",
"    f + y y y f h j 9.e.B.                                      ",
"  j + y r y f f h f f j 9.i.                                    ",
"  y t t y h j 9.j h f y h h                                     ",
"9.y y &.;.-.e.i.e.9.h y r y h                                   ",
"j h h j ,.8.7.=.y.e.h y r r y                                   ",
"9.e.9.q.e.a.:.@.4.%.$.o.0 8 6         G.B.d.B.C.G.F.            ",
"j i.i.i.i.s.i.+.5.2.3.7.6.X.q     d.9.r f h 9.i.B.C.i.9.        ",
"h j e.i.d.d.s.>.1.#.%.m.<.O.s   e.r r y y h 9.i.B.C.s.h y       ",
"  y h j i.s.i.;.#.@... .0 q   9.r r r y h 9.e.s.C.C.i.h y e.    ",
"  e.r y h e.i.&...| 9 9 7 s   y + r y h 9.e.s.B.G.C.i.h r r C.  ",
"    d.r y h e.O.| 9 9 5 6   j r y y h 9.e.s.B.G.L.C.i.h r r r   ",
"      J.9.h 9.w 9 8 q t     h r y f j e.s.C.F.J.J.C.e.h r + + h ",
"          G.d.u.*.*.        h h f j e.i.B.C.d.G.H.B.e.h r + + e.",
"                          d.h h h 9.i.N.G.0.$ C h.p.H i * O X p.",
"                          C.9.9.9.e.s.j.U.P.l # V V B n v z k Z.",
"          s.j h h h         e.e.e.r.Y I.U.A.G c N V L I f.F m Y.",
"      F.9.y + y f e.i.i.    B.i.r.U g.k.N.N.K N M b F P S J D W.",
"    J.i.j y r y f ] d.i.B.  J.9.0.0.e.e.e.9.A c c x v z k $ I   ",
"  F.i.B.9.f y d a _ i.B.i.J.  s.f f f f f f u x x l k $ # % R.  ",
"  9.e.B.e.j j j ` ' w.i.d.G.  E.h y r r r r & l l k $ # # l.    ",
"C.y 9.B.d.e.e.t.{ 9.9.9.e.s.Q.  F.y + + o o @ k k $ # # k.      ",
"i.r j s.C.d.i.} z.e.j h h j J.    C.h o o o . $ # # = j.        ",
"9.r f e.C.C.] R ^ / 3 2 1 < V.        h r e g J Z p             ",
"9.+ y 9.B.C.c.W > ! ) _ ~ Q n.                                  ",
"i.r r f e.B.B.( T [ v.b.v./ S.                                  ",
"  r r r h i.M.^ > E Q Q 4 '                                     ",
"  h o r r h e.^ > : : - , D.                                    ",
"    r + r y h 2 : : - , v.                                      ",
"      + r r r ; - , / S.                                        ",
"          9.9.] x.T.                                            "
};
