/* XPM */
static char *openrgb_png_ico_1[] = {
/* columns rows colors chars-per-pixel */
"24 24 171 2 ",
"   c None",
".  c #2C4F14",
"X  c #2E5115",
"o  c #2F5118",
"O  c #375413",
"+  c #32531C",
"@  c #3D5611",
"#  c #3A5627",
"$  c #3A5A24",
"%  c #3D5A2A",
"&  c #46590C",
"*  c #485B0E",
"=  c #425C24",
"-  c #415C2D",
";  c #445C33",
":  c #415A36",
">  c #45612C",
",  c #4E6629",
"<  c #4D692A",
"1  c #496325",
"2  c #556B2E",
"3  c #466233",
"4  c #4A6435",
"5  c #45613B",
"6  c #4B643B",
"7  c #4D6C3C",
"8  c #536135",
"9  c #516B3D",
"0  c #576939",
"q  c #4E713E",
"w  c #57723B",
"e  c #575F51",
"r  c #4E6241",
"t  c #536C42",
"y  c #576E48",
"u  c #596F4A",
"i  c #5E6A42",
"p  c #547142",
"a  c #5F764A",
"s  c #566B55",
"d  c #5F7650",
"f  c #5B7158",
"g  c #606E46",
"h  c #617249",
"j  c #62655F",
"k  c #647B54",
"l  c #62755A",
"z  c #617752",
"x  c #656566",
"c  c #656864",
"v  c #6D6C6D",
"b  c #666668",
"n  c #6E7D63",
"m  c #747475",
"M  c #797979",
"N  c #777779",
"B  c #B90A0A",
"V  c #B91A1C",
"C  c #B12526",
"Z  c #C90000",
"A  c #C10505",
"S  c #DB0000",
"D  c #B65D5E",
"F  c #B76667",
"G  c #B96A6B",
"H  c #B67574",
"J  c #B27C7A",
"K  c #0FB40F",
"L  c #0CBD0D",
"P  c #17B217",
"I  c #08C008",
"U  c #04C304",
"Y  c #00DD00",
"T  c #6B835B",
"R  c #798D6C",
"E  c #728664",
"W  c #7F9272",
"Q  c #77B576",
"!  c #75B972",
"~  c #A6A65B",
"^  c #ACA95C",
"/  c #B2A95D",
"(  c #ABB65C",
")  c #87876E",
"_  c #8D8D6A",
"`  c #92906E",
"'  c #8C8C72",
"]  c #8B9178",
"[  c #96957A",
"{  c #9A9A77",
"}  c #B4817F",
"|  c #81BB7E",
" . c #ACAC65",
".. c #AFBC63",
"X. c #B0B561",
"o. c #B1B961",
"O. c #B8BF6C",
"+. c #B4B37B",
"@. c #B7B978",
"#. c #BAB97E",
"$. c #C0AE6C",
"%. c #C6B774",
"&. c #C2BE7C",
"*. c #B6C169",
"=. c #CAC27D",
"-. c #0609B8",
";. c #0F12BD",
":. c #1518B6",
">. c #2526B2",
",. c #7D7FAF",
"<. c #6667B7",
"1. c #6F6FB6",
"2. c #6E6EB9",
"3. c #7576BA",
"4. c #0005C7",
"5. c #0308C3",
"6. c #0006DC",
"7. c #828281",
"8. c #878886",
"9. c #878788",
"0. c #8D8D8D",
"q. c #8F9F85",
"w. c #9A9B86",
"e. c #90928B",
"r. c #949494",
"t. c #9C9D9C",
"y. c #989A95",
"u. c #BE8888",
"i. c #BE9489",
"p. c #8EA083",
"a. c #85BB84",
"s. c #9CAA93",
"d. c #A7A68B",
"f. c #A2B098",
"g. c #9191AE",
"h. c #8384B8",
"j. c #8F91B8",
"k. c #9A9AB3",
"l. c #A4A5A3",
"z. c #AAABAB",
"x. c #A8A9A4",
"c. c #ABB2A4",
"v. c #B4B4AC",
"b. c #A1A0B7",
"n. c #B6B5B6",
"m. c #B8B7B8",
"M. c #BBBBBB",
"N. c #C5A18D",
"B. c #C8A590",
"V. c #CBACAB",
"C. c #92C288",
"Z. c #BCC1BA",
"A. c #B6D1B1",
"S. c #BDD3B2",
"D. c #D3C2AD",
"F. c #C1C2BE",
"G. c #ACADCE",
"H. c #BFBFC0",
"J. c #B0B2C8",
"K. c #C3C3C4",
"L. c #CDCDC6",
"P. c #CBCBCB",
"I. c #C5C9C2",
"U. c #CDD0CB",
"Y. c #D2D2CD",
"T. c #D3D3D2",
"R. c #D7D6D8",
"E. c #DBDCDA",
"W. c #D7DAD6",
"Q. c #E2E2E2",
"!. c #E7E8E7",
/* pixels */
"  * * * * & * * * * * * * * * * * * * * * * * @ ",
"* O X X X X X X X X X X X X X X X X X X X X O * ",
"* X . . X . + p + . X + X X 3 + . . . . X 9 $ & ",
"* X $ R s.R $ 9 $ T s.c.s.a p % + R f.s.W k $ & ",
"* + q.P.P.I.] . 9 W.P.n.M.c.$ o p.Q.R.R.F.7 . * ",
"& 4 U.P.P.x.t.6 p T.n.M.0.l.3 - U.K.M.l.8.t . * ",
"& 9 Y.n.n.0.N t t T.z.t.v 7.7 3 P.n.M.7.N u . * ",
"& 3 M.z.N b N 6 6 x.m x m l.6 % z.0.v x 9.t . * ",
"& = { d.{ ` _ > - w.w.] d.w.- $ ] [ ) ' [ 4 X * ",
"& , &.%.$.%.=.2 < O.*...*.O.< > @.#.+.#.&.w . * ",
"& 0 V.G D F V.h p A.| ! | A.p 6 J.3.<.2.G.l . * ",
"& 8 } B Z B H i 7 | K U K | q 5 h.:.4.-.3.s . * ",
"& 8 J B S A H 0 7 Q I Y I Q 7 : ,.;.6.5.1.s . * ",
"& 0 i.C V C u.g q a.P L P a.q 5 j.>.:.:.h.f . * ",
"& 0 D.B.i.N.D.a q S.C.| C.S.p 4 Z.b.g.k.K.z . * ",
"& 1 ~ / / / ^ , , X.o.( o.X., = ~  . . . .2 . * ",
"& - x.T.T.F.y.; - v.Y.L.L.c.; # e.M.Y.L.v.6 X * ",
"& 4 W.Q.R.T.n.6 7 !.Q.H.K.P.6 - P.Q.I.P.P.u . * ",
"& 9 U.M.M.y.M 3 t E.n.M.z.0.3 4 E.M.n.z.0.6 X * ",
"& $ c.M.I.7.c % > I.m.K.r.j # $ Z.M.M.t.c - X * ",
"* X d l.t.7.l + X E t.N x e + . d y.M v e + X * ",
"* X + y n k $ . X + ; ; : # X X X # ; r % X X * ",
"* O X X X . X X X X X X X X X X X X X X X X O * ",
"  * * * * * * * * * * * * * * * * * * * * * *   "
};
