/* XPM */
static char *org_gnome_Terminal_png_xpm[] = {
/* columns rows colors chars-per-pixel */
"128 128 77 1 ",
"  c None",
". c black",
"X c #040B00",
"o c #0C0C0C",
"O c #071100",
"+ c #081500",
"@ c #0B1C00",
"# c gray8",
"$ c #1B1B1B",
"% c #0E2400",
"& c #102600",
"* c #122C00",
"= c #153500",
"- c #173800",
"; c #193D00",
": c gray13",
"> c #2F2F2F",
", c #343434",
"< c #3C3C3C",
"1 c #1B4200",
"2 c #1E4C00",
"3 c #1F5000",
"4 c #225400",
"5 c #255C00",
"6 c #276100",
"7 c #296600",
"8 c #2B6D00",
"9 c #2E7500",
"0 c #307600",
"q c #327C00",
"w c gray26",
"e c #4B4B4B",
"r c #535353",
"t c gray36",
"y c #626262",
"u c #6A6A6A",
"i c gray45",
"p c #7C7C7C",
"a c #358400",
"s c #378900",
"d c #388C00",
"f c #3B9300",
"g c #3F9D00",
"h c #42A500",
"j c #44AA00",
"k c #47B200",
"l c #48B400",
"z c #4DBF00",
"x c #838383",
"c c #8D8D8D",
"v c #929292",
"b c gray60",
"n c #9D9D9D",
"m c gray63",
"M c #A5A5A5",
"N c #A9A9A9",
"B c gray68",
"V c gray70",
"C c #B7B7B7",
"Z c #BBBBBB",
"A c gray",
"S c #C1C1C1",
"D c gray77",
"F c #CACACA",
"G c #CDCDCD",
"H c gray82",
"J c gray83",
"K c #DADADA",
"L c gray87",
"P c #E2E2E2",
"I c #E4E4E4",
"U c #EAEAEA",
"Y c #EFEFEF",
"T c gray94",
"R c #F4F4F4",
"E c #FBFBFB",
"W c white",
/* pixels */
"   WWWWWWWWWWWWWWWWWWWWWWWWWWWWWWWWWWWWWWWWWWWWWWWWWWWWWWWWWWWWWWWWWWWWWWWWWWWWWWWWWWWWWWWWWWWWWWWWWWWWWWWWWWWWWWWWWWWWWWWWWW   ",
" WWWTUIIIIIIIIIIIIIIIIIIIIIIIIIIIIIIIIIIIIIIIIIIIIIIIIIIIIIIIIIIIIIIIIIIIIIIIIIIIIUIIIIIIIIIIIIIIIIIIIIIIIIIIIIIIIIIIIIIIIUTWWW ",
" WEPLLLLLLLLLLLLLLLLLLLLLLLLLLLLLLLLLLLLLLLLLLLLLLLLLLLLLLLLLLLLLLLLLLLLLLLLLLLLLLLLLLLLLLLLLLLLLLLLLLLLLLLLLLLLLLLLLLLLLLLLPEW ",
"WWILLVutiSLLLLLLLLLLLLLLLLLLLLLLLLLLLLLLxuuuuvLLLLLLLLLLLLLLLLLLKtLLLLLLLLLLLLLeNLLLLLLLLLLLLLLLLLLLLLLLLLLLLLLLLLLLLLLLLLLLLIWW",
"WRPPx,nVcAPPPPPPPPPPPPPPPPPPPPPPPPPPPPPPCMeuMAPPPPPPPPPPPPPPPPPPPBPPPPPPPPPPPPPeBPPPPPPPPPPPPPPPPPPPPPPPPPPPPPPPPPPPPPPPPPPPPPRW",
"WYPH$JPPPPPyx<wDPJt<rGPxcwwNr,xPPc<wZPPPPPucPPv<wBPcm<pMxe<bu<yPLrPbxe,cPPywwAPeBPPPPPPPPPPPPPPPPPPPPPPPPPPPPPPPPPPPPPPPPPPPPPYW",
"WYImeIIFDHI>xIvtIrcInwIttIv#HK$LVwPS>IIIIIucID,LG:Pi,GIv>LD.VIwVP:Ix,LJ$PIFIntIrVIIIIIIIIIIIIIIIIIIIIIIIIIIIIIIIIIIIIIIIIIIIIIYW",
"WTImrIIy,tI>HIAwI$PII#ItnIAwII,Gi,ttoPIIIIucIc>tt#FixIIvuII#IIunP:IxpII,JInueeIrVIIIIIIIIIIIIIIIIIIIIIIIIIIIIIIIIIIIIIIIIIIIIITW",
"WTUG$IUUnyU>KUSwU$LUI$UyMUAeUU,HiiFFFIUUUUivUctFFFPivUUviUU$UUunP:UxxUU,JpyHZeUrVUUUUUUUUUUUUUUUUUUUUUUUUUUUUUUUUUUUUUUUUUUUUUTW",
"WTUUtrSKxyU>LUSwUuiKxtUyMUSeUU,JS>DJZUUUUUivUH:AKCUivUUviUU$UUunI:UxxUU,KyxLueUrCUUUUUUUUUUUUUUUUUUUUUUUUUUUUUUUUUUUUUUUUUUUUUTW",
"WRYYUvreyVYpIYJcYUpepIYbDYJcYYpLYVrevYYYYYMCYYAtexYMCYYZMYYiYYnAUiYBBYYpPJttZcYvGYYYYYYYYYYYYYYYYYYYYYYYYYYYYYYYYYYYYYYYYYYYYYRW",
"WRTTTTTTTTTTTTTTTTTTTTTTTTTTTTTTTTTTTTTTTTTTTTTTTTTTTTTTTTTTTTTTTTTTTTTTTTTTTTTTTTTTTTTTTTTTTTTTTTTTTTTTTTTTTTTTTTTTTTTTTTTTTTRW",
"WETTTUDSSSSSSSSDSSSSSSSSSSSSSSSSSSSSSSSSSSSSSSSSSSSSSSSSSSSSSSSSSSSSSSSSSSSSSSSSSSSSSSSSSSSSSSSSSSSSSSSSSSSSSSSSSSSSSSSSSDUTTTEW",
"WERRpX....................................................................................................................XpRREW",
"WEEn........................................................................................................................mEEW",
"WWWe........................................................................................................................eWWW",
"WWW>........................................................................................................................>WWW",
"WWW>........................................................................................................................>WWW",
"WWW>........................................................................................................................>WWW",
"WWW>........................................................................................................................>WWW",
"WWW>........................................................................................................................>WWW",
"WWW>........................................................................................................................>WWW",
"WWW>........................................................................................................................>WWW",
"WWW>........................................................................................................................>WWW",
"WWW>........................................................................................................................>WWW",
"WWW>........................................................................................................................,WWW",
"WWW>.....................................................................................................................o##wWWW",
"WWW>................................................................................................................Xo#$$$$$wWWW",
"WWW>............................................................................................................Xo#$::$$$$$$wWWW",
"WWW>.........................................................................................................X#$$$:$$$$$$$$$wWWW",
"WWW>......................................................................................................o#$:$$$$$$$$$$$$$$wWWW",
"WWW>..................................................................................................X#$:::$$$$$$$$$$$$$$$$wWWW",
"WWW>...............................................................................................o#:::::::$$$$$$$$$$$$$$$$wWWW",
"WWW>............................................................................................o#$:::::::::$$$$$$$$$$$$$$$$wWWW",
"WWW>.........................................................................................o#::::::::::$$$$$$$$$$$$$$$$$$$wWWW",
"WWW>......................................................................................o#:::::::$$$:$$$$$$$$$$$$$$$$$$$$$wWWW",
"WWW>...................................................................................o$::::::::$$$$$$$$$$$$$$$$$$$$$$$$$$$<WWW",
"WWW>................................................................................X#$:::::::::$$$$$$$$$$$$$$$$$$$$$$$$$$$$<WWW",
"WWW>.............................................................................Xo$:::::::::$:::$$$$$$$$$$$$$$$$$$$$$$$##$$<WWW",
"WWW>...........................................................................o#::::::::::$$$:$$$$$$$$$$$$$$$$$$$$$$$######<WWW",
"WWW>........................................................................X#$:::::::::$$$$$$$$$$$$$$$$$$$$$$$$$$$$#$$$####<WWW",
"WWW>......................................................................o$:::::::::::$$$$$$$$$$$$$$$$$$$$$$$$$$$##$$######<WWW",
"WWW>...................................................................X#:::::::::::::::$$$$$$$$$$$$$$$$$$$$$$$$$$####$#####<WWW",
"WWW>.................................................................o$:::::::::::$$::$$$$$$$$$$$$$$$$$$$$$$$###$###########<WWW",
"WWW>...............................................................#$:::::::::::$$::$$$$$$$$$$$$$$$$$$$$$$$$$$$$############<WWW",
"WWW>............................................................o$::::::::::::::$$$$$$$$$$$$$$$$$$$$$$$$$$$$$$$$$###########<WWW",
"WWW>..........................................................o$:::::::::::$::$$$$$$$$$$$$$$$$$$$$$$$$$$#$####$#############<WWW",
"WWW>........................................................o$:::::::::::$$$:$$$$$$$$$$$$$$$$$$$$$$$$$$$####################<WWW",
"WWW>......................................................#$:::::::::::$:::$$$$$$$$$$$$$$$$$$$$$$$$#$$$$$$##################<WWW",
"WWW>...................................................X#::::::::::::$$$:$$$$$$$$$$$$$$$$$$$$$$$######$$####################<WWW",
"WWW>.................................................X#:::::::::::::$$$$$$$$$$$$$$$$$$$$$$$$$$$$$$##########################<WWW",
"WWW>...............................................X#:::::::::::::::$$$$$$$$$$$$$$$$$$$$$$$$##$$############################<WWW",
"WWW>.............................................X#:::::::::::$$::$$$$$$$$$$$$$$$$$$$$$$$$##$$$$#########################o##<WWW",
"WWW>...........................................X#:::::::::::$$$$$$$$$$$$$$$$$$$$$$$$$$$$######$$########################oo#o<WWW",
"WWW>.........................................X#:::::::::::::::$$$$$$$$$$$$$$$$$$$$$$$$$$$###############################oooo<WWW",
"WWW>.......................................X#:::::::::::$$::$$$$$$$$$$$$$$$$$$$$$$$$$$$############################o###ooooo<WWW",
"WWW>......................................#:::::::::::$$$$$$$$$$$$$$$$$$$$$$$$$$$#$$$$$##############################ooooooo<WWW",
"WWW>....................................#::::::::::::::$$$$$$$$$$$$$$$$$$$$$$$$$##$#$$########################oo##oooooooooo<WWW",
"WWW>..................................o$:::::::::$:::$$$$$$$$$$$$$$$$$$$$$$$$$$$############################oooo##oooooooooo,WWW",
"WWW>................................o$:::::::::$$$:$$$$$$$$$$$$$$$$$$$$$$$$###$$############################oooo##oooooooooo,WWW",
"WWW>..............................X$::::::::::::$$$$$$$$$$$$$$$$$$$$$$$$####$$#$############################ooo#oooooooooooo,WWW",
"WWW>.............................#:::::::::::::$$$$$$$$$$$$$$$$$$$$$$$$$####$$##############################oooooooooooooooo,WWW",
"WWW>...........................o$::::::::$$::$$$$$$$$$$$$$$$$$$$$$$$$$$$############################o#oooo#ooooooooooooooooo,WWW",
"WWW>.........................o$:::::::$$$$$$$$$$$$$$$$$$$$$$$$$$$$####$$$########################ooooooooooooooooooooooooooo,WWW",
"WWW>.......................X#:::::::$$::$$$$$$$$$$$$$$$$$$$$$$$$$$###################################ooooooooooooooooooooooo,WWW",
"WWW>......................o:::::::$$$$$$$$$$$$$$$$$$$$$$$$$$$$##$############################o####o#oooooooooooooooooooooooo>WWW",
"WWW>....................X$:::::::::$$$$$$$$$$$$$$$$$$$$$$$$$####$$#########################ooo#oooooooooooooooooooooooooooo.>WWW",
"WWW>...................#::::::$$::$$$$$$$$$$$$$$$$$$$$$$$$$$####$########################oooooooooooooooooooooooooooooooooX.>WWW",
"WWW>.................o$:::::$$$$$$$$$$$$$$$$$$$$$$$$$$$#$$$###########################o#####ooooooooooooooooooooooooooXXoX..>WWW",
"WWW>................#:::::::$$$$$$$$$$$$$$$$$$$$$$$$$$##$$###########################ooo####ooooooooooooooooooooooooXXXXX...>WWW",
"WWW>..............o$:::$:::$$$$$$$$$$$$$$$$$$$$$$$$$$$##$$$#######################oo##oooooooooooooooooooooooooooooooXXX....>WWW",
"WWW>............X#:::$$$:$$$$$$$$$$$$$$$$$$$$$$$$#$$#############################ooooooooooooooooooooooooooooooXXXoooXX.....>WWW",
"WWW>...........o$:::$$$$$$$$$$$$$$$$$$$$$$$$$$$$####################################ooooooooooooooooooooooooooooXXXXXX......>WWW",
"WWW>.........X#:::::$$$$$$$$$$$$$$$$$$$$$$$$$$$$################################o##ooooooooooooooooooooooooXooooXXXXX.......>WWW",
"WWW>........o$::::$$$$$$$$$$$$$$$$$$$$$$$$##$$#$$########################ooo#o##ooooooooooooooooooooooooooXXooooooXX........>WWW",
"WWW>.......#::::$$$$$$$$$$$$$$$$$$$$$$$$$$$$###########################ooooooo#ooooooooooooooooooooooooXooXXXXoXoX..........>WWW",
"WWW>.....X$:::$$$$$$$$$$$$$$$$$$$$$$$$$$##############################oooo###ooooooooooooooooooooooooooooXXXXXXX............>WWW",
"WWW>....o$:$$$$$$$$$$$$$$$$$$$$$$$$$$$$$###########################o##oooo#oooooooooooooooooooooooooooooooXXXXXX............>WWW",
"WWW>...#$$$$$$$$$$$$$$$$$$$$$$$$$$##$#$$#########################ooo#oooooooooooooooooooooooooooXoXoooooXXXXXX..............>WWW",
"WWW>.o$$$$$$$$$$$$$$$$$$$$$$$$$$######$########################o#oooo#ooooooooooooooooooooooooooXXXXXoXXXX..................>WWW",
"WWW,#$$$$$$$$$$$$$$$$$$$$$$$$$$$$###############ooooooooooooooo#ooooooooooooooooooooooooooooooooXXXXXXoo....................>WWW",
"WWWw$$$$$$$$$$$$$$$$$$$$$$$#$$$$#######oooX.......................XXXXooooooooooooooooooooooooXXXXXXX.......................>WWW",
"WWWw$$$$$$$$$$$$$$$$$$$$$#########ooX...........................................XXXXXXXXXXXXX...............................>WWW",
"WWWw$$$$$$$$$$$$$$$$$$$$#######oX...........................................................................................>WWW",
"WWWw$$$$$$$$$$$$$$$$##$$####o...............................................................................................>WWW",
"WWWw$$$$$$$$$$$$$$##$####oX.................................................................................................>WWW",
"WWWw$$$$$$$$$$$$$$#####o....................................................................................................>WWW",
"WWWw$$$$$$$$$$$$$$###o......................................................................................................>WWW",
"WWWw$$$$$$$$$#$####o........................................................................................................>WWW",
"WWWw$$$$$$$$######X.........................................................................................................>WWW",
"WWWw$$$$$$$#####o...........................................................................................................>WWW",
"WWW<$$#$$$$###o.............................................................................................................>WWW",
"WWWw#########o..............................................................................................................>WWW",
"WWW<########X...............................................................................................................>WWW",
"WWW<#######.................................................................................................................>WWW",
"WWW<#####o..................................................................................................................>WWW",
"WWW<####o...................................................................................................................>WWW",
"WWW<###o....................................................................................................................>WWW",
"WWW<##o.....................................................................................................................>WWW",
"WWW<#o......................................................................................................................>WWW",
"WWW<o.......................................................................................................................>WWW",
"WWW,........................................................................................................................>WWW",
"WWW>........................................................................................................................>WWW",
"WWW>........................................................................................................................>WWW",
"WWW>........................................................................................................................>WWW",
"WWW>........................................................................................................................>WWW",
"WWW>........................................................................................................................>WWW",
"WWW>........................................................................................................................>WWW",
"WWW>........................................................................................................................>WWW",
"WWW>........................................................................................................................>WWW",
"WWW>........................................................................................................................>WWW",
"WWW>........................................................................................................................>WWW",
"WWW>....................................................X...................................................................>WWW",
"WWW>........XXXXXXXXXO@@@@+++++XXXXX.XXXO%+X+XXXXXX...XO*+X.................................................................>WWW",
"WWW>.....X%+**-%=%*=*1ff0dd2saa*===%@=%&1q2*2===@**OXO+=lq+.................................................................>WWW",
"WWW>.....+a*fj80dgg85q4g8zdffja8jkqf3qsg8sahq5lg5jj%+874z8@.................................................................>WWW",
"WWW>.....+d1f6jfa8f**86gg4hdfhg5qf;ffagg1a2fq5s99k9%OO%-dj+.................................................................>WWW",
"WWW>.....O59599;a65@5%q52a64qq;=25%56q66q4*52-4119q+X.X%a1O.................................................................>WWW",
"WWW>.....XX+++++++OXXXO+++++++OXXXXO+++++OXOXXXXO+OX...XOX..................................................................>WWW",
"WWW>........................................................................................................................>WWW",
"WWW>........................................................................................................................>WWW",
"WWW>........................................................................................................................>WWW",
"WWWe........................................................................................................................eWWW",
"WWWm........................................................................................................................MWWW",
"WWWWxX....................................................................................................................XxWWWW",
" WWWWRHGGGGGGGGGGGGGGGGGGGGGGGGGGGGGGGGGGGGGGGGGGGGGGGGGGGGGGGGGGGGGGGGGGGGGGGGGGGGGGGGGGGGGGGGGGGGGGGGGGGGGGGGGGGGGGGGGGHRWWWW ",
" WWWWWWWWWWWWWWWWWWWWWWWWWWWWWWWWWWWWWWWWWWWWWWWWWWWWWWWWWWWWWWWWWWWWWWWWWWWWWWWWWWWWWWWWWWWWWWWWWWWWWWWWWWWWWWWWWWWWWWWWWWWWWW ",
"   WWWWWWWWWWWWWWWWWWWWWWWWWWWWWWWWWWWWWWWWWWWWWWWWWWWWWWWWWWWWWWWWWWWWWWWWWWWWWWWWWWWWWWWWWWWWWWWWWWWWWWWWWWWWWWWWWWWWWWWWWW   "
};
