/* XPM */
static char *org_lite_xl_lite_xl_png_ico_3[] = {
/* columns rows colors chars-per-pixel */
"48 48 226 2 ",
"   c None",
".  c #FF9D13",
"X  c #FF9D14",
"o  c #FF9E15",
"O  c #FF9E16",
"+  c #FF9E17",
"@  c #FF9F17",
"#  c #FF9F19",
"$  c #FFA01A",
"%  c #FFA01B",
"&  c #FFA11C",
"*  c #FFA11E",
"=  c #FFA21F",
"-  c #FEA220",
";  c #FFA220",
":  c #FFA321",
">  c #FFA322",
",  c #FFA323",
"<  c #FAA427",
"1  c #FFA424",
"2  c #FFA425",
"3  c #FFA527",
"4  c #F4A52D",
"5  c #F6A62D",
"6  c #FFA528",
"7  c #FFA629",
"8  c #FFA62A",
"9  c #FFA72B",
"0  c #FFA72C",
"q  c #FFA72D",
"w  c #FFA82E",
"e  c #FFA82F",
"r  c #EBA838",
"t  c #E9AA3D",
"y  c #F6A730",
"u  c #F5A834",
"i  c #F4A937",
"p  c #FFA930",
"a  c #FFA932",
"s  c #FFAA33",
"d  c #FFAB34",
"f  c #FFAB35",
"g  c #FFAB37",
"h  c #FFAC37",
"j  c #F4AA3A",
"k  c #F3AC3D",
"l  c #FFAC38",
"z  c #FFAC39",
"x  c #FFAD3A",
"c  c #FFAD3B",
"v  c #FFAD3C",
"b  c #FFAE3D",
"n  c #FFAE3E",
"m  c #FFAF3F",
"M  c #DFB358",
"N  c #DEB45B",
"B  c #DDB55F",
"V  c #E6AC45",
"C  c #E8AB41",
"Z  c #E5AD48",
"A  c #E3AF4C",
"S  c #F2AD41",
"D  c #F2AE44",
"F  c #F1AF47",
"G  c #FFAF40",
"H  c #FFAF41",
"J  c #FFB041",
"K  c #FFB043",
"L  c #FFB143",
"P  c #FFB144",
"I  c #FFB145",
"U  c #FFB246",
"Y  c #FFB247",
"T  c #F1B14B",
"R  c #F0B24E",
"E  c #FFB248",
"W  c #FFB348",
"Q  c #FFB349",
"!  c #FFB34A",
"~  c #FFB34B",
"^  c #FFB44B",
"/  c #FFB44C",
"(  c #FFB44D",
")  c #FFB54D",
"_  c #FFB54E",
"`  c #FFB54F",
"'  c #E2B050",
"]  c #E1B154",
"[  c #EFB352",
"{  c #EEB556",
"}  c #EDB75B",
"|  c #FFB650",
" . c #FFB651",
".. c #FFB652",
"X. c #FFB752",
"o. c #FFB753",
"O. c #FFB754",
"+. c #FFB854",
"@. c #FFB855",
"#. c #DBB663",
"$. c #DAB868",
"%. c #D8BA6D",
"&. c #D6BC73",
"*. c #D5BD76",
"=. c #D4BD77",
"-. c #ECB960",
";. c #ECBA63",
":. c #EDBA63",
">. c #E7BB68",
",. c #0F4AFF",
"<. c #0F4EFF",
"1. c #1051FF",
"2. c #125BFF",
"3. c #1463FF",
"4. c #156BFF",
"5. c #1773FF",
"6. c #187AFF",
"7. c #1A81FF",
"8. c #1A82FF",
"9. c #1B87FF",
"0. c #1B88FF",
"q. c #1B89FF",
"w. c #1C8FFF",
"e. c #1D90FF",
"r. c #1D94FF",
"t. c #1D95FF",
"y. c #1E99FF",
"u. c #1E9CFF",
"i. c #1FA0FF",
"p. c #20A0FF",
"a. c #20A1FF",
"s. c #21A7FF",
"d. c #21A8FF",
"f. c #21AAFF",
"g. c #23AFFF",
"h. c #23B0FF",
"j. c #23B1FF",
"k. c #24B3FF",
"l. c #24B5FF",
"z. c #25B9FF",
"x. c #25BBFF",
"c. c #25BCFF",
"v. c #26C0FF",
"b. c #26C1FF",
"n. c #26C2FF",
"m. c #27C5FF",
"M. c #27C7FF",
"N. c #28C8FF",
"B. c #28C9FF",
"V. c #28CAFF",
"C. c #28CBFF",
"Z. c #28CCFF",
"A. c #29CDFF",
"S. c #29CEFF",
"D. c #29CFFF",
"F. c #29D0FF",
"G. c #29D1FF",
"H. c #2AD1FF",
"J. c #2AD2FF",
"K. c #2AD3FF",
"L. c #28D4FF",
"P. c #29D4FF",
"I. c #2AD4FF",
"U. c #37D2F5",
"Y. c #3AD2F2",
"T. c gray57",
"R. c #A0A0A0",
"E. c #A4A4A4",
"W. c #A5A5A5",
"Q. c gray65",
"!. c #AAAAAA",
"~. c #ACACAC",
"^. c gray68",
"/. c #AEAEAE",
"(. c #AFAFAF",
"). c gray69",
"_. c #B1B1B1",
"`. c #B2B2B2",
"'. c #B6B6B6",
"]. c #B7B7B7",
"[. c gray72",
"{. c gray73",
"}. c gray74",
"|. c #97C5A8",
" X c #CBCBCB",
".X c gray81",
"XX c #D0D0D0",
"oX c gray82",
"OX c #D2D2D2",
"+X c LightGray",
"@X c gray83",
"#X c #D5D5D5",
"$X c gray84",
"%X c #D7D7D7",
"&X c #D8D8D8",
"*X c gray85",
"=X c #DADADA",
"-X c gray86",
";X c gainsboro",
":X c #DDDDDD",
">X c gray87",
",X c #DFDFDF",
"<X c gray88",
"1X c #E1E1E1",
"2X c #E2E2E2",
"3X c gray89",
"4X c #E4E4E4",
"5X c gray90",
"6X c #E6E6E6",
"7X c #E9E9E9",
"8X c #EAEAEA",
"9X c #ECECEC",
"0X c gray93",
"qX c #EEEEEE",
"wX c #EFEFEF",
"eX c #F1F1F1",
"rX c gray95",
"tX c #F4F4F4",
"yX c gray96",
"uX c #F6F6F6",
"iX c gray97",
"pX c #F8F8F8",
"aX c #F9F9F9",
"sX c gray98",
"dX c #FBFBFB",
"fX c white",
/* pixels */
"}._._._._._._._.W.T.                @.@.@.@.O.o.o.o.o.o.o.) ) ) ) ) ) ) ^ ^ ! ! ! ! ! ! U ! ) o.",
"rX#X#X&X&X>X2X4X2XOX!.              @.@.@.@.o.) ) ! ! U U K K m m m l l g g a a a e q 8 8 8 l ) ",
"yXOXOX#X&X>X2X4X7X0X4X_.              @.@.@.o.) ! U K H m l g g a e q 8 8 1 , , = $ # + + + 8 ! ",
"yXOXOX#X&X>X2X4X7X0XrX2XW.              @.@.@.o.) ! U H m l l g a e q 8 1 1 , = = $ + + . + 8 U ",
"yXOXOX#X&X>X2X4X7X0XrXyX X                @.@.o.o.) U K H m l h g a e q 8 1 1 , = = $ + + + 8 ! ",
"yXOXOX#X&X>X2X4X7X0XrXyX4XR.                >.:.:.:.} { [ R T F F S k j i i y 5 < , = $ + # q ! ",
"yXOXOX#X&X>X2X4X7X0XrXyXrX(.                Y.|.*.*.&.%.$.#.B N M ] ' A Z V C t r 5 , = $ $ e ! ",
"yXOXOX#X&X>X2X4X7X0XrXyXyX'.              I.I.U.|.*.*.&.%.$.#.B N M ] ' A Z V C t r < = = = a ! ",
"yXOXOX#X&X>X2X4X7X0XrXyXyX[.              I.I.I.U.|.*.*.&.%.$.#.B N M ] ' A Z V C t 5 , = , a ! ",
"yXOXOX#X&X>X2X4X7X0XrXyXyX[.              I.J.J.I.U.|.*.*.&.%.$.#.B N M ] ' A Z V C y 1 , , a ! ",
"yXOXOX#X&X>X2X4X7X0XrXyXyX[.              J.J.J.J.I.U.|.*.*.&.%.$.#.B N M ] ' A Z V i 1 1 1 g ^ ",
"yXOXOX#X&X>X2X4X7X0XrXyXyX[.              J.D.D.D.J.I.U.|.*.*.&.%.$.#.B N M ] ' A Z i 8 1 8 g ^ ",
"yXOXOX#X&X>X2X4X7X0XrXyXyX[.              J.D.B.D.J.J.I.U.|.*.*.&.%.$.#.B N M ] ' A j q 8 8 l ) ",
"yXOXOX#X&X>X2X4X7X0XrXyXyX[.              J.B.v.M.D.J.J.I.U.|.*.*.&.%.$.#.B N M ] ' k e q q l ) ",
"yXOXOX#X&X>X2X4X7X0XrXyXyX[.              J.M.z.v.M.D.J.J.I.U.|.*.*.&.%.$.#.B N M ] S a e e m ) ",
"yXOXOX#X&X>X2X4X7X0XrXyXyX[.              J.v.k.z.v.M.D.J.J.I.U.|.*.*.&.%.$.#.B N M F g a a m ) ",
"yXOXOX#X&X>X2X4X7X0XrXyXyX[.              J.z.d.h.z.v.M.D.J.J.I.U.|.*.*.&.%.$.#.B N F h g g m ) ",
"yXOXOX#X&X>X2X4X7X0XrXyXyX[.              D.l.i.s.h.z.v.M.D.D.J.I.U.|.*.*.&.%.$.#.B T l h g K ) ",
"yXOXOX#X&X>X2X4X7X0XrXyXyX[.              D.g.r.u.s.h.z.v.M.D.D.J.I.U.|.*.*.&.%.$.#.R m l l K ) ",
"yXOXOX#X&X>X2X4X7X0XrXyXyX[.              D.d.9.w.u.s.h.z.v.M.D.D.J.I.U.|.*.*.&.%.$.[ H m m U o.",
"yXOXOX#X&X>X2X4X7X0XrXyXyX[.              B.p.6.7.w.u.s.h.z.v.M.D.D.J.I.U.|.*.*.&.%.{ K H H U o.",
"yXOXOX#X&X>X2X4X7X0XrXyXyX[.              B.y.4.5.7.w.u.s.h.z.v.M.D.D.J.I.U.|.*.*.&.} U U K ! o.",
"yXOXOX#X&X>X2X4X7X0XrXyXyX[.              B.e.2.3.5.7.w.u.s.h.z.v.M.D.D.J.I.U.|.*.*.:.) ! U ! o.",
"yXOXOX#X&X>X2X4X7X0XrXyXyX[.              B.q.,.1.3.5.7.w.u.s.h.z.v.M.D.D.J.I.U.|.*.:.o.) ! ) o.",
"yXOXOX#X&X>X2X4X7X0XrXyXyX[.              B.r.<.,.2.4.6.q.r.i.d.k.z.v.B.D.J.J.I.U.|.:.o.o.) ) o.",
"yXOXOX#X&X>X2X4X7X0XrXyXyX[.                c.r.q.e.y.p.d.g.l.z.v.M.B.D.D.J.J.I.I.Y.>.@.@.o.o.O.",
"yXOXOX#X&X>X2X4X7X0XrXyXyX[.                  B.B.B.B.D.D.D.D.J.J.J.J.J.J.J.I.I.I.    @.@.@.@.@.",
"yXOXOX#X&X>X2X4X7X0XrXyXyX[.                                                            @.@.@.@.",
"yXOXOX#X&X>X2X4X7X0XrXyXyX[.                                                              @.@.@.",
"yXOXOX#X&X>X2X4X7X0XrXyXyX[.                                                                @.@.",
"yXOXOX#X&X>X2X4X7X0XrXyXyX[.                                                                    ",
"yXOXOX#X&X>X2X4X7X0XrXyXyX[.                                                                    ",
"yXOXOX#X&X>X2X4X7X0XrXyXyX'.                                                                    ",
"yXOXOX#X&X>X2X4X7X0XrXyXyX[.                                                                    ",
"yXOXOX#X&X>X2X4X7X0XrXyXpX&X[.'.'.'.'.'.'.'.'.'.'.'.'.'.'.'.'.'.'.'.'.'.'.'.'.'.'.(.R.          ",
"yXOXOX#X&X>X2X4X7X0XrXyXpXpXyXyXyXyXyXyXyXyXyXyXyXyXyXyXyXyXyXyXyXyXyXyXyXyXyXyXyXrX4X XW.      ",
"yXOXOX#X&X>X2X4X7X0XrXyXyXyXyXyXyXyXyXyXyXyXyXyXyXyXyXyXyXyXyXyXyXyXyXyXyXyXyXyXyXyXyXyX4X_.    ",
"yXOXOX#X&X>X2X4X7X0XrXrXrXrXrXrXrXrXrXrXrXrXrXrXrXrXrXrXrXrXrXrXrXrXrXrXrXrXrXrXrXrXrXrXrX4X!.  ",
"yXOXOX#X&X>X2X4X7X0X0X0X0X0X0X0X0X0X0X0X0X0X0X0X0X0X0X0X0X0X0X0X0X0X0X0X0X0X0X0X0X0X0X0X0X0X.XT.",
"yXOXOX#X&X>X2X4X7X7X7X7X7X7X7X7X7X7X7X7X7X7X7X7X7X7X7X7X7X7X7X7X7X7X7X7X7X7X7X7X7X7X7X7X7X7X2XW.",
"yXOXOX#X&X>X2X4X4X4X4X4X4X4X4X4X4X4X4X4X4X4X4X4X4X4X4X4X4X4X4X4X4X4X4X4X4X4X4X4X4X4X4X4X4X4X2X(.",
"yX#XOX#X&X>X2X2X2X2X2X2X2X2X2X2X2X2X2X2X2X2X2X2X2X2X2X2X2X2X2X2X2X2X2X2X2X2X2X2X2X2X2X2X2X2X2X_.",
"pX&XOX#X&X>X>X>X>X>X>X>X>X>X>X>X>X>X>X>X>X>X>X>X>X>X>X>X>X>X>X>X>X>X>X>X>X>X>X>X>X>X>X>X>X>X>X(.",
"fX7XOX#X&X>X&X&X&X&X&X&X>X&X&X>X&X&X&X&X&X&X>X>X&X>X&X&X>X&X&X&X>X>X&X&X&X&X&X&X&X&X&X&X&X&X&X(.",
"  pX>X#X#X#X#X#X#X#X#X#X#X&X#X#X#X#X#X#X#X#X#X#X&X#X#X&X#X#X#X#X&X#X#X#X#X#X#X#X#X#X#X#X#X#X#X(.",
"    pX>XOXOXOXOXOXOXOXOXOXOXOXOXOXOXOXOXOXOXOXOXOXOXOXOXOXOXOXOXOXOXOXOXOXOXOXOXOXOXOXOXOXOXOX(.",
"      pX4X#XOXOXOXOXOXOXOXOXOXOXOXOXOXOXOXOXOXOXOXOXOXOXOXOXOXOXOXOXOXOXOXOXOXOXOXOXOXOXOXOX.X(.",
"        fXyX0X0X0X0X0X0X0X0X0X0X0X0X0X0X0X0X0X0X0X0X0X0X0X0X0X0X0X0X0X0X0X0X0X0X0X0X0X0X0X0X7X[."
};
