/* XPM */
static char *org_xfce_settings_manager_png_ico_3[] = {
/* columns rows colors chars-per-pixel */
"48 48 203 2 ",
"   c None",
".  c #351F1A",
"X  c #3C210F",
"o  c #2D251C",
"O  c #322715",
"+  c #3B341B",
"@  c #1F1422",
"#  c #220A29",
"$  c #261A29",
"%  c #2C0536",
"&  c #30093A",
"*  c #252526",
"=  c #2D2C2C",
"-  c #2C2B25",
";  c #342D28",
":  c #34312C",
">  c #3A3621",
",  c #2D2732",
"<  c #2F3637",
"1  c #333333",
"2  c #303638",
"3  c #32393B",
"4  c #3A3A3A",
"5  c #312035",
"6  c #570000",
"7  c #5D0000",
"8  c #650000",
"9  c #690000",
"0  c #720000",
"q  c #7B0000",
"w  c #443A0B",
"e  c #5D3113",
"r  c #522E0C",
"t  c #733811",
"y  c #582727",
"u  c #463420",
"i  c #682626",
"p  c #732D2D",
"a  c #793C3C",
"s  c #005600",
"d  c #085B08",
"f  c #0B4E0B",
"g  c #006400",
"h  c #0B680B",
"j  c #007400",
"k  c #007A00",
"l  c #0B790B",
"z  c #305330",
"x  c #2E732E",
"c  c #584908",
"v  c #4A421F",
"b  c #675508",
"n  c #725D03",
"m  c #796406",
"M  c #00005A",
"N  c #000055",
"B  c #390347",
"V  c #373E40",
"C  c #3E3E42",
"Z  c #3C3C59",
"A  c #00006C",
"S  c #000066",
"D  c #00007C",
"F  c #000070",
"G  c #3C3C64",
"H  c #282877",
"J  c #2D2D6B",
"K  c #430054",
"L  c #470059",
"P  c #4A005D",
"I  c #430D51",
"U  c #4A1557",
"Y  c #4D0061",
"T  c #55016A",
"R  c #55066A",
"E  c #581568",
"W  c #5C0073",
"Q  c #62007A",
"!  c #601C71",
"~  c #4E3A53",
"^  c #3B4344",
"/  c #434444",
"(  c #43464A",
")  c #444A4B",
"_  c #4A4B4B",
"`  c #4D4E50",
"'  c #4D5152",
"]  c #525455",
"[  c #535758",
"{  c #55595A",
"}  c #5C5D5D",
"|  c #575857",
" . c #6B4747",
".. c #794242",
"X. c #6C5757",
"o. c #7F5A5A",
"O. c #596559",
"+. c #4F754F",
"@. c #7C7140",
"#. c #42426A",
"$. c #5D5E61",
"%. c #5D5D6F",
"&. c #545475",
"*. c #5D6162",
"=. c #646464",
"-. c #6A6767",
";. c #636C63",
":. c #686768",
">. c #6B6B6B",
",. c #65656B",
"<. c #637563",
"1. c #6C726C",
"2. c #70706F",
"3. c #6B6B72",
"4. c #737374",
"5. c #787778",
"6. c #7A7A7A",
"7. c #777877",
"8. c #766C6C",
"9. c #850000",
"0. c #8D0404",
"q. c #971212",
"w. c #9C1818",
"e. c #920404",
"r. c #973E01",
"t. c #9E2424",
"y. c #902B2B",
"u. c #9D3131",
"i. c #A63333",
"p. c #A83232",
"a. c #A32222",
"s. c #9E4408",
"d. c #934512",
"f. c #A54200",
"g. c #AD4600",
"h. c #B54901",
"j. c #BF4C00",
"k. c #B64803",
"l. c #987D07",
"z. c #C34C00",
"x. c #C84F00",
"c. c #C95000",
"v. c #DD5B02",
"b. c #D85703",
"n. c #C75911",
"m. c #E25B03",
"M. c #DC6516",
"N. c #E96200",
"B. c #E77B2F",
"V. c #844444",
"C. c #8E4F4F",
"Z. c #018701",
"A. c #038C03",
"S. c #0C8D0C",
"D. c #169916",
"F. c #1E9D1E",
"G. c #188318",
"H. c #259D25",
"J. c #3F9A3F",
"K. c #33A633",
"L. c #2DA22D",
"P. c #4A8A4A",
"I. c #998016",
"U. c #A38500",
"Y. c #AC8C00",
"T. c #A78800",
"R. c #B49200",
"E. c #BD9900",
"W. c #BB9805",
"Q. c #B7991A",
"!. c #C39E00",
"~. c #CAA502",
"^. c #CFA902",
"/. c #D3AB00",
"(. c #D5AC0A",
"). c #DCB300",
"_. c #E4BB00",
"`. c #E8BE00",
"'. c #D3B128",
"]. c #E8C000",
"[. c #A28572",
"{. c #D7BB51",
"}. c #000082",
"|. c #09098B",
" X c #0B0B93",
".X c #070794",
"XX c #1E1E96",
"oX c #2A2A88",
"OX c #333385",
"+X c #333396",
"@X c #212196",
"#X c #2B2BA4",
"$X c #2E2EA8",
"%X c #43438D",
"&X c #43439A",
"*X c #90609C",
"=X c #828485",
"-X c #A6A4A8",
";X c #ABA695",
":X c #DEC3B1",
">X c #EDC5AA",
",X c #D3BED9",
"<X c #F8EFC8",
/* pixels */
"        < 3 3 3 3 3 3 3 3 3 3 3 3 3 3 3 3 3 3 3 3 3 3 3 3 3 3 3 3 3 3 3 3 3 3 3 3 3 2 <         ",
"    < V ) { *.*.*.*.*.*.*.*.*.*.*.*.*.*.*.*.*.*.*.*.*.*.*.*.*.*.*.*.*.*.} } *.*.*.*.{ ) V <     ",
"  < ^ $.7.6.6.6.6.6.6.6.6.6.6.6.6.6.6.6.6.6.6.6.6.6.6.6.6.6.6.6.6.6.6.7.7.7.7.7.6.6.7.4.} ^ <   ",
"  V } 6.6.6.6.6.6.6.6.6.6.6.6.6.6.6.6.7.7.7.7.7.6.6.6.6.7.7.7.7.7.7.7.4.4.4.4.7.7.7.7.7.7.{ 4   ",
"< ) 4.6.6.6.6.6.6.7.7.8.C.V..... . .....V.o.4.7.6.6.6.6.7.7.4.4.4.4.4.4.>.>.>.4.7.7.7.7.7.2.( < ",
"3 [ 6.6.6.6.6.6.7.7.8.C.a.e.q 9 6 8 0 9.q.i.C.7.6.6.6.6.7.4.2.>.4.4.4.>.>.>.>.4.7.7.7.7.7.7.[ 3 ",
"3 } 6.6.6.6.6.4.=.=.X.i.t.0.q 8 6 7 0 9.q.p.V.=.=.>.>.=.=.=.} } } } } } } } =.=.>.7.7.4.7.7.{ 3 ",
"3 } 6.6.6.6.6.] * * . u.t.0.q 9 6 7 0 9.q.p.i * * * * * * * * * * * * * * * * * | 7.4.4.4.7.{ 3 ",
"3 } 6.6.6.6.6.4.=.=. .u.t.0.q 9 6 7 0 9.q.p.a >.>.4.4.4.>.>.>.>.>.>.>.>.>.>.>.>.7.4.7.7.7.7.{ 3 ",
"3 } 6.6.6.6.6.7.4.4.X.y.w.0.q 8 6 7 0 9.q.t...7.6.6.6.6.7.4.4.4.4.4.4.4.4.4.4.4.7.4.4.4.4.7.{ 3 ",
"3 } 6.6.5.5.7.7.4.>.>. .p i i y y y y i p a -.4.7.6.6.6.7.4.4.4.4.4.4.4.4.4.4.4.4.4.4.4.4.4.{ 3 ",
"3 } 6.7.7.7.7.4.4.>.>.>.>.2.4.4.4.4.>.>.>.>.>.4.7.7.6.7.7.7.7.7.7.7.4.4.4.4.4.4.4.4.4.4.4.4.{ 3 ",
"3 { 6.7.7.7.4.4.4.>.>.>.>.>.>.>.>.>.>.>.>.>.>.>.4.4.7.7.7.7.7.7.7.7.4.4.4.4.>.>.>.>.>.>.>.4.{ 3 ",
"3 { 7.7.7.7.4.4.4.>.>.>.>.>.>.>.>.>.>.=.=.=.=.>.>.1.<.<.<.<.<.<.<.<.<.1.4.>.>.>.>.>.>.>.>.>.[ 3 ",
"3 } 7.7.7.7.4.4.4.2.>.>.>.>.>.>.>.>.=.=.=.=.=.:.;.P.H.S.l h d h l S.F.J.<.>.>.>.>.>.>.>.>.>.[ 3 ",
"3 } 7.7.7.7.4.4.4.4.>.>.>.>.>.>.>.=.=.=.=.=.=.:.+.K.F.A.k g s s j Z.D.K.P.>.>.>.>.=.=.=.>.>.[ 3 ",
"3 { 7.7.7.7.7.| = = = = = = = = = = = = = = = = z K.H.A.k g s g j Z.D.K.x = = = ] =.=.=.>.>.[ 3 ",
"3 { 7.7.7.7.7.=.( _ _ _ _ _ _ _ _ _ _ _ _ _ _ _ z L.H.A.k g s g j Z.D.K.x _ _ _ =.=.=.>.>.>.{ 3 ",
"3 { 7.4.7.7.7.7.7.7.6.6.7.7.7.4.4.4.4.4.4.4.4.4.+.H.F.A.k g s g j Z.D.L.+.>.>.>.=.=.>.>.>.>.{ 3 ",
"3 { 7.4.4.4.4.4.4.4.7.7.7.4.4.>.>.>.>.>.4.4.4.4.1.x G.l h d f f h l G.x O.:.>.>.>.>.>.>.>.4.{ 3 ",
"3 { 4.4.4.4.>.>.>.>.4.4.4.>.>.>.>.>.>.4.4.4.4.4.7.1.;.;.;.;.;.;.;.O.O.O.=.=.>.>.>.>.>.>.4.4.{ 3 ",
"3 { 4.4.>.>.>.>.>.>.>.>.>.>.>.>.>.>.>.>.4.4.7.7.5.7.5.7.7.7.7.7.4.>.=.=.=.=.>.>.>.>.>.>.>.2.{ 3 ",
"3 { 4.>.>.>.=.=.=.=.=.>.>.=.>.>.>.>.>.>.4.4.4.7.7.7.7.7.4.4.4.2.>.=.=.=.=.>.>.>.>.>.>.>.>.>.{ 3 ",
"3 { 4.>.>.=.=.=.=.=.=.=.=.=.>.>.>.>.>.>.>.%.%XoXoXH J J H oXoX%X%.=.=.=.=.>.>.>.>.>.>.>.>.>.{ 3 ",
"3 { 4.>.>.>.=.=.=.>.>.>.>.>.>.>.>.>.>.>.,.&X#X.X}.A M M F }. X$X%X$.} =.=.>.>.>.>.>.>.>.>.>.[ 3 ",
"3 { 4.>.>.>.>.| ( _ _ _ _ _ _ _ _ _ _ _ ( +X#X.XD A M M A }. X$XOXC / / ( _ _ _ =.>.>.>.>.>.[ 3 ",
"3 { 4.4.>.>.>.` = = = = = = = = = = = = , oX#X.XD A M M A }. X$XH = = = = 1 1 1 | >.>.>.>.>.[ 3 ",
"3 { 4.4.4.>.>.>.>.>.>.>.>.>.>.>.>.>.>.>.,.+X#X.X}.A M M A }. X$XOX$.=.=.=.=.>.>.>.>.>.>.>.>.[ 3 ",
"3 { 4.4.>.>.>.>.>.>.>.>.>.>.>.=.=.>.>.>.>.OXXX|.D S N N S D |.@XJ } *.*.=.=.=.=.=.=.=.=.=.>.[ 3 ",
"3 { 4.>.>.>.>.>.>.=.>.>.>.=.=.=.=.>.>.4.7.3.#.#.G Z Z Z Z G G #.$.=.=.=.=.=.=.=.} =.=.=.=.=.[ 3 ",
"3 { >.>.>.>.>.=.=.=.=.=.=.=.=.=.=.>.4.7.7.7.7.4.2.>.>.>.>.>.-.=.=.=.=.=.=.} } } } } } } =.=.' 3 ",
"3 { >.>.>.=.=.=.=.=.=.=.=.=.=.=.>.>.4.7.6.6.7.4.>.=.=.=.>.>.>.>.=.=.=.=.X.} =.=.} } } } =.=.' 3 ",
"3 { >.>.=.=.} | ` ] } =.=.=.=.>.>.>.4.7.7.7.>.} [ } =.=.>.>.>.>.=.=.=.=.=.} | ] | =.=.=.=.=.' 3 ",
"3 [ >.>.=.] 1 > v u : _ 4.>.>.>.>.>.4.7.>./ ; u u ; 4 } :.>.>.>.=.=.=.} ( = 5 5 5 1 ] =.=.=.' 3 ",
"3 [ >.>._ + I.(.(.(.Q.;X-X=.>.>.>.>.4.=.: t n.b.b.n.t ; | >.>.=.=.=.>.-X~ E R R E U $ _ =.>.[ 3 ",
"3 [ >.| + W./.E.R.R.{.<X@./ >.>.>.>.>.: d.v.z.h.h.z.v.d.: =.>.=.=.=._ -X,X! L L L Y E $ | >.[ 3 ",
"3 [ >.4 l.).E.R.Y.Y.Q.'.~.+ *.>.>.>.` e m.z.h.g.g.h.z.m.e _ =.=.=.| $ E *XE L L L P T I 1 =.[ 3 ",
"3 [ =.> ^./.E.T.U.T.R.!._.b ` >.>.>.4 s.v.j.g.f.f.g.j.v.s.1 =.=.=./ & W Y L K K L P Y R $ =.[ 3 ",
"3 [ $.w )./.E.T.l.U.R.~._.m / >.>.>.: h.v.z.g.r.r.g.z.M.k.; =.=.} 4 B W Y L K B L P T W $ | [ 3 ",
"3 [ =.+ /.).!.R.T.Y.E.^.`.b ( >.>.>.1 f.m.c.h.f.f.h.n.>X:X7.=.=.} / % W T P L K L Y W T $ } [ 3 ",
"3 [ >.: U.`./.!.E.!.^.)./.+ | =.=.>./ e N.b.x.j.j.x.b.B.[.=X=.=.} ] # W W Y Y P Y T Q K = =.[ 3 ",
"3 [ >.` w ^.`.)././._.`.n 1 =.=.=.>.} o f.N.v.b.b.v.N.f.o | =.=.=.} 1 & Q W T T W Q T # _ =.' 3 ",
"3 ' >.:.4 w R._.].`.^.n - | =.=.>.>.>.` O r.v.N.N.v.r.. _ =.=.=.=.=.| * % T Q Q Q P # 4 =.=.' 3 ",
"2 ( =.>.=.( o w c c O 1 } =.=.>.>.>.>.=.] - X r r X - ] =.=.=.=.=.=.=.| 1 @ # % # $ / =.=.=.( 2 ",
"  4 ' >.>.>.=.' ( _ | =.>.=.>.>.>.>.>.>.>.=.[ ( ( [ =.=.=.=.=.=.=.=.=.=.=.| _ ( _ } =.=.=.' V   ",
"  < ^ ' =.>.>.>.>.>.>.=.:.:.>.>.>.:.=.=.=.=.=.=.=.=.=.=.=.=.=.=.=.=.=.=.=.=.=.=.=.=.=.} ' ^ <   ",
"    < V ( ` ' ' ' ' ' ' ' ' ' ' ' ' ' ' ' ' ' ' ' ' ' ' ' ' ' ' ' ' ' ' ' ' ' ' ' ' _ ( 4 <     ",
"        2 3 3 3 3 3 3 3 3 3 3 3 3 3 3 3 3 3 3 3 3 3 3 3 3 3 3 3 3 3 3 3 3 3 3 3 3 3 3 2         "
};
