/* XPM */
static char *org_videolan_VLC_png_ico_3[] = {
/* columns rows colors chars-per-pixel */
"48 48 158 2 ",
"   c None",
".  c #411A00",
"X  c #522100",
"o  c #642800",
"O  c #682A00",
"+  c #752F00",
"@  c #773000",
"#  c #793100",
"$  c #823400",
"%  c #8A3700",
"&  c #8D3901",
"*  c #953C01",
"=  c #9C3F00",
"-  c #9C4004",
";  c #9C460C",
":  c #A24201",
">  c #AD4500",
",  c #AE4804",
"<  c #A4490C",
"1  c #AB4B0B",
"2  c #A1470B",
"3  c #B14700",
"4  c #B64900",
"5  c #BB4C01",
"6  c #B04D0A",
"7  c #B7500B",
"8  c #BD520B",
"9  c #A3521C",
"0  c #BB5A19",
"q  c #925025",
"w  c #AF5D26",
"e  c #C24E00",
"r  c #C55002",
"t  c #CB5302",
"y  c #C4560B",
"u  c #D55500",
"i  c #D85700",
"p  c #D45806",
"a  c #DD5A02",
"s  c #D75B08",
"d  c #DA5E0B",
"f  c #CB5C11",
"g  c #C45D19",
"h  c #E55D01",
"j  c #E85C00",
"k  c #CC6119",
"l  c #D46419",
"z  c #D86619",
"x  c #DD6919",
"c  c #E66006",
"v  c #EB6202",
"b  c #E9670D",
"n  c #ED6A0C",
"m  c #F36402",
"M  c #FD6700",
"N  c #F66B03",
"B  c #FC6900",
"V  c #F16C0C",
"C  c #FA6F09",
"Z  c #F77204",
"A  c #FF7700",
"S  c #F2720C",
"D  c #F37C0D",
"F  c #E06514",
"G  c #E56D1B",
"H  c #F1731A",
"J  c #F27C1C",
"K  c #C96C2E",
"L  c #E6762B",
"P  c #EB7729",
"I  c #EB792B",
"U  c #F27F26",
"Y  c #F37E2D",
"T  c #EE7D32",
"R  c #8E6E59",
"E  c #A56E49",
"W  c #F3821D",
"Q  c #F4891E",
"!  c #F78122",
"~  c #F6822E",
"^  c #F8862E",
"/  c #F78530",
"(  c #F88730",
")  c #F88A33",
"_  c #F28C3A",
"`  c #FB8B38",
"'  c #F49237",
"]  c #F89434",
"[  c #F99A36",
"{  c #F99C38",
"}  c #C58256",
"|  c #FE8E42",
" . c #F39744",
".. c #FE9345",
"X. c #FF964C",
"o. c #FE9C4A",
"O. c #F89B46",
"+. c #F39653",
"@. c #FF9B56",
"#. c #FF9E58",
"$. c #F9A144",
"%. c #FEA34E",
"&. c #FEA94F",
"*. c #FEA650",
"=. c #FEA952",
"-. c #FFA35C",
";. c #FEAE5A",
":. c #D9996E",
">. c #DE9F73",
",. c #FFA760",
"<. c #FFAC63",
"1. c #F4AE68",
"2. c #FFB167",
"3. c #FFB269",
"4. c #968F8B",
"5. c #9F948C",
"6. c #969493",
"7. c #989695",
"8. c #9B9B9A",
"9. c #B79C8A",
"0. c #A8A09B",
"q. c #A2A3A3",
"w. c #ABABAA",
"e. c gray70",
"r. c #BCBDBD",
"t. c #FFBE80",
"y. c #E5B695",
"u. c #F9C38A",
"i. c #FED3A6",
"p. c #F8D2B7",
"a. c #FFD9B6",
"s. c #FBDABF",
"d. c #BEBFC0",
"f. c #C5C5C5",
"g. c #CFC6C0",
"h. c #CBCBCB",
"j. c #D4D5D6",
"k. c gray86",
"l. c #EDD6C6",
"z. c #F2D6C0",
"x. c #FFDFC2",
"c. c #F9E7D5",
"v. c #FEEBD7",
"b. c #F5E6D9",
"n. c #FCEADA",
"m. c #E2E4E6",
"M. c #ECECEC",
"N. c #F2EAE4",
"B. c #F3EEE9",
"V. c #FEF5EC",
"C. c #EFF1F2",
"Z. c #F3F3F3",
"A. c #FFF8F2",
"S. c #F5F6F8",
"D. c #F7F8F9",
"F. c #F8F9FA",
"G. c #FFFFFF",
"H. c #FDFDFD",
/* pixels */
"                                        u u u u u u u u                                         ",
"                                      6 y f f f f f f y 6                                       ",
"                                      ; 0 L | X.X.` L 0 ;                                       ",
"                                      ; g I | @.@.| P g ;                                       ",
"                                      2 g I ..#.#...I g 2                                       ",
"                                      < k Y ..-.-...Y k <                                       ",
"                                    * 1 l Y X.-.-...Y l 1                                       ",
"                                    * 6 z ~ o.,.-...~ z 6 *                                     ",
"                                    * 7 x ~ o.<.<.o.~ x 7 *                                     ",
"                                    - 8 G / o.<.<.o.^ G 8 -                                     ",
"                                    : y G ( o.<.<.o.^ G y :                                     ",
"                                    E K P ) %.<.<.%.) P K E                                     ",
"                                  6.w.g.l.s.s.x.x.s.s.l.g.w.6.                                  ",
"                                  7.e.j.C.F.G.G.G.G.F.C.j.e.7.                                  ",
"                                  8.e.k.Z.F.G.G.G.G.F.Z.k.r.8.                                  ",
"                                  5.r.m.Z.F.G.G.G.G.F.Z.m.r.5.                                  ",
"                                  9 } y.z.n.V.A.A.V.n.z.y.} 9                                   ",
"                                  > t b U O.3.t.t.3.O.U b t >                                   ",
"                                * > p n J ] *.2.2.&.] J n p > *                                 ",
"                                * 4 i n J ] =.3.3.=.] J n i 4 *                                 ",
"                                = 5 a V J ] =.3.3.=.] J V a 5 =                                 ",
"                                = e h V W [ =.3.3.=.] J V h e =                                 ",
"                                : t v V W [ =.3.3.=.] W V v t :                                 ",
"                              & > p v S W [ =.3.3.=.[ W S v p > &                               ",
"                              q 6 u m S W [ =.3.3.=.[ W S m u 6 q                               ",
"                              4.9.>.+._ ' $.;.3.3.;.$.' _ +.>.9.4.                              ",
"                              8.d.m.Z.N.b.c.v.v.v.v.c.b.N.Z.m.d.8.                              ",
"                              8.f.M.S.Z.Z.F.G.G.G.G.F.S.Z.S.M.f.8.                              ",
"                              q.h.M.S.Z.Z.F.G.G.G.G.F.S.Z.S.Z.h.q.                              ",
"                            R 0.j.S.S.Z.Z.F.G.G.G.G.F.S.Z.D.S.j.0.R                             ",
"                            & w :.p.b.B.Z.F.G.G.G.G.F.Z.B.b.p.:.w &                             ",
"                            * 4 a C !  .1.u.i.a.a.i.u.1. .! C a 4 *                             ",
"                            * 5 h B Z D Q [ =.2.2.&.[ Q D Z B h 5 *                             ",
"                            = e v B Z D Q { =.3.3.=.[ Q D Z B v r =                             ",
"                          $ : t m B Z D Q { =.3.2.=.[ Q D Z B m t : $                           ",
"                    . . . + > p m B Z D Q [ =.2.2.*.[ Q D Z B m p > + . . .                     ",
"                  X X X X $ 3 i M B Z D W ] *.<.<.&.] W D Z B M i 3 $ X X X X                   ",
"                  o o o O & 4 a M B Z S W ] o.<.<.o.] W S Z B M a 4 & O o o o                   ",
"                # @ @ @ # * 5 h M M N S J ) o.-.-.o.( J S N M M h 5 * # @ @ @ #                 ",
"                % % % % % = e j M M N V H / ..#.#...^ H V N M M j e = % % % % %                 ",
"              = = = = = : , t m M M m V H ~ ..@.@...~ H V m M M m t , : = = = = =               ",
"            3 > > > > > 3 5 t c N M N V H ~ | @.@.| Y H V N M N c t 5 3 > > > > > 3             ",
"            e e e e e e e e e r t p s d F G P T T P G F d s p t r e e e e e e e e e             ",
"          u u u u u u u u u u u u u u u u u u u u u u u u u u u u u u u u u u u u u u           ",
"          j j j j j j j j j j j j j j j j j j j j j j j j j j j j j j j j j j j j j j           ",
"        B B B B B B B B B B B B B B B B B B B B B B B B B B B B B B B B B B B B B B B B         ",
"        A A A A A A A A A A A A A A A A A A A A A A A A A A A A A A A A A A A A A A A A         ",
"        M M M M M M M M M M M M M M M M M M M M M M M M M M M M M M M M M M M M M M M M         "
};
