/* XPM */
static char *org_gnome_baobab_png[] = {
/* columns rows colors chars-per-pixel */
"64 64 249 2 ",
"   c None",
".  c #006600",
"X  c #037D03",
"o  c #116E08",
"O  c #2C760A",
"+  c #006A2D",
"@  c #264F26",
"#  c #6B5B1E",
"$  c #03017E",
"%  c #0C1174",
"&  c #2E1170",
"*  c #18246C",
"=  c #4E1759",
"-  c #702663",
";  c #00515E",
":  c #725152",
">  c #79696F",
",  c #A0252C",
"<  c #FF0000",
"1  c #F3050D",
"2  c #E71B09",
"3  c #FF1300",
"4  c #FA1B09",
"5  c #EE1211",
"6  c #F90915",
"7  c #D22B08",
"8  c #F12412",
"9  c #D41734",
"0  c #FF1B36",
"q  c #C83B37",
"w  c #CD2832",
"e  c #FF3F30",
"r  c #FF6600",
"t  c #F76608",
"y  c #CE4E31",
"u  c #FF4536",
"i  c #DD6323",
"p  c #93166C",
"a  c #863679",
"s  c #BD3C6F",
"d  c #AE2552",
"f  c #CA1E45",
"g  c #C22959",
"h  c #FF3265",
"j  c #B84E47",
"k  c #8C7272",
"l  c #A3676E",
"z  c #FF5E51",
"x  c #FF4F41",
"c  c #FF7267",
"v  c #008000",
"b  c #05840C",
"n  c #008811",
"m  c #15B71D",
"M  c #21A91E",
"N  c #009834",
"B  c #2F9326",
"V  c #13B02D",
"C  c #6E9200",
"Z  c #569320",
"A  c #00FF00",
"S  c #0AF706",
"D  c #0EEB0D",
"F  c #29D729",
"G  c #0CC917",
"H  c #69E801",
"J  c #10AB63",
"K  c #768B75",
"L  c #7FAF7F",
"P  c #51A75A",
"I  c #7FC97F",
"U  c #7FFF7F",
"Y  c #7FE37F",
"T  c #BCBC1A",
"R  c #AB892B",
"E  c #D5AF10",
"W  c #E7BE18",
"Q  c #D8B527",
"!  c #C9AC36",
"~  c #C69E1D",
"^  c #ABDD00",
"/  c #CCCD0A",
"(  c #FFCC00",
")  c #F2C40E",
"_  c #EBC80F",
"`  c #FFFF00",
"'  c #F3F407",
"]  c #ECF814",
"[  c #D1D52E",
"{  c #DEEE29",
"}  c #979751",
"|  c #A69759",
" . c #B29E4D",
".. c #B9B147",
"X. c #878478",
"o. c #80997F",
"O. c #92927B",
"+. c #9C9864",
"@. c #80B47F",
"#. c #A0B17F",
"$. c #FF867C",
"%. c #A7DD58",
"&. c #8DFE7F",
"*. c #B1F164",
"=. c #CACA7F",
"-. c #FFFF7F",
";. c #F5F87F",
":. c #E9E97F",
">. c #CCC541",
",. c #000080",
"<. c #170F80",
"1. c #390886",
"2. c #343480",
"3. c #003793",
"4. c #4A0D80",
"5. c #720581",
"6. c #7D3182",
"7. c #5223AD",
"8. c #5A5A80",
"9. c #7C4D84",
"0. c #7F6580",
"q. c #777B88",
"w. c #6A6D93",
"e. c #485EB7",
"r. c #4F68B0",
"t. c #7575A6",
"y. c #302FCF",
"u. c blue",
"i. c #0C08F6",
"p. c #1413F4",
"a. c #0033FF",
"s. c #083BF7",
"d. c #1636F2",
"f. c #2B2CFF",
"g. c #3939FF",
"h. c #3430F9",
"j. c #1B0BD5",
"k. c #5C21FF",
"l. c #264AD9",
"z. c #3A56C5",
"x. c #0547FA",
"c. c #1546EC",
"v. c #136FEB",
"b. c #2758E8",
"n. c #4A4AFF",
"m. c #5050FF",
"M. c #7070FF",
"N. c #5142D3",
"B. c #800080",
"V. c #800C80",
"C. c #861286",
"Z. c #822A83",
"A. c #A127B2",
"S. c #804980",
"D. c #877887",
"F. c #B07FB0",
"G. c #B1529E",
"H. c #FC4689",
"J. c #FF57AE",
"K. c #DB7893",
"L. c #8C17FF",
"P. c #9133FF",
"I. c #CC33CC",
"U. c #D107F0",
"Y. c #FF00FF",
"T. c #F807FA",
"R. c #F41AEE",
"E. c #FF33FF",
"W. c #F62BEF",
"Q. c #C00DC0",
"!. c #AA79D4",
"~. c #865CC0",
"^. c #CD70D9",
"/. c #EC41E6",
"(. c #FF7FFF",
"). c #FB7BF3",
"_. c #FF76ED",
"`. c #DB59E0",
"'. c #3A9BA3",
"]. c #19B0BC",
"[. c #2BA4AE",
"{. c #778786",
"}. c #799786",
"|. c #699497",
" X c #698496",
".X c #57B89D",
"XX c #6AA48B",
"oX c #4D96AA",
"OX c #46B5BA",
"+X c #55ACAB",
"@X c #5798A2",
"#X c #05D7B1",
"$X c #36D3B7",
"%X c #6FCB90",
"&X c #76F788",
"*X c #6BE994",
"=X c #4FCDAA",
"-X c #6DD1A2",
";X c #0DBAC8",
":X c #32B5CD",
">X c #0099FF",
",X c #0493FB",
"<X c #1695E9",
"1X c #16A2EA",
"2X c #339ECB",
"3X c #55A5DA",
"4X c #2FD2CE",
"5X c #00E3C7",
"6X c #0DD8E8",
"7X c #2FD4F6",
"8X c #18E9E9",
"9X c #00ECFF",
"0X c #09E8F7",
"qX c #18E4FA",
"wX c #00FFFF",
"eX c #08F8F7",
"rX c #00F3E6",
"tX c #2FECDB",
"yX c #5BDFD2",
"uX c #4EC8F8",
"iX c #69E0CB",
"pX c #89928D",
"aX c #979596",
"sX c #949190",
"dX c #A19B9A",
"fX c #9E9EAB",
"gX c #AF94AB",
"hX c #B0A9B1",
"jX c #9CA6AC",
"kX c #FF9991",
"lX c #FF9188",
"zX c #FFAEA4",
"xX c #CAA0AE",
"cX c #8DF784",
"vX c #95E3B4",
"bX c #B0E8A7",
"nX c #93DB95",
"mX c #FCFD81",
"MX c #EEF988",
"NX c #CFE996",
"BX c #8080FF",
"VX c #958FF0",
"CX c #B99DFF",
"ZX c #8EB0FF",
"AX c #A7A8DA",
"SX c #CA96DD",
"DX c #FD81FE",
"FX c #EB88FF",
"GX c #D094FF",
/* pixels */
"                                                    BXM.m.g.g.f.9 9 f g l sXgX                                                  ",
"                                            M.m.p.u.u.u.u.u.u.u.3 3 3 3 k 9X9X8X=XpX                                            ",
"                                      fXt.i.u.u.u.u.u.u.u.u.u.u.3 3 3 3 |.9X9X9X9X9X0X.XaX                                      ",
"                                  aX/ ` [ u.u.u.u.u.u.u.u.u.u.u.3 3 3 3 :X9X9X9X9X9X9X9X9X4XsX                                  ",
"                              hXT ` ` ` ` y.u.u.u.u.u.u.u.u.u.u.3 3 3 3 6X9X9X9X9X9X9X9X9X9X9X$XdX                              ",
"                            } ` ` ` ` ` ` +.u.u.u.u.u.u.u.u.u.u.3 3 3 8 9X9X9X9X9X9X9X9X9X9X9X9X0XXX                            ",
"                        hX/ ` ` ` ` ` ` ` ' p.u.u.u.u.u.u.u.u.u.3 3 3 y 9X9X9X9X9X9X9X9X9X9X9X9X9X9X4XhX                        ",
"                      sX' ` ` ` ` ` ` ` ` ` w.u.u.i.3.; ; + X X X o O > ZXuXqX9X9X9X9X9X9X9X9X9X9X9X9X0XsX                      ",
"                    O.` ` ` ` ` ` ` ` ` ` ` >.3.+ X v v v v v v v v v pXDXDX(.GXuXqX9X9X9X9X9X9X9X9X9X9X9X}.                    ",
"                  +.` ` ` ` ` ` ` ` ` ` { zXDXB v v v v v v v v v v v F.(.(.(.(.(.DXCX7X9X9X9X9X9X9X9X9X9X9X}.                  ",
"                O.` ` ` ` ` ` ` ` ` ] %X>XSX(.D.v v v v v v v v v v v ^.(.(.(.(.(.(.(.DXZXqX9X9X9X9X9X9X9X9X9X}.                ",
"              sX` ` ` ` ` ` ` ` ` %.1X>X>X3X(.).b v n J J #X#X5X5X#X#XH.J._.(.(.(.(.(.(.(.FXuX9X9X9X9X9X9X9X9X0XsX              ",
"            hX' ` ` ` ` ` ` ` ` %X>X>X>X>X>XSX).K 5XwXwXwXwXwXwXwXwX8X< < < 0 H.).(.(.(.(.(.DXZX9X9X9X9X9X9X9X9X0XgX            ",
"            / ` ` ` ` ` ` ` ' OX>X>X>X>X>X>XoX6 q wXwXwXwXwXwXwXwXwXOX< < < < < 6 H.).(.(.(.(.(.CX0X9X9X9X9X9X9X9X4X            ",
"          } ` ` ` ` ` ` ` ` OX>X>X>X>X>X>X>X>Xw < 4XwXwXwXwXwXwXwXwX|.< < < < < < < 6 J.(.(.(.(.(.CX0X9X9X9X9X9X9X|.s           ",
"        hX` ` ` ` ` ` ` ` OX>X>X>X>X>X>X>X>X>Xr.< k wXwXwXwXwXwXwXwXk < < < < < < < < < h ).(.(.(.(.CX9X9X9X9X6Xj 3 3 xX        ",
"        T ` ` ` ` ` ` ` %X>X>X>X>X>X>X>X>X>X>X>Xw 5 eXtX*X%.[ [ [ [ 9.p 9 < < < < < < < < 0 _.(.(.(.(.ZX9X9X+X8 3 3 3 9         ",
"      aX` ` ` ` ` ` ` %.>X>X>X>X>X>X>X>X>X>X>X>Xe.p +.( ( ( ( ( ( ( l.a.a.y.p 1 < < < < < < 0 _.(.(.(.DXuXj 3 3 3 3 3 3 K.      ",
"      T ` ` ` ` ` ` ] 1X>X>X>X>X>X>X>X>X>X>X>Xv.a.a.e.( ( ( ( ( ( ) a.a.a.a.a.d.p < < < < < < 0 ).(.(.F.O 2 3 3 3 3 3 3 u       ",
"    fX` ` ` ` ` ` ` %X>X>X>X>X>X>X>X>X>X>X,Xx.a.a.a.a.Q ( ( ( ( ( Q a.a.a.a.a.a.a.7.1 < < < < < h ).K v v # 3 3 3 3 3 3 3 kX    ",
"    t.[ ` ` ` ` ` { >X>X>X>X>X>X>X>X>X>X,Xx.a.a.a.a.a.q.( ( ( ( (  .a.a.a.a.a.a.a.a.y.1 < < < < j J v v v X 7 3 3 3 3 3 3 z     ",
"    i.u.y.+.' ` ` .X>X>X>X>X>X>X>X>X>X>Xx.a.a.a.a.a.a.c.( ( ( ( ( X.a.a.a.a.a.a.a.a.a.y.1 < 1 {.wXrXn v O M M 3 3 3 3 3 3 4     ",
"  M.u.u.u.u.p.w...>X>X>X>X>X>X>X>X>X>X2Xa.a.a.a.a.a.a.a. .( ( ( ( w.a.a.a.a.a.a.a.a.a.a.7.q 4XwXwXwXJ M A A A 7 3 3 3 3 3 3 $.  ",
"  m.u.u.u.u.u.u.6.i  X<X>X>X>X>X>X>X:XU *Xx.a.a.a.a.a.a.r.( ( ( ( z.a.a.a.a.a.a.a.a.a.a.X.*XwXwX#XV A A A A A Z 3 3 3 3 3 4 l   ",
"  p.u.u.u.u.u.u.y r r t l oX>X>X>X>X&X&.U &Xv.a.a.a.a.a.a.W ( ( ( c.a.a.a.a.a.a.a.a.l.! ( _ $XV A A A A A A A G 3 3 q k OX0X6X  ",
"  u.u.u.u.u.u.j.r r r r r r i {.<X4XU &.U U &X:Xa.a.a.a.a.X.( ( ) a.a.a.a.a.a.a.a.w.( ( ( ( H A A A A A A A F P |.6X9X9X9X9X9XxX",
"BXu.u.u.u.u.u.7.r r r r r r r r t k @.&.U U &X&X=Xx.a.a.a.l.( ( ! a.a.a.a.a.a.l.! ( ( ( ( ( / A A A D P D.I.Y.Y.VX9X9X9X9X9X9XdX",
"M.u.u.u.u.u.u.a r r r r r r r r i 5.p a K Y &XcXU &Xv.a.a.a. .( | a.a.a.a.a.w.) ( ( ( ( ( ( ( P D.I.Y.Y.Y.Y.Y.Y.^.9X9X9X9X9X9X|.",
"m.u.u.u.u.u.u.j r r r r r r r r q 5.5.B.B.B.S.pX&XU &X2Xa.a.r.( q.a.a.a.c. .( ( ( ( ( Q +.r.d.L.Y.Y.Y.Y.Y.Y.Y.Y./.9X9X9X9X9X9XoX",
"n.u.u.u.u.u.u.y r r r r r r r r d 5.B.B.B.B.B.B.6.6.@.&.=Xx.a.W r.a.a.r._ ( ( _ | w.l.a.a.a.a.k.Y.Y.Y.Y.Y.Y.Y.Y.W.9X9X9X9X9X9X[.",
"g.u.u.u.u.u.u.i r r r r r r r r p B.p B.p B.5.5.9.0.k a > *Xv.X.l.d.| ( ! X.z.a.a.a.a.a.a.a.a.h.Y.Y.Y.Y.Y.Y.Y.Y.R.9X9X9X9X9X9X].",
"f.u.u.u.u.u.u.t r r r r r r r r p B.B.B.B.p B.5.> 0.D.D.D.9.a w.l.q.e.s.a.a.a.a.a.a.a.a.a.a.a.f.Y.Y.Y.Y.Y.Y.Y.Y.T.9X9X9X9X9X9X;X",
"f.u.u.u.u.u.u.$ ,.,.,.,.,.,.,.,.5.B.B.B.B.B.B.B.0.0.0.0.0.0.9.9.: h.a.a.a.a.a.a.a.a.a.a.a.a.a.f.Y.Y.Y.Y.Y.Y.Y.Y.T.9X9X9X9X9X9X;X",
"g.u.u.u.u.u.u.% ,.,.,.,.,.,.,.,.5.B.B.B.B.B.B.B.9.0.D.D.0.5.K A.. o 9.a.a.a.a.a.a.a.a.a.a.a.a.h.Y.Y.Y.Y.Y.Y.Y.Y.R.9X9X9X9X9X9X].",
"n.u.u.u.u.u.u.& ,.,.,.,.,.,.,.,.4.B.B.B.B.5.5.B.6.0.D.Z.k o.A.C.. . . # N.a.a.a.a.a.a.a.a.a.a.k.Y.Y.Y.Y.Y.Y.Y.Y.W.9X9X9X9X9X9X[.",
"m.u.u.u.u.u.u.& ,.,.,.,.,.,.,.,.1.B.B.B.p B.5.B.V.9.a o.o.t.E.= . . . . . : d.a.a.a.a.a.a.a.a.L.Y.Y.Y.Y.Y.Y.Y.Y./.9X9X9X9X9X9XoX",
"M.u.u.u.u.u.u.& ,.,.,.,.,.,.,.,.<.B.B.B.5.5.B.B.D.@.o.K {.W.E.@ . . . . . . C e.a.a.a.a.a.a.a.U.Y.Y.Y.Y.Y.Y.Y.Y.^.9X9X9X9X9X9X|.",
"BXu.u.u.u.u.u.1.,.,.,.,.,.,.,.,.$ 5.B.B.5.5.6.@.U U @.K U.E.W.. . . . . . Z ( (  .c.a.a.a.a.f.Y.Y.Y.Y.Y.Y.Y.Y.Y.VX9X9X9X9X9X9XaX",
"  u.u.u.u.u.u.j.,.,.,.,.,.,.,.,.,.1.5.B.5.K &.&.U U U ~.E.E.Q.. . . . . C ( ( ( ( ) w.a.a.a.L.Y.Y.Y.Y.Y.Y.Y.Y.Y.7X9X9X9X9X9X9XxX",
"  p.u.u.u.u.u.u.& ,.,.,.,.,.,.,.,.,.5.S.Y U U U U U nXa.f.P.Z.o o O C E ( ( ( ( ( ( ( ! z.d.T.Y.Y.Y.Y.Y.Y.Y.Y.W.9X9X9X9X9X9X6X  ",
"  m.u.u.u.u.u.u.4.,.,.,.,.,.,.,.,.<.#.U U U &.U U cXa.a.a.a.| ( ( ( ( ( ( ( ( ( ( ( ( ( ( K T.Y.Y.Y.Y.Y.Y.Y.Y.!.9X9X9X9X9X9X'.  ",
"  M.u.u.u.u.u.u.j.$ ,.,.,.,.,.,.q.;.mX&.U U &.&.cXb.a.a.a.a.Q ( ( ( ( ( ( ( ( ( ( ( ( ( ^ A D G.Y.Y.Y.Y.Y.Y.Y.7X9X9X9X9X9X9XaX  ",
"    i.u.u.u.u.u.u.& ,.,.,.,.2.=.-.-.-.-.&.U U &.oXa.a.a.a.s.( ( ( ( ( ( ( ( ( ( ( ( ( / S A A A P R.Y.Y.Y.Y.`.9X9X9X9X9X9X0X    ",
"    m.u.u.u.u.u.i.- $ ,.<.O.-.-.-.-.-.-.;.&.&.-Xa.a.a.a.a.z.( ( ( ( ( ( ( ( ( ( ( ( / S A A A A A S D.Y.Y.Y.uX9X9X9X9X9X9X'.    ",
"    VXu.u.u.i.5.5 3 = 8.:.-.-.-.-.-.-.-.-.-.nXa.a.a.a.a.a.w.( ( ( ( ( ( ( ( ( ( ( ^ S A A A A A A A A F I.`.9X9X9X9X9X9X9XdX    ",
"      g.i.5.5 3 3 w +XMX-.-.-.-.-.-.-.-.-.-.-.hXc.a.a.a.a.| ( ( ( ( ( ( ( ( ( _ H A A A A A A A A A A A D k 0X9X9X9X9X9X;X      ",
"      !.5 3 3 4 {.0X9XyX-.-.-.-.-.-.-.-.-.-.-.-.MXjXb.a.a.Q ( ( ( ( ( ( ( E : N A A A A A A A A A A A A # 3 8 @X9X9X9X9XdX      ",
"        f 3 j 4X9X9X9X9XvX-.-.-.-.-.-.-.-.-.-.-.-.mXmXNXjXR R E E ~ R : & ,.,.% A A A A A A A A A A A B 3 3 3 3 j 6X9X].        ",
"        gX@X9X9X9X9X9X9X9XbX-.-.-.-.-.-.-.-.-.-.-.-.-.-.=.,.,.,.,.,.,.,.,.,.,.,.N A A A A A A A A A m 4 3 3 3 3 3 4 {.hX        ",
"          XX9X9X9X9X9X9X9X0XNX-.-.-.-.-.-.-.-.-.-.-.-.-.O.,.,.,.,.,.,.,.,.,.,.,.% A A A A A A A A G 2 3 3 3 3 3 3 3 c           ",
"            4X9X9X9X9X9X9X9X0XbX-.-.-.-.-.-.-.-.-.-.-.-.8.,.,.,.,.,.,.,.,.,.,.,.,.N A A A A A A m 2 3 3 3 3 3 3 3 u             ",
"            hX8X9X9X9X9X9X9X9X9XvX-.-.-.-.-.-.-.-.-.-.-.2.,.,.,.,.,.,.,.,.,.,.,.,.% A A A A A B 4 3 3 3 3 3 3 3 4               ",
"              sX0X9X9X9X9X9X9X9X9XyXMX-.-.-.-.-.-.-.-.;.,.,.,.,.,.,.,.,.,.,.,.,.,.,.N A A D # 3 3 3 3 3 3 3 3 3 kX              ",
"                }.9X9X9X9X9X9X9X9X9XqXvXmX-.-.-.-.-.-.=.,.,.,.,.,.,.,.,.,.,.,.,.,.,.% S B 7 3 3 3 3 3 3 3 3 3 lX                ",
"                  }.9X9X9X9X9X9X9X9X9X9XtXvXmX-.-.-.-.O.,.,.,.,.,.,.,.,.,.,.,.,.,.$ = 7 3 3 3 3 3 3 3 3 3 3 $.                  ",
"                    pX0X9X9X9X9X9X9X9X9X9X9X8XiXNX-.-.8.,.,.,.,.,.,.,.,.,.,.,.& , 2 3 3 3 3 3 3 3 3 3 3 3 $.                    ",
"                      sX8X9X9X9X9X9X9X9X9X9X9X9X9X8XyX: = & % $ $ % & = - , 2 3 3 3 3 3 3 3 3 3 3 3 3 4 kX                      ",
"                        hX$X9X9X9X9X9X9X9X9X9X9X9X9X0X4 3 3 3 3 3 3 3 3 3 3 3 3 3 3 3 3 3 3 3 3 3 3 e                           ",
"                            XX9X9X9X9X9X9X9X9X9X9X9X4X3 3 3 3 3 3 3 3 3 3 3 3 3 3 3 3 3 3 3 3 3 3 c                             ",
"                              gX=X9X9X9X9X9X9X9X9X9X|.3 3 3 3 3 3 3 3 3 3 3 3 3 3 3 3 3 3 3 3 u zX                              ",
"                                  sX$X9X9X9X9X9X9X9Xl 3 3 3 3 3 3 3 3 3 3 3 3 3 3 3 3 3 3 u lX                                  ",
"                                      aX.X0X9X9X9X9Xq 3 3 3 3 3 3 3 3 3 3 3 3 3 3 3 4 z kX                                      ",
"                                            pX.X8X0X4 3 3 3 3 3 3 3 3 3 3 3 3 8 z $.                                            ",
"                                                  gXG.s g f 9 9 e u x z c $.                                                    "
};
