/* XPM */
static char *org_xfce_taskmanager_png[] = {
/* columns rows colors chars-per-pixel */
"64 64 198 2 ",
"   c None",
".  c #000000",
"X  c #06060B",
"o  c #080A0C",
"O  c #0C0C13",
"+  c #0F0F19",
"@  c #0C1117",
"#  c #131315",
"$  c #13131D",
"%  c #19191D",
"&  c #0D1422",
"*  c #0D1A2D",
"=  c #06182E",
"-  c #141422",
";  c #1E1E25",
":  c #161629",
">  c #131B2B",
",  c #1C1C2B",
"<  c #121821",
"1  c #0E1B33",
"2  c #1D1D33",
"3  c #1D1D39",
"4  c #111A34",
"5  c #1C212A",
"6  c #1E2025",
"7  c #0D213B",
"8  c #152234",
"9  c #1B2534",
"0  c #16263C",
"q  c #1C2739",
"w  c #1D2A3D",
"e  c #222326",
"r  c #22222B",
"t  c #2A2A2D",
"y  c #222233",
"u  c #242935",
"i  c #2C2D33",
"p  c #25253A",
"a  c #212C3D",
"s  c #2C2C3B",
"d  c #2D323C",
"f  c #323234",
"g  c #33333B",
"h  c #3A3A3D",
"j  c #0D2647",
"k  c #1B2A42",
"l  c #1B2F4D",
"z  c #142A47",
"x  c #0E2B53",
"c  c #0E2F5A",
"v  c #122E52",
"b  c #0F315C",
"n  c #153053",
"m  c #19375D",
"M  c #193457",
"N  c #2F2F42",
"B  c #252B40",
"V  c #2C3443",
"C  c #233249",
"Z  c #273448",
"A  c #343444",
"S  c #3C3C43",
"D  c #35354A",
"F  c #3B3B4C",
"G  c #213654",
"H  c #2D3A51",
"J  c #2A3E59",
"K  c #253855",
"L  c #3D3D52",
"P  c #373750",
"I  c #123563",
"U  c #143A6B",
"Y  c #1F3D62",
"T  c #153C70",
"R  c #233F64",
"E  c #2D425F",
"W  c #35435A",
"Q  c #1B4172",
"!  c #1B457A",
"~  c #2C4464",
"^  c #2C496E",
"/  c #284367",
"(  c #354E6E",
")  c #294B76",
"_  c #3C587C",
"`  c #414145",
"'  c #44444B",
"]  c #49494F",
"[  c #424253",
"{  c #4C4C54",
"}  c #44445A",
"|  c #4B4B5B",
" . c #515157",
".. c #53535C",
"X. c #4D4D62",
"o. c #555565",
"O. c #535363",
"+. c #595964",
"@. c #565669",
"#. c #55556A",
"$. c #5A5A69",
"%. c #5A5A6D",
"&. c #5D5D6E",
"*. c #5C5C6C",
"=. c #5E5E71",
"-. c #5E5E71",
";. c #62626F",
":. c #616172",
">. c #656572",
",. c #666672",
"<. c #666675",
"1. c #636373",
"2. c #696976",
"3. c #696976",
"4. c #6B6B78",
"5. c #6E6E7A",
"6. c #6C6C79",
"7. c #71717D",
"8. c #234D84",
"9. c #27528A",
"0. c #2A548B",
"q. c #2B5387",
"w. c #3A5B86",
"e. c #2E5B94",
"r. c #315E97",
"t. c #3D608C",
"y. c #34639E",
"u. c #3F6A9E",
"i. c #205AA5",
"p. c #3B69A4",
"a. c #3C6DAB",
"s. c #3665A1",
"d. c #396DB0",
"f. c #3F73B5",
"g. c #3F76BB",
"h. c #415F85",
"j. c #43648D",
"k. c #48678D",
"l. c #486B97",
"z. c #53739A",
"x. c #737380",
"c. c #446EA3",
"v. c #4671A7",
"b. c #5879A4",
"n. c #5B7EAB",
"m. c #5477A3",
"M. c #4475B4",
"N. c #4077BD",
"B. c #4978B3",
"V. c #577FB1",
"C. c #3C7ACA",
"Z. c #417AC2",
"A. c #417DCA",
"S. c #5D87BB",
"D. c #5780B5",
"F. c #6281A8",
"G. c #648BBB",
"H. c #4C81C4",
"J. c #4580CC",
"K. c #4982C9",
"L. c #578ACA",
"P. c #4484D5",
"I. c #4385DA",
"U. c #4488DF",
"Y. c #4E89D4",
"T. c #5C93D7",
"R. c #5691DB",
"E. c #618BC0",
"W. c #608FCC",
"Q. c #6794CC",
"!. c #799DC9",
"~. c #749BCB",
"^. c #6496D6",
"/. c #6799D8",
"(. c #709DD4",
"). c #79A3D9",
"_. c #448AE4",
"`. c #458EEB",
"'. c #4C92EB",
"]. c #4A90E9",
"[. c #5596EA",
"{. c #4691F2",
"}. c #4997FC",
"|. c #569CF3",
" X c #689FE4",
".X c #59A1FC",
"XX c #6CA1E4",
"oX c #6EA4E9",
"OX c #75AAEC",
"+X c #7EAFEE",
"@X c #74A6E4",
"#X c #6AA5F1",
"$X c #73ACF3",
"%X c #7DB6FF",
"&X c #72B0FE",
"*X c #84AEE3",
"=X c #8DBEFC",
"-X c #9AC7FF",
/* pixels */
"      . . . . . . . . . . . . . . . . . . . . . . . . . . . . . . . . . . . . . . . . . . . . . . . . . . . . . . . . . .       ",
"  X . . O $ - - - - $ - - - - $ - - - - $ - - - - - - - - - - - - - - - - - - - $ - - - - $ - - - - $ - - - - $ - - $ O . . X   ",
"  . X - , s [ [ [ [ F L L L F F F F F F F F F F F F F F D D D D D D D A A A A A A A A N N s s s s s s s s s s p s p y , - X .   ",
". . - y $.7.7.7.7.5.4.5.4.2.2.,.<.,.,.,.;.1.1.-.&.&.&.&.&.@.@.@.o.o.o.O.O.X.X.| | | | | [ [ [ [ [ [ F F F F F A F D A s , - . . ",
". O , +.x.7.7.7.5.5.2.4.2.2.2.,.,.,.,.1.;.1.-.-.&.&.&.&.@.@.@.@.#.#.o.o.X.X.X.| | | } } [ [ [ [ [ L F F F F F A D A A A s , O . ",
". $ p 7.7.5.5.5.5.2.2.2.,.,.,.;.1.1.1.1.&.-.-.&.&.$.&.@.@.@.o.#.o.o.o.X.X.X.| } | | } [ [ [ [ F F F S F S A A A A A A N s , $ . ",
". - F 7.7.5.5.5.5.4.2.2.<.<.<.,.<.1.1.1.-.-.-.&.&.&.&.@.@.@.o.o.o.o.X.X.X.| k k } } } } } [ [ [ L F F F F F D A A A A A p 2 - . ",
". - F 7.7.5.5.5.4.2.,.2.<.<.<.1.1.1.1.-.-.-.&.&.&.$.@.o.o.o.O.O.O.X.| | | | 9.s.[ } } } } [ [ L L L F F F D A A A A A p , , - . ",
". - F 7.5.5.5.4.2.2.,.<.<.<.<.1.1.1.-.-.&.&.&.$.$.o.o.o.O.O.O...| | | | | [ p.M.F } } } } [ L L L L F F F A A A A N y 2 , , - . ",
". - F 5.5.2.4.2.2.2.,.<.<.<.1.1.1.-.-.&.&.*.$.+.o.O.O.O.......| | | | | { F f.Z.S [ [ [ [ [ L L L F F F D D A A N 2 2 2 , , - . ",
". $ F 5.2.2.2.,.,.,.,.,.1.1.1.1.-.-.&.&.*.*.+.+.O.O...........| { { { { { A A.P.g [ [ [ L L L L L F D D A A N s , , , , , , $ . ",
". - F 5.4.2.2.2.<.<.,.<.:.:.:.-.-.&.*.*.$.+.O.O.O.........| | { { { { { [ f I._.i ' ' ' F F F L L P D D D D N 2 2 2 2 2 , , - . ",
". - F 4.2.,.2.<.<.<.1.:.:.:.-.&.&.*.$.+.+.O.O...........| { { { { { { { ' i `.{.r F F F F F F F D D D D D N 3 2 2 , 2 2 , , - . ",
". - F 2.2.,.<.<.<.<.1.:.:.-.-.&.*.$.+.+.+.............| { { { { { { [ [ ' r {.{.5 F F F F F F F D D D D D y 2 2 2 2 2 2 , , - . ",
". - F 2.2.,.<.<.<.1.-.| &.-.&.&.+.+.+.O.............| { { { { { { [ ' ' ' 9 _.U.q S S S S S S A D D D D p 3 2 2 2 2 2 2 , , - . ",
". $ A ,.,.;.,.1.1.1.S c.S *.&.$.+.+.+...+............. .{ {  .{ { { ' { ' k P.J.z S S S S S S S A A A y 3 3 3 2 2 , , , , , $ . ",
". - D <.,.1.<.:.1.-.H -XV *.+.+.+.O............. ...{ { { { { ' ' ' ' ' S v g.g.n S S S S S A A A A s 2 2 3 3 2 2 2 2 2 , , - . ",
". - D ,.,.1.:.1.1.$.k.=XH +.+.+.O............. .{  .{ { { { { ' ' ' ' ' S I a.a.I A S S A A A g g s y 2 - - 3 2 2 2 2 2 , , - . ",
". - D ,.,.1.1.1.-.' (.oXJ +.+.+.............{ { { { { { ] ' ] ' ' ' ' ' S ! r.e.! A S A A A g g s r r 2 x J.: 2 3 2 2 2 , , - . ",
". - A 1.1.1.1.-.&.d OXn.^ O.O.............{ { { { { { ] ' ' ] ' ' ' ` ' S r.! ! r.g A g g g g g r , r , 9.|.- 2 3 3 2 2 , , - . ",
". $ A ;.1.&.-.-.$.( n.j.h.....+........... . .{ { { { { ] ] { ' ' ' ' ' h v.I I a.g S A g g g i , , r : Z.}.1 2 2 2 2 2 , , $ . ",
". - D 1.1.-.-.-.{ G.E ^ b.| ............ .{ { { ` l i ' ' ' ' ` ` ` S ` f Z.v v g.i g g g g i , , , , $ `.Z.c 2 3 3 2 2 2 2 - . ",
". - A 1.-.-.-.&.g +Xd J G.' ........{  . .{ { { t OXM ' ' ' ' ` ` S S W t P.0 k A.t g g g g r , , , , * U.! e.2 3 3 3 2 2 2 - . ",
". - A -.-.&.=.&.J Q.' Z Q.S ...... .{ { { { { ' k %X) ` ' ` ' ` S S S S r _.5 8 U.r g g g i , , , , , b f.j Z., 3 3 3 2 2 2 - . ",
". - D -.&.&.&.| b._ ..d XXg .... .{ { { { { ] ' q.].c.S ` ` ' S S h h S ; {.; ; {.; g g i r , , , , ; y.Q & `.$ 2 3 3 2 2 2 - . ",
". - A &.&.&.$.S @XV ..i $Xi ...... .{ {  .{ ] h L.! H.h ' ' ] ` ` ` ` ` 6 `.e e {.; g g r r r r r , % J.7 $ _.* 2 3 2 2 2 , - . ",
". - D &.&.&.@.Z ).S ..g oXi { ..{ { { { { ' ' r |.& [.t S S ` h h h h h 8 I.e e _.> i r ; r ; , ; , $ {.$ - N.x 2 3 3 3 2 2 - . ",
". - A &.&.&.o.h.z.| ..S /.Z { { { { { ] { ' ' M H.% [.r S S ` h h h h h z A.r e P.0 i ; ; r ; , ; ; 7 P.$ , 0.9.2 3 3 3 2 2 - . ",
". - A $.@.@.F ~.H ....' G.K { { { { ] ' ] ' S u.) f Y.k h h ` h h h h h v f.t r Z.z ; ; ; r ; ; ; ; U s.: , x N., 2 3 3 2 2 - . ",
". $ s [ [ [ u +Xg ....{ n./ { { { ' g f g f e R.w h B.m h h f t t t r t U p.i t f.c ; ; $ % $ $ $ $ a.I , , * _.+ - : : - : $ . ",
". W F.!.!.~.).G.[ ....{ j.w.{ { { a ^.T.T.T.T.[.t ' q.0.` f y.P.P.P.P.P.[.8.g f y.T e $ C.P.P.P.P.P.|.1 , , $ ].P.P.P.P.P.M.~ . ",
". > K W H H H d | ....{ ^ m.' { ' R D.a a w w r h ` m B.f 5 '.8 8 8 8 q 8 6 i t 8.0.; 7 P.* 1 1 1 1 * ; , , , > 1 1 1 1 1 4 & . ",
". - A o.o.o.o.....| { { J S.S { ' t.w.S ' S S S S ` w Y.e Q a.t f f f h f i i e I p.; U p.; ; ; ; ; , , , , , , 2 2 3 3 2 2 - . ",
". - A o.#.o.o.O.| | { { Z Q.g ' S V.R ` ' ` S S S ` 6 |.# K.n f f f f h i i t ; x f.% a.U r ; ; ; ; , , , , , 2 2 2 3 3 2 2 - . ",
". - A o.o.X.o.X.| | { [ u XXi ' g L.C S ' S S S h ` e ].= '.e f f f f f i t ; ; j A.O P.7 e ; ; ; ; r , , , , 2 2 2 3 3 2 2 - . ",
". - N o.X.X.X.| | | { { t $Xt ' t  Xu ' ' ` ` ` ` ` f H.i.a.h h h h g h f t r e 8 I.o {.$ r r r r r r r , , r 2 2 2 3 2 2 2 - . ",
". - A o.o.X.X.| | { { [ i oXu ' r #Xr S ' S S h h S f p..Xn h f f f i f r ; ; ; < `.= P.$ r ; , , , r , , , , 2 2 3 3 3 2 2 - . ",
". - N O.X.X.X.| | { { ' g /.B ' a ^.i S ` S S h h S g Q $X; g f i i t i e ; ; ; # {.I a.; r ; , , , r , , , , y 2 3 3 3 2 2 - . ",
". - N X.X.X.X.| | { { ' A E.G S G S.g S S S h h g S g 0 q.t g i i i t r ; ; ; ; % `.d.U ; r ; , , , , , , , , y 2 3 3 3 2 2 - . ",
". - N X.X.X.X.| | [ [ ' S n./ S ^ v.h S S S h g g h g i t f g i i t e r ; ; ; ; % I.`.7 ; r , , , , , , , , 2 y 2 3 3 2 2 2 - . ",
". $ s | | | | | } [ [ [ ' j.w.S l.) S S ` S S S h S h g g g h f f i r t r r r r ; A.}.$ r r r r , , r r , r 2 2 2 3 2 2 , , $ . ",
". - s | | | | } } [ [ ' F ^ m.i S.G S S S g g g g g g f i i f i r ; ; r ; ; ; ; ; f.P.$ ; r , , , , , , , 2 2 2 3 3 2 2 2 2 - . ",
". - N | | | } } } [ [ ' F K S.e ^.w A S S g g g g g f i i i f t ; ; ; r ; ; ; ; ; p.a.; , r , , , , , , , 2 2 2 3 3 2 2 2 2 - . ",
". - s | | } } } } [ [ [ F C W.# #X6 A A S g g g g g i i i i i ; ; ; ; r ; ; ; ; r m v ; , r , , , , r , 2 2 2 2 3 3 2 2 , 2 - . ",
". - s | } [ } } } [ [ [ F u  X@ XXr g g A g g g g g i i i i r ; ; ; ; r ; ; ; ; r ; ; ; , r , , , , r , 2 2 2 3 3 3 2 2 , , - . ",
". $ s [ [ [ [ } [ [ [ L F r $X8 W.i A A S g g g g g f i i r r r r r r r r r r r r r r r r r , , , r r 2 2 2 2 2 3 2 2 , , , $ . ",
". - s [ [ [ [ [ [ L L L F r oXY D.s A g g g s s i i i i r ; r ; ; ; ; r ; ; ; ; r ; , , , , , , , , y 2 2 3 3 2 2 2 2 2 , , - . ",
". - s [ [ [ [ [ L L L L F i ^.c.j.g g g g s s i i i u , ; ; r ; ; ; ; r , , , ; r , , , , , , , , 2 2 2 3 3 3 2 2 2 2 2 , , - . ",
". - s [ [ F [ L L L L L F s L. XR g g g g s s i i i , , , , r ; , , , r ; ; , , r , , , , , , , , 2 2 3 3 3 3 2 2 2 2 2 , , - . ",
". - s [ [ F L L L L L L F A n.&Xl A g s d s i i r , , , , , r ; , , , r , , , , , , , , , r , , 2 2 y 3 3 3 2 2 2 2 2 , , , - . ",
". $ p F F F F F F F F F D D j.%X9 A g g d i i r , r , , , , r r r , , r , , , , r , r r r r y 2 2 2 2 3 2 2 2 , , , , , , , $ . ",
". - s L F F F F F F D D D D ^ =X, N N s s y , , , , , , , , , , , , , , , , , , r , , , , 2 2 2 2 3 3 3 2 2 2 , 2 , 2 2 , , - . ",
". - s F F F F F D D D D D D G *Xy N N p y , , , , , , , , , , , , , , , , , , , , , , 2 2 2 2 3 3 3 2 2 2 2 2 , 2 2 2 2 , , - . ",
". - p F F F F F D D A D D A q w.p B y 2 2 2 2 2 , r , , , , , , , , , , , , , , r 2 2 2 2 2 3 3 3 3 2 2 2 2 2 , 2 2 2 2 , , - . ",
". - p F F A F D A A A A A A p 2 3 3 3 2 2 2 2 2 2 r , , , , r , , , , r , , , 2 2 2 2 2 3 3 3 3 3 2 2 2 2 2 2 , 2 2 2 2 , , - . ",
". $ p F A A A A A N p p y 2 2 2 2 3 2 3 2 2 2 2 y y y 2 2 2 2 y y y 2 2 2 y y y 2 2 2 3 3 2 2 2 2 2 , 2 , , , , , , , , , , $ . ",
". - y s s p y 2 2 2 , 2 2 2 2 2 2 2 3 3 2 3 3 3 2 2 2 2 2 2 2 2 2 2 2 2 2 2 2 2 2 3 3 3 3 2 2 2 2 2 , 2 2 2 2 , , , , , , , - . ",
". - , 2 2 , 2 2 , , , 2 2 2 2 2 2 2 2 2 2 3 3 3 3 3 3 3 2 2 2 2 2 2 2 2 3 3 3 3 3 3 3 3 2 2 2 2 2 2 , 2 2 2 2 , , , , , , , - . ",
". $ , 2 2 , 2 2 2 2 , 2 2 2 2 , 2 2 2 2 2 2 2 3 3 2 3 3 3 3 3 3 3 3 3 3 3 3 3 3 3 2 2 2 2 2 2 2 2 2 , 2 2 2 2 , 2 2 2 2 , , $ . ",
". O , 2 2 , 2 2 2 2 , 2 2 2 2 , 2 2 2 2 2 2 2 2 2 2 3 3 3 3 3 3 3 3 3 2 3 3 2 2 2 2 2 2 2 , 2 2 2 2 , 2 2 2 2 , 2 2 2 2 , , O . ",
". . - , , , , , , , : , , , , : , , , , , 2 2 2 2 2 2 2 2 2 2 2 2 2 2 2 2 2 2 2 , 2 2 , , , , , , , , , , , , : , , , , - - . . ",
"  . X - , , , , , , , , , , , , 2 2 , , , 2 2 2 2 , 2 2 2 2 2 2 2 2 2 2 2 2 2 2 , 2 2 2 , , , , , , , , , , , , 2 2 , , - X .   ",
"  X . . O $ - - - - $ - - - - $ - - - - $ - - - - - - - - - - - - - - - - - - - $ - - - - $ - - - - $ - - - - $ - - $ O . . X   ",
"      . . . . . . . . . . . . . . . . . . . . . . . . . . . . . . . . . . . . . . . . . . . . . . . . . . . . . . . . . .       "
};
