/* XPM */
static char *org_xfce_taskmanager_png_ico_3[] = {
/* columns rows colors chars-per-pixel */
"48 48 195 2 ",
"   c None",
".  c #040406",
"X  c #040408",
"o  c #06080C",
"O  c #0B0B13",
"+  c #1B191D",
"@  c #19171F",
"#  c #161625",
"$  c #1D1C24",
"%  c #171728",
"&  c #1D1D2C",
"*  c #16192D",
"=  c #1D1D33",
"-  c #1D1D38",
";  c #1C212D",
":  c #1E2736",
">  c #1B253B",
",  c #1E2A3C",
"<  c #202025",
"1  c #22222B",
"2  c #2B2B2D",
"3  c #312F2D",
"4  c #222232",
"5  c #252A35",
"6  c #2C2D34",
"7  c #24243A",
"8  c #242E3C",
"9  c #2C2C3B",
"0  c #302F3C",
"q  c #2B313C",
"w  c #333235",
"e  c #383737",
"r  c #33333B",
"t  c #36383F",
"y  c #3A393D",
"u  c #393739",
"i  c #1C2B43",
"p  c #1D2C4A",
"a  c #1C2743",
"s  c #1E304D",
"d  c #1E3253",
"f  c #1F385D",
"g  c #2C2D42",
"h  c #262640",
"j  c #302F40",
"k  c #2A3445",
"l  c #24324A",
"z  c #2D344B",
"x  c #2F394B",
"c  c #343444",
"v  c #383740",
"b  c #343943",
"n  c #3C3C43",
"m  c #35354A",
"M  c #343B4A",
"N  c #3A3B4C",
"B  c #223654",
"V  c #2C3B52",
"C  c #21395A",
"Z  c #273B59",
"A  c #323C53",
"S  c #3D3D52",
"D  c #233E63",
"F  c #223F69",
"G  c #413F44",
"H  c #35404F",
"J  c #2D415D",
"K  c #3B4454",
"L  c #35455E",
"P  c #3D495D",
"I  c #36455A",
"U  c #2E4463",
"Y  c #24426D",
"T  c #29466C",
"R  c #2D496E",
"E  c #334764",
"W  c #344965",
"Q  c #3D4C64",
"!  c #334B6A",
"~  c #384A69",
"^  c #3D516E",
"/  c #264573",
"(  c #2E4D75",
")  c #294C7A",
"_  c #264877",
"`  c #364E71",
"'  c #3C5374",
"]  c #34537B",
"[  c #3D587C",
"{  c #395477",
"}  c #424246",
"|  c #44444C",
" . c #49494E",
".. c #424354",
"X. c #4C4C54",
"o. c #454559",
"O. c #444C5D",
"+. c #4B4B5C",
"@. c #474854",
"#. c #504F5A",
"$. c #505057",
"%. c #52525C",
"&. c #434D62",
"*. c #4D4E62",
"=. c #4B5164",
"-. c #44546C",
";. c #49566E",
":. c #545463",
">. c #595966",
",. c #5A5965",
"<. c #565669",
"1. c #545469",
"2. c #595969",
"3. c #5C5C6B",
"4. c #5A5A6D",
"5. c #5D5D6E",
"6. c #5B5B6B",
"7. c #4A5974",
"8. c #435A7B",
"9. c #4C5D7A",
"0. c #465672",
"q. c #5E5E71",
"w. c #5E5E72",
"e. c #5F5F71",
"r. c #4B617F",
"t. c #61616E",
"y. c #60606D",
"u. c #626273",
"i. c #606072",
"p. c #656573",
"a. c #656572",
"s. c #666674",
"d. c #646474",
"f. c #636373",
"g. c #686875",
"h. c #6A6A77",
"j. c #696976",
"k. c #6A6A77",
"l. c #6B6B78",
"z. c #6D6D79",
"x. c #6E6E7A",
"c. c #71717D",
"v. c #264E82",
"b. c #2E5281",
"n. c #2C568C",
"m. c #2F588D",
"M. c #315383",
"N. c #355986",
"B. c #3D5B82",
"V. c #315789",
"C. c #355B8D",
"Z. c #3A5E8D",
"A. c #2E5992",
"S. c #2E5D9A",
"D. c #2B5790",
"F. c #315C93",
"G. c #315F9A",
"H. c #34619C",
"J. c #3B659B",
"K. c #3B6498",
"L. c #3261A1",
"P. c #3167AB",
"I. c #3669AA",
"U. c #346BB3",
"Y. c #3B72BA",
"T. c #415D82",
"R. c #44648C",
"E. c #4A688F",
"W. c #4A6386",
"Q. c #526787",
"!. c #53698B",
"~. c #456691",
"^. c #4C6B95",
"/. c #4A6D9B",
"(. c #516D93",
"). c #506F98",
"_. c #4F719D",
"`. c #52729C",
"'. c #57749A",
"]. c #747480",
"[. c #4972A7",
"{. c #5978A0",
"}. c #5C7DA9",
"|. c #4B77B1",
" X c #3C7BCB",
".X c #497FC4",
"XX c #5681B6",
"oX c #3F82D7",
"OX c #4C80C2",
"+X c #5284C3",
"@X c #4887D8",
"#X c #6D95C8",
"$X c #669BDE",
"%X c #6DA1E2",
"&X c #74A4E1",
/* pixels */
"    . . . . . . . . . . . . . . . . . . . . . . . . . . . . . . . . . . . . . . . . . . . .     ",
"  . O # 1 5 5 4 4 5 5 4 4 4 4 4 4 4 4 4 4 4 4 4 4 4 4 4 4 4 & & & & & & & & & & & & & & # O .   ",
". O 4 %.h.l.h.h.a.a.a.y.y.y.5.3.5.4.6.<.<.<.:.:.:.*.*.+.+.+.o.o.o.....S N N N N N m m m 9 & O . ",
". # +.].c.c.z.z.h.h.h.a.a.a.u.u.q.q.5.4.4.<.<.<.1.:.:.*.*.+.+.+.o.o.......N N N N m m m m 7 # . ",
". & a.c.z.z.z.h.h.s.a.a.u.u.u.5.5.5.4.4.<.<.,.:.:.:.*.*...A o.o.o...S S N N N N m m c c c 9 # . ",
". 4 h.c.z.z.l.h.s.s.s.a.u.u.q.q.q.4.4.6.<.,.,.:.:.*.+.+.L C.N o.o.o.S S S N N N m m c c 9 & # . ",
". 4 s.z.z.l.h.h.s.s.s.u.u.q.q.5.5.6.6.,.:.:.:.%.+.+.+.@.~ |.M o.o...S S S N N m m c g 7 = & # . ",
". 4 a.z.h.h.h.s.a.s.u.u.q.q.5.3.6.>.,.:.%.%.%.%.+.X.X.| ` .XM ....S S S S N m m m 9 4 & & & # . ",
". 1 a.h.h.h.s.a.u.u.u.q.5.5.3.>.>.:.:.%.%.%.%.X.X.X.X.} ] @XM | G N N S S m m m g 4 & & & & # . ",
". 4 u.h.s.s.s.s.u.u.q.q.5.3.>.>.:.%.%.%.%.%.X.X.@.@.@.G V.@Xx N N N N N N m m m 7 = = = = & # . ",
". 4 u.h.a.s.s.u.6.5.q.5.3.>.,.,.%.%.%.%.+.X.X.X.@.@.@.v C. XV n n n n N m m m h - = = = = & # . ",
". 1 y.a.a.a.u.:.0.=.5.3.>.,.,.%.%.%.%.%.X.X.X.@.@.| | v F.U.J v n n n m m m g - - - = = & & # . ",
". 1 5.a.u.u.u.&.#X=.>.>.,.:.%.%.%.%.%.$.X.@.@.@.| | | v F.S.U v n v b b c 9 4 = = - - = = & # . ",
". 1 5.a.u.u.6.7.&X-.:.,.:.%.%.%.%.X.X.X.@.@. . .| } } b F.v.R r b b b r 9 4 & d p = - - = & # . ",
". 1 3.u.u.u.:.!.XX7.%.:.%.%.%.%.X.X.X.X.@.|  .| } } } b F.Y ( r b r r r 4 & % J.M.* - - = & # . ",
". & 6.u.q.q.+.`.[ r.$.:.%.%.%.%.$.X.| }  . . . .| } } M F.D M.r b r r 5 & & & Y.L.& - - = & # . ",
". 1 6.u.q.4.;.(.Q Q.X.%.%.%.$.$.X. .K [ n | | | } n n V F.B V.6 r r 6 & & & > P.H.= - - - = # . ",
". 4 6.q.q.:.Q.9.&.(.@.%.%.$.X.$.@.} [ +Xv } } } n n y V V.l F.6 r r 1 & & $ C v.n.a - - - = # X ",
". 4 6.5.4.+.'.O.O.`.| %.%.X.X.X.@.n /.OXb } } } n n y U b.8 F.6 r 6 < & & $ ) f ) C = - - = # X ",
". & ,.4.6.&.{.@.O.`.| %.%.X.X.X. .H J.H.I } | } n n y R ( 8 H.6 6 < < & & % A.i F / & - - = # . ",
". 4 ,.4.:.9.Q.X.@.`.K X.X.@.@.@.} W N.] W y } n y y w ( T 5 H.5 < $ < & & & G.& s n.& - - - % X ",
". & +.:.@.'.-.#.| `.K X.@.| } } u B.W ! ] e y u w w 2 b.J 1 G.: $ $ $ $ @ i A.% > S.* = = & # . ",
"o k 7.9.9.}.@.%.| ).P @.| L ' ' ` [.M L Z.w k R R R T I.V 2 F., $ C Y Y D A.) $ & L._ Y Y F p o ",
"o V Q.!.!.;.X.%.| ^.Q  .n [.B.[ [ ~ y H K.2 N.F.( ( ( R 6 2 m.i i I.T T / T > $ & d / / / / p o ",
". & +.+.+.+.+.+.| W.-.| N /.t G y y n b K., J.q 3 2 w 2 6 < b.s D / + $ $ % $ & & & & = = & # . ",
". = *.1.:.:.+.+.| 8.8.G K /.t | n n n r K.Y C.6 w w w w 2 + ) d ) B $ $ & & & & & = - - - - % . ",
". & +.:.*.+.+.X.| -.W.n P ~.y | } n n e C.Y.E w w w e w 2 $ T F n., < < & < & & & = - - - = % . ",
". & +.*.*.+.+.X.| Q E.r ^ T.y } n n v e ] @Xq w w w w 2 < $ D v.A.& < & & & & & & = - - - = % X ",
". & +.*.*.+.+.X.| K ^.r 8.' y n v y y e J Z.2 w 6 6 2 < $ $ B P.n.$ < & & & & & & = - - - = % X ",
". & +.*.*.+.+.o.| N _.6 R.W v n v r r r 6 5 w w 6 2 < < $ $ i oX_ $ < & & & & & & = - - - = % X ",
". & o.+.+.+.o.o.@.M _.q /.H v n v y y y e w e r 6 2 2 < < < , @XC $ < < < < & & = = - - - = # . ",
". & o.+.o.o.o.o...b /.k /.b v v r e r e w 6 6 6 < $ < < $ $ : OX, $ & & & & & & = - - - - = # . ",
". & o.+.o.o.o.....b ^.V /.q b b r r r r 6 6 6 1 $ $ < < $ $ ; ) & & & & & & & = - - - - - & # . ",
". & ..o.o.o.o...G b R.! ~.9 b r r r r r 6 6 1 < $ $ < < < $ < % $ & & & & & & = - - - - = & # . ",
". & ..o.......S S b T.R.T.6 r r r r r r 6 1 < < < < 2 < < < < & ; & < & & & = = - - - = = & # . ",
". & S ......S S S c ' |.' 6 r r 0 6 6 6 1 $ & < & & < & & & & & & & & & & & = - - - - - = & # . ",
". & N ..S S S S S m ~ $XW 9 r r 9 6 5 1 & & & & & & & & $ & < & & & & & = = - - - - - = = & # . ",
". & N N N N N N N m L %XA 0 r 0 6 4 1 & & & & & & & & ; & & < & & & ; & = - - - - = = = & & # . ",
". & N N N N N N m m A #Xz j 9 9 4 & & < & & & & & & & & & & < & & ; = = - - - - - = & & & & # . ",
". & N N N N N N m m z }.g g 7 4 & & & & & & & & & & & & & & & & = = - - - - - - = = = = = & # . ",
". & N N N m m m m m g l > - - = = = & & & & & & & & & & & & = = = - - - - - - - = & & = = & # . ",
". % m m m m c 9 9 7 - = = - - - - = = = = = 4 & & = = = = = = - - - - - - = = = & & & & & & # . ",
". # 7 7 4 4 = = & = = = - - - - - - - - - - = = - - = - - - - - - - - - - = & = & & & & & & # . ",
". # & & & = = & & = = = = - - - - - - - - - - - - - - - - - - - - - = - = = & = & & & = = & # . ",
". # = = & = = & & = = & = = = = - - - - - - - - - - - - - - - - - = & = = & & = = & & & = & # . ",
". O & & & & & & & & & & & & & & = = = = - - = = = - = = = = = = & & & & & & & & & & & & & # O . ",
"  . O # # # # # # # # # # # # # # # # # % % # % % % % % % # # # # # # # # # # # # # # # # O .   ",
"    . . . . . . . . . . . . . . . X X . X X X X X . X X . . . . . . . . . . . . . . . . . .     "
};
