/* XPM */
static char *org_xfce_settings_manager_png_ico_1[] = {
/* columns rows colors chars-per-pixel */
"24 24 152 2 ",
"   c None",
".  c #353C3D",
"X  c #5B0000",
"o  c #6E0000",
"O  c #710000",
"+  c #7A0101",
"@  c #5E3E27",
"#  c #5F3F29",
"$  c #672525",
"%  c #792525",
"&  c #7B3838",
"*  c #005D00",
"=  c #0C5A0C",
"-  c #0C650C",
";  c #007000",
":  c #007E00",
">  c #0C730C",
",  c #0D7E0D",
"<  c #3C5E3C",
"1  c #347C34",
"2  c #78421D",
"3  c #736319",
"4  c #5B4739",
"5  c #5A553A",
"6  c #56523E",
"7  c #684127",
"8  c #6C452B",
"9  c #6B5E2A",
"0  c #00005C",
"q  c #3D1846",
"w  c #212159",
"e  c #000076",
"r  c #000079",
"t  c #222269",
"y  c #3B3B69",
"u  c #2E2E7B",
"i  c #31317F",
"p  c #3B3B73",
"a  c #40104C",
"s  c #440255",
"d  c #460955",
"f  c #4A035C",
"g  c #4A0A5A",
"h  c #432A4A",
"j  c #463A4A",
"k  c #453A47",
"l  c #4D2058",
"z  c #4E0063",
"x  c #500064",
"c  c #56006B",
"v  c #58006E",
"b  c #631F74",
"n  c #3F4546",
"m  c #444545",
"M  c #414748",
"N  c #4B444D",
"B  c #454A4B",
"V  c #4B4D4D",
"C  c #5F4F45",
"Z  c #595647",
"A  c #56544E",
"S  c #545042",
"D  c #4A4F50",
"F  c #4D5253",
"G  c #555555",
"H  c #585451",
"J  c #575856",
"K  c #5D5A54",
"L  c #5C5D5D",
"P  c #565A5B",
"I  c #664141",
"U  c #6A4747",
"Y  c #694949",
"T  c #634949",
"R  c #7C4040",
"E  c #724D4D",
"W  c #735454",
"Q  c #4B7F4B",
"!  c #5D635D",
"~  c #5C6C5B",
"^  c #5D735D",
"/  c #75675E",
"(  c #48486E",
")  c #555569",
"_  c #4A4977",
"`  c #474779",
"'  c #4C4C79",
"]  c #5E5E78",
"[  c #54547F",
"{  c #605F60",
"}  c #72497C",
"|  c #5F6061",
" . c #646464",
".. c #6F6262",
"X. c #666F64",
"o. c #66666B",
"O. c #686768",
"+. c #676869",
"@. c #6C6C6C",
"#. c #776C6C",
"$. c #667465",
"%. c #687567",
"&. c #677867",
"*. c #6B756B",
"=. c #797667",
"-. c #6A6A75",
";. c #706F70",
":. c #6E7070",
">. c #747474",
",. c #787777",
"<. c #777878",
"1. c #797979",
"2. c #777777",
"3. c #9D1F1F",
"4. c #951717",
"5. c #8E3939",
"6. c #94440B",
"7. c #86441A",
"8. c #AE4500",
"9. c #B84B07",
"0. c #857011",
"q. c #917A17",
"w. c #C94F00",
"e. c #C25000",
"r. c #D25500",
"t. c #C55E17",
"y. c #D6712E",
"u. c #937058",
"i. c #836262",
"p. c #198819",
"a. c #129712",
"s. c #1D931D",
"d. c #258925",
"f. c #209C20",
"g. c #2E972E",
"h. c #4C824C",
"j. c #9D8209",
"k. c #A78800",
"l. c #A58708",
"z. c #AA8A01",
"x. c #B08F0A",
"c. c #B99602",
"v. c #B59306",
"b. c #C7A100",
"n. c #CFA900",
"m. c #D5AE00",
"M. c #D7B000",
"N. c #C8A616",
"B. c #BBA95F",
"V. c #1B1B9A",
"C. c #161699",
"Z. c #545481",
/* pixels */
"  . B F F F F F F F F F F F F F F F F F F B .   ",
". P 2.1.1.1.,.,.2.2.2.2.1.1.2.2.2.2.>.>.2.>.P . ",
"B 2.1.1.2.i.5.% $ % 5.#.1.1.2.>.>.>.@.>.2.2.>.B ",
"F <.1.@.V & 4.O X + 3.I V V V V V V V V +.2.>.V ",
"F 2.1.2. .R 4.o X + 3.W @.@.+. . . . .+.>.2.>.D ",
"F 2.<.2.>...E Y T U E ;.<.1.2.2.>.>.>.>.>.>.>.V ",
"F 2.2.>.@.@.@.:.@.+.O.+.*.&.$.$.$.%.>.@.@.@.@.V ",
"D 2.2.>.+. . . . .L L { h.s.> - , g.^  .+.+.+.V ",
"D 2.2.+.m m m m m m m m 1 a.; * : f.< m L +.+.V ",
"D >.2.>.>.>.>.@.@.@.@.;.Q p.- = > d.~ O.+.+.@.V ",
"V >.;.@.@.@.@.@.@.@.>.2.>.%.$.X.~ !  .+.@.@.@.V ",
"V @.+. . .+.+.+.@.@.-.Z.' ( _ [ o. . .@.@.@.@.V ",
"V @.+. .J J J J J J ` V.e 0 r V.( V G P +.@.@.B ",
"V @.@. .V V V V V V p C.e 0 e V.y V V V  .+.+.B ",
"V @.@.@.+.@.+.+.+.@.] i t w t u )  . . . . . .B ",
"V @.+. . . . . .+.>.1.>.+.O.+. . . . .! L L  .B ",
"V @.L S 5 K @.+.@.>. .C 4 J +.+. . .V j N P  .B ",
"V  .9 x.c.B.=.O.@.K 7.9.9.7.H +. .1.} f g h L B ",
"V Z v.c.z.N.q.L O.8 w.8.8.w.7  .G l b s f f N B ",
"B 5 b.c.k.b.l.J  .2 r.8.8.y.u.| V d z s f x j B ",
"V A j.M.n.m.3 L O.4 e.r.r.t./  .J q v c v d V B ",
"M  .6 0.j.3 A  .+.L # 6.6.@ P  . .V q d a k | M ",
". F  .P J L  . . . . .J J |  . . . .L G J  .F . ",
"  . M B B B B B B B B B B B B B B B B B B n .   "
};
