/* XPM */
static char *pidgin_png_ico_3[] = {
/* columns rows colors chars-per-pixel */
"48 48 191 2 ",
"   c None",
".  c #3D751E",
"X  c #3E6D27",
"o  c #3F7424",
"O  c #3D6231",
"+  c #437D1F",
"@  c #427B23",
"#  c #42742B",
"$  c #49782B",
"%  c #47623E",
"&  c #537932",
"*  c #4B7434",
"=  c #637D32",
"-  c #443B5E",
";  c #451F7B",
":  c #422D69",
">  c #473964",
",  c #4A3B65",
"<  c #46336A",
"1  c #4B336E",
"2  c #4C396B",
"3  c #453467",
"4  c #523A6F",
"5  c #442376",
"6  c #462A72",
"7  c #482B73",
"8  c #442179",
"9  c #4A237D",
"0  c #4F2A7D",
"q  c #512B7E",
"w  c #563D75",
"e  c #3E4C46",
"r  c #3F474C",
"t  c #414E48",
"y  c #495848",
"u  c #444456",
"i  c #4A4B55",
"p  c #47425B",
"a  c #4A445E",
"s  c #524D5B",
"d  c #495250",
"f  c #535557",
"g  c #565B53",
"h  c #595D54",
"j  c #5C5A5D",
"k  c #58565B",
"l  c #4E6742",
"z  c #5B644F",
"x  c #536844",
"c  c #5B6352",
"v  c #61615A",
"b  c #656154",
"n  c #77785F",
"m  c #637147",
"M  c #4B4062",
"N  c #564B65",
"B  c #5B5163",
"V  c #6D4E78",
"C  c #634877",
"Z  c #775F7E",
"A  c #67526B",
"S  c #776971",
"D  c #787563",
"F  c #3F9607",
"G  c #3F9D00",
"H  c #3F8912",
"J  c #419707",
"K  c #429D03",
"L  c #42930C",
"P  c #46980A",
"I  c #599D09",
"U  c #428D13",
"Y  c #4C8A1B",
"T  c #468817",
"R  c #4D9513",
"E  c #599818",
"W  c #609D1C",
"Q  c #45A200",
"!  c #49A600",
"~  c #4CAA00",
"^  c #46A800",
"/  c #52AD01",
"(  c #5CA70E",
")  c #5CAA0C",
"_  c #59A505",
"`  c #55B200",
"'  c #5BB204",
"]  c #5EBA00",
"[  c #5EB10A",
"{  c #62AD0D",
"}  c #62A605",
"|  c #62BD00",
" . c #6CBA0B",
".. c #65B40A",
"X. c #63A515",
"o. c #6BAE14",
"O. c #62A118",
"+. c #6AA41B",
"@. c #6FAB1A",
"#. c #64AA11",
"$. c #7DAE18",
"%. c #6DB312",
"&. c #77B913",
"*. c #538A23",
"=. c #5A842A",
"-. c #649726",
";. c #70912B",
":. c #658439",
">. c #688832",
",. c #7C943B",
"<. c #678B27",
"1. c #75A228",
"2. c #67C100",
"3. c #6BC500",
"4. c #75C408",
"5. c #778045",
"6. c #8AB725",
"7. c #848959",
"8. c #8BA041",
"9. c #4D2381",
"0. c #4E2980",
"q. c #522585",
"w. c #512C83",
"e. c #562689",
"r. c #58268C",
"t. c #5B298C",
"y. c #572889",
"u. c #5C358C",
"i. c #583687",
"p. c #5F2A90",
"a. c #603A8F",
"s. c #642C94",
"d. c #6B2E9B",
"f. c #652C9A",
"g. c #613293",
"h. c #6E3A94",
"j. c #6F339D",
"k. c #6C3B9C",
"l. c #673995",
"z. c #70309F",
"x. c #733E99",
"c. c #6E31A1",
"v. c #7431A2",
"b. c #7933A7",
"n. c #753AA6",
"m. c #7D34AA",
"M. c #7639A8",
"N. c #7E5A8A",
"B. c #644291",
"V. c #694495",
"C. c #6C4A97",
"Z. c #6D469A",
"A. c #6D4C98",
"S. c #744797",
"D. c #77549B",
"F. c #7C6083",
"G. c #7542A4",
"H. c #7949A3",
"J. c #7B42AA",
"K. c #7A49A8",
"L. c #7C5BA4",
"P. c #7F5BA8",
"I. c #8136AE",
"U. c #8537B1",
"Y. c #8738B3",
"T. c #8A39B6",
"R. c #8E3AB9",
"E. c #923BBD",
"W. c #804AAE",
"Q. c #825AAB",
"!. c #8049B0",
"~. c #8653B1",
"^. c #8C5BB5",
"/. c #8854B3",
"(. c #8964AF",
"). c #8C65B3",
"_. c #926EB7",
"`. c #9164B8",
"'. c #966CBC",
"]. c #986DBD",
"[. c #9673BA",
"{. c #9C75BF",
"}. c #9D7CBF",
"|. c #963DC1",
" X c #9B3EC5",
".X c #9F40C8",
"XX c #A241CB",
"oX c #9D76C0",
"OX c #9D7AC0",
"+X c #A27EC3",
"@X c #A585C5",
/* pixels */
"                                  i.B.A.D.L.L.L.L.L.L.D.A.B.i.                                  ",
"                            C.L.).[.}.@X@X@X@X@X@X@X@X@X@X}.[.(.L.V.                            ",
"                      V.P._.OX+X+X+X+X+X+X+X+X+X+X+X+X+X+X+X+X+X+X}._.L.B.                      ",
"                  Z.(.[.oXoX{.{.{.{.{.{.{.{.{.{.{.{.{.{.{.{.{.{.{.{.oXoX[.Q.V.                  ",
"              a.Q.'.].'.'.'.'.'.'.'.'.'.'.'.'.'.'.'.'.'.'.'.'.'.'.'.'.'.'.].'.Q.a.              ",
"          w.Z.).`.`.`.`.`.`.`.`.`.`.`.`.`.`.`.`.`.`.`.`.`.`.`.`.`.`.`.`.`.`.`.`.^.Z.0.          ",
"        w.H.^.^.^.^.^.^.^.^.^.^.^.^.^.^.^.^.^.^.^.^.^.^.^.^.^.^.^.^.^.^.^.^.^.^.^.^.H.w.        ",
"      w.H./.~.~.~.~.~.~.~.~.~.~.~.~.~.~.~.~.~.~.~.~.~.~.~.~.~.~.~.~.~.~.~.~.~.~.~.~.~.G.w.      ",
"    0.k.J.G.k.k.k.k.k.k.G.G.J.K.W.W.W.W.W.!.W.K.W.W.W.W.W.W.W.W.W.W.W.W.W.W.W.W.W.W.W.W.k.9     ",
"    9 w.u t e e e r : 8 8 u % N u.l.n.G.H.S D 7.D.J.J.J.J.J.J.J.J.Z n F.J.J.J.J.J.J.J.J.J.g.    ",
"  8 8 5 @ G G K G G T - < L ~ ( 3 8 9 0.w W o.6.N.M.n.n.n.n.n.M.S.1.&.6.S.n.n.n.n.n.n.n.n.g.8   ",
"  8 8 5 @ G Q ` ! G Q *.< *.[ -.< ; 5 5 3 L ! %.C f.l.h.j.h.h.j.S.,.6.8.x.c.j.h.c.j.j.c.t.8 8   ",
"8 8 8 5 # G / -.* G Q ) d + Y E , : O . X F Q { , u + Y & =.<.5.V >.;.,.V m = >.b = =.s 8 8 8 8 ",
"8 8 8 8 # G ! $ t G ! ..y J Q ..a o Q ^ ^ G Q { i H Q / ~ Q / +.B I } $.A E I _ _ K ~ E 6 8 8 8 ",
"8 8 8 8 # G G J F K ' @.a L ! #.i J Q [ E K Q { y K Q ( & K ! O.p J ! X., U K ' E K ~ +.7 8 8 8 ",
"8 8 8 8 # G K ~ ` | 4.z < L ! X.d J Q R y J Q { y K Q P @ G ! O.- L ! X.> U Q { l J ~ +.7 8 8 8 ",
"8 8 8 5 @ Q ~ o.>.:.k 9 < L ^ X.a L K K J K ! { M $ / ` ^ G ! O.p J ~ X., U Q { y J ~ +.7 8 8 8 ",
"8 8 8 9 *.] 2.-.0 9.9.9.2 ( | %.1 l / ] | ' |  ., > & =.Y K / +.a ) 2.o., E |  .x ' 2.@.7 8 8 8 ",
"  8 9 0 B v v B q.q.q.q.q j v j q 0 k m c h c h 7 % K L K / 3.:.6 g g f 6 f z h 2 g c k 9 8 8   ",
"  9 0.q.y.y.r.r.y.y.y.y.y.r.r.y.y.e.e.q.9.9.9.9.9 x { .. .%.>.1 8 ; ; ; 8 ; ; ; 9 9 9 9 9 9 9   ",
"    q.e.y.t.t.p.p.p.p.p.p.p.p.t.t.t.t.t.y.y.e.q.q.q 4 N N 4 9 9 9 9 9 9 9 9 9 0 0.0.q.q.0.0     ",
"      y.t.s.s.s.s.s.s.s.s.s.s.s.s.s.s.s.s.s.p.t.t.y.y.y.q.q.q.q.q.q.q.q.q.q.e.y.y.y.y.e.q.      ",
"      y.t.s.s.d.d.d.d.d.d.d.d.d.d.d.d.d.d.d.d.s.s.s.s.s.p.t.t.t.t.t.t.t.t.t.s.s.s.p.t.y.e.      ",
"          p.s.d.d.z.v.v.v.v.v.v.v.v.v.v.v.v.v.v.z.j.d.d.d.d.d.d.d.d.d.d.d.d.d.d.s.s.t.          ",
"            s.s.d.v.v.b.b.b.b.b.b.b.b.b.b.b.b.b.b.b.b.b.b.b.b.v.v.v.v.v.v.v.d.d.s.s.            ",
"              s.s.d.v.b.b.m.m.m.m.m.m.I.I.I.I.I.I.I.I.m.m.m.m.m.m.m.b.b.v.v.d.s.s.              ",
"                  s.d.j.v.b.m.m.I.I.I.Y.Y.Y.Y.Y.Y.Y.Y.Y.Y.I.I.I.m.m.b.v.j.d.s.                  ",
"                        d.z.v.b.m.m.I.U.Y.T.T.R.R.T.T.Y.Y.I.m.m.b.v.z.d.                        ",
"                              d.z.v.b.m.I.T.R.E.E.R.T.U.m.b.v.v.d.                              ",
"                                        m.Y.E.|.|.E.Y.m.                                        ",
"                                          Y.E. X XE.I.                                          ",
"                                          T.|..X XR.m.                                          ",
"                                          R. XXX XT.                                            ",
"                                          |.XXXXE.I.                                            ",
"                                        R. XXX XT.                                              ",
"                                        |..X XR.                                                ",
"                                      R.|.|.R.                                                  ",
"                                    I.T.R.T.                                                    ",
"                                  v.m.I.                                                        ",
"                                                                                                ",
"                                                                                                ",
"                                                                                                ",
"                                                                                                ",
"                                                                                                ",
"                                                                                                ",
"                                                                                                ",
"                                                                                                ",
"                                                                                                "
};
