/* XPM */
static char *pidgin_png_ico_5[] = {
/* columns rows colors chars-per-pixel */
"72 72 198 2 ",
"   c None",
".  c #3D781C",
"X  c #3B5E2E",
"o  c #3B5A32",
"O  c #3C5439",
"+  c #3B6429",
"@  c #3D6130",
"#  c #415B3C",
"$  c #426E29",
"%  c #457D24",
"&  c #43752B",
"*  c #437328",
"=  c #436B33",
"-  c #43643A",
";  c #466938",
":  c #487232",
">  c #56793A",
",  c #527434",
"<  c #637A34",
"1  c #637E3D",
"2  c #69763F",
"3  c #657F2D",
"4  c #3E3E52",
"5  c #41395B",
"6  c #441F7A",
"7  c #412D68",
"8  c #4B3C64",
"9  c #49346C",
"0  c #493868",
"q  c #452476",
"w  c #462972",
"e  c #452179",
"r  c #4A237D",
"t  c #4D2A7C",
"y  c #4B2E73",
"u  c #512E7B",
"i  c #4D3372",
"p  c #513673",
"a  c #3D4847",
"s  c #414A4B",
"d  c #455A43",
"f  c #465B44",
"g  c #4C455D",
"h  c #4D4A58",
"j  c #4A5155",
"k  c #595B58",
"l  c #504A5F",
"z  c #645B58",
"x  c #4E6343",
"c  c #58654A",
"v  c #5E7641",
"b  c #5C6550",
"n  c #626B4B",
"m  c #627A43",
"M  c #687A48",
"N  c #737458",
"B  c #6C7150",
"V  c #4D4261",
"C  c #564867",
"Z  c #595362",
"A  c #674679",
"S  c #766475",
"D  c #3E8B0B",
"F  c #3E9B00",
"G  c #3D8411",
"H  c #3FA000",
"J  c #419D00",
"K  c #469A08",
"L  c #599D07",
"P  c #45881A",
"I  c #528A1D",
"U  c #489313",
"Y  c #58951E",
"T  c #418F09",
"R  c #659F1D",
"E  c #639614",
"W  c #42A200",
"Q  c #4AA501",
"!  c #4CAA00",
"~  c #47A800",
"^  c #53AD00",
"/  c #56A406",
"(  c #54B100",
")  c #5BB500",
"_  c #5EBA00",
"`  c #5DB409",
"'  c #5EA310",
"]  c #65A10A",
"[  c #63BC01",
"{  c #6AB40D",
"}  c #6BBA0A",
"|  c #68B907",
" . c #71BF09",
".. c #75B407",
"X. c #6BAD15",
"o. c #65A21A",
"O. c #67A619",
"+. c #74AF1A",
"@. c #76B615",
"#. c #68B214",
"$. c #488122",
"%. c #55822A",
"&. c #5C8932",
"*. c #658729",
"=. c #689927",
"-. c #64823C",
";. c #698736",
":. c #74893D",
">. c #729337",
",. c #6DA022",
"<. c #71A722",
"1. c #65C200",
"2. c #6BC400",
"3. c #72CD00",
"4. c #74C606",
"5. c #7BD200",
"6. c #76D100",
"7. c #778549",
"8. c #85B918",
"9. c #8BBB25",
"0. c #88A935",
"q. c #81A627",
"w. c #8EC518",
"e. c #96C81F",
"r. c #97C127",
"t. c #86875B",
"y. c #4E2481",
"u. c #4E2981",
"i. c #532685",
"p. c #522C84",
"a. c #552688",
"s. c #572A89",
"d. c #5B298C",
"f. c #58278E",
"g. c #553285",
"h. c #5A358B",
"j. c #5A3789",
"k. c #5F2B90",
"l. c #643B8C",
"z. c #642C94",
"x. c #682D97",
"c. c #6B2E9B",
"v. c #633394",
"b. c #6C3993",
"n. c #6E319D",
"m. c #693B98",
"M. c #70309F",
"N. c #6F31A2",
"B. c #7432A3",
"V. c #7933A6",
"C. c #763BA7",
"Z. c #7D34AA",
"A. c #783CAA",
"S. c #6F4684",
"D. c #795983",
"F. c #664492",
"G. c #694696",
"H. c #754B9B",
"J. c #77529D",
"K. c #7845A6",
"L. c #7C4BA5",
"P. c #7C44AB",
"I. c #7E4BAA",
"U. c #7649A2",
"Y. c #7B56A5",
"T. c #8136AE",
"R. c #8537B1",
"E. c #8738B3",
"W. c #8939B5",
"Q. c #8E3AB9",
"!. c #933CBD",
"~. c #816386",
"^. c #814CAE",
"/. c #825AAB",
"(. c #8551B1",
"). c #8957B3",
"_. c #8C5DB5",
"`. c #8D6BB2",
"'. c #8F61B7",
"]. c #9062B8",
"[. c #956BBB",
"{. c #986FBD",
"}. c #9069B6",
"|. c #9B73BF",
" X c #9877BA",
".X c #8160A8",
"XX c #963DC1",
"oX c #9B3EC5",
"OX c #9F40C8",
"+X c #A241CB",
"@X c #9E79C1",
"#X c #9C75C0",
"$X c #A27FC3",
"%X c #A17EC2",
"&X c #A07BC2",
"*X c #9F81C0",
"=X c #A686C5",
"-X c #A382C3",
/* pixels */
"                                                        r p.g.j.l.F.F.F.F.F.F.j.j.g.u.r                                                         ",
"                                              t j.F.J..X`. X X*X-X=X=X=X=X=X=X-X*X X X`.Y.J.F.j.t                                               ",
"                                      r g.G.Y.`. X-X=X=X=X=X=X=X=X=X=X=X=X=X=X=X=X=X=X=X=X=X-X X`.Y.F.g.e                                       ",
"                                  g.G./. X%X-X-X-X%X%X%X%X%X%X%X%X%X-X-X-X-X%X%X%X%X%X%X%X%X%X-X-X-X%X X/.F.p.                                  ",
"                            r j.Y.}.#X&X@X@X@X@X@X@X@X@X@X@X@X@X@X@X@X@X@X@X@X@X@X@X@X@X@X@X@X@X@X@X@X@X&X@X`.J.h.e                             ",
"                        e j.Y.[.#X|.|.|.|.|.|.|.|.|.|.|.|.|.|.|.|.|.|.|.|.|.|.|.|.|.|.|.|.|.|.|.|.|.|.|.|.|.|.|.}.Y.h.e                         ",
"                      g.U.}.{.{.{.{.{.{.{.{.{.{.{.{.{.{.{.{.{.{.{.{.{.{.{.{.{.{.{.{.{.{.{.{.{.{.{.{.{.{.{.{.{.{.{.{.}.H.p.                      ",
"                  r m._.[.[.[.[.[.[.[.[.[.[.[.[.[.[.[.[.[.[.[.[.[.[.[.[.[.[.[.[.[.[.[.[.[.[.[.[.[.[.[.[.[.[.[.[.[.[.[.[./.l.r                   ",
"                p.U.'.].].].].].].].].].].].].].].].].].].].].].].].].].].].].].].].].].].].].].].].].].].].].].].].].].].'.H.u.                ",
"              g.I._._._._._._._._._._._._._._._._._._._._._._._._._._._._._._._._._._._._._._._._._._._._._._._._._._._._._._.L.p.              ",
"          e h.^.).).).).).).).).).).).).).).).).).).).).).).).).).).).).).).).).).).).).).).).).).).).).).).).).).).).).).).).).I.p.e           ",
"        e s.I.(.(.(.(.(.(.(.(.(.(.(.(.(.(.(.(.(.(.(.(.(.(.(.(.(.(.(.(.(.(.(.(.(.(.(.(.(.(.(.(.(.(.(.(.(.(.(.(.(.(.(.(.(.(.(.(.(.(.L.p.e         ",
"        p.K.^.^.I.I.K.K.K.K.K.K.K.I.I.^.^.^.^.^.^.^.^.^.^.^.^.^.^.^.^.^.^.^.^.^.^.^.^.^.^.^.^.^.^.^.^.^.^.^.^.^.^.^.^.^.^.^.^.^.^.^.K.u.        ",
"      r v.m.v.s.p.u.y.r r r r r r u.p.s.h.l.m.C.P.P.P.P.P.P.P.P.P.P.L.J.L.P.P.P.P.P.P.P.P.P.P.P.P.P.P.L.P.P.P.P.P.P.P.P.P.P.P.P.P.P.P.m.r       ",
"    e e e e a X o o o o X o a 7 e e e 7 o . * h u.s.v.m.C.P.P.S M 7.>.0.~.A.P.P.P.P.P.P.P.P.P.P.P.H.N :.7.D.P.P.P.P.P.P.P.P.P.P.P.P.P.P.d.e     ",
"    e e e e & W H F H H H H F G s e e # W W ( ' 9 6 e e r p.k.M X.+.8.e.~.C.C.C.C.C.C.C.C.C.C.C.C.N +.+.8.0.H.C.C.C.C.C.C.C.C.C.C.C.C.C.v.e     ",
"  e e e e e = W F J W W J F F W K j 6 : ! ^ [  .8 6 e e e e 6 ; Q / { w.D.B.B.B.B.B.B.B.B.B.B.B.B.7.@.@.w.r.H.B.B.B.B.B.B.B.B.B.B.B.B.z.r e e   ",
"  e e e e e ; W F J ^ _ ! J F J ( Y w g Y ` { -.w e e e e e 6 - H F ^ } C f.z.n.b.b.n.b.b.n.n.N.N.D.0.9.9.t.M.B.B.N.n.b.N.N.n.n.N.c.d.e e e e   ",
"e e e e e 6 - W F Q [ =.> W F F ^ { V # $ % $.%.8 6 q a + + O * W J ^ | 8 6 5 $ P I c < *.3 ;.N b.n 2 M :.7.S.A z n < < A z < < k t e e e e e e ",
"e e e e e 6 - W F Q [ c w U F J ^ } h $.W W ( } g e @ F W W J F F J ( } 0 7 G W W W W K / / ..q.l.*.] ] ..8.S.1 ] ] ] ] E L / Q ^ , e e e e e e ",
"e e e e e 6 d H F J ! f 5 T F J )  .V & W W ( } 8 s F W W ! ! W F J ( { 0 = W J Q ) ( W F J _ O.u , / L ..8.l.c / L L / ^ W F W _ =.w e e e e e ",
"e e e e e 6 # H F F W D D J J Q 2.@.9 = W J ) { 9 $ W J ^ [ ` ! F J ( { 8 P W J ^ { &.K F J _ o.w & W J _ X.y f W J Q _ ` W F J [ ,.w e e e e e ",
"e e e e e 6 - W F F J W W W Q [ 5.-.e - W J ) X.9 P W J ^ o.l $.W J ( { g P F J ! I 7 % W J _ R w = W J ) O.w d W J ^ } c P F J [ ,.w e e e e e ",
"e e e e e e - W F F Q ( ) _ 2.5.<.9 6 - W J ) O.9 P H F W U 4 . W J ( { 8 $.W J W J G F F J _ R w = W J ) o.w d W J ^ | g $.W W [ ,.w e e e e e ",
"e e e e e e = W F J _  .@.@.<.M i r r - W J ) O.i & W F J W F W F J ^ { 0 j ! ! ! ! ~ W F J _ o.w = W J ) o.w d W J ^ | g % W W [ ,.w e e e e e ",
"e e e e e e : ! Q ^ 2.1 i p t r r r r ; ! ! [ X.y j Q W W Q ! ! Q Q ) } 0 e c O.[ [ / W F W [ o.w : ! ! [ O.w f ! Q ) } h $.! ! 2.,.w e e e e e ",
"  e e e r r %.1.2.2.6.-.y.y.y.y.y.y.y.> 1.2.3.@.i t > ) _ 1.2.[ 1.1.3.4.V 6 5 f x x - K J Q 2.=.e %.1.2.3.X.w x 1.2.3.4.h Y 1.2.5.<.w e e e e   ",
"  e e r r r k M M M M k i.i.i.i.i.i.i.Z M M M n u y.t k ;.=.-.k 1 -.-.m 9 e * J T D K W Q [ 5.v 6 j v v m c w V > m 1 m 9 k 1 m -.b e e e e e   ",
"  e r r y.y.i.i.a.a.a.a.a.a.a.a.a.a.a.a.a.a.a.i.i.i.i.y.y.r y.y.r r r r r w U ( ( ( ( ) 2.5.+.0 e e 6 6 6 6 e e 6 6 6 e e r 6 r r r r r r e e   ",
"    r y.i.i.a.s.s.s.s.d.s.s.s.s.s.s.s.s.s.s.s.s.s.a.a.a.a.i.i.i.y.y.r r r y &.#.} 2.4.4.@.;.0 e e e e e e e e e e e e r r r r r r r r r r r     ",
"      y.i.a.s.d.d.d.d.d.d.d.d.d.d.d.d.d.d.d.d.d.d.d.d.d.s.s.s.a.a.i.i.i.y.y.t p C k k C i r r r r e e r r r r r r r r r r y.y.y.y.y.y.y.r       ",
"      i.i.s.d.d.z.z.z.z.z.z.z.z.z.z.z.z.z.z.z.z.z.z.z.z.z.k.d.d.d.s.s.a.a.a.i.i.i.y.y.y.y.r r r r r r r r r y.y.y.y.i.i.i.i.a.a.a.i.i.y.y.      ",
"        i.s.d.k.z.z.z.z.z.z.z.z.z.x.x.x.z.z.z.z.z.z.z.z.z.z.z.z.z.z.z.d.d.d.s.s.s.a.a.a.a.a.i.i.i.i.i.i.i.i.i.a.a.a.a.s.s.s.s.s.s.a.i.i.        ",
"          a.d.k.z.z.x.x.x.x.x.x.x.c.c.c.x.x.x.x.x.c.c.x.x.x.x.x.x.x.z.z.z.z.z.z.k.d.d.d.d.d.s.s.s.s.s.s.s.d.d.d.d.d.d.k.z.z.d.d.d.a.a.          ",
"            s.d.z.z.x.c.c.c.n.n.n.M.B.B.M.M.M.M.M.M.M.M.M.n.n.c.c.c.c.c.x.x.x.x.x.z.z.z.z.z.z.z.z.z.z.z.z.z.z.z.z.z.z.z.z.z.z.d.d.a.            ",
"              d.z.z.x.x.c.M.B.B.B.B.B.B.B.B.B.B.B.B.B.B.B.B.B.B.B.B.B.B.B.B.M.M.n.c.c.c.c.c.c.x.x.x.x.x.x.x.c.c.c.x.x.x.z.z.z.d.s.              ",
"                d.z.z.x.c.M.B.B.B.V.V.V.V.V.V.V.V.V.V.V.V.V.V.V.V.V.V.V.V.V.V.V.V.V.B.B.B.B.B.B.B.B.B.B.B.B.B.B.M.n.c.x.z.z.k.d.                ",
"                    z.z.x.c.M.B.V.V.V.V.V.Z.Z.Z.Z.Z.Z.Z.Z.Z.Z.Z.Z.Z.Z.Z.Z.Z.Z.Z.Z.Z.Z.Z.Z.V.V.V.V.V.V.V.V.V.B.B.B.n.c.x.z.z.                    ",
"                      z.z.x.c.M.B.V.V.V.Z.Z.Z.Z.Z.T.T.T.T.T.T.T.T.T.T.T.T.T.T.T.T.T.T.T.Z.Z.Z.Z.Z.Z.Z.V.V.V.B.B.M.c.x.z.z.                      ",
"                          z.z.x.c.B.B.V.V.Z.Z.Z.T.T.T.T.R.R.R.R.R.R.R.R.R.R.R.R.R.R.R.R.T.T.T.T.Z.Z.Z.V.V.B.B.c.x.z.z.                          ",
"                              z.x.x.n.B.V.V.Z.Z.Z.T.T.T.R.R.R.E.W.W.W.W.W.W.W.W.E.E.R.R.T.T.T.Z.Z.Z.V.V.B.n.x.x.z.                              ",
"                                    x.x.c.B.B.V.V.Z.Z.Z.T.R.R.E.W.W.Q.Q.Q.Q.Q.W.W.E.R.T.T.Z.Z.V.V.B.B.c.x.x.                                    ",
"                                          x.c.n.B.B.V.V.Z.Z.T.E.W.Q.!.!.!.!.Q.W.W.R.T.Z.V.V.B.B.n.c.x.                                          ",
"                                                  c.c.M.B.V.Z.R.W.Q.!.!.!.!.!.W.R.Z.V.B.M.c.c.                                                  ",
"                                                                W.!.!.XXXX!.!.W.T.                                                              ",
"                                                                W.!.XXoXoXXXQ.R.Z.                                                              ",
"                                                                W.!.oXoXoXXXQ.T.                                                                ",
"                                                                W.XXoXOXoXXXW.Z.                                                                ",
"                                                              R.Q.oX+X+XoX!.R.Z.                                                                ",
"                                                              W.!.OX+X+XoXQ.T.                                                                  ",
"                                                              Q.oX+X+XOXXXW.Z.                                                                  ",
"                                                            W.!.OX+X+XoXQ.T.                                                                    ",
"                                                            Q.oX+X+XoX!.R.                                                                      ",
"                                                          W.!.oXOXoX!.W.                                                                        ",
"                                                        R.Q.XXoXoX!.W.                                                                          ",
"                                                        E.Q.!.!.Q.E.                                                                            ",
"                                                    V.Z.R.W.W.W.R.                                                                              ",
"                                                  c.B.Z.Z.T.T.                                                                                  ",
"                                                z.x.M.B.                                                                                        ",
"                                                                                                                                                ",
"                                                                                                                                                ",
"                                                                                                                                                ",
"                                                                                                                                                ",
"                                                                                                                                                ",
"                                                                                                                                                ",
"                                                                                                                                                ",
"                                                                                                                                                ",
"                                                                                                                                                ",
"                                                                                                                                                ",
"                                                                                                                                                ",
"                                                                                                                                                ",
"                                                                                                                                                "
};
