/* XPM */
static char *qmmp_png_ico_2[] = {
/* columns rows colors chars-per-pixel */
"32 32 216 2 ",
"   c None",
".  c #B47E31",
"X  c #B57E31",
"o  c #EB6E0D",
"O  c #E6761E",
"+  c #DD702D",
"@  c #9A755F",
"#  c #66D119",
"$  c #77E21D",
"%  c #48D42B",
"&  c #6BE020",
"*  c #76EE29",
"=  c #7AEA28",
"-  c #78EC29",
";  c #6BF228",
":  c #63E73D",
">  c #76ED32",
",  c #7FED35",
"<  c #7BE53B",
"1  c #76F33F",
"2  c #729751",
"3  c #7DBE61",
"4  c #6CD251",
"5  c #75DE50",
"6  c #6DE743",
"7  c #66EB43",
"8  c #73EA4A",
"9  c #7DF343",
"0  c #75CD60",
"q  c #84BB0F",
"w  c #8BBE17",
"e  c #ACA90C",
"r  c #B9A515",
"t  c #B3AA14",
"y  c #ADBC1F",
"u  c #90953C",
"i  c #B69731",
"p  c #BD9933",
"a  c #ACBC2B",
"s  c #B9BF27",
"d  c #B8B235",
"f  c #DF8712",
"g  c #C09A13",
"h  c #DA9315",
"j  c #E5871A",
"k  c #E2951D",
"l  c #C4B40C",
"z  c #C9A41A",
"x  c #D2A21D",
"c  c #CD9123",
"v  c #CE9A23",
"b  c #DF9324",
"n  c #DF9424",
"m  c #D19E2C",
"M  c #EC953D",
"N  c #C8A222",
"B  c #CDAA28",
"V  c #CEB126",
"C  c #DFB32E",
"Z  c #E2BB2C",
"A  c #EDB338",
"S  c #ECB239",
"D  c #8CC81A",
"F  c #A1C51C",
"G  c #8ECB20",
"H  c #82D620",
"J  c #8EDF24",
"K  c #9AD828",
"L  c #98DA2B",
"P  c #9EC83F",
"I  c #83D53D",
"U  c #88DE3F",
"Y  c #91D433",
"T  c #9AD83F",
"R  c #B1C023",
"E  c #A2D027",
"W  c #A5D826",
"Q  c #B2C334",
"!  c #B5C933",
"~  c #A0D830",
"^  c #B4D232",
"/  c #84E937",
"(  c #88EB3A",
")  c #C6C93F",
"_  c #8DBF52",
"`  c #BFB844",
"'  c #BEBC53",
"]  c #8F8266",
"[  c #9AAC63",
"{  c #97B369",
"}  c #B0A26B",
"|  c #BAB366",
" . c #B4BC75",
".. c #E19653",
"X. c #F79B5F",
"o. c #CCAB51",
"O. c #DEA051",
"+. c #DCAB56",
"@. c #D9A45D",
"#. c #C2B751",
"$. c #DBBD5A",
"%. c #E7AD4D",
"&. c #F2AF47",
"*. c #EFBC4A",
"=. c #E8A75D",
"-. c #F2AF5A",
";. c #F6A95E",
":. c #F5AD5F",
">. c #EBBF51",
",. c #E2B558",
"<. c #ECB75A",
"1. c #EABF58",
"2. c #D2966B",
"3. c #C49C70",
"4. c #D9937B",
"5. c #D59F79",
"6. c #ED986F",
"7. c #D7AB66",
"8. c #D0A568",
"9. c #D9A66C",
"0. c #DEB661",
"q. c #C5AB7F",
"w. c #CDAD7F",
"e. c #DDAA7B",
"r. c #D7B57D",
"t. c #E0AC6C",
"y. c #EEAF68",
"u. c #EDAB6F",
"i. c #F5A06B",
"p. c #EAB561",
"a. c #EDBB67",
"s. c #F6B065",
"d. c #E1A375",
"f. c #F5A376",
"g. c #F3AC76",
"h. c #F3A47D",
"j. c #E4B474",
"k. c #EDB670",
"l. c #8AD74D",
"z. c #86D948",
"x. c #98C359",
"c. c #94CC5F",
"v. c #92D257",
"b. c #90DF52",
"n. c #A6C64D",
"m. c #A8D44A",
"M. c #B1DD4C",
"N. c #ABCC55",
"B. c #B4C359",
"V. c #B3CC59",
"C. c #B4D153",
"Z. c #B9D850",
"A. c #88E343",
"S. c #85E54A",
"D. c #84EA4E",
"F. c #90E947",
"G. c #95E54B",
"H. c #A5E44C",
"J. c #DCC445",
"K. c #D3CC4D",
"L. c #C6C551",
"P. c #CCC15A",
"I. c #CDC15A",
"U. c #D4CB51",
"Y. c #D6C957",
"T. c #C2D152",
"R. c #CFD051",
"E. c #F3C25A",
"W. c #C5C36E",
"Q. c #6A748B",
"!. c #9A8A95",
"~. c #81949C",
"^. c #AB8680",
"/. c #BF9384",
"(. c #B19B8A",
"). c #AA8998",
"_. c #AA949C",
"`. c #A49A9E",
"'. c #BC9C94",
"]. c #B59A9E",
"[. c #91A38D",
"{. c #98AE99",
"}. c #A2B280",
"|. c #A9BC8C",
" X c #BFA793",
".X c #B3A998",
"XX c #A0BD9E",
"oX c #BAB293",
"OX c #BAB393",
"+X c #BFB194",
"@X c #BFB195",
"#X c #9A85A0",
"$X c #9290A2",
"%X c #909DA3",
"&X c #969EAC",
"*X c #A499A6",
"=X c #9BA7AC",
"-X c #91AFAB",
";X c #9BB2AC",
":X c #8DB5B4",
">X c #A8A4AA",
",X c #AEAAAC",
"<X c #B0A1AA",
"1X c #B2A7AF",
"2X c #B2A3B1",
"3X c #C28E89",
"4X c #CD9C8E",
"5X c #E59E80",
"6X c #D9AC88",
"7X c #DCB781",
"8X c #C8A19B",
"9X c #C6AB9B",
"0X c #C5B396",
"qX c #E1A28B",
"wX c #C7A2A1",
"eX c #BBC382",
/* pixels */
"                                                                ",
"                                                                ",
"                                                                ",
"                                                                ",
"                                                                ",
"                                                                ",
"      X.                                                X.      ",
"j.u.i.6.4.3X).#X                                #X).3X4.6.i.u.j.",
"g.f.5X4X].*X`.(.3.O.                        O.3.(.`.*X].4X5Xf.g.",
"h.qX8X<X>X.Xq.7.%.S Z                     Z S %.7.q..X>X<X8XqXh.",
"  wX2X,X+Xw.9.@.o.` ! W                 W ! ` o.@.9.w.+X,X2XwX  ",
"    1X0Xr.t.8.} [ _ I =                 = I _ [ } 8.t.r.0X1X    ",
"    9X7Xa.0.| { 3 4 : ; $             $ ; : 4 3 { | 0.a.7X9X    ",
"    6Xk.E.Y.V.v.5 7 > J F t   p p   t F J > 7 5 v.V.Y.E.k.6X    ",
"      s.1.R.M.F.1 , L R z f o + + o f z R L , 1 F.M.R.1.s.      ",
"      ;.,.L.m.A.< Y a N j O X @ @ X O j N a Y < A.m.L.,.;.      ",
"        +.#.n.l.z.P d m b i 2 Q.Q.2 i n m d P z.l.n.#.+.        ",
"          ' N.b.S.T Q B k c u ] ] u c k B Q T S.b.N.'           ",
"          P.C.G.9 ( ~ s x h g v v g h x s ~ ( 9 G.C.P.          ",
"        p.$.T.H.D.8 / L y r e l l e r y L / 8 D.H.T.$.p.        ",
"        y.<.U.Z.c.0 6 * H w q D D q w H * 6 0 c.Z.U.<.y.        ",
"      OXe.:.>.K.B.x.U - & #   % %   # & - U x.B.K.>.:.e.OX      ",
"      ;X Xd.-.*.J.) ^ E G             G E ^ ) J.*.-.d. X;X      ",
"      :X=X'.5.=.&.S C V                 V C S &.=.5.'.=X:X      ",
"      XX-X&X_./.2...M                     M ..2./._.&X-XXX      ",
"      eX|.{.%X$X!.^.                        ^.!.$X%X{.|.eX      ",
"        W. .}.[.~.                            ~.[.}. .W.        ",
"                                                                ",
"                                                                ",
"                                                                ",
"                                                                ",
"                                                                "
};
