/* XPM */
static char *qterminal_png_ico_0[] = {
/* columns rows colors chars-per-pixel */
"16 16 67 1 ",
"  c #070707",
". c #090909",
"X c #0B0B0B",
"o c #0F0F0E",
"O c #111110",
"+ c #131313",
"@ c gray8",
"# c #181817",
"$ c #171818",
"% c #181818",
"& c #1C1C1B",
"* c gray11",
"= c #1F2224",
"- c #202020",
"; c #252525",
": c #21292D",
"> c gray17",
", c gray18",
"< c #233035",
"1 c #293337",
"2 c #263339",
"3 c #25373E",
"4 c #27393F",
"5 c #2A383E",
"6 c gray23",
"7 c #3E3E3E",
"8 c #273A40",
"9 c #293A41",
"0 c #2A3C42",
"q c #2D4046",
"w c #324950",
"e c #364C53",
"r c #37515A",
"t c #3B5C67",
"y c #3C5C66",
"u c #3B5D69",
"i c #3D5F6B",
"p c #3E606B",
"a c #3E616D",
"s c #414141",
"d c #444444",
"f c #5B5B5A",
"g c #5C5B5B",
"h c #5D5C5C",
"j c #605F5E",
"k c #405962",
"l c #5A696F",
"z c #4A6771",
"x c #5B6B70",
"c c #5C6B70",
"v c #636261",
"b c #4E7886",
"n c #4D7988",
"m c #4E7D8D",
"M c #4B8091",
"N c #4E8699",
"B c #5E8592",
"V c #5B8A99",
"C c #618793",
"Z c #668B96",
"A c #678C97",
"S c #628E9C",
"D c #66919F",
"F c #68909D",
"G c #70939D",
"H c #6695A3",
"J c #6C94A1",
/* pixels */
"FGACZCCZBnnnnnnm",
"HDDSFDDJVMMMMMMN",
"blcxllllllllxclb",
"zjvvhhgffghhvvjz",
"kdds77666677sddk",
"e,>;;;;;;;;;;>,e",
"q*%@@@@@OOOOO@&q",
"4o......     .o4",
"4o       .....o3",
"8Oo.....ooooooO4",
"0@OooooooooooO@0",
"q%@OOOOOOOOOO@%q",
"w-*#@OOOOOO@%*-w",
"r;;-*%$@@@%%*;;r",
"y1592<:=**--;;;y",
"MaaaiiutttiiiipM"
};
