/* XPM */
static char *qtfm_png_ico_2[] = {
/* columns rows colors chars-per-pixel */
"32 32 2 1 ",
"  c None",
". c #BCD35F",
/* pixels */
"  ............................  ",
" .............................. ",
"............    . ..  ..     ...",
"............ .... ..  .. . .....",
"............ .. . .. ... . .....",
"............   .................",
"...       ......................",
"...        .....................",
"...                          ...",
"...                          ...",
"...                          ...",
"...                          ...",
"...                          ...",
"...                          ...",
"...                          ...",
"...                          ...",
"...                          ...",
"...                          ...",
"...                          ...",
"...                          ...",
"...                          ...",
"...                          ...",
"...                          ...",
"...                          ...",
"...                          ...",
"...                          ...",
"................................",
"................................",
"................................",
"................................",
" .............................. ",
"  ............................  "
};
