/* XPM */
static char *rofi_png_ico_3[] = {
/* columns rows colors chars-per-pixel */
"48 48 153 2 ",
"   c None",
".  c #0E0006",
"X  c #090909",
"o  c #160306",
"O  c #17010B",
"+  c #1A020C",
"@  c #1C0D0D",
"#  c #0F041E",
"$  c #150213",
"%  c #1D0111",
"&  c #11031B",
"*  c #121313",
"=  c #1B1A1B",
"-  c #270003",
";  c #280000",
":  c #24010E",
">  c #320002",
",  c #3F0103",
"<  c #240110",
"1  c #2B0112",
"2  c #24021D",
"3  c #340016",
"4  c #3D0017",
"5  c #35041C",
"6  c #3C0119",
"7  c #211313",
"8  c #281717",
"9  c #0D0421",
"0  c #0F042A",
"q  c #1F062C",
"w  c #0B0A3D",
"e  c #1E083D",
"r  c #2B052B",
"t  c #37072D",
"y  c #35082A",
"u  c #31073E",
"i  c #262727",
"p  c #252828",
"a  c #282A29",
"s  c #420101",
"d  c #4E0106",
"f  c #5B0101",
"g  c #480015",
"h  c #44011C",
"j  c #4A011E",
"k  c #540112",
"l  c #5C0110",
"z  c #53031B",
"x  c #5A0018",
"c  c #4E1617",
"v  c #471E1F",
"b  c #650004",
"n  c #6E0203",
"m  c #64010E",
"M  c #6B0109",
"N  c #760000",
"B  c #7D0105",
"V  c #650112",
"C  c #680111",
"Z  c #65041F",
"A  c #6F001E",
"S  c #770017",
"D  c #780017",
"F  c #75001A",
"G  c #78001A",
"H  c #430226",
"J  c #4E0120",
"K  c #4B0924",
"L  c #4A052A",
"P  c #520122",
"I  c #5C0125",
"U  c #56032A",
"Y  c #58022F",
"T  c #590A2B",
"R  c #441025",
"E  c #4B0437",
"W  c #470C33",
"Q  c #470A3F",
"!  c #5A0333",
"~  c #5A0831",
"^  c #620023",
"/  c #6B0023",
"(  c #64012A",
")  c #6B012C",
"_  c #72012D",
"`  c #6F0F37",
"'  c #67033D",
"]  c #740131",
"[  c #7B0133",
"{  c #77023C",
"}  c #71143B",
"|  c #0C0C43",
" . c #0D0D49",
".. c #110F41",
"X. c #121147",
"o. c #1B0D57",
"O. c #180E5C",
"+. c #111253",
"@. c #181551",
"#. c #17175F",
"$. c #230B4E",
"%. c #3F0743",
"&. c #3D0843",
"*. c #330C4B",
"=. c #371442",
"-. c #230E5F",
";. c #290C59",
":. c #320A50",
">. c #3A0D55",
",. c #310D5E",
"<. c #3A0E5B",
"1. c #1B1A63",
"2. c #1C116D",
"3. c #1C1C6B",
"4. c #14137A",
"5. c #240F62",
"6. c #310E65",
"7. c #3B0F60",
"8. c #251275",
"9. c #2B1171",
"0. c #211279",
"q. c #28137C",
"w. c #20227B",
"e. c #450747",
"r. c #480643",
"t. c #400A43",
"y. c #570540",
"u. c #56164D",
"i. c #430950",
"p. c #8B0001",
"a. c #940001",
"s. c #AC0101",
"d. c #830136",
"f. c #86013A",
"g. c #8A0039",
"h. c #91013C",
"j. c #98003F",
"k. c #920140",
"l. c #9C0041",
"z. c #A70045",
"x. c #AF0049",
"c. c #B6004C",
"v. c #B8004C",
"b. c #BB004E",
"n. c #BF0050",
"m. c #C20051",
"M. c #C40053",
"N. c #C50054",
"B. c #C60054",
"V. c #C70054",
"C. c #C70055",
"Z. c #17168E",
"A. c #201481",
/* pixels */
"                                                                                                ",
"                                                                                                ",
"                                                                                                ",
"                                                                                                ",
"                                                                                                ",
"                                                                                                ",
"                                                                                                ",
"                                                                                                ",
"                                                                                                ",
"                                                                                                ",
"                                                                                                ",
"                                                                                                ",
"                                                                                                ",
"                                                                                                ",
"                                                                                                ",
"      7.q.<.~                                                                                   ",
"      Z 9.Z.A.<.I                                                                               ",
"      / ! i.6.0.8.Q M                                                                           ",
"        ^ ^ I ! r.,.t.m                                                                         ",
"        I I I U U U E P b                                                                       ",
"        x L ;.-.;.:.%.E I / ] ] [ [ d.d.f.g.g.g.g.g.g.f.d.d.[ [ ] R                             ",
"        L &.e.y.' { f.k.l.z.x.c.b.n.m.M.B.B.B.B.B.B.B.B.M.m.n.b.b.} a i i c a.p.B =.            ",
"    P ( ] [ g.h.j.l.l.l.l.l.l.l.l.l.l.l.l.l.l.l.l.l.l.l.l.l.l.l.l.` i i p v s.s.s.u.w.3.1.@.    ",
"6 h J ^ A F S S S S D D G _ ] [ [ d.d.g.g.g.h.h.h.h.g.g.g.d.d.[ [ T = = = 8 n N N W 3.1.#.+.X...",
"3 3 6 g k k l V m m C C V ^ ( ( ) ) ) _ ] ] [ [ [ [ ] ] _ ) ) ) ( K = = = 7 f f f y +.+. . .| w ",
"    1 1 1 3 3 3 6 6 6 6 h h j j j j j J J J J P P J J J J j j j j 5 * * * @ s s , q  .| w w     ",
"        O $ $ % % % < : : : < 1 1 1 1 1 1 1 1 1 1 1 1 1 1 1 1 1 1 + X X X o ; ; - 0             ",
"        : + # 9 # & $ $ + o . . . . . . . . . . . . . . . . . . . .                             ",
"        1 1 1 1 1 1 2 1 >                                                                       ",
"        6 4 6 5 r e r ,                                                                         ",
"      z H u $.O.o.t d                                                                           ",
"      z 5.4.2.*.z                                                                               ",
"      <.8.>.U                                                                                   ",
"                                                                                                ",
"                                                                                                ",
"                                                                                                ",
"                                                                                                ",
"                                                                                                ",
"                                                                                                ",
"                                                                                                ",
"                                                                                                ",
"                                                                                                ",
"                                                                                                ",
"                                                                                                ",
"                                                                                                ",
"                                                                                                ",
"                                                                                                ",
"                                                                                                "
};
