/* XPM */
static char *sc_im_png[] = {
/* columns rows colors chars-per-pixel */
"64 64 95 2 ",
"   c black",
".  c #040404",
"X  c gray3",
"o  c #080D09",
"O  c gray5",
"+  c gray7",
"@  c #151515",
"#  c #111B12",
"$  c #1B1B1B",
"%  c #1E1E1E",
"&  c #172519",
"*  c #19281B",
"=  c #1E3021",
"-  c #202020",
";  c gray15",
":  c #282828",
">  c #2D2D2D",
",  c #213524",
"<  c #253C29",
"1  c #323232",
"2  c gray21",
"3  c gray22",
"4  c #3E3E3E",
"5  c #29422D",
"6  c #2C4730",
"7  c #2F4B33",
"8  c #325036",
"9  c #345338",
"0  c #355439",
"q  c #395B3E",
"w  c #3A5D3F",
"e  c #3B5E40",
"r  c #3D6343",
"t  c #3E6444",
"y  c gray26",
"u  c gray28",
"i  c #4B4B4B",
"p  c gray30",
"a  c #535353",
"s  c gray33",
"d  c #5B5B5B",
"f  c #5F5F5F",
"g  c #416947",
"h  c #436B49",
"j  c #436C49",
"k  c #456F4B",
"l  c #46704C",
"z  c #48734E",
"x  c #48744F",
"c  c #497650",
"v  c #4C7B53",
"b  c #4C7B54",
"n  c #4D7C54",
"m  c #606060",
"M  c DimGray",
"N  c #717171",
"B  c #508157",
"V  c #518258",
"C  c #53875B",
"Z  c #54865B",
"A  c #54875C",
"S  c #55895D",
"D  c #578C5F",
"F  c #588C5F",
"G  c #598F61",
"H  c #5A9263",
"J  c #5B9364",
"K  c #5C9364",
"L  c #5C9565",
"P  c #5F9867",
"I  c #5F9968",
"U  c #609A69",
"Y  c #619C6A",
"T  c #639E6C",
"R  c #62A06C",
"E  c #65A26E",
"W  c #66A46F",
"Q  c #68A771",
"!  c #6AAA73",
"~  c #6AAB74",
"^  c #6BAC75",
"/  c #6CAD76",
"(  c #6DB077",
")  c #6EB078",
"_  c #70B37A",
"`  c #71B67B",
"'  c #72B77C",
"]  c #73B87D",
"[  c #74BA7E",
"{  c #75BC80",
"}  c #78C082",
"|  c #7AC384",
" . c #7BC585",
".. c #7CC787",
"X. c gray60",
/* pixels */
"H r r r r r r r r r r r r r r r r r r r r r r r r r r r r r r r r r r r r r r r r r r r r r r r r r r r r r r r r r r r r r r H ",
"r 4 1 1 4   y 3 : 3 $   2 a : :           @ i + 1                                               % . O                 %       r ",
"r y 2 d   ; a u p M y 3 > d 1 N i X.m X.M m 3 @ s                                               d 2 2 y 2 2 i p 3 % 1 4       r ",
"r 2 p p 4 O d i y i 4 : y u i > u m ; f - s > + a                                         > >   3 a p 3 a @ 4 3 3 a d 4 O : - r ",
"r                       ;                     . -                                               .     X     . . . X . .       r ",
"C G G G G G G G G G G G G G G G G G G G G G G G G G G G G G G G G G G G G G G G G G G G G G G G G G G G G G G G G G G G G G G L ",
"L ............................H k ................................q v l ................................) g n { ..............~ ",
"L ............................l l | ..............................e l n ................................z { ..................~ ",
"L ..........................' 0 h S ..............................k ..e ................................C ! ..................~ ",
"L ..........................Y { ..H ..............................n x P ..................................n c } ..............~ ",
"H T T T T T b b b b b b b b b b b b b b b b b b L C b b b b b b b b b b b b b b b b b b Y b b b b b b b b b b b b b b b b b b ! ",
"L G A ....L                                     7 #                                     t                                     L ",
"L H S ....L                                     7 #                                     t                                     L ",
"L } [ ....T 8 8 8 8 8 8 8 8 8 8 8 8 8 8 8 8 8 8 n e 8 8 8 8 8 8 8 8 8 8 8 8 8 8 8 8 8 8 D 8 8 8 8 8 8 8 8 8 8 8 8 8 8 8 8 8 8 W ",
"L / ` ....I # # # # # # # # # # # # # # # # # # q = # # # # # # # # # # # # # # # # # # l # # # # # # # # # # # # # # # # # # U ",
"L ) E ....L                                     7 #                                     t                                     L ",
"L [ ^ ....L                                     7 #                                     t                                     L ",
"L ........E h h h h h h h h h h h h h h h h h h G c h h h h h h h h h h h h h h h h h h I h h h h h h h h h h h h h h h h h h ! ",
"L / H ....L                                     7 #                                     t                                     L ",
"L / E ....L                                     7 #                                     t                                     L ",
"L ! Q ....Y , , , , , , , , , , , , , , , , , , j 6 , , , , , , , , , , , , , , , , , , n , , , , , , , , , , , , , , , , , , T ",
"L / ^ ....Y , , , , , , , , , , , , , , , , , , j 6 , , , , , , , , , , , , , , , , , , n , , , , , , , , , , , , , , , , , , T ",
"L ' V ....L                                     7 #                                     t                                     L ",
"L ! S ....L                                     7 #                                     t                                     L ",
"L ........E h h h h h h h h h h h h h h h h h h G c h h h h h h h h h h h h h h h h h h I h h h h h h h h h h h h h h h h h h ! ",
"L  .Z ....L                                     7 #                                     t                                     L ",
"L Z h ....L                                     7 #                                     t                                     L ",
"L ..) ....I # # # # # # # # # # # # # # # # # # q = # # # # # # # # # # # # # # # # # # l # # # # # # # # # # # # # # # # # # U ",
"L _ ( ....Y 5 5 5 5 5 5 5 5 5 5 5 5 5 5 5 5 5 5 x 9 5 5 5 5 5 5 5 5 5 5 5 5 5 5 5 5 5 5 C 5 5 5 5 5 5 5 5 5 5 5 5 5 5 5 5 5 5 E ",
"L D E ....L                                     7 #                                     t                                     L ",
"L ! G ....L                                     7 #                                     t                                     L ",
"L ........E h h h h h h h h h h h h h h h h h h G c h h h h h h h h h h h h h h h h h h I h h h h h h h h h h h h h h h h h h ! ",
"L ! ! ....L                                     7 #                                     t                                     L ",
"L C J ....L                                     7 #                                     t                                     L ",
"L ! E ....L                                     7 #                                     t                                     L ",
"L { { ....E w w w w w w w w w w w w w w w w w w C h w w w w w w w w w w w w w w w w w w H w w w w w w w w w w w w w w w w w w Q ",
"L / v ....L                                     7 #                                     t                                     L ",
"L ` E ....L                                     7 #                                     t                                     L ",
"L | ......E w w w w w w w w w w w w w w w w w w C h w w w w w w w w w w w w w w w w w w H w w w w w w w w w w w w w w w w w w Q ",
"L ! E ....L o o o o o o o o o o o o o o o o o o 9 & o o o o o o o o o o o o o o o o o o h o o o o o o o o o o o o o o o o o o P ",
"L F B ....L                                     7 #                                     t                                     L ",
"L E U ....L                                     7 #                                     t                                     L ",
"L ........E w w w w w w w w w w w w w w w w w w C h w w w w w w w w w w w w w w w w w w H w w w w w w w w w w w w w w w w w w Q ",
"L H G ....L                                     7 #                                     t                                     L ",
"L / n ....L                                     7 #                                     t                                     L ",
"L ) [ ....Y 5 5 5 5 5 5 5 5 5 5 5 5 5 5 5 5 5 5 x 9 5 5 5 5 5 5 5 5 5 5 5 5 5 5 5 5 5 5 C 5 5 5 5 5 5 5 5 5 5 5 5 5 5 5 5 5 5 E ",
"L _ ] U [ U * * * * * * * * * * * * * * * * * * t < * * * * * * * * * * * * * * * * * * c * * * * * * * * * * * * * * * * * * Y ",
"L ^ E H K L                                     7 #                                     t                                     L ",
"L [ ! A W L                                     7 #                                     t                                     L ",
"L ........E w w w w w w w w w w w w w w w w w w C h w w w w w w w w w w w w w w w w w w H w w w w w w w w w w w w w w w w w w Q ",
"L E ! C ..L                                     7 #                                     t                                     L ",
"L ' E K ..L                                     7 #                                     t                                     L ",
"L } [ ` ..U * * * * * * * * * * * * * * * * * * t < * * * * * * * * * * * * * * * * * * c * * * * * * * * * * * * * * * * * * Y ",
"L { } E | Y 5 5 5 5 5 5 5 5 5 5 5 5 5 5 5 5 5 5 x 9 5 5 5 5 5 5 5 5 5 5 5 5 5 5 5 5 5 5 C 5 5 5 5 5 5 5 5 5 5 5 5 5 5 5 5 5 5 E ",
"L E E ) Y L                                     7 #                                     t                                     L ",
"L ] W g ) L                                     7 #                                     t                                     L ",
"L ........E h h h h h h h h h h h h h h h h h h G c h h h h h h h h h h h h h h h h h h I h h h h h h h h h h h h h h h h h h ! ",
"L E / U ! L                                     7 #                                     t                                     L ",
"L ' E Y Y L                                     7 #                                     t                                     L ",
"L } ` P ) L o o o o o o o o o o o o o o o o o o 9 & o o o o o o o o o o o o o o o o o o h o o o o o o o o o o o o o o o o o o P ",
"L  .|  .} E w w w w w w w w w w w w w w w w w w C h w w w w w w w w w w w w w w w w w w H w w w w w w w w w w w w w w w w w w Q ",
"L Y E F E L                                     7 #                                     t                                     L ",
"L ' Y Z K L                                     7 #                                     t                                     L ",
"R L J L J ! P P P P P P P P P P P P P P P P P P ! Y P P P P P P P P P P P P P P P P P P ( P P P P P P P P P P P P P P P P P P ' "
};
