/* XPM */
static char *swift_png_xpm[] = {
/* columns rows colors chars-per-pixel */
"128 128 88 1 ",
"  c None",
". c #224F6F",
"X c #33576F",
"o c #3E5B6E",
"O c #234F70",
"+ c #235071",
"@ c #2A5472",
"# c #26567A",
"$ c #295779",
"% c #27597E",
"& c #29597C",
"* c #4B606D",
"= c #7F7567",
"- c #757168",
"; c #9E8164",
": c #AA8662",
"> c #E79E5C",
", c #F2A35A",
"< c #275A80",
"1 c #295D83",
"2 c #2B6087",
"3 c #2B638B",
"4 c #316287",
"5 c #35678B",
"6 c #37688B",
"7 c #38688C",
"8 c #2D6791",
"9 c #2E6A95",
"0 c #2F6C99",
"q c #326A94",
"w c #386C92",
"e c #316E9B",
"r c #32719F",
"t c #3374A3",
"y c #3A77A3",
"u c #3C78A4",
"i c #3477A8",
"p c #367AAC",
"a c #3D7EAD",
"s c #377EB1",
"d c #3A7EB1",
"f c #4078A2",
"g c #3B81B5",
"h c #3B85BC",
"j c #4381AF",
"k c #4281B0",
"l c #4387B9",
"z c #4389BD",
"x c #3D8BC3",
"c c #3E8EC9",
"v c #3F91CC",
"b c #428DC4",
"n c #498FC1",
"m c #418FC9",
"M c #4392CC",
"N c #4994CB",
"B c #4C97CF",
"V c #4194D1",
"C c #4797D1",
"Z c #4397D4",
"A c #4597D4",
"S c #4897D0",
"D c #4398D6",
"F c #4499D7",
"G c #4999D3",
"H c #4C99D2",
"J c #4B9BD5",
"K c #4B9BD7",
"L c #4E9DD7",
"P c #459BDB",
"I c #469CDB",
"U c #479FDF",
"Y c #4B9CD8",
"T c #4C9EDA",
"R c #489FDF",
"E c #509FD9",
"W c #4FA0DB",
"Q c #49A0DF",
"! c #4FA2DF",
"~ c #53A1DB",
"^ c #50A2DE",
"/ c #51A3DF",
"( c #489FE0",
") c #49A0E0",
"_ c #4CA2E1",
"` c #50A3E0",
"' c #52A4E0",
"] c #5AAAE6",
/* pixels */
"                                                       '`!RTKFAZVCCGGPTW^                                                       ",
"                                                  `_RAmhsie8211<%%<1138etphmML                                                  ",
"                                              `!PMgi81#+O....OOOOOOOO....++#18tgmG                                              ",
"                                           _QZht2#+..O++++++++++++++++++++++O..+#2tgM                                           ",
"                                        ^)Fhe1#.O++++++++++++++++++++++++++++++++OO#1egN                                        ",
"                                      _Rci1+.O++++++++++++++++++++++++++++++++++++++OO#1tz                                      ",
"                                    _Ih9#OO++++++++++++++++++++++++++++++++++++++++++++OO#qd                                    ",
"                                  _Ph3#.++++++++++++++++++++++++++++++++++++++++++++++++++O#3a                                  ",
"                                !Uh3#.+++++++++++++++++                  +++++++++++++++++++O#3a                                ",
"                              ^Qc9#.++++++++++++++                            ++++++++++++++++O#qj                              ",
"                             _Di#.+++++++++++++                                  +++++++++++++++O&e                             ",
"                           ^Rh2+O+++++++++++                                        +++++++++++++++1u                           ",
"                          _Fi#O+++++++++++                                            +++++++++++++O#q                          ",
"                         )c3+++++++++++                                                  +++++++++++++1                         ",
"                       ^Ug%O+++++++++                                                      ++++++++++++&w                       ",
"                      !Pi#O+++++++++                                                        ++++++++++++#4                      ",
"                     _D0++++++++++                                                            ++++++++++++1                     ",
"                    _V8++++++++++                                                              ++++++++++++&                    ",
"                   _M2O++++++++                                                                  +++++++++++$                   ",
"                  _v2O++++++++                                                                    ++++++++++++                  ",
"                 _M2O+++++++                                                                        +++++++++++                 ",
"                _V2O+++++++                                                                          +++++++++++                ",
"               !D8O+++++++                                                                            +++++++++++               ",
"              ^P0++++++++                                                                              +++++++++++              ",
"              Ui++++++++                                                                                ++++++++++              ",
"             )g#+++++++                                                                                  #+++++++++             ",
"            _c%O++++++                                                                                    #+++++++++            ",
"           ^D3O++++++                                                                                      #+++++++++           ",
"           Ri+++++++                                                                                       7#++++++++           ",
"          _h#+++++++                      ~YCKE!                                                            5+++++++++          ",
"         ^D2O++++++                        g389rtphbMSKT                                                     4+++++++++         ",
"         )i+++++++                              .++##139tshmSL                                                1O+++++++         ",
"        _c#O++++++                                 +OO...+##18tszML                                           f#++++++++        ",
"        U9.++++++                                     ++++++O..+#<3tgbH                                        q++++++++        ",
"       _h#++++++                                         ++++++++O..+#2rgM                                      2O+++++++       ",
"       P3.++++++                                           +++++++++++O.+<qpb                                   a#+++++++       ",
"      _h#++++++                                              ++++++++++++O.+<eg                                  q++++++++      ",
"      I3.+++++                                                 +++++++++++++OO#3u                                l<O++++++      ",
"     _h#++++++                                                   ++++++++++++++O+2u                               t++++++++     ",
"     R9.+++++                                                     +++++++++++++++O#3                              n1O++++++     ",
"    ^c#++++++                                                      #++++++++++++++++$                              y++++++++    ",
"    )iO++++++                                                       &O++++++++++++++++                             n1O++++++    ",
"    F1O+++++                                                        u#+++++++++++++++++                             t+++++++    ",
"   _h+++++++                                                        B3O+++++++++++++++++                            z%+++++++   ",
"   Qe.+++++                                                          pO+++++++++++++++++                             qO++++++   ",
"   Z1O+++++                                                          g++++++++++++++++++                             g#++++++   ",
"  `h+++++++                                                         !g++++++++++++++++++                             N1O++++++  ",
"  !t.+++++                                                          )iO+++++++++++++++++                              eO++++++  ",
"  P2O+++++                                                          P2O+++++++++++++++++                              g#++++++  ",
"  M#++++++                                                         )g++++++++++++++++++                               M<O+++++  ",
" `g++++++                                                         !V1O+++++++++++++++++                               L9.++++++ ",
" !t.+++++                                                        ^I0O++++++++++++++++++                                pO++++++ ",
" Y8.+++++                                                       ^Ui++++++++++++++++++OO3sxM                            h#++++++ ",
" A1O+++++                                                      ^Ui++++++++++++++++++@*XO+#2tl                          M%O+++++ ",
" m#++++++                                                     !Pt++++++++++++++++++O=,:@++OO#8a                        K3.+++++ ",
"^h++++++                                                     _Z0+++++++++++++++++++O->;++++++O#3a                      We.++++++",
"`sO+++++                                                    )c2O+++++++++++++++++++++o@++++++++O#q                      pO++++++",
"!i.+++++                                                  !Us%O++++++++++++++++++++++O++++++++++++&                     g+++++++",
"Re.+++++                                                _QM9+O+++++++++++++++++++++++++++++                             b#++++++",
"T8.+++++                                             _RVge%O+++++++++++++++++++++++++                                   m#++++++",
"K2.+++++                                          _RMg9%+.O+++++++++++++++++++++++++#                                   M%O+++++",
"F1O+++++                                      ^QIcp8%+.O+++++++++++++++++++++++++++++2t                                 G1O+++++",
"A1O+++++                                   _QFxi3#+.+++++++++++++++++++++++++++++++++O#2r                               K2O+++++",
"Z<O+++++                                _RVht1#O.++++++++++++++++++++++++++++++++++++++O#3                              K2O+++++",
"V%O+++++                            `_IMs9%+.O++++++++++++++++++++++++++++++++++++++++++++#                             K2O+++++",
"C<O+++++                         !RAxt3#+.O+++++++++++++++++++++++++++++++++++++++++++++++++                            K2O+++++",
"C<O+++++                     ~RPMg01#....++++++++++++++   ++++++++++++++++++++++++++++++++++                            K2O+++++",
"S1O+++++                     !ct       32#+++++++++              ++++++++++++++++++++++++++++                           F1O+++++",
"G1O+++++                             ]Ih0#+++++                     +++++++++++++++++++++++++                           A1O+++++",
"P3.+++++                           'Rxe#+++                           +++++++++++++++++++++++                           M%O+++++",
"T8.+++++                         !Fh9#.                                 +++++++++++++++++++++                           M#++++++",
"We.+++++                       ^Px0                                      #+++++++++++++++++++                           x#++++++",
"^t.+++++                                                                 y#++++++++++++++++++                          'g+++++++",
" p+++++++                                                                 t+++++++++++++++++                           !pO+++++ ",
" h+++++++                                                                 b#++++++++++++++++                           Qe.+++++ ",
" m#++++++                                                                 K2O++++++++++++++                            Y3.+++++ ",
" B1O+++++                                                                 Y3.++++++++++++++                            V%O+++++ ",
" L8.+++++                                                                 F2O+++++++++++++                            `x#++++++ ",
"  tO++++++                                                                M#+++++++++++++                             _pO+++++  ",
"  g+++++++                                                               _g+++++++++++++                              R9.+++++  ",
"  b%++++++                                                               R0.+++++++++++                               V%O+++++  ",
"  H3.++++++                                                             !c#+++++++++++                               _h+++++++  ",
"   tO++++++                                                             RtO++++++++++                                Qe.+++++   ",
"   h#++++++                                                            _c#++++++++++                                 Z1O+++++   ",
"   N1O++++++                                                           P8O+++++++++                                 _h+++++++   ",
"    eO++++++                                                          )s++++++++++                                  R9.+++++    ",
"    g#+++++++                                                        _c%O+++++++                                   ^M#++++++    ",
"    N2O++++++                                                       !Z2O+++++++                                    )iO++++++    ",
"     t+++++++                                                      ^Ue+++++++                                     ^V<O+++++     ",
"     z%+++++++                                                     Up+++++++                                      )p+++++++     ",
"      qO++++++                                                    )g#+++++                                       ^Z1O+++++      ",
"      g#+++++++                                                  )h#O++++                                        )p+++++++      ",
"       3O+++++++                                                )x%O+++                                         ^M<O+++++       ",
"       a#+++++++                                               )c<O++                                           RtO++++++       ",
"        3O+++++++                                             )c1O+                                            _x#++++++        ",
"        a#++++++++                                           )c1O+                                            ^P3O++++++        ",
"         qO+++++++                                          )x1.                                              )p+++++++         ",
"         k%O+++++++                                        Qc2                                               _x#+++++++         ",
"          e+++++++++                                      ^K                                                !V2O++++++          ",
"           1O+++++++                                                                                       ^U0O++++++           ",
"           u#++++++++                                                                                      (p++++++++           ",
"            q+++++++++                                                                                    )g#+++++++            ",
"             1+++++++++                                                                                  )x#O++++++             ",
"              &+++++++++                                                                                )c<O++++++              ",
"              w#+++++++++                                                                              )c1O+++++++              ",
"               4+++++++++#                                                                            )c1O+++++++               ",
"                &+++++++++#                                                                          )x<O+++++++                ",
"                 $+++++++++#6                                                                      ^(g#O+++++++                 ",
"                  #+++++++++#5                                                                    !Up#O+++++++                  ",
"                   +++++++++++4                                                                  _V0+++++++++                   ",
"                    +++++++++++1f                                                              ^)x2O++++++++                    ",
"                     ++++++++++O#q                                                            _Pp#O++++++++                     ",
"                      ++++++++++++2a                                                        ^Rx3++++++++++                      ",
"                       #++++++++++O#ql                                                    ^)Mt#O+++++++++                       ",
"                        1++++++++++++<tn                                                ^)Zp<O+++++++++                         ",
"                         1O++++++++++O+1tn                                            ^)Vp1+O+++++++++                          ",
"                         a#++++++++++++O+1tz                                        _RMi1+O++++++++++                           ",
"                         H8.+++++++++++++O+%9gN                                  `QZh9#OO++++++++++                             ",
"                          pO++++++++++++++++O#1egML                          `_RVhe1+.++++++++++++                              ",
"                         _s+++++++++++++++++++OO#<9phMKT                '`!YVxp9%+.O++++++++++++                                ",
"                         Re.+++++++++++++++++++++O.O#%3epgbmMSKKKKKFAMMxgpe3%#O.O+++++++++++++                                  ",
"                        )h#++++++++++++++++++++++++++O..O+##%12222211%##+O..O+++++++++++++++                                    ",
"                      _Ps#O++++++++   ++++++++++++++++++++++OOOO.OOOOO++++++++++++++++++++                                      ",
"                  _!IMs2+O+++++++       ++++++++++++++++++++++++++++++++++++++++++++++++                                        ",
"      MxbmMVVCMMchst3#+O+++++++            ++++++++++++++++++++++++++++++++++++++++++                                           ",
"         %%%%%%##++..+++++++                  ++++++++++++++++++++++++++++++++++++                                              ",
"             OOO++++++++                          ++++++++++++++++++++++++++++                                                  ",
"                                                        +++++++++++++++++                                                       "
};
