/* XPM */
static char *vivaldi_stable_png_xpm[] = {
/* columns rows colors chars-per-pixel */
"128 128 48 1 ",
"  c None",
". c #373737",
"X c gray22",
"o c #3E3E3E",
"O c #414141",
"+ c #464646",
"@ c #4B4B4B",
"# c gray30",
"$ c gray32",
"% c gray34",
"& c #5B5B5B",
"* c #5F5F5F",
"= c gray39",
"- c gray40",
"; c gray42",
": c gray43",
"> c #727272",
", c #777777",
"< c #7B7B7B",
"1 c gray49",
"2 c #818181",
"3 c gray53",
"4 c #8B8B8B",
"5 c gray55",
"6 c #939393",
"7 c gray58",
"8 c #9A9A9A",
"9 c gray62",
"0 c #A2A2A2",
"q c #A5A5A5",
"w c gray67",
"e c #AFAFAF",
"r c gray69",
"t c #B7B7B7",
"y c #BBBBBB",
"u c gray75",
"i c gray76",
"p c #C5C5C5",
"a c #CACACA",
"s c #CECECE",
"d c gray82",
"f c #D7D7D7",
"g c #DADADA",
"h c #DFDFDF",
"j c #E2E2E2",
"k c #E6E6E6",
"l c #E9E9E9",
"z c #ECECEC",
/* pixels */
"                                          566655555555545544444555443445555555555556655                                         ",
"                            65544444333432232222122112212111112221<<12233211112222122233343333334455                            ",
"                        65332221122111211111<1112111111211<221221<<12123221<111<<<111111211111<<11122333                        ",
"                     6542111112112112121<11122211111<1121<121221<1121122221111<<<111111211111<<1111<<<<1224                     ",
"                   64321122112112112111<<113221<11111211<111111<1221112211111<<<<111111112211<1111<111<<<1113                   ",
"                 652111122212112111121<111121<<11112321<11<11<<2211111111112<<<<1111111<1211<<<11<<11<<<1<<1122                 ",
"               653111112222211211111111111111111212211111<<<1111111111<11<111111111111<<121<<<<<<<11<<111<<11<<12               ",
"              63112211111211<11111111111<1111111121<<11111<1111111<11<21<<1221111111<<<121111<<<<11<<<11<<<<<1<<22              ",
"             63112211<<<11211111111111111111111111<<11111<1<111111<1111<<<121111<<<<1<11111<<1<<11<<<<1<<<<<1<<1<<<             ",
"            521221111<<111111<<11<<1121111<<11111<<<1111<1<1111<1<1111<<<<1111<<<1<<<1<<<111<1<1<<<1<<<<<<<1<<<<,,<<            ",
"          7511221<11<<1111<11<11<<<111<11<<<111<<11<111<111111<<111<11<<<11<<<<<11<<1<<<11<<<<<<<<1<<1<<<<1<<<<<,,<<<,          ",
"          41<1111111<1111111<11<<<<1<<<1<<<<11<<11<<11<111<<<,,111<<1<,<<<<<<<<<<<<<<1,11<,<<<<<<<,<11<<<<<,<<<,,<,,,<          ",
"         51<11<1<11<<<<<11<<11111<<<111<<<<<<<<1<<<111<111<<,,<1<<<<1,,<<<<<<<<<<<<<<<<1<<<<<<,,,,,<<<<<<<,<<<,,<,,,,<<         ",
"        51<111<<1111<<<<11111<111<<111<<11<<,<1<<<11<<1<<<<<,<<<,<<<<<<,<<<<,,,,<1<,<<<<<<<<1<,,,,<,<<<<,>,,,,,<,,,,<<<,        ",
"       62<<<1<<<<11<<1<<11<<<<11<111<<<<1<<<<<<,,<<<<1<1<1<,,,,,<,,<<<,,<,,,,<<<<<<<1<<<<,,1<,,,,,,<<,<<,,,>,,<<<,,,<,<<,       ",
"      73<<<1<,,<1<<<<1<<1<<<<1<<11<<<<<<<<<<<<<,<<<<<,<,<<<1233433332<<,,,,,<<<,,,<1<,<1,,<1<,,,,,,<,,<,,,>>,,,,,,,,,<<<<:      ",
"      5<<<1<,,1<<<<<<<<1<<<<<<<<<<,<<<<<<<<<<<<<<<<,,150tisfghjjhhhgdsir952<<<,,,,,<,,<<,<1<,,,,,,,,<<,,,>>,,,,,,,<<<<<<,,      ",
"     62<<<1<,<<,<<,,,<1<<<<1<<<1<,,,,<<<<<<<<<<,<26epgkllkkjjjjjhhjjjjkkkjfpe62,>,,,,<,,<<<,,,,,,,><<,,,,>,,,,,>,,<<,,,,,,:     ",
"     4,<<<<,<<,<1,,,<1<<111<<<<<,,,,,<<<<,<<<<17tfklkjjhhhhhhhhhhhhhhhhhhjjjkhse5<,,<,,<<<,,<<,<,>,,,,,,>,,,,,,,,,<,,,,,,>>     ",
"    61<<<<<<<,<<<,<<<<<1<<<<<,<,,,<<,<<<,,,,3wdlljhhhhhhhhhhhhhhhhhhhhhhhhhhhhjjha02,,<<1<,,<,<,>,,<,,,,,,,,,,,>>,>,,,,,>>>:    ",
"    4<<<<<<<,,<,,<<,<<<<1<<<,,,,>,,,<<,,>,3thlkjhhhhhhhhhhhhhhhhhhhhhhhhhhhhhhhhjjjde3,<,,,,,,,,,,,>>,,<,<,,<<,>,>>>>,,,,>,,    ",
"   62<,,<<<,,<,,,<<,<,,<<,,<,,,>,,,<<,,>2rjzjhhhhhhhhhhhhhhhhhhhhhhhhhhhhhhhhhhhhhhjjfe2>,,,,,,,>>>>>>,<,,,<,,>,,,,>>,,,>,,>-   ",
"   5<,,,<,,,,<<,,,,<,,,,,>,,,,>,,,<,,><qhzjhhhhhhhhhhhhhhhhhhhhhhhhhhhhhhhhhhhhhhhhhhjjs9<>>,,>>>>,>>,,,,,,,,>>>>>>>>,,,,,,>:   ",
"   2,,,,>,<<<<<,<,<,,,,,,,,,,>,,,,,,>5szkhhhhhhhhhhhhhhhhhhhhhhhhhhhhhhhhhhhhhhhhhhhhhhjhu4>,>>,>>>>,,>>,,>,>>>>>>>>,,,,,>>>>   ",
"  61,<,>><,,,,,<<<,,,,,,,,,,,,,,,>,,wkljhhhhhhhhhhhhhhhhhhhhhhhhhhhhhhhhhhhhhhhhhhhhhhhhhjf0,>,,,,>>,>,,,>>>>,>>>>>>,,,,>>>>,;  ",
"  4<,,>>,,<,,,,,<<,,,,,,,,,,,,<<,>3pzjhhhhhhhhhhhhhhhhhhgghhhhhhhhhhhhgghhhhhhhhhhhhhhhhhhjhy2,,,>>,>,,,>::>,>>>:>>><,>>>>>,,;  ",
"  3,,,,,,<,,,,,<<,,,,,,,<,,,,<<,,7gljhhhhhhhhhhhhhhghhhhggghgghghhhhgggghhggghhhhhhhhhhhhhhhja5>>>,>>,,,>::>>,::>>>,,>:>>>:>>:  ",
"  2,<,,,,,,,,,,,,<,,<,,,<,,>,<,,qkkhhhhhhhhhhhhhhhggghhhgggggggggggggggghhgggghhhhhhhhhhhhhhhjd7>,,>>,,>::>>>>>>>>>>>>>>>:>>,>  ",
" 51<<,,,,,,,,,,,,<<<,,,,,,>,,,<eljhhhhhhhhhhhhhhhggghggggggggggggggggggggggghhhhhhhhhhhhhhhhhhjf9>>>>,>>:>>>>>>>>>>>>:>::>>>>>= ",
" 5<<,,,,,,,<,>,,<<<,,>>,,>,,,,rzjhhhhhhhhhhhhhhhgggggggggggggggggggggggggggggghhhhhhhhhhhhhhhhhhg9>>>>::>:>>>>>>,,>:::>:>>>>>>- ",
" 4<,,>,,,,,,>,,<,,,,>>>>>>>,,rzjhhhhhhhhhhhghhhhgggggggggggggggggggggggggggggggghhggghhhhhhhhhhhjg9>>::>>:>:>>>,,,>::>>>:>>>>>= ",
" 4,,>,<,,,,>,,,>>>>>,>>,,>>,wzjhhhhhhhhhhgghhhggggggggggggggggggggggggggggggggggggggggghhhhhhhhhhjg8:>>>:>>:,>>>>>::>>:::>>>:>- ",
" 3<,>,,,,,>,,,,>,>:>,,,,>>>0ljhhhhhhhhhhhhhhgggggggggggggggggggggggggggggggggggggggghhhhhhhhhhhhhhjf5>::>>:>>>::>>:>>:>>>>>:>:- ",
" 3>>>,>>,,,,>,,,>>:>,>,>>>6kkhhhhhhhhhhghhhgggggggggggggggggggggggggggggggggggggggggghhhhhhhhhhhhhhjs2;>>::>>:>>>>:>:>>::>::>:= ",
" 2>,>,,>,>>:>>,>:>>>>>>>>3gkhhhhhhhhhhgghggggggggggggggggggggfffggggfgggggggggggggggggghhhhhhhhhhhhhji<,>::::>>:>::::>>::::>>:= ",
" 2,>>,>,,>:>>>>:>,:>>>>><plhhhhhhhhhhgggggggggggggggggggggggggffggggffffgggggggggggggggghhhhhhhhhhhhhjr,::::>>>>::;;:::::::::;- ",
" 2>>>>,,,>::>>>>,::>>>,>wzjhhhhhhhhhghhgggggggggggggffgggggggfggggfgffffggffgggggggggggggghhhhhhhhhhhjg7;::::::::;;;:::>>:::::- ",
" 1:::>,,>>>>>>,,::>>,>>4kjhhhhhhhhhhghggggggggggggggffggffffffffffffffffggffgggggggggggggghhhhhhhhhhhhja<:::>:::::;;;:>:::::::- ",
" 1:>>,,>>>>>>>,::>>>>:,alhhhhhhhhhhhhgggggggggggggggffffffffffffffffffffffffgggggggggggggggghhhhhhhhhhhje>>::::;::;::::;::::::- ",
" 1>>>>>:>>>>>>::,,>:>:0zjhhhhhhhhhhfdfghgggggggggggffffffffffffffffffffffffffgggggggggggggddfghhhhhhhhhjg5;:::;:::::::;:>::::;- ",
" <>>>>:>>>>>:;;>,>>>:<gkhhhhhhhhde51138yfgggggggggffffffffffffffffffffffffffffffgggggggft51126edhhhhhhhhju>::;;:::;:::::::;:;:; ",
" <:>>::>>>>:;;>>::>>:ezhhhhhhhhy1-;;:::>7aggggggffffffffffffffffffffffffffffffffggggggp4::>>>:>3uhhhhhhhhh7;;;::::;::::::;;;;:; ",
"5<>>::>,>>::::::;:>>2jjhhhhhhhr:;::::::::4sggggfffffffffffffffffffffffffffffffffffgggp<;>>>>>>>>1uhhhhhhhji>-;:::;;:;::;-;;;;:- ",
"5<:::>,>:::::::;:>>>rzhhhhhhhi:;::::::::::9fggfffffffffffffffffffffffffffffffffffffgd3:>>>>>,,,,>4dhhhhhhhh6;;::;;;;;:;;;;;;;;-&",
"5,;::>,:::::;::::::1hkhhhhhhg4;:::::::::>:<ugfffffffffffffffddddfffffffffffffffffffgq;>>>>,,>>,,>,thhhhhhhju>;;;;;;;;;;;;;;--;-%",
"5>:>>,::>>:;:::::;:0lhhhhhhhp:::::::::>>>>:6dfffffffffffffffddddfffffffffffffffffffd2:>,,,,,>>,,>>8hhhhhhhjg4;;;;-;;;;;;;;--;;-%",
"4,>>>::::::;:>>:;:,skhhhhhhhe;:::::>>>>>>>>>rgffffffffddffffddddddddffdfddfffffffffs<>,,,,,,>>>>>>4ghhhhhhhhw;:;--;;;;;;;--;;;-&",
"4,>:;::::::::::;::4kjhhhhhhh9;::>>>>>>>>>>>:3sffffffddddddffddddddddddddddddfffffffa<>,,,,,,>>,,,,3ghhhhhhhja,;--;-;;;;---;;--=&",
"4,:;:>>::;:::;:::;elhhhhhhhh0;>:>:::>>>>:>>>>qfffffdfffffdddddddddddddffdffffffffffs2>,,>>>,,,,,,,5hhhhhhhhhh5-;;;;:;;;--;;-=--&",
"3>;>>::;;;::::::;>dkhhhhhhhhe:>:>:::>>>>>>>>>1pfffddfdffdddddddddddddddfdddffdfffffd5>,,,,,,,,,,,>0jghhhhhhhje-;;;;;;;;--;-==;-&",
"3::>::;;;::::::::4kjhhhhhhhhp,>>>>::>>>>>>>>>>8ffdddddddddddddddddddddddddddddffffff0>,,,,,,,,,,,,ijghhhhhhhja:=;;;;;---;;--;;;&",
"4>:;::;-;;:::::>:qlhhhhhhhhhg6:>>>>>>>>>>>>>>><yfddddddddddddddddddddddddddddffffffft>,,,,,,,,,,>6jhgghhhhhhjg3*;;------;----;=%",
"3:;;;;;;;;::;;:::pkhhhhhhhgghi<>>>>>>>>>>>>>>>>5sfddddddddddddddddddddddddddddffffffa1>,,,,,,,,,<ajggghhhhhhhh8*------;;-;-----&",
"3:;;;;::;;;;;;::,gjhhhhhhhgggg9>>>>>>>>>>>>>>>>,efdddddddddddddddddddddddddddddfffffd4>,,,,,,,,,0kgghhhhhhhhhjr=*----;;-;---;--%",
"3;;;;::;;;;:;;;;3khhhhhhhhgggha1>>>>>>>>>>>>>>>>3afddddddddddddddddddddddddddfffddfff8>,,,,,,,,1fhgghhhhhhhhhjp:**-----;---;-==&",
"2;;;:;::;;::;;;-7khhhhhhhgggggge>>>>>>>>>>>>>>>>,qdddddddddddddddddddddddddddffddddffw>,,,,,,,,ekggghhhhhhhhhjd,&&=----;--;-=--&",
"1;;;;;:;-;;;:;--elhhhhhhhhhhgggd4>>>>>>>>>>>>>>>>1idddddddddssssssssddddddddddddddffft>,,,,,,,4hhggghhhhhhhhhhg3&**---;;=--==--*",
"1;;;;;;-;;;;;;;;ykhhhhhhhhhgggggy,>>>>>>>>>>>>>>>>8ddddddddssssssssssdddddddddddddfffy>,,,,,,<ujggggghhhhhhhhhh6&**=---==-==--;&",
"1;;;----;;;;;;:;akhhhhhhhhhgggggf7:>>>>>>>>>>>>>>><tddddddssssssssssssdddddddddddffffy>,,,,,,7jggggggghhhhhhhhh0&***--====-=-;=&",
"1;;-=--;:;-;-;;:djhhhhhhhhhggggggi<>>>>>>>>>>>>>>,>5sddddssssssssssssssddddddddddffffy>,,,,,1shggggggghhhhhhhhjw**&&===-===-;==&",
"1;-==;;;;=---;->gjhhhhhhhhgggggggg0>>>>>>>>>>>,>,,,,edddssssssssssssssssddddddddddfffr>,,,,,qjggggggggghhhhhhhjt=&&*&*=====;===%",
"1--=--;--;-----,hjhhhhhhgggggggggga2>>>>>>>>,>>>,,,>3pddssssssssssssssssddddddddddfff0>,,,,3fhgggggggghhhhhhhhjy=%&&%*=-==;-==*%",
"1--;--==;;--;--<hjhhhhhhhhggggggggge,>>>,,,,,,>>>>,,,0ddssssssssssssssssddddddddddffd4>,,,,tjgggggggggghhhhhhhju=&&%%&=-=;-==**%",
"1-;--=-;---;;;-,hhhhhhhhhggggggggggd5>,,,,,,,,>>>,,,,1udssssssssssssssssddddddddddffi,,<<,5hggggggggggghhhhhhhju=&%&&&*==-=====&",
"1---=-;;-=----=,hjhhhhhhhghgggggggggy<,,,,,,>>>,,,,,,>7sssssssssssssssssddddddddddff0:,<<<ijggggggggghhhhhhhhhju=%&&%&%*===-===&",
"<=----;-==-=--=,hjhhhhhhhghgggggggggf8>>,,,,>,,,,,,,,,<rdsssssssssssssssddddddddddfa1,,,,8jgggggggggghhhhhhhhhjy*&&%%%%&=======&",
"<------==-=----,gjhhhhhhgggggggggggfgi1>>>,,,,,,,,,,,,>4pdssssssssssssssddddddddddf0><,,1shffgggggggghhhhhhhhhjt=%%%%&&&*======&",
"1-=--===---;---,fjhhhhhhhggggggggggfffq>,,,,,,,,,,,,,,,,9sssssssssssssssdddddddddfu,,<,,wjfgffggggggghhhhhhhhhjr*&&%%%%%&======%",
"1---==--;------:sjhhhhhhhhhggggggggfgga3>,,,,,,,,,,,,,,,<wsssssssssssssdddddddddfa2>,,<4ggfgfgggggggggghhhhhhhjq&&%%&&%%&&*====%",
"<--==-=-==--==-;pjhhhhhhhhhggggggggfgfgr,,,,,,,,,,,,,,,,,<wsssssssssssdddddddddfa4><<<<yjffgfgggggggggghhhhhhhh9&%%&&%%&%%*===*$",
"<===-------=====tkhhhhhhhhhggggggggggffd5>,,,,,,,,,,,,,,,,<0adsssssssddddddddddi4><<<,6hgfffggggggggghghhhhhhhg5$%%%&%%%$%&==*&%",
"<-==-----===-===qkhhhhhhhhhhgggggggggfffu<,,,,,,,,,,,,,,,,,<6usdssssdddddddddde<><<<<<phfffggggggggghhghhhhhhhf1%%%%%%%%$$%**&*%",
"1-==-=========-*5khhhhhhhgggggggggggggfff9,,,,,,,,,,,,,,,,,,,19isdddssdddddst5>,<<<<,9jfffgggggggggghhghhhhhhjs>%%%%%%%%$$%$&**%",
"1==-=**========*<hjhhhhhhhggggggggggggffgp2,,,,,,,,,,,,,,,,,,,,17euassssauq4>>,<<<<<2dgfffgggggggggghhhhhhhhhju-%%%$%&%%%%$$&**$",
"1==**&**=**=-===:djhhhhhhhgggggggggggggfffw,,,,,,,,,,,,,,<<<,,,,,,<245431,>,,<<<<<<<ejfffggggggggggghhhhhhhhhhw&%%%%%%%%%$%%%&*$",
"2=******=*==-====yjhhhhhhhgghggggggggggfffs4,,,,,,,,,,<<<<<<,,,<<<<,,,,,<<<<<<<<<<<4ggfffgggggggggghhhhhhhhhhg6%%%%$%%%%%%%%$&*#",
"2=*==*======-===*8khhhhhhhhhhggggggggggfffft<,,,,,,,,,<<<<,,,,<<<<<<<<<<<<<<<<<<<<<ujffffgggggggggghhhhhhhhhhd<$$$$$%%%$$%%%%%&$",
"1==-=====*====***<ghhhhhhhhhhgggggggggggfffd7,,,,<<<,,<<<<,,,<<<<<<<<<<<<<<<<<<<<,7hffffggggggggggghghhhhhhhhu-$$$$%%%$$$%%%%$%#",
"2==-=*==**===*==*-pjhhhhhhhhhhgggggggggggffgi1,<<<<<,,,,,,<<<<<<<<<<<<<<<<<<<<<<<1ahffffggggggggggggghhhhhhhh0%$$$%$%%%$$$$%$$$@",
"2-==**==**==*****&0jhhhhhhhhhhgggggggggggffff0,<<<<<,,,<<<<<<<<<<<<<<<<<<<<<<<<<<qjfffffgggggggggggghhhhhhhhd1#%$%$$$$$$$$$$$$$+",
"2-**====******&***<gjhhhhhhhggggggggggggggffga3,,,,,,<<<<<<<<<<<<<<<<<<<<<<<<<<<3fgffffffgggggggghghhhhhhhhhu=$$%$$$$$$$%$$$$$#+",
"2=*====**=*****&*==ujhhhhhhhhhgggggggggggggffge<,,<<<<<<<<<<<<<<<<<<<<<<<<<<<<<<rjfffgffggggggggghghhhhhhhhg8%$$$$$$$$#$$$$$$$#O",
"3=*=****=*****&*=**6jhhhhhhhhhggggggggggffggfgd5,<<<<<<<<<<<<<<<<<<<<<<<<<<<<<<5hgffggggggggggggghghhhhhhhha>$#$$$$$$#$##$###$#O",
"3=********=**&&=**=;ajhhhhhhhhgggggggggggfggffgy<<<<<<<<<<<<<<<<<<<<<<<<<<<<<<1ijfffgggggggggggggghhhhhhhhhq&$$$$$$$#$##$$###$#+",
"3-*******==*%%*****&9jhhhhhhhhhhhgggggggggggggff8,<<<<<<<<<<<<<<<<<<<<<<<<<<<<8jgffffgggggggggghgghhhhhhhjs1$$$$$$$$$$$$$####$#O",
"3;=****&*=&%%*****&*:sjhhhhhhhhhhhggggggggggggffi2<<<<<<<<<<<<<<<<<<<<<<<<<<<2shfgfffggggggggghhghhhhhhhhhw&###$$$$$$$$$$####$#O",
" ;*&*****&&&*=**&&&*&7jhhhhhhhhhhhgggggggggggffffq<<<<<<<<<<<<<<<<<<<<<<<111<wjfgggggggggggggghhhhhhhhhhjs<####$$$$$$##$$$$#$$# ",
" ;&&&&***&**=*&&%&&*&-pjhhhhhhhhhhhggggggggggfffga4<<<<<<<<<<<<<<<<<<<11111<4fggggggggggggggghhhhhhhhhhhgq&###$%%#$####$$$#$##@ ",
" ;&&&***&*&**&&%&&&&&&4hhhhhhhhhhgggggggggggggggggr<<<<<<<<<<<<<<<<<11111111tjgggggggggggggghhhhhhhhhhhhp>##$##$$######$$#$###@ ",
" :&&*&&***&&&&&*&&&&***rjhhhhhhhhhggggggggggggggfgd6<<<<<<<<<<<<<111111111<6hgggggggggggggghhhhhhhhhhhjf6$#$###$#########$####@ ",
" :&*&&&&&&*&*&&**&&&**%:sjhhhhhhhhhgghgggggggggggggu1<<<<<<<<<1111111111111pjggggggggggggghhghhhhhhhhhhr*@#$##$$@#######$#####+ ",
" :**&&&&&**&&&&*&&&&*&&%4hjhhhhhhhhhghhggggggggggggf9<<<<<<<1111111111111<0jggggggggggggghhhhhhhhhhhhhp>##$####@@##$##########@ ",
" :&&%&&%&&&&*&&%%&&***&%%wjhhhhhhhhhhghhgggggggggggga3<<<11111111111111113dhggggggggggggggghhhhhhhhhjd5$#$#@@########@#####@##+ ",
" >%%&&&&&&&*&&&&&&&**&%%#*ujhhhhhhhhhhghhggggggggggggw<111111111111111111ekgggggggggggghgghhhhhhhhhjg0&####@@#######@@$####@##+ ",
" >$%&&&&&%&*&&&%%%&*&%%&$#:ajhhhhhhhhhhhhhhggggggggggd5<11111111111111115ghgggggggggghggghhhhhhhhhhgr-###@@@###@###@@$####@###+ ",
" :%&&&*&%%&*&&%%%&&&%%&&%$#<djhhhhhhhhhhhhhhggggggggggt11111111111111111ujgggggggggghhhghhhhhhhhhhhy:####@@#####@#@###########+ ",
" ,&&&&%%&&*&%%&&&&&%%&%%&$##3fjhhhhhhhhhhhggggggggggggf7<111111111111117jgggggggggghhhghhhhhhhhhhhu>@@@@@######@@@##$##@@@##@@+ ",
" ,&&&%%%&&&%%&&&&&%%%%%%%$###4gjhhhhhhhhhhhggggggggggghi211111111111112ajggggggggghhhhhhhhhhhhhhhi<@@@###@@@###@@###$#@@@@@@@@O ",
" <&&&&%&&&%%%%&&&%%%%%%%&$####4fjhhhhhhhhhhhhhhhhhgggggg0111111111111<0kgggggghhggghhhhhhhhhhhhhu<#+@###@@@@#@@#@@@####@@@@@@@O ",
" <&&&&%%%%%&%&&&&&%%%%%%%%$####2djhhhhhhhhhhhhhhhhgghgghs4111111111114fhggghhhhhghhhhhhhhhhhhjgy>@@@###@@@#@@@#@+@@@@@@@++@##@o ",
"  *&&&%%%%%&&&&%&%%&&%%%%&$#$###,ajhhhhhhhhhhhhhhggggghhht11111111112ikggggghhhhhhhhhhhhhhhhjgr;@@#@@#@@@#@@@@@++@@@@+@@+@#@@+  ",
"  -&%%%%%%%&&&%&%%&&%%%%&&%####@@;yjjhhhhhhhhhhhhhhgggghhgr411111115pkhhgggghhhhhhhhhhhhhhhhd0=@@##@#@@@@@@@#@+@@@@++@@@@#@@@+  ",
"  ;%$%%%$%%%%%%%%%&%%%%&%%%$###@##&9gjhhhhhhhhhhhhhhhhhhhhhaw53236rgkhhhghhhhhhhhhhhhhhhhhhp5%@@#@@@@#@+@###@+@@@@@+@@@@#@+@@O  ",
"  >%%%%$$%%%%%%%%%%%%%%%%%%$##@#$@+#2pjjhhhhhhhhhhhhhhhhhhhhhfdsfhkhhhhhhhhhhhhhhhhhhhhhhfe>#@@@@@#@#@++##@@@@@@+@@@@@@@@@@@@o  ",
"   *%%%$%%$%%&%$%%$%%%$%%%%%####@@##@=0fjhhhhhhhhhhhhhhhhhhhhhhhhhhhhhhhhhhhhhhhhhhhhhjgi6&@@@@@@#@@@++@@@#@@@@++@@@@@@@@@@@+   ",
"   =%%%%$$$$%%$$$$%%%$$%%%%$###@@###@@#,tgjhhhhhhhhhhhhhhhhhhhhhhhhhhhhhhhhhhhhhhhhhjhs0;#@@@@@#@@++++@@@@@@@@++@@@@@+@@@@+@O   ",
"   :%%%$$$$%&$$$$%%%$$%%$%$$##@+@#@@@@+@$2uhjjhhhhhhhhhhhhhhhhhhhhhhhhhhhhhhhhhhhhjhsw<#++@+@@@@@@@+++@@@#@+@@@@@@@+++@@++@+X   ",
"    *$$%%$%%$#$%%%%$$%$#$$#$$#@@#@@@@+@@++%2tgjjhhhhhhhhhhhhhhhhhhhhhhhhhhhhhhhjhgaq<%+++@@++@++++@@+@+@#+++++@@@@+++++++++O    ",
"    -$%%$%%$#$%%$$$$%%#$$$##$#@#@@@@@@@@@@@+$,0ahjjjhhhhhhhhhhhhhhhhhhhhhhhhjjhdu7:$@@@@++@+@@+++@@@@+@@+++++@@@@@+++++++++X    ",
"     &%$$$$#$%$$$$$%%$$$$#$$$$#@@@@@@+@@@@@@@+@=2wpgjjjjhhhhhhhhhhhhhhhjjjhgdu9<*#+@@#@@+++@@+++@+@@@+@+++++@@@+++++@+++++o     ",
"     -$$$$$$$$$%$$$$$$$$##$$#$#@@@@@+@@+++++@@@@+#*,6epdghhjjjjjjjhhjhgfsuw5>&#+@@++@@@++@+@++@@+++@@+@@+++@@+++++O+@++++OX     ",
"      &$$%$$$$%$$$$$$$$$####$$#@@@@@@@+++++@@@@+@@@+O@&;148qrtyuyyreq84,-&#+++@@@+++++++@@@++@@+++@++@@++++++++@++++@+++Oo      ",
"      =%%$$$$$$#$$%$$$$$###$$$##@@+@@@++++@@@@++@@+++++++++@$%$$$$$##@O++@++@@@++@@+++@@@@@+@+++@@++@@++++++++@+++++++++oX      ",
"       *$$$%%$#$$$%$####$$$$$#$#@+@@@++@@@@@@+++@++@++@+@++@#@+++@+@@O+@@+O++@@+@@+++@@@+@++++++++++++++++++O++OO++++++OX       ",
"        %$$%$#$$$#$####$$$$$#$$#@+@@@O@@@++@@+++@@@++@+@@++@@+++@@@@++@++++++@++@+++++++++++++++@@+O+++++++OOOOO++O+++Oo        ",
"         $$$$$$#$$####$$####$$##+@@@++++@@@@++O+@@@+++@@@+++++@+@@@+@@+@+++++++@+O++++O+++++@@++@@O++++++++OOOOO+++++Oo         ",
"          $$$$#$$####$$$##$$$####@@+O++++++++++@@@@++@@@+++@@+++@@@@@++@@++++O+@+++@+++++++++++++O+@O++++++O+O++++@+Oo          ",
"           $$#$$$####$$##$$$#####@++++++++++++++++++++@+++@++O+@+@++++@@++++OO++++@@++++++++OO+++O++++++++O++O+++++OoX          ",
"            @#$$##@#$####$$#####$@@+++++++++@++O+++++++++@@+O+++++++++++++++O+++++@+O++O+OOOO+@+O+++@++++OOOO+@@+OOX            ",
"             #$$#@#$$###$$#####$##@+++++O++@@+OO++O+@@++@++++++++++++++O+++++++++@+++++++O+O++++++++O++++OOOO+@@OoX             ",
"              @@@##$####$$##@#$$#$@+++++O++@+++++OO+@+++O++++++++O+++++++OO++++++OOOO+++++++OO++++OOO++@++++++@+o.              ",
"               +@######$$##@@#$####+++OO+++++++OOO++++++O+++++++OO+++++++O+++O++OOOO++OO+OOOOOOO+OOO++++++++O+OX.               ",
"                 @@@####@@@@#$#####+OOO+++++++OOO++OOOOOO+OO++OoOO++O+++O+++O++OOOOO+OOOOOOOOOOOOOO+++OOO++OOX.                 ",
"                   +@#@@@@@@#####$#+O++++O+++OOO+++OOOOOOOO++OoOOOOOOO+OO++OO+++OOO+OOOOOOOOOOOOOO+OOOOO++OX.                   ",
"                     +@@@@#@######@++@+OOO+++OO++++OO+++OOOOOOOOOOOOO+OOO+OOOO+OOOOOOOOOOOooooOOO+OO++OOoX.                     ",
"                        O++@####@@@@@+OOO+O+OOOOO+O+++++OOOOOOOOOOOOOOOOOOO+OOOOOOOOOOOOOoooOOOOOOOOOoXX                        ",
"                            O+OO+O+@OooOOoOOOOooOOO++++OOOO+OOO+OOOOOOOOOO+OOoooOOOooooooXXXooXXXXXX                            ",
"                                           XX..XXXXoXoooXooXoooooooooXoXXoXXX...X.....                                          "
};
