/* XPM */
static char *xarchiver_png[] = {
/* columns rows colors chars-per-pixel */
"64 64 200 2 ",
"   c None",
".  c #060606",
"X  c #0E0E0D",
"o  c #1E170F",
"O  c #131313",
"+  c #1B1612",
"@  c #1D1914",
"#  c #1C1B1B",
"$  c #241A0E",
"%  c #2B1D0E",
"&  c #311E09",
"*  c #241D14",
"=  c #241E18",
"-  c #291F12",
";  c #3F2305",
":  c #32210D",
">  c #3B240A",
",  c #2C2317",
"<  c #2B241C",
"1  c #382713",
"2  c #252525",
"3  c #2A2926",
"4  c #2B2B2B",
"5  c #3E362D",
"6  c #343434",
"7  c #393633",
"8  c #3B3936",
"9  c #3B3A3A",
"0  c #3A2F23",
"q  c #402406",
"w  c #482B0A",
"e  c #54320C",
"r  c #5C3609",
"t  c #5E380D",
"y  c #482C13",
"u  c #5B3A14",
"i  c #553A1C",
"p  c #583716",
"a  c #4E300E",
"s  c #653907",
"d  c #6D3C05",
"f  c #643B0B",
"g  c #673B0A",
"h  c #723505",
"j  c #633D13",
"k  c #643F15",
"l  c #433322",
"z  c #423A2F",
"x  c #4C3D2A",
"c  c #4D3820",
"v  c #433C34",
"b  c #433E39",
"n  c #4A3E32",
"m  c #513F2B",
"M  c #7B460A",
"N  c #76450D",
"B  c #6E4418",
"V  c #784511",
"C  c #6C410F",
"Z  c #53412D",
"A  c #5C452A",
"S  c #4C433A",
"D  c #494138",
"F  c #524537",
"G  c #52473A",
"H  c #5A4937",
"J  c #4E402F",
"K  c #644623",
"L  c #664A2B",
"P  c #7A532A",
"I  c #6D5233",
"U  c #64523D",
"Y  c #6B553C",
"T  c #7C5B35",
"R  c #765938",
"E  c #694C2E",
"W  c #444444",
"Q  c #4B4B4B",
"!  c #535353",
"~  c #595959",
"^  c #7C6142",
"/  c #616161",
"(  c #6C6C6C",
")  c gray45",
"_  c #7C7C7C",
"`  c #8A3501",
"'  c #A73E00",
"]  c #854904",
"[  c #8C4C03",
"{  c #8C4E0C",
"}  c #864E0D",
"|  c #914E02",
" . c #914004",
".. c #94530A",
"X. c #995406",
"o. c #854E10",
"O. c #8A561A",
"+. c #935511",
"@. c #9A5D16",
"#. c #8F520C",
"$. c #A64703",
"%. c #BC4D00",
"&. c #B74B00",
"*. c #A45A05",
"=. c #AB5D04",
"-. c #A75A09",
";. c #A45F11",
":. c #B25B08",
">. c #9F621D",
",. c #AF640F",
"<. c #B36103",
"1. c #BC6503",
"2. c #B6650A",
"3. c #A2631B",
"4. c #A86314",
"5. c #B86E1A",
"6. c #8A5C27",
"7. c #955F22",
"8. c #825E35",
"9. c #8E622F",
"0. c #966227",
"q. c #986E3D",
"w. c #956B39",
"e. c #8C6436",
"r. c #AF6E24",
"t. c #B87222",
"y. c #A27036",
"u. c #B77C37",
"i. c #B16F23",
"p. c #CA5A00",
"a. c #C46A04",
"s. c #CB6D01",
"d. c #D47304",
"f. c #DB7704",
"g. c #DD7905",
"h. c #D3760C",
"j. c #DB7A0A",
"k. c #D7780B",
"l. c #CB7714",
"z. c #D27A15",
"x. c #D57E1C",
"c. c #CD7005",
"v. c #E37C05",
"b. c #E97E04",
"n. c #E17C08",
"m. c #8A6841",
"M. c #997346",
"N. c #966F41",
"B. c #AA7D48",
"V. c #B37F42",
"C. c #BE823D",
"Z. c #D9811B",
"A. c #EC8004",
"S. c #E88B0A",
"D. c #F48301",
"F. c #F88400",
"G. c #EA900D",
"H. c #E2861C",
"J. c #FE9217",
"K. c #D68C23",
"L. c #CA8739",
"P. c #D68E3B",
"I. c #DC923C",
"U. c #D6903F",
"Y. c #E1943C",
"T. c #EC9A3D",
"R. c #F39E3D",
"E. c #F7A03C",
"W. c #FCA23C",
"Q. c #AD8856",
"!. c #CD8E46",
"~. c #D69142",
"^. c #DB9545",
"/. c #D59449",
"(. c #DE9C52",
"). c #CE914A",
"_. c #EE9E43",
"`. c #E69E4D",
"'. c #E99E4A",
"]. c #E19742",
"[. c #E29E52",
"{. c #EEA046",
"}. c #E6A04F",
"|. c #EBA04A",
" X c #F3A143",
".X c #F2A348",
"XX c #F9A341",
"oX c #E3A052",
"OX c #848484",
"+X c #8B8B8B",
"@X c #939393",
"#X c gray62",
"$X c #9A9A9A",
"%X c #9E9994",
"&X c #A39A91",
"*X c #A5A5A5",
"=X c #ACACAC",
"-X c #B2B2B2",
";X c gray",
":X c #C0C0C0",
/* pixels */
"-X#X#X#X#X#X#X#X#X#X#X#X#X#X#X#X#X#X#X#X#X#X#X#X#X#X#X#X#X#X#X#X#X#X#X#X#X#X#X#X#X#X#X#X#X#X#X#X#X#X#X#X#X#X#X#X#X#X#X#X#X#X#X-X",
"@X_ _ _ _ _ _ _ _ _ _ : | ] + O d | e O : | ] + O d | e O % [ [ $ O s | r O $ [ [ $ O r | s O $ [ [ % O w _ _ _ _ _ _ _ _ _ _ @X",
"OX_ _ _ _ _ _ _ _ _ _ <.a.1 O M s...O - 1.s.y O C s.X.+ * <.s.a O f s.*.+ * <.s.e O t s.=.@ @ =.s.r O e 1._ _ _ _ _ _ _ _ _ _ OX",
") _ _ _ _ _ _ _ _ _ _ v.j # C F.c.= = d.F.C # j F.d., = a.F.V # u F.f., # a.F.} # p F.v.1 # 2.F.#.# a D.f._ _ _ _ _ _ _ _ _ _ ) ",
"( _ _ _ _ _ _ _ _ _ _ 6.6 A n.k.x 6 4.v.@.6 Z j.j.Z 6 3.v.4.6 J k.j.Z 6 @.v.4.6 n k.n.A 6 O.v.5.6 v h.v.I _ _ _ _ _ _ _ _ _ _ / ",
"W ~ ~ ~ ~ ~ ~ ~ ~ ~ ~ ~ ~ ~ ~ ~ ~ ~ ~ ~ ~ ~ ~ ~ ~ ~ ~ ~ ~ ~ ~ ~ ~ ~ ~ ~ ~ ~ ~ ~ ~ ~ ~ ~ ~ ~ ~ ~ ~ ~ ~ ~ ~ ~ ~ ~ ~ ~ ~ ~ ~ ~ ~ W ",
"      ~ Q       W     q q q q ; w                                                             w ; q q q ;     W       ! !       ",
"      ~ ~ / / / /     o.> . . . & M                                                         M & . . . > o.    / / / / / ~       ",
"      _ OX:X;X;XOX      [ $ X X X f 3.                                                    3.f X X X $ [       _ -X;X:X+X_       ",
"      ( ( ( *XQ _       t.{ O O O * -.                                                    -.* O O O } t.      _ ~ @X) / (       ",
"          _ -XW OX        k.u # # # i z.                                                z.i # # # u k.        OXW *XOX          ",
"          _ -XW           ~.Z.< 2 2 2 7.Y.                                            I.7.2 2 2 < x.~.          9 *XOX          ",
"          _ -XW             _.9.2 2 2 3 L.(.                                          L.3 2 2 2 9._.            9 *XOX          ",
"          _ -XW               R.x 2 4 4 x T.                                        T.m 3 4 2 x T.              9 *XOX          ",
"          _ -XW               '.u.4 4 4 4 8.'.                                    '.T 4 4 4 3 u.'.              9 *XOX          ",
"          _ -XW                 R.P 4 6 6 4 u.[.                                [.u.4 6 6 4 P R.                9 *XOX          ",
"          _ -XW                 `.Y.5 6 6 6 z Y.                                Y.z 6 6 6 5 Y.`.                9 *XOX          ",
"          _ -XW                    Xq.4 6 9 6 I _.                            _.I 6 9 6 6 y.R.                  9 *XOX          ",
"          _ -XW                   [.E.A 6 9 9 6 y.oX                        `.y.6 9 9 6 H E.(.                  9 *XOX          ",
"          _ -XW                     {.L.7 9 W 9 8 P.                        P.8 9 W 9 7 L.{.                    9 *XOX          ",
"          _ -XW                       W.8.6 W W 9 H _.                    _.H 9 W W 6 8.W.                      9 *XOX          ",
"          _ -XW                       '.T.J 9 W W 9 e.|.                |.e.9 W W 9 n T.|.                      9 *XOX          ",
"          _ -XW                         W.u.8 W Q W 8 L.oX            oXL.9 W Q W 9 u.W.                        9 *XOX          ",
"          _ -XW                         }.W.I 9 Q Q W F T.            T.F W Q Q 9 I W.oX                        9 *XOX          ",
"          / @X9                           XXI.v W Q Q 9 T {.        {.R 9 Q Q W v P.XX                          6 +X)           ",
"      2 W / _ ! 9                         ^.J.0.9 Q Q W 9 r.Y.    Y.r.9 W Q Q 9 0.J.^.                        9 Q ) / Q 4       ",
"      2 W / OXQ 8                           H.A.A W Q Q W v h.    h.n W Q Q W Z A.H.                          6 Q _ ( W 2       ",
"      y B q.Q.P j i                           f.;.9 W Q Q 9 L z.z.L W Q Q W 9 4.f.                            u P Q.M.B y       ",
"      ` &.f.G.p.$.{                           t.1.K 9 Q Q W 9 A A 9 W Q Q 9 K 1.t.                          +.' p.S.g.%.`       ",
"      ` %.g.G.p.$.{                             *...v W Q Q W W W W Q Q W v ..*.                            +.' p.S.v.%.`       ",
"      h $.l.K.:. .V                             >.[ B 9 W Q Q Q Q Q Q W 9 k [ >.                            o.` :.K.l.$.h       ",
"      2 W ( +X~ 9                                 M d v W Q Q Q Q Q Q W z d M                                 9 ! OX) Q 4       ",
"      2 W ( OX! 9                                 M d z W W Q Q Q Q W W z d M                                 9 ! OX) Q 4       ",
"      2 W ( OX~ 9                               >.[ k 9 W W W W W W W W 9 k [ >.                              9 ! _ ) Q 4       ",
"      4 W ( OX~ 9                               *...5 9 W W W 9 9 W W W 9 7 ..*.                              9 ! _ ) Q 4       ",
"      4 W ( OX~ 9                             t.1.K 9 9 W 9 9 A A 9 9 W 9 9 K 1.t.                            9 ! _ ) Q 4       ",
"      2 W ( OX~ 9                             d.4.6 9 9 9 9 A z.z.A 9 9 9 9 8 4.d.                            9 ! _ ( Q 4       ",
"      2 W ( _ ~ 9                           H.b.A 9 9 9 9 v h.    h.v 9 9 9 9 Z b.H.                          9 ! _ ( Q 4       ",
"      2 W ( _ ~ 9                         ^.J.0.6 9 9 9 8 i.Y.    Y.i.6 9 9 9 6 0.J.^.                        9 ! _ ( Q 4       ",
"      2 W ( _ ! 9                         XXY.v 9 9 9 9 8._.         X8.9 9 9 9 8 I.W.                        9 ! ) ( Q 4       ",
"      2 W / _ ! 9                       `.W.R 6 9 9 9 F T.            T.F 9 9 9 6 R W.[.                      9 ! ) ( Q 4       ",
"      2 W / _ ! 9                       W.C.8 9 9 9 8 L.oX            (.L.8 9 9 9 6 u.W.                      9 ! ) ( W 4       ",
"      2 W / ) ! 9                     '.R.F 9 9 9 9 q.|.                |.q.9 9 9 9 F R.|.                    6 Q ) / W 4       ",
"      2 W / ) Q 9                     W.w.6 9 9 9 U  X                     XU 9 9 9 6 w.W.                    6 Q ) / W 4       ",
"      2 W / ) Q 9                    XI.b 9 9 9 b I.                        ].b 9 9 9 9 U. X                  6 Q ( / W 4       ",
"      2 W ~ ( Q 6 4               [.W.Y 9 9 9 9 V.}.                        `.V.9 9 9 9 Y W.[.                6 Q ( / W 4       ",
"      2 9 ~ ( Q 6 4               XXV.6 9 9 9 T  X                             XT 8 9 9 9 V.E.                6 Q / ~ W 2       ",
"      2 9 ~ / Q 6 4             `.R.S 9 9 9 G _.                                _.F 9 9 9 S T.}.              6 W / ~ 9 2       ",
"      2 9 ~ / W 6 2             W.m.9 9 9 9 !.[.                                [.!.9 9 9 9 m.W.              6 W / ~ 9 2       ",
"      2 9 ! ~ W 6 2           |.~.9 9 9 9 N.{.                                    {.N.9 9 9 9 ~.|.            4 W ~ ~ 9 2       ",
"      # 6 Q ~ W 4 2           W.Y 9 9 9 U  X                                        XXY 9 9 9 U W.            4 W ~ ! 9 2       ",
"      # 6 Q ~ W 4 2          XB.9 9 9 b ^.oX                                          ].D 9 9 9 B. X          4 9 ~ Q 6 2       ",
"      # 4 Q ! 9 2         [._.S 9 9 9 V.'.                                            }.V.9 9 9 S _.[.        2 9 ! Q 6 #       ",
"        2 W Q 6   OX      W.m.9 9 9 ^  X                                                XX^ 9 9 9 m.W.      OX  6 Q W 4         ",
"    _ ( 6 9 W 4 Q +X    `./.9 9 9 G _.                                                     XG 9 9 9 /.`.    @XQ 4 W 9 6 / OX    ",
"    +X*X( 9 W 6 :X*X    W.U 9 9 9 ).`.                                                    }.).9 9 9 H XX    =X:X9 9 9 / =X@X    ",
"    OX) Q 6 9 4 / $X  |.B.9 9 9 M. X                                                        {.M.9 9 9 B.|.  #X/ 6 6 6 W ) +X    ",
"    OX    4 6 4   OX  W. X.X.X.XXX                                                            XX.X.X.X XW.  OX    4 4     _     ",
"-X$X$X$X$X$X$X$X$X$X%X&X&X&X&X&X&X$X$X$X$X$X$X$X$X$X$X$X$X$X$X$X$X$X$X$X$X$X$X$X$X$X$X$X$X$X$X%X&X&X&X&X&X%X$X$X$X$X$X$X$X$X$X-X",
"@X_ _ _ _ _ _ _ _ _ _ & [ ] o O d | e O % [ ] o O g | r O % [ [ $ O s | r O $ [ [ $ O r [ s O $ ] [ % O w _ _ _ _ _ _ _ _ _ _ @X",
"OX_ _ _ _ _ _ _ _ _ _ <.a.1 O N s.X.O - 1.s.y O d s.X.+ * <.s.a O f s.*.+ * =.s.e O r s.=.@ @ =.s.t O e 1._ _ _ _ _ _ _ _ _ _ OX",
") _ _ _ _ _ _ _ _ _ _ v.j # C F.d.= = a.F.N # j F.d., # a.F.M # u F.f., # 1.F.{ # a D.v.1 # 2.F...# y A.f._ _ _ _ _ _ _ _ _ _ ) ",
"( _ _ _ _ _ _ _ _ _ _ 6.2 i A.v.l 3 ,.D.@.2 c b.v.l 2 ;.D.;.2 l v.b.c 2 @.D.,.3 l v.A.i 2 +.D.2.3 0 g.A.E _ _ _ _ _ _ _ _ _ _ ( ",
"Q / / / / / / / / / / / / / / / / / / / / / / / / / / / / / / / / / / / / / / / / / / / / / / / / / / / / / / / / / / / / / / Q "
};
