/* XPM */
static char *xterm_png[] = {
/* columns rows colors chars-per-pixel */
"64 64 116 2 ",
"   c None",
".  c #020202",
"X  c #0C0C0C",
"o  c #151515",
"O  c #1B1B1B",
"+  c #2E1F1F",
"@  c #3E1313",
"#  c #232323",
"$  c #282828",
"%  c #363636",
"&  c #3C3C3C",
"*  c #570503",
"=  c #590706",
"-  c #560C02",
";  c #580804",
":  c #551300",
">  c #551C00",
",  c #4B1313",
"<  c #5B1F1F",
"1  c #640403",
"2  c #690E0E",
"3  c #750F0F",
"4  c #6D1010",
"5  c #552400",
"6  c #552800",
"7  c #6F3600",
"8  c #713700",
"9  c #482020",
"0  c #454545",
"q  c #4C4C4C",
"w  c #545454",
"e  c #5B5B5B",
"r  c #646464",
"t  c #6A6A6A",
"y  c gray45",
"u  c #797979",
"i  c #8F2A00",
"p  c #932C00",
"a  c #D11401",
"s  c #C63F01",
"d  c #884300",
"f  c #954A00",
"g  c #BD5200",
"h  c #BE7C2F",
"j  c #C64300",
"k  c #C94201",
"l  c #C64B00",
"z  c #C65300",
"x  c #D7730A",
"c  c #DC7C0E",
"v  c #CF7211",
"b  c #CA751D",
"n  c #CF7B1D",
"m  c #D27311",
"M  c #D97E16",
"N  c #D57F1D",
"B  c #D87F18",
"V  c #EE7C03",
"C  c #E47E0D",
"Z  c #F37901",
"A  c #C97724",
"S  c #CA7923",
"D  c #C47E2E",
"F  c #CB7D2E",
"G  c #DB8016",
"H  c #D9801D",
"J  c #EE8205",
"K  c #E5800A",
"L  c #EA8208",
"P  c #F78301",
"I  c #FF8300",
"U  c #FF8A00",
"Y  c #CB802D",
"T  c #D58122",
"R  c #D18428",
"E  c #C98333",
"W  c #CD8A3F",
"Q  c #D38B39",
"!  c #B38D67",
"~  c #B38E68",
"^  c #C78C47",
"/  c #CD8B45",
"(  c #DA9544",
")  c #CE8F50",
"_  c #C6935B",
"`  c #CA945E",
"'  c #D29955",
"]  c #D79E61",
"[  c #DBA66E",
"{  c #CDA57C",
"}  c #DBAB77",
"|  c #E0A766",
" . c #8B8B8B",
".. c #909090",
"X. c #CAA580",
"o. c #C6AA8B",
"O. c #CDAE8A",
"+. c #D5AE83",
"@. c #D8AE80",
"#. c #CEB396",
"$. c #D1B291",
"%. c #DEBC94",
"&. c #D6B998",
"*. c #D6BA9B",
"=. c #D7BB9B",
"-. c #D0B89D",
";. c #D4B99D",
":. c #D5BB9E",
">. c #DABB99",
",. c #DABFA1",
"<. c #DFC19F",
"1. c #DCC6AE",
"2. c #E1CBB3",
"3. c #E9CFB3",
"4. c #EACFB2",
"5. c #E4D0BA",
/* pixels */
"  p g g g g g g g g g g g g g g g g g g g g g g g g g g g g g g g g g g g g g g g g g g g g g g g g g g g g g g g g g g g g i   ",
"p x R U U h K ' ' ' ^ U U U U U U U U U U U U U U U U U U U U U U U U U U U U U U U U U U U U U U U U U U U U U U U U U U U V p ",
"z c =.P K -.L ( %._ Q U G E N U L B B N U K D M Y J U U U U U U U U U U U U U U U U U U U U U U U U U U U U U U U U U U U U U z ",
"z U / O.:.H U U [ S U c ,.| >.T C 5.=.=.n Y 3.2.+.O.U U U U U U U U U U U U U U U U U U U U U U U U U U U U U U U U U U U U U z ",
"z U C 1.$.P U U [ S U b 3.} <.W U #.V P P Y ] @.m o.U U U U U U U U U U U U U U U U U U U U U U U U U U U U U U U U U U U U U z ",
"z V :.N / { I I [ A I b { v v V I o.I I I F ] @.m o.I I I I I I I I I I I I I I I I I I I I I I I I I I I I I I I I I I I I I z ",
"z m _ Z I ~ I I ) b I Z X.o.o.A I ! I I I S / ` x ! Z Z Z Z Z Z Z Z I I I Z Z Z I Z Z Z I I I Z I I Z Z Z Z Z Z Z Z I I I I I z ",
"z Z f d d d d d d d d d d d d d d d d d d d d d d d d d d d d d d d d d d d d d d d d d d d d d d d d d d d d d d d d d d f Z z ",
"z 8 . o X X o o X X X X o o o o o o o X X X o o o o X X X X X X X X X X X X o o o X X o X o o X o o X X o o o o o o o o X . 8 z ",
"z 6 # $ $ $ $ $ $ $ $ $ $ $ $ $ $ $ $ $ $ $ $ $ $ $ $ $ $ $ $ $ $ $ $ $ $ $ $ $ $ $ $ $ $ $ $ $ $ $ $ $ $ $ $ $ $ $ $ $ $ # 6 z ",
"z 6 # $ $ $ $ O O O O O O O O O O O O # $ $ $ $ $ $ $ $ $ $ $ $ $ $ $ $ $ $ $ $ $ $ $ $ $ $ $ $ $ $ $ $ # O O O O $ $ $ $ # 6 z ",
"z 6 # $ $ $ $ # o o o o o o o o o o o o # $ $ $ $ $ $ $ $ $ $ $ $ $ $ $ $ $ $ $ $ $ $ $ $ $ $ $ $ $ $ # o o o o # $ $ $ $ # 6 z ",
"z 6 O $ # # $ # O o o o o o o o o o o o o $ $ $ $ $ $ $ $ $ $ $ $ $ $ $ $ $ $ $ # $ $ # # # $ $ # $ # o o o o O # # $ $ $ O 6 z ",
"z 6 O # # # # # $ o o o o o o o o o o o o o $ # # # # # # # # # # # # $ # # # # # # # # # # # # # # o o o o o # # # # # # O 6 z ",
"z 6 O # # # # # # # o o o o o o o o o o o o O # # # # # # # # # # # # # # # # # # # # # # # # # # o o o o o # # # # # # # O 6 z ",
"z 5 O # # # # # # # O o o o o o o o o o o o o O # # # O O O O O O O O O O O # # O O O O # # # # O o o o o # # # O O O O # O 6 z ",
"z 5 o O # # # # # # # o o o o o o o o o o o o o # # # # O # # # # # # # # # O O O # # # # # # O o o o o O # # # # # # # O o 5 z ",
"z 5 o O O O O O O O O O o o o o o o o o o o o o o O O O O O O O O O O O O O O O O O O O O O # o o o o o O O O O O O O O O o 5 z ",
"z 5 o O O O O O O O O O O o o o o o o o o o o o o O O O O O O O O O O O O O O O O O O O O O o o o o o O O O O O O O O O O o 5 z ",
"z 5 o o O O O O o O O O O o o o o o o o o o o o o o O O o o o o O O O O o o o o O O O O O o o o o o o o O O O O O O o o o o 5 z ",
"z 5 o o o o o o o o o o o o o o o o o o o o o o o o o O o o o o o o o o o o o o o o o o o o o o o o o o o o o o o o o o o o 5 z ",
"z 5 o o o o o o o o o o o o o o o o o o o o o o o o o o o o o o o o o o o o o o o o o O o o o o o o o o o o o o o o o o o o > z ",
"l > o o o o o o o o o o o o o o o o o o o o o o o o o o o o o o o o o o o o o o o o o o o o o o o o o o o o o o o o o o o o > l ",
"l > o o o o o o o o o o o o o o o o o o o o o o o o o o o o o o o o o o o o o o o o o o o o o o o o o o o o o o o o o o o o > l ",
"l > o o o o o o o o o o o o o o o o o o o o o o o o o o o o o o o o o o o o o o o o o o o o o o o o o o o o o o o o o o o o > l ",
"l > o o o o o o o o o o o o o o o o o o o o o o o o o o o o o o o o o o o o o o o o o o o o o o o o o o o o o o o o o o o X > l ",
"l > X o o o o o o o o o o o o o o o o o o o o o o o o o o o o o o o o o o o o o o o o o o o o o o o o o o o o o o o o o o X > l ",
"l > X o o X X X o o o o X X X X X o o o o o o o o o o o o o o o o o o o X X o o o o o X X o o o o o o o X X X X o o o o X X > l ",
"l > X X X X X X X X X X X X X X X X X X X o o o o o o o o o o o o o X X X o o o o o o o X X X X X X X X X X X X X X X X X X > l ",
"l > X X X X X X X X X X X X X X X X X X X o o o o o o o o o o o o o X X X o o o o o X X X X X X X X X X X X X X X X X X X X > l ",
"l > X X X X X X X X X X X X X X X X X X X . o o o o o o o o o o o o o X o o o o o X X X X X X X X X X X X X X X X X X X X X > l ",
"l > X X X X X X X X X X X X . . . . . . . . . o o o o o o o o o o o X o o o o o X X X X X X X X X X X X X X X X X X X X X X > l ",
"l : X X X X X X X . . . . . . . . . . . . . . . o o o o o o o o o X X o o o o X X X X X X X X X X X X X X X X X X X X X X X : l ",
"l : . X . . . . . . . . . . . . . . . . . . . . X o o o o o o o X . o o o o X X X X X X X X X X X X X X X X . . X X X X X . : l ",
"l : . . . . . . . . . . . . . . . . . . . . . . . o o o o o o o . o o o o o X X X . . . . . . . . . . . . . . . . . . . . . : l ",
"l : . . . . . . . . . . . . . . . . . . . . . . . . o o o o o . o o o o o o o . . . . . . . . . . . . . . . . . . . . . . . : l ",
"l : . . . . . . . . . . . . . . . . . . . . . . . X o o o o . X o o o o o o o o . . . . . . . . . . . . . . . . . . . . . . : l ",
"l : . . . . . . . . . . . . . . . . . . . . . . . o o o o X . o o o o o o o o o X . . . . . . . . . . . . . . . . . . . . . : l ",
"l : . . . . . . . . . . . . . . . . . . . . . . o o o o X . o o o o o o o o o o o . . . . . . . . . . . . . . . . . . . . . : l ",
"l : . . . . . . . . . . . . . . . . . . . . . o o o o o . X o o o o o o o o o o o o . . . . . . . . . . . . . . . . . . . . : l ",
"l : . . . . . . . . . . . . . . . . . . . . X o o o o . . . o o o o o o o o o o o o X . . . . . . . . . . . . . . . . . . . : l ",
"l : . . . . . . . . . . . . . . . . . . . X o o o o . . . . X o o o o o o o o o o o o . . . . . . . . . . . . . . . . . . . : l ",
"l : . . . . . . . . . . . . . . . . . . . o o o o X . . . . . o o o o o o o o o o o o o . . . . . . . . . . . . . . . . . . : l ",
"l : . . . . . . . . . . . . . . . . . . o o o o o . . . . . . . o o o o o o o o o o o o o . . . . . . . . . . . . . . . . . : l ",
"l - . . . . . . . . . . . . . . . . . o o o o o . . . . . . . . X o o o o o o o o o o o o X . . . . . . . . . . . . . . . . - l ",
"l - . . . . . . . . . . . . X . X . o o o o o X . . X X . . . . . X o o o o o o o o o o o o X . . . . . . . . . . . . . . . - l ",
"j - . . X X X X X X X X X X X X X X o o o o X . X X X X X X X X X . o o o o o o o o o o o o o . X X X X X X X X X X X X . . - l ",
"j - . X X X X X X X X X X X X X X o o o o o X X X X X X X X X X X X X o o o o o o o o o o o o o X X X X X X X X X X X X X . - l ",
"j - . X X X X X X X X X X X X X o o o o o X X X X X X X X X X X X X X X o o o o o o o o o o o o X X X X X X X X X X X X X . - j ",
"j - . X X X X X X X X X X X X o o o o o X X X X X X X X X X X X X X X X X o o o o o o o o o o o o X X X X X X X X X X X X . - j ",
"j - . X X X X X X X X X X X o o o o o X X X X X X X X X X X X X X X X X X o o o o o o o o o o o o o X X X X X X X X X X X . - j ",
"j - . X X X X X X X X X X X o o o o o X X o o o X X X X X X X X o o X X X X o o o o o o o o o o o O o X X X X X X X X X X . - j ",
"j - . X o o o o o o o X X o o o o o X X o o o o o o o o o o o o o o o o o X X O o o o o o o o o o o O o X o o o o o o X X . - j ",
"j - X X o o o o o o o X o O o o o X X o o o o o o o o o o o o o o o o o o o X o O o o o o o o o o o o o o o o o o o o o X X - j ",
"j - . X o o o o o o o o O o o o X X o o o o o o o o o o o o o o o o o o o o o X o O o o o o o o o o o o o X o o o o o o X X - j ",
"j - X X o o o o o o o O o o o o o o o o o o o o o o o o o o o o o o o o o o o o X o o o o o o o o o o o o o o o o o o o X X - j ",
"j - X o o o o o o o O o o O o o o o o o o o o o o o o o o o o o o o o o o o o o o o O o o o o o o o o o o O o o o o o o o X - j ",
"j ; X o o o o o o O O o O o o o o o o o o o o o o o o o o o o o o o o o o o o o o o o O o o o o o o o o o o O o o o o o o X ; s ",
"s ; X o # O o o O # # w e O w 0 + , @ 0 O o # O O q % O o O o O % O o $ e o o o o o o o O o o o o o o o o o O O o o o o o X ; j ",
"s ; X u t & r w ..u q w q o y q < 4 3 w t t r q t t e t e  .e w r % q & u o o o o o o o O O O O O O O O O O O # o o o o o X ; j ",
"s * X 0 0 e & 0 q & O e % $ w w 9 2 @ & w & w q q & q w q e & 0 q $ o $ e o o o o o o o o o X X X X X X X X X o o o o o o X * s ",
"j 1 . X X X X X X X X o X X X o o X X X X X X X X X X X X X X X X X X X X o X o X X X X X X X X X X X X X X X X X X X X X . 1 j ",
"p a 1 ; ; ; ; ; ; ; ; ; ; ; ; ; ; ; ; ; ; ; ; ; ; ; ; ; ; ; ; ; ; ; ; ; ; ; ; ; ; ; ; ; ; ; ; ; ; ; ; ; ; ; ; ; ; ; ; ; ; 1 a p ",
"  p j k k k k k k k k k k k k k k k k k k k k k k k k k k k k k k k k k k k k k k k k k k k k k k k k k k k k k k k k k k j p   "
};
