<?xml version="1.0" encoding="UTF-8" standalone="no"?>
<!-- Created with Inkscape (http://www.inkscape.org/) -->

<svg
   version="1.1"
   id="svg2"
   width="512"
   height="512"
   viewBox="0 0 511.99999 511.99999"
   sodipodi:docname="atom.svg"
   inkscape:version="1.2.1 (9c6d41e410, 2022-07-14, custom)"
   xmlns:inkscape="http://www.inkscape.org/namespaces/inkscape"
   xmlns:sodipodi="http://sodipodi.sourceforge.net/DTD/sodipodi-0.dtd"
   xmlns="http://www.w3.org/2000/svg"
   xmlns:svg="http://www.w3.org/2000/svg">
  <defs
     id="defs6">
    <clipPath
       clipPathUnits="userSpaceOnUse"
       id="clipPath18">
      <path
         d="M 0,256 H 256 V 0 H 0 Z"
         id="path16" />
    </clipPath>
    <clipPath
       clipPathUnits="userSpaceOnUse"
       id="clipPath34">
      <path
         d="M 0,256 H 256 V 0 H 0 Z"
         id="path32" />
    </clipPath>
    <clipPath
       clipPathUnits="userSpaceOnUse"
       id="clipPath50">
      <path
         d="M 0,256 H 256 V 0 H 0 Z"
         id="path48" />
    </clipPath>
    <clipPath
       clipPathUnits="userSpaceOnUse"
       id="clipPath66">
      <path
         d="M 0,256 H 256 V 0 H 0 Z"
         id="path64" />
    </clipPath>
    <clipPath
       clipPathUnits="userSpaceOnUse"
       id="clipPath82">
      <path
         d="M 0,256 H 256 V 0 H 0 Z"
         id="path80" />
    </clipPath>
    <clipPath
       clipPathUnits="userSpaceOnUse"
       id="clipPath98">
      <path
         d="M 0,256 H 256 V 0 H 0 Z"
         id="path96" />
    </clipPath>
    <clipPath
       clipPathUnits="userSpaceOnUse"
       id="clipPath110">
      <path
         d="M 0,256 H 256 V 0 H 0 Z"
         id="path108" />
    </clipPath>
    <clipPath
       clipPathUnits="userSpaceOnUse"
       id="clipPath126">
      <path
         d="M 0,256 H 256 V 0 H 0 Z"
         id="path124" />
    </clipPath>
    <clipPath
       clipPathUnits="userSpaceOnUse"
       id="clipPath138">
      <path
         d="M 0,256 H 256 V 0 H 0 Z"
         id="path136" />
    </clipPath>
    <clipPath
       clipPathUnits="userSpaceOnUse"
       id="clipPath154">
      <path
         d="M 0,256 H 256 V 0 H 0 Z"
         id="path152" />
    </clipPath>
    <clipPath
       clipPathUnits="userSpaceOnUse"
       id="clipPath190">
      <path
         d="M 0,256 H 256 V 0 H 0 Z"
         id="path188" />
    </clipPath>
  </defs>
  <sodipodi:namedview
     id="namedview4"
     pagecolor="#505050"
     bordercolor="#ffffff"
     borderopacity="1"
     inkscape:showpageshadow="0"
     inkscape:pageopacity="0"
     inkscape:pagecheckerboard="1"
     inkscape:deskcolor="#505050"
     showgrid="false"
     inkscape:zoom="0.84107035"
     inkscape:cx="148.02567"
     inkscape:cy="190.23379"
     inkscape:window-width="3252"
     inkscape:window-height="1076"
     inkscape:window-x="1864"
     inkscape:window-y="0"
     inkscape:window-maximized="0"
     inkscape:current-layer="g10">
    <inkscape:page
       x="0"
       y="0"
       id="page8"
       width="512"
       height="512" />
  </sodipodi:namedview>
  <g
     id="g10"
     inkscape:groupmode="layer"
     inkscape:label="Page 1"
     transform="matrix(1.3333333,0,0,-1.3333333,0,341.33333)">
    <g
       id="g12"
       transform="matrix(1.4996571,0,0,1.4996571,0.04389975,-127.95686)">
      <g
         id="g14"
         clip-path="url(#clipPath18)">
        <g
           id="g20"
           transform="translate(185.2578,89.376)">
          <path
             d="m 0,0 c 1.366,-0.022 2.713,-0.037 4.041,-0.037 h 0.27 c 8.941,0 16.977,0.501 23.886,1.489 9.639,1.376 16.939,3.634 21.697,6.715 4.563,2.966 6.445,6.395 5.752,10.482 -0.705,4.148 -4.224,8.926 -10.178,13.82 -12.79,10.539 -36.573,21.358 -65.253,29.684 -21.923,6.37 -45.319,10.986 -67.698,13.361 -11.053,1.176 -21.604,1.773 -31.36,1.773 -8.928,0 -16.959,-0.501 -23.87,-1.489 -9.642,-1.379 -16.942,-3.638 -21.698,-6.717 -4.559,-2.965 -6.441,-6.395 -5.75,-10.48 0.711,-4.152 4.23,-8.931 10.182,-13.822 12.789,-10.537 36.571,-21.355 65.253,-29.684 C -72.838,8.73 -49.428,4.11 -27.026,1.733 -17.667,0.735 -8.573,0.153 0.002,0 Z m 5.783,-7.049 c -1.753,0 -3.527,0.017 -5.319,0.051 -2.52,0.048 -4.637,0.11 -6.667,0.196 -30.215,1.249 -64.037,6.926 -95.236,15.984 -23.381,6.796 -43.494,14.991 -58.164,23.705 -14.718,8.755 -23.233,17.613 -24.63,25.612 -1.017,5.839 1.846,11.131 8.281,15.3 6.268,4.071 15.633,7.014 27.836,8.745 8.227,1.169 17.594,1.761 27.843,1.761 3.857,0 7.882,-0.084 11.965,-0.253 30.232,-1.253 64.053,-6.932 95.236,-15.986 C 10.313,61.268 30.424,53.07 45.09,44.361 59.808,35.604 68.322,26.748 69.718,18.751 70.737,12.91 67.873,7.617 61.437,3.448 55.171,-0.624 45.804,-3.564 33.601,-5.294 25.415,-6.457 16.055,-7.049 5.783,-7.049"
             style="fill:#000000;fill-opacity:1;fill-rule:nonzero;stroke:none"
             id="path22" />
        </g>
        <g
           id="g24"
           transform="translate(185.2988,90.376)">
          <path
             d="m 0,0 -0.022,0.001 c -8.531,0.15 -17.594,0.731 -26.94,1.727 -22.346,2.372 -45.696,6.979 -67.527,13.326 -28.556,8.292 -52.209,19.044 -64.895,29.496 -5.764,4.737 -9.164,9.307 -9.832,13.221 -0.617,3.647 1.12,6.748 5.312,9.473 4.632,2.998 11.797,5.207 21.291,6.564 6.866,0.982 14.851,1.48 23.733,1.48 9.721,0 20.235,-0.595 31.25,-1.768 22.326,-2.37 45.663,-6.975 67.487,-13.316 28.59,-8.301 52.245,-19.052 64.934,-29.506 5.766,-4.741 9.163,-9.31 9.827,-13.217 C 55.237,13.831 53.5,10.73 49.306,8.004 44.672,5.005 37.509,2.796 28.017,1.442 21.153,0.461 13.167,-0.037 4.279,-0.037 2.876,-0.037 1.437,-0.024 0,0 m -120.312,84.305 c -10.299,0 -19.715,-0.596 -27.986,-1.772 -12.348,-1.75 -21.85,-4.744 -28.243,-8.897 -8.585,-5.562 -9.48,-11.939 -8.718,-16.309 1.448,-8.298 10.129,-17.391 25.102,-26.298 14.74,-8.757 34.934,-16.989 58.398,-23.808 31.267,-9.078 65.173,-14.769 95.473,-16.024 1.545,-0.064 3.131,-0.115 4.892,-0.156 v -0.005 l 1.76,-0.033 c 0.012,0 0.024,0 0.036,-10e-4 L 2.629,-9.04 v 0.009 c 1.051,-0.012 2.095,-0.018 3.123,-0.018 10.313,0 19.717,0.594 27.949,1.765 12.347,1.749 21.849,4.742 28.241,8.896 8.588,5.561 9.482,11.94 8.718,16.311 -1.444,8.293 -10.124,17.387 -25.1,26.296 -14.736,8.754 -34.927,16.986 -58.394,23.808 -31.266,9.077 -65.172,14.768 -95.474,16.025 -4.097,0.168 -8.136,0.253 -12.004,0.253 m 0,-2 c 3.875,0 7.856,-0.085 11.921,-0.251 29.188,-1.211 62.935,-6.638 94.998,-15.948 C 10.641,59.12 30.381,50.91 44.537,42.5 58.675,34.09 67.316,25.467 68.69,17.579 69.607,12.328 67.183,7.388 60.853,3.289 54.536,-0.815 44.946,-3.671 33.419,-5.304 25.104,-6.487 15.774,-7.049 5.752,-7.049 c -1.75,0 -3.522,0.017 -5.312,0.051 -0.146,1.651 -0.301,3.318 -0.498,4.999 1.467,-0.025 2.912,-0.038 4.337,-0.038 8.942,0 17.058,0.504 24.02,1.5 9.67,1.379 17.139,3.655 22.097,6.864 4.944,3.214 6.942,7.081 6.194,11.489 -0.748,4.402 -4.323,9.325 -10.527,14.426 -12.391,10.208 -35.291,21.068 -65.612,29.871 -0.013,0.004 -0.022,0.007 -0.035,0.011 -22.723,6.603 -46.302,11.099 -67.834,13.384 -11.189,1.192 -21.809,1.78 -31.462,1.78 -8.942,0 -17.055,-0.505 -24.016,-1.5 -9.669,-1.382 -17.14,-3.658 -22.098,-6.868 -4.943,-3.213 -6.94,-7.079 -6.194,-11.486 0.752,-4.402 4.324,-9.327 10.532,-14.427 12.389,-10.208 35.287,-21.069 65.609,-29.874 22.734,-6.609 46.323,-11.107 67.873,-13.394 9.534,-1.015 18.653,-1.589 27.116,-1.738 0.197,-1.681 0.352,-3.348 0.498,-4.999 -2.19,0.042 -4.397,0.101 -6.643,0.193 -29.191,1.209 -62.938,6.638 -94.998,15.947 -24.038,6.986 -43.776,15.196 -57.934,23.606 -14.137,8.41 -22.777,17.033 -24.154,24.922 -0.915,5.25 1.509,10.188 7.838,14.289 6.316,4.104 15.909,6.96 27.435,8.594 8.326,1.184 17.665,1.752 27.704,1.752"
             style="fill:#ffffff;fill-opacity:1;fill-rule:nonzero;stroke:none"
             id="path26" />
        </g>
      </g>
    </g>
    <g
       id="g28"
       transform="matrix(1.4996571,0,0,1.4996571,0.04389975,-127.95686)">
      <g
         id="g30"
         clip-path="url(#clipPath34)">
        <g
           id="g36"
           transform="translate(190.1846,200.792)">
          <path
             d="m 0,0 c -2.738,0 -5.992,-0.592 -9.668,-1.76 -13.563,-4.288 -32.468,-16.363 -51.862,-33.126 -14.827,-12.808 -29.09,-27.507 -41.27,-42.529 -11.507,-14.186 -20.744,-28.267 -26.012,-39.651 -3.507,-7.574 -5.288,-13.872 -5.292,-18.719 0.004,-4.612 1.569,-7.53 4.781,-8.918 1.355,-0.584 3.021,-0.879 4.951,-0.879 2.739,0 5.995,0.592 9.673,1.76 13.562,4.287 32.464,16.36 51.86,33.125 14.818,12.799 29.089,27.508 41.272,42.532 11.508,14.186 20.745,28.267 26.009,39.647 3.51,7.574 5.29,13.872 5.293,18.717 -0.003,4.615 -1.567,7.532 -4.781,8.92 C 3.597,-0.297 1.931,0 0,0 m -129.281,-156.366 c -2.531,0 -4.771,0.409 -6.662,1.214 -3.306,1.411 -7.247,4.853 -7.241,13.25 -0.004,6.445 2.259,14.592 6.726,24.216 4.158,8.964 10.061,18.863 17.541,29.42 15.039,21.206 34.955,42.938 56.078,61.196 15.846,13.687 31.169,24.357 44.318,30.858 9.396,4.642 17.281,6.994 23.433,6.994 2.531,0 4.771,-0.409 6.662,-1.214 3.308,-1.408 7.249,-4.849 7.241,-13.252 0.006,-6.441 -2.256,-14.588 -6.726,-24.215 -4.166,-8.974 -10.067,-18.872 -17.539,-29.417 -15.043,-21.208 -34.959,-42.943 -56.08,-61.197 -15.849,-13.688 -31.174,-24.36 -44.318,-30.859 -9.396,-4.642 -17.279,-6.994 -23.433,-6.994"
             style="fill:#000000;fill-opacity:1;fill-rule:nonzero;stroke:none"
             id="path38" />
        </g>
        <g
           id="g40"
           transform="translate(65.813,56.21)">
          <path
             d="m 0,0 c -1.792,0 -3.326,0.269 -4.559,0.798 -2.803,1.212 -4.17,3.829 -4.173,8.001 0.004,4.7 1.753,10.857 5.198,18.297 5.237,11.316 14.429,25.322 25.883,39.44 12.137,14.971 26.357,29.626 41.122,42.382 19.323,16.701 38.098,28.704 51.532,32.952 3.583,1.136 6.736,1.712 9.371,1.712 h 0.001 c 1.792,0 3.325,-0.269 4.556,-0.799 2.806,-1.212 4.173,-3.83 4.176,-8.003 -0.004,-4.697 -1.753,-10.854 -5.199,-18.296 C 122.673,105.173 113.483,91.167 102.028,77.047 89.883,62.068 75.655,47.404 60.88,34.642 41.578,17.961 22.804,5.959 9.372,1.713 5.789,0.575 2.636,0 0,0 m 129.285,156.364 c -6.308,0 -14.341,-2.387 -23.877,-7.096 C 92.187,142.73 76.791,132.012 60.881,118.27 39.702,99.965 19.728,78.169 4.639,56.896 -2.876,46.292 -8.808,36.34 -12.993,27.316 -17.523,17.56 -19.818,9.27 -19.813,2.679 c -0.007,-8.943 4.265,-12.642 7.85,-14.169 2.014,-0.859 4.387,-1.293 7.053,-1.293 6.308,0 14.342,2.387 23.877,7.095 13.219,6.538 28.616,17.257 44.529,31.001 21.178,18.303 41.152,40.099 56.241,61.374 7.508,10.592 13.439,20.543 17.63,29.576 4.531,9.758 6.826,18.047 6.82,24.637 0.008,8.945 -4.265,12.643 -7.852,14.171 -2.012,0.858 -4.385,1.293 -7.05,1.293 M 0,-2.001 c 2.828,0 6.175,0.601 9.975,1.807 13.15,4.157 31.687,15.584 52.213,33.322 15.394,13.298 29.668,28.197 41.394,42.66 11.731,14.462 20.864,28.454 26.14,39.856 3.528,7.616 5.381,14.064 5.385,19.138 -0.004,5.066 -1.857,8.314 -5.385,9.838 -1.488,0.641 -3.279,0.962 -5.348,0.962 -2.828,0 -6.174,-0.601 -9.973,-1.805 -13.151,-4.158 -31.689,-15.586 -52.213,-33.325 -0.009,-0.007 -0.016,-0.013 -0.024,-0.02 C 46.779,97.141 32.511,82.247 20.795,67.796 9.061,53.332 -0.072,39.339 -5.349,27.937 -8.875,20.321 -10.728,13.872 -10.732,8.797 -10.728,3.731 -8.875,0.484 -5.349,-1.039 -3.86,-1.68 -2.069,-2.001 0,-2.001 m 129.285,156.365 c 2.38,0 4.48,-0.372 6.267,-1.134 4.214,-1.794 6.641,-5.852 6.635,-12.332 0.006,-6.471 -2.421,-14.72 -6.635,-23.793 C 131.337,108.019 125.364,98.084 118.106,87.844 103.583,67.369 83.89,45.582 62.188,26.826 45.91,12.767 30.764,2.378 18.081,-3.895 8.986,-8.386 1.137,-10.783 -4.91,-10.783 c -2.38,0 -4.482,0.371 -6.269,1.133 -4.212,1.795 -6.639,5.851 -6.634,12.331 -0.005,6.471 2.422,14.721 6.634,23.794 4.215,9.087 10.192,19.023 17.449,29.264 14.522,20.472 34.215,42.26 55.918,61.017 16.275,14.058 31.424,24.448 44.105,30.719 9.095,4.49 16.945,6.889 22.992,6.889"
             style="fill:#ffffff;fill-opacity:1;fill-rule:nonzero;stroke:none"
             id="path42" />
        </g>
      </g>
    </g>
    <g
       id="g44"
       transform="matrix(1.4996571,0,0,1.4996571,0.04389975,-127.95686)">
      <g
         id="g46"
         clip-path="url(#clipPath50)">
        <g
           id="g52"
           transform="translate(83.6787,178.3062)">
          <path
             d="m 0,0 c -3.116,-0.002 -5.08,-1.044 -6.006,-3.186 -0.965,-2.241 -0.747,-5.728 0.63,-10.08 3.006,-9.506 11.48,-22.769 23.251,-36.383 9.001,-10.424 19.33,-20.446 29.887,-29.004 9.962,-8.083 19.849,-14.569 27.838,-18.264 5.29,-2.45 9.679,-3.692 13.044,-3.694 3.113,0.002 5.077,1.042 6.003,3.184 0.967,2.248 0.75,5.734 -0.629,10.082 -3.004,9.5 -11.477,22.762 -23.249,36.387 -9.001,10.418 -19.336,20.446 -29.891,29 C 30.916,-13.877 21.032,-7.391 13.044,-3.696 7.753,-1.245 3.366,-0.002 0,0 m 92.963,-107.594 h -0.017 c -4.576,-0.005 -10.349,1.596 -17.161,4.76 -6.334,2.937 -13.313,7.099 -20.746,12.367 -14.944,10.6 -30.255,24.631 -43.113,39.509 -9.645,11.164 -17.167,21.967 -21.754,31.243 -4.636,9.386 -6.045,16.794 -4.072,21.42 1.025,2.407 3.521,5.278 9.579,5.278 4.59,0.004 10.365,-1.599 17.179,-4.762 6.329,-2.935 13.309,-7.096 20.745,-12.366 14.942,-10.597 30.252,-24.628 43.111,-39.504 9.649,-11.174 17.173,-21.977 21.758,-31.247 4.635,-9.391 6.042,-16.799 4.07,-21.422 -1.023,-2.407 -3.518,-5.276 -9.579,-5.276"
             style="fill:#000000;fill-opacity:1;fill-rule:nonzero;stroke:none"
             id="path54" />
        </g>
        <g
           id="g56"
           transform="translate(172.3232,78.6934)">
          <path
             d="m 0,0 c -3.224,0.004 -7.472,1.216 -12.627,3.603 -7.916,3.663 -17.727,10.103 -27.626,18.132 -10.513,8.526 -20.799,18.505 -29.745,28.863 -11.7,13.535 -20.102,26.668 -23.069,36.05 -1.649,5.204 -1.271,7.976 -0.663,9.385 0.478,1.106 1.525,2.577 5.087,2.581 3.218,-0.003 7.466,-1.216 12.623,-3.604 7.916,-3.663 17.727,-10.102 27.624,-18.132 10.512,-8.522 20.804,-18.507 29.762,-28.877 C -6.947,34.477 1.455,21.343 4.418,11.967 6.069,6.767 5.691,3.991 5.083,2.579 4.605,1.476 3.559,0.005 0,0 m -92.931,107.595 c 0,0 0,0 0,0 h -0.035 c -6.606,0 -9.356,-3.2 -10.499,-5.885 -2.119,-4.973 -0.741,-12.46 4.096,-22.254 4.624,-9.351 12.194,-20.227 21.893,-31.455 12.913,-14.94 28.288,-29.028 43.29,-39.67 7.487,-5.306 14.52,-9.497 20.906,-12.459 6.934,-3.221 12.846,-4.853 17.571,-4.853 6.634,0 9.385,3.2 10.527,5.884 2.12,4.971 0.743,12.459 -4.095,22.256 -4.622,9.346 -12.194,20.223 -21.896,31.457 -12.91,14.937 -28.283,29.025 -43.289,39.667 -7.49,5.308 -14.522,9.499 -20.904,12.458 -6.933,3.22 -12.844,4.854 -17.565,4.854 M 0,-2 c 3.563,0.004 5.848,1.308 6.92,3.788 1.067,2.48 0.875,6.152 -0.595,10.781 -2.925,9.255 -10.964,22.295 -23.445,36.74 -9.356,10.829 -19.84,20.873 -30.016,29.123 -10.176,8.255 -20.021,14.681 -28.043,18.393 -5.359,2.481 -9.896,3.785 -13.466,3.789 -3.564,-0.004 -5.85,-1.308 -6.922,-3.789 -1.068,-2.477 -0.874,-6.152 0.593,-10.78 2.927,-9.254 10.966,-22.297 23.448,-36.736 0.005,-0.008 0.01,-0.013 0.014,-0.019 9.351,-10.825 19.831,-20.862 29.999,-29.107 C -31.336,11.927 -21.491,5.501 -13.467,1.788 -8.109,-0.692 -3.572,-1.996 0,-2 m -92.931,107.595 c 4.551,0 10.348,-1.707 16.724,-4.668 6.393,-2.965 13.383,-7.169 20.587,-12.276 C -41.212,78.434 -25.883,64.578 -12.687,49.309 -2.794,37.854 4.517,27.196 8.93,18.273 13.332,9.357 14.877,2.139 12.979,-2.313 11.717,-5.275 8.866,-6.981 4.314,-6.981 H 4.303 4.291 c -4.553,0 -10.352,1.706 -16.729,4.668 -6.394,2.964 -13.386,7.169 -20.59,12.276 -14.407,10.218 -29.736,24.075 -42.934,39.346 -9.892,11.45 -17.201,22.108 -21.614,31.032 -4.403,8.916 -5.946,16.133 -4.049,20.586 1.261,2.961 4.111,4.668 8.659,4.668 h 0.017 0.018"
             style="fill:#ffffff;fill-opacity:1;fill-rule:nonzero;stroke:none"
             id="path58" />
        </g>
      </g>
    </g>
    <g
       id="g60"
       transform="matrix(1.4996571,0,0,1.4996571,0.04389975,-127.95686)">
      <g
         id="g62"
         clip-path="url(#clipPath66)">
        <g
           id="g68"
           transform="translate(127.9995,103)">
          <path
             d="M 0,0 C -13.785,0 -25,11.215 -25,25 -25,38.786 -13.785,50 0,50 13.786,50 25,38.786 25,25 25,11.215 13.786,0 0,0"
             style="fill:#ffc800;fill-opacity:1;fill-rule:nonzero;stroke:none"
             id="path70" />
        </g>
        <g
           id="g72"
           transform="translate(128,154)">
          <path
             d="m 0,0 c -14.336,0 -26,-11.664 -26,-26 0,-14.337 11.664,-26 26,-26 14.337,0 26,11.663 26,26 C 26,-11.664 14.337,0 0,0 m 0,-2 c 13.254,0 24,-10.746 24,-24 0,-13.254 -10.746,-24 -24,-24 -13.254,0 -24,10.746 -24,24 0,13.254 10.746,24 24,24"
             style="fill:#ffffff;fill-opacity:1;fill-rule:nonzero;stroke:none"
             id="path74" />
        </g>
      </g>
    </g>
    <g
       id="g76"
       transform="matrix(1.4996571,0,0,1.4996571,0.04389975,-127.95686)">
      <g
         id="g78"
         clip-path="url(#clipPath82)">
        <g
           id="g84"
           transform="translate(134.6982,90.7725)">
          <path
             d="m 0,0 -0.585,0.44 c -13.609,10.24 -26.927,22.736 -38.509,36.134 l -0.796,0.932 -0.273,0.32 -0.737,0.87 0.957,0.617 c 1.01,0.655 1.88,1.287 2.658,1.932 l 0.771,0.636 0.636,-0.769 c 0.888,-1.068 1.793,-2.144 2.733,-3.228 C -24.143,27.462 -13.814,17.439 -3.258,8.881 -1.145,7.168 1.018,5.484 3.171,3.878 L 4.273,3.056 3.152,2.26 C 2.706,1.944 2.26,1.622 1.812,1.298 1.408,1.006 1.004,0.715 0.597,0.426 Z"
             style="fill:#000000;fill-opacity:1;fill-rule:nonzero;stroke:none"
             id="path86" />
        </g>
        <g
           id="g88"
           transform="translate(98.3149,134.062)">
          <path
             d="m 0,0 -1.539,-1.275 c -0.751,-0.623 -1.59,-1.231 -2.563,-1.859 l -1.919,-1.239 1.481,-1.738 0.289,-0.34 c 0.259,-0.305 0.519,-0.61 0.784,-0.917 11.625,-13.451 24.995,-25.997 38.664,-36.28 l 1.169,-0.88 1.192,0.848 c 0.404,0.287 0.805,0.577 1.205,0.866 0.45,0.325 0.899,0.649 1.349,0.968 l 2.246,1.59 -2.205,1.645 c -2.158,1.611 -4.311,3.285 -6.398,4.979 -10.513,8.524 -20.798,18.505 -29.745,28.861 -0.851,0.985 -1.715,2.007 -2.734,3.234 z m -0.262,-2.815 c 0.892,-1.074 1.801,-2.154 2.744,-3.245 0.006,-0.008 0.01,-0.013 0.015,-0.019 9.351,-10.825 19.83,-20.862 29.999,-29.107 2.174,-1.764 4.332,-3.439 6.461,-5.027 -0.852,-0.603 -1.699,-1.226 -2.558,-1.837 -13.033,9.805 -26.545,22.328 -38.353,35.99 -0.36,0.417 -0.71,0.831 -1.063,1.246 0.968,0.624 1.891,1.283 2.755,1.999"
             style="fill:#ffffff;fill-opacity:1;fill-rule:nonzero;stroke:none"
             id="path90" />
        </g>
      </g>
    </g>
    <g
       id="g92"
       transform="matrix(1.4996571,0,0,1.4996571,0.04389975,-127.95686)">
      <g
         id="g94"
         clip-path="url(#clipPath98)">
        <g
           id="g100"
           transform="translate(130.8105,98.876)">
          <path
             d="m 0,0 c -10.168,8.245 -20.648,18.282 -29.999,29.107 -0.004,0.006 -0.009,0.011 -0.015,0.019 -5.693,6.586 -10.45,12.875 -14.232,18.654 -0.88,-0.934 -1.79,-1.824 -2.725,-2.673 3.546,-5.07 7.727,-10.431 12.521,-15.981 C -21.793,14.481 -7.178,1.146 6.705,-8.935 7.133,-8.013 7.617,-7.126 8.173,-6.288 5.492,-4.337 2.759,-2.238 0,0"
             style="fill:#000000;fill-opacity:1;fill-rule:nonzero;stroke:none"
             id="path102" />
        </g>
      </g>
    </g>
    <g
       id="g104"
       transform="matrix(1.4996571,0,0,1.4996571,0.04389975,-127.95686)">
      <g
         id="g106"
         clip-path="url(#clipPath110)">
        <g
           id="g112"
           transform="translate(119.8862,74.9756)">
          <path
             d="m 0,0 -0.635,0.582 c -1.159,1.065 -2.387,2.142 -3.753,3.295 l -0.945,0.796 0.976,0.758 c 3.904,3.026 7.879,6.286 11.818,9.688 14.817,12.801 29.089,27.508 41.272,42.532 0.71,0.875 1.407,1.746 2.097,2.618 l 0.622,0.787 0.785,-0.626 c 1.111,-0.883 2.23,-1.757 3.363,-2.607 l 0.816,-0.615 -0.634,-0.803 C 42.077,39.016 25.819,22.038 8.769,7.304 6.147,5.04 3.423,2.763 0.67,0.54 Z"
             style="fill:#000000;fill-opacity:1;fill-rule:nonzero;stroke:none"
             id="path114" />
        </g>
        <g
           id="g116"
           transform="translate(171.1777,137.4365)">
          <path
             d="m 0,0 -1.245,-1.57 c -0.688,-0.868 -1.384,-1.737 -2.091,-2.608 -12.144,-14.98 -26.373,-29.644 -41.148,-42.407 -3.901,-3.371 -7.863,-6.619 -11.777,-9.656 l -1.954,-1.516 1.891,-1.594 c 1.347,-1.135 2.565,-2.203 3.722,-3.265 l 1.269,-1.165 1.341,1.083 c 2.771,2.239 5.504,4.522 8.123,6.784 17.102,14.78 33.405,31.807 47.145,49.238 l 1.266,1.606 -1.633,1.23 c -1.056,0.797 -2.15,1.644 -3.342,2.592 z M 0.322,-2.813 C 1.44,-3.702 2.567,-4.58 3.706,-5.438 -9.517,-22.212 -25.692,-39.29 -43.177,-54.4 c -2.725,-2.355 -5.416,-4.596 -8.073,-6.743 -1.273,1.169 -2.55,2.281 -3.785,3.322 3.859,2.994 7.818,6.231 11.858,9.722 15.394,13.298 29.668,28.198 41.394,42.661 0.712,0.876 1.413,1.752 2.105,2.625"
             style="fill:#ffffff;fill-opacity:1;fill-rule:nonzero;stroke:none"
             id="path118" />
        </g>
      </g>
    </g>
    <g
       id="g120"
       transform="matrix(1.4996571,0,0,1.4996571,0.04389975,-127.95686)">
      <g
         id="g122"
         clip-path="url(#clipPath126)">
        <g
           id="g128"
           transform="translate(186.9434,156.2886)">
          <path
             d="m 0,0 c -4.813,-7.664 -10.739,-15.896 -17.549,-24.291 -11.725,-14.462 -26,-29.362 -41.393,-42.66 -13.147,-11.361 -25.468,-20.118 -36.09,-26.049 1.14,-1.512 2.223,-3.087 3.225,-4.714 10.041,6.148 21.157,14.349 32.865,24.462 21.702,18.755 41.395,40.543 55.918,61.017 2.717,3.835 5.255,7.627 7.587,11.347 C 3.127,-0.338 1.59,-0.11 0,0"
             style="fill:#000000;fill-opacity:1;fill-rule:nonzero;stroke:none"
             id="path130" />
        </g>
      </g>
    </g>
    <g
       id="g132"
       transform="matrix(1.4996571,0,0,1.4996571,0.04389975,-127.95686)">
      <g
         id="g134"
         clip-path="url(#clipPath138)">
        <g
           id="g140"
           transform="translate(186.8359,82.3574)">
          <path
             d="m 0,0 -1.114,0.021 c -2.519,0.047 -4.638,0.11 -6.667,0.195 -30.221,1.251 -64.044,6.928 -95.236,15.983 -17.677,5.139 -33.275,10.984 -46.363,17.373 l -1.987,0.969 2.04,0.854 c 1.019,0.424 2.059,0.805 3.066,1.174 1.781,0.653 3.465,1.27 5.004,2.1 l 0.453,0.245 0.464,-0.228 c 12.386,-6.11 27.201,-11.688 44.036,-16.574 21.88,-6.363 45.29,-10.981 67.699,-13.359 9.374,-1 18.468,-1.582 27.029,-1.733 l 0.872,-0.017 0.103,-0.868 c 0.2,-1.7 0.359,-3.421 0.501,-5.025 z"
             style="fill:#000000;fill-opacity:1;fill-rule:nonzero;stroke:none"
             id="path142" />
        </g>
        <g
           id="g144"
           transform="translate(46.0107,122.3984)">
          <path
             d="m 0,0 -0.909,-0.491 c -1.477,-0.799 -3.13,-1.405 -4.88,-2.045 -1.014,-0.371 -2.062,-0.755 -3.098,-1.188 l -4.081,-1.703 3.974,-1.939 c 13.138,-6.415 28.79,-12.281 46.523,-17.436 31.267,-9.078 65.173,-14.768 95.473,-16.023 2.051,-0.085 4.176,-0.147 6.688,-0.196 l 2.228,-0.042 -0.197,2.219 c -0.142,1.601 -0.302,3.322 -0.504,5.055 l -0.203,1.736 -1.748,0.032 c -8.53,0.15 -17.594,0.731 -26.94,1.727 -22.347,2.371 -45.696,6.979 -67.527,13.325 -16.791,4.876 -31.551,10.431 -43.872,16.512 z m 0.042,-2.251 c 11.915,-5.88 26.837,-11.597 44.199,-16.639 22.734,-6.608 46.323,-11.106 67.873,-13.393 9.534,-1.016 18.654,-1.589 27.116,-1.738 0.197,-1.681 0.352,-3.348 0.499,-5 -2.191,0.042 -4.398,0.101 -6.644,0.194 -29.19,1.209 -62.938,6.638 -94.998,15.946 -17.988,5.229 -33.567,11.142 -46.204,17.312 2.753,1.148 5.646,1.96 8.159,3.318"
             style="fill:#ffffff;fill-opacity:1;fill-rule:nonzero;stroke:none"
             id="path146" />
        </g>
      </g>
    </g>
    <g
       id="g148"
       transform="matrix(1.4996571,0,0,1.4996571,0.04389975,-127.95686)">
      <g
         id="g150"
         clip-path="url(#clipPath154)">
        <g
           id="g156"
           transform="translate(235.6943,96.7031)">
          <path
             d="m 0,0 c -4.957,-3.209 -12.427,-5.485 -22.097,-6.864 -14.474,-2.072 -33.922,-2.019 -55.472,0.276 -21.55,2.287 -45.14,6.785 -67.874,13.394 -30.322,8.805 -53.22,19.666 -65.608,29.874 -6.208,5.1 -9.78,10.025 -10.532,14.426 -0.018,0.106 -0.027,0.21 -0.042,0.316 -4.063,0.455 -8.142,0.947 -12.216,1.346 0.028,-0.472 0.074,-0.947 0.156,-1.425 1.378,-7.889 10.017,-16.512 24.155,-24.922 14.158,-8.41 33.895,-16.62 57.934,-23.607 32.06,-9.308 65.807,-14.737 94.997,-15.946 14.596,-0.6 28.081,-0.141 39.622,1.501 11.528,1.633 21.118,4.488 27.434,8.593 3.363,2.177 5.613,4.594 6.856,7.166 C 13.567,5.246 9.837,6.438 6.123,7.716 5.492,4.847 3.479,2.261 0,0"
             style="fill:#000000;fill-opacity:1;fill-rule:nonzero;stroke:none"
             id="path158" />
        </g>
        <g
           id="g160"
           transform="translate(238.4951,129.5791)">
          <path
             d="m 0,0 c 0,-6.075 -4.925,-11 -11,-11 -6.075,0 -11,4.925 -11,11 0,6.075 4.925,11 11,11 C -4.925,11 0,6.075 0,0"
             style="fill:#ff0000;fill-opacity:1;fill-rule:nonzero;stroke:none"
             id="path162" />
        </g>
        <g
           id="g164"
           transform="translate(238.4951,129.5791)">
          <path
             d="m 0,0 c 0,-6.075 -4.925,-11 -11,-11 -6.075,0 -11,4.925 -11,11 0,6.075 4.925,11 11,11 C -4.925,11 0,6.075 0,0 Z"
             style="fill:none;stroke:#ffffff;stroke-width:2;stroke-linecap:butt;stroke-linejoin:miter;stroke-miterlimit:4;stroke-dasharray:none;stroke-opacity:1"
             id="path166" />
        </g>
        <g
           id="g168"
           transform="translate(105.5146,177.9814)">
          <path
             d="m 0,0 c 0,-5.522 -4.478,-10 -10,-10 -5.522,0 -10,4.478 -10,10 0,5.522 4.478,10 10,10 C -4.478,10 0,5.522 0,0"
             style="fill:#01ff00;fill-opacity:1;fill-rule:nonzero;stroke:none"
             id="path170" />
        </g>
        <g
           id="g172"
           transform="translate(105.5146,177.9814)">
          <path
             d="m 0,0 c 0,-5.522 -4.478,-10 -10,-10 -5.522,0 -10,4.478 -10,10 0,5.522 4.478,10 10,10 C -4.478,10 0,5.522 0,0 Z"
             style="fill:none;stroke:#ffffff;stroke-width:2;stroke-linecap:butt;stroke-linejoin:miter;stroke-miterlimit:4;stroke-dasharray:none;stroke-opacity:1"
             id="path174" />
        </g>
        <g
           id="g176"
           transform="translate(103.5562,60.0186)">
          <path
             d="m 0,0 c 0,-6.627 -5.373,-12 -12,-12 -6.627,0 -12,5.373 -12,12 0,6.627 5.373,12 12,12 C -5.373,12 0,6.627 0,0"
             style="fill:#0000ff;fill-opacity:1;fill-rule:nonzero;stroke:none"
             id="path178" />
        </g>
        <g
           id="g180"
           transform="translate(103.5562,60.0186)">
          <path
             d="m 0,0 c 0,-6.627 -5.373,-12 -12,-12 -6.627,0 -12,5.373 -12,12 0,6.627 5.373,12 12,12 C -5.373,12 0,6.627 0,0 Z"
             style="fill:none;stroke:#ffffff;stroke-width:2;stroke-linecap:butt;stroke-linejoin:miter;stroke-miterlimit:4;stroke-dasharray:none;stroke-opacity:1"
             id="path182" />
        </g>
      </g>
    </g>
    <g
       id="g184"
       transform="matrix(1.4996571,0,0,1.4996571,0.04389975,-127.95686)">
      <g
         id="g186"
         clip-path="url(#clipPath190)">
        <g
           id="g192"
           transform="translate(228.4102,136.604)">
          <path
             d="M 0,0 C 2.217,-0.513 5.019,-2.713 4.999,-5.196 4.997,-5.442 6.927,-5.191 6.931,-4.679 6.951,-2.047 3.903,0.175 1.598,0.709 1.183,0.805 0.624,0.613 0.251,0.448 0.102,0.381 -0.416,0.096 0,0"
             style="fill:#ffffff;fill-opacity:1;fill-rule:nonzero;stroke:none"
             id="path194" />
        </g>
        <g
           id="g196"
           transform="translate(96.7231,184.3135)">
          <path
             d="M 0,0 C 0.944,-0.294 1.745,-0.936 2.462,-1.596 3.034,-2.122 4.05,-3.078 3.94,-3.951 3.855,-4.633 5.79,-4.26 5.863,-3.676 5.985,-2.702 5.193,-1.828 4.571,-1.173 3.759,-0.319 2.693,0.517 1.554,0.873 1.111,1.011 0.588,0.893 0.192,0.67 -0.01,0.557 -0.448,0.14 0,0"
             style="fill:#ffffff;fill-opacity:1;fill-rule:nonzero;stroke:none"
             id="path198" />
        </g>
        <g
           id="g200"
           transform="translate(94.0474,67.1729)">
          <path
             d="M 0,0 C 2.305,-0.847 3.729,-2.679 4.237,-5.057 4.4,-5.822 6.337,-5.327 6.168,-4.539 5.575,-1.759 3.798,0.183 1.155,1.154 0.461,1.409 -1.11,0.408 0,0"
             style="fill:#ffffff;fill-opacity:1;fill-rule:nonzero;stroke:none"
             id="path202" />
        </g>
        <g
           id="g204"
           transform="translate(129.1348,145.1519)">
          <path
             d="m 0,0 c 3.819,-0.752 7.456,-4.52 9.302,-7.762 0.884,-1.553 6.359,0.561 5.795,1.553 C 12.998,-2.522 9.063,1.509 4.73,2.362 3.381,2.628 1.884,2.271 0.669,1.663 0.218,1.438 -1.361,0.268 0,0"
             style="fill:#ffffff;fill-opacity:1;fill-rule:nonzero;stroke:none"
             id="path206" />
        </g>
      </g>
    </g>
  </g>
</svg>
