<?xml version="1.0" encoding="UTF-8" standalone="no"?>
<!-- Created with Inkscape (http://www.inkscape.org/) -->

<svg
   version="1.1"
   id="svg1534"
   width="341.33334"
   height="341.33334"
   viewBox="0 0 341.33334 341.33334"
   sodipodi:docname="beaker.svg"
   inkscape:version="1.2.1 (9c6d41e410, 2022-07-14, custom)"
   xmlns:inkscape="http://www.inkscape.org/namespaces/inkscape"
   xmlns:sodipodi="http://sodipodi.sourceforge.net/DTD/sodipodi-0.dtd"
   xmlns="http://www.w3.org/2000/svg"
   xmlns:svg="http://www.w3.org/2000/svg"
   xmlns:rdf="http://www.w3.org/1999/02/22-rdf-syntax-ns#"
   xmlns:cc="http://creativecommons.org/ns#"
   xmlns:dc="http://purl.org/dc/elements/1.1/">>
  <defs
     id="defs1538">
    <clipPath
       clipPathUnits="userSpaceOnUse"
       id="clipPath1550">
      <path
         d="M 0,256 H 256 V 0 H 0 Z"
         id="path1548" />
    </clipPath>
    <clipPath
       clipPathUnits="userSpaceOnUse"
       id="clipPath1558">
      <path
         d="M 94.0405,254.389 H 161.43 V 238.173 H 94.0405 Z"
         id="path1556" />
    </clipPath>
    <clipPath
       clipPathUnits="userSpaceOnUse"
       id="clipPath1574">
      <path
         d="m 103.624,239.375 h 47.952 v -8.868 h -47.952 z"
         id="path1572" />
    </clipPath>
    <clipPath
       clipPathUnits="userSpaceOnUse"
       id="clipPath1590">
      <path
         d="m 103.619,239.123 h 48.342 v -10.761 h -48.342 z"
         id="path1588" />
    </clipPath>
    <clipPath
       clipPathUnits="userSpaceOnUse"
       id="clipPath1610">
      <path
         d="M 17.6089,137.813 H 238.743 V 2.90918 H 17.6089 Z"
         id="path1608" />
    </clipPath>
    <clipPath
       clipPathUnits="userSpaceOnUse"
       id="clipPath1614">
      <path
         d="M 17.6089,137.813 H 238.743 V 2.90918 H 17.6089 Z"
         id="path1612" />
    </clipPath>
    <clipPath
       clipPathUnits="userSpaceOnUse"
       id="clipPath1638">
      <path
         d="M 17.6089,138.537 H 238.743 V 2.90918 H 17.6089 Z"
         id="path1636" />
    </clipPath>
    <clipPath
       clipPathUnits="userSpaceOnUse"
       id="clipPath1654">
      <path
         d="M 17.6089,136.279 H 238.743 V 2.90918 H 17.6089 Z"
         id="path1652" />
    </clipPath>
    <clipPath
       clipPathUnits="userSpaceOnUse"
       id="clipPath1670">
      <path
         d="M 37.4458,122.791 H 210.737 V 14.2354 H 37.4458 Z"
         id="path1668" />
    </clipPath>
    <clipPath
       clipPathUnits="userSpaceOnUse"
       id="clipPath1686">
      <path
         d="m 98.4805,253.371 h 59.0385 v -2.756 H 98.4805 Z"
         id="path1684" />
    </clipPath>
    <linearGradient
       x1="0"
       y1="0"
       x2="1"
       y2="0"
       gradientUnits="userSpaceOnUse"
       gradientTransform="matrix(0,2.7558594,2.7558594,0,127.99951,250.61523)"
       spreadMethod="pad"
       id="linearGradient1700">
      <stop
         style="stop-opacity:1;stop-color:#231f20"
         offset="0"
         id="stop1692" />
      <stop
         style="stop-opacity:1;stop-color:#a7a9ac"
         offset="0.06742364"
         id="stop1694" />
      <stop
         style="stop-opacity:1;stop-color:#a7a9ac"
         offset="0.335587"
         id="stop1696" />
      <stop
         style="stop-opacity:1;stop-color:#231f20"
         offset="1"
         id="stop1698" />
    </linearGradient>
    <clipPath
       clipPathUnits="userSpaceOnUse"
       id="clipPath1722">
      <path
         d="M 95.3604,250.689 H 160.639 V 239.706 H 95.3604 Z"
         id="path1720" />
    </clipPath>
    <linearGradient
       x1="0"
       y1="0"
       x2="1"
       y2="0"
       gradientUnits="userSpaceOnUse"
       gradientTransform="matrix(43.347427,33.866714,33.866714,-43.347427,106.51367,229.6709)"
       spreadMethod="pad"
       id="linearGradient1742">
      <stop
         style="stop-opacity:1;stop-color:#231f20"
         offset="0"
         id="stop1728" />
      <stop
         style="stop-opacity:1;stop-color:#bcbec0"
         offset="0.125427"
         id="stop1730" />
      <stop
         style="stop-opacity:1;stop-color:#a7a9ac"
         offset="0.311859"
         id="stop1732" />
      <stop
         style="stop-opacity:1;stop-color:#d1d3d4"
         offset="0.440674"
         id="stop1734" />
      <stop
         style="stop-opacity:1;stop-color:#58595b"
         offset="0.674576"
         id="stop1736" />
      <stop
         style="stop-opacity:1;stop-color:#bcbec0"
         offset="0.810165"
         id="stop1738" />
      <stop
         style="stop-opacity:1;stop-color:#231f20"
         offset="1"
         id="stop1740" />
    </linearGradient>
    <clipPath
       clipPathUnits="userSpaceOnUse"
       id="clipPath1764">
      <path
         d="M 48.6865,74.6631 H 206.88 V 27.707 H 48.6865 Z"
         id="path1762" />
    </clipPath>
    <clipPath
       clipPathUnits="userSpaceOnUse"
       id="clipPath1780">
      <path
         d="M 19.2363,22.8672 H 236.745 V 5.90918 H 19.2363 Z"
         id="path1778" />
    </clipPath>
    <linearGradient
       x1="0"
       y1="0"
       x2="1"
       y2="0"
       gradientUnits="userSpaceOnUse"
       gradientTransform="matrix(0,16.957519,-16.957519,0,127.99072,5.9091797)"
       spreadMethod="pad"
       id="linearGradient1792">
      <stop
         style="stop-opacity:1;stop-color:#ffffff"
         offset="0"
         id="stop1786" />
      <stop
         style="stop-opacity:1;stop-color:#ffffff"
         offset="0.01459386"
         id="stop1788" />
      <stop
         style="stop-opacity:1;stop-color:#231f20"
         offset="1"
         id="stop1790" />
    </linearGradient>
    <clipPath
       clipPathUnits="userSpaceOnUse"
       id="clipPath1814">
      <path
         d="m 155.197,121.442 h 75.37 V 11.4238 h -75.37 z"
         id="path1812" />
    </clipPath>
    <linearGradient
       x1="0"
       y1="0"
       x2="1"
       y2="0"
       gradientUnits="userSpaceOnUse"
       gradientTransform="matrix(75.370117,0,0,-75.370117,155.19727,66.433594)"
       spreadMethod="pad"
       id="linearGradient1826">
      <stop
         style="stop-opacity:1;stop-color:#ffffff"
         offset="0"
         id="stop1820" />
      <stop
         style="stop-opacity:1;stop-color:#ffffff"
         offset="0.66579327"
         id="stop1822" />
      <stop
         style="stop-color:#231f20;stop-opacity:1;"
         offset="1"
         id="stop1824" />
    </linearGradient>
    <clipPath
       clipPathUnits="userSpaceOnUse"
       id="clipPath1848">
      <path
         d="m 138.689,227.125 h 42.466 V 104.698 h -42.466 z"
         id="path1846" />
    </clipPath>
    <linearGradient
       x1="0"
       y1="0"
       x2="1"
       y2="0"
       gradientUnits="userSpaceOnUse"
       gradientTransform="matrix(42.46582,0,0,-42.46582,138.68945,165.91162)"
       spreadMethod="pad"
       id="linearGradient1860">
      <stop
         style="stop-opacity:1;stop-color:#ffffff"
         offset="0"
         id="stop1854" />
      <stop
         style="stop-opacity:1;stop-color:#ffffff"
         offset="0.66579327"
         id="stop1856" />
      <stop
         style="stop-color:#231f20;stop-opacity:1;"
         offset="1"
         id="stop1858" />
    </linearGradient>
    <clipPath
       clipPathUnits="userSpaceOnUse"
       id="clipPath1882">
      <path
         d="M 53.3735,128.786 H 121.192 V 8.6875 H 53.3735 Z"
         id="path1880" />
    </clipPath>
    <clipPath
       clipPathUnits="userSpaceOnUse"
       id="clipPath1898">
      <path
         d="M 99.2046,118.346 H 226.087 V 14.9141 H 99.2046 Z"
         id="path1896" />
    </clipPath>
    <clipPath
       clipPathUnits="userSpaceOnUse"
       id="clipPath1914">
      <path
         d="M 20.6372,223.173 H 156.216 V 8.78125 H 20.6372 Z"
         id="path1912" />
    </clipPath>
    <linearGradient
       x1="0"
       y1="0"
       x2="1"
       y2="0"
       gradientUnits="userSpaceOnUse"
       gradientTransform="matrix(-123.36586,44.901489,44.901489,123.36588,180.95312,80.404297)"
       spreadMethod="pad"
       id="linearGradient1926">
      <stop
         style="stop-opacity:1;stop-color:#ffffff"
         offset="0"
         id="stop1920" />
      <stop
         style="stop-opacity:1;stop-color:#ffffff"
         offset="0.66579327"
         id="stop1922" />
      <stop
         style="stop-opacity:1;stop-color:#231f20"
         offset="1"
         id="stop1924" />
    </linearGradient>
  </defs>
  <sodipodi:namedview
     id="namedview1536"
     pagecolor="#505050"
     bordercolor="#ffffff"
     borderopacity="1"
     inkscape:showpageshadow="0"
     inkscape:pageopacity="0"
     inkscape:pagecheckerboard="1"
     inkscape:deskcolor="#505050"
     showgrid="false"
     inkscape:zoom="0.84107035"
     inkscape:cx="-178.93866"
     inkscape:cy="186.66691"
     inkscape:window-width="3252"
     inkscape:window-height="1076"
     inkscape:window-x="1864"
     inkscape:window-y="0"
     inkscape:window-maximized="0"
     inkscape:current-layer="g1542">
    <inkscape:page
       x="0"
       y="0"
       id="page1540"
       width="341.33334"
       height="341.33334" />
  </sodipodi:namedview>
  <g
     id="g1542"
     inkscape:groupmode="layer"
     inkscape:label="Page 1"
     transform="matrix(1.3333333,0,0,-1.3333333,0,341.33333)">
    <g
       id="g1544"
       style="display:inline">
      <g
         id="g1546"
         clip-path="url(#clipPath1550)"
         style="display:inline">
        <g
           id="g1552">
          <g
             id="g1554" />
          <g
             id="g1566">
            <g
               clip-path="url(#clipPath1558)"
               opacity="0.5"
               id="g1564">
              <g
                 transform="translate(161.4297,243.708)"
                 id="g1562">
                <path
                   d="m 0,0 c 0,-2.949 -8.811,-5.535 -33.778,-5.535 -24.871,0 -33.611,2.586 -33.611,5.535 v 4.66 c 0,2.95 2.16,5.341 4.826,5.341 0,0 21.626,0.68 28.85,0.68 7.233,0 28.886,-0.68 28.886,-0.68 C -2.161,10.001 0,7.61 0,4.66 Z"
                   style="fill:#e6e6e6;fill-opacity:1;fill-rule:nonzero;stroke:none"
                   id="path1560" />
              </g>
            </g>
          </g>
        </g>
        <g
           id="g1568">
          <g
             id="g1570" />
          <g
             id="g1582">
            <g
               clip-path="url(#clipPath1574)"
               opacity="0.100006"
               id="g1580">
              <g
                 transform="translate(151.5762,232.269)"
                 id="g1578">
                <path
                   d="m 0,0 c -8.375,-1.875 -16.662,1.719 -22.977,1.719 -6.307,0 -25.089,-6.495 -24.336,-1.741 0.238,1.499 -0.639,7.127 -0.639,7.127 0,0 18.508,-3.322 24.83,-3.321 6.311,0.001 23.119,3.004 23.119,3.004 C -0.003,6.788 0,2.231 0,0"
                   style="fill:#666666;fill-opacity:1;fill-rule:nonzero;stroke:none"
                   id="path1576" />
              </g>
            </g>
          </g>
        </g>
        <g
           id="g1584">
          <g
             id="g1586" />
          <g
             id="g1598">
            <g
               clip-path="url(#clipPath1590)"
               opacity="0.100006"
               id="g1596">
              <g
                 transform="translate(151.9609,229.8882)"
                 id="g1594">
                <path
                   d="m 0,0 c -7.848,-5.625 -17.647,6.112 -23.962,6.112 -6.308,0 -14.952,-9.415 -18.874,-6.625 -2.108,1.499 -5.506,9.747 -5.506,9.747 0,0 17.913,-1.711 24.234,-1.71 6.312,0.001 23.72,1.645 23.72,1.645 0,0 -0.57,-3.33 0.388,-9.169"
                   style="fill:#666666;fill-opacity:1;fill-rule:nonzero;stroke:none"
                   id="path1592" />
              </g>
            </g>
          </g>
        </g>
        <g
           id="g1600"
           transform="translate(228.0381,12.999)">
          <path
             d="m 0,0 c -0.07,-0.032 -0.117,-0.07 -0.206,-0.096 -17.45,-4.654 -55.608,-9.358 -99.527,-9.358 -41.673,0 -78.142,4.383 -96.663,8.654 -11.436,1.642 -16.971,9.058 -12.28,18.103 l 52.386,101.038 c 6.738,13.739 33.523,67.056 32.519,105.283 0,0 31.317,-3.636 47.275,1.002 -0.998,-38.004 25.669,-91.908 32.588,-106.042 L 8.603,17.303 C 12.76,9.287 8.867,2.57 0,0 M 13.128,16.591 -41.57,122.092 c -7.206,14.721 -33.497,67.034 -33.497,104.423 -8.866,-3.514 -43.846,-2.014 -49.347,-0.14 -0.749,-42.624 -27.201,-90.228 -34.218,-104.538 L -213.201,16.591 c -4.885,-9.422 0.879,-17.145 12.792,-18.857 19.293,-4.449 57.28,-9.014 100.689,-9.014 45.747,0 85.494,4.899 103.669,9.75 0.097,0.025 0.144,0.066 0.218,0.097 9.237,2.678 13.29,9.674 8.961,18.024"
             style="fill:#cccccc;fill-opacity:1;fill-rule:nonzero;stroke:none"
             id="path1602" />
        </g>
        <g
           id="g1604">
          <g
             id="g1606" />
          <g
             id="g1630">
            <g
               clip-path="url(#clipPath1610)"
               opacity="0.5"
               id="g1628">
              <g
                 id="g1626">
                <g
                   id="g1616" />
                <g
                   id="g1624">
                  <g
                     clip-path="url(#clipPath1614)"
                     opacity="0.399994"
                     id="g1622">
                    <g
                       transform="translate(237.0732,30.7793)"
                       id="g1620">
                      <path
                         d="m 0,0 -52.636,105.5 c -9.279,-11.281 -12.951,2.776 -14.331,-0.665 -4.358,-10.876 -12.912,-11.437 -27.165,-8.026 -5.413,1.295 -23.595,7.054 -27.319,4.919 -9.021,-5.177 -14.408,5.306 -14.408,5.306 -16.57,-14.109 -19.551,0.004 -29.421,-1.788 L -217.791,0 c -4.7,-9.421 0.849,-17.145 12.311,-18.857 18.566,-4.45 55.117,-9.013 96.891,-9.013 44.02,0 82.267,4.898 99.757,9.749 0.092,0.025 0.136,0.064 0.209,0.098 C 0.265,-15.347 4.164,-8.35 0,0"
                         style="fill:#00b0d8;fill-opacity:1;fill-rule:nonzero;stroke:none"
                         id="path1618" />
                    </g>
                  </g>
                </g>
              </g>
            </g>
          </g>
        </g>
        <g
           id="g1632">
          <g
             id="g1634" />
          <g
             id="g1646">
            <g
               clip-path="url(#clipPath1638)"
               opacity="0.399994"
               id="g1644">
              <g
                 transform="translate(237.0732,30.7793)"
                 id="g1642">
                <path
                   d="m 0,0 -52.636,105.5 c -13.145,5.405 -24.968,-0.256 -27.579,-2.881 -1.932,-1.941 -12.499,-5.567 -17.046,-0.997 -4.913,4.937 -15.604,3.043 -18.312,0.322 -8.39,-8.431 -33.455,3.784 -33.455,3.784 -1.031,-12.43 -11.693,-0.482 -16.252,-0.482 L -217.791,0 c -4.7,-9.421 0.849,-17.145 12.311,-18.857 18.566,-4.45 55.117,-9.013 96.891,-9.013 44.02,0 82.267,4.898 99.757,9.749 0.092,0.025 0.136,0.064 0.209,0.098 C 0.265,-15.347 4.164,-8.35 0,0"
                   style="fill:#aedee4;fill-opacity:1;fill-rule:nonzero;stroke:none"
                   id="path1640" />
              </g>
            </g>
          </g>
        </g>
        <g
           id="g1648">
          <g
             id="g1650" />
          <g
             id="g1662">
            <g
               clip-path="url(#clipPath1654)"
               opacity="0.399994"
               id="g1660">
              <g
                 transform="translate(237.0732,30.7793)"
                 id="g1658">
                <path
                   d="m 0,0 -52.636,105.5 c -2.063,-16.086 -25.775,-24.373 -21.299,-12.979 0.785,1.997 -22.167,-1.312 -24.32,-1.295 -13.954,0.116 -10.409,11.167 -11.856,9.712 -1.932,-1.943 -10.402,-12.725 -14.948,-8.158 -4.914,4.939 -7.858,4.277 -10.567,1.553 -8.39,-8.43 -19.331,-1.553 -19.331,-1.553 -2.062,11.912 -10.323,0.518 -10.323,12.466 L -217.791,0 c -4.7,-9.421 0.849,-17.145 12.311,-18.857 18.566,-4.45 55.117,-9.013 96.891,-9.013 44.02,0 82.267,4.898 99.757,9.749 0.092,0.025 0.136,0.064 0.209,0.098 C 0.265,-15.347 4.164,-8.35 0,0"
                   style="fill:#aedee4;fill-opacity:1;fill-rule:nonzero;stroke:none"
                   id="path1656" />
              </g>
            </g>
          </g>
        </g>
        <g
           id="g1664">
          <g
             id="g1666" />
          <g
             id="g1678">
            <g
               clip-path="url(#clipPath1670)"
               opacity="0.100006"
               id="g1676">
              <g
                 transform="translate(162.1885,87.9717)"
                 id="g1674">
                <path
                   d="m 0,0 c 56.517,9.105 1.381,-3.615 1.381,-28.391 0,-9.941 54.299,-1.787 46.379,-10.02 -7.924,-8.235 -1.564,-29.107 -15.324,-34.505 -17.949,-7.039 -32.193,33.96 -44.84,18.276 -27.22,-33.748 -58.065,-5.214 -77.19,3.748 -23.265,10.907 -35.149,1.263 -35.149,19.287 0,15.057 26.464,7.735 43.421,18.212 12.146,7.505 -14.22,17.471 3.444,20.893 11.445,2.216 33.676,27.319 46.521,27.319 C -16.547,34.819 -13.13,-2.115 0,0"
                   style="fill:#1b75bb;fill-opacity:1;fill-rule:nonzero;stroke:none"
                   id="path1672" />
              </g>
            </g>
          </g>
        </g>
        <g
           id="g1680">
          <g
             id="g1682" />
          <g
             id="g1714">
            <g
               clip-path="url(#clipPath1686)"
               opacity="0.199997"
               id="g1712">
              <g
                 id="g1710">
                <g
                   id="g1708">
                  <g
                     id="g1706">
                    <g
                       id="g1704">
                      <path
                         d="m 157.519,251.994 c 0,-0.762 -13.217,-1.379 -29.519,-1.379 -16.304,0 -29.52,0.617 -29.52,1.379 0,0.76 13.216,1.377 29.52,1.377 16.302,0 29.519,-0.617 29.519,-1.377"
                         style="fill:url(#linearGradient1700);stroke:none"
                         id="path1702" />
                    </g>
                  </g>
                </g>
              </g>
            </g>
          </g>
        </g>
        <g
           id="g1716">
          <g
             id="g1718" />
          <g
             id="g1756">
            <g
               clip-path="url(#clipPath1722)"
               opacity="0.199997"
               id="g1754">
              <g
                 id="g1752">
                <g
                   id="g1750">
                  <g
                     id="g1748">
                    <g
                       id="g1746">
                      <path
                         d="m 159.116,242.022 c 0,0 0.863,0.158 1.408,1.02 0,0 0.442,5.219 -0.411,7.374 -31.381,-1.346 -32.094,-1.346 -63.619,0.272 -1.553,0.081 -1.291,-6.948 -0.518,-7.509 2.717,-1.973 23.134,-4.789 22.527,-2.783 -0.281,0.935 -15.747,1.486 -20.779,3.398 -1.7,1.7 -1.17,5.725 -0.842,6.054 30.232,-2.903 56.878,-0.883 61.724,-0.389 1.423,0.145 0.51,-7.437 0.51,-7.437"
                         style="fill:url(#linearGradient1742);stroke:none"
                         id="path1744" />
                    </g>
                  </g>
                </g>
              </g>
            </g>
          </g>
        </g>
        <g
           id="g1758">
          <g
             id="g1760" />
          <g
             id="g1772">
            <g
               clip-path="url(#clipPath1764)"
               opacity="0.100006"
               id="g1770">
              <g
                 transform="translate(86.1821,42.4512)"
                 id="g1768">
                <path
                   d="m 0,0 c -11.801,-1.159 -23.516,0.883 -29.374,3.803 -7.809,3.794 -7.809,8.464 0.978,12.257 9.762,4.135 22.914,7.053 37.479,8.672 2.805,0.243 5.644,0.412 8.083,0.091 12.036,-5.26 25.703,-11.681 50.109,-11.681 16.595,0.292 39.049,3.211 37.098,9.339 -8.787,-2.335 -21.479,-4.669 -31.241,-1.752 -10.738,3.795 -0.976,9.048 11.716,10.8 11.714,1.458 24.405,0.582 31.238,-2.628 C 129.753,21.604 110.229,15.185 94.137,9.858 93.336,8.983 92.172,8.126 90.629,7.305 89.087,6.482 87.166,5.699 84.848,4.971 77.037,2.635 67.275,1.76 58.598,0.625 c 0.317,-0.79 0.897,-1.581 1.602,-2.365 2.117,-2.352 5.367,-4.636 9.027,-6.716 8.786,-5.254 32.216,-7.88 50.765,-4.961 -31.239,-4.961 -57.598,4.961 -62.479,13.718 -0.976,-0.293 -1.952,-0.875 -3.905,-0.584 -2.931,0.524 -4.343,1.169 -1.936,1.832 1.949,0.563 3.714,1.169 5.237,1.813 1.524,0.645 2.802,1.331 3.778,2.056 2.683,0.719 3.659,2.179 6.588,2.763 19.525,2.627 40.025,5.544 47.835,11.965 2.93,2.919 1.952,6.713 -6.834,8.464 5.858,-2.335 6.834,-5.545 3.905,-8.172 -6.833,-4.96 -22.452,-7.88 -40.025,-8.755 -22.453,-0.875 -39.049,3.502 -53.985,7.668 -3.721,0.781 -7.133,1.021 -10.473,0.983 -3.3,-0.15 -6.563,-0.407 -9.736,-0.771 -12.691,-1.751 -24.406,-4.96 -23.43,-9.34 0.977,-1.75 1.952,-4.961 9.763,-4.67 7.809,0.584 9.762,4.379 20.501,4.086 -7.811,0.293 -14.644,-2.042 -22.453,-1.166 11.714,2.041 30.262,3.21 35.143,-1.751 1.953,-2.044 0,-4.087 -4.881,-5.839 -15.62,-4.961 -41.001,-1.166 -47.835,4.088 -8.786,7.587 9.762,14.592 25.126,20.198 1.576,0.842 2.978,1.559 4.721,2.22 1.745,0.661 3.832,1.269 6.273,1.806 5.859,1.094 11.715,1.696 17.984,1.805 2.091,0.037 4.225,0.018 6.423,-0.055 3.905,-1.75 0,-3.795 1.952,-5.837 -1.952,1.167 -3.906,2.918 -9.999,1.889 C 14.758,26.768 11.983,26.375 9.231,25.964 -16.316,21.88 -40.111,16.353 -34.254,6.722 -33.277,3.803 -26.444,1.467 -17.657,0.008 -6.919,-1.451 7.724,-0.574 13.582,2.926 15.535,4.678 14.558,6.428 9.677,7.597 5.771,8.473 -0.085,8.473 -2.038,7.305 -3.99,5.553 1.866,2.635 -6.919,2.051 c -9.763,-0.584 -16.597,1.46 -20.502,3.795 -5.856,3.21 -2.928,6.712 1.953,9.632 6.509,3.306 17.355,4.927 28.781,6.248 2.856,0.328 5.73,0.592 8.543,0.806 2.75,0.039 5.373,-0.205 7.891,-0.732 -2.713,1.001 -5.395,1.506 -8.198,1.587 C 8.683,23.348 5.802,23.168 2.964,22.887 -14.059,21.204 -28.885,16.936 -33.277,11.683 -36.207,7.597 -31.325,3.511 -18.634,1.176 -6.919,-0.868 5.771,0.883 10.652,4.094 8.701,3.511 10.652,2.343 7.627,1.949 6.151,1.352 3.7,0.686 0,0"
                   style="fill:#1b75bb;fill-opacity:1;fill-rule:nonzero;stroke:none"
                   id="path1766" />
              </g>
            </g>
          </g>
        </g>
        <g
           id="g1774">
          <g
             id="g1776" />
          <g
             id="g1806">
            <g
               clip-path="url(#clipPath1780)"
               opacity="0.100006"
               id="g1804">
              <g
                 id="g1802">
                <g
                   id="g1800">
                  <g
                     id="g1798">
                    <g
                       id="g1796">
                      <path
                         d="m 236.745,17.9 c 0,6.622 -217.509,6.622 -217.509,0 0,-6.624 48.692,-11.991 108.756,-11.991 60.061,0 108.753,5.367 108.753,11.991"
                         style="fill:url(#linearGradient1792);stroke:none"
                         id="path1794" />
                    </g>
                  </g>
                </g>
              </g>
            </g>
          </g>
        </g>
        <g
           id="g1808"
           style="display:inline">
          <g
             id="g1810" />
          <g
             id="g1840">
            <g
               clip-path="url(#clipPath1814)"
               id="g1838">
              <g
                 id="g1836">
                <g
                   id="g1834">
                  <g
                     id="g1832">
                    <g
                       id="g1830">
                      <path
                         d="m 182.646,121.442 c 5.605,-10.028 48.936,-85.176 47.903,-98.138 -2.408,-6.033 -39.034,-12.067 -60.948,-11.876 -2.565,0.025 22.302,29.055 -14.404,38.287 z"
                         style="fill:url(#linearGradient1826);stroke:none;opacity:0.33226982"
                         id="path1828" />
                    </g>
                  </g>
                </g>
              </g>
            </g>
          </g>
        </g>
        <g
           id="g1842"
           style="display:inline">
          <g
             id="g1844" />
          <g
             id="g1874">
            <g
               clip-path="url(#clipPath1848)"
               opacity="0.800003"
               id="g1872">
              <g
                 id="g1870">
                <g
                   id="g1868">
                  <g
                     id="g1866">
                    <g
                       id="g1864">
                      <path
                         d="m 147.754,227.125 c 0,-15.634 23.673,-92.589 33.401,-102.317 -11.65,4.697 -5.696,-32.848 -29.517,-15.5 -2.073,1.511 17.607,71.209 -12.949,68.101 z"
                         style="fill:url(#linearGradient1860);stroke:none;opacity:0.49680053"
                         id="path1862" />
                    </g>
                  </g>
                </g>
              </g>
            </g>
          </g>
        </g>
        <g
           id="g1876"
           style="display:inline">
          <g
             id="g1878" />
          <g
             id="g1890">
            <g
               clip-path="url(#clipPath1882)"
               opacity="0.100006"
               id="g1888">
              <g
                 transform="translate(58.269,46.082)"
                 id="g1886">
                <path
                   d="m 0,0 c 0.296,6.84 1.686,13.306 3.538,18.695 2.316,-12.934 6.02,-22.633 9.725,-34.491 0.926,-4.312 1.851,-8.622 0.462,-14.012 -2.315,-7.545 -6.019,-9.701 -9.261,-5.388 -16.208,18.323 -8.336,67.904 0.926,94.849 9.262,28.025 25.933,22.635 39.361,22.635 -8.335,0 -16.207,-2.155 -24.542,-3.233 16.67,5.388 39.361,-5.39 41.692,-52.2 0.839,-2.337 1.361,-3.297 0.769,-4.725 -2.359,-5.714 -0.464,-20.192 -4.566,-23.938 -1.337,-1.22 -2.578,-0.315 -3.679,1.65 1.904,16.697 5.608,37.177 -0.411,52.267 C 55.864,35.941 55.401,16.539 48.918,6.84 46.604,4.684 43.826,4.684 43.363,10.073 41.047,37.019 34.102,70.433 22.061,59.653 16.968,55.343 10.948,51.031 5.854,44.563 10.948,59.653 18.82,69.355 27.617,65.043 35.49,61.81 38.268,44.563 43.826,34.862 42.9,46.72 37.806,51.031 35.027,59.653 36.416,56.421 38.268,54.266 39.658,51.031 35.027,70.433 23.45,76.898 15.114,69.355 4.001,57.499 -2.019,31.629 -3.872,3.604 -4.797,-12.563 -2.019,-29.808 5.39,-34.12 c 2.779,-1.076 6.02,0 6.947,5.39 C 14.189,-16.873 5.854,-1.784 0.764,-5.012 0.436,-6.038 0.112,-5.298 0,0"
                   style="fill:#1b75bb;fill-opacity:1;fill-rule:nonzero;stroke:none"
                   id="path1884" />
              </g>
            </g>
          </g>
        </g>
        <g
           id="g1892"
           style="display:inline">
          <g
             id="g1894" />
          <g
             id="g1906">
            <g
               clip-path="url(#clipPath1898)"
               opacity="0.100006"
               id="g1904">
              <g
                 transform="translate(166.2324,112.541)"
                 id="g1902">
                <path
                   d="m 0,0 c 3.23,-11.226 2.182,-18.564 -6.209,-26.818 -7.34,-7.336 -3.146,-22.011 0,-33.933 2.099,9.171 4.193,19.26 13.632,25.68 -1.048,-4.586 -5.241,-9.172 -3.146,-14.676 5.242,-10.087 10.487,-19.26 12.583,-30.264 1.051,-9.172 12.584,-8.255 18.876,-2.752 4.196,4.584 3.146,11.923 3.146,17.425 1.05,7.339 11.533,7.339 15.73,3.671 2.095,-1.835 5.242,-3.671 5.242,-7.34 -3.147,3.669 -6.291,7.34 -12.582,7.34 5.243,0 8.388,-4.587 9.435,-7.34 6.294,-9.172 -2.095,-20.176 -11.533,-24.761 -15.73,-7.338 -33.557,-3.668 -46.139,6.421 -14.681,14.673 -33.555,22.927 -54.528,31.18 -3.147,1.837 -9.437,1.837 -11.535,6.42 19.923,-5.501 38.799,-11.92 53.479,-24.762 12.584,-11.921 28.313,-26.597 49.285,-22.01 12.584,2.751 25.166,12.839 19.924,24.762 -1.048,-6.422 -4.195,-12.839 -11.535,-17.426 -11.533,-6.419 -25.167,-5.503 -36.702,0.917 -22.02,13.757 -22.02,36.686 -35.652,54.112 0,-6.421 5.243,-11.924 6.291,-18.343 -15.729,10.087 -33.555,23.846 -28.314,42.187 C -46.054,8.032 -22.986,8.032 -5.771,2.783 -3.473,1.983 -1.663,1.006 0,0"
                   style="fill:#1b75bb;fill-opacity:1;fill-rule:nonzero;stroke:none"
                   id="path1900" />
              </g>
            </g>
          </g>
        </g>
        <g
           id="g1908"
           style="display:inline">
          <g
             id="g1910" />
          <g
             id="g1940">
            <g
               clip-path="url(#clipPath1914)"
               opacity="0.199997"
               id="g1938">
              <g
                 id="g1936">
                <g
                   id="g1934">
                  <g
                     id="g1932">
                    <g
                       id="g1930">
                      <path
                         d="m 119,104.75 c 0,-49.016 53.004,-95 32.5,-95 C 130.996,9.75 16.553,3.445 20.75,23 c 6.59,30.703 83.25,140.25 84.554,196.25 0.234,10.057 12.946,-3 21.196,2 C 122,179.5 119,153.765 119,104.75"
                         style="fill:url(#linearGradient1926);stroke:none"
                         id="path1928" />
                    </g>
                  </g>
                </g>
              </g>
            </g>
          </g>
        </g>
      </g>
    </g>
  </g>
  <metadata
     id="metadata1">
    <rdf:RDF>
      <cc:Work
         rdf:about="">
        <dc:creator>
          <cc:Agent>
            <dc:title>Jess Tipton</dc:title>
          </cc:Agent>
        </dc:creator>
        <dc:publisher>
          <cc:Agent>
            <dc:title>m0dw3rks.com</dc:title>
          </cc:Agent>
        </dc:publisher>
        <cc:license
           rdf:resource="https://creativecommons.org/licenses/by-nc-nd/4.0/deed.en" />
      </cc:Work>
    </rdf:RDF>
  </metadata>
  <metadata
     id="metadata6">
    <rdf:RDF>
      <cc:Work
         rdf:about="">
        <dc:creator>
          <cc:Agent>
            <dc:title>Jess Tipton</dc:title>
          </cc:Agent>
        </dc:creator>
        <cc:license
           rdf:resource="https://creativecommons.org/licenses/by-nc-nd/4.0/deed.en" />
        <dc:publisher>
          <cc:Agent>
            <dc:title>m0dw3rks.com</dc:title>
          </cc:Agent>
        </dc:publisher>
      </cc:Work>
    </rdf:RDF>
  </metadata>
  <metadata
     id="metadata6">
    <rdf:RDF>
      <cc:Work
         rdf:about="">
        <dc:creator>
          <cc:Agent>
            <dc:title>Jess Tipton</dc:title>
          </cc:Agent>
        </dc:creator>
        <cc:license
           rdf:resource="https://creativecommons.org/licenses/by-nc-nd/4.0/deed.en" />
        <dc:publisher>
          <cc:Agent>
            <dc:title>m0dw3rks.com</dc:title>
          </cc:Agent>
        </dc:publisher>
      </cc:Work>
    </rdf:RDF>
  </metadata>
  <metadata
     id="metadata6">
    <rdf:RDF>
      <cc:Work
         rdf:about="">
        <dc:creator>
          <cc:Agent>
            <dc:title>Jess Tipton</dc:title>
          </cc:Agent>
        </dc:creator>
        <cc:license
           rdf:resource="https://creativecommons.org/licenses/by-nc-nd/4.0/deed.en" />
        <dc:publisher>
          <cc:Agent>
            <dc:title>m0dw3rks.com</dc:title>
          </cc:Agent>
        </dc:publisher>
      </cc:Work>
    </rdf:RDF>
  </metadata>
  <metadata
     id="metadata6">
    <rdf:RDF>
      <cc:Work
         rdf:about="">
        <dc:creator>
          <cc:Agent>
            <dc:title>Jess Tipton</dc:title>
          </cc:Agent>
        </dc:creator>
        <cc:license
           rdf:resource="https://creativecommons.org/licenses/by-nc-nd/4.0/deed.en" />
        <dc:publisher>
          <cc:Agent>
            <dc:title>m0dw3rks.com</dc:title>
          </cc:Agent>
        </dc:publisher>
      </cc:Work>
    </rdf:RDF>
  </metadata>
  <metadata
     id="metadata6">
    <rdf:RDF>
      <cc:Work
         rdf:about="">
        <dc:creator>
          <cc:Agent>
            <dc:title>Jess Tipton</dc:title>
          </cc:Agent>
        </dc:creator>
        <cc:license
           rdf:resource="https://creativecommons.org/licenses/by-nc-nd/4.0/deed.en" />
        <dc:publisher>
          <cc:Agent>
            <dc:title>m0dw3rks.com</dc:title>
          </cc:Agent>
        </dc:publisher>
      </cc:Work>
    </rdf:RDF>
  </metadata>
  <metadata
     id="metadata6">
    <rdf:RDF>
      <cc:Work
         rdf:about="">
        <dc:creator>
          <cc:Agent>
            <dc:title>Jess Tipton</dc:title>
          </cc:Agent>
        </dc:creator>
        <cc:license
           rdf:resource="https://creativecommons.org/licenses/by-nc-nd/4.0/deed.en" />
        <dc:publisher>
          <cc:Agent>
            <dc:title>m0dw3rks.com</dc:title>
          </cc:Agent>
        </dc:publisher>
      </cc:Work>
    </rdf:RDF>
  </metadata>
  <metadata
     id="metadata6">
    <rdf:RDF>
      <cc:Work
         rdf:about="">
        <dc:creator>
          <cc:Agent>
            <dc:title>Jess Tipton</dc:title>
          </cc:Agent>
        </dc:creator>
        <cc:license
           rdf:resource="https://creativecommons.org/licenses/by-nc-nd/4.0/deed.en" />
        <dc:publisher>
          <cc:Agent>
            <dc:title>m0dw3rks.com</dc:title>
          </cc:Agent>
        </dc:publisher>
      </cc:Work>
    </rdf:RDF>
  </metadata>
  <metadata
     id="metadata6">
    <rdf:RDF>
      <cc:Work
         rdf:about="">
        <dc:creator>
          <cc:Agent>
            <dc:title>Jess Tipton</dc:title>
          </cc:Agent>
        </dc:creator>
        <cc:license
           rdf:resource="https://creativecommons.org/licenses/by-nc-nd/4.0/deed.en" />
        <dc:publisher>
          <cc:Agent>
            <dc:title>m0dw3rks.com</dc:title>
          </cc:Agent>
        </dc:publisher>
      </cc:Work>
    </rdf:RDF>
  </metadata>
  <metadata
     id="metadata6">
    <rdf:RDF>
      <cc:Work
         rdf:about="">
        <dc:creator>
          <cc:Agent>
            <dc:title>Jess Tipton</dc:title>
          </cc:Agent>
        </dc:creator>
        <cc:license
           rdf:resource="https://creativecommons.org/licenses/by-nc-nd/4.0/deed.en" />
        <dc:publisher>
          <cc:Agent>
            <dc:title>m0dw3rks.com</dc:title>
          </cc:Agent>
        </dc:publisher>
      </cc:Work>
    </rdf:RDF>
  </metadata>
  <metadata
     id="metadata6">
    <rdf:RDF>
      <cc:Work
         rdf:about="">
        <dc:creator>
          <cc:Agent>
            <dc:title>Jess Tipton</dc:title>
          </cc:Agent>
        </dc:creator>
        <cc:license
           rdf:resource="https://creativecommons.org/licenses/by-nc-nd/4.0/deed.en" />
        <dc:publisher>
          <cc:Agent>
            <dc:title>m0dw3rks.com</dc:title>
          </cc:Agent>
        </dc:publisher>
      </cc:Work>
    </rdf:RDF>
  </metadata>
  <metadata
     id="metadata6">
    <rdf:RDF>
      <cc:Work
         rdf:about="">
        <dc:creator>
          <cc:Agent>
            <dc:title>Jess Tipton</dc:title>
          </cc:Agent>
        </dc:creator>
        <cc:license
           rdf:resource="https://creativecommons.org/licenses/by-nc-nd/4.0/deed.en" />
        <dc:publisher>
          <cc:Agent>
            <dc:title>m0dw3rks.com</dc:title>
          </cc:Agent>
        </dc:publisher>
      </cc:Work>
    </rdf:RDF>
  </metadata>
  <metadata
     id="metadata6">
    <rdf:RDF>
      <cc:Work
         rdf:about="">
        <dc:creator>
          <cc:Agent>
            <dc:title>Jess Tipton</dc:title>
          </cc:Agent>
        </dc:creator>
        <cc:license
           rdf:resource="https://creativecommons.org/licenses/by-nc-nd/4.0/deed.en" />
        <dc:publisher>
          <cc:Agent>
            <dc:title>m0dw3rks.com</dc:title>
          </cc:Agent>
        </dc:publisher>
      </cc:Work>
    </rdf:RDF>
  </metadata>
  <metadata
     id="metadata6">
    <rdf:RDF>
      <cc:Work
         rdf:about="">
        <dc:creator>
          <cc:Agent>
            <dc:title>Jess Tipton</dc:title>
          </cc:Agent>
        </dc:creator>
        <cc:license
           rdf:resource="https://creativecommons.org/licenses/by-nc-nd/4.0/deed.en" />
        <dc:publisher>
          <cc:Agent>
            <dc:title>m0dw3rks.com</dc:title>
          </cc:Agent>
        </dc:publisher>
      </cc:Work>
    </rdf:RDF>
  </metadata>
  <metadata
     id="metadata6">
    <rdf:RDF>
      <cc:Work
         rdf:about="">
        <dc:creator>
          <cc:Agent>
            <dc:title>Jess Tipton</dc:title>
          </cc:Agent>
        </dc:creator>
        <cc:license
           rdf:resource="https://creativecommons.org/licenses/by-nc-nd/4.0/deed.en" />
        <dc:publisher>
          <cc:Agent>
            <dc:title>m0dw3rks.com</dc:title>
          </cc:Agent>
        </dc:publisher>
      </cc:Work>
    </rdf:RDF>
  </metadata>
  <metadata
     id="metadata6">
    <rdf:RDF>
      <cc:Work
         rdf:about="">
        <dc:creator>
          <cc:Agent>
            <dc:title>Jess Tipton</dc:title>
          </cc:Agent>
        </dc:creator>
        <cc:license
           rdf:resource="https://creativecommons.org/licenses/by-nc-nd/4.0/deed.en" />
        <dc:publisher>
          <cc:Agent>
            <dc:title>m0dw3rks.com</dc:title>
          </cc:Agent>
        </dc:publisher>
      </cc:Work>
    </rdf:RDF>
  </metadata>
  <metadata
     id="metadata6">
    <rdf:RDF>
      <cc:Work
         rdf:about="">
        <dc:creator>
          <cc:Agent>
            <dc:title>Jess Tipton</dc:title>
          </cc:Agent>
        </dc:creator>
        <cc:license
           rdf:resource="https://creativecommons.org/licenses/by-nc-nd/4.0/deed.en" />
        <dc:publisher>
          <cc:Agent>
            <dc:title>m0dw3rks.com</dc:title>
          </cc:Agent>
        </dc:publisher>
      </cc:Work>
    </rdf:RDF>
  </metadata>
  <metadata
     id="metadata6">
    <rdf:RDF>
      <cc:Work
         rdf:about="">
        <dc:creator>
          <cc:Agent>
            <dc:title>Jess Tipton</dc:title>
          </cc:Agent>
        </dc:creator>
        <cc:license
           rdf:resource="https://creativecommons.org/licenses/by-nc-nd/4.0/deed.en" />
        <dc:publisher>
          <cc:Agent>
            <dc:title>m0dw3rks.com</dc:title>
          </cc:Agent>
        </dc:publisher>
      </cc:Work>
    </rdf:RDF>
  </metadata>
</svg>
