<?xml version="1.0" encoding="UTF-8" standalone="no"?>
<!-- Created with Inkscape (http://www.inkscape.org/) -->

<svg
   sodipodi:docname="compass-E.svg"
   inkscape:version="1.3.2 (091e20ef0f, 2023-11-25, custom)"
   id="svg5"
   version="1.1"
   viewBox="0 0 135.46666 135.46667"
   height="512"
   width="512"
   xmlns:inkscape="http://www.inkscape.org/namespaces/inkscape"
   xmlns:sodipodi="http://sodipodi.sourceforge.net/DTD/sodipodi-0.dtd"
   xmlns:xlink="http://www.w3.org/1999/xlink"
   xmlns="http://www.w3.org/2000/svg"
   xmlns:svg="http://www.w3.org/2000/svg"
   xmlns:rdf="http://www.w3.org/1999/02/22-rdf-syntax-ns#"
   xmlns:cc="http://creativecommons.org/ns#"
   xmlns:dc="http://purl.org/dc/elements/1.1/">>
  <sodipodi:namedview
     id="namedview7"
     pagecolor="#505050"
     bordercolor="#ffffff"
     borderopacity="1"
     inkscape:showpageshadow="0"
     inkscape:pageopacity="0"
     inkscape:pagecheckerboard="1"
     inkscape:deskcolor="#505050"
     inkscape:document-units="mm"
     showgrid="false"
     inkscape:zoom="2.2428543"
     inkscape:cx="301.62459"
     inkscape:cy="322.80296"
     inkscape:window-width="3256"
     inkscape:window-height="1080"
     inkscape:window-x="1864"
     inkscape:window-y="0"
     inkscape:window-maximized="1"
     inkscape:current-layer="layer1"
     showguides="true" />
  <defs
     id="defs2">
    <linearGradient
       inkscape:collect="always"
       id="linearGradient1269">
      <stop
         style="stop-color:#000000;stop-opacity:0;"
         offset="0.83759558"
         id="stop1267" />
      <stop
         style="stop-color:#000000;stop-opacity:1;"
         offset="1"
         id="stop1265" />
    </linearGradient>
    <linearGradient
       inkscape:collect="always"
       id="linearGradient35655">
      <stop
         style="stop-color:#850000;stop-opacity:1;"
         offset="0"
         id="stop26513" />
      <stop
         style="stop-color:#940000;stop-opacity:1;"
         offset="0.48000002"
         id="stop35653" />
      <stop
         style="stop-color:#cb404a;stop-opacity:1;"
         offset="0.5"
         id="stop35659" />
      <stop
         style="stop-color:#c80000;stop-opacity:1;"
         offset="0.52000001"
         id="stop35651" />
    </linearGradient>
    <linearGradient
       inkscape:collect="always"
       id="linearGradient22417">
      <stop
         style="stop-color:#ffffff;stop-opacity:1;"
         offset="0"
         id="stop22413" />
      <stop
         style="stop-color:#ffffff;stop-opacity:0;"
         offset="1"
         id="stop22415" />
    </linearGradient>
    <linearGradient
       inkscape:collect="always"
       id="linearGradient81477">
      <stop
         style="stop-color:#000000;stop-opacity:1;"
         offset="0"
         id="stop81473" />
      <stop
         style="stop-color:#000000;stop-opacity:0.80000001;"
         offset="0.51943064"
         id="stop81481" />
      <stop
         style="stop-color:#000000;stop-opacity:0.1;"
         offset="1"
         id="stop81475" />
    </linearGradient>
    <linearGradient
       inkscape:collect="always"
       id="linearGradient68002">
      <stop
         style="stop-color:#000000;stop-opacity:1;"
         offset="0"
         id="stop67998" />
      <stop
         style="stop-color:#000000;stop-opacity:0;"
         offset="1"
         id="stop68000" />
    </linearGradient>
    <linearGradient
       inkscape:collect="always"
       id="linearGradient67867">
      <stop
         style="stop-color:#ffffff;stop-opacity:1;"
         offset="0"
         id="stop67863" />
      <stop
         style="stop-color:#ffffff;stop-opacity:0;"
         offset="1"
         id="stop67865" />
    </linearGradient>
    <linearGradient
       inkscape:collect="always"
       id="linearGradient52655">
      <stop
         style="stop-color:#b3b3b3;stop-opacity:1;"
         offset="0"
         id="stop52651" />
      <stop
         style="stop-color:#343434;stop-opacity:1;"
         offset="1"
         id="stop52653" />
    </linearGradient>
    <linearGradient
       inkscape:collect="always"
       id="linearGradient19235">
      <stop
         style="stop-color:#c8c4b7;stop-opacity:1;"
         offset="0"
         id="stop19231" />
      <stop
         style="stop-color:#b4afa6;stop-opacity:1;"
         offset="0.70917416"
         id="stop58668" />
      <stop
         style="stop-color:#818181;stop-opacity:1;"
         offset="1"
         id="stop19233" />
    </linearGradient>
    <linearGradient
       inkscape:collect="always"
       id="linearGradient1177">
      <stop
         style="stop-color:#000000;stop-opacity:1;"
         offset="0.83382565"
         id="stop1556" />
      <stop
         style="stop-color:#000000;stop-opacity:0;"
         offset="0.94255364"
         id="stop1175" />
      <stop
         style="stop-color:#000000;stop-opacity:1;"
         offset="1"
         id="stop1173" />
    </linearGradient>
    <radialGradient
       inkscape:collect="always"
       xlink:href="#linearGradient1177"
       id="radialGradient1179"
       cx="67.73333"
       cy="67.73333"
       fx="67.73333"
       fy="67.73333"
       r="67.73333"
       gradientUnits="userSpaceOnUse"
       gradientTransform="translate(9.0655518e-6)" />
    <filter
       inkscape:collect="always"
       style="color-interpolation-filters:sRGB"
       id="filter4515"
       x="-0.0076799364"
       y="-0.0076800638"
       width="1.0153599"
       height="1.0153601">
      <feGaussianBlur
         inkscape:collect="always"
         stdDeviation="0.41861073"
         id="feGaussianBlur4517" />
    </filter>
    <filter
       inkscape:collect="always"
       style="color-interpolation-filters:sRGB"
       id="filter4515-5"
       x="-0.01451988"
       y="-0.01452012"
       width="1.0290398"
       height="1.0290402">
      <feGaussianBlur
         inkscape:collect="always"
         stdDeviation="0.79143591"
         id="feGaussianBlur4517-6" />
    </filter>
    <filter
       inkscape:collect="always"
       style="color-interpolation-filters:sRGB"
       id="filter17468"
       x="-0.038488026"
       y="-0.020199414"
       width="1.0769761"
       height="1.0403988">
      <feGaussianBlur
         inkscape:collect="always"
         stdDeviation="1.1009925"
         id="feGaussianBlur17470" />
    </filter>
    <radialGradient
       inkscape:collect="always"
       xlink:href="#linearGradient19235"
       id="radialGradient19237"
       cx="67.733333"
       cy="67.733332"
       fx="67.733333"
       fy="67.733332"
       r="58.157727"
       gradientUnits="userSpaceOnUse" />
    <radialGradient
       inkscape:collect="always"
       xlink:href="#linearGradient52655"
       id="radialGradient52657"
       cx="-26.369703"
       cy="63.404297"
       fx="-26.369703"
       fy="63.404297"
       r="5"
       gradientUnits="userSpaceOnUse"
       gradientTransform="translate(93.969115,4.077041)" />
    <filter
       inkscape:collect="always"
       style="color-interpolation-filters:sRGB"
       id="filter65824"
       x="-0.14059584"
       y="-0.53495275"
       width="1.2811917"
       height="2.0699055">
      <feGaussianBlur
         inkscape:collect="always"
         stdDeviation="0.29674884"
         id="feGaussianBlur65826" />
    </filter>
    <filter
       inkscape:collect="always"
       style="color-interpolation-filters:sRGB"
       id="filter67489"
       x="-0.07325653"
       y="-0.25672461"
       width="1.1465131"
       height="1.5134492">
      <feGaussianBlur
         inkscape:collect="always"
         stdDeviation="0.20309955"
         id="feGaussianBlur67491" />
    </filter>
    <radialGradient
       inkscape:collect="always"
       xlink:href="#linearGradient67867"
       id="radialGradient67869"
       cx="16.018454"
       cy="91.827072"
       fx="16.018454"
       fy="91.827072"
       r="3.8143706"
       gradientTransform="matrix(1,0,0,0.37667575,0,57.238041)"
       gradientUnits="userSpaceOnUse" />
    <radialGradient
       inkscape:collect="always"
       xlink:href="#linearGradient68002"
       id="radialGradient68004"
       cx="-50.616932"
       cy="44.295559"
       fx="-50.616932"
       fy="44.295559"
       r="3.2449793"
       gradientTransform="matrix(1,0,0,0.42461316,0,25.487082)"
       gradientUnits="userSpaceOnUse" />
    <radialGradient
       inkscape:collect="always"
       xlink:href="#linearGradient81477"
       id="radialGradient81479"
       cx="68.128578"
       cy="69.06884"
       fx="68.128578"
       fy="69.06884"
       r="6.9199997"
       gradientUnits="userSpaceOnUse" />
    <filter
       inkscape:collect="always"
       style="color-interpolation-filters:sRGB"
       id="filter81624"
       x="-0.192"
       y="-0.192"
       width="1.384"
       height="1.384">
      <feGaussianBlur
         inkscape:collect="always"
         stdDeviation="0.8"
         id="feGaussianBlur81626" />
    </filter>
    <filter
       inkscape:collect="always"
       style="color-interpolation-filters:sRGB"
       id="filter18935"
       x="-0.0043200001"
       y="-0.0043200001"
       width="1.00864"
       height="1.00864">
      <feGaussianBlur
         inkscape:collect="always"
         stdDeviation="0.19743724"
         id="feGaussianBlur18937" />
    </filter>
    <radialGradient
       inkscape:collect="always"
       xlink:href="#linearGradient22417"
       id="radialGradient22419"
       cx="47.838009"
       cy="57.521496"
       fx="47.838009"
       fy="57.521496"
       r="5.0002618"
       gradientTransform="matrix(0.7381295,-0.42615927,0.42271429,0.73216262,7.4868916,45.223331)"
       gradientUnits="userSpaceOnUse" />
    <filter
       inkscape:collect="always"
       style="color-interpolation-filters:sRGB"
       id="filter22765"
       x="-0.0218159"
       y="-0.02551288"
       width="1.0436318"
       height="1.0510258">
      <feGaussianBlur
         inkscape:collect="always"
         stdDeviation="0.074618342"
         id="feGaussianBlur22767" />
    </filter>
    <linearGradient
       inkscape:collect="always"
       xlink:href="#linearGradient35655"
       id="linearGradient35657"
       x1="19.626329"
       y1="56.658048"
       x2="34.087466"
       y2="56.658048"
       gradientUnits="userSpaceOnUse"
       gradientTransform="matrix(-0.00548657,-0.99998495,-0.99998495,0.00548657,123.92296,94.108328)" />
    <radialGradient
       inkscape:collect="always"
       xlink:href="#linearGradient1269"
       id="radialGradient1271"
       cx="67.733336"
       cy="67.733335"
       fx="67.733336"
       fy="67.733335"
       r="55.317529"
       gradientTransform="translate(0)"
       gradientUnits="userSpaceOnUse" />
    <filter
       style="color-interpolation-filters:sRGB;"
       inkscape:label="Noise Fill"
       id="filter3"
       x="0"
       y="0"
       width="1"
       height="1">
      <feTurbulence
         type="fractalNoise"
         baseFrequency="20 40"
         numOctaves="5"
         seed="1"
         result="turbulence"
         id="feTurbulence2" />
      <feComposite
         in="SourceGraphic"
         in2="turbulence"
         operator="in"
         result="composite1"
         id="feComposite2" />
      <feColorMatrix
         values="1 0 0 0 0 0 1 0 0 0 0 0 1 0 0 0 0 0 3 -1 "
         result="color"
         id="feColorMatrix2" />
      <feFlood
         flood-opacity="1"
         flood-color="rgb(193,162,67)"
         result="flood"
         id="feFlood2" />
      <feMerge
         result="merge"
         id="feMerge3">
        <feMergeNode
           in="flood"
           id="feMergeNode2" />
        <feMergeNode
           in="color"
           id="feMergeNode3" />
      </feMerge>
      <feComposite
         in2="SourceGraphic"
         operator="in"
         result="fbSourceGraphic"
         id="feComposite3" />
      <feColorMatrix
         result="fbSourceGraphicAlpha"
         in="fbSourceGraphic"
         values="0 0 0 -1 0 0 0 0 -1 0 0 0 0 -1 0 0 0 0 1 0"
         id="feColorMatrix3" />
      <feTurbulence
         id="feTurbulence3"
         type="fractalNoise"
         baseFrequency="20 40"
         numOctaves="5"
         seed="1"
         result="turbulence"
         in="fbSourceGraphic" />
      <feComposite
         id="feComposite4"
         in="fbSourceGraphic"
         in2="turbulence"
         operator="in"
         result="composite1" />
      <feColorMatrix
         id="feColorMatrix4"
         values="1 0 0 0 0 0 1 0 0 0 0 0 1 0 0 0 0 0 3 -1 "
         result="color" />
      <feFlood
         id="feFlood4"
         flood-opacity="1"
         flood-color="rgb(193,162,67)"
         result="flood" />
      <feMerge
         id="feMerge4"
         result="merge">
        <feMergeNode
           id="feMergeNode4"
           in="flood" />
        <feMergeNode
           id="feMergeNode5"
           in="color" />
      </feMerge>
      <feComposite
         id="feComposite5"
         in2="fbSourceGraphic"
         operator="in"
         result="composite2" />
    </filter>
    <filter
       inkscape:collect="always"
       style="color-interpolation-filters:sRGB"
       id="filter1"
       x="-0.02815785"
       y="-0.16253308"
       width="1.0563157"
       height="1.3250662">
      <feGaussianBlur
         inkscape:collect="always"
         stdDeviation="0.97980672"
         id="feGaussianBlur1" />
    </filter>
  </defs>
  <g
     inkscape:label="Layer 1"
     inkscape:groupmode="layer"
     id="layer1">
    <circle
       style="display:inline;fill:#717171;fill-opacity:1;stroke-width:6.00001;stroke-linecap:round;stroke-linejoin:round;paint-order:fill markers stroke"
       id="path785-5"
       cx="67.73333"
       cy="67.73333"
       r="67.73333"
       sodipodi:insensitive="true" />
    <circle
       style="display:inline;fill:url(#radialGradient1179);fill-opacity:1;stroke-width:6.00001;stroke-linecap:round;stroke-linejoin:round;paint-order:fill markers stroke"
       id="path785"
       cx="67.73333"
       cy="67.73333"
       r="67.73333"
       sodipodi:insensitive="true" />
    <path
       style="color:#000000;display:inline;opacity:1;mix-blend-mode:normal;fill:#ffffff;stroke-width:1.11508;stroke-linecap:round;stroke-linejoin:round;-inkscape-stroke:none;paint-order:fill markers stroke;filter:url(#filter4515)"
       d="m 67.733339,1.2676165 c -36.117169,0 -65.4084736,29.2913015 -65.4084736,65.4084705 0,36.117163 29.2913046,65.406293 65.4084736,65.406293 36.117171,0 65.408461,-29.28913 65.408461,-65.406293 0,-36.117169 -29.29129,-65.4084705 -65.408461,-65.4084705 z m 0,1.1150781 c 35.514531,0 64.293381,28.7788544 64.293381,64.2933924 0,35.514543 -28.77885,64.291213 -64.293381,64.291213 -35.514537,0 -64.2933962,-28.77667 -64.2933962,-64.291213 0,-35.514538 28.7788592,-64.2933924 64.2933962,-64.2933924 z"
       id="path3059"
       sodipodi:insensitive="true" />
    <path
       style="color:#000000;display:inline;mix-blend-mode:normal;fill:#ffffff;stroke-width:1.11508;stroke-linecap:round;stroke-linejoin:round;-inkscape-stroke:none;paint-order:fill markers stroke;filter:url(#filter4515-5)"
       d="m -33.856591,-42.639707 c -36.117169,0 -65.408474,29.291302 -65.408474,65.408471 0,36.117169 29.291305,65.406299 65.408474,65.406299 36.117171,0 65.408461,-29.28913 65.408461,-65.406299 0,-36.117169 -29.29129,-65.408471 -65.408461,-65.408471 z m 0,1.115078 c 35.514531,0 64.293381,28.778855 64.293381,64.293393 0,35.514549 -28.77885,64.291219 -64.293381,64.291219 -35.514537,0 -64.293396,-28.77667 -64.293396,-64.291219 0,-35.514538 28.778859,-64.293393 64.293396,-64.293393 z"
       id="path3059-2"
       transform="matrix(0,0.95548654,-0.90977764,0,88.446861,99.984377)"
       sodipodi:insensitive="true" />
    <path
       style="color:#000000;display:inline;fill:url(#radialGradient19237);fill-opacity:1;stroke-linecap:round;stroke-linejoin:round;-inkscape-stroke:none;paint-order:fill markers stroke"
       d="M 125.89106,67.733335 A 58.15773,58.15773 0 0 1 67.733337,125.89106 58.15773,58.15773 0 0 1 9.5756068,67.733335 58.15773,58.15773 0 0 1 67.733337,9.5756049 58.15773,58.15773 0 0 1 125.89106,67.733335 Z"
       id="path3057"
       inkscape:label="plain face"
       sodipodi:insensitive="true" />
    <path
       style="color:#000000;display:inline;opacity:0.6;mix-blend-mode:soft-light;fill:#ffffff;fill-opacity:1;stroke-linecap:round;stroke-linejoin:round;-inkscape-stroke:none;paint-order:fill markers stroke;filter:url(#filter3)"
       d="M 125.89106,67.733335 A 58.15773,58.15773 0 0 1 67.733337,125.89106 58.15773,58.15773 0 0 1 9.5756068,67.733335 58.15773,58.15773 0 0 1 67.733337,9.5756063 58.15773,58.15773 0 0 1 125.89106,67.733335 Z"
       id="path2"
       inkscape:label="noise face" />
    <path
       id="rect928"
       style="display:none;opacity:0.08;fill:#000000;stroke-width:0.226171;stroke-linecap:round;stroke-linejoin:round;paint-order:fill markers stroke"
       d="m 53.265483,12.889653 -0.424781,0.114204 3.059762,11.418942 a 44.924706,44.924706 0 0 1 0.42168,-0.125574 z m 28.934668,0 -3.053561,11.395686 a 44.924706,44.924706 0 0 1 0.425814,0.115756 l 3.05356,-11.397238 z m -42.636158,5.61361 -0.381372,0.220142 5.916435,10.245886 a 44.924706,44.924706 0 0 1 0.377238,-0.224792 z m 56.337647,0 -5.898865,10.218498 a 44.924706,44.924706 0 0 1 0.381889,0.218075 l 5.898348,-10.216431 z m -68.119356,8.967928 -0.311093,0.311093 8.35918,8.359696 c 0.100423,-0.107109 0.201355,-0.213758 0.302824,-0.319877 z m 79.902096,5.17e-4 -8.343674,8.34316 c 0.104717,0.102821 0.208939,0.206217 0.312643,0.310059 L 107.99496,27.7828 Z m -88.960975,11.71143 -0.220142,0.381372 10.240719,5.912301 a 44.924706,44.924706 0 0 1 0.225309,-0.378272 z m 98.019855,0 -10.21695,5.898865 a 44.924706,44.924706 0 0 1 0.2186,0.382405 L 116.9634,39.56451 Z M 13.004374,52.840702 12.889653,53.265999 24.297225,56.32266 a 44.924706,44.924706 0 0 1 0.12609,-0.422196 z m 109.457916,5.17e-4 -11.39672,3.05356 a 44.924706,44.924706 0 0 1 0.11576,0.424781 l 11.39517,-3.053561 z m -98.165065,26.302787 -11.407572,3.056661 0.114721,0.425297 11.418941,-3.059761 a 44.924706,44.924706 0 0 1 -0.12609,-0.422197 z m 86.872215,0 a 44.924706,44.924706 0 0 1 -0.12557,0.422197 l 11.41842,3.059245 0.11472,-0.424781 z m -4.44676,10.845333 a 44.924706,44.924706 0 0 1 -0.2253,0.378272 l 10.24588,5.915918 0.22014,-0.381372 z m -77.978698,5.17e-4 -10.240719,5.912301 0.220142,0.381372 10.245886,-5.915402 a 44.924706,44.924706 0 0 1 -0.225309,-0.378271 z m 70.892314,9.334314 c -0.100486,0.107346 -0.201806,0.21404 -0.303341,0.320394 l 8.350915,8.350916 0.31161,-0.31161 z m -63.81471,0.0093 -8.350395,8.3504 0.311609,0.31161 8.35918,-8.359703 C 36.034721,99.53544 35.927856,99.434858 35.821586,99.333472 Z m 9.27747,7.16391 -5.916435,10.24588 0.381372,0.22014 5.912301,-10.24123 a 44.924706,44.924706 0 0 1 -0.377238,-0.22479 z m 45.268038,0 a 44.924706,44.924706 0 0 1 -0.377238,0.22479 l 5.911784,10.24123 0.381372,-0.22014 z m -10.800891,4.54597 a 44.924706,44.924706 0 0 1 -0.422197,0.12609 l 3.056145,11.40757 0.425813,-0.1142 z m -23.665739,5.2e-4 -3.059762,11.41894 0.424781,0.1142 3.056661,-11.40757 a 44.924706,44.924706 0 0 1 -0.42168,-0.12557 z"
       inkscape:label="degrees" />
    <path
       id="rect928-9"
       style="display:inline;opacity:0.28;fill:url(#radialGradient1271);stroke-width:0.226171;stroke-linecap:round;stroke-linejoin:round;paint-order:fill markers stroke;filter:url(#filter18935);fill-opacity:1"
       d="m 53.265489,12.889655 -0.42478,0.114204 3.05976,11.418942 a 44.924706,44.924706 0 0 1 0.42168,-0.125574 z m 28.93467,0 -3.05356,11.395686 a 44.924706,44.924706 0 0 1 0.42581,0.115756 l 3.05356,-11.397238 z m -42.636162,5.61361 -0.381372,0.220142 5.916435,10.245886 a 44.924706,44.924706 0 0 1 0.377238,-0.224792 z m 56.337652,0 -5.89887,10.218498 a 44.924706,44.924706 0 0 1 0.38189,0.218075 l 5.89835,-10.216431 z m -68.119361,8.967928 -0.311093,0.311093 8.35918,8.359696 c 0.100423,-0.107109 0.201355,-0.213758 0.302824,-0.319877 z m 79.902092,5.17e-4 -8.343671,8.34316 c 0.10472,0.102821 0.20894,0.206217 0.31264,0.310059 l 8.341621,-8.342127 z m -88.960971,11.71143 -0.220142,0.381372 10.240719,5.912301 a 44.924706,44.924706 0 0 1 0.225309,-0.378272 z m 98.019851,0 -10.21695,5.898865 a 44.924706,44.924706 0 0 1 0.2186,0.382405 l 10.21849,-5.899898 z m -103.738882,13.657564 -0.114721,0.425297 11.407572,3.056661 a 44.924706,44.924706 0 0 1 0.12609,-0.422196 z m 109.457912,5.17e-4 -11.39672,3.05356 a 44.924706,44.924706 0 0 1 0.11576,0.424781 l 11.39517,-3.053561 z m -98.165061,26.302787 -11.407572,3.056661 0.114721,0.425297 11.418941,-3.059761 a 44.924706,44.924706 0 0 1 -0.12609,-0.422197 z m 86.872211,0 a 44.924706,44.924706 0 0 1 -0.12557,0.422197 l 11.41842,3.059245 0.11472,-0.424781 z m -4.44676,10.845333 a 44.924706,44.924706 0 0 1 -0.2253,0.378272 l 10.24588,5.915918 0.22014,-0.381372 z m -77.978694,5.17e-4 -10.240719,5.912301 0.220142,0.381372 10.245886,-5.915402 a 44.924706,44.924706 0 0 1 -0.225309,-0.378271 z m 70.892313,9.334314 c -0.10049,0.107346 -0.20181,0.21404 -0.30334,0.320394 l 8.350911,8.350914 0.31162,-0.31161 z m -63.814709,0.0093 -8.350395,8.350398 0.311609,0.31161 8.35918,-8.359701 C 36.034725,99.535442 35.92786,99.43486 35.82159,99.333474 Z m 9.27747,7.163908 -5.916435,10.24588 0.381372,0.22014 5.912301,-10.24123 a 44.924706,44.924706 0 0 1 -0.377238,-0.22479 z m 45.268039,0 a 44.924706,44.924706 0 0 1 -0.37724,0.22479 l 5.91179,10.24123 0.38137,-0.22014 z m -10.80089,4.54597 a 44.924706,44.924706 0 0 1 -0.4222,0.12609 l 3.05615,11.40757 0.42581,-0.1142 z m -23.66574,5.2e-4 -3.05976,11.41894 0.42478,0.1142 3.05666,-11.40757 a 44.924706,44.924706 0 0 1 -0.42168,-0.12557 z"
       inkscape:label="degrees"
       sodipodi:insensitive="true" />
    <path
       id="path15033"
       style="color:#000000;display:inline;mix-blend-mode:normal;fill:#000000;fill-opacity:1;stroke-width:1.11508;stroke-linecap:round;stroke-linejoin:round;paint-order:fill markers stroke;filter:url(#filter17468)"
       transform="matrix(0,1.2720198,-0.98109741,0,90.070641,91.769419)"
       d="m -33.85674,-41.524386 c 35.5144239,0 64.2935,28.77868 64.2935,64.29311 0,35.514444 -28.7790761,64.291003 -64.2935,64.291003 -1.08878,0 -2.170702,-0.02978 -3.245977,-0.08375 l 3.245977,1.199349 c 36.1170621,0 65.40867,-29.289537 65.40867,-65.406598 0,-36.117061 -29.2916079,-65.408177 -65.40867,-65.408177 0,0 0,1.115063 0,1.11506 z"
       sodipodi:nodetypes="cssccsccc"
       sodipodi:insensitive="true" />
    <path
       id="path18292"
       style="color:#000000;display:inline;mix-blend-mode:normal;fill:#000000;fill-opacity:1;stroke-width:1.11508;stroke-linecap:round;stroke-linejoin:round;paint-order:fill markers stroke;filter:url(#filter17468)"
       transform="matrix(0,1.2720198,-0.98109741,0,90.070641,91.769419)"
       d="m -33.85674,-41.524386 c 35.5144239,0 64.2935,28.77868 64.2935,64.29311 0,35.514444 -28.7790761,64.291003 -64.2935,64.291003 -1.08878,0 -2.170702,-0.02978 -3.245977,-0.08375 l 3.245977,1.199349 c 36.1170621,0 65.40867,-29.289537 65.40867,-65.406598 0,-36.117061 -29.2916079,-65.408177 -65.40867,-65.408177 0,0 0,1.115063 0,1.11506 z"
       sodipodi:nodetypes="cssccsccc"
       sodipodi:insensitive="true" />
    <g
       aria-label="N"
       id="text18735"
       style="font-size:18.2085px;line-height:1.25;font-family:'1952 RHEINMETALL';-inkscape-font-specification:'1952 RHEINMETALL, Normal';display:inline;opacity:0.28;stroke-width:0.455212">
      <path
         d="m 73.699122,12.841239 q -1.627029,0.151145 -1.627029,5.343413 v 6.010227 h -0.417871 l -7.67282,-10.366753 v 3.307403 q 0,2.302735 0.160036,3.458548 0.355635,2.622807 1.484775,2.76506 v 0.426762 h -3.858637 v -0.426762 q 1.618138,-0.248944 1.618138,-6.125808 v -3.06735 q 0,-0.746833 -0.293399,-1.02245 -0.284508,-0.284508 -1.040231,-0.30229 v -0.426761 h 2.916205 l 6.463662,8.686379 v -2.640588 q 0,-5.450103 -1.618139,-5.61903 v -0.426761 h 3.88531 z"
         style="font-family:Andalus;-inkscape-font-specification:'Andalus, Normal'"
         id="path842" />
    </g>
    <g
       aria-label="S"
       id="text18735-4"
       style="font-size:18.2085px;line-height:1.25;font-family:'1952 RHEINMETALL';-inkscape-font-specification:'1952 RHEINMETALL, Normal';display:inline;opacity:0.28;stroke-width:0.455212">
      <path
         d="m 71.138546,119.47801 q 0,1.49367 -1.378085,2.56947 -1.280285,1.00466 -2.818405,1.00466 -1.164704,0 -2.613916,-0.56012 v -3.20071 h 0.631252 q 0,1.22694 0.693488,2.15159 0.755724,1.01356 1.9471,1.01356 0.942432,0 1.538121,-0.55124 0.595688,-0.56012 0.595688,-1.49366 0,-0.96911 -0.897978,-1.81374 -0.364526,-0.33785 -1.715938,-1.23583 -1.138031,-0.75573 -1.689265,-1.22694 -0.373416,-0.32007 -0.61347,-0.83574 -0.213381,-0.44455 -0.213381,-0.93355 0,-1.39586 1.298067,-2.34718 1.173595,-0.85353 2.622807,-0.85353 0.791287,0 2.107136,0.45344 v 2.79173 h -0.649034 q -0.06224,-1.05801 -0.631252,-1.80485 -0.631251,-0.83574 -1.64481,-0.83574 -0.737942,0 -1.235831,0.44454 -0.50678,0.47122 -0.50678,1.20027 0,0.90687 1.031341,1.83152 0.382308,0.34674 1.778174,1.28029 1.22694,0.81796 1.600356,1.20026 0.764615,0.77351 0.764615,1.7515 z"
         style="font-family:Andalus;-inkscape-font-specification:'Andalus, Normal'"
         id="path845" />
    </g>
    <g
       aria-label="E"
       id="text18735-9"
       style="font-size:18.2085px;line-height:1.25;font-family:'1952 RHEINMETALL';-inkscape-font-specification:'1952 RHEINMETALL, Normal';display:inline;opacity:0.28;stroke-width:0.455212">
      <path
         d="m 123.78121,70.173859 -0.72905,3.663038 h -0.44454 q -0.009,-0.391198 -0.33785,-0.391198 h -6.48145 v -0.426762 q 0.80018,-0.0089 1.0758,-0.30229 0.27561,-0.302289 0.27561,-1.111358 v -7.690602 q 0,-0.800178 -0.2845,-1.093577 -0.27562,-0.302289 -1.06691,-0.320071 v -0.426762 h 6.34808 q 0.57791,0 0.59569,-0.444543 h 0.41787 v 3.396312 h -0.64903 q -0.0356,-2.525007 -3.04068,-2.525007 h -0.6757 q -0.10669,0.969105 -0.10669,1.733719 0,2.96066 2.49833,2.96066 h 0.8713 v 0.622361 l -3.26294,0.08891 v 5.11225 h 0.94243 q 2.98733,0 3.42298,-2.845078 z"
         style="font-family:Andalus;-inkscape-font-specification:'Andalus, Normal'"
         id="path848" />
    </g>
    <g
       aria-label="W"
       id="text18735-9-1"
       style="font-size:18.2085px;line-height:1.25;font-family:'1952 RHEINMETALL';-inkscape-font-specification:'1952 RHEINMETALL, Normal';display:inline;opacity:0.28;stroke-width:0.455212">
      <path
         d="m 28.818169,62.265428 q -0.969105,0.01778 -1.947101,2.471662 l -3.556347,8.890869 h -0.533452 l -2.578352,-7.512785 q -0.871306,1.555902 -1.404758,2.907314 l -1.813737,4.605471 h -0.51567 L 13.472529,64.790435 Q 12.87684,63.021152 12.316716,62.549936 12.005535,62.292101 11.685464,62.265428 v -0.426762 h 3.102913 v 0.426762 q -0.328962,0.0089 -0.328962,0.293399 0,0.07113 0.03556,0.177817 l 2.818405,8.339635 1.484775,-3.734165 q 0.649034,-1.63592 0.649034,-3.111804 0,-1.884864 -1.493666,-1.964882 v -0.426762 h 3.147367 v 0.426762 q -0.382307,0.0089 -0.382307,0.284508 0,0.08002 0.03556,0.186708 l 2.853969,8.339635 1.813738,-4.596579 q 0.835741,-2.116027 0.835741,-3.014005 0,-0.711269 -0.373416,-0.969104 -0.30229,-0.213381 -1.066904,-0.231163 v -0.426762 h 4.000891 z"
         style="font-family:Andalus;-inkscape-font-specification:'Andalus, Normal'"
         id="path851" />
    </g>
    <g
       id="g50357"
       style="display:inline;opacity:1;fill:#6a654e;fill-opacity:1"
       transform="matrix(0.8744981,0,0,0.8744981,8.500661,8.500661)"
       inkscape:label="center"
       sodipodi:insensitive="true">
      <path
         id="rect23497"
         style="display:inline;fill:#827f79;fill-opacity:1;stroke-width:0.386479;stroke-linecap:round;stroke-linejoin:round;paint-order:fill markers stroke"
         d="m 32.612194,32.612194 c 0,0 1.601239,10.9302 9.330142,18.659103 5.525922,5.525923 9.548364,7.413634 12.334414,7.099394 -1.009915,1.450723 -1.79226,3.071491 -2.293977,4.810735 l -18.205272,4.551318 18.205272,4.551317 c 0.501871,1.739869 1.284808,3.360679 2.295159,4.811917 -2.786143,-0.314948 -6.809494,1.572111 -12.336187,7.098803 -7.728901,7.728903 -9.329551,18.659699 -9.329551,18.659699 0,0 10.9302,-1.60124 18.659103,-9.330147 5.520872,-5.520871 7.409915,-9.540969 7.099985,-12.326732 1.460963,1.021213 3.095221,1.811327 4.849736,2.315842 l 4.537726,18.149727 4.537727,-18.149727 c 1.732731,-0.498312 3.347512,-1.27583 4.79478,-2.278614 -0.289088,2.784365 1.607222,6.793786 7.10353,12.290095 7.728903,7.728906 18.659699,9.329556 18.659699,9.329556 0,0 -1.60124,-10.930205 -9.330147,-18.659108 -5.490102,-5.490103 -9.496114,-7.38849 -12.280049,-7.104712 1.01139,-1.453437 1.794428,-3.077022 2.29575,-4.819599 L 101.68917,67.733925 83.541216,63.19679 c -0.501139,-1.742894 -1.284315,-3.367168 -2.29575,-4.820781 2.783937,0.283174 6.790127,-1.614791 12.279458,-7.104121 7.728906,-7.728903 9.329556,-18.659694 9.329556,-18.659694 0,0 -10.930205,1.601239 -18.659108,9.330142 -5.495539,5.495538 -7.392506,9.504054 -7.104121,12.288322 -1.44718,-1.002485 -3.062187,-1.779268 -4.79478,-2.277432 L 67.758744,33.803502 63.221018,51.953226 c -1.754512,0.504396 -3.388772,1.294234 -4.849736,2.315252 0.30965,-2.785791 -1.578909,-6.806247 -7.099394,-12.326733 -7.728903,-7.728901 -18.659694,-9.329551 -18.659694,-9.329551 z m 1.398723,1.398723 21.626738,21.626738 C 53.356399,57.918919 49.115865,57.37702 42.272073,50.53323 35.428278,43.689437 34.010917,34.010917 34.010917,34.010917 Z m 67.444833,0 -21.626736,21.626738 c -2.281264,-2.281256 -1.739365,-6.52179 5.104426,-13.365582 6.843792,-6.843795 16.52231,-8.261156 16.52231,-8.261156 z m -33.697006,1.018167 v 16.287123 h -0.0012 c -1.166995,0 -2.305328,0.123068 -3.403739,0.355147 H 63.59801 Z m -0.0012,17.705348 c 8.292282,0 15.000084,6.705472 15.000084,14.997721 0,8.292245 -6.707841,15.000084 -15.000084,15.000084 -8.292242,0 -14.997721,-6.707801 -14.997721,-15.000084 0,-8.292288 6.70544,-14.997721 14.997721,-14.997721 z M 83.821315,63.57321 100.46359,67.733925 H 84.177644 v -0.0018 c 0,-1.16889 -0.123403,-2.308996 -0.356329,-3.409057 z m -48.818231,4.159534 h 16.338533 c 3.8e-5,1.076686 0.105353,2.12931 0.303737,3.148457 v 1.012258 z m 47.72679,10.885461 c 2.443208,-0.03621 5.866549,1.717063 10.464722,6.315235 6.843794,6.843792 8.261154,16.52231 8.261154,16.52231 L 79.829014,79.829014 c 0.748537,-0.748539 1.707665,-1.193127 2.90086,-1.210809 z m -27.092219,1.210809 c 2.281264,2.281256 1.739365,6.52179 -5.104425,13.365582 -6.843793,6.843794 -16.522313,8.261154 -16.522313,8.261154 z m 15.524237,3.966301 H 71.91946 L 67.758744,100.43758 V 84.150462 c 1.166586,-8.3e-5 2.304993,-0.123091 3.403148,-0.355147 z" />
      <path
         id="text18735-5"
         style="font-style:normal;font-variant:normal;font-weight:normal;font-stretch:normal;font-size:20.8216px;line-height:1.25;font-family:'1952 RHEINMETALL';-inkscape-font-specification:'1952 RHEINMETALL, Normal';font-variant-ligatures:normal;font-variant-caps:normal;font-variant-numeric:normal;font-variant-east-asian:normal;display:inline;opacity:1;fill:#747168;fill-opacity:1;stroke:none;stroke-width:0.455212"
         d="m 63.414509,12.958626 c 0.09073,0.02504 -0.100323,-0.108792 0,0 z m 0.848878,0.640501 7.253893,9.800528 C 71.47884,22.795558 71.695416,22.107083 71.152178,21.67 c -2.168996,-2.915975 -4.338655,-5.831457 -6.507906,-8.747242 -0.659759,-0.06693 -1.130206,-0.03843 -0.465216,0.562393 l 0.05201,0.0703 z m 6.502371,-0.618297 c 0.596324,0.755555 0.755825,1.743877 0.886454,2.671318 0.130422,-0.95183 0.291439,-1.979979 0.942819,-2.72939 H 70.709394 Z M 62.61687,23.368911 h 1.931753 c -0.66778,-0.764569 -0.748754,-1.456954 -0.866485,-2.522063 -0.06259,0.985864 -0.263861,1.583727 -1.065268,2.522063 z m -24.137513,14.59202 c 6.416122,6.417254 12.83451,12.83224 19.249206,19.250915 -0.971813,1.126362 -2.499491,1.720365 -3.973771,1.460595 -0.604252,-0.0578 -1.420325,-0.344581 -1.831732,-0.504112 1.485868,0.781634 3.232209,1.28266 4.893452,0.783365 0.676754,-0.403845 1.392478,-0.959076 1.784841,-1.702272 0.382089,-0.359989 0.31265,-1.018529 0.41181,-1.522093 0.0488,-2.382119 -1.386729,-4.547511 -2.705392,-6.339624 -2.536722,-3.306038 -5.620674,-6.250789 -9.309307,-8.238175 -2.713935,-1.503944 -5.643775,-2.60582 -8.659167,-3.328655 0.0467,0.04668 0.09337,0.09337 0.14006,0.140056 z m 58.980798,0.655874 c -6.417255,6.41612 -12.83224,12.834512 -19.250915,19.249206 -1.127591,-0.972478 -1.720623,-2.501929 -1.460434,-3.977169 0.0793,-0.63831 0.287658,-1.285219 0.521032,-1.860789 -0.785281,1.48134 -1.29131,3.22363 -0.813666,4.885792 0.414154,0.721914 0.999012,1.472005 1.790644,1.865948 0.328648,0.352898 0.938312,0.267701 1.399044,0.367276 2.386732,0.0632 4.503506,-1.322232 6.356371,-2.679047 3.362144,-2.571608 6.350103,-5.712519 8.346291,-9.471948 1.463961,-2.674406 2.542116,-5.553783 3.249978,-8.517617 -0.04609,0.04611 -0.09223,0.09223 -0.138345,0.138348 z M 68.126892,53.73264 c 0.0078,0.371893 0.880513,0.05339 0.918367,0.332437 0.550743,-0.141056 0.721308,0.08079 0.710082,-0.17447 0.364747,-0.234963 1.381958,-0.04802 1.249078,-0.518373 L 68.126892,41.867135 Z M 14.606486,67.006749 c 0.680779,2.008209 1.36155,4.016419 2.042329,6.024629 0.155311,-0.496207 0.569115,-0.986027 0.224921,-1.494576 -0.97928,-2.935896 -2.00525,-5.859705 -2.956022,-8.802981 -0.168227,-0.493743 -0.909716,-0.371228 -1.081138,-0.376356 0.321659,0.397623 1.320489,3.616321 1.76991,4.649284 z m 4.590669,-4.619651 c 0.914279,1.029119 0.634116,2.551319 0.384307,3.781522 0.229608,-0.211223 0.543186,-1.471682 0.708667,-0.908207 0.893081,2.599894 1.785489,5.200018 2.678299,7.800003 0.199316,-0.514137 0.545215,-1.024518 0.19148,-1.552824 -0.988952,-2.928578 -2.0256,-5.844281 -2.985772,-8.780601 0.185026,-0.616952 -0.532342,-0.308369 -0.931201,-0.379177 0.02702,0.02958 -0.198581,-0.03936 -0.04582,0.03928 z m 7.105297,0.0068 c 0,0.601762 0.363783,1.126015 0.271575,1.692633 0.280041,-0.625392 0.607698,-1.243733 1.089713,-1.738749 -0.408942,0.02421 -1.361288,-0.207318 -1.361288,0.04611 z m 96.291518,0.0854 c -0.31834,0.143859 -0.67464,0.09623 -1.01284,0.104188 0.44751,0.253325 0.81014,0.65513 1.01456,1.127283 -8.8e-4,-0.409098 0.002,-0.829249 -0.002,-1.231471 z m -5.40754,0.172509 c 0.56852,0.937755 0.22921,2.108499 0.32452,3.144776 -0.0263,2.128687 0.0522,4.263318 -0.0382,6.388467 0.0452,0.290887 -0.31414,0.744237 -0.23473,0.842881 0.53869,0.0039 1.24532,0.175885 0.99201,-0.612148 v -4.914954 c 0.51013,-0.01344 1.02025,-0.0273 1.53037,-0.04099 -1.40731,-0.572296 -1.73319,-2.272326 -1.62255,-3.629294 -0.0966,-0.384594 0.29369,-1.155559 -0.0879,-1.247058 -0.20404,0.05122 -0.91801,-0.09903 -0.86356,0.06832 z m -75.478942,4.664558 h 12.077291 c -0.02335,-0.550711 0.193194,-0.666283 0.08826,-1.178066 0.111525,-0.458402 -0.251567,-0.01618 -0.287378,-0.857993 -0.167781,-0.510847 0.03961,-1.186614 -0.712427,-0.756595 l -11.165749,2.792654 z m 39.83236,1.08802 c 0.09374,0.533622 -0.253273,0.652506 -0.09052,1.050423 -0.142184,0.662392 0.138728,0.02322 0.207476,0.8366 0.116755,0.604044 0.11743,1.12026 0.838438,0.722153 L 93.576157,68.242125 H 81.543268 l -0.0018,0.08743 z m 41.212972,3.813973 c -0.41631,0 -0.57404,0.610856 -0.94111,0.809594 0.35566,-0.16421 0.94905,0.389284 0.88973,-0.213281 -0.0117,-0.112734 0.49893,-0.596313 0.0514,-0.596313 z m -67.66654,4.189734 c -2.684048,0.260488 -4.933817,1.964647 -6.966946,3.602181 -2.115533,1.796551 -4.147438,3.800142 -5.695108,6.125605 -2.262833,3.326912 -3.803271,7.056542 -4.739088,10.944189 6.463362,-6.462236 12.924469,-12.926745 19.389259,-19.387556 1.10199,0.954433 1.702853,2.439681 1.47236,3.890319 -0.07064,0.659626 -0.297741,1.376959 -0.529541,1.939099 0.788579,-1.489172 1.29952,-3.241981 0.797927,-4.910379 -0.39814,-0.680827 -0.957513,-1.392446 -1.696338,-1.79012 -0.368242,-0.386948 -1.037992,-0.314669 -1.550867,-0.415046 -0.160683,-0.0069 -0.321013,-0.0057 -0.481658,0.0017 z m 24.673828,-0.0034 c -0.570012,0.08194 -1.246118,0.03337 -1.660252,0.461351 -0.735995,0.401002 -1.284043,1.135597 -1.65759,1.822062 -0.582849,2.144151 0.407077,4.299051 1.547334,6.071526 1.488974,2.281772 3.414192,4.39413 5.46698,6.267037 3.686946,3.238799 8.236335,5.360389 12.938952,6.573789 0.903155,0.35314 0.192844,-0.20938 -0.147782,-0.55938 -6.231746,-6.23288 -12.465767,-12.463496 -18.696091,-18.6978 0.970925,-1.102645 2.467957,-1.709786 3.93101,-1.461782 0.648089,0.06923 1.38356,0.309083 1.917196,0.529212 -1.126238,-0.5727 -2.357225,-1.041454 -3.639757,-1.006015 z M 65.98847,81.564573 c -0.679613,-0.145631 -0.01927,0.141368 -0.840255,0.208219 -0.605105,0.112577 -1.113463,0.119835 -0.716859,0.837712 l 2.769798,11.079193 V 81.658513 c -0.384072,0.01469 -0.842423,-0.05383 -1.001609,-0.145999 -0.07036,0.01735 -0.140717,0.03471 -0.211075,0.05206 z m 2.980467,30.179257 c 0.508488,0.33918 0.880699,0.85697 1.108495,1.41936 -0.110952,-0.42873 0.295454,-1.24644 -0.361473,-1.27001 -0.209579,-0.0497 -0.665855,-0.18495 -0.747022,-0.14935 z m -3.566312,1.35786 c -0.733184,0.91896 -0.470777,2.36813 0.53973,2.97193 1.178507,0.96969 2.668246,1.58959 3.62489,2.80794 0.471921,0.6159 0.643949,1.43776 0.474319,2.1931 0.8081,-0.9383 0.706521,-2.5157 -0.36402,-3.21754 -1.32128,-1.12329 -3.117199,-1.78946 -4.000994,-3.35816 -0.235102,-0.43977 -0.32163,-0.95917 -0.229516,-1.45021 z m -0.703697,9.11392 c 0.443555,0.15456 0.898449,0.28146 1.362987,0.35355 -0.628872,-0.3795 -1.085037,-1.00391 -1.362987,-1.67555 z"
         inkscape:label="center-detail"
         sodipodi:nodetypes="cccccccccccccccccccccccccccccccccccccccccccccccccccccccccccccsccsscccccccccccccccccccccccccccccccsccssscccccccccsscccccccccccccccccccccccccccccccccc"
         transform="matrix(1.1435131,0,0,1.1435131,-9.7206169,-9.7206169)" />
    </g>
    <circle
       style="display:inline;opacity:0.8;mix-blend-mode:normal;fill:url(#radialGradient81479);fill-opacity:1;stroke:none;stroke-width:0.535087;stroke-linecap:round;stroke-linejoin:round;stroke-dasharray:none;stroke-opacity:1;paint-order:fill markers stroke;filter:url(#filter81624)"
       id="path51560-2"
       cx="68.128578"
       cy="69.06884"
       r="5" />
    <path
       id="path1"
       style="display:inline;opacity:0.79;mix-blend-mode:normal;fill:#000000;fill-opacity:1;stroke-linecap:round;stroke-linejoin:round;paint-order:fill markers stroke;filter:url(#filter1)"
       d="m 117.85072,68.417143 c -1.2675,0.699513 -3.26751,1.762443 -4.77289,3.016748 l -5.2e-4,4e-6 c -1.1707,0.975498 -2.04207,2.067055 -2.03666,3.192935 -0.03,1.94e-4 -0.0595,-4.91e-4 -0.0888,-9.35e-4 -1.65243,-0.01639 -2.23269,-0.746392 -1.76385,-2.091514 0.41956,-1.130906 1.15883,-2.186881 1.75225,-3.225488 l -39.495963,0.147975 c -0.36685,1.197998 -1.46972,2.018564 -2.72261,2.025696 -1.252894,0.0067 -2.364699,-0.801798 -2.744674,-1.995701 l -17.982612,0.09867 c -1.792901,1.858651 -3.421951,5.337395 -5.745628,5.350135 l -1.298093,0.0071 c 0,0 2.483637,-3.553641 3.363843,-5.337076 l -1.801412,0.0099 c -2.048588,2.07331 -4.445884,6.401361 -6.797576,6.414266 l -1.298081,0.0071 c 0,0 4.727888,-6.320769 4.722753,-7.256582 -0.0051,-0.935821 -4.802109,-7.204335 -4.802109,-7.204335 l 1.298101,-0.0071 c 2.351685,-0.0129 4.796329,4.288067 6.867541,6.338773 l 1.801413,-0.0099 C 43.40537,66.1241 40.882943,62.59849 40.882943,62.59849 l 1.298092,-0.0071 c 2.323673,-0.01276 3.990792,3.44739 5.80393,5.286259 l 17.982617,-0.09867 c 0.367037,-1.197798 1.469867,-2.018119 2.722618,-2.025177 1.252752,-0.0067 2.364513,0.801484 2.744668,1.995181 L 110.9308,67.600978 c -0.35948,-0.61732 -0.93549,-1.486478 -1.50552,-2.574569 -0.1288,-0.202129 -0.22361,-0.416784 -0.28305,-0.633561 -0.48104,-1.335411 0.088,-2.070468 1.73047,-2.108104 0.004,-5.7e-5 0.008,-3.78e-4 0.0113,-4.08e-4 0.0293,-9.08e-4 0.0588,-0.0014 0.0889,-0.0015 0.002,0.402093 0.11687,0.798345 0.31659,1.185771 0.33954,0.658621 0.92592,1.291323 1.62988,1.880894 0.0829,0.06933 0.16745,0.137694 0.2533,0.205865 1.33084,1.056285 3.00122,1.963928 4.22711,2.62062 0.15833,0.08447 0.30945,0.164894 0.45094,0.241407 z"
       inkscape:transform-center-y="0.26326225"
       inkscape:transform-center-x="-7.4366571"
       inkscape:label="arrow-fancy-shade"
       sodipodi:nodetypes="cccccccccccscccscccscccccccccccscccccccc" />
    <path
       id="rect27165-1"
       style="display:inline;opacity:1;mix-blend-mode:normal;fill:url(#linearGradient35657);fill-opacity:1;stroke-linecap:round;stroke-linejoin:round;paint-order:fill markers stroke"
       d="m 116.79238,67.358809 c -1.2675,0.699513 -3.26751,1.762443 -4.77289,3.016748 l -5.2e-4,4e-6 c -1.1707,0.975498 -2.04207,2.067055 -2.03666,3.192935 -0.03,1.94e-4 -0.0595,-4.91e-4 -0.0888,-9.35e-4 -1.65243,-0.01639 -2.23269,-0.746392 -1.76385,-2.091514 0.41956,-1.130906 1.15883,-2.186881 1.75225,-3.225488 l -39.495957,0.147975 c -0.36685,1.197998 -1.46972,2.018564 -2.72261,2.025696 -1.252894,0.0067 -2.364699,-0.801798 -2.744674,-1.995701 l -17.982612,0.09867 c -1.792901,1.858651 -3.421951,5.337395 -5.745628,5.350135 l -1.298093,0.0071 c 0,0 2.483637,-3.553641 3.363843,-5.337076 l -1.801412,0.0099 c -2.048588,2.07331 -4.445884,6.401361 -6.797576,6.414266 l -1.298081,0.0071 c 0,0 4.727888,-6.320769 4.722753,-7.256582 -0.0051,-0.935821 -4.802109,-7.204335 -4.802109,-7.204335 l 1.298101,-0.0071 c 2.351685,-0.0129 4.796329,4.288067 6.867541,6.338773 l 1.801413,-0.0099 c -0.899773,-1.773714 -3.4222,-5.299324 -3.4222,-5.299324 l 1.298092,-0.0071 c 2.323673,-0.01276 3.990792,3.44739 5.80393,5.286259 l 17.982617,-0.09867 c 0.367037,-1.197798 1.469867,-2.018119 2.722618,-2.025177 1.252752,-0.0067 2.364513,0.801484 2.744668,1.995181 l 39.495926,-0.148005 c -0.35948,-0.61732 -0.93549,-1.486478 -1.50552,-2.574569 -0.1288,-0.202129 -0.22361,-0.416784 -0.28305,-0.633561 -0.48104,-1.335411 0.088,-2.070468 1.73047,-2.108104 0.004,-5.7e-5 0.008,-3.78e-4 0.0113,-4.08e-4 0.0293,-9.08e-4 0.0588,-0.0014 0.0889,-0.0015 0.002,0.402093 0.11687,0.798345 0.31659,1.185771 0.33954,0.658621 0.92592,1.291323 1.62988,1.880894 0.0829,0.06933 0.16745,0.137694 0.2533,0.205865 1.33084,1.056285 3.00122,1.963928 4.22711,2.62062 0.15833,0.08447 0.30945,0.164894 0.45094,0.241407 z"
       inkscape:transform-center-y="0.26326225"
       inkscape:transform-center-x="-7.4366571"
       inkscape:label="arrow-fancy-shade"
       sodipodi:nodetypes="cccccccccccscccscccscccccccccccscccccccc"
       sodipodi:insensitive="true" />
    <circle
       style="display:inline;opacity:1;fill:url(#radialGradient52657);fill-opacity:1;stroke:none;stroke-width:0.535087;stroke-linecap:round;stroke-linejoin:round;stroke-dasharray:none;stroke-opacity:1;paint-order:fill markers stroke"
       id="path51560"
       cx="67.599411"
       cy="67.481339"
       r="5"
       inkscape:label="center-pin" />
    <path
       id="path52711-6"
       style="display:inline;opacity:0.452407;fill:url(#radialGradient68004);fill-opacity:1;stroke:none;stroke-linecap:round;stroke-linejoin:round;paint-order:fill markers stroke;filter:url(#filter65824)"
       transform="rotate(-27.886903,62.422129,-184.15838)"
       d="m -48.08415,43.87402 c -10e-7,0.600446 -1.133966,1.087203 -2.532782,1.087203 -1.398816,0 -2.532781,-0.486757 -2.532782,-1.087203 -10e-7,-0.600446 1.106669,0.09573 2.505486,0.09573 1.398817,0 2.560079,-0.69618 2.560078,-0.09573 z"
       sodipodi:nodetypes="sssss"
       sodipodi:insensitive="true" />
    <path
       id="path66846"
       style="display:inline;opacity:0.2;fill:url(#radialGradient67869);fill-opacity:1;stroke-linecap:round;stroke-linejoin:round;paint-order:fill markers stroke;filter:url(#filter67489)"
       transform="rotate(-35.524509,-1.090533,0.56136629)"
       d="m 19.345385,92.458168 c 0,0.872852 -1.428442,-0.326522 -3.265855,-0.326522 -1.837413,0 -3.388008,1.199374 -3.388008,0.326522 0,-0.872852 1.489519,-1.580438 3.326932,-1.580438 1.837413,0 3.326931,0.707586 3.326931,1.580438 z"
       sodipodi:nodetypes="sssss"
       sodipodi:insensitive="true" />
    <path
       id="path22048"
       style="display:inline;opacity:0.6;mix-blend-mode:normal;fill:url(#radialGradient22419);stroke-width:0.852319;stroke-linecap:round;stroke-linejoin:round;paint-order:fill markers stroke;filter:url(#filter22765)"
       d="m 70.803525,64.820899 c 1.167355,2.021917 -1.793857,0.70911 -3.832251,1.885978 -2.038395,1.176867 -2.382076,4.397755 -3.549431,2.375838 -1.167354,-2.021917 -0.461235,-4.615045 1.57716,-5.791913 2.038394,-1.176868 4.637168,-0.49182 5.804522,1.530097 z"
       sodipodi:nodetypes="sssss"
       transform="rotate(-9.6013209,66.963169,66.224789)"
       sodipodi:insensitive="true" />
    <text
       xml:space="preserve"
       style="font-style:normal;font-variant:normal;font-weight:normal;font-stretch:normal;font-size:18.2085px;line-height:1.25;font-family:'1952 RHEINMETALL';-inkscape-font-specification:'1952 RHEINMETALL, Normal';font-variant-ligatures:normal;font-variant-caps:normal;font-variant-numeric:normal;font-variant-east-asian:normal;display:none;opacity:0.28;fill:#000000;fill-opacity:1;stroke:none;stroke-width:0.455212"
       x="61.465286"
       y="24.932821"
       id="text828"
       sodipodi:insensitive="true"><tspan
         sodipodi:role="line"
         id="tspan826"
         style="font-style:normal;font-variant:normal;font-weight:normal;font-stretch:normal;font-size:18.2085px;font-family:Andalus;-inkscape-font-specification:'Andalus, Normal';font-variant-ligatures:normal;font-variant-caps:normal;font-variant-numeric:normal;font-variant-east-asian:normal;stroke-width:0.455212"
         x="61.465286"
         y="24.932821">N</tspan></text>
    <text
       xml:space="preserve"
       style="font-style:normal;font-variant:normal;font-weight:normal;font-stretch:normal;font-size:18.2085px;line-height:1.25;font-family:'1952 RHEINMETALL';-inkscape-font-specification:'1952 RHEINMETALL, Normal';font-variant-ligatures:normal;font-variant-caps:normal;font-variant-numeric:normal;font-variant-east-asian:normal;display:none;opacity:0.28;fill:#000000;fill-opacity:1;stroke:none;stroke-width:0.455212"
       x="63.474617"
       y="123.94123"
       id="text832"
       sodipodi:insensitive="true"><tspan
         sodipodi:role="line"
         id="tspan830"
         style="font-style:normal;font-variant:normal;font-weight:normal;font-stretch:normal;font-size:18.2085px;font-family:Andalus;-inkscape-font-specification:'Andalus, Normal';font-variant-ligatures:normal;font-variant-caps:normal;font-variant-numeric:normal;font-variant-east-asian:normal;stroke-width:0.455212"
         x="63.474617"
         y="123.94123">S</tspan></text>
    <text
       xml:space="preserve"
       style="font-style:normal;font-variant:normal;font-weight:normal;font-stretch:normal;font-size:18.2085px;line-height:1.25;font-family:'1952 RHEINMETALL';-inkscape-font-specification:'1952 RHEINMETALL, Normal';font-variant-ligatures:normal;font-variant-caps:normal;font-variant-numeric:normal;font-variant-east-asian:normal;display:none;opacity:0.28;fill:#000000;fill-opacity:1;stroke:none;stroke-width:0.455212"
       x="115.21931"
       y="74.592621"
       id="text836"
       sodipodi:insensitive="true"><tspan
         sodipodi:role="line"
         id="tspan834"
         style="font-style:normal;font-variant:normal;font-weight:normal;font-stretch:normal;font-size:18.2085px;font-family:Andalus;-inkscape-font-specification:'Andalus, Normal';font-variant-ligatures:normal;font-variant-caps:normal;font-variant-numeric:normal;font-variant-east-asian:normal;stroke-width:0.455212"
         x="115.21931"
         y="74.592621">E</tspan></text>
    <text
       xml:space="preserve"
       style="font-style:normal;font-variant:normal;font-weight:normal;font-stretch:normal;font-size:18.2085px;line-height:1.25;font-family:'1952 RHEINMETALL';-inkscape-font-specification:'1952 RHEINMETALL, Normal';font-variant-ligatures:normal;font-variant-caps:normal;font-variant-numeric:normal;font-variant-east-asian:normal;display:none;opacity:0.28;fill:#000000;fill-opacity:1;stroke:none;stroke-width:0.455212"
       x="11.187575"
       y="74.35701"
       id="text840"
       sodipodi:insensitive="true"><tspan
         sodipodi:role="line"
         id="tspan838"
         style="font-style:normal;font-variant:normal;font-weight:normal;font-stretch:normal;font-size:18.2085px;font-family:Andalus;-inkscape-font-specification:'Andalus, Normal';font-variant-ligatures:normal;font-variant-caps:normal;font-variant-numeric:normal;font-variant-east-asian:normal;stroke-width:0.455212"
         x="11.187575"
         y="74.35701">W</tspan></text>
  </g>
  <metadata
     id="metadata1">
    <rdf:RDF>
      <cc:Work
         rdf:about="">
        <dc:creator>
          <cc:Agent>
            <dc:title>Jess Tipton</dc:title>
          </cc:Agent>
        </dc:creator>
        <dc:publisher>
          <cc:Agent>
            <dc:title>m0dw3rks.com</dc:title>
          </cc:Agent>
        </dc:publisher>
        <cc:license
           rdf:resource="https://creativecommons.org/licenses/by-nc-nd/4.0/deed.en" />
      </cc:Work>
    </rdf:RDF>
  </metadata>
  <metadata
     id="metadata6">
    <rdf:RDF>
      <cc:Work
         rdf:about="">
        <dc:creator>
          <cc:Agent>
            <dc:title>Jess Tipton</dc:title>
          </cc:Agent>
        </dc:creator>
        <cc:license
           rdf:resource="https://creativecommons.org/licenses/by-nc-nd/4.0/deed.en" />
        <dc:publisher>
          <cc:Agent>
            <dc:title>m0dw3rks.com</dc:title>
          </cc:Agent>
        </dc:publisher>
      </cc:Work>
    </rdf:RDF>
  </metadata>
  <metadata
     id="metadata6">
    <rdf:RDF>
      <cc:Work
         rdf:about="">
        <dc:creator>
          <cc:Agent>
            <dc:title>Jess Tipton</dc:title>
          </cc:Agent>
        </dc:creator>
        <cc:license
           rdf:resource="https://creativecommons.org/licenses/by-nc-nd/4.0/deed.en" />
        <dc:publisher>
          <cc:Agent>
            <dc:title>m0dw3rks.com</dc:title>
          </cc:Agent>
        </dc:publisher>
      </cc:Work>
    </rdf:RDF>
  </metadata>
  <metadata
     id="metadata6">
    <rdf:RDF>
      <cc:Work
         rdf:about="">
        <dc:creator>
          <cc:Agent>
            <dc:title>Jess Tipton</dc:title>
          </cc:Agent>
        </dc:creator>
        <cc:license
           rdf:resource="https://creativecommons.org/licenses/by-nc-nd/4.0/deed.en" />
        <dc:publisher>
          <cc:Agent>
            <dc:title>m0dw3rks.com</dc:title>
          </cc:Agent>
        </dc:publisher>
      </cc:Work>
    </rdf:RDF>
  </metadata>
  <metadata
     id="metadata6">
    <rdf:RDF>
      <cc:Work
         rdf:about="">
        <dc:creator>
          <cc:Agent>
            <dc:title>Jess Tipton</dc:title>
          </cc:Agent>
        </dc:creator>
        <cc:license
           rdf:resource="https://creativecommons.org/licenses/by-nc-nd/4.0/deed.en" />
        <dc:publisher>
          <cc:Agent>
            <dc:title>m0dw3rks.com</dc:title>
          </cc:Agent>
        </dc:publisher>
      </cc:Work>
    </rdf:RDF>
  </metadata>
  <metadata
     id="metadata6">
    <rdf:RDF>
      <cc:Work
         rdf:about="">
        <dc:creator>
          <cc:Agent>
            <dc:title>Jess Tipton</dc:title>
          </cc:Agent>
        </dc:creator>
        <cc:license
           rdf:resource="https://creativecommons.org/licenses/by-nc-nd/4.0/deed.en" />
        <dc:publisher>
          <cc:Agent>
            <dc:title>m0dw3rks.com</dc:title>
          </cc:Agent>
        </dc:publisher>
      </cc:Work>
    </rdf:RDF>
  </metadata>
  <metadata
     id="metadata6">
    <rdf:RDF>
      <cc:Work
         rdf:about="">
        <dc:creator>
          <cc:Agent>
            <dc:title>Jess Tipton</dc:title>
          </cc:Agent>
        </dc:creator>
        <cc:license
           rdf:resource="https://creativecommons.org/licenses/by-nc-nd/4.0/deed.en" />
        <dc:publisher>
          <cc:Agent>
            <dc:title>m0dw3rks.com</dc:title>
          </cc:Agent>
        </dc:publisher>
      </cc:Work>
    </rdf:RDF>
  </metadata>
  <metadata
     id="metadata6">
    <rdf:RDF>
      <cc:Work
         rdf:about="">
        <dc:creator>
          <cc:Agent>
            <dc:title>Jess Tipton</dc:title>
          </cc:Agent>
        </dc:creator>
        <cc:license
           rdf:resource="https://creativecommons.org/licenses/by-nc-nd/4.0/deed.en" />
        <dc:publisher>
          <cc:Agent>
            <dc:title>m0dw3rks.com</dc:title>
          </cc:Agent>
        </dc:publisher>
      </cc:Work>
    </rdf:RDF>
  </metadata>
  <metadata
     id="metadata6">
    <rdf:RDF>
      <cc:Work
         rdf:about="">
        <dc:creator>
          <cc:Agent>
            <dc:title>Jess Tipton</dc:title>
          </cc:Agent>
        </dc:creator>
        <cc:license
           rdf:resource="https://creativecommons.org/licenses/by-nc-nd/4.0/deed.en" />
        <dc:publisher>
          <cc:Agent>
            <dc:title>m0dw3rks.com</dc:title>
          </cc:Agent>
        </dc:publisher>
      </cc:Work>
    </rdf:RDF>
  </metadata>
  <metadata
     id="metadata6">
    <rdf:RDF>
      <cc:Work
         rdf:about="">
        <dc:creator>
          <cc:Agent>
            <dc:title>Jess Tipton</dc:title>
          </cc:Agent>
        </dc:creator>
        <cc:license
           rdf:resource="https://creativecommons.org/licenses/by-nc-nd/4.0/deed.en" />
        <dc:publisher>
          <cc:Agent>
            <dc:title>m0dw3rks.com</dc:title>
          </cc:Agent>
        </dc:publisher>
      </cc:Work>
    </rdf:RDF>
  </metadata>
  <metadata
     id="metadata6">
    <rdf:RDF>
      <cc:Work
         rdf:about="">
        <dc:creator>
          <cc:Agent>
            <dc:title>Jess Tipton</dc:title>
          </cc:Agent>
        </dc:creator>
        <cc:license
           rdf:resource="https://creativecommons.org/licenses/by-nc-nd/4.0/deed.en" />
        <dc:publisher>
          <cc:Agent>
            <dc:title>m0dw3rks.com</dc:title>
          </cc:Agent>
        </dc:publisher>
      </cc:Work>
    </rdf:RDF>
  </metadata>
  <metadata
     id="metadata6">
    <rdf:RDF>
      <cc:Work
         rdf:about="">
        <dc:creator>
          <cc:Agent>
            <dc:title>Jess Tipton</dc:title>
          </cc:Agent>
        </dc:creator>
        <cc:license
           rdf:resource="https://creativecommons.org/licenses/by-nc-nd/4.0/deed.en" />
        <dc:publisher>
          <cc:Agent>
            <dc:title>m0dw3rks.com</dc:title>
          </cc:Agent>
        </dc:publisher>
      </cc:Work>
    </rdf:RDF>
  </metadata>
  <metadata
     id="metadata6">
    <rdf:RDF>
      <cc:Work
         rdf:about="">
        <dc:creator>
          <cc:Agent>
            <dc:title>Jess Tipton</dc:title>
          </cc:Agent>
        </dc:creator>
        <cc:license
           rdf:resource="https://creativecommons.org/licenses/by-nc-nd/4.0/deed.en" />
        <dc:publisher>
          <cc:Agent>
            <dc:title>m0dw3rks.com</dc:title>
          </cc:Agent>
        </dc:publisher>
      </cc:Work>
    </rdf:RDF>
  </metadata>
  <metadata
     id="metadata6">
    <rdf:RDF>
      <cc:Work
         rdf:about="">
        <dc:creator>
          <cc:Agent>
            <dc:title>Jess Tipton</dc:title>
          </cc:Agent>
        </dc:creator>
        <cc:license
           rdf:resource="https://creativecommons.org/licenses/by-nc-nd/4.0/deed.en" />
        <dc:publisher>
          <cc:Agent>
            <dc:title>m0dw3rks.com</dc:title>
          </cc:Agent>
        </dc:publisher>
      </cc:Work>
    </rdf:RDF>
  </metadata>
  <metadata
     id="metadata6">
    <rdf:RDF>
      <cc:Work
         rdf:about="">
        <dc:creator>
          <cc:Agent>
            <dc:title>Jess Tipton</dc:title>
          </cc:Agent>
        </dc:creator>
        <cc:license
           rdf:resource="https://creativecommons.org/licenses/by-nc-nd/4.0/deed.en" />
        <dc:publisher>
          <cc:Agent>
            <dc:title>m0dw3rks.com</dc:title>
          </cc:Agent>
        </dc:publisher>
      </cc:Work>
    </rdf:RDF>
  </metadata>
  <metadata
     id="metadata6">
    <rdf:RDF>
      <cc:Work
         rdf:about="">
        <dc:creator>
          <cc:Agent>
            <dc:title>Jess Tipton</dc:title>
          </cc:Agent>
        </dc:creator>
        <cc:license
           rdf:resource="https://creativecommons.org/licenses/by-nc-nd/4.0/deed.en" />
        <dc:publisher>
          <cc:Agent>
            <dc:title>m0dw3rks.com</dc:title>
          </cc:Agent>
        </dc:publisher>
      </cc:Work>
    </rdf:RDF>
  </metadata>
  <metadata
     id="metadata6">
    <rdf:RDF>
      <cc:Work
         rdf:about="">
        <dc:creator>
          <cc:Agent>
            <dc:title>Jess Tipton</dc:title>
          </cc:Agent>
        </dc:creator>
        <cc:license
           rdf:resource="https://creativecommons.org/licenses/by-nc-nd/4.0/deed.en" />
        <dc:publisher>
          <cc:Agent>
            <dc:title>m0dw3rks.com</dc:title>
          </cc:Agent>
        </dc:publisher>
      </cc:Work>
    </rdf:RDF>
  </metadata>
  <metadata
     id="metadata6">
    <rdf:RDF>
      <cc:Work
         rdf:about="">
        <dc:creator>
          <cc:Agent>
            <dc:title>Jess Tipton</dc:title>
          </cc:Agent>
        </dc:creator>
        <cc:license
           rdf:resource="https://creativecommons.org/licenses/by-nc-nd/4.0/deed.en" />
        <dc:publisher>
          <cc:Agent>
            <dc:title>m0dw3rks.com</dc:title>
          </cc:Agent>
        </dc:publisher>
      </cc:Work>
    </rdf:RDF>
  </metadata>
</svg>
