<?xml version="1.0" encoding="UTF-8" standalone="no"?>
<!-- Created with Inkscape (http://www.inkscape.org/) -->

<svg
   width="512"
   height="512"
   viewBox="0 0 135.46666 135.46667"
   version="1.1"
   id="svg5"
   inkscape:version="1.4.2 (ebf0e940d0, 2025-05-08)"
   sodipodi:docname="rubberduck.svg"
   xmlns:inkscape="http://www.inkscape.org/namespaces/inkscape"
   xmlns:sodipodi="http://sodipodi.sourceforge.net/DTD/sodipodi-0.dtd"
   xmlns="http://www.w3.org/2000/svg"
   xmlns:svg="http://www.w3.org/2000/svg">
  <sodipodi:namedview
     id="namedview7"
     pagecolor="#242424"
     bordercolor="#666666"
     borderopacity="1"
     inkscape:showpageshadow="0"
     inkscape:pageopacity="0"
     inkscape:pagecheckerboard="1"
     inkscape:deskcolor="#000000"
     inkscape:document-units="px"
     showgrid="false"
     inkscape:zoom="1.84375"
     inkscape:cx="420.88135"
     inkscape:cy="234.03389"
     inkscape:window-width="3256"
     inkscape:window-height="1080"
     inkscape:window-x="1864"
     inkscape:window-y="0"
     inkscape:window-maximized="0"
     inkscape:current-layer="layer1" />
  <defs
     id="defs2">
    <inkscape:path-effect
       effect="fillet_chamfer"
       id="path-effect10"
       is_visible="true"
       lpeversion="1"
       nodesatellites_param="F,0,0,1,0,0,0,1 @ F,0,1,1,0,5.2916664,0,1 @ F,0,0,1,0,0,0,1 @ F,0,0,1,0,0,0,1 @ F,0,0,1,0,0,0,1 @ F,0,0,1,0,0,0,1 @ F,0,0,1,0,0,0,1 @ F,0,0,1,0,0,0,1 @ F,0,0,1,0,0,0,1"
       radius="20"
       unit="px"
       method="auto"
       mode="F"
       chamfer_steps="1"
       flexible="false"
       use_knot_distance="true"
       apply_no_radius="true"
       apply_with_radius="true"
       only_selected="true"
       hide_knots="false" />
    <inkscape:path-effect
       effect="fillet_chamfer"
       id="path-effect9"
       is_visible="true"
       lpeversion="1"
       nodesatellites_param="F,0,0,1,0,0,0,1 @ F,0,0,1,0,0,0,1 @ F,0,1,1,0,2.3812499,0,1 @ F,0,0,1,0,0,0,1 @ F,0,0,1,0,0,0,1 @ F,0,0,1,0,0,0,1 @ F,0,0,1,0,0,0,1 @ F,0,0,1,0,0,0,1 @ F,0,0,1,0,0,0,1 @ F,0,0,1,0,0,0,1 @ F,0,0,1,0,0,0,1 @ F,0,0,1,0,0,0,1 @ F,0,0,1,0,0,0,1"
       radius="9"
       unit="px"
       method="auto"
       mode="F"
       chamfer_steps="1"
       flexible="false"
       use_knot_distance="true"
       apply_no_radius="true"
       apply_with_radius="true"
       only_selected="true"
       hide_knots="false" />
    <inkscape:path-effect
       effect="fillet_chamfer"
       id="path-effect8"
       is_visible="true"
       lpeversion="1"
       nodesatellites_param="F,0,0,1,0,0,0,1 @ F,0,0,1,0,0,0,1 @ F,0,0,1,0,0,0,1 @ F,0,0,1,0,0,0,1 @ F,0,1,1,0,9.5249995,0,1 @ F,0,0,1,0,0,0,1 @ F,0,0,1,0,0,0,1 @ F,0,0,1,0,0,0,1 @ F,0,0,1,0,0,0,1 @ F,0,0,1,0,0,0,1 @ F,0,0,1,0,0,0,1 @ F,0,0,1,0,0,0,1"
       radius="36"
       unit="px"
       method="auto"
       mode="F"
       chamfer_steps="1"
       flexible="false"
       use_knot_distance="true"
       apply_no_radius="true"
       apply_with_radius="true"
       only_selected="true"
       hide_knots="false" />
    <inkscape:path-effect
       effect="fillet_chamfer"
       id="path-effect7"
       is_visible="true"
       lpeversion="1"
       nodesatellites_param="F,0,1,1,0,3.7041665,0,1 @ F,0,0,1,0,0,0,1 @ F,0,0,1,0,0,0,1 @ F,0,0,1,0,0,0,1 @ F,0,0,1,0,0,0,1 @ F,0,0,1,0,0,0,1 @ F,0,1,1,0,3.7041665,0,1 @ F,0,0,1,0,0,0,1"
       radius="14"
       unit="px"
       method="auto"
       mode="F"
       chamfer_steps="1"
       flexible="false"
       use_knot_distance="true"
       apply_no_radius="true"
       apply_with_radius="true"
       only_selected="true"
       hide_knots="false" />
    <inkscape:path-effect
       effect="fillet_chamfer"
       id="path-effect6"
       is_visible="true"
       lpeversion="1"
       nodesatellites_param="F,0,0,1,0,2.1166666,0,1 @ F,0,0,1,0,2.1166666,0,1 @ F,0,0,1,0,2.1166666,0,1 @ F,0,0,1,0,2.1166666,0,1 @ F,0,0,1,0,2.1166666,0,1 @ F,0,0,1,0,2.1166666,0,1 @ F,0,0,1,0,2.1166666,0,1 @ F,0,0,1,0,2.1166666,0,1"
       radius="8"
       unit="px"
       method="auto"
       mode="F"
       chamfer_steps="1"
       flexible="false"
       use_knot_distance="true"
       apply_no_radius="true"
       apply_with_radius="true"
       only_selected="true"
       hide_knots="false" />
    <inkscape:path-effect
       effect="fillet_chamfer"
       id="path-effect5"
       is_visible="true"
       lpeversion="1"
       nodesatellites_param="F,0,0,1,0,2.1166666,0,1 @ F,0,0,1,0,2.1166666,0,1 @ F,0,0,1,0,2.1166666,0,1 @ F,0,0,1,0,2.1166666,0,1 @ F,0,0,1,0,2.1166666,0,1 @ F,0,0,1,0,2.1166666,0,1 @ F,0,0,1,0,2.1166666,0,1 @ F,0,0,1,0,2.1166666,0,1"
       radius="8"
       unit="px"
       method="auto"
       mode="F"
       chamfer_steps="1"
       flexible="false"
       use_knot_distance="true"
       apply_no_radius="true"
       apply_with_radius="true"
       only_selected="false"
       hide_knots="false" />
  </defs>
  <g
     inkscape:label="Layer 1"
     inkscape:groupmode="layer"
     id="layer1">
    <path
       style="baseline-shift:baseline;display:inline;overflow:visible;vector-effect:none;fill:#ffcc00;stroke-width:1;stroke-linecap:round;stroke-linejoin:round;stroke-miterlimit:12;paint-order:markers stroke fill;enable-background:accumulate;stop-color:#000000"
       d="m 117.30357,59.270704 c -2.14559,2.391923 -5.61901,3.445115 -8.5643,2.144655 -9.122608,-4.027993 -17.052316,-6.212421 -28.217016,-6.212419 -4.499707,-5e-6 -7.29173,-4.713447 -11.477935,-4.057741 -24.093054,3.773821 -46.476804,22.815438 -46.476661,39.485007 -1.72e-4,19.565934 24.641509,35.427314 55.038585,35.427264 30.397077,5e-5 58.166467,-23.89657 55.038587,-35.427264 -3.12788,-11.530693 -0.33609,-14.818787 0.72901,-16.645757 4.35512,-7.470731 1.35002,-16.658657 -3.85689,-19.693992 -3.25574,-1.897988 -6.79834,-1.056472 -12.21338,4.980247 z"
       id="path14" />
    <path
       id="path13"
       style="baseline-shift:baseline;display:inline;overflow:visible;vector-effect:none;stroke-width:1;stroke-linecap:round;stroke-linejoin:round;stroke-miterlimit:12;paint-order:markers stroke fill;enable-background:accumulate;stop-color:#000000"
       d="m 74.734861,54.134278 c 1.627656,1.000535 3.475274,2.059076 5.787956,2.059079 11.035531,1.3e-5 18.765797,2.1324 27.815443,6.128181 3.3892,1.496456 7.29759,0.29062 9.70144,-2.389193 2.65111,-2.955481 4.79961,-4.562176 6.5223,-5.198702 1.72268,-0.636527 3.01819,-0.427013 4.45602,0.411203 4.59898,2.68094 7.57774,11.345814 3.50037,18.340119 -0.47314,0.81157 -1.58293,2.332776 -2.05602,5.011326 -0.47309,2.67855 -0.36288,6.531765 1.22678,12.391912 0.66241,2.441938 -0.31722,5.851495 -2.86704,9.583547 -2.54981,3.73204 -6.6017,7.73803 -11.70107,11.39124 -10.19875,7.30642 -24.575768,13.20407 -39.514805,13.20406 -15.026294,1e-5 -28.615304,-3.93157 -38.382575,-10.21857 -9.767271,-6.287 -15.666243,-14.851035 -15.666161,-24.218276 -6.7e-5,-7.891535 5.899842,-17.174055 14.365845,-24.36958 0.624409,-0.530706 -0.971793,-0.360257 -0.971793,-0.360257 0,0 -0.436064,0.369024 -0.64566,0.550897 -8.34343,7.239922 -13.738311,15.995327 -13.738242,24.17894 -1.71e-4,19.565936 24.64151,35.427316 55.038586,35.427266 30.397075,5e-5 58.166465,-23.89657 55.038585,-35.427266 -3.12788,-11.530693 -0.3361,-14.818787 0.72901,-16.645757 4.35512,-7.470731 1.35002,-16.658567 -3.85689,-19.693902 -3.25574,-1.897988 -6.7986,-1.056718 -12.21364,4.980001 -2.1456,2.391923 -5.6188,3.445324 -8.56409,2.144865 -9.122611,-4.027994 -17.052262,-6.21246 -28.216962,-6.212473 -1.843294,-2e-6 -3.758462,-1.026414 -5.447765,-2.026848 -3.486187,-2.064581 -4.024807,-1.307129 -0.339622,0.958188 z"
       sodipodi:nodetypes="ssssscssssssscscsccsccsssss" />
    <path
       style="baseline-shift:baseline;display:inline;overflow:visible;vector-effect:none;fill:#ffcc00;stroke-width:1;stroke-linecap:round;stroke-linejoin:round;stroke-miterlimit:12;paint-order:markers stroke fill;enable-background:accumulate;stop-color:#000000"
       d="M 76.58436,43.908419 A 29.20756,29.20756 0 0 1 47.3768,73.115978 29.20756,29.20756 0 0 1 18.169241,43.908419 29.20756,29.20756 0 0 1 47.3768,14.700859 29.20756,29.20756 0 0 1 76.58436,43.908419 Z"
       id="path11" />
    <circle
       style="fill:#000000;stroke-width:1.79705;stroke-linecap:round;stroke-linejoin:round;stroke-miterlimit:12;paint-order:markers stroke fill"
       id="path4"
       cx="37.184597"
       cy="39.867661"
       r="6.8455219" />
    <circle
       style="fill:#ffffff;stroke-width:1.79705;stroke-linecap:round;stroke-linejoin:round;stroke-miterlimit:12;paint-order:markers stroke fill"
       id="path5"
       cx="33.818886"
       cy="39.867661"
       r="3.3657148" />
    <path
       id="path10"
       style="baseline-shift:baseline;display:inline;overflow:visible;vector-effect:none;stroke-width:1;stroke-linecap:round;stroke-linejoin:round;stroke-miterlimit:12;paint-order:markers stroke fill;enable-background:accumulate;stop-color:#000000"
       d="m 47.377071,14.700859 c -16.130923,-1.75e-4 -29.207748,13.076405 -29.207876,29.207328 -1.75e-4,16.131137 13.076739,29.20805 29.207876,29.207875 1.535518,1.4e-5 1.196762,-0.952084 -5.48e-4,-0.952084 -15.616122,0 -28.255242,-12.639121 -28.255242,-28.255243 0,-15.616121 12.63912,-28.255243 28.255242,-28.255243 15.616122,0 28.255242,12.639122 28.255242,28.255243 0,9.082008 -4.285829,17.157611 -10.908229,22.311842 -2.213366,1.722668 -1.144816,2.162138 1.088489,0.344518 C 72.507399,61.115931 76.584585,52.837658 76.584398,43.908187 76.58427,27.777478 63.50778,14.700987 47.377071,14.700859 Z"
       sodipodi:nodetypes="cccsssssscc" />
    <path
       style="baseline-shift:baseline;display:inline;overflow:visible;vector-effect:none;fill:#ff6600;stroke-width:1;stroke-linecap:round;stroke-linejoin:round;stroke-miterlimit:12;paint-order:markers stroke fill;enable-background:accumulate;stop-color:#000000"
       d="m 1.887551,44.288012 c 2.3627633,0.965822 5.4063078,1.978265 7.5346343,1.847936 2.5920467,-0.158724 6.5415747,-2.263858 8.9655747,-3.702437 1.198092,-0.711036 2.248328,-0.211458 2.425807,1.171285 0.418581,3.261175 1.308954,7.225332 2.75603,10.346457 0.613109,1.322386 1.662222,2.894032 2.843354,4.45963 3.356493,4.449052 2.427027,5.84023 -2.906506,4.219092 -3.251566,-0.988321 -6.669593,-1.793844 -9.064211,-1.747628 -3.749269,0.07236 -6.9242282,-0.305092 -10.4124371,1.183606 -1.993483,0.850779 -2.9840646,0.557106 -0.4591429,-2.485266 2.5249254,-3.042372 4.4123505,-3.885364 5.8515313,-4.697682 0,0 -3.0180021,-0.566529 -5.3923884,-3.053119 -5.4959304,-5.755648 -4.49370226,-8.503072 -2.1422459,-7.541874 z"
       id="path18" />
    <path
       id="path17"
       style="baseline-shift:baseline;display:inline;overflow:visible;vector-effect:none;stroke-width:1;stroke-linecap:round;stroke-linejoin:round;stroke-miterlimit:12;paint-order:markers stroke fill;enable-background:accumulate;stop-color:#000000"
       d="m 19.445581,42.111386 c -0.323403,-0.0042 -0.683407,0.09991 -1.057812,0.32211 -2.423999,1.43858 -6.373331,3.543891 -8.965378,3.702615 -2.1283266,0.130329 -5.1722961,-0.882474 -7.5350594,-1.848295 -2.35145607,-0.961198 -3.3534656,1.786533 2.1424653,7.542181 2.3743863,2.486591 5.3925941,3.052918 5.3925941,3.052918 -1.4391808,0.812318 -3.3267299,1.655605 -5.8516554,4.697977 -2.5249216,3.042372 -1.5344217,3.335624 0.4590613,2.484845 3.4882089,-1.488698 6.6634111,-1.110899 10.4126801,-1.18326 2.394618,-0.04622 5.812418,0.759178 9.063984,1.747499 5.333532,1.621138 6.263147,0.229857 2.906655,-4.219195 -1.181133,-1.565598 -2.230548,-3.137297 -2.843657,-4.459682 -1.447075,-3.121126 -2.337426,-7.085222 -2.756008,-10.346396 -0.122017,-0.950637 -0.656382,-1.483954 -1.36787,-1.493317 z m -0.02629,0.948799 c 0.06925,6.5e-4 0.11787,0.01685 0.151193,0.03287 0.08886,0.04272 0.237626,0.162835 0.298006,0.633262 0.427887,3.333672 1.322718,7.360697 2.836536,10.625778 0.66638,1.437284 1.745892,3.037912 2.948286,4.631692 0.812021,1.076339 1.342887,1.954879 1.590279,2.554415 0.181216,0.439163 0.176694,0.653251 0.176941,0.713243 -0.05503,0.02121 -0.243402,0.0942 -0.702833,0.07779 -0.639977,-0.02287 -1.644295,-0.218781 -2.934045,-0.610802 -3.291487,-1.000455 -6.734759,-1.839258 -9.360347,-1.788584 -3.675006,0.07093 -7.034623,-0.332372 -10.7682058,1.261047 -0.03971,0.01695 -0.050724,0.01278 -0.08929,0.02848 0.2081146,-0.31167 0.3523092,-0.567024 0.737346,-1.030969 2.431172,-2.929405 4.0841928,-3.62723 5.5881606,-4.476116 A 0.95259258,0.95259258 0 0 0 9.5971474,53.946169 c 0,0 -2.7323192,-0.527341 -4.8782047,-2.774633 -2.6757173,-2.802161 -3.6609368,-4.88142 -3.75575025,-5.737163 -0.0277155,-0.250144 -0.0123689,-0.342766 -0.001092,-0.373055 0.0216816,-6.07e-4 0.20152995,-0.0398 0.56423955,0.108465 2.4121436,0.986006 5.4706785,2.06888 7.9546768,1.916771 3.0459572,-0.186519 6.9299782,-2.371898 9.3937632,-3.834089 0.256129,-0.152005 0.42909,-0.193364 0.544519,-0.192279 z M 0.96975893,45.04817 h 5.4784e-4 5.4774e-4 v 5.47e-4 5.48e-4 5.48e-4 l -5.4774e-4,5.48e-4 v 5.47e-4 c -9.1113e-4,0.0018 -0.002862,0.0042 -0.006572,0.0066 0.001813,-0.0042 0.003668,-0.0074 0.004929,-0.0088 h 5.4784e-4 z" />
    <path
       style="baseline-shift:baseline;display:inline;overflow:visible;vector-effect:none;stroke-width:1;stroke-linecap:round;stroke-linejoin:round;enable-background:accumulate;stop-color:#000000"
       d="m 8.6157536,53.95028 c 0,0 -0.153237,0.01028 -0.1801288,0.08282 -0.026841,0.07261 -0.3047959,0.462813 -0.2322036,0.489705 0,0 1.1189259,0.331327 2.3721248,0.672638 1.252937,0.34124 5.980369,1.210387 5.980369,1.210387 0.07603,0.01421 0.149201,-0.03581 0.163565,-0.111805 0.01421,-0.07603 -0.03581,-0.149201 -0.111804,-0.163565 0,0 -5.713453,-1.843689 -6.934278,-2.166855 C 8.9543446,53.773267 8.7053972,53.690953 8.7053972,53.690953 Z"
       id="path19"
       sodipodi:nodetypes="sccscccscs" />
  </g>
</svg>
