<?xml version="1.0" encoding="UTF-8" standalone="no"?>
<!-- Created with Inkscape (http://www.inkscape.org/) -->

<svg
   width="512"
   height="512"
   viewBox="0 0 135.46666 135.46667"
   version="1.1"
   id="svg5"
   inkscape:version="1.3.2 (091e20ef0f, 2023-11-25, custom)"
   sodipodi:docname="yinyang.svg"
   xmlns:inkscape="http://www.inkscape.org/namespaces/inkscape"
   xmlns:sodipodi="http://sodipodi.sourceforge.net/DTD/sodipodi-0.dtd"
   xmlns:xlink="http://www.w3.org/1999/xlink"
   xmlns="http://www.w3.org/2000/svg"
   xmlns:svg="http://www.w3.org/2000/svg">
  <sodipodi:namedview
     id="namedview7"
     pagecolor="#292929"
     bordercolor="#666666"
     borderopacity="1"
     inkscape:showpageshadow="0"
     inkscape:pageopacity="0"
     inkscape:pagecheckerboard="1"
     inkscape:deskcolor="#1a1a1a"
     inkscape:document-units="px"
     showgrid="false"
     inkscape:zoom="0.921875"
     inkscape:cx="278.23729"
     inkscape:cy="262.50847"
     inkscape:window-width="3256"
     inkscape:window-height="1080"
     inkscape:window-x="1864"
     inkscape:window-y="0"
     inkscape:window-maximized="0"
     inkscape:current-layer="layer1" />
  <defs
     id="defs2">
    <linearGradient
       id="linearGradient30"
       inkscape:collect="always">
      <stop
         style="stop-color:#808080;stop-opacity:1;"
         offset="0"
         id="stop31" />
      <stop
         style="stop-color:#808080;stop-opacity:0;"
         offset="1"
         id="stop32" />
    </linearGradient>
    <linearGradient
       id="linearGradient29"
       inkscape:collect="always">
      <stop
         style="stop-color:#808080;stop-opacity:1;"
         offset="0"
         id="stop29" />
      <stop
         style="stop-color:#808080;stop-opacity:0;"
         offset="1"
         id="stop30" />
    </linearGradient>
    <linearGradient
       id="linearGradient26"
       inkscape:collect="always">
      <stop
         style="stop-color:#000000;stop-opacity:1;"
         offset="0"
         id="stop27" />
      <stop
         style="stop-color:#000000;stop-opacity:0;"
         offset="1"
         id="stop28" />
    </linearGradient>
    <linearGradient
       id="linearGradient25"
       inkscape:collect="always">
      <stop
         style="stop-color:#ffffff;stop-opacity:1;"
         offset="0"
         id="stop25" />
      <stop
         style="stop-color:#ffffff;stop-opacity:0;"
         offset="1"
         id="stop26" />
    </linearGradient>
    <radialGradient
       inkscape:collect="always"
       xlink:href="#linearGradient25"
       id="radialGradient26"
       cx="-175.6096"
       cy="-25.637264"
       fx="-175.6096"
       fy="-25.637264"
       r="50.799988"
       gradientTransform="matrix(1,0,0,1.3316373,0,8.5022742)"
       gradientUnits="userSpaceOnUse" />
    <radialGradient
       inkscape:collect="always"
       xlink:href="#linearGradient26"
       id="radialGradient28"
       cx="-141.74294"
       cy="-25.464871"
       fx="-141.74294"
       fy="-25.464871"
       r="50.799981"
       gradientTransform="matrix(1,0,0,1.331638,0,8.4451188)"
       gradientUnits="userSpaceOnUse" />
    <radialGradient
       inkscape:collect="always"
       xlink:href="#linearGradient29"
       id="radialGradient30"
       cx="41.743813"
       cy="47.485209"
       fx="41.743813"
       fy="47.485209"
       r="40.146812"
       gradientTransform="matrix(1,0,0,1.1431205,0,-6.7961072)"
       gradientUnits="userSpaceOnUse" />
    <radialGradient
       inkscape:collect="always"
       xlink:href="#linearGradient30"
       id="radialGradient32"
       cx="93.718226"
       cy="87.928501"
       fx="93.718226"
       fy="87.928501"
       r="40.153773"
       gradientTransform="matrix(1,0,0,1.1435689,0,-12.623802)"
       gradientUnits="userSpaceOnUse" />
  </defs>
  <g
     inkscape:label="Layer 1"
     inkscape:groupmode="layer"
     id="layer1"
     style="display:inline">
    <path
       id="path3"
       style="display:inline;opacity:1;fill:#e5e5e5;stroke-width:1.00012;stroke-linecap:round;stroke-linejoin:round;paint-order:markers stroke fill;fill-opacity:1"
       d="m 19.838626,115.62801 c 11.960222,11.90722 27.934923,18.9205 44.795311,19.66623 -7.872387,-0.7124 -15.247619,-4.15609 -20.847962,-9.73445 -13.225744,-13.22575 -13.225743,-34.66896 -10e-7,-47.894703 6.612872,-6.612873 15.280123,-9.919354 24.098559,-9.963456 8.818436,-0.0441 17.430823,-3.580468 23.796141,-9.900102 13.225756,-13.225757 13.225756,-34.668942 0,-47.8946993 C 85.315222,3.5874807 76.702866,0.05137407 67.73333,0.07445404 V -7.5016469e-5 C 50.398883,-8.2087537e-5 33.064377,6.6128894 19.838634,19.838632 -6.6128492,46.290115 -6.612852,89.17654 19.838626,115.62802 Z"
       sodipodi:nodetypes="cccscccccssc" />
    <path
       id="path5"
       style="display:inline;opacity:1;fill:#000000;stroke-width:1.00012;stroke-linecap:round;stroke-linejoin:round;paint-order:markers stroke fill"
       d="M 115.62803,19.838634 C 103.66779,7.9314329 87.693109,0.91813849 70.83272,0.17240247 78.705103,0.88480548 86.080334,4.3284947 91.680676,9.9068601 c 13.225754,13.2257369 13.225744,34.6689549 1.1e-5,47.8946889 -6.612871,6.612873 -15.280123,9.919354 -24.098559,9.963455 -8.818435,0.0441 -17.430822,3.580467 -23.796141,9.9001 -13.225757,13.225755 -13.225757,34.668946 0,47.894696 6.365438,6.31937 14.97781,9.85546 23.94735,9.83238 v 0.0746 c 17.334447,1e-5 34.668953,-6.61297 47.894693,-19.83871 26.45148,-26.451479 26.45148,-69.337901 0,-95.789386 z"
       sodipodi:nodetypes="cccscccccsc" />
    <path
       id="path14"
       style="display:inline;opacity:1;fill:#1a1a1a;stroke-width:1.00012;stroke-linecap:round;stroke-linejoin:round;paint-order:markers stroke fill"
       d="M 115.62805,19.838522 C 103.66782,7.9313213 87.693137,0.9180269 70.832748,0.1722909 98.756422,2.6992143 112.21346,37.268689 91.680715,57.801437 c -6.612871,6.612873 -15.280123,9.919354 -24.098559,9.963455 -8.818435,0.0441 -17.430822,3.580467 -23.796141,9.9001 -13.225757,13.225755 -13.225757,34.668938 0,47.894688 6.365438,6.31937 14.97781,9.85546 23.94735,9.83238 v 0.0746 c 17.334447,1e-5 34.668955,-6.61297 47.894685,-19.83871 26.45148,-26.451471 26.45148,-69.337893 0,-95.789378 z"
       sodipodi:nodetypes="ccscccccscc" />
    <g
       id="g32"
       style="display:inline;opacity:0.5">
      <path
         id="path15"
         style="display:inline;opacity:1;fill:url(#radialGradient32);fill-opacity:1;stroke-width:1.00012;stroke-linecap:round;stroke-linejoin:round;paint-order:markers stroke fill"
         inkscape:transform-center-x="-20.777594"
         inkscape:transform-center-y="8.6414388"
         d="m 128.92188,42.800781 c 4.02753,13.644571 3.77254,28.529246 -0.85547,41.992188 -4.29579,12.697315 -12.38526,24.069571 -22.97141,32.292311 -10.107892,7.91401 -22.446054,12.95437 -35.222863,14.27136 -5.425358,0.59409 -10.996141,0.59255 -16.307684,-0.79023 4.530298,2.20671 9.572318,3.27256 14.602075,3.26793 2.677218,0.0734 5.397291,-0.17988 8.017407,-0.4978 12.082919,-1.55024 23.681559,-6.46244 33.132475,-14.15685 10.30774,-8.34245 18.13258,-19.897988 21.85742,-32.67969 1.49788,-5.102273 2.37867,-10.371339 2.6289,-15.677734 0.44219,-9.759456 -1.234,-19.486951 -4.99223,-28.508049 -0.29918,-0.757253 0.004,0.08885 0.11138,0.486564 z" />
      <path
         id="path16"
         style="display:inline;opacity:1;fill:url(#radialGradient30);fill-opacity:1;stroke-width:1.00012;stroke-linecap:round;stroke-linejoin:round;paint-order:markers stroke fill"
         inkscape:transform-center-x="20.777596"
         inkscape:transform-center-y="-8.6414353"
         d="M 66.583984,1.6113281 C 51.357294,1.8061855 36.234675,7.5179541 24.656016,17.535873 14.464394,26.315462 7.036908,38.073739 3.7076033,51.089459 1.3257751,60.281818 0.95995333,69.946857 2.6097596,79.340145 3.4663195,84.163117 4.8610266,88.907329 6.7542183,93.377853 6.6856869,93.117575 6.4326084,92.303072 6.305357,91.827539 2.3183787,77.693936 2.9287799,62.292562 8.1599389,48.559581 12.957271,35.746333 21.67485,24.455267 32.832235,16.541615 42.81719,9.4209554 54.713289,5.006669 66.939229,3.9757002 71.92592,3.5196248 77.021667,3.6366846 81.890625,4.8945312 77.714564,2.8672191 73.137392,1.7821887 68.562326,1.6700774 67.895488,1.6957247 67.247007,1.5402853 66.583984,1.6113281 Z" />
    </g>
    <g
       id="g29"
       transform="translate(226.40961,93.284386)"
       style="display:inline">
      <path
         id="path24"
         style="display:inline;opacity:1;fill:url(#radialGradient26);stroke-width:1.00012;stroke-linecap:round;stroke-linejoin:round;paint-order:markers stroke fill"
         d="m -206.57099,22.343664 c 11.96022,11.90722 27.93492,18.9205 44.79531,19.66623 -7.87239,-0.7124 -15.24762,-4.15609 -20.84796,-9.73445 -13.22575,-13.22575 -13.22575,-34.6689604 0,-47.894703 6.61287,-6.612873 15.28012,-9.919354 24.09856,-9.963456 8.81843,-0.0441 17.43082,-3.580468 23.79614,-9.900102 13.22575,-13.225757 13.22575,-34.668942 0,-47.8947 -6.36546,-6.319349 -14.97781,-9.855455 -23.94735,-9.832375 v -0.07453 c -17.33444,-8e-6 -34.66895,6.612964 -47.89469,19.838707 -26.45149,26.451483 -26.45149,69.3379076 -1e-5,95.789388 z"
         sodipodi:nodetypes="cccscccccssc" />
      <path
         id="path25"
         style="display:inline;opacity:1;fill:url(#radialGradient28);stroke-width:1.00012;stroke-linecap:round;stroke-linejoin:round;paint-order:markers stroke fill"
         d="m -110.78157,-73.445824 c -11.96023,-11.907201 -27.93491,-18.920496 -44.7953,-19.666232 27.92367,2.526924 41.38071,37.096399 20.84797,57.629147 -6.61287,6.612873 -15.28013,9.919354 -24.09856,9.963455 -8.81844,0.0441 -17.43082,3.580467 -23.79614,9.9001 -13.22576,13.2257546 -13.22576,34.668938 0,47.894688 6.36544,6.31937 14.97781,9.85546 23.94735,9.83238 v 0.0746 c 17.33444,1e-5 34.66895,-6.61297 47.89468,-19.83871 26.451483,-26.4514714 26.451483,-69.337893 0,-95.789378 z"
         sodipodi:nodetypes="ccscccccscc" />
    </g>
    <path
       id="path7"
       style="color:#000000;display:inline;fill:#000000;stroke-linecap:round;stroke-linejoin:round;-inkscape-stroke:none;paint-order:fill markers stroke"
       d="m 67.733332,23.460066 c -2.704307,0 -5.408913,1.037604 -7.484297,3.112989 -4.150768,4.150769 -4.150768,10.81731 0,14.968078 4.150769,4.150768 10.817309,4.150769 14.968078,0 4.150769,-4.150768 4.150769,-10.817309 0,-14.968078 -2.075384,-2.075384 -4.779473,-3.112988 -7.483781,-3.112989 z"
       inkscape:transform-center-x="0.15145863"
       inkscape:transform-center-y="-33.644495" />
    <path
       id="path10"
       style="color:#000000;display:inline;fill:#ffffff;stroke-linecap:round;stroke-linejoin:round;-inkscape-stroke:none;paint-order:fill markers stroke"
       d="m 68.035734,111.9432 c 2.704307,0 5.408913,-1.03761 7.484297,-3.11299 4.150768,-4.15077 4.150768,-10.817312 0,-14.96808 -4.150769,-4.150768 -10.817309,-4.150769 -14.968078,0 -4.150769,4.150768 -4.150769,10.81731 0,14.96808 2.075384,2.07538 4.779473,3.11299 7.483781,3.11299 z"
       inkscape:transform-center-x="-0.15145863"
       inkscape:transform-center-y="33.644497" />
    <path
       id="path23"
       style="opacity:1;fill:#1a1a1a;stroke:none;stroke-width:4.23333;stroke-linecap:round;stroke-linejoin:round;stroke-dasharray:none;stroke-opacity:1;paint-order:fill markers stroke"
       d="m 77.121094,30.65625 c 0.12163,0.950315 0.373027,2.017636 -0.301965,2.827698 -2.387237,4.250598 -6.041199,7.787685 -10.362098,10.045349 -0.762964,0.186112 -1.943491,-0.08745 -2.466797,-0.130859 1.186541,0.452091 2.496287,0.7904 3.755594,0.676423 4.250324,-2.2638 7.804171,-5.83237 10.053,-10.090486 -0.006,-1.285514 -0.2711,-2.566931 -0.757812,-3.755859 0.02669,0.142578 0.05339,0.285156 0.08008,0.427734 z" />
    <path
       id="ellipse22"
       style="display:inline;opacity:1;fill:#e5e5e5;fill-opacity:1;stroke:none;stroke-width:4.23333;stroke-linecap:round;stroke-linejoin:round;stroke-dasharray:none;stroke-opacity:1;paint-order:fill markers stroke"
       d="m 66.996094,91.894531 c -3.77855,2.298796 -6.966355,5.600914 -9.025391,9.523439 0.0046,1.2799 0.264019,2.5575 0.751953,3.74023 -0.134818,-1.03873 -0.521769,-2.23572 0.179502,-3.15221 2.38461,-4.290538 6.060549,-7.859422 10.410342,-10.132943 0.763085,-0.186 1.943441,0.08739 2.466797,0.130859 -1.186336,-0.451696 -2.496061,-0.791191 -3.755594,-0.67447 -0.342536,0.188365 -0.685073,0.37673 -1.027609,0.565095 z" />
  </g>
  <path
     id="path17"
     style="display:none;opacity:1;fill:#1a1a1a;stroke-width:1.00012;stroke-linecap:round;stroke-linejoin:round;paint-order:markers stroke fill"
     d="m -44.732426,23.460066 c 23.77671,26.595996 22.90287,67.451317 -2.63601,92.990184 -13.225725,13.22573 -30.560321,19.83859 -47.894751,19.83858 v -0.0749 c -7.735443,0.0199 -15.196873,-2.61972 -21.188883,-7.39645 0.78632,0.98492 1.62104,1.94402 2.53318,2.85616 6.36543,6.31936 14.977839,9.85504 23.947369,9.83196 v 0.0749 c 17.33443,1e-5 34.669025,-6.61286 47.894755,-19.83858 26.45145,-26.451444 26.45145,-69.338041 0,-95.7895 -0.86281,-0.858975 -1.75225,-1.684831 -2.65566,-2.492354 z"
     sodipodi:nodetypes="csccccccscc"
     inkscape:transform-center-x="-20.777594"
     inkscape:transform-center-y="8.6414388"
     sodipodi:insensitive="true" />
  <path
     id="path18"
     style="display:none;opacity:1;fill:#f9f9f9;stroke-width:1.00012;stroke-linecap:round;stroke-linejoin:round;paint-order:markers stroke fill"
     d="m -135.2106,124.23428 c -23.77671,-26.596 -22.90287,-67.451321 2.63601,-92.990189 13.22573,-13.22573 30.56033,-19.83859 47.894757,-19.83858 v 0.0749 c 7.735444,-0.0199 15.196873,2.61972 21.188884,7.39645 -0.786321,-0.98492 -1.62104,-1.94402 -2.53318,-2.85616 -6.365431,-6.3193601 -14.97784,-9.85504 -23.947371,-9.83196 v -0.0749 c -17.33443,-10e-6 -34.66903,6.61286 -47.89476,19.83858 -26.45145,26.451445 -26.45145,69.338042 0,95.789499 0.86281,0.85898 1.75225,1.68483 2.65566,2.49236 z"
     sodipodi:nodetypes="csccccccscc"
     inkscape:transform-center-x="20.777596"
     inkscape:transform-center-y="-8.6414353"
     sodipodi:insensitive="true" />
  <path
     id="path12"
     style="display:none;opacity:1;fill:#00ff00;stroke-width:1.00012;stroke-linecap:round;stroke-linejoin:round;paint-order:markers stroke fill"
     d="m 198.53331,19.190845 c 8.21569,13.079947 6.65807,30.542241 -4.72684,41.927156 -6.36532,6.319628 -14.97754,9.856071 -23.79597,9.900171 -8.81842,0.0441 -17.48592,3.350349 -24.09878,9.963216 -13.22573,13.225729 -13.22573,34.669022 0,47.894742 1.78454,1.77755 3.76525,3.31168 5.86889,4.63642 -8.23022,-13.08218 -6.67641,-30.55698 4.71444,-41.947829 6.61287,-6.612866 15.28036,-9.919114 24.09879,-9.963216 8.81842,-0.0441 17.43065,-3.580543 23.79596,-9.900171 13.22574,-13.225744 13.22574,-34.669006 0,-47.89475 -1.7846,-1.771673 -3.76032,-3.298691 -5.85649,-4.615739 z"
     sodipodi:nodetypes="ccssccssccc"
     sodipodi:insensitive="true" />
  <path
     id="path13"
     style="display:none;opacity:1;fill:#ff0000;stroke-width:1.00012;stroke-linecap:round;stroke-linejoin:round;paint-order:markers stroke fill"
     d="m 162.35154,144.07521 c -8.21569,-13.07995 -6.65807,-30.54224 4.72684,-41.92716 6.36531,-6.319624 14.97754,-9.856067 23.79596,-9.900167 8.81843,-0.0441 17.48593,-3.350349 24.09878,-9.963216 13.22574,-13.225729 13.22574,-34.669017 0,-47.894747 -1.78454,-1.77754 -3.76524,-3.31167 -5.86888,-4.63641 8.23021,13.08218 6.6764,30.556975 -4.71444,41.947824 -6.61287,6.612866 -15.28036,9.919114 -24.09879,9.963216 -8.81843,0.0441 -17.43065,3.580543 -23.79596,9.900171 -13.22575,13.225739 -13.22575,34.669009 0,47.894749 1.7846,1.77167 3.76032,3.29869 5.85649,4.61574 z"
     sodipodi:nodetypes="ccssccssccc"
     sodipodi:insensitive="true" />
  <circle
     style="display:none;opacity:0.503634;fill:#ff0000;stroke-width:1.00012;stroke-linecap:round;stroke-linejoin:round;paint-order:markers stroke fill"
     id="path4"
     cx="67.73333"
     cy="67.73333"
     r="1.5875"
     sodipodi:insensitive="true" />
</svg>
