<?xml version="1.0" encoding="UTF-8" standalone="no"?>
<!-- Created with Inkscape (http://www.inkscape.org/) -->

<svg
   width="512"
   height="512"
   viewBox="0 0 135.46666 135.46667"
   version="1.1"
   id="svg5"
   inkscape:version="1.4 (e7c3feb100, 2024-10-09)"
   sodipodi:docname="preferences-desktop-gaming.svg"
   xmlns:inkscape="http://www.inkscape.org/namespaces/inkscape"
   xmlns:sodipodi="http://sodipodi.sourceforge.net/DTD/sodipodi-0.dtd"
   xmlns:xlink="http://www.w3.org/1999/xlink"
   xmlns="http://www.w3.org/2000/svg"
   xmlns:svg="http://www.w3.org/2000/svg">
  <sodipodi:namedview
     id="namedview7"
     pagecolor="#292929"
     bordercolor="#666666"
     borderopacity="1"
     inkscape:showpageshadow="0"
     inkscape:pageopacity="0"
     inkscape:pagecheckerboard="1"
     inkscape:deskcolor="#1a1a1a"
     inkscape:document-units="px"
     showgrid="false"
     inkscape:zoom="1.7226562"
     inkscape:cx="217.10658"
     inkscape:cy="425.79593"
     inkscape:window-width="3256"
     inkscape:window-height="1080"
     inkscape:window-x="1864"
     inkscape:window-y="0"
     inkscape:window-maximized="0"
     inkscape:current-layer="layer1" />
  <defs
     id="defs2">
    <linearGradient
       id="linearGradient106"
       inkscape:collect="always">
      <stop
         style="stop-color:#cccccc;stop-opacity:1;"
         offset="0"
         id="stop106" />
      <stop
         style="stop-color:#cccccc;stop-opacity:0;"
         offset="1"
         id="stop107" />
    </linearGradient>
    <linearGradient
       id="linearGradient94"
       inkscape:collect="always">
      <stop
         style="stop-color:#999999;stop-opacity:1;"
         offset="0"
         id="stop95" />
      <stop
         style="stop-color:#595959;stop-opacity:1;"
         offset="1"
         id="stop96" />
    </linearGradient>
    <linearGradient
       id="linearGradient93"
       inkscape:collect="always">
      <stop
         style="stop-color:#ffffff;stop-opacity:1;"
         offset="0"
         id="stop93" />
      <stop
         style="stop-color:#999999;stop-opacity:0;"
         offset="1"
         id="stop94" />
    </linearGradient>
    <linearGradient
       id="linearGradient74"
       inkscape:collect="always">
      <stop
         style="stop-color:#000000;stop-opacity:1;"
         offset="0"
         id="stop74" />
      <stop
         style="stop-color:#242424;stop-opacity:0;"
         offset="0.07"
         id="stop77" />
      <stop
         style="stop-color:#242424;stop-opacity:0;"
         offset="0.93000001"
         id="stop76" />
      <stop
         style="stop-color:#000000;stop-opacity:1;"
         offset="1"
         id="stop75" />
    </linearGradient>
    <linearGradient
       id="linearGradient59"
       inkscape:collect="always">
      <stop
         style="stop-color:#000000;stop-opacity:1;"
         offset="0"
         id="stop59" />
      <stop
         style="stop-color:#666666;stop-opacity:1;"
         offset="1"
         id="stop60" />
    </linearGradient>
    <linearGradient
       id="linearGradient58"
       inkscape:collect="always">
      <stop
         style="stop-color:#2e2e2e;stop-opacity:1;"
         offset="0"
         id="stop57" />
      <stop
         style="stop-color:#696969;stop-opacity:0;"
         offset="1"
         id="stop58" />
    </linearGradient>
    <linearGradient
       id="linearGradient55"
       inkscape:collect="always">
      <stop
         style="stop-color:#ffffff;stop-opacity:0.40000001;"
         offset="0"
         id="stop56" />
      <stop
         style="stop-color:#000000;stop-opacity:1;"
         offset="0.68000001"
         id="stop55" />
    </linearGradient>
    <linearGradient
       id="linearGradient48"
       inkscape:collect="always">
      <stop
         style="stop-color:#ffffff;stop-opacity:1;"
         offset="0"
         id="stop48" />
      <stop
         style="stop-color:#ffffff;stop-opacity:0;"
         offset="1"
         id="stop49" />
    </linearGradient>
    <linearGradient
       id="linearGradient46"
       inkscape:collect="always">
      <stop
         style="stop-color:#000000;stop-opacity:1;"
         offset="0"
         id="stop46" />
      <stop
         style="stop-color:#000000;stop-opacity:0;"
         offset="1"
         id="stop47" />
    </linearGradient>
    <linearGradient
       id="linearGradient44"
       inkscape:collect="always">
      <stop
         style="stop-color:#141414;stop-opacity:1;"
         offset="0"
         id="stop44" />
      <stop
         style="stop-color:#1f1f1f;stop-opacity:1;"
         offset="1"
         id="stop45" />
    </linearGradient>
    <linearGradient
       id="linearGradient36"
       inkscape:collect="always">
      <stop
         style="stop-color:#ffffff;stop-opacity:1;"
         offset="0"
         id="stop36" />
      <stop
         style="stop-color:#ffffff;stop-opacity:0;"
         offset="1"
         id="stop37" />
    </linearGradient>
    <linearGradient
       id="linearGradient29"
       inkscape:collect="always">
      <stop
         style="stop-color:#ffffff;stop-opacity:1;"
         offset="0"
         id="stop29" />
      <stop
         style="stop-color:#ffffff;stop-opacity:0;"
         offset="1"
         id="stop30" />
    </linearGradient>
    <linearGradient
       id="linearGradient25"
       inkscape:collect="always">
      <stop
         style="stop-color:#000000;stop-opacity:1;"
         offset="0"
         id="stop25" />
      <stop
         style="stop-color:#333333;stop-opacity:0;"
         offset="1"
         id="stop26" />
    </linearGradient>
    <linearGradient
       id="linearGradient22"
       inkscape:collect="always">
      <stop
         style="stop-color:#000000;stop-opacity:1;"
         offset="0"
         id="stop21" />
      <stop
         style="stop-color:#bababa;stop-opacity:0;"
         offset="1"
         id="stop22" />
    </linearGradient>
    <linearGradient
       id="linearGradient19"
       inkscape:collect="always">
      <stop
         style="stop-color:#000000;stop-opacity:1;"
         offset="0"
         id="stop19" />
      <stop
         style="stop-color:#aaaaaa;stop-opacity:1;"
         offset="1"
         id="stop20" />
    </linearGradient>
    <linearGradient
       id="linearGradient15"
       inkscape:collect="always">
      <stop
         style="stop-color:#000000;stop-opacity:1;"
         offset="0"
         id="stop17" />
      <stop
         style="stop-color:#afafaf;stop-opacity:1;"
         offset="1"
         id="stop16" />
    </linearGradient>
    <linearGradient
       id="linearGradient14"
       inkscape:collect="always">
      <stop
         style="stop-color:#000000;stop-opacity:1;"
         offset="0"
         id="stop14" />
      <stop
         style="stop-color:#696969;stop-opacity:0;"
         offset="1"
         id="stop15" />
    </linearGradient>
    <linearGradient
       id="linearGradient11"
       inkscape:collect="always">
      <stop
         style="stop-color:#ffffff;stop-opacity:1;"
         offset="0"
         id="stop11" />
      <stop
         style="stop-color:#ffffff;stop-opacity:0;"
         offset="1"
         id="stop12" />
    </linearGradient>
    <inkscape:path-effect
       effect="fillet_chamfer"
       id="path-effect2"
       is_visible="true"
       lpeversion="1"
       nodesatellites_param="F,0,0,1,0,4,0,1 @ F,0,0,1,0,4,0,1 @ F,0,0,1,0,4,0,1 @ F,0,0,1,0,4,0,1 @ F,0,0,1,0,4,0,1 @ F,0,0,1,0,4,0,1 @ F,0,0,1,0,4,0,1"
       radius="4"
       unit="px"
       method="auto"
       mode="F"
       chamfer_steps="1"
       flexible="false"
       use_knot_distance="true"
       apply_no_radius="true"
       apply_with_radius="true"
       only_selected="false"
       hide_knots="false" />
    <clipPath
       clipPathUnits="userSpaceOnUse"
       id="clipPath4">
      <path
         id="path5"
         style="opacity:1;stroke-width:16.9333;stroke-linecap:round;stroke-dashoffset:149.514;paint-order:markers stroke fill"
         d="m -63.728927,23.999569 v 19.333185 c -1.96e-4,10.599391 8.592203,19.192023 19.191594,19.19211 10.599391,-8.7e-5 19.191792,-8.592719 19.191594,-19.19211 V 23.999569 Z"
         sodipodi:nodetypes="cccccc" />
    </clipPath>
    <filter
       inkscape:collect="always"
       style="color-interpolation-filters:sRGB"
       id="filter5"
       x="-0.19007398"
       y="-0.19396545"
       width="1.380148"
       height="1.3879309">
      <feGaussianBlur
         inkscape:collect="always"
         stdDeviation="2.699182"
         id="feGaussianBlur5" />
    </filter>
    <clipPath
       clipPathUnits="userSpaceOnUse"
       id="clipPath9">
      <path
         id="path10"
         style="fill:#ffffff;stroke:none;stroke-width:1.05833;stroke-linecap:round;stroke-dasharray:none;stroke-dashoffset:149.514;stroke-opacity:1;paint-order:markers stroke fill"
         d="m -33.484341,62.94861 c -1.325364,0 -2.392619,1.066739 -2.392619,2.392103 0,1.325367 1.067255,2.392619 2.392619,2.392619 h 8.476486 c 1.325367,0 2.392103,-1.067252 2.392103,-2.392619 0,-1.325364 -1.066736,-2.392103 -2.392103,-2.392103 z m 19.664434,0 c -1.325365,0 -2.392618,1.066739 -2.392618,2.392103 0,1.325367 1.067253,2.392619 2.392618,2.392619 h 8.4764853 c 1.3253648,0 2.3921018,-1.067252 2.3921018,-2.392619 0,-1.325364 -1.066737,-2.392103 -2.3921018,-2.392103 z" />
    </clipPath>
    <filter
       inkscape:collect="always"
       style="color-interpolation-filters:sRGB"
       id="filter10"
       x="-0.036466326"
       y="-0.66110232"
       width="1.0729327"
       height="2.3222046">
      <feGaussianBlur
         inkscape:collect="always"
         stdDeviation="0.45122554"
         id="feGaussianBlur10" />
    </filter>
    <linearGradient
       inkscape:collect="always"
       xlink:href="#linearGradient11"
       id="linearGradient12"
       x1="67.733315"
       y1="69.290833"
       x2="67.733315"
       y2="70.864151"
       gradientUnits="userSpaceOnUse"
       gradientTransform="matrix(0.87710788,0,0,0.87710788,8.3238907,50.417904)" />
    <radialGradient
       inkscape:collect="always"
       xlink:href="#linearGradient58"
       id="radialGradient15"
       cx="-25.234112"
       cy="48.950474"
       fx="-25.234112"
       fy="48.950474"
       r="2.0054188"
       gradientTransform="matrix(1.832807,0,0,1.8328071,71.307691,10.545979)"
       gradientUnits="userSpaceOnUse" />
    <linearGradient
       inkscape:collect="always"
       xlink:href="#linearGradient15"
       id="linearGradient17"
       x1="-47.984264"
       y1="47.320076"
       x2="-47.984264"
       y2="54.667988"
       gradientUnits="userSpaceOnUse"
       gradientTransform="matrix(1.0225816,0,0,0.99658977,73.625364,49.428506)" />
    <linearGradient
       inkscape:collect="always"
       xlink:href="#linearGradient14"
       id="linearGradient18"
       x1="-26.790264"
       y1="46.647221"
       x2="-25.663801"
       y2="54.012871"
       gradientUnits="userSpaceOnUse"
       gradientTransform="matrix(0.99227328,0,0,0.99227328,51.085318,50.342772)" />
    <linearGradient
       inkscape:collect="always"
       xlink:href="#linearGradient19"
       id="linearGradient20"
       x1="-79.111771"
       y1="37.73563"
       x2="-75.636261"
       y2="65.54274"
       gradientUnits="userSpaceOnUse"
       gradientTransform="matrix(0.99227328,0,0,0.99227328,101.92879,49.010793)" />
    <radialGradient
       inkscape:collect="always"
       xlink:href="#linearGradient22"
       id="radialGradient21"
       cx="-74.890686"
       cy="32.7001"
       fx="-74.890686"
       fy="32.7001"
       r="14.012057"
       gradientUnits="userSpaceOnUse"
       gradientTransform="matrix(0.99227328,0,0,0.99227328,99.370462,67.815311)" />
    <filter
       inkscape:collect="always"
       style="color-interpolation-filters:sRGB"
       id="filter24"
       x="-0.01728"
       y="-0.01728"
       width="1.03456"
       height="1.03456">
      <feGaussianBlur
         inkscape:collect="always"
         stdDeviation="0.20177373"
         id="feGaussianBlur24" />
    </filter>
    <clipPath
       clipPathUnits="userSpaceOnUse"
       id="clipPath24">
      <circle
         style="opacity:1;fill:#ff0000;fill-opacity:1;stroke:none;stroke-width:1.05833;stroke-linecap:round;stroke-dasharray:none;stroke-dashoffset:149.514;stroke-opacity:1;paint-order:markers stroke fill"
         id="circle24"
         cx="-13.357841"
         cy="45.536201"
         r="14.012057" />
    </clipPath>
    <filter
       inkscape:collect="always"
       style="color-interpolation-filters:sRGB"
       id="filter25"
       x="-0.01728"
       y="-0.017279999"
       width="1.03456"
       height="1.03456">
      <feGaussianBlur
         inkscape:collect="always"
         stdDeviation="0.20177378"
         id="feGaussianBlur25" />
    </filter>
    <radialGradient
       inkscape:collect="always"
       xlink:href="#linearGradient25"
       id="radialGradient26"
       cx="159.01945"
       cy="59.760727"
       fx="159.01945"
       fy="59.760727"
       r="7.9375"
       gradientUnits="userSpaceOnUse"
       gradientTransform="matrix(0.83723051,0,0,0.83723061,-36.785862,54.513468)" />
    <filter
       inkscape:collect="always"
       style="color-interpolation-filters:sRGB"
       id="filter26"
       x="-0.017279999"
       y="-0.01728"
       width="1.03456"
       height="1.03456">
      <feGaussianBlur
         inkscape:collect="always"
         stdDeviation="0.12192"
         id="feGaussianBlur26" />
    </filter>
    <linearGradient
       inkscape:collect="always"
       xlink:href="#linearGradient25"
       id="linearGradient28"
       gradientUnits="userSpaceOnUse"
       gradientTransform="matrix(0.8372306,0,0,0.83723052,-14.998682,-126.06581)"
       x1="160.37999"
       y1="71.733574"
       x2="176.25499"
       y2="71.733574" />
    <linearGradient
       inkscape:collect="always"
       xlink:href="#linearGradient29"
       id="linearGradient30"
       x1="100.90424"
       y1="61.374989"
       x2="102.19279"
       y2="69.207199"
       gradientUnits="userSpaceOnUse"
       gradientTransform="matrix(0.83723051,0,0,0.83723061,10.791158,46.604592)" />
    <linearGradient
       inkscape:collect="always"
       xlink:href="#linearGradient36"
       id="linearGradient37"
       x1="22.52545"
       y1="49.737759"
       x2="24.726133"
       y2="63.566692"
       gradientUnits="userSpaceOnUse"
       gradientTransform="matrix(0.99227328,0,0,0.99227328,0.52335451,37.187218)" />
    <radialGradient
       inkscape:collect="always"
       xlink:href="#linearGradient25"
       id="radialGradient42"
       gradientUnits="userSpaceOnUse"
       gradientTransform="matrix(0.83723051,0,0,0.83723061,-15.782744,54.513468)"
       cx="159.01945"
       cy="59.760727"
       fx="159.01945"
       fy="59.760727"
       r="7.9375" />
    <linearGradient
       inkscape:collect="always"
       xlink:href="#linearGradient25"
       id="linearGradient42"
       gradientUnits="userSpaceOnUse"
       gradientTransform="matrix(0.8372306,0,0,0.83723052,-9.5626745,-146.35327)"
       x1="160.37999"
       y1="71.733574"
       x2="176.25499"
       y2="71.733574" />
    <linearGradient
       inkscape:collect="always"
       xlink:href="#linearGradient29"
       id="linearGradient43"
       gradientUnits="userSpaceOnUse"
       x1="100.90424"
       y1="61.374989"
       x2="102.19279"
       y2="69.207199"
       gradientTransform="matrix(0.83723051,0,0,0.83723061,31.794276,46.604592)" />
    <linearGradient
       inkscape:collect="always"
       xlink:href="#linearGradient44"
       id="linearGradient45"
       x1="67.73333"
       y1="24.369349"
       x2="67.73333"
       y2="29.661016"
       gradientUnits="userSpaceOnUse"
       gradientTransform="matrix(0.99227328,0,0,0.99227328,0.51952329,37.187124)" />
    <filter
       inkscape:collect="always"
       style="color-interpolation-filters:sRGB"
       id="filter46"
       x="-0.017311986"
       y="-0.017248131"
       width="1.034624"
       height="1.0344963">
      <feGaussianBlur
         inkscape:collect="always"
         stdDeviation="0.27687056"
         id="feGaussianBlur46" />
    </filter>
    <linearGradient
       inkscape:collect="always"
       xlink:href="#linearGradient46"
       id="linearGradient47"
       x1="106.11653"
       y1="58.132145"
       x2="105.21035"
       y2="29.661016"
       gradientUnits="userSpaceOnUse"
       gradientTransform="translate(-38.38319)" />
    <linearGradient
       inkscape:collect="always"
       xlink:href="#linearGradient48"
       id="linearGradient49"
       x1="140.99684"
       y1="15.899407"
       x2="140.99684"
       y2="54.424702"
       gradientUnits="userSpaceOnUse"
       gradientTransform="matrix(-1,0,0,1,208.75696,3.6810723)" />
    <linearGradient
       inkscape:collect="always"
       xlink:href="#linearGradient48"
       id="linearGradient50"
       gradientUnits="userSpaceOnUse"
       gradientTransform="translate(-73.237174,3.6810723)"
       x1="140.99684"
       y1="15.899407"
       x2="140.99684"
       y2="54.424702" />
    <clipPath
       clipPathUnits="userSpaceOnUse"
       id="clipPath55">
      <path
         style="color:#000000;display:inline;fill:#1f1f1f;stroke-width:0.999998;stroke-linecap:round;stroke-dashoffset:149.514;-inkscape-stroke:none;paint-order:markers stroke fill"
         d="m 141.19443,16.653487 v 19.333185 c -2e-4,10.599391 8.5922,19.192023 19.19159,19.19211 10.59939,-8.7e-5 19.19179,-8.592719 19.1916,-19.19211 V 16.653487 Z"
         id="path55" />
    </clipPath>
    <filter
       inkscape:collect="always"
       style="color-interpolation-filters:sRGB"
       id="filter55"
       x="-0.13268528"
       y="-0.1322133"
       width="1.2653706"
       height="1.2644266">
      <feGaussianBlur
         inkscape:collect="always"
         stdDeviation="2.2097976"
         id="feGaussianBlur55" />
    </filter>
    <linearGradient
       inkscape:collect="always"
       xlink:href="#linearGradient55"
       id="linearGradient56"
       x1="156.57555"
       y1="16.648262"
       x2="160.38654"
       y2="55.152481"
       gradientUnits="userSpaceOnUse" />
    <clipPath
       clipPathUnits="userSpaceOnUse"
       id="clipPath58">
      <path
         id="path59"
         style="fill:#1f1f1f;fill-opacity:1;stroke-width:16.9333;stroke-linecap:round;stroke-dashoffset:149.514;paint-order:markers stroke fill"
         d="m 99.206083,16.153878 v 19.333187 c -1.98e-4,10.599388 8.592207,19.192022 19.191597,19.192107 10.59939,-8.5e-5 19.19179,-8.592719 19.19159,-19.192107 V 16.153878 Z"
         sodipodi:nodetypes="cccccc" />
    </clipPath>
    <linearGradient
       inkscape:collect="always"
       xlink:href="#linearGradient59"
       id="linearGradient60"
       x1="84.897552"
       y1="87.483986"
       x2="80.666656"
       y2="29.661016"
       gradientUnits="userSpaceOnUse"
       gradientTransform="matrix(0.99227328,0,0,0.99227328,0.52335451,37.187218)" />
    <clipPath
       clipPathUnits="userSpaceOnUse"
       id="clipPath62">
      <path
         style="color:#000000;fill:#1a1a1a;stroke-width:0.999998;stroke-linecap:round;stroke-dashoffset:149.514;-inkscape-stroke:none;paint-order:markers stroke fill"
         d="m 87.535061,31.611374 h 25.866669 33.86666 33.86666 33.86667 c 2.20914,0 4,1.790861 4,4 v 49.822972 c 0,2.209139 -1.79086,4 -4,4 H 87.535061 c -2.209138,0 -4,-1.790861 -4,-4 V 35.611374 c 0,-2.209139 1.790862,-4 4,-4 z"
         id="path63" />
    </clipPath>
    <clipPath
       clipPathUnits="userSpaceOnUse"
       id="clipPath67">
      <path
         style="color:#000000;fill:url(#linearGradient68);stroke-width:0.999998;stroke-linecap:round;stroke-dashoffset:149.514;-inkscape-stroke:none;paint-order:markers stroke fill"
         d="m -102.27593,13.545426 -36.44997,5.291667 c -2.20914,0 -3.99975,1.791136 -3.99975,4.000272 v 49.822798 c 0,2.209138 1.79061,4.000272 3.99975,4.000272 h 127.466639 c 2.2091379,0 4.0002726,-1.791134 4.0002726,-4.000272 V 22.837365 c 0,-2.209136 -1.7911347,-4.000272 -4.0002726,-4.000272 l -44.45,-5.291667 h -23.283333 z"
         id="path68" />
    </clipPath>
    <linearGradient
       inkscape:collect="always"
       xlink:href="#linearGradient44"
       id="linearGradient68"
       gradientUnits="userSpaceOnUse"
       gradientTransform="translate(-142.7258,-10.823759)"
       x1="67.73333"
       y1="24.369349"
       x2="67.73333"
       y2="29.661016" />
    <clipPath
       clipPathUnits="userSpaceOnUse"
       id="clipPath71">
      <path
         style="color:#000000;fill:url(#linearGradient72);stroke-width:0.999998;stroke-linecap:round;stroke-dashoffset:149.514;-inkscape-stroke:none;paint-order:markers stroke fill"
         d="m -72.571858,13.897203 -44.450002,5.291667 c -2.20914,0 -3.99975,1.790618 -3.99975,3.999756 v 49.822797 c 0,2.209139 1.79061,4.000273 3.99975,4.000273 h 63.729962 0.0036 63.729449 c 2.20913,0 4.00027,-1.791134 4.00027,-4.000273 V 23.188626 c 0,-2.209138 -1.79114,-3.999756 -4.00027,-3.999756 l -44.450005,-5.291667 h -0.463021 -37.636979 z"
         id="path72" />
    </clipPath>
    <linearGradient
       inkscape:collect="always"
       xlink:href="#linearGradient44"
       id="linearGradient72"
       gradientUnits="userSpaceOnUse"
       gradientTransform="translate(-121.02547,-10.472385)"
       x1="67.73333"
       y1="24.369349"
       x2="67.73333"
       y2="29.661016" />
    <filter
       inkscape:collect="always"
       style="color-interpolation-filters:sRGB"
       id="filter72"
       x="-0.012701352"
       y="-0.027020482"
       width="1.0254027"
       height="1.054041">
      <feGaussianBlur
         inkscape:collect="always"
         stdDeviation="0.72250331"
         id="feGaussianBlur72" />
    </filter>
    <linearGradient
       inkscape:collect="always"
       xlink:href="#linearGradient74"
       id="linearGradient75"
       x1="135.4402"
       y1="56.455056"
       x2="270.95978"
       y2="56.455056"
       gradientUnits="userSpaceOnUse"
       gradientTransform="matrix(0.99227328,0,0,0.99227328,-133.89659,39.288303)" />
    <radialGradient
       inkscape:collect="always"
       xlink:href="#linearGradient93"
       id="radialGradient94"
       cx="117.23723"
       cy="38.734173"
       fx="117.23723"
       fy="38.734173"
       r="1.8520833"
       gradientUnits="userSpaceOnUse" />
    <linearGradient
       inkscape:collect="always"
       xlink:href="#linearGradient94"
       id="linearGradient96"
       x1="116.93285"
       y1="37.664925"
       x2="118.5779"
       y2="41.369091"
       gradientUnits="userSpaceOnUse" />
    <linearGradient
       inkscape:collect="always"
       xlink:href="#linearGradient94"
       id="linearGradient97"
       gradientUnits="userSpaceOnUse"
       x1="116.93285"
       y1="37.664925"
       x2="118.5779"
       y2="41.369091" />
    <radialGradient
       inkscape:collect="always"
       xlink:href="#linearGradient93"
       id="radialGradient97"
       gradientUnits="userSpaceOnUse"
       cx="117.23723"
       cy="38.734173"
       fx="117.23723"
       fy="38.734173"
       r="1.8520833" />
    <clipPath
       clipPathUnits="userSpaceOnUse"
       id="clipPath99">
      <path
         style="color:#000000;fill:#333333;stroke-width:0.999998;stroke-linecap:round;stroke-linejoin:round;stroke-dashoffset:149.514;-inkscape-stroke:none;paint-order:markers stroke fill"
         d="m 153.0188,21.930355 c 1.02606,0 1.85208,0.826029 1.85208,1.852083 v 7.722393 c 0,1.026055 -0.82602,1.852084 -1.85208,1.852084 -1.02605,0 -1.85208,-0.826029 -1.85208,-1.852084 v -7.722393 c 0,-1.026054 0.82603,-1.852083 1.85208,-1.852083 z"
         id="path100" />
    </clipPath>
    <filter
       inkscape:collect="always"
       style="color-interpolation-filters:sRGB"
       id="filter101"
       x="-0.11106746"
       y="-0.039320968"
       width="1.2221349"
       height="1.0786419">
      <feGaussianBlur
         inkscape:collect="always"
         stdDeviation="0.19586885"
         id="feGaussianBlur101" />
    </filter>
    <filter
       inkscape:collect="always"
       style="color-interpolation-filters:sRGB"
       id="filter104"
       x="-0.035986209"
       y="-0.017468594"
       width="1.0719724"
       height="1.0349372">
      <feGaussianBlur
         inkscape:collect="always"
         stdDeviation="0.426751"
         id="feGaussianBlur104" />
    </filter>
    <radialGradient
       inkscape:collect="always"
       xlink:href="#linearGradient106"
       id="radialGradient107"
       cx="-44.537334"
       cy="52.669353"
       fx="-44.537334"
       fy="52.669353"
       r="19.191594"
       gradientTransform="matrix(1,0,0,1.0037023,0,-0.16017074)"
       gradientUnits="userSpaceOnUse" />
    <filter
       style="color-interpolation-filters:sRGB;"
       inkscape:label="Noise Fill"
       id="filter18"
       x="0"
       y="0"
       width="1"
       height="1">
      <feTurbulence
         type="fractalNoise"
         baseFrequency="4 4"
         numOctaves="1"
         seed="4"
         result="turbulence"
         id="feTurbulence17" />
      <feComposite
         in="SourceGraphic"
         in2="turbulence"
         operator="in"
         result="composite1"
         id="feComposite17" />
      <feColorMatrix
         values="1 0 0 0 0 0 1 0 0 0 0 0 1 0 0 0 0 0 4 -1 "
         result="color"
         id="feColorMatrix17" />
      <feFlood
         flood-opacity="1"
         flood-color="rgb(41,41,41)"
         result="flood"
         id="feFlood17" />
      <feMerge
         result="merge"
         id="feMerge18">
        <feMergeNode
           in="flood"
           id="feMergeNode17" />
        <feMergeNode
           in="color"
           id="feMergeNode18" />
      </feMerge>
      <feComposite
         in2="SourceGraphic"
         operator="in"
         result="composite2"
         id="feComposite18" />
    </filter>
    <clipPath
       clipPathUnits="userSpaceOnUse"
       id="clipPath28">
      <path
         id="path28"
         style="display:inline;opacity:1;mix-blend-mode:normal;fill:#ff0000;fill-opacity:1;stroke-width:16.9332;stroke-linecap:round;stroke-dashoffset:149.514;paint-order:markers stroke fill"
         d="m 141.16874,16.628777 v 4.762609 h -0.0916 l -44.450321,5.291732 c -2.209129,0 -3.999655,1.790525 -3.999655,3.999654 v 49.823287 c 0,2.209139 1.790526,4.000168 3.999655,4.000168 h 63.730421 0.004 63.72939 c 2.20913,0 4.00017,-1.791029 4.00017,-4.000168 V 30.682772 c 0,-2.209129 -1.79104,-3.999654 -4.00017,-3.999654 l -44.4503,-5.291732 h -0.0875 v -4.762609 z"
         inkscape:label="texture" />
    </clipPath>
    <filter
       inkscape:collect="always"
       style="color-interpolation-filters:sRGB"
       id="filter28"
       x="-0.069248019"
       y="-0.068992464"
       width="1.138496"
       height="1.1379849">
      <feGaussianBlur
         inkscape:collect="always"
         stdDeviation="1.1074818"
         id="feGaussianBlur28" />
    </filter>
    <filter
       inkscape:collect="always"
       style="color-interpolation-filters:sRGB"
       id="filter32"
       x="-0.023962674"
       y="-0.057852524"
       width="1.0479253"
       height="1.115705">
      <feGaussianBlur
         inkscape:collect="always"
         stdDeviation="0.14444297"
         id="feGaussianBlur32" />
    </filter>
    <filter
       inkscape:collect="always"
       style="color-interpolation-filters:sRGB"
       id="filter33"
       x="-0.023962674"
       y="-0.057852524"
       width="1.0479253"
       height="1.115705">
      <feGaussianBlur
         inkscape:collect="always"
         stdDeviation="0.14444297"
         id="feGaussianBlur33" />
    </filter>
  </defs>
  <g
     inkscape:label="Layer 1"
     inkscape:groupmode="layer"
     id="layer1">
    <g
       id="g104"
       style="display:inline">
      <path
         style="color:#000000;fill:#000000;stroke-linecap:round;-inkscape-stroke:none"
         d="m 92.076172,-1.5136719 c -0.809651,0.57057198 -0.745618,1.02830991 -0.78711,1.25390627 -0.04149,0.22559637 -0.04219,0.35837608 -0.04297,0.48632813 -0.0016,0.2559041 0.01749,0.47439124 0.04102,0.73632813 0.04705,0.52387377 0.125697,1.18232267 0.210938,1.98046877 0.170482,1.5962922 0.364498,3.7273133 0.359375,6.0273437 -0.01025,4.6000609 -0.906714,9.7204479 -3.84961,12.5722659 -5.609747,5.436136 -11.003007,7.036697 -15.421875,11.082031 -2.209433,2.022667 -4.052101,4.697338 -5.205078,8.507812 -1.152976,3.810475 -1.674255,8.743865 -1.498047,15.564454 0.02691,1.021835 0.876574,1.828669 1.898435,1.802734 1.021837,-0.02691 1.828671,-0.876576 1.802734,-1.898438 -0.170053,-6.582338 0.358075,-11.145379 1.341797,-14.396484 0.983722,-3.251105 2.365375,-5.20459 4.160156,-6.847656 3.589564,-3.286132 9.323914,-5.171302 15.5,-11.15625 C 94.766074,20.150404 95.551306,14.005374 95.5625,8.9804688 95.5681,6.4680162 95.357402,4.1965025 95.181641,2.5507813 94.848115,-0.57213737 94.694125,-1.0055184 94.658204,-1.0664062 94.068985,-1.903367 92.912574,-2.1036832 92.076172,-1.5136719 Z"
         id="path103"
         sodipodi:nodetypes="cscsssssscccssssscc" />
      <path
         id="path104"
         style="color:#000000;opacity:0.6;mix-blend-mode:normal;fill:#666666;stroke-linecap:round;-inkscape-stroke:none;filter:url(#filter104)"
         d="m 94.858921,-1.5144737 c 0.38978,0.435569 0.50059,-0.06602 0,0 z m -2.12695,0.464844 c -0.95306,0.340396 -0.4792,1.519972 -0.47397,2.254938 0.55927,5.397326 1.00335,11.0453127 -0.87059,16.2504817 -0.7807,2.215335 -2.17527,4.191628 -4.01408,5.655509 -3.88625,3.542843 -8.7328,5.74549 -12.9242,8.868744 -2.75314,2.124167 -4.89857,5.036561 -5.95501,8.361557 -1.338701,3.907353 -1.63124,7.962745 -1.73328,12.021586 3.39e-4,1.461366 -0.114712,2.993293 0.121518,4.380152 0.358465,0.653861 1.587832,0.388178 1.445312,-0.43164 0.0274,-1.972748 -0.0418,-3.948367 0.0935,-5.920473 0.21279,-4.505886 0.85495,-9.187697 3.23197,-13.111736 2.02377,-3.215639 5.35124,-5.232445 8.54974,-7.110511 3.76018,-2.323967 7.48527,-4.750273 10.43343,-8.068218 2.95792,-3.685623 3.66248,-8.597378 3.69632,-13.1863257 0.009,-2.246627 -0.1488,-4.454545 -0.37991,-6.665236 0.09337,-0.4388796 -0.12571,-1.83682001 -0.18945,-2.710938 -0.11502,-0.435836 -0.59653,-0.720285 -1.03125,-0.58789 z"
         sodipodi:nodetypes="ccscccccccccccccccss" />
    </g>
    <path
       id="path2"
       style="display:inline;fill:url(#linearGradient45);stroke-width:16.9332;stroke-linecap:round;stroke-dashoffset:149.514;paint-order:markers stroke fill"
       d="m 48.598752,61.368416 -44.1065467,5.25078 c -2.1920684,0 -3.96885079,1.776782 -3.96885079,3.968851 v 49.437833 c 0,2.19207 1.77678239,3.96936 3.96885079,3.96936 h 63.2375357 0.0036 63.237029 c 2.19206,0 3.96936,-1.77729 3.96936,-3.96936 V 70.588047 c 0,-2.192069 -1.7773,-3.968851 -3.96936,-3.968851 L 86.863807,61.368416 H 86.404364 49.058195 Z" />
    <path
       id="rect1"
       style="display:inline;opacity:1;fill:#1a1a1a;stroke:url(#linearGradient60);stroke-width:0.0529167;stroke-linecap:round;stroke-dasharray:none;stroke-dashoffset:149.514;stroke-opacity:1;paint-order:markers stroke fill"
       d="M 4.4924476,66.619052 H 30.159248 63.764235 97.369217 130.97421 c 2.19207,0 3.96909,1.777023 3.96909,3.969093 v 49.438005 c 0,2.19207 -1.77702,3.96909 -3.96909,3.96909 H 4.4924476 c -2.1920696,0 -3.96909309,-1.77702 -3.96909309,-3.96909 V 70.588145 c 0,-2.19207 1.77702349,-3.969093 3.96909309,-3.969093 z"
       sodipodi:nodetypes="ccccccccsssc" />
    <path
       style="color:#000000;display:inline;opacity:0.4;fill:#000000;stroke-width:1.00779;stroke-linecap:round;stroke-dashoffset:149.514;-inkscape-stroke:none;paint-order:markers stroke fill;filter:url(#filter72)"
       d="m -72.603516,13.367188 0.494141,1.058593 h 37.636719 0.43164 l 44.451172,5.292969 h 0.03125 c 1.923183,0 3.470703,1.547595 3.470703,3.470703 v 49.822266 c 0,1.923107 -1.547602,3.470703 -3.470703,3.470703 h -63.730468 -0.002 -63.730468 c -1.92312,0 -3.47071,-1.547511 -3.47071,-3.470703 V 23.189453 c 0,-1.923193 1.54751,-3.470703 3.47071,-3.470703 h 0.0312 l 44.480468,-5.296875 -0.0625,0.0039 z m 0,0 -0.03125,0.0039 -44.449214,5.292968 0.0625,-0.0039 c -2.49509,0 -4.5293,2.034219 -4.5293,4.529297 v 49.822266 c 0,2.495077 2.03413,4.529297 4.5293,4.529297 h 63.730464 0.002 63.730468 c 2.495156,0 4.529297,-2.034135 4.529297,-4.529297 V 23.189453 c 0,-2.495163 -2.034224,-4.529297 -4.529297,-4.529297 l 0.0625,0.0039 -44.480468,-5.296874 h -0.496094 -37.636719 z"
       id="path70"
       clip-path="url(#clipPath71)"
       transform="matrix(0.99227328,0,0,0.99227328,120.61159,47.578441)" />
    <path
       id="path46"
       style="display:inline;fill:url(#linearGradient47);stroke-width:17.0651;stroke-linecap:round;stroke-dashoffset:149.514;paint-order:markers stroke fill;filter:url(#filter46)"
       d="m 48.541737,19.606849 v 19.333186 c -1.9e-4,10.599389 8.59221,19.192023 19.191603,19.192109 10.59939,-8.6e-5 19.19179,-8.59272 19.19159,-19.192109 V 19.606849 Z"
       sodipodi:nodetypes="cccccc"
       transform="matrix(0.99227328,0,0,0.99227328,0.52335451,37.187218)" />
    <path
       id="path21"
       clip-path="url(#clipPath28)"
       style="color:#000000;display:inline;opacity:1;fill:#000000;fill-opacity:1;stroke-width:1.00779;stroke-linecap:round;stroke-dashoffset:149.514;-inkscape-stroke:none;paint-order:markers stroke fill;filter:url(#filter28)"
       d="m 141.19384,16.653322 v 19.333224 c -2e-4,10.599392 8.59218,19.192004 19.19157,19.192091 10.59939,-8.7e-5 19.19176,-8.592699 19.19157,-19.192091 V 16.653322 Z m 19.19157,0.01666 18.39789,0.745769 v 18.57079 c 4e-5,1.906949 -0.28899,3.745589 -0.82597,5.474527 -0.89514,2.881563 -2.47877,5.458226 -4.55898,7.53841 -2.70392,2.703896 -6.24724,4.568944 -10.20797,5.173511 -0.91397,0.139509 -1.85064,0.211849 -2.80392,0.211961 -0.31852,-2e-6 -0.63488,-0.008 -0.9494,-0.02396 -0.31314,-0.01585 -0.62446,-0.04008 -0.93325,-0.07135 -6.9e-4,-6.9e-5 -5.7e-4,6.9e-5 -0.002,0 -0.30878,-0.03131 -0.61567,-0.07031 -0.91971,-0.116657 -5.78965,-0.883241 -10.68702,-4.459336 -13.37592,-9.412727 -0.28304,-0.521409 -0.54133,-1.057799 -0.7739,-1.608195 -0.34886,-0.825593 -0.63889,-1.682181 -0.86555,-2.564361 -0.15111,-0.58812 -0.27418,-1.187808 -0.36715,-1.797241 -0.13944,-0.914151 -0.21198,-1.850449 -0.21196,-2.803924 v -18.57079 z"
       transform="matrix(0.99227329,0,0,0.99227329,-91.412826,40.117614)"
       inkscape:label="center-bump-shadow" />
    <path
       id="rect2"
       style="display:inline;fill:#1a1a1a;fill-opacity:1;stroke-width:16.9332;stroke-linecap:round;stroke-dashoffset:149.514;paint-order:markers stroke fill"
       d="m 48.690026,56.64257 v 19.183804 c -1.96e-4,10.517491 8.525814,19.043732 19.043305,19.043817 10.517491,-8.5e-5 19.043502,-8.526326 19.043306,-19.043817 V 56.64257 Z"
       sodipodi:nodetypes="cccccc"
       inkscape:label="center-bump" />
    <path
       id="path3"
       clip-path="url(#clipPath4)"
       style="display:inline;opacity:0.04;mix-blend-mode:normal;fill:url(#radialGradient107);stroke-width:17.0651;stroke-linecap:round;stroke-dashoffset:149.514;paint-order:markers stroke fill;filter:url(#filter5)"
       d="m -61.582031,44.171875 c 0.24645,6.737271 4.920354,13.071286 11.31479,15.239132 5.423141,1.976657 11.812566,0.943063 16.312825,-2.681589 3.494073,-2.773517 5.875244,-6.943768 6.376291,-11.387621 -0.01984,-0.436173 0.314002,-1.179122 -0.266306,-1.479833 -5.527385,-5.656405 -11.133347,-11.235148 -16.692678,-16.860011 -5.681641,5.723307 -11.363282,11.446615 -17.044922,17.169922 z"
       transform="matrix(0.99227328,0,0,0.99227328,111.92654,32.828439)"
       inkscape:label="center-bump-round-highlight" />
    <path
       id="path105"
       style="display:inline;mix-blend-mode:soft-light;fill:#ffffff;fill-opacity:1;stroke-width:16.9332;stroke-linecap:round;stroke-dashoffset:149.514;paint-order:markers stroke fill"
       d="m 48.691613,56.642607 v 4.725809 h -0.09095 L 4.4937912,66.619258 c -2.19206,0 -3.96874993,1.776684 -3.96874993,3.96875 v 49.438332 c 0,2.19206 1.77668993,3.96926 3.96874993,3.96926 h 63.2380028 0.0036 63.236966 c 2.19206,0 3.96926,-1.7772 3.96926,-3.96926 V 70.588008 c 0,-2.192066 -1.7772,-3.96875 -3.96926,-3.96875 L 86.86551,61.368416 h -0.08682 v -4.725809 z"
       inkscape:label="lighten-color" />
    <g
       id="g82"
       transform="matrix(0.99227329,0,0,0.99227329,6.942321,37.187219)"
       style="display:inline;mix-blend-mode:normal;stroke-width:1.00779"
       inkscape:label="Zap Pad">
      <text
         xml:space="preserve"
         style="font-style:normal;font-weight:normal;font-size:10.5833px;line-height:1.25;font-family:sans-serif;display:none;fill:#d4ff2a;fill-opacity:1;stroke:none;stroke-width:0.266643"
         x="1.3776428"
         y="48.616821"
         id="text79"
         transform="rotate(-22.082932)"
         sodipodi:insensitive="true"><tspan
           sodipodi:role="line"
           id="tspan79"
           style="font-style:normal;font-variant:normal;font-weight:normal;font-stretch:normal;font-size:10.5833px;font-family:Electrox;-inkscape-font-specification:'Electrox, Normal';font-variant-ligatures:normal;font-variant-caps:normal;font-variant-numeric:normal;font-variant-east-asian:normal;fill:#d4ff2a;fill-opacity:1;stroke-width:0.266643"
           x="0"
           y="0">Pad</tspan></text>
      <text
         xml:space="preserve"
         style="font-style:normal;font-weight:normal;font-size:10.5833px;line-height:1.25;font-family:sans-serif;display:none;fill:#d4ff2a;fill-opacity:1;stroke:none;stroke-width:0.266643"
         x="-11.549461"
         y="42.134007"
         id="text82"
         transform="rotate(-22.082932)"
         sodipodi:insensitive="true"><tspan
           sodipodi:role="line"
           id="tspan82"
           style="font-style:normal;font-variant:normal;font-weight:normal;font-stretch:normal;font-size:10.5833px;font-family:Electrox;-inkscape-font-specification:'Electrox, Normal';font-variant-ligatures:normal;font-variant-caps:normal;font-variant-numeric:normal;font-variant-east-asian:normal;fill:#d4ff2a;fill-opacity:1;stroke-width:0.266643"
           x="0"
           y="0"><tspan
             style="fill:#ff7f2a;stroke-width:0.266643"
             id="tspan81">Zap</tspan></tspan></text>
      <path
         style="font-size:10.5833px;line-height:1.25;font-family:Electrox;-inkscape-font-specification:'Electrox, Normal';fill:#d4ff2a;stroke-width:0.266643"
         d="m 2.1078904,43.83317 -0.042333,-0.04233 h 3.1644066 l 0.317499,0.328082 0.03175,0.0635 0.084666,0.08467 q 0,0 0.0635,0.08467 0.1164163,0.08467 0.1904994,0.201082 0.09525,0.08467 0.2222493,0.253999 l 0.084666,0.07408 0.105833,0.126999 -0.021167,0.105833 -0.1269996,0.08467 -0.1269996,0.105833 q -0.0635,0.0635 -0.1587495,0.116416 l -0.2539992,0.211666 -0.074083,0.0635 -0.3386656,0.243415 q -0.09525,0.07408 -0.1164163,0.105833 L 4.7748819,46.288495 4.6584656,46.394328 4.531466,46.500161 q -0.074083,0.03175 -0.1693328,0.0635 -0.084666,0.02117 -0.2010826,0.04233 l -0.1481662,0.03175 -0.084666,0.02117 -0.2434159,0.08467 -0.105833,0.02117 -0.084666,0.02117 q -0.2434159,0.08467 -0.4762485,0.127 l -0.2857491,1.05833 0.529165,0.518582 -2.55057523,0.613831 Q 0.73206147,48.93432 0.78497797,48.754404 1.0918937,47.897157 1.2612265,47.442075 1.4199759,46.97641 1.4305592,46.91291 l 0.4550819,-1.344079 q -0.1375829,0.01058 -0.3280823,0.08467 l -0.021167,-0.04233 0.5079984,-0.666748 0.0635,-0.07408 0.5397483,-0.709081 0.0635,-0.08467 -0.3069157,-0.116417 -0.1481662,-0.0635 z m 1.7779944,0.761997 q -0.1375829,-0.05292 -0.2645825,-0.126999 -0.052916,0.116416 -0.0635,0.275166 l -0.0635,0.179916 q -0.010583,0.05292 -0.021167,0.105833 -0.010583,0.05292 -0.021167,0.105833 l -0.021167,0.08467 -0.0635,0.222249 -0.010583,0.08467 -0.042333,0.148166 -0.021167,0.07408 -0.0635,0.296332 0.4550819,-0.08467 q 0.052916,-0.02117 0.1375829,-0.04233 0.09525,-0.02117 0.211666,-0.04233 l 0.084666,-0.02117 q 0.042333,-0.04233 0.09525,-0.09525 0.052917,-0.0635 0.1058329,-0.148166 l 0.105833,-0.126999 0.042333,-0.04233 0.1693328,-0.201082 q 0.042333,-0.04233 0.084666,-0.09525 0.042333,-0.0635 0.09525,-0.137583 L 4.3621332,44.806833 4.245717,44.743334 4.0128844,44.658667 Z m 5.5138976,-0.529165 -1.1112465,0.359833 q -0.010583,0.126999 -0.1481661,0.148166 -0.074083,0.01058 -0.3704155,0.07408 -0.2963324,0.0635 -0.8360807,0.190499 l -0.021167,0.04233 0.1799161,0.550331 h 0.105833 L 5.748544,47.992407 h 1.3440791 l 0.052917,-0.22225 0.2539992,-0.613831 q 0.3280823,-0.582082 0.9948301,-0.96308 l 0.042333,0.09525 0.074083,1.15358 q 0,0.0635 0.010583,0.07408 l 0.021167,0.465665 1.5769119,-0.402165 Q 9.6114484,44.722167 9.6537816,44.552834 9.950114,44.055419 9.9818639,43.886086 h -0.084666 z m -0.9842469,1.968494 -0.5291649,-0.03175 0.4233319,-1.05833 q 0.021167,0.07408 0.042333,0.349249 0.021167,0.264583 0.0635,0.740831 z m 5.2810695,-1.238246 -0.0635,0.02117 -0.15875,0.05292 -0.05292,0.02117 -1.344079,-0.285749 0.201083,0.783164 -0.02117,0.0635 -0.05292,0.148166 -0.01058,0.0635 -0.02117,0.05292 -0.02117,0.07408 -0.02117,0.0635 -0.02117,0.105833 q -0.105833,0.666748 -0.169333,1.02658 -0.05292,0.349249 -0.07408,0.423332 h -0.169333 l -0.08467,-0.01058 h -0.137583 l -0.08467,-0.01058 q -0.126999,0 -0.232832,-0.03175 l -0.148166,-0.01058 q -0.07408,-0.01058 -0.127,-0.02117 -0.05292,-0.01058 -0.105833,-0.02117 h -0.05292 q -0.05292,-0.02117 -0.09525,-0.02117 -0.03175,-0.01058 -0.07408,-0.01058 l -0.105833,-0.03175 q -0.1905,-0.05292 -0.296333,-0.05292 -0.05292,0.158749 -0.05292,0.211666 0.05292,0 0.105833,0.03175 0.08467,0.05292 0.116416,0.05292 0.116416,0.03175 0.169333,0.07408 l 0.338666,0.137583 q 0.04233,0.01058 0.0635,0.02117 0.03175,0.01058 0.05292,0.02117 l 0.126999,0.04233 0.243416,0.105833 q 0.03175,0.01058 0.04233,0.02117 0.02117,0 0.02117,0 l 0.317499,0.08467 -0.211666,1.037163 0.560915,-0.910164 h 1.830911 l 0.0635,-0.0635 0.0635,-0.04233 0.0635,-0.0635 0.09525,-0.0635 0.127,-0.105833 q 0.02117,-0.02117 0.05292,-0.03175 0.04233,-0.02117 0.09525,-0.07408 l 0.148166,-0.116417 0.0635,-0.05292 q 0.04233,-0.03175 0.07408,-0.05292 0.03175,-0.03175 0.0635,-0.0635 l 0.148166,-0.105833 0.02117,-0.02117 q 0.08467,-0.04233 0.169333,-0.127 l 0.02117,-0.07408 q 0.02117,-0.08467 0.02117,-0.05292 l 0.08467,-0.201083 q 0.03175,-0.05292 0.04233,-0.08467 0.01058,-0.04233 0.02117,-0.08467 l 0.03175,-0.05292 0.148167,-0.370416 q 0.02117,-0.04233 0.03175,-0.07408 0.01058,-0.03175 0.02117,-0.0635 0.116416,-0.211666 0.127,-0.370415 L 14.00352,45.007916 q 0.211666,-0.253999 0.28575,-0.402165 z m 0.03175,0.888997 h 0.444498 l 0.105833,0.02117 q 0.1905,-0.02117 0.253999,0.01058 l -0.03175,0.05292 -0.04233,0.126999 -0.01058,0.0635 -0.338666,0.973664 -0.07408,-0.08467 q -0.825497,0.507999 -1.672161,0.539749 l 0.338666,-0.624415 q 0.03175,-0.03175 0.04233,-0.0635 0.01058,-0.04233 0.0635,-0.105833 l 0.137582,-0.211666 0.03175,-0.05292 0.1905,-0.243416 0.03175,-0.07408 0.03175,-0.03175 0.211666,-0.317499 q 0.116416,0.04233 0.285749,0.02117 z"
         id="text1"
         transform="rotate(-22.082932)"
         aria-label="Pad" />
      <path
         style="font-size:10.5833px;line-height:1.25;font-family:Electrox;-inkscape-font-specification:'Electrox, Normal';fill:#ff7f2a;stroke-width:0.266643"
         d="m -6.7023101,37.424438 -0.021167,-0.0635 q 0.1481662,0.02117 0.2963324,0.08467 0.1481662,0.05292 0.3174989,0.158749 l 0.4127487,0.211666 0.0635,0.02117 0.1693328,0.105833 0.0635,0.01058 0.5503316,0.380999 q 0.1269996,0.08467 0.1904994,0.264582 -0.074083,0.03175 -0.1693328,0.0635 -0.084666,0.02117 -0.2010827,0.04233 l -0.105833,0.02117 -0.042333,0.02117 -0.4550819,0.116416 -0.105833,0.02117 -0.3280823,0.105833 h -0.0635 l -0.391582,0.126999 -0.1269996,0.02117 -0.9842469,0.285749 -0.084666,0.02117 -1.3229125,0.433916 -0.084666,0.02117 q -0.074083,0.02117 -0.1587495,0.0635 -0.084666,0.04233 -0.1693328,0.105833 0.052917,0.03175 0.1269996,0.08467 0.074083,0.04233 0.1587495,0.09525 l 0.1269995,0.08467 q 0.052916,0.01058 0.1587495,0.08467 l 0.7302477,0.306916 q 0.5926648,0.148166 0.9313304,-0.412749 l 0.4339153,0.148166 0.1587495,0.0635 q 0.1375829,0.04233 0.2539992,0.08467 0.1269996,0.04233 0.2434158,0.09525 l 0.7514143,0.349249 0.2222493,0.148166 0.1904994,0.105833 q 0.09525,0.116416 0.2857491,0.222249 l 0.0635,0.0635 0.1269996,0.169333 0.010583,0.04233 q -1.3229125,-0.476248 -2.8680742,-0.253999 -0.084666,0.08467 -0.1481662,0.211666 l -0.042333,0.04233 q -0.021167,0.04233 -0.052917,0.09525 -0.03175,0.05292 -0.0635,0.127 l -0.084666,0.105833 h -0.3492489 l -0.2539992,-0.04233 h -0.0635 l -0.2857491,-0.04233 -0.0635,-0.02117 h -0.1269996 l -0.074083,-0.02117 -0.2328325,-0.04233 -0.084666,-0.02117 -0.2010827,-0.03175 -0.084666,-0.02117 -0.3069157,-0.08467 q -0.2116663,-0.07408 -0.3386653,-0.08467 -0.22225,-0.07408 -0.507999,-0.232833 l -0.0635,-0.02117 -0.232833,-0.137583 -0.222249,-0.232833 q -0.105833,-0.148166 -0.08467,-0.370415 0,-0.232833 0.148166,-0.476249 l 0.201083,-0.179916 q 0.105833,-0.05292 0.296333,-0.190499 l 0.116416,-0.08467 0.0635,-0.02117 q 0.04233,-0.03175 0.126999,-0.07408 0.09525,-0.05292 0.243416,-0.127 0.04233,-0.01058 0.1693329,-0.08467 l 0.0635,-0.02117 0.1375829,-0.08467 q 0.074083,-0.01058 0.211666,-0.08467 l 1.238246,-0.433915 q 0.084666,-0.02117 0.1904994,-0.05292 0.1164163,-0.03175 0.2645825,-0.0635 0.09525,-0.04233 0.1481662,-0.04233 l 0.2222493,-0.0635 q 0.1269996,0 0.2751658,-0.0635 -1.1747463,-0.433915 -2.4870754,0.02117 l 0.021167,-0.190499 0.042333,-0.455082 q 0.010583,-0.05292 0.010583,-0.09525 0.010583,-0.05292 0.010583,-0.105833 l 0.021167,-0.148166 h 0.5185816 l 0.1587495,0.02117 1.0159968,0.08467 q 0.1693328,0 0.4127487,0.0635 h 0.0635 q 0.074083,0.01058 0.1587495,0.04233 0.084666,0.02117 0.1693328,0.0635 l 0.317499,-0.391582 z m 5.3022338,0.15875 -1.1112464,0.359832 q -0.010583,0.126999 -0.1481662,0.148166 -0.074083,0.01058 -0.3704155,0.07408 -0.2963324,0.0635 -0.8360807,0.1905 l -0.021167,0.04233 0.1799161,0.550331 h 0.105833 l -1.4499121,2.561159 h 1.3440791 l 0.052917,-0.222249 0.2539992,-0.613832 q 0.3280823,-0.582081 0.9948302,-0.96308 l 0.042333,0.09525 0.074083,1.153579 q 0,0.0635 0.010583,0.07408 l 0.021167,0.465666 1.57691169,-0.402166 q -0.50799839,-2.857491 -0.46566519,-3.026824 0.2963324,-0.497415 0.3280823,-0.666747 h -0.0846664 z m -0.9842468,1.968493 -0.529165,-0.03175 0.423332,-1.058329 q 0.021167,0.07408 0.042333,0.349248 0.021167,0.264583 0.0635,0.740831 z m 3.29140835,-1.598078 0.11641625,0.05292 0.1164163,0.05292 0.2434159,0.09525 -0.042333,0.0635 -0.43391525,0.571498 -0.0529165,0.05292 -0.41274868,0.539749 0.0211666,0.03175 q 0.0740831,-0.02117 0.13758289,-0.04233 0.0634998,-0.02117 0.1269996,-0.02117 l -0.37041549,1.068913 q -0.0105833,0.105833 -0.50799838,1.471079 -0.0529165,0.179916 -0.0634998,0.285749 L 1.8278323,41.678925 1.4045003,41.266176 1.6373329,40.419512 q 0.1693328,-0.03175 0.3809988,-0.09525 l 0.0635,-0.02117 0.084666,-0.02117 0.2010827,-0.0635 0.052916,-0.02117 0.1269996,-0.02117 q 0.09525,-0.02117 0.1587495,-0.04233 0.074083,-0.02117 0.1375829,-0.04233 l 0.09525,-0.08467 0.105833,-0.08467 0.2645825,-0.1905 q 0.010583,-0.01058 0.03175,-0.03175 0.021167,-0.02117 0.0635,-0.05292 l 0.2645825,-0.201083 0.0635,-0.05292 0.2010826,-0.169333 q 0.042333,-0.02117 0.074083,-0.04233 0.03175,-0.02117 0.0635,-0.04233 l 0.084666,-0.08467 0.105833,-0.07408 0.021167,-0.08467 -0.084666,-0.09525 -0.0635,-0.0635 q -0.074083,-0.137583 -0.1904994,-0.201082 -0.021167,-0.04233 -0.0635,-0.07408 -0.03175,-0.04233 -0.074083,-0.08467 -0.021167,-0.03175 -0.03175,-0.04233 -0.010583,-0.02117 -0.021167,-0.03175 l -0.0635,-0.0635 -0.042333,-0.05292 L 3.404744,37.921853 H 0.87533535 Z m 1.42874545,0.613832 0.084666,0.05292 0.1904994,0.0635 0.105833,0.05292 0.3598322,0.15875 q -0.052916,0.05292 -0.084666,0.105833 -0.03175,0.05292 -0.0635,0.08467 l -0.1375829,0.15875 -0.03175,0.03175 -0.084666,0.105833 q -0.052916,0.0635 -0.09525,0.116416 -0.042333,0.04233 -0.074083,0.07408 l -0.0635,0.02117 q -0.2010827,0.03175 -0.2751658,0.0635 l -0.3704155,0.07408 0.052917,-0.243415 0.021167,-0.05292 0.03175,-0.127 0.010583,-0.0635 0.052917,-0.179916 0.021167,-0.0635 q 0.010583,-0.05292 0.010583,-0.08467 0.010583,-0.04233 0.021167,-0.08467 l 0.042333,-0.148166 q 0.010583,-0.127 0.052917,-0.222249 0.084666,0.0635 0.2222493,0.105833 z"
         id="text3"
         transform="rotate(-22.082932)"
         aria-label="Zap" />
    </g>
    <g
       id="g20"
       inkscape:label="labels">
      <rect
         style="fill:#d4ff2a;fill-opacity:1;stroke:none;stroke-width:1.05833;stroke-linecap:round;stroke-linejoin:round;stroke-dasharray:none;stroke-dashoffset:149.514;stroke-opacity:1;paint-order:markers stroke fill"
         id="rect77"
         width="1.348438"
         height="6.7121391"
         x="116.67898"
         y="88.655769"
         ry="0.67421901" />
      <g
         id="g92"
         transform="matrix(0.99227329,0,0,0.99227329,0.52335451,37.712295)"
         style="stroke-width:1.00779">
        <rect
           style="fill:#d4ff2a;fill-opacity:1;stroke:none;stroke-width:1.06657;stroke-linecap:round;stroke-linejoin:round;stroke-dasharray:none;stroke-dashoffset:149.514;stroke-opacity:1;paint-order:markers stroke fill"
           id="rect78"
           width="1.3589382"
           height="6.7644057"
           x="94.603821"
           y="51.34016"
           ry="0.67946911" />
        <rect
           style="fill:#d4ff2a;fill-opacity:1;stroke:none;stroke-width:1.06657;stroke-linecap:round;stroke-linejoin:round;stroke-dasharray:none;stroke-dashoffset:149.514;stroke-opacity:1;paint-order:markers stroke fill"
           id="rect79"
           width="1.3589382"
           height="6.7644057"
           x="96.720482"
           y="51.34016"
           ry="0.67946911" />
      </g>
      <circle
         style="fill:#ff7f2a;fill-opacity:1;stroke:none;stroke-width:1.05833;stroke-linecap:round;stroke-linejoin:round;stroke-dasharray:none;stroke-dashoffset:149.514;stroke-opacity:1;paint-order:markers stroke fill"
         id="path82"
         cx="103.00732"
         cy="84.303192"
         r="0.76886457" />
      <circle
         style="fill:#ff7f2a;fill-opacity:1;stroke:none;stroke-width:1.05833;stroke-linecap:round;stroke-linejoin:round;stroke-dasharray:none;stroke-dashoffset:149.514;stroke-opacity:1;paint-order:markers stroke fill"
         id="circle82"
         cx="103.00732"
         cy="80.45887"
         r="1.1532968" />
      <circle
         style="fill:#ff7f2a;fill-opacity:1;stroke:none;stroke-width:1.05833;stroke-linecap:round;stroke-linejoin:round;stroke-dasharray:none;stroke-dashoffset:149.514;stroke-opacity:1;paint-order:markers stroke fill"
         id="circle83"
         cx="103.00732"
         cy="76.61454"
         r="1.5377293" />
      <circle
         style="fill:#ff7f2a;fill-opacity:1;stroke:none;stroke-width:1.05833;stroke-linecap:round;stroke-linejoin:round;stroke-dasharray:none;stroke-dashoffset:149.514;stroke-opacity:1;paint-order:markers stroke fill"
         id="circle86"
         cx="110.69595"
         cy="84.303192"
         r="0.76886457" />
      <circle
         style="fill:#ff7f2a;fill-opacity:1;stroke:none;stroke-width:1.05833;stroke-linecap:round;stroke-linejoin:round;stroke-dasharray:none;stroke-dashoffset:149.514;stroke-opacity:1;paint-order:markers stroke fill"
         id="circle87"
         cx="110.69595"
         cy="80.45887"
         r="1.1532968" />
      <circle
         style="fill:#ff7f2a;fill-opacity:1;stroke:none;stroke-width:1.05833;stroke-linecap:round;stroke-linejoin:round;stroke-dasharray:none;stroke-dashoffset:149.514;stroke-opacity:1;paint-order:markers stroke fill"
         id="circle88"
         cx="110.69595"
         cy="76.61454"
         r="1.5377293" />
    </g>
    <path
       id="path1"
       style="display:none;opacity:0.28;mix-blend-mode:darken;fill:#000000;fill-opacity:1;stroke-width:16.9332;stroke-linecap:round;stroke-dashoffset:149.514;paint-order:markers stroke fill;filter:url(#filter18)"
       d="m 48.691359,56.64226 v 4.72581 h -0.0909 l -44.10687,5.250845 c -2.19206,0 -3.96874991,1.77669 -3.96874991,3.96875 v 49.438315 c 0,2.19207 1.77668991,3.96926 3.96874991,3.96926 h 63.238 0.004 63.236971 c 2.19206,0 3.96926,-1.77719 3.96926,-3.96926 V 70.587665 c 0,-2.19206 -1.7772,-3.96875 -3.96926,-3.96875 L 86.865709,61.36807 h -0.0868 v -4.72581 z"
       inkscape:label="texture-full" />
    <path
       id="path33"
       style="display:inline;opacity:0.28;mix-blend-mode:difference;fill:#000000;fill-opacity:1;stroke-width:16.9332;stroke-linecap:round;stroke-dashoffset:149.514;paint-order:markers stroke fill;filter:url(#filter18)"
       inkscape:label="texture-limited"
       d="m 6.6104491,66.618672 v 57.376338 h 61.1213329 0.0036 61.120298 V 66.618672 l -41.9902,5.17e-4 h -0.08682 -0.0021 v 9.207189 C 86.77681,86.343869 78.250823,94.870092 67.733332,94.870177 57.215841,94.870092 48.689855,86.343869 48.690051,75.826378 v -9.207189 h -0.0894 z" />
    <g
       id="g10"
       style="display:inline;stroke-width:1.14011"
       transform="matrix(0.87710788,0,0,0.87710788,8.3238907,50.417904)">
      <path
         style="stroke-linecap:round;stroke-dashoffset:149.514;paint-order:markers stroke fill;filter:url(#filter32)"
         d="m 53.662109,68.6875 c -1.649161,0 -2.99414,1.346932 -2.99414,2.996094 0,1.649162 1.344979,2.996093 2.99414,2.996093 h 8.476563 c 1.649162,0 2.996094,-1.346931 2.996094,-2.996093 0,-1.649162 -1.346932,-2.996094 -2.996094,-2.996094 z m 0,1.207031 h 8.476563 c 1.001571,0 1.789062,0.787492 1.789062,1.789063 0,1.001571 -0.787491,1.789062 -1.789062,1.789062 h -8.476563 c -1.001571,0 -1.789062,-0.787491 -1.789062,-1.789062 0,-1.001571 0.787491,-1.789063 1.789062,-1.789063 z"
         id="path29" />
      <path
         style="fill:#333333;stroke-linecap:round;stroke-dashoffset:149.514;paint-order:markers stroke fill"
         d="m 53.6629,69.290833 h 8.476356 c 1.325367,0 2.392358,1.066991 2.392358,2.392358 0,1.325366 -1.066991,2.392358 -2.392358,2.392358 H 53.6629 c -1.325366,0 -2.392358,-1.066992 -2.392358,-2.392358 0,-1.325367 1.066992,-2.392358 2.392358,-2.392358 z"
         id="path30" />
      <path
         style="stroke-linecap:round;stroke-dashoffset:149.514;paint-order:markers stroke fill;filter:url(#filter33)"
         d="m 73.328125,68.6875 c -1.649162,0 -2.996094,1.346932 -2.996094,2.996094 0,1.649162 1.346932,2.996093 2.996094,2.996093 h 8.476562 c 1.649162,0 2.994141,-1.346931 2.994141,-2.996093 0,-1.649162 -1.344979,-2.996094 -2.994141,-2.996094 z m 0,1.207031 h 8.476562 c 1.001571,0 1.789063,0.787492 1.789063,1.789063 0,1.001571 -0.787492,1.789062 -1.789063,1.789062 h -8.476562 c -1.001571,0 -1.789062,-0.787491 -1.789063,-1.789062 0,-1.001571 0.787492,-1.789063 1.789063,-1.789063 z"
         id="path31" />
      <path
         style="fill:#333333;stroke-linecap:round;stroke-dashoffset:149.514;paint-order:markers stroke fill"
         d="m 73.327409,69.290833 h 8.476356 c 1.325366,0 2.392358,1.066991 2.392358,2.392358 0,1.325366 -1.066992,2.392358 -2.392358,2.392358 h -8.476356 c -1.325366,0 -2.392358,-1.066992 -2.392358,-2.392358 0,-1.325367 1.066992,-2.392358 2.392358,-2.392358 z"
         id="path32" />
    </g>
    <path
       id="path73"
       style="display:inline;opacity:0.4;fill:url(#linearGradient75);stroke:none;stroke-width:0.0529167;stroke-linecap:round;stroke-dasharray:none;stroke-dashoffset:149.514;stroke-opacity:1;paint-order:markers stroke fill"
       d="M 4.4924476,66.619052 H 30.159253 63.764235 97.369217 130.97421 c 2.19207,0 3.96909,1.777023 3.96909,3.969093 v 49.438005 c 0,2.19207 -1.77702,3.96909 -3.96909,3.96909 H 4.4924476 c -2.1920606,0 -3.96909309,-1.77702 -3.96909309,-3.96909 V 70.588145 c 0,-2.19207 1.77703249,-3.969093 3.96909309,-3.969093 z"
       sodipodi:nodetypes="ccccccccsssc" />
    <path
       id="rect7"
       clip-path="url(#clipPath9)"
       style="opacity:0.2;fill:#1a1a1a;stroke:none;stroke-width:1.20661;stroke-linecap:round;stroke-dasharray:none;stroke-dashoffset:149.514;stroke-opacity:1;paint-order:markers stroke fill;filter:url(#filter10)"
       d="m -6.2223961,64.531102 c -2.6462538,0.06138 -5.3052189,-0.06716 -7.9433599,0.07227 -0.732116,0.340141 -0.492045,1.661584 0.398438,1.525391 1.969224,0.04808 3.9424391,-0.01389 5.9140621,0.03125 1.0212758,-0.06254 2.0855137,0.09958 3.0292972,-0.181641 0.533705,-0.484012 0.1924064,-1.527563 -0.5839843,-1.441406 -0.2707664,-0.03057 -0.5428863,-0.0049 -0.8144531,-0.0059 z m -19.6660159,0 c -2.645574,0.06138 -5.304107,-0.06715 -7.941406,0.07227 -0.736223,0.338615 -0.488369,1.670589 0.404297,1.525391 2.215989,0.0359 4.435134,0.0068 6.653102,0.02366 0.750984,-0.05072 1.570969,0.08022 2.276585,-0.168191 0.569852,-0.50489 0.173911,-1.570247 -0.634805,-1.44782 -0.251584,-0.02708 -0.505304,-0.002 -0.757773,-0.0053 z"
       transform="matrix(0.87710788,0,0,0.87710788,84.761626,55.980715)" />
    <path
       id="rect10"
       style="opacity:0.4;fill:url(#linearGradient12);stroke:none;stroke-width:1.05833;stroke-linecap:round;stroke-dasharray:none;stroke-dashoffset:149.514;stroke-opacity:1;paint-order:markers stroke fill"
       d="m 55.391988,111.19344 c -1.162487,0 -2.098131,0.93564 -2.098131,2.09813 0,0.015 0.0019,0.0295 0.0023,0.0444 0.02376,-1.14157 0.9484,-2.05372 2.095865,-2.05372 h 7.434792 c 1.147464,0 2.072113,0.91215 2.095864,2.05372 3.1e-4,-0.0149 0.0023,-0.0294 0.0023,-0.0444 0,-1.16249 -0.935645,-2.09813 -2.098132,-2.09813 z m 17.247829,0 c -1.162487,0 -2.098131,0.93564 -2.098131,2.09813 0,0.015 0.0019,0.0295 0.0023,0.0444 0.02375,-1.14157 0.948401,-2.05372 2.095866,-2.05372 h 7.434792 c 1.147465,0 2.072112,0.91215 2.095864,2.05372 3.1e-4,-0.0149 0.0023,-0.0294 0.0023,-0.0444 0,-1.16249 -0.935646,-2.09813 -2.098132,-2.09813 z" />
    <ellipse
       style="display:inline;fill:#000000;fill-opacity:1;stroke:none;stroke-width:0.0509529;stroke-linecap:round;stroke-linejoin:round;stroke-dasharray:none;stroke-dashoffset:149.514;stroke-opacity:1;paint-order:markers stroke fill;filter:url(#filter25)"
       id="path24"
       cx="24.595398"
       cy="63.464893"
       rx="14.012068"
       ry="14.012069"
       transform="matrix(1.0385393,0,0,1.0385392,-0.48485137,34.351974)"
       inkscape:label="D-Pad-Hole" />
    <circle
       style="fill:#333333;stroke:none;stroke-width:1.05833;stroke-linecap:round;stroke-dasharray:none;stroke-dashoffset:149.514;stroke-opacity:1;paint-order:markers stroke fill"
       id="path12"
       cx="25.058435"
       cy="100.26275"
       r="13.90379" />
    <circle
       style="opacity:0.1;fill:url(#linearGradient20);stroke:none;stroke-width:1.05833;stroke-linecap:round;stroke-dasharray:none;stroke-dashoffset:149.514;stroke-opacity:1;paint-order:markers stroke fill"
       id="circle19"
       cx="25.058435"
       cy="100.26275"
       r="13.90379" />
    <circle
       style="display:inline;mix-blend-mode:soft-light;fill:url(#radialGradient21);stroke:none;stroke-width:1.05833;stroke-linecap:round;stroke-dasharray:none;stroke-dashoffset:149.514;stroke-opacity:1;paint-order:markers stroke fill"
       id="circle20"
       cx="25.058435"
       cy="100.26275"
       r="13.90379" />
    <path
       id="path22"
       style="color:#000000;fill:#000000;fill-opacity:1;stroke-width:1.00779;stroke-linecap:round;stroke-dashoffset:149.514;-inkscape-stroke:none;paint-order:markers stroke fill;filter:url(#filter24)"
       d="m -13.35784,31.524144 a 14.012057,14.012057 0 0 0 -4.220931,0.66921 v 9.121923 h -9.121924 a 14.012057,14.012057 0 0 0 -0.66921,4.220931 14.012057,14.012057 0 0 0 0.66921,4.220931 h 9.121924 v 9.121407 a 14.012057,14.012057 0 0 0 4.220931,0.669727 14.012057,14.012057 0 0 0 4.220414,-0.669727 v -9.121407 h 9.12244 A 14.012057,14.012057 0 0 0 0.654224,45.536208 14.012057,14.012057 0 0 0 0,41.315277 h -9.137426 v -9.137426 a 14.012057,14.012057 0 0 0 -4.220414,-0.653707 z"
       clip-path="url(#clipPath24)"
       transform="matrix(0.99227328,0,0,0.99227328,38.313064,55.078391)" />
    <path
       id="path13"
       style="color:#000000;fill:#3d3d3d;fill-opacity:1;stroke-width:1;stroke-linecap:round;stroke-dashoffset:149.514;-inkscape-stroke:none;paint-order:markers stroke fill"
       d="m 25.058437,86.358957 a 13.90379,13.90379 0 0 0 -4.188317,0.664039 v 9.051441 h -9.051442 a 13.90379,13.90379 0 0 0 -0.664039,4.188313 13.90379,13.90379 0 0 0 0.664039,4.18832 h 9.051442 v 9.05093 a 13.90379,13.90379 0 0 0 4.188317,0.66455 13.90379,13.90379 0 0 0 4.187804,-0.66455 v -9.05093 h 9.051953 a 13.90379,13.90379 0 0 0 0.664039,-4.18832 13.90379,13.90379 0 0 0 -0.649169,-4.188313 h -9.066823 v -9.066824 a 13.90379,13.90379 0 0 0 -4.187804,-0.648656 z" />
    <path
       id="circle30"
       style="opacity:0.2;fill:url(#linearGradient37);stroke:none;stroke-width:1.05833;stroke-linecap:round;stroke-dasharray:none;stroke-dashoffset:149.514;stroke-opacity:1;paint-order:markers stroke fill"
       d="m 31.993508,88.221715 a 13.90379,13.90379 0 0 0 -18.99294,5.089143 13.90379,13.90379 0 0 0 -1.507379,9.972202 13.90379,13.90379 0 0 1 1.611545,-9.583449 13.90379,13.90379 0 0 1 18.99294,-5.089142 13.90379,13.90379 0 0 1 6.420799,8.247254 13.90379,13.90379 0 0 0 -6.524965,-8.636008 z" />
    <circle
       style="fill:url(#radialGradient15);stroke:url(#linearGradient17);stroke-width:0.0529166;stroke-linecap:round;stroke-linejoin:round;stroke-dasharray:none;stroke-dashoffset:149.514;stroke-opacity:1;paint-order:markers stroke fill"
       id="path14"
       cx="25.058435"
       cy="100.26276"
       r="3.6755457" />
    <circle
       style="display:inline;opacity:0.6;fill:url(#linearGradient18);stroke:none;stroke-width:0.0529166;stroke-linecap:round;stroke-linejoin:round;stroke-dasharray:none;stroke-dashoffset:149.514;stroke-opacity:1;paint-order:markers stroke fill"
       id="circle17"
       cx="25.058435"
       cy="100.26276"
       r="3.6755457" />
    <path
       id="path18"
       style="color:#000000;opacity:0.1;fill:#ffffff;fill-opacity:1;stroke-width:1;stroke-linecap:round;stroke-dashoffset:149.514;-inkscape-stroke:none;paint-order:markers stroke fill"
       d="m 25.058437,86.358959 a 13.90379,13.90379 0 0 0 -4.188317,0.664039 v 9.051442 h -9.051442 a 13.90379,13.90379 0 0 0 -0.664039,4.18832 13.90379,13.90379 0 0 0 0.664039,4.18831 h 0.07383 a 13.90379,13.90379 0 0 1 -0.637375,-4.0873 13.90379,13.90379 0 0 1 0.66404,-4.188315 h 9.05144 v -9.05144 a 13.90379,13.90379 0 0 1 4.188317,-0.664039 13.90379,13.90379 0 0 1 4.087302,0.622504 v -0.07487 a 13.90379,13.90379 0 0 0 -4.187804,-0.648656 z m 4.288306,9.715481 v 0.101015 h 8.992473 a 13.90379,13.90379 0 0 0 -0.02615,-0.101015 z m -8.476623,8.47765 v 8.94991 a 13.90379,13.90379 0 0 0 0.100502,0.0267 v -8.97657 z" />
    <path
       id="path19"
       style="color:#000000;opacity:0.4;fill:#000000;fill-opacity:1;stroke-width:1;stroke-linecap:round;stroke-dashoffset:149.514;-inkscape-stroke:none;paint-order:markers stroke fill"
       d="m 25.058437,114.16655 a 13.90379,13.90379 0 0 0 4.188316,-0.66404 v -9.05144 h 9.051442 a 13.90379,13.90379 0 0 0 0.664038,-4.18832 13.90379,13.90379 0 0 0 -0.664038,-4.188314 h -0.07384 a 13.90379,13.90379 0 0 1 0.637375,4.087304 13.90379,13.90379 0 0 1 -0.664038,4.18831 h -9.051443 v 9.05145 a 13.90379,13.90379 0 0 1 -4.188316,0.66403 13.90379,13.90379 0 0 1 -4.087301,-0.6225 v 0.0749 a 13.90379,13.90379 0 0 0 4.187803,0.64865 z m -4.288308,-9.71548 v -0.10102 h -8.992471 a 13.90379,13.90379 0 0 0 0.02615,0.10102 z m 8.476624,-8.477651 v -8.949912 a 13.90379,13.90379 0 0 0 -0.100501,-0.02666 v 8.976576 z" />
    <path
       id="path37"
       style="opacity:0.2;fill:#000000;stroke:none;stroke-width:1.05833;stroke-linecap:round;stroke-dasharray:none;stroke-dashoffset:149.514;stroke-opacity:1;paint-order:markers stroke fill"
       d="m 18.123356,112.30378 a 13.90379,13.90379 0 0 0 18.99294,-5.08914 13.90379,13.90379 0 0 0 1.50738,-9.972205 13.90379,13.90379 0 0 1 -1.611545,9.583445 13.90379,13.90379 0 0 1 -18.992941,5.08915 13.90379,13.90379 0 0 1 -6.420799,-8.24726 13.90379,13.90379 0 0 0 6.524965,8.63601 z" />
    <ellipse
       style="fill:#000000;fill-opacity:1;stroke:none;stroke-width:0.0620551;stroke-linecap:round;stroke-linejoin:round;stroke-dasharray:none;stroke-dashoffset:149.514;stroke-opacity:1;paint-order:markers stroke fill;filter:url(#filter26)"
       id="ellipse26"
       cx="102.19279"
       cy="69.207199"
       rx="8.4666672"
       ry="8.4666662"
       transform="matrix(0.85273479,0,0,0.85273489,9.2067279,45.531591)" />
    <ellipse
       style="fill:#474747;fill-opacity:1;stroke:none;stroke-width:0.0529166;stroke-linecap:round;stroke-linejoin:round;stroke-dasharray:none;stroke-dashoffset:149.514;stroke-opacity:1;paint-order:markers stroke fill"
       id="path25"
       cx="96.350075"
       cy="104.54698"
       rx="6.6455173"
       ry="6.6455178" />
    <ellipse
       style="display:inline;opacity:0.4;fill:url(#radialGradient26);stroke:none;stroke-width:0.0529166;stroke-linecap:round;stroke-linejoin:round;stroke-dasharray:none;stroke-dashoffset:149.514;stroke-opacity:1;paint-order:markers stroke fill"
       id="ellipse25"
       cx="96.350075"
       cy="104.54698"
       rx="6.6455173"
       ry="6.6455178" />
    <ellipse
       style="display:inline;opacity:0.4;fill:url(#linearGradient28);stroke:none;stroke-width:0.0529166;stroke-linecap:round;stroke-linejoin:round;stroke-dasharray:none;stroke-dashoffset:149.514;stroke-opacity:1;paint-order:markers stroke fill"
       id="ellipse28"
       cx="125.92187"
       cy="-66.008278"
       rx="6.6455178"
       ry="6.6455169"
       transform="rotate(75.000002)" />
    <path
       id="ellipse27"
       style="opacity:0.4;fill:url(#linearGradient30);stroke:none;stroke-width:0.0529166;stroke-linecap:round;stroke-linejoin:round;stroke-dasharray:none;stroke-dashoffset:149.514;stroke-opacity:1;paint-order:markers stroke fill"
       d="m 99.328896,98.606481 a 6.6455168,6.645518 3.5477764 0 0 -1.794285,-0.598603 6.6455168,6.645518 3.5477764 0 0 -7.723709,5.354992 6.6455168,6.645518 3.5477764 0 0 0.411271,3.75072 6.6455168,6.645518 3.5477764 0 1 -0.354045,-3.59118 6.6455168,6.645518 3.5477764 0 1 7.7239,-5.354425 6.6455168,6.645518 3.5477764 0 1 4.943962,3.974535 6.6455168,6.645518 3.5477764 0 0 -3.207094,-3.536039 z"
       inkscape:transform-center-x="0.27412433"
       inkscape:transform-center-y="-2.4359516" />
    <ellipse
       style="fill:#000000;fill-opacity:1;stroke:none;stroke-width:0.0620551;stroke-linecap:round;stroke-linejoin:round;stroke-dasharray:none;stroke-dashoffset:149.514;stroke-opacity:1;paint-order:markers stroke fill;filter:url(#filter26)"
       id="ellipse39"
       cx="102.19279"
       cy="69.207199"
       rx="8.4666672"
       ry="8.4666662"
       transform="matrix(0.85273478,0,0,0.85273488,30.209852,45.531594)" />
    <ellipse
       style="fill:#474747;fill-opacity:1;stroke:none;stroke-width:0.0529166;stroke-linecap:round;stroke-linejoin:round;stroke-dasharray:none;stroke-dashoffset:149.514;stroke-opacity:1;paint-order:markers stroke fill"
       id="ellipse40"
       cx="117.3532"
       cy="104.54698"
       rx="6.6455173"
       ry="6.6455178" />
    <ellipse
       style="display:inline;opacity:0.4;fill:url(#radialGradient42);stroke:none;stroke-width:0.0529166;stroke-linecap:round;stroke-linejoin:round;stroke-dasharray:none;stroke-dashoffset:149.514;stroke-opacity:1;paint-order:markers stroke fill"
       id="ellipse41"
       cx="117.3532"
       cy="104.54698"
       rx="6.6455173"
       ry="6.6455178" />
    <ellipse
       style="display:inline;opacity:0.4;fill:url(#linearGradient42);stroke:none;stroke-width:0.0529166;stroke-linecap:round;stroke-linejoin:round;stroke-dasharray:none;stroke-dashoffset:149.514;stroke-opacity:1;paint-order:markers stroke fill"
       id="ellipse42"
       cx="131.35788"
       cy="-86.295738"
       rx="6.6455178"
       ry="6.6455169"
       transform="rotate(75.000002)" />
    <path
       id="path42"
       style="opacity:0.4;fill:url(#linearGradient43);stroke:none;stroke-width:0.0529166;stroke-linecap:round;stroke-linejoin:round;stroke-dasharray:none;stroke-dashoffset:149.514;stroke-opacity:1;paint-order:markers stroke fill"
       d="m 120.33202,98.606482 a 6.6455168,6.645518 3.5477764 0 0 -1.79429,-0.598604 6.6455168,6.645518 3.5477764 0 0 -7.72371,5.354992 6.6455168,6.645518 3.5477764 0 0 0.41127,3.75072 6.6455168,6.645518 3.5477764 0 1 -0.35404,-3.59118 6.6455168,6.645518 3.5477764 0 1 7.72389,-5.354425 6.6455168,6.645518 3.5477764 0 1 4.94396,3.974535 6.6455168,6.645518 3.5477764 0 0 -3.20708,-3.536038 z"
       inkscape:transform-center-x="0.27412433"
       inkscape:transform-center-y="-2.4359516" />
    <path
       id="path45"
       style="opacity:0.1;fill:#ffffff;fill-opacity:1;stroke-width:16.9332;stroke-linecap:round;stroke-dashoffset:149.514;paint-order:markers stroke fill"
       d="m 48.690029,56.64257 v 0.285101 H 86.776643 V 56.64257 Z" />
    <g
       id="g50"
       style="opacity:0.4;stroke-width:1.00779"
       transform="matrix(0.99227328,0,0,0.99227328,0.52335451,37.237562)">
      <path
         style="color:#000000;display:inline;fill:url(#linearGradient49);stroke-width:1.00779;stroke-linecap:round;stroke-dashoffset:149.514;-inkscape-stroke:none;paint-order:markers stroke fill"
         d="m 86.977663,19.554119 -38.38281,0.05273 V 38.91349 c -2e-4,10.585079 8.58094,19.16593 19.16602,19.166015 10.58508,-8.4e-5 19.16425,-8.580936 19.16406,-19.166015 V 19.57951 l 0.0273,0.02734 z m 0,0 v 0.02539 19.333984 c 1.9e-4,10.613677 -8.60312,19.218665 -19.21679,19.21875 -10.61368,-8.6e-5 -19.21895,-8.605072 -19.21875,-19.21875 V 19.554119 Z"
         id="path49" />
      <path
         style="color:#000000;display:inline;fill:url(#linearGradient50);stroke-width:1.00779;stroke-linecap:round;stroke-dashoffset:149.514;-inkscape-stroke:none;paint-order:markers stroke fill"
         d="m 48.542123,19.554119 38.38281,0.05273 V 38.91349 c 2e-4,10.585079 -8.58094,19.16593 -19.16602,19.166015 -10.58508,-8.4e-5 -19.16425,-8.580936 -19.16406,-19.166015 V 19.57951 l -0.0273,0.02734 z m 0,0 v 0.02539 19.333984 c -1.9e-4,10.613677 8.60312,19.218665 19.21679,19.21875 10.61368,-8.6e-5 19.21895,-8.605072 19.21875,-19.21875 V 19.554119 Z"
         id="path50" />
    </g>
    <path
       id="path53"
       style="color:#000000;opacity:0.4;fill:url(#linearGradient56);stroke-width:1.00779;stroke-linecap:round;stroke-dashoffset:149.514;-inkscape-stroke:none;paint-order:markers stroke fill;filter:url(#filter55)"
       d="m 140.40021,15.859497 v 0.794783 19.332153 c -3e-5,1.723179 0.21883,3.395618 0.62994,4.991427 0.16441,0.638323 0.35964,1.264312 0.58394,1.876371 0.22435,0.612059 0.47774,1.210224 0.75861,1.792656 2.80855,5.82491 8.35977,10.084041 14.97273,11.095446 0.32994,0.05046 0.66234,0.09304 0.99736,0.127124 6.8e-4,7e-5 0.001,-6.9e-5 0.002,0 0.33504,0.03405 0.67266,0.05974 1.01235,0.077 0.34106,0.01736 0.68406,0.02635 1.02939,0.02636 1.03319,-1.14e-4 2.04843,-0.07878 3.03961,-0.230477 0.33078,-0.05059 0.65866,-0.109584 0.98392,-0.176216 3.9015,-0.799257 7.39029,-2.737106 10.10377,-5.45083 1.80891,-1.809066 3.27355,-3.962838 4.28553,-6.353618 1.01193,-2.390663 1.57153,-5.01815 1.57148,-7.775236 V 16.65428 15.859497 Z m 19.98535,0.810286 18.39784,0.746208 v 18.570442 c 4e-5,1.906949 -0.28933,3.745664 -0.82631,5.474602 -0.89514,2.881563 -2.47868,5.458373 -4.55889,7.538557 -2.70392,2.703896 -6.24692,4.568761 -10.20765,5.173328 -0.91397,0.139509 -1.85068,0.211761 -2.80396,0.211873 -0.31852,-2e-6 -0.63478,-0.0078 -0.9493,-0.02377 -0.31314,-0.01585 -0.62448,-0.04004 -0.93327,-0.07131 -6.9e-4,-6.9e-5 -0.001,6.9e-5 -0.002,0 -0.30878,-0.03131 -0.61528,-0.07044 -0.91932,-0.116789 -5.78965,-0.883241 -10.68703,-4.459471 -13.37593,-9.412862 -0.28304,-0.521409 -0.54154,-1.057775 -0.77411,-1.608171 -0.34886,-0.825593 -0.63892,-1.682004 -0.86558,-2.564184 -0.15111,-0.58812 -0.27394,-1.187873 -0.36691,-1.797306 -0.13944,-0.914151 -0.21189,-1.850489 -0.21187,-2.803964 V 17.415991 Z"
       clip-path="url(#clipPath55)"
       transform="matrix(0.99227328,0,0,0.99227328,-91.386615,40.14197)" />
    <rect
       style="fill:#292929;fill-opacity:1;stroke:#848484;stroke-width:1.05833;stroke-linecap:round;stroke-linejoin:round;stroke-dasharray:none;stroke-dashoffset:149.514;stroke-opacity:1;paint-order:markers stroke fill"
       id="rect91"
       width="3.6755457"
       height="11.338277"
       x="94.282799"
       y="74.789726"
       ry="1.8377728" />
    <rect
       style="fill:#292929;fill-opacity:1;stroke:#858585;stroke-width:1.05833;stroke-linecap:round;stroke-linejoin:round;stroke-dasharray:none;stroke-dashoffset:149.514;stroke-opacity:1;paint-order:markers stroke fill"
       id="rect92"
       width="3.6755457"
       height="11.33827"
       x="115.51542"
       y="74.789726"
       ry="1.8377728" />
    <path
       style="color:#000000;opacity:0.4;mix-blend-mode:normal;fill:#000000;stroke-width:1.00779;stroke-linecap:round;stroke-linejoin:round;stroke-dashoffset:149.514;-inkscape-stroke:none;paint-order:markers stroke fill;filter:url(#filter101)"
       d="m 153.01953,21.666016 c -1.16805,0 -2.11719,0.949132 -2.11719,2.117187 v 7.720703 c 0,1.168056 0.94914,2.117188 2.11719,2.117188 1.16806,0 2.11524,-0.949132 2.11524,-2.117188 v -7.720703 c 0,-1.168055 -0.94718,-2.117187 -2.11524,-2.117187 z m 0,0.529296 c 0.88405,0 1.58594,0.70384 1.58594,1.587891 v 7.720703 c 0,0.884051 -0.70189,1.587891 -1.58594,1.587891 -0.88405,0 -1.58789,-0.70384 -1.58789,-1.587891 v -7.720703 c 0,-0.884051 0.70384,-1.587891 1.58789,-1.587891 z"
       id="path101"
       clip-path="url(#clipPath99)"
       transform="matrix(0.99227328,0,0,0.99227328,-34.48303,53.028903)" />
    <g
       id="g96"
       transform="matrix(0.99227328,0,0,0.99227328,0.52335451,37.402873)"
       style="stroke-width:1.00779">
      <circle
         style="opacity:1;fill:url(#linearGradient96);fill-opacity:1;stroke:none;stroke-width:1.06657;stroke-linecap:round;stroke-linejoin:round;stroke-dasharray:none;stroke-dashoffset:149.514;stroke-opacity:1;paint-order:markers stroke fill"
         id="circle94"
         cx="117.73958"
         cy="39.517006"
         r="1.8520833" />
      <circle
         style="display:inline;opacity:1;fill:url(#radialGradient94);stroke:none;stroke-width:1.06657;stroke-linecap:round;stroke-linejoin:round;stroke-dasharray:none;stroke-dashoffset:149.514;stroke-opacity:1;paint-order:markers stroke fill"
         id="path92"
         cx="117.73958"
         cy="39.517006"
         r="1.8520833" />
    </g>
    <path
       style="color:#000000;opacity:0.4;mix-blend-mode:normal;fill:#000000;stroke-width:1.00779;stroke-linecap:round;stroke-linejoin:round;stroke-dashoffset:149.514;-inkscape-stroke:none;paint-order:markers stroke fill;filter:url(#filter101)"
       d="m 153.01953,21.666016 c -1.16805,0 -2.11719,0.949132 -2.11719,2.117187 v 7.720703 c 0,1.168056 0.94914,2.117188 2.11719,2.117188 1.16806,0 2.11524,-0.949132 2.11524,-2.117188 v -7.720703 c 0,-1.168055 -0.94718,-2.117187 -2.11524,-2.117187 z m 0,0.529296 c 0.88405,0 1.58594,0.70384 1.58594,1.587891 v 7.720703 c 0,0.884051 -0.70189,1.587891 -1.58594,1.587891 -0.88405,0 -1.58789,-0.70384 -1.58789,-1.587891 v -7.720703 c 0,-0.884051 0.70384,-1.587891 1.58789,-1.587891 z"
       id="path102"
       clip-path="url(#clipPath99)"
       transform="matrix(0.99227328,0,0,0.99227328,-55.715651,53.028907)" />
    <g
       id="g97"
       transform="matrix(0.99227328,0,0,0.99227328,-20.709264,45.091523)"
       style="stroke-width:1.00779">
      <circle
         style="opacity:1;fill:url(#linearGradient97);fill-opacity:1;stroke:none;stroke-width:1.06657;stroke-linecap:round;stroke-linejoin:round;stroke-dasharray:none;stroke-dashoffset:149.514;stroke-opacity:1;paint-order:markers stroke fill"
         id="circle96"
         cx="117.73958"
         cy="39.517006"
         r="1.8520833" />
      <circle
         style="display:inline;opacity:1;fill:url(#radialGradient97);stroke:none;stroke-width:1.06657;stroke-linecap:round;stroke-linejoin:round;stroke-dasharray:none;stroke-dashoffset:149.514;stroke-opacity:1;paint-order:markers stroke fill"
         id="circle97"
         cx="117.73958"
         cy="39.517006"
         r="1.8520833" />
    </g>
  </g>
</svg>
