<?xml version="1.0" encoding="UTF-8" standalone="no"?>
<!-- Created with Inkscape (http://www.inkscape.org/) -->

<svg
   width="512"
   height="512"
   viewBox="0 0 135.46666 135.46667"
   version="1.1"
   id="svg5"
   inkscape:version="1.4.1 (93de688d07, 2025-03-30)"
   sodipodi:docname="applications-cardgames.svg"
   xmlns:inkscape="http://www.inkscape.org/namespaces/inkscape"
   xmlns:sodipodi="http://sodipodi.sourceforge.net/DTD/sodipodi-0.dtd"
   xmlns="http://www.w3.org/2000/svg"
   xmlns:svg="http://www.w3.org/2000/svg">
  <sodipodi:namedview
     id="namedview7"
     pagecolor="#242424"
     bordercolor="#666666"
     borderopacity="1"
     inkscape:showpageshadow="0"
     inkscape:pageopacity="0"
     inkscape:pagecheckerboard="1"
     inkscape:deskcolor="#000000"
     inkscape:document-units="px"
     showgrid="false"
     inkscape:zoom="1.3037281"
     inkscape:cx="324.45416"
     inkscape:cy="222.0555"
     inkscape:window-width="3256"
     inkscape:window-height="1080"
     inkscape:window-x="1864"
     inkscape:window-y="0"
     inkscape:window-maximized="0"
     inkscape:current-layer="layer1" />
  <defs
     id="defs2">
    <clipPath
       clipPathUnits="userSpaceOnUse"
       id="clipPath29">
      <rect
         style="fill:#ffffff;fill-opacity:1;stroke-width:4.23333;stroke-linecap:round;stroke-linejoin:round;stroke-miterlimit:12;paint-order:markers stroke fill"
         id="rect30"
         width="80.962502"
         height="119.0625"
         x="192.89848"
         y="-68.970932"
         ry="6.4906306"
         transform="rotate(20)" />
    </clipPath>
    <filter
       inkscape:collect="always"
       style="color-interpolation-filters:sRGB"
       id="filter30"
       x="-0.031161828"
       y="-0.021190044"
       width="1.0623237"
       height="1.0423801">
      <feGaussianBlur
         inkscape:collect="always"
         stdDeviation="1.0512248"
         id="feGaussianBlur30" />
    </filter>
  </defs>
  <g
     inkscape:label="Layer 1"
     inkscape:groupmode="layer"
     id="layer1">
    <g
       id="g28"
       transform="rotate(15,132.6796,-381.68235)">
      <rect
         style="fill:#ffffff;fill-opacity:1;stroke-width:4.23333;stroke-linecap:round;stroke-linejoin:round;stroke-miterlimit:12;paint-order:markers stroke fill"
         id="rect20"
         width="80.962502"
         height="119.0625"
         x="158.93901"
         y="6.1726432"
         ry="6.4906306" />
      <rect
         style="fill:#ffcc00;fill-opacity:1;stroke-width:4.23333;stroke-linecap:round;stroke-linejoin:round;stroke-miterlimit:12;paint-order:markers stroke fill"
         id="rect21"
         width="74.083328"
         height="112.18333"
         x="162.3786"
         y="9.6122293"
         ry="2.9585536" />
      <ellipse
         style="fill:none;fill-opacity:1;stroke:#000000;stroke-width:4.23333;stroke-linecap:round;stroke-linejoin:round;stroke-miterlimit:12;stroke-dasharray:none;stroke-opacity:1;paint-order:fill markers stroke"
         id="ellipse21"
         cx="-188.59361"
         cy="-93.429222"
         rx="47.748283"
         ry="25.130676"
         transform="matrix(-0.70710678,-0.70710678,-0.70710678,0.70710678,0,0)" />
      <path
         d="m 213.01562,16.293354 q 0,-2.181809 0.8473,-3.103253 0.84731,-0.932035 2.79611,-0.932035 1.9488,0 2.7961,0.921444 0.84731,0.910852 0.84731,3.113844 v 8.240038 q 0,2.192401 -0.84731,3.113845 -0.83671,0.921444 -2.7961,0.921444 -1.95939,0 -2.8067,-0.921444 -0.83671,-0.921444 -0.83671,-3.113845 z m 3.12443,-1.048539 v 10.19943 q 0,0.413061 0.11651,0.593113 0.12709,0.169461 0.40247,0.169461 0.29655,0 0.41306,-0.180052 0.1271,-0.180052 0.1271,-0.582522 v -10.19943 q 0,-0.413061 -0.1271,-0.582522 -0.11651,-0.169461 -0.41306,-0.169461 -0.27538,0 -0.40247,0.180052 -0.11651,0.180052 -0.11651,0.571931 z m 5.05206,12.974353 V 15.721424 h 2.71137 v 1.048539 h 0.0424 q 0.34951,-0.656661 0.83671,-0.963809 0.4872,-0.317739 1.13327,-0.317739 0.90026,0 1.3451,0.540157 0.45542,0.529565 0.45542,1.588696 v 10.6019 h -2.77492 V 18.52812 q 0,-0.434243 -0.1165,-0.582522 -0.10592,-0.158869 -0.38129,-0.158869 -0.25419,0 -0.38129,0.180052 -0.1165,0.180052 -0.1165,0.561339 v 9.691048 z m 10.10411,-10.082926 v 2.361862 h 0.99558 v -2.361862 q 0,-0.413061 -0.1165,-0.582522 -0.11651,-0.180052 -0.38129,-0.180052 -0.26478,0 -0.38129,0.180052 -0.1165,0.169461 -0.1165,0.582522 z m 0,7.562194 q 0,0.413061 0.1165,0.593114 0.11651,0.16946 0.38129,0.16946 0.26478,0 0.38129,-0.16946 0.1165,-0.180053 0.1165,-0.593114 v -2.340679 h 2.75374 v 2.319497 q 0,1.355687 -0.8579,2.10767 -0.8473,0.741392 -2.39363,0.741392 -1.74757,0 -2.49955,-0.80494 -0.75198,-0.804939 -0.75198,-2.75374 v -5.984089 q 0,-1.969984 0.74139,-2.764332 0.74139,-0.794348 2.48896,-0.794348 1.53574,0 2.40422,0.720209 0.86849,0.709618 0.86849,1.969983 v 4.247115 h -3.74932 z m 4.61781,2.520732 V 15.721424 h 2.71137 v 1.048539 h 0.0424 q 0.34951,-0.656661 0.83671,-0.963809 0.4872,-0.317739 1.13327,-0.317739 0.90026,0 1.3451,0.540157 0.45542,0.529565 0.45542,1.588696 v 4.829637 h -2.77492 V 18.52812 q 0,-0.434243 -0.1165,-0.582522 -0.10592,-0.158869 -0.38129,-0.158869 -0.25419,0 -0.38129,0.180052 -0.1165,0.180052 -0.1165,0.561339 v 9.691048 z"
         id="text22"
         style="font-size:21.691px;line-height:1.25;font-family:'Swiss911 XCm BT';-inkscape-font-specification:'Swiss911 XCm BT, Normal';text-align:center;text-orientation:upright;text-anchor:middle;stroke-width:0.264583"
         transform="skewX(-26.028697)"
         aria-label="Oner" />
      <path
         d="m 212.49877,15.235022 q 0,-2.18181 0.84731,-3.103254 0.8473,-0.932035 2.7961,-0.932035 1.9488,0 2.79611,0.921444 0.8473,0.910853 0.8473,3.113845 v 8.240038 q 0,2.192401 -0.8473,3.113845 -0.83672,0.921443 -2.79611,0.921443 -1.95939,0 -2.80669,-0.921443 -0.83672,-0.921444 -0.83672,-3.113845 z m 3.12444,-1.04854 v 10.19943 q 0,0.413061 0.1165,0.593114 0.1271,0.169461 0.40247,0.169461 0.29656,0 0.41306,-0.180053 0.1271,-0.180052 0.1271,-0.582522 v -10.19943 q 0,-0.413061 -0.1271,-0.582522 -0.1165,-0.169461 -0.41306,-0.169461 -0.27537,0 -0.40247,0.180053 -0.1165,0.180052 -0.1165,0.57193 z m 5.05205,12.974353 V 14.663091 h 2.71138 v 1.04854 h 0.0424 q 0.34952,-0.656661 0.83672,-0.963809 0.4872,-0.31774 1.13327,-0.31774 0.90026,0 1.34509,0.540157 0.45543,0.529566 0.45543,1.588696 v 10.6019 h -2.77492 v -9.691047 q 0,-0.434244 -0.11651,-0.582522 -0.10591,-0.15887 -0.38129,-0.15887 -0.25419,0 -0.38128,0.180053 -0.11651,0.180052 -0.11651,0.561339 v 9.691047 z m 10.10411,-10.082926 v 2.361862 h 0.99558 v -2.361862 q 0,-0.413061 -0.1165,-0.582521 -0.1165,-0.180053 -0.38129,-0.180053 -0.26478,0 -0.38128,0.180053 -0.11651,0.16946 -0.11651,0.582521 z m 0,7.562195 q 0,0.413061 0.11651,0.593113 0.1165,0.169461 0.38128,0.169461 0.26479,0 0.38129,-0.169461 0.1165,-0.180052 0.1165,-0.593113 v -2.340679 h 2.75374 v 2.319496 q 0,1.355688 -0.85789,2.107671 -0.84731,0.741391 -2.39364,0.741391 -1.74756,0 -2.49955,-0.804939 -0.75198,-0.80494 -0.75198,-2.75374 v -5.98409 q 0,-1.969983 0.74139,-2.764331 0.74139,-0.794349 2.48896,-0.794349 1.53574,0 2.40423,0.720209 0.86848,0.709618 0.86848,1.969984 v 4.247115 h -3.74932 z m 4.61781,2.520731 V 14.663091 h 2.71138 v 1.04854 h 0.0424 q 0.34952,-0.656661 0.83672,-0.963809 0.4872,-0.31774 1.13327,-0.31774 0.90026,0 1.34509,0.540157 0.45543,0.529566 0.45543,1.588696 v 4.829637 h -2.77492 v -3.918784 q 0,-0.434244 -0.11651,-0.582522 -0.10591,-0.15887 -0.38129,-0.15887 -0.25419,0 -0.38128,0.180053 -0.11651,0.180052 -0.11651,0.561339 v 9.691047 z"
         id="text23"
         style="font-size:21.691px;line-height:1.25;font-family:'Swiss911 XCm BT';-inkscape-font-specification:'Swiss911 XCm BT, Normal';text-align:center;text-orientation:upright;text-anchor:middle;fill:#ffffff;stroke-width:0.264583"
         transform="skewX(-26.028697)"
         aria-label="Oner" />
      <g
         id="g25"
         transform="rotate(180,194.28664,64.995265)">
        <path
           d="m 202.05624,14.876095 q 0,-2.18181 0.8473,-3.103253 0.84731,-0.932036 2.79611,-0.932036 1.9488,0 2.7961,0.921444 0.84731,0.910853 0.84731,3.113845 v 8.240038 q 0,2.192401 -0.84731,3.113845 -0.83671,0.921444 -2.7961,0.921444 -1.95939,0 -2.8067,-0.921444 -0.83671,-0.921444 -0.83671,-3.113845 z m 3.12443,-1.04854 v 10.199431 q 0,0.413061 0.11651,0.593113 0.12709,0.169461 0.40247,0.169461 0.29655,0 0.41306,-0.180052 0.12709,-0.180053 0.12709,-0.582522 V 13.827555 q 0,-0.413061 -0.12709,-0.582521 -0.11651,-0.169461 -0.41306,-0.169461 -0.27538,0 -0.40247,0.180052 -0.11651,0.180052 -0.11651,0.57193 z m 5.05206,12.974353 V 14.304164 h 2.71137 v 1.04854 h 0.0424 q 0.34951,-0.656661 0.83671,-0.963809 0.4872,-0.317739 1.13327,-0.317739 0.90026,0 1.3451,0.540156 0.45542,0.529566 0.45542,1.588697 v 10.601899 h -2.77492 v -9.691047 q 0,-0.434244 -0.1165,-0.582522 -0.10592,-0.158869 -0.38129,-0.158869 -0.25419,0 -0.38129,0.180052 -0.1165,0.180052 -0.1165,0.561339 v 9.691047 z m 10.10411,-10.082925 v 2.361862 h 0.99558 v -2.361862 q 0,-0.413061 -0.11651,-0.582522 -0.1165,-0.180052 -0.38128,-0.180052 -0.26479,0 -0.38129,0.180052 -0.1165,0.169461 -0.1165,0.582522 z m 0,7.562194 q 0,0.413061 0.1165,0.593113 0.1165,0.169461 0.38129,0.169461 0.26478,0 0.38128,-0.169461 0.11651,-0.180052 0.11651,-0.593113 v -2.340679 h 2.75374 v 2.319496 q 0,1.355688 -0.8579,2.107671 -0.8473,0.741391 -2.39363,0.741391 -1.74757,0 -2.49955,-0.804939 -0.75198,-0.804939 -0.75198,-2.75374 v -5.98409 q 0,-1.969983 0.74139,-2.764331 0.74139,-0.794348 2.48895,-0.794348 1.53574,0 2.40423,0.720209 0.86849,0.709617 0.86849,1.969983 v 4.247115 h -3.74932 z m 4.61781,2.520731 V 14.304164 h 2.71137 v 1.04854 h 0.0424 q 0.34951,-0.656661 0.83671,-0.963809 0.4872,-0.317739 1.13327,-0.317739 0.90026,0 1.3451,0.540156 0.45542,0.529566 0.45542,1.588697 v 4.829636 h -2.77492 v -3.918784 q 0,-0.434244 -0.1165,-0.582522 -0.10592,-0.158869 -0.38129,-0.158869 -0.25419,0 -0.38129,0.180052 -0.1165,0.180052 -0.1165,0.561339 v 9.691047 z"
           id="text24"
           style="font-size:21.691px;line-height:1.25;font-family:'Swiss911 XCm BT';-inkscape-font-specification:'Swiss911 XCm BT, Normal';text-align:center;text-orientation:upright;text-anchor:middle;stroke-width:0.264583"
           transform="skewX(-26.028697)"
           aria-label="Oner" />
        <path
           d="m 201.53939,13.817761 q 0,-2.18181 0.84731,-3.103254 0.8473,-0.9320349 2.7961,-0.9320349 1.9488,0 2.79611,0.9214439 0.8473,0.910852 0.8473,3.113845 v 8.240038 q 0,2.192401 -0.8473,3.113844 -0.83672,0.921444 -2.79611,0.921444 -1.95939,0 -2.8067,-0.921444 -0.83671,-0.921443 -0.83671,-3.113844 z m 3.12444,-1.04854 v 10.19943 q 0,0.413061 0.1165,0.593114 0.1271,0.169461 0.40247,0.169461 0.29656,0 0.41306,-0.180053 0.1271,-0.180052 0.1271,-0.582522 v -10.19943 q 0,-0.413061 -0.1271,-0.582522 -0.1165,-0.169461 -0.41306,-0.169461 -0.27537,0 -0.40247,0.180052 -0.1165,0.180053 -0.1165,0.571931 z m 5.05205,12.974353 V 13.24583 h 2.71138 v 1.04854 h 0.0424 q 0.34951,-0.656662 0.83671,-0.96381 0.48721,-0.317739 1.13327,-0.317739 0.90027,0 1.3451,0.540157 0.45543,0.529565 0.45543,1.588696 v 10.6019 h -2.77493 v -9.691047 q 0,-0.434244 -0.1165,-0.582522 -0.10591,-0.15887 -0.38129,-0.15887 -0.25419,0 -0.38128,0.180052 -0.11651,0.180053 -0.11651,0.56134 v 9.691047 z m 10.10411,-10.082926 v 2.361862 h 0.99558 v -2.361862 q 0,-0.413061 -0.1165,-0.582522 -0.11651,-0.180052 -0.38129,-0.180052 -0.26478,0 -0.38129,0.180052 -0.1165,0.169461 -0.1165,0.582522 z m 0,7.562195 q 0,0.413061 0.1165,0.593113 0.11651,0.169461 0.38129,0.169461 0.26478,0 0.38129,-0.169461 0.1165,-0.180052 0.1165,-0.593113 v -2.340679 h 2.75374 v 2.319496 q 0,1.355688 -0.85789,2.10767 -0.84731,0.741392 -2.39364,0.741392 -1.74756,0 -2.49955,-0.804939 -0.75198,-0.80494 -0.75198,-2.753741 v -5.984089 q 0,-1.969983 0.74139,-2.764331 0.74139,-0.794349 2.48896,-0.794349 1.53574,0 2.40423,0.720209 0.86848,0.709618 0.86848,1.969984 v 4.247114 h -3.74932 z m 4.61781,2.520731 V 13.24583 h 2.71138 v 1.04854 h 0.0424 q 0.34951,-0.656662 0.83671,-0.96381 0.48721,-0.317739 1.13328,-0.317739 0.90026,0 1.34509,0.540157 0.45543,0.529565 0.45543,1.588696 v 4.829637 h -2.77493 v -3.918784 q 0,-0.434244 -0.1165,-0.582522 -0.10591,-0.15887 -0.38129,-0.15887 -0.25419,0 -0.38128,0.180052 -0.11651,0.180053 -0.11651,0.56134 v 9.691047 z"
           id="text25"
           style="font-size:21.691px;line-height:1.25;font-family:'Swiss911 XCm BT';-inkscape-font-specification:'Swiss911 XCm BT, Normal';text-align:center;text-orientation:upright;text-anchor:middle;fill:#ffffff;stroke-width:0.264583"
           transform="skewX(-26.028697)"
           aria-label="Oner" />
      </g>
      <path
         id="path28"
         style="opacity:1;fill:#000000;fill-opacity:1;stroke:none;stroke-width:4.23333;stroke-linecap:round;stroke-linejoin:round;stroke-miterlimit:12;stroke-dasharray:none;stroke-opacity:1;paint-order:fill markers stroke"
         inkscape:transform-center-y="-2.3686036"
         d="m 187.44626,40.711843 6.00614,22.416658 4.45243,-4.452425 c 1.88129,1.040841 5.87646,3.478383 9.64795,7.249872 5.16528,5.165276 8.96524,13.346829 8.96524,13.346829 0,0 -0.77836,-9.334669 -3.97081,-16.474225 -2.40913,-5.387739 -5.52297,-9.946316 -6.9059,-11.858961 l 4.22137,-4.221369 z m -5.12375,14.598166 c 0,0 0.77836,9.334669 3.97082,16.474225 2.40913,5.387736 5.52297,9.94632 6.9059,11.85896 l -4.22137,4.22137 22.41642,6.00638 -6.00614,-22.416659 -4.45242,4.452427 c -1.88131,-1.040843 -5.87648,-3.478385 -9.64797,-7.249874 -5.16527,-5.165276 -8.96524,-13.346829 -8.96524,-13.346829 z"
         inkscape:transform-center-x="2.3686065" />
      <path
         id="path27"
         style="opacity:1;fill:#ffffff;fill-opacity:1;stroke:none;stroke-width:4.23333;stroke-linecap:round;stroke-linejoin:round;stroke-miterlimit:12;stroke-dasharray:none;stroke-opacity:1;paint-order:fill markers stroke"
         inkscape:transform-center-y="-2.3686036"
         d="m 187.44626,39.124342 6.00614,22.416658 4.45243,-4.452425 c 1.88129,1.040841 5.87646,3.478383 9.64795,7.249872 5.16528,5.165276 8.96524,13.346829 8.96524,13.346829 0,0 -0.77836,-9.334669 -3.97081,-16.474225 -2.40913,-5.387739 -5.52297,-9.946316 -6.9059,-11.858961 l 4.22137,-4.221369 z m -5.12375,14.598166 c 0,0 0.77836,9.334669 3.97082,16.474225 2.40913,5.387736 5.52297,9.94632 6.9059,11.85896 l -4.22137,4.22137 22.41642,6.00638 -6.00614,-22.416659 -4.45242,4.452427 c -1.88131,-1.040843 -5.87648,-3.478385 -9.64797,-7.249874 -5.16527,-5.165276 -8.96524,-13.346829 -8.96524,-13.346829 z"
         inkscape:transform-center-x="2.3686065" />
      <ellipse
         style="fill:none;fill-opacity:1;stroke:#ffffff;stroke-width:4.23333;stroke-linecap:round;stroke-linejoin:round;stroke-miterlimit:12;stroke-dasharray:none;stroke-opacity:1;paint-order:fill markers stroke"
         id="ellipse22"
         cx="-187.47108"
         cy="-94.55175"
         rx="47.748283"
         ry="25.130676"
         transform="matrix(-0.70710678,-0.70710678,-0.70710678,0.70710678,0,0)" />
    </g>
    <g
       id="g20"
       transform="rotate(-5,115.105,1686.1155)">
      <rect
         style="display:inline;opacity:0.6;fill:#000000;fill-opacity:1;stroke-width:4.23333;stroke-linecap:round;stroke-linejoin:round;stroke-miterlimit:12;paint-order:markers stroke fill;filter:url(#filter30)"
         id="rect29"
         width="80.962502"
         height="119.0625"
         x="147.08429"
         y="6.3428864"
         ry="6.4906306"
         clip-path="url(#clipPath29)"
         inkscape:label="shadow" />
      <rect
         style="opacity:1;fill:#ffffff;fill-opacity:1;stroke-width:4.23333;stroke-linecap:round;stroke-linejoin:round;stroke-miterlimit:12;paint-order:markers stroke fill"
         id="rect3"
         width="80.962502"
         height="119.0625"
         x="147.08429"
         y="6.3428864"
         ry="6.4906306" />
      <rect
         style="opacity:1;fill:#008000;fill-opacity:1;stroke-width:4.23333;stroke-linecap:round;stroke-linejoin:round;stroke-miterlimit:12;paint-order:markers stroke fill"
         id="rect4"
         width="74.083328"
         height="112.18333"
         x="150.52388"
         y="9.7824726"
         ry="2.9585536" />
      <ellipse
         style="opacity:1;fill:none;fill-opacity:1;stroke:#000000;stroke-width:4.23333;stroke-linecap:round;stroke-linejoin:round;stroke-miterlimit:12;stroke-dasharray:none;stroke-opacity:1;paint-order:fill markers stroke"
         id="ellipse16"
         cx="-180.33144"
         cy="-84.926285"
         rx="47.748283"
         ry="25.130676"
         transform="matrix(-0.70710678,-0.70710678,-0.70710678,0.70710678,0,0)" />
      <ellipse
         style="opacity:1;fill:none;fill-opacity:1;stroke:#ffffff;stroke-width:4.23333;stroke-linecap:round;stroke-linejoin:round;stroke-miterlimit:12;stroke-dasharray:none;stroke-opacity:1;paint-order:fill markers stroke"
         id="path15"
         cx="-179.20891"
         cy="-86.048813"
         rx="47.748283"
         ry="25.130676"
         transform="matrix(-0.70710678,-0.70710678,-0.70710678,0.70710678,0,0)" />
      <path
         d="m 201.24403,16.463597 q 0,-2.18181 0.8473,-3.103254 0.84731,-0.932035 2.79611,-0.932035 1.9488,0 2.7961,0.921444 0.84731,0.910852 0.84731,3.113845 v 8.240038 q 0,2.192401 -0.84731,3.113844 -0.83671,0.921444 -2.7961,0.921444 -1.95939,0 -2.8067,-0.921444 -0.83671,-0.921443 -0.83671,-3.113844 z m 3.12443,-1.04854 v 10.19943 q 0,0.413061 0.11651,0.593113 0.12709,0.169461 0.40247,0.169461 0.29655,0 0.41306,-0.180052 0.12709,-0.180052 0.12709,-0.582522 v -10.19943 q 0,-0.413061 -0.12709,-0.582522 -0.11651,-0.169461 -0.41306,-0.169461 -0.27538,0 -0.40247,0.180052 -0.11651,0.180053 -0.11651,0.571931 z m 5.05206,12.974353 V 15.891666 h 2.71137 v 1.048539 h 0.0424 q 0.34951,-0.656661 0.83671,-0.963809 0.4872,-0.317739 1.13327,-0.317739 0.90026,0 1.3451,0.540157 0.45542,0.529565 0.45542,1.588696 v 10.6019 h -2.77492 v -9.691047 q 0,-0.434244 -0.1165,-0.582522 -0.10592,-0.15887 -0.38129,-0.15887 -0.25419,0 -0.38129,0.180052 -0.1165,0.180053 -0.1165,0.56134 v 9.691047 z m 10.10411,-10.082926 v 2.361862 h 0.99558 v -2.361862 q 0,-0.413061 -0.11651,-0.582522 -0.1165,-0.180052 -0.38128,-0.180052 -0.26479,0 -0.38129,0.180052 -0.1165,0.169461 -0.1165,0.582522 z m 0,7.562195 q 0,0.413061 0.1165,0.593113 0.1165,0.169461 0.38129,0.169461 0.26478,0 0.38128,-0.169461 0.11651,-0.180052 0.11651,-0.593113 v -2.34068 h 2.75374 v 2.319497 q 0,1.355687 -0.8579,2.10767 -0.8473,0.741392 -2.39363,0.741392 -1.74757,0 -2.49955,-0.804939 -0.75198,-0.80494 -0.75198,-2.753741 v -5.984089 q 0,-1.969983 0.74139,-2.764332 0.74139,-0.794348 2.48895,-0.794348 1.53574,0 2.40423,0.720209 0.86849,0.709618 0.86849,1.969984 v 4.247114 h -3.74932 z m 4.61781,2.520731 V 15.891666 h 2.71137 v 1.048539 h 0.0424 q 0.34951,-0.656661 0.83671,-0.963809 0.4872,-0.317739 1.13327,-0.317739 0.90026,0 1.3451,0.540157 0.45542,0.529565 0.45542,1.588696 v 4.829637 h -2.77492 v -3.918784 q 0,-0.434244 -0.1165,-0.582522 -0.10592,-0.15887 -0.38129,-0.15887 -0.25419,0 -0.38129,0.180052 -0.1165,0.180053 -0.1165,0.56134 v 9.691047 z"
         id="text16"
         style="font-size:21.691px;line-height:1.25;font-family:'Swiss911 XCm BT';-inkscape-font-specification:'Swiss911 XCm BT, Normal';text-align:center;text-orientation:upright;text-anchor:middle;stroke-width:0.264583"
         transform="skewX(-26.028697)"
         aria-label="Oner" />
      <path
         d="m 200.72718,15.405264 q 0,-2.181809 0.84731,-3.103253 0.8473,-0.932035 2.7961,-0.932035 1.9488,0 2.79611,0.921443 0.8473,0.910853 0.8473,3.113845 v 8.240038 q 0,2.192401 -0.8473,3.113845 -0.83672,0.921444 -2.79611,0.921444 -1.95939,0 -2.8067,-0.921444 -0.83671,-0.921444 -0.83671,-3.113845 z m 3.12444,-1.048539 v 10.19943 q 0,0.413061 0.1165,0.593113 0.1271,0.169461 0.40247,0.169461 0.29656,0 0.41306,-0.180052 0.1271,-0.180053 0.1271,-0.582522 v -10.19943 q 0,-0.413061 -0.1271,-0.582522 -0.1165,-0.169461 -0.41306,-0.169461 -0.27537,0 -0.40247,0.180052 -0.1165,0.180052 -0.1165,0.571931 z m 5.05205,12.974353 V 14.833333 h 2.71138 v 1.04854 h 0.0424 q 0.34951,-0.656661 0.83671,-0.963809 0.48721,-0.317739 1.13327,-0.317739 0.90027,0 1.3451,0.540156 0.45543,0.529566 0.45543,1.588697 v 10.6019 h -2.77493 V 17.64003 q 0,-0.434243 -0.1165,-0.582522 -0.10591,-0.158869 -0.38129,-0.158869 -0.25419,0 -0.38128,0.180052 -0.11651,0.180052 -0.11651,0.561339 v 9.691048 z m 10.10411,-10.082926 v 2.361862 h 0.99558 v -2.361862 q 0,-0.413061 -0.1165,-0.582522 -0.11651,-0.180052 -0.38129,-0.180052 -0.26478,0 -0.38129,0.180052 -0.1165,0.169461 -0.1165,0.582522 z m 0,7.562194 q 0,0.413061 0.1165,0.593113 0.11651,0.169461 0.38129,0.169461 0.26478,0 0.38129,-0.169461 0.1165,-0.180052 0.1165,-0.593113 v -2.340679 h 2.75374 v 2.319497 q 0,1.355687 -0.85789,2.10767 -0.84731,0.741392 -2.39364,0.741392 -1.74756,0 -2.49955,-0.80494 -0.75198,-0.804939 -0.75198,-2.75374 v -5.98409 q 0,-1.969983 0.74139,-2.764331 0.74139,-0.794348 2.48896,-0.794348 1.53574,0 2.40423,0.720209 0.86848,0.709617 0.86848,1.969983 v 4.247115 h -3.74932 z m 4.61781,2.520732 V 14.833333 h 2.71138 v 1.04854 h 0.0424 q 0.34951,-0.656661 0.83671,-0.963809 0.48721,-0.317739 1.13327,-0.317739 0.90027,0 1.3451,0.540156 0.45543,0.529566 0.45543,1.588697 v 4.829636 h -2.77493 V 17.64003 q 0,-0.434243 -0.1165,-0.582522 -0.10591,-0.158869 -0.38129,-0.158869 -0.25419,0 -0.38128,0.180052 -0.11651,0.180052 -0.11651,0.561339 v 9.691048 z"
         id="text15"
         style="font-size:21.691px;line-height:1.25;font-family:'Swiss911 XCm BT';-inkscape-font-specification:'Swiss911 XCm BT, Normal';text-align:center;text-orientation:upright;text-anchor:middle;fill:#ffffff;stroke-width:0.264583"
         transform="skewX(-26.028697)"
         aria-label="Oner" />
      <g
         id="g18"
         transform="rotate(180,188.35928,65.080387)">
        <text
           xml:space="preserve"
           style="font-style:normal;font-variant:normal;font-weight:normal;font-stretch:normal;font-size:21.691px;line-height:1.25;font-family:'Swiss911 XCm BT';-inkscape-font-specification:'Swiss911 XCm BT, Normal';font-variant-ligatures:normal;font-variant-caps:normal;font-variant-numeric:normal;font-variant-east-asian:normal;text-align:center;text-orientation:upright;text-anchor:middle;display:inline;fill:#000000;stroke-width:0.264583"
           x="216.66165"
           y="26.801908"
           id="text17"
           transform="skewX(-26.028697)"><tspan
             sodipodi:role="line"
             id="tspan17"
             x="216.66165"
             y="26.801908"
             style="font-style:normal;font-variant:normal;font-weight:normal;font-stretch:normal;font-size:21.691px;font-family:'Swiss911 XCm BT';-inkscape-font-specification:'Swiss911 XCm BT, Normal';font-variant-ligatures:normal;font-variant-caps:normal;font-variant-numeric:normal;font-variant-east-asian:normal;fill:#000000;stroke-width:0.264583">Oner</tspan></text>
        <text
           xml:space="preserve"
           style="font-style:normal;font-variant:normal;font-weight:normal;font-stretch:normal;font-size:21.691px;line-height:1.25;font-family:'Swiss911 XCm BT';-inkscape-font-specification:'Swiss911 XCm BT, Normal';font-variant-ligatures:normal;font-variant-caps:normal;font-variant-numeric:normal;font-variant-east-asian:normal;text-align:center;text-orientation:upright;text-anchor:middle;display:inline;fill:#ffffff;stroke-width:0.264583"
           x="216.14481"
           y="25.743574"
           id="text18"
           transform="skewX(-26.028697)"><tspan
             sodipodi:role="line"
             id="tspan18"
             x="216.14481"
             y="25.743574"
             style="font-style:normal;font-variant:normal;font-weight:normal;font-stretch:normal;font-size:21.691px;font-family:'Swiss911 XCm BT';-inkscape-font-specification:'Swiss911 XCm BT, Normal';font-variant-ligatures:normal;font-variant-caps:normal;font-variant-numeric:normal;font-variant-east-asian:normal;fill:#ffffff;stroke-width:0.264583">Oner</tspan></text>
      </g>
      <path
         d="m 169.39702,-86.002097 h 7.01918 v 2.504333 h -7.01918 v 7.266094 h -2.53961 v -7.266094 h -7.01919 v -2.504333 h 7.01919 v -7.301366 h 2.53961 z m 27.19496,13.685653 h -16.64853 v -2.574878 l 6.59592,-6.666465 q 1.90471,-1.904704 3.20978,-3.386141 1.30508,-1.481437 1.97525,-2.892329 0.67017,-1.446164 0.67017,-3.139234 0,-2.081066 -1.23453,-3.139235 -1.23453,-1.093442 -3.20978,-1.093442 -1.83416,0 -3.24505,0.634902 -1.37562,0.634901 -2.82178,1.763615 l -1.6578,-2.081066 q 1.48144,-1.23453 3.38614,-2.081066 1.93998,-0.881807 4.33849,-0.881807 3.52723,0 5.57303,1.798887 2.04579,1.763615 2.04579,4.90285 0,1.975249 -0.81126,3.703592 -0.81126,1.728342 -2.25743,3.421413 -1.44616,1.657798 -3.38614,3.562502 l -5.25557,5.185028 v 0.14109 h 12.7333 z"
         id="text20"
         style="font-size:35.2723px;line-height:1.25;font-family:Angelica;-inkscape-font-specification:'Angelica, Normal';text-align:center;text-orientation:upright;text-anchor:middle;stroke-width:0.264583"
         transform="rotate(45)"
         aria-label="+2" />
      <path
         d="m 168.27449,-87.124625 h 7.01919 v 2.504333 h -7.01919 v 7.266094 h -2.53961 v -7.266094 h -7.01919 v -2.504333 h 7.01919 v -7.301366 h 2.53961 z m 27.19496,13.685653 h -16.64853 v -2.574878 l 6.59592,-6.666465 q 1.90471,-1.904705 3.20978,-3.386141 1.30508,-1.481437 1.97525,-2.892329 0.67018,-1.446164 0.67018,-3.139235 0,-2.081065 -1.23453,-3.139234 -1.23454,-1.093442 -3.20978,-1.093442 -1.83416,0 -3.24506,0.634902 -1.37562,0.634901 -2.82178,1.763615 l -1.6578,-2.081066 q 1.48144,-1.23453 3.38614,-2.081066 1.93998,-0.881807 4.3385,-0.881807 3.52723,0 5.57302,1.798887 2.04579,1.763615 2.04579,4.90285 0,1.975249 -0.81126,3.703592 -0.81126,1.728342 -2.25743,3.421413 -1.44616,1.657798 -3.38614,3.562502 l -5.25557,5.185028 v 0.141089 h 12.7333 z"
         id="text19"
         style="font-size:35.2723px;line-height:1.25;font-family:Angelica;-inkscape-font-specification:'Angelica, Normal';text-align:center;text-orientation:upright;text-anchor:middle;fill:#ffffff;stroke-width:0.264583"
         transform="rotate(45)"
         aria-label="+2" />
    </g>
  </g>
</svg>
