<?xml version="1.0" encoding="UTF-8" standalone="no"?>
<!-- Created with Inkscape (http://www.inkscape.org/) -->

<svg
   width="512"
   height="512"
   viewBox="0 0 135.46666 135.46667"
   version="1.1"
   id="svg5"
   inkscape:version="1.4.1 (93de688d07, 2025-03-30)"
   sodipodi:docname="applications-puzzles.svg"
   xmlns:inkscape="http://www.inkscape.org/namespaces/inkscape"
   xmlns:sodipodi="http://sodipodi.sourceforge.net/DTD/sodipodi-0.dtd"
   xmlns="http://www.w3.org/2000/svg"
   xmlns:svg="http://www.w3.org/2000/svg">
  <sodipodi:namedview
     id="namedview7"
     pagecolor="#242424"
     bordercolor="#666666"
     borderopacity="1"
     inkscape:showpageshadow="0"
     inkscape:pageopacity="0"
     inkscape:pagecheckerboard="1"
     inkscape:deskcolor="#000000"
     inkscape:document-units="px"
     showgrid="false"
     inkscape:zoom="1.3037281"
     inkscape:cx="382.74852"
     inkscape:cy="251.96972"
     inkscape:window-width="3233"
     inkscape:window-height="1080"
     inkscape:window-x="1887"
     inkscape:window-y="0"
     inkscape:window-maximized="0"
     inkscape:current-layer="layer1" />
  <defs
     id="defs2">
    <clipPath
       clipPathUnits="userSpaceOnUse"
       id="clipPath5">
      <path
         id="path6"
         style="opacity:1;fill:#0071ff;stroke-width:2.11667;stroke-linecap:round;stroke-miterlimit:12;paint-order:markers stroke fill"
         d="m 211.81755,4.2808249 c -1.19551,0.012721 -2.42169,0.2251112 -3.50684,0.588658 -4.36444,1.392891 -7.79849,5.3562431 -8.41954,9.9146161 -0.52177,3.268095 0.39343,6.917767 2.57677,9.574852 1.1244,1.484841 3.01081,2.513047 3.46378,4.427983 0.3115,1.708695 -1.00107,3.266707 -2.55362,3.796625 -2.44502,0.833353 -5.10114,0.728922 -7.63978,0.497152 -4.06717,-0.455909 -8.09531,-1.320922 -11.97155,-2.639729 -1.17139,4.900718 -1.5988,10.031031 -0.79687,15.025391 0.21244,1.195318 0.47921,2.498452 0.82957,3.690006 0.92619,3.30473 2.58838,6.330547 3.83768,9.509707 0.57596,1.495464 0.54075,3.42433 -0.78256,4.521528 -0.9503,0.986226 -2.43295,1.36457 -3.7315,0.91259 -2.03553,-0.408001 -3.7995,-1.560941 -5.40215,-2.828369 -1.90495,-1.338853 -4.03153,-2.317025 -6.32883,-2.512166 -2.7016,-0.277956 -5.47941,0.34209 -7.82529,1.796724 -3.13439,1.923431 -5.39816,5.482828 -5.76528,9.215906 -0.45579,3.937317 1.1997,8.049585 4.225,10.647198 3.88003,3.47185 10.03431,3.992968 14.4492,1.2334 1.49279,-0.957124 3.01713,-2.086096 4.85548,-2.202148 1.24386,-0.11753 2.61183,0.48255 3.01895,1.737622 0.60258,1.751298 0.30204,3.65138 0.36037,5.467845 -0.0268,5.365752 0.33607,10.669963 1.25279,15.945494 0.52638,3.16453 1.20982,6.34851 1.9968,9.4721 8.39057,-0.64877 16.79135,-1.21488 25.17383,-1.9375 1.47018,-0.30038 3.22827,0.63839 3.33203,2.24414 0.30457,2.09069 -1.04145,3.90114 -2.25391,5.45117 -1.76571,2.38649 -2.85941,5.32779 -2.66504,8.32308 0.15439,4.60388 3.12519,8.96527 7.37588,10.75454 1.57243,0.6896 3.27442,1.05362 4.89268,1.06105 2.75536,0.022 5.53369,-0.91565 7.65625,-2.60742 2.44003,-1.90829 4.1735,-4.71149 4.62105,-7.73787 0.60528,-3.41767 -0.37625,-7.01469 -2.5051,-9.73795 -1.1865,-1.57534 -2.69101,-3.30142 -2.51244,-5.41285 0.21806,-1.52893 1.93424,-2.16 3.29688,-2.10157 6.32762,-0.0467 12.62492,0.71151 18.91571,1.28845 1.13747,0.11935 2.27494,0.23869 3.41241,0.35804 -0.0522,-6.50382 -0.0818,-13.037131 -0.5371,-19.503923 -0.13944,-1.45578 -0.37669,-3.093371 -0.72657,-4.539057 -0.55075,-2.319692 -1.33897,-4.873133 -3.47948,-6.212909 -1.91033,-1.229063 -4.46465,-1.036346 -6.3257,0.193601 -0.49555,0.245049 -0.7577,0.641988 -1.25935,0.841455 -1.82543,1.024898 -3.89016,1.769094 -6.009,1.942891 -4.78553,0.508611 -9.74596,-1.555189 -12.72255,-5.344303 -3.10169,-3.833538 -4.04952,-9.282692 -2.35419,-13.922425 1.77295,-5.02411 6.483,-8.904412 11.80198,-9.505032 3.73881,-0.492043 7.66576,0.573267 10.64483,2.86708 0.89,0.68878 1.87499,1.531983 3.061,1.530692 1.03219,-0.200425 1.39514,-1.395005 1.73158,-2.258161 1.28769,-3.935232 2.16944,-7.993462 3.47558,-11.924683 1.78739,-5.513972 4.15722,-10.839545 7.05054,-15.862504 -10.07442,1.066877 -20.17635,2.089087 -30.31284,2.318962 -2.57702,-0.0036 -5.23787,0.133064 -7.72376,-0.646893 -2.10777,-1.008607 -2.86528,-3.812146 -2.05109,-5.908205 0.64896,-1.878709 2.20268,-3.281274 2.76393,-5.206013 1.44354,-3.824046 0.7607,-8.365586 -1.65054,-11.5820059 -1.67962,-2.2943862 -4.35515,-4.058512 -7.13898,-4.7063152 -1.08453,-0.2448229 -1.99663,-0.3443038 -3.1211,-0.310547 z" />
    </clipPath>
    <filter
       inkscape:collect="always"
       style="color-interpolation-filters:sRGB"
       id="filter6"
       x="-0.026376737"
       y="-0.020866364"
       width="1.0527535"
       height="1.0417327">
      <feGaussianBlur
         inkscape:collect="always"
         stdDeviation="1.1355767"
         id="feGaussianBlur6" />
    </filter>
    <clipPath
       clipPathUnits="userSpaceOnUse"
       id="clipPath9">
      <path
         style="baseline-shift:baseline;display:inline;overflow:visible;vector-effect:none;fill:#0071ff;stroke-width:0.999998;stroke-linecap:round;stroke-miterlimit:12;paint-order:markers stroke fill;enable-background:accumulate;stop-color:#000000"
         d="m 203.33119,-6.2582482 c -7.41535,-6.01e-5 -13.42696,6.01119914 -13.4269,13.426553 4e-5,2.8500912 0.90702,5.6262982 2.58966,7.9266742 1.09034,1.526162 3.5661,3.310725 3.62932,4.473333 0.3038,5.586414 -15.42592,2.535467 -21.89462,0 -6.17705,23.913733 8.91417,30.454283 2.1435,34.045497 -1.00619,0.533691 -4.01699,-0.643134 -4.90155,-1.27775 -0.2905,-0.253619 -1.90921,-1.357167 -2.22045,-1.584851 -2.30038,-1.682647 -5.07658,-2.589623 -7.92667,-2.58966 -7.41536,-5.8e-5 -13.42661,6.011198 -13.42656,13.426554 -5e-5,7.415355 6.0112,13.426958 13.42656,13.426897 2.83487,-5e-6 5.59713,-0.897398 7.89079,-2.563434 5.3e-4,-2.65e-4 0.0198,-0.01524 0.0563,-0.04141 0.37466,-0.268793 2.53984,-1.746927 4.25594,-1.300871 3.33366,0.866494 -1.35631,8.6424 4.8353,32.612466 l 25.75823,-1.935 c 3.07827,-0.66349 2.98028,2.21313 1.73841,4.18789 -0.25362,0.2905 -1.35682,1.9092 -1.58451,2.22044 -1.68264,2.30038 -2.58962,5.07659 -2.58966,7.92668 -6e-5,7.41536 6.0112,13.42662 13.42656,13.42656 7.41534,6e-5 13.42661,-6.0112 13.42655,-13.42656 0,-2.83487 -0.8974,-5.59713 -2.56344,-7.89079 -2.7e-4,-5.3e-4 -0.0153,-0.0201 -0.0414,-0.0566 -1.02708,-1.33196 -4.36011,-5.28631 -1.46732,-6.08158 2.89277,-0.79527 24.51305,1.62895 24.51305,1.62895 0,0 -8e-5,-18.348547 -0.78639,-22.832491 -0.78629,-4.483941 -1.86497,-10.121495 -7.83384,-10.508742 -1.76907,-0.114773 -3.88034,1.031671 -4.25561,1.300869 -0.0371,0.02659 -0.0565,0.04141 -0.0565,0.04141 -2.4e-4,-0.0016 -7.9e-4,-0.0028 -7.9e-4,-0.0045 -2.29293,1.667508 -5.0546,2.566493 -7.88975,2.567922 -7.41531,-1.54e-4 -13.4266,-6.01167 -13.42655,-13.426901 -5e-5,-7.415228 6.01097,-13.426431 13.4262,-13.426551 2.84801,0.007 5.62028,0.919549 7.91564,2.605532 0.005,-0.0058 0.006,-0.01008 0.011,-0.01588 0,0 0.35895,0.331881 0.90301,0.722207 0.88456,0.634614 2.25855,1.423757 3.37363,1.191832 4.15331,-0.863899 2.60699,-13.767097 13.87928,-32.368173 0,0 -37.43118,4.354315 -40.0847,1.700791 -2.65353,-2.653524 -0.26879,-5.778758 0,-6.15342 0.0261,-0.03646 0.0411,-0.0561 0.0414,-0.05659 1.66604,-2.293653 2.56344,-5.055914 2.56344,-7.8907879 6e-5,-7.415354 -6.01121,-13.4266134 -13.42656,-13.4265533 z"
         id="path10" />
    </clipPath>
    <filter
       inkscape:collect="always"
       style="color-interpolation-filters:sRGB"
       id="filter10"
       x="-0.02811127"
       y="-0.022302831"
       width="1.0562225"
       height="1.0446057">
      <feGaussianBlur
         inkscape:collect="always"
         stdDeviation="1.2817054"
         id="feGaussianBlur10" />
    </filter>
  </defs>
  <g
     inkscape:label="Layer 1"
     inkscape:groupmode="layer"
     id="layer1">
    <path
       id="rect1"
       style="display:inline;fill:#0071ff;stroke-width:2.11667;stroke-linecap:round;stroke-miterlimit:12;paint-order:markers stroke fill"
       d="M 113.47999,5.7844845 C 107.38851,-0.30709829 97.512015,-0.30738307 91.42053,5.7842002 89.079283,8.125513 87.543758,11.151162 87.036304,14.423114 86.678285,16.572506 87.246085,20.072256 86.342968,21.079249 82.003427,25.917915 71.58812,10.490049 68.357065,3.0933456 43.638217,17.6636 50.662388,35.43358 42.150347,32.82173 40.885373,32.433584 39.37881,28.993555 39.173483,27.745584 39.143191,27.298605 38.719997,25.062339 38.651357,24.619623 38.143905,21.347665 36.608381,18.322024 34.267129,15.98071 28.175643,9.889128 18.29944,9.8891272 12.207954,15.980709 c -6.0915831,6.091487 -6.0918667,15.967975 -2.84e-4,22.05946 2.328786,2.328779 5.335102,3.86072 8.587891,4.376291 7.06e-4,9.9e-5 0.02879,0.0037 0.08023,0.01219 0.528587,0.08697 3.521478,0.651363 4.564791,2.427524 2.026714,3.450322 -8.213696,5.985346 -22.8182673,30.762425 l 22.7493093,19.57021 c 3.073768,1.983684 0.630196,4.266259 -2.012184,4.868311 -0.44698,0.0303 -2.68295,0.45376 -3.125671,0.5224 -3.27195,0.50745 -6.2976,2.04298 -8.638918,4.38423 -6.0915876,6.09149 -6.0915842,15.96771 -1e-6,22.05918 6.091477,6.09158 15.96769,6.09159 22.059179,0 2.328781,-2.32878 3.860711,-5.33509 4.376288,-8.5879 9e-5,-6.9e-4 0.0039,-0.029 0.0125,-0.0805 0.250451,-1.9379 0.76085,-7.9243 3.790508,-6.20125 3.029635,1.72305 18.798733,21.47502 18.798733,21.47502 0,0 15.072823,-15.07294 18.110333,-19.40233 3.037533,-4.32937 6.782539,-9.84659 2.197372,-15.067983 -1.358963,-1.547528 -4.035108,-2.340121 -4.56451,-2.427246 -0.05229,-0.0086 -0.08043,-0.0124 -0.08043,-0.0124 0.0012,-0.0016 0.0018,-0.0029 0.0031,-0.0042 -3.253404,-0.51377 -6.260542,-2.043918 -8.590722,-4.371752 -6.091372,-6.091623 -6.091191,-15.968072 2.88e-4,-22.059455 6.091384,-6.09148 15.967353,-6.091625 22.058884,-2.92e-4 2.3338,2.345342 3.861535,5.372309 4.362127,8.642891 0.009,-5.86e-4 0.0133,-0.0033 0.02207,-0.004 0,0 0.02224,0.567504 0.148532,1.335082 0.205324,1.247964 0.68576,3.024924 1.792291,3.75041 4.121517,2.702176 13.450917,-9.16775 37.991157,-15.188177 0,0 -34.325769,-27.171841 -34.32577,-31.531454 -1e-6,-4.359612 4.5263,-4.967912 5.05488,-5.054885 0.0514,-0.0085 0.0798,-0.01235 0.0805,-0.01248 3.25279,-0.515568 6.25911,-2.047506 8.58789,-4.376287 6.09158,-6.091483 6.09158,-15.967696 0,-22.0591805 z"
       sodipodi:nodetypes="cccscscccccsssccccccssczcssscccccccsccsccccc" />
    <path
       id="path11"
       style="display:inline;fill:#ff9955;stroke-width:2.11667;stroke-linecap:round;stroke-miterlimit:12;paint-order:markers stroke fill"
       d="M 113.4801,5.7844678 C 107.39886,-0.29687091 97.544963,-0.30740691 91.451036,5.7534784 l -0.0033,0.00335 c -2.341248,2.3413145 -3.876453,5.3672386 -4.38391,8.6391906 -0.358017,2.149392 0.209473,5.649319 -0.693648,6.656307 -0.04693,0.05228 -0.09473,0.102257 -0.143109,0.1498 C 81.820824,25.647631 71.559558,10.425151 68.356878,3.0934025 68.110364,3.2387154 67.90943,3.3881282 67.669173,3.5340432 66.334234,4.3166297 65.243248,5.1021896 64.071457,5.8870979 56.025284,11.616232 52.212648,17.59755 49.993877,22.487962 43.664529,49.955323 114.078,73.641544 134.06286,68.802787 133.13346,68.066246 99.756563,41.586122 99.756562,37.287207 c 0,-1.5379 0.563228,-2.608837 1.315558,-3.354898 1.38084,-1.392388 3.4223,-1.670667 3.76667,-1.727328 0.0514,-0.0085 0.0796,-0.01216 0.0802,-0.01232 3.24607,-0.514504 6.24706,-2.041158 8.57382,-4.361835 6.07894,-6.092389 6.07463,-15.959089 -0.0127,-22.0463582 z" />
    <path
       id="path12"
       style="display:inline;fill:#00d455;stroke-width:2.11667;stroke-linecap:round;stroke-miterlimit:12;paint-order:markers stroke fill"
       d="m 39.146395,27.772665 c -0.0303,-0.446982 -0.453479,-2.683245 -0.52213,-3.125962 -0.50745,-3.271963 -2.042977,-6.297598 -4.384223,-8.63891 -6.091489,-6.0915881 -15.967691,-6.0915798 -22.059172,0 -6.0915877,6.091489 -6.0918746,15.967969 -2.87e-4,22.059458 2.328793,2.328776 5.335099,3.860714 8.587896,4.376289 7.07e-4,9.8e-5 0.02884,0.0037 0.08018,0.01216 0.528579,0.08697 3.52147,0.651365 4.564786,2.427519 2.026711,3.45033 -8.213699,5.985347 -22.8182665,30.762429 L 25.344494,95.215852 c 3.073766,1.983683 0.630197,4.26626 -2.012189,4.868308 -0.446977,0.0303 -2.682959,0.45377 -3.125665,0.52241 -3.271965,0.50746 -6.297608,2.04299 -8.638917,4.38423 -6.0915882,6.09149 -6.0916008,15.9677 -1.2e-5,22.05919 6.091472,6.09157 15.967693,6.09157 22.059182,-10e-6 2.328773,-2.32878 3.860712,-5.3351 4.376289,-8.5879 8.9e-5,-7e-4 0.0039,-0.029 0.01249,-0.0805 0.250451,-1.9379 0.76085,-7.9243 3.790501,-6.20124 3.029634,1.72305 18.79873,21.47502 18.79873,21.47502 0,0 15.072824,-15.07294 18.11033,-19.40233 3.037531,-4.32937 6.782543,-9.84659 2.197369,-15.067982 -1.358957,-1.547534 -4.035098,-2.340114 -4.564502,-2.427253 -0.0523,-0.0086 -0.08043,-0.01241 -0.08043,-0.01241 0.0015,-0.0019 0.0019,-0.003 0.0036,-0.0046 -3.253443,-0.51382 -6.260589,-2.043971 -8.590773,-4.371804 C 64.452788,89.141127 41.48462,87.933274 34.870154,71.918737 29.001725,57.710463 39.242924,28.359361 39.146395,27.772665 Z"
       sodipodi:nodetypes="cccccsssccccccssczcssscccsc" />
    <path
       style="baseline-shift:baseline;display:inline;overflow:visible;opacity:0.6;mix-blend-mode:multiply;vector-effect:none;stroke-width:0.860778;stroke-linecap:round;stroke-miterlimit:12;paint-order:markers stroke fill;filter:url(#filter10);enable-background:accumulate;stop-color:#000000"
       d="m 203.20898,-7.3164062 -0.0976,0.021484 c -7.88343,0.1212299 -14.26569,6.55107812 -14.26563,14.4628906 5e-5,3.0737226 0.97878,6.0696046 2.79297,8.5507816 5.3e-4,7.16e-4 0.001,0.0012 0.002,0.002 0.65153,0.908653 1.56162,1.734667 2.29493,2.486328 0.368,0.377216 0.68859,0.732088 0.89062,1.009766 0.20203,0.277677 0.24397,0.476851 0.24024,0.408203 0.0247,0.453677 -0.072,0.678489 -0.30664,0.931641 -0.23467,0.253151 -0.67478,0.516085 -1.32422,0.710937 -1.2989,0.389704 -3.35356,0.475999 -5.63477,0.291016 -4.56242,-0.369966 -10.08827,-1.762558 -13.18555,-2.976563 l -1.11328,-0.435547 -0.29883,1.15625 c -3.14656,12.181558 -0.85489,20.140065 1.34571,25.322266 1.1003,2.5911 2.14599,4.534107 2.44922,5.769531 0.15161,0.617713 0.12899,0.992845 0.002,1.285156 -0.12704,0.292312 -0.40734,0.620384 -1.12305,1 0.0837,-0.0444 -0.12915,0.03056 -0.46289,-0.0039 -0.33374,-0.03447 -0.77693,-0.13456 -1.22461,-0.273437 -0.89534,-0.277755 -1.86963,-0.759383 -2.10156,-0.925782 l 0.0781,0.0625 c -0.30601,-0.267157 -0.70743,-0.532182 -1.19141,-0.871093 -0.48398,-0.338912 -0.99202,-0.692781 -1.09961,-0.771485 -2.4816,-1.815202 -5.47617,-2.792927 -8.55078,-2.792968 -7.98732,-6.3e-5 -14.48638,6.497058 -14.48633,14.484375 -5e-5,7.987317 6.49897,14.486391 14.48633,14.486328 3.05822,-6e-6 6.03737,-0.968345 8.51172,-2.765625 l 0.008,-0.0059 0.008,-0.0059 c 4.9e-4,-3.69e-4 0.009,-0.0089 0.0352,-0.02734 0.14933,-0.107135 0.73707,-0.506882 1.42969,-0.80664 0.69261,-0.299759 1.46567,-0.454241 1.94336,-0.330079 0.20096,0.05224 0.19156,0.05532 0.26757,0.183594 0.076,0.128271 0.18308,0.454696 0.23828,0.992188 0.11041,1.074982 0.0397,2.898756 0.0488,5.447265 0.0183,5.09702 0.40452,13.155954 3.52344,25.230475 l 0.2207,0.85742 26.71289,-2.00781 0.0723,-0.0137 c 0.61672,-0.13293 0.92666,-0.0537 1.03906,0.004 0.11241,0.0576 0.14565,0.0908 0.19531,0.30469 0.0993,0.42773 -0.1109,1.47929 -0.61523,2.28125 -0.23794,0.29073 -0.47246,0.62867 -0.77344,1.05859 -0.33882,0.48398 -0.69098,0.99224 -0.76953,1.09961 -1.81519,2.4816 -2.79488,5.47618 -2.79492,8.55078 -6e-5,7.98733 6.49901,14.4864 14.48633,14.48633 7.9873,7e-5 14.48444,-6.499 14.48437,-14.48633 0,-3.05822 -0.96834,-6.03737 -2.76562,-8.51171 l -0.008,-0.0117 -0.01,-0.0137 c -3.7e-4,-4.8e-4 -1.3e-4,0.002 -0.0195,-0.0254 l -0.01,-0.0156 -0.0117,-0.0156 c -0.54232,-0.70331 -1.57828,-1.98535 -2.08789,-3.05078 -0.2548,-0.53271 -0.32957,-0.98813 -0.30859,-1.12304 0.021,-0.13492 -0.0859,-0.11462 0.37109,-0.24024 0.13289,-0.0365 0.7811,-0.11165 1.61524,-0.12109 0.83414,-0.009 1.89929,0.0191 3.10351,0.0762 2.40844,0.11424 5.3746,0.34308 8.25,0.5957 5.7508,0.50525 11.14453,1.10938 11.14453,1.10938 l 1.17774,0.13281 v -1.18359 c 0,0 -0.001,-4.596239 -0.0996,-9.755867 -0.0985,-5.159628 -0.26755,-10.775894 -0.70313,-13.259766 -0.39433,-2.248744 -0.85529,-4.882581 -2.08984,-7.11914 -1.23455,-2.23656 -3.40732,-4.048834 -6.71875,-4.263672 -1.13886,-0.07389 -2.21891,0.236444 -3.09766,0.574218 -0.10728,0.04124 -0.12579,0.07272 -0.2246,0.113282 v -0.371094 l -1.68165,1.222656 c -2.11182,1.5358 -4.65453,2.363508 -7.26562,2.365235 -6.84334,-1.42e-4 -12.36919,-5.525887 -12.36914,-12.369141 -5e-5,-6.842618 5.52288,-12.36796 12.36523,-12.369141 2.62363,0.0064 5.17649,0.847229 7.29102,2.400391 l 0.40234,0.294922 c 0.17749,0.149225 0.21174,0.197698 0.52149,0.419922 0.96868,0.694965 2.45367,1.731871 4.20703,1.367187 0.7827,-0.162804 1.45012,-0.642332 1.9375,-1.251953 0.48738,-0.609621 0.84304,-1.347985 1.17187,-2.214844 0.65768,-1.733717 1.20035,-4.010765 1.9668,-6.824218 1.5329,-5.626908 3.92337,-13.375021 9.49219,-22.564454 l 1.12109,-1.849609 -2.14844,0.25 c 0,0 -9.34413,1.086924 -19.00781,1.841797 -4.83184,0.377436 -9.74532,0.670425 -13.58203,0.705078 -1.91836,0.01733 -3.57039,-0.03076 -4.77734,-0.158203 -0.60348,-0.06372 -1.09536,-0.149573 -1.42969,-0.240234 -0.33433,-0.09066 -0.49568,-0.224197 -0.41602,-0.144532 -1.06777,-1.067772 -1.05611,-2.002437 -0.82031,-2.919922 0.23581,-0.917484 0.74556,-1.609765 0.93164,-1.86914 0.01,-0.01344 0.0244,-0.03379 0.043,-0.06055 1.79296,-2.472503 2.75977,-5.449518 2.75977,-8.5039066 6e-5,-7.98731848 -6.49706,-14.4844397 -14.48438,-14.4843749 z m 0.12305,2.1171875 c 6.84339,-5.55e-5 12.36724,5.52379786 12.36719,12.3671874 0,2.6115255 -0.82653,5.1565643 -2.36133,7.2695313 l -0.0234,0.0332 -0.0234,0.03516 c -3e-4,4.9e-4 0.035,-0.0521 0.002,-0.0059 -0.0836,0.116368 -0.90156,1.172897 -1.26172,2.574219 -0.36038,1.402179 -0.21271,3.357608 1.37305,4.943359 0.41135,0.411356 0.85387,0.554327 1.35937,0.691406 0.50551,0.13708 1.08774,0.229616 1.76172,0.300782 1.34796,0.142331 3.05556,0.189613 5.01953,0.171875 3.92794,-0.03548 8.87087,-0.333439 13.72852,-0.712891 8.69322,-0.679065 15.4031,-1.463083 17.07812,-1.654297 -4.9362,8.611239 -7.29637,15.996129 -8.74414,21.310547 -0.77517,2.845467 -1.32958,5.11902 -1.90234,6.628906 -0.28639,0.754943 -0.5806,1.312446 -0.84766,1.646485 -0.26706,0.334038 -0.45922,0.446829 -0.71484,0.5 -0.4768,0.09917 -1.74058,-0.441363 -2.54102,-1.015625 -0.49233,-0.353215 -0.80078,-0.638672 -0.80078,-0.638672 l -0.80273,-0.744141 -0.19336,0.224609 C 233.50518,47.273487 230.89187,46.381719 228.1582,46.375 h -0.002 -0.002 c -7.98719,1.29e-4 -14.48443,6.497196 -14.48438,14.484375 -5e-5,7.987204 6.49905,14.48421 14.48633,14.484375 2.50289,-0.0013 4.88182,-0.799664 7.04492,-2.021484 l 0.0488,0.339843 1.4375,-1.097656 c 0,0 0.004,-0.0036 0.0312,-0.02344 0.002,-0.0014 0.65617,-0.391962 1.36914,-0.666016 0.71297,-0.274054 1.57096,-0.478386 2.20117,-0.4375 2.65744,0.172409 4.00837,1.37186 5.00196,3.171875 0.99358,1.800015 1.46741,4.227693 1.85937,6.462891 0.35074,2.000073 0.5738,7.799915 0.67188,12.935546 0.0862,4.516135 0.0847,7.623011 0.0859,8.542971 -0.97597,-0.10803 -4.84053,-0.54194 -10.00976,-0.99609 -2.89127,-0.25402 -5.87308,-0.48298 -8.33203,-0.59961 -1.22948,-0.0583 -2.3266,-0.0883 -3.22852,-0.0781 -0.90192,0.0102 -1.56204,0.033 -2.15234,0.19532 -0.98944,0.27201 -1.76677,1.0852 -1.90235,1.95703 -0.13557,0.87182 0.145,1.63759 0.49024,2.35937 0.68415,1.43034 1.80662,2.76429 2.29883,3.40039 0.004,0.005 0.004,0.005 0.008,0.01 l 0.0137,0.0215 c 0.0105,0.0143 0.0178,0.0257 0.0234,0.0332 1.53479,2.11297 2.36133,4.65605 2.36133,7.26757 5e-5,6.8434 -5.52382,12.3692 -12.36719,12.36914 -6.8434,6e-5 -12.3692,-5.52574 -12.36914,-12.36914 3e-5,-2.62557 0.83663,-5.18162 2.38672,-7.30078 0.14914,-0.20387 0.46182,-0.66091 0.79492,-1.13672 0.3331,-0.4758 0.74611,-1.02935 0.73242,-1.01367 l 0.0547,-0.0625 0.043,-0.0703 c 0.73754,-1.1728 1.1975,-2.54637 0.88671,-3.88477 -0.15539,-0.66919 -0.59679,-1.35408 -1.29296,-1.71093 -0.69618,-0.35686 -1.52876,-0.38827 -2.45118,-0.18946 l 0.14454,-0.0215 -24.84766,1.86719 c -2.85494,-11.374849 -3.2442,-18.980954 -3.26172,-23.849616 -0.009,-2.500037 0.0808,-4.280485 -0.0605,-5.65625 -0.0707,-0.687883 -0.19366,-1.29901 -0.52343,-1.855469 -0.32977,-0.556459 -0.92224,-0.986003 -1.55469,-1.150391 -1.23841,-0.321892 -2.4057,0.0386 -3.31836,0.433594 -0.91266,0.394992 -1.59498,0.869593 -1.82031,1.03125 -0.0388,0.02783 -0.0541,0.03853 -0.0625,0.04492 -2.11298,1.534793 -4.65606,2.361324 -7.26758,2.361328 -6.84337,5.5e-5 -12.36919,-5.525746 -12.36914,-12.36914 -5e-5,-6.843394 5.52574,-12.367241 12.36914,-12.367188 2.62557,3.5e-5 5.18162,0.834676 7.30078,2.384766 0.20365,0.148982 0.66091,0.461734 1.13672,0.794922 0.47581,0.333188 1.02918,0.745958 1.01367,0.732421 l 0.0371,0.0332 0.041,0.0293 c 0.65262,0.468218 1.62624,0.892627 2.70898,1.228516 0.54137,0.167945 1.09334,0.301504 1.63477,0.357422 0.54142,0.05592 1.08312,0.07882 1.66992,-0.232422 0.97696,-0.518187 1.70648,-1.179222 2.07422,-2.025391 0.36774,-0.846168 0.32587,-1.758681 0.11132,-2.632812 -0.42909,-1.748262 -1.50064,-3.609641 -2.55468,-6.091797 -2.03638,-4.795469 -4.02346,-11.836625 -1.43164,-22.878906 3.40525,1.198616 8.18835,2.39319 12.56445,2.748047 2.42183,0.196385 4.64693,0.157142 6.41406,-0.373047 0.88357,-0.265095 1.67295,-0.659458 2.26563,-1.298828 0.59267,-0.63937 0.92042,-1.541449 0.86914,-2.484375 -0.0353,-0.649953 -0.3266,-1.109412 -0.64063,-1.541016 -0.31402,-0.431604 -0.69276,-0.837166 -1.08789,-1.242187 -0.79026,-0.810042 -1.65736,-1.634497 -2.0957,-2.248047 l -0.004,-0.0059 -0.004,-0.0039 c -1.55009,-2.119155 -2.38473,-4.6771612 -2.38477,-7.3027343 -5e-5,-6.84335698 5.52576,-12.3672429 12.36914,-12.3671874 z"
       id="path8"
       clip-path="url(#clipPath9)"
       transform="matrix(0.82147576,0.82147576,-0.82147576,0.82147576,-58.696406,-156.11075)" />
    <path
       id="path3"
       style="display:inline;mix-blend-mode:normal;fill:#ffffff;stroke-width:1.82197;stroke-linecap:round;stroke-miterlimit:12;paint-order:markers stroke fill;filter:url(#filter6)"
       d="m 211.81736,4.2808464 c -1.19551,0.012719 -2.42161,0.2250471 -3.50676,0.5885945 -4.36444,1.3928915 -7.79859,5.3562671 -8.41964,9.9146401 -0.52177,3.268095 0.39376,6.917524 2.5771,9.574609 0.41584,0.549136 0.93578,1.035897 1.44901,1.528072 -0.13738,-0.152308 -0.26847,-0.308367 -0.39067,-0.469738 -2.18334,-2.657085 -3.09888,-6.306515 -2.57711,-9.57461 0.62105,-4.558373 4.05521,-8.5217482 8.41965,-9.9146397 1.08515,-0.3635474 2.31125,-0.5758756 3.50676,-0.5885946 1.12447,-0.033757 2.03672,0.065236 3.12125,0.3100586 1.97125,0.4587136 3.88836,1.4772602 5.43585,2.8473714 -1.67723,-1.9003155 -4.04383,-3.3355024 -6.49418,-3.9057047 -1.08453,-0.2448227 -1.99679,-0.3438159 -3.12126,-0.3100586 z m -7.05279,22.4621946 c 0.53346,0.591065 0.97708,1.239357 1.16737,2.043803 0.3115,1.708696 -1.0013,3.266749 -2.55385,3.796667 -2.44502,0.833352 -5.10121,0.728896 -7.63985,0.497127 -4.06717,-0.45591 -8.09512,-1.320825 -11.97136,-2.639632 -1.17139,4.900719 -1.59878,10.030564 -0.79685,15.024923 0.21244,1.195317 0.47905,2.498661 0.82941,3.690214 0.92619,3.30473 2.58819,6.330338 3.83749,9.509497 0.57596,1.495463 0.54093,3.424488 -0.78238,4.521687 -0.9503,0.986227 -2.43301,1.364585 -3.73156,0.912606 -2.03553,-0.408003 -3.7996,-1.560824 -5.40225,-2.828251 -1.90495,-1.338852 -4.03151,-2.316851 -6.32881,-2.511991 -2.7016,-0.277955 -5.47897,0.341638 -7.82485,1.796273 -3.13439,1.92343 -5.39842,5.482897 -5.76554,9.215974 -0.45005,3.887728 1.15837,7.946405 4.11138,10.54871 -2.26992,-2.571787 -3.44595,-6.096274 -3.05305,-9.490376 0.36712,-3.733077 2.63115,-7.292545 5.76554,-9.215975 2.34588,-1.454635 5.12325,-2.074228 7.82485,-1.796273 2.2973,0.19514 4.42386,1.173139 6.32881,2.511991 1.60265,1.267427 3.36673,2.420249 5.40226,2.828252 1.29855,0.451979 2.78125,0.07362 3.73155,-0.912606 1.32331,-1.097199 1.35834,-3.026225 0.78238,-4.521688 -1.2493,-3.179159 -2.9113,-6.204767 -3.83749,-9.509497 -0.35036,-1.191553 -0.61697,-2.494897 -0.82941,-3.690214 -0.80193,-4.994359 -0.37454,-10.124203 0.79685,-15.024922 3.87624,1.318807 7.9042,2.183722 11.97137,2.639632 2.53864,0.231769 5.19482,0.336224 7.63984,-0.497128 1.55255,-0.529918 2.86535,-2.087971 2.55385,-3.796667 -0.30836,-1.303601 -1.28137,-2.196599 -2.2257,-3.102136 z m 56.28751,3.578593 c -10.07442,1.066877 -20.17638,2.088848 -30.31287,2.318721 -2.57702,-0.0036 -5.23819,0.133483 -7.72408,-0.646472 -0.16468,-0.0788 -0.32113,-0.168679 -0.46922,-0.268201 0.38343,0.558819 0.89462,1.023662 1.52755,1.326534 2.48589,0.779955 5.14706,0.642873 7.72408,0.646473 9.54601,-0.216483 19.06115,-1.135249 28.55175,-2.132687 0.23062,-0.416727 0.46507,-0.831664 0.70279,-1.244368 z m -76.83406,50.544201 c 0.0513,0.102174 0.0957,0.20966 0.13229,0.322461 0.60258,1.751297 0.30185,3.651417 0.36018,5.467883 -0.0268,5.365752 0.33592,10.669762 1.25264,15.945281 0.52638,3.16453 1.2098,6.3487 1.99678,9.47229 0.26053,-0.0202 0.52131,-0.0405 0.78186,-0.0605 -0.67085,-2.76323 -1.25662,-5.56588 -1.72031,-8.3535 -0.91672,-5.275522 -1.27943,-10.579526 -1.25263,-15.945278 -0.0583,-1.816466 0.24239,-3.716586 -0.36019,-5.467883 -0.20293,-0.625593 -0.6446,-1.088427 -1.19062,-1.380794 z m 64.55781,0.07183 c -1.11,0.04829 -2.21398,0.404085 -3.14451,1.019059 -0.49555,0.245049 -0.7577,0.641827 -1.25935,0.841293 -1.82543,1.024898 -3.8901,1.769237 -6.00894,1.943033 -4.00112,0.425242 -8.12442,-0.947963 -11.10836,-3.624068 3.01443,3.36499 7.66781,5.160547 12.16669,4.682402 2.11884,-0.173796 4.18351,-0.918136 6.00894,-1.943034 0.50165,-0.199466 0.7638,-0.596243 1.25935,-0.841292 1.86105,-1.229948 4.41539,-1.422852 6.32572,-0.193787 0.14892,0.09322 0.29167,0.192146 0.42788,0.296623 -0.40802,-0.523779 -0.89587,-0.985448 -1.48622,-1.354956 -0.95516,-0.614533 -2.0712,-0.873563 -3.1812,-0.825273 z m -32.54581,30.581595 c 0.13228,0.25871 0.21587,0.54693 0.23616,0.86093 0.30457,2.09069 -1.04167,3.90132 -2.25413,5.45135 -1.76571,2.38649 -2.85932,5.32771 -2.66495,8.323 0.11172,3.3317 1.6982,6.53644 4.17752,8.73125 -1.86581,-2.1055 -3.0243,-4.84343 -3.11919,-7.67291 -0.19437,-2.99529 0.89924,-5.93652 2.66495,-8.32301 1.21246,-1.55003 2.5587,-3.36066 2.25413,-5.45135 -0.0556,-0.86103 -0.58697,-1.53 -1.29449,-1.91926 z"
       clip-path="url(#clipPath5)"
       transform="matrix(0.82147576,0.82147576,-0.82147576,0.82147576,-58.141204,-171.19987)" />
  </g>
</svg>
