<?xml version="1.0" encoding="UTF-8" standalone="no"?>
<!-- Created with Inkscape (http://www.inkscape.org/) -->

<svg
   width="512"
   height="512"
   viewBox="0 0 135.46666 135.46667"
   version="1.1"
   id="svg5"
   inkscape:version="1.4.1 (93de688d07, 2025-03-30)"
   sodipodi:docname="system-help.svg"
   xmlns:inkscape="http://www.inkscape.org/namespaces/inkscape"
   xmlns:sodipodi="http://sodipodi.sourceforge.net/DTD/sodipodi-0.dtd"
   xmlns:xlink="http://www.w3.org/1999/xlink"
   xmlns="http://www.w3.org/2000/svg"
   xmlns:svg="http://www.w3.org/2000/svg">
  <sodipodi:namedview
     id="namedview7"
     pagecolor="#242424"
     bordercolor="#666666"
     borderopacity="1"
     inkscape:showpageshadow="0"
     inkscape:pageopacity="0"
     inkscape:pagecheckerboard="1"
     inkscape:deskcolor="#000000"
     inkscape:document-units="px"
     showgrid="false"
     inkscape:zoom="1.3037281"
     inkscape:cx="340.94532"
     inkscape:cy="173.73254"
     inkscape:window-width="3256"
     inkscape:window-height="1080"
     inkscape:window-x="1864"
     inkscape:window-y="0"
     inkscape:window-maximized="0"
     inkscape:current-layer="layer1" />
  <defs
     id="defs2">
    <linearGradient
       id="linearGradient90"
       inkscape:collect="always">
      <stop
         style="stop-color:#ffffff;stop-opacity:1;"
         offset="0"
         id="stop90" />
      <stop
         style="stop-color:#000000;stop-opacity:1;"
         offset="1"
         id="stop91" />
    </linearGradient>
    <linearGradient
       id="linearGradient27"
       inkscape:collect="always">
      <stop
         style="stop-color:#ffffff;stop-opacity:1;"
         offset="0"
         id="stop28" />
      <stop
         style="stop-color:#000000;stop-opacity:0.10126583;"
         offset="1"
         id="stop27" />
    </linearGradient>
    <linearGradient
       id="linearGradient25"
       inkscape:collect="always">
      <stop
         style="stop-color:#ffffff;stop-opacity:0;"
         offset="0"
         id="stop26" />
      <stop
         style="stop-color:#000000;stop-opacity:1;"
         offset="1"
         id="stop25" />
    </linearGradient>
    <filter
       inkscape:collect="always"
       style="color-interpolation-filters:sRGB"
       id="filter13"
       x="-0.066239576"
       y="-0.072262319"
       width="1.1324792"
       height="1.1445246">
      <feGaussianBlur
         inkscape:collect="always"
         stdDeviation="3.5051776"
         id="feGaussianBlur13" />
    </filter>
    <clipPath
       clipPathUnits="userSpaceOnUse"
       id="clipPath19">
      <path
         style="baseline-shift:baseline;display:inline;overflow:visible;opacity:1;vector-effect:none;fill:#ff6600;fill-opacity:0.302752;stroke-width:0.999998;stroke-linecap:round;stroke-linejoin:round;stroke-miterlimit:12;paint-order:markers stroke fill;enable-background:accumulate;stop-color:#000000;stop-opacity:1"
         d="m 67.732419,4.232422 c -34.944719,0 -63.4999994,28.555273 -63.4999994,63.499999 0,34.944729 28.5552804,63.499999 63.4999994,63.499999 34.944721,0 63.500011,-28.55527 63.500011,-63.499999 0,-34.944726 -28.55529,-63.499999 -63.500011,-63.499999 z m 0,21.167969 c 23.505406,0 42.334001,18.82662 42.334001,42.33203 0,23.505412 -18.828595,42.333989 -42.334001,42.333989 -23.505409,0 -42.332029,-18.828577 -42.332029,-42.333989 0,-23.50541 18.82662,-42.33203 42.332029,-42.33203 z"
         id="path20" />
    </clipPath>
    <filter
       inkscape:collect="always"
       style="color-interpolation-filters:sRGB"
       id="filter20"
       x="-0.029811264"
       y="-0.031685878"
       width="1.0596225"
       height="1.0633718">
      <feGaussianBlur
         inkscape:collect="always"
         stdDeviation="1.5054604"
         id="feGaussianBlur20" />
    </filter>
    <linearGradient
       inkscape:collect="always"
       xlink:href="#linearGradient25"
       id="linearGradient26"
       x1="382.09497"
       y1="147.32704"
       x2="382.09497"
       y2="234.10829"
       gradientUnits="userSpaceOnUse"
       gradientTransform="translate(-9.5624202,-156.41906)" />
    <linearGradient
       inkscape:collect="always"
       xlink:href="#linearGradient27"
       id="linearGradient28"
       x1="222.1416"
       y1="125.26074"
       x2="222.1416"
       y2="-3.8544922"
       gradientUnits="userSpaceOnUse" />
    <clipPath
       clipPathUnits="userSpaceOnUse"
       id="clipPath28">
      <path
         style="baseline-shift:baseline;display:inline;overflow:visible;vector-effect:none;fill:#ff6600;stroke:none;stroke-width:0.999998;stroke-linecap:round;stroke-linejoin:round;stroke-miterlimit:12;paint-order:markers stroke fill;enable-background:accumulate;stop-color:#000000"
         d="m 372.53256,-29.201393 c -34.94474,0 -63.5,28.55527355 -63.5,63.500002 0,34.944727 28.55526,63.499991 63.5,63.499991 34.94474,0 63.5,-28.555264 63.5,-63.499991 0,-34.94472845 -28.55526,-63.500002 -63.5,-63.500002 z m 0,21.1679695 c 23.5054,0 42.334,18.8266205 42.334,42.3320325 0,23.505411 -18.8286,42.333981 -42.334,42.333981 -23.50542,0 -42.33203,-18.82857 -42.33203,-42.333981 0,-23.505412 18.82661,-42.3320325 42.33203,-42.3320325 z"
         id="path29" />
    </clipPath>
    <clipPath
       clipPathUnits="userSpaceOnUse"
       id="clipPath29">
      <path
         style="baseline-shift:baseline;display:inline;overflow:visible;vector-effect:none;fill:#ff6600;stroke:none;stroke-width:0.999998;stroke-linecap:round;stroke-linejoin:round;stroke-miterlimit:12;paint-order:markers stroke fill;enable-background:accumulate;stop-color:#000000"
         d="m 222.1416,-2.7968694 c -34.94473,0 -63.5,28.5552744 -63.5,63.5000004 0,34.94473 28.55527,63.499989 63.5,63.499989 34.94473,0 63.5,-28.555259 63.5,-63.499989 0,-34.944726 -28.55527,-63.5000004 -63.5,-63.5000004 z m 0,21.1679704 c 23.50541,0 42.33399,18.826619 42.33399,42.33203 0,23.505411 -18.82858,42.333979 -42.33399,42.333979 -23.50541,0 -42.33203,-18.828568 -42.33203,-42.333979 0,-23.505411 18.82662,-42.33203 42.33203,-42.33203 z"
         id="path30" />
    </clipPath>
    <filter
       inkscape:collect="always"
       style="color-interpolation-filters:sRGB"
       id="filter30"
       x="-0.038880293"
       y="-0.038879707"
       width="1.0777606"
       height="1.0777594">
      <feGaussianBlur
         inkscape:collect="always"
         stdDeviation="2.0916827"
         id="feGaussianBlur30" />
    </filter>
    <filter
       inkscape:collect="always"
       style="color-interpolation-filters:sRGB"
       id="filter31"
       x="-0.038880431"
       y="-0.038879566"
       width="1.0777609"
       height="1.0777591">
      <feGaussianBlur
         inkscape:collect="always"
         stdDeviation="1.405872"
         id="feGaussianBlur31" />
    </filter>
    <clipPath
       clipPathUnits="userSpaceOnUse"
       id="clipPath63">
      <path
         style="baseline-shift:baseline;display:inline;overflow:visible;opacity:1;vector-effect:none;fill:#ff6600;stroke-width:1.22;stroke-linecap:round;stroke-linejoin:round;stroke-miterlimit:12;paint-order:markers stroke fill;enable-background:accumulate;stop-color:#000000;stop-opacity:1"
         d="m 67.732422,4.2324217 c -34.944727,0 -63.5,28.5552733 -63.5,63.5000013 0,34.944727 28.555273,63.499997 63.5,63.499997 34.944728,0 63.499998,-28.55527 63.499998,-63.499997 0,-34.944728 -28.55527,-63.5000013 -63.499998,-63.5000013 z m 0,21.1679693 c 23.50541,0 42.333988,18.826619 42.333988,42.332032 0,23.505409 -18.828578,42.333987 -42.333988,42.333987 -23.505413,0 -42.332032,-18.828578 -42.332032,-42.333987 0,-23.505413 18.826619,-42.332032 42.332032,-42.332032 z"
         id="path64" />
    </clipPath>
    <filter
       inkscape:collect="always"
       style="color-interpolation-filters:sRGB"
       id="filter64"
       x="-0.0076800013"
       y="-0.0076799991"
       width="1.01536"
       height="1.01536">
      <feGaussianBlur
         inkscape:collect="always"
         stdDeviation="0.40960403"
         id="feGaussianBlur64" />
    </filter>
    <clipPath
       clipPathUnits="userSpaceOnUse"
       id="clipPath72">
      <path
         id="path72"
         style="display:inline;fill:#ffffff;stroke-width:21.1667;stroke-linecap:round;stroke-linejoin:round;stroke-miterlimit:12;paint-order:markers stroke fill"
         inkscape:transform-center-x="-1.0000001e-06"
         inkscape:transform-center-y="-52.715314"
         d="m 67.733329,3.7326917 c -5.007016,0 -7.218709,0.6619777 -7.218709,0.6619777 V 4.6436991 C 48.426523,6.0252394 37.345186,10.83173 28.271259,18.062303 l -0.220661,-0.220658 c 0,0 -2.032091,1.095869 -5.572591,4.636365 -3.54049,3.540497 -4.636366,5.572592 -4.636366,5.572592 l 0.220658,0.220661 C 10.83172,37.34519 6.0252406,48.426524 4.6436954,60.514623 H 4.3946658 c 0,0 -0.6619777,2.211694 -0.6619777,7.21871 0,5.007016 0.6619777,7.21871 0.6619777,7.21871 H 4.6436954 C 6.0252399,87.040142 10.83172,98.121476 18.062299,107.1954 l -0.220658,0.22066 c 0,0 1.095869,2.0321 4.636366,5.5726 3.540496,3.54049 5.572591,4.63636 5.572591,4.63636 l 0.220661,-0.22066 c 9.07393,7.23058 20.155264,12.03707 32.243361,13.41861 v 0.24903 c 0,0 2.211693,0.66197 7.218709,0.66197 5.007016,0 7.21871,-0.66197 7.21871,-0.66197 v -0.24903 c 12.08809,-1.38155 23.16944,-6.18803 32.243361,-13.41861 l 0.22066,0.22066 c 0,0 2.03209,-1.09587 5.57259,-4.63636 3.54049,-3.5405 4.63637,-5.5726 4.63637,-5.5726 l -0.22066,-0.22066 c 7.17318,-9.001902 11.96074,-19.979633 13.38519,-31.955868 l 0.2484,0.0013 c 0,0 0.67249,-2.208595 0.69539,-7.215559 0.0229,-5.006965 -0.62919,-7.221231 -0.62919,-7.221231 l -0.2484,-0.0013 C 129.51814,48.602582 124.69236,37.41726 117.40436,28.271263 l 0.22066,-0.220661 c 0,0 -1.09588,-2.032095 -4.63637,-5.572592 -3.5405,-3.540493 -5.57259,-4.636365 -5.57259,-4.636365 l -0.22066,0.220658 C 98.121479,10.831728 87.040129,6.0252475 74.952039,4.6436991 V 4.3946694 c 0,0 -2.211694,-0.6619777 -7.21871,-0.6619777 z m 0,21.9083123 c 4.145998,0 7.21871,0.662607 7.21871,0.662607 v -0.298203 c 6.341726,1.074487 12.188533,3.542533 17.217729,7.08253 l -0.245878,0.245878 c 0,0 2.641557,1.704072 5.573221,4.635736 2.931669,2.931664 4.635739,5.573221 4.635739,5.573221 l 0.2465,-0.246508 c 3.5761,5.07949 6.05873,10.993248 7.11595,17.408755 l -0.29947,-0.0013 c 0,0 0.6481,3.075907 0.6292,7.221863 -0.0189,4.145956 -0.69539,7.215559 -0.69539,7.215559 l 0.30072,0.0013 c -1.0915,6.26864 -3.54595,12.048993 -7.05101,17.027962 l -0.2465,-0.246507 c 0,0 -1.70407,2.641557 -4.635739,5.57322 -2.931664,2.931663 -5.573221,4.635733 -5.573221,4.635733 l 0.246507,0.24651 c -5.029366,3.54055 -10.876309,6.00914 -17.218358,7.08379 v -0.3001 c 0,0 -3.072712,0.66261 -7.21871,0.66261 -4.146001,0 -7.218709,-0.66261 -7.218709,-0.66261 v 0.3001 c -6.342091,-1.07467 -12.189179,-3.54311 -17.218358,-7.08379 l 0.246507,-0.24651 c 0,0 -2.641557,-1.70407 -5.573221,-4.635733 -2.931664,-2.931663 -4.635736,-5.57322 -4.635736,-5.57322 l -0.245878,0.245877 C 29.547938,87.140573 27.079889,81.293779 26.005404,74.952046 h 0.298203 c 0,0 -0.662607,-3.072708 -0.662607,-7.21871 0,-4.146001 0.662607,-7.218709 0.662607,-7.218709 h -0.298203 c 1.074517,-6.341769 3.543031,-12.188092 7.083159,-17.217096 l 0.245249,0.245245 c 0,0 1.704069,-2.641557 4.635736,-5.573221 2.931664,-2.931664 5.573221,-4.635736 5.573221,-4.635736 l -0.245245,-0.245245 c 5.029005,-3.540129 10.875328,-6.00865 17.217096,-7.083163 v 0.298203 c 0,0 3.072708,-0.662607 7.218709,-0.662607 z" />
    </clipPath>
    <clipPath
       clipPathUnits="userSpaceOnUse"
       id="clipPath81">
      <path
         id="path81"
         style="display:inline;fill:#ffffff;stroke-width:21.1667;stroke-linecap:round;stroke-linejoin:round;stroke-miterlimit:12;paint-order:markers stroke fill"
         inkscape:transform-center-x="-1.0000001e-06"
         inkscape:transform-center-y="-52.715314"
         d="m 67.733329,3.7326917 c -5.007016,0 -7.218709,0.6619777 -7.218709,0.6619777 V 26.303611 c 0,0 3.072708,-0.662607 7.218709,-0.662607 4.145998,0 7.21871,0.662607 7.21871,0.662607 V 4.3946694 c 0,0 -2.211694,-0.6619777 -7.21871,-0.6619777 z M 28.050598,17.841645 c 0,0 -2.032091,1.095869 -5.572591,4.636365 -3.54049,3.540497 -4.636366,5.572592 -4.636366,5.572592 l 15.492171,15.492171 c 0,0 1.704069,-2.641557 4.635736,-5.573221 2.931664,-2.931664 5.573221,-4.635736 5.573221,-4.635736 z m 79.365462,0 -15.49217,15.492171 c 0,0 2.641557,1.704072 5.573221,4.635736 2.931669,2.931664 4.635739,5.573221 4.635739,5.573221 l 15.49217,-15.492171 c 0,0 -1.09588,-2.032095 -4.63637,-5.572592 -3.5405,-3.540493 -5.57259,-4.636365 -5.57259,-4.636365 z M 4.3946658,60.514623 c 0,0 -0.6619777,2.211694 -0.6619777,7.21871 0,5.007016 0.6619777,7.21871 0.6619777,7.21871 H 26.303607 c 0,0 -0.662607,-3.072709 -0.662607,-7.21871 0,-4.146001 0.662607,-7.21871 0.662607,-7.21871 z M 109.19583,60.703761 c 0,0 0.6481,3.075904 0.6292,7.22186 -0.0189,4.145959 -0.69539,7.215559 -0.69539,7.215559 l 21.90831,0.09961 c 0,0 0.67249,-2.208592 0.69539,-7.215559 0.0229,-5.006965 -0.62919,-7.221231 -0.62919,-7.221231 z M 33.333812,91.923893 17.841641,107.41606 c 0,0 1.095869,2.0321 4.636366,5.5726 3.540496,3.54049 5.572591,4.63636 5.572591,4.63636 l 15.492171,-15.49217 c 0,0 -2.641557,-1.70407 -5.573221,-4.635736 -2.931664,-2.931664 -4.635736,-5.573221 -4.635736,-5.573221 z m 68.799038,0 c 0,0 -1.70407,2.641557 -4.635739,5.573221 -2.931664,2.931666 -5.573221,4.635736 -5.573221,4.635736 l 15.49217,15.49217 c 0,0 2.03209,-1.09587 5.57259,-4.63636 3.54049,-3.5405 4.63637,-5.5726 4.63637,-5.5726 z M 60.51462,109.16305 V 131.072 c 0,0 2.211693,0.66197 7.218709,0.66197 5.007016,0 7.21871,-0.66197 7.21871,-0.66197 v -21.90895 c 0,0 -3.072712,0.66261 -7.21871,0.66261 -4.146001,0 -7.218709,-0.66261 -7.218709,-0.66261 z" />
    </clipPath>
    <linearGradient
       inkscape:collect="always"
       xlink:href="#linearGradient90"
       id="linearGradient91"
       x1="67.7323"
       y1="9.0723534"
       x2="67.7323"
       y2="126.40298"
       gradientUnits="userSpaceOnUse" />
  </defs>
  <g
     inkscape:label="Layer 1"
     inkscape:groupmode="layer"
     id="layer1">
    <g
       id="g31"
       transform="matrix(0.94635346,0,0,0.94635346,3.634833,3.6286605)"
       style="display:inline;stroke-width:1.05668">
      <path
         style="baseline-shift:baseline;display:inline;overflow:visible;opacity:1;vector-effect:none;fill:#ff6600;stroke-width:1.28916;stroke-linecap:round;stroke-linejoin:round;stroke-miterlimit:12;paint-order:markers stroke fill;enable-background:accumulate;stop-color:#000000;stop-opacity:1"
         d="m 67.732422,4.2324219 c -34.944727,0 -63.5000001,28.5552731 -63.5000001,63.5000001 0,34.944728 28.5552731,63.499998 63.5000001,63.499998 34.944728,0 63.499998,-28.55527 63.499998,-63.499998 0,-34.944727 -28.55527,-63.5000001 -63.499998,-63.5000001 z m 0,21.1679691 c 23.505411,0 42.333988,18.82662 42.333988,42.332031 0,23.505411 -18.828577,42.333988 -42.333988,42.333988 -23.505411,0 -42.332031,-18.828577 -42.332031,-42.333988 0,-23.505411 18.82662,-42.332031 42.332031,-42.332031 z"
         id="path1" />
      <path
         id="path16"
         clip-path="url(#clipPath19)"
         style="baseline-shift:baseline;display:inline;overflow:visible;opacity:0.64;mix-blend-mode:normal;vector-effect:none;fill:#ffffff;stroke-width:1.05668;stroke-linecap:round;stroke-linejoin:round;stroke-miterlimit:12;paint-order:markers stroke fill;filter:url(#filter20);enable-background:accumulate;stop-color:#000000;stop-opacity:1"
         d="M 66.176586,6.6383282 C 54.169986,6.9152918 42.13932,10.916488 32.34971,17.917226 21.47734,25.624959 13.174531,36.866903 9.1919511,49.607281 8.2964111,52.425228 7.6032888,55.343981 7.1336788,58.237762 7.7467296,56.768301 8.4143743,55.322215 9.1340735,53.902626 18.743239,30.996183 41.427785,14.815607 67.732563,14.815607 c 26.303508,0 48.986457,16.179242 58.596427,39.083919 0.72064,1.421605 1.38971,2.869399 2.00401,4.340303 C 126.50307,46.812665 121.26687,35.860923 113.54785,27.25154 105.64799,18.39708 95.261283,11.87165 83.802383,8.776699 78.062323,7.2044384 72.108166,6.4989615 66.176586,6.6383282 Z M 107.74304,87.489723 c -0.0768,0.158203 -0.15366,0.316702 -0.23048,0.474906 -5.46951,10.951339 -15.627838,19.507021 -27.453618,22.771221 -12.51029,3.57488 -26.600573,1.48783 -37.343973,-5.92574 -6.379,-4.34388 -11.628758,-10.358563 -14.985648,-17.314186 0.377448,3.743535 1.283252,7.419032 2.671154,10.89856 7.113978,13.285936 21.10866,22.255486 37.332088,22.255486 16.257783,0 30.2782,-9.00786 37.378597,-22.340236 0.18064,-0.457372 0.35222,-0.918093 0.51521,-1.382344 1.07837,-3.052718 1.7859,-6.193866 2.11667,-9.437667 z"
         transform="translate(-6.9000001e-6,0.00693911)"
         inkscape:label="highlight" />
      <path
         style="baseline-shift:baseline;display:inline;overflow:visible;mix-blend-mode:normal;vector-effect:none;fill:url(#linearGradient28);stroke:none;stroke-width:1.05668;stroke-linecap:round;stroke-linejoin:round;stroke-miterlimit:12;paint-order:markers stroke fill;filter:url(#filter30);enable-background:accumulate;stop-color:#000000"
         d="m 222.14062,-3.8554688 c -35.52127,0 -64.55664,29.0373188 -64.55664,64.5585938 0,35.521276 29.03537,64.558595 64.55664,64.558595 35.52128,0 64.5586,-29.037319 64.5586,-64.558595 0,-35.521275 -29.03732,-64.5585938 -64.5586,-64.5585938 z m 0,2.1171876 c 34.36819,0 62.44336,28.0732272 62.44336,62.4414062 0,34.36818 -28.07517,62.441405 -62.44336,62.441405 -34.36818,0 -62.4414,-28.073225 -62.4414,-62.441405 0,-34.368179 28.07322,-62.4414062 62.4414,-62.4414062 z"
         id="path22"
         sodipodi:nodetypes="ssssssssss"
         clip-path="url(#clipPath29)"
         transform="translate(-154.40827,7.0302069)" />
      <path
         style="baseline-shift:baseline;display:inline;overflow:visible;mix-blend-mode:overlay;vector-effect:none;fill:url(#linearGradient26);stroke:none;stroke-width:1.05668;stroke-linecap:round;stroke-linejoin:round;stroke-miterlimit:12;paint-order:markers stroke fill;filter:url(#filter31);enable-background:accumulate;stop-color:#000000"
         d="m 372.5306,-9.092991 c -24.07051,0 -43.38867,19.3201 -43.38867,43.39062 0,24.07053 19.31809,43.39257 43.38867,43.39257 24.07059,0 43.39259,-19.32198 43.39259,-43.39257 0,-24.07058 -19.32205,-43.39062 -43.39259,-43.39062 z m 0,2.11718 c 22.9403,0 41.27736,18.3332 41.27736,41.27344 0,22.94024 -18.33711,41.27539 -41.27736,41.27539 -22.94022,0 -41.27343,-18.33509 -41.27343,-41.27539 0,-22.94029 18.33314,-41.27343 41.27343,-41.27344 z"
         id="path24"
         sodipodi:nodetypes="ssssssssss"
         clip-path="url(#clipPath28)"
         transform="translate(-304.79923,33.434728)" />
    </g>
    <path
       style="display:inline;fill:none;stroke:#ffffff;stroke-width:1.05833;stroke-linecap:butt;stroke-linejoin:miter;stroke-dasharray:none;stroke-opacity:1"
       d="m 60.903027,8.6395336 c -4.623215,-0.4282213 -4.988078,-3.437554 -8.889131,-6.0775592 -3.901055,-2.64000496 -8.724179,-1.5197223 -12.847642,0 -4.123464,1.5197235 -7.064589,6.5103445 -7.280627,10.7413286 -0.216037,4.230984 0.371184,4.75477 -1.076933,7.88195"
       id="path32"
       sodipodi:nodetypes="czzzc"
       inkscape:transform-center-x="18.949088"
       inkscape:transform-center-y="-49.069987" />
    <path
       style="display:inline;fill:none;stroke:#ffffff;stroke-width:1.05833;stroke-linecap:butt;stroke-linejoin:miter;stroke-dasharray:none;stroke-opacity:1"
       d="m 30.77749,114.35014 c 2.966308,3.5719 1.096386,5.95782 1.988081,10.58304 0.891697,4.62523 5.094321,7.24354 9.084655,9.08466 3.990337,1.84112 9.598928,0.39191 12.743447,-2.44708 3.144519,-2.839 3.099663,-3.6246 6.334887,-4.81188"
       id="path45"
       sodipodi:nodetypes="czzzc"
       inkscape:transform-center-x="18.951544"
       inkscape:transform-center-y="49.248479" />
    <path
       id="path10"
       style="baseline-shift:baseline;display:inline;overflow:visible;opacity:0.6;mix-blend-mode:multiply;vector-effect:none;fill:#000000;fill-opacity:1;stroke-width:1.05668;stroke-linecap:round;stroke-linejoin:round;stroke-miterlimit:12;paint-order:markers stroke fill;filter:url(#filter13);enable-background:accumulate;stop-color:#000000"
       d="m 67.733334,14.817308 c -23.505411,0 -42.331781,18.826372 -42.331781,42.331783 0,1.793208 0.1096,3.55918 0.32246,5.291666 2.577331,-20.976723 20.297118,-37.040116 42.009321,-37.040116 21.712203,0 39.434316,16.063393 42.011906,37.040116 0.21288,-1.732486 0.32246,-3.498458 0.32246,-5.291666 0,-23.505411 -18.828955,-42.331783 -42.334366,-42.331783 z M 4.4534725,62.440757 c -0.14549,1.745325 -0.22014,3.510194 -0.22014,5.291667 0,34.944726 28.5552745,63.499996 63.5000015,63.499996 34.944726,0 63.499996,-28.55527 63.499996,-63.499996 0,-1.781473 -0.0741,-3.546342 -0.21962,-5.291667 -2.70839,32.490323 -30.11712,58.208333 -63.280376,58.208333 -33.163253,0 -60.5714715,-25.71801 -63.2798615,-58.208333 z"
       clip-path="url(#clipPath72)"
       transform="matrix(0.94635346,0,0,0.94635346,3.634833,3.6286605)"
       inkscape:label="shadow" />
    <g
       id="g11"
       style="display:inline;stroke-width:1.05668"
       transform="matrix(0.94635346,0,0,0.94635346,3.634833,3.6286605)">
      <g
         id="g72"
         transform="matrix(1.2200049,0,0,1.2200049,-14.901671,-14.901667)"
         style="display:inline;stroke-width:1.05668">
        <path
           style="fill:none;stroke:#ffffff;stroke-width:0.916656;stroke-linecap:round;stroke-linejoin:miter;stroke-dasharray:none;stroke-opacity:1"
           d="m 61.816359,16.554519 c -4.004323,-0.370897 -4.320343,-2.977382 -7.699178,-5.26398 -3.378836,-2.2865978 -7.556307,-1.316283 -11.127778,0 -3.571472,1.316284 -6.11888,5.63883 -6.305998,9.303429 -0.187117,3.664598 0.321495,4.118267 -0.932768,6.826824"
           id="path46"
           sodipodi:nodetypes="czzzc"
           inkscape:transform-center-x="18.949088"
           inkscape:transform-center-y="-49.069987" />
        <path
           style="fill:none;stroke:#ffffff;stroke-width:0.916656;stroke-linecap:round;stroke-linejoin:miter;stroke-dasharray:none;stroke-opacity:1"
           d="m 35.72361,108.11406 c 2.56922,3.09374 0.949617,5.16027 1.721945,9.16633 0.772329,4.00607 4.412364,6.27387 7.868527,7.86853 3.456166,1.59466 8.313957,0.33945 11.037532,-2.1195 2.723574,-2.45895 2.684723,-3.13939 5.48686,-4.16773"
           id="path47"
           sodipodi:nodetypes="czzzc"
           inkscape:transform-center-x="18.951544"
           inkscape:transform-center-y="49.248479" />
        <path
           style="fill:none;stroke:#ffffff;stroke-width:0.916656;stroke-linecap:round;stroke-linejoin:miter;stroke-dasharray:none;stroke-opacity:1"
           d="m 99.741561,27.36249 c -2.56922,-3.093748 -0.949617,-5.160271 -1.721945,-9.166337 -0.772329,-4.006067 -4.412364,-6.273869 -7.868527,-7.868528 -3.456166,-1.5946583 -8.313957,-0.3394462 -11.037532,2.119504 -2.723574,2.458951 -2.684723,3.139386 -5.48686,4.167727"
           id="path49"
           sodipodi:nodetypes="czzzc"
           inkscape:transform-center-x="-18.951544"
           inkscape:transform-center-y="-49.248476" />
        <path
           style="fill:none;stroke:#ffffff;stroke-width:0.916656;stroke-linecap:round;stroke-linejoin:miter;stroke-dasharray:none;stroke-opacity:1"
           d="m 16.548829,73.654502 c -0.370892,4.004318 -2.977382,4.320343 -5.263975,7.699173 -2.2866006,3.378839 -1.3162839,7.556309 -3e-6,11.12778 1.316284,3.571473 5.638828,6.118883 9.303427,6.306001 3.664598,0.187117 4.11827,-0.321498 6.826826,0.932766"
           id="path50"
           sodipodi:nodetypes="czzzc"
           inkscape:transform-center-x="49.069987"
           inkscape:transform-center-y="18.94909" />
        <path
           style="fill:none;stroke:#ffffff;stroke-width:0.916656;stroke-linecap:round;stroke-linejoin:miter;stroke-dasharray:none;stroke-opacity:1"
           d="m 118.91634,61.822046 c 0.3709,-4.004323 2.97738,-4.320343 5.26398,-7.699178 2.2866,-3.378836 1.31628,-7.556307 0,-11.127778 -1.31628,-3.571472 -5.63883,-6.11888 -9.30343,-6.305998 -3.6646,-0.187117 -4.11827,0.321495 -6.82682,-0.932768"
           id="path51"
           sodipodi:nodetypes="czzzc"
           inkscape:transform-center-x="-49.069989"
           inkscape:transform-center-y="-18.949088" />
        <path
           style="fill:none;stroke:#ffffff;stroke-width:0.916656;stroke-linecap:round;stroke-linejoin:miter;stroke-dasharray:none;stroke-opacity:1"
           d="m 27.356798,35.729297 c -3.09374,2.56922 -5.16027,0.949617 -9.166329,1.721945 -4.006071,0.772329 -6.273871,4.412364 -7.868531,7.868527 -1.5946597,3.456166 -0.3394504,8.313957 2.1195,11.037532 2.45895,2.723574 3.13939,2.684723 4.16773,5.48686"
           id="path52"
           sodipodi:nodetypes="czzzc"
           inkscape:transform-center-x="49.248479"
           inkscape:transform-center-y="-18.951544" />
        <path
           style="fill:none;stroke:#ffffff;stroke-width:0.916656;stroke-linecap:round;stroke-linejoin:miter;stroke-dasharray:none;stroke-opacity:1"
           d="m 108.10837,99.747248 c 3.09375,-2.569218 5.16027,-0.949618 9.16634,-1.721945 4.00606,-0.772327 6.27386,-4.412365 7.86852,-7.868527 1.59467,-3.456163 0.33945,-8.313957 -2.1195,-11.037533 -2.45895,-2.723575 -3.13939,-2.684725 -4.16773,-5.486857"
           id="path53"
           sodipodi:nodetypes="czzzc"
           inkscape:transform-center-x="-49.248478"
           inkscape:transform-center-y="18.951545" />
        <path
           style="fill:none;stroke:#ffffff;stroke-width:0.916656;stroke-linecap:round;stroke-linejoin:miter;stroke-dasharray:none;stroke-opacity:1"
           d="m 73.648813,118.92203 c 4.004323,0.3709 4.320343,2.97738 7.69918,5.26398 3.37883,2.28659 7.556302,1.31627 11.127773,-10e-6 3.571478,-1.31627 6.118883,-5.63882 6.306002,-9.30342 0.187118,-3.6646 -0.321497,-4.11827 0.932763,-6.82683"
           id="path55"
           sodipodi:nodetypes="czzzc"
           inkscape:transform-center-x="-18.949087"
           inkscape:transform-center-y="49.069983" />
        <path
           id="path82"
           style="baseline-shift:baseline;display:inline;overflow:visible;opacity:0.24;vector-effect:none;fill:url(#linearGradient91);stroke-width:1.05668;stroke-linecap:round;enable-background:accumulate;stop-color:#000000;stop-opacity:1"
           d="m 86.218512,9.079549 c -2.757107,0.1067692 -5.562813,1.263081 -7.458977,2.975012 -1.380737,1.246583 -2.072002,2.047439 -2.712496,2.617412 -0.640494,0.569973 -1.237019,0.944496 -2.601908,1.445389 a 0.52916503,0.52916503 0 0 0 -0.314193,0.679546 0.52916503,0.52916503 0 0 0 0.677478,0.314192 c 1.437248,-0.527448 2.221982,-1.005894 2.94349,-1.647961 0.721508,-0.642068 1.373792,-1.410729 2.71663,-2.623096 2.557758,-2.309244 7.2724,-3.5027794 10.461377,-2.031401 3.411208,1.573917 6.84923,3.749384 7.570081,7.488432 0.369946,1.918913 0.164458,3.368886 0.177767,4.82968 0.01331,1.460794 0.299709,2.940931 1.65623,4.574398 a 0.52916503,0.52916503 0 0 0 0.746209,0.06821 0.52916503,0.52916503 0 0 0 0.0682,-0.744141 c -1.2127,-1.460282 -1.399523,-2.560868 -1.411799,-3.908289 -0.01228,-1.34742 0.204978,-2.934246 -0.197404,-5.021399 C 97.71536,13.82245 93.874415,11.462862 90.373297,9.8474608 89.442458,9.4179763 88.432263,9.1771055 87.394667,9.0997028 87.005569,9.0706768 86.612384,9.0642963 86.218512,9.079549 Z m -37.60339,0.3286621 c -1.99909,0.1236321 -3.999469,0.7197769 -5.808432,1.3864789 -3.847575,1.418043 -6.453797,5.88379 -6.652307,9.771497 -0.09486,1.857796 -0.01474,2.913866 -0.0646,3.769795 -0.04987,0.85593 -0.209168,1.544085 -0.820105,2.863392 a 0.52916503,0.52916503 0 0 0 0.257865,0.701249 0.52916503,0.52916503 0 0 0 0.702799,-0.257866 c 0.643326,-1.38925 0.857984,-2.282119 0.914157,-3.246313 0.05617,-0.964193 -0.0256,-1.968678 0.06666,-3.77548 0.175726,-3.441491 2.665508,-7.619562 5.960877,-8.834087 3.525016,-1.299161 7.494822,-2.1925854 10.648446,-0.05839 1.618468,1.095284 2.498521,2.265679 3.540869,3.289205 1.042349,1.023527 2.292208,1.868644 4.406449,2.064474 A 0.52916503,0.52916503 0 0 0 62.344,16.603638 0.52916503,0.52916503 0 0 0 61.865476,16.027446 C 59.975394,15.852379 59.064882,15.207819 58.103431,14.263729 57.14198,13.319639 56.174619,12.042847 54.414251,10.851534 52.612228,9.6320296 50.614213,9.284579 48.615122,9.4082111 Z M 27.336833,35.200953 a 0.52916503,0.52916503 0 0 0 -0.317293,0.121439 c -1.460277,1.212698 -2.560868,1.399524 -3.908289,1.4118 -1.34742,0.01228 -2.934249,-0.204978 -5.021399,0.197404 -4.27309,0.823807 -6.632673,4.664792 -8.2480753,8.16591 -1.7179394,3.723355 -0.4015562,8.723853 2.2071003,11.613245 1.246583,1.380737 2.04692,2.072519 2.616895,2.713013 0.569974,0.640494 0.946565,1.23857 1.447457,2.603459 a 0.52916503,0.52916503 0 0 0 0.677994,0.314709 0.52916503,0.52916503 0 0 0 0.314193,-0.680062 C 16.577968,60.224622 16.099006,59.440405 15.456938,58.718897 14.81487,57.997389 14.046209,57.344589 12.833842,56.001751 10.524598,53.443993 9.3315787,48.729867 10.802958,45.54089 c 1.573918,-3.411209 3.748863,-6.84923 7.487916,-7.570081 1.918909,-0.369946 3.369402,-0.164457 4.830196,-0.177766 1.460794,-0.01331 2.940935,-0.299708 4.574398,-1.65623 a 0.52916503,0.52916503 0 0 0 0.06821,-0.746208 0.52916503,0.52916503 0 0 0 -0.426848,-0.189652 z m 80.734097,0.02636 a 0.52916503,0.52916503 0 0 0 -0.50075,0.305924 0.52916503,0.52916503 0 0 0 0.25787,0.703316 c 1.38924,0.643326 2.28212,0.857466 3.24631,0.91364 0.96419,0.05617 1.96868,-0.0256 3.77548,0.06666 3.44149,0.175726 7.61905,2.665509 8.83357,5.960877 1.29916,3.525017 2.1931,7.494821 0.0589,10.648446 -1.09529,1.618468 -2.26568,2.498521 -3.2892,3.540869 -1.02353,1.042349 -1.86865,2.292209 -2.06448,4.406449 a 0.52916503,0.52916503 0 0 0 0.47853,0.576193 0.52916503,0.52916503 0 0 0 0.57619,-0.478524 c 0.17507,-1.890082 0.81962,-2.800077 1.76371,-3.761528 0.94409,-0.961451 2.22089,-1.92933 3.4122,-3.689697 2.43901,-3.604048 1.39179,-7.989635 0.0584,-11.60756 -1.41803,-3.847576 -5.88585,-6.453798 -9.77356,-6.652308 -1.8578,-0.09486 -2.91335,-0.01628 -3.76928,-0.06615 -0.85593,-0.04987 -1.54408,-0.207617 -2.86339,-0.818554 a 0.52916503,0.52916503 0 0 0 -0.2005,-0.04806 z m 10.80709,37.875208 a 0.52916503,0.52916503 0 0 0 -0.20412,0.03204 0.52916503,0.52916503 0 0 0 -0.31471,0.680062 c 0.52744,1.437246 1.0064,2.221466 1.64847,2.942973 0.64207,0.721508 1.41073,1.374309 2.6231,2.717147 2.30924,2.55776 3.50279,7.271887 2.0314,10.46086 -1.57392,3.411207 -3.74939,6.849233 -7.48843,7.570081 -1.91892,0.369946 -3.36941,0.164457 -4.8302,0.177767 -1.46079,0.01331 -2.94041,0.299709 -4.57388,1.65623 a 0.52916503,0.52916503 0 0 0 -0.0687,0.746209 0.52916503,0.52916503 0 0 0 0.74621,0.0682 c 1.46028,-1.21271 2.55879,-1.399532 3.90622,-1.411809 1.34742,-0.01228 2.93424,0.204977 5.0214,-0.197404 4.27308,-0.823806 6.63267,-4.664793 8.24808,-8.16591 1.71795,-3.723353 0.40155,-8.725919 -2.2071,-11.615312 -1.24659,-1.380737 -2.04693,-2.07045 -2.6169,-2.710945 -0.56998,-0.640494 -0.9445,-1.238573 -1.44539,-2.603459 a 0.52916503,0.52916503 0 0 0 -0.47542,-0.346749 z m -102.34983,0.02274 a 0.52916503,0.52916503 0 0 0 -0.506945,0.480074 c -0.175064,1.890079 -0.819111,2.800594 -1.7632,3.762044 -0.94409,0.961451 -2.220884,1.928816 -3.412195,3.689181 -2.4390104,3.60405 -1.3902467,7.989635 -0.05684,11.60756 1.418043,3.847576 5.883789,6.453797 9.771497,6.652307 1.857795,0.09486 2.913865,0.01628 3.769795,0.06615 0.855931,0.04987 1.543569,0.207619 2.862875,0.818553 a 0.52916503,0.52916503 0 0 0 0.701249,-0.257863 0.52916503,0.52916503 0 0 0 -0.257865,-0.7028 C 26.247307,98.59713 25.354954,98.382472 24.39076,98.3263 c -0.964194,-0.05617 -1.968677,0.0256 -3.77548,-0.06666 -3.44149,-0.175726 -7.619562,-2.665506 -8.834087,-5.960876 -1.29916,-3.525016 -2.1925887,-7.494819 -0.05839,-10.648446 1.095282,-1.618466 2.267228,-2.49852 3.290755,-3.540869 1.023526,-1.042349 1.86658,-2.292211 2.062407,-4.40645 a 0.52916503,0.52916503 0 0 0 -0.478524,-0.576192 0.52916503,0.52916503 0 0 0 -0.06925,-0.0016 z m 83.207843,34.401519 a 0.52916503,0.52916503 0 0 0 -0.204638,0.0315 v 5.2e-4 a 0.52916503,0.52916503 0 0 0 -0.29714,0.27492 c -0.643324,1.38926 -0.857983,2.28211 -0.914156,3.24631 -0.05617,0.96419 0.02611,1.96868 -0.06615,3.77548 -0.175727,3.44149 -2.665503,7.61958 -5.960876,8.83409 -3.525017,1.29916 -7.494828,2.19257 -10.648446,0.0584 -1.618469,-1.09529 -2.498521,-2.26567 -3.540869,-3.2892 -1.042349,-1.02352 -2.29221,-1.86864 -4.40645,-2.06447 a 0.52916503,0.52916503 0 0 0 -0.576192,0.47852 0.52916503,0.52916503 0 0 0 0.478524,0.57619 c 1.890083,0.17507 2.800076,0.81963 3.761527,1.76372 0.961451,0.94409 1.92933,2.22088 3.689698,3.41219 3.604042,2.439 7.989635,1.39029 11.60756,0.0568 3.847583,-1.41803 6.453796,-5.8838 6.652307,-9.7715 0.09486,-1.8578 0.01628,-2.91386 0.06615,-3.76979 0.04986,-0.85594 0.207622,-1.54409 0.818558,-2.8634 a 0.52916503,0.52916503 0 0 0 -0.257869,-0.70073 0.52916503,0.52916503 0 0 0 -0.201538,-0.0496 z m -64.033819,0.0594 a 0.52916503,0.52916503 0 0 0 -0.317293,0.12092 0.52916503,0.52916503 0 0 0 -0.06873,0.74414 c 1.212698,1.46028 1.40004,2.56086 1.412317,3.90829 0.01228,1.34742 -0.204977,2.93425 0.197404,5.0214 0.823808,4.27309 4.664792,6.63267 8.16591,8.24808 3.723355,1.71794 8.72592,0.40155 11.615312,-2.2071 1.380737,-1.24659 2.070451,-2.04745 2.710946,-2.61742 0.640494,-0.56998 1.238571,-0.94449 2.603459,-1.44538 a 0.52916503,0.52916503 0 0 0 0.314192,-0.67955 0.52916503,0.52916503 0 0 0 -0.679545,-0.31419 c -1.437248,0.52745 -2.221981,1.00641 -2.943489,1.64848 -0.721508,0.64207 -1.373794,1.41072 -2.716631,2.62309 -2.557758,2.30924 -7.271882,3.50227 -10.46086,2.03089 -3.411208,-1.57392 -6.849747,-3.74887 -7.570597,-7.48792 -0.369947,-1.91891 -0.163941,-3.36941 -0.177251,-4.8302 -0.01331,-1.46079 -0.300224,-2.94093 -1.656746,-4.57439 a 0.52916503,0.52916503 0 0 0 -0.359151,-0.18759 0.52916503,0.52916503 0 0 0 -0.06925,-0.002 z" />
      </g>
      <path
         id="path56"
         style="display:inline;opacity:0.2;mix-blend-mode:normal;fill:#000000;fill-opacity:1;stroke-width:22.3666;stroke-linecap:round;stroke-linejoin:round;stroke-miterlimit:12;paint-order:markers stroke fill;filter:url(#filter64)"
         inkscape:transform-center-x="-1.0000001e-06"
         inkscape:transform-center-y="-52.715314"
         d="m 67.733329,3.7326916 c -5.007017,0 -7.21871,0.6619778 -7.21871,0.6619778 V 26.303612 c 0,0 3.07271,-0.662608 7.21871,-0.662608 4.146,0 7.21871,0.662608 7.21871,0.662608 V 4.3946694 c 0,0 -2.211693,-0.6619778 -7.21871,-0.6619778 z M 28.050599,17.841645 c 0,0 -2.032092,1.09587 -5.572592,4.636366 -3.54049,3.540495 -4.636366,5.572592 -4.636366,5.572592 l 15.492171,15.492171 c 0,0 1.704069,-2.641558 4.635736,-5.573222 2.931664,-2.931665 5.573222,-4.635736 5.573222,-4.635736 z m 79.365461,0 -15.492171,15.492171 c 0,0 2.641558,1.704071 5.573222,4.635736 2.931669,2.931665 4.635739,5.573222 4.635739,5.573222 l 15.49217,-15.492171 c 0,0 -1.09588,-2.032096 -4.63637,-5.572592 -3.5405,-3.540495 -5.57259,-4.636366 -5.57259,-4.636366 z M 4.3946657,60.514623 c 0,0 -0.6619777,2.211693 -0.6619777,7.21871 0,5.007017 0.6619777,7.21871 0.6619777,7.21871 H 26.303608 c 0,0 -0.662608,-3.07271 -0.662608,-7.21871 0,-4.146 0.662608,-7.21871 0.662608,-7.21871 z M 109.19583,60.70376 c 0,0 0.6481,3.075906 0.6292,7.221862 -0.0189,4.145957 -0.69539,7.215558 -0.69539,7.215558 l 21.90831,0.09961 c 0,0 0.67249,-2.208592 0.69539,-7.215557 0.0229,-5.006965 -0.62919,-7.221232 -0.62919,-7.221232 z M 33.333812,91.923892 17.841641,107.41606 c 0,0 1.09587,2.0321 4.636366,5.5726 3.540495,3.54049 5.572592,4.63636 5.572592,4.63636 L 43.54277,102.13285 c 0,0 -2.641558,-1.70407 -5.573222,-4.635735 -2.931665,-2.931664 -4.635736,-5.573223 -4.635736,-5.573223 z m 68.799038,0 c 0,0 -1.70407,2.641559 -4.635739,5.573223 -2.931665,2.931665 -5.573222,4.635735 -5.573222,4.635735 l 15.492171,15.49217 c 0,0 2.03209,-1.09587 5.57259,-4.63636 3.54049,-3.5405 4.63637,-5.5726 4.63637,-5.5726 z M 60.514619,109.16305 V 131.072 c 0,0 2.211693,0.66197 7.21871,0.66197 5.007017,0 7.21871,-0.66197 7.21871,-0.66197 v -21.90895 c 0,0 -3.07271,0.66261 -7.21871,0.66261 -4.146,0 -7.21871,-0.66261 -7.21871,-0.66261 z"
         clip-path="url(#clipPath63)"
         inkscape:label="shadow" />
      <path
         id="rect2"
         style="display:inline;fill:#ffffff;stroke-width:22.3666;stroke-linecap:round;stroke-linejoin:round;stroke-miterlimit:12;paint-order:markers stroke fill"
         d="m 60.514593,4.3948956 c 0,0 2.211723,-0.6624106 7.21874,-0.6624106 5.007017,0 7.218741,0.6624106 7.218741,0.6624106 V 26.303555 c 0,0 -3.072741,-0.662411 -7.218741,-0.662411 -4.146,0 -7.21874,0.662411 -7.21874,0.662411 z"
         sodipodi:nodetypes="czcczcc"
         inkscape:transform-center-x="-1.0000001e-06"
         inkscape:transform-center-y="-52.715314" />
      <path
         id="path2"
         style="fill:#ffffff;stroke-width:22.3666;stroke-linecap:round;stroke-linejoin:round;stroke-miterlimit:12;paint-order:markers stroke fill"
         d="m 74.952072,131.07177 c 0,0 -2.211723,0.66241 -7.21874,0.66241 -5.007017,0 -7.218741,-0.66241 -7.218741,-0.66241 v -21.90866 c 0,0 3.072741,0.66241 7.218741,0.66241 4.146,0 7.21874,-0.66241 7.21874,-0.66241 z"
         sodipodi:nodetypes="czcczcc"
         inkscape:transform-center-y="52.715315" />
      <path
         id="path4"
         style="fill:#ffffff;stroke-width:22.3666;stroke-linecap:round;stroke-linejoin:round;stroke-miterlimit:12;paint-order:markers stroke fill"
         d="m 131.10406,60.803742 c 0,0 0.6523,2.214723 0.62945,7.221688 -0.0229,5.006965 -0.69535,7.215643 -0.69535,7.215643 l -21.90843,-0.09999 c 0,0 0.67643,-3.069686 0.69535,-7.215643 0.0189,-4.145956 -0.62946,-7.221688 -0.62946,-7.221688 z"
         sodipodi:nodetypes="czcczcc"
         inkscape:transform-center-y="0.23908057"
         inkscape:transform-center-x="-52.698584" />
      <path
         id="path5"
         style="fill:#ffffff;stroke-width:22.3666;stroke-linecap:round;stroke-linejoin:round;stroke-miterlimit:12;paint-order:markers stroke fill"
         d="m 4.3948934,74.952072 c 0,0 -0.66241,-2.211723 -0.66241,-7.21874 0,-5.007017 0.66241,-7.218741 0.66241,-7.218741 H 26.303553 c 0,0 -0.66241,3.072741 -0.66241,7.218741 0,4.146 0.66241,7.21874 0.66241,7.21874 z"
         sodipodi:nodetypes="czcczcc"
         inkscape:transform-center-x="52.715315" />
      <path
         id="path6"
         style="fill:#ffffff;stroke-width:22.3666;stroke-linecap:round;stroke-linejoin:round;stroke-miterlimit:12;paint-order:markers stroke fill"
         d="m 107.41595,17.841874 c 0,0 2.03232,1.09553 5.57282,4.636025 3.54049,3.540496 4.63602,5.572816 4.63602,5.572816 l -15.49176,15.491762 c 0,0 -1.70436,-2.641151 -4.636026,-5.572816 -2.931664,-2.931665 -5.572815,-4.636025 -5.572815,-4.636025 z"
         sodipodi:nodetypes="czcczcc"
         inkscape:transform-center-x="-37.041158"
         inkscape:transform-center-y="-37.041158" />
      <path
         id="path7"
         style="fill:#ffffff;stroke-width:22.3666;stroke-linecap:round;stroke-linejoin:round;stroke-miterlimit:12;paint-order:markers stroke fill"
         d="m 28.050713,117.62479 c 0,0 -2.032319,-1.09553 -5.572814,-4.63602 -3.540496,-3.5405 -4.636027,-5.57282 -4.636027,-5.57282 L 33.333635,91.924188 c 0,0 1.704361,2.641151 4.636026,5.572815 2.931664,2.931667 5.572814,4.636027 5.572814,4.636027 z"
         sodipodi:nodetypes="czcczcc"
         inkscape:transform-center-y="37.041159"
         inkscape:transform-center-x="37.04116" />
      <path
         id="path8"
         style="fill:#ffffff;stroke-width:22.3666;stroke-linecap:round;stroke-linejoin:round;stroke-miterlimit:12;paint-order:markers stroke fill"
         d="m 117.62479,107.41595 c 0,0 -1.09553,2.03232 -4.63602,5.57282 -3.5405,3.54049 -5.57282,4.63602 -5.57282,4.63602 L 91.924188,102.13303 c 0,0 2.641151,-1.70436 5.572816,-4.636027 2.931666,-2.931664 4.636026,-5.572815 4.636026,-5.572815 z"
         sodipodi:nodetypes="czcczcc"
         inkscape:transform-center-x="-37.041158"
         inkscape:transform-center-y="37.041158" />
      <path
         id="path9"
         style="fill:#ffffff;stroke-width:22.3666;stroke-linecap:round;stroke-linejoin:round;stroke-miterlimit:12;paint-order:markers stroke fill"
         d="m 17.841875,28.050712 c 0,0 1.09553,-2.032319 4.63602,-5.572814 3.5405,-3.540496 5.57282,-4.636027 5.57282,-4.636027 l 15.491762,15.491763 c 0,0 -2.641151,1.704361 -5.572815,4.636026 -2.931667,2.931664 -4.636027,5.572814 -4.636027,5.572814 z"
         sodipodi:nodetypes="czcczcc"
         inkscape:transform-center-y="-37.04116"
         inkscape:transform-center-x="37.041159" />
    </g>
    <path
       id="path73"
       style="baseline-shift:baseline;display:inline;overflow:visible;opacity:0.6;mix-blend-mode:multiply;vector-effect:none;fill:#000000;fill-opacity:1;stroke-width:1.05668;stroke-linecap:round;stroke-linejoin:round;stroke-miterlimit:12;paint-order:markers stroke fill;filter:url(#filter13);enable-background:accumulate;stop-color:#000000"
       d="m 67.733334,14.817308 c -23.505411,0 -42.331781,18.826372 -42.331781,42.331783 0,1.793208 0.1096,3.55918 0.32246,5.291666 2.577331,-20.976723 20.297118,-37.040116 42.009321,-37.040116 21.712203,0 39.434316,16.063393 42.011906,37.040116 0.21288,-1.732486 0.32246,-3.498458 0.32246,-5.291666 0,-23.505411 -18.828955,-42.331783 -42.334366,-42.331783 z M 4.4534725,62.440757 c -0.14549,1.745325 -0.22014,3.510194 -0.22014,5.291667 0,34.944726 28.5552745,63.499996 63.5000015,63.499996 34.944726,0 63.499996,-28.55527 63.499996,-63.499996 0,-1.781473 -0.0741,-3.546342 -0.21962,-5.291667 -2.70839,32.490323 -30.11712,58.208333 -63.280376,58.208333 -33.163253,0 -60.5714715,-25.71801 -63.2798615,-58.208333 z"
       clip-path="url(#clipPath81)"
       transform="matrix(0.94635346,0,0,0.94635346,3.634833,3.6286605)"
       inkscape:label="shadow" />
  </g>
</svg>
