/* XPM */
static char * pin_xpm[] = {
"12 12 3 1",
" 	c #7B8C32",
".	c #000000",
"+	c #AAC593",
"   ......   ",
"    .+..    ",
"    .+..    ",
"    .+..    ",
"    .+..    ",
"    .+..    ",
"  ........  ",
"  ........  ",
"     ..     ",
"     ..     ",
"     ..     ",
"     ..     "};
