<?xml version="1.0" encoding="UTF-8" standalone="no"?>
<!-- Created with Inkscape (http://www.inkscape.org/) -->

<svg
   width="512"
   height="512"
   viewBox="0 0 135.46666 135.46667"
   version="1.1"
   id="svg5"
   inkscape:version="1.4 (e7c3feb100, 2024-10-09)"
   sodipodi:docname="barony.svg"
   xml:space="preserve"
   xmlns:inkscape="http://www.inkscape.org/namespaces/inkscape"
   xmlns:sodipodi="http://sodipodi.sourceforge.net/DTD/sodipodi-0.dtd"
   xmlns:xlink="http://www.w3.org/1999/xlink"
   xmlns="http://www.w3.org/2000/svg"
   xmlns:svg="http://www.w3.org/2000/svg"><sodipodi:namedview
     id="namedview7"
     pagecolor="#242424"
     bordercolor="#666666"
     borderopacity="1"
     inkscape:showpageshadow="0"
     inkscape:pageopacity="0"
     inkscape:pagecheckerboard="1"
     inkscape:deskcolor="#000000"
     inkscape:document-units="px"
     showgrid="false"
     inkscape:zoom="2.0000001"
     inkscape:cx="306.99999"
     inkscape:cy="259.74999"
     inkscape:window-width="3233"
     inkscape:window-height="1080"
     inkscape:window-x="1887"
     inkscape:window-y="0"
     inkscape:window-maximized="0"
     inkscape:current-layer="layer1" /><defs
     id="defs2"><inkscape:path-effect
       effect="fillet_chamfer"
       id="path-effect8"
       is_visible="true"
       lpeversion="1"
       nodesatellites_param="F,0,0,1,0,0,0,1 @ F,0,0,1,0,2.3812499,0,1 @ F,0,0,1,0,0,0,1 @ F,0,0,1,0,0,0,1 @ F,0,1,1,0,3.4395832,0,1 @ F,0,0,1,0,0,0,1 @ F,0,0,1,0,0,0,1 @ F,0,0,1,0,0,0,1 @ F,0,0,1,0,0,0,1 @ F,0,0,1,0,0,0,1 @ F,0,0,1,0,0,0,1 @ F,0,0,1,0,0,0,1 @ F,0,0,1,0,0,0,1 @ F,0,0,1,0,0,0,1 @ F,0,0,1,0,0,0,1 @ F,0,0,1,0,0,0,1 @ F,0,0,1,0,0,0,1 @ F,0,0,1,0,0,0,1 @ F,0,0,1,0,0,0,1 @ F,0,0,1,0,0,0,1 | F,0,0,1,0,0,0,1 @ F,0,0,1,0,0,0,1 @ F,0,0,1,0,0,0,1 @ F,0,0,1,0,0,0,1 @ F,0,0,1,0,0,0,1 @ F,0,0,1,0,0,0,1 @ F,0,0,1,0,0,0,1 @ F,0,0,1,0,0,0,1 @ F,0,0,1,0,0,0,1 @ F,0,0,1,0,0,0,1 @ F,0,0,1,0,0,0,1 @ F,0,0,1,0,0,0,1 @ F,0,0,1,0,0,0,1 @ F,0,0,1,0,0,0,1 @ F,0,0,1,0,0,0,1 @ F,0,0,1,0,0,0,1 | F,0,0,1,0,0,0,1 @ F,0,0,1,0,0,0,1 @ F,0,0,1,0,0,0,1 @ F,0,0,1,0,0,0,1 | F,0,0,1,0,0,0,1 @ F,0,0,1,0,0,0,1 @ F,0,0,1,0,0,0,1 @ F,0,0,1,0,0,0,1 | F,0,0,1,0,0,0,1 @ F,0,0,1,0,0,0,1 @ F,0,0,1,0,0,0,1 @ F,0,0,1,0,0,0,1 @ F,0,0,1,0,0,0,1 @ F,0,0,1,0,0,0,1 @ F,0,0,1,0,0,0,1 @ F,0,0,1,0,0,0,1 @ F,0,0,1,0,0,0,1"
       radius="13"
       unit="px"
       method="auto"
       mode="F"
       chamfer_steps="1"
       flexible="false"
       use_knot_distance="true"
       apply_no_radius="true"
       apply_with_radius="true"
       only_selected="true"
       hide_knots="false" /><inkscape:path-effect
       effect="fillet_chamfer"
       id="path-effect7"
       is_visible="true"
       lpeversion="1"
       nodesatellites_param="F,0,0,1,0,0,0,1 @ F,0,0,1,0,0,0,1 @ F,0,0,1,0,0,0,1 @ F,0,0,1,0,0,0,1 @ F,0,0,1,0,0,0,1 @ F,0,0,1,0,0,0,1"
       radius="0"
       unit="px"
       method="auto"
       mode="F"
       chamfer_steps="1"
       flexible="false"
       use_knot_distance="true"
       apply_no_radius="true"
       apply_with_radius="true"
       only_selected="true"
       hide_knots="false" /><linearGradient
       id="linearGradient6"
       inkscape:collect="always"><stop
         style="stop-color:#aa0000;stop-opacity:0;"
         offset="0"
         id="stop7" /><stop
         style="stop-color:#aa0000;stop-opacity:1;"
         offset="1"
         id="stop6" /></linearGradient><inkscape:path-effect
       effect="fillet_chamfer"
       id="path-effect14"
       is_visible="true"
       lpeversion="1"
       nodesatellites_param="F,0,0,1,0,0,0,1 @ F,0,0,1,0,1.5874999,0,1 @ F,0,1,1,0,1.8520832,0,1 @ F,0,1,1,0,1.8520832,0,1 @ F,0,0,1,0,1.5874999,0,1 @ F,0,0,1,0,0,0,1 @ F,0,0,1,0,0,0,1 @ F,0,0,1,0,1.5874999,0,1 @ F,0,0,1,0,0,0,1 @ F,0,0,1,0,0,0,1 @ F,0,0,1,0,0,0,1 @ F,0,0,1,0,0,0,1 @ F,0,0,1,0,0,0,1 @ F,0,0,1,0,0,0,1 @ F,0,0,1,0,1.5874999,0,1 @ F,0,0,1,0,0,0,1"
       radius="7"
       unit="px"
       method="auto"
       mode="F"
       chamfer_steps="1"
       flexible="false"
       use_knot_distance="true"
       apply_no_radius="true"
       apply_with_radius="true"
       only_selected="true"
       hide_knots="false" /><inkscape:path-effect
       effect="fillet_chamfer"
       id="path-effect5"
       is_visible="true"
       lpeversion="1"
       nodesatellites_param="F,0,0,1,0,0,0,1 @ F,0,0,1,0,0,0,1 @ F,0,0,1,0,0,0,1 @ F,0,0,1,0,0,0,1 @ F,0,0,1,0,0,0,1 @ F,0,1,1,0,5.2916664,0,1 @ F,0,0,1,0,0,0,1 @ F,0,1,1,0,5.2916664,0,1"
       radius="28"
       unit="px"
       method="auto"
       mode="F"
       chamfer_steps="1"
       flexible="false"
       use_knot_distance="true"
       apply_no_radius="true"
       apply_with_radius="true"
       only_selected="true"
       hide_knots="false" /><inkscape:path-effect
       effect="fillet_chamfer"
       id="path-effect1"
       is_visible="true"
       lpeversion="1"
       nodesatellites_param="F,0,0,1,0,0,0,1 @ F,0,0,1,0,0,0,1 @ F,0,0,1,0,0,0,1 @ F,0,0,1,0,0,0,1 @ F,0,0,1,0,0,0,1 @ F,0,1,1,0,17.991666,0,1 @ F,0,0,1,0,0,0,1 @ F,0,1,1,0,17.991666,0,1"
       radius="68"
       unit="px"
       method="auto"
       mode="F"
       chamfer_steps="1"
       flexible="false"
       use_knot_distance="true"
       apply_no_radius="true"
       apply_with_radius="true"
       only_selected="true"
       hide_knots="false" /><filter
       inkscape:collect="always"
       style="color-interpolation-filters:sRGB"
       id="filter14"
       x="-0.069418233"
       y="-0.068824316"
       width="1.1388365"
       height="1.1376486"><feGaussianBlur
         inkscape:collect="always"
         stdDeviation="2.380152"
         id="feGaussianBlur14" /></filter><linearGradient
       inkscape:collect="always"
       xlink:href="#linearGradient6"
       id="linearGradient7"
       x1="10.583331"
       y1="82.926455"
       x2="124.88333"
       y2="82.926455"
       gradientUnits="userSpaceOnUse" /></defs><g
     inkscape:label="Layer 1"
     inkscape:groupmode="layer"
     id="layer1"><path
       id="rect1"
       style="display:inline;opacity:1;fill:#ff0000;stroke-width:10.2129;stroke-linecap:round;stroke-linejoin:round;stroke-miterlimit:1;paint-order:markers stroke fill"
       d="m 10.583333,0 c 0,0 16.107411,15.875 28.574998,15.875 C 51.625918,15.875 67.73333,0 67.73333,0 c 0,0 16.107407,15.874999 28.574994,15.875 C 108.77592,15.875001 124.88333,0 124.88333,0 v 51.553387 c 0,9.936523 -2.2468,25.75605 -6.13038,34.896406 -8.29869,19.531737 -25.116179,49.016867 -51.01962,49.016867 -25.903523,0 -42.721039,-29.48532 -51.019698,-49.017057 C 12.830113,77.309347 10.583333,61.48991 10.583333,51.553387 Z"
       sodipodi:nodetypes="czczcczccsc" /><path
       id="path5"
       style="display:inline;opacity:1;fill:url(#linearGradient7);stroke-width:10.2129;stroke-linecap:round;stroke-linejoin:round;stroke-miterlimit:1;paint-order:markers stroke fill"
       d="m 10.583331,30.38625 v 21.166666 c 0,9.936523 2.24686,25.756322 6.13038,34.896578 8.29866,19.531736 25.1161,49.017166 51.01962,49.017166 25.90344,0 42.720929,-29.48543 51.019619,-49.017166 3.88358,-9.140356 6.13038,-24.960055 6.13038,-34.896578 V 30.38625 c 0,9.936523 -2.2468,25.756221 -6.13038,34.896577 -8.29869,19.531737 -25.116179,49.016643 -51.019619,49.016643 -25.90352,0 -42.72096,-29.484906 -51.01962,-49.016643 -3.88352,-9.140256 -6.13038,-24.960054 -6.13038,-34.896577 z" /><path
       id="path3"
       style="display:inline;opacity:0.5;fill:#ff8080;fill-opacity:1;stroke-width:10.2129;stroke-linecap:round;stroke-linejoin:round;stroke-miterlimit:1;paint-order:markers stroke fill"
       d="m 10.583333,0 v 51.553442 c 0,9.936523 2.24634,25.755805 6.12986,34.896061 8.29865,19.531727 25.11662,49.017157 51.02014,49.017157 V 0 c 0,0 -16.10741,15.875 -28.575,15.875 C 26.690753,15.875 10.583333,0 10.583333,0 Z"
       sodipodi:nodetypes="cssccsc"
       inkscape:path-effect="#path-effect7"
       inkscape:original-d="m 10.583333,0 v 51.553442 c 0,9.936523 2.24634,25.755805 6.12986,34.896061 8.29865,19.531727 25.11662,49.017157 51.02014,49.017157 V 0 c 0,0 -16.10741,15.875 -28.575,15.875 C 26.690753,15.875 10.583333,0 10.583333,0 Z" /><path
       id="path14"
       style="display:inline;opacity:0.8;mix-blend-mode:normal;fill:#000000;stroke-width:0.264583;stroke-linecap:round;stroke-linejoin:round;stroke-miterlimit:1;paint-order:markers stroke fill;filter:url(#filter14)"
       d="m 61.392117,28.368292 c -13.707496,0.03711 -25.999658,2.043975 -33.9602,5.544881 l -1.412834,0.621668 0.04496,1.92753 c 0.02482,1.060366 0.07034,1.953432 0.101286,1.984375 l -0.0083,2.31097 1.965772,0.978235 0.75861,1.316716 4.511869,0.367419 0.478007,-5.462199 c 2.018679,-0.100462 4.141694,-0.169087 6.93136,-0.199987 0.176286,22.231077 0.884595,34.362954 -0.0031,56.676126 l 5.453414,4.59195 0.428397,-61.300116 c 0.751978,-8.2e-4 1.482699,-0.0025 2.324923,-0.0021 0.234305,26.706158 1.170554,41.299169 -0.0047,68.11986 l 7.223849,5.52369 0.567407,-73.613578 c 5.059899,0.03124 9.614624,0.07975 10.913545,0.141594 16.177591,0.770295 27.027485,4.370484 29.850891,9.904822 1.284367,2.517565 0.786499,5.775713 -1.279508,8.372098 -1.259359,1.582658 -2.913952,2.875438 -6.68228,5.221387 -6.816907,4.243829 -7.894294,5.159839 -7.896675,6.714835 -0.007,4.504685 13.177928,9.039947 13.543876,14.988749 0.38482,6.255552 -2.253386,11.097377 -7.54786,14.515908 -4.502753,3.689775 -17.86213,8.987635 -25.601021,9.483125 -1.998869,0.12799 7.588364,1.28206 11.157459,0.99839 23.591014,-1.87498 32.154206,-12.649857 32.791276,-23.1164 0.52955,-8.700103 -20.39379,-17.83916 -20.39379,-17.83916 0,0 6.20826,-2.096436 9.165041,-3.849687 5.725319,-3.394885 7.870419,-4.943537 10.144579,-7.225151 2.43734,-2.445324 3.51239,-5.112381 3.33003,-8.262544 -0.0574,-0.992005 -0.15111,-1.323754 -0.67128,-2.373499 -1.10632,-2.232633 -3.81944,-4.685375 -7.55096,-6.826973 C 95.559249,36.014599 78.367022,28.322306 61.392117,28.368292 Z m 5.96346,30.627071 v 3.46077 c 0,0.876752 -0.710748,1.5875 -1.5875,1.5875 -0.815676,0.207201 -1.308943,1.036408 -1.101741,1.852084 v 1.775085 c 0,1.022877 0.829206,1.852083 1.852083,1.852083 0.669551,0.207201 1.044359,0.917949 0.837158,1.5875 v 3.460771 h 4.870504 v -1.152384 c 0,-0.876752 0.710748,-1.5875 1.5875,-1.5875 h 3.739823 V 69.522885 H 77.65469 V 64.043633 H 77.553404 V 61.73473 h -3.739823 c -0.876752,0 -1.5875,-0.710748 -1.5875,-1.5875 v -1.151867 z"
       sodipodi:nodetypes="ccccccccccccccccccsssssscssscsssssccsccsccccssccccccsscc"
       inkscape:label="shadow" /><path
       id="rect10"
       style="display:inline;opacity:1;fill:#ffffff;stroke-width:2.11666664;stroke-linecap:round;stroke-linejoin:round;stroke-miterlimit:1;paint-order:markers stroke fill;stroke:#000000;stroke-opacity:1;stroke-dasharray:none"
       d="m 61.921284,26.780794 c -11.224652,0.09744 -22.668312,1.133703 -33.174344,5.252621 -1.224301,0.47999 -2.583464,1.923257 -2.759768,3.2246 -0.49331,3.641239 1.526817,4.965361 3.423406,6.207154 l 4.511869,0.367419 -0.65006,-1.722359 c -0.670779,-1.777258 0.314041,-3.407727 2.205624,-3.581562 1.971842,-0.181211 4.192437,-0.339863 5.853803,-0.358265 0.176286,22.231077 0.884594,34.362954 -0.0031,56.676126 l 5.453414,4.591968 0.428397,-61.300134 2.6991,-0.0021 c 0,0 1.170603,41.29916 -0.0047,68.119878 l 6.849672,5.52369 0.567407,-73.613596 c 12.943663,0.724222 32.599669,1.881649 40.764436,10.046416 8.10478,8.104776 -15.851413,15.703858 -15.858463,20.30832 -0.007,4.504685 13.177928,9.039947 13.543876,14.988749 0.946668,15.38884 -19.732526,22.702621 -33.148881,23.999051 17.861966,4.27106 43.948738,-3.9074 43.948738,-22.118028 0,-10.17017 -20.394104,-17.839221 -20.394104,-17.839221 9.4152,-3.525627 22.639964,-7.539053 22.639964,-19.337321 0,-11.798268 -26.38388,-19.488975 -46.896286,-19.433406 z m 5.96346,30.627071 v 3.46077 c 0,0.876752 -0.710748,1.5875 -1.5875,1.5875 -0.792395,0 -1.101741,0.996839 -1.101741,1.852084 v 1.775085 c 0,1.022877 0.829206,1.852083 1.852083,1.852083 0.685747,0 0.837158,0.900946 0.837158,1.5875 v 3.460771 h 4.870504 v -1.152384 c 0,-0.876752 0.710748,-1.5875 1.5875,-1.5875 l 3.739823,-0.529167 v -9.038208 l -3.739823,-0.529167 c -0.868105,-0.122833 -1.5875,-0.710748 -1.5875,-1.5875 v -1.151867 z m 2.964677,2.645833 c 0.938681,8e-6 1.69963,0.760957 1.699638,1.699638 -8e-6,0.938681 -0.760957,1.69963 -1.699638,1.699638 -0.938882,2.77e-4 -1.700146,-0.760756 -1.700154,-1.699638 8e-6,-0.938882 0.761272,-1.699915 1.700154,-1.699638 z m 0,6.884851 c 0.938681,8e-6 1.69963,0.760957 1.699638,1.699638 -8e-6,0.938681 -0.760957,1.69963 -1.699638,1.699638 -0.938882,2.77e-4 -1.700146,-0.760756 -1.700154,-1.699638 8e-6,-0.938882 0.761272,-1.699915 1.700154,-1.699638 z m 15.563391,0.996838 c 0.124171,0.05671 3.746968,1.982857 5.794198,3.494456 2.04723,1.511599 6.677392,5.257463 6.677392,5.257463 l -2.790527,-0.863033 v 1.368945 c 0,0 -3.349127,-2.64203 -5.119966,-3.972646 -1.770839,-1.330617 -4.193819,-3.370206 -4.96384,-3.835242 -0.770022,-0.465037 -0.761624,-1.084916 -0.520198,-1.415321 0.236673,-0.3239 0.79877,-0.09133 0.922941,-0.03462 z"
       sodipodi:nodetypes="cccccccccccccscscsczccsccsccccssccsscccscsccscsczscccszszz"
       inkscape:path-effect="#path-effect8"
       inkscape:original-d="m 61.921284,26.780794 c -12.01276,0.104284 -24.276362,1.283848 -35.373034,6.166549 -1.817276,5.451817 0.609665,7.042894 2.862328,8.517826 l 4.511869,0.367419 -1.864614,-4.940369 c 2.117898,-0.264583 6.484315,-0.690917 9.273981,-0.721817 0.176286,22.231077 0.884594,34.362954 -0.0031,56.676126 l 5.453414,4.591968 0.428397,-61.300134 2.6991,-0.0021 c 0,0 1.170603,41.29916 -0.0047,68.119878 l 6.849672,5.52369 0.567407,-73.613596 c 12.943663,0.724222 32.599669,1.881649 40.764436,10.046416 8.10478,8.104776 -15.851413,15.703858 -15.858463,20.30832 -0.007,4.504685 13.177928,9.039947 13.543876,14.988749 0.946668,15.38884 -19.732526,22.702621 -33.148881,23.999051 17.861966,4.27106 43.948738,-3.9074 43.948738,-22.118028 0,-10.17017 -20.394104,-17.839221 -20.394104,-17.839221 9.4152,-3.525627 22.639964,-7.539053 22.639964,-19.337321 0,-11.798268 -26.38388,-19.488975 -46.896286,-19.433406 z m 5.96346,30.627071 v 3.46077 c 0,0.876752 -0.710748,1.5875 -1.5875,1.5875 -0.792395,0 -1.101741,0.996839 -1.101741,1.852084 v 1.775085 c 0,1.022877 0.829206,1.852083 1.852083,1.852083 0.685747,0 0.837158,0.900946 0.837158,1.5875 v 3.460771 h 4.870504 v -1.152384 c 0,-0.876752 0.710748,-1.5875 1.5875,-1.5875 l 3.739823,-0.529167 v -9.038208 l -3.739823,-0.529167 c -0.868105,-0.122833 -1.5875,-0.710748 -1.5875,-1.5875 v -1.151867 z m 2.964677,2.645833 c 0.938681,8e-6 1.69963,0.760957 1.699638,1.699638 -8e-6,0.938681 -0.760957,1.69963 -1.699638,1.699638 -0.938882,2.77e-4 -1.700146,-0.760756 -1.700154,-1.699638 8e-6,-0.938882 0.761272,-1.699915 1.700154,-1.699638 z m 0,6.884851 c 0.938681,8e-6 1.69963,0.760957 1.699638,1.699638 -8e-6,0.938681 -0.760957,1.69963 -1.699638,1.699638 -0.938882,2.77e-4 -1.700146,-0.760756 -1.700154,-1.699638 8e-6,-0.938882 0.761272,-1.699915 1.700154,-1.699638 z m 15.563391,0.996838 c 0.124171,0.05671 3.746968,1.982857 5.794198,3.494456 2.04723,1.511599 6.677392,5.257463 6.677392,5.257463 l -2.790527,-0.863033 v 1.368945 c 0,0 -3.349127,-2.64203 -5.119966,-3.972646 -1.770839,-1.330617 -4.193819,-3.370206 -4.96384,-3.835242 -0.770022,-0.465037 -0.761624,-1.084916 -0.520198,-1.415321 0.236673,-0.3239 0.79877,-0.09133 0.922941,-0.03462 z" /><path
       id="path15"
       style="display:inline;opacity:0.2;mix-blend-mode:normal;fill:#ffd5d5;stroke-width:10.2129;stroke-linecap:round;stroke-linejoin:round;stroke-miterlimit:1;paint-order:markers stroke fill"
       d="M 67.728624,2.3729817 C 57.327581,11.730968 50.591016,14.769874 46.305644,16.341121 c -3.99127,1.405656 -8.43088,1.819758 -12.51087,0.529167 -6.83302,-1.906797 -12.78221,-5.998052 -18.32033,-10.30118 -1.12204,-0.9019527 -2.23312,-1.8182482 -3.30987,-2.7739909 0,0 -0.06585,3.1365141 0,3.175 1.07675,0.9557425 2.18783,1.8720395 3.30987,2.7739909 5.53812,4.303129 11.48731,9.981883 18.32033,11.88868 4.07999,1.290591 8.5196,0.876489 12.51087,-0.529167 4.285079,-1.57114 11.021706,-6.197444 21.42298,-15.5556393 2.267995,2.092425 15.18245,13.7819153 23.02443,16.0300293 4.01969,1.313415 8.41087,0.978661 12.375986,-0.362252 7.55244,-2.679116 14.1536,-9.038109 20.15794,-14.2518431 V 3.788916 c -6.00434,5.2137345 -12.6055,9.985227 -20.15794,12.664343 -3.965116,1.340913 -8.356296,1.675667 -12.375986,0.362252 C 81.273699,14.097999 71.897177,6.2188388 67.728624,2.3729817 Z"
       sodipodi:nodetypes="ccccccccccccccccc" /></g></svg>
