<?xml version="1.0" encoding="UTF-8" standalone="no"?>
<!-- Uploaded to: SVG Repo, www.svgrepo.com, Generator: SVG Repo Mixer Tools -->

<svg
   fill="#000000"
   width="800px"
   height="800px"
   viewBox="0 0 24 24"
   role="img"
   version="1.1"
   id="svg1"
   sodipodi:docname="counterstrikeconditionzero.svg"
   inkscape:version="1.4 (e7c3feb100, 2024-10-09)"
   xmlns:inkscape="http://www.inkscape.org/namespaces/inkscape"
   xmlns:sodipodi="http://sodipodi.sourceforge.net/DTD/sodipodi-0.dtd"
   xmlns:xlink="http://www.w3.org/1999/xlink"
   xmlns="http://www.w3.org/2000/svg"
   xmlns:svg="http://www.w3.org/2000/svg"
   xmlns:rdf="http://www.w3.org/1999/02/22-rdf-syntax-ns#"
   xmlns:cc="http://creativecommons.org/ns#"
   xmlns:dc="http://purl.org/dc/elements/1.1/">
  <defs
     id="defs1">
    <linearGradient
       id="linearGradient1"
       inkscape:collect="always">
      <stop
         style="stop-color:#aa8800;stop-opacity:1;"
         offset="0"
         id="stop1" />
      <stop
         style="stop-color:#ffcc00;stop-opacity:1;"
         offset="1"
         id="stop2" />
    </linearGradient>
    <linearGradient
       inkscape:collect="always"
       xlink:href="#linearGradient1"
       id="linearGradient2"
       x1="12"
       y1="-0.12000042"
       x2="12"
       y2="24.120001"
       gradientUnits="userSpaceOnUse" />
  </defs>
  <sodipodi:namedview
     id="namedview1"
     pagecolor="#000000"
     bordercolor="#000000"
     borderopacity="1"
     inkscape:showpageshadow="0"
     inkscape:pageopacity="0"
     inkscape:pagecheckerboard="1"
     inkscape:deskcolor="#000000"
     inkscape:zoom="0.81299779"
     inkscape:cx="518.45159"
     inkscape:cy="458.18083"
     inkscape:window-width="3233"
     inkscape:window-height="1080"
     inkscape:window-x="1887"
     inkscape:window-y="0"
     inkscape:window-maximized="0"
     inkscape:current-layer="svg1"
     showgrid="false" />
  <title
     id="title1">Counter-Strike icon</title>
  <rect
     style="fill:url(#linearGradient2);stroke:#000000;stroke-width:0.24;stroke-linecap:round;stroke-linejoin:round;stroke-miterlimit:1;paint-order:markers stroke fill"
     id="rect1"
     width="24"
     height="24"
     x="0"
     y="0"
     ry="4.3476791" />
  <path
     d="m 9.3658156,2.3227361 c 0.368255,-0.3314888 0.9208484,-0.4542404 1.3996564,-0.3069215 0.18417,0.061418 0.343772,0.1719709 0.515659,0.2823542 0.13512,0.085985 0.294722,0.1228364 0.417474,0.2211055 0.06142,0.049135 0.01228,0.1350353 0.01228,0.1963687 0.159603,0.3806233 0.245588,0.7980975 0.110553,1.2032881 -0.110553,0.1350353 -0.307006,0.1719709 -0.466609,0.2333044 -0.02457,0.1718862 0.03685,0.3314887 0.06142,0.5033749 -0.03685,0.024567 -0.06142,0.049135 -0.09827,0.073702 0.233304,-0.012284 0.466608,-0.061418 0.699913,-0.110468 0.0859,-0.085985 0.220936,-0.036851 0.331488,-0.049135 0.01228,-0.1719709 0.0737,-0.3315735 0.0737,-0.5034597 0.02457,0 0.0737,-0.012284 0.09819,-0.024567 0.01228,0.1228364 0,0.2456728 0.03685,0.3684244 0.06133,0.049135 0.159602,0.024567 0.233304,0.036766 0,0.049135 0,0.098269 0.0122,0.1474036 1.424309,-0.012284 2.860816,0 4.285125,0 v 0.2087371 h 0.13512 V 4.0049165 h 0.159603 c 0,0.2210208 -0.01228,0.4296732 0,0.6506939 a 0.09377921,0.09377921 0 0 0 0.06142,0.024567 c 0,0.024567 0.0122,0.073702 0.0122,0.098269 0.04913,-0.049135 0.110553,-0.085986 0.18417,-0.061418 0.01228,0.036851 0.02457,0.073702 0.03685,0.1228364 -0.04913,0.049135 -0.0737,0.110468 -0.04913,0.1840851 0.392992,0.012284 0.785899,0 1.191089,0 0.03677,-0.049135 0.09819,-0.073702 0.159603,-0.098269 0.02457,0.012368 0.06133,0.036936 0.0737,0.049135 h 0.576992 c 0.02457,0.098269 0.02457,0.1965382 0.01228,0.2824389 h -0.58936 c -0.01228,0.012284 -0.04913,0.049135 -0.0737,0.061418 -0.06133,-0.036851 -0.110468,-0.061418 -0.171886,-0.098269 h -1.068168 c -0.208737,0.061418 -0.429758,0.049135 -0.638495,0.012284 v 0.2333043 h -1.755798 c -0.0737,0.061418 -0.147319,0.098269 -0.245503,0.1105528 0.03677,0.1841698 -0.171971,0.2332196 -0.245673,0.3683396 -0.04905,0.073702 -0.122667,0.1227517 -0.196369,0.1473189 -0.06142,0.3806233 0.0737,0.7366794 0.171971,1.0928201 -0.110552,0.024567 -0.233389,0.061333 -0.343941,0.085901 -0.06133,0.2455881 -0.122752,0.503375 -0.171802,0.7488783 -0.04913,0.2211054 -0.221105,0.4052754 -0.429758,0.4911764 -0.147403,0.171971 -0.343772,0.343857 -0.577077,0.35614 -0.08598,0.02457 -0.147403,-0.03685 -0.208737,-0.08598 -0.306921,0.02457 -0.58936,-0.122836 -0.859515,-0.245588 -0.294638,-0.135035 -0.564793,-0.3069216 -0.847148,-0.4665242 0.02457,0.1718862 -0.06142,0.3192052 -0.122836,0.4665242 0.13512,0.06142 0.31929,0.110553 0.392907,0.257872 0.04913,0.110468 0.09827,0.233304 0.09827,0.368339 -0.01228,0.442042 -0.06142,0.8839988 -0.08598,1.3260398 0.01228,0.31929 -0.147319,0.638495 -0.36834,0.871715 -0.147319,-0.0122 -0.270071,-0.07362 -0.405191,-0.135036 -0.04913,0.110553 -0.159602,0.221106 -0.09827,0.356141 0.04913,0.159603 0.04913,0.331489 0.122837,0.478808 0.417474,0.442041 0.77353,0.933133 1.031401,1.485642 0.257787,0.528027 0.454241,1.080536 0.662978,1.633046 0.03685,0 0.110553,-0.01228 0.147404,-0.01228 0.04913,0.159603 0,0.343773 0.09827,0.491176 0.0859,0.135036 0.06133,0.294638 0.06133,0.454241 -0.02457,0.368339 -0.04913,0.736679 -0.08598,1.105019 -0.02457,0.257871 -0.0859,0.515743 -0.122752,0.773615 0.01228,0.196368 0.09827,0.392822 0.0859,0.589275 -0.0122,0.184255 -0.0122,0.380624 -0.159603,0.515744 0.01228,0.417474 -0.09827,0.834863 0.04913,1.240054 0.196538,0.270155 0.417474,0.528027 0.650778,0.761246 0.257787,0.122837 0.564794,0.147404 0.785814,0.368425 0.0859,0.135035 0.03677,0.294638 0.01228,0.441957 a 5.70325,5.70325 0 0 1 -1.583911,0 c -0.208738,-0.04913 -0.405191,-0.135036 -0.613928,-0.159603 -0.282439,0.01228 -0.613928,0.122836 -0.871715,-0.0737 -0.02457,-0.331489 0.09819,-0.650694 0.159603,-0.969983 0.02457,-0.110469 0.135035,-0.18417 0.122751,-0.294638 -0.02457,-0.380624 -0.04913,-0.773531 -0.0737,-1.154154 -0.04913,-0.02457 -0.135036,-0.04913 -0.122752,-0.122836 0,-0.184085 -0.06142,-0.368255 -0.110468,-0.540226 -0.08599,-0.466524 -0.122836,-0.945416 -0.13512,-1.424224 -0.01228,-0.13512 0.0737,-0.233305 0.171971,-0.31929 0.02457,-0.208737 0.04913,-0.429673 0.06133,-0.63841 -0.03685,-0.110553 -0.122836,-0.196538 -0.171971,-0.294723 -0.220936,0.02457 -0.540141,0.0737 -0.675176,-0.159602 -0.31929,-0.478893 -0.6507781,-0.969984 -0.9699833,-1.448792 -0.13512,-0.01228 -0.2947225,0 -0.4174742,-0.08599 -0.13512,-0.147404 -0.2211054,-0.343773 -0.3070062,-0.527942 -0.036851,0.147319 -0.061418,0.306921 -0.1474036,0.429673 -0.073617,0.122836 -0.1963687,0.208737 -0.2823542,0.31929 -0.085901,0.196453 -0.1596026,0.392907 -0.2332197,0.58936 -0.085985,0.245503 -0.2087371,0.491091 -0.2333043,0.761247 -0.012284,0.135035 -0.036851,0.257871 -0.085985,0.380623 -0.061333,0.09827 -0.1718862,0.135035 -0.2700706,0.18417 -0.073702,0.159602 -0.1228363,0.319205 -0.2333043,0.454325 -0.073702,0.0859 -0.1965382,0.110468 -0.245588,0.220936 -0.049135,0.147403 -0.1228364,0.282439 -0.1841699,0.417474 -0.024567,0.147404 0.073702,0.307006 0.024567,0.454325 -0.085986,0.36834 -0.2701553,0.712112 -0.4420415,1.043686 -0.085901,0.245503 -0.1473189,0.503375 -0.2700705,0.736679 -0.049135,0.09827 -0.171971,0.122836 -0.2701553,0.135035 -0.110468,0.270156 -0.2333044,0.527942 -0.3069215,0.810381 -0.036851,0.270071 -0.036851,0.55251 -0.024567,0.82258 0,0.122837 0.073702,0.221106 0.1228364,0.331574 0.04905,0.147404 0.012199,0.294638 -0.012368,0.442041 -0.4788076,0.06133 -0.9699837,0.110468 -1.4365077,-0.03685 -0.049135,-0.03685 -0.036851,-0.09827 -0.049135,-0.147403 -0.036851,-0.220936 -0.061418,-0.454241 0.012284,-0.662978 0.1596026,-0.577076 0.2946378,-1.154153 0.4542404,-1.73123 -0.061333,-0.06142 -0.1473189,-0.110468 -0.1473189,-0.208737 -0.012284,-0.159603 0,-0.331489 0.036851,-0.491091 0.073702,-0.27024 0.2701553,-0.478893 0.3683396,-0.736764 0.036851,-0.110468 0.024567,-0.221021 0.036851,-0.331489 0,-0.257872 0.1474037,-0.466609 0.2578717,-0.687545 0.110468,-0.18417 0.1963687,-0.380623 0.3437724,-0.54031 0.098269,-0.0859 0.098269,-0.220936 0.1718862,-0.331489 0.073702,-0.135035 0.1964534,-0.245588 0.1964534,-0.405191 0.024567,-0.196453 -0.049135,-0.392907 -0.024567,-0.58936 0.049135,-0.577077 0.1596025,-1.14187 0.2578716,-1.718862 -0.049135,-0.0615 -0.1228363,-0.122836 -0.1474036,-0.208822 0.012284,-0.06133 0.024567,-0.110468 0.036851,-0.171886 l -0.110468,-0.18417 c 0.049135,-0.0737 0.098269,-0.159603 0.1474036,-0.233304 -0.049135,-0.03685 -0.1105527,-0.0859 -0.1596873,-0.122837 0.061418,-0.184085 0.036851,-0.45424 0.257787,-0.540141 0.024567,0.01228 0.085985,0.02457 0.1105527,0.03677 C 6.0874414,11.862982 6.0874414,11.531494 6.0505904,11.212204 5.9646894,10.868431 5.9523214,10.51246 5.9892574,10.168518 6.1120091,9.9844332 6.3453134,9.9107312 6.5540505,9.8984482 6.2838953,9.8371182 6.01374,9.8125482 5.755953,9.7265612 5.743669,9.5055412 5.78052,9.2845202 5.817371,9.0635842 5.927839,8.6338262 5.878704,8.1918694 5.9401227,7.7497432 6.0015407,7.6269916 6.1611434,7.6024243 6.2961787,7.6269916 c 0.1596026,0.024567 0.3192051,-0.024567 0.4788924,-0.073702 0,-0.061333 0.012284,-0.1350352 0,-0.1964534 -0.098269,-0.4296731 -0.073702,-0.8717146 0,-1.2891888 0.098268,-0.5402377 0.3192037,-1.0682646 0.7243095,-1.4488032 0.27024,-0.2578716 0.6630623,-0.380708 1.0314866,-0.3684244 0.1227517,0 0.1963688,0.1228364 0.2946379,0.1965382 C 8.8746391,4.397823 8.9237741,4.348689 8.9605404,4.2995544 8.8992069,4.0908173 8.8009378,3.8697965 8.8132214,3.6488605 8.8377887,3.1576845 8.9973913,2.6543096 9.3657309,2.3227361 m 3.8308001,3.4747442 c 0.02457,0.024567 0.02457,0.024567 0,0 m 0.171971,0.024567 c 0.0122,0.085985 0.03677,0.1719709 -0.01228,0.245588 -0.06142,0.024567 -0.13512,0.024567 -0.196538,0.061418 0.171971,0 0.343857,0.012284 0.515743,0 0.135035,-0.036851 0.08599,-0.2087371 0.08599,-0.3070062 -0.08599,-0.098269 -0.270156,-0.036851 -0.392907,0 m -0.429758,0.5157433 c 0.122836,0.1350352 0.18417,0.3437723 0.294638,0.4788076 0.159602,-0.2087371 0.282439,-0.4297578 0.466608,-0.6139276 -0.22102,-0.012284 -0.442041,0.012284 -0.663062,-0.012284 -0.03685,0.049135 -0.06133,0.098269 -0.09827,0.1474037 z"
     id="path2"
     style="display:inline;fill:#ffff00;stroke-width:0.999998;fill-opacity:1" />
  <path
     d="m 9.5458156,2.2027361 c 0.368255,-0.3314888 0.9208484,-0.4542404 1.3996564,-0.3069215 0.18417,0.061418 0.343772,0.1719709 0.515659,0.2823542 0.13512,0.085985 0.294722,0.1228364 0.417474,0.2211055 0.06142,0.049135 0.01228,0.1350353 0.01228,0.1963687 0.159603,0.3806233 0.245588,0.7980975 0.110553,1.2032881 -0.110553,0.1350353 -0.307006,0.1719709 -0.466609,0.2333044 -0.02457,0.1718862 0.03685,0.3314887 0.06142,0.5033749 -0.03685,0.024567 -0.06142,0.049135 -0.09827,0.073702 0.233304,-0.012284 0.466608,-0.061418 0.699913,-0.110468 0.0859,-0.085985 0.220936,-0.036851 0.331488,-0.049135 0.01228,-0.1719709 0.0737,-0.3315735 0.0737,-0.5034597 0.02457,0 0.0737,-0.012284 0.09819,-0.024567 0.01228,0.1228364 0,0.2456728 0.03685,0.3684244 0.06133,0.049135 0.159602,0.024567 0.233304,0.036766 0,0.049135 0,0.098269 0.0122,0.1474036 1.424309,-0.012284 2.860816,0 4.285125,0 v 0.2087371 h 0.13512 V 3.8849165 h 0.159603 c 0,0.2210208 -0.01228,0.4296732 0,0.6506939 a 0.09377921,0.09377921 0 0 0 0.06142,0.024567 c 0,0.024567 0.0122,0.073702 0.0122,0.098269 0.04913,-0.049135 0.110553,-0.085986 0.18417,-0.061418 0.01228,0.036851 0.02457,0.073702 0.03685,0.1228364 -0.04913,0.049135 -0.0737,0.110468 -0.04913,0.1840851 0.392992,0.012284 0.785899,0 1.191089,0 0.03677,-0.049135 0.09819,-0.073702 0.159603,-0.098269 0.02457,0.012368 0.06133,0.036936 0.0737,0.049135 h 0.576992 c 0.02457,0.098269 0.02457,0.1965382 0.01228,0.2824389 h -0.58936 c -0.01228,0.012284 -0.04913,0.049135 -0.0737,0.061418 -0.06133,-0.036851 -0.110468,-0.061418 -0.171886,-0.098269 h -1.068168 c -0.208737,0.061418 -0.429758,0.049135 -0.638495,0.012284 v 0.2333043 h -1.755798 c -0.0737,0.061418 -0.147319,0.098269 -0.245503,0.1105528 0.03677,0.1841698 -0.171971,0.2332196 -0.245673,0.3683396 -0.04905,0.073702 -0.122667,0.1227517 -0.196369,0.1473189 -0.06142,0.3806233 0.0737,0.7366794 0.171971,1.0928201 -0.110552,0.024567 -0.233389,0.061333 -0.343941,0.085901 -0.06133,0.2455881 -0.122752,0.503375 -0.171802,0.7488783 -0.04913,0.2211054 -0.221105,0.4052754 -0.429758,0.4911764 -0.147403,0.171971 -0.343772,0.343857 -0.577077,0.35614 -0.08598,0.02457 -0.147403,-0.03685 -0.208737,-0.08598 -0.306921,0.02457 -0.58936,-0.122836 -0.859515,-0.245588 -0.294638,-0.135035 -0.564793,-0.3069216 -0.847148,-0.4665242 0.02457,0.1718862 -0.06142,0.3192052 -0.122836,0.4665242 0.13512,0.06142 0.31929,0.110553 0.392907,0.257872 0.04913,0.110468 0.09827,0.233304 0.09827,0.368339 -0.01228,0.442042 -0.06142,0.883999 -0.08598,1.3260398 0.01228,0.31929 -0.147319,0.638495 -0.36834,0.871715 -0.147319,-0.0122 -0.270071,-0.07362 -0.405191,-0.135036 -0.04913,0.110553 -0.159602,0.221106 -0.09827,0.356141 0.04913,0.159603 0.04913,0.331489 0.122837,0.478808 0.417474,0.442041 0.77353,0.933133 1.031401,1.485642 0.257787,0.528027 0.454241,1.080536 0.662978,1.633046 0.03685,0 0.110553,-0.01228 0.147404,-0.01228 0.04913,0.159603 0,0.343773 0.09827,0.491176 0.0859,0.135036 0.06133,0.294638 0.06133,0.454241 -0.02457,0.368339 -0.04913,0.736679 -0.08598,1.105019 -0.02457,0.257871 -0.0859,0.515743 -0.122752,0.773615 0.01228,0.196368 0.09827,0.392822 0.0859,0.589275 -0.0122,0.184255 -0.0122,0.380624 -0.159603,0.515744 0.01228,0.417474 -0.09827,0.834863 0.04913,1.240054 0.196538,0.270155 0.417474,0.528027 0.650778,0.761246 0.257787,0.122837 0.564794,0.147404 0.785814,0.368425 0.0859,0.135035 0.03677,0.294638 0.01228,0.441957 a 5.70325,5.70325 0 0 1 -1.583911,0 c -0.208738,-0.04913 -0.405191,-0.135036 -0.613928,-0.159603 -0.282439,0.01228 -0.613928,0.122836 -0.871715,-0.0737 -0.02457,-0.331489 0.09819,-0.650694 0.159603,-0.969983 0.02457,-0.110469 0.135035,-0.18417 0.122751,-0.294638 -0.02457,-0.380624 -0.04913,-0.773531 -0.0737,-1.154154 -0.04913,-0.02457 -0.135036,-0.04913 -0.122752,-0.122836 0,-0.184085 -0.06142,-0.368255 -0.110468,-0.540226 -0.08599,-0.466524 -0.122836,-0.945416 -0.13512,-1.424224 -0.01228,-0.13512 0.0737,-0.233305 0.171971,-0.31929 0.02457,-0.208737 0.04913,-0.429673 0.06133,-0.63841 -0.03685,-0.110553 -0.122836,-0.196538 -0.171971,-0.294723 -0.220936,0.02457 -0.540141,0.0737 -0.675176,-0.159602 -0.31929,-0.478893 -0.6507781,-0.969984 -0.9699833,-1.448792 -0.13512,-0.01228 -0.2947225,0 -0.4174742,-0.08599 -0.13512,-0.147404 -0.2211054,-0.343773 -0.3070062,-0.527942 -0.036851,0.147319 -0.061418,0.306921 -0.1474036,0.429673 -0.073617,0.122836 -0.1963687,0.208737 -0.2823542,0.31929 -0.085901,0.196453 -0.1596026,0.392907 -0.2332197,0.58936 -0.085985,0.245503 -0.2087371,0.491091 -0.2333043,0.761247 -0.012284,0.135035 -0.036851,0.257871 -0.085985,0.380623 -0.061333,0.09827 -0.1718862,0.135035 -0.2700706,0.18417 -0.073702,0.159602 -0.1228363,0.319205 -0.2333043,0.454325 -0.073702,0.0859 -0.1965382,0.110468 -0.245588,0.220936 -0.049135,0.147403 -0.1228364,0.282439 -0.1841699,0.417474 -0.024567,0.147404 0.073702,0.307006 0.024567,0.454325 -0.085986,0.36834 -0.2701553,0.712112 -0.4420415,1.043686 -0.085901,0.245503 -0.1473189,0.503375 -0.2700705,0.736679 -0.049135,0.09827 -0.171971,0.122836 -0.2701553,0.135035 -0.110468,0.270156 -0.2333044,0.527942 -0.3069215,0.810381 -0.036851,0.270071 -0.036851,0.55251 -0.024567,0.82258 0,0.122837 0.073702,0.221106 0.1228364,0.331574 0.04905,0.147404 0.012199,0.294638 -0.012368,0.442041 -0.4788076,0.06133 -0.9699837,0.110468 -1.4365077,-0.03685 -0.049135,-0.03685 -0.036851,-0.09827 -0.049135,-0.147403 -0.036851,-0.220936 -0.061418,-0.454241 0.012284,-0.662978 0.1596026,-0.577076 0.2946378,-1.154153 0.4542404,-1.73123 -0.061333,-0.06142 -0.1473189,-0.110468 -0.1473189,-0.208737 -0.012284,-0.159603 0,-0.331489 0.036851,-0.491091 0.073702,-0.27024 0.2701553,-0.478893 0.3683396,-0.736764 0.036851,-0.110468 0.024567,-0.221021 0.036851,-0.331489 0,-0.257872 0.1474037,-0.466609 0.2578717,-0.687545 0.110468,-0.18417 0.1963687,-0.380623 0.3437724,-0.54031 0.098269,-0.0859 0.098269,-0.220936 0.1718862,-0.331489 0.073702,-0.135035 0.1964534,-0.245588 0.1964534,-0.405191 0.024567,-0.196453 -0.049135,-0.392907 -0.024567,-0.58936 0.049135,-0.577077 0.1596025,-1.14187 0.2578716,-1.718862 -0.049135,-0.0615 -0.1228363,-0.122836 -0.1474036,-0.208822 0.012284,-0.06133 0.024567,-0.110468 0.036851,-0.171886 l -0.110468,-0.18417 c 0.049135,-0.0737 0.098269,-0.159603 0.1474036,-0.233304 -0.049135,-0.03685 -0.1105527,-0.0859 -0.1596873,-0.122837 0.061418,-0.184085 0.036851,-0.45424 0.257787,-0.540141 0.024567,0.01228 0.085985,0.02457 0.1105527,0.03677 C 6.2674414,11.742982 6.2674414,11.411494 6.2305904,11.092204 6.1446894,10.748431 6.1323214,10.39246 6.1692574,10.048518 6.2920091,9.8644332 6.5253134,9.7907312 6.7340505,9.7784482 6.4638953,9.7171182 6.19374,9.6925482 5.935953,9.6065612 5.923669,9.3855412 5.96052,9.1645202 5.997371,8.9435842 6.107839,8.5138262 6.058704,8.0718694 6.1201227,7.6297432 6.1815407,7.5069916 6.3411434,7.4824243 6.4761787,7.5069916 c 0.1596026,0.024567 0.3192051,-0.024567 0.4788924,-0.073702 0,-0.061333 0.012284,-0.1350352 0,-0.1964534 -0.098269,-0.4296731 -0.073702,-0.8717146 0,-1.2891888 0.098268,-0.5402377 0.3192037,-1.0682646 0.7243095,-1.4488032 0.27024,-0.2578716 0.6630623,-0.380708 1.0314866,-0.3684244 0.1227517,0 0.1963688,0.1228364 0.2946379,0.1965382 C 9.0546391,4.277823 9.1037741,4.228689 9.1405404,4.1795544 9.0792069,3.9708173 8.9809378,3.7497965 8.9932214,3.5288605 9.0177887,3.0376845 9.1773913,2.5343096 9.5457309,2.2027361 m 3.8308001,3.4747442 c 0.02457,0.024567 0.02457,0.024567 0,0 m 0.171971,0.024567 c 0.0122,0.085985 0.03677,0.1719709 -0.01228,0.245588 -0.06142,0.024567 -0.13512,0.024567 -0.196538,0.061418 0.171971,0 0.343857,0.012284 0.515743,0 0.135035,-0.036851 0.08599,-0.2087371 0.08599,-0.3070062 -0.08599,-0.098269 -0.270156,-0.036851 -0.392907,0 m -0.429758,0.5157433 c 0.122836,0.1350352 0.18417,0.3437723 0.294638,0.4788076 0.159602,-0.2087371 0.282439,-0.4297578 0.466608,-0.6139276 -0.22102,-0.012284 -0.442041,0.012284 -0.663062,-0.012284 -0.03685,0.049135 -0.06133,0.098269 -0.09827,0.1474037 z"
     id="path1"
     style="display:inline;fill:#000000;stroke:#ffff00;stroke-width:0.12;stroke-dasharray:none;stroke-opacity:1;paint-order:markers stroke fill" />
  <metadata
     id="metadata1">
    <rdf:RDF>
      <cc:Work
         rdf:about="">
        <dc:title>Counter-Strike icon</dc:title>
      </cc:Work>
    </rdf:RDF>
  </metadata>
  <path
     id="rect2"
     style="display:none;fill:#ffffff;stroke:none;stroke-width:0.24;stroke-linecap:round;stroke-linejoin:round;stroke-miterlimit:1;paint-order:markers stroke fill"
     d="m 28.936875,7.8229102 v 1.9557421 h 8.297402 l -8.297402,8.2974027 v 1.955742 H 40.000137 V 18.076055 H 31.702676 L 40.000137,9.7786523 V 7.8229102 Z"
     sodipodi:nodetypes="ccccccccccc" />
  <text
     xml:space="preserve"
     style="font-style:normal;font-variant:normal;font-weight:normal;font-stretch:normal;font-size:12.1822px;line-height:1.25;font-family:Consolas;-inkscape-font-specification:'Consolas, Normal';font-variant-ligatures:none;font-variant-caps:normal;font-variant-numeric:normal;font-variant-east-asian:normal;text-align:center;text-anchor:middle;stroke-width:0.24;stroke:#ffff00;stroke-opacity:1;stroke-dasharray:none;paint-order:markers stroke fill"
     x="18.708738"
     y="22.058693"
     id="text4"><tspan
       sodipodi:role="line"
       id="tspan4"
       style="font-style:normal;font-variant:normal;font-weight:normal;font-stretch:normal;font-size:12.1822px;font-family:Consolas;-inkscape-font-specification:'Consolas, Normal';font-variant-ligatures:none;font-variant-caps:normal;font-variant-numeric:normal;font-variant-east-asian:normal;stroke-width:0.24;stroke:#ffff00;stroke-opacity:1;stroke-dasharray:none;paint-order:markers stroke fill"
       x="18.708738"
       y="22.058693">0</tspan></text>
</svg>
