<?xml version="1.0" encoding="UTF-8" standalone="no"?>
<!-- Uploaded to: SVG Repo, www.svgrepo.com, Generator: SVG Repo Mixer Tools -->

<svg
   fill="#000000"
   width="512"
   height="512"
   viewBox="0 0 15.36 15.36"
   role="img"
   version="1.1"
   id="svg1"
   sodipodi:docname="counterstrike2.svg"
   inkscape:version="1.4 (e7c3feb100, 2024-10-09)"
   xmlns:inkscape="http://www.inkscape.org/namespaces/inkscape"
   xmlns:sodipodi="http://sodipodi.sourceforge.net/DTD/sodipodi-0.dtd"
   xmlns:xlink="http://www.w3.org/1999/xlink"
   xmlns="http://www.w3.org/2000/svg"
   xmlns:svg="http://www.w3.org/2000/svg"
   xmlns:rdf="http://www.w3.org/1999/02/22-rdf-syntax-ns#"
   xmlns:cc="http://creativecommons.org/ns#"
   xmlns:dc="http://purl.org/dc/elements/1.1/">
  <defs
     id="defs1">
    <inkscape:path-effect
       effect="fillet_chamfer"
       id="path-effect2"
       is_visible="true"
       lpeversion="1"
       nodesatellites_param="F,0,0,1,0,0,0,1 @ F,0,0,1,0,0,0,1 @ F,0,0,1,0,0,0,1 @ F,0,0,1,0,0,0,1 @ F,0,0,1,0,0,0,1 @ F,0,0,1,0,0,0,1 @ F,0,0,1,0,0,0,1 @ F,0,0,1,0,0,0,1 @ F,0,0,1,0,0,0,1 @ F,0,0,1,0,0,0,1 @ F,0,0,1,0,0,0,1 @ F,0,0,1,0,0,0,1 @ F,0,0,1,0,0,0,1 @ F,0,0,1,0,0,0,1 @ F,0,0,1,0,0,0,1 @ F,0,0,1,0,0,0,1 @ F,0,0,1,0,0,0,1 @ F,0,0,1,0,0,0,1 @ F,0,0,1,0,0,0,1 @ F,0,0,1,0,0,0,1 @ F,0,0,1,0,0,0,1 @ F,0,0,1,0,0,0,1 @ F,0,0,1,0,0,0,1 @ F,0,0,1,0,0,0,1 @ F,0,0,1,0,0,0,1 @ F,0,0,1,0,0,0,1 @ F,0,0,1,0,0,0,1 @ F,0,0,1,0,0,0,1 @ F,0,0,1,0,0,0,1 @ F,0,0,1,0,0,0,1 @ F,0,0,1,0,0,0,1 @ F,0,0,1,0,0,0,1 @ F,0,0,1,0,0,0,1 @ F,0,0,1,0,0,0,1 @ F,0,0,1,0,0,0,1 @ F,0,0,1,0,0,0,1 @ F,0,0,1,0,0,0,1 @ F,0,0,1,0,0,0,1 @ F,0,0,1,0,0,0,1 @ F,0,0,1,0,0,0,1 @ F,0,0,1,0,0,0,1 @ F,0,0,1,0,0,0,1 @ F,0,0,1,0,0,0,1 @ F,0,0,1,0,0,0,1 @ F,0,0,1,0,0,0,1 @ F,0,0,1,0,0,0,1 @ F,0,0,1,0,0,0,1 @ F,0,0,1,0,0,0,1 @ F,0,0,1,0,0,0,1 @ F,0,0,1,0,0,0,1 @ F,0,0,1,0,0,0,1 @ F,0,0,1,0,0,0,1 @ F,0,0,1,0,0,0,1 @ F,0,0,1,0,0,0,1 @ F,0,0,1,0,0,0,1 @ F,0,0,1,0,0,0,1 @ F,0,0,1,0,0,0,1 @ F,0,0,1,0,0,0,1 @ F,0,0,1,0,0,0,1 @ F,0,0,1,0,0,0,1 @ F,0,0,1,0,0,0,1 @ F,0,0,1,0,0,0,1 @ F,0,0,1,0,0,0,1 @ F,0,0,1,0,0,0,1 @ F,0,0,1,0,0,0,1 @ F,0,0,1,0,0,0,1 @ F,0,0,1,0,0,0,1 @ F,0,0,1,0,0,0,1 @ F,0,0,1,0,0,0,1 @ F,0,0,1,0,0,0,1 @ F,0,0,1,0,0,0,1 @ F,0,0,1,0,0,0,1 @ F,0,0,1,0,0,0,1 @ F,0,0,1,0,0,0,1 @ F,0,0,1,0,0,0,1 @ F,0,0,1,0,0,0,1 @ F,0,0,1,0,0,0,1 @ F,0,0,1,0,0,0,1 @ F,0,0,1,0,0,0,1 @ F,0,0,1,0,0,0,1 @ F,0,0,1,0,0,0,1 @ F,0,0,1,0,0,0,1 @ F,0,0,1,0,0,0,1 @ F,0,0,1,0,0,0,1 @ F,0,0,1,0,0,0,1 @ F,0,0,1,0,0,0,1 @ F,0,0,1,0,0,0,1 @ F,0,0,1,0,0,0,1 @ F,0,0,1,0,0,0,1 @ F,0,0,1,0,0,0,1 @ F,0,0,1,0,0,0,1 @ F,0,0,1,0,0,0,1 @ F,0,0,1,0,0,0,1 @ F,0,0,1,0,0,0,1 @ F,0,0,1,0,0,0,1 @ F,0,0,1,0,0,0,1 @ F,0,0,1,0,0,0,1 @ F,0,0,1,0,0,0,1 @ F,0,0,1,0,0,0,1 @ F,0,0,1,0,0,0,1 @ F,0,0,1,0,0,0,1 @ F,0,0,1,0,0,0,1 @ F,0,0,1,0,0,0,1 @ F,0,0,1,0,0,0,1 @ F,0,0,1,0,0,0,1 @ F,0,0,1,0,0,0,1 @ F,0,0,1,0,0,0,1 @ F,0,1,1,0,0.75,0,1 @ F,0,1,1,0,0.75,0,1 | F,0,0,1,0,0,0,1 @ F,0,0,1,0,0,0,1 @ F,0,0,1,0,0,0,1 @ F,0,0,1,0,0,0,1 @ F,0,0,1,0,0,0,1 @ F,0,0,1,0,0,0,1 @ F,0,0,1,0,0,0,1 |  | F,0,0,1,0,0,0,1 @ F,0,0,1,0,0,0,1 @ F,0,0,1,0,0,0,1 @ F,0,0,1,0,0,0,1 @ F,0,0,1,0,0,0,1 @ F,0,0,1,0,0,0,1"
       radius="25"
       unit="px"
       method="auto"
       mode="F"
       chamfer_steps="1"
       flexible="false"
       use_knot_distance="true"
       apply_no_radius="true"
       apply_with_radius="true"
       only_selected="true"
       hide_knots="false" />
    <inkscape:path-effect
       effect="fillet_chamfer"
       id="path-effect1"
       is_visible="true"
       lpeversion="1"
       nodesatellites_param="F,0,0,1,0,0,0,1 @ F,0,0,1,0,0,0,1 @ F,0,0,1,0,0,0,1 @ F,0,0,1,0,0,0,1 @ F,0,0,1,0,0,0,1 @ F,0,0,1,0,0,0,1 @ F,0,0,1,0,0,0,1 @ F,0,0,1,0,0,0,1 @ F,0,0,1,0,0,0,1 @ F,0,0,1,0,0,0,1 @ F,0,0,1,0,0,0,1 @ F,0,0,1,0,0,0,1 @ F,0,0,1,0,0,0,1 @ F,0,0,1,0,0,0,1 @ F,0,0,1,0,0,0,1 @ F,0,0,1,0,0,0,1 @ F,0,0,1,0,0,0,1 @ F,0,0,1,0,0,0,1 @ F,0,0,1,0,0,0,1 @ F,0,0,1,0,0,0,1 @ F,0,0,1,0,0,0,1 @ F,0,0,1,0,0,0,1 @ F,0,0,1,0,0,0,1 @ F,0,0,1,0,0,0,1 @ F,0,0,1,0,0,0,1 @ F,0,0,1,0,0,0,1 @ F,0,0,1,0,0,0,1 @ F,0,0,1,0,0,0,1 @ F,0,0,1,0,0,0,1 @ F,0,0,1,0,0,0,1 @ F,0,0,1,0,0,0,1 @ F,0,0,1,0,0,0,1 @ F,0,0,1,0,0,0,1 @ F,0,0,1,0,0,0,1 @ F,0,0,1,0,0,0,1 @ F,0,0,1,0,0,0,1 @ F,0,0,1,0,0,0,1 @ F,0,0,1,0,0,0,1 @ F,0,0,1,0,0,0,1 @ F,0,0,1,0,0,0,1 @ F,0,0,1,0,0,0,1 @ F,0,0,1,0,0,0,1 @ F,0,0,1,0,0,0,1 @ F,0,0,1,0,0,0,1 @ F,0,0,1,0,0,0,1 @ F,0,0,1,0,0,0,1 @ F,0,0,1,0,0,0,1 @ F,0,0,1,0,0,0,1 @ F,0,0,1,0,0,0,1 @ F,0,0,1,0,0,0,1 @ F,0,0,1,0,0,0,1 @ F,0,0,1,0,0,0,1 @ F,0,0,1,0,0,0,1 @ F,0,0,1,0,0,0,1 @ F,0,0,1,0,0,0,1 @ F,0,0,1,0,0,0,1 @ F,0,0,1,0,0,0,1 @ F,0,0,1,0,0,0,1 @ F,0,0,1,0,0,0,1 @ F,0,0,1,0,0,0,1 @ F,0,0,1,0,0,0,1 @ F,0,0,1,0,0,0,1 @ F,0,0,1,0,0,0,1 @ F,0,0,1,0,0,0,1 @ F,0,0,1,0,0,0,1 @ F,0,0,1,0,0,0,1 @ F,0,0,1,0,0,0,1 @ F,0,0,1,0,0,0,1 @ F,0,0,1,0,0,0,1 @ F,0,0,1,0,0,0,1 @ F,0,0,1,0,0,0,1 @ F,0,0,1,0,0,0,1 @ F,0,0,1,0,0,0,1 @ F,0,0,1,0,0,0,1 @ F,0,0,1,0,0,0,1 @ F,0,0,1,0,0,0,1 @ F,0,0,1,0,0,0,1 @ F,0,0,1,0,0,0,1 @ F,0,0,1,0,0,0,1 @ F,0,0,1,0,0,0,1 @ F,0,0,1,0,0,0,1 @ F,0,0,1,0,0,0,1 @ F,0,0,1,0,0,0,1 @ F,0,0,1,0,0,0,1 @ F,0,0,1,0,0,0,1 @ F,0,0,1,0,0,0,1 @ F,0,0,1,0,0,0,1 @ F,0,0,1,0,0,0,1 @ F,0,0,1,0,0,0,1 @ F,0,0,1,0,0,0,1 @ F,0,0,1,0,0,0,1 @ F,0,0,1,0,0,0,1 @ F,0,0,1,0,0,0,1 @ F,0,0,1,0,0,0,1 @ F,0,0,1,0,0,0,1 @ F,0,0,1,0,0,0,1 @ F,0,0,1,0,0,0,1 @ F,0,0,1,0,0,0,1 @ F,0,0,1,0,0,0,1 @ F,0,0,1,0,0,0,1 @ F,0,0,1,0,0,0,1 @ F,0,0,1,0,0,0,1 @ F,0,0,1,0,0,0,1 @ F,0,0,1,0,0,0,1 @ F,0,0,1,0,0,0,1 @ F,0,0,1,0,0,0,1 @ F,0,0,1,0,0,0,1 @ F,0,1,1,0,0.84,0,1 @ F,0,1,1,0,0.84,0,1 | F,0,0,1,0,0,0,1 @ F,0,0,1,0,0,0,1 @ F,0,0,1,0,0,0,1 @ F,0,0,1,0,0,0,1 @ F,0,0,1,0,0,0,1 @ F,0,0,1,0,0,0,1 @ F,0,0,1,0,0,0,1 |  | F,0,0,1,0,0,0,1 @ F,0,0,1,0,0,0,1 @ F,0,0,1,0,0,0,1 @ F,0,0,1,0,0,0,1 @ F,0,0,1,0,0,0,1 @ F,0,0,1,0,0,0,1"
       radius="28"
       unit="px"
       method="auto"
       mode="F"
       chamfer_steps="1"
       flexible="false"
       use_knot_distance="true"
       apply_no_radius="true"
       apply_with_radius="true"
       only_selected="true"
       hide_knots="false" />
    <inkscape:path-effect
       effect="fillet_chamfer"
       id="path-effect6"
       is_visible="true"
       lpeversion="1"
       nodesatellites_param="F,0,0,1,0,0,0,1 @ F,0,0,1,0,0,0,1 @ F,0,0,1,0,0,0,1 @ F,0,0,1,0,0,0,1 @ F,0,0,1,0,0,0,1 @ F,0,0,1,0,0,0,1 @ F,0,0,1,0,0,0,1 @ F,0,0,1,0,0,0,1 @ F,0,0,1,0,0,0,1 @ F,0,0,1,0,0,0,1 @ F,0,0,1,0,0,0,1 @ F,0,0,1,0,0,0,1 @ F,0,0,1,0,0,0,1 @ F,0,0,1,0,0,0,1 @ F,0,0,1,0,0,0,1 @ F,0,0,1,0,0,0,1 @ F,0,0,1,0,0,0,1 @ F,0,0,1,0,0,0,1 @ F,0,0,1,0,0,0,1 @ F,0,0,1,0,0,0,1 @ F,0,0,1,0,0,0,1 @ F,0,0,1,0,0,0,1 @ F,0,0,1,0,0,0,1 @ F,0,0,1,0,0,0,1 @ F,0,0,1,0,0,0,1 @ F,0,0,1,0,0,0,1 @ F,0,0,1,0,0,0,1 @ F,0,0,1,0,0,0,1 @ F,0,0,1,0,0,0,1 @ F,0,0,1,0,0,0,1 @ F,0,0,1,0,0,0,1 @ F,0,0,1,0,0,0,1 @ F,0,0,1,0,0,0,1 @ F,0,0,1,0,0,0,1 @ F,0,0,1,0,0,0,1 @ F,0,0,1,0,0,0,1 @ F,0,0,1,0,0,0,1 @ F,0,0,1,0,0,0,1 @ F,0,0,1,0,0,0,1 @ F,0,0,1,0,0,0,1 @ F,0,0,1,0,0,0,1 @ F,0,0,1,0,0,0,1 @ F,0,0,1,0,0,0,1 @ F,0,0,1,0,0,0,1 @ F,0,0,1,0,0,0,1 @ F,0,0,1,0,0,0,1 @ F,0,0,1,0,0,0,1 @ F,0,0,1,0,0,0,1 @ F,0,0,1,0,0,0,1 @ F,0,0,1,0,0,0,1 @ F,0,0,1,0,0,0,1 @ F,0,0,1,0,0,0,1 @ F,0,0,1,0,0,0,1 @ F,0,0,1,0,0,0,1 @ F,0,0,1,0,0,0,1 @ F,0,0,1,0,0,0,1 @ F,0,0,1,0,0,0,1 @ F,0,0,1,0,0,0,1 @ F,0,0,1,0,0,0,1 @ F,0,0,1,0,0,0,1 @ F,0,0,1,0,0,0,1 @ F,0,0,1,0,0,0,1 @ F,0,0,1,0,0,0,1 @ F,0,0,1,0,0,0,1 @ F,0,0,1,0,0,0,1 @ F,0,0,1,0,0,0,1 @ F,0,0,1,0,0,0,1 @ F,0,0,1,0,0,0,1 @ F,0,0,1,0,0,0,1 @ F,0,0,1,0,0,0,1 @ F,0,0,1,0,0,0,1 @ F,0,0,1,0,0,0,1 @ F,0,0,1,0,0,0,1 @ F,0,0,1,0,0,0,1 @ F,0,0,1,0,0,0,1 @ F,0,0,1,0,0,0,1 @ F,0,0,1,0,0,0,1 @ F,0,0,1,0,0,0,1 @ F,0,0,1,0,0,0,1 @ F,0,0,1,0,0,0,1 @ F,0,0,1,0,0,0,1 @ F,0,0,1,0,0,0,1 @ F,0,0,1,0,0,0,1 @ F,0,0,1,0,0,0,1 @ F,0,0,1,0,0,0,1 @ F,0,0,1,0,0,0,1 @ F,0,0,1,0,0,0,1 @ F,0,0,1,0,0,0,1 @ F,0,0,1,0,0,0,1 @ F,0,0,1,0,0,0,1 @ F,0,0,1,0,0,0,1 @ F,0,0,1,0,0,0,1 @ F,0,0,1,0,0,0,1 @ F,0,0,1,0,0,0,1 @ F,0,0,1,0,0,0,1 @ F,0,0,1,0,0,0,1 @ F,0,0,1,0,0,0,1 @ F,0,0,1,0,0,0,1 @ F,0,0,1,0,0,0,1 @ F,0,0,1,0,0,0,1 @ F,0,0,1,0,0,0,1 @ F,0,0,1,0,0,0,1 @ F,0,0,1,0,0,0,1 @ F,0,0,1,0,0,0,1 @ F,0,0,1,0,0,0,1 @ F,0,0,1,0,0,0,1 @ F,0,0,1,0,0,0,1 @ F,0,1,1,0,0.21,0,1 @ F,0,1,1,0,0.21,0,1 | F,0,0,1,0,0,0,1 @ F,0,0,1,0,0,0,1 @ F,0,0,1,0,0,0,1 @ F,0,0,1,0,0,0,1 @ F,0,0,1,0,0,0,1 @ F,0,0,1,0,0,0,1 @ F,0,0,1,0,0,0,1 |  | F,0,0,1,0,0,0,1 @ F,0,0,1,0,0,0,1 @ F,0,0,1,0,0,0,1 @ F,0,0,1,0,0,0,1 @ F,0,0,1,0,0,0,1 @ F,0,0,1,0,0,0,1"
       radius="7"
       unit="px"
       method="auto"
       mode="F"
       chamfer_steps="1"
       flexible="false"
       use_knot_distance="true"
       apply_no_radius="true"
       apply_with_radius="true"
       only_selected="true"
       hide_knots="false" />
    <linearGradient
       id="linearGradient1"
       inkscape:collect="always">
      <stop
         style="stop-color:#ff9e00;stop-opacity:1;"
         offset="0"
         id="stop1" />
      <stop
         style="stop-color:#ffcc00;stop-opacity:1;"
         offset="1"
         id="stop2" />
    </linearGradient>
    <linearGradient
       inkscape:collect="always"
       xlink:href="#linearGradient1"
       id="linearGradient2"
       x1="4.0563149"
       y1="11.850733"
       x2="13.55044"
       y2="14.893755"
       gradientUnits="userSpaceOnUse"
       gradientTransform="matrix(0.63,0,0,0.62685559,0.12,0.15763846)" />
  </defs>
  <sodipodi:namedview
     id="namedview1"
     pagecolor="#000000"
     bordercolor="#000000"
     borderopacity="1"
     inkscape:showpageshadow="0"
     inkscape:pageopacity="0"
     inkscape:pagecheckerboard="1"
     inkscape:deskcolor="#000000"
     inkscape:zoom="1.16125"
     inkscape:cx="221.74381"
     inkscape:cy="159.74166"
     inkscape:window-width="3233"
     inkscape:window-height="1080"
     inkscape:window-x="1887"
     inkscape:window-y="0"
     inkscape:window-maximized="0"
     inkscape:current-layer="svg1"
     showgrid="false" />
  <title
     id="title1">Counter-Strike icon</title>
  <metadata
     id="metadata1">
    <rdf:RDF>
      <cc:Work
         rdf:about="">
        <dc:title>Counter-Strike icon</dc:title>
      </cc:Work>
    </rdf:RDF>
  </metadata>
  <path
     id="path5"
     style="fill:#ffcc00;fill-opacity:1;stroke-width:0.12;stroke-linecap:round;stroke-linejoin:round;stroke-miterlimit:1;paint-order:markers stroke fill"
     d="M 7.5709559,15.201947 0.1200019,7.6796815 V 1.1509901 c 0,-0.55045367 0.44312,-0.99361407 0.993574,-0.99357427 l 6.45738,4.673e-4 v 0 15.04404287 z"
     sodipodi:nodetypes="ccsscccc" />
  <path
     id="rect3"
     style="display:inline;fill:#000080;fill-opacity:1;stroke-width:0.12;stroke-linecap:round;stroke-linejoin:round;stroke-miterlimit:1;paint-order:markers stroke fill"
     d="m 7.7514002,15.202266 h 6.4573828 c 0.550454,0 0.993574,-0.44312 0.993574,-0.993574 V 1.151309 c 0,-0.55045363 -0.44312,-0.99357423 -0.993574,-0.99357423 0,0 -7.5990538,9.73e-5 -7.5873638,4.673e-4 h 1.18e-4 c 0.09288,0.00298 0.185318,0.017747 0.274336,0.045 0.136962,0.045447 0.255669,0.127266 0.383496,0.2089454 0.100485,0.063626 0.219142,0.090879 0.310429,0.1635937 0.04568,0.036358 0.0091,0.099928 0.0091,0.1453125 0.118692,0.28164623 0.182626,0.59056563 0.08221,0.89039063 -0.08221,0.099921 -0.2283,0.1272329 -0.346992,0.1726172 -0.01827,0.127189 0.02743,0.2452915 0.0457,0.3724805 -0.02741,0.018179 -0.04577,0.036373 -0.07318,0.054551 0.173502,-0.00909 0.347045,-0.045443 0.520547,-0.081738 0.06388,-0.063626 0.164289,-0.027297 0.246504,-0.036387 0.0091,-0.1272517 0.05478,-0.2453501 0.05478,-0.3725391 0.01827,0 0.0548,-0.00908 0.07301,-0.018164 0.0091,0.090894 1.8e-5,0.1818054 0.02742,0.2726368 0.04561,0.036358 0.118686,0.018162 0.173496,0.027188 0,0.036358 5.3e-5,0.072744 0.0091,0.1091015 1.059219,-0.00909 2.1275188,0 3.1867378,0 v 0.1544531 h 0.100488 V 1.6750779 h 0.118711 c 0,0.1635467 -0.0091,0.3179183 0,0.4814649 0.0125,0.011368 0.02872,0.017824 0.04565,0.018164 0,0.018179 0.0091,0.054536 0.0091,0.072715 0.03654,-0.036358 0.08224,-0.063589 0.136992,-0.04541 0.0091,0.027268 0.01823,0.054522 0.02736,0.090879 -0.03654,0.036358 -0.05477,0.081757 -0.0365,0.1362305 0.292257,0.00909 0.584433,0 0.885762,0 0.02734,-0.036358 0.07304,-0.054536 0.118711,-0.072715 0.01827,0.00915 0.04558,0.027301 0.05478,0.036328 h 0.429082 c 0.01827,0.072715 0.01829,0.1454407 0.0091,0.2090039 h -0.438281 c -0.0091,0.00909 -0.03657,0.03638 -0.05484,0.045469 -0.04561,-0.027268 -0.08212,-0.045447 -0.127793,-0.072715 h -0.794414 c -0.155232,0.045447 -0.319553,0.036352 -0.474785,0.00908 v 0.1726172 h -1.305762 c -0.05481,0.045447 -0.109561,0.072707 -0.182578,0.081797 0.02734,0.1362784 -0.127885,0.1725947 -0.182695,0.2725781 -0.03648,0.054536 -0.09121,0.090805 -0.1460158,0.1089844 -0.04567,0.2816462 0.05477,0.5451222 0.1278518,0.8086523 -0.08221,0.018179 -0.1735468,0.045395 -0.2557618,0.063574 -0.04561,0.1817254 -0.09132,0.3724584 -0.127793,0.5541211 -0.03654,0.1636093 -0.164401,0.2998938 -0.31957,0.363457 -0.10962,0.1272517 -0.255639,0.2544653 -0.429141,0.2635547 -0.06395,0.018179 -0.109661,-0.027275 -0.155273,-0.063633 -0.228249,0.018179 -0.438293,-0.090868 -0.6392,-0.1816993 -0.219114,-0.099921 -0.420021,-0.2271348 -0.63,-0.3452343 0.01827,0.1271889 -0.04567,0.2362241 -0.09135,0.3452343 0.100485,0.045447 0.23746,0.081771 0.292207,0.1907813 0.03654,0.081742 0.07307,0.1726573 0.07307,0.2725781 -0.0091,0.3270933 -0.04566,0.6541178 -0.06393,0.981211 0.0091,0.2362619 -0.109558,0.4724266 -0.273925,0.645 -0.109557,-0.00903 -0.200863,-0.054455 -0.301348,-0.099902 -0.03654,0.081805 -0.118675,0.1636339 -0.07307,0.2635547 0.03654,0.1180996 0.03654,0.2452476 0.09135,0.3542578 0.310464,0.3270932 0.575279,0.6905007 0.767051,1.0993359 0.191709,0.390719 0.337776,0.799544 0.493008,1.208379 0.0274,0 0.08222,-0.0091 0.109629,-0.0091 0.03654,0.1180995 -1.7e-5,0.2543835 0.07307,0.3634565 0.06388,0.09992 0.04565,0.218052 0.04565,0.336152 -0.01827,0.272557 -0.03652,0.545061 -0.06393,0.817618 -0.01827,0.190814 -0.06388,0.381646 -0.09129,0.572461 0.0091,0.145305 0.07307,0.290686 0.06387,0.436054 -0.0091,0.136341 -0.0091,0.281638 -0.118711,0.381621 0.0091,0.308915 -0.07306,0.617753 0.03656,0.917578 0.14616,0.199904 0.310423,0.390747 0.483925,0.563321 0.191709,0.09089 0.420047,0.10909 0.584414,0.272637 0.06388,0.09992 0.02739,0.218001 0.0091,0.327011 -0.390725,0.05451 -0.787185,0.05451 -1.17791,0 -0.155232,-0.03636 -0.301331,-0.09995 -0.456563,-0.118125 -0.210042,0.0091 -0.571347,0.398789 -0.02089,0.398789 z M 8.9880212,2.9821879 c -0.05364,0.00568 -0.110685,0.023866 -0.156328,0.0375 0.0091,0.063626 0.02735,0.1272256 -0.0091,0.1816992 -0.04567,0.018179 -0.100517,0.018201 -0.146192,0.045469 0.12789,0 0.255728,0.00909 0.383555,0 0.100422,-0.027268 0.06398,-0.1544527 0.06398,-0.2271679 -0.03197,-0.036358 -0.08224,-0.043181 -0.135878,-0.0375 z m -0.284238,0.019277 c 0.01827,0.018179 0.01827,0.018179 0,0 z M 8.5850722,3.292207 c -0.02741,0.036358 -0.0456,0.072744 -0.07307,0.1091016 h 5.9e-5 c 0.09135,0.099921 0.136989,0.2543957 0.219141,0.3543164 0.118692,-0.1544572 0.21003,-0.3180575 0.346992,-0.4543359 -0.164367,-0.00909 -0.328758,0.0091 -0.493125,-0.00908 z"
     sodipodi:nodetypes="sssssssccccccccccccccccccccccccccccccccccccccccccccccccccccccccccccccccccccccccsscccccssccsccccss" />
  <path
     style="display:inline;opacity:1;fill:url(#linearGradient2);stroke-width:1"
     d="m 5.8548938,0.43031888 c 0.273861,-0.24528859 0.68481,-0.33611997 1.040886,-0.22710978 0.136962,0.045447 0.255654,0.12725168 0.383481,0.20893097 0.100485,0.0636258 0.219177,0.0908941 0.310464,0.16360931 0.045675,0.0363576 0.00913,0.0999208 0.00913,0.14530512 0.118692,0.2816462 0.182637,0.5905607 0.082215,0.8903857 -0.082215,0.099921 -0.228312,0.1272517 -0.347004,0.172636 -0.01827,0.127189 0.027405,0.2452886 0.045675,0.3724776 -0.027405,0.018179 -0.045675,0.036358 -0.07308,0.054536 0.173502,-0.00909 0.347004,-0.045447 0.520506,-0.081742 0.063882,-0.063626 0.164304,-0.027268 0.246519,-0.036358 0.00914,-0.1272517 0.05481,-0.2453513 0.05481,-0.3725403 0.01827,0 0.05481,-0.00909 0.073017,-0.018179 0.00914,0.090894 0,0.1817881 0.027405,0.2726195 0.045612,0.036358 0.118692,0.018179 0.173502,0.027205 0,0.036358 0,0.072715 0.00907,0.1090729 1.059219,-0.00909 2.1275102,0 3.1867292,0 v 0.1544572 h 0.100485 V 1.675066 h 0.118692 c 0,0.1635467 -0.0091,0.3179412 0,0.4814878 a 0.069741,0.06939291 0 0 0 0.04567,0.018179 c 0,0.018179 0.0091,0.054536 0.0091,0.072715 0.03654,-0.036358 0.08221,-0.063626 0.136962,-0.045447 0.0091,0.027268 0.01827,0.054537 0.0274,0.090894 -0.03654,0.036358 -0.05481,0.081742 -0.03654,0.1362157 0.292257,0.00909 0.584451,0 0.88578,0 0.02734,-0.036358 0.07302,-0.054536 0.118692,-0.072715 0.01827,0.00915 0.04561,0.027331 0.05481,0.036358 h 0.429093 c 0.01827,0.072715 0.01827,0.1454305 0.0091,0.2089937 h -0.438291 c -0.0091,0.00909 -0.03654,0.036358 -0.05481,0.045447 -0.04561,-0.027268 -0.08215,-0.045447 -0.127827,-0.072715 h -0.794367 c -0.155232,0.045447 -0.319599,0.036358 -0.474831,0.00909 v 0.1726361 h -1.305738 c -0.05481,0.045447 -0.109557,0.072715 -0.182574,0.081805 0.02734,0.1362784 -0.1278902,0.1725734 -0.1827002,0.2725568 -0.036477,0.054536 -0.091224,0.090831 -0.146034,0.1090102 -0.045675,0.2816462 0.05481,0.5451136 0.12789,0.8086437 -0.082215,0.018179 -0.173565,0.045384 -0.25578,0.063563 -0.045612,0.1817254 -0.091287,0.3724776 -0.127764,0.5541403 -0.03654,0.1636093 -0.16443,0.2998877 -0.319599,0.3634509 -0.10962,0.1272517 -0.255654,0.2544407 -0.429156,0.2635301 -0.063945,0.018179 -0.10962,-0.027268 -0.155232,-0.063626 -0.228249,0.018179 -0.438291,-0.090894 -0.639198,-0.1817254 -0.219114,-0.099921 -0.420021,-0.2271098 -0.63,-0.3452094 0.01827,0.127189 -0.045675,0.2361992 -0.09135,0.3452094 0.100485,0.045447 0.237447,0.081805 0.292194,0.1908149 0.03654,0.081742 0.07308,0.172636 0.07308,0.2725568 -0.00913,0.3270933 -0.045675,0.6541238 -0.063945,0.9812169 0.00914,0.2362619 -0.109557,0.4724611 -0.273924,0.6450344 -0.109557,-0.00903 -0.200844,-0.054474 -0.301329,-0.099921 -0.03654,0.081805 -0.118692,0.1636093 -0.07308,0.2635301 0.03654,0.1180996 0.03654,0.2452886 0.09135,0.3542988 0.310464,0.3270932 0.575253,0.6904814 0.767025,1.0993166 0.191709,0.3907191 0.337806,0.7995543 0.493038,1.2083896 0.027405,0 0.082215,-0.00909 0.10962,-0.00909 0.03654,0.1181 0,0.254378 0.07308,0.363451 0.063882,0.09992 0.045612,0.21802 0.045612,0.33612 -0.01827,0.272557 -0.03654,0.545114 -0.063945,0.817671 -0.01827,0.190814 -0.063882,0.381629 -0.091287,0.572444 0.00913,0.145305 0.07308,0.290673 0.063882,0.436041 -0.00907,0.136341 -0.00907,0.281646 -0.118692,0.381629 0.00913,0.308915 -0.07308,0.617767 0.03654,0.917592 0.14616,0.199904 0.310464,0.390719 0.483966,0.563292 0.191709,0.09089 0.420021,0.109073 0.584388,0.27262 0.063882,0.09992 0.027342,0.21802 0.00913,0.32703 a 4.241349,4.2201799 0 0 1 -1.177911,0 c -0.155232,-0.03636 -0.301329,-0.09992 -0.456561,-0.118099 -0.210042,0.0091 -0.456561,0.09089 -0.64827,-0.05454 -0.01827,-0.245288 0.073017,-0.481488 0.118692,-0.71775 0.01827,-0.08174 0.100422,-0.136278 0.091287,-0.21802 -0.01827,-0.281646 -0.03654,-0.572382 -0.05481,-0.854028 -0.03654,-0.01818 -0.100422,-0.03636 -0.091287,-0.09089 0,-0.136216 -0.045675,-0.272494 -0.082152,-0.399746 -0.063945,-0.345209 -0.09135,-0.699571 -0.100485,-1.053869 -0.00914,-0.09998 0.05481,-0.172636 0.12789,-0.236262 0.01827,-0.154458 0.03654,-0.317941 0.045612,-0.472399 -0.027405,-0.0818 -0.09135,-0.14543 -0.12789,-0.218083 -0.164304,0.01818 -0.401688,0.05454 -0.50211,-0.118099 -0.237447,-0.354362 -0.483966,-0.7177502 -0.72135,-1.0720489 -0.100485,-0.00909 -0.219177,0 -0.310464,-0.063626 -0.100485,-0.1090729 -0.16443,-0.254378 -0.228312,-0.3906564 -0.027405,0.1090102 -0.045675,0.2271098 -0.10962,0.3179412 -0.054747,0.090894 -0.146034,0.1544572 -0.209979,0.2362618 -0.063882,0.1453678 -0.118692,0.2907357 -0.173439,0.4361035 -0.063945,0.1816628 -0.155232,0.3633888 -0.173502,0.5632928 -0.00914,0.09992 -0.027405,0.190815 -0.063945,0.281646 -0.045612,0.07272 -0.127827,0.09992 -0.200844,0.136279 -0.05481,0.118099 -0.09135,0.236199 -0.173502,0.336182 -0.05481,0.06356 -0.14616,0.08174 -0.182637,0.163484 -0.03654,0.109073 -0.09135,0.208994 -0.136962,0.308915 -0.01827,0.109072 0.05481,0.227172 0.01827,0.336182 -0.063945,0.272557 -0.200907,0.526935 -0.328734,0.772286 -0.063882,0.181663 -0.109557,0.372478 -0.200844,0.545114 -0.03654,0.07272 -0.12789,0.09089 -0.200907,0.09992 -0.082152,0.199904 -0.173502,0.390656 -0.228249,0.59965 -0.027405,0.199841 -0.027405,0.408835 -0.01827,0.608677 0,0.09089 0.05481,0.163609 0.09135,0.245351 0.036477,0.109073 0.00907,0.21802 -0.0092,0.327093 -0.356076,0.04538 -0.72135,0.08174 -1.068291,-0.02727 -0.03654,-0.02727 -0.027405,-0.07272 -0.03654,-0.109073 -0.027405,-0.163484 -0.045675,-0.33612 0.00914,-0.490577 0.118692,-0.427014 0.219114,-0.854028 0.337806,-1.281042 -0.045612,-0.04545 -0.109557,-0.08174 -0.109557,-0.154458 -0.00914,-0.118099 0,-0.245288 0.027405,-0.363388 0.05481,-0.199967 0.200907,-0.354361 0.273924,-0.545176 0.027405,-0.08174 0.01827,-0.163547 0.027405,-0.245289 0,-0.190814 0.10962,-0.345272 0.191772,-0.508756 0.082152,-0.136278 0.146034,-0.281646 0.255654,-0.399808 0.07308,-0.06356 0.07308,-0.163484 0.127827,-0.245289 0.05481,-0.09992 0.146097,-0.181725 0.146097,-0.299825 0.01827,-0.145368 -0.03654,-0.290735 -0.01827,-0.436103 0.03654,-0.4270145 0.118692,-0.8449391 0.191772,-1.2718905 -0.03654,-0.04551 -0.09135,-0.090894 -0.10962,-0.1545199 0.00914,-0.045384 0.01827,-0.081742 0.027405,-0.127189 L 3.1794728,8.3619225 c 0.03654,-0.054536 0.07308,-0.1180996 0.10962,-0.172636 -0.03654,-0.027268 -0.082215,-0.063563 -0.118755,-0.090894 0.045675,-0.1362158 0.027405,-0.33612 0.191709,-0.3996832 0.01827,0.00909 0.063945,0.018179 0.082215,0.027206 -0.027405,-0.2361992 -0.027405,-0.4814878 -0.05481,-0.7177497 -0.063882,-0.254378 -0.07308,-0.5177827 -0.045612,-0.7722859 0.091287,-0.1362157 0.264789,-0.1907521 0.420021,-0.1998416 -0.200907,-0.045384 -0.401814,-0.063563 -0.593523,-0.127189 -0.00914,-0.1635466 0.01827,-0.3270932 0.045675,-0.4905772 0.082152,-0.3180038 0.045612,-0.6450344 0.091287,-0.9721903 0.045675,-0.090831 0.164367,-0.1090102 0.264789,-0.090831 0.118692,0.018179 0.237384,-0.018179 0.356139,-0.054536 0,-0.045384 0.00913,-0.099921 0,-0.1453679 -0.07308,-0.3179411 -0.05481,-0.6450344 0,-0.9539488 0.07308,-0.3997458 0.237384,-0.7904649 0.53865,-1.0720484 0.20097,-0.1908149 0.493101,-0.2817089 0.767088,-0.2726195 0.091287,0 0.146034,0.090894 0.219114,0.1454305 0.03654,-0.036358 0.07308,-0.072715 0.100422,-0.1090729 C 5.5078898,1.7386304 5.4348098,1.5750838 5.4439448,1.4115998 5.4622148,1.048149 5.5809068,0.67567136 5.8548308,0.43032008 m 2.84886,2.57117362 c 0.01827,0.018179 0.01827,0.018179 0,0 m 0.12789,0.018179 c 0.00907,0.063626 0.027342,0.1272517 -0.00913,0.1817254 -0.045675,0.018179 -0.100485,0.018179 -0.14616,0.045447 0.12789,0 0.255717,0.00909 0.383544,0 0.100422,-0.027268 0.063945,-0.1544572 0.063945,-0.2271724 -0.063945,-0.072715 -0.200907,-0.027268 -0.292194,0 M 8.5119818,3.401301 c 0.09135,0.099921 0.136962,0.254378 0.219114,0.3542987 0.118692,-0.1544572 0.210042,-0.3180038 0.347004,-0.4542822 -0.164367,-0.00909 -0.328734,0.00909 -0.493101,-0.00909 -0.027405,0.036358 -0.045612,0.072715 -0.07308,0.1090729 z"
     id="path1" />
  <path
     id="path4"
     style="display:inline;mix-blend-mode:soft-light;fill:#000000;fill-opacity:1;stroke-width:1"
     d="M 6.6214267,0.15820109 C 6.3427904,0.14925665 6.060299,0.24634403 5.8549032,0.43031047 h -5.86e-5 C 5.5809206,0.67566175 5.4621967,1.0481292 5.4439266,1.41158 5.4347917,1.575064 5.507885,1.7386463 5.553497,1.8931035 5.526155,1.9294614 5.4896073,1.9657884 5.4530673,2.0021464 5.3799873,1.9476099 5.3252722,1.8567167 5.2339852,1.8567167 4.9599982,1.8476273 4.6678459,1.9385386 4.4668759,2.1293535 4.1656099,2.410937 4.0013035,2.8016389 3.9282235,3.2013847 c -0.05481,0.3089144 -0.07308,0.6360238 0,0.9539648 0.00913,0.045447 0,0.099987 0,0.1453711 -0.118755,0.036357 -0.2374408,0.07273 -0.3561328,0.054551 -0.100422,-0.018179 -0.2191101,-1.07e-5 -0.2647851,0.09082 -0.045675,0.3271559 -0.00914,0.6541837 -0.091289,0.9721875 -0.027405,0.163484 -0.054843,0.3270003 -0.045703,0.4905469 0.191709,0.063626 0.3926477,0.081823 0.5935547,0.127207 -0.038328,0.00224 -0.077792,0.00743 -0.116836,0.015762 -8.931e-4,1.843e-4 -0.0018,4.016e-4 -0.0027,5.859e-4 C 3.5262178,6.0780659 3.4120262,6.1340989 3.343805,6.2358965 3.316337,6.4903997 3.325568,6.7537841 3.38945,7.0081621 3.416855,7.244424 3.41683,7.4897364 3.444235,7.7259356 3.425965,7.7169056 3.380298,7.7077796 3.362028,7.6986896 3.197724,7.7622526 3.2159843,7.9622004 3.1703093,8.0984162 c 0.03654,0.027331 0.082229,0.063611 0.1187695,0.090879 -0.03654,0.054536 -0.073089,0.1180812 -0.1096289,0.1726171 l 0.082148,0.1362891 c -0.00914,0.045447 -0.018282,0.081823 -0.027422,0.127207 0.01827,0.063626 0.073089,0.1090018 0.1096289,0.1545118 -0.07308,0.4269514 -0.1552374,0.8448798 -0.1917774,1.2718948 -0.01827,0.145368 0.036551,0.290745 0.018281,0.436113 0,0.1181 -0.091264,0.199904 -0.1460742,0.299824 -0.054747,0.0818 -0.054772,0.181714 -0.1278516,0.245274 -0.10962,0.118162 -0.1734925,0.263507 -0.2556445,0.399785 -0.082152,0.163484 -0.1917774,0.317955 -0.1917774,0.508769 -0.00914,0.08174 -1.69e-5,0.163534 -0.027422,0.245274 -0.073017,0.190815 -0.2191157,0.345247 -0.2739257,0.545215 -0.027405,0.1181 -0.036503,0.245299 -0.027363,0.363398 0,0.07272 0.0639,0.109003 0.1095117,0.154453 -0.118692,0.427014 -0.219101,0.854021 -0.337793,1.281035 -0.054815,0.154457 -0.036546,0.327063 -0.00914,0.490547 0.00914,0.03635 2.25e-5,0.08183 0.036563,0.109102 0.346941,0.10901 0.7122053,0.07263 1.0682813,0.02725 0.01827,-0.109073 0.045676,-0.217998 0.0092,-0.327071 -0.03654,-0.08174 -0.091348,-0.1545 -0.091348,-0.24539 -0.00914,-0.199842 -0.00912,-0.408831 0.018281,-0.608672 0.054747,-0.208994 0.1460706,-0.399745 0.2282226,-0.599649 0.073017,-0.009 0.164378,-0.02718 0.200918,-0.0999 0.091287,-0.172636 0.1369774,-0.363435 0.2008594,-0.545097 0.127827,-0.245351 0.2647659,-0.499768 0.3287109,-0.772325 0.03654,-0.10901 -0.036551,-0.22708 -0.018281,-0.336152 0.045612,-0.09992 0.1004521,-0.199833 0.1369921,-0.308906 0.036477,-0.08174 0.1278268,-0.09992 0.1826368,-0.163477 0.082152,-0.09998 0.1186861,-0.218112 0.1734961,-0.336211 0.073017,-0.03636 0.1552473,-0.06357 0.2008593,-0.136289 0.03654,-0.09083 0.054786,-0.181681 0.063926,-0.281601 0.01827,-0.199904 0.1095511,-0.381658 0.1734961,-0.5633206 0.054747,-0.1453679 0.1095555,-0.2907455 0.1734375,-0.4361133 0.063945,-0.081805 0.155253,-0.145356 0.21,-0.23625 0.063945,-0.090831 0.082165,-0.2089195 0.1095703,-0.3179297 0.063882,0.1362784 0.1278549,0.2815716 0.2283399,0.3906445 0.091287,0.063626 0.2100032,0.054543 0.3104882,0.063633 0.237384,0.3542987 0.4839007,0.7176691 0.7213477,1.0720311 0.100422,0.172639 0.3377858,0.136305 0.5020898,0.118125 0.03654,0.07265 0.1005052,0.136286 0.1279102,0.218086 -0.00907,0.154458 -0.027375,0.317925 -0.045645,0.472383 -0.07308,0.06363 -0.1369916,0.13627 -0.1278516,0.23625 0.00913,0.354298 0.036485,0.708658 0.1004297,1.053867 0.036477,0.127252 0.082207,0.26351 0.082207,0.399726 -0.00913,0.05453 0.054749,0.07276 0.091289,0.09094 0.01827,0.281646 0.036515,0.572358 0.054785,0.854004 0.00913,0.08174 -0.073019,0.136287 -0.091289,0.218027 -0.045675,0.236262 -0.136981,0.472486 -0.118711,0.717774 0.191709,0.14543 0.4382393,0.06359 0.6482813,0.05449 0.155232,0.01818 0.3013305,0.08176 0.4565625,0.118125 a 4.241349,4.2201799 0 0 0 1.1779101,0 c 0.018212,-0.10901 0.054741,-0.227092 -0.00914,-0.327012 -0.1643638,-0.163553 -0.3926433,-0.181753 -0.5843523,-0.272643 -0.173502,-0.172573 -0.3378243,-0.363416 -0.4839843,-0.56332 -0.10962,-0.299825 -0.027432,-0.608663 -0.036562,-0.917578 0.109622,-0.09998 0.1096409,-0.24528 0.1187109,-0.381621 0.0092,-0.145368 -0.054737,-0.29075 -0.063867,-0.436055 0.027405,-0.190815 0.073019,-0.381588 0.091289,-0.572402 0.027405,-0.272557 0.045656,-0.545119 0.063926,-0.817676 0,-0.1181 0.018296,-0.236232 -0.045586,-0.336152 -0.07308,-0.109073 -0.036585,-0.245357 -0.073125,-0.3634576 -0.027405,0 -0.082165,0.00908 -0.1095703,0.00908 C 8.1193001,9.5339361 7.9731747,9.1251116 7.7814657,8.7343925 7.5896937,8.3255573 7.3249375,7.9622084 7.0144735,7.6351152 6.9596635,7.526105 6.9596073,7.3988984 6.9230673,7.2807988 c -0.045612,-0.099921 0.036585,-0.1817497 0.073125,-0.2635547 0.100485,0.045447 0.191732,0.090931 0.301289,0.099961 0.164367,-0.1725733 0.2830658,-0.4087967 0.2739258,-0.6450586 0.01827,-0.3270931 0.054854,-0.6541176 0.063984,-0.9812109 0,-0.099921 -0.036585,-0.1908361 -0.073125,-0.2725781 -0.054747,-0.10901 -0.191663,-0.1453344 -0.292148,-0.1907814 0.045675,-0.1090102 0.1096176,-0.2180454 0.091348,-0.3452344 0.209979,0.1180996 0.410886,0.2453134 0.63,0.3452344 0.200907,0.090831 0.4109502,0.1998782 0.6391992,0.1816992 0.045612,0.036358 0.09127,0.081812 0.1552149,0.063633 C 8.9593818,5.2638187 9.1054004,5.1366052 9.2150204,5.0093535 9.3701894,4.9457903 9.4981093,4.8095643 9.5346493,4.645955 9.5711263,4.4642923 9.6167717,4.2735007 9.6623837,4.0917753 9.7445987,4.0735963 9.835989,4.0463801 9.918204,4.0282011 9.845124,3.764671 9.7446188,3.5012536 9.7902938,3.2196074 c 0.05481,-0.018179 0.1095387,-0.054507 0.1460157,-0.109043 0.05481,-0.099983 0.2100355,-0.1362997 0.1826955,-0.2725781 0.07302,-0.00909 0.127768,-0.03635 0.182578,-0.081797 h 1.305762 V 2.5835722 c 0.155232,0.027268 0.319611,0.036365 0.474843,-0.00908 h 0.794356 c 0.04568,0.027268 0.08218,0.045447 0.127793,0.072715 0.01827,-0.00909 0.04574,-0.036379 0.05484,-0.045469 h 0.438281 c 0.0092,-0.063563 0.0092,-0.1362889 -0.0091,-0.2090039 h -0.429141 c -0.0092,-0.00903 -0.03651,-0.027178 -0.05478,-0.036328 -0.04567,0.018179 -0.09137,0.036357 -0.118711,0.072715 -0.301329,0 -0.593505,0.00909 -0.885762,0 -0.01827,-0.054474 2.3e-5,-0.099873 0.03656,-0.1362305 -0.0091,-0.036357 -0.01832,-0.063611 -0.02742,-0.090879 -0.05475,-0.018179 -0.100394,0.00911 -0.136934,0.045469 0,-0.018179 -0.0091,-0.054536 -0.0091,-0.072715 a 0.069741,0.06939291 0 0 1 -0.04564,-0.018223 c -0.0091,-0.1635466 0,-0.3179182 0,-0.4814649 H 11.698692 V 2.2656425 H 11.598204 V 2.1111894 c -1.059219,0 -2.1275193,-0.00909 -3.1867383,0 -0.00907,-0.036358 -0.00902,-0.072744 -0.00902,-0.1091016 C 8.3476357,1.9930578 8.274503,2.0112578 8.228891,1.9749008 8.201486,1.8840698 8.210668,1.7931581 8.201528,1.7022641 8.183321,1.7113541 8.14679,1.7204281 8.12852,1.7204281 c 0,0.127189 -0.045704,0.2452873 -0.054844,0.372539 -0.082215,0.00909 -0.1826219,-0.027239 -0.2465039,0.036387 -0.173502,0.036295 -0.3469862,0.072648 -0.5204882,0.081738 0.027405,-0.018178 0.045661,-0.036372 0.073066,-0.054551 -0.01827,-0.127189 -0.063973,-0.2452915 -0.045703,-0.3724805 0.118692,-0.045384 0.2648358,-0.072696 0.3470508,-0.1726172 0.100422,-0.299825 0.036426,-0.6087444 -0.082266,-0.89039064 0,-0.0453843 0.036593,-0.10895491 -0.00908,-0.14531251 C 7.49846,0.50302495 7.3797437,0.47577221 7.2792587,0.4121464 7.1514317,0.33046712 7.0327246,0.24864809 6.8957626,0.20320109 c -0.089019,-0.0272526 -0.1814572,-0.0420185 -0.2743359,-0.045 z m -5.86e-4,0.0381445 c 0.089734,0.002798 0.178954,0.0169607 0.2646094,0.0431836 0.129649,0.0433381 0.2460333,0.12268359 0.3740625,0.20449219 0.1077326,0.0682148 0.2239802,0.0947292 0.3063867,0.16037109 0.010609,0.008443 0.011362,0.0145806 0.00861,0.0355078 -0.00277,0.0209272 -0.013535,0.0480651 -0.013535,0.0808008 v 0.007383 l 0.00369,0.007324 C 7.6802576,1.0096929 7.737034,1.3059517 7.6446493,1.5912285 7.5728933,1.6724695 7.4419116,1.7029193 7.321036,1.7491386 l -0.020918,0.00738 -0.00369,0.022031 c -0.018837,0.131119 0.024805,0.2463267 0.044297,0.3611718 -0.018868,0.014239 -0.036218,0.028483 -0.054141,0.040371 l -0.1156641,0.075938 0.1378125,-0.00738 c 0.177466,-0.0093 0.3531468,-0.045738 0.5266407,-0.082031 l 0.011074,-0.0024 0.00738,-0.00861 c 0.022397,-0.022307 0.050438,-0.026895 0.089824,-0.026895 0.039388,0 0.085837,0.00651 0.1341211,0.00117 l 0.031992,-0.00363 0.00246,-0.030644 c 0.00794,-0.1106562 0.044263,-0.2232889 0.050449,-0.3464649 0.00208,-4e-4 0.00407,-7.69e-4 0.00615,-0.00123 0.00378,0.075136 -9.436e-4,0.1527649 0.024609,0.2375391 l 0.00246,0.011016 0.00984,0.00732 c 0.032892,0.026219 0.072162,0.030644 0.1058203,0.031875 0.022441,8.212e-4 0.038772,0.00182 0.056601,0.0024 5.789e-4,0.02672 6.58e-5,0.052696 0.00738,0.082031 l 0.00738,0.029414 0.029531,-0.00123 c 1.0465144,-0.00898 2.1014115,-2.045e-4 3.1487695,0 V 2.302558 h 0.175957 V 1.7124003 h 0.04307 c -0.0012,0.1485207 -0.0086,0.2924678 0,0.4456641 v 0.015937 l 0.0123,0.00979 c 0.0098,0.00896 0.02346,0.00995 0.03568,0.014707 9.45e-4,0.00616 0.0014,0.012314 0.0025,0.01834 0.0023,0.013634 0.0037,0.027722 0.0037,0.030586 v 0.090644 l 0.06522,-0.063691 c 0.01604,-0.015962 0.03202,-0.029148 0.04799,-0.035508 0.01052,-0.00419 0.02232,-0.00212 0.03322,-0.00123 0.0065,0.019743 0.01334,0.038451 0.01969,0.063691 -0.02756,0.040516 -0.05373,0.085763 -0.03568,0.1395703 l 0.0074,0.024492 0.02707,0.00123 c 0.293829,0.00914 0.586603,-10e-8 0.887168,0 h 0.01846 l 0.01107,-0.014707 c 0.01592,-0.021169 0.05109,-0.03621 0.08736,-0.051445 0.0128,0.00838 0.02915,0.018022 0.02953,0.018398 l 0.01109,0.011012 h 0.409746 c 0.0084,0.046405 0.0087,0.091704 0.0049,0.1346484 h -0.414668 l -0.01107,0.011016 c -0.0063,0.00629 -0.02065,0.016394 -0.03199,0.025723 -0.03568,-0.020434 -0.06834,-0.037126 -0.10459,-0.058769 l -0.0086,-0.00609 h -0.810879 l -0.0049,0.0024 c -0.146991,0.043034 -0.305586,0.034106 -0.457735,0.00738 l -0.0443,-0.00738 v 0.18 h -1.282148 l -0.0098,0.00855 c -0.05101,0.042298 -0.09757,0.06525 -0.163653,0.073476 l -0.03937,0.00492 0.0074,0.039141 c 0.0054,0.027055 0.0022,0.044992 -0.0062,0.062461 -0.0084,0.017469 -0.02361,0.034837 -0.04307,0.052617 -0.038355,0.035056 -0.094129,0.069958 -0.127969,0.1297851 -0.031097,0.046494 -0.079084,0.078472 -0.1267383,0.094277 l -0.020918,0.00738 -0.00369,0.022031 c -0.045391,0.279897 0.050362,0.5364437 0.1218165,0.7860352 -0.074259,0.017832 -0.1520748,0.03973 -0.2214844,0.055078 l -0.022149,0.00486 -0.00621,0.023262 C 9.580023,4.264695 9.5344039,4.4559546 9.4977352,4.6385722 9.4639992,4.7879591 9.345238,4.9150148 9.2011923,4.9740214 l -0.00861,0.00369 -0.00615,0.00732 c -0.107017,0.124109 -0.2463551,0.241606 -0.4024805,0.2497851 l -0.00369,0.00117 h -0.00492 c -0.021685,0.00616 -0.035759,0.00333 -0.055371,-0.00732 -0.019612,-0.010648 -0.041215,-0.029854 -0.065215,-0.048984 l -0.012305,-0.00979 -0.014766,0.00123 C 8.4133605,5.1882196 8.2098872,5.08503 8.0076376,4.9935917 7.7916125,4.8950795 7.5912065,4.7683226 7.3800985,4.6495878 l -0.066445,-0.037969 0.011074,0.075938 c 0.016096,0.1120407 -0.041542,0.2133659 -0.088594,0.325664 l -0.014766,0.033047 0.033223,0.015879 c 0.1047999,0.047398 0.2276019,0.082903 0.2731641,0.1714453 0.036112,0.080789 0.070137,0.1663123 0.070137,0.2571094 -0.00913,0.3246054 -0.045661,0.6513806 -0.063984,0.9794531 v 0.00123 0.00246 c 0.00836,0.2162299 -0.1045112,0.4334647 -0.255938,0.598712 -0.090842,-0.012525 -0.1726426,-0.04729 -0.2657812,-0.089414 l -0.034453,-0.015879 -0.015996,0.034277 c -0.015901,0.035593 -0.044812,0.076734 -0.066445,0.1248632 -0.021634,0.04813 -0.034078,0.1089944 -0.00615,0.1702149 0.032911,0.1098377 0.033025,0.2371625 0.092285,0.3550195 l 0.00246,0.00492 0.00369,0.00369 c 0.3082245,0.324743 0.5706668,0.6851167 0.7604297,1.089668 v 0.00123 c 0.1904698,0.3881978 0.3355518,0.7954545 0.490957,1.2047461 l 0.00984,0.024492 h 0.02584 c 0.017905,0 0.038512,-0.00266 0.059062,-0.00492 0.00752,-8.149e-4 0.011477,-5.239e-4 0.018457,-0.00123 0.0095,0.045504 0.013309,0.093314 0.017227,0.1468947 0.00473,0.06431 0.014424,0.13415 0.056602,0.197109 0.054148,0.0857 0.039375,0.193156 0.039375,0.314649 -0.018213,0.271743 -0.036741,0.543296 -0.063984,0.814219 -0.01793,0.187236 -0.063318,0.377344 -0.091055,0.570468 v 0.0037 0.0049 c 0.00972,0.154661 0.072392,0.298068 0.063984,0.430957 -0.00919,0.138099 -0.01088,0.268533 -0.1070508,0.35625 l -0.012305,0.01107 v 0.01711 c 0.00892,0.301546 -0.075172,0.615938 0.039375,0.929238 l 0.00129,0.0062 0.00369,0.0037 c 0.1473564,0.20154 0.3123493,0.394087 0.4872656,0.568067 l 0.00492,0.0049 0.00615,0.0024 c 0.1987184,0.09422 0.4156689,0.11338 0.5684766,0.261973 0.045089,0.07378 0.021576,0.167902 0.00375,0.265722 -0.376929,0.04967 -0.7590886,0.05255 -1.1357227,0 -0.1495297,-0.03544 -0.295176,-0.09858 -0.4565039,-0.11748 h -0.00375 -0.00246 c -0.1092974,0.0047 -0.2234992,0.02731 -0.3309961,0.03059 -0.1007263,0.0031 -0.1915596,-0.0176 -0.2743945,-0.07348 -0.010269,-0.226143 0.069343,-0.451875 0.1144336,-0.684375 v -0.0013 c 0.00713,-0.03062 0.028034,-0.06028 0.050449,-0.09551 0.022642,-0.03558 0.046653,-0.07938 0.040605,-0.133476 l 0.00129,0.0024 c -0.01827,-0.281595 -0.037101,-0.572891 -0.055371,-0.85459 l -0.00129,-0.02203 -0.019687,-0.0098 c -0.021641,-0.01077 -0.04452,-0.01883 -0.057832,-0.02818 -0.013306,-0.0094 -0.015646,-0.0095 -0.013535,-0.02203 l 0.00129,-0.0037 v -0.0024 c 0,-0.143254 -0.046425,-0.281283 -0.082441,-0.406465 C 7.0805079,12.119407 7.0521629,11.767 7.0430615,11.413986 v -0.0013 -0.0013 c -0.00755,-0.08259 0.045089,-0.14299 0.115664,-0.204433 l 0.011074,-0.0098 0.00123,-0.01465 c 0.018289,-0.154627 0.036373,-0.319229 0.045527,-0.475079 l 0.00129,-0.0061 -0.00246,-0.0073 c -0.031122,-0.09291 -0.097836,-0.158025 -0.1304297,-0.222832 l -0.011074,-0.02326 -0.02707,0.0024 c -0.082916,0.0092 -0.179998,0.02174 -0.2657813,0.01225 -0.085783,-0.0095 -0.1561696,-0.03724 -0.1993359,-0.111446 v -0.0013 l -0.00129,-0.0013 C 6.342747,9.9943482 6.0965404,9.6305014 5.8592392,9.2763261 l -0.00984,-0.014707 -0.018457,-0.00123 C 5.7263699,9.2509586 5.6189577,9.2553155 5.5417782,9.2028496 5.4497142,9.1006144 5.3858662,8.9616054 5.3227548,8.8269706 l -0.044297,-0.095508 -0.02584,0.1028907 C 5.2246131,8.9457501 5.2050811,9.058117 5.1480282,9.1391581 v 0.00129 l -0.00123,0.00123 C 5.0975827,9.2233987 5.0089018,9.2862499 4.940079,9.3742949 l -0.00369,0.00369 -0.00123,0.00492 C 4.8707481,9.5294711 4.8151809,9.6745817 4.7604306,9.8199589 v 0.00129 c -0.062835,0.1785084 -0.1568458,0.3638781 -0.1759571,0.5729881 -0.00875,0.09569 -0.026623,0.180431 -0.060293,0.265665 -0.037445,0.05754 -0.1078531,0.08364 -0.1833399,0.12123 l -0.012305,0.0061 -0.00492,0.01225 c -0.055984,0.12063 -0.092642,0.234066 -0.1685743,0.326894 -0.021807,0.02529 -0.05396,0.04477 -0.089824,0.06855 -0.035864,0.02378 -0.075871,0.0535 -0.098438,0.104063 v 0.0024 l -0.00123,0.0013 C 3.9303957,11.407428 3.8766,11.505707 3.8301962,11.607361 l -0.00246,0.0049 v 0.0049 c -0.010842,0.06473 0.00477,0.125332 0.015996,0.181172 0.011228,0.05584 0.018273,0.105857 0.00369,0.149356 l -0.00123,0.0013 v 0.0024 c -0.062412,0.266023 -0.1980829,0.517106 -0.3260742,0.762773 l -0.00123,0.0024 v 0.0024 c -0.064754,0.184135 -0.110974,0.372837 -0.1993359,0.539941 v 0.0013 c -0.013198,0.02626 -0.036549,0.04373 -0.067676,0.05631 -0.031127,0.01258 -0.069248,0.01889 -0.1045899,0.02326 l -0.020918,0.0024 -0.00861,0.0208 c -0.081625,0.198621 -0.1741781,0.390163 -0.2300977,0.603633 l -0.00123,0.0023 v 0.0024 c -0.027772,0.202514 -0.027538,0.413106 -0.018457,0.613418 0,0.10446 0.059071,0.181579 0.093516,0.257109 0.028858,0.08629 0.00723,0.179258 -0.00984,0.27668 -0.3422764,0.04287 -0.6876344,0.07564 -1.0126758,-0.02449 -0.00494,-0.0053 -0.00903,-0.01051 -0.011074,-0.02203 -0.00263,-0.01484 -0.00243,-0.03538 -0.00861,-0.06 l 0.00123,0.0024 c -0.027143,-0.161921 -0.043602,-0.327641 0.00738,-0.471328 v -0.0013 l 0.00123,-0.0013 c 0.1189595,-0.427923 0.2187221,-0.854508 0.3371484,-1.280566 l 0.00615,-0.02203 -0.015996,-0.01471 c -0.025492,-0.0254 -0.051863,-0.046 -0.070137,-0.06609 -0.018273,-0.02009 -0.028301,-0.03707 -0.028301,-0.06246 v -0.0013 -0.0013 c -0.00877,-0.11334 0.00101,-0.236695 0.02707,-0.350156 0.051623,-0.18834 0.195363,-0.3423 0.2719336,-0.542402 l 0.00123,-0.0013 c 0.030598,-0.09127 0.019778,-0.177152 0.028301,-0.253418 v -0.0013 -0.0024 c 0,-0.175569 0.1033549,-0.3238 0.1870313,-0.489727 l 0.00123,-0.0013 c 1.825e-4,-3.63e-4 -1.824e-4,-8.67e-4 0,-0.0013 0.08247,-0.137236 0.1451687,-0.276948 0.2473242,-0.388125 l 0.00246,-0.0024 c 0.041991,-0.03779 0.062579,-0.08488 0.07875,-0.128555 0.016533,-0.04465 0.029472,-0.08738 0.05291,-0.122402 l 0.00123,-0.0013 v -0.0013 c 0.049958,-0.09108 0.147965,-0.178593 0.1501172,-0.313418 v -0.0013 c 0.019338,-0.157111 -0.03391,-0.301907 -0.017227,-0.434648 v -0.0013 C 3.2266514,9.6303559 3.3078935,9.2138522 3.3810751,8.7863066 l 0.00369,-0.017168 -0.011074,-0.013476 c -0.038977,-0.04826 -0.083805,-0.088706 -0.099668,-0.135586 0.00812,-0.038928 0.016178,-0.073136 0.024609,-0.1150781 l 0.00369,-0.013477 -0.07752,-0.1297851 C 3.2576151,8.3110674 3.2896141,8.2564339 3.3207791,8.20992 l 0.019687,-0.029355 -0.028301,-0.02209 c -0.029895,-0.02231 -0.066602,-0.050659 -0.099668,-0.075879 0.018434,-0.067274 0.027817,-0.1395801 0.045527,-0.2008007 0.019168,-0.066264 0.050087,-0.1130248 0.1119727,-0.1408008 0.00768,0.00238 0.015626,0.00517 0.023379,0.00738 0.015997,0.00451 0.03203,0.00982 0.034453,0.011016 l 0.062754,0.030586 -0.00861,-0.068555 C 3.4549098,7.4881616 3.4555795,7.2431507 3.4278329,7.0039433 l -0.00123,-0.0024 v -0.00246 C 3.3651136,6.7542163 3.3582119,6.5001123 3.383536,6.253416 3.4665322,6.1365566 3.6210135,6.0819764 3.7662118,6.0734745 l 0.00615,-0.074707 C 3.5780834,5.9548795 3.3897658,5.9338422 3.2112704,5.8788261 3.2067704,5.7305348 3.2274463,5.5801045 3.2531063,5.4270097 v -0.00246 c 0.08283,-0.3229434 0.04815,-0.6471805 0.091055,-0.9647461 0.017663,-0.032743 0.046775,-0.052445 0.086133,-0.063633 0.040621,-0.011547 0.089904,-0.011921 0.1353516,-0.00369 h 0.00123 c 0.1299292,0.0199 0.2540806,-0.019953 0.372832,-0.056309 l 0.02707,-0.00738 v -0.028125 c 0,-0.040363 0.01,-0.097198 -0.00123,-0.1530468 v -0.00123 c -0.071425,-0.3107421 -0.054099,-0.632361 0,-0.9378516 v -0.00123 C 4.0377157,2.8134567 4.2001457,2.4309467 4.4934188,2.1568339 4.6854902,1.974468 4.9682259,1.8848493 5.2329306,1.8936308 h 0.00123 c 0.033035,0 0.060854,0.016938 0.092285,0.044062 0.031431,0.027123 0.063611,0.063696 0.1045898,0.094277 l 0.02584,0.01957 0.023379,-0.023262 c 0.03654,-0.036358 0.073581,-0.07302 0.1033593,-0.1126172 l 0.012305,-0.014707 -0.00615,-0.01834 C 5.5431065,1.7246225 5.4730481,1.564684 5.4814852,1.4136894 5.4994112,1.0570752 5.6163363,0.69503036 5.8801571,0.45872844 6.0776581,0.28183314 6.35164,0.18795272 6.6208407,0.19634559 Z M 8.9845712,2.9440996 c -0.059258,0.00629 -0.118518,0.025675 -0.1635938,0.039141 l 0.011074,0.035508 -0.038145,0.00615 c 0.00479,0.033563 0.011335,0.064505 0.012305,0.090586 8.19e-4,0.022593 -0.00328,0.039429 -0.012305,0.056309 -0.031015,0.00921 -0.072838,0.016674 -0.1168945,0.036738 -0.00742,0.00338 -0.012266,0.00172 -0.019687,0.00615 l -0.067676,0.040371 -0.022148,-0.00246 -0.012305,0.017168 c -0.00265,0.0035 -0.0037,0.00635 -0.00615,0.00979 l -0.00861,0.00492 h 0.00486 c -0.023379,0.033483 -0.04112,0.065638 -0.062754,0.094277 l -0.045527,0.059941 h 0.054141 c 0.077292,0.091216 0.1236132,0.2348006 0.2104102,0.3403711 l 0.030762,0.036738 0.029531,-0.037969 C 8.8826816,3.6206005 8.9729446,3.458855 9.1051571,3.3273027 l 0.060293,-0.05877 -0.068906,-0.00369 c 0.017722,-0.010205 0.038091,-0.01865 0.047988,-0.034277 0.015391,-0.024293 0.021382,-0.051334 0.023379,-0.077109 0.00397,-0.051549 -0.00615,-0.1033766 -0.00615,-0.1334765 v -0.014648 l -0.00984,-0.011016 C 9.1085781,2.9450335 9.0438919,2.9378324 8.9846298,2.9440996 Z m -0.253418,0.030586 -0.027188,0.02707 -0.026953,0.026836 c 0.00914,0.00909 0.013535,0.013418 0.013535,0.013418 0,0 0.01237,-0.014459 0.023613,-0.030059 0.011367,-0.015771 0.021585,-0.032697 0.016992,-0.037266 z m 0.2567578,0.0075 c 0.053644,-0.00568 0.1039064,0.00114 0.1358789,0.0375 0,0.072715 0.036438,0.1999 -0.063984,0.227168 -0.127827,0.00909 -0.2556061,0 -0.3834961,0 0.045675,-0.027268 0.1004578,-0.02729 0.1461328,-0.045469 0.036472,-0.054474 0.018211,-0.1180732 0.00914,-0.1816992 0.045643,-0.013634 0.1026836,-0.031819 0.1563284,-0.0375 z M 8.5850204,3.292205 c 0.164367,0.01818 0.3286994,5.06e-5 0.4930664,0.00914 C 8.9411248,3.437624 8.8497866,3.6011658 8.7310946,3.755623 8.6489426,3.6557023 8.603304,3.5012276 8.511954,3.4013066 h -5.86e-5 c 0.027468,-0.036358 0.04572,-0.072744 0.073125,-0.1091016 z" />
  <path
     id="rect2"
     style="display:inline;fill:#ffcc00;stroke:none;stroke-width:0.24;stroke-linecap:round;stroke-linejoin:round;stroke-miterlimit:1;paint-order:markers stroke fill"
     d="m 2.8590258,0.15763532 c -1.5174268,0 -2.7390239,1.21549928 -2.7390239,2.72535258 v 9.5938291 c 0,1.166869 0.73100852,2.155175 1.7629422,2.545229 -4.22e-5,-1.73e-4 -3.02e-5,-3.78e-4 -7.37e-5,-5.51e-4 -0.027405,-0.163483 -0.045656,-0.336106 0.00915,-0.490563 0.118692,-0.427014 0.2191083,-0.854012 0.3378003,-1.281026 -0.045612,-0.04545 -0.1095607,-0.08177 -0.1095607,-0.154485 -0.00913,-0.1181 -1.7e-5,-0.245269 0.027392,-0.363368 0.05481,-0.199967 0.2009221,-0.354366 0.2739391,-0.545181 0.027405,-0.08174 0.018257,-0.16354 0.027392,-0.245282 0,-0.190815 0.1096168,-0.345298 0.1917688,-0.508782 0.082152,-0.136278 0.1460466,-0.281641 0.2556666,-0.399804 0.07308,-0.06356 0.073086,-0.163477 0.1278333,-0.245281 0.05481,-0.09992 0.1460693,-0.181726 0.1460693,-0.299826 0.01827,-0.145368 -0.036502,-0.290725 -0.018239,-0.436093 C 3.1886221,9.6247902 3.270771,9.206875 3.343851,8.7799236 3.307311,8.7344136 3.252487,8.6890276 3.2342165,8.6254012 3.2433565,8.5800172 3.2524735,8.5436532 3.2616085,8.498206 L 3.1794803,8.3619019 c 0.03654,-0.054536 0.073095,-0.118094 0.1096345,-0.1726304 -0.03654,-0.027268 -0.082249,-0.063539 -0.118789,-0.09087 0.045675,-0.1362158 0.02743,-0.3361307 0.1917317,-0.3996938 0.01827,0.00909 0.063937,0.018191 0.082207,0.027218 C 3.4168599,7.489727 3.4168536,7.2444139 3.3894486,7.008152 3.3255666,6.753774 3.3163901,6.4903737 3.3438618,6.2358708 3.4351488,6.0996551 3.6086382,6.0451133 3.7638702,6.0360239 3.5629632,5.9906396 3.362038,5.9724911 3.170329,5.9088652 3.161194,5.7453186 3.1886242,5.581749 3.2160292,5.418265 3.2981812,5.1002612 3.2616412,4.7732194 3.3073174,4.4460634 3.3529924,4.3552321 3.47168,4.3370518 3.572102,4.3552306 c 0.118692,0.018179 0.2373922,-0.018149 0.3561472,-0.054507 0,-0.045384 0.00913,-0.09993 0,-0.1453766 -0.07308,-0.3179412 -0.05481,-0.6450325 0,-0.9539469 0.07308,-0.3997458 0.237384,-0.7904865 0.53865,-1.07207 0.20097,-0.1908148 0.4930871,-0.2816981 0.7670741,-0.2726087 0.091287,0 0.1460416,0.090914 0.2191216,0.1454501 0.03654,-0.036358 0.073064,-0.07273 0.1004062,-0.1090876 C 5.5078891,1.7386267 5.4348054,1.5750767 5.4439404,1.4115927 5.4622104,1.0481419 5.5809068,0.67567016 5.8548308,0.43031888 h 7.37e-5 C 6.0431888,0.26167887 6.2963386,0.16822573 6.551842,0.16035468 c 1.921e-4,-9.0267e-4 3.515e-4,-0.001812 5.172e-4,-0.002721 z"
     sodipodi:nodetypes="sssccccccccccccccccccccccccccccccccccccccccs" />
  <path
     id="path6"
     style="display:inline;fill:#ffcc00;stroke:none;stroke-width:0.24;stroke-linecap:round;stroke-linejoin:round;stroke-miterlimit:1;paint-order:markers stroke fill"
     d="M 5.2886302,8.8434975 C 5.2612252,8.9525076 5.2429741,9.0705991 5.1790329,9.1614305 5.1242859,9.2523245 5.0329737,9.3159096 4.9690287,9.3977136 4.9051467,9.5430815 4.8503531,9.6884386 4.7956061,9.8338064 4.7316611,10.015469 4.6403804,10.197191 4.6221104,10.397095 c -0.00914,0.09992 -0.02743,0.190813 -0.063972,0.281644 -0.045612,0.07272 -0.1277955,0.09991 -0.2008125,0.136268 -0.05481,0.1181 -0.091381,0.236204 -0.1735329,0.336188 -0.05481,0.06356 -0.1461373,0.08174 -0.1826143,0.163484 -0.03654,0.109073 -0.091376,0.209014 -0.1369878,0.308935 -0.01827,0.109073 0.05481,0.227178 0.01827,0.336188 -0.063945,0.272557 -0.2008931,0.52693 -0.3287201,0.772281 -0.063882,0.181663 -0.1095621,0.372472 -0.2008491,0.545108 -0.03654,0.07272 -0.1278692,0.09088 -0.2008862,0.0999 -0.082152,0.199904 -0.1735297,0.390657 -0.2282767,0.59965 -0.027405,0.199842 -0.027405,0.408846 -0.01827,0.608687 0,0.09089 0.054823,0.163613 0.091362,0.245355 0.036477,0.109073 0.00908,0.218007 -0.00919,0.32708 -0.1121003,0.01429 -0.2251053,0.02562 -0.3381702,0.03386 0.069372,0.0052 0.1387355,0.01047 0.2094876,0.01047 H 9.724224 c -0.096949,-0.138385 -0.1328865,-0.165482 -0.3174085,-0.28059 -9.4e-6,-5e-6 -2.71e-5,4e-6 -3.65e-5,0 -0.3907204,0.05451 -0.7871718,0.05452 -1.1778909,0 -0.155232,-0.03636 -0.3013214,-0.09991 -0.4565534,-0.118086 -0.210042,0.0091 -0.4565755,0.09088 -0.6482845,-0.05454 -0.01827,-0.245289 0.07304,-0.481512 0.1187153,-0.717774 0.01827,-0.08174 0.1004239,-0.13625 0.091289,-0.217992 -0.01827,-0.281646 -0.036509,-0.572395 -0.054779,-0.854042 -0.03654,-0.01818 -0.1004233,-0.03637 -0.091288,-0.09091 0,-0.136215 -0.045656,-0.272479 -0.082134,-0.39973 -0.063945,-0.34521 -0.091382,-0.699591 -0.1005171,-1.053889 -0.00914,-0.09998 0.054829,-0.172621 0.1279076,-0.236247 0.01827,-0.154457 0.036515,-0.317924 0.045587,-0.472382 C 7.151426,10.624211 7.087463,10.560562 7.050924,10.487909 6.8866196,10.506095 6.6492406,10.542465 6.5488186,10.36983 6.3113716,10.015469 6.0648652,9.652059 5.8274812,9.2977603 5.7269962,9.2886709 5.6082841,9.2977703 5.5169971,9.2341445 5.4165121,9.1250716 5.3525652,8.9797646 5.2886832,8.8434862 Z"
     sodipodi:nodetypes="ccccsccccccccccccccscscccccccccccccccccc" />
</svg>
