<?xml version="1.0" encoding="UTF-8" standalone="no"?>
<svg
   version="1.1"
   width="1920"
   height="1920"
   id="svg11"
   sodipodi:docname="observationduty1.svg"
   inkscape:version="1.3.2 (091e20ef0f, 2023-11-25, custom)"
   xmlns:inkscape="http://www.inkscape.org/namespaces/inkscape"
   xmlns:sodipodi="http://sodipodi.sourceforge.net/DTD/sodipodi-0.dtd"
   xmlns:xlink="http://www.w3.org/1999/xlink"
   xmlns="http://www.w3.org/2000/svg"
   xmlns:svg="http://www.w3.org/2000/svg">
  <defs
     id="defs11">
    <linearGradient
       id="linearGradient2"
       inkscape:collect="always">
      <stop
         style="stop-color:#8f8f8f;stop-opacity:1;"
         offset="0"
         id="stop1" />
      <stop
         style="stop-color:#d5d5d5;stop-opacity:0;"
         offset="1"
         id="stop2" />
    </linearGradient>
    <linearGradient
       id="linearGradient57"
       inkscape:collect="always">
      <stop
         style="stop-color:#d5d5d5;stop-opacity:0;"
         offset="0"
         id="stop57" />
      <stop
         style="stop-color:#ffffff;stop-opacity:1;"
         offset="1"
         id="stop56" />
    </linearGradient>
    <linearGradient
       id="linearGradient53"
       inkscape:collect="always">
      <stop
         style="stop-color:#8f8f8f;stop-opacity:1;"
         offset="0"
         id="stop54" />
      <stop
         style="stop-color:#2e2e2e;stop-opacity:1;"
         offset="1"
         id="stop55" />
    </linearGradient>
    <linearGradient
       id="linearGradient48"
       inkscape:collect="always">
      <stop
         style="stop-color:#ffffff;stop-opacity:1;"
         offset="0"
         id="stop48" />
      <stop
         style="stop-color:#ffffff;stop-opacity:0;"
         offset="1"
         id="stop49" />
    </linearGradient>
    <linearGradient
       id="linearGradient46"
       inkscape:collect="always">
      <stop
         style="stop-color:#000080;stop-opacity:1;"
         offset="0"
         id="stop46" />
      <stop
         style="stop-color:#000080;stop-opacity:0;"
         offset="1"
         id="stop47" />
    </linearGradient>
    <linearGradient
       id="linearGradient43"
       inkscape:collect="always">
      <stop
         style="stop-color:#d7f4ee;stop-opacity:1;"
         offset="0"
         id="stop44" />
      <stop
         style="stop-color:#5684d8;stop-opacity:1;"
         offset="1"
         id="stop45" />
    </linearGradient>
    <linearGradient
       id="linearGradient41"
       inkscape:collect="always">
      <stop
         style="stop-color:#000000;stop-opacity:1;"
         offset="0"
         id="stop41" />
      <stop
         style="stop-color:#000000;stop-opacity:0.50588232;"
         offset="0.5"
         id="stop43" />
      <stop
         style="stop-color:#424242;stop-opacity:0;"
         offset="1"
         id="stop42" />
    </linearGradient>
    <linearGradient
       id="linearGradient19"
       inkscape:collect="always">
      <stop
         style="stop-color:#8f8f8f;stop-opacity:1;"
         offset="0"
         id="stop19" />
      <stop
         style="stop-color:#d5d5d5;stop-opacity:0;"
         offset="1"
         id="stop20" />
    </linearGradient>
    <linearGradient
       inkscape:collect="always"
       xlink:href="#linearGradient19"
       id="linearGradient20"
       x1="1581.7607"
       y1="484.72787"
       x2="490.38641"
       y2="1298.0548"
       gradientUnits="userSpaceOnUse"
       gradientTransform="translate(300,-12)" />
    <linearGradient
       inkscape:collect="always"
       xlink:href="#linearGradient41"
       id="linearGradient42"
       x1="798.30225"
       y1="1435.3589"
       x2="416.19202"
       y2="829.83539"
       gradientUnits="userSpaceOnUse"
       gradientTransform="translate(300,-12)" />
    <linearGradient
       inkscape:collect="always"
       xlink:href="#linearGradient43"
       id="linearGradient45"
       x1="378.17191"
       y1="1368.9646"
       x2="796.35034"
       y2="948.71912"
       gradientUnits="userSpaceOnUse"
       gradientTransform="translate(300,-12)" />
    <linearGradient
       inkscape:collect="always"
       xlink:href="#linearGradient46"
       id="linearGradient47"
       x1="762.70514"
       y1="1367.8499"
       x2="546.79095"
       y2="1075.7776"
       gradientUnits="userSpaceOnUse"
       gradientTransform="translate(300,-12)" />
    <filter
       inkscape:collect="always"
       style="color-interpolation-filters:sRGB"
       id="filter47"
       x="-0.081310148"
       y="-0.060108444"
       width="1.1626203"
       height="1.1202169">
      <feGaussianBlur
         inkscape:collect="always"
         stdDeviation="7.3150049"
         id="feGaussianBlur47" />
    </filter>
    <linearGradient
       inkscape:collect="always"
       xlink:href="#linearGradient48"
       id="linearGradient49"
       x1="406.16797"
       y1="959.41211"
       x2="622.08215"
       y2="1251.4844"
       gradientUnits="userSpaceOnUse"
       gradientTransform="translate(300,-12)" />
    <linearGradient
       inkscape:collect="always"
       xlink:href="#linearGradient2"
       id="linearGradient51"
       gradientUnits="userSpaceOnUse"
       x1="1242.7919"
       y1="1298.0548"
       x2="490.38641"
       y2="674.51953"
       gradientTransform="translate(300,-12)" />
    <filter
       inkscape:collect="always"
       style="color-interpolation-filters:sRGB"
       id="filter51"
       x="-0.020327535"
       y="-0.015027113"
       width="1.0406551"
       height="1.0300542">
      <feGaussianBlur
         inkscape:collect="always"
         stdDeviation="1.8287514"
         id="feGaussianBlur51" />
    </filter>
    <radialGradient
       inkscape:collect="always"
       xlink:href="#linearGradient53"
       id="radialGradient55"
       cx="1236.3715"
       cy="265.83307"
       fx="1236.3715"
       fy="265.83307"
       r="467.35351"
       gradientTransform="matrix(1,0,0,0.8241157,0,83.693486)"
       gradientUnits="userSpaceOnUse" />
    <linearGradient
       inkscape:collect="always"
       xlink:href="#linearGradient57"
       id="linearGradient56"
       gradientUnits="userSpaceOnUse"
       x1="1065.3351"
       y1="617.82605"
       x2="1045.1749"
       y2="559.18701"
       gradientTransform="translate(299.99998,-12.00019)" />
  </defs>
  <sodipodi:namedview
     id="namedview11"
     pagecolor="#000000"
     bordercolor="#000000"
     borderopacity="1"
     inkscape:showpageshadow="0"
     inkscape:pageopacity="0"
     inkscape:pagecheckerboard="1"
     inkscape:deskcolor="#000000"
     inkscape:zoom="0.69532168"
     inkscape:cx="1004.571"
     inkscape:cy="765.11349"
     inkscape:window-width="1920"
     inkscape:window-height="1080"
     inkscape:window-x="1864"
     inkscape:window-y="0"
     inkscape:window-maximized="0"
     inkscape:current-layer="svg11"
     showgrid="false" />
  <g
     id="View Layer_LineSet"
     inkscape:label="View Layer_LineSet"
     transform="translate(263.0465,397.034)"
     style="display:inline">
    <g
       inkscape:groupmode="layer"
       id="strokes"
       inkscape:label="strokes">
      <path
         fill="none"
         stroke-width="3"
         stroke-linecap="butt"
         stroke-opacity="1"
         stroke="#ffffff"
         stroke-linejoin="round"
         d="m 1147.194,124.588 -9.975,0.701 -9.976,0.702 -9.975,0.702 -4.176,0.293 -9.455,3.255 -9.455,3.256 -9.456,3.255 -9.455,3.255 -9.455,3.255 -9.456,3.255 -9.455,3.255 -9.456,3.256 -9.455,3.255 -9.455,3.255 -9.456,3.255 -9.455,3.255 -9.455,3.255 -9.456,3.255 -9.455,3.256 -9.456,3.255 -9.455,3.255 -9.455,3.255 -9.456,3.255 -9.455,3.255 -9.455,3.255 -9.456,3.256 -9.455,3.255 -9.456,3.255 -9.455,3.255 -9.455,3.255 -9.456,3.255 -9.455,3.255 -9.455,3.256 -9.456,3.255 -9.455,3.255 -9.455,3.255 -9.456,3.255 -9.455,3.255 -9.456,3.256 -9.455,3.255 -9.455,3.255 -9.456,3.255 -9.455,3.255 -9.455,3.255 -9.456,3.255 -9.455,3.256 -9.456,3.255 -9.455,3.255 -9.455,3.255 -9.456,3.255 -9.455,3.255 -9.455,3.256 -9.456,3.255 -9.455,3.255 -9.455,3.255 -9.456,3.255 -9.455,3.255 -9.456,3.255 -9.455,3.256 -9.455,3.255 -9.456,3.255 -9.455,3.255 -9.455,3.255 -9.456,3.255 -9.455,3.255 -13.577,4.675 1.485,9.889 1.485,9.889 1.486,9.889 1.485,9.889 1.485,9.889 1.485,9.889 1.486,9.889 1.485,9.889 1.485,9.889 1.485,9.889 1.486,9.889 1.485,9.89 1.485,9.889 1.485,9.889 0.622,4.142"
         id="path2"
         style="display:inline;stroke:#202020;stroke-opacity:1" />
      <path
         fill="none"
         stroke-width="3"
         stroke-linecap="butt"
         stroke-opacity="1"
         stroke="#ffffff"
         stroke-linejoin="round"
         d="m 906.11,888.699 9.94,1.094 9.231,1.016 9.999,0.128 9.999,0.128 9.999,0.128 10,0.127 9.999,0.128 9.999,0.128 9.999,0.128 9.999,0.127 9.813,0.126 9.935,-1.139 9.935,-1.139 9.935,-1.139 9.935,-1.139 9.934,-1.138 9.935,-1.139 9.935,-1.139 9.935,-1.139 9.935,-1.139 4.27,-0.489 9.691,-2.467 9.691,-2.467 9.691,-2.467 9.691,-2.467 9.691,-2.467 9.691,-2.467 9.691,-2.467 9.691,-2.467 9.691,-2.467 10.598,-2.698 9.986,0.529 9.986,0.53 9.986,0.529 9.986,0.53 9.986,0.529 9.986,0.53 9.986,0.529 6.521,0.346 6.387,-7.694 6.388,-7.694 6.387,-7.694 6.388,-7.694 6.387,-7.694 6.388,-7.695 6.387,-7.694 6.388,-7.694 6.387,-7.694 6.388,-7.694 6.387,-7.694 6.388,-7.694 6.387,-7.694 6.388,-7.695 6.387,-7.694 6.388,-7.694 6.387,-7.694 6.388,-7.694 6.387,-7.694 6.388,-7.694 6.387,-7.695 6.388,-7.694 6.387,-7.694 6.388,-7.694 6.387,-7.694 6.388,-7.694 6.388,-7.694 6.387,-7.694 6.388,-7.695 6.387,-7.694 6.388,-7.694 6.387,-7.694 6.388,-7.694 6.387,-7.694 6.388,-7.694 6.387,-7.695 6.388,-7.694 6.387,-7.694 6.388,-7.694 6.387,-7.694 6.388,-7.694 6.387,-7.694 6.388,-7.694 6.387,-7.695 6.388,-7.694 6.387,-7.694 6.388,-7.694 6.387,-7.694 6.388,-7.694 6.387,-7.694 6.388,-7.694 6.387,-7.695 7.153,-8.616 -0.524,-9.986 -0.524,-9.986 -0.524,-9.987 -0.525,-9.986 -0.524,-9.986 -0.524,-9.986 -0.525,-9.987 -0.524,-9.986 -0.524,-9.986 -0.525,-9.986 -0.524,-9.987 -0.524,-9.986 -0.524,-9.986 -0.525,-9.986 -0.524,-9.987 -0.524,-9.986 -0.525,-9.986 -0.524,-9.986 -0.524,-9.987 -0.525,-9.986 -0.524,-9.986 -0.524,-9.986 -0.525,-9.987 -0.524,-9.986 -0.524,-9.986 -0.525,-9.986 -0.524,-9.987 -0.524,-9.986 -0.525,-9.986 -0.524,-9.986 -0.524,-9.987 -0.524,-9.986 -0.525,-9.986 -0.524,-9.986 -0.524,-9.987 -0.507,-9.644 -9.975,0.701 -9.975,0.702 -9.976,0.702 -9.975,0.701 -9.975,0.702 -2.815,0.198 -9.746,-2.241 -9.746,-2.241 -9.745,-2.242 -9.746,-2.241 -9.746,-2.241 -9.745,-2.241 -9.746,-2.241 -3.444,-0.792 -9.953,-0.974 -9.952,-0.974 -9.953,-0.974 -9.952,-0.974 -9.953,-0.975 -9.952,-0.974 -8.652,-0.846 -9.996,0.269 -9.997,0.27 -9.996,0.269 -9.997,0.27 -9.996,0.269 -9.996,0.27 -4.981,0.134 -9.922,1.248 -9.922,1.249 -9.921,1.248 -9.922,1.249 -9.922,1.248 -9.922,1.248 -3.612,0.455 -9.684,2.495 -9.684,2.496 -9.683,2.495 -9.684,2.495 -9.684,2.496 -9.683,2.495 -4.389,1.131 -9.43,3.33 -9.429,3.329 -9.429,3.33 -9.43,3.33 -9.429,3.329 -9.43,3.33 -9.429,3.329 -6.942,2.452 -9.43,3.329 -9.429,3.33 -9.429,3.329 -4.921,1.738 -9.429,3.33 -9.43,3.329 -9.429,3.33 -9.43,3.329 -9.429,3.33 -9.429,3.33 -9.43,3.329 -9.429,3.33 -9.43,3.329 -9.429,3.33 -9.43,3.33 -9.429,3.329 -9.429,3.33 -9.43,3.329 -9.429,3.33 -9.43,3.33 -9.429,3.329 -9.429,3.33 -9.43,3.329 -9.429,3.33 -9.43,3.33 -9.429,3.329 -9.429,3.33 -9.43,3.329 -9.429,3.33 -9.43,3.33 -9.429,3.329 -9.429,3.33 -9.43,3.329 -9.429,3.33 -9.43,3.33 -9.429,3.329 -9.43,3.33 -9.429,3.329 -9.429,3.33 -9.43,3.33 -9.429,3.329 -9.43,3.33 -9.429,3.329 -9.429,3.33 -9.43,3.33 -9.429,3.329 -9.43,3.33 -9.429,3.329 -9.429,3.33 -9.43,3.33 -9.384,3.313 -9.244,3.815 -9.244,3.814 -9.244,3.814 -9.244,3.815 -9.244,3.814 -9.244,3.815 -9.244,3.814 -9.244,3.814 -9.244,3.815 -1.414,0.583 -9.992,0.397 -9.992,0.397 -9.992,0.397 -9.992,0.397 -9.992,0.397 -9.992,0.397 -3.548,0.141"
         id="path1"
         style="display:inline;stroke:#393939;stroke-opacity:1" />
      <path
         id="path3"
         style="color:#000000;fill:url(#radialGradient55);stroke:none;stroke-linejoin:round;-inkscape-stroke:none"
         d="m 1602.7172,91.190609 -8.6953,4.9375 -8.6954,4.941411 -8.6933,4.93945 -8.6953,4.93945 -8.6953,4.93946 -8.6934,4.93945 -8.6953,4.9414 -8.6953,4.93946 -8.6953,4.93945 -8.6934,4.93945 -8.6953,4.93946 -8.6953,4.93945 -8.6953,4.93945 -8.6953,4.94141 -8.6934,4.93945 -8.6953,4.93946 -8.6953,4.93945 -8.6934,4.93945 -8.6933,4.93946 -8.6954,4.93945 -8.6933,4.93945 -8.6953,4.94141 -8.6953,4.93945 -8.6934,4.93945 -8.6953,4.93946 -8.6953,4.93945 -8.6953,4.93945 -8.6934,4.93946 -8.6953,4.9414 -8.6953,4.93946 -8.6953,4.93945 -8.6934,4.93945 -8.6953,4.93946 -8.6953,4.93945 -8.6953,4.93945 -8.6934,4.94141 -8.6953,4.93945 -8.6953,4.93945 -8.6953,4.93946 -8.6934,4.93945 -8.6953,4.94141 -11.8633,6.73828 -9.4199,0.375 -9.9922,0.39648 -9.9922,0.39844 -9.9941,0.39453 -9.9922,0.39844 -9.9902,0.39648 -9.9922,0.39649 -9.7637,0.38867 -2.1992,-0.5957 -9.6524,-2.61524 -9.6523,-2.61523 -9.6504,-2.61524 -9.6523,-2.61523 -9.6524,-2.61524 -9.6523,-2.61523 -9.6524,-2.61523 -9.6523,-2.61524 -9.6504,-2.61523 -9.6524,-2.61524 -9.6523,-2.61523 a 1.50015,1.50015 0 0 0 -0.1914,-0.0371 l -2.707,-0.36524 -9.9121,-1.33007 -9.9102,-1.33204 -9.9102,-1.33203 -9.9121,-1.33203 -9.91012,-1.33203 -9.91211,-1.33203 -9.91016,-1.33203 -9.91211,-1.33203 -9.9082,-1.33008 -9.91211,-1.33203 a 1.50015,1.50015 0 0 0 -0.19531,-0.0156 l -5.01758,-0.0137 -10,-0.0293 -10,-0.0293 -10,-0.0312 -10,-0.0293 -10,-0.0293 -10,-0.0293 -10,-0.0312 -10,-0.0293 -10,-0.0312 a 1.50015,1.50015 0 0 0 -0.15625,0.01 l -1.23828,0.12695 -9.94727,1.02344 -9.94922,1.02343 -9.94531,1.02344 -9.94922,1.02344 -9.94726,1.02344 -9.94727,1.02343 -9.94726,1.02344 -9.94727,1.02344 -9.94727,1.02344 a 1.50015,1.50015 0 0 0 -0.20703,0.0371 l -5.55078,1.36914 -9.70898,2.39453 -9.70899,2.39843 -9.70898,2.39454 -9.70703,2.40039 -4.80469,1.18164 -9.70703,2.39843 -9.70899,2.39454 -9.70898,2.40039 -9.70898,2.39257 0.71875,2.91407 9.70898,-2.39453 9.70898,-2.39844 9.70899,-2.39649 9.70703,-2.39453 4.80469,-1.18554 9.70703,-2.39844 9.70898,-2.39649 9.70899,-2.39453 9.70898,-2.39843 5.44922,-1.34375 9.84375,-1.01368 9.94727,-1.02343 9.94726,-1.02539 9.94922,-1.02344 9.94531,-1.02149 9.94922,-1.02343 9.94727,-1.02539 9.94726,-1.02344 9.94727,-1.02149 1.1582,-0.11914 9.92188,0.0293 10,0.0293 10,0.0293 10,0.0293 10,0.0293 10,0.0293 10,0.0312 10,0.0293 10,0.0293 4.91797,0.0156 9.81445,1.31836 9.91016,1.33203 9.91015,1.33203 9.91211,1.33204 9.91016,1.33203 9.91211,1.33008 9.9102,1.33203 9.9101,1.33203 9.9121,1.33203 9.9102,1.33203 2.6094,0.34961 9.5566,2.58984 9.6523,2.61524 9.6524,2.61523 9.6523,2.61524 9.6504,2.61328 9.6524,2.61523 9.6523,2.61524 9.6523,2.61523 9.6524,2.61524 9.6523,2.61523 9.6504,2.61523 2.4219,0.65625 a 1.50015,1.50015 0 0 0 0.4531,0.0508 l 9.9922,-0.39649 9.9922,-0.39648 9.9902,-0.39844 9.9922,-0.39649 9.9942,-0.39648 9.9921,-0.39648 9.9922,-0.39649 8.3536,-0.33203 0.7382,8.53516 0.8594,9.96289 a 1.50015,1.50015 0 0 0 0,0.002 l 0.8613,9.96289 0.8594,9.96289 0.8594,9.96289 0.8613,9.96289 0.8613,9.96289 0.8594,9.96289 0.8594,9.96094 0.8613,9.96289 0.8594,9.96289 a 1.50015,1.50015 0 0 0 0,0.004 l 0.8613,9.96289 0.8594,9.96289 0.8594,9.96289 0.8613,9.96289 0.8613,9.96289 0.8594,9.96289 0.8594,9.96289 0.8613,9.96289 0.8594,9.96289 0.8613,9.9629 0.8594,9.96289 0.8594,9.96289 0.8613,9.96289 0.8594,9.96289 0.8613,9.96289 0.8594,9.96289 0.8593,9.96289 0.8614,9.96289 0.8613,9.96289 0.8594,9.96289 0.8613,9.96289 0.8594,9.96289 0.8594,9.96289 0.8613,9.96289 0.8594,9.96289 0.8613,9.9629 0.8594,9.96289 0.8593,9.96289 0.8614,9.96289 0.8613,9.96289 0.8594,9.96289 0.8593,9.96289 0.8614,9.96289 0.8593,9.96289 0.8614,9.96289 0.8593,9.96289 0.8594,9.96485 0.8613,9.96289 0.8614,9.96289 0.8594,9.96289 0.8593,9.96093 0.8594,9.9629 0.8613,9.96289 0.8614,9.96289 0.9023,10.46679 2.9902,-0.25781 -0.9043,-10.4668 -0.8593,-9.96289 -0.8614,-9.96289 -0.8613,-9.96289 -0.8594,-9.96094 -0.8593,-9.96289 -0.8594,-9.96484 -0.8613,-9.96289 -0.8614,-9.96289 -0.8593,-9.96289 -0.8594,-9.96289 -0.8614,-9.96289 -0.8593,-9.96289 -0.8614,-9.96289 -0.8593,-9.96289 -0.8614,-9.9629 -0.8593,-9.96289 -0.8614,-9.96289 -0.8593,-9.96289 -0.8614,-9.96289 -0.8593,-9.96289 -0.8594,-9.96289 -0.8613,-9.96289 -0.8594,-9.96289 -0.8613,-9.96289 -0.8594,-9.96289 -0.8594,-9.96289 -0.8613,-9.96289 -0.8614,-9.96289 -0.8593,-9.96289 -0.8594,-9.96289 -0.8613,-9.9629 -0.8594,-9.96484 -0.8613,-9.96094 -0.8594,-9.96289 -0.8594,-9.96289 -0.8613,-9.96289 -0.8613,-9.96289 -0.8594,-9.96289 -0.8594,-9.96289 -0.8594,-9.96289 -0.8613,-9.96484 -0.8613,-9.9629 -0.8594,-9.96289 -0.8613,-9.96289 -0.8594,-9.96289 -0.8594,-9.96289 -0.8613,-9.96094 -0.8594,-9.96289 -0.8613,-9.96289 -0.8594,-9.96289 -0.8613,-9.96484 -0.8594,-9.96289 -0.8613,-9.96289 -0.8594,-9.96289 -0.7773,-9.00586 11.3437,-6.44336 8.6934,-4.93945 8.6953,-4.94141 8.6953,-4.93945 8.6953,-4.93946 8.6953,-4.93945 8.6934,-4.93945 8.6953,-4.93946 8.6953,-4.93945 8.6953,-4.93945 8.6934,-4.94141 8.6953,-4.9375 a 1.50015,1.50015 0 0 0 0,-0.002 l 8.6953,-4.93946 8.6934,-4.93945 8.6953,-4.93945 8.6953,-4.93945 8.6934,-4.93946 8.6953,-4.9414 8.6953,-4.93946 8.6933,-4.93945 8.6954,-4.93945 8.6953,-4.93946 8.6953,-4.93945 8.6933,-4.93945 8.6953,-4.94141 8.6954,-4.93945 8.6953,-4.93946 8.6933,-4.93945 8.6953,-4.93945 8.6954,-4.93945 8.6953,-4.93946 8.6933,-4.9414 8.6934,-4.93946 8.6953,-4.93945 8.6953,-4.93945 8.6934,-4.93946 8.6953,-4.93945 8.6933,-4.93945 8.6934,-4.93946 8.6953,-4.9414 8.6953,-4.939456 8.6934,-4.939453 z" />
      <path
         fill="none"
         stroke-width="3"
         stroke-linecap="butt"
         stroke-opacity="1"
         stroke="#ffffff"
         stroke-linejoin="round"
         d="m 371.593,682.596 0.568,9.984 0.569,9.984 0.568,9.984 0.568,9.984 0.569,9.984 0.568,9.983 0.48,8.443 2.71,9.626 2.71,9.626 2.709,9.626 2.71,9.626 2.71,9.626 2.709,9.626 2.71,9.626 0.207,0.734 4.601,8.878 4.602,8.879 4.601,8.878 4.602,8.878 4.602,8.879 4.601,8.878 4.602,8.878 0.911,1.759 6.271,7.789 6.271,7.79 6.271,7.789 6.271,7.79 6.271,7.789 6.271,7.79 6.271,7.789 1.188,1.476 7.725,6.349 7.725,6.35 7.726,6.35 7.725,6.35 7.725,6.349 7.726,6.35 8.126,6.679 8.925,4.511 8.925,4.511 8.925,4.51 8.925,4.511 8.925,4.51 8.924,4.511 7.231,3.654 9.751,2.217 9.751,2.216 9.751,2.217 9.752,2.216 9.751,2.217 9.751,2.216 5.019,1.141 9.986,-0.524 9.987,-0.523 9.986,-0.524 9.986,-0.524 9.986,-0.523 9.987,-0.524 2.434,-0.128 9.362,-3.516 9.361,-3.517 9.361,-3.517 9.361,-3.517 9.361,-3.516 9.362,-3.517 0.877,-0.33 7.747,-6.322 7.748,-6.323 7.747,-6.323 7.748,-6.322 7.747,-6.323 7.748,-6.322 1.137,-0.929 7.521,-6.591 7.52,-6.591 7.52,-6.592 7.521,-6.591 7.52,-6.591 7.52,-6.591 7.521,-6.592 7.52,-6.591 7.52,-6.591 7.521,-6.591 7.52,-6.592 4.718,-4.135 6.307,-5.528 5.417,-8.406 5.417,-8.406 5.416,-8.406 5.417,-8.406 5.417,-8.406 5.416,-8.406 0.702,-1.088 2.753,-9.613 2.753,-9.614 2.754,-9.613 2.753,-9.614 2.753,-9.613 2.754,-9.614 1.37,-4.784 0.11,-10 0.109,-9.999 0.058,-5.286 0.079,-7.165 0.109,-9.999 0.11,-9.999 0.11,-10 0.072,-6.578 -2.326,-9.725 -2.326,-9.726 -2.325,-9.726 -2.326,-9.726 -2.326,-9.726 -2.326,-9.725 -2.325,-9.726 -0.558,-2.333 -4.495,-8.932 -4.495,-8.933 -4.496,-8.933 -1.481,-2.944 -4.495,-8.933 -4.496,-8.933 -4.495,-8.932 -4.495,-8.933 -0.424,-0.844 -6.391,-7.691 -6.391,-7.691 -6.391,-7.691 -6.391,-7.692 -6.391,-7.691 -6.391,-7.691 -6.391,-7.692 -2.626,-3.16 -7.992,-6.009 -7.993,-6.01 -7.993,-6.009 -7.993,-6.01 -7.993,-6.009 -7.993,-6.009 -7.993,-6.01 -1.626,-1.223 -9.225,-3.862 -9.224,-3.862 -6.952,-2.911 -6.427,-2.691 -9.224,-3.862 -9.225,-3.862 -9.224,-3.862 -3.707,-1.552 -9.921,-1.249 -9.922,-1.25 -9.921,-1.249 -9.922,-1.25 -9.922,-1.249 -9.921,-1.25 -4.423,-0.557 -9.854,1.705 -9.854,1.704 -9.853,1.705 -9.854,1.705 -9.854,1.704 -9.853,1.705 -0.887,0.153 -9.171,3.986 -9.171,3.986 -9.172,3.987 -9.171,3.986 -9.171,3.986 -9.171,3.986 -9.171,3.986 -9.172,3.986 -4.425,1.924 -9.171,3.986 -9.171,3.986 -9.171,3.986 -9.333,4.057 -8.833,4.687 -8.834,4.687 -8.833,4.688 -8.833,4.687 -8.834,4.688 -8.833,4.687 -1.121,0.595 -6.882,7.256 -6.882,7.255 -6.882,7.255 -6.882,7.256 -6.882,7.255 -6.882,7.255 -0.708,0.747 -4.4,8.98 -4.4,8.98 -4.4,8.98 -4.4,8.98 -4.4,8.98 -4.4,8.98 -1.206,2.461 -1.829,9.832 -1.829,9.831 -1.829,9.831 -1.83,9.832 -1.829,9.831 -1.829,9.831 -1.012,5.44"
         id="path5"
         style="display:inline;stroke:#000000;stroke-opacity:1" />
      <path
         fill="none"
         stroke-width="3"
         stroke-linecap="butt"
         stroke-opacity="1"
         stroke="#ffffff"
         stroke-linejoin="round"
         d="m 507.307,488.829 9.864,-1.645 9.864,-1.645 9.863,-1.644 8.702,-1.451 9.864,-1.645 9.864,-1.644 4.89,-0.815 9.907,1.355 9.908,1.355 9.908,1.355 9.908,1.356 3.47,0.474 9.907,1.356 9.908,1.355 4.505,0.616 9.182,3.962 9.181,3.963 9.182,3.962 9.181,3.962 9.182,3.963 9.181,3.962 9.182,3.963 2.703,1.166 7.946,6.073 7.945,6.072 7.945,6.072 7.945,6.072 7.946,6.073 7.945,6.072 7.945,6.072 5.697,4.354 6.368,7.711 6.367,7.711 6.367,7.711 6.368,7.71 6.367,7.711 6.368,7.711 6.367,7.711 6.153,7.451 4.516,8.922 4.516,8.922 4.517,8.922 4.516,8.922 4.516,8.922 4.517,8.922 4.516,8.922 4.435,8.763 2.397,9.708 2.397,9.709 2.397,9.708 2.397,9.709 2.397,9.708 2.397,9.709 2.397,9.708 1.824,7.386 -0.003,10 -0.003,10 -0.003,10 -0.003,10 -0.003,10 -0.003,10 -0.003,10 -10e-4,3.553 -2.649,9.643 -2.648,9.643 -2.648,9.643 -0.619,2.257 -2.098,7.638 -2.648,9.643 -2.648,9.643 -2.228,8.113 -5.358,8.443 -5.359,8.443 -5.358,8.443 -5.358,8.444 -5.359,8.443 -5.358,8.443 -2.278,3.589"
         id="path6"
         style="display:inline;stroke:#000000;stroke-opacity:1" />
      <path
         fill="none"
         stroke-width="3"
         stroke-linecap="butt"
         stroke-opacity="1"
         stroke="#ffffff"
         stroke-linejoin="round"
         d="m 521.778,526.411 -8.875,4.608 -8.875,4.609 -8.875,4.608 -8.874,4.609 -5.645,2.931 -5.754,2.988 -6.943,7.196 -6.943,7.197 -6.943,7.196 -6.944,7.197 -6.943,7.196 -1.864,1.932 -4.463,8.948 -4.464,8.949 -4.463,8.949 -4.464,8.948 -4.463,8.949 -1.888,3.785 -1.882,9.821 -1.881,9.822 -1.881,9.821 -1.882,9.822 -1.881,9.821 -1.268,6.619 0.533,9.986 0.532,9.986 0.533,9.985 0.533,9.986 0.532,9.986 0.499,9.359 2.691,9.631 2.69,9.632 2.69,9.631 2.691,9.631 2.69,9.632 2.69,9.631 0.392,1.402 4.596,8.881 4.597,8.882 4.596,8.881 4.596,8.881 4.596,8.881 4.597,8.881 1.176,2.272 6.277,7.785 6.277,7.784 6.277,7.785 6.276,7.785 6.277,7.784 6.277,7.785 1.557,1.931 7.74,6.333 7.739,6.332 7.739,6.333 7.74,6.333 7.739,6.332 7.739,6.333 0.956,0.782 8.942,4.477 8.942,4.477 8.942,4.477 8.942,4.477 8.942,4.477 8.094,4.052 9.763,2.162 9.764,2.163 9.763,2.162 9.763,2.162 9.764,2.163 6.24,1.382 9.983,-0.597 9.982,-0.596 9.982,-0.597 9.982,-0.597 9.982,-0.596 3.951,-0.237 9.331,-3.597 9.33,-3.597 9.331,-3.598 8.036,-3.098 0.525,-0.202 9.33,-3.597 3.193,-1.231 5.631,-4.68 7.691,-6.391 7.691,-6.391 7.692,-6.391 7.691,-6.391 4.374,-3.635 5.291,-8.486 5.291,-8.485 5.393,-8.648 5.291,-8.486 5.291,-8.485 2.731,-4.38 2.589,-9.659 0.716,-2.673 2.588,-9.659 2.588,-9.66 2.588,-9.659 2.589,-9.659 1.633,-6.095 -0.04,-10 -0.04,-10 -0.039,-9.999 -0.04,-10 -0.04,-10 -0.039,-10 -0.013,-3.169 -2.421,-9.702 -2.42,-9.703 -2.421,-9.702 -2.42,-9.703 -2.421,-9.703 -1.162,-4.66 -2.421,-9.702 -0.424,-1.699 -4.522,-8.919 -4.523,-8.918 -1.941,-3.828 -4.523,-8.919 -4.522,-8.918 -4.523,-8.919 -4.523,-8.919 -1.857,-3.662 -6.36,-7.717 -6.36,-7.717 -6.36,-7.717 -6.361,-7.716 -6.36,-7.717 -6.36,-7.717 -5.257,-6.379 -3.671,-2.82 -7.929,-6.094 -7.929,-6.093 -7.929,-6.093 -7.929,-6.094 -7.929,-6.093 -7.929,-6.093 -1.237,-0.951 -9.164,-4.004 -9.163,-4.004 -9.164,-4.003 -9.163,-4.004 -9.164,-4.004 -9.163,-4.004 -2.437,-1.064 -9.898,-1.419 -9.899,-1.419 -9.899,-1.42 -9.899,-1.419 -9.899,-1.419 -8.465,-1.213 -9.877,1.564 -7.454,1.181 -7.229,1.145 -9.877,1.565 -9.877,1.564 -9.964,1.579"
         id="path7"
         style="display:inline;stroke:#000000;stroke-opacity:1" />
      <path
         fill="none"
         stroke-width="3"
         stroke-linecap="butt"
         stroke-opacity="1"
         stroke="#ffffff"
         stroke-linejoin="round"
         d="m 963.786,743.897 7.807,-6.249 7.807,-6.249 3.122,-2.498 7.641,-6.451 7.642,-6.45 7.641,-6.451 6.725,-5.676 5.395,-8.42 5.396,-8.419 5.395,-8.42 5.366,-8.374 2.814,-9.596 2.814,-9.596 2.813,-9.596 2.814,-9.596 0.481,-1.643 0.202,-9.998 0.201,-9.998 0.201,-9.998 0.201,-9.998 0.073,-3.64 -2.255,-9.742 -2.256,-9.743 -2.255,-9.742 -2.256,-9.742 -1.181,-5.104 -4.39,-8.778 -4.474,-8.943 -4.473,-8.944 -4.473,-8.944 -2.817,-5.631 -6.415,-7.671 -6.415,-7.671 -6.415,-7.671 -6.415,-7.671 -3.88,-4.639 -8.039,-5.948 -8.038,-5.948 -8.039,-5.948 -8.039,-5.949 -4.073,-3.013 -9.259,-3.778 -9.258,-3.778 -9.259,-3.778 -9.259,-3.778 -3.149,-1.285 -9.928,-1.195 -9.929,-1.195 -9.928,-1.196 -9.928,-1.195 -1.454,-0.175 -9.861,1.665 -9.86,1.665 -9.86,1.665 -9.619,1.623 -8.982,4.397 -8.981,4.397 -8.981,4.397 -8.982,4.397 -8.981,4.397 -6.992,3.423"
         id="path8"
         style="display:inline;stroke:#000000;stroke-opacity:1" />
      <path
         fill="none"
         stroke-width="3"
         stroke-linecap="butt"
         stroke-opacity="1"
         stroke="#ffffff"
         stroke-linejoin="round"
         d="m 645.088,985.322 7.93,0.778 8.237,0.554"
         id="path9"
         style="display:inline;stroke:#a4d4d9;stroke-opacity:1" />
      <path
         fill="none"
         stroke-width="3"
         stroke-linecap="butt"
         stroke-opacity="1"
         stroke="#ffffff"
         stroke-linejoin="round"
         d="m 583.601,968.19 7.63,2.502 9.512,3.086 9.512,3.086 9.512,3.086 6.295,2.042"
         id="path10"
         style="display:inline;stroke:#91c6d8;stroke-opacity:1" />
      <path
         fill="none"
         stroke-width="3"
         stroke-linecap="butt"
         stroke-opacity="1"
         stroke="#ffffff"
         stroke-linejoin="round"
         d="m 429.009,617.999 -2.916,9.566 -2.916,9.565 -2.917,9.565 -2.916,9.566 -0.808,2.651 -1.013,9.948 -1.013,9.949 -1.013,9.948 -1.013,9.949 -0.412,4.044 0.787,9.969 0.787,9.969 0.786,9.969 0.787,9.969 0.417,5.294 2.451,9.695 2.451,9.695 2.45,9.695 2.451,9.695 1.551,6.136 3.973,9.177 3.974,9.177 3.973,9.176 3.973,9.177 2.78,6.419 5.358,8.444 5.359,8.443 5.359,8.443 5.358,8.443 3.877,6.107 3.065,4.815 6.631,7.485 6.631,7.486 6.63,7.485 6.631,7.486 4.242,4.789 7.766,6.3 7.765,6.301 7.766,6.3 7.765,6.301 4.283,3.475 8.733,4.872 8.732,4.873 8.733,4.873 8.732,4.872 3.786,2.112"
         id="path11"
         style="display:inline;stroke:#a7dfe0;stroke-opacity:1" />
    </g>
  </g>
  <path
     id="path12"
     style="display:none;fill:#d5d5d5;fill-opacity:1;stroke:#000000;stroke-width:1;paint-order:markers stroke fill"
     d="m 1656.8438,472.78125 c -5.6,0.089 -12.0142,0.28521 -20.0528,0.56445 -47.2628,1.6418 -81.5148,6.32534 -121.5254,16.61719 -25.1799,6.47699 -71.0379,22.18502 -275.7871,94.4668 -135.0712,47.68366 -244.9988,86.89232 -244.2832,87.13086 0.7156,0.23852 6.4278,-0.87486 12.6934,-2.47461 6.277,-1.60268 33.6266,-5.25047 60.914,-8.125 49.465,-5.21077 49.5774,-5.21511 96.2637,-4.31836 44.5686,0.85607 49.0481,1.20194 96.3594,7.45703 l 49.6172,6.56055 53.7519,14.61914 53.752,14.62109 39.0937,-1.50977 39.0938,-1.50976 179.3574,-101.89258 c 98.6469,-56.04074 179.1835,-102.01768 178.9707,-102.17187 -0.2127,-0.1542 -9.805,0.35747 -21.3164,1.13671 l -20.9297,1.41602 -35.2441,-8.14648 c -30.0787,-6.95324 -40.3964,-8.65821 -70.3946,-11.625 -24.0574,-2.37926 -33.5342,-3.08353 -50.3339,-2.81641 z m 206.664,23.98828 c -3.5979,-0.78927 -25.0954,11.3813 -180.5117,99.71289 -99.1704,56.36398 -180.8516,103.0196 -181.5117,103.67969 -0.6601,0.66009 9.4494,124.48294 22.4648,275.16209 13.0155,150.6792 23.6699,274.4711 23.6699,275.0918 0,0.6208 1.8413,-0.9975 4.086,-3.5957 3.9414,-4.5623 325.412,-392.04618 329.3769,-397.01366 1.6599,-2.07973 0.6092,-28.7225 -6.9218,-175.41406 -4.8839,-95.12877 -9.3241,-174.63255 -9.8672,-176.67578 -0.1216,-0.45745 -0.2712,-0.83452 -0.7852,-0.94727 z m -474.0664,28.75 c -0.6157,-0.125 -2.4209,-0.0107 -5.6777,0.28906 -5.1976,0.47837 -101.5829,33.00252 -287.6367,97.0625 -153.90065,52.98933 -282.40832,97.34465 -285.57231,98.56641 -5.48874,2.11947 -4.72978,2.19178 16.53906,1.57422 l 22.29297,-0.64649 40.26758,-16.75585 c 29.14006,-12.12413 103.0707,-38.94791 267.5039,-97.06055 124.978,-44.16871 228.8506,-81.01765 230.8281,-81.88477 1.498,-0.65686 2.0708,-1.01952 1.4551,-1.14453 z m -231.2578,137 c -105.0274,-0.0233 -183.6829,14.09684 -264.78321,47.53125 l -45.15234,18.61328 h -28.91407 c -21.19552,0 -28.92216,0.96006 -28.94726,3.59571 -0.0865,9.10381 18.25906,127.53816 20.0664,129.54293 1.12269,1.2454 18.10904,-4.73725 37.7461,-13.29489 49.06219,-21.38082 82.15895,-27.09279 127.47458,-22.0039 19.1331,2.14862 38.6373,6.27331 48.7051,10.30078 l 16.793,6.71679 24.914,-12.46484 c 42.991,-21.50785 81.1138,-23.5225 125.5879,-6.63867 54.0348,20.51338 98.695,71.45443 114.0078,130.04103 7.2532,27.7504 7.1005,68.7237 -0.3535,94.789 -8.0573,28.1749 -26.1843,53.9414 -52.7012,74.9161 -20.214,15.9891 -21.8297,18.0643 -21.9707,28.2207 -0.084,6.0293 -4.5413,26.2088 -9.9062,44.8437 -7.7667,26.9775 -13.0412,38.9785 -25.8867,58.8906 -8.8731,13.7545 -16.1328,25.5422 -16.1328,26.1954 0,0.6532 6.7941,1.6631 15.0996,2.2441 71.779,5.0215 151.7668,-2.6736 227.9531,-21.9297 48.8146,-12.3378 48.9604,-12.3539 84.8535,-10.3066 19.775,1.128 36.0439,1.876 36.1543,1.664 0.1106,-0.212 -10.4915,-122.7021 -23.5605,-272.2011 -13.0689,-149.49904 -23.8387,-273.62935 -23.9317,-275.84379 -0.14,-3.32843 -6.9263,-3.74196 -39.1562,-2.39063 l -38.9864,1.63477 -52.3378,-14.40039 c -71.3891,-19.64143 -134.3167,-28.24953 -206.6348,-28.26563 z" />
  <path
     id="path4"
     style="display:inline;mix-blend-mode:normal;fill:#7e7e7e;fill-opacity:1;stroke:none;stroke-width:1;paint-order:markers stroke fill"
     d="m 1668.4122,472.77306 c -3.6268,-0.0656 -7.3684,-0.0594 -11.5683,0.008 -5.6,0.089 -12.0143,0.28522 -20.0527,0.56446 -47.2627,1.64178 -81.515,6.32536 -121.5254,16.61718 -25.1798,6.47698 -71.0387,22.18523 -275.7872,94.4668 -84.0772,29.68147 -195.0133,70.75015 -281.97649,103.21484 -21.5394,6.21945 -42.7492,13.60352 -64.1016,22.40625 l -45.1523,18.61329 h -10.9942 l 52.4004,-23.05469 c 29.1401,-12.1241 103.07129,-38.94809 267.50389,-97.06055 124.9777,-44.16859 228.8507,-81.01766 230.8282,-81.88476 1.498,-0.65686 2.0707,-1.01953 1.455,-1.14454 -0.6157,-0.125 -2.4209,-0.0107 -5.6777,0.28907 -5.1976,0.47837 -101.5834,33.00271 -287.6367,97.0625 -153.90019,52.98916 -298.40829,105.34464 -301.57229,106.5664 -1.252,0.48349 -2.0518,0.8326 -2.4844,1.11914 -1.1177,0.46771 -1.6771,1.02691 -1.6835,1.70313 -0.086,9.10379 18.259,127.53817 20.0664,129.54292 1.1227,1.2454 18.109,-4.73724 37.7461,-13.29488 49.062,-21.38076 82.1589,-27.09279 127.47459,-22.0039 19.1328,2.14862 38.6374,6.27331 48.705,10.30078 l 16.793,6.7168 24.9141,-12.46485 c 42.9907,-21.50781 81.1138,-23.52246 125.5879,-6.63867 54.0345,20.51334 98.6951,71.45462 114.0078,130.04102 7.2532,27.7504 7.1005,68.7238 -0.3535,94.7891 -8.0572,28.1747 -26.1843,53.9413 -52.7012,74.916 -20.2141,15.9891 -21.8298,18.0643 -21.9707,28.2207 -0.084,6.0293 -4.5414,26.2088 -9.9063,44.8437 -7.7666,26.9775 -13.0411,38.9786 -25.8867,58.8907 -8.8731,13.7543 -16.1328,25.5421 -16.1328,26.1953 0,0.6532 6.7941,1.6631 15.0996,2.2441 71.7788,5.0215 151.767,-2.6736 227.9531,-21.9297 48.8146,-12.3378 48.9605,-12.3539 84.8536,-10.3066 19.7748,1.128 36.0439,1.876 36.1543,1.664 0.021,-0.041 -3.8617,-44.447 -4.5938,-53.082 1.6759,-0.753 3.3472,-1.5176 4.957,-2.3828 0.7027,8.2372 4.4649,51.7774 4.4649,51.8945 0,0.6208 1.8412,-0.9975 4.0859,-3.5957 3.9414,-4.5623 325.4121,-392.04617 329.377,-397.01365 1.6599,-2.07971 0.609,-28.72295 -6.9219,-175.41406 -4.8839,-95.12848 -9.3241,-174.63256 -9.8672,-176.67578 -0.1216,-0.45745 -0.2712,-0.83452 -0.7852,-0.94727 -8.4873,1.94523 -16.7979,3.99 -24.9375,6.13086 5.4856,-3.34287 11.0147,-6.77938 16.4922,-10.08398 -0.2127,-0.1542 -9.805,0.35749 -21.3164,1.13672 l -20.9297,1.41601 -35.2441,-8.14648 c -30.0787,-6.95322 -40.3965,-8.65822 -70.3945,-11.625 -18.043,-1.78445 -27.8853,-2.62731 -38.7657,-2.82422 z m -531.1269,183.43359 c 7.3487,0.0443 16.1097,0.21136 27.7812,0.43555 44.5685,0.85607 49.0484,1.20197 96.3594,7.45703 1.4098,0.47642 2.802,0.84515 4.209,1.30469 -31.9861,-1.60029 -67.4377,-2.38994 -107.4512,-2.88477 -76.6127,-0.017 -139.1539,7.60675 -198.88669,24.64844 19.83579,-7.43486 46.73319,-17.60747 48.59179,-18.08203 6.2771,-1.60268 33.6266,-5.25048 60.9141,-8.125 37.0985,-3.90807 46.4363,-4.88674 68.4824,-4.75391 z"
     sodipodi:nodetypes="scssscccccsssssscsssscccssssssssssssccsssssccccccssssccccsss"
     inkscape:label="Color" />
  <path
     style="display:inline;mix-blend-mode:multiply;fill:url(#linearGradient51);stroke:#000000;stroke-width:1;paint-order:markers stroke fill"
     d="m 1158.1836,662.51953 c -105.0274,-0.0233 -183.6829,14.09684 -264.78321,47.53125 l -45.15234,18.61328 h -28.91407 c -21.19552,0 -28.92216,0.96006 -28.94726,3.59571 -0.0865,9.10381 18.25906,127.53816 20.0664,129.54293 1.12269,1.2454 18.10904,-4.73725 37.7461,-13.29489 49.06219,-21.38082 82.15895,-27.09279 127.47458,-22.0039 19.1331,2.14862 38.6373,6.27331 48.7051,10.30078 l 16.793,6.71679 24.914,-12.46484 c 42.991,-21.50785 81.1138,-23.5225 125.5879,-6.63867 54.0348,20.51338 98.695,71.45443 114.0078,130.04103 7.2532,27.7504 7.1005,68.7237 -0.3535,94.789 -8.0573,28.1749 -26.1843,53.9414 -52.7012,74.9161 -20.214,15.9891 -21.8297,18.0643 -21.9707,28.2207 -0.084,6.0293 -4.5413,26.2088 -9.9062,44.8437 -7.7667,26.9775 -13.0412,38.9785 -25.8867,58.8906 -8.8731,13.7545 -16.1328,25.5422 -16.1328,26.1954 0,0.6532 6.7941,1.6631 15.0996,2.2441 71.779,5.0215 151.7668,-2.6736 227.9531,-21.9297 48.8146,-12.3378 48.9604,-12.3539 84.8535,-10.3066 19.775,1.128 36.0439,1.876 36.1543,1.664 0.1106,-0.212 -10.4915,-122.7021 -23.5605,-272.2011 -13.0689,-149.49904 -23.8387,-273.62935 -23.9317,-275.84379 -0.14,-3.32843 -6.9263,-3.74196 -39.1562,-2.39063 l -38.9864,1.63477 -52.3378,-14.40039 c -71.3891,-19.64143 -134.3167,-28.24953 -206.6348,-28.26563 z"
     id="path51" />
  <path
     id="path50"
     style="display:inline;mix-blend-mode:multiply;fill:url(#linearGradient20);stroke:none;stroke-width:1;paint-order:markers stroke fill"
     d="m 1668.4121,472.77344 c -3.6268,-0.0656 -7.3684,-0.059 -11.5683,0.008 -5.6,0.089 -12.0142,0.28521 -20.0528,0.56445 -47.2627,1.6418 -81.5148,6.32535 -121.5254,16.61719 -25.1798,6.47698 -71.0381,22.18509 -275.7871,94.4668 -135.0711,47.68361 -244.9988,86.89232 -244.2832,87.13086 0.7156,0.23852 6.4278,-0.87486 12.6934,-2.47461 6.277,-1.60268 33.6266,-5.25048 60.914,-8.125 49.4649,-5.21077 49.5775,-5.21511 96.2637,-4.31836 44.5686,0.85607 49.0481,1.20195 96.3594,7.45703 l 49.6172,6.56055 53.7519,14.61914 53.752,14.62109 39.0937,-1.50977 39.0938,-1.50976 179.3574,-101.89258 c 98.6468,-56.04068 179.1835,-102.01768 178.9707,-102.17187 -0.2127,-0.1542 -9.805,0.35748 -21.3164,1.13671 l -20.9297,1.41602 -35.2441,-8.14648 c -30.0787,-6.95324 -40.3964,-8.65822 -70.3946,-11.625 -18.043,-1.78445 -27.8852,-2.62731 -38.7656,-2.82422 z m 195.0957,23.99609 c -3.5979,-0.78927 -25.0956,11.38139 -180.5117,99.71289 -99.1703,56.36393 -180.8516,103.0196 -181.5117,103.67969 -0.6601,0.66009 9.4494,124.48309 22.4648,275.16209 13.0155,150.679 23.6699,274.4711 23.6699,275.0918 0,0.6208 1.8413,-0.9975 4.086,-3.5957 3.9414,-4.5623 325.412,-392.04618 329.3769,-397.01366 1.6599,-2.07973 0.6091,-28.72265 -6.9218,-175.41406 -4.8839,-95.12868 -9.3241,-174.63256 -9.8672,-176.67578 -0.1216,-0.45745 -0.2712,-0.83452 -0.7852,-0.94727 z m -474.0664,28.75 c -0.6157,-0.125 -2.4209,-0.0107 -5.6777,0.28906 -5.1976,0.47837 -101.5831,33.00259 -287.6367,97.0625 -153.90049,52.98928 -282.40833,97.34465 -285.57231,98.56641 -5.48874,2.11947 -4.72976,2.19178 16.53906,1.57422 l 22.29297,-0.64649 40.26758,-16.75585 c 29.14003,-12.12412 103.0709,-38.94797 267.5039,-97.06055 124.9779,-44.16867 228.8506,-81.01765 230.8281,-81.88477 1.498,-0.65686 2.0708,-1.01952 1.4551,-1.14453 z" />
  <path
     id="path20"
     style="display:inline;fill:#1a1a1a;stroke:#000000;stroke-width:1;paint-order:markers stroke fill"
     d="m 1131.3535,817.85352 c -4.97,0.13117 -9.859,0.97715 -19.5,2.66796 -18.3445,3.21724 -20.7044,4.03617 -42.7969,14.83204 l -23.3828,11.42578 13.8946,5.61523 c 11.8735,4.79857 18.0995,8.78627 42.7988,27.41607 l 28.9023,21.8007 24.043,28.8594 24.043,28.8594 16.6015,33.1797 16.6035,33.1816 8.6114,35.9805 c 8.2535,34.4809 8.6133,36.7668 8.6133,54.8066 0,17.7063 0.1503,18.7095 2.5175,16.8906 1.3843,-1.0636 11.1291,-9.0699 21.6563,-17.7929 17.8878,-14.8223 19.8446,-16.9592 29.9043,-32.6367 9.5834,-14.9354 11.3745,-18.8777 16.3262,-35.9532 4.8229,-16.6324 5.6928,-21.8968 6.5429,-39.6406 0.965,-20.1407 0.8956,-20.8276 -4.3769,-43.8652 -4.7603,-20.7993 -6.4657,-25.6233 -15.3262,-43.3457 -8.209,-16.4194 -12.5582,-23.046 -24.6191,-37.5215 -12.3085,-14.7725 -17.5783,-19.7382 -32.9922,-31.08986 -15.6672,-11.53815 -21.2365,-14.6904 -38.1719,-21.59571 -18.1468,-7.39921 -21.5324,-8.28493 -39.9023,-10.44726 -9.9675,-1.17328 -15.0203,-1.75813 -19.9903,-1.62695 z M 945.61719,828.6543 c -3.09392,0.0201 -17.92219,2.21417 -32.95117,4.875 l -27.32618,4.83789 -45.84765,19.93359 c -25.21696,10.96382 -44.88428,20.12642 -43.70313,20.36132 1.18115,0.235 10.04232,-0.9185 19.68946,-2.5644 l 17.53906,-2.9942 34.07226,4.5859 34.07032,4.586 34.0039,14.7031 34.00394,14.7031 30.748,23.4629 30.7461,23.4629 25.8438,31.3516 25.8418,31.3515 17.7929,35.5625 17.793,35.5606 9.1855,37.2051 9.1836,37.2031 v 38.3457 38.3457 l -9.1269,33.0781 -9.127,33.0782 -11.7265,18.371 c -6.4492,10.1036 -11.7266,18.7535 -11.7266,19.2227 0,0.4692 2.4283,-1.3294 5.3945,-3.998 2.9663,-2.6685 20.9243,-18.5052 39.9082,-35.1914 l 34.5176,-30.3379 16.1055,-25.1993 16.1055,-25.1992 8.5527,-30.0234 8.5547,-30.0235 0.9472,-33.7968 0.9473,-33.7989 -8.7734,-36.6523 -8.7754,-36.6543 -16.832,-32.7246 -16.8321,-32.7266 -23.3848,-28.041 -23.3828,-28.039 -28.5,-21.4297 -28.498,-21.4278 -31.4414,-13.10934 -31.4414,-13.10938 -28.2617,-3.5918 c -15.5447,-1.97494 -30.79481,-3.57478 -33.88871,-3.55468 z m -112.24414,48.9824 -30.82422,5.1211 -30.82422,5.1211 -25.88867,13.5664 -25.88672,13.5664 -21.30469,21.8809 -21.30664,21.8808 -14.2207,28.252 -14.21875,28.2519 -5.97461,32.1524 -5.97266,32.1523 1.71875,33.0782 1.7207,33.0781 9.77735,34.7461 c 9.68209,34.4092 9.93336,35.0512 26.0293,66.1562 15.51327,29.9792 17.2675,32.6764 38.5039,59.1973 21.38293,26.7039 23.32195,28.6725 49.76758,50.541 27.42979,22.6822 27.61634,22.8038 57.93164,37.9746 l 30.41211,15.2188 30.64648,7.1523 c 23.09979,5.3914 32.5924,7.0088 38.55469,6.5645 4.35051,-0.3242 18.1752,-1.0283 30.72071,-1.5645 l 22.81052,-0.9746 28.9649,-10.9824 28.9629,-10.9805 23.1718,-18.9453 23.17,-18.9473 17.1621,-27.039 17.164,-27.041 8.9239,-32.4903 8.9238,-32.4883 v -36.9453 -36.9433 l -9.4297,-37.711 -9.4316,-37.7109 -18.0098,-35.1152 -18.0098,-35.1133 -24.4218,-29.6055 -24.4219,-29.6035 -30.8223,-23.75 -30.8223,-23.75 -34.16793,-14.6367 -34.16601,-14.6368 -32.45704,-4.3398 z m 5.77929,34.9727 28.84766,4.0762 28.8457,4.0761 29.18555,12.5352 29.1875,12.5332 26.68355,20.4687 c 26.1933,20.092 27.0825,20.954 48.4746,46.9317 21.1446,25.6769 22.2496,27.3556 37.1622,56.4746 l 15.3691,30.0097 8.7207,34.8321 8.7207,34.832 v 29.752 29.7519 l -7.2422,27.461 c -3.9832,15.1031 -7.9268,29.0771 -8.7617,31.0546 -0.8349,1.9775 -7.7367,13.5544 -15.3379,25.7266 l -13.8203,22.1309 -20.6035,17.2324 -20.6035,17.2324 -24.9883,9.6816 c -24.6875,9.566 -25.2041,9.695 -42.74806,10.6348 -9.76705,0.5233 -22.61242,1.2486 -28.54492,1.6113 -9.12867,0.558 -15.05164,-0.3216 -38.53711,-5.7226 -27.45132,-6.3131 -28.0292,-6.5258 -53.68555,-19.7168 -23.69477,-12.1825 -28.00588,-15.0309 -49.91015,-32.961 -22.01186,-18.0181 -25.56469,-21.6121 -43.34961,-43.8828 -17.24199,-21.5907 -20.93539,-27.2628 -33.59766,-51.584 -13.46262,-25.8584 -14.67852,-28.9433 -22.64844,-57.4511 l -8.42187,-30.125 -1.67188,-30.2774 -1.67187,-30.2793 5.32422,-27.9062 5.32226,-27.9063 12.30078,-24.5879 c 12.18869,-24.3667 12.45981,-24.7583 30.24414,-43.6367 l 17.94532,-19.0488 23.94336,-12.5469 23.94531,-12.5488 27.96094,-4.4277 z" />
  <path
     id="path40"
     style="display:inline;fill:#1a1a1a;stroke:#000000;stroke-width:1;paint-order:markers stroke fill"
     d="m 687.52148,1020.3652 c -0.038,-0.6576 -1.9028,2.3644 -4.14453,6.7149 -2.9572,5.7392 -5.54584,15.5667 -9.42968,35.8066 l -5.35352,27.8965 1.66406,28.9102 c 1.62817,28.3067 1.82949,29.5136 9.61719,57.6757 7.44778,26.9326 8.86958,30.5493 22.35547,56.8086 13.2067,25.716 16.02161,30.0531 33.89453,52.2285 17.53784,21.7595 21.83974,26.1157 42.92383,43.4571 21.87125,17.9888 25.18721,20.1537 49.76172,32.5097 25.54983,12.8464 27.11632,13.4192 52.93554,19.3614 20.29242,4.6702 28.65308,5.9842 35.23438,5.5351 4.74593,-0.3236 16.78997,-1.006 26.76367,-1.5175 5.6716,-0.291 9.53449,-0.5259 13.00391,-0.9688 -0.3798,-0.059 -0.49085,-0.076 -0.93555,-0.1504 -0.0777,-0.013 -0.15382,-0.031 -0.23242,-0.041 -0.16066,-0.013 -0.10639,0.015 -0.2207,0.027 -0.0966,0.01 -0.19217,0.014 -0.28907,0.024 -0.47501,0.036 -0.9472,-0.1042 -1.4082,-0.2012 -0.22387,-0.047 -0.12951,-0.048 -0.28516,-0.031 -0.0905,0.082 -0.0243,0.025 -0.33789,0 -0.0644,-0.01 -0.12515,-0.021 -0.18945,-0.031 -0.16687,-0.013 -0.34459,0 -0.51172,0 -0.37066,0.029 -0.73338,-0.01 -1.10351,-0.041 -0.15935,-0.015 -0.31671,-0.041 -0.47657,-0.051 -0.10735,-0.01 -0.21486,0.014 -0.32226,0.014 -0.23264,0.1308 -0.86325,-0.051 -1.24805,-0.062 -0.11168,-0.015 -0.22246,-0.029 -0.33398,-0.045 -0.0793,-0.011 -0.15859,-0.027 -0.23829,-0.037 -0.23546,-0.022 -0.47764,-0.01 -0.71289,0.01 -1.16959,-0.1321 0.11845,0.029 -0.65429,-0.1 -0.0692,-0.041 -0.14239,0 -0.21289,-0.012 -0.37953,-0.055 -0.37899,-0.061 -0.70118,-0.1387 -0.1504,-0.1483 -0.0525,0.053 -0.0859,0.053 -0.19307,0.012 -0.38681,0.022 -0.58008,0.012 -0.11826,0 -0.23644,-0.02 -0.35352,-0.037 -0.34688,-0.05 -0.57619,-0.098 -0.90625,-0.1641 -0.19479,0.027 -0.37891,-0.1035 -0.57226,-0.1035 -0.0569,0 -0.0568,0.051 -0.10547,0.061 -0.38127,0.063 -0.39544,0.057 -0.72852,0.072 -0.17135,-0.022 -0.3433,-0.035 -0.51367,-0.065 -0.10802,-0.018 -0.21218,-0.057 -0.32031,-0.074 -0.31589,-0.05 -0.70237,-0.01 -1.01953,0.012 -0.12197,-0.054 -0.22375,0.062 -0.33789,0.062 -0.2535,0 -0.5067,-0.01 -0.75977,-0.021 -0.17515,-0.01 -0.34871,-0.039 -0.52344,-0.055 -0.34267,-0.029 -0.34262,-0.029 -0.60156,-0.039 -0.0191,0 -0.0375,-2e-4 -0.0566,0.01 -0.21684,-0.038 -0.43748,-0.056 -0.65234,-0.1035 -0.11724,-0.026 -0.35086,-0.1984 -0.48438,-0.062 -0.51308,0.065 -1.02743,0.1202 -1.53906,0.1972 -0.27077,0.056 -0.53121,0.088 -0.80859,0.088 -0.18794,0 -0.25576,-0.022 -0.41993,0.037 -0.35329,0.079 -0.70637,0.1557 -1.0625,0.2207 -0.0533,0.01 -0.10615,0.027 -0.16015,0.027 -0.63196,-0.05 -0.70385,-0.086 -1.2461,-0.2168 -0.35238,-0.071 -0.39691,-0.048 -0.75195,0.014 -0.30939,0.054 -0.61875,0.1091 -0.92773,0.1661 -0.86043,0.031 0.1104,0.013 -0.53711,-0.016 -0.0228,0 0.0441,0.012 0.0664,0.022 0.0104,9e-4 0.042,0 0.0312,0 -0.42546,0.046 -0.3043,0.037 -0.64843,0.047 -0.34025,-0.012 -0.68106,-0.012 -1.02149,-0.012 -0.73198,0.022 -1.46299,0.057 -2.19531,0.033 -0.0813,0 -0.16284,3e-4 -0.24414,0 -0.0631,-3e-4 -0.12676,0.01 -0.18946,0 -0.51151,-0.057 -0.95859,-0.2207 -1.43554,-0.3985 -0.55631,1.1228 -2.70091,1.5157 -8.38086,1.5157 -6.71146,0 -8.62891,-0.4803 -8.62891,-2.1582 0,-0.1294 0.10087,-0.2068 0.125,-0.3223 -0.0228,-4e-4 -0.0461,-0.01 -0.0684,0 -0.0437,0.01 -0.0756,0.045 -0.11523,0.066 -0.0435,0.023 -0.0886,0.045 -0.13281,0.068 -0.21038,0.021 -0.41941,0.061 -0.63086,0.061 -0.15235,0 -0.72297,-0.1225 -0.83985,-0.1465 -0.21758,-0.045 -0.43247,-0.096 -0.64843,-0.1484 -0.28569,0.051 -0.54922,0.022 -0.83789,-0.047 -0.44582,-0.1266 -0.90409,-0.1973 -1.35938,-0.2793 -0.17141,-0.04 -0.34257,-0.08 -0.51367,-0.1211 -0.12548,-0.03 -0.24925,-0.065 -0.375,-0.094 -0.26609,-0.061 -0.05,-0.01 -0.23047,-0.031 -0.0998,-0.014 -0.53324,-0.1015 -0.55274,-0.1015 -0.0989,-0.019 -0.19684,-0.045 -0.29687,-0.057 -0.14522,-0.058 -0.29361,0.017 -0.43945,0 -0.47169,-0.054 -0.91482,-0.1637 -1.3711,-0.2851 -0.0573,-0.017 -0.11437,-0.035 -0.17187,-0.051 -0.0743,-0.022 -0.15331,-0.034 -0.22461,-0.062 -0.28525,-0.1196 -0.5528,-0.264 -0.83399,-0.3906 h -0.0215 c 0.0343,0.026 0.077,0.025 0.0606,0.025 -0.13867,0.017 -0.2922,0.018 -0.42969,0.018 -0.24159,0.023 -0.47173,-0.057 -0.69727,-0.1289 -0.20433,-0.065 -0.40976,-0.1195 -0.61328,-0.1875 -0.0137,-0.01 -0.0273,-0.01 -0.041,-0.016 0.0625,0.01 0.25225,-0.01 0.18945,-0.01 -0.0716,-0.01 -0.14323,0 -0.21484,0 h -0.20704 c -0.0645,0 -0.47156,-0.089 -0.47656,-0.09 -0.18971,-0.068 -0.37123,-0.044 -0.56445,-0.027 -0.031,0 -0.063,0.01 -0.0937,0.01 -0.17273,-0.023 -0.34204,-0.06 -0.51367,-0.09 -0.31236,-0.1086 -0.28224,-0.088 -0.59766,-0.2481 -0.0306,0.013 -0.0613,0.026 -0.0918,0.039 -0.0852,-10e-4 -0.1696,2e-4 -0.2539,-0.01 -0.32885,-0.049 -0.2224,-0.061 -0.47656,-0.1308 -0.0892,-0.024 -0.19231,-0.036 -0.28321,-0.055 -0.0923,-0.019 -0.18339,-0.043 -0.27539,-0.062 l -0.17969,-0.045 c 0.0389,0 0.093,0.01 0.0703,0 -0.16816,-0.047 -0.34381,-0.061 -0.50977,-0.1152 -0.0652,-0.021 -0.11258,-0.081 -0.17578,-0.1074 -0.0328,-0.014 0.0544,0.044 0.082,0.066 0.003,0 0.0136,0.012 0.01,0.012 -0.0124,0.01 -0.0289,0.01 -0.043,0.01 -0.25648,0.078 -0.47636,-0.032 -0.73633,-0.1 0.27333,0.023 0.11636,-0.017 -0.0742,-0.059 0.0108,3e-4 0.0358,-0.016 0.0508,-0.022 -0.0358,0.01 -0.0603,-2e-4 -0.0918,0.01 0.007,0 0.0164,0.01 0.0234,0.01 -0.0193,0 -0.0166,-0.01 -0.0351,-0.01 -0.23256,0.029 -0.39136,0.01 -0.6836,-0.1016 -0.0409,-0.015 -0.0549,-0.028 -0.082,-0.043 -0.17063,-7e-4 -0.24673,-0.02 -0.41015,-0.031 -0.12631,-0.01 -0.25253,0 -0.37891,0 -0.0882,0.01 -0.161,0 -0.23633,0 -0.49307,0.4041 -1.08963,0.7284 -1.73437,0.8086 -3.61013,0.4489 -36.43265,-11.2611 -40.74024,-14.3301 -0.20579,-0.063 -0.41156,-0.129 -0.61133,-0.207 -0.0924,-0.036 -0.36998,-0.1072 -0.27148,-0.1192 0.10673,-0.013 0.25636,-0.019 0.41602,-0.02 -0.0124,-0.015 -0.0662,-0.041 -0.0762,-0.055 -0.24634,-0.019 -0.32967,-0.026 -0.70898,-0.057 -0.0993,-0.068 -0.19954,-0.1364 -0.29883,-0.2051 -0.0207,-0.01 -0.0515,-0.021 -0.0664,-0.027 0.002,0 0.008,6e-4 0.01,-0.01 l 0.0566,0.037 c 0.14826,0.065 0.39937,0.1812 0.30273,0.1172 -0.17386,-0.1151 -0.38708,-0.1699 -0.5664,-0.2735 0.15952,0.055 0.4435,0.1426 0.31836,0.092 -0.12503,-0.052 -0.25189,-0.096 -0.38086,-0.1386 0.003,0 0.005,0.01 0.008,0.014 -0.004,-7e-4 -0.003,7e-4 -0.006,0 -0.009,-0.01 -0.0182,-0.016 -0.0273,-0.023 -0.20291,-0.068 -0.40646,-0.1356 -0.59766,-0.2285 -0.21227,0 -0.35651,-0.068 -0.7207,-0.2324 -0.0624,-0.012 -0.1232,-0.027 -0.18359,-0.047 -0.0521,-0.017 -0.14765,-0.057 -0.22461,-0.096 -0.0386,-0.01 -0.0768,-0.018 -0.11524,-0.027 -0.30607,-0.1208 -0.52795,-0.3483 -0.72461,-0.6035 h -0.002 -0.0332 c -0.0598,7e-4 -0.18648,-0.1397 -0.20118,-0.1797 -6.8e-4,0 -8e-4,-0.01 -0.002,-0.01 -0.0157,-0.018 -0.033,-0.035 -0.043,-0.057 -0.0292,-0.062 -0.0369,-0.1337 -0.0566,-0.1992 -0.0355,-0.024 -0.0625,-0.055 -0.0879,-0.09 -0.002,0 -0.009,-0.011 -0.0273,-0.025 -0.0315,-0.026 -0.0737,-0.061 -0.0957,-0.098 -0.0563,0.01 -0.11298,0.012 -0.17187,0.019 -0.0546,0.01 -0.0915,-0.02 -0.1211,-0.064 -7.24374,-0.7937 -37.34149,-18.4359 -57.29492,-34.6211 -35.76718,-29.0126 -67.71445,-71.8463 -86.83789,-116.4316 -24.95901,-58.1913 -30.33206,-122.2821 -14.60156,-174.1719 2.74829,-9.0658 4.96573,-17.0203 4.92773,-17.6778 z m 154.51954,340.4395 c 0.0222,0.025 0.27826,0.1739 0.29101,0.1933 0.23483,-0.059 0.441,-0.065 0.625,-0.031 -0.0162,-0.014 -0.0277,-0.027 -0.0449,-0.041 -0.0426,-0.035 -0.0835,-0.064 -0.12305,-0.092 -0.24444,-0.034 -0.49638,-0.031 -0.74804,-0.029 z m 1.96484,1.1953 c 7.3e-4,7e-4 9.7e-4,0 0.002,0 v 0 z m 0.002,0 v 0.01 c 10e-4,8e-4 0.005,0 0.008,0 h -0.002 -0.002 -0.002 z m 0.79492,0.3555 v 0.01 c 0.0381,0.02 0.075,0.043 0.11329,0.062 0.0267,0.014 -0.0454,-0.045 -0.0742,-0.055 -0.013,0 -0.0261,-0.014 -0.0391,-0.016 z m 1.53516,0.6152 v 0.01 c 0.0434,0.055 0.0861,0.1105 0.12891,0.166 0.0143,0 0.0275,-0.01 0.0371,0 0.0153,0.014 0.0284,0.032 0.041,0.049 0.0377,0 0.0763,-0.01 0.10742,-0.01 -0.0327,-0.036 -0.0641,-0.07 -0.0898,-0.092 -0.0649,-0.056 -0.14313,-0.089 -0.22461,-0.1192 z m 0.36523,0.293 c -0.0338,0.01 -0.0677,0.01 -0.10156,0.014 0.014,0.024 0.0278,0.05 0.043,0.072 0.0282,0.034 0.0622,0.062 0.0918,0.094 0.003,0 0.006,-6e-4 0.01,0.01 0.0576,0.031 -0.005,-0.1114 -0.043,-0.1855 z m -3.53124,1.3633 v 0.01 c 0.05,0.028 0.10038,0.056 0.15429,0.074 0.006,0 0.0169,-5e-4 0.0273,0 -0.0357,-0.016 -0.0629,-0.027 -0.10938,-0.049 -0.008,0 -0.0199,-0.014 -0.0293,-0.022 -0.0144,0 -0.0286,-0.012 -0.043,-0.012 z m 0.16992,0.051 v 0 c 0.0217,0.016 0.0444,0.03 0.0664,0.045 0.014,0 0.009,-6e-4 0.0234,0 h 0.008 c 0.10047,0.019 0.36297,0.072 0.39258,0.074 -0.002,-10e-4 -0.008,0 -0.0215,-0.01 -0.0809,-0.021 -0.16368,-0.035 -0.2461,-0.049 0.0162,0 0.0291,5e-4 0.0332,0 -0.002,0 -0.007,0 -0.0137,-0.01 -0.0796,-0.026 -0.16086,-0.04 -0.24218,-0.059 z m 47.24804,13.7676 c -0.002,2e-4 -0.007,0 -0.01,0 -0.004,0 -0.008,0 -0.0117,0.01 -0.004,0 -0.009,0.013 -0.0117,0.018 -7.9e-4,0 -0.001,0 -0.002,0.01 0.006,0 0.0151,-0.011 0.0215,-0.016 0.007,-0.01 0.0151,-0.011 0.0215,-0.014 v 0 c -0.003,0 -0.005,-10e-5 -0.008,0 z m 0.95313,0.8184 c -0.003,0 -0.009,0 -0.0176,0.01 -0.15918,0.1218 -0.27782,0.2862 -0.41016,0.4375 0.0661,-0.043 0.14855,-0.1003 0.28907,-0.2031 0.0621,-0.045 0.16156,-0.232 0.13867,-0.2422 z m -1.49805,0.3164 c 10e-4,0 0.01,0.014 0.0273,0.035 0.0206,0 0.0509,0.01 0.0625,0.012 -0.0232,-0.013 -0.0604,-0.029 -0.0723,-0.037 -0.013,-0.01 -0.019,-0.013 -0.0176,-0.01 z m 34.88477,3.291 c -0.007,7e-4 -0.0136,0 -0.0215,0 -0.0261,0.027 -0.0288,0.038 -0.0527,0.062 0.002,0.036 0.0352,0.055 0.0352,0.092 10e-6,0.079 -0.0673,0.1234 -0.0762,0.1973 0.14672,-0.1984 0.25092,-0.37 0.11524,-0.3555 z" />
  <path
     style="display:inline;fill:url(#linearGradient45);stroke:#000000;stroke-width:1;paint-order:markers stroke fill"
     d="m 838.95508,917.209 -26.42578,4.1113 -26.42383,4.1094 -23.30078,12.0859 -23.30274,12.086 -18.14453,18.8339 c -15.34703,15.93 -19.127,20.7902 -24.51758,31.5235 -3.50516,6.9793 -6.37304,13.0262 -6.37304,13.4375 0,0.4114 1.03947,0.748 2.31054,0.748 1.54796,0 2.01431,0.7752 1.41016,2.3496 -0.4961,1.2928 -3.47265,10.8602 -6.61328,21.2598 -20.61589,68.2649 -6.98727,146.9309 37.51953,216.5664 26.70033,41.7758 60.06288,74.1489 98.05273,95.1465 9.65894,5.3386 17.59164,10.1141 18.70704,11.2129 0.0474,-0.016 0.0954,-0.03 0.14453,-0.039 0.0591,-0.01 0.119,-0.015 0.18359,-0.022 0.16704,0 0.36009,0.04 0.60742,0.2149 0.11677,0.016 0.23139,0.038 0.34375,0.076 0.11016,0.037 0.18858,0.1226 0.25586,0.2226 0.25289,0.155 0.45986,0.389 0.65039,0.6348 0.0666,0.086 0.18572,0.1697 0.16992,0.2773 -0.003,0.022 -0.0168,0.028 -0.0332,0.031 -0.003,-8e-4 -0.006,0 -0.01,0 0.077,0.034 0.15408,0.069 0.23242,0.1 h 0.002 c 0.0137,10e-5 0.024,0 0.0371,0 -0.0575,-0.03 -0.15066,-0.074 -0.19922,-0.088 -0.014,0 -0.0374,-0.01 -0.0586,-0.012 0.0428,0.01 0.0861,0.014 0.1289,0.022 0.0521,0.028 0.10435,0.055 0.15625,0.084 0.4266,0.014 0.54228,0.1428 1.13672,0.3692 0.0709,0.067 0.027,0.026 0.0742,0.07 0.25249,0.052 0.30133,0.086 0.55469,0.2246 0.01,0.011 0.0178,0.024 0.0273,0.035 0.18559,0.1044 0.36968,0.2115 0.42188,0.2461 0.0213,0.014 0.0365,0.037 0.0547,0.055 -0.0199,0 -0.0582,-10e-4 -0.082,0.01 0.007,0.01 0.0143,0.017 0.0215,0.025 h 0.002 0.006 c 0.008,10e-5 0.004,10e-4 0.0625,0.012 0.0177,0.01 0.0354,0.017 0.0527,0.027 0.0548,-0.01 0.10963,-0.015 0.16406,-0.018 -0.0144,-0.01 -0.0286,-0.01 -0.043,-0.016 -0.0175,-0.01 0.0366,0.01 0.0547,0.014 -0.004,2e-4 -0.008,0 -0.0117,0 0.23739,0.084 0.4777,0.1591 0.71679,0.2383 0.2005,0.067 0.401,0.1332 0.60157,0.1992 h 0.002 c 0.17494,0.058 0.3325,0.1242 0.47656,0.1973 6.97501,1.2415 37.60825,12.0511 40.58985,14.3262 0.34261,-0.01 0.68217,0.02 1.02343,0.049 0.10418,0.031 0.20986,0.057 0.3125,0.092 0.0312,0.01 0.0715,0.018 0.0879,0.047 0.009,0.016 -0.0517,0 -0.0527,0.014 -2e-4,0 0.008,2e-4 0.01,0 0.24335,-0.078 0.4369,-5e-4 0.76953,0.1269 0.004,0.032 0.009,0.041 0.008,0.045 0.0365,-0.01 0.0724,-0.012 0.10937,-0.02 0.2335,-0.026 0.21454,-0.015 0.45704,0 0.13549,0.044 0.27183,0.084 0.40625,0.1309 0.004,0 0.007,0.01 0.008,0.01 0.063,0.01 0.12714,0.014 0.18945,0.025 0.0509,0.01 0.0983,0.024 0.14844,0.037 0.23523,0.055 0.47368,0.097 0.70703,0.1601 0.002,10e-4 0.1512,0.051 0.1582,0.061 0.008,0.012 -0.0193,0.012 -0.0293,0.012 -0.1101,0.078 -0.45899,0.2734 -0.33008,0.2344 0.20033,-0.061 0.3455,-0.2608 0.55078,-0.3028 0.36917,-0.075 0.6483,0.2152 0.9668,0.3164 0.0308,0.09 -10e-4,0.049 0.14062,0.037 0.31891,-0.027 0.64324,-0.034 0.95508,0.053 0.0851,0.017 0.17076,0.034 0.25586,0.051 0.0311,0.01 0.0938,-0.013 0.0918,0.02 -9.3e-4,0.018 -0.0309,0.028 -0.0586,0.033 0.083,-0.01 0.16469,-0.031 0.24805,-0.031 0.19911,0.01 0.24471,0.029 0.38281,0.084 0.21593,0.074 0.43565,0.1311 0.65234,0.2031 0.021,0.01 0.0308,0.039 0.0527,0.039 0.0429,0.01 0.0874,0 0.13086,0 0.33533,0 0.67719,-0.059 0.99414,0.088 0.23063,0.106 0.22878,0.1 0.45312,0.2207 0.0544,0.029 0.10591,0.066 0.16211,0.092 0.0288,0.014 0.0612,0.013 0.0918,0.023 0.16626,0.046 0.15198,0.042 0.30469,0.088 0.28073,0.075 0.35945,0.1 0.64258,0.166 0.10999,0.026 0.2178,0.061 0.33007,0.074 0.0931,0.01 0.18765,-0.01 0.28125,-0.01 0.43073,0.016 0.3888,0.02 0.75196,0.088 0.14607,0.027 0.29234,0.063 0.43945,0.084 0.26277,0.037 0.14485,0 0.42578,0.066 0.11854,0.027 0.23536,0.061 0.35352,0.09 0.1475,0.036 0.29563,0.068 0.44336,0.1035 0.48631,0.088 0.97475,0.1667 1.45117,0.3008 0.0304,0.01 0.0629,0.012 0.0918,0.025 0.0106,0 0.0122,0.023 0.0234,0.023 0.0208,0.01 0.0431,0 0.0645,0 0.2085,0 0.34736,-0.098 0.5664,-0.02 0.22577,0.057 0.45189,0.1063 0.67969,0.1543 0.13958,0.029 0.28065,0.055 0.41992,0.086 0.0406,0.01 0.0828,0.017 0.1211,0.033 0.0311,0.014 0.0573,0.037 0.0859,0.055 0.35616,-0.1496 0.38462,-0.182 0.83203,-0.25 0.0811,-0.017 0.1641,0 0.2461,0 0.26213,0.014 0.51792,0.042 0.77539,0.09 0.18692,-0.011 0.3755,-0.024 0.5625,-0.01 1.29754,-0.3672 3.44854,-0.5136 6.96875,-0.5136 5.49748,0 7.69066,0.3621 8.33594,1.4003 0.16468,0.016 0.32696,0.052 0.49023,0.078 0.26585,0.1 0.53018,0.2053 0.80469,0.2793 0.0609,0.016 0.12099,0.037 0.18359,0.047 0.15932,0.017 0.32161,-0.03 0.48047,0 0.7114,0.025 1.42367,-0.018 2.13477,-0.037 0.33619,0 0.67185,-10e-5 1.00781,0.012 h 0.18555 c 0.0363,10e-5 0.0733,0.01 0.10937,0.01 0.0663,-0.01 0.12881,-0.035 0.19531,-0.045 0.10869,-0.01 0.2189,-0.01 0.32813,-0.01 -0.0421,0.018 -0.0277,0.01 0.0469,0.02 0.52107,-0.096 1.04483,-0.213 1.57422,-0.25 0.17832,-0.012 0.55858,0.065 0.6875,0.086 0.13665,0.034 0.2748,0.064 0.41016,0.1016 0.0937,0.026 0.17949,0.077 0.27539,0.094 0.0426,0.01 0.0863,-0.012 0.1289,-0.022 0.3288,-0.06 0.65412,-0.1311 0.98047,-0.2031 0.25619,-0.059 0.25204,-0.067 0.5586,-0.084 0.43293,-0.022 -0.13674,0.048 0.35742,0.01 0.15095,-0.012 0.29705,-0.074 0.44922,-0.074 0.48845,-0.073 0.97791,-0.1316 1.46875,-0.1856 0.42125,-0.061 0.40795,-0.088 0.89648,0 0.0918,0.017 0.18897,0.038 0.26367,0.094 0.0236,0.018 -0.0548,0.073 -0.0273,0.084 0.12358,0.048 0.26955,-0.1428 0.39453,-0.039 0.38557,0.016 0.76898,0.051 1.15235,0.096 0.12704,0.014 0.25299,0.049 0.38085,0.049 0.1863,0 0.3589,-0.1479 0.55274,-0.088 0.47995,-0.027 0.94643,-0.052 1.42383,0.024 0.0704,0.011 0.13753,0.037 0.20703,0.053 0.0824,0.019 0.16525,0.034 0.24805,0.051 0.0157,-10e-4 0.35684,-0.014 0.37304,-0.014 0.0965,-0.017 0.18806,-0.061 0.28516,-0.074 0.15485,-0.017 0.31055,-0.027 0.4668,-0.027 0.20615,0 0.40184,0.1264 0.60937,0.1094 0.29705,0.06 0.47225,0.097 0.78516,0.1465 0.0809,0.013 0.16324,0.016 0.24414,0.029 0.0584,0.01 0.11483,0.035 0.17383,0.035 0.10411,-0.01 0.20262,-0.055 0.30664,-0.065 0.15792,-0.01 0.31626,0.01 0.47461,0.01 0.13079,0.033 0.25717,0.079 0.39062,0.098 0.064,0.01 0.13091,0 0.19531,0.012 0.18491,0.017 0.37053,0.034 0.54297,0.1055 0.49159,-0.035 0.98569,-0.026 1.4707,0.07 0.20116,0.013 0.20012,0.01 0.44532,0.045 0.09,0.013 0.18878,0 0.26758,0.047 0.0274,0.016 -0.088,0.076 -0.0566,0.076 0.16411,0.017 0.30477,-0.2087 0.48437,-0.1074 0.16538,0 0.33086,-0.01 0.49609,0 0.15289,0.01 0.30475,0.034 0.45704,0.049 0.32093,0.036 0.63503,0.063 0.95703,0.035 0.2652,0 0.52054,3e-4 0.78515,0.027 0.0153,10e-4 0.0307,0 0.0449,0.012 0.0106,0 0.0178,0.02 0.0293,0.02 0.0762,-10e-4 0.15262,-0.014 0.22852,-0.024 0.11559,0.01 0.23064,0.01 0.3457,0.02 0.0679,0.01 0.13437,0.029 0.20117,0.043 0.11677,0.024 0.23297,0.047 0.34961,0.072 0.0856,0.019 0.17231,0.04 0.25781,0.059 0.0799,0.018 0.15699,0.043 0.23829,0.053 0.0531,0 0.10675,-0.01 0.16015,-0.01 0.1564,-0.012 0.31196,-0.043 0.46875,-0.043 0.13195,0 0.26491,-3e-4 0.39649,0.01 0.0733,0.01 0.14429,0.025 0.21679,0.037 0.48147,0.081 0.5173,0.085 1.01172,0.1622 0.32827,0.048 0.4964,0.083 0.7793,0.1015 0.56637,0.035 1.12293,-0.01 1.66797,0.2051 l 0.002,-0.027 c 0.34272,0.1351 0.56229,0.3211 0.68559,0.5136 6.1,-1.1705 12.1657,-3.4612 26.3457,-8.9394 l 24.6543,-9.5254 19.9511,-16.5391 19.9512,-16.539 14.627,-23.5196 14.6289,-23.5195 8.0039,-29.6934 8.0019,-29.6933 -0.9824,-30.9199 -0.9824,-30.9219 -7.7578,-30.9199 c -7.7507,-30.8946 -7.769,-30.947 -23.1524,-61.1231 -14.9829,-29.39 -15.9718,-30.898 -36.7793,-56.0898 -20.7445,-25.1156 -22.1621,-26.4872 -47.5703,-46.0352 -26.18014,-20.1417 -26.19913,-20.1524 -54.95311,-32.6641 l -28.76368,-12.5156 -28.22656,-3.9394 z"
     id="path21" />
  <path
     id="path41"
     style="display:inline;fill:url(#linearGradient42);stroke:#000000;stroke-width:1;paint-order:markers stroke fill"
     d="m 1131.3535,817.85352 c -4.97,0.13117 -9.859,0.97715 -19.5,2.66796 -18.3445,3.21724 -20.7044,4.03617 -42.7969,14.83204 l -23.3828,11.42578 13.8946,5.61523 c 11.8735,4.79857 18.0995,8.78627 42.7988,27.41607 l 28.9023,21.8007 24.043,28.8594 24.043,28.8594 16.6015,33.1797 16.6035,33.1816 8.6114,35.9805 c 8.2535,34.4809 8.6133,36.7668 8.6133,54.8066 0,17.7063 0.1503,18.7095 2.5175,16.8906 1.3843,-1.0636 11.1291,-9.0699 21.6563,-17.7929 17.8878,-14.8223 19.8446,-16.9592 29.9043,-32.6367 9.5834,-14.9354 11.3745,-18.8777 16.3262,-35.9532 4.8229,-16.6324 5.6928,-21.8968 6.5429,-39.6406 0.965,-20.1407 0.8956,-20.8276 -4.3769,-43.8652 -4.7603,-20.7993 -6.4657,-25.6233 -15.3262,-43.3457 -8.209,-16.4194 -12.5582,-23.046 -24.6191,-37.5215 -12.3085,-14.7725 -17.5783,-19.7382 -32.9922,-31.08986 -15.6672,-11.53815 -21.2365,-14.6904 -38.1719,-21.59571 -18.1468,-7.39921 -21.5324,-8.28493 -39.9023,-10.44726 -9.9675,-1.17328 -15.0203,-1.75813 -19.9903,-1.62695 z M 945.61719,828.6543 c -3.09392,0.0201 -17.92219,2.21417 -32.95117,4.875 l -27.32618,4.83789 -45.84765,19.93359 c -25.21696,10.96382 -44.88428,20.12642 -43.70313,20.36132 1.18115,0.235 10.04232,-0.9185 19.68946,-2.5644 l 17.53906,-2.9942 34.07226,4.5859 34.07032,4.586 34.0039,14.7031 34.00394,14.7031 30.748,23.4629 30.7461,23.4629 25.8438,31.3516 25.8418,31.3515 17.7929,35.5625 17.793,35.5606 9.1855,37.2051 9.1836,37.2031 v 38.3457 38.3457 l -9.1269,33.0781 -9.127,33.0782 -11.7265,18.371 c -6.4492,10.1036 -11.7266,18.7535 -11.7266,19.2227 0,0.4692 2.4283,-1.3294 5.3945,-3.998 2.9663,-2.6685 20.9243,-18.5052 39.9082,-35.1914 l 34.5176,-30.3379 16.1055,-25.1993 16.1055,-25.1992 8.5527,-30.0234 8.5547,-30.0235 0.9472,-33.7968 0.9473,-33.7989 -8.7734,-36.6523 -8.7754,-36.6543 -16.832,-32.7246 -16.8321,-32.7266 -23.3848,-28.041 -23.3828,-28.039 -28.5,-21.4297 -28.498,-21.4278 -31.4414,-13.10934 -31.4414,-13.10938 -28.2617,-3.5918 c -15.5447,-1.97494 -30.79481,-3.57478 -33.88871,-3.55468 z m -112.24414,48.9824 -30.82422,5.1211 -30.82422,5.1211 -25.88867,13.5664 -25.88672,13.5664 -21.30469,21.8809 -21.30664,21.8808 -14.2207,28.252 -14.21875,28.2519 -5.97461,32.1524 -5.97266,32.1523 1.71875,33.0782 1.7207,33.0781 9.77735,34.7461 c 9.68209,34.4092 9.93336,35.0512 26.0293,66.1562 15.51327,29.9792 17.2675,32.6764 38.5039,59.1973 21.38293,26.7039 23.32195,28.6725 49.76758,50.541 27.42979,22.6822 27.61634,22.8038 57.93164,37.9746 l 30.41211,15.2188 30.64648,7.1523 c 23.09979,5.3914 32.5924,7.0088 38.55469,6.5645 4.35051,-0.3242 18.1752,-1.0283 30.72071,-1.5645 l 22.81052,-0.9746 28.9649,-10.9824 28.9629,-10.9805 23.1718,-18.9453 23.17,-18.9473 17.1621,-27.039 17.164,-27.041 8.9239,-32.4903 8.9238,-32.4883 v -36.9453 -36.9433 l -9.4297,-37.711 -9.4316,-37.7109 -18.0098,-35.1152 -18.0098,-35.1133 -24.4218,-29.6055 -24.4219,-29.6035 -30.8223,-23.75 -30.8223,-23.75 -34.16793,-14.6367 -34.16601,-14.6368 -32.45704,-4.3398 z m 5.77929,34.9727 28.84766,4.0762 28.8457,4.0761 29.18555,12.5352 29.1875,12.5332 26.68355,20.4687 c 26.1933,20.092 27.0825,20.954 48.4746,46.9317 21.1446,25.6769 22.2496,27.3556 37.1622,56.4746 l 15.3691,30.0097 8.7207,34.8321 8.7207,34.832 v 29.752 29.7519 l -7.2422,27.461 c -3.9832,15.1031 -7.9268,29.0771 -8.7617,31.0546 -0.8349,1.9775 -7.7367,13.5544 -15.3379,25.7266 l -13.8203,22.1309 -20.6035,17.2324 -20.6035,17.2324 -24.9883,9.6816 c -24.6875,9.566 -25.2041,9.695 -42.74806,10.6348 -9.76705,0.5233 -22.61242,1.2486 -28.54492,1.6113 -9.12867,0.558 -15.05164,-0.3216 -38.53711,-5.7226 -27.45132,-6.3131 -28.0292,-6.5258 -53.68555,-19.7168 -23.69477,-12.1825 -28.00588,-15.0309 -49.91015,-32.961 -22.01186,-18.0181 -25.56469,-21.6121 -43.34961,-43.8828 -17.24199,-21.5907 -20.93539,-27.2628 -33.59766,-51.584 -13.46262,-25.8584 -14.67852,-28.9433 -22.64844,-57.4511 l -8.42187,-30.125 -1.67188,-30.2774 -1.67187,-30.2793 5.32422,-27.9062 5.32226,-27.9063 12.30078,-24.5879 c 12.18869,-24.3667 12.45981,-24.7583 30.24414,-43.6367 l 17.94532,-19.0488 23.94336,-12.5469 23.94531,-12.5488 27.96094,-4.4277 z" />
  <path
     id="path45"
     style="display:inline;opacity:0.4;fill:url(#linearGradient49);stroke:none;stroke-width:1;paint-order:markers stroke fill;filter:url(#filter51)"
     d="m 830.45898,947.4121 c -68.64391,-9e-4 -124.29113,71.0113 -124.29101,158.6094 0.0962,54.1074 21.80021,104.4195 57.57422,133.4629 -23.99169,-29.8166 -37.53939,-70.7266 -37.57422,-113.4629 -1.2e-4,-87.5981 55.6471,-158.6103 124.29101,-158.6094 23.42226,0.01 49.49141,1.7447 71.62319,13.4613 -24.07083,-23.3218 -59.4772,-33.4463 -91.62319,-33.4613 z"
     sodipodi:nodetypes="ccccccc" />
  <path
     id="path46"
     style="display:inline;opacity:0.2;fill:url(#linearGradient47);stroke:none;stroke-width:1;paint-order:markers stroke fill;filter:url(#filter47)"
     d="m 938.41414,1355.8499 c 68.64386,9e-4 124.29116,-71.0113 124.29096,-158.6094 -0.096,-54.1074 -21.8002,-104.4195 -57.5742,-133.4629 23.9917,29.8166 37.5394,70.7266 37.5742,113.4629 2e-4,87.5981 -55.6471,158.6103 -124.29096,158.6094 -23.42226,-0.01 -49.49141,-1.7447 -71.62319,-13.4613 24.07083,23.3219 59.4772,33.4463 91.62319,33.4613 z"
     sodipodi:nodetypes="ccccccc" />
  <text
     xml:space="preserve"
     style="font-style:normal;font-variant:normal;font-weight:normal;font-stretch:normal;font-size:374.619px;line-height:1.25;font-family:Impact;-inkscape-font-specification:'Impact, Normal';font-variant-ligatures:normal;font-variant-caps:normal;font-variant-numeric:normal;font-variant-east-asian:normal;display:inline;fill:#000000;fill-opacity:1;stroke:#ffffff;stroke-width:32;stroke-dasharray:none;stroke-opacity:1;paint-order:markers stroke fill"
     x="27.202385"
     y="362.36594"
     id="text49"><tspan
       sodipodi:role="line"
       id="tspan49"
       x="27.202385"
       y="362.36594"
       style="stroke:#ffffff;stroke-width:32;stroke-dasharray:none;stroke-opacity:1;paint-order:markers stroke fill">Observation</tspan><tspan
       sodipodi:role="line"
       x="27.202385"
       y="830.63965"
       style="stroke:#ffffff;stroke-width:32;stroke-dasharray:none;stroke-opacity:1;paint-order:markers stroke fill"
       id="tspan64">Duty</tspan></text>
  <path
     id="path56"
     style="display:inline;opacity:0.44;mix-blend-mode:normal;fill:url(#linearGradient56);stroke:none;stroke-width:1;paint-order:markers stroke fill"
     d="m 1668.4122,472.77325 c -3.6268,-0.0656 -7.3684,-0.059 -11.5683,0.008 -5.6,0.089 -12.0142,0.28521 -20.0528,0.56445 -47.2627,1.6418 -81.5148,6.32535 -121.5254,16.61719 -25.1798,6.47698 -71.0381,22.18509 -275.7872,94.4668 -135.0711,47.68361 -244.9988,86.89232 -244.2832,87.13086 0.7156,0.23852 6.4278,-0.87486 12.6934,-2.47461 6.277,-1.60268 33.6266,-5.25048 60.914,-8.125 49.4649,-5.21077 49.5775,-5.21511 96.2637,-4.31836 44.5686,0.85607 49.0481,1.20195 96.3594,7.45703 182.9962,49.56784 240.6399,29.75261 414.6661,-69.11133 179.2621,-96.01443 220.1007,-100.17947 31.0859,-119.39062 -18.043,-1.78445 -27.8852,-2.62731 -38.7656,-2.82422 z m 14.584,123.70898 c 41.4818,-546.80076 41.4818,-546.80076 0,0 z"
     sodipodi:nodetypes="ccsssssssccsccss" />
  <g
     inkscape:groupmode="layer"
     id="layer1"
     inkscape:label="I"
     style="display:inline">
    <text
       xml:space="preserve"
       style="font-style:normal;font-weight:normal;font-size:758.962px;line-height:1.25;font-family:sans-serif;display:inline;fill:#000000;fill-opacity:1;stroke:#ffffff;stroke-width:32;stroke-dasharray:none;stroke-opacity:1;paint-order:markers stroke fill"
       x="1673.8293"
       y="1900"
       id="text57"
       inkscape:label="I"
       sodipodi:insensitive="true"><tspan
         sodipodi:role="line"
         id="tspan57"
         x="1673.8293"
         y="1900"
         style="stroke:#ffffff;stroke-width:32;stroke-dasharray:none;stroke-opacity:1;paint-order:markers stroke fill">I</tspan></text>
    <path
       id="path57"
       style="display:inline;mix-blend-mode:color;fill:#ff6b00;stroke:none;stroke-width:1;paint-order:markers stroke fill;fill-opacity:1"
       d="m 1668.4122,472.77306 c -3.6268,-0.0656 -7.3684,-0.0594 -11.5683,0.008 -5.6,0.089 -12.0143,0.28522 -20.0527,0.56446 -47.2627,1.64178 -81.515,6.32536 -121.5254,16.61718 -25.1798,6.47698 -71.0387,22.18523 -275.7872,94.4668 -84.0772,29.68147 -195.0133,70.75015 -281.97649,103.21484 -21.5394,6.21945 -42.7492,13.60352 -64.1016,22.40625 l -45.1523,18.61329 h -10.9942 l 52.4004,-23.05469 c 29.1401,-12.1241 103.07129,-38.94809 267.50389,-97.06055 124.9777,-44.16859 228.8507,-81.01766 230.8282,-81.88476 1.498,-0.65686 2.0707,-1.01953 1.455,-1.14454 -0.6157,-0.125 -2.4209,-0.0107 -5.6777,0.28907 -5.1976,0.47837 -101.5834,33.00271 -287.6367,97.0625 -153.90019,52.98916 -298.40829,105.34464 -301.57229,106.5664 -1.252,0.48349 -2.0518,0.8326 -2.4844,1.11914 -1.1177,0.46771 -1.6771,1.02691 -1.6835,1.70313 -0.086,9.10379 18.259,127.53817 20.0664,129.54292 1.1227,1.2454 18.109,-4.73724 37.7461,-13.29488 49.062,-21.38076 82.1589,-27.09279 127.47459,-22.0039 19.1328,2.14862 38.6374,6.27331 48.705,10.30078 l 16.793,6.7168 24.9141,-12.46485 c 42.9907,-21.50781 81.1138,-23.52246 125.5879,-6.63867 54.0345,20.51334 98.6951,71.45462 114.0078,130.04102 7.2532,27.7504 7.1005,68.7238 -0.3535,94.7891 -8.0572,28.1747 -26.1843,53.9413 -52.7012,74.916 -20.2141,15.9891 -21.8298,18.0643 -21.9707,28.2207 -0.084,6.0293 -4.5414,26.2088 -9.9063,44.8437 -7.7666,26.9775 -13.0411,38.9786 -25.8867,58.8907 -8.8731,13.7543 -16.1328,25.5421 -16.1328,26.1953 0,0.6532 6.7941,1.6631 15.0996,2.2441 71.7788,5.0215 151.767,-2.6736 227.9531,-21.9297 48.8146,-12.3378 48.9605,-12.3539 84.8536,-10.3066 19.7748,1.128 36.0439,1.876 36.1543,1.664 0.021,-0.041 -3.8617,-44.447 -4.5938,-53.082 1.6759,-0.753 3.3472,-1.5176 4.957,-2.3828 0.7027,8.2372 4.4649,51.7774 4.4649,51.8945 0,0.6208 1.8412,-0.9975 4.0859,-3.5957 3.9414,-4.5623 325.4121,-392.04617 329.377,-397.01365 1.6599,-2.07971 0.609,-28.72295 -6.9219,-175.41406 -4.8839,-95.12848 -9.3241,-174.63256 -9.8672,-176.67578 -0.1216,-0.45745 -0.2712,-0.83452 -0.7852,-0.94727 -8.4873,1.94523 -16.7979,3.99 -24.9375,6.13086 5.4856,-3.34287 11.0147,-6.77938 16.4922,-10.08398 -0.2127,-0.1542 -9.805,0.35749 -21.3164,1.13672 l -20.9297,1.41601 -35.2441,-8.14648 c -30.0787,-6.95322 -40.3965,-8.65822 -70.3945,-11.625 -18.043,-1.78445 -27.8853,-2.62731 -38.7657,-2.82422 z m -531.1269,183.43359 c 7.3487,0.0443 16.1097,0.21136 27.7812,0.43555 44.5685,0.85607 49.0484,1.20197 96.3594,7.45703 1.4098,0.47642 2.802,0.84515 4.209,1.30469 -31.9861,-1.60029 -67.4377,-2.38994 -107.4512,-2.88477 -76.6127,-0.017 -139.1539,7.60675 -198.88669,24.64844 19.83579,-7.43486 46.73319,-17.60747 48.59179,-18.08203 6.2771,-1.60268 33.6266,-5.25048 60.9141,-8.125 37.0985,-3.90807 46.4363,-4.88674 68.4824,-4.75391 z"
       sodipodi:nodetypes="scssscccccsssssscsssscccssssssssssssccsssssccccccssssccccsss"
       inkscape:label="Color" />
  </g>
  <g
     inkscape:groupmode="layer"
     id="g59"
     inkscape:label="II"
     style="display:none">
    <text
       xml:space="preserve"
       style="font-style:normal;font-weight:normal;font-size:758.962px;line-height:1.25;font-family:sans-serif;display:inline;fill:#000000;fill-opacity:1;stroke:#ffffff;stroke-width:32;stroke-dasharray:none;stroke-opacity:1;paint-order:markers stroke fill"
       x="1416.5406"
       y="1900"
       id="text59"
       inkscape:label="I"
       sodipodi:insensitive="true"><tspan
         sodipodi:role="line"
         id="tspan59"
         x="1416.5406"
         y="1900"
         style="stroke:#ffffff;stroke-width:32;stroke-dasharray:none;stroke-opacity:1;paint-order:markers stroke fill">II</tspan></text>
    <path
       id="path59"
       style="display:inline;mix-blend-mode:color;fill:#ff0000;fill-opacity:1;stroke:none;stroke-width:1;paint-order:markers stroke fill"
       d="m 1668.4122,472.77306 c -3.6268,-0.0656 -7.3684,-0.0594 -11.5683,0.008 -5.6,0.089 -12.0143,0.28522 -20.0527,0.56446 -47.2627,1.64178 -81.515,6.32536 -121.5254,16.61718 -25.1798,6.47698 -71.0387,22.18523 -275.7872,94.4668 -84.0772,29.68147 -195.0133,70.75015 -281.97649,103.21484 -21.5394,6.21945 -42.7492,13.60352 -64.1016,22.40625 l -45.1523,18.61329 h -10.9942 l 52.4004,-23.05469 c 29.1401,-12.1241 103.07129,-38.94809 267.50389,-97.06055 124.9777,-44.16859 228.8507,-81.01766 230.8282,-81.88476 1.498,-0.65686 2.0707,-1.01953 1.455,-1.14454 -0.6157,-0.125 -2.4209,-0.0107 -5.6777,0.28907 -5.1976,0.47837 -101.5834,33.00271 -287.6367,97.0625 -153.90019,52.98916 -298.40829,105.34464 -301.57229,106.5664 -1.252,0.48349 -2.0518,0.8326 -2.4844,1.11914 -1.1177,0.46771 -1.6771,1.02691 -1.6835,1.70313 -0.086,9.10379 18.259,127.53817 20.0664,129.54292 1.1227,1.2454 18.109,-4.73724 37.7461,-13.29488 49.062,-21.38076 82.1589,-27.09279 127.47459,-22.0039 19.1328,2.14862 38.6374,6.27331 48.705,10.30078 l 16.793,6.7168 24.9141,-12.46485 c 42.9907,-21.50781 81.1138,-23.52246 125.5879,-6.63867 54.0345,20.51334 98.6951,71.45462 114.0078,130.04102 7.2532,27.7504 7.1005,68.7238 -0.3535,94.7891 -8.0572,28.1747 -26.1843,53.9413 -52.7012,74.916 -20.2141,15.9891 -21.8298,18.0643 -21.9707,28.2207 -0.084,6.0293 -4.5414,26.2088 -9.9063,44.8437 -7.7666,26.9775 -13.0411,38.9786 -25.8867,58.8907 -8.8731,13.7543 -16.1328,25.5421 -16.1328,26.1953 0,0.6532 6.7941,1.6631 15.0996,2.2441 71.7788,5.0215 151.767,-2.6736 227.9531,-21.9297 48.8146,-12.3378 48.9605,-12.3539 84.8536,-10.3066 19.7748,1.128 36.0439,1.876 36.1543,1.664 0.021,-0.041 -3.8617,-44.447 -4.5938,-53.082 1.6759,-0.753 3.3472,-1.5176 4.957,-2.3828 0.7027,8.2372 4.4649,51.7774 4.4649,51.8945 0,0.6208 1.8412,-0.9975 4.0859,-3.5957 3.9414,-4.5623 325.4121,-392.04617 329.377,-397.01365 1.6599,-2.07971 0.609,-28.72295 -6.9219,-175.41406 -4.8839,-95.12848 -9.3241,-174.63256 -9.8672,-176.67578 -0.1216,-0.45745 -0.2712,-0.83452 -0.7852,-0.94727 -8.4873,1.94523 -16.7979,3.99 -24.9375,6.13086 5.4856,-3.34287 11.0147,-6.77938 16.4922,-10.08398 -0.2127,-0.1542 -9.805,0.35749 -21.3164,1.13672 l -20.9297,1.41601 -35.2441,-8.14648 c -30.0787,-6.95322 -40.3965,-8.65822 -70.3945,-11.625 -18.043,-1.78445 -27.8853,-2.62731 -38.7657,-2.82422 z m -531.1269,183.43359 c 7.3487,0.0443 16.1097,0.21136 27.7812,0.43555 44.5685,0.85607 49.0484,1.20197 96.3594,7.45703 1.4098,0.47642 2.802,0.84515 4.209,1.30469 -31.9861,-1.60029 -67.4377,-2.38994 -107.4512,-2.88477 -76.6127,-0.017 -139.1539,7.60675 -198.88669,24.64844 19.83579,-7.43486 46.73319,-17.60747 48.59179,-18.08203 6.2771,-1.60268 33.6266,-5.25048 60.9141,-8.125 37.0985,-3.90807 46.4363,-4.88674 68.4824,-4.75391 z"
       sodipodi:nodetypes="scssscccccsssssscsssscccssssssssssssccsssssccccccssssccccsss"
       inkscape:label="Color" />
  </g>
  <g
     inkscape:groupmode="layer"
     id="g60"
     inkscape:label="III"
     style="display:none">
    <text
       xml:space="preserve"
       style="font-style:normal;font-weight:normal;font-size:758.962px;line-height:1.25;font-family:sans-serif;display:inline;fill:#000000;fill-opacity:1;stroke:#ffffff;stroke-width:32;stroke-dasharray:none;stroke-opacity:1;paint-order:markers stroke fill"
       x="1159.2521"
       y="1900"
       id="text60"
       inkscape:label="III"><tspan
         sodipodi:role="line"
         id="tspan60"
         x="1159.2521"
         y="1900"
         style="stroke:#ffffff;stroke-width:32;stroke-dasharray:none;stroke-opacity:1;paint-order:markers stroke fill">III</tspan></text>
    <path
       id="path60"
       style="display:inline;mix-blend-mode:color;fill:#9b00bb;fill-opacity:1;stroke:none;stroke-width:1;paint-order:markers stroke fill"
       d="m 1668.4122,472.77306 c -3.6268,-0.0656 -7.3684,-0.0594 -11.5683,0.008 -5.6,0.089 -12.0143,0.28522 -20.0527,0.56446 -47.2627,1.64178 -81.515,6.32536 -121.5254,16.61718 -25.1798,6.47698 -71.0387,22.18523 -275.7872,94.4668 -84.0772,29.68147 -195.0133,70.75015 -281.97649,103.21484 -21.5394,6.21945 -42.7492,13.60352 -64.1016,22.40625 l -45.1523,18.61329 h -10.9942 l 52.4004,-23.05469 c 29.1401,-12.1241 103.07129,-38.94809 267.50389,-97.06055 124.9777,-44.16859 228.8507,-81.01766 230.8282,-81.88476 1.498,-0.65686 2.0707,-1.01953 1.455,-1.14454 -0.6157,-0.125 -2.4209,-0.0107 -5.6777,0.28907 -5.1976,0.47837 -101.5834,33.00271 -287.6367,97.0625 -153.90019,52.98916 -298.40829,105.34464 -301.57229,106.5664 -1.252,0.48349 -2.0518,0.8326 -2.4844,1.11914 -1.1177,0.46771 -1.6771,1.02691 -1.6835,1.70313 -0.086,9.10379 18.259,127.53817 20.0664,129.54292 1.1227,1.2454 18.109,-4.73724 37.7461,-13.29488 49.062,-21.38076 82.1589,-27.09279 127.47459,-22.0039 19.1328,2.14862 38.6374,6.27331 48.705,10.30078 l 16.793,6.7168 24.9141,-12.46485 c 42.9907,-21.50781 81.1138,-23.52246 125.5879,-6.63867 54.0345,20.51334 98.6951,71.45462 114.0078,130.04102 7.2532,27.7504 7.1005,68.7238 -0.3535,94.7891 -8.0572,28.1747 -26.1843,53.9413 -52.7012,74.916 -20.2141,15.9891 -21.8298,18.0643 -21.9707,28.2207 -0.084,6.0293 -4.5414,26.2088 -9.9063,44.8437 -7.7666,26.9775 -13.0411,38.9786 -25.8867,58.8907 -8.8731,13.7543 -16.1328,25.5421 -16.1328,26.1953 0,0.6532 6.7941,1.6631 15.0996,2.2441 71.7788,5.0215 151.767,-2.6736 227.9531,-21.9297 48.8146,-12.3378 48.9605,-12.3539 84.8536,-10.3066 19.7748,1.128 36.0439,1.876 36.1543,1.664 0.021,-0.041 -3.8617,-44.447 -4.5938,-53.082 1.6759,-0.753 3.3472,-1.5176 4.957,-2.3828 0.7027,8.2372 4.4649,51.7774 4.4649,51.8945 0,0.6208 1.8412,-0.9975 4.0859,-3.5957 3.9414,-4.5623 325.4121,-392.04617 329.377,-397.01365 1.6599,-2.07971 0.609,-28.72295 -6.9219,-175.41406 -4.8839,-95.12848 -9.3241,-174.63256 -9.8672,-176.67578 -0.1216,-0.45745 -0.2712,-0.83452 -0.7852,-0.94727 -8.4873,1.94523 -16.7979,3.99 -24.9375,6.13086 5.4856,-3.34287 11.0147,-6.77938 16.4922,-10.08398 -0.2127,-0.1542 -9.805,0.35749 -21.3164,1.13672 l -20.9297,1.41601 -35.2441,-8.14648 c -30.0787,-6.95322 -40.3965,-8.65822 -70.3945,-11.625 -18.043,-1.78445 -27.8853,-2.62731 -38.7657,-2.82422 z m -531.1269,183.43359 c 7.3487,0.0443 16.1097,0.21136 27.7812,0.43555 44.5685,0.85607 49.0484,1.20197 96.3594,7.45703 1.4098,0.47642 2.802,0.84515 4.209,1.30469 -31.9861,-1.60029 -67.4377,-2.38994 -107.4512,-2.88477 -76.6127,-0.017 -139.1539,7.60675 -198.88669,24.64844 19.83579,-7.43486 46.73319,-17.60747 48.59179,-18.08203 6.2771,-1.60268 33.6266,-5.25048 60.9141,-8.125 37.0985,-3.90807 46.4363,-4.88674 68.4824,-4.75391 z"
       sodipodi:nodetypes="scssscccccsssssscsssscccssssssssssssccsssssccccccssssccccsss"
       inkscape:label="Color" />
  </g>
  <g
     inkscape:groupmode="layer"
     id="g61"
     inkscape:label="IV"
     style="display:none">
    <text
       xml:space="preserve"
       style="font-style:normal;font-weight:normal;font-size:758.962px;line-height:1.25;font-family:sans-serif;display:inline;fill:#000000;fill-opacity:1;stroke:#ffffff;stroke-width:32;stroke-dasharray:none;stroke-opacity:1;paint-order:markers stroke fill"
       x="1187.3342"
       y="1900"
       id="text61"
       inkscape:label="IV"><tspan
         sodipodi:role="line"
         id="tspan61"
         x="1187.3342"
         y="1900"
         style="stroke:#ffffff;stroke-width:32;stroke-dasharray:none;stroke-opacity:1;paint-order:markers stroke fill">IV</tspan></text>
    <path
       id="path61"
       style="display:inline;mix-blend-mode:color;fill:#0006ff;fill-opacity:1;stroke:none;stroke-width:1;paint-order:markers stroke fill"
       d="m 1668.4122,472.77306 c -3.6268,-0.0656 -7.3684,-0.0594 -11.5683,0.008 -5.6,0.089 -12.0143,0.28522 -20.0527,0.56446 -47.2627,1.64178 -81.515,6.32536 -121.5254,16.61718 -25.1798,6.47698 -71.0387,22.18523 -275.7872,94.4668 -84.0772,29.68147 -195.0133,70.75015 -281.97649,103.21484 -21.5394,6.21945 -42.7492,13.60352 -64.1016,22.40625 l -45.1523,18.61329 h -10.9942 l 52.4004,-23.05469 c 29.1401,-12.1241 103.07129,-38.94809 267.50389,-97.06055 124.9777,-44.16859 228.8507,-81.01766 230.8282,-81.88476 1.498,-0.65686 2.0707,-1.01953 1.455,-1.14454 -0.6157,-0.125 -2.4209,-0.0107 -5.6777,0.28907 -5.1976,0.47837 -101.5834,33.00271 -287.6367,97.0625 -153.90019,52.98916 -298.40829,105.34464 -301.57229,106.5664 -1.252,0.48349 -2.0518,0.8326 -2.4844,1.11914 -1.1177,0.46771 -1.6771,1.02691 -1.6835,1.70313 -0.086,9.10379 18.259,127.53817 20.0664,129.54292 1.1227,1.2454 18.109,-4.73724 37.7461,-13.29488 49.062,-21.38076 82.1589,-27.09279 127.47459,-22.0039 19.1328,2.14862 38.6374,6.27331 48.705,10.30078 l 16.793,6.7168 24.9141,-12.46485 c 42.9907,-21.50781 81.1138,-23.52246 125.5879,-6.63867 54.0345,20.51334 98.6951,71.45462 114.0078,130.04102 7.2532,27.7504 7.1005,68.7238 -0.3535,94.7891 -8.0572,28.1747 -26.1843,53.9413 -52.7012,74.916 -20.2141,15.9891 -21.8298,18.0643 -21.9707,28.2207 -0.084,6.0293 -4.5414,26.2088 -9.9063,44.8437 -7.7666,26.9775 -13.0411,38.9786 -25.8867,58.8907 -8.8731,13.7543 -16.1328,25.5421 -16.1328,26.1953 0,0.6532 6.7941,1.6631 15.0996,2.2441 71.7788,5.0215 151.767,-2.6736 227.9531,-21.9297 48.8146,-12.3378 48.9605,-12.3539 84.8536,-10.3066 19.7748,1.128 36.0439,1.876 36.1543,1.664 0.021,-0.041 -3.8617,-44.447 -4.5938,-53.082 1.6759,-0.753 3.3472,-1.5176 4.957,-2.3828 0.7027,8.2372 4.4649,51.7774 4.4649,51.8945 0,0.6208 1.8412,-0.9975 4.0859,-3.5957 3.9414,-4.5623 325.4121,-392.04617 329.377,-397.01365 1.6599,-2.07971 0.609,-28.72295 -6.9219,-175.41406 -4.8839,-95.12848 -9.3241,-174.63256 -9.8672,-176.67578 -0.1216,-0.45745 -0.2712,-0.83452 -0.7852,-0.94727 -8.4873,1.94523 -16.7979,3.99 -24.9375,6.13086 5.4856,-3.34287 11.0147,-6.77938 16.4922,-10.08398 -0.2127,-0.1542 -9.805,0.35749 -21.3164,1.13672 l -20.9297,1.41601 -35.2441,-8.14648 c -30.0787,-6.95322 -40.3965,-8.65822 -70.3945,-11.625 -18.043,-1.78445 -27.8853,-2.62731 -38.7657,-2.82422 z m -531.1269,183.43359 c 7.3487,0.0443 16.1097,0.21136 27.7812,0.43555 44.5685,0.85607 49.0484,1.20197 96.3594,7.45703 1.4098,0.47642 2.802,0.84515 4.209,1.30469 -31.9861,-1.60029 -67.4377,-2.38994 -107.4512,-2.88477 -76.6127,-0.017 -139.1539,7.60675 -198.88669,24.64844 19.83579,-7.43486 46.73319,-17.60747 48.59179,-18.08203 6.2771,-1.60268 33.6266,-5.25048 60.9141,-8.125 37.0985,-3.90807 46.4363,-4.88674 68.4824,-4.75391 z"
       sodipodi:nodetypes="scssscccccsssssscsssscccssssssssssssccsssssccccccssssccccsss"
       inkscape:label="Color" />
  </g>
  <g
     inkscape:groupmode="layer"
     id="g62"
     inkscape:label="V"
     style="display:none">
    <text
       xml:space="preserve"
       style="font-style:normal;font-weight:normal;font-size:758.962px;line-height:1.25;font-family:sans-serif;display:inline;fill:#000000;fill-opacity:1;stroke:#ffffff;stroke-width:32;stroke-dasharray:none;stroke-opacity:1;paint-order:markers stroke fill"
       x="1444.6228"
       y="1900"
       id="text62"
       inkscape:label="V"><tspan
         sodipodi:role="line"
         id="tspan62"
         x="1444.6228"
         y="1900"
         style="stroke:#ffffff;stroke-width:32;stroke-dasharray:none;stroke-opacity:1;paint-order:markers stroke fill">V</tspan></text>
    <path
       id="path62"
       style="display:inline;mix-blend-mode:color;fill:#00ff09;fill-opacity:1;stroke:none;stroke-width:1;paint-order:markers stroke fill"
       d="m 1668.4122,472.77306 c -3.6268,-0.0656 -7.3684,-0.0594 -11.5683,0.008 -5.6,0.089 -12.0143,0.28522 -20.0527,0.56446 -47.2627,1.64178 -81.515,6.32536 -121.5254,16.61718 -25.1798,6.47698 -71.0387,22.18523 -275.7872,94.4668 -84.0772,29.68147 -195.0133,70.75015 -281.97649,103.21484 -21.5394,6.21945 -42.7492,13.60352 -64.1016,22.40625 l -45.1523,18.61329 h -10.9942 l 52.4004,-23.05469 c 29.1401,-12.1241 103.07129,-38.94809 267.50389,-97.06055 124.9777,-44.16859 228.8507,-81.01766 230.8282,-81.88476 1.498,-0.65686 2.0707,-1.01953 1.455,-1.14454 -0.6157,-0.125 -2.4209,-0.0107 -5.6777,0.28907 -5.1976,0.47837 -101.5834,33.00271 -287.6367,97.0625 -153.90019,52.98916 -298.40829,105.34464 -301.57229,106.5664 -1.252,0.48349 -2.0518,0.8326 -2.4844,1.11914 -1.1177,0.46771 -1.6771,1.02691 -1.6835,1.70313 -0.086,9.10379 18.259,127.53817 20.0664,129.54292 1.1227,1.2454 18.109,-4.73724 37.7461,-13.29488 49.062,-21.38076 82.1589,-27.09279 127.47459,-22.0039 19.1328,2.14862 38.6374,6.27331 48.705,10.30078 l 16.793,6.7168 24.9141,-12.46485 c 42.9907,-21.50781 81.1138,-23.52246 125.5879,-6.63867 54.0345,20.51334 98.6951,71.45462 114.0078,130.04102 7.2532,27.7504 7.1005,68.7238 -0.3535,94.7891 -8.0572,28.1747 -26.1843,53.9413 -52.7012,74.916 -20.2141,15.9891 -21.8298,18.0643 -21.9707,28.2207 -0.084,6.0293 -4.5414,26.2088 -9.9063,44.8437 -7.7666,26.9775 -13.0411,38.9786 -25.8867,58.8907 -8.8731,13.7543 -16.1328,25.5421 -16.1328,26.1953 0,0.6532 6.7941,1.6631 15.0996,2.2441 71.7788,5.0215 151.767,-2.6736 227.9531,-21.9297 48.8146,-12.3378 48.9605,-12.3539 84.8536,-10.3066 19.7748,1.128 36.0439,1.876 36.1543,1.664 0.021,-0.041 -3.8617,-44.447 -4.5938,-53.082 1.6759,-0.753 3.3472,-1.5176 4.957,-2.3828 0.7027,8.2372 4.4649,51.7774 4.4649,51.8945 0,0.6208 1.8412,-0.9975 4.0859,-3.5957 3.9414,-4.5623 325.4121,-392.04617 329.377,-397.01365 1.6599,-2.07971 0.609,-28.72295 -6.9219,-175.41406 -4.8839,-95.12848 -9.3241,-174.63256 -9.8672,-176.67578 -0.1216,-0.45745 -0.2712,-0.83452 -0.7852,-0.94727 -8.4873,1.94523 -16.7979,3.99 -24.9375,6.13086 5.4856,-3.34287 11.0147,-6.77938 16.4922,-10.08398 -0.2127,-0.1542 -9.805,0.35749 -21.3164,1.13672 l -20.9297,1.41601 -35.2441,-8.14648 c -30.0787,-6.95322 -40.3965,-8.65822 -70.3945,-11.625 -18.043,-1.78445 -27.8853,-2.62731 -38.7657,-2.82422 z m -531.1269,183.43359 c 7.3487,0.0443 16.1097,0.21136 27.7812,0.43555 44.5685,0.85607 49.0484,1.20197 96.3594,7.45703 1.4098,0.47642 2.802,0.84515 4.209,1.30469 -31.9861,-1.60029 -67.4377,-2.38994 -107.4512,-2.88477 -76.6127,-0.017 -139.1539,7.60675 -198.88669,24.64844 19.83579,-7.43486 46.73319,-17.60747 48.59179,-18.08203 6.2771,-1.60268 33.6266,-5.25048 60.9141,-8.125 37.0985,-3.90807 46.4363,-4.88674 68.4824,-4.75391 z"
       sodipodi:nodetypes="scssscccccsssssscsssscccssssssssssssccsssssccccccssssccccsss"
       inkscape:label="Color" />
  </g>
  <g
     inkscape:groupmode="layer"
     id="g63"
     inkscape:label="VI"
     style="display:none">
    <text
       xml:space="preserve"
       style="font-style:normal;font-weight:normal;font-size:758.962px;line-height:1.25;font-family:sans-serif;display:inline;fill:#000000;fill-opacity:1;stroke:#ffffff;stroke-width:32;stroke-dasharray:none;stroke-opacity:1;paint-order:markers stroke fill"
       x="1218.4519"
       y="1900"
       id="text63"
       inkscape:label="VI"><tspan
         sodipodi:role="line"
         id="tspan63"
         x="1218.4519"
         y="1900"
         style="stroke:#ffffff;stroke-width:32;stroke-dasharray:none;stroke-opacity:1;paint-order:markers stroke fill">VI</tspan></text>
    <path
       id="path63"
       style="display:inline;mix-blend-mode:color;fill:#ffe800;fill-opacity:1;stroke:none;stroke-width:1;paint-order:markers stroke fill"
       d="m 1668.4122,472.77306 c -3.6268,-0.0656 -7.3684,-0.0594 -11.5683,0.008 -5.6,0.089 -12.0143,0.28522 -20.0527,0.56446 -47.2627,1.64178 -81.515,6.32536 -121.5254,16.61718 -25.1798,6.47698 -71.0387,22.18523 -275.7872,94.4668 -84.0772,29.68147 -195.0133,70.75015 -281.97649,103.21484 -21.5394,6.21945 -42.7492,13.60352 -64.1016,22.40625 l -45.1523,18.61329 h -10.9942 l 52.4004,-23.05469 c 29.1401,-12.1241 103.07129,-38.94809 267.50389,-97.06055 124.9777,-44.16859 228.8507,-81.01766 230.8282,-81.88476 1.498,-0.65686 2.0707,-1.01953 1.455,-1.14454 -0.6157,-0.125 -2.4209,-0.0107 -5.6777,0.28907 -5.1976,0.47837 -101.5834,33.00271 -287.6367,97.0625 -153.90019,52.98916 -298.40829,105.34464 -301.57229,106.5664 -1.252,0.48349 -2.0518,0.8326 -2.4844,1.11914 -1.1177,0.46771 -1.6771,1.02691 -1.6835,1.70313 -0.086,9.10379 18.259,127.53817 20.0664,129.54292 1.1227,1.2454 18.109,-4.73724 37.7461,-13.29488 49.062,-21.38076 82.1589,-27.09279 127.47459,-22.0039 19.1328,2.14862 38.6374,6.27331 48.705,10.30078 l 16.793,6.7168 24.9141,-12.46485 c 42.9907,-21.50781 81.1138,-23.52246 125.5879,-6.63867 54.0345,20.51334 98.6951,71.45462 114.0078,130.04102 7.2532,27.7504 7.1005,68.7238 -0.3535,94.7891 -8.0572,28.1747 -26.1843,53.9413 -52.7012,74.916 -20.2141,15.9891 -21.8298,18.0643 -21.9707,28.2207 -0.084,6.0293 -4.5414,26.2088 -9.9063,44.8437 -7.7666,26.9775 -13.0411,38.9786 -25.8867,58.8907 -8.8731,13.7543 -16.1328,25.5421 -16.1328,26.1953 0,0.6532 6.7941,1.6631 15.0996,2.2441 71.7788,5.0215 151.767,-2.6736 227.9531,-21.9297 48.8146,-12.3378 48.9605,-12.3539 84.8536,-10.3066 19.7748,1.128 36.0439,1.876 36.1543,1.664 0.021,-0.041 -3.8617,-44.447 -4.5938,-53.082 1.6759,-0.753 3.3472,-1.5176 4.957,-2.3828 0.7027,8.2372 4.4649,51.7774 4.4649,51.8945 0,0.6208 1.8412,-0.9975 4.0859,-3.5957 3.9414,-4.5623 325.4121,-392.04617 329.377,-397.01365 1.6599,-2.07971 0.609,-28.72295 -6.9219,-175.41406 -4.8839,-95.12848 -9.3241,-174.63256 -9.8672,-176.67578 -0.1216,-0.45745 -0.2712,-0.83452 -0.7852,-0.94727 -8.4873,1.94523 -16.7979,3.99 -24.9375,6.13086 5.4856,-3.34287 11.0147,-6.77938 16.4922,-10.08398 -0.2127,-0.1542 -9.805,0.35749 -21.3164,1.13672 l -20.9297,1.41601 -35.2441,-8.14648 c -30.0787,-6.95322 -40.3965,-8.65822 -70.3945,-11.625 -18.043,-1.78445 -27.8853,-2.62731 -38.7657,-2.82422 z m -531.1269,183.43359 c 7.3487,0.0443 16.1097,0.21136 27.7812,0.43555 44.5685,0.85607 49.0484,1.20197 96.3594,7.45703 1.4098,0.47642 2.802,0.84515 4.209,1.30469 -31.9861,-1.60029 -67.4377,-2.38994 -107.4512,-2.88477 -76.6127,-0.017 -139.1539,7.60675 -198.88669,24.64844 19.83579,-7.43486 46.73319,-17.60747 48.59179,-18.08203 6.2771,-1.60268 33.6266,-5.25048 60.9141,-8.125 37.0985,-3.90807 46.4363,-4.88674 68.4824,-4.75391 z"
       sodipodi:nodetypes="scssscccccsssssscsssscccssssssssssssccsssssccccccssssccccsss"
       inkscape:label="Color" />
  </g>
</svg>
