<?xml version="1.0" encoding="UTF-8" standalone="no"?>
<!-- Created with Inkscape (http://www.inkscape.org/) -->

<svg
   width="512"
   height="512"
   viewBox="0 0 135.46666 135.46667"
   version="1.1"
   id="svg5"
   inkscape:version="1.3.2 (091e20ef0f, 2023-11-25, custom)"
   sodipodi:docname="papersplease.svg"
   xmlns:inkscape="http://www.inkscape.org/namespaces/inkscape"
   xmlns:sodipodi="http://sodipodi.sourceforge.net/DTD/sodipodi-0.dtd"
   xmlns:xlink="http://www.w3.org/1999/xlink"
   xmlns="http://www.w3.org/2000/svg"
   xmlns:svg="http://www.w3.org/2000/svg">
  <sodipodi:namedview
     id="namedview7"
     pagecolor="#292929"
     bordercolor="#666666"
     borderopacity="1"
     inkscape:showpageshadow="0"
     inkscape:pageopacity="0"
     inkscape:pagecheckerboard="1"
     inkscape:deskcolor="#1a1a1a"
     inkscape:document-units="px"
     showgrid="false"
     inkscape:zoom="2.6074563"
     inkscape:cx="232.98569"
     inkscape:cy="346.69805"
     inkscape:window-width="3256"
     inkscape:window-height="1080"
     inkscape:window-x="1864"
     inkscape:window-y="0"
     inkscape:window-maximized="0"
     inkscape:current-layer="layer1" />
  <defs
     id="defs2">
    <linearGradient
       id="linearGradient16"
       inkscape:collect="always">
      <stop
         style="stop-color:#000000;stop-opacity:1;"
         offset="0"
         id="stop16" />
      <stop
         style="stop-color:#000000;stop-opacity:0;"
         offset="0.50000048"
         id="stop17" />
    </linearGradient>
    <linearGradient
       id="linearGradient14"
       inkscape:collect="always">
      <stop
         style="stop-color:#000000;stop-opacity:1;"
         offset="0"
         id="stop14" />
      <stop
         style="stop-color:#000000;stop-opacity:0;"
         offset="0.5"
         id="stop15" />
    </linearGradient>
    <linearGradient
       id="linearGradient13"
       inkscape:collect="always">
      <stop
         style="stop-color:#757575;stop-opacity:1;"
         offset="0"
         id="stop5" />
      <stop
         style="stop-color:#f2f2f2;stop-opacity:0;"
         offset="1"
         id="stop8" />
    </linearGradient>
    <linearGradient
       id="linearGradient3"
       inkscape:collect="always">
      <stop
         style="stop-color:#757575;stop-opacity:1;"
         offset="0"
         id="stop3" />
      <stop
         style="stop-color:#f2f2f2;stop-opacity:0;"
         offset="1"
         id="stop4" />
    </linearGradient>
    <linearGradient
       id="linearGradient11"
       inkscape:collect="always">
      <stop
         style="stop-color:#000000;stop-opacity:1;"
         offset="0"
         id="stop11" />
      <stop
         style="stop-color:#000000;stop-opacity:0;"
         offset="1"
         id="stop12" />
    </linearGradient>
    <linearGradient
       id="linearGradient9"
       inkscape:collect="always">
      <stop
         style="stop-color:#000000;stop-opacity:1;"
         offset="0"
         id="stop9" />
      <stop
         style="stop-color:#000000;stop-opacity:0;"
         offset="0.5"
         id="stop10" />
    </linearGradient>
    <linearGradient
       id="linearGradient6"
       inkscape:collect="always">
      <stop
         style="stop-color:#4d4d4d;stop-opacity:1;"
         offset="0"
         id="stop6" />
      <stop
         style="stop-color:#4d4d4d;stop-opacity:0;"
         offset="1"
         id="stop7" />
    </linearGradient>
    <inkscape:path-effect
       effect="fillet_chamfer"
       id="path-effect14"
       is_visible="true"
       lpeversion="1"
       nodesatellites_param="F,0,0,1,0,4,0,1 @ F,0,0,1,0,4,0,1 @ F,0,0,1,0,4,0,1 @ F,0,0,1,0,0,0,1 @ F,0,0,1,0,4,0,1 @ F,0,0,1,0,4,0,1 @ F,0,0,1,0,4,0,1 @ F,0,0,1,0,0,0,1"
       radius="3"
       unit="px"
       method="auto"
       mode="F"
       chamfer_steps="1"
       flexible="false"
       use_knot_distance="true"
       apply_no_radius="true"
       apply_with_radius="true"
       only_selected="false"
       hide_knots="false" />
    <inkscape:path-effect
       effect="fillet_chamfer"
       id="path-effect5"
       is_visible="true"
       lpeversion="1"
       nodesatellites_param="F,0,0,1,0,4,0,1 @ F,0,0,1,0,4,0,1 @ F,0,0,1,0,4,0,1 @ F,0,0,1,0,0,0,1 @ F,0,0,1,0,4,0,1 @ F,0,0,1,0,4,0,1 @ F,0,0,1,0,4,0,1 @ F,0,0,1,0,0,0,1"
       radius="3"
       unit="px"
       method="auto"
       mode="F"
       chamfer_steps="1"
       flexible="false"
       use_knot_distance="true"
       apply_no_radius="true"
       apply_with_radius="true"
       only_selected="false"
       hide_knots="false" />
    <filter
       id="mask-powermask-path-effect6_inverse"
       inkscape:label="filtermask-powermask-path-effect6"
       style="color-interpolation-filters:sRGB"
       height="100"
       width="100"
       x="-50"
       y="-50">
      <feColorMatrix
         id="mask-powermask-path-effect6_primitive1"
         values="1"
         type="saturate"
         result="fbSourceGraphic" />
      <feColorMatrix
         id="mask-powermask-path-effect6_primitive2"
         values="-1 0 0 0 1 0 -1 0 0 1 0 0 -1 0 1 0 0 0 1 0 "
         in="fbSourceGraphic" />
    </filter>
    <linearGradient
       inkscape:collect="always"
       xlink:href="#linearGradient6"
       id="linearGradient7"
       x1="1.456757"
       y1="94.785858"
       x2="134.00991"
       y2="94.785858"
       gradientUnits="userSpaceOnUse" />
    <linearGradient
       inkscape:collect="always"
       xlink:href="#linearGradient6"
       id="linearGradient8"
       x1="1.4399494"
       y1="124.9047"
       x2="134.02671"
       y2="124.9047"
       gradientUnits="userSpaceOnUse" />
    <linearGradient
       inkscape:collect="always"
       xlink:href="#linearGradient9"
       id="linearGradient10"
       x1="67.80056"
       y1="105.70872"
       x2="67.73333"
       y2="82.275505"
       gradientUnits="userSpaceOnUse"
       gradientTransform="translate(0,-2.1166667)" />
    <linearGradient
       inkscape:collect="always"
       xlink:href="#linearGradient11"
       id="linearGradient12"
       x1="67.783752"
       y1="135.82756"
       x2="67.73333"
       y2="113.98184"
       gradientUnits="userSpaceOnUse"
       gradientTransform="translate(0,-2.1166667)" />
    <filter
       inkscape:label="Garden of Delights"
       inkscape:menu="Overlays"
       inkscape:menu-tooltip="Phantasmagorical turbulent wisps, like Hieronymus Bosch's Garden of Delights"
       x="0"
       width="1"
       y="0"
       height="1"
       style="color-interpolation-filters:sRGB;"
       id="filter21">
      <feTurbulence
         result="result1"
         baseFrequency="0.005 0.01"
         numOctaves="8"
         type="fractalNoise"
         seed="20"
         id="feTurbulence18" />
      <feColorMatrix
         result="result3"
         values="0 0 0 0 1 0 0 0 0 1 0 0 0 0 1 0 0 0 1.2 -0.4 "
         id="feColorMatrix18" />
      <feConvolveMatrix
         order="3 3"
         kernelMatrix="3 0 0 0 2 0 0 0 -1 "
         targetX="1"
         targetY="1"
         divisor="2"
         result="result8"
         id="feConvolveMatrix18" />
      <feComposite
         result="fbSourceGraphic"
         in2="SourceGraphic"
         operator="atop"
         in="result8"
         id="feComposite18" />
      <feTurbulence
         baseFrequency="0.027 0.025"
         numOctaves="7"
         type="turbulence"
         seed="20"
         id="feTurbulence19" />
      <feColorMatrix
         values="1 0 0 0 0 0 1 0 0 0 0 0 1 0 0 0 0 0 4.7 -2 "
         result="result5"
         id="feColorMatrix19" />
      <feComposite
         in2="result5"
         operator="in"
         in="fbSourceGraphic"
         result="result6"
         id="feComposite19" />
      <feDisplacementMap
         in2="result5"
         result="result4"
         scale="48"
         yChannelSelector="A"
         xChannelSelector="R"
         in="result6"
         id="feDisplacementMap19" />
      <feFlood
         flood-color="rgb(222,217,217)"
         flood-opacity="1"
         id="feFlood19" />
      <feComposite
         in2="result4"
         operator="in"
         result="result2"
         id="feComposite20" />
      <feComposite
         in2="fbSourceGraphic"
         operator="atop"
         in="result2"
         result="result91"
         id="feComposite21" />
      <feBlend
         mode="darken"
         in2="result91"
         id="feBlend21" />
    </filter>
    <filter
       inkscape:label="Garden of Delights"
       inkscape:menu="Overlays"
       inkscape:menu-tooltip="Phantasmagorical turbulent wisps, like Hieronymus Bosch's Garden of Delights"
       x="-1.2427221e-05"
       width="1.0000249"
       y="-4.2197381e-05"
       height="1.0000844"
       style="color-interpolation-filters:sRGB;"
       id="filter40">
      <feTurbulence
         result="result1"
         baseFrequency="0.005 0.01"
         numOctaves="8"
         type="fractalNoise"
         seed="20"
         id="feTurbulence37" />
      <feColorMatrix
         result="result3"
         values="0 0 0 0 1 0 0 0 0 1 0 0 0 0 1 0 0 0 1.2 -0.4 "
         id="feColorMatrix37" />
      <feConvolveMatrix
         order="3 3"
         kernelMatrix="3 0 0 0 2 0 0 0 -1 "
         targetX="1"
         targetY="1"
         divisor="2"
         result="result8"
         id="feConvolveMatrix37" />
      <feComposite
         result="fbSourceGraphic"
         in2="SourceGraphic"
         operator="atop"
         in="result8"
         id="feComposite37" />
      <feTurbulence
         baseFrequency="0.027 0.025"
         numOctaves="7"
         type="turbulence"
         seed="20"
         id="feTurbulence38" />
      <feColorMatrix
         values="1 0 0 0 0 0 1 0 0 0 0 0 1 0 0 0 0 0 4.7 -2 "
         result="result5"
         id="feColorMatrix38" />
      <feComposite
         in2="result5"
         operator="in"
         in="fbSourceGraphic"
         result="result6"
         id="feComposite38" />
      <feDisplacementMap
         in2="result5"
         result="result4"
         scale="48"
         yChannelSelector="A"
         xChannelSelector="R"
         in="result6"
         id="feDisplacementMap38" />
      <feFlood
         flood-color="rgb(222,217,217)"
         flood-opacity="1"
         id="feFlood38" />
      <feComposite
         in2="result4"
         operator="in"
         result="result2"
         id="feComposite39" />
      <feComposite
         in2="fbSourceGraphic"
         operator="atop"
         in="result2"
         result="result91"
         id="feComposite40" />
      <feBlend
         mode="darken"
         in2="result91"
         id="feBlend40" />
      <feGaussianBlur
         stdDeviation="0.0013769826"
         id="feGaussianBlur40" />
    </filter>
    <filter
       inkscape:label="Silhouette Marbled"
       inkscape:menu="Overlays"
       inkscape:menu-tooltip="Basic noise transparency texture"
       style="color-interpolation-filters:sRGB;"
       id="filter42"
       x="0"
       y="0"
       width="1"
       height="1">
      <feFlood
         flood-color="rgb(255,0,0)"
         result="fbSourceGraphic"
         flood-opacity="1"
         id="feFlood40" />
      <feFlood
         result="result4"
         flood-color="rgb(158,236,254)"
         flood-opacity="1"
         id="feFlood41" />
      <feTurbulence
         type="fractalNoise"
         numOctaves="5"
         baseFrequency="0.02"
         result="result1"
         id="feTurbulence41" />
      <feComposite
         in2="result1"
         operator="in"
         result="result2"
         in="fbSourceGraphic"
         id="feComposite41" />
      <feColorMatrix
         result="result3"
         values="1 0 0 0 0 0 1 0 0 0 0 0 1 0 0 0 0 0 3 -1 "
         in="result2"
         id="feColorMatrix41" />
      <feMerge
         result="result5"
         id="feMerge42">
        <feMergeNode
           in="result4"
           id="feMergeNode41" />
        <feMergeNode
           in="result3"
           id="feMergeNode42" />
      </feMerge>
      <feComposite
         in2="SourceGraphic"
         operator="in"
         result="result6"
         id="feComposite42" />
    </filter>
    <filter
       inkscape:label="Garden of Delights"
       inkscape:menu="Overlays"
       inkscape:menu-tooltip="Phantasmagorical turbulent wisps, like Hieronymus Bosch's Garden of Delights"
       x="0"
       width="1"
       y="0"
       height="1"
       style="color-interpolation-filters:sRGB;"
       id="filter46">
      <feTurbulence
         result="result1"
         baseFrequency="0.001 0.01"
         numOctaves="8"
         type="fractalNoise"
         seed="20"
         id="feTurbulence42" />
      <feColorMatrix
         result="result3"
         values="0 0 0 0 1 0 0 0 0 1 0 0 0 0 1 0 0 0 1.2 -0.40000000000000002"
         id="feColorMatrix42" />
      <feConvolveMatrix
         order="3 3"
         kernelMatrix="3 0 0 0 2 0 0 0 -1 "
         targetX="1"
         targetY="1"
         divisor="2"
         result="result8"
         id="feConvolveMatrix42" />
      <feComposite
         result="fbSourceGraphic"
         in2="SourceGraphic"
         operator="atop"
         in="result8"
         id="feComposite43" />
      <feTurbulence
         baseFrequency="0.027 0.025"
         numOctaves="7"
         type="turbulence"
         seed="20"
         id="feTurbulence43" />
      <feColorMatrix
         values="1 0 0 0 0 0 1 0 0 0 0 0 1 0 0 0 0 0 4.7 -2 "
         result="result5"
         id="feColorMatrix43" />
      <feComposite
         in2="result5"
         operator="in"
         in="fbSourceGraphic"
         result="result6"
         id="feComposite44" />
      <feDisplacementMap
         in2="result5"
         result="result4"
         scale="48"
         yChannelSelector="A"
         xChannelSelector="R"
         in="result6"
         id="feDisplacementMap44" />
      <feFlood
         flood-color="rgb(222,217,217)"
         flood-opacity="1"
         id="feFlood44" />
      <feComposite
         in2="result4"
         operator="in"
         result="result2"
         id="feComposite45" />
      <feComposite
         in2="fbSourceGraphic"
         operator="atop"
         in="result2"
         result="result91"
         id="feComposite46" />
      <feBlend
         mode="darken"
         in2="result91"
         id="feBlend46" />
    </filter>
    <filter
       inkscape:label="Chalk and Sponge"
       inkscape:menu="Distort"
       inkscape:menu-tooltip="Low turbulence gives sponge look and high turbulence chalk"
       width="1"
       height="1"
       y="0"
       x="0"
       style="color-interpolation-filters:sRGB;"
       id="filter47">
      <feTurbulence
         baseFrequency="0.4"
         type="fractalNoise"
         seed="0"
         numOctaves="5"
         result="result1"
         id="feTurbulence46" />
      <feDisplacementMap
         xChannelSelector="R"
         yChannelSelector="G"
         scale="30"
         in="SourceGraphic"
         in2="result1"
         id="feDisplacementMap46" />
    </filter>
    <clipPath
       clipPathUnits="userSpaceOnUse"
       id="clipPath48">
      <path
         id="path48"
         style="display:inline;fill:#00ff00;stroke:none;stroke-width:0.264583;stroke-linecap:round;stroke-linejoin:round;paint-order:markers stroke fill"
         d="m 10.645961,-106.9412 48.02549,50.607247 v 6.01617 h -7.9375 v 8.200017 l 2.465483,-2.465483 6.319512,-0.252698 c 0.153289,0.498268 0.32566,0.98715 0.513662,1.468128 l -0.216524,5.401738 -2.464964,2.464964 h 7.618655 c 3.785979,4.299932 8.042326,6.876585 8.967412,6.876585 0.925237,0 5.181473,-2.576613 8.967412,-6.876585 h 7.65638 l -2.465483,-2.464964 -0.219625,-5.485455 c 0.175403,-0.454329 0.335629,-0.916292 0.480073,-1.385962 l 6.356718,0.254249 2.464967,2.465483 v -8.200017 h -7.974706 v -6.01617 L 137.22841,-106.9412 H 97.965177 l -7.110161,8.788611 v 7.96799 c 1.51e-4,2.209345 -1.790928,4.000424 -4.00027,4.000273 H 81.27834 v -5.923153 l -0.107487,-0.06098 6.938595,-6.939111 -2.598291,-0.10542 -4.303614,4.303614 c -0.627568,0.627565 -1.637927,0.627565 -2.265495,0 -0.627565,-0.627568 -0.628081,-1.638445 -5.29e-4,-2.266013 l 5.212085,-5.211571 3.503147,0.14263 -4.167706,-4.16822 c -0.705059,-0.70506 -1.840521,-0.70455 -2.54558,5.3e-4 l -6.306593,6.30607 h -0.699685 -3.024621 c -2.391127,0 -4.316532,1.92489 -4.316532,4.316014 v 9.605616 h -5.576406 c -2.209342,1.51e-4 -4.00042,-1.790927 -4.000272,-4.000272 v -7.967988 l -7.110161,-8.78861 z m -69.673266,4.55631 v 13.890627 H 17.207834 L 4.8876558,-101.47642 c -0.2122085,-0.28946 -0.4045421,-0.59298 -0.5756757,-0.90847 z m 202.692535,0 c -0.20473,0.31866 -0.43199,0.62226 -0.68006,0.90847 l -12.32018,12.982157 h 76.23669 V -102.38489 Z M -59.027305,-83.864055 V -69.97343 H 34.784538 L 21.601881,-83.864055 Z m 185.298245,0 -13.18162,13.890625 h 93.81236 v -13.890625 z m -64.063269,0.686779 c 0,0 2.241071,3.832326 5.864757,3.832326 3.623691,0 5.864759,-3.832326 5.864759,-3.832326 0,0 2.241069,3.832326 5.864757,3.832326 3.623688,0 5.864759,-3.832326 5.864759,-3.832326 v 16.763836 c 0,6.884913 -8.840745,12.119012 -11.729516,13.030213 -2.888768,-0.911201 -11.729516,-6.1453 -11.729516,-13.030213 z m 19.20141,6.631636 -3.562056,0.164333 -5.608442,5.60896 -5.60896,5.608441 -0.16433,3.562057 3.562054,-0.164846 5.608444,-5.608445 5.60896,-5.60896 z m -140.436386,11.202418 v 13.890625 h 98.646174 l 8.214484,-4.771284 -2.885093,-3.03961 -5.769676,-6.079731 z m 167.722575,0 -5.76915,6.079731 -2.8851,3.03961 8.21449,4.771284 h 98.64617 v -13.890625 z" />
    </clipPath>
    <filter
       inkscape:label="Clouds"
       inkscape:menu="Overlays"
       inkscape:menu-tooltip="Airy, fluffy, sparse white clouds"
       style="color-interpolation-filters:sRGB;"
       id="filter69"
       x="0"
       y="0"
       width="1"
       height="1">
      <feTurbulence
         numOctaves="3"
         baseFrequency="0.040 0.107"
         type="fractalNoise"
         id="feTurbulence68" />
      <feColorMatrix
         result="result0"
         values="1 0 0 0 0 0 1 0 0 0 0 0 1 0 0 0 0 0 5 -2.7"
         id="feColorMatrix68" />
      <feFlood
         flood-opacity="1"
         flood-color="rgb(255,255,255)"
         id="feFlood68" />
      <feComposite
         operator="in"
         in2="result0"
         id="feComposite68" />
      <feComposite
         operator="atop"
         in2="SourceGraphic"
         id="feComposite69" />
    </filter>
    <clipPath
       clipPathUnits="userSpaceOnUse"
       id="clipPath69">
      <path
         id="path70"
         style="color:#000000;fill:#a02c2c;stroke-width:0.999998;stroke-linecap:round;stroke-linejoin:round;-inkscape-stroke:none;paint-order:markers stroke fill"
         d="M 4.4421062,2.1166666 52.467599,52.723912 v 6.016172 h -7.937502 v 8.200014 l 2.465482,-2.465482 6.319512,-0.252696 c 0.153289,0.498269 0.32566,0.987147 0.513665,1.468125 l -0.216524,5.401739 -2.464967,2.464967 h 7.618656 c 3.785981,4.299934 8.042325,6.876581 8.967411,6.876581 0.925238,0 5.181471,-2.576607 8.967412,-6.876581 h 7.65638 l -2.465482,-2.464967 -0.219626,-5.485453 c 0.175403,-0.454329 0.335627,-0.916294 0.480073,-1.385961 l 6.356718,0.254246 2.464967,2.465482 V 58.740084 H 82.999066 V 52.723912 L 131.02456,2.1166666 H 91.761322 l -7.110158,8.7886104 v 7.967989 c 1.48e-4,2.209346 -1.790928,4.000424 -4.000273,4.000273 h -5.576406 v -5.923153 l -0.107487,-0.06098 6.938595,-6.9391111 -2.59829,-0.10542 -4.303612,4.3036131 c -0.627571,0.627567 -1.63793,0.627567 -2.265495,0 -0.627568,-0.627569 -0.628084,-1.638443 -5.29e-4,-2.266011 l 5.212096,-5.2115683 3.503144,0.1426268 -4.167704,-4.168221 C 76.580142,1.9402542 75.444685,1.940771 74.739623,2.6458333 l -6.306592,6.3060751 h -0.699699 -3.024621 c -2.391129,0 -4.316531,1.9248876 -4.316531,4.3160156 v 9.605615 h -5.576406 c -2.209345,1.51e-4 -4.000421,-1.790927 -4.000273,-4.000273 V 10.905277 L 43.705343,2.1166666 Z M 56.003816,25.880591 c 0,0 2.241066,3.832323 5.864757,3.832323 3.623694,0 5.864759,-3.832323 5.864759,-3.832323 0,0 2.241066,3.832323 5.86476,3.832323 3.623691,0 5.864757,-3.832323 5.864757,-3.832323 v 16.763834 c 0,6.884921 -8.840743,12.119014 -11.729517,13.030213 C 64.844559,54.763439 56.003816,49.529346 56.003816,42.644425 Z m 19.201413,6.631636 -3.562059,0.16433 -5.608441,5.60896 -5.608961,5.608445 -0.164332,3.562056 3.562059,-0.164849 5.608441,-5.608441 5.608961,-5.608961 z" />
    </clipPath>
    <filter
       inkscape:collect="always"
       style="color-interpolation-filters:sRGB"
       id="filter70"
       x="-0.0062644209"
       y="-0.0099221851"
       width="1.0125288"
       height="1.0198444">
      <feGaussianBlur
         inkscape:collect="always"
         stdDeviation="0.32905058"
         id="feGaussianBlur70" />
    </filter>
    <filter
       style="color-interpolation-filters:sRGB;"
       inkscape:label="Noise Fill"
       id="filter82"
       x="0"
       y="0"
       width="1"
       height="1">
      <feTurbulence
         type="fractalNoise"
         baseFrequency="100 0.2"
         numOctaves="4"
         seed="2"
         result="turbulence"
         id="feTurbulence81" />
      <feComposite
         in="SourceGraphic"
         in2="turbulence"
         operator="in"
         result="composite1"
         id="feComposite81" />
      <feColorMatrix
         values="1 0 0 0 0 0 1 0 0 0 0 0 1 0 0 0 0 0 4 -1 "
         result="color"
         id="feColorMatrix81" />
      <feFlood
         flood-opacity="1"
         flood-color="rgb(255,158,0)"
         result="flood"
         id="feFlood81" />
      <feMerge
         result="merge"
         id="feMerge82">
        <feMergeNode
           in="flood"
           id="feMergeNode81" />
        <feMergeNode
           in="color"
           id="feMergeNode82" />
      </feMerge>
      <feComposite
         in2="SourceGraphic"
         operator="in"
         result="composite2"
         id="feComposite82" />
    </filter>
    <linearGradient
       inkscape:collect="always"
       xlink:href="#linearGradient13"
       id="linearGradient4"
       x1="296.3916"
       y1="70.568359"
       x2="296.3916"
       y2="90.296875"
       gradientUnits="userSpaceOnUse"
       gradientTransform="translate(-228.65729,10.618502)" />
    <linearGradient
       inkscape:collect="always"
       xlink:href="#linearGradient3"
       id="linearGradient5"
       x1="296.39062"
       y1="100.6875"
       x2="296.39062"
       y2="120.41602"
       gradientUnits="userSpaceOnUse"
       gradientTransform="translate(-228.65729,10.618502)" />
    <linearGradient
       inkscape:collect="always"
       xlink:href="#linearGradient14"
       id="linearGradient15"
       x1="67.734314"
       y1="81.186859"
       x2="67.734314"
       y2="100.91537"
       gradientUnits="userSpaceOnUse" />
    <linearGradient
       inkscape:collect="always"
       xlink:href="#linearGradient16"
       id="linearGradient17"
       x1="67.733337"
       y1="111.306"
       x2="67.733337"
       y2="131.03453"
       gradientUnits="userSpaceOnUse" />
  </defs>
  <path
     id="path49"
     style="display:inline;color:#000000;opacity:0.4;mix-blend-mode:normal;fill:#712408;fill-opacity:1;-inkscape-stroke:none;filter:url(#filter70)"
     d="M 5.1485229,0.34829915 C 5.1232533,0.46072626 5.1210155,0.57178503 5.1190673,0.68316243 6.15336,1.4067012 5.5909033,1.8954738 5.1185506,0.68729654 5.0882519,2.7066882 8.7188989,4.5514134 10.538891,6.1680989 9.7010502,5.9696286 8.7619849,5.9633225 8.0196654,5.5273111 6.6984394,4.618644 6.2729414,3.0346289 4.882906,2.201416 4.0247517,3.9772225 6.9514871,5.2165919 7.9705728,6.0430419 c -0.2532048,2.414 3.1345232,2.2279635 3.6917642,4.4317711 0.733619,2.831269 1.977829,3.520746 4.12688,3.40806 -0.524963,2.632124 1.544387,2.74323 3.040641,3.611149 0.797385,3.749005 4.034421,4.7533 6.463171,7.183541 0.866456,0.396283 1.372153,1.182225 1.805058,2.035535 -0.0816,-0.395437 -0.134609,-0.837714 -0.152962,-1.33997 0.536989,-0.04551 0.93312,0.132859 1.255221,0.425297 0.139193,0.172224 0.273257,0.348544 0.417028,0.516764 0.01221,0.0084 0.02346,0.01789 0.03566,0.02635 0.72512,1.105447 1.084113,2.758021 2.409672,2.779676 0.426956,-0.01196 0.796418,0.04761 1.134815,0.146761 0.878873,0.848226 1.70743,1.740377 2.478401,2.674255 0.681961,1.638638 1.079232,3.63148 2.011764,4.946468 -3.117363,0.722878 -3.406352,-4.741823 -4.486548,-6.783048 -1.745439,-0.220123 -3.149314,-0.483185 -4.066935,-1.355473 0.694901,1.141848 1.674838,1.925738 3.789432,1.392163 1.194194,2.321495 1.272894,7.107193 4.588351,7.193876 0.397159,-0.06878 0.768248,-0.04803 1.111043,0.04186 0.249157,1.512075 1.126334,2.292795 2.244307,2.795695 0.0055,0.01567 0.0104,0.03313 0.01602,0.04858 -0.003,-0.01501 -0.0062,-0.03002 -0.0093,-0.04496 2.38726,1.070458 5.847271,0.904609 6.54017,4.005957 1.02669,2.832162 1.056648,1.568944 0.18035,-0.608748 2.216521,2.750069 6.110078,5.705104 5.722648,9.780281 1.44905,-2.099128 -3.07167,-7.309597 -5.256526,-9.891386 0.243497,-1.38167 0.174295,-2.168273 -0.136426,-2.646866 0.455641,3.333455 -5.735135,-0.444265 -1.847949,-0.815971 -0.755447,-0.121763 -1.659399,-0.236227 -2.691826,-0.598413 -1.926491,-3.816317 -5.268473,-5.975838 -8.035685,-9.083684 0.03297,0.100529 -0.0087,0.160344 -0.109554,0.177251 -0.497985,-0.708453 -1.120465,-1.23131 -1.939416,-1.386996 -0.06781,-0.114129 -0.133351,-0.231735 -0.188619,-0.360185 0.952974,0.482699 1.534688,0.862011 1.874304,1.147734 -0.145251,-0.17132 -0.297124,-0.331628 -0.438216,-0.50953 -2.578234,-2.117735 -4.985383,-4.371982 -6.911206,-7.065201 -0.180012,0.08424 -0.814701,-0.226412 -1.432471,-0.71882 0.370478,0.548187 0.753791,1.105971 1.135848,1.663465 -1.338291,-1.114473 -3.755961,-1.344342 -3.108854,-3.653007 -0.09375,-0.322682 0.197573,-0.202716 0.130741,-0.573609 0.181086,0.230256 0.362476,0.461856 0.540019,0.703317 -0.02465,-0.211202 -0.01225,-0.420751 0.08527,-0.619601 0.540998,0.518049 0.986698,1.125425 1.476396,1.689303 0.178622,0.160575 0.314493,0.29326 0.450102,0.425814 -0.354817,-0.556195 -0.696154,-1.125286 -1.0077,-1.721342 C 22.801852,15.298202 17.48761,13.797232 15.131893,10.198861 14.950266,9.9213029 14.761228,9.6547761 14.568103,9.3947753 14.723123,9.9021664 14.203863,9.9016724 13.586767,9.5322346 13.458252,9.3818321 13.331599,9.2303778 13.211597,9.0754149 13.07263,8.8733969 12.927609,8.6806303 12.782165,8.4883707 12.653958,8.2931381 12.532103,8.0943283 12.423531,7.8889241 12.353448,7.6540666 12.263947,7.4588142 12.164632,7.2832763 l 0.609782,0.3271118 0.538985,0.2775024 C 10.830734,5.1916882 7.783325,3.2863217 5.1485229,0.34829915 Z M 13.313399,7.8878905 C 13.750631,8.3627299 14.17141,8.8607154 14.568103,9.3947753 14.478724,9.1022319 14.175209,8.6504517 13.513387,7.9907266 Z M 25.913147,21.238497 c 0.234303,0.367292 0.471526,0.731524 0.722953,1.083138 0.144875,-0.0678 -0.02429,-0.400219 -0.722953,-1.083138 z m -2.011764,-1.495516 c 0.078,0.668343 0.671598,1.357162 1.302246,1.859834 -0.432793,-0.640392 -0.863973,-1.263776 -1.302246,-1.859834 z m 10.084139,10.153385 c 0.12038,0.141985 0.240436,0.284225 0.363285,0.422196 -0.03282,-0.100093 -0.147553,-0.240699 -0.363285,-0.422196 z m 11.090796,10.104293 c 0.852277,0.13737 1.5062,0.289585 1.847949,0.815971 -0.0318,-0.232644 -0.09358,-0.497011 -0.195854,-0.802535 -0.685815,-0.05427 -1.228012,-0.05399 -1.652095,-0.01344 z m -5.192965,0.221692 c 0.103908,0.514652 0.140752,1.064348 0.09302,1.62729 0.386308,-0.160225 2.362693,-0.983315 2.852539,0.416512 1.326203,1.125789 1.864427,4.227133 3.358451,4.335653 0.7456,1.563922 1.663718,2.500403 2.621545,3.276803 C 47.8834,49.075621 47.115322,46.627901 46.207,46.199247 44.116467,45.578421 43.950121,40.945583 41.058477,41.199035 40.431124,41.315913 40.118245,40.867874 39.883355,40.222351 Z m 8.925553,9.656258 c 0.03141,0.02725 0.0633,0.04904 0.09508,0.07235 -0.03148,-0.02511 -0.06369,-0.0469 -0.09508,-0.07235 z m 0.09508,0.07235 c 0.884761,0.70589 1.798663,1.292701 2.642733,2.107881 1.680331,2.161609 -0.4148,-1.828113 -1.699121,-2.093929 -0.33768,0.250346 -0.648606,0.202394 -0.943612,-0.01395 z M 28.1342,28.750183 c -0.381535,-0.626931 -0.688042,-1.350994 -1.036113,-2.037085 0.188937,0.915538 0.540839,1.566279 1.036113,2.037085 z M 5.1185506,0.68729654 c 2.07e-5,-0.001379 4.926e-4,-0.002755 5.167e-4,-0.004134 -0.0015,-0.001053 -0.00211,-0.002047 -0.00362,-0.003101 0.00111,0.002856 0.00199,0.004397 0.0031,0.007235 z M 130.63699,0.61391601 c -0.0861,0.19558198 -0.18452,0.365694 -0.28164,0.53795169 0.0524,-0.041485 0.10185,-0.082636 0.15761,-0.1240235 0.042,-0.13760455 0.092,-0.27052737 0.12403,-0.41392819 z m -0.12403,0.41392819 c -0.13577,0.4451311 -0.31624,0.8643979 -0.54157,1.2583211 -0.20922,0.1994841 -0.39932,0.4064403 -0.58084,0.6180502 -0.29532,0.1922379 -0.404,0.066093 -0.30076,-0.2366781 -2.1839,1.7804282 -5.27353,1.5099982 -6.54327,4.4560587 1.40322,-1.3540337 3.0001,-2.3759614 4.7253,-2.6799397 -0.0371,0.1467106 -0.0882,0.2804928 -0.13953,0.4139282 -0.0864,0.032538 -0.16392,0.073018 -0.25735,0.099219 -1.20848,0.2150766 -1.16335,1.1796061 -1.44435,1.9895426 -0.49007,0.3925683 -0.99547,0.7681305 -1.44746,1.1901083 -1.95691,0.6705684 -3.19498,1.9627885 -3.60185,3.6886635 -0.36182,0.340076 -0.58444,0.810763 -0.81442,1.299662 -0.59868,0.464348 -1.22962,0.925245 -1.88671,1.383895 0.9193,-2.214641 2.49782,-4.9717621 4.5496,-7.0688188 -2.44086,1.5034998 -3.59283,5.0995838 -5.21054,7.5339068 -1.1178,0.776662 -2.22749,1.562116 -3.19567,2.390035 -0.48156,0.05398 -1.00802,0.0152 -1.5968,-0.150379 0.21235,0.685232 0.16066,1.273098 -0.0465,1.79989 -0.10393,0.132138 -0.20071,0.265967 -0.293,0.40101 0.0264,-0.006 0.0596,0.0029 0.0946,0.01188 -0.0711,0.121143 -0.14524,0.240922 -0.23202,0.355534 -0.009,-0.04494 -0.009,-0.09397 -0.007,-0.141593 -0.0785,0.125647 -0.15845,0.250928 -0.22583,0.379305 -0.12101,0.129047 -0.23606,0.264215 -0.3514,0.399458 -1.25573,1.191485 -3.1122,2.091338 -3.61786,3.31246 -1.29879,3.356521 -4.71259,3.260427 -6.65128,5.794478 -0.44425,2.749095 -1.876484,4.289767 -3.271632,5.915918 -0.124639,0.09074 -0.233627,0.1863 -0.365353,0.274919 -1.72537,0.19141 -1.843185,3.026001 -3.160014,3.982185 -0.02063,0.04281 -0.04425,0.0801 -0.06563,0.12144 -0.966197,0.399439 -1.76039,1.067418 -2.470133,1.865002 -0.887533,0.152888 -1.907434,0.02907 -3.026689,-0.320394 -0.615591,1.268077 1.119894,3.202258 -0.402042,3.87625 0.01481,0.0166 -0.10268,0.07796 -0.105937,0.04134 -0.04342,0.01611 -0.07901,0.03531 -0.127124,0.04961 -0.655904,1.144621 -1.343762,2.254048 -2.132686,3.291789 -0.357054,0.203514 -0.729906,0.38165 -1.141016,0.497127 -1.714885,2.122954 -1.041767,1.672459 0.09767,0.75706 -0.380673,0.414706 -0.783496,0.814442 -1.220081,1.192175 -0.649873,1.346143 -0.647257,7.55386 -0.135909,2.459798 -0.653144,-2.265986 1.606048,-3.387589 2.808097,-4.790405 1.079499,-0.491644 1.904084,-1.400139 2.627747,-2.445329 -0.01516,0.04733 -0.02306,0.08263 -0.04031,0.133325 -0.520436,0.705583 -1.49142,1.731494 -0.337964,0.994255 0.494909,-0.352258 0.601843,-0.941374 0.664559,-1.546676 0.488944,-0.753471 0.938456,-1.554656 1.397848,-2.313553 0.885803,-0.617973 1.740861,-1.370088 2.701644,-1.126547 3.723249,0.78299 3.794459,-2.269829 4.748547,-4.83588 -0.839567,1.59027 -1.567191,3.169328 -2.388485,4.375443 -3.567068,0.790129 -2.751911,-0.237377 -1.614372,-1.714624 0.479209,-0.112733 1.008904,-0.122245 1.605587,0.0021 -0.143455,-0.667763 -0.160776,-1.220669 -0.08372,-1.688785 -0.139758,0.296322 -0.271639,0.602605 -0.384989,0.933793 -0.252253,0.0474 -0.49134,0.115907 -0.72347,0.19482 0.316965,-0.429668 0.625814,-0.875321 0.835091,-1.321366 0.558381,-1.056848 1.255242,-1.805394 2.033468,-2.453081 -0.263177,0.316226 -0.524029,0.636851 -0.769979,0.977718 0.702338,-0.563552 1.668676,-0.90164 2.619478,-1.27279 -0.516441,0.550794 -0.857974,1.238913 -1.128613,1.966805 0.350643,-0.664173 0.72591,-1.326716 1.131197,-1.968355 1.525105,-0.595485 3.000785,-1.288662 3.233395,-3.213758 0.0207,-0.28564 0.0563,-0.542363 0.0987,-0.786515 0.0134,-0.01335 0.0264,-0.02701 0.0398,-0.04031 -0.0129,0.01135 -0.0259,0.02259 -0.0388,0.03359 0.0496,-0.283712 0.11144,-0.545605 0.18914,-0.779797 0.0601,-0.03396 0.10764,-0.06463 0.17208,-0.09974 l 0.64234,-0.408244 c -0.21329,0.41671 -0.4657,0.749745 -0.72244,1.019576 1.622,-1.534624 3.62945,-2.766246 5.24412,-4.410583 0.019,-0.151816 0.0475,-0.297258 0.0822,-0.438216 -0.26285,0.381779 -0.59514,0.739951 -0.9555,1.065051 0.0171,-0.06145 0.0357,-0.121567 0.0543,-0.181901 -0.0201,0.01484 -0.0357,0.03313 -0.0563,0.04754 -0.16783,0.01089 -0.32101,0.03382 -0.47698,0.05426 0.29193,-0.223237 0.5432,-0.47284 0.76068,-0.746208 -0.0858,0.206911 -0.15954,0.423335 -0.22738,0.644405 0.81495,-0.601716 1.1962,-1.543858 1.35858,-2.519743 -0.0319,0.04009 -0.0675,0.07721 -0.0987,0.117823 0.0383,-0.07868 0.0779,-0.155492 0.11628,-0.234611 -0.006,0.03919 -0.0111,0.07767 -0.0176,0.116788 0.0222,-0.02794 0.0462,-0.05448 0.0687,-0.08216 0.0232,0.174759 0.0222,0.349567 -0.005,0.523999 0.86143,-1.340009 2.39904,-2.219344 3.33778,-3.552238 1.07163,-0.832505 2.13765,-1.665552 3.01583,-2.640149 3.27232,0.709352 2.23636,-2.711922 4.38061,-3.743441 0.9675,-1.326879 1.77111,-2.586948 2.64222,-3.863847 0.15595,-0.06464 0.32437,-0.12231 0.50488,-0.173116 -0.12493,-0.0137 -0.25212,-0.02961 -0.36484,-0.03359 0.20633,-0.300021 0.42865,-0.604879 0.64751,-0.908472 -0.0437,0.271326 -0.0671,0.560988 -0.0548,0.882634 0.053,-0.01235 0.0983,-0.02916 0.15348,-0.04031 0.25132,-0.965579 0.6943,-1.7958336 1.2392,-2.549715 1.43377,-1.4749214 3.44094,-2.4537243 4.72271,-4.1062092 0.90745,-0.5852134 1.55164,-1.3295823 2.02778,-2.0804932 0.0526,-0.2616164 -0.21411,-0.4693718 -0.41496,-0.5674072 -0.0899,0.069625 -0.16771,0.1459291 -0.25063,0.2196249 0.13712,-0.1701343 0.27061,-0.3294161 0.43202,-0.5627564 l -0.007,-0.5901448 c -0.0115,0.00842 -0.0207,0.016894 -0.032,0.025321 z m -7.87032,10.2520878 c -0.0787,0.01833 -0.15374,0.03856 -0.22789,0.05943 0.0777,0.0085 0.14419,0.0082 0.22686,0.02067 -0.002,-0.0284 0.002,-0.05212 0.001,-0.0801 z M 108.53343,25.31215 c -0.23089,0.359152 -0.41252,0.751539 -0.52142,1.194759 0.26429,-0.383872 0.4585,-0.785943 0.52142,-1.194759 z m -5.84771,6.043558 c -0.0818,0.07736 -0.16267,0.155605 -0.24236,0.234611 0.0811,-0.07133 0.16125,-0.149367 0.24236,-0.234611 z m -6.236311,5.549532 c -0.502868,0.403499 -0.868055,0.92661 -0.990121,1.668116 0.288502,-0.611693 0.624066,-1.160792 0.990121,-1.668116 z m -8.420158,8.377267 c 0.03572,-0.01325 0.07172,-0.02691 0.104386,-0.04134 -0.0065,-0.0063 -0.03487,-0.0037 -0.104386,0.0186 -0.01157,0.01719 -6.43e-4,0.01551 0,0.02274 z M 111.74305,19.640145 c 0.0472,-0.07547 0.0932,-0.151298 0.14418,-0.225826 -0.0929,0.02108 -0.13796,0.114139 -0.14418,0.225826 z m 10.4867,-12.2002891 c 0.0775,-0.047712 0.15345,-0.097715 0.23357,-0.1410767 0.0247,-0.06374 0.057,-0.1142592 0.0832,-0.1751831 -0.10706,0.1033117 -0.21202,0.209196 -0.31677,0.3162598 z m 6.86004,-4.7723185 c 0.47545,-0.3876092 0.90535,-0.876814 1.26556,-1.5156697 -0.73746,0.5836979 -1.14559,1.1638736 -1.26556,1.5156697 z m 1.31465,-0.3999756 c 0.42704,0.49269 -1.5322,1.172064 -0.46922,0.3849894 0.38404,0.2219919 0.20451,-0.4613807 0.46922,-0.3849894 z M 6.5096801,2.5181925 7.2863769,2.9822469 8.1194009,3.4003092 C 11.566247,5.7387132 7.4405997,4.2362806 6.5096801,2.5181925 Z m -1.5353068,0.07183 C 6.8611088,4.2248684 7.5952637,6.062076 5.3066528,3.6524902 4.7996549,3.4289051 5.0191949,2.970628 4.9743733,2.5900225 Z M 129.40812,3.4979777 c -0.48184,0.4125808 -0.39713,0.1713466 0,0 z m -0.39843,0.6077148 c -0.78915,0.3584171 -2.37956,2.7379297 -2.93677,2.3667806 0.64582,-0.6018518 1.3048,-1.1874198 1.92547,-1.784904 0.35485,-0.1797637 0.70258,-0.3654377 1.0113,-0.5818766 z M 6.0642293,4.7774861 c 0.014479,0.015457 0.074007,0.047025 0,0 z M 126.97054,5.214152 c -0.24434,0.4733685 -0.57861,0.8630061 -0.95291,1.2143961 -0.0782,-0.091668 -0.1303,-0.2533195 -0.14314,-0.5183146 0.31299,-0.2681652 0.69718,-0.4868836 1.09605,-0.6960815 z M 7.3592406,5.3185383 c 0.1478751,0.00859 0.5308074,0.4644129 0,0 z M 78.69287,5.6213622 c -2.616564,0.6075076 -4.6804,3.790374 -6.675561,6.0507938 1.81588,-1.320266 3.337819,-3.9675064 5.319572,-5.1185509 -0.312661,0.5074629 -0.72616,1.1744218 -0.842843,0.9172566 -0.211578,0.8453111 -0.951931,0.2865066 -1.082105,1.1110433 -0.423287,1.734146 -3.014437,1.710294 -3.146577,3.619417 0.660264,-0.168352 0.751289,-1.590451 1.840197,-1.806608 0.959126,-0.256357 1.342207,-1.3814185 1.765784,-1.9766233 0.843745,-0.1351359 1.292961,-1.7696577 1.927531,-1.5725138 0.606582,-0.6265421 1.325405,-0.1477841 1.986442,-0.2340942 0.433802,-0.2903987 1.663465,1.0682221 1.693437,0.1694987 -0.4585,-0.062699 -0.226176,0.2726103 -0.343132,0.1105875 0.169105,-0.1164595 -0.0727,-0.1761635 -0.04961,-0.067696 -0.0211,-0.028933 -0.01978,-0.028059 -0.05271,-0.07183 -0.588553,-0.3108017 -1.105747,-0.6353756 -1.71514,-0.3576012 -0.12598,-0.091489 -0.240048,-0.167839 -0.376721,-0.2439128 -0.532615,-0.1559461 -0.999474,0.5594119 -1.276408,0.2268595 0.935109,-0.4500769 1.976328,-0.5504637 3.196704,-0.027388 0.0054,0.0063 0.0097,0.012172 0.01654,0.01912 0.0045,-0.00236 0.0073,-0.0044 0.01137,-0.00672 0.09141,0.039806 0.183537,0.081761 0.276986,0.1286743 C 81.227679,6.133485 79.322589,5.7975731 78.69287,5.6213622 Z M 8.7312499,6.0120361 c 1.5488051,0.022714 2.6070321,0.8979056 3.5310501,2.0158976 0.214155,0.4993783 0.555191,0.9129108 0.917774,1.2154296 0.145239,0.2036752 0.292957,0.4016589 0.438733,0.605131 0.1055,0.1308874 0.222186,0.2535937 0.330729,0.3824057 1.398166,2.293754 2.609984,4.831612 4.426603,6.247164 0.566421,1.235157 -3.69501,-0.730515 -2.258777,-2.567802 C 15.250551,12.223278 12.350641,14.812602 12.493811,11.2882 12.060686,8.5815165 8.3045809,8.5159819 8.2460082,6.0507934 l 0.00207,-0.019637 c 0.1661551,-0.015454 0.3272305,-0.021407 0.4831746,-0.01912 z M 77.609215,6.63267 c 0.01894,0.1352615 -0.0098,0.034287 0,0 z M 125.3076,7.2073119 c -0.12682,0.2579368 -0.30469,0.4900134 -0.60824,0.6542236 0.19637,-0.2233313 0.39861,-0.4417613 0.60824,-0.6542236 z m -2.00557,1.6918864 c -0.26524,0.3765732 -0.4686,0.8082179 -0.57619,1.3255007 -0.29304,0.41017 -0.61844,0.796785 -0.92862,1.086238 -0.37845,0.01233 -0.68559,0.0822 -0.9369,0.198955 -0.0259,-0.16541 -0.006,-0.415146 0.0811,-0.781348 0.35234,-1.0161547 1.47281,-1.320744 2.36058,-1.8293457 z M 81.195043,9.5823607 c -0.50311,0.5136413 -1.428553,1.4076143 -2.407088,2.3497273 -1.65e-4,0.02007 -0.02861,0.043 -0.06201,0.05994 -2.055431,1.978672 -4.338382,4.164762 -3.611149,3.65404 0.890274,-0.717149 2.18644,-1.608833 3.356901,-2.574003 -0.210382,0.426599 -0.421223,0.91361 -0.934827,0.998389 -1.043125,0.247916 -1.251556,1.882222 -2.245857,1.806608 -0.76801,-0.366448 -0.159911,2.162287 -0.12144,0.578259 -0.0064,-0.498338 1.237013,-0.378799 1.433504,-1.080037 0.600642,-1.264043 2.414436,-1.580646 3.191537,-2.840137 0.436949,-0.76044 0.620866,-0.856692 1.291394,-1.240234 0.07358,-0.432791 1.114697,-0.840956 0.357601,-1.183391 -0.189405,0.07275 -0.367002,0.173803 -0.534335,0.294556 0.08997,-0.174146 0.160047,-0.347957 0.21239,-0.5208984 -1.430923,1.5990804 -2.751656,2.8149894 -0.575158,0.4449344 l 0.576709,-0.4495853 c 0.02999,-0.099763 0.05578,-0.1990707 0.07183,-0.298173 z m -0.07183,0.298173 c -4.7e-4,0.00156 -0.0011,0.00309 -0.0016,0.00465 0.0037,-0.00413 0.0072,-0.00775 0.01085,-0.011886 z m -2.39727,2.1114993 c 0.02091,-0.02013 0.04115,-0.03986 0.06201,-0.05994 1.64e-4,-0.01993 -0.02679,-0.03652 -0.104903,-0.03927 -0.129857,0.141911 -0.03138,0.136892 0.04289,0.09922 z m -4.597652,-1.860352 c 0.03192,0.0031 0.07471,0.02411 -0.02274,0.0052 0.0026,-0.005 0.0121,-0.0062 0.02274,-0.0052 z m 7.359757,0.100769 c 0.0063,0.0154 -0.01662,0.07813 0,0 z m -0.10697,0.170016 c -0.256347,0.533345 -1.03551,0.973496 -1.590084,1.595251 0.44917,-0.614912 0.958897,-1.175747 1.590084,-1.595251 z m 0.113171,0.05839 c 0.08962,0.02363 0.0137,0.02325 0,0 z m -0.172082,0.380855 c 0.03017,0.01923 -0.05074,0.09503 0,0 z m -0.45682,0.515731 c 0.12122,0.0097 0.01082,0.03816 0,0 z m -0.541052,0.162264 c 0.236083,0.249918 -0.03924,0.10454 0,0 z m -64.661169,0.208256 c 2.136961,1.79723 5.004264,2.822535 6.633187,5.100464 -1.467349,0.839899 -2.754827,0.349078 -3.869014,-0.681612 -0.113712,-0.240174 -0.226596,-0.481519 -0.329696,-0.720886 -0.373706,-1.433975 -1.355413,-2.583884 -2.434477,-3.697966 z m -0.186035,0.262516 c 1.062872,1.194625 2.060784,2.409491 2.635498,3.840593 -1.056208,-1.10229 -1.907094,-2.576291 -2.635498,-3.840593 z m 63.29226,0.173633 c 0.274657,0.504623 -0.73042,0.486107 0,0 z m 0.648539,0.326079 c -0.02011,0.0117 -0.08397,0.0091 0,0 z m 41.18353,0.134875 c 0.10395,2.42032 -3.56625,2.937561 -3.32176,5.462716 -0.63342,0.311759 -1.41015,0.56129 -2.12287,0.711584 0.68786,-0.82973 1.24009,-1.762111 1.53273,-2.892847 1.89373,-0.570588 2.53934,-1.709139 3.28662,-2.737817 0.21205,-0.17665 0.42169,-0.35626 0.62528,-0.543636 z m -41.5587,0.01757 c 0.164934,0.04601 -0.03423,0.03014 0,0 z m -0.01137,0.02532 c 0.02134,-0.0014 -0.0027,0.0077 0,0 z m -0.01395,0.02532 c 0.237474,0.432613 -0.653524,0.640496 0,0 z m 0.04858,0.01654 c 0.009,-3.32e-4 0.02079,0.0012 0.03566,0.0052 -0.02929,0.08592 -0.09851,-0.0028 -0.03566,-0.0052 z m 40.19083,1.030945 c -0.36233,0.655429 -0.86429,1.261909 -1.89859,1.544092 0.033,-0.09021 0.0841,-0.196543 0.11989,-0.289388 0.60373,-0.40271 1.20107,-0.815569 1.7787,-1.254704 z m -41.316859,0.104903 c -0.0022,-6.54e-4 -0.0046,-2.08e-4 -0.0062,0.0021 0.01844,0.01038 0.01286,-1.03e-4 0.0062,-0.0021 z m 38.636409,1.744597 c -0.68351,0.876565 -1.46349,1.528983 -2.45877,1.731677 0.14141,-0.123576 0.28896,-0.249899 0.46871,-0.390157 0.64828,-0.460494 1.31829,-0.901063 1.99006,-1.34152 z m -97.850882,1.143082 c 0.92723,0.619452 2.011462,0.950164 3.3507,0.823206 0.393652,0.395733 0.767725,0.836604 1.135848,1.294495 -2.041526,1.393418 -3.462035,-0.169986 -4.486548,-2.117701 z m 96.932592,0.456303 c -0.10636,0.678541 -0.36022,1.206549 -0.70384,1.647962 -1.2763,0.234176 -2.22505,0.07512 -1.45211,-0.892452 0.76619,0.102707 1.70042,0.301459 2.15595,-0.75551 z m -92.040384,0.621668 c 0.385495,0.0064 -0.08682,1.25148 -0.221176,0.08372 0.09357,-0.06028 0.166105,-0.08464 0.221176,-0.08372 z m 89.493244,0.0956 c 0.0274,0.001 0.058,0.0052 0.0863,0.0072 -0.31512,0.299515 -0.60619,0.605315 -0.86713,0.918807 -0.0298,-0.781152 0.30025,-0.944284 0.78083,-0.926042 z m 0.91209,1.136365 c 0.19173,-0.01579 0.37979,-0.0134 0.55552,0.0098 0.0592,0.01627 0.10664,0.02126 0.1633,0.03514 -0.76299,0.828105 -1.84755,1.356402 -2.80861,2.080493 -0.25442,-0.493103 -0.12432,-0.9385 0.2036,-1.295011 0.11137,-0.0611 0.21948,-0.114564 0.32091,-0.153996 -0.009,-0.04147 -0.0117,-0.0704 -0.0202,-0.11007 0.43384,-0.3132 1.0251,-0.520219 1.58543,-0.566374 z M 22.852358,19.24895 c 0.07421,0.0072 0.116698,0.04463 0.118339,0.126091 -0.779599,2.028498 1.084832,3.242014 2.806547,3.527433 2.217558,4.797574 -2.826315,-1.443272 -4.724777,-1.728577 -0.409545,-0.52733 -0.710776,-1.207008 -0.977718,-1.877405 0.664141,1.001548 2.319887,-0.09221 2.777609,-0.04754 z m 88.680892,1.461926 c 0.14892,0.206246 0.21317,0.401125 0.22428,0.587561 -0.25233,0.200747 -0.49569,0.414638 -0.71675,0.658875 -0.54163,0.368411 -0.91819,0.584457 -1.18598,0.70435 0.73325,-0.905679 1.54593,-1.863199 1.67845,-1.950786 z m -0.78083,0.217558 c -0.4495,0.582207 -0.86244,1.206511 -1.26555,1.841748 -0.40596,-0.01434 0.33137,-0.979447 1.26555,-1.841748 z m 0.65578,1.201477 c -0.30289,0.348371 -0.74175,0.660296 -1.17151,0.945162 0.3791,-0.324629 0.77534,-0.634844 1.17151,-0.945162 z m -84.413976,0.958598 c 0.405735,0.833 0.802745,1.693655 1.449007,2.375565 3.223018,2.083924 2.110398,2.050677 0.668693,1.038697 -0.329958,-0.588347 -0.722983,-1.082095 -1.33842,-1.23455 -0.121106,-0.157482 -0.237327,-0.317954 -0.355534,-0.47749 0.101181,0.164246 0.217771,0.321484 0.342098,0.474389 -0.180295,-0.04296 -0.372864,-0.0669 -0.595829,-0.04444 0.03006,-0.347641 -0.01267,-0.64015 -0.09353,-0.903304 0.114087,0.158804 0.230703,0.316039 0.347265,0.473357 -0.324976,-0.527534 -0.512191,-1.106906 -0.423746,-1.702222 z m 52.037133,3.270601 c -0.539552,0.12806 -0.596741,0.803062 -1.185974,0.874882 -2.618918,4.154531 -7.252043,1.565404 -10.279476,-2.257743 -0.443442,0.53708 -0.972072,2.559981 -1.554427,2.899565 1.180254,-0.451321 2.363236,-2.087555 3.70675,-0.676962 3.806213,2.298224 7.196393,2.474654 9.313127,-0.839742 z M 66.01148,27.875814 c -0.373621,0.142869 -0.748034,0.32615 -1.12603,0.516764 0.391222,-0.136018 0.768738,-0.30842 1.12603,-0.516764 z m -1.12603,0.516764 c -2.194806,0.76308 -4.81308,-0.128114 -6.623368,-1.482081 -3.292942,-3.018905 -0.422234,0.915554 0.762227,0.901754 2.354934,1.915902 4.155201,1.440589 5.861141,0.580327 z m 43.68881,-4.606954 c -0.005,0.162546 -0.0307,0.330594 -0.045,0.49661 -0.76619,1.207812 -1.57275,2.380598 -2.60346,3.328996 -1.52332,0.368771 -2.41881,1.256227 -3.06131,2.430343 -1.23544,1.228223 -2.18123,2.525681 -3.353803,3.748608 0.438219,-1.71136 1.829543,-4.523114 2.625163,-5.457031 3.3102,-0.08522 3.90172,-3.514921 6.43837,-4.547526 z m -53.144563,1.515153 c -0.47631,0.554186 1.14885,1.034724 1.458826,1.449007 1.253833,0.819088 1.870835,2.206255 3.031339,2.97863 1.065936,-0.1347 1.76462,-0.317375 2.566252,-0.363286 0.743949,-0.286894 1.335351,0.704079 2.062406,0.189653 1.397551,-0.351469 4.184647,-4.278661 4.767668,-1.191142 0.143238,-0.131195 0.277333,-0.218509 0.404626,-0.274402 -0.997875,-0.265831 -1.153137,-3.286791 -3.105753,-0.07958 -1.221897,0.796457 -2.779973,1.908294 -4.175973,0.994255 -0.610309,0.336178 -1.188122,0.204424 -1.861385,0.294039 0.01724,0.04234 0.0098,0.09692 -0.0067,10e-4 -0.20712,0.02799 -0.422464,0.0751 -0.65164,0.165882 -1.195128,-1.22507 -2.308251,-2.767876 -3.869014,-3.648356 0.148659,-0.07367 -0.506588,-0.437256 -0.620634,-0.515731 z m 5.141288,3.998205 c 0.0022,-2.95e-4 0.0045,-7.42e-4 0.0067,-10e-4 -0.0034,-0.0083 -0.0058,-0.01775 -0.01137,-0.02274 0.0018,0.01316 0.003,0.01411 0.0047,0.02377 z m 9.149829,-1.209745 c 0.133588,0.03559 0.282539,0.01968 0.452686,-0.06511 -0.140874,-0.02395 -0.291192,-0.0058 -0.452686,0.06511 z m 0.452686,-0.06511 c 1.065679,0.181181 1.622087,2.654361 2.890779,1.044381 1.144902,0.766869 2.955021,-1.72646 3.785299,-0.392741 1.264276,-2.025375 4.110462,-3.873113 0.408244,-1.236101 -0.307891,1.265234 -0.962582,-0.529927 -1.908411,0.915707 -1.934208,0.762508 -3.444171,1.194765 -4.931482,-0.488342 -0.08651,0.06959 -0.167316,0.118666 -0.244429,0.157096 z m -40.906553,-1.22938 c 0.959145,0.706273 1.864657,1.466204 2.717664,2.273763 -0.123839,-0.0088 -0.250583,-0.01159 -0.382923,-0.0041 -1.307472,0.06591 -1.770697,-1.176228 -2.334741,-2.269628 z m 77.578723,0.962731 c -1.57667,1.331723 -3.37944,1.931858 -1.45314,0.552938 0.44802,-0.177744 0.93357,-0.354701 1.45314,-0.552938 z m -30.339746,0.203606 c 0.02762,-0.0027 -0.02913,0.03262 0,0 z m 27.552326,1.012341 c -0.30194,0.240537 -0.59235,0.483868 -0.85887,0.733289 0.24079,-0.296545 0.53678,-0.526211 0.85887,-0.733289 z M 32.464168,29.35273 c 0.567473,0.22455 1.013384,0.601574 1.37821,1.080037 -0.403948,-0.139612 -0.954104,-0.497127 -1.37821,-1.080037 z m 69.988492,1.573031 c -0.12924,0.304624 -0.25682,0.620997 -0.37414,0.947229 -0.9915,0.65289 -1.60815,0.210565 0.37414,-0.947229 z m -67.444461,0.995804 c 3.347813,2.002311 5.828069,4.95278 7.545792,8.412923 -1.200786,0.292187 -2.084981,0.0051 -2.796728,-0.612365 -0.04868,-0.157813 -0.103248,-0.311161 -0.165882,-0.45837 0.03924,0.138945 0.07945,0.277097 0.118339,0.411344 -0.559206,-0.502987 -1.011836,-1.211562 -1.423169,-2.012797 0.563769,0.34403 1.009844,0.90814 1.30483,1.601453 -0.292405,-1.035463 -0.642482,-2.120471 -1.657263,-2.324923 -0.125594,-0.268581 -0.250652,-0.54118 -0.374654,-0.817004 -0.01247,0.276404 -0.0088,0.534262 0.0083,0.77618 -0.159543,0.0016 -0.330403,0.01784 -0.518831,0.05891 -0.669774,-0.627356 -1.078815,-2.436736 -1.704289,-4.166154 0.695778,0.897801 1.347044,1.823335 1.95492,2.771407 -0.61443,-1.35287 -1.278186,-2.674308 -2.245341,-3.530017 -0.01542,-0.0368 -0.03028,-0.07406 -0.04599,-0.110588 z m 2.291333,3.640605 c 0.08606,0.189492 0.174901,0.370517 0.259932,0.559656 0.0024,-0.05301 6.02e-4,-0.101206 0.0041,-0.155546 -0.08505,-0.136154 -0.177285,-0.268761 -0.264066,-0.40411 z m 64.726798,-3.538802 c -0.22735,0.642259 -0.44428,1.302313 -0.68936,1.987475 -0.9043,0.895146 -1.445995,1.212973 -1.725997,1.145667 0.202292,-0.144362 0.424837,-0.272229 0.672307,-0.379305 0.40184,-1.069908 1.01492,-1.958861 1.74305,-2.753837 z m -1.13947,1.25212 c -0.52897,0.536441 -0.993156,1.140796 -1.425749,1.770951 -0.0928,-0.132396 -0.105177,-0.378345 -0.06356,-0.694014 0.486097,-0.331393 0.983889,-0.677538 1.489309,-1.076937 z m -25.502315,1.460893 c -0.388156,0.863637 -0.856688,1.245444 -1.349272,0.144694 -1.645826,1.945346 -3.37385,3.729393 -4.402315,6.046659 -0.809374,0.545942 -1.948358,2.36127 -2.806547,1.661914 -1.311012,1.778243 -2.532822,3.721759 -4.738729,4.544942 -2.345185,-0.285665 -1.266212,1.079742 0.519865,0.150378 1.568838,-0.05792 3.429206,-3.993399 4.486031,-4.062284 2.597394,-0.781817 3.192409,-3.740025 4.926315,-5.426025 1.022521,-0.16873 1.623749,-3.792433 2.445328,-1.802474 -0.0574,0.04213 -0.114555,0.08598 -0.171566,0.130741 0.0775,-0.01361 0.157851,-0.0015 0.238746,0.02274 0.02725,0.02704 0.06098,0.03711 0.0987,0.03462 0.580608,0.245641 1.19043,1.04149 1.385445,-0.794267 l -0.108521,-0.122473 c -0.206818,0.05473 -0.41001,0.130813 -0.610298,0.224793 0.193602,-0.346089 0.291105,-0.702115 0.08682,-0.753959 z m -1.09089,1.388545 c -0.128391,0.02255 -0.250082,0.110506 -0.360184,0.301274 0.119247,-0.105783 0.239398,-0.206447 0.360184,-0.301274 z M 73.933471,36.4262 c -2.440011,2.164495 -4.585859,6.498487 -7.567497,8.037235 -0.496149,2.514524 -8.258107,4.337123 -2.635498,3.162598 3.495455,-3.663222 7.581556,-6.50851 10.111011,-11.012248 0.02944,-0.07268 0.06045,-0.132943 0.09198,-0.187585 z m 19.800858,3.892786 c -0.495916,0.708985 -1.134317,1.134263 -1.886706,1.323433 0.546292,-0.618913 1.154496,-1.098891 1.886706,-1.323433 z m -5.06429,1.281575 c 0.02976,-0.01483 0.06943,-0.01566 0.120923,10e-4 0.999532,0.06288 1.943512,0.19231 2.491837,0.404626 -0.372977,0.450222 -0.718309,0.942085 -1.059883,1.439189 -0.09503,0.03647 -0.148953,0.06768 -0.254248,0.10542 -1.054472,0.717276 -0.920442,0.560002 -1.232483,-0.962732 -0.0035,-0.104061 -0.274437,-0.883749 -0.06615,-0.987537 z m 2.800862,0.489893 c 0.499802,0.265204 0.377775,0.647703 -0.789615,1.164786 0.255088,-0.410085 0.515031,-0.8053 0.789615,-1.164786 z m -43.980777,1.581815 -0.07028,0.01809 z m 31.494201,0.06046 c -0.822317,2.922138 -2.557717,5.639533 -4.833296,7.089489 -1.722201,-0.443528 -2.008998,0.09095 -1.959054,0.861963 3.421501,-0.722892 6.268092,-3.950108 6.79235,-7.951452 z m -6.79235,7.951452 c -0.02745,0.0058 -0.05464,0.01261 -0.08217,0.01809 0.03449,0.04669 0.06123,0.08684 0.09354,0.131775 -0.0057,-0.05128 -0.0082,-0.10036 -0.01137,-0.149862 z m 0.01137,0.149862 c 0.06231,0.55785 0.25374,1.207832 0.208773,1.702221 -0.196623,0.150448 -0.389797,0.274405 -0.58136,0.379305 -1.06753,-0.481809 -1.801552,-0.05194 -2.457731,0.368453 0.586321,-0.164162 1.32412,-0.142351 1.984375,-0.140043 -0.678622,0.298402 -1.379237,0.504807 -2.249992,1.114144 -1.164809,0.937441 -1.546144,1.664276 -1.947168,1.426786 0.05043,0.216628 0.07018,0.471774 0.04289,0.783932 0.540937,-0.0531 1.180651,-2.005102 2.220537,-2.113049 1.414535,-1.753926 1.786889,1.192656 2.987931,-1.279509 0.469267,-0.09893 0.720399,-0.344228 0.534334,-0.930692 0.356423,-0.386967 0.862552,-0.669937 1.385445,-0.890902 -0.144076,-0.05186 -0.30202,-0.149752 -0.478007,-0.313159 -0.329061,0.478742 -0.633967,0.848078 -0.925525,1.141532 -0.111971,-0.313624 -0.346963,-0.723967 -0.724502,-1.249019 z m 2.128035,0.420646 c 0.355631,0.127999 0.62321,-0.04182 0.848527,-0.315226 -0.281507,0.09493 -0.549202,0.188737 -0.848527,0.315226 z m 0.848527,-0.315226 c 0.655399,-0.221018 1.226957,-0.393289 1.310515,-0.593246 0.378597,1.490507 0.584946,-0.924757 0.363285,-1.507918 -0.04065,-0.694386 2.880717,-0.698715 0.726571,-1.769401 1.623861,2.204145 -2.441213,-0.327421 -0.992188,2.747636 -0.60453,-0.633231 -0.898467,0.504428 -1.408183,1.122929 z m -8.019665,4.745446 c -0.08556,-0.367542 -0.270766,-0.610046 -0.522449,-0.762744 0.205573,0.421422 0.368329,0.671474 0.522449,0.762744 z m -0.522449,-0.762744 c -0.08424,-0.172693 -0.170724,-0.355334 -0.274402,-0.593762 -1.994315,0.257273 -5.146126,1.219657 -2.671671,-1.636593 0.02511,-0.434184 -0.04576,-0.725826 -0.181901,-0.922424 1.617018,0.854601 3.442367,1.02412 4.806425,3.111955 -0.04399,-0.544422 0.08331,-0.915731 0.315743,-1.173572 -0.369262,0.158044 -0.744324,0.19349 -1.176156,-0.08837 -1.592677,-1.640375 -4.068386,-2.515949 -5.901965,-3.596679 0.415982,0.627301 0.883677,1.067137 1.380794,1.405082 -1.002413,-0.203762 -2.682131,0.495956 -3.057694,-1.087272 0.06661,-0.455862 -0.0099,-0.7655 -0.167949,-0.993738 0.342115,0.187121 0.781216,0.320526 1.367875,0.380339 -1.133127,-0.747569 -1.922778,-1.623745 -1.917195,-2.914551 -1.670675,0.09563 -1.267015,-1.513733 -1.806092,-0.976685 0.966364,1.025008 1.0407,2.244663 1.769918,3.049943 -0.755005,-0.378941 -1.761422,-0.536546 -1.574581,-2.008146 0.06587,-0.90563 -0.861509,-1.601326 -0.872815,-2.500106 l -0.141076,-0.05684 c -0.22706,1.088469 0.895773,1.808873 0.84801,2.989999 0.05458,2.23502 2.564396,1.22853 2.454631,3.453019 0.505013,2.108197 4.532132,-0.509843 3.358968,2.367297 -2.283897,3.362962 1.859442,0.831483 3.441133,1.791104 z m -5.560901,-5.195031 c 0.152746,0.100772 0.312788,0.198816 0.476974,0.295589 -0.05765,-0.08694 -0.114399,-0.176943 -0.170016,-0.271301 -0.106779,-0.0058 -0.208627,-0.01426 -0.306958,-0.02429 z m 7.555095,3.980635 c 0.243942,-0.104407 0.487979,-0.261619 0.74104,-0.423747 -0.297476,0.08329 -0.553888,0.216138 -0.74104,0.423747 z M 89.878751,43.941503 c -0.220596,0.329568 -0.446371,0.650018 -0.666626,0.978752 0.06398,-0.323925 0.169717,-0.617242 0.38964,-0.832507 0.09342,-0.04135 0.184978,-0.09566 0.276986,-0.146245 z m -1.069186,1.17874 c 0.08227,-0.0016 0.137553,0.05073 0.165365,0.150895 -0.695717,1.020635 -1.42328,1.984718 -2.29185,2.716113 0.06385,-0.136247 0.117013,-0.2757 0.150895,-0.421163 0.09627,-0.7095 1.467837,-2.435933 1.97559,-2.445845 z m -6.127791,16.120463 -0.144177,0.343648 -0.0186,0.384473 c 0.347941,0.267534 0.486516,0.601724 0.50953,0.95343 0.362829,-0.614335 1.202124,-0.82586 2.209167,-0.750859 -0.984213,-0.177064 -1.898804,-0.415886 -2.555916,-0.930692 z m 2.555916,0.930692 c 0.368924,0.06637 0.74729,0.124884 1.12603,0.185002 -0.387138,-0.09411 -0.767321,-0.158287 -1.12603,-0.185002 z m 1.12603,0.185002 c 1.9577,0.47589 4.099077,1.744105 4.615222,3.126941 C 90.552907,63.097138 88.458726,62.688944 86.36372,62.3564 Z m -3.335197,0.565857 c -0.108061,0.182966 -0.173365,0.401853 -0.188619,0.659391 -0.692643,0.359493 -0.537981,0.392738 0.0067,0.325045 9.5e-4,0.01052 0.0015,0.02089 0.0026,0.03152 0.0039,-0.0112 0.008,-0.02233 0.01189,-0.03359 0.367,-0.04613 0.892445,-0.131398 1.446423,-0.189136 -0.30263,-0.05592 -0.546228,-0.204942 -0.660941,-0.526066 -0.279191,0.129694 -0.490091,0.23239 -0.671794,0.323494 0.04386,-0.196977 0.06646,-0.396361 0.05374,-0.590661 z m 1.278991,0.793233 c 0.335411,0.06198 0.740272,0.0084 1.12758,-0.05426 -0.355152,-0.01108 -0.746386,0.01453 -1.12758,0.05426 z m 1.12758,-0.05426 c 0.338083,0.01055 0.64352,0.05422 0.875399,0.151412 0.870583,0.231507 2.011113,0.136314 2.484603,0.982369 0.944497,0.544964 1.653564,1.192176 2.253609,2.033467 0.0036,-0.07577 -0.0063,-0.153082 -0.02274,-0.230477 -0.04226,0.02133 -0.219112,0.02244 -0.02377,-0.0279 0.01191,0.0034 0.01493,0.0067 0.02015,0.0098 -0.16109,-0.695996 -1.068829,-1.426497 -1.772502,-1.706873 -0.642298,-0.8598 -1.371722,-1.250012 -2.517159,-1.18339 -0.155007,-0.241779 -0.703124,-0.124554 -1.297595,-0.02842 z m 5.587256,2.918685 c 0.0014,0.006 0.0023,0.01206 0.0036,0.01809 0.0098,-0.005 0.0075,-0.01139 -0.0036,-0.01809 z m -8.173144,-2.6417 c -0.341255,0.972541 -0.934649,1.713494 0.297139,1.093474 -0.169979,-0.414591 -0.264604,-0.777204 -0.297139,-1.093474 z M 51.873319,61.601924 c -0.196525,0.639119 -1.092101,0.609964 -1.576648,0.505912 -0.895042,-0.687088 -2.260044,-0.128849 -3.410128,0.637687 2.535543,-0.992827 7.218735,0.02142 4.986776,-1.143599 z m -4.986776,1.143599 c -0.550291,0.215475 -0.999366,0.525151 -1.254704,0.972551 0.3513,-0.312187 0.784806,-0.659361 1.254704,-0.972551 z m -1.254704,0.972551 c -0.936204,0.831969 -1.286269,1.409643 -0.163297,0.394808 0.03889,-0.142335 0.09408,-0.273518 0.163297,-0.394808 z m 7.206279,-0.889868 c -0.860607,0.503305 -1.921007,1.857779 -2.484603,0.669726 -1.863148,0.164848 -3.270844,0.975264 -4.97644,1.881022 -0.469208,-0.459792 -0.325078,1.167841 -0.808737,1.35754 -0.276642,0.826059 0.566606,-0.06235 0.59738,-0.328145 0.123726,-1.457708 2.325156,-1.824837 3.474723,-2.199349 0.984666,-1.003814 2.091143,-0.207174 2.086178,0.181384 0.0066,-0.0034 0.01255,-0.006 0.01912,-0.0093 -0.0099,-0.0013 -0.0015,-0.01187 0.05529,-0.03927 0.0047,0.003 0.0052,0.0061 0.0052,0.0093 1.289042,-0.650294 2.031259,-0.848135 2.008146,0.219108 0.05883,-0.08047 0.123277,-0.162825 0.198954,-0.248047 -0.114165,-0.467273 0.139195,-1.076525 -0.175183,-1.493965 z m -0.02377,1.742012 c -0.434514,0.594286 -0.429313,1.059498 -0.256832,1.41025 0.165149,-0.611197 0.249562,-1.074564 0.256832,-1.41025 z m -0.256832,1.41025 c -0.05354,0.198161 -0.11341,0.408081 -0.184485,0.638721 2.240015,0.413103 0.638088,0.283711 0.184485,-0.638721 z M 50.806201,64.35111 c -0.02056,0.01037 -0.03963,0.01937 -0.06046,0.02997 0.0137,0.0018 0.06043,-0.01444 0.06046,-0.02997 z m -6.288505,0.631486 0.04341,0.04134 z m 45.74036,0.769462 c 0.0091,0.03089 -0.0096,0.0049 0,0 z M 53.43343,69.729076 c -0.626043,1.49728 -0.66068,1.977769 -1.985408,0.471806 -0.267012,0.05435 0.655996,1.900975 2.266011,0.437183 1.122747,1.441868 1.051781,4.86433 2.280998,1.731677 -1.197344,1.300684 -1.613182,-1.175723 -2.561601,-2.640666 z m 2.561601,2.640666 c 0.113679,-0.12349 0.233837,-0.276955 0.362769,-0.472839 -0.06083,-2.27e-4 -0.119543,-0.0032 -0.181901,-0.0016 -0.06451,0.179287 -0.122504,0.325651 -0.180868,0.47439 z M 56.3578,71.896903 c 0.711602,0.0027 1.320938,0.129413 1.860868,0.344681 -0.528911,-0.293609 -1.074313,-0.623875 -1.583366,-0.799951 -0.09706,0.172786 -0.188603,0.320207 -0.277502,0.45527 z m 1.860868,0.344681 c 0.260412,0.144561 0.517629,0.280951 0.762744,0.382923 -0.239986,-0.146018 -0.49301,-0.27538 -0.762744,-0.382923 z m 0.762744,0.382923 c 2.217445,1.349186 3.352952,4.130839 6.84506,4.51652 0.141435,0.258983 0.263427,0.454351 0.376721,0.619084 -0.569619,0.56096 -1.187899,1.283493 -1.787487,1.361157 -0.568573,-3.203245 -2.745105,-2.328095 -3.826123,-5.156275 -0.901009,2.696208 -1.510218,-1.934337 -3.267501,0.826307 -0.872986,-3.700885 -2.555067,1.383392 -3.439583,-0.177767 -0.01079,-1.787959 -2.042704,-0.538517 -2.316655,-1.654163 -0.256047,-0.226814 -1.120577,-0.836096 -0.484208,-0.0062 0.535836,0.546785 0.682475,1.07143 1.687752,0.775663 1.095226,2.010184 2.031784,1.919414 3.314527,-0.08992 0.761372,1.835779 1.661315,1.396885 2.816365,0.529167 0.445246,0.292789 0.40705,2.148313 0.894519,1.396297 1.184249,-2.886886 2.289987,2.390025 3.806486,2.153874 0.51025,0.478426 0.381201,2.391099 0.998389,1.606103 0.630096,-0.356668 1.275851,-0.904687 1.848466,-1.245919 0.404653,0.43035 0.608433,0.156894 0.794266,-0.30179 0.268124,-0.01673 0.498958,0.09478 0.675411,0.411344 4.57e-4,-0.0932 -0.0042,-0.167672 0,-0.273885 C 67.8073,77.5718 67.681218,77.355748 67.54368,77.231977 c -7.92e-4,-0.07771 -0.0025,-0.158511 -10e-4,-0.229443 -0.02456,0.05792 -0.04589,0.116429 -0.06873,0.1757 -0.216986,-0.142383 -0.461976,-0.06963 -0.725537,0.110071 -2.271876,-0.431814 -6.247536,-1.886079 -6.009969,-5.338692 -0.353534,0.991263 -1.003645,0.9883 -1.756999,0.674894 z m 8.561234,4.378027 c 0.274062,-0.646284 0.668238,-1.16335 1.563729,-0.492476 2.64414,3.997195 3.693556,-3.148342 5.737118,-3.017904 -0.02033,0.01343 -0.0394,0.02254 -0.06253,0.04496 -0.0507,1.32741 0.16364,2.611702 -1.406115,3.201354 -0.990586,0.76426 -1.912437,1.182666 -2.937806,1.927531 -0.103819,-1.564519 -1.552569,1.009501 -2.208134,0.742074 0.01257,0.110744 0.02761,0.212011 0.03669,0.336414 0.149778,0.869011 1.611892,-1.470706 1.42782,-1.015959 0.596881,0.129707 1.16233,0.302635 2.427758,-0.722437 0.766268,-0.620992 2.477243,-1.79273 2.82205,-2.359546 -0.160535,-2.124618 0.183472,0.626618 1.183391,-1.314131 1.296161,0.882588 1.598753,-1.65059 3.216857,-0.849561 0.639593,0.402287 1.051912,3.535901 1.469678,1.245919 0.112291,-0.556782 0.215657,-0.990345 0.315226,-1.342037 0.502998,-0.05354 1.043678,-0.281738 1.534274,-0.574125 0.150702,0.146026 0.311633,0.300054 0.497127,0.455269 1.562824,-3.501232 0.123169,1.400409 1.214913,-1.410249 -0.178355,-0.120524 -0.348147,-0.08195 -0.510047,0.02584 0.680974,-0.685476 0.650545,-1.111271 -1.167887,0.06356 -0.06249,0.151089 -0.128137,0.277555 -0.19482,0.392741 -0.0279,-0.08651 -0.05542,-0.182592 -0.08217,-0.29869 -0.08724,-0.201875 -0.05157,-0.669335 -0.333829,-0.724504 -0.417878,0.460551 -0.689816,1.076284 -0.907955,1.653646 -0.578066,-0.163338 -1.177701,-0.645371 -1.70894,-0.81442 0.274008,0.961653 0.867142,1.279936 1.550293,1.242301 -0.432134,1.213918 -0.664307,1.941144 -1.581815,-0.169499 -0.289825,-0.168694 -0.542822,-0.220594 -0.771013,-0.201021 0.289406,-0.145589 0.546563,-0.411251 0.736389,-0.894519 -0.486368,-0.130706 -0.908884,0.04018 -1.193725,1.035079 -0.0011,5.9e-4 -0.0025,4.4e-4 -0.0036,0.001 -0.02152,0.0028 -0.04344,0.0036 -0.06511,0.0057 0.01062,0.0058 0.02034,0.0096 0.03101,0.0155 -0.725251,0.414981 -1.196128,1.419597 -1.929081,0.889868 -1.012409,1.276419 -0.950056,-0.190329 -1.190108,-0.550354 0.212568,0.06427 0.435738,0.204131 0.672827,0.447001 0.256276,-1.363799 1.408905,-0.706668 2.415356,-0.802018 -2.75016,-1.508591 -3.838828,0.423966 -6.351033,2.599841 -0.202032,4.576962 -4.161436,-2.991815 -4.24677,1.227832 z m 11.860258,-4.86947 c 0.0216,0.0058 0.0443,0.01578 0.06615,0.02274 -0.01031,-0.03617 -0.02369,-0.06637 -0.03307,-0.104387 -0.01042,0.02905 -0.02221,0.05401 -0.03307,0.08165 z m -11.173995,7.275008 c -0.06365,-0.560803 -0.168146,-0.963627 -0.311092,-1.220081 -0.0038,0.779455 0.114513,1.13989 0.311092,1.220081 z m 15.310177,-7.224365 c -0.297186,0.337379 -0.562125,0.732633 -0.794784,0.577742 0.293933,-0.181482 0.56297,-0.381189 0.794784,-0.577742 z m -1.733228,0.04186 c 0.168413,-0.0155 0.351804,0.114504 0.568441,0.311609 -0.34081,0.466487 -0.725547,0.550061 -1.123446,0.457336 0.184409,-0.527259 0.359947,-0.750999 0.555005,-0.768945 z m -1.30793,3.391524 c -0.03634,0.01117 -0.005,0.0096 0,0 z"
     clip-path="url(#clipPath69)"
     sodipodi:nodetypes="ccccccccccccccccccccccccccccccccccccccccccccccccccccccccccccccccccccccccccccccccccccccccccccccccccccccccccccccccccccccccccccccccccccccccccccccccccccccccccccccccccccccccccccccccccccccccccccccccccccccccccccccccccccccccccccccccccccccccccccccccccccccccccccccccccccccccccccccccccccscccccccccsccccccccccccccccccccccccccccccccccccscscccccccccccccccccccccccccccccccccccccscsccccscsccccccccccccscssccssccccccssccccsccccccccccccccccccccccccccccccccccccccccccccccccccccccccccccccccccccccccccccccccccccccccccccccccccccccccccccccccccccccccccccccccccccccccccccccscccccsccccccccccccccccccccccccccccccccccccccccccccccccccccccccccccccccccccccccccscccscccccccccccccccccccccccccccccccccccccccccccccccccccccccccccccccccccccccccccccccccccccccccccccccccccccccccccccccccccccccccccccccccccccccccccccccccccccccccccccccccccccccsccscc" />
  <g
     inkscape:label="Layer 1"
     inkscape:groupmode="layer"
     id="layer1"
     style="display:inline">
    <path
       id="path13"
       style="display:none;opacity:1;fill:#4d4d4d;stroke-width:0.264583;stroke-linecap:round;stroke-linejoin:round;paint-order:markers stroke fill"
       d="M 41.540913,37.037121 H 66.333516 99.12612 a 1.7555924,1.7555924 66.303421 0 1 1.29214,2.944065 L 87.251118,54.296919 v 7.968131 a 4,4 135 0 1 -4,4 H 74.333516 57.415913 a 4,4 45 0 1 -4,-4 V 54.296919 L 40.248768,39.981186 a 1.7555926,1.7555926 113.69658 0 1 1.292145,-2.944065 z"
       sodipodi:nodetypes="ccccccccc"
       inkscape:original-d="M 37.540913,37.037121 H 70.333516 103.12612 L 87.251118,54.296919 V 66.26505 H 70.333516 53.415913 V 54.296919 Z"
       inkscape:path-effect="#path-effect14"
       transform="translate(-2.6001839)"
       sodipodi:insensitive="true" />
    <rect
       style="display:none;opacity:1;fill:#aa0000;stroke:none;stroke-width:10.5833;stroke-linecap:round;stroke-linejoin:round;stroke-dasharray:none;stroke-opacity:1;paint-order:markers stroke fill"
       id="rect20"
       width="12.648989"
       height="17.40974"
       x="89.49736"
       y="17.003939"
       ry="2.2248671"
       sodipodi:insensitive="true" />
    <path
       id="path20"
       style="display:none;opacity:1;fill:#0000ff;stroke-width:10.5833;stroke-linecap:round;stroke-linejoin:round;paint-order:markers stroke fill"
       d="m 103.09385,13.083774 c 1.0971,0 2.78701,2.824257 1.98033,3.567828 l -5.29167,4.877684 v 7.523518 c 0,1.097101 -0.883227,1.980328 -1.980328,1.980328 -1.097102,0 -1.980329,-0.883227 -1.980329,-1.980328 v -9.111018 l 5.291667,-4.877684 c 0.80668,-0.743572 0.88323,-1.980328 1.98033,-1.980328 z"
       sodipodi:nodetypes="sscssscss"
       sodipodi:insensitive="true" />
    <path
       id="rect2"
       style="display:inline;fill:#5e6a5e;fill-opacity:1;stroke:none;stroke-width:0.264583;stroke-linecap:round;stroke-linejoin:round;paint-order:markers stroke fill"
       d="M -65.231158,6.672976 V 20.563601 H 11.003981 L -1.3161962,7.581448 C -1.5284049,7.291986 -1.720738,6.988466 -1.8918717,6.672976 Z m 202.692538,0 c -0.20473,0.31866 -0.432,0.62226 -0.68007,0.908472 l -12.32017,12.982153 h 76.23668 V 6.672976 Z M -65.231158,25.193809 V 39.084434 H 28.580686 L 15.398028,25.193809 Z m 185.298248,0 -13.18163,13.890625 h 93.81236 V 25.193809 Z M -65.231158,43.714642 v 13.890627 h 98.646174 l 8.214227,-4.771417 -2.884837,-3.039737 -5.769673,-6.079473 z m 167.722578,0 -5.769415,6.079473 -2.884708,3.039737 8.214353,4.771417 h 98.64617 V 43.714642 Z"
       sodipodi:nodetypes="cccccccccccccccccccccccccccccccccccc" />
    <path
       id="path24"
       style="color:#000000;display:inline;fill:#875a5a;stroke-linecap:round;stroke-linejoin:round;-inkscape-stroke:none;paint-order:markers stroke fill;fill-opacity:1"
       d="M 4.4421061,2.1166666 52.467598,52.723913 v 6.01617 h -7.9375 v 8.200016 l 2.465482,-2.465482 6.319511,-0.252698 c 0.15329,0.498269 0.325659,0.987148 0.513664,1.468127 l -0.216524,5.401738 -2.464966,2.464966 h 7.618656 c 3.785982,4.299935 8.042324,6.876582 8.967411,6.876582 0.925238,0 5.181471,-2.576607 8.967412,-6.876582 h 7.65638 l -2.465483,-2.464966 -0.219625,-5.485453 c 0.175402,-0.45433 0.335628,-0.916293 0.480074,-1.385962 l 6.356718,0.254248 2.464966,2.465482 v -8.200016 h -7.974707 v -6.01617 L 131.02456,2.1166666 H 91.761323 l -7.11016,8.7886104 v 7.967989 c 1.5e-4,2.209346 -1.790927,4.000424 -4.000273,4.000273 H 75.074486 V 16.950386 L 74.966999,16.889408 81.905594,9.9502969 79.307303,9.844877 75.00369,14.14849 c -0.627569,0.627567 -1.637929,0.627567 -2.265495,0 -0.627567,-0.627569 -0.628083,-1.638443 -5.17e-4,-2.266011 l 5.212085,-5.2115684 3.503145,0.1426269 -4.167704,-4.168221 C 76.580143,1.9402542 75.444684,1.940771 74.739623,2.6458333 l -6.306592,6.306075 h -0.699699 -3.024621 c -2.391129,0 -4.316532,1.9248877 -4.316532,4.3160157 v 9.605615 h -5.576404 c -2.209346,1.51e-4 -4.000423,-1.790927 -4.000273,-4.000273 V 10.905277 L 43.705342,2.1166666 Z M 56.003816,25.880591 c 0,0 2.241067,3.832324 5.864758,3.832324 3.623694,0 5.864758,-3.832324 5.864758,-3.832324 0,0 2.241066,3.832324 5.864759,3.832324 3.623692,0 5.864758,-3.832324 5.864758,-3.832324 v 16.763834 c 0,6.884922 -8.840742,12.119013 -11.729517,13.030212 C 64.84456,54.763438 56.003816,49.529347 56.003816,42.644425 Z m 19.201412,6.631636 -3.562057,0.164331 -5.608443,5.60896 -5.60896,5.608443 -0.164331,3.562056 3.562057,-0.164847 5.608443,-5.608443 5.60896,-5.60896 z" />
    <path
       style="color:#000000;display:none;fill:#aa0000;stroke-linecap:round;stroke-linejoin:round;-inkscape-stroke:none;paint-order:markers stroke fill"
       d="M 4.4421061,46.566666 67.733332,113.26027 131.02456,46.566666 H 91.761323 l -7.11016,8.788611 v 7.967989 c 1.5e-4,2.209352 -1.790921,4.000423 -4.000273,4.000272 H 71.733088 54.815775 c -2.209352,1.51e-4 -4.000423,-1.79092 -4.000273,-4.000272 v -7.967989 l -7.11016,-8.788611 z"
       id="path25"
       sodipodi:insensitive="true" />
    <path
       id="path26"
       style="display:none;fill:#aa0000;stroke:none;stroke-width:10.5833;stroke-linecap:round;stroke-linejoin:round;paint-order:markers stroke fill"
       d="m 52.467804,68.216186 v 34.974154 c 0,12.65335 13.526652,21.69298 15.265528,21.69298 1.739155,0 15.265529,-9.03993 15.265529,-21.69298 V 68.216186 H 67.733332 Z"
       sodipodi:nodetypes="csssccc"
       sodipodi:insensitive="true" />
    <path
       id="path27"
       style="display:none;opacity:1;fill:#aa0000;stroke-width:10.5833;stroke-linecap:round;stroke-linejoin:round;paint-order:markers stroke fill"
       d="m 44.530304,103.19034 v 8.19958 l 2.465129,-2.46513 6.892766,-0.27568 -0.276061,6.89277 -2.465129,2.46512 h 8.199961 v -14.81666 z"
       sodipodi:nodetypes="ccccccccc"
       sodipodi:insensitive="true" />
    <path
       id="path28"
       style="display:none;opacity:1;fill:#aa0000;stroke-width:10.5833;stroke-linecap:round;stroke-linejoin:round;paint-order:markers stroke fill"
       d="m 90.973693,103.19034 v 8.19958 l -2.465129,-2.46513 -6.892766,-0.27568 0.276061,6.89277 2.465129,2.46512 h -8.199961 v -14.81666 z"
       sodipodi:nodetypes="ccccccccc"
       sodipodi:insensitive="true" />
    <text
       xml:space="preserve"
       style="font-style:normal;font-weight:normal;font-size:33.6088px;line-height:1.25;font-family:sans-serif;fill:#4d4d4d;fill-opacity:1;stroke:url(#linearGradient12);stroke-width:2.64583;stroke-dasharray:none;paint-order:markers stroke fill"
       x="67.783752"
       y="133.71092"
       id="text5"><tspan
         sodipodi:role="line"
         style="font-style:normal;font-variant:normal;font-weight:normal;font-stretch:normal;font-size:33.6088px;font-family:AgitProp;-inkscape-font-specification:'AgitProp, Normal';font-variant-ligatures:normal;font-variant-caps:normal;font-variant-numeric:normal;font-variant-east-asian:normal;text-align:center;text-anchor:middle;fill:#4d4d4d;fill-opacity:1;stroke:url(#linearGradient12);stroke-width:2.64583;stroke-dasharray:none;stroke-opacity:1;paint-order:markers stroke fill"
         x="67.783752"
         y="133.71092"
         id="tspan5">PLEASE</tspan></text>
    <text
       xml:space="preserve"
       style="font-style:normal;font-weight:normal;font-size:33.6088px;line-height:1.25;font-family:sans-serif;fill:#f2f2f2;fill-opacity:1;stroke:none;stroke-width:0.264583"
       x="67.783752"
       y="132.12344"
       id="text1"><tspan
         sodipodi:role="line"
         style="font-style:normal;font-variant:normal;font-weight:normal;font-stretch:normal;font-size:33.6088px;font-family:AgitProp;-inkscape-font-specification:'AgitProp, Normal';font-variant-ligatures:normal;font-variant-caps:normal;font-variant-numeric:normal;font-variant-east-asian:normal;text-align:center;text-anchor:middle;fill:#f2f2f2;stroke-width:0.264583"
         x="67.783752"
         y="132.12344"
         id="tspan2">PLEASE</tspan></text>
    <text
       xml:space="preserve"
       style="font-style:normal;font-weight:normal;font-size:33.6088px;line-height:1.25;font-family:sans-serif;fill:#4d4d4d;fill-opacity:1;stroke:url(#linearGradient10);stroke-width:2.64583;stroke-dasharray:none;paint-order:markers stroke fill"
       x="67.80056"
       y="103.59206"
       id="text6"><tspan
         sodipodi:role="line"
         style="font-style:normal;font-variant:normal;font-weight:normal;font-stretch:normal;font-size:33.6088px;font-family:AgitProp;-inkscape-font-specification:'AgitProp, Normal';font-variant-ligatures:normal;font-variant-caps:normal;font-variant-numeric:normal;font-variant-east-asian:normal;text-align:center;text-anchor:middle;fill:#4d4d4d;fill-opacity:1;stroke:url(#linearGradient10);stroke-width:2.64583;stroke-dasharray:none;stroke-opacity:1;paint-order:markers stroke fill"
         x="67.80056"
         y="103.59206"
         id="tspan6">PAPERS</tspan></text>
    <text
       xml:space="preserve"
       style="font-style:normal;font-weight:normal;font-size:33.6088px;line-height:1.25;font-family:sans-serif;fill:#f2f2f2;fill-opacity:1;stroke:none;stroke-width:0.264583"
       x="67.80056"
       y="102.00455"
       id="text4"><tspan
         sodipodi:role="line"
         style="font-style:normal;font-variant:normal;font-weight:normal;font-stretch:normal;font-size:33.6088px;font-family:AgitProp;-inkscape-font-specification:'AgitProp, Normal';font-variant-ligatures:normal;font-variant-caps:normal;font-variant-numeric:normal;font-variant-east-asian:normal;text-align:center;text-anchor:middle;fill:#f2f2f2;stroke-width:0.264583"
         x="67.80056"
         y="102.00455"
         id="tspan4">PAPERS</tspan></text>
    <path
       id="path71"
       style="color:#000000;display:inline;opacity:0.1;mix-blend-mode:lighten;fill:#a02c2c;stroke-linecap:round;stroke-linejoin:round;-inkscape-stroke:none;paint-order:markers stroke fill;filter:url(#filter82)"
       d="M 4.4421061,2.1166666 52.467598,52.723913 v 6.01617 h -7.9375 v 8.200016 l 2.465482,-2.465482 6.319511,-0.252698 c 0.15329,0.498269 0.325659,0.987148 0.513664,1.468127 l -0.216524,5.401738 -2.464966,2.464966 h 7.618656 c 3.785982,4.299935 8.042324,6.876582 8.967411,6.876582 0.925238,0 5.181471,-2.576607 8.967412,-6.876582 h 7.65638 l -2.465483,-2.464966 -0.219625,-5.485453 c 0.175402,-0.45433 0.335628,-0.916293 0.480074,-1.385962 l 6.356718,0.254248 2.464966,2.465482 v -8.200016 h -7.974707 v -6.01617 L 131.02456,2.1166666 H 91.761323 l -7.11016,8.7886104 v 7.967989 c 1.5e-4,2.209346 -1.790927,4.000424 -4.000273,4.000273 H 75.074486 V 16.950386 L 74.966999,16.889408 81.905594,9.9502969 79.307303,9.844877 75.00369,14.14849 c -0.627569,0.627567 -1.637929,0.627567 -2.265495,0 -0.627567,-0.627569 -0.628083,-1.638443 -5.17e-4,-2.266011 l 5.212085,-5.2115684 3.503145,0.1426269 -4.167704,-4.168221 C 76.580143,1.9402542 75.444684,1.940771 74.739623,2.6458333 l -6.306592,6.306075 h -0.699699 -3.024621 c -2.391129,0 -4.316532,1.9248877 -4.316532,4.3160157 v 9.605615 h -5.576404 c -2.209346,1.51e-4 -4.000423,-1.790927 -4.000273,-4.000273 V 10.905277 L 43.705342,2.1166666 Z M 56.003816,25.880591 c 0,0 2.241067,3.832324 5.864758,3.832324 3.623694,0 5.864758,-3.832324 5.864758,-3.832324 0,0 2.241066,3.832324 5.864759,3.832324 3.623692,0 5.864758,-3.832324 5.864758,-3.832324 v 16.763834 c 0,6.884922 -8.840742,12.119013 -11.729517,13.030212 C 64.84456,54.763438 56.003816,49.529347 56.003816,42.644425 Z m 19.201412,6.631636 -3.562057,0.164331 -5.608443,5.60896 -5.60896,5.608443 -0.164331,3.562056 3.562057,-0.164847 5.608443,-5.608443 5.60896,-5.60896 z" />
    <path
       id="path14"
       style="display:inline;opacity:0.2;mix-blend-mode:soft-light;fill:#483e37;stroke:none;stroke-width:0.264583;stroke-linecap:round;stroke-linejoin:round;paint-order:markers stroke fill;filter:url(#filter47)"
       d="m 10.645968,-106.9412 48.025487,50.607241 v 6.01617 h -7.937497 v 8.20002 l 2.46548,-2.46548 6.319507,-0.2527 c 0.15329,0.49827 0.32566,0.98715 0.51367,1.46813 l -0.21653,5.40173 -2.464957,2.46497 h 7.618647 c 3.78599,4.29994 8.04233,6.87658 8.96741,6.87658 0.92524,0 5.18148,-2.5766 8.96741,-6.87658 h 7.65638 l -2.46548,-2.46497 -0.21962,-5.48545 c 0.1754,-0.45433 0.33563,-0.91629 0.48007,-1.38596 l 6.35672,0.25425 2.46496,2.46548 v -8.20002 h -7.9747 v -6.01617 L 137.22842,-106.9412 H 97.965175 l -7.11016,8.788609 v 7.967992 c 1.5e-4,2.20933 -1.79092,4.00042 -4.00027,4.00027 h -5.5764 v -5.92315 l -0.10749,-0.06098 6.93859,-6.939114 -2.598291,-0.10542 -4.303609,4.303614 c -0.627571,0.627567 -1.637941,0.627567 -2.26549,0 -0.627571,-0.627568 -0.628091,-1.638444 -5.2e-4,-2.266011 l 5.212079,-5.21157 3.503151,0.14263 -4.16771,-4.16822 c -0.70505,-0.70506 -1.84052,-0.70455 -2.545581,5.1e-4 l -6.30659,6.30608 h -0.6997 -3.02462 c -2.39113,0 -4.31653,1.924889 -4.31653,4.316015 v 9.605616 h -5.5764 c -2.20935,1.49e-4 -4.000427,-1.79094 -4.000277,-4.00027 v -7.967992 l -7.11016,-8.788609 z m -69.673269,4.55631 v 13.890621 h 76.23514 L 4.8876584,-101.47642 c -0.21221,-0.28946 -0.4045395,-0.59298 -0.5756695,-0.90847 z m 202.692541,0 c -0.20473,0.31866 -0.432,0.62226 -0.68007,0.90847 L 130.665,-88.494269 h 76.23668 v -13.890621 z m -202.692541,18.520831 v 13.89063 h 93.811839 l -13.182649,-13.89063 z m 185.298251,0 -13.18164,13.89063 h 93.81237 v -13.89063 z m -64.063275,0.68678 c 0,0 2.24107,3.83232 5.86475,3.83232 3.62369,0 5.86476,-3.83232 5.86476,-3.83232 0,0 2.24107,3.83232 5.86476,3.83232 3.6237,0 5.86476,-3.83232 5.86476,-3.83232 v 16.76384 c 0,6.88491 -8.84074,12.11901 -11.72952,13.03021 -2.88876,-0.9112 -11.72951,-6.1453 -11.72951,-13.03021 z m 19.20141,6.63164 -3.56206,0.16433 -5.60844,5.60896 -5.60896,5.60844 -0.16433,3.56206 3.56205,-0.16485 5.60845,-5.60844 5.60896,-5.60896 z m -140.436386,11.20241 v 13.89063 h 98.646169 l 8.21397,-4.77129 -2.88458,-3.04012 -5.76967,-6.07922 z m 167.722571,0 -5.76968,6.07922 -2.88457,3.04012 8.21448,4.77129 h 98.64618 v -13.89063 z"
       clip-path="url(#clipPath48)"
       transform="translate(-6.203859,109.05787)" />
    <path
       id="text2"
       style="font-size:33.6088px;line-height:1.25;font-family:AgitProp;-inkscape-font-specification:'AgitProp, Normal';text-align:center;text-anchor:middle;fill:url(#linearGradient5);stroke:url(#linearGradient17);stroke-width:0.10583333;stroke-dasharray:none;paint-order:markers stroke fill;stroke-linecap:butt;stroke-linejoin:miter"
       d="m 2.498958,131.03452 c 1.64714,0 3.29427,0 4.94141,0 0,-1.73633 0,-3.47266 0,-5.20899 4.14453,0 8.28906,0 12.43359,0 0,-4.83984 0,-9.67969 0,-14.51953 -5.79167,0 -11.58333,0 -17.375,0 0,6.57617 0,13.15234 0,19.72852 z m 22.61914,0 c 5.79167,0 11.58333,0 17.375,0 0,-1.64649 0,-3.29297 0,-4.93946 -4.14518,0 -8.29036,0 -12.43555,0 0,-4.92968 0,-9.85937 0,-14.78906 -1.64648,0 -3.29297,0 -4.93945,0 0,6.57617 0,13.15234 0,19.72852 z m 22.61914,-12.32227 c 0.83137,0.81837 1.66287,1.63661 2.49414,2.45508 -0.83138,0.83138 -1.66276,1.66276 -2.49414,2.49414 0,2.45768 0,4.91536 0,7.37305 5.79167,0 11.58333,0 17.375,0 0,-1.64649 0,-3.29297 0,-4.93946 -4.29036,0 -8.58073,0 -12.87109,0 1.65523,-1.64099 3.30988,-3.28257 4.96484,-4.92383 -1.65496,-1.64125 -3.30961,-3.28284 -4.96484,-4.92382 4.29036,0 8.58073,0 12.87109,0 0,-1.64714 0,-3.29427 0,-4.94141 -5.79167,0 -11.58333,0 -17.375,0 0,2.46875 0,4.9375 0,7.40625 z m 22.61719,12.32227 c 1.64713,0 3.29427,0 4.9414,0 1e-5,-0.83985 1e-5,-1.67969 0,-2.51954 2.49805,0 4.996099,0 7.494149,0 0,0.83985 0,1.67969 0,2.51954 1.64713,0 3.29427,0 4.9414,0 0,-6.57618 0,-13.15235 0,-19.72852 -5.79232,0 -11.584629,0 -17.376949,0 0,6.57617 0,13.15234 0,19.72852 z m 22.585939,-14.14454 c 3.53905,3.06837 7.078163,6.13668 10.617183,9.20508 -3.53906,0 -7.078123,0 -10.617183,0 0,1.64649 0,3.29297 0,4.93946 5.79166,0 11.583333,0 17.375003,0 0,-1.86198 0,-3.72396 0,-5.58594 -3.52477,-3.06703 -7.04927,-6.13436 -10.574223,-9.20117 3.524743,0 7.049483,0 10.574223,0 0,-1.64714 0,-3.29427 0,-4.94141 -5.79167,0 -11.583343,0 -17.375003,0 0,1.86133 0,3.72266 0,5.58398 z m 22.652343,1.82227 c 0.83199,0.8184 1.66448,1.63629 2.49609,2.45508 -0.83315,0.82895 -1.66394,1.66027 -2.49609,2.49023 0,2.45899 0,4.91797 0,7.37696 5.79167,0 11.58333,0 17.375,0 0,-1.64649 0,-3.29297 0,-4.93946 -4.29036,0 -8.58073,0 -12.87109,0 1.65523,-1.64099 3.30988,-3.28257 4.96484,-4.92383 -1.65497,-1.64125 -3.30961,-3.28284 -4.96484,-4.92382 4.29036,0 8.58073,0 12.87109,0 0,-1.64714 0,-3.29427 0,-4.94141 -5.79167,0 -11.58333,0 -17.375,0 0,2.46875 0,4.9375 0,7.40625 z M 7.969658,116.24741 c 2.32162,0 4.64323,0 6.96485,0 0,1.54557 0,3.09114 0,4.63671 -2.49805,1e-5 -4.9961,0 -7.49414,0 0,-1.54557 0,-3.09114 0,-4.63671 0.17643,0 0.35286,0 0.52929,0 z m 67.85547,0 c 2.32162,0 4.643229,0 6.964849,0 0,2.38606 0,4.77213 0,7.1582 -2.49805,0 -4.996099,0 -7.494149,0 1e-5,-2.38607 0,-4.77214 0,-7.1582 0.17644,0 0.35287,0 0.5293,0 z" />
    <path
       id="text3"
       style="font-size:33.6088px;line-height:1.25;font-family:AgitProp;-inkscape-font-specification:'AgitProp, Normal';text-align:center;text-anchor:middle;fill:url(#linearGradient4);stroke:url(#linearGradient15);stroke-width:0.10583333;stroke-opacity:1;stroke-dasharray:none;paint-order:markers stroke fill;stroke-linejoin:miter"
       d="m 2.516538,100.91538 c 1.64648,0 3.29297,0 4.93945,0 0,-1.736333 0,-3.472663 0,-5.208983 4.14518,0 8.29037,0 12.43555,0 0,-4.83985 0,-9.67969 0,-14.51954 -5.79167,0 -11.58334,0 -17.375,0 0,6.57618 0,13.15235 0,19.728523 z m 22.61719,0 c 1.64713,0 3.29427,0 4.9414,0 0,-0.83984 0,-1.679693 0,-2.519533 2.49805,0 4.9961,0 7.49414,0 0,0.83984 0,1.679693 0,2.519533 1.64714,0 3.29427,0 4.94141,0 0,-6.576173 0,-13.152343 0,-19.728523 -5.79232,0 -11.58464,0 -17.37695,0 0,6.57618 0,13.15235 0,19.728523 z m 22.61914,0 c 1.64713,0 3.29427,0 4.9414,0 0,-1.736333 0,-3.472663 0,-5.208983 4.14518,0 8.29037,0 12.43555,0 0,-4.83985 0,-9.67969 0,-14.51954 -5.79232,0 -11.58464,0 -17.37695,0 0,6.57618 0,13.15235 0,19.728523 z m 22.61914,-12.322273 c 0.83212,0.81696 1.66306,1.63514 2.49609,2.45118 -0.83234,0.83237 -1.66403,1.66539 -2.49609,2.49804 0,2.45768 0,4.91537 0,7.373053 5.79166,0 11.583329,0 17.374999,0 0,-1.646483 0,-3.292973 0,-4.939453 -4.29037,0 -8.580729,0 -12.871099,0 1.65523,-1.641 3.30988,-3.28257 4.964849,-4.92383 -1.654969,-1.64126 -3.309609,-3.28284 -4.964849,-4.92383 4.29037,0 8.580729,0 12.871099,0 0,-1.64714 0,-3.29427 0,-4.94141 -5.79167,0 -11.583339,0 -17.374999,0 0,2.46875 0,4.9375 0,7.40625 z m 22.619139,12.322273 c 1.64648,0 3.29297,0 4.93945,0 0,-1.736333 0,-3.472663 0,-5.208983 1.8099,0 3.619793,0 5.429693,0 0.69047,0.68711 1.37918,1.37603 2.0664,2.0664 0,1.04753 0,2.09505 0,3.142583 1.64649,0 3.29297,0 4.93946,0 0,-1.740233 0,-3.480473 0,-5.220703 -0.83137,-0.81837 -1.66287,-1.63661 -2.49414,-2.45508 0.83138,-0.83138 1.66276,-1.66276 2.49414,-2.49414 0,-3.1862 0,-6.3724 0,-9.5586 -5.79167,0 -11.583343,0 -17.375003,0 0,6.57618 0,13.15235 0,19.728523 z M 115.57513,86.770847 c 3.53906,3.06836 7.07816,6.13667 10.61719,9.20508 -3.53906,0 -7.07813,0 -10.61719,0 0,1.64648 0,3.29297 0,4.939453 5.79232,0 11.58464,0 17.37696,0 -1e-5,-1.861983 0,-3.723963 0,-5.585943 -3.5254,-3.06705 -7.05076,-6.13415 -10.57618,-9.20117 3.52539,0 7.05078,0 10.57618,0 0,-1.64714 -1e-5,-3.29427 0,-4.94141 -5.79232,0 -11.58464,0 -17.37696,0 0,1.86133 0,3.72266 0,5.58399 z M 7.985288,86.128267 c 2.32161,0 4.64323,0 6.96484,0 0,1.54622 0,3.09245 0,4.63867 -2.49804,0 -4.99609,0 -7.49414,0 0,-1.54622 0,-3.09245 0,-4.63867 0.17643,0 0.35287,0 0.5293,0 z m 22.61914,0 c 2.32161,0 4.64323,0 6.96484,0 0,2.38607 0,4.77214 0,7.1582 -2.49804,0 -4.99609,0 -7.49414,0 0,-2.38606 0,-4.77213 0,-7.1582 0.17643,0 0.35287,0 0.5293,0 z m 22.61914,0 c 2.32161,0 4.64323,0 6.96484,0 0,1.54622 0,3.09245 0,4.63867 -2.49804,0 -4.99609,0 -7.49414,0 0,-1.54622 0,-3.09245 0,-4.63867 0.17643,0 0.35287,0 0.5293,0 z m 45.236329,0 c 2.324873,0 4.649743,0 6.974613,0 -0.10729,0.91106 0.19566,1.92655 -0.20002,2.76749 -0.73695,0.60101 -1.27219,1.58272 -2.19256,1.87118 -1.70378,0 -3.407553,0 -5.111333,0 0,-1.54622 0,-3.09245 0,-4.63867 0.17643,0 0.35287,0 0.5293,0 z" />
  </g>
  <g
     inkscape:groupmode="layer"
     id="layer2"
     inkscape:label="Layer 2"
     style="display:inline" />
</svg>
