<?xml version="1.0" encoding="UTF-8" standalone="no"?>
<!-- Created with Inkscape (http://www.inkscape.org/) -->

<svg
   width="512"
   height="512"
   viewBox="0 0 135.46666 135.46667"
   version="1.1"
   id="svg5"
   inkscape:version="1.4 (e7c3feb100, 2024-10-09)"
   xml:space="preserve"
   sodipodi:docname="scorchedearth.svg"
   xmlns:inkscape="http://www.inkscape.org/namespaces/inkscape"
   xmlns:sodipodi="http://sodipodi.sourceforge.net/DTD/sodipodi-0.dtd"
   xmlns="http://www.w3.org/2000/svg"
   xmlns:svg="http://www.w3.org/2000/svg"><sodipodi:namedview
     id="namedview7"
     pagecolor="#242424"
     bordercolor="#666666"
     borderopacity="1"
     inkscape:showpageshadow="0"
     inkscape:pageopacity="0"
     inkscape:pagecheckerboard="1"
     inkscape:deskcolor="#000000"
     inkscape:document-units="px"
     showgrid="false"
     inkscape:zoom="0.921875"
     inkscape:cx="184.40678"
     inkscape:cy="184.94915"
     inkscape:window-width="3256"
     inkscape:window-height="1080"
     inkscape:window-x="1864"
     inkscape:window-y="0"
     inkscape:window-maximized="0"
     inkscape:current-layer="layer1" /><defs
     id="defs2" /><g
     inkscape:label="Layer 1"
     inkscape:groupmode="layer"
     id="layer1"><path
       id="path108"
       style="fill:#00ff00;stroke-linecap:round;stroke-linejoin:round;stroke-miterlimit:1;paint-order:fill markers stroke"
       d="M 115.67563 0.52916666 L 115.67563 13.01781 L 128.16427 13.01781 L 128.16427 0.52916666 L 115.67563 0.52916666 z M 102.12917 14.076143 L 102.12917 26.56427 L 114.61729 26.56427 L 114.61729 14.076143 L 102.12917 14.076143 z M 102.12917 27.62312 L 102.12917 40.111246 L 114.61729 40.111246 L 114.61729 27.62312 L 102.12917 27.62312 z M 88.582189 41.170096 L 88.582189 53.658223 L 101.07032 53.658223 L 101.07032 41.170096 L 88.582189 41.170096 z M 75.035212 54.716556 L 75.035212 67.205199 L 87.523339 67.205199 L 87.523339 54.716556 L 75.035212 54.716556 z M 20.849373 68.261466 L 20.849373 80.750109 L 33.338016 80.750109 L 33.338016 68.261466 L 20.849373 68.261466 z M 34.39635 68.261466 L 34.39635 80.750109 L 46.884993 80.750109 L 46.884993 68.261466 L 34.39635 68.261466 z M 47.943326 68.261466 L 47.943326 80.750109 L 60.431453 80.750109 L 60.431453 68.261466 L 47.943326 68.261466 z M 61.488236 68.261466 L 61.488236 80.750109 L 67.732299 80.750109 L 73.976362 80.750109 L 73.976362 68.261466 L 61.488236 68.261466 z M 75.035212 68.261466 L 75.035212 80.750109 L 81.279276 80.750109 L 87.523339 80.750109 L 87.523339 68.261466 L 75.035212 68.261466 z M 88.582189 68.261466 L 88.582189 80.750109 L 101.07032 80.750109 L 101.07032 68.261466 L 88.582189 68.261466 z M 54.716556 81.808442 L 54.716556 94.297085 L 67.203132 94.297085 L 67.203132 81.808442 L 60.961136 81.808442 A 0.52921795 0.52921795 0 0 1 60.959069 81.808442 L 54.716556 81.808442 z M 68.261466 81.808442 L 68.261466 94.297085 L 80.750109 94.297085 L 80.750109 81.808442 L 74.506046 81.808442 L 68.261466 81.808442 z M 0.52916666 95.355419 L 0.52916666 107.84355 L 13.01781 107.84355 L 13.01781 95.355419 L 0.52916666 95.355419 z M 14.076143 95.355419 L 14.076143 107.84355 L 26.56427 107.84355 L 26.56427 95.355419 L 14.076143 95.355419 z M 27.62312 95.355419 L 27.62312 107.84355 L 40.111246 107.84355 L 40.111246 95.355419 L 27.62312 95.355419 z M 41.170096 95.355419 L 41.170096 107.84355 L 47.41416 107.84355 L 53.658223 107.84355 L 53.658223 95.355419 L 41.170096 95.355419 z M 54.716556 95.355419 L 54.716556 107.84355 L 67.203132 107.84355 L 67.203132 95.355419 L 54.716556 95.355419 z M 68.261466 95.355419 L 68.261466 107.84355 L 74.506046 107.84355 L 80.750109 107.84355 L 80.750109 95.355419 L 68.261466 95.355419 z M 81.808442 95.355419 L 81.808442 107.84355 L 94.297085 107.84355 L 94.297085 95.355419 L 81.808442 95.355419 z M 95.355419 95.355419 L 95.355419 107.84355 L 101.59948 107.84355 L 107.84355 107.84355 L 107.84355 95.355419 L 95.355419 95.355419 z M 108.9024 95.355419 L 108.9024 107.84355 L 121.39052 107.84355 L 121.39052 95.355419 L 108.9024 95.355419 z M 122.44937 95.355419 L 122.44937 107.84355 L 134.9375 107.84355 L 134.9375 95.355419 L 122.44937 95.355419 z M 0.52916666 108.9024 L 0.52916666 121.39052 L 13.01781 121.39052 L 13.01781 108.9024 L 0.52916666 108.9024 z M 34.39635 108.9024 L 34.39635 121.39052 L 40.640413 121.39052 L 46.884993 121.39052 L 46.884993 108.9024 L 40.640413 108.9024 L 34.39635 108.9024 z M 61.488236 108.9024 L 61.488236 121.39052 L 67.732299 121.39052 L 73.976362 121.39052 L 73.976362 108.9024 L 67.734366 108.9024 A 0.52921795 0.52921795 0 0 1 67.732299 108.9024 L 61.488236 108.9024 z M 88.582189 108.9024 L 88.582189 121.39052 L 94.826252 121.39052 L 101.07032 121.39052 L 101.07032 108.9024 L 94.826252 108.9024 L 88.582189 108.9024 z M 122.44937 108.9024 L 122.44937 121.39052 L 134.9375 121.39052 L 134.9375 108.9024 L 122.44937 108.9024 z M 14.076143 122.44937 L 14.076143 134.9375 L 26.56427 134.9375 L 26.56427 122.44937 L 14.076143 122.44937 z M 27.62312 122.44937 L 27.62312 134.9375 L 40.111246 134.9375 L 40.111246 122.44937 L 27.62312 122.44937 z M 41.170096 122.44937 L 41.170096 134.9375 L 53.658223 134.9375 L 53.658223 122.44937 L 47.41416 122.44937 L 41.170096 122.44937 z M 54.716556 122.44937 L 54.716556 134.9375 L 67.203132 134.9375 L 67.203132 122.44937 L 54.716556 122.44937 z M 68.261466 122.44937 L 68.261466 134.9375 L 80.750109 134.9375 L 80.750109 122.44937 L 74.506046 122.44937 L 68.261466 122.44937 z M 81.808442 122.44937 L 81.808442 134.9375 L 94.297085 134.9375 L 94.297085 122.44937 L 81.808442 122.44937 z M 95.355419 122.44937 L 95.355419 134.9375 L 107.84355 134.9375 L 107.84355 122.44937 L 101.59948 122.44937 L 95.355419 122.44937 z M 108.9024 122.44937 L 108.9024 134.9375 L 121.39052 134.9375 L 121.39052 122.44937 L 108.9024 122.44937 z " /></g><g
     inkscape:groupmode="layer"
     id="layer2"
     inkscape:label="le-tank"
     style="display:none"
     sodipodi:insensitive="true"><rect
       style="fill:#00ff00;stroke:#000000;stroke-width:1.05833;stroke-linecap:round;stroke-linejoin:round;stroke-miterlimit:1;stroke-opacity:1;paint-order:fill markers stroke"
       id="rect73"
       width="13.546477"
       height="13.546477"
       x="20.320026"
       y="67.733345" /><rect
       style="fill:#00ff00;stroke:#000000;stroke-width:1.05833;stroke-linecap:round;stroke-linejoin:round;stroke-miterlimit:1;stroke-opacity:1;paint-order:fill markers stroke"
       id="rect74"
       width="13.546477"
       height="13.546477"
       x="33.866718"
       y="67.733345" /><rect
       style="fill:#00ff00;stroke:#000000;stroke-width:1.05833;stroke-linecap:round;stroke-linejoin:round;stroke-miterlimit:1;stroke-opacity:1;paint-order:fill markers stroke"
       id="rect75"
       width="13.546477"
       height="13.546477"
       x="47.413403"
       y="67.733345" /><rect
       style="fill:#00ff00;stroke:#000000;stroke-width:1.05833;stroke-linecap:round;stroke-linejoin:round;stroke-miterlimit:1;stroke-opacity:1;paint-order:fill markers stroke"
       id="rect76"
       width="13.546477"
       height="13.546477"
       x="60.960091"
       y="67.733345" /><rect
       style="fill:#00ff00;stroke:#000000;stroke-width:1.05833;stroke-linecap:round;stroke-linejoin:round;stroke-miterlimit:1;stroke-opacity:1;paint-order:fill markers stroke"
       id="rect77"
       width="13.546477"
       height="13.546477"
       x="74.506775"
       y="67.733345" /><rect
       style="fill:#00ff00;stroke:#000000;stroke-width:1.05833;stroke-linecap:round;stroke-linejoin:round;stroke-miterlimit:1;stroke-opacity:1;paint-order:fill markers stroke"
       id="rect78"
       width="13.546477"
       height="13.546477"
       x="88.053459"
       y="67.733345" /><rect
       style="fill:#00ff00;stroke:#000000;stroke-width:1.05833;stroke-linecap:round;stroke-linejoin:round;stroke-miterlimit:1;stroke-opacity:1;paint-order:fill markers stroke"
       id="rect79"
       width="13.546477"
       height="13.546477"
       x="54.186745"
       y="81.279823" /><rect
       style="fill:#00ff00;stroke:#000000;stroke-width:1.05833;stroke-linecap:round;stroke-linejoin:round;stroke-miterlimit:1;stroke-opacity:1;paint-order:fill markers stroke"
       id="rect80"
       width="13.546477"
       height="13.546477"
       x="67.733437"
       y="81.279823" /><rect
       style="fill:#00ff00;stroke:#000000;stroke-width:1.05833;stroke-linecap:round;stroke-linejoin:round;stroke-miterlimit:1;stroke-opacity:1;paint-order:fill markers stroke"
       id="rect81"
       width="13.546477"
       height="13.546477"
       x="40.64006"
       y="94.826317" /><rect
       style="fill:#00ff00;stroke:#000000;stroke-width:1.05833;stroke-linecap:round;stroke-linejoin:round;stroke-miterlimit:1;stroke-opacity:1;paint-order:fill markers stroke"
       id="rect82"
       width="13.546477"
       height="13.546477"
       x="27.09337"
       y="94.826317" /><rect
       style="fill:#00ff00;stroke:#000000;stroke-width:1.05833;stroke-linecap:round;stroke-linejoin:round;stroke-miterlimit:1;stroke-opacity:1;paint-order:fill markers stroke"
       id="rect83"
       width="13.546477"
       height="13.546477"
       x="13.546687"
       y="94.826317" /><rect
       style="fill:#00ff00;stroke:#000000;stroke-width:1.05833;stroke-linecap:round;stroke-linejoin:round;stroke-miterlimit:1;stroke-opacity:1;paint-order:fill markers stroke"
       id="rect84"
       width="13.546477"
       height="13.546477"
       x="-4.7145346e-07"
       y="94.826317" /><rect
       style="fill:#00ff00;stroke:#000000;stroke-width:1.05833;stroke-linecap:round;stroke-linejoin:round;stroke-miterlimit:1;stroke-opacity:1;paint-order:fill markers stroke"
       id="rect85"
       width="13.546477"
       height="13.546477"
       x="54.186745"
       y="94.826317" /><rect
       style="fill:#00ff00;stroke:#000000;stroke-width:1.05833;stroke-linecap:round;stroke-linejoin:round;stroke-miterlimit:1;stroke-opacity:1;paint-order:fill markers stroke"
       id="rect86"
       width="13.546477"
       height="13.546477"
       x="67.733437"
       y="94.826317" /><rect
       style="fill:#00ff00;stroke:#000000;stroke-width:1.05833;stroke-linecap:round;stroke-linejoin:round;stroke-miterlimit:1;stroke-opacity:1;paint-order:fill markers stroke"
       id="rect87"
       width="13.546477"
       height="13.546477"
       x="81.280121"
       y="94.826317" /><rect
       style="fill:#00ff00;stroke:#000000;stroke-width:1.05833;stroke-linecap:round;stroke-linejoin:round;stroke-miterlimit:1;stroke-opacity:1;paint-order:fill markers stroke"
       id="rect88"
       width="13.546477"
       height="13.546477"
       x="94.826805"
       y="94.826317" /><rect
       style="fill:#00ff00;stroke:#000000;stroke-width:1.05833;stroke-linecap:round;stroke-linejoin:round;stroke-miterlimit:1;stroke-opacity:1;paint-order:fill markers stroke"
       id="rect89"
       width="13.546477"
       height="13.546477"
       x="108.37349"
       y="94.826317" /><rect
       style="fill:#00ff00;stroke:#000000;stroke-width:1.05833;stroke-linecap:round;stroke-linejoin:round;stroke-miterlimit:1;stroke-opacity:1;paint-order:fill markers stroke"
       id="rect90"
       width="13.546477"
       height="13.546477"
       x="121.92018"
       y="94.826317" /><rect
       style="fill:#00ff00;stroke:#000000;stroke-width:1.05833;stroke-linecap:round;stroke-linejoin:round;stroke-miterlimit:1;stroke-opacity:1;paint-order:fill markers stroke"
       id="rect91"
       width="13.546477"
       height="13.546477"
       x="74.506775"
       y="54.186848" /><rect
       style="fill:#00ff00;stroke:#000000;stroke-width:1.05833;stroke-linecap:round;stroke-linejoin:round;stroke-miterlimit:1;stroke-opacity:1;paint-order:fill markers stroke"
       id="rect92"
       width="13.546477"
       height="13.546477"
       x="88.053459"
       y="40.640354" /><rect
       style="fill:#00ff00;stroke:#000000;stroke-width:1.05833;stroke-linecap:round;stroke-linejoin:round;stroke-miterlimit:1;stroke-opacity:1;paint-order:fill markers stroke"
       id="rect93"
       width="13.546477"
       height="13.546477"
       x="101.60015"
       y="27.093866" /><rect
       style="fill:#00ff00;stroke:#000000;stroke-width:1.05833;stroke-linecap:round;stroke-linejoin:round;stroke-miterlimit:1;stroke-opacity:1;paint-order:fill markers stroke"
       id="rect94"
       width="13.546477"
       height="13.546477"
       x="101.60015"
       y="13.547372" /><rect
       style="fill:#00ff00;stroke:#000000;stroke-width:1.05833;stroke-linecap:round;stroke-linejoin:round;stroke-miterlimit:1;stroke-opacity:1;paint-order:fill markers stroke"
       id="rect95"
       width="13.546477"
       height="13.546477"
       x="115.14684"
       y="0.00088288105" /><rect
       style="fill:#00ff00;stroke:#000000;stroke-width:1.05833;stroke-linecap:round;stroke-linejoin:round;stroke-miterlimit:1;stroke-opacity:1;paint-order:fill markers stroke"
       id="rect96"
       width="13.546477"
       height="13.546477"
       x="121.92018"
       y="108.3728" /><rect
       style="fill:#00ff00;stroke:#000000;stroke-width:1.05833;stroke-linecap:round;stroke-linejoin:round;stroke-miterlimit:1;stroke-opacity:1;paint-order:fill markers stroke"
       id="rect97"
       width="13.546477"
       height="13.546477"
       x="108.37349"
       y="121.9193" /><rect
       style="fill:#00ff00;stroke:#000000;stroke-width:1.05833;stroke-linecap:round;stroke-linejoin:round;stroke-miterlimit:1;stroke-opacity:1;paint-order:fill markers stroke"
       id="rect98"
       width="13.546477"
       height="13.546477"
       x="94.826805"
       y="121.9193" /><rect
       style="fill:#00ff00;stroke:#000000;stroke-width:1.05833;stroke-linecap:round;stroke-linejoin:round;stroke-miterlimit:1;stroke-opacity:1;paint-order:fill markers stroke"
       id="rect99"
       width="13.546477"
       height="13.546477"
       x="81.280121"
       y="121.9193" /><rect
       style="fill:#00ff00;stroke:#000000;stroke-width:1.05833;stroke-linecap:round;stroke-linejoin:round;stroke-miterlimit:1;stroke-opacity:1;paint-order:fill markers stroke"
       id="rect100"
       width="13.546477"
       height="13.546477"
       x="67.733437"
       y="121.9193" /><rect
       style="fill:#00ff00;stroke:#000000;stroke-width:1.05833;stroke-linecap:round;stroke-linejoin:round;stroke-miterlimit:1;stroke-opacity:1;paint-order:fill markers stroke"
       id="rect101"
       width="13.546477"
       height="13.546477"
       x="54.186745"
       y="121.9193" /><rect
       style="fill:#00ff00;stroke:#000000;stroke-width:1.05833;stroke-linecap:round;stroke-linejoin:round;stroke-miterlimit:1;stroke-opacity:1;paint-order:fill markers stroke"
       id="rect102"
       width="13.546477"
       height="13.546477"
       x="40.64006"
       y="121.9193" /><rect
       style="fill:#00ff00;stroke:#000000;stroke-width:1.05833;stroke-linecap:round;stroke-linejoin:round;stroke-miterlimit:1;stroke-opacity:1;paint-order:fill markers stroke"
       id="rect103"
       width="13.546477"
       height="13.546477"
       x="27.09337"
       y="121.9193" /><rect
       style="fill:#00ff00;stroke:#000000;stroke-width:1.05833;stroke-linecap:round;stroke-linejoin:round;stroke-miterlimit:1;stroke-opacity:1;paint-order:fill markers stroke"
       id="rect104"
       width="13.546477"
       height="13.546477"
       x="13.546687"
       y="121.9193" /><rect
       style="fill:#00ff00;stroke:#000000;stroke-width:1.05833;stroke-linecap:round;stroke-linejoin:round;stroke-miterlimit:1;stroke-opacity:1;paint-order:fill markers stroke"
       id="rect105"
       width="13.546477"
       height="13.546477"
       x="-4.7145346e-07"
       y="108.3728" /><rect
       style="fill:#00ff00;stroke:#000000;stroke-width:1.05833;stroke-linecap:round;stroke-linejoin:round;stroke-miterlimit:1;stroke-opacity:1;paint-order:fill markers stroke"
       id="rect106"
       width="13.546477"
       height="13.546477"
       x="33.866718"
       y="108.3728" /><rect
       style="fill:#00ff00;stroke:#000000;stroke-width:1.05833;stroke-linecap:round;stroke-linejoin:round;stroke-miterlimit:1;stroke-opacity:1;paint-order:fill markers stroke"
       id="rect107"
       width="13.546477"
       height="13.546477"
       x="60.960091"
       y="108.3728" /><rect
       style="fill:#00ff00;stroke:#000000;stroke-width:1.05833;stroke-linecap:round;stroke-linejoin:round;stroke-miterlimit:1;stroke-opacity:1;paint-order:fill markers stroke"
       id="rect108"
       width="13.546477"
       height="13.546477"
       x="88.053459"
       y="108.3728" /></g></svg>
