<?xml version="1.0" encoding="UTF-8" standalone="no"?>
<!-- Created with Inkscape (http://www.inkscape.org/) -->

<svg
   width="512"
   height="512"
   viewBox="0 0 135.46666 135.46667"
   version="1.1"
   id="svg5"
   inkscape:version="1.2.1 (9c6d41e410, 2022-07-14, custom)"
   sodipodi:docname="emblem-default.svg"
   xmlns:inkscape="http://www.inkscape.org/namespaces/inkscape"
   xmlns:sodipodi="http://sodipodi.sourceforge.net/DTD/sodipodi-0.dtd"
   xmlns:xlink="http://www.w3.org/1999/xlink"
   xmlns="http://www.w3.org/2000/svg"
   xmlns:svg="http://www.w3.org/2000/svg"
   xmlns:rdf="http://www.w3.org/1999/02/22-rdf-syntax-ns#"
   xmlns:cc="http://creativecommons.org/ns#"
   xmlns:dc="http://purl.org/dc/elements/1.1/">>
  <sodipodi:namedview
     id="namedview7"
     pagecolor="#505050"
     bordercolor="#ffffff"
     borderopacity="1"
     inkscape:showpageshadow="0"
     inkscape:pageopacity="0"
     inkscape:pagecheckerboard="1"
     inkscape:deskcolor="#505050"
     inkscape:document-units="px"
     showgrid="false"
     inkscape:zoom="0.56071358"
     inkscape:cx="365.60556"
     inkscape:cy="420.89225"
     inkscape:window-width="3252"
     inkscape:window-height="1076"
     inkscape:window-x="1864"
     inkscape:window-y="0"
     inkscape:window-maximized="0"
     inkscape:current-layer="layer1" />
  <defs
     id="defs2">
    <linearGradient
       inkscape:collect="always"
       id="linearGradient1341">
      <stop
         style="stop-color:#00ff00;stop-opacity:1;"
         offset="0"
         id="stop1339" />
      <stop
         style="stop-color:#008000;stop-opacity:1;"
         offset="1"
         id="stop1337" />
    </linearGradient>
    <radialGradient
       inkscape:collect="always"
       xlink:href="#linearGradient1341"
       id="radialGradient1343"
       cx="67.73333"
       cy="67.73333"
       fx="67.73333"
       fy="67.73333"
       r="67.73333"
       gradientUnits="userSpaceOnUse" />
    <clipPath
       clipPathUnits="userSpaceOnUse"
       id="clipPath11127">
      <path
         id="path11129"
         style="color:#000000;display:inline;fill:#550000;stroke-width:1;stroke-linecap:round;stroke-linejoin:round;paint-order:stroke fill markers"
         d="m -26.847456,30.535086 c -1.960022,0 -3.919807,0.738087 -5.392954,2.211234 l -46.177541,46.177546 -19.341973,-19.34197 c -2.946276,-2.9463 -7.838936,-2.94594 -10.784866,0 -2.94595,2.945939 -2.94831,7.839091 -0.002,10.785379 l 24.736476,24.736481 c 0.183684,0.183679 0.374912,0.356671 0.574124,0.51935 0.202092,0.165029 0.408364,0.317201 0.617019,0.455269 0.212334,0.140502 0.430758,0.26779 0.652156,0.384471 0.220475,0.116189 0.446418,0.222031 0.677995,0.316259 0.230939,0.094 0.465322,0.17639 0.701249,0.246502 0.231473,0.0688 0.469995,0.12813 0.714684,0.175699 0.248664,0.0483 0.489815,0.0808 0.724503,0.103349 0.237816,0.02289 0.481693,0.0351 0.730706,0.0351 0.242469,0 0.485986,-0.01159 0.730189,-0.0351 0.241085,-0.0232 0.483309,-0.0564 0.725019,-0.103349 0.242401,-0.0471 0.479888,-0.105939 0.714684,-0.175699 0.239274,-0.0711 0.474523,-0.154252 0.701249,-0.246502 0.224161,-0.0912 0.449781,-0.19626 0.677479,-0.316259 0.221462,-0.116721 0.440383,-0.244001 0.652674,-0.384471 0.215488,-0.142589 0.419238,-0.29545 0.61495,-0.455269 0.199912,-0.16325 0.392518,-0.33774 0.576191,-0.521419 l 51.570612,-51.570495 c 2.945929,-2.945937 2.948321,-7.838578 0.0021,-10.784872 -1.473144,-1.473147 -3.434482,-2.211234 -5.394505,-2.211234 z" />
    </clipPath>
    <filter
       inkscape:collect="always"
       style="color-interpolation-filters:sRGB"
       id="filter11131"
       x="-0.013358637"
       y="-0.024460157"
       width="1.0267173"
       height="1.0489203">
      <feGaussianBlur
         inkscape:collect="always"
         stdDeviation="0.50934484"
         id="feGaussianBlur11133" />
    </filter>
    <filter
       inkscape:collect="always"
       style="color-interpolation-filters:sRGB"
       id="filter12762"
       x="-0.40951503"
       y="-1.0652116"
       width="1.8190301"
       height="3.1304232">
      <feGaussianBlur
         inkscape:collect="always"
         stdDeviation="11.618486"
         id="feGaussianBlur12764" />
    </filter>
    <clipPath
       clipPathUnits="userSpaceOnUse"
       id="clipPath13494">
      <circle
         style="fill:url(#radialGradient13498);fill-opacity:1;stroke-width:11.9173;stroke-linecap:round;stroke-linejoin:round;paint-order:stroke fill markers"
         id="circle13496"
         cx="-167.54488"
         cy="103.2493"
         r="118.70544"
         transform="rotate(15)" />
    </clipPath>
    <radialGradient
       inkscape:collect="always"
       xlink:href="#linearGradient1341"
       id="radialGradient13498"
       gradientUnits="userSpaceOnUse"
       gradientTransform="matrix(1.7525411,0,0,1.7525411,-286.25033,-15.456146)"
       cx="67.73333"
       cy="67.73333"
       fx="67.73333"
       fy="67.73333"
       r="67.73333" />
    <clipPath
       clipPathUnits="userSpaceOnUse"
       id="clipPath16543">
      <circle
         style="fill:#ffcc00;fill-opacity:1;stroke-width:6.8;stroke-linecap:round;stroke-linejoin:round;paint-order:stroke fill markers"
         id="circle16545"
         cx="308.13055"
         cy="141.08907"
         r="67.73333" />
    </clipPath>
    <filter
       inkscape:collect="always"
       style="color-interpolation-filters:sRGB"
       id="filter16547"
       x="-0.041009582"
       y="-0.057863261"
       width="1.0820192"
       height="1.1157265">
      <feGaussianBlur
         inkscape:collect="always"
         stdDeviation="2.2913898"
         id="feGaussianBlur16549" />
    </filter>
  </defs>
  <g
     inkscape:label="Layer 1"
     inkscape:groupmode="layer"
     id="layer1">
    <circle
       style="fill:url(#radialGradient1343);stroke-width:6.8;stroke-linecap:round;stroke-linejoin:round;paint-order:stroke fill markers;fill-opacity:1"
       id="path792"
       cx="67.73333"
       cy="67.73333"
       r="67.73333" />
    <path
       id="path792-3"
       style="fill:#44aa00;fill-opacity:1;stroke-width:6.8;stroke-linecap:round;stroke-linejoin:round;paint-order:stroke fill markers;filter:url(#filter16547);opacity:1"
       d="m 370.1128,113.7822 a 67.73333,67.73333 0 0 1 1.33636,13.36559 67.73333,67.73333 0 0 1 -67.73334,67.73334 67.73333,67.73333 0 0 1 -61.95074,-40.46627 67.73333,67.73333 0 0 0 66.36546,54.40753 67.73333,67.73333 0 0 0 67.73333,-67.73333 67.73333,67.73333 0 0 0 -5.75107,-27.30686 z"
       clip-path="url(#clipPath16543)"
       transform="translate(-240.39721,-73.35573)" />
    <path
       style="color:#000000;display:inline;mix-blend-mode:soft-light;fill:#000000;stroke-linecap:round;stroke-linejoin:round;paint-order:stroke fill markers"
       d="m 105.88666,33.816777 c -1.96002,0 -3.92138,0.735834 -5.39453,2.208985 L 54.314374,82.203501 34.972573,62.861699 c -2.9463,-2.946289 -7.83921,-2.945936 -10.78516,0 -2.94593,2.945941 -2.9463,7.840814 0,10.787109 l 24.73438,24.73437 c 0.18337,0.18337 0.37543,0.35714 0.574221,0.51953 0.20209,0.165048 0.40855,0.317028 0.61718,0.455078 0.21223,0.140427 0.43089,0.268047 0.65235,0.384767 0.22045,0.11618 0.44614,0.22217 0.67773,0.316407 0.23092,0.094 0.46524,0.17599 0.70117,0.2461 0.23145,0.0688 0.47019,0.12822 0.71485,0.17578 0.24802,0.0482 0.49052,0.081 0.72461,0.10351 0.23781,0.0229 0.48145,0.0352 0.73047,0.0352 0.24246,0 0.48627,-0.01 0.73046,-0.0332 0.24109,-0.0232 0.48286,-0.0585 0.72461,-0.10546 0.24241,-0.0471 0.48204,-0.10604 0.7168,-0.17579 0.23926,-0.0711 0.4725,-0.15384 0.69922,-0.24609 0.2242,-0.0912 0.45204,-0.196437 0.67969,-0.316417 0.22147,-0.11671 0.43808,-0.24428 0.65039,-0.384757 0.21556,-0.14263 0.4215,-0.29528 0.61718,-0.455078 0.19993,-0.16325 0.39057,-0.33587 0.57422,-0.51953 L 111.27924,46.810925 c 2.94593,-2.945941 2.94631,-7.838861 0,-10.785156 -1.47314,-1.473151 -3.43255,-2.208985 -5.39258,-2.208985 z m 0,6.744141 c 0.20109,0 0.40129,0.09073 0.58399,0.273437 0.36541,0.365412 0.36576,0.804156 0,1.169922 L 54.900304,93.574591 c -0.0233,0.0233 -0.0465,0.0427 -0.0684,0.0606 a 3.4003401,3.4003401 0 0 0 0,0.002 c -0.0261,0.0213 -0.0493,0.0362 -0.0684,0.0488 -0.0223,0.0148 -0.0463,0.0284 -0.0703,0.041 -0.0178,0.009 -0.0402,0.0209 -0.0703,0.0332 -0.0276,0.0112 -0.0522,0.0208 -0.0742,0.0273 -0.0265,0.008 -0.0524,0.013 -0.0762,0.0176 -0.0244,0.005 -0.0501,0.009 -0.0781,0.0117 a 3.4003401,3.4003401 0 0 0 -0.002,0 c -0.025,0.002 -0.0505,0.004 -0.0781,0.004 -0.0211,0 -0.0468,-8.9e-4 -0.0781,-0.004 -0.0345,-0.003 -0.0626,-0.008 -0.0801,-0.0117 -0.0215,-0.004 -0.0444,-0.009 -0.0742,-0.0176 -0.0253,-0.007 -0.0508,-0.0178 -0.0742,-0.0273 -0.0228,-0.009 -0.0473,-0.02 -0.0723,-0.0332 -0.024,-0.0126 -0.046,-0.0262 -0.0684,-0.041 -0.026,-0.0172 -0.0487,-0.0327 -0.0684,-0.0488 -0.0226,-0.0185 -0.0451,-0.0392 -0.0684,-0.0625 L 28.996013,68.840215 c -0.36542,-0.365412 -0.36577,-0.804156 0,-1.169922 0.36577,-0.365773 0.8045,-0.36542 1.16992,0 l 21.744141,21.746098 a 3.4003401,3.4003401 0 0 0 4.80859,0 L 105.30073,40.834355 c 0.1827,-0.182702 0.38485,-0.273437 0.58593,-0.273437 z"
       id="path3702-7" />
    <path
       style="color:#000000;display:inline;mix-blend-mode:soft-light;fill:#ffffff;stroke-linecap:round;stroke-linejoin:round;-inkscape-stroke:none;paint-order:stroke fill markers"
       d="m 105.88652,34.87513 c -1.96003,0 -3.92139,0.735834 -5.39454,2.208985 L 54.314254,83.261849 34.972454,63.920052 c -2.9463,-2.946289 -7.83921,-2.945936 -10.78516,0 -2.94593,2.945941 -2.9463,7.840814 0,10.78711 l 24.73438,24.734374 c 0.18337,0.183371 0.37543,0.357139 0.57422,0.519532 0.20209,0.165042 0.40855,0.317022 0.61718,0.455082 0.21223,0.14042 0.43089,0.26805 0.65235,0.38476 0.22045,0.11619 0.44614,0.22218 0.67773,0.31641 0.23092,0.094 0.46524,0.17599 0.70117,0.24609 0.23145,0.0688 0.47019,0.12823 0.71485,0.17579 0.24802,0.0482 0.49052,0.081 0.72461,0.10351 0.23781,0.0229 0.48145,0.0352 0.73047,0.0352 0.24246,0 0.48627,-0.01 0.73046,-0.0332 0.24109,-0.0232 0.48286,-0.0585 0.72461,-0.10547 0.24241,-0.0471 0.48204,-0.10603 0.7168,-0.17578 0.23926,-0.0711 0.4725,-0.15385 0.69922,-0.24609 0.2242,-0.0912 0.45204,-0.19643 0.67969,-0.31641 0.22147,-0.11671 0.43808,-0.24428 0.65039,-0.38477 0.21556,-0.14263 0.4215,-0.29527 0.61718,-0.455075 0.19993,-0.163256 0.39057,-0.335871 0.57422,-0.519532 L 111.27909,47.869278 c 2.94594,-2.945941 2.94631,-7.838861 0,-10.785156 -1.47314,-1.473151 -3.43255,-2.208985 -5.39257,-2.208985 z m 0,6.744141 c 0.20108,0 0.40128,0.09073 0.58398,0.273437 0.36541,0.365412 0.36576,0.804156 0,1.169922 L 54.900184,94.632943 c -0.0233,0.02332 -0.0465,0.0427 -0.0684,0.06055 a 3.4003401,3.4003401 0 0 0 0,0.002 c -0.0261,0.02131 -0.0493,0.03622 -0.0684,0.04883 -0.0223,0.01475 -0.0463,0.02837 -0.0703,0.04102 -0.0178,0.0094 -0.0402,0.02094 -0.0703,0.0332 -0.0276,0.01123 -0.0522,0.02081 -0.0742,0.02734 -0.0265,0.0079 -0.0524,0.01296 -0.0762,0.01758 -0.0244,0.0047 -0.0501,0.009 -0.0781,0.01172 a 3.4003401,3.4003401 0 0 0 -0.002,0 c -0.025,0.0024 -0.0505,0.0039 -0.0781,0.0039 -0.0211,0 -0.0468,-8.93e-4 -0.0781,-0.0039 -0.0345,-0.0033 -0.0626,-0.0083 -0.0801,-0.01172 -0.0215,-0.0042 -0.0444,-0.0087 -0.0742,-0.01758 -0.0253,-0.0075 -0.0508,-0.01781 -0.0742,-0.02734 -0.0228,-0.0093 -0.0473,-0.02003 -0.0723,-0.0332 -0.024,-0.01265 -0.046,-0.0262 -0.0684,-0.04102 -0.026,-0.01718 -0.0487,-0.03275 -0.0684,-0.04883 -0.0226,-0.01845 -0.0451,-0.03923 -0.0684,-0.0625 L 28.995894,69.898568 c -0.36542,-0.365412 -0.36577,-0.804156 0,-1.169922 0.36577,-0.365773 0.8045,-0.36542 1.16992,0 l 21.74414,21.746094 a 3.4003401,3.4003401 0 0 0 4.80859,0 L 105.30058,41.892708 c 0.1827,-0.182702 0.38486,-0.273437 0.58594,-0.273437 z"
       id="path3702" />
    <path
       id="rect1408"
       style="display:inline;fill:#ffffff;stroke:#ffffff;stroke-width:6.8;stroke-linecap:round;stroke-linejoin:round;stroke-opacity:1;paint-order:stroke fill markers"
       d="m 26.59191,65.795328 c -1.655855,1.655855 -1.65622,4.321847 -3.65e-4,5.977702 l 24.734803,24.734803 c 0.103491,0.10349 0.210668,0.20031 0.321559,0.290864 0.11089,0.09056 0.225449,0.174514 0.342751,0.252132 0.117304,0.07762 0.237563,0.148716 0.360293,0.213398 0.122728,0.06468 0.247739,0.122919 0.374908,0.174665 0.127168,0.05174 0.25671,0.09712 0.387331,0.135931 0.130623,0.03881 0.262283,0.07133 0.395371,0.0972 0.133088,0.02587 0.267381,0.0448 0.401949,0.05773 0.134568,0.01294 0.26981,0.01973 0.404872,0.01973 0.135061,0 0.269938,-0.0064 0.404506,-0.01937 0.134568,-0.01294 0.268494,-0.03223 0.401583,-0.0581 0.133088,-0.02587 0.265479,-0.05839 0.396101,-0.0972 0.130622,-0.03881 0.259432,-0.08419 0.386601,-0.135931 0.127169,-0.05175 0.252545,-0.109618 0.375274,-0.1743 0.122729,-0.06468 0.242989,-0.13578 0.360291,-0.213398 0.117304,-0.07762 0.231497,-0.161942 0.342387,-0.252497 0.110891,-0.09055 0.218434,-0.187738 0.321925,-0.291229 l 51.5707,-51.570689 c 1.65585,-1.655855 1.65622,-4.321847 3.6e-4,-5.977702 -1.65585,-1.655855 -4.32221,-1.655855 -5.97806,0 L 54.315382,87.540731 32.569613,65.794963 c -1.655855,-1.655856 -4.321847,-1.655491 -5.977703,3.65e-4 z" />
    <path
       id="path9623"
       style="color:#000000;mix-blend-mode:normal;fill:#000000;stroke-linecap:round;stroke-linejoin:round;paint-order:stroke fill markers;filter:url(#filter11131);opacity:0.44425567"
       d="m -26.847457,30.535087 c -1.960019,0 -3.919808,0.738087 -5.392952,2.211234 L -78.417952,78.923864 -97.759923,59.581892 c -2.946287,-2.946295 -7.838947,-2.94593 -10.784867,0 -1.67223,1.672221 -2.39447,3.971875 -2.16886,6.186703 0.17266,-1.687207 0.89499,-3.325335 2.16886,-4.599203 2.94593,-2.94593 7.83858,-2.946295 10.784867,0 l 19.341971,19.341972 46.177543,-46.177543 c 1.473144,-1.473147 3.432933,-2.211234 5.392952,-2.211234 1.96002,0 3.921361,0.738087 5.394503,2.211234 1.27373,1.273761 1.994883,2.911415 2.166793,4.598169 0.226644,-2.214471 -0.494545,-4.5134 -2.166793,-6.185669 -1.473142,-1.473147 -3.434483,-2.211234 -5.394503,-2.211234 z"
       clip-path="url(#clipPath11127)"
       transform="translate(132.7325,3.279807)" />
    <ellipse
       style="opacity:1;mix-blend-mode:normal;fill:#8dd35f;stroke:none;stroke-width:6.8;stroke-linecap:round;stroke-linejoin:round;stroke-opacity:1;paint-order:stroke fill markers;filter:url(#filter12762)"
       id="path12708"
       cx="-185.21994"
       cy="-39.483334"
       rx="34.045597"
       ry="13.088652"
       transform="matrix(0.5511573,-0.14768215,0.14768215,0.5511573,163.33381,8.8323422)"
       clip-path="url(#clipPath13494)" />
  </g>
  <metadata
     id="metadata1">
    <rdf:RDF>
      <cc:Work
         rdf:about="">
        <dc:creator>
          <cc:Agent>
            <dc:title>Jess Tipton</dc:title>
          </cc:Agent>
        </dc:creator>
        <dc:publisher>
          <cc:Agent>
            <dc:title>m0dw3rks.com</dc:title>
          </cc:Agent>
        </dc:publisher>
        <cc:license
           rdf:resource="https://creativecommons.org/licenses/by-nc-nd/4.0/deed.en" />
      </cc:Work>
    </rdf:RDF>
  </metadata>
  <metadata
     id="metadata6">
    <rdf:RDF>
      <cc:Work
         rdf:about="">
        <dc:creator>
          <cc:Agent>
            <dc:title>Jess Tipton</dc:title>
          </cc:Agent>
        </dc:creator>
        <cc:license
           rdf:resource="https://creativecommons.org/licenses/by-nc-nd/4.0/deed.en" />
        <dc:publisher>
          <cc:Agent>
            <dc:title>m0dw3rks.com</dc:title>
          </cc:Agent>
        </dc:publisher>
      </cc:Work>
    </rdf:RDF>
  </metadata>
  <metadata
     id="metadata6">
    <rdf:RDF>
      <cc:Work
         rdf:about="">
        <dc:creator>
          <cc:Agent>
            <dc:title>Jess Tipton</dc:title>
          </cc:Agent>
        </dc:creator>
        <cc:license
           rdf:resource="https://creativecommons.org/licenses/by-nc-nd/4.0/deed.en" />
        <dc:publisher>
          <cc:Agent>
            <dc:title>m0dw3rks.com</dc:title>
          </cc:Agent>
        </dc:publisher>
      </cc:Work>
    </rdf:RDF>
  </metadata>
  <metadata
     id="metadata6">
    <rdf:RDF>
      <cc:Work
         rdf:about="">
        <dc:creator>
          <cc:Agent>
            <dc:title>Jess Tipton</dc:title>
          </cc:Agent>
        </dc:creator>
        <cc:license
           rdf:resource="https://creativecommons.org/licenses/by-nc-nd/4.0/deed.en" />
        <dc:publisher>
          <cc:Agent>
            <dc:title>m0dw3rks.com</dc:title>
          </cc:Agent>
        </dc:publisher>
      </cc:Work>
    </rdf:RDF>
  </metadata>
  <metadata
     id="metadata6">
    <rdf:RDF>
      <cc:Work
         rdf:about="">
        <dc:creator>
          <cc:Agent>
            <dc:title>Jess Tipton</dc:title>
          </cc:Agent>
        </dc:creator>
        <cc:license
           rdf:resource="https://creativecommons.org/licenses/by-nc-nd/4.0/deed.en" />
        <dc:publisher>
          <cc:Agent>
            <dc:title>m0dw3rks.com</dc:title>
          </cc:Agent>
        </dc:publisher>
      </cc:Work>
    </rdf:RDF>
  </metadata>
  <metadata
     id="metadata6">
    <rdf:RDF>
      <cc:Work
         rdf:about="">
        <dc:creator>
          <cc:Agent>
            <dc:title>Jess Tipton</dc:title>
          </cc:Agent>
        </dc:creator>
        <cc:license
           rdf:resource="https://creativecommons.org/licenses/by-nc-nd/4.0/deed.en" />
        <dc:publisher>
          <cc:Agent>
            <dc:title>m0dw3rks.com</dc:title>
          </cc:Agent>
        </dc:publisher>
      </cc:Work>
    </rdf:RDF>
  </metadata>
  <metadata
     id="metadata6">
    <rdf:RDF>
      <cc:Work
         rdf:about="">
        <dc:creator>
          <cc:Agent>
            <dc:title>Jess Tipton</dc:title>
          </cc:Agent>
        </dc:creator>
        <cc:license
           rdf:resource="https://creativecommons.org/licenses/by-nc-nd/4.0/deed.en" />
        <dc:publisher>
          <cc:Agent>
            <dc:title>m0dw3rks.com</dc:title>
          </cc:Agent>
        </dc:publisher>
      </cc:Work>
    </rdf:RDF>
  </metadata>
  <metadata
     id="metadata6">
    <rdf:RDF>
      <cc:Work
         rdf:about="">
        <dc:creator>
          <cc:Agent>
            <dc:title>Jess Tipton</dc:title>
          </cc:Agent>
        </dc:creator>
        <cc:license
           rdf:resource="https://creativecommons.org/licenses/by-nc-nd/4.0/deed.en" />
        <dc:publisher>
          <cc:Agent>
            <dc:title>m0dw3rks.com</dc:title>
          </cc:Agent>
        </dc:publisher>
      </cc:Work>
    </rdf:RDF>
  </metadata>
  <metadata
     id="metadata6">
    <rdf:RDF>
      <cc:Work
         rdf:about="">
        <dc:creator>
          <cc:Agent>
            <dc:title>Jess Tipton</dc:title>
          </cc:Agent>
        </dc:creator>
        <cc:license
           rdf:resource="https://creativecommons.org/licenses/by-nc-nd/4.0/deed.en" />
        <dc:publisher>
          <cc:Agent>
            <dc:title>m0dw3rks.com</dc:title>
          </cc:Agent>
        </dc:publisher>
      </cc:Work>
    </rdf:RDF>
  </metadata>
  <metadata
     id="metadata6">
    <rdf:RDF>
      <cc:Work
         rdf:about="">
        <dc:creator>
          <cc:Agent>
            <dc:title>Jess Tipton</dc:title>
          </cc:Agent>
        </dc:creator>
        <cc:license
           rdf:resource="https://creativecommons.org/licenses/by-nc-nd/4.0/deed.en" />
        <dc:publisher>
          <cc:Agent>
            <dc:title>m0dw3rks.com</dc:title>
          </cc:Agent>
        </dc:publisher>
      </cc:Work>
    </rdf:RDF>
  </metadata>
  <metadata
     id="metadata6">
    <rdf:RDF>
      <cc:Work
         rdf:about="">
        <dc:creator>
          <cc:Agent>
            <dc:title>Jess Tipton</dc:title>
          </cc:Agent>
        </dc:creator>
        <cc:license
           rdf:resource="https://creativecommons.org/licenses/by-nc-nd/4.0/deed.en" />
        <dc:publisher>
          <cc:Agent>
            <dc:title>m0dw3rks.com</dc:title>
          </cc:Agent>
        </dc:publisher>
      </cc:Work>
    </rdf:RDF>
  </metadata>
  <metadata
     id="metadata6">
    <rdf:RDF>
      <cc:Work
         rdf:about="">
        <dc:creator>
          <cc:Agent>
            <dc:title>Jess Tipton</dc:title>
          </cc:Agent>
        </dc:creator>
        <cc:license
           rdf:resource="https://creativecommons.org/licenses/by-nc-nd/4.0/deed.en" />
        <dc:publisher>
          <cc:Agent>
            <dc:title>m0dw3rks.com</dc:title>
          </cc:Agent>
        </dc:publisher>
      </cc:Work>
    </rdf:RDF>
  </metadata>
  <metadata
     id="metadata6">
    <rdf:RDF>
      <cc:Work
         rdf:about="">
        <dc:creator>
          <cc:Agent>
            <dc:title>Jess Tipton</dc:title>
          </cc:Agent>
        </dc:creator>
        <cc:license
           rdf:resource="https://creativecommons.org/licenses/by-nc-nd/4.0/deed.en" />
        <dc:publisher>
          <cc:Agent>
            <dc:title>m0dw3rks.com</dc:title>
          </cc:Agent>
        </dc:publisher>
      </cc:Work>
    </rdf:RDF>
  </metadata>
  <metadata
     id="metadata6">
    <rdf:RDF>
      <cc:Work
         rdf:about="">
        <dc:creator>
          <cc:Agent>
            <dc:title>Jess Tipton</dc:title>
          </cc:Agent>
        </dc:creator>
        <cc:license
           rdf:resource="https://creativecommons.org/licenses/by-nc-nd/4.0/deed.en" />
        <dc:publisher>
          <cc:Agent>
            <dc:title>m0dw3rks.com</dc:title>
          </cc:Agent>
        </dc:publisher>
      </cc:Work>
    </rdf:RDF>
  </metadata>
  <metadata
     id="metadata6">
    <rdf:RDF>
      <cc:Work
         rdf:about="">
        <dc:creator>
          <cc:Agent>
            <dc:title>Jess Tipton</dc:title>
          </cc:Agent>
        </dc:creator>
        <cc:license
           rdf:resource="https://creativecommons.org/licenses/by-nc-nd/4.0/deed.en" />
        <dc:publisher>
          <cc:Agent>
            <dc:title>m0dw3rks.com</dc:title>
          </cc:Agent>
        </dc:publisher>
      </cc:Work>
    </rdf:RDF>
  </metadata>
  <metadata
     id="metadata6">
    <rdf:RDF>
      <cc:Work
         rdf:about="">
        <dc:creator>
          <cc:Agent>
            <dc:title>Jess Tipton</dc:title>
          </cc:Agent>
        </dc:creator>
        <cc:license
           rdf:resource="https://creativecommons.org/licenses/by-nc-nd/4.0/deed.en" />
        <dc:publisher>
          <cc:Agent>
            <dc:title>m0dw3rks.com</dc:title>
          </cc:Agent>
        </dc:publisher>
      </cc:Work>
    </rdf:RDF>
  </metadata>
  <metadata
     id="metadata6">
    <rdf:RDF>
      <cc:Work
         rdf:about="">
        <dc:creator>
          <cc:Agent>
            <dc:title>Jess Tipton</dc:title>
          </cc:Agent>
        </dc:creator>
        <cc:license
           rdf:resource="https://creativecommons.org/licenses/by-nc-nd/4.0/deed.en" />
        <dc:publisher>
          <cc:Agent>
            <dc:title>m0dw3rks.com</dc:title>
          </cc:Agent>
        </dc:publisher>
      </cc:Work>
    </rdf:RDF>
  </metadata>
  <metadata
     id="metadata6">
    <rdf:RDF>
      <cc:Work
         rdf:about="">
        <dc:creator>
          <cc:Agent>
            <dc:title>Jess Tipton</dc:title>
          </cc:Agent>
        </dc:creator>
        <cc:license
           rdf:resource="https://creativecommons.org/licenses/by-nc-nd/4.0/deed.en" />
        <dc:publisher>
          <cc:Agent>
            <dc:title>m0dw3rks.com</dc:title>
          </cc:Agent>
        </dc:publisher>
      </cc:Work>
    </rdf:RDF>
  </metadata>
</svg>
