<?xml version="1.0" encoding="UTF-8" standalone="no"?>
<!-- Created with Inkscape (http://www.inkscape.org/) -->

<svg
   width="512"
   height="512"
   viewBox="0 0 135.46666 135.46667"
   version="1.1"
   id="svg5"
   inkscape:version="1.2.1 (9c6d41e410, 2022-07-14, custom)"
   sodipodi:docname="note-pink.svg"
   xmlns:inkscape="http://www.inkscape.org/namespaces/inkscape"
   xmlns:sodipodi="http://sodipodi.sourceforge.net/DTD/sodipodi-0.dtd"
   xmlns:xlink="http://www.w3.org/1999/xlink"
   xmlns="http://www.w3.org/2000/svg"
   xmlns:svg="http://www.w3.org/2000/svg"
   xmlns:rdf="http://www.w3.org/1999/02/22-rdf-syntax-ns#"
   xmlns:cc="http://creativecommons.org/ns#"
   xmlns:dc="http://purl.org/dc/elements/1.1/">>
  <sodipodi:namedview
     id="namedview7"
     pagecolor="#505050"
     bordercolor="#ffffff"
     borderopacity="1"
     inkscape:showpageshadow="0"
     inkscape:pageopacity="0"
     inkscape:pagecheckerboard="1"
     inkscape:deskcolor="#505050"
     inkscape:document-units="px"
     showgrid="false"
     inkscape:zoom="1.1214272"
     inkscape:cx="-13.375813"
     inkscape:cy="212.22957"
     inkscape:window-width="3252"
     inkscape:window-height="1076"
     inkscape:window-x="1864"
     inkscape:window-y="0"
     inkscape:window-maximized="0"
     inkscape:current-layer="layer1" />
  <defs
     id="defs2">
    <linearGradient
       inkscape:collect="always"
       id="linearGradient12737">
      <stop
         style="stop-color:#000000;stop-opacity:1;"
         offset="0"
         id="stop12733" />
      <stop
         style="stop-color:#000000;stop-opacity:0;"
         offset="1"
         id="stop12735" />
    </linearGradient>
    <clipPath
       clipPathUnits="userSpaceOnUse"
       id="clipPath8871">
      <path
         id="path8873"
         style="fill:#ff6600;stroke-width:1.39202;stroke-linecap:round;stroke-linejoin:round;paint-order:stroke fill markers"
         d="m -120.53373,3.8287039 c -2.09815,-0.03943 -3.99096,1.8213152 -4.3496,4.3733762 l -12.88811,91.7106789 c -5.69492,-6.18812 -14.62559,-9.829377 -24.10912,-9.82989 -16.65333,8e-6 -30.15345,11.016661 -30.1532,24.606251 1e-4,13.58939 13.50012,24.60572 30.1532,24.60573 15.2559,-0.007 28.10185,-9.31113 29.92117,-21.67154 0.038,-0.16632 0.0697,-0.33648 0.0941,-0.50953 l 10.68514,-76.032569 c 0.052,-0.324065 0.10315,-0.685462 0.15296,-1.088824 0.78686,-6.372101 5.88584,-12.744074 16.43,-9.918774 22.63627,6.065372 2.57452,57.735493 2.57452,57.735493 0,0 20.577111,-39.325126 14.01052,-56.199669 -3.836119,-9.857845 -12.40892,-12.169317 -18.54254,-14.919503 -1.47938,-0.663324 -9.9831,-4.047727 -10.14253,-7.53339 0,0 -0.005,0.0041 -0.005,0.0041 0.28772,-2.6450091 -1.20152,-4.9878011 -3.40958,-5.2983809 -0.14131,-0.01987 -0.2818,-0.03096 -0.42168,-0.03359 z"
         sodipodi:nodetypes="sccccccccsscssccss" />
    </clipPath>
    <clipPath
       clipPathUnits="userSpaceOnUse"
       id="clipPath11834">
      <path
         id="path11836"
         style="fill:#ff6600;stroke-width:1.39202;stroke-linecap:round;stroke-linejoin:round;paint-order:stroke fill markers"
         d="m -24.203924,-14.437645 c -2.098154,-0.03943 -3.990959,1.821315 -4.349605,4.373376 l -12.888102,91.710676 c -5.694918,-6.188112 -14.625598,-9.829371 -24.109122,-9.829892 -16.653332,1e-5 -30.153448,11.016662 -30.153199,24.606252 1e-4,13.589393 13.500115,24.605723 30.153199,24.605733 15.255901,-0.007 28.101851,-9.31113 29.921171,-21.671543 0.03801,-0.16632 0.06973,-0.336482 0.09405,-0.50953 l 10.685138,-76.032566 c 0.05201,-0.324064 0.103153,-0.685461 0.152962,-1.088823 0.786855,-6.372101 5.885838,-12.744074 16.43,-9.918774 22.63627,6.065371 2.5745199,57.735493 2.5745199,57.735493 0,0 20.5771101,-39.325126 14.01052,-56.199669 C 4.481486,3.485243 -4.0913139,1.173771 -10.224934,-1.576415 c -1.479385,-0.663324 -9.983099,-4.047727 -10.142532,-7.5333899 0,0 -0.0051,0.0041 -0.0052,0.0041 0.287721,-2.6450091 -1.201516,-4.9878011 -3.409579,-5.2983811 -0.141308,-0.01988 -0.281802,-0.03096 -0.421679,-0.03359 z"
         sodipodi:nodetypes="sccccccccsscssccss" />
    </clipPath>
    <filter
       inkscape:collect="always"
       style="color-interpolation-filters:sRGB"
       id="filter11838"
       x="-0.049915913"
       y="-0.038263803"
       width="1.0998318"
       height="1.0765276">
      <feGaussianBlur
         inkscape:collect="always"
         stdDeviation="2.0578131"
         id="feGaussianBlur11840" />
    </filter>
    <clipPath
       clipPathUnits="userSpaceOnUse"
       id="clipPath12681">
      <path
         id="path12683"
         style="fill:#ff6600;stroke-width:1.39202;stroke-linecap:round;stroke-linejoin:round;paint-order:stroke fill markers"
         d="m -28.958439,-45.629475 c -2.098154,-0.03943 -3.990959,1.821315 -4.349607,4.373377 l -12.888103,91.710681 c -5.694918,-6.18812 -14.625595,-9.829379 -24.109121,-9.829892 -16.65333,1e-5 -30.15345,11.01666 -30.1532,24.606247 1e-4,13.589391 13.500121,24.60572 30.1532,24.605731 15.255904,-0.007 28.101853,-9.311129 29.92117,-21.671539 0.03801,-0.16632 0.06973,-0.336481 0.09405,-0.509532 l 10.685137,-76.0325661 c 0.05201,-0.324064 0.103153,-0.685461 0.15296,-1.0888228 0.786855,-6.3721011 5.885839,-12.7440741 16.430001,-9.9187741 22.63627,6.065371 2.57452,57.735493 2.57452,57.735493 0,0 20.57711,-39.325127 14.01052,-56.199669 -3.83611999,-9.857846 -12.4089201,-12.169317 -18.54254,-14.919502 -1.479385,-0.663324 -9.983099,-4.047728 -10.142532,-7.533391 0,0 -0.0051,0.0041 -0.0052,0.0041 0.287721,-2.645011 -1.201516,-4.987801 -3.409581,-5.298382 -0.141306,-0.01987 -0.2818,-0.03096 -0.421677,-0.03359 z"
         sodipodi:nodetypes="sccccccccsscssccss" />
    </clipPath>
    <filter
       inkscape:collect="always"
       style="color-interpolation-filters:sRGB"
       id="filter12685"
       x="-0.026536794"
       y="-0.021119109"
       width="1.0530736"
       height="1.0422382">
      <feGaussianBlur
         inkscape:collect="always"
         stdDeviation="1.110769"
         id="feGaussianBlur12687" />
    </filter>
    <linearGradient
       inkscape:collect="always"
       xlink:href="#linearGradient12737"
       id="linearGradient12739"
       x1="-86.718803"
       y1="139.2948"
       x2="-190.95485"
       y2="4.4745626"
       gradientUnits="userSpaceOnUse" />
    <filter
       inkscape:collect="always"
       style="color-interpolation-filters:sRGB"
       id="filter12865"
       x="-0.035117613"
       y="-0.027301201"
       width="1.0702352"
       height="1.0546024">
      <feGaussianBlur
         inkscape:collect="always"
         stdDeviation="1.5410021"
         id="feGaussianBlur12867" />
    </filter>
  </defs>
  <g
     inkscape:label="Layer 1"
     inkscape:groupmode="layer"
     id="layer1">
    <path
       id="path792"
       style="fill:#ff5555;stroke-width:1.39202;stroke-linecap:round;stroke-linejoin:round;paint-order:stroke fill markers;fill-opacity:1"
       d="M 86.57611,5.1676432e-4 C 84.477956,-0.0389105 82.585151,1.8218323 82.226505,4.3738932 L 69.338402,96.084573 C 63.643484,89.896454 54.712806,86.255194 45.22928,86.254682 c -16.653331,9e-6 -30.153448,11.016659 -30.153198,24.606248 1.01e-4,13.58939 13.500115,24.60572 30.153198,24.60573 15.255903,-0.007 28.101852,-9.31113 29.921171,-21.67154 0.03801,-0.16632 0.06973,-0.33648 0.09405,-0.50953 L 85.929638,37.253023 c 0.05201,-0.324064 0.103153,-0.685461 0.152962,-1.088823 0.786855,-6.372101 5.885838,-12.744074 16.43,-9.918774 22.63627,6.065371 2.57452,57.735493 2.57452,57.735493 0,0 20.57711,-39.325127 14.01052,-56.199669 C 115.26152,17.923405 106.68872,15.611933 100.5551,12.861747 99.075715,12.198423 90.572001,8.81402 90.412568,5.3283569 c 0,0 -0.0051,0.00409 -0.0052,0.00413 C 90.695089,2.6874784 89.205852,0.34468563 86.997789,0.03410644 86.856481,0.0142305 86.715987,0.00314525 86.57611,5.1676432e-4 Z"
       sodipodi:nodetypes="sccccccccsscssccss" />
    <path
       id="path792-5"
       style="display:inline;mix-blend-mode:soft-light;fill:#ffffff;stroke-width:1.39202;stroke-linecap:round;stroke-linejoin:round;paint-order:stroke fill markers;filter:url(#filter11838)"
       d="m -27.435773,-11.837965 c -1.273051,0.608059 -1.141387,2.2301239 -1.336903,3.4136879 -4.22079,30.0237961 -8.430115,60.0497831 -12.668956,90.0706831 -0.656411,2.502515 -4.346101,3.042532 -5.941407,1.14258 -1.441144,-1.74529 -3.445761,-3.06591 -5.282086,-4.19887 -8.280725,-4.82511 -18.747712,-5.44719 -27.674945,-2.08824 -5.062833,1.93762 -9.822547,5.39191 -12.677734,10.12889 -1.452056,2.444307 -2.393724,5.135467 -2.572189,8.043727 -0.256201,3.71656 0.8168,7.585437 2.773361,10.655487 3.877059,6.09455 10.636039,9.88781 17.611373,11.2598 8.365891,1.65713 17.491731,0.11833 24.512528,-4.83548 4.323314,-3.05749 7.757843,-7.62666 8.713869,-12.863897 0.528137,-2.94749 0.822159,-5.93208 1.289089,-8.89021 3.341812,-23.698277 6.622274,-47.406727 10.061951,-71.090271 1.142798,-5.459192 5.58228,-10.3406246 11.204692,-11.2295216 5.179185,-0.968133 10.81061,0.282126 14.96002,3.5636636 3.91371,3.286011 5.91756,8.306038 6.56539,13.273247 0.22722,1.417708 0.34532,2.85047 0.42289,4.283393 C 3.11043,25.465111 3.47451,21.965181 3.24392,18.61711 2.98578,15.466103 1.96457,12.3361 0,9.7840364 c -2.29974,-3.118039 -5.58454,-5.184212 -9.09836,-6.694336 -5.26524,-2.41183298 -11.026685,-4.182775 -15.365487,-8.1910338 -1.52879,-1.5184461 -2.385776,-3.6943507 -2.235678,-5.8464086 -0.09517,-0.337922 -0.294081,-0.938107 -0.736248,-0.890223 z"
       clip-path="url(#clipPath11834)"
       transform="translate(111.85876,15.084685)"
       sodipodi:insensitive="true" />
    <path
       id="path792-3"
       style="display:inline;mix-blend-mode:normal;fill:url(#linearGradient12739);fill-opacity:1;stroke-width:1.39202;stroke-linecap:round;stroke-linejoin:round;paint-order:stroke fill markers;filter:url(#filter12865)"
       d="m -120.5337,3.8287052 c -2.09815,-0.039427 -3.99095,1.8213181 -4.3496,4.3733764 l -12.8881,91.7106774 c -5.69492,-6.188113 -14.62561,-9.829376 -24.10913,-9.829888 -16.65331,9e-6 -30.15345,11.016689 -30.1532,24.606249 1e-4,13.58938 13.50014,24.60572 30.1532,24.60573 15.25589,-0.007 28.10186,-9.31114 29.92117,-21.67154 0.038,-0.16632 0.0696,-0.33648 0.0941,-0.50953 l 10.68514,-76.032569 c 0.052,-0.324063 0.10315,-0.68546 0.15296,-1.088822 0.78685,-6.372095 5.88586,-12.744071 16.43001,-9.918774 22.636239,6.065365 2.57452,57.735493 2.57452,57.735493 0,0 20.57709,-39.325145 14.010506,-56.19967 -3.836116,-9.857835 -12.408916,-12.169319 -18.542536,-14.919502 -1.47938,-0.663324 -9.9831,-4.047731 -10.14253,-7.5333907 0,0 -0.005,0.00409 -0.005,0.00413 0.28772,-2.6450059 -1.20155,-4.9878057 -3.40961,-5.2983846 -0.14131,-0.019876 -0.2818,-0.030961 -0.42168,-0.03359 z m 0.004,1.0624675 c 1.4856,0.030487 2.5345,1.464644 2.74712,2.8530558 0.0868,0.4982895 0.0778,1.14484 0.0398,1.5487426 0.24783,2.2590509 2.25479,3.6974909 3.97081,4.9061609 5.08887,3.306223 11.10205,4.780382 16.298228,7.88634 3.235957,1.902507 5.930563,4.637893 7.609872,7.969023 1.171038,2.216822 1.824378,4.770578 1.982307,7.209378 0.31224,3.967242 -0.145909,7.892043 -0.908988,11.770341 -1.555038,7.928133 -4.194074,15.561468 -7.221781,23.03787 1.119599,-4.400045 2.033779,-8.856448 2.619478,-13.360424 0.761119,-6.195864 1.126045,-12.621543 -0.598413,-18.696017 -1.086989,-4.135055 -3.689971,-8.04132 -7.609863,-9.946162 -3.61825,-1.62904 -7.82472,-2.285056 -11.6949,-1.207679 -4.54694,1.186778 -7.80896,5.416893 -8.60516,9.937895 -3.42192,24.096041 -6.79332,48.200864 -10.18232,72.302043 -0.43002,2.70062 -0.65743,5.51782 -1.26091,8.12716 -1.36967,5.69764 -5.30816,10.50444 -10.14046,13.68702 -5.5607,3.68999 -12.50953,5.48239 -19.23965,5.30406 -7.75976,-0.15831 -15.77739,-2.93234 -21.45864,-8.42739 -3.9568,-3.77911 -6.63964,-8.96822 -6.77168,-14.457 -0.24321,-5.64029 2.24615,-11.15477 6.15725,-15.14222 5.93177,-6.084645 14.54191,-9.068215 22.9433,-9.050615 8.21671,0.002 16.78347,2.895859 22.6937,8.849584 0.45519,0.920981 1.96533,0.999061 2.43913,0.0703 4.26286,-30.332398 8.52604,-60.665168 12.78888,-90.9975579 0.0739,-1.8101842 1.13062,-3.9057186 3.10007,-4.1609863 0.10281,-0.010873 0.20379,-0.014952 0.30283,-0.012919 z"
       clip-path="url(#clipPath8871)"
       transform="translate(207.10966,-3.8281376)"
       sodipodi:insensitive="true" />
    <path
       id="path792-6"
       style="display:inline;fill:#ffffff;stroke-width:1.39202;stroke-linecap:round;stroke-linejoin:round;paint-order:stroke fill markers;filter:url(#filter12685)"
       d="m -28.95844,-45.629473 c -2.098152,-0.03943 -3.99096,1.821319 -4.349605,4.373376 l -12.888103,91.71068 C -51.89106,44.26647 -60.82175,40.625204 -70.30527,40.624692 c -16.65331,9e-6 -30.15345,11.016674 -30.1532,24.606247 4e-5,5.81574 2.47842,11.15663 6.61252,15.36805 -3.55078,-4.03629 -5.6482,-8.98155 -5.64824,-14.32936 -2.5e-4,-13.589568 13.49989,-24.606241 30.1532,-24.606241 9.48352,5.1e-4 18.41422,3.641777 24.109125,9.829891 L -32.343763,-40.2174 c 0.358645,-2.552058 2.251453,-4.412807 4.349605,-4.373377 0.139877,0.0026 0.280372,0.01371 0.42168,0.03359 0.614428,0.08642 1.170236,0.334801 1.650545,0.698665 -0.612373,-0.93492 -1.525355,-1.584119 -2.614828,-1.737361 -0.141307,-0.01988 -0.281802,-0.03096 -0.421679,-0.03359 z m 5.498372,8.074959 c 2.085489,2.821601 8.210128,5.27132 9.444898,5.824967 4.29755,1.926929 9.79099,3.642029 14.01517,7.88479 -4.32375,-5.017044 -10.34683,-6.846317 -14.97945,-8.923486 -1.080005,-0.484251 -5.892888,-2.420907 -8.480618,-4.786271 z m 16.989658,22.325768 c 11.43142,13.8915949 -3.97702,53.579675 -3.97702,53.579675 0,0 1.90436,-3.651169 4.35995,-9.165849 3.90221,-13.226225 8.67575,-35.6279421 -0.38293,-44.413826 z"
       clip-path="url(#clipPath12681)"
       transform="translate(115.53437,45.630041)"
       sodipodi:insensitive="true" />
  </g>
  <metadata
     id="metadata1">
    <rdf:RDF>
      <cc:Work
         rdf:about="">
        <dc:creator>
          <cc:Agent>
            <dc:title>Jess Tipton</dc:title>
          </cc:Agent>
        </dc:creator>
        <dc:publisher>
          <cc:Agent>
            <dc:title>m0dw3rks.com</dc:title>
          </cc:Agent>
        </dc:publisher>
        <cc:license
           rdf:resource="https://creativecommons.org/licenses/by-nc-nd/4.0/deed.en" />
      </cc:Work>
    </rdf:RDF>
  </metadata>
  <metadata
     id="metadata6">
    <rdf:RDF>
      <cc:Work
         rdf:about="">
        <dc:creator>
          <cc:Agent>
            <dc:title>Jess Tipton</dc:title>
          </cc:Agent>
        </dc:creator>
        <cc:license
           rdf:resource="https://creativecommons.org/licenses/by-nc-nd/4.0/deed.en" />
        <dc:publisher>
          <cc:Agent>
            <dc:title>m0dw3rks.com</dc:title>
          </cc:Agent>
        </dc:publisher>
      </cc:Work>
    </rdf:RDF>
  </metadata>
  <metadata
     id="metadata6">
    <rdf:RDF>
      <cc:Work
         rdf:about="">
        <dc:creator>
          <cc:Agent>
            <dc:title>Jess Tipton</dc:title>
          </cc:Agent>
        </dc:creator>
        <cc:license
           rdf:resource="https://creativecommons.org/licenses/by-nc-nd/4.0/deed.en" />
        <dc:publisher>
          <cc:Agent>
            <dc:title>m0dw3rks.com</dc:title>
          </cc:Agent>
        </dc:publisher>
      </cc:Work>
    </rdf:RDF>
  </metadata>
  <metadata
     id="metadata6">
    <rdf:RDF>
      <cc:Work
         rdf:about="">
        <dc:creator>
          <cc:Agent>
            <dc:title>Jess Tipton</dc:title>
          </cc:Agent>
        </dc:creator>
        <cc:license
           rdf:resource="https://creativecommons.org/licenses/by-nc-nd/4.0/deed.en" />
        <dc:publisher>
          <cc:Agent>
            <dc:title>m0dw3rks.com</dc:title>
          </cc:Agent>
        </dc:publisher>
      </cc:Work>
    </rdf:RDF>
  </metadata>
  <metadata
     id="metadata6">
    <rdf:RDF>
      <cc:Work
         rdf:about="">
        <dc:creator>
          <cc:Agent>
            <dc:title>Jess Tipton</dc:title>
          </cc:Agent>
        </dc:creator>
        <cc:license
           rdf:resource="https://creativecommons.org/licenses/by-nc-nd/4.0/deed.en" />
        <dc:publisher>
          <cc:Agent>
            <dc:title>m0dw3rks.com</dc:title>
          </cc:Agent>
        </dc:publisher>
      </cc:Work>
    </rdf:RDF>
  </metadata>
  <metadata
     id="metadata6">
    <rdf:RDF>
      <cc:Work
         rdf:about="">
        <dc:creator>
          <cc:Agent>
            <dc:title>Jess Tipton</dc:title>
          </cc:Agent>
        </dc:creator>
        <cc:license
           rdf:resource="https://creativecommons.org/licenses/by-nc-nd/4.0/deed.en" />
        <dc:publisher>
          <cc:Agent>
            <dc:title>m0dw3rks.com</dc:title>
          </cc:Agent>
        </dc:publisher>
      </cc:Work>
    </rdf:RDF>
  </metadata>
  <metadata
     id="metadata6">
    <rdf:RDF>
      <cc:Work
         rdf:about="">
        <dc:creator>
          <cc:Agent>
            <dc:title>Jess Tipton</dc:title>
          </cc:Agent>
        </dc:creator>
        <cc:license
           rdf:resource="https://creativecommons.org/licenses/by-nc-nd/4.0/deed.en" />
        <dc:publisher>
          <cc:Agent>
            <dc:title>m0dw3rks.com</dc:title>
          </cc:Agent>
        </dc:publisher>
      </cc:Work>
    </rdf:RDF>
  </metadata>
  <metadata
     id="metadata6">
    <rdf:RDF>
      <cc:Work
         rdf:about="">
        <dc:creator>
          <cc:Agent>
            <dc:title>Jess Tipton</dc:title>
          </cc:Agent>
        </dc:creator>
        <cc:license
           rdf:resource="https://creativecommons.org/licenses/by-nc-nd/4.0/deed.en" />
        <dc:publisher>
          <cc:Agent>
            <dc:title>m0dw3rks.com</dc:title>
          </cc:Agent>
        </dc:publisher>
      </cc:Work>
    </rdf:RDF>
  </metadata>
  <metadata
     id="metadata6">
    <rdf:RDF>
      <cc:Work
         rdf:about="">
        <dc:creator>
          <cc:Agent>
            <dc:title>Jess Tipton</dc:title>
          </cc:Agent>
        </dc:creator>
        <cc:license
           rdf:resource="https://creativecommons.org/licenses/by-nc-nd/4.0/deed.en" />
        <dc:publisher>
          <cc:Agent>
            <dc:title>m0dw3rks.com</dc:title>
          </cc:Agent>
        </dc:publisher>
      </cc:Work>
    </rdf:RDF>
  </metadata>
  <metadata
     id="metadata6">
    <rdf:RDF>
      <cc:Work
         rdf:about="">
        <dc:creator>
          <cc:Agent>
            <dc:title>Jess Tipton</dc:title>
          </cc:Agent>
        </dc:creator>
        <cc:license
           rdf:resource="https://creativecommons.org/licenses/by-nc-nd/4.0/deed.en" />
        <dc:publisher>
          <cc:Agent>
            <dc:title>m0dw3rks.com</dc:title>
          </cc:Agent>
        </dc:publisher>
      </cc:Work>
    </rdf:RDF>
  </metadata>
  <metadata
     id="metadata6">
    <rdf:RDF>
      <cc:Work
         rdf:about="">
        <dc:creator>
          <cc:Agent>
            <dc:title>Jess Tipton</dc:title>
          </cc:Agent>
        </dc:creator>
        <cc:license
           rdf:resource="https://creativecommons.org/licenses/by-nc-nd/4.0/deed.en" />
        <dc:publisher>
          <cc:Agent>
            <dc:title>m0dw3rks.com</dc:title>
          </cc:Agent>
        </dc:publisher>
      </cc:Work>
    </rdf:RDF>
  </metadata>
  <metadata
     id="metadata6">
    <rdf:RDF>
      <cc:Work
         rdf:about="">
        <dc:creator>
          <cc:Agent>
            <dc:title>Jess Tipton</dc:title>
          </cc:Agent>
        </dc:creator>
        <cc:license
           rdf:resource="https://creativecommons.org/licenses/by-nc-nd/4.0/deed.en" />
        <dc:publisher>
          <cc:Agent>
            <dc:title>m0dw3rks.com</dc:title>
          </cc:Agent>
        </dc:publisher>
      </cc:Work>
    </rdf:RDF>
  </metadata>
  <metadata
     id="metadata6">
    <rdf:RDF>
      <cc:Work
         rdf:about="">
        <dc:creator>
          <cc:Agent>
            <dc:title>Jess Tipton</dc:title>
          </cc:Agent>
        </dc:creator>
        <cc:license
           rdf:resource="https://creativecommons.org/licenses/by-nc-nd/4.0/deed.en" />
        <dc:publisher>
          <cc:Agent>
            <dc:title>m0dw3rks.com</dc:title>
          </cc:Agent>
        </dc:publisher>
      </cc:Work>
    </rdf:RDF>
  </metadata>
  <metadata
     id="metadata6">
    <rdf:RDF>
      <cc:Work
         rdf:about="">
        <dc:creator>
          <cc:Agent>
            <dc:title>Jess Tipton</dc:title>
          </cc:Agent>
        </dc:creator>
        <cc:license
           rdf:resource="https://creativecommons.org/licenses/by-nc-nd/4.0/deed.en" />
        <dc:publisher>
          <cc:Agent>
            <dc:title>m0dw3rks.com</dc:title>
          </cc:Agent>
        </dc:publisher>
      </cc:Work>
    </rdf:RDF>
  </metadata>
  <metadata
     id="metadata6">
    <rdf:RDF>
      <cc:Work
         rdf:about="">
        <dc:creator>
          <cc:Agent>
            <dc:title>Jess Tipton</dc:title>
          </cc:Agent>
        </dc:creator>
        <cc:license
           rdf:resource="https://creativecommons.org/licenses/by-nc-nd/4.0/deed.en" />
        <dc:publisher>
          <cc:Agent>
            <dc:title>m0dw3rks.com</dc:title>
          </cc:Agent>
        </dc:publisher>
      </cc:Work>
    </rdf:RDF>
  </metadata>
  <metadata
     id="metadata6">
    <rdf:RDF>
      <cc:Work
         rdf:about="">
        <dc:creator>
          <cc:Agent>
            <dc:title>Jess Tipton</dc:title>
          </cc:Agent>
        </dc:creator>
        <cc:license
           rdf:resource="https://creativecommons.org/licenses/by-nc-nd/4.0/deed.en" />
        <dc:publisher>
          <cc:Agent>
            <dc:title>m0dw3rks.com</dc:title>
          </cc:Agent>
        </dc:publisher>
      </cc:Work>
    </rdf:RDF>
  </metadata>
  <metadata
     id="metadata6">
    <rdf:RDF>
      <cc:Work
         rdf:about="">
        <dc:creator>
          <cc:Agent>
            <dc:title>Jess Tipton</dc:title>
          </cc:Agent>
        </dc:creator>
        <cc:license
           rdf:resource="https://creativecommons.org/licenses/by-nc-nd/4.0/deed.en" />
        <dc:publisher>
          <cc:Agent>
            <dc:title>m0dw3rks.com</dc:title>
          </cc:Agent>
        </dc:publisher>
      </cc:Work>
    </rdf:RDF>
  </metadata>
  <metadata
     id="metadata6">
    <rdf:RDF>
      <cc:Work
         rdf:about="">
        <dc:creator>
          <cc:Agent>
            <dc:title>Jess Tipton</dc:title>
          </cc:Agent>
        </dc:creator>
        <cc:license
           rdf:resource="https://creativecommons.org/licenses/by-nc-nd/4.0/deed.en" />
        <dc:publisher>
          <cc:Agent>
            <dc:title>m0dw3rks.com</dc:title>
          </cc:Agent>
        </dc:publisher>
      </cc:Work>
    </rdf:RDF>
  </metadata>
</svg>
