<?xml version="1.0" encoding="UTF-8" standalone="no"?>
<!-- Created with Inkscape (http://www.inkscape.org/) -->

<svg
   width="512"
   height="512"
   viewBox="0 0 135.46666 135.46667"
   version="1.1"
   id="svg5"
   inkscape:version="1.4.2 (ebf0e940d0, 2025-05-08)"
   sodipodi:docname="emblem-multimedia.svg"
   xmlns:inkscape="http://www.inkscape.org/namespaces/inkscape"
   xmlns:sodipodi="http://sodipodi.sourceforge.net/DTD/sodipodi-0.dtd"
   xmlns:xlink="http://www.w3.org/1999/xlink"
   xmlns="http://www.w3.org/2000/svg"
   xmlns:svg="http://www.w3.org/2000/svg"
   xmlns:rdf="http://www.w3.org/1999/02/22-rdf-syntax-ns#"
   xmlns:cc="http://creativecommons.org/ns#"
   xmlns:dc="http://purl.org/dc/elements/1.1/">&gt;
  <sodipodi:namedview
   id="namedview7"
   pagecolor="#505050"
   bordercolor="#ffffff"
   borderopacity="1"
   inkscape:showpageshadow="0"
   inkscape:pageopacity="0"
   inkscape:pagecheckerboard="1"
   inkscape:deskcolor="#505050"
   inkscape:document-units="px"
   showgrid="false"
   inkscape:zoom="1.1214272"
   inkscape:cx="530.12804"
   inkscape:cy="320.57364"
   inkscape:window-width="3256"
   inkscape:window-height="1080"
   inkscape:window-x="1864"
   inkscape:window-y="0"
   inkscape:window-maximized="0"
   inkscape:current-layer="layer1" />
<defs
   id="defs2">
  <linearGradient
     id="linearGradient6"
     inkscape:collect="always">
    <stop
       style="stop-color:#ffffff;stop-opacity:1;"
       offset="0"
       id="stop7" />
    <stop
       style="stop-color:#2ad4ff;stop-opacity:0;"
       offset="1"
       id="stop8" />
  </linearGradient>
  <linearGradient
     id="linearGradient4"
     inkscape:collect="always">
    <stop
       style="stop-color:#ffffff;stop-opacity:1;"
       offset="0"
       id="stop5" />
    <stop
       style="stop-color:#2ad4ff;stop-opacity:0;"
       offset="1"
       id="stop6" />
  </linearGradient>
  <linearGradient
     id="linearGradient2"
     inkscape:collect="always">
    <stop
       style="stop-color:#ffffff;stop-opacity:1;"
       offset="0"
       id="stop4" />
    <stop
       style="stop-color:#ff00ff;stop-opacity:1;"
       offset="1"
       id="stop3" />
  </linearGradient>
  <linearGradient
     id="linearGradient1"
     inkscape:collect="always">
    <stop
       style="stop-color:#ffffff;stop-opacity:1;"
       offset="0"
       id="stop2" />
    <stop
       style="stop-color:#00ff00;stop-opacity:1;"
       offset="1"
       id="stop1" />
  </linearGradient>
  <linearGradient
     inkscape:collect="always"
     id="linearGradient49895">
    <stop
       style="stop-color:#000000;stop-opacity:1;"
       offset="0"
       id="stop49891" />
    <stop
       style="stop-color:#1a1a1a;stop-opacity:0;"
       offset="1"
       id="stop49893" />
  </linearGradient>
  <linearGradient
     inkscape:collect="always"
     id="linearGradient45917">
    <stop
       style="stop-color:#000000;stop-opacity:1;"
       offset="0"
       id="stop45913" />
    <stop
       style="stop-color:#000000;stop-opacity:0;"
       offset="1"
       id="stop45915" />
  </linearGradient>
  <linearGradient
     inkscape:collect="always"
     id="linearGradient43600">
    <stop
       style="stop-color:#000000;stop-opacity:1;"
       offset="0"
       id="stop43596" />
    <stop
       style="stop-color:#000000;stop-opacity:0;"
       offset="1"
       id="stop43598" />
  </linearGradient>
  <linearGradient
     inkscape:collect="always"
     id="linearGradient29040">
    <stop
       style="stop-color:#000000;stop-opacity:1;"
       offset="0"
       id="stop29036" />
    <stop
       style="stop-color:#000000;stop-opacity:0;"
       offset="1"
       id="stop29038" />
  </linearGradient>
  <linearGradient
     inkscape:collect="always"
     id="linearGradient12859">
    <stop
       style="stop-color:#020202;stop-opacity:1;"
       offset="0"
       id="stop12855" />
    <stop
       style="stop-color:#939393;stop-opacity:1;"
       offset="1"
       id="stop12857" />
  </linearGradient>
  <linearGradient
     inkscape:collect="always"
     id="linearGradient8106">
    <stop
       style="stop-color:#000000;stop-opacity:1;"
       offset="0"
       id="stop8102" />
    <stop
       style="stop-color:#ffffff;stop-opacity:1;"
       offset="1"
       id="stop8104" />
  </linearGradient>
  <linearGradient
     inkscape:collect="always"
     id="linearGradient6570">
    <stop
       style="stop-color:#f2f2f2;stop-opacity:1;"
       offset="0"
       id="stop6566" />
    <stop
       style="stop-color:#3d3d3d;stop-opacity:1;"
       offset="1"
       id="stop6568" />
  </linearGradient>
  <radialGradient
     inkscape:collect="always"
     xlink:href="#linearGradient6570"
     id="radialGradient6572"
     cx="11.139616"
     cy="-15.449535"
     fx="11.139616"
     fy="-15.449535"
     r="3.7041667"
     gradientUnits="userSpaceOnUse"
     gradientTransform="matrix(0,-0.96494832,0.96494832,0,28.292824,34.049672)" />
  <linearGradient
     inkscape:collect="always"
     xlink:href="#linearGradient8106"
     id="linearGradient8108"
     x1="11.256661"
     y1="22.93025"
     x2="11.256661"
     y2="15.521917"
     gradientUnits="userSpaceOnUse"
     gradientTransform="matrix(0.96494832,0,0,0.96494832,2.52273,4.7483337)" />
  <radialGradient
     inkscape:collect="always"
     xlink:href="#linearGradient6570"
     id="radialGradient6572-6"
     cx="11.139616"
     cy="-15.449535"
     fx="11.139616"
     fy="-15.449535"
     r="3.7041667"
     gradientUnits="userSpaceOnUse"
     gradientTransform="matrix(0,-0.96494832,0.96494832,0,28.292824,52.601062)" />
  <linearGradient
     inkscape:collect="always"
     xlink:href="#linearGradient8106"
     id="linearGradient9042"
     gradientUnits="userSpaceOnUse"
     x1="11.256661"
     y1="22.93025"
     x2="11.256661"
     y2="15.521917"
     gradientTransform="matrix(0.96494832,0,0,0.96494832,2.5227296,23.299724)" />
  <radialGradient
     inkscape:collect="always"
     xlink:href="#linearGradient6570"
     id="radialGradient6572-2"
     cx="11.139616"
     cy="-15.449535"
     fx="11.139616"
     fy="-15.449535"
     r="3.7041667"
     gradientUnits="userSpaceOnUse"
     gradientTransform="matrix(0,-0.96494832,0.96494832,0,46.164469,52.60106)" />
  <linearGradient
     inkscape:collect="always"
     xlink:href="#linearGradient8106"
     id="linearGradient9074"
     gradientUnits="userSpaceOnUse"
     x1="11.256661"
     y1="22.93025"
     x2="11.256661"
     y2="15.521917"
     gradientTransform="matrix(0.96494832,0,0,0.96494832,20.394376,23.299722)" />
  <filter
     inkscape:collect="always"
     style="color-interpolation-filters:sRGB"
     id="filter11317"
     x="-0.030717186"
     y="-0.030722814"
     width="1.0614344"
     height="1.0614456">
    <feGaussianBlur
       inkscape:collect="always"
       stdDeviation="0.38500363"
       id="feGaussianBlur11319" />
  </filter>
  <linearGradient
     inkscape:collect="always"
     xlink:href="#linearGradient12859"
     id="linearGradient12861"
     x1="18.546303"
     y1="46.089077"
     x2="17.578976"
     y2="12.548282"
     gradientUnits="userSpaceOnUse"
     gradientTransform="matrix(0.96494832,0,0,0.96494832,2.52273,4.7483337)" />
  <filter
     inkscape:collect="always"
     style="color-interpolation-filters:sRGB"
     id="filter15856"
     x="-0.011999999"
     y="-0.012"
     width="1.024"
     height="1.024">
    <feGaussianBlur
       inkscape:collect="always"
       stdDeviation="0.16770508"
       id="feGaussianBlur15858" />
  </filter>
  <linearGradient
     inkscape:collect="always"
     xlink:href="#linearGradient29040"
     id="linearGradient29042"
     x1="-123.12119"
     y1="117.53318"
     x2="-123.12119"
     y2="119.17988"
     gradientUnits="userSpaceOnUse"
     gradientTransform="matrix(1,0,0,0.90654823,191.00308,-54.032489)" />
  <linearGradient
     inkscape:collect="always"
     xlink:href="#linearGradient43600"
     id="linearGradient43602"
     x1="-14.541992"
     y1="-11.744141"
     x2="-14.541992"
     y2="-30.164062"
     gradientUnits="userSpaceOnUse"
     gradientTransform="translate(82.42387,63.731166)" />
  <linearGradient
     inkscape:collect="always"
     xlink:href="#linearGradient45917"
     id="linearGradient45919"
     x1="-58.223633"
     y1="28.5516"
     x2="-58.223633"
     y2="-3.4863281"
     gradientUnits="userSpaceOnUse"
     gradientTransform="translate(125.75282,4.05185)" />
  <linearGradient
     inkscape:collect="always"
     xlink:href="#linearGradient49895"
     id="linearGradient49897"
     x1="-80.689491"
     y1="139.3423"
     x2="-80.689491"
     y2="39.012726"
     gradientUnits="userSpaceOnUse"
     gradientTransform="translate(148.57139,-4.9245051)" />
  <radialGradient
     inkscape:collect="always"
     xlink:href="#linearGradient1"
     id="radialGradient2"
     cx="75.206306"
     cy="70.063622"
     fx="75.206306"
     fy="70.063622"
     r="15.191753"
     gradientTransform="matrix(1,0,0,1.6087548,0,-37.708789)"
     gradientUnits="userSpaceOnUse" />
  <radialGradient
     inkscape:collect="always"
     xlink:href="#linearGradient2"
     id="radialGradient4"
     cx="98.88517"
     cy="111.12981"
     fx="98.88517"
     fy="111.12981"
     r="18.701113"
     gradientTransform="matrix(1,0,0,1.2335781,0,-23.903596)"
     gradientUnits="userSpaceOnUse" />
  <radialGradient
     inkscape:collect="always"
     xlink:href="#linearGradient4"
     id="radialGradient6"
     cx="48.219109"
     cy="120.27613"
     fx="48.219109"
     fy="120.27613"
     r="8.3461809"
     gradientTransform="matrix(1,0,0,0.80565376,0,24.015496)"
     gradientUnits="userSpaceOnUse" />
  <radialGradient
     inkscape:collect="always"
     xlink:href="#linearGradient6"
     id="radialGradient8"
     cx="16.544905"
     cy="113.99748"
     fx="16.544905"
     fy="113.99748"
     r="8.3461809"
     gradientTransform="matrix(1,0,0,0.80565376,0,22.880635)"
     gradientUnits="userSpaceOnUse" />
  <filter
     inkscape:collect="always"
     style="color-interpolation-filters:sRGB"
     id="filter8"
     x="-0.027734843"
     y="-0.034425264"
     width="1.0554697"
     height="1.0688505">
    <feGaussianBlur
       inkscape:collect="always"
       stdDeviation="0.19290001"
       id="feGaussianBlur8" />
  </filter>
  <filter
     inkscape:collect="always"
     style="color-interpolation-filters:sRGB"
     id="filter9"
     x="-0.027734843"
     y="-0.034425264"
     width="1.0554697"
     height="1.0688505">
    <feGaussianBlur
       inkscape:collect="always"
       stdDeviation="0.19290001"
       id="feGaussianBlur9" />
  </filter>
</defs>
<g
   inkscape:label="Layer 1"
   inkscape:groupmode="layer"
   id="layer1">
  <rect
     style="display:inline;fill:#202028;fill-opacity:1;stroke-width:1.3276;stroke-linecap:round;stroke-linejoin:round;paint-order:stroke fill markers"
     id="rect792"
     width="130.71832"
     height="102.42732"
     x="2.5227325"
     y="33.039345"
     ry="8.6510534" />
  <path
     id="rect792-5"
     style="opacity:0.4;mix-blend-mode:luminosity;fill:url(#linearGradient49897);fill-opacity:1;stroke:none;stroke-width:1.3276;stroke-linecap:round;stroke-linejoin:round;paint-order:stroke fill markers"
     d="m 121.35264,34.112604 c -36.90342,-0.02314 -73.807792,-0.01117 -110.711182,0.0074 -3.7604896,0.177164 -7.0746696,3.574765 -7.0362496,7.364617 -0.0659,3.043881 0.005,6.090504 -0.0242,9.135808 0.003,25.610744 -0.0132,51.222271 0.0227,76.832521 0.2356,3.73168 3.6233,6.99454 7.3925296,6.93698 3.09807,0.0632 6.19885,-0.005 9.29824,0.0236 34.975842,-0.003 69.952475,0.0137 104.927822,-0.0227 3.71932,-0.23493 6.97473,-3.60059 6.9364,-7.35723 0.0659,-3.04388 -0.006,-6.0905 0.0242,-9.1358 -0.003,-25.6114 0.0133,-51.223579 -0.0228,-76.834477 -0.23572,-3.716911 -3.59371,-6.968498 -7.34744,-6.936818 -1.15206,-0.06792 -2.30702,-0.02756 -3.46005,-0.01387 z" />
  <g
     id="g13333"
     transform="matrix(0.96494832,0,0,0.96494832,2.52273,4.7483315)">
    <rect
       style="fill:#000000;stroke-width:1.37477;stroke-linecap:round;stroke-linejoin:round;paint-order:stroke fill markers"
       id="rect2354"
       width="135.46666"
       height="20.185192"
       x="2.7270507e-06"
       y="29.318678"
       ry="0" />
    <g
       id="g11818"
       transform="translate(5.4783385,49.50387)">
      <path
         id="rect5008"
         style="fill:#ffffff;stroke-width:1.0872;stroke-linecap:round;stroke-linejoin:round;paint-order:stroke fill markers"
         d="M 8.044501,-20.185191 H 25.313858 L 14.730525,1e-6 H -2.538832 Z"
         sodipodi:nodetypes="ccccc" />
      <path
         id="rect5008-7"
         style="fill:#ffffff;stroke-width:1.0872;stroke-linecap:round;stroke-linejoin:round;paint-order:stroke fill markers"
         d="M 42.583216,-20.185191 H 59.852574 L 49.269241,1e-6 H 31.999883 Z"
         sodipodi:nodetypes="ccccc" />
      <path
         id="rect5008-3"
         style="fill:#ffffff;stroke-width:1.06728;stroke-linecap:round;stroke-linejoin:round;paint-order:stroke fill markers"
         d="M 77.121932,-20.185191 H 93.764228 L 83.180895,1e-6 H 66.538599 Z"
         sodipodi:nodetypes="ccccc" />
      <path
         id="rect5008-7-2"
         style="fill:#ffffff;stroke-width:1.06728;stroke-linecap:round;stroke-linejoin:round;paint-order:stroke fill markers"
         d="m 110.40653,-20.185191 h 16.64229 L 116.46549,1e-6 H 99.823198 Z"
         sodipodi:nodetypes="ccccc" />
    </g>
  </g>
  <path
     id="rect2354-6"
     style="fill:url(#linearGradient43602);fill-opacity:1;stroke-width:1.32658;stroke-linecap:round;stroke-linejoin:round;paint-order:stroke fill markers;opacity:0.3"
     d="m 3.0527756,51.987025 c 43.2194014,0 86.4388024,0 129.6582044,0 0,-6.139974 0,-12.279948 0,-18.419921 -43.219402,-10e-7 -86.438803,0 -129.6582044,0 0,6.139973 0,12.279947 0,18.419921 z" />
  <path
     id="rect2354-1"
     style="mix-blend-mode:normal;fill:#ffffff;stroke-width:1.32658;stroke-linecap:round;stroke-linejoin:round;paint-order:stroke fill markers;opacity:0.12"
     d="m 2.5225756,33.039345 v 19.47788 H 133.24121 v -19.47788 z m 0.5302,0.529683 H 132.71101 V 51.987025 H 3.0527756 Z" />
  <rect
     style="fill:url(#linearGradient29042);fill-opacity:1;stroke-width:0.367255;stroke-linecap:round;stroke-linejoin:round;paint-order:stroke fill markers;opacity:0.6"
     id="rect2354-7"
     width="130.71832"
     height="1.4928142"
     x="2.5227327"
     y="52.517006"
     ry="0" />
  <g
     id="g18226"
     transform="matrix(0.95869353,-0.10969034,0.10969034,0.95869353,205.96347,-42.730449)"
     inkscape:transform-center-x="-54.143674"
     inkscape:transform-center-y="-6.7162898">
    <path
       id="rect2354-1-2"
       style="fill:#000000;stroke-width:1.37477;stroke-linecap:round;stroke-linejoin:round;paint-order:stroke fill markers"
       d="M -217.31593,-35.206636 V -45.29956 c 0,-5.591293 4.50163,-10.092407 10.09292,-10.092407 h 57.64041 57.640926 10.092407 v 10.092407 10.092924 H -91.941674 -207.22301 Z"
       transform="scale(1,-1)" />
    <g
       id="g11818-2-6"
       transform="matrix(1,0,0,-1,-211.83745,35.206824)">
      <path
         id="rect5008-70-1"
         style="fill:#ffffff;stroke-width:1.0872;stroke-linecap:round;stroke-linejoin:round;paint-order:stroke fill markers"
         d="M 8.044501,-20.185191 H 25.313858 L 14.730525,1e-6 H -2.538832 Z"
         sodipodi:nodetypes="ccccc" />
      <path
         id="rect5008-7-9-8"
         style="fill:#ffffff;stroke-width:1.0872;stroke-linecap:round;stroke-linejoin:round;paint-order:stroke fill markers"
         d="M 42.583216,-20.185191 H 59.852574 L 49.269241,1e-6 H 31.999883 Z"
         sodipodi:nodetypes="ccccc" />
      <path
         id="rect5008-3-3-7"
         style="fill:#ffffff;stroke-width:1.06728;stroke-linecap:round;stroke-linejoin:round;paint-order:stroke fill markers"
         d="M 77.121932,-20.185191 H 93.764228 L 83.180895,1e-6 H 66.538599 Z"
         sodipodi:nodetypes="ccccc" />
      <path
         id="rect5008-7-2-6-9"
         style="fill:#ffffff;stroke-width:1.06728;stroke-linecap:round;stroke-linejoin:round;paint-order:stroke fill markers"
         d="m 110.40653,-20.185191 h 16.64229 L 116.46549,1e-6 H 99.823198 Z"
         sodipodi:nodetypes="ccccc" />
    </g>
  </g>
  <path
     id="rect2354-1-2-5"
     style="fill:url(#linearGradient45919);fill-opacity:1;stroke-width:1.32658;stroke-linecap:round;stroke-linejoin:round;paint-order:stroke fill markers;opacity:0.3"
     d="M 121.74306,1.6123969 C 81.853081,6.1761932 41.963112,10.74004 2.073131,15.303803 c 0.41705,3.363438 0.70354,6.746644 1.20313,10.097656 0.79432,3.909755 4.39776,7.006394 8.38325,7.197292 2.15868,0.05652 4.29199,-0.412198 6.43838,-0.58857 38.295811,-4.381034 76.59158,-8.762468 114.887349,-13.143878 -0.69791,-6.10026 -1.39583,-12.2005207 -2.09375,-18.3007811 -3.04948,0.3489583 -6.09896,0.6979166 -9.14843,1.046875 z" />
  <path
     id="rect2354-1-2-3"
     style="fill:#ffffff;stroke-width:1.32658;stroke-linecap:round;stroke-linejoin:round;paint-order:stroke fill markers;opacity:0.1"
     d="M 131.35661,2.4838218e-4 121.68123,1.1071584 11.16188,13.75238 l -9.6758997,1.106911 1.10691,9.676411 c 0.6133101,5.360332 5.4224801,9.181779 10.7828007,8.568469 l 55.25968,-6.322611 55.260199,-6.322611 9.67537,-1.107426 -1.10691,-9.6753796 z M 130.89152,0.56558938 c 0.69792,6.10025402 1.39601,12.20043562 2.09393,18.30069162 -38.295736,4.381405 -76.591779,8.76287 -114.887559,13.1439 -2.14767,0.17567 -4.28209,0.647381 -6.441991,0.587561 C 7.6715904,32.407026 4.0688404,29.311418 3.2765704,25.401799 2.7767303,22.050745 2.4891103,18.667666 2.0714803,15.304225 41.961421,10.740465 81.851239,6.1763454 121.74118,1.6125534 c 3.05012,-0.348958 6.10021,-0.69800602 9.15034,-1.04696402 z" />
  <path
     style="color:#000000;mix-blend-mode:normal;fill:#000000;stroke-linecap:round;stroke-linejoin:round;paint-order:stroke fill markers;filter:url(#filter15856);opacity:0.40956318"
     d="m 11.252789,12.548171 c -4.1300962,0 -7.4765622,3.346473 -7.4765622,7.476563 v 18.115234 0.472656 c 0,4.13009 3.346527,7.476559 7.4765622,7.476563 h 0.47461 18.113281 c 4.130022,-4e-6 7.476558,-3.346477 7.476563,-7.476563 v -0.472656 c 0,-2.390271 -1.117941,-4.522451 -2.861329,-5.888672 l 0.06055,0.05469 -16.955078,-16.955079 0.05469,0.06055 C 16.25004,13.667031 14.118465,12.548173 11.727404,12.548173 Z m 0,1.376953 h 0.47461 c 1.963142,0 3.689691,0.912091 4.804687,2.335938 a 0.68798382,0.68798382 0 0 0 0.05664,0.0625 L 33.543805,33.27864 a 0.68798382,0.68798382 0 0 0 0.0625,0.05664 c 1.423056,1.11519 2.335938,2.842211 2.335938,4.804687 v 0.472656 c -4e-6,3.391635 -2.709866,6.10156 -6.101563,6.101563 h -18.113281 -0.47461 c -3.3917142,-3e-6 -6.1015622,-2.709922 -6.1015622,-6.101563 V 38.139968 20.024734 c 0,-3.391641 2.709915,-6.09961 6.1015622,-6.09961 z"
     id="path13672"
     transform="matrix(0.95263617,0,0,0.95263617,2.7757038,5.1093071)" />
  <path
     id="rect4308"
     style="fill:#1a1a1a;stroke:url(#linearGradient12861);stroke-width:0.52916666;stroke-linecap:round;stroke-linejoin:round;paint-order:stroke fill markers;stroke-dasharray:none"
     d="m 13.381279,17.52058 c -3.6290508,0 -6.5507753,2.921732 -6.550776,6.550776 v 17.479209 0.457263 c 7e-7,3.629045 2.9217252,6.550277 6.550779,6.55028 h 0.457264 l 17.478706,-3e-6 c 3.629039,-3e-6 6.550776,-2.921235 6.55078,-6.550275 l -10e-7,-0.457263 c 0,-2.100091 -0.979491,-3.961828 -2.50722,-5.159046 L 18.998582,20.029292 C 17.801548,18.500682 15.939336,17.52058 13.838543,17.52058 Z" />
  <path
     id="rect4308-9"
     style="mix-blend-mode:normal;fill:#000000;stroke-width:1.37583;stroke-linecap:round;stroke-linejoin:round;paint-order:stroke fill markers;filter:url(#filter11317);opacity:0.6"
     d="m 10.956274,14.305866 c -3.0918444,0.07239 -5.7347764,3.038785 -5.4254394,6.124217 -0.0028,6.297272 -0.05315,12.598157 0.03011,18.893177 0.28465,2.92822 3.150405,5.296821 6.0859554,5.009609 6.297212,0.0022 12.598273,0.05435 18.893088,-0.03102 2.868301,-0.276308 5.167688,-3.017147 5.042444,-5.88151 0.0547,-1.943282 -0.880524,-3.864672 -2.449266,-5.013663 -5.938019,-5.934431 -11.885287,-11.86416 -17.788218,-17.82933 -1.223823,-0.984577 -2.834259,-1.40817 -4.388672,-1.271485 z"
     transform="matrix(0.96494832,0,0,0.96494832,2.52273,4.7483315)" />
  <circle
     style="fill:url(#radialGradient6572);fill-opacity:1;stroke:url(#linearGradient8108);stroke-width:0.255309;stroke-linecap:round;stroke-linejoin:round;stroke-dasharray:none;paint-order:stroke fill markers"
     id="path5089"
     cx="13.384827"
     cy="23.30051"
     r="3.5743294" />
  <circle
     style="fill:url(#radialGradient6572-6);fill-opacity:1;stroke:url(#linearGradient9042);stroke-width:0.255309;stroke-linecap:round;stroke-linejoin:round;stroke-dasharray:none;paint-order:stroke fill markers"
     id="path5089-6"
     cx="13.384827"
     cy="41.851898"
     r="3.5743294" />
  <circle
     style="fill:url(#radialGradient6572-2);fill-opacity:1;stroke:url(#linearGradient9074);stroke-width:0.255309;stroke-linecap:round;stroke-linejoin:round;stroke-dasharray:none;paint-order:stroke fill markers"
     id="path5089-0"
     cx="31.256472"
     cy="41.851898"
     r="3.5743294" />
  <path
     d="m 8.6648295,58.934954 q 1.001371,0 1.4591405,0.393396 0.45777,0.393396 0.45777,1.108661 0,0.422006 -0.193122,0.793944 -0.185969,0.364785 -0.6365857,0.59367 Q 9.308568,62.05351 8.5432344,62.05351 H 7.9567171 v 1.988436 H 7.3129787 v -5.106992 z m -0.057221,0.550754 H 7.9567171 v 2.017048 h 0.5149908 q 0.7295703,0 1.0872028,-0.236038 0.3576325,-0.236037 0.3576325,-0.801097 0,-0.493532 -0.3147166,-0.736722 Q 9.28711,59.485708 8.6076083,59.485708 Z m 4.4417927,-0.550754 q 0.951302,0 1.401919,0.364786 0.45777,0.357632 0.45777,1.087202 0,0.407701 -0.150206,0.679502 -0.150206,0.271801 -0.386243,0.436312 -0.228885,0.157358 -0.48638,0.250342 l 1.401919,2.288848 h -0.751028 l -1.237408,-2.110031 h -1.015677 v 2.110031 h -0.643738 v -5.106992 z m -0.03576,0.557907 h -0.729571 v 1.895452 h 0.765334 q 0.62228,0 0.908386,-0.24319 0.286106,-0.250343 0.286106,-0.72957 0,-0.500686 -0.300411,-0.708112 -0.300411,-0.21458 -0.929844,-0.21458 z m 7.531738,1.988437 q 0,0.793944 -0.271801,1.387614 -0.264648,0.586517 -0.786791,0.915539 -0.522143,0.329022 -1.29463,0.329022 -0.793944,0 -1.32324,-0.329022 -0.522143,-0.329022 -0.779639,-0.922692 -0.257495,-0.59367 -0.257495,-1.387614 0,-0.786791 0.257495,-1.373309 0.257496,-0.586517 0.779639,-0.915539 0.529296,-0.329022 1.330393,-0.329022 0.765334,0 1.287477,0.329022 0.522143,0.321869 0.786791,0.915539 0.271801,0.586518 0.271801,1.380462 z m -4.034094,0 q 0,0.965607 0.407701,1.523514 0.407701,0.550754 1.273171,0.550754 0.872624,0 1.273172,-0.550754 0.400548,-0.557907 0.400548,-1.523514 0,-0.965608 -0.400548,-1.509209 -0.400548,-0.550754 -1.266019,-0.550754 -0.865471,0 -1.280324,0.550754 -0.407701,0.543601 -0.407701,1.509209 z m 9.25553,-0.04292 q 0,1.294629 -0.708113,1.952673 -0.700959,0.650891 -1.959826,0.650891 h -1.423377 v -5.106992 h 1.573583 q 0.772486,0 1.337546,0.286106 0.565059,0.286106 0.872623,0.844013 0.307564,0.550754 0.307564,1.373309 z m -0.679502,0.02146 q 0,-1.022829 -0.507838,-1.494904 -0.500686,-0.479228 -1.423377,-0.479228 h -0.83686 v 4.005484 h 0.693807 q 2.074268,0 2.074268,-2.031352 z m 1.344689,2.195863 q 0,-0.264648 0.128747,-0.371937 0.128748,-0.10729 0.307564,-0.10729 0.185969,0 0.314717,0.10729 0.1359,0.107289 0.1359,0.371937 0,0.257496 -0.1359,0.371938 -0.128748,0.114443 -0.314717,0.114443 -0.178816,0 -0.307564,-0.114443 -0.128747,-0.114442 -0.128747,-0.371938 z"
     id="text20917"
     style="font-size:7.15265px;line-height:1.25;fill:#ffffff;stroke-width:0.178817"
     aria-label="PROD." />
  <path
     d="m 10.538824,72.156167 q 0,0.679502 -0.493533,1.058593 -0.4935329,0.37909 -1.3303929,0.37909 -0.429159,0 -0.7939442,-0.06437 -0.3647851,-0.06437 -0.6079752,-0.178816 v -0.615128 q 0.2574954,0.114443 0.6365858,0.207427 0.3862431,0.09298 0.7939442,0.09298 0.572212,0 0.858318,-0.221732 0.2932586,-0.221732 0.2932586,-0.600822 0,-0.250343 -0.1072897,-0.422007 Q 9.6805058,71.619719 9.4158578,71.476666 9.1583624,71.32646 8.6934401,71.161949 8.042549,70.925912 7.7063744,70.582585 7.3773525,70.239257 7.3773525,69.645587 q 0,-0.407701 0.2074269,-0.693807 0.2074268,-0.293258 0.572212,-0.450617 0.3719378,-0.157358 0.8511653,-0.157358 0.4220064,0 0.7724862,0.07868 0.3504801,0.07868 0.6365861,0.207427 l -0.200274,0.550754 Q 9.9523065,69.066223 9.6375899,68.987544 9.330026,68.908864 8.9938514,68.908864 q -0.4792275,0 -0.7224176,0.207427 -0.2431901,0.200274 -0.2431901,0.536449 0,0.257495 0.1072897,0.429159 0.1072898,0.171664 0.3504799,0.307564 0.2431901,0.1359 0.6580438,0.293259 0.4506169,0.164511 0.7581809,0.357632 0.314717,0.185969 0.472075,0.450617 0.164511,0.264648 0.164511,0.665196 z m 3.218691,-3.247303 q -0.822555,0 -1.29463,0.550754 -0.472075,0.550755 -0.472075,1.50921 0,0.951302 0.436312,1.509209 0.443464,0.550754 1.32324,0.550754 0.336175,0 0.636586,-0.05722 0.300411,-0.05722 0.586517,-0.143053 v 0.557906 q -0.286106,0.10729 -0.59367,0.157359 -0.300411,0.05007 -0.722417,0.05007 -0.779639,0 -1.301783,-0.321869 -0.522143,-0.321869 -0.786791,-0.915539 -0.257495,-0.59367 -0.257495,-1.394767 0,-0.772486 0.278953,-1.359004 0.286106,-0.593669 0.83686,-0.922691 0.550754,-0.336175 1.337545,-0.336175 0.80825,0 1.409072,0.300411 l -0.257495,0.543602 q -0.236037,-0.10729 -0.529296,-0.193122 -0.286106,-0.08583 -0.629433,-0.08583 z m 5.185671,4.61346 h -2.853907 v -5.106992 h 2.853907 v 0.565059 h -2.210169 v 1.595041 h 2.081421 v 0.557907 h -2.081421 v 1.823925 h 2.210169 z m 5.171364,0 h -0.751028 l -2.732313,-4.241522 h -0.02861 q 0.01431,0.250343 0.03576,0.622281 0.02146,0.371938 0.02146,0.765333 v 2.853908 h -0.59367 v -5.106992 h 0.743876 l 2.725159,4.227216 h 0.02861 q -0.0072,-0.114443 -0.02146,-0.343328 -0.0072,-0.228884 -0.02146,-0.500685 -0.0072,-0.271801 -0.0072,-0.500686 v -2.882517 h 0.600823 z m 4.241523,0 h -2.853908 v -5.106992 h 2.853908 v 0.565059 h -2.210169 v 1.595041 h 2.081421 v 0.557907 h -2.081421 v 1.823925 h 2.210169 z m 0.944147,-3.447578 q 0,-0.2718 0.128748,-0.37909 0.128748,-0.10729 0.307564,-0.10729 0.185969,0 0.314717,0.10729 0.1359,0.10729 0.1359,0.37909 0,0.257496 -0.1359,0.371938 -0.128748,0.114443 -0.314717,0.114443 -0.178816,0 -0.307564,-0.114443 -0.128748,-0.114442 -0.128748,-0.371938 z m 0,3.061335 q 0,-0.264649 0.128748,-0.371938 0.128748,-0.10729 0.307564,-0.10729 0.185969,0 0.314717,0.10729 0.1359,0.107289 0.1359,0.371938 0,0.257495 -0.1359,0.371937 -0.128748,0.114443 -0.314717,0.114443 -0.178816,0 -0.307564,-0.114443 -0.128748,-0.114442 -0.128748,-0.371937 z"
     id="text20917-0"
     style="font-size:7.15265px;line-height:1.25;fill:#ffffff;stroke-width:0.178817"
     aria-label="SCENE:" />
  <g
     id="text20917-0-9"
     style="font-size:7.15265px;line-height:1.25;fill:#ffffff;stroke-width:0.178817"
     aria-label="DIRECTOR:&#10;&#10;CAM:&#10;&#10;DATE:">
    <path
       d="m 11.66179,90.463444 q 0,1.29463 -0.708113,1.952674 -0.700959,0.650891 -1.9598256,0.650891 H 7.5704741 V 87.960017 H 9.144057 q 0.7724862,0 1.337546,0.286106 0.565059,0.286106 0.872623,0.844013 0.307564,0.550754 0.307564,1.373308 z m -0.679502,0.02146 q 0,-1.022829 -0.507838,-1.494903 -0.5006856,-0.479228 -1.4233774,-0.479228 h -0.83686 v 4.005484 h 0.693807 q 2.0742684,0 2.0742684,-2.031353 z m 3.2473,2.582107 h -1.845384 v -0.371938 l 0.600823,-0.1359 v -4.084163 l -0.600823,-0.143053 v -0.371938 h 1.845384 v 0.371938 l -0.600823,0.143053 v 4.084163 l 0.600823,0.1359 z m 2.396143,-5.106992 q 0.951302,0 1.401919,0.364785 0.45777,0.357633 0.45777,1.087203 0,0.407701 -0.150206,0.679502 -0.150205,0.2718 -0.386243,0.436311 -0.228885,0.157359 -0.48638,0.250343 l 1.401919,2.288848 h -0.751028 l -1.237408,-2.110032 h -1.015677 v 2.110032 h -0.643738 v -5.106992 z m -0.03576,0.557907 h -0.729571 v 1.895452 h 0.765334 q 0.622281,0 0.908387,-0.24319 0.286106,-0.250343 0.286106,-0.729571 0,-0.500685 -0.300412,-0.708112 -0.300411,-0.214579 -0.929844,-0.214579 z m 5.929544,4.549085 h -2.853907 v -5.106992 h 2.853907 v 0.565059 h -2.210169 v 1.595041 h 2.081422 v 0.557907 h -2.081422 v 1.823926 h 2.210169 z m 3.311675,-4.613459 q -0.822554,0 -1.294629,0.550754 -0.472075,0.550754 -0.472075,1.509209 0,0.951302 0.436311,1.509209 0.443465,0.550754 1.323241,0.550754 0.336174,0 0.636586,-0.05722 0.300411,-0.05722 0.586517,-0.143053 v 0.557907 q -0.286106,0.107289 -0.59367,0.157358 -0.300411,0.05007 -0.722418,0.05007 -0.779639,0 -1.301782,-0.321869 -0.522143,-0.321869 -0.786792,-0.915539 -0.257495,-0.59367 -0.257495,-1.394767 0,-0.772486 0.278953,-1.359003 0.286106,-0.59367 0.83686,-0.922692 0.550754,-0.336175 1.337546,-0.336175 0.808249,0 1.409072,0.300412 l -0.257495,0.543601 q -0.236038,-0.10729 -0.529296,-0.193121 -0.286106,-0.08583 -0.629434,-0.08583 z m 3.948264,4.613459 h -0.643739 v -4.541933 h -1.595041 v -0.565059 h 3.826668 v 0.565059 h -1.587888 z m 6.673416,-2.560649 q 0,0.793944 -0.2718,1.387614 -0.264648,0.586518 -0.786792,0.91554 -0.522143,0.329021 -1.294629,0.329021 -0.793945,0 -1.323241,-0.329021 -0.522143,-0.329022 -0.779639,-0.922692 -0.257495,-0.59367 -0.257495,-1.387614 0,-0.786792 0.257495,-1.373309 0.257496,-0.586517 0.779639,-0.915539 0.529296,-0.329022 1.330393,-0.329022 0.765334,0 1.287477,0.329022 0.522144,0.321869 0.786792,0.915539 0.2718,0.586517 0.2718,1.380461 z m -4.034094,0 q 0,0.965608 0.407701,1.523515 0.407701,0.550754 1.273172,0.550754 0.872623,0 1.273171,-0.550754 0.400549,-0.557907 0.400549,-1.523515 0,-0.965607 -0.400549,-1.509209 -0.400548,-0.550754 -1.266019,-0.550754 -0.86547,0 -1.280324,0.550754 -0.407701,0.543602 -0.407701,1.509209 z m 6.573285,-2.546343 q 0.951303,0 1.40192,0.364785 0.457769,0.357633 0.457769,1.087203 0,0.407701 -0.150205,0.679502 -0.150206,0.2718 -0.386243,0.436311 -0.228885,0.157359 -0.486381,0.250343 l 1.40192,2.288848 h -0.751029 l -1.237408,-2.110032 h -1.015676 v 2.110032 h -0.643739 v -5.106992 z m -0.03576,0.557907 h -0.72957 v 1.895452 h 0.765333 q 0.622281,0 0.908387,-0.24319 0.286106,-0.250343 0.286106,-0.729571 0,-0.500685 -0.300411,-0.708112 -0.300412,-0.214579 -0.929845,-0.214579 z m 2.896823,1.101508 q 0,-0.271801 0.128748,-0.379091 0.128747,-0.107289 0.307564,-0.107289 0.185968,0 0.314716,0.107289 0.135901,0.10729 0.135901,0.379091 0,0.257495 -0.135901,0.371938 -0.128748,0.114442 -0.314716,0.114442 -0.178817,0 -0.307564,-0.114442 -0.128748,-0.114443 -0.128748,-0.371938 z m 0,3.061334 q 0,-0.264648 0.128748,-0.371938 0.128747,-0.10729 0.307564,-0.10729 0.185968,0 0.314716,0.10729 0.135901,0.10729 0.135901,0.371938 0,0.257495 -0.135901,0.371938 -0.128748,0.114442 -0.314716,0.114442 -0.178817,0 -0.307564,-0.114442 -0.128748,-0.114443 -0.128748,-0.371938 z"
       id="path18" />
    <path
       d="m 9.7591849,106.33517 q -0.8225547,0 -1.2946296,0.55076 -0.4720749,0.55075 -0.4720749,1.50921 0,0.9513 0.4363116,1.50921 0.4434643,0.55075 1.3232403,0.55075 0.3361747,0 0.6365857,-0.0572 0.300411,-0.0572 0.586517,-0.14305 v 0.5579 q -0.286106,0.10729 -0.59367,0.15736 -0.300411,0.0501 -0.7224172,0.0501 -0.7796388,0 -1.3017823,-0.32187 -0.5221434,-0.32187 -0.7867914,-0.91554 -0.2574954,-0.59367 -0.2574954,-1.39476 0,-0.77249 0.2789533,-1.35901 0.286106,-0.59367 0.83686,-0.92269 0.5507541,-0.33617 1.3375456,-0.33617 0.8082494,0 1.4090724,0.30041 l -0.257496,0.5436 q -0.236037,-0.10729 -0.529296,-0.19312 -0.286106,-0.0858 -0.6294331,-0.0858 z m 5.5361511,4.61346 -0.615128,-1.58073 h -2.0242 l -0.607975,1.58073 h -0.650892 l 1.99559,-5.12845 h 0.579364 l 1.988437,5.12845 z m -1.380462,-3.69792 q -0.02146,-0.0572 -0.07153,-0.20742 -0.05007,-0.15021 -0.100137,-0.30757 -0.04292,-0.16451 -0.07153,-0.25034 -0.05007,0.22173 -0.114442,0.43631 -0.06437,0.20743 -0.10729,0.32902 l -0.579365,1.54498 h 1.616499 z m 4.999702,3.69792 -1.680873,-4.47756 h -0.02861 q 0.02146,0.22174 0.03576,0.60083 0.01431,0.37194 0.01431,0.77964 v 3.09709 h -0.59367 v -5.10699 h 0.951302 l 1.573583,4.1843 h 0.02861 l 1.602193,-4.1843 h 0.94415 v 5.10699 h -0.636586 v -3.14001 q 0,-0.37194 0.01431,-0.73672 0.02146,-0.36479 0.03576,-0.59367 h -0.02861 l -1.70233,4.4704 z m 4.05555,-3.44757 q 0,-0.2718 0.128748,-0.37909 0.128748,-0.10729 0.307564,-0.10729 0.185969,0 0.314716,0.10729 0.135901,0.10729 0.135901,0.37909 0,0.25749 -0.135901,0.37193 -0.128747,0.11445 -0.314716,0.11445 -0.178816,0 -0.307564,-0.11445 -0.128748,-0.11444 -0.128748,-0.37193 z m 0,3.06133 q 0,-0.26465 0.128748,-0.37194 0.128748,-0.10729 0.307564,-0.10729 0.185969,0 0.314716,0.10729 0.135901,0.10729 0.135901,0.37194 0,0.2575 -0.135901,0.37194 -0.128747,0.11444 -0.314716,0.11444 -0.178816,0 -0.307564,-0.11444 -0.128748,-0.11444 -0.128748,-0.37194 z"
       id="path19" />
    <path
       d="m 11.66179,126.22669 q 0,1.29463 -0.708113,1.95268 -0.700959,0.65089 -1.9598256,0.65089 H 7.5704741 v -5.10699 H 9.144057 q 0.7724862,0 1.337546,0.2861 0.565059,0.28611 0.872623,0.84402 0.307564,0.55075 0.307564,1.3733 z m -0.679502,0.0215 q 0,-1.02283 -0.507838,-1.4949 -0.5006856,-0.47923 -1.4233774,-0.47923 h -0.83686 v 4.00548 h 0.693807 q 2.0742684,0 2.0742684,-2.03135 z m 4.870948,2.58211 -0.615128,-1.58074 h -2.0242 l -0.607975,1.58074 h -0.650891 l 1.995589,-5.12845 h 0.579365 l 1.988437,5.12845 z m -1.380461,-3.69792 q -0.02146,-0.0572 -0.07153,-0.20743 -0.05007,-0.1502 -0.100137,-0.30756 -0.04292,-0.16451 -0.07153,-0.25035 -0.05007,0.22174 -0.114443,0.43632 -0.06437,0.20742 -0.10729,0.32902 l -0.579364,1.54497 h 1.616499 z m 3.862432,3.69792 h -0.643738 v -4.54193 h -1.595041 v -0.56506 h 3.826668 v 0.56506 h -1.587889 z m 5.21428,0 H 20.69558 v -5.10699 h 2.853907 v 0.56506 h -2.210169 v 1.59504 h 2.081422 v 0.5579 h -2.081422 v 1.82393 h 2.210169 z m 0.944149,-3.44758 q 0,-0.2718 0.128748,-0.37909 0.128748,-0.10729 0.307564,-0.10729 0.185969,0 0.314716,0.10729 0.135901,0.10729 0.135901,0.37909 0,0.2575 -0.135901,0.37194 -0.128747,0.11444 -0.314716,0.11444 -0.178816,0 -0.307564,-0.11444 -0.128748,-0.11444 -0.128748,-0.37194 z m 0,3.06134 q 0,-0.26465 0.128748,-0.37194 0.128748,-0.10729 0.307564,-0.10729 0.185969,0 0.314716,0.10729 0.135901,0.10729 0.135901,0.37194 0,0.25749 -0.135901,0.37193 -0.128747,0.11445 -0.314716,0.11445 -0.178816,0 -0.307564,-0.11445 -0.128748,-0.11444 -0.128748,-0.37193 z"
       id="path20" />
  </g>
  <path
     d="M 70.46358,73.472252 H 69.819842 V 68.930319 H 68.224801 V 68.36526 h 3.826668 v 0.565059 H 70.46358 Z m 5.064077,0 -0.615128,-1.580736 h -2.0242 l -0.607975,1.580736 h -0.650891 l 1.995589,-5.12845 h 0.579365 l 1.988436,5.12845 z m -1.380462,-3.69792 q -0.02146,-0.05722 -0.07153,-0.207427 -0.05007,-0.150206 -0.100137,-0.307564 -0.04292,-0.164511 -0.07153,-0.250343 -0.05007,0.221733 -0.114442,0.436312 -0.06437,0.207427 -0.10729,0.329022 l -0.579364,1.544972 h 1.616498 z m 6.480301,3.69792 h -0.758181 l -1.809621,-2.439054 -0.522143,0.45777 v 1.981284 H 76.893813 V 68.36526 h 0.643738 v 2.517733 q 0.21458,-0.24319 0.436312,-0.486381 0.221732,-0.24319 0.443464,-0.48638 l 1.380461,-1.544972 h 0.751029 l -2.0242,2.224474 z m 3.54771,0 H 81.321299 V 68.36526 h 2.853907 v 0.565059 h -2.210169 v 1.595041 h 2.081422 v 0.557907 h -2.081422 v 1.823926 h 2.210169 z m 0.944147,-3.447577 q 0,-0.271801 0.128748,-0.379091 0.128748,-0.10729 0.307564,-0.10729 0.185969,0 0.314717,0.10729 0.1359,0.10729 0.1359,0.379091 0,0.257495 -0.1359,0.371937 -0.128748,0.114443 -0.314717,0.114443 -0.178816,0 -0.307564,-0.114443 -0.128748,-0.114442 -0.128748,-0.371937 z m 0,3.061334 q 0,-0.264648 0.128748,-0.371938 0.128748,-0.10729 0.307564,-0.10729 0.185969,0 0.314717,0.10729 0.1359,0.10729 0.1359,0.371938 0,0.257495 -0.1359,0.371938 -0.128748,0.114442 -0.314717,0.114442 -0.178816,0 -0.307564,-0.114442 -0.128748,-0.114443 -0.128748,-0.371938 z"
     id="text20917-0-3"
     style="font-size:7.15265px;line-height:1.25;fill:#ffffff;stroke-width:0.178817"
     aria-label="TAKE:" />
  <path
     d="m 71.122055,102.39716 -1.680873,-4.477555 h -0.02861 q 0.02146,0.221732 0.03576,0.600822 0.0143,0.371938 0.0143,0.779639 v 3.097094 h -0.59367 v -5.106989 h 0.951303 l 1.573583,4.184299 h 0.02861 l 1.602194,-4.184299 h 0.94415 v 5.106989 h -0.636586 v -3.14001 q 0,-0.371938 0.01431,-0.736723 0.02146,-0.364785 0.03576,-0.59367 h -0.02861 l -1.702331,4.470403 z m 7.088273,0 h -2.853907 v -5.106989 h 2.853907 v 0.56506 h -2.210169 v 1.595041 h 2.081422 v 0.557908 h -2.081422 v 1.82392 h 2.210169 z m 5.21428,-2.603561 q 0,1.294631 -0.708112,1.952671 -0.70096,0.65089 -1.959826,0.65089 h -1.423378 v -5.106989 h 1.573583 q 0.772487,0 1.337546,0.286106 0.565059,0.286106 0.872623,0.844013 0.307564,0.550754 0.307564,1.373309 z m -0.679502,0.02146 q 0,-1.022829 -0.507838,-1.494904 -0.500685,-0.479228 -1.423377,-0.479228 h -0.83686 v 4.005485 h 0.693807 q 2.074268,0 2.074268,-2.031353 z m 3.2473,2.582103 h -1.845384 v -0.37193 l 0.600823,-0.1359 v -4.084168 l -0.600823,-0.143053 v -0.371938 h 1.845384 v 0.371938 l -0.600823,0.143053 v 4.084168 l 0.600823,0.1359 z m 4.191458,0 -0.615128,-1.58073 h -2.0242 l -0.607976,1.58073 h -0.650891 l 1.99559,-5.128447 h 0.579364 l 1.988437,5.128447 z m -1.380462,-3.697917 q -0.02146,-0.05722 -0.07153,-0.207426 -0.05007,-0.150206 -0.100138,-0.307564 -0.04291,-0.164511 -0.07153,-0.250343 -0.05007,0.221732 -0.114442,0.436312 -0.06437,0.207426 -0.10729,0.329021 l -0.579365,1.544977 h 1.616499 z m 2.567801,0.250343 q 0,-0.271801 0.128748,-0.37909 0.128748,-0.10729 0.307564,-0.10729 0.185969,0 0.314717,0.10729 0.1359,0.107289 0.1359,0.37909 0,0.257496 -0.1359,0.371938 -0.128748,0.114442 -0.314717,0.114442 -0.178816,0 -0.307564,-0.114442 -0.128748,-0.114442 -0.128748,-0.371938 z m 0,3.061334 q 0,-0.26465 0.128748,-0.37194 0.128748,-0.10729 0.307564,-0.10729 0.185969,0 0.314717,0.10729 0.1359,0.10729 0.1359,0.37194 0,0.2575 -0.1359,0.37194 -0.128748,0.11444 -0.314717,0.11444 -0.178816,0 -0.307564,-0.11444 -0.128748,-0.11444 -0.128748,-0.37194 z"
     id="text20917-0-3-4"
     style="font-size:7.15265px;line-height:1.25;fill:#ffffff;stroke-width:0.178817"
     aria-label="MEDIA:" />
  <rect
     style="fill:#ffffff;stroke:none;stroke-width:0.194894;stroke-linecap:round;stroke-linejoin:round;stroke-dasharray:none;stroke-opacity:1;paint-order:stroke fill markers"
     id="rect21021"
     width="120.84071"
     height="1.0267183"
     x="7.3129759"
     y="65.729584"
     ry="0.51335913" />
  <rect
     style="fill:#ffffff;stroke:none;stroke-width:0.194894;stroke-linecap:round;stroke-linejoin:round;stroke-dasharray:none;stroke-opacity:1;paint-order:stroke fill markers"
     id="rect21021-2"
     width="120.84071"
     height="1.0267183"
     x="7.553175"
     y="94.65451"
     ry="0.51335913" />
  <rect
     style="fill:#ffffff;stroke:none;stroke-width:0.194894;stroke-linecap:round;stroke-linejoin:round;stroke-dasharray:none;stroke-opacity:1;paint-order:stroke fill markers"
     id="rect21021-2-8"
     width="120.84071"
     height="1.0267183"
     x="7.3129787"
     y="112.61047"
     ry="0.51335913" />
  <g
     id="g1"
     style="display:none">
    <path
       style="baseline-shift:baseline;display:inline;overflow:visible;fill:#2ad4ff;stroke:#ffffff;stroke-width:3.175;stroke-linecap:round;stroke-linejoin:round;stroke-miterlimit:12;stroke-dasharray:none;stroke-opacity:1;paint-order:markers stroke fill;enable-background:accumulate;stop-color:#000000"
       d="m 23.085535,81.394033 v 29.856317 c -1.298245,-0.54687 -2.74097,-0.83247 -4.20538,-0.83249 -5.020244,-9e-5 -9.0900017,3.28475 -9.0899437,7.33681 -5.8e-5,4.05205 4.0696997,7.33689 9.0899437,7.33679 5.020134,-2e-5 9.08972,-3.28483 9.08966,-7.33679 v -2.9e-4 -30.44095 l 26.592352,4.789731 V 117.0752 c -1.298242,-0.54688 -2.740968,-0.83248 -4.205378,-0.83248 -5.020245,-1.1e-4 -9.090001,3.28474 -9.089941,7.33679 -6e-5,4.05206 4.069696,7.3369 9.089941,7.33681 5.020132,-4e-5 9.089721,-3.28485 9.089659,-7.33681 v -2.8e-4 -35.325236 z"
       id="path12" />
    <path
       id="path98"
       style="display:inline;fill:url(#radialGradient4);fill-opacity:1;stroke:#ffffff;stroke-width:3.175;stroke-linecap:round;stroke-linejoin:round;stroke-dasharray:none;stroke-opacity:1;paint-order:markers stroke fill"
       d="m 114.69731,80.855278 c -0.66669,-0.01696 -1.27166,0.570622 -1.39103,1.380886 l -4.28937,29.117666 c -1.79673,-1.97855 -4.62737,-3.15448 -7.64115,-3.17467 -5.29227,-0.0351 -9.605476,3.43722 -9.634084,7.75586 -0.02866,4.31858 4.238014,7.84799 9.530204,7.88316 4.8482,0.0302 8.95027,-2.89995 9.55452,-6.82413 0.0125,-0.0527 0.0229,-0.10664 0.031,-0.16154 l 3.55609,-24.139775 c 0.008,-0.04945 0.12137,-0.826702 0.23435,-1.59528 2.02664,1.870317 6.85719,1.928074 8.47722,3.495449 1.71027,1.654681 2.76709,6.339066 2.76709,6.339066 0,0 0.54062,-5.63157 -1.24923,-7.830216 -1.78977,-2.198525 -5.87333,-4.170721 -7.58374,-5.825341 -0.61735,-0.597278 -1.07931,-1.520544 -1.41982,-2.455846 0.15989,-0.963625 0.28412,-1.805273 0.2662,-2.263777 0,0 -0.002,9.31e-4 -0.002,9.31e-4 0.097,-0.83995 -0.37142,-1.587413 -1.07245,-1.690778 -0.0449,-0.0066 -0.0899,-0.0106 -0.13428,-0.01175 z" />
    <path
       id="path103"
       style="display:inline;fill:url(#radialGradient2);fill-opacity:1;stroke:#ffffff;stroke-width:3.175;stroke-linecap:round;stroke-linejoin:round;stroke-dasharray:none;stroke-opacity:1;paint-order:markers stroke fill"
       d="m 77.816982,39.153627 c -0.631077,0.215659 -0.994304,0.976785 -0.824813,1.778064 l 6.091076,28.794714 c -2.372072,-1.231317 -5.434935,-1.350877 -8.268091,-0.323031 -4.974993,1.805191 -7.813633,6.559492 -6.340471,10.619203 1.4731,4.05967 6.700016,5.88741 11.674932,4.08226 4.556788,-1.65578 7.385826,-5.82809 6.589479,-9.717839 -0.0067,-0.05379 -0.0155,-0.107954 -0.02694,-0.162305 l -5.04975,-23.872047 c -0.0094,-0.04924 -0.173322,-0.817392 -0.334329,-1.577357 2.550077,1.049965 7.099967,-0.573664 9.163538,0.333451 2.178508,0.957631 4.796554,4.983326 4.796554,4.983326 0,0 -1.449034,-5.468748 -3.891115,-6.908839 -2.441946,-1.440023 -6.95628,-1.871095 -9.134913,-2.828625 -0.786362,-0.345674 -1.540233,-1.05101 -2.184401,-1.809817 -0.184774,-0.95916 -0.360606,-1.791557 -0.536667,-2.215291 0,0 -0.0014,0.0015 -0.0014,0.0015 -0.200796,-0.821344 -0.899628,-1.359597 -1.592929,-1.21303 -0.04433,0.0094 -0.0879,0.02123 -0.130003,0.03563 z" />
    <ellipse
       style="fill:url(#radialGradient8);fill-opacity:1;stroke:none;stroke-width:3.175;stroke-linecap:round;stroke-linejoin:round;stroke-miterlimit:12;stroke-dasharray:none;stroke-opacity:1;paint-order:markers stroke fill;filter:url(#filter8)"
       id="path4"
       cx="18.904249"
       cy="117.7313"
       rx="8.3461809"
       ry="6.7241321" />
    <ellipse
       style="fill:url(#radialGradient6);fill-opacity:1;stroke:none;stroke-width:3.175;stroke-linecap:round;stroke-linejoin:round;stroke-miterlimit:12;stroke-dasharray:none;stroke-opacity:1;paint-order:markers stroke fill;filter:url(#filter9)"
       id="ellipse4"
       cx="50.342518"
       cy="123.57068"
       rx="8.3461809"
       ry="6.7241321" />
  </g>
</g>
<metadata
   id="metadata1">
  <rdf:RDF>
    <cc:Work
       rdf:about="">
      <dc:creator>
        <cc:Agent>
          <dc:title>Jess Tipton</dc:title>
        </cc:Agent>
      </dc:creator>
      <dc:publisher>
        <cc:Agent>
          <dc:title>m0dw3rks.com</dc:title>
        </cc:Agent>
      </dc:publisher>
      <cc:license
         rdf:resource="https://creativecommons.org/licenses/by-nc-nd/4.0/deed.en" />
    </cc:Work>
  </rdf:RDF>
</metadata>
<metadata
   id="metadata6">
  <rdf:RDF>
    <cc:Work
       rdf:about="">
      <dc:creator>
        <cc:Agent>
          <dc:title>Jess Tipton</dc:title>
        </cc:Agent>
      </dc:creator>
      <cc:license
         rdf:resource="https://creativecommons.org/licenses/by-nc-nd/4.0/deed.en" />
      <dc:publisher>
        <cc:Agent>
          <dc:title>m0dw3rks.com</dc:title>
        </cc:Agent>
      </dc:publisher>
    </cc:Work>
  </rdf:RDF>
</metadata>
<metadata
   id="metadata2">
  <rdf:RDF>
    <cc:Work
       rdf:about="">
      <dc:creator>
        <cc:Agent>
          <dc:title>Jess Tipton</dc:title>
        </cc:Agent>
      </dc:creator>
      <cc:license
         rdf:resource="https://creativecommons.org/licenses/by-nc-nd/4.0/deed.en" />
      <dc:publisher>
        <cc:Agent>
          <dc:title>m0dw3rks.com</dc:title>
        </cc:Agent>
      </dc:publisher>
    </cc:Work>
  </rdf:RDF>
</metadata>
<metadata
   id="metadata3">
  <rdf:RDF>
    <cc:Work
       rdf:about="">
      <dc:creator>
        <cc:Agent>
          <dc:title>Jess Tipton</dc:title>
        </cc:Agent>
      </dc:creator>
      <cc:license
         rdf:resource="https://creativecommons.org/licenses/by-nc-nd/4.0/deed.en" />
      <dc:publisher>
        <cc:Agent>
          <dc:title>m0dw3rks.com</dc:title>
        </cc:Agent>
      </dc:publisher>
    </cc:Work>
  </rdf:RDF>
</metadata>
<metadata
   id="metadata4">
  <rdf:RDF>
    <cc:Work
       rdf:about="">
      <dc:creator>
        <cc:Agent>
          <dc:title>Jess Tipton</dc:title>
        </cc:Agent>
      </dc:creator>
      <cc:license
         rdf:resource="https://creativecommons.org/licenses/by-nc-nd/4.0/deed.en" />
      <dc:publisher>
        <cc:Agent>
          <dc:title>m0dw3rks.com</dc:title>
        </cc:Agent>
      </dc:publisher>
    </cc:Work>
  </rdf:RDF>
</metadata>
<metadata
   id="metadata5">
  <rdf:RDF>
    <cc:Work
       rdf:about="">
      <dc:creator>
        <cc:Agent>
          <dc:title>Jess Tipton</dc:title>
        </cc:Agent>
      </dc:creator>
      <cc:license
         rdf:resource="https://creativecommons.org/licenses/by-nc-nd/4.0/deed.en" />
      <dc:publisher>
        <cc:Agent>
          <dc:title>m0dw3rks.com</dc:title>
        </cc:Agent>
      </dc:publisher>
    </cc:Work>
  </rdf:RDF>
</metadata>
<metadata
   id="metadata7">
  <rdf:RDF>
    <cc:Work
       rdf:about="">
      <dc:creator>
        <cc:Agent>
          <dc:title>Jess Tipton</dc:title>
        </cc:Agent>
      </dc:creator>
      <cc:license
         rdf:resource="https://creativecommons.org/licenses/by-nc-nd/4.0/deed.en" />
      <dc:publisher>
        <cc:Agent>
          <dc:title>m0dw3rks.com</dc:title>
        </cc:Agent>
      </dc:publisher>
    </cc:Work>
  </rdf:RDF>
</metadata>
<metadata
   id="metadata8">
  <rdf:RDF>
    <cc:Work
       rdf:about="">
      <dc:creator>
        <cc:Agent>
          <dc:title>Jess Tipton</dc:title>
        </cc:Agent>
      </dc:creator>
      <cc:license
         rdf:resource="https://creativecommons.org/licenses/by-nc-nd/4.0/deed.en" />
      <dc:publisher>
        <cc:Agent>
          <dc:title>m0dw3rks.com</dc:title>
        </cc:Agent>
      </dc:publisher>
    </cc:Work>
  </rdf:RDF>
</metadata>
<metadata
   id="metadata9">
  <rdf:RDF>
    <cc:Work
       rdf:about="">
      <dc:creator>
        <cc:Agent>
          <dc:title>Jess Tipton</dc:title>
        </cc:Agent>
      </dc:creator>
      <cc:license
         rdf:resource="https://creativecommons.org/licenses/by-nc-nd/4.0/deed.en" />
      <dc:publisher>
        <cc:Agent>
          <dc:title>m0dw3rks.com</dc:title>
        </cc:Agent>
      </dc:publisher>
    </cc:Work>
  </rdf:RDF>
</metadata>
<metadata
   id="metadata10">
  <rdf:RDF>
    <cc:Work
       rdf:about="">
      <dc:creator>
        <cc:Agent>
          <dc:title>Jess Tipton</dc:title>
        </cc:Agent>
      </dc:creator>
      <cc:license
         rdf:resource="https://creativecommons.org/licenses/by-nc-nd/4.0/deed.en" />
      <dc:publisher>
        <cc:Agent>
          <dc:title>m0dw3rks.com</dc:title>
        </cc:Agent>
      </dc:publisher>
    </cc:Work>
  </rdf:RDF>
</metadata>
<metadata
   id="metadata11">
  <rdf:RDF>
    <cc:Work
       rdf:about="">
      <dc:creator>
        <cc:Agent>
          <dc:title>Jess Tipton</dc:title>
        </cc:Agent>
      </dc:creator>
      <cc:license
         rdf:resource="https://creativecommons.org/licenses/by-nc-nd/4.0/deed.en" />
      <dc:publisher>
        <cc:Agent>
          <dc:title>m0dw3rks.com</dc:title>
        </cc:Agent>
      </dc:publisher>
    </cc:Work>
  </rdf:RDF>
</metadata>
<metadata
   id="metadata12">
  <rdf:RDF>
    <cc:Work
       rdf:about="">
      <dc:creator>
        <cc:Agent>
          <dc:title>Jess Tipton</dc:title>
        </cc:Agent>
      </dc:creator>
      <cc:license
         rdf:resource="https://creativecommons.org/licenses/by-nc-nd/4.0/deed.en" />
      <dc:publisher>
        <cc:Agent>
          <dc:title>m0dw3rks.com</dc:title>
        </cc:Agent>
      </dc:publisher>
    </cc:Work>
  </rdf:RDF>
</metadata>
<metadata
   id="metadata13">
  <rdf:RDF>
    <cc:Work
       rdf:about="">
      <dc:creator>
        <cc:Agent>
          <dc:title>Jess Tipton</dc:title>
        </cc:Agent>
      </dc:creator>
      <cc:license
         rdf:resource="https://creativecommons.org/licenses/by-nc-nd/4.0/deed.en" />
      <dc:publisher>
        <cc:Agent>
          <dc:title>m0dw3rks.com</dc:title>
        </cc:Agent>
      </dc:publisher>
    </cc:Work>
  </rdf:RDF>
</metadata>
<metadata
   id="metadata14">
  <rdf:RDF>
    <cc:Work
       rdf:about="">
      <dc:creator>
        <cc:Agent>
          <dc:title>Jess Tipton</dc:title>
        </cc:Agent>
      </dc:creator>
      <cc:license
         rdf:resource="https://creativecommons.org/licenses/by-nc-nd/4.0/deed.en" />
      <dc:publisher>
        <cc:Agent>
          <dc:title>m0dw3rks.com</dc:title>
        </cc:Agent>
      </dc:publisher>
    </cc:Work>
  </rdf:RDF>
</metadata>
<metadata
   id="metadata15">
  <rdf:RDF>
    <cc:Work
       rdf:about="">
      <dc:creator>
        <cc:Agent>
          <dc:title>Jess Tipton</dc:title>
        </cc:Agent>
      </dc:creator>
      <cc:license
         rdf:resource="https://creativecommons.org/licenses/by-nc-nd/4.0/deed.en" />
      <dc:publisher>
        <cc:Agent>
          <dc:title>m0dw3rks.com</dc:title>
        </cc:Agent>
      </dc:publisher>
    </cc:Work>
  </rdf:RDF>
</metadata>
<metadata
   id="metadata16">
  <rdf:RDF>
    <cc:Work
       rdf:about="">
      <dc:creator>
        <cc:Agent>
          <dc:title>Jess Tipton</dc:title>
        </cc:Agent>
      </dc:creator>
      <cc:license
         rdf:resource="https://creativecommons.org/licenses/by-nc-nd/4.0/deed.en" />
      <dc:publisher>
        <cc:Agent>
          <dc:title>m0dw3rks.com</dc:title>
        </cc:Agent>
      </dc:publisher>
    </cc:Work>
  </rdf:RDF>
</metadata>
<metadata
   id="metadata17">
  <rdf:RDF>
    <cc:Work
       rdf:about="">
      <dc:creator>
        <cc:Agent>
          <dc:title>Jess Tipton</dc:title>
        </cc:Agent>
      </dc:creator>
      <cc:license
         rdf:resource="https://creativecommons.org/licenses/by-nc-nd/4.0/deed.en" />
      <dc:publisher>
        <cc:Agent>
          <dc:title>m0dw3rks.com</dc:title>
        </cc:Agent>
      </dc:publisher>
    </cc:Work>
  </rdf:RDF>
</metadata>
<metadata
   id="metadata18">
  <rdf:RDF>
    <cc:Work
       rdf:about="">
      <dc:creator>
        <cc:Agent>
          <dc:title>Jess Tipton</dc:title>
        </cc:Agent>
      </dc:creator>
      <cc:license
         rdf:resource="https://creativecommons.org/licenses/by-nc-nd/4.0/deed.en" />
      <dc:publisher>
        <cc:Agent>
          <dc:title>m0dw3rks.com</dc:title>
        </cc:Agent>
      </dc:publisher>
    </cc:Work>
  </rdf:RDF>
</metadata>
</svg>
