<?xml version="1.0" encoding="UTF-8" standalone="no"?>
<!-- Created with Inkscape (http://www.inkscape.org/) -->

<svg
   width="512"
   height="512"
   viewBox="0 0 135.46666 135.46667"
   version="1.1"
   id="svg5"
   inkscape:version="1.2.1 (9c6d41e410, 2022-07-14, custom)"
   sodipodi:docname="emblem-urgent.svg"
   xmlns:inkscape="http://www.inkscape.org/namespaces/inkscape"
   xmlns:sodipodi="http://sodipodi.sourceforge.net/DTD/sodipodi-0.dtd"
   xmlns:xlink="http://www.w3.org/1999/xlink"
   xmlns="http://www.w3.org/2000/svg"
   xmlns:svg="http://www.w3.org/2000/svg">
  <sodipodi:namedview
     id="namedview7"
     pagecolor="#505050"
     bordercolor="#ffffff"
     borderopacity="1"
     inkscape:showpageshadow="0"
     inkscape:pageopacity="0"
     inkscape:pagecheckerboard="1"
     inkscape:deskcolor="#505050"
     inkscape:document-units="px"
     showgrid="false"
     inkscape:zoom="0.79296875"
     inkscape:cx="189.16256"
     inkscape:cy="255.36946"
     inkscape:window-width="3252"
     inkscape:window-height="1076"
     inkscape:window-x="1864"
     inkscape:window-y="0"
     inkscape:window-maximized="0"
     inkscape:current-layer="layer1" />
  <defs
     id="defs2">
    <linearGradient
       inkscape:collect="always"
       id="linearGradient28174">
      <stop
         style="stop-color:#e6e6e6;stop-opacity:1;"
         offset="0"
         id="stop28170" />
      <stop
         style="stop-color:#ffffff;stop-opacity:1;"
         offset="1"
         id="stop28172" />
    </linearGradient>
    <radialGradient
       inkscape:collect="always"
       xlink:href="#linearGradient28174"
       id="radialGradient28176"
       cx="67.73333"
       cy="67.73333"
       fx="67.73333"
       fy="67.73333"
       r="67.73333"
       gradientUnits="userSpaceOnUse" />
  </defs>
  <g
     inkscape:label="Layer 1"
     inkscape:groupmode="layer"
     id="layer1">
    <circle
       style="fill:url(#radialGradient28176);fill-opacity:1;stroke-width:6.8;stroke-linecap:round;stroke-linejoin:round;paint-order:stroke fill markers"
       id="path27730"
       cx="67.73333"
       cy="67.73333"
       r="67.73333" />
    <path
       id="rect28257"
       style="fill:#000000;stroke-width:6.8;stroke-linecap:round;stroke-linejoin:round;paint-order:stroke fill markers"
       inkscape:transform-center-x="-1.4305115e-06"
       inkscape:transform-center-y="-58.178705"
       d="M 67.733332 0 C 66.394197 6.2665858e-16 65.315909 1.0782878 65.315909 2.4174235 L 65.315909 16.692004 C 65.315909 18.03114 66.394197 19.109428 67.733332 19.109428 C 69.072468 19.109428 70.150756 18.03114 70.150756 16.692004 L 70.150756 2.4174235 C 70.150756 1.0782878 69.072468 0 67.733332 0 z M 35.011299 8.7493366 C 34.621821 8.7598569 34.22908 8.8651414 33.866666 9.0743814 C 32.706941 9.7439492 32.312398 11.21678 32.981966 12.376505 L 40.119514 24.739058 C 40.789082 25.898784 42.261396 26.293326 43.421122 25.623759 C 44.580847 24.954191 44.97539 23.48136 44.305822 22.321635 L 37.16879 9.9590819 C 36.708462 9.1617706 35.868152 8.7261921 35.011299 8.7493366 z M 100.33858 8.7493366 C 99.522856 8.7668671 98.737279 9.198012 98.297875 9.9590819 L 91.160843 22.321635 C 90.491275 23.48136 90.885818 24.954191 92.045543 25.623759 C 93.205269 26.293326 94.677583 25.898784 95.347151 24.739058 L 102.4847 12.376505 C 103.15427 11.21678 102.75972 9.7439492 101.6 9.0743814 C 101.20134 8.8442175 100.76586 8.740154 100.33858 8.7493366 z M 11.115084 32.656404 C 10.299363 32.673935 9.5137853 33.105596 9.0743814 33.866666 C 8.4048135 35.026392 8.7993564 36.499222 9.9590819 37.16879 L 22.321635 44.305822 C 23.48136 44.97539 24.954191 44.580847 25.623759 43.421122 C 26.293326 42.261396 25.898784 40.789082 24.739058 40.119514 L 12.376505 32.981966 C 11.97785 32.751802 11.542366 32.647222 11.115084 32.656404 z M 124.35158 32.656404 C 123.9243 32.647222 123.48882 32.751802 123.09016 32.981966 L 110.72761 40.119514 C 109.56788 40.789082 109.17334 42.261396 109.84291 43.421122 C 110.51247 44.580847 111.9853 44.97539 113.14503 44.305822 L 125.50758 37.16879 C 126.66731 36.499222 127.06185 35.026392 126.39228 33.866666 C 125.95288 33.105596 125.1673 32.673935 124.35158 32.656404 z M 2.4174235 65.315909 C 1.0782878 65.315909 0 66.394197 0 67.733332 C 0 69.072468 1.0782878 70.150756 2.4174235 70.150756 L 16.692004 70.150756 C 18.03114 70.150756 19.109428 69.072468 19.109428 67.733332 C 19.109428 66.394197 18.03114 65.315909 16.692004 65.315909 L 2.4174235 65.315909 z M 118.77466 65.315909 C 117.43553 65.315909 116.35724 66.394197 116.35724 67.733332 C 116.35724 69.072468 117.43553 70.150756 118.77466 70.150756 L 133.04924 70.150756 C 134.38838 70.150756 135.46666 69.072468 135.46666 67.733332 C 135.46666 66.394197 134.38838 65.315909 133.04924 65.315909 L 118.77466 65.315909 z M 23.466784 90.835281 C 23.077306 90.845802 22.684049 90.951603 22.321635 91.160843 L 9.9590819 98.297875 C 8.7993564 98.967443 8.4048135 100.44027 9.0743814 101.6 C 9.7439492 102.75972 11.21678 103.15427 12.376505 102.4847 L 24.739058 95.347151 C 25.898784 94.677583 26.293326 93.205269 25.623759 92.045543 C 25.163431 91.248232 24.323637 90.812137 23.466784 90.835281 z M 111.88361 90.835281 C 111.06789 90.852812 110.28231 91.284473 109.84291 92.045543 C 109.17334 93.205269 109.56788 94.677583 110.72761 95.347151 L 123.09016 102.4847 C 124.24989 103.15427 125.72272 102.75972 126.39228 101.6 C 127.06185 100.44027 126.66731 98.967443 125.50758 98.297875 L 113.14503 91.160843 C 112.74637 90.930679 112.31089 90.826099 111.88361 90.835281 z M 42.1597 109.51786 C 41.343979 109.53539 40.558918 109.96654 40.119514 110.72761 L 32.981966 123.09016 C 32.312398 124.24989 32.706941 125.72272 33.866666 126.39228 C 35.026392 127.06185 36.499222 126.66731 37.16879 125.50758 L 44.305822 113.14503 C 44.97539 111.9853 44.580847 110.51247 43.421122 109.84291 C 43.022466 109.61274 42.586982 109.50868 42.1597 109.51786 z M 93.190176 109.51786 C 92.800698 109.52838 92.407958 109.63367 92.045543 109.84291 C 90.885818 110.51247 90.491275 111.9853 91.160843 113.14503 L 98.297875 125.50758 C 98.967443 126.66731 100.44027 127.06185 101.6 126.39228 C 102.75972 125.72272 103.15427 124.24989 102.4847 123.09016 L 95.347151 110.72761 C 94.886823 109.9303 94.047029 109.49472 93.190176 109.51786 z M 67.733332 116.35724 C 66.394197 116.35724 65.315909 117.43553 65.315909 118.77466 L 65.315909 133.04924 C 65.315909 134.38838 66.394197 135.46666 67.733332 135.46666 C 69.072468 135.46666 70.150756 134.38838 70.150756 133.04924 L 70.150756 118.77466 C 70.150756 117.43553 69.072468 116.35724 67.733332 116.35724 z " />
    <circle
       style="opacity:1;mix-blend-mode:normal;fill:#fff6d5;stroke-width:8.13155;stroke-linecap:round;stroke-linejoin:round;paint-order:stroke fill markers;fill-opacity:1"
       id="path44326"
       cx="67.73333"
       cy="67.73333"
       r="52.916664" />
    <path
       id="rect38523"
       style="stroke-width:6.8;stroke-linecap:round;stroke-linejoin:round;paint-order:stroke fill markers;fill:#aa0000"
       d="m 31.622849,23.536752 42.926557,41.910531 -2.194258,7.942808 -8.220813,0.566748 z"
       sodipodi:nodetypes="ccccc"
       inkscape:transform-center-y="-18.986535"
       inkscape:transform-center-x="14.647203" />
    <path
       id="rect38523-3"
       style="fill:#800000;stroke-width:6.8;stroke-linecap:round;stroke-linejoin:round;paint-order:stroke fill markers"
       d="m 66.270073,21.531615 9.163734,43.471806 -7.460863,10.295503 -8.097397,-9.802755 z"
       sodipodi:nodetypes="ccccc"
       inkscape:transform-center-y="-19.318062"
       inkscape:transform-center-x="0.078652851" />
    <circle
       style="fill:#ffffff;stroke-width:3.67929;stroke-linecap:round;stroke-linejoin:round;paint-order:stroke fill markers"
       id="path42781"
       cx="67.73333"
       cy="67.73333"
       r="1.9012268" />
  </g>
</svg>
