<?xml version="1.0" encoding="UTF-8" standalone="no"?>
<!-- Created with Inkscape (http://www.inkscape.org/) -->

<svg
   width="512"
   height="512"
   viewBox="0 0 135.46666 135.46667"
   version="1.1"
   id="svg5"
   inkscape:version="1.4 (e7c3feb100, 2024-10-09)"
   sodipodi:docname="dialog-information.svg"
   xmlns:inkscape="http://www.inkscape.org/namespaces/inkscape"
   xmlns:sodipodi="http://sodipodi.sourceforge.net/DTD/sodipodi-0.dtd"
   xmlns:xlink="http://www.w3.org/1999/xlink"
   xmlns="http://www.w3.org/2000/svg"
   xmlns:svg="http://www.w3.org/2000/svg">
  <sodipodi:namedview
     id="namedview7"
     pagecolor="#292929"
     bordercolor="#666666"
     borderopacity="1"
     inkscape:showpageshadow="0"
     inkscape:pageopacity="0"
     inkscape:pagecheckerboard="1"
     inkscape:deskcolor="#1a1a1a"
     inkscape:document-units="px"
     showgrid="false"
     inkscape:zoom="1.84375"
     inkscape:cx="327.32204"
     inkscape:cy="167.32204"
     inkscape:window-width="3256"
     inkscape:window-height="1080"
     inkscape:window-x="1864"
     inkscape:window-y="0"
     inkscape:window-maximized="0"
     inkscape:current-layer="layer1" />
  <defs
     id="defs2">
    <linearGradient
       id="linearGradient16"
       inkscape:collect="always">
      <stop
         style="stop-color:#ff0000;stop-opacity:0;"
         offset="0"
         id="stop17" />
      <stop
         style="stop-color:#ff0000;stop-opacity:1;"
         offset="1"
         id="stop16" />
    </linearGradient>
    <linearGradient
       id="linearGradient5"
       inkscape:collect="always">
      <stop
         style="stop-color:#ffff00;stop-opacity:1;"
         offset="0"
         id="stop11" />
      <stop
         style="stop-color:#ff8f00;stop-opacity:1;"
         offset="1"
         id="stop12" />
    </linearGradient>
    <linearGradient
       id="linearGradient4"
       inkscape:collect="always">
      <stop
         style="stop-color:#ffff00;stop-opacity:1;"
         offset="0"
         id="stop1" />
      <stop
         style="stop-color:#ffd500;stop-opacity:0;"
         offset="1"
         id="stop2" />
    </linearGradient>
    <linearGradient
       id="linearGradient3"
       inkscape:collect="always">
      <stop
         style="stop-color:#a3a29d;stop-opacity:1;"
         offset="0"
         id="stop4" />
      <stop
         style="stop-color:#a3a29d;stop-opacity:0;"
         offset="1"
         id="stop5" />
    </linearGradient>
    <linearGradient
       id="linearGradient2"
       inkscape:collect="always">
      <stop
         style="stop-color:#000000;stop-opacity:1;"
         offset="0"
         id="stop3" />
      <stop
         style="stop-color:#ffffff;stop-opacity:1;"
         offset="0.2"
         id="stop7" />
      <stop
         style="stop-color:#000000;stop-opacity:1;"
         offset="0.40365851"
         id="stop8" />
      <stop
         style="stop-color:#ffffff;stop-opacity:1;"
         offset="0.60454738"
         id="stop9" />
      <stop
         style="stop-color:#000000;stop-opacity:1;"
         offset="0.79727012"
         id="stop10" />
      <stop
         style="stop-color:#ffffff;stop-opacity:1;"
         offset="1"
         id="stop6" />
    </linearGradient>
    <radialGradient
       inkscape:collect="always"
       xlink:href="#linearGradient3"
       id="radialGradient5"
       cx="-48.167593"
       cy="69.900219"
       fx="-48.167593"
       fy="69.900219"
       r="58.181169"
       gradientTransform="matrix(1,0,0,0.73426648,0,18.574832)"
       gradientUnits="userSpaceOnUse" />
    <filter
       inkscape:collect="always"
       style="color-interpolation-filters:sRGB"
       id="filter5"
       x="-0.059936253"
       y="-0.081627752"
       width="1.1198725"
       height="1.1632555">
      <feGaussianBlur
         inkscape:collect="always"
         stdDeviation="2.9059676"
         id="feGaussianBlur5" />
    </filter>
    <linearGradient
       inkscape:collect="always"
       xlink:href="#linearGradient2"
       id="linearGradient12"
       x1="-115.90609"
       y1="73.075233"
       x2="19.570906"
       y2="73.075233"
       gradientUnits="userSpaceOnUse" />
    <linearGradient
       inkscape:collect="always"
       xlink:href="#linearGradient2"
       id="linearGradient13"
       gradientUnits="userSpaceOnUse"
       x1="-114.84776"
       y1="18.272375"
       x2="18.512569"
       y2="127.87809"
       gradientTransform="translate(115.90093,-5.3418975)" />
    <radialGradient
       inkscape:collect="always"
       xlink:href="#linearGradient4"
       id="radialGradient13"
       gradientUnits="userSpaceOnUse"
       gradientTransform="matrix(1,0,0,0.88736357,115.90093,2.5314144)"
       cx="-48.167591"
       cy="69.900223"
       fx="-48.167591"
       fy="69.900223"
       r="58.181169" />
    <radialGradient
       inkscape:collect="always"
       xlink:href="#linearGradient5"
       id="radialGradient12"
       cx="67.763794"
       cy="57.056698"
       fx="67.763794"
       fy="57.056698"
       r="67.578692"
       gradientTransform="matrix(1,0,0,1.0022884,0,-0.15500172)"
       gradientUnits="userSpaceOnUse" />
    <filter
       inkscape:collect="always"
       style="color-interpolation-filters:sRGB"
       id="filter15"
       x="-0.030396846"
       y="-0.037696424"
       width="1.0607937"
       height="1.0753928">
      <feGaussianBlur
         inkscape:collect="always"
         stdDeviation="0.75136624"
         id="feGaussianBlur15" />
    </filter>
    <radialGradient
       inkscape:collect="always"
       xlink:href="#linearGradient16"
       id="radialGradient17"
       cx="67.733341"
       cy="53.904205"
       fx="67.733341"
       fy="53.904205"
       r="66.36162"
       gradientTransform="matrix(1,0,0,0.62688897,0,20.112253)"
       gradientUnits="userSpaceOnUse" />
  </defs>
  <g
     inkscape:label="Layer 1"
     inkscape:groupmode="layer"
     id="layer1">
    <g
       id="g12"
       transform="translate(115.90093,-5.3418975)"
       style="display:none"
       sodipodi:insensitive="true">
      <path
         id="path1"
         style="fill:#c2c2c2;fill-opacity:1;stroke:url(#linearGradient12);stroke-width:1.79705;stroke-linecap:round;stroke-linejoin:round;stroke-dasharray:none;stroke-dashoffset:83.2;stroke-opacity:1;paint-order:markers stroke fill"
         d="m -48.167598,18.27258 a 66.680244,41.210663 0 0 0 -66.680162,41.210921 66.680244,41.210663 0 0 0 66.680162,41.210409 66.680244,41.210663 0 0 0 0.06976,-0.003 c 4.283311,14.63905 25.170912,27.18712 40.160334,27.18697 2.6826,-0.0131 5.35166,-0.38147 7.9375,-1.09554 -13.22858,-3.58092 -22.421198,-15.57622 -22.439452,-29.280899 4e-6,-0.0029 -5e-6,-0.0058 0,-0.0088 A 66.680244,41.210663 0 0 0 18.51257,59.483501 66.680244,41.210663 0 0 0 -48.167598,18.27258 Z" />
      <path
         id="path2"
         style="fill:url(#radialGradient5);stroke-width:2.11667;stroke-linecap:round;stroke-linejoin:round;stroke-dashoffset:83.2;paint-order:markers stroke fill;filter:url(#filter5)"
         d="m -49.911404,27.184273 c -13.44324,0.351423 -27.11857,3.053198 -38.97417,9.668213 -5.87325,3.296711 -11.355036,7.707459 -14.789506,13.5896 -1.20788,2.138595 -2.07643,4.454353 -2.45268,6.806987 -0.92277,5.28426 1.13843,10.833558 4.42694,15.058472 3.737946,4.832361 8.769866,8.487229 14.112686,11.330637 11.4844,6.026197 24.55025,8.57334 37.40046,8.967568 2.56013,0.02051 5.40094,0.187939 7.38174,2.025789 1.82051,1.500012 2.72391,3.743063 3.55621,5.878531 2.34711,5.04657 6.51395,8.8616 11.02937,11.98207 0.60479,0.5018 -0.13777,-0.60881 -0.14582,-0.87723 -1.90017,-4.95004 -2.86381,-10.35511 -2.2191,-15.645066 0.85854,-3.598104 4.22752,-6.148623 7.77161,-6.755699 8.65316,-2.535444 17.2494598,-6.334481 24.0497198,-12.461316 3.63202,-3.301596 6.72731,-7.361348 8.0997,-12.150341 1.4290002,-4.670305 0.50409,-9.815853 -1.88856,-14.005189 C 4.4532858,45.3149 -0.29538422,41.25324 -5.3860142,38.06318 -13.933134,32.833309 -23.622674,29.790426 -33.540224,28.284761 c -5.41447,-0.818683 -10.87014,-1.148427 -16.37118,-1.100488 z" />
    </g>
    <path
       id="path14"
       style="font-style:normal;font-variant:normal;font-weight:normal;font-stretch:normal;font-size:152.65px;line-height:1.25;font-family:'Arabic Typesetting';-inkscape-font-specification:'Arabic Typesetting, Normal';font-variant-ligatures:normal;font-variant-caps:normal;font-variant-numeric:normal;font-variant-east-asian:normal;display:none;fill:#000000;fill-opacity:1;stroke:none;stroke-width:0.264582"
       d="m 67.397952,25.54211 c -1.639793,0 -2.956849,0.521775 -3.950663,1.565279 -0.993814,0.993814 -1.490348,2.310354 -1.490348,3.950147 0,1.639793 0.496534,2.981572 1.490348,4.025077 0.993814,0.993814 2.31087,1.490865 3.950663,1.490865 1.739175,0 3.105678,-0.497051 4.099492,-1.490865 1.043505,-1.043505 1.565279,-2.385284 1.565279,-4.025077 0,-1.639793 -0.521774,-2.956333 -1.565279,-3.950147 C 70.50363,26.063885 69.137127,25.54211 67.397952,25.54211 Z m 4.173906,18.112589 c -0.546598,0.248454 -1.366603,0.521444 -2.459798,0.819588 -1.043505,0.298145 -2.260634,0.621615 -3.651974,0.96945 -1.341649,0.347835 -2.807562,0.695512 -4.397664,1.043347 l -4.621423,0.894519 0.223759,2.161626 c 1.490721,0.248453 2.683126,0.49672 3.577559,0.745174 0.944123,0.248453 1.639995,0.596131 2.087211,1.043347 0.496907,0.447216 0.819861,1.068401 0.968933,1.863452 0.149072,0.795051 0.223759,1.888047 0.223759,3.279386 v 19.603455 c 0,1.888246 -0.09941,3.403606 -0.298173,4.546492 -0.149072,1.093196 -0.497266,1.962647 -1.043864,2.608626 -0.546598,0.64598 -1.316639,1.118307 -2.310453,1.416451 -0.944123,0.248454 -2.235939,0.447274 -3.875732,0.596346 l 0.148828,2.384868 c 1.391339,0 3.006626,-0.02472 4.845182,-0.07441 1.838556,-0.04969 3.726833,-0.07441 5.66477,-0.07441 2.385154,0 4.695795,0.02472 6.931877,0.07441 2.236082,0.04969 4.149082,0.07441 5.739184,0.07441 l 0.148828,-2.757971 C 77.634111,84.773473 76.193439,84.64934 75.149934,84.500268 74.106429,84.351195 73.311148,84.078205 72.76455,83.680679 72.267643,83.283154 71.944689,82.736656 71.795617,82.040986 71.646545,81.295626 71.571858,80.326247 71.571858,79.13367 V 59.381904 56.251346 c 0.04969,-1.242267 0.09965,-2.5346 0.149345,-3.876249 0.04969,-1.39134 0.123861,-2.782566 0.223242,-4.173905 0.09938,-1.39134 0.224032,-2.707879 0.373104,-3.950147 z"
       sodipodi:nodetypes="scscssscsccccccccssscscccsssccsccscccscc"
       sodipodi:insensitive="true" />
    <path
       id="path12"
       style="fill:url(#radialGradient12);fill-opacity:1;stroke:url(#linearGradient13);stroke-width:1.79705;stroke-linecap:round;stroke-linejoin:round;stroke-dasharray:none;stroke-dashoffset:83.2;stroke-opacity:1;paint-order:markers stroke fill"
       d="M 67.733332 12.930477 A 66.680244 41.210663 0 0 0 1.0531657 54.141397 A 66.680244 41.210663 0 0 0 67.733332 95.351801 A 66.680244 41.210663 0 0 0 67.803096 95.349218 C 72.086402 109.98825 92.974024 122.53634 107.96343 122.53619 C 110.64603 122.52309 113.3151 122.15472 115.90093 121.44065 C 102.67237 117.85973 93.479732 105.86441 93.461478 92.159748 C 93.461482 92.156848 93.461473 92.153963 93.461478 92.150963 A 66.680244 41.210663 0 0 0 134.4135 54.141397 A 66.680244 41.210663 0 0 0 67.733332 12.930477 z M 67.397952 22.896277 C 69.137126 22.896277 70.503631 23.418053 71.497444 24.461556 C 72.540948 25.455369 73.062723 26.771911 73.062723 28.411702 C 73.062723 30.051493 72.540948 31.393275 71.497444 32.436779 C 70.503631 33.430592 69.137126 33.927644 67.397952 33.927644 C 65.758161 33.927644 64.441102 33.430592 63.447289 32.436779 C 62.453476 31.393275 61.956941 30.051493 61.956941 28.411702 C 61.956941 26.771911 62.453476 25.455369 63.447289 24.461556 C 64.441102 23.418053 65.758161 22.896277 67.397952 22.896277 z M 71.571858 41.008866 L 72.317549 41.605212 C 72.168477 42.847479 72.043825 44.16402 71.944445 45.555358 C 71.845064 46.946696 71.770893 48.337925 71.721203 49.729264 C 71.671508 51.070911 71.621548 52.363247 71.571858 53.605513 L 71.571858 56.736071 L 71.571858 76.487837 C 71.571858 77.680413 71.646545 78.649794 71.795617 79.395153 C 71.944689 80.090822 72.267643 80.637321 72.76455 81.034846 C 73.311147 81.432372 74.10643 81.705361 75.149934 81.854434 C 76.193438 82.003506 77.634113 82.127641 79.472667 82.227021 L 79.323839 84.984992 C 77.733739 84.984992 75.820735 84.960268 73.584655 84.910578 C 71.348575 84.860888 69.03793 84.836164 66.652778 84.836164 C 64.714843 84.836164 62.826562 84.860888 60.988008 84.910578 C 59.149454 84.960268 57.534163 84.984992 56.142826 84.984992 L 55.993998 82.600125 C 57.633789 82.451053 58.925608 82.252233 59.86973 82.003779 C 60.863543 81.705635 61.633586 81.233307 62.180183 80.587328 C 62.726781 79.94135 63.074975 79.071897 63.224047 77.978702 C 63.42281 76.835817 63.52222 75.320453 63.52222 73.432209 L 63.52222 53.828755 C 63.52222 52.437417 63.447533 51.344419 63.298461 50.549369 C 63.149389 49.754318 62.826435 49.133132 62.329528 48.685917 C 61.882312 48.238701 61.186439 47.891022 60.242317 47.642569 C 59.347885 47.394116 58.155477 47.145848 56.664758 46.897395 L 56.440999 44.73577 L 61.062422 43.841251 C 62.652522 43.493416 64.118439 43.145739 65.460086 42.797904 C 66.851425 42.450069 68.068556 42.126599 69.11206 41.828454 C 70.205254 41.53031 71.02526 41.25732 71.571858 41.008866 z " />
    <path
       id="path13"
       style="display:none;fill:url(#radialGradient13);stroke-width:2.11667;stroke-linecap:round;stroke-linejoin:round;stroke-dashoffset:83.2;paint-order:markers stroke fill;filter:url(#filter5)"
       d="m 65.98977,21.842594 c -13.443227,0.351422 -27.118777,3.053135 -38.974365,9.668144 -5.873244,3.296707 -11.355328,7.707215 -14.789795,13.589351 -1.207879,2.138593 -2.076314,4.454705 -2.4525632,6.807336 -0.9227691,5.284255 1.1386132,10.833086 4.4271202,15.057996 3.737942,4.832356 8.770018,8.487687 14.112833,11.331091 11.484389,6.026191 24.550104,8.573183 37.400301,8.967411 2.560127,0.02051 5.400663,0.187867 7.381461,2.025716 1.820508,1.50001 2.724073,3.743246 3.556372,5.878711 2.347108,5.04656 6.513886,8.86123 11.029301,11.9817 0.60479,0.5018 -0.137677,-0.60853 -0.145727,-0.87695 -1.900169,-4.95004 -2.863696,-10.355091 -2.218986,-15.645041 0.858539,-3.598102 4.227532,-6.148584 7.771618,-6.75566 8.65316,-2.535441 17.24944,-6.334426 24.04969,-12.461255 3.63202,-3.301594 6.72738,-7.361692 8.09977,-12.150679 1.429,-4.670301 0.50387,-9.815498 -1.88877,-14.00483 C 120.35412,39.97324 115.60532,35.911573 110.5147,32.721517 101.96759,27.491651 92.278403,24.448449 82.360863,22.942785 76.946399,22.124103 71.490804,21.794654 65.98977,21.842594 Z m 1.408182,1.053683 c 1.739174,0 3.105679,0.521776 4.099492,1.565279 1.043504,0.993813 1.565279,2.310355 1.565279,3.950146 0,1.639791 -0.521775,2.981573 -1.565279,4.025077 -0.993813,0.993813 -2.360318,1.490865 -4.099492,1.490865 -1.639791,0 -2.95685,-0.497052 -3.950663,-1.490865 -0.993813,-1.043504 -1.490348,-2.385286 -1.490348,-4.025077 0,-1.639791 0.496535,-2.956333 1.490348,-3.950146 0.993813,-1.043503 2.310872,-1.565279 3.950663,-1.565279 z m 4.173906,18.112589 0.745691,0.596346 c -0.149072,1.242267 -0.273724,2.558808 -0.373104,3.950146 -0.09938,1.391338 -0.173552,2.782567 -0.223242,4.173906 -0.04969,1.341647 -0.09965,2.633983 -0.149345,3.876249 v 3.130558 19.751766 c 0,1.192576 0.07469,2.161957 0.223759,2.907316 0.149072,0.695669 0.472026,1.242168 0.968933,1.639693 0.546597,0.397526 1.34188,0.670515 2.385384,0.819588 1.043504,0.149072 2.484179,0.273207 4.322733,0.372587 l -0.148828,2.757971 c -1.5901,0 -3.503104,-0.02472 -5.739184,-0.07441 -2.23608,-0.04969 -4.546725,-0.07441 -6.931877,-0.07441 -1.937935,0 -3.826216,0.02472 -5.66477,0.07441 -1.838554,0.04969 -3.453845,0.07441 -4.845182,0.07441 l -0.148828,-2.384867 c 1.639791,-0.149072 2.93161,-0.347892 3.875732,-0.596346 0.993813,-0.298144 1.763856,-0.770472 2.310453,-1.416451 0.546598,-0.645978 0.894792,-1.515431 1.043864,-2.608626 0.198763,-1.142885 0.298173,-2.658249 0.298173,-4.546493 V 53.828755 c 0,-1.391338 -0.07469,-2.484336 -0.223759,-3.279386 -0.149072,-0.795051 -0.472026,-1.416237 -0.968933,-1.863452 -0.447216,-0.447216 -1.143089,-0.794895 -2.087211,-1.043348 -0.894432,-0.248453 -2.08684,-0.496721 -3.577559,-0.745174 l -0.223759,-2.161625 4.621423,-0.894519 c 1.5901,-0.347835 3.056017,-0.695512 4.397664,-1.043347 1.391339,-0.347835 2.60847,-0.671305 3.651974,-0.96945 1.093194,-0.298144 1.9132,-0.571134 2.459798,-0.819588 z" />
    <path
       id="path15"
       style="opacity:0.14;fill:url(#radialGradient17);fill-opacity:1;stroke:none;stroke-width:3.31068;stroke-linecap:round;stroke-linejoin:round;stroke-dashoffset:83.2;paint-order:markers stroke fill;filter:url(#filter15)"
       d="M 4.7170247,45.653544 C 3.7363689,48.378167 3.2195395,51.158896 3.175,53.950195 3.2430905,74.734649 29.035103,92.017319 62.499544,93.70229 60.790124,93.362939 59.085462,92.979529 57.389778,92.553006 27.998236,84.636571 6.0495384,65.0936 4.7170247,45.653544 Z"
       transform="matrix(0.95901636,0,0,0.95901636,2.7759561,2.1656201)"
       sodipodi:nodetypes="ccccc" />
    <path
       id="path3"
       style="display:inline;opacity:0.48;fill:#ffffff;fill-opacity:1;stroke:none;stroke-width:3.31068;stroke-linecap:round;stroke-linejoin:round;stroke-dashoffset:83.2;paint-order:markers stroke fill;filter:url(#filter15)"
       d="m 72.560945,14.106116 c 1.845769,0.362591 3.686186,0.776572 5.515942,1.240751 29.256743,7.84188 51.203013,27.220368 52.770423,46.596121 0.91439,-2.62742 1.39829,-5.305241 1.44436,-7.992793 -0.007,-20.909206 -26.04889,-38.28051 -59.730725,-39.844079 z"
       transform="matrix(0.95901636,0,0,0.95901636,2.7759561,2.1656201)"
       sodipodi:nodetypes="ccccc" />
  </g>
</svg>
