<?xml version="1.0" encoding="UTF-8" standalone="no"?>
<!-- Created with Inkscape (http://www.inkscape.org/) -->

<svg
   width="512"
   height="512"
   viewBox="0 0 135.46666 135.46667"
   version="1.1"
   id="svg5"
   inkscape:version="1.2.1 (9c6d41e410, 2022-07-14, custom)"
   sodipodi:docname="exclamation-green.svg"
   xmlns:inkscape="http://www.inkscape.org/namespaces/inkscape"
   xmlns:sodipodi="http://sodipodi.sourceforge.net/DTD/sodipodi-0.dtd"
   xmlns="http://www.w3.org/2000/svg"
   xmlns:svg="http://www.w3.org/2000/svg"
   xmlns:rdf="http://www.w3.org/1999/02/22-rdf-syntax-ns#"
   xmlns:cc="http://creativecommons.org/ns#"
   xmlns:dc="http://purl.org/dc/elements/1.1/">>
  <sodipodi:namedview
     id="namedview7"
     pagecolor="#505050"
     bordercolor="#ffffff"
     borderopacity="1"
     inkscape:showpageshadow="0"
     inkscape:pageopacity="0"
     inkscape:pagecheckerboard="1"
     inkscape:deskcolor="#505050"
     inkscape:document-units="px"
     showgrid="false"
     inkscape:zoom="1.5859375"
     inkscape:cx="389.04433"
     inkscape:cy="228.8867"
     inkscape:window-width="3252"
     inkscape:window-height="1076"
     inkscape:window-x="1864"
     inkscape:window-y="0"
     inkscape:window-maximized="0"
     inkscape:current-layer="layer1" />
  <defs
     id="defs2">
    <clipPath
       clipPathUnits="userSpaceOnUse"
       id="clipPath7234">
      <path
         id="path7236"
         style="fill:#008080;stroke-width:1.06201;stroke-linecap:round;stroke-linejoin:round;paint-order:stroke fill markers"
         d="m -10.170439,0.97331449 c -12.187024,0 -22.06687,11.55568451 -22.06687,25.81031051 0,14.254628 14.959615,74.314325 22.06687,74.314325 7.1072551,0 22.066353,-60.059697 22.066353,-74.314325 0,-14.254626 -9.879329,-25.81031051 -22.066353,-25.81031051 z m 0,107.85077551 a 13.808118,13.808118 0 0 0 -13.808459,13.80794 13.808118,13.808118 0 0 0 13.808459,13.80795 13.808118,13.808118 0 0 0 13.8079431,-13.80795 13.808118,13.808118 0 0 0 -13.8079431,-13.80794 z" />
    </clipPath>
    <filter
       inkscape:collect="always"
       style="color-interpolation-filters:sRGB"
       id="filter8737"
       x="-0.29154031"
       y="-0.056090131"
       width="1.5830806"
       height="1.1121803">
      <feGaussianBlur
         inkscape:collect="always"
         stdDeviation="2.6445064"
         id="feGaussianBlur8739" />
    </filter>
    <clipPath
       clipPathUnits="userSpaceOnUse"
       id="clipPath7234-1">
      <path
         id="path7236-2"
         style="fill:#008080;stroke-width:1.06201;stroke-linecap:round;stroke-linejoin:round;paint-order:stroke fill markers"
         d="m -10.170439,0.97331449 c -12.187024,0 -22.06687,11.55568451 -22.06687,25.81031051 0,14.254628 14.959615,74.314325 22.06687,74.314325 7.1072551,0 22.066353,-60.059697 22.066353,-74.314325 0,-14.254626 -9.879329,-25.81031051 -22.066353,-25.81031051 z m 0,107.85077551 a 13.808118,13.808118 0 0 0 -13.808459,13.80794 13.808118,13.808118 0 0 0 13.808459,13.80795 13.808118,13.808118 0 0 0 13.8079431,-13.80795 13.808118,13.808118 0 0 0 -13.8079431,-13.80794 z" />
    </clipPath>
    <filter
       inkscape:collect="always"
       style="color-interpolation-filters:sRGB"
       id="filter12439"
       x="-0.062506874"
       y="-0.02036414"
       width="1.1250137"
       height="1.0407283">
      <feGaussianBlur
         inkscape:collect="always"
         stdDeviation="1.1494426"
         id="feGaussianBlur12441" />
    </filter>
    <filter
       inkscape:collect="always"
       style="color-interpolation-filters:sRGB"
       id="filter12443"
       x="-0.09766699"
       y="-0.03181897"
       width="1.195334"
       height="1.0636379">
      <feGaussianBlur
         inkscape:collect="always"
         stdDeviation="1.7960039"
         id="feGaussianBlur12445" />
    </filter>
  </defs>
  <g
     inkscape:label="Layer 1"
     inkscape:groupmode="layer"
     id="layer1"
     style="display:inline">
    <path
       id="path792"
       style="display:none;opacity:1;fill:#800000;stroke-width:1.06201;stroke-linecap:round;stroke-linejoin:round;paint-order:stroke fill markers"
       d="m 89.799914,25.810311 c 0,14.254641 -14.95932,74.313989 -22.066582,74.313989 -7.107262,0 -22.066581,-60.059348 -22.066581,-74.313989 C 45.666751,11.55567 55.546296,0 67.733332,0 79.920368,0 89.799914,11.55567 89.799914,25.810311 Z"
       sodipodi:nodetypes="szsss"
       sodipodi:insensitive="true" />
    <circle
       style="display:none;opacity:1;fill:#800000;stroke-width:1.49221;stroke-linecap:round;stroke-linejoin:round;paint-order:stroke fill markers"
       id="path1622"
       cx="67.73333"
       cy="121.65855"
       r="13.808118"
       sodipodi:insensitive="true" />
    <path
       id="path792-0"
       style="display:none;fill:#800000;stroke-width:1.06201;stroke-linecap:round;stroke-linejoin:round;paint-order:stroke fill markers"
       d="m 67.733072,-2.0021178e-6 c -12.18703,0 -22.06635,11.5556840021178 -22.06635,25.8103110021178 0,14.254627 14.9591,74.313811 22.06635,74.313811 7.10725,0 22.06687,-60.059184 22.06687,-74.313811 0,-14.254627 -9.87984,-25.8103110021178 -22.06687,-25.8103110021178 z m 0,107.8502620021178 a 13.808118,13.808118 0 0 0 -13.80794,13.80795 13.808118,13.808118 0 0 0 13.80794,13.80846 13.808118,13.808118 0 0 0 13.80846,-13.80846 13.808118,13.808118 0 0 0 -13.80846,-13.80795 z"
       inkscape:label="red" />
    <path
       id="path13966"
       style="display:inline;fill:#008000;stroke-width:1.06201;stroke-linecap:round;stroke-linejoin:round;paint-order:stroke fill markers"
       d="m 67.733072,-2.0021178e-6 c -12.18703,0 -22.06635,11.5556840021178 -22.06635,25.8103110021178 0,14.254627 14.9591,74.313811 22.06635,74.313811 7.10725,0 22.06687,-60.059184 22.06687,-74.313811 0,-14.254627 -9.87984,-25.8103110021178 -22.06687,-25.8103110021178 z m 0,107.8502620021178 a 13.808118,13.808118 0 0 0 -13.80794,13.80795 13.808118,13.808118 0 0 0 13.80794,13.80846 13.808118,13.808118 0 0 0 13.80846,-13.80846 13.808118,13.808118 0 0 0 -13.80846,-13.80795 z"
       inkscape:label="green" />
    <path
       id="path14716"
       style="display:none;fill:#ffcc00;stroke-width:1.06201;stroke-linecap:round;stroke-linejoin:round;paint-order:stroke fill markers"
       d="m 67.733072,-2.0021178e-6 c -12.18703,0 -22.06635,11.5556840021178 -22.06635,25.8103110021178 0,14.254627 14.9591,74.313811 22.06635,74.313811 7.10725,0 22.06687,-60.059184 22.06687,-74.313811 0,-14.254627 -9.87984,-25.8103110021178 -22.06687,-25.8103110021178 z m 0,107.8502620021178 a 13.808118,13.808118 0 0 0 -13.80794,13.80795 13.808118,13.808118 0 0 0 13.80794,13.80846 13.808118,13.808118 0 0 0 13.80846,-13.80846 13.808118,13.808118 0 0 0 -13.80846,-13.80795 z"
       inkscape:label="yellow" />
    <path
       id="path15467"
       style="display:none;fill:#ff6600;stroke-width:1.06201;stroke-linecap:round;stroke-linejoin:round;paint-order:stroke fill markers"
       d="m 67.733072,-2.0021178e-6 c -12.18703,0 -22.06635,11.5556840021178 -22.06635,25.8103110021178 0,14.254627 14.9591,74.313811 22.06635,74.313811 7.10725,0 22.06687,-60.059184 22.06687,-74.313811 0,-14.254627 -9.87984,-25.8103110021178 -22.06687,-25.8103110021178 z m 0,107.8502620021178 a 13.808118,13.808118 0 0 0 -13.80794,13.80795 13.808118,13.808118 0 0 0 13.80794,13.80846 13.808118,13.808118 0 0 0 13.80846,-13.80846 13.808118,13.808118 0 0 0 -13.80846,-13.80795 z"
       inkscape:label="orange" />
    <path
       id="path16219"
       style="display:none;fill:#660080;stroke-width:1.06201;stroke-linecap:round;stroke-linejoin:round;paint-order:stroke fill markers"
       d="m 67.733072,-2.0021178e-6 c -12.18703,0 -22.06635,11.5556840021178 -22.06635,25.8103110021178 0,14.254627 14.9591,74.313811 22.06635,74.313811 7.10725,0 22.06687,-60.059184 22.06687,-74.313811 0,-14.254627 -9.87984,-25.8103110021178 -22.06687,-25.8103110021178 z m 0,107.8502620021178 a 13.808118,13.808118 0 0 0 -13.80794,13.80795 13.808118,13.808118 0 0 0 13.80794,13.80846 13.808118,13.808118 0 0 0 13.80846,-13.80846 13.808118,13.808118 0 0 0 -13.80846,-13.80795 z"
       inkscape:label="purple" />
    <path
       id="path16246"
       style="display:none;fill:#000080;stroke-width:1.06201;stroke-linecap:round;stroke-linejoin:round;paint-order:stroke fill markers"
       d="m 67.733072,-2.0021178e-6 c -12.18703,0 -22.06635,11.5556840021178 -22.06635,25.8103110021178 0,14.254627 14.9591,74.313811 22.06635,74.313811 7.10725,0 22.06687,-60.059184 22.06687,-74.313811 0,-14.254627 -9.87984,-25.8103110021178 -22.06687,-25.8103110021178 z m 0,107.8502620021178 a 13.808118,13.808118 0 0 0 -13.80794,13.80795 13.808118,13.808118 0 0 0 13.80794,13.80846 13.808118,13.808118 0 0 0 13.80846,-13.80846 13.808118,13.808118 0 0 0 -13.80846,-13.80795 z"
       inkscape:label="blue" />
    <path
       id="path792-5"
       style="display:inline;opacity:0.183663;mix-blend-mode:normal;fill:#ffffff;stroke-width:1.06201;stroke-linecap:round;stroke-linejoin:round;paint-order:stroke fill markers;filter:url(#filter8737)"
       d="m 67.396484,11.136719 c -3.903379,0.282731 -7.115188,3.246732 -8.74549,6.655035 -2.096195,4.184457 -2.113048,9.125348 -1.259759,13.582896 2.064651,13.796804 5.487431,27.370392 9.379677,40.786907 0.318157,1.038862 0.628851,2.08003 0.969322,3.111881 3.823651,-12.081436 6.8335,-24.45164 9.197967,-36.921073 0.77491,-4.314401 1.538748,-8.60299 1.693353,-12.99687 -0.06718,-4.825653 -2.035561,-9.801301 -6.061358,-12.622488 -1.510164,-1.035596 -3.328882,-1.671242 -5.173712,-1.596288 z m 0.03125,107.859371 c -2.011563,0.16907 -3.20467,3.09449 -1.610828,4.4851 1.186427,1.26414 3.614712,1.02677 4.309842,-0.64336 0.791282,-1.53844 -0.255877,-3.69012 -2.030914,-3.82264 -0.222007,-0.0356 -0.444373,-0.0275 -0.6681,-0.0191 z"
       sodipodi:insensitive="true" />
    <path
       id="path792-3"
       clip-path="url(#clipPath7234)"
       style="mix-blend-mode:normal;fill:#000000;stroke-width:1.06201;stroke-linecap:round;stroke-linejoin:round;paint-order:stroke fill markers;filter:url(#filter12439)"
       d="m -10.170678,0.97307428 c -12.187,0 -22.067387,11.55571172 -22.067387,25.81031072 0,14.254597 14.960146,74.314325 22.067387,74.314325 7.1072409,0 22.066353,-60.059728 22.066353,-74.314325 0,-14.254599 -9.8793541,-25.81031072 -22.066353,-25.81031072 z m 0.3079916,1.59008382 c 4.0325129,0.063564 7.9782259,1.6064416 11.0840778,4.106726 6.1128549,4.8745909 9.2262226,12.8420019 9.0785156,20.5522339 -0.204481,4.42879 -0.9225496,8.81252 -1.7042888,13.150618 -2.1415228,11.292451 -4.7938025,22.46666 -8.03103423,33.501831 -1.98001207,6.557712 -3.99912447,13.132987 -6.79338367,19.398815 -1.001164,2.010682 -1.8926672,4.21139 -3.4959106,5.863208 -0.2095908,0.33004 -0.5764257,0.43848 -0.8438757,0.08785 -2.090176,-2.404107 -3.343386,-5.392942 -4.555278,-8.304919 -3.320857,-8.320893 -5.880187,-16.955023 -8.16746,-25.617041 -2.755048,-10.714434 -5.325375,-21.468643 -6.833174,-32.436262 -0.540887,-3.397586 -0.715187,-6.888528 -0.208257,-10.250021 0.7731,-5.501549 3.241805,-10.699861 7.208346,-14.5877395 3.308426,-3.2263147 7.856871,-5.3699358 12.45402,-5.4580647 0.26938,-0.00907 0.538868,-0.011472 0.8077026,-0.00723 z M -10.170678,108.82385 A 13.808118,13.808118 0 0 0 -23.979654,122.6318 13.808118,13.808118 0 0 0 -10.170678,136.43974 13.808118,13.808118 0 0 0 3.6367478,122.6318 13.808118,13.808118 0 0 0 -10.170678,108.82385 Z m 0.09767,1.5906 c 4.2615658,0.0229 8.4174678,2.38971 10.49186543,6.14382 2.74957627,4.52623 1.88027377,10.76498 -1.78128663,14.53037 -2.1666858,2.25784 -5.1276113,3.57329 -8.2305052,3.72019 -3.7865776,0.24031 -7.7533786,-1.52226 -10.1151446,-4.5806 -2.738739,-3.38246 -3.463799,-8.27076 -1.721342,-12.27418 1.690723,-4.24435 5.956308,-7.24657 10.503235,-7.51272 0.284459,-0.0196 0.569073,-0.0284 0.853178,-0.0269 z"
       transform="translate(77.904149,-0.97319478)"
       sodipodi:insensitive="true" />
    <path
       id="path792-3-7"
       style="display:inline;opacity:0.4;mix-blend-mode:normal;fill:#000000;stroke-width:1.06201;stroke-linecap:round;stroke-linejoin:round;paint-order:stroke fill markers;filter:url(#filter12443)"
       d="m -10.170439,0.97331413 c -12.187012,0 -22.067386,11.55569787 -22.067386,25.81031087 0,14.254611 14.960138,74.314325 22.067386,74.314325 7.107248,0 22.066353,-60.059714 22.066353,-74.314325 0,-14.254613 -9.879342,-25.81031087 -22.066353,-25.81031087 z M -9.86038,6.2897854 c 1.569944,0.032371 3.13236,0.3463616 4.596618,0.9136393 C -3.344323,7.930664 -1.571139,9.0692721 0,10.535521 c 3.834566,3.621788 6.047744,8.761275 6.475573,13.946952 0.3618,4.529205 -0.526342,8.966843 -1.227832,13.420369 -2.299897,12.742697 -5.322707,25.364685 -9.105904,37.76307 -1.840008,5.825112 -3.646936,11.696639 -6.299873,17.214969 -1.595819,-3.290832 -2.876395,-6.723549 -4.056084,-10.182324 -3.486276,-10.503634 -6.372377,-21.168686 -8.792744,-31.968591 -1.415749,-6.638552 -2.87024,-13.297073 -3.63027,-20.02255 -0.363279,-2.674161 -0.365353,-5.517524 0.08372,-8.103381 0.45821,-2.772032 1.423016,-5.533383 2.936255,-7.978325 2.718917,-4.597945 7.616681,-8.1953362 13.083956,-8.332824 0.224326,-0.00696 0.448549,-0.00773 0.672827,-0.0031 z M -10.170439,108.82409 a 13.808118,13.808118 0 0 0 -13.808976,13.80794 13.808118,13.808118 0 0 0 13.808976,13.80794 13.808118,13.808118 0 0 0 13.807426,-13.80794 13.808118,13.808118 0 0 0 -13.807426,-13.80794 z m 0.238229,5.33714 c 0.786197,0.0269 1.567712,0.16121 2.317171,0.40308 3.547936,1.07016 6.162717,4.65989 5.928837,8.38398 -0.08491,3.60666 -2.698059,7.03264 -6.238896,7.87704 -2.459947,0.67974 -5.287136,0.20618 -7.361824,-1.39836 -3.399037,-2.49651 -4.452995,-7.70302 -2.086178,-11.24118 1.326519,-2.12293 3.942457,-3.93257 6.654374,-4.01577 0.262048,-0.0148 0.52445,-0.0178 0.786516,-0.009 z"
       clip-path="url(#clipPath7234-1)"
       transform="translate(77.90403,-0.97331475)"
       sodipodi:insensitive="true" />
  </g>
  <metadata
     id="metadata1">
    <rdf:RDF>
      <cc:Work
         rdf:about="">
        <dc:creator>
          <cc:Agent>
            <dc:title>Jess Tipton</dc:title>
          </cc:Agent>
        </dc:creator>
        <dc:publisher>
          <cc:Agent>
            <dc:title>m0dw3rks.com</dc:title>
          </cc:Agent>
        </dc:publisher>
        <cc:license
           rdf:resource="https://creativecommons.org/licenses/by-nc-nd/4.0/deed.en" />
      </cc:Work>
    </rdf:RDF>
  </metadata>
  <metadata
     id="metadata6">
    <rdf:RDF>
      <cc:Work
         rdf:about="">
        <dc:creator>
          <cc:Agent>
            <dc:title>Jess Tipton</dc:title>
          </cc:Agent>
        </dc:creator>
        <cc:license
           rdf:resource="https://creativecommons.org/licenses/by-nc-nd/4.0/deed.en" />
        <dc:publisher>
          <cc:Agent>
            <dc:title>m0dw3rks.com</dc:title>
          </cc:Agent>
        </dc:publisher>
      </cc:Work>
    </rdf:RDF>
  </metadata>
  <metadata
     id="metadata6">
    <rdf:RDF>
      <cc:Work
         rdf:about="">
        <dc:creator>
          <cc:Agent>
            <dc:title>Jess Tipton</dc:title>
          </cc:Agent>
        </dc:creator>
        <cc:license
           rdf:resource="https://creativecommons.org/licenses/by-nc-nd/4.0/deed.en" />
        <dc:publisher>
          <cc:Agent>
            <dc:title>m0dw3rks.com</dc:title>
          </cc:Agent>
        </dc:publisher>
      </cc:Work>
    </rdf:RDF>
  </metadata>
  <metadata
     id="metadata6">
    <rdf:RDF>
      <cc:Work
         rdf:about="">
        <dc:creator>
          <cc:Agent>
            <dc:title>Jess Tipton</dc:title>
          </cc:Agent>
        </dc:creator>
        <cc:license
           rdf:resource="https://creativecommons.org/licenses/by-nc-nd/4.0/deed.en" />
        <dc:publisher>
          <cc:Agent>
            <dc:title>m0dw3rks.com</dc:title>
          </cc:Agent>
        </dc:publisher>
      </cc:Work>
    </rdf:RDF>
  </metadata>
  <metadata
     id="metadata6">
    <rdf:RDF>
      <cc:Work
         rdf:about="">
        <dc:creator>
          <cc:Agent>
            <dc:title>Jess Tipton</dc:title>
          </cc:Agent>
        </dc:creator>
        <cc:license
           rdf:resource="https://creativecommons.org/licenses/by-nc-nd/4.0/deed.en" />
        <dc:publisher>
          <cc:Agent>
            <dc:title>m0dw3rks.com</dc:title>
          </cc:Agent>
        </dc:publisher>
      </cc:Work>
    </rdf:RDF>
  </metadata>
  <metadata
     id="metadata6">
    <rdf:RDF>
      <cc:Work
         rdf:about="">
        <dc:creator>
          <cc:Agent>
            <dc:title>Jess Tipton</dc:title>
          </cc:Agent>
        </dc:creator>
        <cc:license
           rdf:resource="https://creativecommons.org/licenses/by-nc-nd/4.0/deed.en" />
        <dc:publisher>
          <cc:Agent>
            <dc:title>m0dw3rks.com</dc:title>
          </cc:Agent>
        </dc:publisher>
      </cc:Work>
    </rdf:RDF>
  </metadata>
  <metadata
     id="metadata6">
    <rdf:RDF>
      <cc:Work
         rdf:about="">
        <dc:creator>
          <cc:Agent>
            <dc:title>Jess Tipton</dc:title>
          </cc:Agent>
        </dc:creator>
        <cc:license
           rdf:resource="https://creativecommons.org/licenses/by-nc-nd/4.0/deed.en" />
        <dc:publisher>
          <cc:Agent>
            <dc:title>m0dw3rks.com</dc:title>
          </cc:Agent>
        </dc:publisher>
      </cc:Work>
    </rdf:RDF>
  </metadata>
  <metadata
     id="metadata6">
    <rdf:RDF>
      <cc:Work
         rdf:about="">
        <dc:creator>
          <cc:Agent>
            <dc:title>Jess Tipton</dc:title>
          </cc:Agent>
        </dc:creator>
        <cc:license
           rdf:resource="https://creativecommons.org/licenses/by-nc-nd/4.0/deed.en" />
        <dc:publisher>
          <cc:Agent>
            <dc:title>m0dw3rks.com</dc:title>
          </cc:Agent>
        </dc:publisher>
      </cc:Work>
    </rdf:RDF>
  </metadata>
  <metadata
     id="metadata6">
    <rdf:RDF>
      <cc:Work
         rdf:about="">
        <dc:creator>
          <cc:Agent>
            <dc:title>Jess Tipton</dc:title>
          </cc:Agent>
        </dc:creator>
        <cc:license
           rdf:resource="https://creativecommons.org/licenses/by-nc-nd/4.0/deed.en" />
        <dc:publisher>
          <cc:Agent>
            <dc:title>m0dw3rks.com</dc:title>
          </cc:Agent>
        </dc:publisher>
      </cc:Work>
    </rdf:RDF>
  </metadata>
  <metadata
     id="metadata6">
    <rdf:RDF>
      <cc:Work
         rdf:about="">
        <dc:creator>
          <cc:Agent>
            <dc:title>Jess Tipton</dc:title>
          </cc:Agent>
        </dc:creator>
        <cc:license
           rdf:resource="https://creativecommons.org/licenses/by-nc-nd/4.0/deed.en" />
        <dc:publisher>
          <cc:Agent>
            <dc:title>m0dw3rks.com</dc:title>
          </cc:Agent>
        </dc:publisher>
      </cc:Work>
    </rdf:RDF>
  </metadata>
  <metadata
     id="metadata6">
    <rdf:RDF>
      <cc:Work
         rdf:about="">
        <dc:creator>
          <cc:Agent>
            <dc:title>Jess Tipton</dc:title>
          </cc:Agent>
        </dc:creator>
        <cc:license
           rdf:resource="https://creativecommons.org/licenses/by-nc-nd/4.0/deed.en" />
        <dc:publisher>
          <cc:Agent>
            <dc:title>m0dw3rks.com</dc:title>
          </cc:Agent>
        </dc:publisher>
      </cc:Work>
    </rdf:RDF>
  </metadata>
  <metadata
     id="metadata6">
    <rdf:RDF>
      <cc:Work
         rdf:about="">
        <dc:creator>
          <cc:Agent>
            <dc:title>Jess Tipton</dc:title>
          </cc:Agent>
        </dc:creator>
        <cc:license
           rdf:resource="https://creativecommons.org/licenses/by-nc-nd/4.0/deed.en" />
        <dc:publisher>
          <cc:Agent>
            <dc:title>m0dw3rks.com</dc:title>
          </cc:Agent>
        </dc:publisher>
      </cc:Work>
    </rdf:RDF>
  </metadata>
  <metadata
     id="metadata6">
    <rdf:RDF>
      <cc:Work
         rdf:about="">
        <dc:creator>
          <cc:Agent>
            <dc:title>Jess Tipton</dc:title>
          </cc:Agent>
        </dc:creator>
        <cc:license
           rdf:resource="https://creativecommons.org/licenses/by-nc-nd/4.0/deed.en" />
        <dc:publisher>
          <cc:Agent>
            <dc:title>m0dw3rks.com</dc:title>
          </cc:Agent>
        </dc:publisher>
      </cc:Work>
    </rdf:RDF>
  </metadata>
  <metadata
     id="metadata6">
    <rdf:RDF>
      <cc:Work
         rdf:about="">
        <dc:creator>
          <cc:Agent>
            <dc:title>Jess Tipton</dc:title>
          </cc:Agent>
        </dc:creator>
        <cc:license
           rdf:resource="https://creativecommons.org/licenses/by-nc-nd/4.0/deed.en" />
        <dc:publisher>
          <cc:Agent>
            <dc:title>m0dw3rks.com</dc:title>
          </cc:Agent>
        </dc:publisher>
      </cc:Work>
    </rdf:RDF>
  </metadata>
  <metadata
     id="metadata6">
    <rdf:RDF>
      <cc:Work
         rdf:about="">
        <dc:creator>
          <cc:Agent>
            <dc:title>Jess Tipton</dc:title>
          </cc:Agent>
        </dc:creator>
        <cc:license
           rdf:resource="https://creativecommons.org/licenses/by-nc-nd/4.0/deed.en" />
        <dc:publisher>
          <cc:Agent>
            <dc:title>m0dw3rks.com</dc:title>
          </cc:Agent>
        </dc:publisher>
      </cc:Work>
    </rdf:RDF>
  </metadata>
  <metadata
     id="metadata6">
    <rdf:RDF>
      <cc:Work
         rdf:about="">
        <dc:creator>
          <cc:Agent>
            <dc:title>Jess Tipton</dc:title>
          </cc:Agent>
        </dc:creator>
        <cc:license
           rdf:resource="https://creativecommons.org/licenses/by-nc-nd/4.0/deed.en" />
        <dc:publisher>
          <cc:Agent>
            <dc:title>m0dw3rks.com</dc:title>
          </cc:Agent>
        </dc:publisher>
      </cc:Work>
    </rdf:RDF>
  </metadata>
  <metadata
     id="metadata6">
    <rdf:RDF>
      <cc:Work
         rdf:about="">
        <dc:creator>
          <cc:Agent>
            <dc:title>Jess Tipton</dc:title>
          </cc:Agent>
        </dc:creator>
        <cc:license
           rdf:resource="https://creativecommons.org/licenses/by-nc-nd/4.0/deed.en" />
        <dc:publisher>
          <cc:Agent>
            <dc:title>m0dw3rks.com</dc:title>
          </cc:Agent>
        </dc:publisher>
      </cc:Work>
    </rdf:RDF>
  </metadata>
  <metadata
     id="metadata6">
    <rdf:RDF>
      <cc:Work
         rdf:about="">
        <dc:creator>
          <cc:Agent>
            <dc:title>Jess Tipton</dc:title>
          </cc:Agent>
        </dc:creator>
        <cc:license
           rdf:resource="https://creativecommons.org/licenses/by-nc-nd/4.0/deed.en" />
        <dc:publisher>
          <cc:Agent>
            <dc:title>m0dw3rks.com</dc:title>
          </cc:Agent>
        </dc:publisher>
      </cc:Work>
    </rdf:RDF>
  </metadata>
</svg>
