<?xml version="1.0" encoding="UTF-8" standalone="no"?>
<!-- Created with Inkscape (http://www.inkscape.org/) -->

<svg
   width="512"
   height="512"
   viewBox="0 0 135.46666 135.46667"
   version="1.1"
   id="svg5"
   inkscape:version="1.4.2 (ebf0e940d0, 2025-05-08)"
   sodipodi:docname="emblem-sales.svg"
   inkscape:export-filename="../../www/www-fsrv/m0dw3rks/newtab/gfx/shopping.jpg"
   inkscape:export-xdpi="96"
   inkscape:export-ydpi="96"
   xmlns:inkscape="http://www.inkscape.org/namespaces/inkscape"
   xmlns:sodipodi="http://sodipodi.sourceforge.net/DTD/sodipodi-0.dtd"
   xmlns:xlink="http://www.w3.org/1999/xlink"
   xmlns="http://www.w3.org/2000/svg"
   xmlns:svg="http://www.w3.org/2000/svg">
  <sodipodi:namedview
     id="namedview7"
     pagecolor="#292929"
     bordercolor="#666666"
     borderopacity="1"
     inkscape:showpageshadow="0"
     inkscape:pageopacity="0"
     inkscape:pagecheckerboard="1"
     inkscape:deskcolor="#1a1a1a"
     inkscape:document-units="px"
     showgrid="false"
     inkscape:zoom="0.921875"
     inkscape:cx="538.57627"
     inkscape:cy="319.45763"
     inkscape:window-width="3256"
     inkscape:window-height="1080"
     inkscape:window-x="1864"
     inkscape:window-y="0"
     inkscape:window-maximized="0"
     inkscape:current-layer="layer1" />
  <defs
     id="defs2">
    <linearGradient
       id="linearGradient18"
       inkscape:collect="always">
      <stop
         style="stop-color:#004700;stop-opacity:1;"
         offset="0"
         id="stop18" />
      <stop
         style="stop-color:#004700;stop-opacity:0;"
         offset="0.5"
         id="stop20" />
      <stop
         style="stop-color:#004700;stop-opacity:1;"
         offset="1"
         id="stop19" />
    </linearGradient>
    <linearGradient
       id="linearGradient9"
       inkscape:collect="always">
      <stop
         style="stop-color:#00ff00;stop-opacity:0;"
         offset="0"
         id="stop9" />
      <stop
         style="stop-color:#00ff00;stop-opacity:1;"
         offset="1"
         id="stop8" />
    </linearGradient>
    <rect
       x="-637.40678"
       y="-62.746226"
       width="290.56886"
       height="350.30859"
       id="rect2" />
    <linearGradient
       inkscape:collect="always"
       xlink:href="#linearGradient9"
       id="linearGradient6"
       x1="37.793797"
       y1="146.16637"
       x2="54.894375"
       y2="2.9424441e-06"
       gradientUnits="userSpaceOnUse" />
    <linearGradient
       inkscape:collect="always"
       xlink:href="#linearGradient9"
       id="linearGradient10"
       gradientUnits="userSpaceOnUse"
       x1="37.793797"
       y1="146.16637"
       x2="54.894375"
       y2="2.9424441e-06"
       gradientTransform="translate(80.572286)" />
    <linearGradient
       inkscape:collect="always"
       xlink:href="#linearGradient9"
       id="linearGradient11"
       gradientUnits="userSpaceOnUse"
       gradientTransform="translate(40.286143)"
       x1="37.793797"
       y1="146.16637"
       x2="54.894375"
       y2="2.9424441e-06" />
    <rect
       x="-637.40678"
       y="-62.746226"
       width="290.56886"
       height="350.30859"
       id="rect4" />
    <clipPath
       clipPathUnits="userSpaceOnUse"
       id="clipPath4">
      <text
         xml:space="preserve"
         transform="matrix(5.3493214,0,0,5.3493214,3432.8118,268.50006)"
         id="text4"
         style="font-style:normal;font-variant:normal;font-weight:normal;font-stretch:normal;font-size:40px;line-height:1.25;font-family:Aharoni;-inkscape-font-specification:'Aharoni, Normal';font-variant-ligatures:normal;font-variant-caps:normal;font-variant-numeric:normal;font-variant-east-asian:normal;white-space:pre;shape-inside:url(#rect4);display:inline;fill:#ffd200;fill-opacity:1;stroke:#000000;stroke-width:0.197844;stroke-linecap:round;stroke-dasharray:none;stroke-opacity:1;paint-order:fill markers stroke"><tspan
           x="-637.40625"
           y="-28.351562"
           id="tspan1">$</tspan></text>
    </clipPath>
    <rect
       x="-637.40678"
       y="-62.746226"
       width="290.56886"
       height="350.30859"
       id="rect5" />
    <clipPath
       clipPathUnits="userSpaceOnUse"
       id="clipPath6">
      <text
         xml:space="preserve"
         transform="matrix(5.3493214,0,0,5.3493214,3432.8118,268.50006)"
         id="text6"
         style="font-style:normal;font-variant:normal;font-weight:normal;font-stretch:normal;font-size:40px;line-height:1.25;font-family:Aharoni;-inkscape-font-specification:'Aharoni, Normal';font-variant-ligatures:normal;font-variant-caps:normal;font-variant-numeric:normal;font-variant-east-asian:normal;white-space:pre;shape-inside:url(#rect5);display:inline;fill:#ffd200;fill-opacity:1;stroke:#000000;stroke-width:0.197844;stroke-linecap:round;stroke-dasharray:none;stroke-opacity:1;paint-order:fill markers stroke"><tspan
           x="-637.40625"
           y="-28.351562"
           id="tspan2">$</tspan></text>
    </clipPath>
    <filter
       inkscape:collect="always"
       style="color-interpolation-filters:sRGB"
       id="filter6"
       x="-0.069089333"
       y="-0.036774637"
       width="1.1381787"
       height="1.0735493">
      <feGaussianBlur
         inkscape:collect="always"
         stdDeviation="2.2225207"
         id="feGaussianBlur6" />
    </filter>
    <filter
       inkscape:collect="always"
       style="color-interpolation-filters:sRGB"
       id="filter7"
       x="-0.064224591"
       y="-0.0383196"
       width="1.1284492"
       height="1.0766392">
      <feGaussianBlur
         inkscape:collect="always"
         stdDeviation="3.401333"
         id="feGaussianBlur7" />
    </filter>
    <rect
       x="-637.40678"
       y="-62.746226"
       width="290.56886"
       height="350.30859"
       id="rect7" />
    <rect
       x="-637.40678"
       y="-62.746226"
       width="290.56886"
       height="350.30859"
       id="rect8" />
    <clipPath
       clipPathUnits="userSpaceOnUse"
       id="clipPath8">
      <text
         xml:space="preserve"
         transform="matrix(5.3493214,0,0,5.3493214,3432.8118,268.50006)"
         id="text9"
         style="font-style:normal;font-variant:normal;font-weight:normal;font-stretch:normal;font-size:40px;line-height:1.25;font-family:Aharoni;-inkscape-font-specification:'Aharoni, Normal';font-variant-ligatures:normal;font-variant-caps:normal;font-variant-numeric:normal;font-variant-east-asian:normal;white-space:pre;shape-inside:url(#rect8);display:inline;opacity:0.379265;fill:#ffd200;fill-opacity:1;stroke:#b66969;stroke-width:0.197844;stroke-linecap:round;stroke-dasharray:none;stroke-opacity:1;paint-order:fill markers stroke"><tspan
           x="-637.40625"
           y="-28.351562"
           id="tspan3">$</tspan></text>
    </clipPath>
    <filter
       inkscape:collect="always"
       style="color-interpolation-filters:sRGB"
       id="filter9"
       x="-0.040372273"
       y="-0.024792555"
       width="1.0807445"
       height="1.0495851">
      <feGaussianBlur
         inkscape:collect="always"
         stdDeviation="1.1869242"
         id="feGaussianBlur9" />
    </filter>
    <rect
       x="-637.40678"
       y="-62.746226"
       width="290.56886"
       height="350.30859"
       id="rect11" />
    <rect
       x="-637.40678"
       y="-62.746226"
       width="290.56886"
       height="350.30859"
       id="rect12" />
    <filter
       inkscape:collect="always"
       style="color-interpolation-filters:sRGB"
       id="filter12"
       x="-0.012875923"
       y="-0.0054718861"
       width="1.0257518"
       height="1.0109438">
      <feGaussianBlur
         inkscape:collect="always"
         stdDeviation="0.27389629"
         id="feGaussianBlur12" />
    </filter>
    <rect
       x="-637.40678"
       y="-62.746226"
       width="290.56886"
       height="350.30859"
       id="rect13" />
    <rect
       x="-637.40678"
       y="-62.746226"
       width="290.56886"
       height="350.30859"
       id="rect14" />
    <filter
       inkscape:collect="always"
       style="color-interpolation-filters:sRGB"
       id="filter14"
       x="-0.029267168"
       y="-0.012258994"
       width="1.0585343"
       height="1.024518">
      <feGaussianBlur
         inkscape:collect="always"
         stdDeviation="0.6198264"
         id="feGaussianBlur14" />
    </filter>
    <rect
       x="-637.40678"
       y="-62.746226"
       width="290.56886"
       height="350.30859"
       id="rect15" />
    <filter
       inkscape:collect="always"
       style="color-interpolation-filters:sRGB"
       id="filter15"
       x="-0.055762521"
       y="-0.029844387"
       width="1.111525"
       height="1.0596888">
      <feGaussianBlur
         inkscape:collect="always"
         stdDeviation="1.4092257"
         id="feGaussianBlur15" />
    </filter>
    <filter
       inkscape:collect="always"
       style="color-interpolation-filters:sRGB"
       id="filter16"
       x="-0.040640901"
       y="-0.039590131"
       width="1.0832972"
       height="1.0792799">
      <feGaussianBlur
         inkscape:collect="always"
         stdDeviation="0.96514123"
         id="feGaussianBlur16" />
    </filter>
    <rect
       x="-637.40678"
       y="-62.746226"
       width="290.56886"
       height="350.30859"
       id="rect16" />
    <clipPath
       clipPathUnits="userSpaceOnUse"
       id="clipPath16">
      <text
         xml:space="preserve"
         transform="matrix(5.3493214,0,0,5.3493214,3282.8177,279.99457)"
         id="text17"
         style="font-style:normal;font-variant:normal;font-weight:normal;font-stretch:normal;font-size:40px;line-height:1.25;font-family:Aharoni;-inkscape-font-specification:'Aharoni, Normal';font-variant-ligatures:normal;font-variant-caps:normal;font-variant-numeric:normal;font-variant-east-asian:normal;white-space:pre;shape-inside:url(#rect16);display:inline;fill:#ffd200;fill-opacity:1;stroke:none;stroke-width:0.197844;stroke-linecap:round;stroke-dasharray:none;stroke-opacity:1;paint-order:fill markers stroke"><tspan
           x="-637.40625"
           y="-28.351562"
           id="tspan4">$</tspan></text>
    </clipPath>
    <clipPath
       clipPathUnits="userSpaceOnUse"
       id="clipPath7">
      <rect
         style="display:inline;fill:#008000;stroke-width:3.175;stroke-linecap:round;stroke-linejoin:round;paint-order:fill markers stroke"
         id="rect17"
         width="135.46666"
         height="135.46666"
         x="2.7270507e-06"
         y="2.7270507e-06"
         inkscape:export-filename="../../www/www-fsrv/m0dw3rks/newtab/gfx/shopping.jpg"
         inkscape:export-xdpi="96"
         inkscape:export-ydpi="96"
         ry="17.656097" />
    </clipPath>
    <linearGradient
       inkscape:collect="always"
       xlink:href="#linearGradient18"
       id="linearGradient19"
       x1="154.84599"
       y1="-18.670813"
       x2="290.31265"
       y2="116.79585"
       gradientUnits="userSpaceOnUse"
       gradientTransform="translate(-154.85466,18.671638)" />
    <filter
       inkscape:collect="always"
       style="color-interpolation-filters:sRGB"
       id="filter20"
       x="-0.069121522"
       y="-0.069118481"
       width="1.138243"
       height="1.138237">
      <feGaussianBlur
         inkscape:collect="always"
         stdDeviation="3.4443087"
         id="feGaussianBlur20" />
    </filter>
  </defs>
  <g
     inkscape:label="Layer 1"
     inkscape:groupmode="layer"
     id="layer1">
    <rect
       style="display:inline;fill:#008000;stroke-width:3.175;stroke-linecap:round;stroke-linejoin:round;paint-order:fill markers stroke"
       id="rect1"
       width="135.46666"
       height="135.46666"
       x="2.7270507e-06"
       y="2.7270507e-06"
       inkscape:export-filename="../../www/www-fsrv/m0dw3rks/newtab/gfx/shopping.jpg"
       inkscape:export-xdpi="96"
       inkscape:export-ydpi="96"
       ry="17.656097" />
    <path
       id="rect18"
       style="display:inline;fill:url(#linearGradient19);stroke-width:3.175;stroke-linecap:round;stroke-linejoin:round;paint-order:fill markers stroke;filter:url(#filter20)"
       d="m 117.6512,7.9450757 c -33.865906,0.01579 -67.735066,-0.044 -101.598816,0.126638 -4.71455,0.6804988 -8.4884702,5.3251723 -8.0830102,10.0928813 -0.0801,8.154056 0.0225,16.308625 -0.0252,24.462902 0.004,25.57007 -0.0283,51.140337 0.10742,76.710163 0.65482,4.7425 5.3086602,8.55105 10.0984202,8.16657 6.84455,0.0663 13.68959,-0.0129 20.53439,0.0216 26.88284,-0.0123 53.76587,0.0143 80.648436,-0.12571 4.77173,-0.6377 8.57481,-5.34712 8.16607,-10.15118 -0.007,-32.941866 0.0687,-65.884168 -0.0955,-98.825686 -0.0211,-1.575371 0.0593,-3.213435 -0.68772,-4.657906 -0.99347,-2.193975 -2.69168,-3.903192 -4.86566,-4.9453017 -1.2078,-0.5949556 -2.77819,-0.9504776 -4.19879,-0.8750106 z" />
    <g
       id="g11"
       style="display:inline;opacity:0.48"
       clip-path="url(#clipPath7)">
      <rect
         style="fill:url(#linearGradient6);stroke-width:3.298;stroke-linecap:round;stroke-linejoin:round;paint-order:fill markers stroke"
         id="rect3"
         width="17.100578"
         height="146.16637"
         x="37.793797"
         y="2.9424441e-06"
         transform="matrix(1,0,-0.37556089,0.92679772,0,0)" />
      <rect
         style="fill:url(#linearGradient10);stroke-width:3.298;stroke-linecap:round;stroke-linejoin:round;paint-order:fill markers stroke"
         id="rect9"
         width="17.100578"
         height="146.16637"
         x="118.36608"
         y="2.9424443e-06"
         transform="matrix(1,0,-0.37556089,0.92679772,0,0)" />
      <rect
         style="fill:url(#linearGradient11);stroke-width:3.298;stroke-linecap:round;stroke-linejoin:round;paint-order:fill markers stroke"
         id="rect10"
         width="17.100578"
         height="146.16637"
         x="78.079941"
         y="2.9424443e-06"
         transform="matrix(1,0,-0.37556089,0.92679772,0,0)" />
    </g>
    <text
       xml:space="preserve"
       transform="matrix(5.3493215,0,0,5.3493215,3432.8118,268.50006)"
       id="text1"
       style="font-style:normal;font-variant:normal;font-weight:normal;font-stretch:normal;font-size:40px;line-height:1.25;font-family:Aharoni;-inkscape-font-specification:'Aharoni, Normal';font-variant-ligatures:normal;font-variant-caps:normal;font-variant-numeric:normal;font-variant-east-asian:normal;white-space:pre;shape-inside:url(#rect2);display:inline;fill:#ffd200;fill-opacity:1;stroke:#000000;stroke-width:0.197844;stroke-linecap:round;stroke-dasharray:none;stroke-opacity:1;paint-order:fill markers stroke"><tspan
         x="-637.40625"
         y="-28.351562"
         id="tspan5">$</tspan></text>
    <path
       id="path1"
       style="color:#000000;display:inline;mix-blend-mode:normal;fill:#572000;-inkscape-stroke:none;filter:url(#filter7)"
       d="m 134.57008,-35.12292 c -0.49434,5.37878 -2.79145,10.510567 -6.00945,14.884879 C 114.69992,-7.5010947 101.92125,6.6856294 91.927721,22.820312 78.83967,36.874808 77.69973,56.608203 89.792968,71.955297 l -0.01964,-0.02377 c 9.882921,13.483976 6.462175,30.071773 0.736389,44.623113 l -0.03101,0.0822 -0.01602,0.0837 c -1.453554,7.88139 -4.347649,17.14219 -4.949052,26.07231 -0.601403,8.93012 1.17877,17.65867 9.103321,24.03523 l 1.127063,-1.40043 c -7.40919,-5.96187 -9.016464,-13.88914 -8.435661,-22.51336 0.57946,-8.6043 3.422868,-17.77265 4.910294,-25.80876 5.783343,-14.73622 9.396278,-32.061968 -0.994254,-46.238518 l -0.0098,-0.01137 -0.0098,-0.01395 C 79.575958,56.083887 80.681912,37.429748 93.328152,23.939624 l 0.06046,-0.0646 0.04909,-0.07596 C 103.34241,7.7992574 116.04575,-6.3089978 129.86546,-18.997807 l 0.0641,-0.05891 0.0512,-0.07028 c 3.39028,-4.595272 5.84978,-10.033155 6.38255,-15.830041 z M 92.060529,-16.82998 C 91.996959,-7.0813749 86.670565,-0.71665391 79.459232,4.4689778 72.247898,9.6546095 63.19888,13.51181 56.054459,18.027323 l -0.02532,0.0155 -0.02532,0.01757 c -4.148097,3.027311 -6.227521,6.590743 -6.947379,10.37146 -0.71986,3.780716 -0.128807,7.736664 0.83044,11.734167 1.918493,7.995004 5.266586,16.217714 3.63647,23.4611 -1.551865,6.802799 -6.708375,13.672278 -9.38444,20.593575 -1.338146,3.460945 -2.050975,6.988346 -1.226798,10.525456 0.820898,3.523031 3.1675,6.966089 7.634676,10.274829 4.024184,3.56103 5.432926,6.72751 5.32629,9.58236 -0.106751,2.85791 -1.778227,5.58438 -4.412134,8.12715 -5.267813,5.08554 -14.210339,9.20402 -20.101615,11.91969 l -0.04703,0.0217 -0.04289,0.0253 c -7.019298,4.26679 -14.043911,10.65592 -18.228345,18.20148 -4.1844338,7.54554 -5.4782196,16.34255 -0.871264,25.00777 l 1.588016,-0.84387 c -4.3080209,-8.10296 -3.120302,-16.11849 0.857312,-23.29109 3.974891,-7.16768 10.787576,-13.39738 17.574121,-17.52554 5.886258,-2.71279 14.899093,-6.79234 20.521745,-12.22045 2.821654,-2.72401 4.829875,-5.84468 4.960937,-9.35343 0.131062,-3.50876 -1.663133,-7.227 -5.943306,-11.01018 l -0.03152,-0.0253 -0.03101,-0.0233 c -4.267167,-3.14761 -6.287871,-6.218784 -7.000089,-9.275403 -0.712219,-3.056619 -0.117008,-6.190896 1.150317,-9.468673 2.534654,-6.555554 7.779725,-13.471038 9.460921,-20.843688 v -0.0021 l 0.0021,-0.0021 C 57.08477,55.998755 53.506192,47.536699 51.636673,39.745786 50.701913,35.850329 50.182237,32.139879 50.824319,28.767645 51.465126,25.40211 53.216693,22.332136 57.045128,19.530999 63.993858,15.143869 73.074741,11.276306 80.509845,5.9297625 87.95425,0.57661544 93.791517,-6.4108628 93.859386,-16.818611 Z"
       clip-path="url(#clipPath4)" />
    <path
       id="path4"
       style="color:#000000;display:inline;mix-blend-mode:normal;fill:#714100;-inkscape-stroke:none;filter:url(#filter6);opacity:0.8"
       d="m 50.220707,-9.5213825 -1.894458,0.9430948 C 53.786097,2.3944339 60.622953,12.701257 71.285054,21.093803 l 0.04909,0.03876 0.05478,0.03359 c 7.648224,4.658365 11.690182,11.416691 13.884424,19.408117 2.194243,7.991426 2.476808,17.191327 2.48822,26.435595 0.01141,9.244268 -0.245827,18.527801 0.978752,26.763741 1.22458,8.235944 3.968531,15.497164 10.066569,20.392554 l 1.323951,-1.65055 c -5.544118,-4.4507 -8.113218,-11.0903 -9.297108,-19.052579 -1.183889,-7.962278 -0.94352,-17.17349 -0.95498,-26.4573 C 89.867291,57.72192 89.60568,48.357807 87.314566,40.013578 85.030238,31.694061 80.661792,24.364922 72.560428,19.40295 62.233208,11.263656 55.596457,1.2823277 50.220707,-9.5213825 Z M 24.066231,19.625158 22.925732,21.407995 c 10.152281,6.485974 17.008974,12.681796 20.424076,20.865393 3.415104,8.183598 3.462443,18.521177 -0.400492,33.458939 -2.00505,7.753418 -1.04922,14.764371 1.916162,20.974947 2.965383,6.210576 7.900937,11.630576 13.831714,16.423806 11.861553,9.58646 27.750927,16.71209 40.331904,22.3945 l 0.871265,-1.93012 C 87.316698,127.91185 71.567094,120.81052 60.027343,111.48415 54.257467,106.82095 49.552823,101.61151 46.775439,95.794668 43.998054,89.977826 43.110182,83.562689 44.998286,76.261494 48.921657,61.09003 48.959169,50.221043 45.302661,41.458968 41.646153,32.696893 34.369482,26.207583 24.066231,19.625158 Z"
       clip-path="url(#clipPath6)" />
    <path
       id="text7"
       style="font-style:normal;font-variant:normal;font-weight:normal;font-stretch:normal;font-size:40px;line-height:1.25;font-family:Aharoni;-inkscape-font-specification:'Aharoni, Normal';font-variant-ligatures:normal;font-variant-caps:normal;font-variant-numeric:normal;font-variant-east-asian:normal;white-space:pre;shape-inside:url(#rect7);display:inline;fill:#28170b;fill-opacity:1;stroke:none;stroke-width:1.05833;stroke-linecap:round;stroke-dasharray:none;stroke-opacity:1;paint-order:fill markers stroke;filter:url(#filter9);opacity:0.14"
       d="M 68.251953 9.3300781 L 68.304688 9.328125 L 68.251953 9.3300781 z M 68.417969 9.59375 C 65.053244 11.255047 62.815308 14.940182 62.871094 18.689453 C 62.335988 20.5476 60.491565 21.931374 58.558594 21.929688 C 56.668206 23.101527 56.045077 25.882009 57.255859 27.748047 C 57.693961 29.832817 56.022619 32.081246 53.898438 32.257812 C 52.174348 30.919299 50.463264 29.56233 48.685547 28.294922 C 45.429618 29.218002 42.799694 32.044007 42.117188 35.359375 C 38.692305 35.508737 35.848245 33.312753 32.935901 31.84935 C 31.49633 31.096832 30.056759 30.344314 28.617188 29.591797 C 31.870972 33.76826 35.128133 37.942089 38.388672 42.113281 C 40.130161 42.867398 41.875669 43.618527 43.556641 44.501953 C 44.306045 46.559027 43.581441 49.050461 41.845703 50.384766 C 40.467662 53.377516 43.411509 57.246298 46.664062 56.710938 C 48.633665 56.663374 50.622637 56.692143 52.558594 57.095703 C 53.833998 58.710709 53.217098 61.409842 51.365234 62.308594 C 50.17807 63.814811 51.149433 66.390412 53.033203 66.742188 C 53.761495 67.273173 54.495294 67.845456 54.974609 68.623047 C 52.650476 70.744693 49.920507 72.347999 47.185547 73.875 C 47.01099 74.557064 48.021878 75.111911 48.503906 74.599609 C 53.637459 73.673019 58.769973 72.738281 63.919922 71.90625 C 67.130355 74.383982 68.707697 78.731621 67.958984 82.701172 C 68.184145 86.672935 68.669842 90.630196 69.419922 94.537109 C 68.434038 87.116642 69.068067 79.486434 71.263672 72.330078 C 75.095687 72.423831 78.836389 74.282139 81.248047 77.257812 C 81.950554 77.769877 82.67462 78.259384 83.460938 78.634766 C 85.12419 76.360864 89.181251 76.794454 90.328125 79.367188 C 89.70661 82.321233 90.123298 85.366834 89.671875 88.339844 C 88.205763 90.728021 85.029773 91.66416 84.091797 94.435547 C 82.501049 97.720018 82.563135 101.73451 84.203125 104.98828 C 84.667932 107.41085 81.12799 109.24711 79.421875 107.45898 C 78.475057 106.34651 77.513516 104.81483 75.882812 104.77539 C 73.915059 105.0315 72.115507 106.2425 70.082031 106.02344 C 68.50213 105.03142 68.254984 102.51352 69.607422 101.23047 C 69.669064 100.32277 68.193698 99.949905 67.794922 100.75586 C 63.620348 103.58623 57.854024 104.49848 53.291705 102.04793 C 51.614535 101.16816 50.15257 99.903963 48.974609 98.425781 C 46.715519 97.133352 43.477852 98.2669 42.505859 100.67773 C 40.132595 103.6748 38.150003 106.95098 36.121094 110.18359 C 36.018186 111.65336 38.394314 112.2238 38.987491 110.87327 C 41.781326 107.44569 45.979593 104.75931 50.536118 104.95966 C 51.442867 105.02913 52.336959 105.20496 53.220703 105.41406 C 54.000461 106.74779 53.29337 108.68585 51.839844 109.20703 C 49.18925 111.62263 49.323892 116.36378 52.107422 118.625 C 54.78097 117.86206 56.55255 115.43465 57.730701 113.05828 C 58.381003 111.38101 59.035494 109.29776 60.918691 108.65477 C 63.057202 108.06258 65.247428 110.51245 64.420037 112.57525 C 64.141418 116.09271 63.696945 119.74951 64.855469 123.16406 C 66.110221 125.09801 69.577424 124.20806 69.876953 121.9668 C 70.531603 120.14719 70.775223 118.1939 71.595703 116.43164 C 71.566254 114.70613 71.210878 112.57234 72.685292 111.30508 C 74.227468 109.89208 76.897354 110.82206 77.554688 112.71484 C 78.206127 114.22423 79.56233 115.52041 81.267929 115.61747 C 84.108969 116.00381 86.817346 113.99759 87.869178 111.43639 C 89.172383 108.76738 90.42255 106.07288 91.795365 103.43834 C 92.319832 102.29266 92.993306 101.14311 93.367188 99.972656 C 92.912543 99.265302 91.994857 99.854119 91.334873 99.804394 C 89.919958 99.981249 88.09906 99.422104 87.769531 97.851562 C 87.215992 95.841937 88.915895 93.562208 91.007812 93.550781 C 93.169897 92.778534 94.064917 90.250042 93.886719 88.121094 C 94.20551 85.1432 96.321523 82.736738 98.611328 80.986328 C 99.906588 79.415673 98.832884 76.689511 96.816879 76.410627 C 95.631852 76.046419 94.024732 75.549865 93.875 74.09375 C 93.685776 72.692567 94.64427 71.151961 96.078125 70.90625 C 97.882535 69.878068 96.887754 66.567969 94.791695 66.767514 C 92.686682 66.682157 90.981225 68.376285 90.21917 70.19869 C 88.523767 72.26543 85.681334 73.268592 83.056641 72.839844 C 81.948872 71.602285 82.511459 69.788498 83.132812 68.458984 C 83.476121 67.491643 83.809192 66.513829 83.976562 65.498047 C 82.359649 64.323749 80.202453 64.599066 78.354083 64.905325 C 75.901474 65.542524 73.996174 67.312887 72.00866 68.772762 C 70.92114 69.320157 69.743167 69.67289 68.544922 69.876953 C 66.875933 68.59288 67.05234 65.664452 68.841797 64.568359 C 69.352196 63.936701 69.839478 63.286338 70.296875 62.615234 C 68.61988 61.70437 66.742788 61.178113 64.841797 61.037109 C 64.025787 62.838734 62.716916 64.411891 61.097656 65.546875 C 59.288162 65.434775 57.945053 63.404968 58.462891 61.6875 C 58.222788 58.067932 56.47383 54.557502 53.669922 52.244141 C 51.916541 53.821157 48.668354 53.869174 47.310547 51.753906 C 46.40021 49.945696 46.937271 47.585548 48.451172 46.269531 C 49.925908 43.529722 49.810358 40.004451 48.138672 37.376953 C 47.752332 35.546547 50.025764 33.855981 51.667969 34.751953 C 54.88667 35.365389 58.412978 33.590453 59.787109 30.605469 C 59.868936 28.807073 59.60789 26.877898 60.496094 25.228516 C 61.408063 24.805112 62.559995 25.804689 62.287109 26.767578 C 63.592481 31.526916 66.517236 35.810662 66.898438 40.820312 C 66.43004 45.362561 65.351637 49.923006 65.974609 54.505859 C 66.727816 55.464802 68.519448 54.331188 67.976562 53.240234 C 67.87565 47.898739 67.896601 42.555252 67.736328 37.214844 C 65.780287 32.848809 63.717144 28.447654 62.904297 23.695312 C 61.884487 22.976568 63.531541 21.262267 64.271484 22.289062 C 65.842097 24.848197 65.115544 28.253644 67.060547 30.640625 C 67.65726 31.010161 68.490489 30.35383 68.345703 29.689453 C 69.018208 27.687163 72.062577 27.372446 73.304688 28.990234 C 76.798352 31.55427 79.984587 34.538621 83.685547 36.816406 C 84.698969 36.940428 84.832906 35.351157 84.054704 34.949632 C 82.870002 33.8632 81.585142 32.815171 80.800781 31.382812 C 81.190555 29.918288 83.629263 29.84393 84.113281 31.277344 C 86.44987 34.436849 88.786458 37.596354 91.123047 40.755859 C 93.457287 40.26747 94.459191 36.921944 92.792969 35.222656 C 90.708984 31.053385 88.625 26.884115 86.541016 22.714844 C 84.89224 24.442167 83.162418 26.279604 80.833984 27.050781 C 78.856358 26.930186 77.322131 24.744596 77.880859 22.84375 C 77.727325 21.534499 76.349455 20.51618 75.052734 20.757812 C 71.708371 19.67319 69.583964 15.799905 70.464844 12.396484 C 70.417026 11.216224 69.763495 10.069965 68.751953 9.453125 C 68.640625 9.5 68.529297 9.546875 68.417969 9.59375 z M 97.138672 89.292969 C 96.428076 90.028865 95.719383 90.766727 94.992188 91.486328 C 95.931341 90.793647 96.971915 90.103371 97.464844 89 C 97.35612 89.097656 97.247396 89.195313 97.138672 89.292969 z M 44.400391 91.310547 L 44.427734 91.212891 L 44.400391 91.310547 z M 44.359375 91.503906 L 44.380859 91.388672 L 44.359375 91.503906 z M 43.185547 92.71875 C 41.600978 92.996347 40.01569 93.269778 38.429688 93.539062 C 38.576273 99.175843 37.266882 104.84208 34.667969 109.8457 C 38.700633 104.89421 41.194971 98.94673 43.65625 93.115234 C 43.659809 92.879168 43.418873 92.671398 43.185547 92.71875 z M 70.453125 97.298828 L 70.460938 97.248047 L 70.453125 97.298828 z M 70.849609 98.154297 L 70.841797 98.037109 L 70.849609 98.154297 z M 88.5 99.021484 L 88.429688 98.939453 L 88.5 99.021484 z M 70.748047 99.449219 C 70.79883 99.14029 70.821732 99.000966 70.748047 99.449219 z M 69.962891 101.51562 C 70.021292 101.31294 69.99239 101.41324 69.962891 101.51562 z M 69.849609 101.89844 L 69.892578 101.78906 L 69.849609 101.89844 z "
       clip-path="url(#clipPath8)" />
    <path
       id="text10"
       style="font-style:normal;font-variant:normal;font-weight:normal;font-stretch:normal;font-size:40px;line-height:1.25;font-family:Aharoni;-inkscape-font-specification:'Aharoni, Normal';font-variant-ligatures:normal;font-variant-caps:normal;font-variant-numeric:normal;font-variant-east-asian:normal;white-space:pre;shape-inside:url(#rect11);display:inline;fill:#ffffff;fill-opacity:1;stroke:none;stroke-width:1.05833;stroke-linecap:round;stroke-dasharray:none;stroke-opacity:1;paint-order:fill markers stroke;filter:url(#filter12);opacity:0.44"
       d="m 65.25,7.6894531 c -0.492217,-0.055918 -1.014592,0.3081653 -0.82424,0.8385201 0.112729,2.7113078 0.01775,5.4254818 0.04885,8.1380428 -2.1875,1.62939 -5.050081,1.239249 -7.542273,1.958936 -3.351283,1.038782 -6.600498,2.444034 -9.395348,4.546109 -4.363678,3.208145 -7.754114,7.483248 -9.761407,12.508755 -1.641958,4.031505 -2.13348,8.48186 -1.546994,12.787798 0.18812,1.780541 0.475378,3.586402 1.00288,5.268732 0.446261,1.506547 1.036605,2.970716 1.760721,4.365216 -2.271029,-9.54267 0.06547,-20.265222 6.756384,-27.556865 3.579408,-3.774759 7.900027,-6.931167 12.813856,-8.721408 2.575792,-0.969729 5.277965,-1.606335 8.015697,-1.887742 0,-3.516276 0,-7.032552 0,-10.5488282 1.27477,0.6244302 2.911055,1.5206332 4.257813,0.5761718 C 71.542465,9.591418 71.885317,8.3581035 71.080078,7.9179688 69.146826,8.2136414 67.195833,7.5811437 65.25,7.6894531 Z M 79.791016,19.902344 c 1.813799,0.140853 3.6176,0.420113 5.386718,0.845703 -1.715336,-0.874181 -3.501402,-1.552473 -5.386718,-2.048828 0,0.401041 0,0.802083 0,1.203125 z M 66.287109,42.572266 c -1.502675,0.98084 -2.308876,2.879197 -1.891703,4.636456 0.105798,1.165087 -0.08407,2.333818 0.110346,3.498517 0.07431,1.316469 0.278156,2.869474 -0.614035,3.966364 -0.547893,0.320464 0.291745,0.717547 0.489142,1.035381 0.625773,0.570421 1.370526,1.038822 2.208985,1.210938 -0.02989,-4.8382 -0.002,-9.686987 -0.01172,-14.529297 -0.097,0.06055 -0.19401,0.121094 -0.291016,0.181641 z m 13.503907,17.753906 c 0.917465,0.209432 1.829421,0.443835 2.732422,0.708984 -0.898279,-0.397118 -1.806682,-0.772942 -2.732422,-1.101562 0,0.130859 0,0.261719 0,0.392578 z M 64.652344,81.041016 c -0.68039,0.337139 -0.358184,1.324318 -0.311314,1.930125 0.291586,2.202827 0.06306,4.431556 0.133579,6.646828 0,3.613021 0,7.226041 0,10.839061 -0.252715,0.24315 -1.162255,0.26302 -0.475978,0.61423 0.848508,0.73868 1.658952,1.31917 2.7084,1.77444 -0.288102,-1.84384 -0.0464,-3.718675 -0.128906,-5.576169 0,-5.278646 0,-10.557291 0,-15.835937 -0.615325,-0.2289 -1.262434,-0.420766 -1.925781,-0.392578 z m 17.820312,6.089843 c 0.120666,3.466216 -0.963761,6.878293 -2.617187,9.892579 0.279885,1.883011 -0.324626,3.756922 -0.197266,5.642582 3.477072,-2.03289 5.142743,-6.275179 4.953116,-10.177872 -0.108106,-2.14408 -0.79074,-4.309554 -2.177725,-5.974476 0.01302,0.205729 0.02604,0.411458 0.03906,0.617187 z m -30.144531,2.347657 c -1.834836,0.369939 -3.716898,0.08357 -5.573047,0.175781 -4.210026,0 -8.420052,0 -12.630078,0 0.0925,4.027593 0.830938,8.022917 2.375808,11.706883 0.242729,0.57229 0.495072,1.14192 0.782395,1.69351 -0.89749,-3.69257 -1.140963,-7.506805 -1.130859,-11.296878 5.580078,10e-7 11.160156,0 16.740234,0 -0.133779,-0.758559 -0.05715,-1.575756 -0.412109,-2.28125 l -0.08008,-0.0039 z M 64.53125,124.90625 c -0.274568,0.31812 -0.03754,0.84843 -0.0918,1.25 0.02508,0.52005 0.05195,1.04 0.06445,1.56055 1.208601,0.4604 2.73816,-0.88516 2.191406,-2.11719 -0.366402,-0.5811 -1.167201,-0.43811 -1.743767,-0.65622 -0.138241,-0.0296 -0.278811,-0.0463 -0.420295,-0.0371 z" />
    <path
       id="text12"
       style="font-style:normal;font-variant:normal;font-weight:normal;font-stretch:normal;font-size:40px;line-height:1.25;font-family:Aharoni;-inkscape-font-specification:'Aharoni, Normal';font-variant-ligatures:normal;font-variant-caps:normal;font-variant-numeric:normal;font-variant-east-asian:normal;white-space:pre;shape-inside:url(#rect13);display:inline;fill:#000000;fill-opacity:1;stroke:none;stroke-width:1.05833;stroke-linecap:round;stroke-dasharray:none;stroke-opacity:1;paint-order:fill markers stroke;filter:url(#filter14);opacity:0.8"
       d="m 71.648877,13.857306 c 1.183912,-0.41837 0.411363,-10.0977315 0,-5.6146955 0,1.8715615 0,3.7431285 0,5.6146955 z m 0,40.287078 c 1.277365,-1.590166 0.132129,-6.253116 0.522629,-8.968475 -0.185621,-3.863381 0.355195,-8.093079 -0.240185,-11.749699 -0.660052,2.125066 -0.09254,6.473626 -0.281909,9.451165 0,3.755668 0,7.511341 0,11.267009 z M 98.18654,35.557583 c -0.295282,1.589043 1.774049,5.805255 -0.649889,5.64186 -6.149633,0 -12.299267,0 -18.448847,0 2.415593,1.209396 6.630056,0.181235 9.743682,0.522415 3.424796,0 6.849646,0 10.274442,0 -0.04279,-2.787799 -0.438644,-5.584542 -1.358193,-8.22249 0.146037,0.686077 0.292608,1.372154 0.438645,2.058237 z M 59.602473,34.13667 c -4.725965,2.384042 -6.484341,8.592593 -4.534406,13.331509 -1.022737,-4.797512 1.00947,-10.25971 5.485141,-12.579261 -0.03745,-1.185212 0.35145,-1.527873 -0.950735,-0.752248 z m -1.608969,38.960194 c 4.359536,1.177311 2.448277,0.493956 0,0 z m 13.655373,24.280902 c 1.262601,-2.461003 0.142827,-6.368351 0.522629,-9.36549 0,-3.986218 0,-7.972442 0,-11.95866 -1.273085,1.437748 -0.135338,6.24154 -0.522629,8.916233 0,4.135972 0,8.271945 0,12.407917 z M 101.20597,78.331255 c 2.16258,13.669459 -3.950907,29.051375 -16.764565,35.353525 -3.939882,2.08454 -8.358475,3.14966 -12.792528,3.41861 0,3.53487 0,7.06974 0,10.6046 -1.919069,0.15744 -9.757109,-0.42762 -7.372007,0.52242 2.547936,-0.79677 8.642953,1.95352 7.894422,-2.13972 0.779771,-2.59287 -1.714297,-8.17279 1.545847,-8.50138 14.256798,-0.55015 26.427411,-12.63816 27.948291,-26.666757 0.58003,-4.563935 0.92837,-9.379346 -0.76245,-13.76144 0.1011,0.390072 0.20221,0.780113 0.30278,1.170164 z M 53.062071,88.998557 c 1.02921,5.866991 0.400665,-2.113426 0,0 z m -0.480369,27.415273 c 2.605494,0.68117 5.282188,1.05183 7.97172,1.17016 -1.532795,-0.96121 -4.769776,-0.39055 -6.974446,-1.10111 -0.560074,-0.0161 -4.117212,-0.96499 -0.997274,-0.0691 z" />
    <path
       id="text14"
       style="font-style:normal;font-variant:normal;font-weight:normal;font-stretch:normal;font-size:40px;line-height:1.25;font-family:Aharoni;-inkscape-font-specification:'Aharoni, Normal';font-variant-ligatures:normal;font-variant-caps:normal;font-variant-numeric:normal;font-variant-east-asian:normal;white-space:pre;shape-inside:url(#rect15);display:inline;mix-blend-mode:overlay;fill:#ffd200;fill-opacity:1;stroke:none;stroke-width:1.05833;stroke-linecap:round;stroke-dasharray:none;stroke-opacity:1;paint-order:fill markers stroke;filter:url(#filter15);opacity:0.88"
       d="m 67.626953,11.414062 c 0.137609,2.193515 0.10148,4.402563 0.0059,6.59375 -0.312337,1.097325 -1.51598,1.547346 -2.402161,2.096005 -2.781759,1.407282 -5.986917,1.136882 -8.84475,2.208653 -3.382179,1.143485 -6.678741,3.068565 -9.330724,5.560006 -5.055813,4.723902 -8.308302,11.632982 -7.79543,18.628007 0.111425,2.377944 0.439617,4.763405 1.20705,7.099126 2.127454,6.147291 7.212524,11.082298 13.0625,13.617188 4.534149,1.950565 9.356438,3.090798 14.166015,4.126953 0,11.401693 10e-7,22.803385 0,34.20508 -5.278381,-0.144 -10.699048,-2.0596 -14.286204,-6.056316 -1.640173,-1.86519 -2.896397,-4.097933 -3.502858,-6.513998 -4.117752,0.02214 -8.335107,-0.04428 -12.390625,0.0332 0.407118,3.270026 1.435204,6.568924 3.099609,9.501954 1.421772,2.48561 3.1729,4.60192 5.446413,6.36112 4.794951,3.63945 11.010761,4.78198 16.867034,4.88637 1.296322,0.14249 2.697259,-0.2557 3.913116,0.3072 1.177332,0.76855 0.801107,2.33011 0.853515,3.51367 0,2.25326 10e-7,4.50651 0,6.75977 0.839452,0.30637 0.372889,-0.76388 0.454603,-1.25407 -0.104914,-2.67533 -0.06877,-5.61161 1.547351,-7.87875 1.24722,-1.48352 3.333948,-1.54739 5.11687,-1.57477 4.267518,-0.41358 8.524246,-2.14032 11.966297,-4.60298 4.654845,-3.30348 8.251433,-8.11745 9.909788,-13.621733 1.027027,-3.471824 1.562797,-7.112815 1.467051,-10.735945 C 98.035968,80.845611 96.812447,76.92771 94.519531,73.96875 92.540405,71.487068 90.068771,69.429582 87.482224,67.607515 82.64938,64.275735 77.07564,62.124336 71.338969,60.965996 70.29636,60.821611 69.29183,60.306701 68.779297,59.349609 c -0.975,-1.624952 -0.496184,-3.56232 -0.575157,-5.340624 -0.0048,-9.139714 -0.01067,-18.279427 -0.01469,-27.419141 4.513937,1.896214 9.255273,3.962244 12.39008,7.888857 0.818481,1.006135 1.500864,2.123311 2.027889,3.308408 4.053385,0 8.106771,0 12.160156,0 -1.83825,-8.847746 -10.064713,-15.760056 -19.019507,-16.430978 -2.220352,-0.142933 -4.598273,-0.6201 -6.187524,-2.311209 -1.512024,-1.52303 -1.925425,-3.82009 -1.531179,-5.873353 0.08202,-0.681976 0.202772,-1.360533 0.249929,-2.046569 -0.312577,0.06944 -0.859989,-0.308621 -0.652344,0.289062 z m 0.06836,17.203126 c 10e-7,9.89388 10e-7,19.78776 0,29.68164 C 62.992116,59.356511 57.64874,58.15939 54.271497,54.604269 51.17693,51.498201 50.299336,46.783687 51.023957,42.576536 51.911654,36.433802 56.88232,31.371617 62.734376,29.636719 c 1.653663,-0.589795 3.307131,-1.180138 4.960937,-1.769531 10e-7,0.249999 0,0.5 0,0.75 z m 1.19336,42.003906 c 2.766538,1.091636 5.710528,1.684884 8.429185,2.899241 4.529437,2.035619 7.419235,6.71794 8.179545,11.514083 0.580596,3.91746 0.0093,8.061859 -1.83872,11.584367 -2.315099,4.304125 -6.509011,7.372745 -11.112489,8.852585 -1.452236,0.56881 -2.904612,1.13727 -4.35674,1.70636 0,-12.264319 0,-24.528641 0,-36.792964 0.233073,0.07878 0.466146,0.157552 0.699219,0.236328 z" />
    <path
       style="fill:none;stroke:#ffffff;stroke-width:2.05463;stroke-linecap:butt;stroke-linejoin:miter;stroke-dasharray:none;stroke-opacity:1;filter:url(#filter16);opacity:0.4"
       d="m -54.813559,59.055032 c -10.243243,-6.058795 -9.534416,-26.560656 -25.642314,-22.606541 -10.094679,-4.123678 -18.629699,1.397451 -22.673647,10.731654 -7.39705,8.743282 9.281832,13.192195 2.35466,22.451157 4.984413,5.623674 17.813776,2.26121 23.470141,10.457615 5.476227,0.04684 21.283095,-2.644807 17.273374,9.680608 -5.444871,8.09462 11.277607,20.344075 -3.519797,24.291915 -7.786847,6.2869 -19.076526,7.74916 -26.27781,-0.25355 -5.558779,-2.65989 -11.833658,7.13747 -15.371018,-2.41996 -0.14155,-2.75604 -7.27844,-19.363483 -16.17692,-15.724511"
       id="path16"
       sodipodi:nodetypes="cccccccccc"
       clip-path="url(#clipPath16)"
       transform="matrix(1.0301917,0,0,1.0301917,151.93366,-13.840007)" />
  </g>
</svg>
