<?xml version="1.0" encoding="UTF-8" standalone="no"?>
<!-- Created with Inkscape (http://www.inkscape.org/) -->

<svg
   width="512"
   height="512"
   viewBox="0 0 135.46666 135.46667"
   version="1.1"
   id="svg5"
   inkscape:version="1.4.2 (ebf0e940d0, 2025-05-08)"
   sodipodi:docname="emblem-web.svg"
   xmlns:inkscape="http://www.inkscape.org/namespaces/inkscape"
   xmlns:sodipodi="http://sodipodi.sourceforge.net/DTD/sodipodi-0.dtd"
   xmlns:xlink="http://www.w3.org/1999/xlink"
   xmlns="http://www.w3.org/2000/svg"
   xmlns:svg="http://www.w3.org/2000/svg">
  <sodipodi:namedview
     id="namedview7"
     pagecolor="#292929"
     bordercolor="#666666"
     borderopacity="1"
     inkscape:showpageshadow="0"
     inkscape:pageopacity="0"
     inkscape:pagecheckerboard="1"
     inkscape:deskcolor="#1a1a1a"
     inkscape:document-units="px"
     showgrid="false"
     inkscape:zoom="2"
     inkscape:cx="464.75"
     inkscape:cy="229.75"
     inkscape:window-width="3256"
     inkscape:window-height="1080"
     inkscape:window-x="1864"
     inkscape:window-y="0"
     inkscape:window-maximized="0"
     inkscape:current-layer="layer1" />
  <defs
     id="defs2">
    <linearGradient
       id="linearGradient22"
       inkscape:collect="always">
      <stop
         style="stop-color:#000eff;stop-opacity:1;"
         offset="0"
         id="stop22" />
      <stop
         style="stop-color:#000b47;stop-opacity:1;"
         offset="1"
         id="stop23" />
    </linearGradient>
    <inkscape:path-effect
       effect="fillet_chamfer"
       id="path-effect7"
       is_visible="true"
       lpeversion="1"
       nodesatellites_param="IF,0,0,1,0,56.306155,0,1 @ IF,0,0,1,0,0,0,1 @ IF,0,0,1,0,56.306161,0,1 @ IF,0,0,1,0,0,0,1 @ IF,0,0,1,0,56.306157,0,1 @ IF,0,0,1,0,0,0,1 @ IF,0,0,1,0,56.306158,0,1 @ IF,0,0,1,0,0,0,1 @ IF,0,0,1,0,56.306158,0,1 @ IF,0,0,1,0,0,0,1 @ IF,0,0,1,0,56.306158,0,1 @ IF,0,0,1,0,0,0,1 @ IF,0,0,1,0,56.306155,0,1 @ IF,0,0,1,0,0,0,1 @ IF,0,0,1,0,56.306161,0,1 @ IF,0,0,1,0,0,0,1"
       radius="0"
       unit="px"
       method="auto"
       mode="IF"
       chamfer_steps="1"
       flexible="false"
       use_knot_distance="true"
       apply_no_radius="true"
       apply_with_radius="true"
       only_selected="false"
       hide_knots="false" />
    <inkscape:path-effect
       effect="fillet_chamfer"
       id="path-effect5"
       is_visible="true"
       lpeversion="1"
       nodesatellites_param="IF,0,0,1,0,56.306155,0,1 @ IF,0,0,1,0,0,0,1 @ IF,0,0,1,0,56.306161,0,1 @ IF,0,0,1,0,0,0,1 @ IF,0,0,1,0,56.306157,0,1 @ IF,0,0,1,0,0,0,1 @ IF,0,0,1,0,56.306158,0,1 @ IF,0,0,1,0,0,0,1 @ IF,0,0,1,0,56.306158,0,1 @ IF,0,0,1,0,0,0,1 @ IF,0,0,1,0,56.306158,0,1 @ IF,0,0,1,0,0,0,1 @ IF,0,0,1,0,56.306155,0,1 @ IF,0,0,1,0,0,0,1 @ IF,0,0,1,0,56.306161,0,1 @ IF,0,0,1,0,0,0,1"
       radius="0"
       unit="px"
       method="auto"
       mode="IF"
       chamfer_steps="1"
       flexible="false"
       use_knot_distance="true"
       apply_no_radius="true"
       apply_with_radius="true"
       only_selected="false"
       hide_knots="false" />
    <inkscape:path-effect
       effect="fillet_chamfer"
       id="path-effect3"
       is_visible="true"
       lpeversion="1"
       nodesatellites_param="IF,0,0,1,0,56.306155,0,1 @ IF,0,0,1,0,0,0,1 @ IF,0,0,1,0,56.306161,0,1 @ IF,0,0,1,0,0,0,1 @ IF,0,0,1,0,56.306157,0,1 @ IF,0,0,1,0,0,0,1 @ IF,0,0,1,0,56.306158,0,1 @ IF,0,0,1,0,0,0,1 @ IF,0,0,1,0,56.306158,0,1 @ IF,0,0,1,0,0,0,1 @ IF,0,0,1,0,56.306158,0,1 @ IF,0,0,1,0,0,0,1 @ IF,0,0,1,0,56.306155,0,1 @ IF,0,0,1,0,0,0,1 @ IF,0,0,1,0,56.306161,0,1 @ IF,0,0,1,0,0,0,1"
       radius="0"
       unit="px"
       method="auto"
       mode="IF"
       chamfer_steps="1"
       flexible="false"
       use_knot_distance="true"
       apply_no_radius="true"
       apply_with_radius="true"
       only_selected="false"
       hide_knots="false" />
    <inkscape:path-effect
       effect="fillet_chamfer"
       id="path-effect1"
       is_visible="true"
       lpeversion="1"
       nodesatellites_param="IF,0,0,1,0,56.306155,0,1 @ IF,0,0,1,0,0,0,1 @ IF,0,0,1,0,56.306161,0,1 @ IF,0,0,1,0,0,0,1 @ IF,0,0,1,0,56.306157,0,1 @ IF,0,0,1,0,0,0,1 @ IF,0,0,1,0,56.306158,0,1 @ IF,0,0,1,0,0,0,1 @ IF,0,0,1,0,56.306158,0,1 @ IF,0,0,1,0,0,0,1 @ IF,0,0,1,0,56.306158,0,1 @ IF,0,0,1,0,0,0,1 @ IF,0,0,1,0,56.306155,0,1 @ IF,0,0,1,0,0,0,1 @ IF,0,0,1,0,56.306161,0,1 @ IF,0,0,1,0,0,0,1"
       radius="0"
       unit="px"
       method="auto"
       mode="IF"
       chamfer_steps="1"
       flexible="false"
       use_knot_distance="true"
       apply_no_radius="true"
       apply_with_radius="true"
       only_selected="false"
       hide_knots="false" />
    <clipPath
       clipPathUnits="userSpaceOnUse"
       id="clipPath24">
      <path
         style="color:#000000;fill:url(#radialGradient25);stroke-width:0.999998;stroke-linecap:round;stroke-linejoin:round;-inkscape-stroke:none;paint-order:markers stroke fill"
         d="m -81.129586,79.956955 a 67.309639,67.309639 0 0 1 -67.309634,67.309635 67.309639,67.309639 0 0 1 -67.30964,-67.309635 67.309639,67.309639 0 0 1 67.30964,-67.309639 67.309639,67.309639 0 0 1 67.309634,67.309639 z"
         id="path25" />
    </clipPath>
    <radialGradient
       inkscape:collect="always"
       xlink:href="#linearGradient22"
       id="radialGradient25"
       gradientUnits="userSpaceOnUse"
       cx="-148.43922"
       cy="79.956955"
       fx="-148.43922"
       fy="79.956955"
       r="67.309639" />
  </defs>
  <g
     inkscape:label="Layer 1"
     inkscape:groupmode="layer"
     id="layer1"
     style="display:inline">
    <path
       style="baseline-shift:baseline;display:inline;overflow:visible;vector-effect:none;fill:#000000;stroke-linecap:round;paint-order:fill markers stroke;enable-background:accumulate;stop-color:#000000"
       d="m 40.516745,-0.0547503 -0.39843,0.5937496 c -0.13746,0.03286 -0.25265,0.08028 -0.37305,0.154297 l -0.69336,-0.134765 0.16211,0.388671 C 29.076525,16.10416 16.059485,29.121052 0.89761,39.25189 0.74281,39.355254 0.79702,39.574402 0.70035,39.726499 h -0.01 l 0.004,0.01563 c -0.0753,0.121932 -0.12525,0.23749 -0.15821,0.376954 l -0.58984,0.398437 0.40039,0.166016 c 3.54318,17.863346 3.54161,36.248329 -0.004,54.111327 l -0.38282,0.1582 0.57813,0.38868 c 0.033,0.13918 0.0811,0.25524 0.15625,0.37695 l -0.13867,0.70703 0.40625,-0.16797 c 15.135025,10.125677 28.132815,23.124707 38.255855,38.261717 l -0.15821,0.38281 0.6875,-0.13476 c 0.11996,0.0735 0.23426,0.12158 0.3711,0.15429 l 0.40429,0.59961 0.16797,-0.40625 c 17.85894,-3.54152 36.23902,-3.54161 54.09766,0.002 l 0.16211,0.39062 0.39258,-0.58398 c 0.13918,-0.033 0.25524,-0.0811 0.37695,-0.15625 l 0.69922,0.13672 -0.16602,-0.39844 C 106.37605,119.37255 119.37345,106.37515 134.50674,96.251933 l 0.39844,0.16602 -0.13672,-0.69922 c 0.0748,-0.12156 0.12342,-0.23803 0.15625,-0.37695 l 0.58398,-0.39258 -0.39258,-0.16211 c -3.54345,-17.859306 -3.54361,-36.240129 -0.002,-54.099656 l 0.40625,-0.167969 -0.5957,-0.40039 c -0.0328,-0.138927 -0.0814,-0.255393 -0.15625,-0.376954 l 0.13476,-0.683593 -0.38476,0.158203 C 119.38268,29.093918 106.38411,16.095148 96.258935,0.9608743 l 0.16797,-0.40625 -0.70703,0.138672 c -0.12171,-0.07513 -0.23777,-0.123274 -0.37695,-0.15625 l -0.38868,-0.5781247 -0.1582,0.3828125 c -17.86373,3.5456632 -36.24924,3.5455682 -54.11328,0.00195 z m 52.48633,3.3398436 -5.16992,12.4824217 c -13.27628,2.553629 -26.91078,2.554732 -40.1875,0.0039 L 42.475735,3.2889993 c 16.71317,3.029452 33.81442,3.027617 50.52734,-0.0039 z m -52.97461,1.013672 5.16992,12.4785157 c -7.58408,11.194173 -17.22752,20.83809 -28.42187,28.421875 L 4.298,40.029234 C 18.259755,30.353947 30.352915,18.260311 40.028465,4.2987653 Z m 55.41406,0.0098 C 105.11803,18.267348 117.21064,30.359727 131.17104,40.033174 l -12.48437,5.169922 C 107.49535,37.622308 97.856275,27.982177 90.272605,16.792906 Z m -8.78906,14.3066397 -5.83008,14.074219 c -8.64831,1.634465 -17.51918,1.635765 -26.16796,0.0039 l -5.83008,-14.074218 c 12.51994,2.203908 25.30847,2.202392 37.82812,-0.0039 z m -40.27539,1.011719 5.82813,14.070313 c -4.96148,7.272335 -11.23362,13.5482 -18.50586,18.509765 l -14.07422,-5.830078 c 10.41253,-7.293763 19.45816,-16.337488 26.75195,-26.75 z m 42.71485,0.01758 c 7.29337,10.407567 16.336325,19.44578 26.746085,26.736328 L 101.76674,52.21091 C 94.496805,47.252447 88.224385,40.982421 83.262845,33.714781 Z m -9.44727,15.890619 -5.81641,14.046875 c -4.02985,0.722213 -8.14738,0.721575 -12.17773,0.002 l -5.81836,-14.046922 c 7.88936,1.300795 15.92338,1.301122 23.8125,-0.002 z m -26.25977,1.007813 5.81836,14.048828 c -2.34024,3.360041 -5.25313,6.271101 -8.61328,8.611328 l -14.04687,-5.818389 c 6.50095,-4.658907 12.18303,-10.340781 16.84179,-16.841797 z m 28.69922,0.01758 c 4.65836,6.496489 10.33739,12.174238 16.83594,16.830078 l -14.04883,5.818359 c -3.35793,-2.337272 -6.26525,-5.245736 -8.60547,-8.601562 z M 3.29019,42.476531 15.772605,47.646453 c 2.55062,13.276061 2.54977,26.909956 -0.004,40.185547 L 3.28814,93.001923 C 6.319225,76.290132 6.319215,59.188591 3.29014,42.476531 Z m 128.8828,0.002 c -3.02846,16.709285 -3.02766,33.80647 0.002,50.515622 l -12.48828,-5.171872 c -0.0464,-0.241574 -0.0627,-0.486706 -0.10743,-0.728516 v -0.01758 l -0.002,0.002 c -2.41055,-13.036955 -2.39571,-26.401524 0.10547,-39.425781 z m -113.552725,6.345703 14.07226,5.828125 c 1.63231,8.650123 1.63148,17.524237 -0.004,26.173828 l -14.07227,5.828125 c 2.20638,-12.519579 2.20739,-25.310222 0.004,-37.830078 z m 98.214835,0.0098 c -2.20143,12.51292 -2.20015,25.295951 0.004,37.808594 l -14.07227,-5.828155 c -0.0469,-0.248149 -0.0652,-0.499531 -0.10937,-0.748047 -1.1e-4,-6.35e-4 1.1e-4,-0.0013 0,-0.002 -1.49431,-8.406854 -1.47711,-17.007456 0.10547,-25.402344 z m -44.156245,3.521402 -4.93945,11.925781 -4.93945,-11.923828 c 3.28504,0.439637 6.594,0.439399 9.8789,-0.002 z m -12.32617,1.009765 4.94141,11.927735 -11.92969,-4.941407 c 2.635,-2.011614 4.97651,-4.351408 6.98828,-6.986328 z m 14.76563,0.01758 c 2.01038,2.63018 4.34861,4.966144 6.98046,6.97461 l -11.91406,4.935547 z m -39.58008,2.451172 14.04687,5.81836 c 0.71936,4.029619 0.7183,8.144831 -0.004,12.173828 L 35.534225,79.6445 c 1.30305,-7.888881 1.30429,-15.921464 0.004,-23.810547 z m 64.3789,0.0078 c -1.2988,7.883694 -1.2957,15.91148 0.006,23.794922 l -14.04882,-5.820313 c -0.71969,-4.023417 -0.72098,-8.132375 -0.004,-12.15625 z m -47.55859,6.957031 11.92383,4.939453 -11.92578,4.939453 c 0.44133,-3.284919 0.4414,-6.593911 0.002,-9.878906 z m 30.73828,0.0078 c -0.43803,3.279023 -0.436,6.582436 0.004,9.861328 l -11.90625,-4.929688 z m -17.80273,7.375 -4.93555,11.917968 c -2.00892,-2.632838 -4.34549,-4.971409 -6.97656,-6.982422 z m 4.89062,0.002 11.89844,4.927734 c -2.62826,2.007838 -4.96286,4.342451 -6.9707,6.970703 z m -2.44531,1.009765 4.92969,11.90625 c -3.27886,-0.439697 -6.58232,-0.441936 -9.86133,-0.0039 z m 17.11719,5.066407 14.04297,5.818359 c -6.49232,4.65461 -12.16586,10.331758 -16.82032,16.824208 l -5.81836,-14.046864 c 2.33678,-3.352639 5.24307,-6.258928 8.59571,-8.595703 z m -34.24805,0.0059 c 3.35527,2.339779 6.2645,5.248399 8.60156,8.605469 l -5.81836,14.046868 c -4.65536,-6.49747 -10.3346,-12.176161 -16.83007,-16.833978 z m 51.138665,6.990234 14.07422,5.830078 C 105.41599,96.376173 96.377585,105.41314 89.087065,115.81838 l -5.83008,-14.07227 c 4.95781,-7.263827 11.22638,-13.532415 18.490225,-18.49022 z m -68.029285,0.0059 c 7.26745,4.961571 13.53588,11.236043 18.49414,18.50585 l -5.82813,14.07226 C 39.093075,105.42887 30.054075,96.385723 19.645655,89.091764 Z m 34.01171,2.019531 c 2.03887,0 4.07356,0.230601 6.08985,0.591797 l 5.8164,14.046865 c -7.88262,-1.3009 -15.91012,-1.30223 -23.79296,-0.004 l 5.8164,-14.046871 c 2.00935,-0.358675 4.03889,-0.587891 6.07031,-0.587891 z m 50.939455,4.984375 12.48828,5.171877 c -13.95661,9.673007 -26.04564,21.762137 -35.718745,35.718737 l -5.17188,-12.48828 c 7.5803,-11.18589 17.216475,-20.822047 28.402345,-28.402334 z m -101.874995,0.0059 c 11.18929,7.583757 20.8294,17.222564 28.41015,28.414054 l -5.16992,12.48632 C 30.360675,117.21086 18.269005,105.11732 4.30972,95.441513 Z m 50.93554,11.240224 c 4.38159,0 8.75893,0.43686 13.08399,1.25391 l 5.83008,14.07226 c -12.51324,-2.20389 -25.29707,-2.20529 -37.81055,-0.004 l 5.83008,-14.07226 c 4.31855,-0.81453 8.69175,-1.25 13.0664,-1.25 z m 0,16.23242 c 6.72981,0 13.45651,0.66676 20.09571,1.94336 l 5.16992,12.48633 c -16.70849,-3.02967 -33.80495,-3.03004 -50.51367,-0.002 l 5.17383,-12.48828 c 6.63217,-1.27382 13.35183,-1.93945 20.07421,-1.93945 z"
       id="path4" />
    <path
       id="path40"
       style="color:#000000;display:none;opacity:1;mix-blend-mode:normal;fill:#ffffff;fill-opacity:0.995937;stroke-linecap:round;stroke-linejoin:round;-inkscape-stroke:none;paint-order:markers stroke fill"
       d="M 67.734366,0.52916666 C 30.63114,0.52916666 0.52916666,30.629071 0.52916666,67.732299 v 0.001 10e-4 c 8e-8,0.0028 5.1634e-4,0.0055 5.1676e-4,0.0083 1.08e-6,0.0033 -2.35e-6,0.0065 0,0.0098 C 0.54064836,104.84637 30.637899,134.9375 67.734366,134.9375 c 37.102534,0 67.202004,-30.10086 67.203134,-67.203134 v -10e-4 -0.001 c 0,-37.103228 -30.0999,-67.20313234 -67.203134,-67.20313234 z m 1.0573,2.45566404 c 0.267467,0.1617485 0.546731,0.3743326 0.850594,0.6852295 0.735404,0.7524272 1.524071,1.9620295 2.283581,3.5682576 0.844172,1.7852726 1.651475,4.0981032 2.411223,6.7814982 -1.827577,-0.143294 -3.678876,-0.217563 -5.545398,-0.240812 z m -2.116667,5.168e-4 V 13.779004 c -1.866518,0.02329 -3.717819,0.09747 -5.545398,0.240812 0.759748,-2.683395 1.56705,-4.9962256 2.411223,-6.7814982 0.75951,-1.6062281 1.548177,-2.8158304 2.283581,-3.5682576 0.303597,-0.3106247 0.582942,-0.5229881 0.850594,-0.6847127 z m 5.75107,0.813387 c 1.650487,0.8153422 3.26666,2.0520017 4.837431,3.7129516 1.867286,1.9744877 3.646143,4.5321569 5.289083,7.5798989 C 80.594871,14.7375 78.606353,14.45246 76.589123,14.238924 75.750044,11.141396 74.839538,8.445892 73.839936,6.3319132 73.388211,5.3765933 72.918503,4.5378468 72.426069,3.7987345 Z m -9.38599,5.168e-4 C 62.547796,4.53822 62.07833,5.3768579 61.626729,6.3319132 60.627127,8.445892 59.716621,11.141396 58.877542,14.238924 c -2.017164,0.213577 -4.005803,0.499062 -5.96346,0.853178 1.643003,-3.047928 3.421711,-5.6058372 5.289083,-7.5804159 1.570302,-1.6604539 3.186435,-2.897079 4.836914,-3.7124348 z m 14.411006,0.9425781 c 5.468614,2.4009273 10.494216,6.7856666 14.782044,12.7325556 -2.286847,-0.719366 -4.6304,-1.34487 -7.030062,-1.862418 C 83.286539,11.773075 81.146855,8.5392111 78.800874,6.0585448 78.35941,5.5917365 77.908554,5.1554214 77.451085,4.7418294 Z m -19.437056,0.00155 c -0.456954,0.4131557 -0.907311,0.8489241 -1.348238,1.3151651 -2.345983,2.4806663 -4.484684,5.7145305 -6.400643,9.5534225 -2.400237,0.51768 -4.744749,1.143348 -7.032129,1.862935 4.287339,-5.946056 9.312948,-10.3302199 14.78101,-12.7315226 z M 51.988557,5.7179972 C 47.472267,8.8304722 43.389598,13.230425 39.90299,18.606099 36.466361,19.863285 33.176408,21.334756 30.077234,23.0203 36.038372,15.120736 43.548607,9.0967532 51.988557,5.7179972 Z m 31.491618,0 C 91.919899,9.0967583 99.42966,15.120758 105.39047,23.0203 102.29153,21.334831 99.002122,19.863249 95.565742,18.606099 92.079132,13.230425 87.996465,8.8304722 83.480175,5.7179972 Z m 6.754626,0.9203572 C 108.08347,13.210359 122.25011,27.377036 128.82366,45.225146 124.44033,37.558102 117.89556,30.870001 109.81397,25.654248 104.59649,17.569042 97.905555,11.021977 90.234801,6.6383544 Z m -45.00242,5.168e-4 C 37.56151,11.022666 30.870329,17.569985 25.652697,25.655281 17.570435,30.871579 11.025267,37.56041 6.6419718,45.228247 13.215219,27.379194 27.383027,13.211498 45.232381,6.6388712 Z m 21.442618,9.2573158 v 11.107849 c -2.825454,0.02641 -5.608772,0.155506 -8.339542,0.386023 0.337833,-2.175502 0.692337,-4.281278 1.080554,-6.222359 0.355431,-1.777157 0.737141,-3.412398 1.13068,-4.97179 2.015489,-0.176377 4.060442,-0.27335 6.128308,-0.299723 z m 2.116667,0 c 2.067869,0.02632 4.112813,0.123396 6.128308,0.299723 0.393539,1.559392 0.775249,3.194633 1.13068,4.97179 0.388212,1.941059 0.742208,4.046885 1.080038,6.222359 -2.730618,-0.23044 -5.513745,-0.359665 -8.339026,-0.386023 z m 8.380884,0.528133 c 2.232281,0.258331 4.427866,0.603748 6.579443,1.037663 0.589999,1.234481 1.161577,2.527998 1.706872,3.891235 0.927413,2.318532 1.764003,4.863118 2.546098,7.517371 C 85.180428,28.331676 82.273089,27.909378 79.301618,27.598315 78.936562,25.201506 78.551116,22.884623 78.124946,20.753772 77.821624,19.237159 77.50406,17.793437 77.17255,16.42432 Z m -18.878435,5.17e-4 c -0.331466,1.368965 -0.649111,2.812511 -0.952396,4.328935 -0.4262,2.131 -0.811595,4.448066 -1.176672,6.84506 -2.971325,0.311106 -5.878951,0.733338 -8.703345,1.272274 0.782132,-2.654431 1.61863,-5.199217 2.546098,-7.517888 0.545203,-1.363012 1.116461,-2.656418 1.706355,-3.890718 2.151729,-0.434021 4.347508,-0.779254 6.57996,-1.037663 z m -9.178251,1.614889 c -0.366286,0.82149 -0.72548,1.660224 -1.072802,2.528527 -1.084122,2.710305 -2.068285,5.656026 -2.952275,8.78396 -3.327738,0.719111 -6.533096,1.593504 -9.596313,2.60811 1.482485,-3.777615 3.183143,-7.287548 5.08341,-10.454659 0.238468,-0.397446 0.487508,-0.77551 0.731739,-1.162203 2.521699,-0.894602 5.125926,-1.666958 7.806241,-2.303735 z m 37.236487,0 c 2.679486,0.636575 5.283201,1.408458 7.804175,2.302701 0.244435,0.387008 0.493587,0.765458 0.732255,1.163237 1.900089,3.166813 3.600505,6.676418 5.082893,10.453625 -3.062549,-1.014276 -6.267312,-1.888155 -9.594246,-2.607076 -0.883839,-3.127934 -1.867636,-6.073655 -2.951758,-8.78396 -0.347321,-0.868303 -0.706965,-1.707037 -1.073319,-2.528527 z m -48.246667,3.526399 c -1.975782,3.450867 -3.735948,7.232992 -5.233789,11.30732 -4.074493,1.498121 -7.856949,3.25819 -11.307837,5.234306 1.586437,-3.88366 3.472615,-7.538113 5.622913,-10.918196 3.380095,-2.150672 7.034931,-4.036669 10.918713,-5.62343 z m 59.257364,0 c 3.883182,1.586532 7.537512,3.472119 10.917162,5.622396 2.15021,3.38002 4.03602,7.034596 5.6224,10.918196 -3.45053,-1.97575 -7.23234,-3.735906 -11.30629,-5.233789 -1.49757,-4.074155 -3.257597,-7.856065 -5.233272,-11.306803 z m -30.688049,7.553544 v 11.118185 c -3.382899,0.02127 -6.691529,0.155343 -9.934794,0.371036 0.354325,-3.914798 0.781425,-7.61558 1.274341,-11.071158 2.830229,-0.253109 5.723113,-0.389921 8.660453,-0.418063 z m 2.116667,0 c 2.937496,0.02809 5.830156,0.164981 8.660453,0.418063 0.492915,3.455578 0.920016,7.15636 1.274341,11.071158 -3.243266,-0.215665 -6.55179,-0.349807 -9.934794,-0.371036 z m -12.950631,0.643372 c -0.481067,3.438869 -0.896148,7.11079 -1.241268,10.976591 -3.499701,0.279786 -6.871817,0.692744 -10.152868,1.18339 0.647376,-3.78291 1.430301,-7.380887 2.335258,-10.750765 2.931506,-0.594206 5.955488,-1.066935 9.058878,-1.409216 z m 23.784595,0 c 3.103367,0.342246 6.127446,0.815029 9.058878,1.409216 0.904957,3.369878 1.687882,6.967855 2.335258,10.750765 -3.281027,-0.490648 -6.653128,-0.903624 -10.152868,-1.18339 -0.34512,-3.865801 -0.760201,-7.537722 -1.241268,-10.976591 z m 32.8228,0.315743 c 7.89855,5.96089 13.92178,13.470558 17.30024,21.909773 -3.11218,-4.515855 -7.51159,-8.598146 -12.88655,-12.084533 -1.25695,-3.436511 -2.72841,-6.726162 -4.41369,-9.82524 z m -89.430714,0.0021 C 21.332625,33.179687 19.861388,36.468942 18.604549,39.90509 13.232073,43.390063 8.834213,47.470816 5.7221313,51.984423 9.1005396,43.547899 15.121812,36.040409 23.017716,30.080851 Z m 21.464323,1.583366 c -0.864443,3.344191 -1.621294,6.869426 -2.237073,10.580749 -3.711444,0.615789 -7.236989,1.372632 -10.581266,2.237073 0.791618,-3.47005 1.754783,-6.794378 2.870626,-9.947713 3.153213,-1.115754 6.477815,-2.078517 9.947713,-2.870109 z m 46.504137,0 c 3.469476,0.791549 6.793311,1.754437 9.946164,2.870109 1.11584,3.153335 2.07901,6.477663 2.87063,9.947713 C 100.45893,43.617621 96.933873,42.860743 93.222732,42.244966 92.60718,38.533641 91.850438,35.00841 90.986176,31.664217 Z m -59.026887,3.830774 c -1.014436,3.063033 -1.888607,6.268299 -2.607593,9.595796 -3.127829,0.883941 -6.073336,1.868232 -8.783443,2.952275 -0.868526,0.347411 -1.707354,0.706934 -2.529044,1.073319 0.636671,-2.680213 1.408745,-5.28462 2.303218,-7.806242 0.387003,-0.244439 0.765458,-0.493587 1.163237,-0.732255 3.166688,-1.900013 6.676382,-3.600546 10.453625,-5.082893 z m 71.549641,5.16e-4 c 3.77662,1.482251 7.28568,3.182543 10.45207,5.082377 0.39791,0.238744 0.77663,0.487736 1.16375,0.732255 0.89442,2.521622 1.66608,5.126029 2.30271,7.806242 -0.82169,-0.366385 -1.66052,-0.725908 -2.52905,-1.073319 -2.70998,-1.083995 -5.6554,-2.067847 -8.78292,-2.951758 -0.71878,-3.327504 -1.59233,-6.532753 -2.60656,-9.595797 z m -36.833931,6.860047 v 11.100614 c -3.684483,0.01164 -7.288802,0.08538 -10.804508,0.21239 0.164301,-3.773939 0.392406,-7.425505 0.679545,-10.925431 3.300605,-0.227317 6.674613,-0.365443 10.124963,-0.387573 z m 2.116667,0 c 3.450356,0.02209 6.824342,0.160298 10.124963,0.387573 0.287139,3.499926 0.515244,7.151492 0.679545,10.925431 -3.515712,-0.126998 -7.119895,-0.200775 -10.804508,-0.21239 z m -14.37535,0.520898 c -0.282428,3.489788 -0.509197,7.11697 -0.670243,10.869621 -3.752654,0.161058 -7.37977,0.38833 -10.869621,0.67076 0.29349,-3.558738 0.725946,-6.981637 1.238684,-10.301697 3.319866,-0.512758 6.742644,-0.945151 10.30118,-1.238684 z m 26.633516,0 c 3.558738,0.29349 6.981637,0.725946 10.301697,1.238684 0.512738,3.32006 0.945195,6.742959 1.238684,10.301697 -3.4898,-0.28243 -7.116957,-0.509713 -10.869621,-0.67076 -0.161047,-3.752664 -0.38833,-7.379821 -0.67076,-10.869621 z M 17.474385,43.233569 C 16.754811,45.521079 16.129088,47.86531 15.61145,50.265698 11.772835,52.181577 8.539073,54.31997 6.0585448,56.665824 5.5933379,57.10574 5.1583234,57.555023 4.7459635,58.010929 7.1470112,52.544255 11.52999,47.519965 17.474385,43.233536 Z m 100.518925,5.17e-4 c 5.9453,4.287103 10.32888,9.312372 12.72998,14.779976 -0.41316,-0.456954 -0.84893,-0.907311 -1.31517,-1.348238 -2.48053,-2.345854 -5.71429,-4.484247 -9.55291,-6.400126 -0.51755,-2.400172 -1.14245,-4.744297 -1.8619,-7.031612 z m -76.070805,1.213363 c -0.490607,3.280848 -0.903124,6.652817 -1.182873,10.152351 -3.865888,0.345121 -7.537683,0.760727 -10.976591,1.241785 0.342227,-3.103335 0.814537,-6.127472 1.408699,-9.058878 3.369674,-0.904975 6.968071,-1.68784 10.750765,-2.335258 z m 51.622172,0 c 3.782499,0.647339 7.380183,1.429873 10.749733,2.334741 0.59418,2.931432 1.06697,5.955511 1.40921,9.058878 C 102.26491,55.360023 98.59316,54.944911 94.72755,54.5998 94.447945,51.100251 94.035092,47.72831 93.544677,44.447449 Z m -64.674088,3.014803 c -0.538869,2.824378 -0.961229,5.731532 -1.272274,8.702828 -2.396833,0.365047 -4.713754,0.750514 -6.844543,1.176672 -1.516615,0.303323 -2.960518,0.620885 -4.329452,0.952396 0.258291,-2.231938 0.603841,-4.42715 1.037663,-6.578409 1.235092,-0.59035 2.529309,-1.16231 3.893302,-1.707906 2.318015,-0.927206 4.861714,-1.763627 7.515304,-2.545581 z m 77.726001,0 c 2.65402,0.782046 5.19851,1.61824 7.51686,2.545581 1.36323,0.545293 2.65675,1.116874 3.89123,1.706872 0.43388,2.151577 0.77935,4.347162 1.03766,6.579443 -1.36911,-0.33151 -2.81283,-0.649074 -4.32945,-0.952396 -2.13085,-0.42617 -4.44773,-0.811616 -6.84454,-1.176672 -0.31093,-2.971296 -0.73304,-5.87845 -1.27176,-8.702828 z m 13.77901,5.45238 c 3.04747,1.642847 5.60502,3.421406 7.57938,5.288566 1.66045,1.570302 2.89708,3.186435 3.71243,4.836914 -0.73897,-0.492283 -1.5776,-0.961749 -2.53266,-1.41335 -2.11397,-0.999602 -4.80948,-1.910108 -7.90701,-2.749187 -0.2135,-2.017045 -0.49813,-4.005405 -0.85214,-5.962943 z m -105.284532,0.001 c -0.353981,1.957363 -0.63866,3.945569 -0.852144,5.962427 -3.096671,0.83903 -5.7911221,1.749141 -7.9049438,2.74867 -0.9543422,0.451263 -1.793033,0.92044 -2.5321451,1.412316 0.8153636,-1.650113 2.0518168,-3.265911 3.7119181,-4.83588 1.9739204,-1.866744 4.5307458,-3.644991 7.5773148,-5.287533 z m 51.583931,2.657719 V 66.674999 H 55.573351 c 0.01183,-3.713252 0.08615,-7.345716 0.216008,-10.885123 3.539427,-0.129884 7.172353,-0.204671 10.88564,-0.216525 z m 2.116667,0 c 3.713431,0.01183 7.346071,0.08614 10.88564,0.216008 0.12987,3.539569 0.204176,7.172209 0.216008,10.88564 H 68.791666 Z m -15.123108,0.29714 c -0.126998,3.515712 -0.200775,7.119895 -0.21239,10.804508 H 42.355554 c 0.02209,-3.450356 0.160298,-6.824342 0.387573,-10.124963 3.499899,-0.287158 7.151507,-0.515224 10.925431,-0.679545 z m 28.129549,0 c 3.773939,0.164301 7.425505,0.392406 10.925431,0.679545 0.227275,3.300621 0.365486,6.674607 0.387573,10.124963 H 82.010497 c -0.01162,-3.684613 -0.08539,-7.288796 -0.21239,-10.804508 z M 40.60889,56.740205 c -0.215665,3.243266 -0.349807,6.55179 -0.371036,9.934794 H 29.119669 c 0.02809,-2.937264 0.165014,-5.829854 0.418063,-8.659936 3.455689,-0.492973 7.156176,-0.920489 11.071158,-1.274858 z m 54.249401,0 c 3.914608,0.354316 7.615219,0.781447 11.070639,1.274341 0.25308,2.830245 0.38997,5.723013 0.41807,8.660453 H 95.228811 c -0.02121,-3.383 -0.154972,-6.691531 -0.37052,-9.934794 z m -67.468232,1.595768 c -0.23044,2.730618 -0.359665,5.513745 -0.386023,8.339026 H 15.896187 c 0.02632,-2.067693 0.123424,-4.112463 0.299723,-6.127791 1.560075,-0.39368 3.196118,-0.775649 4.973857,-1.131197 1.940467,-0.388094 4.045549,-0.742295 6.220292,-1.080038 z m 80.686551,0 c 2.17547,0.33783 4.2813,0.691826 6.22236,1.080038 1.77715,0.355431 3.41239,0.737141 4.97178,1.13068 0.17632,2.015495 0.27341,4.060439 0.29973,6.128308 h -11.10785 c -0.0264,-2.825281 -0.15567,-5.608408 -0.38602,-8.339026 z m 13.37024,2.793628 c 2.68339,0.759748 4.99622,1.56705 6.7815,2.411223 1.60623,0.75951 2.81583,1.548177 3.56825,2.283581 0.31063,0.303597 0.52299,0.582942 0.68472,0.850594 h -10.79366 c -0.0232,-1.866522 -0.0975,-3.717821 -0.24081,-5.545398 z m -107.427034,5.17e-4 c -0.14327,1.82741 -0.217565,3.678533 -0.240812,5.544881 H 2.9874145 c 0.1617244,-0.267652 0.3735704,-0.546997 0.684196,-0.850594 0.7524292,-0.735404 1.9604789,-1.524071 3.5667073,-2.283581 1.7850166,-0.844051 4.0980712,-1.651052 6.7814982,-2.410706 z M 2.9868977,68.791666 H 13.779004 c 0.02329,1.866343 0.0975,3.717469 0.240812,5.544881 C 11.336389,73.576893 9.0233344,72.769892 7.2383178,71.925841 5.6320894,71.166331 4.4240397,70.377664 3.6716105,69.64226 3.3607127,69.338397 3.148646,69.059133 2.9868977,68.791666 Z m 12.9092893,0 h 11.107849 c 0.02641,2.825276 0.155532,5.60842 0.386023,8.339026 -2.174743,-0.337743 -4.279825,-0.691945 -6.220292,-1.080038 -1.777739,-0.355548 -3.413782,-0.737517 -4.973857,-1.131197 -0.17635,-2.015322 -0.273352,-4.060101 -0.299723,-6.127791 z m 13.223482,0 h 11.118185 c 0.02127,3.382898 0.155343,6.691529 0.371036,9.934794 -3.914982,-0.354369 -7.615469,-0.781885 -11.071158,-1.274858 -0.253081,-2.830065 -0.389922,-5.722773 -0.418063,-8.659936 z m 13.235885,0 h 11.100614 c 0.01164,3.684483 0.08538,7.288803 0.21239,10.804508 C 49.894634,79.431853 46.243026,79.203787 42.743127,78.916629 42.51581,75.616025 42.377684,72.242014 42.355554,68.791666 Z m 13.217797,0 H 66.674999 V 79.893314 C 62.96189,79.88146 59.329142,79.806661 55.789876,79.676789 55.660004,76.137524 55.585205,72.504774 55.573351,68.791666 Z m 13.218315,0 h 11.101648 c -0.01185,3.713287 -0.08664,7.346214 -0.216525,10.88564 -3.539408,0.129858 -7.171871,0.204177 -10.885123,0.216008 z m 13.218831,0 h 11.100614 c -0.02213,3.450348 -0.160257,6.824359 -0.387573,10.124963 -3.499926,0.287139 -7.151492,0.515244 -10.925431,0.679545 0.127011,-3.515705 0.200753,-7.120025 0.21239,-10.804508 z m 13.218314,0 H 106.347 c -0.0281,2.937339 -0.16496,5.830225 -0.41807,8.660453 -3.45558,0.492915 -7.156357,0.920016 -11.071155,1.274341 0.215576,-3.243271 0.34978,-6.551889 0.371036,-9.934794 z m 13.233819,0 h 11.10785 c -0.0264,2.067866 -0.12336,4.112819 -0.29973,6.128308 -1.55939,0.393539 -3.19463,0.775249 -4.97178,1.13068 -1.94109,0.388216 -4.04686,0.742721 -6.22236,1.080554 0.23043,-2.73077 0.35962,-5.514089 0.38602,-8.339542 z m 13.22503,0 h 10.79417 c -0.16174,0.267467 -0.37433,0.546731 -0.68523,0.850594 -0.75242,0.735404 -1.96202,1.524071 -3.56825,2.283581 -1.78528,0.844172 -4.09811,1.651475 -6.7815,2.411223 0.14333,-1.827579 0.21752,-3.67888 0.24081,-5.545398 z m 9.98027,3.634403 c -0.81534,1.650487 -2.052,3.26666 -3.71295,4.837431 -1.97444,1.867243 -4.53225,3.645658 -7.5799,5.288566 0.35404,-1.957483 0.63912,-3.945964 0.85266,-5.962943 3.09753,-0.839079 5.79304,-1.749585 7.90701,-2.749187 0.95532,-0.451725 1.79407,-0.921433 2.53318,-1.413867 z m -127.8666117,0.001 c 0.7392558,0.492027 1.5780553,0.961445 2.5326619,1.412833 2.1138217,0.99953 4.8082728,1.909641 7.9049438,2.74867 0.213525,2.016792 0.498649,4.005119 0.852661,5.962427 C 12.044837,80.90843 9.4877609,79.130326 7.5137532,77.2635 5.8531558,75.693062 4.6166684,74.077225 3.8013183,72.427103 Z M 16.424837,77.17255 c 1.368782,0.331466 2.812509,0.649111 4.328935,0.952396 2.130938,0.426188 4.448042,0.811603 6.84506,1.176672 0.311084,2.971113 0.732875,5.878624 1.271757,8.702828 C 26.216999,87.222492 23.6733,86.386071 21.355285,85.458865 19.991516,84.913358 18.697411,84.341722 17.4625,83.751476 17.028572,81.600065 16.683207,79.404658 16.424837,77.17255 Z m 102.616993,0 c -0.25839,2.232451 -0.60368,4.428231 -1.03766,6.57996 -1.2343,0.589895 -2.52771,1.16115 -3.89072,1.706355 -2.3184,0.927358 -4.86278,1.764041 -7.51686,2.546098 0.53877,-2.824362 0.96025,-5.732056 1.27124,-8.703345 2.397,-0.365077 4.71406,-0.750472 6.84506,-1.176672 1.51643,-0.303285 2.95997,-0.62093 4.32894,-0.952396 z m 11.68301,0.278535 c -2.40093,5.468614 -6.78567,10.494216 -12.73256,14.782044 0.71932,-2.286725 1.34436,-4.630544 1.8619,-7.030062 3.83908,-1.91658 7.07319,-4.056127 9.55394,-6.402193 0.46681,-0.441464 0.90312,-0.89232 1.31672,-1.349789 z m -125.9804268,0.0026 c 0.4128743,0.456522 0.8482563,0.906624 1.3141316,1.347205 2.4807525,2.346066 5.7148652,4.485613 9.5539392,6.402193 0.517611,2.399683 1.14299,4.743705 1.862418,7.030579 C 11.528933,87.946434 7.1452006,82.921411 4.7444132,77.453669 Z M 29.763041,79.62563 c 3.438886,0.481053 7.110732,0.89615 10.976591,1.241268 0.279771,3.499521 0.692779,6.871457 1.18339,10.152351 -3.782705,-0.647404 -7.381076,-1.430296 -10.750765,-2.335258 -0.594159,-2.93135 -1.066954,-5.955147 -1.409216,-9.058361 z m 75.940579,0 c -0.34228,3.103389 -0.81501,6.127373 -1.40921,9.058878 -3.36955,0.904868 -6.967234,1.687402 -10.749733,2.334741 0.490414,-3.280885 0.903248,-6.652841 1.182873,-10.152351 3.86561,-0.345111 7.53736,-0.760223 10.97607,-1.241268 z m -62.827168,1.424202 c 3.489851,0.28243 7.116967,0.509702 10.869621,0.67076 0.161058,3.752653 0.38833,7.379771 0.67076,10.869621 -3.55872,-0.293536 -6.981669,-0.725901 -10.301697,-1.238684 -0.512783,-3.320028 -0.945148,-6.742978 -1.238684,-10.301697 z m 49.713761,5.17e-4 c -0.293533,3.558535 -0.725926,6.981314 -1.238684,10.30118 -3.32006,0.512738 -6.742959,0.945195 -10.301697,1.238684 0.28243,-3.48985 0.509702,-7.116968 0.67076,-10.869621 3.752651,-0.161047 7.379832,-0.387815 10.869621,-0.670243 z m -36.719722,0.747758 c 3.515706,0.127011 7.120025,0.200753 10.804508,0.21239 V 93.111111 C 63.224649,93.088981 59.850641,92.950854 56.550036,92.723538 56.262878,89.22364 56.034812,85.572031 55.870491,81.798107 Z m 23.725683,0 c -0.164321,3.773924 -0.392387,7.425533 -0.679545,10.925431 -3.300621,0.227275 -6.674607,0.365486 -10.124963,0.387573 V 82.010497 c 3.684614,-0.01162 7.288796,-0.08539 10.804508,-0.21239 z m 50.152496,1.682068 c -3.37876,8.439724 -9.40276,15.949485 -17.30231,21.910295 1.68528,-3.09874 3.15716,-6.388094 4.41421,-9.824211 5.37578,-3.486643 9.77558,-7.56973 12.8881,-12.086084 z m -124.0265387,0.0047 c 3.1124377,4.514001 7.5112797,8.594694 12.8844847,12.079882 1.256964,3.435861 2.728028,6.725143 4.413167,9.823693 C 15.123023,99.429029 9.1008725,91.92168 5.7221313,83.484826 Z M 18.040242,86.3524 c 0.821355,0.366287 1.659861,0.726059 2.528011,1.073319 2.710246,1.084098 5.655952,2.067934 8.78396,2.951758 0.71905,3.32721 1.593654,6.532 2.60811,9.594763 C 28.182672,98.489796 24.67265,96.789021 21.505664,94.88883 21.108218,94.650362 20.730149,94.401317 20.343461,94.157091 19.449035,91.635887 18.676947,89.03216 18.040242,86.3524 Z m 99.386178,0 c -0.63664,2.679701 -1.40784,5.283538 -2.30218,7.804691 -0.38693,0.244385 -0.76554,0.493119 -1.16324,0.731739 -3.16656,1.899937 -6.67573,3.600587 -10.45259,5.082893 1.01418,-3.062573 1.88775,-6.267263 2.60656,-9.594246 3.12775,-0.883804 6.07328,-1.867691 8.78344,-2.951758 0.86815,-0.34726 1.70666,-0.707032 2.52801,-1.073319 z M 6.6466226,90.248237 c 4.3836694,7.664841 10.9277834,14.350873 19.0081414,19.565213 5.215218,8.08078 11.902387,14.62527 19.568315,19.00866 C 27.382138,122.24945 13.220645,108.08852 6.6466226,90.248237 Z m 122.1723874,0.0031 c -6.57438,17.839493 -20.73496,31.999323 -38.575424,38.571293 7.665975,-4.38323 14.353164,-10.92732 19.568314,-19.00815 8.07969,-5.2138 14.62341,-11.899096 19.00711,-19.563143 z m -97.154277,0.734838 c 3.344147,0.864194 6.869479,1.621036 10.58075,2.236556 0.615726,3.710879 1.37225,7.235899 2.236556,10.579719 -3.469898,-0.79159 -6.7945,-1.75436 -9.947713,-2.87011 -1.115583,-3.152732 -2.078069,-6.476842 -2.869593,-9.946165 z m 72.137197,0 c -0.79152,3.469323 -1.75401,6.793433 -2.86959,9.946165 -3.152852,1.11567 -6.476689,2.07856 -9.946164,2.87011 0.864125,-3.34382 1.62054,-6.868838 2.23604,-10.579719 3.710967,-0.615507 7.235814,-1.372385 10.579714,-2.236556 z m -59.353998,2.558501 c 3.28073,0.490378 6.652503,0.903262 10.151835,1.182873 0.345109,3.865667 0.760236,7.537341 1.241268,10.976071 -3.103215,-0.34226 -6.12701,-0.81505 -9.058361,-1.40921 -0.904873,-3.36936 -1.687373,-6.96744 -2.334742,-10.749734 z m 46.570801,0 c -0.647399,3.78247 -1.429816,7.380754 -2.334742,10.750244 -2.931406,0.59417 -5.955544,1.06648 -9.058878,1.4087 0.481037,-3.43875 0.896673,-7.110375 1.241785,-10.976071 3.49937,-0.279591 6.871129,-0.692494 10.151835,-1.182873 z m -34.278528,1.313098 c 3.243272,0.215576 6.551888,0.34978 9.934794,0.371036 V 106.347 c -2.937163,-0.0281 -5.82987,-0.16499 -8.659936,-0.41807 -0.492973,-3.45569 -0.920489,-7.156174 -1.274858,-11.071156 z m 21.986255,5.16e-4 c -0.354359,3.914791 -0.781907,7.61511 -1.274858,11.07064 -2.830134,0.25306 -5.722616,0.38998 -8.659936,0.41807 V 95.228811 c 3.383,-0.02121 6.691531,-0.154972 9.934794,-0.370521 z m -57.160335,2.503724 c 3.450838,1.975894 7.232963,3.736046 11.30732,5.233786 1.497991,4.074 3.258428,7.85576 5.234306,11.30629 -3.883572,-1.58642 -7.538214,-3.47215 -10.918196,-5.6224 -2.150509,-3.37983 -4.036744,-7.03422 -5.62343,-10.917676 z m 92.334415,0.0015 c -1.58653,3.883086 -3.47267,7.537106 -5.62291,10.916646 -3.37948,2.14984 -7.03323,4.03568 -10.916132,5.62188 1.975764,-3.45042 3.735042,-7.23245 5.232752,-11.30629 4.07383,-1.49749 7.85579,-3.256714 11.30629,-5.232236 z m -78.405033,6.144846 c 3.062887,1.01427 6.267938,1.88773 9.59528,2.60656 0.883941,3.12783 1.868232,6.07333 2.952275,8.78344 0.347322,0.8683 0.706516,1.70704 1.072802,2.52853 -2.680256,-0.63672 -5.284593,-1.40819 -7.806241,-2.3027 -0.24439,-0.38693 -0.493119,-0.76554 -0.731739,-1.16324 -1.899834,-3.16639 -3.600126,-6.67576 -5.082377,-10.45259 z m 64.475651,5.2e-4 c -1.482211,3.77666 -3.182617,7.28581 -5.082377,10.45207 -0.238744,0.39791 -0.487741,0.77663 -0.732255,1.16375 -2.520974,0.89419 -5.124689,1.66566 -7.804175,2.30219 0.366354,-0.82149 0.725998,-1.66023 1.073319,-2.52853 1.083972,-2.70993 2.067496,-5.65533 2.951241,-8.78292 3.326977,-0.71872 6.531656,-1.59248 9.594247,-2.60656 z m -52.508939,3.08766 c 2.824205,0.53873 5.731714,0.96027 8.702828,1.27124 0.365068,2.39702 0.750484,4.71412 1.176672,6.84506 0.303285,1.51643 0.62093,2.96016 0.952396,4.32894 -2.232109,-0.25835 -4.427514,-0.60377 -6.578926,-1.03766 -0.590245,-1.23492 -1.161883,-2.52902 -1.707389,-3.89279 -0.92715,-2.31788 -1.763664,-4.86138 -2.545581,-7.51479 z m 40.541711,0 c -0.781906,2.65336 -1.617931,5.19696 -2.545065,7.51479 -0.545597,1.36399 -1.117556,2.65821 -1.707906,3.8933 -2.151259,0.43379 -4.346471,0.77939 -6.578409,1.03766 0.331511,-1.36893 0.649073,-2.81283 0.952396,-4.32945 0.426158,-2.13079 0.811625,-4.44771 1.176672,-6.84454 2.97112,-0.31092 5.878091,-0.73309 8.702312,-1.27176 z m -29.667957,1.48002 c 2.730607,0.2304 5.513749,0.35962 8.339026,0.38602 v 11.10785 c -2.06769,-0.0264 -4.112469,-0.12339 -6.127791,-0.29973 -0.39368,-1.56007 -0.775649,-3.19611 -1.131197,-4.97385 -0.388094,-1.94047 -0.742295,-4.04555 -1.080038,-6.22029 z m 18.794719,0 c -0.337743,2.17474 -0.691945,4.27982 -1.080038,6.22029 -0.355548,1.77774 -0.737517,3.41378 -1.131197,4.97385 -2.015328,0.17629 -4.060098,0.27341 -6.127791,0.29973 v -11.10785 c 2.825281,-0.0264 5.608408,-0.15567 8.339026,-0.38602 z m -47.049841,4.37234 c 3.098741,1.68497 6.388154,3.15639 9.824206,4.41317 3.485006,5.37247 7.565759,9.77033 12.079366,12.88241 -8.436524,-3.3784 -15.944014,-9.39968 -21.903572,-17.29558 z m 75.305999,0 c -5.959123,7.89574 -13.465906,13.91714 -21.902024,17.29558 4.513567,-3.11213 8.593881,-7.51043 12.078849,-12.88293 3.435743,-1.25673 6.724715,-2.72778 9.823175,-4.41265 z m -62.153314,5.54333 c 2.287232,0.71948 4.631539,1.34481 7.031612,1.86242 1.915959,3.83889 4.05466,7.07276 6.400643,9.55342 0.439949,0.46521 0.889232,0.90022 1.345138,1.31258 -5.466673,-2.40105 -10.490964,-6.78402 -14.777393,-12.72842 z m 48.999076,10e-4 c -4.286976,5.94521 -9.311659,10.32836 -14.778943,12.72894 0.456522,-0.41287 0.906624,-0.84825 1.347205,-1.31413 2.345981,-2.48066 4.485665,-5.71453 6.402193,-9.55342 2.399446,-0.51747 4.742893,-1.14215 7.029545,-1.86139 z m -39.31698,2.38229 c 1.957296,0.35398 3.945648,0.63863 5.962427,0.85214 0.83903,3.09667 1.749141,5.79112 2.74867,7.90494 0.451263,0.95435 0.92044,1.79304 1.412316,2.53215 -1.650113,-0.81536 -3.265911,-2.05182 -4.83588,-3.71192 -1.866744,-1.97392 -3.64499,-4.53074 -5.287533,-7.57731 z m 29.635401,0 c -1.64254,3.04656 -3.420793,5.6034 -5.287533,7.57731 -1.570438,1.6606 -3.186275,2.89709 -4.836397,3.71244 0.492027,-0.73926 0.961445,-1.57806 1.412833,-2.53267 0.99953,-2.11382 1.909641,-4.80827 2.74867,-7.90494 2.016877,-0.21347 4.005046,-0.49818 5.962427,-0.85214 z m -21.420915,1.07125 c 1.827412,0.1433 3.678537,0.21752 5.544881,0.24081 v 10.79159 c -0.267652,-0.16172 -0.546997,-0.37357 -0.850594,-0.6842 -0.735404,-0.75242 -1.524071,-1.96047 -2.283581,-3.5667 -0.844051,-1.78502 -1.651052,-4.09807 -2.410706,-6.7815 z m 13.206429,0 c -0.759654,2.68343 -1.566655,4.99648 -2.410706,6.7815 -0.75951,1.60623 -1.548177,2.81428 -2.283581,3.5667 -0.303863,0.3109 -0.583127,0.52297 -0.850594,0.68472 v -10.79211 c 1.866348,-0.0232 3.717471,-0.0975 5.544881,-0.24081 z"
       sodipodi:insensitive="true" />
    <path
       id="path6"
       style="baseline-shift:baseline;display:inline;overflow:visible;vector-effect:none;fill:#ffffff;fill-opacity:0.995937;stroke-linecap:round;paint-order:fill markers stroke;enable-background:accumulate;stop-color:#000000"
       d="M 40.393916,0.84490966 C 40.11978,0.83263697 39.852698,0.9652539 39.697318,1.1973429 29.51619,16.434478 16.434468,29.516197 1.1973429,39.697318 0.93222173,39.874329 0.79804514,40.196845 0.85937906,40.509672 v 0.0021 c 3.57513394,17.973414 3.57513394,36.475978 0,54.449389 v 0.0021 c -0.0613326,0.312825 0.0728438,0.635341 0.33796384,0.812353 15.2371241,10.181136 28.3188481,23.262836 38.4999751,38.499976 0.177936,0.26579 0.502824,0.40118 0.816488,0.33797 17.972822,-3.57475 36.474539,-3.575 54.447322,0 h 0.0021 c 0.312829,0.0613 0.635346,-0.0729 0.812353,-0.33797 10.181129,-15.23714 23.262839,-28.31884 38.499969,-38.499976 v -0.0021 c 0.26454,-0.177418 0.39962,-0.499847 0.33797,-0.812353 -3.57512,-17.973412 -3.57512,-36.475975 0,-54.449389 v -0.0021 c 0.0616,-0.312507 -0.0735,-0.634935 -0.33797,-0.812354 C 119.03834,29.516194 105.95668,16.434471 95.775548,1.1973429 95.598536,0.93222286 95.275503,0.79804646 94.962678,0.85937906 h -0.0015 c -17.972783,3.57500884 -36.4745,3.57475694 -54.447322,0 h -0.0021 c -0.03913,-0.007786 -0.07866,-0.0127162 -0.117823,-0.0144694 z m 53.459786,1.79007164 -5.641,13.6188067 c -13.519629,2.636844 -27.41752,2.63424 -40.937552,0 L 41.6326,2.6365315 c 17.259591,3.2491037 34.961764,3.2494382 52.221102,-0.00155 z M 40.166023,3.2401123 45.806506,16.857369 C 38.109893,28.281479 28.281477,38.109928 16.857369,45.806506 L 3.2401123,40.166023 C 17.742151,30.260047 30.260036,17.742139 40.166023,3.2401123 Z m 55.150638,0.011885 C 105.2228,17.751091 117.73767,30.2662 132.23844,40.170157 L 118.61498,45.81064 C 107.19387,38.117093 97.369836,28.292042 89.673595,16.872872 Z M 87.503702,17.964795 81.204861,33.171618 c -8.892455,1.717107 -18.028972,1.718535 -26.92187,0.0041 l -6.29884,-15.206823 c 13.065913,2.41771 26.453977,2.416142 39.519551,-0.0041 z m -40.988196,0.605647 6.298841,15.206824 c -5.074762,7.50163 -11.53367,13.961956 -19.035014,19.037081 L 18.570442,46.515506 C 29.520549,38.986801 38.986801,29.520547 46.515506,18.570442 Z m 42.447538,0.0155 c 7.529234,10.946836 16.993896,20.409508 27.942996,27.935763 l -15.20889,6.29884 C 94.197623,47.748666 87.739445,41.293928 82.664204,33.796903 Z m -8.468733,16.298747 -6.293156,15.195455 c -4.269387,0.800101 -8.644073,0.800912 -12.913941,0.0036 L 54.994059,34.888826 c 8.436737,1.503399 17.063828,1.50178 25.500252,-0.0041 z M 53.523347,35.49034 59.81857,50.685794 c -2.454683,3.584562 -5.548132,6.678133 -9.132776,9.132776 L 35.488273,53.525414 C 42.520065,48.622918 48.62062,42.521928 53.523347,35.49034 Z m 28.431856,0.01757 c 4.901921,7.02601 11.001122,13.122592 18.02939,18.021638 l -15.195454,6.29264 C 81.207844,57.370994 78.116252,54.282459 75.662047,50.703364 Z M 2.6365315,41.634667 16.253788,47.27515 c 2.634165,13.520036 2.63688,27.417945 0,40.937552 l -13.6172565,5.641 c 3.2508667,-17.258749 3.248784,-34.960002 0,-52.219035 z m 130.1972185,0.0062 c -3.24699,17.253944 -3.24667,34.951368 0.002,52.205081 l -13.62501,-5.642549 c -2.63443,-13.513895 -2.63518,-27.405727 -0.004,-40.919983 z m -114.864821,6.345349 15.206823,6.29884 c 1.714315,8.892902 1.713524,18.027377 -0.0036,26.919803 L 17.964812,87.5037 c 2.420321,-13.06541 2.421724,-26.45172 0.0041,-39.517484 z m 99.527261,0.0062 c -2.41557,13.060036 -2.4143,26.442264 0.004,39.501981 l -15.20734,-6.29884 c -1.7147,-8.886648 -1.71581,-18.015693 -0.004,-26.902751 z M 73.507657,51.756013 67.744185,65.667826 61.982262,51.759631 c 3.822687,0.607073 7.70297,0.605866 11.525395,-0.0036 z m -12.996106,0.605648 5.76554,13.915946 -13.915947,-5.766056 c 3.132868,-2.272637 5.877669,-5.017069 8.150407,-8.14989 z m 14.455448,0.0155 c 2.272942,3.129922 5.016395,5.870119 8.14834,8.140588 l -13.906128,5.759855 z m -40.078173,2.616895 15.194938,6.293155 c 0.797366,4.269715 0.79625,8.644709 -0.0036,12.913941 l -15.195455,6.293156 c 1.506074,-8.436921 1.507765,-17.063047 0.0041,-25.500252 z m 65.687464,0.0078 c -1.501597,8.431339 -1.498608,17.051607 0.006,25.482682 L 85.384968,74.191336 c -0.797879,-4.264099 -0.797435,-8.631868 -0.0021,-12.89637 z m -48.816659,6.980452 13.908195,5.761923 -13.911813,5.763472 c 0.609276,-3.821898 0.610589,-7.703265 0.0036,-11.525395 z m 31.947403,0.0062 c -0.605411,3.816692 -0.605262,7.691355 0.0021,11.507824 L 69.818477,67.742117 Z m -17.429943,7.220747 -5.759339,13.906128 c -2.270477,-3.132042 -5.010598,-5.875326 -8.140588,-8.14834 z m 2.93212,0 13.886491,5.753654 c -3.125284,2.268808 -5.864021,5.007567 -8.132837,8.132837 z m -1.465026,0.609266 5.753653,13.892691 c -3.816458,-0.607536 -7.691104,-0.609325 -11.507824,-0.0041 z m 17.027384,5.837886 15.193387,6.293156 C 92.941871,86.847976 86.847594,92.941849 81.949002,99.964956 L 75.656363,84.771569 c 2.450919,-3.576198 5.539007,-6.664286 9.115206,-9.115206 z m -34.068205,0.0057 c 3.579551,2.454498 6.669563,5.545303 9.120891,9.127092 L 53.531099,99.986144 C 48.631732,92.956796 42.534786,86.857725 35.50791,81.955203 Z m 50.974146,6.995956 v 5.16e-4 l 15.20941,6.300391 c -10.94225,7.524942 -20.40284,16.98576 -27.92801,27.92801 l -6.300907,-15.20941 c 5.07161,-7.493753 11.525745,-13.947895 19.019507,-19.019507 z m -67.882674,0.0062 c 7.497502,5.075253 13.953544,11.533715 19.025712,19.033467 l -6.29884,15.20682 C 38.995603,105.95592 29.532288,96.491918 18.585945,88.963044 Z m 33.937463,2.093929 c 2.162863,0 4.323208,0.226952 6.459037,0.626835 l 6.293156,15.195453 c -8.4314,-1.504059 -17.050987,-1.505312 -25.482682,-0.004 l 6.293156,-15.195457 c 2.1293,-0.397386 4.281398,-0.6227 6.437333,-0.622701 z m 50.867181,4.909778 13.62501,5.644616 C 117.72784,105.21599 105.21409,117.72647 95.31046,132.223 L 89.667911,118.59948 C 97.361275,107.1829 107.18292,97.36128 118.59948,89.667911 Z m -101.724541,0.0041 c 11.419421,7.696724 21.24429,17.5232 28.937768,28.94501 l -5.64255,13.62139 C 30.266186,117.73756 17.751098,105.2228 3.2519978,95.316661 Z m 50.85736,11.31611 c 4.508038,0 9.01635,0.44665 13.463261,1.30483 l 6.298323,15.20682 c -13.059708,-2.41805 -26.439879,-2.41868 -39.499914,-0.004 l 6.29884,-15.20734 c 4.440301,-0.85556 8.938424,-1.3007 13.43949,-1.3007 z m 0.0021,16.2326 h 0.03927 c 6.842492,0.003 13.682251,0.67664 20.429761,1.99213 l 5.644099,13.62294 c -17.254921,-3.24931 -34.951438,-3.2495 -52.206631,-0.002 l 5.642549,-13.62501 c 6.753908,-1.31541 13.602202,-1.98799 20.450948,-1.98799 z" />
    <path
       style="color:#000000;display:none;fill:#ffffff;fill-opacity:0.995937;stroke:none;stroke-width:1.05833;stroke-linecap:round;stroke-dasharray:none;stroke-opacity:1;paint-order:fill markers stroke"
       d="M 40.408902,1.3776937 A 0.26442093,0.26442092 0 0 0 40.136568,1.4903483 C 29.916842,16.785251 16.785252,29.917357 1.4903483,40.137084 a 0.26442093,0.26442092 0 0 0 -0.1126546,0.270785 c 3.5886906,18.041568 3.5886906,36.614529 0,54.656095 a 0.26442093,0.26442092 0 0 0 0.1126546,0.270784 C 16.785251,105.55449 29.916842,118.68657 40.136568,133.98148 a 0.26442093,0.26442092 0 0 0 0.272334,0.11266 c 18.041568,-3.58868 36.613495,-3.58868 54.655062,0 a 0.26442093,0.26442092 0 0 0 0.270784,-0.11266 C 105.55448,118.68657 118.68658,105.55449 133.98148,95.334748 a 0.26442093,0.26442092 0 0 0 0.11214,-0.270784 c -3.58868,-18.041566 -3.58868,-36.614527 0,-54.656095 a 0.26442093,0.26442092 0 0 0 -0.11214,-0.270785 C 118.68658,29.917357 105.55448,16.785251 95.334748,1.4903483 A 0.26442093,0.26442092 0 0 0 95.063964,1.3776937 c -18.041567,3.5886907 -36.613494,3.5886907 -54.655062,0 z M 94.698095,1.9771403 88.58684,16.731278 c -13.762156,2.72091 -27.923272,2.721812 -41.685827,0.0036 L 40.789241,1.9797241 c 17.802415,3.4764426 36.10673,3.4758692 53.908854,-0.00258 z M 40.298832,2.1776448 46.40957,16.931266 C 38.600722,28.586647 28.58667,38.601271 16.931266,46.410087 L 2.1776448,40.298832 C 17.22561,30.169263 30.16925,17.225597 40.298832,2.1776448 Z m 54.883471,0.012919 C 105.31172,17.234614 118.25358,30.175324 133.29936,40.302449 l -14.75621,6.112805 C 106.8902,38.609547 96.878389,28.598897 89.069498,16.948319 Z M 88.347578,17.309021 81.577965,33.652726 c -9.13478,1.80059 -18.53288,1.80137 -27.668078,0.0036 L 47.140274,17.312638 c 13.609581,2.642558 27.598117,2.641676 41.207304,-0.0036 z m -41.698746,0.199471 6.769612,16.344222 C 48.230759,41.585351 41.584887,48.231348 33.852197,53.418961 L 17.508492,46.648832 C 29.00258,38.894539 38.894538,29.002578 46.648832,17.508492 Z m 42.181404,0.01757 c 7.75423,11.489057 17.644264,21.376878 29.135684,29.127937 l -16.34422,6.77013 C 93.891927,48.239869 87.247661,41.598117 82.060106,33.8708 Z m -7.491533,16.70389 -6.769612,16.343705 c -4.507719,0.880436 -9.142204,0.881248 -13.65033,0.0036 L 54.149149,34.233569 c 8.982264,1.722895 18.207686,1.722036 27.189554,-0.0036 z m -27.680997,0.199987 6.770129,16.344222 c -2.566382,3.809942 -5.84421,7.087342 -9.654191,9.653674 L 34.429939,53.658223 c 7.571468,-5.132422 14.095314,-11.65684 19.227767,-19.228284 z m 28.163655,0.01757 c 5.132421,7.566534 11.654177,14.08666 19.223119,19.215881 l -16.343708,6.769613 c -3.807438,-2.563176 -7.083179,-5.836734 -9.64954,-9.641789 z M 1.9812744,40.790791 16.734896,46.902046 c 2.718125,13.76256 2.717356,27.923169 -0.0036,41.68531 L 1.9781738,94.698095 C 5.4565084,76.896537 5.4573915,58.59267 1.9812744,40.790791 Z m 131.5098056,0.0047 c -3.47477,17.798052 -3.47457,36.097639 0.002,53.895418 l -14.7593,-6.113839 c -2.71847,-13.756499 -2.71963,-27.910881 -0.004,-41.66774 z M 17.312638,47.141357 33.656343,53.91097 c 1.797681,9.135201 1.797035,18.532797 -0.0036,27.667561 l -16.343705,6.769613 c 2.645326,-13.60901 2.646013,-27.597354 0.0036,-41.206787 z m 100.839842,0.0072 c -2.64033,13.603721 -2.63925,27.585861 0.004,41.189216 l -16.3437,-6.769612 c -1.79811,-9.128953 -1.79908,-18.520133 -0.004,-27.649475 z M 74.329829,51.150882 67.743151,67.052754 61.158023,51.1545 c 4.354465,0.804666 8.817698,0.803656 13.171806,-0.0036 z M 60.66658,51.35087 67.253775,67.254292 51.350353,60.66658 c 3.64998,-2.509516 6.80667,-5.665761 9.316227,-9.31571 z m 14.145907,0.01705 c 2.509486,3.645278 5.663968,6.797918 9.311576,9.304342 L 68.23201,67.254809 Z m -40.578918,2.782259 16.343705,6.769613 c 0.877468,4.507977 0.87685,9.142271 -0.0036,13.649813 L 34.229952,81.33922 c 1.725696,-8.981715 1.726353,-18.206903 0.0036,-27.189038 z m 66.997981,0.0078 c -1.720594,8.976262 -1.719615,18.195062 0.004,27.170951 L 84.891458,74.559272 c -0.877956,-4.501726 -0.878903,-9.129613 -0.0036,-13.631726 z M 51.1545,61.15854 67.052754,67.743668 51.150882,74.330346 c 0.807337,-4.3541 0.808223,-8.817332 0.0036,-13.171806 z m 33.156115,0.0078 c -0.802534,4.348587 -0.801336,8.805462 0.0036,13.153718 l -15.87965,-6.577376 z m -17.055806,7.065201 -6.582544,15.89257 C 58.165792,80.47642 55.013279,77.321458 51.367923,74.81197 Z m 0.977201,5.17e-4 15.873966,6.575309 c -3.642316,2.506084 -6.792553,5.65636 -9.298657,9.298657 z m -0.489376,0.202572 6.577893,15.87965 c -4.348246,-0.805012 -8.805126,-0.806088 -13.153719,-0.0036 z m 16.940051,6.611482 16.343705,6.769613 C 93.462627,86.944796 86.944764,93.4626 81.815677,101.02639 L 75.046064,84.682685 c 2.563007,-3.802128 5.834491,-7.073613 9.636621,-9.636621 z m -33.891471,0.0052 c 3.805137,2.566414 7.079104,5.842006 9.642306,9.64954 L 53.663907,101.04448 C 48.534652,93.475411 42.01415,86.953333 34.447509,81.820845 Z m 50.812406,7.003707 16.34422,6.770129 C 106.4617,96.57595 96.575949,106.4617 88.825068,117.94784 L 82.054939,101.60362 C 87.239121,93.879152 93.879142,87.239123 101.60362,82.054939 Z m -67.733336,0.0052 c 7.727667,5.187727 14.369966,11.831969 19.554361,19.562111 l -6.770129,16.34422 C 38.903396,106.47475 29.01532,96.584601 17.526062,88.830236 Z m 33.863048,2.16886 c 2.286185,0 4.571648,0.222843 6.82594,0.662492 l 6.769613,16.343189 c -8.9757,-1.723183 -18.194349,-1.724108 -27.170434,-0.004 l 6.769095,-16.343186 c 2.247628,-0.436978 4.526558,-0.658875 6.805786,-0.658875 z m 50.792248,4.834847 14.76086,6.114356 C 118.24436,105.30524 105.30522,118.24437 95.178169,133.28644 L 89.06433,118.52558 c 7.805616,-11.64777 17.81347,-21.656146 29.46125,-29.461767 z m -101.576744,0.0052 c 11.650627,7.808997 21.661247,17.821604 29.466935,29.474694 l -6.112288,14.75671 C 30.176225,118.2541 17.235038,105.312 2.1905639,95.182303 Z M 67.733332,100.4595 c 4.633722,0 9.266983,0.45317 13.834815,1.35289 l 6.770129,16.3437 c -13.60335,-2.64293 -27.585482,-2.64388 -41.189217,-0.004 l 6.769613,-16.34371 c 4.56116,-0.89701 9.187909,-1.34927 13.81466,-1.34927 z m 5.17e-4,16.23105 c 6.98136,0 13.962173,0.68338 20.843689,2.04329 l 6.113839,14.75982 c -17.797771,-3.47671 -36.097355,-3.47779 -53.895418,-0.003 l 6.113839,-14.76034 c 6.875007,-1.35726 13.849492,-2.03967 20.824051,-2.03967 z"
       id="path5" />
  </g>
</svg>
