<?xml version="1.0" encoding="UTF-8" standalone="no"?>
<!-- Created with Inkscape (http://www.inkscape.org/) -->

<svg
   width="512"
   height="512"
   viewBox="0 0 135.46666 135.46667"
   version="1.1"
   id="svg5"
   inkscape:version="1.4.2 (ebf0e940d0, 2025-05-08)"
   sodipodi:docname="emblem-cloud.svg"
   xmlns:inkscape="http://www.inkscape.org/namespaces/inkscape"
   xmlns:sodipodi="http://sodipodi.sourceforge.net/DTD/sodipodi-0.dtd"
   xmlns="http://www.w3.org/2000/svg"
   xmlns:svg="http://www.w3.org/2000/svg">
  <sodipodi:namedview
     id="namedview7"
     pagecolor="#242424"
     bordercolor="#666666"
     borderopacity="1"
     inkscape:showpageshadow="0"
     inkscape:pageopacity="0"
     inkscape:pagecheckerboard="1"
     inkscape:deskcolor="#000000"
     inkscape:document-units="px"
     showgrid="false"
     inkscape:zoom="0.921875"
     inkscape:cx="387.79661"
     inkscape:cy="411.66102"
     inkscape:window-width="3256"
     inkscape:window-height="1080"
     inkscape:window-x="1864"
     inkscape:window-y="0"
     inkscape:window-maximized="0"
     inkscape:current-layer="layer1" />
  <defs
     id="defs2">
    <filter
       inkscape:collect="always"
       style="color-interpolation-filters:sRGB"
       id="filter23"
       x="-0.045070331"
       y="-0.081647855"
       width="1.0901407"
       height="1.1632957">
      <feGaussianBlur
         inkscape:collect="always"
         stdDeviation="2.296496"
         id="feGaussianBlur23" />
    </filter>
    <filter
       inkscape:collect="always"
       style="color-interpolation-filters:sRGB"
       id="filter29"
       x="-0.037607122"
       y="-0.066330768"
       width="1.0752142"
       height="1.1326615">
      <feGaussianBlur
         inkscape:collect="always"
         stdDeviation="1.8119322"
         id="feGaussianBlur29" />
    </filter>
    <filter
       inkscape:collect="always"
       style="color-interpolation-filters:sRGB"
       id="filter36"
       x="-0.057435736"
       y="-0.058749575"
       width="1.1148715"
       height="1.1174992">
      <feGaussianBlur
         inkscape:collect="always"
         stdDeviation="2.8504673"
         id="feGaussianBlur36" />
    </filter>
  </defs>
  <g
     inkscape:label="Layer 1"
     inkscape:groupmode="layer"
     id="layer1">
    <path
       id="path1"
       style="display:inline;opacity:0.8;fill:#969696;fill-opacity:1;stroke-width:1.05833;stroke-linecap:round;stroke-linejoin:round;stroke-miterlimit:12;paint-order:markers stroke fill"
       d="m 83.815555,29.020967 a 35.515137,12.582505 0 0 0 -35.515145,12.582695 35.515137,12.582505 0 0 0 2.353862,4.504117 30.340075,13.064942 0 0 0 -2.353862,-0.03979 30.340075,13.064942 0 0 0 -30.339749,13.065352 30.340075,13.064942 0 0 0 0.0057,0.257865 A 45.966736,23.845877 0 0 0 0.66559244,78.031929 45.966736,23.845877 0 0 0 46.632295,101.8775 a 45.966736,23.845877 0 0 0 6.568591,-0.24443 30.112207,13.089864 0 0 0 25.617558,6.20996 30.112207,13.089864 0 0 0 27.683066,-7.938535 35.262348,21.765705 0 0 0 28.96515,-21.416264 35.262348,21.765705 0 0 0 -12.27728,-16.505969 44.203438,14.916358 0 0 0 2.83858,-5.259627 44.203438,14.916358 0 0 0 -10.32288,-9.580293 35.515137,12.582505 0 0 0 3.62562,-5.53868 35.515137,12.582505 0 0 0 -35.515145,-12.582695 z"
       sodipodi:insensitive="true" />
    <path
       id="path17"
       style="display:inline;opacity:0.4;fill:#ffffff;fill-opacity:1;stroke-width:1.05833;stroke-linecap:round;stroke-linejoin:round;stroke-miterlimit:12;paint-order:markers stroke fill;filter:url(#filter23)"
       d="m 82.052355,34.583935 a 19.772333,3.3219233 0 0 0 -19.77192,3.322278 19.772333,3.3219233 0 0 0 3.820439,1.962671 28.485312,8.814744 0 0 0 -10.565246,6.851778 28.485312,8.814744 0 0 0 0.823205,2.104264 34.225422,9.2728491 0 0 0 -34.224267,9.272819 34.225422,9.2728491 0 0 0 0.609782,1.742529 A 44.578686,19.432947 0 0 0 6.1463948,74.96855 44.578686,19.432947 0 0 0 49.62281,94.395787 a 27.843187,11.464573 0 0 0 26.293485,7.692553 27.843187,11.464573 0 0 0 24.859465,-6.301423 25.38838,18.188261 0 0 0 2.27066,0.07286 25.38838,18.188261 0 0 0 25.38863,-18.188037 25.38838,18.188261 0 0 0 -11.24427,-15.104504 21.310169,10.881917 0 0 0 2.34714,-4.964555 21.310169,10.881917 0 0 0 -8.06824,-8.525578 28.485312,8.814744 0 0 0 1.03663,-2.356445 28.485312,8.814744 0 0 0 -12.727389,-7.342704 19.772333,3.3219233 0 0 0 2.045869,-1.471745 19.772333,3.3219233 0 0 0 -19.772435,-3.322278 z"
       sodipodi:insensitive="true" />
    <path
       id="path24"
       style="display:inline;opacity:0.4;fill:#ffffff;fill-opacity:1;stroke-width:1.05833;stroke-linecap:round;stroke-linejoin:round;stroke-miterlimit:12;paint-order:markers stroke fill;filter:url(#filter29)"
       d="M 81.940217,36.880436 C 75.90727,37.397763 56.45397,36.130373 61.839501,45.167687 74.477365,50.337775 90.702002,49.813752 102.86132,44.70571 107.64173,35.081053 86.37693,38.254018 81.940217,36.880436 Z M 47.995519,52.760603 C 37.947615,51.345287 25.239282,58.962138 30.118498,69.979632 22.546902,71.521045 1.9538716,75.75756 13.585851,86.58499 c 12.739421,6.447759 27.504499,6.371388 41.48268,6.749731 8.213266,1.306857 12.588362,11.747289 23.224979,8.473209 11.473681,3.22712 19.540786,-9.780287 30.73684,-6.838587 13.06196,3.110373 25.52382,-17.355231 8.23497,-20.661433 C 104.44026,69.590747 90.197502,75.774623 77.565347,70.122609 72.719149,70.832395 61.16163,67.138068 72.258019,67.784881 87.074178,68.710266 102.87163,69.350868 116.43456,62.281178 113.08528,50.725405 97.084068,55.451824 88.030791,52.832964 75.476236,51.392429 62.944006,56.193891 50.710978,52.955075 l -1.357301,-0.114107 z"
       sodipodi:insensitive="true" />
    <path
       id="path29"
       style="display:inline;opacity:0.2;mix-blend-mode:normal;fill:#ffffff;fill-opacity:1;stroke-width:1.05833;stroke-linecap:round;stroke-linejoin:round;stroke-miterlimit:12;paint-order:markers stroke fill;filter:url(#filter36)"
       d="M 33.751428,8.0362019 C 26.848779,8.8600939 12.351449,7.2200285 11.257004,13.99182 c 6.430886,3.496536 13.511341,4.814499 20.706332,4.846014 4.240741,0.01857 4.056511,7.70799 8.26728,7.015423 2.354058,-0.387185 12.978734,-0.694863 16.571564,-3.581701 2.235262,-1.796033 -2.293973,-6.58063 -0.904752,-6.935957 C 58.275662,7.5611087 43.539323,9.1193182 37.954855,8.122336 36.55436,8.0687832 35.152899,8.0427603 33.751428,8.0362019 Z M 81.150601,27.695984 c -7.356293,0.904552 -22.402036,-0.892271 -23.775344,6.517491 13.205593,8.174987 29.426337,4.798853 43.878043,2.89941 11.5306,-5.301494 -5.107161,-9.279754 -10.551382,-8.990857 -3.175536,-0.286281 -6.364657,-0.374188 -9.551317,-0.426044 z M 79.329007,39.17642 C 66.653929,40.647261 52.114538,37.444577 41.328743,45.977555 55.458048,55.410299 73.19656,51.975236 89.164181,52.546953 97.692097,50.869431 113.1695,53.201505 116.41003,45.228709 105.67418,37.589661 91.578267,40.653096 79.329007,39.17642 Z m 9.070764,24.284305 C 76.009432,65.05754 61.714715,61.414349 51.125044,69.777135 37.965133,70.677618 24.519953,69.197723 11.62358,72.60487 c 35.232127,4.735958 70.966956,3.596756 106.31963,1.027721 8.40707,-0.674284 8.93558,-6.573076 0.56604,-7.739631 C 108.73417,62.964692 98.406988,64.5084 88.399771,63.460725 Z M 43.174108,78.877872 c -10.514763,1.163671 -23.406742,-0.270373 -30.996996,8.632106 -4.4530003,7.245631 18.339372,4.99688 24.312838,5.874338 13.598932,1.78681 17.517148,9.423204 30.715907,5.210517 C 75.743545,96.693626 78.442348,86.553082 69.32061,83.339319 61.278033,79.220184 51.915934,79.767542 43.174108,78.877872 Z m 67.538512,8.658903 c -5.86457,0.37199 -21.598562,0.262599 -18.498883,8.123185 10.332733,7.9965 24.654343,4.99861 36.196613,1.630157 6.36137,-5.198116 -4.41111,-9.505345 -9.32071,-9.086968 -2.75508,-0.567501 -5.58326,-0.457121 -8.37702,-0.666374 z M 99.041785,114.77772 c -7.153819,0.83563 -21.867013,-1.29972 -23.15538,5.15206 14.472369,6.94274 31.333765,4.73885 46.433215,1.31355 4.57554,-4.9129 -6.4489,-10.36563 -10.2674,-10.09626 -3.84759,-0.50675 -9.13907,3.7722 -13.010435,3.63065 z"
       sodipodi:nodetypes="ccsssccccccccccccccccccccccccccccccccccc"
       sodipodi:insensitive="true" />
  </g>
</svg>
