<?xml version="1.0" encoding="UTF-8" standalone="no"?>
<!-- Created with Inkscape (http://www.inkscape.org/) -->

<svg
   width="512"
   height="512"
   viewBox="0 0 135.46666 135.46667"
   version="1.1"
   id="svg5"
   inkscape:version="1.3.2 (091e20ef0f, 2023-11-25, custom)"
   sodipodi:docname="snowflake.svg"
   xmlns:inkscape="http://www.inkscape.org/namespaces/inkscape"
   xmlns:sodipodi="http://sodipodi.sourceforge.net/DTD/sodipodi-0.dtd"
   xmlns:xlink="http://www.w3.org/1999/xlink"
   xmlns="http://www.w3.org/2000/svg"
   xmlns:svg="http://www.w3.org/2000/svg">
  <sodipodi:namedview
     id="namedview7"
     pagecolor="#242424"
     bordercolor="#666666"
     borderopacity="1"
     inkscape:showpageshadow="0"
     inkscape:pageopacity="0"
     inkscape:pagecheckerboard="1"
     inkscape:deskcolor="#000000"
     inkscape:document-units="px"
     showgrid="false"
     inkscape:zoom="1.4142136"
     inkscape:cx="346.83588"
     inkscape:cy="199.40411"
     inkscape:window-width="3256"
     inkscape:window-height="1080"
     inkscape:window-x="1864"
     inkscape:window-y="0"
     inkscape:window-maximized="0"
     inkscape:current-layer="layer1"
     shape-rendering="crispEdges" />
  <defs
     id="defs2">
    <linearGradient
       id="linearGradient22"
       inkscape:collect="always">
      <stop
         style="stop-color:#002dff;stop-opacity:1;"
         offset="0"
         id="stop22" />
      <stop
         style="stop-color:#ffffff;stop-opacity:1;"
         offset="1"
         id="stop23" />
    </linearGradient>
    <linearGradient
       id="linearGradient21"
       inkscape:collect="always">
      <stop
         style="stop-color:#0033ff;stop-opacity:1;"
         offset="0"
         id="stop21" />
      <stop
         style="stop-color:#80b3ff;stop-opacity:1;"
         offset="1"
         id="stop20" />
    </linearGradient>
    <linearGradient
       id="linearGradient35"
       inkscape:collect="always">
      <stop
         style="stop-color:#80b3ff;stop-opacity:1;"
         offset="0"
         id="stop36" />
      <stop
         style="stop-color:#0033ff;stop-opacity:1;"
         offset="1"
         id="stop37" />
    </linearGradient>
    <linearGradient
       id="linearGradient72"
       inkscape:collect="always">
      <stop
         style="stop-color:#0037ff;stop-opacity:1;"
         offset="0"
         id="stop72" />
      <stop
         style="stop-color:#aaeeff;stop-opacity:1;"
         offset="1"
         id="stop73" />
    </linearGradient>
    <clipPath
       clipPathUnits="userSpaceOnUse"
       id="clipPath58">
      <path
         style="color:#000000;fill:#aaeeff;stroke-width:0.999998;stroke-linecap:round;stroke-linejoin:round;stroke-dashoffset:149.514;-inkscape-stroke:none;paint-order:markers stroke fill"
         d="M 67.733332,1.9337321 C 64.46517,5.5525365 60.772103,8.6018358 56.83219,11.458215 L 54.467992,6.0213377 56.16453,13.502018 C 59.748533,11.120254 62.955071,8.1979703 67.239305,7.3106647 L 64.6529,28.014826 43.152403,13.015743 l 21.003371,18.981269 -0.830958,6.652826 0.09922,1.391645 -9.4449,3.115572 c -0.241218,0.07899 -0.463902,0.20665 -0.653706,0.375171 L 45.904692,50.154562 44.750757,49.373731 38.573358,46.766654 32.636769,19.08669 34.876425,45.206541 15.619719,37.079906 c 2.683477,-3.357819 7.138768,-4.651478 10.93215,-6.480741 l -5.630148,-5.210017 3.526917,4.765599 c -4.281492,2.305426 -9.036582,3.429387 -13.699422,4.678786 1.499911,4.63972 2.294024,9.363011 2.797762,14.203267 l -5.8905968,-0.671277 7.3272008,2.271178 c -0.270675,-4.294735 -1.199034,-8.533167 0.174667,-12.68708 L 31.795992,50.541618 8.0558398,61.662386 34.995797,52.963174 l 5.346443,4.046265 1.253154,0.609267 -2.024682,9.737905 c -0.05105,0.248637 -0.05072,0.505563 0.0016,0.753959 l 2.024166,9.736873 -1.254189,0.609783 -5.346443,4.045746 L 8.0559263,73.804279 31.796079,84.925047 15.129913,97.538748 c -1.56649,-4.002987 -0.45876,-8.508825 -0.146245,-12.708784 l -7.3272006,2.271178 5.8905966,-0.671277 c -0.14419,4.860594 -1.548354,9.54043 -2.797762,14.203265 4.76807,1.0209 9.255769,2.69491 13.699422,4.67879 l -3.526917,4.7656 5.630146,-5.21002 c -3.854647,-1.91289 -7.988633,-3.22832 -10.899162,-6.494693 l 19.223634,-8.112683 -2.239658,26.119846 5.936588,-27.680475 6.177402,-2.606561 1.154451,-0.780831 7.420734,6.62337 c 0.189563,0.169175 0.411903,0.297143 0.65319,0.376722 l 9.444903,3.114019 -0.09922,1.390613 0.830956,6.652823 -21.003369,18.98127 21.500497,-14.99908 2.590538,20.73982 c -4.249745,-0.64501 -7.598,-3.85646 -11.078908,-6.22701 l -1.696538,7.48068 2.364195,-5.43688 c 4.137303,2.55517 7.487716,6.11105 10.901143,9.52448 3.268168,-3.61881 6.96123,-6.6681 10.901145,-9.52448 l 2.364198,5.43688 -1.69654,-7.48068 c -3.584001,2.38177 -6.790545,5.30405 -11.074776,6.19135 l 2.586408,-20.70416 21.500494,14.99908 -21.003368,-18.98127 0.830958,-6.652823 -0.09922,-1.391645 9.445934,-3.11454 c 0.240615,-0.07958 0.462529,-0.207491 0.65164,-0.376203 l 7.421253,-6.622852 1.154451,0.781347 6.177401,2.606561 5.936593,27.680475 -2.23966,-26.119846 19.25671,8.126635 c -2.68348,3.357821 -7.13877,4.651481 -10.93215,6.480741 l 5.63014,5.21002 -3.52691,-4.7656 c 4.28148,-2.30543 9.03659,-3.42939 13.69942,-4.67879 -1.4999,-4.639718 -2.29402,-9.363007 -2.79776,-14.203265 l 5.89059,0.671277 -7.3272,-2.271178 c 0.27068,4.294732 1.19904,8.533167 -0.17466,12.68708 l -16.63775,-12.591997 23.74016,-11.120768 -26.93996,8.699212 -5.346448,-4.046265 -1.254186,-0.609783 2.025198,-9.737389 c 0.05154,-0.248134 0.05139,-0.504243 0,-0.752409 l -2.025716,-9.738423 1.254704,-0.609783 5.346448,-4.046265 26.93996,8.699212 -23.74016,-11.120768 16.66617,-12.613701 c 1.56649,4.002987 0.45875,8.508828 0.14624,12.708784 l 7.3272,-2.271178 -5.89059,0.671277 c 0.14418,-4.860594 1.54835,-9.540435 2.79776,-14.203267 -4.76806,-1.020913 -9.25577,-2.694911 -13.69942,-4.678786 l 3.52691,-4.765599 -5.63014,5.210017 c 3.85455,1.912895 7.98855,3.228311 10.89907,6.494693 l -19.22363,8.112683 2.23966,-26.119851 -5.936593,27.68048 -6.177401,2.606561 -1.155483,0.781347 -7.419703,-6.620786 C 81.95116,43.365118 81.728822,43.237147 81.487533,43.157571 L 72.04263,40.041483 72.141849,38.649838 71.310891,31.997012 92.314262,13.015743 70.813765,28.014826 68.223224,7.2750081 c 4.249748,0.6450103 7.598006,3.8564589 11.078911,6.2270099 L 80.998673,6.0213377 78.634475,11.458215 C 74.497167,8.9030605 71.146762,5.3471619 67.733332,1.9337321 Z m -12.22871,44.6194989 8.489405,1.486212 0.968414,13.592971 a 6.7014875,6.7014875 0 0 0 -1.11466,0.659908 l -11.3006,-7.644495 z m 24.455871,0.0011 2.958475,8.093562 -11.288199,7.636226 a 6.7014875,6.7014875 0 0 0 -1.127064,-0.650605 l 0.968933,-13.593487 z m -31.153137,14.57017 12.270568,5.964491 a 6.7014875,6.7014875 0 0 0 -0.04599,0.644406 6.7014875,6.7014875 0 0 0 0.04599,0.644406 l -12.270052,5.964494 -5.531445,-6.6089 z m 37.851437,0 5.530929,6.608897 -5.530929,6.6089 -12.270052,-5.964494 a 6.7014875,6.7014875 0 0 0 0.04599,-0.644406 6.7014875,6.7014875 0 0 0 -0.03152,-0.651639 z M 63.847781,73.174367 a 6.7014875,6.7014875 0 0 0 1.11466,0.65991 l -0.968414,13.594001 -8.489921,1.486215 -2.956925,-8.095631 z m 7.771103,0 11.300084,7.643979 -2.957959,8.095112 -8.488371,-1.485696 -0.968414,-13.593485 a 6.7014875,6.7014875 0 0 0 1.11466,-0.65991 z"
         id="path59" />
    </clipPath>
    <clipPath
       clipPathUnits="userSpaceOnUse"
       id="clipPath81">
      <path
         style="color:#000000;fill:url(#radialGradient82);stroke-width:0.999998;stroke-linecap:round;stroke-linejoin:round;stroke-dashoffset:149.514;-inkscape-stroke:none;paint-order:markers stroke fill"
         d="m 211.03854,-13.934593 c -3.26815,3.618801 -6.96123,6.6681074 -10.90114,9.5244834 l -2.3642,-5.4368771 1.69654,7.4806801 c 3.584,-2.3817619 6.79055,-5.3040485 11.07478,-6.1913531 l -2.58641,20.7041617 -21.50049,-14.9990836 21.00337,18.9812696 -0.83096,6.652824 0.0992,1.391646 -7.18819,2.370916 -14.73295,-20.1114346 10.05003,22.8130766 -5.64824,5.040521 -1.15393,-0.780833 -6.1774,-2.607074 -5.93659,-27.6799646 2.23966,26.1198516 -19.25671,-8.126635 c 2.68348,-3.357817 7.13877,-4.65148 10.93215,-6.480742 l -5.63015,-5.2100166 3.52692,4.7655996 c -4.28149,2.305422 -9.03659,3.429388 -13.69942,4.678784 1.49991,4.639717 2.29402,9.363016 2.79776,14.203269 l -5.8906,-0.671277 7.3272,2.271178 c -0.27067,-4.294733 -1.19903,-8.533171 0.17467,-12.687081 l 16.63774,12.591995 -23.74015,11.120768 26.93996,-8.699209 5.34644,4.046265 1.25316,0.609264 -1.541,7.411434 -24.78194,2.703195 24.78349,2.703195 1.54048,7.410916 -1.25419,0.609782 -5.34644,4.045747 -26.93996,-8.698693 23.74015,11.120768 -16.66616,12.6137 c -1.56649,-4.002981 -0.45876,-8.50883 -0.14625,-12.708786 l -7.3272,2.27118 5.8906,-0.671277 c -0.14419,4.860589 -1.54836,9.540436 -2.79776,14.203265 4.76806,1.0209 9.25577,2.694911 13.69942,4.678791 l -3.52692,4.765598 5.63015,-5.210019 c -3.85456,-1.91289 -7.98855,-3.228321 -10.89908,-6.494695 l 19.22364,-8.112683 -2.23966,26.119853 5.93659,-27.680482 6.1774,-2.606559 1.15445,-0.78083 5.64772,5.041035 -10.05003,22.81256 14.73191,-20.109881 7.18923,2.370397 -0.0992,1.390613 0.83096,6.652823 -21.00337,18.981274 21.50049,-14.999086 2.59054,20.739826 c -4.24974,-0.64501 -7.598,-3.85647 -11.07891,-6.22701 l -1.69654,7.48068 2.3642,-5.43688 c 4.1373,2.55517 7.48772,6.11106 10.90114,9.52448 3.26817,-3.6188 6.96124,-6.6681 10.90115,-9.52448 l 2.3642,5.43688 -1.69654,-7.48068 c -3.584,2.38176 -6.79055,5.30405 -11.07478,6.19135 l 2.58641,-20.704166 21.50049,14.999086 -21.00337,-18.981274 0.83096,-6.652823 -0.0992,-1.391645 7.18871,-2.3704 14.73243,20.110916 -10.05054,-22.813592 5.64823,-5.040519 1.15445,0.781346 6.1774,2.606559 5.93659,27.680482 -2.23966,-26.119853 19.25671,8.126637 c -2.68348,3.357822 -7.13878,4.651481 -10.93215,6.480741 l 5.63014,5.210019 -3.52691,-4.765598 c 4.28147,-2.305431 9.0366,-3.429392 13.69942,-4.678791 -1.4999,-4.639712 -2.29402,-9.363012 -2.79776,-14.203265 l 5.8906,0.671277 -7.32721,-2.27118 c 0.27068,4.29473 1.19904,8.533175 -0.17466,12.687083 l -16.63775,-12.591997 23.74015,-11.120768 -26.93995,8.699211 -5.34644,-4.046265 -1.25419,-0.609782 1.54151,-7.410916 24.78246,-2.703195 -24.78298,-2.703195 -1.54151,-7.410918 1.25471,-0.60978 5.34644,-4.046265 26.93995,8.699209 -23.74015,-11.120768 16.66617,-12.613699 c 1.5665,4.002982 0.45875,8.508831 0.14624,12.708785 l 7.32721,-2.271178 -5.8906,0.671277 c 0.14417,-4.860589 1.54834,-9.540441 2.79776,-14.203269 -4.76805,-1.02091 -9.25578,-2.694911 -13.69942,-4.678784 l 3.52691,-4.7655996 -5.63014,5.2100166 c 3.85454,1.912895 7.98856,3.228316 10.89907,6.494694 l -19.22363,8.112683 2.23966,-26.1198516 -5.93659,27.6804806 -6.1774,2.606558 -1.15548,0.781349 -5.6472,-5.039487 L 237.269,6.4326394 222.53554,26.54459 l -7.18768,-2.371432 0.0992,-1.391646 -0.83096,-6.652824 21.00337,-18.9812696 -21.50049,14.9990836 -2.59054,-20.7398185 c 4.24974,0.6450097 7.59801,3.8564608 11.07891,6.2270099 l 1.69654,-7.4806801 -2.3642,5.4368771 c -4.13731,-2.5551516 -7.48772,-6.1110564 -10.90115,-9.5244834 z m -12.22871,44.619499 8.48941,1.486212 0.96841,13.592969 a 6.7014875,6.7014875 0 0 0 -1.11466,0.659908 L 195.85239,38.7795 Z m 24.45588,0.0011 2.95847,8.093561 -11.2882,7.636227 a 6.7014875,6.7014875 0 0 0 -1.12706,-0.650608 l 0.96893,-13.593484 z m -31.15314,14.570167 12.27057,5.964494 a 6.7014875,6.7014875 0 0 0 -0.046,0.644406 6.7014875,6.7014875 0 0 0 0.046,0.644406 l -12.27005,5.964491 -5.53145,-6.608897 z m 37.85143,0 5.53093,6.6089 -5.53093,6.608897 -12.27005,-5.964491 a 6.7014875,6.7014875 0 0 0 0.046,-0.644406 6.7014875,6.7014875 0 0 0 -0.0315,-0.65164 z m -22.81101,12.049911 a 6.7014875,6.7014875 0 0 0 1.11466,0.659907 l -0.96841,13.594004 -8.48992,1.486214 -2.95693,-8.09563 z m 7.77111,0 11.30008,7.643979 -2.95796,8.095112 -8.48837,-1.485699 -0.96841,-13.593485 a 6.7014875,6.7014875 0 0 0 1.11466,-0.659907 z"
         id="path82" />
    </clipPath>
    <radialGradient
       inkscape:collect="always"
       xlink:href="#linearGradient72"
       id="radialGradient82"
       gradientUnits="userSpaceOnUse"
       gradientTransform="matrix(1,0,0,1.0952553,143.30521,-22.320285)"
       cx="67.73333"
       cy="67.733331"
       fx="67.73333"
       fy="67.733331"
       r="60.07695" />
    <filter
       inkscape:label="Frost"
       inkscape:menu="Overlays"
       inkscape:menu-tooltip="Flake-like white splotches"
       style="color-interpolation-filters:sRGB;"
       id="filter86"
       x="-0.020516845"
       y="-0.022471184"
       width="1.0410337"
       height="1.0449424">
      <feTurbulence
         type="fractalNoise"
         numOctaves="5"
         baseFrequency="0.143"
         id="feTurbulence84" />
      <feColorMatrix
         values="1 0 0 0 0 0 1 0 0 0 0 0 1 0 0 0 0 0 5 -3"
         id="feColorMatrix84" />
      <feComposite
         operator="in"
         in2="SourceAlpha"
         id="feComposite84" />
      <feMorphology
         operator="dilate"
         radius="2.7"
         result="result3"
         id="feMorphology84" />
      <feTurbulence
         numOctaves="2"
         baseFrequency="0.121"
         result="result91"
         id="feTurbulence85" />
      <feDisplacementMap
         in="result3"
         xChannelSelector="R"
         yChannelSelector="A"
         scale="10"
         result="result4"
         in2="result91"
         id="feDisplacementMap85" />
      <feFlood
         flood-opacity="1"
         flood-color="rgb(255,255,255)"
         id="feFlood85" />
      <feComposite
         result="result2"
         operator="in"
         in2="result4"
         id="feComposite85" />
      <feComposite
         in="result2"
         operator="over"
         in2="SourceGraphic"
         id="feComposite86" />
    </filter>
    <clipPath
       clipPathUnits="userSpaceOnUse"
       id="clipPath86">
      <path
         id="path87"
         style="display:inline;opacity:0.4;fill:url(#radialGradient87);stroke-width:1.05833;stroke-linecap:round;stroke-linejoin:round;stroke-dashoffset:149.514;paint-order:markers stroke fill"
         inkscape:transform-center-x="-17.381629"
         inkscape:transform-center-y="-30.105857"
         d="m 117.9896,15.408406 c -4.63971,1.499894 -9.36266,2.294132 -14.20291,2.797872 l 0.67098,-5.890572 -2.27109,7.326728 c 4.29471,-0.270668 8.53281,-1.198168 12.68671,0.175519 L 102.28132,36.45508 91.160887,12.715244 l 8.698815,26.939947 -4.046043,5.346036 -0.609894,1.254811 -7.410614,-1.540825 -2.703393,-24.783487 -2.702957,24.781722 -7.411773,1.5411 -0.60892,-1.253186 L 70.319859,39.654866 79.018605,12.71502 67.898276,36.455305 55.284798,19.789078 c 4.002865,-1.566217 8.508097,-0.458913 12.707889,-0.146412 l -2.270842,-7.327081 0.6716,5.890589 c -4.860586,-0.14419 -9.540607,-1.548356 -14.203439,-2.797765 -1.0209,4.768067 -2.694823,9.255622 -4.678701,13.699272 l -4.765767,-3.526641 5.209952,5.630498 c 1.912956,-3.854684 3.228192,-7.989459 6.494807,-10.9 l 8.112712,19.223861 -26.119961,-2.239209 27.680291,5.936242 2.607024,6.177389 0.780632,1.154215 -5.040254,5.647994 -22.813396,-10.049938 20.111542,14.732783 -2.371368,7.188282 -1.391049,-0.09901 -6.65303,0.830498 -18.981339,-21.00327 14.999191,21.500946 -20.740173,2.590702 c 0.644872,-4.24993 3.857117,-7.598243 6.22774,-11.079255 l -7.481131,-1.696701 5.437045,2.363954 c -2.555167,4.1373 -6.111134,7.488084 -9.524565,10.901508 3.618815,3.268157 6.66828,6.961748 9.524652,10.901661 l -5.437199,2.363674 7.48086,-1.696937 c -2.381699,-3.58389 -5.304127,-6.790082 -6.19153,-11.074106 l 20.704496,2.586027 -14.999523,21.50062 18.981473,-21.003701 6.653067,0.831355 1.3902,-0.09899 2.370548,7.189525 -20.109863,14.731241 22.813156,-10.049711 5.040852,5.647436 -0.781232,1.154697 -2.606781,6.17699 -27.680087,5.93658 26.119516,-2.23934 -8.126436,19.25648 c -3.35788,-2.68347 -4.651833,-7.1388 -6.481112,-10.9322 l -5.209586,5.63019 4.765893,-3.52638 c 2.305421,4.28149 3.429027,9.03619 4.678429,13.69901 4.639712,-1.49989 9.362654,-2.29413 14.202907,-2.79787 l -0.670986,5.89058 2.271096,-7.32673 c -4.294714,0.27067 -8.532815,1.19817 -12.686712,-0.17552 l 12.591973,-16.63713 11.120434,23.73983 -8.698814,-26.93994 4.04604,-5.346034 0.609896,-1.25481 7.410802,1.541524 2.703206,24.78278 2.702763,-24.78242 7.411776,-1.541101 0.60911,1.253893 4.046506,5.346048 -8.699,26.94029 11.120322,-23.74028 12.61348,16.66622 c -4.00287,1.56622 -8.5081,0.45891 -12.70789,0.14642 l 2.27084,7.32707 -0.6716,-5.89058 c 4.86058,0.14417 9.54062,1.54836 14.20344,2.79776 1.02091,-4.76806 2.69483,-9.25562 4.6787,-13.69927 l 4.76577,3.52664 -5.20996,-5.6305 c -1.91294,3.85468 -3.22818,7.98946 -6.4948,10.9 l -8.11271,-19.22386 26.11996,2.23921 -27.68029,-5.93624 -2.60703,-6.177387 -0.78126,-1.155181 5.04044,-5.647288 22.81384,10.050195 -20.11109,-14.732524 2.37047,-7.188795 1.3915,0.09927 6.65329,-0.830945 18.98108,21.003718 -14.9992,-21.500949 20.74018,-2.5907 c -0.64487,4.249931 -3.85713,7.598238 -6.22775,11.07925 l 7.48114,1.696704 -5.43704,-2.363954 c 2.55515,-4.137303 6.11113,-7.488089 9.52456,-10.901511 -3.6188,-3.268157 -6.66828,-6.961751 -9.52465,-10.901656 l 5.43719,-2.363676 -7.48085,1.696937 c 2.38168,3.583887 5.30414,6.790084 6.19152,11.074106 l -20.70449,-2.586024 14.99953,-21.500626 -18.98148,21.003704 -6.65307,-0.831355 -1.39135,0.09892 -2.37088,-7.187925 20.11135,-14.732772 -22.81553,10.050727 -5.039,-5.647558 0.78175,-1.155591 2.60679,-6.176992 27.68008,-5.93658 -26.11952,2.23934 8.12644,-19.256479 c 3.35788,2.683466 4.65184,7.138797 6.48111,10.932204 l 5.20959,-5.63019 -4.76589,3.526375 c -2.30544,-4.28148 -3.42903,-9.036189 -4.67843,-13.699016 z m -32.900123,32.527262 6.608932,5.531803 -5.95781,12.256063 a 6.7014875,6.7014875 0 0 0 -1.295279,0.01418 l -5.964362,-12.27063 z m 21.178903,12.228801 -1.48466,8.488471 -13.593985,0.969065 a 6.7014875,6.7014875 0 0 0 -0.650762,-1.126974 l 7.635865,-11.287837 z m -34.26449,-2.958431 7.644376,11.300688 a 6.7014875,6.7014875 0 0 0 -0.36203,0.535077 6.7014875,6.7014875 0 0 0 -0.282374,0.581065 L 65.395421,68.653276 63.9095,60.164077 Z m 32.7803,18.92572 1.48548,8.488936 -8.094375,2.95801 -7.643928,-11.300428 a 6.7014875,6.7014875 0 0 0 0.362029,-0.535077 6.7014875,6.7014875 0 0 0 0.298524,-0.580094 z M 79.004325,75.16178 a 6.7014875,6.7014875 0 0 0 0.635371,1.128828 l -7.635674,11.288544 -8.095594,-2.957862 1.487041,-8.489484 z m 6.729971,3.885551 5.964174,12.269923 -6.609225,5.531593 -6.608297,-5.530837 5.95807,-12.256513 a 6.7014875,6.7014875 0 0 0 1.295278,-0.01418 z" />
    </clipPath>
    <radialGradient
       inkscape:collect="always"
       xlink:href="#linearGradient72"
       id="radialGradient87"
       gradientUnits="userSpaceOnUse"
       gradientTransform="matrix(0.8660254,0.5,-0.54762764,0.94851891,63.523658,-25.720484)"
       cx="67.73333"
       cy="67.733331"
       fx="67.73333"
       fy="67.733331"
       r="60.07695" />
    <filter
       inkscape:label="Frost"
       inkscape:menu="Overlays"
       inkscape:menu-tooltip="Flake-like white splotches"
       style="color-interpolation-filters:sRGB;"
       id="filter33"
       x="-0.022471181"
       y="-0.020516843"
       width="1.0449424"
       height="1.0410337">
      <feTurbulence
         type="fractalNoise"
         numOctaves="5"
         baseFrequency="0.143"
         id="feTurbulence31" />
      <feColorMatrix
         values="1 0 0 0 0 0 1 0 0 0 0 0 1 0 0 0 0 0 5 -3"
         id="feColorMatrix31" />
      <feComposite
         operator="in"
         in2="SourceAlpha"
         id="feComposite31" />
      <feMorphology
         operator="dilate"
         radius="2.7"
         result="result3"
         id="feMorphology31" />
      <feTurbulence
         numOctaves="2"
         baseFrequency="0.121"
         result="result91"
         id="feTurbulence32" />
      <feDisplacementMap
         in="result3"
         xChannelSelector="R"
         yChannelSelector="A"
         scale="10"
         result="result4"
         in2="result91"
         id="feDisplacementMap32" />
      <feFlood
         flood-opacity="1"
         flood-color="rgb(255,255,255)"
         id="feFlood32" />
      <feComposite
         result="result2"
         operator="in"
         in2="result4"
         id="feComposite32" />
      <feComposite
         in="result2"
         operator="over"
         in2="SourceGraphic"
         id="feComposite33" />
    </filter>
    <clipPath
       clipPathUnits="userSpaceOnUse"
       id="clipPath33">
      <path
         id="path34"
         style="color:#000000;display:inline;fill:#80b3ff;fill-opacity:1;stroke-width:0.999998;stroke-linecap:round;stroke-linejoin:round;stroke-dashoffset:149.514;-inkscape-stroke:none;paint-order:markers stroke fill"
         inkscape:transform-center-x="-1.7500001e-06"
         inkscape:transform-center-y="-41.502119"
         d="m 213.85592,11.968356 c -3.26815,3.618814 -6.96175,6.668114 -10.90166,9.524483 l -2.36368,-5.436877 1.69654,7.481197 c 3.58402,-2.381775 6.79054,-5.305093 11.07478,-6.192387 l -1.39372,11.157459 -7.13031,5.405353 -15.56288,-10.857217 13.63276,12.320178 -1.45676,1.104326 -11.60135,-1.103292 -2.22416,-3.03599 1.51722,3.444232 -4.84518,10.598322 -1.68465,0.709517 -3.85351,-17.966346 1.62109,18.906339 -8.24653,3.47214 -10.39213,-4.385262 c 2.68344,-3.358105 7.13966,-4.651412 10.93318,-6.480741 l -5.63066,-5.210019 3.52692,4.765601 c -4.28149,2.30542 -9.0366,3.429391 -13.69943,4.678783 1.49991,4.639712 2.29404,9.363019 2.79777,14.20327 l -5.8906,-0.671277 7.3272,2.270662 c -0.27067,-4.294587 -1.19883,-8.532278 0.17467,-12.686049 l 8.96586,6.785115 1.11569,8.877496 -17.18396,8.049636 17.48627,-5.646166 0.22789,1.813327 -6.75669,9.495544 -3.74086,0.408244 3.74086,0.408244 6.75618,9.495028 -0.2279,1.813843 -17.48575,-5.646169 17.18345,8.049639 -1.1157,8.878008 -8.99376,6.8063 c -1.56627,-4.00288 -0.45926,-8.508446 -0.14677,-12.708262 l -7.32668,2.271178 5.8906,-0.670761 c -0.14419,4.860585 -1.54837,9.539945 -2.79777,14.202745 4.76805,1.02091 9.25526,2.69439 13.69891,4.67827 l -3.5264,4.76612 5.63015,-5.2095 c -3.85466,-1.91295 -7.98854,-3.22914 -10.89908,-6.49573 l 10.35854,-4.37131 8.24653,3.47266 -1.62109,18.90633 3.85351,-17.96634 1.68413,0.709 4.8457,10.59884 -1.51722,3.44423 2.22416,-3.03599 11.60084,-1.10277 1.45676,1.10432 -13.63225,12.31966 15.56236,-10.8567 7.13083,5.40536 1.39785,11.19208 c -4.2497,-0.64505 -7.59752,-3.85651 -11.07839,-6.22701 l -1.69706,7.48068 2.36368,-5.43688 c 4.1373,2.55516 7.48826,6.11107 10.90166,9.52448 3.26817,-3.61879 6.96177,-6.6681 10.90166,-9.52448 l 2.36368,5.43688 -1.69654,-7.4812 c -3.58398,2.38179 -6.79053,5.3051 -11.07477,6.19239 l 1.39371,-11.15746 7.13032,-5.40484 15.56287,10.8567 -13.63276,-12.32018 1.45624,-1.1038 11.60188,1.10277 2.22415,3.03599 -1.51722,-3.44423 4.84518,-10.59832 1.68466,-0.70952 3.85351,17.96634 -1.62109,-18.90633 8.24652,-3.47214 10.39212,4.38526 c -2.68342,3.3581 -7.13965,4.65141 -10.93317,6.48074 l 5.63066,5.21002 -3.52691,-4.7656 c 4.28147,-2.30544 9.03661,-3.42939 13.69942,-4.67879 -1.4999,-4.63969 -2.29402,-9.36303 -2.79776,-14.203261 l 5.89058,0.671277 -7.32719,-2.270662 c 0.27067,4.294577 1.19886,8.532286 -0.17465,12.686046 l -8.96587,-6.78511 -1.1157,-8.877498 17.18397,-8.049639 -17.48627,5.646169 -0.2279,-1.813327 6.7567,-9.495544 3.74085,-0.408244 -3.74137,-0.408244 -6.75566,-9.495028 0.22789,-1.813843 17.48576,5.646166 -17.18345,-8.049636 1.11569,-8.878011 8.99378,-6.806303 c 1.56628,4.002883 0.45926,8.508452 0.14676,12.708268 l 7.32666,-2.271178 -5.89058,0.670758 c 0.14417,-4.860584 1.54837,-9.539928 2.79776,-14.202751 -4.76803,-1.020903 -9.25526,-2.694395 -13.6989,-4.678267 l 3.52639,-4.766117 -5.63014,5.209503 c 3.85465,1.912948 7.98854,3.229131 10.89907,6.495727 l -10.35854,4.371308 -8.24652,-3.472656 1.62109,-18.906339 -3.85351,17.966346 -1.68414,-0.709002 -4.8457,-10.598837 1.51722,-3.444232 -2.22415,3.03599 -11.60136,1.102773 -1.45676,-1.104323 13.63276,-12.319662 -15.56236,10.856701 -7.13083,-5.405355 -1.39785,-11.192081 c 4.24969,0.645048 7.59753,3.856482 11.0784,6.22701 l 1.69705,-7.48068 -2.36368,5.436877 c -4.13729,-2.55516 -7.48824,-6.11105 -10.90166,-9.524483 z m -22.33455,25.68577 10.65051,3.72277 7.84552,2.74247 -0.56999,4.565094 0.0992,1.390097 -7.18922,2.370915 z m 44.66911,0 -10.83604,14.791346 -7.18922,-2.370915 0.0992,-1.390097 -0.56999,-4.565094 7.84551,-2.74247 z m -45.90728,0.714685 7.39283,16.781404 -5.64772,5.039487 -1.15496,-0.781349 -4.23851,-1.789036 1.54771,-8.165393 z m 47.14544,0 2.10065,11.085113 1.54823,8.165909 -4.23902,1.78852 -1.15549,0.781865 -5.6472,-5.040003 z m -11.34452,18.218525 2.95744,8.095115 -11.28768,7.635193 a 6.7014875,6.7014875 0 0 0 -1.12862,-0.635104 l 0.96997,-13.608989 z m -24.45691,5.3e-4 8.48941,1.48518 0.96945,13.608986 a 6.7014875,6.7014875 0 0 0 -0.58085,0.282155 6.7014875,6.7014875 0 0 0 -0.53485,0.362251 l -11.3006,-7.643976 z m -18.83089,7.679634 3.66851,2.776574 1.25315,0.60978 -1.54151,7.411434 -18.22782,1.987992 8.54986,-7.36234 z m 62.11972,5.29e-4 6.29729,5.422924 8.54935,7.361825 -18.22989,-1.988508 -1.54048,-7.410402 1.2547,-0.60978 z m -49.98558,6.891052 12.27057,5.964494 a 6.7014875,6.7014875 0 0 0 -0.0139,1.295011 L 194.93,84.376878 189.39803,77.767465 Z m 37.84989,5.29e-4 5.53093,6.607868 -5.5299,6.608897 -12.25765,-5.957776 a 6.7014875,6.7014875 0 0 0 0,-1.301213 z m -64.83119,7.323069 18.22783,1.98851 1.54151,7.411431 -1.25367,0.609267 -3.66851,2.776575 -6.29781,-5.423443 z m 91.81404,0 -8.54987,7.36234 -6.29781,5.423443 -3.66851,-2.776575 -1.25418,-0.610298 1.54047,-7.4104 z m -49.80523,4.735628 a 6.7014875,6.7014875 0 0 0 1.12861,0.635104 l -0.96996,13.607954 -8.48941,1.486215 -2.95744,-8.09408 z m 7.79746,0 11.28664,7.635193 -2.95795,8.09408 -8.48889,-1.485183 -0.96945,-13.608471 a 6.7014875,6.7014875 0 0 0 0.58084,-0.282151 6.7014875,6.7014875 0 0 0 0.54881,-0.353468 z m -25.7266,12.127426 5.6472,5.040517 -7.39283,16.78089 -2.10065,-11.08511 -1.54771,-8.165396 4.23851,-1.789039 z m 43.65418,0 1.15549,0.781862 4.2385,1.789039 -1.54771,8.165396 -2.10065,11.08511 -7.39283,-16.78089 z m -33.32561,7.743717 7.18922,2.37143 -0.0992,1.39061 0.5705,4.56509 -7.84603,2.74247 -10.65051,3.72329 z m 22.99653,5.3e-4 10.83655,14.79186 -10.65052,-3.72277 -7.84551,-2.74247 0.56999,-4.5651 -0.0992,-1.39112 z" />
    </clipPath>
    <clipPath
       clipPathUnits="userSpaceOnUse"
       id="clipPath39">
      <path
         style="color:#000000;fill:url(#radialGradient40);stroke-width:0.999998;stroke-linecap:round;stroke-linejoin:round;stroke-dashoffset:149.514;-inkscape-stroke:none;paint-order:markers stroke fill"
         d="m 199.4057,5.0439767 c -3.26815,3.6188144 -6.96175,6.6681133 -10.90166,9.5244833 l -2.36368,-5.4368775 1.69654,7.4811975 c 3.58402,-2.381775 6.79054,-5.305093 11.07478,-6.192387 l -1.39372,11.157458 -7.13031,5.405354 -15.56287,-10.857217 13.63276,12.320178 -1.45676,1.104326 -11.60136,-1.103294 -2.22415,-3.035989 1.51722,3.444233 -4.84519,10.598322 -1.68465,0.709517 -3.85351,-17.966346 1.62109,18.906339 -8.24653,3.472141 -10.39213,-4.385263 c 2.68344,-3.358107 7.13966,-4.651412 10.93319,-6.480741 l -5.63067,-5.210019 3.52692,4.765601 c -4.28149,2.305421 -9.0366,3.429392 -13.69942,4.678783 1.49991,4.639712 2.29403,9.36302 2.79776,14.20327 l -5.8906,-0.671277 7.3272,2.270662 c -0.27067,-4.294587 -1.19883,-8.532278 0.17467,-12.686048 l 8.96586,6.785115 1.1157,8.877496 -17.18397,8.049635 17.48627,-5.646166 0.2279,1.813325 -6.7567,9.495546 -3.74085,0.408242 3.74085,0.408244 6.75618,9.495028 -0.22789,1.813843 -17.48576,-5.646166 17.18345,8.049638 -1.1157,8.878009 -8.99376,6.806308 c -1.56627,-4.002889 -0.45925,-8.508457 -0.14676,-12.708273 l -7.32669,2.271181 5.8906,-0.670761 c -0.14419,4.860586 -1.54836,9.539943 -2.79776,14.202743 4.76804,1.02091 9.25526,2.69439 13.6989,4.67827 l -3.5264,4.76612 5.63015,-5.2095 c -3.85466,-1.91295 -7.98854,-3.22914 -10.89908,-6.49573 l 10.35854,-4.371307 8.24653,3.472657 -1.62109,18.90633 3.85351,-17.96634 1.68414,0.70901 4.8457,10.59883 -1.51722,3.44423 2.22415,-3.03599 11.60084,-1.10277 1.45676,1.10432 -13.63224,12.31966 15.56235,-10.8567 7.13083,5.40536 1.39785,11.19208 c -4.24969,-0.64505 -7.59751,-3.85651 -11.07839,-6.22701 l -1.69706,7.48068 2.36368,-5.43688 c 4.1373,2.55516 7.48826,6.11107 10.90166,9.52448 3.26817,-3.61879 6.96177,-6.6681 10.90167,-9.52448 l 2.36368,5.43688 -1.69654,-7.4812 c -3.58399,2.38179 -6.79053,5.3051 -11.07478,6.19239 l 1.39372,-11.15746 7.13031,-5.40484 15.56287,10.8567 -13.63276,-12.32018 1.45625,-1.1038 11.60187,1.10277 2.22415,3.03599 -1.51722,-3.44423 4.84519,-10.59832 1.68465,-0.70952 3.85351,17.96634 -1.62109,-18.90633 8.24652,-3.472138 10.39213,4.385258 c -2.68343,3.3581 -7.13966,4.65141 -10.93318,6.48074 l 5.63066,5.21002 -3.52691,-4.7656 c 4.28147,-2.30544 9.0366,-3.42939 13.69942,-4.67879 -1.4999,-4.639691 -2.29402,-9.363025 -2.79776,-14.203259 l 5.89059,0.671277 -7.3272,-2.270662 c 0.27066,4.294576 1.19886,8.532291 -0.17466,12.686044 l -8.96586,-6.785114 -1.1157,-8.877493 17.18397,-8.049638 -17.48627,5.646166 -0.2279,-1.813325 6.7567,-9.495546 3.74085,-0.408244 -3.74137,-0.408242 -6.75566,-9.495028 0.22789,-1.813843 17.48576,5.646166 -17.18345,-8.049635 1.11569,-8.878012 8.99377,-6.806303 c 1.56628,4.002884 0.45927,8.508452 0.14676,12.708268 l 7.32668,-2.271178 -5.89059,0.670758 c 0.14417,-4.860583 1.54836,-9.539927 2.79776,-14.202751 -4.76804,-1.020902 -9.25526,-2.694395 -13.6989,-4.678267 l 3.52639,-4.766117 -5.63014,5.209503 c 3.85465,1.912948 7.98854,3.229131 10.89907,6.495725 l -10.35854,4.371311 -8.24652,-3.472657 1.62109,-18.906339 -3.85351,17.966346 -1.68414,-0.709001 -4.8457,-10.598838 1.51722,-3.444233 -2.22415,3.035989 -11.60136,1.102775 -1.45676,-1.104323 13.63276,-12.319662 -15.56235,10.856702 -7.13083,-5.405355 -1.39785,-11.192082 c 4.24968,0.645048 7.59752,3.856482 11.07839,6.22701 l 1.69706,-7.4806805 -2.36368,5.4368775 C 206.17007,12.0133 202.81912,8.4574093 199.4057,5.0439767 Z m -22.33455,25.6857713 10.65051,3.722769 7.84552,2.74247 -0.56999,4.565094 0.0992,1.390097 -7.18923,2.370913 z m 44.66911,0 -10.83603,14.791343 -7.18923,-2.370913 0.0992,-1.390097 -0.56999,-4.565094 7.84552,-2.74247 z m -45.90728,0.714684 7.39283,16.781404 -5.64771,5.039487 -1.15497,-0.781349 -4.2385,-1.789038 1.54771,-8.165391 z m 47.14545,0 2.10064,11.085113 1.54823,8.16591 -4.23902,1.788519 -1.15548,0.781865 -5.6472,-5.040003 z m -11.34453,18.218526 2.95744,8.095112 -11.28768,7.635195 a 6.7014875,6.7014875 0 0 0 -1.12862,-0.635103 l 0.96997,-13.608989 z m -24.45691,5.29e-4 8.48941,1.485183 0.96945,13.608986 a 6.7014875,6.7014875 0 0 0 -0.58084,0.282155 6.7014875,6.7014875 0 0 0 -0.53486,0.362251 l -11.3006,-7.643979 z m -18.83089,7.679637 3.66851,2.776574 1.25316,0.60978 -1.54151,7.411435 -18.22783,1.987991 8.54987,-7.36234 z m 62.11972,5.29e-4 6.29729,5.422924 8.54935,7.361825 -18.22989,-1.988508 -1.54048,-7.410402 1.25471,-0.60978 z m -49.98557,6.891052 12.27056,5.964494 a 6.7014875,6.7014875 0 0 0 -0.0139,1.295011 l -12.25713,5.958292 -5.53196,-6.609416 z m 37.84988,5.29e-4 5.53093,6.607865 -5.5299,6.6089 -12.25765,-5.957776 a 6.7014875,6.7014875 0 0 0 0,-1.301213 z m -64.83118,7.323069 18.22782,1.98851 1.54151,7.411432 -1.25367,0.609266 -3.66851,2.776575 -6.2978,-5.423443 z m 91.81403,0 -8.54987,7.36234 -6.2978,5.423443 -3.66851,-2.776575 -1.25419,-0.610298 1.54048,-7.4104 z m -49.80523,4.735628 a 6.7014875,6.7014875 0 0 0 1.12862,0.635104 l -0.96997,13.607954 -8.48941,1.486212 -2.95744,-8.094077 z m 7.79746,0 11.28665,7.635193 -2.95796,8.094077 -8.48889,-1.48518 -0.96945,-13.60847 a 6.7014875,6.7014875 0 0 0 0.58084,-0.282152 6.7014875,6.7014875 0 0 0 0.54881,-0.353468 z m -25.7266,12.127423 5.6472,5.040522 -7.39283,16.780884 -2.10064,-11.085109 -1.54771,-8.165393 4.2385,-1.789039 z m 43.65419,0 1.15548,0.781865 4.2385,1.789039 -1.54771,8.165393 -2.10064,11.085109 -7.39283,-16.780884 z m -33.32562,7.743714 7.18923,2.371431 -0.0992,1.390613 0.57051,4.565088 -7.84604,2.74247 -10.65051,3.72329 z m 22.99653,5.29e-4 10.83655,14.791853 -10.65051,-3.72277 -7.84552,-2.74247 0.56999,-4.565087 -0.0992,-1.391129 z"
         id="path40" />
    </clipPath>
    <radialGradient
       inkscape:collect="always"
       xlink:href="#linearGradient35"
       id="radialGradient40"
       gradientUnits="userSpaceOnUse"
       gradientTransform="matrix(1,0,0,1.0952553,131.67237,-3.3417155)"
       cx="67.73333"
       cy="67.733331"
       fx="67.73333"
       fy="67.733331"
       r="60.07695" />
    <radialGradient
       inkscape:collect="always"
       xlink:href="#linearGradient21"
       id="radialGradient8"
       gradientUnits="userSpaceOnUse"
       gradientTransform="matrix(0.49999999,-0.86602539,0.94851891,0.54762765,-30.379221,89.299345)"
       cx="67.73333"
       cy="67.733331"
       fx="67.73333"
       fy="67.733331"
       r="60.07695" />
    <radialGradient
       inkscape:collect="always"
       xlink:href="#linearGradient35"
       id="radialGradient17"
       gradientUnits="userSpaceOnUse"
       gradientTransform="matrix(0.49999999,-0.86602539,0.94851891,0.54762765,139.50918,56.165782)"
       cx="67.73333"
       cy="67.733331"
       fx="67.73333"
       fy="67.733331"
       r="60.07695" />
    <filter
       inkscape:label="Frost"
       inkscape:menu="Overlays"
       inkscape:menu-tooltip="Flake-like white splotches"
       style="color-interpolation-filters:sRGB;"
       id="filter19"
       x="-0.022471003"
       y="-0.020516819"
       width="1.044942"
       height="1.0410336">
      <feTurbulence
         type="fractalNoise"
         numOctaves="5"
         baseFrequency="0.143"
         id="feTurbulence17" />
      <feColorMatrix
         values="1 0 0 0 0 0 1 0 0 0 0 0 1 0 0 0 0 0 5 -3"
         id="feColorMatrix17" />
      <feComposite
         operator="in"
         in2="SourceAlpha"
         id="feComposite17" />
      <feMorphology
         operator="dilate"
         radius="2.7"
         result="result3"
         id="feMorphology17" />
      <feTurbulence
         numOctaves="2"
         baseFrequency="0.121"
         result="result91"
         id="feTurbulence18" />
      <feDisplacementMap
         in="result3"
         xChannelSelector="R"
         yChannelSelector="A"
         scale="10"
         result="result4"
         in2="result91"
         id="feDisplacementMap18" />
      <feFlood
         flood-opacity="1"
         flood-color="rgb(255,255,255)"
         id="feFlood18" />
      <feComposite
         result="result2"
         operator="in"
         in2="result4"
         id="feComposite18" />
      <feComposite
         in="result2"
         operator="over"
         in2="SourceGraphic"
         id="feComposite19" />
    </filter>
    <clipPath
       clipPathUnits="userSpaceOnUse"
       id="clipPath19">
      <path
         id="path20"
         style="color:#000000;display:inline;fill:url(#radialGradient20);fill-opacity:1;stroke:none;stroke-width:0.999998;stroke-linecap:round;stroke-linejoin:round;stroke-dashoffset:149.514;stroke-opacity:0.4;-inkscape-stroke:none;paint-order:markers stroke fill"
         inkscape:transform-center-x="-0.1512751"
         inkscape:transform-center-y="-0.11558097"
         d="m 237.62173,-31.19983 c -0.85335,0.853355 -1.70289,1.715532 -2.5616,2.568834 -0.85879,0.85331 -1.72716,1.697559 -2.61793,2.515092 -1.33587,1.226045 -2.72253,2.392375 -4.20491,3.437517 -2.6e-4,2.18e-4 -7.9e-4,2.91e-4 -0.001,5.29e-4 -0.49393,0.348217 -0.99833,0.682795 -1.51515,1.002006 l -2.36472,-5.436362 1.69654,7.480682 v 0.001 c 1.74049,-1.185301 3.44798,-2.581417 5.25136,-3.761528 0.9017,-0.589903 1.8272,-1.126123 2.79311,-1.554943 0.96591,-0.42882 1.97201,-0.750316 3.03444,-0.911572 l -0.44442,3.561023 -0.95394,7.631059 -2.42673,1.839681 -4.70307,3.5651562 -7.78144,-5.4280922 -7.77885,-5.426542 -0.003,-0.0015 6.81664,6.159831 6.81561,6.1598303 -1.45676,1.104325 v 5.292e-4 l -6.30918,8.061524 -2.22415,-3.034957 5.3e-4,0.00103 1.51618,3.442167 -6.75721,0.9560139 -3.37912,0.4774912 -1.68413,0.709517 -3.85352,-17.9663446 5.3e-4,0.0083 -0.002,-0.0083 1.62161,18.9063385 -8.24653,3.47214 -2.98328,-1.258838 -7.37526,-3.112988 c 2.90072,-3.25525205 7.01616,-4.57327504 10.85944,-6.475596 0.0131,-0.00628 0.0273,-0.011795 0.0403,-0.018087 l -5.3e-4,-5.16e-4 -5.62963,-5.210017 h -5.3e-4 l 0.002,0.00156 3.52536,4.7640498 c -2.68351,1.1980613 -5.39201,2.25942622 -8.15971,3.15588021 -1.83954,0.536303 -3.69397,1.02834799 -5.5397,1.52290409 0.49377,1.8428019 0.9942,3.6918129 1.44899,5.5500488 0.60858,2.8480876 1.04424,5.7270836 1.34877,8.6532196 l -5.89061,-0.671277 0.003,10e-4 4.33307,1.342554 2.99207,0.927592 c -7.9e-4,-0.0099 -0.002,-0.02012 -0.003,-0.02997 -0.27303,-4.284444 -1.1931,-8.5123812 0.17725,-12.6565922 l 5.7764,4.3713089 3.18894,2.4138073 1.11622,8.877494 -17.18396,8.049122 0.004,-0.0011 -0.004,0.0016 17.48627,-5.645651 0.22788,1.812809 v 5.29e-4 l 0.54985,1.363741 3.27679,8.131288 -3.28248,0.358116 -0.45785,0.05013 3.74033,0.408244 -3.82714,9.495028 -0.22791,1.813843 -9.95804,-3.21531 -7.5277,-2.430859 0.004,0.0016 -0.004,-0.0011 11.70212,5.48132 5.48132,2.567803 -0.99116,7.88634 -0.12454,0.991153 -4.49688,3.403409 -4.49687,3.40341 c -0.19572,-0.500203 -0.34971,-1.008063 -0.46872,-1.522387 -4e-5,-1.66e-4 5e-5,-2.64e-4 0,-5.29e-4 -0.11901,-0.514487 -0.20311,-1.035174 -0.2589,-1.560629 -0.11149,-1.050967 -0.11027,-2.120788 -0.0501,-3.196703 0.12032,-2.151833 0.47575,-4.328068 0.632,-6.428031 h -0.001 l -7.32669,2.271178 5.8906,-0.670243 c -0.0722,2.42992 -0.45927,4.814697 -0.98444,7.174757 -4e-5,1.64e-4 4e-5,2.64e-4 0,5.29e-4 -0.52522,2.360226 -1.18866,4.695727 -1.81332,7.026958 2.38402,0.51045 4.69775,1.184079 6.97115,1.978181 1.13664,0.396999 2.26318,0.82405 3.38325,1.275889 2.1e-4,8e-5 2.6e-4,5.29e-4 5.3e-4,5.29e-4 1.11986,0.451768 2.23329,0.927809 3.34397,1.423689 l -3.52485,4.764572 -0.002,0.0016 h 5.3e-4 l 1.35288,-1.251609 4.27726,-3.957381 c -2.7e-4,-1.69e-4 -8e-4,-2.64e-4 -0.001,-5.29e-4 l 5.3e-4,-5.29e-4 c -1.61574,-0.801841 -3.26828,-1.514441 -4.87154,-2.293919 -0.30898,-0.15022 -0.62812,-0.28774 -0.93173,-0.44545 -1.3e-4,-7.1e-5 -2.7e-4,6.9e-5 -5.3e-4,0 -0.46979,-0.24403 -0.9318,-0.498782 -1.3839,-0.76894 -1.35615,-0.810641 -2.61955,-1.761683 -3.71088,-2.986384 l 8.03568,-3.391527 2.32234,-0.979783 8.24653,3.472656 -0.0667,0.777213 -1.55494,18.128605 0.002,-0.0083 -5.3e-4,0.0083 3.85352,-17.966341 1.68361,0.709517 5.40329,0.763778 4.73408,0.669724 -1.51722,3.443722 2.22415,-3.03547 6.30918,8.06204 v 5.29e-4 l 1.45676,1.10381 -13.63225,12.319658 15.56288,-10.856179 1.72547,1.30793 5.40484,4.096909 1.39785,11.192081 c -1.06243,-0.16126 -2.06853,-0.48275 -3.03444,-0.911579 -1.53106,-0.679723 -2.94991,-1.647391 -4.3434,-2.65358 -0.36463,-0.263292 -0.73788,-0.511961 -1.09864,-0.77928 -1.2e-4,-8.2e-5 -5.3e-4,7.9e-5 -5.3e-4,0 -0.62915,-0.466191 -1.25502,-0.914921 -1.88206,-1.36167 -0.23966,-0.170763 -0.47874,-0.356542 -0.71933,-0.520391 -2e-4,-1.3e-4 -2.6e-4,-2.64e-4 -5.3e-4,-5.29e-4 l -1.69654,7.480681 2.3642,-5.435851 c 0.51695,0.31928 1.02214,0.653719 1.51619,1.002011 1.1e-4,7.9e-5 5.3e-4,-8.2e-5 5.3e-4,0 1.48259,1.045218 2.86888,2.211369 4.20491,3.43752 1.78143,1.635119 3.47275,3.377128 5.17953,5.083919 0.81704,-0.904691 1.66064,-1.773879 2.52801,-2.613269 2.60229,-2.51809 5.41874,-4.768411 8.37365,-6.910692 l 2.36368,5.436362 -1.69602,-7.480681 c -1.2e-4,7.9e-5 -5.3e-4,-7.9e-5 -5.3e-4,0 v -5.29e-4 c -0.89588,0.595368 -1.76821,1.225179 -2.63964,1.847948 -1.1e-4,8.2e-5 -5.3e-4,-8e-5 -5.3e-4,0 -0.87149,0.622681 -1.74194,1.239149 -2.63447,1.80867 -0.59648,0.38073 -1.20963,0.727731 -1.83244,1.054719 -1.24112,0.651412 -2.54151,1.185151 -3.96772,1.480532 l 1.39371,-11.156421 5.74125,-4.351679 1.38907,-1.05316 9.79371,6.832139 5.76658,4.02249 0.003,0.0016 -6.81612,-6.159828 -6.8156,-6.15983 1.4552,-1.10381 6.31021,-8.063072 2.22416,3.035991 -1.51722,-3.44424 10.13736,-1.432467 v -5.29e-4 l 1.68412,-0.708999 0.68009,3.172412 3.17241,14.79341 v -0.0041 0.0041 l -0.81029,-9.45316 -0.81029,-9.452658 1.88463,-0.79375 6.36138,-2.678906 10.35904,4.371311 c -2.91052,3.266612 -7.04543,4.581763 -10.90009,6.494692 l 5.63065,5.210022 -3.52586,-4.76509 c 2.68687,-1.199531 5.39829,-2.262312 8.16951,-3.159491 1.83594,-0.535029 3.68676,-1.02621 5.52887,-1.519811 -0.49282,-1.839217 -0.99232,-3.684667 -1.44643,-5.539192 -0.60965,-2.851396 -1.0459,-5.733884 -1.3508,-8.663557 l 5.89005,0.670761 -7.32719,-2.271178 c 0.27067,4.29454 1.1988,8.532815 -0.17468,12.686565 l -8.96532,-6.785115 -1.1157,-8.877496 17.18344,-8.049638 -17.48522,5.646168 -0.22791,-1.813327 -3.82818,-9.495544 3.74137,-0.408244 -3.74137,-0.408244 3.82767,-9.495544 v -5.03e-4 l 0.22789,-1.81281 8.74263,2.822567 8.74312,2.823601 -0.004,-0.0016 0.004,0.0011 -8.59173,-4.024044 -8.59171,-4.025077 1.1157,-8.877495 4.48241,-3.3930749 4.48241,-3.3920409 c 0.51496,1.557374 0.70662,3.1270509 0.7307,4.706689 0,1.72e-4 0,3.44e-4 0,5.292e-4 0.0395,2.6331696 -0.38634,5.2953446 -0.55552,7.9793586 v 0 l 7.32615,-2.271179 -5.89007,0.67076 c 0.3778,-3.629994 0.91879,-7.1943137 1.79835,-10.7068408 0.29318,-1.1708969 0.62391,-2.3359898 0.99888,-3.4959108 -1.16568,-0.312349 -2.33736,-0.616702 -3.50573,-0.93379305 -2.33648,-0.634124 -4.66072,-1.31833799 -6.9019,-2.21640195 -2.1e-4,-8.4e-5 0,-4.339e-4 0,-5.16e-4 -1.12048,-0.4490069 -2.22006,-0.95134 -3.29025,-1.527555 l 3.52589,-4.7661171 -5.63015,5.2095012 c 1.9e-4,9.69e-5 0,4.18e-4 0,5.159e-4 0.52367,0.252524 1.07604,0.485555 1.61851,0.724504 0.43979,0.193715 0.86755,0.394621 1.31207,0.587561 2.97916,1.29301596 5.98837,2.650191 8.00108,5.1686771 l -10.39164,4.3852618 -8.24601,-3.472656 1.62058,-18.9058223 -3.853,17.9658273 -1.68465,-0.7095169 v 0 l -1.11514,-0.1583582 -9.01961,-1.2748579 1.51671,-3.443717 -2.22416,3.035474 -6.30969,-8.061524 v -5.292e-4 l -1.45572,-1.1038081 13.63172,-12.320177 -0.003,0.0015 -9.16482,6.393408 -6.39496,4.4617424 h -5.3e-4 l -7.13032,-5.4053534 -0.13901,-1.114661 -1.25418,-10.041765 c 1.07086,0.221827 2.07442,0.570816 3.0334,1.006657 1.5e-4,6.6e-5 2.6e-4,-6.6e-5 5.3e-4,0 0.95898,0.435871 1.8732,0.959132 2.76572,1.528589 1.78493,1.139314 3.48217,2.465267 5.2741,3.656108 v -0.001 c 2.7e-4,2.1e-4 7.9e-4,3.17e-4 0.001,5.29e-4 l 1.50379,-6.631637 0.19223,-0.847493 v -5.29e-4 l -2.36419,5.435845 c -0.98478,-0.713952 -1.95405,-1.439886 -2.90525,-2.183846 -1.1e-4,-8.2e-5 -5.3e-4,8.2e-5 -5.3e-4,0 -2.85402,-2.232277 -5.54427,-4.626028 -7.99538,-7.340121 z m -3.83852,26.8593407 -5.86166,7.7400959 5.38985,8.7984294 -7.18767,-2.9207523 -5.54437,-5.6260131 5.35885,-5.4420449 5.92108,-1.9244299 z m 7.67808,5.292e-4 7.84448,2.548682 5.35885,5.4420449 -5.54488,5.6275631 -3.8747,1.5745811 -3.31298,1.346171 4.2137,-6.8786502 1.17616,-1.920296 5.3e-4,-5.292e-4 z m -22.12061,8.7064449 2.10116,7.6150392 v 5.29e-4 l -1.06453,7.684261 -4.92528,-9.067146 h -5.3e-4 l -9.63352,1.206127 0.55552,-0.500227 5.57485,-5.0188152 z m 36.56211,0 7.39283,1.9197802 6.13038,5.519559 -9.63353,-1.206644 -5.3e-4,5.29e-4 -2.25,4.1429 -2.67477,4.924764 -0.0692,-0.497644 -0.99529,-7.188709 1.71565,-6.2208078 z m -6.05338,9.0531942 2.95796,8.094596 v 5.29e-4 l -11.28768,7.634675 c -0.17691,-0.123539 -0.3749,-0.210995 -0.56276,-0.316775 -0.18799,-0.111654 -0.36551,-0.240999 -0.56379,-0.33383 l 0.9679,-13.593485 z m -24.28792,0.290422 8.32094,1.195276 0.0739,1.037662 0.89452,12.555824 c -0.0941,0.04401 -0.17583,0.10981 -0.26768,0.158131 l -0.71985,0.415994 c -0.0416,0.02977 -0.0862,0.05506 -0.12713,0.08578 l -11.3006,-7.644508 z m -23.58203,4.743896 3.77238,8.946226 v 5.29e-4 l 10.31462,-0.2682 -1.74563,1.358575 -4.37751,3.405992 -7.64501,1.987475 -2.03347,-7.361824 z m 71.28506,5.29e-4 1.71463,8.068241 -2.03348,7.362341 -7.645,-1.989024 -6.1247,-4.764569 10.31617,0.269235 v -5.29e-4 0 l 2.18128,-5.173845 z m -54.56825,9.536369 12.27057,5.964494 c -0.006,0.05077 -0.006,0.102079 -0.0108,0.152961 v 0.854212 c 0.004,0.09603 -0.0114,0.192017 -0.003,0.287838 l -12.25662,5.958292 -5.19555,-6.609416 z m 37.85092,0 0.008,0.01035 5.18676,6.598563 -5.17177,6.579962 -0.0238,0.02842 -0.34108,-0.165883 -11.92794,-5.798095 c 0.006,-0.05076 0.006,-0.102087 0.0109,-0.152961 V 34.18019 c -0.004,-0.07702 0.009,-0.154099 0.003,-0.230995 z m -54.24888,7.3241 7.64449,1.988508 6.12418,4.764567 -10.31514,-0.268717 v 5.3e-4 l -3.77238,8.945705 -1.71462,-8.068757 z m 70.64736,0 0.85421,3.090768 1.17927,4.271057 -1.71516,8.068241 -3.77134,-8.945708 -10.31564,0.268717 3.06131,-2.382282 3.06235,-2.382801 3.82251,-0.994254 z m -31.43787,4.726845 11.29957,7.642942 v 5.29e-4 l -0.015,0.04031 -3.1104,7.763352 -8.3044,-1.19166 -0.0165,-0.0031 -0.9679,-13.593484 c 0.0679,-0.03181 0.12649,-0.08016 0.19327,-0.114205 l 0.79427,-0.458885 c 0.0416,-0.02968 0.0862,-0.05516 0.12712,-0.08578 z m -7.78402,0.0083 c 0.17859,0.12464 0.3783,0.213365 0.56792,0.319876 0.18654,0.110527 0.36259,0.238771 0.55914,0.330729 l -0.77566,10.890808 -0.19275,2.701645 -8.48941,1.486212 -2.95744,-8.094078 z m 21.14341,9.482624 4.92477,9.068178 9.63351,-1.206642 -6.12985,5.51956 -5.86889,1.523936 -1.52343,0.395843 -0.70073,-2.538346 -1.39991,-5.076693 0.70951,-5.124235 z m -34.48988,5.29e-4 1.06453,7.684802 v 5.29e-4 l -2.10064,7.615039 -7.39284,-1.919779 -6.12985,-5.519045 9.63352,1.206127 v -5.29e-4 l 1.23145,-2.266527 z m 21.55424,7.467246 7.18871,2.921786 5.54436,5.626012 -5.35885,5.442559 -5.9216,1.92392 -1.92339,0.625279 5.86114,-7.739578 5.3e-4,-5.29e-4 z m -8.61911,0.0011 -3.34244,5.455997 -2.04793,3.342431 v 5.29e-4 l 5.86165,7.739576 -7.84551,-2.5492 -5.35885,-5.442558 1.3808,-1.401464 4.16357,-4.224549 z" />
    </clipPath>
    <radialGradient
       inkscape:collect="always"
       xlink:href="#linearGradient35"
       id="radialGradient20"
       gradientUnits="userSpaceOnUse"
       gradientTransform="matrix(0.5,-0.8660254,0.94851891,0.54762764,139.50918,56.165781)"
       cx="67.73333"
       cy="67.733331"
       fx="67.73333"
       fy="67.733331"
       r="60.07695" />
    <filter
       inkscape:collect="always"
       style="color-interpolation-filters:sRGB"
       id="filter21"
       x="-0.018613546"
       y="-0.016124759"
       width="1.0372271"
       height="1.0322495">
      <feGaussianBlur
         inkscape:collect="always"
         stdDeviation="0.84411141"
         id="feGaussianBlur21" />
    </filter>
    <radialGradient
       inkscape:collect="always"
       xlink:href="#linearGradient22"
       id="radialGradient23"
       cx="67.726446"
       cy="67.691581"
       fx="67.726446"
       fy="67.691581"
       r="56.492816"
       gradientTransform="matrix(1,0,0,1.1486803,0,-10.064404)"
       gradientUnits="userSpaceOnUse" />
  </defs>
  <g
     inkscape:label="Layer 1"
     inkscape:groupmode="layer"
     id="layer1">
    <g
       id="g31">
      <path
         id="path1"
         style="display:none;opacity:0.5;fill:#aaeeff;stroke-width:1.05833;stroke-linecap:round;stroke-linejoin:round;stroke-dashoffset:149.514;paint-order:markers stroke fill"
         inkscape:transform-center-y="-34.763251"
         d="M 67.733332,3.3538004 64.6529,28.014827 43.152404,13.015743 64.155773,31.997012 63.324816,38.649836 65.030655,62.586359 H 70.43601 L 72.141849,38.649836 71.310892,31.997012 92.314261,13.015743 70.813764,28.014827 Z"
         inkscape:transform-center-x="-2.8579565e-06" />
      <circle
         style="display:none;opacity:0.5;fill:#aaeeff;stroke-width:1.05833;stroke-linecap:round;stroke-linejoin:round;stroke-dashoffset:149.514;paint-order:markers stroke fill"
         id="path2"
         cx="67.73333"
         cy="67.73333"
         r="6.7014875" />
      <path
         id="path3"
         style="display:none;opacity:0.5;fill:#aaeeff;stroke-width:1.05833;stroke-linecap:round;stroke-linejoin:round;stroke-dashoffset:149.514;paint-order:markers stroke fill"
         inkscape:transform-center-y="24.439701"
         d="M 123.48764,99.923093 103.67078,84.92485 127.41062,73.804416 100.47067,82.503233 95.124631,78.457191 73.542074,67.96623 l -2.702677,4.681175 19.876717,13.445561 6.176993,2.606782 5.936573,27.680082 -2.23934,-26.119515 z"
         inkscape:transform-center-x="-31.39168" />
      <path
         id="path4"
         style="display:none;opacity:0.5;fill:#aaeeff;stroke-width:1.05833;stroke-linecap:round;stroke-linejoin:round;stroke-dashoffset:149.514;paint-order:markers stroke fill"
         inkscape:transform-center-y="24.439698"
         d="M 11.979024,99.923093 34.876313,90.260312 32.636972,116.37983 38.57355,88.699744 44.750543,86.092961 64.62726,72.6474 61.924583,67.966225 40.342027,78.457187 34.995991,82.503228 8.0560442,73.804412 31.795881,84.924847 Z"
         inkscape:transform-center-x="31.391679" />
      <path
         id="path5"
         style="display:none;opacity:0.5;fill:#aaeeff;stroke-width:1.05833;stroke-linecap:round;stroke-linejoin:round;stroke-dashoffset:149.514;paint-order:markers stroke fill"
         inkscape:transform-center-y="-24.439703"
         d="M 11.979024,35.543567 31.795883,50.54181 8.0560431,61.662244 34.995993,52.963427 40.342029,57.009469 61.924586,67.50043 64.627263,62.819255 44.750546,49.373694 38.573553,46.766912 32.636976,19.086826 l 2.23934,26.119519 z"
         inkscape:transform-center-x="31.391678" />
      <path
         id="path6"
         style="display:none;opacity:0.5;fill:#aaeeff;stroke-width:1.05833;stroke-linecap:round;stroke-linejoin:round;stroke-dashoffset:149.514;paint-order:markers stroke fill"
         inkscape:transform-center-y="-24.4397"
         d="m 123.48764,35.543566 -22.89729,9.662782 2.23934,-26.119521 -5.93658,27.680089 -6.176994,2.606782 -19.876717,13.445562 2.702678,4.681175 21.582556,-10.490962 5.346037,-4.046041 26.93995,8.698816 -23.73984,-11.120434 z"
         inkscape:transform-center-x="-31.391681" />
      <path
         id="path7"
         style="display:none;opacity:0.5;fill:#aaeeff;stroke-width:1.05833;stroke-linecap:round;stroke-linejoin:round;stroke-dashoffset:149.514;paint-order:markers stroke fill"
         inkscape:transform-center-y="34.763252"
         d="M 67.733327,132.11286 70.813759,107.45183 92.314255,122.45092 71.310886,103.46965 72.141843,96.816823 70.436004,72.8803 h -5.405355 l -1.705839,23.936523 0.830957,6.652827 -21.003369,18.98127 21.500497,-14.99909 z"
         inkscape:transform-center-x="3.2729493e-06" />
      <path
         style="color:#000000;display:none;opacity:0.5;fill:#aaeeff;stroke-width:1;stroke-linecap:round;stroke-linejoin:round;stroke-dashoffset:149.514;-inkscape-stroke:none;paint-order:markers stroke fill"
         d="m 42.394899,53.774077 -2.824368,13.582738 c -0.05105,0.248636 -0.05047,0.505113 0.0018,0.75351 l 2.823253,13.580751 c 0.0805,0.388674 0.283728,0.741208 0.579729,1.005654 l 10.350489,9.238509 c 0.189563,0.169175 0.411899,0.297541 0.653188,0.377119 l 13.174065,4.343406 c 0.377015,0.124123 0.783933,0.123854 1.160785,-7.65e-4 l 13.174876,-4.344228 c 0.240615,-0.07958 0.462339,-0.207684 0.651452,-0.376395 l 10.350812,-9.23734 c 0.295851,-0.264101 0.499125,-0.616185 0.579917,-1.004448 l 2.824368,-13.582735 c 0.05154,-0.248133 0.05163,-0.504207 2.42e-4,-0.752373 L 93.070228,53.775589 c -0.0805,-0.388671 -0.283726,-0.741208 -0.579728,-1.005651 l -10.349671,-9.2354 c -0.189562,-0.169174 -0.411898,-0.297542 -0.653188,-0.377117 l -13.174898,-4.34652 c -0.377016,-0.124123 -0.783935,-0.123853 -1.160788,7.68e-4 l -13.172898,4.345365 c -0.241219,0.07899 -0.463632,0.206719 -0.653438,0.375241 l -10.350802,9.237357 c -0.29585,0.264101 -0.499123,0.616182 -0.579918,1.004445 z m 8.849703,4.438432 4.259975,-11.659323 12.229204,2.141183 12.226921,-2.140254 4.26192,11.66009 7.966946,9.51907 -7.968423,9.520881 L 79.961171,88.913482 67.733941,86.773437 55.503907,88.914526 51.245101,77.2536 43.27618,67.73339 Z"
         id="path9"
         sodipodi:nodetypes="cccccccccccccccccccccccccccccccccccccc" />
      <path
         id="rect10"
         style="display:none;opacity:0.5;fill:#aaeeff;stroke-width:3.175;stroke-linecap:round;stroke-linejoin:round;stroke-dashoffset:149.514;paint-order:markers stroke fill"
         d="M 67.733332,7.2112783 C 72.21817,7.672386 75.688256,11.041205 79.301928,13.502173 L 80.998501,6.0213035 78.634682,11.458311 C 74.497368,8.9031539 71.146765,5.3470111 67.733332,1.9335778 64.465165,5.5523859 60.771899,8.6019279 56.831982,11.45831 l -2.363819,-5.4370065 1.696573,7.4808695 c 3.721346,-2.473037 7.031909,-5.5360034 11.568596,-6.2908947 z"
         sodipodi:nodetypes="ccccccccc"
         inkscape:transform-center-x="-2.3579565e-06"
         inkscape:transform-center-y="-60.015456" />
      <path
         id="path10"
         style="display:none;opacity:0.5;fill:#aaeeff;stroke-width:3.175;stroke-linecap:round;stroke-linejoin:round;stroke-dashoffset:149.514;paint-order:markers stroke fill"
         d="m 120.14696,37.472306 c 1.84309,4.114537 0.66065,8.804129 0.33623,13.164145 l 7.32691,-2.271159 -5.8905,0.671376 c 0.14418,-4.860597 1.54858,-9.540376 2.79799,-14.203212 -4.76807,-1.020912 -9.25568,-2.694603 -13.69934,-4.67848 l 3.52668,-4.765631 -5.63034,5.20971 c 4.00239,1.986262 8.31028,3.32181 11.23237,6.873251 z"
         sodipodi:nodetypes="ccccccccc"
         inkscape:transform-center-x="-50.629017"
         inkscape:transform-center-y="-29.720432" />
      <path
         id="path11"
         style="display:none;opacity:0.5;fill:#aaeeff;stroke-width:3.175;stroke-linecap:round;stroke-linejoin:round;stroke-dashoffset:149.514;paint-order:markers stroke fill"
         d="m 120.14696,97.994353 c -2.64175,3.653427 -7.29427,4.974207 -11.23237,6.873257 l 5.63034,5.20971 -3.52668,-4.76564 c 4.28149,-2.30543 9.0365,-3.42907 13.69934,-4.67847 -1.4999,-4.639726 -2.29425,-9.362956 -2.79799,-14.203217 l 5.8905,0.671379 -7.32692,-2.271163 c 0.28105,4.459303 1.27837,8.857819 -0.33622,13.164144 z"
         sodipodi:nodetypes="ccccccccc"
         inkscape:transform-center-x="-50.629017"
         inkscape:transform-center-y="29.720437" />
      <path
         id="path12"
         style="display:none;opacity:0.5;fill:#aaeeff;stroke-width:3.175;stroke-linecap:round;stroke-linejoin:round;stroke-dashoffset:149.514;paint-order:markers stroke fill"
         d="m 67.733329,128.25538 c -4.484836,-0.46111 -7.954925,-3.82992 -11.5686,-6.29089 l -1.696571,7.48087 2.363825,-5.43702 c 4.137306,2.55517 7.487912,6.11131 10.901344,9.52475 3.26817,-3.61882 6.961433,-6.66836 10.901352,-9.52474 l 2.363818,5.43701 -1.696575,-7.48088 c -3.721345,2.47305 -7.031911,5.53601 -11.568593,6.2909 z"
         sodipodi:nodetypes="ccccccccc"
         inkscape:transform-center-x="2.3686893e-06"
         inkscape:transform-center-y="60.015459" />
      <path
         id="path13"
         style="display:none;opacity:0.5;fill:#aaeeff;stroke-width:3.175;stroke-linecap:round;stroke-linejoin:round;stroke-dashoffset:149.514;paint-order:markers stroke fill"
         d="M 15.319695,97.994353 C 13.47661,93.879816 14.659041,89.190226 14.983466,84.830207 l -7.3269093,2.271161 5.8905103,-0.671377 c -0.14419,4.860597 -1.548594,9.540377 -2.798004,14.203219 4.768075,1.0209 9.255686,2.69459 13.699343,4.67847 l -3.52668,4.76564 5.630345,-5.20972 c -4.002397,-1.98626 -8.310281,-3.32181 -11.232376,-6.873247 z"
         sodipodi:nodetypes="ccccccccc"
         inkscape:transform-center-x="50.629018"
         inkscape:transform-center-y="29.720436" />
      <path
         id="path14"
         style="display:none;opacity:0.5;fill:#aaeeff;stroke-width:3.175;stroke-linecap:round;stroke-linejoin:round;stroke-dashoffset:149.514;paint-order:markers stroke fill"
         d="m 15.319697,37.472301 c 2.641751,-3.653427 7.29427,-4.974206 11.23237,-6.873255 l -5.630338,-5.20971 3.526685,4.765644 c -4.281496,2.305426 -9.036506,3.429066 -13.699351,4.678466 1.499913,4.639725 2.29426,9.362955 2.797998,14.203215 l -5.8905053,-0.671375 7.3269223,2.271162 c -0.281047,-4.459308 -1.278369,-8.85782 0.336219,-13.164147 z"
         sodipodi:nodetypes="ccccccccc"
         inkscape:transform-center-x="50.629021"
         inkscape:transform-center-y="-29.720438" />
    </g>
    <path
       id="path8"
       style="color:#000000;display:inline;opacity:0.6;fill:url(#radialGradient8);fill-opacity:1;stroke:#009bff;stroke-width:1;stroke-linecap:round;stroke-linejoin:round;stroke-dashoffset:149.514;stroke-opacity:0.4;-inkscape-stroke:none;paint-order:markers stroke fill"
       inkscape:transform-center-x="-0.1512751"
       inkscape:transform-center-y="-0.11558097"
       d="m 67.733332,1.9337321 c -0.853348,0.8533553 -1.70289,1.7155331 -2.5616,2.5688354 -0.858793,0.8533101 -1.727159,1.6975577 -2.617928,2.5150919 -1.335874,1.2260448 -2.722536,2.3923745 -4.204911,3.4375166 -3.11e-4,2.18e-4 -7.24e-4,2.98e-4 -10e-4,5.16e-4 -0.49393,0.348217 -0.998334,0.682795 -1.515153,1.002006 L 54.467992,6.0213378 56.16453,13.502018 v 0.001 c 1.740494,-1.185301 3.447975,-2.581417 5.251359,-3.7615279 0.9017,-0.5899035 1.827203,-1.1261237 2.793111,-1.5549438 0.965908,-0.4288201 1.972012,-0.7503154 3.03444,-0.9115723 l -0.444417,3.561023 -0.953947,7.631059 -2.426726,1.839681 -4.703072,3.565157 -7.781437,-5.428093 -7.778853,-5.426542 -0.0026,-0.0015 6.816638,6.15983 6.815605,6.159831 -1.456759,1.104325 v 5.17e-4 l -6.309175,8.061524 -2.224154,-3.034957 5.17e-4,10e-4 1.516186,3.442167 -6.75721,0.956014 -3.379122,0.477491 -1.684135,0.709517 -3.853511,-17.966345 5.17e-4,0.0083 -0.0016,-0.0083 1.621607,18.906339 -8.246525,3.47214 -2.983281,-1.258838 -7.37526,-3.112988 c 2.90057,-3.25523 7.016013,-4.573253 10.859285,-6.475574 0.01306,-0.0063 0.02726,-0.01179 0.04031,-0.01809 l -5.17e-4,-5.17e-4 -5.62963,-5.210017 h -5.17e-4 l 0.0015,0.0016 3.525367,4.76405 c -2.683509,1.198061 -5.39201,2.259426 -8.159709,3.15588 -1.839542,0.536303 -3.693973,1.028348 -5.539713,1.522904 0.493781,1.842802 0.99421,3.691813 1.449007,5.550049 0.608568,2.848087 1.044232,5.727083 1.348755,8.653219 l -5.8905969,-0.671277 0.00258,0.001 4.3330689,1.342554 2.992065,0.927592 c -7.33e-4,-0.0099 -0.0024,-0.02012 -0.0031,-0.02997 -0.273037,-4.284445 -1.193109,-8.512381 0.17725,-12.656592 l 5.776391,4.371309 3.188953,2.413806 1.116211,8.877495 -17.1839639,8.049121 0.00362,-10e-4 -0.00362,0.0016 17.4862709,-5.64565 0.227893,1.812809 v 5.17e-4 l 0.549837,1.363741 3.276803,8.131287 -3.282487,0.358117 -0.457853,0.05013 3.74034,0.408244 -3.827157,9.495028 -0.227893,1.813843 -9.958048,-3.215308 -7.5277059,-2.430859 0.00362,0.0015 -0.00362,-0.001 11.7021279,5.48132 5.481319,2.567801 -0.991154,7.886341 -0.12454,0.991154 -4.496883,3.403409 -4.496883,3.40341 c -0.19572,-0.500203 -0.349708,-1.008065 -0.468706,-1.522387 -3.8e-5,-1.66e-4 3.9e-5,-3.51e-4 0,-5.17e-4 -0.119012,-0.514486 -0.203107,-1.035173 -0.258898,-1.560628 -0.111505,-1.050968 -0.110284,-2.120789 -0.05013,-3.196705 0.120315,-2.15183 0.47575,-4.328066 0.632003,-6.428031 h -0.001 L 7.6562933,87.101213 13.54689,86.43097 c -0.07217,2.42992 -0.45927,4.814697 -0.984436,7.174756 -3.7e-5,1.65e-4 3.6e-5,3.51e-4 0,5.17e-4 -0.525224,2.360227 -1.188664,4.695727 -1.813326,7.026957 2.384026,0.51045 4.697758,1.18408 6.97115,1.97818 1.136649,0.397 2.263182,0.82405 3.383256,1.27589 2.06e-4,8e-5 3.11e-4,4.3e-4 5.17e-4,5.1e-4 1.119863,0.45177 2.233288,0.92781 3.343982,1.42369 l -3.52485,4.76457 -0.0015,0.002 h 5.17e-4 l 1.352889,-1.25161 4.277258,-3.95738 c -3.45e-4,-1.7e-4 -6.88e-4,-3.4e-4 -0.001,-5.1e-4 l 5.16e-4,-5.2e-4 c -1.615742,-0.80184 -3.268274,-1.51444 -4.871537,-2.29392 -0.308976,-0.15022 -0.628117,-0.28774 -0.931726,-0.44545 -1.34e-4,-7e-5 -3.83e-4,7e-5 -5.17e-4,0 -0.469784,-0.24403 -0.931796,-0.49878 -1.383895,-0.76894 -1.356154,-0.81064 -2.619549,-1.761682 -3.710884,-2.986383 l 8.035685,-3.391525 2.322339,-0.979785 8.246525,3.472656 -0.06666,0.777214 -1.554944,18.128603 0.0016,-0.008 -5.17e-4,0.008 3.853511,-17.966339 1.683619,0.709517 5.403287,0.763778 4.734078,0.669724 -1.51722,3.44372 2.224154,-3.03547 6.309175,8.06204 v 5.1e-4 l 1.456759,1.10381 -13.632243,12.31966 15.562874,-10.85618 1.725476,1.30793 5.404838,4.09691 1.397848,11.19208 c -1.062426,-0.16126 -2.068533,-0.48275 -3.03444,-0.91158 -1.531061,-0.67972 -2.949915,-1.64739 -4.343404,-2.65358 -0.36463,-0.26329 -0.737872,-0.51196 -1.098641,-0.77928 -1.14e-4,-8e-5 -4.04e-4,8e-5 -5.17e-4,0 -0.629153,-0.46619 -1.255023,-0.91492 -1.882056,-1.36167 -0.239663,-0.17076 -0.478742,-0.35654 -0.719335,-0.52039 -1.96e-4,-1.3e-4 -3.22e-4,-3.8e-4 -5.17e-4,-5.1e-4 l -1.696538,7.48068 2.364197,-5.43585 c 0.516948,0.31928 1.022143,0.65372 1.516187,1.00201 1.17e-4,8e-5 3.99e-4,-8e-5 5.17e-4,0 1.482588,1.04522 2.86888,2.21137 4.204911,3.43752 1.781426,1.63512 3.472742,3.37713 5.179528,5.08392 0.817036,-0.90469 1.66064,-1.77388 2.528012,-2.61327 2.602287,-2.51809 5.418734,-4.76841 8.373649,-6.91069 l 2.36368,5.43636 -1.696021,-7.48068 c -1.18e-4,8e-5 -3.99e-4,-8e-5 -5.17e-4,0 v -5.2e-4 c -0.895877,0.59537 -1.768204,1.22518 -2.639632,1.84795 -1.14e-4,8e-5 -4.02e-4,-8e-5 -5.17e-4,0 -0.871486,0.62268 -1.741934,1.23915 -2.634464,1.80867 -0.596483,0.38073 -1.209631,0.72773 -1.832446,1.05472 -1.241121,0.65141 -2.541503,1.18515 -3.967717,1.48053 l 1.393714,-11.15642 5.741251,-4.35168 1.389063,-1.05316 9.793717,6.83214 5.766573,4.02249 0.0026,0.002 -6.816122,-6.15983 -6.815604,-6.15983 1.455208,-1.10381 6.310209,-8.06307 2.224154,3.03599 -1.51722,-3.44424 10.137365,-1.432465 5.17e-4,-5.17e-4 1.684135,-0.709 0.680062,3.172412 3.172411,14.79341 -5.2e-4,-0.004 0.001,0.004 -0.81029,-9.45316 -0.81029,-9.452657 1.88464,-0.79375 6.36137,-2.678906 10.35906,4.37131 c -2.91054,3.266613 -7.04544,4.581763 -10.90011,6.494693 l 5.63066,5.21002 -3.52588,-4.76509 c 2.68687,-1.19953 5.39831,-2.26231 8.16953,-3.15949 1.83594,-0.53503 3.68675,-1.02621 5.52886,-1.51981 -0.49281,-1.839216 -0.99231,-3.684667 -1.44642,-5.539193 -0.60966,-2.851395 -1.0459,-5.733883 -1.35082,-8.663554 l 5.89007,0.67076 -7.3272,-2.271179 c 0.27068,4.29454 1.19881,8.532815 -0.17466,12.686564 l -8.96535,-6.785115 -1.11569,-8.877495 17.18345,-8.049637 -17.48524,5.646167 -0.22789,-1.813326 -3.82819,-9.495545 3.74137,-0.408244 -3.74137,-0.408243 3.82767,-9.495545 v -5.16e-4 l 0.22789,-1.81281 8.74262,2.822567 8.74314,2.8236 -0.004,-0.0016 0.004,0.001 -8.59173,-4.024044 -8.59172,-4.025077 1.11569,-8.877495 4.48242,-3.393074 4.48241,-3.392041 c 0.51496,1.557374 0.70664,3.127051 0.73071,4.706689 0,1.72e-4 -1e-5,3.45e-4 0,5.17e-4 0.0395,2.633169 -0.38636,5.295344 -0.55553,7.979358 h 0.001 l 7.32616,-2.271179 -5.89007,0.67076 c 0.3778,-3.629994 0.9188,-7.194313 1.79834,-10.70684 0.29319,-1.170897 0.62393,-2.33599 0.9989,-3.495911 -1.1657,-0.312349 -2.33738,-0.616702 -3.50573,-0.933793 -2.33649,-0.634124 -4.66072,-1.318338 -6.9019,-2.216402 -2.1e-4,-8.4e-5 -3.1e-4,-4.33e-4 -5.2e-4,-5.17e-4 -1.12047,-0.449007 -2.22006,-0.95134 -3.29024,-1.527555 l 3.52588,-4.766117 -5.63014,5.209501 c 2e-4,9.7e-5 3.1e-4,4.19e-4 5.1e-4,5.16e-4 0.52366,0.252524 1.07604,0.485555 1.61851,0.724504 0.43978,0.193715 0.86753,0.394621 1.31206,0.587561 2.97917,1.293016 5.98838,2.650191 8.00107,5.168677 l -10.39162,4.385262 -8.24601,-3.472656 1.62058,-18.905823 -3.852993,17.965828 -1.684652,-0.709517 h -5.16e-4 l -1.116728,-0.15813 -9.019604,-1.274858 1.516703,-3.443717 -2.224154,3.035474 -6.309692,-8.061524 v -5.17e-4 l -1.455725,-1.103808 13.631726,-12.320178 -0.0026,0.0015 -9.164815,6.393408 -6.394959,4.461743 h -5.16e-4 L 69.621073,18.46709 69.482063,17.352429 68.227876,7.3106648 c 1.070865,0.2218267 2.074423,0.5708152 3.033406,1.0066569 1.46e-4,6.6e-5 3.72e-4,-6.61e-5 5.17e-4,0 0.958979,0.4358707 1.873204,0.9591319 2.765723,1.5285888 1.78493,1.1393135 3.482166,2.4652665 5.274096,3.6561075 v -10e-4 c 3.18e-4,2.11e-4 7.16e-4,3.05e-4 10e-4,5.16e-4 l 1.503784,-6.6316362 0.192237,-0.8474935 v -5.167e-4 l -2.364197,5.4358434 c -0.984773,-0.713952 -1.95405,-1.439886 -2.905249,-2.1838456 -1.05e-4,-8.22e-5 -4.12e-4,8.23e-5 -5.17e-4,0 C 72.87469,7.0415751 70.184437,4.6478255 67.733332,1.9337321 Z m -3.838525,26.8593419 -5.861657,7.740096 5.389851,8.798429 -7.187675,-2.920752 -5.544364,-5.626013 5.358846,-5.442045 5.921086,-1.92443 z m 7.678084,5.17e-4 7.844483,2.548682 5.358846,5.442045 -5.544881,5.627563 -3.874699,1.574581 -3.312976,1.346171 4.213696,-6.87865 1.176155,-1.920296 5.17e-4,-5.17e-4 z m -22.120613,8.706445 2.101164,7.615039 v 5.17e-4 l -1.064535,7.684285 -4.92528,-9.067146 h -5.17e-4 l -9.633521,1.206127 0.555522,-0.500227 5.574853,-5.018815 z m 36.562109,0 7.39283,1.91978 6.130375,5.519559 -9.63352,-1.206644 -5.17e-4,5.16e-4 -2.249992,4.1429 -2.674772,4.924764 -0.06925,-0.497644 -0.995288,-7.188709 1.715657,-6.220808 z m -6.053377,9.053194 2.957959,8.094596 v 5.17e-4 l -11.287683,7.634676 c -0.176907,-0.123541 -0.374901,-0.210996 -0.562757,-0.316776 -0.18799,-0.111655 -0.365507,-0.240999 -0.563789,-0.33383 l 0.967899,-13.593485 z m -24.287923,0.290422 8.320939,1.195276 0.0739,1.037662 0.894519,12.555823 c -0.09407,0.04401 -0.175828,0.109811 -0.267684,0.15813 l -0.719852,0.415995 c -0.04156,0.02977 -0.08623,0.05506 -0.127124,0.08578 L 52.54718,54.647826 Z m -23.582023,4.743896 3.77238,8.946224 v 5.17e-4 l 10.314615,-0.268201 -1.74563,1.358574 -4.37751,3.405993 -7.645011,1.987476 -2.033468,-7.361825 z m 71.285056,5.17e-4 1.71462,8.068241 -2.03347,7.362341 -7.645007,-1.989025 -6.124691,-4.764567 10.316166,0.269234 v -5.17e-4 h 5.17e-4 l 2.181265,-5.173844 z m -54.568247,9.536369 12.270569,5.964493 c -0.0061,0.05077 -0.0059,0.10208 -0.01085,0.152963 v 0.854211 c 0.0041,0.09603 -0.01136,0.192017 -0.0031,0.287838 l -12.256616,5.958292 -5.195549,-6.609415 z m 37.850919,0 0.0083,0.01033 5.186764,6.598563 -5.171778,6.579961 -0.02377,0.02842 -0.341064,-0.165882 -11.927954,-5.798095 c 0.0061,-0.05076 0.0059,-0.102089 0.01085,-0.152963 V 67.31372 c -0.0039,-0.07702 0.0092,-0.154097 0.0026,-0.230994 z m -54.248884,7.3241 7.644494,1.988509 6.124174,4.764567 -10.315132,-0.268717 v 5.17e-4 l -3.77238,8.945707 -1.714624,-8.068758 z m 70.647362,0 0.85422,3.090768 1.17925,4.271057 -1.71514,8.068241 -3.771345,-8.945707 -10.315649,0.268717 3.061311,-2.382283 3.062346,-2.3828 3.822505,-0.994255 z m -31.43787,4.726844 11.299569,7.642944 v 5.17e-4 l -0.01499,0.04031 -3.110405,7.76335 -8.304402,-1.191658 -0.01654,-0.0031 -0.967899,-13.593485 c 0.06794,-0.03181 0.126493,-0.08016 0.193269,-0.114205 l 0.794267,-0.458887 c 0.0416,-0.02968 0.0862,-0.05516 0.127124,-0.08578 z m -7.784021,0.0083 c 0.178587,0.12464 0.378296,0.213366 0.567924,0.319877 0.186533,0.110526 0.362582,0.238771 0.559139,0.330729 l -0.775663,10.890808 -0.192753,2.701644 -8.489404,1.486214 -2.957442,-8.094079 z m 21.143412,9.482625 4.924764,9.06818 9.633521,-1.206644 -6.129859,5.519559 -5.868892,1.523938 -1.523421,0.395842 -0.700733,-2.538347 -1.399914,-5.076692 0.709517,-5.124235 z m -34.489884,5.17e-4 1.064535,7.684802 v 5.17e-4 l -2.100647,7.615039 -7.392831,-1.91978 -6.129858,-5.519043 9.633521,1.206128 v -5.17e-4 l 1.231449,-2.266528 z m 21.55424,7.467244 7.188708,2.921786 5.544365,5.626013 -5.358846,5.442557 -5.921603,1.92392 -1.923396,0.62528 5.86114,-7.739576 5.17e-4,-5.17e-4 z m -8.619112,0.001 -3.342432,5.455997 -2.047937,3.342432 v 5.17e-4 l 5.861658,7.73958 -7.845516,-2.5492 -5.358846,-5.442561 1.380794,-1.401465 4.16357,-4.224548 z" />
    <path
       id="path17"
       style="color:#000000;display:inline;mix-blend-mode:overlay;fill:url(#radialGradient17);fill-opacity:1;stroke:none;stroke-width:1;stroke-linecap:round;stroke-linejoin:round;stroke-dashoffset:149.514;stroke-opacity:0.4;-inkscape-stroke:none;paint-order:markers stroke fill;filter:url(#filter19);opacity:0.6"
       inkscape:transform-center-x="-0.1512751"
       inkscape:transform-center-y="-0.11558097"
       d="m 237.62173,-31.199831 c -0.85335,0.853355 -1.70289,1.715533 -2.5616,2.568835 -0.85879,0.85331 -1.72716,1.697558 -2.61793,2.515092 -1.33587,1.226045 -2.72253,2.392375 -4.20491,3.437517 -3.1e-4,2.18e-4 -7.2e-4,2.98e-4 -0.001,5.16e-4 -0.49393,0.348217 -0.99833,0.682795 -1.51515,1.002006 l -2.36472,-5.436361 1.69654,7.480681 v 10e-4 c 1.74049,-1.185301 3.44798,-2.581417 5.25136,-3.761528 0.9017,-0.589904 1.8272,-1.126124 2.79311,-1.554944 0.96591,-0.42882 1.97201,-0.750315 3.03444,-0.911572 l -0.44442,3.561023 -0.95394,7.631059 -2.42673,1.839681 -4.70307,3.5651567 -7.78144,-5.4280927 -7.77885,-5.426542 -0.003,-0.0015 6.81664,6.15983 6.81561,6.1598307 -1.45676,1.104325 v 5.17e-4 l -6.30918,8.061524 -2.22415,-3.034957 5.2e-4,0.00103 1.51618,3.442167 -6.75721,0.956014 -3.37912,0.477491 -1.68413,0.709517 -3.85352,-17.9663447 5.2e-4,0.0083 -0.002,-0.0083 1.62161,18.9063387 -8.24653,3.47214 -2.98328,-1.258838 -7.37526,-3.112988 c 2.90057,-3.25523004 7.01601,-4.57325304 10.85929,-6.475574 0.0131,-0.00628 0.0273,-0.011795 0.0403,-0.018087 l -5.1e-4,-5.17e-4 -5.62963,-5.210017 h -5.2e-4 l 0.002,0.00155 3.52537,4.76405 c -2.68351,1.198061 -5.39201,2.25942596 -8.15971,3.15587996 -1.83954,0.536303 -3.69397,1.02834804 -5.53971,1.52290404 0.49378,1.842802 0.99421,3.691813 1.449,5.550049 0.60857,2.8480873 1.04423,5.7270833 1.34876,8.6532193 l -5.8906,-0.671277 0.003,10e-4 4.33307,1.342554 2.99207,0.927592 c -7.3e-4,-0.0099 -0.002,-0.02012 -0.003,-0.02997 -0.27304,-4.284445 -1.19311,-8.5123813 0.17725,-12.6565923 l 5.77639,4.371309 3.18895,2.4138063 1.11621,8.877495 -17.18396,8.049121 0.004,-0.001 -0.004,0.0016 17.48627,-5.64565 0.22789,1.812809 v 5.17e-4 l 0.54984,1.363741 3.2768,8.131287 -3.28248,0.358117 -0.45786,0.05013 3.74034,0.408244 -3.82715,9.495028 -0.2279,1.813843 -9.95804,-3.215308 -7.52771,-2.430859 0.004,0.0015 -0.004,-10e-4 11.70213,5.48132 5.48132,2.567801 -0.99116,7.886341 -0.12454,0.991154 -4.49688,3.403409 -4.49688,3.40341 c -0.19572,-0.500203 -0.34971,-1.008065 -0.46871,-1.522387 -4e-5,-1.66e-4 4e-5,-3.51e-4 0,-5.17e-4 -0.11901,-0.514486 -0.20311,-1.035173 -0.2589,-1.560628 -0.1115,-1.050968 -0.11028,-2.120789 -0.0501,-3.196705 0.12031,-2.15183 0.47575,-4.328066 0.632,-6.428031 h -0.001 l -7.32669,2.271179 5.8906,-0.670243 c -0.0722,2.42992 -0.45927,4.814697 -0.98444,7.174756 -4e-5,1.65e-4 4e-5,3.51e-4 0,5.17e-4 -0.52522,2.360227 -1.18866,4.695727 -1.81332,7.026958 2.38402,0.51045 4.69775,1.18408 6.97115,1.97818 1.13664,0.397 2.26318,0.82405 3.38325,1.27589 2.1e-4,8e-5 3.1e-4,4.3e-4 5.2e-4,5.1e-4 1.11986,0.45177 2.23329,0.92781 3.34398,1.42369 l -3.52485,4.76457 -0.002,0.0015 h 5.2e-4 l 1.35289,-1.25161 4.27725,-3.95738 c -3.4e-4,-1.7e-4 -6.8e-4,-3.4e-4 -0.001,-5.1e-4 l 5.2e-4,-5.2e-4 c -1.61574,-0.80184 -3.26828,-1.51444 -4.87154,-2.29392 -0.30898,-0.15022 -0.62812,-0.28774 -0.93173,-0.44545 -1.3e-4,-7e-5 -3.8e-4,7e-5 -5.1e-4,0 -0.46979,-0.24403 -0.9318,-0.49878 -1.3839,-0.76894 -1.35615,-0.81064 -2.61955,-1.761683 -3.71088,-2.986384 l 8.03568,-3.391525 2.32234,-0.979785 8.24653,3.472656 -0.0667,0.777214 -1.55494,18.128604 0.002,-0.0083 -5.2e-4,0.0083 3.85352,-17.96634 1.68361,0.709517 5.40329,0.763778 4.73408,0.669725 -1.51722,3.44372 2.22415,-3.03547 6.30918,8.06204 v 5.1e-4 l 1.45676,1.10381 -13.63225,12.31966 15.56288,-10.85618 1.72547,1.30793 5.40484,4.09691 1.39785,11.19208 c -1.06243,-0.16126 -2.06853,-0.48275 -3.03444,-0.91158 -1.53106,-0.67972 -2.94991,-1.64739 -4.3434,-2.65358 -0.36463,-0.26329 -0.73788,-0.51196 -1.09864,-0.77928 -1.2e-4,-8e-5 -4.1e-4,8e-5 -5.2e-4,0 -0.62915,-0.46619 -1.25502,-0.91492 -1.88206,-1.36167 -0.23966,-0.17076 -0.47874,-0.35654 -0.71933,-0.52039 -2e-4,-1.3e-4 -3.2e-4,-3.8e-4 -5.2e-4,-5.1e-4 l -1.69654,7.48068 2.3642,-5.43585 c 0.51695,0.31928 1.02214,0.65372 1.51619,1.00201 1.1e-4,8e-5 4e-4,-8e-5 5.1e-4,0 1.48259,1.04522 2.86888,2.21137 4.20491,3.43752 1.78143,1.63512 3.47275,3.37713 5.17953,5.083919 0.81704,-0.904689 1.66064,-1.773879 2.52801,-2.613269 2.60229,-2.51809 5.41874,-4.76841 8.37365,-6.91069 l 2.36368,5.43636 -1.69602,-7.48068 c -1.2e-4,8e-5 -4e-4,-8e-5 -5.1e-4,0 v -5.2e-4 c -0.89588,0.59537 -1.76821,1.22518 -2.63964,1.84795 -1.1e-4,8e-5 -4e-4,-8e-5 -5.1e-4,0 -0.87149,0.62268 -1.74194,1.23915 -2.63447,1.80867 -0.59648,0.38073 -1.20963,0.72773 -1.83244,1.05472 -1.24112,0.65141 -2.54151,1.18515 -3.96772,1.48053 l 1.39371,-11.15642 5.74125,-4.35168 1.38907,-1.05316 9.79371,6.83214 5.76658,4.02249 0.003,0.0015 -6.81612,-6.15983 -6.8156,-6.15983 1.4552,-1.10381 6.31021,-8.06307 2.22416,3.03599 -1.51722,-3.44424 10.13736,-1.432466 5.2e-4,-5.17e-4 1.68413,-0.709 0.68007,3.172413 3.17241,14.79341 -5.2e-4,-0.0041 10e-4,0.0041 -0.81029,-9.45316 -0.81029,-9.452658 1.88464,-0.79375 6.36137,-2.678906 10.35906,4.37131 c -2.91054,3.266614 -7.04544,4.581764 -10.90011,6.494694 l 5.63066,5.21002 -3.52588,-4.76509 c 2.68687,-1.19953 5.39831,-2.26231 8.16953,-3.15949 1.83594,-0.53503 3.68675,-1.02621 5.52886,-1.51981 -0.49281,-1.839217 -0.99231,-3.684668 -1.44642,-5.539194 -0.60966,-2.851395 -1.0459,-5.733883 -1.35082,-8.663554 l 5.89007,0.67076 -7.3272,-2.271179 c 0.27068,4.29454 1.19881,8.532815 -0.17466,12.686564 l -8.96535,-6.785115 -1.11569,-8.877495 17.18345,-8.049637 -17.48524,5.646167 -0.22789,-1.813326 -3.82819,-9.495545 3.74137,-0.408244 -3.74137,-0.408243 3.82767,-9.495545 v -5.16e-4 l 0.22789,-1.81281 8.74262,2.822567 8.74314,2.8236 -0.004,-0.0016 0.004,10e-4 -8.59173,-4.024044 -8.59172,-4.025077 1.11569,-8.877495 4.48242,-3.3930743 4.48241,-3.392041 c 0.51496,1.557374 0.70664,3.127051 0.73071,4.706689 0,1.72e-4 -10e-6,3.45e-4 0,5.17e-4 0.0395,2.6331693 -0.38636,5.2953443 -0.55553,7.9793583 h 10e-4 l 7.32616,-2.271179 -5.89007,0.67076 c 0.3778,-3.629994 0.9188,-7.1943133 1.79834,-10.7068403 0.29319,-1.170897 0.62393,-2.33599 0.9989,-3.495911 -1.1657,-0.312349 -2.33738,-0.616702 -3.50573,-0.93379304 -2.33649,-0.634124 -4.66072,-1.318338 -6.9019,-2.21640196 -2.1e-4,-8.4e-5 -3.1e-4,-4.33e-4 -5.2e-4,-5.17e-4 -1.12047,-0.449007 -2.22006,-0.95134 -3.29024,-1.527555 l 3.52588,-4.766117 -5.63014,5.209501 c 2e-4,9.7e-5 3.1e-4,4.19e-4 5.1e-4,5.16e-4 0.52366,0.252524 1.07604,0.485555 1.61851,0.724504 0.43978,0.193715 0.86753,0.394621 1.31206,0.587561 2.97917,1.29301596 5.98838,2.650191 8.00107,5.168677 l -10.39162,4.385262 -8.24601,-3.472656 1.62058,-18.9058227 -3.853,17.9658277 -1.68465,-0.709517 h -5.1e-4 l -1.11673,-0.15813 -9.01961,-1.274858 1.51671,-3.443717 -2.22416,3.035474 -6.30969,-8.061524 v -5.17e-4 l -1.45572,-1.103808 13.63172,-12.3201777 -0.003,0.0015 -9.16482,6.393408 -6.39496,4.4617427 h -5.1e-4 l -7.13032,-5.4053537 -0.13901,-1.114661 -1.25418,-10.041765 c 1.07086,0.221827 2.07442,0.570816 3.0334,1.006657 1.5e-4,6.6e-5 3.7e-4,-6.6e-5 5.2e-4,0 0.95898,0.435871 1.8732,0.959132 2.76572,1.528589 1.78493,1.139314 3.48217,2.465267 5.2741,3.656108 v -0.001 c 3.2e-4,2.11e-4 7.1e-4,3.05e-4 10e-4,5.16e-4 l 1.50379,-6.631637 0.19223,-0.847493 v -5.17e-4 l -2.36419,5.435844 c -0.98478,-0.713952 -1.95405,-1.439886 -2.90525,-2.183846 -1.1e-4,-8.2e-5 -4.1e-4,8.2e-5 -5.2e-4,0 -2.85402,-2.232277 -5.54427,-4.626027 -7.99538,-7.34012 z m -3.83852,26.8593417 -5.86166,7.740096 5.38985,8.7984293 -7.18767,-2.9207523 -5.54437,-5.626013 5.35885,-5.442045 5.92108,-1.92443 z m 7.67808,5.17e-4 7.84448,2.548682 5.35885,5.442045 -5.54488,5.627563 -3.8747,1.5745813 -3.31298,1.346171 4.2137,-6.8786503 1.17616,-1.920296 5.1e-4,-5.17e-4 z m -22.12061,8.706445 2.10116,7.6150393 v 5.17e-4 l -1.06453,7.684285 -4.92528,-9.067146 h -5.2e-4 l -9.63352,1.206127 0.55552,-0.500227 5.57485,-5.0188153 z m 36.56211,0 7.39283,1.91978 6.13037,5.5195593 -9.63352,-1.206644 -5.1e-4,5.16e-4 -2.25,4.1429 -2.67477,4.924764 -0.0692,-0.497644 -0.99529,-7.188709 1.71565,-6.2208083 z m -6.05338,9.0531943 2.95796,8.094596 v 5.17e-4 l -11.28768,7.634676 c -0.17691,-0.123541 -0.3749,-0.210996 -0.56276,-0.316776 -0.18799,-0.111655 -0.36551,-0.240999 -0.56379,-0.33383 l 0.9679,-13.593485 z m -24.28792,0.290422 8.32094,1.195276 0.0739,1.037662 0.89452,12.555823 c -0.0941,0.04401 -0.17583,0.109811 -0.26768,0.15813 l -0.71985,0.415995 c -0.0416,0.02977 -0.0862,0.05506 -0.12713,0.08578 l -11.3006,-7.644495 z m -23.58203,4.743896 3.77238,8.946224 v 5.17e-4 l 10.31462,-0.268201 -1.74563,1.358574 -4.37751,3.405993 -7.64501,1.987476 -2.03347,-7.361825 z m 71.28506,5.17e-4 1.71462,8.068241 -2.03347,7.362341 -7.64501,-1.989025 -6.12469,-4.764567 10.31617,0.269234 v -5.17e-4 h 5.2e-4 l 2.18126,-5.173844 z m -54.56825,9.536369 12.27057,5.964493 c -0.006,0.05077 -0.006,0.10208 -0.0108,0.152963 v 0.854211 c 0.004,0.09603 -0.0114,0.192017 -0.003,0.287838 l -12.25662,5.958292 -5.19555,-6.609415 z m 37.85092,0 0.008,0.01034 5.18676,6.598563 -5.17177,6.579961 -0.0238,0.02842 -0.34107,-0.165882 -11.92795,-5.798095 c 0.006,-0.05076 0.006,-0.102089 0.0109,-0.152963 V 34.18016 c -0.004,-0.07702 0.009,-0.154097 0.003,-0.230994 z m -54.24888,7.3241 7.64449,1.988509 6.12418,4.764567 -10.31514,-0.268717 v 5.17e-4 l -3.77238,8.945707 -1.71462,-8.068758 z m 70.64736,0 0.85422,3.090768 1.17925,4.271057 -1.71514,8.068241 -3.77134,-8.945707 -10.31565,0.268717 3.06131,-2.382283 3.06234,-2.3828 3.82251,-0.994255 z m -31.43787,4.726844 11.29957,7.642944 v 5.17e-4 l -0.015,0.04031 -3.1104,7.76335 -8.3044,-1.191658 -0.0165,-0.0031 -0.9679,-13.593485 c 0.0679,-0.03181 0.12649,-0.08016 0.19327,-0.114205 l 0.79427,-0.458887 c 0.0416,-0.02968 0.0862,-0.05516 0.12712,-0.08578 z m -7.78402,0.0083 c 0.17859,0.12464 0.3783,0.213366 0.56792,0.319877 0.18654,0.110526 0.36259,0.238771 0.55914,0.330729 l -0.77566,10.890808 -0.19275,2.701644 -8.48941,1.486214 -2.95744,-8.094079 z m 21.14341,9.482625 4.92477,9.06818 9.63352,-1.206644 -6.12986,5.519559 -5.86889,1.523938 -1.52343,0.395842 -0.70073,-2.538347 -1.39991,-5.076692 0.70951,-5.124235 z m -34.48988,5.17e-4 1.06453,7.684802 v 5.17e-4 l -2.10064,7.615039 -7.39284,-1.91978 -6.12985,-5.519043 9.63352,1.206128 v -5.17e-4 l 1.23145,-2.266528 z m 21.55424,7.467244 7.18871,2.921786 5.54436,5.626013 -5.35885,5.442559 -5.9216,1.92392 -1.92339,0.62528 5.86114,-7.739578 5.1e-4,-5.17e-4 z m -8.61911,10e-4 -3.34244,5.455997 -2.04793,3.342432 v 5.17e-4 l 5.86165,7.739578 -7.84551,-2.5492 -5.35885,-5.442559 1.3808,-1.401465 4.16357,-4.224548 z"
       clip-path="url(#clipPath19)"
       transform="translate(-169.88849,33.133636)" />
    <path
       id="path21"
       style="color:#000000;display:inline;mix-blend-mode:hard-light;fill:url(#radialGradient23);stroke:none;stroke-width:1;stroke-linecap:round;stroke-linejoin:round;stroke-dashoffset:149.514;stroke-opacity:0.4;-inkscape-stroke:none;paint-order:markers stroke fill;filter:url(#filter21)"
       inkscape:transform-center-x="-0.1512751"
       inkscape:transform-center-y="-0.11558097"
       d="m 67.599609,4.8730469 c -0.380321,0.9156612 0.456981,0.3225292 0,0 z M 67.439453,21.888672 c -1.46156,1.154694 -2.984174,2.230052 -4.441406,3.390625 2.26955,-0.570528 4.359262,1.639512 4.376953,3.820312 0.107273,1.255308 -0.737809,2.248135 -1.471353,3.157711 -1.130643,1.498862 -2.261285,2.997724 -3.391928,4.496586 1.468716,2.486259 3.146708,4.868605 4.386186,7.477721 0.245579,0.588009 -0.127586,1.275224 0.0767,1.817201 0.487539,0.754996 0.709107,1.647203 0.794922,2.533203 0.108948,-0.946165 0.103719,-1.985491 0.828125,-2.705078 -0.293574,-1.501921 0.3634,-3.039745 1.33152,-4.186843 1.007983,-1.646052 2.015966,-3.292105 3.023949,-4.938157 -1.584261,-2.166777 -3.363727,-4.213911 -4.731793,-6.524233 -0.900798,-2.512921 1.584513,-5.308446 4.155621,-5.048032 -1.534679,-1.189058 -3.173025,-2.249178 -4.613281,-3.556641 -0.108073,0.08854 -0.216146,0.177083 -0.324219,0.265625 z M 49.417969,35.498047 c -0.491113,0.350814 0.05374,0.798275 0.16692,0.193198 0.02395,-0.109016 6.03e-4,-0.362101 -0.16692,-0.193198 z m 36.664062,0.119141 c -0.471701,0.551406 0.647576,0.401138 0.0293,-0.01563 z m 35.699219,0.5625 c -0.83321,0.42414 0.47591,0.570116 0.18144,0.04319 -0.047,-0.04562 -0.11903,-0.0581 -0.18144,-0.04319 z m -108.332031,0.07617 c -0.166031,0.575318 0.852729,0.311297 0.248312,-0.01879 -0.08427,-0.0345 -0.166555,0.0019 -0.248312,0.01879 z m 85.136719,4.150391 c 0.490814,-0.252542 0.783399,-1.104675 0.10714,-0.136643 l -0.0617,0.07869 z m 3.572262,2.033203 c 1.42791,1.442089 0.92434,3.904951 -0.51778,5.140737 -1.00189,1.003954 -2.551097,1.341431 -3.883768,0.877187 -1.93516,-0.244256 -3.87032,-0.488512 -5.80548,-0.732768 -1.425042,2.516379 -2.645363,5.168675 -4.296609,7.544007 -0.382773,0.461113 -1.067995,0.537588 -1.481008,0.890822 -0.408983,0.851781 -1.112708,1.519973 -1.874727,2.059312 0.906906,-0.344477 1.815694,-0.95581 2.826172,-0.664062 1.096929,-1.002135 2.736598,-1.209687 4.171875,-0.941407 1.959635,0.04948 3.919271,0.09896 5.878906,0.148438 1.097744,-2.462128 1.959497,-5.053571 3.317309,-7.384504 1.74742,-1.967555 5.46641,-1.290612 6.4073,1.165754 0.26336,-1.90553 0.36656,-3.916483 0.7832,-5.835938 -1.86165,-0.667198 -3.71884,-1.648701 -5.52539,-2.267578 z m -69.109372,0.04883 c -1.741792,0.726626 -3.436204,1.579907 -5.232422,2.171875 0.34238,1.97592 0.444511,3.985481 0.792969,5.960938 0.484112,-1.967393 2.857728,-2.777925 4.652344,-2.216797 1.363824,0.339698 2.40129,1.473372 2.734494,2.820609 0.729673,1.857066 1.519661,3.681622 2.300662,5.536813 2.894345,-0.02332 5.807751,-0.299646 8.691088,-0.04419 0.606124,0.102693 1.031498,0.695147 1.558912,0.835205 0.915283,-0.04554 1.816655,0.209212 2.644531,0.582032 -0.749401,-0.59586 -1.737193,-1.065574 -1.949218,-2.091797 -1.432525,-0.459354 -2.432092,-1.78604 -2.929688,-3.175781 -0.931641,-1.715495 -1.863281,-3.43099 -2.794922,-5.146485 -2.701951,0.286718 -5.398303,0.845143 -8.11923,0.812871 -2.580017,-0.542473 -3.65763,-4.019329 -2.206942,-6.09998 l -0.09337,0.03581 z m 48.402344,1.019531 c -0.738889,0.412988 -0.08339,1.258 0.172316,0.223069 0.160291,-0.137837 -0.0206,-0.280813 -0.172316,-0.223069 z m -53.654297,10.71875 c -0.364893,0.763993 1.20336,0.597463 0.721229,-0.04802 -0.163014,-0.09186 -0.499794,0.05245 -0.721229,0.04802 z m 39.880859,9.800782 c -0.804224,0.96863 -1.983733,1.618281 -3.232422,1.779297 0.498848,1.207135 0.474692,2.610413 -0.02734,3.8125 1.29595,0.173058 2.506846,0.887246 3.302734,1.921875 0.794631,-1.028166 2.005704,-1.725882 3.294922,-1.892578 -0.485218,-1.205942 -0.466029,-2.604385 0.03906,-3.800782 -1.294397,-0.175484 -2.501479,-0.893547 -3.292969,-1.929687 l -0.0609,0.07932 z M 30.978516,67.48047 c -0.461011,0.329176 0.334641,0.299367 0,0 z m 73.373044,0.04492 c -0.32529,0.805454 0.59961,0.117193 0,0 z m -53.775388,9.998047 c -0.702399,0.387348 -1.48468,0.50538 -2.273438,0.40039 -1.204122,1.156639 -2.988787,1.112505 -4.528782,0.919731 -1.827645,-0.04551 -3.655291,-0.09102 -5.482936,-0.136528 -1.105778,2.478931 -1.96324,5.093644 -3.350705,7.431203 -1.762033,1.981698 -5.316956,1.123397 -6.387577,-1.130422 -0.263067,1.916802 -0.359465,3.85898 -0.767578,5.753907 1.890544,0.680067 3.676991,1.615845 5.566406,2.298828 -1.473016,-1.400573 -0.987543,-3.883762 0.432698,-5.132176 0.997011,-1.027305 2.569381,-1.39294 3.916134,-0.917117 1.939712,0.243644 3.879425,0.487289 5.819137,0.730934 1.432758,-2.523411 2.654943,-5.23342 4.353797,-7.611795 0.357921,-0.462262 1.079215,-0.460857 1.427453,-0.837424 0.407815,-0.813345 1.068809,-1.470915 1.800781,-1.998047 -0.17513,0.07617 -0.35026,0.152344 -0.52539,0.228516 z m 33.878906,-0.09375 c 0.666823,0.608448 1.589632,1.09067 1.808594,2.033203 1.891788,0.514637 2.596322,2.531204 3.410973,4.093589 0.75922,1.396332 1.517624,2.793109 2.276527,4.189614 2.702797,-0.285627 5.399389,-0.848748 8.121148,-0.814662 2.58067,0.543771 3.64314,4.020282 2.20307,6.101771 1.79374,-0.733038 3.52398,-1.626066 5.37305,-2.21875 -0.34061,-1.999507 -0.4442,-3.990862 -0.79102,-5.96875 -0.46997,1.953158 -2.82477,2.77579 -4.60453,2.208626 -1.37831,-0.330427 -2.498014,-1.465637 -2.792309,-2.853187 -0.729161,-1.846365 -1.522358,-3.665765 -2.290659,-5.496064 -2.890472,0.02655 -5.796546,0.293147 -8.678118,0.05238 -0.591279,-0.103574 -1.011248,-0.647702 -1.519054,-0.839424 -0.886937,0.06607 -1.767603,-0.171474 -2.572359,-0.52936 z M 67.597656,87.71875 c -0.05429,0.694735 -0.205743,1.394036 -0.75,1.875 0.493141,1.943852 -0.944991,3.573842 -1.875441,5.120342 -0.820166,1.334886 -1.640331,2.669772 -2.460496,4.004658 1.600258,2.19869 3.439535,4.25297 4.768019,6.63063 0.842719,2.52545 -1.751776,5.14068 -4.150832,4.97093 1.522544,1.17722 3.148793,2.22495 4.576172,3.52149 1.535973,-1.28256 3.222546,-2.37194 4.75586,-3.65821 -1.976328,0.56322 -3.880252,-1.14552 -4.23362,-3.02134 -0.353668,-1.34819 0.107325,-2.83261 1.150627,-3.75035 1.206875,-1.55592 2.38518,-3.13216 3.57518,-4.700962 -1.470452,-2.481873 -3.137028,-4.86576 -4.385035,-7.467746 -0.293011,-0.706246 0.288198,-1.530033 -0.263693,-2.129835 -0.366438,-0.677607 -0.531532,-1.443773 -0.605178,-2.205154 -0.03385,0.270182 -0.06771,0.540365 -0.101563,0.810547 z m -13.671875,3.175781 c -0.491865,0.86929 0.943819,0.478547 0.102513,0.0044 -0.03,-0.017 -0.07016,-0.008 -0.102513,-0.0044 z m -17.662109,4.382813 c -0.669716,0.743264 0.862404,0.229416 0.616829,-0.199248 -0.167907,0.0011 -0.424623,0.145235 -0.616829,0.199248 z m -22.642578,3.371094 c -0.845316,0.321389 0.301178,0.985199 0.154465,0.141942 -0.01213,-0.06752 -0.07469,-0.160939 -0.154465,-0.141942 z m 108.089846,0.103515 c -0.36386,0.352342 0.71842,0.345305 0.36133,-0.0098 -0.11412,-0.07569 -0.24797,-0.04197 -0.36133,0.0098 z m -35.806643,0.673828 c -0.569286,0.792279 0.848226,-0.322318 0.0052,-0.0022 z m -36.673828,-0.01172 c -0.224523,0.409947 0.828404,-0.05488 0.09961,-0.0332 l -0.09487,0.03162 z m 26.36914,9.033209 c 0.516076,1.08308 0.372939,-0.63749 0.02868,-0.0362 z M 58.169922,124.6582 c -0.111423,0.59911 0.947732,1.15139 0.433011,0.36489 -0.130672,-0.0763 -0.286857,-0.65412 -0.433011,-0.36489 z m 9.464844,5.17188 c -0.539362,0.38148 0.37462,1.13341 0.318359,0.30859 -0.08655,-0.13567 -0.141185,-0.28608 -0.318359,-0.30859 z" />
  </g>
</svg>
