/* XPM */
static char * bottomzoom_xpm[] = {
"12 12 2 1",
" 	c #000000",
".	c #FEB500",
"            ",
" .......... ",
" .......... ",
" .......... ",
" .......... ",
" .......... ",
"            ",
"            ",
"            ",
"            ",
"            ",
"            "};
