<?xml version="1.0" encoding="UTF-8" standalone="no"?>
<!-- Created with Inkscape (http://www.inkscape.org/) -->

<svg
   width="512"
   height="512"
   viewBox="0 0 135.46666 135.46667"
   version="1.1"
   id="svg5"
   inkscape:version="1.4.2 (ebf0e940d0, 2025-05-08)"
   sodipodi:docname="approved.svg"
   xmlns:inkscape="http://www.inkscape.org/namespaces/inkscape"
   xmlns:sodipodi="http://sodipodi.sourceforge.net/DTD/sodipodi-0.dtd"
   xmlns:xlink="http://www.w3.org/1999/xlink"
   xmlns="http://www.w3.org/2000/svg"
   xmlns:svg="http://www.w3.org/2000/svg">
  <sodipodi:namedview
     id="namedview7"
     pagecolor="#242424"
     bordercolor="#666666"
     borderopacity="1"
     inkscape:showpageshadow="0"
     inkscape:pageopacity="0"
     inkscape:pagecheckerboard="1"
     inkscape:deskcolor="#000000"
     inkscape:document-units="px"
     showgrid="false"
     inkscape:zoom="2.6074563"
     inkscape:cx="288.59545"
     inkscape:cy="144.01009"
     inkscape:window-width="3256"
     inkscape:window-height="1080"
     inkscape:window-x="1864"
     inkscape:window-y="0"
     inkscape:window-maximized="0"
     inkscape:current-layer="layer1" />
  <defs
     id="defs2">
    <linearGradient
       id="linearGradient120"
       inkscape:collect="always">
      <stop
         style="stop-color:#0000ff;stop-opacity:0;"
         offset="0"
         id="stop121" />
      <stop
         style="stop-color:#000074;stop-opacity:1;"
         offset="0.24999997"
         id="stop122" />
      <stop
         style="stop-color:#00005c;stop-opacity:1;"
         offset="0.74666667"
         id="stop119" />
      <stop
         style="stop-color:#0000ff;stop-opacity:0;"
         offset="1"
         id="stop120" />
    </linearGradient>
    <linearGradient
       id="linearGradient117"
       inkscape:collect="always">
      <stop
         style="stop-color:#ffff00;stop-opacity:1;"
         offset="0"
         id="stop117" />
      <stop
         style="stop-color:#ffff00;stop-opacity:0;"
         offset="1"
         id="stop118" />
    </linearGradient>
    <linearGradient
       id="linearGradient115"
       inkscape:collect="always">
      <stop
         style="stop-color:#ffcc00;stop-opacity:1;"
         offset="0"
         id="stop115" />
      <stop
         style="stop-color:#ff8600;stop-opacity:1;"
         offset="1"
         id="stop116" />
    </linearGradient>
    <linearGradient
       id="linearGradient113"
       inkscape:collect="always">
      <stop
         style="stop-color:#ffffff;stop-opacity:0;"
         offset="0.92000002"
         id="stop114" />
      <stop
         style="stop-color:#ffffff;stop-opacity:1;"
         offset="1"
         id="stop113" />
    </linearGradient>
    <linearGradient
       id="linearGradient111"
       inkscape:collect="always">
      <stop
         style="stop-color:#797979;stop-opacity:1;"
         offset="0"
         id="stop112" />
      <stop
         style="stop-color:#ffffff;stop-opacity:1;"
         offset="1"
         id="stop111" />
    </linearGradient>
    <linearGradient
       id="linearGradient108"
       inkscape:collect="always">
      <stop
         style="stop-color:#ffffff;stop-opacity:0;"
         offset="0"
         id="stop110" />
      <stop
         style="stop-color:#ffffff;stop-opacity:1;"
         offset="1"
         id="stop109" />
    </linearGradient>
    <linearGradient
       id="linearGradient107"
       inkscape:collect="always">
      <stop
         style="stop-color:#ff6c00;stop-opacity:0;"
         offset="0"
         id="stop108" />
      <stop
         style="stop-color:#ff6c00;stop-opacity:1;"
         offset="1"
         id="stop107" />
    </linearGradient>
    <linearGradient
       id="linearGradient59"
       inkscape:collect="always">
      <stop
         style="stop-color:#ffffff;stop-opacity:1;"
         offset="0"
         id="stop59" />
      <stop
         style="stop-color:#ffffff;stop-opacity:0;"
         offset="1"
         id="stop60" />
    </linearGradient>
    <linearGradient
       id="linearGradient21"
       inkscape:collect="always">
      <stop
         style="stop-color:#ffffff;stop-opacity:1;"
         offset="0"
         id="stop21" />
      <stop
         style="stop-color:#000000;stop-opacity:1;"
         offset="1"
         id="stop22" />
    </linearGradient>
    <linearGradient
       id="linearGradient5"
       inkscape:collect="always">
      <stop
         style="stop-color:#5252ff;stop-opacity:1;"
         offset="0"
         id="stop5" />
      <stop
         style="stop-color:#00003d;stop-opacity:1;"
         offset="1"
         id="stop6" />
    </linearGradient>
    <linearGradient
       id="linearGradient3"
       inkscape:collect="always">
      <stop
         style="stop-color:#00008f;stop-opacity:1;"
         offset="0"
         id="stop3" />
      <stop
         style="stop-color:#0000ff;stop-opacity:1;"
         offset="1"
         id="stop4" />
    </linearGradient>
    <clipPath
       clipPathUnits="userSpaceOnUse"
       id="clipPath3">
      <circle
         style="fill:#0000ff;stroke-width:1.00012;stroke-linecap:round;stroke-linejoin:round;stroke-miterlimit:12;paint-order:markers stroke fill"
         id="circle3"
         cx="-81.796608"
         cy="41.761536"
         r="40.18079" />
    </clipPath>
    <linearGradient
       inkscape:collect="always"
       xlink:href="#linearGradient3"
       id="linearGradient4"
       x1="65.437286"
       y1="67.73333"
       x2="65.437286"
       y2="154.19379"
       gradientUnits="userSpaceOnUse"
       gradientTransform="matrix(0.92117205,0,0,0.92117205,7.9830864,-12.025223)" />
    <linearGradient
       inkscape:collect="always"
       xlink:href="#linearGradient5"
       id="linearGradient6"
       x1="182.78796"
       y1="35.953795"
       x2="199.80636"
       y2="35.953795"
       gradientUnits="userSpaceOnUse"
       gradientTransform="translate(-126.43389,3.652989)" />
    <clipPath
       clipPathUnits="userSpaceOnUse"
       id="clipPath20">
      <path
         style="baseline-shift:baseline;display:inline;overflow:visible;vector-effect:none;stroke-width:0.999998;stroke-linecap:round;stroke-linejoin:round;stroke-miterlimit:12;paint-order:markers stroke fill;enable-background:accumulate;stop-color:#000000"
         d="m 144.79434,59.697177 c 0,0 -10.7135,-38.829213 -8.09783,-39.364457 2.61567,-0.535244 5.32393,-2.932998 8.09783,-2.932998 2.7739,0 5.48216,2.397754 8.09783,2.932998 2.61567,0.535244 -8.09783,39.364457 -8.09783,39.364457 z"
         id="path21" />
    </clipPath>
    <linearGradient
       inkscape:collect="always"
       xlink:href="#linearGradient21"
       id="linearGradient22"
       x1="136.6965"
       y1="20.33272"
       x2="153.30353"
       y2="21.781801"
       gradientUnits="userSpaceOnUse" />
    <filter
       inkscape:collect="always"
       style="color-interpolation-filters:sRGB"
       id="filter22"
       x="-0.13801397"
       y="-0.057440933"
       width="1.2760279"
       height="1.1148819">
      <feGaussianBlur
         inkscape:collect="always"
         stdDeviation="1.0362813"
         id="feGaussianBlur22" />
    </filter>
    <linearGradient
       inkscape:collect="always"
       xlink:href="#linearGradient5"
       id="linearGradient24"
       gradientUnits="userSpaceOnUse"
       gradientTransform="translate(-126.43389,3.652989)"
       x1="182.78796"
       y1="35.953795"
       x2="199.80636"
       y2="35.953795" />
    <linearGradient
       inkscape:collect="always"
       xlink:href="#linearGradient21"
       id="linearGradient25"
       gradientUnits="userSpaceOnUse"
       x1="136.6965"
       y1="20.33272"
       x2="153.30353"
       y2="21.781801" />
    <linearGradient
       inkscape:collect="always"
       xlink:href="#linearGradient5"
       id="linearGradient26"
       gradientUnits="userSpaceOnUse"
       gradientTransform="translate(-126.43389,3.652989)"
       x1="182.78796"
       y1="35.953795"
       x2="199.80636"
       y2="35.953795" />
    <linearGradient
       inkscape:collect="always"
       xlink:href="#linearGradient21"
       id="linearGradient27"
       gradientUnits="userSpaceOnUse"
       x1="136.6965"
       y1="20.33272"
       x2="153.30353"
       y2="21.781801" />
    <linearGradient
       inkscape:collect="always"
       xlink:href="#linearGradient5"
       id="linearGradient28"
       gradientUnits="userSpaceOnUse"
       gradientTransform="translate(-126.43389,3.652989)"
       x1="182.78796"
       y1="35.953795"
       x2="199.80636"
       y2="35.953795" />
    <linearGradient
       inkscape:collect="always"
       xlink:href="#linearGradient21"
       id="linearGradient29"
       gradientUnits="userSpaceOnUse"
       x1="136.6965"
       y1="20.33272"
       x2="153.30353"
       y2="21.781801" />
    <linearGradient
       inkscape:collect="always"
       xlink:href="#linearGradient5"
       id="linearGradient30"
       gradientUnits="userSpaceOnUse"
       gradientTransform="translate(-126.43389,3.652989)"
       x1="182.78796"
       y1="35.953795"
       x2="199.80636"
       y2="35.953795" />
    <linearGradient
       inkscape:collect="always"
       xlink:href="#linearGradient21"
       id="linearGradient31"
       gradientUnits="userSpaceOnUse"
       x1="136.6965"
       y1="20.33272"
       x2="153.30353"
       y2="21.781801" />
    <linearGradient
       inkscape:collect="always"
       xlink:href="#linearGradient5"
       id="linearGradient32"
       gradientUnits="userSpaceOnUse"
       gradientTransform="translate(-126.43389,3.652989)"
       x1="182.78796"
       y1="35.953795"
       x2="199.80636"
       y2="35.953795" />
    <linearGradient
       inkscape:collect="always"
       xlink:href="#linearGradient21"
       id="linearGradient33"
       gradientUnits="userSpaceOnUse"
       x1="136.6965"
       y1="20.33272"
       x2="153.30353"
       y2="21.781801" />
    <linearGradient
       inkscape:collect="always"
       xlink:href="#linearGradient5"
       id="linearGradient34"
       gradientUnits="userSpaceOnUse"
       gradientTransform="translate(-126.43389,3.652989)"
       x1="182.78796"
       y1="35.953795"
       x2="199.80636"
       y2="35.953795" />
    <linearGradient
       inkscape:collect="always"
       xlink:href="#linearGradient21"
       id="linearGradient35"
       gradientUnits="userSpaceOnUse"
       x1="136.6965"
       y1="20.33272"
       x2="153.30353"
       y2="21.781801" />
    <linearGradient
       inkscape:collect="always"
       xlink:href="#linearGradient5"
       id="linearGradient36"
       gradientUnits="userSpaceOnUse"
       gradientTransform="translate(-126.43389,3.652989)"
       x1="182.78796"
       y1="35.953795"
       x2="199.80636"
       y2="35.953795" />
    <linearGradient
       inkscape:collect="always"
       xlink:href="#linearGradient21"
       id="linearGradient37"
       gradientUnits="userSpaceOnUse"
       x1="136.6965"
       y1="20.33272"
       x2="153.30353"
       y2="21.781801" />
    <linearGradient
       inkscape:collect="always"
       xlink:href="#linearGradient5"
       id="linearGradient40"
       gradientUnits="userSpaceOnUse"
       gradientTransform="translate(-126.43389,3.652989)"
       x1="182.78796"
       y1="35.953795"
       x2="199.80636"
       y2="35.953795" />
    <linearGradient
       inkscape:collect="always"
       xlink:href="#linearGradient21"
       id="linearGradient41"
       gradientUnits="userSpaceOnUse"
       x1="136.6965"
       y1="20.33272"
       x2="153.30353"
       y2="21.781801" />
    <linearGradient
       inkscape:collect="always"
       xlink:href="#linearGradient5"
       id="linearGradient42"
       gradientUnits="userSpaceOnUse"
       gradientTransform="translate(-126.43389,3.652989)"
       x1="182.78796"
       y1="35.953795"
       x2="199.80636"
       y2="35.953795" />
    <linearGradient
       inkscape:collect="always"
       xlink:href="#linearGradient21"
       id="linearGradient43"
       gradientUnits="userSpaceOnUse"
       x1="136.6965"
       y1="20.33272"
       x2="153.30353"
       y2="21.781801" />
    <linearGradient
       inkscape:collect="always"
       xlink:href="#linearGradient5"
       id="linearGradient44"
       gradientUnits="userSpaceOnUse"
       gradientTransform="translate(-126.43389,3.652989)"
       x1="182.78796"
       y1="35.953795"
       x2="199.80636"
       y2="35.953795" />
    <linearGradient
       inkscape:collect="always"
       xlink:href="#linearGradient21"
       id="linearGradient45"
       gradientUnits="userSpaceOnUse"
       x1="136.6965"
       y1="20.33272"
       x2="153.30353"
       y2="21.781801" />
    <linearGradient
       inkscape:collect="always"
       xlink:href="#linearGradient5"
       id="linearGradient46"
       gradientUnits="userSpaceOnUse"
       gradientTransform="translate(-126.43389,3.652989)"
       x1="182.78796"
       y1="35.953795"
       x2="199.80636"
       y2="35.953795" />
    <linearGradient
       inkscape:collect="always"
       xlink:href="#linearGradient21"
       id="linearGradient47"
       gradientUnits="userSpaceOnUse"
       x1="136.6965"
       y1="20.33272"
       x2="153.30353"
       y2="21.781801" />
    <linearGradient
       inkscape:collect="always"
       xlink:href="#linearGradient5"
       id="linearGradient48"
       gradientUnits="userSpaceOnUse"
       gradientTransform="translate(-126.43389,3.652989)"
       x1="182.78796"
       y1="35.953795"
       x2="199.80636"
       y2="35.953795" />
    <linearGradient
       inkscape:collect="always"
       xlink:href="#linearGradient21"
       id="linearGradient49"
       gradientUnits="userSpaceOnUse"
       x1="136.6965"
       y1="20.33272"
       x2="153.30353"
       y2="21.781801" />
    <linearGradient
       inkscape:collect="always"
       xlink:href="#linearGradient5"
       id="linearGradient50"
       gradientUnits="userSpaceOnUse"
       gradientTransform="translate(-126.43389,3.652989)"
       x1="182.78796"
       y1="35.953795"
       x2="199.80636"
       y2="35.953795" />
    <linearGradient
       inkscape:collect="always"
       xlink:href="#linearGradient21"
       id="linearGradient51"
       gradientUnits="userSpaceOnUse"
       x1="136.6965"
       y1="20.33272"
       x2="153.30353"
       y2="21.781801" />
    <linearGradient
       inkscape:collect="always"
       xlink:href="#linearGradient5"
       id="linearGradient52"
       gradientUnits="userSpaceOnUse"
       gradientTransform="translate(-126.43389,3.652989)"
       x1="182.78796"
       y1="35.953795"
       x2="199.80636"
       y2="35.953795" />
    <linearGradient
       inkscape:collect="always"
       xlink:href="#linearGradient21"
       id="linearGradient53"
       gradientUnits="userSpaceOnUse"
       x1="136.6965"
       y1="20.33272"
       x2="153.30353"
       y2="21.781801" />
    <linearGradient
       inkscape:collect="always"
       xlink:href="#linearGradient5"
       id="linearGradient54"
       gradientUnits="userSpaceOnUse"
       gradientTransform="translate(-126.43389,3.652989)"
       x1="182.78796"
       y1="35.953795"
       x2="199.80636"
       y2="35.953795" />
    <linearGradient
       inkscape:collect="always"
       xlink:href="#linearGradient21"
       id="linearGradient55"
       gradientUnits="userSpaceOnUse"
       x1="136.6965"
       y1="20.33272"
       x2="153.30353"
       y2="21.781801" />
    <clipPath
       clipPathUnits="userSpaceOnUse"
       id="clipPath58">
      <path
         id="path58"
         style="fill:url(#linearGradient58);stroke-width:1.00012;stroke-linecap:round;stroke-linejoin:round;stroke-miterlimit:12;paint-order:markers stroke fill"
         d="m 64.863273,59.697177 c 0,0 -10.7135,-38.829213 -8.09783,-39.364457 2.615668,-0.535244 5.32393,-2.932998 8.09783,-2.932998 2.773899,0 5.482158,2.397754 8.097829,2.932998 2.615671,0.535244 -8.097829,39.364457 -8.097829,39.364457 z"
         sodipodi:nodetypes="csssc"
         inkscape:transform-center-y="-21.148729" />
    </clipPath>
    <linearGradient
       inkscape:collect="always"
       xlink:href="#linearGradient5"
       id="linearGradient58"
       gradientUnits="userSpaceOnUse"
       gradientTransform="translate(-126.43389,3.6529891)"
       x1="182.78796"
       y1="35.953795"
       x2="199.80636"
       y2="35.953795" />
    <filter
       inkscape:collect="always"
       style="color-interpolation-filters:sRGB"
       id="filter58"
       x="-0.62196368"
       y="-0.13648777"
       width="2.2439274"
       height="1.2729755">
      <feGaussianBlur
         inkscape:collect="always"
         stdDeviation="2.156317"
         id="feGaussianBlur58" />
    </filter>
    <linearGradient
       inkscape:collect="always"
       xlink:href="#linearGradient59"
       id="linearGradient60"
       x1="56.542591"
       y1="25.399704"
       x2="76.410347"
       y2="44.385071"
       gradientUnits="userSpaceOnUse" />
    <linearGradient
       inkscape:collect="always"
       xlink:href="#linearGradient59"
       id="linearGradient61"
       gradientUnits="userSpaceOnUse"
       x1="56.542591"
       y1="25.399704"
       x2="76.410347"
       y2="44.385071" />
    <linearGradient
       inkscape:collect="always"
       xlink:href="#linearGradient59"
       id="linearGradient62"
       gradientUnits="userSpaceOnUse"
       x1="56.542591"
       y1="25.399704"
       x2="76.410347"
       y2="44.385071" />
    <linearGradient
       inkscape:collect="always"
       xlink:href="#linearGradient59"
       id="linearGradient63"
       gradientUnits="userSpaceOnUse"
       x1="56.542591"
       y1="25.399704"
       x2="76.410347"
       y2="44.385071" />
    <linearGradient
       inkscape:collect="always"
       xlink:href="#linearGradient59"
       id="linearGradient64"
       gradientUnits="userSpaceOnUse"
       x1="56.542591"
       y1="25.399704"
       x2="76.410347"
       y2="44.385071" />
    <linearGradient
       inkscape:collect="always"
       xlink:href="#linearGradient59"
       id="linearGradient65"
       gradientUnits="userSpaceOnUse"
       x1="56.542591"
       y1="25.399704"
       x2="76.410347"
       y2="44.385071" />
    <linearGradient
       inkscape:collect="always"
       xlink:href="#linearGradient59"
       id="linearGradient66"
       gradientUnits="userSpaceOnUse"
       x1="56.542591"
       y1="25.399704"
       x2="76.410347"
       y2="44.385071" />
    <linearGradient
       inkscape:collect="always"
       xlink:href="#linearGradient59"
       id="linearGradient67"
       gradientUnits="userSpaceOnUse"
       x1="56.542591"
       y1="25.399704"
       x2="76.410347"
       y2="44.385071" />
    <linearGradient
       inkscape:collect="always"
       xlink:href="#linearGradient59"
       id="linearGradient68"
       gradientUnits="userSpaceOnUse"
       x1="56.542591"
       y1="25.399704"
       x2="76.410347"
       y2="44.385071" />
    <linearGradient
       inkscape:collect="always"
       xlink:href="#linearGradient59"
       id="linearGradient69"
       gradientUnits="userSpaceOnUse"
       x1="56.542591"
       y1="25.399704"
       x2="76.410347"
       y2="44.385071" />
    <linearGradient
       inkscape:collect="always"
       xlink:href="#linearGradient59"
       id="linearGradient70"
       gradientUnits="userSpaceOnUse"
       x1="56.542591"
       y1="25.399704"
       x2="76.410347"
       y2="44.385071" />
    <linearGradient
       inkscape:collect="always"
       xlink:href="#linearGradient59"
       id="linearGradient71"
       gradientUnits="userSpaceOnUse"
       x1="56.542591"
       y1="25.399704"
       x2="76.410347"
       y2="44.385071" />
    <linearGradient
       inkscape:collect="always"
       xlink:href="#linearGradient59"
       id="linearGradient72"
       gradientUnits="userSpaceOnUse"
       x1="56.542591"
       y1="25.399704"
       x2="76.410347"
       y2="44.385071" />
    <linearGradient
       inkscape:collect="always"
       xlink:href="#linearGradient59"
       id="linearGradient73"
       gradientUnits="userSpaceOnUse"
       x1="56.542591"
       y1="25.399704"
       x2="76.410347"
       y2="44.385071" />
    <linearGradient
       inkscape:collect="always"
       xlink:href="#linearGradient59"
       id="linearGradient74"
       gradientUnits="userSpaceOnUse"
       x1="56.542591"
       y1="25.399704"
       x2="76.410347"
       y2="44.385071" />
    <linearGradient
       inkscape:collect="always"
       xlink:href="#linearGradient59"
       id="linearGradient75"
       gradientUnits="userSpaceOnUse"
       x1="56.542591"
       y1="25.399704"
       x2="76.410347"
       y2="44.385071" />
    <clipPath
       clipPathUnits="userSpaceOnUse"
       id="clipPath102">
      <path
         id="path103"
         style="display:inline;fill:#ffcc00;stroke-width:1.00012;stroke-linecap:round;stroke-linejoin:round;stroke-miterlimit:12;paint-order:markers stroke fill"
         inkscape:transform-center-y="-4.446378"
         d="M 374.25047,0.89625055 384.9244,32.767899 418.53458,33.070543 391.52126,53.070947 401.61956,85.129639 374.25047,65.61892 346.88139,85.129639 356.97967,53.070947 329.96637,33.07054 363.57652,32.767899 Z" />
    </clipPath>
    <filter
       inkscape:collect="always"
       style="color-interpolation-filters:sRGB"
       id="filter103"
       x="-0.0086712633"
       y="-0.0091174058"
       width="1.0173425"
       height="1.0182348">
      <feGaussianBlur
         inkscape:collect="always"
         stdDeviation="0.32058563"
         id="feGaussianBlur103" />
    </filter>
    <clipPath
       clipPathUnits="userSpaceOnUse"
       id="clipPath107">
      <path
         id="path107"
         style="display:inline;fill:#ff0000;stroke-width:1.00012;stroke-linecap:round;stroke-linejoin:round;stroke-miterlimit:12;paint-order:markers stroke fill"
         inkscape:transform-center-y="-4.446378"
         d="m 281.40414,-6.27889 10.67395,31.871649 33.61015,0.302643 -27.01329,20.000405 10.09827,32.058692 L 281.40414,58.44378 254.03505,77.954499 264.13334,45.895807 237.12003,25.8954 270.73021,25.592759 Z" />
    </clipPath>
    <filter
       inkscape:collect="always"
       style="color-interpolation-filters:sRGB"
       id="filter107"
       x="-0.056680993"
       y="-0.059549812"
       width="1.113362"
       height="1.1190996">
      <feGaussianBlur
         inkscape:collect="always"
         stdDeviation="0.82827622"
         id="feGaussianBlur107" />
    </filter>
    <radialGradient
       inkscape:collect="always"
       xlink:href="#linearGradient107"
       id="radialGradient108"
       cx="281.40347"
       cy="42.018322"
       fx="281.40347"
       fy="42.018322"
       r="19.523396"
       gradientTransform="matrix(1,0,0,0.95673005,0,1.8181308)"
       gradientUnits="userSpaceOnUse" />
    <radialGradient
       inkscape:collect="always"
       xlink:href="#linearGradient108"
       id="radialGradient110"
       cx="374.25047"
       cy="43.012945"
       fx="374.25047"
       fy="43.012945"
       r="44.284105"
       gradientTransform="matrix(1,0,0,0.95105669,0,2.105196)"
       gradientUnits="userSpaceOnUse" />
    <radialGradient
       inkscape:collect="always"
       xlink:href="#linearGradient111"
       id="radialGradient112"
       cx="183.01105"
       cy="114.85982"
       fx="183.01105"
       fy="114.85982"
       r="32.477264"
       gradientUnits="userSpaceOnUse"
       gradientTransform="translate(-118.14777,-55.162639)" />
    <radialGradient
       inkscape:collect="always"
       xlink:href="#linearGradient113"
       id="radialGradient114"
       cx="64.863274"
       cy="59.697178"
       fx="64.863274"
       fy="59.697178"
       r="25.478915"
       gradientUnits="userSpaceOnUse"
       gradientTransform="matrix(0.93769359,0,0,0.93769366,4.0413976,3.7195125)" />
    <linearGradient
       inkscape:collect="always"
       xlink:href="#linearGradient115"
       id="linearGradient116"
       x1="65.437286"
       y1="160.1133"
       x2="65.437286"
       y2="99.48333"
       gradientUnits="userSpaceOnUse"
       gradientTransform="matrix(0.92117205,0,0,0.92117205,7.9830864,-12.025223)" />
    <filter
       inkscape:collect="always"
       style="color-interpolation-filters:sRGB"
       id="filter116"
       x="-0.096300352"
       y="-0.053905424"
       width="1.1926007"
       height="1.1078108">
      <feGaussianBlur
         inkscape:collect="always"
         stdDeviation="1.2463874"
         id="feGaussianBlur116" />
    </filter>
    <linearGradient
       inkscape:collect="always"
       xlink:href="#linearGradient117"
       id="linearGradient118"
       x1="65.4375"
       y1="143.33398"
       x2="65.4375"
       y2="87.841797"
       gradientUnits="userSpaceOnUse" />
    <linearGradient
       inkscape:collect="always"
       xlink:href="#linearGradient120"
       id="linearGradient119"
       gradientUnits="userSpaceOnUse"
       gradientTransform="matrix(0.92117205,0,0,0.92117205,7.983088,-12.025226)"
       x1="95.985443"
       y1="110.96356"
       x2="34.889118"
       y2="110.96356" />
    <clipPath
       clipPathUnits="userSpaceOnUse"
       id="clipPath229">
      <path
         id="path229"
         style="fill:#00007c;fill-opacity:1;stroke-width:1.00012;stroke-linecap:round;stroke-linejoin:round;stroke-miterlimit:12;paint-order:markers stroke fill"
         d="m -81.796728,3.9126666 c -2.683434,0 -5.305275,2.2441245 -7.841455,2.8750514 -2.584582,0.3876777 -5.866032,-0.6824699 -8.345223,0.3444447 -2.479184,1.0269157 -4.042764,4.1035383 -6.144474,5.6569793 -2.23949,1.347207 -5.68032,1.614862 -7.57779,3.512332 -1.89748,1.89747 -2.16457,5.337751 -3.51178,7.577232 -1.55344,2.101708 -4.63006,3.665847 -5.65698,6.145038 -1.02691,2.479186 0.0427,5.760084 -0.345,8.344661 -0.63093,2.536179 -2.8745,5.158023 -2.8745,7.84146 0,2.683434 2.24357,5.305838 2.8745,7.842017 0.38768,2.584577 -0.68191,5.865475 0.345,8.344661 1.02691,2.479174 4.10352,4.042793 5.65698,6.144476 1.34724,2.239482 1.61428,5.680307 3.51178,7.577794 1.89747,1.897478 5.3383,2.165111 7.57779,3.512332 2.10169,1.553446 3.6653,4.630068 6.144474,5.656979 2.479199,1.026915 5.760641,-0.04324 8.345223,0.344446 2.536171,0.630932 5.158029,2.875053 7.841455,2.875053 2.683445,0 5.305832,-2.244138 7.84202,-2.875053 2.584574,-0.387662 5.865484,0.682463 8.344661,-0.344446 2.479164,-1.026903 4.042806,-4.103518 6.144476,-5.656979 2.23948,-1.347253 5.6803,-1.614837 7.577795,-3.512332 1.897482,-1.897481 2.164543,-5.338312 3.511771,-7.577794 1.553448,-2.101689 4.630068,-3.665297 5.656979,-6.144476 1.026915,-2.479194 -0.04268,-5.760078 0.345006,-8.344661 0.630934,-2.536173 2.875051,-5.158592 2.875051,-7.842017 0,-2.683443 -2.24413,-5.305275 -2.875051,-7.84146 -0.387669,-2.584574 0.681905,-5.865478 -0.345006,-8.344661 -1.026911,-2.479182 -4.103531,-4.042782 -5.656979,-6.144476 -1.347226,-2.239482 -1.614292,-5.680315 -3.511771,-7.577794 -1.897478,-1.897479 -5.338312,-2.165108 -7.577795,-3.512332 -2.101694,-1.553447 -3.665294,-4.6300679 -6.144476,-5.6569793 -2.479178,-1.026908 -5.760087,0.043217 -8.344661,-0.3444447 -2.536188,-0.6309191 -5.158575,-2.8750514 -7.84202,-2.8750514 z" />
    </clipPath>
    <filter
       inkscape:collect="always"
       style="color-interpolation-filters:sRGB"
       id="filter229"
       x="-0.031460195"
       y="-0.033079207"
       width="1.0629204"
       height="1.0661584">
      <feGaussianBlur
         inkscape:collect="always"
         stdDeviation="1.1609891"
         id="feGaussianBlur229" />
    </filter>
  </defs>
  <g
     inkscape:label="Layer 1"
     inkscape:groupmode="layer"
     id="layer1">
    <g
       id="g90"
       transform="translate(3.0000001e-6,-64.72267)"
       style="display:none">
      <path
         id="rect76"
         style="opacity:1;fill:#c83737;stroke-width:1.00012;stroke-linecap:round;stroke-linejoin:round;stroke-miterlimit:12;paint-order:markers stroke fill"
         d="M 177.90288,63.643593 V 81.80319 l 27.36909,19.51072 -10.09828,-32.058693 z"
         sodipodi:nodetypes="ccccc" />
      <path
         id="path77"
         style="opacity:1;fill:#a02c2c;stroke-width:1.00012;stroke-linecap:round;stroke-linejoin:round;stroke-miterlimit:12;paint-order:markers stroke fill"
         d="M 177.90288,63.643593 V 81.80319 l -27.36909,19.51072 10.09828,-32.058693 z"
         sodipodi:nodetypes="ccccc" />
      <path
         id="path78"
         style="opacity:1;fill:#c83737;stroke-width:1.00012;stroke-linecap:round;stroke-linejoin:round;stroke-miterlimit:12;paint-order:markers stroke fill"
         d="M 177.90288,63.643593 167.22894,48.95217 177.90288,17.08052 188.57683,48.95217 Z"
         sodipodi:nodetypes="ccccc" />
      <path
         id="path79"
         style="opacity:1;fill:#c83737;stroke-width:1.00012;stroke-linecap:round;stroke-linejoin:round;stroke-miterlimit:12;paint-order:markers stroke fill"
         d="M 177.90288,63.643593 188.57683,48.95217 222.187,49.254813 195.17369,69.255217 Z"
         sodipodi:nodetypes="ccccc" />
      <path
         id="path80"
         style="opacity:1;fill:#c83737;stroke-width:1.00012;stroke-linecap:round;stroke-linejoin:round;stroke-miterlimit:12;paint-order:markers stroke fill"
         d="M 177.90288,63.643593 167.22893,48.95217 133.61876,49.254813 160.63207,69.255217 Z"
         sodipodi:nodetypes="ccccc" />
    </g>
    <g
       id="g91"
       style="display:none">
      <path
         id="path86"
         style="opacity:0.2;fill:#ff6600;stroke-width:1.00012;stroke-linecap:round;stroke-linejoin:round;stroke-miterlimit:12;paint-order:markers stroke fill"
         d="m 281.40414,40.284182 v 18.159597 l -27.36909,19.51072 z"
         sodipodi:nodetypes="cccc" />
      <path
         id="path87"
         style="opacity:0.2;fill:#ff6600;stroke-width:1.00012;stroke-linecap:round;stroke-linejoin:round;stroke-miterlimit:12;paint-order:markers stroke fill"
         d="M 281.40414,40.284182 308.77323,77.954499 298.67495,45.895806 Z"
         sodipodi:nodetypes="cccc" />
      <path
         id="path88"
         style="opacity:0.2;fill:#ff6600;stroke-width:1.00012;stroke-linecap:round;stroke-linejoin:round;stroke-miterlimit:12;paint-order:markers stroke fill"
         d="M 281.40414,40.284182 V -6.2788906 L 270.73019,25.592759 Z"
         sodipodi:nodetypes="cccc" />
      <path
         id="path89"
         style="opacity:0.2;fill:#ff6600;stroke-width:1.00012;stroke-linecap:round;stroke-linejoin:round;stroke-miterlimit:12;paint-order:markers stroke fill"
         d="m 281.40414,40.284182 -44.28412,-14.38878 27.01331,20.000404 z"
         sodipodi:nodetypes="cccc" />
      <path
         id="path90"
         style="opacity:0.2;fill:#ff6600;stroke-width:1.00012;stroke-linecap:round;stroke-linejoin:round;stroke-miterlimit:12;paint-order:markers stroke fill"
         d="m 281.40414,40.284182 10.67395,-14.691423 33.61017,0.302643 z"
         sodipodi:nodetypes="cccc" />
    </g>
    <g
       id="g96"
       style="display:none">
      <path
         id="path92"
         style="display:inline;opacity:1;fill:#ffff00;stroke-width:1.00012;stroke-linecap:round;stroke-linejoin:round;stroke-miterlimit:12;paint-order:markers stroke fill"
         d="m 281.40414,40.284182 v 18.159597 l 27.36909,19.51072 z"
         sodipodi:nodetypes="cccc" />
      <path
         id="path93"
         style="display:inline;opacity:1;fill:#ffff00;stroke-width:1.00012;stroke-linecap:round;stroke-linejoin:round;stroke-miterlimit:12;paint-order:markers stroke fill"
         d="M 281.40414,40.284182 254.03505,77.954499 264.13333,45.895806 Z"
         sodipodi:nodetypes="cccc" />
      <path
         id="path94"
         style="display:inline;opacity:1;fill:#ffff00;stroke-width:1.00012;stroke-linecap:round;stroke-linejoin:round;stroke-miterlimit:12;paint-order:markers stroke fill"
         d="M 281.40414,40.284182 V -6.2788906 l 10.67395,31.8716496 z"
         sodipodi:nodetypes="cccc" />
      <path
         id="path95"
         style="display:inline;opacity:1;fill:#ffff00;stroke-width:1.00012;stroke-linecap:round;stroke-linejoin:round;stroke-miterlimit:12;paint-order:markers stroke fill"
         d="m 281.40414,40.284182 44.28412,-14.38878 -27.01331,20.000404 z"
         sodipodi:nodetypes="cccc" />
      <path
         id="path96"
         style="display:inline;opacity:1;fill:#ffff00;stroke-width:1.00012;stroke-linecap:round;stroke-linejoin:round;stroke-miterlimit:12;paint-order:markers stroke fill"
         d="M 281.40414,40.284182 270.73019,25.592759 237.12002,25.895402 Z"
         sodipodi:nodetypes="cccc" />
    </g>
    <path
       id="rect1"
       style="fill:url(#linearGradient4);stroke-width:1.00012;stroke-linecap:round;stroke-linejoin:round;stroke-miterlimit:12;paint-order:markers stroke fill"
       d="M 49.871043,50.368827 H 86.653129 L 96.4022,130.01378 68.262085,100.76656 40.121971,130.01378 Z"
       sodipodi:nodetypes="cccccc" />
    <path
       id="path118"
       style="fill:url(#linearGradient119);stroke-width:1.00012;stroke-linecap:round;stroke-linejoin:round;stroke-miterlimit:12;paint-order:markers stroke fill"
       d="m 49.871047,50.368824 h 36.78208 l 9.74907,79.644956 -28.140109,-29.24722 -28.14012,29.24722 z"
       sodipodi:nodetypes="cccccc" />
    <path
       id="path115"
       style="fill:url(#linearGradient116);stroke-width:1.00012;stroke-linecap:round;stroke-linejoin:round;stroke-miterlimit:12;paint-order:markers stroke fill"
       d="M 55.365462,64.992436 H 81.15871 l 6.836485,70.474224 -19.73311,-30.25852 -19.733109,30.25852 z"
       sodipodi:nodetypes="cccccc" />
    <path
       id="path116"
       style="fill:url(#linearGradient118);stroke-width:1.0857;stroke-linecap:round;stroke-linejoin:round;stroke-miterlimit:12;paint-order:markers stroke fill;filter:url(#filter116)"
       d="m 49.90625,143.32812 c 4.139443,-6.32403 15.531037,-24.02989 15.531037,-24.02989 0,0 12.001535,18.6218 15.531463,24.03575 l -5.375,-55.492183 h -20.3125 z"
       sodipodi:nodetypes="cccccc"
       transform="matrix(0.92117205,0,0,0.92117205,7.9830864,-12.025223)" />
    <circle
       style="fill:#00007c;fill-opacity:1;stroke-width:1.00012;stroke-linecap:round;stroke-linejoin:round;stroke-miterlimit:12;paint-order:markers stroke fill"
       id="path1"
       cx="67.733322"
       cy="42.966145"
       r="37.01342" />
    <g
       id="g23"
       inkscape:transform-center-x="0.00023401785"
       inkscape:transform-center-y="-21.147808"
       style="display:inline;stroke-width:1.08557"
       transform="matrix(0.92117205,0,0,0.92117205,7.9830864,-12.025223)">
      <path
         id="circle4"
         style="fill:url(#linearGradient6);stroke-width:1.0857;stroke-linecap:round;stroke-linejoin:round;stroke-miterlimit:12;paint-order:markers stroke fill"
         d="m 64.863272,59.697178 c 0,0 -10.7135,-38.829214 -8.09783,-39.364458 2.61567,-0.535244 5.32393,-2.932998 8.09783,-2.932998 2.7739,0 5.48216,2.397754 8.09783,2.932998 2.61567,0.535244 -8.09783,39.364458 -8.09783,39.364458 z"
         sodipodi:nodetypes="csssc"
         inkscape:transform-center-y="-21.148729" />
      <path
         style="baseline-shift:baseline;display:inline;overflow:visible;vector-effect:none;fill:url(#linearGradient22);stroke-width:1.08557;stroke-linecap:round;stroke-linejoin:round;stroke-miterlimit:12;paint-order:markers stroke fill;filter:url(#filter22);enable-background:accumulate;stop-color:#000000"
         d="m 144.79492,16.900391 c -1.53103,0 -2.96567,0.64333 -4.33008,1.316406 -1.3644,0.673076 -2.67177,1.381937 -3.86914,1.626953 -0.23537,0.04816 -0.42365,0.213961 -0.52929,0.380859 -0.10565,0.166899 -0.15901,0.343632 -0.19922,0.53711 -0.0804,0.386954 -0.0964,0.857522 -0.0742,1.435547 0.0443,1.156049 0.25212,2.727046 0.57226,4.595703 0.6403,3.737314 1.73707,8.646581 2.91407,13.539062 2.354,9.784963 5.0332,19.498047 5.0332,19.498047 a 0.50011003,0.50011003 0 0 0 0.96484,0 c 0,0 2.6792,-9.713084 5.03321,-19.498047 1.177,-4.892481 2.27181,-9.801748 2.91211,-13.539062 0.32015,-1.868657 0.52799,-3.439654 0.57226,-4.595703 0.0221,-0.578025 0.008,-1.048593 -0.0723,-1.435547 -0.0402,-0.193478 -0.0955,-0.370211 -0.20118,-0.53711 -0.10564,-0.166898 -0.29392,-0.332695 -0.52929,-0.380859 -1.19737,-0.245016 -2.50473,-0.953877 -3.86914,-1.626953 -1.36441,-0.673076 -2.79709,-1.316406 -4.32813,-1.316406 z m 0,1 c 1.24287,0 2.54961,0.553279 3.88672,1.21289 1.30159,0.642088 2.62261,1.357698 4,1.664063 0.0106,0.02 0.0377,0.07752 0.0606,0.1875 0.05,0.240636 0.0732,0.658423 0.0527,1.193359 -0.041,1.069873 -0.24023,2.619946 -0.55664,4.466797 -0.63282,3.693701 -1.72597,8.592882 -2.90039,13.474609 -2.12328,8.825923 -4.1033,15.991715 -4.54297,17.595703 -0.43966,-1.603956 -2.42163,-8.769757 -4.54492,-17.595703 -1.17441,-4.881727 -2.26561,-9.780908 -2.89844,-13.474609 -0.31641,-1.846851 -0.51762,-3.396924 -0.55859,-4.466797 -0.0205,-0.534936 0.003,-0.952723 0.0527,-1.193359 0.0229,-0.109977 0.05,-0.167498 0.0606,-0.1875 1.37741,-0.306358 2.70035,-1.021968 4.00195,-1.664063 1.33712,-0.659611 2.64386,-1.21289 3.88672,-1.21289 z"
         id="path19"
         clip-path="url(#clipPath20)"
         transform="translate(-79.931068)" />
    </g>
    <g
       id="g24"
       inkscape:transform-center-x="-16.801705"
       inkscape:transform-center-y="-16.801567"
       transform="matrix(0.651367,0.651367,-0.651367,0.651367,64.368296,-38.168418)"
       style="display:inline;stroke-width:1.08557">
      <path
         id="path23"
         style="fill:url(#linearGradient24);stroke-width:1.0857;stroke-linecap:round;stroke-linejoin:round;stroke-miterlimit:12;paint-order:markers stroke fill"
         d="m 64.863272,59.697178 c 0,0 -10.7135,-38.829214 -8.09783,-39.364458 2.61567,-0.535244 5.32393,-2.932998 8.09783,-2.932998 2.7739,0 5.48216,2.397754 8.09783,2.932998 2.61567,0.535244 -8.09783,39.364458 -8.09783,39.364458 z"
         sodipodi:nodetypes="csssc"
         inkscape:transform-center-y="-21.148729" />
      <path
         style="baseline-shift:baseline;display:inline;overflow:visible;vector-effect:none;fill:url(#linearGradient25);stroke-width:1.08557;stroke-linecap:round;stroke-linejoin:round;stroke-miterlimit:12;paint-order:markers stroke fill;filter:url(#filter22);enable-background:accumulate;stop-color:#000000"
         d="m 144.79492,16.900391 c -1.53103,0 -2.96567,0.64333 -4.33008,1.316406 -1.3644,0.673076 -2.67177,1.381937 -3.86914,1.626953 -0.23537,0.04816 -0.42365,0.213961 -0.52929,0.380859 -0.10565,0.166899 -0.15901,0.343632 -0.19922,0.53711 -0.0804,0.386954 -0.0964,0.857522 -0.0742,1.435547 0.0443,1.156049 0.25212,2.727046 0.57226,4.595703 0.6403,3.737314 1.73707,8.646581 2.91407,13.539062 2.354,9.784963 5.0332,19.498047 5.0332,19.498047 a 0.50011003,0.50011003 0 0 0 0.96484,0 c 0,0 2.6792,-9.713084 5.03321,-19.498047 1.177,-4.892481 2.27181,-9.801748 2.91211,-13.539062 0.32015,-1.868657 0.52799,-3.439654 0.57226,-4.595703 0.0221,-0.578025 0.008,-1.048593 -0.0723,-1.435547 -0.0402,-0.193478 -0.0955,-0.370211 -0.20118,-0.53711 -0.10564,-0.166898 -0.29392,-0.332695 -0.52929,-0.380859 -1.19737,-0.245016 -2.50473,-0.953877 -3.86914,-1.626953 -1.36441,-0.673076 -2.79709,-1.316406 -4.32813,-1.316406 z m 0,1 c 1.24287,0 2.54961,0.553279 3.88672,1.21289 1.30159,0.642088 2.62261,1.357698 4,1.664063 0.0106,0.02 0.0377,0.07752 0.0606,0.1875 0.05,0.240636 0.0732,0.658423 0.0527,1.193359 -0.041,1.069873 -0.24023,2.619946 -0.55664,4.466797 -0.63282,3.693701 -1.72597,8.592882 -2.90039,13.474609 -2.12328,8.825923 -4.1033,15.991715 -4.54297,17.595703 -0.43966,-1.603956 -2.42163,-8.769757 -4.54492,-17.595703 -1.17441,-4.881727 -2.26561,-9.780908 -2.89844,-13.474609 -0.31641,-1.846851 -0.51762,-3.396924 -0.55859,-4.466797 -0.0205,-0.534936 0.003,-0.952723 0.0527,-1.193359 0.0229,-0.109977 0.05,-0.167498 0.0606,-0.1875 1.37741,-0.306358 2.70035,-1.021968 4.00195,-1.664063 1.33712,-0.659611 2.64386,-1.21289 3.88672,-1.21289 z"
         id="path24"
         clip-path="url(#clipPath20)"
         transform="translate(-79.931068)" />
    </g>
    <g
       id="g26"
       inkscape:transform-center-x="-21.147808"
       inkscape:transform-center-y="-0.00023407116"
       transform="matrix(0,0.92117205,-0.92117205,0,122.72469,-16.784084)"
       style="display:inline;stroke-width:1.08557">
      <path
         id="path25"
         style="fill:url(#linearGradient26);stroke-width:1.0857;stroke-linecap:round;stroke-linejoin:round;stroke-miterlimit:12;paint-order:markers stroke fill"
         d="m 64.863272,59.697178 c 0,0 -10.7135,-38.829214 -8.09783,-39.364458 2.61567,-0.535244 5.32393,-2.932998 8.09783,-2.932998 2.7739,0 5.48216,2.397754 8.09783,2.932998 2.61567,0.535244 -8.09783,39.364458 -8.09783,39.364458 z"
         sodipodi:nodetypes="csssc"
         inkscape:transform-center-y="-21.148729" />
      <path
         style="baseline-shift:baseline;display:inline;overflow:visible;vector-effect:none;fill:url(#linearGradient27);stroke-width:1.08557;stroke-linecap:round;stroke-linejoin:round;stroke-miterlimit:12;paint-order:markers stroke fill;filter:url(#filter22);enable-background:accumulate;stop-color:#000000"
         d="m 144.79492,16.900391 c -1.53103,0 -2.96567,0.64333 -4.33008,1.316406 -1.3644,0.673076 -2.67177,1.381937 -3.86914,1.626953 -0.23537,0.04816 -0.42365,0.213961 -0.52929,0.380859 -0.10565,0.166899 -0.15901,0.343632 -0.19922,0.53711 -0.0804,0.386954 -0.0964,0.857522 -0.0742,1.435547 0.0443,1.156049 0.25212,2.727046 0.57226,4.595703 0.6403,3.737314 1.73707,8.646581 2.91407,13.539062 2.354,9.784963 5.0332,19.498047 5.0332,19.498047 a 0.50011003,0.50011003 0 0 0 0.96484,0 c 0,0 2.6792,-9.713084 5.03321,-19.498047 1.177,-4.892481 2.27181,-9.801748 2.91211,-13.539062 0.32015,-1.868657 0.52799,-3.439654 0.57226,-4.595703 0.0221,-0.578025 0.008,-1.048593 -0.0723,-1.435547 -0.0402,-0.193478 -0.0955,-0.370211 -0.20118,-0.53711 -0.10564,-0.166898 -0.29392,-0.332695 -0.52929,-0.380859 -1.19737,-0.245016 -2.50473,-0.953877 -3.86914,-1.626953 -1.36441,-0.673076 -2.79709,-1.316406 -4.32813,-1.316406 z m 0,1 c 1.24287,0 2.54961,0.553279 3.88672,1.21289 1.30159,0.642088 2.62261,1.357698 4,1.664063 0.0106,0.02 0.0377,0.07752 0.0606,0.1875 0.05,0.240636 0.0732,0.658423 0.0527,1.193359 -0.041,1.069873 -0.24023,2.619946 -0.55664,4.466797 -0.63282,3.693701 -1.72597,8.592882 -2.90039,13.474609 -2.12328,8.825923 -4.1033,15.991715 -4.54297,17.595703 -0.43966,-1.603956 -2.42163,-8.769757 -4.54492,-17.595703 -1.17441,-4.881727 -2.26561,-9.780908 -2.89844,-13.474609 -0.31641,-1.846851 -0.51762,-3.396924 -0.55859,-4.466797 -0.0205,-0.534936 0.003,-0.952723 0.0527,-1.193359 0.0229,-0.109977 0.05,-0.167498 0.0606,-0.1875 1.37741,-0.306358 2.70035,-1.021968 4.00195,-1.664063 1.33712,-0.659611 2.64386,-1.21289 3.88672,-1.21289 z"
         id="path26"
         clip-path="url(#clipPath20)"
         transform="translate(-79.931068)" />
    </g>
    <g
       id="g28"
       inkscape:transform-center-x="-16.801567"
       inkscape:transform-center-y="16.801704"
       transform="matrix(-0.651367,0.651367,-0.651367,-0.651367,148.86789,39.601126)"
       style="display:inline;stroke-width:1.08557">
      <path
         id="path27"
         style="fill:url(#linearGradient28);stroke-width:1.0857;stroke-linecap:round;stroke-linejoin:round;stroke-miterlimit:12;paint-order:markers stroke fill"
         d="m 64.863272,59.697178 c 0,0 -10.7135,-38.829214 -8.09783,-39.364458 2.61567,-0.535244 5.32393,-2.932998 8.09783,-2.932998 2.7739,0 5.48216,2.397754 8.09783,2.932998 2.61567,0.535244 -8.09783,39.364458 -8.09783,39.364458 z"
         sodipodi:nodetypes="csssc"
         inkscape:transform-center-y="-21.148729" />
      <path
         style="baseline-shift:baseline;display:inline;overflow:visible;vector-effect:none;fill:url(#linearGradient29);stroke-width:1.08557;stroke-linecap:round;stroke-linejoin:round;stroke-miterlimit:12;paint-order:markers stroke fill;filter:url(#filter22);enable-background:accumulate;stop-color:#000000"
         d="m 144.79492,16.900391 c -1.53103,0 -2.96567,0.64333 -4.33008,1.316406 -1.3644,0.673076 -2.67177,1.381937 -3.86914,1.626953 -0.23537,0.04816 -0.42365,0.213961 -0.52929,0.380859 -0.10565,0.166899 -0.15901,0.343632 -0.19922,0.53711 -0.0804,0.386954 -0.0964,0.857522 -0.0742,1.435547 0.0443,1.156049 0.25212,2.727046 0.57226,4.595703 0.6403,3.737314 1.73707,8.646581 2.91407,13.539062 2.354,9.784963 5.0332,19.498047 5.0332,19.498047 a 0.50011003,0.50011003 0 0 0 0.96484,0 c 0,0 2.6792,-9.713084 5.03321,-19.498047 1.177,-4.892481 2.27181,-9.801748 2.91211,-13.539062 0.32015,-1.868657 0.52799,-3.439654 0.57226,-4.595703 0.0221,-0.578025 0.008,-1.048593 -0.0723,-1.435547 -0.0402,-0.193478 -0.0955,-0.370211 -0.20118,-0.53711 -0.10564,-0.166898 -0.29392,-0.332695 -0.52929,-0.380859 -1.19737,-0.245016 -2.50473,-0.953877 -3.86914,-1.626953 -1.36441,-0.673076 -2.79709,-1.316406 -4.32813,-1.316406 z m 0,1 c 1.24287,0 2.54961,0.553279 3.88672,1.21289 1.30159,0.642088 2.62261,1.357698 4,1.664063 0.0106,0.02 0.0377,0.07752 0.0606,0.1875 0.05,0.240636 0.0732,0.658423 0.0527,1.193359 -0.041,1.069873 -0.24023,2.619946 -0.55664,4.466797 -0.63282,3.693701 -1.72597,8.592882 -2.90039,13.474609 -2.12328,8.825923 -4.1033,15.991715 -4.54297,17.595703 -0.43966,-1.603956 -2.42163,-8.769757 -4.54492,-17.595703 -1.17441,-4.881727 -2.26561,-9.780908 -2.89844,-13.474609 -0.31641,-1.846851 -0.51762,-3.396924 -0.55859,-4.466797 -0.0205,-0.534936 0.003,-0.952723 0.0527,-1.193359 0.0229,-0.109977 0.05,-0.167498 0.0606,-0.1875 1.37741,-0.306358 2.70035,-1.021968 4.00195,-1.664063 1.33712,-0.659611 2.64386,-1.21289 3.88672,-1.21289 z"
         id="path28"
         clip-path="url(#clipPath20)"
         transform="translate(-79.931068)" />
    </g>
    <g
       id="g30"
       inkscape:transform-center-x="-0.00023407116"
       inkscape:transform-center-y="21.147807"
       transform="matrix(-0.92117205,0,0,-0.92117205,127.48355,97.957521)"
       style="display:inline;stroke-width:1.08557">
      <path
         id="path29"
         style="fill:url(#linearGradient30);stroke-width:1.0857;stroke-linecap:round;stroke-linejoin:round;stroke-miterlimit:12;paint-order:markers stroke fill"
         d="m 64.863272,59.697178 c 0,0 -10.7135,-38.829214 -8.09783,-39.364458 2.61567,-0.535244 5.32393,-2.932998 8.09783,-2.932998 2.7739,0 5.48216,2.397754 8.09783,2.932998 2.61567,0.535244 -8.09783,39.364458 -8.09783,39.364458 z"
         sodipodi:nodetypes="csssc"
         inkscape:transform-center-y="-21.148729" />
      <path
         style="baseline-shift:baseline;display:inline;overflow:visible;vector-effect:none;fill:url(#linearGradient31);stroke-width:1.08557;stroke-linecap:round;stroke-linejoin:round;stroke-miterlimit:12;paint-order:markers stroke fill;filter:url(#filter22);enable-background:accumulate;stop-color:#000000"
         d="m 144.79492,16.900391 c -1.53103,0 -2.96567,0.64333 -4.33008,1.316406 -1.3644,0.673076 -2.67177,1.381937 -3.86914,1.626953 -0.23537,0.04816 -0.42365,0.213961 -0.52929,0.380859 -0.10565,0.166899 -0.15901,0.343632 -0.19922,0.53711 -0.0804,0.386954 -0.0964,0.857522 -0.0742,1.435547 0.0443,1.156049 0.25212,2.727046 0.57226,4.595703 0.6403,3.737314 1.73707,8.646581 2.91407,13.539062 2.354,9.784963 5.0332,19.498047 5.0332,19.498047 a 0.50011003,0.50011003 0 0 0 0.96484,0 c 0,0 2.6792,-9.713084 5.03321,-19.498047 1.177,-4.892481 2.27181,-9.801748 2.91211,-13.539062 0.32015,-1.868657 0.52799,-3.439654 0.57226,-4.595703 0.0221,-0.578025 0.008,-1.048593 -0.0723,-1.435547 -0.0402,-0.193478 -0.0955,-0.370211 -0.20118,-0.53711 -0.10564,-0.166898 -0.29392,-0.332695 -0.52929,-0.380859 -1.19737,-0.245016 -2.50473,-0.953877 -3.86914,-1.626953 -1.36441,-0.673076 -2.79709,-1.316406 -4.32813,-1.316406 z m 0,1 c 1.24287,0 2.54961,0.553279 3.88672,1.21289 1.30159,0.642088 2.62261,1.357698 4,1.664063 0.0106,0.02 0.0377,0.07752 0.0606,0.1875 0.05,0.240636 0.0732,0.658423 0.0527,1.193359 -0.041,1.069873 -0.24023,2.619946 -0.55664,4.466797 -0.63282,3.693701 -1.72597,8.592882 -2.90039,13.474609 -2.12328,8.825923 -4.1033,15.991715 -4.54297,17.595703 -0.43966,-1.603956 -2.42163,-8.769757 -4.54492,-17.595703 -1.17441,-4.881727 -2.26561,-9.780908 -2.89844,-13.474609 -0.31641,-1.846851 -0.51762,-3.396924 -0.55859,-4.466797 -0.0205,-0.534936 0.003,-0.952723 0.0527,-1.193359 0.0229,-0.109977 0.05,-0.167498 0.0606,-0.1875 1.37741,-0.306358 2.70035,-1.021968 4.00195,-1.664063 1.33712,-0.659611 2.64386,-1.21289 3.88672,-1.21289 z"
         id="path30"
         clip-path="url(#clipPath20)"
         transform="translate(-79.931068)" />
    </g>
    <g
       id="g32"
       inkscape:transform-center-x="16.801704"
       inkscape:transform-center-y="16.801566"
       transform="matrix(-0.651367,-0.651367,0.651367,-0.651367,71.098343,124.10072)"
       style="display:inline;stroke-width:1.08557">
      <path
         id="path31"
         style="fill:url(#linearGradient32);stroke-width:1.0857;stroke-linecap:round;stroke-linejoin:round;stroke-miterlimit:12;paint-order:markers stroke fill"
         d="m 64.863272,59.697178 c 0,0 -10.7135,-38.829214 -8.09783,-39.364458 2.61567,-0.535244 5.32393,-2.932998 8.09783,-2.932998 2.7739,0 5.48216,2.397754 8.09783,2.932998 2.61567,0.535244 -8.09783,39.364458 -8.09783,39.364458 z"
         sodipodi:nodetypes="csssc"
         inkscape:transform-center-y="-21.148729" />
      <path
         style="baseline-shift:baseline;display:inline;overflow:visible;vector-effect:none;fill:url(#linearGradient33);stroke-width:1.08557;stroke-linecap:round;stroke-linejoin:round;stroke-miterlimit:12;paint-order:markers stroke fill;filter:url(#filter22);enable-background:accumulate;stop-color:#000000"
         d="m 144.79492,16.900391 c -1.53103,0 -2.96567,0.64333 -4.33008,1.316406 -1.3644,0.673076 -2.67177,1.381937 -3.86914,1.626953 -0.23537,0.04816 -0.42365,0.213961 -0.52929,0.380859 -0.10565,0.166899 -0.15901,0.343632 -0.19922,0.53711 -0.0804,0.386954 -0.0964,0.857522 -0.0742,1.435547 0.0443,1.156049 0.25212,2.727046 0.57226,4.595703 0.6403,3.737314 1.73707,8.646581 2.91407,13.539062 2.354,9.784963 5.0332,19.498047 5.0332,19.498047 a 0.50011003,0.50011003 0 0 0 0.96484,0 c 0,0 2.6792,-9.713084 5.03321,-19.498047 1.177,-4.892481 2.27181,-9.801748 2.91211,-13.539062 0.32015,-1.868657 0.52799,-3.439654 0.57226,-4.595703 0.0221,-0.578025 0.008,-1.048593 -0.0723,-1.435547 -0.0402,-0.193478 -0.0955,-0.370211 -0.20118,-0.53711 -0.10564,-0.166898 -0.29392,-0.332695 -0.52929,-0.380859 -1.19737,-0.245016 -2.50473,-0.953877 -3.86914,-1.626953 -1.36441,-0.673076 -2.79709,-1.316406 -4.32813,-1.316406 z m 0,1 c 1.24287,0 2.54961,0.553279 3.88672,1.21289 1.30159,0.642088 2.62261,1.357698 4,1.664063 0.0106,0.02 0.0377,0.07752 0.0606,0.1875 0.05,0.240636 0.0732,0.658423 0.0527,1.193359 -0.041,1.069873 -0.24023,2.619946 -0.55664,4.466797 -0.63282,3.693701 -1.72597,8.592882 -2.90039,13.474609 -2.12328,8.825923 -4.1033,15.991715 -4.54297,17.595703 -0.43966,-1.603956 -2.42163,-8.769757 -4.54492,-17.595703 -1.17441,-4.881727 -2.26561,-9.780908 -2.89844,-13.474609 -0.31641,-1.846851 -0.51762,-3.396924 -0.55859,-4.466797 -0.0205,-0.534936 0.003,-0.952723 0.0527,-1.193359 0.0229,-0.109977 0.05,-0.167498 0.0606,-0.1875 1.37741,-0.306358 2.70035,-1.021968 4.00195,-1.664063 1.33712,-0.659611 2.64386,-1.21289 3.88672,-1.21289 z"
         id="path32"
         clip-path="url(#clipPath20)"
         transform="translate(-79.931068)" />
    </g>
    <g
       id="g34"
       inkscape:transform-center-x="21.147806"
       inkscape:transform-center-y="0.00023407116"
       transform="matrix(0,-0.92117205,0.92117205,0,12.741949,102.71638)"
       style="display:inline;stroke-width:1.08557">
      <path
         id="path33"
         style="fill:url(#linearGradient34);stroke-width:1.0857;stroke-linecap:round;stroke-linejoin:round;stroke-miterlimit:12;paint-order:markers stroke fill"
         d="m 64.863272,59.697178 c 0,0 -10.7135,-38.829214 -8.09783,-39.364458 2.61567,-0.535244 5.32393,-2.932998 8.09783,-2.932998 2.7739,0 5.48216,2.397754 8.09783,2.932998 2.61567,0.535244 -8.09783,39.364458 -8.09783,39.364458 z"
         sodipodi:nodetypes="csssc"
         inkscape:transform-center-y="-21.148729" />
      <path
         style="baseline-shift:baseline;display:inline;overflow:visible;vector-effect:none;fill:url(#linearGradient35);stroke-width:1.08557;stroke-linecap:round;stroke-linejoin:round;stroke-miterlimit:12;paint-order:markers stroke fill;filter:url(#filter22);enable-background:accumulate;stop-color:#000000"
         d="m 144.79492,16.900391 c -1.53103,0 -2.96567,0.64333 -4.33008,1.316406 -1.3644,0.673076 -2.67177,1.381937 -3.86914,1.626953 -0.23537,0.04816 -0.42365,0.213961 -0.52929,0.380859 -0.10565,0.166899 -0.15901,0.343632 -0.19922,0.53711 -0.0804,0.386954 -0.0964,0.857522 -0.0742,1.435547 0.0443,1.156049 0.25212,2.727046 0.57226,4.595703 0.6403,3.737314 1.73707,8.646581 2.91407,13.539062 2.354,9.784963 5.0332,19.498047 5.0332,19.498047 a 0.50011003,0.50011003 0 0 0 0.96484,0 c 0,0 2.6792,-9.713084 5.03321,-19.498047 1.177,-4.892481 2.27181,-9.801748 2.91211,-13.539062 0.32015,-1.868657 0.52799,-3.439654 0.57226,-4.595703 0.0221,-0.578025 0.008,-1.048593 -0.0723,-1.435547 -0.0402,-0.193478 -0.0955,-0.370211 -0.20118,-0.53711 -0.10564,-0.166898 -0.29392,-0.332695 -0.52929,-0.380859 -1.19737,-0.245016 -2.50473,-0.953877 -3.86914,-1.626953 -1.36441,-0.673076 -2.79709,-1.316406 -4.32813,-1.316406 z m 0,1 c 1.24287,0 2.54961,0.553279 3.88672,1.21289 1.30159,0.642088 2.62261,1.357698 4,1.664063 0.0106,0.02 0.0377,0.07752 0.0606,0.1875 0.05,0.240636 0.0732,0.658423 0.0527,1.193359 -0.041,1.069873 -0.24023,2.619946 -0.55664,4.466797 -0.63282,3.693701 -1.72597,8.592882 -2.90039,13.474609 -2.12328,8.825923 -4.1033,15.991715 -4.54297,17.595703 -0.43966,-1.603956 -2.42163,-8.769757 -4.54492,-17.595703 -1.17441,-4.881727 -2.26561,-9.780908 -2.89844,-13.474609 -0.31641,-1.846851 -0.51762,-3.396924 -0.55859,-4.466797 -0.0205,-0.534936 0.003,-0.952723 0.0527,-1.193359 0.0229,-0.109977 0.05,-0.167498 0.0606,-0.1875 1.37741,-0.306358 2.70035,-1.021968 4.00195,-1.664063 1.33712,-0.659611 2.64386,-1.21289 3.88672,-1.21289 z"
         id="path34"
         clip-path="url(#clipPath20)"
         transform="translate(-79.931068)" />
    </g>
    <g
       id="g36"
       inkscape:transform-center-x="16.801566"
       inkscape:transform-center-y="-16.801703"
       transform="matrix(0.651367,-0.651367,0.651367,0.651367,-13.401247,46.331174)"
       style="display:inline;stroke-width:1.08557">
      <path
         id="path35"
         style="fill:url(#linearGradient36);stroke-width:1.0857;stroke-linecap:round;stroke-linejoin:round;stroke-miterlimit:12;paint-order:markers stroke fill"
         d="m 64.863272,59.697178 c 0,0 -10.7135,-38.829214 -8.09783,-39.364458 2.61567,-0.535244 5.32393,-2.932998 8.09783,-2.932998 2.7739,0 5.48216,2.397754 8.09783,2.932998 2.61567,0.535244 -8.09783,39.364458 -8.09783,39.364458 z"
         sodipodi:nodetypes="csssc"
         inkscape:transform-center-y="-21.148729" />
      <path
         style="baseline-shift:baseline;display:inline;overflow:visible;vector-effect:none;fill:url(#linearGradient37);stroke-width:1.08557;stroke-linecap:round;stroke-linejoin:round;stroke-miterlimit:12;paint-order:markers stroke fill;filter:url(#filter22);enable-background:accumulate;stop-color:#000000"
         d="m 144.79492,16.900391 c -1.53103,0 -2.96567,0.64333 -4.33008,1.316406 -1.3644,0.673076 -2.67177,1.381937 -3.86914,1.626953 -0.23537,0.04816 -0.42365,0.213961 -0.52929,0.380859 -0.10565,0.166899 -0.15901,0.343632 -0.19922,0.53711 -0.0804,0.386954 -0.0964,0.857522 -0.0742,1.435547 0.0443,1.156049 0.25212,2.727046 0.57226,4.595703 0.6403,3.737314 1.73707,8.646581 2.91407,13.539062 2.354,9.784963 5.0332,19.498047 5.0332,19.498047 a 0.50011003,0.50011003 0 0 0 0.96484,0 c 0,0 2.6792,-9.713084 5.03321,-19.498047 1.177,-4.892481 2.27181,-9.801748 2.91211,-13.539062 0.32015,-1.868657 0.52799,-3.439654 0.57226,-4.595703 0.0221,-0.578025 0.008,-1.048593 -0.0723,-1.435547 -0.0402,-0.193478 -0.0955,-0.370211 -0.20118,-0.53711 -0.10564,-0.166898 -0.29392,-0.332695 -0.52929,-0.380859 -1.19737,-0.245016 -2.50473,-0.953877 -3.86914,-1.626953 -1.36441,-0.673076 -2.79709,-1.316406 -4.32813,-1.316406 z m 0,1 c 1.24287,0 2.54961,0.553279 3.88672,1.21289 1.30159,0.642088 2.62261,1.357698 4,1.664063 0.0106,0.02 0.0377,0.07752 0.0606,0.1875 0.05,0.240636 0.0732,0.658423 0.0527,1.193359 -0.041,1.069873 -0.24023,2.619946 -0.55664,4.466797 -0.63282,3.693701 -1.72597,8.592882 -2.90039,13.474609 -2.12328,8.825923 -4.1033,15.991715 -4.54297,17.595703 -0.43966,-1.603956 -2.42163,-8.769757 -4.54492,-17.595703 -1.17441,-4.881727 -2.26561,-9.780908 -2.89844,-13.474609 -0.31641,-1.846851 -0.51762,-3.396924 -0.55859,-4.466797 -0.0205,-0.534936 0.003,-0.952723 0.0527,-1.193359 0.0229,-0.109977 0.05,-0.167498 0.0606,-0.1875 1.37741,-0.306358 2.70035,-1.021968 4.00195,-1.664063 1.33712,-0.659611 2.64386,-1.21289 3.88672,-1.21289 z"
         id="path36"
         clip-path="url(#clipPath20)"
         transform="translate(-79.931068)" />
    </g>
    <path
       id="path61"
       style="display:inline;opacity:0.6;fill:url(#linearGradient62);stroke-width:1.0857;stroke-linecap:round;stroke-linejoin:round;stroke-miterlimit:12;paint-order:markers stroke fill;filter:url(#filter58)"
       d="m 56.542592,25.399704 8.32068,-3.61919 v 37.916664 z"
       sodipodi:nodetypes="cccc"
       inkscape:transform-center-x="-13.405566"
       inkscape:transform-center-y="-15.067794"
       clip-path="url(#clipPath58)"
       transform="matrix(0.651367,0.651367,-0.651367,0.651367,64.368296,-38.168418)" />
    <g
       id="g40"
       inkscape:transform-center-x="-11.343344"
       inkscape:transform-center-y="-19.769301"
       transform="matrix(0.851052,0.35251728,-0.35251728,0.851052,33.575589,-30.704678)"
       style="display:inline;stroke-width:1.08557">
      <path
         id="path39"
         style="fill:url(#linearGradient40);stroke-width:1.0857;stroke-linecap:round;stroke-linejoin:round;stroke-miterlimit:12;paint-order:markers stroke fill"
         d="m 64.863272,59.697178 c 0,0 -10.7135,-38.829214 -8.09783,-39.364458 2.61567,-0.535244 5.32393,-2.932998 8.09783,-2.932998 2.7739,0 5.48216,2.397754 8.09783,2.932998 2.61567,0.535244 -8.09783,39.364458 -8.09783,39.364458 z"
         sodipodi:nodetypes="csssc"
         inkscape:transform-center-y="-21.148729" />
      <path
         style="baseline-shift:baseline;display:inline;overflow:visible;vector-effect:none;fill:url(#linearGradient41);stroke-width:1.08557;stroke-linecap:round;stroke-linejoin:round;stroke-miterlimit:12;paint-order:markers stroke fill;filter:url(#filter22);enable-background:accumulate;stop-color:#000000"
         d="m 144.79492,16.900391 c -1.53103,0 -2.96567,0.64333 -4.33008,1.316406 -1.3644,0.673076 -2.67177,1.381937 -3.86914,1.626953 -0.23537,0.04816 -0.42365,0.213961 -0.52929,0.380859 -0.10565,0.166899 -0.15901,0.343632 -0.19922,0.53711 -0.0804,0.386954 -0.0964,0.857522 -0.0742,1.435547 0.0443,1.156049 0.25212,2.727046 0.57226,4.595703 0.6403,3.737314 1.73707,8.646581 2.91407,13.539062 2.354,9.784963 5.0332,19.498047 5.0332,19.498047 a 0.50011003,0.50011003 0 0 0 0.96484,0 c 0,0 2.6792,-9.713084 5.03321,-19.498047 1.177,-4.892481 2.27181,-9.801748 2.91211,-13.539062 0.32015,-1.868657 0.52799,-3.439654 0.57226,-4.595703 0.0221,-0.578025 0.008,-1.048593 -0.0723,-1.435547 -0.0402,-0.193478 -0.0955,-0.370211 -0.20118,-0.53711 -0.10564,-0.166898 -0.29392,-0.332695 -0.52929,-0.380859 -1.19737,-0.245016 -2.50473,-0.953877 -3.86914,-1.626953 -1.36441,-0.673076 -2.79709,-1.316406 -4.32813,-1.316406 z m 0,1 c 1.24287,0 2.54961,0.553279 3.88672,1.21289 1.30159,0.642088 2.62261,1.357698 4,1.664063 0.0106,0.02 0.0377,0.07752 0.0606,0.1875 0.05,0.240636 0.0732,0.658423 0.0527,1.193359 -0.041,1.069873 -0.24023,2.619946 -0.55664,4.466797 -0.63282,3.693701 -1.72597,8.592882 -2.90039,13.474609 -2.12328,8.825923 -4.1033,15.991715 -4.54297,17.595703 -0.43966,-1.603956 -2.42163,-8.769757 -4.54492,-17.595703 -1.17441,-4.881727 -2.26561,-9.780908 -2.89844,-13.474609 -0.31641,-1.846851 -0.51762,-3.396924 -0.55859,-4.466797 -0.0205,-0.534936 0.003,-0.952723 0.0527,-1.193359 0.0229,-0.109977 0.05,-0.167498 0.0606,-0.1875 1.37741,-0.306358 2.70035,-1.021968 4.00195,-1.664063 1.33712,-0.659611 2.64386,-1.21289 3.88672,-1.21289 z"
         id="path40"
         clip-path="url(#clipPath20)"
         transform="translate(-79.931068)" />
    </g>
    <path
       id="path60"
       style="display:inline;opacity:0.6;fill:url(#linearGradient61);stroke-width:1.0857;stroke-linecap:round;stroke-linejoin:round;stroke-miterlimit:12;paint-order:markers stroke fill;filter:url(#filter58)"
       d="m 56.542592,25.399704 8.32068,-3.61919 v 37.916664 z"
       sodipodi:nodetypes="cccc"
       inkscape:transform-center-x="-7.2550398"
       inkscape:transform-center-y="-17.515216"
       clip-path="url(#clipPath58)"
       transform="matrix(0.851052,0.35251728,-0.35251728,0.851052,33.575589,-30.704678)" />
    <path
       id="path63"
       style="display:inline;opacity:0.6;fill:url(#linearGradient64);stroke-width:1.0857;stroke-linecap:round;stroke-linejoin:round;stroke-miterlimit:12;paint-order:markers stroke fill;filter:url(#filter58)"
       d="m 56.542592,25.399704 8.32068,-3.61919 v 37.916664 z"
       sodipodi:nodetypes="cccc"
       inkscape:transform-center-x="-18.958333"
       inkscape:transform-center-y="-4.1603403"
       clip-path="url(#clipPath58)"
       transform="matrix(0,0.92117205,-0.92117205,0,122.72469,-16.784084)" />
    <g
       id="g42"
       inkscape:transform-center-x="-19.769473"
       inkscape:transform-center-y="-11.342873"
       transform="matrix(0.35251728,0.851052,-0.851052,0.35251728,95.673298,-33.280156)"
       style="display:inline;stroke-width:1.08557">
      <path
         id="path41"
         style="fill:url(#linearGradient42);stroke-width:1.0857;stroke-linecap:round;stroke-linejoin:round;stroke-miterlimit:12;paint-order:markers stroke fill"
         d="m 64.863272,59.697178 c 0,0 -10.7135,-38.829214 -8.09783,-39.364458 2.61567,-0.535244 5.32393,-2.932998 8.09783,-2.932998 2.7739,0 5.48216,2.397754 8.09783,2.932998 2.61567,0.535244 -8.09783,39.364458 -8.09783,39.364458 z"
         sodipodi:nodetypes="csssc"
         inkscape:transform-center-y="-21.148729" />
      <path
         style="baseline-shift:baseline;display:inline;overflow:visible;vector-effect:none;fill:url(#linearGradient43);stroke-width:1.08557;stroke-linecap:round;stroke-linejoin:round;stroke-miterlimit:12;paint-order:markers stroke fill;filter:url(#filter22);enable-background:accumulate;stop-color:#000000"
         d="m 144.79492,16.900391 c -1.53103,0 -2.96567,0.64333 -4.33008,1.316406 -1.3644,0.673076 -2.67177,1.381937 -3.86914,1.626953 -0.23537,0.04816 -0.42365,0.213961 -0.52929,0.380859 -0.10565,0.166899 -0.15901,0.343632 -0.19922,0.53711 -0.0804,0.386954 -0.0964,0.857522 -0.0742,1.435547 0.0443,1.156049 0.25212,2.727046 0.57226,4.595703 0.6403,3.737314 1.73707,8.646581 2.91407,13.539062 2.354,9.784963 5.0332,19.498047 5.0332,19.498047 a 0.50011003,0.50011003 0 0 0 0.96484,0 c 0,0 2.6792,-9.713084 5.03321,-19.498047 1.177,-4.892481 2.27181,-9.801748 2.91211,-13.539062 0.32015,-1.868657 0.52799,-3.439654 0.57226,-4.595703 0.0221,-0.578025 0.008,-1.048593 -0.0723,-1.435547 -0.0402,-0.193478 -0.0955,-0.370211 -0.20118,-0.53711 -0.10564,-0.166898 -0.29392,-0.332695 -0.52929,-0.380859 -1.19737,-0.245016 -2.50473,-0.953877 -3.86914,-1.626953 -1.36441,-0.673076 -2.79709,-1.316406 -4.32813,-1.316406 z m 0,1 c 1.24287,0 2.54961,0.553279 3.88672,1.21289 1.30159,0.642088 2.62261,1.357698 4,1.664063 0.0106,0.02 0.0377,0.07752 0.0606,0.1875 0.05,0.240636 0.0732,0.658423 0.0527,1.193359 -0.041,1.069873 -0.24023,2.619946 -0.55664,4.466797 -0.63282,3.693701 -1.72597,8.592882 -2.90039,13.474609 -2.12328,8.825923 -4.1033,15.991715 -4.54297,17.595703 -0.43966,-1.603956 -2.42163,-8.769757 -4.54492,-17.595703 -1.17441,-4.881727 -2.26561,-9.780908 -2.89844,-13.474609 -0.31641,-1.846851 -0.51762,-3.396924 -0.55859,-4.466797 -0.0205,-0.534936 0.003,-0.952723 0.0527,-1.193359 0.0229,-0.109977 0.05,-0.167498 0.0606,-0.1875 1.37741,-0.306358 2.70035,-1.021968 4.00195,-1.664063 1.33712,-0.659611 2.64386,-1.21289 3.88672,-1.21289 z"
         id="path42"
         clip-path="url(#clipPath20)"
         transform="translate(-79.931068)" />
    </g>
    <path
       id="path65"
       style="display:inline;opacity:0.6;fill:url(#linearGradient66);stroke-width:1.0857;stroke-linecap:round;stroke-linejoin:round;stroke-miterlimit:12;paint-order:markers stroke fill;filter:url(#filter58)"
       d="m 56.542592,25.399704 8.32068,-3.61919 v 37.916664 z"
       sodipodi:nodetypes="cccc"
       inkscape:transform-center-x="-15.067794"
       inkscape:transform-center-y="13.405565"
       clip-path="url(#clipPath58)"
       transform="matrix(-0.651367,0.651367,-0.651367,-0.651367,148.86789,39.601126)" />
    <g
       id="g44"
       inkscape:transform-center-x="-19.769301"
       inkscape:transform-center-y="11.343344"
       transform="matrix(-0.35251728,0.851052,-0.851052,-0.35251728,141.40415,8.8084182)"
       style="display:inline;stroke-width:1.08557">
      <path
         id="path43"
         style="fill:url(#linearGradient44);stroke-width:1.0857;stroke-linecap:round;stroke-linejoin:round;stroke-miterlimit:12;paint-order:markers stroke fill"
         d="m 64.863272,59.697178 c 0,0 -10.7135,-38.829214 -8.09783,-39.364458 2.61567,-0.535244 5.32393,-2.932998 8.09783,-2.932998 2.7739,0 5.48216,2.397754 8.09783,2.932998 2.61567,0.535244 -8.09783,39.364458 -8.09783,39.364458 z"
         sodipodi:nodetypes="csssc"
         inkscape:transform-center-y="-21.148729" />
      <path
         style="baseline-shift:baseline;display:inline;overflow:visible;vector-effect:none;fill:url(#linearGradient45);stroke-width:1.08557;stroke-linecap:round;stroke-linejoin:round;stroke-miterlimit:12;paint-order:markers stroke fill;filter:url(#filter22);enable-background:accumulate;stop-color:#000000"
         d="m 144.79492,16.900391 c -1.53103,0 -2.96567,0.64333 -4.33008,1.316406 -1.3644,0.673076 -2.67177,1.381937 -3.86914,1.626953 -0.23537,0.04816 -0.42365,0.213961 -0.52929,0.380859 -0.10565,0.166899 -0.15901,0.343632 -0.19922,0.53711 -0.0804,0.386954 -0.0964,0.857522 -0.0742,1.435547 0.0443,1.156049 0.25212,2.727046 0.57226,4.595703 0.6403,3.737314 1.73707,8.646581 2.91407,13.539062 2.354,9.784963 5.0332,19.498047 5.0332,19.498047 a 0.50011003,0.50011003 0 0 0 0.96484,0 c 0,0 2.6792,-9.713084 5.03321,-19.498047 1.177,-4.892481 2.27181,-9.801748 2.91211,-13.539062 0.32015,-1.868657 0.52799,-3.439654 0.57226,-4.595703 0.0221,-0.578025 0.008,-1.048593 -0.0723,-1.435547 -0.0402,-0.193478 -0.0955,-0.370211 -0.20118,-0.53711 -0.10564,-0.166898 -0.29392,-0.332695 -0.52929,-0.380859 -1.19737,-0.245016 -2.50473,-0.953877 -3.86914,-1.626953 -1.36441,-0.673076 -2.79709,-1.316406 -4.32813,-1.316406 z m 0,1 c 1.24287,0 2.54961,0.553279 3.88672,1.21289 1.30159,0.642088 2.62261,1.357698 4,1.664063 0.0106,0.02 0.0377,0.07752 0.0606,0.1875 0.05,0.240636 0.0732,0.658423 0.0527,1.193359 -0.041,1.069873 -0.24023,2.619946 -0.55664,4.466797 -0.63282,3.693701 -1.72597,8.592882 -2.90039,13.474609 -2.12328,8.825923 -4.1033,15.991715 -4.54297,17.595703 -0.43966,-1.603956 -2.42163,-8.769757 -4.54492,-17.595703 -1.17441,-4.881727 -2.26561,-9.780908 -2.89844,-13.474609 -0.31641,-1.846851 -0.51762,-3.396924 -0.55859,-4.466797 -0.0205,-0.534936 0.003,-0.952723 0.0527,-1.193359 0.0229,-0.109977 0.05,-0.167498 0.0606,-0.1875 1.37741,-0.306358 2.70035,-1.021968 4.00195,-1.664063 1.33712,-0.659611 2.64386,-1.21289 3.88672,-1.21289 z"
         id="path44"
         clip-path="url(#clipPath20)"
         transform="translate(-79.931068)" />
    </g>
    <path
       id="path67"
       style="display:inline;opacity:0.6;fill:url(#linearGradient68);stroke-width:1.0857;stroke-linecap:round;stroke-linejoin:round;stroke-miterlimit:12;paint-order:markers stroke fill;filter:url(#filter58)"
       d="m 56.542592,25.399704 8.32068,-3.61919 v 37.916664 z"
       sodipodi:nodetypes="cccc"
       inkscape:transform-center-x="-4.1603403"
       inkscape:transform-center-y="18.958332"
       clip-path="url(#clipPath58)"
       transform="matrix(-0.92117205,0,0,-0.92117205,127.48355,97.957521)" />
    <g
       id="g46"
       inkscape:transform-center-x="-11.342873"
       inkscape:transform-center-y="19.769473"
       transform="matrix(-0.851052,0.35251728,-0.35251728,-0.851052,143.97962,70.906127)"
       style="display:inline;stroke-width:1.08557">
      <path
         id="path45"
         style="fill:url(#linearGradient46);stroke-width:1.0857;stroke-linecap:round;stroke-linejoin:round;stroke-miterlimit:12;paint-order:markers stroke fill"
         d="m 64.863272,59.697178 c 0,0 -10.7135,-38.829214 -8.09783,-39.364458 2.61567,-0.535244 5.32393,-2.932998 8.09783,-2.932998 2.7739,0 5.48216,2.397754 8.09783,2.932998 2.61567,0.535244 -8.09783,39.364458 -8.09783,39.364458 z"
         sodipodi:nodetypes="csssc"
         inkscape:transform-center-y="-21.148729" />
      <path
         style="baseline-shift:baseline;display:inline;overflow:visible;vector-effect:none;fill:url(#linearGradient47);stroke-width:1.08557;stroke-linecap:round;stroke-linejoin:round;stroke-miterlimit:12;paint-order:markers stroke fill;filter:url(#filter22);enable-background:accumulate;stop-color:#000000"
         d="m 144.79492,16.900391 c -1.53103,0 -2.96567,0.64333 -4.33008,1.316406 -1.3644,0.673076 -2.67177,1.381937 -3.86914,1.626953 -0.23537,0.04816 -0.42365,0.213961 -0.52929,0.380859 -0.10565,0.166899 -0.15901,0.343632 -0.19922,0.53711 -0.0804,0.386954 -0.0964,0.857522 -0.0742,1.435547 0.0443,1.156049 0.25212,2.727046 0.57226,4.595703 0.6403,3.737314 1.73707,8.646581 2.91407,13.539062 2.354,9.784963 5.0332,19.498047 5.0332,19.498047 a 0.50011003,0.50011003 0 0 0 0.96484,0 c 0,0 2.6792,-9.713084 5.03321,-19.498047 1.177,-4.892481 2.27181,-9.801748 2.91211,-13.539062 0.32015,-1.868657 0.52799,-3.439654 0.57226,-4.595703 0.0221,-0.578025 0.008,-1.048593 -0.0723,-1.435547 -0.0402,-0.193478 -0.0955,-0.370211 -0.20118,-0.53711 -0.10564,-0.166898 -0.29392,-0.332695 -0.52929,-0.380859 -1.19737,-0.245016 -2.50473,-0.953877 -3.86914,-1.626953 -1.36441,-0.673076 -2.79709,-1.316406 -4.32813,-1.316406 z m 0,1 c 1.24287,0 2.54961,0.553279 3.88672,1.21289 1.30159,0.642088 2.62261,1.357698 4,1.664063 0.0106,0.02 0.0377,0.07752 0.0606,0.1875 0.05,0.240636 0.0732,0.658423 0.0527,1.193359 -0.041,1.069873 -0.24023,2.619946 -0.55664,4.466797 -0.63282,3.693701 -1.72597,8.592882 -2.90039,13.474609 -2.12328,8.825923 -4.1033,15.991715 -4.54297,17.595703 -0.43966,-1.603956 -2.42163,-8.769757 -4.54492,-17.595703 -1.17441,-4.881727 -2.26561,-9.780908 -2.89844,-13.474609 -0.31641,-1.846851 -0.51762,-3.396924 -0.55859,-4.466797 -0.0205,-0.534936 0.003,-0.952723 0.0527,-1.193359 0.0229,-0.109977 0.05,-0.167498 0.0606,-0.1875 1.37741,-0.306358 2.70035,-1.021968 4.00195,-1.664063 1.33712,-0.659611 2.64386,-1.21289 3.88672,-1.21289 z"
         id="path46"
         clip-path="url(#clipPath20)"
         transform="translate(-79.931068)" />
    </g>
    <path
       id="path69"
       style="display:inline;opacity:0.6;fill:url(#linearGradient70);stroke-width:1.0857;stroke-linecap:round;stroke-linejoin:round;stroke-miterlimit:12;paint-order:markers stroke fill;filter:url(#filter58)"
       d="m 56.542592,25.399704 8.32068,-3.61919 v 37.916664 z"
       sodipodi:nodetypes="cccc"
       inkscape:transform-center-x="13.405565"
       inkscape:transform-center-y="15.067793"
       clip-path="url(#clipPath58)"
       transform="matrix(-0.651367,-0.651367,0.651367,-0.651367,71.098343,124.10072)" />
    <path
       id="path73"
       style="display:inline;opacity:0.6;fill:url(#linearGradient74);stroke-width:1.0857;stroke-linecap:round;stroke-linejoin:round;stroke-miterlimit:12;paint-order:markers stroke fill;filter:url(#filter58)"
       d="m 56.542592,25.399704 8.32068,-3.61919 v 37.916664 z"
       sodipodi:nodetypes="cccc"
       inkscape:transform-center-x="15.067793"
       inkscape:transform-center-y="-13.405566"
       clip-path="url(#clipPath58)"
       transform="matrix(0.651367,-0.651367,0.651367,0.651367,-13.401247,46.331172)" />
    <path
       id="path71"
       style="display:inline;opacity:0.6;fill:url(#linearGradient72);stroke-width:1.0857;stroke-linecap:round;stroke-linejoin:round;stroke-miterlimit:12;paint-order:markers stroke fill;filter:url(#filter58)"
       d="m 56.542592,25.399704 8.32068,-3.61919 v 37.916664 z"
       sodipodi:nodetypes="cccc"
       inkscape:transform-center-x="18.958332"
       inkscape:transform-center-y="4.1603393"
       clip-path="url(#clipPath58)"
       transform="matrix(0,-0.92117205,0.92117205,0,12.741948,102.71638)" />
    <g
       id="g48"
       inkscape:transform-center-x="11.343344"
       inkscape:transform-center-y="19.769301"
       transform="matrix(-0.851052,-0.35251728,0.35251728,-0.851052,101.89105,116.63698)"
       style="display:inline;stroke-width:1.08557">
      <path
         id="path47"
         style="fill:url(#linearGradient48);stroke-width:1.0857;stroke-linecap:round;stroke-linejoin:round;stroke-miterlimit:12;paint-order:markers stroke fill"
         d="m 64.863272,59.697178 c 0,0 -10.7135,-38.829214 -8.09783,-39.364458 2.61567,-0.535244 5.32393,-2.932998 8.09783,-2.932998 2.7739,0 5.48216,2.397754 8.09783,2.932998 2.61567,0.535244 -8.09783,39.364458 -8.09783,39.364458 z"
         sodipodi:nodetypes="csssc"
         inkscape:transform-center-y="-21.148729" />
      <path
         style="baseline-shift:baseline;display:inline;overflow:visible;vector-effect:none;fill:url(#linearGradient49);stroke-width:1.08557;stroke-linecap:round;stroke-linejoin:round;stroke-miterlimit:12;paint-order:markers stroke fill;filter:url(#filter22);enable-background:accumulate;stop-color:#000000"
         d="m 144.79492,16.900391 c -1.53103,0 -2.96567,0.64333 -4.33008,1.316406 -1.3644,0.673076 -2.67177,1.381937 -3.86914,1.626953 -0.23537,0.04816 -0.42365,0.213961 -0.52929,0.380859 -0.10565,0.166899 -0.15901,0.343632 -0.19922,0.53711 -0.0804,0.386954 -0.0964,0.857522 -0.0742,1.435547 0.0443,1.156049 0.25212,2.727046 0.57226,4.595703 0.6403,3.737314 1.73707,8.646581 2.91407,13.539062 2.354,9.784963 5.0332,19.498047 5.0332,19.498047 a 0.50011003,0.50011003 0 0 0 0.96484,0 c 0,0 2.6792,-9.713084 5.03321,-19.498047 1.177,-4.892481 2.27181,-9.801748 2.91211,-13.539062 0.32015,-1.868657 0.52799,-3.439654 0.57226,-4.595703 0.0221,-0.578025 0.008,-1.048593 -0.0723,-1.435547 -0.0402,-0.193478 -0.0955,-0.370211 -0.20118,-0.53711 -0.10564,-0.166898 -0.29392,-0.332695 -0.52929,-0.380859 -1.19737,-0.245016 -2.50473,-0.953877 -3.86914,-1.626953 -1.36441,-0.673076 -2.79709,-1.316406 -4.32813,-1.316406 z m 0,1 c 1.24287,0 2.54961,0.553279 3.88672,1.21289 1.30159,0.642088 2.62261,1.357698 4,1.664063 0.0106,0.02 0.0377,0.07752 0.0606,0.1875 0.05,0.240636 0.0732,0.658423 0.0527,1.193359 -0.041,1.069873 -0.24023,2.619946 -0.55664,4.466797 -0.63282,3.693701 -1.72597,8.592882 -2.90039,13.474609 -2.12328,8.825923 -4.1033,15.991715 -4.54297,17.595703 -0.43966,-1.603956 -2.42163,-8.769757 -4.54492,-17.595703 -1.17441,-4.881727 -2.26561,-9.780908 -2.89844,-13.474609 -0.31641,-1.846851 -0.51762,-3.396924 -0.55859,-4.466797 -0.0205,-0.534936 0.003,-0.952723 0.0527,-1.193359 0.0229,-0.109977 0.05,-0.167498 0.0606,-0.1875 1.37741,-0.306358 2.70035,-1.021968 4.00195,-1.664063 1.33712,-0.659611 2.64386,-1.21289 3.88672,-1.21289 z"
         id="path48"
         clip-path="url(#clipPath20)"
         transform="translate(-79.931068)" />
    </g>
    <g
       id="g50"
       inkscape:transform-center-x="19.769473"
       inkscape:transform-center-y="11.342873"
       transform="matrix(-0.35251728,-0.851052,0.851052,-0.35251728,39.793341,119.21245)"
       style="display:inline;stroke-width:1.08557">
      <path
         id="path49"
         style="fill:url(#linearGradient50);stroke-width:1.0857;stroke-linecap:round;stroke-linejoin:round;stroke-miterlimit:12;paint-order:markers stroke fill"
         d="m 64.863272,59.697178 c 0,0 -10.7135,-38.829214 -8.09783,-39.364458 2.61567,-0.535244 5.32393,-2.932998 8.09783,-2.932998 2.7739,0 5.48216,2.397754 8.09783,2.932998 2.61567,0.535244 -8.09783,39.364458 -8.09783,39.364458 z"
         sodipodi:nodetypes="csssc"
         inkscape:transform-center-y="-21.148729" />
      <path
         style="baseline-shift:baseline;display:inline;overflow:visible;vector-effect:none;fill:url(#linearGradient51);stroke-width:1.08557;stroke-linecap:round;stroke-linejoin:round;stroke-miterlimit:12;paint-order:markers stroke fill;filter:url(#filter22);enable-background:accumulate;stop-color:#000000"
         d="m 144.79492,16.900391 c -1.53103,0 -2.96567,0.64333 -4.33008,1.316406 -1.3644,0.673076 -2.67177,1.381937 -3.86914,1.626953 -0.23537,0.04816 -0.42365,0.213961 -0.52929,0.380859 -0.10565,0.166899 -0.15901,0.343632 -0.19922,0.53711 -0.0804,0.386954 -0.0964,0.857522 -0.0742,1.435547 0.0443,1.156049 0.25212,2.727046 0.57226,4.595703 0.6403,3.737314 1.73707,8.646581 2.91407,13.539062 2.354,9.784963 5.0332,19.498047 5.0332,19.498047 a 0.50011003,0.50011003 0 0 0 0.96484,0 c 0,0 2.6792,-9.713084 5.03321,-19.498047 1.177,-4.892481 2.27181,-9.801748 2.91211,-13.539062 0.32015,-1.868657 0.52799,-3.439654 0.57226,-4.595703 0.0221,-0.578025 0.008,-1.048593 -0.0723,-1.435547 -0.0402,-0.193478 -0.0955,-0.370211 -0.20118,-0.53711 -0.10564,-0.166898 -0.29392,-0.332695 -0.52929,-0.380859 -1.19737,-0.245016 -2.50473,-0.953877 -3.86914,-1.626953 -1.36441,-0.673076 -2.79709,-1.316406 -4.32813,-1.316406 z m 0,1 c 1.24287,0 2.54961,0.553279 3.88672,1.21289 1.30159,0.642088 2.62261,1.357698 4,1.664063 0.0106,0.02 0.0377,0.07752 0.0606,0.1875 0.05,0.240636 0.0732,0.658423 0.0527,1.193359 -0.041,1.069873 -0.24023,2.619946 -0.55664,4.466797 -0.63282,3.693701 -1.72597,8.592882 -2.90039,13.474609 -2.12328,8.825923 -4.1033,15.991715 -4.54297,17.595703 -0.43966,-1.603956 -2.42163,-8.769757 -4.54492,-17.595703 -1.17441,-4.881727 -2.26561,-9.780908 -2.89844,-13.474609 -0.31641,-1.846851 -0.51762,-3.396924 -0.55859,-4.466797 -0.0205,-0.534936 0.003,-0.952723 0.0527,-1.193359 0.0229,-0.109977 0.05,-0.167498 0.0606,-0.1875 1.37741,-0.306358 2.70035,-1.021968 4.00195,-1.664063 1.33712,-0.659611 2.64386,-1.21289 3.88672,-1.21289 z"
         id="path50"
         clip-path="url(#clipPath20)"
         transform="translate(-79.931068)" />
    </g>
    <g
       id="g52"
       inkscape:transform-center-x="19.769301"
       inkscape:transform-center-y="-11.343344"
       transform="matrix(0.35251728,-0.851052,0.851052,0.35251728,-5.9375076,77.123879)"
       style="display:inline;stroke-width:1.08557">
      <path
         id="path51"
         style="fill:url(#linearGradient52);stroke-width:1.0857;stroke-linecap:round;stroke-linejoin:round;stroke-miterlimit:12;paint-order:markers stroke fill"
         d="m 64.863272,59.697178 c 0,0 -10.7135,-38.829214 -8.09783,-39.364458 2.61567,-0.535244 5.32393,-2.932998 8.09783,-2.932998 2.7739,0 5.48216,2.397754 8.09783,2.932998 2.61567,0.535244 -8.09783,39.364458 -8.09783,39.364458 z"
         sodipodi:nodetypes="csssc"
         inkscape:transform-center-y="-21.148729" />
      <path
         style="baseline-shift:baseline;display:inline;overflow:visible;vector-effect:none;fill:url(#linearGradient53);stroke-width:1.08557;stroke-linecap:round;stroke-linejoin:round;stroke-miterlimit:12;paint-order:markers stroke fill;filter:url(#filter22);enable-background:accumulate;stop-color:#000000"
         d="m 144.79492,16.900391 c -1.53103,0 -2.96567,0.64333 -4.33008,1.316406 -1.3644,0.673076 -2.67177,1.381937 -3.86914,1.626953 -0.23537,0.04816 -0.42365,0.213961 -0.52929,0.380859 -0.10565,0.166899 -0.15901,0.343632 -0.19922,0.53711 -0.0804,0.386954 -0.0964,0.857522 -0.0742,1.435547 0.0443,1.156049 0.25212,2.727046 0.57226,4.595703 0.6403,3.737314 1.73707,8.646581 2.91407,13.539062 2.354,9.784963 5.0332,19.498047 5.0332,19.498047 a 0.50011003,0.50011003 0 0 0 0.96484,0 c 0,0 2.6792,-9.713084 5.03321,-19.498047 1.177,-4.892481 2.27181,-9.801748 2.91211,-13.539062 0.32015,-1.868657 0.52799,-3.439654 0.57226,-4.595703 0.0221,-0.578025 0.008,-1.048593 -0.0723,-1.435547 -0.0402,-0.193478 -0.0955,-0.370211 -0.20118,-0.53711 -0.10564,-0.166898 -0.29392,-0.332695 -0.52929,-0.380859 -1.19737,-0.245016 -2.50473,-0.953877 -3.86914,-1.626953 -1.36441,-0.673076 -2.79709,-1.316406 -4.32813,-1.316406 z m 0,1 c 1.24287,0 2.54961,0.553279 3.88672,1.21289 1.30159,0.642088 2.62261,1.357698 4,1.664063 0.0106,0.02 0.0377,0.07752 0.0606,0.1875 0.05,0.240636 0.0732,0.658423 0.0527,1.193359 -0.041,1.069873 -0.24023,2.619946 -0.55664,4.466797 -0.63282,3.693701 -1.72597,8.592882 -2.90039,13.474609 -2.12328,8.825923 -4.1033,15.991715 -4.54297,17.595703 -0.43966,-1.603956 -2.42163,-8.769757 -4.54492,-17.595703 -1.17441,-4.881727 -2.26561,-9.780908 -2.89844,-13.474609 -0.31641,-1.846851 -0.51762,-3.396924 -0.55859,-4.466797 -0.0205,-0.534936 0.003,-0.952723 0.0527,-1.193359 0.0229,-0.109977 0.05,-0.167498 0.0606,-0.1875 1.37741,-0.306358 2.70035,-1.021968 4.00195,-1.664063 1.33712,-0.659611 2.64386,-1.21289 3.88672,-1.21289 z"
         id="path52"
         clip-path="url(#clipPath20)"
         transform="translate(-79.931068)" />
    </g>
    <path
       id="rect55"
       style="display:inline;opacity:0.6;fill:url(#linearGradient60);stroke-width:1.0857;stroke-linecap:round;stroke-linejoin:round;stroke-miterlimit:12;paint-order:markers stroke fill;filter:url(#filter58)"
       d="m 56.542592,25.399704 8.32068,-3.61919 v 37.916664 z"
       sodipodi:nodetypes="cccc"
       inkscape:transform-center-x="4.1603402"
       inkscape:transform-center-y="-18.958333"
       clip-path="url(#clipPath58)"
       transform="matrix(0.92117205,0,0,0.92117205,7.9830864,-12.025223)" />
    <g
       id="g54"
       inkscape:transform-center-x="11.342873"
       inkscape:transform-center-y="-19.769473"
       transform="matrix(0.851052,-0.35251728,0.35251728,0.851052,-8.5129848,15.02617)"
       style="display:inline;stroke-width:1.08557">
      <path
         id="path53"
         style="fill:url(#linearGradient54);stroke-width:1.0857;stroke-linecap:round;stroke-linejoin:round;stroke-miterlimit:12;paint-order:markers stroke fill"
         d="m 64.863272,59.697178 c 0,0 -10.7135,-38.829214 -8.09783,-39.364458 2.61567,-0.535244 5.32393,-2.932998 8.09783,-2.932998 2.7739,0 5.48216,2.397754 8.09783,2.932998 2.61567,0.535244 -8.09783,39.364458 -8.09783,39.364458 z"
         sodipodi:nodetypes="csssc"
         inkscape:transform-center-y="-21.148729" />
      <path
         style="baseline-shift:baseline;display:inline;overflow:visible;vector-effect:none;fill:url(#linearGradient55);stroke-width:1.08557;stroke-linecap:round;stroke-linejoin:round;stroke-miterlimit:12;paint-order:markers stroke fill;filter:url(#filter22);enable-background:accumulate;stop-color:#000000"
         d="m 144.79492,16.900391 c -1.53103,0 -2.96567,0.64333 -4.33008,1.316406 -1.3644,0.673076 -2.67177,1.381937 -3.86914,1.626953 -0.23537,0.04816 -0.42365,0.213961 -0.52929,0.380859 -0.10565,0.166899 -0.15901,0.343632 -0.19922,0.53711 -0.0804,0.386954 -0.0964,0.857522 -0.0742,1.435547 0.0443,1.156049 0.25212,2.727046 0.57226,4.595703 0.6403,3.737314 1.73707,8.646581 2.91407,13.539062 2.354,9.784963 5.0332,19.498047 5.0332,19.498047 a 0.50011003,0.50011003 0 0 0 0.96484,0 c 0,0 2.6792,-9.713084 5.03321,-19.498047 1.177,-4.892481 2.27181,-9.801748 2.91211,-13.539062 0.32015,-1.868657 0.52799,-3.439654 0.57226,-4.595703 0.0221,-0.578025 0.008,-1.048593 -0.0723,-1.435547 -0.0402,-0.193478 -0.0955,-0.370211 -0.20118,-0.53711 -0.10564,-0.166898 -0.29392,-0.332695 -0.52929,-0.380859 -1.19737,-0.245016 -2.50473,-0.953877 -3.86914,-1.626953 -1.36441,-0.673076 -2.79709,-1.316406 -4.32813,-1.316406 z m 0,1 c 1.24287,0 2.54961,0.553279 3.88672,1.21289 1.30159,0.642088 2.62261,1.357698 4,1.664063 0.0106,0.02 0.0377,0.07752 0.0606,0.1875 0.05,0.240636 0.0732,0.658423 0.0527,1.193359 -0.041,1.069873 -0.24023,2.619946 -0.55664,4.466797 -0.63282,3.693701 -1.72597,8.592882 -2.90039,13.474609 -2.12328,8.825923 -4.1033,15.991715 -4.54297,17.595703 -0.43966,-1.603956 -2.42163,-8.769757 -4.54492,-17.595703 -1.17441,-4.881727 -2.26561,-9.780908 -2.89844,-13.474609 -0.31641,-1.846851 -0.51762,-3.396924 -0.55859,-4.466797 -0.0205,-0.534936 0.003,-0.952723 0.0527,-1.193359 0.0229,-0.109977 0.05,-0.167498 0.0606,-0.1875 1.37741,-0.306358 2.70035,-1.021968 4.00195,-1.664063 1.33712,-0.659611 2.64386,-1.21289 3.88672,-1.21289 z"
         id="path54"
         clip-path="url(#clipPath20)"
         transform="translate(-79.931068)" />
    </g>
    <path
       id="path62"
       style="display:inline;opacity:0.6;fill:url(#linearGradient63);stroke-width:1.0857;stroke-linecap:round;stroke-linejoin:round;stroke-miterlimit:12;paint-order:markers stroke fill;filter:url(#filter58)"
       d="m 56.542592,25.399704 8.32068,-3.61919 v 37.916664 z"
       sodipodi:nodetypes="cccc"
       inkscape:transform-center-x="-17.515216"
       inkscape:transform-center-y="-10.406191"
       clip-path="url(#clipPath58)"
       transform="matrix(0.35251728,0.851052,-0.851052,0.35251728,95.673298,-33.280156)" />
    <path
       id="path64"
       style="display:inline;opacity:0.6;fill:url(#linearGradient65);stroke-width:1.0857;stroke-linecap:round;stroke-linejoin:round;stroke-miterlimit:12;paint-order:markers stroke fill;filter:url(#filter58)"
       d="m 56.542592,25.399704 8.32068,-3.61919 v 37.916664 z"
       sodipodi:nodetypes="cccc"
       inkscape:transform-center-x="-17.515216"
       inkscape:transform-center-y="7.2550397"
       clip-path="url(#clipPath58)"
       transform="matrix(-0.35251728,0.851052,-0.851052,-0.35251728,141.40415,8.8084182)" />
    <path
       id="path66"
       style="display:inline;opacity:0.6;fill:url(#linearGradient67);stroke-width:1.0857;stroke-linecap:round;stroke-linejoin:round;stroke-miterlimit:12;paint-order:markers stroke fill;filter:url(#filter58)"
       d="m 56.542592,25.399704 8.32068,-3.61919 v 37.916664 z"
       sodipodi:nodetypes="cccc"
       inkscape:transform-center-x="-10.406191"
       inkscape:transform-center-y="17.515215"
       clip-path="url(#clipPath58)"
       transform="matrix(-0.851052,0.35251728,-0.35251728,-0.851052,143.97962,70.906127)" />
    <path
       id="path68"
       style="display:inline;opacity:0.6;fill:url(#linearGradient69);stroke-width:1.0857;stroke-linecap:round;stroke-linejoin:round;stroke-miterlimit:12;paint-order:markers stroke fill;filter:url(#filter58)"
       d="m 56.542592,25.399704 8.32068,-3.61919 v 37.916664 z"
       sodipodi:nodetypes="cccc"
       inkscape:transform-center-x="7.2550397"
       inkscape:transform-center-y="17.515215"
       clip-path="url(#clipPath58)"
       transform="matrix(-0.851052,-0.35251728,0.35251728,-0.851052,101.89105,116.63698)" />
    <path
       id="path70"
       style="display:inline;opacity:0.6;fill:url(#linearGradient71);stroke-width:1.0857;stroke-linecap:round;stroke-linejoin:round;stroke-miterlimit:12;paint-order:markers stroke fill;filter:url(#filter58)"
       d="m 56.542592,25.399704 8.32068,-3.61919 v 37.916664 z"
       sodipodi:nodetypes="cccc"
       inkscape:transform-center-x="17.515215"
       inkscape:transform-center-y="10.40619"
       clip-path="url(#clipPath58)"
       transform="matrix(-0.35251728,-0.851052,0.851052,-0.35251728,39.793341,119.21245)" />
    <path
       id="path72"
       style="display:inline;opacity:0.6;fill:url(#linearGradient73);stroke-width:1.0857;stroke-linecap:round;stroke-linejoin:round;stroke-miterlimit:12;paint-order:markers stroke fill;filter:url(#filter58)"
       d="m 56.542592,25.399704 8.32068,-3.61919 v 37.916664 z"
       sodipodi:nodetypes="cccc"
       inkscape:transform-center-x="17.515215"
       inkscape:transform-center-y="-7.2550407"
       clip-path="url(#clipPath58)"
       transform="matrix(0.35251728,-0.851052,0.851052,0.35251728,-5.9375076,77.123879)" />
    <path
       id="path74"
       style="display:inline;opacity:0.6;fill:url(#linearGradient75);stroke-width:1.0857;stroke-linecap:round;stroke-linejoin:round;stroke-miterlimit:12;paint-order:markers stroke fill;filter:url(#filter58)"
       d="m 56.542592,25.399704 8.32068,-3.61919 v 37.916664 z"
       sodipodi:nodetypes="cccc"
       inkscape:transform-center-x="10.40619"
       inkscape:transform-center-y="-17.515216"
       clip-path="url(#clipPath58)"
       transform="matrix(0.851052,-0.35251728,0.35251728,0.851052,-8.5129848,15.026171)" />
    <g
       id="g114"
       style="display:inline;stroke-width:1.08557"
       transform="matrix(0.92117205,0,0,0.92117205,7.9830864,-12.025223)">
      <circle
         style="display:inline;opacity:1;fill:url(#radialGradient112);stroke:none;stroke-width:0.57445;stroke-linecap:round;stroke-linejoin:round;stroke-miterlimit:12;stroke-dasharray:none;stroke-opacity:1;paint-order:markers stroke fill"
         id="path111"
         cx="64.863274"
         cy="59.697178"
         r="32.477264" />
      <circle
         style="display:inline;opacity:1;fill:none;stroke:url(#radialGradient114);stroke-width:3.4467;stroke-linecap:round;stroke-linejoin:round;stroke-miterlimit:12;stroke-dasharray:none;paint-order:markers stroke fill"
         id="circle112"
         cx="64.863274"
         cy="59.697178"
         r="23.891415" />
    </g>
    <path
       sodipodi:type="star"
       style="display:inline;mix-blend-mode:normal;fill:#000000;stroke-width:1.0857;stroke-linecap:round;stroke-linejoin:round;stroke-miterlimit:12;paint-order:markers stroke fill;filter:url(#filter229);opacity:0.6"
       id="path170"
       inkscape:flatsided="false"
       sodipodi:sides="5"
       sodipodi:cx="-81.796608"
       sodipodi:cy="46.207909"
       sodipodi:r1="46.563072"
       sodipodi:r2="18.159597"
       sodipodi:arg1="-1.5707963"
       sodipodi:arg2="-0.9424778"
       inkscape:rounded="0"
       inkscape:randomized="0"
       d="m -81.796607,-0.35516357 10.673943,31.87164957 33.61017,0.302643 -27.013311,20.000404 10.098283,32.058693 -27.369086,-19.51072 -27.369092,19.510719 10.098289,-32.058692 -27.013309,-20.000406 33.610168,-0.302641 z"
       inkscape:transform-center-y="-4.446378"
       transform="matrix(0.92117205,0,0,0.92117205,143.08208,0.327167)"
       clip-path="url(#clipPath229)" />
    <g
       id="g111"
       style="display:inline;stroke-width:1.08557"
       transform="matrix(0.92117205,0,0,0.92117205,-16.389591,-16.123137)">
      <path
         sodipodi:type="star"
         style="display:inline;fill:#ff6600;stroke-width:1.0857;stroke-linecap:round;stroke-linejoin:round;stroke-miterlimit:12;paint-order:markers stroke fill"
         id="path2"
         inkscape:flatsided="false"
         sodipodi:sides="5"
         sodipodi:cx="-81.796608"
         sodipodi:cy="46.207909"
         sodipodi:r1="46.563072"
         sodipodi:r2="18.159597"
         sodipodi:arg1="-1.5707963"
         sodipodi:arg2="-0.9424778"
         inkscape:rounded="0"
         inkscape:randomized="0"
         d="m -81.796607,-0.35516357 10.673943,31.87164957 33.61017,0.302643 -27.013311,20.000404 10.098283,32.058693 -27.369086,-19.51072 -27.369092,19.510719 10.098289,-32.058692 -27.013309,-20.000406 33.610168,-0.302641 z"
         inkscape:transform-center-y="-4.446378"
         transform="translate(173.11823,17.935643)" />
      <g
         id="g110"
         transform="translate(-190.08252,23.85937)"
         style="display:inline;opacity:0.68;stroke-width:1.08557">
        <path
           id="path76"
           style="display:inline;fill:#ffcc00;stroke-width:1.0857;stroke-linecap:round;stroke-linejoin:round;stroke-miterlimit:12;paint-order:markers stroke fill"
           inkscape:transform-center-y="-4.446378"
           d="m 281.40414,-6.2788906 10.67394,31.8716496 33.61017,0.302643 -27.01331,20.000404 10.09829,32.058693 L 281.40414,58.443779 254.03505,77.954498 264.13334,45.895806 237.12003,25.8954 270.7302,25.592759 Z" />
        <g
           id="g92"
           style="display:inline;stroke-width:1.08557">
          <path
             id="path81"
             style="display:inline;opacity:1;fill:#ffff00;stroke-width:1.0857;stroke-linecap:round;stroke-linejoin:round;stroke-miterlimit:12;paint-order:markers stroke fill"
             d="m 281.40414,40.284182 v 18.159597 l 27.36909,19.51072 z"
             sodipodi:nodetypes="cccc" />
          <path
             id="path82"
             style="display:inline;opacity:1;fill:#ffff00;stroke-width:1.0857;stroke-linecap:round;stroke-linejoin:round;stroke-miterlimit:12;paint-order:markers stroke fill"
             d="M 281.40414,40.284182 254.03505,77.954499 264.13333,45.895806 Z"
             sodipodi:nodetypes="cccc" />
          <path
             id="path83"
             style="display:inline;opacity:1;fill:#ffff00;stroke-width:1.0857;stroke-linecap:round;stroke-linejoin:round;stroke-miterlimit:12;paint-order:markers stroke fill"
             d="M 281.40414,40.284182 V -6.2788906 l 10.67395,31.8716496 z"
             sodipodi:nodetypes="cccc" />
          <path
             id="path84"
             style="display:inline;opacity:1;fill:#ffff00;stroke-width:1.0857;stroke-linecap:round;stroke-linejoin:round;stroke-miterlimit:12;paint-order:markers stroke fill"
             d="m 281.40414,40.284182 44.28412,-14.38878 -27.01331,20.000404 z"
             sodipodi:nodetypes="cccc" />
          <path
             id="path85"
             style="display:inline;opacity:1;fill:#ffff00;stroke-width:1.0857;stroke-linecap:round;stroke-linejoin:round;stroke-miterlimit:12;paint-order:markers stroke fill"
             d="M 281.40414,40.284182 270.73019,25.592759 237.12002,25.895402 Z"
             sodipodi:nodetypes="cccc" />
        </g>
        <path
           id="path98"
           style="baseline-shift:baseline;display:inline;overflow:visible;opacity:0.6;mix-blend-mode:normal;vector-effect:none;fill:url(#radialGradient110);stroke-width:1.08557;filter:url(#filter103);enable-background:accumulate;stop-color:#000000;stop-opacity:1"
           d="M 373.98485,0.81862218 V 47.018385 l -43.93789,-14.276131 -0.16174,0.502295 43.93685,14.275614 -27.15597,37.37653 0.42995,0.310575 27.1539,-37.374462 27.15441,37.374462 0.42788,-0.310575 -27.15338,-37.375496 43.93686,-14.276648 -0.16227,-0.502295 -43.93943,14.275614 V 0.81862218 Z"
           clip-path="url(#clipPath102)"
           transform="translate(-92.84633,-7.1751409)" />
        <path
           id="path104"
           style="baseline-shift:baseline;display:inline;overflow:visible;opacity:1;vector-effect:none;fill:url(#radialGradient108);fill-opacity:1;stroke-width:1.08557;stroke-linecap:round;stroke-linejoin:round;filter:url(#filter107);enable-background:accumulate;stop-color:#000000;stop-opacity:1"
           d="m 292.07106,25.327653 a 0.26458332,0.26458332 0 0 0 -0.20774,0.11007 L 281.40453,39.833744 270.94315,25.437723 a 0.26458332,0.26458332 0 0 0 -0.36897,-0.05891 0.26458332,0.26458332 0 0 0 -0.0584,0.369487 l 10.46035,14.39757 -16.92558,5.49889 a 0.26458332,0.26458332 0 0 0 -0.1695,0.333829 0.26458332,0.26458332 0 0 0 0.33383,0.167949 l 16.92403,-5.497856 V 58.44346 a 0.26458332,0.26458332 0 0 0 0.26562,0.265617 0.26458332,0.26458332 0 0 0 0.26355,-0.265617 V 40.648164 l 16.92558,5.498373 a 0.26458332,0.26458332 0 0 0 0.33228,-0.167949 0.26458332,0.26458332 0 0 0 -0.17002,-0.333829 l -16.92351,-5.49889 10.46034,-14.39757 a 0.26458332,0.26458332 0 0 0 -0.0584,-0.369487 0.26458332,0.26458332 0 0 0 -0.1633,-0.05116 z"
           clip-path="url(#clipPath107)" />
      </g>
    </g>
  </g>
</svg>
