<?xml version="1.0" encoding="UTF-8" standalone="no"?>
<!-- Created with Inkscape (http://www.inkscape.org/) -->

<svg
   width="512"
   height="512"
   viewBox="0 0 135.46666 135.46667"
   version="1.1"
   id="svg5"
   inkscape:version="1.4.2 (ebf0e940d0, 2025-05-08)"
   sodipodi:docname="audio-cd-new.svg"
   xmlns:inkscape="http://www.inkscape.org/namespaces/inkscape"
   xmlns:sodipodi="http://sodipodi.sourceforge.net/DTD/sodipodi-0.dtd"
   xmlns:xlink="http://www.w3.org/1999/xlink"
   xmlns="http://www.w3.org/2000/svg"
   xmlns:svg="http://www.w3.org/2000/svg"
   xmlns:rdf="http://www.w3.org/1999/02/22-rdf-syntax-ns#"
   xmlns:cc="http://creativecommons.org/ns#"
   xmlns:dc="http://purl.org/dc/elements/1.1/">&gt;
  <sodipodi:namedview
   id="namedview7"
   pagecolor="#292929"
   bordercolor="#666666"
   borderopacity="1"
   inkscape:showpageshadow="0"
   inkscape:pageopacity="0"
   inkscape:pagecheckerboard="1"
   inkscape:deskcolor="#1a1a1a"
   inkscape:document-units="px"
   showgrid="false"
   inkscape:zoom="1.3037281"
   inkscape:cx="293.3894"
   inkscape:cy="274.21362"
   inkscape:window-width="3256"
   inkscape:window-height="1080"
   inkscape:window-x="1864"
   inkscape:window-y="0"
   inkscape:window-maximized="0"
   inkscape:current-layer="layer1" />
<defs
   id="defs2">
  <linearGradient
     id="linearGradient229"
     inkscape:collect="always">
    <stop
       style="stop-color:#e0e0e0;stop-opacity:1;"
       offset="0"
       id="stop228" />
    <stop
       style="stop-color:#999999;stop-opacity:1;"
       offset="0.5"
       id="stop230" />
    <stop
       style="stop-color:#7a7a7a;stop-opacity:1;"
       offset="1"
       id="stop229" />
  </linearGradient>
  <linearGradient
     id="linearGradient147"
     inkscape:collect="always">
    <stop
       style="stop-color:#f9f9f9;stop-opacity:1;"
       offset="0"
       id="stop147" />
    <stop
       style="stop-color:#000000;stop-opacity:1;"
       offset="0.5"
       id="stop148" />
    <stop
       style="stop-color:#f9f9f9;stop-opacity:1;"
       offset="1"
       id="stop149" />
  </linearGradient>
  <linearGradient
     id="linearGradient141"
     inkscape:collect="always">
    <stop
       style="stop-color:#ffffff;stop-opacity:1;"
       offset="0"
       id="stop141" />
    <stop
       style="stop-color:#000000;stop-opacity:1;"
       offset="0.47999999"
       id="stop142" />
    <stop
       style="stop-color:#ffffff;stop-opacity:1;"
       offset="1"
       id="stop143" />
  </linearGradient>
  <linearGradient
     id="linearGradient16"
     inkscape:collect="always">
    <stop
       style="stop-color:#f9f9f9;stop-opacity:1;"
       offset="0"
       id="stop16" />
    <stop
       style="stop-color:#c6bad7;stop-opacity:1;"
       offset="1"
       id="stop17" />
  </linearGradient>
  <clipPath
     clipPathUnits="userSpaceOnUse"
     id="clipPath15">
    <path
       id="path16"
       style="fill:#f9f9f9;stroke-width:2.11667;stroke-linecap:round;stroke-linejoin:round;paint-order:markers stroke fill"
       d="M 67.733334,-4.7653648e-8 A 67.73333,67.73333 0 0 0 1.1760243e-6,67.733333 67.73333,67.73333 0 0 0 67.733334,135.46666 67.73333,67.73333 0 0 0 135.46666,67.733333 67.73333,67.73333 0 0 0 67.733334,-4.7653648e-8 Z M 67.733334,47.824469 A 19.909014,19.909014 0 0 1 87.642197,67.733333 19.909014,19.909014 0 0 1 67.733334,87.642194 19.909014,19.909014 0 0 1 47.824473,67.733333 19.909014,19.909014 0 0 1 67.733334,47.824469 Z" />
  </clipPath>
  <linearGradient
     inkscape:collect="always"
     xlink:href="#linearGradient229"
     id="linearGradient17"
     x1="0"
     y1="0"
     x2="135.46666"
     y2="135.46666"
     gradientUnits="userSpaceOnUse"
     gradientTransform="matrix(0.97656254,0,0,0.97656254,1.594192,1.587495)" />
  <clipPath
     clipPathUnits="userSpaceOnUse"
     id="clipPath26">
    <g
       id="g27"
       style="stroke-width:0.999999">
      <path
         id="path27"
         style="fill:#f9f9f9;stroke-width:2.11667;stroke-linecap:round;stroke-linejoin:round;paint-order:markers stroke fill"
         d="M 67.733334,-4.7653648e-8 A 67.73333,67.73333 0 0 0 1.1760243e-6,67.733333 67.73333,67.73333 0 0 0 67.733334,135.46666 67.73333,67.73333 0 0 0 135.46666,67.733333 67.73333,67.73333 0 0 0 67.733334,-4.7653648e-8 Z M 67.733334,47.824469 A 19.909014,19.909014 0 0 1 87.642197,67.733333 19.909014,19.909014 0 0 1 67.733334,87.642194 19.909014,19.909014 0 0 1 47.824473,67.733333 19.909014,19.909014 0 0 1 67.733334,47.824469 Z" />
    </g>
  </clipPath>
  <clipPath
     clipPathUnits="userSpaceOnUse"
     id="clipPath27">
    <g
       id="g28"
       style="stroke-width:0.999999">
      <path
         id="path28"
         style="fill:#f9f9f9;stroke-width:2.11667;stroke-linecap:round;stroke-linejoin:round;paint-order:markers stroke fill"
         d="M 67.733334,-4.7653648e-8 A 67.73333,67.73333 0 0 0 1.1760243e-6,67.733333 67.73333,67.73333 0 0 0 67.733334,135.46666 67.73333,67.73333 0 0 0 135.46666,67.733333 67.73333,67.73333 0 0 0 67.733334,-4.7653648e-8 Z M 67.733334,47.824469 A 19.909014,19.909014 0 0 1 87.642197,67.733333 19.909014,19.909014 0 0 1 67.733334,87.642194 19.909014,19.909014 0 0 1 47.824473,67.733333 19.909014,19.909014 0 0 1 67.733334,47.824469 Z" />
    </g>
  </clipPath>
  <clipPath
     clipPathUnits="userSpaceOnUse"
     id="clipPath28">
    <g
       id="g29"
       style="stroke-width:0.999999">
      <path
         id="path29"
         style="fill:#f9f9f9;stroke-width:2.11667;stroke-linecap:round;stroke-linejoin:round;paint-order:markers stroke fill"
         d="M 67.733334,-4.7653648e-8 A 67.73333,67.73333 0 0 0 1.1760243e-6,67.733333 67.73333,67.73333 0 0 0 67.733334,135.46666 67.73333,67.73333 0 0 0 135.46666,67.733333 67.73333,67.73333 0 0 0 67.733334,-4.7653648e-8 Z M 67.733334,47.824469 A 19.909014,19.909014 0 0 1 87.642197,67.733333 19.909014,19.909014 0 0 1 67.733334,87.642194 19.909014,19.909014 0 0 1 47.824473,67.733333 19.909014,19.909014 0 0 1 67.733334,47.824469 Z" />
    </g>
  </clipPath>
  <clipPath
     clipPathUnits="userSpaceOnUse"
     id="clipPath29">
    <g
       id="g30"
       style="stroke-width:0.999999">
      <path
         id="path30"
         style="fill:#f9f9f9;stroke-width:2.11667;stroke-linecap:round;stroke-linejoin:round;paint-order:markers stroke fill"
         d="M 67.733334,-4.7653648e-8 A 67.73333,67.73333 0 0 0 1.1760243e-6,67.733333 67.73333,67.73333 0 0 0 67.733334,135.46666 67.73333,67.73333 0 0 0 135.46666,67.733333 67.73333,67.73333 0 0 0 67.733334,-4.7653648e-8 Z M 67.733334,47.824469 A 19.909014,19.909014 0 0 1 87.642197,67.733333 19.909014,19.909014 0 0 1 67.733334,87.642194 19.909014,19.909014 0 0 1 47.824473,67.733333 19.909014,19.909014 0 0 1 67.733334,47.824469 Z" />
    </g>
  </clipPath>
  <clipPath
     clipPathUnits="userSpaceOnUse"
     id="clipPath30">
    <g
       id="g31"
       style="stroke-width:0.999999">
      <path
         id="path31"
         style="fill:#f9f9f9;stroke-width:2.11667;stroke-linecap:round;stroke-linejoin:round;paint-order:markers stroke fill"
         d="M 67.733334,-4.7653648e-8 A 67.73333,67.73333 0 0 0 1.1760243e-6,67.733333 67.73333,67.73333 0 0 0 67.733334,135.46666 67.73333,67.73333 0 0 0 135.46666,67.733333 67.73333,67.73333 0 0 0 67.733334,-4.7653648e-8 Z M 67.733334,47.824469 A 19.909014,19.909014 0 0 1 87.642197,67.733333 19.909014,19.909014 0 0 1 67.733334,87.642194 19.909014,19.909014 0 0 1 47.824473,67.733333 19.909014,19.909014 0 0 1 67.733334,47.824469 Z" />
    </g>
  </clipPath>
  <clipPath
     clipPathUnits="userSpaceOnUse"
     id="clipPath31">
    <g
       id="g32"
       style="stroke-width:0.999999">
      <path
         id="path32"
         style="fill:#f9f9f9;stroke-width:2.11667;stroke-linecap:round;stroke-linejoin:round;paint-order:markers stroke fill"
         d="M 67.733334,-4.7653648e-8 A 67.73333,67.73333 0 0 0 1.1760243e-6,67.733333 67.73333,67.73333 0 0 0 67.733334,135.46666 67.73333,67.73333 0 0 0 135.46666,67.733333 67.73333,67.73333 0 0 0 67.733334,-4.7653648e-8 Z M 67.733334,47.824469 A 19.909014,19.909014 0 0 1 87.642197,67.733333 19.909014,19.909014 0 0 1 67.733334,87.642194 19.909014,19.909014 0 0 1 47.824473,67.733333 19.909014,19.909014 0 0 1 67.733334,47.824469 Z" />
    </g>
  </clipPath>
  <clipPath
     clipPathUnits="userSpaceOnUse"
     id="clipPath32">
    <g
       id="g33"
       style="stroke-width:0.999999">
      <path
         id="path33"
         style="fill:#f9f9f9;stroke-width:2.11667;stroke-linecap:round;stroke-linejoin:round;paint-order:markers stroke fill"
         d="M 67.733334,-4.7653648e-8 A 67.73333,67.73333 0 0 0 1.1760243e-6,67.733333 67.73333,67.73333 0 0 0 67.733334,135.46666 67.73333,67.73333 0 0 0 135.46666,67.733333 67.73333,67.73333 0 0 0 67.733334,-4.7653648e-8 Z M 67.733334,47.824469 A 19.909014,19.909014 0 0 1 87.642197,67.733333 19.909014,19.909014 0 0 1 67.733334,87.642194 19.909014,19.909014 0 0 1 47.824473,67.733333 19.909014,19.909014 0 0 1 67.733334,47.824469 Z" />
    </g>
  </clipPath>
  <clipPath
     clipPathUnits="userSpaceOnUse"
     id="clipPath33">
    <g
       id="g34"
       style="stroke-width:0.999999">
      <path
         id="path34"
         style="fill:#f9f9f9;stroke-width:2.11667;stroke-linecap:round;stroke-linejoin:round;paint-order:markers stroke fill"
         d="M 67.733334,-4.7653648e-8 A 67.73333,67.73333 0 0 0 1.1760243e-6,67.733333 67.73333,67.73333 0 0 0 67.733334,135.46666 67.73333,67.73333 0 0 0 135.46666,67.733333 67.73333,67.73333 0 0 0 67.733334,-4.7653648e-8 Z M 67.733334,47.824469 A 19.909014,19.909014 0 0 1 87.642197,67.733333 19.909014,19.909014 0 0 1 67.733334,87.642194 19.909014,19.909014 0 0 1 47.824473,67.733333 19.909014,19.909014 0 0 1 67.733334,47.824469 Z" />
    </g>
  </clipPath>
  <clipPath
     clipPathUnits="userSpaceOnUse"
     id="clipPath34">
    <g
       id="g35"
       style="stroke-width:0.999999">
      <path
         id="path35"
         style="fill:#f9f9f9;stroke-width:2.11667;stroke-linecap:round;stroke-linejoin:round;paint-order:markers stroke fill"
         d="M 67.733334,-4.7653648e-8 A 67.73333,67.73333 0 0 0 1.1760243e-6,67.733333 67.73333,67.73333 0 0 0 67.733334,135.46666 67.73333,67.73333 0 0 0 135.46666,67.733333 67.73333,67.73333 0 0 0 67.733334,-4.7653648e-8 Z M 67.733334,47.824469 A 19.909014,19.909014 0 0 1 87.642197,67.733333 19.909014,19.909014 0 0 1 67.733334,87.642194 19.909014,19.909014 0 0 1 47.824473,67.733333 19.909014,19.909014 0 0 1 67.733334,47.824469 Z" />
    </g>
  </clipPath>
  <clipPath
     clipPathUnits="userSpaceOnUse"
     id="clipPath79">
    <g
       id="g80"
       style="stroke-width:0.999999">
      <path
         id="path80"
         style="fill:url(#linearGradient80);stroke-width:2.11667;stroke-linecap:round;stroke-linejoin:round;paint-order:markers stroke fill"
         d="M -66.152269,-0.10169402 A 66.139139,66.145833 0 0 0 -132.29141,66.044141 66.139139,66.145833 0 0 0 -66.152269,132.18997 66.139139,66.145833 0 0 0 -0.01313124,66.044141 66.139139,66.145833 0 0 0 -66.152269,-0.10169402 Z m 0,46.70358502 a 19.44043,19.442397 0 0 1 19.440284,19.44225 19.44043,19.442397 0 0 1 -19.440284,19.442251 19.44043,19.442397 0 0 1 -19.440282,-19.442251 19.44043,19.442397 0 0 1 19.440282,-19.44225 z" />
    </g>
  </clipPath>
  <linearGradient
     inkscape:collect="always"
     xlink:href="#linearGradient16"
     id="linearGradient80"
     gradientUnits="userSpaceOnUse"
     gradientTransform="matrix(0.97646372,0,0,0.97656254,-132.29141,-0.10169402)"
     x1="0"
     y1="0"
     x2="135.46666"
     y2="135.46666" />
  <clipPath
     clipPathUnits="userSpaceOnUse"
     id="clipPath80">
    <g
       id="g81"
       style="stroke-width:0.999999">
      <path
         id="path81"
         style="fill:url(#linearGradient81);stroke-width:2.11667;stroke-linecap:round;stroke-linejoin:round;paint-order:markers stroke fill"
         d="M -66.152269,-0.10169402 A 66.139139,66.145833 0 0 0 -132.29141,66.044141 66.139139,66.145833 0 0 0 -66.152269,132.18997 66.139139,66.145833 0 0 0 -0.01313124,66.044141 66.139139,66.145833 0 0 0 -66.152269,-0.10169402 Z m 0,46.70358502 a 19.44043,19.442397 0 0 1 19.440284,19.44225 19.44043,19.442397 0 0 1 -19.440284,19.442251 19.44043,19.442397 0 0 1 -19.440282,-19.442251 19.44043,19.442397 0 0 1 19.440282,-19.44225 z" />
    </g>
  </clipPath>
  <linearGradient
     inkscape:collect="always"
     xlink:href="#linearGradient16"
     id="linearGradient81"
     gradientUnits="userSpaceOnUse"
     gradientTransform="matrix(0.97646372,0,0,0.97656254,-132.29141,-0.10169402)"
     x1="0"
     y1="0"
     x2="135.46666"
     y2="135.46666" />
  <clipPath
     clipPathUnits="userSpaceOnUse"
     id="clipPath81">
    <g
       id="g82"
       style="stroke-width:0.999999">
      <path
         id="path82"
         style="fill:url(#linearGradient82);stroke-width:2.11667;stroke-linecap:round;stroke-linejoin:round;paint-order:markers stroke fill"
         d="M -66.152269,-0.10169402 A 66.139139,66.145833 0 0 0 -132.29141,66.044141 66.139139,66.145833 0 0 0 -66.152269,132.18997 66.139139,66.145833 0 0 0 -0.01313124,66.044141 66.139139,66.145833 0 0 0 -66.152269,-0.10169402 Z m 0,46.70358502 a 19.44043,19.442397 0 0 1 19.440284,19.44225 19.44043,19.442397 0 0 1 -19.440284,19.442251 19.44043,19.442397 0 0 1 -19.440282,-19.442251 19.44043,19.442397 0 0 1 19.440282,-19.44225 z" />
    </g>
  </clipPath>
  <linearGradient
     inkscape:collect="always"
     xlink:href="#linearGradient16"
     id="linearGradient82"
     gradientUnits="userSpaceOnUse"
     gradientTransform="matrix(0.97646372,0,0,0.97656254,-132.29141,-0.10169402)"
     x1="0"
     y1="0"
     x2="135.46666"
     y2="135.46666" />
  <clipPath
     clipPathUnits="userSpaceOnUse"
     id="clipPath82">
    <g
       id="g83"
       style="stroke-width:0.999999">
      <path
         id="path83"
         style="fill:url(#linearGradient83);stroke-width:2.11667;stroke-linecap:round;stroke-linejoin:round;paint-order:markers stroke fill"
         d="M -66.152269,-0.10169402 A 66.139139,66.145833 0 0 0 -132.29141,66.044141 66.139139,66.145833 0 0 0 -66.152269,132.18997 66.139139,66.145833 0 0 0 -0.01313124,66.044141 66.139139,66.145833 0 0 0 -66.152269,-0.10169402 Z m 0,46.70358502 a 19.44043,19.442397 0 0 1 19.440284,19.44225 19.44043,19.442397 0 0 1 -19.440284,19.442251 19.44043,19.442397 0 0 1 -19.440282,-19.442251 19.44043,19.442397 0 0 1 19.440282,-19.44225 z" />
    </g>
  </clipPath>
  <linearGradient
     inkscape:collect="always"
     xlink:href="#linearGradient16"
     id="linearGradient83"
     gradientUnits="userSpaceOnUse"
     gradientTransform="matrix(0.97646372,0,0,0.97656254,-132.29141,-0.10169402)"
     x1="0"
     y1="0"
     x2="135.46666"
     y2="135.46666" />
  <clipPath
     clipPathUnits="userSpaceOnUse"
     id="clipPath83">
    <g
       id="g84"
       style="stroke-width:0.999999">
      <path
         id="path84"
         style="fill:url(#linearGradient84);stroke-width:2.11667;stroke-linecap:round;stroke-linejoin:round;paint-order:markers stroke fill"
         d="M -66.152269,-0.10169402 A 66.139139,66.145833 0 0 0 -132.29141,66.044141 66.139139,66.145833 0 0 0 -66.152269,132.18997 66.139139,66.145833 0 0 0 -0.01313124,66.044141 66.139139,66.145833 0 0 0 -66.152269,-0.10169402 Z m 0,46.70358502 a 19.44043,19.442397 0 0 1 19.440284,19.44225 19.44043,19.442397 0 0 1 -19.440284,19.442251 19.44043,19.442397 0 0 1 -19.440282,-19.442251 19.44043,19.442397 0 0 1 19.440282,-19.44225 z" />
    </g>
  </clipPath>
  <linearGradient
     inkscape:collect="always"
     xlink:href="#linearGradient16"
     id="linearGradient84"
     gradientUnits="userSpaceOnUse"
     gradientTransform="matrix(0.97646372,0,0,0.97656254,-132.29141,-0.10169402)"
     x1="0"
     y1="0"
     x2="135.46666"
     y2="135.46666" />
  <clipPath
     clipPathUnits="userSpaceOnUse"
     id="clipPath84">
    <g
       id="g85"
       style="stroke-width:0.999999">
      <path
         id="path85"
         style="fill:url(#linearGradient85);stroke-width:2.11667;stroke-linecap:round;stroke-linejoin:round;paint-order:markers stroke fill"
         d="M -66.152269,-0.10169402 A 66.139139,66.145833 0 0 0 -132.29141,66.044141 66.139139,66.145833 0 0 0 -66.152269,132.18997 66.139139,66.145833 0 0 0 -0.01313124,66.044141 66.139139,66.145833 0 0 0 -66.152269,-0.10169402 Z m 0,46.70358502 a 19.44043,19.442397 0 0 1 19.440284,19.44225 19.44043,19.442397 0 0 1 -19.440284,19.442251 19.44043,19.442397 0 0 1 -19.440282,-19.442251 19.44043,19.442397 0 0 1 19.440282,-19.44225 z" />
    </g>
  </clipPath>
  <linearGradient
     inkscape:collect="always"
     xlink:href="#linearGradient16"
     id="linearGradient85"
     gradientUnits="userSpaceOnUse"
     gradientTransform="matrix(0.97646372,0,0,0.97656254,-132.29141,-0.10169402)"
     x1="0"
     y1="0"
     x2="135.46666"
     y2="135.46666" />
  <clipPath
     clipPathUnits="userSpaceOnUse"
     id="clipPath96">
    <g
       id="g96"
       style="stroke-width:0.99995"
       transform="matrix(1.0000885,-2.1907558e-5,-2.1906218e-5,1.0000127,0.01345296,-0.00346744)">
      <path
         id="path96"
         style="fill:url(#linearGradient96);stroke-width:2.11656;stroke-linecap:round;stroke-linejoin:round;paint-order:markers stroke fill"
         d="M -66.152269,-0.10169402 A 66.139139,66.145833 0 0 0 -132.29141,66.044141 66.139139,66.145833 0 0 0 -66.152269,132.18997 66.139139,66.145833 0 0 0 -0.01313124,66.044141 66.139139,66.145833 0 0 0 -66.152269,-0.10169402 Z m 0,46.70358502 a 19.44043,19.442397 0 0 1 19.440284,19.44225 19.44043,19.442397 0 0 1 -19.440284,19.442251 19.44043,19.442397 0 0 1 -19.440282,-19.442251 19.44043,19.442397 0 0 1 19.440282,-19.44225 z" />
    </g>
  </clipPath>
  <linearGradient
     inkscape:collect="always"
     xlink:href="#linearGradient16"
     id="linearGradient96"
     gradientUnits="userSpaceOnUse"
     gradientTransform="matrix(0.97646372,0,0,0.97656254,-132.29141,-0.10169402)"
     x1="0"
     y1="0"
     x2="135.46666"
     y2="135.46666" />
  <clipPath
     clipPathUnits="userSpaceOnUse"
     id="clipPath102">
    <g
       id="g103"
       style="opacity:0.226703;fill:#ff00cc;stroke-width:0.99995"
       transform="matrix(1.0000885,-2.1904085e-5,-2.1909593e-5,1.0000127,0.34888363,0.7317687)">
      <path
         id="path103"
         style="fill:#ff00cc;stroke-width:2.11656;stroke-linecap:round;stroke-linejoin:round;paint-order:markers stroke fill"
         d="M -66.152269,-0.10169402 A 66.139139,66.145833 0 0 0 -132.29141,66.044141 66.139139,66.145833 0 0 0 -66.152269,132.18997 66.139139,66.145833 0 0 0 -0.01313124,66.044141 66.139139,66.145833 0 0 0 -66.152269,-0.10169402 Z m 0,46.70358502 a 19.44043,19.442397 0 0 1 19.440284,19.44225 19.44043,19.442397 0 0 1 -19.440284,19.442251 19.44043,19.442397 0 0 1 -19.440282,-19.442251 19.44043,19.442397 0 0 1 19.440282,-19.44225 z" />
    </g>
  </clipPath>
  <linearGradient
     inkscape:collect="always"
     xlink:href="#linearGradient141"
     id="linearGradient146"
     gradientUnits="userSpaceOnUse"
     gradientTransform="rotate(-15,-2.8985081,-268.32113)"
     x1="-41.090813"
     y1="74.563065"
     x2="-2.210248"
     y2="74.563065" />
  <linearGradient
     inkscape:collect="always"
     xlink:href="#linearGradient147"
     id="linearGradient148"
     x1="61.072482"
     y1="67.733906"
     x2="74.394162"
     y2="67.733906"
     gradientUnits="userSpaceOnUse"
     gradientTransform="rotate(104.84002,67.732972,67.733826)" />
  <clipPath
     clipPathUnits="userSpaceOnUse"
     id="clipPath237">
    <path
       style="color:#000000;display:inline;opacity:1;mix-blend-mode:normal;fill:#ffffff;fill-opacity:1;stroke-width:0.999998;stroke-linecap:round;stroke-linejoin:round;-inkscape-stroke:none;paint-order:markers stroke fill"
       d="M 67.753925,1.5874965 A 66.145833,66.145833 0 0 0 1.6080902,67.73333 66.145833,66.145833 0 0 0 67.753925,133.87917 66.145833,66.145833 0 0 0 133.89976,67.73333 66.145833,66.145833 0 0 0 67.753925,1.5874965 Z m 0,46.7035835 A 19.442397,19.442397 0 0 1 87.196191,67.73333 19.442397,19.442397 0 0 1 67.753925,87.175577 19.442397,19.442397 0 0 1 48.311675,67.73333 19.442397,19.442397 0 0 1 67.753925,48.29108 Z"
       id="path238" />
  </clipPath>
  <clipPath
     clipPathUnits="userSpaceOnUse"
     id="clipPath3">
    <g
       id="g4"
       style="stroke-width:0.976512"
       transform="matrix(1.0241036,0,0,1.024,-1.6260233,-1.6255996)">
      <path
         id="path3"
         style="fill:url(#linearGradient4);stroke-width:2.06696;stroke-linecap:round;stroke-linejoin:round;paint-order:markers stroke fill"
         d="M 67.726894,1.5874997 A 66.139139,66.145833 0 0 0 1.5877528,67.733334 66.139139,66.145833 0 0 0 67.726894,133.87917 66.139139,66.145833 0 0 0 133.86603,67.733334 66.139139,66.145833 0 0 0 67.726894,1.5874997 Z m 0,46.7035853 A 19.44043,19.442397 0 0 1 87.167178,67.733334 19.44043,19.442397 0 0 1 67.726894,87.175585 19.44043,19.442397 0 0 1 48.286612,67.733334 19.44043,19.442397 0 0 1 67.726894,48.291085 Z" />
    </g>
  </clipPath>
  <linearGradient
     inkscape:collect="always"
     xlink:href="#linearGradient16"
     id="linearGradient4"
     gradientUnits="userSpaceOnUse"
     gradientTransform="matrix(0.97646372,0,0,0.97656254,1.5877528,1.5874997)"
     x1="0"
     y1="0"
     x2="135.46666"
     y2="135.46666" />
  <clipPath
     clipPathUnits="userSpaceOnUse"
     id="clipPath4">
    <g
       id="g5"
       style="stroke-width:0.976512"
       transform="matrix(1.0241036,0,0,1.024,-1.6260233,-1.6255996)">
      <path
         id="path4"
         style="fill:url(#linearGradient5);stroke-width:2.06696;stroke-linecap:round;stroke-linejoin:round;paint-order:markers stroke fill"
         d="M 67.726894,1.5874997 A 66.139139,66.145833 0 0 0 1.5877528,67.733334 66.139139,66.145833 0 0 0 67.726894,133.87917 66.139139,66.145833 0 0 0 133.86603,67.733334 66.139139,66.145833 0 0 0 67.726894,1.5874997 Z m 0,46.7035853 A 19.44043,19.442397 0 0 1 87.167178,67.733334 19.44043,19.442397 0 0 1 67.726894,87.175585 19.44043,19.442397 0 0 1 48.286612,67.733334 19.44043,19.442397 0 0 1 67.726894,48.291085 Z" />
    </g>
  </clipPath>
  <linearGradient
     inkscape:collect="always"
     xlink:href="#linearGradient16"
     id="linearGradient5"
     gradientUnits="userSpaceOnUse"
     gradientTransform="matrix(0.97646372,0,0,0.97656254,1.5877528,1.5874997)"
     x1="0"
     y1="0"
     x2="135.46666"
     y2="135.46666" />
  <clipPath
     clipPathUnits="userSpaceOnUse"
     id="clipPath5">
    <g
       id="g6"
       style="stroke-width:0.976512"
       transform="matrix(1.0241036,0,0,1.024,-1.6260233,-1.6255996)">
      <path
         id="path5"
         style="fill:url(#linearGradient6);stroke-width:2.06696;stroke-linecap:round;stroke-linejoin:round;paint-order:markers stroke fill"
         d="M 67.726894,1.5874997 A 66.139139,66.145833 0 0 0 1.5877528,67.733334 66.139139,66.145833 0 0 0 67.726894,133.87917 66.139139,66.145833 0 0 0 133.86603,67.733334 66.139139,66.145833 0 0 0 67.726894,1.5874997 Z m 0,46.7035853 A 19.44043,19.442397 0 0 1 87.167178,67.733334 19.44043,19.442397 0 0 1 67.726894,87.175585 19.44043,19.442397 0 0 1 48.286612,67.733334 19.44043,19.442397 0 0 1 67.726894,48.291085 Z" />
    </g>
  </clipPath>
  <linearGradient
     inkscape:collect="always"
     xlink:href="#linearGradient16"
     id="linearGradient6"
     gradientUnits="userSpaceOnUse"
     gradientTransform="matrix(0.97646372,0,0,0.97656254,1.5877528,1.5874997)"
     x1="0"
     y1="0"
     x2="135.46666"
     y2="135.46666" />
  <clipPath
     clipPathUnits="userSpaceOnUse"
     id="clipPath6">
    <g
       id="g7"
       style="stroke-width:0.999999">
      <path
         id="path6"
         style="fill:url(#linearGradient7);stroke-width:2.11667;stroke-linecap:round;stroke-linejoin:round;paint-order:markers stroke fill"
         d="M 67.726894,1.5874997 A 66.139139,66.145833 0 0 0 1.5877528,67.733334 66.139139,66.145833 0 0 0 67.726894,133.87917 66.139139,66.145833 0 0 0 133.86603,67.733334 66.139139,66.145833 0 0 0 67.726894,1.5874997 Z m 0,46.7035853 A 19.44043,19.442397 0 0 1 87.167178,67.733334 19.44043,19.442397 0 0 1 67.726894,87.175585 19.44043,19.442397 0 0 1 48.286612,67.733334 19.44043,19.442397 0 0 1 67.726894,48.291085 Z" />
    </g>
  </clipPath>
  <linearGradient
     inkscape:collect="always"
     xlink:href="#linearGradient16"
     id="linearGradient7"
     gradientUnits="userSpaceOnUse"
     gradientTransform="matrix(0.97646372,0,0,0.97656254,1.5877528,1.5874997)"
     x1="0"
     y1="0"
     x2="135.46666"
     y2="135.46666" />
  <clipPath
     clipPathUnits="userSpaceOnUse"
     id="clipPath7">
    <g
       id="g8"
       style="stroke-width:0.976512"
       transform="matrix(1.0241036,0,0,1.024,-1.6260233,-1.6255996)">
      <path
         id="path7"
         style="fill:url(#linearGradient8);stroke-width:2.06696;stroke-linecap:round;stroke-linejoin:round;paint-order:markers stroke fill"
         d="M 67.726894,1.5874997 A 66.139139,66.145833 0 0 0 1.5877528,67.733334 66.139139,66.145833 0 0 0 67.726894,133.87917 66.139139,66.145833 0 0 0 133.86603,67.733334 66.139139,66.145833 0 0 0 67.726894,1.5874997 Z m 0,46.7035853 A 19.44043,19.442397 0 0 1 87.167178,67.733334 19.44043,19.442397 0 0 1 67.726894,87.175585 19.44043,19.442397 0 0 1 48.286612,67.733334 19.44043,19.442397 0 0 1 67.726894,48.291085 Z" />
    </g>
  </clipPath>
  <linearGradient
     inkscape:collect="always"
     xlink:href="#linearGradient16"
     id="linearGradient8"
     gradientUnits="userSpaceOnUse"
     gradientTransform="matrix(0.97646372,0,0,0.97656254,1.5877528,1.5874997)"
     x1="0"
     y1="0"
     x2="135.46666"
     y2="135.46666" />
  <clipPath
     clipPathUnits="userSpaceOnUse"
     id="clipPath8">
    <g
       id="g9"
       style="stroke-width:0.976512"
       transform="matrix(1.0241036,0,0,1.024,-1.6260233,-1.6255996)">
      <path
         id="path8"
         style="fill:url(#linearGradient9);stroke-width:2.06696;stroke-linecap:round;stroke-linejoin:round;paint-order:markers stroke fill"
         d="M 67.726894,1.5874997 A 66.139139,66.145833 0 0 0 1.5877528,67.733334 66.139139,66.145833 0 0 0 67.726894,133.87917 66.139139,66.145833 0 0 0 133.86603,67.733334 66.139139,66.145833 0 0 0 67.726894,1.5874997 Z m 0,46.7035853 A 19.44043,19.442397 0 0 1 87.167178,67.733334 19.44043,19.442397 0 0 1 67.726894,87.175585 19.44043,19.442397 0 0 1 48.286612,67.733334 19.44043,19.442397 0 0 1 67.726894,48.291085 Z" />
    </g>
  </clipPath>
  <linearGradient
     inkscape:collect="always"
     xlink:href="#linearGradient16"
     id="linearGradient9"
     gradientUnits="userSpaceOnUse"
     gradientTransform="matrix(0.97646372,0,0,0.97656254,1.5877528,1.5874997)"
     x1="0"
     y1="0"
     x2="135.46666"
     y2="135.46666" />
  <clipPath
     clipPathUnits="userSpaceOnUse"
     id="clipPath9">
    <g
       id="g10"
       style="stroke-width:0.976512"
       transform="matrix(1.0241036,0,0,1.024,-1.6260233,-1.6255996)">
      <path
         id="path9"
         style="fill:url(#linearGradient10);stroke-width:2.06696;stroke-linecap:round;stroke-linejoin:round;paint-order:markers stroke fill"
         d="M 67.726894,1.5874997 A 66.139139,66.145833 0 0 0 1.5877528,67.733334 66.139139,66.145833 0 0 0 67.726894,133.87917 66.139139,66.145833 0 0 0 133.86603,67.733334 66.139139,66.145833 0 0 0 67.726894,1.5874997 Z m 0,46.7035853 A 19.44043,19.442397 0 0 1 87.167178,67.733334 19.44043,19.442397 0 0 1 67.726894,87.175585 19.44043,19.442397 0 0 1 48.286612,67.733334 19.44043,19.442397 0 0 1 67.726894,48.291085 Z" />
    </g>
  </clipPath>
  <linearGradient
     inkscape:collect="always"
     xlink:href="#linearGradient16"
     id="linearGradient10"
     gradientUnits="userSpaceOnUse"
     gradientTransform="matrix(0.97646372,0,0,0.97656254,1.5877528,1.5874997)"
     x1="0"
     y1="0"
     x2="135.46666"
     y2="135.46666" />
  <filter
     inkscape:collect="always"
     style="color-interpolation-filters:sRGB"
     id="filter17"
     x="-0.42243153"
     y="-0.13310539"
     width="1.8448631"
     height="1.2662108">
    <feGaussianBlur
       inkscape:collect="always"
       stdDeviation="3.5877349"
       id="feGaussianBlur17" />
  </filter>
  <filter
     inkscape:collect="always"
     style="color-interpolation-filters:sRGB"
     id="filter21"
     x="-0.20885021"
     y="-0.065807321"
     width="1.4177004"
     height="1.1316146">
    <feGaussianBlur
       inkscape:collect="always"
       stdDeviation="1.7737766"
       id="feGaussianBlur21" />
  </filter>
</defs>
<g
   inkscape:label="Layer 1"
   inkscape:groupmode="layer"
   id="layer1"
   style="display:inline">
  <path
     style="color:#000000;display:inline;fill:#ffffff;fill-opacity:0.4;stroke-linecap:round;stroke-linejoin:round;-inkscape-stroke:none;paint-order:markers stroke fill"
     d="M 67.726562,0 C 30.340922,-1.2436922e-6 -7.347552e-7,30.343259 0,67.732422 -1.6955889e-6,105.12159 30.340922,135.4668 67.726562,135.4668 c 37.385638,0 67.726568,-30.34522 67.726558,-67.734378 C 135.45313,30.343261 105.1122,1.6959438e-6 67.726562,0 Z m 0,3.1757813 c 35.669568,1.6e-6 64.552738,28.8832067 64.552738,64.5566407 0,35.673438 -28.88317,64.558588 -64.552738,64.558598 -35.669565,0 -64.5507824,-28.88516 -64.5507807,-64.558598 C 3.1757805,32.058986 32.056997,3.1757801 67.726562,3.1757813 Z"
     id="path70"
     sodipodi:nodetypes="ssssssssss"
     sodipodi:insensitive="true" />
  <path
     style="color:#000000;display:inline;fill:url(#linearGradient17);stroke-width:1;stroke-linecap:round;stroke-linejoin:round;-inkscape-stroke:none;paint-order:markers stroke fill"
     d="M 67.740025,1.587495 A 66.145832,66.145833 0 0 0 1.594192,67.73333 66.145832,66.145833 0 0 0 67.740025,133.87917 66.145832,66.145833 0 0 0 133.88586,67.73333 66.145832,66.145833 0 0 0 67.740025,1.587495 Z m 0,46.703587 A 19.442397,19.442397 0 0 1 87.182281,67.73333 19.442397,19.442397 0 0 1 67.740025,87.17558 19.442397,19.442397 0 0 1 48.297778,67.73333 19.442397,19.442397 0 0 1 67.740025,48.291082 Z"
     id="path71" />
  <path
     id="path2"
     style="display:inline;opacity:0.4;fill:#f9f9f9;stroke-width:2.11667;stroke-linecap:round;stroke-linejoin:round;paint-order:markers stroke fill"
     d="M 67.726894,48.291086 A 19.44043,19.442397 0 0 0 48.286613,67.733335 19.44043,19.442397 0 0 0 67.726894,87.176088 19.44043,19.442397 0 0 0 87.167176,67.733335 19.44043,19.442397 0 0 0 67.726894,48.291086 Z m 0,12.782348 a 6.6592258,6.6598997 0 0 1 6.659228,6.659901 6.6592258,6.6598997 0 0 1 -6.659228,6.659901 6.6592258,6.6598997 0 0 1 -6.659228,-6.659901 6.6592258,6.6598997 0 0 1 6.659228,-6.659901 z"
     sodipodi:insensitive="true" />
  <path
     id="path17"
     style="display:none;opacity:0.32;mix-blend-mode:normal;fill:#54ff00;fill-opacity:1;stroke-width:2.11667;stroke-linecap:round;stroke-linejoin:round;paint-order:markers stroke fill;filter:url(#filter17)"
     d="M -66.152333,66.044155 -86.535669,3.1162978 c 1.074087,-0.3469941 2.162673,-0.6686497 3.265266,-0.9641187 1.102593,-0.2954689 2.206147,-0.5612546 3.309814,-0.7978469 z"
     sodipodi:nodetypes="ccscc"
     inkscape:transform-center-y="32.206404"
     inkscape:transform-center-x="-13.814358"
     clip-path="url(#clipPath102)"
     transform="rotate(174.06894,0.93703313,70.741701)" />
  <path
     id="path21"
     style="display:none;opacity:0.1;mix-blend-mode:hard-light;fill:#0014ff;fill-opacity:1;stroke-width:2.11667;stroke-linecap:round;stroke-linejoin:round;paint-order:markers stroke fill;filter:url(#filter21)"
     d="M -66.152333,66.044155 -86.535669,3.1162978 c 1.074087,-0.3469941 2.162673,-0.6686497 3.265266,-0.9641187 1.102593,-0.2954689 2.206147,-0.5612546 3.309814,-0.7978469 z"
     sodipodi:nodetypes="ccscc"
     inkscape:transform-center-y="-6.650953"
     inkscape:transform-center-x="-33.754062"
     clip-path="url(#clipPath102)"
     transform="rotate(96.812987,0.56383008,126.53862)" />
</g>
<g
   inkscape:groupmode="layer"
   id="layer3"
   inkscape:label="overlay"
   style="display:inline">
  <path
     id="path145"
     style="color:#000000;display:inline;opacity:0.4;fill:url(#linearGradient148);fill-opacity:1;stroke-linecap:round;stroke-linejoin:round;-inkscape-stroke:none;paint-order:markers stroke fill"
     d="m 73.844406,70.380731 c 0.599407,-1.384553 0.710952,-2.931648 0.316361,-4.387928 -0.961884,-3.550153 -4.619315,-5.648445 -8.169113,-4.68667 -3.549786,0.961815 -5.647676,4.619478 -4.685774,8.169626 0.961883,3.550154 4.619317,5.648446 8.169113,4.68667 1.956004,-0.529965 3.564219,-1.921865 4.369413,-3.781698 z m -0.791244,0.405184 c -0.780034,1.359976 -2.080378,2.422507 -3.717247,2.866007 -3.273735,0.887001 -6.632891,-1.041306 -7.519954,-4.315541 -0.887113,-3.274153 1.040416,-6.633753 4.314153,-7.520751 3.273736,-0.887003 6.632636,1.041752 7.519705,4.315974 0.443557,1.637076 0.183383,3.294323 -0.596649,4.654297 z"
     sodipodi:nodetypes="ccccscsscscs"
     sodipodi:insensitive="true"
     inkscape:label="center-edge" />
  <path
     id="path146"
     style="color:#000000;display:inline;opacity:0.4;fill:url(#linearGradient146);stroke-linecap:round;stroke-linejoin:round;-inkscape-stroke:none;paint-order:markers stroke fill"
     d="m 50.44221,57.747292 c -2.55576,4.427222 -3.42563,9.829863 -1.999112,15.153842 2.852979,10.648175 13.812093,16.976713 24.459205,14.123954 10.64712,-2.852953 16.97372,-13.813186 14.120403,-24.461256 -2.853188,-10.647914 -13.811501,-16.973859 -24.458462,-14.1211 -5.32346,1.426461 -9.566231,4.877401 -12.12199,9.304623 z M 50.246748,59.2372 c 2.46355,-5.072409 7.007953,-8.825071 12.454464,-10.284604 l 4.5e-4,2.6e-4 c 10.37066,-2.77857 21.030486,3.37671 23.809633,13.748346 C 89.29073,73.073061 83.136638,83.734041 72.765804,86.51309 62.394916,89.291936 51.734735,83.136451 48.955713,72.76448 47.745284,68.246804 48.203782,63.444241 50.247129,59.237421 Z"
     sodipodi:nodetypes="ccccccccccccscc"
     sodipodi:insensitive="true"
     inkscape:label="outter-center-edge" />
</g>
<metadata
   id="metadata1">
  <rdf:RDF>
    <cc:Work
       rdf:about="">
      <dc:creator>
        <cc:Agent>
          <dc:title>Jess Tipton</dc:title>
        </cc:Agent>
      </dc:creator>
      <dc:publisher>
        <cc:Agent>
          <dc:title>m0dw3rks.com</dc:title>
        </cc:Agent>
      </dc:publisher>
      <cc:license
         rdf:resource="https://creativecommons.org/licenses/by-nc-nd/4.0/deed.en" />
    </cc:Work>
  </rdf:RDF>
</metadata>
<metadata
   id="metadata6">
  <rdf:RDF>
    <cc:Work
       rdf:about="">
      <dc:creator>
        <cc:Agent>
          <dc:title>Jess Tipton</dc:title>
        </cc:Agent>
      </dc:creator>
      <cc:license
         rdf:resource="https://creativecommons.org/licenses/by-nc-nd/4.0/deed.en" />
      <dc:publisher>
        <cc:Agent>
          <dc:title>m0dw3rks.com</dc:title>
        </cc:Agent>
      </dc:publisher>
    </cc:Work>
  </rdf:RDF>
</metadata>
<metadata
   id="metadata2">
  <rdf:RDF>
    <cc:Work
       rdf:about="">
      <dc:creator>
        <cc:Agent>
          <dc:title>Jess Tipton</dc:title>
        </cc:Agent>
      </dc:creator>
      <cc:license
         rdf:resource="https://creativecommons.org/licenses/by-nc-nd/4.0/deed.en" />
      <dc:publisher>
        <cc:Agent>
          <dc:title>m0dw3rks.com</dc:title>
        </cc:Agent>
      </dc:publisher>
    </cc:Work>
  </rdf:RDF>
</metadata>
<metadata
   id="metadata3">
  <rdf:RDF>
    <cc:Work
       rdf:about="">
      <dc:creator>
        <cc:Agent>
          <dc:title>Jess Tipton</dc:title>
        </cc:Agent>
      </dc:creator>
      <cc:license
         rdf:resource="https://creativecommons.org/licenses/by-nc-nd/4.0/deed.en" />
      <dc:publisher>
        <cc:Agent>
          <dc:title>m0dw3rks.com</dc:title>
        </cc:Agent>
      </dc:publisher>
    </cc:Work>
  </rdf:RDF>
</metadata>
<metadata
   id="metadata4">
  <rdf:RDF>
    <cc:Work
       rdf:about="">
      <dc:creator>
        <cc:Agent>
          <dc:title>Jess Tipton</dc:title>
        </cc:Agent>
      </dc:creator>
      <cc:license
         rdf:resource="https://creativecommons.org/licenses/by-nc-nd/4.0/deed.en" />
      <dc:publisher>
        <cc:Agent>
          <dc:title>m0dw3rks.com</dc:title>
        </cc:Agent>
      </dc:publisher>
    </cc:Work>
  </rdf:RDF>
</metadata>
<metadata
   id="metadata5">
  <rdf:RDF>
    <cc:Work
       rdf:about="">
      <dc:creator>
        <cc:Agent>
          <dc:title>Jess Tipton</dc:title>
        </cc:Agent>
      </dc:creator>
      <cc:license
         rdf:resource="https://creativecommons.org/licenses/by-nc-nd/4.0/deed.en" />
      <dc:publisher>
        <cc:Agent>
          <dc:title>m0dw3rks.com</dc:title>
        </cc:Agent>
      </dc:publisher>
    </cc:Work>
  </rdf:RDF>
</metadata>
<metadata
   id="metadata7">
  <rdf:RDF>
    <cc:Work
       rdf:about="">
      <dc:creator>
        <cc:Agent>
          <dc:title>Jess Tipton</dc:title>
        </cc:Agent>
      </dc:creator>
      <cc:license
         rdf:resource="https://creativecommons.org/licenses/by-nc-nd/4.0/deed.en" />
      <dc:publisher>
        <cc:Agent>
          <dc:title>m0dw3rks.com</dc:title>
        </cc:Agent>
      </dc:publisher>
    </cc:Work>
  </rdf:RDF>
</metadata>
<metadata
   id="metadata8">
  <rdf:RDF>
    <cc:Work
       rdf:about="">
      <dc:creator>
        <cc:Agent>
          <dc:title>Jess Tipton</dc:title>
        </cc:Agent>
      </dc:creator>
      <cc:license
         rdf:resource="https://creativecommons.org/licenses/by-nc-nd/4.0/deed.en" />
      <dc:publisher>
        <cc:Agent>
          <dc:title>m0dw3rks.com</dc:title>
        </cc:Agent>
      </dc:publisher>
    </cc:Work>
  </rdf:RDF>
</metadata>
<metadata
   id="metadata9">
  <rdf:RDF>
    <cc:Work
       rdf:about="">
      <dc:creator>
        <cc:Agent>
          <dc:title>Jess Tipton</dc:title>
        </cc:Agent>
      </dc:creator>
      <cc:license
         rdf:resource="https://creativecommons.org/licenses/by-nc-nd/4.0/deed.en" />
      <dc:publisher>
        <cc:Agent>
          <dc:title>m0dw3rks.com</dc:title>
        </cc:Agent>
      </dc:publisher>
    </cc:Work>
  </rdf:RDF>
</metadata>
<metadata
   id="metadata10">
  <rdf:RDF>
    <cc:Work
       rdf:about="">
      <dc:creator>
        <cc:Agent>
          <dc:title>Jess Tipton</dc:title>
        </cc:Agent>
      </dc:creator>
      <cc:license
         rdf:resource="https://creativecommons.org/licenses/by-nc-nd/4.0/deed.en" />
      <dc:publisher>
        <cc:Agent>
          <dc:title>m0dw3rks.com</dc:title>
        </cc:Agent>
      </dc:publisher>
    </cc:Work>
  </rdf:RDF>
</metadata>
<metadata
   id="metadata11">
  <rdf:RDF>
    <cc:Work
       rdf:about="">
      <dc:creator>
        <cc:Agent>
          <dc:title>Jess Tipton</dc:title>
        </cc:Agent>
      </dc:creator>
      <cc:license
         rdf:resource="https://creativecommons.org/licenses/by-nc-nd/4.0/deed.en" />
      <dc:publisher>
        <cc:Agent>
          <dc:title>m0dw3rks.com</dc:title>
        </cc:Agent>
      </dc:publisher>
    </cc:Work>
  </rdf:RDF>
</metadata>
<metadata
   id="metadata12">
  <rdf:RDF>
    <cc:Work
       rdf:about="">
      <dc:creator>
        <cc:Agent>
          <dc:title>Jess Tipton</dc:title>
        </cc:Agent>
      </dc:creator>
      <cc:license
         rdf:resource="https://creativecommons.org/licenses/by-nc-nd/4.0/deed.en" />
      <dc:publisher>
        <cc:Agent>
          <dc:title>m0dw3rks.com</dc:title>
        </cc:Agent>
      </dc:publisher>
    </cc:Work>
  </rdf:RDF>
</metadata>
<metadata
   id="metadata13">
  <rdf:RDF>
    <cc:Work
       rdf:about="">
      <dc:creator>
        <cc:Agent>
          <dc:title>Jess Tipton</dc:title>
        </cc:Agent>
      </dc:creator>
      <cc:license
         rdf:resource="https://creativecommons.org/licenses/by-nc-nd/4.0/deed.en" />
      <dc:publisher>
        <cc:Agent>
          <dc:title>m0dw3rks.com</dc:title>
        </cc:Agent>
      </dc:publisher>
    </cc:Work>
  </rdf:RDF>
</metadata>
<metadata
   id="metadata14">
  <rdf:RDF>
    <cc:Work
       rdf:about="">
      <dc:creator>
        <cc:Agent>
          <dc:title>Jess Tipton</dc:title>
        </cc:Agent>
      </dc:creator>
      <cc:license
         rdf:resource="https://creativecommons.org/licenses/by-nc-nd/4.0/deed.en" />
      <dc:publisher>
        <cc:Agent>
          <dc:title>m0dw3rks.com</dc:title>
        </cc:Agent>
      </dc:publisher>
    </cc:Work>
  </rdf:RDF>
</metadata>
<metadata
   id="metadata15">
  <rdf:RDF>
    <cc:Work
       rdf:about="">
      <dc:creator>
        <cc:Agent>
          <dc:title>Jess Tipton</dc:title>
        </cc:Agent>
      </dc:creator>
      <cc:license
         rdf:resource="https://creativecommons.org/licenses/by-nc-nd/4.0/deed.en" />
      <dc:publisher>
        <cc:Agent>
          <dc:title>m0dw3rks.com</dc:title>
        </cc:Agent>
      </dc:publisher>
    </cc:Work>
  </rdf:RDF>
</metadata>
<metadata
   id="metadata16">
  <rdf:RDF>
    <cc:Work
       rdf:about="">
      <dc:creator>
        <cc:Agent>
          <dc:title>Jess Tipton</dc:title>
        </cc:Agent>
      </dc:creator>
      <cc:license
         rdf:resource="https://creativecommons.org/licenses/by-nc-nd/4.0/deed.en" />
      <dc:publisher>
        <cc:Agent>
          <dc:title>m0dw3rks.com</dc:title>
        </cc:Agent>
      </dc:publisher>
    </cc:Work>
  </rdf:RDF>
</metadata>
<metadata
   id="metadata17">
  <rdf:RDF>
    <cc:Work
       rdf:about="">
      <dc:creator>
        <cc:Agent>
          <dc:title>Jess Tipton</dc:title>
        </cc:Agent>
      </dc:creator>
      <cc:license
         rdf:resource="https://creativecommons.org/licenses/by-nc-nd/4.0/deed.en" />
      <dc:publisher>
        <cc:Agent>
          <dc:title>m0dw3rks.com</dc:title>
        </cc:Agent>
      </dc:publisher>
    </cc:Work>
  </rdf:RDF>
</metadata>
<metadata
   id="metadata18">
  <rdf:RDF>
    <cc:Work
       rdf:about="">
      <dc:creator>
        <cc:Agent>
          <dc:title>Jess Tipton</dc:title>
        </cc:Agent>
      </dc:creator>
      <cc:license
         rdf:resource="https://creativecommons.org/licenses/by-nc-nd/4.0/deed.en" />
      <dc:publisher>
        <cc:Agent>
          <dc:title>m0dw3rks.com</dc:title>
        </cc:Agent>
      </dc:publisher>
    </cc:Work>
  </rdf:RDF>
</metadata>
</svg>
