<?xml version="1.0" encoding="UTF-8" standalone="no"?>
<!-- Created with Inkscape (http://www.inkscape.org/) -->

<svg
   width="512"
   height="512"
   viewBox="0 0 135.46666 135.46667"
   version="1.1"
   id="svg5"
   inkscape:version="1.4.2 (ebf0e940d0, 2025-05-08)"
   xml:space="preserve"
   sodipodi:docname="compass.svg"
   xmlns:inkscape="http://www.inkscape.org/namespaces/inkscape"
   xmlns:sodipodi="http://sodipodi.sourceforge.net/DTD/sodipodi-0.dtd"
   xmlns:xlink="http://www.w3.org/1999/xlink"
   xmlns="http://www.w3.org/2000/svg"
   xmlns:svg="http://www.w3.org/2000/svg"><sodipodi:namedview
     id="namedview7"
     pagecolor="#242424"
     bordercolor="#666666"
     borderopacity="1"
     inkscape:showpageshadow="0"
     inkscape:pageopacity="0"
     inkscape:pagecheckerboard="1"
     inkscape:deskcolor="#000000"
     inkscape:document-units="px"
     showgrid="false"
     inkscape:zoom="2.6074563"
     inkscape:cx="365.29855"
     inkscape:cy="204.22203"
     inkscape:window-width="3256"
     inkscape:window-height="1080"
     inkscape:window-x="1864"
     inkscape:window-y="0"
     inkscape:window-maximized="0"
     inkscape:current-layer="layer1" /><defs
     id="defs2"><linearGradient
       id="linearGradient5"
       inkscape:collect="always"><stop
         style="stop-color:#a3a29d;stop-opacity:1;"
         offset="0"
         id="stop11" /><stop
         style="stop-color:#a3a29d;stop-opacity:0;"
         offset="1"
         id="stop12" /></linearGradient><linearGradient
       id="linearGradient3"
       inkscape:collect="always"><stop
         style="stop-color:#a3a29d;stop-opacity:1;"
         offset="0"
         id="stop4" /><stop
         style="stop-color:#a3a29d;stop-opacity:0;"
         offset="1"
         id="stop5" /></linearGradient><linearGradient
       inkscape:collect="always"
       xlink:href="#linearGradient2"
       id="linearGradient6"
       x1="26.878302"
       y1="-2.220446e-16"
       x2="135.46666"
       y2="67.73333"
       gradientUnits="userSpaceOnUse"
       gradientTransform="matrix(-0.98437509,0,0,0.98437509,-25.07716,1.058338)" /><linearGradient
       id="linearGradient2"
       inkscape:collect="always"><stop
         style="stop-color:#000000;stop-opacity:1;"
         offset="0"
         id="stop3" /><stop
         style="stop-color:#ffffff;stop-opacity:1;"
         offset="0.2"
         id="stop7" /><stop
         style="stop-color:#000000;stop-opacity:1;"
         offset="0.40365851"
         id="stop8" /><stop
         style="stop-color:#ffffff;stop-opacity:1;"
         offset="0.60454738"
         id="stop9" /><stop
         style="stop-color:#000000;stop-opacity:1;"
         offset="0.79727012"
         id="stop10" /><stop
         style="stop-color:#ffffff;stop-opacity:1;"
         offset="1"
         id="stop6" /></linearGradient><filter
       inkscape:collect="always"
       style="color-interpolation-filters:sRGB"
       id="filter19"
       x="-0.071145962"
       y="-0.067206228"
       width="1.1422919"
       height="1.1344125"><feGaussianBlur
         inkscape:collect="always"
         stdDeviation="3.048947"
         id="feGaussianBlur19" /></filter><radialGradient
       inkscape:collect="always"
       xlink:href="#linearGradient3"
       id="radialGradient5"
       cx="32.119303"
       cy="-12.330684"
       fx="32.119303"
       fy="-12.330684"
       r="58.743251"
       gradientTransform="matrix(1,0,0,1.0513193,0,0.63280235)"
       gradientUnits="userSpaceOnUse" /><linearGradient
       inkscape:collect="always"
       xlink:href="#linearGradient2"
       id="linearGradient4"
       x1="-0.79374999"
       y1="67.73333"
       x2="136.26041"
       y2="67.73333"
       gradientUnits="userSpaceOnUse"
       gradientTransform="matrix(0.98828129,0,0,0.98828129,0.79374968,0.79374968)" /><radialGradient
       inkscape:collect="always"
       xlink:href="#linearGradient5"
       id="radialGradient12"
       cx="67.733331"
       cy="67.73333"
       fx="67.733331"
       fy="67.73333"
       r="58.427744"
       gradientTransform="matrix(1,0,0,1.0001402,0,-0.00949839)"
       gradientUnits="userSpaceOnUse" /><linearGradient
       inkscape:collect="always"
       xlink:href="#linearGradient2"
       id="linearGradient17"
       x1="62.441662"
       y1="67.73333"
       x2="73.024994"
       y2="67.73333"
       gradientUnits="userSpaceOnUse" /><linearGradient
       inkscape:collect="always"
       xlink:href="#linearGradient2"
       id="linearGradient19"
       x1="91.485626"
       y1="67.723518"
       x2="93.565277"
       y2="-18.139271"
       gradientUnits="userSpaceOnUse" /><linearGradient
       inkscape:collect="always"
       xlink:href="#linearGradient2"
       id="linearGradient21"
       x1="75.704987"
       y1="29.965509"
       x2="96.455399"
       y2="29.965509"
       gradientUnits="userSpaceOnUse" /></defs><g
     inkscape:label="Layer 1"
     inkscape:groupmode="layer"
     id="layer1"><path
       id="rect792-3"
       style="display:none;fill:#c2c2c2;fill-opacity:1;stroke:url(#linearGradient6);stroke-width:1.79709;stroke-linecap:round;stroke-linejoin:round;paint-order:stroke fill markers"
       d="M -158.42716,67.733338 -51.53549,1.058337 v 35.291386 h 26.45833 v 62.767225 h -26.45833 v 35.291382 z"
       sodipodi:nodetypes="cccccccc"
       sodipodi:insensitive="true" /><path
       id="path19"
       style="display:none;fill:url(#radialGradient5);fill-opacity:1;stroke:none;stroke-width:1.79709;stroke-linecap:round;stroke-linejoin:round;paint-order:stroke fill markers;filter:url(#filter19)"
       d="m -19.306475,15.652702 c 7.32335,0.02788 14.65488,-0.108966 21.9707,0.263672 4.387923,1.126936 7.160749,5.931176 6.541016,10.314866 0,5.29284 0,10.58568 0,15.87851 15.279297,0 30.558594,0 45.837891,0 0.04285,-6.74418 -0.197394,-13.50572 0.341797,-20.23437 1.278677,-4.25617 6.013069,-6.81551 10.305074,-6.222678 5.9517,0 11.90339,0 17.85508,0 -17.14192,-27.474609 -34.283852,-54.949219 -51.425779,-82.423828 -17.141927,27.474609 -34.283859,54.949219 -51.425779,82.423828 z"
       transform="matrix(0,1,1,0,-154.35684,102.28903)"
       sodipodi:insensitive="true" /><path
       id="path1"
       style="display:none;fill:#c2c2c2;stroke:url(#linearGradient4);stroke-width:1.5875;stroke-linecap:round;stroke-linejoin:round;stroke-miterlimit:12;paint-order:markers stroke fill"
       d="M 67.733332,0.79374999 A 66.939583,66.939583 0 0 0 0.79374999,67.733332 66.939583,66.939583 0 0 0 67.733332,134.67292 66.939583,66.939583 0 0 0 134.67292,67.733332 66.939583,66.939583 0 0 0 67.733332,0.79374999 Z M 96.45561,17.985465 c 0,0 -2.78942,7.470855 -2.8205,11.573454 -0.03108,4.102599 2.8205,12.386841 2.8205,12.386841 0,0 -3.578365,-4.04989 -6.821289,-6.692615 L 72.36199,65.169148 a 5.2916665,5.2916665 0 0 1 0.663009,2.564184 5.2916665,5.2916665 0 0 1 -5.197615,5.290634 h -5.17e-4 L 50.416043,103.18078 c -0.670346,1.16108 -2.144666,1.55608 -3.305741,0.88573 l -0.531234,-0.30644 c -1.161074,-0.67034 -1.55608,-2.14466 -0.885734,-3.30574 L 63.104675,70.297517 a 5.2916665,5.2916665 0 0 1 -0.663009,-2.564185 5.2916665,5.2916665 0 0 1 5.197615,-5.290633 h 5.17e-4 L 84.911612,32.526696 c -3.910128,-1.487092 -9.206673,-2.561084 -9.206673,-2.561084 0,0 8.599825,-1.672465 12.137243,-3.750675 3.537418,-2.07821 8.613428,-8.229472 8.613428,-8.229472 z" /><path
       id="circle4"
       style="display:none;fill:url(#radialGradient12);stroke:none;stroke-width:1.5875;stroke-linecap:round;stroke-linejoin:round;stroke-miterlimit:12;paint-order:markers stroke fill"
       d="m 66.155837,9.3122976 c -11.14887,0.288822 -22.35026,3.9593374 -31.51024,10.2634604 -6.73238,4.607112 -12.47563,10.713448 -16.69306,17.602139 -7.05711,11.405663 -9.9462604,25.209379 -8.1054104,38.439137 1.6100404,12.175172 7.2256004,23.761093 15.7500104,32.597836 5.38262,5.62873 12.02685,10.23251 19.16808,13.24976 10.80028,4.60136 22.9913,5.91123 34.47394,3.55865 11.81139,-2.36553 22.824223,-8.43877 31.045143,-17.23611 8.46461,-8.940623 13.9643,-20.658331 15.43794,-32.830342 0.68455,-5.521882 0.56209,-11.199656 -0.32448,-16.620417 C 123.60144,47.038352 118.34432,36.339692 110.53983,27.979628 102.98172,19.761077 92.976857,13.868474 82.161697,11.120891 77.044237,9.8091796 71.517667,9.1912096 66.155837,9.3122976 Z" /><circle
       style="display:inline;fill:#000000;fill-opacity:1;stroke:url(#linearGradient17);stroke-width:1.5875;stroke-linecap:round;stroke-linejoin:round;stroke-miterlimit:12;paint-order:markers stroke fill"
       id="path12"
       cx="67.73333"
       cy="67.73333"
       r="5.2916665" /><rect
       style="display:inline;fill:#d40000;fill-opacity:1;stroke:url(#linearGradient19);stroke-width:1.5875;stroke-linecap:round;stroke-linejoin:round;stroke-miterlimit:12;paint-order:markers stroke fill"
       id="rect12"
       width="5.4531074"
       height="83.554512"
       x="89.798897"
       y="-16.985134"
       ry="2.4200242"
       transform="rotate(30)" /><path
       id="path14"
       style="display:inline;fill:#d40000;stroke-width:1.5875;stroke-linecap:round;stroke-linejoin:round;stroke-miterlimit:12;paint-order:markers stroke fill;stroke:url(#linearGradient21)"
       inkscape:transform-center-y="-37.767824"
       d="m 96.455401,17.985255 c 0,0 -2.789454,7.471281 -2.820529,11.57388 -0.03108,4.102599 2.820523,12.38663 2.820523,12.38663 0,0 -5.510554,-6.236664 -9.052293,-8.281487 -3.541739,-2.044823 -11.698117,-3.698768 -11.698117,-3.698768 0,0 8.59998,-1.67246 12.137398,-3.75067 3.537418,-2.07821 8.613018,-8.229585 8.613018,-8.229585 z"
       sodipodi:nodetypes="czczczc"
       inkscape:transform-center-x="-18.346861" /><path
       id="path15"
       style="fill:#c2c2c2;stroke:url(#linearGradient4);stroke-width:1.5875;stroke-linecap:round;stroke-linejoin:round;stroke-miterlimit:12;paint-order:markers stroke fill"
       d="M 67.733332 0.79374999 A 66.939583 66.939583 0 0 0 0.79374999 67.733332 A 66.939583 66.939583 0 0 0 67.733332 134.67292 A 66.939583 66.939583 0 0 0 134.67292 67.733332 A 66.939583 66.939583 0 0 0 67.733332 0.79374999 z M 67.733332 9.5249999 A 58.208332 58.208332 0 0 1 125.94167 67.733332 A 58.208332 58.208332 0 0 1 67.733332 125.94167 A 58.208332 58.208332 0 0 1 9.5249999 67.733332 A 58.208332 58.208332 0 0 1 67.733332 9.5249999 z " /><rect
       style="display:inline;fill:#d40000;fill-opacity:1;stroke:none;stroke-width:1.5875;stroke-linecap:round;stroke-linejoin:round;stroke-miterlimit:12;paint-order:markers stroke fill"
       id="rect21"
       width="5.4531074"
       height="83.554512"
       x="89.798897"
       y="-16.985134"
       ry="2.4200242"
       transform="rotate(30)" /></g></svg>
