<?xml version="1.0" encoding="UTF-8" standalone="no"?>
<!-- Created with Inkscape (http://www.inkscape.org/) -->

<svg
   width="512"
   height="512"
   viewBox="0 0 135.46666 135.46667"
   version="1.1"
   id="svg5"
   inkscape:version="1.4.1 (93de688d07, 2025-03-30)"
   sodipodi:docname="document-send.svg"
   xmlns:inkscape="http://www.inkscape.org/namespaces/inkscape"
   xmlns:sodipodi="http://sodipodi.sourceforge.net/DTD/sodipodi-0.dtd"
   xmlns:xlink="http://www.w3.org/1999/xlink"
   xmlns="http://www.w3.org/2000/svg"
   xmlns:svg="http://www.w3.org/2000/svg"
   xmlns:rdf="http://www.w3.org/1999/02/22-rdf-syntax-ns#"
   xmlns:cc="http://creativecommons.org/ns#"
   xmlns:dc="http://purl.org/dc/elements/1.1/">&gt;
  <sodipodi:namedview
   id="namedview7"
   pagecolor="#505050"
   bordercolor="#ffffff"
   borderopacity="1"
   inkscape:showpageshadow="0"
   inkscape:pageopacity="0"
   inkscape:pagecheckerboard="1"
   inkscape:deskcolor="#505050"
   inkscape:document-units="px"
   showgrid="false"
   inkscape:zoom="2.2428544"
   inkscape:cx="122.38868"
   inkscape:cy="405.06419"
   inkscape:window-width="3256"
   inkscape:window-height="1080"
   inkscape:window-x="1864"
   inkscape:window-y="0"
   inkscape:window-maximized="0"
   inkscape:current-layer="layer1" />
<defs
   id="defs2">
  <inkscape:path-effect
     effect="powerstroke"
     message=""
     id="path-effect62"
     is_visible="true"
     lpeversion="1.3"
     scale_width="1"
     interpolator_type="CubicBezierJohan"
     interpolator_beta="0.2"
     start_linecap_type="round"
     end_linecap_type="zerowidth"
     offset_points="0,4.4838473"
     linejoin_type="extrp_arc"
     miter_limit="4"
     not_jump="false"
     sort_points="true" />
  <inkscape:path-effect
     effect="powerstroke"
     message=""
     id="path-effect60"
     is_visible="true"
     lpeversion="1.3"
     scale_width="1"
     interpolator_type="CubicBezierJohan"
     interpolator_beta="0.2"
     start_linecap_type="round"
     end_linecap_type="zerowidth"
     offset_points="0,4.4838473"
     linejoin_type="extrp_arc"
     miter_limit="4"
     not_jump="false"
     sort_points="true" />
  <inkscape:path-effect
     effect="powerstroke"
     message=""
     id="path-effect54"
     is_visible="true"
     lpeversion="1.3"
     scale_width="1"
     interpolator_type="CubicBezierJohan"
     interpolator_beta="0.2"
     start_linecap_type="round"
     end_linecap_type="zerowidth"
     offset_points="3.5980069e-08,7.7163706"
     linejoin_type="extrp_arc"
     miter_limit="4"
     not_jump="false"
     sort_points="true" />
  <inkscape:path-effect
     effect="powerstroke"
     message=""
     id="path-effect52"
     is_visible="true"
     lpeversion="1.3"
     scale_width="1"
     interpolator_type="CubicBezierJohan"
     interpolator_beta="0.7"
     start_linecap_type="round"
     end_linecap_type="zerowidth"
     offset_points="0.78333047,7.7163706"
     linejoin_type="extrp_arc"
     miter_limit="4"
     not_jump="false"
     sort_points="true" />
  <inkscape:path-effect
     effect="powerstroke"
     message=""
     id="path-effect50"
     is_visible="true"
     lpeversion="1.3"
     scale_width="1"
     interpolator_type="CubicBezierJohan"
     interpolator_beta="0.2"
     start_linecap_type="round"
     end_linecap_type="zerowidth"
     offset_points="3.5980065e-08,7.7163706"
     linejoin_type="extrp_arc"
     miter_limit="4"
     not_jump="false"
     sort_points="true" />
  <inkscape:path-effect
     effect="powerstroke"
     message=""
     id="path-effect48"
     is_visible="true"
     lpeversion="1.3"
     scale_width="1"
     interpolator_type="CubicBezierJohan"
     interpolator_beta="0"
     start_linecap_type="round"
     end_linecap_type="zerowidth"
     offset_points="0,7.7163706"
     linejoin_type="extrp_arc"
     miter_limit="4"
     not_jump="false"
     sort_points="true" />
  <inkscape:path-effect
     effect="powerstroke"
     message=""
     id="path-effect39"
     is_visible="true"
     lpeversion="1.3"
     scale_width="1"
     interpolator_type="CubicBezierJohan"
     interpolator_beta="0.2"
     start_linecap_type="round"
     end_linecap_type="zerowidth"
     offset_points="3.5980069e-08,7.7163706"
     linejoin_type="extrp_arc"
     miter_limit="4"
     not_jump="false"
     sort_points="true" />
  <inkscape:path-effect
     effect="powerstroke"
     message=""
     id="path-effect33"
     is_visible="true"
     lpeversion="1.3"
     scale_width="4"
     interpolator_type="CubicBezierJohan"
     interpolator_beta="0.1"
     start_linecap_type="round"
     end_linecap_type="zerowidth"
     offset_points="0.64961236,-inf"
     linejoin_type="extrp_arc"
     miter_limit="4"
     not_jump="true"
     sort_points="false" />
  <inkscape:path-effect
     effect="powerstroke"
     message=""
     id="path-effect32"
     is_visible="true"
     lpeversion="1.3"
     scale_width="1"
     interpolator_type="CubicBezierJohan"
     interpolator_beta="0.2"
     start_linecap_type="round"
     end_linecap_type="zerowidth"
     offset_points="3.5980065e-08,7.7163706"
     linejoin_type="extrp_arc"
     miter_limit="4"
     not_jump="false"
     sort_points="true" />
  <inkscape:path-effect
     effect="powerstroke"
     message=""
     id="path-effect31"
     is_visible="true"
     lpeversion="1.3"
     scale_width="1"
     interpolator_type="CubicBezierJohan"
     interpolator_beta="0"
     start_linecap_type="round"
     end_linecap_type="zerowidth"
     offset_points="5.1368228e-10,7.7163706"
     linejoin_type="extrp_arc"
     miter_limit="4"
     not_jump="false"
     sort_points="true" />
  <inkscape:path-effect
     effect="powerstroke"
     message=""
     id="path-effect30"
     is_visible="true"
     lpeversion="1.3"
     scale_width="1"
     interpolator_type="CubicBezierJohan"
     interpolator_beta="0.2"
     start_linecap_type="zerowidth"
     end_linecap_type="zerowidth"
     offset_points="0,7.7163706"
     linejoin_type="extrp_arc"
     miter_limit="4"
     not_jump="false"
     sort_points="true" />
  <inkscape:path-effect
     effect="powerstroke"
     message=""
     id="path-effect29"
     is_visible="true"
     lpeversion="1.3"
     scale_width="1"
     interpolator_type="CubicBezierJohan"
     interpolator_beta="0"
     start_linecap_type="round"
     end_linecap_type="zerowidth"
     offset_points="0,7.7163706"
     linejoin_type="extrp_arc"
     miter_limit="4"
     not_jump="false"
     sort_points="true" />
  <linearGradient
     id="linearGradient28"
     inkscape:collect="always">
    <stop
       style="stop-color:#a3a29d;stop-opacity:1;"
       offset="0"
       id="stop28" />
    <stop
       style="stop-color:#a3a29d;stop-opacity:0;"
       offset="1"
       id="stop29" />
  </linearGradient>
  <inkscape:path-effect
     effect="perspective-envelope"
     up_left_point="-173.28871,-13.477899"
     up_right_point="2.2164018,-13.73757"
     down_left_point="-150.29159,50.499243"
     down_right_point="-20.780657,50.499243"
     id="path-effect13"
     is_visible="true"
     lpeversion="1"
     deform_type="perspective"
     horizontal_mirror="false"
     vertical_mirror="true"
     overflow_perspective="false" />
  <inkscape:path-effect
     effect="fillet_chamfer"
     id="path-effect4"
     is_visible="true"
     lpeversion="1"
     nodesatellites_param="F,0,0,1,0,4,0,1 @ F,0,0,1,0,4,0,1 @ F,0,0,1,0,4,0,1 @ F,0,0,1,0,4,0,1 @ F,0,0,1,0,4,0,1 @ F,0,0,1,0,4,0,1 @ F,0,0,1,0,4,0,1 @ F,0,0,1,0,4,0,1 @ F,0,0,1,0,4,0,1"
     radius="4"
     unit="px"
     method="auto"
     mode="F"
     chamfer_steps="1"
     flexible="false"
     use_knot_distance="true"
     apply_no_radius="true"
     apply_with_radius="true"
     only_selected="false"
     hide_knots="false" />
  <radialGradient
     inkscape:collect="always"
     xlink:href="#linearGradient1"
     id="radialGradient2"
     cx="70.995117"
     cy="67.733398"
     fx="70.995117"
     fy="67.733398"
     r="67.359573"
     gradientUnits="userSpaceOnUse"
     gradientTransform="translate(102.72696,1.7428439)" />
  <linearGradient
     id="linearGradient1"
     inkscape:collect="always">
    <stop
       style="stop-color:#0000ff;stop-opacity:1;"
       offset="0"
       id="stop1" />
    <stop
       style="stop-color:#0000ff;stop-opacity:0;"
       offset="1"
       id="stop2" />
  </linearGradient>
  <filter
     inkscape:collect="always"
     style="color-interpolation-filters:sRGB"
     id="filter1"
     x="-0.069120002"
     y="-0.069120002"
     width="1.13824"
     height="1.13824">
    <feGaussianBlur
       inkscape:collect="always"
       stdDeviation="3.4086938"
       id="feGaussianBlur1" />
  </filter>
  <linearGradient
     id="linearGradient2"
     inkscape:collect="always">
    <stop
       style="stop-color:#000000;stop-opacity:1;"
       offset="0"
       id="stop3" />
    <stop
       style="stop-color:#ffffff;stop-opacity:1;"
       offset="0.2"
       id="stop7" />
    <stop
       style="stop-color:#000000;stop-opacity:1;"
       offset="0.40365851"
       id="stop8" />
    <stop
       style="stop-color:#ffffff;stop-opacity:1;"
       offset="0.60454738"
       id="stop9" />
    <stop
       style="stop-color:#000000;stop-opacity:1;"
       offset="0.79727012"
       id="stop10" />
    <stop
       style="stop-color:#ffffff;stop-opacity:1;"
       offset="1"
       id="stop6" />
  </linearGradient>
  <linearGradient
     inkscape:collect="always"
     xlink:href="#linearGradient2"
     id="linearGradient12"
     x1="40.206238"
     y1="57.890308"
     x2="130.12807"
     y2="57.890308"
     gradientUnits="userSpaceOnUse"
     gradientTransform="matrix(0.87748264,0,0,0.87748264,20.223204,1.0583333)" />
  <linearGradient
     inkscape:collect="always"
     xlink:href="#linearGradient2"
     id="linearGradient19"
     x1="-6.4864106"
     y1="79.58712"
     x2="33.49683"
     y2="100.70335"
     gradientUnits="userSpaceOnUse"
     gradientTransform="matrix(0.87748264,0,0,0.87748264,16.467353,-8.3370025)" />
  <linearGradient
     inkscape:collect="always"
     xlink:href="#linearGradient2"
     id="linearGradient20"
     x1="19.03219"
     y1="136.82268"
     x2="44.727745"
     y2="136.82268"
     gradientUnits="userSpaceOnUse"
     gradientTransform="matrix(0.87748264,0,0,0.87748264,16.467353,0.1296642)" />
  <linearGradient
     inkscape:collect="always"
     xlink:href="#linearGradient2"
     id="linearGradient21"
     x1="-8.0951548"
     y1="115.34889"
     x2="35.8554"
     y2="100.86829"
     gradientUnits="userSpaceOnUse"
     gradientTransform="matrix(0.87748264,0,0,0.87748264,9.0590186,-3.5745024)" />
  <linearGradient
     inkscape:collect="always"
     xlink:href="#linearGradient2"
     id="linearGradient24"
     x1="15.52541"
     y1="115.31101"
     x2="15.52541"
     y2="150.09747"
     gradientUnits="userSpaceOnUse"
     gradientTransform="matrix(0.87748264,0,0,0.87748264,11.175683,0.65883086)" />
  <linearGradient
     inkscape:collect="always"
     xlink:href="#linearGradient2"
     id="linearGradient27"
     x1="-249.63599"
     y1="-64.329819"
     x2="-63.684998"
     y2="-64.329819"
     gradientUnits="userSpaceOnUse"
     gradientTransform="matrix(0.19064313,0.19064312,-0.19064312,0.19064313,132.5752,62.624117)" />
  <radialGradient
     inkscape:collect="always"
     xlink:href="#linearGradient28"
     id="radialGradient29"
     cx="94.955957"
     cy="51.856007"
     fx="94.955957"
     fy="51.856007"
     r="33.100583"
     gradientTransform="matrix(1,0,0,1.3427646,0,-17.774401)"
     gradientUnits="userSpaceOnUse" />
  <filter
     inkscape:collect="always"
     style="color-interpolation-filters:sRGB"
     id="filter29"
     x="-0.080965938"
     y="-0.060297941"
     width="1.1619319"
     height="1.1205959">
    <feGaussianBlur
       inkscape:collect="always"
       stdDeviation="2.2333499"
       id="feGaussianBlur29" />
  </filter>
  <linearGradient
     inkscape:collect="always"
     xlink:href="#linearGradient2"
     id="linearGradient34"
     x1="-95.199615"
     y1="-25.219023"
     x2="51.479511"
     y2="-46.833241"
     gradientUnits="userSpaceOnUse" />
  <linearGradient
     inkscape:collect="always"
     xlink:href="#linearGradient2"
     id="linearGradient37"
     x1="-91.523224"
     y1="199.63503"
     x2="15.681145"
     y2="94.211449"
     gradientUnits="userSpaceOnUse" />
  <linearGradient
     inkscape:collect="always"
     xlink:href="#linearGradient2"
     id="linearGradient39"
     gradientUnits="userSpaceOnUse"
     x1="-86.433701"
     y1="192.51877"
     x2="15.681145"
     y2="94.211449" />
  <filter
     inkscape:collect="always"
     style="color-interpolation-filters:sRGB"
     id="filter57"
     x="-0.081421927"
     y="-0.10550168"
     width="1.1628439"
     height="1.2110034">
    <feGaussianBlur
       inkscape:collect="always"
       stdDeviation="0.82778555"
       id="feGaussianBlur57" />
  </filter>
  <filter
     inkscape:collect="always"
     style="color-interpolation-filters:sRGB"
     id="filter59"
     x="-0.13866846"
     y="-0.072745322"
     width="1.2773369"
     height="1.1454906">
    <feGaussianBlur
       inkscape:collect="always"
       stdDeviation="0.82597685"
       id="feGaussianBlur59" />
  </filter>
  <filter
     inkscape:collect="always"
     style="color-interpolation-filters:sRGB"
     id="filter60"
     x="-0.077412563"
     y="-0.092676589"
     width="1.1548251"
     height="1.1853532">
    <feGaussianBlur
       inkscape:collect="always"
       stdDeviation="0.82778555"
       id="feGaussianBlur60" />
  </filter>
  <linearGradient
     inkscape:collect="always"
     xlink:href="#linearGradient2"
     id="linearGradient61"
     x1="38.86784"
     y1="64.779816"
     x2="79.07782"
     y2="132.51315"
     gradientUnits="userSpaceOnUse" />
  <filter
     inkscape:collect="always"
     style="color-interpolation-filters:sRGB"
     id="filter62"
     x="-0.093855691"
     y="-0.097055539"
     width="1.1877114"
     height="1.1941111">
    <feGaussianBlur
       inkscape:collect="always"
       stdDeviation="1.0459795"
       id="feGaussianBlur62" />
  </filter>
</defs>
<g
   inkscape:label="Layer 1"
   inkscape:groupmode="layer"
   id="layer1">
  <g
     id="g12962"
     transform="matrix(0,1,1,0,0,0)"
     style="display:none;fill:#c2c2c2;fill-opacity:1">
    <path
       id="rect792"
       style="opacity:1;fill:#c2c2c2;fill-opacity:1;stroke-width:1.79709;stroke-linecap:round;stroke-linejoin:round;paint-order:stroke fill markers"
       d="M 135.46666,0 V 135.46666 L 0,67.73333 Z"
       sodipodi:nodetypes="cccc" />
    <path
       id="rect792-3-5"
       style="display:none;opacity:0.48;fill:#c2c2c2;fill-opacity:1;stroke-width:1.79709;stroke-linecap:round;stroke-linejoin:round;paint-order:stroke fill markers"
       d="M 6.39492,67.734307 C 48.698311,88.886 91.001697,110.03769 133.30509,131.18939 c 0,-42.304041 0,-84.608077 0,-126.9121134 C 91.001697,25.42962 48.698311,46.581964 6.39492,67.734307 Z" />
    <path
       id="rect792-6"
       style="display:none;fill:#c2c2c2;fill-opacity:1;stroke-width:1.79709;stroke-linecap:round;stroke-linejoin:round;paint-order:stroke fill markers"
       d="m 129.64439,64.28125 c -5.09085,2.237551 -10.80322,2.549259 -16.28174,2.133453 C 107.70292,65.961384 102.16318,64.411788 96.785746,62.482374 92.70996,61.085227 88.502836,59.98506 84.187211,59.718291 73.532528,58.845028 62.960256,61.020318 52.565237,63.082505 43.824044,64.8421 34.98915,66.772932 26.10143,67.193359 22.40812,67.36272 18.77621,67.239999 15.12682,66.667969 53.299342,47.582031 91.471868,28.496094 129.64439,9.4101562 c 0,18.2903648 0,36.5807288 0,54.8710938 z" />
  </g>
  <path
     id="path1"
     style="display:none;fill:url(#radialGradient2);fill-opacity:1;stroke-width:1.79709;stroke-linecap:round;stroke-linejoin:round;paint-order:stroke fill markers;filter:url(#filter1)"
     d="m 114.54337,69.475266 c 39.45247,19.726562 78.90494,39.453124 118.35742,59.179684 0,-39.452471 0,-78.904945 0,-118.357419 -39.45248,19.725912 -78.90495,39.451823 -118.35742,59.177735 z"
     transform="rotate(90,121.59916,15.610415)" />
  <rect
     style="display:none;fill:#00ff00;stroke-width:1.5875;stroke-linecap:round;stroke-linejoin:round;paint-order:markers stroke fill"
     id="rect3"
     width="129.51199"
     height="72.141899"
     x="96.352928"
     y="-110.52336"
     ry="5.6476583"
     sodipodi:insensitive="true" />
  <path
     id="rect2"
     style="opacity:1;fill:#c2c2c2;fill-opacity:1;stroke:url(#linearGradient12);stroke-width:1.57688;stroke-linecap:round;stroke-linejoin:round;stroke-miterlimit:12;paint-order:markers stroke fill"
     d="M 55.503588 1.0583333 L 55.503588 102.65368 L 134.40833 102.65368 L 134.40833 1.0583333 L 55.503588 1.0583333 z M 130.175 5.2916666 L 117.32462 53.249462 L 105.80543 41.730269 L 91.138622 56.396557 L 79.126952 44.38437 L 93.79324 29.718082 L 82.217203 18.142045 L 130.175 5.2916666 z " />
  <g
     id="g33"
     style="display:none">
    <path
       style="baseline-shift:baseline;display:inline;overflow:visible;opacity:1;fill:#c2c2c2;stroke:url(#linearGradient19);stroke-width:1.57688;stroke-linecap:round;stroke-dasharray:none;stroke-opacity:1;paint-order:markers stroke fill;enable-background:accumulate;stop-color:#000000;stop-opacity:1"
       d="m 19.286609,61.253196 c -0.883626,-0.10998 -1.843468,-0.08391 -2.862101,0.113112 -2.738727,0.529741 -4.477236,2.948163 -5.275179,5.635084 -0.797942,2.686923 -0.639873,5.953205 1.280233,8.618868 1.920107,2.665663 5.523691,4.429552 10.747449,4.407984 5.223758,-0.02159 12.187255,-1.703888 21.587444,-5.929868 a 1.8573367,1.8573367 0 0 0 0.932326,-2.455923 1.8573367,1.8573367 0 0 0 -2.455924,-0.932326 c -9.105602,4.093546 -15.655959,5.584258 -20.079271,5.602522 -4.423311,0.01826 -6.601437,-1.312169 -7.719104,-2.863816 -1.117669,-1.551646 -1.255958,-3.625028 -0.731808,-5.390006 0.524151,-1.764978 1.726123,-2.911281 2.419934,-3.045482 2.790539,-0.539762 3.766262,0.490032 4.238309,1.535596 0.236023,0.522782 0.26157,1.090901 0.176525,1.419053 -0.08505,0.328154 -0.134797,0.348851 -0.260503,0.389041 a 1.8573367,1.8573367 0 0 0 -1.204825,2.335954 1.8573367,1.8573367 0 0 0 2.335955,1.203112 c 1.439877,-0.460338 2.394885,-1.722041 2.724995,-2.995782 0.330109,-1.273741 0.179706,-2.627961 -0.385612,-3.880118 -0.847978,-1.878234 -2.817964,-3.437069 -5.468843,-3.767005 z"
       id="path2" />
    <path
       style="baseline-shift:baseline;display:inline;overflow:visible;opacity:1;fill:#c2c2c2;stroke:url(#linearGradient20);stroke-width:1.57688;stroke-linecap:round;stroke-dasharray:none;stroke-opacity:1;paint-order:markers stroke fill;enable-background:accumulate;stop-color:#000000;stop-opacity:1"
       d="m 52.145934,106.53815 c -5.66054,5.34626 -7.61861,7.85919 -15.198272,13.48958 -2.342093,1.73977 -3.418637,4.23156 -3.336835,6.53998 0.0818,2.30843 1.170975,4.4029 2.800405,5.86131 1.629429,1.45842 3.937816,2.30827 6.298337,1.73612 2.36052,-0.57214 4.486663,-2.50768 5.979565,-5.7242 a 1.8573367,1.8573367 0 0 0 -0.903191,-2.4662 1.8573367,1.8573367 0 0 0 -2.466206,0.90318 c -1.179617,2.54154 -2.467391,3.42971 -3.484223,3.67617 -1.016832,0.24646 -2.049547,-0.0907 -2.947794,-0.89462 -0.898246,-0.80397 -1.523039,-2.04726 -1.564729,-3.22371 -0.04169,-1.17647 0.347549,-2.31684 1.840657,-3.42596 7.761138,-5.7652 9.986531,-8.53273 15.534185,-13.77236 a 1.8573367,1.8573367 0 0 0 0.07369,-2.6256 1.8573367,1.8573367 0 0 0 -2.625593,-0.0737 z"
       id="path3" />
    <path
       style="baseline-shift:baseline;display:inline;overflow:visible;opacity:1;fill:#c2c2c2;stroke:url(#linearGradient21);stroke-width:1.57688;stroke-linecap:round;stroke-dasharray:none;stroke-opacity:1;paint-order:markers stroke fill;enable-background:accumulate;stop-color:#000000;stop-opacity:1"
       d="M 37.614909,85.260331 C 32.351671,88.8598 22.606404,92.430128 15.156837,93.53301 11.432054,94.084446 8.2413812,93.93337 6.7950466,93.317061 6.0718786,93.008907 5.8545026,92.741099 5.7410396,92.407015 5.6275766,92.07294 5.5966616,91.401937 6.1060856,90.21845 a 1.8573367,1.8573367 0 0 0 -0.97003,-2.440498 1.8573367,1.8573367 0 0 0 -2.440498,0.971742 c -0.733993,1.705203 -0.9793984,3.360872 -0.4730181,4.851865 0.5063791,1.490994 1.7428541,2.547884 3.1157491,3.132894 2.7457876,1.17003 6.3135794,1.0726 10.3635484,0.47302 8.099937,-1.19917 17.97199,-4.751222 24.010804,-8.881094 a 1.8573367,1.8573367 0 0 0 0.485014,-2.581028 1.8573367,1.8573367 0 0 0 -2.582746,-0.48502 z"
       id="path4" />
    <path
       style="baseline-shift:baseline;display:inline;overflow:visible;opacity:1;fill:#c2c2c2;stroke:url(#linearGradient24);stroke-width:1.57688;stroke-linecap:round;stroke-dasharray:none;stroke-opacity:1;paint-order:markers stroke fill;enable-background:accumulate;stop-color:#000000;stop-opacity:1"
       d="m 38.605585,101.90182 a 1.8573367,1.8573367 0 0 0 -1.408771,0.1971 c -3.245977,1.91116 -12.9407,5.80426 -19.8599,10.72688 -3.4596,2.4613 -6.396665,5.19337 -7.4140417,8.65657 -0.5086887,1.7316 -0.435779,3.65954 0.3684727,5.46198 0.804254,1.80244 2.261106,3.46396 4.373703,5.05068 a 1.8573367,1.8573367 0 0 0 2.599885,-0.3702 1.8573367,1.8573367 0 0 0 -0.368474,-2.59988 c -1.767325,-1.32739 -2.749391,-2.55563 -3.213437,-3.59562 -0.464046,-1.03999 -0.489036,-1.90602 -0.197091,-2.89981 0.58389,-1.98759 2.842299,-4.42804 6.003558,-6.6771 6.322518,-4.49812 15.567568,-8.18223 19.592542,-10.55207 a 1.8573367,1.8573367 0 0 0 0.658112,-2.54332 1.8573367,1.8573367 0 0 0 -1.134558,-0.85521 z"
       id="path5" />
  </g>
  <g
     id="g17"
     style="display:none"
     sodipodi:insensitive="true">
    <path
       style="fill:none;stroke:#c2c2c2;stroke-width:4.23333;stroke-linecap:round;stroke-linejoin:miter;stroke-dasharray:none;stroke-opacity:1"
       d="M -46.530729,58.147779 C -88.710004,77.110035 -85.37985,49.16097 -77.55625,47.647685 c 7.8236,-1.513285 9.348885,6.76399 5.780534,7.904814"
       id="path12"
       sodipodi:nodetypes="czc" />
    <path
       style="fill:none;stroke:#c2c2c2;stroke-width:4.23333;stroke-linecap:round;stroke-linejoin:miter;stroke-dasharray:none;stroke-opacity:1"
       d="m -35.79571,88.937225 c -6.386562,6.03197 -8.769978,9.04072 -17.511348,15.534065 -8.74137,6.49334 4.106047,20.12179 10.197379,6.99769"
       id="path15"
       sodipodi:nodetypes="czc" />
    <path
       style="fill:none;stroke:#c2c2c2;stroke-width:4.23333;stroke-linecap:round;stroke-linejoin:miter;stroke-dasharray:none;stroke-opacity:1"
       d="m -44.171384,69.118725 c -12.880086,8.80854 -44.715263,16.23522 -39.047154,3.06715"
       id="path16"
       sodipodi:nodetypes="cc" />
    <path
       style="fill:none;stroke:#c2c2c2;stroke-width:4.23333;stroke-linecap:round;stroke-linejoin:miter;stroke-dasharray:none;stroke-opacity:1"
       d="m -47.181233,83.561305 c -8.28615,4.87873 -43.167532,17.269615 -25.480923,30.553515"
       id="path17"
       sodipodi:nodetypes="cc" />
  </g>
  <path
     id="path24"
     style="display:none;opacity:1;fill:#00ff00;fill-opacity:1;stroke:url(#linearGradient27);stroke-width:1.79705;stroke-linecap:round;stroke-linejoin:round;stroke-miterlimit:12;stroke-dasharray:none;paint-order:markers stroke fill"
     inkscape:transform-center-x="-2.0785144"
     inkscape:transform-center-y="-2.0501889"
     d="M 130.17499,5.2916666 82.217081,18.141953 93.793198,29.718064 79.12683,44.384427 91.13887,56.39647 105.80523,41.730108 117.3247,53.24958 Z"
     sodipodi:insensitive="true" />
  <path
     id="path27"
     style="opacity:1;fill:url(#radialGradient29);fill-opacity:1;stroke:none;stroke-width:1.57688;stroke-linecap:round;stroke-linejoin:round;stroke-miterlimit:12;paint-order:markers stroke fill;filter:url(#filter29)"
     d="m 61.855374,96.302296 c 22.06705,-10e-7 44.134106,-10e-7 66.201166,0 0,-19.525391 0,-39.050782 0,-58.576172 -1.64796,6.070029 -3.23635,12.163097 -5.00867,18.194372 -1.88501,3.846664 -7.7513,4.55469 -10.65094,1.48789 -2.15374,-2.283639 -4.39055,-4.484945 -6.60797,-6.7057 -3.69448,3.696241 -7.288436,7.508662 -11.231856,10.941862 -2.78896,1.866344 -6.71282,0.801485 -8.8221,-1.612382 -3.99184,-4.30295 -8.51091,-8.120293 -12.17651,-12.720105 -1.49947,-3.015022 -0.14749,-6.805199 2.41992,-8.785156 2.94011,-2.938151 5.88021,-5.876302 8.82032,-8.814453 -2.72648,-2.801926 -5.67035,-5.425832 -8.07876,-8.512848 -2.00747,-3.77352 0.81825,-8.931164 4.97329,-9.559418 5.37459,-1.294813 10.67577,-2.8387619 16.02929,-4.2304689 -11.95572,0 -23.91145,0 -35.86718,0 0,29.6308599 0,59.2617189 0,88.8925789 z" />
  <path
     style="fill:#c2c2c2;fill-opacity:1;fill-rule:nonzero;stroke:url(#linearGradient34);stroke-width:3.17958;stroke-linecap:round;stroke-linejoin:round;stroke-dasharray:none;stroke-opacity:1;paint-order:markers stroke fill"
     d="m -43.138915,-30.693425 c 0,0 -4.00045,-4.524952 -11.403506,-7.13836 -3.418891,-1.206928 -7.307802,-1.786448 -11.467615,-1.153016 -3.39246,0.516585 -6.630451,1.791034 -9.637881,3.719492 -2.691017,1.725564 -5.120405,3.925316 -7.254019,6.421704 -2.402499,2.752997 -3.933688,6.096088 -4.69349,9.582799 -0.738819,3.390421 -0.767031,6.95932 -0.190216,10.3968299 0.578129,3.4453396 1.767836,6.7842845 3.493346,9.73598759 1.777381,3.04043681 4.101857,5.63611611 6.877712,7.55326841 L -77.442,8.4033947 c 4.145981,3.2157443 8.678328,5.1723783 13.402639,6.1524193 4.891655,1.014756 9.981761,0.981909 15.08343,0.236559 5.363536,-0.783608 10.818243,-2.366445 16.180794,-4.430203 5.735894,-2.2074367 11.451955,-4.9984823 16.942631,-8.0440777 C -3.0962087,-4.746542 9.2118174,-13.628071 18.70914,-20.961002 c 21.477107,-16.582583 32.252705,-26.933695 32.252705,-26.933695 0,0 -11.108813,10.00762 -33.023366,25.904114 -9.6991559,7.035626 -22.1841377,15.4822212 -34.981662,22.03929719 -5.514468,2.82545031 -11.193672,5.35683731 -16.832368,7.29247791 -5.27841,1.8119621 -10.521861,3.1020449 -15.560612,3.6229999 -4.794108,0.495662 -9.366258,0.291335 -13.592709,-0.794704 -4.05742,-1.0426059 -7.810974,-2.9005623 -11.17643,-5.7644763 0.755223,0.6426751 1.543136,1.2459147 2.36059,1.8073083 -0.852742,-0.5318526 -1.652418,-1.1443978 -2.388007,-1.8291945 -1.856316,-1.7281381 -3.312859,-3.92579877 -4.317217,-6.4049305 -0.979829,-2.418584 -1.506609,-5.0525438 -1.561512,-7.6478475 -0.05507,-2.6032235 0.366397,-5.0579195 1.178418,-7.1403015 0.835717,-2.143148 2.024389,-3.749325 3.38206,-4.835289 1.866508,-1.585317 3.73006,-2.746255 5.510104,-3.494291 1.966325,-0.826318 3.705197,-1.099141 5.216174,-1.039391 1.804232,0.07135 3.419436,0.622468 4.889317,1.425542 3.297574,1.801638 5.86929,4.95796 5.86929,4.95796 a 7.7163706,7.7163706 90 0 0 10.92717,-10.898002 z"
     id="path29"
     inkscape:path-effect="#path-effect29"
     inkscape:original-d="m -48.6025,-25.244424 c -11.690031,-11.721318 -22.941632,-7.845185 -30.623953,0 -7.682321,7.845185 -6.044191,24.2122319 3.402802,31.648627 29.582148,23.946797 86.518139,-19.76928 126.785496,-54.2989"
     sodipodi:nodetypes="czcc"
     transform="matrix(0.51654186,0.2293858,-0.2293858,0.51654186,46.085274,62.299775)" />
  <path
     style="fill:#c2c2c2;fill-opacity:1;fill-rule:nonzero;stroke:url(#linearGradient37);stroke-width:3.2353;stroke-linecap:round;stroke-linejoin:round;stroke-dasharray:none;stroke-opacity:1;paint-order:markers stroke fill"
     d="m -70.226506,183.78773 v 0 c -1.205023,0.47863 -2.255439,0.7872 -3.209248,0.9462 -0.723867,0.12067 -1.366509,0.14982 -1.887305,0.1007 -0.466476,-0.044 -0.988398,-0.1622 -1.547322,-0.49856 -0.525363,-0.31616 -1.125892,-0.8525 -1.691882,-1.73327 -1.062066,-1.65275 -1.918555,-4.42399 -1.719726,-8.295 0.188046,-3.66106 1.320569,-8.08318 3.84663,-12.87239 1.160839,-2.2295 2.805233,-4.46711 4.941172,-6.75101 2.156606,-2.306 4.754735,-4.59591 7.729541,-6.91146 6.152129,-4.78874 13.911764,-9.67124 21.983403,-14.65557 9.75847,-6.02598 18.053366,-11.05243 27.636948,-17.48261 12.2683374,-8.23152 21.73865,-15.54855 30.160813,-22.695247 -8.2787515,7.024999 -18.294583,14.273867 -30.740806,21.784357 -9.585844,5.78444 -18.671245,10.58746 -28.56266,15.74462 -8.303735,4.32938 -16.728398,8.67732 -23.525329,12.94044 -3.326364,2.08634 -6.419717,4.2442 -9.144197,6.53146 -2.695715,2.26311 -5.085695,4.69839 -7.014009,7.39204 -3.699955,5.13138 -6.107738,10.38148 -7.295854,15.38698 -1.240691,5.22701 -1.166653,10.26254 0.256329,14.61179 0.769594,2.3522 1.931661,4.4936 3.474071,6.32451 1.681731,1.99628 3.731761,3.52349 6.008422,4.55497 2.567201,1.16312 5.236878,1.61544 7.761636,1.59464 3.088427,-0.0255 5.915108,-0.75287 8.236261,-1.67483 a 7.7163706,7.7163706 90 0 0 -5.696888,-14.34276 z"
     id="path32"
     inkscape:path-effect="#path-effect32"
     inkscape:original-d="m -67.378061,190.95911 c -16.32657,6.48485 -24.653339,-11.93874 -12.32486,-31.57519 12.328479,-19.63645 54.881894,-31.79139 95.719439,-66.444407"
     sodipodi:nodetypes="czc"
     transform="matrix(0.55545101,0,0,0.55545101,57.845737,13.8073)" />
  <path
     style="fill:#c2c2c2;fill-opacity:1;fill-rule:nonzero;stroke:url(#linearGradient39);stroke-width:3.2353;stroke-linecap:round;stroke-linejoin:round;stroke-dasharray:none;stroke-opacity:1;paint-order:markers stroke fill"
     d="m -67.835605,183.25632 v 0 c -2.365408,0.1405 -4.95806,0.0181 -7.41378,-0.90218 -1.807751,-0.67743 -3.524844,-1.79331 -4.736003,-3.48046 -0.554945,-0.77304 -1.028413,-1.70202 -1.329498,-2.80579 -0.290436,-1.06472 -0.427667,-2.32096 -0.293759,-3.76572 0.261599,-2.82247 1.56774,-6.36478 4.704062,-10.26214 1.566407,-1.94446 3.55905,-3.95934 5.95502,-6.06806 2.417226,-2.12742 5.196698,-4.30821 8.271662,-6.56272 6.307843,-4.6248 14.104552,-9.72562 21.956067,-14.89724 24.55051,-16.17089 39.2049477,-26.69439 56.738352,-41.572497 -16.20319185,13.749347 -34.290458,25.537847 -58.320763,38.968707 -7.946957,4.44166 -16.645555,9.14186 -23.297388,13.05307 -3.350768,1.97021 -6.498864,3.91809 -9.335971,5.86159 -2.803909,1.92076 -5.361408,3.87581 -7.563655,5.90493 -4.468599,4.12016 -7.462445,8.61332 -8.951227,13.27024 -0.765346,2.39401 -1.12088,4.79819 -1.08146,7.15555 0.04093,2.44782 0.506927,4.79324 1.330491,6.97018 1.832166,4.84301 5.279427,8.50569 9.19022,10.88956 5.171423,3.1523 10.751855,3.90641 15.092715,3.64856 a 7.7163706,7.7163706 90 0 0 -0.915085,-15.40558 z"
     id="path38"
     inkscape:path-effect="#path-effect39"
     inkscape:original-d="m -67.378061,190.95911 c -17.092502,1.01529 -27.376171,-15.7179 -12.32486,-31.57519 15.051311,-15.85729 54.881894,-31.79139 95.719439,-66.444407"
     sodipodi:nodetypes="czc"
     transform="matrix(0.27772551,-0.48103469,-0.48103469,-0.27772551,118.82513,89.164861)" />
  <path
     id="path44"
     style="fill:#ffffff;fill-opacity:1;fill-rule:nonzero;stroke:none;stroke-width:1.79705;stroke-linecap:round;stroke-linejoin:round;stroke-dasharray:none;stroke-opacity:1;paint-order:markers stroke fill;filter:url(#filter60)"
     d="m 17.078897,28.032029 c -3.038765,0.11784 -6.088817,1.106753 -8.5296158,2.934913 -3.7175722,3.077043 -5.3004376,8.295384 -4.4934071,12.984192 0.1437734,0.832369 0.3758753,1.648585 0.6851324,2.434411 -0.9519677,-3.821646 0.056269,-8.050575 2.4520143,-11.147573 1.2989017,-1.694355 3.1846662,-2.895644 5.2794592,-3.321889 3.038347,-0.79204 6.683048,-0.426364 8.914712,1.98804 1.493734,1.520708 2.275235,3.546021 3.004205,5.50486 0.921812,1.675055 3.636332,1.797533 4.655657,0.153511 0.843765,-1.187284 0.415237,-2.733896 -0.272355,-3.881734 -1.925973,-3.880937 -5.618041,-7.164716 -10.059055,-7.581704 -0.543406,-0.0605 -1.09027,-0.0774 -1.636747,-0.06703 z M 7.2878815,49.133592 c -0.2359022,0.720319 1.1671823,0.08348 0.5276123,-0.173572 -0.2300753,-0.08683 -0.3578105,0.03285 -0.5276123,0.173572 z" />
  <path
     id="path45"
     style="display:inline;mix-blend-mode:normal;fill:#ffffff;fill-opacity:1;fill-rule:nonzero;stroke:none;stroke-width:1.79705;stroke-linecap:round;stroke-linejoin:round;stroke-dasharray:none;stroke-opacity:1;paint-order:markers stroke fill;filter:url(#filter59)"
     d="m 19.340615,96.170701 c -3.3154,2.237398 -6.248107,5.134429 -8.102297,8.710369 -1.9604164,3.7109 -3.1905956,8.1649 -1.890744,12.29761 0.819079,2.77957 3.133012,5.10462 6.011126,5.67264 2.08652,0.4631 4.339108,0.20733 6.270978,-0.69819 1.42391,-0.68221 1.957955,-2.66171 0.976563,-3.92969 -0.71603,-1.09734 -2.186732,-1.41034 -3.359054,-0.91166 -1.588961,0.59873 -3.52819,1.08073 -5.042632,0.0267 -2.084029,-1.42276 -2.554266,-4.16494 -2.541904,-6.51654 0.09736,-3.52973 1.415681,-6.96621 3.363511,-9.88169 1.346033,-1.92717 3.016949,-3.604906 4.8125,-5.113289 -0.166015,0.114584 -0.332031,0.229167 -0.498047,0.34375 z" />
  <path
     id="path47"
     style="fill:#ffffff;fill-opacity:1;fill-rule:nonzero;stroke:none;stroke-width:1.79705;stroke-linecap:round;stroke-linejoin:round;stroke-dasharray:none;stroke-opacity:1;paint-order:markers stroke fill;filter:url(#filter57)"
     d="m 7.9597565,65.754686 c -1.7232702,0.179817 -2.5028649,1.977078 -3.1289062,3.363281 -1.7091153,3.972238 -1.2767269,9.043644 1.8260776,12.223674 2.5832033,2.733689 6.6091511,3.638757 10.2383121,3.06083 4.06289,-0.583253 7.765056,-2.510467 11.343813,-4.41927 -3.939423,1.545672 -8.09173,3.159027 -12.404297,2.75586 C 13.165154,82.473519 10.346194,81.181175 9.1935196,78.615415 7.9239561,76.095853 8.615995,73.0929 9.9868039,70.768982 10.544724,69.838097 11.262947,68.785314 10.813095,67.653893 10.465366,66.419047 9.2278359,65.610436 7.9597565,65.754686 Z" />
  <path
     style="display:inline;fill:#c2c2c2;fill-opacity:1;fill-rule:nonzero;stroke:url(#linearGradient61);stroke-width:1.79705;stroke-linecap:round;stroke-linejoin:round;stroke-dasharray:none;stroke-opacity:1;paint-order:markers stroke fill"
     d="m 52.889687,117.61299 c 0.952044,-0.95417 1.876197,-1.49526 2.702295,-1.7219 0.656048,-0.17999 1.311473,-0.17919 1.942272,0.0479 0.565734,0.20364 1.221491,0.63345 1.773852,1.44299 0.505826,0.74134 0.954985,1.85674 1.024329,3.39554 0.06521,1.2643 -0.228421,2.41588 -0.866314,3.44717 -0.622049,1.00567 -1.599633,1.93304 -2.905971,2.62959 -1.260114,0.6719 -2.769737,1.09514 -4.372104,1.14657 -1.557387,0.05 -3.180254,-0.25283 -4.697624,-1.00136 -1.483689,-0.73077 -2.715887,-1.82033 -3.705536,-3.22801 -0.986922,-1.40379 -1.706401,-3.09763 -2.126599,-4.95379 -0.419455,-1.85288 -0.52866,-3.81651 -0.335766,-5.71982 0.194221,-1.91639 0.690585,-3.73342 1.449524,-5.29445 -0.475691,0.97843 -0.826625,2.01273 -1.044565,3.07861 0.294196,-1.08284 0.660275,-2.14486 1.095799,-3.17899 0.903899,-2.14625 2.078638,-4.10407 3.437302,-5.93279 1.390099,-1.871036 2.970148,-3.603584 4.634399,-5.251944 3.51288,-3.479335 7.363473,-6.58746 10.687985,-9.747275 8.727954,-8.296255 14.065358,-16.243075 17.661695,-22.374349 -3.597916,6.133968 -9.379972,13.812234 -18.514243,21.416615 -3.471815,2.890075 -7.505394,5.703771 -11.383008,9.022595 -1.830229,1.56648 -3.638234,3.268759 -5.28306,5.164688 -1.611506,1.85751 -3.08638,3.92323 -4.290561,6.27242 l 0.05123,-0.10036 c -1.136792,1.86545 -1.941398,4.04147 -2.382606,6.33988 -0.437812,2.28072 -0.521613,4.703 -0.200882,7.07791 0.320401,2.37245 1.049601,4.73149 2.265749,6.85327 1.229674,2.14538 2.957627,4.04596 5.234735,5.43443 2.28078,1.39148 4.805838,2.11558 7.290472,2.26796 2.536137,0.15553 5.053446,-0.27958 7.306836,-1.21545 2.329676,-0.96756 4.417363,-2.48714 5.96887,-4.50242 1.639772,-2.12992 2.610559,-4.72439 2.709506,-7.59345 0.10245,-2.83661 -0.517412,-5.39693 -1.664504,-7.52061 -1.247894,-2.31029 -3.087872,-4.04884 -5.212111,-5.10282 -2.409432,-1.19548 -5.016302,-1.43802 -7.436026,-0.94703 -2.908734,0.59022 -5.324368,2.17137 -7.163547,4.01466 a 4.4838473,4.4838473 90 0 0 6.34818,6.33404 z"
     id="path60"
     inkscape:path-effect="#path-effect60"
     inkscape:original-d="m 49.715597,114.44597 c 6.316454,-6.33055 14.522579,-2.1117 14.459468,6.36016 -0.06311,8.47186 -10.518158,12.88074 -18.058851,8.63266 C 38.575521,125.19071 37.485981,113.87778 41.29853,106.98801 45.479874,98.071509 54.024905,92.640649 61.156691,86.292144 68.288477,79.943639 74.356403,72.730488 79.24466,64.396662"
     sodipodi:nodetypes="czzczc" />
  <path
     id="path61"
     style="display:inline;fill:#ffffff;fill-opacity:1;fill-rule:nonzero;stroke:none;stroke-width:1.79705;stroke-linecap:round;stroke-linejoin:round;stroke-dasharray:none;stroke-opacity:1;paint-order:markers stroke fill;filter:url(#filter62)"
     d="m 39.527344,106.20117 c -0.801508,0.57886 0.420271,0.31678 0.05273,-0.008 z m 3.417968,1.10547 c -0.66775,0.39925 0.199672,0.7972 0.244141,0.12695 -0.04534,-0.0828 -0.146974,-0.15329 -0.244141,-0.12695 z m 12.72461,1.86133 c -3.096456,0.1509 -6.12606,1.71579 -8.025391,4.16211 -0.857905,1.47862 0.396692,3.57105 2.111328,3.45898 1.511055,-0.0268 2.252044,-1.52581 3.46875,-2.16211 2.026433,-1.2824 4.932609,-1.37289 6.736693,0.35825 3.136982,2.84133 3.320804,8.2338 0.529639,11.37909 -3.170469,3.69521 -8.809693,4.73482 -13.221829,2.82314 -2.827315,-1.12195 -5.093141,-3.41188 -6.344989,-6.16751 -1.001839,-2.04311 -1.581422,-4.28632 -1.752248,-6.55312 -0.06225,4.82626 1.679054,9.83892 5.574219,12.8457 2.037274,1.57367 4.632094,2.48722 7.128906,2.69141 3.464815,0.31365 7.22398,-0.7351 9.952895,-3.01655 2.646708,-2.12046 4.160445,-5.48875 4.086718,-8.87013 0.03314,-4.02661 -2.030976,-8.22473 -5.7515,-10.02248 -1.38343,-0.70511 -2.946002,-1.00161 -4.493191,-0.92678 z" />
</g>
<metadata
   id="metadata1">
  <rdf:RDF>
    <cc:Work
       rdf:about="">
      <dc:creator>
        <cc:Agent>
          <dc:title>Jess Tipton</dc:title>
        </cc:Agent>
      </dc:creator>
      <dc:publisher>
        <cc:Agent>
          <dc:title>m0dw3rks.com</dc:title>
        </cc:Agent>
      </dc:publisher>
      <cc:license
         rdf:resource="https://creativecommons.org/licenses/by-nc-nd/4.0/deed.en" />
    </cc:Work>
  </rdf:RDF>
</metadata>
<metadata
   id="metadata6">
  <rdf:RDF>
    <cc:Work
       rdf:about="">
      <dc:creator>
        <cc:Agent>
          <dc:title>Jess Tipton</dc:title>
        </cc:Agent>
      </dc:creator>
      <cc:license
         rdf:resource="https://creativecommons.org/licenses/by-nc-nd/4.0/deed.en" />
      <dc:publisher>
        <cc:Agent>
          <dc:title>m0dw3rks.com</dc:title>
        </cc:Agent>
      </dc:publisher>
    </cc:Work>
  </rdf:RDF>
</metadata>
<metadata
   id="metadata2">
  <rdf:RDF>
    <cc:Work
       rdf:about="">
      <dc:creator>
        <cc:Agent>
          <dc:title>Jess Tipton</dc:title>
        </cc:Agent>
      </dc:creator>
      <cc:license
         rdf:resource="https://creativecommons.org/licenses/by-nc-nd/4.0/deed.en" />
      <dc:publisher>
        <cc:Agent>
          <dc:title>m0dw3rks.com</dc:title>
        </cc:Agent>
      </dc:publisher>
    </cc:Work>
  </rdf:RDF>
</metadata>
<metadata
   id="metadata3">
  <rdf:RDF>
    <cc:Work
       rdf:about="">
      <dc:creator>
        <cc:Agent>
          <dc:title>Jess Tipton</dc:title>
        </cc:Agent>
      </dc:creator>
      <cc:license
         rdf:resource="https://creativecommons.org/licenses/by-nc-nd/4.0/deed.en" />
      <dc:publisher>
        <cc:Agent>
          <dc:title>m0dw3rks.com</dc:title>
        </cc:Agent>
      </dc:publisher>
    </cc:Work>
  </rdf:RDF>
</metadata>
<metadata
   id="metadata4">
  <rdf:RDF>
    <cc:Work
       rdf:about="">
      <dc:creator>
        <cc:Agent>
          <dc:title>Jess Tipton</dc:title>
        </cc:Agent>
      </dc:creator>
      <cc:license
         rdf:resource="https://creativecommons.org/licenses/by-nc-nd/4.0/deed.en" />
      <dc:publisher>
        <cc:Agent>
          <dc:title>m0dw3rks.com</dc:title>
        </cc:Agent>
      </dc:publisher>
    </cc:Work>
  </rdf:RDF>
</metadata>
<metadata
   id="metadata5">
  <rdf:RDF>
    <cc:Work
       rdf:about="">
      <dc:creator>
        <cc:Agent>
          <dc:title>Jess Tipton</dc:title>
        </cc:Agent>
      </dc:creator>
      <cc:license
         rdf:resource="https://creativecommons.org/licenses/by-nc-nd/4.0/deed.en" />
      <dc:publisher>
        <cc:Agent>
          <dc:title>m0dw3rks.com</dc:title>
        </cc:Agent>
      </dc:publisher>
    </cc:Work>
  </rdf:RDF>
</metadata>
<metadata
   id="metadata7">
  <rdf:RDF>
    <cc:Work
       rdf:about="">
      <dc:creator>
        <cc:Agent>
          <dc:title>Jess Tipton</dc:title>
        </cc:Agent>
      </dc:creator>
      <cc:license
         rdf:resource="https://creativecommons.org/licenses/by-nc-nd/4.0/deed.en" />
      <dc:publisher>
        <cc:Agent>
          <dc:title>m0dw3rks.com</dc:title>
        </cc:Agent>
      </dc:publisher>
    </cc:Work>
  </rdf:RDF>
</metadata>
<metadata
   id="metadata8">
  <rdf:RDF>
    <cc:Work
       rdf:about="">
      <dc:creator>
        <cc:Agent>
          <dc:title>Jess Tipton</dc:title>
        </cc:Agent>
      </dc:creator>
      <cc:license
         rdf:resource="https://creativecommons.org/licenses/by-nc-nd/4.0/deed.en" />
      <dc:publisher>
        <cc:Agent>
          <dc:title>m0dw3rks.com</dc:title>
        </cc:Agent>
      </dc:publisher>
    </cc:Work>
  </rdf:RDF>
</metadata>
<metadata
   id="metadata9">
  <rdf:RDF>
    <cc:Work
       rdf:about="">
      <dc:creator>
        <cc:Agent>
          <dc:title>Jess Tipton</dc:title>
        </cc:Agent>
      </dc:creator>
      <cc:license
         rdf:resource="https://creativecommons.org/licenses/by-nc-nd/4.0/deed.en" />
      <dc:publisher>
        <cc:Agent>
          <dc:title>m0dw3rks.com</dc:title>
        </cc:Agent>
      </dc:publisher>
    </cc:Work>
  </rdf:RDF>
</metadata>
<metadata
   id="metadata10">
  <rdf:RDF>
    <cc:Work
       rdf:about="">
      <dc:creator>
        <cc:Agent>
          <dc:title>Jess Tipton</dc:title>
        </cc:Agent>
      </dc:creator>
      <cc:license
         rdf:resource="https://creativecommons.org/licenses/by-nc-nd/4.0/deed.en" />
      <dc:publisher>
        <cc:Agent>
          <dc:title>m0dw3rks.com</dc:title>
        </cc:Agent>
      </dc:publisher>
    </cc:Work>
  </rdf:RDF>
</metadata>
<metadata
   id="metadata11">
  <rdf:RDF>
    <cc:Work
       rdf:about="">
      <dc:creator>
        <cc:Agent>
          <dc:title>Jess Tipton</dc:title>
        </cc:Agent>
      </dc:creator>
      <cc:license
         rdf:resource="https://creativecommons.org/licenses/by-nc-nd/4.0/deed.en" />
      <dc:publisher>
        <cc:Agent>
          <dc:title>m0dw3rks.com</dc:title>
        </cc:Agent>
      </dc:publisher>
    </cc:Work>
  </rdf:RDF>
</metadata>
<metadata
   id="metadata12">
  <rdf:RDF>
    <cc:Work
       rdf:about="">
      <dc:creator>
        <cc:Agent>
          <dc:title>Jess Tipton</dc:title>
        </cc:Agent>
      </dc:creator>
      <cc:license
         rdf:resource="https://creativecommons.org/licenses/by-nc-nd/4.0/deed.en" />
      <dc:publisher>
        <cc:Agent>
          <dc:title>m0dw3rks.com</dc:title>
        </cc:Agent>
      </dc:publisher>
    </cc:Work>
  </rdf:RDF>
</metadata>
<metadata
   id="metadata13">
  <rdf:RDF>
    <cc:Work
       rdf:about="">
      <dc:creator>
        <cc:Agent>
          <dc:title>Jess Tipton</dc:title>
        </cc:Agent>
      </dc:creator>
      <cc:license
         rdf:resource="https://creativecommons.org/licenses/by-nc-nd/4.0/deed.en" />
      <dc:publisher>
        <cc:Agent>
          <dc:title>m0dw3rks.com</dc:title>
        </cc:Agent>
      </dc:publisher>
    </cc:Work>
  </rdf:RDF>
</metadata>
<metadata
   id="metadata14">
  <rdf:RDF>
    <cc:Work
       rdf:about="">
      <dc:creator>
        <cc:Agent>
          <dc:title>Jess Tipton</dc:title>
        </cc:Agent>
      </dc:creator>
      <cc:license
         rdf:resource="https://creativecommons.org/licenses/by-nc-nd/4.0/deed.en" />
      <dc:publisher>
        <cc:Agent>
          <dc:title>m0dw3rks.com</dc:title>
        </cc:Agent>
      </dc:publisher>
    </cc:Work>
  </rdf:RDF>
</metadata>
<metadata
   id="metadata15">
  <rdf:RDF>
    <cc:Work
       rdf:about="">
      <dc:creator>
        <cc:Agent>
          <dc:title>Jess Tipton</dc:title>
        </cc:Agent>
      </dc:creator>
      <cc:license
         rdf:resource="https://creativecommons.org/licenses/by-nc-nd/4.0/deed.en" />
      <dc:publisher>
        <cc:Agent>
          <dc:title>m0dw3rks.com</dc:title>
        </cc:Agent>
      </dc:publisher>
    </cc:Work>
  </rdf:RDF>
</metadata>
<metadata
   id="metadata16">
  <rdf:RDF>
    <cc:Work
       rdf:about="">
      <dc:creator>
        <cc:Agent>
          <dc:title>Jess Tipton</dc:title>
        </cc:Agent>
      </dc:creator>
      <cc:license
         rdf:resource="https://creativecommons.org/licenses/by-nc-nd/4.0/deed.en" />
      <dc:publisher>
        <cc:Agent>
          <dc:title>m0dw3rks.com</dc:title>
        </cc:Agent>
      </dc:publisher>
    </cc:Work>
  </rdf:RDF>
</metadata>
<metadata
   id="metadata17">
  <rdf:RDF>
    <cc:Work
       rdf:about="">
      <dc:creator>
        <cc:Agent>
          <dc:title>Jess Tipton</dc:title>
        </cc:Agent>
      </dc:creator>
      <cc:license
         rdf:resource="https://creativecommons.org/licenses/by-nc-nd/4.0/deed.en" />
      <dc:publisher>
        <cc:Agent>
          <dc:title>m0dw3rks.com</dc:title>
        </cc:Agent>
      </dc:publisher>
    </cc:Work>
  </rdf:RDF>
</metadata>
<metadata
   id="metadata18">
  <rdf:RDF>
    <cc:Work
       rdf:about="">
      <dc:creator>
        <cc:Agent>
          <dc:title>Jess Tipton</dc:title>
        </cc:Agent>
      </dc:creator>
      <cc:license
         rdf:resource="https://creativecommons.org/licenses/by-nc-nd/4.0/deed.en" />
      <dc:publisher>
        <cc:Agent>
          <dc:title>m0dw3rks.com</dc:title>
        </cc:Agent>
      </dc:publisher>
    </cc:Work>
  </rdf:RDF>
</metadata>
</svg>
