<?xml version="1.0" encoding="UTF-8" standalone="no"?>
<!-- Created with Inkscape (http://www.inkscape.org/) -->

<svg
   width="512"
   height="512"
   viewBox="0 0 135.46666 135.46667"
   version="1.1"
   id="svg5"
   inkscape:version="1.4.2 (ebf0e940d0, 2025-05-08)"
   sodipodi:docname="document-save-all.svg"
   xmlns:inkscape="http://www.inkscape.org/namespaces/inkscape"
   xmlns:sodipodi="http://sodipodi.sourceforge.net/DTD/sodipodi-0.dtd"
   xmlns:xlink="http://www.w3.org/1999/xlink"
   xmlns="http://www.w3.org/2000/svg"
   xmlns:svg="http://www.w3.org/2000/svg">
  <sodipodi:namedview
     id="namedview7"
     pagecolor="#292929"
     bordercolor="#666666"
     borderopacity="1"
     inkscape:showpageshadow="0"
     inkscape:pageopacity="0"
     inkscape:pagecheckerboard="1"
     inkscape:deskcolor="#1a1a1a"
     inkscape:document-units="px"
     showgrid="false"
     inkscape:zoom="2.6074563"
     inkscape:cx="341.90411"
     inkscape:cy="91.084941"
     inkscape:window-width="3256"
     inkscape:window-height="1080"
     inkscape:window-x="1864"
     inkscape:window-y="0"
     inkscape:window-maximized="0"
     inkscape:current-layer="layer1"
     showguides="false" />
  <defs
     id="defs2">
    <linearGradient
       id="linearGradient36"
       inkscape:collect="always">
      <stop
         style="stop-color:#a3a29d;stop-opacity:1;"
         offset="0"
         id="stop36" />
      <stop
         style="stop-color:#a3a29d;stop-opacity:0;"
         offset="1"
         id="stop37" />
    </linearGradient>
    <linearGradient
       id="linearGradient2"
       inkscape:collect="always">
      <stop
         style="stop-color:#000000;stop-opacity:1;"
         offset="0"
         id="stop3" />
      <stop
         style="stop-color:#ffffff;stop-opacity:1;"
         offset="0.2"
         id="stop7" />
      <stop
         style="stop-color:#000000;stop-opacity:1;"
         offset="0.40365851"
         id="stop8" />
      <stop
         style="stop-color:#ffffff;stop-opacity:1;"
         offset="0.60454738"
         id="stop9" />
      <stop
         style="stop-color:#000000;stop-opacity:1;"
         offset="0.79727012"
         id="stop10" />
      <stop
         style="stop-color:#ffffff;stop-opacity:1;"
         offset="1"
         id="stop6" />
    </linearGradient>
    <radialGradient
       inkscape:collect="always"
       xlink:href="#linearGradient3"
       id="radialGradient5"
       cx="32.119305"
       cy="-12.330684"
       fx="32.119305"
       fy="-12.330684"
       r="58.743252"
       gradientTransform="matrix(1,0,0,1.0513193,0,0.63280235)"
       gradientUnits="userSpaceOnUse" />
    <linearGradient
       id="linearGradient3"
       inkscape:collect="always">
      <stop
         style="stop-color:#a3a29d;stop-opacity:1;"
         offset="0"
         id="stop4" />
      <stop
         style="stop-color:#a3a29d;stop-opacity:0;"
         offset="1"
         id="stop5" />
    </linearGradient>
    <filter
       inkscape:collect="always"
       style="color-interpolation-filters:sRGB"
       id="filter19"
       x="-0.071145962"
       y="-0.067206228"
       width="1.1422919"
       height="1.1344125">
      <feGaussianBlur
         inkscape:collect="always"
         stdDeviation="3.048947"
         id="feGaussianBlur19" />
    </filter>
    <linearGradient
       inkscape:collect="always"
       xlink:href="#linearGradient2"
       id="linearGradient12"
       x1="0"
       y1="84.310989"
       x2="93.05471"
       y2="84.310989"
       gradientUnits="userSpaceOnUse"
       gradientTransform="translate(1.0583333,-1.0583333)" />
    <linearGradient
       inkscape:collect="always"
       xlink:href="#linearGradient2"
       id="linearGradient14"
       x1="0"
       y1="31.321859"
       x2="27.909407"
       y2="31.321859"
       gradientUnits="userSpaceOnUse"
       gradientTransform="translate(1.0583333,-1.0583333)" />
    <linearGradient
       inkscape:collect="always"
       xlink:href="#linearGradient2"
       id="linearGradient16"
       x1="30.036926"
       y1="31.321859"
       x2="57.946335"
       y2="31.321859"
       gradientUnits="userSpaceOnUse"
       gradientTransform="translate(1.0583333,-1.0583333)" />
    <linearGradient
       inkscape:collect="always"
       xlink:href="#linearGradient2"
       id="linearGradient18"
       gradientUnits="userSpaceOnUse"
       gradientTransform="matrix(1.2161978,0,0,1.2161978,-0.56161633,-30.345935)"
       x1="43.991627"
       y1="25.821678"
       x2="35.462971"
       y2="136.33687" />
    <radialGradient
       inkscape:collect="always"
       xlink:href="#linearGradient36"
       id="radialGradient37"
       cx="67.726564"
       cy="67.729489"
       fx="67.726564"
       fy="67.729489"
       r="58.177736"
       gradientTransform="matrix(1,0,0,1.0005539,0,-0.03751647)"
       gradientUnits="userSpaceOnUse" />
    <filter
       inkscape:collect="always"
       style="color-interpolation-filters:sRGB"
       id="filter37"
       x="-0.069139143"
       y="-0.069100867"
       width="1.1382783"
       height="1.1382017">
      <feGaussianBlur
         inkscape:collect="always"
         stdDeviation="3.3519657"
         id="feGaussianBlur37" />
    </filter>
    <linearGradient
       inkscape:collect="always"
       xlink:href="#linearGradient2"
       id="linearGradient1"
       gradientUnits="userSpaceOnUse"
       gradientTransform="matrix(1.2161978,0,0,1.2161978,34.31491,-30.345935)"
       x1="43.991627"
       y1="25.821678"
       x2="35.462971"
       y2="136.33687" />
    <linearGradient
       inkscape:collect="always"
       xlink:href="#linearGradient2"
       id="linearGradient4"
       gradientUnits="userSpaceOnUse"
       gradientTransform="matrix(1.2161978,0,0,1.2161978,69.191437,-30.345935)"
       x1="43.991627"
       y1="25.821678"
       x2="35.462971"
       y2="136.33687" />
    <linearGradient
       inkscape:collect="always"
       xlink:href="#linearGradient2"
       id="linearGradient5"
       gradientUnits="userSpaceOnUse"
       gradientTransform="matrix(1.2161978,0,0,1.2161978,-35.43814,-30.345935)"
       x1="43.991627"
       y1="25.821678"
       x2="35.462971"
       y2="136.33687" />
  </defs>
  <g
     inkscape:label="Layer 1"
     inkscape:groupmode="layer"
     id="layer1">
    <path
       id="path19"
       style="display:none;fill:url(#radialGradient5);fill-opacity:1;stroke:none;stroke-width:1.79709;stroke-linecap:round;stroke-linejoin:round;paint-order:stroke fill markers;filter:url(#filter19)"
       d="m -19.306475,15.652702 c 7.32335,0.02788 14.65488,-0.108966 21.9707,0.263672 4.387923,1.126936 7.160749,5.931176 6.541016,10.314866 0,5.29284 0,10.58568 0,15.87851 15.279297,0 30.558594,0 45.837891,0 0.04285,-6.74418 -0.197394,-13.50572 0.341797,-20.23437 1.278677,-4.25617 6.013069,-6.81551 10.305074,-6.222678 5.9517,0 11.90339,0 17.85508,0 -17.14192,-27.474609 -34.283852,-54.949219 -51.425779,-82.423828 -17.141927,27.474609 -34.283859,54.949219 -51.425779,82.423828 z"
       transform="matrix(0,1,1,0,368.93664,79.785711)" />
    <path
       id="rect2"
       style="display:none;fill:#c2c2c2;stroke:url(#linearGradient14);stroke-width:1.79705;stroke-linecap:round;stroke-linejoin:round;stroke-dashoffset:83.2;paint-order:markers stroke fill"
       d="m 3.2013545,24.763345 c -1.187121,0 -2.1430212,0.955384 -2.1430212,2.142505 v 1.524455 1.523938 5.809464 H 28.967741 V 29.954243 28.430305 26.90585 c 0,-1.187121 -0.9559,-2.142505 -2.143022,-2.142505 z"
       sodipodi:insensitive="true" />
    <path
       id="path3"
       style="display:none;fill:#c2c2c2;stroke:url(#linearGradient16);stroke-width:1.79705;stroke-linecap:round;stroke-linejoin:round;stroke-dashoffset:83.2;paint-order:markers stroke fill"
       d="m 33.238282,24.763345 c -1.187119,0 -2.143022,0.955386 -2.143022,2.142505 v 1.524455 1.523938 5.809464 H 59.004667 V 29.954243 28.430305 26.90585 c 0,-1.187119 -0.955903,-2.142505 -2.143022,-2.142505 z m 23.624914,2.13217 0.02222,6.751009 H 33.21141 v -6.751009 z"
       sodipodi:nodetypes="ssccccccsssccccc"
       sodipodi:insensitive="true" />
    <rect
       style="display:none;fill:#c2c2c2;stroke:url(#linearGradient12);stroke-width:1.79705;stroke-linecap:round;stroke-linejoin:round;stroke-dashoffset:83.2;paint-order:markers stroke fill"
       id="rect1"
       width="93.05471"
       height="102.31135"
       x="1.0583333"
       y="32.096981"
       sodipodi:insensitive="true" />
    <path
       id="path17"
       style="display:inline;fill:#c2c2c2;stroke:url(#linearGradient18);stroke-width:1.79705;stroke-linecap:round;stroke-linejoin:round;stroke-dashoffset:83.2;paint-order:markers stroke fill"
       d="m 38.575563,1.0583337 c -1.443771,0 -2.606339,1.1619384 -2.606339,2.6057099 v 1.8540388 1.85341 10.7696246 H 64.620917 V 7.3714924 5.5180824 3.6640436 c 0,-1.4437715 -1.162567,-2.6057099 -2.606339,-2.6057099 z m 23.440901,2.5931405 0.02702,11.9147288 H 38.542881 V 3.6514742 Z"
       sodipodi:nodetypes="ssccccccsssccccc" />
    <path
       id="path1"
       style="display:inline;fill:#c2c2c2;stroke:url(#linearGradient1);stroke-width:1.79705;stroke-linecap:round;stroke-linejoin:round;stroke-dashoffset:83.2;paint-order:markers stroke fill"
       d="m 73.45209,1.0583337 c -1.443771,0 -2.606339,1.1619384 -2.606339,2.6057099 v 1.8540388 1.85341 10.7696246 H 99.497439 V 7.3714924 5.5180824 3.6640436 c 0,-1.4437715 -1.16256,-2.6057099 -2.60633,-2.6057099 z m 23.440899,2.5931405 0.027,11.9147288 H 73.419408 V 3.6514742 Z"
       sodipodi:nodetypes="ssccccccsssccccc" />
    <path
       id="path2"
       style="display:inline;fill:#c2c2c2;stroke:url(#linearGradient4);stroke-width:1.79705;stroke-linecap:round;stroke-linejoin:round;stroke-dashoffset:83.2;paint-order:markers stroke fill"
       d="m 108.32861,1.0583337 c -1.44378,0 -2.60634,1.1619384 -2.60634,2.6057099 v 1.8540388 1.85341 10.7696246 h 28.6517 V 7.3714924 5.5180824 3.6640436 c 0,-1.4437715 -1.16256,-2.6057099 -2.60633,-2.6057099 z m 23.44091,2.5931405 0.027,11.9147288 H 108.29593 V 3.6514742 Z"
       sodipodi:nodetypes="ssccccccsssccccc" />
    <path
       id="path4"
       style="display:inline;fill:#c2c2c2;stroke:url(#linearGradient5);stroke-width:1.79705;stroke-linecap:round;stroke-linejoin:round;stroke-dashoffset:83.2;paint-order:markers stroke fill"
       d="M 3.698999 1.0583333 C 2.2552284 1.0583333 1.0929565 2.2200875 1.0929565 3.663859 L 1.0929565 5.5180094 L 1.0929565 7.371643 L 1.0929565 15.268835 L 1.0929565 18.141011 L 1.0929565 19.728511 L 1.0929565 134.40833 L 134.37423 134.40833 L 134.37423 15.268835 L 35.036104 15.268835 L 29.744437 15.268835 L 29.744437 7.371643 L 29.744437 5.5180094 L 29.744437 3.663859 C 29.744437 2.2200875 28.58165 1.0583333 27.137878 1.0583333 L 3.698999 1.0583333 z M 53.388989 27.407112 L 82.146923 27.407112 L 82.146923 60.005639 L 109.22951 60.005639 L 67.768472 123.93455 L 26.306404 60.005639 L 53.388989 60.005639 L 53.388989 27.407112 z " />
    <path
       id="path20"
       style="display:none;fill:#00ff00;stroke:none;stroke-width:1.79705;stroke-linecap:round;stroke-linejoin:round;stroke-dasharray:none;stroke-dashoffset:83.2;paint-order:markers stroke fill"
       inkscape:transform-center-x="5.0891099e-06"
       inkscape:transform-center-y="11.968968"
       d="M 53.354571,24.232117 V 56.830688 H 26.271863 L 67.733723,120.75958 109.1948,56.830688 H 82.112126 V 24.232117 Z"
       sodipodi:nodetypes="cccccccc"
       sodipodi:insensitive="true" />
    <path
       id="path35"
       style="display:inline;fill:url(#radialGradient37);fill-opacity:1;stroke:none;stroke-width:1.79705;stroke-linecap:round;stroke-linejoin:round;stroke-dashoffset:83.2;paint-order:markers stroke fill;filter:url(#filter37)"
       d="m 17.880859,9.5273438 c -2.777343,0.0091 -5.554687,0.018231 -8.3320309,0.027344 0.00391,38.7949212 0.00781,77.5898432 0.011719,116.3847622 16.4687499,0 32.9374999,0 49.4062499,0 C 52.415621,115.70927 45.754403,105.55084 39.163732,95.345416 32.349597,84.820797 25.503469,74.314231 18.773036,63.736581 16.934738,60.137829 18.492507,55.49137 21.681592,53.198503 c 1.895713,-1.456799 4.368263,-1.959185 6.714487,-1.706808 5.507743,0.0609 11.015871,0.04561 16.523843,0.04541 0.04717,-8.744164 -0.176681,-17.500814 0.304687,-26.234375 0.172704,-0.558687 0.377233,-1.109919 0.660157,-1.623046 -4.235322,-0.04852 -8.485447,0.09758 -12.709945,-0.193585 -4.441699,-1.103606 -7.272013,-5.970773 -6.608628,-10.398603 -0.0025,-1.189323 -0.0051,-2.378646 -0.0076,-3.5679688 -2.892578,0.0026 -5.785156,0.00521 -8.677735,0.00781 z M 89.580078,23.746094 c 1.125017,2.154119 1.233453,4.652188 1.035156,7.025 0,6.922005 0,13.84401 0,20.766015 6.810981,0.03493 13.630106,-0.120069 20.433596,0.251953 5.29649,1.209733 8.12936,8.100915 5.36141,12.732211 -13.34615,20.452536 -26.570824,40.982797 -39.943443,61.418177 16.479167,0 32.958333,0 49.437503,0 0,-34.067054 0,-68.134111 0,-102.201169 -12.10808,-0.0034 -24.21615,-0.0011 -36.324222,0.0078 z" />
    <path
       id="path8"
       style="fill:#ff6600;stroke-width:1.5875;stroke-linecap:round;stroke-linejoin:round;stroke-miterlimit:12;paint-order:markers stroke fill"
       d="m 108.32842,1.0583343 h 23.35981 a 2.6458332,2.6458332 0 0 1 2.64584,2.645833 V 15.268835 H 105.68259 V 3.7041673 a 2.6458332,2.6458332 0 0 1 2.64583,-2.645833 z" />
    <path
       id="path7"
       style="fill:#00ff00;stroke-width:1.5875;stroke-linecap:round;stroke-linejoin:round;stroke-miterlimit:12;paint-order:markers stroke fill"
       d="m 73.491503,1.0583343 h 23.35981 a 2.6458332,2.6458332 0 0 1 2.64584,2.645833 V 15.268835 H 70.845673 V 3.7041673 a 2.6458332,2.6458332 0 0 1 2.64583,-2.645833 z" />
    <path
       id="path6"
       style="fill:#0000ff;stroke-width:1.5875;stroke-linecap:round;stroke-linejoin:round;stroke-miterlimit:12;paint-order:markers stroke fill"
       d="m 38.575373,1.0583343 h 23.35981 a 2.6458332,2.6458332 0 0 1 2.64583,2.645833 V 15.268835 H 35.929543 V 3.7041673 a 2.6458332,2.6458332 0 0 1 2.64583,-2.645833 z" />
    <path
       id="rect6"
       style="fill:#ffff00;stroke-width:1.5875;stroke-linecap:round;stroke-linejoin:round;stroke-miterlimit:12;paint-order:markers stroke fill"
       d="M 3.698999,1.0583333 H 27.05881 a 2.6458332,2.6458332 0 0 1 2.645833,2.645833 V 15.268835 H 1.053165 V 3.7041663 a 2.6458332,2.6458332 0 0 1 2.645834,-2.645833 z" />
  </g>
</svg>
