<?xml version="1.0" encoding="UTF-8" standalone="no"?>
<!-- Created with Inkscape (http://www.inkscape.org/) -->

<svg
   width="512"
   height="512"
   viewBox="0 0 135.46666 135.46667"
   version="1.1"
   id="svg5"
   inkscape:version="1.2.1 (9c6d41e410, 2022-07-14, custom)"
   sodipodi:docname="down.svg"
   xmlns:inkscape="http://www.inkscape.org/namespaces/inkscape"
   xmlns:sodipodi="http://sodipodi.sourceforge.net/DTD/sodipodi-0.dtd"
   xmlns="http://www.w3.org/2000/svg"
   xmlns:svg="http://www.w3.org/2000/svg">
  <sodipodi:namedview
     id="namedview7"
     pagecolor="#505050"
     bordercolor="#ffffff"
     borderopacity="1"
     inkscape:showpageshadow="0"
     inkscape:pageopacity="0"
     inkscape:pagecheckerboard="1"
     inkscape:deskcolor="#505050"
     inkscape:document-units="px"
     showgrid="false"
     inkscape:zoom="1.1214272"
     inkscape:cx="115.03199"
     inkscape:cy="275.54174"
     inkscape:window-width="3252"
     inkscape:window-height="1076"
     inkscape:window-x="1864"
     inkscape:window-y="0"
     inkscape:window-maximized="0"
     inkscape:current-layer="layer1" />
  <defs
     id="defs2" />
  <g
     inkscape:label="Layer 1"
     inkscape:groupmode="layer"
     id="layer1">
    <g
       id="g12962"
       transform="rotate(-90,67.73333,67.73333)"
       style="display:inline;fill:#c2c2c2;fill-opacity:1">
      <path
         id="rect792"
         style="opacity:1;fill:#c2c2c2;fill-opacity:1;stroke-width:1.79709;stroke-linecap:round;stroke-linejoin:round;paint-order:stroke fill markers"
         d="M 135.46666,0 V 135.46666 L 0,67.73333 Z"
         sodipodi:nodetypes="cccc" />
      <path
         id="rect792-3-5"
         style="display:none;opacity:0.48;fill:#c2c2c2;fill-opacity:1;stroke-width:1.79709;stroke-linecap:round;stroke-linejoin:round;paint-order:stroke fill markers"
         d="M 6.39492,67.734307 C 48.698311,88.886 91.001697,110.03769 133.30509,131.18939 c 0,-42.304041 0,-84.608077 0,-126.9121134 C 91.001697,25.42962 48.698311,46.581964 6.39492,67.734307 Z" />
      <path
         id="rect792-6"
         style="display:none;fill:#c2c2c2;fill-opacity:1;stroke-width:1.79709;stroke-linecap:round;stroke-linejoin:round;paint-order:stroke fill markers"
         d="m 129.64439,64.28125 c -5.09085,2.237551 -10.80322,2.549259 -16.28174,2.133453 C 107.70292,65.961384 102.16318,64.411788 96.785746,62.482374 92.70996,61.085227 88.502836,59.98506 84.187211,59.718291 73.532528,58.845028 62.960256,61.020318 52.565237,63.082505 43.824044,64.8421 34.98915,66.772932 26.10143,67.193359 22.40812,67.36272 18.77621,67.239999 15.12682,66.667969 53.299342,47.582031 91.471868,28.496094 129.64439,9.4101562 c 0,18.2903648 0,36.5807288 0,54.8710938 z" />
    </g>
  </g>
</svg>
