<?xml version="1.0" encoding="UTF-8" standalone="no"?>
<!-- Created with Inkscape (http://www.inkscape.org/) -->

<svg
   width="512"
   height="512"
   viewBox="0 0 135.46666 135.46667"
   version="1.1"
   id="svg5"
   inkscape:version="1.3.2 (091e20ef0f, 2023-11-25, custom)"
   sodipodi:docname="editcopy.svg"
   xmlns:inkscape="http://www.inkscape.org/namespaces/inkscape"
   xmlns:sodipodi="http://sodipodi.sourceforge.net/DTD/sodipodi-0.dtd"
   xmlns:xlink="http://www.w3.org/1999/xlink"
   xmlns="http://www.w3.org/2000/svg"
   xmlns:svg="http://www.w3.org/2000/svg">
  <sodipodi:namedview
     id="namedview7"
     pagecolor="#292929"
     bordercolor="#666666"
     borderopacity="1"
     inkscape:showpageshadow="0"
     inkscape:pageopacity="0"
     inkscape:pagecheckerboard="1"
     inkscape:deskcolor="#1a1a1a"
     inkscape:document-units="px"
     showgrid="false"
     inkscape:zoom="0.65186406"
     inkscape:cx="325.98821"
     inkscape:cy="184.08746"
     inkscape:window-width="3256"
     inkscape:window-height="1080"
     inkscape:window-x="1864"
     inkscape:window-y="0"
     inkscape:window-maximized="0"
     inkscape:current-layer="layer2" />
  <defs
     id="defs2">
    <linearGradient
       id="linearGradient3"
       inkscape:collect="always">
      <stop
         style="stop-color:#a3a29d;stop-opacity:1;"
         offset="0"
         id="stop4" />
      <stop
         style="stop-color:#a3a29d;stop-opacity:0;"
         offset="1"
         id="stop5" />
    </linearGradient>
    <linearGradient
       id="linearGradient2"
       inkscape:collect="always">
      <stop
         style="stop-color:#000000;stop-opacity:1;"
         offset="0"
         id="stop3" />
      <stop
         style="stop-color:#ffffff;stop-opacity:1;"
         offset="0.2"
         id="stop7" />
      <stop
         style="stop-color:#000000;stop-opacity:1;"
         offset="0.40365851"
         id="stop8" />
      <stop
         style="stop-color:#ffffff;stop-opacity:1;"
         offset="0.60454738"
         id="stop9" />
      <stop
         style="stop-color:#000000;stop-opacity:1;"
         offset="0.79727012"
         id="stop10" />
      <stop
         style="stop-color:#ffffff;stop-opacity:1;"
         offset="1"
         id="stop6" />
    </linearGradient>
    <radialGradient
       inkscape:collect="always"
       xlink:href="#linearGradient3"
       id="radialGradient5"
       cx="67.733354"
       cy="67.733334"
       fx="67.733354"
       fy="67.733334"
       r="59.260677"
       gradientTransform="matrix(1,0,0,0.99988196,0,0.00799514)"
       gradientUnits="userSpaceOnUse" />
    <filter
       inkscape:collect="always"
       style="color-interpolation-filters:sRGB"
       id="filter5"
       x="-0.069342833"
       y="-0.069350983"
       width="1.1386861"
       height="1.138702">
      <feGaussianBlur
         inkscape:collect="always"
         stdDeviation="3.4116887"
         id="feGaussianBlur5" />
    </filter>
    <linearGradient
       inkscape:collect="always"
       xlink:href="#linearGradient2"
       id="linearGradient12"
       x1="0.1598087"
       y1="67.73333"
       x2="135.30685"
       y2="67.73333"
       gradientUnits="userSpaceOnUse" />
    <linearGradient
       inkscape:collect="always"
       xlink:href="#linearGradient2"
       id="linearGradient13"
       x1="0"
       y1="135.46666"
       x2="101.52662"
       y2="33.940048"
       gradientUnits="userSpaceOnUse"
       gradientTransform="matrix(0.98437504,0,0,0.98437504,1.0583325,1.0583325)" />
    <linearGradient
       inkscape:collect="always"
       xlink:href="#linearGradient2"
       id="linearGradient15"
       x1="33.866669"
       y1="-6.5925043e-13"
       x2="135.46666"
       y2="101.60001"
       gradientUnits="userSpaceOnUse"
       gradientTransform="matrix(0.98437504,0,0,0.98437504,1.0583325,1.0583325)" />
  </defs>
  <g
     inkscape:label="Layer 1"
     inkscape:groupmode="layer"
     id="layer1"
     style="display:none">
    <path
       id="path1"
       style="opacity:1;fill:#c2c2c2;fill-opacity:1;stroke:url(#linearGradient12);stroke-width:1.79705;stroke-linecap:round;stroke-linejoin:round;stroke-dasharray:none;stroke-opacity:1;paint-order:markers stroke fill"
       d="M 84.922984,1.0583337 A 49.485353,49.485353 0 0 0 35.437632,50.543687 49.485353,49.485353 0 0 0 84.922984,100.02904 49.485353,49.485353 0 0 0 134.40833,50.543687 49.485353,49.485353 0 0 0 84.922984,1.0583337 Z M 27.900373,41.048481 A 49.485353,49.485353 0 0 0 1.0583337,84.922984 49.485353,49.485353 0 0 0 50.543687,134.40833 49.485353,49.485353 0 0 0 94.417681,107.56629 c -3.092115,0.51521 -6.261279,0.79662 -9.495205,0.79662 -31.83414,0 -57.818711,-25.984574 -57.818711,-57.818715 0,-3.234118 0.281346,-6.403424 0.796608,-9.495714 z" />
    <path
       id="path3"
       style="display:none;opacity:1;fill:url(#radialGradient5);fill-opacity:1;stroke:#ffcd00;stroke-width:0.0537566;stroke-linecap:round;stroke-linejoin:round;stroke-opacity:0.5;paint-order:markers stroke fill;filter:url(#filter5)"
       d="m 83.446704,8.5276599 c -6.22446,0.2339041 -12.51475,2.0078361 -17.96094,4.9199221 -5.07171,2.702199 -9.69545,6.546971 -13.21842,11.108397 -6.05116,7.772281 -9.29256,17.751667 -8.80697,27.567384 0.18484,4.143457 1.0466,8.483752 2.51085,12.47167 2.49942,6.951093 6.92592,13.23289 12.6881,17.925067 5.97918,4.916803 13.39436,8.176076 21.1365,9.16803 4.13075,0.539336 8.60652,0.457542 12.82252,-0.313893 9.707296,-1.683389 18.687366,-7.017106 24.909106,-14.641973 3.2254,-3.890344 5.69034,-8.442414 7.28058,-13.187026 3.26549,-9.718479 2.83582,-20.644193 -1.34542,-30.020898 C 120.41969,26.585159 115.53216,20.488589 109.29333,16.142748 103.19992,11.892682 95.901284,9.1278848 88.367894,8.6210849 86.730624,8.5009571 85.087424,8.4847898 83.446704,8.5276599 Z M 18.386154,58.346019 c -5.76538,6.809245 -9.4033602,15.662244 -9.8230602,24.667917 -0.43537,7.739955 1.35902,15.610158 5.1687602,22.412164 4.38715,7.94026 11.41102,14.39612 19.74363,18.00243 4.22863,1.86926 8.86035,3.03772 13.52005,3.40967 5.56119,0.43339 11.37508,-0.28515 16.70541,-2.14648 4.94133,-1.69407 9.56848,-4.31576 13.53091,-7.72266 -18.40449,-2.18081 -35.77369,-12.31704 -46.5039,-27.462885 -6.60383,-9.178024 -10.91417,-20.018628 -12.26172,-31.253906 l -0.065,0.07604 z"
       transform="matrix(0.98437505,0,0,0.98437505,1.0583318,1.0583314)" />
  </g>
  <g
     inkscape:groupmode="layer"
     id="layer2"
     inkscape:label="Layer 2"
     style="display:inline">
    <path
       id="path4"
       style="fill:#c2c2c2;fill-opacity:1;stroke:url(#linearGradient13);stroke-width:1.79705;stroke-linejoin:round;stroke-dasharray:none;paint-order:markers stroke fill"
       d="m 50.057887,34.468067 a 50.006249,50.006249 0 0 0 -13.441623,2.087664 50.006253,50.006253 0 0 0 -2.133445,13.401944 38.286037,38.286037 0 0 1 12.034585,-3.483508 38.28604,38.28604 0 0 1 3.540483,-12.0061 z m 9.010933,0.584485 c -2.131056,3.382428 -3.59125,7.224821 -4.227722,11.361079 a 38.286037,38.286037 0 0 1 34.211939,34.21194 C 93.189298,79.9891 97.031688,78.528906 100.41412,76.39785 A 50.006249,50.006249 0 0 0 59.06882,35.052552 Z m -32.065269,5.65714 A 50.006249,50.006249 0 0 0 1.0583325,84.402086 50.006249,50.006249 0 0 0 51.064583,134.40833 50.006249,50.006249 0 0 0 94.756977,108.46312 c -3.363749,0.60757 -6.820178,0.94208 -10.353874,0.94209 -1.419742,0 -2.823129,-0.0692 -4.218058,-0.1699 A 38.286037,38.286037 0 0 1 51.064583,122.68812 38.286037,38.286037 0 0 1 12.778548,84.402086 38.286037,38.286037 0 0 1 26.241025,55.408795 c -0.106851,-1.436537 -0.179568,-2.882288 -0.179567,-4.345229 0,-3.533697 0.334518,-6.990136 0.942093,-10.353874 z M 100.9986,85.408782 A 38.28604,38.28604 0 0 1 89.074402,88.942143 38.286037,38.286037 0 0 1 85.575124,100.97876 50.006253,50.006253 0 0 0 98.910938,98.850405 50.006249,50.006249 0 0 0 100.9986,85.408782 Z" />
    <path
       id="path2"
       style="fill:#c2c2c2;fill-opacity:1;stroke:url(#linearGradient15);stroke-width:1.79705;stroke-linejoin:round;stroke-dasharray:none;paint-order:markers stroke fill"
       d="M 84.402095,1.0583325 A 50.006253,50.006253 0 0 0 34.395834,51.064586 50.006253,50.006253 0 0 0 84.402095,101.07084 50.006253,50.006253 0 0 0 134.40833,51.064586 50.006253,50.006253 0 0 0 84.402095,1.0583325 Z m 0,11.7202165 A 38.28604,38.28604 0 0 1 122.68812,51.064586 38.28604,38.28604 0 0 1 84.402095,89.350627 38.28604,38.28604 0 0 1 46.116049,51.064586 38.28604,38.28604 0 0 1 84.402095,12.778549 Z" />
  </g>
</svg>
