<?xml version="1.0" encoding="UTF-8" standalone="no"?>
<!-- Created with Inkscape (http://www.inkscape.org/) -->

<svg
   width="512"
   height="512"
   viewBox="0 0 135.46666 135.46667"
   version="1.1"
   id="svg5"
   inkscape:version="1.4.2 (ebf0e940d0, 2025-05-08)"
   sodipodi:docname="edit-clear-all.svg"
   xmlns:inkscape="http://www.inkscape.org/namespaces/inkscape"
   xmlns:sodipodi="http://sodipodi.sourceforge.net/DTD/sodipodi-0.dtd"
   xmlns:xlink="http://www.w3.org/1999/xlink"
   xmlns="http://www.w3.org/2000/svg"
   xmlns:svg="http://www.w3.org/2000/svg">
  <sodipodi:namedview
     id="namedview7"
     pagecolor="#242424"
     bordercolor="#666666"
     borderopacity="1"
     inkscape:showpageshadow="0"
     inkscape:pageopacity="0"
     inkscape:pagecheckerboard="1"
     inkscape:deskcolor="#000000"
     inkscape:document-units="px"
     showgrid="false"
     inkscape:zoom="0.65186405"
     inkscape:cx="744.7872"
     inkscape:cy="348.99915"
     inkscape:window-width="3256"
     inkscape:window-height="1080"
     inkscape:window-x="1864"
     inkscape:window-y="0"
     inkscape:window-maximized="0"
     inkscape:current-layer="layer1" />
  <defs
     id="defs2">
    <linearGradient
       inkscape:collect="always"
       xlink:href="#linearGradient2"
       id="linearGradient6"
       x1="26.878302"
       y1="-2.220446e-16"
       x2="135.46666"
       y2="67.73333"
       gradientUnits="userSpaceOnUse"
       gradientTransform="matrix(-0.6745485,0,0,-0.6745485,92.437154,113.42274)" />
    <linearGradient
       id="linearGradient2"
       inkscape:collect="always">
      <stop
         style="stop-color:#000000;stop-opacity:1;"
         offset="0"
         id="stop3" />
      <stop
         style="stop-color:#ffffff;stop-opacity:1;"
         offset="1"
         id="stop6" />
    </linearGradient>
    <linearGradient
       id="linearGradient1"
       inkscape:collect="always">
      <stop
         style="stop-color:#a3a29d;stop-opacity:1;"
         offset="0"
         id="stop1" />
      <stop
         style="stop-color:#a3a29d;stop-opacity:0;"
         offset="1"
         id="stop2" />
    </linearGradient>
    <radialGradient
       inkscape:collect="always"
       xlink:href="#linearGradient1"
       id="radialGradient5"
       cx="85.668106"
       cy="67.732422"
       fx="85.668106"
       fy="67.732422"
       r="62.374023"
       gradientTransform="matrix(0.66333486,0,0,0.60521989,28.841465,26.739413)"
       gradientUnits="userSpaceOnUse" />
  </defs>
  <g
     inkscape:label="Layer 1"
     inkscape:groupmode="layer"
     id="layer1">
    <path
       id="rect792-3"
       style="display:none;fill:#c2c2c2;fill-opacity:1;stroke:url(#linearGradient6);stroke-width:1.79705;stroke-linecap:round;stroke-linejoin:round;stroke-dasharray:none;paint-order:stroke fill markers"
       d="M 1.0583302,67.73333 74.306436,113.42274 H 134.98234 V 22.043918 H 74.306436 Z"
       sodipodi:nodetypes="cccccc" />
    <path
       id="path2"
       style="display:none;fill:url(#radialGradient5);stroke:none;stroke-width:1.79705;stroke-linecap:round;stroke-linejoin:round;stroke-dasharray:none;paint-order:stroke fill markers"
       d="m 16.058594,67.732422 c 20.167969,12.583333 40.335937,25.166667 60.503906,37.749998 16.826823,0 33.65365,0 50.48047,0 0,-25.166665 0,-50.333331 0,-75.499998 -16.82682,0 -33.653647,0 -50.48047,0 -20.167969,12.583333 -40.335938,25.166667 -60.503906,37.75 z" />
    <path
       id="path5"
       style="fill:#550000;fill-opacity:1;stroke:url(#linearGradient6);stroke-width:1.79705;stroke-linecap:round;stroke-linejoin:round;stroke-dasharray:none;paint-order:stroke fill markers"
       d="M 1.0583302,67.73333 74.306436,113.42274 H 134.98234 V 22.043918 H 74.306436 Z"
       sodipodi:nodetypes="cccccc" />
    <path
       id="path1"
       style="display:inline;fill:#d40000;fill-opacity:1;stroke:none;stroke-width:1.79705;stroke-linecap:round;stroke-linejoin:round;stroke-dasharray:none;paint-order:stroke fill markers"
       d="M 1.0583302,67.73333 37.682383,90.578036 V 84.86686 L 41.366084,79.155683 33.998681,73.444507 45.049786,67.733329 33.998681,62.022153 41.366084,56.310976 37.682383,50.5998 v -5.711177 z"
       sodipodi:nodetypes="ccccccccccc" />
    <path
       id="path3"
       style="display:inline;fill:#800000;fill-opacity:1;stroke:none;stroke-width:1.79705;stroke-linecap:round;stroke-linejoin:round;stroke-dasharray:none;paint-order:stroke fill markers"
       d="m 74.306646,22.04394 10.18388,12.582694 -17.69711,7.711674 17.69711,8.261511 -15.82953,13.074654 17.85886,15.103987 -11.10216,6.088001 7.40729,5.711279 -10.1942,8.467188 12.18736,5.754682 -10.5115,8.62273 h 60.675874 l -12.62824,-8.62273 12.62824,-14.221872 -23.53445,-7.40422 23.53445,-15.440379 -20.9514,-9.126255 20.9514,-13.718345 -23.53445,-10.261905 23.53445,-12.582694 z"
       sodipodi:nodetypes="ccccccccccccccccccccc" />
    <path
       id="path4"
       style="display:inline;fill:#aa0000;fill-opacity:1;stroke:none;stroke-width:1.79705;stroke-linecap:round;stroke-linejoin:round;stroke-dasharray:none;paint-order:stroke fill markers"
       d="m 74.306396,22.044129 -36.62412,22.8446 v 5.71128 l 3.68401,5.710762 -7.3675,5.711279 11.051,5.711279 -11.051,5.71128 7.3675,5.711279 -3.68401,5.710762 v 5.71128 l 36.62412,22.8446 10.51157,-8.62285 -12.18697,-5.754559 10.19374,-8.467088 -7.40706,-5.711383 11.10229,-6.088309 -17.85904,-15.103886 15.8296,-13.074446 -17.69731,-8.261516 17.69731,-7.711859 z"
       sodipodi:nodetypes="ccccccccccccccccccccc" />
  </g>
</svg>
