<?xml version="1.0" encoding="UTF-8" standalone="no"?>
<!-- Created with Inkscape (http://www.inkscape.org/) -->

<svg
   width="512"
   height="512"
   viewBox="0 0 135.46666 135.46667"
   version="1.1"
   id="svg5"
   inkscape:version="1.3.1 (91b66b0783, 2023-11-16, custom)"
   sodipodi:docname="go-home.svg"
   xmlns:inkscape="http://www.inkscape.org/namespaces/inkscape"
   xmlns:sodipodi="http://sodipodi.sourceforge.net/DTD/sodipodi-0.dtd"
   xmlns:xlink="http://www.w3.org/1999/xlink"
   xmlns="http://www.w3.org/2000/svg"
   xmlns:svg="http://www.w3.org/2000/svg">
  <sodipodi:namedview
     id="namedview7"
     pagecolor="#292929"
     bordercolor="#666666"
     borderopacity="1"
     inkscape:showpageshadow="0"
     inkscape:pageopacity="0"
     inkscape:pagecheckerboard="1"
     inkscape:deskcolor="#1a1a1a"
     inkscape:document-units="px"
     showgrid="false"
     inkscape:zoom="1.3037281"
     inkscape:cx="364.72328"
     inkscape:cy="221.67198"
     inkscape:window-width="3256"
     inkscape:window-height="1080"
     inkscape:window-x="1856"
     inkscape:window-y="0"
     inkscape:window-maximized="0"
     inkscape:current-layer="layer1" />
  <defs
     id="defs2">
    <linearGradient
       id="linearGradient2"
       inkscape:collect="always">
      <stop
         style="stop-color:#000000;stop-opacity:1;"
         offset="0"
         id="stop3" />
      <stop
         style="stop-color:#ffffff;stop-opacity:1;"
         offset="0.2"
         id="stop7" />
      <stop
         style="stop-color:#000000;stop-opacity:1;"
         offset="0.40365851"
         id="stop8" />
      <stop
         style="stop-color:#ffffff;stop-opacity:1;"
         offset="0.60454738"
         id="stop9" />
      <stop
         style="stop-color:#000000;stop-opacity:1;"
         offset="0.79727012"
         id="stop10" />
      <stop
         style="stop-color:#ffffff;stop-opacity:1;"
         offset="1"
         id="stop6" />
    </linearGradient>
    <linearGradient
       inkscape:collect="always"
       xlink:href="#linearGradient2"
       id="linearGradient3"
       x1="5.5466776e-06"
       y1="38.686329"
       x2="135.46667"
       y2="38.686329"
       gradientUnits="userSpaceOnUse"
       gradientTransform="matrix(0.97656251,0,0,0.97863487,1.5874971,2.9096855)" />
    <linearGradient
       inkscape:collect="always"
       xlink:href="#linearGradient2"
       id="linearGradient5"
       x1="-9.5367433e-08"
       y1="7.2924414"
       x2="52.438786"
       y2="7.2924414"
       gradientUnits="userSpaceOnUse"
       gradientTransform="matrix(-0.8151037,-0.47060034,-0.47060034,0.8151037,48.035129,27.34591)" />
    <filter
       inkscape:collect="always"
       style="color-interpolation-filters:sRGB"
       id="filter6"
       x="-0.064316299"
       y="-0.074699184"
       width="1.1286326"
       height="1.1493984">
      <feGaussianBlur
         inkscape:collect="always"
         stdDeviation="2.2400029"
         id="feGaussianBlur6" />
    </filter>
  </defs>
  <g
     inkscape:label="Layer 1"
     inkscape:groupmode="layer"
     id="layer1">
    <path
       style="font-size:111.335px;line-height:1.25;fill:#c2c2c2;fill-opacity:1;stroke:url(#linearGradient5);stroke-width:1.79705;stroke-dasharray:none;paint-order:markers stroke fill"
       d="m 22.973938,24.855767 q 4.105293,0.434202 6.545255,1.237917 2.401606,0.660571 4.398097,1.813245 2.540987,1.467041 4.463521,4.634006 1.922534,3.166966 2.790666,6.693168 l 4.086755,-7.078466 Q 43.679149,24.830983 37.145181,21.058594 34.513443,19.539159 31.658089,18.616614 28.711986,17.641677 23.48962,17.046531 19.384327,16.61233 16.982721,15.951758 14.54276,15.148042 12.63702,14.047761 10.005282,12.528326 8.0827484,9.3613593 6.1602152,6.194394 5.2920833,2.6681926 L 1.2577234,9.6559087 q 1.6174361,7.4678003 8.0606552,11.1877963 2.5409884,1.467042 5.5778404,2.494374 2.998498,0.884187 8.077719,1.517688 z"
       id="text1"
       aria-label="~" />
    <path
       id="rect1"
       style="opacity:1;fill:#c2c2c2;stroke:url(#linearGradient3);stroke-width:1.79705;stroke-linecap:round;stroke-linejoin:round;paint-order:markers stroke fill"
       d="M 67.733336,44.52577 133.87916,78.668175 H 117.34271 V 134.48411 H 18.123961 V 78.668175 H 1.5875026 l 8.2682291,-4.2678 8.2682293,-4.267802 8.268229,-4.2678 8.268229,-4.2678 V 43.814186 l 16.536458,-0.124913 v 9.372098 l 8.268229,-4.2678 z"
       sodipodi:nodetypes="cccccccccccccccc" />
    <path
       id="path5"
       style="opacity:0.2;fill:#28220b;fill-opacity:1;stroke:none;stroke-width:1.79705;stroke-linecap:round;stroke-linejoin:round;paint-order:markers stroke fill;filter:url(#filter6)"
       d="m 66.119141,54.865234 c -4.356688,2.237841 -8.643138,4.653034 -13.212891,6.4375 -4.151195,0.794753 -8.39554,-2.078762 -9.775391,-5.960937 -0.0078,3.016176 0.0334,6.072459 -0.550529,9.040225 -1.149989,3.155563 -4.199328,5.031072 -7.124262,6.32792 -3.195643,1.650072 -6.391285,3.300143 -9.586927,4.950214 1.271761,3.262573 0.588082,6.814256 0.743572,10.217187 -0.01589,13.379423 -0.0228,26.758847 -0.02092,40.138277 27.427083,0 54.854167,1e-5 82.281253,0 0.0364,-16.36033 -0.13193,-32.725532 0.22265,-49.082026 -0.0198,-0.456768 0.60546,-1.119743 0.25197,-1.398384 C 95.472668,68.372431 81.597662,61.209653 67.722656,54.046875 c -0.534505,0.272786 -1.06901,0.545573 -1.603515,0.818359 z" />
  </g>
</svg>
