<?xml version="1.0" encoding="UTF-8" standalone="no"?>
<!-- Created with Inkscape (http://www.inkscape.org/) -->

<svg
   width="512"
   height="512"
   viewBox="0 0 135.46666 135.46667"
   version="1.1"
   id="svg5"
   inkscape:version="1.3.2 (091e20ef0f, 2023-11-25, custom)"
   sodipodi:docname="media-playlist-shuffle.svg"
   xmlns:inkscape="http://www.inkscape.org/namespaces/inkscape"
   xmlns:sodipodi="http://sodipodi.sourceforge.net/DTD/sodipodi-0.dtd"
   xmlns:xlink="http://www.w3.org/1999/xlink"
   xmlns="http://www.w3.org/2000/svg"
   xmlns:svg="http://www.w3.org/2000/svg">
  <sodipodi:namedview
     id="namedview7"
     pagecolor="#292929"
     bordercolor="#666666"
     borderopacity="1"
     inkscape:showpageshadow="0"
     inkscape:pageopacity="0"
     inkscape:pagecheckerboard="1"
     inkscape:deskcolor="#1a1a1a"
     inkscape:document-units="px"
     showgrid="false"
     inkscape:zoom="1.3037281"
     inkscape:cx="438.35827"
     inkscape:cy="243.14886"
     inkscape:window-width="1920"
     inkscape:window-height="1080"
     inkscape:window-x="3136"
     inkscape:window-y="0"
     inkscape:window-maximized="0"
     inkscape:current-layer="layer1" />
  <defs
     id="defs2">
    <linearGradient
       id="linearGradient1"
       inkscape:collect="always">
      <stop
         style="stop-color:#a3a29d;stop-opacity:1;"
         offset="0"
         id="stop1" />
      <stop
         style="stop-color:#a3a29d;stop-opacity:0;"
         offset="1"
         id="stop2" />
    </linearGradient>
    <linearGradient
       inkscape:collect="always"
       xlink:href="#linearGradient2"
       id="linearGradient46"
       x1="57.597851"
       y1="29.525333"
       x2="88.004288"
       y2="29.525333"
       gradientUnits="userSpaceOnUse" />
    <linearGradient
       inkscape:collect="always"
       xlink:href="#linearGradient2"
       id="linearGradient5"
       x1="-9.5367433e-08"
       y1="7.2924414"
       x2="52.438786"
       y2="7.2924414"
       gradientUnits="userSpaceOnUse"
       gradientTransform="matrix(-0.8151037,-0.47060034,-0.47060034,0.8151037,221.93854,39.973395)" />
    <linearGradient
       id="linearGradient2"
       inkscape:collect="always">
      <stop
         style="stop-color:#000000;stop-opacity:1;"
         offset="0"
         id="stop3" />
      <stop
         style="stop-color:#ffffff;stop-opacity:1;"
         offset="0.2"
         id="stop7" />
      <stop
         style="stop-color:#000000;stop-opacity:1;"
         offset="0.40365851"
         id="stop8" />
      <stop
         style="stop-color:#ffffff;stop-opacity:1;"
         offset="0.60454738"
         id="stop9" />
      <stop
         style="stop-color:#000000;stop-opacity:1;"
         offset="0.79727012"
         id="stop10" />
      <stop
         style="stop-color:#ffffff;stop-opacity:1;"
         offset="1"
         id="stop6" />
    </linearGradient>
    <linearGradient
       inkscape:collect="always"
       xlink:href="#linearGradient2"
       id="linearGradient48"
       x1="58.421688"
       y1="29.525333"
       x2="86.356613"
       y2="29.525333"
       gradientUnits="userSpaceOnUse" />
    <linearGradient
       inkscape:collect="always"
       xlink:href="#linearGradient2"
       id="linearGradient50"
       x1="57.185928"
       y1="29.525333"
       x2="88.828133"
       y2="29.525333"
       gradientUnits="userSpaceOnUse" />
    <linearGradient
       inkscape:collect="always"
       xlink:href="#linearGradient2"
       id="linearGradient51"
       x1="57.597851"
       y1="29.525333"
       x2="88.004288"
       y2="29.525333"
       gradientUnits="userSpaceOnUse" />
    <linearGradient
       inkscape:collect="always"
       xlink:href="#linearGradient2"
       id="linearGradient52"
       x1="57.185928"
       y1="29.525333"
       x2="88.828133"
       y2="29.525333"
       gradientUnits="userSpaceOnUse" />
    <linearGradient
       inkscape:collect="always"
       xlink:href="#linearGradient2"
       id="linearGradient53"
       x1="57.597851"
       y1="29.525333"
       x2="88.004288"
       y2="29.525333"
       gradientUnits="userSpaceOnUse" />
    <linearGradient
       inkscape:collect="always"
       xlink:href="#linearGradient2"
       id="linearGradient54"
       x1="57.185928"
       y1="29.525333"
       x2="88.828133"
       y2="29.525333"
       gradientUnits="userSpaceOnUse" />
    <linearGradient
       inkscape:collect="always"
       xlink:href="#linearGradient2"
       id="linearGradient55"
       x1="57.597851"
       y1="29.525333"
       x2="88.004288"
       y2="29.525333"
       gradientUnits="userSpaceOnUse" />
    <linearGradient
       inkscape:collect="always"
       xlink:href="#linearGradient2"
       id="linearGradient56"
       x1="34.133938"
       y1="67.733322"
       x2="101.33272"
       y2="67.733322"
       gradientUnits="userSpaceOnUse" />
    <linearGradient
       inkscape:collect="always"
       xlink:href="#linearGradient2"
       id="linearGradient71"
       gradientUnits="userSpaceOnUse"
       x1="34.133938"
       y1="67.733322"
       x2="101.33272"
       y2="67.733322"
       gradientTransform="rotate(90,67.733365,67.733353)" />
    <radialGradient
       inkscape:collect="always"
       xlink:href="#linearGradient1"
       id="radialGradient2"
       cx="67.73333"
       cy="67.73333"
       fx="67.73333"
       fy="67.73333"
       r="53.911893"
       gradientUnits="userSpaceOnUse" />
    <filter
       inkscape:collect="always"
       style="color-interpolation-filters:sRGB"
       id="filter2"
       x="-0.069120001"
       y="-0.069120002"
       width="1.13824"
       height="1.13824">
      <feGaussianBlur
         inkscape:collect="always"
         stdDeviation="2.7281813"
         id="feGaussianBlur2" />
    </filter>
  </defs>
  <g
     inkscape:label="Layer 1"
     inkscape:groupmode="layer"
     id="layer1"
     style="display:inline">
    <g
       id="g8"
       style="display:none">
      <circle
         id="path2"
         style="fill:#000000;stroke:none;stroke-width:0.264583"
         cx="-8.7621307"
         cy="44.737553"
         r="0.39687499" />
      <path
         sodipodi:type="star"
         style="fill:#cccccc;stroke-width:1.79705;stroke-linecap:round;paint-order:markers stroke fill"
         id="path1"
         inkscape:flatsided="true"
         sodipodi:sides="3"
         sodipodi:cx="67.73333"
         sodipodi:cy="29.525333"
         sodipodi:r1="18.623281"
         sodipodi:r2="9.3116407"
         sodipodi:arg1="0"
         sodipodi:arg2="1.0471976"
         inkscape:rounded="0"
         inkscape:randomized="0"
         d="m 86.356611,29.525333 -27.934922,16.128235 0,-32.256469 z"
         inkscape:transform-center-x="4.6558209"
         transform="rotate(180,44.465715,57.233989)" />
      <path
         style="fill:none;stroke:#cccccc;stroke-width:6.35002;stroke-linecap:round;stroke-linejoin:miter;stroke-dasharray:none;stroke-opacity:1"
         d="m 130.175,50.368522 c 0,0 -22.92408,-1.045759 -34.985645,3.704166 -12.061566,4.749926 -22.924072,22.37017 -34.985638,27.120096 -12.061566,4.749925 -34.98564,3.704166 -34.98564,3.704166"
         id="path3"
         sodipodi:nodetypes="czzc" />
      <path
         sodipodi:type="star"
         style="fill:#cccccc;stroke-width:1.79705;stroke-linecap:round;paint-order:markers stroke fill"
         id="path4"
         inkscape:flatsided="true"
         sodipodi:sides="3"
         sodipodi:cx="67.73333"
         sodipodi:cy="29.525333"
         sodipodi:r1="18.623281"
         sodipodi:r2="9.3116407"
         sodipodi:arg1="0"
         sodipodi:arg2="1.0471976"
         inkscape:rounded="0"
         inkscape:randomized="0"
         d="m 86.356611,29.525333 -27.934922,16.128235 0,-32.256469 z"
         inkscape:transform-center-x="-4.6558208"
         transform="matrix(1,0,0,-1,43.818387,114.46798)" />
      <path
         style="fill:none;stroke:#cccccc;stroke-width:6.35002;stroke-linecap:round;stroke-linejoin:miter;stroke-dasharray:none;stroke-opacity:1"
         d="m 2.5748188,50.36852 c 0,0 22.9240772,-1.045759 34.9856432,3.704166 12.061566,4.749926 22.924072,22.37017 34.985638,27.120096 12.061566,4.749925 34.98564,3.704166 34.98564,3.704166"
         id="path5"
         sodipodi:nodetypes="czzc" />
    </g>
    <g
       id="g29"
       style="display:none">
      <path
         sodipodi:type="star"
         style="fill:#cccccc;stroke-width:1.64768;stroke-linecap:round;paint-order:markers stroke fill"
         id="path6"
         inkscape:flatsided="true"
         sodipodi:sides="3"
         sodipodi:cx="67.73333"
         sodipodi:cy="29.525333"
         sodipodi:r1="18.623281"
         sodipodi:r2="9.3116407"
         sodipodi:arg1="0"
         sodipodi:arg2="1.0471976"
         inkscape:rounded="0"
         inkscape:randomized="0"
         d="m 86.356611,29.525333 -27.934922,16.128235 0,-32.256469 z"
         inkscape:transform-center-x="-4.6558208"
         transform="matrix(-0.77121098,-0.77121098,-0.77121098,0.77121098,94.771711,49.026936)" />
      <path
         style="fill:none;stroke:#cccccc;stroke-width:6.35002;stroke-linecap:round;stroke-linejoin:miter;stroke-dasharray:none;stroke-opacity:1"
         d="m 77.144996,130.26864 c 0,0 -18.485801,-16.8728 -24.124619,-29.83801 C 47.38156,87.465423 52.593202,65.499213 46.954385,52.534006 41.315567,39.5688 22.829769,22.696003 22.829769,22.696003"
         id="path7"
         sodipodi:nodetypes="czzc" />
      <path
         sodipodi:type="star"
         style="fill:#cccccc;stroke-width:1.64768;stroke-linecap:round;paint-order:markers stroke fill"
         id="path8"
         inkscape:flatsided="true"
         sodipodi:sides="3"
         sodipodi:cx="67.73333"
         sodipodi:cy="29.525333"
         sodipodi:r1="18.623281"
         sodipodi:r2="9.3116407"
         sodipodi:arg1="0"
         sodipodi:arg2="1.0471976"
         inkscape:rounded="0"
         inkscape:randomized="0"
         d="m 86.356611,29.525333 -27.934922,16.128235 0,-32.256469 z"
         inkscape:transform-center-x="-4.6558208"
         transform="matrix(0.77121098,0.77121098,0.77121098,-0.77121098,40.694952,86.439729)" />
      <path
         style="fill:none;stroke:#cccccc;stroke-width:6.35002;stroke-linecap:round;stroke-linejoin:miter;stroke-dasharray:none;stroke-opacity:1"
         d="m 112.63689,112.77066 c 0,0 -18.485801,-16.872799 -24.124619,-29.838006 C 82.873454,69.967447 88.085096,48.001237 82.446279,35.03603 76.807461,22.070824 58.321667,5.1980292 58.321667,5.1980292"
         id="path9"
         sodipodi:nodetypes="czzc" />
      <path
         sodipodi:type="star"
         style="fill:#cccccc;stroke-width:1.64768;stroke-linecap:round;paint-order:markers stroke fill"
         id="path10"
         inkscape:flatsided="true"
         sodipodi:sides="3"
         sodipodi:cx="67.73333"
         sodipodi:cy="29.525333"
         sodipodi:r1="18.623281"
         sodipodi:r2="9.3116407"
         sodipodi:arg1="0"
         sodipodi:arg2="1.0471976"
         inkscape:rounded="0"
         inkscape:randomized="0"
         d="m 86.356611,29.525333 -27.934922,16.128235 0,-32.256469 z"
         inkscape:transform-center-x="-4.6558208"
         transform="matrix(0.77121098,-0.77121098,-0.77121098,-0.77121098,86.439726,94.771716)" />
      <path
         style="fill:none;stroke:#cccccc;stroke-width:6.35002;stroke-linecap:round;stroke-linejoin:miter;stroke-dasharray:none;stroke-opacity:1"
         d="m 5.1980262,77.145001 c 0,0 16.8727988,-18.485801 29.8380058,-24.124619 C 48.001239,47.381565 69.967449,52.593207 82.932656,46.95439 95.897862,41.315572 112.77066,22.829774 112.77066,22.829774"
         id="path11"
         sodipodi:nodetypes="czzc" />
      <path
         sodipodi:type="star"
         style="fill:#cccccc;stroke-width:1.64768;stroke-linecap:round;paint-order:markers stroke fill"
         id="path12"
         inkscape:flatsided="true"
         sodipodi:sides="3"
         sodipodi:cx="67.73333"
         sodipodi:cy="29.525333"
         sodipodi:r1="18.623281"
         sodipodi:r2="9.3116407"
         sodipodi:arg1="0"
         sodipodi:arg2="1.0471976"
         inkscape:rounded="0"
         inkscape:randomized="0"
         d="m 86.356611,29.525333 -27.934922,16.128235 0,-32.256469 z"
         inkscape:transform-center-x="-4.6558208"
         transform="matrix(-0.77121098,0.77121098,0.77121098,0.77121098,49.026936,40.694951)" />
      <path
         style="fill:none;stroke:#cccccc;stroke-width:6.35002;stroke-linecap:round;stroke-linejoin:miter;stroke-dasharray:none;stroke-opacity:1"
         d="m 130.26864,58.321666 c 0,0 -16.8728,18.485801 -29.83801,24.124619 C 87.465423,88.085102 65.499213,82.87346 52.534006,88.512277 39.5688,94.151095 22.696003,112.63689 22.696003,112.63689"
         id="path13"
         sodipodi:nodetypes="czzc" />
    </g>
    <g
       id="g30"
       transform="translate(-180.19745,25.535726)"
       style="display:none">
      <g
         id="g17"
         transform="rotate(15,247.93078,42.197606)">
        <path
           sodipodi:type="star"
           style="fill:#cccccc;stroke-width:1.64768;stroke-linecap:round;paint-order:markers stroke fill"
           id="path14"
           inkscape:flatsided="true"
           sodipodi:sides="3"
           sodipodi:cx="67.73333"
           sodipodi:cy="29.525333"
           sodipodi:r1="18.623281"
           sodipodi:r2="9.3116407"
           sodipodi:arg1="0"
           sodipodi:arg2="1.0471976"
           inkscape:rounded="0"
           inkscape:randomized="0"
           d="m 86.356611,29.525333 -27.934922,16.128235 0,-32.256469 z"
           inkscape:transform-center-x="-4.6558208"
           transform="matrix(-0.77121098,-0.77121098,-0.77121098,0.77121098,288.59888,10.696478)" />
        <path
           sodipodi:type="star"
           style="fill:#cccccc;stroke-width:1.64768;stroke-linecap:round;paint-order:markers stroke fill"
           id="path16"
           inkscape:flatsided="true"
           sodipodi:sides="3"
           sodipodi:cx="67.73333"
           sodipodi:cy="29.525333"
           sodipodi:r1="18.623281"
           sodipodi:r2="9.3116407"
           sodipodi:arg1="0"
           sodipodi:arg2="1.0471976"
           inkscape:rounded="0"
           inkscape:randomized="0"
           d="m 86.356611,29.525333 -27.934922,16.128235 0,-32.256469 z"
           inkscape:transform-center-x="-4.6558208"
           transform="matrix(0.77121098,0.77121098,0.77121098,-0.77121098,207.26268,73.698735)" />
        <path
           style="fill:none;stroke:#cccccc;stroke-width:6.35002;stroke-linecap:round;stroke-linejoin:miter;stroke-dasharray:none;stroke-opacity:1"
           d="m 275.08839,95.983922 c 0,0 -18.4858,-16.872799 -24.12462,-29.838006 -5.63881,-12.965207 -0.42717,-34.931417 -6.06599,-47.896624 -5.63882,-12.9652059 -24.12461,-29.838001 -24.12461,-29.838001"
           id="path17"
           sodipodi:nodetypes="czzc" />
      </g>
      <g
         id="g20"
         transform="matrix(0.70710678,0.70710678,0.70710678,-0.70710678,42.779031,-103.27772)">
        <path
           sodipodi:type="star"
           style="fill:#cccccc;stroke-width:1.64768;stroke-linecap:round;paint-order:markers stroke fill"
           id="path18"
           inkscape:flatsided="true"
           sodipodi:sides="3"
           sodipodi:cx="67.73333"
           sodipodi:cy="29.525333"
           sodipodi:r1="18.623281"
           sodipodi:r2="9.3116407"
           sodipodi:arg1="0"
           sodipodi:arg2="1.0471976"
           inkscape:rounded="0"
           inkscape:randomized="0"
           d="m 86.356611,29.525333 -27.934922,16.128235 0,-32.256469 z"
           inkscape:transform-center-x="-4.6558208"
           transform="matrix(-0.77121098,-0.77121098,-0.77121098,0.77121098,288.59888,10.696478)" />
        <path
           sodipodi:type="star"
           style="fill:#cccccc;stroke-width:1.64768;stroke-linecap:round;paint-order:markers stroke fill"
           id="path19"
           inkscape:flatsided="true"
           sodipodi:sides="3"
           sodipodi:cx="67.73333"
           sodipodi:cy="29.525333"
           sodipodi:r1="18.623281"
           sodipodi:r2="9.3116407"
           sodipodi:arg1="0"
           sodipodi:arg2="1.0471976"
           inkscape:rounded="0"
           inkscape:randomized="0"
           d="m 86.356611,29.525333 -27.934922,16.128235 0,-32.256469 z"
           inkscape:transform-center-x="-4.6558208"
           transform="matrix(0.77121098,0.77121098,0.77121098,-0.77121098,207.26268,73.698735)" />
        <path
           style="fill:none;stroke:#cccccc;stroke-width:6.35002;stroke-linecap:round;stroke-linejoin:miter;stroke-dasharray:none;stroke-opacity:1"
           d="m 275.08839,95.983922 c 0,0 -18.4858,-16.872799 -24.12462,-29.838006 -5.63881,-12.965207 -0.42717,-34.931417 -6.06599,-47.896624 -5.63882,-12.9652059 -24.12461,-29.838001 -24.12461,-29.838001"
           id="path20"
           sodipodi:nodetypes="czzc" />
      </g>
      <circle
         style="fill:#cccccc;stroke:#cccccc;stroke-width:6.35;stroke-linecap:round;stroke-dasharray:none;stroke-opacity:1;paint-order:markers stroke fill"
         id="path21"
         cx="247.93079"
         cy="42.197601"
         r="17.678333" />
    </g>
    <g
       id="g71"
       style="display:none">
      <circle
         style="fill:#cccccc;stroke:url(#linearGradient56);stroke-width:1.79705;stroke-linecap:round;stroke-dasharray:none;stroke-opacity:1;paint-order:markers stroke fill"
         id="circle21"
         cx="67.73333"
         cy="67.733322"
         r="30.424391" />
      <path
         sodipodi:type="star"
         style="fill:#cccccc;stroke:url(#linearGradient46);stroke-width:1.64768;stroke-linecap:round;stroke-opacity:1;paint-order:markers stroke fill"
         id="path22"
         inkscape:flatsided="true"
         sodipodi:sides="3"
         sodipodi:cx="67.73333"
         sodipodi:cy="29.525333"
         sodipodi:r1="18.623281"
         sodipodi:r2="9.3116407"
         sodipodi:arg1="0"
         sodipodi:arg2="1.0471976"
         inkscape:rounded="0"
         inkscape:randomized="0"
         d="m 86.356611,29.525333 -27.934922,16.128235 0,-32.256469 z"
         inkscape:transform-center-x="2.5584145e-06"
         transform="matrix(0,-1.090657,-1.090657,0,99.935338,97.59748)"
         inkscape:transform-center-y="-49.087584" />
      <path
         sodipodi:type="star"
         style="fill:#cccccc;stroke:url(#linearGradient55);stroke-width:1.64768;stroke-linecap:round;stroke-dasharray:none;stroke-opacity:1;paint-order:markers stroke fill"
         id="path23"
         inkscape:flatsided="true"
         sodipodi:sides="3"
         sodipodi:cx="67.73333"
         sodipodi:cy="29.525333"
         sodipodi:r1="18.623281"
         sodipodi:r2="9.3116407"
         sodipodi:arg1="0"
         sodipodi:arg2="1.0471976"
         inkscape:rounded="0"
         inkscape:randomized="0"
         d="m 86.356611,29.525333 -27.934922,16.128235 0,-32.256469 z"
         inkscape:transform-center-x="-49.087584"
         transform="matrix(1.090657,0,0,-1.090657,37.86918,99.93534)"
         inkscape:transform-center-y="-2.4160472e-06" />
      <path
         sodipodi:type="star"
         style="fill:#cccccc;stroke:url(#linearGradient53);stroke-width:1.64768;stroke-linecap:round;stroke-dasharray:none;stroke-opacity:1;paint-order:markers stroke fill"
         id="path24"
         inkscape:flatsided="true"
         sodipodi:sides="3"
         sodipodi:cx="67.73333"
         sodipodi:cy="29.525333"
         sodipodi:r1="18.623281"
         sodipodi:r2="9.3116407"
         sodipodi:arg1="0"
         sodipodi:arg2="1.0471976"
         inkscape:rounded="0"
         inkscape:randomized="0"
         d="m 86.356611,29.525333 -27.934922,16.128235 0,-32.256469 z"
         inkscape:transform-center-x="-2.4160472e-06"
         transform="matrix(0,1.090657,1.090657,0,35.53132,37.86918)"
         inkscape:transform-center-y="49.087584" />
      <path
         sodipodi:type="star"
         style="fill:#cccccc;stroke:url(#linearGradient51);stroke-width:1.64768;stroke-linecap:round;stroke-dasharray:none;stroke-opacity:1;paint-order:markers stroke fill"
         id="path25"
         inkscape:flatsided="true"
         sodipodi:sides="3"
         sodipodi:cx="67.73333"
         sodipodi:cy="29.525333"
         sodipodi:r1="18.623281"
         sodipodi:r2="9.3116407"
         sodipodi:arg1="0"
         sodipodi:arg2="1.0471976"
         inkscape:rounded="0"
         inkscape:randomized="0"
         d="m 86.356611,29.525333 -27.934922,16.128235 0,-32.256469 z"
         inkscape:transform-center-x="49.087586"
         transform="matrix(-1.090657,0,0,1.090657,97.597478,35.53132)"
         inkscape:transform-center-y="2.4160472e-06" />
      <path
         sodipodi:type="star"
         style="fill:#cccccc;fill-opacity:1;stroke:url(#linearGradient48);stroke-width:2.47151;stroke-linecap:round;stroke-dasharray:none;paint-order:markers stroke fill"
         id="path26"
         inkscape:flatsided="true"
         sodipodi:sides="3"
         sodipodi:cx="67.73333"
         sodipodi:cy="29.525333"
         sodipodi:r1="18.623281"
         sodipodi:r2="9.3116407"
         sodipodi:arg1="0"
         sodipodi:arg2="1.0471976"
         inkscape:rounded="0"
         inkscape:randomized="0"
         d="m 86.356611,29.525333 -27.934922,16.128235 0,-32.256469 z"
         transform="matrix(0.51414064,-0.51414064,-0.51414064,-0.51414064,83.996078,81.83092)"
         inkscape:transform-center-y="-34.154691"
         inkscape:transform-center-x="-34.15469" />
      <path
         sodipodi:type="star"
         style="fill:#cccccc;fill-opacity:1;stroke:url(#linearGradient54);stroke-width:2.47151;stroke-linecap:round;stroke-dasharray:none;stroke-opacity:1;paint-order:markers stroke fill"
         id="path27"
         inkscape:flatsided="true"
         sodipodi:sides="3"
         sodipodi:cx="67.73333"
         sodipodi:cy="29.525333"
         sodipodi:r1="18.623281"
         sodipodi:r2="9.3116407"
         sodipodi:arg1="0"
         sodipodi:arg2="1.0471976"
         inkscape:rounded="0"
         inkscape:randomized="0"
         d="m 86.356611,29.525333 -27.934922,16.128235 0,-32.256469 z"
         transform="matrix(0.51414064,0.51414064,0.51414064,-0.51414064,53.63573,83.99608)"
         inkscape:transform-center-y="34.15469"
         inkscape:transform-center-x="-34.154688" />
      <path
         sodipodi:type="star"
         style="fill:#cccccc;fill-opacity:1;stroke:url(#linearGradient52);stroke-width:2.47151;stroke-linecap:round;stroke-dasharray:none;stroke-opacity:1;paint-order:markers stroke fill"
         id="path28"
         inkscape:flatsided="true"
         sodipodi:sides="3"
         sodipodi:cx="67.73333"
         sodipodi:cy="29.525333"
         sodipodi:r1="18.623281"
         sodipodi:r2="9.3116407"
         sodipodi:arg1="0"
         sodipodi:arg2="1.0471976"
         inkscape:rounded="0"
         inkscape:randomized="0"
         d="m 86.356611,29.525333 -27.934922,16.128235 0,-32.256469 z"
         transform="matrix(-0.51414064,0.51414064,0.51414064,0.51414064,51.47058,53.63573)"
         inkscape:transform-center-y="34.154688"
         inkscape:transform-center-x="34.154691" />
      <path
         sodipodi:type="star"
         style="fill:#cccccc;fill-opacity:1;stroke:url(#linearGradient50);stroke-width:2.47151;stroke-linecap:round;stroke-dasharray:none;stroke-opacity:1;paint-order:markers stroke fill"
         id="path29"
         inkscape:flatsided="true"
         sodipodi:sides="3"
         sodipodi:cx="67.73333"
         sodipodi:cy="29.525333"
         sodipodi:r1="18.623281"
         sodipodi:r2="9.3116407"
         sodipodi:arg1="0"
         sodipodi:arg2="1.0471976"
         inkscape:rounded="0"
         inkscape:randomized="0"
         d="m 86.356611,29.525333 -27.934922,16.128235 0,-32.256469 z"
         transform="matrix(-0.51414064,-0.51414064,-0.51414064,0.51414064,81.830928,51.47058)"
         inkscape:transform-center-y="-34.154691"
         inkscape:transform-center-x="34.154689" />
    </g>
    <path
       id="circle56"
       style="display:inline;fill:#cccccc;stroke:url(#linearGradient71);stroke-width:1.79705;stroke-linecap:round;stroke-dasharray:none;stroke-opacity:1;paint-order:markers stroke fill"
       d="m 132.05447,67.733337 -30.46739,-17.59066 v 35.1808 z m -18.83916,-45.481979 -22.654433,6.070429 16.584003,16.584 z m 0,90.963952 -6.07043,-22.654433 -16.584003,16.584003 z M 98.157827,67.733337 a 30.424391,30.424391 0 0 0 -30.4245,-30.4245 30.424391,30.424391 0 0 0 -30.42449,30.4245 30.424391,30.424391 0 0 0 30.42449,30.4245 30.424391,30.424391 0 0 0 30.4245,-30.4245 z M 85.323987,33.879587 67.733327,3.4121975 50.143187,33.879587 Z m 0,67.707493 h -35.1808 l 17.59014,30.46739 z m -40.4182,-73.265293 -22.65443,-6.070429 6.07043,22.654429 z m 0,78.823093 -16.584,-16.584003 -6.07043,22.654433 z M 33.879587,50.143197 3.4121975,67.733337 33.879587,85.323477 Z" />
    <path
       id="circle31"
       style="display:inline;fill:url(#radialGradient2);fill-opacity:1;stroke:none;stroke-width:6.35;stroke-linecap:round;stroke-dasharray:none;stroke-opacity:1;paint-order:markers stroke fill;filter:url(#filter2)"
       d="m 64.818292,25.410089 c 1.94271,0 3.88542,0 5.82813,0 -0.97136,-1.680339 -1.94271,-3.360677 -2.91406,-5.041016 -0.97136,1.680339 -1.94271,3.360677 -2.91407,5.041016 z m 1.86328,20.416015 c -7.30482,0.354394 -14.2802,4.52987 -17.91386,10.911642 -3.53695,6.038155 -3.94025,13.794432 -0.95077,20.134109 2.82847,6.267139 8.77106,11.004789 15.52017,12.337425 6.59828,1.380705 13.79558,-0.465331 18.83815,-4.959946 5.12023,-4.440876 8.01473,-11.353279 7.40788,-18.123559 -0.43338,-5.732524 -3.16387,-11.372423 -7.57149,-15.032092 -2.18862,-1.853313 -4.74733,-3.275079 -7.38622,-4.159508 -2.54976,-0.865185 -5.25515,-1.235144 -7.94386,-1.108071 z m -46.3125,21.908204 c 1.68034,0.971354 3.36068,1.942708 5.04102,2.914062 0,-1.942708 0,-3.885417 0,-5.828125 -1.68034,0.971354 -3.36068,1.942708 -5.04102,2.914063 z m 89.687498,2.914062 c 1.68034,-0.971354 3.36068,-1.942708 5.04102,-2.914062 -1.68034,-0.971355 -3.36068,-1.942709 -5.04102,-2.914063 0,1.942708 0,3.885417 0,5.828125 z m -42.324208,44.44922 c 0.97135,-1.68034 1.9427,-3.36068 2.91406,-5.04102 -1.94271,0 -3.88542,0 -5.82813,0 0.97136,1.68034 1.94271,3.36068 2.91407,5.04102 z" />
    <path
       style="font-size:111.335px;line-height:1.25;display:none;fill:#c2c2c2;fill-opacity:1;stroke:url(#linearGradient5);stroke-width:1.79705;stroke-dasharray:none;paint-order:markers stroke fill"
       d="m 196.87735,37.483252 q 4.10529,0.434202 6.54525,1.237917 2.40161,0.660571 4.3981,1.813245 2.54099,1.467041 4.46352,4.634006 1.92253,3.166966 2.79067,6.693168 l 4.08675,-7.078466 q -1.57908,-7.324654 -8.11305,-11.097043 -2.63174,-1.519435 -5.48709,-2.44198 -2.9461,-0.974937 -8.16847,-1.570083 -4.10529,-0.434201 -6.5069,-1.094773 -2.43996,-0.803716 -4.3457,-1.903997 -2.63174,-1.519435 -4.55427,-4.686402 -1.92253,-3.166965 -2.79067,-6.693166 l -4.03436,6.987716 q 1.61744,7.4678 8.06066,11.187796 2.54099,1.467042 5.57784,2.494374 2.9985,0.884187 8.07772,1.517688 z"
       id="text1"
       aria-label="~"
       sodipodi:insensitive="true" />
  </g>
</svg>
