<?xml version="1.0" encoding="UTF-8" standalone="no"?>
<!-- Created with Inkscape (http://www.inkscape.org/) -->

<svg
   width="512"
   height="512"
   viewBox="0 0 135.46666 135.46667"
   version="1.1"
   id="svg5"
   inkscape:version="1.4.2 (ebf0e940d0, 2025-05-08)"
   sodipodi:docname="media-playback-start-rtl.svg"
   xmlns:inkscape="http://www.inkscape.org/namespaces/inkscape"
   xmlns:sodipodi="http://sodipodi.sourceforge.net/DTD/sodipodi-0.dtd"
   xmlns:xlink="http://www.w3.org/1999/xlink"
   xmlns="http://www.w3.org/2000/svg"
   xmlns:svg="http://www.w3.org/2000/svg">
  <sodipodi:namedview
     id="namedview7"
     pagecolor="#292929"
     bordercolor="#666666"
     borderopacity="1"
     inkscape:showpageshadow="0"
     inkscape:pageopacity="0"
     inkscape:pagecheckerboard="1"
     inkscape:deskcolor="#1a1a1a"
     inkscape:document-units="px"
     showgrid="false"
     inkscape:zoom="0.92187499"
     inkscape:cx="412.74577"
     inkscape:cy="314.57627"
     inkscape:window-width="3256"
     inkscape:window-height="1080"
     inkscape:window-x="1864"
     inkscape:window-y="0"
     inkscape:window-maximized="0"
     inkscape:current-layer="layer1" />
  <defs
     id="defs2">
    <linearGradient
       id="linearGradient4"
       inkscape:collect="always">
      <stop
         style="stop-color:#26a200;stop-opacity:1;"
         offset="0"
         id="stop4" />
      <stop
         style="stop-color:#26a200;stop-opacity:0;"
         offset="1"
         id="stop5" />
    </linearGradient>
    <linearGradient
       inkscape:collect="always"
       xlink:href="#linearGradient2"
       id="linearGradient3"
       x1="5.5466776e-06"
       y1="38.686329"
       x2="135.46667"
       y2="38.686329"
       gradientUnits="userSpaceOnUse"
       gradientTransform="matrix(0.97656251,0,0,0.97863487,148.04265,2.066869)" />
    <linearGradient
       id="linearGradient2"
       inkscape:collect="always">
      <stop
         style="stop-color:#000000;stop-opacity:1;"
         offset="0"
         id="stop3" />
      <stop
         style="stop-color:#ffffff;stop-opacity:1;"
         offset="0.2"
         id="stop7" />
      <stop
         style="stop-color:#000000;stop-opacity:1;"
         offset="0.40365851"
         id="stop8" />
      <stop
         style="stop-color:#ffffff;stop-opacity:1;"
         offset="0.60454738"
         id="stop9" />
      <stop
         style="stop-color:#000000;stop-opacity:1;"
         offset="0.79727012"
         id="stop10" />
      <stop
         style="stop-color:#ffffff;stop-opacity:1;"
         offset="1"
         id="stop6" />
    </linearGradient>
    <linearGradient
       inkscape:collect="always"
       xlink:href="#linearGradient2"
       id="linearGradient5"
       x1="-9.5367433e-08"
       y1="7.2924414"
       x2="52.438786"
       y2="7.2924414"
       gradientUnits="userSpaceOnUse"
       gradientTransform="matrix(-0.8151037,-0.47060034,-0.47060034,0.8151037,194.49028,26.503093)" />
    <filter
       inkscape:collect="always"
       style="color-interpolation-filters:sRGB"
       id="filter19"
       x="-0.064316286"
       y="-0.074699196"
       width="1.1286326"
       height="1.1493984">
      <feGaussianBlur
         inkscape:collect="always"
         stdDeviation="2.2400032"
         id="feGaussianBlur19" />
    </filter>
    <linearGradient
       inkscape:collect="always"
       xlink:href="#linearGradient2"
       id="linearGradient26"
       x1="-157.59435"
       y1="36.473614"
       x2="-57.148163"
       y2="36.473614"
       gradientUnits="userSpaceOnUse" />
    <radialGradient
       inkscape:collect="always"
       xlink:href="#linearGradient4"
       id="radialGradient5"
       cx="64.029171"
       cy="67.733338"
       fx="64.029171"
       fy="67.733338"
       r="51.220465"
       gradientTransform="matrix(1,0,0,1.13491,-0.90523504,-9.1379061)"
       gradientUnits="userSpaceOnUse" />
    <filter
       inkscape:collect="always"
       style="color-interpolation-filters:sRGB"
       id="filter6"
       x="-0.20688051"
       y="-0.1791165"
       width="1.413761"
       height="1.358233">
      <feGaussianBlur
         inkscape:collect="always"
         stdDeviation="7.685626"
         id="feGaussianBlur6" />
    </filter>
    <linearGradient
       inkscape:collect="always"
       xlink:href="#linearGradient2"
       id="linearGradient1"
       gradientUnits="userSpaceOnUse"
       x1="-157.59435"
       y1="36.473614"
       x2="-57.148163"
       y2="36.473614" />
  </defs>
  <g
     inkscape:label="Layer 1"
     inkscape:groupmode="layer"
     id="layer1"
     style="display:inline">
    <g
       id="g19"
       style="display:none"
       sodipodi:insensitive="true">
      <path
         style="font-size:111.335px;line-height:1.25;fill:#c2c2c2;fill-opacity:1;stroke:url(#linearGradient5);stroke-width:1.79705;stroke-dasharray:none;paint-order:markers stroke fill"
         d="m 169.42909,24.01295 q 4.10529,0.434202 6.54525,1.237917 2.40161,0.660571 4.3981,1.813245 2.54099,1.467041 4.46352,4.634006 1.92254,3.166966 2.79067,6.693168 l 4.08675,-7.078466 q -1.57908,-7.324654 -8.11305,-11.097043 -2.63174,-1.519435 -5.48709,-2.44198 -2.9461,-0.974937 -8.16847,-1.570083 -4.10529,-0.434201 -6.5069,-1.094773 -2.43996,-0.803716 -4.3457,-1.903997 -2.63174,-1.519435 -4.55427,-4.686402 -1.92253,-3.166965 -2.79067,-6.693166 l -4.03436,6.987716 q 1.61744,7.4678 8.06066,11.187796 2.54099,1.467042 5.57784,2.494374 2.9985,0.884187 8.07772,1.517688 z"
         id="text1"
         aria-label="~" />
      <path
         id="rect1"
         style="fill:#c2c2c2;stroke:url(#linearGradient3);stroke-width:1.79705;stroke-linecap:round;stroke-linejoin:round;paint-order:markers stroke fill"
         d="m 214.18849,43.682953 66.14582,34.142405 H 263.79786 V 133.64129 H 164.57911 V 77.825358 h -16.53646 l 8.26823,-4.2678 8.26823,-4.267802 8.26823,-4.2678 8.26823,-4.2678 V 42.971369 l 16.53646,-0.124913 v 9.372098 l 8.26823,-4.2678 z"
         sodipodi:nodetypes="cccccccccccccccc" />
      <path
         id="path5"
         style="opacity:0.2;fill:#28220b;fill-opacity:1;stroke:none;stroke-width:1.79705;stroke-linecap:round;stroke-linejoin:round;paint-order:markers stroke fill;filter:url(#filter19)"
         d="m 212.57429,54.022417 c -4.35669,2.237841 -8.64314,4.653034 -13.21289,6.4375 -4.1512,0.794753 -8.39554,-2.078762 -9.77539,-5.960937 -0.008,3.016176 0.0334,6.072459 -0.55053,9.040225 -1.14999,3.155563 -4.19933,5.031072 -7.12426,6.32792 -3.19565,1.650072 -6.39129,3.300143 -9.58693,4.950214 1.27176,3.262573 0.58808,6.814256 0.74357,10.217187 -0.0159,13.379423 -0.0228,26.758844 -0.0209,40.138274 27.42709,0 54.85417,1e-5 82.28126,0 0.0364,-16.36033 -0.13193,-32.725529 0.22265,-49.082023 -0.0198,-0.456768 0.60546,-1.119743 0.25197,-1.398384 -13.875,-7.162779 -27.75001,-14.325557 -41.62501,-21.488335 -0.53451,0.272786 -1.06901,0.545573 -1.60352,0.818359 z" />
    </g>
    <path
       sodipodi:type="star"
       style="display:none;fill:#c2c2c2;fill-opacity:1;stroke:url(#linearGradient26);stroke-width:1.51405;stroke-linecap:round;stroke-dasharray:none;stroke-opacity:1;paint-order:markers stroke fill"
       id="path21"
       inkscape:flatsided="true"
       sodipodi:sides="3"
       sodipodi:cx="-124.11229"
       sodipodi:cy="36.473614"
       sodipodi:r1="64.350746"
       sodipodi:r2="59.717495"
       sodipodi:arg1="0"
       sodipodi:arg2="1.0471976"
       inkscape:rounded="0"
       inkscape:randomized="0"
       d="m -59.761543,36.473614 -96.526117,55.729381 0,-111.458762 z"
       inkscape:transform-center-x="-2.7495993"
       transform="matrix(1.1869113,0,0,1.1869113,195.94895,24.442388)"
       inkscape:transform-center-y="1.2120412e-06" />
    <g
       id="g1"
       transform="translate(14.717993)">
      <path
         sodipodi:type="star"
         style="display:inline;fill:#3bff00;fill-opacity:1;stroke:url(#linearGradient1);stroke-width:1.51405;stroke-linecap:round;stroke-dasharray:none;stroke-opacity:1;paint-order:markers stroke fill"
         id="path2"
         inkscape:flatsided="true"
         sodipodi:sides="3"
         sodipodi:cx="-124.11229"
         sodipodi:cy="36.473614"
         sodipodi:r1="64.350746"
         sodipodi:r2="59.717495"
         sodipodi:arg1="0"
         sodipodi:arg2="1.0471976"
         inkscape:rounded="0"
         inkscape:randomized="0"
         d="m -59.761543,36.473614 -96.526117,55.729381 0,-111.458762 z"
         inkscape:transform-center-x="2.7495989"
         transform="matrix(-1.1869113,0,0,1.1869113,-75.200282,24.442388)"
         inkscape:transform-center-y="1.2120412e-06" />
      <path
         id="path1"
         style="display:inline;mix-blend-mode:normal;fill:url(#radialGradient5);fill-opacity:1;stroke:none;stroke-width:1.79704;stroke-linecap:round;stroke-dasharray:none;stroke-opacity:1;paint-order:markers stroke fill;filter:url(#filter6)"
         inkscape:transform-center-x="2.7495969"
         inkscape:transform-center-y="1.2120412e-06"
         d="M 18.543846,119.22357 C 48.263906,102.0595 77.983956,84.895444 107.70402,67.731381 77.983956,50.568621 48.263906,33.40586 18.543846,16.243094 c 1e-5,34.326829 0,68.653651 0,102.980476 z"
         transform="matrix(-1,0,0,1,120.74867,0)" />
    </g>
  </g>
</svg>
