<?xml version="1.0" encoding="UTF-8" standalone="no"?>
<!-- Created with Inkscape (http://www.inkscape.org/) -->

<svg
   width="512"
   height="512"
   viewBox="0 0 135.46666 135.46667"
   version="1.1"
   id="svg5"
   inkscape:version="1.3.2 (091e20ef0f, 2023-11-25, custom)"
   sodipodi:docname="media-record.svg"
   xmlns:inkscape="http://www.inkscape.org/namespaces/inkscape"
   xmlns:sodipodi="http://sodipodi.sourceforge.net/DTD/sodipodi-0.dtd"
   xmlns:xlink="http://www.w3.org/1999/xlink"
   xmlns="http://www.w3.org/2000/svg"
   xmlns:svg="http://www.w3.org/2000/svg">
  <sodipodi:namedview
     id="namedview7"
     pagecolor="#292929"
     bordercolor="#666666"
     borderopacity="1"
     inkscape:showpageshadow="0"
     inkscape:pageopacity="0"
     inkscape:pagecheckerboard="1"
     inkscape:deskcolor="#1a1a1a"
     inkscape:document-units="px"
     showgrid="false"
     inkscape:zoom="1.3037281"
     inkscape:cx="419.1825"
     inkscape:cy="328.28931"
     inkscape:window-width="3256"
     inkscape:window-height="1080"
     inkscape:window-x="1864"
     inkscape:window-y="0"
     inkscape:window-maximized="0"
     inkscape:current-layer="layer1" />
  <defs
     id="defs2">
    <linearGradient
       id="linearGradient6"
       inkscape:collect="always">
      <stop
         style="stop-color:#a3a29d;stop-opacity:1;"
         offset="0"
         id="stop11" />
      <stop
         style="stop-color:#a3a29d;stop-opacity:0;"
         offset="1"
         id="stop12" />
    </linearGradient>
    <linearGradient
       inkscape:collect="always"
       xlink:href="#linearGradient2"
       id="linearGradient3"
       x1="5.5466776e-06"
       y1="38.686329"
       x2="135.46667"
       y2="38.686329"
       gradientUnits="userSpaceOnUse"
       gradientTransform="matrix(0.97656251,0,0,0.97863487,148.04265,2.066869)" />
    <linearGradient
       id="linearGradient2"
       inkscape:collect="always">
      <stop
         style="stop-color:#000000;stop-opacity:1;"
         offset="0"
         id="stop3" />
      <stop
         style="stop-color:#ffffff;stop-opacity:1;"
         offset="0.2"
         id="stop7" />
      <stop
         style="stop-color:#000000;stop-opacity:1;"
         offset="0.40365851"
         id="stop8" />
      <stop
         style="stop-color:#ffffff;stop-opacity:1;"
         offset="0.60454738"
         id="stop9" />
      <stop
         style="stop-color:#000000;stop-opacity:1;"
         offset="0.79727012"
         id="stop10" />
      <stop
         style="stop-color:#ffffff;stop-opacity:1;"
         offset="1"
         id="stop6" />
    </linearGradient>
    <linearGradient
       inkscape:collect="always"
       xlink:href="#linearGradient2"
       id="linearGradient5"
       x1="-9.5367433e-08"
       y1="7.2924414"
       x2="52.438786"
       y2="7.2924414"
       gradientUnits="userSpaceOnUse"
       gradientTransform="matrix(-0.8151037,-0.47060034,-0.47060034,0.8151037,194.49028,26.503093)" />
    <filter
       inkscape:collect="always"
       style="color-interpolation-filters:sRGB"
       id="filter19"
       x="-0.064316286"
       y="-0.074699196"
       width="1.1286326"
       height="1.1493984">
      <feGaussianBlur
         inkscape:collect="always"
         stdDeviation="2.2400032"
         id="feGaussianBlur19" />
    </filter>
    <filter
       inkscape:collect="always"
       style="color-interpolation-filters:sRGB"
       id="filter6"
       x="-0.069129511"
       y="-0.06911049"
       width="1.138259"
       height="1.138221">
      <feGaussianBlur
         inkscape:collect="always"
         stdDeviation="3.4115747"
         id="feGaussianBlur6" />
    </filter>
    <radialGradient
       inkscape:collect="always"
       xlink:href="#linearGradient6"
       id="radialGradient12"
       cx="67.733329"
       cy="67.733334"
       fx="67.733329"
       fy="67.733334"
       r="67.408358"
       gradientTransform="matrix(1,0,0,1.0002418,0,-0.01637871)"
       gradientUnits="userSpaceOnUse" />
    <linearGradient
       inkscape:collect="always"
       xlink:href="#linearGradient2"
       id="linearGradient14"
       x1="-3.7041655"
       y1="67.73333"
       x2="139.17084"
       y2="67.73333"
       gradientUnits="userSpaceOnUse" />
  </defs>
  <g
     inkscape:label="Layer 1"
     inkscape:groupmode="layer"
     id="layer1">
    <g
       id="g19"
       style="display:none"
       sodipodi:insensitive="true">
      <path
         style="font-size:111.335px;line-height:1.25;fill:#c2c2c2;fill-opacity:1;stroke:url(#linearGradient5);stroke-width:1.79705;stroke-dasharray:none;paint-order:markers stroke fill"
         d="m 169.42909,24.01295 q 4.10529,0.434202 6.54525,1.237917 2.40161,0.660571 4.3981,1.813245 2.54099,1.467041 4.46352,4.634006 1.92254,3.166966 2.79067,6.693168 l 4.08675,-7.078466 q -1.57908,-7.324654 -8.11305,-11.097043 -2.63174,-1.519435 -5.48709,-2.44198 -2.9461,-0.974937 -8.16847,-1.570083 -4.10529,-0.434201 -6.5069,-1.094773 -2.43996,-0.803716 -4.3457,-1.903997 -2.63174,-1.519435 -4.55427,-4.686402 -1.92253,-3.166965 -2.79067,-6.693166 l -4.03436,6.987716 q 1.61744,7.4678 8.06066,11.187796 2.54099,1.467042 5.57784,2.494374 2.9985,0.884187 8.07772,1.517688 z"
         id="text1"
         aria-label="~" />
      <path
         id="rect1"
         style="fill:#c2c2c2;stroke:url(#linearGradient3);stroke-width:1.79705;stroke-linecap:round;stroke-linejoin:round;paint-order:markers stroke fill"
         d="m 214.18849,43.682953 66.14582,34.142405 H 263.79786 V 133.64129 H 164.57911 V 77.825358 h -16.53646 l 8.26823,-4.2678 8.26823,-4.267802 8.26823,-4.2678 8.26823,-4.2678 V 42.971369 l 16.53646,-0.124913 v 9.372098 l 8.26823,-4.2678 z"
         sodipodi:nodetypes="cccccccccccccccc" />
      <path
         id="path5"
         style="opacity:0.2;fill:#28220b;fill-opacity:1;stroke:none;stroke-width:1.79705;stroke-linecap:round;stroke-linejoin:round;paint-order:markers stroke fill;filter:url(#filter19)"
         d="m 212.57429,54.022417 c -4.35669,2.237841 -8.64314,4.653034 -13.21289,6.4375 -4.1512,0.794753 -8.39554,-2.078762 -9.77539,-5.960937 -0.008,3.016176 0.0334,6.072459 -0.55053,9.040225 -1.14999,3.155563 -4.19933,5.031072 -7.12426,6.32792 -3.19565,1.650072 -6.39129,3.300143 -9.58693,4.950214 1.27176,3.262573 0.58808,6.814256 0.74357,10.217187 -0.0159,13.379423 -0.0228,26.758844 -0.0209,40.138274 27.42709,0 54.85417,1e-5 82.28126,0 0.0364,-16.36033 -0.13193,-32.725529 0.22265,-49.082023 -0.0198,-0.456768 0.60546,-1.119743 0.25197,-1.398384 -13.875,-7.162779 -27.75001,-14.325557 -41.62501,-21.488335 -0.53451,0.272786 -1.06901,0.545573 -1.60352,0.818359 z" />
    </g>
    <circle
       style="fill:#ff0000;fill-opacity:1;stroke:url(#linearGradient14);stroke-width:1.79704998;stroke-linecap:square;stroke-linejoin:round;stroke-dashoffset:83.2;paint-order:markers stroke fill;stroke-opacity:1;stroke-dasharray:none"
       id="path6"
       cx="67.73333"
       cy="67.73333"
       r="66.674995" />
    <path
       id="circle6"
       style="display:inline;mix-blend-mode:hard-light;fill:url(#radialGradient12);fill-opacity:1;stroke:none;stroke-width:9.525;stroke-linecap:square;stroke-linejoin:round;stroke-dashoffset:83.2;paint-order:fill markers stroke;filter:url(#filter6)"
       d="m 66.628444,8.5055741 c -9.52836,0.179205 -19.00298,2.7297569 -27.39256,7.3124509 -10.11495,5.466885 -18.56546,14.161919 -23.93794,24.381067 -4.58139,8.606099 -6.9264695,18.499288 -6.7786095,28.245916 0.0981,7.845099 1.7109895,15.656337 4.8780995,22.896149 5.19459,11.956023 14.43686,22.135743 25.90495,28.360403 9.88531,5.38974 21.40877,7.96347 32.59587,7.10707 11.57428,-0.83601 22.85864,-5.04985 32.015606,-12.18665 5.97548,-4.63444 11.06819,-10.42827 14.89862,-16.930624 4.89892,-8.247204 7.69347,-17.873926 8.0865,-27.480742 C 127.33405,60.167388 125.1793,50.019871 120.61672,41.03487 117.19681,34.232966 112.29465,27.935931 106.49913,22.93437 95.542194,13.389175 81.153894,8.2496361 66.628444,8.5055741 Z" />
  </g>
</svg>
