<?xml version="1.0" encoding="UTF-8" standalone="no"?>
<!-- Created with Inkscape (http://www.inkscape.org/) -->

<svg
   width="512"
   height="512"
   viewBox="0 0 135.46666 135.46667"
   version="1.1"
   id="svg5"
   inkscape:version="1.4.2 (ebf0e940d0, 2025-05-08)"
   sodipodi:docname="system-upgrade.svg"
   xmlns:inkscape="http://www.inkscape.org/namespaces/inkscape"
   xmlns:sodipodi="http://sodipodi.sourceforge.net/DTD/sodipodi-0.dtd"
   xmlns:xlink="http://www.w3.org/1999/xlink"
   xmlns="http://www.w3.org/2000/svg"
   xmlns:svg="http://www.w3.org/2000/svg"
   xmlns:rdf="http://www.w3.org/1999/02/22-rdf-syntax-ns#"
   xmlns:cc="http://creativecommons.org/ns#"
   xmlns:dc="http://purl.org/dc/elements/1.1/">&gt;
  <sodipodi:namedview
   id="namedview7"
   pagecolor="#000000"
   bordercolor="#252525"
   borderopacity="1"
   inkscape:showpageshadow="0"
   inkscape:pageopacity="0"
   inkscape:pagecheckerboard="1"
   inkscape:deskcolor="#000000"
   inkscape:document-units="px"
   showgrid="false"
   inkscape:zoom="8.9714176"
   inkscape:cx="255.75668"
   inkscape:cy="171.0432"
   inkscape:window-width="3256"
   inkscape:window-height="1080"
   inkscape:window-x="1864"
   inkscape:window-y="0"
   inkscape:window-maximized="0"
   inkscape:current-layer="layer1" />
<defs
   id="defs2">
  <linearGradient
     id="linearGradient43"
     inkscape:collect="always">
    <stop
       style="stop-color:#000000;stop-opacity:0.40000001;"
       offset="0"
       id="stop43" />
    <stop
       style="stop-color:#ffffff;stop-opacity:1;"
       offset="1"
       id="stop44" />
  </linearGradient>
  <linearGradient
     id="linearGradient40"
     inkscape:collect="always">
    <stop
       style="stop-color:#000000;stop-opacity:1;"
       offset="0"
       id="stop40" />
    <stop
       style="stop-color:#000000;stop-opacity:0;"
       offset="0.88"
       id="stop41" />
  </linearGradient>
  <linearGradient
     id="linearGradient30"
     inkscape:collect="always">
    <stop
       style="stop-color:#000000;stop-opacity:1;"
       offset="0"
       id="stop30" />
    <stop
       style="stop-color:#000000;stop-opacity:0;"
       offset="1"
       id="stop31" />
  </linearGradient>
  <linearGradient
     id="linearGradient28"
     inkscape:collect="always">
    <stop
       style="stop-color:#000000;stop-opacity:1;"
       offset="0"
       id="stop28" />
    <stop
       style="stop-color:#000000;stop-opacity:0.47999999;"
       offset="1"
       id="stop29" />
  </linearGradient>
  <linearGradient
     id="linearGradient18"
     inkscape:collect="always">
    <stop
       style="stop-color:#000000;stop-opacity:1;"
       offset="0"
       id="stop18" />
    <stop
       style="stop-color:#000000;stop-opacity:0;"
       offset="1"
       id="stop19" />
  </linearGradient>
  <linearGradient
     id="linearGradient16"
     inkscape:collect="always">
    <stop
       style="stop-color:#ffffff;stop-opacity:1;"
       offset="0"
       id="stop16" />
    <stop
       style="stop-color:#ffffff;stop-opacity:0;"
       offset="1"
       id="stop17" />
  </linearGradient>
  <linearGradient
     id="linearGradient2"
     inkscape:collect="always">
    <stop
       style="stop-color:#000000;stop-opacity:1;"
       offset="0"
       id="stop3" />
    <stop
       style="stop-color:#ffffff;stop-opacity:1;"
       offset="0.2"
       id="stop7" />
    <stop
       style="stop-color:#000000;stop-opacity:1;"
       offset="0.40365851"
       id="stop8" />
    <stop
       style="stop-color:#ffffff;stop-opacity:1;"
       offset="0.60454738"
       id="stop9" />
    <stop
       style="stop-color:#000000;stop-opacity:1;"
       offset="0.79727012"
       id="stop10" />
    <stop
       style="stop-color:#ffffff;stop-opacity:1;"
       offset="1"
       id="stop6" />
  </linearGradient>
  <linearGradient
     inkscape:collect="always"
     xlink:href="#linearGradient16"
     id="linearGradient17"
     x1="95.978516"
     y1="76.837891"
     x2="95.978516"
     y2="63.682621"
     gradientUnits="userSpaceOnUse"
     gradientTransform="matrix(2.7524249,0,0,2.7524249,-196.43995,-106.82193)" />
  <linearGradient
     inkscape:collect="always"
     xlink:href="#linearGradient18"
     id="linearGradient19"
     x1="95.9785"
     y1="51.056641"
     x2="95.978516"
     y2="64.211906"
     gradientUnits="userSpaceOnUse"
     gradientTransform="matrix(2.7524249,0,0,2.7524249,-196.43995,-108.27669)" />
  <linearGradient
     inkscape:collect="always"
     xlink:href="#linearGradient2"
     id="linearGradient27"
     x1="-1.0240285e-08"
     y1="67.733398"
     x2="135.4668"
     y2="67.733398"
     gradientUnits="userSpaceOnUse" />
  <linearGradient
     inkscape:collect="always"
     xlink:href="#linearGradient28"
     id="linearGradient29"
     x1="67.733704"
     y1="32.252876"
     x2="67.733704"
     y2="103.21383"
     gradientUnits="userSpaceOnUse" />
  <linearGradient
     inkscape:collect="always"
     xlink:href="#linearGradient30"
     id="linearGradient31"
     x1="67.733711"
     y1="95.447655"
     x2="67.733711"
     y2="68.461769"
     gradientUnits="userSpaceOnUse" />
  <clipPath
     clipPathUnits="userSpaceOnUse"
     id="clipPath32">
    <path
       style="baseline-shift:baseline;display:inline;overflow:visible;opacity:0.48;vector-effect:none;fill:url(#linearGradient32);stroke-width:0.363318;stroke-linecap:round;stroke-linejoin:round;stroke-miterlimit:12;paint-order:markers stroke fill;enable-background:accumulate;stop-color:#000000"
       d="m 67.733708,32.25288 c -19.543064,0 -35.480479,15.937412 -35.480479,35.480476 0,19.543067 15.937415,35.480474 35.480479,35.480474 19.543054,0 35.480472,-15.937407 35.480472,-35.480474 0,-19.543064 -15.937418,-35.480476 -35.480472,-35.480476 z m 0,8.7411 c 14.820194,0 26.739379,11.919191 26.739379,26.739376 0,14.820186 -11.919185,26.739376 -26.739379,26.739376 -14.820188,0 -26.739379,-11.91919 -26.739379,-26.739376 0,-14.820185 11.919191,-26.739376 26.739379,-26.739376 z"
       id="path32" />
  </clipPath>
  <linearGradient
     inkscape:collect="always"
     xlink:href="#linearGradient28"
     id="linearGradient32"
     gradientUnits="userSpaceOnUse"
     x1="67.733704"
     y1="32.252876"
     x2="67.733704"
     y2="103.21383" />
  <filter
     inkscape:collect="always"
     style="color-interpolation-filters:sRGB"
     id="filter32"
     x="-0.015446479"
     y="-0.019607434"
     width="1.030893"
     height="1.0392149">
    <feGaussianBlur
       inkscape:collect="always"
       stdDeviation="0.34419342"
       id="feGaussianBlur32" />
  </filter>
  <clipPath
     clipPathUnits="userSpaceOnUse"
     id="clipPath33">
    <path
       style="baseline-shift:baseline;display:inline;overflow:visible;opacity:0.48;vector-effect:none;fill:url(#linearGradient34);stroke-width:0.363318;stroke-linecap:round;stroke-linejoin:round;stroke-miterlimit:12;paint-order:markers stroke fill;enable-background:accumulate;stop-color:#000000"
       d="m 67.733708,32.25288 c -19.543064,0 -35.480479,15.937412 -35.480479,35.480476 0,19.543067 15.937415,35.480474 35.480479,35.480474 19.543054,0 35.480472,-15.937407 35.480472,-35.480474 0,-19.543064 -15.937418,-35.480476 -35.480472,-35.480476 z m 0,8.7411 c 14.820194,0 26.739379,11.919191 26.739379,26.739376 0,14.820186 -11.919185,26.739376 -26.739379,26.739376 -14.820188,0 -26.739379,-11.91919 -26.739379,-26.739376 0,-14.820185 11.919191,-26.739376 26.739379,-26.739376 z"
       id="path34" />
  </clipPath>
  <linearGradient
     inkscape:collect="always"
     xlink:href="#linearGradient28"
     id="linearGradient34"
     gradientUnits="userSpaceOnUse"
     x1="67.733704"
     y1="32.252876"
     x2="67.733704"
     y2="103.21383" />
  <filter
     inkscape:collect="always"
     style="color-interpolation-filters:sRGB"
     id="filter34"
     x="-0.019725543"
     y="-0.03865765"
     width="1.0394511"
     height="1.0773153">
    <feGaussianBlur
       inkscape:collect="always"
       stdDeviation="0.58322945"
       id="feGaussianBlur34" />
  </filter>
  <clipPath
     clipPathUnits="userSpaceOnUse"
     id="clipPath39">
    <path
       style="baseline-shift:baseline;display:inline;overflow:visible;opacity:0.28;vector-effect:none;stroke-width:0.452379;stroke-linecap:round;stroke-linejoin:round;stroke-miterlimit:12;paint-order:markers stroke fill;enable-background:accumulate;stop-color:#000000"
       d="m 81.743859,49.210944 4.356367,7.545448 h -8.712732 z"
       id="path40" />
  </clipPath>
  <linearGradient
     inkscape:collect="always"
     xlink:href="#linearGradient40"
     id="linearGradient41"
     x1="81.743858"
     y1="49.210945"
     x2="81.743858"
     y2="56.756393"
     gradientUnits="userSpaceOnUse" />
  <filter
     inkscape:collect="always"
     style="color-interpolation-filters:sRGB"
     id="filter41"
     x="-0.036494081"
     y="-0.041599721"
     width="1.0729882"
     height="1.0831994">
    <feGaussianBlur
       inkscape:collect="always"
       stdDeviation="0.14454157"
       id="feGaussianBlur41" />
  </filter>
  <linearGradient
     inkscape:collect="always"
     xlink:href="#linearGradient43"
     id="linearGradient44"
     x1="-13.684199"
     y1="36.562775"
     x2="-13.684199"
     y2="13.794059"
     gradientUnits="userSpaceOnUse" />
</defs>
<g
   inkscape:label="Layer 1"
   inkscape:groupmode="layer"
   id="layer1">
  <path
     style="baseline-shift:baseline;display:inline;overflow:visible;vector-effect:none;fill:url(#linearGradient27);stroke:none;stroke-linecap:round;stroke-linejoin:round;stroke-miterlimit:12;paint-order:markers stroke fill;enable-background:accumulate;stop-color:#000000"
     d="M 67.734375,0 C 65.867774,-1.1351222e-4 64.446101,0.91702463 63.181641,1.7773437 61.91718,2.6376629 60.779328,3.4456538 59.400391,3.65625 59.069313,3.7062661 58.805217,3.9586416 58.740234,4.2871094 L 56.580078,15.261719 c -0.01311,0.06884 -0.01705,0.139111 -0.01172,0.208984 l 0.570313,8.328125 c -0.737473,0.177868 -1.469675,0.373147 -2.197266,0.587891 l -3.669921,-7.498047 c -0.0306,-0.06276 -0.06934,-0.121205 -0.115234,-0.173828 L 43.796875,8.2910156 C 43.576884,8.0398889 43.223277,7.9532435 42.912109,8.0742188 41.612599,8.5813047 40.222375,8.4487667 38.697266,8.3359375 37.172157,8.2231083 35.48364,8.1408322 33.867187,9.0742188 32.235634,10.016085 31.452396,11.526623 30.787109,12.90625 c -0.665286,1.379627 -1.240634,2.645292 -2.310547,3.501953 -0.260247,0.209233 -0.36173,0.558961 -0.253906,0.875 l 3.617188,10.585938 c 0.02237,0.06559 0.05323,0.127969 0.0918,0.185546 l 4.660156,6.927735 c -0.550024,0.523003 -1.086373,1.059351 -1.609375,1.609375 L 28.05469,31.931641 c -0.05758,-0.03857 -0.119955,-0.06943 -0.185546,-0.0918 L 17.283203,28.222656 c -0.316039,-0.107824 -0.665767,-0.0063 -0.875,0.253906 -0.871888,1.088934 -2.142241,1.670788 -3.519531,2.335938 -1.37729,0.66515 -2.88127,1.438145 -3.8144532,3.054687 -0.9419869,1.631376 -0.8635682,3.332346 -0.75,4.859375 0.1135681,1.52703 0.248265,2.90863 -0.25,4.185547 -0.1209753,0.311168 -0.03433,0.664775 0.2167968,0.884766 l 8.4238284,7.359375 c 0.05262,0.04589 0.11107,0.08463 0.173828,0.115234 l 7.498047,3.669922 c -0.214743,0.72759 -0.410024,1.459794 -0.587891,2.197266 l -8.328125,-0.570313 c -0.06987,-0.0053 -0.140145,-0.0014 -0.208984,0.01172 L 4.2871094,58.740234 C 3.9586416,58.805217 3.7062661,59.069313 3.65625,59.400391 3.4456475,60.77933 2.637661,61.91718 1.7773437,63.181641 0.91702646,64.446101 -1.1190895e-4,65.867775 0,67.734375 c -9.7215983e-5,1.883881 0.91720063,3.316328 1.7792969,4.582031 0.8620962,1.265704 1.6700192,2.395096 1.8769531,3.75 0.05077,0.330323 0.3029865,0.593472 0.6308594,0.658203 l 10.9746096,2.16211 c 0.06884,0.01311 0.139111,0.01705 0.208984,0.01172 l 8.328125,-0.570312 c 0.177867,0.737473 0.373148,1.469675 0.587891,2.197266 l -7.498047,3.669921 c -0.06276,0.0306 -0.121205,0.06935 -0.173828,0.115235 l -8.4238284,7.359375 c -0.2511263,0.219991 -0.3377716,0.573597 -0.2167968,0.884765 0.5070869,1.299509 0.3745486,2.689736 0.2617187,4.214844 -0.1128299,1.525109 -0.1951072,3.213627 0.7382813,4.830077 0.9418652,1.63156 2.4524032,2.41479 3.8320312,3.08008 1.379628,0.66528 2.645294,1.24064 3.501953,2.31054 0.209232,0.26025 0.55896,0.36173 0.875,0.25391 l 10.585938,-3.61719 c 0.06559,-0.0224 0.127969,-0.0532 0.185546,-0.0918 L 34.982422,98.875 c 0.523002,0.550024 1.059351,1.086372 1.609375,1.60938 l -4.660156,6.92773 c -0.03857,0.0576 -0.06943,0.11996 -0.0918,0.18555 l -3.617188,10.58593 c -0.107824,0.31604 -0.0063,0.66577 0.253906,0.875 1.088935,0.87189 1.670789,2.14224 2.335938,3.51954 0.665149,1.37729 1.438142,2.88127 3.054687,3.81445 1.631377,0.94199 3.332345,0.86357 4.859375,0.75 1.527031,-0.11357 2.908632,-0.24827 4.185547,0.25 0.311169,0.12097 0.664776,0.0343 0.884766,-0.2168 l 7.359375,-8.42383 c 0.04589,-0.0526 0.08463,-0.11106 0.115234,-0.17382 l 3.669922,-7.49805 c 0.727591,0.21474 1.459793,0.41002 2.197266,0.58789 l -0.570313,8.32812 c -0.0053,0.0699 -0.0014,0.14015 0.01172,0.20899 l 2.160156,10.97461 c 0.06498,0.32847 0.329079,0.58084 0.660157,0.63086 1.37894,0.2106 2.516789,1.01859 3.78125,1.8789 1.26446,0.86032 2.686135,1.77746 4.552734,1.77735 1.88388,9e-5 3.316328,-0.9172 4.582031,-1.7793 1.265704,-0.8621 2.395095,-1.67002 3.75,-1.87695 0.330323,-0.0508 0.593472,-0.30299 0.658203,-0.63086 l 2.16211,-10.97461 c 0.01311,-0.0688 0.01705,-0.13911 0.01172,-0.20899 l -0.570312,-8.32812 c 0.737474,-0.17787 1.469674,-0.37315 2.197266,-0.58789 l 3.669921,7.49805 c 0.0306,0.0628 0.06935,0.1212 0.115235,0.17382 l 7.359375,8.42383 c 0.21999,0.25113 0.573596,0.33777 0.884765,0.2168 1.276921,-0.49826 2.65852,-0.36357 4.185547,-0.25 1.527028,0.11357 3.228,0.19199 4.859376,-0.75 1.61654,-0.93318 2.38954,-2.43716 3.05469,-3.81445 0.66514,-1.3773 1.247,-2.64765 2.33593,-3.51954 0.26025,-0.20923 0.36173,-0.55896 0.25391,-0.875 l -3.61719,-10.58593 c -0.0224,-0.0656 -0.0532,-0.12797 -0.0918,-0.18555 L 98.875,100.48438 c 0.550024,-0.523008 1.086372,-1.059356 1.60938,-1.60938 l 6.92773,4.66016 c 0.0576,0.0386 0.11996,0.0694 0.18555,0.0918 l 10.58593,3.61719 c 0.31604,0.10782 0.66577,0.006 0.875,-0.25391 0.85667,-1.0699 2.12233,-1.64525 3.50196,-2.31054 1.37962,-0.66529 2.89016,-1.44853 3.83203,-3.08008 0.93339,-1.61645 0.85111,-3.304968 0.73828,-4.830079 -0.11283,-1.525111 -0.24536,-2.915336 0.26172,-4.214844 0.12097,-0.311169 0.0343,-0.664775 -0.2168,-0.884765 l -8.42383,-7.359375 c -0.0526,-0.04589 -0.11106,-0.08463 -0.17382,-0.115235 l -7.49805,-3.669921 c 0.21474,-0.727591 0.41002,-1.459793 0.58789,-2.197266 l 8.32812,0.570312 c 0.0699,0.0053 0.14015,0.0014 0.20899,-0.01172 l 10.97461,-2.16211 c 0.32787,-0.06473 0.58009,-0.32788 0.63086,-0.658203 0.20694,-1.354907 1.01486,-2.484295 1.87695,-3.75 0.86209,-1.265705 1.7794,-2.698153 1.7793,-4.582031 1.2e-4,-1.866606 -0.91702,-3.288275 -1.77735,-4.552734 -0.86032,-1.26446 -1.66831,-2.402313 -1.8789,-3.78125 -0.05,-0.331078 -0.30239,-0.595174 -0.63086,-0.660157 l -10.97461,-2.160156 c -0.0688,-0.01311 -0.13911,-0.01705 -0.20899,-0.01172 l -8.32812,0.570313 c -0.17787,-0.737472 -0.37315,-1.469676 -0.58789,-2.197266 l 7.49805,-3.669922 c 0.0628,-0.0306 0.1212,-0.06935 0.17382,-0.115234 l 8.42383,-7.359375 c 0.25113,-0.21999 0.33777,-0.573597 0.2168,-0.884766 -0.49826,-1.276919 -0.36357,-2.658518 -0.25,-4.185547 0.11356,-1.527028 0.19198,-3.227999 -0.75,-4.859375 -0.93319,-1.616545 -2.43717,-2.38954 -3.81445,-3.054687 -1.37729,-0.665147 -2.64765,-1.246998 -3.51954,-2.335938 -0.20923,-0.260247 -0.55896,-0.36173 -0.875,-0.253906 l -10.58593,3.617188 c -0.0656,0.02237 -0.12797,0.05323 -0.18555,0.0918 l -6.92773,4.660156 C 99.961372,36.041773 99.425024,35.505424 98.875,34.982422 l 4.66016,-6.927735 c 0.0386,-0.05758 0.0694,-0.119955 0.0918,-0.185546 l 3.61719,-10.585938 c 0.10782,-0.31604 0.006,-0.665768 -0.25391,-0.875 -1.06991,-0.856662 -1.64526,-2.122327 -2.31054,-3.501953 -0.66528,-1.379626 -1.44853,-2.890164 -3.08008,-3.8320312 C 99.983158,8.140827 98.294639,8.2231035 96.769531,8.3359375 95.244424,8.4487715 93.854199,8.5813182 92.554687,8.0742188 92.243519,7.953244 91.889913,8.0398893 91.669922,8.2910156 l -7.359375,8.4238284 c -0.04589,0.05262 -0.08464,0.11107 -0.115235,0.173828 l -3.669921,7.498047 c -0.727592,-0.214744 -1.459792,-0.410023 -2.197266,-0.587891 l 0.570312,-8.328125 c 0.0053,-0.06987 0.0014,-0.140145 -0.01172,-0.208984 L 76.724609,4.2871094 C 76.659878,3.9592365 76.396729,3.7070198 76.066406,3.65625 74.7115,3.4493136 73.58211,2.6413921 72.316406,1.7792969 71.050702,0.91720162 69.618255,-9.5623567e-5 67.734375,0 Z m 0,1.5878906 c 1.369544,-6.95e-5 2.455934,0.6637327 3.689453,1.5039063 1.087264,0.7405562 2.317631,1.5417554 3.828125,1.9296875 l 2.056641,10.4453126 -0.609375,8.873047 c -0.02752,0.391149 0.234683,0.743791 0.617187,0.830078 1.144708,0.257775 2.278226,0.560974 3.398438,0.910156 0.373778,0.116657 0.776788,-0.05665 0.949218,-0.408203 l 3.910157,-7.990234 7.003906,-8.0156254 c 1.516334,0.4261844 2.994345,0.3511404 4.308594,0.2539063 1.489781,-0.1102204 2.753507,-0.1442294 3.919921,0.5292971 1.18608,0.684702 1.79499,1.801929 2.44336,3.146484 0.57129,1.184716 1.23813,2.494907 2.35156,3.585938 l -3.44336,10.074218 -4.964841,7.382813 c -0.217795,0.324946 -0.166403,0.760117 0.121094,1.02539 0.862434,0.795526 1.692755,1.625848 2.488281,2.488282 0.265276,0.2875 0.700446,0.338892 1.025396,0.121093 l 7.38281,-4.964843 10.07226,-3.44336 c 1.10019,1.127695 2.41643,1.803659 3.60352,2.376953 1.34539,0.649742 2.45746,1.253397 3.13086,2.419922 0.68487,1.186089 0.65365,2.457125 0.54297,3.945313 -0.0975,1.311514 -0.17685,2.779507 0.24218,4.28125 l -8.01757,7.003906 -7.99024,3.908203 c -0.35155,0.172431 -0.52486,0.575442 -0.4082,0.949219 0.34918,1.120209 0.65238,2.255686 0.91016,3.400391 0.0863,0.382501 0.43892,0.6447 0.83007,0.617187 L 120,58.158203 l 10.44336,2.056641 c 0.38892,1.526933 1.192,2.769419 1.93359,3.859375 0.8404,1.235173 1.50205,2.313262 1.50196,3.660156 7e-5,1.369546 -0.66374,2.455935 -1.50391,3.689453 -0.74055,1.087263 -1.54175,2.317635 -1.92969,3.828125 L 120,77.308594 111.12695,76.699219 c -0.39115,-0.02751 -0.74378,0.234686 -0.83007,0.617187 -0.25778,1.144706 -0.56098,2.278228 -0.91016,3.398438 -0.11666,0.373777 0.0567,0.776787 0.4082,0.949218 l 7.99024,3.910157 8.01562,7.003906 c -0.42616,1.516326 -0.35113,2.994347 -0.2539,4.308594 0.11021,1.489779 0.14423,2.753501 -0.5293,3.919921 -0.68471,1.18609 -1.80193,1.79499 -3.14649,2.44336 -1.1851,0.57148 -2.49667,1.23743 -3.58789,2.35156 l -10.07226,-3.44336 -7.38281,-4.964841 c -0.32495,-0.217798 -0.76012,-0.166406 -1.025396,0.121094 -0.795526,0.862434 -1.625847,1.692756 -2.488281,2.488281 -0.2875,0.265276 -0.338892,0.700446 -0.121094,1.025396 l 4.964841,7.38281 3.44336,10.07226 c -1.12769,1.10019 -1.80366,2.41642 -2.37695,3.60352 -0.64974,1.34539 -1.2534,2.45746 -2.41992,3.13086 -1.186093,0.68487 -2.457129,0.65365 -3.945315,0.54297 -1.311512,-0.0975 -2.779507,-0.17685 -4.28125,0.24218 l -7.003906,-8.01757 -3.910157,-7.99024 c -0.172431,-0.35155 -0.575441,-0.52486 -0.949218,-0.4082 -1.120212,0.34918 -2.25373,0.65238 -3.398438,0.91016 -0.382501,0.0863 -0.6447,0.43892 -0.617187,0.83007 L 77.308594,120 75.251953,130.44531 c -1.510495,0.38793 -2.740861,1.18913 -3.828125,1.92969 -1.233519,0.84017 -2.319909,1.50397 -3.689453,1.50391 -1.346898,8e-5 -2.424982,-0.66157 -3.660156,-1.50196 -1.089957,-0.74158 -2.332448,-1.54466 -3.859375,-1.93359 L 58.158203,120 l 0.609375,-8.87305 c 0.02751,-0.39115 -0.234686,-0.74378 -0.617187,-0.83007 -1.144706,-0.25778 -2.28018,-0.56098 -3.400391,-0.91016 -0.373777,-0.11666 -0.776788,0.0567 -0.949219,0.4082 l -3.908203,7.99024 -7.003906,8.01757 c -1.501743,-0.41903 -2.969734,-0.33972 -4.28125,-0.24218 -1.48819,0.11068 -2.759224,0.1419 -3.945313,-0.54297 -1.166522,-0.6734 -1.770178,-1.78547 -2.419922,-3.13086 -0.573295,-1.1871 -1.249263,-2.50333 -2.376953,-3.60352 l 3.44336,-10.07226 4.964843,-7.38281 c 0.217799,-0.32495 0.166407,-0.76012 -0.121093,-1.025396 -0.862433,-0.795525 -1.692756,-1.625848 -2.488282,-2.488281 -0.265273,-0.287497 -0.700444,-0.338889 -1.02539,-0.121094 l -7.382813,4.964841 -10.074218,3.44336 C 16.090612,104.48813 14.78042,103.8213 13.595703,103.25 12.251147,102.60163 11.133921,101.99272 10.449219,100.80664 9.775692,99.64022 9.8097056,98.376499 9.9199219,96.886719 10.017152,95.572471 10.092188,94.094454 9.6660156,92.578125 l 8.0156254,-7.003906 7.990234,-3.910157 c 0.351549,-0.17243 0.52486,-0.57544 0.408203,-0.949218 -0.349181,-1.12021 -0.652382,-2.253732 -0.910156,-3.398438 -0.08629,-0.382504 -0.438929,-0.644704 -0.830078,-0.617187 L 15.466797,77.308594 5.0214844,75.251953 C 4.6335541,73.741459 3.832354,72.511092 3.0917969,71.423828 2.2516222,70.190309 1.58782,69.103918 1.5878906,67.734375 1.5878099,66.387478 2.2494528,65.309393 3.0898438,64.074219 3.8314313,62.984262 4.63451,61.741771 5.0234375,60.214844 l 10.4433595,-2.056641 8.873047,0.609375 c 0.391149,0.02752 0.743791,-0.234683 0.830078,-0.617187 0.257774,-1.144705 0.560975,-2.280181 0.910156,-3.400391 0.116657,-0.373778 -0.05665,-0.776789 -0.408203,-0.949219 L 17.681641,49.892578 9.6640625,42.888672 C 10.0831,41.386929 10.00379,39.918937 9.90625,38.607422 9.7955705,37.119233 9.7643491,35.848198 10.449219,34.662109 c 0.673399,-1.166522 1.785468,-1.770177 3.130859,-2.419922 1.187094,-0.573296 2.503326,-1.249265 3.603516,-2.376953 l 10.072265,3.44336 7.382813,4.964843 c 0.324946,0.217795 0.760117,0.166404 1.02539,-0.121093 0.795526,-0.862434 1.625849,-1.692756 2.488282,-2.488282 0.287497,-0.265273 0.338888,-0.700444 0.121093,-1.02539 l -4.964843,-7.382813 -3.44336,-10.074218 c 1.11343,-1.09103 1.780267,-2.401221 2.351563,-3.585938 0.648374,-1.344556 1.25728,-2.461782 2.443359,-3.146484 1.166423,-0.6735262 2.430142,-0.6395127 3.919922,-0.5292971 1.314248,0.097229 2.792265,0.1722651 4.308594,-0.2539063 l 7.003906,8.0156254 3.908203,7.990234 c 0.17243,0.351549 0.575441,0.52486 0.949219,0.408203 1.12021,-0.349182 2.255685,-0.65238 3.400391,-0.910156 0.382504,-0.08629 0.644704,-0.438929 0.617187,-0.830078 L 58.158203,15.466797 60.214844,5.0234375 c 1.526929,-0.3889228 2.769418,-1.1920042 3.859375,-1.9335937 1.235174,-0.8403933 2.31326,-1.5020351 3.660156,-1.5019532 z"
     id="path24"
     sodipodi:nodetypes="csccccccccccscsccccccccccscsccccccccccscsccccccccccscsccccccccccscsccccccccccscsccccccccccscsccccccccccscsccccccccccscsccccccccccscsccccccccccscsccccccccccsccsccccccccscsccccccccsccccccccccscsccccccccscsccccccccsccccccccccscsccccccccscsccccccccscsccccccccscsccccccccscsccccccccscsccccccccsc" />
  <path
     style="baseline-shift:baseline;display:inline;overflow:visible;vector-effect:none;fill:#c2c2c2;stroke-linecap:round;stroke-linejoin:round;stroke-miterlimit:12;paint-order:markers stroke fill;enable-background:accumulate;stop-color:#000000"
     d="m 67.73404,0.7937561 c -3.213497,-1.9542e-4 -4.997935,3.155735 -8.2141,3.646919 l -2.160557,10.9748899 0.61588,8.979326 a 44.422993,44.422993 0 0 0 -3.460591,0.927378 l -3.95557,-8.084668 -7.359263,-8.4246082 c -3.03088,1.1826895 -6.153781,-0.6582011 -8.936656,0.9487114 -2.817633,1.6265678 -2.782534,5.2579108 -5.28974,7.2653888 l 3.61705,10.585166 5.023756,7.468787 A 44.422993,44.422993 0 0 0 35.081036,37.61426 L 27.612251,32.590501 17.027085,28.973454 c -2.033472,2.539679 -5.658806,2.508095 -7.2653886,5.29116 -1.6268565,2.817464 0.2188453,5.943104 -0.9487113,8.935232 l 8.4246079,7.359266 8.084665,3.955571 a 44.422993,44.422993 0 0 0 -0.927374,3.460588 l -8.979327,-0.61588 -10.9748924,2.160557 c -0.4911978,3.216164 -3.64711165,5.000603 -3.64691899,8.2141 -1.6789e-4,3.253424 3.16199669,5.037637 3.64691899,8.212677 l 10.9748924,2.160557 8.979327,-0.615879 a 44.422993,44.422993 0 0 0 0.927374,3.46059 l -8.084665,3.955568 -8.4246079,7.359266 c 1.1826922,3.030879 -0.6582039,6.153781 0.9487113,8.936653 1.6265676,2.81764 5.2579136,2.78254 7.2653886,5.28974 l 10.585166,-3.61705 7.468785,-5.023754 a 44.422993,44.422993 0 0 0 2.533213,2.533214 l -5.023756,7.46878 -3.61705,10.58517 c 2.539682,2.03347 2.508092,5.65881 5.29116,7.26539 2.817465,1.62686 5.94311,-0.21885 8.935236,0.94871 l 7.359263,-8.42461 3.95557,-8.08466 a 44.422993,44.422993 0 0 0 3.460591,0.92737 l -0.61588,8.97933 2.160557,10.97489 c 3.216165,0.4912 5.000603,3.64711 8.2141,3.64692 3.253424,1.6e-4 5.037637,-3.162 8.212678,-3.64692 l 2.160557,-10.97489 -0.61588,-8.97933 a 44.422993,44.422993 0 0 0 3.460596,-0.92737 l 3.955565,8.08466 7.359269,8.42461 c 2.992133,-1.16755 6.117759,0.67815 8.935225,-0.94871 2.78306,-1.60658 2.75146,-5.23193 5.29115,-7.26539 l -3.61704,-10.58517 -5.023757,-7.46878 a 44.422993,44.422993 0 0 0 2.533217,-2.533214 l 7.46879,5.023754 10.58517,3.61705 c 2.00748,-2.50719 5.63881,-2.4721 7.26538,-5.28974 1.60692,-2.78287 -0.23395,-5.905779 0.94871,-8.936653 l -8.4246,-7.359266 -8.08467,-3.955568 a 44.422993,44.422993 0 0 0 0.92738,-3.46059 l 8.97932,0.615879 10.9749,-2.160557 c 0.48495,-3.175037 3.64708,-4.959253 3.64691,-8.212677 2.2e-4,-3.2135 -3.15574,-4.99793 -3.64691,-8.2141 l -10.9749,-2.160557 -8.97932,0.61588 a 44.422993,44.422993 0 0 0 -0.92738,-3.460588 l 8.08467,-3.955571 8.4246,-7.359266 c -1.16755,-2.992131 0.67814,-6.117768 -0.94871,-8.935232 -1.60659,-2.783071 -5.23192,-2.751465 -7.26538,-5.29116 l -10.58517,3.617047 -7.46879,5.023759 a 44.422993,44.422993 0 0 0 -2.533217,-2.533214 l 5.023757,-7.468787 3.61704,-10.585166 c -2.50721,-2.007481 -2.47209,-5.638819 -5.28972,-7.2653888 -2.782866,-1.606918 -5.905768,0.2340111 -8.936655,-0.9487114 l -7.359269,8.4246082 -3.955565,8.084668 A 44.422993,44.422993 0 0 0 77.491395,24.394891 L 78.107275,15.415565 75.946718,4.4406751 C 72.771677,3.9557473 70.987464,0.79359096 67.73404,0.7937561 Z M 64.974671,53.315635 h 5.518736 v 4.602743 a 10.195441,10.195441 0 0 1 7.436072,9.814247 10.195441,10.195441 0 0 1 -0.315764,2.517569 l 3.985454,2.301371 -2.760792,4.779113 -3.984028,-2.299949 a 10.195441,10.195441 0 0 1 -7.120309,2.897338 10.195441,10.195441 0 0 1 -7.120311,-2.897338 l -3.985437,2.299949 -2.759369,-4.779113 3.98544,-2.301371 a 10.195441,10.195441 0 0 1 -0.315764,-2.517569 10.195441,10.195441 0 0 1 7.436072,-9.814247 z"
     id="path25" />
  <path
     sodipodi:type="star"
     style="display:inline;opacity:1;fill:#00ff00;stroke:url(#linearGradient44);stroke-width:0.11697388;stroke-linecap:round;stroke-linejoin:round;stroke-miterlimit:12;stroke-dasharray:none;stroke-opacity:1;paint-order:markers stroke fill"
     id="path41"
     inkscape:flatsided="true"
     sodipodi:sides="3"
     sodipodi:cx="-13.684199"
     sodipodi:cy="27.958235"
     sodipodi:r1="11.119624"
     sodipodi:r2="5.5598121"
     sodipodi:arg1="-1.5707963"
     sodipodi:arg2="-0.52359878"
     inkscape:rounded="0"
     inkscape:randomized="0"
     d="m -13.684199,16.838611 9.6298765,16.679436 -19.2597535,0 z"
     inkscape:transform-center-y="-1.2575748"
     transform="matrix(0.4523802,0,0,0.4523802,73.92392,35.941665)" />
  <path
     style="baseline-shift:baseline;display:inline;overflow:visible;opacity:0.48;vector-effect:none;fill:url(#linearGradient29);stroke-width:0.363317;stroke-linecap:round;stroke-linejoin:round;stroke-miterlimit:12;paint-order:markers stroke fill;enable-background:accumulate;stop-color:#000000"
     d="m 67.733707,32.25288 c -19.543064,0 -35.480477,15.937413 -35.480477,35.480477 0,19.543065 15.937413,35.480473 35.480477,35.480473 19.543054,0 35.480473,-15.937408 35.480473,-35.480473 0,-19.543064 -15.937419,-35.480477 -35.480473,-35.480477 z m 0,8.741099 c 14.820195,0 26.739379,11.919191 26.739379,26.739378 0,14.820184 -11.919184,26.739376 -26.739379,26.739376 -14.820187,0 -26.739378,-11.919192 -26.739378,-26.739376 0,-14.820187 11.919191,-26.739378 26.739378,-26.739378 z"
     id="path13" />
  <path
     id="path14"
     style="baseline-shift:baseline;display:inline;overflow:visible;opacity:0.6;vector-effect:none;fill:url(#linearGradient17);stroke-width:1;stroke-linecap:round;stroke-linejoin:round;stroke-miterlimit:12;paint-order:markers stroke fill;enable-background:accumulate;stop-color:#000000"
     d="m 32.261306,68.459731 c -0.0055,0.242186 -0.0083,0.484931 -0.0083,0.728245 0,19.543068 15.937587,35.480614 35.480657,35.480614 19.543083,0 35.480667,-15.937546 35.480667,-35.480614 0,-0.243314 -0.003,-0.48607 -0.008,-0.728245 -0.39002,19.209199 -16.172345,34.752369 -35.472112,34.752369 -19.299756,0 -35.083509,-15.54317 -35.473527,-34.752369 z"
     sodipodi:nodetypes="cssscscc" />
  <path
     id="path15"
     style="baseline-shift:baseline;display:inline;overflow:visible;opacity:0.4;mix-blend-mode:normal;vector-effect:none;fill:url(#linearGradient19);stroke-width:1;stroke-linecap:round;stroke-linejoin:round;stroke-miterlimit:12;paint-order:markers stroke fill;filter:url(#filter34);enable-background:accumulate;stop-color:#000000"
     d="m 103.20612,68.46177 c 0.005,-0.242186 0.008,-0.484931 0.008,-0.728245 0,-19.543067 -15.937582,-35.480645 -35.480652,-35.480645 -19.543083,0 -35.48067,15.937578 -35.48067,35.480645 0,0.243314 0.0028,0.48607 0.0083,0.728245 0.390018,-19.209198 16.17234,-34.7524 35.472107,-34.7524 19.299758,0 35.083505,15.543202 35.473525,34.7524 z"
     sodipodi:nodetypes="cssscscc"
     clip-path="url(#clipPath33)" />
  <path
     id="path20"
     style="display:inline;opacity:0.4;fill:#ffffff;fill-opacity:1;stroke:none;stroke-width:3.175;stroke-linecap:round;stroke-linejoin:round;stroke-miterlimit:12;stroke-opacity:1;paint-order:markers stroke fill"
     d="m 67.733707,40.993979 c -14.820187,0 -26.740276,11.918663 -26.740276,26.73885 0,0.0766 7.88e-4,0.152539 0.0014,0.229002 0.122346,-14.713495 11.995275,-26.509852 26.738853,-26.509852 14.743595,0 26.616511,11.796357 26.738856,26.509852 6.33e-4,-0.07646 0,-0.152375 0,-0.229002 0,-14.820187 -11.918661,-26.73885 -26.738856,-26.73885 z M 57.541112,67.960408 c -0.0017,0.07668 -0.0028,0.153392 -0.0028,0.230433 1.1e-4,0.709996 0.07489,1.418357 0.221873,2.112197 l 0.09389,-0.05406 c -0.1907,-0.748429 -0.295449,-1.516903 -0.312875,-2.288565 z m 20.386611,0 c -0.01734,0.771664 -0.123611,1.540133 -0.314338,2.288566 l 0.09529,0.05406 c 0.14698,-0.693839 0.220359,-1.402206 0.220469,-2.112197 -5e-6,-0.07704 3.03e-4,-0.153723 -0.0014,-0.230433 z m -24.0588,4.591157 -0.144419,-0.25027 -0.05329,0.365487 2.956742,5.122103 3.985437,-2.299949 c 1.904483,1.857829 4.459751,2.897596 7.120311,2.897338 2.66056,2.58e-4 5.215826,-1.039509 7.120309,-2.897338 l 3.984003,2.299949 2.958774,-5.122103 -0.05293,-0.365331 -0.14469,0.250114 -2.761068,4.779316 -3.984003,-2.299948 c -1.904482,1.857829 -4.459748,2.897596 -7.120308,2.897337 -2.66056,2.59e-4 -5.215829,-1.039508 -7.120311,-2.897337 l -3.98552,2.299948 z"
     sodipodi:nodetypes="cscscsscsccccsccssscccccccccccccccccc" />
  <path
     id="path21"
     style="display:inline;opacity:0.2;mix-blend-mode:normal;fill:url(#linearGradient31);fill-opacity:1;stroke:none;stroke-width:3.175;stroke-linecap:round;stroke-linejoin:round;stroke-miterlimit:12;paint-order:markers stroke fill;filter:url(#filter32)"
     d="m 64.974476,53.317497 v 0.974311 h 5.518735 v -0.974311 z m 0,4.60274 c -4.397343,1.236268 -7.435767,5.24643 -7.436073,9.81425 2.5e-5,0.162035 0.0036,0.323374 0.01129,0.485024 0.208029,-4.362987 3.184828,-8.132965 7.424694,-9.32496 z m 5.518735,0 v 0.974314 c 4.239861,1.191993 7.215237,4.961981 7.423271,9.32496 0.0077,-0.16165 0.01266,-0.323003 0.01294,-0.485024 -3.06e-4,-4.56782 -3.03873,-8.577982 -7.436073,-9.81425 z M 40.997838,68.220931 c -0.0028,0.16198 -0.0044,0.325169 -0.0044,0.487867 0,14.820184 11.920086,26.738853 26.740273,26.738853 14.820195,0 26.738856,-11.918669 26.738856,-26.738853 0,-0.162696 -0.0014,-0.325876 -0.0055,-0.487867 -0.257627,14.593401 -12.07709,26.252406 -26.734589,26.252406 -14.657486,0 -26.478229,-11.659005 -26.736004,-26.252406 z m 16.674267,2.134957 -4.225622,2.439504 0.42244,0.731091 3.985244,-2.301536 c -0.07319,-0.287199 -0.134236,-0.577099 -0.182073,-0.869059 z m 20.122054,0 c -0.04784,0.29196 -0.107455,0.581857 -0.180642,0.869059 l 3.985267,2.302205 0.422414,-0.731091 z"
     sodipodi:nodetypes="ccccccscccccccsccssscsccccccscccccc"
     clip-path="url(#clipPath32)" />
  <g
     id="g23"
     transform="translate(-106.77175,27.639152)"
     style="display:none"
     sodipodi:insensitive="true">
    <path
       style="baseline-shift:baseline;display:inline;overflow:visible;opacity:0.413934;vector-effect:none;fill:#ff0000;stroke-linecap:round;stroke-linejoin:round;stroke-miterlimit:12;paint-order:markers stroke fill;enable-background:accumulate;stop-color:#000000;stop-opacity:1"
       d="m 58.702338,9.827548 c -7.10031,0 -12.89062,5.790317 -12.89062,12.890625 0,7.100309 5.79031,12.890625 12.89062,12.890625 7.100311,0 12.89063,-5.790316 12.89063,-12.890625 0,-7.100308 -5.790319,-12.890625 -12.89063,-12.890625 z m 0,3.175782 c 5.384411,0 9.714841,4.330433 9.714841,9.714843 0,5.384411 -4.33043,9.716797 -9.714841,9.716797 -5.38441,0 -9.71484,-4.332386 -9.71484,-9.716797 0,-5.38441 4.33043,-9.714843 9.71484,-9.714843 z"
       id="circle13" />
    <path
       id="path23"
       style="display:inline;fill:#c2c2c2;fill-opacity:1;stroke:none;stroke-width:3.175;stroke-linecap:round;stroke-linejoin:round;stroke-miterlimit:12;paint-order:markers stroke fill"
       d="m 58.702601,13.003521 c -5.384411,0 -9.715169,4.330241 -9.715169,9.714652 0,5.38441 4.330758,9.714652 9.715169,9.714652 5.384414,0 9.714652,-4.330242 9.714652,-9.714652 0,-5.384411 -4.330238,-9.714652 -9.714652,-9.714652 z m -1.002523,4.476729 h 2.005045 v 1.672249 c 1.597625,0.449156 2.701533,1.906112 2.701644,3.565674 -4.8e-5,0.308305 -0.03859,0.615399 -0.114721,0.914156 l 1.447973,0.836642 -1.003039,1.736328 -1.447457,-0.835608 c -0.691929,0.674979 -1.620298,1.052743 -2.586922,1.052649 -0.966624,9.4e-5 -1.894993,-0.37767 -2.586922,-1.052649 l -1.447974,0.835608 -1.002523,-1.736328 1.447974,-0.836642 c -0.07614,-0.298757 -0.114674,-0.60585 -0.114722,-0.914156 1.11e-4,-1.659562 1.104019,-3.116518 2.701644,-3.565674 z"
       sodipodi:nodetypes="ssssscccccccccccccccc" />
  </g>
  <path
     id="path35"
     style="baseline-shift:baseline;display:inline;overflow:visible;opacity:0.28;vector-effect:none;fill:#000000;stroke-linecap:round;stroke-linejoin:round;stroke-miterlimit:12;paint-order:markers stroke fill;enable-background:accumulate;stop-color:#000000"
     d="m 64.974579,52.983667 v 0.33383 h 5.51853 v -0.33383 z m 0,4.60282 c -4.397461,1.23622 -7.43597,5.246469 -7.43624,9.814388 0.003,0.05687 0.007,0.113719 0.0109,0.170532 0.0712,-4.50417 3.089939,-8.427735 7.42538,-9.65109 z m 5.51853,0 v 0.33383 c 4.33526,1.2233 7.35393,5.146596 7.42538,9.650574 0.004,-0.05664 0.008,-0.113315 0.0109,-0.170016 -2.7e-4,-4.567919 -3.03878,-8.578168 -7.43624,-9.814388 z m -12.7093,12.372371 -4.059576,2.342593 0.14469,0.250114 3.985165,-2.299701 c -0.0249,-0.09732 -0.0483,-0.194996 -0.0703,-0.293006 z m 19.90007,0 c -0.022,0.09801 -0.0454,0.195689 -0.0703,0.293006 l 3.98559,2.299701 0.14469,-0.250114 z"
     sodipodi:nodetypes="ccccccccccccccccccccccccccc" />
  <path
     sodipodi:type="star"
     style="display:inline;opacity:0.28;fill:#000000;fill-opacity:1;stroke:none;stroke-width:3.50922;stroke-linecap:round;stroke-linejoin:round;stroke-miterlimit:12;stroke-dasharray:none;stroke-opacity:1;paint-order:markers stroke fill"
     id="path36"
     inkscape:flatsided="true"
     sodipodi:sides="3"
     sodipodi:cx="-13.684199"
     sodipodi:cy="27.958235"
     sodipodi:r1="11.119624"
     sodipodi:r2="5.5598121"
     sodipodi:arg1="-1.5707963"
     sodipodi:arg2="-0.52359878"
     inkscape:rounded="0"
     inkscape:randomized="0"
     d="m -13.684199,16.838611 9.6298765,16.679436 -19.2597535,0 z"
     inkscape:transform-center-y="-1.2575748"
     transform="matrix(0.4523802,0,0,0.4523802,73.92392,35.941665)" />
  <path
     style="baseline-shift:baseline;display:inline;overflow:visible;opacity:0.28;mix-blend-mode:normal;vector-effect:none;fill:url(#linearGradient41);stroke-width:0.45238;stroke-linecap:round;stroke-linejoin:round;stroke-miterlimit:12;paint-order:markers stroke fill;filter:url(#filter41);enable-background:accumulate;stop-color:#000000"
     d="m 81.744133,48.813902 a 0.39691468,0.39691468 0 0 0 -0.343703,0.1988 l -4.35681,7.54556 a 0.39691468,0.39691468 0 0 0 0.343703,0.594633 h 8.712737 a 0.39691468,0.39691468 0 0 0 0.343703,-0.594633 l -4.355927,-7.54556 a 0.39691468,0.39691468 0 0 0 -0.343703,-0.1988 z m 0,1.191032 3.668521,6.354528 h -7.337925 z"
     id="path38"
     clip-path="url(#clipPath39)"
     transform="translate(-14.0104,-5.6518249)" />
</g>
<metadata
   id="metadata1">
  <rdf:RDF>
    <cc:Work
       rdf:about="">
      <dc:creator>
        <cc:Agent>
          <dc:title>Jess Tipton</dc:title>
        </cc:Agent>
      </dc:creator>
      <dc:publisher>
        <cc:Agent>
          <dc:title>m0dw3rks.com</dc:title>
        </cc:Agent>
      </dc:publisher>
      <cc:license
         rdf:resource="https://creativecommons.org/licenses/by-nc-nd/4.0/deed.en" />
    </cc:Work>
  </rdf:RDF>
</metadata>
<metadata
   id="metadata6">
  <rdf:RDF>
    <cc:Work
       rdf:about="">
      <dc:creator>
        <cc:Agent>
          <dc:title>Jess Tipton</dc:title>
        </cc:Agent>
      </dc:creator>
      <cc:license
         rdf:resource="https://creativecommons.org/licenses/by-nc-nd/4.0/deed.en" />
      <dc:publisher>
        <cc:Agent>
          <dc:title>m0dw3rks.com</dc:title>
        </cc:Agent>
      </dc:publisher>
    </cc:Work>
  </rdf:RDF>
</metadata>
<metadata
   id="metadata2">
  <rdf:RDF>
    <cc:Work
       rdf:about="">
      <dc:creator>
        <cc:Agent>
          <dc:title>Jess Tipton</dc:title>
        </cc:Agent>
      </dc:creator>
      <cc:license
         rdf:resource="https://creativecommons.org/licenses/by-nc-nd/4.0/deed.en" />
      <dc:publisher>
        <cc:Agent>
          <dc:title>m0dw3rks.com</dc:title>
        </cc:Agent>
      </dc:publisher>
    </cc:Work>
  </rdf:RDF>
</metadata>
<metadata
   id="metadata3">
  <rdf:RDF>
    <cc:Work
       rdf:about="">
      <dc:creator>
        <cc:Agent>
          <dc:title>Jess Tipton</dc:title>
        </cc:Agent>
      </dc:creator>
      <cc:license
         rdf:resource="https://creativecommons.org/licenses/by-nc-nd/4.0/deed.en" />
      <dc:publisher>
        <cc:Agent>
          <dc:title>m0dw3rks.com</dc:title>
        </cc:Agent>
      </dc:publisher>
    </cc:Work>
  </rdf:RDF>
</metadata>
<metadata
   id="metadata4">
  <rdf:RDF>
    <cc:Work
       rdf:about="">
      <dc:creator>
        <cc:Agent>
          <dc:title>Jess Tipton</dc:title>
        </cc:Agent>
      </dc:creator>
      <cc:license
         rdf:resource="https://creativecommons.org/licenses/by-nc-nd/4.0/deed.en" />
      <dc:publisher>
        <cc:Agent>
          <dc:title>m0dw3rks.com</dc:title>
        </cc:Agent>
      </dc:publisher>
    </cc:Work>
  </rdf:RDF>
</metadata>
<metadata
   id="metadata5">
  <rdf:RDF>
    <cc:Work
       rdf:about="">
      <dc:creator>
        <cc:Agent>
          <dc:title>Jess Tipton</dc:title>
        </cc:Agent>
      </dc:creator>
      <cc:license
         rdf:resource="https://creativecommons.org/licenses/by-nc-nd/4.0/deed.en" />
      <dc:publisher>
        <cc:Agent>
          <dc:title>m0dw3rks.com</dc:title>
        </cc:Agent>
      </dc:publisher>
    </cc:Work>
  </rdf:RDF>
</metadata>
<metadata
   id="metadata7">
  <rdf:RDF>
    <cc:Work
       rdf:about="">
      <dc:creator>
        <cc:Agent>
          <dc:title>Jess Tipton</dc:title>
        </cc:Agent>
      </dc:creator>
      <cc:license
         rdf:resource="https://creativecommons.org/licenses/by-nc-nd/4.0/deed.en" />
      <dc:publisher>
        <cc:Agent>
          <dc:title>m0dw3rks.com</dc:title>
        </cc:Agent>
      </dc:publisher>
    </cc:Work>
  </rdf:RDF>
</metadata>
<metadata
   id="metadata8">
  <rdf:RDF>
    <cc:Work
       rdf:about="">
      <dc:creator>
        <cc:Agent>
          <dc:title>Jess Tipton</dc:title>
        </cc:Agent>
      </dc:creator>
      <cc:license
         rdf:resource="https://creativecommons.org/licenses/by-nc-nd/4.0/deed.en" />
      <dc:publisher>
        <cc:Agent>
          <dc:title>m0dw3rks.com</dc:title>
        </cc:Agent>
      </dc:publisher>
    </cc:Work>
  </rdf:RDF>
</metadata>
<metadata
   id="metadata9">
  <rdf:RDF>
    <cc:Work
       rdf:about="">
      <dc:creator>
        <cc:Agent>
          <dc:title>Jess Tipton</dc:title>
        </cc:Agent>
      </dc:creator>
      <cc:license
         rdf:resource="https://creativecommons.org/licenses/by-nc-nd/4.0/deed.en" />
      <dc:publisher>
        <cc:Agent>
          <dc:title>m0dw3rks.com</dc:title>
        </cc:Agent>
      </dc:publisher>
    </cc:Work>
  </rdf:RDF>
</metadata>
<metadata
   id="metadata10">
  <rdf:RDF>
    <cc:Work
       rdf:about="">
      <dc:creator>
        <cc:Agent>
          <dc:title>Jess Tipton</dc:title>
        </cc:Agent>
      </dc:creator>
      <cc:license
         rdf:resource="https://creativecommons.org/licenses/by-nc-nd/4.0/deed.en" />
      <dc:publisher>
        <cc:Agent>
          <dc:title>m0dw3rks.com</dc:title>
        </cc:Agent>
      </dc:publisher>
    </cc:Work>
  </rdf:RDF>
</metadata>
<metadata
   id="metadata11">
  <rdf:RDF>
    <cc:Work
       rdf:about="">
      <dc:creator>
        <cc:Agent>
          <dc:title>Jess Tipton</dc:title>
        </cc:Agent>
      </dc:creator>
      <cc:license
         rdf:resource="https://creativecommons.org/licenses/by-nc-nd/4.0/deed.en" />
      <dc:publisher>
        <cc:Agent>
          <dc:title>m0dw3rks.com</dc:title>
        </cc:Agent>
      </dc:publisher>
    </cc:Work>
  </rdf:RDF>
</metadata>
<metadata
   id="metadata12">
  <rdf:RDF>
    <cc:Work
       rdf:about="">
      <dc:creator>
        <cc:Agent>
          <dc:title>Jess Tipton</dc:title>
        </cc:Agent>
      </dc:creator>
      <cc:license
         rdf:resource="https://creativecommons.org/licenses/by-nc-nd/4.0/deed.en" />
      <dc:publisher>
        <cc:Agent>
          <dc:title>m0dw3rks.com</dc:title>
        </cc:Agent>
      </dc:publisher>
    </cc:Work>
  </rdf:RDF>
</metadata>
<metadata
   id="metadata13">
  <rdf:RDF>
    <cc:Work
       rdf:about="">
      <dc:creator>
        <cc:Agent>
          <dc:title>Jess Tipton</dc:title>
        </cc:Agent>
      </dc:creator>
      <cc:license
         rdf:resource="https://creativecommons.org/licenses/by-nc-nd/4.0/deed.en" />
      <dc:publisher>
        <cc:Agent>
          <dc:title>m0dw3rks.com</dc:title>
        </cc:Agent>
      </dc:publisher>
    </cc:Work>
  </rdf:RDF>
</metadata>
<metadata
   id="metadata14">
  <rdf:RDF>
    <cc:Work
       rdf:about="">
      <dc:creator>
        <cc:Agent>
          <dc:title>Jess Tipton</dc:title>
        </cc:Agent>
      </dc:creator>
      <cc:license
         rdf:resource="https://creativecommons.org/licenses/by-nc-nd/4.0/deed.en" />
      <dc:publisher>
        <cc:Agent>
          <dc:title>m0dw3rks.com</dc:title>
        </cc:Agent>
      </dc:publisher>
    </cc:Work>
  </rdf:RDF>
</metadata>
<metadata
   id="metadata15">
  <rdf:RDF>
    <cc:Work
       rdf:about="">
      <dc:creator>
        <cc:Agent>
          <dc:title>Jess Tipton</dc:title>
        </cc:Agent>
      </dc:creator>
      <cc:license
         rdf:resource="https://creativecommons.org/licenses/by-nc-nd/4.0/deed.en" />
      <dc:publisher>
        <cc:Agent>
          <dc:title>m0dw3rks.com</dc:title>
        </cc:Agent>
      </dc:publisher>
    </cc:Work>
  </rdf:RDF>
</metadata>
<metadata
   id="metadata16">
  <rdf:RDF>
    <cc:Work
       rdf:about="">
      <dc:creator>
        <cc:Agent>
          <dc:title>Jess Tipton</dc:title>
        </cc:Agent>
      </dc:creator>
      <cc:license
         rdf:resource="https://creativecommons.org/licenses/by-nc-nd/4.0/deed.en" />
      <dc:publisher>
        <cc:Agent>
          <dc:title>m0dw3rks.com</dc:title>
        </cc:Agent>
      </dc:publisher>
    </cc:Work>
  </rdf:RDF>
</metadata>
<metadata
   id="metadata17">
  <rdf:RDF>
    <cc:Work
       rdf:about="">
      <dc:creator>
        <cc:Agent>
          <dc:title>Jess Tipton</dc:title>
        </cc:Agent>
      </dc:creator>
      <cc:license
         rdf:resource="https://creativecommons.org/licenses/by-nc-nd/4.0/deed.en" />
      <dc:publisher>
        <cc:Agent>
          <dc:title>m0dw3rks.com</dc:title>
        </cc:Agent>
      </dc:publisher>
    </cc:Work>
  </rdf:RDF>
</metadata>
<metadata
   id="metadata18">
  <rdf:RDF>
    <cc:Work
       rdf:about="">
      <dc:creator>
        <cc:Agent>
          <dc:title>Jess Tipton</dc:title>
        </cc:Agent>
      </dc:creator>
      <cc:license
         rdf:resource="https://creativecommons.org/licenses/by-nc-nd/4.0/deed.en" />
      <dc:publisher>
        <cc:Agent>
          <dc:title>m0dw3rks.com</dc:title>
        </cc:Agent>
      </dc:publisher>
    </cc:Work>
  </rdf:RDF>
</metadata>
</svg>
