<?xml version="1.0" encoding="UTF-8" standalone="no"?>
<!-- Created with Inkscape (http://www.inkscape.org/) -->

<svg
   width="512"
   height="512"
   viewBox="0 0 135.46666 135.46667"
   version="1.1"
   id="svg5"
   inkscape:version="1.4.1 (93de688d07, 2025-03-30)"
   sodipodi:docname="stock_text_bold.svg"
   xmlns:inkscape="http://www.inkscape.org/namespaces/inkscape"
   xmlns:sodipodi="http://sodipodi.sourceforge.net/DTD/sodipodi-0.dtd"
   xmlns:xlink="http://www.w3.org/1999/xlink"
   xmlns="http://www.w3.org/2000/svg"
   xmlns:svg="http://www.w3.org/2000/svg">
  <sodipodi:namedview
     id="namedview7"
     pagecolor="#292929"
     bordercolor="#666666"
     borderopacity="1"
     inkscape:showpageshadow="0"
     inkscape:pageopacity="0"
     inkscape:pagecheckerboard="1"
     inkscape:deskcolor="#1a1a1a"
     inkscape:document-units="px"
     showgrid="false"
     inkscape:zoom="2.6074562"
     inkscape:cx="320.81076"
     inkscape:cy="288.59545"
     inkscape:window-width="3256"
     inkscape:window-height="1080"
     inkscape:window-x="1864"
     inkscape:window-y="0"
     inkscape:window-maximized="0"
     inkscape:current-layer="layer1" />
  <defs
     id="defs2">
    <linearGradient
       id="linearGradient3"
       inkscape:collect="always">
      <stop
         style="stop-color:#a3a29d;stop-opacity:1;"
         offset="0"
         id="stop4" />
      <stop
         style="stop-color:#a3a29d;stop-opacity:0;"
         offset="1"
         id="stop5" />
    </linearGradient>
    <linearGradient
       id="linearGradient2"
       inkscape:collect="always">
      <stop
         style="stop-color:#000000;stop-opacity:1;"
         offset="0"
         id="stop3" />
      <stop
         style="stop-color:#ffffff;stop-opacity:1;"
         offset="0.2"
         id="stop7" />
      <stop
         style="stop-color:#000000;stop-opacity:1;"
         offset="0.40365851"
         id="stop8" />
      <stop
         style="stop-color:#ffffff;stop-opacity:1;"
         offset="0.60454738"
         id="stop9" />
      <stop
         style="stop-color:#000000;stop-opacity:1;"
         offset="0.79727012"
         id="stop10" />
      <stop
         style="stop-color:#ffffff;stop-opacity:1;"
         offset="1"
         id="stop6" />
    </linearGradient>
    <radialGradient
       inkscape:collect="always"
       xlink:href="#linearGradient3"
       id="radialGradient5"
       cx="-48.167593"
       cy="69.900219"
       fx="-48.167593"
       fy="69.900219"
       r="58.181169"
       gradientTransform="matrix(1,0,0,0.73426648,0,18.574832)"
       gradientUnits="userSpaceOnUse" />
    <filter
       inkscape:collect="always"
       style="color-interpolation-filters:sRGB"
       id="filter5"
       x="-0.059936253"
       y="-0.081627386"
       width="1.1198725"
       height="1.1632548">
      <feGaussianBlur
         inkscape:collect="always"
         stdDeviation="2.9059676"
         id="feGaussianBlur5" />
    </filter>
    <linearGradient
       inkscape:collect="always"
       xlink:href="#linearGradient2"
       id="linearGradient12"
       x1="-115.90609"
       y1="73.075233"
       x2="19.570906"
       y2="73.075233"
       gradientUnits="userSpaceOnUse" />
    <linearGradient
       inkscape:collect="always"
       xlink:href="#linearGradient2"
       id="linearGradient24"
       x1="40.131302"
       y1="2.1861465"
       x2="70.11113"
       y2="133.24254"
       gradientUnits="userSpaceOnUse"
       gradientTransform="matrix(1.0166734,0,0,1.0166734,-1.1293452,-1.1402343)" />
    <clipPath
       clipPathUnits="userSpaceOnUse"
       id="clipPath28">
      <path
         style="baseline-shift:baseline;display:inline;overflow:visible;vector-effect:none;fill:#ffff00;stroke-width:0.999998;stroke-linecap:round;stroke-linejoin:round;stroke-miterlimit:12;paint-order:markers stroke fill;enable-background:accumulate;stop-color:#000000"
         d="m 198.24246,-4.6798153 c -7.89643,0.00135 -15.79286,-0.00316 -23.68929,-0.00596 0,41.9212313 0,83.8424623 0,125.7636953 13.40519,-0.0182 26.81285,0.0751 40.21627,-0.1183 4.68038,-0.34143 9.24982,-1.62914 13.47914,-3.72717 2.46867,-1.22126 4.82589,-2.71812 6.9992,-4.46861 4.47689,-3.63411 8.21166,-8.44657 10.58448,-13.778019 2.12527,-4.71801 3.24368,-9.908492 3.26023,-15.027301 0.004,-2.865959 -0.31867,-5.551104 -0.94788,-8.374753 -1.74259,-7.731453 -6.17611,-14.733754 -12.10851,-19.942286 -1.46549,-1.302128 -1.53368,-3.591589 -0.56283,-5.201843 0.72721,-1.199563 1.71572,-2.220706 2.38572,-3.463949 3.76578,-6.166257 5.47136,-13.488111 4.83116,-20.698597 -0.50675,-5.544559 -2.49979,-11.178675 -5.70092,-15.863674 -2.97857,-4.4051341 -7.02826,-8.1559002 -11.64012,-10.72471342 -2.88979,-1.63739838 -6.22908,-2.92541438 -9.43371,-3.59969608 -3.77794,-0.8962329 -7.67692,-0.7980825 -11.5308,-0.7793971 -2.04738,0.00353 -4.09476,0.00705 -6.14214,0.010575 z m 8.23068,9.6405252 c 4.55074,-0.07932 9.25626,0.434753 13.3228,2.6244118 7.7913,3.9050603 13.1939,12.2490043 13.33112,20.9944183 0.23081,7.024706 -2.54802,14.282425 -7.96199,18.87548 -2.59957,1.783824 -5.87968,1.782234 -8.89752,2.090222 -9.41928,0.588166 -18.87138,0.499602 -28.29698,0.125206 -1.51186,-0.04803 -2.80225,-1.154366 -3.37469,-2.502167 -0.45416,-1.653048 -0.17345,-3.402481 -0.25485,-5.095814 0.0235,-11.409794 -0.0632,-22.822435 0.10218,-34.2302951 0.0571,-1.5109611 1.46874,-2.5372401 2.87994,-2.6789211 2.60774,-0.2621801 5.23891,-0.0567 7.85615,-0.1332349 3.76464,-0.022979 7.52911,-0.06353 11.29384,-0.06931 z m 5.31768,53.7983051 c 4.69902,0.16043 9.5606,-0.173458 14.06177,1.434423 3.57988,1.802035 6.40428,4.801423 8.7425,7.998931 5.81514,8.480827 6.4772,20.299637 1.2859,29.234719 -4.39534,7.869162 -12.87482,13.357302 -21.90822,13.861662 -4.59501,0.32845 -9.20419,0.0142 -13.80538,0.12555 -4.44765,-0.0215 -8.90174,0.0729 -13.34464,-0.13775 -1.67001,-0.21359 -2.43037,-2.00183 -2.51246,-3.49855 -0.16601,-3.36731 -0.0333,-6.74454 -0.0779,-10.115742 0.0124,-11.932216 -0.054,-23.867009 0.0949,-35.797479 0.0473,-1.528125 1.47713,-2.576272 2.9058,-2.709733 2.46165,-0.258217 4.94866,-0.10001 7.42062,-0.180491 5.71232,-0.07233 11.42421,-0.19922 17.13713,-0.21554 z"
         id="path28" />
    </clipPath>
    <filter
       inkscape:collect="always"
       style="color-interpolation-filters:sRGB"
       id="filter28"
       x="-0.027085578"
       y="-0.017150837"
       width="1.0541712"
       height="1.0343017">
      <feGaussianBlur
         inkscape:collect="always"
         stdDeviation="0.84121992"
         id="feGaussianBlur28" />
    </filter>
  </defs>
  <g
     inkscape:label="Layer 1"
     inkscape:groupmode="layer"
     id="layer1">
    <g
       id="g12"
       transform="translate(115.90093,-5.3418975)"
       style="display:none"
       sodipodi:insensitive="true">
      <path
         id="path1"
         style="fill:#c2c2c2;fill-opacity:1;stroke:url(#linearGradient12);stroke-width:1.79705;stroke-linecap:round;stroke-linejoin:round;stroke-dasharray:none;stroke-dashoffset:83.2;stroke-opacity:1;paint-order:markers stroke fill"
         d="m -48.167598,18.27258 a 66.680244,41.210663 0 0 0 -66.680162,41.210921 66.680244,41.210663 0 0 0 66.680162,41.210409 66.680244,41.210663 0 0 0 0.06976,-0.003 c 4.283311,14.63905 25.170912,27.18712 40.160334,27.18697 2.6826,-0.0131 5.35166,-0.38147 7.9375,-1.09554 -13.22858,-3.58092 -22.421198,-15.57622 -22.439452,-29.280899 4e-6,-0.0029 -5e-6,-0.0058 0,-0.0088 A 66.680244,41.210663 0 0 0 18.51257,59.483501 66.680244,41.210663 0 0 0 -48.167598,18.27258 Z" />
      <path
         id="path2"
         style="fill:url(#radialGradient5);stroke-width:2.11667;stroke-linecap:round;stroke-linejoin:round;stroke-dashoffset:83.2;paint-order:markers stroke fill;filter:url(#filter5)"
         d="m -49.911404,27.184273 c -13.44324,0.351423 -27.11857,3.053198 -38.97417,9.668213 -5.87325,3.296711 -11.355036,7.707459 -14.789506,13.5896 -1.20788,2.138595 -2.07643,4.454353 -2.45268,6.806987 -0.92277,5.28426 1.13843,10.833558 4.42694,15.058472 3.737946,4.832361 8.769866,8.487229 14.112686,11.330637 11.4844,6.026197 24.55025,8.57334 37.40046,8.967568 2.56013,0.02051 5.40094,0.187939 7.38174,2.025789 1.82051,1.500012 2.72391,3.743063 3.55621,5.878531 2.34711,5.04657 6.51395,8.8616 11.02937,11.98207 0.60479,0.5018 -0.13777,-0.60881 -0.14582,-0.87723 -1.90017,-4.95004 -2.86381,-10.35511 -2.2191,-15.645066 0.85854,-3.598104 4.22752,-6.148623 7.77161,-6.755699 8.65316,-2.535444 17.2494598,-6.334481 24.0497198,-12.461316 3.63202,-3.301596 6.72731,-7.361348 8.0997,-12.150341 1.4290002,-4.670305 0.50409,-9.815853 -1.88856,-14.005189 C 4.4532858,45.3149 -0.29538422,41.25324 -5.3860142,38.06318 -13.933134,32.833309 -23.622674,29.790426 -33.540224,28.284761 c -5.41447,-0.818683 -10.87014,-1.148427 -16.37118,-1.100488 z" />
    </g>
    <path
       id="path14"
       style="font-style:normal;font-variant:normal;font-weight:normal;font-stretch:normal;font-size:152.65px;line-height:1.25;font-family:'Arabic Typesetting';-inkscape-font-specification:'Arabic Typesetting, Normal';font-variant-ligatures:normal;font-variant-caps:normal;font-variant-numeric:normal;font-variant-east-asian:normal;display:none;fill:#000000;fill-opacity:1;stroke:none;stroke-width:0.264582"
       d="m 67.397952,25.54211 c -1.639793,0 -2.956849,0.521775 -3.950663,1.565279 -0.993814,0.993814 -1.490348,2.310354 -1.490348,3.950147 0,1.639793 0.496534,2.981572 1.490348,4.025077 0.993814,0.993814 2.31087,1.490865 3.950663,1.490865 1.739175,0 3.105678,-0.497051 4.099492,-1.490865 1.043505,-1.043505 1.565279,-2.385284 1.565279,-4.025077 0,-1.639793 -0.521774,-2.956333 -1.565279,-3.950147 C 70.50363,26.063885 69.137127,25.54211 67.397952,25.54211 Z m 4.173906,18.112589 c -0.546598,0.248454 -1.366603,0.521444 -2.459798,0.819588 -1.043505,0.298145 -2.260634,0.621615 -3.651974,0.96945 -1.341649,0.347835 -2.807562,0.695512 -4.397664,1.043347 l -4.621423,0.894519 0.223759,2.161626 c 1.490721,0.248453 2.683126,0.49672 3.577559,0.745174 0.944123,0.248453 1.639995,0.596131 2.087211,1.043347 0.496907,0.447216 0.819861,1.068401 0.968933,1.863452 0.149072,0.795051 0.223759,1.888047 0.223759,3.279386 v 19.603455 c 0,1.888246 -0.09941,3.403606 -0.298173,4.546492 -0.149072,1.093196 -0.497266,1.962647 -1.043864,2.608626 -0.546598,0.64598 -1.316639,1.118307 -2.310453,1.416451 -0.944123,0.248454 -2.235939,0.447274 -3.875732,0.596346 l 0.148828,2.384868 c 1.391339,0 3.006626,-0.02472 4.845182,-0.07441 1.838556,-0.04969 3.726833,-0.07441 5.66477,-0.07441 2.385154,0 4.695795,0.02472 6.931877,0.07441 2.236082,0.04969 4.149082,0.07441 5.739184,0.07441 l 0.148828,-2.757971 C 77.634111,84.773473 76.193439,84.64934 75.149934,84.500268 74.106429,84.351195 73.311148,84.078205 72.76455,83.680679 72.267643,83.283154 71.944689,82.736656 71.795617,82.040986 71.646545,81.295626 71.571858,80.326247 71.571858,79.13367 V 59.381904 56.251346 c 0.04969,-1.242267 0.09965,-2.5346 0.149345,-3.876249 0.04969,-1.39134 0.123861,-2.782566 0.223242,-4.173905 0.09938,-1.39134 0.224032,-2.707879 0.373104,-3.950147 z"
       sodipodi:nodetypes="scscssscsccccccccssscscccsssccsccscccscc"
       sodipodi:insensitive="true" />
    <path
       id="rect16"
       style="display:none;opacity:1;fill:#00ff00;stroke-width:16.9333;stroke-linecap:round;stroke-linejoin:round;stroke-miterlimit:12;paint-order:markers stroke fill"
       d="M 12.927639,54.193329 H 64.318382 L 65.958115,73.229818 12.927639,72.349411 Z"
       sodipodi:nodetypes="ccccc"
       sodipodi:insensitive="true" />
    <path
       id="path18"
       style="baseline-shift:baseline;display:none;overflow:visible;vector-effect:none;fill:#00ffff;stroke-linecap:round;stroke-linejoin:round;stroke-miterlimit:12;paint-order:markers stroke fill;enable-background:accumulate;stop-color:#000000"
       d="m 37.909919,55.730569 c -5.426879,2.262151 -10.24319,5.675449 -14.159512,9.915006 4.098309,4.132269 9.141262,7.309011 14.73909,9.183197 3.680548,-2.998927 8.323996,-4.90259 13.477743,-5.202591 5.153684,-0.299997 9.986886,1.052091 13.990875,3.603637 5.342638,-2.511024 9.983154,-6.251558 13.574557,-10.83134 -4.381954,-3.756449 -9.561545,-6.587923 -15.21429,-8.205151 -3.362324,3.211518 -7.85847,5.281322 -12.924897,5.57624 -5.066511,0.294923 -9.77173,-1.239178 -13.483566,-4.038998 z"
       sodipodi:insensitive="true" />
    <g
       id="g21"
       style="display:none"
       sodipodi:insensitive="true">
      <rect
         style="fill:#ffffff;stroke:none;stroke-width:16.9333;stroke-linecap:round;stroke-linejoin:round;stroke-miterlimit:12;paint-order:markers stroke fill"
         id="rect18"
         width="16.933332"
         height="133.84312"
         x="12.927639"
         y="0.8117761" />
      <path
         id="path19"
         style="baseline-shift:baseline;display:inline;overflow:visible;vector-effect:none;fill:#ff0000;stroke-linecap:round;stroke-linejoin:round;stroke-miterlimit:12;paint-order:markers stroke fill;enable-background:accumulate;stop-color:#000000"
         d="m 79.48817,62.449417 c -3.585539,4.555498 -8.208064,8.278928 -13.529923,10.780221 6.095352,3.884282 10.268751,10.548145 10.725443,18.393709 0.756689,12.999263 -8.997848,23.958083 -21.997106,24.714773 -12.99926,0.75669 -23.958081,-8.9963 -24.71477,-21.995559 V 91.531363 70.710412 C 27.723169,69.247111 25.636867,67.547605 23.750488,65.645605 16.563646,73.425636 12.407426,83.98838 13.067419,95.32648 14.355915,117.46171 33.535275,134.53101 55.670503,133.24251 77.805731,131.95402 94.877614,112.77466 93.589118,90.639428 92.929067,79.300341 87.530835,69.34306 79.48817,62.449417 Z" />
      <path
         id="path20"
         style="baseline-shift:baseline;display:inline;overflow:visible;vector-effect:none;fill:#ff00ff;stroke-linecap:round;stroke-linejoin:round;stroke-miterlimit:12;paint-order:markers stroke fill;enable-background:accumulate;stop-color:#000000"
         d="M 51.844897,2.2050333 C 50.59094,2.1498221 49.322647,2.1579971 48.044095,2.2324218 27.587265,3.4232179 11.800142,21.161818 12.990938,41.618648 c 0.54652,9.388725 4.57863,17.794791 10.75955,24.026957 1.877594,-2.032557 3.961864,-3.875229 6.221326,-5.492171 v -18.57096 c -0.03237,-0.313583 -0.05796,-0.629523 -0.07648,-0.947745 -0.658989,-11.320861 7.812339,-20.838406 19.133199,-21.497396 11.32086,-0.658989 20.840474,7.811304 21.499463,19.132165 0.364067,6.254342 -2.058809,11.959009 -6.20944,15.923576 5.632837,1.611554 10.793892,4.431747 15.165999,8.168493 5.416468,-6.90724 8.494869,-15.687309 7.948352,-25.075988 C 86.316534,18.107301 70.654251,3.0332023 51.844897,2.2050333 Z" />
      <path
         id="path21"
         style="baseline-shift:baseline;display:inline;overflow:visible;vector-effect:none;fill:#00ffff;stroke-linecap:round;stroke-linejoin:round;stroke-miterlimit:12;paint-order:markers stroke fill;enable-background:accumulate;stop-color:#000000"
         d="m 25.508907,69.626181 c 5.153684,-0.299997 36.445219,1.052091 40.449208,3.603637 5.342638,-2.511024 9.983154,-6.251558 13.574557,-10.83134 -4.381954,-3.756449 -9.561545,-6.587923 -15.21429,-8.205151 -3.362324,3.211518 -34.316803,5.281322 -39.38323,5.57624 -5.066511,0.294923 -4.579992,10.156615 0.573755,9.856614 z"
         sodipodi:nodetypes="scccss" />
    </g>
    <path
       id="rect4"
       style="fill:#c2c2c2;fill-opacity:1;stroke:url(#linearGradient24);stroke-width:1.79705;stroke-linecap:round;stroke-linejoin:round;stroke-miterlimit:12;stroke-dasharray:none;stroke-opacity:1;paint-order:markers stroke fill"
       d="M 26.695499,1.0873792 V 134.3843 h 9.354925 7.860744 22.985924 1.73218 c 0.505434,-0.0107 1.012819,-0.0308 1.521502,-0.0604 22.504297,-1.30997 39.860826,-20.80912 38.550846,-43.313418 -0.67098,-11.526869 -6.15818,-21.649436 -14.333431,-28.657933 0.01419,-0.01803 0.0284,-0.03606 0.04256,-0.05412 -0.01562,-0.01339 -0.03112,-0.02656 -0.04676,-0.03992 5.505512,-7.02201 8.634331,-15.947423 8.078771,-25.491463 C 101.30777,17.268977 85.384352,1.9435418 66.261382,1.1015644 c -0.686683,-0.030235 -1.382337,-0.017596 -2.07683,-0.00998 v -0.0042 H 43.911168 Z M 55.423832,18.28466 h 8.76072 c 0.288125,0.0081 1.348127,0.0027 1.348127,0.01314 10.549379,0.436195 19.095208,8.679284 19.723311,19.469551 0.370137,6.358624 -2.093137,12.158407 -6.312973,16.189077 C 76.148592,56.625514 44.0236,55.51943 44.0236,55.51943 V 18.316183 c 3.89148,0.120544 7.63632,0.03246 11.400232,-0.03153 z M 43.911168,72.318997 c 10.419171,0.191447 33.289439,-1.181277 36.698881,0.991394 6.196924,3.949056 10.439969,10.724065 10.904273,18.700394 0.769306,13.216005 -9.147873,24.357545 -22.363873,25.126855 -0.174011,0.0102 -0.347903,0.0182 -0.521177,0.0247 v 0.0247 H 43.911168 Z"
       sodipodi:nodetypes="cccccccscccsscccccccsccccccsccccc" />
    <path
       id="path23"
       style="display:inline;opacity:0.68;fill:#000000;stroke:none;stroke-width:16.9333;stroke-linecap:round;stroke-linejoin:round;stroke-miterlimit:12;paint-order:markers stroke fill"
       d="m 54.152271,4.8585359 c -7.896429,0.00135 -15.792856,-0.00316 -23.689284,-0.00596 0,41.9212301 0,83.8424601 0,125.7636941 13.40519,-0.0182 26.81285,0.0751 40.216264,-0.1183 4.680384,-0.34143 9.249823,-1.62914 13.47914,-3.72717 2.468668,-1.22126 4.825888,-2.71812 6.999204,-4.46861 4.476885,-3.63411 8.211656,-8.44657 10.584475,-13.77802 2.12527,-4.71801 3.24368,-9.908492 3.26023,-15.0273 0.004,-2.865959 -0.31867,-5.551103 -0.94788,-8.374753 -1.74259,-7.731452 -6.176107,-14.733754 -12.108507,-19.942286 -1.465487,-1.302128 -1.533677,-3.591588 -0.562833,-5.201844 0.727211,-1.199562 1.715719,-2.220704 2.385721,-3.463948 3.765784,-6.166258 5.471365,-13.488111 4.83116,-20.698596 C 98.09321,30.270883 96.10017,24.636767 92.899044,19.951768 89.920471,15.546634 85.87078,11.795868 81.258928,9.2270548 78.369137,7.5896564 75.029846,6.3016403 71.825212,5.6273588 68.047277,4.7311257 64.148294,4.8292762 60.294411,4.8479617 c -2.04738,0.00353 -4.09476,0.00705 -6.14214,0.010574 z m 8.230686,9.6405251 c 4.55074,-0.07932 9.256252,0.434753 13.322799,2.624412 7.791302,3.90506 13.193893,12.249004 13.331114,20.994418 0.230816,7.024706 -2.548014,14.282425 -7.961989,18.87548 -2.599568,1.783824 -5.879674,1.782234 -8.897516,2.090223 -9.419281,0.588164 -18.87138,0.4996 -28.296986,0.125204 -1.511859,-0.04803 -2.80225,-1.154366 -3.374683,-2.502165 -0.454164,-1.653048 -0.173448,-3.402481 -0.254856,-5.095814 0.02346,-11.409796 -0.06323,-22.822436 0.102183,-34.230296 0.05709,-1.510961 1.46874,-2.53724 2.879938,-2.678921 2.607745,-0.26218 5.238911,-0.0567 7.856157,-0.133235 3.764633,-0.02298 7.52911,-0.06353 11.293839,-0.06931 z m 5.317679,53.798306 c 4.699019,0.160429 9.560596,-0.17346 14.061766,1.434421 3.579883,1.802036 6.404284,4.801424 8.742501,7.998931 5.815138,8.480829 6.477198,20.299639 1.285902,29.234721 -4.395343,7.86916 -12.874825,13.3573 -21.90822,13.86166 -4.595008,0.32845 -9.204191,0.0142 -13.805385,0.12555 -4.447642,-0.0215 -8.901732,0.0729 -13.344634,-0.13775 -1.670012,-0.21359 -2.430376,-2.00183 -2.512466,-3.49855 -0.166007,-3.36731 -0.03328,-6.74454 -0.07789,-10.11574 0.01236,-11.932216 -0.05398,-23.867011 0.09488,-35.79748 0.04729,-1.528126 1.47713,-2.576272 2.905801,-2.709733 2.461655,-0.258218 4.948667,-0.10001 7.420625,-0.180491 5.712321,-0.07233 11.424206,-0.19922 17.137123,-0.215539 z" />
    <path
       id="path25"
       style="baseline-shift:baseline;display:inline;overflow:visible;mix-blend-mode:normal;vector-effect:none;stroke-linecap:round;stroke-linejoin:round;stroke-miterlimit:12;paint-order:markers stroke fill;filter:url(#filter28);enable-background:accumulate;stop-color:#000000"
       d="m 204.38442,-4.6901529 c -2.04738,0.00353 -4.09488,0.00681 -6.14226,0.010335 -7.89643,0.00135 -15.79256,-0.0034 -23.68899,-0.0062 v 1.5875 c 7.89636,0.0028 15.79263,0.00755 23.68899,0.0062 0.88258,-0.00152 1.76533,-0.00313 2.6479,-0.00465 1.16573,-0.00237 2.33142,-0.00471 3.49695,-0.00672 h 5.1e-4 a 1.5876587,1.5876587 0 0 0 0.006,0 c 0.50594,-0.00245 1.01015,-0.00594 1.51205,-0.00827 3.35542,-0.01827 6.72806,0.010081 10.00972,0.7885823 3.20463,0.6742815 6.54426,1.96238188 9.43405,3.5997803 4.61186,2.5688133 8.66155,6.3192747 11.64012,10.7244103 3.20113,4.684999 5.19419,10.319071 5.70094,15.863631 0.0647,0.729014 0.10541,1.459548 0.12248,2.18953 0.0296,-1.257845 -0.0108,-2.519258 -0.12248,-3.77703 -0.50675,-5.54456 -2.49981,-11.178632 -5.70094,-15.863631 -2.97857,-4.405135 -7.02826,-8.1555971 -11.64012,-10.72441032 -2.88979,-1.63739838 -6.22942,-2.92549868 -9.43405,-3.59978018 -3.77794,-0.8962331 -7.67668,-0.7979661 -11.53056,-0.7792806 z m 28.74295,34.8753899 c -0.20771,6.507664 -2.96011,13.02603 -7.96231,17.269747 -2.59957,1.783824 -5.8798,1.782323 -8.89764,2.090312 -9.41928,0.588164 -18.87138,0.499453 -28.29698,0.125057 -1.51186,-0.04803 -2.80255,-1.154374 -3.37499,-2.502173 -0.15938,-0.580089 -0.22847,-1.172163 -0.25425,-1.769401 -0.0251,1.13172 -0.0456,2.265331 0.25425,3.356901 0.57244,1.347799 1.86313,2.454143 3.37499,2.502173 7.44205,0.295607 14.90054,0.413369 22.34644,0.160196 1.98456,-0.06748 3.96832,-0.161479 5.95054,-0.285253 3.01784,-0.307989 6.29807,-0.306488 8.89764,-2.090312 5.40929,-4.589081 8.18772,-11.838218 7.96231,-18.857247 z m -48.7841,11.945524 c -6.4e-4,0.509683 -0.002,1.019434 -0.003,1.529106 9e-4,0.01862 0.002,0.03718 0.003,0.05581 0.0118,-0.530493 0.0227,-1.060314 0,-1.584916 z m 50.5535,11.442712 c -0.23497,1.319349 0.10225,2.734454 1.13895,3.655591 5.9324,5.208532 10.36623,12.211 12.10882,19.942452 0.56417,2.531796 0.88167,4.951739 0.93844,7.491016 0.005,-0.23481 0.009,-0.469272 0.009,-0.703833 0.004,-2.865959 -0.31854,-5.551033 -0.94775,-8.374683 -1.74259,-7.731452 -6.17642,-14.73392 -12.10882,-19.942452 -0.62311,-0.55365 -0.99354,-1.285573 -1.13895,-2.068091 z m 4.48965,31.217733 c -0.12276,4.41535 -1.27273,8.792558 -3.50573,12.635921 -4.39534,7.869163 -12.87482,13.357323 -21.90822,13.861683 -4.59501,0.32845 -9.20417,0.0142 -13.80536,0.12558 -4.44765,-0.0215 -8.90151,0.0727 -13.34441,-0.13798 -1.67001,-0.21359 -2.43042,-2.00177 -2.51251,-3.49849 -0.0568,-1.15303 -0.0788,-2.30711 -0.0847,-3.46181 -0.007,1.68432 0.002,3.36795 0.0847,5.04931 0.082,1.49447 0.8405,3.27896 2.50528,3.49694 3.0875,0.14429 6.12609,0.10283 9.17153,0.0961 1.39394,-0.003 2.78689,0.0367 4.18011,0.0434 1.52253,-0.0369 3.04471,-0.059 4.56819,-0.0413 3.05767,0.036 6.09267,0.13348 9.25267,-0.0863 9.02753,-0.50983 17.49992,-5.995 21.89272,-13.859623 2.50049,-4.30376 3.64301,-9.276855 3.50573,-14.223421 z M 184.2332,97.755789 c -2.7e-4,0.497999 -5.2e-4,0.995975 -0.001,1.493966 0.004,0.291808 0.006,0.58351 0.008,0.875395 0.003,-0.790025 0.003,-1.579766 -0.007,-2.369361 z"
       clip-path="url(#clipPath28)"
       transform="translate(-144.09018,9.5381329)" />
  </g>
</svg>
