<?xml version="1.0" encoding="UTF-8" standalone="no"?>
<!-- Created with Inkscape (http://www.inkscape.org/) -->

<svg
   width="512"
   height="512"
   viewBox="0 0 135.46666 135.46667"
   version="1.1"
   id="svg5"
   inkscape:version="1.4.2 (ebf0e940d0, 2025-05-08)"
   sodipodi:docname="text_italic.svg"
   xmlns:inkscape="http://www.inkscape.org/namespaces/inkscape"
   xmlns:sodipodi="http://sodipodi.sourceforge.net/DTD/sodipodi-0.dtd"
   xmlns="http://www.w3.org/2000/svg"
   xmlns:svg="http://www.w3.org/2000/svg">
  <sodipodi:namedview
     id="namedview7"
     pagecolor="#292929"
     bordercolor="#666666"
     borderopacity="1"
     inkscape:showpageshadow="0"
     inkscape:pageopacity="0"
     inkscape:pagecheckerboard="1"
     inkscape:deskcolor="#1a1a1a"
     inkscape:document-units="px"
     showgrid="false"
     inkscape:zoom="1.3037281"
     inkscape:cx="461.36921"
     inkscape:cy="267.31034"
     inkscape:window-width="3256"
     inkscape:window-height="1080"
     inkscape:window-x="1864"
     inkscape:window-y="0"
     inkscape:window-maximized="0"
     inkscape:current-layer="layer1" />
  <defs
     id="defs2">
    <clipPath
       clipPathUnits="userSpaceOnUse"
       id="clipPath28">
      <path
         style="baseline-shift:baseline;display:inline;overflow:visible;vector-effect:none;fill:#ffff00;stroke-width:0.999998;stroke-linecap:round;stroke-linejoin:round;stroke-miterlimit:12;paint-order:markers stroke fill;enable-background:accumulate;stop-color:#000000"
         d="m 198.24246,-4.6798153 c -7.89643,0.00135 -15.79286,-0.00316 -23.68929,-0.00596 0,41.9212313 0,83.8424623 0,125.7636953 13.40519,-0.0182 26.81285,0.0751 40.21627,-0.1183 4.68038,-0.34143 9.24982,-1.62914 13.47914,-3.72717 2.46867,-1.22126 4.82589,-2.71812 6.9992,-4.46861 4.47689,-3.63411 8.21166,-8.44657 10.58448,-13.778019 2.12527,-4.71801 3.24368,-9.908492 3.26023,-15.027301 0.004,-2.865959 -0.31867,-5.551104 -0.94788,-8.374753 -1.74259,-7.731453 -6.17611,-14.733754 -12.10851,-19.942286 -1.46549,-1.302128 -1.53368,-3.591589 -0.56283,-5.201843 0.72721,-1.199563 1.71572,-2.220706 2.38572,-3.463949 3.76578,-6.166257 5.47136,-13.488111 4.83116,-20.698597 -0.50675,-5.544559 -2.49979,-11.178675 -5.70092,-15.863674 -2.97857,-4.4051341 -7.02826,-8.1559002 -11.64012,-10.72471342 -2.88979,-1.63739838 -6.22908,-2.92541438 -9.43371,-3.59969608 -3.77794,-0.8962329 -7.67692,-0.7980825 -11.5308,-0.7793971 -2.04738,0.00353 -4.09476,0.00705 -6.14214,0.010575 z m 8.23068,9.6405252 c 4.55074,-0.07932 9.25626,0.434753 13.3228,2.6244118 7.7913,3.9050603 13.1939,12.2490043 13.33112,20.9944183 0.23081,7.024706 -2.54802,14.282425 -7.96199,18.87548 -2.59957,1.783824 -5.87968,1.782234 -8.89752,2.090222 -9.41928,0.588166 -18.87138,0.499602 -28.29698,0.125206 -1.51186,-0.04803 -2.80225,-1.154366 -3.37469,-2.502167 -0.45416,-1.653048 -0.17345,-3.402481 -0.25485,-5.095814 0.0235,-11.409794 -0.0632,-22.822435 0.10218,-34.2302951 0.0571,-1.5109611 1.46874,-2.5372401 2.87994,-2.6789211 2.60774,-0.2621801 5.23891,-0.0567 7.85615,-0.1332349 3.76464,-0.022979 7.52911,-0.06353 11.29384,-0.06931 z m 5.31768,53.7983051 c 4.69902,0.16043 9.5606,-0.173458 14.06177,1.434423 3.57988,1.802035 6.40428,4.801423 8.7425,7.998931 5.81514,8.480827 6.4772,20.299637 1.2859,29.234719 -4.39534,7.869162 -12.87482,13.357302 -21.90822,13.861662 -4.59501,0.32845 -9.20419,0.0142 -13.80538,0.12555 -4.44765,-0.0215 -8.90174,0.0729 -13.34464,-0.13775 -1.67001,-0.21359 -2.43037,-2.00183 -2.51246,-3.49855 -0.16601,-3.36731 -0.0333,-6.74454 -0.0779,-10.115742 0.0124,-11.932216 -0.054,-23.867009 0.0949,-35.797479 0.0473,-1.528125 1.47713,-2.576272 2.9058,-2.709733 2.46165,-0.258217 4.94866,-0.10001 7.42062,-0.180491 5.71232,-0.07233 11.42421,-0.19922 17.13713,-0.21554 z"
         id="path28" />
    </clipPath>
  </defs>
  <g
     inkscape:label="Layer 1"
     inkscape:groupmode="layer"
     id="layer1">
    <path
       id="path23"
       style="display:none;opacity:1;fill:#c2c2c2;fill-opacity:1;stroke:none;stroke-width:16.9333;stroke-linecap:round;stroke-linejoin:round;stroke-miterlimit:12;paint-order:markers stroke fill"
       d="m 54.152271,4.8585359 c -7.896429,0.00135 -15.792856,-0.00316 -23.689284,-0.00596 0,41.9212301 0,83.8424601 0,125.7636941 13.40519,-0.0182 26.81285,0.0751 40.216264,-0.1183 4.680384,-0.34143 9.249823,-1.62914 13.47914,-3.72717 2.468668,-1.22126 4.825888,-2.71812 6.999204,-4.46861 4.476885,-3.63411 8.211656,-8.44657 10.584475,-13.77802 2.12527,-4.71801 3.24368,-9.908492 3.26023,-15.0273 0.004,-2.865959 -0.31867,-5.551103 -0.94788,-8.374753 -1.74259,-7.731452 -6.176107,-14.733754 -12.108507,-19.942286 -1.465487,-1.302128 -1.533677,-3.591588 -0.562833,-5.201844 0.727211,-1.199562 1.715719,-2.220704 2.385721,-3.463948 3.765784,-6.166258 5.471365,-13.488111 4.83116,-20.698596 C 98.09321,30.270883 96.10017,24.636767 92.899044,19.951768 89.920471,15.546634 85.87078,11.795868 81.258928,9.2270548 78.369137,7.5896564 75.029846,6.3016403 71.825212,5.6273588 68.047277,4.7311257 64.148294,4.8292762 60.294411,4.8479617 c -2.04738,0.00353 -4.09476,0.00705 -6.14214,0.010574 z m 8.230686,9.6405251 c 4.55074,-0.07932 9.256252,0.434753 13.322799,2.624412 7.791302,3.90506 13.193893,12.249004 13.331114,20.994418 0.230816,7.024706 -2.548014,14.282425 -7.961989,18.87548 -2.599568,1.783824 -5.879674,1.782234 -8.897516,2.090223 -9.419281,0.588164 -18.87138,0.4996 -28.296986,0.125204 -1.511859,-0.04803 -2.80225,-1.154366 -3.374683,-2.502165 -0.454164,-1.653048 -0.173448,-3.402481 -0.254856,-5.095814 0.02346,-11.409796 -0.06323,-22.822436 0.102183,-34.230296 0.05709,-1.510961 1.46874,-2.53724 2.879938,-2.678921 2.607745,-0.26218 5.238911,-0.0567 7.856157,-0.133235 3.764633,-0.02298 7.52911,-0.06353 11.293839,-0.06931 z m 5.317679,53.798306 c 4.699019,0.160429 9.560596,-0.17346 14.061766,1.434421 3.579883,1.802036 6.404284,4.801424 8.742501,7.998931 5.815138,8.480829 6.477198,20.299639 1.285902,29.234721 -4.395343,7.86916 -12.874825,13.3573 -21.90822,13.86166 -4.595008,0.32845 -9.204191,0.0142 -13.805385,0.12555 -4.447642,-0.0215 -8.901732,0.0729 -13.344634,-0.13775 -1.670012,-0.21359 -2.430376,-2.00183 -2.512466,-3.49855 -0.166007,-3.36731 -0.03328,-6.74454 -0.07789,-10.11574 0.01236,-11.932216 -0.05398,-23.867011 0.09488,-35.79748 0.04729,-1.528126 1.47713,-2.576272 2.905801,-2.709733 2.461655,-0.258218 4.948667,-0.10001 7.420625,-0.180491 5.712321,-0.07233 11.424206,-0.19922 17.137123,-0.215539 z" />
    <path
       id="path1"
       style="display:inline;opacity:1;fill:#c2c2c2;fill-opacity:1;stroke:none;stroke-width:16.9333;stroke-linecap:round;stroke-linejoin:round;stroke-miterlimit:12;paint-order:markers stroke fill"
       d="M 72.410513,4.8585359 C 64.513691,4.8598859 56.618574,4.8553759 48.722959,4.8525759 36.548661,46.773806 24.374364,88.695036 12.200064,130.61627 c 13.410476,-0.0182 26.791041,0.0751 40.25062,-0.1183 4.779538,-0.34143 9.72294,-1.62914 14.561543,-3.72717 2.823333,-1.22126 5.615254,-2.71812 8.296928,-4.46861 5.532263,-3.63411 10.664615,-8.44657 14.585735,-13.77802 3.495422,-4.71801 6.121194,-9.908492 7.624291,-15.0273 0.8363,-2.865959 1.29342,-5.551103 1.484223,-8.374753 0.502692,-7.731452 -1.897294,-14.733754 -6.31709,-19.942286 -1.087337,-1.302128 -0.490648,-3.591588 0.947829,-5.201844 1.075574,-1.199562 2.360631,-2.220704 3.391682,-3.463948 5.556525,-6.166258 9.388435,-13.488111 10.842215,-20.698596 1.10344,-5.54456 0.7466,-11.178676 -1.09396,-15.863675 -1.69929,-4.405134 -4.65972,-8.1559 -8.525567,-10.7247132 C 95.834237,7.5896564 92.868997,6.3016403 89.860181,5.6273588 86.34252,4.7311257 82.415033,4.8292762 78.555723,4.8479617 c -2.048405,0.00353 -4.096807,0.00705 -6.14521,0.010574 z m 5.430991,9.6405251 c 4.573776,-0.07932 9.129996,0.434753 12.560647,2.624412 6.657238,3.90506 9.636669,12.249004 7.234148,20.994418 -1.809221,7.024706 -6.695757,14.282425 -13.443596,18.87548 -3.117606,1.783824 -6.397251,1.782234 -9.504535,2.090223 -9.59009,0.588164 -19.016469,0.4996 -28.333347,0.125204 -1.49791,-0.04803 -2.467012,-1.154366 -2.648032,-2.502165 0.0259,-1.653048 0.814663,-3.402481 1.225014,-5.095814 3.336966,-11.409796 6.564608,-22.822436 10.042965,-34.230296 0.495887,-1.510961 2.205577,-2.53724 3.657921,-2.678921 2.683884,-0.26218 5.255377,-0.0567 7.894849,-0.133235 3.771307,-0.02298 7.54756,-0.06353 11.313967,-0.06931 z M 67.535677,68.297367 c 4.652429,0.160429 9.61097,-0.17346 13.645197,1.434421 3.056556,1.802036 5.009908,4.801424 6.419541,7.998931 3.35223,8.480829 0.582002,20.299639 -7.204121,29.234721 -6.680617,7.86916 -16.753904,13.3573 -25.93377,13.86166 -4.690392,0.32845 -9.208314,0.0142 -13.841845,0.12555 -4.441399,-0.0215 -8.922903,0.0729 -13.304631,-0.13775 -1.607983,-0.21359 -1.849026,-2.00183 -1.496456,-3.49855 0.81189,-3.36731 1.925395,-6.74454 2.859811,-10.11574 3.477582,-11.932216 6.877212,-23.867011 10.490787,-35.79748 0.491071,-1.528126 2.225302,-2.576272 3.692731,-2.709733 2.536644,-0.258218 4.977711,-0.10001 7.473042,-0.180491 5.733326,-0.07233 11.482061,-0.19922 17.199717,-0.215539 z" />
  </g>
</svg>
