<?xml version="1.0" encoding="UTF-8" standalone="no"?>
<!-- Created with Inkscape (http://www.inkscape.org/) -->

<svg
   width="512"
   height="512"
   viewBox="0 0 135.46666 135.46667"
   version="1.1"
   id="svg5"
   inkscape:version="1.4.2 (ebf0e940d0, 2025-05-08)"
   xml:space="preserve"
   sodipodi:docname="tools-check-spelling.svg"
   xmlns:inkscape="http://www.inkscape.org/namespaces/inkscape"
   xmlns:sodipodi="http://sodipodi.sourceforge.net/DTD/sodipodi-0.dtd"
   xmlns:xlink="http://www.w3.org/1999/xlink"
   xmlns="http://www.w3.org/2000/svg"
   xmlns:svg="http://www.w3.org/2000/svg"><sodipodi:namedview
     id="namedview7"
     pagecolor="#242424"
     bordercolor="#666666"
     borderopacity="1"
     inkscape:showpageshadow="0"
     inkscape:pageopacity="0"
     inkscape:pagecheckerboard="1"
     inkscape:deskcolor="#000000"
     inkscape:document-units="px"
     showgrid="false"
     inkscape:zoom="0.921875"
     inkscape:cx="533.15254"
     inkscape:cy="509.28814"
     inkscape:window-width="3256"
     inkscape:window-height="1080"
     inkscape:window-x="1864"
     inkscape:window-y="0"
     inkscape:window-maximized="0"
     inkscape:current-layer="layer1" /><defs
     id="defs2"><linearGradient
       id="linearGradient3"
       inkscape:collect="always"><stop
         style="stop-color:#a3a29d;stop-opacity:1;"
         offset="0"
         id="stop4" /><stop
         style="stop-color:#a3a29d;stop-opacity:0;"
         offset="1"
         id="stop5" /></linearGradient><linearGradient
       id="linearGradient2"
       inkscape:collect="always"><stop
         style="stop-color:#000000;stop-opacity:1;"
         offset="0"
         id="stop3" /><stop
         style="stop-color:#ffffff;stop-opacity:1;"
         offset="0.2"
         id="stop7" /><stop
         style="stop-color:#000000;stop-opacity:1;"
         offset="0.40365851"
         id="stop8" /><stop
         style="stop-color:#ffffff;stop-opacity:1;"
         offset="0.60454738"
         id="stop9" /><stop
         style="stop-color:#000000;stop-opacity:1;"
         offset="0.79727012"
         id="stop10" /><stop
         style="stop-color:#ffffff;stop-opacity:1;"
         offset="1"
         id="stop6" /></linearGradient><filter
       inkscape:collect="always"
       style="color-interpolation-filters:sRGB"
       id="filter19"
       x="-0.071145962"
       y="-0.067206228"
       width="1.1422919"
       height="1.1344125"><feGaussianBlur
         inkscape:collect="always"
         stdDeviation="3.048947"
         id="feGaussianBlur19" /></filter><radialGradient
       inkscape:collect="always"
       xlink:href="#linearGradient3"
       id="radialGradient5"
       cx="32.119303"
       cy="-12.330684"
       fx="32.119303"
       fy="-12.330684"
       r="58.743251"
       gradientTransform="matrix(1,0,0,1.0513193,0,0.63280235)"
       gradientUnits="userSpaceOnUse" /><linearGradient
       inkscape:collect="always"
       xlink:href="#linearGradient2"
       id="linearGradient4"
       x1="-76.805267"
       y1="135.46666"
       x2="245.45807"
       y2="5.3033757"
       gradientUnits="userSpaceOnUse"
       gradientTransform="matrix(0.41543407,0,0,0.41543407,32.701267,27.909669)" /><linearGradient
       inkscape:collect="always"
       xlink:href="#linearGradient2"
       id="linearGradient14"
       x1="12.333004"
       y1="173.28906"
       x2="146.66699"
       y2="208.11562"
       gradientUnits="userSpaceOnUse"
       gradientTransform="translate(-11.766669,-82.207606)" /></defs><g
     inkscape:label="Layer 1"
     inkscape:groupmode="layer"
     id="layer1"><path
       id="path19"
       style="display:none;fill:url(#radialGradient5);fill-opacity:1;stroke:none;stroke-width:1.79709;stroke-linecap:round;stroke-linejoin:round;paint-order:stroke fill markers;filter:url(#filter19)"
       d="m -19.306475,15.652702 c 7.32335,0.02788 14.65488,-0.108966 21.9707,0.263672 4.387923,1.126936 7.160749,5.931176 6.541016,10.314866 0,5.29284 0,10.58568 0,15.87851 15.279297,0 30.558594,0 45.837891,0 0.04285,-6.74418 -0.197394,-13.50572 0.341797,-20.23437 1.278677,-4.25617 6.013069,-6.81551 10.305074,-6.222678 5.9517,0 11.90339,0 17.85508,0 -17.14192,-27.474609 -34.283852,-54.949219 -51.425779,-82.423828 -17.141927,27.474609 -34.283859,54.949219 -51.425779,82.423828 z"
       transform="matrix(0,1,1,0,-124.46789,16.7748)" /><g
       id="g14"
       transform="translate(0,-10.277107)"><text
         xml:space="preserve"
         style="font-style:normal;font-variant:normal;font-weight:normal;font-stretch:normal;font-size:74.3249px;line-height:1.25;font-family:'Adwaita Sans';-inkscape-font-specification:'Adwaita Sans, Normal';font-variant-ligatures:none;font-variant-caps:normal;font-variant-numeric:normal;font-variant-east-asian:normal;text-orientation:upright;fill:#c2c2c2;fill-opacity:1;stroke:url(#linearGradient4);stroke-width:1.5875;stroke-dasharray:none;paint-order:markers stroke fill"
         x="-1.0208284"
         y="84.187134"
         id="text1"><tspan
           sodipodi:role="line"
           id="tspan1"
           style="font-style:normal;font-variant:normal;font-weight:normal;font-stretch:normal;font-size:74.3249px;font-family:'Adwaita Sans';-inkscape-font-specification:'Adwaita Sans, Normal';font-variant-ligatures:none;font-variant-caps:normal;font-variant-numeric:normal;font-variant-east-asian:normal;fill:#c2c2c2;fill-opacity:1;stroke:url(#linearGradient4);stroke-width:1.5875;stroke-dasharray:none;paint-order:markers stroke fill"
           x="-1.0208284"
           y="84.187134">TEH</tspan></text><path
         style="baseline-shift:baseline;display:inline;overflow:visible;vector-effect:none;fill:url(#linearGradient14);stroke-linecap:round;stroke-linejoin:round;paint-order:markers stroke fill;enable-background:accumulate;stop-color:#000000"
         d="m 24.539972,91.081454 c -0.765513,-2.4e-4 -1.486387,0.36894 -1.933594,0.99024 L 1.0087221,122.142 c -0.761081,1.06036 -0.515011,2.56059 0.544922,3.32226 1.060854,0.76305 2.562403,0.51682 3.324218,-0.54492 L 24.539972,97.542393 44.204034,124.91934 c 0.936523,1.30257 2.930664,1.30257 3.867188,0 L 67.733331,97.542393 87.397393,124.91934 c 0.936528,1.30258 2.930668,1.30258 3.867188,0 l 19.664059,-27.374997 19.66211,27.374997 c 0.76168,1.05994 2.26191,1.30602 3.32227,0.54492 1.05993,-0.76167 1.306,-2.2619 0.54492,-3.32226 l -21.5957,-30.070306 c -0.93631,-1.30518 -2.93284,-1.30518 -3.86914,0 L 89.330991,119.45059 69.666925,92.071694 c -0.936523,-1.30257 -2.930665,-1.30257 -3.867188,0 L 46.137628,119.45059 26.473565,92.071694 c -0.447206,-0.6213 -1.168081,-0.99048 -1.933593,-0.99024 z m 86.388668,1.57031 c 0.23992,0 0.47928,0.11535 0.64453,0.34571 l 21.59571,30.070306 c 0.26099,0.36362 0.18183,0.84623 -0.18164,1.10742 -0.36362,0.261 -0.84623,0.18184 -1.10743,-0.18164 L 111.57317,95.722083 a 0.79382936,0.79382936 0 0 0 -1.28906,0 L 89.975521,123.99356 c -0.33051,0.45969 -0.95856,0.45969 -1.28906,0 L 68.377862,95.720123 a 0.79382936,0.79382936 0 0 0 -1.289062,0 L 46.782159,123.99356 c -0.330508,0.45969 -0.958554,0.45969 -1.289062,0 L 25.184503,95.720123 a 0.79382936,0.79382936 0 0 0 -1.289063,0 L 3.5888001,123.99356 c -0.261273,0.36414 -0.745544,0.44334 -1.109375,0.18164 -0.363473,-0.26119 -0.442631,-0.7438 -0.181641,-1.10742 L 23.89544,92.997474 c 0.149692,-0.20797 0.388295,-0.33016 0.644532,-0.33008 0.256236,-8e-5 0.49484,0.12211 0.644531,0.33008 l 20.308594,28.275386 a 0.79382936,0.79382936 0 0 0 1.289062,0 L 67.0888,92.997474 c 0.330508,-0.45969 0.958554,-0.45969 1.289062,0 l 20.308599,28.275386 a 0.79382936,0.79382936 0 0 0 1.28906,0 L 110.28216,92.997474 c 0.16525,-0.23036 0.40657,-0.34571 0.64648,-0.34571 z"
         id="path12" /><path
         style="fill:none;stroke:#ff0000;stroke-width:3.175;stroke-linecap:round;stroke-linejoin:round;stroke-dasharray:none;stroke-opacity:1"
         d="M 2.9426826,123.52958 24.539566,93.459886 46.13645,123.52958 67.733336,93.459886 89.330219,123.52958 110.9271,93.459886 132.52398,123.52958"
         id="path4"
         sodipodi:nodetypes="ccccccc" /></g></g></svg>
