<?xml version="1.0" encoding="UTF-8" standalone="no"?>
<!-- Created with Inkscape (http://www.inkscape.org/) -->

<svg
   width="512"
   height="512"
   viewBox="0 0 135.46666 135.46667"
   version="1.1"
   id="svg5"
   inkscape:version="1.4.2 (ebf0e940d0, 2025-05-08)"
   xml:space="preserve"
   sodipodi:docname="view-list-details.svg"
   xmlns:inkscape="http://www.inkscape.org/namespaces/inkscape"
   xmlns:sodipodi="http://sodipodi.sourceforge.net/DTD/sodipodi-0.dtd"
   xmlns:xlink="http://www.w3.org/1999/xlink"
   xmlns="http://www.w3.org/2000/svg"
   xmlns:svg="http://www.w3.org/2000/svg"><sodipodi:namedview
     id="namedview7"
     pagecolor="#242424"
     bordercolor="#666666"
     borderopacity="1"
     inkscape:showpageshadow="0"
     inkscape:pageopacity="0"
     inkscape:pagecheckerboard="1"
     inkscape:deskcolor="#000000"
     inkscape:document-units="px"
     showgrid="false"
     inkscape:zoom="0.921875"
     inkscape:cx="310.77966"
     inkscape:cy="311.86441"
     inkscape:window-width="3256"
     inkscape:window-height="1080"
     inkscape:window-x="1864"
     inkscape:window-y="0"
     inkscape:window-maximized="0"
     inkscape:current-layer="layer1" /><defs
     id="defs2"><linearGradient
       id="linearGradient2"
       inkscape:collect="always"><stop
         style="stop-color:#000000;stop-opacity:1;"
         offset="0"
         id="stop3" /><stop
         style="stop-color:#ffffff;stop-opacity:1;"
         offset="0.2"
         id="stop7" /><stop
         style="stop-color:#000000;stop-opacity:1;"
         offset="0.40365851"
         id="stop8" /><stop
         style="stop-color:#ffffff;stop-opacity:1;"
         offset="0.60454738"
         id="stop9" /><stop
         style="stop-color:#000000;stop-opacity:1;"
         offset="0.79727012"
         id="stop10" /><stop
         style="stop-color:#ffffff;stop-opacity:1;"
         offset="1"
         id="stop6" /></linearGradient><linearGradient
       inkscape:collect="always"
       xlink:href="#linearGradient2"
       id="linearGradient12"
       x1="0"
       y1="16.933332"
       x2="33.866665"
       y2="16.933332"
       gradientUnits="userSpaceOnUse"
       gradientTransform="matrix(3.9531251,0,0,0.98828125,0.79374865,0.79374872)" /><linearGradient
       inkscape:collect="always"
       xlink:href="#linearGradient2"
       id="linearGradient14"
       x1="0"
       y1="118.53333"
       x2="33.866665"
       y2="118.53333"
       gradientUnits="userSpaceOnUse"
       gradientTransform="matrix(3.9531251,0,0,0.98828125,0.79374865,0.79374872)" /><linearGradient
       inkscape:collect="always"
       xlink:href="#linearGradient2"
       id="linearGradient20"
       gradientUnits="userSpaceOnUse"
       gradientTransform="matrix(3.9531251,0,0,0.98828125,0.79374865,50.998437)"
       x1="0"
       y1="16.933332"
       x2="33.866665"
       y2="16.933332" /></defs><g
     inkscape:label="Layer 1"
     inkscape:groupmode="layer"
     id="layer1"><path
       id="rect1"
       style="fill:#c2c2c2;stroke:url(#linearGradient12);stroke-width:1.5875;stroke-linecap:round;stroke-linejoin:round;stroke-miterlimit:12;paint-order:markers stroke fill"
       d="M 4.4798299 0.79374999 C 2.4377305 0.79374999 0.79374999 2.4377305 0.79374999 4.4798299 L 0.79374999 30.577461 C 0.79374999 32.619561 2.4377305 34.263541 4.4798299 34.263541 L 130.98684 34.263541 C 133.02893 34.263541 134.67292 32.619561 134.67292 30.577461 L 134.67292 4.4798299 C 134.67292 2.4377305 133.02893 0.79374999 130.98684 0.79374999 L 4.4798299 0.79374999 z M 14.493689 10.497034 A 7.0316381 7.0316381 0 0 1 21.525301 17.528646 A 7.0316381 7.0316381 0 0 1 14.493689 24.560258 A 7.0316381 7.0316381 0 0 1 7.4620767 17.528646 A 7.0316381 7.0316381 0 0 1 14.493689 10.497034 z " /><path
       id="rect2"
       style="fill:#c2c2c2;stroke:url(#linearGradient14);stroke-width:1.5875;stroke-linecap:round;stroke-linejoin:round;stroke-miterlimit:12;paint-order:markers stroke fill"
       d="M 4.4798299 101.20312 C 2.4377305 101.20312 0.79374999 102.8471 0.79374999 104.8892 L 0.79374999 130.98684 C 0.79374999 133.02893 2.4377305 134.67292 4.4798299 134.67292 L 130.98684 134.67292 C 133.02893 134.67292 134.67292 133.02893 134.67292 130.98684 L 134.67292 104.8892 C 134.67292 102.8471 133.02893 101.20312 130.98684 101.20312 L 4.4798299 101.20312 z M 14.493689 110.90641 A 7.0316381 7.0316381 0 0 1 21.525301 117.93802 A 7.0316381 7.0316381 0 0 1 14.493689 124.96963 A 7.0316381 7.0316381 0 0 1 7.4620767 117.93802 A 7.0316381 7.0316381 0 0 1 14.493689 110.90641 z " /><path
       id="rect20"
       style="fill:#c2c2c2;stroke:url(#linearGradient20);stroke-width:1.5875;stroke-linecap:round;stroke-linejoin:round;stroke-miterlimit:12;paint-order:markers stroke fill"
       d="M 4.4798299 50.998437 C 2.4377305 50.998437 0.79374999 52.642417 0.79374999 54.684517 L 0.79374999 80.782148 C 0.79374999 82.824248 2.4377305 84.468228 4.4798299 84.468228 L 130.98684 84.468228 C 133.02893 84.468228 134.67292 82.824248 134.67292 80.782148 L 134.67292 54.684517 C 134.67292 52.642417 133.02893 50.998437 130.98684 50.998437 L 4.4798299 50.998437 z M 14.493689 60.70172 A 7.0316381 7.0316381 0 0 1 21.525301 67.733332 A 7.0316381 7.0316381 0 0 1 14.493689 74.764945 A 7.0316381 7.0316381 0 0 1 7.4620767 67.733332 A 7.0316381 7.0316381 0 0 1 14.493689 60.70172 z " /></g></svg>
