<?xml version="1.0" encoding="UTF-8" standalone="no"?>
<!-- Created with Inkscape (http://www.inkscape.org/) -->

<svg
   width="512"
   height="512"
   viewBox="0 0 135.46666 135.46667"
   version="1.1"
   id="svg5"
   inkscape:version="1.4.2 (ebf0e940d0, 2025-05-08)"
   sodipodi:docname="view-sort-ascending.svg"
   xmlns:inkscape="http://www.inkscape.org/namespaces/inkscape"
   xmlns:sodipodi="http://sodipodi.sourceforge.net/DTD/sodipodi-0.dtd"
   xmlns:xlink="http://www.w3.org/1999/xlink"
   xmlns="http://www.w3.org/2000/svg"
   xmlns:svg="http://www.w3.org/2000/svg">
  <sodipodi:namedview
     id="namedview7"
     pagecolor="#242424"
     bordercolor="#666666"
     borderopacity="1"
     inkscape:showpageshadow="0"
     inkscape:pageopacity="0"
     inkscape:pagecheckerboard="1"
     inkscape:deskcolor="#000000"
     inkscape:document-units="px"
     showgrid="false"
     inkscape:zoom="0.4609375"
     inkscape:cx="799.45763"
     inkscape:cy="289.62712"
     inkscape:window-width="3256"
     inkscape:window-height="1080"
     inkscape:window-x="1864"
     inkscape:window-y="0"
     inkscape:window-maximized="0"
     inkscape:current-layer="layer1" />
  <defs
     id="defs2">
    <linearGradient
       id="linearGradient16"
       inkscape:collect="always">
      <stop
         style="stop-color:#000000;stop-opacity:1;"
         offset="0"
         id="stop11" />
      <stop
         style="stop-color:#ffffff;stop-opacity:1;"
         offset="0.2"
         id="stop12" />
      <stop
         style="stop-color:#000000;stop-opacity:1;"
         offset="0.40365851"
         id="stop13" />
      <stop
         style="stop-color:#ffffff;stop-opacity:1;"
         offset="0.60454738"
         id="stop14" />
      <stop
         style="stop-color:#000000;stop-opacity:1;"
         offset="0.79727012"
         id="stop15" />
      <stop
         style="stop-color:#ffffff;stop-opacity:1;"
         offset="1"
         id="stop16" />
    </linearGradient>
    <linearGradient
       inkscape:collect="always"
       xlink:href="#linearGradient2"
       id="linearGradient3"
       x1="3.174998"
       y1="18.520855"
       x2="132.29167"
       y2="116.94581"
       gradientUnits="userSpaceOnUse"
       gradientTransform="translate(170.23786,-44.45851)" />
    <linearGradient
       id="linearGradient2"
       inkscape:collect="always">
      <stop
         style="stop-color:#000000;stop-opacity:1;"
         offset="0"
         id="stop3" />
      <stop
         style="stop-color:#ffffff;stop-opacity:1;"
         offset="0.2"
         id="stop7" />
      <stop
         style="stop-color:#000000;stop-opacity:1;"
         offset="0.40365851"
         id="stop8" />
      <stop
         style="stop-color:#ffffff;stop-opacity:1;"
         offset="0.60454738"
         id="stop9" />
      <stop
         style="stop-color:#000000;stop-opacity:1;"
         offset="0.79727012"
         id="stop10" />
      <stop
         style="stop-color:#ffffff;stop-opacity:1;"
         offset="1"
         id="stop6" />
    </linearGradient>
    <linearGradient
       inkscape:collect="always"
       xlink:href="#linearGradient2"
       id="linearGradient6"
       x1="0"
       y1="0"
       x2="69.85051"
       y2="78.766769"
       gradientUnits="userSpaceOnUse"
       gradientTransform="translate(64.557817,1.0583333)" />
    <linearGradient
       inkscape:collect="always"
       xlink:href="#linearGradient16"
       id="linearGradient18"
       x1="3.174998"
       y1="53.324333"
       x2="132.68782"
       y2="186.86125"
       gradientUnits="userSpaceOnUse"
       gradientTransform="matrix(1.0245901,0,0,1,-1.6655674,-52.387502)" />
  </defs>
  <g
     inkscape:label="Layer 1"
     inkscape:groupmode="layer"
     id="layer1">
    <path
       id="rect16"
       style="fill:#c2c2c2;fill-opacity:1;stroke:url(#linearGradient18);stroke-width:1.79705;stroke-linecap:round;stroke-linejoin:round;stroke-miterlimit:12;paint-order:markers stroke fill"
       d="M 15.996439 0.93689371 C 8.0138552 0.93689371 1.5875 7.3632486 1.5875 15.345833 C 1.5875 23.328418 8.0138552 29.754773 15.996439 29.754773 L 69.068651 29.754773 L 89.234345 0.93689371 L 15.996439 0.93689371 z M 109.73232 0.93689371 L 127.96893 26.997835 C 131.55625 24.381957 133.87917 20.145034 133.87917 15.345833 C 133.87917 7.3632486 127.45281 0.93689371 119.47023 0.93689371 L 109.73232 0.93689371 z M 15.996439 53.324393 C 8.0138552 53.324393 1.5875 59.750748 1.5875 67.733332 C 1.5875 75.715917 8.0138552 82.142272 15.996439 82.142272 L 74.405277 82.142272 A 8.4675129 8.4675129 0 0 1 74.081782 79.824067 L 74.081782 59.433581 L 64.558849 59.433581 A 8.4675129 8.4675129 0 0 1 56.42808 53.324393 L 15.996439 53.324393 z M 124.88282 59.433581 L 124.88282 79.824067 A 8.4675129 8.4675129 0 0 1 124.77998 81.139749 C 130.11975 79.03413 133.87917 73.838853 133.87917 67.733332 C 133.87917 64.638144 132.91277 61.776925 131.26434 59.433581 L 124.88282 59.433581 z M 15.996439 105.59045 C 8.0138552 105.59045 1.5875 112.01681 1.5875 119.99939 C 1.5875 127.98198 8.0138552 134.40833 15.996439 134.40833 L 119.47023 134.40833 C 127.45281 134.40833 133.87917 127.98198 133.87917 119.99939 C 133.87917 112.01681 127.45281 105.59045 119.47023 105.59045 L 15.996439 105.59045 z " />
    <path
       id="path1"
       style="fill:#00d400;fill-opacity:1;stroke:url(#linearGradient6);stroke-width:1.79705;stroke-linecap:round;stroke-linejoin:round;stroke-miterlimit:12;paint-order:markers stroke fill"
       inkscape:transform-center-y="-10.082031"
       d="M 99.482813,1.0583333 64.557817,50.966915 H 82.549478 V 79.825102 H 116.41614 V 50.966915 h 17.99218 z" />
    <path
       id="rect1"
       style="display:none;fill:#c2c2c2;fill-opacity:1;stroke:url(#linearGradient3);stroke-width:1.79705;stroke-linecap:round;stroke-linejoin:round;stroke-miterlimit:12;paint-order:markers stroke fill"
       d="m 173.41286,-15.354322 v -5.291667 c 0,-2.922506 2.36916,-5.291666 5.29166,-5.291666 h 24.20938 c 3.33466,0 6.47828,1.556218 8.50023,4.207951 l 1.65267,2.167431 c 2.02194,2.651733 5.16557,4.207951 8.50023,4.207951 h 80.9625 V 72.487304 H 173.41286 Z"
       sodipodi:nodetypes="ccccccccccc"
       sodipodi:insensitive="true" />
  </g>
</svg>
