<?xml version="1.0" encoding="UTF-8" standalone="no"?>
<!-- Created with Inkscape (http://www.inkscape.org/) -->

<svg
   width="512"
   height="512"
   viewBox="0 0 135.46666 135.46667"
   version="1.1"
   id="svg5"
   inkscape:version="1.4.2 (ebf0e940d0, 2025-05-08)"
   xml:space="preserve"
   sodipodi:docname="word-wrap.svg"
   xmlns:inkscape="http://www.inkscape.org/namespaces/inkscape"
   xmlns:sodipodi="http://sodipodi.sourceforge.net/DTD/sodipodi-0.dtd"
   xmlns:xlink="http://www.w3.org/1999/xlink"
   xmlns="http://www.w3.org/2000/svg"
   xmlns:svg="http://www.w3.org/2000/svg"><sodipodi:namedview
     id="namedview7"
     pagecolor="#242424"
     bordercolor="#666666"
     borderopacity="1"
     inkscape:showpageshadow="0"
     inkscape:pageopacity="0"
     inkscape:pagecheckerboard="1"
     inkscape:deskcolor="#000000"
     inkscape:document-units="px"
     showgrid="false"
     inkscape:zoom="1.3037281"
     inkscape:cx="517.36247"
     inkscape:cy="299.52564"
     inkscape:window-width="3256"
     inkscape:window-height="1080"
     inkscape:window-x="1864"
     inkscape:window-y="0"
     inkscape:window-maximized="0"
     inkscape:current-layer="layer1" /><defs
     id="defs2"><linearGradient
       id="linearGradient19"
       inkscape:collect="always"><stop
         style="stop-color:#0000ff;stop-opacity:0;"
         offset="0.66333336"
         id="stop20" /><stop
         style="stop-color:#0000ff;stop-opacity:1;"
         offset="1"
         id="stop19" /></linearGradient><linearGradient
       id="linearGradient3"
       inkscape:collect="always"><stop
         style="stop-color:#a3a29d;stop-opacity:1;"
         offset="0"
         id="stop4" /><stop
         style="stop-color:#a3a29d;stop-opacity:0;"
         offset="1"
         id="stop5" /></linearGradient><linearGradient
       inkscape:collect="always"
       xlink:href="#linearGradient2"
       id="linearGradient6"
       x1="26.878302"
       y1="-2.220446e-16"
       x2="135.46666"
       y2="67.73333"
       gradientUnits="userSpaceOnUse"
       gradientTransform="matrix(-0.98437509,0,0,0.98437509,-33.19852,-133.34999)" /><linearGradient
       id="linearGradient2"
       inkscape:collect="always"><stop
         style="stop-color:#000000;stop-opacity:1;"
         offset="0"
         id="stop3" /><stop
         style="stop-color:#ffffff;stop-opacity:1;"
         offset="0.2"
         id="stop7" /><stop
         style="stop-color:#000000;stop-opacity:1;"
         offset="0.40365851"
         id="stop8" /><stop
         style="stop-color:#ffffff;stop-opacity:1;"
         offset="0.60454738"
         id="stop9" /><stop
         style="stop-color:#000000;stop-opacity:1;"
         offset="0.79727012"
         id="stop10" /><stop
         style="stop-color:#ffffff;stop-opacity:1;"
         offset="1"
         id="stop6" /></linearGradient><filter
       inkscape:collect="always"
       style="color-interpolation-filters:sRGB"
       id="filter19"
       x="-0.071145962"
       y="-0.067206228"
       width="1.1422919"
       height="1.1344125"><feGaussianBlur
         inkscape:collect="always"
         stdDeviation="3.048947"
         id="feGaussianBlur19" /></filter><radialGradient
       inkscape:collect="always"
       xlink:href="#linearGradient3"
       id="radialGradient5"
       cx="32.119303"
       cy="-12.330684"
       fx="32.119303"
       fy="-12.330684"
       r="58.743251"
       gradientTransform="matrix(1,0,0,1.0513193,0,0.63280235)"
       gradientUnits="userSpaceOnUse" /><linearGradient
       inkscape:collect="always"
       xlink:href="#linearGradient2"
       id="linearGradient12"
       x1="74.056084"
       y1="134.45117"
       x2="134.45117"
       y2="117.51758"
       gradientUnits="userSpaceOnUse" /><linearGradient
       inkscape:collect="always"
       xlink:href="#linearGradient2"
       id="linearGradient14"
       x1="0.99889433"
       y1="134.45117"
       x2="134.46593"
       y2="1.015625"
       gradientUnits="userSpaceOnUse" /><linearGradient
       inkscape:collect="always"
       xlink:href="#linearGradient2"
       id="linearGradient15"
       gradientUnits="userSpaceOnUse"
       x1="81.53125"
       y1="117.51759"
       x2="145.0345"
       y2="134.45117"
       gradientTransform="translate(-80.532356,-116.50196)" /><linearGradient
       inkscape:collect="always"
       xlink:href="#linearGradient2"
       id="linearGradient17"
       x1="39.645302"
       y1="95.821358"
       x2="78.358849"
       y2="57.107807"
       gradientUnits="userSpaceOnUse" /><filter
       inkscape:collect="always"
       style="color-interpolation-filters:sRGB"
       id="filter18"
       x="-0.19199999"
       y="-0.192"
       width="1.384"
       height="1.384"><feGaussianBlur
         inkscape:collect="always"
         stdDeviation="3.1843751"
         id="feGaussianBlur18" /></filter><radialGradient
       inkscape:collect="always"
       xlink:href="#linearGradient19"
       id="radialGradient20"
       cx="238.20695"
       cy="47.504697"
       fx="238.20695"
       fy="47.504697"
       r="60.359863"
       gradientTransform="matrix(1,0,0,1.0004195,-170.47454,20.208773)"
       gradientUnits="userSpaceOnUse" /><filter
       inkscape:collect="always"
       style="color-interpolation-filters:sRGB"
       id="filter20"
       x="-0.048010069"
       y="-0.047989939"
       width="1.0960201"
       height="1.0959799"><feGaussianBlur
         inkscape:collect="always"
         stdDeviation="2.4149009"
         id="feGaussianBlur20" /></filter></defs><g
     inkscape:label="Layer 1"
     inkscape:groupmode="layer"
     id="layer1"><path
       id="rect792-3"
       style="display:none;fill:#c2c2c2;fill-opacity:1;stroke:url(#linearGradient6);stroke-width:1.79709;stroke-linecap:round;stroke-linejoin:round;paint-order:stroke fill markers"
       d="m -166.54852,-66.674992 106.89167,-66.674998 v 35.291383 h 26.45833 v 62.767225 H -59.65685 V 0 Z"
       sodipodi:nodetypes="cccccccc" /><path
       id="path19"
       style="display:none;fill:url(#radialGradient5);fill-opacity:1;stroke:none;stroke-width:1.79709;stroke-linecap:round;stroke-linejoin:round;paint-order:stroke fill markers;filter:url(#filter19)"
       d="m -19.306475,15.652702 c 7.32335,0.02788 14.65488,-0.108966 21.9707,0.263672 4.387923,1.126936 7.160749,5.931176 6.541016,10.314866 0,5.29284 0,10.58568 0,15.87851 15.279297,0 30.558594,0 45.837891,0 0.04285,-6.74418 -0.197394,-13.50572 0.341797,-20.23437 1.278677,-4.25617 6.013069,-6.81551 10.305074,-6.222678 5.9517,0 11.90339,0 17.85508,0 -17.14192,-27.474609 -34.283852,-54.949219 -51.425779,-82.423828 -17.141927,27.474609 -34.283859,54.949219 -51.425779,82.423828 z"
       transform="matrix(0,1,1,0,-83.838651,-98.794299)" /><path
       style="baseline-shift:baseline;display:inline;overflow:visible;opacity:1;vector-effect:none;fill:#c2c2c2;stroke:url(#linearGradient14);stroke-linecap:round;stroke-linejoin:round;enable-background:accumulate;stop-color:#000000;stop-opacity:1;paint-order:markers stroke fill"
       d="m 88.874999,1.015625 c -4.676116,-8.11e-5 -8.466878,3.7906805 -8.466797,8.4667969 -8.1e-5,4.6761161 3.790681,8.4668781 8.466797,8.4667971 H 105.54297 L 3.4960938,119.99609 c -5.3341241,5.33384 -1.5570621,14.45425 5.9863281,14.45508 H 48.976562 c 4.676114,8e-5 8.466874,-3.79068 8.466797,-8.46679 8.3e-5,-4.67612 -3.790679,-8.46688 -8.466797,-8.4668 H 29.921875 L 131.9707,15.46875 c 5.33077,-5.33397 1.55479,-14.4505429 -5.98632,-14.453125 z"
       id="path1"
       sodipodi:nodetypes="ccccccccccccc" /><path
       style="baseline-shift:baseline;display:inline;overflow:visible;opacity:1;vector-effect:none;fill:#c2c2c2;stroke:url(#linearGradient12);stroke-linecap:round;stroke-linejoin:round;enable-background:accumulate;stop-color:#000000;stop-opacity:1;paint-order:markers stroke fill"
       d="m 82.522881,117.51758 c -4.676118,-9e-5 -8.46688,3.79068 -8.466797,8.4668 -7.8e-5,4.67611 3.790683,8.46687 8.466797,8.46678 l 43.461499,1e-5 c 4.67611,8e-5 8.46687,-3.79068 8.46679,-8.46679 8e-5,-4.67611 -3.79068,-8.46688 -8.46679,-8.4668 z"
       id="path2"
       sodipodi:nodetypes="ccccccc" /><path
       id="path3"
       style="fill:#0000ff;fill-opacity:1;stroke-width:1.58749998;stroke-linecap:round;stroke-linejoin:round;stroke-miterlimit:12;paint-order:markers stroke fill;stroke:url(#linearGradient17);stroke-dasharray:none"
       inkscape:transform-center-x="-4.7233811"
       inkscape:transform-center-y="-4.7233864"
       d="M 39.645302,95.821359 56.007579,34.756526 78.358847,57.107807 100.71011,79.459088 Z"
       sodipodi:nodetypes="ccccc" /><g
       id="g5"
       transform="matrix(1.0880917,0,0,1.0880917,9.5002696,-14.586717)"
       style="display:none;stroke-width:0.91904"
       sodipodi:insensitive="true"><path
         style="fill:none;stroke:#c2c2c2;stroke-width:15.5624;stroke-linecap:round;stroke-linejoin:round;stroke-dasharray:none;stroke-opacity:1"
         d="M 0,22.120857 H 107.0531 L -0.01604988,129.19001 H 36.281109"
         id="path4"
         sodipodi:nodetypes="cccc" /><path
         style="fill:none;stroke:#c2c2c2;stroke-width:15.5624;stroke-linecap:round;stroke-linejoin:round;stroke-dasharray:none;stroke-opacity:1"
         d="M 73.98122,129.19001 H 107.0531"
         id="path5"
         sodipodi:nodetypes="cc" /></g><path
       style="baseline-shift:baseline;display:inline;overflow:visible;opacity:1;vector-effect:none;fill:#c2c2c2;stroke:url(#linearGradient15);stroke-linecap:round;stroke-linejoin:round;enable-background:accumulate;stop-color:#000000;stop-opacity:1;paint-order:markers stroke fill"
       d="m 9.4656913,1.015625 c -4.6761176,-8.12e-5 -8.46687981,3.7906824 -8.46679696,8.4668 -7.732e-5,4.676114 3.79068326,8.466871 8.46679696,8.46679 H 56.035357 c 4.676111,7.7e-5 8.466868,-3.790679 8.46679,-8.46679 8.3e-5,-4.6761149 -3.790675,-8.4668773 -8.46679,-8.4668 z"
       id="path14"
       sodipodi:nodetypes="ccccccc" /><path
       id="path17"
       style="fill:#000080;fill-opacity:1;stroke:none;stroke-width:1.5875;stroke-linecap:round;stroke-linejoin:round;stroke-miterlimit:12;stroke-dasharray:none;paint-order:markers stroke fill;filter:url(#filter18)"
       inkscape:transform-center-x="-4.7233811"
       inkscape:transform-center-y="-4.7233864"
       d="m 48.158693,87.307955 c 13.26823,-3.554688 26.53646,-7.109375 39.80469,-10.664063 -9.71355,-9.713542 -19.42709,-19.427083 -29.14063,-29.140625 -3.55469,13.268229 -7.10937,26.536458 -10.66406,39.804688 z" /><path
       id="path18"
       style="baseline-shift:baseline;display:inline;overflow:visible;opacity:1;vector-effect:none;fill:url(#radialGradient20);stroke:none;stroke-linecap:round;stroke-linejoin:round;stroke-opacity:1;paint-order:markers stroke fill;enable-background:accumulate;stop-color:#000000;stop-opacity:1;filter:url(#filter20)"
       d="m 124.41023,7.3576063 c -12.06901,0.04412 -24.13907,-0.06477 -36.207043,0.142578 -1.63441,0.431204 -1.98271,3.0703007 -0.37869,3.7796497 1.40944,0.643839 2.99558,0.15565 4.48376,0.316648 4.9039,0.06487 9.828173,-0.19586 14.715983,0.256326 4.05878,1.034477 5.92104,6.523187 3.52978,9.898971 -1.32402,1.888373 -3.26489,3.213609 -4.76524,4.948149 C 73.083167,59.419154 40.377557,92.13838 7.6719372,124.85761 c -0.86365,1.29131 0.25783,3.4343 1.87528,3.19222 3.4402798,0.16372 6.8852698,-0.0277 10.3274598,0.0566 9.94204,-0.0208 19.89145,0.0262 29.82851,-0.13549 1.55392,-0.52722 1.90096,-3.0701 0.32243,-3.78237 -1.39836,-0.7002 -3.00511,-0.15861 -4.49586,-0.31675 -5.66247,-0.0436 -11.33388,0.13641 -16.98868,-0.21143 -4.15546,-1.01255 -6.03605,-6.63704 -3.5957,-10.0625 1.63648,-1.94878 3.58083,-3.61629 5.33537,-5.45783 32.54981,-32.487774 65.03548,-65.04153 97.535733,-97.579279 0.85295,-1.3544347 -0.39817,-3.4681707 -2.03345,-3.1871567 -0.45695,-0.03123 -0.91522,-0.01577 -1.3728,-0.01597 z" /></g></svg>
