<?xml version="1.0" encoding="UTF-8" standalone="no"?>
<!-- Created with Inkscape (http://www.inkscape.org/) -->

<svg
   width="512"
   height="512"
   viewBox="0 0 135.46666 135.46667"
   version="1.1"
   id="svg5"
   inkscape:version="1.3.1 (91b66b0783, 2023-11-16, custom)"
   sodipodi:docname="wine.svg"
   xml:space="preserve"
   xmlns:inkscape="http://www.inkscape.org/namespaces/inkscape"
   xmlns:sodipodi="http://sodipodi.sourceforge.net/DTD/sodipodi-0.dtd"
   xmlns:xlink="http://www.w3.org/1999/xlink"
   xmlns="http://www.w3.org/2000/svg"
   xmlns:svg="http://www.w3.org/2000/svg"><sodipodi:namedview
     id="namedview7"
     pagecolor="#292929"
     bordercolor="#666666"
     borderopacity="1"
     inkscape:showpageshadow="0"
     inkscape:pageopacity="0"
     inkscape:pagecheckerboard="1"
     inkscape:deskcolor="#1a1a1a"
     inkscape:document-units="px"
     showgrid="false"
     inkscape:zoom="2.6074563"
     inkscape:cx="407.48526"
     inkscape:cy="517.74598"
     inkscape:window-width="3256"
     inkscape:window-height="1080"
     inkscape:window-x="1864"
     inkscape:window-y="0"
     inkscape:window-maximized="0"
     inkscape:current-layer="layer1" /><defs
     id="defs2"><linearGradient
       id="linearGradient94"
       inkscape:collect="always"><stop
         style="stop-color:#000000;stop-opacity:0;"
         offset="0"
         id="stop96" /><stop
         style="stop-color:#000000;stop-opacity:1;"
         offset="1"
         id="stop95" /></linearGradient><linearGradient
       id="linearGradient92"
       inkscape:collect="always"><stop
         style="stop-color:#000000;stop-opacity:0;"
         offset="0"
         id="stop94" /><stop
         style="stop-color:#000000;stop-opacity:1;"
         offset="1"
         id="stop93" /></linearGradient><linearGradient
       id="linearGradient90"
       inkscape:collect="always"><stop
         style="stop-color:#000000;stop-opacity:0;"
         offset="0"
         id="stop92" /><stop
         style="stop-color:#000000;stop-opacity:1;"
         offset="1"
         id="stop91" /></linearGradient><linearGradient
       id="linearGradient89"
       inkscape:collect="always"><stop
         style="stop-color:#000000;stop-opacity:0;"
         offset="0"
         id="stop90" /><stop
         style="stop-color:#000000;stop-opacity:1;"
         offset="1"
         id="stop89" /></linearGradient><linearGradient
       id="linearGradient75"
       inkscape:collect="always"><stop
         style="stop-color:#c83737;stop-opacity:1;"
         offset="0"
         id="stop76" /><stop
         style="stop-color:#782121;stop-opacity:1;"
         offset="1"
         id="stop77" /></linearGradient><linearGradient
       id="linearGradient73"
       inkscape:collect="always"><stop
         style="stop-color:#5aa02c;stop-opacity:1;"
         offset="0"
         id="stop74" /><stop
         style="stop-color:#437821;stop-opacity:1;"
         offset="1"
         id="stop75" /></linearGradient><linearGradient
       id="linearGradient71"
       inkscape:collect="always"><stop
         style="stop-color:#3771c8;stop-opacity:1;"
         offset="0"
         id="stop72" /><stop
         style="stop-color:#214478;stop-opacity:1;"
         offset="1"
         id="stop73" /></linearGradient><linearGradient
       id="linearGradient70"
       inkscape:collect="always"><stop
         style="stop-color:#c8ab37;stop-opacity:1;"
         offset="0"
         id="stop70" /><stop
         style="stop-color:#786621;stop-opacity:1;"
         offset="1"
         id="stop71" /></linearGradient><linearGradient
       id="linearGradient57"
       inkscape:collect="always"><stop
         style="stop-color:#000000;stop-opacity:1;"
         offset="0"
         id="stop57" /><stop
         style="stop-color:#000000;stop-opacity:0;"
         offset="1"
         id="stop58" /></linearGradient><linearGradient
       id="linearGradient41"
       inkscape:collect="always"><stop
         style="stop-color:#d5d5d5;stop-opacity:0;"
         offset="0"
         id="stop43" /><stop
         style="stop-color:#d5d5d5;stop-opacity:1;"
         offset="0.50314021"
         id="stop41" /><stop
         style="stop-color:#d5d5d5;stop-opacity:0;"
         offset="1"
         id="stop42" /></linearGradient><linearGradient
       id="linearGradient37"
       inkscape:collect="always"><stop
         style="stop-color:#ffffff;stop-opacity:0.14441743;"
         offset="0"
         id="stop38" /><stop
         style="stop-color:#000000;stop-opacity:1;"
         offset="1"
         id="stop37" /></linearGradient><linearGradient
       id="linearGradient28"
       inkscape:collect="always"><stop
         style="stop-color:#d5d5d5;stop-opacity:1;"
         offset="0"
         id="stop28" /><stop
         style="stop-color:#000000;stop-opacity:1;"
         offset="0.42271441"
         id="stop30" /><stop
         style="stop-color:#ffffff;stop-opacity:1;"
         offset="0.55582625"
         id="stop32" /><stop
         style="stop-color:#000000;stop-opacity:1;"
         offset="0.81532097"
         id="stop31" /><stop
         style="stop-color:#d5d5d5;stop-opacity:1;"
         offset="1"
         id="stop29" /></linearGradient><linearGradient
       id="linearGradient26"
       inkscape:collect="always"><stop
         style="stop-color:#000000;stop-opacity:1;"
         offset="0"
         id="stop26" /><stop
         style="stop-color:#000000;stop-opacity:0;"
         offset="1"
         id="stop27" /></linearGradient><linearGradient
       id="linearGradient22"
       inkscape:collect="always"><stop
         style="stop-color:#d5d5d5;stop-opacity:1;"
         offset="0"
         id="stop22" /><stop
         style="stop-color:#d5d5d5;stop-opacity:0;"
         offset="1"
         id="stop23" /></linearGradient><linearGradient
       id="linearGradient16"
       inkscape:collect="always"><stop
         style="stop-color:#000000;stop-opacity:1;"
         offset="0.91498387"
         id="stop16" /><stop
         style="stop-color:#ffffff;stop-opacity:0;"
         offset="1"
         id="stop17" /></linearGradient><linearGradient
       id="linearGradient11"
       inkscape:collect="always"><stop
         style="stop-color:#550022;stop-opacity:1;"
         offset="0"
         id="stop11" /><stop
         style="stop-color:#2a0011;stop-opacity:1;"
         offset="1"
         id="stop12" /></linearGradient><clipPath
       clipPathUnits="userSpaceOnUse"
       id="clipPath5"><path
         style="color:#000000;fill:#d5d5d5;stroke-width:0.999998;stroke-linecap:round;stroke-linejoin:round;-inkscape-stroke:none;paint-order:markers stroke fill"
         d="m 140.20744,-8.9696101 c -3.54488,7.2130791 -5.47852,16.1534632 -5.48686,25.3690451 0,17.291895 6.64266,32.063775 16.02148,38.02811 h -0.0211 c 0,0 4.39996,3.721193 4.99147,9.274636 0.59151,5.553448 1.0025,23.186826 1.0025,23.186826 0,0 -0.62652,17.737383 -2.005,23.187353 -1.37849,5.44998 -4.51128,9.27463 -4.51128,9.27463 h 9.77247 9.77246 c 0,0 -3.13279,-3.82465 -4.51127,-9.27463 -1.37849,-5.44997 -2.00501,-23.187353 -2.00501,-23.187353 0,0 0.41099,-17.633378 1.0025,-23.186826 0.59152,-5.553443 4.99148,-9.274636 4.99148,-9.274636 h -0.0211 c 9.37882,-5.964332 16.02147,-20.736215 16.02147,-38.02811 -5.3e-4,-9.2088271 -1.9239,-18.147293 -5.45797,-25.3656188 -4.78816,0.6621394 -12.07844,1.048344 -19.79261,1.0485181 -7.70935,-0.00198 -14.98814,-0.3893894 -19.76373,-1.0519444 z"
         id="path6" /></clipPath><filter
       inkscape:collect="always"
       style="color-interpolation-filters:sRGB"
       id="filter8"
       x="-0.047078174"
       y="-0.038752156"
       width="1.0941563"
       height="1.0775043"><feGaussianBlur
         inkscape:collect="always"
         stdDeviation="0.24348178"
         id="feGaussianBlur8" /></filter><filter
       inkscape:collect="always"
       style="color-interpolation-filters:sRGB"
       id="filter10"
       x="-0.12854138"
       y="-0.0524695"
       width="1.2570828"
       height="1.104939"><feGaussianBlur
         inkscape:collect="always"
         stdDeviation="2.6664678"
         id="feGaussianBlur10" /></filter><radialGradient
       inkscape:collect="always"
       xlink:href="#linearGradient11"
       id="radialGradient13"
       cx="67.73333"
       cy="49.844086"
       fx="67.73333"
       fy="49.844086"
       r="23.86158"
       gradientTransform="matrix(0.83876049,0,0,1.1550346,10.921289,-7.7275581)"
       gradientUnits="userSpaceOnUse" /><clipPath
       clipPathUnits="userSpaceOnUse"
       id="clipPath15"><path
         style="color:#000000;fill:url(#radialGradient16);stroke-width:0.999998;stroke-linecap:round;stroke-linejoin:round;-inkscape-stroke:none;paint-order:markers stroke fill"
         d="m 120.36976,-1.3244071 c 0.62756,16.0941011 6.70641,29.6333391 15.11698,35.2784651 h -0.0201 c 0,0 5.83188,1.822111 8.76443,1.822111 2.93255,0 8.76442,-1.822111 8.76442,-1.822111 h -0.0201 c 8.41059,-5.645126 14.48991,-19.184363 15.11749,-35.2784651 z"
         id="path16" /></clipPath><radialGradient
       inkscape:collect="always"
       xlink:href="#linearGradient11"
       id="radialGradient16"
       gradientUnits="userSpaceOnUse"
       gradientTransform="matrix(0.83876048,0,0,1.1550346,87.419295,-40.345762)"
       cx="67.73333"
       cy="49.844086"
       fx="67.73333"
       fy="49.844086"
       r="23.86158" /><linearGradient
       inkscape:collect="always"
       xlink:href="#linearGradient16"
       id="linearGradient18"
       gradientUnits="userSpaceOnUse"
       x1="144.23106"
       y1="35.776169"
       x2="144.23141"
       y2="-2.1171889" /><filter
       inkscape:collect="always"
       style="color-interpolation-filters:sRGB"
       id="filter19"
       x="-0.071813049"
       y="-0.091534619"
       width="1.1436261"
       height="1.1830692"><feGaussianBlur
         inkscape:collect="always"
         stdDeviation="1.267188"
         id="feGaussianBlur19" /></filter><filter
       inkscape:collect="always"
       style="color-interpolation-filters:sRGB"
       id="filter20"
       x="-0.058924386"
       y="-0.010134098"
       width="1.1178488"
       height="1.0202682"><feGaussianBlur
         inkscape:collect="always"
         stdDeviation="0.52374243"
         id="feGaussianBlur20" /></filter><filter
       inkscape:collect="always"
       style="color-interpolation-filters:sRGB"
       id="filter21"
       x="-0.013424745"
       y="-0.0025741769"
       width="1.0268495"
       height="1.0051484"><feGaussianBlur
         inkscape:collect="always"
         stdDeviation="0.13526999"
         id="feGaussianBlur21" /></filter><filter
       inkscape:collect="always"
       style="color-interpolation-filters:sRGB"
       id="filter22"
       x="-0.0077322277"
       y="-0.0029972953"
       width="1.0154645"
       height="1.0059946"><feGaussianBlur
         inkscape:collect="always"
         stdDeviation="0.16025579"
         id="feGaussianBlur22" /></filter><linearGradient
       inkscape:collect="always"
       xlink:href="#linearGradient22"
       id="linearGradient23"
       x1="45.128406"
       y1="67.918789"
       x2="74.015976"
       y2="67.918793"
       gradientUnits="userSpaceOnUse" /><filter
       inkscape:collect="always"
       style="color-interpolation-filters:sRGB"
       id="filter23"
       x="-0.058602983"
       y="-0.010134098"
       width="1.117206"
       height="1.0202682"><feGaussianBlur
         inkscape:collect="always"
         stdDeviation="0.52374243"
         id="feGaussianBlur23" /></filter><filter
       inkscape:collect="always"
       style="color-interpolation-filters:sRGB"
       id="filter24"
       x="-0.0087559855"
       y="-0.65225056"
       width="1.017512"
       height="2.3045011"><feGaussianBlur
         inkscape:collect="always"
         stdDeviation="0.14538108"
         id="feGaussianBlur24" /></filter><linearGradient
       inkscape:collect="always"
       xlink:href="#linearGradient26"
       id="linearGradient27"
       x1="67.722961"
       y1="68.657028"
       x2="67.722961"
       y2="83.736351"
       gradientUnits="userSpaceOnUse" /><linearGradient
       inkscape:collect="always"
       xlink:href="#linearGradient28"
       id="linearGradient29"
       x1="42.855469"
       y1="133.62585"
       x2="92.658203"
       y2="133.62585"
       gradientUnits="userSpaceOnUse" /><filter
       inkscape:collect="always"
       style="color-interpolation-filters:sRGB"
       id="filter32"
       x="-0.00891145"
       y="-0.28364327"
       width="1.0178229"
       height="1.5672865"><feGaussianBlur
         inkscape:collect="always"
         stdDeviation="0.18492274"
         id="feGaussianBlur32" /></filter><clipPath
       clipPathUnits="userSpaceOnUse"
       id="clipPath36"><path
         style="color:#000000;fill:#d5d5d5;stroke-width:0.999998;stroke-linecap:round;stroke-linejoin:round;-inkscape-stroke:none;paint-order:markers stroke fill"
         d="m 62.525317,139.87253 c -15.324069,0.003 -27.960511,1.29425 -28.795139,2.94246 h -0.0951 v 0.1695 0.57257 H 91.41553 v -0.57257 -0.1695 h -0.048 c -0.83565,-1.65016 -13.499931,-2.94216 -28.842171,-2.94246 z"
         id="path37" /></clipPath><filter
       inkscape:collect="always"
       style="color-interpolation-filters:sRGB"
       id="filter37"
       x="-0.0092645443"
       y="-0.1281665"
       width="1.0185291"
       height="1.256333"><feGaussianBlur
         inkscape:collect="always"
         stdDeviation="0.22508441"
         id="feGaussianBlur37" /></filter><linearGradient
       inkscape:collect="always"
       xlink:href="#linearGradient37"
       id="linearGradient38"
       x1="33.635078"
       y1="141.7148"
       x2="91.41553"
       y2="141.7148"
       gradientUnits="userSpaceOnUse" /><filter
       inkscape:collect="always"
       style="color-interpolation-filters:sRGB"
       id="filter38"
       x="-0.057853099"
       y="-0.052379027"
       width="1.1157062"
       height="1.1047581"><feGaussianBlur
         inkscape:collect="always"
         stdDeviation="0.29628931"
         id="feGaussianBlur38" /></filter><filter
       inkscape:collect="always"
       style="color-interpolation-filters:sRGB"
       id="filter44"
       x="-1.6217971"
       y="-0.15112141"
       width="4.2435943"
       height="1.3022428"><feGaussianBlur
         inkscape:collect="always"
         stdDeviation="8.079996"
         id="feGaussianBlur44" /></filter><clipPath
       clipPathUnits="userSpaceOnUse"
       id="clipPath44"><path
         id="path45"
         style="display:inline;opacity:1;fill:url(#linearGradient45);fill-opacity:1;stroke:none;stroke-width:0.529169;stroke-linecap:round;stroke-linejoin:round;stroke-dasharray:none;stroke-opacity:1;paint-order:markers stroke fill"
         d="m -87.962407,2.1171831 c 0,0 -5.478515,16.1534629 -5.486852,25.3690449 -3e-6,17.291894 6.642653,32.063774 16.021473,38.028109 h -0.02106 c 0,0 4.39996,3.721193 4.991473,9.274636 0.591513,5.553448 1.002506,23.186826 1.002506,23.186826 0,0 -0.626525,17.737391 -2.005009,23.187361 -1.378487,5.44998 -4.51127,9.27463 -4.51127,9.27463 h 9.772462 9.772459 c 0,0 -3.132783,-3.82465 -4.51127,-9.27463 -1.378485,-5.44997 -2.00501,-23.187361 -2.00501,-23.187361 0,0 0.410993,-17.633378 1.002506,-23.186826 0.591513,-5.553443 4.991473,-9.274636 4.991473,-9.274636 h -0.02106 c 9.378823,-5.964332 16.021479,-20.736215 16.021476,-38.028109 -5.29e-4,-9.208827 -5.457973,-25.3690449 -5.457973,-25.3690449 h -19.792611 -19.763732 z"
         sodipodi:nodetypes="ccccscscccscsccccccc" /></clipPath><linearGradient
       inkscape:collect="always"
       xlink:href="#linearGradient41"
       id="linearGradient45"
       gradientUnits="userSpaceOnUse"
       x1="42.482749"
       y1="67.864468"
       x2="92.983916"
       y2="67.864468"
       gradientTransform="translate(-135.93201,-1.5869822)" /><filter
       inkscape:collect="always"
       style="color-interpolation-filters:sRGB"
       id="filter57"
       x="-0.057318849"
       y="-0.010216171"
       width="1.1146377"
       height="1.0204323"><feGaussianBlur
         inkscape:collect="always"
         stdDeviation="0.53719828"
         id="feGaussianBlur57" /></filter><linearGradient
       inkscape:collect="always"
       xlink:href="#linearGradient57"
       id="linearGradient58"
       x1="68.753258"
       y1="67.866402"
       x2="92.535589"
       y2="67.866398"
       gradientUnits="userSpaceOnUse" /><filter
       inkscape:collect="always"
       style="color-interpolation-filters:sRGB"
       id="filter58"
       x="-0.26468837"
       y="-0.28937125"
       width="1.5293767"
       height="1.5787425"><feGaussianBlur
         inkscape:collect="always"
         stdDeviation="2.7070357"
         id="feGaussianBlur58" /></filter><clipPath
       clipPathUnits="userSpaceOnUse"
       id="clipPath61"><path
         id="path61"
         style="display:inline;opacity:0.12;fill:#d5d5d5;fill-opacity:1;stroke:#ffffff;stroke-width:0.529169;stroke-linecap:round;stroke-linejoin:round;stroke-dasharray:none;stroke-opacity:1;paint-order:markers stroke fill"
         d="m 47.969601,3.7075932 c 0,0 -5.478518,16.1500368 -5.486853,25.3656198 -5e-6,17.291894 6.642653,32.063774 16.021473,38.028109 h -0.02106 c 0,0 4.39996,3.721193 4.991473,9.274636 0.591513,5.553448 1.002503,23.186826 1.002503,23.186826 0,0 -0.626523,17.737386 -2.005007,23.187356 -1.378487,5.44998 -4.51127,9.27463 -4.51127,9.27463 h 9.772459 9.772462 c 0,0 -3.132783,-3.82465 -4.51127,-9.27463 -1.378484,-5.44997 -2.00501,-23.187356 -2.00501,-23.187356 0,0 0.410993,-17.633378 1.002507,-23.186826 0.591513,-5.553443 4.991473,-9.274636 4.991473,-9.274636 H 76.96242 C 86.341243,61.13699 92.983898,46.365107 92.983896,29.073213 92.983366,19.864385 87.525922,3.7075932 87.525922,3.7075932 h -19.79259 z"
         sodipodi:nodetypes="ccccscscccscscccccc" /></clipPath><filter
       inkscape:collect="always"
       style="color-interpolation-filters:sRGB"
       id="filter61"
       x="-0.2993513"
       y="-0.055809967"
       width="1.5987026"
       height="1.1116199"><feGaussianBlur
         inkscape:collect="always"
         stdDeviation="2.934663"
         id="feGaussianBlur61" /></filter><radialGradient
       inkscape:collect="always"
       xlink:href="#linearGradient70"
       id="radialGradient71"
       cx="134.93881"
       cy="80.400253"
       fx="134.93881"
       fy="80.400253"
       r="7.8594537"
       gradientTransform="matrix(1,0,0,1.1417731,0,-11.702272)"
       gradientUnits="userSpaceOnUse" /><radialGradient
       inkscape:collect="always"
       xlink:href="#linearGradient71"
       id="radialGradient73"
       cx="142.13524"
       cy="66.174278"
       fx="142.13524"
       fy="66.174278"
       r="6.9424963"
       gradientTransform="matrix(1,0,0,1.2412441,0,-16.498709)"
       gradientUnits="userSpaceOnUse" /><radialGradient
       inkscape:collect="always"
       xlink:href="#linearGradient73"
       id="radialGradient75"
       cx="82.443123"
       cy="141.60533"
       fx="82.443123"
       fy="141.60533"
       r="6.9424963"
       gradientTransform="matrix(1,0,0,1.2412441,0,-34.765284)"
       gradientUnits="userSpaceOnUse" /><radialGradient
       inkscape:collect="always"
       xlink:href="#linearGradient75"
       id="radialGradient77"
       cx="164.28789"
       cy="49.364941"
       fx="164.28789"
       fy="49.364941"
       r="8.6761074"
       gradientTransform="matrix(1,0,0,0.81849294,0,9.5503598)"
       gradientUnits="userSpaceOnUse" /><filter
       inkscape:collect="always"
       style="color-interpolation-filters:sRGB"
       id="filter85"
       x="-0.0030715341"
       y="-0.0072784051"
       width="1.0061431"
       height="1.0145568"><feGaussianBlur
         inkscape:collect="always"
         stdDeviation="0.069077401"
         id="feGaussianBlur85" /></filter><clipPath
       clipPathUnits="userSpaceOnUse"
       id="clipPath86"><path
         style="color:#000000;fill:url(#radialGradient87);stroke-width:0.996363;stroke-linecap:round;stroke-linejoin:round;-inkscape-stroke:none;paint-order:markers stroke fill"
         d="m 162.17635,118.1306 a 7.6487135,9.1540001 49.036965 0 1 -11.81191,4.44361 7.6487135,9.1540001 49.036965 0 1 -2.51591,-10.90873 7.6487135,9.1540001 49.036965 0 1 11.8119,-4.44362 7.6487135,9.1540001 49.036965 0 1 2.51592,10.90874 z"
         id="path87" /></clipPath><radialGradient
       inkscape:collect="always"
       xlink:href="#linearGradient70"
       id="radialGradient87"
       gradientUnits="userSpaceOnUse"
       gradientTransform="matrix(0.91150209,0.41129547,-0.59138949,0.97668026,78.336705,-22.344143)"
       cx="134.93881"
       cy="80.400253"
       fx="134.93881"
       fy="80.400253"
       r="7.8594537" /><radialGradient
       inkscape:collect="always"
       xlink:href="#linearGradient89"
       id="radialGradient90"
       cx="163.26566"
       cy="93.695076"
       fx="163.26566"
       fy="93.695076"
       r="7.8594537"
       gradientTransform="matrix(1,0,0,1.1417731,-25.591415,-24.436267)"
       gradientUnits="userSpaceOnUse" /><radialGradient
       inkscape:collect="always"
       xlink:href="#linearGradient90"
       id="radialGradient92"
       cx="143.9101"
       cy="68.390106"
       fx="143.9101"
       fy="68.390106"
       r="6.9424963"
       gradientTransform="matrix(1,0,0,1.2412441,0,-16.498709)"
       gradientUnits="userSpaceOnUse" /><radialGradient
       inkscape:collect="always"
       xlink:href="#linearGradient92"
       id="radialGradient94"
       cx="82.889679"
       cy="144.10834"
       fx="82.889679"
       fy="144.10834"
       r="6.9424963"
       gradientTransform="matrix(1,0,0,1.2412441,0,-34.765284)"
       gradientUnits="userSpaceOnUse" /><radialGradient
       inkscape:collect="always"
       xlink:href="#linearGradient94"
       id="radialGradient96"
       cx="167.79214"
       cy="52.617016"
       fx="167.79214"
       fy="52.617016"
       r="8.6761074"
       gradientTransform="matrix(1,0,0,0.81849294,0,9.5503598)"
       gradientUnits="userSpaceOnUse" /></defs><g
     inkscape:label="Layer 1"
     inkscape:groupmode="layer"
     id="layer1"
     style="display:inline"><ellipse
       style="fill:url(#radialGradient73);fill-opacity:1;stroke:none;stroke-width:0.529167;stroke-linecap:round;stroke-linejoin:round;stroke-dasharray:none;stroke-opacity:1;paint-order:markers stroke fill"
       id="ellipse62"
       cx="143.9101"
       cy="68.390106"
       rx="6.9424963"
       ry="8.6173325"
       transform="rotate(27.596406)" /><ellipse
       style="fill:url(#radialGradient77);fill-opacity:1;stroke:none;stroke-width:0.529167;stroke-linecap:round;stroke-linejoin:round;stroke-dasharray:none;stroke-opacity:1;paint-order:markers stroke fill"
       id="path63"
       cx="167.79214"
       cy="52.617016"
       rx="8.6761074"
       ry="7.1013327"
       transform="rotate(29.32452)" /><ellipse
       style="opacity:0.4;mix-blend-mode:soft-light;fill:url(#radialGradient96);fill-opacity:1;stroke:none;stroke-width:0.529167;stroke-linecap:round;stroke-linejoin:round;stroke-dasharray:none;stroke-opacity:1;paint-order:markers stroke fill"
       id="ellipse94"
       cx="167.79214"
       cy="52.617016"
       rx="8.6761074"
       ry="7.1013327"
       transform="rotate(29.32452)" /><ellipse
       style="mix-blend-mode:soft-light;fill:url(#radialGradient92);stroke:none;stroke-width:0.529167;stroke-linecap:round;stroke-linejoin:round;stroke-dasharray:none;stroke-opacity:1;paint-order:markers stroke fill;opacity:0.4"
       id="ellipse90"
       cx="143.9101"
       cy="68.390106"
       rx="6.9424963"
       ry="8.6173325"
       transform="rotate(27.596406)" /><ellipse
       style="fill:url(#radialGradient75);fill-opacity:1;stroke:none;stroke-width:0.529167;stroke-linecap:round;stroke-linejoin:round;stroke-dasharray:none;stroke-opacity:1;paint-order:markers stroke fill"
       id="path62"
       cx="82.889679"
       cy="144.10834"
       rx="6.9424963"
       ry="8.6173325"
       transform="rotate(-10.285662)" /><ellipse
       style="fill:url(#radialGradient71);fill-opacity:1;stroke:none;stroke-width:0.531099;stroke-linecap:round;stroke-linejoin:round;stroke-dasharray:none;stroke-opacity:1;paint-order:markers stroke fill"
       id="ellipse63"
       cx="137.67424"
       cy="82.542252"
       rx="7.8594537"
       ry="8.9737129"
       transform="matrix(0.91150208,0.41129547,-0.5179571,0.8554066,0,0)" /><ellipse
       style="display:inline;mix-blend-mode:soft-light;fill:url(#radialGradient90);stroke:none;stroke-width:0.531099;stroke-linecap:round;stroke-linejoin:round;stroke-dasharray:none;stroke-opacity:1;paint-order:markers stroke fill;opacity:0.4"
       id="ellipse87"
       cx="137.67424"
       cy="82.542252"
       rx="7.8594537"
       ry="8.9737129"
       transform="matrix(0.91150208,0.41129547,-0.5179571,0.8554066,0,0)" /><path
       id="path64"
       style="color:#000000;fill:#4c3014;stroke-width:0.999999;stroke-linecap:round;-inkscape-stroke:none;paint-order:fill markers stroke"
       d="m 99.007126,100.66556 c -0.30919,0.0143 -0.59991,0.11635 -0.8408,0.26072 -0.386398,0.23159 -0.680917,0.55964 -0.90419,0.87369 l -0.0033,0.005 -0.0038,0.006 c -0.283058,0.42243 -0.756447,0.8246 -1.091988,1.45138 -0.336961,0.48969 -0.853753,0.93366 -1.365103,1.44707 -0.439515,0.4413 -0.879188,0.95127 -1.123924,1.61392 -2.10954,0.11719 -4.197541,-0.23826 -6.36508,-0.52431 l -0.0286,-0.003 h -0.02908 c -2.840556,-0.0374 -5.889805,-0.78462 -7.445629,-3.19969 -0.06997,-0.10836 -0.179984,-0.18462 -0.306005,-0.21211 v -4.7e-4 c -0.126501,-0.0274 -0.258688,-0.003 -0.367491,0.0667 -0.227329,0.14607 -0.292711,0.44905 -0.145853,0.67588 1.809752,2.80923 5.222287,3.598 8.214931,3.64344 2.217145,0.29317 4.448865,0.68092 6.7912,0.50858 0.838987,0.33678 1.757472,0.45216 2.560046,0.63775 0.83568,0.19325 1.488755,0.46446 1.895126,1.06148 0.36334,0.82996 0.32777,1.5905 0.011,2.29122 -0.002,0.004 -0.005,0.01 -0.007,0.0134 -0.08695,0.0776 -0.143257,0.18379 -0.15873,0.29932 -0.349019,0.58779 -0.902677,1.11412 -1.585781,1.50857 l -0.01097,0.008 -0.01047,0.005 c -1.637617,1.05569 -3.523729,1.25867 -5.444208,0.99808 l -0.06482,-0.01 -0.06673,0.01 c -0.875718,0.12054 -2.097954,0.19764 -3.175868,0.58151 -0.538957,0.19194 -1.051503,0.46535 -1.450422,0.88989 -0.39892,0.42454 -0.663634,1.0037 -0.707814,1.70066 l 0.0033,-0.0357 c -0.087,0.63327 -0.100724,1.15285 -0.333173,1.53288 -0.140241,0.22949 -0.06841,0.52918 0.160629,0.67016 0.229667,0.1413 0.530401,0.0696 0.671589,-0.16015 0.408461,-0.66782 0.392114,-1.36752 0.466633,-1.9099 l 0.0038,-0.0176 v -0.018 c 0.03153,-0.49729 0.192497,-0.82299 0.446613,-1.09343 0.254117,-0.27044 0.622139,-0.48132 1.066726,-0.63966 0.889174,-0.31665 2.048951,-0.40501 2.981397,-0.53335 2.030041,0.25411 4.128339,0.0391 5.964702,-1.14203 0.443564,-0.25772 0.847496,-0.56654 1.197327,-0.91706 0.144,0.81477 0.38694,1.5994 0.59676,2.35652 0.30983,1.11804 0.54286,2.16582 0.38798,3.15489 -0.1667,0.19382 -0.26224,0.43825 -0.27788,0.66253 -0.0201,0.28792 0.0487,0.54184 0.13298,0.77979 -0.83984,1.88984 2.052894,1.57913 0.920904,-0.32603 -0.0951,-0.15997 -0.0858,-0.31694 -0.0811,-0.3856 0.004,-0.0687 -0.002,-0.062 0.0577,-0.10819 l 0.14585,-0.11154 0.0357,-0.18207 c 0.25407,-1.29636 -0.0501,-2.54797 -0.381794,-3.74499 -0.31222,-1.12665 -0.65074,-2.21439 -0.68351,-3.25832 0.0298,-0.0584 0.0621,-0.11568 0.0891,-0.17541 0.36664,-0.81094 0.4495,-1.74952 0.14919,-2.69017 1.671974,0.66209 3.450304,1.20653 5.334584,1.12441 0.64445,0.3158 0.97339,0.8769 1.1997,1.63059 0.2283,0.76028 0.3162,1.66825 0.50239,2.4895 0.28128,1.52459 0.33602,3.01655 -0.67541,4.10008 l -0.0738,0.0815 -0.0343,0.10625 c -0.24022,0.75859 0.0628,1.41164 0.2793,1.93087 0.21647,0.51923 0.36797,0.91141 0.21641,1.40896 -0.0783,0.25755 0.0667,0.52987 0.32411,0.60867 0.25755,0.0783 0.52987,-0.0667 0.60867,-0.32411 0.25165,-0.82609 -0.0257,-1.5341 -0.24833,-2.06815 -0.22044,-0.52878 -0.35988,-0.87754 -0.2469,-1.25024 1.17605,-1.40357 1.09831,-3.21891 0.81077,-4.77548 l -0.002,-0.01 -0.002,-0.011 c -0.16663,-0.72932 -0.25514,-1.67085 -0.52431,-2.5672 -0.087,-0.28968 -0.20063,-0.57781 -0.34318,-0.85272 1.92513,0.32745 3.85152,0.75262 5.29741,1.85272 l 0.011,0.008 0.0124,0.01 c 2.84282,1.91707 5.35059,2.65405 8.94278,2.97042 0.26042,0.22491 0.5436,0.41677 0.88464,0.59295 0.4209,0.21742 0.8771,0.43434 1.25738,0.66301 0.38028,0.22867 0.67151,0.47585 0.78169,0.6611 0.0894,0.15034 0.0488,0.27428 -0.0415,0.45758 -0.70145,0.3924 -1.46624,0.30671 -2.38511,0.11153 -0.97441,-0.20698 -2.0859,-0.51987 -3.16681,-0.003 l -0.0162,0.01 -0.0162,0.01 c -0.55109,0.31458 -1.63724,0.70712 -2.46091,1.30981 -0.41183,0.30135 -1.15255,1.2422 -1.43236,1.69668 -0.26962,0.43793 -0.61089,1.65173 -0.22225,2.2153 l 0.0143,0.0233 0.0181,0.02 c 0.20827,0.23911 0.41865,0.48715 0.56911,0.63202 0.0188,0.018 0.0352,0.0347 0.0701,0.0615 0.0174,0.0134 0.0366,0.0298 0.0887,0.0558 0.0131,0.006 0.0286,0.0139 0.0486,0.0215 0.0201,0.008 0.0768,0.0218 0.0772,0.0219 4.2e-4,7e-5 0.1312,0.01 0.13155,0.01 3.4e-4,-4e-5 0.19421,-0.056 0.19447,-0.0563 2.5e-4,-1.4e-4 0.17667,-0.158 0.17683,-0.15825 1.8e-4,-2.4e-4 0.0737,-0.17265 0.0738,-0.17301 8e-5,-3.6e-4 0.0108,-0.11678 0.0108,-0.11726 -1e-5,-4.7e-4 -0.005,-0.0545 -0.009,-0.0739 -0.0139,-0.0776 -0.027,-0.10246 -0.0377,-0.12583 -0.0213,-0.0468 -0.0364,-0.0681 -0.0525,-0.0939 -0.88397,-0.91814 -0.37198,-1.37989 0.26949,-2.48683 0.065,-0.20837 0.26539,-0.44896 0.58722,-0.68446 0.63535,-0.46489 1.64058,-0.84083 2.33841,-1.23402 0.69046,-0.32873 1.54271,-0.13544 2.54384,0.0772 1.00188,0.21283 2.17865,0.42001 3.2569,-0.2898 l 0.0882,-0.0577 0.0558,-0.0867 c 0.0882,-0.13809 0.15128,-0.28291 0.19351,-0.42946 0.0228,-0.008 0.045,-0.0184 0.0663,-0.0301 1.60226,-1.14359 3.78358,-1.22385 5.84364,-1.71496 0.38137,0.15972 0.7925,0.56014 1.14776,1.05387 0.37357,0.51917 0.63521,1.05125 1.0305,1.41086 0.19937,0.18159 0.50823,0.16708 0.6897,-0.0324 0.1819,-0.19943 0.16739,-0.50865 -0.0324,-0.69016 -0.11867,-0.10797 -0.48412,-0.68542 -0.89705,-1.25931 -0.41291,-0.57387 -0.92312,-1.1976 -1.6773,-1.45899 l -0.1387,-0.0486 -0.14204,0.0357 c -1.82106,0.46473 -4.07996,0.49326 -5.98472,1.64394 -0.0118,-0.0228 -0.0213,-0.0472 -0.0343,-0.0691 -0.26136,-0.4394 -0.67767,-0.73404 -1.11678,-0.99808 -0.4391,-0.26405 -0.91379,-0.48913 -1.31315,-0.69543 -0.39934,-0.20629 -0.72352,-0.41786 -0.81077,-0.51525 l -0.12964,-0.14394 -0.19304,-0.0162 c -3.5733,-0.30217 -5.83699,-0.97054 -8.59481,-2.83031 l 0.0219,0.0162 c -1.98495,-1.51024 -4.54859,-1.84867 -6.79359,-2.21401 -0.0149,6.6e-4 -0.0297,0.002 -0.0444,0.004 -0.13737,-0.0989 -0.28579,-0.18864 -0.449,-0.26549 l -0.11534,-0.0539 -0.12821,0.01 c -2.19438,0.15628 -4.35483,-0.73734 -6.478054,-1.64489 -0.08936,-0.0349 -0.187002,-0.0426 -0.28074,-0.0223 -0.455963,-0.25504 -0.959014,-0.41162 -1.450426,-0.52526 -0.752052,-0.17391 -1.501992,-0.27841 -2.115339,-0.46663 0.181738,-0.39548 0.474255,-0.74116 0.830789,-1.09914 0.473895,-0.47582 1.051928,-0.95344 1.491889,-1.5996 l 0.01621,-0.0233 0.01239,-0.0272 c 0.222765,-0.43001 0.669909,-0.8174 1.057669,-1.39609 l -0.0072,0.0129 c 0.168528,-0.23704 0.392168,-0.47224 0.608668,-0.602 0.21651,-0.12976 0.38916,-0.16745 0.60343,-0.0953 l 0.011,0.005 0.0143,0.004 c 1.088094,0.30174 2.108874,0.9282 3.233534,1.46807 l 0.0615,0.029 0.0667,0.0124 c 1.42252,0.24723 2.95488,0.70492 4.58577,0.44518 1.0051,-0.0355 2.04977,0.2687 3.17682,0.45567 0.26489,0.0434 0.51509,-0.13528 0.56006,-0.3999 0.0445,-0.2662 -0.13554,-0.51796 -0.40182,-0.56197 -1.05135,-0.1744 -2.16965,-0.51768 -3.39559,-0.46854 h -0.0305 l -0.029,0.006 c -1.34454,0.22381 -2.75156,-0.16481 -4.23687,-0.42707 -1.03367,-0.50195 -2.07909,-1.14619 -3.309334,-1.49189 -0.19217,-0.0641 -0.38455,-0.0872 -0.57006,-0.0786 z"
       sodipodi:nodetypes="csccscscccccccccccsccccccccccssccccccccsscccscscscccssccccsccccscccsccccscccccssscscccssccccsccsccssscccsscsccccccscccscccccssccccccccccccscscccccsccccccccccccccccc" /><rect
       style="display:none;opacity:1;fill:#333333;fill-opacity:1;stroke:none;stroke-width:0.529167;stroke-linecap:round;stroke-linejoin:round;stroke-dasharray:none;stroke-opacity:1;paint-order:markers stroke fill"
       id="rect58"
       width="134.93385"
       height="133.53322"
       x="0.26615644"
       y="1.6277648"
       sodipodi:insensitive="true" /><path
       id="path1"
       style="display:inline;opacity:0.12;fill:#d5d5d5;fill-opacity:1;stroke:#ffffff;stroke-width:0.529167;stroke-linecap:round;stroke-linejoin:round;stroke-dasharray:none;stroke-opacity:1;paint-order:markers stroke fill"
       d="m 47.969601,3.7075933 c 0,0 -5.478517,16.1500367 -5.486852,25.3656187 -5e-6,17.291894 6.642652,32.063776 16.021472,38.028111 h -0.02105 c 0,0 4.399961,3.721191 4.991474,9.274635 0.591513,5.553447 1.002504,23.186825 1.002504,23.186825 0,0 -0.626523,17.737387 -2.005008,23.187357 -1.378487,5.44998 -4.511271,9.27463 -4.511271,9.27463 h 9.772461 9.772461 c 0,0 -3.132783,-3.82465 -4.51127,-9.27463 -1.378485,-5.44997 -2.005009,-23.187357 -2.005009,-23.187357 0,0 0.410991,-17.633378 1.002505,-23.186825 0.591513,-5.553444 4.991474,-9.274635 4.991474,-9.274635 h -0.02105 C 86.341264,61.136989 92.98392,46.365107 92.983916,29.073212 92.983319,19.864385 87.525944,3.7075933 87.525944,3.7075933 H 67.733332 Z"
       sodipodi:nodetypes="ccccscscccscscccccc" /><path
       id="path2"
       style="display:inline;opacity:0.12;fill:#d5d5d5;fill-opacity:1;stroke-width:0.529167;stroke-linecap:round;stroke-linejoin:round;stroke-opacity:0.41641;paint-order:markers stroke fill"
       d="m 67.733347,131.78213 c -15.32407,0.003 -27.96051,1.29425 -28.79514,2.94246 h -0.0951 v 0.1695 0.57257 h 57.78045 v -0.57257 -0.1695 h -0.048 c -0.83565,-1.65016 -13.49993,-2.94216 -28.84217,-2.94246 z"
       sodipodi:nodetypes="cccccccccc" /><path
       id="path4"
       clip-path="url(#clipPath5)"
       style="color:#000000;display:inline;opacity:0.2;fill:#000000;stroke:#000000;stroke-linecap:round;stroke-linejoin:round;stroke-opacity:1;-inkscape-stroke:none;paint-order:markers stroke fill;filter:url(#filter10)"
       transform="translate(-92.237739,12.673777)"
       d="m 140.2069,-10.556594 c -0.60872,0.112323 -1.09666,0.5681921 -1.25005,1.1678878 l -0.17363,-0.2811198 c -3.67311,7.4739956 -5.64176,16.6314802 -5.6503,26.068176 v 0.0021 c 0,17.574081 6.57955,32.712079 16.55454,39.208976 0.003,0.01053 0.005,0.02104 0.008,0.03152 0,0 3.9274,3.42673 4.43901,8.229989 0.56118,5.268799 0.98904,22.954505 0.99063,23.019783 -0.002,0.05399 -0.15537,4.389718 -0.48059,9.447485 -0.32724,5.089167 -0.87197,10.966077 -1.47484,13.349567 -1.28157,5.06683 -4.19923,8.65787 -4.19923,8.65787 -0.84908,1.03671 -0.11117,2.59414 1.22887,2.59364 h 9.77149 9.77305 c 1.34004,4.9e-4 2.07794,-1.55693 1.22886,-2.59364 0,0 -2.91972,-3.59105 -4.20129,-8.65787 -0.60287,-2.38348 -1.1476,-8.2604 -1.47485,-13.349567 -0.32603,-5.070335 -0.47892,-9.438246 -0.48007,-9.470739 0.003,-0.108476 0.43169,-17.734202 0.99219,-22.996529 0.51162,-4.803261 4.43745,-8.229989 4.43745,-8.229989 0.007,-0.01232 0.0129,-0.02472 0.0191,-0.03721 9.96974,-6.500285 16.54318,-21.634714 16.54318,-39.203291 v -5.17e-4 -5.17e-4 -5.16e-4 -5.17e-4 c -6.1e-4,-9.4297778 -1.95766,-18.5836278 -5.6193,-26.0624916 -0.30126,-0.6154804 -0.9634,-0.9682254 -1.64227,-0.8748824 l -0.80667,3.2540668 c 3.1255,6.79553525 4.89371,15.0970289 4.89427,23.6853762 0,16.885304 -6.62325,31.178135 -15.28692,36.687683 -0.0419,0.08581 -0.076,0.175231 -0.1018,0.267167 l -0.0506,-0.14056 c 0,0 -4.87347,4.015145 -5.54489,10.31875 -0.62078,5.828347 -1.00975,23.317956 -1.00975,23.317956 -9.3e-4,0.03134 -9.3e-4,0.06271 0,0.09405 0,0 0.1577,4.453794 0.48834,9.595798 0.33064,5.141999 0.78863,10.857229 1.56424,13.923699 0.78168,3.09048 2.02005,5.54434 3.0763,7.29878 h -6.79907 -6.797 c 1.05624,-1.75444 2.29256,-4.20836 3.07423,-7.29878 0.77561,-3.06646 1.23619,-8.7817 1.56683,-13.923699 0.33064,-5.142004 0.48628,-9.595796 0.48628,-9.595798 0.002,-0.03132 0.002,-0.06269 0.002,-0.09405 0,0 -0.39104,-17.489609 -1.01183,-23.317956 -0.67142,-6.303607 -5.54488,-10.31875 -5.54488,-10.31875 l -0.0253,0.06873 c -0.0374,-0.06814 -0.0798,-0.133438 -0.12682,-0.195367 -8.66368,-5.509549 -15.28538,-19.802381 -15.28538,-36.687683 0.008,-8.5944939 1.78504,-16.89673262 4.92012,-23.6874428 l -0.8025,-3.2561322 -0.004,0.06098 c -0.0698,-0.02991 -0.14163,-0.05478 -0.21498,-0.07441 z"
       sodipodi:nodetypes="cccssccscsscccccsscsccscccscccccccsccsscccssccsccccccccc" /><path
       id="path7"
       style="display:inline;opacity:0.6;fill:#550022;fill-opacity:1;stroke-width:0.529167;stroke-linecap:round;stroke-linejoin:round;stroke-opacity:0.41641;paint-order:markers stroke fill"
       d="m 43.871752,31.293796 c 0.627567,16.094101 6.706414,29.633338 15.116987,35.278466 h -0.02008 c 0,0 5.831877,1.822111 8.764424,1.822111 2.932547,0 8.764424,-1.822111 8.764424,-1.822111 h -0.02008 C 84.888015,60.927135 90.967336,47.387898 91.594912,31.293796 Z"
       sodipodi:nodetypes="ccczcccc"
       inkscape:label="wine" /><path
       id="rect8"
       style="display:inline;opacity:0.2;fill:url(#linearGradient27);stroke-width:3.175;stroke-linecap:round;stroke-linejoin:round;paint-order:markers stroke fill;filter:url(#filter8)"
       d="m 67.72296,69.981871 c 2.115355,0 6.206234,-1.324843 6.206234,-1.324843 0,0 -0.228231,0.280999 -0.610491,0.702498 -0.382261,0.421499 -0.918552,0.983498 -1.534672,1.545497 -0.61612,0.561999 -1.31207,1.123998 -2.013649,1.545497 -0.701578,0.421499 -1.408786,11.285831 -2.047422,11.285831 -0.638636,0 -1.345844,-10.864332 -2.047422,-11.285831 -0.701579,-0.421499 -1.397528,-0.983498 -2.013649,-1.545497 -0.61612,-0.561999 -1.15241,-1.123997 -1.534671,-1.545497 -0.38226,-0.421499 -0.610491,-0.702498 -0.610491,-0.702498 0,0 4.090878,1.324843 6.206233,1.324843 z"
       sodipodi:nodetypes="zcssssssscz" /><path
       id="path8"
       style="display:inline;opacity:0.12;fill:url(#linearGradient23);fill-opacity:1;stroke-width:0.529167;stroke-linecap:round;stroke-linejoin:round;stroke-opacity:0.41641;paint-order:markers stroke fill;filter:url(#filter23)"
       d="M 54.668058,6.353237 C 53.025632,6.2392046 51.385379,6.0946933 49.750315,5.9013399 45.871513,14.761086 44.579656,24.519802 45.33347,34.124248 c 0.361453,4.695818 1.299283,9.524422 2.833555,13.988704 1.689018,4.845192 4.079998,9.535158 7.561806,13.345028 1.343506,1.476434 3.040525,2.883642 4.752259,4.059033 3.661048,3.317433 4.288174,8.195306 4.218919,13.150822 0.442864,7.394292 0.738653,14.803403 0.755614,22.211145 -0.383799,7.33603 -0.03006,14.70164 -1.368074,21.94109 -0.569899,2.44787 -5.22264,7.95031 0.388808,7.009 0,0 0.888934,-3.29274 1.60889,-5.5633 0.719955,-2.27056 0.182537,-7.59409 0.182537,-7.59409 -0.616186,-6.23033 -0.01631,-9.49271 -0.01631,-18.748978 0,-9.256269 1.047625,-33.852315 -0.612916,-37.216563 C 59.422756,48.112952 39.69011,38.557475 54.668058,6.353237 Z"
       sodipodi:nodetypes="cccccccccczczsc" /><path
       id="path19"
       style="display:inline;opacity:0.1;mix-blend-mode:normal;fill:#000000;fill-opacity:1;stroke-width:0.529167;stroke-linecap:round;stroke-linejoin:round;stroke-opacity:0.41641;paint-order:markers stroke fill;filter:url(#filter20)"
       d="m 76.087865,6.8824037 c 1.642426,-0.1140324 8.574346,-0.7877104 10.20941,-0.9810638 3.878802,8.8597461 5.170659,18.6184621 4.416845,28.2229081 -0.361453,4.695818 -1.299283,9.524422 -2.833555,13.988704 -1.689018,4.845192 -4.079998,9.535158 -7.561806,13.345028 -1.343506,1.476434 -3.040525,2.883642 -4.752259,4.059033 -3.661048,3.317433 -4.288174,8.195306 -4.218919,13.150822 -0.442864,7.394292 -0.738653,14.803403 -0.755614,22.211145 0.383799,7.33603 0.03006,14.70164 1.368074,21.94109 0.569899,2.44787 5.22264,7.95031 -0.388808,7.009 0,0 -0.888934,-3.29274 -1.60889,-5.5633 -0.719955,-2.27056 -0.182537,-7.59409 -0.182537,-7.59409 0.616186,-6.23033 0.01631,-9.49271 0.01631,-18.748978 0,-9.256269 -0.109076,-29.041441 1.551465,-32.405689 0.776975,-1.574148 7.865995,-6.285589 8.971178,-7.814978 1.105182,-1.529389 -4.712022,-4.687599 -3.467021,-6.272566 1.245001,-1.584967 6.832387,-2.354946 8.028818,-4.095829 1.196431,-1.740883 -1.998091,-4.452671 -1.038618,-6.449808 0.959473,-1.997137 3.34087,-4.147485 3.874997,-6.501213 C 88.251062,32.02889 86.937918,29.471782 86.85831,26.661124 86.7787,23.850466 87.011167,14.443373 86.129435,11.075448 85.247704,7.7075243 77.960109,10.907934 76.087865,6.8824037 Z"
       sodipodi:nodetypes="cccccccccczczssssssssc" /><path
       id="path20"
       style="display:inline;opacity:0.1;fill:#000000;fill-opacity:1;stroke:none;stroke-width:0.529167;stroke-linecap:round;stroke-linejoin:round;stroke-dasharray:none;stroke-opacity:1;paint-order:markers stroke fill;filter:url(#filter21)"
       d="m 68.672973,131.53453 h 7.738282 c -2.496064,-3.82196 -3.943371,-8.28454 -4.276821,-12.83144 -0.705402,-6.34301 -1.05171,-12.72367 -1.248688,-19.099643 0.257324,-7.768458 0.340625,-15.554464 1.068092,-23.296428 0.551971,-3.63737 2.578744,-6.931006 5.248432,-9.411164 1.176378,-0.823222 2.472583,-1.765241 3.543447,-2.815549 5.237157,-5.067157 8.367174,-12.000127 10.188975,-18.87781 1.952751,-7.569767 2.378321,-15.624277 1.451554,-23.382597 -0.681038,-5.65216 -2.168751,-11.223802 -4.541398,-16.4025596 0,0 8.258593,23.0334776 -1.5875,39.8237866 -9.846093,16.790309 -16.99858,20.063275 -16.99858,20.063275 l 0.974648,9.461447 -1.142019,9.461447 0.974648,9.461447 -1.142019,9.461448 0.974648,9.46145 -1.142019,9.46144 z"
       sodipodi:nodetypes="cccccccccczcccccccc" /><path
       id="path21"
       style="display:inline;opacity:0.4;fill:#000000;fill-opacity:1;stroke:none;stroke-width:0.529167;stroke-linecap:round;stroke-linejoin:round;stroke-dasharray:none;stroke-opacity:1;paint-order:markers stroke fill;filter:url(#filter22)"
       d="m 48.267128,3.7041668 c -3.491541,7.2130722 -5.39642,16.1534212 -5.404629,25.3689942 -5e-6,17.291876 6.542756,32.06384 15.780458,38.028169 h -0.02066 c 0,0 4.334009,3.720931 4.916623,9.274369 0.582612,5.553441 0.98714,23.187214 0.98714,23.187214 0,0 -0.617066,17.737247 -1.97481,23.187217 -1.357745,5.44997 -4.443454,9.27436 -4.443454,9.27436 h 0.433431 c 0,0 2.946513,-3.82439 4.243163,-9.27436 1.29665,-5.44997 1.886323,-23.187217 1.886323,-23.187217 0,0 -0.386765,-17.633773 -0.943161,-23.187214 -0.556397,-5.553438 -4.69514,-9.274369 -4.69514,-9.274369 h 0.01961 C 50.229983,61.137001 43.98157,46.365037 43.981576,29.073161 c 0.0078,-9.176838 1.813958,-18.078273 5.121681,-25.2754598 -0.261858,-0.033439 -0.587723,-0.058545 -0.836129,-0.093534 z m 38.961022,0.0031 c -0.248968,0.034955 -0.575315,0.060134 -0.837718,0.093534 3.297606,7.2023552 5.094098,16.1022412 5.094658,25.2723592 4e-6,17.291877 -6.248402,32.063841 -15.070438,38.028169 h 0.01961 c 0,0 -4.138741,3.720931 -4.695141,9.274369 -0.556396,5.553441 -0.943159,23.187214 -0.943159,23.187214 0,0 0.589673,17.737248 1.886321,23.187218 1.296652,5.44997 4.243163,9.27436 4.243163,9.27436 h 0.433431 c 0,0 -3.085707,-3.82439 -4.443453,-9.27436 -1.357745,-5.44997 -1.97481,-23.187218 -1.97481,-23.187218 0,0 0.404527,-17.633773 0.98714,-23.187214 0.582613,-5.553438 4.916623,-9.274369 4.916623,-9.274369 h -0.02066 C 86.061412,61.137002 92.604169,46.365038 92.604166,29.073161 92.603577,19.864343 90.709041,10.925586 87.22815,3.7072668 Z" /><path
       id="path24"
       style="display:inline;opacity:0.1;fill:#ffffff;stroke-width:0.529167;stroke-linecap:round;stroke-linejoin:round;paint-order:markers stroke fill;filter:url(#filter24)"
       d="m 48.313837,4.9230683 c 0,0 13.448813,-0.1613314 19.39518,-0.1613314 5.946367,0 19.39518,0.1613314 19.39518,0.1613314 l 0.529167,0.2674698 c 0,0 -13.972025,0.1061383 -19.924347,0.1061383 -5.952322,0 -19.924347,-0.1061383 -19.924347,-0.1061383 z"
       sodipodi:nodetypes="czcczcc" /><path
       id="path27"
       style="display:inline;opacity:0.2;fill:url(#linearGradient29);fill-opacity:1;stroke-width:0.529167;stroke-linecap:round;stroke-linejoin:round;stroke-opacity:0.41641;paint-order:markers stroke fill;filter:url(#filter32)"
       d="m 64.912109,132.85547 c -7.383178,0.14999 -14.758854,0.31528 -22.05664,1.55273 16.600911,0 33.201823,0 49.802734,0 -6.614263,-1.12704 -13.298149,-1.35689 -20,-1.51172 -2.581736,-0.0557 -5.163907,-0.064 -7.746094,-0.041 z" /><path
       id="path17"
       clip-path="url(#clipPath15)"
       style="color:#000000;display:inline;opacity:0.6;mix-blend-mode:color-burn;fill:url(#linearGradient18);stroke:#000000;stroke-linecap:round;stroke-linejoin:round;stroke-opacity:1;-inkscape-stroke:none;paint-order:markers stroke fill;filter:url(#filter19)"
       transform="translate(-76.498002,32.617463)"
       d="m 120.36925,-2.1171573 c -0.45034,9.5e-6 -0.81048,0.37423 -0.79323,0.824239 0.63466,16.2761643 6.71759,30.0325593 15.46882,35.9063353 l 0.0408,-0.134876 c 0.0344,0.08531 0.0833,0.163998 0.14469,0.232544 0,0 1.47764,0.461879 3.32641,0.923458 1.84878,0.461579 4.04289,0.935861 5.67356,0.93586 1.63067,0 3.82529,-0.474281 5.67407,-0.93586 1.84877,-0.461579 3.32796,-0.923458 3.32796,-0.923458 0.063,-0.04567 0.11884,-0.100342 0.16589,-0.162264 l 0.0196,0.0646 c 8.75123,-5.873767 14.83415,-19.630155 15.46883,-35.9063353 0.0172,-0.450013 -0.3429,-0.8242352 -0.79324,-0.824239 l -0.86299,1.58594964 C 166.43505,14.963985 160.49366,27.893394 152.59985,33.242441 c -0.13145,0.0408 -1.36622,0.425711 -3.07837,0.853178 -1.80029,0.449474 -3.98927,0.886767 -5.29115,0.886767 -1.30188,0 -3.48879,-0.437293 -5.28908,-0.886767 -1.71018,-0.426976 -2.9416,-0.811536 -3.07578,-0.853178 C 127.97108,27.893899 122.02613,14.9648 121.2307,-0.53120765 Z"
       sodipodi:nodetypes="cccccssscccccccsssccc" /><path
       id="path10"
       style="display:inline;opacity:1;mix-blend-mode:soft-light;fill:url(#radialGradient13);stroke:none;stroke-width:0.529167;stroke-linecap:round;stroke-linejoin:round;stroke-opacity:0.41641;paint-order:markers stroke fill"
       d="m 43.871752,31.293796 c 0.627567,16.094101 6.706414,29.633338 15.116987,35.278466 h -0.02008 c 0,0 5.831877,1.822111 8.764424,1.822111 2.932547,0 8.764424,-1.822111 8.764424,-1.822111 h -0.02008 C 84.888015,60.927135 90.967336,47.387898 91.594912,31.293796 l -11.93079,0.529167 c -3.97693,0 -7.358688,-1.322657 -11.93079,-0.529167 -4.572102,0.79349 -7.95386,-0.529167 -11.93079,-0.529167 z"
       sodipodi:nodetypes="ccczccczzzc"
       inkscape:label="wine" /><path
       style="color:#000000;display:inline;fill:url(#linearGradient38);stroke-linecap:round;stroke-linejoin:round;-inkscape-stroke:none;paint-order:markers stroke fill;filter:url(#filter37)"
       d="m 62.525391,139.60742 c -7.669445,0.002 -14.665378,0.32492 -19.857422,0.85547 -2.596022,0.26528 -4.74096,0.58237 -6.300782,0.93945 -0.77991,0.17854 -1.413654,0.36726 -1.892578,0.57032 -0.383386,0.16254 -0.599816,0.35626 -0.785156,0.57812 h -0.05469 a 0.26460978,0.26460978 0 0 0 -0.263672,0.26367 v 0.16992 0.57227 a 0.26460978,0.26460978 0 0 0 0.263672,0.26563 h 57.78125 a 0.26460978,0.26460978 0 0 0 0.263671,-0.26563 v -0.57227 -0.16992 a 0.26460978,0.26460978 0 0 0 -0.1875,-0.1875 l 0.111329,0.0684 c -0.02709,-0.0535 -0.12719,-0.0737 -0.164063,-0.12109 a 0.26460978,0.26460978 0 0 0 -0.02344,-0.0234 h -0.0078 c -0.185592,-0.22228 -0.402797,-0.41729 -0.787109,-0.58008 -0.479814,-0.20324 -1.11506,-0.39162 -1.896485,-0.57031 -1.562848,-0.35738 -3.709848,-0.67413 -6.310547,-0.93945 -5.201396,-0.53065 -12.210133,-0.85337 -19.888671,-0.85352 z m 0,0.5293 c 7.663686,1.5e-4 14.658779,0.32359 19.833984,0.85156 2.587603,0.26399 4.721874,0.5807 6.248047,0.92969 0.763086,0.17449 1.373998,0.35775 1.80664,0.54101 0.432643,0.18327 0.670042,0.38229 0.716797,0.47461 a 0.26460978,0.26460978 0 0 0 0.01953,0.0117 v 0.0391 0.3086 h -57.25 v -0.3086 -0.01 a 0.26460978,0.26460978 0 0 0 0.06641,-0.041 c 0.04669,-0.0922 0.2831,-0.29156 0.714844,-0.47461 0.431743,-0.18305 1.043125,-0.36667 1.804687,-0.54101 1.523125,-0.34868 3.651455,-0.6638 6.234375,-0.92774 5.16584,-0.52787 12.150078,-0.85201 19.804688,-0.85351 z"
       id="path35"
       clip-path="url(#clipPath36)"
       transform="translate(5.2079445,-8.09045)" /><path
       id="path43"
       style="display:inline;opacity:0.6;fill:#ffffff;fill-opacity:1;stroke:none;stroke-width:0.529166;stroke-linecap:round;stroke-linejoin:round;stroke-dasharray:none;stroke-opacity:1;paint-order:markers stroke fill;filter:url(#filter44)"
       d="m -72.878104,2.117183 c 0,0 -1.29715,16.153462 -1.29912,25.369045 0,17.291893 1.57278,32.063776 3.79339,38.028111 h -0.005 c 0,0 1.04177,3.721191 1.18182,9.274635 0.14006,5.553447 0.23737,23.186827 0.23737,23.186827 0,0 -0.14835,17.737389 -0.47473,23.187359 -0.32638,5.44998 -1.06813,9.27463 -1.06813,9.27463 h 2.31382 2.31382 c 0,0 -0.74175,-3.82465 -1.06813,-9.27463 -0.32638,-5.44997 -0.47472,-23.187359 -0.47472,-23.187359 0,0 0.0973,-17.63338 0.23736,-23.186827 0.14005,-5.553444 1.18183,-9.274635 1.18183,-9.274635 h -0.005 c 2.22062,-5.964334 3.7934,-20.736216 3.7934,-38.028111 -1.4e-4,-9.208827 -1.29228,-25.369045 -1.29228,-25.369045 h -4.68629 -4.67944 z"
       clip-path="url(#clipPath44)"
       transform="translate(135.93201,1.5869822)"
       sodipodi:nodetypes="ccccscscccscsccccccc" /><path
       id="path47"
       style="display:inline;opacity:0.4;fill:#ffffff;fill-opacity:1;stroke:none;stroke-width:0.529167;stroke-linecap:round;stroke-linejoin:round;stroke-dasharray:none;stroke-opacity:1;paint-order:markers stroke fill;filter:url(#filter61)"
       d="M 48.560861,4.7666341 C 48.31021,5.5706689 48.05962,6.3748547 47.808969,7.1788899 45.923573,13.410021 44.223928,19.804477 43.517241,26.225789 c -0.335383,3.963035 -0.03239,7.992042 0.490409,11.919169 0.899974,6.14812 2.688348,12.271602 5.7304,17.709513 0.544026,0.488427 3.786121,5.773518 4.372985,6.265948 C 52.528282,59.503869 50.486363,55.578921 48.784237,51.344343 47.25297,47.534831 46.003635,43.419662 45.492314,40.724129 44.630517,35.848622 44.176906,30.928722 44.597795,25.993245 45.338319,19.552817 47.042237,13.210391 48.902442,7.0615844 49.141375,6.2966122 49.380779,5.5316059 49.619711,4.7666341 Z M 63.860393,72.492856 c 0,0 -0.32439,-0.47248 -0.905065,-0.914282 -0.0041,-0.0031 -0.172689,-1.77298 -2.539012,-2.950468 1.767198,1.695894 4.084591,7.254811 4.093442,9.550067 0.477877,7.30006 0.698138,14.618446 0.83199,21.931477 -0.356321,7.27851 -0.615478,14.58902 -1.778186,21.7935 -0.641373,3.22825 -1.971644,6.29847 -3.744991,9.06301 h 7.085921 c -7.307153,-1.02992 -2.923453,-5.83476 -2.282079,-9.06301 1.162083,-7.20448 1.42321,-14.51486 1.776118,-21.7935 -0.130886,-7.313109 -0.352375,-14.63142 -0.829923,-21.931477 -0.0162,-3.135533 -1.894372,-3.566143 -1.708215,-5.685317 z"
       sodipodi:nodetypes="ccccccscccccsscccccccccs"
       clip-path="url(#clipPath61)" /><path
       id="rect38"
       style="display:inline;opacity:0.2;stroke-width:0.529167;stroke-linecap:round;stroke-linejoin:round;paint-order:markers stroke fill;filter:url(#filter38)"
       d="m 67.733333,116.8233 c 1.354855,0 3.145195,9.60874 4.443804,10.60928 1.29861,1.00053 2.105488,0.8012 1.493419,2.35173 -0.612069,1.55053 -3.274646,-0.32004 -5.937224,-0.32004 -2.662577,0 -5.325154,1.87057 -5.937223,0.32004 -0.612069,-1.55053 0.194809,-1.3512 1.493419,-2.35173 1.298609,-1.00054 3.088949,-10.60928 4.443805,-10.60928 z"
       sodipodi:nodetypes="sssssss" /><path
       id="path56"
       style="display:inline;opacity:0.4;fill:url(#linearGradient58);stroke:none;stroke-width:0.529167;stroke-linecap:round;stroke-linejoin:round;stroke-dasharray:none;stroke-opacity:1;paint-order:markers stroke fill;filter:url(#filter57)"
       d="m 86.061763,4.7666341 c 0.250651,0.8040348 0.501241,1.6082206 0.751892,2.4122558 1.885396,6.2311311 3.585041,12.6255871 4.291728,19.0468991 0.335383,3.963035 0.03239,7.992042 -0.490409,11.919169 -0.899974,6.14812 -2.688348,12.271602 -5.7304,17.709513 -0.544026,0.488427 -7.490288,5.773518 -8.077152,6.265948 1.582753,-2.61655 3.624672,-6.541498 5.326798,-10.776076 1.531267,-3.809512 2.780602,-7.924681 3.291923,-10.620214 0.861797,-4.875507 1.315408,-9.795407 0.894519,-14.730884 C 85.580138,19.552817 83.87622,13.210391 82.016015,7.0615844 81.777082,6.2966122 81.537678,5.5316059 81.298746,4.7666341 Z M 71.291397,72.492856 c 0,0 0.32439,-0.47248 0.905065,-0.914282 0.0041,-0.0031 0.172689,-1.77298 2.539012,-2.950468 -1.767198,1.695894 -4.084591,7.254811 -4.093442,9.550067 -0.477877,7.30006 -0.698138,14.618446 -0.83199,21.931477 0.356321,7.27851 0.615478,14.58902 1.778186,21.7935 0.641373,3.22825 1.971644,6.29847 3.744991,9.06301 -3.075908,-2.82688 -3.998637,-5.06561 -4.803842,-9.06301 -1.162083,-7.20448 -1.42321,-14.51486 -1.776118,-21.7935 0.130886,-7.313109 0.352375,-14.63142 0.829923,-21.931477 0.0162,-3.135533 1.894372,-3.566143 1.708215,-5.685317 z"
       sodipodi:nodetypes="ccccccscccccssccccccccs" /><path
       id="path58"
       style="display:inline;opacity:0.4;mix-blend-mode:normal;fill:#2b0011;stroke-width:0.529167;stroke-linecap:round;stroke-linejoin:round;paint-order:markers stroke fill;filter:url(#filter58)"
       d="m 79.384001,44.287835 c 0,5.472094 -1.328958,10.523233 -7.763446,10.523233 -4.030828,0 -9.434886,0.299964 -12.666403,-2.526205 -1.927016,-1.685298 -2.871493,-5.952879 -2.871493,-7.997028 0,-5.472094 2.437252,-2.348297 8.87174,-2.348297 4.048579,0 12.141419,-10.002471 15.045387,-9.556525 1.711366,0.262805 -0.615785,9.875769 -0.615785,11.904822 z"
       sodipodi:nodetypes="sssssss" /><path
       id="path79"
       style="color:#000000;fill:#7e5b3b;-inkscape-stroke:none;filter:url(#filter85);opacity:0.4"
       d="m 98.87355,101.04034 c -1.503787,1.65509 -3.834022,3.28211 -4.48744,5.45787 -2.363686,0.64291 -4.762783,-0.25867 -7.206758,-0.30138 -2.698823,-0.13188 -6.119713,-0.7838 -7.611774,-3.1934 -0.675411,-1.32573 0.2055,2.33775 1.67742,1.91841 2.851931,1.82009 6.279864,1.38232 9.455881,1.90683 2.697903,0.20515 5.835091,6.9e-4 8.016508,1.80047 0.984357,3.0205 -1.657683,4.88307 -4.113663,5.62401 -3.255409,0.69377 -8.515415,-1.27353 -9.047741,3.6025 -0.428219,3.71418 0.484271,-2.0058 1.596292,-2.60636 2.660536,-1.45194 6.242178,0.4387 8.897506,-1.3046 1.335392,-0.83149 2.971277,-2.56643 2.932788,0.24959 1.770531,2.04426 -0.409568,5.49779 0.939713,6.90473 -0.0772,-2.83783 0.244818,-5.68714 -1.017799,-8.49353 0.487547,-1.27963 -0.871343,-5.1788 1.464467,-3.59474 2.8939,0.52567 6.24331,0.80172 6.3866,4.51139 1.57708,2.88948 -2.17847,5.15245 -0.31911,7.81693 1.74399,2.84657 -1.76145,-2.83813 0.46422,-3.58774 1.60677,-2.26768 -1.1484,-5.94681 -0.46152,-7.36209 2.81354,0.39904 5.53277,1.64914 7.95523,3.03656 3.01369,2.07882 6.96348,0.88039 9.72289,3.42897 0.71224,3.46734 -4.88278,-0.36096 -6.47122,1.65699 -1.99816,0.53676 -4.47834,4.85412 -2.21178,5.30635 -2.0634,-2.41087 1.81241,-5.01939 3.91126,-5.77581 2.69232,1.04808 4.9691,0.53549 7.0991,-0.96558 2.29247,-0.70461 4.99788,-2.34964 6.21563,0.91955 2.019,0.42955 -1.27885,-1.37604 -1.51068,-2.22763 -2.67226,-0.84487 -5.51913,3.10617 -7.67741,0.45329 -1.91625,-1.54918 -4.26025,-1.89956 -6.79216,-1.78996 -2.677,-1.70802 -5.41307,-3.04899 -8.49628,-3.98869 -2.99692,-0.77615 -6.2486,-1.03776 -9.232556,-2.24023 -1.355476,-1.18429 -6.139705,-0.56636 -3.423733,-3.33345 1.828556,-2.00646 3.630168,-4.961547 6.490879,-2.51675 2.62721,1.0608 5.52915,1.09562 8.30419,1.57273 1.4693,-0.85414 -3.06134,-0.14074 -3.99359,-0.82738 -2.71846,-0.0108 -4.89165,-1.68494 -7.45536,-2.05785 z m 6.07767,1.90481 c 0.14899,0.17934 -0.184,0.0553 0,0 z m -12.679851,4.01784 -0.0014,0.0657 z m 12.321731,2.78122 c 0.2145,-0.002 -0.0536,0.21551 0,0 z m 7.03833,1.93994 c 0.22098,0.22046 -0.30467,0.30863 0,0 z m -4.95474,0.52606 -0.004,0.0243 z m 7.37216,0.64906 c 0.11996,0.28269 -0.30434,0.0337 0,0 z m -14.140738,4.02149 0.103218,0.0408 z m 24.867218,0.58062 c 0.21135,0.028 -0.0898,0.27965 0,0 z m -18.45107,0.90268 c 0.27158,0.009 -0.11343,0.16022 0,0 z m 10.5177,0.9992 c 0.16319,0.0858 -0.1577,0.12928 0,0 z m -10.67015,1.01751 c 0.1672,-0.004 -0.1179,0.14451 0,0 z m 8.79685,0.85368 c 0.25148,0.058 -0.18061,0.0533 0,0 z m -8.07237,1.08008 c 0.30576,0.15023 -0.31818,0.12237 0,0 z m 7.90081,0.0667 0.001,0.0119 z" /><ellipse
       style="mix-blend-mode:soft-light;fill:url(#radialGradient94);stroke:none;stroke-width:0.529167;stroke-linecap:round;stroke-linejoin:round;stroke-dasharray:none;stroke-opacity:1;paint-order:markers stroke fill;opacity:0.4"
       id="ellipse92"
       cx="82.889679"
       cy="144.10834"
       rx="6.9424963"
       ry="8.6173325"
       transform="rotate(-10.285662)" /></g></svg>
